<?xml version="1.0" standalone="no"?>
<!DOCTYPE svg PUBLIC "-//W3C//DTD SVG 1.1//EN" "http://www.w3.org/Graphics/SVG/1.1/DTD/svg11.dtd" >
<svg xmlns="http://www.w3.org/2000/svg" xmlns:xlink="http://www.w3.org/1999/xlink" version="1.1">
<metadata>
Created by FontForge 20170731 at Thu Feb 13 20:55:56 2014
 By Aleksey,,,
Copyright (c) Christian Schwartz, 2007. All rights reserved.
</metadata>
<defs>
<font id="StagSans-Bold" horiz-adv-x="398" >
  <font-face 
    font-family="Stag Sans Bold"
    font-weight="700"
    font-stretch="normal"
    units-per-em="1000"
    panose-1="2 11 8 3 4 0 0 2 0 4"
    ascent="800"
    descent="-200"
    x-height="528"
    cap-height="700"
    bbox="-197 -236 1324 929"
    underline-thickness="50"
    underline-position="-200"
    unicode-range="U+0020-FB02"
  />
<missing-glyph horiz-adv-x="242" 
 />
    <glyph glyph-name="f_f" unicode="ff" horiz-adv-x="708" 
d="M10 392v136h51v17q0 86 48.5 125t144.5 39q55 0 102 -15v-118h-19q-31 0 -42.5 -7.5t-11.5 -28.5v-12h110v23q0 87 49 125t147 38q61 0 108 -15v-117h-28q-31 0 -42.5 -8t-11.5 -32v-14h78v-136h-78v-392h-222v392h-110v-392h-222v392h-51z" />
    <glyph glyph-name=".notdef" horiz-adv-x="242" 
 />
    <glyph glyph-name=".null" horiz-adv-x="0" 
 />
    <glyph glyph-name="nonmarkingreturn" horiz-adv-x="333" 
 />
    <glyph glyph-name="space" unicode=" " horiz-adv-x="158" 
 />
    <glyph glyph-name="exclam" unicode="!" horiz-adv-x="324" 
d="M90 234l-46 336v130h236v-130l-45 -336h-145zM162 -7q-46 0 -77.5 30t-31.5 73q0 44 31.5 74.5t77.5 30.5q45 0 77 -30.5t32 -74.5q0 -43 -32 -73t-77 -30z" />
    <glyph glyph-name="quotedbl" unicode="&#x22;" horiz-adv-x="453" 
d="M49 435l-25 164v101h185v-101l-25 -164h-135zM270 435l-25 164v101h185v-101l-25 -164h-135z" />
    <glyph glyph-name="numbersign" unicode="#" horiz-adv-x="561" 
d="M52 401v143h84l24 156h136l-24 -156h69l23 156h136l-23 -156h63v-143h-84l-11 -78h63v-143h-84l-26 -180h-136l26 180h-68l-26 -180h-136l26 180h-64v143h85l11 78h-64zM252 401l-11 -78h68l11 78h-68z" />
    <glyph glyph-name="dollar" unicode="$" horiz-adv-x="575" 
d="M355 771v-69q91 -9 164 -49v-141h-98q-50 42 -114 42q-84 0 -84 -48q0 -23 19.5 -33.5t70.5 -24.5q140 -36 190.5 -82t50.5 -143q0 -88 -53 -145.5t-154 -74.5v-105h-138v100q-114 7 -185 53v147h99q48 -50 125 -50q88 0 88 49q0 25 -18.5 35.5t-70.5 23.5q-13 3 -21 5
q-106 28 -157.5 74.5t-51.5 147.5q0 90 53 144.5t147 70.5v73h138z" />
    <glyph glyph-name="percent" unicode="%" horiz-adv-x="914" 
d="M216 429q45 0 45 86q0 87 -45 87q-44 0 -44 -87q0 -86 44 -86zM216 322q-83 0 -141 50.5t-58 144.5q0 93 58 142.5t141 49.5q84 0 142 -49.5t58 -142.5q0 -94 -58.5 -144.5t-141.5 -50.5zM143 -34l493 763h131l-493 -763h-131zM698 97q44 0 44 86q0 87 -44 87
q-45 0 -45 -87q0 -86 45 -86zM698 -9q-84 0 -142 50t-58 144q0 93 58.5 143t141.5 50t141 -50t58 -143q0 -94 -58 -144t-141 -50z" />
    <glyph glyph-name="ampersand" unicode="&#x26;" horiz-adv-x="754" 
d="M518 0l-35 37q-81 -45 -187 -45q-136 0 -206.5 57t-70.5 155q0 131 144 196q-28 51 -28 109q0 92 67.5 147t193.5 55q114 0 181 -45v-137h-93q-27 25 -68 25q-23 0 -37 -13t-14 -33q0 -19 10.5 -35.5t37.5 -46.5l105 -119q28 58 37 116h163v-71q-27 -93 -84 -181
l102 -120v-51h-218zM329 140q28 0 51 14l-126 140q-24 -26 -24 -62q0 -42 26 -67t73 -25z" />
    <glyph glyph-name="quotesingle" unicode="'" horiz-adv-x="232" 
d="M49 435l-25 164v101h185v-101l-25 -164h-135z" />
    <glyph glyph-name="parenleft" unicode="(" horiz-adv-x="372" 
d="M354 741v-128q-121 -48 -121 -263q0 -224 121 -272v-127h-77q-50 16 -92.5 44.5t-80 74.5t-58.5 117.5t-21 162.5q0 89 22 160t60 116t79.5 72.5t90.5 42.5h77z" />
    <glyph glyph-name="parenright" unicode=")" horiz-adv-x="372" 
d="M18 613v128h78q49 -15 90.5 -42.5t79.5 -72.5t60 -116t22 -160q0 -73 -14.5 -134.5t-38 -104t-57 -75.5t-68.5 -53t-74 -32h-78v127q121 47 121 272q0 216 -121 263z" />
    <glyph glyph-name="asterisk" unicode="*" horiz-adv-x="429" 
d="M289 647l-32 -77l63 53l51 16l45 -142l-49 -16l-78 5l68 -40l31 -43l-121 -86l-31 42l-22 81l-21 -81l-32 -42l-120 86l31 43l68 40l-78 -5l-49 16l45 142l51 -16l62 -53l-31 77v53h149v-53z" />
    <glyph glyph-name="plus" unicode="+" horiz-adv-x="543" 
d="M520 261h-156v-169h-183v169h-158v169h158v169h183v-169h156v-169z" />
    <glyph glyph-name="comma" unicode="," horiz-adv-x="251" 
d="M17 -34q71 9 71 38q0 9 -5.5 14t-17 11.5t-17.5 11.5q-32 24 -32 69q0 39 30 65t76 26q48 0 81 -32.5t33 -95.5q0 -173 -219 -193v86z" />
    <glyph glyph-name="hyphen" unicode="-" horiz-adv-x="312" 
d="M23 206v160h265v-160h-265z" />
    <glyph glyph-name="period" unicode="." horiz-adv-x="251" 
d="M125 -7q-46 0 -77.5 30t-31.5 73q0 44 31.5 74.5t77.5 30.5q45 0 77 -30.5t32 -74.5q0 -43 -32 -73t-77 -30z" />
    <glyph glyph-name="slash" unicode="/" horiz-adv-x="390" 
d="M386 741v-41l-230 -749h-154v41l230 749h154z" />
    <glyph glyph-name="zero" unicode="0" horiz-adv-x="701" 
d="M351 -11q-145 0 -236.5 94.5t-91.5 266.5q0 171 93 266t235 95q141 0 234.5 -95.5t93.5 -265.5q0 -172 -91.5 -266.5t-236.5 -94.5zM351 147q47 0 69 46.5t22 152.5q0 105 -22 150.5t-69 45.5q-48 0 -70 -45.5t-22 -150.5q0 -106 22.5 -152.5t69.5 -46.5z" />
    <glyph glyph-name="one" unicode="1" horiz-adv-x="424" 
d="M367 0h-238v482l-71 -38h-40v171l172 85h177v-700z" />
    <glyph glyph-name="two" unicode="2" horiz-adv-x="568" 
d="M539 172v-172h-518v175l191 172q51 47 72.5 76.5t21.5 57.5q0 54 -71 54q-60 0 -105 -39h-94v157q104 58 240 58q270 0 270 -216q0 -69 -38 -122.5t-120 -120.5l-98 -80h249z" />
    <glyph glyph-name="three" unicode="3" horiz-adv-x="563" 
d="M236 -11q-135 0 -224 47v144h87q40 -31 113 -31q42 0 67.5 16.5t25.5 48.5q0 64 -88 64h-63v144h57q91 0 91 61q0 28 -19.5 43.5t-55.5 15.5q-64 0 -110 -27h-85v140q95 56 233 56q122 0 193.5 -47t71.5 -140q0 -131 -137 -164v-4q150 -21 150 -160q1 -98 -80.5 -152.5
t-226.5 -54.5z" />
    <glyph glyph-name="four" unicode="4" horiz-adv-x="629" 
d="M545 0h-234v143h-291v168l302 389h223v-410h65v-147h-65v-143zM182 294v-4h137v181h-4z" />
    <glyph glyph-name="five" unicode="5" horiz-adv-x="572" 
d="M552 230q0 -113 -83 -177t-232 -64q-130 0 -219 47v150h87q45 -34 112 -34q99 0 99 79q0 70 -72 70q-49 0 -78 -31h-130v430h476v-171h-310v-118h3q42 37 129 37q98 0 158 -54.5t60 -163.5z" />
    <glyph glyph-name="six" unicode="6" horiz-adv-x="649" 
d="M342 -11q-150 0 -234.5 84.5t-84.5 261.5q0 180 98.5 278t280.5 98q111 0 187 -38v-159h-84q-42 24 -102 24q-62 0 -96.5 -32t-44.5 -102q60 43 157 43q96 0 153.5 -53t57.5 -156q0 -115 -76.5 -182t-211.5 -67zM328 306q-37 0 -71 -15q4 -90 21 -123t53 -33q69 0 69 90
q0 43 -17 62t-55 19z" />
    <glyph glyph-name="seven" unicode="7" horiz-adv-x="549" 
d="M80 0v58l249 458v4h-310v180h506v-189l-202 -511h-243z" />
    <glyph glyph-name="eight" unicode="8" horiz-adv-x="639" 
d="M319 -11q-145 0 -223.5 56t-78.5 154q0 67 31 109t99 63v4q-105 35 -105 147q0 86 77.5 137.5t199.5 51.5q123 0 200 -51.5t77 -137.5q0 -57 -24 -93t-78 -54v-4q128 -40 128 -172q0 -98 -79 -154t-224 -56zM319 135q39 0 58 23.5t19 61.5t-19 61t-58 23t-58 -23t-19 -61
t19 -61.5t58 -23.5zM319 431q30 0 46.5 17.5t16.5 48.5t-16.5 49t-46.5 18t-46.5 -18t-16.5 -49t16.5 -48.5t46.5 -17.5z" />
    <glyph glyph-name="nine" unicode="9" horiz-adv-x="649" 
d="M249 -11q-117 0 -197 36v158h85q39 -24 107 -24q73 0 104 31t39 104q-60 -44 -151 -44q-99 0 -158 55t-59 158q0 115 77 181.5t212 66.5q150 0 234.5 -85.5t84.5 -263.5q0 -180 -94 -276.5t-284 -96.5zM320 390q36 0 70 15q-3 91 -20.5 123.5t-53.5 32.5q-68 0 -68 -89
q0 -44 17 -63t55 -19z" />
    <glyph glyph-name="colon" unicode=":" horiz-adv-x="253" 
d="M127 268q-46 0 -78 30t-32 73q0 44 32 74.5t78 30.5q45 0 77 -30.5t32 -74.5q0 -43 -32 -73t-77 -30zM127 -7q-46 0 -78 30t-32 73q0 44 32 74.5t78 30.5q45 0 77 -30.5t32 -74.5q0 -43 -32 -73t-77 -30z" />
    <glyph glyph-name="semicolon" unicode=";" horiz-adv-x="254" 
d="M18 -34q71 9 71 38q0 9 -5.5 14t-17 11.5t-17.5 11.5q-32 24 -32 69q0 39 29.5 65t75.5 26q49 0 82 -32.5t33 -95.5q0 -173 -219 -193v86zM127 268q-46 0 -78 30t-32 73q0 44 32 74.5t78 30.5q45 0 77 -30.5t32 -74.5q0 -43 -32 -73t-77 -30z" />
    <glyph glyph-name="less" unicode="&#x3c;" horiz-adv-x="468" 
d="M24 253v152l377 177h41v-170l-189 -82v-3l189 -80v-170h-41z" />
    <glyph glyph-name="equal" unicode="=" horiz-adv-x="502" 
d="M478 335h-454v156h454v-156zM478 125h-454v156h454v-156z" />
    <glyph glyph-name="greater" unicode="&#x3e;" horiz-adv-x="468" 
d="M444 405v-152l-377 -176h-41v170l189 81v3l-189 80v171h41z" />
    <glyph glyph-name="question" unicode="?" horiz-adv-x="486" 
d="M109 234q-13 61 1 99.5t55 76.5q5 4 16.5 14t16.5 14.5t13.5 12.5t12 13t8 12t6.5 13.5t2 13.5q0 43 -57 43q-48 0 -86 -32h-84v144q91 53 209 53q121 0 183 -51t62 -143q0 -60 -31 -100t-90 -78q-43 -29 -60 -50.5t-14 -54.5h-163zM193 -7q-46 0 -77.5 30t-31.5 73
q0 44 31.5 74.5t77.5 30.5q45 0 77.5 -30.5t32.5 -74.5q0 -43 -32.5 -73t-77.5 -30z" />
    <glyph glyph-name="at" unicode="@" horiz-adv-x="886" 
d="M438 -134q-86 0 -160.5 22t-133.5 66t-93 117.5t-34 168.5q0 100 41 183t106.5 135t144.5 80.5t158 28.5q176 0 289.5 -88t113.5 -242q0 -133 -80.5 -202.5t-198.5 -69.5q-105 0 -133 63q-55 -59 -131 -59q-55 0 -87 36.5t-32 106.5q0 96 61 169t154 73q60 0 99 -44
q26 38 71 38h96l-53 -232q-11 -49 20 -49q41 0 73.5 44t32.5 126q0 113 -78 175.5t-217 62.5q-64 0 -123 -21t-107 -61.5t-77 -106t-29 -146.5q0 -142 84 -212t223 -70q145 0 252 66h37v-86q-49 -32 -126 -52t-163 -20zM416 185q21 0 37 14l31 135q-12 4 -25 4
q-33 0 -54.5 -34t-21.5 -78q0 -41 33 -41z" />
    <glyph glyph-name="A" unicode="A" horiz-adv-x="728" 
d="M16 0v49l213 651h267l217 -651v-49h-230l-37 134h-207l-37 -134h-186zM341 501l-59 -210h120l-58 210h-3z" />
    <glyph glyph-name="B" unicode="B" horiz-adv-x="659" 
d="M49 0v700h290q278 0 278 -183q0 -62 -32.5 -96.5t-96.5 -51.5v-4q154 -26 154 -164q0 -98 -78.5 -149.5t-221.5 -51.5h-293zM283 141h45q79 0 79 76q0 75 -79 75h-45v-151zM283 424h42q71 0 71 66q0 65 -70 65h-43v-131z" />
    <glyph glyph-name="C" unicode="C" horiz-adv-x="654" 
d="M381 -11q-168 0 -262.5 92t-94.5 262q0 175 101 271.5t277 96.5q135 0 218 -56v-152h-96q-48 41 -115 41q-142 0 -142 -191q0 -108 33 -154.5t99 -46.5q81 0 132 49h92v-141q-96 -71 -242 -71z" />
    <glyph glyph-name="D" unicode="D" horiz-adv-x="729" 
d="M49 0v700h282q375 0 375 -345q0 -355 -382 -355h-275zM287 154h30q77 0 113 43.5t36 148.5q0 106 -35 150.5t-114 44.5h-30v-387z" />
    <glyph glyph-name="E" unicode="E" horiz-adv-x="602" 
d="M49 0v700h510v-160h-273v-112h187v-150h-187v-122h282v-156h-519z" />
    <glyph glyph-name="F" unicode="F" horiz-adv-x="593" 
d="M287 0h-238v700h509v-160h-271v-134h206v-154h-206v-252z" />
    <glyph glyph-name="G" unicode="G" horiz-adv-x="701" 
d="M384 -11q-361 0 -361 354q0 177 102 272.5t286 95.5q129 0 220 -47v-159h-95q-52 38 -122 38q-76 0 -112.5 -46t-36.5 -153q0 -111 27.5 -156t90.5 -45q35 0 58 7v99h-66v134h285v-340q-119 -54 -276 -54z" />
    <glyph glyph-name="H" unicode="H" horiz-adv-x="735" 
d="M287 0h-238v700h238v-261h161v261h238v-700h-238v270h-161v-270z" />
    <glyph glyph-name="I" unicode="I" horiz-adv-x="343" 
d="M290 0h-238v700h238v-700z" />
    <glyph glyph-name="J" unicode="J" horiz-adv-x="524" 
d="M202 -9q-123 0 -189 49v148h86q29 -27 79 -27q64 0 64 57v482h237v-477q0 -117 -67.5 -174.5t-209.5 -57.5z" />
    <glyph glyph-name="K" unicode="K" horiz-adv-x="740" 
d="M49 0v700h238v-263l203 263h210v-43l-195 -240l214 -374v-43h-238l-148 261l-46 -50v-211h-238z" />
    <glyph glyph-name="L" unicode="L" horiz-adv-x="574" 
d="M544 0h-495v700h238v-541h257v-159z" />
    <glyph glyph-name="M" unicode="M" horiz-adv-x="916" 
d="M49 0v700h303l105 -352h3l105 352h301v-700h-230v434h-3l-131 -434h-132l-130 434h-3v-434h-188z" />
    <glyph glyph-name="N" unicode="N" horiz-adv-x="728" 
d="M49 0v700h241l193 -350h3v350h192v-700h-216l-218 393h-3v-393h-192z" />
    <glyph glyph-name="O" unicode="O" horiz-adv-x="761" 
d="M380 -11q-158 0 -257.5 95t-99.5 264t101.5 266t255.5 97q155 0 256.5 -97t101.5 -266t-100 -264t-258 -95zM380 150q117 0 117 197t-117 197t-117 -197t117 -197z" />
    <glyph glyph-name="P" unicode="P" horiz-adv-x="651" 
d="M49 0v700h290q153 0 224 -57t71 -176q0 -117 -76 -173.5t-230 -56.5h-41v-237h-238zM284 549v-173h40q79 0 79 90q0 43 -17.5 63t-61.5 20h-40z" />
    <glyph glyph-name="Q" unicode="Q" horiz-adv-x="761" 
d="M691 -116l-330 80q-171 41 -254.5 132.5t-83.5 256.5t101.5 261.5t255.5 96.5q155 0 256.5 -97t101.5 -265q0 -191 -168 -260v-4l186 -22v-179h-65zM380 145q117 0 117 202q0 197 -117 197t-117 -197q0 -202 117 -202z" />
    <glyph glyph-name="R" unicode="R" horiz-adv-x="693" 
d="M455 0l-117 235h-51v-235h-238v700h298q151 0 223 -56.5t72 -168.5q0 -117 -94 -183l128 -243v-49h-221zM282 546v-163h43q84 0 84 81q0 82 -84 82h-43z" />
    <glyph glyph-name="S" unicode="S" horiz-adv-x="582" 
d="M259 -11q-146 0 -236 56v151h94q47 -45 132 -45q88 0 88 47q0 26 -20.5 36.5t-76.5 22.5l-15 3q-105 23 -155.5 71.5t-50.5 153.5q0 111 77 168.5t207 57.5q132 0 225 -49v-148h-94q-47 36 -123 36q-82 0 -82 -44q0 -24 21 -34t78 -22q133 -27 183 -77.5t50 -151.5
q0 -110 -77.5 -171t-224.5 -61z" />
    <glyph glyph-name="T" unicode="T" horiz-adv-x="626" 
d="M432 0h-238v538h-166v162h570v-162h-166v-538z" />
    <glyph glyph-name="U" unicode="U" horiz-adv-x="713" 
d="M378 161q48 0 69.5 24t21.5 78v437h197v-444q0 -129 -77.5 -196.5t-225.5 -67.5q-156 0 -236 67.5t-80 196.5v444h238v-437q0 -54 22 -78t71 -24z" />
    <glyph glyph-name="V" unicode="V" horiz-adv-x="717" 
d="M227 0l-213 651v49h233l125 -434h3l125 434h203v-49l-213 -651h-263z" />
    <glyph glyph-name="W" unicode="W" horiz-adv-x="981" 
d="M172 0l-156 651v49h232l76 -392h3l90 392h178l92 -392h3l74 392h201v-49l-156 -651h-238l-84 347h-2l-84 -347h-229z" />
    <glyph glyph-name="X" unicode="X" horiz-adv-x="707" 
d="M19 0v50l172 308l-165 292v50h240l109 -209l98 209h200v-50l-157 -283l172 -317v-50h-240l-117 232l-112 -232h-200z" />
    <glyph glyph-name="Y" unicode="Y" horiz-adv-x="672" 
d="M460 0h-238v247l-211 403v50h223l118 -242h2l113 242h194v-50l-201 -397v-253z" />
    <glyph glyph-name="Z" unicode="Z" horiz-adv-x="599" 
d="M29 0v165l282 370v4h-263v161h521v-173l-282 -363v-4h282v-160h-540z" />
    <glyph glyph-name="bracketleft" unicode="[" horiz-adv-x="352" 
d="M52 -49v790h278v-140h-81v-510h81v-140h-278z" />
    <glyph glyph-name="backslash" unicode="\" horiz-adv-x="390" 
d="M4 700v41h155l229 -749v-41h-154z" />
    <glyph glyph-name="bracketright" unicode="]" horiz-adv-x="352" 
d="M300 741v-790h-277v140h81v510h-81v140h277z" />
    <glyph glyph-name="asciicircum" unicode="^" horiz-adv-x="459" 
d="M11 451v42l136 207h164l137 -207v-42h-156l-61 84h-3l-60 -84h-157z" />
    <glyph glyph-name="underscore" unicode="_" horiz-adv-x="391" 
d="M394 -162h-397v130h397v-130z" />
    <glyph glyph-name="grave" unicode="`" 
d="M273 559h-133l-105 104v44h204l34 -113v-35z" />
    <glyph glyph-name="a" unicode="a" horiz-adv-x="574" 
d="M391 0q-50 0 -65 47q-53 -54 -148 -54q-70 0 -117 40t-47 116q0 81 54.5 121.5t150.5 40.5q57 0 96 -7v19q0 32 -18.5 45.5t-62.5 13.5q-65 0 -111 -27h-71v142q98 41 232 41q131 0 192 -47t61 -152v-339h-146zM269 114q23 0 46 16v83q-26 4 -41 4q-53 0 -53 -54
q0 -49 48 -49z" />
    <glyph glyph-name="b" unicode="b" horiz-adv-x="629" 
d="M263 590v-119q62 67 155 67q84 0 139 -60.5t55 -198.5q0 -143 -60.5 -216t-160.5 -73q-102 0 -154 67q-28 -57 -68 -57h-129v700h147q48 0 62 -20.5t14 -89.5zM310 377q-18 0 -47 -9v-227q19 -11 46 -11q37 0 57.5 28t20.5 102q0 67 -20 92t-57 25z" />
    <glyph glyph-name="c" unicode="c" horiz-adv-x="521" 
d="M307 -9q-139 0 -215.5 68.5t-76.5 202.5q0 130 82 203t224 73q104 0 176 -38v-141h-76q-34 26 -82 26q-98 0 -98 -125q0 -123 95 -123q50 0 89 31h73v-130q-75 -47 -191 -47z" />
    <glyph glyph-name="d" unicode="d" horiz-adv-x="629" 
d="M429 0q-39 0 -52 50q-54 -60 -149 -60q-97 0 -154 66.5t-57 203.5q0 143 64 210.5t149 67.5q87 0 137 -57v219h146q48 0 62 -20.5t14 -89.5v-590h-160zM315 130q29 0 52 16v221q-20 10 -46 10q-37 0 -58 -25t-21 -91q0 -131 73 -131z" />
    <glyph glyph-name="e" unicode="e" horiz-adv-x="578" 
d="M561 216h-323q7 -48 31 -66t73 -18q75 0 128 32h71v-121q-97 -52 -234 -52q-145 0 -218.5 71t-73.5 199q0 127 77 202t208 75q263 0 263 -273q0 -15 -1 -31.5t-1 -17.5zM300 404q-26 0 -42 -18.5t-21 -67.5h122q-2 48 -16 67t-43 19z" />
    <glyph glyph-name="f" unicode="f" horiz-adv-x="376" 
d="M10 392v136h51v23q0 87 49 125t147 38q61 0 108 -15v-117h-28q-31 0 -42.5 -8t-11.5 -32v-14h78v-136h-78v-392h-222v392h-51z" />
    <glyph glyph-name="g" unicode="g" horiz-adv-x="629" 
d="M589 528v-473q0 -111 -84 -168t-234 -57q-140 0 -226 36v143h70q54 -28 127 -28q125 0 125 74v20q-48 -40 -137 -40q-213 0 -213 244q0 72 19.5 124.5t52 80.5t69.5 41t79 13q89 0 145 -70q21 60 79 60h128zM317 164q27 0 50 13v190q-21 10 -47 10q-38 0 -58 -20.5
t-20 -82.5q0 -68 17.5 -89t57.5 -21z" />
    <glyph glyph-name="h" unicode="h" horiz-adv-x="629" 
d="M263 590v-131q83 79 183 79q145 0 145 -153v-385h-222v326q0 27 -13.5 36.5t-45.5 9.5q-21 0 -47 -6v-366h-223v700h147q48 0 62 -20.5t14 -89.5z" />
    <glyph glyph-name="i" unicode="i" horiz-adv-x="304" 
d="M263 0h-222v528h147q47 0 61 -19.5t14 -85.5v-423zM152 550q-49 0 -79.5 25.5t-30.5 67.5t30.5 68t79.5 26t79.5 -26t30.5 -68t-30.5 -67.5t-79.5 -25.5z" />
    <glyph glyph-name="j" unicode="j" horiz-adv-x="304" 
d="M-37 -156v116h24q32 0 43 10t11 37v521h149q45 0 59 -21t14 -84v-426q0 -90 -48 -128.5t-146 -38.5q-54 0 -106 14zM152 550q-49 0 -79.5 25.5t-30.5 67.5t30.5 68t79.5 26t79.5 -26t30.5 -68t-30.5 -67.5t-79.5 -25.5z" />
    <glyph glyph-name="k" unicode="k" horiz-adv-x="616" 
d="M263 590v-242l135 180h188v-48l-131 -165l151 -269v-46h-216l-100 179l-27 -36v-143h-223v700h147q48 0 62 -20.5t14 -89.5z" />
    <glyph glyph-name="l" unicode="l" horiz-adv-x="307" 
d="M265 0h-223v700h147q48 0 62 -20.5t14 -89.5v-590z" />
    <glyph glyph-name="m" unicode="m" horiz-adv-x="934" 
d="M263 0h-223v528h158q27 0 40.5 -15t19.5 -61q76 86 178 86q108 0 135 -84q77 84 182 84q143 0 143 -153v-385h-222v326q0 27 -12.5 36.5t-44.5 9.5q-19 0 -37 -5v-367h-223v326q0 27 -12.5 36.5t-44.5 9.5q-15 0 -37 -4v-368z" />
    <glyph glyph-name="n" unicode="n" horiz-adv-x="629" 
d="M263 0h-223v528h158q27 0 40.5 -14.5t19.5 -59.5q84 84 188 84q145 0 145 -153v-385h-222v326q0 27 -13.5 36.5t-45.5 9.5q-21 0 -47 -6v-366z" />
    <glyph glyph-name="o" unicode="o" horiz-adv-x="620" 
d="M310 -9q-131 0 -213 73t-82 197q0 125 82.5 201t212.5 76t212.5 -76t82.5 -201q0 -124 -82 -197t-213 -73zM310 127q70 0 70 133q0 132 -70 132q-71 0 -71 -132q0 -133 71 -133z" />
    <glyph glyph-name="p" unicode="p" horiz-adv-x="629" 
d="M389 4q-80 0 -126 35v-201h-223v690h158q25 0 38.5 -12.5t19.5 -50.5q65 73 162 73q39 0 72 -13t61.5 -41t44.5 -80t16 -123q0 -143 -63 -210t-160 -67zM263 150q19 -11 46 -11q37 0 57.5 26t20.5 97q0 65 -20 90t-56 25q-19 0 -48 -9v-218z" />
    <glyph glyph-name="q" unicode="q" horiz-adv-x="629" 
d="M367 -162v206q-49 -40 -137 -40q-95 0 -154 64.5t-59 199.5q0 75 19.5 130t52 84t69.5 42.5t79 13.5q89 0 146 -72q24 62 78 62h128v-690h-222zM317 139q28 0 50 14v214q-21 10 -47 10q-78 0 -78 -113q0 -71 18 -98t57 -27z" />
    <glyph glyph-name="r" unicode="r" horiz-adv-x="442" 
d="M411 348q-89 0 -148 -17v-331h-223v528h158q27 0 40.5 -16t19.5 -65q57 85 142 85q20 0 32 -4v-180h-21z" />
    <glyph glyph-name="s" unicode="s" horiz-adv-x="489" 
d="M220 -8q-115 0 -199 40v132h78q14 -14 45.5 -24t67.5 -10q65 0 65 25q0 15 -15 20.5t-74 14.5q-89 12 -131.5 48t-42.5 120q0 90 65.5 134.5t173.5 44.5q111 0 195 -32v-130h-74q-43 28 -110 28q-58 0 -58 -25q0 -13 16.5 -19t65.5 -12q98 -11 143 -46t45 -120
q0 -92 -64 -140.5t-192 -48.5z" />
    <glyph glyph-name="t" unicode="t" horiz-adv-x="390" 
d="M10 392v136h51v128h222v-128h87v-136h-87v-205q0 -33 13 -45.5t48 -12.5h28v-124q-52 -16 -116 -16q-95 0 -145 36t-50 123v244h-51z" />
    <glyph glyph-name="u" unicode="u" horiz-adv-x="632" 
d="M368 528h222v-528h-157q-28 0 -41 14t-19 58q-87 -81 -179 -81q-155 0 -155 162v375h222v-329q0 -28 14.5 -38t47.5 -10q22 0 45 7v370z" />
    <glyph glyph-name="v" unicode="v" horiz-adv-x="599" 
d="M190 0l-179 484v44h215l87 -287h3l82 287h190v-44l-177 -484h-221z" />
    <glyph glyph-name="w" unicode="w" horiz-adv-x="850" 
d="M154 0l-141 482v46h215l62 -267h3l71 267h156l69 -267h3l64 267h181v-46l-143 -482h-200l-68 245h-3l-72 -245h-197z" />
    <glyph glyph-name="x" unicode="x" horiz-adv-x="609" 
d="M17 0v46l134 225l-125 211v46h223l74 -140l73 140h181v-46l-115 -200l130 -236v-46h-222l-80 158l-81 -158h-192z" />
    <glyph glyph-name="y" unicode="y" horiz-adv-x="597" 
d="M126 -162v44l67 142l-182 460v44h214l87 -266h3l82 266h189v-44l-249 -646h-211z" />
    <glyph glyph-name="z" unicode="z" horiz-adv-x="529" 
d="M21 0v147l220 231h-211v150h475v-151l-220 -230h219v-147h-483z" />
    <glyph glyph-name="braceleft" unicode="{" horiz-adv-x="389" 
d="M96 99v127q0 23 -14 39t-42 16h-21v140h21q28 0 42 16t14 39v119q0 68 43 107t125 39h102v-140h-46q-12 0 -20 -8.5t-8 -19.5v-109q0 -43 -22 -70.5t-75 -40.5v-3q53 -13 75 -40.5t22 -70.5v-120q0 -11 8 -19.5t20 -8.5h46v-140h-105q-79 0 -122 39.5t-43 108.5z" />
    <glyph glyph-name="bar" unicode="|" horiz-adv-x="229" 
d="M194 741v-790h-159v790h159z" />
    <glyph glyph-name="braceright" unicode="}" horiz-adv-x="389" 
d="M293 226v-127q0 -69 -43 -108.5t-122 -39.5h-105v140h46q11 0 19 8.5t8 19.5v120q0 43 22 70.5t75 40.5v3q-53 13 -75 40.5t-22 70.5v109q0 11 -8 19.5t-19 8.5h-46v140h102q82 0 125 -39t43 -107v-119q0 -23 14 -39t42 -16h21v-140h-21q-28 0 -42 -16t-14 -39z" />
    <glyph glyph-name="asciitilde" unicode="~" horiz-adv-x="423" 
d="M15 195v64q9 58 43.5 93.5t84.5 35.5q29 0 69 -11t50 -11q23 0 34 25h113v-63q-10 -58 -44 -94t-85 -36q-27 0 -68 11.5t-51 11.5q-24 0 -34 -26h-112z" />
    <glyph glyph-name="exclamdown" unicode="&#xa1;" horiz-adv-x="324" 
d="M235 402l45 -336v-130h-236v130l46 336h145zM162 644q46 0 77.5 -30t31.5 -74t-31.5 -74t-77.5 -30q-45 0 -77 30t-32 74q0 43 32 73.5t77 30.5z" />
    <glyph glyph-name="cent" unicode="&#xa2;" horiz-adv-x="527" 
d="M501 38q-51 -32 -133 -43v-97h-138v99q-104 18 -160 84.5t-56 180.5q0 108 58 177.5t163 90.5v73h138v-68q77 -9 127 -35v-141h-76q-32 26 -83 26q-101 0 -101 -125q0 -124 98 -124q50 0 90 32h73v-130z" />
    <glyph glyph-name="sterling" unicode="&#xa3;" horiz-adv-x="568" 
d="M18 0v142q76 29 76 112q0 14 -1 21h-70v136h42q-13 50 -13 86q0 103 72 158.5t200 55.5q131 0 218 -55v-157h-93q-38 36 -90 36q-78 0 -78 -69q0 -37 2 -55h154v-136h-143v-8q0 -59 -38 -95h290v-172h-528z" />
    <glyph glyph-name="yen" unicode="&#xa5;" horiz-adv-x="639" 
d="M46 284v103h108l-139 263v50h221l98 -219h3l95 219h193v-50l-138 -263h113v-103h-161v-38h161v-103h-161v-143h-233v143h-160v103h160v38h-160z" />
    <glyph glyph-name="brokenbar" unicode="&#xa6;" horiz-adv-x="229" 
d="M35 -49v357h159v-357h-159zM35 386v355h159v-355h-159z" />
    <glyph glyph-name="section" unicode="&#xa7;" horiz-adv-x="586" 
d="M18 271q0 95 90 136q-39 40 -39 116q0 87 63.5 137.5t171.5 50.5q105 0 194 -33v-131h-74q-48 32 -112 32q-62 0 -62 -29q0 -14 17.5 -23.5t62.5 -20.5q63 -16 100.5 -29.5t72 -35.5t49.5 -53.5t15 -76.5q0 -99 -93 -141q44 -41 44 -109q0 -91 -62 -143.5t-187 -52.5
q-119 0 -203 41v130h74q14 -14 50.5 -24.5t71.5 -10.5q65 0 65 32q0 14 -16.5 22t-72.5 22q-120 32 -170 73t-50 121zM277 258q71 -21 93 -29q20 11 20 33q0 24 -20 37.5t-74 27.5q-56 13 -90 25q-19 -10 -19 -31q0 -23 17 -35.5t73 -27.5z" />
    <glyph glyph-name="dieresis" unicode="&#xa8;" 
d="M89 552q-43 0 -69.5 24t-26.5 64t26.5 63.5t69.5 23.5t69.5 -23.5t26.5 -63.5t-26.5 -64t-69.5 -24zM309 552q-43 0 -69.5 24t-26.5 64t26.5 63.5t69.5 23.5t69.5 -23.5t26.5 -63.5t-26.5 -64t-69.5 -24z" />
    <glyph glyph-name="copyright" unicode="&#xa9;" horiz-adv-x="785" 
d="M392 -8q-151 0 -258 96t-107 262t107 262t258 96q98 0 180 -40.5t134 -123.5t52 -194t-52 -194t-134 -123.5t-180 -40.5zM392 55q124 0 208 79.5t84 215.5t-84 215.5t-208 79.5t-207.5 -79.5t-83.5 -215.5t83.5 -215.5t207.5 -79.5zM405 148q-103 0 -159.5 51t-56.5 150
q0 96 60.5 150t165.5 54q80 0 132 -28v-107h-61q-22 18 -57 18q-68 0 -68 -89q0 -87 66 -87q33 0 62 23h59v-99q-55 -36 -143 -36z" />
    <glyph glyph-name="ordfeminine" unicode="&#xaa;" horiz-adv-x="493" 
d="M333 258q-41 0 -54 40q-43 -46 -123 -46q-58 0 -97.5 33.5t-39.5 96.5q0 68 45.5 102t125.5 34q52 0 79 -5v16q0 25 -15 35t-52 10q-51 0 -89 -20h-63v116q87 38 197 38q111 0 161.5 -39.5t50.5 -129.5v-281h-126zM234 356q19 0 35 11v68q-30 3 -31 3q-43 0 -43 -44
q0 -38 39 -38z" />
    <glyph glyph-name="guillemotleft" unicode="&#xab;" horiz-adv-x="557" 
d="M131 40l-104 185v70l104 185h160v-42l-98 -176v-3l98 -177v-42h-160zM369 40l-104 185v70l104 185h160v-42l-98 -176v-3l98 -177v-42h-160z" />
    <glyph glyph-name="registered" unicode="&#xae;" horiz-adv-x="384" 
d="M192 350q-76 0 -131 49t-55 130q0 82 54.5 130.5t131.5 48.5q76 0 131 -48.5t55 -130.5q0 -81 -55 -130t-131 -49zM192 392q60 0 98 35.5t38 101.5q0 65 -38.5 101t-97.5 36t-97.5 -36t-38.5 -101q0 -66 38 -101.5t98 -35.5zM218 442l-26 56h-10v-56h-68v180h84
q79 0 79 -63q0 -29 -24 -45l27 -54v-18h-62zM191 540q19 0 19 19q0 20 -19 20h-11v-39h11z" />
    <glyph glyph-name="macron" unicode="&#xaf;" 
d="M341 694v-122h-284v122h284z" />
    <glyph glyph-name="degree" unicode="&#xb0;" horiz-adv-x="356" 
d="M178 408q-65 0 -111 42t-46 108q0 65 46 106.5t111 41.5t111 -41.5t46 -106.5q0 -66 -46 -108t-111 -42zM178 496q25 0 41 17.5t16 44.5t-15.5 43.5t-41.5 16.5q-25 0 -40.5 -16.5t-15.5 -43.5t15.5 -44.5t40.5 -17.5z" />
    <glyph glyph-name="two.superior" unicode="&#xb2;" horiz-adv-x="365" 
d="M333 415v-115h-314v114l112 92q42 36 42 56q0 24 -31 24q-32 0 -51 -17h-67v105q63 33 147 33q171 0 171 -123q0 -42 -21.5 -70.5t-68.5 -63.5l-47 -35h128z" />
    <glyph glyph-name="three.superior" unicode="&#xb3;" horiz-adv-x="361" 
d="M156 292q-77 0 -139 28v96h59q27 -16 60 -16q46 0 46 28t-42 28h-43v87h39q45 0 45 28q0 26 -40 26q-29 0 -55 -15h-60v94q58 31 147 31q73 0 116 -27t43 -80q0 -41 -19.5 -62.5t-61.5 -29.5v-4q90 -10 90 -93q0 -57 -47.5 -88t-137.5 -31z" />
    <glyph glyph-name="acute" unicode="&#xb4;" 
d="M259 559h-133v35l33 113h205v-44z" />
    <glyph glyph-name="paragraph" unicode="&#xb6;" horiz-adv-x="590" 
d="M231 -91v388h-2q-98 0 -154.5 49t-56.5 152q0 202 254 202h269v-791h-128v662h-55v-662h-127z" />
    <glyph glyph-name="periodcentered" unicode="&#xb7;" horiz-adv-x="251" 
d="M125 189q-46 0 -77.5 30t-31.5 74t31.5 74t77.5 30q45 0 77 -30t32 -74q0 -43 -32 -73.5t-77 -30.5z" />
    <glyph glyph-name="cedilla" unicode="&#xb8;" 
d="M150 0h86v-25q81 -5 81 -71q0 -79 -121 -79q-49 0 -88 16v65h34q11 -9 28 -9q24 0 24 14q0 12 -26 12h-18v77z" />
    <glyph glyph-name="one.superior" unicode="&#xb9;" horiz-adv-x="292" 
d="M250 300h-166v256l-45 -23h-26v115l113 52h124v-400z" />
    <glyph glyph-name="ordmasculine" unicode="&#xba;" horiz-adv-x="537" 
d="M269 251q-111 0 -179.5 61t-68.5 165q0 105 69 168t179 63t178.5 -63t68.5 -168q0 -104 -68 -165t-179 -61zM269 367q56 0 56 109q0 107 -56 107q-57 0 -57 -107q0 -109 57 -109z" />
    <glyph glyph-name="guillemotright" unicode="&#xbb;" horiz-adv-x="557" 
d="M265 40v42l98 177v3l-98 176v42h161l103 -185v-70l-103 -185h-161zM27 40v42l98 177v3l-98 176v42h160l104 -185v-70l-104 -185h-160z" />
    <glyph glyph-name="onequarter" unicode="&#xbc;" horiz-adv-x="836" 
d="M781 1h-163v77h-167v107l174 216h156v-228h38v-95h-38v-77zM556 173v-2h71v89h-2zM256 300h-166v256l-46 -23h-25v115l112 52h125v-400zM714 729l-493 -763h-130l493 763h130z" />
    <glyph glyph-name="onehalf" unicode="&#xbd;" horiz-adv-x="868" 
d="M838 116v-115h-314v114l112 92q42 36 42 55q0 25 -31 25q-33 0 -51 -18h-67v106q63 33 147 33q171 0 171 -123q0 -42 -21.5 -71t-68.5 -63l-47 -35h128zM256 300h-166v256l-46 -23h-25v115l112 52h125v-400zM711 729l-493 -763h-130l493 763h130z" />
    <glyph glyph-name="threequarters" unicode="&#xbe;" horiz-adv-x="864" 
d="M160 292q-77 0 -139 28v96h59q27 -16 60 -16q46 0 46 28t-42 28h-43v87h39q45 0 45 28q0 26 -40 26q-29 0 -55 -15h-60v94q58 31 147 31q73 0 116 -27t43 -80q0 -41 -19.5 -62.5t-61.5 -29.5v-4q90 -10 90 -93q0 -57 -47.5 -88t-137.5 -31zM810 1h-163v77h-167v107
l174 216h156v-228h38v-95h-38v-77zM585 173v-2h71v89h-2zM756 729l-493 -763h-130l493 763h130z" />
    <glyph glyph-name="questiondown" unicode="&#xbf;" horiz-adv-x="486" 
d="M377 402q13 -61 -1 -99.5t-56 -76.5q-5 -5 -18.5 -16.5t-18.5 -16t-14 -14t-13 -15.5t-7 -14.5t-3 -16.5q0 -43 57 -43q46 0 86 32h84v-144q-93 -53 -209 -53q-121 0 -183 51t-62 143q0 61 31 101t90 77q43 30 60 51t14 54h163zM292 644q46 0 78 -30.5t32 -73.5
q0 -44 -32 -74t-78 -30q-45 0 -77 30t-32 74q0 43 32 73.5t77 30.5z" />
    <glyph glyph-name="Agrave" unicode="&#xc0;" horiz-adv-x="728" 
d="M16 0v49l213 651h267l217 -651v-49h-230l-37 134h-207l-37 -134h-186zM433 725h-133l-105 101v43h204l34 -109v-35zM341 501l-59 -210h120l-58 210h-3z" />
    <glyph glyph-name="Aacute" unicode="&#xc1;" horiz-adv-x="728" 
d="M16 0v49l213 651h267l217 -651v-49h-230l-37 134h-207l-37 -134h-186zM287 725v35l33 109h205v-43l-105 -101h-133zM341 501l-59 -210h120l-58 210h-3z" />
    <glyph glyph-name="Acircumflex" unicode="&#xc2;" horiz-adv-x="728" 
d="M19 0v49l213 651h267l217 -651v-49h-230l-37 134h-207l-37 -134h-186zM199 725v39l92 106h147l91 -106v-39h-119l-49 34l-48 -34h-114zM344 501l-59 -210h120l-58 210h-3z" />
    <glyph glyph-name="Atilde" unicode="&#xc3;" horiz-adv-x="728" 
d="M16 0v49l213 651h267l217 -651v-49h-230l-37 134h-207l-37 -134h-186zM179 724v43q9 54 39 84t77 30q27 0 65.5 -11t46.5 -11q22 0 28 22h102v-44q-8 -53 -37.5 -83t-74.5 -30q-30 0 -68.5 11t-46.5 11q-22 0 -28 -22h-103zM341 501l-59 -210h120l-58 210h-3z" />
    <glyph glyph-name="Adieresis" unicode="&#xc4;" horiz-adv-x="728" 
d="M16 0v49l213 651h267l217 -651v-49h-230l-37 134h-207l-37 -134h-186zM250 722q-43 0 -69.5 24t-26.5 64t26.5 63.5t69.5 23.5t69.5 -23.5t26.5 -63.5t-26.5 -64t-69.5 -24zM470 722q-43 0 -69.5 24t-26.5 64t26.5 63.5t69.5 23.5t69.5 -23.5t26.5 -63.5t-26.5 -64
t-69.5 -24zM341 501l-59 -210h120l-58 210h-3z" />
    <glyph glyph-name="Aring" unicode="&#xc5;" horiz-adv-x="728" 
d="M16 0v49l213 651h267l217 -651v-49h-230l-37 134h-207l-37 -134h-186zM359 723q-45 0 -77 28t-32 74q0 47 32 75.5t77 28.5t77 -28.5t32 -75.5q0 -46 -32 -74t-77 -28zM341 501l-59 -210h120l-58 210h-3zM359 793q14 0 22.5 9t8.5 23q0 15 -8.5 24t-22.5 9t-22 -9t-8 -24
q0 -14 8.5 -23t21.5 -9z" />
    <glyph glyph-name="AE" unicode="&#xc6;" horiz-adv-x="982" 
d="M432 0v137h-188l-59 -137h-178v49l298 651h634v-160h-271v-112h186v-150h-186v-122h280v-156h-516zM417 539l-106 -245h121v245h-15z" />
    <glyph glyph-name="Ccedilla" unicode="&#xc7;" horiz-adv-x="646" 
d="M623 60q-88 -65 -216 -70v-15q81 -5 81 -71q0 -79 -121 -79q-49 0 -88 16v65h34q11 -9 28 -9q24 0 24 14q0 12 -26 12h-18v69q-141 16 -219 106.5t-78 244.5q0 175 101 271.5t277 96.5q135 0 218 -56v-152h-96q-48 41 -115 41q-142 0 -142 -191q0 -108 33 -154.5
t99 -46.5q81 0 132 49h92v-141z" />
    <glyph glyph-name="Egrave" unicode="&#xc8;" horiz-adv-x="602" 
d="M387 725h-133l-105 101v43h204l34 -109v-35zM49 0v700h510v-160h-273v-112h187v-150h-187v-122h282v-156h-519z" />
    <glyph glyph-name="Eacute" unicode="&#xc9;" horiz-adv-x="602" 
d="M243 725v35l33 109h205v-43l-105 -101h-133zM49 0v700h510v-160h-273v-112h187v-150h-187v-122h282v-156h-519z" />
    <glyph glyph-name="Ecircumflex" unicode="&#xca;" horiz-adv-x="602" 
d="M49 0v700h510v-160h-273v-112h187v-150h-187v-122h282v-156h-519zM149 725v39l92 106h147l91 -106v-39h-119l-49 34l-48 -34h-114z" />
    <glyph glyph-name="Edieresis" unicode="&#xcb;" horiz-adv-x="602" 
d="M204 722q-43 0 -69.5 24t-26.5 64t26.5 63.5t69.5 23.5t69.5 -23.5t26.5 -63.5t-26.5 -64t-69.5 -24zM424 722q-43 0 -69.5 24t-26.5 64t26.5 63.5t69.5 23.5t69.5 -23.5t26.5 -63.5t-26.5 -64t-69.5 -24zM49 0v700h510v-160h-273v-112h187v-150h-187v-122h282v-156h-519
z" />
    <glyph glyph-name="Igrave" unicode="&#xcc;" horiz-adv-x="343" 
d="M290 0h-238v700h238v-700zM245 725h-133l-105 101v43h204l34 -109v-35z" />
    <glyph glyph-name="Iacute" unicode="&#xcd;" horiz-adv-x="343" 
d="M290 0h-238v700h238v-700zM100 725v35l33 109h205v-43l-105 -101h-133z" />
    <glyph glyph-name="Icircumflex" unicode="&#xce;" horiz-adv-x="343" 
d="M290 0h-238v700h238v-700zM7 725v39l92 106h147l91 -106v-39h-119l-49 34l-48 -34h-114z" />
    <glyph glyph-name="Idieresis" unicode="&#xcf;" horiz-adv-x="343" 
d="M290 0h-238v700h238v-700zM62 722q-43 0 -69.5 24t-26.5 64t26.5 63.5t69.5 23.5t69.5 -23.5t26.5 -63.5t-26.5 -64t-69.5 -24zM282 722q-43 0 -69.5 24t-26.5 64t26.5 63.5t69.5 23.5t69.5 -23.5t26.5 -63.5t-26.5 -64t-69.5 -24z" />
    <glyph glyph-name="Eth" unicode="&#xd0;" horiz-adv-x="731" 
d="M2 278v145h49v277h282q375 0 375 -345q0 -355 -382 -355h-275v278h-49zM289 154h30q77 0 113 43.5t36 148.5q0 106 -35 150.5t-114 44.5h-30v-118h95v-145h-95v-124z" />
    <glyph glyph-name="Ntilde" unicode="&#xd1;" horiz-adv-x="728" 
d="M201 724v43q9 54 39 84t77 30q27 0 65.5 -11t46.5 -11q22 0 28 22h102v-44q-8 -53 -37.5 -83t-74.5 -30q-30 0 -68.5 11t-46.5 11q-22 0 -28 -22h-103zM49 0v700h241l193 -350h3v350h192v-700h-216l-218 393h-3v-393h-192z" />
    <glyph glyph-name="Ograve" unicode="&#xd2;" horiz-adv-x="761" 
d="M453 725h-133l-105 101v43h204l34 -109v-35zM380 -11q-158 0 -257.5 95t-99.5 264t101.5 266t255.5 97q155 0 256.5 -97t101.5 -266t-100 -264t-258 -95zM380 150q117 0 117 197t-117 197t-117 -197t117 -197z" />
    <glyph glyph-name="Oacute" unicode="&#xd3;" horiz-adv-x="761" 
d="M309 725v35l33 109h205v-43l-105 -101h-133zM380 -11q-158 0 -257.5 95t-99.5 264t101.5 266t255.5 97q155 0 256.5 -97t101.5 -266t-100 -264t-258 -95zM380 150q117 0 117 197t-117 197t-117 -197t117 -197z" />
    <glyph glyph-name="Ocircumflex" unicode="&#xd4;" horiz-adv-x="761" 
d="M380 -11q-158 0 -257.5 95t-99.5 264t101.5 266t255.5 97q155 0 256.5 -97t101.5 -266t-100 -264t-258 -95zM380 150q117 0 117 197t-117 197t-117 -197t117 -197zM215 725v39l92 106h147l91 -106v-39h-119l-49 34l-48 -34h-114z" />
    <glyph glyph-name="Otilde" unicode="&#xd5;" horiz-adv-x="761" 
d="M200 724v43q9 54 39 84t77 30q27 0 65.5 -11t46.5 -11q22 0 28 22h102v-44q-8 -53 -37.5 -83t-74.5 -30q-30 0 -68.5 11t-46.5 11q-22 0 -28 -22h-103zM380 -11q-158 0 -257.5 95t-99.5 264t101.5 266t255.5 97q155 0 256.5 -97t101.5 -266t-100 -264t-258 -95zM380 150
q117 0 117 197t-117 197t-117 -197t117 -197z" />
    <glyph glyph-name="Odieresis" unicode="&#xd6;" horiz-adv-x="761" 
d="M270 722q-43 0 -69.5 24t-26.5 64t26.5 63.5t69.5 23.5t69.5 -23.5t26.5 -63.5t-26.5 -64t-69.5 -24zM490 722q-43 0 -69.5 24t-26.5 64t26.5 63.5t69.5 23.5t69.5 -23.5t26.5 -63.5t-26.5 -64t-69.5 -24zM380 -11q-158 0 -257.5 95t-99.5 264t101.5 266t255.5 97
q155 0 256.5 -97t101.5 -266t-100 -264t-258 -95zM380 150q117 0 117 197t-117 197t-117 -197t117 -197z" />
    <glyph glyph-name="multiply" unicode="&#xd7;" horiz-adv-x="544" 
d="M404 98l-132 130l-131 -130l-116 115l131 128l-131 128l116 116l131 -129l131 129l116 -116l-130 -127l130 -128z" />
    <glyph glyph-name="Oslash" unicode="&#xd8;" horiz-adv-x="761" 
d="M380 -11q-109 0 -193 46l-50 -61h-95v29l72 89q-91 96 -91 256q0 169 101.5 266t255.5 97q111 0 198 -52l48 59h96v-29l-73 -89q89 -99 89 -252q0 -169 -100 -264t-258 -95zM258 347q0 -47 5 -73l197 240q-31 35 -80 35q-122 0 -122 -202zM380 145q57 0 90 49.5t33 152.5
q0 35 -5 68l-195 -239q30 -31 77 -31z" />
    <glyph glyph-name="Ugrave" unicode="&#xd9;" horiz-adv-x="713" 
d="M447 725h-133l-105 101v43h204l34 -109v-35zM378 161q48 0 69.5 24t21.5 78v437h197v-444q0 -129 -77.5 -196.5t-225.5 -67.5q-156 0 -236 67.5t-80 196.5v444h238v-437q0 -54 22 -78t71 -24z" />
    <glyph glyph-name="Uacute" unicode="&#xda;" horiz-adv-x="713" 
d="M303 725v35l33 109h205v-43l-105 -101h-133zM378 161q48 0 69.5 24t21.5 78v437h197v-444q0 -129 -77.5 -196.5t-225.5 -67.5q-156 0 -236 67.5t-80 196.5v444h238v-437q0 -54 22 -78t71 -24z" />
    <glyph glyph-name="Ucircumflex" unicode="&#xdb;" horiz-adv-x="713" 
d="M378 161q48 0 69.5 24t21.5 78v437h197v-444q0 -129 -77.5 -196.5t-225.5 -67.5q-156 0 -236 67.5t-80 196.5v444h238v-437q0 -54 22 -78t71 -24zM209 725v39l92 106h147l91 -106v-39h-119l-49 34l-48 -34h-114z" />
    <glyph glyph-name="Udieresis" unicode="&#xdc;" horiz-adv-x="713" 
d="M264 722q-43 0 -69.5 24t-26.5 64t26.5 63.5t69.5 23.5t69.5 -23.5t26.5 -63.5t-26.5 -64t-69.5 -24zM484 722q-43 0 -69.5 24t-26.5 64t26.5 63.5t69.5 23.5t69.5 -23.5t26.5 -63.5t-26.5 -64t-69.5 -24zM378 161q48 0 69.5 24t21.5 78v437h197v-444
q0 -129 -77.5 -196.5t-225.5 -67.5q-156 0 -236 67.5t-80 196.5v444h238v-437q0 -54 22 -78t71 -24z" />
    <glyph glyph-name="Yacute" unicode="&#xdd;" horiz-adv-x="672" 
d="M276 725v35l33 109h205v-43l-105 -101h-133zM460 0h-238v247l-211 403v50h223l118 -242h2l113 242h194v-50l-201 -397v-253z" />
    <glyph glyph-name="Thorn" unicode="&#xde;" horiz-adv-x="651" 
d="M49 0v700h238v-114h52q153 0 224 -56.5t71 -174.5q0 -115 -76 -171t-230 -56h-41v-128h-238zM284 435v-168h40q79 0 79 87q0 42 -17.5 61.5t-61.5 19.5h-40z" />
    <glyph glyph-name="germandbls" unicode="&#xdf;" horiz-adv-x="698" 
d="M40 0v486q0 225 309 225q136 0 206 -39.5t70 -115.5q0 -63 -76 -118q-49 -35 -49 -55q0 -11 10.5 -18.5t41.5 -20.5q70 -30 101.5 -67t31.5 -108q0 -83 -57.5 -130t-171.5 -47q-100 0 -153 33v128h73q29 -25 66 -25q44 0 44 24q0 11 -11 17.5t-42 18.5l-4.5 1.5l-4.5 1.5
t-5 2q-59 21 -86.5 53.5t-27.5 86.5q0 34 13 60t42 60q3 3 9.5 11t9 10.5t7 8.5t6 9t4.5 7.5t4 8t2 7.5t1 8q0 18 -16 30t-44 12q-80 0 -80 -81v-484h-223z" />
    <glyph glyph-name="agrave" unicode="&#xe0;" horiz-adv-x="574" 
d="M391 0q-50 0 -65 47q-53 -54 -148 -54q-70 0 -117 40t-47 116q0 81 54.5 121.5t150.5 40.5q57 0 96 -7v19q0 32 -18.5 45.5t-62.5 13.5q-65 0 -111 -27h-71v142q98 41 232 41q131 0 192 -47t61 -152v-339h-146zM352 559h-133l-105 104v44h204l34 -113v-35zM269 114
q23 0 46 16v83q-26 4 -41 4q-53 0 -53 -54q0 -49 48 -49z" />
    <glyph glyph-name="aacute" unicode="&#xe1;" horiz-adv-x="574" 
d="M391 0q-50 0 -65 47q-53 -54 -148 -54q-70 0 -117 40t-47 116q0 81 54.5 121.5t150.5 40.5q57 0 96 -7v19q0 32 -18.5 45.5t-62.5 13.5q-65 0 -111 -27h-71v142q98 41 232 41q131 0 192 -47t61 -152v-339h-146zM348 559h-133v35l33 113h205v-44zM269 114q23 0 46 16v83
q-26 4 -41 4q-53 0 -53 -54q0 -49 48 -49z" />
    <glyph glyph-name="acircumflex" unicode="&#xe2;" horiz-adv-x="574" 
d="M391 0q-50 0 -65 47q-53 -54 -148 -54q-70 0 -117 40t-47 116q0 81 54.5 121.5t150.5 40.5q57 0 96 -7v19q0 32 -18.5 45.5t-62.5 13.5q-65 0 -111 -27h-71v142q98 41 232 41q131 0 192 -47t61 -152v-339h-146zM117 559v40l92 108h147l91 -108v-40h-119l-49 36l-48 -36
h-114zM269 114q23 0 46 16v83q-26 4 -41 4q-53 0 -53 -54q0 -49 48 -49z" />
    <glyph glyph-name="atilde" unicode="&#xe3;" horiz-adv-x="574" 
d="M391 0q-50 0 -65 47q-53 -54 -148 -54q-70 0 -117 40t-47 116q0 81 54.5 121.5t150.5 40.5q57 0 96 -7v19q0 32 -18.5 45.5t-62.5 13.5q-65 0 -111 -27h-71v142q98 41 232 41q131 0 192 -47t61 -152v-339h-146zM102 559v44q9 53 39.5 84t76.5 31q27 0 65.5 -10.5
t46.5 -10.5q22 0 28 21h102v-43q-8 -54 -37.5 -85t-74.5 -31q-30 0 -68.5 11t-46.5 11q-22 0 -28 -22h-103zM269 114q23 0 46 16v83q-26 4 -41 4q-53 0 -53 -54q0 -49 48 -49z" />
    <glyph glyph-name="adieresis" unicode="&#xe4;" horiz-adv-x="574" 
d="M391 0q-50 0 -65 47q-53 -54 -148 -54q-70 0 -117 40t-47 116q0 81 54.5 121.5t150.5 40.5q57 0 96 -7v19q0 32 -18.5 45.5t-62.5 13.5q-65 0 -111 -27h-71v142q98 41 232 41q131 0 192 -47t61 -152v-339h-146zM172 552q-43 0 -69.5 24t-26.5 64t26.5 63.5t69.5 23.5
t69.5 -23.5t26.5 -63.5t-26.5 -64t-69.5 -24zM392 552q-43 0 -69.5 24t-26.5 64t26.5 63.5t69.5 23.5t69.5 -23.5t26.5 -63.5t-26.5 -64t-69.5 -24zM269 114q23 0 46 16v83q-26 4 -41 4q-53 0 -53 -54q0 -49 48 -49z" />
    <glyph glyph-name="aring" unicode="&#xe5;" horiz-adv-x="574" 
d="M391 0q-50 0 -65 47q-53 -54 -148 -54q-70 0 -117 40t-47 116q0 81 54.5 121.5t150.5 40.5q57 0 96 -7v19q0 32 -18.5 45.5t-62.5 13.5q-65 0 -111 -27h-71v142q98 41 232 41q131 0 192 -47t61 -152v-339h-146zM282 558q-45 0 -77 28.5t-32 74.5t32 74.5t77 28.5
t77 -28.5t32 -74.5t-32 -74.5t-77 -28.5zM269 114q23 0 46 16v83q-26 4 -41 4q-53 0 -53 -54q0 -49 48 -49zM282 629q14 0 22.5 9t8.5 23t-8.5 23t-22.5 9q-13 0 -21.5 -9t-8.5 -23t8.5 -23t21.5 -9z" />
    <glyph glyph-name="ae" unicode="&#xe6;" horiz-adv-x="876" 
d="M191 -7q-79 0 -128 39.5t-49 116.5q0 164 215 164h86v12q0 30 -18.5 43.5t-62.5 13.5q-65 0 -111 -27h-71v142q98 41 225 41q111 0 160 -46q72 46 165 46q260 0 260 -273q0 -28 -3 -49h-323q7 -48 31.5 -66t72.5 -18q76 0 129 32h70v-121q-95 -52 -233 -52
q-153 0 -227 79q-34 -39 -77 -58t-111 -19zM268 114q36 0 66 30q-14 33 -18 72h-42q-53 0 -53 -51q0 -26 13 -38.5t34 -12.5zM599 404q-27 0 -42.5 -18.5t-21.5 -70.5h123q-2 50 -16.5 69.5t-42.5 19.5z" />
    <glyph glyph-name="ccedilla" unicode="&#xe7;" horiz-adv-x="521" 
d="M498 38q-72 -44 -181 -47v-16q81 -5 81 -71q0 -79 -121 -79q-49 0 -88 16v65h34q11 -9 28 -9q24 0 24 14q0 12 -26 12h-18v74q-104 17 -160 84t-56 181q0 130 82 203t224 73q104 0 176 -38v-141h-76q-34 26 -82 26q-98 0 -98 -125q0 -123 95 -123q50 0 89 31h73v-130z
" />
    <glyph glyph-name="egrave" unicode="&#xe8;" horiz-adv-x="578" 
d="M561 216h-323q7 -48 31 -66t73 -18q75 0 128 32h71v-121q-97 -52 -234 -52q-145 0 -218.5 71t-73.5 199q0 127 77 202t208 75q263 0 263 -273q0 -15 -1 -31.5t-1 -17.5zM363 559h-133l-105 104v44h204l34 -113v-35zM300 404q-26 0 -42 -18.5t-21 -67.5h122q-2 48 -16 67
t-43 19z" />
    <glyph glyph-name="eacute" unicode="&#xe9;" horiz-adv-x="578" 
d="M561 216h-323q7 -48 31 -66t73 -18q75 0 128 32h71v-121q-97 -52 -234 -52q-145 0 -218.5 71t-73.5 199q0 127 77 202t208 75q263 0 263 -273q0 -15 -1 -31.5t-1 -17.5zM359 559h-133v35l33 113h205v-44zM300 404q-26 0 -42 -18.5t-21 -67.5h122q-2 48 -16 67t-43 19z
" />
    <glyph glyph-name="ecircumflex" unicode="&#xea;" horiz-adv-x="578" 
d="M561 216h-323q7 -48 31 -66t73 -18q75 0 128 32h71v-121q-97 -52 -234 -52q-145 0 -218.5 71t-73.5 199q0 127 77 202t208 75q263 0 263 -273q0 -15 -1 -31.5t-1 -17.5zM128 559v40l92 108h147l91 -108v-40h-119l-49 36l-48 -36h-114zM300 404q-26 0 -42 -18.5t-21 -67.5
h122q-2 48 -16 67t-43 19z" />
    <glyph glyph-name="edieresis" unicode="&#xeb;" horiz-adv-x="578" 
d="M561 216h-323q7 -48 31 -66t73 -18q75 0 128 32h71v-121q-97 -52 -234 -52q-145 0 -218.5 71t-73.5 199q0 127 77 202t208 75q263 0 263 -273q0 -15 -1 -31.5t-1 -17.5zM403 552q-43 0 -69.5 24t-26.5 64t26.5 63.5t69.5 23.5t69.5 -23.5t26.5 -63.5t-26.5 -64t-69.5 -24
zM183 552q-43 0 -69.5 24t-26.5 64t26.5 63.5t69.5 23.5t69.5 -23.5t26.5 -63.5t-26.5 -64t-69.5 -24zM300 404q-26 0 -42 -18.5t-21 -67.5h122q-2 48 -16 67t-43 19z" />
    <glyph glyph-name="igrave" unicode="&#xec;" horiz-adv-x="304" 
d="M263 0h-222v528h147q47 0 61 -19.5t14 -85.5v-423zM225 559h-133l-105 104v44h204l34 -113v-35z" />
    <glyph glyph-name="iacute" unicode="&#xed;" horiz-adv-x="304" 
d="M213 559h-133v35l33 113h205v-44zM263 0h-222v528h147q47 0 61 -19.5t14 -85.5v-423z" />
    <glyph glyph-name="icircumflex" unicode="&#xee;" horiz-adv-x="304" 
d="M-12 559v40l92 108h147l91 -108v-40h-119l-49 36l-48 -36h-114zM263 0h-222v528h147q47 0 61 -19.5t14 -85.5v-423z" />
    <glyph glyph-name="idieresis" unicode="&#xef;" horiz-adv-x="304" 
d="M42 552q-43 0 -69.5 24t-26.5 64t26.5 63.5t69.5 23.5t69.5 -23.5t26.5 -63.5t-26.5 -64t-69.5 -24zM262 552q-43 0 -69.5 24t-26.5 64t26.5 63.5t69.5 23.5t69.5 -23.5t26.5 -63.5t-26.5 -64t-69.5 -24zM263 0h-222v528h147q47 0 61 -19.5t14 -85.5v-423z" />
    <glyph glyph-name="eth" unicode="&#xf0;" horiz-adv-x="620" 
d="M140 514v32l37 28q-37 9 -50 11v115h97q54 -7 94 -19l25 19h114v-32l-38 -28q186 -105 186 -345q0 -152 -80.5 -228t-219.5 -76q-130 0 -210 69t-80 191q0 116 66 181.5t149 65.5q49 0 74.5 -10t48.5 -33q-17 49 -71 80l-29 -21h-113zM312 126q68 0 68 121q0 124 -68 124
q-73 0 -73 -124q0 -121 73 -121z" />
    <glyph glyph-name="ntilde" unicode="&#xf1;" horiz-adv-x="629" 
d="M263 0h-223v528h158q27 0 40.5 -14.5t19.5 -59.5q84 84 188 84q145 0 145 -153v-385h-222v326q0 27 -13.5 36.5t-45.5 9.5q-21 0 -47 -6v-366zM138 559v44q9 53 39.5 84t76.5 31q27 0 65.5 -10.5t46.5 -10.5q22 0 28 21h102v-43q-8 -54 -37.5 -85t-74.5 -31
q-30 0 -68.5 11t-46.5 11q-22 0 -28 -22h-103z" />
    <glyph glyph-name="ograve" unicode="&#xf2;" horiz-adv-x="620" 
d="M310 -9q-131 0 -213 73t-82 197q0 125 82.5 201t212.5 76t212.5 -76t82.5 -201q0 -124 -82 -197t-213 -73zM310 127q70 0 70 133q0 132 -70 132q-71 0 -71 -132q0 -133 71 -133zM380 559h-133l-105 104v44h204l34 -113v-35z" />
    <glyph glyph-name="oacute" unicode="&#xf3;" horiz-adv-x="620" 
d="M376 559h-133v35l33 113h205v-44zM310 -9q-131 0 -213 73t-82 197q0 125 82.5 201t212.5 76t212.5 -76t82.5 -201q0 -124 -82 -197t-213 -73zM310 127q70 0 70 133q0 132 -70 132q-71 0 -71 -132q0 -133 71 -133z" />
    <glyph glyph-name="ocircumflex" unicode="&#xf4;" horiz-adv-x="620" 
d="M145 559v40l92 108h147l91 -108v-40h-119l-49 36l-48 -36h-114zM310 -9q-131 0 -213 73t-82 197q0 125 82.5 201t212.5 76t212.5 -76t82.5 -201q0 -124 -82 -197t-213 -73zM310 127q70 0 70 133q0 132 -70 132q-71 0 -71 -132q0 -133 71 -133z" />
    <glyph glyph-name="otilde" unicode="&#xf5;" horiz-adv-x="620" 
d="M310 -9q-131 0 -213 73t-82 197q0 125 82.5 201t212.5 76t212.5 -76t82.5 -201q0 -124 -82 -197t-213 -73zM310 127q70 0 70 133q0 132 -70 132q-71 0 -71 -132q0 -133 71 -133zM130 559v44q9 53 39.5 84t76.5 31q27 0 65.5 -10.5t46.5 -10.5q22 0 28 21h102v-43
q-8 -54 -37.5 -85t-74.5 -31q-30 0 -68.5 11t-46.5 11q-22 0 -28 -22h-103z" />
    <glyph glyph-name="odieresis" unicode="&#xf6;" horiz-adv-x="620" 
d="M200 552q-43 0 -69.5 24t-26.5 64t26.5 63.5t69.5 23.5t69.5 -23.5t26.5 -63.5t-26.5 -64t-69.5 -24zM420 552q-43 0 -69.5 24t-26.5 64t26.5 63.5t69.5 23.5t69.5 -23.5t26.5 -63.5t-26.5 -64t-69.5 -24zM310 -9q-131 0 -213 73t-82 197q0 125 82.5 201t212.5 76
t212.5 -76t82.5 -201q0 -124 -82 -197t-213 -73zM310 127q70 0 70 133q0 132 -70 132q-71 0 -71 -132q0 -133 71 -133z" />
    <glyph glyph-name="divide" unicode="&#xf7;" horiz-adv-x="543" 
d="M520 261h-497v169h497v-169zM272 237q45 0 76 -29.5t31 -72.5t-31 -72t-76 -29t-76.5 29t-31.5 72t31.5 72.5t76.5 29.5zM272 657q45 0 76 -29.5t31 -72.5t-31 -72t-76 -29t-76.5 29t-31.5 72t31.5 72.5t76.5 29.5z" />
    <glyph glyph-name="oslash" unicode="&#xf8;" horiz-adv-x="620" 
d="M310 -9q-84 0 -151 31l-42 -50h-80v25l58 69q-80 72 -80 195q0 125 82.5 201t212.5 76q86 0 153 -35l39 46h81v-24l-56 -67q78 -76 78 -197q0 -124 -82 -197t-213 -73zM310 120q77 0 77 140q0 6 -0.5 16t-0.5 15l-126 -149q19 -22 50 -22zM232 260q0 -21 1 -30l124 148
q-18 19 -47 19q-78 0 -78 -137z" />
    <glyph glyph-name="ugrave" unicode="&#xf9;" horiz-adv-x="632" 
d="M368 528h222v-528h-157q-28 0 -41 14t-19 58q-87 -81 -179 -81q-155 0 -155 162v375h222v-329q0 -28 14.5 -38t47.5 -10q22 0 45 7v370zM386 559h-133l-105 104v44h204l34 -113v-35z" />
    <glyph glyph-name="uacute" unicode="&#xfa;" horiz-adv-x="632" 
d="M368 528h222v-528h-157q-28 0 -41 14t-19 58q-87 -81 -179 -81q-155 0 -155 162v375h222v-329q0 -28 14.5 -38t47.5 -10q22 0 45 7v370zM382 559h-133v35l33 113h205v-44z" />
    <glyph glyph-name="ucircumflex" unicode="&#xfb;" horiz-adv-x="632" 
d="M368 528h222v-528h-157q-28 0 -41 14t-19 58q-87 -81 -179 -81q-155 0 -155 162v375h222v-329q0 -28 14.5 -38t47.5 -10q22 0 45 7v370zM151 559v40l92 108h147l91 -108v-40h-119l-49 36l-48 -36h-114z" />
    <glyph glyph-name="udieresis" unicode="&#xfc;" horiz-adv-x="632" 
d="M368 528h222v-528h-157q-28 0 -41 14t-19 58q-87 -81 -179 -81q-155 0 -155 162v375h222v-329q0 -28 14.5 -38t47.5 -10q22 0 45 7v370zM206 552q-43 0 -69.5 24t-26.5 64t26.5 63.5t69.5 23.5t69.5 -23.5t26.5 -63.5t-26.5 -64t-69.5 -24zM426 552q-43 0 -69.5 24
t-26.5 64t26.5 63.5t69.5 23.5t69.5 -23.5t26.5 -63.5t-26.5 -64t-69.5 -24z" />
    <glyph glyph-name="yacute" unicode="&#xfd;" horiz-adv-x="597" 
d="M126 -162v44l67 142l-182 460v44h214l87 -266h3l82 266h189v-44l-249 -646h-211zM376 559h-133v35l33 113h205v-44z" />
    <glyph glyph-name="thorn" unicode="&#xfe;" horiz-adv-x="628" 
d="M263 590v-118q61 66 155 66q83 0 138.5 -62t55.5 -197q0 -143 -57.5 -214t-158.5 -71q-82 0 -133 42v-198h-223v862h147q48 0 62 -20.5t14 -89.5zM311 377q-19 0 -48 -9v-223q19 -11 46 -11q37 0 57.5 28t20.5 100q0 65 -20 90t-56 25z" />
    <glyph glyph-name="ydieresis" unicode="&#xff;" horiz-adv-x="597" 
d="M126 -162v44l67 142l-182 460v44h214l87 -266h3l82 266h189v-44l-249 -646h-211zM200 552q-43 0 -69.5 24t-26.5 64t26.5 63.5t69.5 23.5t69.5 -23.5t26.5 -63.5t-26.5 -64t-69.5 -24zM420 552q-43 0 -69.5 24t-26.5 64t26.5 63.5t69.5 23.5t69.5 -23.5t26.5 -63.5
t-26.5 -64t-69.5 -24z" />
    <glyph glyph-name="Amacron" unicode="&#x100;" horiz-adv-x="728" 
d="M16 0v49l213 651h267l217 -651v-49h-230l-37 134h-207l-37 -134h-186zM503 854v-123h-288v123h288zM341 501l-59 -210h120l-58 210h-3z" />
    <glyph glyph-name="amacron" unicode="&#x101;" horiz-adv-x="574" 
d="M391 0q-50 0 -65 47q-53 -54 -148 -54q-70 0 -117 40t-47 116q0 81 54.5 121.5t150.5 40.5q57 0 96 -7v19q0 32 -18.5 45.5t-62.5 13.5q-65 0 -111 -27h-71v142q98 41 232 41q131 0 192 -47t61 -152v-339h-146zM424 694v-122h-284v122h284zM269 114q23 0 46 16v83
q-26 4 -41 4q-53 0 -53 -54q0 -49 48 -49z" />
    <glyph glyph-name="Abreve" unicode="&#x102;" horiz-adv-x="728" 
d="M16 0v49l213 651h267l217 -651v-49h-230l-37 134h-207l-37 -134h-186zM359 724q-66 0 -106 28t-51 78v43h116q6 -30 41 -30t41 30h116v-43q-11 -49 -51.5 -77.5t-105.5 -28.5zM341 501l-59 -210h120l-58 210h-3z" />
    <glyph glyph-name="abreve" unicode="&#x103;" horiz-adv-x="574" 
d="M391 0q-50 0 -65 47q-53 -54 -148 -54q-70 0 -117 40t-47 116q0 81 54.5 121.5t150.5 40.5q57 0 96 -7v19q0 32 -18.5 45.5t-62.5 13.5q-65 0 -111 -27h-71v142q98 41 232 41q131 0 192 -47t61 -152v-339h-146zM282 558q-65 0 -105.5 31t-51.5 84v43h116q5 -33 41 -33
t41 33h116v-43q-11 -53 -51.5 -84t-105.5 -31zM269 114q23 0 46 16v83q-26 4 -41 4q-53 0 -53 -54q0 -49 48 -49z" />
    <glyph glyph-name="Aogonek" unicode="&#x104;" horiz-adv-x="728" 
d="M621 -169q-130 0 -130 79q0 57 79 90h-87l-37 134h-207l-37 -134h-186v49l213 651h267l217 -651v-49h-23q-29 -27 -29 -44q0 -22 34 -22h15v-87q-34 -16 -89 -16zM341 501l-59 -210h120l-58 210h-3z" />
    <glyph glyph-name="aogonek" unicode="&#x105;" horiz-adv-x="574" 
d="M448 -169q-130 0 -130 79q0 57 79 90h-6q-50 0 -65 47q-53 -54 -148 -54q-70 0 -117 40t-47 116q0 81 54.5 121.5t150.5 40.5q57 0 96 -7v19q0 32 -18.5 45.5t-62.5 13.5q-65 0 -111 -27h-71v142q98 41 232 41q131 0 192 -47t61 -152v-339h-20q-29 -27 -29 -44
q0 -22 34 -22h15v-87q-34 -16 -89 -16zM269 114q23 0 46 16v83q-26 4 -41 4q-53 0 -53 -54q0 -49 48 -49z" />
    <glyph glyph-name="Cacute" unicode="&#x106;" horiz-adv-x="654" 
d="M381 -11q-168 0 -262.5 92t-94.5 262q0 175 101 271.5t277 96.5q135 0 218 -56v-152h-96q-48 41 -115 41q-142 0 -142 -191q0 -108 33 -154.5t99 -46.5q81 0 132 49h92v-141q-96 -71 -242 -71zM303 725v35l33 109h205v-43l-105 -101h-133z" />
    <glyph glyph-name="cacute" unicode="&#x107;" horiz-adv-x="521" 
d="M357 559h-133v35l33 113h205v-44zM307 -9q-139 0 -215.5 68.5t-76.5 202.5q0 130 82 203t224 73q104 0 176 -38v-141h-76q-34 26 -82 26q-98 0 -98 -125q0 -123 95 -123q50 0 89 31h73v-130q-75 -47 -191 -47z" />
    <glyph glyph-name="Ccircumflex" unicode="&#x108;" horiz-adv-x="654" 
d="M381 -11q-168 0 -262.5 92t-94.5 262q0 175 101 271.5t277 96.5q135 0 218 -56v-152h-96q-48 41 -115 41q-142 0 -142 -191q0 -108 33 -154.5t99 -46.5q81 0 132 49h92v-141q-96 -71 -242 -71zM210 725v39l92 106h147l91 -106v-39h-119l-49 34l-48 -34h-114z" />
    <glyph glyph-name="ccircumflex" unicode="&#x109;" horiz-adv-x="521" 
d="M126 559v40l92 108h147l91 -108v-40h-119l-49 36l-48 -36h-114zM307 -9q-139 0 -215.5 68.5t-76.5 202.5q0 130 82 203t224 73q104 0 176 -38v-141h-76q-34 26 -82 26q-98 0 -98 -125q0 -123 95 -123q50 0 89 31h73v-130q-75 -47 -191 -47z" />
    <glyph glyph-name="Cdotaccent" unicode="&#x10a;" horiz-adv-x="654" 
d="M374 722q-49 0 -79.5 25.5t-30.5 68.5q0 42 30.5 68t79.5 26t79.5 -26t30.5 -68q0 -43 -30.5 -68.5t-79.5 -25.5zM381 -11q-168 0 -262.5 92t-94.5 262q0 175 101 271.5t277 96.5q135 0 218 -56v-152h-96q-48 41 -115 41q-142 0 -142 -191q0 -108 33 -154.5t99 -46.5
q81 0 132 49h92v-141q-96 -71 -242 -71z" />
    <glyph glyph-name="cdotaccent" unicode="&#x10b;" horiz-adv-x="521" 
d="M307 -9q-139 0 -215.5 68.5t-76.5 202.5q0 130 82 203t224 73q104 0 176 -38v-141h-76q-34 26 -82 26q-98 0 -98 -125q0 -123 95 -123q50 0 89 31h73v-130q-75 -47 -191 -47zM291 550q-49 0 -79.5 25.5t-30.5 67.5t30.5 68t79.5 26t79.5 -26t30.5 -68t-30.5 -67.5
t-79.5 -25.5z" />
    <glyph glyph-name="Ccaron" unicode="&#x10c;" horiz-adv-x="654" 
d="M381 -11q-168 0 -262.5 92t-94.5 262q0 175 101 271.5t277 96.5q135 0 218 -56v-152h-96q-48 41 -115 41q-142 0 -142 -191q0 -108 33 -154.5t99 -46.5q81 0 132 49h92v-141q-96 -71 -242 -71zM540 870v-39l-92 -106h-148l-90 106v39h119l48 -34l48 34h115z" />
    <glyph glyph-name="ccaron" unicode="&#x10d;" horiz-adv-x="521" 
d="M456 707v-40l-92 -108h-148l-90 108v40h119l48 -36l48 36h115zM307 -9q-139 0 -215.5 68.5t-76.5 202.5q0 130 82 203t224 73q104 0 176 -38v-141h-76q-34 26 -82 26q-98 0 -98 -125q0 -123 95 -123q50 0 89 31h73v-130q-75 -47 -191 -47z" />
    <glyph glyph-name="Dcaron" unicode="&#x10e;" horiz-adv-x="729" 
d="M494 870v-39l-92 -106h-148l-90 106v39h119l48 -34l48 34h115zM49 0v700h282q375 0 375 -345q0 -355 -382 -355h-275zM287 154h30q77 0 113 43.5t36 148.5q0 106 -35 150.5t-114 44.5h-30v-387z" />
    <glyph glyph-name="dcaron" unicode="&#x10f;" horiz-adv-x="629" 
d="M589 590v-590h-160q-41 0 -53 50q-54 -60 -148 -60q-97 0 -154 66.5t-57 203.5q0 143 64 210.5t149 67.5q87 0 137 -57v219h146q48 0 62 -20.5t14 -89.5zM315 130q29 0 52 16v221q-20 10 -46 10q-37 0 -58 -25t-21 -91q0 -131 73 -131zM617 560v140h152v-43l-61 -97h-91z
" />
    <glyph glyph-name="Dcroat" unicode="&#x110;" horiz-adv-x="731" 
d="M2 278v145h49v277h282q375 0 375 -345q0 -355 -382 -355h-275v278h-49zM289 154h30q77 0 113 43.5t36 148.5q0 106 -35 150.5t-114 44.5h-30v-118h95v-145h-95v-124z" />
    <glyph glyph-name="dcroat" unicode="&#x111;" horiz-adv-x="629" 
d="M251 557v96h116v47h146q44 0 59.5 -11.5t16.5 -35.5h44v-96h-44v-557h-160q-41 0 -53 50q-54 -60 -148 -60q-97 0 -154 66.5t-57 203.5q0 143 64 210.5t149 67.5q87 0 137 -57v76h-116zM315 130q29 0 52 16v221q-20 10 -46 10q-37 0 -58 -25t-21 -91q0 -131 73 -131z" />
    <glyph glyph-name="Emacron" unicode="&#x112;" horiz-adv-x="602" 
d="M458 854v-123h-288v123h288zM49 0v700h510v-160h-273v-112h187v-150h-187v-122h282v-156h-519z" />
    <glyph glyph-name="emacron" unicode="&#x113;" horiz-adv-x="578" 
d="M561 216h-323q7 -48 31 -66t73 -18q75 0 128 32h71v-121q-97 -52 -234 -52q-145 0 -218.5 71t-73.5 199q0 127 77 202t208 75q263 0 263 -273q0 -15 -1 -31.5t-1 -17.5zM435 694v-122h-284v122h284zM300 404q-26 0 -42 -18.5t-21 -67.5h122q-2 48 -16 67t-43 19z" />
    <glyph glyph-name="Ebreve" unicode="&#x114;" horiz-adv-x="602" 
d="M314 724q-66 0 -106 28t-51 78v43h116q6 -30 41 -30t41 30h116v-43q-11 -49 -51.5 -77.5t-105.5 -28.5zM49 0v700h510v-160h-273v-112h187v-150h-187v-122h282v-156h-519z" />
    <glyph glyph-name="ebreve" unicode="&#x115;" horiz-adv-x="578" 
d="M561 216h-323q7 -48 31 -66t73 -18q75 0 128 32h71v-121q-97 -52 -234 -52q-145 0 -218.5 71t-73.5 199q0 127 77 202t208 75q263 0 263 -273q0 -15 -1 -31.5t-1 -17.5zM293 558q-65 0 -105.5 31t-51.5 84v43h116q6 -33 41 -33t41 33h116v-43q-11 -53 -51.5 -84
t-105.5 -31zM300 404q-26 0 -42 -18.5t-21 -67.5h122q-2 48 -16 67t-43 19z" />
    <glyph glyph-name="Edotaccent" unicode="&#x116;" horiz-adv-x="602" 
d="M314 722q-49 0 -79.5 25.5t-30.5 68.5q0 42 30.5 68t79.5 26t79.5 -26t30.5 -68q0 -43 -30.5 -68.5t-79.5 -25.5zM49 0v700h510v-160h-273v-112h187v-150h-187v-122h282v-156h-519z" />
    <glyph glyph-name="edotaccent" unicode="&#x117;" horiz-adv-x="578" 
d="M561 216h-323q7 -48 31 -66t73 -18q75 0 128 32h71v-121q-97 -52 -234 -52q-145 0 -218.5 71t-73.5 199q0 127 77 202t208 75q263 0 263 -273q0 -15 -1 -31.5t-1 -17.5zM298 550q-49 0 -79.5 25.5t-30.5 67.5t30.5 68t79.5 26t79.5 -26t30.5 -68t-30.5 -67.5t-79.5 -25.5
zM300 404q-26 0 -42 -18.5t-21 -67.5h122q-2 48 -16 67t-43 19z" />
    <glyph glyph-name="Eogonek" unicode="&#x118;" horiz-adv-x="602" 
d="M49 0v700h510v-160h-273v-112h187v-150h-187v-122h282v-156h-41q-29 -27 -29 -44q0 -22 34 -22h15v-87q-34 -16 -89 -16q-130 0 -130 79q0 57 79 90h-358z" />
    <glyph glyph-name="eogonek" unicode="&#x119;" horiz-adv-x="578" 
d="M481 2q-29 -26 -29 -46q0 -22 34 -22h15v-87q-34 -16 -88 -16q-66 0 -98.5 21t-32.5 58q0 52 63 83q-18 -2 -38 -2q-145 0 -218.5 71t-73.5 199q0 127 77 202t208 75q263 0 263 -273q0 -15 -1 -31.5t-1 -17.5h-323q6 -48 31 -66t73 -18q75 0 128 32h71v-121
q-49 -31 -60 -41zM300 404q-27 0 -42.5 -18t-21.5 -68h123q-2 48 -16 67t-43 19z" />
    <glyph glyph-name="Ecaron" unicode="&#x11a;" horiz-adv-x="602" 
d="M479 870v-39l-92 -106h-148l-90 106v39h119l48 -34l48 34h115zM49 0v700h510v-160h-273v-112h187v-150h-187v-122h282v-156h-519z" />
    <glyph glyph-name="ecaron" unicode="&#x11b;" horiz-adv-x="578" 
d="M561 216h-323q7 -48 31 -66t73 -18q75 0 128 32h71v-121q-97 -52 -234 -52q-145 0 -218.5 71t-73.5 199q0 127 77 202t208 75q263 0 263 -273q0 -15 -1 -31.5t-1 -17.5zM458 707v-40l-92 -108h-148l-90 108v40h119l48 -36l48 36h115zM300 404q-26 0 -42 -18.5t-21 -67.5
h122q-2 48 -16 67t-43 19z" />
    <glyph glyph-name="Gcircumflex" unicode="&#x11c;" horiz-adv-x="701" 
d="M384 -11q-361 0 -361 354q0 177 102 272.5t286 95.5q129 0 220 -47v-159h-95q-52 38 -122 38q-76 0 -112.5 -46t-36.5 -153q0 -111 27.5 -156t90.5 -45q35 0 58 7v99h-66v134h285v-340q-119 -54 -276 -54zM211 725v39l92 106h147l91 -106v-39h-119l-49 34l-48 -34h-114z
" />
    <glyph glyph-name="gcircumflex" unicode="&#x11d;" horiz-adv-x="629" 
d="M589 528v-473q0 -111 -84 -168t-234 -57q-140 0 -226 36v143h70q54 -28 127 -28q125 0 125 74v20q-48 -40 -137 -40q-213 0 -213 244q0 72 19.5 124.5t52 80.5t69.5 41t79 13q89 0 145 -70q21 60 79 60h128zM145 559v40l92 108h147l91 -108v-40h-119l-49 36l-48 -36h-114
zM317 164q27 0 50 13v190q-21 10 -47 10q-38 0 -58 -20.5t-20 -82.5q0 -68 17.5 -89t57.5 -21z" />
    <glyph glyph-name="Gbreve" unicode="&#x11e;" horiz-adv-x="701" 
d="M376 724q-66 0 -106 28t-51 78v43h116q6 -30 41 -30t41 30h116v-43q-11 -49 -51.5 -77.5t-105.5 -28.5zM384 -11q-361 0 -361 354q0 177 102 272.5t286 95.5q129 0 220 -47v-159h-95q-52 38 -122 38q-76 0 -112.5 -46t-36.5 -153q0 -111 27.5 -156t90.5 -45q35 0 58 7v99
h-66v134h285v-340q-119 -54 -276 -54z" />
    <glyph glyph-name="gbreve" unicode="&#x11f;" horiz-adv-x="629" 
d="M589 528v-473q0 -111 -84 -168t-234 -57q-140 0 -226 36v143h70q54 -28 127 -28q125 0 125 74v20q-48 -40 -137 -40q-213 0 -213 244q0 72 19.5 124.5t52 80.5t69.5 41t79 13q89 0 145 -70q21 60 79 60h128zM310 558q-65 0 -105.5 31t-51.5 84v43h116q5 -33 41 -33t41 33
h116v-43q-11 -53 -51.5 -84t-105.5 -31zM317 164q27 0 50 13v190q-21 10 -47 10q-38 0 -58 -20.5t-20 -82.5q0 -68 17.5 -89t57.5 -21z" />
    <glyph glyph-name="Gdotaccent" unicode="&#x120;" horiz-adv-x="701" 
d="M376 722q-49 0 -79.5 25.5t-30.5 68.5q0 42 30.5 68t79.5 26t79.5 -26t30.5 -68q0 -43 -30.5 -68.5t-79.5 -25.5zM384 -11q-361 0 -361 354q0 177 102 272.5t286 95.5q129 0 220 -47v-159h-95q-52 38 -122 38q-76 0 -112.5 -46t-36.5 -153q0 -111 27.5 -156t90.5 -45
q35 0 58 7v99h-66v134h285v-340q-119 -54 -276 -54z" />
    <glyph glyph-name="gdotaccent" unicode="&#x121;" horiz-adv-x="629" 
d="M589 528v-473q0 -111 -84 -168t-234 -57q-140 0 -226 36v143h70q54 -28 127 -28q125 0 125 74v20q-48 -40 -137 -40q-213 0 -213 244q0 72 19.5 124.5t52 80.5t69.5 41t79 13q89 0 145 -70q21 60 79 60h128zM310 550q-49 0 -79.5 25.5t-30.5 67.5t30.5 68t79.5 26
t79.5 -26t30.5 -68t-30.5 -67.5t-79.5 -25.5zM317 164q27 0 50 13v190q-21 10 -47 10q-38 0 -58 -20.5t-20 -82.5q0 -68 17.5 -89t57.5 -21z" />
    <glyph glyph-name="Gcommaaccent" unicode="&#x122;" horiz-adv-x="701" 
d="M292 -236v66q49 4 49 21q0 7 -22 19q-30 15 -30 49q0 28 23.5 45t61.5 17q40 0 64.5 -22.5t24.5 -65.5q0 -62 -41.5 -93.5t-129.5 -35.5zM384 -11q-361 0 -361 354q0 177 102 272.5t286 95.5q129 0 220 -47v-159h-95q-52 38 -122 38q-76 0 -112.5 -46t-36.5 -153
q0 -111 27.5 -156t90.5 -45q35 0 58 7v99h-66v134h285v-340q-119 -54 -276 -54z" />
    <glyph glyph-name="gcommaaccent" unicode="&#x123;" horiz-adv-x="629" 
d="M589 528v-473q0 -111 -84 -168t-234 -57q-140 0 -226 36v143h70q54 -28 127 -28q125 0 125 74v20q-48 -40 -137 -40q-213 0 -213 244q0 72 19.5 124.5t52 80.5t69.5 41t79 13q89 0 145 -70q21 60 79 60h128zM393 773v-66q-49 -4 -49 -21q0 -7 22 -19q30 -15 30 -49
q0 -28 -23.5 -45t-61.5 -17q-40 0 -64.5 22.5t-24.5 65.5q0 62 41.5 93.5t129.5 35.5zM317 164q27 0 50 13v190q-21 10 -47 10q-38 0 -58 -20.5t-20 -82.5q0 -68 17.5 -89t57.5 -21z" />
    <glyph glyph-name="Hcircumflex" unicode="&#x124;" horiz-adv-x="735" 
d="M287 0h-238v700h238v-261h161v261h238v-700h-238v270h-161v-270zM202 725v39l92 106h147l91 -106v-39h-119l-49 34l-48 -34h-114z" />
    <glyph glyph-name="hcircumflex" unicode="&#x125;" horiz-adv-x="629" 
d="M263 590v-131q83 79 183 79q145 0 145 -153v-385h-222v326q0 27 -13.5 36.5t-45.5 9.5q-21 0 -47 -6v-366h-223v700h147q48 0 62 -20.5t14 -89.5zM144 719v40l92 108h147l91 -108v-40h-119l-49 36l-48 -36h-114z" />
    <glyph glyph-name="Hbar" unicode="&#x126;" horiz-adv-x="735" 
d="M-5 503v121h54v76h238v-76h161v76h238v-76h54v-121h-54v-503h-238v270h-161v-270h-238v503h-54zM287 434h161v69h-161v-69z" />
    <glyph glyph-name="hbar" unicode="&#x127;" horiz-adv-x="629" 
d="M-4 557v96h44v47h147q43 0 59 -11.5t17 -35.5h115v-96h-115v-98q83 79 183 79q145 0 145 -153v-385h-222v326q0 27 -13.5 36.5t-45.5 9.5q-21 0 -47 -6v-366h-223v557h-44z" />
    <glyph glyph-name="Imacron" unicode="&#x12a;" horiz-adv-x="343" 
d="M290 0h-238v700h238v-700zM316 854v-123h-288v123h288z" />
    <glyph glyph-name="imacron" unicode="&#x12b;" horiz-adv-x="304" 
d="M263 0h-222v528h147q47 0 61 -19.5t14 -85.5v-423zM291 694v-122h-278v122h278z" />
    <glyph glyph-name="Iogonek" unicode="&#x12e;" horiz-adv-x="343" 
d="M199 -169q-130 0 -130 79q0 57 79 90h-96v700h238v-700h-22q-29 -27 -29 -44q0 -22 34 -22h15v-87q-34 -16 -89 -16z" />
    <glyph glyph-name="iogonek" unicode="&#x12f;" horiz-adv-x="304" 
d="M176 -169q-130 0 -130 79q0 57 79 90h-84v528h147q47 0 61 -19.5t14 -85.5v-423h-18q-29 -27 -29 -44q0 -22 34 -22h15v-87q-34 -16 -89 -16zM152 550q-49 0 -79.5 25.5t-30.5 67.5t30.5 68t79.5 26t79.5 -26t30.5 -68t-30.5 -67.5t-79.5 -25.5z" />
    <glyph glyph-name="Idotaccent" unicode="&#x130;" horiz-adv-x="343" 
d="M290 0h-238v700h238v-700zM172 722q-49 0 -79.5 25.5t-30.5 68.5q0 42 30.5 68t79.5 26t79.5 -26t30.5 -68q0 -43 -30.5 -68.5t-79.5 -25.5z" />
    <glyph glyph-name="dotlessi" unicode="&#x131;" horiz-adv-x="304" 
d="M263 0h-222v528h147q47 0 61 -19.5t14 -85.5v-423z" />
    <glyph glyph-name="Jcircumflex" unicode="&#x134;" horiz-adv-x="524" 
d="M202 -9q-123 0 -189 49v148h86q29 -27 79 -27q64 0 64 57v482h237v-477q0 -117 -67.5 -174.5t-209.5 -57.5zM193 725v39l92 106h147l91 -106v-39h-119l-49 34l-48 -34h-114z" />
    <glyph glyph-name="jcircumflex" unicode="&#x135;" horiz-adv-x="304" 
d="M-37 -156v116h24q32 0 43 10t11 37v521h149q45 0 59 -21t14 -84v-426q0 -90 -48 -128.5t-146 -38.5q-54 0 -106 14zM-13 559v40l92 108h147l91 -108v-40h-119l-49 36l-48 -36h-114z" />
    <glyph glyph-name="Kcommaaccent" unicode="&#x136;" horiz-adv-x="740" 
d="M291 -236v66q49 4 49 21q0 7 -22 19q-30 15 -30 49q0 28 23.5 45t61.5 17q40 0 64.5 -22.5t24.5 -65.5q0 -62 -41.5 -93.5t-129.5 -35.5zM49 0v700h238v-263l203 263h210v-43l-195 -240l214 -374v-43h-238l-148 261l-46 -50v-211h-238z" />
    <glyph glyph-name="kcommaaccent" unicode="&#x137;" horiz-adv-x="616" 
d="M237 -236v66q49 4 49 21q0 7 -22 19q-30 15 -30 49q0 28 23.5 45t61.5 17q40 0 64.5 -22.5t24.5 -65.5q0 -62 -41.5 -93.5t-129.5 -35.5zM263 590v-242l135 180h188v-48l-131 -165l151 -269v-46h-216l-100 179l-27 -36v-143h-223v700h147q48 0 62 -20.5t14 -89.5z" />
    <glyph glyph-name="Lacute" unicode="&#x139;" horiz-adv-x="574" 
d="M99 725v35l33 109h205v-43l-105 -101h-133zM544 0h-495v700h238v-541h257v-159z" />
    <glyph glyph-name="lacute" unicode="&#x13a;" horiz-adv-x="307" 
d="M210 719h-133v35l33 113h205v-44zM265 0h-223v700h147q48 0 62 -20.5t14 -89.5v-590z" />
    <glyph glyph-name="Lcommaaccent" unicode="&#x13b;" horiz-adv-x="574" 
d="M210 -236v66q49 4 49 21q0 7 -22 19q-30 15 -30 49q0 28 23.5 45t61.5 17q40 0 64.5 -22.5t24.5 -65.5q0 -62 -41.5 -93.5t-129.5 -35.5zM544 0h-495v700h238v-541h257v-159z" />
    <glyph glyph-name="lcommaaccent" unicode="&#x13c;" horiz-adv-x="307" 
d="M71 -236v66q49 4 49 21q0 7 -22 19q-30 15 -30 49q0 28 23.5 45t61.5 17q40 0 64.5 -22.5t24.5 -65.5q0 -62 -41.5 -93.5t-129.5 -35.5zM265 0h-223v700h147q48 0 62 -20.5t14 -89.5v-590z" />
    <glyph glyph-name="Lcaron" unicode="&#x13d;" horiz-adv-x="574" 
d="M338 560v140h152v-43l-61 -97h-91zM544 0h-495v700h238v-541h257v-159z" />
    <glyph glyph-name="lcaron" unicode="&#x13e;" horiz-adv-x="307" 
d="M293 560v140h152v-43l-61 -97h-91zM265 0h-223v700h147q48 0 62 -20.5t14 -89.5v-590z" />
    <glyph glyph-name="Lslash" unicode="&#x141;" horiz-adv-x="580" 
d="M549 0h-494v212l-52 -18v144l52 18v344h237v-261l169 60v-144l-169 -60v-136h257v-159z" />
    <glyph glyph-name="lslash" unicode="&#x142;" horiz-adv-x="326" 
d="M274 0h-222v258l-51 -25v134l51 25v308h146q48 0 62 -20t14 -90v-90l52 25v-133l-52 -26v-366z" />
    <glyph glyph-name="Nacute" unicode="&#x143;" horiz-adv-x="728" 
d="M310 725v35l33 109h205v-43l-105 -101h-133zM49 0v700h241l193 -350h3v350h192v-700h-216l-218 393h-3v-393h-192z" />
    <glyph glyph-name="nacute" unicode="&#x144;" horiz-adv-x="629" 
d="M263 0h-223v528h158q27 0 40.5 -14.5t19.5 -59.5q84 84 188 84q145 0 145 -153v-385h-222v326q0 27 -13.5 36.5t-45.5 9.5q-21 0 -47 -6v-366zM384 559h-133v35l33 113h205v-44z" />
    <glyph glyph-name="Ncommaaccent" unicode="&#x145;" horiz-adv-x="728" 
d="M270 -236v66q49 4 49 21q0 7 -22 19q-30 15 -30 49q0 28 23.5 45t61.5 17q40 0 64.5 -22.5t24.5 -65.5q0 -62 -41.5 -93.5t-129.5 -35.5zM49 0v700h241l193 -350h3v350h192v-700h-216l-218 393h-3v-393h-192z" />
    <glyph glyph-name="ncommaaccent" unicode="&#x146;" horiz-adv-x="629" 
d="M263 0h-223v528h158q27 0 40.5 -14.5t19.5 -59.5q84 84 188 84q145 0 145 -153v-385h-222v326q0 27 -13.5 36.5t-45.5 9.5q-21 0 -47 -6v-366zM234 -236v66q49 4 49 21q0 7 -22 19q-30 15 -30 49q0 28 23.5 45t61.5 17q40 0 64.5 -22.5t24.5 -65.5q0 -62 -41.5 -93.5
t-129.5 -35.5z" />
    <glyph glyph-name="Ncaron" unicode="&#x147;" horiz-adv-x="728" 
d="M546 870v-39l-92 -106h-148l-90 106v39h119l48 -34l48 34h115zM49 0v700h241l193 -350h3v350h192v-700h-216l-218 393h-3v-393h-192z" />
    <glyph glyph-name="ncaron" unicode="&#x148;" horiz-adv-x="629" 
d="M263 0h-223v528h158q27 0 40.5 -14.5t19.5 -59.5q84 84 188 84q145 0 145 -153v-385h-222v326q0 27 -13.5 36.5t-45.5 9.5q-21 0 -47 -6v-366zM483 707v-40l-92 -108h-148l-90 108v40h119l48 -36l48 36h115z" />
    <glyph glyph-name="Omacron" unicode="&#x14c;" horiz-adv-x="761" 
d="M524 854v-123h-288v123h288zM380 -11q-158 0 -257.5 95t-99.5 264t101.5 266t255.5 97q155 0 256.5 -97t101.5 -266t-100 -264t-258 -95zM380 150q117 0 117 197t-117 197t-117 -197t117 -197z" />
    <glyph glyph-name="omacron" unicode="&#x14d;" horiz-adv-x="620" 
d="M452 694v-122h-284v122h284zM310 -9q-131 0 -213 73t-82 197q0 125 82.5 201t212.5 76t212.5 -76t82.5 -201q0 -124 -82 -197t-213 -73zM310 127q70 0 70 133q0 132 -70 132q-71 0 -71 -132q0 -133 71 -133z" />
    <glyph glyph-name="Ohungarumlaut" unicode="&#x150;" horiz-adv-x="761" 
d="M380 -11q-158 0 -257.5 95t-99.5 264t101.5 266t255.5 97q155 0 256.5 -97t101.5 -266t-100 -264t-258 -95zM380 150q117 0 117 197t-117 197t-117 -197t117 -197zM217 725v29l32 115h168v-42l-81 -102h-119zM418 725v29l31 115h168v-42l-81 -102h-118z" />
    <glyph glyph-name="ohungarumlaut" unicode="&#x151;" horiz-adv-x="620" 
d="M151 559v30l33 118h161v-42l-82 -106h-112zM345 559v30l32 118h161v-42l-82 -106h-111zM310 -9q-131 0 -213 73t-82 197q0 125 82.5 201t212.5 76t212.5 -76t82.5 -201q0 -124 -82 -197t-213 -73zM310 127q70 0 70 133q0 132 -70 132q-71 0 -71 -132q0 -133 71 -133z" />
    <glyph glyph-name="OE" unicode="&#x152;" horiz-adv-x="990" 
d="M398 0q-375 0 -375 345q0 355 382 355h542v-160h-270v-112h184v-150h-184v-122h279v-156h-558zM442 546h-30q-77 0 -113 -43.5t-36 -148.5q0 -106 35 -151t114 -45h30v388z" />
    <glyph glyph-name="oe" unicode="&#x153;" horiz-adv-x="941" 
d="M303 -9q-127 0 -207.5 73t-80.5 197q0 125 81 201t207 76q112 0 185 -68q68 68 182 68q256 0 256 -273q0 -28 -3 -49h-323q7 -48 31.5 -66t72.5 -18q76 0 129 32h70v-121q-95 -52 -223 -52q-129 0 -195 63q-71 -63 -182 -63zM310 126q70 0 70 134q0 131 -70 131
q-71 0 -71 -131q0 -134 71 -134zM663 404q-26 0 -42 -18.5t-22 -67.5h123q-2 48 -16.5 67t-42.5 19z" />
    <glyph glyph-name="Racute" unicode="&#x154;" horiz-adv-x="693" 
d="M455 0l-117 235h-51v-235h-238v700h298q151 0 223 -56.5t72 -168.5q0 -117 -94 -183l128 -243v-49h-221zM261 725v35l33 109h205v-43l-105 -101h-133zM282 546v-163h43q84 0 84 81q0 82 -84 82h-43z" />
    <glyph glyph-name="racute" unicode="&#x155;" horiz-adv-x="442" 
d="M411 348q-89 0 -148 -17v-331h-223v528h158q27 0 40.5 -16t19.5 -65q57 85 142 85q20 0 32 -4v-180h-21zM318 559h-133v35l33 113h205v-44z" />
    <glyph glyph-name="Rcommaaccent" unicode="&#x156;" horiz-adv-x="693" 
d="M455 0l-117 235h-51v-235h-238v700h298q151 0 223 -56.5t72 -168.5q0 -117 -94 -183l128 -243v-49h-221zM275 -236v66q49 4 49 21q0 7 -22 19q-30 15 -30 49q0 28 23.5 45t61.5 17q40 0 64.5 -22.5t24.5 -65.5q0 -62 -41.5 -93.5t-129.5 -35.5zM282 546v-163h43
q84 0 84 81q0 82 -84 82h-43z" />
    <glyph glyph-name="rcommaaccent" unicode="&#x157;" horiz-adv-x="440" 
d="M411 348q-89 0 -148 -17v-331h-223v528h158q27 0 40.5 -16t19.5 -65q57 85 142 85q20 0 32 -4v-180h-21zM64 -236v66q49 4 49 21q0 7 -22 19q-30 15 -30 49q0 28 23.5 45t61.5 17q40 0 64.5 -22.5t24.5 -65.5q0 -62 -41.5 -93.5t-129.5 -35.5z" />
    <glyph glyph-name="Rcaron" unicode="&#x158;" horiz-adv-x="693" 
d="M455 0l-117 235h-51v-235h-238v700h298q151 0 223 -56.5t72 -168.5q0 -117 -94 -183l128 -243v-49h-221zM497 870v-39l-92 -106h-148l-90 106v39h119l48 -34l48 34h115zM282 546v-163h43q84 0 84 81q0 82 -84 82h-43z" />
    <glyph glyph-name="rcaron" unicode="&#x159;" horiz-adv-x="440" 
d="M411 348q-89 0 -148 -17v-331h-223v528h158q27 0 40.5 -16t19.5 -65q57 85 142 85q20 0 32 -4v-180h-21zM417 707v-40l-92 -108h-148l-90 108v40h119l48 -36l48 36h115z" />
    <glyph glyph-name="Sacute" unicode="&#x15a;" horiz-adv-x="582" 
d="M259 -11q-146 0 -236 56v151h94q47 -45 132 -45q88 0 88 47q0 26 -20.5 36.5t-76.5 22.5l-15 3q-105 23 -155.5 71.5t-50.5 153.5q0 111 77 168.5t207 57.5q132 0 225 -49v-148h-94q-47 36 -123 36q-82 0 -82 -44q0 -24 21 -34t78 -22q133 -27 183 -77.5t50 -151.5
q0 -110 -77.5 -171t-224.5 -61zM221 725v35l33 109h205v-43l-105 -101h-133z" />
    <glyph glyph-name="sacute" unicode="&#x15b;" horiz-adv-x="489" 
d="M316 559h-133v35l33 113h205v-44zM220 -8q-115 0 -199 40v132h78q14 -14 45.5 -24t67.5 -10q65 0 65 25q0 15 -15 20.5t-74 14.5q-89 12 -131.5 48t-42.5 120q0 90 65.5 134.5t173.5 44.5q111 0 195 -32v-130h-74q-43 28 -110 28q-58 0 -58 -25q0 -13 16.5 -19t65.5 -12
q98 -11 143 -46t45 -120q0 -92 -64 -140.5t-192 -48.5z" />
    <glyph glyph-name="Scircumflex" unicode="&#x15c;" horiz-adv-x="582" 
d="M259 -11q-146 0 -236 56v151h94q47 -45 132 -45q88 0 88 47q0 26 -20.5 36.5t-76.5 22.5l-15 3q-105 23 -155.5 71.5t-50.5 153.5q0 111 77 168.5t207 57.5q132 0 225 -49v-148h-94q-47 36 -123 36q-82 0 -82 -44q0 -24 21 -34t78 -22q133 -27 183 -77.5t50 -151.5
q0 -110 -77.5 -171t-224.5 -61zM128 725v39l92 106h147l91 -106v-39h-119l-49 34l-48 -34h-114z" />
    <glyph glyph-name="scircumflex" unicode="&#x15d;" horiz-adv-x="489" 
d="M85 559v40l92 108h147l91 -108v-40h-119l-49 36l-48 -36h-114zM220 -8q-115 0 -199 40v132h78q14 -14 45.5 -24t67.5 -10q65 0 65 25q0 15 -15 20.5t-74 14.5q-89 12 -131.5 48t-42.5 120q0 90 65.5 134.5t173.5 44.5q111 0 195 -32v-130h-74q-43 28 -110 28
q-58 0 -58 -25q0 -13 16.5 -19t65.5 -12q98 -11 143 -46t45 -120q0 -92 -64 -140.5t-192 -48.5z" />
    <glyph glyph-name="Scedilla" unicode="&#x15e;" horiz-adv-x="583" 
d="M561 221q0 -98 -62.5 -158t-181.5 -71v-17q81 -5 81 -71q0 -79 -121 -79q-49 0 -88 16v65h34q11 -9 28 -9q24 0 24 14q0 12 -26 12h-18v67q-127 4 -208 55v151h94q47 -45 132 -45q88 0 88 47q0 26 -20.5 36.5t-76.5 22.5l-15 3q-105 23 -155.5 71.5t-50.5 153.5
q0 111 77 168.5t207 57.5q132 0 225 -49v-148h-94q-47 36 -123 36q-82 0 -82 -44q0 -24 21 -34t78 -22q133 -27 183 -77.5t50 -151.5z" />
    <glyph glyph-name="scedilla" unicode="&#x15f;" horiz-adv-x="489" 
d="M476 181q0 -80 -48.5 -127.5t-144.5 -57.5v-21q81 -5 81 -71q0 -79 -121 -79q-49 0 -88 16v65h34q11 -9 28 -9q24 0 24 14q0 12 -26 12h-18v70q-103 2 -176 39v132h78q14 -14 45.5 -24t67.5 -10q65 0 65 25q0 15 -15 20.5t-74 14.5q-89 12 -131.5 48t-42.5 120
q0 90 65.5 134.5t173.5 44.5q111 0 195 -32v-130h-74q-43 28 -110 28q-58 0 -58 -25q0 -13 16.5 -19t65.5 -12q98 -11 143 -46t45 -120z" />
    <glyph glyph-name="Scaron" unicode="&#x160;" horiz-adv-x="579" 
d="M259 -11q-146 0 -236 56v151h94q47 -45 132 -45q88 0 88 47q0 26 -20.5 36.5t-76.5 22.5l-15 3q-105 23 -155.5 71.5t-50.5 153.5q0 111 77 168.5t207 57.5q132 0 225 -49v-148h-94q-47 36 -123 36q-82 0 -82 -44q0 -24 21 -34t78 -22q133 -27 183 -77.5t50 -151.5
q0 -110 -77.5 -171t-224.5 -61zM456 870v-39l-92 -106h-148l-90 106v39h119l48 -34l48 34h115z" />
    <glyph glyph-name="scaron" unicode="&#x161;" horiz-adv-x="489" 
d="M415 707v-40l-92 -108h-148l-90 108v40h119l48 -36l48 36h115zM220 -8q-115 0 -199 40v132h78q14 -14 45.5 -24t67.5 -10q65 0 65 25q0 15 -15 20.5t-74 14.5q-89 12 -131.5 48t-42.5 120q0 90 65.5 134.5t173.5 44.5q111 0 195 -32v-130h-74q-43 28 -110 28
q-58 0 -58 -25q0 -13 16.5 -19t65.5 -12q98 -11 143 -46t45 -120q0 -92 -64 -140.5t-192 -48.5z" />
    <glyph glyph-name="Tcommaaccent" unicode="&#x162;" horiz-adv-x="626" 
d="M229 -236v66q49 4 49 21q0 7 -22 19q-30 15 -30 49q0 28 23.5 45t61.5 17q40 0 64.5 -22.5t24.5 -65.5q0 -62 -41.5 -93.5t-129.5 -35.5zM432 0h-238v538h-166v162h570v-162h-166v-538z" />
    <glyph glyph-name="tcommaaccent" unicode="&#x163;" horiz-adv-x="390" 
d="M130 -236v66q49 4 49 21q0 7 -22 19q-30 15 -30 49q0 28 23.5 45t61.5 17q40 0 64.5 -22.5t24.5 -65.5q0 -62 -41.5 -93.5t-129.5 -35.5zM10 392v136h51v128h222v-128h87v-136h-87v-205q0 -33 13 -45.5t48 -12.5h28v-124q-52 -16 -116 -16q-95 0 -145 36t-50 123v244h-51
z" />
    <glyph glyph-name="Tcaron" unicode="&#x164;" horiz-adv-x="626" 
d="M478 870v-39l-92 -106h-148l-90 106v39h119l48 -34l48 34h115zM432 0h-238v538h-166v162h570v-162h-166v-538z" />
    <glyph glyph-name="tcaron" unicode="&#x165;" horiz-adv-x="390" 
d="M405 560h-91v140h152v-43zM10 392v136h51v128h222v-128h87v-136h-87v-205q0 -33 13 -45.5t48 -12.5h28v-124q-52 -16 -116 -16q-95 0 -145 36t-50 123v244h-51z" />
    <glyph glyph-name="Umacron" unicode="&#x16a;" horiz-adv-x="713" 
d="M518 854v-123h-288v123h288zM378 161q48 0 69.5 24t21.5 78v437h197v-444q0 -129 -77.5 -196.5t-225.5 -67.5q-156 0 -236 67.5t-80 196.5v444h238v-437q0 -54 22 -78t71 -24z" />
    <glyph glyph-name="umacron" unicode="&#x16b;" horiz-adv-x="632" 
d="M368 528h222v-528h-157q-28 0 -41 14t-19 58q-87 -81 -179 -81q-155 0 -155 162v375h222v-329q0 -28 14.5 -38t47.5 -10q22 0 45 7v370zM458 694v-122h-284v122h284z" />
    <glyph glyph-name="Ubreve" unicode="&#x16c;" horiz-adv-x="713" 
d="M374 724q-66 0 -106 28t-51 78v43h116q6 -30 41 -30t41 30h116v-43q-11 -49 -51.5 -77.5t-105.5 -28.5zM378 161q48 0 69.5 24t21.5 78v437h197v-444q0 -129 -77.5 -196.5t-225.5 -67.5q-156 0 -236 67.5t-80 196.5v444h238v-437q0 -54 22 -78t71 -24z" />
    <glyph glyph-name="ubreve" unicode="&#x16d;" horiz-adv-x="632" 
d="M368 528h222v-528h-157q-28 0 -41 14t-19 58q-87 -81 -179 -81q-155 0 -155 162v375h222v-329q0 -28 14.5 -38t47.5 -10q22 0 45 7v370zM316 558q-65 0 -105.5 31t-51.5 84v43h116q5 -33 41 -33t41 33h116v-43q-11 -53 -51.5 -84t-105.5 -31z" />
    <glyph glyph-name="Uring" unicode="&#x16e;" horiz-adv-x="713" 
d="M384 161q48 0 69.5 24t21.5 78v437h197v-444q0 -129 -77.5 -196.5t-225.5 -67.5q-156 0 -236 67.5t-80 196.5v444h238v-437q0 -54 22 -78t71 -24zM383 700q-45 0 -77 28t-32 74q0 47 32 75.5t77 28.5t77 -28.5t32 -75.5q0 -46 -32 -74t-77 -28zM383 770q14 0 22.5 9
t8.5 23q0 15 -8.5 24t-22.5 9t-22 -9t-8 -24q0 -14 8.5 -23t21.5 -9z" />
    <glyph glyph-name="uring" unicode="&#x16f;" horiz-adv-x="632" 
d="M368 528h222v-528h-157q-28 0 -41 14t-19 58q-87 -81 -179 -81q-155 0 -155 162v375h222v-329q0 -28 14.5 -38t47.5 -10q22 0 45 7v370zM316 558q-45 0 -77 28.5t-32 74.5t32 74.5t77 28.5t77 -28.5t32 -74.5t-32 -74.5t-77 -28.5zM316 629q14 0 22.5 9t8.5 23t-8.5 23
t-22.5 9q-13 0 -21.5 -9t-8.5 -23t8.5 -23t21.5 -9z" />
    <glyph glyph-name="Uhungarumlaut" unicode="&#x170;" horiz-adv-x="713" 
d="M378 161q48 0 69.5 24t21.5 78v437h197v-444q0 -129 -77.5 -196.5t-225.5 -67.5q-156 0 -236 67.5t-80 196.5v444h238v-437q0 -54 22 -78t71 -24zM211 725v29l32 115h168v-42l-81 -102h-119zM412 725v29l31 115h168v-42l-81 -102h-118z" />
    <glyph glyph-name="uhungarumlaut" unicode="&#x171;" horiz-adv-x="632" 
d="M368 528h222v-528h-157q-28 0 -41 14t-19 58q-87 -81 -179 -81q-155 0 -155 162v375h222v-329q0 -28 14.5 -38t47.5 -10q22 0 45 7v370zM157 559v30l33 118h161v-42l-82 -106h-112zM351 559v30l32 118h161v-42l-82 -106h-111z" />
    <glyph glyph-name="Uogonek" unicode="&#x172;" horiz-adv-x="713" 
d="M411 -169q-65 0 -98 21t-33 58q0 51 63 84h-1q-139 0 -217 69t-78 193v444h238v-437q0 -54 22 -78t71 -24q48 0 69.5 24t21.5 78v437h197v-444q0 -166 -126 -229q-7 -3 -22.5 -10t-27.5 -13t-20 -13q-20 -19 -20 -35q0 -22 34 -22h16v-87q-34 -16 -89 -16z" />
    <glyph glyph-name="uogonek" unicode="&#x173;" horiz-adv-x="632" 
d="M368 528h222v-528h-20q-29 -27 -29 -44q0 -22 34 -22h15v-87q-34 -16 -89 -16q-130 0 -130 79q0 57 79 90h-17q-28 0 -41 14t-19 58q-87 -81 -179 -81q-155 0 -155 162v375h222v-329q0 -28 14.5 -38t47.5 -10q22 0 45 7v370z" />
    <glyph glyph-name="Ydieresis" unicode="&#x178;" horiz-adv-x="672" 
d="M239 722q-43 0 -69.5 24t-26.5 64t26.5 63.5t69.5 23.5t69.5 -23.5t26.5 -63.5t-26.5 -64t-69.5 -24zM459 722q-43 0 -69.5 24t-26.5 64t26.5 63.5t69.5 23.5t69.5 -23.5t26.5 -63.5t-26.5 -64t-69.5 -24zM460 0h-238v247l-211 403v50h223l118 -242h2l113 242h194v-50
l-201 -397v-253z" />
    <glyph glyph-name="Zacute" unicode="&#x179;" horiz-adv-x="599" 
d="M26 0v165l282 370v4h-263v161h521v-173l-282 -363v-4h282v-160h-540zM235 725v35l33 109h205v-43l-105 -101h-133z" />
    <glyph glyph-name="zacute" unicode="&#x17a;" horiz-adv-x="529" 
d="M333 559h-133v35l33 113h205v-44zM21 0v147l220 231h-211v150h475v-151l-220 -230h219v-147h-483z" />
    <glyph glyph-name="Zdotaccent" unicode="&#x17b;" horiz-adv-x="599" 
d="M309 722q-49 0 -79.5 25.5t-30.5 68.5q0 42 30.5 68t79.5 26t79.5 -26t30.5 -68q0 -43 -30.5 -68.5t-79.5 -25.5zM26 0v165l282 370v4h-263v161h521v-173l-282 -363v-4h282v-160h-540z" />
    <glyph glyph-name="zdotaccent" unicode="&#x17c;" horiz-adv-x="529" 
d="M21 0v147l220 231h-211v150h475v-151l-220 -230h219v-147h-483zM267 550q-49 0 -79.5 25.5t-30.5 67.5t30.5 68t79.5 26t79.5 -26t30.5 -68t-30.5 -67.5t-79.5 -25.5z" />
    <glyph glyph-name="Zcaron" unicode="&#x17d;" horiz-adv-x="599" 
d="M474 870v-39l-92 -106h-148l-90 106v39h119l48 -34l48 34h115zM26 0v165l282 370v4h-263v161h521v-173l-282 -363v-4h282v-160h-540z" />
    <glyph glyph-name="zcaron" unicode="&#x17e;" horiz-adv-x="529" 
d="M432 707v-40l-92 -108h-148l-90 108v40h119l48 -36l48 36h115zM21 0v147l220 231h-211v150h475v-151l-220 -230h219v-147h-483z" />
    <glyph glyph-name="florin" unicode="&#x192;" horiz-adv-x="434" 
d="M31 444h67l12 99q20 171 208 171q56 0 101 -15v-124h-27q-31 0 -44.5 -10t-17.5 -39l-10 -82h79v-138h-96l-48 -406h-219l46 406h-51v138z" />
    <glyph glyph-name="Scommaaccent" unicode="&#x218;" horiz-adv-x="583" 
d="M202 -236v66q49 4 49 21q0 7 -22 19q-30 15 -30 49q0 28 23.5 45t61.5 17q40 0 64.5 -22.5t24.5 -65.5q0 -62 -41.5 -93.5t-129.5 -35.5zM259 -11q-146 0 -236 56v151h94q47 -45 132 -45q88 0 88 47q0 26 -20.5 36.5t-76.5 22.5l-15 3q-105 23 -155.5 71.5t-50.5 153.5
q0 111 77 168.5t207 57.5q132 0 225 -49v-148h-94q-47 36 -123 36q-82 0 -82 -44q0 -24 21 -34t78 -22q133 -27 183 -77.5t50 -151.5q0 -110 -77.5 -171t-224.5 -61z" />
    <glyph glyph-name="scommaaccent" unicode="&#x219;" horiz-adv-x="489" 
d="M166 -236v66q49 4 49 21q0 7 -22 19q-30 15 -30 49q0 28 23.5 45t61.5 17q40 0 64.5 -22.5t24.5 -65.5q0 -62 -41.5 -93.5t-129.5 -35.5zM220 -8q-115 0 -199 40v132h78q14 -14 45.5 -24t67.5 -10q65 0 65 25q0 15 -15 20.5t-74 14.5q-89 12 -131.5 48t-42.5 120
q0 90 65.5 134.5t173.5 44.5q111 0 195 -32v-130h-74q-43 28 -110 28q-58 0 -58 -25q0 -13 16.5 -19t65.5 -12q98 -11 143 -46t45 -120q0 -92 -64 -140.5t-192 -48.5z" />
    <glyph glyph-name="uni0237" unicode="&#x237;" horiz-adv-x="304" 
d="M-37 -156v116h24q32 0 43 10t11 37v521h149q45 0 59 -21t14 -84v-426q0 -90 -48 -128.5t-146 -38.5q-54 0 -106 14z" />
    <glyph glyph-name="circumflex" unicode="&#x2c6;" 
d="M34 559v40l92 108h147l91 -108v-40h-119l-49 36l-48 -36h-114z" />
    <glyph glyph-name="caron" unicode="&#x2c7;" 
d="M364 707v-40l-92 -108h-148l-90 108v40h119l48 -36l48 36h115z" />
    <glyph glyph-name="breve" unicode="&#x2d8;" 
d="M199 558q-65 0 -105.5 31t-51.5 84v43h116q6 -33 41 -33t41 33h116v-43q-11 -53 -51.5 -84t-105.5 -31z" />
    <glyph glyph-name="dotaccent" unicode="&#x2d9;" 
d="M199 550q-49 0 -79.5 25.5t-30.5 67.5t30.5 68t79.5 26t79.5 -26t30.5 -68t-30.5 -67.5t-79.5 -25.5z" />
    <glyph glyph-name="ring" unicode="&#x2da;" 
d="M199 558q-45 0 -77 28.5t-32 74.5t32 74.5t77 28.5t77 -28.5t32 -74.5t-32 -74.5t-77 -28.5zM199 629q14 0 22.5 9t8.5 23t-8.5 23t-22.5 9q-13 0 -21.5 -9t-8.5 -23t8.5 -23t21.5 -9z" />
    <glyph glyph-name="ogonek" unicode="&#x2db;" 
d="M208 -169q-130 0 -130 79q0 57 79 90h120q-29 -27 -29 -44q0 -22 34 -22h15v-87q-34 -16 -89 -16z" />
    <glyph glyph-name="tilde" unicode="&#x2dc;" 
d="M17 559v44q9 53 39.5 84t76.5 31q27 0 65.5 -10.5t46.5 -10.5q22 0 28 21h102v-43q-8 -54 -37.5 -85t-74.5 -31q-30 0 -68.5 11t-46.5 11q-22 0 -28 -22h-103z" />
    <glyph glyph-name="hungarumlaut" unicode="&#x2dd;" 
d="M46 559v30l33 118h161v-42l-82 -106h-112zM240 559v30l32 118h161v-42l-82 -106h-111z" />
    <glyph glyph-name="endash" unicode="&#x2013;" horiz-adv-x="436" 
d="M27 203v156h382v-156h-382z" />
    <glyph glyph-name="emdash" unicode="&#x2014;" horiz-adv-x="726" 
d="M27 202v158h671v-158h-671z" />
    <glyph glyph-name="quoteleft" unicode="&#x2018;" horiz-adv-x="253" 
d="M229 618q-68 -11 -68 -40q0 -8 5.5 -13.5t17 -11.5t17.5 -11q31 -27 31 -65q0 -39 -28 -63t-71 -24q-48 0 -80 31.5t-32 92.5q0 173 208 188v-84z" />
    <glyph glyph-name="quoteright" unicode="&#x2019;" horiz-adv-x="253" 
d="M24 398v84q68 11 68 40q0 8 -6 13.5t-17 11.5t-17 11q-31 23 -31 65q0 39 28 63t71 24q48 0 80 -31.5t32 -92.5q0 -173 -208 -188z" />
    <glyph glyph-name="quotesinglbase" unicode="&#x201a;" horiz-adv-x="253" 
d="M24 -20q68 11 68 39q0 8 -6 14t-17 12t-17 11q-31 23 -31 65q0 39 28 62.5t71 23.5q49 0 80.5 -31t31.5 -92q0 -173 -208 -188v84z" />
    <glyph glyph-name="quotedblleft" unicode="&#x201c;" horiz-adv-x="493" 
d="M229 618q-68 -11 -68 -40q0 -8 5.5 -13.5t17 -11.5t17.5 -11q31 -27 31 -65q0 -39 -28 -63t-71 -24q-48 0 -80 31.5t-32 92.5q0 173 208 188v-84zM469 618q-68 -10 -68 -40q0 -8 5.5 -13.5t17 -11.5t17.5 -11q31 -27 31 -65q0 -39 -28 -63t-71 -24q-49 0 -81 31.5
t-32 92.5q0 173 209 188v-84z" />
    <glyph glyph-name="quotedblright" unicode="&#x201d;" horiz-adv-x="493" 
d="M263 398v84q69 11 69 40q0 8 -6 13.5t-17.5 11.5t-17.5 11q-31 25 -31 65q0 39 28.5 63t71.5 24q48 0 80 -31.5t32 -92.5q0 -173 -209 -188zM24 398v84q68 11 68 40q0 8 -6 13.5t-17 11.5t-17 11q-31 23 -31 65q0 39 28 63t71 24q48 0 80 -31.5t32 -92.5
q0 -173 -208 -188z" />
    <glyph glyph-name="quotedblbase" unicode="&#x201e;" horiz-adv-x="493" 
d="M263 -20q69 11 69 39q0 8 -6 13.5t-17.5 12t-17.5 11.5q-31 25 -31 65q0 38 28.5 62t71.5 24q49 0 80.5 -31t31.5 -92q0 -173 -209 -188v84zM24 -20q68 11 68 39q0 8 -6 14t-17 12t-17 11q-31 23 -31 65q0 39 28 62.5t71 23.5q49 0 80.5 -31t31.5 -92q0 -173 -208 -188
v84z" />
    <glyph glyph-name="dagger" unicode="&#x2020;" horiz-adv-x="494" 
d="M177 -49l-39 284v70l48 101l-107 -41h-59v191h59l107 -44l-41 95v93h204v-93l-41 -93l107 42h60v-191h-60l-108 43l49 -101v-70l-38 -286h-141z" />
    <glyph glyph-name="daggerdbl" unicode="&#x2021;" horiz-adv-x="494" 
d="M145 -49v78l42 93l-108 -42h-59v191h59l108 -43l-47 65v63l47 65l-108 -41h-59v191h59l108 -44l-42 95v78h204v-78l-41 -93l107 42h60v-191h-60l-108 43l48 -65v-63l-47 -65l107 41h60v-191h-60l-107 44l41 -95v-78h-204z" />
    <glyph glyph-name="bullet" unicode="&#x2022;" horiz-adv-x="382" 
d="M191 121q-70 0 -116.5 43t-46.5 115t47 116t116 44t115.5 -43.5t46.5 -116.5q0 -72 -46 -115t-116 -43z" />
    <glyph glyph-name="ellipsis" unicode="&#x2026;" horiz-adv-x="772" 
d="M125 -7q-46 0 -77.5 30t-31.5 73q0 44 31.5 74.5t77.5 30.5q45 0 77 -30.5t32 -74.5q0 -43 -32 -73t-77 -30zM386 -7q-46 0 -77.5 30t-31.5 73q0 44 31.5 74.5t77.5 30.5q45 0 77 -30.5t32 -74.5q0 -43 -32 -73t-77 -30zM647 -7q-46 0 -78 30t-32 73q0 44 32 74.5
t78 30.5q45 0 77 -30.5t32 -74.5q0 -43 -32 -73t-77 -30z" />
    <glyph glyph-name="perthousand" unicode="&#x2030;" horiz-adv-x="1341" 
d="M216 429q45 0 45 86q0 87 -45 87q-44 0 -44 -87q0 -86 44 -86zM216 322q-83 0 -141 50.5t-58 144.5q0 93 58 142.5t141 49.5q84 0 142 -49.5t58 -142.5q0 -94 -58.5 -144.5t-141.5 -50.5zM143 -34l493 763h131l-493 -763h-131zM698 97q44 0 44 86q0 87 -44 87
q-45 0 -45 -87q0 -86 45 -86zM698 -9q-84 0 -142 50t-58 144q0 93 58.5 143t141.5 50t141 -50t58 -143q0 -94 -58 -144t-141 -50zM1125 97q44 0 44 86q0 87 -44 87t-44 -87q0 -86 44 -86zM1125 -9q-83 0 -141 50t-58 144q0 93 58 143t141 50t141 -50t58 -143q0 -94 -58 -144
t-141 -50z" />
    <glyph glyph-name="guilsinglleft" unicode="&#x2039;" horiz-adv-x="318" 
d="M131 40l-104 185v70l104 185h160v-42l-98 -176v-3l98 -177v-42h-160z" />
    <glyph glyph-name="guilsinglright" unicode="&#x203a;" horiz-adv-x="318" 
d="M187 480l104 -185v-70l-104 -185h-160v42l98 177v3l-98 176v42h160z" />
    <glyph glyph-name="fraction" unicode="&#x2044;" horiz-adv-x="229" 
d="M426 729l-493 -763h-130l493 763h130z" />
    <glyph glyph-name="Euro" unicode="&#x20ac;" horiz-adv-x="637" 
d="M429 229h-110q11 -42 34 -58.5t65 -16.5q66 0 112 42h87v-142q-85 -65 -224 -65q-121 0 -205 58.5t-111 181.5h-59v100h47v38h-47v100h59q28 125 115.5 184.5t219.5 59.5q118 0 202 -46v-155h-95q-39 35 -95 35q-82 0 -105 -78h149l-17 -100h-143v-38h137z" />
    <glyph glyph-name="trademark" unicode="&#x2122;" horiz-adv-x="741" 
d="M216 420h-113v196h-75v84h262v-84h-74v-196zM325 420v280h153l34 -123h2l34 123h156v-280h-112v167h-2l-48 -167h-74l-49 167h-2v-167h-92z" />
    <glyph glyph-name="onethird" unicode="&#x2153;" horiz-adv-x="861" 
d="M256 300h-166v256l-46 -23h-25v115l112 52h125v-400zM703 729l-493 -763h-130l493 763h130zM658 -7q-74 0 -139 27v96h59q27 -16 60 -16q46 0 46 29q0 27 -42 27h-43v88h39q45 0 45 28q0 26 -40 26q-25 0 -55 -15h-60v94q58 31 147 31q73 0 116 -27t43 -80
q0 -41 -19.5 -63t-61.5 -30v-3q90 -10 90 -94q0 -57 -47.5 -87.5t-137.5 -30.5z" />
    <glyph glyph-name="twothirds" unicode="&#x2154;" horiz-adv-x="926" 
d="M335 415v-115h-314v114l112 92q42 36 42 56q0 24 -31 24q-32 0 -51 -17h-67v105q63 33 147 33q171 0 171 -123q0 -42 -21.5 -70.5t-68.5 -63.5l-47 -35h128zM777 729l-493 -763h-130l493 763h130zM723 -7q-74 0 -139 27v96h59q27 -16 60 -16q46 0 46 29q0 27 -42 27h-43
v88h39q45 0 45 28q0 26 -40 26q-25 0 -55 -15h-60v94q58 31 147 31q73 0 116 -27t43 -80q0 -41 -19.5 -63t-61.5 -30v-3q90 -10 90 -94q0 -57 -47.5 -87.5t-137.5 -30.5z" />
    <glyph glyph-name="oneeighth" unicode="&#x215b;" horiz-adv-x="885" 
d="M256 300h-166v256l-46 -23h-25v115l112 52h125v-400zM706 729l-493 -763h-130l493 763h130zM680 -5q-95 0 -143.5 32t-48.5 88q0 78 80 98v2q-65 16 -65 84q0 50 48.5 79.5t128.5 29.5q81 0 129 -29.5t48 -79.5q0 -68 -65 -84v-2q80 -20 80 -98q0 -56 -48.5 -88
t-143.5 -32zM680 88q38 0 38 43q0 45 -38 45q-39 0 -39 -45q0 -43 39 -43zM680 246q34 0 34 35q0 36 -34 36t-34 -36q0 -35 34 -35z" />
    <glyph glyph-name="threeeighths" unicode="&#x215c;" horiz-adv-x="910" 
d="M160 292q-77 0 -139 28v96h59q27 -16 60 -16q46 0 46 28t-42 28h-43v87h39q45 0 45 28q0 26 -40 26q-29 0 -55 -15h-60v94q58 31 147 31q73 0 116 -27t43 -80q0 -41 -19.5 -62.5t-61.5 -29.5v-4q90 -10 90 -93q0 -57 -47.5 -88t-137.5 -31zM744 729l-493 -763h-130
l493 763h130zM705 -5q-95 0 -143.5 32t-48.5 88q0 78 80 98v2q-65 16 -65 84q0 50 48.5 79.5t128.5 29.5q81 0 129 -29.5t48 -79.5q0 -68 -65 -84v-2q80 -20 80 -98q0 -56 -48.5 -88t-143.5 -32zM705 88q38 0 38 43q0 45 -38 45q-39 0 -39 -45q0 -43 39 -43zM705 246
q34 0 34 35q0 36 -34 36t-34 -36q0 -35 34 -35z" />
    <glyph glyph-name="fiveeighths" unicode="&#x215d;" horiz-adv-x="917" 
d="M347 431q0 -65 -51 -102t-140 -37q-79 0 -135 28v97h60q30 -17 57 -17q50 0 50 34q0 29 -34 29q-24 0 -37 -15h-85v252h292v-111h-181v-55h2q25 21 82 21q54 0 87 -31t33 -93zM745 729l-493 -763h-130l493 763h130zM711 -5q-95 0 -143.5 32t-48.5 88q0 78 80 98v2
q-65 16 -65 84q0 50 48.5 79.5t128.5 29.5q81 0 129 -29.5t48 -79.5q0 -68 -65 -84v-2q80 -20 80 -98q0 -56 -48.5 -88t-143.5 -32zM711 88q38 0 38 43q0 45 -38 45q-39 0 -39 -45q0 -43 39 -43zM711 246q34 0 34 35q0 36 -34 36t-34 -36q0 -35 34 -35z" />
    <glyph glyph-name="seveneighths" unicode="&#x215e;" horiz-adv-x="906" 
d="M715 729l-493 -763h-130l493 763h130zM700 -5q-95 0 -143.5 32t-48.5 88q0 78 80 98v2q-65 16 -65 84q0 50 48.5 79.5t128.5 29.5q81 0 129 -29.5t48 -79.5q0 -68 -65 -84v-2q80 -20 80 -98q0 -56 -48.5 -88t-143.5 -32zM700 88q38 0 38 43q0 45 -38 45q-39 0 -39 -45
q0 -43 39 -43zM700 246q34 0 34 35q0 36 -34 36t-34 -36q0 -35 34 -35zM59 300v36l132 238v2h-169v124h315v-128l-110 -272h-168z" />
    <glyph glyph-name="minus" unicode="&#x2212;" horiz-adv-x="543" 
d="M520 261h-497v169h497v-169z" />
    <glyph glyph-name="fi" unicode="&#xfb01;" horiz-adv-x="669" 
d="M10 392v136h51v23q0 87 48.5 125t144.5 38q57 0 104 -15v-117h-21q-31 0 -42.5 -8t-11.5 -32v-14h75v-136h-75v-392h-222v392h-51zM628 0h-222v528h147q47 0 61 -19.5t14 -85.5v-423zM517 550q-49 0 -79.5 25.5t-30.5 67.5t30.5 68t79.5 26t79.5 -26t30.5 -68
t-30.5 -67.5t-79.5 -25.5z" />
    <glyph glyph-name="fl" unicode="&#xfb02;" horiz-adv-x="672" 
d="M10 392v136h51v23q0 87 48.5 125t144.5 38q57 0 104 -15v-117h-21q-31 0 -42.5 -8t-11.5 -32v-14h75v-136h-75v-392h-222v392h-51zM630 0h-223v700h147q48 0 62 -20.5t14 -89.5v-590z" />
    <glyph glyph-name="space_uni0326" 
d="M119 -236v66q49 4 49 21q0 7 -22 19q-30 15 -30 49q0 28 23.5 45t61.5 17q40 0 64.5 -22.5t24.5 -65.5q0 -62 -41.5 -93.5t-129.5 -35.5z" />
    <glyph glyph-name="zero.numerator" horiz-adv-x="450" 
d="M226 292q-91 0 -149 55t-58 153q0 96 60 151.5t147 55.5t146 -55t59 -152q0 -98 -57.5 -153t-147.5 -55zM226 399q21 0 31.5 21.5t10.5 76.5q0 53 -10 73.5t-32 20.5q-43 0 -43 -94q0 -98 43 -98z" />
    <glyph glyph-name="one.numerator" horiz-adv-x="296" 
d="M254 300h-166v256l-46 -23h-25v115l112 52h125v-400z" />
    <glyph glyph-name="two.numerator" horiz-adv-x="365" 
d="M333 415v-115h-314v114l112 92q42 36 42 56q0 24 -31 24q-32 0 -51 -17h-67v105q63 33 147 33q171 0 171 -123q0 -42 -21.5 -70.5t-68.5 -63.5l-47 -35h128z" />
    <glyph glyph-name="three.numerator" horiz-adv-x="361" 
d="M156 292q-77 0 -139 28v96h59q27 -16 60 -16q46 0 46 28t-42 28h-43v87h39q45 0 45 28q0 26 -40 26q-29 0 -55 -15h-60v94q58 31 147 31q73 0 116 -27t43 -80q0 -41 -19.5 -62.5t-61.5 -29.5v-4q90 -10 90 -93q0 -57 -47.5 -88t-137.5 -31z" />
    <glyph glyph-name="four.numerator" horiz-adv-x="406" 
d="M349 300h-163v78h-167v106l174 216h156v-228h38v-94h-38v-78zM124 472v-2h71v89h-2z" />
    <glyph glyph-name="five.numerator" horiz-adv-x="364" 
d="M345 431q0 -65 -51 -102t-140 -37q-79 0 -135 28v97h60q30 -17 57 -17q50 0 50 34q0 29 -34 29q-24 0 -37 -15h-85v252h292v-111h-181v-55h2q25 21 82 21q54 0 87 -31t33 -93z" />
    <glyph glyph-name="six.numerator" horiz-adv-x="414" 
d="M213 292q-91 0 -142.5 48.5t-51.5 150.5t60 159t168 57q79 0 125 -22v-103h-59q-22 11 -53 11q-68 0 -79 -65q37 23 93 23q55 0 89 -28t34 -86q0 -69 -49.5 -107t-134.5 -38zM210 467q-15 0 -31 -6q1 -42 9 -57.5t24 -15.5q31 0 31 41q0 38 -33 38z" />
    <glyph glyph-name="seven.numerator" horiz-adv-x="357" 
d="M57 300v36l132 238v2h-169v124h315v-128l-110 -272h-168z" />
    <glyph glyph-name="eight.numerator" horiz-adv-x="416" 
d="M208 294q-95 0 -143.5 32t-48.5 89q0 77 80 97v2q-65 17 -65 85q0 50 48.5 79t128.5 29q81 0 129 -29t48 -79q0 -68 -65 -85v-2q80 -20 80 -97q0 -57 -48.5 -89t-143.5 -32zM208 387q38 0 38 44t-38 44q-19 0 -29 -12t-10 -32q0 -44 39 -44zM208 545q34 0 34 35
q0 36 -34 36t-34 -36q0 -35 34 -35z" />
    <glyph glyph-name="nine.numerator" horiz-adv-x="412" 
d="M199 707q92 0 143.5 -48.5t51.5 -150.5q0 -216 -232 -216q-81 0 -125 22v102h58q22 -11 55 -11q39 0 57.5 14t23.5 50q-37 -23 -91 -23q-56 0 -90 28.5t-34 86.5q0 68 50 107t133 39zM203 530q17 0 30 5q-1 44 -8.5 59.5t-23.5 15.5q-32 0 -32 -41q0 -39 34 -39z" />
    <glyph glyph-name="zero.denominator" horiz-adv-x="450" 
d="M226 -7q-91 0 -149 54.5t-58 152.5q0 97 60 152.5t147 55.5t146 -55.5t59 -152.5q0 -98 -57.5 -152.5t-147.5 -54.5zM226 100q21 0 31.5 21.5t10.5 75.5q0 53 -10.5 74t-31.5 21q-43 0 -43 -95q0 -97 43 -97z" />
    <glyph glyph-name="one.denominator" horiz-adv-x="296" 
d="M254 1h-166v255l-46 -22h-25v115l112 52h125v-400z" />
    <glyph glyph-name="two.denominator" horiz-adv-x="365" 
d="M333 116v-115h-314v114l112 92q42 36 42 55q0 25 -31 25q-33 0 -51 -18h-67v106q63 33 147 33q171 0 171 -123q0 -42 -21.5 -71t-68.5 -63l-47 -35h128z" />
    <glyph glyph-name="three.denominator" horiz-adv-x="361" 
d="M156 -7q-74 0 -139 27v96h59q27 -16 60 -16q46 0 46 29q0 27 -42 27h-43v88h39q45 0 45 28q0 26 -40 26q-25 0 -55 -15h-60v94q58 31 147 31q73 0 116 -27t43 -80q0 -41 -19.5 -63t-61.5 -30v-3q90 -10 90 -94q0 -57 -47.5 -87.5t-137.5 -30.5z" />
    <glyph glyph-name="four.denominator" horiz-adv-x="406" 
d="M349 1h-163v77h-167v107l174 216h156v-228h38v-95h-38v-77zM124 173v-2h71v89h-2z" />
    <glyph glyph-name="five.denominator" horiz-adv-x="364" 
d="M345 131q0 -64 -51 -101t-140 -37q-79 0 -135 28v97h60q28 -18 57 -18q50 0 50 35q0 28 -34 28q-25 0 -37 -14h-85v252h292v-111h-181v-56h2q24 22 82 22q54 0 87 -31.5t33 -93.5z" />
    <glyph glyph-name="six.denominator" horiz-adv-x="414" 
d="M213 -7q-91 0 -142.5 48.5t-51.5 150.5t60 159t168 57q79 0 125 -22v-104h-59q-22 11 -53 11q-67 0 -78 -65q34 24 92 24q55 0 89 -28.5t34 -86.5q0 -68 -50 -106t-134 -38zM210 168q-15 0 -31 -6q1 -43 9 -58t24 -15q31 0 31 40q0 39 -33 39z" />
    <glyph glyph-name="seven.denominator" horiz-adv-x="357" 
d="M57 1v35l132 239v2h-169v124h315v-128l-110 -272h-168z" />
    <glyph glyph-name="eight.denominator" horiz-adv-x="416" 
d="M208 -5q-95 0 -143.5 32t-48.5 88q0 78 80 98v2q-65 16 -65 84q0 50 48.5 79.5t128.5 29.5q81 0 129 -29.5t48 -79.5q0 -68 -65 -84v-2q80 -20 80 -98q0 -56 -48.5 -88t-143.5 -32zM208 88q38 0 38 43q0 45 -38 45q-39 0 -39 -45q0 -43 39 -43zM208 246q34 0 34 35
q0 36 -34 36t-34 -36q0 -35 34 -35z" />
    <glyph glyph-name="nine.denominator" horiz-adv-x="412" 
d="M199 408q195 0 195 -200q0 -215 -232 -215q-81 0 -125 22v102h58q22 -11 55 -11q39 0 57.5 14t23.5 50q-36 -24 -91 -24t-89.5 29t-34.5 87q0 68 50 107t133 39zM203 231q17 0 30 5q-1 44 -8.5 59.5t-23.5 15.5q-32 0 -32 -42q0 -38 34 -38z" />
    <glyph glyph-name="Q.alt" horiz-adv-x="761" 
d="M585 -117q-59 72 -230 104q-139 29 -214 89q-118 90 -118 277q0 165 101.5 261.5t255.5 96.5q155 0 256.5 -97t101.5 -265q0 -202 -172 -260v-3q76 -12 131.5 -47t78.5 -74v-82h-191zM380 146q117 0 117 201q0 197 -117 197t-117 -197q0 -201 117 -201z" />
    <glyph glyph-name="Q.alt1" horiz-adv-x="761" 
d="M380 -11q-158 0 -257.5 95t-99.5 264t101.5 266t255.5 97q155 0 256.5 -97t101.5 -266q0 -120 -70 -214l81 -79v-55h-177l-29 28q-78 -39 -163 -39zM380 141q26 0 43 4l-62 60v49h132q4 33 4 93q0 197 -117 197t-117 -197q0 -206 117 -206z" />
    <glyph glyph-name="f.short" horiz-adv-x="363" 
d="M10 392v136h51v23q0 87 48.5 125t144.5 38q57 0 104 -15v-117h-21q-31 0 -42.5 -8t-11.5 -32v-14h75v-136h-75v-392h-222v392h-51z" />
    <glyph glyph-name="f_f.short" horiz-adv-x="695" 
d="M283 392v-392h-222v392h-51v136h51v17q0 86 48.5 125t144.5 39q55 0 102 -15v-118h-19q-31 0 -42.5 -7.5t-11.5 -28.5v-12h110v23q0 87 48.5 125t144.5 38q57 0 104 -15v-117h-21q-31 0 -42.5 -8t-11.5 -32v-14h75v-136h-75v-392h-222v392h-110z" />
    <glyph glyph-name="less.cap" horiz-adv-x="468" 
d="M230 0l-204 302v96l204 302h209v-50l-192 -299v-3l192 -298v-50h-209z" />
    <glyph glyph-name="greater.cap" horiz-adv-x="468" 
d="M29 0v50l192 299v3l-192 298v50h210l203 -302v-96l-203 -302h-210z" />
    <glyph glyph-name="questiondown.cap" horiz-adv-x="486" 
d="M377 466q13 -61 -1 -99.5t-56 -76.5q-5 -5 -18.5 -16.5t-18.5 -16t-14 -14t-13 -15.5t-7 -14.5t-3 -16.5q0 -43 57 -43q46 0 86 32h84v-144q-93 -53 -209 -53q-121 0 -183 51t-62 143q0 61 31 101t90 77q43 30 60 51t14 54h163zM292 707q46 0 78 -30t32 -73
q0 -44 -32 -74.5t-78 -30.5q-45 0 -77 30.5t-32 74.5q0 43 32 73t77 30z" />
    <glyph glyph-name="exclamdown.cap" horiz-adv-x="324" 
d="M235 466l45 -336v-130h-236v130l46 336h145zM162 707q46 0 77.5 -30t31.5 -73q0 -44 -31.5 -74.5t-77.5 -30.5q-45 0 -77 30.5t-32 74.5q0 43 32 73t77 30z" />
    <glyph glyph-name="bullet.cap" horiz-adv-x="382" 
d="M191 169q-70 0 -116.5 43t-46.5 115t46.5 115.5t116.5 43.5q69 0 115.5 -43.5t46.5 -115.5t-46 -115t-116 -43z" />
    <glyph glyph-name="hyphen.cap" horiz-adv-x="325" 
d="M30 241v160h265v-160h-265z" />
    <glyph glyph-name="endash.cap" horiz-adv-x="443" 
d="M31 243v156h381v-156h-381z" />
    <glyph glyph-name="emdash.cap" horiz-adv-x="733" 
d="M31 242v158h671v-158h-671z" />
    <glyph glyph-name="dagger.cap" horiz-adv-x="494" 
d="M177 0l-39 246v70l48 100l-107 -42h-59v192h59l107 -45l-41 93v86h204v-86l-41 -91l107 43h60v-192h-60l-108 43l49 -99v-70l-38 -248h-141z" />
    <glyph glyph-name="daggerdbl.cap" horiz-adv-x="494" 
d="M136 370l52 72l-109 -44h-59v187h59l108 -41l-42 83v73h204v-73l-41 -81l107 39h60v-187h-60l-109 45l53 -71v-42l-53 -72l109 44h60v-187h-60l-107 41l41 -83v-73h-204v73l42 81l-108 -39h-59v187h59l110 -45l-53 71v42z" />
    <glyph glyph-name="quoteleft.cap" horiz-adv-x="539" 
d="M286 -10q-113 0 -187.5 74t-74.5 216q0 190 121.5 300t359.5 121v-147q-183 -20 -183 -110q0 -22 15.5 -35t49.5 -29.5t55 -33.5q73 -56 73 -154q0 -90 -64.5 -146t-164.5 -56z" />
    <glyph glyph-name="quoteright.cap" horiz-adv-x="539" 
d="M253 711q112 0 187 -74t75 -216q0 -190 -121.5 -300t-360.5 -122v148q183 20 183 109q0 22 -15.5 35.5t-49 30.5t-54.5 33q-73 55 -73 154q0 90 64.5 146t164.5 56z" />
    <glyph glyph-name="quotedblleft.cap" horiz-adv-x="1068" 
d="M286 -10q-113 0 -187.5 74t-74.5 216q0 190 121.5 300t359.5 121v-147q-183 -20 -183 -110q0 -22 15.5 -35t49.5 -29.5t55 -33.5q73 -56 73 -154q0 -90 -64.5 -146t-164.5 -56zM815 -10q-112 0 -187 74t-75 216q0 190 121.5 300t360.5 121v-147q-183 -20 -183 -110
q0 -22 15.5 -35t49 -30t54.5 -33q74 -56 74 -154q0 -90 -64.5 -146t-165.5 -56z" />
    <glyph glyph-name="quotedblright.cap" horiz-adv-x="1068" 
d="M782 711q113 0 188 -74t75 -216q0 -190 -122 -300t-360 -122v148q183 20 183 109q0 22 -15.5 35.5t-49.5 30.5t-55 33q-73 56 -73 154q0 90 64.5 146t164.5 56zM253 711q112 0 187 -74t75 -216q0 -190 -121.5 -300t-360.5 -122v148q183 20 183 109q0 22 -15.5 35.5
t-49 30.5t-54.5 33q-73 55 -73 154q0 90 64.5 146t164.5 56z" />
    <glyph glyph-name="guillemotleft.cap" horiz-adv-x="793" 
d="M763 700v-50l-191 -299v-3l191 -298v-50h-209l-204 302v96l204 302h209zM439 700v-50l-192 -299v-3l192 -298v-50h-209l-204 302v96l204 302h209z" />
    <glyph glyph-name="guillemotright.cap" horiz-adv-x="793" 
d="M29 0v50l192 299v3l-192 298v50h210l203 -302v-96l-203 -302h-210zM354 0v50l191 299v3l-191 298v50h209l204 -302v-96l-204 -302h-209z" />
    <glyph glyph-name="at.cap" horiz-adv-x="863" 
d="M426 -27q-81 0 -151 21t-127 62t-89.5 110t-32.5 158q0 93 39 171.5t102 127t137.5 75.5t149.5 27q165 0 274 -82.5t109 -226.5q0 -128 -75 -193t-186 -65q-103 0 -130 61q-52 -58 -121 -58q-54 0 -86.5 36t-32.5 101q0 94 55.5 162.5t149.5 68.5q58 0 95 -42
q26 36 68 36h94l-49 -221q-12 -45 18 -45q36 0 64.5 41t28.5 118q0 105 -72 162t-204 57q-127 0 -221 -83t-94 -228q0 -131 79 -196t209 -65q139 0 241 62h36v-85q-106 -67 -278 -67zM408 277q18 0 34 13l26 119q-12 4 -23 4q-30 0 -48.5 -30.5t-18.5 -70.5q0 -35 30 -35z
" />
    <glyph glyph-name="paragraph.cap" horiz-adv-x="590" 
d="M231 0v297h-2q-98 0 -154.5 49t-56.5 152q0 202 254 202h269v-700h-128v571h-55v-571h-127z" />
    <glyph glyph-name="grave.cap" 
d="M273 725h-133l-105 101v43h204l34 -109v-35z" />
    <glyph glyph-name="dieresis.cap" 
d="M89 722q-43 0 -69.5 24t-26.5 64t26.5 63.5t69.5 23.5t69.5 -23.5t26.5 -63.5t-26.5 -64t-69.5 -24zM309 722q-43 0 -69.5 24t-26.5 64t26.5 63.5t69.5 23.5t69.5 -23.5t26.5 -63.5t-26.5 -64t-69.5 -24z" />
    <glyph glyph-name="macron.cap" 
d="M343 854v-123h-288v123h288z" />
    <glyph glyph-name="acute.cap" 
d="M126 725v35l33 109h205v-43l-105 -101h-133z" />
    <glyph glyph-name="circumflex.cap" 
d="M34 725v39l92 106h147l91 -106v-39h-119l-49 34l-48 -34h-114z" />
    <glyph glyph-name="caron.cap" 
d="M364 870v-39l-92 -106h-148l-90 106v39h119l48 -34l48 34h115z" />
    <glyph glyph-name="breve.cap" 
d="M199 724q-66 0 -106 28t-51 78v43h116q6 -30 41 -30t41 30h116v-43q-11 -49 -51.5 -77.5t-105.5 -28.5z" />
    <glyph glyph-name="dotaccent.cap" 
d="M199 722q-49 0 -79.5 25.5t-30.5 68.5q0 42 30.5 68t79.5 26t79.5 -26t30.5 -68q0 -43 -30.5 -68.5t-79.5 -25.5z" />
    <glyph glyph-name="ring.cap" 
d="M199 723q-45 0 -77 28t-32 74q0 47 32 75.5t77 28.5t77 -28.5t32 -75.5q0 -46 -32 -74t-77 -28zM199 793q14 0 22.5 9t8.5 23q0 15 -8.5 24t-22.5 9t-22 -9t-8 -24q0 -14 8.5 -23t21.5 -9z" />
    <glyph glyph-name="tilde.cap" 
d="M17 724v43q9 54 39 84t77 30q27 0 65.5 -11t46.5 -11q22 0 28 22h102v-44q-8 -53 -37.5 -83t-74.5 -30q-30 0 -68.5 11t-46.5 11q-22 0 -28 -22h-103z" />
    <glyph glyph-name="hungarumlaut.cap" 
d="M39 725v29l32 115h168v-42l-81 -102h-119zM240 725v29l31 115h168v-42l-81 -102h-118z" />
    </font>
</defs>
</svg>
