<?xml version="1.0" standalone="no"?>
<!DOCTYPE svg PUBLIC "-//W3C//DTD SVG 1.1//EN" "http://www.w3.org/Graphics/SVG/1.1/DTD/svg11.dtd" >
<svg xmlns="http://www.w3.org/2000/svg" xmlns:xlink="http://www.w3.org/1999/xlink" version="1.1">
<metadata>
Created by FontForge 20161013 at Sun Jan 25 18:23:50 2009
 By ,,,
Published by Die Gestalten Verlag GmbH &#38; Co. KG, 2008
Copyright (c) by Binnenland and re-p.org, 2008. All rights reserved. This software may not be reproduced, used, displayed, modified, disclosed or transferred without the express written approval of (Binnenland). 
</metadata>
<defs>
<font id="BlenderPro-Medium" horiz-adv-x="514" >
  <font-face 
    font-family="Blender Pro Medium"
    font-weight="500"
    font-stretch="normal"
    units-per-em="1000"
    panose-1="2 0 6 6 4 0 0 2 0 4"
    ascent="800"
    descent="-200"
    x-height="431"
    cap-height="600"
    bbox="-82 -175 967 834"
    underline-thickness="20"
    underline-position="-173"
    unicode-range="U+000D-FB02"
  />
<missing-glyph horiz-adv-x="1000" 
 />
    <glyph glyph-name=".notdef" horiz-adv-x="1000" 
 />
    <glyph glyph-name=".null" horiz-adv-x="0" 
 />
    <glyph glyph-name="nonmarkingreturn" horiz-adv-x="333" 
 />
    <glyph glyph-name="CR" unicode="&#xd;" horiz-adv-x="500" 
 />
    <glyph glyph-name="space" unicode=" " horiz-adv-x="232" 
 />
    <glyph glyph-name="exclam" unicode="!" horiz-adv-x="242" 
d="M127 165h-78v435h78v-435zM138 0h-102v98h102v-98z" />
    <glyph glyph-name="quotedbl" unicode="&#x22;" horiz-adv-x="400" 
d="M299 521l-7 -59h-77l8 72v109h76v-122zM143 521l-7 -59h-77l8 72v109h76v-122z" />
    <glyph glyph-name="numbersign" unicode="#" horiz-adv-x="534" 
d="M453 410l-13 -73h-89l-16 -85h89l-13 -72h-89l-19 -101h-76l19 101h-72l-19 -101h-76l19 101h-89l13 72h89l16 85h-89l13 73h89l18 97h76l-18 -97h72l18 97h76l-18 -97h89zM275 337h-72l-16 -85h72z" />
    <glyph glyph-name="dollar" unicode="$" horiz-adv-x="570" 
d="M483 135q0 -33 -14 -53q-9 -14 -33.5 -37.5t-39.5 -32.5q-30 -17 -57 -17h-56v-89h-57v89h-54q-63 0 -124 81q-8 11 -27 52l79 21l9 -18q9 -16 26.5 -32.5t30.5 -23.5q4 -2 9 -2h51v197l-120 31q-33 9 -52 38t-19 64v61q0 33 14 53q9 14 33.5 38t39.5 33q30 17 57 17h47
v79h57v-79h43q62 0 123 -81q11 -13 28 -51l-80 -23l-10 20q-8 15 -26 32t-31 24q-3 1 -7 1h-40v-190l127 -34q33 -9 53 -37.5t20 -62.5v-68zM378 231l-95 24v-182h52q4 0 8 2q15 7 36.5 28t21.5 33v61q0 12 -7 22t-16 12zM117 407q0 -11 6.5 -20.5t15.5 -11.5l87 -23v175
h-42q-3 0 -9 -2q-13 -6 -35.5 -28.5t-22.5 -32.5v-57z" />
    <glyph glyph-name="percent" unicode="%" horiz-adv-x="723" 
d="M529 600l-317 -600h-84l323 600h78zM651 95q0 -29 -12 -46q-16 -22 -38 -38t-55 -16h-60q-33 0 -55 16q-24 18 -39 38q-12 16 -12 46v113q0 28 12 45q18 23 39 39q22 16 55 16h60q33 0 55 -16q18 -14 38 -39q12 -17 12 -45v-113zM580 90q2 4 2 12v99q0 8 -1 11
q-9 17 -30 28q-4 2 -8 2h-53q-4 0 -8 -2q-22 -12 -31 -30q-2 -4 -2 -9v-99q0 -5 2 -9q11 -21 30 -30q6 -3 9 -3h53q5 0 9 3q21 13 28 27zM282 396q0 -29 -12 -46q-16 -22 -38 -38t-55 -16h-60q-33 0 -55 16q-24 18 -39 38q-12 16 -12 46v113q0 28 12 45q18 23 39 39
q22 16 55 16h60q33 0 55 -16q18 -14 38 -39q12 -17 12 -45v-113zM211 391q2 4 2 12v99q0 8 -1 11q-9 17 -30 28q-4 2 -8 2h-53q-4 0 -8 -2q-22 -12 -31 -30q-2 -4 -2 -9v-99q0 -5 2 -9q11 -21 30 -30q6 -3 9 -3h53q4 0 9 3q21 13 28 27z" />
    <glyph glyph-name="ampersand" unicode="&#x26;" horiz-adv-x="579" 
d="M494 199h-30v-73q0 -31 -17 -56q-6 -9 -24.5 -27t-28.5 -26q-29 -21 -68 -21h-151q-37 0 -66 21q-11 8 -29 26t-24 27q-17 25 -17 56v87q0 20 7.5 37t15.5 26.5t26 26.5q-26 24 -37.5 43t-11.5 48v79q0 32 17 58q6 9 24 26.5t29 25.5q30 22 66 22h104q60 0 123 -82
q16 -23 29 -52l-80 -21l-10 20q-8 15 -25 31.5t-30 23.5q-6 2 -10 2h-100q-12 0 -29.5 -16t-23.5 -29q-2 -4 -2 -11v-75q0 -7 2 -11q6 -12 23.5 -28t29.5 -16h109v-77h-109q-12 0 -29.5 -15.5t-23.5 -27.5q-2 -4 -2 -10v-83q0 -6 2 -10q6 -12 23.5 -28t29.5 -16h150
q13 0 30.5 15.5t23.5 28.5q2 4 2 11v150h112v-80z" />
    <glyph glyph-name="quotesingle" unicode="'" horiz-adv-x="237" 
d="M142 521l-7 -59h-77l8 72v108h76v-121z" />
    <glyph glyph-name="parenleft" unicode="(" horiz-adv-x="349" 
d="M233 6l-55 -57q-1 1 -10 9.5t-24 22.5t-28 27q-61 59 -75 79q-15 22 -15 53v319q0 31 15 53q21 30 72 78q16 16 38.5 36.5t26.5 24.5l54 -57q-1 -1 -11 -10t-25.5 -23.5t-29.5 -27.5q-62 -58 -62 -76v-315q0 -14 62 -74q50 -48 67 -62z" />
    <glyph glyph-name="parenright" unicode=")" horiz-adv-x="352" 
d="M252 140q0 -31 -15 -53q-18 -26 -74 -79q-13 -12 -28 -26t-24.5 -22.5t-11.5 -10.5l-54 57q17 14 67 62q62 60 62 74v315q0 16 -61 75q-14 13 -29.5 27.5t-26 24t-11.5 10.5l53 57q48 -44 66 -61q54 -52 72 -78q15 -22 15 -53v-319z" />
    <glyph glyph-name="asterisk" unicode="*" horiz-adv-x="463" 
d="M231 644l-4 -124l118 41l24 -71l-119 -36l75 -98l-60 -45l-71 102l-70 -102l-61 44l75 98l-119 36l23 71l116 -41l-2 125h75z" />
    <glyph glyph-name="plus" unicode="+" 
d="M418 213h-149v-140h-78v140h-149v73h149v139h78v-139h149v-73z" />
    <glyph glyph-name="comma" unicode="," horiz-adv-x="268" 
d="M163 60l-68 -147h-88l80 171z" />
    <glyph glyph-name="hyphen" unicode="-" horiz-adv-x="334" 
d="M254 212h-228v73h228v-73z" />
    <glyph glyph-name="period" unicode="." horiz-adv-x="271" 
d="M154 0h-102v103h102v-103z" />
    <glyph glyph-name="slash" unicode="/" horiz-adv-x="432" 
d="M387 600l-326 -600h-88l327 600h87z" />
    <glyph glyph-name="zero" unicode="0" 
d="M432 126q0 -31 -17 -56q-6 -9 -24 -27t-29 -26q-29 -21 -67 -21h-135q-37 0 -66 21q-10 7 -28.5 25.5t-24.5 27.5q-17 25 -17 56v348q0 31 17 57q6 9 24.5 27t28.5 26q29 21 66 21h135q38 0 67 -21q11 -8 29 -26t24 -27q17 -26 17 -57v-348zM350 128v344q0 7 -2 11
q-6 13 -23.5 28.5t-30.5 15.5h-133q-13 0 -30.5 -15.5t-23.5 -28.5q-1 -2 -1 -11v-344q0 -8 1 -10q6 -13 23.5 -28.5t30.5 -15.5h133q13 0 30.5 15.5t23.5 28.5q2 4 2 10z" />
    <glyph glyph-name="one" unicode="1" 
d="M415 0h-346v73h136v449h-117v78h199v-527h128v-73z" />
    <glyph glyph-name="two" unicode="2" 
d="M423 406q0 -33 -20 -59.5t-50 -41.5l-209 -108q-25 -13 -25 -34v-85h296v-78h-378v167q0 64 71 100l211 108q22 12 22 34v63q0 7 -2 11q-6 13 -23.5 28.5t-30.5 15.5h-109q-6 0 -12 -3q-13 -7 -29 -23t-24 -31l-10 -20l-79 23q14 33 27 51q61 81 124 81h113q38 0 67 -21
q11 -8 29 -26t24 -27q17 -26 17 -57v-68z" />
    <glyph glyph-name="three" unicode="3" 
d="M420 124q0 -31 -17 -57q-6 -9 -24.5 -27t-28.5 -26q-29 -21 -66 -21h-114q-63 0 -123 80q-8 10 -28 53l80 21q10 -18 13 -23q9 -14 25.5 -30.5t27.5 -21.5q4 -1 8 -1h110q13 0 28.5 14.5t23.5 27.5q3 5 3 12v85q0 4 -2 10q-6 13 -22.5 28.5t-29.5 15.5h-107v77h106
q7 0 11 2q21 11 41 39q3 4 3 13v77q0 7 -2 11q-5 11 -17.5 23.5t-22.5 18.5q-3 2 -13 2h-110l-8 -1q-13 -7 -30.5 -23.5t-25.5 -31.5q-3 -4 -10 -20l-80 21q19 40 28 52q33 45 66 65q26 16 57 16h114q37 0 66 -21q10 -7 28.5 -26t24.5 -28q17 -26 17 -56v-81q0 -20 -7.5 -37
t-15.5 -26.5t-26 -26.5q17 -17 26 -27t16 -27t7 -37v-88z" />
    <glyph glyph-name="four" unicode="4" 
d="M449 130h-66v-130h-82v130h-281v69l257 401h106v-392h66v-78zM301 208v287l-182 -287h182z" />
    <glyph glyph-name="five" unicode="5" 
d="M427 126q0 -31 -17 -57q-6 -9 -24 -27.5t-29 -25.5q-29 -21 -67 -21h-116q-63 0 -124 80q-8 10 -28 53l80 21l10 -20q9 -16 24.5 -31.5t27.5 -21.5q5 -3 13 -3h112q8 0 12 2q11 5 24 18t18 24q2 4 2 10v109q0 9 -2 11q-12 21 -42 42q-3 2 -12 2h-234v309h341v-78h-259
v-154h153q38 0 67 -21q11 -8 29 -25.5t24 -26.5q17 -26 17 -57v-112z" />
    <glyph glyph-name="six" unicode="6" 
d="M428 474l-80 -21l-9 18q-16 31 -54 54q-3 2 -11 2h-109q-8 0 -11 -2q-10 -6 -23 -19t-19 -23q-2 -2 -2 -11v-126q35 32 75 32h104q38 0 66 -20q11 -8 29 -25.5t24 -26.5q17 -26 17 -57v-124q0 -31 -17 -57q-6 -9 -24 -27t-29 -26q-29 -21 -66 -21h-125q-37 0 -66 21
q-10 8 -28.5 26t-24.5 27q-17 26 -17 57v349q0 31 17 57q6 9 24.5 27t28.5 26q29 21 66 21h114q31 0 57 -16q33 -20 66 -65q17 -21 27 -50zM343 126v122q0 6 -2 10q-7 14 -23.5 29.5t-29.5 15.5h-100q-6 0 -10 -2q-54 -27 -68 -57v-118q0 -6 2 -10q6 -12 23.5 -28t29.5 -16
h123q13 0 30 15.5t23 28.5q2 4 2 10z" />
    <glyph glyph-name="seven" unicode="7" 
d="M420 533l-262 -533h-90l259 522h-305v78h398v-67z" />
    <glyph glyph-name="eight" unicode="8" 
d="M423 125q0 -31 -17 -57q-6 -9 -24 -27t-29 -26q-29 -21 -66 -21h-125q-37 0 -66 21q-10 8 -28.5 26t-24.5 27q-17 26 -17 57v87q0 29 11.5 47.5t37.5 43.5q-17 17 -26 27t-16 27t-7 37v80q0 31 17 57q6 9 24.5 27t28.5 26q29 21 66 21h125q37 0 66 -21q11 -8 29 -26
t24 -27q17 -26 17 -57v-80q0 -29 -11.5 -47.5t-37.5 -43.5q17 -17 26 -27t16 -27t7 -37v-87zM341 396v76q0 9 -2 11q-6 13 -23.5 28.5t-29.5 15.5h-123q-13 0 -29.5 -15t-23.5 -29q-2 -2 -2 -11v-76q0 -9 2 -11q6 -11 22 -27t25 -17h129q12 0 29.5 16t23.5 28q2 2 2 11z
M341 126v85q0 7 -2 9q-6 12 -23.5 28t-29.5 16h-123q-13 0 -29 -15t-24 -29q-2 -2 -2 -9v-85q0 -8 2 -10q8 -14 24 -29t29 -15h123q12 0 29.5 16t23.5 28q2 2 2 10z" />
    <glyph glyph-name="nine" unicode="9" 
d="M23 125l80 21l9 -18q16 -32 54 -54q3 -2 11 -2h109q8 0 11 2q11 6 23.5 19t18.5 23q2 2 2 11v126q-35 -32 -75 -32h-104q-38 0 -66 20q-11 8 -29 25.5t-24 26.5q-17 26 -17 57v124q0 31 17 57q6 9 24.5 27t28.5 26q29 21 66 21h125q37 0 66 -21q11 -8 29 -26t24 -27
q17 -26 17 -57v-349q0 -31 -17 -57q-6 -9 -24 -27t-29 -26q-29 -21 -66 -21h-114q-31 0 -57 16q-33 20 -66 65q-17 21 -27 50zM108 473v-122q0 -6 2 -10q7 -14 23.5 -29.5t29.5 -15.5h100q6 0 10 2q54 27 68 57v118q0 6 -2 10q-6 12 -23.5 28t-29.5 16h-123q-13 0 -30 -15.5
t-23 -28.5q-2 -4 -2 -10z" />
    <glyph glyph-name="colon" unicode=":" horiz-adv-x="271" 
d="M154 268h-102v106h102v-106zM154 0h-102v106h102v-106z" />
    <glyph glyph-name="semicolon" unicode=";" horiz-adv-x="268" 
d="M154 268h-102v106h102v-106zM163 60l-68 -147h-88l80 171z" />
    <glyph glyph-name="less" unicode="&#x3c;" horiz-adv-x="727" 
d="M642 264h-503l276 -264h-106l-313 301l313 302h106l-279 -264h506v-75z" />
    <glyph glyph-name="equal" unicode="=" horiz-adv-x="486" 
d="M393 280h-368v68h368v-68zM393 145h-368v67h368v-67z" />
    <glyph glyph-name="greater" unicode="&#x3e;" horiz-adv-x="727" 
d="M657 301l-313 -301h-106l276 264h-503v75h506l-279 264h106z" />
    <glyph glyph-name="question" unicode="?" horiz-adv-x="464" 
d="M411 406q0 -33 -19.5 -59.5t-49.5 -41.5l-66 -33q-26 -12 -26 -35v-74h-82v78q0 19 7 35.5t15 27.5t26.5 23t28 17.5t33 16.5t29.5 14q22 12 22 34v63q0 7 -2 11q-6 13 -23.5 28.5t-30.5 15.5h-109q-6 0 -10 -2q-13 -7 -30 -23.5t-25 -31.5l-10 -20l-79 23q14 33 27 51
q61 81 124 81h113q38 0 67 -21q11 -8 29 -26t24 -27q17 -26 17 -57v-68zM259 0h-100v96h100v-96z" />
    <glyph glyph-name="at" unicode="@" horiz-adv-x="605" 
d="M373 606q32 0 56 -17q29 -20 68 -70q14 -20 14 -51v-390l10 -78h-75l-7 35q-6 -6 -22 -18q-30 -22 -54 -22h-46q-39 0 -66 20q-26 19 -45 48q-16 23 -16 56v189q0 33 16 56q19 26 45 48q27 22 66 22h46q27 0 54 -22q9 -7 20 -18v74q0 4 -2 10q-7 14 -25 30.5t-31 23.5
q-6 3 -10 3h-200q-3 0 -9 -3q-13 -8 -31.5 -25t-25.5 -31q-2 -6 -2 -10v-499q0 -3 2 -9q7 -14 26.5 -33t30.5 -25q4 -2 9 -2l41 -1l9 -69h-55q-25 0 -54 17q-14 8 -37 31.5t-32 37.5q-14 22 -14 52v502q0 33 13 51q8 14 32 38.5t38 32.5q26 16 54 16h209zM264 121
q0 -7 2 -11q15 -27 40 -43q6 -3 12 -3h42q3 0 9 2q52 26 66 53q1 2 1 7v181l-1 3q-7 14 -29 29.5t-37 21.5q-6 2 -9 2h-42q-6 0 -12 -3q-10 -5 -22 -18t-18 -24q-2 -4 -2 -12v-185z" />
    <glyph glyph-name="A" unicode="A" horiz-adv-x="566" 
d="M517 0h-88l-45 134h-260l-46 -134h-87l209 600h108zM358 211l-104 305l-104 -305h208z" />
    <glyph glyph-name="B" unicode="B" horiz-adv-x="555" 
d="M459 130q0 -31 -16 -56q-6 -9 -24 -27.5t-29 -25.5q-29 -21 -67 -21h-282v600h282q37 0 67 -22q11 -8 29 -25.5t24 -26.5q16 -23 16 -58v-73q0 -30 -11 -48t-37 -43q26 -24 37 -42.5t11 -48.5v-83zM377 397v70q0 8 -2 10q-8 14 -24 29.5t-29 15.5h-199v-180h200
q12 0 29 15.5t23 28.5q2 4 2 11zM377 132v80q0 6 -2 10q-5 10 -18 23.5t-24 18.5q-1 1 -10 1h-200v-187h199q13 0 30 15.5t23 28.5q2 4 2 10z" />
    <glyph glyph-name="C" unicode="C" horiz-adv-x="541" 
d="M463 128q-13 -32 -28 -52q-65 -81 -123 -81h-132q-28 0 -58 17q-15 9 -39 32.5t-33 37.5q-15 22 -15 53v330q0 30 15 52q10 14 34 38.5t38 32.5q30 17 57 17h133q62 0 123 -81q11 -13 28 -51l-80 -23q-16 45 -66 76q-4 1 -8 1h-125q-5 0 -9 -2q-11 -6 -28.5 -23
t-26.5 -31q-2 -3 -2 -13v-322q0 -12 21.5 -33t35.5 -28q4 -2 9 -2h125q6 0 10 2q18 10 37 31t27 43z" />
    <glyph glyph-name="D" unicode="D" horiz-adv-x="563" 
d="M460 139q0 -32 -14 -52q-9 -14 -33 -37.5t-39 -32.5q-30 -17 -57 -17h-276v600h276q31 0 57 -16q14 -8 38 -32.5t34 -39.5q14 -20 14 -52v-321zM378 141v317q0 6 -1 8q-7 15 -26 32t-32 23q-2 1 -7 1h-189v-444h189h4l3 1q15 7 37 28.5t22 33.5z" />
    <glyph glyph-name="E" unicode="E" horiz-adv-x="511" 
d="M409 0h-368v600h368v-78h-286v-183h270v-78h-270v-183h286v-78z" />
    <glyph glyph-name="F" unicode="F" horiz-adv-x="489" 
d="M408 522h-285v-183h270v-78h-270v-261h-82v600h367v-78z" />
    <glyph glyph-name="G" unicode="G" horiz-adv-x="592" 
d="M496 0h-80q-1 7 -4 19.5t-3 15.5q-3 -2 -12 -10t-14 -11.5t-13.5 -9t-17 -7.5t-18.5 -2h-154q-28 0 -58 17q-15 9 -39 32.5t-33 37.5q-15 22 -15 53v329q0 31 15 53q10 14 34 38.5t38 32.5q30 17 58 17h154q61 0 124 -82q12 -15 28 -50l-80 -23l-10 20q-8 15 -25 31.5
t-30 23.5q-4 2 -10 2h-147q-5 0 -9 -2q-12 -6 -30.5 -23.5t-25.5 -31.5q-2 -4 -2 -9v-323q0 -12 23 -34.5t37 -29.5q2 -1 8 -1h144q5 0 9 2q14 7 36.5 29.5t22.5 34.5v124h-137v78h219v-201q0 -35 17 -140z" />
    <glyph glyph-name="H" unicode="H" horiz-adv-x="565" 
d="M463 0h-82v261h-258v-261h-82v600h82v-261h258v261h82v-600z" />
    <glyph glyph-name="I" unicode="I" horiz-adv-x="223" 
d="M122 0h-82v600h82v-600z" />
    <glyph glyph-name="J" unicode="J" horiz-adv-x="467" 
d="M365 135q0 -31 -15 -53q-10 -14 -33.5 -38t-37.5 -32q-30 -17 -58 -17h-78q-63 0 -123 81q-12 17 -28 52l79 21q7 -17 27 -41t36 -33q4 -2 12 -2h70q4 0 8 2q13 6 36 28.5t23 32.5v464h82v-465z" />
    <glyph glyph-name="K" unicode="K" horiz-adv-x="522" 
d="M132 338l234 262h108l-273 -300l274 -300h-108l-235 261h-9v-261h-82v600h82v-262h9z" />
    <glyph glyph-name="L" unicode="L" horiz-adv-x="475" 
d="M403 0h-362v600h82v-522h280v-78z" />
    <glyph glyph-name="M" unicode="M" horiz-adv-x="670" 
d="M568 0h-80v477l-157 -322h-54l-155 322v-477h-81v600h104l160 -327l161 327h102v-600z" />
    <glyph glyph-name="N" unicode="N" horiz-adv-x="571" 
d="M469 0h-95l-252 458v-458h-81v600h97l250 -463v463h81v-600z" />
    <glyph glyph-name="O" unicode="O" horiz-adv-x="579" 
d="M483 135q0 -31 -15 -53q-9 -14 -33 -37.5t-39 -32.5q-30 -17 -58 -17h-158q-27 0 -57 17q-15 9 -39.5 32.5t-33.5 37.5q-14 20 -14 53v329q0 33 14 53q9 14 33.5 38t39.5 33q30 17 57 17h158q28 0 58 -17q14 -8 38 -32.5t34 -38.5q15 -22 15 -53v-329zM401 136v326
q0 5 -2 9q-8 14 -26 31t-29 23q-4 2 -9 2h-150q-5 0 -9 -2q-14 -7 -36 -29t-22 -34v-326q0 -10 22.5 -32.5t35.5 -28.5q4 -2 9 -2h150q5 0 9 2q14 7 35.5 28t21.5 33z" />
    <glyph glyph-name="P" unicode="P" horiz-adv-x="538" 
d="M460 379q0 -30 -17 -56q-6 -9 -24.5 -27t-29.5 -26q-28 -20 -66 -20h-200v-250h-82v600h282q38 0 67 -21q11 -8 29 -26t24 -27q17 -26 17 -57v-90zM378 381v87q0 5 -2 11q-3 10 -21 26t-28 17h-6h-198v-194h199q12 0 28 13.5t25 26.5q3 4 3 13z" />
    <glyph glyph-name="Q" unicode="Q" horiz-adv-x="580" 
d="M483 135q0 -31 -15 -53q-9 -14 -33 -37.5t-39 -32.5q-21 -11 -44 -16h-2l38 -88h-86l-36 87h-86q-27 0 -57 17q-15 9 -39.5 32.5t-33.5 37.5q-14 20 -14 53v329q0 33 14 53q9 14 33.5 38t39.5 33q30 17 57 17h158q28 0 58 -17q14 -8 38 -32.5t34 -38.5q15 -22 15 -53
v-329zM401 136v326q0 5 -2 9q-8 14 -26 31t-29 23q-4 2 -9 2h-150q-5 0 -9 -2q-14 -7 -36 -29t-22 -34v-326q0 -10 22.5 -32.5t35.5 -28.5q4 -2 9 -2h47l-9 23l75 25l20 -48h17q5 0 9 2q14 7 35.5 28t21.5 33z" />
    <glyph glyph-name="R" unicode="R" horiz-adv-x="575" 
d="M491 0h-89l-141 250h-138v-250h-82v600h282q38 0 67 -21q11 -8 29 -26t24 -27q17 -26 17 -57v-90q0 -30 -17 -56q-6 -9 -24 -27t-29 -26q-22 -16 -45 -18zM378 381v86q0 10 -1 11q-6 10 -23 26.5t-26 17.5h-6h-199v-194h199q12 0 30.5 15t24.5 27q1 2 1 11z" />
    <glyph glyph-name="S" unicode="S" horiz-adv-x="570" 
d="M483 135q0 -33 -14 -53q-9 -14 -33.5 -37.5t-39.5 -32.5q-30 -17 -57 -17h-167q-63 0 -124 81q-8 11 -27 52l79 21l9 -18q9 -16 26.5 -32.5t30.5 -23.5q4 -2 9 -2h160q4 0 8 2q15 7 36.5 28t21.5 33v61q0 12 -7 22t-16 12l-272 70q-33 9 -52 38t-19 64v61q0 33 14 53
q9 14 33.5 38t39.5 33q30 17 57 17h147q62 0 123 -81q11 -13 28 -51l-80 -23l-10 20q-8 15 -26 32t-31 24q-3 1 -7 1h-139q-3 0 -9 -2q-13 -6 -35.5 -28.5t-22.5 -32.5v-57q0 -11 6.5 -20.5t15.5 -11.5l271 -72q33 -9 53 -37.5t20 -62.5v-68z" />
    <glyph glyph-name="T" unicode="T" horiz-adv-x="504" 
d="M432 522h-171v-522h-82v522h-171v78h424v-78z" />
    <glyph glyph-name="U" unicode="U" horiz-adv-x="554" 
d="M458 134q0 -32 -14 -52q-9 -14 -33 -37.5t-39 -32.5q-30 -17 -57 -17h-134q-28 0 -58 17q-15 9 -39 32.5t-33 37.5q-15 22 -15 52v466h82v-464q0 -10 23.5 -32.5t36.5 -28.5q4 -2 8 -2h124q5 0 9 2q13 6 35 28.5t22 32.5v464h82v-466z" />
    <glyph glyph-name="V" unicode="V" horiz-adv-x="541" 
d="M491 600l-199 -600h-108l-199 600h87l166 -512l166 512h87z" />
    <glyph glyph-name="W" unicode="W" horiz-adv-x="734" 
d="M686 600l-138 -600h-103l-107 466l-108 -466h-103l-138 600h85l105 -491l111 491h95l111 -491l105 491h85z" />
    <glyph glyph-name="X" unicode="X" 
d="M460 600l-186 -294l195 -306h-91l-149 236l-148 -236h-91l195 306l-186 294h90l140 -224l141 224h90z" />
    <glyph glyph-name="Y" unicode="Y" horiz-adv-x="500" 
d="M463 600l-202 -345v-255h-82v255l-201 345h90l153 -262q-1 0 37.5 65.5t77.5 130.5l38 66h89z" />
    <glyph glyph-name="Z" unicode="Z" horiz-adv-x="501" 
d="M423 0h-388v63l290 459h-290v78h388v-65l-283 -457h283v-78z" />
    <glyph glyph-name="bracketleft" unicode="[" horiz-adv-x="315" 
d="M205 0h-179v600h179v-72h-99v-456h99v-72z" />
    <glyph glyph-name="backslash" unicode="\" horiz-adv-x="432" 
d="M330 0l-325 600h85l326 -600h-86z" />
    <glyph glyph-name="bracketright" unicode="]" horiz-adv-x="325" 
d="M225 0h-179v72h99v456h-99v72h179v-600z" />
    <glyph glyph-name="asciicircum" unicode="^" horiz-adv-x="344" 
d="M-2 309l101 291h81l101 -291h-70l-71 218l-73 -218h-69z" />
    <glyph glyph-name="underscore" unicode="_" horiz-adv-x="462" 
d="M407 -87h-386v72h386v-72z" />
    <glyph glyph-name="grave" unicode="`" horiz-adv-x="381" 
d="M264 525l-74 -20l-109 130h98z" />
    <glyph glyph-name="a" unicode="a" horiz-adv-x="482" 
d="M388 0h-77l-5 34q-46 -39 -78 -39h-88q-40 0 -68 20q-27 20 -47 47q-17 23 -17 57v19q0 34 17 57q20 27 47 47q26 19 68 19h162v49q0 8 -3 13q-15 24 -41 37q-6 3 -12 3h-94q-20 0 -46 -34l-13 -18l-73 22q9 21 29.5 46.5t36.5 37.5q28 19 69 19h92q41 0 69 -20
q30 -22 48 -47q16 -23 16 -58v-232zM302 120v70h-161q-6 0 -12 -2q-11 -6 -23.5 -18.5t-17.5 -22.5q-2 -4 -2 -10v-17q0 -6 2 -10q11 -22 41 -39q9 -3 12 -3h84q5 0 9 2q49 23 68 50z" />
    <glyph glyph-name="b" unicode="b" horiz-adv-x="490" 
d="M398 122q0 -34 -17 -58q-20 -27 -48 -48q-29 -21 -68 -21h-78q-36 0 -80 42l-4 -37h-78l7 80v520h78v-202q42 38 77 38h78q40 0 68 -20q26 -19 48 -49q17 -23 17 -58v-187zM320 124v183q0 7 -2 11q-15 29 -42 43q-4 2 -12 2h-74q-14 0 -42.5 -21.5t-37.5 -34.5v-182
q9 -13 37.5 -35t42.5 -22h74q6 0 12 3q10 5 23.5 18t18.5 24q2 4 2 11z" />
    <glyph glyph-name="c" unicode="c" horiz-adv-x="477" 
d="M395 98q-8 -20 -19 -35q-21 -29 -47 -48q-28 -20 -68 -20h-102q-41 0 -69 20q-28 21 -48 48q-16 23 -16 57v191q0 34 16 57q20 27 48 48q28 20 69 20h99q40 0 68 -20q18 -12 38 -37.5t29 -46.5l-73 -23q-10 20 -27 37t-33 17h-100q-6 0 -12 -3q-29 -15 -42 -40
q-2 -4 -2 -11v-187q0 -7 2 -11q13 -25 42 -40q6 -3 12 -3h103q3 0 12 3q27 14 47 51z" />
    <glyph glyph-name="d" unicode="d" horiz-adv-x="493" 
d="M399 0h-78l-4 37q-44 -42 -80 -42h-78q-39 0 -68 21q-28 21 -48 48q-17 24 -17 58v187q0 35 17 58q22 30 48 49q28 20 68 20h78q35 0 77 -38v202h78v-520zM314 124v182q-9 14 -37.5 35.5t-42.5 21.5h-74q-8 0 -12 -2q-27 -14 -42 -43q-2 -4 -2 -11v-183q0 -7 2 -11
q5 -11 18.5 -24t23.5 -18q6 -3 12 -3h74q14 0 42.5 21.5t37.5 34.5z" />
    <glyph glyph-name="e" unicode="e" horiz-adv-x="483" 
d="M393 98q-10 -23 -28.5 -46.5t-37.5 -36.5q-28 -20 -68 -20h-99q-41 0 -69 20q-28 21 -48 48q-17 23 -17 57v191q0 34 17 57q20 27 48 48q28 20 69 20h100q41 0 69 -20q28 -21 48 -48q16 -23 16 -57v-129h-289v-60q0 -7 2 -11q5 -10 17 -22t24 -18q6 -3 13 -3h101
q6 0 12 3q10 5 23 17.5t18 22.5l6 11zM315 253v56q0 9 -1 11q-5 10 -18.5 22t-24.5 18q-6 3 -12 3h-99q-8 0 -12 -3q-31 -17 -42 -40q-2 -2 -2 -11v-56h211z" />
    <glyph glyph-name="f" unicode="f" horiz-adv-x="340" 
d="M283 532h-80q-12 0 -15 -2q-10 -6 -25 -20.5t-16 -23.5v-9v-46h121v-73h-121v-358h-78v358h-71v73h71v48q0 35 16 58q20 27 48 48q29 20 69 20h81v-73z" />
    <glyph glyph-name="g" unicode="g" horiz-adv-x="505" 
d="M404 431l-8 -81v-396q0 -35 -16 -58q-20 -27 -48 -48q-29 -21 -69 -21h-100q-39 0 -68 21q-18 12 -38 37t-29 47l73 24q9 -18 27.5 -37t33.5 -19h100q6 0 12 3q10 6 26.5 21.5t17.5 23.5v8v77q-42 -38 -77 -38h-82q-41 0 -69 20q-26 19 -48 49q-16 23 -16 58v187
q0 35 16 58q22 30 48 49q28 20 69 20h82q35 0 81 -42l4 37h78zM319 126v179q-13 15 -40 36.5t-41 21.5h-78q-3 0 -12 -3q-31 -18 -43 -42q-2 -4 -2 -11v-183q0 -7 2 -11q5 -11 19 -24.5t24 -18.5q4 -2 12 -2h78q7 0 9 1q45 23 72 57z" />
    <glyph glyph-name="h" unicode="h" horiz-adv-x="479" 
d="M382 0h-78v307q0 7 -2 11q-15 29 -42 43q-4 2 -12 2h-65q-15 0 -43 -22t-37 -36v0v0v0v-1v0v0v-1v0v-1v0v-1v0v-1v-1v-1v0v-1v-1v-1v-1v-1v-1v-1v-1v-1v-1v-1v-1v-1v-1v-1v-1v-1v-1v-1v-1v-1v-1v-1v-1v-1v-1v-1v-1v-1v-1v-1v-1v-1v-1v-1v-1v-1v-1v-1v-1v-1v-1v-1v-1v-1
v-1v-1v-1v-1v-1v-1v-1v-1v-1v-1v-1v-2v-1v-1v-1v-1v-1v-1v-2v-1v-1v-1v-1v-1v-2v-1v-1v-1v-2v-1v-1v-1v-1v-2v-1v-1v-2v-1v-1v-1v-2v-1v-1v-2v-1v-1v-2v-1v-1v-2v-1v-1v-2v-1v-1v-2v-1v-2v-1v-1v-2v-1v-2v-1v-1v-2v-1v-2v-1v-2v-1v-2v-1v-2v-1v-1v-2v-1v-2v-1v-2v-1v-2v-1
v-2v-2v-1v-2v-1v-2v-1v-2v-1v-2v-2v-1v-2v-1v-2v-1v-2v-2v-1v-2v-2v-1v-2v-1v-2v-2v-1v-2v-2v-1v-2v-2v-1v-2v-2v-1v-2v-2v-1v-2v-2v-2v-1v-2v-2v-1v-2v-2v-2v-1v-2v-2v-2v-1v-2v-2v-2v-1v-2v-2v-2v-2v-1v-2v-2v-2v-2v-2v-1v-2v-2v-2v-2v-2v-1v-2v-2v-2v-2v-2v-8h-78v600h78
v-203q43 39 77 39h69q39 0 68 -21q26 -19 48 -49q17 -24 17 -57v-309z" />
    <glyph glyph-name="i" unicode="i" horiz-adv-x="216" 
d="M119 520h-90v89h90v-89zM113 0h-78v431h78v-431z" />
    <glyph glyph-name="j" unicode="j" horiz-adv-x="225" 
d="M126 -45q0 -34 -17 -58q-22 -30 -48 -49q-29 -20 -78 -20h-55v72q74 1 77 3q25 14 41 44q2 4 2 11v473h78v-476zM132 520h-90v89h90v-89z" />
    <glyph glyph-name="k" unicode="k" horiz-adv-x="450" 
d="M402 0h-105l-179 191h-13v-191h-78v600h78v-336h12l162 167h104l-195 -202z" />
    <glyph glyph-name="l" unicode="l" horiz-adv-x="222" 
d="M122 0h-78l-9 65v535h77v-523z" />
    <glyph glyph-name="m" unicode="m" horiz-adv-x="719" 
d="M622 0h-78v309q0 7 -2 11q-12 24 -40 40q-5 3 -14 3h-45q-13 0 -39.5 -19t-35.5 -31v-2v-311h-77v309q0 7 -2 11q-5 10 -17.5 22.5t-23.5 18.5q-3 2 -14 2h-46h-7q-25 -2 -71 -56v-307h-78v351l-7 80h78l4 -36q46 41 78 41h60q34 2 59 -19q6 -5 16.5 -19.5t13.5 -17.5
q13 13 55 41q28 15 51 15h67q24 0 51 -20q28 -21 48 -48q16 -23 16 -57v-311z" />
    <glyph glyph-name="n" unicode="n" horiz-adv-x="490" 
d="M393 0h-78v309q0 9 -1 11q-5 10 -18.5 23t-24.5 18q-4 2 -12 2h-71q-13 0 -40.5 -20t-36.5 -32v-311h-78v351l-8 80h78l4 -35q44 40 78 40h75q41 0 69 -20q28 -21 48 -48q16 -23 16 -57v-311z" />
    <glyph glyph-name="o" unicode="o" horiz-adv-x="484" 
d="M392 120q0 -34 -16 -57q-20 -27 -48 -48q-28 -20 -69 -20h-100q-41 0 -69 20q-28 21 -48 48q-16 23 -16 57v191q0 34 16 57q20 27 48 48q28 20 69 20h100q41 0 69 -20q28 -21 48 -48q16 -23 16 -57v-191zM312 109q2 4 2 13v187q0 9 -3 14q-15 22 -39 36q-6 4 -14 4h-97
q-6 0 -12 -3q-28 -14 -43 -40q-2 -4 -2 -11v-187q0 -7 2 -11q5 -10 18.5 -22t24.5 -18q6 -3 12 -3h97q6 0 12 3q30 17 42 38z" />
    <glyph glyph-name="p" unicode="p" horiz-adv-x="493" 
d="M398 122q0 -35 -17 -58q-22 -30 -48 -49q-28 -20 -68 -20h-78q-35 0 -77 38v-206h-78v524l-7 80h78l4 -37q44 42 80 42h78q39 0 68 -21q28 -21 48 -48q17 -24 17 -58v-187zM320 124v183q0 9 -2 11q-6 11 -18.5 23.5t-23.5 18.5q-9 3 -12 3h-74q-14 0 -42.5 -21.5
t-37.5 -34.5v-182q9 -13 37.5 -35t42.5 -22h74q6 0 12 2q11 6 24 19.5t18 23.5q2 4 2 11z" />
    <glyph glyph-name="q" unicode="q" horiz-adv-x="488" 
d="M399 431l-7 -80v-524h-78v206q-42 -38 -77 -38h-78q-40 0 -68 20q-26 19 -48 49q-17 23 -17 58v187q0 34 17 58q20 27 48 48q29 21 68 21h78q36 0 80 -42l4 37h78zM314 124v182q-9 13 -37.5 35t-42.5 22h-74q-6 0 -12 -3q-10 -5 -23.5 -18.5t-18.5 -23.5q-2 -4 -2 -11
v-183q0 -7 2 -11q15 -29 42 -43q4 -2 12 -2h74q14 0 42.5 21.5t37.5 34.5z" />
    <glyph glyph-name="r" unicode="r" horiz-adv-x="416" 
d="M376 332l-74 -22q-28 53 -59 53h-54q-14 0 -42 -20.5t-37 -33.5v-309h-78v351l-7 80h77l5 -35q42 40 79 40h55q42 0 68 -19q17 -12 37.5 -37.5t29.5 -47.5z" />
    <glyph glyph-name="s" unicode="s" horiz-adv-x="469" 
d="M391 333l-75 -25q-11 20 -28 37.5t-31 17.5h-107q-8 0 -12 -2q-20 -10 -36 -34q-3 -5 -3 -13v-29q0 -9 7.5 -16t18.5 -8l166 -12q41 -3 70 -31t29 -67v-34q0 -31 -18 -57q-19 -28 -44 -45q-29 -20 -68 -20h-120q-39 0 -68 20q-39 27 -68 83l75 25q8 -15 22.5 -31.5
t24.5 -21.5q4 -2 12 -2h121q25 0 50 38q3 4 3 13v33q0 9 -7.5 16t-19.5 8l-166 11q-41 3 -69.5 31t-28.5 67v29q0 33 17 57q19 28 44 45q29 20 68 20h104q39 0 68 -20q40 -28 69 -83z" />
    <glyph glyph-name="t" unicode="t" horiz-adv-x="342" 
d="M272 358h-132v-229q0 -9 2 -13q5 -10 17.5 -22.5t22.5 -17.5q6 -3 14 -3h70v-73h-71q-40 0 -68 20q-26 19 -48 49q-17 24 -17 58v231h-71v73h71v169h78v-169h132v-73z" />
    <glyph glyph-name="u" unicode="u" horiz-adv-x="488" 
d="M394 0h-78l-4 35q-43 -39 -78 -39h-75q-41 0 -69 20q-28 21 -48 48q-16 23 -16 57v310h78v-308q0 -9 1 -11q16 -27 43 -41q4 -2 12 -2h71q13 0 40.5 19.5t36.5 31.5v311h78v-351z" />
    <glyph glyph-name="v" unicode="v" horiz-adv-x="431" 
d="M377 431l-148 -431h-93l-150 431h84l112 -339l112 339h83z" />
    <glyph glyph-name="w" unicode="w" horiz-adv-x="670" 
d="M619 431l-128 -431h-93l-97 318l-93 -318h-93l-132 431h83l96 -335l92 335h95l96 -335l92 335h82z" />
    <glyph glyph-name="x" unicode="x" horiz-adv-x="449" 
d="M387 0h-93l-104 156l-104 -156h-93l151 221l-146 210h95l97 -149l94 149h95l-143 -210z" />
    <glyph glyph-name="y" unicode="y" horiz-adv-x="430" 
d="M376 431l-207 -604h-78l58 173h-15l-148 431h84l112 -335l113 335h81z" />
    <glyph glyph-name="z" unicode="z" horiz-adv-x="444" 
d="M364 0h-338v61l223 297h-231v73h335v-62l-223 -296h234v-73z" />
    <glyph glyph-name="braceleft" unicode="{" horiz-adv-x="349" 
d="M237 -4h-67q-27 0 -57 17q-15 9 -39.5 32.5t-33.5 37.5q-13 19 -13 53v328q0 33 14 53q10 15 33.5 39t37.5 32q30 17 58 17h67v-78h-62q-2 0 -5 -1h-2q-11 -6 -30 -24t-28 -32q-1 -1 -1 -8v-325q0 -12 22 -33.5t37 -28.5l2 -1h5h62v-78z" />
    <glyph glyph-name="bar" unicode="|" horiz-adv-x="208" 
d="M110 -94h-77v778h77v-778z" />
    <glyph glyph-name="braceright" unicode="}" horiz-adv-x="358" 
d="M257 464v-328q0 -33 -14 -53q-9 -14 -33.5 -37.5t-39.5 -32.5q-30 -17 -57 -17h-67v78h62h4l3 1q13 6 36.5 29t23.5 33v325q0 12 -23 34.5t-37 29.5h-3q-2 1 -4 1h-62v78h67q28 0 58 -17q14 -8 38 -32.5t34 -38.5q14 -20 14 -53z" />
    <glyph glyph-name="asciitilde" unicode="~" horiz-adv-x="455" 
d="M365 223l-81 -23q-12 28 -41 23l-79 -14q-45 -9 -84.5 9t-55.5 59l82 23q12 -28 41 -23l79 14q45 9 84 -9t55 -59z" />
    <glyph glyph-name="nbspace" unicode="&#xa0;" horiz-adv-x="232" 
 />
    <glyph glyph-name="exclamdown" unicode="&#xa1;" horiz-adv-x="246" 
d="M51 435h78v-435h-78v435zM40 600h102v-98h-102v98z" />
    <glyph glyph-name="cent" unicode="&#xa2;" horiz-adv-x="487" 
d="M241 -175h-57v170h-25q-41 0 -69 20q-28 21 -48 48q-16 23 -16 57v191q0 34 16 57q20 27 48 48q28 20 69 20h25v164h57v-164h27q40 0 68 -20q18 -12 38 -37.5t29 -46.5l-73 -23q-10 20 -27 37t-33 17h-29v-295h32q3 0 12 3q27 14 47 51l73 -24q-8 -20 -19 -35
q-21 -29 -47 -48q-28 -20 -68 -20h-30v-170zM148 71q9 -3 12 -3h24v295h-24q-3 0 -12 -3q-28 -16 -42 -40q-2 -2 -2 -11v-187q0 -9 2 -11q14 -24 42 -40z" />
    <glyph glyph-name="sterling" unicode="&#xa3;" horiz-adv-x="593" 
d="M506 132q-10 -24 -29 -50q-61 -82 -122 -82h-286v151h-41v73h41v50h-41v73h41v113q0 32 14 52q10 14 34 38.5t38 32.5q30 17 57 17h118v-78h-113h-5l-2 -1q-11 -6 -29.5 -24t-27.5 -32q-1 -1 -1 -118h227v-73h-227v-50h227v-73h-227v-73h200l8 1q13 7 31 24t26 32l10 20z
" />
    <glyph glyph-name="currency" unicode="&#xa4;" horiz-adv-x="560" 
d="M304 450q20 0 35 -7l44 44l51 -51l-42 -42q14 -23 14 -52v-62q0 -29 -15 -54l45 -43l-52 -51l-47 46q-15 -6 -33 -6h-115q-19 0 -32 5l-46 -46l-51 52l42 42q-15 23 -15 55v62q0 28 13 52l-41 41l52 51l42 -43q15 7 36 7h115zM304 382h-108q-7 0 -9 -1q-17 -8 -31 -32
q-2 -6 -2 -9v-57q0 -5 2 -9q12 -23 31 -32q4 -2 9 -2h101q7 0 9 2q21 11 31 32q3 6 3 9v57q0 2 -0.5 3.5t-1.5 3t-1 2.5q-3 8 -15 20t-18 13z" />
    <glyph glyph-name="yen" unicode="&#xa5;" horiz-adv-x="486" 
d="M466 600l-155 -254h98v-74h-137v-53h137v-72h-137v-147h-82v147h-142v72h142v53h-142v74h100l-151 254h90l145 -247q-1 0 35.5 61.5t72.5 123.5l37 62h89z" />
    <glyph glyph-name="brokenbar" unicode="&#xa6;" horiz-adv-x="188" 
d="M110 -94h-77v341h77v-341zM110 344h-77v341h77v-341z" />
    <glyph glyph-name="section" unicode="&#xa7;" horiz-adv-x="510" 
d="M433 500l-73 -24q-20 39 -48 54q-3 2 -12 2h-144q-7 0 -11 -2q-13 -8 -27.5 -23t-13.5 -26q2 -34 29 -35l144 -7q51 -2 76 -18q9 -6 28.5 -24t27.5 -28q21 -27 21 -66v-10q0 -38 -21 -65q-5 -6 -23 -24q42 -30 42 -77v-13q0 -29 -17 -53q-17 -25 -44 -45q-29 -21 -68 -21
h-143q-39 0 -68 21q-24 18 -47 49q-9 12 -20 34l74 25q20 -38 46 -53q6 -3 13 -3h144q7 0 13 3q23 13 37 38q2 6 2 7v13q0 20 -27 22l-151 8q-37 2 -61 17q-34 23 -57 52q-21 27 -21 65v10q0 48 41 87q-43 27 -48 91q-3 29 17 58q21 28 44 45q29 21 68 21h143q39 0 68 -21
q18 -12 38 -37t29 -47zM354 291v12q0 8 -2 10q-7 12 -21.5 27t-25.5 21q-4 2 -11 2l-126 6q-8 1 -10 -1q-23 -11 -46 -52q-2 -2 -2 -11v-11q0 -7 2 -11q7 -11 23.5 -29.5t24.5 -18.5q2 0 5 -0.5t5 -0.5l125 -8q8 0 10 2q12 7 30.5 29t18.5 34z" />
    <glyph glyph-name="dieresis" unicode="&#xa8;" horiz-adv-x="363" 
d="M323 520h-83v89h83v-89zM162 520h-83v89h83v-89z" />
    <glyph glyph-name="copyright" unicode="&#xa9;" horiz-adv-x="646" 
d="M566 138q0 -31 -15 -53q-9 -14 -33 -37.5t-39 -32.5q-30 -17 -58 -17h-252q-27 0 -57 17q-15 9 -39 32.5t-33 37.5q-14 20 -14 53v326q0 32 14 52q10 15 34 39.5t38 32.5q30 17 57 17h252q28 0 58 -17q26 -16 66 -72q21 -31 21 -52v-326zM488 462q0 4 -2 8
q-9 15 -29.5 35.5t-31.5 25.5l-3 1h-4h-245h-5l-2 -1q-11 -5 -31.5 -25.5t-29.5 -35.5q-1 -1 -1 -8v-323q0 -11 24.5 -35t38.5 -31l3 -1q2 -1 4 -1h242q2 0 4 1l3 1q15 7 40 30.5t25 35.5v323zM144 356v-110q0 -30 17 -56q20 -29 47 -49q28 -20 67 -20h56q25 0 56 22
q25 17 68 67l-81 18q-25 -26 -38 -33q-1 -1 -7 -1h-53h-6q-9 1 -25 17t-22 26q-2 2 -2 11v106q0 9 2 11q6 10 22 26t25 17h59q6 0 7 -1q13 -7 38 -33l81 18q-43 50 -68 67q-31 22 -56 22h-56q-39 0 -67 -20q-27 -20 -47 -49q-17 -26 -17 -56z" />
    <glyph glyph-name="ordfeminine" unicode="&#xaa;" horiz-adv-x="382" 
d="M329 302h-67l-5 29q-13 -13 -33 -24t-31 -11h-40q-33 0 -55 16q-23 17 -39 38q-12 16 -12 46v113q0 28 12 45q18 23 39 39q22 16 55 16h60q19 0 40 -12v11h66v-237zM253 404v100q0 7 -1 9q-4 7 -14 16.5t-18 13.5q-4 2 -9 2h-54q-5 0 -9 -2q-23 -13 -32 -30q-2 -4 -2 -9
v-103q0 -7 2 -9q10 -20 32 -30q6 -3 9 -3h44q3 0 9 3q8 3 25 19.5t18 22.5z" />
    <glyph glyph-name="guillemotleft" unicode="&#xab;" horiz-adv-x="599" 
d="M482 119l-86 -22l-156 155l156 158l85 -25l-137 -133zM279 119l-86 -22l-156 155l156 158l85 -25l-137 -133z" />
    <glyph glyph-name="logicalnot" unicode="&#xac;" horiz-adv-x="532" 
d="M365 213h-336v73l413 -1v1h1v-213h-78v140z" />
    <glyph glyph-name="registered" unicode="&#xae;" horiz-adv-x="650" 
d="M566 138q0 -31 -15 -53q-9 -14 -33 -37.5t-39 -32.5q-30 -17 -58 -17h-252q-27 0 -57 17q-15 9 -39 32.5t-33 37.5q-14 20 -14 53v326q0 32 14 52q10 15 34 39.5t38 32.5q30 17 57 17h252q28 0 58 -17q26 -16 66 -72q21 -31 21 -52v-326zM488 462q0 4 -2 8
q-9 15 -29.5 35.5t-31.5 25.5l-3 1h-4h-245h-5l-2 -1q-11 -5 -31.5 -25.5t-29.5 -35.5q-1 -1 -1 -8v-323q0 -11 24.5 -35t38.5 -31l3 -1q2 -1 4 -1h242q2 0 4 1l3 1q15 7 40 30.5t25 35.5v323zM441 352q0 -48 -9 -61q-18 -26 -59 -51l74 -122h-90l-57 105h-61v-109h-77v372
h150q38 0 67 -21q11 -8 29 -25.5t24 -26.5q9 -14 9 -50v-11zM368 343v21q0 8 -2 10q-10 20 -42 37q-6 2 -12 2h-73v-117h73q13 0 30.5 12.5t23.5 23.5q2 2 2 11z" />
    <glyph glyph-name="macron" unicode="&#xaf;" horiz-adv-x="330" 
d="M234 528h-202v71h202v-71z" />
    <glyph glyph-name="degree" unicode="&#xb0;" horiz-adv-x="337" 
d="M235 589q0 -41 -28 -68t-70 -27q-41 0 -68.5 27t-27.5 68t27.5 68t68.5 27q42 0 70 -27t28 -68zM187 589q0 20 -15 34.5t-35 14.5q-19 0 -33 -14.5t-14 -34.5q0 -21 13.5 -35.5t33.5 -14.5t35 14.5t15 35.5z" />
    <glyph glyph-name="plusminus" unicode="&#xb1;" 
d="M418 213h-149v-140h-78v140h-149v73h149v139h78v-139h149v-73zM407 -87h-365v72h365v-72z" />
    <glyph glyph-name="twosuperior" unicode="&#xb2;" horiz-adv-x="342" 
d="M200 510q0 11 -9.5 20t-21.5 9h-57q-22 0 -43 -23l-58 33q15 18 39 36q27 20 64 20h56q46 0 85 -48q15 -19 15 -46v-8q0 -29 -24.5 -50t-55.5 -30l-87 -33q-9 -4 -11 -7.5t-2 -12.5v-1h173v-68h-246v73q0 31 16 48t50 30l89 33q28 12 28 25z" />
    <glyph glyph-name="threesuperior" unicode="&#xb3;" horiz-adv-x="350" 
d="M113 487h47h10.5h11.5t9.5 1t9 3.5t5 6.5t2.5 11q0 18 -20 30q-9 3 -11 3h-71q-15 0 -36 -23l-59 34q17 22 37 36q25 19 60 19h70q52 0 86 -42q14 -21 14 -56q0 -37 -29 -54q9 -5 14 -9.5t10 -15.5t5 -28q0 -35 -14 -56q-34 -42 -86 -42h-70q-35 0 -60 19q-20 14 -37 36
l59 34q21 -23 36 -23h71q2 0 11 3q20 12 20 30q0 7 -2.5 11t-5 6.5t-9 3.5t-9.5 1h-11.5h-10.5h-47v61z" />
    <glyph glyph-name="acute" unicode="&#xb4;" horiz-adv-x="371" 
d="M223 502l-74 20l88 113h98z" />
    <glyph glyph-name="mu" unicode="&#xb5;" horiz-adv-x="488" 
d="M386 79l8 -80h-78l-4 35q-43 -39 -78 -39h-52q-35 0 -77 38v-206h-78v604h78v-306q9 -13 37.5 -35t42.5 -22h46q13 1 40.5 20.5t36.5 30.5v312h78v-352z" />
    <glyph glyph-name="paragraph" unicode="&#xb6;" horiz-adv-x="527" 
d="M458 0h-80v260h-37v-260h-79v260h-95q-39 0 -67 20q-11 8 -29.5 26t-24.5 27q-17 26 -17 56v80q0 31 17 57q6 9 24.5 27t29.5 26q29 21 67 21h291v-600zM378 338v184h-37v-184h37zM262 338v184h-94q-10 0 -12 -1q-26 -15 -42 -43q-2 -2 -2 -11v-76q0 -9 2 -11
q7 -13 23.5 -27.5t30.5 -14.5h94z" />
    <glyph glyph-name="periodcentered" unicode="&#xb7;" horiz-adv-x="291" 
d="M164 212h-102v92h102v-92z" />
    <glyph glyph-name="cedilla" unicode="&#xb8;" horiz-adv-x="406" 
d="M164 -45l73 -25l-71 -103h-89z" />
    <glyph glyph-name="onesuperior" unicode="&#xb9;" horiz-adv-x="304" 
d="M232 301h-201v60h69v179h-63v61h128v-240h67v-60z" />
    <glyph glyph-name="ordmasculine" unicode="&#xba;" horiz-adv-x="401" 
d="M318 396q0 -29 -12 -46q-16 -22 -38 -38t-55 -16h-60q-33 0 -55 16q-24 18 -39 38q-12 16 -12 46v113q0 28 12 45q18 23 39 39q22 16 55 16h60q33 0 55 -16q18 -14 38 -39q12 -17 12 -45v-113zM247 391q2 4 2 12v99q0 8 -1 11q-9 17 -30 28q-4 2 -8 2h-53q-4 0 -8 -2
q-22 -12 -31 -30q-2 -4 -2 -9v-99q0 -5 2 -9q11 -21 30 -30q6 -3 9 -3h53q4 0 9 3q21 13 28 27z" />
    <glyph glyph-name="guillemotright" unicode="&#xbb;" horiz-adv-x="601" 
d="M133 97l-86 22l138 133l-137 133l85 25l156 -158zM336 97l-86 22l138 133l-137 133l85 25l156 -158z" />
    <glyph glyph-name="onequarter" unicode="&#xbc;" horiz-adv-x="669" 
d="M602 70h-39v-69h-65v69h-168v56l174 183h59v-175h39v-64zM498 134v78l-78 -78h78zM532 605l-320 -605h-84l326 605h78zM230 301h-201v60h69v179h-63v61h128v-240h67v-60z" />
    <glyph glyph-name="onehalf" unicode="&#xbd;" horiz-adv-x="724" 
d="M532 605l-320 -605h-84l326 605h78zM232 301h-201v60h69v179h-63v61h128v-240h67v-60zM585 210q0 11 -9.5 20t-21.5 9h-57q-22 0 -43 -23l-58 33q15 18 39 36q27 20 64 20h56q46 0 85 -48q15 -19 15 -46v-8q0 -29 -24.5 -50t-55.5 -30l-87 -33q-9 -4 -11 -7.5t-2 -12.5
v-1h173v-68h-246v73q0 31 16 48t50 30l89 33q28 12 28 25z" />
    <glyph glyph-name="threequarters" unicode="&#xbe;" horiz-adv-x="677" 
d="M610 70h-39v-69h-65v69h-168v56l174 183h59v-175h39v-64zM506 134v78l-78 -78h78zM540 605l-320 -605h-84l326 605h78zM113 487h47h10.5h11.5t9.5 1t9 3.5t5 6.5t2.5 11q0 18 -20 30q-9 3 -11 3h-71q-15 0 -36 -23l-59 34q17 22 37 36q25 19 60 19h70q52 0 86 -42
q14 -21 14 -56q0 -37 -29 -54q9 -5 14 -9.5t10 -15.5t5 -28q0 -35 -14 -56q-34 -42 -86 -42h-70q-35 0 -60 19q-20 14 -37 36l59 34q21 -23 36 -23h71q2 0 11 3q20 12 20 30q0 7 -2.5 11t-5 6.5t-9 3.5t-9.5 1h-11.5h-10.5h-47v61z" />
    <glyph glyph-name="questiondown" unicode="&#xbf;" horiz-adv-x="465" 
d="M280 503h-101v97h101v-97zM440 129q-19 -40 -28 -52q-61 -81 -124 -81h-122q-39 0 -68 21q-10 7 -28.5 25.5t-24.5 27.5q-16 25 -16 57v66q0 16 4 30.5t13.5 26.5t17 20t24 18t24 14t27.5 14t25 12q25 12 25 34v74h82v-78q0 -65 -80 -105q-38 -18 -55 -29
q-25 -17 -25 -34v-61q0 -9 2 -11q6 -11 19 -23.5t23 -18.5q6 -2 12 -2h119l8 1q13 7 31 24t26 32q3 4 10 19z" />
    <glyph glyph-name="Agrave" unicode="&#xc0;" horiz-adv-x="566" 
d="M517 0h-88l-45 134h-260l-46 -134h-87l209 600h108zM358 211l-104 305l-104 -305h208zM342 668l-74 -20l-109 130h98z" />
    <glyph glyph-name="Aacute" unicode="&#xc1;" horiz-adv-x="566" 
d="M517 0h-88l-45 134h-260l-46 -134h-87l209 600h108zM358 211l-104 305l-104 -305h208zM266 646l-74 20l88 113h98z" />
    <glyph glyph-name="Acircumflex" unicode="&#xc2;" horiz-adv-x="566" 
d="M517 0h-88l-45 134h-260l-46 -134h-87l209 600h108zM358 211l-104 305l-104 -305h208zM202 660h-94l105 119h82l105 -119h-94l-52 65z" />
    <glyph glyph-name="Atilde" unicode="&#xc3;" horiz-adv-x="566" 
d="M517 0h-88l-45 134h-260l-46 -134h-87l209 600h108zM358 211l-104 305l-104 -305h208zM410 673l-71 -15q-11 27 -42 22l-70 -13q-41 -8 -76.5 8.5t-50.5 53.5l71 15q11 -27 42 -22l70 13q41 8 76.5 -8.5t50.5 -53.5z" />
    <glyph glyph-name="Adieresis" unicode="&#xc4;" horiz-adv-x="566" 
d="M517 0h-88l-45 134h-260l-46 -134h-87l209 600h108zM358 211l-104 305l-104 -305h208zM377 679h-83v89h83v-89zM216 679h-83v89h83v-89z" />
    <glyph glyph-name="Aring" unicode="&#xc5;" horiz-adv-x="566" 
d="M517 0h-88l-45 134h-260l-46 -134h-87l209 600h108zM358 211l-104 305l-104 -305h208zM351 739q0 -41 -28 -68t-70 -27q-41 0 -68.5 27t-27.5 68t27.5 68t68.5 27q42 0 70 -27t28 -68zM303 739q0 20 -15 34.5t-35 14.5q-19 0 -33 -14.5t-14 -34.5q0 -21 13.5 -35.5
t33.5 -14.5t35 14.5t15 35.5z" />
    <glyph glyph-name="AE" unicode="&#xc6;" horiz-adv-x="753" 
d="M645 0h-348v133h-175l-52 -133h-92l244 600h423v-78h-266v-183h250v-78h-250v-183h266v-78zM271 516l-123 -305h149v305h-26z" />
    <glyph glyph-name="Ccedilla" unicode="&#xc7;" horiz-adv-x="541" 
d="M463 128q-13 -32 -28 -52q-65 -81 -123 -81h-132q-28 0 -58 17q-15 9 -39 32.5t-33 37.5q-15 22 -15 53v330q0 30 15 52q10 14 34 38.5t38 32.5q30 17 57 17h133q62 0 123 -81q11 -13 28 -51l-80 -23q-16 45 -66 76q-4 1 -8 1h-125q-5 0 -9 -2q-11 -6 -28.5 -23
t-26.5 -31q-2 -3 -2 -13v-322q0 -12 21.5 -33t35.5 -28q4 -2 9 -2h125q6 0 10 2q18 10 37 31t27 43zM224 -45l73 -25l-71 -103h-89z" />
    <glyph glyph-name="Egrave" unicode="&#xc8;" horiz-adv-x="511" 
d="M409 0h-368v600h368v-78h-286v-183h270v-78h-270v-183h286v-78zM299 669l-74 -20l-109 130h98z" />
    <glyph glyph-name="Eacute" unicode="&#xc9;" horiz-adv-x="511" 
d="M409 0h-368v600h368v-78h-286v-183h270v-78h-270v-183h286v-78zM222 645l-74 20l88 113h98z" />
    <glyph glyph-name="Ecircumflex" unicode="&#xca;" horiz-adv-x="511" 
d="M409 0h-368v600h368v-78h-286v-183h270v-78h-270v-183h286v-78zM178 660h-94l105 119h82l105 -119h-94l-52 65z" />
    <glyph glyph-name="Edieresis" unicode="&#xcb;" horiz-adv-x="511" 
d="M409 0h-368v600h368v-78h-286v-183h270v-78h-270v-183h286v-78zM338 679h-83v89h83v-89zM177 679h-83v89h83v-89z" />
    <glyph glyph-name="Igrave" unicode="&#xcc;" horiz-adv-x="245" 
d="M117 0h-82v600h82v-600zM137 669l-74 -20l-109 130h98z" />
    <glyph glyph-name="Iacute" unicode="&#xcd;" horiz-adv-x="245" 
d="M117 0h-82v600h82v-600zM105 646l-74 20l88 113h98z" />
    <glyph glyph-name="Icircumflex" unicode="&#xce;" horiz-adv-x="245" 
d="M117 0h-82v600h82v-600zM22 660h-94l105 119h82l105 -119h-94l-52 65z" />
    <glyph glyph-name="Idieresis" unicode="&#xcf;" horiz-adv-x="245" 
d="M117 0h-82v600h82v-600zM198 679h-83v89h83v-89zM37 679h-83v89h83v-89z" />
    <glyph glyph-name="Eth" unicode="&#xd0;" horiz-adv-x="587" 
d="M483 139q0 -32 -14 -52q-9 -14 -33 -37.5t-39 -32.5q-30 -17 -57 -17h-276v265h-75v69h75v266h276q31 0 57 -16q14 -8 38 -32.5t34 -39.5q14 -20 14 -52v-321zM401 141v317q0 6 -1 8q-7 15 -26 32t-32 23q-2 1 -7 1h-189v-188h125v-69h-125v-187h189h5l2 1q15 7 37 28.5
t22 33.5z" />
    <glyph glyph-name="Ntilde" unicode="&#xd1;" horiz-adv-x="571" 
d="M415 673l-71 -15q-11 27 -42 22l-70 -13q-41 -8 -76.5 8.5t-50.5 53.5l71 15q11 -27 42 -22l70 13q41 8 76.5 -8.5t50.5 -53.5zM469 0h-95l-252 458v-458h-81v600h97l250 -463v463h81v-600z" />
    <glyph glyph-name="Ograve" unicode="&#xd2;" horiz-adv-x="579" 
d="M483 135q0 -31 -15 -53q-9 -14 -33 -37.5t-39 -32.5q-30 -17 -58 -17h-158q-27 0 -57 17q-15 9 -39.5 32.5t-33.5 37.5q-14 20 -14 53v329q0 33 14 53q9 14 33.5 38t39.5 33q30 17 57 17h158q28 0 58 -17q14 -8 38 -32.5t34 -38.5q15 -22 15 -53v-329zM401 136v326
q0 5 -2 9q-8 14 -26 31t-29 23q-4 2 -9 2h-150q-5 0 -9 -2q-14 -7 -36 -29t-22 -34v-326q0 -10 22.5 -32.5t35.5 -28.5q4 -2 9 -2h150q5 0 9 2q14 7 35.5 28t21.5 33zM334 670l-74 -20l-109 130h98z" />
    <glyph glyph-name="Oacute" unicode="&#xd3;" horiz-adv-x="579" 
d="M483 135q0 -31 -15 -53q-9 -14 -33 -37.5t-39 -32.5q-30 -17 -58 -17h-158q-27 0 -57 17q-15 9 -39.5 32.5t-33.5 37.5q-14 20 -14 53v329q0 33 14 53q9 14 33.5 38t39.5 33q30 17 57 17h158q28 0 58 -17q14 -8 38 -32.5t34 -38.5q15 -22 15 -53v-329zM401 136v326
q0 5 -2 9q-8 14 -26 31t-29 23q-4 2 -9 2h-150q-5 0 -9 -2q-14 -7 -36 -29t-22 -34v-326q0 -10 22.5 -32.5t35.5 -28.5q4 -2 9 -2h150q5 0 9 2q14 7 35.5 28t21.5 33zM265 647l-74 20l88 113h98z" />
    <glyph glyph-name="Ocircumflex" unicode="&#xd4;" horiz-adv-x="579" 
d="M483 135q0 -31 -15 -53q-9 -14 -33 -37.5t-39 -32.5q-30 -17 -58 -17h-158q-27 0 -57 17q-15 9 -39.5 32.5t-33.5 37.5q-14 20 -14 53v329q0 33 14 53q9 14 33.5 38t39.5 33q30 17 57 17h158q28 0 58 -17q14 -8 38 -32.5t34 -38.5q15 -22 15 -53v-329zM401 136v326
q0 5 -2 9q-8 14 -26 31t-29 23q-4 2 -9 2h-150q-5 0 -9 -2q-14 -7 -36 -29t-22 -34v-326q0 -10 22.5 -32.5t35.5 -28.5q4 -2 9 -2h150q5 0 9 2q14 7 35.5 28t21.5 33zM208 661h-94l105 119h82l105 -119h-94l-52 65z" />
    <glyph glyph-name="Otilde" unicode="&#xd5;" horiz-adv-x="579" 
d="M483 135q0 -31 -15 -53q-9 -14 -33 -37.5t-39 -32.5q-30 -17 -58 -17h-158q-27 0 -57 17q-15 9 -39.5 32.5t-33.5 37.5q-14 20 -14 53v329q0 33 14 53q9 14 33.5 38t39.5 33q30 17 57 17h158q28 0 58 -17q14 -8 38 -32.5t34 -38.5q15 -22 15 -53v-329zM401 136v326
q0 5 -2 9q-8 14 -26 31t-29 23q-4 2 -9 2h-150q-5 0 -9 -2q-14 -7 -36 -29t-22 -34v-326q0 -10 22.5 -32.5t35.5 -28.5q4 -2 9 -2h150q5 0 9 2q14 7 35.5 28t21.5 33zM417 674l-71 -15q-11 27 -42 22l-70 -13q-41 -8 -76.5 8.5t-50.5 53.5l71 15q11 -27 42 -22l70 13
q41 8 76.5 -8.5t50.5 -53.5z" />
    <glyph glyph-name="Odieresis" unicode="&#xd6;" horiz-adv-x="579" 
d="M483 135q0 -31 -15 -53q-9 -14 -33 -37.5t-39 -32.5q-30 -17 -58 -17h-158q-27 0 -57 17q-15 9 -39.5 32.5t-33.5 37.5q-14 20 -14 53v329q0 33 14 53q9 14 33.5 38t39.5 33q30 17 57 17h158q28 0 58 -17q14 -8 38 -32.5t34 -38.5q15 -22 15 -53v-329zM401 136v326
q0 5 -2 9q-8 14 -26 31t-29 23q-4 2 -9 2h-150q-5 0 -9 -2q-14 -7 -36 -29t-22 -34v-326q0 -10 22.5 -32.5t35.5 -28.5q4 -2 9 -2h150q5 0 9 2q14 7 35.5 28t21.5 33zM377 679h-83v89h83v-89zM216 679h-83v89h83v-89z" />
    <glyph glyph-name="multiply" unicode="&#xd7;" 
d="M400 124l-52 -51l-127 126l-126 -127l-51 52l126 126l-127 126l52 51l126 -125l126 126l51 -51l-125 -127z" />
    <glyph glyph-name="Oslash" unicode="&#xd8;" horiz-adv-x="589" 
d="M478 634l-40 -73q31 -31 40 -44q15 -22 15 -53v-329q0 -31 -15 -53q-9 -14 -33 -37.5t-39 -32.5q-30 -17 -58 -17h-168q-21 0 -47 11l-24 -43h-68l44 80q-26 25 -35 39q-14 20 -14 53v329q0 33 14 53q9 14 33.5 38t39.5 33q30 17 57 17h168q17 0 42 -9l21 38h67zM411 136
v326q0 7 -1 8q-3 5 -13 17l-225 -410l6 -3h2q3 -1 5 -1h160q2 0 5 1h2q15 7 37 28.5t22 33.5zM118 136q0 -8 9 -18l224 408h-2q-2 1 -4 1h-160q-2 0 -5 -1h-2q-14 -7 -37 -29.5t-23 -34.5v-326z" />
    <glyph glyph-name="Ugrave" unicode="&#xd9;" horiz-adv-x="551" 
d="M458 134q0 -32 -14 -52q-9 -14 -33 -37.5t-39 -32.5q-30 -17 -57 -17h-134q-28 0 -58 17q-15 9 -39 32.5t-33 37.5q-15 22 -15 52v466h82v-464q0 -10 23.5 -32.5t36.5 -28.5q4 -2 8 -2h124q5 0 9 2q13 6 35 28.5t22 32.5v464h82v-466zM314 670l-74 -20l-109 130h98z" />
    <glyph glyph-name="Uacute" unicode="&#xda;" horiz-adv-x="551" 
d="M458 134q0 -32 -14 -52q-9 -14 -33 -37.5t-39 -32.5q-30 -17 -57 -17h-134q-28 0 -58 17q-15 9 -39 32.5t-33 37.5q-15 22 -15 52v466h82v-464q0 -10 23.5 -32.5t36.5 -28.5q4 -2 8 -2h124q5 0 9 2q13 6 35 28.5t22 32.5v464h82v-466zM256 647l-74 20l88 113h98z" />
    <glyph glyph-name="Ucircumflex" unicode="&#xdb;" horiz-adv-x="551" 
d="M458 134q0 -32 -14 -52q-9 -14 -33 -37.5t-39 -32.5q-30 -17 -57 -17h-134q-28 0 -58 17q-15 9 -39 32.5t-33 37.5q-15 22 -15 52v466h82v-464q0 -10 23.5 -32.5t36.5 -28.5q4 -2 8 -2h124q5 0 9 2q13 6 35 28.5t22 32.5v464h82v-466zM198 661h-94l105 119h82l105 -119
h-94l-52 65z" />
    <glyph glyph-name="Udieresis" unicode="&#xdc;" horiz-adv-x="554" 
d="M458 134q0 -32 -14 -52q-9 -14 -33 -37.5t-39 -32.5q-30 -17 -57 -17h-134q-28 0 -58 17q-15 9 -39 32.5t-33 37.5q-15 22 -15 52v466h82v-464q0 -10 23.5 -32.5t36.5 -28.5q4 -2 8 -2h124q5 0 9 2q13 6 35 28.5t22 32.5v464h82v-466zM367 679h-83v89h83v-89zM206 679
h-83v89h83v-89z" />
    <glyph glyph-name="Yacute" unicode="&#xdd;" horiz-adv-x="508" 
d="M467 600l-202 -345v-255h-82v255l-201 345h90l153 -262q-1 0 37.5 65.5t77.5 130.5l38 66h89zM234 646l-74 20l88 113h98z" />
    <glyph glyph-name="Thorn" unicode="&#xde;" horiz-adv-x="532" 
d="M435 403q17 -26 17 -57v-90q0 -30 -17 -56q-6 -9 -24.5 -27t-29.5 -26q-28 -20 -66 -20h-200v-127h-82v599h82v-122h200q38 0 67 -21q10 -7 28.5 -25.5t24.5 -27.5zM370 258v87q0 9 -2 11q-6 10 -22.5 26t-25.5 17h-6h-199v-194h199q12 0 29.5 14.5t24.5 27.5q2 2 2 11z
" />
    <glyph glyph-name="germandbls" unicode="&#xdf;" horiz-adv-x="530" 
d="M452 117q0 -31 -18 -57q-19 -28 -44 -45q-29 -20 -68 -20h-104q-34 0 -58 16l43 60q6 -3 13 -3h105q12 0 27.5 13.5t23.5 26.5q2 2 2 11v47q0 8 -8 15t-20 8l-27 2l-15 1q-41 3 -69.5 31t-28.5 67v24q0 33 17 57q11 14 42 43q17 15 26 32q2 2 2 10v8v13q0 9 -2 11
q-6 10 -18.5 23t-23.5 19q-4 2 -12 2h-56q-13 0 -37 -23.5t-31 -36.5q-2 -2 -2 -13v-396l-10 -63h-77l9 80v382q0 34 15 54q11 15 34.5 39.5t37.5 32.5q30 17 59 17h59q39 0 68 -20q28 -21 48 -48q17 -24 17 -59v-15v-8q0 -32 -17 -56q-15 -20 -41 -44q-21 -21 -26 -30
q-2 -2 -2 -11v-24q0 -9 7.5 -16t18.5 -8l12 -1l30 -3q42 -4 70.5 -31t28.5 -66v-48z" />
    <glyph glyph-name="agrave" unicode="&#xe0;" horiz-adv-x="482" 
d="M388 0h-77l-5 34q-46 -39 -78 -39h-88q-40 0 -68 20q-27 20 -47 47q-17 23 -17 57v19q0 34 17 57q20 27 47 47q26 19 68 19h162v49q0 8 -3 13q-15 24 -41 37q-6 3 -12 3h-94q-20 0 -46 -34l-13 -18l-73 22q9 21 29.5 46.5t36.5 37.5q28 19 69 19h92q41 0 69 -20
q30 -22 48 -47q16 -23 16 -58v-232zM302 120v70h-161q-6 0 -12 -2q-11 -6 -23.5 -18.5t-17.5 -22.5q-2 -4 -2 -10v-17q0 -6 2 -10q11 -22 41 -39q9 -3 12 -3h84q5 0 9 2q49 23 68 50zM264 525l-74 -20l-109 130h98z" />
    <glyph glyph-name="aacute" unicode="&#xe1;" horiz-adv-x="482" 
d="M388 0h-77l-5 34q-46 -39 -78 -39h-88q-40 0 -68 20q-27 20 -47 47q-17 23 -17 57v19q0 34 17 57q20 27 47 47q26 19 68 19h162v49q0 8 -3 13q-15 24 -41 37q-6 3 -12 3h-94q-20 0 -46 -34l-13 -18l-73 22q9 21 29.5 46.5t36.5 37.5q28 19 69 19h92q41 0 69 -20
q30 -22 48 -47q16 -23 16 -58v-232zM302 120v70h-161q-6 0 -12 -2q-11 -6 -23.5 -18.5t-17.5 -22.5q-2 -4 -2 -10v-17q0 -6 2 -10q11 -22 41 -39q9 -3 12 -3h84q5 0 9 2q49 23 68 50zM223 502l-74 20l88 113h98z" />
    <glyph glyph-name="acircumflex" unicode="&#xe2;" horiz-adv-x="482" 
d="M388 0h-77l-5 34q-46 -39 -78 -39h-88q-40 0 -68 20q-27 20 -47 47q-17 23 -17 57v19q0 34 17 57q20 27 47 47q26 19 68 19h162v49q0 8 -3 13q-15 24 -41 37q-6 3 -12 3h-94q-20 0 -46 -34l-13 -18l-73 22q9 21 29.5 46.5t36.5 37.5q28 19 69 19h92q41 0 69 -20
q30 -22 48 -47q16 -23 16 -58v-232zM302 120v70h-161q-6 0 -12 -2q-11 -6 -23.5 -18.5t-17.5 -22.5q-2 -4 -2 -10v-17q0 -6 2 -10q11 -22 41 -39q9 -3 12 -3h84q5 0 9 2q49 23 68 50zM155 516h-94l105 119h82l105 -119h-94l-52 65z" />
    <glyph glyph-name="atilde" unicode="&#xe3;" horiz-adv-x="482" 
d="M388 0h-77l-5 34q-46 -39 -78 -39h-88q-40 0 -68 20q-27 20 -47 47q-17 23 -17 57v19q0 34 17 57q20 27 47 47q26 19 68 19h162v49q0 8 -3 13q-15 24 -41 37q-6 3 -12 3h-94q-20 0 -46 -34l-13 -18l-73 22q9 21 29.5 46.5t36.5 37.5q28 19 69 19h92q41 0 69 -20
q30 -22 48 -47q16 -23 16 -58v-232zM302 120v70h-161q-6 0 -12 -2q-11 -6 -23.5 -18.5t-17.5 -22.5q-2 -4 -2 -10v-17q0 -6 2 -10q11 -22 41 -39q9 -3 12 -3h84q5 0 9 2q49 23 68 50zM350 543l-71 -15q-11 27 -42 22l-70 -13q-41 -8 -76.5 8.5t-50.5 53.5l71 15
q11 -27 42 -22l70 13q41 8 76.5 -8.5t50.5 -53.5z" />
    <glyph glyph-name="adieresis" unicode="&#xe4;" horiz-adv-x="482" 
d="M388 0h-77l-5 34q-46 -39 -78 -39h-88q-40 0 -68 20q-27 20 -47 47q-17 23 -17 57v19q0 34 17 57q20 27 47 47q26 19 68 19h162v49q0 8 -3 13q-15 24 -41 37q-6 3 -12 3h-94q-20 0 -46 -34l-13 -18l-73 22q9 21 29.5 46.5t36.5 37.5q28 19 69 19h92q41 0 69 -20
q30 -22 48 -47q16 -23 16 -58v-232zM302 120v70h-161q-6 0 -12 -2q-11 -6 -23.5 -18.5t-17.5 -22.5q-2 -4 -2 -10v-17q0 -6 2 -10q11 -22 41 -39q9 -3 12 -3h84q5 0 9 2q49 23 68 50zM323 520h-83v89h83v-89zM162 520h-83v89h83v-89z" />
    <glyph glyph-name="aring" unicode="&#xe5;" horiz-adv-x="492" 
d="M388 0h-77l-5 34q-46 -39 -78 -39h-88q-40 0 -68 20q-27 20 -47 47q-17 23 -17 57v19q0 34 17 57q20 27 47 47q26 19 68 19h162v49q0 8 -3 13q-15 24 -41 37q-6 3 -12 3h-94q-20 0 -46 -34l-13 -18l-73 22q9 21 29.5 46.5t36.5 37.5q28 19 69 19h92q41 0 69 -20
q30 -22 48 -47q16 -23 16 -58v-232zM302 120v70h-161q-6 0 -12 -2q-11 -6 -23.5 -18.5t-17.5 -22.5q-2 -4 -2 -10v-17q0 -6 2 -10q11 -22 41 -39q9 -3 12 -3h84q5 0 9 2q49 23 68 50zM306 599q0 -41 -28 -68t-70 -27q-41 0 -68.5 27t-27.5 68t27.5 68t68.5 27q42 0 70 -27
t28 -68zM258 599q0 20 -15 34.5t-35 14.5q-19 0 -33 -14.5t-14 -34.5q0 -21 13.5 -35.5t33.5 -14.5t35 14.5t15 35.5z" />
    <glyph glyph-name="ae" unicode="&#xe6;" horiz-adv-x="762" 
d="M686 98q-29 -56 -67 -82q-28 -20 -68 -20h-112q-53 0 -94 43q-43 -43 -94 -43h-20h-88h-5q-40 0 -68 20q-27 18 -47 48q-17 24 -17 55v20q0 31 17 55q18 26 47 46q29 21 68 21h168v49v4q0 9 -16 24t-28 22q-6 3 -12 3h-100q-7 0 -11 -2q-27 -13 -48 -52l-73 24
q11 22 20 33q24 33 47 50q28 20 68 20h98q52 0 94 -44q42 44 94 44h110q39 0 68 -21q11 -7 26.5 -22.5t21.5 -25.5q17 -24 17 -57v-122h-298v-67q0 -6 1 -7q6 -11 19.5 -24t23.5 -18q6 -3 12 -3h113q6 0 12 3q27 14 47 51zM604 259v50q0 9 -1 10q-16 27 -43 41q-6 3 -12 3
h-108q-6 0 -12 -3q-9 -5 -26 -20t-18 -22v-7v-52h220zM306 123v66h-167q-14 0 -30 -13.5t-24 -27.5q-1 -1 -1 -11v-16q0 -9 1 -10q6 -10 21 -24t25 -17q4 -1 9 -1h110q6 0 12 3q10 5 23.5 18t19.5 24q1 1 1 9z" />
    <glyph glyph-name="ccedilla" unicode="&#xe7;" horiz-adv-x="477" 
d="M395 98q-8 -20 -19 -35q-21 -29 -47 -48q-28 -20 -68 -20h-102q-41 0 -69 20q-28 21 -48 48q-16 23 -16 57v191q0 34 16 57q20 27 48 48q28 20 69 20h99q40 0 68 -20q18 -12 38 -37.5t29 -46.5l-73 -23q-10 20 -27 37t-33 17h-100q-6 0 -12 -3q-29 -15 -42 -40
q-2 -4 -2 -11v-187q0 -7 2 -11q13 -25 42 -40q6 -3 12 -3h103q3 0 12 3q27 14 47 51zM191 -45l73 -25l-71 -103h-89z" />
    <glyph glyph-name="egrave" unicode="&#xe8;" horiz-adv-x="483" 
d="M393 98q-10 -23 -28.5 -46.5t-37.5 -36.5q-28 -20 -68 -20h-99q-41 0 -69 20q-28 21 -48 48q-17 23 -17 57v191q0 34 17 57q20 27 48 48q28 20 69 20h100q41 0 69 -20q28 -21 48 -48q16 -23 16 -57v-129h-289v-60q0 -7 2 -11q5 -10 17 -22t24 -18q6 -3 13 -3h101
q6 0 12 3q10 5 23 17.5t18 22.5l6 11zM315 253v56q0 9 -1 11q-5 10 -18.5 22t-24.5 18q-6 3 -12 3h-99q-8 0 -12 -3q-31 -17 -42 -40q-2 -2 -2 -11v-56h211zM264 525l-74 -20l-109 130h98z" />
    <glyph glyph-name="eacute" unicode="&#xe9;" horiz-adv-x="483" 
d="M393 98q-10 -23 -28.5 -46.5t-37.5 -36.5q-28 -20 -68 -20h-99q-41 0 -69 20q-28 21 -48 48q-17 23 -17 57v191q0 34 17 57q20 27 48 48q28 20 69 20h100q41 0 69 -20q28 -21 48 -48q16 -23 16 -57v-129h-289v-60q0 -7 2 -11q5 -10 17 -22t24 -18q6 -3 13 -3h101
q6 0 12 3q10 5 23 17.5t18 22.5l6 11zM315 253v56q0 9 -1 11q-5 10 -18.5 22t-24.5 18q-6 3 -12 3h-99q-8 0 -12 -3q-31 -17 -42 -40q-2 -2 -2 -11v-56h211zM223 502l-74 20l88 113h98z" />
    <glyph glyph-name="ecircumflex" unicode="&#xea;" horiz-adv-x="483" 
d="M393 98q-10 -23 -28.5 -46.5t-37.5 -36.5q-28 -20 -68 -20h-99q-41 0 -69 20q-28 21 -48 48q-17 23 -17 57v191q0 34 17 57q20 27 48 48q28 20 69 20h100q41 0 69 -20q28 -21 48 -48q16 -23 16 -57v-129h-289v-60q0 -7 2 -11q5 -10 17 -22t24 -18q6 -3 13 -3h101
q6 0 12 3q10 5 23 17.5t18 22.5l6 11zM315 253v56q0 9 -1 11q-5 10 -18.5 22t-24.5 18q-6 3 -12 3h-99q-8 0 -12 -3q-31 -17 -42 -40q-2 -2 -2 -11v-56h211zM163 516h-94l105 119h82l105 -119h-94l-52 65z" />
    <glyph glyph-name="edieresis" unicode="&#xeb;" horiz-adv-x="483" 
d="M393 98q-10 -23 -28.5 -46.5t-37.5 -36.5q-28 -20 -68 -20h-99q-41 0 -69 20q-28 21 -48 48q-17 23 -17 57v191q0 34 17 57q20 27 48 48q28 20 69 20h100q41 0 69 -20q28 -21 48 -48q16 -23 16 -57v-129h-289v-60q0 -7 2 -11q5 -10 17 -22t24 -18q6 -3 13 -3h101
q6 0 12 3q10 5 23 17.5t18 22.5l6 11zM315 253v56q0 9 -1 11q-5 10 -18.5 22t-24.5 18q-6 3 -12 3h-99q-8 0 -12 -3q-31 -17 -42 -40q-2 -2 -2 -11v-56h211zM333 520h-83v89h83v-89zM172 520h-83v89h83v-89z" />
    <glyph glyph-name="igrave" unicode="&#xec;" horiz-adv-x="216" 
d="M113 0h-78v431h78v-431zM108 525l-74 -20l-109 130h98z" />
    <glyph glyph-name="iacute" unicode="&#xed;" horiz-adv-x="216" 
d="M113 0h-78v431h78v-431zM109 502l-74 20l88 113h98z" />
    <glyph glyph-name="icircumflex" unicode="&#xee;" horiz-adv-x="216" 
d="M113 0h-78v431h78v-431zM24 516h-94l105 119h82l105 -119h-94l-52 65z" />
    <glyph glyph-name="idieresis" unicode="&#xef;" horiz-adv-x="216" 
d="M113 0h-78v431h78v-431zM195 520h-83v89h83v-89zM34 520h-83v89h83v-89z" />
    <glyph glyph-name="eth" unicode="&#xf0;" horiz-adv-x="484" 
d="M392 420v-295q0 -31 -17 -57q-6 -9 -24.5 -27t-28.5 -26q-29 -21 -66 -21h-95q-37 0 -66 21q-10 7 -28 25.5t-24 27.5q-17 26 -17 57v182q0 31 17 57q6 9 23.5 27t28.5 25q28 20 66 20h76q36 0 77 -48v28q0 25 -26 39l-77 38l-66 -32l-32 61l23 10l-60 31l34 65l110 -55
l93 48l33 -61l-51 -27l26 -13q71 -36 71 -100zM314 124v180q-15 29 -70 57q-5 2 -9 2h-75q-13 0 -30 -15.5t-24 -29.5q-2 -2 -2 -10v-184q0 -8 2 -10q8 -14 24.5 -30t29.5 -16h98q12 0 30 17t24 29q2 2 2 10z" />
    <glyph glyph-name="ntilde" unicode="&#xf1;" horiz-adv-x="490" 
d="M393 0h-78v309q0 9 -1 11q-5 10 -18.5 23t-24.5 18q-4 2 -12 2h-71q-13 0 -40.5 -20t-36.5 -32v-311h-78v351l-8 80h78l4 -35q44 40 78 40h75q41 0 69 -20q28 -21 48 -48q16 -23 16 -57v-311zM367 543l-71 -15q-11 27 -42 22l-70 -13q-41 -8 -76.5 8.5t-50.5 53.5l71 15
q11 -27 42 -22l70 13q41 8 76.5 -8.5t50.5 -53.5z" />
    <glyph glyph-name="ograve" unicode="&#xf2;" horiz-adv-x="484" 
d="M392 120q0 -34 -16 -57q-20 -27 -48 -48q-28 -20 -69 -20h-100q-41 0 -69 20q-28 21 -48 48q-16 23 -16 57v191q0 34 16 57q20 27 48 48q28 20 69 20h100q41 0 69 -20q28 -21 48 -48q16 -23 16 -57v-191zM312 109q2 4 2 13v187q0 9 -3 14q-15 22 -39 36q-6 4 -14 4h-97
q-6 0 -12 -3q-28 -14 -43 -40q-2 -4 -2 -11v-187q0 -7 2 -11q5 -10 18.5 -22t24.5 -18q6 -3 12 -3h97q6 0 12 3q30 17 42 38zM285 525l-74 -20l-109 130h98z" />
    <glyph glyph-name="oacute" unicode="&#xf3;" horiz-adv-x="484" 
d="M392 120q0 -34 -16 -57q-20 -27 -48 -48q-28 -20 -69 -20h-100q-41 0 -69 20q-28 21 -48 48q-16 23 -16 57v191q0 34 16 57q20 27 48 48q28 20 69 20h100q41 0 69 -20q28 -21 48 -48q16 -23 16 -57v-191zM312 109q2 4 2 13v187q0 9 -3 14q-15 22 -39 36q-6 4 -14 4h-97
q-6 0 -12 -3q-28 -14 -43 -40q-2 -4 -2 -11v-187q0 -7 2 -11q5 -10 18.5 -22t24.5 -18q6 -3 12 -3h97q6 0 12 3q30 17 42 38zM223 502l-74 20l88 113h98z" />
    <glyph glyph-name="ocircumflex" unicode="&#xf4;" horiz-adv-x="484" 
d="M392 120q0 -34 -16 -57q-20 -27 -48 -48q-28 -20 -69 -20h-100q-41 0 -69 20q-28 21 -48 48q-16 23 -16 57v191q0 34 16 57q20 27 48 48q28 20 69 20h100q41 0 69 -20q28 -21 48 -48q16 -23 16 -57v-191zM312 109q2 4 2 13v187q0 9 -3 14q-15 22 -39 36q-6 4 -14 4h-97
q-6 0 -12 -3q-28 -14 -43 -40q-2 -4 -2 -11v-187q0 -7 2 -11q5 -10 18.5 -22t24.5 -18q6 -3 12 -3h97q6 0 12 3q30 17 42 38zM155 516h-94l105 119h82l105 -119h-94l-52 65z" />
    <glyph glyph-name="otilde" unicode="&#xf5;" horiz-adv-x="484" 
d="M392 120q0 -34 -16 -57q-20 -27 -48 -48q-28 -20 -69 -20h-100q-41 0 -69 20q-28 21 -48 48q-16 23 -16 57v191q0 34 16 57q20 27 48 48q28 20 69 20h100q41 0 69 -20q28 -21 48 -48q16 -23 16 -57v-191zM312 109q2 4 2 13v187q0 9 -3 14q-15 22 -39 36q-6 4 -14 4h-97
q-6 0 -12 -3q-28 -14 -43 -40q-2 -4 -2 -11v-187q0 -7 2 -11q5 -10 18.5 -22t24.5 -18q6 -3 12 -3h97q6 0 12 3q30 17 42 38zM360 543l-71 -15q-11 27 -42 22l-70 -13q-41 -8 -76.5 8.5t-50.5 53.5l71 15q11 -27 42 -22l70 13q41 8 76.5 -8.5t50.5 -53.5z" />
    <glyph glyph-name="odieresis" unicode="&#xf6;" horiz-adv-x="484" 
d="M392 120q0 -34 -16 -57q-20 -27 -48 -48q-28 -20 -69 -20h-100q-41 0 -69 20q-28 21 -48 48q-16 23 -16 57v191q0 34 16 57q20 27 48 48q28 20 69 20h100q41 0 69 -20q28 -21 48 -48q16 -23 16 -57v-191zM312 109q2 4 2 13v187q0 9 -3 14q-15 22 -39 36q-6 4 -14 4h-97
q-6 0 -12 -3q-28 -14 -43 -40q-2 -4 -2 -11v-187q0 -7 2 -11q5 -10 18.5 -22t24.5 -18q6 -3 12 -3h97q6 0 12 3q30 17 42 38zM331 520h-83v89h83v-89zM170 520h-83v89h83v-89z" />
    <glyph glyph-name="divide" unicode="&#xf7;" horiz-adv-x="465" 
d="M375 212h-349v73h349v-73zM254 329h-102v106h102v-106zM254 61h-102v106h102v-106z" />
    <glyph glyph-name="oslash" unicode="&#xf8;" horiz-adv-x="494" 
d="M402 120q0 -34 -16 -57q-20 -27 -48 -48q-28 -20 -69 -20h-110q-19 0 -34 4l-20 -36h-67l36 65q-24 22 -32 35q-16 23 -16 57v191q0 34 16 57q20 27 48 48q28 20 69 20h110q18 0 31 -4l18 33h67l-34 -60q24 -22 35 -37q16 -23 16 -57v-191zM324 114v195q0 9 -1 11l-11 14
l-149 -266h105q3 0 12 3q11 6 27 20.5t17 22.5zM106 111q2 -4 8 -12l147 264h-100q-3 0 -12 -3q-30 -17 -43 -40q-2 -4 -2 -11v-187q0 -9 2 -11z" />
    <glyph glyph-name="ugrave" unicode="&#xf9;" horiz-adv-x="488" 
d="M394 0h-78l-4 35q-43 -39 -78 -39h-75q-41 0 -69 20q-28 21 -48 48q-16 23 -16 57v310h78v-308q0 -9 1 -11q16 -27 43 -41q4 -2 12 -2h71q13 0 40.5 19.5t36.5 31.5v311h78v-351zM265 525l-74 -20l-109 130h98z" />
    <glyph glyph-name="uacute" unicode="&#xfa;" horiz-adv-x="488" 
d="M394 0h-78l-4 35q-43 -39 -78 -39h-75q-41 0 -69 20q-28 21 -48 48q-16 23 -16 57v310h78v-308q0 -9 1 -11q16 -27 43 -41q4 -2 12 -2h71q13 0 40.5 19.5t36.5 31.5v311h78v-351zM223 502l-74 20l88 113h98z" />
    <glyph glyph-name="ucircumflex" unicode="&#xfb;" horiz-adv-x="488" 
d="M394 0h-78l-4 35q-43 -39 -78 -39h-75q-41 0 -69 20q-28 21 -48 48q-16 23 -16 57v310h78v-308q0 -9 1 -11q16 -27 43 -41q4 -2 12 -2h71q13 0 40.5 19.5t36.5 31.5v311h78v-351zM159 516h-94l105 119h82l105 -119h-94l-52 65z" />
    <glyph glyph-name="udieresis" unicode="&#xfc;" horiz-adv-x="488" 
d="M394 0h-78l-4 35q-43 -39 -78 -39h-75q-41 0 -69 20q-28 21 -48 48q-16 23 -16 57v310h78v-308q0 -9 1 -11q16 -27 43 -41q4 -2 12 -2h71q13 0 40.5 19.5t36.5 31.5v311h78v-351zM323 520h-83v89h83v-89zM162 520h-83v89h83v-89z" />
    <glyph glyph-name="yacute" unicode="&#xfd;" horiz-adv-x="430" 
d="M376 431l-207 -604h-78l58 173h-15l-148 431h84l112 -335l113 335h81zM208 502l-74 20l88 113h98z" />
    <glyph glyph-name="thorn" unicode="&#xfe;" horiz-adv-x="493" 
d="M110 600v-175l-3 -32q44 42 80 42h78q39 0 68 -21q28 -21 48 -48q17 -24 17 -58v-187q0 -35 -17 -58q-22 -30 -48 -49q-28 -20 -68 -20h-78q-35 0 -77 38v-206h-78v774h78zM320 123v183q0 9 -2 11q-6 11 -18.5 23.5t-23.5 18.5q-9 3 -12 3h-74q-14 0 -42.5 -21.5
t-37.5 -34.5v-182q9 -13 37.5 -35t42.5 -22h74q6 0 12 2q26 15 42 43q2 2 2 11z" />
    <glyph glyph-name="ydieresis" unicode="&#xff;" horiz-adv-x="430" 
d="M376 431l-207 -604h-78l58 173h-15l-148 431h84l112 -335l113 335h81zM303 520h-83v89h83v-89zM142 520h-83v89h83v-89z" />
    <glyph glyph-name="Amacron" unicode="&#x100;" horiz-adv-x="566" 
d="M517 0h-88l-45 134h-260l-46 -134h-87l209 600h108zM358 211l-104 305l-104 -305h208zM356 669h-202v75h202v-75z" />
    <glyph glyph-name="amacron" unicode="&#x101;" horiz-adv-x="482" 
d="M388 0h-77l-5 34q-46 -39 -78 -39h-88q-40 0 -68 20q-27 20 -47 47q-17 23 -17 57v19q0 34 17 57q20 27 47 47q26 19 68 19h162v49q0 8 -3 13q-15 24 -41 37q-6 3 -12 3h-94q-20 0 -46 -34l-13 -18l-73 22q9 21 29.5 46.5t36.5 37.5q28 19 69 19h92q41 0 69 -20
q30 -22 48 -47q16 -23 16 -58v-232zM302 120v70h-161q-6 0 -12 -2q-11 -6 -23.5 -18.5t-17.5 -22.5q-2 -4 -2 -10v-17q0 -6 2 -10q11 -22 41 -39q9 -3 12 -3h84q5 0 9 2q49 23 68 50zM300 528h-202v71h202v-71z" />
    <glyph glyph-name="Abreve" unicode="&#x102;" horiz-adv-x="566" 
d="M517 0h-88l-45 134h-260l-46 -134h-87l209 600h108zM358 211l-104 305l-104 -305h208zM308 750h48q0 -41 -28 -68t-70 -27q-41 0 -68.5 27t-27.5 68h49q0 -21 13.5 -35.5t33.5 -14.5t35 14.5t15 35.5z" />
    <glyph glyph-name="abreve" unicode="&#x103;" horiz-adv-x="482" 
d="M388 0h-77l-5 34q-46 -39 -78 -39h-88q-40 0 -68 20q-27 20 -47 47q-17 23 -17 57v19q0 34 17 57q20 27 47 47q26 19 68 19h162v49q0 8 -3 13q-15 24 -41 37q-6 3 -12 3h-94q-20 0 -46 -34l-13 -18l-73 22q9 21 29.5 46.5t36.5 37.5q28 19 69 19h92q41 0 69 -20
q30 -22 48 -47q16 -23 16 -58v-232zM302 120v70h-161q-6 0 -12 -2q-11 -6 -23.5 -18.5t-17.5 -22.5q-2 -4 -2 -10v-17q0 -6 2 -10q11 -22 41 -39q9 -3 12 -3h84q5 0 9 2q49 23 68 50zM260 606h48q0 -41 -28 -68t-70 -27q-41 0 -68.5 27t-27.5 68h49q0 -21 13.5 -35.5
t33.5 -14.5t35 14.5t15 35.5z" />
    <glyph glyph-name="Aogonek" unicode="&#x104;" horiz-adv-x="564" 
d="M517 0h-88l-45 134h-260l-46 -134h-87l209 600h108zM358 211l-104 305l-104 -305h208zM397 -70l73 25l87 -128h-89z" />
    <glyph glyph-name="aogonek" unicode="&#x105;" horiz-adv-x="482" 
d="M388 0h-77l-5 34q-46 -39 -78 -39h-88q-40 0 -68 20q-27 20 -47 47q-17 23 -17 57v19q0 34 17 57q20 27 47 47q26 19 68 19h162v49q0 8 -3 13q-15 24 -41 37q-6 3 -12 3h-94q-20 0 -46 -34l-13 -18l-73 22q9 21 29.5 46.5t36.5 37.5q28 19 69 19h92q41 0 69 -20
q30 -22 48 -47q16 -23 16 -58v-232zM302 120v70h-161q-6 0 -12 -2q-11 -6 -23.5 -18.5t-17.5 -22.5q-2 -4 -2 -10v-17q0 -6 2 -10q11 -22 41 -39q9 -3 12 -3h84q5 0 9 2q49 23 68 50zM276 -70l73 25l87 -128h-89z" />
    <glyph glyph-name="Cacute" unicode="&#x106;" horiz-adv-x="541" 
d="M463 128q-13 -32 -28 -52q-65 -81 -123 -81h-132q-28 0 -58 17q-15 9 -39 32.5t-33 37.5q-15 22 -15 53v330q0 30 15 52q10 14 34 38.5t38 32.5q30 17 57 17h133q62 0 123 -81q11 -13 28 -51l-80 -23q-16 45 -66 76q-4 1 -8 1h-125q-5 0 -9 -2q-11 -6 -28.5 -23
t-26.5 -31q-2 -3 -2 -13v-322q0 -12 21.5 -33t35.5 -28q4 -2 9 -2h125q6 0 10 2q18 10 37 31t27 43zM263 646l-74 20l88 113h98z" />
    <glyph glyph-name="cacute" unicode="&#x107;" horiz-adv-x="477" 
d="M395 98q-8 -20 -19 -35q-21 -29 -47 -48q-28 -20 -68 -20h-102q-41 0 -69 20q-28 21 -48 48q-16 23 -16 57v191q0 34 16 57q20 27 48 48q28 20 69 20h99q40 0 68 -20q18 -12 38 -37.5t29 -46.5l-73 -23q-10 20 -27 37t-33 17h-100q-6 0 -12 -3q-29 -15 -42 -40
q-2 -4 -2 -11v-187q0 -7 2 -11q13 -25 42 -40q6 -3 12 -3h103q3 0 12 3q27 14 47 51zM223 502l-74 20l88 113h98z" />
    <glyph glyph-name="Ccircumflex" unicode="&#x108;" horiz-adv-x="541" 
d="M463 128q-13 -32 -28 -52q-65 -81 -123 -81h-132q-28 0 -58 17q-15 9 -39 32.5t-33 37.5q-15 22 -15 53v330q0 30 15 52q10 14 34 38.5t38 32.5q30 17 57 17h133q62 0 123 -81q11 -13 28 -51l-80 -23q-16 45 -66 76q-4 1 -8 1h-125q-5 0 -9 -2q-11 -6 -28.5 -23
t-26.5 -31q-2 -3 -2 -13v-322q0 -12 21.5 -33t35.5 -28q4 -2 9 -2h125q6 0 10 2q18 10 37 31t27 43zM197 660h-94l105 119h82l105 -119h-94l-52 65z" />
    <glyph glyph-name="ccircumflex" unicode="&#x109;" horiz-adv-x="477" 
d="M395 98q-8 -20 -19 -35q-21 -29 -47 -48q-28 -20 -68 -20h-102q-41 0 -69 20q-28 21 -48 48q-16 23 -16 57v191q0 34 16 57q20 27 48 48q28 20 69 20h99q40 0 68 -20q18 -12 38 -37.5t29 -46.5l-73 -23q-10 20 -27 37t-33 17h-100q-6 0 -12 -3q-29 -15 -42 -40
q-2 -4 -2 -11v-187q0 -7 2 -11q13 -25 42 -40q6 -3 12 -3h103q3 0 12 3q27 14 47 51zM155 516h-94l105 119h82l105 -119h-94l-52 65z" />
    <glyph glyph-name="Cdotaccent" unicode="&#x10a;" horiz-adv-x="541" 
d="M463 128q-13 -32 -28 -52q-65 -81 -123 -81h-132q-28 0 -58 17q-15 9 -39 32.5t-33 37.5q-15 22 -15 53v330q0 30 15 52q10 14 34 38.5t38 32.5q30 17 57 17h133q62 0 123 -81q11 -13 28 -51l-80 -23q-16 45 -66 76q-4 1 -8 1h-125q-5 0 -9 -2q-11 -6 -28.5 -23
t-26.5 -31q-2 -3 -2 -13v-322q0 -12 21.5 -33t35.5 -28q4 -2 9 -2h125q6 0 10 2q18 10 37 31t27 43zM293 665h-90v89h90v-89z" />
    <glyph glyph-name="cdotaccent" unicode="&#x10b;" horiz-adv-x="477" 
d="M395 98q-8 -20 -19 -35q-21 -29 -47 -48q-28 -20 -68 -20h-102q-41 0 -69 20q-28 21 -48 48q-16 23 -16 57v191q0 34 16 57q20 27 48 48q28 20 69 20h99q40 0 68 -20q18 -12 38 -37.5t29 -46.5l-73 -23q-10 20 -27 37t-33 17h-100q-6 0 -12 -3q-29 -15 -42 -40
q-2 -4 -2 -11v-187q0 -7 2 -11q13 -25 42 -40q6 -3 12 -3h103q3 0 12 3q27 14 47 51zM258 520h-90v89h90v-89z" />
    <glyph glyph-name="Ccaron" unicode="&#x10c;" horiz-adv-x="541" 
d="M463 128q-13 -32 -28 -52q-65 -81 -123 -81h-132q-28 0 -58 17q-15 9 -39 32.5t-33 37.5q-15 22 -15 53v330q0 30 15 52q10 14 34 38.5t38 32.5q30 17 57 17h133q62 0 123 -81q11 -13 28 -51l-80 -23q-16 45 -66 76q-4 1 -8 1h-125q-5 0 -9 -2q-11 -6 -28.5 -23
t-26.5 -31q-2 -3 -2 -13v-322q0 -12 21.5 -33t35.5 -28q4 -2 9 -2h125q6 0 10 2q18 10 37 31t27 43zM299 779h94l-105 -119h-82l-105 119h94l52 -65z" />
    <glyph glyph-name="ccaron" unicode="&#x10d;" horiz-adv-x="477" 
d="M395 98q-8 -20 -19 -35q-21 -29 -47 -48q-28 -20 -68 -20h-102q-41 0 -69 20q-28 21 -48 48q-16 23 -16 57v191q0 34 16 57q20 27 48 48q28 20 69 20h99q40 0 68 -20q18 -12 38 -37.5t29 -46.5l-73 -23q-10 20 -27 37t-33 17h-100q-6 0 -12 -3q-29 -15 -42 -40
q-2 -4 -2 -11v-187q0 -7 2 -11q13 -25 42 -40q6 -3 12 -3h103q3 0 12 3q27 14 47 51zM268 635h94l-105 -119h-82l-105 119h94l52 -65z" />
    <glyph glyph-name="Dcaron" unicode="&#x10e;" horiz-adv-x="563" 
d="M460 139q0 -32 -14 -52q-9 -14 -33 -37.5t-39 -32.5q-30 -17 -57 -17h-276v600h276q31 0 57 -16q14 -8 38 -32.5t34 -39.5q14 -20 14 -52v-321zM378 141v317q0 6 -1 8q-7 15 -26 32t-32 23q-2 1 -7 1h-189v-444h189h4l3 1q15 7 37 28.5t22 33.5zM281 779h94l-105 -119
h-82l-105 119h94l52 -65z" />
    <glyph glyph-name="dcaron" unicode="&#x10f;" horiz-adv-x="555" 
d="M553 521l-7 -59h-77l8 72v108h76v-121zM399 0h-78l-4 37q-44 -42 -80 -42h-78q-39 0 -68 21q-28 21 -48 48q-17 24 -17 58v187q0 35 17 58q22 30 48 49q28 20 68 20h78q35 0 77 -38v202h78v-520zM314 124v182q-9 14 -37.5 35.5t-42.5 21.5h-74q-8 0 -12 -2
q-27 -14 -42 -43q-2 -4 -2 -11v-183q0 -7 2 -11q5 -11 18.5 -24t23.5 -18q6 -3 12 -3h74q14 0 42.5 21.5t37.5 34.5z" />
    <glyph glyph-name="Dcroat" unicode="&#x110;" horiz-adv-x="587" 
d="M483 139q0 -32 -14 -52q-9 -14 -33 -37.5t-39 -32.5q-30 -17 -57 -17h-276v265h-75v69h75v266h276q31 0 57 -16q14 -8 38 -32.5t34 -39.5q14 -20 14 -52v-321zM401 141v317q0 6 -1 8q-7 15 -26 32t-32 23q-2 1 -7 1h-189v-188h125v-69h-125v-187h189h5l2 1q15 7 37 28.5
t22 33.5z" />
    <glyph glyph-name="dcroat" unicode="&#x111;" horiz-adv-x="493" 
d="M399 0h-78l-4 37q-44 -42 -80 -42h-78q-39 0 -68 21q-28 21 -48 48q-17 24 -17 58v187q0 35 17 58q22 30 48 49q28 20 68 20h78q35 0 77 -38v84h-138v73h138v45h78v-45h37v-73h-37v-402zM314 124v182q-9 14 -37.5 35.5t-42.5 21.5h-74q-8 0 -12 -2q-27 -14 -42 -43
q-2 -4 -2 -11v-183q0 -7 2 -11q5 -11 18.5 -24t23.5 -18q6 -3 12 -3h74q14 0 42.5 21.5t37.5 34.5z" />
    <glyph glyph-name="Emacron" unicode="&#x112;" horiz-adv-x="511" 
d="M409 0h-368v600h368v-78h-286v-183h270v-78h-270v-183h286v-78zM324 669h-202v75h202v-75z" />
    <glyph glyph-name="emacron" unicode="&#x113;" horiz-adv-x="483" 
d="M393 98q-10 -23 -28.5 -46.5t-37.5 -36.5q-28 -20 -68 -20h-99q-41 0 -69 20q-28 21 -48 48q-17 23 -17 57v191q0 34 17 57q20 27 48 48q28 20 69 20h100q41 0 69 -20q28 -21 48 -48q16 -23 16 -57v-129h-289v-60q0 -7 2 -11q5 -10 17 -22t24 -18q6 -3 13 -3h101
q6 0 12 3q10 5 23 17.5t18 22.5l6 11zM315 253v56q0 9 -1 11q-5 10 -18.5 22t-24.5 18q-6 3 -12 3h-99q-8 0 -12 -3q-31 -17 -42 -40q-2 -2 -2 -11v-56h211zM313 528h-202v71h202v-71z" />
    <glyph glyph-name="Ebreve" unicode="&#x114;" horiz-adv-x="511" 
d="M409 0h-368v600h368v-78h-286v-183h270v-78h-270v-183h286v-78zM281 750h48q0 -41 -28 -68t-70 -27q-41 0 -68.5 27t-27.5 68h49q0 -21 13.5 -35.5t33.5 -14.5t35 14.5t15 35.5z" />
    <glyph glyph-name="ebreve" unicode="&#x115;" horiz-adv-x="483" 
d="M393 98q-10 -23 -28.5 -46.5t-37.5 -36.5q-28 -20 -68 -20h-99q-41 0 -69 20q-28 21 -48 48q-17 23 -17 57v191q0 34 17 57q20 27 48 48q28 20 69 20h100q41 0 69 -20q28 -21 48 -48q16 -23 16 -57v-129h-289v-60q0 -7 2 -11q5 -10 17 -22t24 -18q6 -3 13 -3h101
q6 0 12 3q10 5 23 17.5t18 22.5l6 11zM315 253v56q0 9 -1 11q-5 10 -18.5 22t-24.5 18q-6 3 -12 3h-99q-8 0 -12 -3q-31 -17 -42 -40q-2 -2 -2 -11v-56h211zM260 606h48q0 -41 -28 -68t-70 -27q-41 0 -68.5 27t-27.5 68h49q0 -21 13.5 -35.5t33.5 -14.5t35 14.5t15 35.5z
" />
    <glyph glyph-name="Edotaccent" unicode="&#x116;" horiz-adv-x="511" 
d="M409 0h-368v600h368v-78h-286v-183h270v-78h-270v-183h286v-78zM279 664h-90v89h90v-89z" />
    <glyph glyph-name="edotaccent" unicode="&#x117;" horiz-adv-x="483" 
d="M393 98q-10 -23 -28.5 -46.5t-37.5 -36.5q-28 -20 -68 -20h-99q-41 0 -69 20q-28 21 -48 48q-17 23 -17 57v191q0 34 17 57q20 27 48 48q28 20 69 20h100q41 0 69 -20q28 -21 48 -48q16 -23 16 -57v-129h-289v-60q0 -7 2 -11q5 -10 17 -22t24 -18q6 -3 13 -3h101
q6 0 12 3q10 5 23 17.5t18 22.5l6 11zM315 253v56q0 9 -1 11q-5 10 -18.5 22t-24.5 18q-6 3 -12 3h-99q-8 0 -12 -3q-31 -17 -42 -40q-2 -2 -2 -11v-56h211zM259 520h-90v89h90v-89z" />
    <glyph glyph-name="Eogonek" unicode="&#x118;" horiz-adv-x="511" 
d="M409 0h-368v600h368v-78h-286v-183h270v-78h-270v-183h286v-78zM309 -70l73 25l87 -128h-89z" />
    <glyph glyph-name="eogonek" unicode="&#x119;" horiz-adv-x="483" 
d="M393 98q-10 -23 -28.5 -46.5t-37.5 -36.5q-28 -20 -68 -20h-99q-41 0 -69 20q-28 21 -48 48q-17 23 -17 57v191q0 34 17 57q20 27 48 48q28 20 69 20h100q41 0 69 -20q28 -21 48 -48q16 -23 16 -57v-129h-289v-60q0 -7 2 -11q5 -10 17 -22t24 -18q6 -3 13 -3h101
q6 0 12 3q10 5 23 17.5t18 22.5l6 11zM315 253v56q0 9 -1 11q-5 10 -18.5 22t-24.5 18q-6 3 -12 3h-99q-8 0 -12 -3q-31 -17 -42 -40q-2 -2 -2 -11v-56h211zM146 -70l73 25l87 -128h-89z" />
    <glyph glyph-name="Ecaron" unicode="&#x11a;" horiz-adv-x="511" 
d="M281 779h94l-105 -119h-82l-105 119h94l52 -65zM409 0h-368v600h368v-78h-286v-183h270v-78h-270v-183h286v-78z" />
    <glyph glyph-name="ecaron" unicode="&#x11b;" horiz-adv-x="483" 
d="M393 98q-10 -23 -28.5 -46.5t-37.5 -36.5q-28 -20 -68 -20h-99q-41 0 -69 20q-28 21 -48 48q-17 23 -17 57v191q0 34 17 57q20 27 48 48q28 20 69 20h100q41 0 69 -20q28 -21 48 -48q16 -23 16 -57v-129h-289v-60q0 -7 2 -11q5 -10 17 -22t24 -18q6 -3 13 -3h101
q6 0 12 3q10 5 23 17.5t18 22.5l6 11zM315 253v56q0 9 -1 11q-5 10 -18.5 22t-24.5 18q-6 3 -12 3h-99q-8 0 -12 -3q-31 -17 -42 -40q-2 -2 -2 -11v-56h211zM276 635h94l-105 -119h-82l-105 119h94l52 -65z" />
    <glyph glyph-name="Gcircumflex" unicode="&#x11c;" horiz-adv-x="592" 
d="M496 0h-80q-1 7 -4 19.5t-3 15.5q-3 -2 -12 -10t-14 -11.5t-13.5 -9t-17 -7.5t-18.5 -2h-154q-28 0 -58 17q-15 9 -39 32.5t-33 37.5q-15 22 -15 53v329q0 31 15 53q10 14 34 38.5t38 32.5q30 17 58 17h154q61 0 124 -82q12 -15 28 -50l-80 -23l-10 20q-8 15 -25 31.5
t-30 23.5q-4 2 -10 2h-147q-5 0 -9 -2q-12 -6 -30.5 -23.5t-25.5 -31.5q-2 -4 -2 -9v-323q0 -12 23 -34.5t37 -29.5q2 -1 8 -1h144q5 0 9 2q14 7 36.5 29.5t22.5 34.5v124h-137v78h219v-201q0 -35 17 -140zM214 659h-94l105 119h82l105 -119h-94l-52 65z" />
    <glyph glyph-name="gcircumflex" unicode="&#x11d;" horiz-adv-x="505" 
d="M155 516h-94l105 119h82l105 -119h-94l-52 65zM404 431l-8 -81v-396q0 -35 -16 -58q-20 -27 -48 -48q-29 -21 -69 -21h-100q-39 0 -68 21q-18 12 -38 37t-29 47l73 24q9 -18 27.5 -37t33.5 -19h100q6 0 12 3q10 6 26.5 21.5t17.5 23.5v8v77q-42 -38 -77 -38h-82
q-41 0 -69 20q-26 19 -48 49q-16 23 -16 58v187q0 35 16 58q22 30 48 49q28 20 69 20h82q35 0 81 -42l4 37h78zM319 126v179q-13 15 -40 36.5t-41 21.5h-78q-3 0 -12 -3q-31 -18 -43 -42q-2 -4 -2 -11v-183q0 -7 2 -11q5 -11 19 -24.5t24 -18.5q4 -2 12 -2h78q7 0 9 1
q45 23 72 57z" />
    <glyph glyph-name="Gbreve" unicode="&#x11e;" horiz-adv-x="592" 
d="M496 0h-80q-1 7 -4 19.5t-3 15.5q-3 -2 -12 -10t-14 -11.5t-13.5 -9t-17 -7.5t-18.5 -2h-154q-28 0 -58 17q-15 9 -39 32.5t-33 37.5q-15 22 -15 53v329q0 31 15 53q10 14 34 38.5t38 32.5q30 17 58 17h154q61 0 124 -82q12 -15 28 -50l-80 -23l-10 20q-8 15 -25 31.5
t-30 23.5q-4 2 -10 2h-147q-5 0 -9 -2q-12 -6 -30.5 -23.5t-25.5 -31.5q-2 -4 -2 -9v-323q0 -12 23 -34.5t37 -29.5q2 -1 8 -1h144q5 0 9 2q14 7 36.5 29.5t22.5 34.5v124h-137v78h219v-201q0 -35 17 -140zM315 750h48q0 -41 -28 -68t-70 -27q-41 0 -68.5 27t-27.5 68h49
q0 -21 13.5 -35.5t33.5 -14.5t35 14.5t15 35.5z" />
    <glyph glyph-name="gbreve" unicode="&#x11f;" horiz-adv-x="505" 
d="M404 431l-8 -81v-396q0 -35 -16 -58q-20 -27 -48 -48q-29 -21 -69 -21h-100q-39 0 -68 21q-18 12 -38 37t-29 47l73 24q9 -18 27.5 -37t33.5 -19h100q6 0 12 3q10 6 26.5 21.5t17.5 23.5v8v77q-42 -38 -77 -38h-82q-41 0 -69 20q-26 19 -48 49q-16 23 -16 58v187
q0 35 16 58q22 30 48 49q28 20 69 20h82q35 0 81 -42l4 37h78zM319 126v179q-13 15 -40 36.5t-41 21.5h-78q-3 0 -12 -3q-31 -18 -43 -42q-2 -4 -2 -11v-183q0 -7 2 -11q5 -11 19 -24.5t24 -18.5q4 -2 12 -2h78q7 0 9 1q45 23 72 57zM261 606h48q0 -41 -28 -68t-70 -27
q-41 0 -68.5 27t-27.5 68h49q0 -21 13.5 -35.5t33.5 -14.5t35 14.5t15 35.5z" />
    <glyph glyph-name="Gdotaccent" unicode="&#x120;" horiz-adv-x="592" 
d="M496 0h-80q-1 7 -4 19.5t-3 15.5q-3 -2 -12 -10t-14 -11.5t-13.5 -9t-17 -7.5t-18.5 -2h-154q-28 0 -58 17q-15 9 -39 32.5t-33 37.5q-15 22 -15 53v329q0 31 15 53q10 14 34 38.5t38 32.5q30 17 58 17h154q61 0 124 -82q12 -15 28 -50l-80 -23l-10 20q-8 15 -25 31.5
t-30 23.5q-4 2 -10 2h-147q-5 0 -9 -2q-12 -6 -30.5 -23.5t-25.5 -31.5q-2 -4 -2 -9v-323q0 -12 23 -34.5t37 -29.5q2 -1 8 -1h144q5 0 9 2q14 7 36.5 29.5t22.5 34.5v124h-137v78h219v-201q0 -35 17 -140zM306 664h-90v89h90v-89z" />
    <glyph glyph-name="gdotaccent" unicode="&#x121;" horiz-adv-x="505" 
d="M253 520h-90v89h90v-89zM404 431l-8 -81v-396q0 -35 -16 -58q-20 -27 -48 -48q-29 -21 -69 -21h-100q-39 0 -68 21q-18 12 -38 37t-29 47l73 24q9 -18 27.5 -37t33.5 -19h100q6 0 12 3q10 6 26.5 21.5t17.5 23.5v8v77q-42 -38 -77 -38h-82q-41 0 -69 20q-26 19 -48 49
q-16 23 -16 58v187q0 35 16 58q22 30 48 49q28 20 69 20h82q35 0 81 -42l4 37h78zM319 126v179q-13 15 -40 36.5t-41 21.5h-78q-3 0 -12 -3q-31 -18 -43 -42q-2 -4 -2 -11v-183q0 -7 2 -11q5 -11 19 -24.5t24 -18.5q4 -2 12 -2h78q7 0 9 1q45 23 72 57z" />
    <glyph glyph-name="Gcommaaccent" unicode="&#x122;" horiz-adv-x="592" 
d="M496 0h-80q-1 7 -4 19.5t-3 15.5q-3 -2 -12 -10t-14 -11.5t-13.5 -9t-17 -7.5t-18.5 -2h-154q-28 0 -58 17q-15 9 -39 32.5t-33 37.5q-15 22 -15 53v329q0 31 15 53q10 14 34 38.5t38 32.5q30 17 58 17h154q61 0 124 -82q12 -15 28 -50l-80 -23l-10 20q-8 15 -25 31.5
t-30 23.5q-4 2 -10 2h-147q-5 0 -9 -2q-12 -6 -30.5 -23.5t-25.5 -31.5q-2 -4 -2 -9v-323q0 -12 23 -34.5t37 -29.5q2 -1 8 -1h144q5 0 9 2q14 7 36.5 29.5t22.5 34.5v124h-137v78h219v-201q0 -35 17 -140zM254 -45l73 -25l-71 -103h-89z" />
    <glyph glyph-name="gcommaaccent" unicode="&#x123;" horiz-adv-x="505" 
d="M404 431l-8 -81v-396q0 -35 -16 -58q-20 -27 -48 -48q-29 -21 -69 -21h-100q-39 0 -68 21q-18 12 -38 37t-29 47l73 24q9 -18 27.5 -37t33.5 -19h100q6 0 12 3q10 6 26.5 21.5t17.5 23.5v8v77q-42 -38 -77 -38h-82q-41 0 -69 20q-26 19 -48 49q-16 23 -16 58v187
q0 35 16 58q22 30 48 49q28 20 69 20h82q35 0 81 -42l4 37h78zM319 126v179q-13 15 -40 36.5t-41 21.5h-78q-3 0 -12 -3q-31 -18 -43 -42q-2 -4 -2 -11v-183q0 -7 2 -11q5 -11 19 -24.5t24 -18.5q4 -2 12 -2h78q7 0 9 1q45 23 72 57zM225 502l-74 20l88 113h98z" />
    <glyph glyph-name="Hcircumflex" unicode="&#x124;" horiz-adv-x="565" 
d="M457 0h-82v261h-258v-261h-82v600h82v-261h258v261h82v-600zM192 660h-94l105 119h82l105 -119h-94l-52 65z" />
    <glyph glyph-name="hcircumflex" unicode="&#x125;" horiz-adv-x="479" 
d="M382 0h-78v307q0 9 -2 11q-16 28 -42 43q-6 2 -12 2h-65q-15 0 -43 -22t-37 -36v0v0v0v-1v0v0v-1v0v-1v0v-1v0v-1v-1v-1v0v-1v-1v-1v-1v-1v-1v-1v-1v-1v-1v-1v-1v-1v-1v-1v-1v-1v-1v-1v-1v-1v-1v-1v-1v-1v-1v-1v-1v-1v-1v-1v-1v-1v-1v-1v-1v-1v-1v-1v-1v-1v-1v-1v-1v-1
v-1v-1v-1v-1v-1v-1v-1v-1v-1v-1v-1v-2v-1v-1v-1v-1v-1v-1v-2v-1v-1v-1v-1v-1v-2v-1v-1v-1v-2v-1v-1v-1v-1v-2v-1v-1v-2v-1v-1v-1v-2v-1v-1v-2v-1v-1v-2v-1v-1v-2v-1v-1v-2v-1v-1v-2v-1v-2v-1v-1v-2v-1v-2v-1v-1v-2v-1v-2v-1v-2v-1v-2v-1v-2v-1v-1v-2v-1v-2v-1v-2v-1v-2v-1
v-2v-2v-1v-2v-1v-2v-1v-2v-1v-2v-2v-1v-2v-1v-2v-1v-2v-2v-1v-2v-2v-1v-2v-1v-2v-2v-1v-2v-2v-1v-2v-2v-1v-2v-2v-1v-2v-2v-1v-2v-2v-2v-1v-2v-2v-1v-2v-2v-2v-1v-2v-2v-2v-1v-2v-2v-2v-1v-2v-2v-2v-2v-1v-2v-2v-2v-2v-2v-1v-2v-2v-2v-2v-2v-1v-2v-2v-2v-2v-2v-8h-78v600h78
v-203q43 39 77 39h69q39 0 68 -21q26 -19 48 -49q17 -24 17 -57v-309zM160 660h-94l105 119h82l105 -119h-94l-52 65z" />
    <glyph glyph-name="Hbar" unicode="&#x126;" horiz-adv-x="578" 
d="M463 0h-82v261h-258v-261h-82v482h-43v73h43v45h82v-45h258v45h82v-45h43v-73h-43v-482zM123 339h258v143h-258v-143z" />
    <glyph glyph-name="hbar" unicode="&#x127;" horiz-adv-x="479" 
d="M383 0h-79v306q0 10 -1 11q-19 30 -42 43q-6 2 -13 2h-64q-16 0 -44 -22t-37 -36v-304h-78v482h-33v73h33v45h78v-45h142v-73h-142v-86q43 39 78 39h69q39 0 68 -21q22 -17 48 -49q17 -26 17 -57v-308z" />
    <glyph glyph-name="Itilde" unicode="&#x128;" horiz-adv-x="223" 
d="M117 0h-82v600h82v-600zM230 673l-74 -14q-11 26 -37 21l-72 -13q-41 -8 -76.5 8.5t-50.5 53.5l74 14q11 -26 37 -21l72 13q41 8 76.5 -8.5t50.5 -53.5z" />
    <glyph glyph-name="itilde" unicode="&#x129;" horiz-adv-x="211" 
d="M113 0h-78v431h78v-431zM228 543l-74 -14q-11 26 -37 21l-72 -13q-41 -8 -76.5 8.5t-50.5 53.5l74 14q11 -26 37 -21l72 13q41 8 76.5 -8.5t50.5 -53.5z" />
    <glyph glyph-name="Imacron" unicode="&#x12a;" horiz-adv-x="223" 
d="M117 0h-82v600h82v-600zM173 669h-202v75h202v-75z" />
    <glyph glyph-name="imacron" unicode="&#x12b;" horiz-adv-x="211" 
d="M113 0h-78v431h78v-431zM174 525h-202v75h202v-75z" />
    <glyph glyph-name="Ibreve" unicode="&#x12c;" horiz-adv-x="223" 
d="M117 0h-82v600h82v-600zM125 750h48q0 -41 -28 -68t-70 -27q-41 0 -68.5 27t-27.5 68h49q0 -21 13.5 -35.5t33.5 -14.5t35 14.5t15 35.5z" />
    <glyph glyph-name="ibreve" unicode="&#x12d;" horiz-adv-x="211" 
d="M113 0h-78v431h78v-431zM125 606h48q0 -41 -28 -68t-70 -27q-41 0 -68.5 27t-27.5 68h49q0 -21 13.5 -35.5t33.5 -14.5t35 14.5t15 35.5z" />
    <glyph glyph-name="Iogonek" unicode="&#x12e;" horiz-adv-x="223" 
d="M117 0h-82v600h82v-600zM7 -70l73 25l87 -128h-89z" />
    <glyph glyph-name="iogonek" unicode="&#x12f;" horiz-adv-x="216" 
d="M119 520h-90v89h90v-89zM113 0h-78v431h78v-431zM12 -70l73 25l87 -128h-89z" />
    <glyph glyph-name="Idotaccent" unicode="&#x130;" horiz-adv-x="223" 
d="M117 0h-82v600h82v-600zM120 664h-90v89h90v-89z" />
    <glyph glyph-name="dotlessi" unicode="&#x131;" horiz-adv-x="211" 
d="M113 0h-78v431h78v-431z" />
    <glyph glyph-name="IJ" unicode="&#x132;" horiz-adv-x="686" 
d="M117 0h-82v600h82v-600zM585 135q0 -31 -15 -53q-10 -14 -33.5 -38t-37.5 -32q-30 -17 -58 -17h-78q-63 0 -123 81q-12 17 -28 52l79 21q7 -17 27 -41t36 -33q4 -2 12 -2h70q4 0 8 2q13 6 36 28.5t23 32.5v464h82v-465z" />
    <glyph glyph-name="ij" unicode="&#x133;" horiz-adv-x="444" 
d="M117 520h-86v85h86v-85zM113 0h-78v431h78v-431zM349 520h-86v85h86v-85zM345 -45q0 -34 -17 -58q-22 -30 -48 -49q-29 -20 -68 -20h-75v74h74q11 0 12 1q26 15 41 43q2 2 2 11v474h79v-476z" />
    <glyph glyph-name="Jcircumflex" unicode="&#x134;" horiz-adv-x="467" 
d="M365 135q0 -31 -15 -53q-10 -14 -33.5 -38t-37.5 -32q-30 -17 -58 -17h-78q-63 0 -123 81q-12 17 -28 52l79 21q7 -17 27 -41t36 -33q4 -2 12 -2h70q4 0 8 2q13 6 36 28.5t23 32.5v464h82v-465zM271 660h-94l105 119h82l105 -119h-94l-52 65z" />
    <glyph glyph-name="jcircumflex" unicode="&#x135;" horiz-adv-x="225" 
d="M126 -45q0 -34 -17 -58q-22 -30 -48 -49q-29 -20 -68 -20h-75v74h74q10 0 12 1q26 15 41 43q2 2 2 11v474h79v-476zM33 516h-94l105 119h82l105 -119h-94l-52 65z" />
    <glyph glyph-name="Kcommaaccent" unicode="&#x136;" horiz-adv-x="517" 
d="M126 338l234 262h108l-273 -300l274 -300h-108l-235 261h-9v-261h-82v600h82v-262h9zM107 -45l73 -25l-71 -103h-89z" />
    <glyph glyph-name="kcommaaccent" unicode="&#x137;" horiz-adv-x="450" 
d="M402 0h-105l-179 191h-13v-191h-78v600h78v-336h12l162 167h104l-195 -202zM122 -45l73 -25l-71 -103h-89z" />
    <glyph glyph-name="kgreenlandic" unicode="&#x138;" horiz-adv-x="450" 
d="M402 0h-105l-179 191h-13v-191h-78v431h78v-167h12l162 167h105v-69h-68l-128 -133z" />
    <glyph glyph-name="Lacute" unicode="&#x139;" horiz-adv-x="475" 
d="M403 0h-362v600h82v-522h280v-78zM229 646l-74 20l88 113h98z" />
    <glyph glyph-name="lacute" unicode="&#x13a;" horiz-adv-x="234" 
d="M128 0h-78l-9 65v535h77v-523zM112 646l-74 20l88 113h98z" />
    <glyph glyph-name="Lcommaaccent" unicode="&#x13b;" horiz-adv-x="475" 
d="M397 0h-362v600h82v-522h280v-78zM182 -45l73 -25l-71 -103h-89z" />
    <glyph glyph-name="lcommaaccent" unicode="&#x13c;" horiz-adv-x="234" 
d="M128 0h-78l-9 65v535h77v-523zM72 -45l73 -25l-71 -103h-89z" />
    <glyph glyph-name="Lcaron" unicode="&#x13d;" horiz-adv-x="475" 
d="M290 521l-7 -59h-77l8 72v108h76v-121zM403 0h-362v600h82v-522h280v-78z" />
    <glyph glyph-name="lcaron" unicode="&#x13e;" horiz-adv-x="278" 
d="M271 521l-7 -59h-77l8 72v108h76v-121zM128 0h-78l-9 65v535h77v-523z" />
    <glyph glyph-name="Ldot" unicode="&#x13f;" horiz-adv-x="501" 
d="M397 0h-362v600h82v-522h280v-78zM361 256h-90v89h90v-89z" />
    <glyph glyph-name="ldot" unicode="&#x140;" horiz-adv-x="361" 
d="M128 0h-78l-9 65v535h77v-523zM299 258h-90v89h90v-89z" />
    <glyph glyph-name="Lslash" unicode="&#x141;" horiz-adv-x="497" 
d="M138 78h280v-78h-362v229l-60 -32l-33 61l93 50v292h82v-249l75 40l32 -61l-107 -57v-195z" />
    <glyph glyph-name="lslash" unicode="&#x142;" horiz-adv-x="284" 
d="M132 266v-190q0 -15 11 -77h-78q-1 7 -2.5 19t-3.5 18q-2 22 -2 28v161l-60 -31l-32 61l92 49v296h75v-256l82 44l33 -61z" />
    <glyph glyph-name="Nacute" unicode="&#x143;" horiz-adv-x="571" 
d="M463 0h-95l-252 458v-458h-81v600h97l250 -463v463h81v-600zM260 646l-74 20l88 113h98z" />
    <glyph glyph-name="nacute" unicode="&#x144;" horiz-adv-x="490" 
d="M393 0h-78v309q0 9 -1 11q-5 10 -18.5 23t-24.5 18q-4 2 -12 2h-71q-13 0 -40.5 -20t-36.5 -32v-311h-78v351l-8 80h78l4 -35q44 40 78 40h75q41 0 69 -20q28 -21 48 -48q16 -23 16 -57v-311zM223 502l-74 20l88 113h98z" />
    <glyph glyph-name="Ncommaaccent" unicode="&#x145;" horiz-adv-x="571" 
d="M469 0h-95l-252 458v-458h-81v600h97l250 -463v463h81v-600zM255 -45l73 -25l-71 -103h-89z" />
    <glyph glyph-name="ncommaaccent" unicode="&#x146;" horiz-adv-x="490" 
d="M393 0h-78v309q0 9 -1 11q-5 10 -18.5 23t-24.5 18q-4 2 -12 2h-71q-13 0 -40.5 -20t-36.5 -32v-311h-78v351l-8 80h78l4 -35q44 40 78 40h75q41 0 69 -20q28 -21 48 -48q16 -23 16 -57v-311zM205 -45l73 -25l-71 -103h-89z" />
    <glyph glyph-name="Ncaron" unicode="&#x147;" horiz-adv-x="571" 
d="M463 0h-95l-252 458v-458h-81v600h97l250 -463v463h81v-600zM305 779h94l-105 -119h-82l-105 119h94l52 -65z" />
    <glyph glyph-name="ncaron" unicode="&#x148;" horiz-adv-x="490" 
d="M393 0h-78v309q0 9 -1 11q-5 10 -18.5 23t-24.5 18q-4 2 -12 2h-71q-13 0 -40.5 -20t-36.5 -32v-311h-78v351l-8 80h78l4 -35q44 40 78 40h75q41 0 69 -20q28 -21 48 -48q16 -23 16 -57v-311zM276 635h94l-105 -119h-82l-105 119h94l52 -65z" />
    <glyph glyph-name="napostrophe" unicode="&#x149;" horiz-adv-x="490" 
d="M17 521l-7 -59h-77l8 72v108h76v-121zM393 0h-78v309q0 9 -1 11q-5 10 -18.5 23t-24.5 18q-4 2 -12 2h-71q-13 0 -40.5 -20t-36.5 -32v-311h-78v351l-8 80h78l4 -35q44 40 78 40h75q41 0 69 -20q28 -21 48 -48q16 -23 16 -57v-311z" />
    <glyph glyph-name="Eng" unicode="&#x14a;" horiz-adv-x="571" 
d="M469 -45q0 -34 -17 -58q-22 -30 -48 -49q-29 -20 -68 -20h-75v74h74q11 0 12 1q26 15 41 43q2 2 2 11v43h-16l-252 458v-458h-81v600h97l250 -463v463h81v-645z" />
    <glyph glyph-name="eng" unicode="&#x14b;" horiz-adv-x="490" 
d="M393 -45q0 -34 -17 -58q-22 -30 -48 -49q-29 -20 -68 -20h-75v74h74q11 0 12 1q26 15 41 43q3 3 3 11v352q0 9 -1 11q-14 24 -43 41q-6 2 -12 2h-71q-13 0 -40.5 -20t-36.5 -32v-311h-78v351l-8 80h78l4 -35q44 40 78 40h75q41 0 69 -20q28 -21 48 -48q16 -23 16 -57
v-356z" />
    <glyph glyph-name="Omacron" unicode="&#x14c;" horiz-adv-x="579" 
d="M483 135q0 -31 -15 -53q-9 -14 -33 -37.5t-39 -32.5q-30 -17 -58 -17h-158q-27 0 -57 17q-15 9 -39.5 32.5t-33.5 37.5q-14 20 -14 53v329q0 33 14 53q9 14 33.5 38t39.5 33q30 17 57 17h158q28 0 58 -17q14 -8 38 -32.5t34 -38.5q15 -22 15 -53v-329zM401 136v326
q0 5 -2 9q-8 14 -26 31t-29 23q-4 2 -9 2h-150q-5 0 -9 -2q-14 -7 -36 -29t-22 -34v-326q0 -10 22.5 -32.5t35.5 -28.5q4 -2 9 -2h150q5 0 9 2q14 7 35.5 28t21.5 33zM361 672h-202v71h202v-71z" />
    <glyph glyph-name="omacron" unicode="&#x14d;" horiz-adv-x="484" 
d="M392 120q0 -34 -16 -57q-20 -27 -48 -48q-28 -20 -69 -20h-100q-41 0 -69 20q-28 21 -48 48q-16 23 -16 57v191q0 34 16 57q20 27 48 48q28 20 69 20h100q41 0 69 -20q28 -21 48 -48q16 -23 16 -57v-191zM312 109q2 4 2 13v187q0 9 -3 14q-15 22 -39 36q-6 4 -14 4h-97
q-6 0 -12 -3q-28 -14 -43 -40q-2 -4 -2 -11v-187q0 -7 2 -11q5 -10 18.5 -22t24.5 -18q6 -3 12 -3h97q6 0 12 3q30 17 42 38zM309 528h-202v71h202v-71z" />
    <glyph glyph-name="Obreve" unicode="&#x14e;" horiz-adv-x="579" 
d="M483 135q0 -31 -15 -53q-9 -14 -33 -37.5t-39 -32.5q-30 -17 -58 -17h-158q-27 0 -57 17q-15 9 -39.5 32.5t-33.5 37.5q-14 20 -14 53v329q0 33 14 53q9 14 33.5 38t39.5 33q30 17 57 17h158q28 0 58 -17q14 -8 38 -32.5t34 -38.5q15 -22 15 -53v-329zM401 136v326
q0 5 -2 9q-8 14 -26 31t-29 23q-4 2 -9 2h-150q-5 0 -9 -2q-14 -7 -36 -29t-22 -34v-326q0 -10 22.5 -32.5t35.5 -28.5q4 -2 9 -2h150q5 0 9 2q14 7 35.5 28t21.5 33zM313 750h48q0 -41 -28 -68t-70 -27q-41 0 -68.5 27t-27.5 68h49q0 -21 13.5 -35.5t33.5 -14.5t35 14.5
t15 35.5z" />
    <glyph glyph-name="obreve" unicode="&#x14f;" horiz-adv-x="484" 
d="M392 120q0 -34 -16 -57q-20 -27 -48 -48q-28 -20 -69 -20h-100q-41 0 -69 20q-28 21 -48 48q-16 23 -16 57v191q0 34 16 57q20 27 48 48q28 20 69 20h100q41 0 69 -20q28 -21 48 -48q16 -23 16 -57v-191zM312 109q2 4 2 13v187q0 9 -3 14q-15 22 -39 36q-6 4 -14 4h-97
q-6 0 -12 -3q-28 -14 -43 -40q-2 -4 -2 -11v-187q0 -7 2 -11q5 -10 18.5 -22t24.5 -18q6 -3 12 -3h97q6 0 12 3q30 17 42 38zM267 606h48q0 -41 -28 -68t-70 -27q-41 0 -68.5 27t-27.5 68h49q0 -21 13.5 -35.5t33.5 -14.5t35 14.5t15 35.5z" />
    <glyph glyph-name="Ohungarumlaut" unicode="&#x150;" horiz-adv-x="579" 
d="M483 135q0 -31 -15 -53q-9 -14 -33 -37.5t-39 -32.5q-30 -17 -58 -17h-158q-27 0 -57 17q-15 9 -39.5 32.5t-33.5 37.5q-14 20 -14 53v329q0 33 14 53q9 14 33.5 38t39.5 33q30 17 57 17h158q28 0 58 -17q14 -8 38 -32.5t34 -38.5q15 -22 15 -53v-329zM401 136v326
q0 5 -2 9q-8 14 -26 31t-29 23q-4 2 -9 2h-150q-5 0 -9 -2q-14 -7 -36 -29t-22 -34v-326q0 -10 22.5 -32.5t35.5 -28.5q4 -2 9 -2h150q5 0 9 2q14 7 35.5 28t21.5 33zM217 654l-57 18l85 107h79zM334 654l-57 18l85 107h79z" />
    <glyph glyph-name="ohungarumlaut" unicode="&#x151;" horiz-adv-x="484" 
d="M392 120q0 -34 -16 -57q-20 -27 -48 -48q-28 -20 -69 -20h-100q-41 0 -69 20q-28 21 -48 48q-16 23 -16 57v191q0 34 16 57q20 27 48 48q28 20 69 20h100q41 0 69 -20q28 -21 48 -48q16 -23 16 -57v-191zM312 109q2 4 2 13v187q0 9 -3 14q-15 22 -39 36q-6 4 -14 4h-97
q-6 0 -12 -3q-28 -14 -43 -40q-2 -4 -2 -11v-187q0 -7 2 -11q5 -10 18.5 -22t24.5 -18q6 -3 12 -3h97q6 0 12 3q30 17 42 38zM167 510l-57 18l85 107h79zM284 510l-57 18l85 107h79z" />
    <glyph glyph-name="OE" unicode="&#x152;" horiz-adv-x="851" 
d="M471 261v-183h272v-78h-348v18q-3 -3 -9 -6q-30 -17 -58 -17h-148q-27 0 -57 17q-15 9 -39.5 32.5t-33.5 37.5q-14 20 -14 53v329q0 33 14 53q9 14 33.5 38t39.5 33q30 17 57 17h148q28 0 58 -17q3 -3 9 -6v18h348v-78h-272v-183h256v-78h-256zM391 136v326q0 5 -2 9
q-8 14 -26 31t-29 23q-4 2 -9 2h-140q-5 0 -9 -2q-14 -7 -36 -29t-22 -34v-326q0 -10 22.5 -32.5t35.5 -28.5q4 -2 9 -2h140q5 0 9 2q14 7 35.5 28t21.5 33z" />
    <glyph glyph-name="oe" unicode="&#x153;" horiz-adv-x="770" 
d="M681 98q-10 -23 -28.5 -46.5t-37.5 -36.5q-28 -20 -68 -20h-99q-41 0 -69 20q-14 10 -26 22q-10 -11 -25 -22q-28 -20 -69 -20h-100q-41 0 -69 20q-28 21 -48 48q-16 23 -16 57v191q0 34 16 57q20 27 48 48q28 20 69 20h100q41 0 69 -20q12 -9 25 -23q15 16 26 23
q28 20 69 20h100q41 0 69 -20q28 -21 48 -48q16 -23 16 -57v-129h-289v-60v-2v-3q0 -4 2 -6q5 -10 17 -22t24 -18q6 -3 13 -3h101q6 0 12 3q10 5 23 17.5t18 22.5l6 11zM312 109q2 6 2 11v189v2v2l-3 10q-15 22 -39 36q-6 4 -14 4h-97q-6 0 -12 -3q-28 -14 -43 -40
q-2 -4 -2 -11v-187q0 -7 2 -11q5 -10 18.5 -22t24.5 -18q6 -3 12 -3h97q6 0 12 3q30 17 42 38zM603 253v56q0 9 -1 11q-5 10 -18.5 22t-24.5 18q-6 3 -12 3h-99q-8 0 -12 -3q-31 -17 -42 -40q-2 -2 -2 -9v-58h211z" />
    <glyph glyph-name="Racute" unicode="&#x154;" horiz-adv-x="575" 
d="M491 0h-89l-141 250h-138v-250h-82v600h282q38 0 67 -21q11 -8 29 -26t24 -27q17 -26 17 -57v-90q0 -30 -17 -56q-6 -9 -24 -27t-29 -26q-22 -16 -45 -18zM378 381v86q0 10 -1 11q-6 10 -23 26.5t-26 17.5h-6h-199v-194h199q12 0 30.5 15t24.5 27q1 2 1 11zM236 645
l-74 20l88 113h98z" />
    <glyph glyph-name="racute" unicode="&#x155;" horiz-adv-x="416" 
d="M376 332l-74 -22q-28 53 -59 53h-54q-14 0 -42 -20.5t-37 -33.5v-309h-78v351l-7 80h77l5 -35q42 40 79 40h55q42 0 68 -19q17 -12 37.5 -37.5t29.5 -47.5zM223 502l-74 20l88 113h98z" />
    <glyph glyph-name="Rcommaaccent" unicode="&#x156;" horiz-adv-x="575" 
d="M491 0h-89l-141 250h-138v-250h-82v600h282q38 0 67 -21q11 -8 29 -26t24 -27q17 -26 17 -57v-90q0 -30 -17 -56q-6 -9 -24 -27t-29 -26q-22 -16 -45 -18zM378 381v86q0 10 -1 11q-6 10 -23 26.5t-26 17.5h-6h-199v-194h199q12 0 30.5 15t24.5 27q1 2 1 11zM134 -45
l73 -25l-71 -103h-89z" />
    <glyph glyph-name="rcommaaccent" unicode="&#x157;" horiz-adv-x="416" 
d="M376 332l-74 -22q-28 53 -59 53h-54q-14 0 -42 -20.5t-37 -33.5v-309h-78v351l-7 80h77l5 -35q42 40 79 40h55q42 0 68 -19q17 -12 37.5 -37.5t29.5 -47.5zM101 -45l73 -25l-71 -103h-89z" />
    <glyph glyph-name="Rcaron" unicode="&#x158;" horiz-adv-x="570" 
d="M491 0h-89l-141 250h-138v-250h-82v600h282q38 0 67 -21q11 -8 29 -26t24 -27q17 -26 17 -57v-90q0 -30 -17 -56q-6 -9 -24 -27t-29 -26q-22 -16 -45 -18zM378 381v86q0 10 -1 11q-6 10 -23 26.5t-26 17.5h-6h-199v-194h199q12 0 30.5 15t24.5 27q1 2 1 11zM295 778h94
l-105 -119h-82l-105 119h94l52 -65z" />
    <glyph glyph-name="rcaron" unicode="&#x159;" horiz-adv-x="416" 
d="M376 332l-74 -22q-28 53 -59 53h-54q-14 0 -42 -20.5t-37 -33.5v-309h-78v351l-7 80h77l5 -35q42 40 79 40h55q42 0 68 -19q17 -12 37.5 -37.5t29.5 -47.5zM256 635h94l-105 -119h-82l-105 119h94l52 -65z" />
    <glyph glyph-name="Sacute" unicode="&#x15a;" horiz-adv-x="570" 
d="M483 135q0 -33 -14 -53q-9 -14 -33.5 -37.5t-39.5 -32.5q-30 -17 -57 -17h-167q-63 0 -124 81q-8 11 -27 52l79 21l9 -18q9 -16 26.5 -32.5t30.5 -23.5q4 -2 9 -2h160q4 0 8 2q15 7 36.5 28t21.5 33v61q0 12 -7 22t-16 12l-272 70q-33 9 -52 38t-19 64v61q0 33 14 53
q9 14 33.5 38t39.5 33q30 17 57 17h147q62 0 123 -81q11 -13 28 -51l-80 -23l-10 20q-8 15 -26 32t-31 24q-3 1 -7 1h-139q-3 0 -9 -2q-13 -6 -35.5 -28.5t-22.5 -32.5v-57q0 -11 6.5 -20.5t15.5 -11.5l271 -72q33 -9 53 -37.5t20 -62.5v-68zM266 645l-74 20l88 113h98z" />
    <glyph glyph-name="sacute" unicode="&#x15b;" horiz-adv-x="469" 
d="M391 333l-75 -25q-11 20 -28 37.5t-31 17.5h-107q-8 0 -12 -2q-20 -10 -36 -34q-3 -5 -3 -13v-29q0 -9 7.5 -16t18.5 -8l166 -12q41 -3 70 -31t29 -67v-34q0 -31 -18 -57q-19 -28 -44 -45q-29 -20 -68 -20h-120q-39 0 -68 20q-39 27 -68 83l75 25q8 -15 22.5 -31.5
t24.5 -21.5q4 -2 12 -2h121q25 0 50 38q3 4 3 13v33q0 9 -7.5 16t-19.5 8l-166 11q-41 3 -69.5 31t-28.5 67v29q0 33 17 57q19 28 44 45q29 20 68 20h104q39 0 68 -20q40 -28 69 -83zM223 502l-74 20l88 113h98z" />
    <glyph glyph-name="Scircumflex" unicode="&#x15c;" horiz-adv-x="570" 
d="M483 135q0 -33 -14 -53q-9 -14 -33.5 -37.5t-39.5 -32.5q-30 -17 -57 -17h-167q-63 0 -124 81q-8 11 -27 52l79 21l9 -18q9 -16 26.5 -32.5t30.5 -23.5q4 -2 9 -2h160q4 0 8 2q15 7 36.5 28t21.5 33v61q0 12 -7 22t-16 12l-272 70q-33 9 -52 38t-19 64v61q0 33 14 53
q9 14 33.5 38t39.5 33q30 17 57 17h147q62 0 123 -81q11 -13 28 -51l-80 -23l-10 20q-8 15 -26 32t-31 24q-3 1 -7 1h-139q-3 0 -9 -2q-13 -6 -35.5 -28.5t-22.5 -32.5v-57q0 -11 6.5 -20.5t15.5 -11.5l271 -72q33 -9 53 -37.5t20 -62.5v-68zM205 660h-94l105 119h82
l105 -119h-94l-52 65z" />
    <glyph glyph-name="scircumflex" unicode="&#x15d;" horiz-adv-x="469" 
d="M391 333l-75 -25q-11 20 -28 37.5t-31 17.5h-107q-8 0 -12 -2q-20 -10 -36 -34q-3 -5 -3 -13v-29q0 -9 7.5 -16t18.5 -8l166 -12q41 -3 70 -31t29 -67v-34q0 -31 -18 -57q-19 -28 -44 -45q-29 -20 -68 -20h-120q-39 0 -68 20q-39 27 -68 83l75 25q8 -15 22.5 -31.5
t24.5 -21.5q4 -2 12 -2h121q25 0 50 38q3 4 3 13v33q0 9 -7.5 16t-19.5 8l-166 11q-41 3 -69.5 31t-28.5 67v29q0 33 17 57q19 28 44 45q29 20 68 20h104q39 0 68 -20q40 -28 69 -83zM155 516h-94l105 119h82l105 -119h-94l-52 65z" />
    <glyph glyph-name="Scedilla" unicode="&#x15e;" horiz-adv-x="570" 
d="M483 135q0 -33 -14 -53q-9 -14 -33.5 -37.5t-39.5 -32.5q-30 -17 -57 -17h-167q-63 0 -124 81q-8 11 -27 52l79 21l9 -18q9 -16 26.5 -32.5t30.5 -23.5q4 -2 9 -2h160q4 0 8 2q15 7 36.5 28t21.5 33v61q0 12 -7 22t-16 12l-272 70q-33 9 -52 38t-19 64v61q0 33 14 53
q9 14 33.5 38t39.5 33q30 17 57 17h147q62 0 123 -81q11 -13 28 -51l-80 -23l-10 20q-8 15 -26 32t-31 24q-3 1 -7 1h-139q-3 0 -9 -2q-13 -6 -35.5 -28.5t-22.5 -32.5v-57q0 -11 6.5 -20.5t15.5 -11.5l271 -72q33 -9 53 -37.5t20 -62.5v-68zM249 -45l73 -25l-71 -103h-89z
" />
    <glyph glyph-name="scedilla" unicode="&#x15f;" horiz-adv-x="469" 
d="M391 333l-75 -25q-11 20 -28 37.5t-31 17.5h-107q-8 0 -12 -2q-20 -10 -36 -34q-3 -5 -3 -13v-29q0 -9 7.5 -16t18.5 -8l166 -12q41 -3 70 -31t29 -67v-34q0 -31 -18 -57q-19 -28 -44 -45q-29 -20 -68 -20h-120q-39 0 -68 20q-39 27 -68 83l75 25q8 -15 22.5 -31.5
t24.5 -21.5q4 -2 12 -2h121q25 0 50 38q3 4 3 13v33q0 9 -7.5 16t-19.5 8l-166 11q-41 3 -69.5 31t-28.5 67v29q0 33 17 57q19 28 44 45q29 20 68 20h104q39 0 68 -20q40 -28 69 -83zM194 -45l73 -25l-71 -103h-89z" />
    <glyph glyph-name="Scaron" unicode="&#x160;" horiz-adv-x="570" 
d="M483 135q0 -33 -14 -53q-9 -14 -33.5 -37.5t-39.5 -32.5q-30 -17 -57 -17h-167q-63 0 -124 81q-8 11 -27 52l79 21l9 -18q9 -16 26.5 -32.5t30.5 -23.5q4 -2 9 -2h160q4 0 8 2q15 7 36.5 28t21.5 33v61q0 12 -7 22t-16 12l-272 70q-33 9 -52 38t-19 64v61q0 33 14 53
q9 14 33.5 38t39.5 33q30 17 57 17h147q62 0 123 -81q11 -13 28 -51l-80 -23l-10 20q-8 15 -26 32t-31 24q-3 1 -7 1h-139q-3 0 -9 -2q-13 -6 -35.5 -28.5t-22.5 -32.5v-57q0 -11 6.5 -20.5t15.5 -11.5l271 -72q33 -9 53 -37.5t20 -62.5v-68zM304 779h94l-105 -119h-82
l-105 119h94l52 -65z" />
    <glyph glyph-name="scaron" unicode="&#x161;" horiz-adv-x="469" 
d="M391 333l-75 -25q-11 20 -28 37.5t-31 17.5h-107q-8 0 -12 -2q-20 -10 -36 -34q-3 -5 -3 -13v-29q0 -9 7.5 -16t18.5 -8l166 -12q41 -3 70 -31t29 -67v-34q0 -31 -18 -57q-19 -28 -44 -45q-29 -20 -68 -20h-120q-39 0 -68 20q-39 27 -68 83l75 25q8 -15 22.5 -31.5
t24.5 -21.5q4 -2 12 -2h121q25 0 50 38q3 4 3 13v33q0 9 -7.5 16t-19.5 8l-166 11q-41 3 -69.5 31t-28.5 67v29q0 33 17 57q19 28 44 45q29 20 68 20h104q39 0 68 -20q40 -28 69 -83zM260 635h94l-105 -119h-82l-105 119h94l52 -65z" />
    <glyph glyph-name="Tcommaaccent" unicode="&#x162;" horiz-adv-x="504" 
d="M432 522h-171v-522h-82v522h-171v78h424v-78zM205 -45l73 -25l-71 -103h-89z" />
    <glyph glyph-name="tcommaaccent" unicode="&#x163;" horiz-adv-x="342" 
d="M272 358h-132v-229q0 -11 2 -13q15 -25 40 -40q6 -3 14 -3h70v-73h-71q-40 0 -68 20q-26 19 -48 49q-17 24 -17 58v231h-71v73h71v169h78v-169h132v-73zM164 -45l73 -25l-71 -103h-89z" />
    <glyph glyph-name="Tcaron" unicode="&#x164;" horiz-adv-x="504" 
d="M432 522h-171v-522h-82v522h-171v78h424v-78zM273 779h94l-105 -119h-82l-105 119h94l52 -65z" />
    <glyph glyph-name="tcaron" unicode="&#x165;" horiz-adv-x="408" 
d="M394 521l-7 -59h-77l8 72v108h76v-121zM272 358h-132v-229q0 -11 2 -13q15 -25 40 -40q6 -3 14 -3h70v-73h-71q-40 0 -68 20q-26 19 -48 49q-17 24 -17 58v231h-71v73h71v169h78v-169h132v-73z" />
    <glyph glyph-name="Tbar" unicode="&#x166;" horiz-adv-x="504" 
d="M358 264h-97v-264h-82v264h-103v73h103v185h-171v78h424v-78h-171v-185h97v-73z" />
    <glyph glyph-name="tbar" unicode="&#x167;" horiz-adv-x="342" 
d="M272 358h-132v-67h133v-73h-133v-90q0 -10 2 -12q14 -24 40 -41l5 -1q5 -2 9 -2h75v-72h-76q-42 0 -68 19t-48 49q-17 24 -17 59v91h-70v73h70v67h-71v73h71v169h78v-169h132v-73z" />
    <glyph glyph-name="Utilde" unicode="&#x168;" horiz-adv-x="554" 
d="M458 134q0 -32 -14 -52q-9 -14 -33 -37.5t-39 -32.5q-30 -17 -57 -17h-134q-28 0 -58 17q-15 9 -39 32.5t-33 37.5q-15 22 -15 52v466h82v-464q0 -10 23.5 -32.5t36.5 -28.5q4 -2 8 -2h124q5 0 9 2q13 6 35 28.5t22 32.5v464h82v-466zM400 673l-71 -15q-11 27 -42 22
l-70 -13q-41 -8 -76.5 8.5t-50.5 53.5l71 15q11 -27 42 -22l70 13q41 8 76.5 -8.5t50.5 -53.5z" />
    <glyph glyph-name="utilde" unicode="&#x169;" horiz-adv-x="488" 
d="M394 0h-78l-4 35q-43 -39 -78 -39h-75q-41 0 -69 20q-28 21 -48 48q-16 23 -16 57v310h78v-308q0 -9 1 -11q16 -27 43 -41q4 -2 12 -2h71q13 0 40.5 19.5t36.5 31.5v311h78v-351zM362 543l-71 -15q-11 27 -42 22l-70 -13q-41 -8 -76.5 8.5t-50.5 53.5l71 15
q11 -27 42 -22l70 13q41 8 76.5 -8.5t50.5 -53.5z" />
    <glyph glyph-name="Umacron" unicode="&#x16a;" horiz-adv-x="554" 
d="M458 134q0 -32 -14 -52q-9 -14 -33 -37.5t-39 -32.5q-30 -17 -57 -17h-134q-28 0 -58 17q-15 9 -39 32.5t-33 37.5q-15 22 -15 52v466h82v-464q0 -10 23.5 -32.5t36.5 -28.5q4 -2 8 -2h124q5 0 9 2q13 6 35 28.5t22 32.5v464h82v-466zM349 672h-202v71h202v-71z" />
    <glyph glyph-name="umacron" unicode="&#x16b;" horiz-adv-x="488" 
d="M394 0h-78l-4 35q-43 -39 -78 -39h-75q-41 0 -69 20q-28 21 -48 48q-16 23 -16 57v310h78v-308q0 -9 1 -11q16 -27 43 -41q4 -2 12 -2h71q13 0 40.5 19.5t36.5 31.5v311h78v-351zM304 528h-202v71h202v-71z" />
    <glyph glyph-name="Ubreve" unicode="&#x16c;" horiz-adv-x="554" 
d="M458 134q0 -32 -14 -52q-9 -14 -33 -37.5t-39 -32.5q-30 -17 -57 -17h-134q-28 0 -58 17q-15 9 -39 32.5t-33 37.5q-15 22 -15 52v466h82v-464q0 -10 23.5 -32.5t36.5 -28.5q4 -2 8 -2h124q5 0 9 2q13 6 35 28.5t22 32.5v464h82v-466zM303 750h48q0 -41 -28 -68t-70 -27
q-41 0 -68.5 27t-27.5 68h49q0 -21 13.5 -35.5t33.5 -14.5t35 14.5t15 35.5z" />
    <glyph glyph-name="ubreve" unicode="&#x16d;" horiz-adv-x="488" 
d="M394 0h-78l-4 35q-43 -39 -78 -39h-75q-41 0 -69 20q-28 21 -48 48q-16 23 -16 57v310h78v-308q0 -9 1 -11q16 -27 43 -41q4 -2 12 -2h71q13 0 40.5 19.5t36.5 31.5v311h78v-351zM261 606h48q0 -41 -28 -68t-70 -27q-41 0 -68.5 27t-27.5 68h49q0 -21 13.5 -35.5
t33.5 -14.5t35 14.5t15 35.5z" />
    <glyph glyph-name="Uring" unicode="&#x16e;" horiz-adv-x="554" 
d="M458 134q0 -32 -14 -52q-9 -14 -33 -37.5t-39 -32.5q-30 -17 -57 -17h-134q-28 0 -58 17q-15 9 -39 32.5t-33 37.5q-15 22 -15 52v466h82v-464q0 -10 23.5 -32.5t36.5 -28.5q4 -2 8 -2h124q5 0 9 2q13 6 35 28.5t22 32.5v464h82v-466zM341 739q0 -41 -28 -68t-70 -27
q-41 0 -68.5 27t-27.5 68t27.5 68t68.5 27q42 0 70 -27t28 -68zM293 739q0 20 -15 34.5t-35 14.5q-19 0 -33 -14.5t-14 -34.5q0 -21 13.5 -35.5t33.5 -14.5t35 14.5t15 35.5z" />
    <glyph glyph-name="uring" unicode="&#x16f;" horiz-adv-x="488" 
d="M394 0h-78l-4 35q-43 -39 -78 -39h-75q-41 0 -69 20q-28 21 -48 48q-16 23 -16 57v310h78v-308q0 -9 1 -11q16 -27 43 -41q4 -2 12 -2h71q13 0 40.5 19.5t36.5 31.5v311h78v-351zM306 599q0 -41 -28 -68t-70 -27q-41 0 -68.5 27t-27.5 68t27.5 68t68.5 27q42 0 70 -27
t28 -68zM258 599q0 20 -15 34.5t-35 14.5q-19 0 -33 -14.5t-14 -34.5q0 -21 13.5 -35.5t33.5 -14.5t35 14.5t15 35.5z" />
    <glyph glyph-name="Uhungarumlaut" unicode="&#x170;" horiz-adv-x="554" 
d="M458 134q0 -32 -14 -52q-9 -14 -33 -37.5t-39 -32.5q-30 -17 -57 -17h-134q-28 0 -58 17q-15 9 -39 32.5t-33 37.5q-15 22 -15 52v466h82v-464q0 -10 23.5 -32.5t36.5 -28.5q4 -2 8 -2h124q5 0 9 2q13 6 35 28.5t22 32.5v464h82v-466zM192 654l-57 18l85 107h79zM309 654
l-57 18l85 107h79z" />
    <glyph glyph-name="uhungarumlaut" unicode="&#x171;" horiz-adv-x="488" 
d="M394 0h-78l-4 35q-43 -39 -78 -39h-75q-41 0 -69 20q-28 21 -48 48q-16 23 -16 57v310h78v-308q0 -9 1 -11q16 -27 43 -41q4 -2 12 -2h71q13 0 40.5 19.5t36.5 31.5v311h78v-351zM156 510l-57 18l85 107h79zM273 510l-57 18l85 107h79z" />
    <glyph glyph-name="Uogonek" unicode="&#x172;" horiz-adv-x="554" 
d="M458 134q0 -32 -14 -52q-9 -14 -33 -37.5t-39 -32.5q-30 -17 -57 -17h-134q-28 0 -58 17q-15 9 -39 32.5t-33 37.5q-15 22 -15 52v466h82v-464q0 -10 23.5 -32.5t36.5 -28.5q4 -2 8 -2h124q5 0 9 2q13 6 35 28.5t22 32.5v464h82v-466zM179 -70l73 25l87 -128h-89z" />
    <glyph glyph-name="uogonek" unicode="&#x173;" horiz-adv-x="488" 
d="M394 0h-78l-4 35q-43 -39 -78 -39h-75q-41 0 -69 20q-28 21 -48 48q-16 23 -16 57v310h78v-308q0 -9 1 -11q16 -27 43 -41q4 -2 12 -2h71q13 0 40.5 19.5t36.5 31.5v311h78v-351zM169 -70l73 25l87 -128h-89z" />
    <glyph glyph-name="Wcircumflex" unicode="&#x174;" horiz-adv-x="734" 
d="M686 600l-138 -600h-103l-107 466l-108 -466h-103l-138 600h85l105 -491l111 491h95l111 -491l105 491h85zM286 660h-94l105 119h82l105 -119h-94l-52 65z" />
    <glyph glyph-name="wcircumflex" unicode="&#x175;" horiz-adv-x="670" 
d="M619 431l-128 -431h-93l-97 318l-93 -318h-93l-132 431h83l96 -335l92 335h95l96 -335l92 335h82zM249 516h-94l105 119h82l105 -119h-94l-52 65z" />
    <glyph glyph-name="Ycircumflex" unicode="&#x176;" horiz-adv-x="508" 
d="M467 600l-202 -345v-255h-82v255l-201 345h90l153 -262q-1 0 37.5 65.5t77.5 130.5l38 66h89zM172 660h-94l105 119h82l105 -119h-94l-52 65z" />
    <glyph glyph-name="ycircumflex" unicode="&#x177;" horiz-adv-x="430" 
d="M376 431l-207 -604h-78l58 173h-15l-148 431h84l112 -335l113 335h81zM129 516h-94l105 119h82l105 -119h-94l-52 65z" />
    <glyph glyph-name="Ydieresis" unicode="&#x178;" horiz-adv-x="500" 
d="M463 600l-202 -345v-255h-82v255l-201 345h90l153 -262q-1 0 37.5 65.5t77.5 130.5l38 66h89zM344 679h-83v89h83v-89zM183 679h-83v89h83v-89z" />
    <glyph glyph-name="Zacute" unicode="&#x179;" horiz-adv-x="501" 
d="M423 0h-388v63l290 459h-290v78h388v-65l-283 -457h283v-78zM248 646l-74 20l88 113h98z" />
    <glyph glyph-name="zacute" unicode="&#x17a;" horiz-adv-x="444" 
d="M364 0h-338v61l223 297h-231v73h335v-62l-223 -296h234v-73zM223 502l-74 20l88 113h98z" />
    <glyph glyph-name="Zdotaccent" unicode="&#x17b;" horiz-adv-x="501" 
d="M423 0h-388v63l290 459h-290v78h388v-65l-283 -457h283v-78zM273 664h-90v89h90v-89z" />
    <glyph glyph-name="zdotaccent" unicode="&#x17c;" horiz-adv-x="444" 
d="M364 0h-338v61l223 297h-231v73h335v-62l-223 -296h234v-73zM234 520h-90v89h90v-89z" />
    <glyph glyph-name="Zcaron" unicode="&#x17d;" horiz-adv-x="501" 
d="M423 0h-388v63l290 459h-290v78h388v-65l-283 -457h283v-78zM286 779h94l-105 -119h-82l-105 119h94l52 -65z" />
    <glyph glyph-name="zcaron" unicode="&#x17e;" horiz-adv-x="444" 
d="M364 0h-338v61l223 297h-231v73h335v-62l-223 -296h234v-73zM236 635h94l-105 -119h-82l-105 119h94l52 -65z" />
    <glyph glyph-name="longs" unicode="&#x17f;" horiz-adv-x="340" 
d="M288 532h-75q-12 0 -15 -2q-10 -6 -25 -20.5t-16 -23.5v-9v-477h-78v358h-71v73h71v48q0 35 16 58q20 27 48 48q29 20 69 20h76v-73z" />
    <glyph glyph-name="florin" unicode="&#x192;" horiz-adv-x="340" 
d="M288 532h-75q-12 0 -15 -2q-10 -5 -24.5 -20t-15.5 -24v-9v-46h76v-73h-76v-403q0 -34 -17 -58q-22 -30 -48 -49q-29 -20 -68 -20h-75v73h74q10 0 12 1q25 14 41 44q2 2 2 11v43v358h-71v73h71v48q0 35 16 58q20 27 48 48q29 20 69 20h76v-73z" />
    <glyph glyph-name="Scommaaccent" unicode="&#x218;" horiz-adv-x="570" 
d="M483 135q0 -33 -14 -53q-9 -14 -33.5 -37.5t-39.5 -32.5q-30 -17 -57 -17h-167q-63 0 -124 81q-8 11 -27 52l79 21l9 -18q9 -16 26.5 -32.5t30.5 -23.5q4 -2 9 -2h160q4 0 8 2q15 7 36.5 28t21.5 33v61q0 12 -7 22t-16 12l-272 70q-33 9 -52 38t-19 64v61q0 33 14 53
q9 14 33.5 38t39.5 33q30 17 57 17h147q62 0 123 -81q11 -13 28 -51l-80 -23l-10 20q-8 15 -26 32t-31 24q-3 1 -7 1h-139q-3 0 -9 -2q-13 -6 -35.5 -28.5t-22.5 -32.5v-57q0 -11 6.5 -20.5t15.5 -11.5l271 -72q33 -9 53 -37.5t20 -62.5v-68zM251 -45l73 -25l-71 -103h-89z
" />
    <glyph glyph-name="scommaaccent" unicode="&#x219;" horiz-adv-x="469" 
d="M391 333l-75 -25q-11 20 -28 37.5t-31 17.5h-107q-8 0 -12 -2q-20 -10 -36 -34q-3 -5 -3 -13v-29q0 -9 7.5 -16t18.5 -8l166 -12q41 -3 70 -31t29 -67v-34q0 -31 -18 -57q-19 -28 -44 -45q-29 -20 -68 -20h-120q-39 0 -68 20q-39 27 -68 83l75 25q8 -15 22.5 -31.5
t24.5 -21.5q4 -2 12 -2h121q25 0 50 38q3 4 3 13v33q0 9 -7.5 16t-19.5 8l-166 11q-41 3 -69.5 31t-28.5 67v29q0 33 17 57q19 28 44 45q29 20 68 20h104q39 0 68 -20q40 -28 69 -83zM198 -45l73 -25l-71 -103h-89z" />
    <glyph glyph-name="circumflex" unicode="&#x2c6;" horiz-adv-x="424" 
d="M155 516h-94l105 119h82l105 -119h-94l-52 65z" />
    <glyph glyph-name="caron" unicode="&#x2c7;" horiz-adv-x="424" 
d="M276 635h94l-105 -119h-82l-105 119h94l52 -65z" />
    <glyph glyph-name="breve" unicode="&#x2d8;" horiz-adv-x="404" 
d="M260 606h48q0 -41 -28 -68t-70 -27q-41 0 -68.5 27t-27.5 68h49q0 -21 13.5 -35.5t33.5 -14.5t35 14.5t15 35.5z" />
    <glyph glyph-name="dotaccent" unicode="&#x2d9;" horiz-adv-x="216" 
d="M120 520h-90v89h90v-89z" />
    <glyph glyph-name="ring" unicode="&#x2da;" horiz-adv-x="492" 
d="M306 599q0 -41 -28 -68t-70 -27q-41 0 -68.5 27t-27.5 68t27.5 68t68.5 27q42 0 70 -27t28 -68zM258 599q0 20 -15 34.5t-35 14.5q-19 0 -33 -14.5t-14 -34.5q0 -21 13.5 -35.5t33.5 -14.5t35 14.5t15 35.5z" />
    <glyph glyph-name="ogonek" unicode="&#x2db;" horiz-adv-x="406" 
d="M166 -70l73 25l87 -128h-89z" />
    <glyph glyph-name="tilde" unicode="&#x2dc;" horiz-adv-x="446" 
d="M350 543l-71 -15q-11 27 -42 22l-70 -13q-41 -8 -76.5 8.5t-50.5 53.5l71 15q11 -27 42 -22l70 13q41 8 76.5 -8.5t50.5 -53.5z" />
    <glyph glyph-name="hungarumlaut" unicode="&#x2dd;" horiz-adv-x="371" 
d="M187 510l-57 18l85 107h79zM304 510l-57 18l85 107h79z" />
    <glyph glyph-name="pi" unicode="&#x3c0;" horiz-adv-x="613" 
d="M450 0h-78l-10 65v293h-194v-358h-78v358h-79v73h516v-73h-87v-281z" />
    <glyph glyph-name="afii10023" unicode="&#x401;" horiz-adv-x="511" 
d="M409 0h-368v600h368v-78h-286v-183h270v-78h-270v-183h286v-78zM348 679h-83v89h83v-89zM187 679h-83v89h83v-89z" />
    <glyph glyph-name="afii10051" unicode="&#x402;" horiz-adv-x="631" 
d="M317 -5v77h73h4l3 1q15 7 37.5 29t22.5 34v145q0 17 -2 20q-9 14 -28 32t-30 24l-3 1h-4h-75l-8 -1q-50 -31 -66 -76v-281h-82v522h-151v78h384v-78h-151v-123q35 37 71 37h83q27 0 57 -17q14 -8 38 -32.5t34 -38.5q15 -22 15 -52v-161q0 -31 -15 -53q-9 -14 -33 -37.5
t-39 -32.5q-30 -17 -58 -17h-77z" />
    <glyph glyph-name="afii10052" unicode="&#x403;" horiz-adv-x="487" 
d="M426 522h-302v-522h-82v600h384v-78zM242 671l-74 20l88 113h98z" />
    <glyph glyph-name="afii10053" unicode="&#x404;" horiz-adv-x="545" 
d="M320 341l1 -77h-203v-128q0 -12 22 -33.5t37 -28.5h3q2 -1 4 -1h129l8 1q18 10 38 31.5t28 43.5l80 -21q-13 -32 -28 -52q-65 -81 -123 -81h-136q-28 0 -58 17q-15 9 -39 32.5t-33 37.5q-15 22 -15 53v330q0 30 15 52q10 14 34 38.5t38 32.5q30 17 57 17h137
q62 0 123 -81q11 -13 28 -51l-80 -23q-16 45 -66 76q-4 1 -8 1h-129q-2 0 -4 -1h-3q-11 -6 -30 -24t-28 -32q-1 -2 -1 -30v-99h202z" />
    <glyph glyph-name="afii10054" unicode="&#x405;" horiz-adv-x="570" 
d="M483 135q0 -33 -14 -53q-9 -14 -33.5 -37.5t-39.5 -32.5q-30 -17 -57 -17h-167q-63 0 -124 81q-8 11 -27 52l79 21l9 -18q9 -16 26.5 -32.5t30.5 -23.5q4 -2 9 -2h160q4 0 8 2q15 7 36.5 28t21.5 33v61q0 12 -7 22t-16 12l-272 70q-33 9 -52 38t-19 64v61q0 33 14 53
q9 14 33.5 38t39.5 33q30 17 57 17h147q62 0 123 -81q11 -13 28 -51l-80 -23l-10 20q-8 15 -26 32t-31 24q-3 1 -7 1h-139q-3 0 -9 -2q-13 -6 -35.5 -28.5t-22.5 -32.5v-57q0 -11 6.5 -20.5t15.5 -11.5l271 -72q33 -9 53 -37.5t20 -62.5v-68z" />
    <glyph glyph-name="afii10055" unicode="&#x406;" horiz-adv-x="223" 
d="M117 0h-82v600h82v-600z" />
    <glyph glyph-name="afii10056" unicode="&#x407;" horiz-adv-x="223" 
d="M117 0h-82v600h82v-600zM198 679h-83v89h83v-89zM37 679h-83v89h83v-89z" />
    <glyph glyph-name="afii10057" unicode="&#x408;" horiz-adv-x="467" 
d="M365 135q0 -31 -15 -53q-10 -14 -33.5 -38t-37.5 -32q-30 -17 -58 -17h-78q-63 0 -123 81q-12 17 -28 52l79 21q7 -17 27 -41t36 -33q4 -2 12 -2h70q4 0 8 2q13 6 36 28.5t23 32.5v464h82v-465z" />
    <glyph glyph-name="afii10058" unicode="&#x409;" horiz-adv-x="852" 
d="M365 0v522h-201v-387q0 -31 -15 -53q-10 -14 -33.5 -38t-37.5 -32q-30 -17 -58 -17h-63v78h58q5 0 6 1q13 6 37 29t24 33v464h365v-250h190q38 0 66 -20q11 -8 29.5 -26t24.5 -27q17 -26 17 -56v-90q0 -31 -17 -57q-6 -9 -24.5 -27.5t-28.5 -25.5q-29 -21 -67 -21h-272z
M692 132v87q0 9 -2 11q-7 12 -24.5 27t-29.5 15h-189v-194h195q9 1 25.5 17t22.5 26q2 2 2 11z" />
    <glyph glyph-name="afii10059" unicode="&#x40a;" horiz-adv-x="858" 
d="M371 0v267h-248v-267h-82v600h82v-255h248v255h82v-255h190q38 0 66 -20q11 -8 29.5 -26t24.5 -27q17 -26 17 -56v-85q0 -31 -17 -57q-6 -9 -24 -27.5t-29 -25.5q-29 -21 -67 -21h-272zM698 132v82q0 9 -2 11q-7 13 -24.5 27.5t-29.5 14.5h-189v-189h195q9 1 25.5 17
t22.5 26q2 2 2 11z" />
    <glyph glyph-name="afii10060" unicode="&#x40b;" horiz-adv-x="636" 
d="M539 0h-83v271q0 27 -2 30q-9 14 -27.5 32t-29.5 24l-3 1h-4h-75l-8 -1q-50 -31 -66 -76v-281h-82v522h-151v78h384v-78h-151v-123q35 37 71 37h83q27 0 57 -17q14 -8 38 -32.5t34 -38.5q15 -22 15 -52v-296z" />
    <glyph glyph-name="afii10061" unicode="&#x40c;" horiz-adv-x="522" 
d="M140 338l226 262h108l-265 -300l266 -300h-108l-227 261h-17v-261h-82v600h82v-262h17zM260 671l-74 20l88 113h98z" />
    <glyph glyph-name="afii10062" unicode="&#x40e;" horiz-adv-x="508" 
d="M273 775h48q0 -41 -28 -68t-70 -27q-41 0 -68.5 27t-27.5 68h49q0 -21 13.5 -35.5t33.5 -14.5t35 14.5t15 35.5zM455 600l-255 -600h-78l69 177h-23l-179 423h87l146 -345l146 345h87z" />
    <glyph glyph-name="afii10145" unicode="&#x40f;" horiz-adv-x="565" 
d="M463 0h-169v-117h-82v117h-171v600h82v-522h258v522h82v-600z" />
    <glyph glyph-name="afii10017" unicode="&#x410;" horiz-adv-x="566" 
d="M517 0h-88l-45 134h-260l-46 -134h-87l209 600h108zM358 211l-104 305l-104 -305h208z" />
    <glyph glyph-name="afii10018" unicode="&#x411;" horiz-adv-x="538" 
d="M41 0v600h377v-78h-295v-172h200q38 0 66 -20q11 -8 29.5 -26t24.5 -27q17 -26 17 -56v-90q0 -31 -17 -57q-6 -9 -24 -27.5t-29 -25.5q-29 -21 -67 -21h-282zM378 132v87q0 9 -2 11q-7 12 -24.5 27t-29.5 15h-199v-194h205q9 1 25.5 17t22.5 26q2 2 2 11z" />
    <glyph glyph-name="afii10019" unicode="&#x412;" horiz-adv-x="555" 
d="M459 130q0 -31 -16 -56q-6 -9 -24 -27.5t-29 -25.5q-29 -21 -67 -21h-282v600h282q37 0 67 -22q11 -8 29 -25.5t24 -26.5q16 -23 16 -58v-73q0 -30 -11 -48t-37 -43q26 -24 37 -42.5t11 -48.5v-83zM377 397v70q0 8 -2 10q-8 14 -24 29.5t-29 15.5h-199v-180h200
q12 0 29 15.5t23 28.5q2 4 2 11zM377 132v80q0 6 -2 10q-5 10 -18 23.5t-24 18.5q-1 1 -10 1h-200v-187h199q13 0 30 15.5t23 28.5q2 4 2 10z" />
    <glyph glyph-name="afii10020" unicode="&#x413;" horiz-adv-x="487" 
d="M426 522h-302v-522h-82v600h384v-78z" />
    <glyph glyph-name="afii10021" unicode="&#x414;" horiz-adv-x="615" 
d="M558 78l-25 -184h-79l13 106h-404v-106h-82v184h44q14 0 16 1q16 7 37.5 26.5t23.5 35.5l54 459h331v-522h71zM166 87l-7 -9h246v444h-172l-49 -382q-4 -32 -18 -53z" />
    <glyph glyph-name="afii10022" unicode="&#x415;" horiz-adv-x="511" 
d="M409 0h-368v600h368v-78h-286v-183h270v-78h-270v-183h286v-78z" />
    <glyph glyph-name="afii10024" unicode="&#x416;" horiz-adv-x="817" 
d="M429 338l231 262h108l-270 -300l271 -300h-108l-232 261h-12v-261h-82v261h-12l-232 -261h-108l271 300l-270 300h108l231 -262h12v262h82v-262h12z" />
    <glyph glyph-name="afii10025" unicode="&#x417;" horiz-adv-x="528" 
d="M434 124q0 -31 -17 -57q-6 -9 -24.5 -27t-28.5 -26q-29 -21 -66 -21h-129q-59 0 -123 80q-18 22 -28 53l80 21q9 -17 10 -18q11 -17 28 -34.5t28 -22.5q4 -1 8 -1h125q13 0 29 15t24 29q2 2 2 10v85q0 8 -2 10q-6 13 -23 28.5t-29 15.5h-135v77h134q9 0 11 2q26 13 42 41
q2 2 2 11v77q0 9 -2 11q-16 28 -42 43q-2 1 -11 1h-125l-8 -1q-13 -7 -30.5 -23.5t-25.5 -31.5q0 -1 -4 -8.5t-6 -11.5l-80 21q19 40 28 52q33 45 66 65q26 16 57 16h129q37 0 66 -21q10 -7 28.5 -26t24.5 -28q17 -26 17 -56v-81q0 -20 -7.5 -37t-15.5 -26.5t-26 -26.5
q17 -17 26 -27t16 -27t7 -37v-88z" />
    <glyph glyph-name="afii10026" unicode="&#x418;" horiz-adv-x="571" 
d="M136 0h-95v600h81v-463l250 463h97v-600h-81v458z" />
    <glyph glyph-name="afii10027" unicode="&#x419;" horiz-adv-x="571" 
d="M130 0h-95v600h81v-463l250 463h97v-600h-81v458zM299 775h48q0 -41 -28 -68t-70 -27q-41 0 -68.5 27t-27.5 68h49q0 -21 13.5 -35.5t33.5 -14.5t35 14.5t15 35.5z" />
    <glyph glyph-name="afii10028" unicode="&#x41a;" horiz-adv-x="522" 
d="M140 338l226 262h108l-265 -300l266 -300h-108l-227 261h-17v-261h-82v600h82v-262h17z" />
    <glyph glyph-name="afii10029" unicode="&#x41b;" horiz-adv-x="575" 
d="M-43 -5v78h58q5 0 6 1q13 6 37 29t24 33v464h385v-600h-82v522h-221v-387q0 -31 -15 -53q-10 -14 -33.5 -38t-37.5 -32q-30 -17 -58 -17h-63z" />
    <glyph glyph-name="afii10030" unicode="&#x41c;" horiz-adv-x="670" 
d="M568 0h-80v477l-157 -322h-54l-155 322v-477h-81v600h104l160 -327l161 327h102v-600z" />
    <glyph glyph-name="afii10031" unicode="&#x41d;" horiz-adv-x="565" 
d="M463 0h-82v261h-258v-261h-82v600h82v-261h258v261h82v-600z" />
    <glyph glyph-name="afii10032" unicode="&#x41e;" horiz-adv-x="579" 
d="M483 135q0 -31 -15 -53q-9 -14 -33 -37.5t-39 -32.5q-30 -17 -58 -17h-158q-27 0 -57 17q-15 9 -39.5 32.5t-33.5 37.5q-14 20 -14 53v329q0 33 14 53q9 14 33.5 38t39.5 33q30 17 57 17h158q28 0 58 -17q14 -8 38 -32.5t34 -38.5q15 -22 15 -53v-329zM401 136v326
q0 5 -2 9q-8 14 -26 31t-29 23q-4 2 -9 2h-150q-5 0 -9 -2q-14 -7 -36 -29t-22 -34v-326q0 -10 22.5 -32.5t35.5 -28.5q4 -2 9 -2h150q5 0 9 2q14 7 35.5 28t21.5 33z" />
    <glyph glyph-name="afii10033" unicode="&#x41f;" horiz-adv-x="565" 
d="M463 0h-82v522h-258v-522h-82v600h422v-600z" />
    <glyph glyph-name="afii10034" unicode="&#x420;" horiz-adv-x="538" 
d="M460 379q0 -30 -17 -56q-6 -9 -24.5 -27t-29.5 -26q-28 -20 -66 -20h-200v-250h-82v600h282q38 0 67 -21q11 -8 29 -26t24 -27q17 -26 17 -57v-90zM378 381v87q0 5 -2 11q-3 10 -21 26t-28 17h-6h-198v-194h199q12 0 28 13.5t25 26.5q3 4 3 13z" />
    <glyph glyph-name="afii10035" unicode="&#x421;" horiz-adv-x="541" 
d="M463 128q-13 -32 -28 -52q-65 -81 -123 -81h-132q-28 0 -58 17q-15 9 -39 32.5t-33 37.5q-15 22 -15 53v330q0 30 15 52q10 14 34 38.5t38 32.5q30 17 57 17h133q62 0 123 -81q11 -13 28 -51l-80 -23q-16 45 -66 76q-4 1 -8 1h-125q-5 0 -9 -2q-11 -6 -28.5 -23
t-26.5 -31q-2 -3 -2 -13v-322q0 -12 21.5 -33t35.5 -28q4 -2 9 -2h125q6 0 10 2q18 10 37 31t27 43z" />
    <glyph glyph-name="afii10036" unicode="&#x422;" horiz-adv-x="504" 
d="M432 522h-171v-522h-82v522h-171v78h424v-78z" />
    <glyph glyph-name="afii10037" unicode="&#x423;" horiz-adv-x="500" 
d="M455 600l-255 -600h-78l69 177h-23l-179 423h87l146 -345l146 345h87z" />
    <glyph glyph-name="afii10038" unicode="&#x424;" horiz-adv-x="594" 
d="M294 -94h-56v89h-58q-27 0 -57 17q-15 9 -39.5 32.5t-33.5 37.5q-14 20 -14 53v329q0 33 14 53q9 14 33.5 38t39.5 33q30 17 57 17h58v79h56v-79h59q28 0 58 -17q14 -8 38 -32.5t34 -38.5q15 -22 15 -53v-329q0 -31 -15 -53q-9 -14 -33 -37.5t-39 -32.5q-30 -17 -58 -17
h-59v-89zM416 136v326q0 7 -1 8q-9 14 -28 32t-30 24h-3q-2 1 -4 1h-56v-454h56q2 0 4 1h3q15 7 37 28.5t22 33.5zM178 74h2q3 -1 5 -1h53v454h-53q-2 0 -5 -1h-2q-14 -7 -37 -29.5t-23 -34.5v-326q0 -10 23.5 -33t36.5 -29z" />
    <glyph glyph-name="afii10039" unicode="&#x425;" 
d="M460 600l-186 -294l195 -306h-91l-149 236l-148 -236h-91l195 306l-186 294h90l140 -224l141 224h90z" />
    <glyph glyph-name="afii10040" unicode="&#x426;" horiz-adv-x="585" 
d="M528 78l-25 -184h-79l13 106h-396v600h82v-522h248v522h82v-522h75z" />
    <glyph glyph-name="afii10041" unicode="&#x427;" horiz-adv-x="538" 
d="M378 328v272h82v-600h-82v250h-200q-38 0 -66 20q-11 8 -29.5 26t-24.5 27q-17 26 -17 56v221h82v-219q0 -9 2 -11q7 -13 24.5 -27.5t29.5 -14.5h199z" />
    <glyph glyph-name="afii10042" unicode="&#x428;" horiz-adv-x="641" 
d="M457 600h82v-600h-498v600h82v-522h124v522h82v-522h128v522z" />
    <glyph glyph-name="afii10043" unicode="&#x429;" horiz-adv-x="664" 
d="M607 78l-24 -184h-79l12 106h-475v600h82v-522h124v522h82v-522h128v522h82v-522h68z" />
    <glyph glyph-name="afii10044" unicode="&#x42a;" horiz-adv-x="597" 
d="M100 0v522h-118v78h200v-250h200q38 0 66 -20q11 -8 29.5 -26t24.5 -27q17 -26 17 -56v-90q0 -31 -17 -57q-6 -9 -24 -27.5t-29 -25.5q-29 -21 -67 -21h-282zM437 132v87q0 9 -2 11q-7 12 -24.5 27t-29.5 15h-199v-194h205q9 1 25.5 17t22.5 26q2 2 2 11z" />
    <glyph glyph-name="afii10045" unicode="&#x42b;" horiz-adv-x="740" 
d="M41 0v600h82v-250h200q38 0 66 -20q11 -8 29.5 -26t24.5 -27q17 -26 17 -56v-90q0 -31 -17 -57q-6 -9 -24 -27.5t-29 -25.5q-29 -21 -67 -21h-282zM378 132v87q0 9 -2 11q-7 12 -24.5 27t-29.5 15h-199v-194h205q9 1 25.5 17t22.5 26q2 2 2 11zM638 0h-82v600h82v-600z
" />
    <glyph glyph-name="afii10046" unicode="&#x42c;" horiz-adv-x="538" 
d="M41 0v600h82v-250h200q38 0 66 -20q11 -8 29.5 -26t24.5 -27q17 -26 17 -56v-90q0 -31 -17 -57q-6 -9 -24 -27.5t-29 -25.5q-29 -21 -67 -21h-282zM378 132v87q0 9 -2 11q-7 12 -24.5 27t-29.5 15h-199v-194h205q9 1 25.5 17t22.5 26q2 2 2 11z" />
    <glyph glyph-name="afii10047" unicode="&#x42d;" horiz-adv-x="538" 
d="M164 264l1 77h202v99q0 28 -1 30q-9 14 -28 32t-30 24h-2q-3 1 -5 1h-129l-8 -1q-50 -31 -66 -76l-80 23q17 38 28 51q61 81 123 81h137q27 0 57 -17q14 -8 38 -32.5t34 -38.5q15 -22 15 -52v-330q0 -31 -15 -53q-9 -14 -33 -37.5t-39 -32.5q-30 -17 -58 -17h-136
q-58 0 -123 81q-15 20 -28 52l80 21q8 -22 28 -43.5t38 -31.5q4 -1 8 -1h129q2 0 5 1h2q15 7 37 28.5t22 33.5v128h-203z" />
    <glyph glyph-name="afii10048" unicode="&#x42e;" horiz-adv-x="728" 
d="M123 0h-82v600h82v-261h82v125q0 33 14 53q9 14 33.5 38t39.5 33q30 17 57 17h138q28 0 58 -17q14 -8 38 -32.5t34 -38.5q15 -22 15 -53v-329q0 -31 -15 -53q-9 -14 -33 -37.5t-39 -32.5q-30 -17 -58 -17h-138q-27 0 -57 17q-15 9 -39.5 32.5t-33.5 37.5q-14 20 -14 53
v126h-82v-261zM550 136v326q0 7 -1 8q-9 14 -28 32t-30 24h-3q-2 1 -4 1h-130q-2 0 -4 -1h-3q-14 -7 -37 -29.5t-23 -34.5v-326q0 -10 23.5 -33t36.5 -29h3q2 -1 4 -1h130q2 0 4 1h3q15 7 37 28.5t22 33.5z" />
    <glyph glyph-name="afii10049" unicode="&#x42f;" horiz-adv-x="562" 
d="M92 0h-89l146 252q-23 2 -45 18q-10 8 -28.5 26t-24.5 27q-17 26 -17 56v90q0 31 17 57q6 9 24.5 27t28.5 26q29 21 67 21h282v-600h-82v250h-138zM116 467v-86q0 -9 1 -11q6 -12 24.5 -27t30.5 -15h199v194h-199h-6q-9 -1 -26 -17.5t-23 -26.5q-1 -1 -1 -11z" />
    <glyph glyph-name="afii10065" unicode="&#x430;" horiz-adv-x="482" 
d="M388 0h-77l-5 34q-46 -39 -78 -39h-88q-40 0 -68 20q-27 20 -47 47q-17 23 -17 57v19q0 34 17 57q20 27 47 47q26 19 68 19h162v49q0 8 -3 13q-15 24 -41 37q-6 3 -12 3h-94q-20 0 -46 -34l-13 -18l-73 22q9 21 29.5 46.5t36.5 37.5q28 19 69 19h92q41 0 69 -20
q30 -22 48 -47q16 -23 16 -58v-232zM302 120v70h-161q-6 0 -12 -2q-11 -6 -23.5 -18.5t-17.5 -22.5q-2 -4 -2 -10v-17q0 -6 2 -10q11 -22 41 -39q9 -3 12 -3h84q5 0 9 2q49 23 68 50z" />
    <glyph glyph-name="afii10066" unicode="&#x431;" horiz-adv-x="482" 
d="M257 436q41 0 69 -20q28 -21 48 -48q16 -23 16 -57v-191q0 -34 -16 -57q-20 -27 -48 -48q-28 -20 -69 -20h-100q-41 0 -69 20q-28 21 -48 48q-16 23 -16 57v359q0 35 16 58q20 27 48 48q29 20 69 20h120l-23 -73h-96q-12 0 -15 -2q-10 -6 -25 -20.5t-16 -23.5v-89
q43 39 77 39h78zM256 363h-74q-15 0 -43 -22t-37 -36v-183q0 -7 2 -11q11 -22 43 -40q9 -3 12 -3h97q3 0 12 3q11 6 27 20.5t17 22.5v195q0 9 -1 11q-15 26 -43 40q-6 3 -12 3z" />
    <glyph glyph-name="afii10067" unicode="&#x432;" horiz-adv-x="478" 
d="M25 431h223q40 0 68 -20q27 -20 47 -47q17 -23 17 -57v-5q0 -34 -17 -57q-7 -10 -26 -27q28 -26 34 -34q17 -23 17 -57v-5q0 -34 -17 -57q-20 -27 -47 -47q-28 -20 -68 -20h-231v433zM250 358h-147v-107h147q6 0 12 2q23 13 37 41q2 4 2 9v3q0 6 -2 10q-14 27 -37 39
q-6 3 -12 3zM259 181h-156v-110h156q6 0 12 2q23 13 37 41q2 4 2 10v5q0 6 -2 10q-14 27 -37 39q-6 3 -12 3z" />
    <glyph glyph-name="afii10068" unicode="&#x433;" horiz-adv-x="399" 
d="M339 431v-73h-236v-358h-78v431h314z" />
    <glyph glyph-name="afii10069" unicode="&#x434;" horiz-adv-x="529" 
d="M467 73l-26 -179h-75l14 106h-319v-105h-78v178h35q13 0 17 2q27 14 40 41q3 5 4 14l44 301h279v-358h65zM157 127q-6 -33 -20 -54h187v285h-131z" />
    <glyph glyph-name="afii10070" unicode="&#x435;" horiz-adv-x="483" 
d="M396 98q-10 -23 -28.5 -46.5t-37.5 -36.5q-28 -20 -68 -20h-102q-41 0 -69 20q-28 21 -48 48q-17 23 -17 57v191q0 34 17 57q20 27 48 48q28 20 69 20h100q41 0 69 -20q28 -21 48 -48q16 -23 16 -57v-129h-289v-60q0 -9 2 -11q7 -13 24 -28t30 -15h104q3 0 12 3
q10 5 23 17.5t18 22.5l6 11zM315 253v56q0 9 -1 11q-13 23 -43 40q-9 3 -12 3h-99q-13 0 -30 -15t-24 -28q-2 -2 -2 -11v-56h211z" />
    <glyph glyph-name="afii10072" unicode="&#x436;" horiz-adv-x="700" 
d="M652 0h-105l-179 191h-13v-191h-78v191h-13l-179 -191h-105l214 229l-195 202h104l162 -167h12v167h78v-167h12l162 167h104l-195 -202z" />
    <glyph glyph-name="afii10073" unicode="&#x437;" horiz-adv-x="477" 
d="M395 302q0 -34 -17 -57q-9 -12 -30 -30q16 -14 31 -31q17 -23 17 -57v-7q0 -33 -17 -57q-20 -27 -48 -48q-28 -20 -69 -20h-102q-40 0 -68 20q-26 19 -47 48q-11 15 -19 35l73 24q20 -37 47 -51q9 -3 12 -3h103q3 0 12 3q28 16 42 40q2 2 2 11v4q0 6 -2 10q-14 28 -37 41
q-6 2 -12 2h-110v71h109q6 0 12 2q25 14 38 41q2 4 2 10v6q0 9 -2 11q-14 24 -42 40q-9 3 -12 3h-100q-16 0 -33 -17t-27 -37l-73 23q9 21 29 46.5t38 37.5q28 20 68 20h99q41 0 69 -20q28 -21 48 -48q16 -23 16 -57v-9z" />
    <glyph glyph-name="afii10074" unicode="&#x438;" horiz-adv-x="479" 
d="M25 431h78v-295l201 295h78v-431h-78v297l-201 -297h-78v431z" />
    <glyph glyph-name="afii10075" unicode="&#x439;" horiz-adv-x="479" 
d="M25 431h78v-295l201 295h78v-431h-78v297l-201 -297h-78v431zM253 606h48q0 -41 -28 -68t-70 -27q-41 0 -68.5 27t-27.5 68h49q0 -21 13.5 -35.5t33.5 -14.5t35 14.5t15 35.5z" />
    <glyph glyph-name="afii10076" unicode="&#x43a;" horiz-adv-x="450" 
d="M402 0h-105l-179 191h-13v-191h-78v431h78v-167h12l162 167h104l-195 -202z" />
    <glyph glyph-name="afii10077" unicode="&#x43b;" horiz-adv-x="499" 
d="M402 431v-431h-78v358h-173v-238q0 -34 -17 -58q-22 -30 -48 -49q-29 -20 -78 -20h-35v72q53 0 57 3q25 14 41 44q2 2 2 11v308h329z" />
    <glyph glyph-name="afii10078" unicode="&#x43c;" horiz-adv-x="554" 
d="M273 103h-65l-105 202v-305h-78v431h94l121 -242l122 242h95v-431h-78v307z" />
    <glyph glyph-name="afii10079" unicode="&#x43d;" horiz-adv-x="479" 
d="M304 431h78v-431h-78v184h-201v-184h-78v431h78v-174h201v174z" />
    <glyph glyph-name="afii10080" unicode="&#x43e;" horiz-adv-x="484" 
d="M392 120q0 -34 -16 -57q-20 -27 -48 -48q-28 -20 -69 -20h-100q-41 0 -69 20q-28 21 -48 48q-16 23 -16 57v191q0 34 16 57q20 27 48 48q28 20 69 20h100q41 0 69 -20q28 -21 48 -48q16 -23 16 -57v-191zM312 109q2 4 2 13v187q0 9 -3 14q-15 22 -39 36q-6 4 -14 4h-97
q-6 0 -12 -3q-28 -14 -43 -40q-2 -4 -2 -11v-187q0 -7 2 -11q5 -10 18.5 -22t24.5 -18q6 -3 12 -3h97q6 0 12 3q30 17 42 38z" />
    <glyph glyph-name="afii10081" unicode="&#x43f;" horiz-adv-x="479" 
d="M25 431h357v-431h-78v358h-201v-358h-78v431z" />
    <glyph glyph-name="afii10082" unicode="&#x440;" horiz-adv-x="493" 
d="M398 122q0 -35 -17 -58q-22 -30 -48 -49q-28 -20 -68 -20h-78q-35 0 -77 38v-206h-78v524l-7 80h78l4 -37q44 42 80 42h78q39 0 68 -21q28 -21 48 -48q17 -24 17 -58v-187zM320 124v183q0 9 -2 11q-6 11 -18.5 23.5t-23.5 18.5q-9 3 -12 3h-74q-14 0 -42.5 -21.5
t-37.5 -34.5v-182q9 -13 37.5 -35t42.5 -22h74q6 0 12 2q11 6 24 19.5t18 23.5q2 4 2 11z" />
    <glyph glyph-name="afii10083" unicode="&#x441;" horiz-adv-x="477" 
d="M395 98q-8 -20 -19 -35q-21 -29 -47 -48q-28 -20 -68 -20h-102q-41 0 -69 20q-28 21 -48 48q-16 23 -16 57v191q0 34 16 57q20 27 48 48q28 20 69 20h99q40 0 68 -20q18 -12 38 -37.5t29 -46.5l-73 -23q-10 20 -27 37t-33 17h-100q-6 0 -12 -3q-29 -15 -42 -40
q-2 -4 -2 -11v-187q0 -7 2 -11q13 -25 42 -40q6 -3 12 -3h103q3 0 12 3q27 14 47 51z" />
    <glyph glyph-name="afii10084" unicode="&#x442;" horiz-adv-x="425" 
d="M355 431v-73h-139v-358h-78v358h-137v73h354z" />
    <glyph glyph-name="afii10085" unicode="&#x443;" horiz-adv-x="430" 
d="M376 431l-207 -604h-78l58 173h-15l-148 431h84l112 -335l113 335h81z" />
    <glyph glyph-name="afii10086" unicode="&#x444;" horiz-adv-x="494" 
d="M187 -172v167h-28q-41 0 -69 20q-28 21 -48 48q-16 23 -16 57v191q0 34 16 57q20 27 48 48q28 20 69 20h28v164h56v-164h26q41 0 69 -20q28 -21 48 -48q16 -23 16 -57v-191q0 -34 -16 -57q-20 -27 -48 -48q-28 -20 -69 -20h-26v-167h-56zM149 71q9 -3 12 -3h26v295h-26
q-3 0 -12 -3q-30 -17 -43 -40q-2 -4 -2 -11v-187q0 -9 2 -11q13 -23 43 -40zM324 114v195q0 9 -1 11q-13 23 -43 40q-9 3 -12 3h-25v-295h25q3 0 12 3q11 6 27 20.5t17 22.5z" />
    <glyph glyph-name="afii10087" unicode="&#x445;" horiz-adv-x="449" 
d="M387 0h-93l-104 156l-104 -156h-93l151 221l-146 210h95l97 -149l94 149h95l-143 -210z" />
    <glyph glyph-name="afii10088" unicode="&#x446;" horiz-adv-x="505" 
d="M443 73l-26 -179h-75l14 106h-331v431h78v-358h191v358h78v-358h71z" />
    <glyph glyph-name="afii10089" unicode="&#x447;" horiz-adv-x="478" 
d="M18 431h78v-137q0 -6 2 -10q14 -27 41 -41q4 -2 12 -2h152v190h78v-431h-78v170h-153q-42 0 -68 19q-27 20 -47 47q-17 23 -17 57v138z" />
    <glyph glyph-name="afii10090" unicode="&#x448;" horiz-adv-x="579" 
d="M215 431h78v-358h111v358h78v-431h-457v431h78v-358h112v358z" />
    <glyph glyph-name="afii10091" unicode="&#x449;" horiz-adv-x="615" 
d="M215 431h78v-358h111v358h78v-358h71l-26 -179h-75l14 106h-441v431h78v-358h112v358z" />
    <glyph glyph-name="afii10092" unicode="&#x44a;" horiz-adv-x="516" 
d="M73 0v358h-90v73h168v-170h153q42 0 68 -19q27 -20 47 -47q17 -23 17 -57v-14q0 -34 -17 -57q-20 -27 -47 -47q-28 -20 -68 -20h-231zM303 190h-152v-117h152q3 0 12 3q30 17 41 39q2 4 2 10v12q0 6 -2 10q-5 10 -17.5 22.5t-23.5 18.5q-6 2 -12 2z" />
    <glyph glyph-name="afii10093" unicode="&#x44b;" horiz-adv-x="646" 
d="M25 0v431h78v-170h153q42 0 68 -19q27 -20 47 -47q17 -23 17 -57v-14q0 -34 -17 -57q-20 -27 -47 -47q-28 -20 -68 -20h-231zM255 190h-152v-117h152q3 0 12 3q30 17 41 39q2 4 2 10v12q0 6 -2 10q-5 10 -17.5 22.5t-23.5 18.5q-6 2 -12 2zM549 0h-78v431h78v-431z" />
    <glyph glyph-name="afii10094" unicode="&#x44c;" horiz-adv-x="462" 
d="M25 0v431h78v-170h153q42 0 68 -19q27 -20 47 -47q17 -23 17 -57v-14q0 -34 -17 -57q-20 -27 -47 -47q-28 -20 -68 -20h-231zM255 190h-152v-117h152q3 0 12 3q30 17 41 39q2 4 2 10v12q0 6 -2 10q-5 10 -17.5 22.5t-23.5 18.5q-6 2 -12 2z" />
    <glyph glyph-name="afii10095" unicode="&#x44d;" horiz-adv-x="477" 
d="M149 184v73h168v52q0 9 -2 11q-14 24 -42 40q-9 3 -12 3h-100q-16 0 -33 -17t-27 -37l-73 23q9 21 29 46.5t38 37.5q28 20 68 20h99q41 0 69 -20q28 -21 48 -48q16 -23 16 -57v-191q0 -34 -16 -57q-20 -27 -48 -48q-28 -20 -69 -20h-102q-40 0 -68 20q-26 19 -47 48
q-11 15 -19 35l73 24q20 -37 47 -51q9 -3 12 -3h103q3 0 12 3q28 16 42 40q2 2 2 11v62h-168z" />
    <glyph glyph-name="afii10096" unicode="&#x44e;" horiz-adv-x="653" 
d="M105 0h-78v431h78v-174h90v54q0 34 16 57q20 27 48 48q28 20 69 20h100q41 0 69 -20q28 -21 48 -48q16 -23 16 -57v-191q0 -34 -16 -57q-20 -27 -48 -48q-28 -20 -69 -20h-100q-41 0 -69 20q-28 21 -48 48q-16 23 -16 57v64h-90v-184zM483 114v195q0 9 -1 11
q-13 23 -43 40q-9 3 -12 3h-97q-3 0 -12 -3q-30 -17 -43 -40q-2 -4 -2 -11v-187q0 -9 2 -11q13 -23 43 -40q9 -3 12 -3h97q3 0 12 3q11 6 27 20.5t17 22.5z" />
    <glyph glyph-name="afii10097" unicode="&#x44f;" horiz-adv-x="478" 
d="M388 431v-431h-78v170h-112l-109 -170h-92l118 176q-17 5 -26 13q-27 20 -47 47q-17 23 -17 57v14q0 34 17 57q20 27 47 47q28 20 68 20h231zM158 241h152v117h-152q-3 0 -12 -3q-30 -17 -41 -39q-2 -4 -2 -10v-12q0 -6 2 -10q5 -10 17.5 -22.5t23.5 -18.5q6 -2 12 -2z
" />
    <glyph glyph-name="afii10071" unicode="&#x451;" horiz-adv-x="483" 
d="M393 98q-10 -23 -28.5 -46.5t-37.5 -36.5q-28 -20 -68 -20h-99q-41 0 -69 20q-28 21 -48 48q-17 23 -17 57v191q0 34 17 57q20 27 48 48q28 20 69 20h100q41 0 69 -20q28 -21 48 -48q16 -23 16 -57v-129h-289v-60q0 -7 2 -11q5 -10 17 -22t24 -18q6 -3 13 -3h101
q6 0 12 3q10 5 23 17.5t18 22.5l6 11zM315 253v56q0 9 -1 11q-5 10 -18.5 22t-24.5 18q-6 3 -12 3h-99q-8 0 -12 -3q-31 -17 -42 -40q-2 -2 -2 -11v-56h211zM333 520h-83v89h83v-89zM172 520h-83v89h83v-89z" />
    <glyph glyph-name="afii10099" unicode="&#x452;" horiz-adv-x="516" 
d="M140 0h-78v488h-71v73h71v39h78v-39h132v-73h-132v-91q43 39 77 39h69q39 0 68 -21q26 -19 48 -49q17 -24 17 -57v-354q0 -34 -17 -58q-22 -30 -48 -49q-29 -20 -78 -20h-55v72q74 1 77 3q25 14 41 44q2 2 2 11v349q0 9 -2 11q-16 28 -42 43q-6 2 -12 2h-65
q-15 0 -43 -22t-37 -36v-305z" />
    <glyph glyph-name="afii10100" unicode="&#x453;" horiz-adv-x="399" 
d="M339 431v-73h-236v-358h-78v431h314zM204 502l-74 20l88 113h98z" />
    <glyph glyph-name="afii10101" unicode="&#x454;" horiz-adv-x="477" 
d="M272 257v-73h-168v-62q0 -9 2 -11q14 -24 42 -40q9 -3 12 -3h103q3 0 12 3q27 14 47 51l73 -24q-8 -20 -19 -35q-21 -29 -47 -48q-28 -20 -68 -20h-102q-41 0 -69 20q-28 21 -48 48q-16 23 -16 57v191q0 34 16 57q20 27 48 48q28 20 69 20h99q40 0 68 -20
q18 -12 38 -37.5t29 -46.5l-73 -23q-10 20 -27 37t-33 17h-100q-3 0 -12 -3q-28 -16 -42 -40q-2 -2 -2 -11v-52h168z" />
    <glyph glyph-name="afii10102" unicode="&#x455;" horiz-adv-x="469" 
d="M391 333l-75 -25q-11 20 -28 37.5t-31 17.5h-107q-8 0 -12 -2q-20 -10 -36 -34q-3 -5 -3 -13v-29q0 -9 7.5 -16t18.5 -8l166 -12q41 -3 70 -31t29 -67v-34q0 -31 -18 -57q-19 -28 -44 -45q-29 -20 -68 -20h-120q-39 0 -68 20q-39 27 -68 83l75 25q8 -15 22.5 -31.5
t24.5 -21.5q4 -2 12 -2h121q25 0 50 38q3 4 3 13v33q0 9 -7.5 16t-19.5 8l-166 11q-41 3 -69.5 31t-28.5 67v29q0 33 17 57q19 28 44 45q29 20 68 20h104q39 0 68 -20q40 -28 69 -83z" />
    <glyph glyph-name="afii10103" unicode="&#x456;" horiz-adv-x="216" 
d="M119 520h-90v89h90v-89zM113 0h-78v431h78v-431z" />
    <glyph glyph-name="afii10104" unicode="&#x457;" horiz-adv-x="216" 
d="M113 0h-78v431h78v-431zM195 520h-83v89h83v-89zM34 520h-83v89h83v-89z" />
    <glyph glyph-name="afii10105" unicode="&#x458;" horiz-adv-x="225" 
d="M126 -45q0 -34 -17 -58q-22 -30 -48 -49q-29 -20 -78 -20h-55v72q74 1 77 3q25 14 41 44q2 2 2 11v473h78v-476zM132 520h-90v89h90v-89z" />
    <glyph glyph-name="afii10106" unicode="&#x459;" horiz-adv-x="741" 
d="M314 0v358h-168v-238q0 -34 -17 -58q-22 -30 -48 -49q-29 -20 -78 -20h-35v72q52 0 57 3q25 14 41 44q2 2 2 11v308h324v-170h143q42 0 68 -19q27 -20 47 -47q17 -23 17 -57v-14q0 -34 -17 -57q-20 -27 -47 -47q-28 -20 -68 -20h-221zM534 190h-142v-117h142q3 0 12 3
q30 17 41 39q2 4 2 10v12q0 6 -2 10q-5 10 -17.5 22.5t-23.5 18.5q-6 2 -12 2z" />
    <glyph glyph-name="afii10107" unicode="&#x45a;" horiz-adv-x="721" 
d="M294 0v184h-191v-184h-78v431h78v-174h191v174h78v-170h143q42 0 68 -19q27 -20 47 -47q17 -23 17 -57v-14q0 -34 -17 -57q-20 -27 -47 -47q-28 -20 -68 -20h-221zM514 190h-142v-117h142q3 0 12 3q30 17 41 39q2 4 2 10v12q0 6 -2 10q-5 10 -17.5 22.5t-23.5 18.5
q-6 2 -12 2z" />
    <glyph glyph-name="afii10108" unicode="&#x45b;" horiz-adv-x="516" 
d="M419 0h-78v307q0 9 -2 11q-16 28 -42 43q-6 2 -12 2h-65q-15 0 -43 -22t-37 -36v-305h-78v488h-71v73h71v39h78v-39h132v-73h-132v-91q43 39 77 39h69q39 0 68 -21q26 -19 48 -49q17 -24 17 -57v-309z" />
    <glyph glyph-name="afii10109" unicode="&#x45c;" horiz-adv-x="450" 
d="M402 0h-105l-179 191h-13v-191h-78v431h78v-167h12l162 167h104l-195 -202zM223 502l-74 20l88 113h98z" />
    <glyph glyph-name="afii10110" unicode="&#x45e;" horiz-adv-x="430" 
d="M231 606h48q0 -41 -28 -68t-70 -27q-41 0 -68.5 27t-27.5 68h49q0 -21 13.5 -35.5t33.5 -14.5t35 14.5t15 35.5zM376 431l-207 -604h-78l58 173h-15l-148 431h84l112 -335l113 335h81z" />
    <glyph glyph-name="afii10193" unicode="&#x45f;" horiz-adv-x="479" 
d="M304 431h78v-431h-139v-104h-78v104h-140v431h78v-358h201v358z" />
    <glyph glyph-name="afii10050" unicode="&#x490;" horiz-adv-x="487" 
d="M426 522h-302v-522h-82v600h307v84h77v-162z" />
    <glyph glyph-name="afii10098" unicode="&#x491;" horiz-adv-x="409" 
d="M350 358h-1h-246v-358h-78v431h243v169h82v-242z" />
    <glyph glyph-name="endash" unicode="&#x2013;" horiz-adv-x="465" 
d="M375 212h-349v74h349v-74z" />
    <glyph glyph-name="emdash" unicode="&#x2014;" horiz-adv-x="547" 
d="M467 212h-441v73h441v-73z" />
    <glyph glyph-name="quoteleft" unicode="&#x2018;" horiz-adv-x="205" 
d="M145 621l-68 -147h-88l80 171z" />
    <glyph glyph-name="quoteright" unicode="&#x2019;" horiz-adv-x="205" 
d="M-1 515l68 147h88l-80 -171z" />
    <glyph glyph-name="quotesinglbase" unicode="&#x201a;" horiz-adv-x="204" 
d="M144 60l-68 -147h-88l80 171z" />
    <glyph glyph-name="quotedblleft" unicode="&#x201c;" horiz-adv-x="362" 
d="M-11 494l68 147h88l-80 -171zM146 494l68 147h88l-80 -171z" />
    <glyph glyph-name="quotedblright" unicode="&#x201d;" horiz-adv-x="362" 
d="M302 638l-68 -147h-88l80 171zM145 638l-68 -147h-88l80 171z" />
    <glyph glyph-name="quotedblbase" unicode="&#x201e;" horiz-adv-x="362" 
d="M302 60l-68 -147h-88l80 171zM145 60l-68 -147h-88l80 171z" />
    <glyph glyph-name="dagger" unicode="&#x2020;" horiz-adv-x="333" 
d="M263 360h-71v-242h-76v242h-70v71h70v167h76v-167h71v-71z" />
    <glyph glyph-name="daggerdbl" unicode="&#x2021;" horiz-adv-x="333" 
d="M45 248h71v112h-70v71h70v167h76v-167h71v-71h-71v-112h70v-71h-70v-176h-76v176h-71v71z" />
    <glyph glyph-name="bullet" unicode="&#x2022;" horiz-adv-x="443" 
d="M324 243q0 -34 -20 -57q-17 -21 -46 -39q-24 -15 -54 -15h-27q-30 0 -54 15q-31 20 -48 40q-19 23 -19 56v17q0 31 20 56q15 20 47 40q22 15 54 15h27q32 0 54 -15q31 -20 46 -39q20 -25 20 -57v-17z" />
    <glyph glyph-name="ellipsis" unicode="&#x2026;" horiz-adv-x="686" 
d="M569 0h-102v103h102v-103zM376 0h-102v103h102v-103zM184 0h-102v103h102v-103z" />
    <glyph glyph-name="perthousand" unicode="&#x2030;" horiz-adv-x="1039" 
d="M967 95q0 -29 -12 -46q-16 -22 -38 -38t-55 -16h-60q-33 0 -55 16q-24 18 -39 38q-12 16 -12 46v113q0 28 12 45q18 23 39 39q22 16 55 16h60q33 0 55 -16q18 -14 38 -39q12 -17 12 -45v-113zM896 90q2 4 2 12v99q0 8 -1 11q-9 17 -30 28q-4 2 -8 2h-53q-4 0 -8 -2
q-22 -12 -31 -30q-2 -4 -2 -9v-99q0 -5 2 -9q11 -21 30 -30q6 -3 9 -3h53q5 0 9 3q21 13 28 27zM529 600l-317 -600h-84l323 600h78zM651 95q0 -29 -12 -46q-16 -22 -38 -38t-55 -16h-60q-33 0 -55 16q-24 18 -39 38q-12 16 -12 46v113q0 28 12 45q18 23 39 39q22 16 55 16
h60q33 0 55 -16q18 -14 38 -39q12 -17 12 -45v-113zM580 90q2 4 2 12v99q0 8 -1 11q-9 17 -30 28q-4 2 -8 2h-53q-4 0 -8 -2q-22 -12 -31 -30q-2 -4 -2 -9v-99q0 -5 2 -9q11 -21 30 -30q6 -3 9 -3h53q5 0 9 3q21 13 28 27zM282 396q0 -29 -12 -46q-16 -22 -38 -38t-55 -16
h-60q-33 0 -55 16q-24 18 -39 38q-12 16 -12 46v113q0 28 12 45q18 23 39 39q22 16 55 16h60q33 0 55 -16q18 -14 38 -39q12 -17 12 -45v-113zM211 391q2 4 2 12v99q0 8 -1 11q-9 17 -30 28q-4 2 -8 2h-53q-4 0 -8 -2q-22 -12 -31 -30q-2 -4 -2 -9v-99q0 -5 2 -9
q11 -21 30 -30q6 -3 9 -3h53q4 0 9 3q21 13 28 27z" />
    <glyph glyph-name="guilsinglleft" unicode="&#x2039;" horiz-adv-x="396" 
d="M279 119l-86 -22l-156 155l156 158l85 -25l-137 -133z" />
    <glyph glyph-name="guilsinglright" unicode="&#x203a;" horiz-adv-x="398" 
d="M133 97l-86 22l138 133l-137 133l85 25l156 -158z" />
    <glyph glyph-name="fraction" unicode="&#x2044;" horiz-adv-x="648" 
 />
    <glyph glyph-name="Euro" unicode="&#x20ac;" horiz-adv-x="583" 
d="M506 127q-19 -41 -27 -52q-61 -81 -124 -81h-142q-28 0 -58 17q-15 9 -39 32.5t-33 37.5q-14 20 -14 53v61h-43v73h43v57h-43v73h43v67q0 32 14 52q10 14 34 38.5t38 32.5q30 17 57 17h143q63 0 124 -81q13 -18 27 -51l-79 -24l-10 21q-8 15 -26 32t-31 24q-4 1 -8 1
h-135q-2 0 -5 -1h-2q-11 -6 -30 -24t-28 -32q-1 -1 -1 -11v-61h236v-73h-236v-57h236v-73h-236v-60q0 -5 1 -6q9 -14 28 -32t30 -24l2 -1h5h135l8 1q38 21 57 56q3 4 10 19z" />
    <glyph glyph-name="afii61352" unicode="&#x2116;" horiz-adv-x="903" 
d="M469 0h-95l-252 458v-458h-81v600h97l250 -463v463h81v-600zM821 396q0 -27 -12 -46q-22 -25 -39 -38q-22 -16 -55 -16h-60q-33 0 -55 16q-17 13 -39 38q-12 19 -12 46v113q0 28 12 45q18 23 39 39q22 16 55 16h60q33 0 55 -16q21 -16 39 -39q12 -17 12 -45v-113z
M754 395v7v101q0 7 -1 9q-8 15 -32 30q-6 2 -9 2h-53q-5 0 -9 -2q-23 -13 -32 -30q-2 -4 -2 -9v-101q0 -7 2 -9q10 -20 32 -30q6 -3 9 -3h53l9 3q8 3 20 14.5t13 17.5z" />
    <glyph glyph-name="trademark" unicode="&#x2122;" horiz-adv-x="617" 
d="M537 305h-68v188l-48 -111h-47l-41 107v-184h-69v295h86l48 -121l53 121h86v-295zM252 536h-70v-231h-69v231h-78v64h217v-64z" />
    <glyph glyph-name="Omega" unicode="&#x2126;" horiz-adv-x="627" 
d="M36 464q0 33 14 53q9 14 33.5 38t39.5 33q30 17 57 17h179q28 0 58 -17q14 -8 38 -32.5t34 -38.5q15 -22 15 -53v-264q0 -31 -15 -53q-9 -15 -68 -69h114v-78h-216v77v1h1q1 1 16.5 14.5t23.5 21.5q23 22 42.5 50.5t19.5 37.5v260q0 7 -1 8q-9 14 -28 32t-30 24h-3
q-2 1 -4 1h-171q-2 0 -5 -1h-2q-14 -7 -37 -29.5t-23 -34.5v-260q0 -9 19.5 -37.5t42.5 -50.5q16 -16 40 -36v-78h-216l1 78h115q-64 62 -69 69q-15 22 -15 53v264z" />
    <glyph glyph-name="partialdiff" unicode="&#x2202;" horiz-adv-x="482" 
d="M157 436h78q34 0 77 -39v89q-1 9 -16 23.5t-25 20.5q-3 2 -15 2h-96l-23 73h120q40 0 69 -20q28 -21 48 -48q16 -23 16 -58v-359q0 -34 -16 -57q-20 -27 -48 -48q-28 -20 -69 -20h-100q-41 0 -69 20q-28 21 -48 48q-16 23 -16 57v191q0 34 16 57q20 27 48 48q28 20 69 20
zM232 363h-74q-3 0 -12 -3q-30 -17 -43 -40q-1 -2 -1 -11v-195q1 -8 17 -22.5t27 -20.5q9 -3 12 -3h97q3 0 12 3q30 17 43 40q2 2 2 11v183q-9 14 -37 36t-43 22z" />
    <glyph glyph-name="Delta" unicode="&#x2206;" horiz-adv-x="566" 
d="M504 0h-526l209 600h108zM390 77l-149 439l-149 -439h298z" />
    <glyph glyph-name="product" unicode="&#x220f;" horiz-adv-x="565" 
d="M463 0h-82v522h-258v-522h-82v600h422v-600z" />
    <glyph glyph-name="summation" unicode="&#x2211;" horiz-adv-x="501" 
d="M301 304l-161 -226h283v-78h-388v63l176 242l-175 230v65h385v-78h-285z" />
    <glyph glyph-name="minus" unicode="&#x2212;" horiz-adv-x="465" 
d="M375 212h-349v73h349v-73z" />
    <glyph glyph-name="radical" unicode="&#x221a;" horiz-adv-x="656" 
d="M591 747l-284 -904h-93l-129 370h-82v73h143l125 -393l267 854h53z" />
    <glyph glyph-name="infinity" unicode="&#x221e;" horiz-adv-x="810" 
d="M655 327q21 -30 21 -63v-24q0 -33 -21 -63q-17 -20 -56 -49q-23 -15 -60 -15h-70q-37 0 -60 15q-24 18 -39 32q-20 -18 -38 -32q-23 -15 -60 -15h-68q-37 0 -60 15q-45 34 -57 49q-21 27 -21 63v24q0 36 21 63q18 23 57 49q23 15 60 15h68q37 0 60 -15q18 -14 38 -32
q15 14 39 32q23 15 60 15h70q37 0 60 -15q33 -22 56 -49zM331 230q0 2 1 3q-1 3 -1 7v24q0 4 1 7q-1 1 -1 3q-16 27 -47 43q-2 3 -11 3h-70q-9 0 -11 -3q-31 -16 -47 -43q-2 -6 -2 -12v-21q0 -5 2 -11q16 -27 47 -43q3 -3 11 -3h70q8 0 11 3q31 16 47 43zM600 241v21
q0 8 -3 12q-5 10 -20 23.5t-26 19.5q-1 3 -11 3h-72q-10 0 -11 -3q-31 -16 -47 -43q0 -2 -2 -8l1 -2v-24q0 -1 -1 -2l2 -8q16 -27 47 -43q3 -3 11 -3h72q8 0 11 3q11 6 26 19.5t20 23.5q3 4 3 11z" />
    <glyph glyph-name="integral" unicode="&#x222b;" horiz-adv-x="340" 
d="M288 532h-75q-12 0 -15 -2q-10 -5 -24.5 -20t-15.5 -24v-9v-522q0 -34 -17 -58q-22 -30 -48 -49q-29 -20 -68 -20h-75v73h74q10 0 12 1q25 14 41 44q2 2 2 11v43v479q0 35 16 58q20 27 48 48q29 20 69 20h76v-73z" />
    <glyph glyph-name="approxequal" unicode="&#x2248;" horiz-adv-x="486" 
d="M384 158l-74 -14q-11 26 -37 21l-106 -19q-41 -8 -76.5 8.5t-50.5 53.5l74 14q11 -26 37 -21l106 19q41 8 76.5 -8.5t50.5 -53.5zM384 296l-74 -14q-11 26 -37 21l-106 -19q-41 -8 -76.5 8.5t-50.5 53.5l74 14q11 -26 37 -21l106 19q41 8 76.5 -8.5t50.5 -53.5z" />
    <glyph glyph-name="notequal" unicode="&#x2260;" horiz-adv-x="486" 
d="M361 438l-49 -90h87v-68h-123l-37 -68h160v-67h-196l-48 -90h-86l48 90h-86v67h122l37 68h-159v68h195l49 90h86z" />
    <glyph glyph-name="lessequal" unicode="&#x2264;" horiz-adv-x="463" 
d="M382 417l-262 -140l261 -140v-86l-368 199v55l369 198v-86z" />
    <glyph glyph-name="greaterequal" unicode="&#x2265;" horiz-adv-x="463" 
d="M390 250l-368 -199v86l261 140l-262 140v86l369 -198v-55z" />
    <glyph glyph-name="lozenge" unicode="&#x25ca;" horiz-adv-x="650" 
d="M566 138q0 -31 -15 -53q-9 -14 -33 -37.5t-39 -32.5q-30 -17 -58 -17h-252q-27 0 -57 17q-15 9 -39 32.5t-33 37.5q-14 20 -14 53v326q0 32 14 52q10 15 34 39.5t38 32.5q30 17 57 17h252q28 0 58 -17q26 -16 66 -72q21 -31 21 -52v-326zM488 462q0 4 -2 8
q-9 15 -29.5 35.5t-31.5 25.5l-3 1h-4h-245h-5l-2 -1q-11 -5 -31.5 -25.5t-29.5 -35.5q-1 -1 -1 -8v-323q0 -11 24.5 -35t38.5 -31l3 -1q2 -1 4 -1h242q2 0 4 1l3 1q15 7 40 30.5t25 35.5v323zM441 352q0 -48 -9 -61q-18 -26 -59 -51q-29 -17 -73 -17h-61v-109h-77v372h150
q38 0 67 -21q11 -8 29 -25.5t24 -26.5q9 -14 9 -50v-11zM368 343v21q0 8 -2 10q-10 20 -42 37q-6 2 -12 2h-73v-117h73q13 0 30.5 12.5t23.5 23.5q2 2 2 11z" />
    <glyph glyph-name="apple" unicode="&#xf8ff;" horiz-adv-x="500" 
 />
    <glyph glyph-name="fi" unicode="&#xfb01;" horiz-adv-x="556" 
d="M283 532h-80q-12 0 -15 -2q-10 -6 -25 -20.5t-16 -23.5v-9v-46h121v-73h-121v-358h-78v358h-71v73h71v48q0 35 16 58q20 27 48 48q29 20 69 20h81v-73zM456 520h-90v89h90v-89zM450 0h-78v431h78v-431z" />
    <glyph glyph-name="fl" unicode="&#xfb02;" horiz-adv-x="574" 
d="M283 532h-80q-12 0 -15 -2q-10 -6 -25 -20.5t-16 -23.5v-9v-46h121v-73h-121v-358h-78v358h-71v73h71v48q0 35 16 58q20 27 48 48q29 20 69 20h81v-73zM470 0h-78l-9 65v535h77v-523z" />
    <glyph glyph-name="HT" horiz-adv-x="500" 
 />
    <glyph glyph-name="LF" horiz-adv-x="500" 
 />
    <glyph glyph-name="DLE" horiz-adv-x="500" 
 />
    <glyph glyph-name="DC1" horiz-adv-x="206" 
 />
    <glyph glyph-name="DC2" horiz-adv-x="223" 
 />
    <glyph glyph-name="DC3" horiz-adv-x="299" 
 />
    <glyph glyph-name="DC4" horiz-adv-x="333" 
 />
    <glyph glyph-name="RS" horiz-adv-x="600" 
 />
    <glyph glyph-name="US" horiz-adv-x="500" 
 />
    <glyph glyph-name="DEL" horiz-adv-x="500" 
 />
    <glyph glyph-name="NUL" horiz-adv-x="500" 
 />
    </font>
</defs>
</svg>
