<?xml version="1.0" standalone="no"?>
<!DOCTYPE svg PUBLIC "-//W3C//DTD SVG 1.1//EN" "http://www.w3.org/Graphics/SVG/1.1/DTD/svg11.dtd" >
<svg xmlns="http://www.w3.org/2000/svg" xmlns:xlink="http://www.w3.org/1999/xlink" version="1.1">
<metadata>
Created by FontForge 20161013 at Sun Jan 25 18:23:43 2009
 By ,,,
Published by Die Gestalten Verlag GmbH &#38; Co. KG, 2008
Copyright (c) by Binnenland and re-p.org, 2008. All rights reserved. This software may not be reproduced, used, displayed, modified, disclosed or transferred without the express written approval of (Binnenland). 
</metadata>
<defs>
<font id="BlenderPro-Heavy" horiz-adv-x="516" >
  <font-face 
    font-family="Blender Pro Heavy"
    font-weight="900"
    font-stretch="normal"
    units-per-em="1000"
    panose-1="2 0 9 6 3 0 0 1 0 4"
    ascent="800"
    descent="-200"
    x-height="600"
    cap-height="600"
    bbox="-83 -208 1125 835"
    underline-thickness="20"
    underline-position="-173"
    unicode-range="U+000D-FB02"
  />
<missing-glyph horiz-adv-x="980" 
 />
    <glyph glyph-name=".notdef" horiz-adv-x="980" 
 />
    <glyph glyph-name=".null" horiz-adv-x="0" 
 />
    <glyph glyph-name="nonmarkingreturn" horiz-adv-x="333" 
 />
    <glyph glyph-name="CR" unicode="&#xd;" 
 />
    <glyph glyph-name="space" unicode=" " horiz-adv-x="240" 
 />
    <glyph glyph-name="exclam" unicode="!" horiz-adv-x="304" 
d="M190 167h-121v434h121v-434zM193 0h-126v124h126v-124z" />
    <glyph glyph-name="quotedbl" unicode="&#x22;" horiz-adv-x="408" 
d="M380 499l-10 -77h-119l10 91v133h119v-147zM176 499l-10 -77h-118l10 91v133h118v-147z" />
    <glyph glyph-name="numbersign" unicode="#" horiz-adv-x="537" 
d="M489 421l-21 -113h-80q-1 -5 -3.5 -16t-3.5 -17h81l-20 -112h-81q-3 -15 -9 -46.5t-9 -46.5h-118l18 93h-34q-3 -15 -9 -46.5t-9 -46.5h-117l16 93h-80l20 112h81q1 5 3 16.5t3 16.5h-81l20 113h81q3 15 8.5 44.5t8.5 44.5h118l-17 -89h35q3 14 8.5 44t8.5 45h117
l-16 -89h81zM271 319h-38q-1 -7 -4 -24t-5 -24h40q1 8 3.5 24t3.5 24z" />
    <glyph glyph-name="dollar" unicode="$" horiz-adv-x="587" 
d="M505 442l-117 -33q-5 11 -7 14q-23 42 -50 63h-132q-7 -4 -16 -12.5t-15 -15t-6 -7.5v-53l3 -6l254 -69q39 -11 61 -44t22 -72v-57q0 -36 -17 -62q-11 -16 -35 -40t-39 -33q-34 -19 -66 -19h-19v-113h-117v113h-18q-67 0 -132 85q-19 24 -38 76l115 37q4 -12 7 -17
q21 -45 51 -64h148q7 4 16 13t15 16t6 8v54l-3 6q-36 10 -121.5 33t-131.5 35q-40 11 -61.5 44t-21.5 72v55q0 38 16 63q10 14 34.5 38t40.5 34q34 19 65 19h13v106h117v-106h9q65 0 131 -84q19 -24 39 -77z" />
    <glyph glyph-name="percent" unicode="%" horiz-adv-x="856" 
d="M635 600l-328 -600h-126l330 600h124zM786 100q0 -32 -14 -51q-16 -21 -39 -38q-26 -18 -58 -18h-58q-32 0 -57 18q-23 16 -40 38q-14 19 -14 51v134q0 32 14 51q17 22 40 38q25 18 57 18h58q32 0 58 -18q23 -17 39 -38q14 -19 14 -51v-134zM687 214q0 4 -1 6
q-5 6 -19 18q-1 1 -5 1h-33q-4 0 -5 -1q-10 -7 -20 -19l-1 -5v-95q0 -2 1 -4q12 -14 20 -19q1 -1 5 -1h33q4 0 5 1q16 13 19 18l1 5v95zM311 362q0 -32 -14 -51q-16 -21 -39 -38q-26 -18 -58 -18h-58q-32 0 -57 18q-23 16 -40 38q-14 19 -14 51v134q0 32 14 51q17 22 40 38
q25 18 57 18h58q32 0 58 -18q23 -17 39 -38q14 -19 14 -51v-134zM212 476q0 4 -1 6q-5 6 -19 18q-1 1 -5 1h-33q-4 0 -5 -1q-10 -7 -20 -19l-1 -5v-95q0 -2 1 -4q12 -14 20 -19q1 -1 5 -1h33q4 0 5 1q16 13 19 18l1 5v95z" />
    <glyph glyph-name="ampersand" unicode="&#x26;" horiz-adv-x="586" 
d="M511 189h-27v-51q0 -35 -20 -65q-26 -36 -54 -55q-33 -23 -76 -23h-151q-42 0 -75 23q-11 8 -28.5 26.5t-24.5 28.5q-20 28 -20 65v77q0 46 36 84q-36 40 -36 84v76q0 36 20 66q7 11 24.5 28t28.5 25q37 26 75 26h89q77 0 131 -85q17 -26 23 -43l-111 -31q-5 10 -10 17
t-11 11.5t-8.5 6t-9.5 4.5l-7 3h-86q-1 0 -5.5 -4t-10.5 -11t-10 -13v-77q5 -10 14 -19t12 -9h109v-113h-109q-2 0 -11.5 -9t-14.5 -17v-77q4 -6 10 -12t10.5 -9.5t5.5 -3.5h151q4 0 13.5 7.5t14.5 16.5v164h149v-112z" />
    <glyph glyph-name="quotesingle" unicode="'" horiz-adv-x="248" 
d="M175 499l-10 -77h-118l10 91v133h118v-147z" />
    <glyph glyph-name="parenleft" unicode="(" horiz-adv-x="355" 
d="M193 -60l-111 103q-24 23 -39 43q-17 27 -17 62v301q0 35 17 62q15 20 39 43l111 103l80 -83l-111 -105q-18 -16 -18 -21v-299q0 -5 18 -21l111 -105z" />
    <glyph glyph-name="parenright" unicode=")" horiz-adv-x="358" 
d="M223 43l-111 -103l-80 83l111 105q18 16 18 21v299q0 5 -18 21l-111 105l80 83l111 -103q24 -23 39 -43q17 -27 17 -62v-301q0 -35 -17 -62q-15 -20 -39 -43z" />
    <glyph glyph-name="asterisk" unicode="*" horiz-adv-x="468" 
d="M386 466l-82 -26l52 -68l-93 -68l-50 70l-49 -70l-93 68l51 68l-82 25l36 110l81 -28l-2 86h115l-2 -86l82 29z" />
    <glyph glyph-name="plus" unicode="+" horiz-adv-x="526" 
d="M437 192h-138v-135h-117v135h-138v114h138v137h117v-137h138v-114z" />
    <glyph glyph-name="comma" unicode="," horiz-adv-x="312" 
d="M221 91l-80 -174h-133l98 209z" />
    <glyph glyph-name="hyphen" unicode="-" horiz-adv-x="382" 
d="M296 191h-259v113h259v-113z" />
    <glyph glyph-name="period" unicode="." horiz-adv-x="283" 
d="M188 0h-141v142h141v-142z" />
    <glyph glyph-name="slash" unicode="/" horiz-adv-x="437" 
d="M427 600l-328 -600h-132l329 600h131z" />
    <glyph glyph-name="zero" unicode="0" 
d="M449 149q0 -37 -17 -62q-11 -15 -34.5 -39t-39.5 -34h1q-32 -19 -65 -19h-118q-34 0 -66 19q-15 9 -38.5 33.5t-34.5 39.5q-17 25 -17 62v301q0 38 17 63q11 15 34.5 39t38.5 33q32 19 66 19h118q33 0 65 -19h-1q16 -9 39 -32.5t35 -39.5q17 -25 17 -63v-301zM327 149
v301q-13 24 -35 37h-113q-22 -16 -37 -38v-300q18 -27 36 -37h113q19 12 36 37z" />
    <glyph glyph-name="one" unicode="1" 
d="M329 0h-123v481h-108v119h231v-600z" />
    <glyph glyph-name="two" unicode="2" 
d="M184 487q-32 -18 -42 -41l-117 29q12 29 25 46q62 83 132 83h115q39 0 73 -24q25 -16 55 -55q18 -24 18 -65v-63q0 -39 -22 -69t-55 -46q-34 -16 -101 -49.5t-101 -49.5q-9 -5 -9 -9v-57h280v-117h-402v177q0 37 22 66.5t56 46.5q33 16 101.5 50t102.5 50q6 3 6 10v62
q-5 9 -13 17t-11 8h-113z" />
    <glyph glyph-name="three" unicode="3" 
d="M444 140q0 -38 -19 -66q-7 -11 -25.5 -29.5t-29.5 -26.5q-33 -23 -73 -23h-115q-70 0 -132 84q-13 18 -25 46l119 32q13 -30 40 -45h112q3 0 11.5 8t14.5 18v82q-5 10 -13.5 18t-12.5 8h-135v114h136q3 0 11.5 8t13.5 18v74q-6 10 -15 18.5t-11 8.5h-112q-30 -14 -42 -41
l-29 7q-29 7 -59 15l-29 7q9 25 25 46q65 83 132 83h115q39 0 73 -24q25 -16 55 -55q19 -24 19 -65v-75q0 -43 -35 -82q35 -41 35 -84v-79z" />
    <glyph glyph-name="four" unicode="4" 
d="M451 116h-69v-116h-123v116h-259v93l251 391h131v-367h69v-117zM259 233v178q-9 -14 -51 -79.5t-64 -98.5h115z" />
    <glyph glyph-name="five" unicode="5" 
d="M443 140q0 -36 -19 -66q-21 -31 -53 -56q-32 -23 -77 -23h-116q-71 0 -133 84q-13 17 -23 46l119 32q12 -28 39 -44h115q16 10 26 26v101q-6 10 -29 28h-247v332h370v-118h-247v-97h126q43 0 77 -24q32 -25 53 -53q19 -29 19 -66v-102z" />
    <glyph glyph-name="six" unicode="6" 
d="M20 459q0 38 19 66q7 11 25.5 29.5t29.5 26.5q33 23 73 23h115q41 0 76 -25.5t56 -58.5q15 -23 25 -46l-118 -32q-16 36 -42 45h-111q-3 0 -11.5 -8t-14.5 -17v-86q1 0 3 1.5t3 2.5q26 15 39 15h107q42 0 73 -22q11 -8 30 -26.5t25 -28.5q19 -28 19 -65v-114
q0 -37 -19 -65q-15 -23 -55 -55q-34 -24 -73 -24h-127q-39 0 -73 24q-12 9 -30.5 27t-24.5 28q-19 26 -19 64v321zM142 249v-111q5 -9 14 -17.5t12 -8.5h126q3 0 11.5 7.5t13.5 16.5v116q-5 9 -14.5 18t-12.5 9h-112q-8 0 -12 -2q-18 -15 -26 -28z" />
    <glyph glyph-name="seven" unicode="7" 
d="M450 508l-248 -508h-139l243 483h-268v117h412v-92z" />
    <glyph glyph-name="eight" unicode="8" 
d="M444 140q0 -38 -19 -66q-7 -11 -25.5 -29.5t-29.5 -26.5q-33 -23 -73 -23h-126q-42 0 -73 23q-36 28 -55 56q-19 30 -19 66v80q0 47 35 84q-35 39 -35 82v74q0 36 19 65q15 23 55 55q34 24 73 24h126q39 0 73 -24q25 -16 55 -55q19 -29 19 -65v-74q0 -43 -35 -82
q35 -41 35 -84v-80zM322 137v81q-5 10 -13.5 18.5t-11.5 8.5h-126q-3 0 -11.5 -8.5t-13.5 -18.5v-80q5 -9 14 -17.5t12 -8.5h124q3 0 12 8t14 17zM322 385v76q-6 10 -14.5 18t-11.5 8h-124q-3 0 -12 -8t-14 -17v-77q5 -10 13.5 -18t11.5 -8h126q3 0 11.5 8.5t13.5 17.5z" />
    <glyph glyph-name="nine" unicode="9" 
d="M441 140q0 -38 -19 -66q-7 -11 -25.5 -29.5t-29.5 -26.5q-33 -23 -73 -23h-115q-41 0 -76 25.5t-56 58.5q-15 23 -25 46l118 32q16 -36 42 -45h111q3 0 11.5 8t14.5 17v86q-1 0 -3 -1.5t-3 -2.5q-26 -15 -39 -15h-107q-42 0 -73 22q-11 8 -30 26.5t-25 28.5
q-19 28 -19 65v114q0 36 19 65q15 23 55 55q34 24 73 24h127q39 0 73 -24q12 -9 30.5 -27t24.5 -28q19 -26 19 -64v-321zM319 350v111q-5 9 -14 17.5t-12 8.5h-126q-3 0 -11.5 -7.5t-13.5 -16.5v-116q5 -9 14.5 -18t12.5 -9h112q8 0 12 2q18 15 26 28z" />
    <glyph glyph-name="colon" unicode=":" horiz-adv-x="301" 
d="M194 246h-143v145h143v-145zM194 0h-143v145h143v-145z" />
    <glyph glyph-name="semicolon" unicode=";" horiz-adv-x="308" 
d="M215 106l-79 -186h-133l97 223zM198 245h-143v147h143v-147z" />
    <glyph glyph-name="less" unicode="&#x3c;" horiz-adv-x="719" 
d="M641 241h-427q42 -40 127.5 -121t127.5 -121h-167l-312 300l312 302h167l-257 -243h429v-117z" />
    <glyph glyph-name="equal" unicode="=" horiz-adv-x="499" 
d="M415 282h-385v109h385v-109zM415 132h-385v109h385v-109z" />
    <glyph glyph-name="greater" unicode="&#x3e;" horiz-adv-x="719" 
d="M676 299l-313 -300h-166l254 242h-426v117h428q-104 99 -257 243h167z" />
    <glyph glyph-name="question" unicode="?" horiz-adv-x="501" 
d="M437 398q0 -68 -77 -106l-14 -6q-18 -7 -37.5 -21.5t-19.5 -22.5v-72h-121v76q0 82 113 132q34 16 34 23v50q-3 10 -9.5 18.5t-11.5 13t-7 4.5h-112q-30 -14 -43 -42l-116 31q7 22 24 45q62 83 131 83h115q42 0 74 -24q35 -27 57 -55q20 -27 20 -66v-61zM292 0h-127v124
h127v-124z" />
    <glyph glyph-name="at" unicode="@" horiz-adv-x="680" 
d="M200 -49l-70 -93q-15 8 -39 32t-36 40q-17 26 -17 61v461q0 36 17 61q12 15 36 39.5t39 33.5q31 18 65 18h238q33 0 65 -19q29 -15 75 -72q17 -22 17 -61v-356q1 -14 4.5 -48.5t4.5 -47.5h-119l-2 12q-28 -17 -53 -17h-50q-47 0 -77 23q-30 22 -49 50q-20 30 -20 66v154
q0 39 20 66q19 29 49 49q36 22 77 22h50q24 0 45 -12v36q0 1 -1 2q-6 11 -19.5 24.5t-21.5 17.5h-228q-7 -4 -20.5 -17.5t-21.5 -25.5v-458l1 -1q6 -11 20 -24t21 -16zM470 133v155q-9 10 -25 19t-23 9h-47q-14 -8 -27 -30v-151q16 -23 27 -30h47q7 0 23.5 9t24.5 19z" />
    <glyph glyph-name="A" unicode="A" horiz-adv-x="580" 
d="M539 0h-130l-40 115h-209q-6 -19 -20.5 -57.5t-20.5 -57.5h-130l208 600h135zM332 232l-68 193q-11 -32 -33.5 -96.5t-33.5 -96.5h135z" />
    <glyph glyph-name="B" unicode="B" horiz-adv-x="553" 
d="M476 143q0 -39 -18 -65q-23 -33 -53 -55q-33 -23 -76 -23h-292v600h292q42 0 76 -24q10 -8 27.5 -26t25.5 -28q18 -27 18 -67v-72q0 -47 -33 -84q33 -36 33 -84v-72zM354 143v73q-6 10 -15 19t-12 9h-168v-127h169q3 0 12 8.5t14 17.5zM354 382v73q-6 10 -15 19t-12 9
h-168v-126h169q3 0 12 8.5t14 16.5z" />
    <glyph glyph-name="C" unicode="C" horiz-adv-x="555" 
d="M488 456l-113 -32q-19 40 -53 63h-125q-24 -17 -39 -40v-298q0 -1 4.5 -7t14 -15t20.5 -15h127q28 19 51 60l114 -28q-12 -34 -34 -64q-60 -85 -132 -85h-131q-34 0 -66 19q-15 9 -38 32.5t-35 39.5q-17 27 -17 62v303q0 37 17 62q11 15 34.5 39t39.5 33q34 19 65 19h131
q70 0 131 -84q20 -28 34 -64z" />
    <glyph glyph-name="D" unicode="D" horiz-adv-x="564" 
d="M482 151q0 -36 -16 -61q-11 -16 -34.5 -39t-39.5 -32q-36 -19 -64 -19h-291v600h291q38 0 66 -18q31 -20 71 -73q17 -24 17 -62v-296zM360 155v287q-10 25 -37 41h-164v-366h164q24 14 37 38z" />
    <glyph glyph-name="E" unicode="E" 
d="M431 0h-394v600h394v-117h-272v-123h263v-117h-263v-126h272v-117z" />
    <glyph glyph-name="F" unicode="F" horiz-adv-x="506" 
d="M431 483h-272v-123h258v-117h-258v-243h-122v600h394v-117z" />
    <glyph glyph-name="G" unicode="G" horiz-adv-x="593" 
d="M127 586q31 18 66 18h152q70 0 131 -84q20 -28 34 -64l-113 -32q-19 40 -53 63h-146q-24 -16 -39 -39v-303q0 -4 12.5 -15.5t24.5 -17.5h146q11 5 24.5 18t13.5 18v90h-137v114h259v-225q0 -15 7 -57l12 -71h-121l-4 18q-2 -1 -13 -8q-24 -14 -39 -14h-151q-34 0 -66 19
q-15 9 -38.5 32t-34.5 39q-17 27 -17 62v304q0 38 17 63q11 15 34.5 39t38.5 33z" />
    <glyph glyph-name="H" unicode="H" horiz-adv-x="567" 
d="M481 0h-122v242h-200v-242h-122v600h122v-241h200v241h122v-600z" />
    <glyph glyph-name="I" unicode="I" horiz-adv-x="255" 
d="M164 0h-123v600h123v-600z" />
    <glyph glyph-name="J" unicode="J" horiz-adv-x="465" 
d="M190 -6v1h-36q-72 0 -132 85q-22 30 -34 64l114 28q23 -41 51 -60h72q6 0 21.5 15t15.5 19v454h122v-453q0 -34 -19 -62q-9 -14 -32.5 -38.5t-38.5 -33.5q-34 -19 -66 -19h-38z" />
    <glyph glyph-name="K" unicode="K" horiz-adv-x="526" 
d="M496 0h-148l-179 248h-10v-248h-122v600h122v-244h10q2 0 47 61t89 122l44 61h144l-221 -296z" />
    <glyph glyph-name="L" unicode="L" horiz-adv-x="469" 
d="M425 0h-388v600h122v-482h266v-118z" />
    <glyph glyph-name="M" unicode="M" horiz-adv-x="657" 
d="M568 0h-122v361q-19 -40 -54.5 -114.5t-49.5 -103.5h-80l-103 217v-360h-122v600h133l134 -272q18 36 63 129.5t69 142.5h132v-600z" />
    <glyph glyph-name="N" unicode="N" horiz-adv-x="563" 
d="M476 0h-123l-194 353v-353h-122v600h125l192 -358v358h122v-600z" />
    <glyph glyph-name="O" unicode="O" horiz-adv-x="581" 
d="M499 149q0 -37 -17 -62q-42 -54 -73 -73q-32 -19 -66 -19h-152q-34 0 -66 19q-15 9 -38.5 33.5t-34.5 39.5q-17 25 -17 62v301q0 38 17 63q11 15 34.5 39t38.5 33q32 19 66 19h152q34 0 66 -19q28 -16 73 -72q17 -25 17 -63v-301zM377 149v301q-14 24 -36 37h-147
q-22 -16 -37 -38v-300q20 -27 36 -37h147q19 14 37 37z" />
    <glyph glyph-name="P" unicode="P" horiz-adv-x="534" 
d="M477 371q0 -37 -19 -65q-6 -10 -24.5 -28t-29.5 -26q-32 -23 -75 -23h-170v-229h-122v600h292q44 0 75 -23q30 -23 54 -55q19 -26 19 -66v-85zM355 370v89q-10 16 -26 24h-170v-137h170q3 0 12.5 8.5t13.5 15.5z" />
    <glyph glyph-name="Q" unicode="Q" horiz-adv-x="587" 
d="M505 149q0 -37 -17 -62q-40 -52 -73 -73q-2 0 -3 -1q-10 -6 -24 -11q6 -15 19.5 -45.5t19.5 -45.5h-131l-35 84h-69q-34 0 -66 19q-15 9 -38.5 33.5t-34.5 39.5q-17 25 -17 62v301q0 38 17 63q11 15 34.5 39t38.5 33q32 19 66 19h157q34 0 66 -19q28 -16 73 -72
q17 -25 17 -63v-301zM383 150v300q-14 24 -36 37h-152q-22 -16 -37 -38v-299q15 -22 37 -37h17q0 1 -1 4t-2 4l113 38l19 -46h5q19 14 37 37z" />
    <glyph glyph-name="R" unicode="R" horiz-adv-x="565" 
d="M477 371q0 -37 -19 -65q-6 -10 -24.5 -28t-29.5 -26q-8 -6 -24 -14l130 -238h-136l-119 229h-96v-229h-122v600h292q44 0 75 -23q30 -23 54 -55q19 -26 19 -66v-85zM355 370v89q-10 16 -26 24h-170v-137h170q3 0 12.5 8.5t13.5 15.5z" />
    <glyph glyph-name="S" unicode="S" horiz-adv-x="565" 
d="M193 487q-7 -4 -16.5 -12.5t-15 -15t-5.5 -7.5v-53l3 -6l254 -69q39 -11 61 -44t22 -72v-59q0 -34 -18 -62q-10 -15 -34 -39.5t-39 -33.5q-34 -19 -66 -19h-153q-72 0 -132 85q-22 30 -34 64l113 35q29 -52 52 -67h152q7 4 16 12t14.5 14.5t5.5 7.5v59l-3 6
q-36 10 -121.5 33t-131.5 35q-40 11 -61.5 44t-21.5 72v55q0 38 16 63q10 14 34.5 38t40.5 34q34 19 65 19h142q70 0 131 -84q20 -28 34 -64l-113 -32q-19 40 -53 63h-138z" />
    <glyph glyph-name="T" unicode="T" horiz-adv-x="511" 
d="M454 483h-161v-483h-123v483h-162v117h446v-117z" />
    <glyph glyph-name="U" unicode="U" horiz-adv-x="573" 
d="M491 149q0 -37 -17 -62q-11 -16 -34 -40t-38 -33q-34 -19 -66 -19h-143q-34 0 -66 19q-15 9 -38.5 33.5t-34.5 39.5q-17 25 -17 62v451h122v-450q24 -30 37 -38h137q19 12 36 37v451h122v-451z" />
    <glyph glyph-name="V" unicode="V" horiz-adv-x="558" 
d="M507 600l-191 -600h-135l-192 600h129l130 -429q9 27 23 71.5t43 138.5t47.5 156.5t16.5 62.5h129z" />
    <glyph glyph-name="W" unicode="W" horiz-adv-x="742" 
d="M707 600l-139 -600h-131l-87 351q-14 -58 -43 -175.5t-43 -175.5h-131l-137 600h126l79 -370q15 65 44.5 189.5t42.5 180.5h124l87 -370q12 54 38 179.5t40 190.5h130z" />
    <glyph glyph-name="X" unicode="X" horiz-adv-x="526" 
d="M484 600l-175 -295l182 -305h-136l-113 195l-113 -195h-136l181 305l-174 295h136l106 -185l107 185h135z" />
    <glyph glyph-name="Y" unicode="Y" horiz-adv-x="526" 
d="M498 600l-204 -340v-260h-123v260l-201 340h138l125 -211l127 211h138z" />
    <glyph glyph-name="Z" unicode="Z" horiz-adv-x="504" 
d="M449 0h-416v89l257 394h-253v117h412v-90l-254 -393h254v-117z" />
    <glyph glyph-name="bracketleft" unicode="[" horiz-adv-x="338" 
d="M251 0h-213v600h213v-113h-92v-374h92v-113z" />
    <glyph glyph-name="backslash" unicode="\" horiz-adv-x="449" 
d="M460 0h-137l-328 600h136z" />
    <glyph glyph-name="bracketright" unicode="]" horiz-adv-x="338" 
d="M248 0h-212v113h91v374h-91v113h212v-600z" />
    <glyph glyph-name="asciicircum" unicode="^" horiz-adv-x="370" 
d="M-10 281l109 319h117l113 -319h-108l-63 192l-62 -192h-106z" />
    <glyph glyph-name="underscore" unicode="_" horiz-adv-x="481" 
d="M421 0h-401v116h401v-116z" />
    <glyph glyph-name="grave" unicode="`" horiz-adv-x="409" 
d="M308 660h-118l-105 136h130z" />
    <glyph glyph-name="a" unicode="a" horiz-adv-x="570" 
d="M529 0h-130l-40 115h-209q-6 -19 -20.5 -57.5t-20.5 -57.5h-130l208 600h135zM322 232l-68 193q-11 -32 -33.5 -96.5t-33.5 -96.5h135z" />
    <glyph glyph-name="b" unicode="b" horiz-adv-x="543" 
d="M466 143q0 -39 -18 -65q-23 -33 -53 -55q-33 -23 -76 -23h-282v600h282q42 0 76 -24q10 -8 27.5 -26t25.5 -28q18 -27 18 -67v-72q0 -47 -33 -84q33 -36 33 -84v-72zM344 143v73q-6 10 -15 19t-12 9h-158v-127h159q3 0 12 8.5t14 17.5zM344 382v73q-6 10 -15 19t-12 9
h-158v-126h159q3 0 12 8.5t14 16.5z" />
    <glyph glyph-name="c" unicode="c" horiz-adv-x="531" 
d="M469 125l1 -1q-10 -22 -25 -45q-21 -32 -56 -58t-75 -26h-115q-45 0 -72 19q-15 9 -38 32.5t-35 39.5q-17 27 -17 62v300q0 37 17 62q7 10 33 35.5t38 34.5q34 24 75 24h114q69 0 131 -83q14 -20 24 -45l-117 -32q-16 31 -42 43h-109q-26 -18 -42 -43v-298q0 -1 5.5 -7
t15.5 -14t20 -13h111q24 9 41 45z" />
    <glyph glyph-name="d" unicode="d" horiz-adv-x="560" 
d="M477 151q0 -36 -16 -61q-11 -16 -34.5 -39t-39.5 -32q-36 -19 -64 -19h-286v600h286q37 0 66 -18q31 -20 71 -73q17 -24 17 -62v-296zM355 155v287q-10 25 -37 41h-159v-366h159q24 14 37 38z" />
    <glyph glyph-name="e" unicode="e" horiz-adv-x="506" 
d="M421 0h-384v600h384v-117h-262v-124h253v-117h-253v-125h262v-117z" />
    <glyph glyph-name="f" unicode="f" horiz-adv-x="496" 
d="M421 483h-262v-124h248v-117h-248v-242h-122v600h384v-117z" />
    <glyph glyph-name="g" unicode="g" horiz-adv-x="575" 
d="M503 0h-120l-5 26q-33 -31 -51 -31h-133q-34 0 -66 19q-15 9 -38.5 32t-34.5 39q-17 27 -17 62v305q0 38 17 63q37 50 65 66q37 24 74 24h140q69 0 131 -83q13 -17 25 -45l-118 -32q-16 31 -42 43h-132q-26 -19 -38 -37v-306q0 -1 5 -7t14 -13.5t18 -12.5h124
q39 24 39 36v90h-91v114h213v-224q0 -18 5 -44z" />
    <glyph glyph-name="h" unicode="h" horiz-adv-x="561" 
d="M471 0h-122v240h-190v-240h-122v600h122v-243h190v243h122v-600z" />
    <glyph glyph-name="i" unicode="i" horiz-adv-x="255" 
d="M164 0h-123v600h123v-600z" />
    <glyph glyph-name="j" unicode="j" horiz-adv-x="452" 
d="M371 148q0 -35 -17 -62q-11 -15 -34.5 -38.5t-39.5 -33.5h1q-32 -19 -65 -19h-72q-71 0 -134 85q-8 11 -20 45l117 32q14 -32 36 -45h70q1 0 7 4t15 12.5t14 17.5v454h122v-452z" />
    <glyph glyph-name="k" unicode="k" horiz-adv-x="526" 
d="M496 0h-148l-179 248h-10v-248h-122v600h122v-244h10q2 0 47 61t89 122l44 61h144l-221 -296z" />
    <glyph glyph-name="l" unicode="l" horiz-adv-x="469" 
d="M415 0h-378v600h122v-483h256v-117z" />
    <glyph glyph-name="m" unicode="m" horiz-adv-x="657" 
d="M568 0h-122v361q-19 -40 -54.5 -114.5t-49.5 -103.5h-80l-103 217v-360h-122v600h133l134 -272q18 36 63 129.5t69 142.5h132v-600z" />
    <glyph glyph-name="n" unicode="n" horiz-adv-x="563" 
d="M476 0h-123l-194 353v-353h-122v600h125l192 -358v358h122v-600z" />
    <glyph glyph-name="o" unicode="o" horiz-adv-x="567" 
d="M484 149q0 -36 -18 -62q-11 -16 -34.5 -40t-37.5 -33q-32 -19 -66 -19h-136q-34 0 -66 19q-15 9 -38.5 33.5t-34.5 39.5q-17 25 -17 62v301q0 38 17 63q11 15 34.5 39t38.5 33q32 19 66 19h136q34 0 66 -19q26 -16 72 -72q18 -26 18 -63v-301zM361 150v300q-13 24 -35 37
h-131q-22 -16 -37 -38v-299q20 -27 36 -37h131q19 12 36 37z" />
    <glyph glyph-name="p" unicode="p" horiz-adv-x="524" 
d="M467 371q0 -37 -19 -65q-6 -10 -24.5 -28t-29.5 -26q-32 -23 -75 -23h-160v-229h-122v600h282q44 0 75 -23q30 -23 54 -55q19 -26 19 -66v-85zM345 370v89q-10 16 -26 24h-160v-137h160q3 0 12.5 8.5t13.5 15.5z" />
    <glyph glyph-name="q" unicode="q" horiz-adv-x="577" 
d="M496 149q0 -36 -18 -62q-11 -15 -34 -39t-38 -34q-1 0 -2 -1q-10 -5 -26 -11q6 -15 19.5 -45.5t20.5 -45.5h-131l-35 84h-59q-34 0 -66 19q-15 9 -38.5 33.5t-34.5 39.5q-17 25 -17 62v301q0 38 17 63q11 15 34.5 39t38.5 33q32 19 66 19h147q34 0 66 -19q26 -16 72 -72
q18 -26 18 -63v-301zM373 150v300q-13 24 -35 37h-142q-22 -16 -37 -38v-299q15 -22 37 -37h7q-1 1 -2 4t-1 4l113 38l19 -46h5q19 12 36 37z" />
    <glyph glyph-name="r" unicode="r" horiz-adv-x="548" 
d="M467 371q0 -37 -19 -65q-6 -10 -24.5 -28t-29.5 -26q-13 -9 -23 -13l126 -239h-136l-114 229h-88v-229h-122v600h282q44 0 75 -23q30 -23 54 -55q19 -26 19 -66v-85zM345 370v89q-10 16 -26 24h-160v-137h160q3 0 12.5 8.5t13.5 15.5z" />
    <glyph glyph-name="s" unicode="s" horiz-adv-x="539" 
d="M473 148q0 -38 -16 -63q-7 -10 -31.5 -35.5t-35.5 -33.5q-31 -22 -75 -22h-144q-69 0 -131 84q-5 5 -25 46l119 32q13 -30 37 -45h148q6 4 14 12t13 14.5t5 7.5v60l-3 6q-35 10 -116 33t-124 35q-39 11 -61 44t-22 72v55q0 38 16 63q8 10 31.5 35t34.5 33q34 24 75 24
h128q40 0 75.5 -26t55.5 -57q15 -25 24 -45l-117 -32q-13 26 -42 43h-118q-9 -4 -19 -13t-16 -15.5t-6 -7.5v-53l3 -6q45 -13 129.5 -37t111.5 -32q39 -11 60.5 -44.5t21.5 -71.5v-60z" />
    <glyph glyph-name="t" unicode="t" horiz-adv-x="501" 
d="M444 483h-156v-483h-123v483h-157v117h436v-117z" />
    <glyph glyph-name="u" unicode="u" horiz-adv-x="556" 
d="M481 149q0 -37 -17 -62q-11 -16 -34 -40t-38 -33q-34 -19 -66 -19h-133q-34 0 -66 19q-15 9 -38.5 33.5t-34.5 39.5q-17 25 -17 62v451h122v-450q24 -30 37 -38h127q19 12 36 37v451h122v-451z" />
    <glyph glyph-name="v" unicode="v" horiz-adv-x="558" 
d="M507 600l-191 -600h-135l-192 600h129l130 -429q9 27 23 71.5t43 138.5t47.5 156.5t16.5 62.5h129z" />
    <glyph glyph-name="w" unicode="w" horiz-adv-x="742" 
d="M707 600l-139 -600h-131l-87 351q-14 -58 -43 -175.5t-43 -175.5h-131l-137 600h126l79 -370q15 65 44.5 189.5t42.5 180.5h124l87 -370q12 54 38 179.5t40 190.5h130z" />
    <glyph glyph-name="x" unicode="x" horiz-adv-x="526" 
d="M484 600l-175 -295l182 -305h-136l-113 195l-113 -195h-136l181 305l-174 295h136l106 -185l107 185h135z" />
    <glyph glyph-name="y" unicode="y" horiz-adv-x="526" 
d="M498 600l-204 -340v-260h-123v260l-201 340h138l125 -211l127 211h138z" />
    <glyph glyph-name="z" unicode="z" horiz-adv-x="504" 
d="M449 0h-416v89l257 394h-253v117h412v-90l-254 -393h254v-117z" />
    <glyph glyph-name="braceleft" unicode="{" horiz-adv-x="355" 
d="M269 -6h-85q-30 0 -64 19q-16 9 -40.5 32.5t-35.5 38.5q-16 25 -16 62v306q0 39 17 63q11 15 34.5 39t38.5 33q31 18 66 18h85v-113h-82q-28 -20 -41 -39v-312q0 -6 14.5 -18t25.5 -16h83v-113z" />
    <glyph glyph-name="bar" unicode="|" horiz-adv-x="207" 
d="M143 -90h-117v763h117v-763z" />
    <glyph glyph-name="braceright" unicode="}" horiz-adv-x="353" 
d="M279 146q0 -36 -17 -62q-10 -15 -34.5 -38t-41.5 -33q-34 -19 -65 -19h-85v113h85q11 5 26 18t15 16v314q0 5 -14.5 18t-26.5 19h-85v113h85q35 0 66 -18q30 -18 74 -72q18 -26 18 -63v-306z" />
    <glyph glyph-name="asciitilde" unicode="~" horiz-adv-x="471" 
d="M397 216l-99 -25q-5 12 -16 20.5t-18 6.5q-11 -2 -43 -12.5t-40 -12.5q-45 -11 -87.5 13.5t-66.5 85.5l101 25q6 -14 15.5 -21t14.5 -6q12 2 44 13t42 13q45 10 87 -15t66 -85z" />
    <glyph glyph-name="nbspace" unicode="&#xa0;" horiz-adv-x="240" 
 />
    <glyph glyph-name="exclamdown" unicode="&#xa1;" horiz-adv-x="306" 
d="M192 0h-120v433h120v-433zM195 477h-128v123h128v-123z" />
    <glyph glyph-name="cent" unicode="&#xa2;" horiz-adv-x="531" 
d="M470 124l1 -1q-8 -23 -25 -45q-22 -31 -57 -57t-75 -27v-81h-117v81q-43 2 -69 19q-15 9 -38 32.5t-35 39.5q-17 27 -17 62v302q0 37 17 62q7 10 33 35.5t38 34.5q31 21 71 24v73h117l2 -73q38 -1 72.5 -27t57.5 -56q13 -16 24 -45l-117 -32q-7 14 -15 22.5t-12.5 11
t-15.5 7.5h-108q-28 -20 -42 -41v-297q0 -10 42 -34h110q26 10 41 42z" />
    <glyph glyph-name="sterling" unicode="&#xa3;" horiz-adv-x="595" 
d="M392 160l118 -35q-8 -21 -22 -42q-61 -83 -133 -83h-286v173h-38v112h38v33h-38v113h38v22q0 38 17 62q10 14 34 38t39 34q34 19 65 19h150v-117h-145q-23 -14 -38 -35v-23h148v-113h-148v-33h148v-112h-148v-56h160q28 21 41 43z" />
    <glyph glyph-name="currency" unicode="&#xa4;" horiz-adv-x="555" 
d="M434 296q0 -39 -23 -73l-1 -1q0 -2 -1 -2l32 -31l-80 -81l-51 49q-8 -1 -24 -1h-79q-16 0 -24 1l-52 -49l-83 82l33 32v1q-23 34 -23 73v21q0 37 20 69l-34 34l80 81l47 -46q18 5 36 5h79q20 0 36 -6l43 41l82 -83l-31 -30q18 -34 18 -65v-21zM318 294v24q0 6 -33 27h-77
q-4 -2 -18.5 -12.5t-14.5 -14.5v-24q0 -5 12 -13.5t20 -11.5h79q32 19 32 25z" />
    <glyph glyph-name="yen" unicode="&#xa5;" horiz-adv-x="511" 
d="M235 396l120 203h138l-103 -174h25v-111h-92q-1 -2 -8.5 -13.5t-10.5 -17.5h111v-109h-119v-174h-123v174h-118v109h110q-2 3 -8.5 14t-9.5 17h-92v111h26q-19 33 -55.5 94t-47.5 80h138z" />
    <glyph glyph-name="brokenbar" unicode="&#xa6;" horiz-adv-x="207" 
d="M162 -89h-117v330h117v-330zM162 343h-117v330h117v-330z" />
    <glyph glyph-name="section" unicode="&#xa7;" horiz-adv-x="518" 
d="M460 236l-12 -15q28 -36 28 -79v-17q0 -38 -16 -63q-6 -11 -31 -36t-36 -33q-31 -22 -75 -22h-144q-69 0 -131 84q-3 4 -19 33q-1 2 -3 6.5t-3 6.5l119 31q15 -32 40 -44h144q6 4 14 13t13 16t5 8v14l-3 6q-41 4 -121 12t-118 11q-39 10 -61 43t-22 72v15q0 37 16 63v-1
q1 2 13 17q-29 34 -29 82v15q0 38 16 61q7 10 31 35t35 34q34 24 75 24h128q40 0 75.5 -26t55.5 -58l15 -25q6 -13 9 -19l-117 -31q-13 25 -42 42h-118q-9 -4 -19 -13.5t-16 -16t-6 -7.5v-11l3 -6h-1q40 -4 121 -12t121 -12q39 -11 60.5 -44.5t21.5 -71.5v-17q0 -38 -16 -64
zM350 320l-159 13q-9 -4 -19 -13t-16 -15t-6 -7v-11l3 -6q29 -3 84.5 -8t72.5 -7h11q6 4 14 12t13 14.5t5 7.5v14z" />
    <glyph glyph-name="dieresis" unicode="&#xa8;" horiz-adv-x="335" 
d="M348 666h-117v122h117v-122zM154 666h-115v122h115v-122z" />
    <glyph glyph-name="copyright" unicode="&#xa9;" horiz-adv-x="954" 
d="M595 371l-89 -19q-6 12 -14 20h-68l-10 -10v-127q0 -3 6 -9h73q4 4 12 20l89 -18q-9 -33 -18 -48q-12 -20 -36 -37t-51 -17h-71q-30 0 -49 13q-12 8 -27.5 23.5t-19.5 22.5v-1q-11 16 -11 45v139q0 25 12 44q22 29 43 42h-1q23 17 54 17h70q53 0 87 -53q9 -15 19 -47z
M205 -60l-111 103q-24 23 -39 43q-17 27 -17 62v301q0 35 17 62q15 20 39 43l111 103l82 -83l-111 -105q-18 -16 -18 -21v-299q0 -5 18 -21l111 -105zM816 43l-111 -103l-82 83l111 105q18 16 18 21v299q0 5 -18 21l-111 105l82 83l111 -103q24 -23 39 -43q17 -27 17 -62
v-301q0 -35 -17 -62q-15 -20 -39 -43z" />
    <glyph glyph-name="ordfeminine" unicode="&#xaa;" horiz-adv-x="381" 
d="M326 255h-88l-7 35q-37 -35 -61 -35h-28q-32 0 -57 18q-23 16 -40 38q-14 19 -14 51v134q0 32 14 51q17 22 40 38q25 18 57 18h169v-242zM212 508h-58q-4 0 -5 -1q-10 -7 -20 -19l-1 -5v-108q0 -2 1 -4q12 -14 20 -19q1 -1 5 -1h23q4 0 5 1q17 10 29 28l1 5v123z" />
    <glyph glyph-name="guillemotleft" unicode="&#xab;" horiz-adv-x="660" 
d="M579 123l-134 -35l-172 168l172 172l131 -38l-136 -132zM328 123l-134 -35l-172 168l172 172l131 -38l-136 -132z" />
    <glyph glyph-name="logicalnot" unicode="&#xac;" horiz-adv-x="597" 
d="M480 306v-249h-117v135h-318v114h435z" />
    <glyph glyph-name="registered" unicode="&#xae;" horiz-adv-x="954" 
d="M205 -60l-111 103q-24 23 -39 43q-17 27 -17 62v301q0 35 17 62q15 20 39 43l111 103l82 -83l-111 -105q-18 -16 -18 -21v-299q0 -5 18 -21l111 -105zM816 43l-111 -103l-82 83l111 105q18 16 18 21v299q0 5 -18 21l-111 105l82 83l111 -103q24 -23 39 -43q17 -27 17 -62
v-301q0 -35 -17 -62q-15 -20 -39 -43zM616 114h-110l-50 94h-33v-92h-101v354h145q41 0 69 -22q36 -28 50 -48q13 -20 13 -55v-13q0 -41 -13 -60q-13 -17 -35 -33zM499 323v23q-8 11 -27 24h-49v-68h49q3 0 12.5 7t14.5 14z" />
    <glyph glyph-name="macron" unicode="&#xaf;" horiz-adv-x="340" 
d="M246 683h-227v107h227v-107z" />
    <glyph glyph-name="degree" unicode="&#xb0;" horiz-adv-x="406" 
d="M286 599q0 -45 -31 -76t-75 -31t-76.5 31.5t-32.5 75.5q0 43 32.5 74.5t76.5 31.5q43 0 74.5 -31.5t31.5 -74.5zM219 599q0 16 -11.5 28t-27.5 12q-17 0 -29.5 -12t-12.5 -28q0 -17 12.5 -29.5t29.5 -12.5q16 0 27.5 12.5t11.5 29.5z" />
    <glyph glyph-name="plusminus" unicode="&#xb1;" horiz-adv-x="526" 
d="M437 192h-138v-135h-117v135h-138v114h138v137h117v-137h138v-114zM438 -116h-392v116h392v-116z" />
    <glyph glyph-name="twosuperior" unicode="&#xb2;" 
 />
    <glyph glyph-name="threesuperior" unicode="&#xb3;" horiz-adv-x="505" 
 />
    <glyph glyph-name="acute" unicode="&#xb4;" horiz-adv-x="342" 
d="M244 660h-118l93 136h130z" />
    <glyph glyph-name="mu" unicode="&#xb5;" horiz-adv-x="563" 
d="M154 -90h-117v690h122v-450q24 -30 37 -38h127q19 12 36 37v451h122v-451q0 -37 -17 -62q-11 -16 -34 -40t-38 -33q-34 -19 -66 -19h-123q-16 0 -49 27v-112z" />
    <glyph glyph-name="paragraph" unicode="&#xb6;" horiz-adv-x="529" 
d="M470 0h-120v239h-16v-239h-119v239h-37q-44 0 -74 23q-11 8 -30 26t-25 28q-19 28 -19 65v75q0 36 19 66q17 25 55 55q33 23 75 23h291v-600zM215 358v125h-36q-17 -10 -27 -24v-75q4 -6 10 -12t11 -10t6 -4h36zM350 358v125h-16v-125h16z" />
    <glyph glyph-name="periodcentered" unicode="&#xb7;" horiz-adv-x="302" 
d="M193 191h-141v120h141v-120z" />
    <glyph glyph-name="cedilla" unicode="&#xb8;" horiz-adv-x="375" 
d="M320 -69l-71 -130h-124l91 160z" />
    <glyph glyph-name="onesuperior" unicode="&#xb9;" horiz-adv-x="319" 
 />
    <glyph glyph-name="ordmasculine" unicode="&#xba;" horiz-adv-x="381" 
d="M311 362q0 -32 -14 -51q-16 -21 -39 -38q-26 -18 -58 -18h-58q-32 0 -57 18q-23 16 -40 38q-14 19 -14 51v134q0 32 14 51q17 22 40 38q25 18 57 18h58q32 0 58 -18q23 -17 39 -38q14 -19 14 -51v-134zM212 476q0 4 -1 6q-5 6 -19 18q-1 1 -5 1h-33q-4 0 -5 -1
q-10 -7 -20 -19l-1 -5v-95q0 -2 1 -4q12 -14 20 -19q1 -1 5 -1h33q4 0 5 1q16 13 19 18l1 5v95z" />
    <glyph glyph-name="guillemotright" unicode="&#xbb;" horiz-adv-x="660" 
d="M156 88l-134 35l139 135l-136 132l131 38l172 -172zM407 88l-134 35l139 135l-136 132l131 38l172 -172z" />
    <glyph glyph-name="onequarter" unicode="&#xbc;" horiz-adv-x="670" 
 />
    <glyph glyph-name="onehalf" unicode="&#xbd;" horiz-adv-x="723" 
 />
    <glyph glyph-name="threequarters" unicode="&#xbe;" horiz-adv-x="675" 
 />
    <glyph glyph-name="questiondown" unicode="&#xbf;" horiz-adv-x="481" 
d="M465 125l1 -1q-7 -20 -24 -44q-59 -84 -131 -84h-114q-41 0 -75 24q-10 7 -29 26t-28 30q-20 32 -20 66v61q0 38 22 68.5t55 46.5l15 7q57 23 57 34v73h120v-77q0 -27 -10.5 -49.5t-31 -39t-35 -25t-36.5 -18.5q-34 -16 -34 -23v-54q5 -11 16 -21.5t14 -10.5h110
q28 13 42 43zM316 600v-123h-125v123h125z" />
    <glyph glyph-name="Agrave" unicode="&#xc0;" horiz-adv-x="570" 
d="M529 0h-130l-40 115h-209q-6 -19 -20.5 -57.5t-20.5 -57.5h-130l208 600h135zM322 232l-68 193q-11 -32 -33.5 -96.5t-33.5 -96.5h135zM318 660h-118l-105 136h130z" />
    <glyph glyph-name="Aacute" unicode="&#xc1;" horiz-adv-x="570" 
d="M529 0h-130l-40 115h-209q-6 -19 -20.5 -57.5t-20.5 -57.5h-130l208 600h135zM322 232l-68 193q-11 -32 -33.5 -96.5t-33.5 -96.5h135zM264 660h-118l93 136h130z" />
    <glyph glyph-name="Acircumflex" unicode="&#xc2;" horiz-adv-x="570" 
d="M529 0h-130l-40 115h-209q-6 -19 -20.5 -57.5t-20.5 -57.5h-130l208 600h135zM322 232l-68 193q-11 -32 -33.5 -96.5t-33.5 -96.5h135zM223 796h59l145 -136h-140l-35 39l-34 -39h-140z" />
    <glyph glyph-name="Atilde" unicode="&#xc3;" horiz-adv-x="570" 
d="M529 0h-130l-40 115h-209q-6 -19 -20.5 -57.5t-20.5 -57.5h-130l208 600h135zM322 232l-68 193q-11 -32 -33.5 -96.5t-33.5 -96.5h135zM433 703l-102 -20q-5 12 -14 18t-15 4q-10 -2 -35 -10t-35 -10q-103 -18 -149 99l104 21q11 -25 26 -23q11 2 36 10.5t36 10.5
q46 8 85 -16t63 -84z" />
    <glyph glyph-name="Adieresis" unicode="&#xc4;" horiz-adv-x="580" 
d="M539 0h-130l-40 115h-209q-6 -19 -20.5 -57.5t-20.5 -57.5h-130l208 600h135zM332 232l-68 193q-11 -32 -33.5 -96.5t-33.5 -96.5h135zM420 666h-117v122h117v-122zM226 666h-115v122h115v-122z" />
    <glyph glyph-name="Aring" unicode="&#xc5;" horiz-adv-x="580" 
d="M539 0h-130l-40 115h-209q-6 -19 -20.5 -57.5t-20.5 -57.5h-130l208 600h135zM332 232l-68 193q-11 -32 -33.5 -96.5t-33.5 -96.5h135zM370 729q0 -45 -31 -76t-75 -31t-76.5 31.5t-32.5 75.5q0 43 32.5 74.5t76.5 31.5q43 0 74.5 -31.5t31.5 -74.5zM303 729
q0 16 -11.5 28t-27.5 12q-17 0 -29.5 -12t-12.5 -28q0 -17 12.5 -29.5t29.5 -12.5q16 0 27.5 12.5t11.5 29.5z" />
    <glyph glyph-name="AE" unicode="&#xc6;" horiz-adv-x="762" 
d="M677 0h-362v115h-155l-41 -115h-130l208 600h480v-117h-240v-123h231v-117h-231v-126h240v-117zM283 483l-86 -251h118v251h-32z" />
    <glyph glyph-name="Ccedilla" unicode="&#xc7;" horiz-adv-x="555" 
d="M490 456l-113 -32q-19 40 -53 63h-125q-24 -17 -39 -40v-298q0 -1 4.5 -7t14 -15t20.5 -15h127q28 19 51 60l114 -28q-12 -34 -34 -64q-60 -85 -132 -85h-131q-34 0 -66 19q-15 9 -38 32.5t-35 39.5q-17 27 -17 62v303q0 37 17 62q11 15 34.5 39t39.5 33q34 19 65 19h131
q70 0 131 -84q20 -28 34 -64zM330 -69l-71 -130h-124l91 160z" />
    <glyph glyph-name="Egrave" unicode="&#xc8;" 
d="M431 0h-394v600h394v-117h-272v-123h263v-117h-263v-126h272v-117zM318 660h-118l-105 136h130z" />
    <glyph glyph-name="Eacute" unicode="&#xc9;" 
d="M431 0h-394v600h394v-117h-272v-123h263v-117h-263v-126h272v-117zM264 660h-118l93 136h130z" />
    <glyph glyph-name="Ecircumflex" unicode="&#xca;" horiz-adv-x="518" 
d="M433 0h-394v600h394v-117h-272v-123h263v-117h-263v-126h272v-117zM203 796h59l145 -136h-140l-35 39l-34 -39h-140z" />
    <glyph glyph-name="Edieresis" unicode="&#xcb;" 
d="M431 0h-394v600h394v-117h-272v-123h263v-117h-263v-126h272v-117zM387 666h-117v122h117v-122zM193 666h-115v122h115v-122z" />
    <glyph glyph-name="Igrave" unicode="&#xcc;" horiz-adv-x="250" 
d="M159 0h-123v600h123v-600zM158 660h-118l-105 136h130z" />
    <glyph glyph-name="Iacute" unicode="&#xcd;" horiz-adv-x="252" 
d="M159 0h-123v600h123v-600zM158 660h-118l93 136h130z" />
    <glyph glyph-name="Icircumflex" unicode="&#xce;" horiz-adv-x="250" 
d="M159 0h-123v600h123v-600zM62 796h59l145 -136h-140l-35 39l-34 -39h-140z" />
    <glyph glyph-name="Idieresis" unicode="&#xcf;" horiz-adv-x="250" 
d="M159 0h-123v600h123v-600zM249 666h-117v122h117v-122zM55 666h-115v122h115v-122z" />
    <glyph glyph-name="Eth" unicode="&#xd0;" horiz-adv-x="589" 
d="M507 151q0 -36 -16 -61q-11 -16 -34.5 -39t-39.5 -32q-36 -19 -64 -19h-286v245h-78v112h78v243h286q37 0 66 -18q31 -20 71 -73q17 -24 17 -62v-296zM287 245h-98v-128h159q24 14 37 38v287q-10 25 -37 41h-159v-126h98v-112z" />
    <glyph glyph-name="Ntilde" unicode="&#xd1;" horiz-adv-x="563" 
d="M476 0h-123l-194 353v-353h-122v600h125l192 -358v358h122v-600zM433 703l-102 -20q-5 12 -14 18t-15 4q-10 -2 -35 -10t-35 -10q-103 -18 -149 99l104 21q11 -25 26 -23q11 2 36 10.5t36 10.5q46 8 85 -16t63 -84z" />
    <glyph glyph-name="Ograve" unicode="&#xd2;" horiz-adv-x="581" 
d="M499 149q0 -37 -17 -62q-42 -54 -73 -73q-32 -19 -66 -19h-152q-34 0 -66 19q-15 9 -38.5 33.5t-34.5 39.5q-17 25 -17 62v301q0 38 17 63q11 15 34.5 39t38.5 33q32 19 66 19h152q34 0 66 -19q28 -16 73 -72q17 -25 17 -63v-301zM377 149v301q-14 24 -36 37h-147
q-22 -16 -37 -38v-300q20 -27 36 -37h147q19 14 37 37zM378 660h-118l-105 136h130z" />
    <glyph glyph-name="Oacute" unicode="&#xd3;" horiz-adv-x="581" 
d="M499 149q0 -37 -17 -62q-42 -54 -73 -73q-32 -19 -66 -19h-152q-34 0 -66 19q-15 9 -38.5 33.5t-34.5 39.5q-17 25 -17 62v301q0 38 17 63q11 15 34.5 39t38.5 33q32 19 66 19h152q34 0 66 -19q28 -16 73 -72q17 -25 17 -63v-301zM377 149v301q-14 24 -36 37h-147
q-22 -16 -37 -38v-300q20 -27 36 -37h147q19 14 37 37zM274 660h-118l93 136h130z" />
    <glyph glyph-name="Ocircumflex" unicode="&#xd4;" horiz-adv-x="581" 
d="M499 149q0 -37 -17 -62q-42 -54 -73 -73q-32 -19 -66 -19h-152q-34 0 -66 19q-15 9 -38.5 33.5t-34.5 39.5q-17 25 -17 62v301q0 38 17 63q11 15 34.5 39t38.5 33q32 19 66 19h152q34 0 66 -19q28 -16 73 -72q17 -25 17 -63v-301zM377 149v301q-14 24 -36 37h-147
q-22 -16 -37 -38v-300q20 -27 36 -37h147q19 14 37 37zM242 796h59l145 -136h-140l-35 39l-34 -39h-140z" />
    <glyph glyph-name="Otilde" unicode="&#xd5;" horiz-adv-x="581" 
d="M499 149q0 -37 -17 -62q-42 -54 -73 -73q-32 -19 -66 -19h-152q-34 0 -66 19q-15 9 -38.5 33.5t-34.5 39.5q-17 25 -17 62v301q0 38 17 63q11 15 34.5 39t38.5 33q32 19 66 19h152q34 0 66 -19q28 -16 73 -72q17 -25 17 -63v-301zM377 149v301q-14 24 -36 37h-147
q-22 -16 -37 -38v-300q20 -27 36 -37h147q19 14 37 37zM448 703l-102 -20q-5 12 -14 18t-15 4q-10 -2 -35 -10t-35 -10q-103 -18 -149 99l104 21q11 -25 26 -23q11 2 36 10.5t36 10.5q46 8 85 -16t63 -84z" />
    <glyph glyph-name="Odieresis" unicode="&#xd6;" horiz-adv-x="581" 
d="M418 666h-117v122h117v-122zM224 666h-115v122h115v-122zM499 149q0 -37 -17 -62q-42 -54 -73 -73q-32 -19 -66 -19h-152q-34 0 -66 19q-15 9 -38.5 33.5t-34.5 39.5q-17 25 -17 62v301q0 38 17 63q11 15 34.5 39t38.5 33q32 19 66 19h152q34 0 66 -19q28 -16 73 -72
q17 -25 17 -63v-301zM377 149v301q-14 24 -36 37h-147q-22 -16 -37 -38v-300q20 -27 36 -37h147q19 14 37 37z" />
    <glyph glyph-name="multiply" unicode="&#xd7;" horiz-adv-x="526" 
d="M355 56l-114 112l-116 -112l-83 82l116 113l-120 117l80 81l121 -118l120 112l82 -83l-119 -111l113 -112z" />
    <glyph glyph-name="Oslash" unicode="&#xd8;" horiz-adv-x="610" 
d="M520 620l-42 -76l28 -31q18 -26 18 -63v-301q0 -36 -18 -62q-11 -16 -34.5 -40t-37.5 -33q-32 -19 -66 -19h-176q-8 0 -12 1l-11 -22h-122l40 73q-22 22 -34 40q-17 25 -17 62v301q0 38 17 63q11 15 34.5 39t38.5 33q32 19 66 19h176q7 0 21 -2l10 18h121zM158 449v-271
l168 309h-131q-22 -16 -37 -38zM401 150v251l-157 -288h121q19 12 36 37z" />
    <glyph glyph-name="Ugrave" unicode="&#xd9;" horiz-adv-x="573" 
d="M491 149q0 -37 -17 -62q-11 -16 -34 -40t-38 -33q-34 -19 -66 -19h-143q-34 0 -66 19q-15 9 -38.5 33.5t-34.5 39.5q-17 25 -17 62v451h122v-450q24 -30 37 -38h137q19 12 36 37v451h122v-451zM378 660h-118l-105 136h130z" />
    <glyph glyph-name="Uacute" unicode="&#xda;" horiz-adv-x="573" 
d="M491 149q0 -37 -17 -62q-11 -16 -34 -40t-38 -33q-34 -19 -66 -19h-143q-34 0 -66 19q-15 9 -38.5 33.5t-34.5 39.5q-17 25 -17 62v451h122v-450q24 -30 37 -38h137q19 12 36 37v451h122v-451zM274 660h-118l93 136h130z" />
    <glyph glyph-name="Ucircumflex" unicode="&#xdb;" horiz-adv-x="573" 
d="M491 149q0 -37 -17 -62q-11 -16 -34 -40t-38 -33q-34 -19 -66 -19h-143q-34 0 -66 19q-15 9 -38.5 33.5t-34.5 39.5q-17 25 -17 62v451h122v-450q24 -30 37 -38h137q19 12 36 37v451h122v-451zM237 796h59l145 -136h-140l-35 39l-34 -39h-140z" />
    <glyph glyph-name="Udieresis" unicode="&#xdc;" horiz-adv-x="573" 
d="M491 149q0 -37 -17 -62q-11 -16 -34 -40t-38 -33q-34 -19 -66 -19h-143q-34 0 -66 19q-15 9 -38.5 33.5t-34.5 39.5q-17 25 -17 62v451h122v-450q24 -30 37 -38h137q19 12 36 37v451h122v-451zM418 666h-117v122h117v-122zM224 666h-115v122h115v-122z" />
    <glyph glyph-name="Yacute" unicode="&#xdd;" horiz-adv-x="511" 
d="M500 600l-204 -340v-260h-123v260l-201 340h138l125 -211l127 211h138zM277 660h-118l93 136h130z" />
    <glyph glyph-name="Thorn" unicode="&#xde;" horiz-adv-x="534" 
d="M477 260q0 -36 -19 -65q-15 -23 -54 -54q-32 -23 -75 -23h-170v-118h-122v599h122v-110h170q42 0 75 -22q32 -25 54 -56q19 -29 19 -66v-85zM355 260v88q-9 15 -26 25h-170v-137h170q3 0 12.5 8.5t13.5 15.5z" />
    <glyph glyph-name="germandbls" unicode="&#xdf;" horiz-adv-x="1088" 
d="M473 148q0 -38 -16 -63q-7 -10 -31.5 -35.5t-35.5 -33.5q-31 -22 -75 -22h-144q-69 0 -131 84q-5 5 -25 46l119 32q13 -30 37 -45h148q6 4 14 12t13 14.5t5 7.5v60l-3 6q-35 10 -116 33t-124 35q-39 11 -61 44t-22 72v55q0 38 16 63q8 10 31.5 35t34.5 33q34 24 75 24
h128q40 0 75.5 -26t55.5 -57q15 -25 24 -45l-117 -32q-13 26 -42 43h-118q-9 -4 -19 -13t-16 -15.5t-6 -7.5v-53l3 -6q45 -13 129.5 -37t111.5 -32q39 -11 60.5 -44.5t21.5 -71.5v-60zM1022 148q0 -38 -16 -63q-7 -10 -31.5 -35.5t-35.5 -33.5q-31 -22 -75 -22h-144
q-69 0 -131 84q-5 5 -25 46l119 32q13 -30 37 -45h148q6 4 14 12t13 14.5t5 7.5v60l-3 6q-35 10 -116 33t-124 35q-39 11 -61 44t-22 72v55q0 38 16 63q8 10 31.5 35t34.5 33q34 24 75 24h128q40 0 75.5 -26t55.5 -57q15 -25 24 -45l-117 -32q-13 26 -42 43h-118
q-9 -4 -19 -13t-16 -15.5t-6 -7.5v-53l3 -6q45 -13 129.5 -37t111.5 -32q39 -11 60.5 -44.5t21.5 -71.5v-60z" />
    <glyph glyph-name="agrave" unicode="&#xe0;" horiz-adv-x="580" 
d="M539 0h-130l-40 115h-209q-6 -19 -20.5 -57.5t-20.5 -57.5h-130l208 600h135zM332 232l-68 193q-11 -32 -33.5 -96.5t-33.5 -96.5h135zM328 660h-118l-105 136h130z" />
    <glyph glyph-name="aacute" unicode="&#xe1;" horiz-adv-x="580" 
d="M539 0h-130l-40 115h-209q-6 -19 -20.5 -57.5t-20.5 -57.5h-130l208 600h135zM332 232l-68 193q-11 -32 -33.5 -96.5t-33.5 -96.5h135zM320 662h-117l93 136h129z" />
    <glyph glyph-name="acircumflex" unicode="&#xe2;" horiz-adv-x="580" 
d="M539 0h-130l-40 115h-209q-6 -19 -20.5 -57.5t-20.5 -57.5h-130l208 600h135zM332 232l-68 193q-11 -32 -33.5 -96.5t-33.5 -96.5h135zM231 796h59l145 -136h-140l-35 39l-34 -39h-140z" />
    <glyph glyph-name="atilde" unicode="&#xe3;" horiz-adv-x="580" 
d="M539 0h-130l-40 115h-209q-6 -19 -20.5 -57.5t-20.5 -57.5h-130l208 600h135zM332 232l-68 193q-11 -32 -33.5 -96.5t-33.5 -96.5h135zM438 703l-102 -20q-5 12 -14 18t-15 4q-10 -2 -35 -10t-35 -10q-103 -18 -149 99l104 21q11 -25 26 -23q11 2 36 10.5t36 10.5
q46 8 85 -16t63 -84z" />
    <glyph glyph-name="adieresis" unicode="&#xe4;" horiz-adv-x="580" 
d="M539 0h-130l-40 115h-209q-6 -19 -20.5 -57.5t-20.5 -57.5h-130l208 600h135zM332 232l-68 193q-11 -32 -33.5 -96.5t-33.5 -96.5h135zM417 666h-117v122h117v-122zM223 666h-115v122h115v-122z" />
    <glyph glyph-name="aring" unicode="&#xe5;" horiz-adv-x="580" 
d="M539 0h-130l-40 115h-209q-6 -19 -20.5 -57.5t-20.5 -57.5h-130l208 600h135zM332 232l-68 193q-11 -32 -33.5 -96.5t-33.5 -96.5h135zM371 729q0 -45 -31 -76t-75 -31t-76.5 31.5t-32.5 75.5q0 43 32.5 74.5t76.5 31.5q43 0 74.5 -31.5t31.5 -74.5zM304 729
q0 16 -11.5 28t-27.5 12q-17 0 -29.5 -12t-12.5 -28q0 -17 12.5 -29.5t29.5 -12.5q16 0 27.5 12.5t11.5 29.5z" />
    <glyph glyph-name="ae" unicode="&#xe6;" horiz-adv-x="767" 
d="M677 0h-362v115h-155l-41 -115h-130l208 600h480v-117h-240v-123h231v-117h-231v-126h240v-117zM283 483l-86 -251h118v251h-32z" />
    <glyph glyph-name="ccedilla" unicode="&#xe7;" horiz-adv-x="531" 
d="M470 125l1 -1q-10 -22 -25 -45q-21 -32 -56 -58t-75 -26h-115q-45 0 -72 19q-15 9 -38 32.5t-35 39.5q-17 27 -17 62v300q0 37 17 62q7 10 33 35.5t38 34.5q34 24 75 24h114q69 0 131 -83q14 -20 24 -45l-117 -32q-16 31 -42 43h-109q-26 -18 -42 -43v-298q0 -1 5.5 -7
t15.5 -14t20 -13h111q24 9 41 45zM330 -69l-71 -130h-124l91 160z" />
    <glyph glyph-name="egrave" unicode="&#xe8;" horiz-adv-x="506" 
d="M421 0h-384v600h384v-117h-262v-124h253v-117h-253v-125h262v-117zM318 660h-118l-105 136h130z" />
    <glyph glyph-name="eacute" unicode="&#xe9;" horiz-adv-x="506" 
d="M421 0h-384v600h384v-117h-262v-124h253v-117h-253v-125h262v-117zM264 660h-118l93 136h130z" />
    <glyph glyph-name="ecircumflex" unicode="&#xea;" horiz-adv-x="509" 
d="M424 0h-384v600h384v-117h-262v-124h253v-117h-253v-125h262v-117zM203 796h59l145 -136h-140l-35 39l-34 -39h-140z" />
    <glyph glyph-name="edieresis" unicode="&#xeb;" horiz-adv-x="506" 
d="M421 0h-384v600h384v-117h-262v-124h253v-117h-253v-125h262v-117zM382 666h-117v122h117v-122zM188 666h-115v122h115v-122z" />
    <glyph glyph-name="igrave" unicode="&#xec;" horiz-adv-x="242" 
d="M159 0h-123v600h123v-600zM158 660h-118l-105 136h130z" />
    <glyph glyph-name="iacute" unicode="&#xed;" horiz-adv-x="245" 
d="M159 0h-123v600h123v-600zM151 660h-118l93 136h130z" />
    <glyph glyph-name="icircumflex" unicode="&#xee;" horiz-adv-x="263" 
d="M159 0h-123v600h123v-600zM62 796h59l145 -136h-140l-35 39l-34 -39h-140z" />
    <glyph glyph-name="idieresis" unicode="&#xef;" horiz-adv-x="250" 
d="M159 0h-123v600h123v-600zM249 666h-117v122h117v-122zM55 666h-115v122h115v-122z" />
    <glyph glyph-name="eth" unicode="&#xf0;" horiz-adv-x="589" 
d="M507 151q0 -36 -16 -61q-11 -16 -34.5 -39t-39.5 -32q-36 -19 -64 -19h-286v245h-78v112h78v243h286q37 0 66 -18q31 -20 71 -73q17 -24 17 -62v-296zM287 245h-98v-128h159q24 14 37 38v287q-10 25 -37 41h-159v-126h98v-112z" />
    <glyph glyph-name="ntilde" unicode="&#xf1;" horiz-adv-x="563" 
d="M476 0h-123l-194 353v-353h-122v600h125l192 -358v358h122v-600zM440 703l-102 -20q-5 12 -14 18t-15 4q-10 -2 -35 -10t-35 -10q-103 -18 -149 99l104 21q11 -25 26 -23q11 2 36 10.5t36 10.5q46 8 85 -16t63 -84z" />
    <glyph glyph-name="ograve" unicode="&#xf2;" horiz-adv-x="567" 
d="M484 149q0 -36 -18 -62q-11 -16 -34.5 -40t-37.5 -33q-32 -19 -66 -19h-136q-34 0 -66 19q-15 9 -38.5 33.5t-34.5 39.5q-17 25 -17 62v301q0 38 17 63q11 15 34.5 39t38.5 33q32 19 66 19h136q34 0 66 -19q26 -16 72 -72q18 -26 18 -63v-301zM361 150v300q-13 24 -35 37
h-131q-22 -16 -37 -38v-299q20 -27 36 -37h131q19 12 36 37zM368 660h-118l-105 136h130z" />
    <glyph glyph-name="oacute" unicode="&#xf3;" horiz-adv-x="567" 
d="M484 149q0 -36 -18 -62q-11 -16 -34.5 -40t-37.5 -33q-32 -19 -66 -19h-136q-34 0 -66 19q-15 9 -38.5 33.5t-34.5 39.5q-17 25 -17 62v301q0 38 17 63q11 15 34.5 39t38.5 33q32 19 66 19h136q34 0 66 -19q26 -16 72 -72q18 -26 18 -63v-301zM361 150v300q-13 24 -35 37
h-131q-22 -16 -37 -38v-299q20 -27 36 -37h131q19 12 36 37zM284 660h-118l93 136h130z" />
    <glyph glyph-name="ocircumflex" unicode="&#xf4;" horiz-adv-x="567" 
d="M484 149q0 -36 -18 -62q-11 -16 -34.5 -40t-37.5 -33q-32 -19 -66 -19h-136q-34 0 -66 19q-15 9 -38.5 33.5t-34.5 39.5q-17 25 -17 62v301q0 38 17 63q11 15 34.5 39t38.5 33q32 19 66 19h136q34 0 66 -19q26 -16 72 -72q18 -26 18 -63v-301zM361 150v300q-13 24 -35 37
h-131q-22 -16 -37 -38v-299q20 -27 36 -37h131q19 12 36 37zM232 796h59l145 -136h-140l-35 39l-34 -39h-140z" />
    <glyph glyph-name="otilde" unicode="&#xf5;" horiz-adv-x="567" 
d="M484 149q0 -36 -18 -62q-11 -16 -34.5 -40t-37.5 -33q-32 -19 -66 -19h-136q-34 0 -66 19q-15 9 -38.5 33.5t-34.5 39.5q-17 25 -17 62v301q0 38 17 63q11 15 34.5 39t38.5 33q32 19 66 19h136q34 0 66 -19q26 -16 72 -72q18 -26 18 -63v-301zM361 150v300q-13 24 -35 37
h-131q-22 -16 -37 -38v-299q20 -27 36 -37h131q19 12 36 37zM437 703l-102 -20q-5 12 -14 18t-15 4q-10 -2 -35 -10t-35 -10q-103 -18 -149 99l104 21q11 -25 26 -23q11 2 36 10.5t36 10.5q46 8 85 -16t63 -84z" />
    <glyph glyph-name="odieresis" unicode="&#xf6;" horiz-adv-x="567" 
d="M484 149q0 -36 -18 -62q-11 -16 -34.5 -40t-37.5 -33q-32 -19 -66 -19h-136q-34 0 -66 19q-15 9 -38.5 33.5t-34.5 39.5q-17 25 -17 62v301q0 38 17 63q11 15 34.5 39t38.5 33q32 19 66 19h136q34 0 66 -19q26 -16 72 -72q18 -26 18 -63v-301zM361 150v300q-13 24 -35 37
h-131q-22 -16 -37 -38v-299q20 -27 36 -37h131q19 12 36 37zM418 666h-117v122h117v-122zM224 666h-115v122h115v-122z" />
    <glyph glyph-name="divide" unicode="&#xf7;" horiz-adv-x="399" 
 />
    <glyph glyph-name="oslash" unicode="&#xf8;" horiz-adv-x="610" 
d="M520 620l-42 -76l28 -31q18 -26 18 -63v-301q0 -36 -18 -62q-11 -16 -34.5 -40t-37.5 -33q-32 -19 -66 -19h-176q-8 0 -12 1l-11 -22h-122l40 73q-22 22 -34 40q-17 25 -17 62v301q0 38 17 63q11 15 34.5 39t38.5 33q32 19 66 19h176q7 0 21 -2l10 18h121zM158 449v-271
l168 309h-131q-22 -16 -37 -38zM401 150v251l-157 -288h121q19 12 36 37z" />
    <glyph glyph-name="ugrave" unicode="&#xf9;" horiz-adv-x="556" 
d="M481 149q0 -37 -17 -62q-11 -16 -34 -40t-38 -33q-34 -19 -66 -19h-133q-34 0 -66 19q-15 9 -38.5 33.5t-34.5 39.5q-17 25 -17 62v451h122v-450q24 -30 37 -38h127q19 12 36 37v451h122v-451zM368 660h-118l-105 136h130z" />
    <glyph glyph-name="uacute" unicode="&#xfa;" horiz-adv-x="556" 
d="M481 149q0 -37 -17 -62q-11 -16 -34 -40t-38 -33q-34 -19 -66 -19h-133q-34 0 -66 19q-15 9 -38.5 33.5t-34.5 39.5q-17 25 -17 62v451h122v-450q24 -30 37 -38h127q19 12 36 37v451h122v-451zM284 660h-118l93 136h130z" />
    <glyph glyph-name="ucircumflex" unicode="&#xfb;" horiz-adv-x="556" 
d="M481 149q0 -37 -17 -62q-11 -16 -34 -40t-38 -33q-34 -19 -66 -19h-133q-34 0 -66 19q-15 9 -38.5 33.5t-34.5 39.5q-17 25 -17 62v451h122v-450q24 -30 37 -38h127q19 12 36 37v451h122v-451zM232 796h59l145 -136h-140l-35 39l-34 -39h-140z" />
    <glyph glyph-name="udieresis" unicode="&#xfc;" horiz-adv-x="556" 
d="M481 149q0 -37 -17 -62q-11 -16 -34 -40t-38 -33q-34 -19 -66 -19h-133q-34 0 -66 19q-15 9 -38.5 33.5t-34.5 39.5q-17 25 -17 62v451h122v-450q24 -30 37 -38h127q19 12 36 37v451h122v-451zM415 666h-117v122h117v-122zM221 666h-115v122h115v-122z" />
    <glyph glyph-name="yacute" unicode="&#xfd;" horiz-adv-x="511" 
d="M500 600l-204 -340v-260h-123v260l-201 340h138l125 -211l127 211h138zM277 660h-118l93 136h130z" />
    <glyph glyph-name="thorn" unicode="&#xfe;" horiz-adv-x="534" 
d="M477 260q0 -36 -19 -65q-15 -23 -54 -54q-32 -23 -75 -23h-170v-118h-122v599h122v-110h170q42 0 75 -22q32 -25 54 -56q19 -29 19 -66v-85zM355 260v88q-9 15 -26 25h-170v-137h170q3 0 12.5 8.5t13.5 15.5z" />
    <glyph glyph-name="ydieresis" unicode="&#xff;" horiz-adv-x="511" 
d="M500 600l-204 -340v-260h-123v260l-201 340h138l125 -211l127 211h138zM391 666h-117v122h117v-122zM197 666h-115v122h115v-122z" />
    <glyph glyph-name="Amacron" unicode="&#x100;" horiz-adv-x="570" 
d="M378 683h-227v107h227v-107zM539 0h-130l-40 115h-209q-6 -19 -20.5 -57.5t-20.5 -57.5h-130l208 600h135zM332 232l-68 193q-11 -32 -33.5 -96.5t-33.5 -96.5h135z" />
    <glyph glyph-name="amacron" unicode="&#x101;" horiz-adv-x="570" 
d="M368 683h-227v107h227v-107zM529 0h-130l-40 115h-209q-6 -19 -20.5 -57.5t-20.5 -57.5h-130l208 600h135zM322 232l-68 193q-11 -32 -33.5 -96.5t-33.5 -96.5h135z" />
    <glyph glyph-name="Abreve" unicode="&#x102;" horiz-adv-x="570" 
d="M529 0h-130l-40 115h-209q-6 -19 -20.5 -57.5t-20.5 -57.5h-130l208 600h135zM322 232l-68 193q-11 -32 -33.5 -96.5t-33.5 -96.5h135zM295 766h67q0 -45 -31 -76t-75 -31t-76.5 31.5t-32.5 75.5v0v0h1v0h1h1h1h1h1h1h1h1h1h1h1h2h1h1h1h1h1h2h1h1h2h1h1h2h1h2h1h2h1h2h1
h2h1h2h2h1h2h2h1h2h2h1h10q0 -17 12.5 -29.5t29.5 -12.5q16 0 27.5 12.5t11.5 29.5z" />
    <glyph glyph-name="abreve" unicode="&#x103;" horiz-adv-x="570" 
d="M529 0h-130l-40 115h-209q-6 -19 -20.5 -57.5t-20.5 -57.5h-130l208 600h135zM322 232l-68 193q-11 -32 -33.5 -96.5t-33.5 -96.5h135zM295 766h67q0 -45 -31 -76t-75 -31t-76.5 31.5t-32.5 75.5v0v0h1v0h1h1h1h1h1h1h1h1h1h1h1h2h1h1h1h1h1h2h1h1h2h1h1h2h1h2h1h2h1h2h1
h2h1h2h2h1h2h2h1h2h2h1h10q0 -17 12.5 -29.5t29.5 -12.5q16 0 27.5 12.5t11.5 29.5z" />
    <glyph glyph-name="Aogonek" unicode="&#x104;" horiz-adv-x="570" 
d="M529 0h-130l-40 115h-209q-6 -19 -20.5 -57.5t-20.5 -57.5h-130l208 600h135zM322 232l-68 193q-11 -32 -33.5 -96.5t-33.5 -96.5h135zM446 -199l-71 130l104 30l91 -160h-124z" />
    <glyph glyph-name="aogonek" unicode="&#x105;" horiz-adv-x="570" 
d="M529 0h-130l-40 115h-209q-6 -19 -20.5 -57.5t-20.5 -57.5h-130l208 600h135zM322 232l-68 193q-11 -32 -33.5 -96.5t-33.5 -96.5h135zM439 -199l-71 130l104 30l91 -160h-124z" />
    <glyph glyph-name="Cacute" unicode="&#x106;" horiz-adv-x="555" 
d="M490 456l-113 -32q-19 40 -53 63h-125q-24 -17 -39 -40v-298q0 -1 4.5 -7t14 -15t20.5 -15h127q28 19 51 60l114 -28q-12 -34 -34 -64q-60 -85 -132 -85h-131q-34 0 -66 19q-15 9 -38 32.5t-35 39.5q-17 27 -17 62v303q0 37 17 62q11 15 34.5 39t39.5 33q34 19 65 19h131
q70 0 131 -84q20 -28 34 -64zM301 660h-118l93 136h130z" />
    <glyph glyph-name="cacute" unicode="&#x107;" horiz-adv-x="531" 
d="M304 660h-118l93 136h130zM469 125l1 -1q-10 -22 -25 -45q-21 -32 -56 -58t-75 -26h-115q-45 0 -72 19q-15 9 -38 32.5t-35 39.5q-17 27 -17 62v300q0 37 17 62q7 10 33 35.5t38 34.5q34 24 75 24h114q69 0 131 -83q14 -20 24 -45l-117 -32q-16 31 -42 43h-109
q-26 -18 -42 -43v-298q0 -1 5.5 -7t15.5 -14t20 -13h111q24 9 41 45z" />
    <glyph glyph-name="Ccircumflex" unicode="&#x108;" horiz-adv-x="555" 
d="M490 456l-113 -32q-19 40 -53 63h-125q-24 -17 -39 -40v-298q0 -1 4.5 -7t14 -15t20.5 -15h127q28 19 51 60l114 -28q-12 -34 -34 -64q-60 -85 -132 -85h-131q-34 0 -66 19q-15 9 -38 32.5t-35 39.5q-17 27 -17 62v303q0 37 17 62q11 15 34.5 39t39.5 33q34 19 65 19h131
q70 0 131 -84q20 -28 34 -64zM228 796h59l145 -136h-140l-35 39l-34 -39h-140z" />
    <glyph glyph-name="ccircumflex" unicode="&#x109;" horiz-adv-x="531" 
d="M470 125l1 -1q-10 -22 -25 -45q-21 -32 -56 -58t-75 -26h-115q-45 0 -72 19q-15 9 -38 32.5t-35 39.5q-17 27 -17 62v300q0 37 17 62q7 10 33 35.5t38 34.5q34 24 75 24h114q69 0 131 -83q14 -20 24 -45l-117 -32q-16 31 -42 43h-109q-26 -18 -42 -43v-298q0 -1 5.5 -7
t15.5 -14t20 -13h111q24 9 41 45zM223 796h59l145 -136h-140l-35 39l-34 -39h-140z" />
    <glyph glyph-name="Cdotaccent" unicode="&#x10a;" horiz-adv-x="555" 
d="M490 456l-113 -32q-19 40 -53 63h-125q-24 -17 -39 -40v-298q0 -1 4.5 -7t14 -15t20.5 -15h127q28 19 51 60l114 -28q-12 -34 -34 -64q-60 -85 -132 -85h-131q-34 0 -66 19q-15 9 -38 32.5t-35 39.5q-17 27 -17 62v303q0 37 17 62q11 15 34.5 39t39.5 33q34 19 65 19h131
q70 0 131 -84q20 -28 34 -64zM324 684h-126v124h126v-124z" />
    <glyph glyph-name="cdotaccent" unicode="&#x10b;" horiz-adv-x="531" 
d="M470 125l1 -1q-10 -22 -25 -45q-21 -32 -56 -58t-75 -26h-115q-45 0 -72 19q-15 9 -38 32.5t-35 39.5q-17 27 -17 62v300q0 37 17 62q7 10 33 35.5t38 34.5q34 24 75 24h114q69 0 131 -83q14 -20 24 -45l-117 -32q-16 31 -42 43h-109q-26 -18 -42 -43v-298q0 -1 5.5 -7
t15.5 -14t20 -13h111q24 9 41 45zM325 684h-126v124h126v-124z" />
    <glyph glyph-name="Ccaron" unicode="&#x10c;" horiz-adv-x="555" 
d="M490 456l-113 -32q-19 40 -53 63h-125q-24 -17 -39 -40v-298q0 -1 4.5 -7t14 -15t20.5 -15h127q28 19 51 60l114 -28q-12 -34 -34 -64q-60 -85 -132 -85h-131q-34 0 -66 19q-15 9 -38 32.5t-35 39.5q-17 27 -17 62v303q0 37 17 62q11 15 34.5 39t39.5 33q34 19 65 19h131
q70 0 131 -84q20 -28 34 -64zM284 660h-59l-145 136h140l35 -39l34 39h140z" />
    <glyph glyph-name="ccaron" unicode="&#x10d;" horiz-adv-x="531" 
d="M470 125l1 -1q-10 -22 -25 -45q-21 -32 -56 -58t-75 -26h-115q-45 0 -72 19q-15 9 -38 32.5t-35 39.5q-17 27 -17 62v300q0 37 17 62q7 10 33 35.5t38 34.5q34 24 75 24h114q69 0 131 -83q14 -20 24 -45l-117 -32q-16 31 -42 43h-109q-26 -18 -42 -43v-298q0 -1 5.5 -7
t15.5 -14t20 -13h111q24 9 41 45zM283 660h-59l-145 136h140l35 -39l34 39h140z" />
    <glyph glyph-name="Dcaron" unicode="&#x10e;" horiz-adv-x="559" 
d="M482 151q0 -36 -16 -61q-11 -16 -34.5 -39t-39.5 -32q-36 -19 -64 -19h-291v600h291q38 0 66 -18q31 -20 71 -73q17 -24 17 -62v-296zM360 155v287q-10 25 -37 41h-164v-366h164q24 14 37 38zM281 660h-59l-145 136h140l35 -39l34 39h140z" />
    <glyph glyph-name="dcaron" unicode="&#x10f;" horiz-adv-x="559" 
d="M477 151q0 -36 -16 -61q-11 -16 -34.5 -39t-39.5 -32q-36 -19 -64 -19h-286v600h286q37 0 66 -18q31 -20 71 -73q17 -24 17 -62v-296zM355 155v287q-10 25 -37 41h-159v-366h159q24 14 37 38zM280 660h-59l-145 136h140l35 -39l34 39h140z" />
    <glyph glyph-name="Dcroat" unicode="&#x110;" horiz-adv-x="589" 
d="M507 151q0 -36 -16 -61q-11 -16 -34.5 -39t-39.5 -32q-36 -19 -64 -19h-286v245h-78v112h78v243h286q37 0 66 -18q31 -20 71 -73q17 -24 17 -62v-296zM287 245h-98v-128h159q24 14 37 38v287q-10 25 -37 41h-159v-126h98v-112z" />
    <glyph glyph-name="dcroat" unicode="&#x111;" horiz-adv-x="559" 
d="M477 151q0 -36 -16 -61q-11 -16 -34.5 -39t-39.5 -32q-36 -19 -64 -19h-286v245h-78v112h78v243h286q37 0 66 -18q31 -20 71 -73q17 -24 17 -62v-296zM257 245h-98v-128h159q24 14 37 38v287q-10 25 -37 41h-159v-126h98v-112z" />
    <glyph glyph-name="Emacron" unicode="&#x112;" 
d="M348 683h-227v107h227v-107zM431 0h-394v600h394v-117h-272v-123h263v-117h-263v-126h272v-117z" />
    <glyph glyph-name="emacron" unicode="&#x113;" 
d="M348 683h-227v107h227v-107zM421 0h-384v600h384v-117h-262v-124h253v-117h-253v-125h262v-117z" />
    <glyph glyph-name="Ebreve" unicode="&#x114;" 
d="M431 0h-394v600h394v-117h-272v-123h263v-117h-263v-126h272v-117zM283 766h67q0 -45 -31 -76t-75 -31t-76.5 31.5t-32.5 75.5v0v0h1v0h1h1h1h1h1h1h1h1h1h1h1h2h1h1h1h1h1h2h1h1h2h1h1h2h1h2h1h2h1h2h1h2h1h2h2h1h2h2h1h2h2h1h10q0 -17 12.5 -29.5t29.5 -12.5
q16 0 27.5 12.5t11.5 29.5z" />
    <glyph glyph-name="ebreve" unicode="&#x115;" 
d="M431 0h-394v600h394v-117h-272v-123h263v-117h-263v-126h272v-117zM283 766h67q0 -45 -31 -76t-75 -31t-76.5 31.5t-32.5 75.5v0v0h1v0h1h1h1h1h1h1h1h1h1h1h1h2h1h1h1h1h1h2h1h1h2h1h1h2h1h2h1h2h1h2h1h2h1h2h2h1h2h2h1h2h2h1h10q0 -17 12.5 -29.5t29.5 -12.5
q16 0 27.5 12.5t11.5 29.5z" />
    <glyph glyph-name="Edotaccent" unicode="&#x116;" 
d="M431 0h-394v600h394v-117h-272v-123h263v-117h-263v-126h272v-117zM299 684h-126v124h126v-124z" />
    <glyph glyph-name="edotaccent" unicode="&#x117;" 
d="M431 0h-394v600h394v-117h-272v-123h263v-117h-263v-126h272v-117zM299 684h-126v124h126v-124z" />
    <glyph glyph-name="Eogonek" unicode="&#x118;" 
d="M431 0h-394v600h394v-117h-272v-123h263v-117h-263v-126h272v-117zM236 -199l-71 130l104 30l91 -160h-124z" />
    <glyph glyph-name="eogonek" unicode="&#x119;" 
d="M431 0h-394v600h394v-117h-272v-123h263v-117h-263v-126h272v-117zM236 -199l-71 130l104 30l91 -160h-124z" />
    <glyph glyph-name="Ecaron" unicode="&#x11a;" 
d="M431 0h-394v600h394v-117h-272v-123h263v-117h-263v-126h272v-117zM262 660h-59l-145 136h140l35 -39l34 39h140z" />
    <glyph glyph-name="ecaron" unicode="&#x11b;" 
d="M431 0h-394v600h394v-117h-272v-123h263v-117h-263v-126h272v-117zM262 660h-59l-145 136h140l35 -39l34 39h140z" />
    <glyph glyph-name="Gcircumflex" unicode="&#x11c;" horiz-adv-x="593" 
d="M127 586q31 18 66 18h152q70 0 131 -84q20 -28 34 -64l-113 -32q-19 40 -53 63h-146q-24 -16 -39 -39v-303q0 -4 12.5 -15.5t24.5 -17.5h146q11 5 24.5 18t13.5 18v90h-137v114h259v-225q0 -15 7 -57l12 -71h-121l-4 18q-2 -1 -13 -8q-24 -14 -39 -14h-151q-34 0 -66 19
q-15 9 -38.5 32t-34.5 39q-17 27 -17 62v304q0 38 17 63q11 15 34.5 39t38.5 33zM241 796h59l145 -136h-140l-35 39l-34 -39h-140z" />
    <glyph glyph-name="gcircumflex" unicode="&#x11d;" horiz-adv-x="575" 
d="M503 0h-120l-5 26q-33 -31 -51 -31h-133q-34 0 -66 19q-15 9 -38.5 32t-34.5 39q-17 27 -17 62v305q0 38 17 63q37 50 65 66q37 24 74 24h140q69 0 131 -83q13 -17 25 -45l-118 -32q-16 31 -42 43h-132q-26 -19 -38 -37v-306q0 -1 5 -7t14 -13.5t18 -12.5h124
q39 24 39 36v90h-91v114h213v-224q0 -18 5 -44zM235 796h59l145 -136h-140l-35 39l-34 -39h-140z" />
    <glyph glyph-name="Gbreve" unicode="&#x11e;" horiz-adv-x="593" 
d="M127 586q31 18 66 18h152q70 0 131 -84q20 -28 34 -64l-113 -32q-19 40 -53 63h-146q-24 -16 -39 -39v-303q0 -4 12.5 -15.5t24.5 -17.5h146q11 5 24.5 18t13.5 18v90h-137v114h259v-225q0 -15 7 -57l12 -71h-121l-4 18q-2 -1 -13 -8q-24 -14 -39 -14h-151q-34 0 -66 19
q-15 9 -38.5 32t-34.5 39q-17 27 -17 62v304q0 38 17 63q11 15 34.5 39t38.5 33zM320 766h67q0 -45 -31 -76t-75 -31t-76.5 31.5t-32.5 75.5v0v0h1v0h1h1h1h1h1h1h1h1h1h1h1h2h1h1h1h1h1h2h1h1h2h1h1h2h1h2h1h2h1h2h1h2h1h2h2h1h2h2h1h2h2h1h10q0 -17 12.5 -29.5t29.5 -12.5
q16 0 27.5 12.5t11.5 29.5z" />
    <glyph glyph-name="gbreve" unicode="&#x11f;" horiz-adv-x="575" 
d="M503 0h-120l-5 26q-33 -31 -51 -31h-133q-34 0 -66 19q-15 9 -38.5 32t-34.5 39q-17 27 -17 62v305q0 38 17 63q37 50 65 66q37 24 74 24h140q69 0 131 -83q13 -17 25 -45l-118 -32q-16 31 -42 43h-132q-26 -19 -38 -37v-306q0 -1 5 -7t14 -13.5t18 -12.5h124
q39 24 39 36v90h-91v114h213v-224q0 -18 5 -44zM309 766h67q0 -45 -31 -76t-75 -31t-76.5 31.5t-32.5 75.5v0v0h1v0h1h1h1h1h1h1h1h1h1h1h1h2h1h1h1h1h1h2h1h1h2h1h1h2h1h2h1h2h1h2h1h2h1h2h2h1h2h2h1h2h2h1h10q0 -17 12.5 -29.5t29.5 -12.5q16 0 27.5 12.5t11.5 29.5z" />
    <glyph glyph-name="Gdotaccent" unicode="&#x120;" horiz-adv-x="593" 
d="M127 586q31 18 66 18h152q70 0 131 -84q20 -28 34 -64l-113 -32q-19 40 -53 63h-146q-24 -16 -39 -39v-303q0 -4 12.5 -15.5t24.5 -17.5h146q11 5 24.5 18t13.5 18v90h-137v114h259v-225q0 -15 7 -57l12 -71h-121l-4 18q-2 -1 -13 -8q-24 -14 -39 -14h-151q-34 0 -66 19
q-15 9 -38.5 32t-34.5 39q-17 27 -17 62v304q0 38 17 63q11 15 34.5 39t38.5 33zM347 684h-126v124h126v-124z" />
    <glyph glyph-name="gdotaccent" unicode="&#x121;" horiz-adv-x="575" 
d="M503 0h-120l-5 26q-33 -31 -51 -31h-133q-34 0 -66 19q-15 9 -38.5 32t-34.5 39q-17 27 -17 62v305q0 38 17 63q37 50 65 66q37 24 74 24h140q69 0 131 -83q13 -17 25 -45l-118 -32q-16 31 -42 43h-132q-26 -19 -38 -37v-306q0 -1 5 -7t14 -13.5t18 -12.5h124
q39 24 39 36v90h-91v114h213v-224q0 -18 5 -44zM338 684h-126v124h126v-124z" />
    <glyph glyph-name="Gcommaaccent" unicode="&#x122;" horiz-adv-x="593" 
d="M127 586q31 18 66 18h152q70 0 131 -84q20 -28 34 -64l-113 -32q-19 40 -53 63h-146q-24 -16 -39 -39v-303q0 -4 12.5 -15.5t24.5 -17.5h146q11 5 24.5 18t13.5 18v90h-137v114h259v-225q0 -15 7 -57l12 -71h-121l-4 18q-2 -1 -13 -8q-24 -14 -39 -14h-151q-34 0 -66 19
q-15 9 -38.5 32t-34.5 39q-17 27 -17 62v304q0 38 17 63q11 15 34.5 39t38.5 33zM320 -69l-71 -130h-124l91 160z" />
    <glyph glyph-name="gcommaaccent" unicode="&#x123;" horiz-adv-x="575" 
d="M503 0h-120l-5 26q-33 -31 -51 -31h-133q-34 0 -66 19q-15 9 -38.5 32t-34.5 39q-17 27 -17 62v305q0 38 17 63q37 50 65 66q37 24 74 24h140q69 0 131 -83q13 -17 25 -45l-118 -32q-16 31 -42 43h-132q-26 -19 -38 -37v-306q0 -1 5 -7t14 -13.5t18 -12.5h124
q39 24 39 36v90h-91v114h213v-224q0 -18 5 -44zM320 -69l-71 -130h-124l91 160z" />
    <glyph glyph-name="Hcircumflex" unicode="&#x124;" horiz-adv-x="567" 
d="M481 0h-122v242h-200v-242h-122v600h122v-241h200v241h122v-600zM226 796h59l145 -136h-140l-35 39l-34 -39h-140z" />
    <glyph glyph-name="hcircumflex" unicode="&#x125;" horiz-adv-x="567" 
d="M481 0h-122v242h-200v-242h-122v600h122v-241h200v241h122v-600zM226 796h59l145 -136h-140l-35 39l-34 -39h-140z" />
    <glyph glyph-name="Hbar" unicode="&#x126;" horiz-adv-x="567" 
d="M481 0h-122v242h-200v-242h-122v456h-37v111h37v33h122v-33h200v33h122v-33h40v-111h-40v-456zM159 359h200v97h-200v-97z" />
    <glyph glyph-name="hbar" unicode="&#x127;" horiz-adv-x="567" 
d="M481 0h-122v242h-200v-242h-122v456h-37v111h37v33h122v-33h200v33h122v-33h40v-111h-40v-456zM159 359h200v97h-200v-97z" />
    <glyph glyph-name="Itilde" unicode="&#x128;" horiz-adv-x="245" 
d="M159 0h-123v600h123v-600zM271 703l-102 -20q-5 12 -14 18t-15 4q-10 -2 -35 -10t-35 -10q-103 -18 -149 99l104 21q11 -25 26 -23q11 2 36 10.5t36 10.5q46 8 85 -16t63 -84z" />
    <glyph glyph-name="itilde" unicode="&#x129;" horiz-adv-x="245" 
d="M159 0h-123v600h123v-600zM271 703l-102 -20q-5 12 -14 18t-15 4q-10 -2 -35 -10t-35 -10q-103 -18 -149 99l104 21q11 -25 26 -23q11 2 36 10.5t36 10.5q46 8 85 -16t63 -84z" />
    <glyph glyph-name="Imacron" unicode="&#x12a;" horiz-adv-x="249" 
d="M215 683h-227v107h227v-107zM164 0h-123v600h123v-600z" />
    <glyph glyph-name="imacron" unicode="&#x12b;" horiz-adv-x="250" 
d="M212 683h-227v107h227v-107zM164 0h-123v600h123v-600z" />
    <glyph glyph-name="Ibreve" unicode="&#x12c;" horiz-adv-x="245" 
d="M159 0h-123v600h123v-600zM139 766h67q0 -45 -31 -76t-75 -31t-76.5 31.5t-32.5 75.5v0v0h1v0h1h1h1h1h1h1h1h1h1h1h1h2h1h1h1h1h1h2h1h1h2h1h1h2h1h2h1h2h1h2h1h2h1h2h2h1h2h2h1h2h2h1h10q0 -17 12.5 -29.5t29.5 -12.5q16 0 27.5 12.5t11.5 29.5z" />
    <glyph glyph-name="ibreve" unicode="&#x12d;" horiz-adv-x="245" 
d="M159 0h-123v600h123v-600zM139 766h67q0 -45 -31 -76t-75 -31t-76.5 31.5t-32.5 75.5v0v0h1v0h1h1h1h1h1h1h1h1h1h1h1h2h1h1h1h1h1h2h1h1h2h1h1h2h1h2h1h2h1h2h1h2h1h2h2h1h2h2h1h2h2h1h10q0 -17 12.5 -29.5t29.5 -12.5q16 0 27.5 12.5t11.5 29.5z" />
    <glyph glyph-name="Iogonek" unicode="&#x12e;" horiz-adv-x="245" 
d="M159 0h-123v600h123v-600zM104 -199l-71 130l104 30l91 -160h-124z" />
    <glyph glyph-name="iogonek" unicode="&#x12f;" horiz-adv-x="245" 
d="M159 0h-123v600h123v-600zM104 -199l-71 130l104 30l91 -160h-124z" />
    <glyph glyph-name="Idotaccent" unicode="&#x130;" horiz-adv-x="245" 
d="M159 0h-123v600h123v-600zM160 684h-126v124h126v-124z" />
    <glyph glyph-name="dotlessi" unicode="&#x131;" horiz-adv-x="245" 
d="M159 0h-123v600h123v-600z" />
    <glyph glyph-name="IJ" unicode="&#x132;" horiz-adv-x="716" 
d="M159 0h-123v600h123v-600zM438 -6v1h-36q-72 0 -132 85q-22 30 -34 64l114 28q23 -41 51 -60h72q6 0 21.5 15t15.5 19v454h122v-453q0 -34 -19 -62q-9 -14 -32.5 -38.5t-38.5 -33.5q-34 -19 -66 -19h-38z" />
    <glyph glyph-name="ij" unicode="&#x133;" horiz-adv-x="697" 
d="M159 0h-123v600h123v-600zM616 148q0 -35 -17 -62q-11 -15 -34.5 -38.5t-39.5 -33.5h1q-32 -19 -65 -19h-72q-71 0 -134 85q-8 11 -20 45l117 32q14 -32 36 -45h70q1 0 7 4t15 12.5t14 17.5v454h122v-452z" />
    <glyph glyph-name="Jcircumflex" unicode="&#x134;" horiz-adv-x="465" 
d="M187 -6v1h-36q-72 0 -132 85q-22 30 -34 64l114 28q23 -41 51 -60h72q6 0 21.5 15t15.5 19v454h122v-453q0 -34 -19 -62q-9 -14 -32.5 -38.5t-38.5 -33.5q-34 -19 -66 -19h-38zM287 796h59l145 -136h-140l-35 39l-34 -39h-140z" />
    <glyph glyph-name="jcircumflex" unicode="&#x135;" horiz-adv-x="452" 
d="M371 148q0 -35 -17 -62q-11 -15 -34.5 -38.5t-39.5 -33.5h1q-32 -19 -65 -19h-72q-71 0 -134 85q-8 11 -20 45l117 32q14 -32 36 -45h70q1 0 7 4t15 12.5t14 17.5v454h122v-452zM278 796h59l145 -136h-140l-35 39l-34 -39h-140z" />
    <glyph glyph-name="Kcommaaccent" unicode="&#x136;" horiz-adv-x="531" 
d="M320 -69l-71 -130h-124l91 160zM496 0h-148l-179 248h-10v-248h-122v600h122v-244h10q2 0 47 61t89 122l44 61h144l-221 -296z" />
    <glyph glyph-name="kcommaaccent" unicode="&#x137;" horiz-adv-x="531" 
d="M320 -69l-71 -130h-124l91 160zM496 0h-148l-179 248h-10v-248h-122v600h122v-244h10q2 0 47 61t89 122l44 61h144l-221 -296z" />
    <glyph glyph-name="kgreenlandic" unicode="&#x138;" horiz-adv-x="531" 
d="M496 0h-148l-179 248h-10v-248h-122v600h122v-244h10q6 0 179 242l-1 2h151v-116h-92l-134 -180z" />
    <glyph glyph-name="Lacute" unicode="&#x139;" horiz-adv-x="469" 
d="M425 0h-388v600h122v-482h266v-118zM162 660h-118l93 136h130z" />
    <glyph glyph-name="lacute" unicode="&#x13a;" horiz-adv-x="469" 
d="M425 0h-388v600h122v-482h266v-118zM154 660h-118l93 136h130z" />
    <glyph glyph-name="Lcommaaccent" unicode="&#x13b;" horiz-adv-x="469" 
d="M320 -69l-71 -130h-124l91 160zM425 0h-388v600h122v-482h266v-118z" />
    <glyph glyph-name="lcommaaccent" unicode="&#x13c;" horiz-adv-x="469" 
d="M320 -69l-71 -130h-124l91 160zM425 0h-388v600h122v-482h266v-118z" />
    <glyph glyph-name="Lcaron" unicode="&#x13d;" horiz-adv-x="469" 
d="M371 499l-10 -77h-118l10 91v133h118v-147zM425 0h-388v600h122v-482h266v-118z" />
    <glyph glyph-name="lcaron" unicode="&#x13e;" horiz-adv-x="469" 
d="M371 499l-10 -77h-118l10 91v133h118v-147zM425 0h-388v600h122v-482h266v-118z" />
    <glyph glyph-name="Ldot" unicode="&#x13f;" horiz-adv-x="469" 
d="M425 0h-388v600h122v-482h266v-118zM372 237h-126v124h126v-124z" />
    <glyph glyph-name="ldot" unicode="&#x140;" horiz-adv-x="469" 
d="M425 0h-388v600h122v-482h266v-118zM372 237h-126v124h126v-124z" />
    <glyph glyph-name="Lslash" unicode="&#x141;" horiz-adv-x="469" 
d="M268 318l-109 -58v-143h266v-118h-388v196l-32 -17l-53 99l85 45v277h122v-212l56 30z" />
    <glyph glyph-name="lslash" unicode="&#x142;" horiz-adv-x="469" 
d="M268 318l-109 -58v-143h266v-118h-388v196l-32 -17l-53 99l85 45v277h122v-212l56 30z" />
    <glyph glyph-name="Nacute" unicode="&#x143;" horiz-adv-x="563" 
d="M476 0h-123l-194 353v-353h-122v600h125l192 -358v358h122v-600zM293 660h-118l93 136h130z" />
    <glyph glyph-name="nacute" unicode="&#x144;" horiz-adv-x="563" 
d="M476 0h-123l-194 353v-353h-122v600h125l192 -358v358h122v-600zM293 660h-118l93 136h130z" />
    <glyph glyph-name="Ncommaaccent" unicode="&#x145;" horiz-adv-x="563" 
d="M320 -69l-71 -130h-124l91 160zM476 0h-123l-194 353v-353h-122v600h125l192 -358v358h122v-600z" />
    <glyph glyph-name="ncommaaccent" unicode="&#x146;" horiz-adv-x="563" 
d="M320 -69l-71 -130h-124l91 160zM476 0h-123l-194 353v-353h-122v600h125l192 -358v358h122v-600z" />
    <glyph glyph-name="Ncaron" unicode="&#x147;" horiz-adv-x="563" 
d="M476 0h-123l-194 353v-353h-122v600h125l192 -358v358h122v-600zM281 660h-59l-145 136h140l35 -39l34 39h140z" />
    <glyph glyph-name="ncaron" unicode="&#x148;" horiz-adv-x="563" 
d="M476 0h-123l-194 353v-353h-122v600h125l192 -358v358h122v-600zM281 660h-59l-145 136h140l35 -39l34 39h140z" />
    <glyph glyph-name="napostrophe" unicode="&#x149;" horiz-adv-x="670" 
d="M100 499l-10 -77h-118l10 91v133h118v-147zM583 0h-123l-194 353v-353h-122v600h125l192 -358v358h122v-600z" />
    <glyph glyph-name="Eng" unicode="&#x14a;" horiz-adv-x="563" 
d="M475 -52q0 -35 -17 -62q-11 -15 -34.5 -38.5t-39.5 -33.5h1q-32 -19 -65 -19h-70l-1 117h68q1 0 7 4t15 12.5t14 17.5v54l-194 353v-353h-122v600h125l191 -356l1 356h122v-600h-1v-52z" />
    <glyph glyph-name="eng" unicode="&#x14b;" horiz-adv-x="563" 
d="M475 -52q0 -35 -17 -62q-11 -15 -34.5 -38.5t-39.5 -33.5h1q-32 -19 -65 -19h-70l-1 117h68q1 0 7 4t15 12.5t14 17.5v54l-194 353v-353h-122v600h125l191 -356l1 356h122v-600h-1v-52z" />
    <glyph glyph-name="Omacron" unicode="&#x14c;" horiz-adv-x="581" 
d="M499 149q0 -37 -17 -62q-42 -54 -73 -73q-32 -19 -66 -19h-152q-34 0 -66 19q-15 9 -38.5 33.5t-34.5 39.5q-17 25 -17 62v301q0 38 17 63q11 15 34.5 39t38.5 33q32 19 66 19h152q34 0 66 -19q28 -16 73 -72q17 -25 17 -63v-301zM377 149v301q-14 24 -36 37h-147
q-22 -16 -37 -38v-300q20 -27 36 -37h147q19 14 37 37zM386 683h-227v107h227v-107z" />
    <glyph glyph-name="omacron" unicode="&#x14d;" horiz-adv-x="567" 
d="M376 683h-227v107h227v-107zM484 149q0 -36 -18 -62q-11 -16 -34.5 -40t-37.5 -33q-32 -19 -66 -19h-136q-34 0 -66 19q-15 9 -38.5 33.5t-34.5 39.5q-17 25 -17 62v301q0 38 17 63q11 15 34.5 39t38.5 33q32 19 66 19h136q34 0 66 -19q26 -16 72 -72q18 -26 18 -63v-301
zM361 150v300q-13 24 -35 37h-131q-22 -16 -37 -38v-299q20 -27 36 -37h131q19 12 36 37z" />
    <glyph glyph-name="Obreve" unicode="&#x14e;" horiz-adv-x="581" 
d="M312 766h67q0 -45 -31 -76t-75 -31t-76.5 31.5t-32.5 75.5v0v0h1v0h1h1h1h1h1h1h1h1h1h1h1h2h1h1h1h1h1h2h1h1h2h1h1h2h1h2h1h2h1h2h1h2h1h2h2h1h2h2h1h2h2h1h10q0 -17 12.5 -29.5t29.5 -12.5q16 0 27.5 12.5t11.5 29.5zM499 149q0 -37 -17 -62q-42 -54 -73 -73
q-32 -19 -66 -19h-152q-34 0 -66 19q-15 9 -38.5 33.5t-34.5 39.5q-17 25 -17 62v301q0 38 17 63q11 15 34.5 39t38.5 33q32 19 66 19h152q34 0 66 -19q28 -16 73 -72q17 -25 17 -63v-301zM377 149v301q-14 24 -36 37h-147q-22 -16 -37 -38v-300q20 -27 36 -37h147
q19 14 37 37z" />
    <glyph glyph-name="obreve" unicode="&#x14f;" horiz-adv-x="567" 
d="M484 149q0 -36 -18 -62q-11 -16 -34.5 -40t-37.5 -33q-32 -19 -66 -19h-136q-34 0 -66 19q-15 9 -38.5 33.5t-34.5 39.5q-17 25 -17 62v301q0 38 17 63q11 15 34.5 39t38.5 33q32 19 66 19h136q34 0 66 -19q26 -16 72 -72q18 -26 18 -63v-301zM361 150v300q-13 24 -35 37
h-131q-22 -16 -37 -38v-299q20 -27 36 -37h131q19 12 36 37zM306 766h67q0 -45 -31 -76t-75 -31t-76.5 31.5t-32.5 75.5v0v0h1v0h1h1h1h1h1h1h1h1h1h1h1h2h1h1h1h1h1h2h1h1h2h1h1h2h1h2h1h2h1h2h1h2h1h2h2h1h2h2h1h2h2h1h10q0 -17 12.5 -29.5t29.5 -12.5q16 0 27.5 12.5
t11.5 29.5z" />
    <glyph glyph-name="Ohungarumlaut" unicode="&#x150;" horiz-adv-x="581" 
d="M499 149q0 -37 -17 -62q-42 -54 -73 -73q-32 -19 -66 -19h-152q-34 0 -66 19q-15 9 -38.5 33.5t-34.5 39.5q-17 25 -17 62v301q0 38 17 63q11 15 34.5 39t38.5 33q32 19 66 19h152q34 0 66 -19q28 -16 73 -72q17 -25 17 -63v-301zM377 149v301q-14 24 -36 37h-147
q-22 -16 -37 -38v-300q20 -27 36 -37h147q19 14 37 37zM388 660h-102l73 136h104zM235 660h-102l73 136h104z" />
    <glyph glyph-name="ohungarumlaut" unicode="&#x151;" horiz-adv-x="567" 
d="M388 660h-102l73 136h104zM235 660h-102l73 136h104zM484 149q0 -36 -18 -62q-11 -16 -34.5 -40t-37.5 -33q-32 -19 -66 -19h-136q-34 0 -66 19q-15 9 -38.5 33.5t-34.5 39.5q-17 25 -17 62v301q0 38 17 63q11 15 34.5 39t38.5 33q32 19 66 19h136q34 0 66 -19
q26 -16 72 -72q18 -26 18 -63v-301zM361 150v300q-13 24 -35 37h-131q-22 -16 -37 -38v-299q20 -27 36 -37h131q19 12 36 37z" />
    <glyph glyph-name="OE" unicode="&#x152;" horiz-adv-x="813" 
d="M728 0h-360v5q-25 -10 -48 -10h-126q-34 0 -66 19q-15 9 -38.5 33.5t-34.5 39.5q-17 25 -17 62v301q0 38 17 63q11 15 34.5 39t38.5 33q32 19 66 19h126q23 0 48 -10v6h360v-117h-252v-124h243v-117h-243v-125h252v-117zM353 150v300q-13 24 -35 37h-121q-22 -16 -37 -38
v-299q20 -27 36 -37h121q19 12 36 37z" />
    <glyph glyph-name="oe" unicode="&#x153;" horiz-adv-x="813" 
d="M728 0h-360v5q-25 -10 -48 -10h-126q-34 0 -66 19q-15 9 -38.5 33.5t-34.5 39.5q-17 25 -17 62v301q0 38 17 63q11 15 34.5 39t38.5 33q32 19 66 19h126q23 0 48 -10v6h360v-117h-252v-124h243v-117h-243v-125h252v-117zM353 150v300q-13 24 -35 37h-121q-22 -16 -37 -38
v-299q20 -27 36 -37h121q19 12 36 37z" />
    <glyph glyph-name="Racute" unicode="&#x154;" horiz-adv-x="565" 
d="M477 371q0 -37 -19 -65q-6 -10 -24.5 -28t-29.5 -26q-8 -6 -24 -14l130 -238h-136l-119 229h-96v-229h-122v600h292q44 0 75 -23q30 -23 54 -55q19 -26 19 -66v-85zM355 370v89q-10 16 -26 24h-170v-137h170q3 0 12.5 8.5t13.5 15.5zM278 660h-118l93 136h130z" />
    <glyph glyph-name="racute" unicode="&#x155;" horiz-adv-x="548" 
d="M294 660h-118l93 136h130zM467 371q0 -37 -19 -65q-6 -10 -24.5 -28t-29.5 -26q-13 -9 -23 -13l126 -239h-136l-114 229h-88v-229h-122v600h282q44 0 75 -23q30 -23 54 -55q19 -26 19 -66v-85zM345 370v89q-10 16 -26 24h-160v-137h160q3 0 12.5 8.5t13.5 15.5z" />
    <glyph glyph-name="Rcommaaccent" unicode="&#x156;" horiz-adv-x="565" 
d="M477 371q0 -37 -19 -65q-6 -10 -24.5 -28t-29.5 -26q-8 -6 -24 -14l130 -238h-136l-119 229h-96v-229h-122v600h292q44 0 75 -23q30 -23 54 -55q19 -26 19 -66v-85zM355 370v89q-10 16 -26 24h-170v-137h170q3 0 12.5 8.5t13.5 15.5zM320 -69l-71 -130h-124l91 160z" />
    <glyph glyph-name="rcommaaccent" unicode="&#x157;" horiz-adv-x="565" 
d="M477 371q0 -37 -19 -65q-6 -10 -24.5 -28t-29.5 -26q-8 -6 -24 -14l130 -238h-136l-119 229h-96v-229h-122v600h292q44 0 75 -23q30 -23 54 -55q19 -26 19 -66v-85zM355 370v89q-10 16 -26 24h-170v-137h170q3 0 12.5 8.5t13.5 15.5zM320 -69l-71 -130h-124l91 160z" />
    <glyph glyph-name="Rcaron" unicode="&#x158;" horiz-adv-x="565" 
d="M477 371q0 -37 -19 -65q-6 -10 -24.5 -28t-29.5 -26q-8 -6 -24 -14l130 -238h-136l-119 229h-96v-229h-122v600h292q44 0 75 -23q30 -23 54 -55q19 -26 19 -66v-85zM355 370v89q-10 16 -26 24h-170v-137h170q3 0 12.5 8.5t13.5 15.5zM283 660h-59l-145 136h140l35 -39
l34 39h140z" />
    <glyph glyph-name="rcaron" unicode="&#x159;" horiz-adv-x="565" 
d="M477 371q0 -37 -19 -65q-6 -10 -24.5 -28t-29.5 -26q-8 -6 -24 -14l130 -238h-136l-119 229h-96v-229h-122v600h292q44 0 75 -23q30 -23 54 -55q19 -26 19 -66v-85zM355 370v89q-10 16 -26 24h-170v-137h170q3 0 12.5 8.5t13.5 15.5zM283 660h-59l-145 136h140l35 -39
l34 39h140z" />
    <glyph glyph-name="Sacute" unicode="&#x15a;" horiz-adv-x="565" 
d="M193 487q-7 -4 -16.5 -12.5t-15 -15t-5.5 -7.5v-53l3 -6l254 -69q39 -11 61 -44t22 -72v-59q0 -34 -18 -62q-10 -15 -34 -39.5t-39 -33.5q-34 -19 -66 -19h-153q-72 0 -132 85q-22 30 -34 64l113 35q29 -52 52 -67h152q7 4 16 12t14.5 14.5t5.5 7.5v59l-3 6
q-36 10 -121.5 33t-131.5 35q-40 11 -61.5 44t-21.5 72v55q0 38 16 63q10 14 34.5 38t40.5 34q34 19 65 19h142q70 0 131 -84q20 -28 34 -64l-113 -32q-19 40 -53 63h-138zM301 660h-118l93 136h130z" />
    <glyph glyph-name="sacute" unicode="&#x15b;" horiz-adv-x="539" 
d="M473 148q0 -38 -16 -63q-7 -10 -31.5 -35.5t-35.5 -33.5q-31 -22 -75 -22h-144q-69 0 -131 84q-5 5 -25 46l119 32q13 -30 37 -45h148q6 4 14 12t13 14.5t5 7.5v60l-3 6q-35 10 -116 33t-124 35q-39 11 -61 44t-22 72v55q0 38 16 63q8 10 31.5 35t34.5 33q34 24 75 24
h128q40 0 75.5 -26t55.5 -57q15 -25 24 -45l-117 -32q-13 26 -42 43h-118q-9 -4 -19 -13t-16 -15.5t-6 -7.5v-53l3 -6q45 -13 129.5 -37t111.5 -32q39 -11 60.5 -44.5t21.5 -71.5v-60zM293 660h-118l93 136h130z" />
    <glyph glyph-name="Scircumflex" unicode="&#x15c;" horiz-adv-x="565" 
d="M193 487q-7 -4 -16.5 -12.5t-15 -15t-5.5 -7.5v-53l3 -6l254 -69q39 -11 61 -44t22 -72v-59q0 -34 -18 -62q-10 -15 -34 -39.5t-39 -33.5q-34 -19 -66 -19h-153q-72 0 -132 85q-22 30 -34 64l113 35q29 -52 52 -67h152q7 4 16 12t14.5 14.5t5.5 7.5v59l-3 6
q-36 10 -121.5 33t-131.5 35q-40 11 -61.5 44t-21.5 72v55q0 38 16 63q10 14 34.5 38t40.5 34q34 19 65 19h142q70 0 131 -84q20 -28 34 -64l-113 -32q-19 40 -53 63h-138zM236 796h59l145 -136h-140l-35 39l-34 -39h-140z" />
    <glyph glyph-name="scircumflex" unicode="&#x15d;" horiz-adv-x="539" 
d="M473 148q0 -38 -16 -63q-7 -10 -31.5 -35.5t-35.5 -33.5q-31 -22 -75 -22h-144q-69 0 -131 84q-5 5 -25 46l119 32q13 -30 37 -45h148q6 4 14 12t13 14.5t5 7.5v60l-3 6q-35 10 -116 33t-124 35q-39 11 -61 44t-22 72v55q0 38 16 63q8 10 31.5 35t34.5 33q34 24 75 24
h128q40 0 75.5 -26t55.5 -57q15 -25 24 -45l-117 -32q-13 26 -42 43h-118q-9 -4 -19 -13t-16 -15.5t-6 -7.5v-53l3 -6q45 -13 129.5 -37t111.5 -32q39 -11 60.5 -44.5t21.5 -71.5v-60zM213 796h59l145 -136h-140l-35 39l-34 -39h-140z" />
    <glyph glyph-name="Scedilla" unicode="&#x15e;" horiz-adv-x="565" 
d="M193 487q-7 -4 -16.5 -12.5t-15 -15t-5.5 -7.5v-53l3 -6l254 -69q39 -11 61 -44t22 -72v-59q0 -34 -18 -62q-10 -15 -34 -39.5t-39 -33.5q-34 -19 -66 -19h-153q-72 0 -132 85q-22 30 -34 64l113 35q29 -52 52 -67h152q7 4 16 12t14.5 14.5t5.5 7.5v59l-3 6
q-36 10 -121.5 33t-131.5 35q-40 11 -61.5 44t-21.5 72v55q0 38 16 63q10 14 34.5 38t40.5 34q34 19 65 19h142q70 0 131 -84q20 -28 34 -64l-113 -32q-19 40 -53 63h-138zM320 -69l-71 -130h-124l91 160z" />
    <glyph glyph-name="scedilla" unicode="&#x15f;" horiz-adv-x="539" 
d="M473 148q0 -38 -16 -63q-7 -10 -31.5 -35.5t-35.5 -33.5q-31 -22 -75 -22h-144q-69 0 -131 84q-5 5 -25 46l119 32q13 -30 37 -45h148q6 4 14 12t13 14.5t5 7.5v60l-3 6q-35 10 -116 33t-124 35q-39 11 -61 44t-22 72v55q0 38 16 63q8 10 31.5 35t34.5 33q34 24 75 24
h128q40 0 75.5 -26t55.5 -57q15 -25 24 -45l-117 -32q-13 26 -42 43h-118q-9 -4 -19 -13t-16 -15.5t-6 -7.5v-53l3 -6q45 -13 129.5 -37t111.5 -32q39 -11 60.5 -44.5t21.5 -71.5v-60zM320 -69l-71 -130h-124l91 160z" />
    <glyph glyph-name="Scaron" unicode="&#x160;" horiz-adv-x="565" 
d="M193 487q-7 -4 -16.5 -12.5t-15 -15t-5.5 -7.5v-53l3 -6l254 -69q39 -11 61 -44t22 -72v-59q0 -34 -18 -62q-10 -15 -34 -39.5t-39 -33.5q-34 -19 -66 -19h-153q-72 0 -132 85q-22 30 -34 64l113 35q29 -52 52 -67h152q7 4 16 12t14.5 14.5t5.5 7.5v59l-3 6
q-36 10 -121.5 33t-131.5 35q-40 11 -61.5 44t-21.5 72v55q0 38 16 63q10 14 34.5 38t40.5 34q34 19 65 19h142q70 0 131 -84q20 -28 34 -64l-113 -32q-19 40 -53 63h-138zM284 660h-59l-145 136h140l35 -39l34 39h140z" />
    <glyph glyph-name="scaron" unicode="&#x161;" horiz-adv-x="539" 
d="M473 148q0 -38 -16 -63q-7 -10 -31.5 -35.5t-35.5 -33.5q-31 -22 -75 -22h-144q-69 0 -131 84q-5 5 -25 46l119 32q13 -30 37 -45h148q6 4 14 12t13 14.5t5 7.5v60l-3 6q-35 10 -116 33t-124 35q-39 11 -61 44t-22 72v55q0 38 16 63q8 10 31.5 35t34.5 33q34 24 75 24
h128q40 0 75.5 -26t55.5 -57q15 -25 24 -45l-117 -32q-13 26 -42 43h-118q-9 -4 -19 -13t-16 -15.5t-6 -7.5v-53l3 -6q45 -13 129.5 -37t111.5 -32q39 -11 60.5 -44.5t21.5 -71.5v-60zM275 660h-59l-145 136h140l35 -39l34 39h140z" />
    <glyph glyph-name="Tcommaaccent" unicode="&#x162;" horiz-adv-x="515" 
d="M461 483h-161v-483h-123v483h-162v117h446v-117zM313 -69l-76 -139h-130l96 174z" />
    <glyph glyph-name="tcommaaccent" unicode="&#x163;" horiz-adv-x="515" 
d="M461 483h-161v-483h-123v483h-162v117h446v-117zM310 -69l-71 -130h-120l91 160z" />
    <glyph glyph-name="Tcaron" unicode="&#x164;" horiz-adv-x="515" 
d="M461 483h-161v-483h-123v483h-162v117h446v-117zM265 660h-59l-145 136h140l35 -39l34 39h140z" />
    <glyph glyph-name="tcaron" unicode="&#x165;" horiz-adv-x="515" 
d="M461 483h-161v-483h-123v483h-162v117h446v-117zM265 660h-59l-145 136h140l35 -39l34 39h140z" />
    <glyph glyph-name="Tbar" unicode="&#x166;" horiz-adv-x="515" 
d="M406 250h-113v-250h-123v250h-120v114h120v119h-162v117h446v-117h-161v-119h113v-114z" />
    <glyph glyph-name="tbar" unicode="&#x167;" horiz-adv-x="515" 
d="M406 250h-113v-250h-123v250h-120v114h120v119h-162v117h446v-117h-161v-119h113v-114z" />
    <glyph glyph-name="Utilde" unicode="&#x168;" horiz-adv-x="573" 
d="M437 703l-102 -20q-5 12 -14 18t-15 4q-10 -2 -35 -10t-35 -10q-103 -18 -149 99l104 21q11 -25 26 -23q11 2 36 10.5t36 10.5q46 8 85 -16t63 -84zM491 149q0 -37 -17 -62q-11 -16 -34 -40t-38 -33q-34 -19 -66 -19h-143q-34 0 -66 19q-15 9 -38.5 33.5t-34.5 39.5
q-17 25 -17 62v451h122v-450q24 -30 37 -38h137q19 12 36 37v451h122v-451z" />
    <glyph glyph-name="utilde" unicode="&#x169;" horiz-adv-x="556" 
d="M481 149q0 -37 -17 -62q-11 -16 -34 -40t-38 -33q-34 -19 -66 -19h-133q-34 0 -66 19q-15 9 -38.5 33.5t-34.5 39.5q-17 25 -17 62v451h122v-450q24 -30 37 -38h127q19 12 36 37v451h122v-451zM437 703l-102 -20q-5 12 -14 18t-15 4q-10 -2 -35 -10t-35 -10
q-103 -18 -149 99l104 21q11 -25 26 -23q11 2 36 10.5t36 10.5q46 8 85 -16t63 -84z" />
    <glyph glyph-name="Umacron" unicode="&#x16a;" horiz-adv-x="573" 
d="M491 149q0 -37 -17 -62q-11 -16 -34 -40t-38 -33q-34 -19 -66 -19h-143q-34 0 -66 19q-15 9 -38.5 33.5t-34.5 39.5q-17 25 -17 62v451h122v-450q24 -30 37 -38h137q19 12 36 37v451h122v-451zM378 683h-227v107h227v-107z" />
    <glyph glyph-name="umacron" unicode="&#x16b;" horiz-adv-x="556" 
d="M481 149q0 -37 -17 -62q-11 -16 -34 -40t-38 -33q-34 -19 -66 -19h-133q-34 0 -66 19q-15 9 -38.5 33.5t-34.5 39.5q-17 25 -17 62v451h122v-450q24 -30 37 -38h127q19 12 36 37v451h122v-451zM373 683h-227v107h227v-107z" />
    <glyph glyph-name="Ubreve" unicode="&#x16c;" horiz-adv-x="573" 
d="M491 149q0 -37 -17 -62q-11 -16 -34 -40t-38 -33q-34 -19 -66 -19h-143q-34 0 -66 19q-15 9 -38.5 33.5t-34.5 39.5q-17 25 -17 62v451h122v-450q24 -30 37 -38h137q19 12 36 37v451h122v-451zM305 766h67q0 -45 -31 -76t-75 -31t-76.5 31.5t-32.5 75.5v0v0h1v0h1h1h1h1
h1h1h1h1h1h1h1h2h1h1h1h1h1h2h1h1h2h1h1h2h1h2h1h2h1h2h1h2h1h2h2h1h2h2h1h2h2h1h10q0 -17 12.5 -29.5t29.5 -12.5q16 0 27.5 12.5t11.5 29.5z" />
    <glyph glyph-name="ubreve" unicode="&#x16d;" horiz-adv-x="556" 
d="M481 149q0 -37 -17 -62q-11 -16 -34 -40t-38 -33q-34 -19 -66 -19h-133q-34 0 -66 19q-15 9 -38.5 33.5t-34.5 39.5q-17 25 -17 62v451h122v-450q24 -30 37 -38h127q19 12 36 37v451h122v-451zM301 766h67q0 -45 -31 -76t-75 -31t-76.5 31.5t-32.5 75.5v0v0h1v0h1h1h1h1
h1h1h1h1h1h1h1h2h1h1h1h1h1h2h1h1h2h1h1h2h1h2h1h2h1h2h1h2h1h2h2h1h2h2h1h2h2h1h10q0 -17 12.5 -29.5t29.5 -12.5q16 0 27.5 12.5t11.5 29.5z" />
    <glyph glyph-name="Uring" unicode="&#x16e;" horiz-adv-x="563" 
d="M491 149q0 -37 -17 -62q-11 -16 -34 -40t-38 -33q-34 -19 -66 -19h-143q-34 0 -66 19q-15 9 -38.5 33.5t-34.5 39.5q-17 25 -17 62v451h122v-450q24 -30 37 -38h137q19 12 36 37v451h122v-451zM372 729q0 -45 -31 -76t-75 -31t-76.5 31.5t-32.5 75.5q0 43 32.5 74.5
t76.5 31.5q43 0 74.5 -31.5t31.5 -74.5zM305 729q0 16 -11.5 28t-27.5 12q-17 0 -29.5 -12t-12.5 -28q0 -17 12.5 -29.5t29.5 -12.5q16 0 27.5 12.5t11.5 29.5z" />
    <glyph glyph-name="uring" unicode="&#x16f;" horiz-adv-x="556" 
d="M481 149q0 -37 -17 -62q-11 -16 -34 -40t-38 -33q-34 -19 -66 -19h-133q-34 0 -66 19q-15 9 -38.5 33.5t-34.5 39.5q-17 25 -17 62v451h122v-450q24 -30 37 -38h127q19 12 36 37v451h122v-451zM367 729q0 -45 -31 -76t-75 -31t-76.5 31.5t-32.5 75.5q0 43 32.5 74.5
t76.5 31.5q43 0 74.5 -31.5t31.5 -74.5zM300 729q0 16 -11.5 28t-27.5 12q-17 0 -29.5 -12t-12.5 -28q0 -17 12.5 -29.5t29.5 -12.5q16 0 27.5 12.5t11.5 29.5z" />
    <glyph glyph-name="Uhungarumlaut" unicode="&#x170;" horiz-adv-x="573" 
d="M491 149q0 -37 -17 -62q-11 -16 -34 -40t-38 -33q-34 -19 -66 -19h-143q-34 0 -66 19q-15 9 -38.5 33.5t-34.5 39.5q-17 25 -17 62v451h122v-450q24 -30 37 -38h137q19 12 36 37v451h122v-451zM378 660h-102l73 136h104zM225 660h-102l73 136h104z" />
    <glyph glyph-name="uhungarumlaut" unicode="&#x171;" horiz-adv-x="556" 
d="M481 149q0 -37 -17 -62q-11 -16 -34 -40t-38 -33q-34 -19 -66 -19h-133q-34 0 -66 19q-15 9 -38.5 33.5t-34.5 39.5q-17 25 -17 62v451h122v-450q24 -30 37 -38h127q19 12 36 37v451h122v-451zM378 660h-102l73 136h104zM225 660h-102l73 136h104z" />
    <glyph glyph-name="Uogonek" unicode="&#x172;" horiz-adv-x="573" 
d="M241 -199l-71 130l104 30l91 -160h-124zM491 149q0 -37 -17 -62q-11 -16 -34 -40t-38 -33q-34 -19 -66 -19h-143q-34 0 -66 19q-15 9 -38.5 33.5t-34.5 39.5q-17 25 -17 62v451h122v-450q24 -30 37 -38h137q19 12 36 37v451h122v-451z" />
    <glyph glyph-name="uogonek" unicode="&#x173;" horiz-adv-x="556" 
d="M239 -199l-71 130l104 30l91 -160h-124zM481 149q0 -37 -17 -62q-11 -16 -34 -40t-38 -33q-34 -19 -66 -19h-133q-34 0 -66 19q-15 9 -38.5 33.5t-34.5 39.5q-17 25 -17 62v451h122v-450q24 -30 37 -38h127q19 12 36 37v451h122v-451z" />
    <glyph glyph-name="Wcircumflex" unicode="&#x174;" horiz-adv-x="742" 
d="M707 600l-139 -600h-131l-87 351q-14 -58 -43 -175.5t-43 -175.5h-131l-137 600h126l79 -370q15 65 44.5 189.5t42.5 180.5h124l87 -370q12 54 38 179.5t40 190.5h130zM318 796h59l145 -136h-140l-35 39l-34 -39h-140z" />
    <glyph glyph-name="wcircumflex" unicode="&#x175;" horiz-adv-x="742" 
d="M707 600l-139 -600h-131l-87 351q-14 -58 -43 -175.5t-43 -175.5h-131l-137 600h126l79 -370q15 65 44.5 189.5t42.5 180.5h124l87 -370q12 54 38 179.5t40 190.5h130zM318 796h59l145 -136h-140l-35 39l-34 -39h-140z" />
    <glyph glyph-name="Ycircumflex" unicode="&#x176;" horiz-adv-x="511" 
d="M500 600l-204 -340v-260h-123v260l-201 340h138l125 -211l127 211h138zM202 796h59l145 -136h-140l-35 39l-34 -39h-140z" />
    <glyph glyph-name="ycircumflex" unicode="&#x177;" horiz-adv-x="511" 
d="M500 600l-204 -340v-260h-123v260l-201 340h138l125 -211l127 211h138zM202 796h59l145 -136h-140l-35 39l-34 -39h-140z" />
    <glyph glyph-name="Ydieresis" unicode="&#x178;" horiz-adv-x="511" 
d="M500 600l-204 -340v-260h-123v260l-201 340h138l125 -211l127 211h138zM391 666h-117v122h117v-122zM197 666h-115v122h115v-122z" />
    <glyph glyph-name="Zacute" unicode="&#x179;" horiz-adv-x="504" 
d="M449 0h-416v89l257 394h-253v117h412v-90l-254 -393h254v-117zM282 660h-118l93 136h130z" />
    <glyph glyph-name="zacute" unicode="&#x17a;" horiz-adv-x="504" 
d="M449 0h-416v89l257 394h-253v117h412v-90l-254 -393h254v-117zM282 660h-118l93 136h130z" />
    <glyph glyph-name="Zdotaccent" unicode="&#x17b;" horiz-adv-x="504" 
d="M449 0h-416v89l257 394h-253v117h412v-90l-254 -393h254v-117zM309 684h-126v124h126v-124z" />
    <glyph glyph-name="zdotaccent" unicode="&#x17c;" horiz-adv-x="504" 
d="M449 0h-416v89l257 394h-253v117h412v-90l-254 -393h254v-117zM309 684h-126v124h126v-124z" />
    <glyph glyph-name="Zcaron" unicode="&#x17d;" horiz-adv-x="504" 
d="M449 0h-416v89l257 394h-253v117h412v-90l-254 -393h254v-117zM271 660h-59l-145 136h140l35 -39l34 39h140z" />
    <glyph glyph-name="zcaron" unicode="&#x17e;" horiz-adv-x="504" 
d="M449 0h-416v89l257 394h-253v117h412v-90l-254 -393h254v-117zM271 660h-59l-145 136h140l35 -39l34 39h140z" />
    <glyph glyph-name="longs" unicode="&#x17f;" horiz-adv-x="539" 
d="M473 148q0 -38 -16 -63q-7 -10 -31.5 -35.5t-35.5 -33.5q-31 -22 -75 -22h-144q-69 0 -131 84q-5 5 -25 46l119 32q13 -30 37 -45h148q6 4 14 12t13 14.5t5 7.5v60l-3 6q-35 10 -116 33t-124 35q-39 11 -61 44t-22 72v55q0 38 16 63q8 10 31.5 35t34.5 33q34 24 75 24
h128q40 0 75.5 -26t55.5 -57q15 -25 24 -45l-117 -32q-13 26 -42 43h-118q-9 -4 -19 -13t-16 -15.5t-6 -7.5v-53l3 -6q45 -13 129.5 -37t111.5 -32q39 -11 60.5 -44.5t21.5 -71.5v-60z" />
    <glyph glyph-name="florin" unicode="&#x192;" horiz-adv-x="512" 
 />
    <glyph glyph-name="Scommaaccent" unicode="&#x218;" horiz-adv-x="565" 
d="M193 487q-7 -4 -16.5 -12.5t-15 -15t-5.5 -7.5v-53l3 -6l254 -69q39 -11 61 -44t22 -72v-59q0 -34 -18 -62q-10 -15 -34 -39.5t-39 -33.5q-34 -19 -66 -19h-153q-72 0 -132 85q-22 30 -34 64l113 35q29 -52 52 -67h152q7 4 16 12t14.5 14.5t5.5 7.5v59l-3 6
q-36 10 -121.5 33t-131.5 35q-40 11 -61.5 44t-21.5 72v55q0 38 16 63q10 14 34.5 38t40.5 34q34 19 65 19h142q70 0 131 -84q20 -28 34 -64l-113 -32q-19 40 -53 63h-138zM350 -69l-71 -130h-124l91 160z" />
    <glyph glyph-name="scommaaccent" unicode="&#x219;" horiz-adv-x="539" 
d="M473 148q0 -38 -16 -63q-7 -10 -31.5 -35.5t-35.5 -33.5q-31 -22 -75 -22h-144q-69 0 -131 84q-5 5 -25 46l119 32q13 -30 37 -45h148q6 4 14 12t13 14.5t5 7.5v60l-3 6q-35 10 -116 33t-124 35q-39 11 -61 44t-22 72v55q0 38 16 63q8 10 31.5 35t34.5 33q34 24 75 24
h128q40 0 75.5 -26t55.5 -57q15 -25 24 -45l-117 -32q-13 26 -42 43h-118q-9 -4 -19 -13t-16 -15.5t-6 -7.5v-53l3 -6q45 -13 129.5 -37t111.5 -32q39 -11 60.5 -44.5t21.5 -71.5v-60zM350 -69l-71 -130h-124l91 160z" />
    <glyph glyph-name="circumflex" unicode="&#x2c6;" horiz-adv-x="391" 
d="M162 796h59l145 -136h-140l-35 39l-34 -39h-140z" />
    <glyph glyph-name="caron" unicode="&#x2c7;" horiz-adv-x="391" 
d="M221 660h-59l-145 136h140l35 -39l34 39h140z" />
    <glyph glyph-name="breve" unicode="&#x2d8;" horiz-adv-x="444" 
d="M283 766h67q0 -45 -31 -76t-75 -31t-76.5 31.5t-32.5 75.5v0v0h1v0h1h1h1h1h1h1h1h1h1h1h1h2h1h1h1h1h1h2h1h1h2h1h1h2h1h2h1h2h1h2h1h2h1h2h2h1h2h2h1h2h2h1h10q0 -17 12.5 -29.5t29.5 -12.5q16 0 27.5 12.5t11.5 29.5z" />
    <glyph glyph-name="dotaccent" unicode="&#x2d9;" horiz-adv-x="287" 
d="M193 684h-126v124h126v-124z" />
    <glyph glyph-name="ring" unicode="&#x2da;" horiz-adv-x="570" 
d="M350 729q0 -45 -31 -76t-75 -31t-76.5 31.5t-32.5 75.5q0 43 32.5 74.5t76.5 31.5q43 0 74.5 -31.5t31.5 -74.5zM283 729q0 16 -11.5 28t-27.5 12q-17 0 -29.5 -12t-12.5 -28q0 -17 12.5 -29.5t29.5 -12.5q16 0 27.5 12.5t11.5 29.5z" />
    <glyph glyph-name="ogonek" unicode="&#x2db;" horiz-adv-x="375" 
d="M186 -199l-71 130l104 30l91 -160h-124z" />
    <glyph glyph-name="tilde" unicode="&#x2dc;" horiz-adv-x="471" 
d="M377 703l-102 -20q-5 12 -14 18t-15 4q-10 -2 -35 -10t-35 -10q-103 -18 -149 99l104 21q11 -25 26 -23q11 2 36 10.5t36 10.5q46 8 85 -16t63 -84z" />
    <glyph glyph-name="hungarumlaut" unicode="&#x2dd;" horiz-adv-x="470" 
d="M338 660h-102l73 136h104zM185 660h-102l73 136h104z" />
    <glyph glyph-name="pi" unicode="&#x3c0;" horiz-adv-x="710" 
d="M414 483h-177v-483h-123v483h-99v117h621v-117h-99v-483h-123v483z" />
    <glyph glyph-name="afii10023" unicode="&#x401;" 
d="M431 0h-394v600h394v-117h-272v-123h263v-117h-263v-126h272v-117zM394 666h-117v122h117v-122zM200 666h-115v122h115v-122z" />
    <glyph glyph-name="afii10051" unicode="&#x402;" horiz-adv-x="675" 
d="M461 483h-161v-112h170q43 0 75 -23q11 -8 29.5 -26t24.5 -28q19 -28 19 -65v-85q0 -36 -19 -66q-24 -32 -54 -55q-35 -23 -75 -23h-58v117h58q16 8 26 24v89q-4 7 -13.5 15.5t-12.5 8.5h-170v-254h-123v483h-162v117h446v-117z" />
    <glyph glyph-name="afii10052" unicode="&#x403;" horiz-adv-x="469" 
d="M37 600h388v-118h-266v-482h-122v600zM266 660h-128l93 136h140z" />
    <glyph glyph-name="afii10053" unicode="&#x404;" horiz-adv-x="555" 
d="M185 -5q-40 0 -73 23q-11 8 -29.5 26.5t-25.5 29.5q-19 28 -19 66v320q0 41 19 65q30 39 55 55q34 24 73 24h136q71 0 131 -83q19 -27 34 -65l-113 -32q-19 40 -53 63h-134q-2 0 -11 -8.5t-15 -18.5v-100h161v-114h-161v-108q6 -10 14.5 -18t11.5 -8h134q34 23 53 63
l113 -32q-15 -38 -34 -65q-60 -83 -131 -83h-136z" />
    <glyph glyph-name="afii10054" unicode="&#x405;" horiz-adv-x="565" 
d="M193 487q-7 -4 -16.5 -12.5t-15 -15t-5.5 -7.5v-53l3 -6l254 -69q39 -11 61 -44t22 -72v-59q0 -34 -18 -62q-10 -15 -34 -39.5t-39 -33.5q-34 -19 -66 -19h-153q-72 0 -132 85q-22 30 -34 64l113 35q29 -52 52 -67h152q7 4 16 12t14.5 14.5t5.5 7.5v59l-3 6
q-36 10 -121.5 33t-131.5 35q-40 11 -61.5 44t-21.5 72v55q0 38 16 63q10 14 34.5 38t40.5 34q34 19 65 19h142q70 0 131 -84q20 -28 34 -64l-113 -32q-19 40 -53 63h-138z" />
    <glyph glyph-name="afii10055" unicode="&#x406;" horiz-adv-x="255" 
d="M164 0h-123v600h123v-600z" />
    <glyph glyph-name="afii10056" unicode="&#x407;" horiz-adv-x="245" 
d="M253 666h-117v122h117v-122zM59 666h-115v122h115v-122zM164 0h-123v600h123v-600z" />
    <glyph glyph-name="afii10057" unicode="&#x408;" horiz-adv-x="465" 
d="M384 147q0 -34 -19 -62q-9 -14 -32.5 -38.5t-38.5 -33.5q-34 -19 -66 -19h-72q-70 0 -133 85q-18 23 -38 78l117 30l14 -28q16 -28 39 -47h70q6 0 21.5 15t15.5 19v454h122v-453z" />
    <glyph glyph-name="afii10058" unicode="&#x409;" horiz-adv-x="806" 
d="M749 229v-85q0 -36 -19 -66q-24 -32 -54 -55q-34 -23 -75 -23h-272v483h-140v-336q0 -34 -19 -62q-9 -14 -32.5 -38.5t-38.5 -33.5q-34 -19 -66 -19h-68v118h65q6 0 21.5 15t15.5 19v454h384v-229h150q43 0 75 -23q11 -8 29.5 -26t24.5 -28q19 -28 19 -65zM627 141v89
q-4 7 -13.5 15.5t-12.5 8.5h-150v-137h150q16 8 26 24z" />
    <glyph glyph-name="afii10059" unicode="&#x40a;" horiz-adv-x="806" 
d="M749 229v-85q0 -36 -19 -66q-24 -32 -54 -55q-34 -23 -75 -23h-272v254h-170v-254h-122v600h122v-229h170v229h122v-229h150q43 0 75 -23q11 -8 29.5 -26t24.5 -28q19 -28 19 -65zM627 141v89q-4 7 -13.5 15.5t-12.5 8.5h-150v-137h150q16 8 26 24z" />
    <glyph glyph-name="afii10060" unicode="&#x40b;" horiz-adv-x="665" 
d="M598 -1h-122v231q-4 7 -13.5 15.5t-12.5 8.5h-150v-254h-123v483h-162v117h446v-117h-161v-112h150q43 0 75 -23q11 -8 29.5 -26t24.5 -28q19 -28 19 -65v-230z" />
    <glyph glyph-name="afii10061" unicode="&#x40c;" horiz-adv-x="531" 
d="M297 660h-128l93 136h140zM501 0h-154l-188 242v-242h-122v600h122v-238q0 -2 47 57.5t94 120.5l47 60h153l-240 -296z" />
    <glyph glyph-name="afii10062" unicode="&#x40e;" horiz-adv-x="507" 
d="M273 766h67q0 -45 -31 -76t-75 -31t-76.5 31.5t-32.5 75.5v0v0h1v0h1h1h1h1h1h1h1h1h1h1h1h2h1h1h1h1h1h2h1h1h2h1h1h2h1h2h1h2h1h2h1h2h1h2h2h1h2h2h1h2h2h1h10q0 -17 12.5 -29.5t29.5 -12.5q16 0 27.5 12.5t11.5 29.5zM495 600l-252 -600h-126l67 159h-17l-190 441h129
l131 -314l129 314h129z" />
    <glyph glyph-name="afii10145" unicode="&#x40f;" horiz-adv-x="567" 
d="M359 600h122v-600h-168v-110h-111v110h-165v600h122v-483h200v483z" />
    <glyph glyph-name="afii10017" unicode="&#x410;" horiz-adv-x="580" 
d="M539 0h-130l-40 115h-209q-6 -19 -20.5 -57.5t-20.5 -57.5h-130l208 600h135zM332 232l-68 193q-11 -32 -33.5 -96.5t-33.5 -96.5h135z" />
    <glyph glyph-name="afii10018" unicode="&#x411;" horiz-adv-x="554" 
d="M477 229v-85q0 -36 -19 -66q-24 -32 -54 -55q-34 -23 -75 -23h-292v600h388v-118h-266v-111h170q43 0 75 -23q11 -8 29.5 -26t24.5 -28q19 -28 19 -65zM355 141v89q-4 7 -13.5 15.5t-12.5 8.5h-170v-137h170q16 8 26 24z" />
    <glyph glyph-name="afii10019" unicode="&#x412;" horiz-adv-x="553" 
d="M476 143q0 -39 -18 -65q-23 -33 -53 -55q-33 -23 -76 -23h-292v600h292q42 0 76 -24q10 -8 27.5 -26t25.5 -28q18 -27 18 -67v-72q0 -47 -33 -84q33 -36 33 -84v-72zM354 143v73q-6 10 -15 19t-12 9h-168v-127h169q3 0 12 8.5t14 17.5zM354 382v73q-6 10 -15 19t-12 9
h-168v-126h169q3 0 12 8.5t14 16.5z" />
    <glyph glyph-name="afii10020" unicode="&#x413;" horiz-adv-x="469" 
d="M37 600h388v-118h-266v-482h-122v600z" />
    <glyph glyph-name="afii10021" unicode="&#x414;" horiz-adv-x="636" 
d="M598 117l-22 -220h-127l9 103h-347v-103h-123v220h57q7 1 21.5 15.5t14.5 18.5l64 449h370v-483h83zM205 152q-1 -8 -11 -35h199v366h-141z" />
    <glyph glyph-name="afii10022" unicode="&#x415;" 
d="M431 0h-394v600h394v-117h-272v-123h263v-117h-263v-126h272v-117z" />
    <glyph glyph-name="afii10024" unicode="&#x416;" horiz-adv-x="816" 
d="M786 0h-148l-179 248h-10v-248h-122v248h-10l-179 -248h-148q221 302 224 304l-221 296h144q176 -244 180 -244h10v244h122v-244h10q2 0 47 61t89 122l44 61h144l-221 -296z" />
    <glyph glyph-name="afii10025" unicode="&#x417;" horiz-adv-x="529" 
d="M310 604q39 0 73 -24q25 -16 55 -55q19 -24 19 -65v-75q0 -43 -35 -82q35 -41 35 -84v-79q0 -38 -19 -66q-7 -11 -25.5 -29.5t-29.5 -26.5q-33 -23 -73 -23h-138q-71 0 -131 83q-19 27 -34 65l113 32q19 -40 53 -63h136q3 0 11.5 8t14.5 18v82q-5 10 -13.5 18t-12.5 8
h-135v114h136q3 0 11.5 8t13.5 18v74q-6 10 -14.5 18.5t-11.5 8.5h-136q-34 -23 -53 -63l-113 32q15 38 34 65q60 83 131 83h138z" />
    <glyph glyph-name="afii10026" unicode="&#x418;" horiz-adv-x="563" 
d="M160 0h-123v600h122v-358l192 358h125v-600h-122v353z" />
    <glyph glyph-name="afii10027" unicode="&#x419;" horiz-adv-x="563" 
d="M160 0h-123v600h122v-358l192 358h125v-600h-122v353zM294 766h67q0 -45 -31 -76t-75 -31t-76.5 31.5t-32.5 75.5v0v0h1v0h1h1h1h1h1h1h1h1h1h1h1h2h1h1h1h1h1h2h1h1h2h1h1h2h1h2h1h2h1h2h1h2h1h2h2h1h2h2h1h2h2h1h10q0 -17 12.5 -29.5t29.5 -12.5q16 0 27.5 12.5
t11.5 29.5z" />
    <glyph glyph-name="afii10028" unicode="&#x41a;" horiz-adv-x="526" 
d="M496 0h-148l-179 248h-10v-248h-122v600h122v-244h10q2 0 47 61t89 122l44 61h144l-221 -296z" />
    <glyph glyph-name="afii10029" unicode="&#x41b;" horiz-adv-x="587" 
d="M-15 0v116l65 1q6 0 21.5 15t15.5 19v449h414v-600h-122v483h-170v-330q0 -34 -19 -62q-9 -14 -32.5 -38.5t-38.5 -33.5q-34 -19 -66 -19h-68z" />
    <glyph glyph-name="afii10030" unicode="&#x41c;" horiz-adv-x="657" 
d="M568 0h-122v361q-19 -40 -54.5 -114.5t-49.5 -103.5h-80l-103 217v-360h-122v600h133l134 -272q18 36 63 129.5t69 142.5h132v-600z" />
    <glyph glyph-name="afii10031" unicode="&#x41d;" horiz-adv-x="567" 
d="M481 0h-122v242h-200v-242h-122v600h122v-241h200v241h122v-600z" />
    <glyph glyph-name="afii10032" unicode="&#x41e;" horiz-adv-x="581" 
d="M499 149q0 -37 -17 -62q-42 -54 -73 -73q-32 -19 -66 -19h-152q-34 0 -66 19q-15 9 -38.5 33.5t-34.5 39.5q-17 25 -17 62v301q0 38 17 63q11 15 34.5 39t38.5 33q32 19 66 19h152q34 0 66 -19q28 -16 73 -72q17 -25 17 -63v-301zM377 149v301q-14 24 -36 37h-147
q-22 -16 -37 -38v-300q20 -27 36 -37h147q19 14 37 37z" />
    <glyph glyph-name="afii10033" unicode="&#x41f;" horiz-adv-x="567" 
d="M481 0h-122v483h-200v-483h-122v600h444v-600z" />
    <glyph glyph-name="afii10034" unicode="&#x420;" horiz-adv-x="534" 
d="M477 371q0 -37 -19 -65q-6 -10 -24.5 -28t-29.5 -26q-32 -23 -75 -23h-170v-229h-122v600h292q44 0 75 -23q30 -23 54 -55q19 -26 19 -66v-85zM355 370v89q-10 16 -26 24h-170v-137h170q3 0 12.5 8.5t13.5 15.5z" />
    <glyph glyph-name="afii10035" unicode="&#x421;" horiz-adv-x="555" 
d="M488 456l-113 -32q-19 40 -53 63h-125q-24 -17 -39 -40v-298q0 -1 4.5 -7t14 -15t20.5 -15h127q28 19 51 60l114 -28q-12 -34 -34 -64q-60 -85 -132 -85h-131q-34 0 -66 19q-15 9 -38 32.5t-35 39.5q-17 27 -17 62v303q0 37 17 62q11 15 34.5 39t39.5 33q34 19 65 19h131
q70 0 131 -84q20 -28 34 -64z" />
    <glyph glyph-name="afii10036" unicode="&#x422;" horiz-adv-x="515" 
d="M458 483h-161v-483h-123v483h-162v117h446v-117z" />
    <glyph glyph-name="afii10037" unicode="&#x423;" horiz-adv-x="526" 
d="M495 600l-252 -600h-126l67 159h-17l-190 441h129l131 -314l129 314h129z" />
    <glyph glyph-name="afii10038" unicode="&#x424;" horiz-adv-x="640" 
d="M354 -110h-111v105h-49q-34 0 -66 19q-15 9 -38.5 33.5t-34.5 39.5q-17 25 -17 62v301q0 38 17 63q11 15 34.5 39t38.5 33q32 19 66 19h49v89h111v-89h47q34 0 66 -19q28 -16 73 -72q17 -25 17 -63v-301q0 -37 -17 -62q-42 -54 -73 -73q-32 -19 -66 -19h-47v-105z
M160 149q20 -27 36 -37h47v375h-46q-22 -16 -37 -38v-300zM435 149v301q-14 24 -36 37h-45v-375h44q19 14 37 37z" />
    <glyph glyph-name="afii10039" unicode="&#x425;" horiz-adv-x="526" 
d="M484 600l-175 -295l182 -305h-136l-113 195l-113 -195h-136l181 305l-174 295h136l106 -185l107 185h135z" />
    <glyph glyph-name="afii10040" unicode="&#x426;" horiz-adv-x="572" 
d="M532 117l-20 -220h-127l4 103h-352v600h122v-483h170v483h122v-483h81z" />
    <glyph glyph-name="afii10041" unicode="&#x427;" horiz-adv-x="553" 
d="M27 600h122v-230q4 -7 13.5 -15.5t12.5 -8.5h170v254h122v-600h-122v229h-170q-43 0 -75 23q-11 8 -29.5 26t-24.5 28q-19 28 -19 65v229z" />
    <glyph glyph-name="afii10042" unicode="&#x428;" horiz-adv-x="710" 
d="M269 600h122v-483h110v483h122v-600h-586v600h122v-483h110v483z" />
    <glyph glyph-name="afii10043" unicode="&#x429;" horiz-adv-x="744" 
d="M269 600h122v-483h110v483h122v-483h81l-20 -219h-127l4 102h-524v600h122v-483h110v483z" />
    <glyph glyph-name="afii10044" unicode="&#x42a;" horiz-adv-x="584" 
d="M-22 482v118h231v-229h170q43 0 75 -23q11 -8 29.5 -26t24.5 -28q19 -28 19 -65v-85q0 -36 -19 -66q-24 -32 -54 -55q-35 -23 -75 -23h-292v482h-109zM405 141v89q-4 7 -13.5 15.5t-12.5 8.5h-170v-137h170q16 8 26 24z" />
    <glyph glyph-name="afii10045" unicode="&#x42b;" horiz-adv-x="763" 
d="M477 229v-85q0 -36 -19 -66q-24 -32 -54 -55q-34 -23 -75 -23h-292v600h122v-229h170q43 0 75 -23q11 -8 29.5 -26t24.5 -28q19 -28 19 -65zM355 141v89q-4 7 -13.5 15.5t-12.5 8.5h-170v-137h170q16 8 26 24zM676 0h-123v600h123v-600z" />
    <glyph glyph-name="afii10046" unicode="&#x42c;" horiz-adv-x="534" 
d="M477 229v-85q0 -36 -19 -66q-24 -32 -54 -55q-34 -23 -75 -23h-292v600h122v-229h170q43 0 75 -23q11 -8 29.5 -26t24.5 -28q19 -28 19 -65zM355 141v89q-4 7 -13.5 15.5t-12.5 8.5h-170v-137h170q16 8 26 24z" />
    <glyph glyph-name="afii10047" unicode="&#x42d;" horiz-adv-x="534" 
d="M172 -5q-71 0 -131 83q-19 27 -34 65l113 32q19 -40 53 -63h136q3 0 11.5 8t14.5 18v108h-161v114h161v100q-6 10 -14.5 18.5t-11.5 8.5h-136q-34 -23 -53 -63l-113 32q15 38 34 65q60 83 131 83h138q39 0 73 -24q25 -16 55 -55q19 -24 19 -65v-320q0 -38 -19 -66
q-7 -11 -25.5 -29.5t-29.5 -26.5q-33 -23 -73 -23h-138z" />
    <glyph glyph-name="afii10048" unicode="&#x42e;" horiz-adv-x="778" 
d="M159 0h-123v600h123v-239h90v89q0 38 17 63q11 15 34.5 39t38.5 33q32 19 66 19h136q34 0 66 -19q26 -16 72 -72q18 -26 18 -63v-301q0 -36 -18 -62q-11 -16 -34.5 -40t-37.5 -33q-32 -19 -66 -19h-136q-34 0 -66 19q-15 9 -38.5 33.5t-34.5 39.5q-17 25 -17 62v96h-90
v-245zM574 150v300q-13 24 -35 37h-131q-22 -16 -37 -38v-299q20 -27 36 -37h131q19 12 36 37z" />
    <glyph glyph-name="afii10049" unicode="&#x42f;" horiz-adv-x="567" 
d="M41 371v85q0 40 19 66q24 32 54 55q31 23 75 23h292v-600h-122v229h-96l-119 -229h-136q81 148 130 238q-16 8 -24 14q-11 8 -29.5 26t-24.5 28q-19 28 -19 65zM163 459v-89q4 -7 13.5 -15.5t12.5 -8.5h170v137h-170q-16 -8 -26 -24z" />
    <glyph glyph-name="afii10065" unicode="&#x430;" horiz-adv-x="580" 
d="M539 0h-130l-40 115h-209q-6 -19 -20.5 -57.5t-20.5 -57.5h-130l208 600h135zM332 232l-68 193q-11 -32 -33.5 -96.5t-33.5 -96.5h135z" />
    <glyph glyph-name="afii10066" unicode="&#x431;" horiz-adv-x="554" 
d="M477 229v-85q0 -36 -19 -66q-24 -32 -54 -55q-34 -23 -75 -23h-292v600h388v-118h-266v-111h170q43 0 75 -23q11 -8 29.5 -26t24.5 -28q19 -28 19 -65zM355 141v89q-4 7 -13.5 15.5t-12.5 8.5h-170v-137h170q16 8 26 24z" />
    <glyph glyph-name="afii10067" unicode="&#x432;" horiz-adv-x="543" 
d="M466 143q0 -39 -18 -65q-23 -33 -53 -55q-33 -23 -76 -23h-282v600h282q42 0 76 -24q10 -8 27.5 -26t25.5 -28q18 -27 18 -67v-72q0 -47 -33 -84q33 -36 33 -84v-72zM344 143v73q-6 10 -15 19t-12 9h-158v-127h159q3 0 12 8.5t14 17.5zM344 382v73q-6 10 -15 19t-12 9
h-158v-126h159q3 0 12 8.5t14 16.5z" />
    <glyph glyph-name="afii10068" unicode="&#x433;" horiz-adv-x="469" 
d="M37 600h388v-118h-266v-482h-122v600z" />
    <glyph glyph-name="afii10069" unicode="&#x434;" horiz-adv-x="616" 
d="M578 117l-22 -220h-127l9 103h-327v-103h-123v220h57q7 1 21.5 15.5t14.5 18.5l64 449h350v-483h83zM205 152q-1 -8 -11 -35h179v366h-121z" />
    <glyph glyph-name="afii10070" unicode="&#x435;" horiz-adv-x="506" 
d="M421 0h-384v600h384v-117h-262v-124h253v-117h-253v-125h262v-117z" />
    <glyph glyph-name="afii10072" unicode="&#x436;" horiz-adv-x="816" 
d="M786 0h-148l-179 248h-10v-248h-122v248h-10l-179 -248h-148q221 302 224 304l-221 296h144q176 -244 180 -244h10v244h122v-244h10q2 0 47 61t89 122l44 61h144l-221 -296z" />
    <glyph glyph-name="afii10073" unicode="&#x437;" horiz-adv-x="521" 
d="M449 140q0 -38 -19 -66q-7 -11 -25.5 -29.5t-29.5 -26.5q-33 -23 -73 -23h-135q-70 0 -132 84q-13 18 -25 46l119 32q13 -30 40 -45h132q3 0 11.5 8t14.5 18v82q-5 10 -13.5 18t-12.5 8h-145v114h146q3 0 11.5 8t13.5 18v74q-6 10 -14.5 18.5t-11.5 8.5h-132
q-30 -14 -42 -41l-29 7q-29 7 -58 15l-30 7q9 25 25 46q65 83 132 83h135q39 0 73 -24q25 -16 55 -55q19 -24 19 -65v-75q0 -43 -35 -82q35 -41 35 -84v-79z" />
    <glyph glyph-name="afii10074" unicode="&#x438;" horiz-adv-x="563" 
d="M160 0h-123v600h122v-358l192 358h125v-600h-122v353z" />
    <glyph glyph-name="afii10075" unicode="&#x439;" horiz-adv-x="563" 
d="M160 0h-123v600h122v-358l192 358h125v-600h-122v353zM303 766h67q0 -45 -31 -76t-75 -31t-76.5 31.5t-32.5 75.5v0v0h1v0h1h1h1h1h1h1h1h1h1h1h1h2h1h1h1h1h1h2h1h1h2h1h1h2h1h2h1h2h1h2h1h2h1h2h2h1h2h2h1h2h2h1h10q0 -17 12.5 -29.5t29.5 -12.5q16 0 27.5 12.5
t11.5 29.5z" />
    <glyph glyph-name="afii10076" unicode="&#x43a;" horiz-adv-x="526" 
d="M496 0h-148l-179 248h-10v-248h-122v600h122v-244h10q2 0 47 61t89 122l44 61h144l-221 -296z" />
    <glyph glyph-name="afii10077" unicode="&#x43b;" horiz-adv-x="587" 
d="M-15 0v116l65 1q6 0 21.5 15t15.5 19v449h414v-600h-122v483h-170v-330q0 -34 -19 -62q-9 -14 -32.5 -38.5t-38.5 -33.5q-34 -19 -66 -19h-68z" />
    <glyph glyph-name="afii10078" unicode="&#x43c;" horiz-adv-x="657" 
d="M568 0h-122v361q-19 -40 -54.5 -114.5t-49.5 -103.5h-80l-103 217v-360h-122v600h133l134 -272q18 36 63 129.5t69 142.5h132v-600z" />
    <glyph glyph-name="afii10079" unicode="&#x43d;" horiz-adv-x="567" 
d="M481 0h-122v242h-200v-242h-122v600h122v-241h200v241h122v-600z" />
    <glyph glyph-name="afii10080" unicode="&#x43e;" horiz-adv-x="567" 
d="M484 149q0 -36 -18 -62q-11 -16 -34.5 -40t-37.5 -33q-32 -19 -66 -19h-136q-34 0 -66 19q-15 9 -38.5 33.5t-34.5 39.5q-17 25 -17 62v301q0 38 17 63q11 15 34.5 39t38.5 33q32 19 66 19h136q34 0 66 -19q26 -16 72 -72q18 -26 18 -63v-301zM361 150v300q-13 24 -35 37
h-131q-22 -16 -37 -38v-299q20 -27 36 -37h131q19 12 36 37z" />
    <glyph glyph-name="afii10081" unicode="&#x43f;" horiz-adv-x="567" 
d="M481 0h-122v483h-200v-483h-122v600h444v-600z" />
    <glyph glyph-name="afii10082" unicode="&#x440;" horiz-adv-x="524" 
d="M467 371q0 -37 -19 -65q-6 -10 -24.5 -28t-29.5 -26q-32 -23 -75 -23h-160v-229h-122v600h282q40 0 75 -23q30 -23 54 -55q19 -30 19 -66v-85zM345 370v89q-10 16 -26 24h-160v-137h160q3 0 12.5 8.5t13.5 15.5z" />
    <glyph glyph-name="afii10083" unicode="&#x441;" horiz-adv-x="531" 
d="M469 125l1 -1q-10 -22 -25 -45q-21 -32 -56 -58t-75 -26h-115q-45 0 -72 19q-15 9 -38 32.5t-35 39.5q-17 27 -17 62v300q0 37 17 62q7 10 33 35.5t38 34.5q34 24 75 24h114q69 0 131 -83q14 -20 24 -45l-117 -32q-16 31 -42 43h-109q-26 -18 -42 -43v-298q0 -1 5.5 -7
t15.5 -14t20 -13h111q24 9 41 45z" />
    <glyph glyph-name="afii10084" unicode="&#x442;" horiz-adv-x="515" 
d="M458 483h-161v-483h-123v483h-162v117h446v-117z" />
    <glyph glyph-name="afii10085" unicode="&#x443;" horiz-adv-x="526" 
d="M495 600l-252 -600h-126l67 159h-17l-190 441h129l131 -314l129 314h129z" />
    <glyph glyph-name="afii10086" unicode="&#x444;" horiz-adv-x="638" 
d="M354 -110h-111v105h-49q-34 0 -66 19q-15 9 -38.5 33.5t-34.5 39.5q-17 25 -17 62v301q0 38 17 63q11 15 34.5 39t38.5 33q32 19 66 19h49v89h111v-89h47q34 0 66 -19q28 -16 73 -72q17 -25 17 -63v-301q0 -37 -17 -62q-42 -54 -73 -73q-32 -19 -66 -19h-47v-105z
M160 149q20 -27 36 -37h47v375h-46q-22 -16 -37 -38v-300zM435 149v301q-14 24 -36 37h-45v-375h44q19 14 37 37z" />
    <glyph glyph-name="afii10087" unicode="&#x445;" horiz-adv-x="526" 
d="M484 600l-175 -295l182 -305h-136l-113 195l-113 -195h-136l181 305l-174 295h136l106 -185l107 185h135z" />
    <glyph glyph-name="afii10088" unicode="&#x446;" horiz-adv-x="572" 
d="M532 117l-20 -220h-127l4 103h-352v600h122v-483h170v483h122v-483h81z" />
    <glyph glyph-name="afii10089" unicode="&#x447;" horiz-adv-x="553" 
d="M27 600h122v-230q4 -7 13.5 -15.5t12.5 -8.5h170v254h122v-600h-122v229h-170q-43 0 -75 23q-11 8 -29.5 26t-24.5 28q-19 28 -19 65v229z" />
    <glyph glyph-name="afii10090" unicode="&#x448;" horiz-adv-x="710" 
d="M269 600h122v-483h110v483h122v-600h-586v600h122v-483h110v483z" />
    <glyph glyph-name="afii10091" unicode="&#x449;" horiz-adv-x="744" 
d="M269 600h122v-483h110v483h122v-483h81l-20 -219h-127l4 102h-524v600h122v-483h110v483z" />
    <glyph glyph-name="afii10092" unicode="&#x44a;" horiz-adv-x="584" 
d="M-22 482v118h231v-229h170q43 0 75 -23q11 -8 29.5 -26t24.5 -28q19 -28 19 -65v-85q0 -36 -19 -66q-24 -32 -54 -55q-35 -23 -75 -23h-292v482h-109zM405 141v89q-4 7 -13.5 15.5t-12.5 8.5h-170v-137h170q16 8 26 24z" />
    <glyph glyph-name="afii10093" unicode="&#x44b;" horiz-adv-x="763" 
d="M477 229v-85q0 -36 -19 -66q-24 -32 -54 -55q-34 -23 -75 -23h-292v600h122v-229h170q43 0 75 -23q11 -8 29.5 -26t24.5 -28q19 -28 19 -65zM355 141v89q-4 7 -13.5 15.5t-12.5 8.5h-170v-137h170q16 8 26 24zM676 0h-123v600h123v-600z" />
    <glyph glyph-name="afii10094" unicode="&#x44c;" horiz-adv-x="534" 
d="M477 229v-85q0 -36 -19 -66q-24 -32 -54 -55q-34 -23 -75 -23h-292v600h122v-229h170q43 0 75 -23q11 -8 29.5 -26t24.5 -28q19 -28 19 -65zM355 141v89q-4 7 -13.5 15.5t-12.5 8.5h-170v-137h170q16 8 26 24z" />
    <glyph glyph-name="afii10095" unicode="&#x44d;" horiz-adv-x="526" 
d="M327 246h-171v114h171v100q-6 10 -14.5 18.5t-11.5 8.5h-132q-30 -14 -42 -41l-29 7q-29 7 -58 15l-30 7q9 25 25 46q65 83 132 83h135q39 0 73 -24q25 -16 55 -55q19 -24 19 -65v-320q0 -38 -19 -66q-7 -11 -25.5 -29.5t-29.5 -26.5q-33 -23 -73 -23h-135q-70 0 -132 84
q-13 18 -25 46l119 32q13 -30 40 -45h132q3 0 11.5 8t14.5 18v108z" />
    <glyph glyph-name="afii10096" unicode="&#x44e;" horiz-adv-x="778" 
d="M159 0h-123v600h123v-239h90v89q0 38 17 63q11 15 34.5 39t38.5 33q32 19 66 19h136q34 0 66 -19q26 -16 72 -72q18 -26 18 -63v-301q0 -36 -18 -62q-11 -16 -34.5 -40t-37.5 -33q-32 -19 -66 -19h-136q-34 0 -66 19q-15 9 -38.5 33.5t-34.5 39.5q-17 25 -17 62v96h-90
v-245zM574 150v300q-13 24 -35 37h-131q-22 -16 -37 -38v-299q20 -27 36 -37h131q19 12 36 37z" />
    <glyph glyph-name="afii10097" unicode="&#x44f;" horiz-adv-x="557" 
d="M42 371v85q0 40 19 66q24 32 54 55q31 23 75 23h282v-600h-122v229h-88l-114 -229h-136q78 149 126 239q-10 4 -23 13q-11 8 -29.5 26t-24.5 28q-19 28 -19 65zM164 459v-89q4 -7 13.5 -15.5t12.5 -8.5h160v137h-160q-16 -8 -26 -24z" />
    <glyph glyph-name="afii10071" unicode="&#x451;" horiz-adv-x="506" 
d="M421 0h-384v600h384v-117h-262v-124h253v-117h-253v-125h262v-117zM384 666h-117v122h117v-122zM190 666h-115v122h115v-122z" />
    <glyph glyph-name="afii10099" unicode="&#x452;" horiz-adv-x="675" 
d="M461 483h-161v-112h170q43 0 75 -23q11 -8 29.5 -26t24.5 -28q19 -28 19 -65v-85q0 -36 -19 -66q-24 -32 -54 -55q-35 -23 -75 -23h-58v117h58q16 8 26 24v89q-4 7 -13.5 15.5t-12.5 8.5h-170v-254h-123v483h-162v117h446v-117z" />
    <glyph glyph-name="afii10100" unicode="&#x453;" horiz-adv-x="469" 
d="M37 600h388v-118h-266v-482h-122v600zM266 660h-128l93 136h140z" />
    <glyph glyph-name="afii10101" unicode="&#x454;" horiz-adv-x="531" 
d="M331 246h-171v-108q6 -10 14.5 -18t11.5 -8h132q27 15 40 45l119 -32q-12 -28 -25 -46q-62 -84 -132 -84h-135q-40 0 -73 23q-11 8 -29.5 26.5t-25.5 29.5q-19 28 -19 66v320q0 41 19 65q30 39 55 55q34 24 73 24h135q67 0 132 -83q16 -21 25 -46q-7 -2 -19.5 -5
t-38 -9.5t-42.5 -10.5l-17 -4q-12 27 -42 41h-132q-2 0 -11 -8.5t-15 -18.5v-100h171v-114z" />
    <glyph glyph-name="afii10102" unicode="&#x455;" horiz-adv-x="539" 
d="M473 148q0 -38 -16 -63q-7 -10 -31.5 -35.5t-35.5 -33.5q-31 -22 -75 -22h-144q-69 0 -131 84q-5 5 -25 46l119 32q13 -30 37 -45h148q6 4 14 12t13 14.5t5 7.5v60l-3 6q-35 10 -116 33t-124 35q-39 11 -61 44t-22 72v55q0 38 16 63q8 10 31.5 35t34.5 33q34 24 75 24
h128q40 0 75.5 -26t55.5 -57q15 -25 24 -45l-117 -32q-13 26 -42 43h-118q-9 -4 -19 -13t-16 -15.5t-6 -7.5v-53l3 -6q45 -13 129.5 -37t111.5 -32q39 -11 60.5 -44.5t21.5 -71.5v-60z" />
    <glyph glyph-name="afii10103" unicode="&#x456;" horiz-adv-x="255" 
d="M164 0h-123v600h123v-600z" />
    <glyph glyph-name="afii10104" unicode="&#x457;" horiz-adv-x="245" 
d="M255 666h-117v122h117v-122zM61 666h-115v122h115v-122zM164 0h-123v600h123v-600z" />
    <glyph glyph-name="afii10105" unicode="&#x458;" horiz-adv-x="452" 
d="M371 148q0 -35 -17 -62q-11 -15 -34.5 -38.5t-39.5 -33.5h1q-32 -19 -65 -19h-72q-71 0 -134 85q-8 11 -20 45l117 32q14 -32 36 -45h70q1 0 7 4t15 12.5t14 17.5v454h122v-452z" />
    <glyph glyph-name="afii10106" unicode="&#x459;" horiz-adv-x="806" 
d="M749 229v-85q0 -36 -19 -66q-24 -32 -54 -55q-34 -23 -75 -23h-272v483h-140v-336q0 -34 -19 -62q-9 -14 -32.5 -38.5t-38.5 -33.5q-34 -19 -66 -19h-68v118h65q6 0 21.5 15t15.5 19v454h384v-229h150q43 0 75 -23q11 -8 29.5 -26t24.5 -28q19 -28 19 -65zM627 141v89
q-4 7 -13.5 15.5t-12.5 8.5h-150v-137h150q16 8 26 24z" />
    <glyph glyph-name="afii10107" unicode="&#x45a;" horiz-adv-x="806" 
d="M749 229v-85q0 -36 -19 -66q-24 -32 -54 -55q-34 -23 -75 -23h-272v254h-170v-254h-122v600h122v-229h170v229h122v-229h150q43 0 75 -23q11 -8 29.5 -26t24.5 -28q19 -28 19 -65zM627 141v89q-4 7 -13.5 15.5t-12.5 8.5h-150v-137h150q16 8 26 24z" />
    <glyph glyph-name="afii10108" unicode="&#x45b;" horiz-adv-x="665" 
d="M598 -1h-122v231q-4 7 -13.5 15.5t-12.5 8.5h-150v-254h-123v483h-162v117h446v-117h-161v-112h150q43 0 75 -23q11 -8 29.5 -26t24.5 -28q19 -28 19 -65v-230z" />
    <glyph glyph-name="afii10109" unicode="&#x45c;" horiz-adv-x="531" 
d="M297 660h-128l93 136h140zM501 0h-154l-188 242v-242h-122v600h122v-238q0 -2 47 57.5t94 120.5l47 60h153l-240 -296z" />
    <glyph glyph-name="afii10110" unicode="&#x45e;" horiz-adv-x="507" 
d="M269 766h67q0 -45 -31 -76t-75 -31t-76.5 31.5t-32.5 75.5v0v0h1v0h1h1h1h1h1h1h1h1h1h1h1h2h1h1h1h1h1h2h1h1h2h1h1h2h1h2h1h2h1h2h1h2h1h2h2h1h2h2h1h2h2h1h10q0 -17 12.5 -29.5t29.5 -12.5q16 0 27.5 12.5t11.5 29.5zM495 600l-252 -600h-126l67 159h-17l-190 441h129
l131 -314l129 314h129z" />
    <glyph glyph-name="afii10193" unicode="&#x45f;" horiz-adv-x="567" 
d="M359 600h122v-600h-168v-110h-111v110h-165v600h122v-483h200v483z" />
    <glyph glyph-name="afii10050" unicode="&#x490;" horiz-adv-x="469" 
d="M37 600h388v-118h-266v-482h-122v600zM311 597v96h114v-96h-114z" />
    <glyph glyph-name="afii10098" unicode="&#x491;" horiz-adv-x="469" 
d="M37 600h274v93h114v-211h-266v-482h-122v600z" />
    <glyph glyph-name="endash" unicode="&#x2013;" horiz-adv-x="475" 
d="M396 193h-368v114h368v-114z" />
    <glyph glyph-name="emdash" unicode="&#x2014;" horiz-adv-x="559" 
d="M480 193h-452v114h452v-114z" />
    <glyph glyph-name="quoteleft" unicode="&#x2018;" horiz-adv-x="242" 
d="M183 610l-80 -174h-133l98 209z" />
    <glyph glyph-name="quoteright" unicode="&#x2019;" horiz-adv-x="242" 
d="M-14 468l80 174h133l-98 -209z" />
    <glyph glyph-name="quotesinglbase" unicode="&#x201a;" horiz-adv-x="242" 
d="M195 91l-80 -174h-133l98 209z" />
    <glyph glyph-name="quotedblleft" unicode="&#x201c;" horiz-adv-x="443" 
d="M-14 468l80 174h133l-98 -209zM184 468l80 174h133l-98 -209z" />
    <glyph glyph-name="quotedblright" unicode="&#x201d;" horiz-adv-x="446" 
d="M397 610l-80 -174h-133l98 209zM199 610l-80 -174h-133l98 209z" />
    <glyph glyph-name="quotedblbase" unicode="&#x201e;" horiz-adv-x="448" 
d="M397 91l-80 -174h-133l98 209zM199 91l-80 -174h-133l98 209z" />
    <glyph glyph-name="dagger" unicode="&#x2020;" horiz-adv-x="341" 
d="M285 339h-66v-222h-118v222h-65v113h65v148h118v-148h66v-113z" />
    <glyph glyph-name="daggerdbl" unicode="&#x2021;" horiz-adv-x="341" 
d="M285 339h-66v-78h65v-113h-65v-147h-118v147h-66v113h66v78h-65v113h65v147h118v-147h66v-113z" />
    <glyph glyph-name="bullet" unicode="&#x2022;" horiz-adv-x="448" 
d="M350 244q0 -40 -23 -68q-31 -31 -48 -41q-25 -17 -63 -17h-24q-37 0 -63 17q-27 18 -51 42q-22 26 -22 67v16q0 59 72 108q25 17 64 17h24q38 0 63 -17q71 -49 71 -108v-16z" />
    <glyph glyph-name="ellipsis" unicode="&#x2026;" horiz-adv-x="689" 
d="M391 0h-142v142h142v-142zM213 0h-140v142h140v-142zM567 0h-140v142h140v-142z" />
    <glyph glyph-name="perthousand" unicode="&#x2030;" horiz-adv-x="1195" 
d="M1125 100q0 -32 -14 -51q-16 -21 -39 -38q-26 -18 -58 -18h-58q-32 0 -57 18q-23 16 -40 38q-14 19 -14 51v134q0 32 14 51q17 22 40 38q25 18 57 18h58q32 0 58 -18q23 -17 39 -38q14 -19 14 -51v-134zM1026 214q0 4 -1 6q-5 6 -19 18q-1 1 -5 1h-33q-4 0 -5 -1
q-10 -7 -20 -19l-1 -5v-95q0 -2 1 -4q12 -14 20 -19q1 -1 5 -1h33q4 0 5 1q16 13 19 18l1 5v95zM311 362q0 -32 -14 -51q-16 -21 -39 -38q-26 -18 -58 -18h-58q-32 0 -57 18q-23 16 -40 38q-14 19 -14 51v134q0 32 14 51q17 22 40 38q25 18 57 18h58q32 0 58 -18
q23 -17 39 -38q14 -19 14 -51v-134zM212 476q0 4 -1 6q-5 6 -19 18q-1 1 -5 1h-33q-4 0 -5 -1q-10 -7 -20 -19l-1 -5v-95q0 -2 1 -4q12 -14 20 -19q1 -1 5 -1h33q4 0 5 1q16 13 19 18l1 5v95zM786 100q0 -32 -14 -51q-16 -21 -39 -38q-26 -18 -58 -18h-58q-32 0 -57 18
q-23 16 -40 38q-14 19 -14 51v134q0 32 14 51q17 22 40 38q25 18 57 18h58q32 0 58 -18q23 -17 39 -38q14 -19 14 -51v-134zM687 214q0 4 -1 6q-5 6 -19 18q-1 1 -5 1h-33q-4 0 -5 -1q-10 -7 -20 -19l-1 -5v-95q0 -2 1 -4q12 -14 20 -19q1 -1 5 -1h33q4 0 5 1q16 13 19 18
l1 5v95zM635 600l-328 -600h-126l330 600h124z" />
    <glyph glyph-name="guilsinglleft" unicode="&#x2039;" horiz-adv-x="409" 
d="M328 123l-134 -35l-172 168l172 172l131 -38l-136 -132z" />
    <glyph glyph-name="guilsinglright" unicode="&#x203a;" horiz-adv-x="409" 
d="M156 88l-134 35l139 135l-136 132l131 38l172 -172z" />
    <glyph glyph-name="fraction" unicode="&#x2044;" horiz-adv-x="598" 
 />
    <glyph glyph-name="Euro" unicode="&#x20ac;" horiz-adv-x="568" 
d="M349 174h-152v-28q0 -1 5.5 -7t15.5 -14t20 -13h111q24 9 41 45l118 -32q-10 -22 -25 -46q-58 -84 -131 -84h-115q-45 0 -72 19q-15 9 -39 33t-34 39q-17 27 -17 62v26h-37v109h37v33h-37v109h37v23q0 37 17 62q6 9 32 34.5t39 35.5q34 24 75 24h114q66 0 131 -83
q14 -20 24 -45l-117 -32q-16 31 -42 43h-109q-26 -18 -42 -43v-19h152v-109h-152v-33h152v-109z" />
    <glyph glyph-name="afii61352" unicode="&#x2116;" horiz-adv-x="932" 
d="M476 0h-123l-194 353v-353h-122v600h125l192 -358v358h122v-600zM862 362q0 -32 -14 -51q-16 -21 -39 -38q-26 -18 -58 -18h-58q-32 0 -57 18q-23 16 -40 38q-14 19 -14 51v134q0 32 14 51q17 22 40 38q25 18 57 18h58q32 0 58 -18q23 -17 39 -38q14 -19 14 -51v-134z
M763 476q0 4 -1 6q-5 6 -19 18q-1 1 -5 1h-33q-4 0 -5 -1q-10 -7 -20 -19l-1 -5v-95q0 -2 1 -4q12 -14 20 -19q1 -1 5 -1h33q4 0 5 1q16 13 19 18l1 5v95z" />
    <glyph glyph-name="trademark" unicode="&#x2122;" horiz-adv-x="615" 
d="M545 289h-109v108q-3 -9 -7 -19h-64l-7 18v-107h-112v205h-27v-205h-110v205h-72v105h327l31 -60q5 10 17 30l18 30h115v-310z" />
    <glyph glyph-name="Omega" unicode="&#x2126;" horiz-adv-x="641" 
d="M265 112v-112h-240v117h70q-28 17 -34 31q-18 33 -18 61v241q0 38 17 63q11 15 34.5 39t38.5 33q32 19 66 19h197q34 0 66 -19q28 -16 73 -72q17 -25 17 -63v-241q0 -28 -18 -61q-8 -14 -35 -31h71v-117h-240v112q100 92 100 99v239q-14 24 -36 37h-192q-22 -16 -37 -38
v-238q0 -7 100 -99z" />
    <glyph glyph-name="partialdiff" unicode="&#x2202;" 
d="M160 487l-30 117h161q40 0 74 -24q40 -32 55 -55q19 -29 19 -65v-321q0 -35 -19 -65q-19 -28 -55 -56q-31 -23 -74 -23h-116q-40 0 -73 23q-11 8 -29.5 26.5t-25.5 29.5q-19 28 -19 66v143q0 36 19 66q9 12 27 30.5t28 24.5q31 22 73 22h96q20 0 46 -22v58q-6 9 -14.5 17
t-11.5 8h-131zM150 281v-143q6 -9 14.5 -17t10.5 -8h116q3 0 12 8.5t14 17.5v131q-6 9 -38 37q-6 3 -11 3h-92q-3 0 -12 -9.5t-14 -19.5z" />
    <glyph glyph-name="Delta" unicode="&#x2206;" horiz-adv-x="570" 
d="M529 0h-550l208 600h135zM362 117l-108 308q-11 -32 -53.5 -154t-53.5 -154h215z" />
    <glyph glyph-name="product" unicode="&#x220f;" horiz-adv-x="567" 
d="M481 0h-122v483h-200v-483h-122v600h444v-600z" />
    <glyph glyph-name="summation" unicode="&#x2211;" horiz-adv-x="504" 
d="M355 306l-151 -189h245v-117h-412v89l179 216l-176 205v90h410v-117h-246z" />
    <glyph glyph-name="minus" unicode="&#x2212;" horiz-adv-x="479" 
d="M396 193h-368v112h368v-112z" />
    <glyph glyph-name="radical" unicode="&#x221a;" horiz-adv-x="598" 
 />
    <glyph glyph-name="infinity" unicode="&#x221e;" horiz-adv-x="769" 
d="M677 256q0 -39 -23 -73q-9 -11 -28.5 -27t-29.5 -22q-28 -18 -67 -18h-79q-40 0 -68 18q-11 6 -23 16q-16 -12 -22 -16q-28 -18 -67 -18h-79q-40 0 -68 18q-10 6 -29.5 22t-28.5 27q-23 34 -23 73v21q0 39 23 73q20 25 58 50q31 20 68 20h79q36 0 67 -20q3 -2 10.5 -8
t11.5 -9q5 4 13 9.5t10 7.5q31 20 68 20h79q36 0 67 -20q38 -25 58 -50q23 -34 23 -73v-21zM418 256v-2q0 -5 12 -13.5t20 -11.5h79q32 19 32 25v24q0 6 -33 27h-77q-4 -2 -18.5 -12.5t-14.5 -14.5v-22zM301 256v21v3q-5 7 -32 25h-77q-4 -2 -18.5 -12.5t-14.5 -14.5v-24
q0 -5 12 -13.5t20 -11.5h79q24 13 31 22v5z" />
    <glyph glyph-name="integral" unicode="&#x222b;" horiz-adv-x="462" 
 />
    <glyph glyph-name="approxequal" unicode="&#x2248;" horiz-adv-x="499" 
d="M417 141l-115 -21q-9 23 -16 23q-10 -2 -52.5 -6t-52.5 -6q-47 -8 -88.5 15t-65.5 84l114 21q7 -16 9.5 -20t6.5 -3q11 2 53.5 6.5t53.5 6.5q46 8 87.5 -16t65.5 -84zM417 295l-115 -21q-9 23 -16 23q-10 -2 -52.5 -6t-52.5 -6q-47 -8 -88.5 15t-65.5 84l114 21
q7 -16 9.5 -20t6.5 -3q11 2 53.5 6.5t53.5 6.5q46 8 87.5 -16t65.5 -84z" />
    <glyph glyph-name="notequal" unicode="&#x2260;" horiz-adv-x="499" 
d="M416 464l-40 -73h47v-109h-106l-22 -41h128v-109h-188l-44 -82h-136l45 82h-62v109h121l23 41h-144v109h203l40 73h135z" />
    <glyph glyph-name="lessequal" unicode="&#x2264;" horiz-adv-x="466" 
d="M397 391l-214 -115q29 -15 101.5 -55t111.5 -60v-134l-384 209v78l385 209v-132z" />
    <glyph glyph-name="greaterequal" unicode="&#x2265;" horiz-adv-x="466" 
d="M408 236l-384 -209v134l213 115q-41 22 -116.5 62.5t-97.5 52.5v132l385 -209v-78z" />
    <glyph glyph-name="lozenge" unicode="&#x25ca;" horiz-adv-x="954" 
d="M205 -60l-111 103q-24 23 -39 43q-17 27 -17 62v301q0 35 17 62q15 20 39 43l111 103l82 -83l-111 -105q-18 -16 -18 -21v-299q0 -5 18 -21l111 -105zM816 43l-111 -103l-82 83l111 105q18 16 18 21v299q0 5 -18 21l-111 105l82 83l111 -103q24 -23 39 -43q17 -27 17 -62
v-301q0 -35 -17 -62q-15 -20 -39 -43zM551 239q-44 -31 -85 -31h-43v-92h-101v354h145q41 0 69 -22q36 -28 50 -48q13 -20 13 -55v-13q0 -41 -13 -60q-13 -17 -35 -33zM499 323v23q-8 11 -27 24h-49v-68h49q3 0 12.5 7t14.5 14z" />
    <glyph glyph-name="fi" unicode="&#xfb01;" horiz-adv-x="749" 
d="M421 483h-262v-124h248v-117h-248v-242h-122v600h384v-117zM663 0h-123v600h123v-600z" />
    <glyph glyph-name="fl" unicode="&#xfb02;" horiz-adv-x="960" 
d="M421 483h-262v-124h248v-117h-248v-242h-122v600h384v-117zM906 0h-378v600h122v-483h256v-117z" />
    <glyph glyph-name="NUL" horiz-adv-x="461" 
 />
    <glyph glyph-name="HT" horiz-adv-x="461" 
 />
    <glyph glyph-name="LF" horiz-adv-x="461" 
 />
    <glyph glyph-name="DLE" 
 />
    <glyph glyph-name="DC1" 
 />
    <glyph glyph-name="DC2" 
 />
    <glyph glyph-name="DC3" 
 />
    <glyph glyph-name="DC4" horiz-adv-x="306" 
 />
    <glyph glyph-name="RS" horiz-adv-x="461" 
 />
    <glyph glyph-name="US" horiz-adv-x="461" 
 />
    <glyph glyph-name="DEL" horiz-adv-x="461" 
 />
    </font>
</defs>
</svg>
