<?xml version="1.0" standalone="no"?>
<!DOCTYPE svg PUBLIC "-//W3C//DTD SVG 1.1//EN" "http://www.w3.org/Graphics/SVG/1.1/DTD/svg11.dtd" >
<svg xmlns="http://www.w3.org/2000/svg" xmlns:xlink="http://www.w3.org/1999/xlink" version="1.1">
<metadata>
Created by FontForge 20170731 at Wed Oct 15 04:44:15 2014
 By Aleksey,,,
Copyright (c) 2013 by Marti'n Sommaruga. All rights reserved.
</metadata>
<defs>
<font id="Amelia-Basic" horiz-adv-x="0" >
  <font-face 
    font-family="Amelia-Basic"
    font-weight="400"
    font-stretch="normal"
    units-per-em="1000"
    panose-1="2 0 5 3 4 0 0 2 0 4"
    ascent="760"
    descent="-240"
    x-height="502"
    cap-height="668"
    bbox="-73 -255 1087 912"
    underline-thickness="50"
    underline-position="-150"
    unicode-range="U+0020-FB02"
  />
<missing-glyph horiz-adv-x="500" 
 />
    <glyph glyph-name="fi" unicode="fi" horiz-adv-x="575" 
d="M508 502v-502h-84v435h-221v-435h-84v435h-98v67h99v35q1 93 56.5 136t142.5 43q72 0 144 -18l-19 -67q-65 15 -121 15q-54 0 -86.5 -25.5t-32.5 -80.5v-38h304z" />
    <glyph glyph-name="fl" unicode="fl" horiz-adv-x="637" 
d="M522 682v-581q0 -46 39 -46q29 0 73 12l7 -63q-52 -17 -96 -17q-38 0 -62 12t-33 33t-11.5 35t-2.5 33v530q-54 15 -114 15q-120 0 -120 -105v-38h150v-67h-149v-435h-83v435h-99v67h98v35q0 96 55 137.5t144 41.5q98 0 204 -34z" />
    <glyph glyph-name=".notdef" horiz-adv-x="500" 
 />
    <glyph glyph-name=".null" 
 />
    <glyph glyph-name="nonmarkingreturn" horiz-adv-x="333" 
 />
    <glyph glyph-name="space" unicode=" " horiz-adv-x="210" 
 />
    <glyph glyph-name="exclam" unicode="!" horiz-adv-x="227" 
d="M164 700l-12 -516h-76l-11 516h99zM59 0v110h110v-110h-110z" />
    <glyph glyph-name="quotedbl" unicode="&#x22;" horiz-adv-x="352" 
d="M52 700h87l-14 -219h-60zM214 700h87l-14 -219h-60z" />
    <glyph glyph-name="numbersign" unicode="#" horiz-adv-x="595" 
d="M401 190l-38 -204h-78l36 204h-114l-37 -204h-79l36 204h-83v77h96l22 122h-114v77h128l36 202h80l-37 -202h115l37 202h78l-36 -202h102v-77h-115l-22 -122h133v-77h-146zM356 389h-113l-22 -122h114z" />
    <glyph glyph-name="dollar" unicode="$" horiz-adv-x="510" 
d="M220 -102l4 87q-50 1 -106 18t-87 38l28 71q110 -54 183 -54q67 0 108.5 31.5t41.5 78.5q0 27 -12 49.5t-39 41.5t-48 30t-59 28q-43 19 -66.5 31t-54 34.5t-44.5 51.5t-14 66q0 66 46.5 111t124.5 55l-6 103h79l-5 -101q96 -3 175 -46l-32 -67q-86 42 -171 42
q-57 0 -89.5 -24.5t-33.5 -67.5q2 -40 39 -68.5t106 -59.5q37 -16 56.5 -26t49.5 -29t46 -37.5t28 -46.5t12 -61q0 -73 -49.5 -123t-136.5 -65l4 -91h-78z" />
    <glyph glyph-name="uni0025" unicode="%" horiz-adv-x="772" 
d="M175 327q-71 0 -105.5 37t-34.5 142t36 143t107 38t105.5 -38t34.5 -142q0 -105 -35.5 -142.5t-107.5 -37.5zM176 632q-36 0 -52.5 -28.5t-16.5 -96.5t16.5 -96t52.5 -28t52.5 28t16.5 96q0 67 -17 96t-52 29zM595 -7q-71 0 -105.5 37t-34.5 142t36 143t107 38t105.5 -38
t34.5 -142q0 -105 -35.5 -142.5t-107.5 -37.5zM596 298q-35 0 -51.5 -28.5t-16.5 -96.5t16 -96t52 -28t52.5 28t16.5 96t-16.5 96.5t-52.5 28.5zM259 0h-92l362 701h91z" />
    <glyph glyph-name="ampersand" unicode="&#x26;" horiz-adv-x="735" 
d="M43 180q0 77 44.5 128t126.5 90q-32 40 -46 71t-14 69q0 70 43.5 110.5t121.5 40.5q71 0 112 -34t41 -95q0 -29 -10 -54t-33.5 -49t-40.5 -38t-51 -40l173 -185q67 87 78 207h83q-10 -149 -104 -268q33 -30 80.5 -59.5t78.5 -42.5l-36 -62q-35 12 -87.5 42t-94.5 63
q-95 -88 -231 -88q-109 0 -171.5 50.5t-62.5 143.5zM459 132l-198 209q-68 -32 -98 -64t-30 -87q0 -129 150 -129q56 0 96 16.5t80 54.5zM238 543q0 -47 50 -111q45 33 69 62t24 66q0 65 -66 65q-37 0 -57 -24t-20 -58z" />
    <glyph glyph-name="quotesingle" unicode="'" horiz-adv-x="193" 
d="M53 700h87l-14 -240h-60z" />
    <glyph glyph-name="parenleft" unicode="(" horiz-adv-x="291" 
d="M43 309q0 219 156 444l66 -43q-130 -206 -130 -401t130 -401l-66 -43q-156 225 -156 444z" />
    <glyph glyph-name="parenright" unicode=")" horiz-adv-x="290" 
d="M247 309q0 -220 -155 -444l-66 43q130 209 130 401t-130 401l66 43q155 -224 155 -444z" />
    <glyph glyph-name="asterisk" unicode="*" horiz-adv-x="391" 
d="M247 539l102 -45l-41 -66l-83 66l9 -112h-77l9 114l-84 -68l-39 67l102 42l-102 42l38 69l85 -67l-9 112h77l-8 -112l83 67l40 -69z" />
    <glyph glyph-name="plus" unicode="+" horiz-adv-x="468" 
d="M273 85h-79v154h-152v79h152v152h79v-152h153v-79h-153v-154z" />
    <glyph glyph-name="comma" unicode="," horiz-adv-x="220" 
d="M163 59q0 -105 -89 -187h-83q82 95 82 172q0 33 -17 72h95q12 -26 12 -57z" />
    <glyph glyph-name="hyphen" unicode="-" horiz-adv-x="509" 
d="M446 318v-79h-383v79h383z" />
    <glyph glyph-name="period" unicode="." horiz-adv-x="216" 
d="M53 0v110h110v-110h-110z" />
    <glyph glyph-name="slash" unicode="/" horiz-adv-x="428" 
d="M410 684l-317 -748l-75 26l319 748z" />
    <glyph glyph-name="zero" unicode="0" horiz-adv-x="567" 
d="M280 -14q-59 0 -99.5 16.5t-70.5 55t-44 106t-14 167.5q0 134 26 211.5t76 108.5t134 31q123 0 175.5 -75t52.5 -272q0 -194 -57.5 -271.5t-178.5 -77.5zM286 610q-80 0 -112 -59t-32 -217q0 -161 29 -218t113 -57q82 0 111 57t29 218q0 157 -31.5 216.5t-106.5 59.5z
" />
    <glyph glyph-name="one" unicode="1" horiz-adv-x="354" 
d="M279 0h-86v582l-159 -49l-20 64l200 76h65v-673z" />
    <glyph glyph-name="two" unicode="2" horiz-adv-x="521" 
d="M156 78h329v-78h-457v71l80 67q48 38 73 59.5t66.5 62t63 71t38.5 71t17 78.5q0 65 -36 94t-94 29q-69 0 -154 -38l-30 65q87 48 195 48q94 0 150.5 -46.5t56.5 -150.5q0 -54 -26 -110.5t-73.5 -110t-93.5 -95t-105 -87.5z" />
    <glyph glyph-name="three" unicode="3" horiz-adv-x="488" 
d="M181 326h-60v66q110 1 156 31.5t46 91.5q0 96 -116 96q-68 0 -142 -31l-23 67q83 34 171 34q86 0 142 -38t56 -123q0 -110 -90 -152q121 -41 121 -167q0 -110 -67.5 -162t-171.5 -52q-87 0 -175 34l23 75q78 -35 146 -35q67 0 110.5 33.5t43.5 104.5q0 59 -44.5 93
t-125.5 34z" />
    <glyph glyph-name="four" unicode="4" horiz-adv-x="566" 
d="M539 183h-117v-183h-87v183h-310v54l313 431h84v-415h117v-70zM335 253v277l-202 -277h202z" />
    <glyph glyph-name="five" unicode="5" horiz-adv-x="499" 
d="M457 225q-1 -127 -66 -182.5t-167 -55.5q-103 0 -187 36l24 76q82 -37 151 -37q153 0 153 158q0 65 -35.5 96.5t-90.5 31.5q-54 0 -120 -33l-52 26v327h350v-72h-264v-189q51 15 106 15q88 0 143 -47t55 -150z" />
    <glyph glyph-name="six" unicode="6" horiz-adv-x="528" 
d="M267 -14q-111 0 -164.5 68t-53.5 234q0 185 80 289.5t209 104.5q53 0 108 -20l-21 -68q-40 14 -78 14q-82 0 -131.5 -55.5t-67.5 -153.5q69 33 146 33q85 0 139.5 -49t54.5 -151q0 -52 -11 -94t-35.5 -77.5t-69 -55t-105.5 -19.5zM400 232q0 65 -32 94t-84 29
q-71 0 -145 -37q0 -106 14 -162.5t41 -77t77 -20.5q70 0 99.5 45.5t29.5 128.5z" />
    <glyph glyph-name="seven" unicode="7" horiz-adv-x="468" 
d="M451 668v-60q-100 -180 -163.5 -322t-89.5 -286h-92q8 83 80.5 263.5t161.5 327.5h-324v77h427z" />
    <glyph glyph-name="eight" unicode="8" horiz-adv-x="542" 
d="M275 -14q-117 0 -173.5 50.5t-56.5 140.5q0 58 35 107t90 76q-94 60 -94 155q0 81 52.5 124t146.5 43q95 0 145 -40.5t50 -114.5q0 -53 -29.5 -96t-83.5 -70q67 -28 103 -70.5t36 -110.5q0 -82 -54 -138t-167 -56zM409 182q0 52 -42.5 83t-128.5 62q-104 -54 -104 -150
q0 -119 137 -119q138 0 138 124zM276 612q-53 0 -85.5 -22t-32.5 -67q0 -89 124 -133q52 23 79 59t27 71q0 92 -112 92z" />
    <glyph glyph-name="nine" unicode="9" horiz-adv-x="530" 
d="M262 682q112 0 165.5 -67.5t53.5 -234.5q0 -185 -80 -289.5t-209 -104.5q-55 0 -109 21l21 68q36 -15 78 -15q82 0 131.5 55.5t67.5 152.5q-57 -32 -145 -32q-85 0 -140 49t-55 152q0 52 11 94t35.5 77t69 54.5t105.5 19.5zM130 437q0 -66 33 -96t87 -30q86 0 140 38
q0 109 -15 166.5t-41.5 76t-75.5 18.5q-72 0 -100 -43.5t-28 -129.5z" />
    <glyph glyph-name="colon" unicode=":" horiz-adv-x="249" 
d="M69 0v110h110v-110h-110zM69 300v110h110v-110h-110z" />
    <glyph glyph-name="semicolon" unicode=";" horiz-adv-x="252" 
d="M69 300v110h110v-110h-110zM183 60q0 -105 -89 -187h-83q82 95 82 172q0 33 -17 72h95q12 -26 12 -57z" />
    <glyph glyph-name="less" unicode="&#x3c;" horiz-adv-x="437" 
d="M37 275v70l341 171v-85l-240 -120l240 -122v-84z" />
    <glyph glyph-name="equal" unicode="=" horiz-adv-x="464" 
d="M401 432v-79h-338v79h338zM401 240v-80h-338v80h338z" />
    <glyph glyph-name="greater" unicode="&#x3e;" horiz-adv-x="437" 
d="M400 345v-70l-341 -170v84l240 122l-240 120v85z" />
    <glyph glyph-name="question" unicode="?" horiz-adv-x="339" 
d="M223 492q7 53 -41 83.5t-136 38.5l18 77q114 -5 185 -58t62 -139q-3 -36 -20 -64.5t-39.5 -48.5l-45 -40t-39.5 -49.5t-20 -66.5l-2 -59h-77q-3 56 -2 72q3 38 19.5 70.5t38 54.5t43 42t37.5 42t19 45zM56 0v110h110v-110h-110z" />
    <glyph glyph-name="at" unicode="@" horiz-adv-x="761" 
d="M555 125q-74 0 -97 60q-17 -28 -46 -44.5t-63 -16.5q-63 0 -103 41t-40 114q0 102 58.5 166t146.5 64q57 0 129 -31l-18 -203q-1 -13 -1 -33q0 -52 42 -52q79 0 79 185q0 110 -55.5 172.5t-175.5 62.5q-123 0 -201.5 -85.5t-78.5 -226.5q0 -133 70.5 -203.5t176.5 -70.5
q101 0 214 54l28 -63q-142 -65 -250 -65q-138 0 -231.5 89t-93.5 254q0 170 103.5 278.5t265.5 108.5q153 0 231.5 -82t78.5 -224q0 -249 -169 -249zM413 447q-53 0 -88 -45.5t-35 -114.5q0 -99 69 -99q33 0 54.5 27.5t25.5 70.5l13 155q-18 6 -39 6z" />
    <glyph glyph-name="A" unicode="A" horiz-adv-x="605" 
d="M162 175l-62 -175h-92l243 668h103l243 -668h-92l-62 175h-281zM302 577l-115 -329h230z" />
    <glyph glyph-name="B" unicode="B" horiz-adv-x="579" 
d="M489 504q0 -45 -21.5 -84.5t-59.5 -55.5q62 -17 94 -62.5t32 -111.5q0 -57 -23 -97.5t-63 -62.5t-86.5 -31.5t-102.5 -9.5q-85 0 -180 21v647q108 17 191 17q219 0 219 -170zM167 322v-252q55 -11 104 -11q74 0 123.5 30.5t49.5 103.5q0 129 -179 129h-98zM167 597v-201
h127q49 3 77.5 30.5t28.5 72.5q0 105 -134 105q-63 0 -99 -7z" />
    <glyph glyph-name="C" unicode="C" horiz-adv-x="556" 
d="M146 339q0 -156 52.5 -218t156.5 -62q56 0 149 16l9 -70q-79 -19 -167 -19q-154 0 -224 95.5t-70 256.5q0 79 16.5 140t43.5 99t65.5 62t79 33.5t86.5 9.5q95 0 174 -26l-15 -68q-76 22 -156 22q-94 0 -147 -61.5t-53 -209.5z" />
    <glyph glyph-name="D" unicode="D" horiz-adv-x="648" 
d="M79 6v656q109 13 185 13q81 0 139 -16t102.5 -54t67 -106t22.5 -166q0 -80 -18 -140.5t-48 -98.5t-74 -62t-91.5 -33.5t-105.5 -9.5q-62 0 -179 17zM168 599v-526q48 -9 93 -9q110 0 174.5 64.5t64.5 205.5q0 139 -57.5 205t-176.5 66q-46 0 -98 -6z" />
    <glyph glyph-name="E" unicode="E" horiz-adv-x="535" 
d="M483 74v-74h-404v668h393v-74h-305v-213h289v-74h-289v-233h316z" />
    <glyph glyph-name="F" unicode="F" horiz-adv-x="512" 
d="M472 594h-305v-213h288v-74h-288v-307h-88v668h393v-74z" />
    <glyph glyph-name="G" unicode="G" horiz-adv-x="607" 
d="M51 335q0 98 26 169t71 108t96 53.5t111 16.5q91 0 175 -23l-17 -73q-72 21 -160 21q-42 0 -77 -13t-65.5 -42.5t-48 -83.5t-17.5 -129q0 -277 226 -277q49 0 100 12v238h82v-291q-105 -34 -192 -34q-65 0 -119 18t-98 57t-68.5 108.5t-24.5 164.5z" />
    <glyph glyph-name="H" unicode="H" horiz-adv-x="650" 
d="M483 381v287h88v-668h-88v307h-316v-307h-88v668h88v-287h316z" />
    <glyph glyph-name="I" unicode="I" horiz-adv-x="246" 
d="M167 668v-668h-88v668h88z" />
    <glyph glyph-name="J" unicode="J" horiz-adv-x="251" 
d="M173 668v-680q0 -148 -138 -148q-32 0 -76 9l4 65q48 -3 61 -3q29 0 45.5 16t16.5 60v681h87z" />
    <glyph glyph-name="K" unicode="K" horiz-adv-x="614" 
d="M167 668v-296h60l229 295h109l-267 -329l302 -338h-116l-258 298h-59v-298h-88v668h88z" />
    <glyph glyph-name="L" unicode="L" horiz-adv-x="470" 
d="M450 74v-74h-371v668h88v-594h283z" />
    <glyph glyph-name="M" unicode="M" horiz-adv-x="820" 
d="M207 668l205 -471l203 471h110l30 -668h-88l-20 539l-199 -440h-77l-198 440l-20 -539h-88l30 668h112z" />
    <glyph glyph-name="N" unicode="N" horiz-adv-x="695" 
d="M527 668h89v-668h-98l-351 531v-531h-88v668h98l350 -531v531z" />
    <glyph glyph-name="O" unicode="O" horiz-adv-x="658" 
d="M330 682q66 0 115.5 -18.5t79.5 -49.5t49 -77t26 -94.5t7 -108.5q0 -59 -7 -107.5t-26.5 -94.5t-50 -77t-80.5 -50t-116 -19q-68 0 -118.5 19t-80.5 49t-47.5 77t-23.5 94.5t-6 108.5q0 75 12.5 133.5t42.5 109t86.5 78t137.5 27.5zM329 55q45 0 78.5 14.5t54 38.5
t33.5 60.5t17.5 76t4.5 89.5q0 64 -8 111.5t-28 87.5t-58 61t-94 21t-94 -21t-58.5 -61t-28.5 -87.5t-8 -111.5q0 -63 8 -110.5t28 -87t58.5 -60.5t94.5 -21z" />
    <glyph glyph-name="P" unicode="P" horiz-adv-x="556" 
d="M79 660q79 15 177 15q45 0 80.5 -4t72.5 -16.5t61.5 -34t40 -58.5t15.5 -88q0 -59 -22 -102.5t-61 -66.5t-83.5 -33.5t-98.5 -10.5q-49 0 -93 9v-270h-89v660zM168 600v-262q42 -8 88 -8q180 0 180 139q0 43 -14.5 72t-41.5 42.5t-56 18.5t-68 5q-55 0 -88 -7z" />
    <glyph glyph-name="Q" unicode="Q" horiz-adv-x="658" 
d="M331 679q82 0 138.5 -27t86 -78t42 -109.5t12.5 -134.5q0 -117 -40 -205t-130 -115q168 -30 257 -76l-54 -68q-12 8 -35.5 22t-108 45t-183.5 49q-66 2 -114 21.5t-76.5 50t-45.5 77t-23 93t-6 106.5q0 75 12.5 134t42.5 109.5t87 78t138 27.5zM330 47q46 0 80 14.5
t54.5 39t33.5 61.5t17.5 77t4.5 91q0 65 -8 113t-28 88.5t-58.5 61.5t-95.5 21q-56 0 -94.5 -21t-58.5 -61.5t-28 -88.5t-8 -113q0 -64 8 -112t28 -88.5t58.5 -61.5t94.5 -21z" />
    <glyph glyph-name="R" unicode="R" horiz-adv-x="584" 
d="M452 0l-183 259h-14q-48 0 -87 7v-266h-89v661q93 14 171 14q45 0 80.5 -4t72.5 -16.5t61.5 -33.5t40 -58.5t15.5 -87.5q0 -162 -157 -203l196 -272h-107zM168 600v-264q47 -9 89 -9q74 0 123.5 33.5t49.5 109.5q0 43 -14.5 71.5t-41.5 41.5t-55.5 18t-68.5 5
q-42 0 -82 -6z" />
    <glyph glyph-name="S" unicode="S" horiz-adv-x="515" 
d="M39 29l20 75q92 -41 179 -41q145 0 145 112q0 28 -10.5 49t-34.5 36.5t-44 24.5t-58 22q-98 35 -145 75t-47 113q0 99 64 141.5t164 42.5q75 0 167 -23l-18 -70q-85 23 -149 23q-135 0 -135 -101q0 -50 36 -76.5t108 -51.5q100 -36 147.5 -78.5t47.5 -116.5
q0 -101 -70 -149.5t-175 -48.5q-100 0 -192 42z" />
    <glyph glyph-name="T" unicode="T" horiz-adv-x="513" 
d="M18 594v74h477v-74h-195v-594h-86v594h-196z" />
    <glyph glyph-name="U" unicode="U" horiz-adv-x="643" 
d="M568 243q0 -132 -58 -194t-189 -63q-126 0 -186 62.5t-60 194.5v425h88v-410q0 -101 33.5 -149t126.5 -48q89 0 123.5 45.5t34.5 151.5v410h87v-425z" />
    <glyph glyph-name="V" unicode="V" horiz-adv-x="584" 
d="M484 668h93l-235 -668h-98l-237 668h99l187 -559z" />
    <glyph glyph-name="W" unicode="W" horiz-adv-x="832" 
d="M371 617h87l187 -499l53 550h92l-82 -668h-108l-185 502l-181 -502h-112l-80 668h92l53 -551z" />
    <glyph glyph-name="X" unicode="X" horiz-adv-x="611" 
d="M594 0h-109l-181 272l-183 -272h-103l234 340l-222 328h101l174 -257l172 257h103l-224 -321z" />
    <glyph glyph-name="Y" unicode="Y" horiz-adv-x="553" 
d="M3 668h100l176 -306l176 306h93l-226 -393v-275h-90v275z" />
    <glyph glyph-name="Z" unicode="Z" horiz-adv-x="557" 
d="M521 74v-74h-475l-7 62l354 532h-339l-12 74h446l8 -66l-351 -528h376z" />
    <glyph glyph-name="bracketleft" unicode="[" horiz-adv-x="303" 
d="M72 -141v907h199v-71l-113 -6v-753l113 -7v-70h-199z" />
    <glyph glyph-name="backslash" unicode="\" horiz-adv-x="391" 
d="M297 -63l-279 791l75 27l280 -792z" />
    <glyph glyph-name="bracketright" unicode="]" horiz-adv-x="303" 
d="M231 765v-906h-199v71l113 6v752l-113 7v70h199z" />
    <glyph glyph-name="asciicircum" unicode="^" horiz-adv-x="492" 
d="M211 641h70l170 -344h-86l-120 246l-119 -246h-86z" />
    <glyph glyph-name="underscore" unicode="_" horiz-adv-x="552" 
d="M489 74v-74h-426v74h426z" />
    <glyph glyph-name="grave" unicode="`" horiz-adv-x="356" 
d="M254 577l-172 104l48 73l160 -122z" />
    <glyph glyph-name="a" unicode="a" horiz-adv-x="476" 
d="M426 333v-311q-96 -34 -206 -34q-78 0 -132 33.5t-54 108.5q0 57 30 93t71.5 48.5t94.5 12.5q56 0 111 -16v61q0 57 -21.5 83.5t-83.5 26.5q-54 0 -150 -25l-16 64q35 15 89 24t89 9q95 0 136.5 -42.5t41.5 -135.5zM341 66v148q-42 13 -89 13q-56 0 -94 -23.5t-38 -72.5
q0 -80 121 -80q53 0 100 15z" />
    <glyph glyph-name="b" unicode="b" horiz-adv-x="540" 
d="M148 413v-338q42 -17 109 -17q80 0 115 56t35 145q0 182 -136 182q-55 0 -123 -28zM254 -14q-107 0 -188 34v680h82v-216q64 30 134 30q97 0 155 -62.5t58 -191.5q0 -56 -12 -103t-38.5 -86.5t-75 -62t-115.5 -22.5z" />
    <glyph glyph-name="c" unicode="c" horiz-adv-x="464" 
d="M420 489l-17 -65q-54 18 -120 18q-63 0 -105.5 -46t-42.5 -146q0 -101 44 -147.5t112 -46.5q62 0 125 24l13 -66q-79 -28 -141 -28q-107 0 -175.5 65.5t-68.5 198.5q0 130 69.5 197t167.5 67q65 0 139 -25z" />
    <glyph glyph-name="d" unicode="d" horiz-adv-x="547" 
d="M397 67v361q-51 18 -103 18q-157 0 -157 -212q0 -93 43.5 -137t120.5 -44q43 0 96 14zM46 233q0 129 55 205t179 76q68 0 117 -16v214h83v-699q-131 -25 -197 -25q-52 0 -92 11t-74 37.5t-52.5 76t-18.5 120.5z" />
    <glyph glyph-name="e" unicode="e" horiz-adv-x="513" 
d="M283 -14q-239 0 -239 266q0 109 57 185t167 76q101 0 152 -50t51 -140q0 -32 -8 -77h-330q0 -100 46 -144.5t136 -44.5q70 0 128 25l11 -69q-69 -27 -171 -27zM271 447q-37 0 -65.5 -16t-42.5 -39.5t-21 -43.5t-7 -36h249q1 6 1 18q0 56 -30.5 86.5t-83.5 30.5z" />
    <glyph glyph-name="f" unicode="f" horiz-adv-x="343" 
d="M119 0v435h-98v67h98v40q0 97 45 138t136 41q53 0 106 -11l-14 -66q-60 7 -96 7q-49 0 -71 -22t-22 -84v-43h149v-67h-149v-435h-84z" />
    <glyph glyph-name="g" unicode="g" horiz-adv-x="524" 
d="M255 505q17 0 54 -3t58 -3q61 0 142 13l8 -56q-96 -15 -120 -15q40 -45 40 -110q0 -87 -51.5 -131t-139.5 -44q-33 0 -60 5q-12 -19 -12 -46q0 -22 9 -37h146q160 -2 160 -120q0 -86 -67 -136t-186 -50q-96 0 -151.5 35.5t-55.5 98.5q0 78 95 133q-21 21 -21 57
q0 50 35 85q-81 43 -81 152q0 81 49.5 126.5t148.5 45.5zM137 332q0 -118 109 -118q60 0 87.5 32.5t27.5 84.5q0 56 -26.5 84.5t-86.5 28.5q-55 0 -83 -29.5t-28 -82.5zM308 8l-130 1q-30 -11 -47 -35t-17 -55q0 -35 38 -56t96 -21q72 0 113 27t41 81q0 28 -20.5 42.5
t-73.5 15.5z" />
    <glyph glyph-name="h" unicode="h" horiz-adv-x="533" 
d="M68 0v700h84v-215q77 30 146 30q77 0 123.5 -40.5t46.5 -130.5v-344h-83v328q0 114 -104 114q-75 0 -129 -30v-412h-84z" />
    <glyph glyph-name="i" unicode="i" horiz-adv-x="193" 
d="M138 502v-502h-83v502h83zM55 601v104h83v-104h-83z" />
    <glyph glyph-name="j" unicode="j" horiz-adv-x="213" 
d="M153 502v-568q0 -140 -141 -140q-40 0 -85 18l12 64q37 -10 72 -10q59 0 59 64v572h83zM70 601v104h83v-104h-83z" />
    <glyph glyph-name="k" unicode="k" horiz-adv-x="510" 
d="M152 702v-386h64l144 186h104l-177 -219l213 -283h-105l-180 245h-63v-245h-84v688z" />
    <glyph glyph-name="l" unicode="l" horiz-adv-x="275" 
d="M69 700h86v-594q0 -49 45 -49q25 0 60 11l10 -64q-51 -18 -91 -18q-110 0 -110 114v600z" />
    <glyph glyph-name="m" unicode="m" horiz-adv-x="837" 
d="M68 462q120 53 224 53q90 0 131 -44q86 44 174 44q84 0 129.5 -36.5t45.5 -131.5v-347h-83v332q0 66 -27 88.5t-83 22.5q-63 0 -121 -28q8 -25 8 -68v-347h-83v332q0 66 -27 88.5t-83 22.5q-70 0 -121 -28v-415h-84v462z" />
    <glyph glyph-name="n" unicode="n" horiz-adv-x="542" 
d="M68 462q119 53 231 53q87 0 132.5 -36t45.5 -135v-344h-83v329q0 67 -27 91t-77 24q-74 0 -138 -27v-417h-84v462z" />
    <glyph glyph-name="o" unicode="o" horiz-adv-x="542" 
d="M269 -14q-116 0 -169.5 60.5t-53.5 203.5q0 140 59 202t169 62t166 -61t56 -202q0 -265 -227 -265zM272 446q-63 0 -100.5 -43t-37.5 -153q0 -106 34 -151t103 -45q62 0 99.5 46.5t37.5 149.5q0 113 -34 154.5t-102 41.5z" />
    <glyph glyph-name="p" unicode="p" horiz-adv-x="543" 
d="M151 424v-350q45 -21 109 -21q80 0 115 57t35 149q0 102 -36.5 143.5t-101.5 41.5q-60 0 -121 -20zM498 260q0 -124 -55.5 -201.5t-184.5 -77.5q-46 0 -107 19v-219h-83v691q117 39 215 39q100 0 157.5 -57t57.5 -194z" />
    <glyph glyph-name="q" unicode="q" horiz-adv-x="543" 
d="M46 249q2 128 62 197t181 69q99 0 188 -42v-692l-84 8v216q-49 -23 -107 -23q-67 0 -115.5 22.5t-74.5 61.5t-38 84t-12 99zM134 247q0 -83 35.5 -138t114.5 -55q64 0 107 21v353q-45 17 -103 17q-80 0 -116.5 -54.5t-37.5 -143.5z" />
    <glyph glyph-name="r" unicode="r" horiz-adv-x="337" 
d="M327 503l-11 -75q-26 6 -54 6q-76 0 -110 -30v-404h-84v502h73l7 -48q49 54 133 54q23 0 46 -5z" />
    <glyph glyph-name="s" unicode="s" horiz-adv-x="417" 
d="M37 24l23 66q66 -27 132 -27q49 0 76 20.5t27 49.5q0 32 -25.5 53t-61.5 33.5t-72 26.5t-61.5 44.5t-25.5 76.5q0 68 48.5 108.5t130.5 40.5q77 0 133 -27l-17 -63q-51 17 -109 17q-102 0 -102 -69q0 -31 25.5 -51t61.5 -32t72.5 -26.5t62 -44.5t25.5 -75q0 -66 -49 -112
t-142 -46q-43 0 -86.5 11t-65.5 26z" />
    <glyph glyph-name="t" unicode="t" horiz-adv-x="350" 
d="M310 73l13 -63q-56 -20 -102 -20q-81 0 -108.5 30.5t-27.5 108.5v306h-68v67h68v138h85v-138h166l-13 -67h-154v-316q0 -16 1 -24.5t6 -18.5t17 -14.5t31 -4.5q40 0 86 16z" />
    <glyph glyph-name="u" unicode="u" horiz-adv-x="535" 
d="M468 502v-479q-104 -37 -212 -37q-192 0 -192 180v336h84v-331q0 -65 34 -90.5t100 -25.5q49 0 102 17v430h84z" />
    <glyph glyph-name="v" unicode="v" horiz-adv-x="482" 
d="M373 502h90l-172 -502h-101l-171 502h94l128 -413z" />
    <glyph glyph-name="w" unicode="w" horiz-adv-x="689" 
d="M344 384l-97 -384h-92l-131 502h90l90 -401l99 401h82l100 -401l90 401h90l-131 -502h-92z" />
    <glyph glyph-name="x" unicode="x" horiz-adv-x="515" 
d="M482 502l-175 -234l191 -268h-97l-142 204l-142 -204h-101l198 269l-174 233h99l123 -172l124 172h96z" />
    <glyph glyph-name="y" unicode="y" horiz-adv-x="452" 
d="M199 -5h-24l-175 507h89l139 -423l126 422h89l-152 -468q-36 -127 -88 -182t-130 -55q-35 0 -69 14l10 58q24 -6 54 -6q51 0 86 40t45 93z" />
    <glyph glyph-name="z" unicode="z" horiz-adv-x="458" 
d="M426 70v-70h-385l-10 59l274 374h-244l-12 69h349l8 -62l-273 -370h293z" />
    <glyph glyph-name="braceleft" unicode="{" horiz-adv-x="376" 
d="M31 346h27q43 5 43 93l7 162q4 73 51 118.5t111 45.5h77v-70h-86q-37 -4 -55.5 -36t-18.5 -60l-3 -137q-2 -116 -43 -150q41 -25 43 -160l3 -130q0 -29 18.5 -60.5t55.5 -34.5h79v-67h-70q-70 0 -114.5 44t-47.5 115l-7 159q0 50 -8.5 75.5t-32.5 26.5h-29v66z" />
    <glyph glyph-name="bar" unicode="|" horiz-adv-x="231" 
d="M74 -44v746h83v-746h-83z" />
    <glyph glyph-name="braceright" unicode="}" horiz-adv-x="375" 
d="M344 346v-66h-29q-24 -1 -32.5 -26.5t-8.5 -75.5l-7 -159q-3 -71 -47.5 -115t-114.5 -44h-70v67h79q37 3 55.5 34.5t18.5 60.5l3 130q2 135 43 160q-41 34 -43 150l-3 137q0 28 -18.5 60t-55.5 36h-86v70h77q64 0 111 -45.5t51 -118.5l7 -162q0 -88 43 -93h27z" />
    <glyph glyph-name="asciitilde" unicode="~" horiz-adv-x="582" 
d="M409 294q30 0 69 57l56 -45q-57 -97 -133 -97q-47 0 -121 35q-66 32 -105 32q-30 0 -69 -57l-56 45q57 97 132 97q52 0 128 -36q70 -31 99 -31z" />
    <glyph glyph-name="uni007F" 
 />
    <glyph glyph-name="uni00A0" unicode="&#xa0;" horiz-adv-x="210" 
 />
    <glyph glyph-name="exclamdown" unicode="&#xa1;" horiz-adv-x="220" 
d="M160 -179l-12 516h-76l-11 -516h99zM56 409v110h110v-110h-110z" />
    <glyph glyph-name="cent" unicode="&#xa2;" horiz-adv-x="471" 
d="M431 561l-33 -59q-58 32 -114 32q-71 0 -118 -47t-47 -149t47 -148t118 -46q67 0 129 31l22 -63q-62 -30 -120 -37l5 -98h-82l4 100q-94 14 -151 79.5t-57 181.5q0 117 57 182.5t151 79.5l-4 100h82l-4 -98q63 -9 115 -41z" />
    <glyph glyph-name="sterling" unicode="&#xa3;" horiz-adv-x="526" 
d="M39 320v65h72q-20 62 -20 110q0 90 56.5 138.5t155.5 48.5q71 0 165 -25l-22 -65q-79 21 -138 21q-61 0 -94.5 -30.5t-33.5 -81.5q0 -43 25 -116h143l6 -65h-126q13 -46 13 -90q0 -80 -51 -156h303v-74h-424v70q41 21 63 66.5t22 97.5q0 51 -18 86h-97z" />
    <glyph glyph-name="currency" unicode="&#xa4;" horiz-adv-x="529" 
d="M94 -18l-53 41l78 99q-46 52 -46 128t51 133l-75 94l53 41l74 -95q45 21 94 21q43 0 83 -19l73 93l52 -41l-69 -89q26 -26 41.5 -64t15.5 -74q0 -77 -54 -134l73 -93l-53 -41l-72 96q-38 -21 -90 -21q-55 0 -98 24zM270 126q53 0 87.5 35.5t34.5 88.5t-34.5 89.5
t-87.5 36.5t-88 -36.5t-35 -89.5t34.5 -88.5t88.5 -35.5z" />
    <glyph glyph-name="yen" unicode="&#xa5;" horiz-adv-x="595" 
d="M82 247v64h431v-64h-431zM82 125v64h431v-64h-431zM16 668h100l176 -306l176 306h93l-226 -393v-275h-90v275z" />
    <glyph glyph-name="brokenbar" unicode="&#xa6;" horiz-adv-x="235" 
d="M75 410v284h85v-284h-85zM75 -45v288h85v-288h-85z" />
    <glyph glyph-name="section" unicode="&#xa7;" horiz-adv-x="367" 
d="M183 489q18 -43 72.5 -122t73.5 -120v1q32 -76 -4 -145q-23 -41 -73 -69q3 -5 9 -21v1q30 -69 -4 -143q-29 -58 -107 -86q-26 -10 -45 -13l-17 69l33 10q48 16 64.5 51.5t-2.5 75.5q-20 46 -73 123.5t-72 117.5q-30 78 4 144q21 41 73 69l-9 21q-12 36 -12 66
q0 119 123 163q21 8 45 13l17 -70l-33 -10q-72 -26 -72 -85q0 -18 9 -41zM114 257q8 -20 21.5 -43.5t24.5 -40t30 -43t28 -39.5q33 17 41.5 52t-6.5 67q-18 44 -104 165q-32 -18 -40.5 -52.5t5.5 -65.5z" />
    <glyph glyph-name="dieresis" unicode="&#xa8;" horiz-adv-x="325" 
d="M30 601v104h83v-104h-83zM210 601v104h83v-104h-83z" />
    <glyph glyph-name="copyright" unicode="&#xa9;" horiz-adv-x="732" 
d="M686 302q0 -134 -93 -227t-227 -93t-227 93t-93 227t93 227t227 93t227 -93t93 -227zM611 302q0 110 -69.5 181.5t-175.5 71.5t-176 -72.5t-70 -182.5t70 -182.5t176 -72.5t175.5 73.5t69.5 183.5zM484 476l-15 -61q-46 16 -94 16q-42 0 -70 -32t-28 -101q0 -70 29 -102
t75 -32q47 0 97 21l12 -61q-67 -24 -111 -24q-82 0 -134 49t-52 149q0 98 52.5 148.5t127.5 50.5q49 0 111 -21z" />
    <glyph glyph-name="ordfeminine" unicode="&#xaa;" horiz-adv-x="337" 
d="M294 588v-181q-55 -24 -129 -24q-119 0 -119 91q0 46 31.5 68.5t80.5 22.5q28 0 60 -8v30q0 52 -53 52q-47 0 -87 -13l-13 54q55 22 115 22q62 0 88 -27t26 -87zM218 439v76q-20 4 -35 4q-60 0 -60 -44q0 -42 55 -42q24 0 40 6z" />
    <glyph glyph-name="guillemotleft" unicode="&#xab;" horiz-adv-x="533" 
d="M486 462l-148 -154l148 -153l-58 -51l-171 180v48l171 180zM276 462l-149 -154l149 -153l-58 -51l-171 180v48l171 180z" />
    <glyph glyph-name="logicalnot" unicode="&#xac;" horiz-adv-x="509" 
d="M55 432h388v-196h-79v117h-309v79z" />
    <glyph glyph-name="uni00AD" unicode="&#xad;" horiz-adv-x="429" 
d="M366 318v-79h-303v79h303z" />
    <glyph glyph-name="registered" unicode="&#xae;" horiz-adv-x="732" 
d="M449 117l-101 141h-4q-27 0 -41 3v-144h-62v369q66 8 101 8q33 0 57.5 -4t48.5 -15t36.5 -35t12.5 -60q0 -88 -85 -113l110 -150h-73zM303 445v-137q18 -3 43 -3q88 0 88 73q0 41 -24.5 55t-67.5 14q-27 0 -39 -2zM686 302q0 -134 -93 -227t-227 -93t-227 93t-93 227
t93 227t227 93t227 -93t93 -227zM611 302q0 110 -69.5 181.5t-175.5 71.5t-176 -72.5t-70 -182.5t70 -182.5t176 -72.5t175.5 73.5t69.5 183.5z" />
    <glyph glyph-name="macron" unicode="&#xaf;" horiz-adv-x="577" 
d="M514 670v-79h-451v79h451z" />
    <glyph glyph-name="degree" unicode="&#xb0;" horiz-adv-x="328" 
d="M285 633q0 -51 -32 -87t-91 -36t-89 34.5t-30 84.5q0 51 31.5 86.5t90.5 35.5t89.5 -34t30.5 -84zM219 633q0 23 -13 40t-41 17q-29 0 -42.5 -17.5t-13.5 -43.5q0 -24 12 -41.5t41 -17.5q30 0 43.5 19t13.5 44z" />
    <glyph glyph-name="plusminus" unicode="&#xb1;" horiz-adv-x="496" 
d="M288 142h-80v153h-152v81h152v150h80v-150h152v-81h-152v-153zM440 80v-80h-384v80h384z" />
    <glyph glyph-name="twosuperior" unicode="&#xb2;" horiz-adv-x="384" 
d="M150 328h189v-60h-303v51q16 14 61 49.5t71.5 58.5t51 60t24.5 71t-19.5 49.5t-50.5 15.5q-33 0 -100 -26l-25 51q60 34 133 34q137 0 137 -123q0 -103 -169 -231z" />
    <glyph glyph-name="threesuperior" unicode="&#xb3;" horiz-adv-x="345" 
d="M135 461h-47v44q67 1 95.5 19t28.5 54q0 49 -61 49q-39 0 -93 -22l-21 54q63 24 118 24q58 0 95 -24t37 -79q0 -64 -55 -89q74 -27 74 -98q0 -69 -44 -101.5t-113 -32.5q-56 0 -120 23l19 60q52 -24 97 -24q37 0 60.5 18t23.5 56q0 31 -24.5 50t-69.5 19z" />
    <glyph glyph-name="acute" unicode="&#xb4;" horiz-adv-x="356" 
d="M279 681l-172 -104l-36 55l160 122z" />
    <glyph glyph-name="mu" unicode="&#xb5;" horiz-adv-x="494" 
d="M151 19v-230h-82v713h84v-331q0 -65 34 -90.5t100 -25.5q49 0 102 17v430h84v-479q-104 -37 -212 -37q-56 0 -110 33z" />
    <glyph glyph-name="paragraph" unicode="&#xb6;" horiz-adv-x="508" 
d="M479 604h-72v-766h-74v766h-74v-766h-78v513q-66 0 -112.5 46.5t-46.5 112.5t46.5 112t112.5 46h298v-64z" />
    <glyph glyph-name="periodcentered" unicode="&#xb7;" horiz-adv-x="254" 
d="M126 333q30 0 51 -20.5t21 -48.5q0 -30 -21 -52t-51 -22q-28 0 -49 22t-21 52q0 28 21 48.5t49 20.5z" />
    <glyph glyph-name="cedilla" unicode="&#xb8;" horiz-adv-x="284" 
d="M206 -49q16 -34 16 -64q0 -79 -106 -142l-41 48q70 49 70 99q0 25 -18 59h79z" />
    <glyph glyph-name="onesuperior" unicode="&#xb9;" horiz-adv-x="254" 
d="M195 256h-74v339l-94 -32l-19 53l134 52h53v-412z" />
    <glyph glyph-name="ordmasculine" unicode="&#xba;" horiz-adv-x="383" 
d="M190 386q-76 0 -109 36t-33 123q0 85 37 122.5t108 37.5t106.5 -36.5t35.5 -122.5q0 -85 -37 -122.5t-108 -37.5zM191 650q-34 0 -53 -22.5t-19 -82.5q0 -57 17.5 -80t54.5 -23q72 0 72 103q0 61 -17.5 83t-54.5 22z" />
    <glyph glyph-name="guillemotright" unicode="&#xbb;" horiz-adv-x="531" 
d="M194 308l-148 154l58 50l171 -180v-48l-171 -180l-58 51zM405 308l-149 154l58 50l171 -180v-48l-171 -180l-58 51z" />
    <glyph glyph-name="onequarter" unicode="&#xbc;" horiz-adv-x="812" 
d="M655 694l-423 -678l-59 34l426 676zM126 475h-47v44q67 1 95.5 19t28.5 54q0 49 -61 49q-39 0 -93 -22l-21 54q63 24 118 24q58 0 95 -24t37 -79q0 -64 -55 -89q74 -27 74 -98q0 -69 -44 -101.5t-113 -32.5q-56 0 -120 23l19 60q52 -24 97 -24q37 0 60.5 18t23.5 56
q0 31 -24.5 50t-69.5 19zM785 107h-78v-107h-75v107h-191v42l197 260h69v-244h78v-58zM632 165v138l-105 -138h105z" />
    <glyph glyph-name="onehalf" unicode="&#xbd;" horiz-adv-x="792" 
d="M207 286h-74v339l-94 -32l-19 53l134 52h53v-412zM758 107h-78v-107h-76v107h-190v42l197 260h69v-244h78v-58zM604 165v138l-104 -138h104zM623 694l-423 -678l-59 34l426 676z" />
    <glyph glyph-name="threequarters" unicode="&#xbe;" horiz-adv-x="814" 
d="M213 286h-74v339l-94 -32l-19 53l134 52h53v-412zM602 60h189v-60h-303v51q16 14 61 49.5t71.5 58.5t51 60t24.5 71t-19.5 49.5t-50.5 15.5q-33 0 -100 -26l-25 51q60 34 133 34q137 0 137 -123q0 -103 -169 -231zM629 694l-423 -678l-59 34l426 676z" />
    <glyph glyph-name="questiondown" unicode="&#xbf;" horiz-adv-x="334" 
d="M113 9q-7 -53 41 -83.5t136 -38.5l-18 -77q-114 5 -185 58t-62 139q3 36 20 64.5t39.5 48.5l45 40t39.5 49.5t20 66.5l2 59h77q3 -56 2 -72q-3 -38 -19.5 -70.5t-38 -54.5t-43 -42t-37.5 -42t-19 -45zM176 413v110h110v-110h-110z" />
    <glyph glyph-name="Agrave" unicode="&#xc0;" horiz-adv-x="605" 
d="M162 175l-62 -175h-92l243 668h103l243 -668h-92l-62 175h-281zM302 577l-115 -329h230zM354 721l-172 104l48 73l160 -122z" />
    <glyph glyph-name="Aacute" unicode="&#xc1;" horiz-adv-x="605" 
d="M162 175l-62 -175h-92l243 668h103l243 -668h-92l-62 175h-281zM302 577l-115 -329h230zM408 829l-172 -104l-36 55l160 122z" />
    <glyph glyph-name="Acircumflex" unicode="&#xc2;" horiz-adv-x="605" 
d="M162 175l-62 -175h-92l243 668h103l243 -668h-92l-62 175h-281zM302 577l-115 -329h230zM304 800l-85 -86l-48 36l99 110h65l100 -110l-51 -36z" />
    <glyph glyph-name="Atilde" unicode="&#xc3;" horiz-adv-x="605" 
d="M167 175l-62 -175h-92l243 668h103l243 -668h-92l-62 175h-281zM307 577l-115 -329h230zM184 736l-44 37q19 30 45 50.5t52 20.5q22 0 68.5 -21.5t66.5 -21.5q19 0 56 42l43 -36q-20 -34 -50 -55.5t-57 -21.5q-23 0 -67 21.5t-63 21.5t-50 -37z" />
    <glyph glyph-name="Adieresis" unicode="&#xc4;" horiz-adv-x="605" 
d="M162 175l-62 -175h-92l243 668h103l243 -668h-92l-62 175h-281zM302 577l-115 -329h230zM174 736v104h83v-104h-83zM354 736v104h83v-104h-83z" />
    <glyph glyph-name="Aring" unicode="&#xc5;" horiz-adv-x="605" 
d="M162 175l-62 -175h-92l243 668h103l243 -668h-92l-62 175h-281zM302 577l-115 -329h230zM408 811q0 -43 -27 -73.5t-77 -30.5t-76 30t-26 73t26.5 72.5t76.5 29.5t76.5 -29t26.5 -72zM349 811q0 19 -10.5 33t-33.5 14q-22 0 -33 -14t-11 -34t10.5 -34.5t32.5 -14.5
q23 0 34 15t11 35z" />
    <glyph glyph-name="AE" unicode="&#xc6;" horiz-adv-x="840" 
d="M348 668h434v-74h-305v-213h289v-74h-289v-233h316v-74h-403v208h-188l-104 -208h-93zM390 576l-152 -295h152v295z" />
    <glyph glyph-name="Ccedilla" unicode="&#xc7;" horiz-adv-x="556" 
d="M146 339q0 -156 52.5 -218t156.5 -62q56 0 149 16l9 -70q-79 -19 -167 -19q-154 0 -224 95.5t-70 256.5q0 79 16.5 140t43.5 99t65.5 62t79 33.5t86.5 9.5q95 0 174 -26l-15 -68q-76 22 -156 22q-94 0 -147 -61.5t-53 -209.5zM386 -49q16 -34 16 -64q0 -79 -106 -142
l-41 48q70 49 70 99q0 25 -18 59h79z" />
    <glyph glyph-name="Egrave" unicode="&#xc8;" horiz-adv-x="535" 
d="M477 74v-74h-404v668h393v-74h-305v-213h289v-74h-289v-233h316zM314 721l-172 104l48 73l160 -122z" />
    <glyph glyph-name="Eacute" unicode="&#xc9;" horiz-adv-x="535" 
d="M385 829l-172 -104l-36 55l160 122zM477 74v-74h-404v668h393v-74h-305v-213h289v-74h-289v-233h316z" />
    <glyph glyph-name="Ecircumflex" unicode="&#xca;" horiz-adv-x="535" 
d="M279 806l-85 -86l-48 36l99 110h65l100 -110l-51 -36zM477 74v-74h-404v668h393v-74h-305v-213h289v-74h-289v-233h316z" />
    <glyph glyph-name="Edieresis" unicode="&#xcb;" horiz-adv-x="535" 
d="M139 736v104h83v-104h-83zM319 736v104h83v-104h-83zM477 74v-74h-404v668h393v-74h-305v-213h289v-74h-289v-233h316z" />
    <glyph glyph-name="Igrave" unicode="&#xcc;" horiz-adv-x="254" 
d="M190 668v-668h-88v668h88zM165 721l-172 104l48 73l160 -122z" />
    <glyph glyph-name="Iacute" unicode="&#xcd;" horiz-adv-x="254" 
d="M146 668v-668h-88v668h88zM255 829l-172 -104l-36 55l160 122z" />
    <glyph glyph-name="Icircumflex" unicode="&#xce;" horiz-adv-x="254" 
d="M157 668v-668h-88v668h88zM117 806l-85 -86l-48 36l99 110h65l100 -110l-51 -36z" />
    <glyph glyph-name="Idieresis" unicode="&#xcf;" horiz-adv-x="254" 
d="M139 668v-668h-88v668h88zM-36 736v104h83v-104h-83zM144 736v104h83v-104h-83z" />
    <glyph glyph-name="Eth" unicode="&#xd0;" horiz-adv-x="638" 
d="M70 6v299h-65v78h65v279q109 13 185 13q81 0 139 -16t102.5 -54t67 -106t22.5 -166q0 -80 -18 -140.5t-48 -98.5t-74 -62t-91.5 -33.5t-105.5 -9.5q-62 0 -179 17zM159 599v-216h173v-78h-173v-232q48 -9 93 -9q110 0 174.5 64.5t64.5 205.5q0 139 -57.5 205t-176.5 66
q-45 0 -98 -6z" />
    <glyph glyph-name="Ntilde" unicode="&#xd1;" horiz-adv-x="695" 
d="M521 668h89v-668h-98l-351 531v-531h-88v668h98l350 -531v531zM219 736l-44 37q19 30 45 50.5t52 20.5q22 0 68.5 -21.5t66.5 -21.5q19 0 56 42l43 -36q-20 -34 -50 -55.5t-57 -21.5q-23 0 -67 21.5t-63 21.5t-50 -37z" />
    <glyph glyph-name="Ograve" unicode="&#xd2;" horiz-adv-x="658" 
d="M330 682q66 0 115.5 -18.5t79.5 -49.5t49 -77t26 -94.5t7 -108.5q0 -59 -7 -107.5t-26.5 -94.5t-50 -77t-80.5 -50t-116 -19q-68 0 -118.5 19t-80.5 49t-47.5 77t-23.5 94.5t-6 108.5q0 75 12.5 133.5t42.5 109t86.5 78t137.5 27.5zM329 55q45 0 78.5 14.5t54 38.5
t33.5 60.5t17.5 76t4.5 89.5q0 64 -8 111.5t-28 87.5t-58 61t-94 21t-94 -21t-58.5 -61t-28.5 -87.5t-8 -111.5q0 -63 8 -110.5t28 -87t58.5 -60.5t94.5 -21zM364 721l-172 104l48 73l160 -122z" />
    <glyph glyph-name="Oacute" unicode="&#xd3;" horiz-adv-x="658" 
d="M330 682q66 0 115.5 -18.5t79.5 -49.5t49 -77t26 -94.5t7 -108.5q0 -59 -7 -107.5t-26.5 -94.5t-50 -77t-80.5 -50t-116 -19q-68 0 -118.5 19t-80.5 49t-47.5 77t-23.5 94.5t-6 108.5q0 75 12.5 133.5t42.5 109t86.5 78t137.5 27.5zM329 55q45 0 78.5 14.5t54 38.5
t33.5 60.5t17.5 76t4.5 89.5q0 64 -8 111.5t-28 87.5t-58 61t-94 21t-94 -21t-58.5 -61t-28.5 -87.5t-8 -111.5q0 -63 8 -110.5t28 -87t58.5 -60.5t94.5 -21zM433 829l-172 -104l-36 55l160 122z" />
    <glyph glyph-name="Ocircumflex" unicode="&#xd4;" horiz-adv-x="658" 
d="M330 682q66 0 115.5 -18.5t79.5 -49.5t49 -77t26 -94.5t7 -108.5q0 -59 -7 -107.5t-26.5 -94.5t-50 -77t-80.5 -50t-116 -19q-68 0 -118.5 19t-80.5 49t-47.5 77t-23.5 94.5t-6 108.5q0 75 12.5 133.5t42.5 109t86.5 78t137.5 27.5zM329 55q45 0 78.5 14.5t54 38.5
t33.5 60.5t17.5 76t4.5 89.5q0 64 -8 111.5t-28 87.5t-58 61t-94 21t-94 -21t-58.5 -61t-28.5 -87.5t-8 -111.5q0 -63 8 -110.5t28 -87t58.5 -60.5t94.5 -21zM332 808l-85 -86l-48 36l99 110h65l100 -110l-51 -36z" />
    <glyph glyph-name="Otilde" unicode="&#xd5;" horiz-adv-x="658" 
d="M329 682q66 0 115.5 -18.5t79.5 -49.5t49 -77t26 -94.5t7 -108.5q0 -59 -7 -107.5t-26.5 -94.5t-50 -77t-80.5 -50t-116 -19q-68 0 -118.5 19t-80.5 49t-47.5 77t-23.5 94.5t-6 108.5q0 75 12.5 133.5t42.5 109t86.5 78t137.5 27.5zM328 55q45 0 78.5 14.5t54 38.5
t33.5 60.5t17.5 76t4.5 89.5q0 64 -8 111.5t-28 87.5t-58 61t-94 21t-94 -21t-58.5 -61t-28.5 -87.5t-8 -111.5q0 -63 8 -110.5t28 -87t58.5 -60.5t94.5 -21zM201 736l-44 37q19 30 45 50.5t52 20.5q22 0 68.5 -21.5t66.5 -21.5q19 0 56 42l43 -36q-20 -34 -50 -55.5
t-57 -21.5q-23 0 -67 21.5t-63 21.5t-50 -37z" />
    <glyph glyph-name="Odieresis" unicode="&#xd6;" horiz-adv-x="658" 
d="M329 682q66 0 115.5 -18.5t79.5 -49.5t49 -77t26 -94.5t7 -108.5q0 -59 -7 -107.5t-26.5 -94.5t-50 -77t-80.5 -50t-116 -19q-68 0 -118.5 19t-80.5 49t-47.5 77t-23.5 94.5t-6 108.5q0 75 12.5 133.5t42.5 109t86.5 78t137.5 27.5zM328 55q45 0 78.5 14.5t54 38.5
t33.5 60.5t17.5 76t4.5 89.5q0 64 -8 111.5t-28 87.5t-58 61t-94 21t-94 -21t-58.5 -61t-28.5 -87.5t-8 -111.5q0 -63 8 -110.5t28 -87t58.5 -60.5t94.5 -21zM199 734v104h83v-104h-83zM379 734v104h83v-104h-83z" />
    <glyph glyph-name="multiply" unicode="&#xd7;" horiz-adv-x="510" 
d="M463 153l-56 -56l-151 149l-151 -151l-57 56l150 150l-149 148l57 57l148 -148l149 148l59 -54l-149 -149z" />
    <glyph glyph-name="Oslash" unicode="&#xd8;" horiz-adv-x="658" 
d="M329 682q67 0 122 -21l45 85l71 -32l-50 -95q89 -83 89 -285q0 -59 -7 -107.5t-26.5 -94.5t-50 -77t-80.5 -50t-116 -19q-74 0 -131 23l-51 -98l-70 33l56 107q-80 79 -80 283q0 75 12.5 133.5t42.5 109t86.5 78t137.5 27.5zM328 55q45 0 78.5 14.5t54 38.5t33.5 60.5
t17.5 76t4.5 89.5q0 141 -40 207l-245 -464q41 -22 97 -22zM139 334q0 -131 36 -198l242 460q-38 19 -89 19q-56 0 -94 -21t-58.5 -61t-28.5 -87.5t-8 -111.5z" />
    <glyph glyph-name="Ugrave" unicode="&#xd9;" horiz-adv-x="643" 
d="M563 243q0 -132 -58 -194t-189 -63q-126 0 -186 62.5t-60 194.5v425h88v-410q0 -101 33.5 -149t126.5 -48q89 0 123.5 45.5t34.5 151.5v410h87v-425zM374 721l-172 104l48 73l160 -122z" />
    <glyph glyph-name="Uacute" unicode="&#xda;" horiz-adv-x="643" 
d="M563 243q0 -132 -58 -194t-189 -63q-126 0 -186 62.5t-60 194.5v425h88v-410q0 -101 33.5 -149t126.5 -48q89 0 123.5 45.5t34.5 151.5v410h87v-425zM434 828l-172 -104l-36 55l160 122z" />
    <glyph glyph-name="Ucircumflex" unicode="&#xdb;" horiz-adv-x="643" 
d="M563 243q0 -132 -58 -194t-189 -63q-126 0 -186 62.5t-60 194.5v425h88v-410q0 -101 33.5 -149t126.5 -48q89 0 123.5 45.5t34.5 151.5v410h87v-425zM319 806l-85 -86l-48 36l99 110h65l100 -110l-51 -36z" />
    <glyph glyph-name="Udieresis" unicode="&#xdc;" horiz-adv-x="643" 
d="M563 243q0 -132 -58 -194t-189 -63q-126 0 -186 62.5t-60 194.5v425h88v-410q0 -101 33.5 -149t126.5 -48q89 0 123.5 45.5t34.5 151.5v410h87v-425zM191 736v104h83v-104h-83zM371 736v104h83v-104h-83z" />
    <glyph glyph-name="Yacute" unicode="&#xdd;" horiz-adv-x="553" 
d="M391 828l-172 -104l-36 55l160 122zM-3 668h100l176 -306l176 306h93l-226 -393v-275h-90v275z" />
    <glyph glyph-name="Thorn" unicode="&#xde;" horiz-adv-x="559" 
d="M464 542q63 -51 63 -144q0 -108 -69 -158q-38 -28 -93.5 -39.5t-147.5 -11.5h-49v-189h-89v700h89v-104h79q83 0 131 -12t86 -42zM388 289q49 31 49 104q0 58 -38 94q-41 35 -151 35h-80v-259h62q118 0 158 26z" />
    <glyph glyph-name="germandbls" unicode="&#xdf;" horiz-adv-x="576" 
d="M250 381q0 28 11.5 51t28 38.5t33.5 30t28.5 32.5t11.5 38q0 78 -88 78q-62 0 -91 -32.5t-29 -101.5v-637h-87v639q0 105 55 156.5t155 51.5q85 0 130 -42.5t45 -106.5q0 -35 -18 -64.5t-40 -46.5t-40 -37.5t-18 -39.5q0 -18 5 -31t18.5 -23.5t21.5 -15t28 -14.5
q32 -13 50 -22.5t41.5 -28t34.5 -44t11 -58.5q0 -69 -45 -109t-122 -40q-40 0 -89.5 13.5t-71.5 30.5l23 67q75 -37 144 -37q74 0 74 70q0 21 -14.5 38.5t-29.5 26t-44 22.5q-31 15 -46 24t-36.5 27t-30.5 41.5t-9 55.5z" />
    <glyph glyph-name="agrave" unicode="&#xe0;" horiz-adv-x="476" 
d="M426 333v-311q-96 -34 -206 -34q-78 0 -132 33.5t-54 108.5q0 57 30 93t71.5 48.5t94.5 12.5q56 0 111 -16v61q0 57 -21.5 83.5t-83.5 26.5q-54 0 -150 -25l-16 64q35 15 89 24t89 9q95 0 136.5 -42.5t41.5 -135.5zM341 66v148q-42 13 -89 13q-56 0 -94 -23.5t-38 -72.5
q0 -80 121 -80q53 0 100 15zM300 577l-172 104l48 73l160 -122z" />
    <glyph glyph-name="aacute" unicode="&#xe1;" horiz-adv-x="476" 
d="M426 333v-311q-96 -34 -206 -34q-78 0 -132 33.5t-54 108.5q0 57 30 93t71.5 48.5t94.5 12.5q56 0 111 -16v61q0 57 -21.5 83.5t-83.5 26.5q-54 0 -150 -25l-16 64q35 15 89 24t89 9q95 0 136.5 -42.5t41.5 -135.5zM341 66v148q-42 13 -89 13q-56 0 -94 -23.5t-38 -72.5
q0 -80 121 -80q53 0 100 15zM349 681l-172 -104l-36 55l160 122z" />
    <glyph glyph-name="acircumflex" unicode="&#xe2;" horiz-adv-x="476" 
d="M426 333v-311q-96 -34 -206 -34q-78 0 -132 33.5t-54 108.5q0 57 30 93t71.5 48.5t94.5 12.5q56 0 111 -16v61q0 57 -21.5 83.5t-83.5 26.5q-54 0 -150 -25l-16 64q35 15 89 24t89 9q95 0 136.5 -42.5t41.5 -135.5zM341 66v148q-42 13 -89 13q-56 0 -94 -23.5t-38 -72.5
q0 -80 121 -80q53 0 100 15zM244 667l-85 -86l-48 36l99 110h65l100 -110l-51 -36z" />
    <glyph glyph-name="atilde" unicode="&#xe3;" horiz-adv-x="476" 
d="M426 333v-311q-96 -34 -206 -34q-78 0 -132 33.5t-54 108.5q0 57 30 93t71.5 48.5t94.5 12.5q56 0 111 -16v61q0 57 -21.5 83.5t-83.5 26.5q-54 0 -150 -25l-16 64q35 15 89 24t89 9q95 0 136.5 -42.5t41.5 -135.5zM341 66v148q-42 13 -89 13q-56 0 -94 -23.5t-38 -72.5
q0 -80 121 -80q53 0 100 15zM119 593l-44 37q19 30 45 50.5t52 20.5q22 0 68.5 -21.5t66.5 -21.5q19 0 56 42l43 -36q-20 -34 -50 -55.5t-57 -21.5q-23 0 -67 21.5t-63 21.5t-50 -37z" />
    <glyph glyph-name="adieresis" unicode="&#xe4;" horiz-adv-x="476" 
d="M426 333v-311q-96 -34 -206 -34q-78 0 -132 33.5t-54 108.5q0 57 30 93t71.5 48.5t94.5 12.5q56 0 111 -16v61q0 57 -21.5 83.5t-83.5 26.5q-54 0 -150 -25l-16 64q35 15 89 24t89 9q95 0 136.5 -42.5t41.5 -135.5zM341 66v148q-42 13 -89 13q-56 0 -94 -23.5t-38 -72.5
q0 -80 121 -80q53 0 100 15zM105 601v104h83v-104h-83zM285 601v104h83v-104h-83z" />
    <glyph glyph-name="aring" unicode="&#xe5;" horiz-adv-x="476" 
d="M426 333v-311q-96 -34 -206 -34q-78 0 -132 33.5t-54 108.5q0 57 30 93t71.5 48.5t94.5 12.5q56 0 111 -16v61q0 57 -21.5 83.5t-83.5 26.5q-54 0 -150 -25l-16 64q35 15 89 24t89 9q95 0 136.5 -42.5t41.5 -135.5zM341 66v148q-42 13 -89 13q-56 0 -94 -23.5t-38 -72.5
q0 -80 121 -80q53 0 100 15zM348 691q0 -43 -27 -73.5t-77 -30.5t-76 30t-26 73t26.5 72.5t76.5 29.5t76.5 -29t26.5 -72zM289 691q0 19 -10.5 33t-33.5 14q-22 0 -33 -14t-11 -34t10.5 -34.5t32.5 -14.5q23 0 34 15t11 35z" />
    <glyph glyph-name="ae" unicode="&#xe6;" horiz-adv-x="814" 
d="M237 -12q-84 0 -143 35.5t-59 112.5q0 154 196 154q66 0 111 -9v51q0 53 -22.5 80t-82.5 27t-150 -25l-16 65q37 13 91.5 22.5t86.5 9.5q55 0 95.5 -20t57.5 -52q23 32 66.5 53t96.5 21q103 0 153.5 -52.5t50.5 -142.5q0 -24 -7 -75h-332q2 -94 38.5 -139.5t111.5 -45.5
q81 0 153 39l15 -72q-87 -39 -171 -39q-103 0 -160 51q-82 -49 -180 -49zM379 84q-31 50 -37 133q-63 9 -97 9q-123 0 -123 -87q0 -45 40 -64.5t95 -19.5q66 0 122 29zM432 313h250q0 2 0.5 8t0.5 9q0 55 -31 86t-84 31q-38 0 -66.5 -15.5t-42 -40t-19.5 -42.5t-8 -36z" />
    <glyph glyph-name="ccedilla" unicode="&#xe7;" horiz-adv-x="464" 
d="M417 489l-17 -65q-54 18 -120 18q-63 0 -105.5 -46t-42.5 -146q0 -101 44 -147.5t112 -46.5q62 0 125 24l13 -66q-79 -28 -141 -28q-107 0 -175.5 65.5t-68.5 198.5q0 130 69.5 197t167.5 67q65 0 139 -25zM303 -49q16 -34 16 -64q0 -79 -106 -142l-41 48q70 49 70 99
q0 25 -18 59h79z" />
    <glyph glyph-name="egrave" unicode="&#xe8;" horiz-adv-x="513" 
d="M287 -14q-239 0 -239 266q0 109 57 185t167 76q101 0 152 -50t51 -140q0 -32 -8 -77h-330q0 -100 46 -144.5t136 -44.5q70 0 128 25l11 -69q-69 -27 -171 -27zM275 447q-37 0 -65.5 -16t-42.5 -39.5t-21 -43.5t-7 -36h249q1 6 1 18q0 56 -30.5 86.5t-83.5 30.5zM328 577
l-172 104l48 73l160 -122z" />
    <glyph glyph-name="eacute" unicode="&#xe9;" horiz-adv-x="513" 
d="M287 -14q-239 0 -239 266q0 109 57 185t167 76q101 0 152 -50t51 -140q0 -32 -8 -77h-330q0 -100 46 -144.5t136 -44.5q70 0 128 25l11 -69q-69 -27 -171 -27zM275 447q-37 0 -65.5 -16t-42.5 -39.5t-21 -43.5t-7 -36h249q1 6 1 18q0 56 -30.5 86.5t-83.5 30.5zM382 681
l-172 -104l-36 55l160 122z" />
    <glyph glyph-name="ecircumflex" unicode="&#xea;" horiz-adv-x="513" 
d="M287 -14q-239 0 -239 266q0 109 57 185t167 76q101 0 152 -50t51 -140q0 -32 -8 -77h-330q0 -100 46 -144.5t136 -44.5q70 0 128 25l11 -69q-69 -27 -171 -27zM275 447q-37 0 -65.5 -16t-42.5 -39.5t-21 -43.5t-7 -36h249q1 6 1 18q0 56 -30.5 86.5t-83.5 30.5zM276 667
l-85 -86l-48 36l99 110h65l100 -110l-51 -36z" />
    <glyph glyph-name="edieresis" unicode="&#xeb;" horiz-adv-x="513" 
d="M287 -14q-239 0 -239 266q0 109 57 185t167 76q101 0 152 -50t51 -140q0 -32 -8 -77h-330q0 -100 46 -144.5t136 -44.5q70 0 128 25l11 -69q-69 -27 -171 -27zM275 447q-37 0 -65.5 -16t-42.5 -39.5t-21 -43.5t-7 -36h249q1 6 1 18q0 56 -30.5 86.5t-83.5 30.5zM146 601
v104h83v-104h-83zM326 601v104h83v-104h-83z" />
    <glyph glyph-name="igrave" unicode="&#xec;" horiz-adv-x="225" 
d="M176 502v-502h-91v502h91zM154 577l-172 104l48 73l160 -122z" />
    <glyph glyph-name="iacute" unicode="&#xed;" horiz-adv-x="225" 
d="M152 502v-502h-91v502h91zM254 681l-172 -104l-36 55l160 122z" />
    <glyph glyph-name="icircumflex" unicode="&#xee;" horiz-adv-x="225" 
d="M167 502v-502h-91v502h91zM123 667l-85 -86l-48 36l99 110h65l100 -110l-51 -36z" />
    <glyph glyph-name="idieresis" unicode="&#xef;" horiz-adv-x="225" 
d="M140 502v-502h-91v502h91zM-35 601v104h83v-104h-83zM145 601v104h83v-104h-83z" />
    <glyph glyph-name="eth" unicode="&#xf0;" horiz-adv-x="535" 
d="M46 225q0 113 50 181.5t146 68.5q73 0 136 -25q-24 86 -101 134l-87 -64l-49 51l63 49q-73 30 -143 37l16 62q107 -3 203 -41l76 60l47 -52l-61 -48q145 -108 145 -349q0 -303 -219 -303q-106 0 -164 69.5t-58 169.5zM136 223q0 -72 33.5 -117t95.5 -45q41 0 68 19
t45 75.5t18 152.5q0 46 -1 64q-63 30 -135 30q-124 0 -124 -179z" />
    <glyph glyph-name="ntilde" unicode="&#xf1;" horiz-adv-x="542" 
d="M69 462q119 53 231 53q87 0 132.5 -36t45.5 -135v-344h-83v329q0 67 -27 91t-77 24q-74 0 -138 -27v-417h-84v462zM139 593l-44 37q19 30 45 50.5t52 20.5q22 0 68.5 -21.5t66.5 -21.5q19 0 56 42l43 -36q-20 -34 -50 -55.5t-57 -21.5q-23 0 -67 21.5t-63 21.5t-50 -37z
" />
    <glyph glyph-name="ograve" unicode="&#xf2;" horiz-adv-x="542" 
d="M267 -14q-116 0 -169.5 60.5t-53.5 203.5q0 140 59 202t169 62t166 -61t56 -202q0 -265 -227 -265zM270 446q-63 0 -100.5 -43t-37.5 -153q0 -106 34 -151t103 -45q62 0 99.5 46.5t37.5 149.5q0 113 -34 154.5t-102 41.5zM312 577l-172 104l48 73l160 -122z" />
    <glyph glyph-name="oacute" unicode="&#xf3;" horiz-adv-x="542" 
d="M269 -14q-116 0 -169.5 60.5t-53.5 203.5q0 140 59 202t169 62t166 -61t56 -202q0 -265 -227 -265zM272 446q-63 0 -100.5 -43t-37.5 -153q0 -106 34 -151t103 -45q62 0 99.5 46.5t37.5 149.5q0 113 -34 154.5t-102 41.5zM383 681l-172 -104l-36 55l160 122z" />
    <glyph glyph-name="ocircumflex" unicode="&#xf4;" horiz-adv-x="542" 
d="M269 -14q-116 0 -169.5 60.5t-53.5 203.5q0 140 59 202t169 62t166 -61t56 -202q0 -265 -227 -265zM272 446q-63 0 -100.5 -43t-37.5 -153q0 -106 34 -151t103 -45q62 0 99.5 46.5t37.5 149.5q0 113 -34 154.5t-102 41.5zM278 667l-85 -86l-48 36l99 110h65l100 -110
l-51 -36z" />
    <glyph glyph-name="otilde" unicode="&#xf5;" horiz-adv-x="542" 
d="M267 -14q-116 0 -169.5 60.5t-53.5 203.5q0 140 59 202t169 62t166 -61t56 -202q0 -265 -227 -265zM270 446q-63 0 -100.5 -43t-37.5 -153q0 -106 34 -151t103 -45q62 0 99.5 46.5t37.5 149.5q0 113 -34 154.5t-102 41.5zM143 593l-44 37q19 30 45 50.5t52 20.5
q22 0 68.5 -21.5t66.5 -21.5q19 0 56 42l43 -36q-20 -34 -50 -55.5t-57 -21.5q-23 0 -67 21.5t-63 21.5t-50 -37z" />
    <glyph glyph-name="odieresis" unicode="&#xf6;" horiz-adv-x="542" 
d="M267 -14q-116 0 -169.5 60.5t-53.5 203.5q0 140 59 202t169 62t166 -61t56 -202q0 -265 -227 -265zM270 446q-63 0 -100.5 -43t-37.5 -153q0 -106 34 -151t103 -45q62 0 99.5 46.5t37.5 149.5q0 113 -34 154.5t-102 41.5zM136 601v104h83v-104h-83zM316 601v104h83v-104
h-83z" />
    <glyph glyph-name="divide" unicode="&#xf7;" horiz-adv-x="502" 
d="M252 206q23 0 39.5 -16t16.5 -39q0 -24 -16.5 -41.5t-39.5 -17.5q-25 0 -42 17.5t-17 41.5q0 23 17 39t42 16zM454 239h-406v79h406v-79zM252 469q23 0 39.5 -16t16.5 -39q0 -24 -16.5 -41.5t-39.5 -17.5q-25 0 -42 17.5t-17 41.5q0 23 17 39t42 16z" />
    <glyph glyph-name="oslash" unicode="&#xf8;" horiz-adv-x="541" 
d="M267 -14q-50 0 -87 10l-36 -71l-63 32l36 70q-73 60 -73 223q0 140 59 202t169 62q52 0 91 -13l34 65l63 -29l-36 -70q70 -64 70 -216q0 -265 -227 -265zM270 446q-63 0 -100.5 -43t-37.5 -153q0 -94 27 -141l171 327q-26 10 -60 10zM406 250q0 89 -24 137l-167 -325
q26 -8 54 -8q62 0 99.5 46.5t37.5 149.5z" />
    <glyph glyph-name="ugrave" unicode="&#xf9;" horiz-adv-x="535" 
d="M461 502v-479q-104 -37 -212 -37q-192 0 -192 180v336h84v-331q0 -65 34 -90.5t100 -25.5q49 0 102 17v430h84zM315 577l-172 104l48 73l160 -122z" />
    <glyph glyph-name="uacute" unicode="&#xfa;" horiz-adv-x="535" 
d="M461 502v-479q-104 -37 -212 -37q-192 0 -192 180v336h84v-331q0 -65 34 -90.5t100 -25.5q49 0 102 17v430h84zM402 681l-172 -104l-36 55l160 122z" />
    <glyph glyph-name="ucircumflex" unicode="&#xfb;" horiz-adv-x="535" 
d="M461 502v-479q-104 -37 -212 -37q-192 0 -192 180v336h84v-331q0 -65 34 -90.5t100 -25.5q49 0 102 17v430h84zM267 667l-85 -86l-48 36l99 110h65l100 -110l-51 -36z" />
    <glyph glyph-name="udieresis" unicode="&#xfc;" horiz-adv-x="535" 
d="M461 502v-479q-104 -37 -212 -37q-192 0 -192 180v336h84v-331q0 -65 34 -90.5t100 -25.5q49 0 102 17v430h84zM132 601v104h83v-104h-83zM312 601v104h83v-104h-83z" />
    <glyph glyph-name="yacute" unicode="&#xfd;" horiz-adv-x="458" 
d="M191 -5h-24l-175 507h89l139 -423l126 422h89l-152 -468q-36 -127 -88 -182t-130 -55q-35 0 -69 14l10 58q24 -6 54 -6q51 0 86 40t45 93zM336 681l-172 -104l-36 55l160 122z" />
    <glyph glyph-name="thorn" unicode="&#xfe;" horiz-adv-x="545" 
d="M151 412v-337q42 -17 109 -17q153 0 153 203q0 180 -138 180q-55 0 -124 -29zM68 -215v915h83v-213q73 27 135 27q98 0 156 -61.5t58 -190.5q0 -58 -12 -105.5t-39 -87t-75.5 -61.5t-115.5 -22q-57 0 -107 13v-214h-83z" />
    <glyph glyph-name="ydieresis" unicode="&#xff;" horiz-adv-x="458" 
d="M191 -5h-24l-175 507h89l139 -423l126 422h89l-152 -468q-36 -127 -88 -182t-130 -55q-35 0 -69 14l10 58q24 -6 54 -6q51 0 86 40t45 93zM88 601v104h83v-104h-83zM268 601v104h83v-104h-83z" />
    <glyph glyph-name="dotlessi" unicode="&#x131;" horiz-adv-x="225" 
d="M158 502v-502h-91v502h91z" />
    <glyph glyph-name="Lslash" unicode="&#x141;" horiz-adv-x="486" 
d="M214 81h250v-81h-346v315h-96v79h96v274h96v-274h193v-79h-193v-234z" />
    <glyph glyph-name="lslash" unicode="&#x142;" horiz-adv-x="427" 
d="M416 394v-79h-207v-213q0 -39 36 -39q28 0 59 10l15 -66q-41 -20 -101 -20q-100 0 -100 114v214h-87v79h87v306h91v-306h207z" />
    <glyph glyph-name="OE" unicode="&#x152;" horiz-adv-x="900" 
d="M449 73l-2 524q-54 21 -121 21q-186 0 -186 -284q0 -142 47 -210.5t144 -68.5q60 0 118 18zM852 0h-392q-71 -16 -133 -16q-149 0 -212.5 91t-63.5 259q0 164 66.5 258t211.5 94q69 0 133 -17h379v-74h-305v-214h288v-73h-288v-234h316v-74z" />
    <glyph glyph-name="oe" unicode="&#x153;" horiz-adv-x="879" 
d="M456 425q58 88 175 88q101 0 152 -50t51 -140q0 -32 -8 -77h-330q0 -100 46 -144.5t136 -44.5q70 0 128 25l11 -69q-69 -27 -171 -27q-69 0 -121.5 25.5t-75.5 69.5q-52 -95 -180 -95q-118 0 -170.5 60t-52.5 204q0 140 58 202t170 62q134 0 182 -89zM272 442
q-65 0 -101.5 -41.5t-36.5 -150.5q0 -105 33 -148.5t104 -43.5q137 0 137 192q0 111 -33 151.5t-103 40.5zM634 447q-37 0 -65.5 -16t-42.5 -39.5t-21 -43.5t-7 -36h249q1 6 1 18q0 56 -30.5 86.5t-83.5 30.5z" />
    <glyph glyph-name="Scaron" unicode="&#x160;" horiz-adv-x="515" 
d="M42 29l20 75q92 -41 179 -41q145 0 145 112q0 28 -10.5 49t-34.5 36.5t-44 24.5t-58 22q-98 35 -145 75t-47 113q0 99 64 141.5t164 42.5q75 0 167 -23l-18 -70q-85 23 -149 23q-135 0 -135 -101q0 -50 36 -76.5t108 -51.5q100 -36 147.5 -78.5t47.5 -116.5
q0 -101 -70 -149.5t-175 -48.5q-100 0 -192 42zM255 787l91 93l46 -39l-103 -114h-66l-104 114l46 39z" />
    <glyph glyph-name="scaron" unicode="&#x161;" horiz-adv-x="417" 
d="M37 24l23 66q66 -27 132 -27q49 0 76 20.5t27 49.5q0 32 -25.5 53t-61.5 33.5t-72 26.5t-61.5 44.5t-25.5 76.5q0 68 48.5 108.5t130.5 40.5q77 0 133 -27l-17 -63q-51 17 -109 17q-102 0 -102 -69q0 -31 25.5 -51t61.5 -32t72.5 -26.5t62 -44.5t25.5 -75q0 -66 -49 -112
t-142 -46q-43 0 -86.5 11t-65.5 26zM211 632l91 93l46 -39l-103 -114h-66l-104 114l46 39z" />
    <glyph glyph-name="Ydieresis" unicode="&#x178;" horiz-adv-x="553" 
d="M156 736v104h83v-104h-83zM336 736v104h83v-104h-83zM3 668h100l176 -306l176 306h93l-226 -393v-275h-90v275z" />
    <glyph glyph-name="Zcaron" unicode="&#x17d;" horiz-adv-x="557" 
d="M276 787l91 93l46 -39l-103 -114h-66l-104 114l46 39zM520 74v-74h-475l-7 62l354 532h-339l-12 74h446l8 -66l-351 -528h376z" />
    <glyph glyph-name="zcaron" unicode="&#x17e;" horiz-adv-x="458" 
d="M423 70v-70h-385l-10 59l274 374h-244l-12 69h349l8 -62l-273 -370h293zM223 632l91 93l46 -39l-103 -114h-66l-104 114l46 39z" />
    <glyph glyph-name="florin" unicode="&#x192;" horiz-adv-x="538" 
d="M227 -59v494h-98v67h98v40q0 97 45 138t136 41q44 0 112 -11l-13 -66q-60 7 -103 7q-49 0 -71 -22t-22 -84v-43h149v-67h-149v-491q0 -97 -45 -138t-136 -41q-44 0 -112 11l13 66q60 -7 103 -7q49 0 71 22t22 84z" />
    <glyph glyph-name="circumflex" unicode="&#x2c6;" horiz-adv-x="384" 
d="M193 667l-85 -86l-48 36l99 110h65l100 -110l-51 -36z" />
    <glyph glyph-name="caron" unicode="&#x2c7;" horiz-adv-x="432" 
d="M223 632l91 93l46 -39l-103 -114h-66l-104 114l46 39z" />
    <glyph glyph-name="breve" unicode="&#x2d8;" horiz-adv-x="336" 
d="M119 670q0 -50 48 -50q50 0 50 50h59q0 -43 -28 -73.5t-81 -30.5q-54 0 -80.5 30t-26.5 74h59z" />
    <glyph glyph-name="dotaccent" unicode="&#x2d9;" horiz-adv-x="163" 
d="M40 601v104h83v-104h-83z" />
    <glyph glyph-name="ring" unicode="&#x2da;" horiz-adv-x="335" 
d="M266 691q0 -43 -27 -73.5t-77 -30.5t-76 30t-26 73t26.5 72.5t76.5 29.5t76.5 -29t26.5 -72zM207 691q0 19 -10.5 33t-33.5 14q-22 0 -33 -14t-11 -34t10.5 -34.5t32.5 -14.5q23 0 34 15t11 35z" />
    <glyph glyph-name="ogonek" unicode="&#x2db;" horiz-adv-x="332" 
d="M123 -13h82q-53 -56 -53 -95q0 -35 42 -35q23 0 58 13l13 -70q-49 -21 -93 -21q-47 0 -77.5 23.5t-30.5 60.5q0 65 59 124z" />
    <glyph glyph-name="tilde" unicode="&#x2dc;" horiz-adv-x="515" 
d="M138 593l-44 37q19 30 45 50.5t52 20.5q22 0 68.5 -21.5t66.5 -21.5q19 0 56 42l43 -36q-20 -34 -50 -55.5t-57 -21.5q-23 0 -67 21.5t-63 21.5t-50 -37z" />
    <glyph glyph-name="hungarumlaut" unicode="&#x2dd;" horiz-adv-x="503" 
d="M258 666l-144 -140l-47 45l128 155zM437 662l-144 -140l-47 45l128 156z" />
    <glyph glyph-name="endash" unicode="&#x2013;" horiz-adv-x="556" 
d="M493 318v-79h-430v79h430z" />
    <glyph glyph-name="emdash" unicode="&#x2014;" horiz-adv-x="836" 
d="M773 318v-79h-710v79h710z" />
    <glyph glyph-name="quoteleft" unicode="&#x2018;" horiz-adv-x="223" 
d="M52 532q0 105 89 187h83q-82 -95 -82 -172q0 -33 17 -72h-95q-12 26 -12 57z" />
    <glyph glyph-name="quoteright" unicode="&#x2019;" horiz-adv-x="255" 
d="M215 643q0 -105 -89 -187h-83q82 95 82 172q0 33 -17 72h95q12 -26 12 -57z" />
    <glyph glyph-name="quotesinglbase" unicode="&#x201a;" horiz-adv-x="220" 
d="M163 59q0 -105 -89 -187h-83q82 95 82 172q0 33 -17 72h95q12 -26 12 -57z" />
    <glyph glyph-name="quotedblleft" unicode="&#x201c;" horiz-adv-x="393" 
d="M222 532q0 105 89 187h83q-82 -95 -82 -172q0 -33 17 -72h-95q-12 26 -12 57zM52 532q0 105 89 187h83q-82 -95 -82 -172q0 -33 17 -72h-95q-12 26 -12 57z" />
    <glyph glyph-name="quotedblright" unicode="&#x201d;" horiz-adv-x="425" 
d="M215 643q0 -105 -89 -187h-83q82 95 82 172q0 33 -17 72h95q12 -26 12 -57zM385 643q0 -105 -89 -187h-83q82 95 82 172q0 33 -17 72h95q12 -26 12 -57z" />
    <glyph glyph-name="quotedblbase" unicode="&#x201e;" horiz-adv-x="390" 
d="M163 59q0 -105 -89 -187h-83q82 95 82 172q0 33 -17 72h95q12 -26 12 -57zM333 59q0 -105 -89 -187h-83q82 95 82 172q0 33 -17 72h95q12 -26 12 -57z" />
    <glyph glyph-name="dagger" unicode="&#x2020;" horiz-adv-x="428" 
d="M399 480v-88l-162 15l25 -407h-106l25 407l-152 -15v88l152 -15l-27 204h110l-27 -204z" />
    <glyph glyph-name="daggerdbl" unicode="&#x2021;" horiz-adv-x="435" 
d="M262 341l-21 -126l143 13v-78l-143 13l24 -163h-94l23 163l-143 -13v78l143 -13l-20 126l20 118l-143 -13v79l143 -14l-23 163h94l-24 -163l143 14v-79l-143 13z" />
    <glyph glyph-name="bullet" unicode="&#x2022;" horiz-adv-x="371" 
d="M69 323q0 50 33.5 83.5t82.5 33.5q50 0 83.5 -33.5t33.5 -83.5t-33.5 -83.5t-83.5 -33.5q-49 0 -82.5 33.5t-33.5 83.5z" />
    <glyph glyph-name="ellipsis" unicode="&#x2026;" horiz-adv-x="662" 
d="M60 0v110h110v-110h-110zM284 0v110h110v-110h-110zM284 0v110h110v-110h-110zM506 0v110h110v-110h-110z" />
    <glyph glyph-name="perthousand" unicode="&#x2030;" horiz-adv-x="1121" 
d="M174 327q-71 0 -105.5 37t-34.5 142t36 143t107 38t105.5 -38t34.5 -142q0 -105 -35.5 -142.5t-107.5 -37.5zM175 632q-36 0 -52.5 -28.5t-16.5 -96.5t16.5 -96t52.5 -28t52.5 28t16.5 96q0 67 -17 96t-52 29zM594 -7q-71 0 -105.5 37t-34.5 142t36 143t107 38t105.5 -38
t34.5 -142q0 -105 -35.5 -142.5t-107.5 -37.5zM595 298q-35 0 -51.5 -28.5t-16.5 -96.5t16.5 -96t51.5 -28q36 0 52.5 28t16.5 96t-16.5 96.5t-52.5 28.5zM258 0h-92l362 701h91zM944 -7q-71 0 -105.5 37t-34.5 142t36 143t107 38t105.5 -38t34.5 -142q0 -105 -35.5 -142.5
t-107.5 -37.5zM945 298q-35 0 -51.5 -28.5t-16.5 -96.5t16 -96t52 -28t52.5 28t16.5 96t-16.5 96.5t-52.5 28.5z" />
    <glyph glyph-name="guilsinglleft" unicode="&#x2039;" horiz-adv-x="325" 
d="M276 431l-149 -154l149 -153l-58 -51l-171 180v48l171 180z" />
    <glyph glyph-name="guilsinglright" unicode="&#x203a;" horiz-adv-x="321" 
d="M194 308l-148 154l58 50l171 -180v-48l-171 -180l-58 51z" />
    <glyph glyph-name="fraction" unicode="&#x2044;" horiz-adv-x="402" 
d="M397 684l-317 -748l-75 26l319 748z" />
    <glyph glyph-name="Euro" unicode="&#x20ac;" horiz-adv-x="617" 
d="M210 339q0 -156 52.5 -218t156.5 -62q56 0 149 16l9 -70q-79 -19 -167 -19q-154 0 -224 95.5t-70 256.5q0 79 16.5 140t43.5 99t65.5 62t79 33.5t86.5 9.5q95 0 174 -26l-15 -68q-76 22 -156 22q-94 0 -147 -61.5t-53 -209.5zM40 449h372v-64h-372v64zM412 235h-372v64
h372v-64z" />
    <glyph glyph-name="trademark" unicode="&#x2122;" horiz-adv-x="752" 
d="M144 616h-96v48h246v-48h-97v-323h-53v323zM511 389l-100 275h-62l-18 -371h49l9 264v46l102 -269h41l101 269v-46l9 -264h50l-18 371h-62z" />
    <glyph glyph-name="minus" unicode="&#x2212;" horiz-adv-x="504" 
d="M441 310v-61h-378v61h378z" />
    <glyph glyph-name="CR" horiz-adv-x="435" 
 />
    <glyph glyph-name="plus.001" horiz-adv-x="484" 
d="M281 85h-79v154h-152v79h152v152h79v-152h153v-79h-153v-154z" />
    <glyph glyph-name="asterisk.001" horiz-adv-x="334" 
d="M218 539l102 -45l-41 -66l-83 66l9 -112h-77l9 114l-84 -68l-39 67l102 42l-102 42l38 69l85 -67l-9 112h77l-8 -112l83 67l40 -69z" />
    <glyph glyph-name="percent" horiz-adv-x="859" 
d="M202 327q-71 0 -105.5 37t-34.5 142t36 143t107 38t105.5 -38t34.5 -142q0 -105 -35.5 -142.5t-107.5 -37.5zM203 632q-36 0 -52.5 -28.5t-16.5 -96.5t16.5 -96t52.5 -28t52.5 28t16.5 96q0 67 -17 96t-52 29zM622 -7q-71 0 -105.5 37t-34.5 142t36 143t107 38t105.5 -38
t34.5 -142q0 -105 -35.5 -142.5t-107.5 -37.5zM623 298q-35 0 -51.5 -28.5t-16.5 -96.5t16.5 -96t51.5 -28q36 0 52.5 28t16.5 96t-16.5 96.5t-52.5 28.5zM286 0h-92l362 701h91z" />
    <glyph glyph-name="_0127" 
 />
    <glyph glyph-name="_0129" 
 />
    <glyph glyph-name="_0007" 
 />
    <glyph glyph-name="_0009" 
 />
    <glyph glyph-name="_0141" 
 />
    <glyph glyph-name="_0142" 
 />
    <glyph glyph-name="_0143" 
 />
    <glyph glyph-name="_0144" 
 />
    <glyph glyph-name="_0157" 
 />
    <glyph glyph-name="_0158" 
 />
    <glyph glyph-name="g.alt" horiz-adv-x="536" 
d="M384 71v359q-49 12 -91 12q-76 0 -118.5 -42t-42.5 -141q0 -103 36 -155.5t116 -52.5q58 0 100 20zM471 481v-500q0 -208 -219 -208q-79 0 -178 29l10 73q90 -29 174 -29q60 0 93 30.5t33 108.5v20q-41 -21 -107 -21q-72 0 -120.5 22t-72 63.5t-32 85.5t-8.5 105
q0 251 245 251q96 0 182 -30z" />
    <glyph glyph-name="y.alt" horiz-adv-x="526" 
d="M251 -154q60 0 93 30.5t33 108.5v15q-47 -19 -95 -19q-127 0 -179.5 74t-52.5 209q0 139 57 238h91q-28 -39 -45.5 -104.5t-17.5 -131.5q0 -218 152 -218q51 0 91 17v437h84v-521q0 -208 -217 -208q-76 0 -178 30l10 72q85 -29 174 -29z" />
    <glyph glyph-name="r.alt" horiz-adv-x="355" 
d="M345 501l-12 -61q-31 6 -63 6q-65 0 -118 -30v-416h-84v457q89 52 201 52q39 0 76 -8z" />
    <glyph glyph-name="i.alt" horiz-adv-x="225" 
d="M49 502h83v-402q0 -46 31 -46q29 0 57 11l9 -62q-52 -17 -83 -17q-33 0 -54.5 10.5t-29.5 30t-10.5 33.5t-2.5 33v409zM49 601v104h83v-104h-83z" />
    <glyph glyph-name="a.alt" horiz-adv-x="523" 
d="M456 -15q-55 0 -68 43q-64 -40 -131 -40q-214 0 -214 257q0 143 68.5 204t178.5 61q87 0 171 -29v-381q0 -26 5 -37t20 -11q11 0 33 8l14 -52q-32 -23 -77 -23zM375 87v341q-43 13 -85 13q-72 0 -115.5 -47.5t-43.5 -154.5q0 -89 33.5 -135t108.5 -46q55 0 102 29z" />
    </font>
</defs>
</svg>
