<?xml version="1.0" standalone="no"?>
<!DOCTYPE svg PUBLIC "-//W3C//DTD SVG 1.1//EN" "http://www.w3.org/Graphics/SVG/1.1/DTD/svg11.dtd" >
<svg xmlns="http://www.w3.org/2000/svg" xmlns:xlink="http://www.w3.org/1999/xlink" version="1.1">
<metadata>
Created by FontForge 20170731 at Wed Oct 15 04:43:56 2014
 By Aleksey,,,
Copyright (c) 2013 by Marti'n Sommaruga. All rights reserved.
</metadata>
<defs>
<font id="Amelia-Basic-OblicuaBlack" horiz-adv-x="0" >
  <font-face 
    font-family="Amelia-Basic-OblicuaBlack"
    font-weight="400"
    font-style="oblique"
    font-stretch="normal"
    units-per-em="1000"
    panose-1="2 0 5 3 4 0 0 2 0 4"
    ascent="757"
    descent="-243"
    x-height="519"
    cap-height="668"
    bbox="-184 -302 1152.22 940"
    underline-thickness="50"
    underline-position="-150"
    unicode-range="U+0020-FB02"
  />
<missing-glyph horiz-adv-x="485" 
 />
    <glyph glyph-name="fi" unicode="fi" horiz-adv-x="598" 
d="M580 518l-63 -518h-167l49 402h-120l-49 -402h-167l49 402h-85l14 115h86l2 16q13 106 76 154t185 48q67 0 148 -29l-43 -123q-82 21 -114 21q-78 0 -88 -83v-3h287z" />
    <glyph glyph-name="fl" unicode="fl" horiz-adv-x="705" 
d="M649 694l-66 -532q-4 -42 29 -42q29 0 62 14v-118q-64 -28 -117 -28q-57 0 -91 16t-44 41.5t-12.5 57.5t4.5 64l53 431q-29 9 -77 9q-53 0 -72.5 -22t-24.5 -64v-3h132l-25 -116h-121l-49 -402h-167l49 402h-85l14 115h86l2 16q26 210 273 210q113 0 247 -49z" />
    <glyph glyph-name=".notdef" horiz-adv-x="485" 
 />
    <glyph glyph-name=".null" 
 />
    <glyph glyph-name="nonmarkingreturn" horiz-adv-x="333" 
 />
    <glyph glyph-name="space" unicode=" " horiz-adv-x="180" 
 />
    <glyph glyph-name="exclam" unicode="!" horiz-adv-x="255" 
d="M269 701l-81 -492h-146l46 492h181zM195 162l-19 -162h-171l19 162h171z" />
    <glyph glyph-name="quotedbl" unicode="&#x22;" horiz-adv-x="408" 
d="M84 699h156l-49 -265h-121zM266 699h156l-50 -265h-119z" />
    <glyph glyph-name="numbersign" unicode="#" horiz-adv-x="623" 
d="M324 291l21 68h-57l-20 -68h56zM571 166h-143l-51 -178h-140l51 178h-56l-52 -178h-140l51 178h-73l15 125h94l21 68h-100l15 124h120l55 185h140l-54 -185h56l55 185h140l-54 -185h89l-15 -124h-110l-20 -68h121z" />
    <glyph glyph-name="dollar" unicode="$" horiz-adv-x="489" 
d="M137 -107l16 99q-94 12 -162 48l59 140q96 -50 166 -50q64 0 72 58q3 30 -19.5 51.5t-70.5 47.5q-40 21 -60 34.5t-44 38t-31.5 58t-2.5 78.5q9 68 56.5 115t119.5 63l10 108h123l-16 -105q55 -8 134 -39l-60 -129q-92 35 -138 35q-55 0 -62 -52q-2 -21 11.5 -35
t43.5 -32q17 -10 24 -15q30 -19 45.5 -29.5t41 -32.5t38 -42t20.5 -50t4 -64q-9 -74 -58.5 -127t-126.5 -70l-10 -102h-123z" />
    <glyph glyph-name="uni0025" unicode="%" horiz-adv-x="805" 
d="M279 0h-158l417 691h157zM180 312q-31 0 -53 4.5t-41.5 17t-28 34t-13.5 55t3 81.5q14 112 60.5 153.5t122.5 41.5q80 0 113.5 -40.5t20.5 -153.5q-14 -112 -60 -152.5t-124 -40.5zM218 611q-19 0 -28.5 -21.5t-17.5 -85.5q-7 -66 -3 -85.5t22 -19.5q19 0 28.5 20.5
t16.5 84.5q8 65 4.5 86t-22.5 21zM588 -9q-81 0 -114 39.5t-19 152.5q14 112 60.5 153.5t123.5 41.5q80 0 112.5 -40.5t18.5 -153.5q-14 -112 -59.5 -152.5t-122.5 -40.5zM626 290q-19 0 -28 -21t-17 -86q-8 -66 -4 -85.5t23 -19.5t28 20.5t17 84.5q6 43 5.5 66.5t-6 32
t-18.5 8.5z" />
    <glyph glyph-name="ampersand" unicode="&#x26;" horiz-adv-x="729" 
d="M18 192q16 133 172 205q-38 65 -32 123q10 76 64.5 120.5t140.5 44.5q78 0 120 -38.5t34 -106.5q-12 -96 -136 -167l36 -43q8 -10 25.5 -31.5t32.5 -40.5q39 60 61 163h147q-28 -158 -120 -270q66 -56 135 -84l-72 -106q-93 33 -170 93q-89 -67 -216 -67
q-117 0 -175.5 52t-46.5 153zM377 149l-122 153q-35 -15 -57 -43.5t-26 -60.5q-5 -37 17.5 -63t70.5 -26q62 0 117 40zM303 528q-3 -29 13 -64q44 35 48 81q5 36 -20 36q-16 0 -27 -16t-14 -37z" />
    <glyph glyph-name="quotesingle" unicode="'" horiz-adv-x="226" 
d="M84 699h156l-49 -265h-121z" />
    <glyph glyph-name="parenleft" unicode="(" horiz-adv-x="315" 
d="M29 311q25 212 220 449l97 -78q-136 -203 -157 -371q-22 -172 66 -372l-116 -77q-137 238 -110 449z" />
    <glyph glyph-name="parenright" unicode=")" horiz-adv-x="315" 
d="M290 311q-27 -210 -221 -449l-97 77q135 198 157 372q21 169 -66 371l116 78q136 -240 111 -449z" />
    <glyph glyph-name="asterisk" unicode="*" horiz-adv-x="403" 
d="M311 520l84 -32l-78 -109l-52 56l7 -80h-129l26 82l-67 -59l-48 113l90 29l-82 30l74 116l54 -60l-6 80h128l-26 -80l67 58l50 -114z" />
    <glyph glyph-name="plus" unicode="+" horiz-adv-x="478" 
d="M282 75h-140l17 141h-136l16 129h136l17 140h140l-17 -140h136l-16 -129h-136z" />
    <glyph glyph-name="comma" unicode="," horiz-adv-x="245" 
d="M177 69q-13 -103 -115 -192h-134q99 108 107 177q4 27 -11 82h145q11 -34 8 -67z" />
    <glyph glyph-name="hyphen" unicode="-" horiz-adv-x="501" 
d="M462 344l-16 -128h-411l16 128h411z" />
    <glyph glyph-name="period" unicode="." horiz-adv-x="241" 
d="M189 162l-19 -162h-171l19 162h171z" />
    <glyph glyph-name="slash" unicode="/" horiz-adv-x="433" 
d="M468 724l-369 -843l-129 39l371 845z" />
    <glyph glyph-name="zero" unicode="0" horiz-adv-x="565" 
d="M241 -12q-68 0 -109.5 16t-68 55t-29 105.5t7.5 167.5q24 197 90 273t199 76q134 0 179.5 -74t21.5 -272q-24 -196 -90 -271.5t-201 -75.5zM312 543q-45 0 -67 -44t-36 -165q-15 -122 -4 -165.5t56 -43.5t67 44t37 165q14 122 3 165.5t-56 43.5z" />
    <glyph glyph-name="one" unicode="1" horiz-adv-x="394" 
d="M302 1h-167l62 510l-141 -36l-15 103l218 90h125z" />
    <glyph glyph-name="two" unicode="2" horiz-adv-x="510" 
d="M237 132h226l-16 -132h-459l13 106q12 9 60.5 46.5t70 55t62 54.5t61 63.5t39 62t22.5 68.5q11 92 -72 92q-54 0 -140 -44l-19 122q92 55 203 55q95 0 151.5 -48t43.5 -154q-9 -76 -70.5 -169.5t-175.5 -177.5z" />
    <glyph glyph-name="three" unicode="3" horiz-adv-x="506" 
d="M305 484q4 32 -14 47t-49 15q-59 0 -149 -38l-19 124q96 48 216 48q96 0 142.5 -49t36.5 -132q-5 -37 -26.5 -73.5t-58.5 -60.5q92 -51 78 -155q-13 -104 -83 -163t-179 -59q-111 0 -209 40l50 132q89 -36 165 -36q83 0 95 88q5 39 -15.5 62t-65.5 23h-92l14 112h62
q27 0 44.5 3.5t35 21t21.5 50.5z" />
    <glyph glyph-name="four" unicode="4" horiz-adv-x="592" 
d="M541 170h-88l-20 -170h-164l20 170h-278l11 85l311 413h182l-48 -383h88zM303 285l20 158l-114 -158h94z" />
    <glyph glyph-name="five" unicode="5" horiz-adv-x="513" 
d="M-8 26l51 128q86 -30 138 -30q55 0 89.5 27t39.5 73q5 39 -12 67.5t-66 28.5q-39 0 -120 -28l-43 48l41 329h389l-17 -135h-237l-11 -91q20 2 57 2q100 0 149.5 -55t36.5 -161q-14 -109 -99 -173t-200 -64q-105 0 -186 34z" />
    <glyph glyph-name="six" unicode="6" horiz-adv-x="520" 
d="M226 -11q-227 0 -192 296q24 191 115.5 293t221.5 102q65 0 139 -33l-53 -125q-51 17 -95 17q-79 0 -119 -91q33 10 86 10q83 0 126 -55.5t29 -166.5q-13 -106 -80 -176.5t-178 -70.5zM265 323q-23 0 -54 -11q-3 -11 -5 -31q-19 -157 39 -157q62 0 75 112q11 87 -55 87z
" />
    <glyph glyph-name="seven" unicode="7" horiz-adv-x="462" 
d="M487 587l-3 -5q-97 -163 -153.5 -276.5t-74.5 -164.5t-43 -141h-161q20 83 35.5 133t68.5 160.5t137 241.5h-245l17 134h432z" />
    <glyph glyph-name="eight" unicode="8" horiz-adv-x="539" 
d="M237 -11q-124 0 -176.5 53.5t-40.5 149.5q6 46 39 90t83 76q-65 52 -54 140q11 89 72.5 136t161.5 47t148 -44.5t37 -127.5q-11 -92 -100 -150q99 -57 85 -164q-10 -88 -73 -147t-182 -59zM332 199q5 38 -21 63t-64 35q-57 -37 -66 -102q-4 -34 15.5 -52.5t52.5 -18.5
q34 0 56.5 21.5t26.5 53.5zM306 549q-57 0 -63 -48q-7 -53 47 -87q25 15 42.5 40.5t19.5 44.5q3 26 -11 38t-35 12z" />
    <glyph glyph-name="nine" unicode="9" horiz-adv-x="521" 
d="M304 680q227 0 192 -296q-25 -202 -114.5 -298.5t-222.5 -96.5q-67 0 -139 33l46 123q63 -15 109 -15q37 0 65 20t49 73q-36 -12 -90 -12q-81 0 -124 55.5t-29 166.5q13 105 80.5 176t177.5 71zM265 346q23 0 54 11l4 31q11 88 0 122.5t-39 34.5q-61 0 -74 -112
q-11 -87 55 -87z" />
    <glyph glyph-name="colon" unicode=":" horiz-adv-x="260" 
d="M234 447l-19 -161h-171l19 161h171zM198 162l-19 -162h-171l19 162h171z" />
    <glyph glyph-name="semicolon" unicode=";" horiz-adv-x="287" 
d="M216 69q-13 -106 -114 -192h-151q98 106 106 177q5 33 -10 82h162q11 -32 7 -67zM259 447l-19 -161h-171l19 161h171z" />
    <glyph glyph-name="less" unicode="&#x3c;" horiz-adv-x="437" 
d="M19 235l12 94l388 193l-19 -148l-192 -91l170 -93l-18 -146z" />
    <glyph glyph-name="equal" unicode="=" horiz-adv-x="481" 
d="M451 440l-16 -127h-384l16 127h384zM427 251l-15 -127h-384l15 127h384z" />
    <glyph glyph-name="greater" unicode="&#x3e;" horiz-adv-x="437" 
d="M414 329l-12 -94l-387 -191l18 146l191 93l-169 91l19 148z" />
    <glyph glyph-name="question" unicode="?" horiz-adv-x="372" 
d="M153 438l8 6q57 48 62 90q4 37 -33.5 58t-106.5 27l41 111q123 -7 195 -58t62 -132q-10 -78 -102 -151q-22 -19 -34.5 -31.5t-27 -36t-20.5 -50.5q-9 -53 -10 -63h-143q0 34 5 76q3 31 22 62t35.5 48t46.5 44zM-27 -1l20 166h171l-20 -166h-171z" />
    <glyph glyph-name="at" unicode="@" horiz-adv-x="770" 
d="M565 69l15 -96q-131 -57 -249 -57q-74 0 -133 21t-101.5 63.5t-60.5 114t-6 166.5q22 180 139.5 289.5t297.5 109.5q161 0 233.5 -85.5t53.5 -236.5q-31 -259 -219 -259q-26 0 -51.5 12.5t-37.5 33.5q-51 -47 -105 -47q-69 0 -107 44.5t-28 124.5q13 107 82 173.5
t160 66.5q59 0 138 -38l-43 -207q-5 -20 -5 -30q-2 -16 3.5 -23t21.5 -7q48 0 68 157q12 100 -32.5 156.5t-146.5 56.5q-122 0 -199.5 -77t-94.5 -212q-9 -74 5 -127t46 -80.5t69 -39.5t82 -12q77 0 205 45zM437 408q-38 0 -67 -38t-37 -96q-9 -74 27 -74q21 0 37 21t22 54
l27 133h-9z" />
    <glyph glyph-name="A" unicode="A" horiz-adv-x="605" 
d="M571 0h-173l-29 153h-168l-63 -153h-178l300 668h182zM347 281l-24 169l-68 -169h92z" />
    <glyph glyph-name="B" unicode="B" horiz-adv-x="566" 
d="M21 13l79 643q120 18 192 18q52 0 93 -8t75 -27t49.5 -55t9.5 -88q-10 -87 -73 -129q94 -44 80 -158q-5 -46 -21.5 -81t-49.5 -67t-93.5 -49t-144.5 -17q-85 0 -196 18zM230 294l-20 -161q12 -2 41 -2q97 0 107 82q5 42 -17 61.5t-75 19.5h-36zM255 545l-16 -132h26
q76 0 85 72q4 32 -12 47.5t-52 15.5q-12 0 -31 -3z" />
    <glyph glyph-name="C" unicode="C" horiz-adv-x="558" 
d="M405 550q-161 0 -187 -211q-8 -64 0.5 -107.5t31 -66t51 -31.5t68.5 -9q33 0 125 10l-8 -129q-97 -18 -169 -18q-69 0 -121.5 16.5t-93.5 54t-57.5 107.5t-4.5 170q12 95 48 164t88.5 107t110 55.5t122.5 17.5q71 0 166 -31l-42 -124q-83 25 -128 25z" />
    <glyph glyph-name="D" unicode="D" horiz-adv-x="624" 
d="M592 328q-13 -101 -47 -170t-85.5 -103.5t-103 -48t-115.5 -13.5q-105 0 -220 19l79 640q128 21 229 21q44 0 79.5 -5.5t70.5 -20t57 -39.5t40 -63.5t20 -91.5t-4 -125zM260 537l-49 -402q13 -1 38 -1q84 0 121 48.5t50 151.5q6 62 3 107.5t-30 72t-81 26.5q-25 0 -52 -3
z" />
    <glyph glyph-name="E" unicode="E" horiz-adv-x="552" 
d="M495 136l-16 -136h-459l82 668h450l-17 -135h-275l-15 -121h260l-16 -132h-260l-18 -144h284z" />
    <glyph glyph-name="F" unicode="F" horiz-adv-x="531" 
d="M535 534h-275l-15 -122h252l-16 -132h-252l-34 -280h-175l82 668h450z" />
    <glyph glyph-name="G" unicode="G" horiz-adv-x="600" 
d="M39 336q14 95 50.5 164t88.5 107t109 55.5t122 17.5q83 0 174 -31l-40 -124q-85 25 -138 25q-162 0 -188 -211q-15 -119 18 -167t105 -48q19 0 40 3l26 213h161l-38 -314q-106 -35 -223 -35q-309 0 -267 345z" />
    <glyph glyph-name="H" unicode="H" horiz-adv-x="646" 
d="M430 414l32 254h174l-82 -668h-174l34 278h-186l-34 -278h-174l82 668h174l-32 -254h186z" />
    <glyph glyph-name="I" unicode="I" horiz-adv-x="287" 
d="M277 668l-82 -668h-175l82 668h175z" />
    <glyph glyph-name="J" unicode="J" horiz-adv-x="274" 
d="M267 668l-73 -587q-15 -127 -73 -183.5t-153 -56.5q-45 0 -106 16l19 124q38 -6 64 -6q42 0 56 25.5t23 98.5l70 569h173z" />
    <glyph glyph-name="K" unicode="K" horiz-adv-x="658" 
d="M277 668l-33 -265h42l178 265h200l-234 -328l194 -340h-206l-146 274h-44l-33 -274h-175l82 668h175z" />
    <glyph glyph-name="L" unicode="L" horiz-adv-x="494" 
d="M465 136l-16 -136h-429l82 668h175l-66 -532h254z" />
    <glyph glyph-name="M" unicode="M" horiz-adv-x="792" 
d="M441 82h-145l-66 291l-61 -373h-164l122 668h187l84 -364l172 364h186l-41 -668h-166l29 372z" />
    <glyph glyph-name="N" unicode="N" horiz-adv-x="691" 
d="M598 0h-175l-189 396l-48 -396h-166l82 668h174l187 -395l49 395h168z" />
    <glyph glyph-name="O" unicode="O" horiz-adv-x="640" 
d="M368 680q69 0 119 -19t75.5 -52t40 -77t13.5 -94.5t-6 -103.5q-9 -72 -28 -128.5t-54.5 -108t-98.5 -80t-149 -28.5q-69 0 -118 19t-75 52t-40.5 77t-13 94t6.5 103q7 57 19.5 104t37 93.5t59.5 78t89 51t123 19.5zM299 130q48 0 78 29t42.5 69.5t20.5 105.5
q6 59 5.5 106t-24 75.5t-71.5 28.5q-36 0 -61.5 -15.5t-41 -47t-23.5 -65t-14 -82.5q-6 -58 -5.5 -103.5t24 -73t70.5 -27.5z" />
    <glyph glyph-name="P" unicode="P" horiz-adv-x="557" 
d="M20 0l80 652q103 23 221 23q56 0 97.5 -9t78.5 -32.5t53 -70.5t7 -116q-14 -111 -84 -165.5t-174 -54.5q-40 0 -76 7l-28 -234h-175zM261 545l-23 -193q13 -2 43 -2q45 0 73 20t35 73q13 106 -83 106q-26 0 -45 -4z" />
    <glyph glyph-name="Q" unicode="Q" horiz-adv-x="655" 
d="M534 -148q-4 4 -11 11.5t-31.5 28t-52 37.5t-71.5 34.5t-91 25.5q-68 0 -117 19.5t-74.5 52t-39.5 76.5t-12.5 94t6.5 103q7 57 19.5 104t37 93.5t59.5 78t89 51t123 19.5t119 -19t75.5 -52t40 -77t13.5 -94.5t-6 -103.5q-11 -89 -48.5 -166.5t-98.5 -119.5
q95 -20 171 -73zM299 130q48 0 78 29t42.5 69.5t20.5 105.5q6 59 5.5 106t-24 75.5t-71.5 28.5q-36 0 -61.5 -15.5t-41 -47t-23.5 -65t-14 -82.5q-6 -58 -5.5 -103.5t24 -73t70.5 -27.5z" />
    <glyph glyph-name="R" unicode="R" horiz-adv-x="586" 
d="M20 0l80 653q105 22 221 22q56 0 97.5 -9t78.5 -32.5t53 -70.5t7 -116q-18 -155 -144 -206l126 -241h-188l-102 223q-15 1 -27 4l-27 -227h-175zM262 547l-25 -203q42 -3 43 -3q45 0 73 21.5t36 80.5q13 106 -83 106q-31 0 -44 -2z" />
    <glyph glyph-name="S" unicode="S" horiz-adv-x="509" 
d="M-6 39l41 139q119 -58 189 -58q74 0 82 65q4 36 -13 54t-61 35q-35 14 -51.5 21t-44 21.5t-40.5 28.5t-27.5 35t-18 47.5t0.5 59.5q12 94 87.5 143.5t179.5 49.5q89 0 181 -37l-44 -133q-27 14 -71 27t-81 13q-78 0 -86 -63q-2 -17 4.5 -30t24 -24.5t31 -18t42.5 -18.5
q30 -13 48 -21.5t43.5 -26.5t38 -37t20.5 -49.5t3 -67.5q-11 -92 -82 -148.5t-171 -56.5q-144 0 -225 50z" />
    <glyph glyph-name="T" unicode="T" horiz-adv-x="541" 
d="M38 534l17 134h524l-17 -134h-177l-65 -534h-175l65 534h-172z" />
    <glyph glyph-name="U" unicode="U" horiz-adv-x="623" 
d="M564 249q-16 -135 -82.5 -197.5t-209.5 -62.5q-138 0 -190.5 62.5t-35.5 197.5l52 419h177l-51 -414q-5 -39 -4 -67t18 -43.5t53 -15.5q51 0 70 28.5t28 97.5l51 414h176z" />
    <glyph glyph-name="V" unicode="V" horiz-adv-x="592" 
d="M177 0l-135 668h174l73 -426l178 426h175l-300 -668h-165z" />
    <glyph glyph-name="W" unicode="W" horiz-adv-x="819" 
d="M375 614h144l71 -345l81 399h162l-152 -668h-187l-76 385l-166 -385h-187l13 668h160l-18 -400z" />
    <glyph glyph-name="X" unicode="X" horiz-adv-x="647" 
d="M602 0h-195l-99 201l-148 -201h-187l263 334l-171 334h188l90 -197l140 197h191l-257 -328z" />
    <glyph glyph-name="Y" unicode="Y" horiz-adv-x="593" 
d="M218 668l94 -246l156 246h178l-266 -402l-32 -266h-174l32 266l-168 402h180z" />
    <glyph glyph-name="Z" unicode="Z" horiz-adv-x="548" 
d="M502 137l-16 -137h-492l12 99l328 434h-273l17 135h471l-13 -103l-324 -428h290z" />
    <glyph glyph-name="bracketleft" unicode="[" horiz-adv-x="353" 
d="M-1 -126l107 872h278l-15 -119l-119 -8l-76 -619l118 -6l-15 -120h-278z" />
    <glyph glyph-name="backslash" unicode="\" horiz-adv-x="435" 
d="M231 -119l-162 843l137 41l165 -845z" />
    <glyph glyph-name="bracketright" unicode="]" horiz-adv-x="353" 
d="M357 746l-107 -872h-278l15 120l120 6l76 619l-119 8l15 119h278z" />
    <glyph glyph-name="asciicircum" unicode="^" horiz-adv-x="505" 
d="M239 644h110l128 -359h-151l-56 162l-97 -162h-150z" />
    <glyph glyph-name="underscore" unicode="_" horiz-adv-x="523" 
d="M457 129l-15 -129h-433l15 129h433z" />
    <glyph glyph-name="grave" unicode="`" horiz-adv-x="357" 
d="M308 570l-213 87l77 135l188 -125z" />
    <glyph glyph-name="a" unicode="a" horiz-adv-x="501" 
d="M461 330l-37 -304q-99 -41 -224 -41q-47 0 -83.5 7t-67.5 24t-45.5 49.5t-8.5 78.5q10 85 66.5 124t135.5 39q54 0 93 -12l4 33q5 39 -11 53t-53 14q-71 0 -137 -22l-13 114q105 41 208 41q198 0 173 -198zM156 148q-4 -31 14 -44t48 -13q26 0 48 7l13 107q-22 9 -46 9
q-67 0 -77 -66z" />
    <glyph glyph-name="b" unicode="b" horiz-adv-x="557" 
d="M261 700l-23 -187q58 14 107 14q97 0 147 -57.5t34 -186.5q-35 -295 -295 -295q-56 0 -120 12t-98 27l82 673h166zM223 387l-33 -265q24 -4 37 -4q60 0 88.5 38.5t36.5 106.5q16 136 -65 136q-31 0 -64 -12z" />
    <glyph glyph-name="c" unicode="c" horiz-adv-x="463" 
d="M245 -12q-111 0 -174.5 67t-47.5 202q17 140 96.5 205t196.5 65q74 0 143 -23l-39 -124q-53 18 -101 18q-56 0 -88 -31.5t-42 -110.5q-10 -81 15.5 -112.5t81.5 -31.5q49 0 123 20l-3 -118q-82 -26 -161 -26z" />
    <glyph glyph-name="d" unicode="d" horiz-adv-x="548" 
d="M550 700l-83 -677q-90 -33 -231 -33q-243 0 -212 260q7 54 24.5 100.5t48.5 87.5t82 64.5t116 23.5q34 0 66 -7l22 181h167zM312 119l34 280q-20 5 -44 5q-43 0 -71 -43.5t-37 -111.5q-16 -136 75 -136q19 0 43 6z" />
    <glyph glyph-name="e" unicode="e" horiz-adv-x="510" 
d="M464 241h-278q-8 -70 19 -98.5t84 -28.5q83 0 148 25l-2 -121q-105 -31 -185 -31q-260 0 -224 285q13 109 82 182t190 73q110 0 154 -57t33 -148q-4 -36 -21 -81zM287 413q-42 0 -62 -27t-23 -59h143q10 86 -58 86z" />
    <glyph glyph-name="f" unicode="f" horiz-adv-x="420" 
d="M528 712l-31 -122q-46 16 -110 16q-36 0 -58 -19.5t-28 -67.5h146l-18 -116h-142l-49 -403h-171l49 403h-89l14 116h90l2 14q13 104 85.5 153.5t174.5 49.5q63 0 135 -24z" />
    <glyph glyph-name="g" unicode="g" horiz-adv-x="510" 
d="M-33 -87q9 76 106 124q-22 26 -17 66q4 37 33 72q-67 57 -55 152q11 90 69 145t161 56l87 -4q91 2 180 18l-1 -98q-57 -14 -102 -14q26 -47 19 -103q-11 -88 -69 -140t-159 -52q-14 0 -34 2q-4 -10 -5 -16q-1 -9 3 -21h116q83 0 125 -39t34 -104q-11 -89 -88.5 -141.5
t-197.5 -52.5q-107 0 -160 38.5t-45 111.5zM252 -26h-93q-34 -11 -40 -48q-4 -37 81 -37q95 0 102 54q2 16 -8.5 23.5t-41.5 7.5zM252 406q-29 0 -41.5 -19.5t-17.5 -60.5q-9 -66 41 -66q51 0 60 66q4 39 -4 59.5t-38 20.5z" />
    <glyph glyph-name="h" unicode="h" horiz-adv-x="563" 
d="M267 706l-24 -195q68 19 132 19q172 0 151 -177l-43 -353h-177l40 329q5 39 -6 52.5t-35 13.5q-31 0 -78 -14l-46 -381h-170l85 695z" />
    <glyph glyph-name="i" unicode="i" horiz-adv-x="256" 
d="M240 519l-63 -519h-170l63 519h170zM77 572l20 166h170l-20 -166h-170z" />
    <glyph glyph-name="j" unicode="j" horiz-adv-x="228" 
d="M57 572l20 166h171l-20 -166h-171zM221 519l-59 -483q-16 -129 -76 -178t-150 -49q-63 0 -120 25l31 128q39 -17 76 -17q57 0 68 90l59 484h171z" />
    <glyph glyph-name="k" unicode="k" horiz-adv-x="584" 
d="M360 0l-126 223h-26l-27 -223h-170l85 697l172 13l-46 -376h27l150 179h181l-199 -230l167 -283h-188z" />
    <glyph glyph-name="l" unicode="l" horiz-adv-x="324" 
d="M294 127v-108q-57 -31 -134 -31q-82 0 -110.5 44.5t-18.5 129.5l66 537h170l-65 -528q-7 -54 45 -54q19 0 47 10z" />
    <glyph glyph-name="m" unicode="m" horiz-adv-x="835" 
d="M11 0l57 466q135 63 261 63q97 0 132 -46q73 46 172 46q187 0 165 -184l-42 -345h-166l40 331q9 72 -47 72q-35 0 -73 -17q0 -20 -3 -41l-42 -345h-163l40 331q9 72 -50 72q-34 0 -68 -15l-47 -388h-166z" />
    <glyph glyph-name="n" unicode="n" horiz-adv-x="553" 
d="M11 0l57 470q46 21 121.5 40t145.5 19q43 0 75 -7.5t60.5 -26t40 -56.5t4.5 -94l-42 -345h-167l40 333q9 73 -47 73q-39 0 -74 -15l-48 -391h-166z" />
    <glyph glyph-name="o" unicode="o" horiz-adv-x="532" 
d="M223 -12q-117 0 -166.5 62t-32.5 207q17 144 84.5 207t185.5 63q122 0 171.5 -61.5t31.5 -207.5q-17 -144 -84.5 -207t-189.5 -63zM279 400q-37 0 -60.5 -29.5t-33.5 -113.5q-18 -143 57 -143t93 143q10 84 -5 113.5t-51 29.5z" />
    <glyph glyph-name="p" unicode="p" horiz-adv-x="554" 
d="M-15 -205l85 691q119 41 237 41q246 0 214 -261q-7 -58 -25 -106t-50 -88t-84 -62t-120 -22q-32 0 -65 6l-25 -199h-167zM226 393l-33 -268q24 -6 44 -6q48 0 77.5 39t37.5 109q17 132 -73 132q-29 0 -53 -6z" />
    <glyph glyph-name="q" unicode="q" horiz-adv-x="549" 
d="M273 -204l26 205q-47 -13 -105 -13q-96 0 -141.5 65t-29.5 195q17 135 87 207t216 72q56 0 111.5 -12t88.5 -30l-86 -700zM314 128l33 267q-15 3 -33 3q-100 0 -119 -146q-9 -75 6 -104.5t50 -29.5q30 0 63 10z" />
    <glyph glyph-name="r" unicode="r" horiz-adv-x="388" 
d="M224 378l-46 -378h-167l63 519h149l-4 -56q56 65 140 65q26 0 53 -8l-35 -132q-40 8 -63 8q-56 0 -90 -18z" />
    <glyph glyph-name="s" unicode="s" horiz-adv-x="441" 
d="M430 494l-39 -129q-23 12 -63 23t-69 11q-51 0 -55 -31q-2 -14 10 -26t24 -18t37 -16q30 -13 47 -22t40 -26.5t32 -42t5 -55.5q-20 -174 -236 -174q-47 0 -98 11.5t-78 26.5l41 123q97 -36 153 -36q50 0 55 34q1 13 -9 24.5t-20.5 17.5t-32.5 17q-29 14 -42 20.5t-36 22
t-33 29.5t-17.5 36.5t-4.5 48.5q20 165 227 165q86 0 162 -34z" />
    <glyph glyph-name="t" unicode="t" horiz-adv-x="408" 
d="M79 171l29 231h-81l14 116h84l14 111l170 15l-16 -125h134l-23 -117h-126l-28 -229q-8 -58 41 -58q25 0 54 10l2 -110q-60 -27 -126 -27q-27 0 -48.5 3.5t-37 9t-26.5 16t-18 18.5t-11 23.5t-5.5 25.5t-0.5 29t2 28.5t3 29.5z" />
    <glyph glyph-name="u" unicode="u" horiz-adv-x="551" 
d="M534 519l-59 -480q-127 -47 -257 -47q-91 0 -144.5 45.5t-40.5 145.5l41 336h167l-40 -326q-5 -41 11 -57.5t47 -19.5q29 0 60 7l48 396h167z" />
    <glyph glyph-name="v" unicode="v" horiz-adv-x="527" 
d="M250 180l128 339h168l-220 -519h-196l-94 519h169z" />
    <glyph glyph-name="w" unicode="w" horiz-adv-x="698" 
d="M314 519h125l31 -298l74 298h167l-169 -519h-166l-29 273l-96 -273h-172l-34 519h167v-298z" />
    <glyph glyph-name="x" unicode="x" horiz-adv-x="575" 
d="M582 519l-197 -252l146 -267h-182l-77 162l-117 -162h-185l218 269l-137 250h185l65 -143l100 143h181z" />
    <glyph glyph-name="y" unicode="y" horiz-adv-x="505" 
d="M149 0h-35l-95 519h165l52 -323l120 323h166l-201 -472q-61 -144 -122.5 -201.5t-153.5 -57.5q-56 0 -104 21l31 121q37 -17 66 -17q74 0 111 87z" />
    <glyph glyph-name="z" unicode="z" horiz-adv-x="476" 
d="M438 115l-14 -115h-424l-4 86l254 317h-193l1 116h389l4 -89l-255 -315h242z" />
    <glyph glyph-name="braceleft" unicode="{" horiz-adv-x="377" 
d="M189 312q36 -38 27 -138l-11 -104q-9 -79 29 -79h82l-14 -121h-106q-71 0 -107.5 46t-29.5 127q1 11 6 67.5t7 83.5q4 23 2.5 44.5t-18.5 21.5h-45l13 104h45q8 0 13 3.5t8 11.5t4.5 14t3.5 18.5t3 18.5q4 25 12.5 77.5t11.5 73.5q13 81 60.5 127t118.5 46h106l-14 -118
h-82q-40 0 -49 -80l-15 -106q-15 -100 -61 -138z" />
    <glyph glyph-name="bar" unicode="|" horiz-adv-x="250" 
d="M10 -41l91 734h146l-91 -734h-146z" />
    <glyph glyph-name="braceright" unicode="}" horiz-adv-x="377" 
d="M192 312q-38 38 -27 138l12 106q9 80 -29 80h-83l14 118h106q71 0 107.5 -46t29.5 -127q-2 -26 -7 -78.5t-7 -72.5q-4 -23 -2.5 -44.5t18.5 -21.5h45l-13 -104h-45q-8 0 -13 -3.5t-8 -11.5t-4.5 -14t-3.5 -18.5t-3 -18.5q-23 -149 -23 -151q-13 -81 -60.5 -127
t-118.5 -46h-106l14 121h83q40 0 49 79l14 104q13 99 61 138z" />
    <glyph glyph-name="asciitilde" unicode="~" horiz-adv-x="554" 
d="M394 325q36 0 74 48l57 -77q-70 -105 -156 -105q-46 0 -116 36q-56 31 -94 31q-41 0 -78 -47l-52 76q71 106 148 106q53 0 123 -37q64 -31 94 -31z" />
    <glyph glyph-name="uni007F" 
 />
    <glyph glyph-name="uni00A0" unicode="&#xa0;" horiz-adv-x="180" 
 />
    <glyph glyph-name="exclamdown" unicode="&#xa1;" horiz-adv-x="247" 
d="M-24 -171l78 492h146l-45 -492h-179zM47 368l20 161h171l-19 -161h-172z" />
    <glyph glyph-name="cent" unicode="&#xa2;" horiz-adv-x="439" 
d="M375 718l-21 -113q37 -5 90 -22l-35 -116q-52 12 -107 12q-46 0 -74.5 -31t-38.5 -111q-10 -83 12 -113.5t71 -30.5q51 0 113 13l-3 -110q-50 -17 -93 -23l-6 -107h-126l22 109q-80 18 -122.5 83.5t-28.5 179.5q14 116 72.5 182t143.5 83l5 115h126z" />
    <glyph glyph-name="sterling" unicode="&#xa3;" horiz-adv-x="515" 
d="M116 294h-84l14 120h49q-4 33 1 72q12 94 72 145.5t153 51.5q72 0 167 -32l-43 -120q-63 25 -125 25q-65 0 -73 -65q-5 -39 1 -77h150l-7 -120h-125q1 -15 -3 -47q-7 -57 -38 -112h242l-16 -135h-431l13 113q32 15 53.5 56.5t26.5 82.5q3 22 3 42z" />
    <glyph glyph-name="currency" unicode="&#xa4;" horiz-adv-x="532" 
d="M74 -41l-80 72l86 99q-31 60 -23 123q8 68 60 130l-60 93l98 72l60 -98q39 12 76 12q35 0 64 -10l83 96l79 -72l-75 -89q39 -61 31 -134q-10 -71 -61 -130l56 -92l-98 -73l-58 98q-28 -10 -72 -10q-47 0 -78 14zM254 158q35 0 62 27t32 68q4 42 -16 68.5t-55 26.5
q-37 0 -63.5 -26.5t-30.5 -68.5q-5 -41 14.5 -68t56.5 -27z" />
    <glyph glyph-name="yen" unicode="&#xa5;" horiz-adv-x="602" 
d="M75 245l12 98h97l-120 325h174l80 -241l138 241h174l-199 -325h97l-12 -98h-135l-5 -39h135l-12 -100h-135l-13 -106h-172l13 106h-134l12 100h134l5 39h-134z" />
    <glyph glyph-name="brokenbar" unicode="&#xa6;" horiz-adv-x="250" 
d="M64 393l37 300h146l-37 -300h-146zM10 -41l37 298h146l-37 -298h-146z" />
    <glyph glyph-name="section" unicode="&#xa7;" horiz-adv-x="399" 
d="M256 479q11 -38 51 -112q42 -79 52 -111q10 -36 5 -71q-5 -44 -28 -80q-24 -36 -66 -62l1 -4q10 -32 5 -67q-4 -42 -27 -81q-27 -46 -88 -75t-121 -30l-16 97l47 15q55 19 60 61q4 16 -4 31q-5 18 -12 35t-20 42.5t-17 33.5q-6 12 -18 34.5t-21 41t-14 37.5q-10 28 -5 73
q5 41 27 77q21 34 66 63q0 1 -0.5 4t-1.5 4q-7 35 -3 65q18 151 227 196l25 -109l-47 -16q-56 -20 -61 -61q-1 -11 4 -31zM148 264q13 -45 53 -115l12 -21q20 20 23 44q1 12 -3 34q-10 41 -65 134q-19 -16 -22 -43q-2 -20 2 -33z" />
    <glyph glyph-name="dieresis" unicode="&#xa8;" horiz-adv-x="361" 
d="M54 605l17 140h140l-17 -140h-140zM241 605l17 140h140l-17 -140h-140z" />
    <glyph glyph-name="copyright" unicode="&#xa9;" horiz-adv-x="690" 
d="M657 303q-16 -134 -118.5 -227t-232.5 -93t-208.5 93t-62.5 227t118 227t232 93t209 -93t63 -227zM564 303q13 106 -40.5 174.5t-147.5 68.5q-95 0 -165.5 -69.5t-84.5 -175.5q-13 -106 40.5 -175.5t148.5 -69.5q94 0 164.5 70.5t84.5 176.5zM390 413q-88 0 -101 -111
q-8 -63 15 -87t67 -24q26 0 76 5l-9 -69q-57 -10 -94 -10q-180 0 -159 183q9 66 42 109t74 58.5t91 15.5q36 0 95 -16l-22 -67q-49 13 -75 13z" />
    <glyph glyph-name="ordfeminine" unicode="&#xaa;" horiz-adv-x="327" 
d="M335 590l-21 -170q-63 -26 -135 -26q-60 0 -96 20.5t-30 70.5q6 48 42.5 70.5t88.5 22.5q16 0 46 -4l2 15q3 22 -6.5 30.5t-30.5 8.5q-28 0 -82 -15l-10 67q82 24 126 24q120 0 106 -114zM153 486q-2 -17 8 -24t27 -7q15 0 28 4l7 60q-13 4 -26 4q-40 0 -44 -37z" />
    <glyph glyph-name="guillemotleft" unicode="&#xab;" horiz-adv-x="590" 
d="M574 419l-144 -141l110 -137l-111 -93l-154 200l7 61l204 199zM324 419l-145 -141l111 -137l-110 -93l-154 200l7 61l203 199z" />
    <glyph glyph-name="logicalnot" unicode="&#xac;" horiz-adv-x="552" 
d="M491 217h-140l13 105h-316l16 128h456z" />
    <glyph glyph-name="uni00AD" unicode="&#xad;" horiz-adv-x="494" 
 />
    <glyph glyph-name="registered" unicode="&#xae;" horiz-adv-x="690" 
d="M657 303q-16 -134 -118.5 -227t-232.5 -93t-208.5 93t-62.5 227t118 227t232 93t209 -93t63 -227zM564 303q13 106 -40.5 174.5t-147.5 68.5q-95 0 -165.5 -69.5t-84.5 -175.5q-13 -106 40.5 -175.5t148.5 -69.5q94 0 164.5 70.5t84.5 176.5zM192 132l41 333
q64 11 123 11q65 0 101.5 -25.5t28.5 -92.5q-8 -78 -77 -106l65 -120h-106l-52 109l-11 2l-13 -111h-100zM326 409l-13 -104q7 -1 22 -1q49 0 55 52q7 54 -42 54q-15 0 -22 -1z" />
    <glyph glyph-name="macron" unicode="&#xaf;" horiz-adv-x="522" 
d="M525 651l-15 -129h-442l15 129h442z" />
    <glyph glyph-name="degree" unicode="&#xb0;" horiz-adv-x="322" 
d="M323 557q-7 -52 -46 -90.5t-101 -38.5t-90.5 37t-22.5 91q6 53 44.5 90t100.5 37q63 0 92 -36.5t23 -89.5zM221 556q4 41 -23 41q-28 0 -32 -43q-6 -41 21 -41q28 0 34 43z" />
    <glyph glyph-name="plusminus" unicode="&#xb1;" horiz-adv-x="501" 
d="M308 181h-142l17 141h-135l16 129h135l17 140h142l-17 -140h135l-16 -129h-135zM435 130l-15 -129h-410l15 129h410z" />
    <glyph glyph-name="twosuperior" unicode="&#xb2;" horiz-adv-x="389" 
d="M206 331h138l-10 -85h-299l8 66l31 25q43 32 72.5 56t60 63t34.5 72q4 30 -8.5 42t-40.5 12q-27 0 -84 -33l-13 83q58 36 134 36q60 0 97 -30.5t29 -95.5q-6 -46 -43 -102.5t-106 -108.5z" />
    <glyph glyph-name="threesuperior" unicode="&#xb3;" horiz-adv-x="372" 
d="M217 546q2 18 -8 25t-31 7q-29 0 -89 -24l-12 84q63 31 138 31q62 0 91.5 -30.5t23.5 -82.5q-6 -51 -51 -82q54 -33 47 -96q-8 -64 -53 -101t-114 -37q-66 0 -132 27l32 87q58 -26 104 -26q45 0 52 52q3 22 -8.5 36t-34.5 14h-63l9 73h44q50 0 55 43z" />
    <glyph glyph-name="acute" unicode="&#xb4;" horiz-adv-x="354" 
d="M351 658l-235 -88l-27 97l219 125z" />
    <glyph glyph-name="mu" unicode="&#xb5;" horiz-adv-x="535" 
d="M184 2l-24 -196h-167l87 713h167l-40 -326q-8 -71 58 -77q31 0 64 7l48 396h167l-58 -477q-30 -17 -97 -34t-126 -17q-47 0 -79 11z" />
    <glyph glyph-name="paragraph" unicode="&#xb6;" horiz-adv-x="500" 
d="M509 583h-65l-91 -739h-107l91 739h-27l-91 -739h-111l61 496q-62 8 -97.5 54.5t-28.5 109.5q9 69 63.5 116.5t122.5 47.5h291z" />
    <glyph glyph-name="periodcentered" unicode="&#xb7;" horiz-adv-x="244" 
d="M214 344l-20 -161h-171l20 161h171z" />
    <glyph glyph-name="cedilla" unicode="&#xb8;" horiz-adv-x="289" 
d="M39 -31h155q11 -42 5 -85q-12 -99 -162 -176l-52 83q60 48 66 89q3 20 -12 89z" />
    <glyph glyph-name="onesuperior" unicode="&#xb9;" horiz-adv-x="321" 
d="M237 247h-113l38 310l-98 -32l-16 74l157 63h83z" />
    <glyph glyph-name="ordmasculine" unicode="&#xba;" horiz-adv-x="342" 
d="M181 395q-70 0 -98.5 35t-18.5 118t49 119t109 36q72 0 100 -35t18 -119q-10 -82 -48.5 -118t-110.5 -36zM213 628q-20 0 -31.5 -16.5t-17.5 -63.5q-6 -45 1.5 -62t26.5 -17t30.5 17t17.5 62q6 47 -1 63.5t-26 16.5z" />
    <glyph glyph-name="guillemotright" unicode="&#xbb;" horiz-adv-x="591" 
d="M158 280l-110 141l110 89l153 -199l-8 -61l-202 -200l-87 93zM409 280l-111 141l109 89l155 -199l-8 -61l-203 -200l-87 93z" />
    <glyph glyph-name="onequarter" unicode="&#xbc;" horiz-adv-x="826" 
d="M670 715l-473 -801l-94 45l476 803zM246 268h-114l39 311l-97 -32l-17 73l157 64h83zM778 104h-63l-12 -104h-113l12 104h-185l7 54l200 258h130l-29 -236h63zM612 180l13 113l-86 -113h73z" />
    <glyph glyph-name="onehalf" unicode="&#xbd;" horiz-adv-x="813" 
d="M670 715l-473 -801l-94 45l476 803zM621 85h139l-10 -85h-300l8 67l32 24q34 25 54.5 41.5t49.5 44t45 54t19 51.5q6 54 -42 54q-33 0 -93 -35l-12 85q60 37 133 37q60 0 97.5 -30.5t29.5 -96.5q-6 -46 -43.5 -102t-106.5 -109zM246 268h-114l39 311l-97 -32l-17 73
l157 64h83z" />
    <glyph glyph-name="threequarters" unicode="&#xbe;" horiz-adv-x="845" 
d="M699 715l-472 -801l-94 45l475 803zM802 104h-63l-12 -104h-113l12 104h-184l7 54l199 258h130l-29 -236h63zM636 180l13 113l-86 -113h73zM211 566q2 18 -8.5 26.5t-30.5 8.5q-37 0 -89 -25l-12 82q65 31 137 31q62 0 92 -31t24 -82t-52 -82q56 -34 47 -96
q-7 -64 -52 -101t-114 -37t-132 27l33 86q60 -25 98 -25q50 0 57 52q5 49 -43 49h-63l9 74h45q14 0 23 2t19 12t12 29z" />
    <glyph glyph-name="questiondown" unicode="&#xbf;" horiz-adv-x="357" 
d="M201 79h-1q-19 -16 -27.5 -24.5t-20.5 -27.5t-14 -38q-8 -71 141 -85l-42 -111q-123 7 -195.5 58t-62.5 132q10 77 103 151q22 18 35 31t27 36.5t20 50.5q0 3 2 12t3 14q1 4 2 11.5t2 15.5t1 10h142q0 -33 -5 -76q-3 -31 -21.5 -62t-35.5 -48.5t-46 -43.5zM320 542
l-19 -162h-171l19 162h171z" />
    <glyph glyph-name="Agrave" unicode="&#xc0;" horiz-adv-x="605" 
d="M535 0h-173l-29 153h-168l-63 -153h-178l300 668h182zM311 281l-24 169l-68 -169h92zM398 715l-213 87l77 135l188 -125z" />
    <glyph glyph-name="Aacute" unicode="&#xc1;" horiz-adv-x="605" 
d="M535 0h-173l-29 153h-168l-63 -153h-178l300 668h182zM311 281l-24 169l-68 -169h92zM481 806l-235 -88l-27 97l219 125z" />
    <glyph glyph-name="Acircumflex" unicode="&#xc2;" horiz-adv-x="605" 
d="M535 0h-173l-29 153h-168l-63 -153h-178l300 668h182zM311 281l-24 169l-68 -169h92zM336 791l-84 -80l-73 71l127 127h91l95 -127l-90 -71z" />
    <glyph glyph-name="Atilde" unicode="&#xc3;" horiz-adv-x="605" 
d="M535 0h-173l-29 153h-168l-63 -153h-178l300 668h182zM311 281l-24 169l-68 -169h92zM401 845q27 0 55 32l51 -66q-18 -30 -53.5 -54t-70.5 -24q-29 0 -66 22t-55 22q-24 0 -60 -40l-47 64q21 34 53.5 60.5t66.5 26.5q31 0 69.5 -21.5t56.5 -21.5z" />
    <glyph glyph-name="Adieresis" unicode="&#xc4;" horiz-adv-x="605" 
d="M535 0h-173l-29 153h-168l-63 -153h-178l300 668h182zM311 281l-24 169l-68 -169h92zM166 734l17 140h140l-17 -140h-140zM353 734l17 140h140l-17 -140h-140z" />
    <glyph glyph-name="Aring" unicode="&#xc5;" horiz-adv-x="605" 
d="M535 0h-173l-29 153h-168l-63 -153h-178l300 668h182zM311 281l-24 169l-68 -169h92zM447 823q-6 -47 -39.5 -79.5t-89.5 -32.5q-55 0 -79.5 32t-18.5 79q6 46 39 78t87 32q56 0 81.5 -31.5t19.5 -77.5zM354 823q4 28 -17 28q-19 0 -23 -29t15 -29q21 0 25 30z" />
    <glyph glyph-name="AE" unicode="&#xc6;" horiz-adv-x="787" 
d="M332 281l21 172l-84 -172h63zM304 -1l19 154h-118l-75 -153h-173l354 668h477l-17 -135h-252l-15 -122h238l-16 -132h-238l-18 -144h260l-17 -136h-409z" />
    <glyph glyph-name="Ccedilla" unicode="&#xc7;" horiz-adv-x="558" 
d="M369 550q-161 0 -187 -211q-8 -64 0.5 -107.5t31 -66t51 -31.5t68.5 -9q33 0 125 10l-8 -129q-97 -18 -169 -18q-69 0 -121.5 16.5t-93.5 54t-57.5 107.5t-4.5 170q12 95 48 164t88.5 107t110 55.5t122.5 17.5q71 0 166 -31l-42 -124q-83 25 -128 25zM201 -41h155
q11 -42 5 -85q-12 -99 -162 -176l-52 83q60 48 66 89q3 20 -12 89z" />
    <glyph glyph-name="Egrave" unicode="&#xc8;" horiz-adv-x="553" 
d="M463 136l-16 -136h-459l82 668h450l-17 -135h-275l-15 -121h260l-16 -132h-260l-18 -144h284zM378 715l-213 87l77 135l188 -125z" />
    <glyph glyph-name="Eacute" unicode="&#xc9;" horiz-adv-x="553" 
d="M463 136l-16 -136h-459l82 668h450l-17 -135h-275l-15 -121h260l-16 -132h-260l-18 -144h284zM459 805l-235 -88l-27 97l219 125z" />
    <glyph glyph-name="Ecircumflex" unicode="&#xca;" horiz-adv-x="553" 
d="M463 136l-16 -136h-459l82 668h450l-17 -135h-275l-15 -121h260l-16 -132h-260l-18 -144h284zM315 791l-84 -80l-73 71l127 127h91l95 -127l-90 -71z" />
    <glyph glyph-name="Edieresis" unicode="&#xcb;" horiz-adv-x="553" 
d="M463 136l-16 -136h-459l82 668h450l-17 -135h-275l-15 -121h260l-16 -132h-260l-18 -144h284zM144 734l17 140h140l-17 -140h-140zM331 734l17 140h140l-17 -140h-140z" />
    <glyph glyph-name="Igrave" unicode="&#xcc;" horiz-adv-x="292" 
d="M254 668l-82 -668h-175l82 668h175zM224 712l-213 87l77 135l188 -125z" />
    <glyph glyph-name="Iacute" unicode="&#xcd;" horiz-adv-x="291" 
d="M243 668l-82 -668h-175l82 668h175zM331 806l-235 -88l-27 97l219 125z" />
    <glyph glyph-name="Icircumflex" unicode="&#xce;" horiz-adv-x="288" 
d="M244 668l-82 -668h-175l82 668h175zM168 790l-84 -80l-73 71l127 127h91l95 -127l-90 -71z" />
    <glyph glyph-name="Idieresis" unicode="&#xcf;" horiz-adv-x="275" 
d="M244 668l-82 -668h-175l82 668h175zM2 734l17 140h140l-17 -140h-140zM189 734l17 140h140l-17 -140h-140z" />
    <glyph glyph-name="Eth" unicode="&#xd0;" horiz-adv-x="669" 
d="M602 328q-13 -101 -47 -170t-85.5 -103.5t-103 -48t-115.5 -13.5q-105 0 -220 19l33 268h-48l14 112h48l32 260q128 21 229 21q44 0 79.5 -5.5t70.5 -20t57 -39.5t40 -63.5t20 -91.5t-4 -125zM270 537l-18 -145h121l-14 -112h-121l-17 -145q13 -1 38 -1q84 0 121 48.5
t50 151.5q6 62 3 107.5t-30 72t-81 26.5q-25 0 -52 -3z" />
    <glyph glyph-name="Ntilde" unicode="&#xd1;" horiz-adv-x="691" 
d="M563 0h-175l-189 396l-48 -396h-166l82 668h174l187 -395l49 395h168zM439 836q27 0 55 32l51 -66q-18 -30 -53.5 -54t-70.5 -24q-29 0 -66 22t-55 22q-24 0 -60 -40l-47 64q21 34 53.5 60.5t66.5 26.5q31 0 69.5 -21.5t56.5 -21.5z" />
    <glyph glyph-name="Ograve" unicode="&#xd2;" horiz-adv-x="640" 
d="M332 680q69 0 119 -19t75.5 -52t40 -77t13.5 -94.5t-6 -103.5q-9 -72 -28 -128.5t-54.5 -108t-98.5 -80t-149 -28.5q-69 0 -118 19t-75 52t-40.5 77t-13 94t6.5 103q7 57 19.5 104t37 93.5t59.5 78t89 51t123 19.5zM263 130q48 0 78 29t42.5 69.5t20.5 105.5
q6 59 5.5 106t-24 75.5t-71.5 28.5q-36 0 -61.5 -15.5t-41 -47t-23.5 -65t-14 -82.5q-6 -58 -5.5 -103.5t24 -73t70.5 -27.5zM432 712l-213 87l77 135l188 -125z" />
    <glyph glyph-name="Oacute" unicode="&#xd3;" horiz-adv-x="640" 
d="M332 680q69 0 119 -19t75.5 -52t40 -77t13.5 -94.5t-6 -103.5q-9 -72 -28 -128.5t-54.5 -108t-98.5 -80t-149 -28.5q-69 0 -118 19t-75 52t-40.5 77t-13 94t6.5 103q7 57 19.5 104t37 93.5t59.5 78t89 51t123 19.5zM263 130q48 0 78 29t42.5 69.5t20.5 105.5
q6 59 5.5 106t-24 75.5t-71.5 28.5q-36 0 -61.5 -15.5t-41 -47t-23.5 -65t-14 -82.5q-6 -58 -5.5 -103.5t24 -73t70.5 -27.5zM495 806l-235 -88l-27 97l219 125z" />
    <glyph glyph-name="Ocircumflex" unicode="&#xd4;" horiz-adv-x="640" 
d="M332 680q69 0 119 -19t75.5 -52t40 -77t13.5 -94.5t-6 -103.5q-9 -72 -28 -128.5t-54.5 -108t-98.5 -80t-149 -28.5q-69 0 -118 19t-75 52t-40.5 77t-13 94t6.5 103q7 57 19.5 104t37 93.5t59.5 78t89 51t123 19.5zM263 130q48 0 78 29t42.5 69.5t20.5 105.5
q6 59 5.5 106t-24 75.5t-71.5 28.5q-36 0 -61.5 -15.5t-41 -47t-23.5 -65t-14 -82.5q-6 -58 -5.5 -103.5t24 -73t70.5 -27.5zM345 790l-84 -80l-73 71l127 127h91l95 -127l-90 -71z" />
    <glyph glyph-name="Otilde" unicode="&#xd5;" horiz-adv-x="639" 
d="M333 680q69 0 119 -19t75.5 -52t40 -77t13.5 -94.5t-6 -103.5q-9 -72 -28 -128.5t-54.5 -108t-98.5 -80t-149 -28.5q-69 0 -118 19t-75 52t-40.5 77t-13 94t6.5 103q7 57 19.5 104t37 93.5t59.5 78t89 51t123 19.5zM264 130q48 0 78 29t42.5 69.5t20.5 105.5
q6 59 5.5 106t-24 75.5t-71.5 28.5q-36 0 -61.5 -15.5t-41 -47t-23.5 -65t-14 -82.5q-6 -58 -5.5 -103.5t24 -73t70.5 -27.5zM423 833q27 0 55 32l51 -66q-18 -30 -53.5 -54t-70.5 -24q-29 0 -66 22t-55 22q-24 0 -60 -40l-47 64q21 34 53.5 60.5t66.5 26.5q31 0 69.5 -21.5
t56.5 -21.5z" />
    <glyph glyph-name="Odieresis" unicode="&#xd6;" horiz-adv-x="639" 
d="M333 680q69 0 119 -19t75.5 -52t40 -77t13.5 -94.5t-6 -103.5q-9 -72 -28 -128.5t-54.5 -108t-98.5 -80t-149 -28.5q-69 0 -118 19t-75 52t-40.5 77t-13 94t6.5 103q7 57 19.5 104t37 93.5t59.5 78t89 51t123 19.5zM264 130q48 0 78 29t42.5 69.5t20.5 105.5
q6 59 5.5 106t-24 75.5t-71.5 28.5q-36 0 -61.5 -15.5t-41 -47t-23.5 -65t-14 -82.5q-6 -58 -5.5 -103.5t24 -73t70.5 -27.5zM179 734l17 140h140l-17 -140h-140zM366 734l17 140h140l-17 -140h-140z" />
    <glyph glyph-name="multiply" unicode="&#xd7;" horiz-adv-x="512" 
d="M460 159l-104 -97l-112 133l-143 -135l-83 97l144 135l-109 132l106 100l108 -133l142 132l83 -98l-141 -131z" />
    <glyph glyph-name="Oslash" unicode="&#xd8;" horiz-adv-x="639" 
d="M333 681q25 0 49 -3l43 96l108 -33l-44 -98q114 -74 86 -308q-9 -72 -28 -128.5t-54.5 -108t-98.5 -80t-149 -28.5q-24 0 -45 3l-46 -105l-111 35l47 104q-113 74 -85 308q7 57 19.5 104t37 93.5t59.5 78t89 51t123 19.5zM175 335q-10 -82 -3 -125l150 335h-7
q-36 0 -61.5 -15.5t-41 -47t-23.5 -65t-14 -82.5zM264 131q48 0 78 29t42.5 69.5t20.5 105.5q9 88 3 125l-146 -329h2z" />
    <glyph glyph-name="Ugrave" unicode="&#xd9;" horiz-adv-x="622" 
d="M531 249q-16 -135 -82.5 -197.5t-209.5 -62.5q-138 0 -190.5 62.5t-35.5 197.5l52 419h177l-51 -414q-5 -39 -4 -67t18 -43.5t53 -15.5q51 0 70 28.5t28 97.5l51 414h176zM394 712l-213 87l77 135l188 -125z" />
    <glyph glyph-name="Uacute" unicode="&#xda;" horiz-adv-x="622" 
d="M531 249q-16 -135 -82.5 -197.5t-209.5 -62.5q-138 0 -190.5 62.5t-35.5 197.5l52 419h177l-51 -414q-5 -39 -4 -67t18 -43.5t53 -15.5q51 0 70 28.5t28 97.5l51 414h176zM485 804l-235 -88l-27 97l219 125z" />
    <glyph glyph-name="Ucircumflex" unicode="&#xdb;" horiz-adv-x="622" 
d="M531 249q-16 -135 -82.5 -197.5t-209.5 -62.5q-138 0 -190.5 62.5t-35.5 197.5l52 419h177l-51 -414q-5 -39 -4 -67t18 -43.5t53 -15.5q51 0 70 28.5t28 97.5l51 414h176zM344 792l-84 -80l-73 71l127 127h91l95 -127l-90 -71z" />
    <glyph glyph-name="Udieresis" unicode="&#xdc;" horiz-adv-x="622" 
d="M531 249q-16 -135 -82.5 -197.5t-209.5 -62.5q-138 0 -190.5 62.5t-35.5 197.5l52 419h177l-51 -414q-5 -39 -4 -67t18 -43.5t53 -15.5q51 0 70 28.5t28 97.5l51 414h176zM177 733l17 140h140l-17 -140h-140zM364 733l17 140h140l-17 -140h-140z" />
    <glyph glyph-name="Yacute" unicode="&#xdd;" horiz-adv-x="593" 
d="M462 806l-235 -88l-27 97l219 125zM182 668l94 -246l156 246h178l-266 -402l-32 -266h-174l32 266l-168 402h180z" />
    <glyph glyph-name="Thorn" unicode="&#xde;" horiz-adv-x="496" 
d="M448 544q54 -57 42 -151q-14 -112 -88 -165l1 1q-37 -29 -86.5 -40.5t-132.5 -11.5h-9l-21 -177h-134l85 696h134l-12 -96h31q77 0 118.5 -12.5t71.5 -43.5zM319 310h-1q27 18 35 78q7 50 -13 73h1q-21 26 -96 26h-32l-24 -197h19q81 0 111 20z" />
    <glyph glyph-name="germandbls" unicode="&#xdf;" horiz-adv-x="589" 
d="M226 488l-75 -612h-166l76 614q14 114 87.5 171.5t185.5 57.5q102 0 147.5 -47t35.5 -123q-4 -35 -23 -62t-39 -41t-37.5 -33.5t-20.5 -40.5q-1 -14 5 -24t12 -14t23 -14q30 -14 47.5 -25t38.5 -30t28.5 -45.5t3.5 -59.5q-10 -80 -66 -126t-143 -46q-37 0 -84.5 12
t-78.5 31l53 126q19 -13 54 -28t62 -15q43 0 47 38q2 16 -10 27t-39 25q-29 15 -44 24.5t-36.5 29t-29 46t-3.5 60.5q4 33 22 58t37.5 38.5t37 34.5t20.5 46q3 24 -8.5 37t-33.5 13q-73 0 -86 -103z" />
    <glyph glyph-name="agrave" unicode="&#xe0;" horiz-adv-x="501" 
d="M426 330l-37 -304q-99 -41 -224 -41q-47 0 -83.5 7t-67.5 24t-45.5 49.5t-8.5 78.5q10 85 66.5 124t135.5 39q54 0 93 -12l4 33q5 39 -11 53t-53 14q-71 0 -137 -22l-13 114q105 41 208 41q198 0 173 -198zM121 148q-4 -31 14 -44t48 -13q26 0 48 7l13 107q-22 9 -46 9
q-67 0 -77 -66zM351 570l-213 87l77 135l188 -125z" />
    <glyph glyph-name="aacute" unicode="&#xe1;" horiz-adv-x="501" 
d="M426 330l-37 -304q-99 -41 -224 -41q-47 0 -83.5 7t-67.5 24t-45.5 49.5t-8.5 78.5q10 85 66.5 124t135.5 39q54 0 93 -12l4 33q5 39 -11 53t-53 14q-71 0 -137 -22l-13 114q105 41 208 41q198 0 173 -198zM121 148q-4 -31 14 -44t48 -13q26 0 48 7l13 107q-22 9 -46 9
q-67 0 -77 -66zM408 658l-235 -88l-27 97l219 125z" />
    <glyph glyph-name="acircumflex" unicode="&#xe2;" horiz-adv-x="501" 
d="M426 330l-37 -304q-99 -41 -224 -41q-47 0 -83.5 7t-67.5 24t-45.5 49.5t-8.5 78.5q10 85 66.5 124t135.5 39q54 0 93 -12l4 33q5 39 -11 53t-53 14q-71 0 -137 -22l-13 114q105 41 208 41q198 0 173 -198zM121 148q-4 -31 14 -44t48 -13q26 0 48 7l13 107q-22 9 -46 9
q-67 0 -77 -66zM255 651l-84 -80l-73 71l127 127h91l95 -127l-90 -71z" />
    <glyph glyph-name="atilde" unicode="&#xe3;" horiz-adv-x="501" 
d="M426 330l-37 -304q-99 -41 -224 -41q-47 0 -83.5 7t-67.5 24t-45.5 49.5t-8.5 78.5q10 85 66.5 124t135.5 39q54 0 93 -12l4 33q5 39 -11 53t-53 14q-71 0 -137 -22l-13 114q105 41 208 41q198 0 173 -198zM121 148q-4 -31 14 -44t48 -13q26 0 48 7l13 107q-22 9 -46 9
q-67 0 -77 -66zM332 693q27 0 55 32l51 -66q-18 -30 -53.5 -54t-70.5 -24q-30 0 -67 22t-54 22q-24 0 -60 -40l-47 64q21 34 53.5 60.5t66.5 26.5q31 0 69.5 -21.5t56.5 -21.5z" />
    <glyph glyph-name="adieresis" unicode="&#xe4;" horiz-adv-x="501" 
d="M426 330l-37 -304q-99 -41 -224 -41q-47 0 -83.5 7t-67.5 24t-45.5 49.5t-8.5 78.5q10 85 66.5 124t135.5 39q54 0 93 -12l4 33q5 39 -11 53t-53 14q-71 0 -137 -22l-13 114q105 41 208 41q198 0 173 -198zM121 148q-4 -31 14 -44t48 -13q26 0 48 7l13 107q-22 9 -46 9
q-67 0 -77 -66zM94 615l17 140h140l-17 -140h-140zM281 615l17 140h140l-17 -140h-140z" />
    <glyph glyph-name="aring" unicode="&#xe5;" horiz-adv-x="456" 
d="M383 689q-6 -47 -39.5 -79.5t-89.5 -32.5q-55 0 -79.5 32t-18.5 79q6 46 39 78t87 32q56 0 81.5 -31.5t19.5 -77.5zM290 689q4 28 -17 28q-19 0 -23 -29t15 -29q21 0 25 30zM431 330l-37 -304q-99 -41 -224 -41q-47 0 -83.5 7t-67.5 24t-45.5 49.5t-8.5 78.5
q10 85 66.5 124t135.5 39q54 0 93 -12l4 33q5 39 -11 53t-53 14q-71 0 -137 -22l-13 114q105 41 208 41q198 0 173 -198zM126 148q-4 -31 14 -44t48 -13q26 0 48 7l13 107q-22 9 -46 9q-67 0 -77 -66z" />
    <glyph glyph-name="ae" unicode="&#xe6;" horiz-adv-x="768" 
d="M508 -13q-80 0 -141 36q-71 -38 -160 -38q-99 0 -158.5 36.5t-49.5 122.5q10 85 71.5 124t148.5 39q43 0 77 -7l4 28q5 39 -11.5 53t-53.5 14q-51 0 -134 -25l-15 116q106 42 208 42q43 0 71.5 -8t45.5 -33q52 40 144 40q110 0 155 -54.5t34 -144.5q-5 -35 -24 -97h-277
v-2q-7 -57 20 -85t78 -28q70 0 154 29l-2 -127q-104 -31 -185 -31zM223 91q44 0 73 14q-15 47 -11 100q-33 7 -48 7q-69 0 -76 -64q-4 -31 14 -44t48 -13zM545 409q-64 0 -85 -77h137q2 35 -11 56t-41 21z" />
    <glyph glyph-name="ccedilla" unicode="&#xe7;" horiz-adv-x="463" 
d="M211 -12q-111 0 -174.5 67t-47.5 202q17 140 96.5 205t196.5 65q74 0 143 -23l-39 -124q-53 18 -101 18q-56 0 -88 -31.5t-42 -110.5q-10 -81 15.5 -112.5t81.5 -31.5q49 0 123 20l-3 -118q-82 -26 -161 -26zM117 -31h155q11 -42 5 -85q-12 -99 -162 -176l-52 83
q60 48 66 89q3 20 -12 89z" />
    <glyph glyph-name="egrave" unicode="&#xe8;" horiz-adv-x="510" 
d="M430 241h-278q-8 -70 19 -98.5t84 -28.5q83 0 148 25l-2 -121q-105 -31 -185 -31q-260 0 -224 285q13 109 82 182t190 73q110 0 154 -57t33 -148q-4 -36 -21 -81zM253 413q-42 0 -62 -27t-23 -59h143q10 86 -58 86zM344 570l-213 87l77 135l188 -125z" />
    <glyph glyph-name="eacute" unicode="&#xe9;" horiz-adv-x="510" 
d="M430 241h-278q-8 -70 19 -98.5t84 -28.5q83 0 148 25l-2 -121q-105 -31 -185 -31q-260 0 -224 285q13 109 82 182t190 73q110 0 154 -57t33 -148q-4 -36 -21 -81zM253 413q-42 0 -62 -27t-23 -59h143q10 86 -58 86zM406 658l-235 -88l-27 97l219 125z" />
    <glyph glyph-name="ecircumflex" unicode="&#xea;" horiz-adv-x="510" 
d="M430 241h-278q-8 -70 19 -98.5t84 -28.5q83 0 148 25l-2 -121q-105 -31 -185 -31q-260 0 -224 285q13 109 82 182t190 73q110 0 154 -57t33 -148q-4 -36 -21 -81zM253 413q-42 0 -62 -27t-23 -59h143q10 86 -58 86zM280 651l-84 -80l-73 71l127 127h91l95 -127l-90 -71z
" />
    <glyph glyph-name="edieresis" unicode="&#xeb;" horiz-adv-x="510" 
d="M430 241h-278q-8 -70 19 -98.5t84 -28.5q83 0 148 25l-2 -121q-105 -31 -185 -31q-260 0 -224 285q13 109 82 182t190 73q110 0 154 -57t33 -148q-4 -36 -21 -81zM253 413q-42 0 -62 -27t-23 -59h143q10 86 -58 86zM117 605l17 140h140l-17 -140h-140zM304 605l17 140
h140l-17 -140h-140z" />
    <glyph glyph-name="igrave" unicode="&#xec;" horiz-adv-x="270" 
d="M239 519l-64 -519h-170l63 519h171zM209 570l-213 87l77 135l188 -125z" />
    <glyph glyph-name="iacute" unicode="&#xed;" horiz-adv-x="265" 
d="M208 519l-64 -519h-170l63 519h171zM305 658l-235 -88l-27 97l219 125z" />
    <glyph glyph-name="icircumflex" unicode="&#xee;" horiz-adv-x="261" 
d="M212 519l-64 -519h-170l63 519h171zM141 651l-84 -80l-73 71l127 127h91l95 -127l-90 -71z" />
    <glyph glyph-name="idieresis" unicode="&#xef;" horiz-adv-x="248" 
d="M220 519l-64 -519h-170l63 519h171zM-17 605l17 140h140l-17 -140h-140zM170 605l17 140h140l-17 -140h-140z" />
    <glyph glyph-name="eth" unicode="&#xf0;" horiz-adv-x="513" 
d="M226 -11q-116 0 -165.5 72t-35.5 186q13 110 73.5 164.5t155.5 54.5q30 0 64 -9q-6 50 -25 81l-73 -62l-67 78l48 41q-38 12 -106 16l34 105q113 0 181 -21l79 76l66 -81l-48 -46q53 -48 71 -129.5t2 -207.5q-11 -90 -34.5 -153.5t-58 -98.5t-73.5 -50.5t-88 -15.5z
M239 124q27 0 44 42t33 163q-24 9 -56 9q-57 -2 -68 -91q-15 -123 47 -123z" />
    <glyph glyph-name="ntilde" unicode="&#xf1;" horiz-adv-x="554" 
d="M-22 0l57 470q46 21 121.5 40t145.5 19q43 0 75 -7.5t60.5 -26t40 -56.5t4.5 -94l-42 -345h-167l40 333q9 73 -47 73q-40 0 -74 -15l-48 -391h-166zM356 693q27 0 55 32l51 -66q-18 -30 -53.5 -54t-70.5 -24q-30 0 -66.5 22t-54.5 22q-24 0 -60 -40l-47 64
q21 34 53.5 60.5t66.5 26.5q31 0 69.5 -21.5t56.5 -21.5z" />
    <glyph glyph-name="ograve" unicode="&#xf2;" horiz-adv-x="532" 
d="M189 -12q-117 0 -166.5 62t-32.5 207q17 144 84.5 207t185.5 63q122 0 171.5 -61.5t31.5 -207.5q-17 -144 -84.5 -207t-189.5 -63zM245 400q-37 0 -60.5 -29.5t-33.5 -113.5q-18 -143 57 -143t93 143q10 84 -5 113.5t-51 29.5zM359 570l-213 87l77 135l188 -125z" />
    <glyph glyph-name="oacute" unicode="&#xf3;" horiz-adv-x="532" 
d="M187 -12q-117 0 -166.5 62t-32.5 207q17 144 84.5 207t185.5 63q122 0 171.5 -61.5t31.5 -207.5q-17 -144 -84.5 -207t-189.5 -63zM243 400q-37 0 -60.5 -29.5t-33.5 -113.5q-18 -143 57 -143t93 143q10 84 -5 113.5t-51 29.5zM417 658l-235 -88l-27 97l219 125z" />
    <glyph glyph-name="ocircumflex" unicode="&#xf4;" horiz-adv-x="532" 
d="M187 -12q-117 0 -166.5 62t-32.5 207q17 144 84.5 207t185.5 63q122 0 171.5 -61.5t31.5 -207.5q-17 -144 -84.5 -207t-189.5 -63zM243 400q-37 0 -60.5 -29.5t-33.5 -113.5q-18 -143 57 -143t93 143q10 84 -5 113.5t-51 29.5zM281 651l-84 -80l-73 71l127 127h91
l95 -127l-90 -71z" />
    <glyph glyph-name="otilde" unicode="&#xf5;" horiz-adv-x="532" 
d="M189 -12q-117 0 -166.5 62t-32.5 207q17 144 84.5 207t185.5 63q122 0 171.5 -61.5t31.5 -207.5q-17 -144 -84.5 -207t-189.5 -63zM245 400q-37 0 -60.5 -29.5t-33.5 -113.5q-18 -143 57 -143t93 143q10 84 -5 113.5t-51 29.5zM349 693q27 0 55 32l51 -66
q-18 -30 -53.5 -54t-70.5 -24q-29 0 -66 22t-55 22q-24 0 -60 -40l-47 64q21 34 53.5 60.5t66.5 26.5q31 0 69.5 -21.5t56.5 -21.5z" />
    <glyph glyph-name="odieresis" unicode="&#xf6;" horiz-adv-x="532" 
d="M189 -12q-117 0 -166.5 62t-32.5 207q17 144 84.5 207t185.5 63q122 0 171.5 -61.5t31.5 -207.5q-17 -144 -84.5 -207t-189.5 -63zM245 400q-37 0 -60.5 -29.5t-33.5 -113.5q-18 -143 57 -143t93 143q10 84 -5 113.5t-51 29.5zM111 605l17 140h140l-17 -140h-140z
M298 605l17 140h140l-17 -140h-140z" />
    <glyph glyph-name="divide" unicode="&#xf7;" horiz-adv-x="526" 
d="M497 344l-16 -128h-456l16 128h456zM206 455q5 34 30 57.5t58 23.5q32 0 52 -23.5t16 -57.5t-29.5 -57t-57.5 -23q-33 0 -53 23t-16 57zM164 106q4 34 29 57.5t58 23.5q32 0 52.5 -23.5t16.5 -57.5t-30 -57t-58 -23q-33 0 -52.5 23t-15.5 57z" />
    <glyph glyph-name="oslash" unicode="&#xf8;" horiz-adv-x="532" 
d="M425 565l-32 -67q92 -54 69 -240q-17 -144 -84.5 -207t-189.5 -63q-28 0 -40 2l-32 -67l-77 35l26 54q-99 53 -76 245q17 144 84.5 207t185.5 63q20 0 54 -4l39 80zM244 400q-37 0 -60.5 -29.5t-33.5 -113.5q-6 -46 -3 -76l106 218q-3 1 -9 1zM300 257q4 44 4 56
l-96 -199q74 0 92 143z" />
    <glyph glyph-name="ugrave" unicode="&#xf9;" horiz-adv-x="552" 
d="M501 519l-59 -480q-127 -47 -257 -47q-91 0 -144.5 45.5t-40.5 145.5l41 336h167l-40 -326q-5 -41 11 -57.5t47 -19.5q28 0 60 7l48 396h167zM355 570l-213 87l77 135l188 -125z" />
    <glyph glyph-name="uacute" unicode="&#xfa;" horiz-adv-x="552" 
d="M501 519l-59 -480q-127 -47 -257 -47q-91 0 -144.5 45.5t-40.5 145.5l41 336h167l-40 -326q-5 -41 11 -57.5t47 -19.5q28 0 60 7l48 396h167zM443 658l-235 -88l-27 97l219 125z" />
    <glyph glyph-name="ucircumflex" unicode="&#xfb;" horiz-adv-x="552" 
d="M501 519l-59 -480q-127 -47 -257 -47q-91 0 -144.5 45.5t-40.5 145.5l41 336h167l-40 -326q-5 -41 11 -57.5t47 -19.5q28 0 60 7l48 396h167zM290 651l-84 -80l-73 71l127 127h91l95 -127l-90 -71z" />
    <glyph glyph-name="udieresis" unicode="&#xfc;" horiz-adv-x="552" 
d="M501 519l-59 -480q-127 -47 -257 -47q-91 0 -144.5 45.5t-40.5 145.5l41 336h167l-40 -326q-5 -41 11 -57.5t47 -19.5q28 0 60 7l48 396h167zM124 605l17 140h140l-17 -140h-140zM311 605l17 140h140l-17 -140h-140z" />
    <glyph glyph-name="yacute" unicode="&#xfd;" horiz-adv-x="505" 
d="M113 0h-35l-95 519h165l52 -323l120 323h166l-201 -472q-61 -144 -122.5 -201.5t-153.5 -57.5q-56 0 -104 21l31 121q37 -17 66 -17q74 0 111 87zM433 658l-235 -88l-27 97l219 125z" />
    <glyph glyph-name="thorn" unicode="&#xfe;" horiz-adv-x="562" 
d="M180 -9l-23 -194h-171l110 903h170l-23 -187q59 14 108 14q97 0 146.5 -57.5t33.5 -186.5q-35 -295 -294 -295q-37 0 -57 3zM228 387l-33 -265q24 -4 37 -4q60 0 88.5 38t36.5 107q16 136 -65 136q-29 0 -64 -12z" />
    <glyph glyph-name="ydieresis" unicode="&#xff;" horiz-adv-x="505" 
d="M113 0h-35l-95 519h165l52 -323l120 323h166l-201 -472q-61 -144 -122.5 -201.5t-153.5 -57.5q-56 0 -104 21l31 121q37 -17 66 -17q74 0 111 87zM95 605l17 140h140l-17 -140h-140zM282 605l17 140h140l-17 -140h-140z" />
    <glyph glyph-name="dotlessi" unicode="&#x131;" horiz-adv-x="265" 
d="M245 519l-64 -519h-170l63 519h171z" />
    <glyph glyph-name="Lslash" unicode="&#x141;" horiz-adv-x="535" 
d="M28 393h389l-15 -119h-389zM471 136l-16 -136h-429l82 668h175l-66 -532h254z" />
    <glyph glyph-name="lslash" unicode="&#x142;" horiz-adv-x="424" 
d="M33 393h390l-15 -119h-390zM309 127v-108q-57 -31 -134 -31q-82 0 -110.5 44.5t-18.5 129.5l66 537h170l-65 -528q-7 -54 45 -54q19 0 47 10z" />
    <glyph glyph-name="OE" unicode="&#x152;" horiz-adv-x="931" 
d="M368 680q70 0 142 -12h422l-17 -134h-277l-15 -122h261l-16 -132h-261l-18 -144h285l-16 -136h-432q-68 -11 -146 -11q-69 0 -118 19t-75 52t-40.5 77t-13 94t6.5 103q7 57 19.5 104t37 93.5t59.5 78t89 51t123 19.5zM433 132l50 408q-41 13 -108 13q-74 0 -113 -53.5
t-52 -165.5q-14 -110 12 -163.5t99 -53.5q55 0 112 15z" />
    <glyph glyph-name="oe" unicode="&#x153;" horiz-adv-x="816" 
d="M223 -12q-117 0 -166.5 62t-32.5 207q17 144 84.5 207t185.5 63q107 0 150 -59q62 59 159 59q110 0 155 -54.5t34 -144.5q-7 -46 -25 -97h-275v-2q-7 -57 19 -85t77 -28q71 0 155 29l-2 -127q-104 -31 -185 -31q-110 0 -164 64q-60 -63 -169 -63zM279 400
q-37 0 -58.5 -29t-31.5 -114q-10 -80 4.5 -111.5t48.5 -31.5q35 0 57.5 31.5t32.5 111.5q10 84 -4 113.5t-49 29.5zM592 409q-36 0 -56.5 -23.5t-28.5 -53.5h138q5 77 -53 77z" />
    <glyph glyph-name="Scaron" unicode="&#x160;" horiz-adv-x="509" 
d="M-41 39l41 139q119 -58 189 -58q74 0 82 65q4 36 -13 54t-61 35q-35 14 -51.5 21t-44 21.5t-40.5 28.5t-27.5 35t-18 47.5t0.5 59.5q12 94 87.5 143.5t179.5 49.5q89 0 181 -37l-44 -133q-27 14 -71 27t-81 13q-78 0 -86 -63q-2 -17 4.5 -30t24 -24.5t31 -18t42.5 -18.5
q30 -13 48 -21.5t43.5 -26.5t38 -37t20.5 -49.5t3 -67.5q-11 -92 -82 -148.5t-171 -56.5q-144 0 -225 50zM221 924l64 -81l84 80l75 -70l-128 -128h-90l-97 128z" />
    <glyph glyph-name="scaron" unicode="&#x161;" horiz-adv-x="441" 
d="M394 494l-39 -129q-23 12 -63 23t-69 11q-51 0 -55 -31q-2 -14 10 -26t24 -18t37 -16q30 -13 47 -22t40 -26.5t32 -42t5 -55.5q-20 -174 -236 -174q-47 0 -98 11.5t-78 26.5l41 123q97 -36 153 -36q50 0 55 34q1 13 -9 24.5t-20.5 17.5t-32.5 17q-29 14 -42 20.5t-36 22
t-33 29.5t-17.5 36.5t-4.5 48.5q20 165 227 165q86 0 162 -34zM170 750l64 -81l84 80l75 -70l-128 -128h-90l-97 128z" />
    <glyph glyph-name="Ydieresis" unicode="&#x178;" horiz-adv-x="593" 
d="M160 724l17 140h140l-17 -140h-140zM347 724l17 140h140l-17 -140h-140zM182 668l94 -246l156 246h178l-266 -402l-32 -266h-174l32 266l-168 402h180z" />
    <glyph glyph-name="Zcaron" unicode="&#x17d;" horiz-adv-x="549" 
d="M468 137l-16 -137h-492l12 99l328 434h-273l17 135h471l-13 -103l-324 -428h290zM246 925l64 -81l84 80l75 -70l-128 -128h-90l-97 128z" />
    <glyph glyph-name="zcaron" unicode="&#x17e;" horiz-adv-x="476" 
d="M404 115l-14 -115h-424l-4 86l254 317h-193l1 116h389l4 -89l-255 -315h242zM184 750l64 -81l84 80l75 -70l-128 -128h-90l-97 128z" />
    <glyph glyph-name="florin" unicode="&#x192;" horiz-adv-x="630" 
d="M360 -31q-13 -104 -83.5 -153.5t-177.5 -49.5q-63 0 -144 23l43 123q77 -17 107 -17q75 0 85 86l52 423h-89l14 115h90l2 14q13 105 84 154t173 49q62 0 146 -23l-39 -123q-76 16 -109 16q-76 0 -87 -85v-1h153l-25 -116h-142z" />
    <glyph glyph-name="circumflex" unicode="&#x2c6;" horiz-adv-x="387" 
d="M236 651l-84 -80l-73 71l127 127h91l95 -127l-90 -71z" />
    <glyph glyph-name="caron" unicode="&#x2c7;" horiz-adv-x="412" 
d="M192 750l64 -81l84 80l75 -70l-128 -128h-90l-97 128z" />
    <glyph glyph-name="breve" unicode="&#x2d8;" horiz-adv-x="312" 
d="M81 659h75q-2 -20 6.5 -37t32.5 -17t36.5 16.5t14.5 37.5h73q-6 -53 -40.5 -90t-94.5 -37q-59 0 -84.5 36.5t-18.5 90.5z" />
    <glyph glyph-name="dotaccent" unicode="&#x2d9;" horiz-adv-x="221" 
d="M59 572l20 166h171l-20 -166h-171z" />
    <glyph glyph-name="ring" unicode="&#x2da;" horiz-adv-x="307" 
d="M312 689q-6 -47 -39.5 -79.5t-89.5 -32.5q-55 0 -79.5 32t-18.5 79q6 46 39 78t87 32q56 0 81.5 -31.5t19.5 -77.5zM219 689q4 28 -17 28q-19 0 -23 -29t15 -29q21 0 25 30z" />
    <glyph glyph-name="ogonek" unicode="&#x2db;" horiz-adv-x="320" 
d="M74 11h139q-71 -61 -76 -100q0 -17 21 -17q27 0 51 11l8 -108q-72 -31 -120 -31q-62 0 -88.5 31t-20.5 78q5 35 29 73t57 63z" />
    <glyph glyph-name="tilde" unicode="&#x2dc;" horiz-adv-x="465" 
d="M347 693q27 0 55 32l51 -66q-18 -30 -53.5 -54t-70.5 -24q-29 0 -66 22t-55 22q-24 0 -60 -40l-47 64q21 34 53.5 60.5t66.5 26.5q31 0 69.5 -21.5t56.5 -21.5z" />
    <glyph glyph-name="hungarumlaut" unicode="&#x2dd;" horiz-adv-x="547" 
d="M326 634l-185 -167l-69 77l160 194zM546 634l-185 -167l-68 77l160 194z" />
    <glyph glyph-name="endash" unicode="&#x2013;" horiz-adv-x="545" 
d="M507 344l-16 -128h-456l16 128h456z" />
    <glyph glyph-name="emdash" unicode="&#x2014;" horiz-adv-x="682" 
d="M643 344l-16 -128h-592l16 128h592z" />
    <glyph glyph-name="quoteleft" unicode="&#x2018;" horiz-adv-x="249" 
d="M64 526q13 104 114 193h136q-99 -107 -108 -178q-5 -31 11 -81h-146q-10 37 -7 66z" />
    <glyph glyph-name="quoteright" unicode="&#x2019;" horiz-adv-x="280" 
d="M295 632q-13 -104 -115 -193h-135q100 107 108 178q5 31 -11 81h146q10 -37 7 -66z" />
    <glyph glyph-name="quotesinglbase" unicode="&#x201a;" horiz-adv-x="245" 
d="M177 69q-13 -103 -115 -192h-134q99 108 107 177q4 27 -11 82h145q11 -34 8 -67z" />
    <glyph glyph-name="quotedblleft" unicode="&#x201c;" horiz-adv-x="422" 
d="M64 526q13 104 114 193h136q-99 -107 -108 -178q-5 -31 11 -81h-146q-10 37 -7 66zM237 526q13 106 115 193h135q-99 -105 -108 -178q-5 -31 11 -81h-145q-11 34 -8 66z" />
    <glyph glyph-name="quotedblright" unicode="&#x201d;" horiz-adv-x="453" 
d="M468 632q-13 -105 -114 -193h-135q99 105 107 178q4 26 -10 81h144q12 -34 8 -66zM295 632q-13 -104 -115 -193h-135q100 107 108 178q5 31 -11 81h146q10 -37 7 -66z" />
    <glyph glyph-name="quotedblbase" unicode="&#x201e;" horiz-adv-x="418" 
d="M177 69q-13 -103 -115 -192h-134q99 108 107 177q4 27 -11 82h145q11 -34 8 -67zM349 69q-13 -104 -114 -192h-135q100 105 108 177q5 31 -11 82h145q11 -32 7 -67z" />
    <glyph glyph-name="dagger" unicode="&#x2020;" horiz-adv-x="419" 
d="M422 489l-14 -112l-145 14l-24 -391h-138l70 391l-140 -15l14 113l135 -14v193h142l-48 -193z" />
    <glyph glyph-name="daggerdbl" unicode="&#x2021;" horiz-adv-x="419" 
d="M275 341l-30 -108l130 13l-13 -103l-127 12l3 -155h-129l40 155l-130 -12l13 103l126 -13l-4 108l30 100l-130 -12l13 104l126 -14l-2 149h129l-41 -149l131 14l-13 -104l-126 12z" />
    <glyph glyph-name="bullet" unicode="&#x2022;" horiz-adv-x="360" 
d="M56 315q7 53 48 89t93 36q54 0 86 -36t25 -89q-6 -53 -47 -89t-95 -36q-52 0 -84 36t-26 89z" />
    <glyph glyph-name="ellipsis" unicode="&#x2026;" horiz-adv-x="661" 
d="M189 162l-19 -162h-171l19 162h171zM401 162l-19 -162h-171l19 162h171zM610 162l-19 -162h-171l19 162h171z" />
    <glyph glyph-name="perthousand" unicode="&#x2030;" horiz-adv-x="1182" 
d="M300 0h-158l416 691h158zM179 312q-81 0 -114 39.5t-20 152.5q14 112 60.5 153.5t122.5 41.5q80 0 113.5 -40.5t20.5 -153.5q-14 -112 -60 -152.5t-123 -40.5zM217 611q-19 0 -29 -21.5t-18 -85.5q-7 -66 -3 -85.5t23 -19.5t28.5 20.5t16.5 84.5q8 65 4 86t-22 21z
M627 -9q-81 0 -113.5 39.5t-18.5 152.5q14 112 60.5 153.5t122.5 41.5q80 0 113 -40.5t19 -153.5q-14 -112 -59.5 -152.5t-123.5 -40.5zM665 290q-18 0 -27.5 -21.5t-17.5 -85.5q-6 -43 -5 -66.5t6 -31t18 -7.5q19 0 28 20t17 85t4 86t-23 21zM966 -9q-81 0 -113.5 39.5
t-18.5 152.5q14 112 60 153.5t123 41.5q80 0 112.5 -40.5t18.5 -153.5q-14 -112 -60 -152.5t-122 -40.5zM1004 290q-19 0 -28 -21t-17 -86q-8 -66 -4 -85.5t23 -19.5t28 20.5t17 84.5q6 43 5.5 66.5t-6 32t-18.5 8.5z" />
    <glyph glyph-name="guilsinglleft" unicode="&#x2039;" horiz-adv-x="341" 
d="M323 421l-145 -141l111 -137l-109 -93l-155 200l8 61l203 199z" />
    <glyph glyph-name="guilsinglright" unicode="&#x203a;" horiz-adv-x="340" 
d="M159 280l-111 141l110 89l153 -199l-8 -61l-202 -200l-87 93z" />
    <glyph glyph-name="fraction" unicode="&#x2044;" horiz-adv-x="397" 
d="M454 756l-368 -842l-129 38l370 846z" />
    <glyph glyph-name="Euro" unicode="&#x20ac;" horiz-adv-x="587" 
d="M443 459l-12 -95h-151l-6 -50h151l-12 -95h-136q24 -93 125 -93q51 0 120 11l-3 -128q-94 -21 -170 -21q-107 0 -176 54.5t-80 176.5h-74l12 95h63l6 50h-63l12 95h77q22 60 57.5 104t78.5 68.5t88 36t94 11.5q76 0 161 -26l-42 -122q-75 15 -115 15q-97 0 -140 -87h135z
" />
    <glyph glyph-name="trademark" unicode="&#x2122;" horiz-adv-x="761" 
d="M166 594h-91l10 74h282l-10 -74h-93l-37 -307h-98zM566 333h-73l-34 163l-32 -209h-93l67 381h103l42 -208l92 208h103l-26 -381h-93l18 208z" />
    <glyph glyph-name="minus" unicode="&#x2212;" horiz-adv-x="512" 
d="M470 344l-16 -128h-415l16 128h415z" />
    <glyph glyph-name="CR" horiz-adv-x="422" 
 />
    <glyph glyph-name="plus.001" horiz-adv-x="474" 
d="M280 75h-140l17 141h-136l16 129h136l17 140h140l-17 -140h136l-16 -129h-136z" />
    <glyph glyph-name="percent" horiz-adv-x="891" 
d="M309 0h-159l417 691h158zM197 312q-81 0 -113.5 39.5t-19.5 152.5q14 112 60.5 153.5t122.5 41.5q80 0 112.5 -40.5t19.5 -153.5q-14 -112 -59.5 -152.5t-122.5 -40.5zM235 611q-19 0 -28.5 -21.5t-17.5 -85.5q-7 -66 -3 -85.5t22 -19.5q19 0 28.5 20.5t16.5 84.5
q8 65 4 86t-22 21zM637 -9q-81 0 -113.5 39.5t-18.5 152.5q14 112 60 153.5t123 41.5q80 0 112.5 -40.5t18.5 -153.5q-14 -112 -60 -152.5t-122 -40.5zM675 290q-19 0 -28 -21t-17 -86q-8 -66 -4 -85.5t23 -19.5t28 20.5t17 84.5q6 43 5.5 66.5t-6 32t-18.5 8.5z" />
    <glyph glyph-name="_0007" 
 />
    <glyph glyph-name="_0009" 
 />
    <glyph glyph-name="_0129" 
 />
    <glyph glyph-name="_0141" 
 />
    <glyph glyph-name="_0142" 
 />
    <glyph glyph-name="_0143" 
 />
    <glyph glyph-name="_0144" 
 />
    <glyph glyph-name="_0157" 
 />
    <glyph glyph-name="_0158" 
 />
    <glyph glyph-name="g.alt" horiz-adv-x="546" 
d="M524 486l-58 -475q-8 -68 -34.5 -117.5t-66 -76t-82.5 -38t-93 -11.5q-99 0 -201 40l36 126q92 -32 186 -32q34 0 56 21.5t30 76.5q-33 -12 -66 -12q-64 0 -108.5 22t-64.5 58.5t-28.5 83t0.5 96.5q7 57 26 105t53 89.5t91.5 65t132.5 23.5q97 0 191 -45zM199 253
q-18 -135 70 -135q26 0 44 5l33 275q-18 5 -38 5q-29 0 -50 -13t-32.5 -37t-17 -47t-9.5 -53z" />
    <glyph glyph-name="y.alt" horiz-adv-x="540" 
d="M298 -4l1 11q-43 -15 -84 -15q-90 0 -144 45.5t-41 145.5l41 336h167l-40 -326q-5 -41 11 -57.5t47 -19.5q35 0 54 6l49 397h169l-62 -508q-8 -68 -34.5 -117.5t-66 -76t-82.5 -38t-93 -11.5q-101 0 -201 44l36 126q89 -36 186 -36q37 0 58.5 18.5t28.5 75.5z" />
    <glyph glyph-name="r.alt" horiz-adv-x="378" 
d="M401 509l-32 -118q-53 13 -88 13q-24 0 -57 -10l-48 -394h-165l56 459q96 66 217 66q47 0 117 -16z" />
    <glyph glyph-name="i.alt" horiz-adv-x="302" 
d="M265 135l3 -118q-58 -28 -120 -28q-34 0 -58.5 6t-38 20.5t-20.5 27.5t-8 38.5t0 41.5t5 48l43 348h170l-42 -343q-4 -31 1.5 -40.5t23.5 -9.5q16 0 41 9zM43 572l20 166h171l-20 -166h-171z" />
    <glyph glyph-name="a.alt" horiz-adv-x="560" 
d="M405 -11q-65 0 -91 39q-46 -38 -110 -38q-75 0 -119.5 38t-57.5 94.5t-4 129.5q5 43 18 81.5t37 75t57 62.5t81.5 41.5t108.5 15.5q94 0 189 -44l-42 -340q-3 -23 21 -23q19 0 39 11l-6 -112q-67 -31 -121 -31zM303 127l32 270q-14 6 -33 6q-89 0 -110 -159
q-7 -55 7.5 -92.5t53.5 -37.5q28 0 50 13z" />
    </font>
</defs>
</svg>
