<?xml version="1.0" standalone="no"?>
<!DOCTYPE svg PUBLIC "-//W3C//DTD SVG 1.1//EN" "http://www.w3.org/Graphics/SVG/1.1/DTD/svg11.dtd" >
<svg xmlns="http://www.w3.org/2000/svg" xmlns:xlink="http://www.w3.org/1999/xlink" version="1.1">
<metadata>
Created by FontForge 20161013 at Tue Oct  9 23:16:29 2001
 By ,,,
Copyright (c) 1989, 1992 Adobe Systems Incorporated. All Rights Reserved.Trade Gothic is a trademark of Linotype-Hell AG and/or its subsidiaries.
</metadata>
<defs>
<font id="TradeGothicLT-Light" horiz-adv-x="556" >
  <font-face 
    font-family="TradeGothic LT Light"
    font-weight="400"
    font-stretch="normal"
    units-per-em="1000"
    panose-1="2 0 5 3 2 0 0 2 0 4"
    ascent="800"
    descent="-200"
    x-height="520"
    cap-height="722"
    bbox="-167 -212 1000 949"
    underline-thickness="50"
    underline-position="-175"
    unicode-range="U+0020-FB02"
  />
<missing-glyph horiz-adv-x="500" 
 />
    <glyph glyph-name=".notdef" horiz-adv-x="500" 
 />
    <glyph glyph-name=".null" horiz-adv-x="0" 
 />
    <glyph glyph-name="nonmarkingreturn" horiz-adv-x="278" 
 />
    <glyph glyph-name="space" unicode=" " horiz-adv-x="278" 
 />
    <glyph glyph-name="space" unicode="&#xa0;" horiz-adv-x="278" 
 />
    <glyph glyph-name="exclam" unicode="!" horiz-adv-x="222" 
d="M68 0v90h86v-90h-86zM154 722l-18 -500h-50l-18 500h86z" />
    <glyph glyph-name="quotedbl" unicode="&#x22;" horiz-adv-x="333" 
d="M197 722h50v-226h-50v226zM86 722h50v-226h-50v226z" />
    <glyph glyph-name="numbersign" unicode="#" 
d="M221 440l-22 -157h147l23 157h-148zM502 235h-113l-33 -235h-49l33 235h-148l-33 -235h-49l33 235h-118v48h124l23 157h-118v48h124l33 234h50l-33 -234h147l33 234h50l-33 -234h106v-48h-113l-22 -157h106v-48z" />
    <glyph glyph-name="dollar" unicode="$" 
d="M255 674q-29 0 -55.5 -9t-46.5 -26t-32 -41.5t-12 -54.5q0 -33 12.5 -56t33 -39t47 -26t53.5 -17v269zM303 48q31 0 60 11t51.5 30t36.5 45t14 57q0 33 -15 55.5t-39 38.5t-52.5 27t-55.5 20v-284zM255 792h48v-70q34 -2 64.5 -13t55 -27.5t42.5 -37t27 -40.5q-1 0 -7 -5
t-13.5 -11t-14 -11.5t-8.5 -6.5q-23 43 -59.5 70t-86.5 33v-282q38 -11 76.5 -26t69.5 -38.5t50.5 -57t19.5 -80.5q0 -46 -18 -81t-48 -59t-69 -36.5t-81 -12.5v-119h-48v119q-73 3 -133.5 40.5t-92.5 105.5l47 33q12 -27 30 -51t41 -41.5t50 -28t58 -10.5v297
q-36 10 -72 25t-64.5 37.5t-46 54.5t-17.5 76q0 45 15.5 79.5t42.5 57.5t63.5 34.5t78.5 12.5v70z" />
    <glyph glyph-name="percent" unicode="%" horiz-adv-x="889" 
d="M259 -10h-52l424 742h53zM246 674q-24 0 -45.5 -9t-37 -25t-24.5 -37t-9 -45t9 -45t24.5 -37t37 -25t45.5 -9t45.5 9t37 25t24.5 37t9 45t-9 45t-24.5 37t-37 25t-45.5 9zM643 280q-24 0 -45.5 -9t-37 -25t-24.5 -37t-9 -45t9 -45t24.5 -37t37 -25t45.5 -9t45.5 9t37 25
t24.5 37t9 45t-9 45t-24.5 37t-37 25t-45.5 9zM643 328q34 0 63.5 -13t52 -35.5t35.5 -52t13 -63.5t-13 -63.5t-35.5 -52t-52 -35.5t-63.5 -13t-63.5 13t-52 35.5t-35.5 52t-13 63.5t13 63.5t35.5 52t52 35.5t63.5 13zM246 722q34 0 63.5 -13t52 -35.5t35.5 -52t13 -63.5
t-13 -63.5t-35.5 -52t-52 -35.5t-63.5 -13t-63.5 13t-52 35.5t-35.5 52t-13 63.5t13 63.5t35.5 52t52 35.5t63.5 13z" />
    <glyph glyph-name="ampersand" unicode="&#x26;" horiz-adv-x="667" 
d="M218 574q0 -35 12 -69t32 -63q50 27 83 69t33 87q0 34 -19.5 57t-61.5 23q-35 0 -57 -24t-22 -80zM109 172q0 -32 13.5 -56t35 -40t49 -24t56.5 -8q32 0 57.5 7.5t45.5 18t34.5 23t23.5 21.5q-18 17 -43.5 48t-52 67t-50 71t-38.5 60q-30 -17 -54 -34.5t-41.5 -39.5
t-26.5 -49.5t-9 -64.5zM601 328q-26 -118 -91 -213q25 -26 55.5 -44.5t68.5 -20.5v-60q-48 2 -90.5 23.5t-77.5 55.5q-42 -38 -95.5 -58.5t-110.5 -20.5q-42 0 -81.5 11.5t-69.5 34.5t-48 58t-18 82q0 40 9 70.5t29 57.5t51.5 53t76.5 56q-25 37 -41 80.5t-16 87.5
q0 72 39.5 111.5t108.5 39.5q31 0 57 -9.5t45.5 -27t30.5 -43t11 -58.5q0 -37 -13 -66t-34 -54t-47.5 -46t-53.5 -41q42 -60 81.5 -120t86.5 -110q55 84 75 183z" />
    <glyph glyph-name="quotesingle" unicode="'" horiz-adv-x="222" 
d="M86 722h50v-226h-50v226z" />
    <glyph glyph-name="parenleft" unicode="(" horiz-adv-x="333" 
d="M278 732q-78 -93 -114 -200.5t-36 -206.5t36 -206.5t114 -200.5h-72q-69 93 -103.5 200.5t-34.5 206.5t34.5 206.5t103.5 200.5h72z" />
    <glyph glyph-name="parenright" unicode=")" horiz-adv-x="333" 
d="M55 -82q78 93 114 200.5t36 206.5t-36 206.5t-114 200.5h72q69 -93 103.5 -200.5t34.5 -206.5t-34.5 -206.5t-103.5 -200.5h-72z" />
    <glyph glyph-name="asterisk" unicode="*" horiz-adv-x="500" 
d="M267 581l130 53l16 -50l-140 -34l91 -103l-44 -35l-68 124l-70 -124l-45 30l93 108l-143 30l18 52l132 -51l-13 141h54z" />
    <glyph glyph-name="plus" unicode="+" horiz-adv-x="600" 
d="M273 520h54v-233h233v-54h-233v-233h-54v233h-233v54h233v233z" />
    <glyph glyph-name="comma" unicode="," horiz-adv-x="278" 
d="M182 90v-90l-63 -150h-39l58 150h-42v90h86z" />
    <glyph glyph-name="hyphen" unicode="-" horiz-adv-x="333" 
d="M42 233v54h249v-54h-249z" />
    <glyph glyph-name="hyphen" unicode="&#xad;" horiz-adv-x="333" 
d="M42 233v54h249v-54h-249z" />
    <glyph glyph-name="period" unicode="." horiz-adv-x="278" 
d="M96 0v90h86v-90h-86z" />
    <glyph glyph-name="slash" unicode="/" horiz-adv-x="278" 
d="M47 -10h-59l247 742h55z" />
    <glyph glyph-name="zero" unicode="0" 
d="M278 678q-49 0 -83.5 -23t-57 -65t-33 -100.5t-10.5 -128.5q0 -71 10.5 -129t33 -100t57 -65t83.5 -23t83.5 23t57 65t33 100t10.5 129q0 70 -10.5 128.5t-33 100.5t-57 65t-83.5 23zM278 732q66 0 113.5 -29.5t77.5 -79.5t44.5 -118t14.5 -144q0 -77 -14.5 -144.5
t-44.5 -117.5t-77.5 -79.5t-113.5 -29.5t-113.5 29.5t-77.5 79.5t-44.5 117.5t-14.5 144.5q0 76 14.5 144t44.5 118t77.5 79.5t113.5 29.5z" />
    <glyph glyph-name="one" unicode="1" 
d="M134 0v54h124v606l-138 -20v39l162 53h42v-678h120v-54h-310z" />
    <glyph glyph-name="two" unicode="2" 
d="M52 526q18 98 80 152t155 54q99 0 155.5 -54t56.5 -148q0 -35 -8 -64t-28 -58t-54.5 -60t-86.5 -68q-31 -22 -68 -50.5t-70 -59t-56 -61t-24 -55.5h396v-54h-456v42q0 19 9.5 44t36.5 58.5t75.5 78t125.5 101.5q52 39 81.5 65.5t44.5 48t18.5 42t3.5 48.5q0 33 -9.5 60.5
t-29 47.5t-49.5 31t-71 11q-65 0 -108.5 -41t-61.5 -122z" />
    <glyph glyph-name="three" unicode="3" 
d="M67 164q16 -35 35 -58t42.5 -36.5t52 -19.5t63.5 -6q91 0 134.5 40.5t43.5 117.5q0 78 -52.5 116t-155.5 38h-66v54h54q98 0 148 34t50 106q0 68 -42 98t-115 30q-51 0 -89.5 -23t-76.5 -71l-47 34q51 62 104.5 88t113.5 26q35 0 73.5 -8.5t70.5 -29t53 -54t21 -84.5
q0 -63 -26.5 -102t-89.5 -68q30 -11 55.5 -27t43.5 -38t28.5 -51t10.5 -66q0 -57 -18.5 -97.5t-51.5 -66.5t-78 -38t-99 -12q-88 0 -150 35t-93 109z" />
    <glyph glyph-name="four" unicode="4" 
d="M80 236h273v424h-7zM14 233l317 489h88v-487h109v-53h-109v-182h-66v182h-339v51z" />
    <glyph glyph-name="five" unicode="5" 
d="M72 336l32 386h359v-54h-310l-20 -251q67 64 162 64q52 0 93 -19.5t69.5 -52.5t43.5 -77t15 -93q0 -54 -16 -100t-48 -79t-79 -51.5t-109 -18.5q-68 0 -127 34t-91 101l54 35q30 -62 72 -89t100 -27q48 0 83 16t57.5 43t33 61t10.5 70q0 43 -11.5 78.5t-33 61t-53.5 39.5
t-72 14q-23 0 -47.5 -7t-46.5 -19.5t-40 -31t-28 -42.5z" />
    <glyph glyph-name="six" unicode="6" 
d="M462 225q0 37 -11.5 68.5t-34 55t-55.5 36.5t-76 13q-40 0 -73 -18.5t-57 -42.5t-37.5 -47t-13.5 -33q0 -49 13 -88.5t37 -67t57.5 -42.5t74.5 -15q85 0 130.5 48t45.5 133zM465 623q-28 32 -64 43.5t-78 11.5q-62 0 -104 -31t-68 -78.5t-37.5 -104.5t-11.5 -108
q36 41 86.5 68.5t107.5 27.5q55 0 98 -18.5t73 -50.5t45.5 -75.5t15.5 -93.5q0 -52 -19.5 -93.5t-53 -70.5t-78 -44.5t-93.5 -15.5q-75 0 -123.5 30.5t-76 79.5t-38 111t-10.5 124q0 68 16.5 138.5t51 128t89 94t131.5 36.5q48 0 90.5 -15.5t80.5 -44.5z" />
    <glyph glyph-name="seven" unicode="7" 
d="M55 722h446v-39l-307 -683h-71l308 668h-376v54z" />
    <glyph glyph-name="eight" unicode="8" 
d="M118 552q0 -29 12.5 -52t34 -41t50.5 -31t63 -22q34 9 63 22t50.5 31t34 41t12.5 52q0 64 -44.5 95t-115.5 31t-115.5 -31t-44.5 -95zM90 186q0 -37 14.5 -63.5t40 -44t59.5 -26t74 -8.5t74 8.5t59.5 26t40 44t14.5 63.5q0 29 -13 52t-37 42.5t-59 36.5t-79 35
q-44 -18 -79 -35t-59 -36.5t-37 -42.5t-13 -52zM278 732q103 0 164.5 -46t61.5 -137q0 -60 -35 -102.5t-103 -66.5q93 -42 129.5 -91t36.5 -103t-18.5 -91.5t-52 -60.5t-80.5 -33.5t-103 -10.5t-103 10.5t-80.5 33.5t-52 60.5t-18.5 91.5t36.5 103t129.5 91
q-68 24 -103 66.5t-35 102.5q0 91 61.5 137t164.5 46z" />
    <glyph glyph-name="nine" unicode="9" 
d="M84 497q0 -39 11.5 -72t34 -57t55.5 -38t76 -14q40 0 73 18.5t57 43t37.5 48t13.5 33.5q0 103 -49.5 161t-132.5 58q-85 0 -130.5 -48t-45.5 -133zM81 101q28 -26 59.5 -41.5t79.5 -15.5q63 0 106 27.5t69 72.5t37.5 101.5t11.5 114.5q-36 -42 -86.5 -70t-107.5 -28
q-55 0 -98 19.5t-73 51.5t-45.5 73.5t-15.5 85.5q0 57 19.5 101.5t53 75.5t78 47t93.5 16q75 0 123.5 -30.5t76 -79.5t38 -111t10.5 -124q0 -68 -13.5 -138.5t-45 -128t-83.5 -94t-130 -36.5q-60 0 -104.5 15.5t-82.5 44.5z" />
    <glyph glyph-name="colon" unicode=":" horiz-adv-x="278" 
d="M96 304v90h86v-90h-86zM96 0v90h86v-90h-86z" />
    <glyph glyph-name="semicolon" unicode=";" horiz-adv-x="278" 
d="M96 304v90h86v-90h-86zM182 90v-90l-63 -150h-39l58 150h-42v90h86z" />
    <glyph glyph-name="less" unicode="&#x3c;" horiz-adv-x="600" 
d="M560 -6l-520 238v56l520 238v-58l-452 -208l452 -208v-58z" />
    <glyph glyph-name="equal" unicode="=" horiz-adv-x="600" 
d="M560 133h-520v54h520v-54zM560 333h-520v54h520v-54z" />
    <glyph glyph-name="greater" unicode="&#x3e;" horiz-adv-x="600" 
d="M40 52l452 208l-452 208v58l520 -238v-56l-520 -238v58z" />
    <glyph glyph-name="question" unicode="?" horiz-adv-x="389" 
d="M116 0v90h86v-90h-86zM29 609q20 56 60.5 89.5t104.5 33.5q32 0 62 -10.5t53 -31t36.5 -51t13.5 -70.5q0 -33 -12.5 -59.5t-31.5 -50t-41 -44.5t-41 -43.5t-31.5 -47.5t-12.5 -56v-48h-54v72q0 26 11.5 49t29.5 44.5t38 43.5t38 45.5t29.5 50t11.5 57.5q0 47 -29 71.5
t-71 24.5q-25 0 -43.5 -9t-32 -22.5t-23 -30.5t-15.5 -32z" />
    <glyph glyph-name="at" unicode="@" horiz-adv-x="800" 
d="M338 189q36 0 67 25.5t54 62.5t36 79.5t13 76.5q0 18 -7 35.5t-18.5 31t-26 22t-29.5 8.5q-39 0 -71.5 -23.5t-56 -59.5t-36.5 -78t-13 -78q0 -46 25.5 -74t62.5 -28zM566 563h54l-98 -295q-5 -16 -9 -30.5t-4 -25.5q0 -29 26 -29q30 0 60 22t53 57t37.5 78t14.5 86
q0 60 -23.5 108t-62.5 82.5t-90.5 53t-106.5 18.5q-68 0 -126 -26.5t-100.5 -72t-66.5 -105.5t-24 -127q0 -66 25 -125t68.5 -103t101.5 -69.5t124 -25.5q38 0 75.5 9.5t72 27.5t64.5 43.5t53 57.5h52q-23 -42 -57.5 -76t-76 -57.5t-88.5 -36t-95 -12.5q-79 0 -146.5 29.5
t-117.5 80.5t-78.5 119t-28.5 145q0 76 29.5 143t79.5 117t116.5 79t141.5 29q70 0 131.5 -23t107.5 -64.5t72 -98t26 -123.5q0 -58 -21 -110t-53.5 -91t-73 -62t-79.5 -23q-26 0 -46 17.5t-22 52.5l-2 -2q-24 -25 -58 -46.5t-73 -21.5q-32 0 -57 12t-42.5 32t-27 47.5
t-9.5 57.5q0 53 17.5 106t49.5 95t77 68.5t99 26.5q35 0 63.5 -19.5t45.5 -65.5z" />
    <glyph glyph-name="A" unicode="A" horiz-adv-x="611" 
d="M427 290l-120 378h-2l-119 -378h241zM256 722h101l228 -722h-70l-73 236h-273l-74 -236h-70z" />
    <glyph glyph-name="B" unicode="B" horiz-adv-x="667" 
d="M166 402h157q32 0 62.5 6t54 21t38 41t14.5 66t-12.5 65.5t-37 40.5t-61 20.5t-85.5 5.5h-130v-266zM166 54h171q96 0 140 35.5t44 112.5q0 31 -11.5 58t-36.5 46.5t-64 30.5t-93 11h-150v-294zM100 722h202q134 0 195 -43.5t61 -137.5q0 -59 -24 -95t-78 -61
q60 -26 95.5 -72t35.5 -115q0 -56 -18 -94t-52 -61t-81.5 -33t-105.5 -10h-230v722z" />
    <glyph glyph-name="C" unicode="C" horiz-adv-x="611" 
d="M496 510q-23 80 -66.5 124t-109.5 44q-54 0 -92.5 -24.5t-64 -67.5t-37.5 -101t-12 -124t12 -124t38 -101t66.5 -67.5t96.5 -24.5q43 0 73.5 14.5t51.5 38.5t34.5 56t22.5 67l62 -11q-10 -48 -28.5 -88.5t-47.5 -69.5t-70.5 -45t-98.5 -16q-66 0 -117.5 26.5t-87 75.5
t-54.5 117t-19 152t19 152t54.5 117t87 75.5t117.5 26.5q48 0 86 -16t66.5 -44t47.5 -66.5t31 -82.5z" />
    <glyph glyph-name="D" unicode="D" horiz-adv-x="667" 
d="M166 54h140q121 0 183.5 80t62.5 227t-62.5 227t-183.5 80h-140v-614zM100 722h204q84 0 143.5 -29.5t97.5 -79t55.5 -115t17.5 -137.5t-17.5 -137.5t-55.5 -115t-97.5 -79t-143.5 -29.5h-204v722z" />
    <glyph glyph-name="E" unicode="E" 
d="M100 0v722h412v-54h-346v-266h249v-54h-249v-294h365v-54h-431z" />
    <glyph glyph-name="F" unicode="F" 
d="M100 0v722h424v-54h-358v-266h261v-54h-261v-348h-66z" />
    <glyph glyph-name="G" unicode="G" horiz-adv-x="667" 
d="M510 512q-8 34 -23 64.5t-38 53t-54 35.5t-71 13q-48 0 -86.5 -22t-66 -63.5t-42.5 -100t-15 -131.5q0 -58 10 -115t36 -102t70.5 -72.5t114.5 -27.5q38 0 69.5 13.5t53.5 37.5t34 55.5t12 67.5v66h-182v54h248v-338h-57v71h-2q-32 -42 -76.5 -61.5t-119.5 -19.5
q-60 0 -111 24.5t-88 71.5t-57.5 116t-20.5 159t22 159t60 116t89 71.5t109 24.5q50 0 91 -15.5t72 -43t51.5 -66t29.5 -84.5z" />
    <glyph glyph-name="H" unicode="H" horiz-adv-x="722" 
d="M100 722h66v-320h390v320h66v-722h-66v348h-390v-348h-66v722z" />
    <glyph glyph-name="I" unicode="I" horiz-adv-x="278" 
d="M106 722h66v-722h-66v722z" />
    <glyph glyph-name="J" unicode="J" horiz-adv-x="444" 
d="M53 117q11 -19 21 -32.5t23 -22.5t29.5 -13.5t40.5 -4.5q48 0 72.5 30.5t24.5 97.5v550h66v-570q0 -81 -45.5 -121.5t-121.5 -40.5q-33 0 -57 6t-43 18t-34 30t-29 42z" />
    <glyph glyph-name="K" unicode="K" horiz-adv-x="611" 
d="M100 722h66v-392l330 392h81l-233 -276l261 -446h-74l-229 398l-136 -157v-241h-66v722z" />
    <glyph glyph-name="L" unicode="L" horiz-adv-x="500" 
d="M100 722h66v-668h322v-54h-388v722z" />
    <glyph glyph-name="M" unicode="M" horiz-adv-x="833" 
d="M100 0v722h116l199 -612h2l200 612h116v-722h-66v668h-2l-217 -668h-63l-217 668h-2v-668h-66z" />
    <glyph glyph-name="N" unicode="N" horiz-adv-x="722" 
d="M100 722h111l343 -602h2v602h66v-722h-68l-386 668h-2v-668h-66v722z" />
    <glyph glyph-name="O" unicode="O" horiz-adv-x="667" 
d="M333 44q50 0 90.5 21t69 61.5t44 99.5t15.5 135t-15.5 135t-44 99.5t-69 61.5t-90.5 21t-90.5 -21t-69 -61.5t-44 -99.5t-15.5 -135t15.5 -135t44 -99.5t69 -61.5t90.5 -21zM333 732q68 0 121 -28t89.5 -77.5t55.5 -117.5t19 -148t-19 -148t-55.5 -117.5t-89.5 -77.5
t-121 -28t-121 28t-89.5 77.5t-55.5 117.5t-19 148t19 148t55.5 117.5t89.5 77.5t121 28z" />
    <glyph glyph-name="P" unicode="P" horiz-adv-x="611" 
d="M166 374h152q94 0 136 37.5t42 109.5t-42 109.5t-136 37.5h-152v-294zM100 0v722h218q64 0 110.5 -14.5t76 -40.5t43.5 -63.5t14 -82.5t-14 -82.5t-43.5 -63.5t-76 -40.5t-110.5 -14.5h-152v-320h-66z" />
    <glyph glyph-name="Q" unicode="Q" horiz-adv-x="667" 
d="M352 222q86 -15 140 -96q60 83 60 235q0 76 -15.5 135t-44 99.5t-69 61.5t-90.5 21t-90.5 -21t-69 -61.5t-44 -99.5t-15.5 -135t15.5 -135t44 -99.5t69 -61.5t90.5 -21q66 0 114 36q-12 20 -22.5 33.5t-21.5 22.5t-23.5 14t-27.5 7v65zM644 -60q-48 0 -94 20t-75 71
q-61 -41 -142 -41q-68 0 -121 28t-89.5 77.5t-55.5 117.5t-19 148t19 148t55.5 117.5t89.5 77.5t121 28t121 -28t89.5 -77.5t55.5 -117.5t19 -148q0 -92 -25 -167t-73 -125q12 -20 24 -33.5t26 -21.5t32 -11t42 -3v-60z" />
    <glyph glyph-name="R" unicode="R" horiz-adv-x="667" 
d="M166 384h178q72 0 114 37.5t42 104.5t-39 104.5t-117 37.5h-178v-284zM593 0h-72l-168 330h-187v-330h-66v722h244q107 0 164.5 -53.5t57.5 -142.5q0 -72 -36 -118t-114 -66z" />
    <glyph glyph-name="S" unicode="S" 
d="M93 202q21 -83 70.5 -120.5t135.5 -37.5q68 0 106 39t38 105q0 48 -29 77t-72.5 48.5t-94 36t-94 40t-72.5 59.5t-29 96q0 40 13.5 74.5t40 59.5t65.5 39t89 14q86 0 146 -44.5t85 -128.5l-57 -17q-20 60 -62.5 98t-111.5 38q-63 0 -102.5 -34.5t-39.5 -98.5
q0 -18 4.5 -34.5t19.5 -32t44 -32t79 -35.5q76 -29 123.5 -53.5t74.5 -51t36.5 -56.5t9.5 -69q0 -46 -18 -81.5t-48 -60t-70 -37t-84 -12.5q-104 0 -165.5 46.5t-91.5 146.5z" />
    <glyph glyph-name="T" unicode="T" 
d="M31 722h494v-54h-214v-668h-66v668h-214v54z" />
    <glyph glyph-name="U" unicode="U" horiz-adv-x="722" 
d="M166 722v-492q0 -52 12.5 -87.5t37 -57.5t61 -31.5t84.5 -9.5t84.5 9.5t61 31.5t37 57.5t12.5 87.5v492h66v-486q0 -246 -261 -246t-261 246v486h66z" />
    <glyph glyph-name="V" unicode="V" 
d="M8 722h70l196 -628h2l202 628h70l-240 -722h-66z" />
    <glyph glyph-name="W" unicode="W" horiz-adv-x="833" 
d="M16 722h67l154 -602h2l144 602h66l141 -602h2l157 602h67l-193 -722h-66l-141 594h-2l-141 -594h-66z" />
    <glyph glyph-name="X" unicode="X" 
d="M25 722h78l173 -288l169 288h78l-208 -344l229 -378h-78l-190 316l-186 -316h-78l225 378z" />
    <glyph glyph-name="Y" unicode="Y" 
d="M241 306l-221 416h74l178 -357l190 357h74l-229 -416v-306h-66v306z" />
    <glyph glyph-name="Z" unicode="Z" 
d="M77 722h428v-56l-377 -612h382v-54h-464v54l377 614h-346v54z" />
    <glyph glyph-name="bracketleft" unicode="[" horiz-adv-x="333" 
d="M274 722v-36h-126v-722h126v-36h-186v794h186z" />
    <glyph glyph-name="backslash" unicode="\" horiz-adv-x="278" 
d="M-12 732h55l247 -742h-59z" />
    <glyph glyph-name="bracketright" unicode="]" horiz-adv-x="333" 
d="M59 -72v36h126v722h-126v36h186v-794h-186z" />
    <glyph glyph-name="asciicircum" unicode="^" horiz-adv-x="600" 
d="M326 722l218 -426h-66l-180 354l-176 -354h-66l217 426h53z" />
    <glyph glyph-name="underscore" unicode="_" horiz-adv-x="500" 
d="M0 -125v50h500v-50h-500z" />
    <glyph glyph-name="grave" unicode="`" horiz-adv-x="222" 
d="M63 716l111 -138h-51l-137 138h77z" />
    <glyph glyph-name="a" unicode="a" horiz-adv-x="500" 
d="M356 294q-89 -20 -142.5 -39t-82 -39.5t-37 -42t-8.5 -46.5q0 -43 26 -66t67 -23q42 0 90 23t87 63v170zM366 0l-8 63q-23 -18 -44.5 -32t-43.5 -23t-46.5 -13.5t-54.5 -4.5q-61 0 -102 35.5t-41 100.5q0 53 21.5 87t63.5 56.5t104.5 38.5t143.5 34v36q0 52 -26 78
t-93 26q-47 0 -84.5 -24.5t-66.5 -69.5l-40 24q34 63 82 90.5t111 27.5q89 0 131.5 -38t42.5 -125v-272q0 -20 1.5 -44.5t6.5 -50.5h-58z" />
    <glyph glyph-name="b" unicode="b" 
d="M152 133q15 -20 30.5 -37.5t34.5 -30.5t41 -20t50 -7q39 0 67.5 16.5t47.5 45.5t28 68t9 84q0 51 -10 93t-30 72.5t-50.5 47.5t-70.5 17q-22 0 -45 -9.5t-43 -24t-36 -30.5t-23 -29v-256zM92 722h60v-270q19 20 37 35t37.5 24.5t41 14t47.5 4.5q45 0 83 -20t65 -56
t42 -85t15 -106q0 -134 -53.5 -203.5t-155.5 -69.5q-54 0 -96 18.5t-71 59.5l-10 -68h-42v722z" />
    <glyph glyph-name="c" unicode="c" horiz-adv-x="500" 
d="M395 374q-20 45 -51.5 76.5t-83.5 31.5q-37 0 -67 -12t-51.5 -38.5t-33.5 -69t-12 -102.5q0 -50 11 -91t32 -70t51.5 -45t69.5 -16q28 0 50 7.5t40 21.5t34 34t32 45l48 -23q-17 -28 -37 -52t-44.5 -42t-55 -28.5t-67.5 -10.5q-55 0 -96.5 20t-70 56t-43 85.5
t-14.5 108.5q0 67 16 117.5t45.5 84.5t71 51t91.5 17q74 0 120.5 -38t69.5 -103z" />
    <glyph glyph-name="d" unicode="d" 
d="M404 389q-8 13 -23.5 29t-35.5 30.5t-43 24t-45 9.5q-41 0 -71 -17t-50 -47.5t-30 -72.5t-10 -93q0 -45 9 -84t28 -68t47.5 -45.5t67.5 -16.5q55 0 91 27t65 68v256zM464 0h-42l-10 68q-29 -41 -71 -59.5t-96 -18.5q-102 0 -155.5 69.5t-53.5 203.5q0 57 15 106t42 85
t65 56t83 20q52 0 88.5 -19t74.5 -59v270h60v-722z" />
    <glyph glyph-name="e" unicode="e" horiz-adv-x="500" 
d="M398 306q-9 81 -45 128t-105 48q-40 0 -68.5 -17.5t-47 -44t-27.5 -57.5t-9 -57h302zM96 258q0 -44 9.5 -84t29.5 -70t52 -48t76 -18q25 0 44.5 5t37 17t34 32t36.5 51l49 -26q-21 -35 -42 -59t-45 -39t-53 -22t-66 -7q-102 0 -162 66.5t-60 203.5q0 60 15 110t42.5 85.5
t67 55t89.5 19.5q53 0 92 -20t65 -56t38.5 -86t12.5 -110h-362z" />
    <glyph glyph-name="f" unicode="f" horiz-adv-x="278" 
d="M156 472v-472h-60v472h-86v48h86v74q0 68 29 103t96 35q17 0 32.5 -2.5t32.5 -5.5v-50q-14 5 -28 7.5t-31 2.5q-35 0 -53 -19t-18 -64v-81h106v-48h-106z" />
    <glyph glyph-name="g" unicode="g" horiz-adv-x="500" 
d="M234 38q-44 0 -73.5 -7.5t-47.5 -19.5t-25.5 -28t-7.5 -33q0 -38 38.5 -62t119.5 -24q98 0 142 24t44 65q0 16 -8 31.5t-29 27.5t-58 19t-95 7zM105 349q0 -34 11 -58.5t29.5 -40.5t43 -23.5t51.5 -7.5q63 0 99 31t36 99q0 69 -36 101t-99 32t-99 -36t-36 -97zM481 486
q-20 0 -43.5 -4t-39.5 -20q17 -21 27 -46t10 -63q0 -48 -16 -82.5t-43.5 -56.5t-64 -32.5t-77.5 -10.5q-25 0 -44.5 4.5t-39.5 11.5q-25 -9 -36.5 -22.5t-11.5 -27.5q0 -11 5.5 -19.5t22.5 -14t48.5 -8.5t84.5 -3q117 0 169 -35.5t52 -99.5q0 -29 -12 -54.5t-39.5 -44.5
t-73 -30.5t-112.5 -11.5t-111 10.5t-69.5 27.5t-36 39.5t-10.5 45.5q0 34 18 62t73 48v2q-29 6 -49 20.5t-20 47.5q0 16 7 31t18 26.5t25 19.5t28 11q-35 24 -55 59.5t-20 76.5q0 86 55.5 136.5t150.5 50.5q38 0 67 -9.5t54 -26.5q46 46 109 46v-54z" />
    <glyph glyph-name="h" unicode="h" 
d="M82 0v722h60v-284q42 44 81.5 68t96.5 24q81 0 117.5 -45t36.5 -130v-355h-60v349q0 65 -23 99t-83 34q-24 0 -43.5 -7t-38.5 -20t-39 -31.5t-45 -40.5v-383h-60z" />
    <glyph glyph-name="i" unicode="i" horiz-adv-x="222" 
d="M81 634v88h60v-88h-60zM141 0h-60v520h60v-520z" />
    <glyph glyph-name="j" unicode="j" horiz-adv-x="222" 
d="M81 634v88h60v-88h-60zM-20 -129q11 -3 21.5 -5t20.5 -2q30 0 44.5 12.5t14.5 41.5v602h60v-603q0 -57 -28 -79t-79 -22q-14 0 -28.5 1.5t-25.5 4.5v49z" />
    <glyph glyph-name="k" unicode="k" horiz-adv-x="500" 
d="M82 0v722h60v-478l241 276h69l-169 -194l195 -326h-67l-166 284l-103 -116v-168h-60z" />
    <glyph glyph-name="l" unicode="l" horiz-adv-x="222" 
d="M81 722h60v-722h-60v722z" />
    <glyph glyph-name="m" unicode="m" horiz-adv-x="833" 
d="M82 0v520h60v-79q20 21 38 37.5t38 28t43.5 17.5t53.5 6q44 0 79.5 -25.5t46.5 -69.5q35 41 75.5 68t96.5 27q69 0 103 -36t34 -105v-389h-60v395q0 44 -23 65.5t-67 21.5q-17 0 -39 -8.5t-43.5 -22.5t-40.5 -31.5t-31 -36.5v-383h-60v395q0 44 -23 65.5t-67 21.5
q-17 0 -39 -8.5t-43.5 -22.5t-40.5 -31.5t-31 -36.5v-383h-60z" />
    <glyph glyph-name="n" unicode="n" 
d="M82 0v520h60v-82q42 44 81.5 68t96.5 24q81 0 117.5 -45t36.5 -130v-355h-60v349q0 65 -23 99t-83 34q-24 0 -43.5 -7t-38.5 -20t-39 -31.5t-45 -40.5v-383h-60z" />
    <glyph glyph-name="o" unicode="o" horiz-adv-x="500" 
d="M250 482q-81 0 -117.5 -58t-36.5 -164t36.5 -164t117.5 -58t117.5 58t36.5 164t-36.5 164t-117.5 58zM250 530q61 0 102 -22.5t66 -60t35.5 -86t10.5 -101.5t-10.5 -101.5t-35.5 -86t-66 -60t-102 -22.5t-102 22.5t-66 60t-35.5 86t-10.5 101.5t10.5 101.5t35.5 86t66 60
t102 22.5z" />
    <glyph glyph-name="p" unicode="p" 
d="M152 131q7 -13 23 -29t36 -30.5t43 -24t45 -9.5q81 0 121 60.5t40 169.5q0 40 -9 78.5t-28 68.5t-47.5 48.5t-67.5 18.5q-25 0 -45 -7.5t-38.5 -20t-36 -30t-36.5 -37.5v-256zM92 520h60v-80h2q31 45 68.5 67.5t88.5 22.5t90 -22.5t65.5 -60.5t40 -87t13.5 -103
q0 -68 -15 -118t-42 -83t-65 -49.5t-83 -16.5q-26 0 -47.5 4.5t-41 14t-37.5 24.5t-37 35v-252h-60v704z" />
    <glyph glyph-name="q" unicode="q" 
d="M404 384q-15 20 -30.5 37.5t-34.5 30t-41 19.5t-50 7q-39 0 -67.5 -16.5t-47.5 -45t-28 -67t-9 -83.5q0 -50 10 -92t30 -72t50 -47t71 -17q22 0 45 9.5t43 23.5t35.5 30t23.5 29v254zM464 -184h-60v251q-38 -40 -74.5 -58.5t-88.5 -18.5q-45 0 -83 20t-65 55.5t-42 84
t-15 105.5q0 133 53.5 202t155.5 69q54 0 94.5 -21t72.5 -56l10 67h42v-700z" />
    <glyph glyph-name="r" unicode="r" horiz-adv-x="333" 
d="M78 0v520h60v-99h2q21 48 60.5 78.5t89.5 30.5h27v-58h-27q-25 0 -51.5 -14t-49 -38t-37 -56.5t-14.5 -69.5v-294h-60z" />
    <glyph glyph-name="s" unicode="s" horiz-adv-x="444" 
d="M69 126q18 -26 36 -43t37.5 -27t40.5 -14t47 -4q25 0 46 7.5t36.5 21t24.5 31.5t9 39q0 38 -22.5 58.5t-56.5 33t-74 21.5t-74 24.5t-56.5 41.5t-22.5 72q0 37 13.5 63.5t36 44t52.5 26t63 8.5q66 0 108.5 -24.5t70.5 -69.5l-46 -32q-26 36 -57 57t-78 21
q-44 0 -73.5 -21.5t-29.5 -69.5q0 -32 22.5 -49t56.5 -28.5t74 -21.5t74 -27.5t56.5 -47.5t22.5 -80q0 -35 -15 -62.5t-40 -46t-57.5 -28.5t-67.5 -10q-60 0 -112 25t-89 80z" />
    <glyph glyph-name="t" unicode="t" horiz-adv-x="278" 
d="M88 520v170h60v-170h114v-48h-114v-381q0 -53 53 -53q15 0 31 3t30 8v-50q-15 -2 -30.5 -5.5t-30.5 -3.5q-64 0 -88.5 21.5t-24.5 69.5v391h-78v48h78z" />
    <glyph glyph-name="u" unicode="u" 
d="M474 520v-520h-60v82q-42 -44 -81.5 -68t-96.5 -24q-81 0 -117.5 45t-36.5 130v355h60v-349q0 -65 23 -99t83 -34q24 0 43.5 7t38.5 20t39 31t45 41v383h60z" />
    <glyph glyph-name="v" unicode="v" horiz-adv-x="444" 
d="M14 520h64l142 -428h2l144 428h64l-179 -520h-59z" />
    <glyph glyph-name="w" unicode="w" horiz-adv-x="667" 
d="M7 520h61l114 -418h2l119 418h59l116 -418h2l117 418h62l-151 -520h-59l-117 418h-2l-116 -418h-62z" />
    <glyph glyph-name="x" unicode="x" horiz-adv-x="444" 
d="M82 0h-72l176 276l-156 244h72l120 -188l120 188h72l-156 -244l176 -276h-72l-140 219z" />
    <glyph glyph-name="y" unicode="y" horiz-adv-x="444" 
d="M221 97h2l145 423h64l-194 -557q-13 -38 -27.5 -66t-33.5 -46t-44.5 -26.5t-60.5 -8.5q-20 0 -32.5 1.5t-23.5 4.5v49q14 -2 28.5 -4.5t31.5 -2.5q16 0 32 7.5t31.5 24.5t29 44.5t24.5 67.5l-181 512h66z" />
    <glyph glyph-name="z" unicode="z" horiz-adv-x="444" 
d="M49 520h356v-38l-300 -434h308v-48h-388v38l300 434h-276v48z" />
    <glyph glyph-name="braceleft" unicode="{" horiz-adv-x="333" 
d="M44 343q35 0 47.5 21t12.5 60v195q0 54 23 83.5t65 29.5h62v-36h-50q-20 0 -30 -12t-10 -54v-197q0 -50 -18.5 -74.5t-53.5 -32.5v-2q35 -8 53.5 -32.5t18.5 -74.5v-197q0 -42 10 -54t30 -12h50v-36h-62q-42 0 -65 29.5t-23 83.5v195q0 39 -12.5 60t-47.5 21v36z" />
    <glyph glyph-name="bar" unicode="|" horiz-adv-x="222" 
d="M84 732h54v-742h-54v742z" />
    <glyph glyph-name="braceright" unicode="}" horiz-adv-x="333" 
d="M289 307q-35 0 -47.5 -21t-12.5 -60v-195q0 -54 -23 -83.5t-65 -29.5h-62v36h50q20 0 30 12t10 54v197q0 50 18.5 74.5t53.5 32.5v2q-35 8 -53.5 32.5t-18.5 74.5v197q0 42 -10 54t-30 12h-50v36h62q42 0 65 -29.5t23 -83.5v-195q0 -39 12.5 -60t47.5 -21v-36z" />
    <glyph glyph-name="asciitilde" unicode="~" horiz-adv-x="600" 
d="M549 283q-9 -16 -20.5 -31t-28 -27t-38 -19t-48.5 -7t-57.5 9.5t-61.5 22.5q-30 12 -59 23t-52 11q-16 0 -29.5 -6t-25 -16t-21.5 -22.5t-19 -25.5l-38 42q9 15 20.5 30t28 27t38 19.5t48.5 7.5t57.5 -9.5t61.5 -22.5q30 -12 59 -23t52 -11q16 0 29.5 6t25 16t21.5 22.5
t19 25.5z" />
    <glyph glyph-name="exclamdown" unicode="&#xa1;" horiz-adv-x="222" 
d="M154 520v-90h-86v90h86zM68 -202l18 500h50l18 -500h-86z" />
    <glyph glyph-name="cent" unicode="&#xa2;" 
d="M332 474q-21 8 -44 8q-37 0 -67 -12t-51.5 -38.5t-33.5 -69t-12 -102.5q0 -66 19 -116t56 -77zM245 44q19 -6 43 -6q28 0 50 7.5t40 21.5t34 34t32 45l48 -23q-17 -28 -37 -52t-44.5 -42t-55 -28.5t-67.5 -10.5q-15 0 -29.5 1.5t-28.5 5.5l-38 -117h-54l44 135
q-59 32 -88.5 96t-29.5 149q0 67 16 117.5t45.5 84.5t71 51t91.5 17q30 0 59 -8l35 107h54l-42 -128q58 -37 84 -112l-55 -15q-9 20 -20.5 38.5t-26.5 33.5z" />
    <glyph glyph-name="sterling" unicode="&#xa3;" 
d="M16 52q32 14 54 37.5t35.5 52.5t19.5 61.5t6 65.5q0 17 -1.5 33.5t-3.5 32.5h-111v48h105q-3 37 -8.5 73.5t-5.5 73.5q0 46 14.5 83t40.5 63.5t63.5 41t83.5 14.5q87 0 142.5 -49.5t70.5 -133.5l-58 -14q-14 66 -49 104.5t-107 38.5q-73 0 -107 -41.5t-34 -109.5
q0 -36 5 -72.5t11 -71.5h146v-48h-140q0 -13 1.5 -26t1.5 -27q0 -24 -2 -45t-6 -41t-11 -40t-17 -42q18 -12 39 -24t43.5 -22.5t45.5 -17t45 -6.5q30 0 53.5 6.5t42 22t32 41.5t23.5 65l56 -12q-17 -85 -65.5 -131t-131.5 -46q-36 0 -64.5 6.5t-53 17t-47 25t-45.5 29.5
q-21 -29 -49 -50t-63 -28v62z" />
    <glyph glyph-name="currency" unicode="&#xa4;" 
d="M278 161q40 0 75.5 16t61.5 43.5t41.5 63.5t15.5 77q0 40 -15.5 76.5t-41.5 64t-61.5 43.5t-75.5 16t-75.5 -16t-61.5 -43.5t-41.5 -64t-15.5 -76.5q0 -41 15.5 -77t41.5 -63.5t61.5 -43.5t75.5 -16zM526 571l-54 -54q29 -33 41.5 -73.5t12.5 -82.5t-12.5 -82.5
t-41.5 -73.5l54 -54l-38 -38l-56 55q-33 -28 -72.5 -41.5t-81.5 -13.5t-81.5 13.5t-72.5 41.5l-56 -55l-38 38l54 54q-29 33 -41.5 73.5t-12.5 82.5t12.5 82.5t41.5 73.5l-54 54l38 38l56 -55q33 28 72.5 41.5t81.5 13.5t81.5 -13.5t72.5 -41.5l56 55z" />
    <glyph glyph-name="yen" unicode="&#xa5;" 
d="M483 392h-130l-46 -86v-12h176v-48h-176v-246h-66v246h-176v48h176v12l-44 86h-132v48h108l-145 282h66l178 -357l190 357h66l-150 -282h105v-48z" />
    <glyph glyph-name="brokenbar" unicode="&#xa6;" horiz-adv-x="222" 
d="M84 732h54v-280h-54v280zM84 270h54v-280h-54v280z" />
    <glyph glyph-name="section" unicode="&#xa7;" horiz-adv-x="500" 
d="M178 466q-11 0 -23 -4.5t-21.5 -12t-15.5 -19t-6 -24.5q0 -14 11.5 -35t29.5 -45t40.5 -48.5t44 -43.5t40.5 -31.5t30 -12.5q32 0 50 20t18 50q0 12 -10.5 31.5t-28 42.5t-39 46.5t-43.5 42.5t-42.5 31t-34.5 12zM359 609q-18 36 -45 57.5t-69 21.5q-34 0 -55.5 -19
t-21.5 -61q0 -21 19 -45.5t48 -51.5t62 -56t62 -60t48 -62.5t19 -62.5t-8.5 -51.5t-23 -33.5t-34.5 -19.5t-43 -7.5q23 -27 39 -59t16 -68q0 -29 -12 -50t-31.5 -34.5t-45 -20t-51.5 -6.5q-46 0 -87 25.5t-59 67.5l42 27q13 -32 41 -54t64 -22q42 0 65.5 18t23.5 56
q0 22 -19.5 49.5t-48 57.5t-62.5 62t-62.5 64.5t-48 64t-19.5 60.5q0 48 34.5 75t82.5 27l2 2q-25 18 -44 47t-19 69q0 51 36.5 83.5t95.5 32.5q52 0 89.5 -26t59.5 -72z" />
    <glyph glyph-name="dieresis" unicode="&#xa8;" horiz-adv-x="222" 
d="M222 682v-94h-66v94h66zM66 682v-94h-66v94h66z" />
    <glyph glyph-name="copyright" unicode="&#xa9;" horiz-adv-x="800" 
d="M598 285q-17 -71 -66.5 -115t-120.5 -44q-51 0 -93 18t-71 50t-45 75t-16 93t15 93t43.5 74.5t70 49t93.5 17.5q36 0 68.5 -10t58 -30t42 -49t21.5 -66h-54q-10 44 -45 74.5t-90 30.5q-39 0 -69.5 -14.5t-51 -39t-31.5 -58t-11 -71.5q0 -36 11.5 -70t33 -60t52 -41.5
t68.5 -15.5q54 0 89 32t44 77h54zM400 40q67 0 124 25t98.5 68.5t65 102t23.5 125.5t-23.5 125.5t-65 102t-98.5 68.5t-124 25t-124 -25t-98.5 -68.5t-65 -102t-23.5 -125.5t23.5 -125.5t65 -102t98.5 -68.5t124 -25zM400 732q77 0 144.5 -29.5t118 -79.5t79.5 -118t29 -144
q0 -77 -29 -144.5t-79.5 -117.5t-118 -79.5t-144.5 -29.5t-144.5 29.5t-118 79.5t-79.5 117.5t-29 144.5q0 76 29 144t79.5 118t118 79.5t144.5 29.5z" />
    <glyph glyph-name="ordfeminine" unicode="&#xaa;" horiz-adv-x="300" 
d="M216 580q-17 -5 -43 -11t-50.5 -15.5t-42.5 -24t-18 -37.5q0 -18 13.5 -30t36.5 -12q28 0 57.5 13t46.5 33v84zM27 663q23 37 53 53t77 16q57 0 83 -22.5t26 -73.5v-156q0 -23 1.5 -35.5t4.5 -28.5h-44l-5 38q-26 -23 -52 -33.5t-65 -10.5q-40 0 -67 21.5t-27 59.5
q0 39 22.5 62t55 36t67.5 20t59 14v25q0 20 -13.5 32t-50.5 12q-32 0 -53.5 -12t-39.5 -37z" />
    <glyph glyph-name="guillemotleft" unicode="&#xab;" horiz-adv-x="500" 
d="M145 262l124 -156h-66l-121 156l121 152h66zM293 262l125 -156h-66l-122 156l122 152h66z" />
    <glyph glyph-name="logicalnot" unicode="&#xac;" horiz-adv-x="600" 
d="M506 333h-466v54h520v-254h-54v200z" />
    <glyph glyph-name="registered" unicode="&#xae;" horiz-adv-x="800" 
d="M391 386q22 0 44 0.5t39.5 7.5t28.5 22t11 44q0 23 -8.5 37t-22 21.5t-31 10t-34.5 2.5h-96v-145h69zM322 140h-60v441h169q75 0 109 -31t34 -91q0 -29 -9 -50.5t-23 -36t-32.5 -23.5t-37.5 -13l123 -196h-68l-120 196h-85v-196zM400 40q67 0 124 25t98.5 68.5t65 102
t23.5 125.5t-23.5 125.5t-65 102t-98.5 68.5t-124 25t-124 -25t-98.5 -68.5t-65 -102t-23.5 -125.5t23.5 -125.5t65 -102t98.5 -68.5t124 -25zM400 732q77 0 144.5 -29.5t118 -79.5t79.5 -118t29 -144q0 -77 -29 -144.5t-79.5 -117.5t-118 -79.5t-144.5 -29.5t-144.5 29.5
t-118 79.5t-79.5 117.5t-29 144.5q0 76 29 144t79.5 118t118 79.5t144.5 29.5z" />
    <glyph glyph-name="macron" unicode="&#xaf;" horiz-adv-x="222" 
d="M-37 661h296v-44h-296v44z" />
    <glyph glyph-name="macron" unicode="&#x2c9;" horiz-adv-x="222" 
d="M-37 661h296v-44h-296v44z" />
    <glyph glyph-name="degree" unicode="&#xb0;" horiz-adv-x="400" 
d="M200 690q-45 0 -72.5 -29.5t-27.5 -74.5t27.5 -74.5t72.5 -29.5t72.5 29.5t27.5 74.5t-27.5 74.5t-72.5 29.5zM200 732q31 0 57.5 -11.5t46 -31t31 -46.5t11.5 -57t-11.5 -57t-31 -46.5t-46 -31t-57.5 -11.5t-57.5 11.5t-46 31t-31 46.5t-11.5 57t11.5 57t31 46.5t46 31
t57.5 11.5z" />
    <glyph glyph-name="plusminus" unicode="&#xb1;" horiz-adv-x="600" 
d="M40 54h520v-54h-520v54zM273 520h54v-185h233v-54h-233v-185h-54v185h-233v54h233v185z" />
    <glyph glyph-name="twosuperior" unicode="&#xb2;" horiz-adv-x="333" 
d="M23 608q11 59 52 91.5t104 32.5q62 0 99 -34t37 -96q0 -31 -12.5 -53.5t-32.5 -41t-45 -35t-49 -34.5q-54 -41 -80 -62.5t-28 -39.5h246v-44h-298v33q0 13 3.5 26t16.5 29.5t37 37.5t66 50q39 26 63.5 45t38 35t18 29.5t4.5 28.5q0 37 -22 59.5t-60 22.5q-45 0 -73 -21
t-39 -66z" />
    <glyph glyph-name="threesuperior" unicode="&#xb3;" horiz-adv-x="333" 
d="M43 396q21 -38 47 -52t72 -14q53 0 80 22.5t27 60.5q0 46 -33 66.5t-93 20.5h-43v44h35q57 0 88 18t31 60q0 32 -25 49t-60 17q-20 0 -34.5 -2t-27 -7.5t-23.5 -15t-23 -25.5l-36 23q29 40 62 55.5t78 15.5q26 0 51 -6.5t45 -19.5t32.5 -33t12.5 -47q0 -38 -12.5 -62
t-53.5 -40q39 -14 60 -39.5t21 -70.5q0 -34 -12 -58.5t-33.5 -40t-51 -22.5t-64.5 -7q-57 0 -97.5 21t-60.5 65z" />
    <glyph glyph-name="acute" unicode="&#xb4;" horiz-adv-x="222" 
d="M236 716l-137 -138h-51l111 138h77z" />
    <glyph glyph-name="mu" unicode="&#xb5;" 
d="M474 520v-520h-60v82q-42 -44 -81.5 -68t-96.5 -24q-60 0 -94 24v-198h-60v704h60v-349q0 -65 23 -99t83 -34q24 0 43.5 7t38.5 20t39 31t45 41v383h60z" />
    <glyph glyph-name="mu" unicode="&#x3bc;" 
d="M474 520v-520h-60v82q-42 -44 -81.5 -68t-96.5 -24q-60 0 -94 24v-198h-60v704h60v-349q0 -65 23 -99t83 -34q24 0 43.5 7t38.5 20t39 31t45 41v383h60z" />
    <glyph glyph-name="paragraph" unicode="&#xb6;" horiz-adv-x="500" 
d="M223 336q-44 0 -82 15t-65.5 41t-43.5 60.5t-16 73.5q0 95 58.5 145.5t164.5 50.5h263v-44h-74v-758h-50v758h-105v-758h-50v416z" />
    <glyph glyph-name="periodcentered" unicode="&#xb7;" horiz-adv-x="278" 
d="M139 310q20 0 35 -14.5t15 -35.5t-15 -35.5t-35 -14.5t-35 14.5t-15 35.5t15 35.5t35 14.5z" />
    <glyph glyph-name="periodcentered" unicode="&#x2219;" horiz-adv-x="278" 
d="M139 310q20 0 35 -14.5t15 -35.5t-15 -35.5t-35 -14.5t-35 14.5t-15 35.5t15 35.5t35 14.5z" />
    <glyph glyph-name="cedilla" unicode="&#xb8;" horiz-adv-x="222" 
d="M14 -152q12 -5 29 -10.5t30 -5.5q66 0 66 41q0 21 -14 31t-31 10q-12 0 -24 -2.5t-20 -6.5l-15 13l60 82h38l-43 -50l2 -2q5 2 13 4t18 2q36 0 57 -22.5t21 -61.5q0 -20 -10 -34.5t-26 -24.5t-34.5 -14.5t-34.5 -4.5q-25 0 -49.5 4.5t-46.5 15.5z" />
    <glyph glyph-name="onesuperior" unicode="&#xb9;" horiz-adv-x="333" 
d="M73 292v44h73v346l-82 -20v37l93 33h41v-396h77v-44h-202z" />
    <glyph glyph-name="ordmasculine" unicode="&#xba;" horiz-adv-x="300" 
d="M66 571q0 -57 18 -86t66 -29t65.5 29t17.5 86q0 56 -17.5 85.5t-65.5 29.5t-66 -29.5t-18 -85.5zM150 732q39 0 66 -13.5t43 -35.5t23 -51.5t7 -60.5q0 -32 -7 -61t-23 -51t-43 -35.5t-66 -13.5q-40 0 -66.5 13.5t-43 35.5t-23.5 51t-7 61q0 31 7 60.5t23.5 51.5t43 35.5
t66.5 13.5z" />
    <glyph glyph-name="guillemotright" unicode="&#xbb;" horiz-adv-x="500" 
d="M355 258l-124 156h66l121 -156l-121 -152h-66zM207 258l-125 156h66l122 -156l-122 -152h-66z" />
    <glyph glyph-name="onequarter" unicode="&#xbc;" horiz-adv-x="834" 
d="M518 148h155v226h-4zM97 292v44h73v346l-82 -20v37l93 33h41v-396h77v-44h-202zM625 732h57l-442 -742h-59zM462 152l196 282h67v-286h71v-44h-71v-104h-52v104h-211v48z" />
    <glyph glyph-name="onehalf" unicode="&#xbd;" horiz-adv-x="834" 
d="M97 292v44h73v346l-82 -20v37l93 33h41v-396h77v-44h-202zM613 732h57l-442 -742h-59zM499 316q11 59 52 91.5t104 32.5q62 0 99 -34t37 -96q0 -31 -12.5 -53.5t-32.5 -41t-45 -35t-49 -34.5q-54 -41 -80 -62.5t-28 -39.5h246v-44h-298v33q0 13 3.5 26t16.5 29.5t37 37.5
t66 50q39 26 63.5 45t38 35t18 29.5t4.5 28.5q0 37 -22 59.5t-60 22.5q-45 0 -73 -21t-39 -66z" />
    <glyph glyph-name="threequarters" unicode="&#xbe;" horiz-adv-x="834" 
d="M518 148h155v226h-4zM641 732h57l-442 -742h-59zM71 396q21 -38 47 -52t72 -14q53 0 80 22.5t27 60.5q0 46 -33 66.5t-93 20.5h-43v44h35q57 0 88 18t31 60q0 32 -25 49t-60 17q-20 0 -34.5 -2t-27 -7.5t-23.5 -15t-23 -25.5l-36 23q29 40 62 55.5t78 15.5q26 0 51 -6.5
t45 -19.5t32.5 -33t12.5 -47q0 -38 -12.5 -62t-53.5 -40q39 -14 60 -39.5t21 -70.5q0 -34 -12 -58.5t-33.5 -40t-51 -22.5t-64.5 -7q-57 0 -97.5 21t-60.5 65zM462 152l196 282h67v-286h71v-44h-71v-104h-52v104h-211v48z" />
    <glyph glyph-name="questiondown" unicode="&#xbf;" horiz-adv-x="389" 
d="M273 520v-90h-86v90h86zM360 -89q-20 -56 -60.5 -89.5t-104.5 -33.5q-32 0 -62 10.5t-53 31t-36.5 51t-13.5 70.5q0 33 12.5 59.5t31.5 50t41 44.5t41 43.5t31.5 47.5t12.5 56v48h54v-72q0 -26 -11.5 -49t-29.5 -44.5t-38 -43.5t-38 -45.5t-29.5 -50t-11.5 -57.5
q0 -47 29 -71.5t71 -24.5q25 0 43.5 9t32 22.5t23 30.5t15.5 32z" />
    <glyph glyph-name="Agrave" unicode="&#xc0;" horiz-adv-x="611" 
d="M255 891l111 -138h-51l-137 138h77zM427 290l-120 378h-2l-119 -378h241zM256 722h101l228 -722h-70l-73 236h-273l-74 -236h-70z" />
    <glyph glyph-name="Aacute" unicode="&#xc1;" horiz-adv-x="611" 
d="M428 891l-137 -138h-51l111 138h77zM427 290l-120 378h-2l-119 -378h241zM256 722h101l228 -722h-70l-73 236h-273l-74 -236h-70z" />
    <glyph glyph-name="Acircumflex" unicode="&#xc2;" horiz-adv-x="611" 
d="M451 753h-66l-82 101l-82 -101h-66l114 138h68zM427 290l-120 378h-2l-119 -378h241zM256 722h101l228 -722h-70l-73 236h-273l-74 -236h-70z" />
    <glyph glyph-name="Atilde" unicode="&#xc3;" horiz-adv-x="611" 
d="M146 764q1 17 8 34.5t18.5 31.5t27 22.5t34.5 8.5t37.5 -7t36.5 -15q19 -8 36 -15t33 -7q20 0 31 15.5t14 33.5h38q-3 -19 -9 -36.5t-16.5 -31t-26 -21.5t-37.5 -8q-16 0 -34.5 7.5t-37.5 15.5t-36.5 15t-31.5 7q-22 0 -33 -15.5t-14 -34.5h-38zM427 290l-120 378h-2
l-119 -378h241zM256 722h101l228 -722h-70l-73 236h-273l-74 -236h-70z" />
    <glyph glyph-name="Adieresis" unicode="&#xc4;" horiz-adv-x="611" 
d="M414 857v-94h-66v94h66zM258 857v-94h-66v94h66zM427 290l-120 378h-2l-119 -378h241zM256 722h101l228 -722h-70l-73 236h-273l-74 -236h-70z" />
    <glyph glyph-name="Aring" unicode="&#xc5;" horiz-adv-x="611" 
d="M303 915q-27 0 -46.5 -19t-19.5 -47t19.5 -47t46.5 -19t46.5 19t19.5 47t-19.5 47t-46.5 19zM303 949q20 0 38.5 -8t32 -21.5t21.5 -31.5t8 -39t-8 -39.5t-21.5 -32t-32 -21t-38.5 -7.5t-38.5 7.5t-32 21t-21.5 32t-8 39.5t8 39t21.5 31.5t32 21.5t38.5 8zM427 290
l-120 378h-2l-119 -378h241zM256 722h101l228 -722h-70l-73 236h-273l-74 -236h-70z" />
    <glyph glyph-name="AE" unicode="&#xc6;" horiz-adv-x="944" 
d="M479 290v376h-17l-212 -376h229zM420 722h465v-54h-340v-266h243v-54h-243v-294h359v-54h-425v236h-261l-126 -236h-74z" />
    <glyph glyph-name="Ccedilla" unicode="&#xc7;" horiz-adv-x="611" 
d="M216 -152q12 -5 29 -10.5t30 -5.5q66 0 66 41q0 21 -14 31t-31 10q-12 0 -24 -2.5t-20 -6.5l-15 13l54 74q-58 7 -103 36t-76 77t-47.5 113t-16.5 143q0 84 19 152t54.5 117t87 75.5t117.5 26.5q48 0 86 -16t66.5 -44t47.5 -66.5t31 -82.5l-61 -13q-23 80 -66.5 124
t-109.5 44q-54 0 -92.5 -24.5t-64 -67.5t-37.5 -101t-12 -124t12 -124t38 -101t66.5 -67.5t96.5 -24.5q43 0 73.5 14.5t51.5 38.5t34.5 56t22.5 67l62 -11q-10 -48 -28.5 -88.5t-47.5 -69.5t-70.5 -45t-98.5 -16l-34 -40l2 -2q5 2 13 4t18 2q36 0 57 -22.5t21 -61.5
q0 -20 -10 -34.5t-26 -24.5t-34.5 -14.5t-34.5 -4.5q-25 0 -49.5 4.5t-46.5 15.5z" />
    <glyph glyph-name="Egrave" unicode="&#xc8;" 
d="M260 891l111 -138h-51l-137 138h77zM100 0v722h412v-54h-346v-266h249v-54h-249v-294h365v-54h-431z" />
    <glyph glyph-name="Eacute" unicode="&#xc9;" 
d="M433 891l-137 -138h-51l111 138h77zM100 0v722h412v-54h-346v-266h249v-54h-249v-294h365v-54h-431z" />
    <glyph glyph-name="Ecircumflex" unicode="&#xca;" 
d="M456 753h-66l-82 101l-82 -101h-66l114 138h68zM100 0v722h412v-54h-346v-266h249v-54h-249v-294h365v-54h-431z" />
    <glyph glyph-name="Edieresis" unicode="&#xcb;" 
d="M263 857v-94h-66v94h66zM419 857v-94h-66v94h66zM100 0v722h412v-54h-346v-266h249v-54h-249v-294h365v-54h-431z" />
    <glyph glyph-name="Igrave" unicode="&#xcc;" horiz-adv-x="278" 
d="M84 891l111 -138h-51l-137 138h77zM106 722h66v-722h-66v722z" />
    <glyph glyph-name="Iacute" unicode="&#xcd;" horiz-adv-x="278" 
d="M257 891l-137 -138h-51l111 138h77zM106 722h66v-722h-66v722z" />
    <glyph glyph-name="Icircumflex" unicode="&#xce;" horiz-adv-x="278" 
d="M280 753h-66l-82 101l-82 -101h-66l114 138h68zM106 722h66v-722h-66v722z" />
    <glyph glyph-name="Idieresis" unicode="&#xcf;" horiz-adv-x="278" 
d="M87 857v-94h-66v94h66zM243 857v-94h-66v94h66zM106 722h66v-722h-66v722z" />
    <glyph glyph-name="Eth" unicode="&#xd0;" horiz-adv-x="667" 
d="M362 402v-54h-196v-294h140q121 0 183.5 80t62.5 227t-62.5 227t-183.5 80h-140v-266h196zM100 402v320h204q84 0 143.5 -29.5t97.5 -79t55.5 -115t17.5 -137.5t-17.5 -137.5t-55.5 -115t-97.5 -79t-143.5 -29.5h-204v348h-90v54h90z" />
    <glyph glyph-name="Ntilde" unicode="&#xd1;" horiz-adv-x="722" 
d="M204 764q1 17 8 34.5t18.5 31.5t27 22.5t34.5 8.5t37.5 -7t36.5 -15q19 -8 36 -15t33 -7q20 0 31 15.5t14 33.5h38q-3 -19 -9 -36.5t-16.5 -31t-26 -21.5t-37.5 -8q-16 0 -34.5 7.5t-37.5 15.5t-36.5 15t-31.5 7q-22 0 -33 -15.5t-14 -34.5h-38zM100 722h111l343 -602h2
v602h66v-722h-68l-386 668h-2v-668h-66v722z" />
    <glyph glyph-name="Ograve" unicode="&#xd2;" horiz-adv-x="667" 
d="M286 891l111 -138h-51l-137 138h77zM333 44q50 0 90.5 21t69 61.5t44 99.5t15.5 135t-15.5 135t-44 99.5t-69 61.5t-90.5 21t-90.5 -21t-69 -61.5t-44 -99.5t-15.5 -135t15.5 -135t44 -99.5t69 -61.5t90.5 -21zM333 732q68 0 121 -28t89.5 -77.5t55.5 -117.5t19 -148
t-19 -148t-55.5 -117.5t-89.5 -77.5t-121 -28t-121 28t-89.5 77.5t-55.5 117.5t-19 148t19 148t55.5 117.5t89.5 77.5t121 28z" />
    <glyph glyph-name="Oacute" unicode="&#xd3;" horiz-adv-x="667" 
d="M459 891l-137 -138h-51l111 138h77zM333 44q50 0 90.5 21t69 61.5t44 99.5t15.5 135t-15.5 135t-44 99.5t-69 61.5t-90.5 21t-90.5 -21t-69 -61.5t-44 -99.5t-15.5 -135t15.5 -135t44 -99.5t69 -61.5t90.5 -21zM333 732q68 0 121 -28t89.5 -77.5t55.5 -117.5t19 -148
t-19 -148t-55.5 -117.5t-89.5 -77.5t-121 -28t-121 28t-89.5 77.5t-55.5 117.5t-19 148t19 148t55.5 117.5t89.5 77.5t121 28z" />
    <glyph glyph-name="Ocircumflex" unicode="&#xd4;" horiz-adv-x="667" 
d="M482 753h-66l-82 101l-82 -101h-66l114 138h68zM333 44q50 0 90.5 21t69 61.5t44 99.5t15.5 135t-15.5 135t-44 99.5t-69 61.5t-90.5 21t-90.5 -21t-69 -61.5t-44 -99.5t-15.5 -135t15.5 -135t44 -99.5t69 -61.5t90.5 -21zM333 732q68 0 121 -28t89.5 -77.5t55.5 -117.5
t19 -148t-19 -148t-55.5 -117.5t-89.5 -77.5t-121 -28t-121 28t-89.5 77.5t-55.5 117.5t-19 148t19 148t55.5 117.5t89.5 77.5t121 28z" />
    <glyph glyph-name="Otilde" unicode="&#xd5;" horiz-adv-x="667" 
d="M177 764q1 17 8 34.5t18.5 31.5t27 22.5t34.5 8.5t37.5 -7t36.5 -15q19 -8 36 -15t33 -7q20 0 31 15.5t14 33.5h38q-3 -19 -9 -36.5t-16.5 -31t-26 -21.5t-37.5 -8q-16 0 -34.5 7.5t-37.5 15.5t-36.5 15t-31.5 7q-22 0 -33 -15.5t-14 -34.5h-38zM333 44q50 0 90.5 21
t69 61.5t44 99.5t15.5 135t-15.5 135t-44 99.5t-69 61.5t-90.5 21t-90.5 -21t-69 -61.5t-44 -99.5t-15.5 -135t15.5 -135t44 -99.5t69 -61.5t90.5 -21zM333 732q68 0 121 -28t89.5 -77.5t55.5 -117.5t19 -148t-19 -148t-55.5 -117.5t-89.5 -77.5t-121 -28t-121 28
t-89.5 77.5t-55.5 117.5t-19 148t19 148t55.5 117.5t89.5 77.5t121 28z" />
    <glyph glyph-name="Odieresis" unicode="&#xd6;" horiz-adv-x="667" 
d="M445 857v-94h-66v94h66zM289 857v-94h-66v94h66zM333 44q50 0 90.5 21t69 61.5t44 99.5t15.5 135t-15.5 135t-44 99.5t-69 61.5t-90.5 21t-90.5 -21t-69 -61.5t-44 -99.5t-15.5 -135t15.5 -135t44 -99.5t69 -61.5t90.5 -21zM333 732q68 0 121 -28t89.5 -77.5t55.5 -117.5
t19 -148t-19 -148t-55.5 -117.5t-89.5 -77.5t-121 -28t-121 28t-89.5 77.5t-55.5 117.5t-19 148t19 148t55.5 117.5t89.5 77.5t121 28z" />
    <glyph glyph-name="multiply" unicode="&#xd7;" horiz-adv-x="600" 
d="M338 260l222 -222l-38 -38l-222 222l-222 -222l-38 38l222 222l-222 222l38 38l222 -222l222 222l38 -38z" />
    <glyph glyph-name="Oslash" unicode="&#xd8;" horiz-adv-x="667" 
d="M198 99q52 -55 135 -55q50 0 90.5 21t69 61.5t44 99.5t15.5 135q0 138 -49 216zM469 622q-53 56 -136 56q-50 0 -90.5 -21t-69 -61.5t-44 -99.5t-15.5 -135q0 -136 49 -217zM538 633q39 -49 59.5 -118.5t20.5 -153.5q0 -80 -19 -148t-55.5 -117.5t-89.5 -77.5t-121 -28
q-51 0 -92.5 15.5t-74.5 43.5l-62 -97h-63l87 137q-40 51 -60 120.5t-20 151.5q0 80 19 148t55.5 117.5t89.5 77.5t121 28q51 0 93 -15.5t75 -44.5l62 98h63z" />
    <glyph glyph-name="Ugrave" unicode="&#xd9;" horiz-adv-x="722" 
d="M308 891l111 -138h-51l-137 138h77zM166 722v-492q0 -52 12.5 -87.5t37 -57.5t61 -31.5t84.5 -9.5t84.5 9.5t61 31.5t37 57.5t12.5 87.5v492h66v-486q0 -246 -261 -246t-261 246v486h66z" />
    <glyph glyph-name="Uacute" unicode="&#xda;" horiz-adv-x="722" 
d="M481 891l-137 -138h-51l111 138h77zM166 722v-492q0 -52 12.5 -87.5t37 -57.5t61 -31.5t84.5 -9.5t84.5 9.5t61 31.5t37 57.5t12.5 87.5v492h66v-486q0 -246 -261 -246t-261 246v486h66z" />
    <glyph glyph-name="Ucircumflex" unicode="&#xdb;" horiz-adv-x="722" 
d="M504 753h-66l-82 101l-82 -101h-66l114 138h68zM166 722v-492q0 -52 12.5 -87.5t37 -57.5t61 -31.5t84.5 -9.5t84.5 9.5t61 31.5t37 57.5t12.5 87.5v492h66v-486q0 -246 -261 -246t-261 246v486h66z" />
    <glyph glyph-name="Udieresis" unicode="&#xdc;" horiz-adv-x="722" 
d="M311 857v-94h-66v94h66zM467 857v-94h-66v94h66zM166 722v-492q0 -52 12.5 -87.5t37 -57.5t61 -31.5t84.5 -9.5t84.5 9.5t61 31.5t37 57.5t12.5 87.5v492h66v-486q0 -246 -261 -246t-261 246v486h66z" />
    <glyph glyph-name="Yacute" unicode="&#xdd;" 
d="M403 891l-137 -138h-51l111 138h77zM241 306l-221 416h74l178 -357l190 357h74l-229 -416v-306h-66v306z" />
    <glyph glyph-name="Thorn" unicode="&#xde;" horiz-adv-x="611" 
d="M166 224h152q94 0 136 37.5t42 109.5t-42 109.5t-136 37.5h-152v-294zM166 0h-66v722h66v-150h152q64 0 110.5 -14.5t76 -40.5t43.5 -63.5t14 -82.5t-14 -82.5t-43.5 -63.5t-76 -40.5t-110.5 -14.5h-152v-170z" />
    <glyph glyph-name="germandbls" unicode="&#xdf;" horiz-adv-x="500" 
d="M76 0v533q0 85 43.5 137t132.5 52q38 0 70 -13.5t54.5 -37.5t35 -56.5t12.5 -70.5q0 -50 -23.5 -89t-68.5 -61q68 -21 102.5 -71.5t34.5 -121.5q0 -97 -44 -154t-127 -57q-21 0 -47.5 6t-44.5 17l21 45q16 -8 36 -14t38 -6q52 0 80 42t28 114q0 91 -46 128.5t-136 37.5
v48q66 2 101.5 33t35.5 105q0 60 -30 94t-91 34q-32 0 -52.5 -12t-32.5 -31.5t-17 -44.5t-5 -50v-536h-60z" />
    <glyph glyph-name="agrave" unicode="&#xe0;" horiz-adv-x="500" 
d="M202 716l111 -138h-51l-137 138h77zM356 294q-89 -20 -142.5 -39t-82 -39.5t-37 -42t-8.5 -46.5q0 -43 26 -66t67 -23q42 0 90 23t87 63v170zM366 0l-8 63q-23 -18 -44.5 -32t-43.5 -23t-46.5 -13.5t-54.5 -4.5q-61 0 -102 35.5t-41 100.5q0 53 21.5 87t63.5 56.5
t104.5 38.5t143.5 34v36q0 52 -26 78t-93 26q-47 0 -84.5 -24.5t-66.5 -69.5l-40 24q34 63 82 90.5t111 27.5q89 0 131.5 -38t42.5 -125v-272q0 -20 1.5 -44.5t6.5 -50.5h-58z" />
    <glyph glyph-name="aacute" unicode="&#xe1;" horiz-adv-x="500" 
d="M375 716l-137 -138h-51l111 138h77zM356 294q-89 -20 -142.5 -39t-82 -39.5t-37 -42t-8.5 -46.5q0 -43 26 -66t67 -23q42 0 90 23t87 63v170zM366 0l-8 63q-23 -18 -44.5 -32t-43.5 -23t-46.5 -13.5t-54.5 -4.5q-61 0 -102 35.5t-41 100.5q0 53 21.5 87t63.5 56.5
t104.5 38.5t143.5 34v36q0 52 -26 78t-93 26q-47 0 -84.5 -24.5t-66.5 -69.5l-40 24q34 63 82 90.5t111 27.5q89 0 131.5 -38t42.5 -125v-272q0 -20 1.5 -44.5t6.5 -50.5h-58z" />
    <glyph glyph-name="acircumflex" unicode="&#xe2;" horiz-adv-x="500" 
d="M398 578h-66l-82 101l-82 -101h-66l114 138h68zM356 294q-89 -20 -142.5 -39t-82 -39.5t-37 -42t-8.5 -46.5q0 -43 26 -66t67 -23q42 0 90 23t87 63v170zM366 0l-8 63q-23 -18 -44.5 -32t-43.5 -23t-46.5 -13.5t-54.5 -4.5q-61 0 -102 35.5t-41 100.5q0 53 21.5 87
t63.5 56.5t104.5 38.5t143.5 34v36q0 52 -26 78t-93 26q-47 0 -84.5 -24.5t-66.5 -69.5l-40 24q34 63 82 90.5t111 27.5q89 0 131.5 -38t42.5 -125v-272q0 -20 1.5 -44.5t6.5 -50.5h-58z" />
    <glyph glyph-name="atilde" unicode="&#xe3;" horiz-adv-x="500" 
d="M93 589q1 17 8 34.5t18.5 31.5t27 22.5t34.5 8.5t37.5 -7t36.5 -15q19 -8 36 -15t33 -7q20 0 31 15.5t14 33.5h38q-3 -19 -9 -36.5t-16.5 -31t-26 -21.5t-37.5 -8q-16 0 -34.5 7.5t-37.5 15.5t-36.5 15t-31.5 7q-22 0 -33 -15.5t-14 -34.5h-38zM356 294
q-89 -20 -142.5 -39t-82 -39.5t-37 -42t-8.5 -46.5q0 -43 26 -66t67 -23q42 0 90 23t87 63v170zM366 0l-8 63q-23 -18 -44.5 -32t-43.5 -23t-46.5 -13.5t-54.5 -4.5q-61 0 -102 35.5t-41 100.5q0 53 21.5 87t63.5 56.5t104.5 38.5t143.5 34v36q0 52 -26 78t-93 26
q-47 0 -84.5 -24.5t-66.5 -69.5l-40 24q34 63 82 90.5t111 27.5q89 0 131.5 -38t42.5 -125v-272q0 -20 1.5 -44.5t6.5 -50.5h-58z" />
    <glyph glyph-name="adieresis" unicode="&#xe4;" horiz-adv-x="500" 
d="M361 682v-94h-66v94h66zM205 682v-94h-66v94h66zM356 294q-89 -20 -142.5 -39t-82 -39.5t-37 -42t-8.5 -46.5q0 -43 26 -66t67 -23q42 0 90 23t87 63v170zM366 0l-8 63q-23 -18 -44.5 -32t-43.5 -23t-46.5 -13.5t-54.5 -4.5q-61 0 -102 35.5t-41 100.5q0 53 21.5 87
t63.5 56.5t104.5 38.5t143.5 34v36q0 52 -26 78t-93 26q-47 0 -84.5 -24.5t-66.5 -69.5l-40 24q34 63 82 90.5t111 27.5q89 0 131.5 -38t42.5 -125v-272q0 -20 1.5 -44.5t6.5 -50.5h-58z" />
    <glyph glyph-name="aring" unicode="&#xe5;" horiz-adv-x="500" 
d="M250 740q-27 0 -46.5 -19t-19.5 -47t19.5 -47t46.5 -19t46.5 19t19.5 47t-19.5 47t-46.5 19zM250 774q20 0 38.5 -8t32 -21.5t21.5 -31.5t8 -39t-8 -39.5t-21.5 -32t-32 -21t-38.5 -7.5t-38.5 7.5t-32 21t-21.5 32t-8 39.5t8 39t21.5 31.5t32 21.5t38.5 8zM356 294
q-89 -20 -142.5 -39t-82 -39.5t-37 -42t-8.5 -46.5q0 -43 26 -66t67 -23q42 0 90 23t87 63v170zM366 0l-8 63q-23 -18 -44.5 -32t-43.5 -23t-46.5 -13.5t-54.5 -4.5q-61 0 -102 35.5t-41 100.5q0 53 21.5 87t63.5 56.5t104.5 38.5t143.5 34v36q0 52 -26 78t-93 26
q-47 0 -84.5 -24.5t-66.5 -69.5l-40 24q34 63 82 90.5t111 27.5q89 0 131.5 -38t42.5 -125v-272q0 -20 1.5 -44.5t6.5 -50.5h-58z" />
    <glyph glyph-name="ae" unicode="&#xe6;" horiz-adv-x="778" 
d="M676 306q-9 81 -40.5 128.5t-97.5 47.5q-34 0 -59 -14t-42.5 -38t-27 -56t-11.5 -68h278zM338 294q-83 -20 -132.5 -39t-76 -39.5t-35 -42t-8.5 -46.5q0 -43 26 -66t67 -23q21 0 43.5 6t44 17t40 27t31.5 36v170zM398 258q0 -44 7.5 -84t24.5 -70t44 -48t67 -18
q25 0 44.5 5t37 17t34 32t36.5 51l49 -26q-21 -35 -42 -59t-45 -39t-53 -22t-66 -7q-53 0 -94.5 23.5t-71.5 64.5q-42 -52 -93 -70t-108 -18q-61 0 -102 35.5t-41 100.5q0 53 21 87t61.5 56.5t98 38.5t131.5 34v36q0 20 -6 38.5t-19 33t-34 23.5t-51 9q-55 0 -87 -24.5
t-50 -71.5l-44 26q26 63 70 90.5t107 27.5q24 0 47 -4t44 -14t38 -26t29 -41q29 42 69.5 63.5t88.5 21.5q52 0 89.5 -20t61 -56t34.5 -86t11 -110h-338z" />
    <glyph glyph-name="ccedilla" unicode="&#xe7;" horiz-adv-x="500" 
d="M153 -152q12 -5 29 -10.5t30 -5.5q66 0 66 41q0 21 -14 31t-31 10q-12 0 -24 -2.5t-20 -6.5l-15 13l54 74q-47 6 -83 28t-60 57t-36.5 82t-12.5 101q0 67 16 117.5t45.5 84.5t71 51t91.5 17q74 0 120.5 -38t69.5 -103l-55 -15q-20 45 -51.5 76.5t-83.5 31.5
q-37 0 -67 -12t-51.5 -38.5t-33.5 -69t-12 -102.5q0 -50 11 -91t32 -70t51.5 -45t69.5 -16q28 0 50 7.5t40 21.5t34 34t32 45l48 -23q-33 -55 -80.5 -93t-120.5 -40l-34 -40l2 -2q5 2 13 4t18 2q36 0 57 -22.5t21 -61.5q0 -20 -10 -34.5t-26 -24.5t-34.5 -14.5t-34.5 -4.5
q-25 0 -49.5 4.5t-46.5 15.5z" />
    <glyph glyph-name="egrave" unicode="&#xe8;" horiz-adv-x="500" 
d="M202 716l111 -138h-51l-137 138h77zM398 306q-9 81 -45 128t-105 48q-40 0 -68.5 -17.5t-47 -44t-27.5 -57.5t-9 -57h302zM96 258q0 -44 9.5 -84t29.5 -70t52 -48t76 -18q25 0 44.5 5t37 17t34 32t36.5 51l49 -26q-21 -35 -42 -59t-45 -39t-53 -22t-66 -7
q-102 0 -162 66.5t-60 203.5q0 60 15 110t42.5 85.5t67 55t89.5 19.5q53 0 92 -20t65 -56t38.5 -86t12.5 -110h-362z" />
    <glyph glyph-name="eacute" unicode="&#xe9;" horiz-adv-x="500" 
d="M375 716l-137 -138h-51l111 138h77zM398 306q-9 81 -45 128t-105 48q-40 0 -68.5 -17.5t-47 -44t-27.5 -57.5t-9 -57h302zM96 258q0 -44 9.5 -84t29.5 -70t52 -48t76 -18q25 0 44.5 5t37 17t34 32t36.5 51l49 -26q-21 -35 -42 -59t-45 -39t-53 -22t-66 -7
q-102 0 -162 66.5t-60 203.5q0 60 15 110t42.5 85.5t67 55t89.5 19.5q53 0 92 -20t65 -56t38.5 -86t12.5 -110h-362z" />
    <glyph glyph-name="ecircumflex" unicode="&#xea;" horiz-adv-x="500" 
d="M398 578h-66l-82 101l-82 -101h-66l114 138h68zM398 306q-9 81 -45 128t-105 48q-40 0 -68.5 -17.5t-47 -44t-27.5 -57.5t-9 -57h302zM96 258q0 -44 9.5 -84t29.5 -70t52 -48t76 -18q25 0 44.5 5t37 17t34 32t36.5 51l49 -26q-21 -35 -42 -59t-45 -39t-53 -22t-66 -7
q-102 0 -162 66.5t-60 203.5q0 60 15 110t42.5 85.5t67 55t89.5 19.5q53 0 92 -20t65 -56t38.5 -86t12.5 -110h-362z" />
    <glyph glyph-name="edieresis" unicode="&#xeb;" horiz-adv-x="500" 
d="M361 682v-94h-66v94h66zM205 682v-94h-66v94h66zM398 306q-9 81 -45 128t-105 48q-40 0 -68.5 -17.5t-47 -44t-27.5 -57.5t-9 -57h302zM96 258q0 -44 9.5 -84t29.5 -70t52 -48t76 -18q25 0 44.5 5t37 17t34 32t36.5 51l49 -26q-21 -35 -42 -59t-45 -39t-53 -22t-66 -7
q-102 0 -162 66.5t-60 203.5q0 60 15 110t42.5 85.5t67 55t89.5 19.5q53 0 92 -20t65 -56t38.5 -86t12.5 -110h-362z" />
    <glyph glyph-name="igrave" unicode="&#xec;" horiz-adv-x="222" 
d="M63 716l111 -138h-51l-137 138h77zM141 0h-60v520h60v-520z" />
    <glyph glyph-name="iacute" unicode="&#xed;" horiz-adv-x="222" 
d="M236 716l-137 -138h-51l111 138h77zM141 0h-60v520h60v-520z" />
    <glyph glyph-name="icircumflex" unicode="&#xee;" horiz-adv-x="222" 
d="M259 578h-66l-82 101l-82 -101h-66l114 138h68zM141 0h-60v520h60v-520z" />
    <glyph glyph-name="idieresis" unicode="&#xef;" horiz-adv-x="222" 
d="M66 682v-94h-66v94h66zM222 682v-94h-66v94h66zM141 0h-60v520h60v-520z" />
    <glyph glyph-name="eth" unicode="&#xf0;" horiz-adv-x="500" 
d="M250 482q-81 0 -117.5 -58t-36.5 -164t36.5 -164t117.5 -58t117.5 58t36.5 164t-36.5 164t-117.5 58zM227 722q20 -13 37 -26t33 -27l102 53l28 -40l-93 -49q39 -42 64 -87.5t39.5 -93t20.5 -96t6 -96.5q0 -53 -10.5 -101.5t-35.5 -86t-66 -60t-102 -22.5t-102 22.5
t-66 60t-35.5 86t-10.5 101.5t10.5 101.5t35.5 86t66 60t102 22.5q58 0 99 -22l2 2q-28 52 -68 97l-102 -53l-28 40l93 49q-33 30 -72 53z" />
    <glyph glyph-name="ntilde" unicode="&#xf1;" 
d="M114 589q1 17 8 34.5t18.5 31.5t27 22.5t34.5 8.5t37.5 -7t36.5 -15q19 -8 36 -15t33 -7q20 0 31 15.5t14 33.5h38q-3 -19 -9 -36.5t-16.5 -31t-26 -21.5t-37.5 -8q-16 0 -34.5 7.5t-37.5 15.5t-36.5 15t-31.5 7q-22 0 -33 -15.5t-14 -34.5h-38zM82 0v520h60v-82
q42 44 81.5 68t96.5 24q81 0 117.5 -45t36.5 -130v-355h-60v349q0 65 -23 99t-83 34q-24 0 -43.5 -7t-38.5 -20t-39 -31.5t-45 -40.5v-383h-60z" />
    <glyph glyph-name="ograve" unicode="&#xf2;" horiz-adv-x="500" 
d="M197 716l111 -138h-51l-137 138h77zM250 482q-81 0 -117.5 -58t-36.5 -164t36.5 -164t117.5 -58t117.5 58t36.5 164t-36.5 164t-117.5 58zM250 530q61 0 102 -22.5t66 -60t35.5 -86t10.5 -101.5t-10.5 -101.5t-35.5 -86t-66 -60t-102 -22.5t-102 22.5t-66 60t-35.5 86
t-10.5 101.5t10.5 101.5t35.5 86t66 60t102 22.5z" />
    <glyph glyph-name="oacute" unicode="&#xf3;" horiz-adv-x="500" 
d="M370 716l-137 -138h-51l111 138h77zM250 482q-81 0 -117.5 -58t-36.5 -164t36.5 -164t117.5 -58t117.5 58t36.5 164t-36.5 164t-117.5 58zM250 530q61 0 102 -22.5t66 -60t35.5 -86t10.5 -101.5t-10.5 -101.5t-35.5 -86t-66 -60t-102 -22.5t-102 22.5t-66 60t-35.5 86
t-10.5 101.5t10.5 101.5t35.5 86t66 60t102 22.5z" />
    <glyph glyph-name="ocircumflex" unicode="&#xf4;" horiz-adv-x="500" 
d="M393 578h-66l-82 101l-82 -101h-66l114 138h68zM250 482q-81 0 -117.5 -58t-36.5 -164t36.5 -164t117.5 -58t117.5 58t36.5 164t-36.5 164t-117.5 58zM250 530q61 0 102 -22.5t66 -60t35.5 -86t10.5 -101.5t-10.5 -101.5t-35.5 -86t-66 -60t-102 -22.5t-102 22.5t-66 60
t-35.5 86t-10.5 101.5t10.5 101.5t35.5 86t66 60t102 22.5z" />
    <glyph glyph-name="otilde" unicode="&#xf5;" horiz-adv-x="500" 
d="M88 589q1 17 8 34.5t18.5 31.5t27 22.5t34.5 8.5t37.5 -7t36.5 -15q19 -8 36 -15t33 -7q20 0 31 15.5t14 33.5h38q-3 -19 -9 -36.5t-16.5 -31t-26 -21.5t-37.5 -8q-16 0 -34.5 7.5t-37.5 15.5t-36.5 15t-31.5 7q-22 0 -33 -15.5t-14 -34.5h-38zM250 482q-81 0 -117.5 -58
t-36.5 -164t36.5 -164t117.5 -58t117.5 58t36.5 164t-36.5 164t-117.5 58zM250 530q61 0 102 -22.5t66 -60t35.5 -86t10.5 -101.5t-10.5 -101.5t-35.5 -86t-66 -60t-102 -22.5t-102 22.5t-66 60t-35.5 86t-10.5 101.5t10.5 101.5t35.5 86t66 60t102 22.5z" />
    <glyph glyph-name="odieresis" unicode="&#xf6;" horiz-adv-x="500" 
d="M356 682v-94h-66v94h66zM200 682v-94h-66v94h66zM250 482q-81 0 -117.5 -58t-36.5 -164t36.5 -164t117.5 -58t117.5 58t36.5 164t-36.5 164t-117.5 58zM250 530q61 0 102 -22.5t66 -60t35.5 -86t10.5 -101.5t-10.5 -101.5t-35.5 -86t-66 -60t-102 -22.5t-102 22.5t-66 60
t-35.5 86t-10.5 101.5t10.5 101.5t35.5 86t66 60t102 22.5z" />
    <glyph glyph-name="divide" unicode="&#xf7;" horiz-adv-x="600" 
d="M300 534q23 0 40 -17t17 -40t-17 -40t-40 -17t-40 17t-17 40t17 40t40 17zM300 100q23 0 40 -17t17 -40t-17 -40t-40 -17t-40 17t-17 40t17 40t40 17zM40 233v54h520v-54h-520z" />
    <glyph glyph-name="oslash" unicode="&#xf8;" horiz-adv-x="500" 
d="M160 67q35 -29 90 -29q81 0 117.5 58t36.5 164q0 101 -31 153zM341 452q-36 30 -91 30q-81 0 -117.5 -58t-36.5 -164q0 -100 32 -154zM405 465q32 -38 45.5 -91.5t13.5 -113.5q0 -53 -10.5 -101.5t-35.5 -86t-66 -60t-102 -22.5q-37 0 -66 8.5t-51 24.5l-63 -103h-56
l82 134q-33 38 -46.5 92t-13.5 114q0 53 10.5 101.5t35.5 86t66 60t102 22.5q71 0 118 -33l63 103h57z" />
    <glyph glyph-name="ugrave" unicode="&#xf9;" 
d="M230 716l111 -138h-51l-137 138h77zM474 520v-520h-60v82q-42 -44 -81.5 -68t-96.5 -24q-81 0 -117.5 45t-36.5 130v355h60v-349q0 -65 23 -99t83 -34q24 0 43.5 7t38.5 20t39 31t45 41v383h60z" />
    <glyph glyph-name="uacute" unicode="&#xfa;" 
d="M403 716l-137 -138h-51l111 138h77zM474 520v-520h-60v82q-42 -44 -81.5 -68t-96.5 -24q-81 0 -117.5 45t-36.5 130v355h60v-349q0 -65 23 -99t83 -34q24 0 43.5 7t38.5 20t39 31t45 41v383h60z" />
    <glyph glyph-name="ucircumflex" unicode="&#xfb;" 
d="M426 578h-66l-82 101l-82 -101h-66l114 138h68zM474 520v-520h-60v82q-42 -44 -81.5 -68t-96.5 -24q-81 0 -117.5 45t-36.5 130v355h60v-349q0 -65 23 -99t83 -34q24 0 43.5 7t38.5 20t39 31t45 41v383h60z" />
    <glyph glyph-name="udieresis" unicode="&#xfc;" 
d="M233 682v-94h-66v94h66zM389 682v-94h-66v94h66zM474 520v-520h-60v82q-42 -44 -81.5 -68t-96.5 -24q-81 0 -117.5 45t-36.5 130v355h60v-349q0 -65 23 -99t83 -34q24 0 43.5 7t38.5 20t39 31t45 41v383h60z" />
    <glyph glyph-name="yacute" unicode="&#xfd;" horiz-adv-x="444" 
d="M347 716l-137 -138h-51l111 138h77zM221 97h2l145 423h64l-194 -557q-13 -38 -27.5 -66t-33.5 -46t-44.5 -26.5t-60.5 -8.5q-20 0 -32.5 1.5t-23.5 4.5v49q14 -2 28.5 -4.5t31.5 -2.5q16 0 32 7.5t31.5 24.5t29 44.5t24.5 67.5l-181 512h66z" />
    <glyph glyph-name="thorn" unicode="&#xfe;" 
d="M152 131q7 -13 23 -29t36 -30.5t43 -24t45 -9.5q81 0 121 60.5t40 169.5q0 40 -9 78.5t-28 68.5t-47.5 48.5t-67.5 18.5q-25 0 -45 -7.5t-38.5 -20t-36 -30t-36.5 -37.5v-256zM92 722h60v-282h2q31 45 68.5 67.5t88.5 22.5t90 -22.5t65.5 -60.5t40 -87t13.5 -103
q0 -68 -15 -118t-42 -83t-65 -49.5t-83 -16.5q-26 0 -47.5 4.5t-41 14t-37.5 24.5t-37 35v-252h-60v906z" />
    <glyph glyph-name="ydieresis" unicode="&#xff;" horiz-adv-x="444" 
d="M177 682v-94h-66v94h66zM333 682v-94h-66v94h66zM221 97h2l145 423h64l-194 -557q-13 -38 -27.5 -66t-33.5 -46t-44.5 -26.5t-60.5 -8.5q-20 0 -32.5 1.5t-23.5 4.5v49q14 -2 28.5 -4.5t31.5 -2.5q16 0 32 7.5t31.5 24.5t29 44.5t24.5 67.5l-181 512h66z" />
    <glyph glyph-name="dotlessi" unicode="&#x131;" horiz-adv-x="222" 
d="M141 0h-60v520h60v-520z" />
    <glyph glyph-name="Lslash" unicode="&#x141;" horiz-adv-x="500" 
d="M166 351v-297h322v-54h-388v324l-84 -34v62l84 34v336h66v-309l170 68v-62z" />
    <glyph glyph-name="lslash" unicode="&#x142;" horiz-adv-x="222" 
d="M141 0h-60v334l-80 -42v64l80 42v324h60v-293l80 41v-64l-80 -41v-365z" />
    <glyph glyph-name="OE" unicode="&#x152;" horiz-adv-x="1000" 
d="M534 578q0 48 -35 74t-107 26q-71 0 -123 -23t-86.5 -64.5t-51.5 -100t-17 -129.5q0 -152 65.5 -234.5t212.5 -82.5q72 0 107 26t35 74v434zM556 0q-50 0 -99 -5t-87 -5q-87 0 -148 27t-99.5 76t-56.5 117.5t-18 150.5q0 76 20.5 143.5t61 118t100.5 80t140 29.5
q21 0 46 -1.5t49.5 -3.5t47 -3.5t39.5 -1.5h389v-54h-341v-266h244v-54h-244v-294h360v-54h-404z" />
    <glyph glyph-name="oe" unicode="&#x153;" horiz-adv-x="833" 
d="M731 306q-9 81 -42 128.5t-100 47.5q-36 0 -61.5 -14t-42 -38t-25 -56t-10.5 -68h281zM96 260q0 -106 36 -164t114 -58q73 0 108.5 58t35.5 164t-35.5 164t-108.5 58q-78 0 -114 -58t-36 -164zM450 258q0 -44 7.5 -84t24.5 -70t45 -48t69 -18q25 0 44.5 5t37 17t34 32
t36.5 51l49 -26q-21 -35 -42 -59t-45 -39t-53 -22t-66 -7q-63 0 -105.5 28.5t-69.5 85.5q-21 -48 -61.5 -81t-108.5 -33q-59 0 -99.5 22.5t-65 60t-35 86t-10.5 101.5t10.5 101.5t35 86t65 60t99.5 22.5q68 0 110 -32.5t62 -80.5q8 20 22 40.5t35 36.5t49.5 26t65.5 10
q52 0 89.5 -20t62.5 -56t37 -86t12 -110h-341z" />
    <glyph glyph-name="Scaron" unicode="&#x160;" 
d="M130 891h66l82 -101l82 101h66l-114 -138h-68zM93 202q21 -83 70.5 -120.5t135.5 -37.5q68 0 106 39t38 105q0 48 -29 77t-72.5 48.5t-94 36t-94 40t-72.5 59.5t-29 96q0 40 13.5 74.5t40 59.5t65.5 39t89 14q86 0 146 -44.5t85 -128.5l-57 -17q-20 60 -62.5 98
t-111.5 38q-63 0 -102.5 -34.5t-39.5 -98.5q0 -18 4.5 -34.5t19.5 -32t44 -32t79 -35.5q76 -29 123.5 -53.5t74.5 -51t36.5 -56.5t9.5 -69q0 -46 -18 -81.5t-48 -60t-70 -37t-84 -12.5q-104 0 -165.5 46.5t-91.5 146.5z" />
    <glyph glyph-name="scaron" unicode="&#x161;" horiz-adv-x="444" 
d="M74 716h66l82 -101l82 101h66l-114 -138h-68zM69 126q18 -26 36 -43t37.5 -27t40.5 -14t47 -4q25 0 46 7.5t36.5 21t24.5 31.5t9 39q0 38 -22.5 58.5t-56.5 33t-74 21.5t-74 24.5t-56.5 41.5t-22.5 72q0 37 13.5 63.5t36 44t52.5 26t63 8.5q66 0 108.5 -24.5t70.5 -69.5
l-46 -32q-26 36 -57 57t-78 21q-44 0 -73.5 -21.5t-29.5 -69.5q0 -32 22.5 -49t56.5 -28.5t74 -21.5t74 -27.5t56.5 -47.5t22.5 -80q0 -35 -15 -62.5t-40 -46t-57.5 -28.5t-67.5 -10q-60 0 -112 25t-89 80z" />
    <glyph glyph-name="Ydieresis" unicode="&#x178;" 
d="M233 857v-94h-66v94h66zM389 857v-94h-66v94h66zM241 306l-221 416h74l178 -357l190 357h74l-229 -416v-306h-66v306z" />
    <glyph glyph-name="Zcaron" unicode="&#x17d;" 
d="M130 891h66l82 -101l82 101h66l-114 -138h-68zM77 722h428v-56l-377 -612h382v-54h-464v54l377 614h-346v54z" />
    <glyph glyph-name="zcaron" unicode="&#x17e;" horiz-adv-x="444" 
d="M74 716h66l82 -101l82 101h66l-114 -138h-68zM49 520h356v-38l-300 -434h308v-48h-388v38l300 434h-276v48z" />
    <glyph glyph-name="florin" unicode="&#x192;" 
d="M490 681q-17 3 -32 3q-46 0 -70.5 -24.5t-36.5 -61.5t-17 -80.5t-12 -82.5h127v-48h-132l-59 -398q-5 -35 -17.5 -66.5t-33.5 -55t-50.5 -37.5t-68.5 -14q-20 0 -39 3l7 54q8 -3 17.5 -6t17.5 -3q29 0 48.5 12.5t32.5 35t21 55t14 72.5l51 348h-134v48h139q3 27 7.5 59.5
t12 65.5t19.5 64t30.5 55t45 38.5t62.5 14.5q15 0 30 -1t29 -5z" />
    <glyph glyph-name="circumflex" unicode="&#x2c6;" horiz-adv-x="222" 
d="M259 578h-66l-82 101l-82 -101h-66l114 138h68z" />
    <glyph glyph-name="caron" unicode="&#x2c7;" horiz-adv-x="222" 
d="M-37 716h66l82 -101l82 101h66l-114 -138h-68z" />
    <glyph glyph-name="breve" unicode="&#x2d8;" horiz-adv-x="222" 
d="M111 628q40 0 68.5 18t37.5 63h38q-4 -59 -42.5 -93t-101.5 -34t-101.5 34t-42.5 93h38q9 -45 37.5 -63t68.5 -18z" />
    <glyph glyph-name="dotaccent" unicode="&#x2d9;" horiz-adv-x="222" 
d="M144 682v-94h-66v94h66z" />
    <glyph glyph-name="ring" unicode="&#x2da;" horiz-adv-x="222" 
d="M111 740q-27 0 -46.5 -19t-19.5 -47t19.5 -47t46.5 -19t46.5 19t19.5 47t-19.5 47t-46.5 19zM111 774q20 0 38.5 -8t32 -21.5t21.5 -31.5t8 -39t-8 -39.5t-21.5 -32t-32 -21t-38.5 -7.5t-38.5 7.5t-32 21t-21.5 32t-8 39.5t8 39t21.5 31.5t32 21.5t38.5 8z" />
    <glyph glyph-name="ogonek" unicode="&#x2db;" horiz-adv-x="222" 
d="M215 10q-21 -8 -47.5 -19t-49.5 -26.5t-38.5 -36t-15.5 -47.5q0 -17 17.5 -32t39.5 -15q12 0 25.5 4.5t27.5 11t27 13.5t23 13l14 -30q-14 -9 -31.5 -18.5t-36 -17t-37.5 -12t-37 -4.5q-38 0 -66 18t-28 62q0 37 23 62t56 41.5t70 26t64 15.5v-9z" />
    <glyph glyph-name="tilde" unicode="&#x2dc;" horiz-adv-x="222" 
d="M-46 589q1 17 8 34.5t18.5 31.5t27 22.5t34.5 8.5t37.5 -7t36.5 -15q19 -8 36 -15t33 -7q20 0 31 15.5t14 33.5h38q-3 -19 -9 -36.5t-16.5 -31t-26 -21.5t-37.5 -8q-16 0 -34.5 7.5t-37.5 15.5t-36.5 15t-31.5 7q-22 0 -33 -15.5t-14 -34.5h-38z" />
    <glyph glyph-name="hungarumlaut" unicode="&#x2dd;" horiz-adv-x="222" 
d="M162 716l-121 -138h-49l93 138h77zM301 716l-137 -138h-51l111 138h77z" />
    <glyph glyph-name="endash" unicode="&#x2013;" horiz-adv-x="500" 
d="M0 238v44h500v-44h-500z" />
    <glyph glyph-name="emdash" unicode="&#x2014;" horiz-adv-x="1000" 
d="M1000 238h-1000v44h1000v-44z" />
    <glyph glyph-name="quoteleft" unicode="&#x2018;" horiz-adv-x="222" 
d="M60 492v90l63 150h39l-58 -150h42v-90h-86z" />
    <glyph glyph-name="quoteright" unicode="&#x2019;" horiz-adv-x="222" 
d="M162 722v-90l-63 -150h-39l58 150h-42v90h86z" />
    <glyph glyph-name="quotesinglbase" unicode="&#x201a;" horiz-adv-x="222" 
d="M162 90v-90l-63 -150h-39l58 150h-42v90h86z" />
    <glyph glyph-name="quotedblleft" unicode="&#x201c;" horiz-adv-x="444" 
d="M264 492v90l63 150h39l-58 -150h42v-90h-86zM97 492v90l63 150h39l-58 -150h42v-90h-86z" />
    <glyph glyph-name="quotedblright" unicode="&#x201d;" horiz-adv-x="444" 
d="M180 722v-90l-63 -150h-39l58 150h-42v90h86zM347 722v-90l-63 -150h-39l58 150h-42v90h86z" />
    <glyph glyph-name="quotedblbase" unicode="&#x201e;" horiz-adv-x="444" 
d="M180 90v-90l-63 -150h-39l58 150h-42v90h86zM347 90v-90l-63 -150h-39l58 150h-42v90h86z" />
    <glyph glyph-name="dagger" unicode="&#x2020;" horiz-adv-x="500" 
d="M236 -80l-20 404l18 177l-152 -18v62l152 -17l-14 204h60l-14 -204l152 17v-62l-152 18l18 -177l-20 -404h-28z" />
    <glyph glyph-name="daggerdbl" unicode="&#x2021;" horiz-adv-x="500" 
d="M418 483l-152 18l18 -175l-18 -175l152 18v-62l-152 17l14 -204h-60l14 204l-152 -17v62l152 -18l-18 175l18 175l-152 -18v62l152 -17l-14 204h60l-14 -204l152 17v-62z" />
    <glyph glyph-name="bullet" unicode="&#x2022;" horiz-adv-x="500" 
d="M69 361q0 37 14 70t38.5 57.5t57 38.5t70.5 14q37 0 70 -14t58 -38.5t39 -57.5t14 -70q0 -38 -14 -70.5t-39 -57.5t-58 -39t-70 -14q-38 0 -70.5 14t-57 39t-38.5 57.5t-14 70.5z" />
    <glyph glyph-name="ellipsis" unicode="&#x2026;" horiz-adv-x="1000" 
d="M457 0v90h86v-90h-86zM790 0v90h86v-90h-86zM124 0v90h86v-90h-86z" />
    <glyph glyph-name="perthousand" unicode="&#x2030;" horiz-adv-x="1000" 
d="M836 253q-22 0 -41 -8.5t-33.5 -23t-23 -33.5t-8.5 -40t8.5 -40t23 -33.5t33.5 -23t41 -8.5t41 8.5t33.5 23t23 33.5t8.5 40t-8.5 40t-23 33.5t-33.5 23t-41 8.5zM164 678q-22 0 -41 -8.5t-33.5 -23t-23 -33.5t-8.5 -40t8.5 -40t23 -33.5t33.5 -23t41 -8.5t41 8.5
t33.5 23t23 33.5t8.5 40t-8.5 40t-23 33.5t-33.5 23t-41 8.5zM467 253q-22 0 -41 -8.5t-33.5 -23t-23 -33.5t-8.5 -40t8.5 -40t23 -33.5t33.5 -23t41 -8.5t41 8.5t33.5 23t23 33.5t8.5 40t-8.5 40t-23 33.5t-33.5 23t-41 8.5zM136 -10h-52l408 742h52zM467 297
q31 0 58.5 -12t47.5 -32t32 -47.5t12 -57.5t-12 -57.5t-32 -47.5t-47.5 -32t-58.5 -12t-58.5 12t-47.5 32t-32 47.5t-12 57.5t12 57.5t32 47.5t47.5 32t58.5 12zM164 722q31 0 58.5 -12t47.5 -32t32 -47.5t12 -57.5t-12 -57.5t-32 -47.5t-47.5 -32t-58.5 -12t-58.5 12
t-47.5 32t-32 47.5t-12 57.5t12 57.5t32 47.5t47.5 32t58.5 12zM836 297q31 0 58.5 -12t47.5 -32t32 -47.5t12 -57.5t-12 -57.5t-32 -47.5t-47.5 -32t-58.5 -12t-58.5 12t-47.5 32t-32 47.5t-12 57.5t12 57.5t32 47.5t47.5 32t58.5 12z" />
    <glyph glyph-name="guilsinglleft" unicode="&#x2039;" horiz-adv-x="333" 
d="M127 262l124 -156h-66l-121 156l121 152h66z" />
    <glyph glyph-name="guilsinglright" unicode="&#x203a;" horiz-adv-x="333" 
d="M206 258l-124 156h66l121 -156l-121 -152h-66z" />
    <glyph glyph-name="fraction" unicode="&#x2044;" horiz-adv-x="167" 
d="M277 732h57l-442 -742h-59z" />
    <glyph glyph-name="fraction" unicode="&#x2215;" horiz-adv-x="167" 
d="M277 732h57l-442 -742h-59z" />
    <glyph glyph-name="Euro" unicode="&#x20ac;" 
d="M508 545q-12 26 -30.5 50t-42 42.5t-51 29.5t-58.5 11q-45 0 -78 -21.5t-55 -55.5t-33.5 -76.5t-13.5 -84.5h326l-16 -48h-312q-1 -9 -1 -19v-18q0 -15 0.5 -30.5t1.5 -30.5h277l-16 -48h-255q5 -39 19 -75.5t36 -64.5t53 -45t71 -17q60 0 103 28.5t75 79.5v-77
q-32 -42 -79.5 -63.5t-99.5 -21.5q-57 0 -100 22t-72.5 58t-47 82t-24.5 94h-69l16 48h47q-1 14 -1.5 28.5t-0.5 30.5v19q0 10 1 20h-62l17 48h48q5 60 23 113.5t48.5 93t74.5 62.5t101 23q63 0 117 -28.5t87 -85.5z" />
    <glyph glyph-name="trademark" unicode="&#x2122;" horiz-adv-x="990" 
d="M374 678h-133v-368h-50v368h-137v44h320v-44zM666 394l129 328h85v-412h-50v368h-2l-149 -368h-30l-149 368h-2v-368h-50v412h85z" />
    <glyph glyph-name="minus" unicode="&#x2212;" horiz-adv-x="600" 
d="M40 233v54h520v-54h-520z" />
    <glyph glyph-name="fi" unicode="&#xfb01;" horiz-adv-x="500" 
d="M359 634v88h60v-88h-60zM419 0h-60v520h60v-520zM156 472v-472h-60v472h-86v48h86v74q0 68 29 103t96 35q17 0 32.5 -2.5t32.5 -5.5v-50q-14 5 -28 7.5t-31 2.5q-35 0 -53 -19t-18 -64v-81h106v-48h-106z" />
    <glyph glyph-name="fl" unicode="&#xfb02;" horiz-adv-x="500" 
d="M359 722h60v-722h-60v722zM156 472v-472h-60v472h-86v48h86v74q0 68 29 103t96 35q17 0 32.5 -2.5t32.5 -5.5v-50q-14 5 -28 7.5t-31 2.5q-35 0 -53 -19t-18 -64v-81h106v-48h-106z" />
    <glyph glyph-name="nonbreakingspace" horiz-adv-x="278" 
 />
    <glyph glyph-name="hyphenminus" horiz-adv-x="333" 
d="M42 233v54h249v-54h-249z" />
    </font>
</defs>
</svg>
