<?xml version="1.0" standalone="no"?>
<!DOCTYPE svg PUBLIC "-//W3C//DTD SVG 1.1//EN" "http://www.w3.org/Graphics/SVG/1.1/DTD/svg11.dtd" >
<svg xmlns="http://www.w3.org/2000/svg" xmlns:xlink="http://www.w3.org/1999/xlink" version="1.1">
<metadata>
Created by FontForge 20161013 at Fri Oct  8 20:14:55 1999
 By ,,,
Copyright (c) 1991 Adobe Systems Incorporated.  All Rights Reserved.ITC Avant Garde Gothic is a registered trademark of International Typeface Corporation.
</metadata>
<defs>
<font id="AvantGarde-ExtraLight" horiz-adv-x="555" >
  <font-face 
    font-family="AvantGarde ExtraLight"
    font-weight="200"
    font-stretch="normal"
    units-per-em="1000"
    panose-1="2 11 3 0 0 0 0 0 0 0"
    ascent="726"
    descent="-274"
    x-height="530"
    cap-height="740"
    bbox="-137 -274 1117 951"
    underline-thickness="50"
    underline-position="-200"
    unicode-range="U+0020-FB02"
  />
<missing-glyph horiz-adv-x="277" 
 />
    <glyph glyph-name=".notdef" horiz-adv-x="277" 
 />
    <glyph glyph-name=".null" horiz-adv-x="0" 
 />
    <glyph glyph-name="nonmarkingreturn" horiz-adv-x="333" 
 />
    <glyph glyph-name="space" unicode=" " horiz-adv-x="277" 
 />
    <glyph glyph-name="space" unicode="&#xa0;" horiz-adv-x="277" 
 />
    <glyph glyph-name="exclam" unicode="!" horiz-adv-x="259" 
d="M145 740v-574h-30v574h30zM145 81v-81h-30v81h30z" />
    <glyph glyph-name="quotedbl" unicode="&#x22;" horiz-adv-x="333" 
d="M124 444h-30v296h30v-296zM239 444h-30v296h30v-296z" />
    <glyph glyph-name="numbersign" unicode="#" 
d="M361 271l-34 -240h-24l33 240h-143l-33 -240h-25l34 240h-151l3 23h151l19 137h-151l4 23h151l31 221h24l-31 -221h143l31 221h24l-31 -221h151l-3 -23h-152l-19 -137h152l-3 -23h-151zM339 294l20 137h-143l-20 -137h143z" />
    <glyph glyph-name="dollar" unicode="$" 
d="M296 810v-80q78 -10 117 -56.5t44 -105.5h-30q-8 69 -53 102t-91 33q-54 0 -97.5 -40t-43.5 -104q0 -29 9.5 -52t22 -36.5t38 -25.5t42.5 -18t51 -15q24 -7 38.5 -12t42.5 -20t44 -33t29.5 -50t13.5 -72q0 -71 -50 -126.5t-127 -60.5v-95h-30v95q-76 7 -127.5 59
t-55.5 130h30q7 -79 57.5 -119.5t112.5 -40.5q67 0 113.5 46.5t46.5 112.5q0 28 -6.5 51t-21.5 39.5t-28 27.5t-39.5 21t-41.5 15t-46 14q-148 41 -148 165q0 68 42.5 115t111.5 56v80h30z" />
    <glyph glyph-name="percent" unicode="%" horiz-adv-x="719" 
d="M22 590q0 70 46 116.5t117 46.5t117 -46.5t46 -116.5t-46 -116.5t-117 -46.5t-117 46.5t-46 116.5zM320 590q0 60 -37.5 99t-97.5 39t-97.5 -39t-37.5 -99t37.5 -99t97.5 -39t97.5 39t37.5 99zM371 150q0 70 46.5 116.5t116.5 46.5t116.5 -46.5t46.5 -116.5t-46.5 -116.5
t-116.5 -46.5t-116.5 46.5t-46.5 116.5zM669 150q0 60 -37.5 99t-97.5 39t-97.5 -39t-37.5 -99t37.5 -99t97.5 -39t97.5 39t37.5 99zM603 740l-457 -740h-32l457 740h32z" />
    <glyph glyph-name="ampersand" unicode="&#x26;" horiz-adv-x="721" 
d="M643 467l-136 -261l192 -197l-21 -20l-185 189l-24 -47q-18 -33 -29.5 -51t-35.5 -43.5t-58 -37.5t-79 -12q-94 0 -153 63t-59 144q0 46 18.5 85t50 67t62.5 46.5t67 32.5l-38 41q-35 39 -49.5 65t-15.5 65q0 64 45 110.5t111 46.5q68 0 116 -48t48 -113
q0 -30 -10.5 -54.5t-23 -40t-40 -32.5t-43.5 -25t-52 -24l184 -188l125 239h33zM470 200l-197 204q-107 -47 -147 -98.5t-41 -112.5q1 -72 51.5 -125t133.5 -53q58 0 97.5 28.5t75.5 100.5zM231 491l50 -53q92 40 125.5 69.5t33.5 85.5q0 52 -37.5 91.5t-95.5 40.5
q-58 -1 -92.5 -40t-34.5 -85q0 -56 51 -109z" />
    <glyph glyph-name="quotesingle" unicode="'" horiz-adv-x="222" 
d="M126 444h-30v296h30v-296z" />
    <glyph glyph-name="parenleft" unicode="(" horiz-adv-x="425" 
d="M393 753v-35q-112 -69 -185 -198t-73 -279q0 -151 73 -280t185 -198v-37q-86 56 -139 116q-71 82 -111 185t-40 214q0 157 80 296.5t210 215.5z" />
    <glyph glyph-name="parenright" unicode=")" horiz-adv-x="425" 
d="M32 -274v34q112 70 185 199t73 279t-73.5 279.5t-184.5 198.5v37q86 -56 139 -116q151 -174 151 -399q0 -157 -80 -297t-210 -215z" />
    <glyph glyph-name="asterisk" unicode="*" horiz-adv-x="573" 
d="M301 740v-123l106 62l14 -25l-105 -61l107 -63l-14 -24l-108 61v-123h-29v124l-106 -62l-15 25l107 62l-107 60l15 26l106 -62v123h29z" />
    <glyph glyph-name="plus" unicode="+" horiz-adv-x="600" 
d="M314 501v-237h236v-28h-236v-236h-28v236h-236v28h236v237h28z" />
    <glyph glyph-name="comma" unicode="," horiz-adv-x="277" 
d="M156 82l-63 -154h-32l63 154h32z" />
    <glyph glyph-name="hyphen" unicode="-" horiz-adv-x="266" 
d="M0 291h266v-29h-266v29z" />
    <glyph glyph-name="hyphen" unicode="&#xad;" horiz-adv-x="266" 
d="M0 291h266v-29h-266v29z" />
    <glyph glyph-name="period" unicode="." horiz-adv-x="277" 
d="M154 81v-81h-30v81h30z" />
    <glyph glyph-name="slash" unicode="/" horiz-adv-x="518" 
d="M451 740l-351 -840h-33l351 840h33z" />
    <glyph glyph-name="zero" unicode="0" 
d="M39 222v287q0 61 19.5 107.5t47 71.5t62.5 40.5t60 20t46 4.5q101 0 171 -65.5t70 -169.5v-296q0 -54 -18.5 -97t-45.5 -68t-61 -41.5t-61.5 -22.5t-49.5 -6q-36 0 -74.5 12t-77 37t-63.5 73.5t-25 112.5zM69 512v-290q0 -96 61.5 -152t146.5 -56q24 0 50 6t54.5 21
t51 38t37.5 60t15 83v296q0 82 -54.5 145t-156.5 63q-85 0 -145 -56.5t-60 -157.5z" />
    <glyph glyph-name="one" unicode="1" 
d="M305 740v-740h-30v713h-164v27h194z" />
    <glyph glyph-name="two" unicode="2" 
d="M504 27v-27h-447v27l318 325q95 96 99 179q1 85 -53 140t-135 55q-77 0 -131 -55t-56 -157h-30q2 118 68.5 178.5t152.5 60.5q93 0 154 -64.5t60 -162.5q-3 -51 -28.5 -93t-80.5 -103l-298 -303h407z" />
    <glyph glyph-name="three" unicode="3" 
d="M39 215h30q3 -97 63 -149t135 -52q88 0 141.5 57t53.5 140q0 74 -54 136.5t-157 62.5h-40v27h39q42 0 74 12.5t48.5 29.5t26 39.5t12 36.5t2.5 27q0 63 -39.5 103.5t-100.5 40.5q-64 0 -103.5 -40.5t-43.5 -100.5h-30q5 80 56.5 124t117.5 44q71 0 122 -46t51 -126
q0 -47 -26.5 -92.5t-77.5 -62.5v-2q44 -16 76.5 -42.5t48 -57t22 -57t6.5 -50.5q0 -103 -63.5 -166.5t-164.5 -63.5q-89 0 -156.5 62.5t-68.5 165.5z" />
    <glyph glyph-name="four" unicode="4" 
d="M434 740v-569h75v-27h-75v-144h-30v144h-387v26l376 570h41zM402 704l-350 -533h352v533h-2z" />
    <glyph glyph-name="five" unicode="5" 
d="M141 740h332v-27h-308l-54 -279q77 58 159 58q105 0 175 -75t70 -176q0 -107 -74 -180.5t-174 -73.5q-83 0 -158.5 60t-87.5 170h30q11 -94 75.5 -148.5t141.5 -54.5q88 0 152.5 66t64.5 158q0 95 -65 161t-152 66q-99 0 -169 -86l-26 7z" />
    <glyph glyph-name="six" unicode="6" 
d="M354 740l-198 -288l2 -1q57 38 122 38q99 0 170 -70.5t71 -178.5q0 -103 -70 -178t-174 -75q-61 0 -109.5 23t-77 59.5t-43 77.5t-14.5 82q0 93 63 185l224 326h34zM63 231q0 -90 58 -153.5t155 -63.5q93 0 154 65.5t61 157.5q0 106 -65 165.5t-145 59.5q-35 0 -71 -13
t-70 -38.5t-55.5 -72.5t-21.5 -107z" />
    <glyph glyph-name="seven" unicode="7" 
d="M87 740h393v-27l-330 -713h-31l329 713h-361v27z" />
    <glyph glyph-name="eight" unicode="8" 
d="M99 579q0 70 52.5 122t125.5 52q74 0 126 -50.5t52 -123.5q0 -51 -30 -95.5t-78 -64.5q68 -21 111 -78.5t44 -131.5q-2 -93 -67 -157.5t-158 -64.5t-158 64.5t-67 157.5q1 74 44 131t111 79q-48 20 -78 64.5t-30 95.5zM129 578q0 -62 43 -104.5t105 -42.5t105 42.5
t43 104.5t-43 105t-105 43t-105 -43t-43 -105zM82 209q0 -82 56.5 -138.5t138.5 -56.5t138.5 56.5t56.5 138.5t-56.5 138.5t-138.5 56.5t-138.5 -56.5t-56.5 -138.5z" />
    <glyph glyph-name="nine" unicode="9" 
d="M201 0l198 288l-2 1q-20 -14 -52 -26q-36 -12 -70 -12q-99 0 -170 70.5t-71 178.5q0 103 70 178t174 75q61 0 109.5 -23t77 -59.5t43 -77.5t14.5 -82q0 -93 -63 -185l-224 -326h-34zM492 509q0 90 -58 153.5t-155 63.5q-93 0 -154 -65.5t-61 -157.5q0 -106 65 -165.5
t145 -59.5q35 0 71 13t70 38.5t55.5 72.5t21.5 107z" />
    <glyph glyph-name="colon" unicode=":" horiz-adv-x="277" 
d="M154 81v-81h-30v81h30zM154 530v-81h-30v81h30z" />
    <glyph glyph-name="semicolon" unicode=";" horiz-adv-x="277" 
d="M156 82l-63 -154h-32l63 154h32zM153 530v-81h-30v81h30z" />
    <glyph glyph-name="less" unicode="&#x3c;" horiz-adv-x="600" 
d="M50 267l500 235v-31l-467 -220l467 -220v-31l-500 235v32z" />
    <glyph glyph-name="equal" unicode="=" horiz-adv-x="600" 
d="M50 361h500v-28h-500v28zM50 167h500v-28h-500v28z" />
    <glyph glyph-name="greater" unicode="&#x3e;" horiz-adv-x="600" 
d="M50 31l467 220l-467 220v31l500 -235v-32l-500 -235v31z" />
    <glyph glyph-name="question" unicode="?" horiz-adv-x="536" 
d="M273 166h-30q1 43 4.5 67.5t24.5 65t62 79.5l25 25t25 25.5t19.5 23.5t17.5 27.5t10 29t6 35.5q0 73 -51.5 125t-129.5 52q-42 0 -81.5 -16t-71 -58.5t-33.5 -103.5h-30q2 57 25 100t56.5 65.5t67.5 33t66 10.5q86 0 149 -59.5t63 -150.5q0 -28 -9 -54t-31 -53.5t-35 -41
t-44 -43.5q-35 -35 -53 -73t-20 -58t-2 -53zM272 81v-81h-29v81h29z" />
    <glyph glyph-name="at" unicode="@" horiz-adv-x="796" 
d="M723 187h25q-29 -68 -88.5 -115.5t-120.5 -66t-121 -18.5q-159 0 -268 109.5t-109 268.5q0 161 111 274.5t273 113.5q62 0 122 -20.5t110 -58t80.5 -98.5t30.5 -135q0 -69 -26 -126t-65 -88.5t-76.5 -48.5t-67.5 -17q-10 0 -20 2t-25 8.5t-24.5 23t-9.5 41.5h-2
q-46 -71 -127 -71q-15 0 -31.5 5.5t-35 18.5t-30 40.5t-11.5 65.5q0 105 65 193t147 88q52 0 76.5 -26t29.5 -57h2l23 67h28l-96 -272q0 -1 -2.5 -7t-4.5 -12.5t-4 -15.5t-2 -16q-1 -21 10 -33.5t21.5 -14.5t23.5 -2q28 0 62.5 16.5t67 46.5t54.5 80.5t22 109.5
q0 70 -28 126.5t-74 90.5t-100.5 52t-110.5 18q-147 0 -252.5 -102t-105.5 -260q0 -104 50 -185.5t129 -124t169 -42.5q88 0 175 44.5t131 129.5zM475 324l28 73q16 47 16 65q-1 45 -29.5 66.5t-58.5 21.5q-65 0 -125.5 -77t-60.5 -178q0 -57 25 -80.5t57 -23.5
q106 0 148 133z" />
    <glyph glyph-name="A" unicode="A" horiz-adv-x="687" 
d="M150 258l-111 -258h-32l317 740h39l317 -740h-32l-111 258h-387zM343 712l-180 -427h361z" />
    <glyph glyph-name="B" unicode="B" horiz-adv-x="540" 
d="M77 740h157q84 0 130 -27q87 -46 87 -159q0 -116 -102 -161v-2q48 -14 80.5 -41t45.5 -59t17.5 -53.5t4.5 -40.5q-1 -130 -117 -180q-49 -17 -118 -17h-185v740zM107 713v-312h134q70 0 105 19q75 42 75 138q0 47 -22 83t-53 50q-36 21 -112 22h-127zM107 374v-347h156
q62 0 106 16q97 41 98 154q0 55 -27 96.5t-73 62.5q-42 18 -126 18h-134z" />
    <glyph glyph-name="C" unicode="C" horiz-adv-x="786" 
d="M714 161h34q-42 -71 -128.5 -122.5t-194.5 -51.5q-161 0 -272.5 109t-111.5 274t111.5 274t272.5 109q109 -1 193 -53t131 -125h-35q-14 20 -35 41t-57 48t-88 44.5t-109 17.5q-148 0 -251 -102t-103 -254t103 -254t251 -102q60 0 113.5 18t89.5 46t54.5 46.5t31.5 36.5z
" />
    <glyph glyph-name="D" unicode="D" horiz-adv-x="701" 
d="M77 0v740h209q175 0 274 -98t99 -272t-99 -272t-274 -98h-209zM107 713v-686h179q161 0 252 90.5t91 250.5q0 162 -90.5 253.5t-252.5 91.5h-179z" />
    <glyph glyph-name="E" unicode="E" horiz-adv-x="547" 
d="M77 740h406v-27h-376v-327h376v-27h-376v-332h376v-27h-406v740z" />
    <glyph glyph-name="F" unicode="F" horiz-adv-x="477" 
d="M77 740h363v-27h-333v-327h333v-27h-333v-359h-30v740z" />
    <glyph glyph-name="G" unicode="G" horiz-adv-x="853" 
d="M342 313h477q-16 -136 -128.5 -231t-265.5 -95q-161 0 -272.5 109t-111.5 274t111.5 274t272.5 109q103 0 194.5 -47.5t141.5 -129.5h-36q-114 150 -300 150q-148 0 -251 -102t-103 -254t103 -254t251 -102q135 0 236 81.5t122 190.5h-441v27z" />
    <glyph glyph-name="H" unicode="H" horiz-adv-x="628" 
d="M107 740v-354h414v354h30v-740h-30v359h-414v-359h-30v740h30z" />
    <glyph glyph-name="I" unicode="I" horiz-adv-x="185" 
d="M107 740v-740h-30v740h30z" />
    <glyph glyph-name="J" unicode="J" horiz-adv-x="453" 
d="M377 740v-528q0 -78 -18 -122q-20 -41 -51 -65q-51 -38 -118 -38q-66 0 -118.5 40.5t-65.5 113.5h33q9 -40 30 -67.5t45.5 -39t43 -16t34.5 -4.5q54 1 90 27t49 60q16 41 16 111v528h30z" />
    <glyph glyph-name="K" unicode="K" horiz-adv-x="536" 
d="M121 740v-500h2l377 500h36l-276 -365l276 -375h-36l-259 351l-120 -158v-193h-30v740h30z" />
    <glyph glyph-name="L" unicode="L" horiz-adv-x="423" 
d="M107 740v-713h313v-27h-343v740h30z" />
    <glyph glyph-name="M" unicode="M" horiz-adv-x="933" 
d="M125 740l342 -692l341 692h47v-740h-30v710h-1h1h-2l-348 -710h-17l-349 710h-2v-710h-30v740h48z" />
    <glyph glyph-name="N" unicode="N" horiz-adv-x="738" 
d="M122 740l507 -700h2v700h30v-740h-38l-514 710h-2v-710h-30v740h45z" />
    <glyph glyph-name="O" unicode="O" horiz-adv-x="851" 
d="M41 370q0 165 111.5 274t272.5 109t272.5 -109t111.5 -274t-111.5 -274t-272.5 -109t-272.5 109t-111.5 274zM71 370q0 -152 103 -254t251 -102t251 102t103 254t-103 254t-251 102t-251 -102t-103 -254z" />
    <glyph glyph-name="P" unicode="P" horiz-adv-x="511" 
d="M67 740h172q69 0 109.5 -9t75.5 -35q33 -24 54 -70t21 -96t-21 -96t-54 -70q-35 -26 -76 -35t-109 -9h-142v-320h-30v740zM97 713v-366h143q63 0 100 9t68 32q27 19 44 59t17 82q0 44 -17 84t-44 59q-31 23 -68 32t-100 9h-143z" />
    <glyph glyph-name="Q" unicode="Q" horiz-adv-x="882" 
d="M885 18v-31q-55 7 -96 19t-59.5 21.5t-58.5 33.5q-102 -74 -228 -74q-114 0 -204 53.5t-136.5 140.5t-46.5 189q0 165 111.5 274t272.5 109t272.5 -109t111.5 -274t-128 -290q80 -47 189 -62zM107 246q92 30 172 30q120 0 220 -54q24 -13 51 -32t122 -92q122 105 122 272
q0 152 -103 254t-251 102t-251 -102t-103 -254q0 -68 21 -124zM119 217q25 -52 61 -91t70.5 -59.5t74 -33t66.5 -16t53 -3.5q62 0 116 20t88 46q-9 6 -39 28.5t-56 42.5t-27 21q-117 77 -251 77q-71 0 -156 -32z" />
    <glyph glyph-name="R" unicode="R" horiz-adv-x="554" 
d="M67 740h169q144 0 197 -31q46 -23 76.5 -78t30.5 -119q2 -51 -18 -101.5t-72.5 -90.5t-127.5 -40l-29 -1l199 -279h-38l-217 306h46q58 0 94 9t70 38q63 66 63 158q0 50 -23.5 97.5t-64.5 74.5q-31 20 -70 25t-116 5h-139v-713h-30v740z" />
    <glyph glyph-name="S" unicode="S" horiz-adv-x="518" 
d="M45 187h30q6 -50 27.5 -86.5t50 -54t54.5 -25t51 -7.5q73 0 129.5 50t56.5 126q0 33 -8 59t-26 45t-32.5 31t-43 22.5t-40 14.5t-39.5 11q-29 7 -46 12t-49 20t-50.5 33t-33.5 49.5t-15 71.5q-2 88 57 140.5t144 52.5q71 0 125.5 -43.5t65.5 -128.5h-30q-27 145 -163 145
q-72 0 -120.5 -45t-48.5 -116q0 -34 11.5 -60.5t28 -43t46 -30.5t52.5 -21t61 -17q66 -18 95 -36q89 -53 89 -162q0 -89 -65 -148t-150 -59q-35 0 -70 12t-66.5 35t-52.5 63t-25 90z" />
    <glyph glyph-name="T" unicode="T" horiz-adv-x="443" 
d="M5 740h432v-27h-201v-713h-30v713h-201v27z" />
    <glyph glyph-name="U" unicode="U" horiz-adv-x="605" 
d="M76 260v480h30v-480q0 -45 1.5 -67t12 -52t32.5 -59q24 -31 65.5 -49.5t86.5 -18.5q43 0 84 18.5t65 49.5q22 29 32.5 59t12 52t1.5 67v480h30v-480q1 -45 -2.5 -77.5t-25 -77.5t-61.5 -73q-61 -45 -138 -45q-76 0 -137 45q-40 28 -61.5 73t-25 77.5t-2.5 77.5z" />
    <glyph glyph-name="V" unicode="V" horiz-adv-x="666" 
d="M41 740l292 -690l293 690h33l-316 -740h-21l-315 740h34z" />
    <glyph glyph-name="W" unicode="W" horiz-adv-x="888" 
d="M44 740l198 -699h2l189 699h21l191 -699h2l198 699h31l-212 -740h-39l-181 661h-2l-179 -661h-40l-211 740h32z" />
    <glyph glyph-name="X" unicode="X" 
d="M53 740l223 -336l225 336h35l-243 -364l254 -376h-35l-236 350l-235 -350h-33l252 376l-243 364h36z" />
    <glyph glyph-name="Y" unicode="Y" horiz-adv-x="554" 
d="M48 740l229 -451l228 451h34l-247 -485v-255h-30v255l-247 485h33z" />
    <glyph glyph-name="Z" unicode="Z" horiz-adv-x="499" 
d="M493 0h-473l403 713h-417v27h466l-403 -713h424v-27z" />
    <glyph glyph-name="bracketleft" unicode="[" horiz-adv-x="425" 
d="M344 753v-36q-134 -66 -134 -222v-510q0 -155 134 -221v-36q-166 79 -166 257v510q0 23 1 39t10 49.5t25 59.5t49.5 57t80.5 53z" />
    <glyph glyph-name="backslash" unicode="\" horiz-adv-x="518" 
d="M418 -100l-351 840h33l351 -840h-33z" />
    <glyph glyph-name="bracketright" unicode="]" horiz-adv-x="425" 
d="M81 -272v36q134 66 134 221v510q0 156 -134 222v36q166 -81 166 -258v-510q0 -178 -166 -257z" />
    <glyph glyph-name="asciicircum" unicode="^" horiz-adv-x="600" 
d="M456 375l-156 332l-156 -332h-32l172 365h32l172 -365h-32z" />
    <glyph glyph-name="underscore" unicode="_" horiz-adv-x="500" 
d="M500 -125h-500v50h500v-50z" />
    <glyph glyph-name="grave" unicode="`" 
d="M158 766l237 -138l-13 -23l-238 138z" />
    <glyph glyph-name="a" unicode="a" horiz-adv-x="674" 
d="M596 530v-530h-28v132h-2q-35 -68 -99 -106.5t-147 -38.5q-125 0 -202 82.5t-77 195.5q0 114 77.5 196t201.5 82q90 0 157 -45t89 -103h2v135h28zM323 13q108 0 178 73.5t70 178.5q0 108 -72 180t-179 72q-105 0 -178 -71t-73 -181q0 -46 16.5 -90t46.5 -80.5t79.5 -59
t111.5 -22.5z" />
    <glyph glyph-name="b" unicode="b" horiz-adv-x="674" 
d="M78 0v740h28v-345h2q30 63 93 105t153 43q124 0 201.5 -82t77.5 -196q0 -113 -77 -195.5t-202 -82.5q-83 0 -147 38.5t-99 106.5h-2v-132h-28zM351 13q62 0 111.5 22.5t79.5 59t46.5 80.5t16.5 90q0 110 -73 181t-178 71q-107 0 -179 -72t-72 -180q0 -105 70 -178.5
t178 -73.5z" />
    <glyph glyph-name="c" unicode="c" horiz-adv-x="619" 
d="M552 167h31q-28 -81 -98.5 -130t-164.5 -50q-118 0 -198.5 78t-80.5 200v-1q0 118 79.5 198.5t199.5 80.5q86 0 160 -48t104 -137h-31q-19 55 -60.5 92.5t-85 52.5t-86.5 14q-101 -1 -179 -71q-33 -30 -53 -79t-20 -102q0 -110 73.5 -181t177.5 -71q86 1 148.5 46
t83.5 108z" />
    <glyph glyph-name="d" unicode="d" horiz-adv-x="677" 
d="M596 740v-740h-28v132h-2q-35 -68 -99 -106.5t-147 -38.5q-125 0 -202 82.5t-77 195.5q0 114 77.5 196t201.5 82q90 0 157 -45t89 -103h2v345h28zM323 13q108 0 178 73.5t70 178.5q0 108 -72 180t-179 72q-105 0 -178 -71t-73 -181q0 -46 16.5 -90t46.5 -80.5t79.5 -59
t111.5 -22.5z" />
    <glyph glyph-name="e" unicode="e" horiz-adv-x="619" 
d="M588 262h-528q1 -62 25.5 -111.5t62.5 -78.5t80 -44t83 -15q74 0 134.5 36.5t91.5 103.5h31q-36 -82 -105 -124.5t-153 -41.5q-121 0 -200 79.5t-79 198.5v-1q0 119 80.5 199t199.5 80q111 0 192 -73.5t86 -192.5zM61 288h499q-4 95 -79.5 164t-169.5 65q-100 0 -172 -65
t-78 -164z" />
    <glyph glyph-name="f" unicode="f" horiz-adv-x="263" 
d="M94 0v504h-87v26h87v52q0 163 166 171v-27q-19 -2 -29.5 -3t-34.5 -9.5t-37.5 -22t-25.5 -41t-11 -65.5v-55h138v-26h-138v-504h-28z" />
    <glyph glyph-name="g" unicode="g" horiz-adv-x="675" 
d="M68 -63h32q34 -56 69 -82q69 -55 156 -55q97 0 171 71.5t74 182.5v78h-3q-34 -68 -98 -106.5t-147 -38.5q-127 0 -204.5 82.5t-77.5 195.5q0 114 78 196t204 82q90 0 157 -45t89 -103h2v135h28v-471q0 -63 -20.5 -114.5t-51 -82t-68 -51.5t-70 -29t-59.5 -8
q-82 0 -155 43.5t-106 119.5zM573 265q0 108 -72 180t-179 72t-180.5 -71t-73.5 -181q1 -100 68.5 -176t188.5 -76q108 0 178 73.5t70 178.5z" />
    <glyph glyph-name="h" unicode="h" horiz-adv-x="640" 
d="M106 740v-312h2q24 55 85 86t128 29q102 0 166 -53q77 -65 77 -210v-280h-28v280q0 128 -65 187q-55 50 -150 50q-100 -2 -157.5 -57.5t-57.5 -154.5v-305h-28v740h28z" />
    <glyph glyph-name="i" unicode="i" horiz-adv-x="184" 
d="M106 530v-530h-28v530h28zM106 740v-91h-28v91h28z" />
    <glyph glyph-name="j" unicode="j" horiz-adv-x="219" 
d="M123 530v-524q0 -29 -1 -45t-4 -44.5t-12 -46t-23.5 -37t-39 -31t-57.5 -15.5v30q29 4 49 15.5t31.5 27t18 40t8.5 48t2 58.5v524h28zM123 740v-92h-28v92h28z" />
    <glyph glyph-name="k" unicode="k" horiz-adv-x="467" 
d="M106 740v-595h2l289 385h37l-196 -259l213 -271h-37l-194 249l-114 -152v-97h-28v740h28z" />
    <glyph glyph-name="l" unicode="l" horiz-adv-x="183" 
d="M106 740v-740h-28v740h28z" />
    <glyph glyph-name="m" unicode="m" horiz-adv-x="949" 
d="M106 530v-94h2q17 34 42.5 57.5t52 33t45.5 13t36 3.5q102 0 156 -65q25 -26 35 -62h2q11 34 37 62q59 65 154 65q92 0 145 -53q61 -60 61 -193v-297h-28v297q0 121 -54 175q-43 45 -124 45q-90 0 -137 -61q-25 -33 -33 -64.5t-8 -94.5v-297h-28v297q1 60 -8 94t-30 63
q-46 60 -140 63q-38 1 -73.5 -15.5t-55.5 -42.5q-49 -56 -49 -157v-302h-28v530h28z" />
    <glyph glyph-name="n" unicode="n" horiz-adv-x="641" 
d="M106 530v-102h2q24 55 85 86t128 29q102 0 166 -53q77 -65 77 -210v-280h-28v280q0 128 -65 187q-55 50 -150 50q-100 -2 -157.5 -57.5t-57.5 -154.5v-305h-28v530h28z" />
    <glyph glyph-name="o" unicode="o" horiz-adv-x="641" 
d="M41 265q0 119 80 198.5t199 79.5t199 -79.5t80 -198.5t-80 -198.5t-199 -79.5t-199 79.5t-80 198.5zM69 265q0 -108 72 -180t179 -72t179 72t72 180t-72 180t-179 72t-179 -72t-72 -180z" />
    <glyph glyph-name="p" unicode="p" horiz-adv-x="677" 
d="M78 -213v743h28v-132h2q35 68 99 106.5t147 38.5q125 0 202 -82.5t77 -195.5q0 -114 -77.5 -196t-201.5 -82q-90 0 -157 45t-89 103h-2v-348h-28zM351 517q-108 0 -178 -73.5t-70 -178.5q0 -108 72 -180t179 -72q105 0 178 71t73 181q0 46 -16.5 90t-46.5 80.5t-79.5 59
t-111.5 22.5z" />
    <glyph glyph-name="q" unicode="q" horiz-adv-x="674" 
d="M596 530v-743h-28v348h-2q-22 -58 -89 -103t-157 -45q-124 0 -201.5 82t-77.5 196q0 113 77 195.5t202 82.5q83 0 147 -38.5t99 -106.5h2v132h28zM323 517q-62 0 -111.5 -22.5t-79.5 -59t-46.5 -80.5t-16.5 -90q0 -110 73 -181t178 -71q107 0 179 72t72 180
q0 105 -70 178.5t-178 73.5z" />
    <glyph glyph-name="r" unicode="r" horiz-adv-x="302" 
d="M106 530v-96h2q14 28 34 49t38 31.5t42.5 17.5t37.5 8.5t33 2.5v-27q-67 -2 -116 -37q-43 -39 -57 -83.5t-14 -108.5v-287h-28v530h28z" />
    <glyph glyph-name="s" unicode="s" horiz-adv-x="426" 
d="M48 147h28q0 -62 38 -98t97 -36q58 0 93.5 38t33.5 91q-1 54 -31.5 83t-96.5 44q-72 21 -106.5 48t-36.5 89q0 64 41 100.5t103 36.5q61 -1 100.5 -37t39.5 -101h-28q0 56 -32.5 84.5t-79.5 27.5q-53 0 -85.5 -31.5t-30.5 -79.5q2 -46 29 -69t87 -40q30 -8 43.5 -12
t38.5 -16.5t37 -26.5t23 -38.5t13 -57.5q4 -65 -41.5 -112t-113.5 -47q-69 0 -118 45t-45 115z" />
    <glyph glyph-name="t" unicode="t" horiz-adv-x="296" 
d="M124 530v210h28v-210h136v-26h-136v-504h-28v504h-117v26h117z" />
    <glyph glyph-name="u" unicode="u" horiz-adv-x="641" 
d="M536 0v107h-2q-24 -59 -83.5 -90.5t-129.5 -29.5q-102 0 -166 53q-77 65 -77 210v280h28v-280q0 -128 65 -187q55 -50 150 -50q101 1 158 57.5t57 158.5v301h28v-530h-28z" />
    <glyph glyph-name="v" unicode="v" horiz-adv-x="481" 
d="M222 0l-218 530h29l207 -497l204 497h32l-218 -530h-36z" />
    <glyph glyph-name="w" unicode="w" horiz-adv-x="758" 
d="M41 530l179 -488h2l147 416h21l147 -416h2l178 488h32l-196 -530h-32l-142 402h-2l-140 -402h-32l-195 530h31z" />
    <glyph glyph-name="x" unicode="x" horiz-adv-x="407" 
d="M46 530l158 -237l159 237h34l-176 -264l176 -266h-34l-159 239l-158 -239h-36l177 266l-177 264h36z" />
    <glyph glyph-name="y" unicode="y" horiz-adv-x="481" 
d="M42 530l196 -491l209 491h33l-321 -743h-32l94 214l-210 529h31z" />
    <glyph glyph-name="z" unicode="z" horiz-adv-x="407" 
d="M30 530h347v-27l-329 -477h346v-26h-382v24l329 480h-311v26z" />
    <glyph glyph-name="braceleft" unicode="{" horiz-adv-x="425" 
d="M344 -272h-66q-46 0 -64 29.5t-18 96.5v183q0 75 -17 119t-64 67v28q36 9 58.5 61.5t22.5 130.5v187q0 66 18 94.5t64 28.5h66v-26h-54q-39 0 -50.5 -22t-11.5 -93v-185q0 -57 -20.5 -112.5t-60.5 -77.5q37 -16 59 -67t22 -116v-183q0 -75 11.5 -96t50.5 -21h54v-26z" />
    <glyph glyph-name="bar" unicode="|" 
d="M263 740h30v-840h-30v840z" />
    <glyph glyph-name="braceright" unicode="}" horiz-adv-x="425" 
d="M81 -272v26h54q39 0 50.5 21t11.5 96v183q0 65 22 116t59 67q-40 22 -60.5 77.5t-20.5 112.5v185q0 71 -11.5 93t-50.5 22h-54v26h66q46 0 64 -28.5t18 -94.5v-187q0 -78 22.5 -130.5t58.5 -61.5v-28q-47 -23 -64 -67t-17 -119v-183q0 -67 -18 -96.5t-64 -29.5h-66z" />
    <glyph glyph-name="asciitilde" unicode="~" horiz-adv-x="600" 
d="M95 211l-19 18q19 37 52 56t70 16q35 0 118 -37q78 -36 106 -36q26 0 44.5 16.5t37.5 45.5l19 -19q-18 -33 -44.5 -52t-54.5 -19q-36 0 -114 36q-80 37 -112 37q-64 4 -103 -62z" />
    <glyph glyph-name="exclamdown" unicode="&#xa1;" horiz-adv-x="259" 
d="M115 -209v574h30v-574h-30zM115 450v81h30v-81h-30z" />
    <glyph glyph-name="cent" unicode="&#xa2;" 
d="M487 469h-33q-51 94 -163 94q-87 0 -140 -56t-53 -135t51 -137.5t141 -58.5q64 0 105.5 28t58.5 61h34q-18 -35 -44.5 -60t-54 -36.5t-46.5 -16t-36 -5.5v-108h-30v108q-99 6 -154 74t-55 148q0 79 53 146.5t156 76.5v95h30v-96q35 -4 62.5 -13t61.5 -36.5t56 -72.5z" />
    <glyph glyph-name="sterling" unicode="&#xa3;" 
d="M404 393v-27h-244v-2q39 -28 71.5 -77t32.5 -115q0 -76 -45 -145h92q63 0 94 10.5t57 34.5q53 57 53 127q0 22 -7 50h31q6 -28 6 -49q0 -87 -60 -147q-37 -32 -71.5 -42.5t-107.5 -10.5h-270v27h148l8 12q9 12 14 22t12.5 27t11.5 38t4 45q0 58 -28.5 103t-87.5 92h-112
v27h86q-40 50 -41 122q0 101 67.5 169t170.5 68q80 0 145 -48.5t87 -134.5h-31q-20 69 -75 112.5t-126 43.5q-91 -2 -148 -59t-60 -151q2 -69 50 -122h273z" />
    <glyph glyph-name="currency" unicode="&#xa4;" 
d="M492 105l-76 76q-64 -51 -139 -51q-76 0 -139 51l-77 -76l-20 21l77 77q-56 62 -56 140q0 79 54 138l-77 77l21 21l77 -77q62 54 140 54q79 0 140 -53l76 76l22 -21l-76 -77q53 -59 53 -138t-56 -140l77 -77zM92 343q0 -75 55.5 -129t129.5 -54q75 0 130 54t55 129
q0 76 -55 129.5t-130 53.5q-74 0 -129.5 -53t-55.5 -130z" />
    <glyph glyph-name="yen" unicode="&#xa5;" 
d="M509 409v-26h-205l-13 -26v-82h218v-26h-218v-249h-30v249h-214v26h214v82l-14 26h-200v26h185l-200 331h32l212 -350l216 350h32l-204 -331h189z" />
    <glyph glyph-name="brokenbar" unicode="&#xa6;" 
d="M263 740h30v-336h-30v336zM263 236h30v-336h-30v336z" />
    <glyph glyph-name="section" unicode="&#xa7;" horiz-adv-x="573" 
d="M476 586h-28q-7 78 -47.5 107.5t-106.5 29.5q-67 0 -108.5 -37.5t-42.5 -98.5q1 -28 10 -50t26.5 -37t30 -22.5t34.5 -17.5l150 -71q119 -55 119 -154q0 -47 -26 -88.5t-69 -66.5q70 -49 70 -127q0 -76 -56 -126t-143 -50q-14 0 -29.5 1t-51.5 11.5t-62 28.5t-47.5 57.5
t-21.5 93.5v32h28v-31q1 -83 54 -123.5t129 -39.5q77 0 123.5 39t48.5 107q-2 43 -24.5 72t-79.5 55l-195 90l-9 4q-8 5 -11 7t-12 7.5t-14 10t-13.5 12.5t-13 15.5t-11 18.5t-9.5 22.5t-5.5 26t-2.5 30.5q0 44 25.5 86t75.5 67q-46 43 -46 107q0 77 51 123t128 46
q83 0 132.5 -44t49.5 -123zM380 363l-198 95q-93 -45 -94 -137q2 -83 77 -120l225 -104q33 13 63.5 51.5t31.5 84.5q0 29 -9.5 50.5t-29.5 38t-30.5 23t-35.5 18.5z" />
    <glyph glyph-name="dieresis" unicode="&#xa8;" 
d="M232 734v-116h-29v116h29zM352 734v-116h-29v116h29z" />
    <glyph glyph-name="copyright" unicode="&#xa9;" horiz-adv-x="800" 
d="M600 451h-28q-12 63 -60 93.5t-106 30.5q-81 0 -134.5 -55t-53.5 -150q0 -103 56.5 -153.5t130.5 -50.5q14 0 29.5 2t41 11.5t46 26t37.5 48t22 74.5h28q-6 -87 -65.5 -137.5t-139.5 -50.5q-86 0 -150 59t-64 170q0 103 60 167.5t157 64.5q75 0 130 -42t63 -108zM400 751
q162 0 271.5 -111t109.5 -270q0 -162 -111 -271.5t-270 -109.5q-161 0 -271.5 109t-110.5 272q0 159 109 270t273 111zM400 725q-152 0 -253 -104t-101 -251q0 -150 102 -252.5t252 -102.5q148 0 250.5 102.5t102.5 252.5q0 148 -100.5 251.5t-252.5 103.5z" />
    <glyph glyph-name="ordfeminine" unicode="&#xaa;" horiz-adv-x="439" 
d="M360 495h-2q-15 -38 -59 -67q-39 -24 -92 -24q-79 0 -130 52t-51 123q0 72 52.5 123t128.5 51q69 0 114 -42q26 -24 37 -51h2v85h28v-333h-28v83zM54 575q0 -54 42.5 -99.5t111.5 -45.5q66 0 109 44t43 104q0 62 -45.5 105.5t-107.5 43.5q-61 0 -107 -41.5t-46 -110.5z
" />
    <glyph glyph-name="guillemotleft" unicode="&#xab;" horiz-adv-x="351" 
d="M49 276l111 193l20 -26l-96 -167l96 -166l-20 -26zM160 276l112 193l19 -26l-96 -167l96 -166l-19 -26z" />
    <glyph glyph-name="logicalnot" unicode="&#xac;" horiz-adv-x="600" 
d="M50 361h500v-222h-28v194h-472v28z" />
    <glyph glyph-name="registered" unicode="&#xae;" horiz-adv-x="800" 
d="M235 589h185q14 0 26.5 -0.5t38 -7t43 -18t31.5 -35.5t14 -58q0 -42 -24 -70t-62 -38v-2q43 -10 58.5 -34.5t18.5 -65.5q5 -72 7 -87.5t8 -26.5h-29q-7 10 -12 100q-2 28 -5.5 42.5t-16 30.5t-39.5 22t-72 6h-142v-201h-28v443zM415 563h-152v-190h140q2 0 17.5 1.5t25 3
t26.5 5.5t28 10.5t22 16.5t17 25t6 35q0 93 -130 93zM400 751q162 0 271.5 -111t109.5 -270q0 -162 -111 -271.5t-270 -109.5q-161 0 -271.5 109t-110.5 272q0 159 109 270t273 111zM400 725q-152 0 -253 -104t-101 -251q0 -150 102 -252.5t252 -102.5q148 0 250.5 102.5
t102.5 252.5q0 148 -100.5 251.5t-252.5 103.5z" />
    <glyph glyph-name="macron" unicode="&#xaf;" 
d="M455 690v-30h-356v30h356z" />
    <glyph glyph-name="macron" unicode="&#x2c9;" 
d="M455 690v-30h-356v30h356z" />
    <glyph glyph-name="degree" unicode="&#xb0;" horiz-adv-x="400" 
d="M343 566q0 -60 -41.5 -101.5t-101.5 -41.5t-101.5 41.5t-41.5 101.5t41.5 101.5t101.5 41.5t101.5 -41.5t41.5 -101.5zM85 566q0 -48 33 -81.5t82 -33.5t82 33.5t33 81.5t-33 81.5t-82 33.5t-82 -33.5t-33 -81.5z" />
    <glyph glyph-name="plusminus" unicode="&#xb1;" horiz-adv-x="600" 
d="M286 309v197h28v-197h238v-28h-238v-197h-28v197h-238v28h238zM48 0v28h504v-28h-504z" />
    <glyph glyph-name="twosuperior" unicode="&#xb2;" horiz-adv-x="351" 
d="M307 321v-25h-271v23l185 193q55 61 55 104q0 44 -24 75.5t-78 31.5q-47 0 -75 -33t-28 -90h-28q0 74 40 111t93 37q58 0 93 -35.5t35 -96.5q0 -53 -64 -122l-165 -173h232z" />
    <glyph glyph-name="threesuperior" unicode="&#xb3;" horiz-adv-x="351" 
d="M33 430h28q1 -41 20 -69t42.5 -38t48.5 -10q51 0 81 31.5t30 80.5q0 41 -30 76.5t-89 35.5h-27v25h27q30 0 50 10t28 25.5t10.5 25.5t2.5 19q0 34 -21 57t-57 24t-58 -22t-24 -59h-28q3 53 36.5 79.5t73.5 26.5q42 0 74 -29.5t32 -75.5q0 -62 -57 -92q38 -15 61.5 -49
t23.5 -75q0 -61 -39 -100t-100 -39q-55 0 -96.5 37.5t-42.5 104.5z" />
    <glyph glyph-name="acute" unicode="&#xb4;" 
d="M160 628l237 138l14 -23l-238 -138z" />
    <glyph glyph-name="mu" unicode="&#xb5;" horiz-adv-x="561" 
d="M73 -181v711h28v-300q0 -36 1.5 -58t10.5 -52.5t27 -50.5q47 -56 133 -56q85 0 134 66.5t49 198.5v252h28v-530h-28v119h-2q-43 -132 -181 -132q-119 0 -170 90h-2v-258h-28z" />
    <glyph glyph-name="mu" unicode="&#x3bc;" horiz-adv-x="561" 
d="M73 -181v711h28v-300q0 -36 1.5 -58t10.5 -52.5t27 -50.5q47 -56 133 -56q85 0 134 66.5t49 198.5v252h28v-530h-28v119h-2q-43 -132 -181 -132q-119 0 -170 90h-2v-258h-28z" />
    <glyph glyph-name="paragraph" unicode="&#xb6;" horiz-adv-x="561" 
d="M239 -126v469h-20q-95 0 -151 57.5t-56 139.5q0 55 25.5 99.5t64.5 68.5q51 32 144 32h246v-28h-64v-838h-30v836h-129v-836h-30z" />
    <glyph glyph-name="periodcentered" unicode="&#xb7;" horiz-adv-x="277" 
d="M154 296v-81h-30v81h30z" />
    <glyph glyph-name="periodcentered" unicode="&#x2219;" horiz-adv-x="277" 
d="M154 296v-81h-30v81h30z" />
    <glyph glyph-name="cedilla" unicode="&#xb8;" 
d="M290 0l-26 -56l2 -1q6 3 13 3q33 0 52.5 -21.5t19.5 -49.5q0 -30 -19.5 -53t-53.5 -23q-63 0 -74 62h27q9 -35 47 -35q18 0 31.5 13t14.5 36q-1 20 -14.5 32.5t-31.5 12.5q-26 0 -41 -25l-22 5l46 100h29z" />
    <glyph glyph-name="onesuperior" unicode="&#xb9;" horiz-adv-x="351" 
d="M197 740v-444h-28v419h-95v25h123z" />
    <glyph glyph-name="ordmasculine" unicode="&#xba;" horiz-adv-x="439" 
d="M44 575q0 76 50 126.5t124 51.5q77 0 127 -51t50 -123q0 -76 -53.5 -125.5t-123.5 -49.5q-71 0 -122.5 50t-51.5 121zM72 576q0 -59 43 -102.5t103 -43.5t104 42.5t45 106.5q-1 61 -42.5 104.5t-104.5 43.5q-61 0 -104.5 -42t-43.5 -109z" />
    <glyph glyph-name="guillemotright" unicode="&#xbb;" horiz-adv-x="351" 
d="M191 469l111 -193l-111 -192l-20 26l96 166l-96 167zM79 469l112 -193l-112 -192l-19 26l96 166l-96 167z" />
    <glyph glyph-name="onequarter" unicode="&#xbc;" horiz-adv-x="700" 
d="M502 740l-330 -740h-29l329 740h30zM586 407l-193 -297h194v297l1 -2zM167 740v-444h-28v419h-95v25h123zM615 444v-334h42v-25h-42v-85h-28v85h-228v21l223 338h33z" />
    <glyph glyph-name="onehalf" unicode="&#xbd;" horiz-adv-x="750" 
d="M167 740v-444h-28v419h-95v25h123zM502 740l-330 -740h-29l329 740h30zM707 25v-25h-271v23l185 193q55 61 55 104q0 44 -24 75.5t-78 31.5q-47 0 -75 -33t-28 -90h-28q0 74 40 111t93 37q58 0 93 -35.5t35 -96.5q0 -53 -64 -122l-165 -173h232z" />
    <glyph glyph-name="threequarters" unicode="&#xbe;" horiz-adv-x="807" 
d="M694 407l-193 -297h194v297l1 -2zM610 740l-330 -740h-29l329 740h30zM723 444v-334h42v-25h-42v-85h-28v85h-228v21l223 338h33zM40 430h28q1 -41 20 -69t42.5 -38t48.5 -10q51 0 81 31.5t30 80.5q0 41 -30 76.5t-89 35.5h-27v25h27q30 0 50 10t28 25.5t10.5 25.5
t2.5 19q0 34 -21 57t-57 24t-58 -22t-24 -59h-28q3 53 36.5 79.5t73.5 26.5q42 0 74 -29.5t32 -75.5q0 -62 -57 -92q38 -15 61.5 -49t23.5 -75q0 -61 -39 -100t-100 -39q-55 0 -96.5 37.5t-42.5 104.5z" />
    <glyph glyph-name="questiondown" unicode="&#xbf;" horiz-adv-x="536" 
d="M263 364h30q-1 -43 -4.5 -67.5t-24.5 -65t-62 -79.5l-25 -25t-25 -25.5t-19.5 -23.5t-17.5 -27.5t-10 -29t-6 -35.5q0 -73 51.5 -125t129.5 -52q42 0 81.5 16t71 58.5t33.5 103.5h30q-2 -57 -25 -100t-56.5 -65.5t-67.5 -33t-66 -10.5q-86 0 -149 59.5t-63 150.5
q0 28 9 54t31 53.5t35 41t44 43.5q35 35 53 73t20 58t2 53zM264 449v81h29v-81h-29z" />
    <glyph glyph-name="Agrave" unicode="&#xc0;" horiz-adv-x="687" 
d="M150 258l-111 -258h-32l317 740h39l317 -740h-32l-111 258h-387zM343 712l-180 -427h361zM224 951l237 -138l-13 -23l-238 138z" />
    <glyph glyph-name="Aacute" unicode="&#xc1;" horiz-adv-x="687" 
d="M150 258l-111 -258h-32l317 740h39l317 -740h-32l-111 258h-387zM343 712l-180 -427h361zM226 813l237 138l14 -23l-238 -138z" />
    <glyph glyph-name="Acircumflex" unicode="&#xc2;" horiz-adv-x="687" 
d="M150 258l-111 -258h-32l317 740h39l317 -740h-32l-111 258h-387zM343 712l-180 -427h361zM343 933l196 -110l-26 -15l-170 94l-170 -94l-25 15z" />
    <glyph glyph-name="Atilde" unicode="&#xc3;" horiz-adv-x="687" 
d="M150 258l-111 -258h-32l317 740h39l317 -740h-32l-111 258h-387zM343 712l-180 -427h361zM504 881l20 -21q-48 -32 -89 -32q-48 0 -91 25q-54 28 -84 28q-44 0 -78 -27l-20 20q43 35 98 35q34 0 85 -24q50 -27 89 -27q31 0 70 23z" />
    <glyph glyph-name="Adieresis" unicode="&#xc4;" horiz-adv-x="687" 
d="M150 258l-111 -258h-32l317 740h39l317 -740h-32l-111 258h-387zM343 712l-180 -427h361zM298 919v-116h-29v116h29zM418 919v-116h-29v116h29z" />
    <glyph glyph-name="Aring" unicode="&#xc5;" horiz-adv-x="687" 
d="M150 258l-111 -258h-32l317 740h39l317 -740h-32l-111 258h-387zM343 712l-180 -427h361zM343 937q38 0 65 -26.5t27 -64.5t-27 -64.5t-65 -26.5q-37 0 -64 26.5t-27 64.5t27 64.5t64 26.5zM343 911q-26 0 -44.5 -19t-18.5 -45t18.5 -44.5t44.5 -18.5q27 0 45.5 18.5
t18.5 44.5t-18.5 45t-45.5 19z" />
    <glyph glyph-name="AE" unicode="&#xc6;" horiz-adv-x="944" 
d="M504 740h366v-27h-316v-327h316v-27h-316v-332h316v-27h-346v264h-315l-183 -264h-34zM522 722l-291 -431h293v431h-2z" />
    <glyph glyph-name="Ccedilla" unicode="&#xc7;" horiz-adv-x="786" 
d="M714 161h34q-42 -71 -128.5 -122.5t-194.5 -51.5h-5l-20 -43l2 -1q6 3 13 3q33 0 52.5 -21.5t19.5 -49.5q0 -30 -19.5 -53t-53.5 -23q-63 0 -74 62h27q9 -35 47 -35q18 0 31.5 13t14.5 36q-1 20 -14.5 32.5t-31.5 12.5q-26 0 -41 -25l-22 5l41 89q-149 11 -250 118
t-101 263q0 165 111.5 274t272.5 109q109 -1 193 -53t131 -125h-35q-14 20 -35 41t-57 48t-88 44.5t-109 17.5q-148 0 -251 -102t-103 -254t103 -254t251 -102q60 0 113.5 18t89.5 46t54.5 46.5t31.5 36.5z" />
    <glyph glyph-name="Egrave" unicode="&#xc8;" horiz-adv-x="547" 
d="M77 740h406v-27h-376v-327h376v-27h-376v-332h376v-27h-406v740zM154 951l237 -138l-13 -23l-238 138z" />
    <glyph glyph-name="Eacute" unicode="&#xc9;" horiz-adv-x="547" 
d="M77 740h406v-27h-376v-327h376v-27h-376v-332h376v-27h-406v740zM156 813l237 138l14 -23l-238 -138z" />
    <glyph glyph-name="Ecircumflex" unicode="&#xca;" horiz-adv-x="547" 
d="M77 740h406v-27h-376v-327h376v-27h-376v-332h376v-27h-406v740zM273 933l196 -110l-26 -15l-170 94l-170 -94l-25 15z" />
    <glyph glyph-name="Edieresis" unicode="&#xcb;" horiz-adv-x="547" 
d="M77 740h406v-27h-376v-327h376v-27h-376v-332h376v-27h-406v740zM228 919v-116h-29v116h29zM348 919v-116h-29v116h29z" />
    <glyph glyph-name="Igrave" unicode="&#xcc;" horiz-adv-x="185" 
d="M107 740v-740h-30v740h30zM-47 951l237 -138l-13 -23l-238 138z" />
    <glyph glyph-name="Iacute" unicode="&#xcd;" horiz-adv-x="185" 
d="M107 740v-740h-30v740h30zM-5 813l237 138l14 -23l-238 -138z" />
    <glyph glyph-name="Icircumflex" unicode="&#xce;" horiz-adv-x="185" 
d="M107 740v-740h-30v740h30zM92 933l196 -110l-26 -15l-170 94l-170 -94l-25 15z" />
    <glyph glyph-name="Idieresis" unicode="&#xcf;" horiz-adv-x="185" 
d="M107 740v-740h-30v740h30zM47 919v-116h-29v116h29zM167 919v-116h-29v116h29z" />
    <glyph glyph-name="Eth" unicode="&#xd0;" horiz-adv-x="701" 
d="M77 359h-77v27h77v354h209q175 0 274 -98t99 -272t-99 -272t-274 -98h-209v359zM358 386v-27h-251v-332h179q161 0 252 90.5t91 250.5q0 162 -90.5 253.5t-252.5 91.5h-179v-327h251z" />
    <glyph glyph-name="Ntilde" unicode="&#xd1;" horiz-adv-x="738" 
d="M122 740l507 -700h2v700h30v-740h-38l-514 710h-2v-710h-30v740h45zM530 881l20 -21q-48 -32 -89 -32q-48 0 -91 25q-54 28 -84 28q-44 0 -78 -27l-20 20q43 35 98 35q34 0 85 -24q50 -27 89 -27q31 0 70 23z" />
    <glyph glyph-name="Ograve" unicode="&#xd2;" horiz-adv-x="851" 
d="M41 370q0 165 111.5 274t272.5 109t272.5 -109t111.5 -274t-111.5 -274t-272.5 -109t-272.5 109t-111.5 274zM71 370q0 -152 103 -254t251 -102t251 102t103 254t-103 254t-251 102t-251 -102t-103 -254zM306 951l237 -138l-13 -23l-238 138z" />
    <glyph glyph-name="Oacute" unicode="&#xd3;" horiz-adv-x="851" 
d="M41 370q0 165 111.5 274t272.5 109t272.5 -109t111.5 -274t-111.5 -274t-272.5 -109t-272.5 109t-111.5 274zM71 370q0 -152 103 -254t251 -102t251 102t103 254t-103 254t-251 102t-251 -102t-103 -254zM308 813l237 138l14 -23l-238 -138z" />
    <glyph glyph-name="Ocircumflex" unicode="&#xd4;" horiz-adv-x="851" 
d="M41 370q0 165 111.5 274t272.5 109t272.5 -109t111.5 -274t-111.5 -274t-272.5 -109t-272.5 109t-111.5 274zM71 370q0 -152 103 -254t251 -102t251 102t103 254t-103 254t-251 102t-251 -102t-103 -254zM425 933l196 -110l-26 -15l-170 94l-170 -94l-25 15z" />
    <glyph glyph-name="Otilde" unicode="&#xd5;" horiz-adv-x="851" 
d="M41 370q0 165 111.5 274t272.5 109t272.5 -109t111.5 -274t-111.5 -274t-272.5 -109t-272.5 109t-111.5 274zM71 370q0 -152 103 -254t251 -102t251 102t103 254t-103 254t-251 102t-251 -102t-103 -254zM586 881l20 -21q-48 -32 -89 -32q-48 0 -91 25q-54 28 -84 28
q-44 0 -78 -27l-20 20q43 35 98 35q34 0 85 -24q50 -27 89 -27q31 0 70 23z" />
    <glyph glyph-name="Odieresis" unicode="&#xd6;" horiz-adv-x="851" 
d="M41 370q0 165 111.5 274t272.5 109t272.5 -109t111.5 -274t-111.5 -274t-272.5 -109t-272.5 109t-111.5 274zM71 370q0 -152 103 -254t251 -102t251 102t103 254t-103 254t-251 102t-251 -102t-103 -254zM380 919v-116h-29v116h29zM500 919v-116h-29v116h29z" />
    <glyph glyph-name="multiply" unicode="&#xd7;" horiz-adv-x="600" 
d="M70 499l230 -228l230 228l20 -22l-229 -226l229 -228l-20 -21l-230 229l-230 -229l-20 21l229 228l-229 226z" />
    <glyph glyph-name="Oslash" unicode="&#xd8;" horiz-adv-x="851" 
d="M207 87l420 578q-91 61 -202 61q-148 0 -251 -102t-103 -254q0 -88 36 -161.5t100 -121.5zM651 647l-419 -576q86 -57 193 -57q148 0 251 102t103 254q0 85 -34 157t-94 120zM644 688l88 121l24 -18l-88 -121q67 -54 104 -131t37 -169q0 -165 -111.5 -274t-272.5 -109
q-118 0 -210 61l-98 -134l-23 18l96 132q-69 52 -109 131.5t-40 174.5q0 165 111.5 274t272.5 109q122 0 219 -65z" />
    <glyph glyph-name="Ugrave" unicode="&#xd9;" horiz-adv-x="605" 
d="M76 260v480h30v-480q0 -45 1.5 -67t12 -52t32.5 -59q24 -31 65.5 -49.5t86.5 -18.5q43 0 84 18.5t65 49.5q22 29 32.5 59t12 52t1.5 67v480h30v-480q1 -45 -2.5 -77.5t-25 -77.5t-61.5 -73q-61 -45 -138 -45q-76 0 -137 45q-40 28 -61.5 73t-25 77.5t-2.5 77.5zM183 951
l237 -138l-13 -23l-238 138z" />
    <glyph glyph-name="Uacute" unicode="&#xda;" horiz-adv-x="605" 
d="M76 260v480h30v-480q0 -45 1.5 -67t12 -52t32.5 -59q24 -31 65.5 -49.5t86.5 -18.5q43 0 84 18.5t65 49.5q22 29 32.5 59t12 52t1.5 67v480h30v-480q1 -45 -2.5 -77.5t-25 -77.5t-61.5 -73q-61 -45 -138 -45q-76 0 -137 45q-40 28 -61.5 73t-25 77.5t-2.5 77.5zM185 813
l237 138l14 -23l-238 -138z" />
    <glyph glyph-name="Ucircumflex" unicode="&#xdb;" horiz-adv-x="605" 
d="M76 260v480h30v-480q0 -45 1.5 -67t12 -52t32.5 -59q24 -31 65.5 -49.5t86.5 -18.5q43 0 84 18.5t65 49.5q22 29 32.5 59t12 52t1.5 67v480h30v-480q1 -45 -2.5 -77.5t-25 -77.5t-61.5 -73q-61 -45 -138 -45q-76 0 -137 45q-40 28 -61.5 73t-25 77.5t-2.5 77.5zM302 933
l196 -110l-26 -15l-170 94l-170 -94l-25 15z" />
    <glyph glyph-name="Udieresis" unicode="&#xdc;" horiz-adv-x="605" 
d="M76 260v480h30v-480q0 -45 1.5 -67t12 -52t32.5 -59q24 -31 65.5 -49.5t86.5 -18.5q43 0 84 18.5t65 49.5q22 29 32.5 59t12 52t1.5 67v480h30v-480q1 -45 -2.5 -77.5t-25 -77.5t-61.5 -73q-61 -45 -138 -45q-76 0 -137 45q-40 28 -61.5 73t-25 77.5t-2.5 77.5zM257 919
v-116h-29v116h29zM377 919v-116h-29v116h29z" />
    <glyph glyph-name="Yacute" unicode="&#xdd;" horiz-adv-x="554" 
d="M48 740l229 -451l228 451h34l-247 -485v-255h-30v255l-247 485h33zM160 813l237 138l14 -23l-238 -138z" />
    <glyph glyph-name="Thorn" unicode="&#xde;" horiz-adv-x="511" 
d="M67 740h30v-156h142q73 0 111 -8.5t74 -35.5q33 -24 54 -70t21 -96t-21 -96t-54 -70q-36 -27 -74 -35.5t-111 -8.5h-142v-164h-30v740zM97 557v-366h143q65 0 100.5 9t67.5 32q26 20 43.5 59.5t17.5 81.5q0 43 -17 82.5t-44 60.5q-32 23 -67.5 32t-100.5 9h-143z" />
    <glyph glyph-name="germandbls" unicode="&#xdf;" horiz-adv-x="559" 
d="M76 0v472q0 85 8 127.5t31 73.5q24 37 65.5 58t86.5 21q90 0 143 -54.5t53 -142.5q0 -28 -6.5 -57t-33.5 -65.5t-71 -54.5v-2q80 -11 122.5 -66.5t42.5 -124.5q0 -86 -58.5 -142t-137.5 -56q-35 0 -67 10.5t-61.5 32.5t-48.5 63.5t-22 97.5h28q2 -51 20 -87.5t45.5 -55
t54 -27t54.5 -8.5q66 0 115.5 47.5t49.5 119.5q0 86 -63 138q-28 20 -58.5 29t-92.5 10h-28v26h27q64 0 112.5 49.5t48.5 122.5q0 81 -46 126t-121 45q-38 0 -73 -17.5t-54 -45.5q-24 -35 -30.5 -74t-6.5 -117v-472h-28z" />
    <glyph glyph-name="agrave" unicode="&#xe0;" horiz-adv-x="674" 
d="M596 530v-530h-28v132h-2q-35 -68 -99 -106.5t-147 -38.5q-125 0 -202 82.5t-77 195.5q0 114 77.5 196t201.5 82q90 0 157 -45t89 -103h2v135h28zM323 13q108 0 178 73.5t70 178.5q0 108 -72 180t-179 72q-105 0 -178 -71t-73 -181q0 -46 16.5 -90t46.5 -80.5t79.5 -59
t111.5 -22.5zM218 766l237 -138l-13 -23l-238 138z" />
    <glyph glyph-name="aacute" unicode="&#xe1;" horiz-adv-x="674" 
d="M596 530v-530h-28v132h-2q-35 -68 -99 -106.5t-147 -38.5q-125 0 -202 82.5t-77 195.5q0 114 77.5 196t201.5 82q90 0 157 -45t89 -103h2v135h28zM323 13q108 0 178 73.5t70 178.5q0 108 -72 180t-179 72q-105 0 -178 -71t-73 -181q0 -46 16.5 -90t46.5 -80.5t79.5 -59
t111.5 -22.5zM215 628l237 138l14 -23l-238 -138z" />
    <glyph glyph-name="acircumflex" unicode="&#xe2;" horiz-adv-x="674" 
d="M596 530v-530h-28v132h-2q-35 -68 -99 -106.5t-147 -38.5q-125 0 -202 82.5t-77 195.5q0 114 77.5 196t201.5 82q90 0 157 -45t89 -103h2v135h28zM323 13q108 0 178 73.5t70 178.5q0 108 -72 180t-179 72q-105 0 -178 -71t-73 -181q0 -46 16.5 -90t46.5 -80.5t79.5 -59
t111.5 -22.5zM337 748l196 -110l-26 -15l-170 94l-170 -94l-25 15z" />
    <glyph glyph-name="atilde" unicode="&#xe3;" horiz-adv-x="674" 
d="M596 530v-530h-28v132h-2q-35 -68 -99 -106.5t-147 -38.5q-125 0 -202 82.5t-77 195.5q0 114 77.5 196t201.5 82q90 0 157 -45t89 -103h2v135h28zM323 13q108 0 178 73.5t70 178.5q0 108 -72 180t-179 72q-105 0 -178 -71t-73 -181q0 -46 16.5 -90t46.5 -80.5t79.5 -59
t111.5 -22.5zM498 686l20 -21q-48 -32 -89 -32q-48 0 -91 25q-54 28 -84 28q-44 0 -78 -27l-20 20q43 35 98 35q34 0 85 -24q50 -27 89 -27q31 0 70 23z" />
    <glyph glyph-name="adieresis" unicode="&#xe4;" horiz-adv-x="674" 
d="M596 530v-530h-28v132h-2q-35 -68 -99 -106.5t-147 -38.5q-125 0 -202 82.5t-77 195.5q0 114 77.5 196t201.5 82q90 0 157 -45t89 -103h2v135h28zM323 13q108 0 178 73.5t70 178.5q0 108 -72 180t-179 72q-105 0 -178 -71t-73 -181q0 -46 16.5 -90t46.5 -80.5t79.5 -59
t111.5 -22.5zM292 734v-116h-29v116h29zM412 734v-116h-29v116h29z" />
    <glyph glyph-name="aring" unicode="&#xe5;" horiz-adv-x="674" 
d="M596 530v-530h-28v132h-2q-35 -68 -99 -106.5t-147 -38.5q-125 0 -202 82.5t-77 195.5q0 114 77.5 196t201.5 82q90 0 157 -45t89 -103h2v135h28zM323 13q108 0 178 73.5t70 178.5q0 108 -72 180t-179 72q-105 0 -178 -71t-73 -181q0 -46 16.5 -90t46.5 -80.5t79.5 -59
t111.5 -22.5zM337 775q38 0 65 -26.5t27 -64.5t-27 -64.5t-65 -26.5q-37 0 -64 26.5t-27 64.5t27 64.5t64 26.5zM337 749q-26 0 -44.5 -19t-18.5 -45t18.5 -44.5t44.5 -18.5q27 0 45.5 18.5t18.5 44.5t-18.5 45t-45.5 19z" />
    <glyph glyph-name="ae" unicode="&#xe6;" horiz-adv-x="1154" 
d="M595 530v-154h2q18 42 20 46q78 121 218 121q125 0 200.5 -82.5t77.5 -198.5h-518q6 -72 35 -124.5t69 -77.5t75.5 -36t68.5 -11q75 0 131 41t90 99h33q-30 -66 -97 -116t-154 -50q-69 -1 -127 29t-96 86q-15 23 -26 60h-2v-162h-28v162h-2q-12 -43 -26 -61
q-43 -63 -105 -88t-114 -26q-119 0 -199 79.5t-80 198.5v-1q0 119 79.5 199t197.5 80q69 0 129 -31t98 -91q4 -7 20 -46h2v155h28zM596 288h486q-18 111 -83.5 170t-161.5 59q-107 0 -178 -82q-22 -25 -35.5 -53t-18 -45.5t-9.5 -48.5zM568 265q0 101 -72.5 176.5
t-174.5 75.5q-108 0 -180 -72t-72 -180t72 -180t180 -72q100 0 173.5 74.5t73.5 177.5z" />
    <glyph glyph-name="ccedilla" unicode="&#xe7;" horiz-adv-x="619" 
d="M552 167h31q-28 -81 -98.5 -130t-164.5 -50h-2l-20 -43l2 -1q6 3 13 3q33 0 52.5 -21.5t19.5 -49.5q0 -30 -19.5 -53t-53.5 -23q-63 0 -74 62h27q9 -35 47 -35q18 0 31.5 13t14.5 36q-1 20 -14.5 32.5t-31.5 12.5q-26 0 -41 -25l-22 5l41 90q-107 9 -178 85t-71 190
q1 118 80.5 198t198.5 80q86 0 160 -48t104 -137h-31q-19 55 -60.5 92.5t-85 52.5t-86.5 14q-101 -1 -179 -71q-33 -30 -53 -79t-20 -102q0 -110 73.5 -181t177.5 -71q86 1 148.5 46t83.5 108z" />
    <glyph glyph-name="egrave" unicode="&#xe8;" horiz-adv-x="619" 
d="M588 262h-528q1 -62 25.5 -111.5t62.5 -78.5t80 -44t83 -15q74 0 134.5 36.5t91.5 103.5h31q-36 -82 -105 -124.5t-153 -41.5q-121 0 -200 79.5t-79 198.5v-1q0 119 80.5 199t199.5 80q111 0 192 -73.5t86 -192.5zM61 288h499q-4 95 -79.5 164t-169.5 65q-100 0 -172 -65
t-78 -164zM190 766l237 -138l-13 -23l-238 138z" />
    <glyph glyph-name="eacute" unicode="&#xe9;" horiz-adv-x="619" 
d="M588 262h-528q1 -62 25.5 -111.5t62.5 -78.5t80 -44t83 -15q74 0 134.5 36.5t91.5 103.5h31q-36 -82 -105 -124.5t-153 -41.5q-121 0 -200 79.5t-79 198.5v-1q0 119 80.5 199t199.5 80q111 0 192 -73.5t86 -192.5zM61 288h499q-4 95 -79.5 164t-169.5 65q-100 0 -172 -65
t-78 -164zM187 628l237 138l14 -23l-238 -138z" />
    <glyph glyph-name="ecircumflex" unicode="&#xea;" horiz-adv-x="619" 
d="M588 262h-528q1 -62 25.5 -111.5t62.5 -78.5t80 -44t83 -15q74 0 134.5 36.5t91.5 103.5h31q-36 -82 -105 -124.5t-153 -41.5q-121 0 -200 79.5t-79 198.5v-1q0 119 80.5 199t199.5 80q111 0 192 -73.5t86 -192.5zM61 288h499q-4 95 -79.5 164t-169.5 65q-100 0 -172 -65
t-78 -164zM309 748l196 -110l-26 -15l-170 94l-170 -94l-25 15z" />
    <glyph glyph-name="edieresis" unicode="&#xeb;" horiz-adv-x="619" 
d="M588 262h-528q1 -62 25.5 -111.5t62.5 -78.5t80 -44t83 -15q74 0 134.5 36.5t91.5 103.5h31q-36 -82 -105 -124.5t-153 -41.5q-121 0 -200 79.5t-79 198.5v-1q0 119 80.5 199t199.5 80q111 0 192 -73.5t86 -192.5zM61 288h499q-4 95 -79.5 164t-169.5 65q-100 0 -172 -65
t-78 -164zM259 734v-116h-29v116h29zM379 734v-116h-29v116h29z" />
    <glyph glyph-name="igrave" unicode="&#xec;" horiz-adv-x="184" 
d="M106 530v-530h-28v530h28zM-47 766l237 -138l-13 -23l-238 138z" />
    <glyph glyph-name="iacute" unicode="&#xed;" horiz-adv-x="184" 
d="M106 530v-530h-28v530h28zM-5 628l237 138l14 -23l-238 -138z" />
    <glyph glyph-name="icircumflex" unicode="&#xee;" horiz-adv-x="184" 
d="M106 530v-530h-28v530h28zM92 748l196 -110l-26 -15l-170 94l-170 -94l-25 15z" />
    <glyph glyph-name="idieresis" unicode="&#xef;" horiz-adv-x="184" 
d="M106 530v-530h-28v530h28zM47 734v-116h-29v116h29zM167 734v-116h-29v116h29z" />
    <glyph glyph-name="eth" unicode="&#xf0;" horiz-adv-x="641" 
d="M69 265q-1 -108 71 -180t180 -72q109 0 180.5 72.5t71.5 180.5q0 104 -74.5 177.5t-175.5 73.5q-109 -1 -181.5 -73t-71.5 -179zM308 641l-191 -77l-20 20l180 73q-75 37 -166 68l34 15q91 -31 166 -70l175 70l19 -21l-163 -65q141 -83 199.5 -177.5t58.5 -210.5
q0 -127 -84.5 -202t-195.5 -77q-73 0 -134.5 30.5t-102.5 95t-42 151.5q2 124 80.5 200.5t199.5 78.5q57 0 110.5 -24t88.5 -66l2 2q-72 111 -214 186z" />
    <glyph glyph-name="ntilde" unicode="&#xf1;" horiz-adv-x="641" 
d="M106 530v-102h2q24 55 85 86t128 29q102 0 166 -53q77 -65 77 -210v-280h-28v280q0 128 -65 187q-55 50 -150 50q-100 -2 -157.5 -57.5t-57.5 -154.5v-305h-28v530h28zM481 686l20 -21q-48 -32 -89 -32q-48 0 -91 25q-54 28 -84 28q-44 0 -78 -27l-20 20q43 35 98 35
q34 0 85 -24q50 -27 89 -27q31 0 70 23z" />
    <glyph glyph-name="ograve" unicode="&#xf2;" horiz-adv-x="641" 
d="M41 265q0 119 80 198.5t199 79.5t199 -79.5t80 -198.5t-80 -198.5t-199 -79.5t-199 79.5t-80 198.5zM69 265q0 -108 72 -180t179 -72t179 72t72 180t-72 180t-179 72t-179 -72t-72 -180zM201 766l237 -138l-13 -23l-238 138z" />
    <glyph glyph-name="oacute" unicode="&#xf3;" horiz-adv-x="641" 
d="M41 265q0 119 80 198.5t199 79.5t199 -79.5t80 -198.5t-80 -198.5t-199 -79.5t-199 79.5t-80 198.5zM69 265q0 -108 72 -180t179 -72t179 72t72 180t-72 180t-179 72t-179 -72t-72 -180zM198 628l237 138l14 -23l-238 -138z" />
    <glyph glyph-name="ocircumflex" unicode="&#xf4;" horiz-adv-x="641" 
d="M41 265q0 119 80 198.5t199 79.5t199 -79.5t80 -198.5t-80 -198.5t-199 -79.5t-199 79.5t-80 198.5zM69 265q0 -108 72 -180t179 -72t179 72t72 180t-72 180t-179 72t-179 -72t-72 -180zM320 748l196 -110l-26 -15l-170 94l-170 -94l-25 15z" />
    <glyph glyph-name="otilde" unicode="&#xf5;" horiz-adv-x="641" 
d="M41 265q0 119 80 198.5t199 79.5t199 -79.5t80 -198.5t-80 -198.5t-199 -79.5t-199 79.5t-80 198.5zM69 265q0 -108 72 -180t179 -72t179 72t72 180t-72 180t-179 72t-179 -72t-72 -180zM481 686l20 -21q-48 -32 -89 -32q-48 0 -91 25q-54 28 -84 28q-44 0 -78 -27
l-20 20q43 35 98 35q34 0 85 -24q50 -27 89 -27q31 0 70 23z" />
    <glyph glyph-name="odieresis" unicode="&#xf6;" horiz-adv-x="641" 
d="M41 265q0 119 80 198.5t199 79.5t199 -79.5t80 -198.5t-80 -198.5t-199 -79.5t-199 79.5t-80 198.5zM69 265q0 -108 72 -180t179 -72t179 72t72 180t-72 180t-179 72t-179 -72t-72 -180zM275 734v-116h-29v116h29zM395 734v-116h-29v116h29z" />
    <glyph glyph-name="divide" unicode="&#xf7;" horiz-adv-x="600" 
d="M50 264h500v-28h-500v28zM315 81v-81h-30v81h30zM315 500v-81h-30v81h30z" />
    <glyph glyph-name="oslash" unicode="&#xf8;" horiz-adv-x="641" 
d="M69 265q0 -124 91 -197l297 409q-60 40 -137 40q-107 0 -179 -72t-72 -180zM571 265q0 124 -91 197l-298 -410q62 -39 138 -39q107 0 179 72t72 180zM41 265q0 119 80 198.5t199 79.5q87 0 153 -44l62 86l21 -17l-60 -84q103 -84 103 -219q0 -119 -80 -198.5t-199 -79.5
q-85 0 -153 44l-60 -83l-22 17l60 82q-104 80 -104 218z" />
    <glyph glyph-name="ugrave" unicode="&#xf9;" horiz-adv-x="641" 
d="M536 0v107h-2q-24 -59 -83.5 -90.5t-129.5 -29.5q-102 0 -166 53q-77 65 -77 210v280h28v-280q0 -128 65 -187q55 -50 150 -50q101 1 158 57.5t57 158.5v301h28v-530h-28zM201 766l237 -138l-13 -23l-238 138z" />
    <glyph glyph-name="uacute" unicode="&#xfa;" horiz-adv-x="641" 
d="M536 0v107h-2q-24 -59 -83.5 -90.5t-129.5 -29.5q-102 0 -166 53q-77 65 -77 210v280h28v-280q0 -128 65 -187q55 -50 150 -50q101 1 158 57.5t57 158.5v301h28v-530h-28zM203 628l237 138l14 -23l-238 -138z" />
    <glyph glyph-name="ucircumflex" unicode="&#xfb;" horiz-adv-x="641" 
d="M536 0v107h-2q-24 -59 -83.5 -90.5t-129.5 -29.5q-102 0 -166 53q-77 65 -77 210v280h28v-280q0 -128 65 -187q55 -50 150 -50q101 1 158 57.5t57 158.5v301h28v-530h-28zM320 748l196 -110l-26 -15l-170 94l-170 -94l-25 15z" />
    <glyph glyph-name="udieresis" unicode="&#xfc;" horiz-adv-x="641" 
d="M536 0v107h-2q-24 -59 -83.5 -90.5t-129.5 -29.5q-102 0 -166 53q-77 65 -77 210v280h28v-280q0 -128 65 -187q55 -50 150 -50q101 1 158 57.5t57 158.5v301h28v-530h-28zM275 734v-116h-29v116h29zM395 734v-116h-29v116h29z" />
    <glyph glyph-name="yacute" unicode="&#xfd;" horiz-adv-x="481" 
d="M42 530l196 -491l209 491h33l-321 -743h-32l94 214l-210 529h31zM123 628l237 138l14 -23l-238 -138z" />
    <glyph glyph-name="thorn" unicode="&#xfe;" horiz-adv-x="681" 
d="M106 740v-353h2q22 47 56.5 80t71.5 48.5t67 21.5t56 6q119 0 199.5 -80t80.5 -198q0 -119 -80.5 -198.5t-199.5 -79.5q-84 0 -151 42.5t-100 110.5h-2v-353h-28v953h28zM106 262q0 -97 73.5 -173t180.5 -76q108 0 179.5 72t71.5 180t-71.5 180t-179.5 72
q-102 0 -178 -71.5t-76 -183.5z" />
    <glyph glyph-name="ydieresis" unicode="&#xff;" horiz-adv-x="481" 
d="M42 530l196 -491l209 491h33l-321 -743h-32l94 214l-210 529h31zM195 734v-116h-29v116h29zM315 734v-116h-29v116h29z" />
    <glyph glyph-name="dotlessi" unicode="&#x131;" horiz-adv-x="184" 
d="M106 530v-530h-28v530h28z" />
    <glyph glyph-name="Lslash" unicode="&#x141;" horiz-adv-x="423" 
d="M0 280v35l81 60v365h30v-343l157 115v-35l-157 -115v-3v-332h313v-27h-343v340z" />
    <glyph glyph-name="lslash" unicode="&#x142;" horiz-adv-x="219" 
d="M123 428l97 71v-29l-97 -72v-398h-28v382l-79 -58v30l79 58v328h28v-312z" />
    <glyph glyph-name="OE" unicode="&#x152;" horiz-adv-x="1178" 
d="M1117 713h-315v-327h315v-27h-315v-332h315v-27h-345v229h-2q-31 -106 -127.5 -174t-220.5 -68q-162 0 -271.5 108t-109.5 275t109 275t268 108q126 0 223 -67.5t129 -174.5h2v229h345v-27zM71 370q0 -155 100.5 -255.5t248.5 -100.5q80 0 147.5 31t110.5 81t67.5 110.5
t26.5 123.5v22q-2 60 -25.5 119.5t-65.5 110.5t-110.5 82.5t-150.5 31.5q-148 0 -248.5 -100.5t-100.5 -255.5z" />
    <glyph glyph-name="oe" unicode="&#x153;" horiz-adv-x="1156" 
d="M1116 263h-518q6 -119 79 -184.5t168 -65.5q71 0 133 37t86 105h31q-11 -25 -19 -40.5t-29.5 -41t-50.5 -44.5q-71 -42 -151 -42q-47 0 -96.5 17t-97.5 62.5t-66 111.5h-2q-40 -101 -112 -146t-151 -45q-119 0 -199 79.5t-80 198.5v-1q0 119 80 199t199 80q128 0 211 -99
q33 -43 50 -95l2 4q18 54 50.5 92.5t70.5 58t71.5 27.5t65.5 8q117 0 196 -82t79 -194zM568 263q0 97 -70 175.5t-178 78.5q-107 0 -179 -72t-72 -180t72 -180t179 -72q105 0 176.5 76t71.5 174zM599 289h484q-2 33 -17.5 70t-44 72.5t-76 58.5t-105.5 23q-94 0 -162 -63
t-79 -161z" />
    <glyph glyph-name="Scaron" unicode="&#x160;" horiz-adv-x="518" 
d="M45 187h30q6 -50 27.5 -86.5t50 -54t54.5 -25t51 -7.5q73 0 129.5 50t56.5 126q0 33 -8 59t-26 45t-32.5 31t-43 22.5t-40 14.5t-39.5 11q-29 7 -46 12t-49 20t-50.5 33t-33.5 49.5t-15 71.5q-2 88 57 140.5t144 52.5q71 0 125.5 -43.5t65.5 -128.5h-30q-27 145 -163 145
q-72 0 -120.5 -45t-48.5 -116q0 -34 11.5 -60.5t28 -43t46 -30.5t52.5 -21t61 -17q66 -18 95 -36q89 -53 89 -162q0 -89 -65 -148t-150 -59q-35 0 -70 12t-66.5 35t-52.5 63t-25 90zM260 808l-196 110l26 15l170 -94l170 94l25 -14z" />
    <glyph glyph-name="scaron" unicode="&#x161;" horiz-adv-x="426" 
d="M48 147h28q0 -62 38 -98t97 -36q58 0 93.5 38t33.5 91q-1 54 -31.5 83t-96.5 44q-72 21 -106.5 48t-36.5 89q0 64 41 100.5t103 36.5q61 -1 100.5 -37t39.5 -101h-28q0 56 -32.5 84.5t-79.5 27.5q-53 0 -85.5 -31.5t-30.5 -79.5q2 -46 29 -69t87 -40q30 -8 43.5 -12
t38.5 -16.5t37 -26.5t23 -38.5t13 -57.5q4 -65 -41.5 -112t-113.5 -47q-69 0 -118 45t-45 115zM214 623l-196 110l26 15l170 -94l170 94l25 -14z" />
    <glyph glyph-name="Ydieresis" unicode="&#x178;" horiz-adv-x="554" 
d="M48 740l229 -451l228 451h34l-247 -485v-255h-30v255l-247 485h33zM232 919v-116h-29v116h29zM352 919v-116h-29v116h29z" />
    <glyph glyph-name="Zcaron" unicode="&#x17d;" horiz-adv-x="499" 
d="M493 0h-473l403 713h-417v27h466l-403 -713h424v-27zM245 808l-196 110l26 15l170 -94l170 94l25 -14z" />
    <glyph glyph-name="zcaron" unicode="&#x17e;" horiz-adv-x="407" 
d="M30 530h347v-27l-329 -477h346v-26h-382v24l329 480h-311v26zM204 623l-196 110l26 15l170 -94l170 94l25 -14z" />
    <glyph glyph-name="florin" unicode="&#x192;" 
d="M356 562h141l-7 -27h-138l-94 -498q-6 -33 -10.5 -52t-18 -48.5t-31 -46t-49.5 -29.5t-74 -13q-33 0 -60 8l6 28q36 -9 54 -9q35 0 61.5 10.5t41 24.5t25.5 38.5t14.5 40t8.5 42.5l95 504h-144l6 27h142l10 51q11 62 26 98t44 62q50 40 110 40q15 0 27 -3l-6 -26
q-14 2 -24 2q-58 -4 -90 -36q-11 -11 -20 -24.5t-15 -31t-9 -27.5t-7.5 -30.5t-5.5 -23.5z" />
    <glyph glyph-name="circumflex" unicode="&#x2c6;" 
d="M277 748l196 -110l-26 -15l-170 94l-170 -94l-25 15z" />
    <glyph glyph-name="caron" unicode="&#x2c7;" 
d="M278 623l-196 110l26 15l170 -94l170 94l25 -14z" />
    <glyph glyph-name="breve" unicode="&#x2d8;" 
d="M86 716h38q36 -53 153 -53q53 0 88 10.5t45 19.5t21 23h38q-10 -16 -18.5 -26t-29.5 -25.5t-57.5 -23t-86.5 -7.5q-145 0 -191 82z" />
    <glyph glyph-name="dotaccent" unicode="&#x2d9;" 
d="M293 734v-116h-31v116h31z" />
    <glyph glyph-name="ring" unicode="&#x2da;" 
d="M277 777q38 0 65 -26.5t27 -64.5t-27 -64.5t-65 -26.5q-37 0 -64 26.5t-27 64.5t27 64.5t64 26.5zM277 751q-26 0 -44.5 -19t-18.5 -45t18.5 -44.5t44.5 -18.5q27 0 45.5 18.5t18.5 44.5t-18.5 45t-45.5 19z" />
    <glyph glyph-name="ogonek" unicode="&#x2db;" 
d="M285 0h29q-52 -38 -69 -57t-17 -49q0 -31 21.5 -51t51.5 -20q23 0 56 13v-29q-24 -13 -56 -13q-47 0 -75.5 26.5t-28.5 70.5q0 70 88 109z" />
    <glyph glyph-name="tilde" unicode="&#x2dc;" 
d="M438 686l20 -21q-48 -32 -89 -32q-48 0 -91 25q-54 28 -84 28q-44 0 -78 -27l-20 20q43 35 98 35q34 0 85 -24q50 -27 89 -27q31 0 70 23z" />
    <glyph glyph-name="hungarumlaut" unicode="&#x2dd;" 
d="M144 628l226 160l16 -22l-226 -161zM255 628l226 160l16 -22l-226 -161z" />
    <glyph glyph-name="endash" unicode="&#x2013;" horiz-adv-x="500" 
d="M35 291h430v-29h-430v29z" />
    <glyph glyph-name="emdash" unicode="&#x2014;" horiz-adv-x="1000" 
d="M35 291h930v-29h-930v29z" />
    <glyph glyph-name="quoteleft" unicode="&#x2018;" horiz-adv-x="277" 
d="M123 740l64 -154h-33l-64 154h33z" />
    <glyph glyph-name="quoteright" unicode="&#x2019;" horiz-adv-x="277" 
d="M90 586l64 154h33l-64 -154h-33z" />
    <glyph glyph-name="quotesinglbase" unicode="&#x201a;" horiz-adv-x="277" 
d="M90 -72l64 154h33l-64 -154h-33z" />
    <glyph glyph-name="quotedblleft" unicode="&#x201c;" horiz-adv-x="370" 
d="M125 740l64 -154h-33l-64 154h33zM214 740l64 -154h-33l-64 154h33z" />
    <glyph glyph-name="quotedblright" unicode="&#x201d;" horiz-adv-x="370" 
d="M181 586l64 154h33l-64 -154h-33zM92 586l64 154h33l-64 -154h-33z" />
    <glyph glyph-name="quotedblbase" unicode="&#x201e;" horiz-adv-x="370" 
d="M181 -72l64 154h33l-64 -154h-33zM92 -72l64 154h33l-64 -154h-33z" />
    <glyph glyph-name="dagger" unicode="&#x2020;" horiz-adv-x="573" 
d="M301 740v-214h190v-30h-190v-596h-30v596h-188v30h188v214h30z" />
    <glyph glyph-name="daggerdbl" unicode="&#x2021;" horiz-adv-x="573" 
d="M303 740v-185h188v-30h-188v-410h188v-30h-188v-185h-30v185h-190v30h190v410h-190v30h190v185h30z" />
    <glyph glyph-name="bullet" unicode="&#x2022;" horiz-adv-x="375" 
d="M189 532q62 0 106.5 -45.5t44.5 -109.5t-45 -109.5t-107 -45.5q-63 0 -108 46t-45 109t44.5 109t109.5 46z" />
    <glyph glyph-name="ellipsis" unicode="&#x2026;" horiz-adv-x="1000" 
d="M182 82v-82h-30v82h30zM515 82v-82h-30v82h30zM848 82v-82h-30v82h30z" />
    <glyph glyph-name="perthousand" unicode="&#x2030;" horiz-adv-x="1089" 
d="M20 590q0 70 46 116.5t117 46.5t117 -46.5t46 -116.5t-46 -116.5t-117 -46.5t-117 46.5t-46 116.5zM318 590q0 60 -37.5 99t-97.5 39t-97.5 -39t-37.5 -99t37.5 -99t97.5 -39t97.5 39t37.5 99zM369 150q0 70 46.5 116.5t116.5 46.5t116.5 -46.5t46.5 -116.5t-46.5 -116.5
t-116.5 -46.5t-116.5 46.5t-46.5 116.5zM667 150q0 60 -37.5 99t-97.5 39t-97.5 -39t-37.5 -99t37.5 -99t97.5 -39t97.5 39t37.5 99zM744 150q0 70 46 116.5t117 46.5t117 -46.5t46 -116.5t-46 -116.5t-117 -46.5t-117 46.5t-46 116.5zM1042 150q0 60 -37.5 99t-97.5 39
t-97.5 -39t-37.5 -99t37.5 -99t97.5 -39t97.5 39t37.5 99zM601 740l-457 -740h-32l457 740h32z" />
    <glyph glyph-name="guilsinglleft" unicode="&#x2039;" horiz-adv-x="248" 
d="M53 275l111 194l20 -26l-96 -168l96 -165l-20 -26z" />
    <glyph glyph-name="guilsinglright" unicode="&#x203a;" horiz-adv-x="248" 
d="M84 469l111 -194l-111 -191l-20 26l96 165l-96 168z" />
    <glyph glyph-name="fraction" unicode="&#x2044;" horiz-adv-x="86" 
d="M222 740l-330 -740h-29l329 740h30z" />
    <glyph glyph-name="fraction" unicode="&#x2215;" horiz-adv-x="86" 
d="M222 740l-330 -740h-29l329 740h30z" />
    <glyph glyph-name="Euro" unicode="&#x20ac;" 
d="M510 691v-38q-63 70 -165 70q-51 0 -91.5 -22.5t-66.5 -61.5t-41 -87t-19 -103h329l-10 -29h-322q-1 -13 -1 -50q0 -10 0.5 -26t0.5 -22h290l-10 -28h-277q14 -132 70.5 -204.5t148.5 -72.5q93 0 164 71v-39q-59 -61 -166 -61q-215 0 -246 306h-64l9 28h52q-1 12 -1 49
q0 36 1 49h-61l9 29h55q12 136 72 220t174 84q106 0 166 -62z" />
    <glyph glyph-name="trademark" unicode="&#x2122;" horiz-adv-x="990" 
d="M10 740h275v-24h-125v-420h-27v420h-124zM385 740l208 -402l209 402h36v-444h-27v405h-2l-208 -405h-16l-208 404h-2v-404h-27v444h37z" />
    <glyph glyph-name="minus" unicode="&#x2212;" horiz-adv-x="600" 
d="M50 264h500v-28h-500v28z" />
    <glyph glyph-name="fi" unicode="&#xfb01;" horiz-adv-x="393" 
d="M315 740v-91h-28v91h28zM94 504h-87v26h87v52q0 163 166 171v-27q-19 -2 -29.5 -3t-34.5 -9.5t-37.5 -22t-25.5 -41t-11 -65.5v-55h193v-530h-28v504h-165v-504h-28v504z" />
    <glyph glyph-name="fl" unicode="&#xfb02;" horiz-adv-x="393" 
d="M94 504h-87v26h87v52q0 163 166 171v-27q-19 -2 -29.5 -3t-34.5 -9.5t-37.5 -22t-25.5 -41t-11 -65.5v-55h165v210h28v-740h-28v504h-165v-504h-28v504z" />
    </font>
</defs>
</svg>
