<?xml version="1.0" standalone="no"?>
<!DOCTYPE svg PUBLIC "-//W3C//DTD SVG 1.1//EN" "http://www.w3.org/Graphics/SVG/1.1/DTD/svg11.dtd" >
<svg xmlns="http://www.w3.org/2000/svg" xmlns:xlink="http://www.w3.org/1999/xlink" version="1.1">
<metadata>
Created by FontForge 20160407 at Mon Aug 29 21:26:16 2016
 By Jimmy Warting
Copyright (c) 2002, 2005 Parachute, www.parachute.gr.  All rights reserved. Customized exclusively for Localiza.
</metadata>
<defs>
<font id="LocalizaDINDisplay-LightItalic" horiz-adv-x="997" >
  <font-face 
    font-family="Localiza DIN Display Light"
    font-weight="300"
    font-style="italic"
    font-stretch="normal"
    units-per-em="2048"
    panose-1="2 0 5 6 0 0 0 9 0 4"
    ascent="1536"
    descent="-512"
    x-height="1010"
    cap-height="1411"
    bbox="-236 -434 2032 1847"
    underline-thickness="102"
    underline-position="-204"
    slope="-12"
    unicode-range="U+0020-FB04"
  />
<missing-glyph horiz-adv-x="748" 
d="M68 0v1365h544v-1365h-544zM136 68h408v1229h-408v-1229z" />
    <glyph glyph-name="uniFB01" unicode="fi" horiz-adv-x="925" 
d="M-233 -418l22 123q46 -4 64 -4q58 0 98 14t63.5 44t35.5 63t22 84q14 75 53 277.5t83 430.5t54 279h-141q2 7 12 60.5t12 60.5h142l30 164q15 74 34 124.5t54 96.5t93.5 69t140.5 23q57 0 109 -8l-23 -125q-23 2 -59 2q-108 0 -151.5 -48t-65.5 -159l-27 -139h444
l-147 -766q-13 -71 5.5 -97t82.5 -32l-27 -123h-20q-108 0 -154 60t-26 167l129 670h-312l-196 -1012q-12 -61 -24.5 -102.5t-36 -83.5t-56.5 -66.5t-84.5 -39.5t-120.5 -15q-57 0 -112 8zM774 1323q4 39 34 65.5t66 26.5q33 0 54 -23.5t18 -56.5q-4 -39 -35 -65.5
t-69 -26.5q-32 0 -52.5 24t-15.5 56z" />
    <glyph glyph-name="uniFB02" unicode="fl" horiz-adv-x="978" 
d="M-225 -414l24 123q46 -4 64 -4q57 0 96.5 14t63 44t35.5 63t22 84l192 983h-135l25 123h135l35 188q32 163 128 230t247 67q119 0 278 -45l-229 -1204q-15 -81 13 -107t124 -28l-25 -123h-53q-125 0 -171 56t-23 175l219 1131q-67 22 -158 22q-95 0 -146.5 -42.5
t-68.5 -133.5l-37 -186h248l-23 -123h-247l-197 -1008q-12 -61 -24.5 -102.5t-36 -83.5t-56.5 -66.5t-84.5 -39.5t-120.5 -15q-57 0 -114 8z" />
    <glyph glyph-name="uniFB03" unicode="ffi" horiz-adv-x="1380" 
d="M-236 -418l23 123q23 -2 63 -2q58 0 98 14t64 43.5t36 62.5t22 83l192 987h-141l22 119h144l26 145q10 57 23 99.5t37.5 84.5t58 69t85 43.5t118.5 16.5q59 0 129 -12l-25 -123q-58 4 -80 4q-103 0 -149 -49.5t-66 -156.5l-24 -121h319l31 166q12 58 25 100t37.5 84.5
t57.5 69t84 43t118 16.5q33 0 106 -8l-22 -125q-20 2 -60 2q-100 0 -147.5 -51t-67.5 -156l-29 -141h445l-148 -764q-6 -30 -6 -51q0 -40 21.5 -57.5t72.5 -22.5l-24 -121h-21q-85 0 -134.5 41.5t-49.5 116.5q0 45 14 120l119 619h-311l-186 -954q-10 -52 -20 -87.5
t-26.5 -74t-39 -63t-55 -45.5t-78 -30.5t-103.5 -9.5q-52 0 -113 9l23 124q46 -4 63 -4q58 0 98 14t64 43.5t36 62.5t22 83l180 932h-318l-198 -1012q-12 -61 -24.5 -102.5t-36 -83.5t-56.5 -66.5t-84.5 -39.5t-120.5 -15q-58 0 -113 8zM1225 1317q0 40 31 70t69 30
q32 0 53 -21.5t21 -58.5q0 -36 -35 -65t-70 -29q-32 0 -50.5 21.5t-18.5 52.5z" />
    <glyph glyph-name="uniFB04" unicode="ffl" horiz-adv-x="1474" 
d="M-225 -414l24 123q46 -4 64 -4q57 0 96.5 14t63 44t35.5 63t22 84l192 983h-141l25 121h141l22 123q12 59 25.5 101.5t38 85t57.5 68.5t84 42t117 16q71 0 127 -10l-25 -123q-58 4 -75 4q-48 0 -83 -10t-57 -25.5t-37.5 -44.5t-23 -56t-16.5 -71l-19 -100l340 2l37 188
q32 163 126.5 230t244.5 67q121 0 280 -45l-229 -1204q-17 -80 11 -106.5t124 -28.5l-23 -123h-53q-127 0 -173 56t-23 175l219 1131q-67 22 -158 22q-95 0 -145.5 -42.5t-67.5 -133.5l-37 -186h248l-25 -123h-245l-187 -952q-12 -62 -24.5 -103.5t-36 -84t-56 -67
t-84.5 -40t-122 -15.5q-49 0 -113 9l25 122q23 -2 61 -2q59 0 99 14t64 44t36 62.5t22 82.5l181 930h-340l-197 -1008q-12 -61 -24.5 -102.5t-36 -83.5t-56.5 -66.5t-84.5 -39.5t-120.5 -15q-57 0 -114 8z" />
    <glyph glyph-name=".notdef" horiz-adv-x="748" 
d="M68 0v1365h544v-1365h-544zM136 68h408v1229h-408v-1229z" />
    <glyph glyph-name="glyph1" horiz-adv-x="0" 
 />
    <glyph glyph-name="glyph2" horiz-adv-x="682" 
 />
    <glyph glyph-name="space" unicode=" " horiz-adv-x="456" 
 />
    <glyph glyph-name="exclam" unicode="!" horiz-adv-x="458" 
d="M63 70q0 43 33 80.5t86 37.5q38 0 61 -22t23 -53q0 -50 -34.5 -85.5t-86.5 -35.5q-38 0 -60 21t-22 57zM158 350l194 1075h144l-224 -1075h-114z" />
    <glyph glyph-name="quotedbl" unicode="&#x22;" horiz-adv-x="565" 
d="M238 1053l71 372h111l-74 -372h-108zM461 1053l71 372h109l-72 -372h-108z" />
    <glyph glyph-name="numbersign" unicode="#" horiz-adv-x="1017" 
d="M27 446l20 103h205l110 334h-192l20 102h207l148 438h108l-145 -438h264l148 438h108l-143 -438h198l-20 -102h-213l-111 -334h201l-20 -103h-213l-150 -446h-113l148 446h-262l-146 -446h-116l149 446h-190zM365 549h262l110 334h-262z" />
    <glyph glyph-name="dollar" unicode="$" 
d="M-29 145q4 6 42.5 51t43.5 52q156 -127 363 -127q159 0 260.5 73t101.5 207q0 50 -17.5 88.5t-36 60.5t-65.5 43.5t-69.5 28.5t-85.5 24q-7 2 -10 3q-53 14 -95.5 30t-90 45t-79 64.5t-52.5 89.5t-21 119q0 180 126.5 288t323.5 126l35 170h98l-36 -168q204 -10 335 -100
q-7 -8 -36.5 -54t-36.5 -59q-131 88 -328 88q-57 0 -114.5 -16.5t-109.5 -49t-85 -89t-33 -127.5q0 -32 9 -59t21 -46.5t36.5 -37.5t41.5 -28.5t52 -24t52 -19t56 -17.5q46 -14 75 -23.5t72 -27t70 -35t58 -44.5t48.5 -58t29.5 -73.5t12 -92.5q0 -94 -38.5 -172.5
t-106 -131.5t-156 -84t-189.5 -36h4l-38 -195h-99l39 195q-235 13 -377 149z" />
    <glyph glyph-name="percent" unicode="%" horiz-adv-x="1589" 
d="M145 780q0 9 5 49l67 355q22 114 90 177.5t203 63.5q121 0 191.5 -66.5t70.5 -162.5q0 -31 -4 -45l-63 -363q-19 -106 -96.5 -166.5t-198.5 -60.5q-108 0 -186.5 59t-78.5 160zM217 -35l1159 1495h113l-1163 -1495h-109zM264 797q0 -66 46 -99.5t104 -33.5
q66 0 116.5 35.5t63.5 109.5l61 344q4 24 4 33q0 62 -45 98.5t-110 36.5q-63 0 -110.5 -34.5t-61.5 -110.5l-64 -342q-4 -28 -4 -37zM930 213q0 17 4 49l70 354q22 114 88.5 177t201.5 63q121 0 193 -65.5t72 -159.5q0 -19 -7 -47l-61 -365q-21 -106 -97.5 -165.5
t-199.5 -59.5q-108 0 -186 59t-78 160zM1051 225q0 -65 45.5 -97t103.5 -32q64 0 116 35.5t64 108.5l60 344q4 24 4 37q0 62 -45 96.5t-111 34.5q-62 0 -109 -35t-61 -109l-63 -342q-4 -28 -4 -41z" />
    <glyph glyph-name="ampersand" unicode="&#x26;" horiz-adv-x="1638" 
d="M225 909q0 152 61.5 286.5t167.5 230.5t254.5 152t315.5 56q146 0 265 -49.5t195 -134.5t117 -197t41 -239q0 -237 -115 -440t-310 -357q134 -156 278 -217l-65 -100q-85 41 -167 105.5t-143 137.5q-113 -74 -244.5 -115.5t-250.5 -41.5q-165 0 -259 79t-94 232
q0 171 113.5 299t327.5 235q-66 127 -66 238q0 141 93.5 238.5t238.5 97.5q110 0 178 -62.5t68 -156.5q0 -125 -93 -221t-262 -181q117 -248 289 -489q377 311 377 698q0 85 -17.5 162t-57 146.5t-98.5 120.5t-146.5 80.5t-196.5 29.5q-150 0 -278.5 -47.5t-217 -130
t-138.5 -196.5t-50 -243q0 -71 24 -141l-108 -29q-27 85 -27 164zM389 317q0 -112 70.5 -169.5t185.5 -57.5q206 0 416 135q-154 204 -299 510q-185 -91 -279 -187.5t-94 -230.5zM770 1081q0 -85 57 -196q60 29 104 55.5t86 61t64.5 75.5t22.5 86q0 59 -39.5 95t-103.5 36
q-40 0 -73 -15.5t-54.5 -39t-36 -52.5t-21 -56t-6.5 -50z" />
    <glyph glyph-name="quotesingle" unicode="'" horiz-adv-x="479" 
d="M315 1053l74 372h109l-74 -372h-109z" />
    <glyph glyph-name="parenleft" unicode="(" horiz-adv-x="557" 
d="M135 412q0 150 42 301.5t116.5 287.5t169.5 256.5t209 227.5l59 -43q-209 -232 -332 -505.5t-123 -555.5q0 -311 138 -578l-72 -49q-97 141 -152 311.5t-55 346.5z" />
    <glyph glyph-name="parenright" unicode=")" horiz-adv-x="557" 
d="M-100 -199q205 227 330.5 504.5t125.5 556.5q0 315 -139 578l78 43q96 -139 148.5 -305.5t52.5 -339.5q0 -152 -42.5 -306t-119 -291.5t-172 -259t-209.5 -227.5z" />
    <glyph glyph-name="asterisk" unicode="*" horiz-adv-x="720" 
d="M203 1167l55 111l213 -98q4 26 16.5 125t16.5 125h112l-67 -250q201 76 254 98q1 -16 6 -57.5t6 -55.5l-254 -65l125 -191q-84 -58 -108 -71l-91 217q-149 -181 -176 -219l-82 73l199 191q-22 6 -110.5 33.5t-114.5 33.5z" />
    <glyph glyph-name="plus" unicode="+" 
d="M74 537l20 104h387l76 391h102l-75 -391h385l-23 -104h-385l-76 -396h-102l76 396h-385z" />
    <glyph glyph-name="comma" unicode="," horiz-adv-x="460" 
d="M2 -174q105 68 129 164q-30 2 -51 20t-21 53q0 48 32.5 84.5t86.5 36.5q49 0 73.5 -28t24.5 -72q0 -96 -73 -188.5t-164 -131.5z" />
    <glyph glyph-name="hyphen" unicode="-" horiz-adv-x="780" 
d="M119 485l24 123h566l-25 -123h-565z" />
    <glyph glyph-name="period" unicode="." horiz-adv-x="417" 
d="M45 68q0 47 32.5 84.5t86.5 37.5q40 0 63 -22.5t23 -56.5q0 -50 -36 -85.5t-87 -35.5q-39 0 -60.5 21.5t-21.5 56.5z" />
    <glyph glyph-name="slash" unicode="/" horiz-adv-x="622" 
d="M-94 -70l807 1549h106l-809 -1549h-104z" />
    <glyph glyph-name="zero" unicode="0" 
d="M68 330q0 50 12 112l127 607q37 174 152 275t305 101q101 0 184.5 -36.5t136.5 -113.5t53 -181q0 -43 -8 -84l-121 -637q-35 -188 -156.5 -285.5t-310.5 -97.5q-102 0 -184.5 35.5t-136 114.5t-53.5 190zM205 336q0 -47 15 -85t39 -63t57 -42t67 -24t70 -7
q123 0 208 64.5t113 207.5l125 635q6 30 6 59q0 56 -23 99.5t-60.5 67.5t-79 36t-83.5 12q-126 0 -212.5 -71t-116.5 -217l-119 -607q-6 -38 -6 -65z" />
    <glyph glyph-name="one" unicode="1" 
d="M387 1174l340 237h131l-272 -1411h-137l241 1245l-250 -172z" />
    <glyph glyph-name="two" unicode="2" 
d="M0 0l27 141q16 88 62.5 168.5t116.5 148t143.5 121t164.5 105.5q83 47 147 91.5t120.5 96.5t87 108.5t30.5 113.5q0 102 -73 152t-181 50q-165 0 -326 -108q-6 13 -29 50.5t-30 53.5q80 57 189 94t219 37q72 0 136.5 -17t119.5 -51.5t87.5 -96t32.5 -142.5
q0 -64 -23 -125t-59 -109t-91 -97t-106 -84.5t-118 -75.5q-157 -93 -207 -128q-223 -157 -271 -346q-4 -15 -7 -30h688l-21 -121h-829z" />
    <glyph glyph-name="three" unicode="3" 
d="M-2 123q20 23 96 104q52 -50 128 -82t157 -32q167 0 262.5 91t95.5 247q0 99 -59.5 156t-151.5 57h-145l22 122h150q43 0 94 21t98 58t78 96.5t31 128.5q0 56 -22.5 98t-59.5 64.5t-77 33t-83 10.5q-156 0 -315 -114q-8 16 -36 53t-36 53q197 135 410 135q76 0 139 -17.5
t113.5 -52.5t79 -95t28.5 -140q0 -127 -75.5 -237.5t-198.5 -161.5q79 -28 117.5 -96t38.5 -160q0 -151 -69 -261t-181 -163t-252 -53q-122 0 -221 39t-156 98z" />
    <glyph glyph-name="four" unicode="4" 
d="M12 223l25 121l682 1067h145l-676 -1063h476l84 432h139l-86 -432h125l-25 -125h-123l-41 -223h-141l43 223h-627z" />
    <glyph glyph-name="five" unicode="5" 
d="M39 129l86 107q60 -58 140 -89.5t165 -31.5q57 0 106.5 13t95.5 42t78.5 82t45.5 125l35 192q8 54 8 72q0 78 -43.5 119t-122.5 41q-68 0 -167.5 -39.5t-182.5 -91.5l-121 51l133 690h760l-23 -127h-620l-93 -465q224 119 353 119q130 0 201 -69t71 -191q0 -35 -10 -90
l-39 -234q-70 -364 -471 -364q-121 0 -222.5 40.5t-162.5 98.5z" />
    <glyph glyph-name="six" unicode="6" 
d="M76 307q0 43 8 82l127 666q33 172 155 271t312 99q123 0 213.5 -38.5t144.5 -100.5l-98 -108q-101 116 -270 116q-52 0 -101 -15t-95 -45.5t-80.5 -85.5t-49.5 -128l-53 -270q259 131 383 131q130 0 198 -69t68 -191q0 -49 -8 -93l-33 -168q-72 -370 -467 -370
q-149 0 -251.5 85t-102.5 232zM213 330q0 -73 36 -123.5t86.5 -71t108.5 -20.5q267 0 320 272l24 125q9 41 9 72q0 81 -44.5 122.5t-123.5 41.5q-17 0 -35 -2t-39 -8t-37 -10.5t-42 -15t-40 -16t-44 -20t-41.5 -20t-45 -22.5t-43.5 -22l-43 -215q-6 -37 -6 -67z" />
    <glyph glyph-name="seven" unicode="7" 
d="M152 0l770 1286h-535l-43 -217h-131l66 342h819l-25 -125l-774 -1286h-147z" />
    <glyph glyph-name="eight" unicode="8" 
d="M57 315q0 140 82.5 251t210.5 155q-70 34 -108.5 102.5t-38.5 147.5q0 109 41 197.5t108.5 142.5t149 83t168.5 29q152 0 255 -85t103 -240q0 -132 -63.5 -232.5t-188.5 -146.5q83 -28 123.5 -100.5t40.5 -161.5q0 -114 -45.5 -206t-119.5 -148t-163.5 -85.5
t-183.5 -29.5q-164 0 -267.5 84.5t-103.5 242.5zM199 324q0 -99 62.5 -154t176.5 -55q146 0 249.5 90.5t103.5 230.5q0 99 -65 157t-177 58q-88 0 -167.5 -40t-131 -116.5t-51.5 -170.5zM342 993q0 -97 63.5 -155t161.5 -58q127 0 225.5 85t98.5 214q0 103 -64 161t-161 58
q-46 0 -91.5 -11.5t-87.5 -36.5t-74 -60t-51.5 -86t-19.5 -111z" />
    <glyph glyph-name="nine" unicode="9" 
d="M53 129l101 104q112 -112 270 -112q55 0 105 14.5t96 45.5t79.5 86t47.5 130l53 275q-250 -131 -379 -131t-198.5 69t-69.5 191q0 48 8 92l31 164q33 171 155.5 269.5t309.5 98.5q154 0 259 -81.5t105 -221.5q0 -38 -8 -71l-133 -691q-35 -183 -154 -276.5t-311 -93.5
q-232 0 -367 139zM299 840q0 -83 44.5 -124.5t123.5 -41.5q49 0 115.5 22t113 44.5t135.5 68.5l41 211q9 40 9 72q0 55 -20 96t-54.5 64.5t-73.5 34.5t-82 11q-124 0 -208.5 -66.5t-112.5 -203.5l-25 -119q-6 -37 -6 -69z" />
    <glyph glyph-name="colon" unicode=":" horiz-adv-x="460" 
d="M59 68q0 47 33 84.5t88 37.5q40 0 63 -22.5t23 -56.5q0 -50 -36 -85.5t-87 -35.5q-39 0 -61.5 21.5t-22.5 56.5zM184 707q0 47 33.5 85.5t87.5 38.5q40 0 63 -22.5t23 -56.5q0 -50 -37 -86.5t-88 -36.5q-40 0 -61 21.5t-21 56.5z" />
    <glyph glyph-name="semicolon" unicode=";" horiz-adv-x="460" 
d="M-6 -174q105 69 127 164q-70 14 -70 80q0 45 36.5 79.5t86.5 34.5q47 0 69.5 -28.5t22.5 -73.5q0 -93 -73 -184.5t-164 -130.5zM182 707q0 45 33.5 83.5t87.5 38.5q40 0 63 -22.5t23 -56.5q0 -48 -37 -84.5t-88 -36.5q-40 0 -61 21.5t-21 56.5z" />
    <glyph glyph-name="less" unicode="&#x3c;" 
d="M82 541l20 98l902 393l-23 -121l-760 -327l635 -328l-20 -111z" />
    <glyph glyph-name="equal" unicode="=" 
d="M37 336l22 108h873l-21 -108h-874zM111 715l20 106h875l-21 -106h-874z" />
    <glyph glyph-name="greater" unicode="&#x3e;" 
d="M55 145l23 123l760 326l-633 330l22 108l752 -393l-21 -98z" />
    <glyph glyph-name="question" unicode="?" horiz-adv-x="913" 
d="M233 1321q182 113 383 113q147 0 235.5 -79.5t88.5 -205.5q0 -95 -54 -180.5t-153 -184.5q-90 -86 -144 -159t-71 -154l-20 -113h-131l20 109q15 76 58 150.5t81.5 119t104.5 111.5q42 44 63.5 68.5t50.5 63.5t41.5 75.5t12.5 74.5q0 84 -56.5 132.5t-156.5 48.5
q-74 0 -154.5 -27t-148.5 -70zM287 68q0 46 31.5 83t84.5 37q38 0 61 -22.5t23 -54.5q0 -48 -35.5 -83.5t-84.5 -35.5q-38 0 -59 21t-21 55z" />
    <glyph glyph-name="at" unicode="@" horiz-adv-x="1708" 
d="M141 586q0 185 67.5 347.5t186.5 278.5t288.5 183t365.5 67q152 0 276 -44.5t206.5 -123t127.5 -187t45 -235.5q0 -138 -34 -248.5t-92.5 -179t-132 -105t-155.5 -36.5q-72 0 -132 34.5t-73 98.5q-201 -108 -321 -108q-104 0 -162.5 55.5t-58.5 155.5q0 19 8 73l47 256
q54 285 315 285q105 0 269 -100l35 90h90l-115 -594q-4 -24 -4 -35q0 -49 30.5 -82t94.5 -33q51 0 100.5 30.5t91 86.5t67 146t25.5 198q0 223 -151 365.5t-404 142.5q-226 0 -408.5 -103.5t-284 -280t-101.5 -388.5q0 -246 136 -391.5t398 -145.5q142 0 279 54l24 -97
q-141 -55 -319 -55q-194 0 -336.5 79.5t-215.5 220t-73 325.5zM655 561q0 -129 131 -129q104 0 295 111l78 405q-157 105 -250 105q-164 0 -207 -203l-40 -225q-7 -40 -7 -64z" />
    <glyph glyph-name="A" unicode="A" horiz-adv-x="1193" 
d="M-47 0l756 1411h151l217 -1411h-149l-45 328h-602l-175 -328h-153zM352 461h510l-49 375l-51 405h-6l-205 -397z" />
    <glyph glyph-name="B" unicode="B" horiz-adv-x="1196" 
d="M35 0l272 1411h559q173 0 259.5 -91t86.5 -233q0 -111 -63.5 -206.5t-200.5 -151.5q158 -68 158 -283q0 -120 -54.5 -221t-160.5 -163t-244 -62h-612zM203 129h413q144 0 243 81.5t99 225.5q0 106 -64.5 167t-166.5 61h-420zM334 797h416q120 0 214.5 78.5t94.5 197.5
q0 104 -64.5 155.5t-169.5 51.5h-397z" />
    <glyph glyph-name="C" unicode="C" horiz-adv-x="1064" 
d="M111 379q0 59 10 108l94 480q91 458 533 458q107 0 206.5 -32.5t173.5 -94.5l-92 -110q-52 47 -136 77.5t-161 30.5q-163 0 -256.5 -90.5t-130.5 -273.5l-88 -434q-10 -58 -10 -99q0 -140 87.5 -211t227.5 -71q86 0 178 28t166 78l60 -117q-70 -50 -184.5 -85t-231.5 -35
q-199 0 -322.5 104.5t-123.5 288.5z" />
    <glyph glyph-name="D" unicode="D" horiz-adv-x="1214" 
d="M35 0l274 1411h506q186 0 294 -96.5t108 -263.5q0 -37 -11 -101l-88 -491q-42 -227 -157.5 -343t-339.5 -116h-586zM203 127h409q65 0 120 18t105 58t86 111t54 169l82 441q6 36 10 96q0 134 -79 197t-210 63h-352z" />
    <glyph glyph-name="E" unicode="E" horiz-adv-x="1116" 
d="M39 0l274 1411h904l-25 -131h-760l-98 -504h670l-25 -131h-672l-100 -516h823l-24 -129h-967z" />
    <glyph glyph-name="F" unicode="F" horiz-adv-x="1077" 
d="M39 0l274 1411h906l-25 -131h-762l-98 -504h672l-27 -131h-672l-125 -645h-143z" />
    <glyph glyph-name="G" unicode="G" horiz-adv-x="1157" 
d="M111 385q0 44 10 109l90 469q41 217 182.5 339.5t378.5 122.5q248 0 379 -116l-86 -113q-52 45 -133 70.5t-166 25.5q-163 0 -272 -87.5t-146 -272.5l-88 -447q-8 -41 -8 -86q0 -138 87 -210t214 -72q167 0 313 100l72 373h-233l24 133h379l-109 -573
q-186 -164 -456 -164q-194 0 -313 107t-119 292z" />
    <glyph glyph-name="H" unicode="H" horiz-adv-x="1232" 
d="M29 0l274 1411h143l-122 -629h729l123 629h147l-272 -1411h-150l127 651h-729l-127 -651h-143z" />
    <glyph glyph-name="I" unicode="I" horiz-adv-x="479" 
d="M86 0l272 1411h146l-275 -1411h-143z" />
    <glyph glyph-name="J" unicode="J" horiz-adv-x="1050" 
d="M-8 92l80 117q58 -42 144.5 -66t156.5 -24q154 0 247 87t130 281l180 924h143l-184 -954q-92 -471 -520 -471q-100 0 -209.5 29t-167.5 77z" />
    <glyph glyph-name="K" unicode="K" horiz-adv-x="1161" 
d="M35 0l272 1411h144l-156 -811l815 811h174l-553 -551l334 -860h-150l-286 758l-375 -369l-76 -389h-143z" />
    <glyph glyph-name="L" unicode="L" horiz-adv-x="1062" 
d="M45 0l274 1411h144l-250 -1282h778l-24 -129h-922z" />
    <glyph glyph-name="M" unicode="M" horiz-adv-x="1484" 
d="M33 0l270 1411h131q29 -95 149.5 -507.5t143.5 -497.5q66 85 682 1005h137l-268 -1411h-143q50 254 206 1071h-6l-577 -854h-111q-10 31 -126.5 418.5t-131.5 435.5h-6q-85 -432 -207 -1071h-143z" />
    <glyph glyph-name="N" unicode="N" horiz-adv-x="1288" 
d="M35 0l270 1411h137q54 -119 281 -609.5t260 -559.5l225 1169h142l-271 -1411h-141q-9 20 -103.5 225.5t-173 376.5t-160.5 346t-104 215l-221 -1163h-141z" />
    <glyph glyph-name="O" unicode="O" horiz-adv-x="1224" 
d="M113 401q0 62 10 111l88 453q43 218 180 339t373 121q205 0 334 -117t129 -294q0 -47 -8 -88l-91 -480q-41 -217 -181 -338.5t-380 -121.5q-199 0 -326.5 113t-127.5 302zM256 410q0 -142 88.5 -216.5t220.5 -74.5q357 0 428 377l80 413q8 39 8 82q0 141 -95 221t-230 80
q-162 0 -268 -89t-140 -271l-82 -430q-10 -55 -10 -92z" />
    <glyph glyph-name="P" unicode="P" horiz-adv-x="1120" 
d="M29 0l274 1411h545q110 0 190 -52t117 -131.5t37 -174.5q0 -66 -20 -132t-60.5 -126t-96.5 -107t-132.5 -74.5t-163.5 -27.5h-432l-115 -586h-143zM313 721h394q136 0 239 90.5t103 226.5q0 113 -65.5 177.5t-178.5 64.5h-383z" />
    <glyph glyph-name="Q" unicode="Q" horiz-adv-x="1259" 
d="M111 399q0 55 12 113l88 453q43 218 180 339t373 121q205 0 334 -117t129 -294q0 -47 -8 -88l-91 -480q-41 -217 -181 -338.5t-380 -121.5l-16 -62q-8 -29 -12 -76q0 -43 32 -63.5t111 -20.5q26 0 53 3l-4 -117q-44 -8 -92 -8q-110 0 -174 49t-64 139q0 34 13 84l24 86
q-149 35 -238 139.5t-89 259.5zM256 410q0 -142 88.5 -216.5t220.5 -74.5q357 0 428 377l80 413q8 39 8 82q0 141 -95 221t-230 80q-162 0 -268 -89t-140 -271l-82 -430q-10 -55 -10 -92z" />
    <glyph glyph-name="R" unicode="R" horiz-adv-x="1155" 
d="M33 0l274 1411h561q85 0 150.5 -29.5t104.5 -80t58 -112t19 -132.5q0 -65 -19 -129t-58 -126t-108.5 -112.5t-160.5 -79.5l152 -610h-158q-48 217 -133 586h-424l-115 -586h-143zM317 719h398q149 0 244.5 90.5t95.5 234.5q0 109 -61.5 171.5t-174.5 62.5h-393z" />
    <glyph glyph-name="S" unicode="S" horiz-adv-x="1118" 
d="M20 147l86 103q161 -129 390 -129q176 0 290.5 81.5t114.5 223.5q0 45 -18.5 81t-45 58.5t-68.5 40.5t-76.5 27t-80.5 18q-66 12 -118 27t-107.5 42t-92 61.5t-60 88t-23.5 119.5q0 196 141 320.5t373 124.5q241 0 408 -107l-78 -117q-140 93 -344 93q-61 0 -121.5 -18.5
t-113 -53.5t-86 -93.5t-34.5 -131.5q0 -37 12.5 -67.5t36.5 -52.5t48.5 -38t61 -28t59.5 -18t57 -14q80 -17 133.5 -32.5t114 -43.5t96 -63t59 -90t23.5 -125q0 -137 -77.5 -240t-205.5 -154.5t-287 -51.5q-285 0 -467 159z" />
    <glyph glyph-name="T" unicode="T" horiz-adv-x="1060" 
d="M201 1278l24 133h994l-25 -133h-424l-248 -1278h-145l248 1278h-424z" />
    <glyph glyph-name="U" unicode="U" horiz-adv-x="1228" 
d="M109 381q0 53 12 111l178 919h145l-180 -926q-8 -39 -8 -82q0 -72 27 -129t72 -90t99 -50t113 -17q159 0 274 88.5t150 269.5l180 936h148l-189 -965q-42 -216 -191.5 -338t-381.5 -122q-193 0 -320.5 104.5t-127.5 290.5z" />
    <glyph glyph-name="V" unicode="V" horiz-adv-x="1136" 
d="M217 1411h152l73 -604l72 -592h8l305 608l301 588h158l-727 -1411h-160z" />
    <glyph glyph-name="W" unicode="W" horiz-adv-x="1740" 
d="M211 1411h147q22 -344 39 -661l29 -537h6q95 206 195 436q54 132 172.5 385.5t169.5 376.5h155q27 -407 45 -698q2 -41 29 -500h6l215 485q13 28 134.5 299t183.5 414h149q-116 -256 -643 -1411h-164l-45 645l-30 514h-5l-254 -563q-256 -565 -270 -596h-164z" />
    <glyph glyph-name="X" unicode="X" horiz-adv-x="1077" 
d="M-61 0l571 723l-272 688h161l211 -565l426 565h172l-538 -688l297 -723h-160l-232 602l-464 -602h-172z" />
    <glyph glyph-name="Y" unicode="Y" horiz-adv-x="1052" 
d="M213 1411h149l109 -397l88 -324h6q22 32 73 109.5t110 167t73 110.5l221 334h164q-27 -41 -165.5 -244.5t-260 -383.5t-164.5 -244q-9 -44 -52 -269.5t-52 -269.5h-143l104 537z" />
    <glyph glyph-name="Z" unicode="Z" horiz-adv-x="1064" 
d="M-4 0l27 127l960 1153h-707l25 131h879l-23 -125l-964 -1157h737l-25 -129h-909z" />
    <glyph glyph-name="bracketleft" unicode="[" horiz-adv-x="499" 
d="M25 -219l321 1649h316l-19 -95h-194l-285 -1462h194l-18 -92h-315z" />
    <glyph glyph-name="backslash" unicode="\" horiz-adv-x="624" 
d="M201 1485h102l211 -1571h-104z" />
    <glyph glyph-name="bracketright" unicode="]" horiz-adv-x="499" 
d="M-63 -219l18 92h192l285 1462h-194l18 95h313l-319 -1649h-313z" />
    <glyph glyph-name="asciicircum" unicode="^" horiz-adv-x="991" 
d="M117 676l528 745h98l236 -743h-109l-194 622l-436 -624h-123z" />
    <glyph glyph-name="underscore" unicode="_" horiz-adv-x="1003" 
d="M-129 -242l20 101h1004l-21 -101h-1003z" />
    <glyph glyph-name="grave" unicode="`" 
d="M420 1454l108 55l236 -323l-62 -41z" />
    <glyph glyph-name="a" unicode="a" horiz-adv-x="1005" 
d="M66 246q0 38 10 96l63 328q69 352 391 352q70 0 146 -22.5t188 -92.5l41 103h115l-197 -1010h-116l6 119q-146 -76 -229.5 -102.5t-149.5 -26.5q-125 0 -196.5 66t-71.5 190zM205 276q0 -157 164 -157q128 0 370 139l99 518q-71 57 -153.5 88t-158.5 31q-206 0 -256 -248
l-55 -282q-10 -55 -10 -89z" />
    <glyph glyph-name="b" unicode="b" horiz-adv-x="1005" 
d="M37 104l266 1362h135l-110 -577q232 133 379 133q132 0 201 -63.5t69 -184.5q0 -48 -12 -106l-62 -310q-36 -191 -144.5 -279.5t-291.5 -88.5q-83 0 -203 27t-227 87zM186 186q146 -77 293 -77q241 0 293 266l53 272q9 47 9 84q0 162 -166 162q-65 0 -164 -39.5
t-203 -103.5z" />
    <glyph glyph-name="c" unicode="c" horiz-adv-x="856" 
d="M84 297q0 45 8 86l51 281q34 168 139 264t285 96q93 0 180 -29.5t136 -89.5l-90 -96q-43 48 -106 69t-122 21q-241 0 -293 -272l-47 -242q-6 -38 -6 -68q0 -102 65.5 -152t164.5 -50q54 0 122.5 20t122.5 60l74 -105q-132 -100 -338 -100q-153 0 -249.5 80t-96.5 227z
" />
    <glyph glyph-name="d" unicode="d" horiz-adv-x="1005" 
d="M70 248q0 38 10 100l61 318q33 168 147.5 262t276.5 94q137 0 309 -74l101 518h133l-283 -1466h-116l4 119q-218 -129 -375 -129q-126 0 -197 66t-71 192zM207 279q0 -162 168 -162q65 0 167 37t199 100l109 559q-169 84 -297 84q-110 0 -185 -63t-100 -193l-53 -285
q-8 -39 -8 -77z" />
    <glyph glyph-name="e" unicode="e" horiz-adv-x="937" 
d="M74 313q0 149 59 353q103 356 449 356q149 0 239 -72t90 -194q0 -55 -13.5 -100.5t-52 -92t-101.5 -78t-169 -51.5t-247 -20q-78 0 -113 2q-12 -52 -12 -97q0 -96 59 -153t176 -57q65 0 128.5 23.5t111.5 68.5l90 -97q-133 -116 -340 -116q-170 0 -262 87t-92 238z
M233 535q62 -3 119 -3q420 0 420 205q0 77 -51 119.5t-148 42.5q-78 0 -136.5 -26t-97.5 -76.5t-64 -113t-42 -148.5z" />
    <glyph glyph-name="f" unicode="f" horiz-adv-x="610" 
d="M-225 -414l24 123q46 -4 64 -4q57 0 96.5 14t63 44t35.5 63t22 84l192 983h-141l25 121h141l31 164q12 59 25 101.5t37.5 85.5t57.5 69t84 42.5t117 16.5q68 0 139 -14l-24 -123q-33 4 -88 4q-60 0 -99 -13t-61.5 -43.5t-33 -62.5t-21.5 -88l-29 -139h256l-24 -121h-256
l-197 -1008q-12 -61 -24.5 -102.5t-36 -83.5t-56.5 -66.5t-84.5 -39.5t-120.5 -15q-57 0 -114 8z" />
    <glyph glyph-name="g" unicode="g" horiz-adv-x="1001" 
d="M0 -303l96 90q44 -44 115.5 -68t140.5 -24q274 0 326 270l31 156q-93 -56 -170.5 -87t-118 -37.5t-86.5 -6.5q-132 0 -201.5 63.5t-69.5 184.5q0 36 11 104l59 311q36 191 144.5 280t287.5 89q81 0 203 -28.5t231 -88.5l-192 -975q-70 -358 -459 -358q-96 0 -193.5 31.5
t-154.5 93.5zM203 281q0 -164 168 -164q69 0 167 37.5t197 105.5l113 563q-147 78 -289 78q-123 0 -194 -65.5t-99 -200.5l-55 -273q-8 -41 -8 -81z" />
    <glyph glyph-name="h" unicode="h" horiz-adv-x="999" 
d="M16 0l287 1466h133l-112 -577q133 78 218 105.5t156 27.5q128 0 200.5 -66t72.5 -190q0 -40 -10 -98l-130 -668h-135l125 645q10 55 10 86q0 160 -169 160q-69 0 -167.5 -37.5t-199.5 -105.5l-143 -748h-136z" />
    <glyph glyph-name="i" unicode="i" horiz-adv-x="466" 
d="M117 160q0 28 6 63l151 789h134l-148 -764q-6 -30 -6 -51q0 -40 21.5 -56.5t72.5 -21.5l-24 -123h-21q-91 0 -138.5 43t-47.5 121zM315 1313q0 41 31 71.5t70 30.5q32 0 51.5 -20.5t19.5 -51.5v-8q-4 -39 -34.5 -65.5t-67.5 -26.5q-30 0 -50 20t-20 50z" />
    <glyph glyph-name="j" unicode="j" horiz-adv-x="475" 
d="M-182 -424l24 123q36 -4 52 -4q79 0 118.5 40.5t59.5 141.5l221 1135h131q-191 -994 -223 -1155q-9 -51 -20.5 -90t-32 -78.5t-48.5 -65t-71.5 -41.5t-98.5 -16q-58 0 -112 10zM330 1313q0 40 31 70t69 30q31 0 52.5 -20t21.5 -50q0 -40 -33 -70t-72 -30q-29 0 -49 20.5
t-20 49.5z" />
    <glyph glyph-name="k" unicode="k" horiz-adv-x="942" 
d="M43 0l279 1466h129l-156 -819h186q78 0 135.5 28t100.5 107l125 232h147l-137 -256q-22 -39 -35 -59.5t-36 -47.5t-51 -43.5t-64 -25.5q37 -11 61.5 -30.5t38 -50.5t18.5 -54t11 -64l55 -383h-137l-49 338q-15 105 -52.5 141.5t-126.5 36.5h-215l-98 -516h-129z" />
    <glyph glyph-name="l" unicode="l" horiz-adv-x="471" 
d="M98 158q0 17 8 71l240 1237h129l-231 -1214q-6 -27 -6 -51q0 -44 31.5 -62.5t111.5 -21.5l-25 -123h-53q-205 0 -205 164z" />
    <glyph glyph-name="m" unicode="m" horiz-adv-x="1531" 
d="M10 0l197 1012h117l-7 -123q86 58 156 89.5t106 37.5t80 6q88 0 137 -35.5t78 -103.5q202 139 365 139q128 0 198 -69t70 -189q0 -37 -10 -92l-131 -672h-137l127 649q8 50 8 74q0 76 -38.5 123t-119.5 47q-125 0 -311 -129v-11q0 -41 -12 -102l-127 -651h-133l125 645
q10 58 10 92q0 156 -148 156q-104 0 -319 -150l-146 -743h-135z" />
    <glyph glyph-name="n" unicode="n" 
d="M16 0l197 1012h115l-4 -123q141 82 221.5 107.5t152.5 25.5q128 0 200.5 -66t72.5 -190q0 -40 -10 -98l-130 -668h-135l125 645q10 55 10 86q0 160 -169 160q-68 0 -165.5 -37.5t-201.5 -105.5l-143 -748h-136z" />
    <glyph glyph-name="o" unicode="o" horiz-adv-x="1007" 
d="M94 328q0 48 8 92l45 233q70 369 439 369q170 0 271 -98.5t101 -245.5q0 -44 -8 -80l-45 -248q-70 -360 -448 -360q-155 0 -259 90t-104 248zM225 338q0 -112 71 -169.5t173 -57.5q252 0 307 274l41 205q8 36 8 74q0 109 -70 171t-177 62q-251 0 -304 -270l-41 -215
q-8 -54 -8 -74z" />
    <glyph glyph-name="p" unicode="p" 
d="M-61 -410l272 1418h115l-4 -119q236 133 376 133q128 0 199.5 -63t71.5 -189q0 -51 -11 -102l-63 -324q-35 -175 -137 -265.5t-283 -90.5q-147 0 -313 78l-92 -476h-131zM188 195q158 -82 299 -82q230 0 277 245l57 293q10 55 10 84q0 156 -169 156q-62 0 -163 -38
t-204 -99z" />
    <glyph glyph-name="q" unicode="q" 
d="M68 244q0 58 10 104l61 305q38 194 142 281.5t294 87.5q80 0 200 -28t229 -89l-256 -1315h-136l103 531q-93 -58 -171.5 -89t-117.5 -36.5t-88 -5.5q-132 0 -201 65.5t-69 188.5zM207 281q0 -164 168 -164q67 0 167 38.5t199 104.5l111 563q-145 78 -289 78
q-122 0 -193.5 -65.5t-99.5 -200.5l-55 -273q-8 -41 -8 -81z" />
    <glyph glyph-name="r" unicode="r" horiz-adv-x="626" 
d="M45 0l197 1010h112l-8 -146q73 60 179 105.5t204 52.5q-2 -23 -5 -48t-7 -56t-6 -48q-236 -34 -387 -122q-83 -422 -144 -748h-135z" />
    <glyph glyph-name="s" unicode="s" horiz-adv-x="915" 
d="M10 115l84 96q120 -109 314 -109q46 0 92.5 10.5t90.5 32.5t71.5 62t27.5 92q0 61 -43 93t-125 52l-51 12t-55.5 13.5t-54.5 14.5t-54.5 19t-48 24t-43.5 31t-32.5 38.5t-23 49.5t-7.5 61q0 100 59.5 173.5t150 107.5t197.5 34q212 0 342 -98l-78 -103q-116 80 -270 80
q-116 0 -191 -49.5t-75 -130.5q0 -102 196 -143q140 -32 198 -58q143 -68 144 -205q0 -153 -120 -240t-316 -87q-235 0 -379 127z" />
    <glyph glyph-name="t" unicode="t" horiz-adv-x="702" 
d="M154 889l24 123h150l80 237h96l-45 -237h280l-24 -123h-279l-108 -553q-7 -40 -11 -90q0 -64 32.5 -95.5t107.5 -31.5q55 0 149 16l6 -119q-84 -26 -194 -26q-127 0 -184.5 52.5t-57.5 154.5q0 49 12 108l115 584h-149z" />
    <glyph glyph-name="u" unicode="u" horiz-adv-x="1007" 
d="M72 246q0 38 10 96l131 670h133l-125 -645q-8 -44 -8 -86q0 -162 168 -162q67 0 166.5 41.5t200.5 109.5l145 742h133l-195 -1012h-114l2 121q-213 -131 -373 -131q-129 0 -201.5 66t-72.5 190z" />
    <glyph glyph-name="v" unicode="v" horiz-adv-x="909" 
d="M135 1010h139q47 -300 66 -443q10 -66 28.5 -197t28.5 -196h6q228 411 302 541q38 70 53 101t27 73t12 84v39h131v-37q0 -83 -21.5 -144t-70.5 -143l-404 -688h-127q-139 816 -170 1010z" />
    <glyph glyph-name="w" unicode="w" horiz-adv-x="1417" 
d="M135 1010h135q5 -53 22.5 -207.5t24.5 -233.5l35 -368h6l195 389l168 325h137l45 -305l62 -405h6q28 57 117.5 235t136.5 275q44 94 61 147.5t17 110.5v39h133v-37q0 -130 -80 -287l-367 -688h-119q-10 78 -31 223.5t-45.5 313t-31.5 213.5h-4l-180 -361
q-33 -69 -100.5 -199t-96.5 -190h-123z" />
    <glyph glyph-name="x" unicode="x" horiz-adv-x="856" 
d="M-76 0l438 518l-223 496h154l158 -387l313 387h168l-420 -494l240 -520h-158l-170 410l-332 -410h-168z" />
    <glyph glyph-name="y" unicode="y" horiz-adv-x="884" 
d="M57 -414l230 426l-58 62l-116 938h135l49 -441q5 -51 25.5 -227t25.5 -227h4l324 598q52 96 71 146t19 112v39h135v-37q0 -81 -21.5 -140t-70.5 -147l-608 -1102h-144z" />
    <glyph glyph-name="z" unicode="z" horiz-adv-x="888" 
d="M-14 0l20 111l719 780h-537l23 119h707l-21 -111l-719 -778h567l-24 -121h-735z" />
    <glyph glyph-name="braceleft" unicode="{" horiz-adv-x="499" 
d="M72 565l14 80q84 16 136 96t73 191l53 276q19 97 79.5 157t137.5 60h115l-16 -86h-76q-100 0 -137 -184l-54 -266q-24 -117 -83.5 -190.5t-112.5 -88.5v-4q37 -12 66.5 -62t29.5 -128q0 -43 -8 -82l-53 -281q-9 -61 -9 -82q0 -100 74 -100h76l-17 -88h-96
q-73 0 -114 46.5t-41 123.5q0 27 6 57l53 273q12 67 12 118q0 145 -108 164z" />
    <glyph glyph-name="bar" unicode="|" horiz-adv-x="387" 
d="M145 -332v1798h103v-1798h-103z" />
    <glyph glyph-name="braceright" unicode="}" horiz-adv-x="499" 
d="M-86 -217l16 84h78q55 0 88 48t45 118l58 301q24 112 83.5 184t114.5 88v4q-36 12 -66 62.5t-30 130.5q0 45 8 86l51 266q13 67 13 94q0 90 -78 90h-78l14 80h115q71 0 107 -39.5t36 -107.5q0 -30 -6 -64l-55 -276q-10 -62 -10 -109q0 -157 106 -178l-16 -80
q-83 -14 -132 -85t-73 -197l-55 -285q-19 -99 -75.5 -157t-139.5 -58h-119z" />
    <glyph glyph-name="asciitilde" unicode="~" horiz-adv-x="991" 
d="M86 549q122 151 276 151q57 0 124 -30.5t132 -61t117 -30.5q48 0 84 23.5t90 82.5l72 -61q-64 -83 -127 -122.5t-145 -39.5q-41 0 -93.5 19.5t-94 43t-92.5 43t-89 19.5q-49 0 -89 -24t-93 -77z" />
    <glyph glyph-name="uni00A0" unicode="&#xa0;" horiz-adv-x="456" 
 />
    <glyph glyph-name="exclamdown" unicode="&#xa1;" horiz-adv-x="458" 
d="M27 -412l223 1076h117l-197 -1076h-143zM254 903q0 51 36 85t87 34q39 0 60.5 -21.5t21.5 -56.5q0 -45 -32.5 -82t-86.5 -37q-40 0 -63 23t-23 55z" />
    <glyph glyph-name="cent" unicode="&#xa2;" horiz-adv-x="849" 
d="M84 295q0 47 8 88l51 279q67 354 410 360q10 65 43 215h74l-43 -217q182 -15 262 -115l-92 -96q-70 76 -193 88l-153 -782q130 0 241 80l74 -105q-132 -100 -340 -100l-43 -226h-74l45 232q-124 15 -197 95t-73 204zM219 322q0 -81 43.5 -134.5t116.5 -64.5l149 772
q-106 -9 -168 -73.5t-88 -194.5l-47 -242q-6 -35 -6 -63z" />
    <glyph glyph-name="sterling" unicode="&#xa3;" 
d="M14 0l21 102q225 243 272 508h-184l20 103h164q-1 51 -16 147.5t-15 147.5q0 86 26 162t75 135.5t126.5 94t174.5 34.5q264 0 362 -201l-112 -59q-76 139 -254 139q-118 0 -189 -86.5t-71 -222.5q0 -45 15 -141t13 -150h306q-12 -35 -23 -103h-291q-55 -297 -233 -491
h655l-20 -119h-822z" />
    <glyph glyph-name="currency" unicode="&#xa4;" horiz-adv-x="1095" 
d="M119 301l129 127q-74 112 -74 229q-3 117 78 234l-131 129q11 12 24.5 25t29.5 29l24 24l129 -129q109 78 235 78q120 0 232 -74l127 127l77 -80l-129 -127q82 -118 82 -236q0 -113 -78 -231q8 -8 60.5 -58.5t69.5 -68.5q-39 -41 -80 -80l-127 129q-104 -79 -234 -82
q-128 3 -237 84l-129 -129q-11 12 -40.5 41.5t-37.5 38.5zM289 657q0 -114 79 -195t193 -81q115 0 196 81t81 195q0 115 -81 196t-196 81q-115 -1 -193.5 -81t-78.5 -196z" />
    <glyph glyph-name="yen" unicode="&#xa5;" 
d="M70 328l18 90h338l20 114l-14 76h-307l18 97h265l-177 706h150l100 -432l66 -287l176 297l262 422h162l-447 -706h271l-19 -97h-315l-43 -69l-23 -121h342l-16 -90h-344l-61 -328h-146l64 328h-340z" />
    <glyph glyph-name="brokenbar" unicode="&#xa6;" horiz-adv-x="372" 
d="M143 -332v840h101v-840h-101zM143 623v843h101v-843h-101z" />
    <glyph glyph-name="section" unicode="&#xa7;" horiz-adv-x="905" 
d="M55 -39l54 92q99 -76 243 -76q70 0 129 21.5t99.5 71t40.5 118.5q0 137 -215 234q-53 25 -82.5 40t-66.5 39.5t-55.5 46t-32 53t-13.5 67.5q0 74 45.5 159.5t138.5 149.5q-59 62 -59 147q0 141 104 229.5t260 88.5q76 0 153 -21t120 -55q-30 -50 -60 -102q-81 69 -209 69
q-37 0 -76.5 -10.5t-77 -32t-61.5 -60.5t-24 -89q0 -48 28 -82t84 -68q26 -15 65 -36.5t62.5 -34.5t55 -33t50 -35.5t39.5 -37.5t32 -44.5t18.5 -51t7.5 -61.5q0 -165 -168 -295q61 -68 61 -165q0 -148 -114.5 -237t-278.5 -89q-78 0 -163.5 26.5t-133.5 63.5zM272 698
q0 -51 41.5 -94t93 -67t111.5 -52.5t82 -46.5q62 33 100.5 89t38.5 108q0 34 -16.5 65.5t-40.5 54t-62 47t-69 40t-74.5 37.5t-66.5 34q-60 -41 -99 -102.5t-39 -112.5z" />
    <glyph glyph-name="dieresis" unicode="&#xa8;" horiz-adv-x="978" 
d="M385 1317q6 34 35.5 60t62.5 26q35 0 55 -23.5t15 -56.5q-6 -35 -35.5 -60.5t-66.5 -25.5q-33 0 -52.5 23.5t-13.5 56.5zM760 1317q6 34 35.5 60t62.5 26q32 0 52.5 -24t15.5 -56q-6 -35 -36 -60.5t-65 -25.5q-33 0 -52 23.5t-13 56.5z" />
    <glyph glyph-name="copyright" unicode="&#xa9;" horiz-adv-x="1656" 
d="M113 707q0 157 57 296.5t154 238t230 155.5t280 57q146 0 278.5 -57t229 -155.5t153.5 -238t57 -296.5t-57 -297t-153.5 -239.5t-229 -157.5t-278.5 -58q-147 0 -280 58t-230 157.5t-154 239.5t-57 297zM213 707q0 -181 82.5 -332t225.5 -238.5t313 -87.5t312.5 87.5
t224 238.5t81.5 332q0 134 -48.5 254.5t-130.5 208t-197 139t-242 51.5q-170 0 -313 -87t-225.5 -237.5t-82.5 -328.5zM526 541v311q0 131 96 212t234 81q149 0 252 -76l-55 -82q-82 66 -195 66q-93 0 -162 -57t-69 -169v-260q0 -58 20.5 -103.5t54.5 -71.5t73 -39t81 -13
q112 0 193 61l51 -79q-102 -76 -244 -76q-140 0 -235 81t-95 214z" />
    <glyph glyph-name="ordfeminine" unicode="&#xaa;" horiz-adv-x="694" 
d="M129 745q0 38 4 56l41 209q46 233 268 233q96 0 226 -69l26 61h92l-124 -666h-95l2 78q-103 -49 -155.5 -67.5t-91.5 -18.5q-90 0 -141.5 49.5t-51.5 134.5zM238 764q0 -102 108 -102q73 0 242 88l59 323q-106 72 -205 72q-64 0 -106 -39t-57 -115l-37 -180
q-4 -32 -4 -47z" />
    <glyph glyph-name="guillemotleft" unicode="&#xab;" horiz-adv-x="886" 
d="M121 463l323 366h129l-325 -376l170 -359h-119zM428 463l322 366h131l-328 -376l170 -359h-117z" />
    <glyph glyph-name="logicalnot" unicode="&#xac;" 
d="M74 537l20 104h875l-101 -500h-120l75 396h-749z" />
    <glyph glyph-name="uni00AD" unicode="&#xad;" horiz-adv-x="770" 
d="M119 485l24 123h566l-25 -123h-565z" />
    <glyph glyph-name="registered" unicode="&#xae;" horiz-adv-x="1062" 
d="M145 1038q0 167 111.5 281.5t269.5 114.5q159 0 269 -114t110 -282t-110.5 -283.5t-268.5 -115.5t-269.5 115.5t-111.5 283.5zM209 1038q0 -142 92.5 -241t224.5 -99q133 0 224.5 98.5t91.5 241.5q0 140 -91.5 238t-224.5 98q-132 0 -224.5 -98t-92.5 -238zM389 821v436
h172q59 0 97 -32t38 -88q0 -41 -23.5 -72.5t-66.5 -46.5l99 -197h-66l-92 189h-94v-189h-64zM453 1067h102q35 0 57.5 18.5t22.5 51.5q0 31 -21.5 47t-54.5 16h-106v-133z" />
    <glyph glyph-name="macron" unicode="&#xaf;" horiz-adv-x="993" 
d="M430 1235l25 121h536l-24 -121h-537z" />
    <glyph glyph-name="degree" unicode="&#xb0;" horiz-adv-x="765" 
d="M119 1171q0 109 77.5 187t186.5 78q116 0 189 -77t73 -188q0 -109 -76.5 -185.5t-185.5 -76.5t-186.5 76.5t-77.5 185.5zM209 1171q0 -73 49.5 -122.5t124.5 -49.5q73 0 123.5 49.5t50.5 122.5q0 72 -51 124.5t-123 52.5t-123 -52.5t-51 -124.5z" />
    <glyph glyph-name="plusminus" unicode="&#xb1;" 
d="M-2 0l20 104h863l-19 -104h-864zM111 575l20 105h381l70 369h102l-70 -369h379l-22 -105h-377l-74 -370h-102l71 370h-378z" />
    <glyph glyph-name="uni00B2" unicode="&#xb2;" horiz-adv-x="667" 
d="M123 754l18 98q9 46 32.5 87.5t50.5 72t71.5 64t77.5 54t86 50.5q46 26 77 45t69 48.5t57.5 60.5t19.5 63q0 55 -45 81.5t-111 26.5q-108 0 -209 -67l-47 88q125 84 273 84q72 0 127 -17t92 -61.5t37 -112.5q0 -92 -70 -164.5t-188 -138.5q-50 -27 -88 -51.5t-81.5 -58
t-72.5 -72.5t-41 -80h440l-16 -100h-559z" />
    <glyph glyph-name="uni00B3" unicode="&#xb3;" horiz-adv-x="665" 
d="M98 829l74 86q34 -31 89.5 -49t107.5 -18q84 0 143 48t59 124q0 56 -36 86.5t-97 30.5h-102l18 102h107q61 0 119.5 40.5t58.5 106.5q0 61 -41 90t-106 29q-47 0 -104 -18t-103 -49l-49 88q128 82 280 82q104 0 171 -48.5t67 -150.5q0 -74 -48.5 -139t-134.5 -84
q117 -46 117 -170q0 -81 -46 -144.5t-119 -96t-158 -32.5q-79 0 -152.5 24.5t-114.5 61.5z" />
    <glyph glyph-name="acute" unicode="&#xb4;" 
d="M616 1174l222 339l123 -45l-269 -327z" />
    <glyph glyph-name="paragraph" unicode="&#xb6;" horiz-adv-x="987" 
d="M211 1053q0 185 120.5 298t305.5 113h184l-137 -731h-164q-148 0 -228.5 88.5t-80.5 231.5zM367 -260l2 115q65 8 114 21.5t82 36t54 44t35.5 58.5t21.5 64t16 75l242 1310h117l-248 -1337q-17 -96 -43 -159.5t-75 -114t-126 -77.5t-192 -36z" />
    <glyph glyph-name="periodcentered" unicode="&#xb7;" horiz-adv-x="419" 
d="M129 549q8 47 47 81t88 34q44 0 70 -31.5t20 -75.5q-6 -47 -46.5 -82t-86.5 -35q-44 0 -71 32.5t-21 76.5z" />
    <glyph glyph-name="cedilla" unicode="&#xb8;" horiz-adv-x="866" 
d="M152 -383l32 72q61 -25 146 -25q48 0 87.5 24.5t39.5 71.5q0 41 -31.5 63t-95.5 19l-41 31l92 188l76 -6l-70 -139q92 -3 134 -47t42 -96q0 -69 -60.5 -127t-176.5 -58q-110 0 -174 29z" />
    <glyph glyph-name="uni00B9" unicode="&#xb9;" horiz-adv-x="526" 
d="M219 1452l225 147h105l-164 -845h-115l138 706l-142 -90z" />
    <glyph glyph-name="ordmasculine" unicode="&#xba;" horiz-adv-x="694" 
d="M143 799q0 26 7 61l26 139q22 113 100 178.5t201 65.5q120 0 191 -69t71 -170q0 -32 -4 -48l-28 -155q-20 -116 -98.5 -179t-202.5 -63q-118 0 -190.5 67t-72.5 173zM248 805q0 -68 46.5 -108t113.5 -40q163 0 196 170l25 127q4 14 4 43q0 68 -45.5 109t-112.5 41
q-162 0 -196 -168l-27 -135q-4 -28 -4 -39z" />
    <glyph glyph-name="guillemotright" unicode="&#xbb;" horiz-adv-x="886" 
d="M45 94l326 377l-170 358h118l179 -366l-322 -369h-131zM352 94l326 377l-170 358h119l176 -366l-322 -369h-129z" />
    <glyph glyph-name="onequarter" unicode="&#xbc;" horiz-adv-x="1589" 
d="M203 -35l1159 1495h108l-1161 -1495h-106zM326 1268l225 147h104l-163 -846h-115l137 707l-141 -90zM891 129l18 88l430 629h123l-422 -619h271l49 254h117l-50 -254h80l-20 -98h-78l-25 -129h-118l24 129h-399z" />
    <glyph glyph-name="onehalf" unicode="&#xbd;" horiz-adv-x="1589" 
d="M117 -35l1159 1495h108l-1161 -1495h-106zM279 1268l225 147h104l-164 -846h-114l137 707l-141 -90zM920 0q5 19 9.5 53t6.5 45q10 56 40 104.5t79 89.5t92 69.5t108 64.5q49 27 78 45t68 47.5t58.5 60t19.5 62.5q0 56 -45 83.5t-111 27.5q-106 0 -209 -68l-49 86
q124 84 274 84q53 0 97 -10t80.5 -31t57.5 -59t21 -90q0 -162 -258 -304q-49 -27 -87.5 -51t-82 -58t-73 -73t-39.5 -80h440l-18 -98h-557z" />
    <glyph glyph-name="threequarters" unicode="&#xbe;" horiz-adv-x="1589" 
d="M150 645l73 86q34 -31 89.5 -49t107.5 -18q84 0 143.5 48t59.5 124q0 56 -36.5 86t-97.5 30h-102l19 103h106q61 0 119.5 40.5t58.5 106.5q0 61 -41 90t-106 29q-47 0 -104 -18.5t-103 -49.5l-49 88q128 82 280 82q105 0 171.5 -48t66.5 -150q0 -75 -48 -140t-134 -84
q116 -46 116 -170q0 -81 -46 -144t-119 -95.5t-158 -32.5q-79 0 -151.5 24.5t-114.5 61.5zM293 -35l1159 1495h109l-1162 -1495h-106zM942 129l19 88l430 629h122l-421 -619h270l49 254h117l-49 -254h80l-21 -98h-78l-24 -129h-119l24 129h-399z" />
    <glyph glyph-name="questiondown" unicode="&#xbf;" horiz-adv-x="913" 
d="M139 -143q1 71 32 140.5t73.5 122t111.5 120.5q83 80 134 152t67 151l23 112h131l-21 -108q-11 -58 -34 -110t-63 -104t-66 -81.5t-78 -83.5q-44 -47 -64.5 -70t-50.5 -63t-42.5 -76.5t-12.5 -75.5q0 -84 56 -132t157 -48q74 0 155 26.5t148 69.5q44 -97 49 -106
q-179 -111 -383 -111q-145 0 -233.5 77t-88.5 198zM588 903q0 48 35 82.5t88 34.5q38 0 59 -21t21 -55q0 -44 -32 -81.5t-85 -37.5q-40 0 -63 23t-23 55z" />
    <glyph glyph-name="Agrave" unicode="&#xc0;" horiz-adv-x="1193" 
d="M-47 0l756 1411h151l217 -1411h-149l-45 328h-602l-175 -328h-153zM352 461h510l-49 375l-51 405h-6l-205 -397zM449 1704l77 102l328 -235l-49 -68z" />
    <glyph glyph-name="Aacute" unicode="&#xc1;" horiz-adv-x="1193" 
d="M-47 0l756 1411h151l217 -1411h-149l-45 328h-602l-175 -328h-153zM352 461h510l-49 375l-51 405h-6l-205 -397zM727 1571l334 235l76 -102l-363 -201z" />
    <glyph glyph-name="Acircumflex" unicode="&#xc2;" horiz-adv-x="1193" 
d="M-47 0l756 1411h151l217 -1411h-149l-45 328h-602l-175 -328h-153zM352 461h510l-49 375l-51 405h-6l-205 -397zM469 1567l338 245h92l227 -243l-61 -60l-231 174l-330 -178z" />
    <glyph glyph-name="Atilde" unicode="&#xc3;" horiz-adv-x="1193" 
d="M-47 0l756 1411h151l217 -1411h-149l-45 328h-602l-175 -328h-153zM352 461h510l-49 375l-51 405h-6l-205 -397zM465 1579q48 76 109 117t120 41q38 0 83 -22.5t85.5 -45t69.5 -22.5q55 0 131 90l80 -51q-96 -158 -211 -158q-46 0 -126 42t-118 42q-34 0 -67 -20.5
t-78 -65.5z" />
    <glyph glyph-name="Adieresis" unicode="&#xc4;" horiz-adv-x="1193" 
d="M-47 0l756 1411h151l217 -1411h-149l-45 328h-602l-175 -328h-153zM352 461h510l-49 375l-51 405h-6l-205 -397zM547 1608q5 34 34 59t64 25q33 0 53 -22.5t15 -55.5q-6 -35 -36 -61.5t-65 -26.5q-34 0 -52.5 24t-12.5 58zM930 1608q4 34 33 59t63 25q32 0 52 -23t16 -55
q-6 -35 -36 -61.5t-65 -26.5q-32 0 -50.5 24t-12.5 58z" />
    <glyph glyph-name="Aring" unicode="&#xc5;" horiz-adv-x="1193" 
d="M-47 0l756 1411h151l217 -1411h-149l-45 328h-602l-175 -328h-153zM352 461h510l-49 375l-51 405h-6l-205 -397zM629 1614q0 95 69 164t168 69q72 0 118 -46.5t46 -117.5q0 -98 -71 -163.5t-164 -65.5q-73 0 -119.5 46t-46.5 114zM713 1628q0 -40 25.5 -66t66.5 -26
q55 0 99 42t44 97q0 38 -27.5 64t-68.5 26q-55 0 -97 -41.5t-42 -95.5z" />
    <glyph glyph-name="AE" unicode="&#xc6;" horiz-adv-x="1921" 
d="M-63 0l1110 1411h985l-17 -131h-782l-72 -504h670l-16 -131h-672l-74 -516h780l-16 -129h-924l56 393h-553l-308 -393h-167zM504 514h477l109 754z" />
    <glyph glyph-name="Ccedilla" unicode="&#xc7;" horiz-adv-x="1064" 
d="M111 379q0 59 10 108l94 480q91 458 533 458q107 0 206.5 -32.5t173.5 -94.5l-92 -110q-52 47 -136 77.5t-161 30.5q-163 0 -256.5 -90.5t-130.5 -273.5l-88 -434q-10 -58 -10 -99q0 -140 87.5 -211t227.5 -71q86 0 178 28t166 78l60 -117q-70 -50 -184.5 -85t-231.5 -35
h-12q-4 -10 -15.5 -33t-17.5 -37q92 -3 134 -47t42 -96q0 -69 -60.5 -127t-176.5 -58q-111 0 -175 29l33 72q61 -25 146 -25q48 0 87.5 24.5t39.5 71.5q0 41 -31.5 63t-95.5 19l-41 31q36 79 57 119q-165 21 -262.5 122.5t-97.5 264.5z" />
    <glyph glyph-name="Egrave" unicode="&#xc8;" horiz-adv-x="1116" 
d="M39 0l274 1411h904l-25 -131h-760l-98 -504h670l-25 -131h-672l-100 -516h823l-24 -129h-967zM479 1704l78 102l328 -235l-49 -68z" />
    <glyph glyph-name="Eacute" unicode="&#xc9;" horiz-adv-x="1116" 
d="M39 0l274 1411h904l-25 -131h-760l-98 -504h670l-25 -131h-672l-100 -516h823l-24 -129h-967zM641 1571l334 235l76 -102l-363 -201z" />
    <glyph glyph-name="Ecircumflex" unicode="&#xca;" horiz-adv-x="1116" 
d="M39 0l274 1411h904l-25 -131h-760l-98 -504h670l-25 -131h-672l-100 -516h823l-24 -129h-967zM465 1567l338 245h92l227 -243l-61 -60l-232 174l-329 -178z" />
    <glyph glyph-name="Edieresis" unicode="&#xcb;" horiz-adv-x="1116" 
d="M39 0l274 1411h904l-25 -131h-760l-98 -504h670l-25 -131h-672l-100 -516h823l-24 -129h-967zM518 1608q5 34 34 59t64 25q33 0 53 -22.5t15 -55.5q-6 -36 -35.5 -62t-64.5 -26q-34 0 -53 24t-13 58zM901 1608q4 34 33 59t63 25q32 0 52 -23t16 -55q-6 -36 -35.5 -62
t-64.5 -26q-32 0 -51 24t-13 58z" />
    <glyph glyph-name="Igrave" unicode="&#xcc;" horiz-adv-x="479" 
d="M86 0l272 1411h146l-275 -1411h-143zM104 1704l78 102l328 -235l-49 -68z" />
    <glyph glyph-name="Iacute" unicode="&#xcd;" horiz-adv-x="479" 
d="M86 0l272 1411h146l-275 -1411h-143zM399 1571l334 235l76 -102l-363 -201z" />
    <glyph glyph-name="Icircumflex" unicode="&#xce;" horiz-adv-x="479" 
d="M86 0l272 1411h146l-275 -1411h-143zM129 1567l338 245h92l227 -243l-61 -60l-231 174l-330 -178z" />
    <glyph glyph-name="Idieresis" unicode="&#xcf;" horiz-adv-x="479" 
d="M86 0l272 1411h146l-275 -1411h-143zM193 1628q6 34 36 60t64 26q33 0 52.5 -22.5t14.5 -55.5q-6 -36 -35.5 -62t-64.5 -26q-34 0 -53.5 24t-13.5 56zM575 1628q6 34 35.5 60t61.5 26q34 0 54 -23t15 -55q-6 -35 -36 -61.5t-64 -26.5q-32 0 -52 24t-14 56z" />
    <glyph glyph-name="Eth" unicode="&#xd0;" horiz-adv-x="1214" 
d="M31 690l22 111h137l119 610h506q186 0 294 -96.5t108 -263.5q0 -37 -11 -101l-88 -491q-42 -227 -157.5 -343t-339.5 -116h-586l133 690h-137zM203 127h409q65 0 120 18t105 58t86 111t54 169l82 441q6 36 10 96q0 134 -79 197t-210 63h-352l-94 -479h262l-23 -111h-262z
" />
    <glyph glyph-name="Ntilde" unicode="&#xd1;" horiz-adv-x="1288" 
d="M35 0l270 1411h137q54 -119 281 -609.5t260 -559.5l225 1169h142l-271 -1411h-141q-9 20 -103.5 225.5t-173 376.5t-160.5 346t-104 215l-221 -1163h-141zM502 1565q48 76 109 116.5t120 40.5q38 0 83 -22.5t85.5 -45t69.5 -22.5q55 0 131 90l80 -51q-96 -158 -211 -158
q-47 0 -127 42t-117 42q-34 0 -67 -20.5t-78 -65.5z" />
    <glyph glyph-name="Ograve" unicode="&#xd2;" horiz-adv-x="1224" 
d="M113 401q0 62 10 111l88 453q43 218 180 339t373 121q205 0 334 -117t129 -294q0 -47 -8 -88l-91 -480q-41 -217 -181 -338.5t-380 -121.5q-199 0 -326.5 113t-127.5 302zM256 410q0 -142 88.5 -216.5t220.5 -74.5q357 0 428 377l80 413q8 39 8 82q0 141 -95 221t-230 80
q-162 0 -268 -89t-140 -271l-82 -430q-10 -55 -10 -92zM555 1704l78 102l328 -235l-50 -68z" />
    <glyph glyph-name="Oacute" unicode="&#xd3;" horiz-adv-x="1224" 
d="M113 401q0 62 10 111l88 453q43 218 180 339t373 121q205 0 334 -117t129 -294q0 -47 -8 -88l-91 -480q-41 -217 -181 -338.5t-380 -121.5q-199 0 -326.5 113t-127.5 302zM256 410q0 -142 88.5 -216.5t220.5 -74.5q357 0 428 377l80 413q8 39 8 82q0 141 -95 221t-230 80
q-162 0 -268 -89t-140 -271l-82 -430q-10 -55 -10 -92zM709 1571l333 235l76 -102l-362 -201z" />
    <glyph glyph-name="Ocircumflex" unicode="&#xd4;" horiz-adv-x="1224" 
d="M113 401q0 62 10 111l88 453q43 218 180 339t373 121q205 0 334 -117t129 -294q0 -47 -8 -88l-91 -480q-41 -217 -181 -338.5t-380 -121.5q-199 0 -326.5 113t-127.5 302zM256 410q0 -142 88.5 -216.5t220.5 -74.5q357 0 428 377l80 413q8 39 8 82q0 141 -95 221t-230 80
q-162 0 -268 -89t-140 -271l-82 -430q-10 -55 -10 -92zM489 1567l338 245h93l227 -243l-62 -60l-231 174l-330 -178z" />
    <glyph glyph-name="Otilde" unicode="&#xd5;" horiz-adv-x="1224" 
d="M113 401q0 62 10 111l88 453q43 218 180 339t373 121q205 0 334 -117t129 -294q0 -47 -8 -88l-91 -480q-41 -217 -181 -338.5t-380 -121.5q-199 0 -326.5 113t-127.5 302zM256 410q0 -142 88.5 -216.5t220.5 -74.5q357 0 428 377l80 413q8 39 8 82q0 141 -95 221t-230 80
q-162 0 -268 -89t-140 -271l-82 -430q-10 -55 -10 -92zM492 1579q48 76 109 117t120 41q38 0 82.5 -22.5t85 -45t69.5 -22.5q56 0 132 90l79 -51q-96 -158 -211 -158q-46 0 -126 42t-117 42q-34 0 -67.5 -20.5t-78.5 -65.5z" />
    <glyph glyph-name="Odieresis" unicode="&#xd6;" horiz-adv-x="1224" 
d="M113 401q0 62 10 111l88 453q43 218 180 339t373 121q205 0 334 -117t129 -294q0 -47 -8 -88l-91 -480q-41 -217 -181 -338.5t-380 -121.5q-199 0 -326.5 113t-127.5 302zM256 410q0 -142 88.5 -216.5t220.5 -74.5q357 0 428 377l80 413q8 39 8 82q0 141 -95 221t-230 80
q-162 0 -268 -89t-140 -271l-82 -430q-10 -55 -10 -92zM565 1608q4 34 34 59t65 25q33 0 52.5 -22.5t14.5 -55.5q-6 -36 -35.5 -62t-64.5 -26q-34 0 -53 24t-13 58zM948 1608q4 34 33 59t63 25q32 0 52 -23t16 -55q-6 -36 -35.5 -62t-64.5 -26q-32 0 -51 24t-13 58z" />
    <glyph glyph-name="multiply" unicode="&#xd7;" horiz-adv-x="1107" 
d="M102 195l398 325l-258 332l80 66l260 -332l395 323l59 -80l-393 -323l268 -344l-82 -64l-268 342l-397 -325z" />
    <glyph glyph-name="Oslash" unicode="&#xd8;" horiz-adv-x="1224" 
d="M109 39l84 111q-80 107 -80 251q0 62 10 111l88 453q43 218 180 339t373 121q193 0 321 -106l84 111l58 -48l-90 -116q90 -107 90 -252q0 -47 -8 -88l-91 -480q-41 -217 -181 -338.5t-380 -121.5q-196 0 -323 108l-80 -104zM256 410q0 -77 29 -140l710 932
q-93 90 -239 90q-162 0 -268 -89t-140 -271l-82 -430q-10 -55 -10 -92zM330 207q88 -88 235 -88q357 0 428 377l80 413q8 39 8 82q0 85 -39 152z" />
    <glyph glyph-name="Ugrave" unicode="&#xd9;" horiz-adv-x="1228" 
d="M109 381q0 53 12 111l178 919h145l-180 -926q-8 -39 -8 -82q0 -72 27 -129t72 -90t99 -50t113 -17q159 0 274 88.5t150 269.5l180 936h148l-189 -965q-42 -216 -191.5 -338t-381.5 -122q-193 0 -320.5 104.5t-127.5 290.5zM506 1704l78 102l327 -235l-49 -68z" />
    <glyph glyph-name="Uacute" unicode="&#xda;" horiz-adv-x="1228" 
d="M109 381q0 53 12 111l178 919h145l-180 -926q-8 -39 -8 -82q0 -72 27 -129t72 -90t99 -50t113 -17q159 0 274 88.5t150 269.5l180 936h148l-189 -965q-42 -216 -191.5 -338t-381.5 -122q-193 0 -320.5 104.5t-127.5 290.5zM696 1571l334 235l76 -102l-363 -201z" />
    <glyph glyph-name="Ucircumflex" unicode="&#xdb;" horiz-adv-x="1228" 
d="M109 381q0 53 12 111l178 919h145l-180 -926q-8 -39 -8 -82q0 -72 27 -129t72 -90t99 -50t113 -17q159 0 274 88.5t150 269.5l180 936h148l-189 -965q-42 -216 -191.5 -338t-381.5 -122q-193 0 -320.5 104.5t-127.5 290.5zM485 1567l338 245h92l228 -243l-62 -60
l-231 174l-330 -178z" />
    <glyph glyph-name="Udieresis" unicode="&#xdc;" horiz-adv-x="1228" 
d="M109 381q0 53 12 111l178 919h145l-180 -926q-8 -39 -8 -82q0 -72 27 -129t72 -90t99 -50t113 -17q159 0 274 88.5t150 269.5l180 936h148l-189 -965q-42 -216 -191.5 -338t-381.5 -122q-193 0 -320.5 104.5t-127.5 290.5zM559 1608q5 34 34 59t64 25q33 0 53 -22.5
t15 -55.5q-6 -36 -35.5 -62t-64.5 -26q-34 0 -53 24t-13 58zM942 1608q4 34 33 59t63 25q32 0 52 -23t16 -55q-6 -36 -35.5 -62t-64.5 -26q-32 0 -51 24t-13 58z" />
    <glyph glyph-name="Yacute" unicode="&#xdd;" horiz-adv-x="1052" 
d="M213 1411h149l109 -397l88 -324h6q22 32 73 109.5t110 167t73 110.5l221 334h164q-27 -41 -165.5 -244.5t-260 -383.5t-164.5 -244q-9 -44 -52 -269.5t-52 -269.5h-143l104 537zM594 1571l334 235l76 -102l-363 -201z" />
    <glyph glyph-name="Thorn" unicode="&#xde;" horiz-adv-x="1130" 
d="M29 0l274 1411h146q-4 -26 -28 -147.5t-28 -143.5h398q85 0 152.5 -30t108.5 -81t62 -114t21 -133q0 -123 -55.5 -228t-166 -172t-254.5 -67h-430l-57 -295h-143zM256 428h391q138 0 241 91.5t103 228.5q0 112 -65 175.5t-178 63.5h-383z" />
    <glyph glyph-name="germandbls" unicode="&#xdf;" horiz-adv-x="1056" 
d="M61 0l207 1073q35 179 148 278t284 99q75 0 134 -18t96.5 -47t62.5 -69t35 -80.5t10 -84.5q0 -55 -16 -108.5t-61 -108.5t-113 -84q72 -25 105.5 -83.5t33.5 -135.5q0 -42 -10 -90l-37 -197q-26 -176 -134 -266t-284 -90q-59 0 -114 8l26 121q50 -4 74 -4q250 0 299 245
l37 189q6 30 6 59q0 78 -53 121t-152 43h-47l20 113h35q60 0 110.5 26t81 65.5t47.5 84t17 84.5q0 79 -57 136.5t-158 57.5q-67 0 -120.5 -23.5t-87.5 -62.5t-55 -82.5t-30 -91.5l-208 -1077h-132z" />
    <glyph glyph-name="agrave" unicode="&#xe0;" horiz-adv-x="1005" 
d="M66 246q0 38 10 96l63 328q69 352 391 352q70 0 146 -22.5t188 -92.5l41 103h115l-197 -1010h-116l6 119q-146 -76 -229.5 -102.5t-149.5 -26.5q-125 0 -196.5 66t-71.5 190zM205 276q0 -157 164 -157q128 0 370 139l99 518q-71 57 -153.5 88t-158.5 31q-206 0 -256 -248
l-55 -282q-10 -55 -10 -89zM451 1454l108 55l236 -323l-62 -41z" />
    <glyph glyph-name="aacute" unicode="&#xe1;" horiz-adv-x="1005" 
d="M66 246q0 38 10 96l63 328q69 352 391 352q70 0 146 -22.5t188 -92.5l41 103h115l-197 -1010h-116l6 119q-146 -76 -229.5 -102.5t-149.5 -26.5q-125 0 -196.5 66t-71.5 190zM205 276q0 -157 164 -157q128 0 370 139l99 518q-71 57 -153.5 88t-158.5 31q-206 0 -256 -248
l-55 -282q-10 -55 -10 -89zM604 1174l221 339l123 -45l-268 -327z" />
    <glyph glyph-name="acircumflex" unicode="&#xe2;" horiz-adv-x="1005" 
d="M66 246q0 38 10 96l63 328q69 352 391 352q70 0 146 -22.5t188 -92.5l41 103h115l-197 -1010h-116l6 119q-146 -76 -229.5 -102.5t-149.5 -26.5q-125 0 -196.5 66t-71.5 190zM205 276q0 -157 164 -157q128 0 370 139l99 518q-71 57 -153.5 88t-158.5 31q-206 0 -256 -248
l-55 -282q-10 -55 -10 -89zM326 1196l346 283h92l219 -281l-72 -61l-213 213l-319 -215z" />
    <glyph glyph-name="atilde" unicode="&#xe3;" horiz-adv-x="1005" 
d="M66 246q0 38 10 96l63 328q69 352 391 352q70 0 146 -22.5t188 -92.5l41 103h115l-197 -1010h-116l6 119q-146 -76 -229.5 -102.5t-149.5 -26.5q-125 0 -196.5 66t-71.5 190zM205 276q0 -157 164 -157q128 0 370 139l99 518q-71 57 -153.5 88t-158.5 31q-206 0 -256 -248
l-55 -282q-10 -55 -10 -89zM319 1260q48 76 109.5 116.5t120.5 40.5q38 0 82.5 -22.5t85 -45t69.5 -22.5q56 0 132 90l79 -51q-96 -158 -211 -158q-46 0 -126 42t-117 42q-34 0 -67.5 -20.5t-78.5 -65.5z" />
    <glyph glyph-name="adieresis" unicode="&#xe4;" horiz-adv-x="1005" 
d="M66 246q0 38 10 96l63 328q69 352 391 352q70 0 146 -22.5t188 -92.5l41 103h115l-197 -1010h-116l6 119q-146 -76 -229.5 -102.5t-149.5 -26.5q-125 0 -196.5 66t-71.5 190zM205 276q0 -157 164 -157q128 0 370 139l99 518q-71 57 -153.5 88t-158.5 31q-206 0 -256 -248
l-55 -282q-10 -55 -10 -89zM389 1317q6 34 35.5 60t62.5 26q35 0 55 -23.5t15 -56.5q-6 -35 -35.5 -60.5t-66.5 -25.5q-33 0 -52.5 23.5t-13.5 56.5zM764 1317q6 34 35.5 60t62.5 26q32 0 52.5 -24t15.5 -56q-6 -35 -36 -60.5t-65 -25.5q-33 0 -52 23.5t-13 56.5z" />
    <glyph glyph-name="aring" unicode="&#xe5;" horiz-adv-x="1005" 
d="M66 246q0 38 10 96l63 328q69 352 391 352q70 0 146 -22.5t188 -92.5l41 103h115l-197 -1010h-116l6 119q-146 -76 -229.5 -102.5t-149.5 -26.5q-125 0 -196.5 66t-71.5 190zM205 276q0 -157 164 -157q128 0 370 139l99 518q-71 57 -153.5 88t-158.5 31q-206 0 -256 -248
l-55 -282q-10 -55 -10 -89zM494 1278q0 95 69 164t168 69q72 0 118 -46t46 -117q0 -98 -71.5 -164t-164.5 -66q-73 0 -119 46t-46 114zM578 1292q0 -40 25.5 -66t66.5 -26q55 0 99 42t44 97q0 38 -27.5 64.5t-68.5 26.5q-55 0 -97 -42t-42 -96z" />
    <glyph glyph-name="ae" unicode="&#xe6;" horiz-adv-x="1622" 
d="M57 225q0 72 26 132t69 100.5t99 68.5t115 41t119 13q64 0 107.5 -4t100.5 -14t100 -15l26 141q6 27 6 51q0 81 -60 120.5t-169 39.5q-164 0 -301 -94l-47 104q173 113 375 113q259 0 311 -150l6 5q119 145 332 145q149 0 240.5 -72.5t91.5 -193.5q0 -55 -13.5 -100.5
t-52.5 -92t-101.5 -78t-169 -51.5t-247.5 -20q-58 0 -113 6q-12 -55 -12 -96q0 -97 59 -156t176 -59q141 0 240 92l90 -99q-133 -114 -340 -114q-255 0 -327 190q-172 -188 -459 -188q-131 0 -204 60.5t-73 174.5zM199 252q0 -69 48 -105t140 -36q78 0 157 28t136.5 79.5
t69.5 111.5l22 110q-32 4 -79 10t-71.5 9t-63 5.5t-79.5 2.5q-50 0 -95.5 -10t-89 -33t-69.5 -67t-26 -105zM926 537q72 -7 116 -7q422 0 422 207q0 77 -50.5 119.5t-147.5 42.5q-150 0 -227.5 -93t-112.5 -269z" />
    <glyph glyph-name="ccedilla" unicode="&#xe7;" horiz-adv-x="856" 
d="M84 297q0 45 8 86l51 281q34 168 139 264t285 96q93 0 180 -29.5t136 -89.5l-90 -96q-43 48 -106 69t-122 21q-241 0 -293 -272l-47 -242q-6 -38 -6 -68q0 -102 65.5 -152t164.5 -50q54 0 122.5 20t122.5 60l74 -105q-128 -96 -328 -100q-26 -55 -34 -74q92 -3 134 -47
t42 -96q0 -69 -61 -127t-177 -58q-110 0 -174 29l33 72q61 -25 145 -25q48 0 87.5 24.5t39.5 71.5q0 41 -31.5 63t-95.5 19l-41 31l58 121q-126 16 -203.5 94t-77.5 209z" />
    <glyph glyph-name="egrave" unicode="&#xe8;" horiz-adv-x="937" 
d="M74 313q0 149 59 353q103 356 449 356q149 0 239 -72t90 -194q0 -55 -13.5 -100.5t-52 -92t-101.5 -78t-169 -51.5t-247 -20q-78 0 -113 2q-12 -52 -12 -97q0 -96 59 -153t176 -57q65 0 128.5 23.5t111.5 68.5l90 -97q-133 -116 -340 -116q-170 0 -262 87t-92 238z
M233 535q62 -3 119 -3q420 0 420 205q0 77 -51 119.5t-148 42.5q-78 0 -136.5 -26t-97.5 -76.5t-64 -113t-42 -148.5zM354 1454l109 55l235 -323l-61 -41z" />
    <glyph glyph-name="eacute" unicode="&#xe9;" horiz-adv-x="937" 
d="M74 313q0 149 59 353q103 356 449 356q149 0 239 -72t90 -194q0 -55 -13.5 -100.5t-52 -92t-101.5 -78t-169 -51.5t-247 -20q-78 0 -113 2q-12 -52 -12 -97q0 -96 59 -153t176 -57q65 0 128.5 23.5t111.5 68.5l90 -97q-133 -116 -340 -116q-170 0 -262 87t-92 238z
M233 535q62 -3 119 -3q420 0 420 205q0 77 -51 119.5t-148 42.5q-78 0 -136.5 -26t-97.5 -76.5t-64 -113t-42 -148.5zM539 1174l221 339l123 -45l-269 -327z" />
    <glyph glyph-name="ecircumflex" unicode="&#xea;" horiz-adv-x="937" 
d="M74 313q0 149 59 353q103 356 449 356q149 0 239 -72t90 -194q0 -55 -13.5 -100.5t-52 -92t-101.5 -78t-169 -51.5t-247 -20q-78 0 -113 2q-12 -52 -12 -97q0 -96 59 -153t176 -57q65 0 128.5 23.5t111.5 68.5l90 -97q-133 -116 -340 -116q-170 0 -262 87t-92 238z
M233 535q62 -3 119 -3q420 0 420 205q0 77 -51 119.5t-148 42.5q-78 0 -136.5 -26t-97.5 -76.5t-64 -113t-42 -148.5zM264 1196l346 283h92l220 -281l-72 -61l-213 213l-320 -215z" />
    <glyph glyph-name="edieresis" unicode="&#xeb;" horiz-adv-x="937" 
d="M74 313q0 149 59 353q103 356 449 356q149 0 239 -72t90 -194q0 -55 -13.5 -100.5t-52 -92t-101.5 -78t-169 -51.5t-247 -20q-78 0 -113 2q-12 -52 -12 -97q0 -96 59 -153t176 -57q65 0 128.5 23.5t111.5 68.5l90 -97q-133 -116 -340 -116q-170 0 -262 87t-92 238z
M233 535q62 -3 119 -3q420 0 420 205q0 77 -51 119.5t-148 42.5q-78 0 -136.5 -26t-97.5 -76.5t-64 -113t-42 -148.5zM346 1317q6 34 35.5 60t62.5 26q35 0 55 -23.5t15 -56.5q-6 -35 -35.5 -60.5t-66.5 -25.5q-33 0 -52.5 23.5t-13.5 56.5zM721 1317q6 34 35.5 60t62.5 26
q32 0 52.5 -24t15.5 -56q-6 -35 -36 -60.5t-65 -25.5q-33 0 -52 23.5t-13 56.5z" />
    <glyph glyph-name="igrave" unicode="&#xec;" horiz-adv-x="462" 
d="M127 1454l109 55l235 -323l-61 -41zM150 164q0 26 6 61l151 787h133l-147 -762q-6 -30 -6 -53q0 -40 21.5 -56.5t72.5 -19.5l-25 -123h-20q-91 0 -138.5 44t-47.5 122z" />
    <glyph glyph-name="iacute" unicode="&#xed;" horiz-adv-x="462" 
d="M96 164q0 26 6 61l152 787h133l-147 -762q-7 -35 -7 -53q0 -40 22 -56.5t73 -19.5l-25 -123h-20q-91 0 -139 44t-48 122zM303 1174l221 339l123 -45l-268 -327z" />
    <glyph glyph-name="icircumflex" unicode="&#xee;" horiz-adv-x="557" 
d="M92 1196l346 283h92l220 -281l-72 -61l-213 213l-320 -215zM172 164q0 26 6 61l152 787h133l-148 -762q-6 -30 -6 -53q0 -40 21.5 -56.5t72.5 -19.5l-24 -123h-21q-91 0 -138.5 44t-47.5 122z" />
    <glyph glyph-name="idieresis" unicode="&#xef;" horiz-adv-x="544" 
d="M152 164q0 26 6 61l151 787h133l-147 -762q-6 -30 -6 -53q0 -40 21.5 -56.5t72.5 -19.5l-25 -123h-20q-91 0 -138.5 44t-47.5 122zM160 1317q6 34 35.5 60t62.5 26q35 0 55 -23.5t15 -56.5q-6 -35 -36 -60.5t-67 -25.5q-33 0 -52 23.5t-13 56.5zM535 1317q6 34 35.5 60
t62.5 26q32 0 52 -24t15 -56q-6 -35 -35.5 -60.5t-64.5 -25.5q-33 0 -52 23.5t-13 56.5z" />
    <glyph glyph-name="eth" unicode="&#xf0;" horiz-adv-x="1005" 
d="M92 328q0 26 8 80l39 202q31 165 132.5 265t273.5 100q107 0 190.5 -47t116.5 -113l6 2q14 82 14 158q0 121 -30 188l-160 -98l-45 74l162 100q-68 109 -281 143l35 109q126 -10 218.5 -58t141.5 -120l185 112l45 -71l-185 -117q41 -96 41 -238q0 -162 -49 -411l-43 -230
q-69 -368 -442 -368q-171 0 -272 95t-101 243zM227 338q0 -106 67 -165.5t179 -59.5q121 0 199 62t106 204l33 166q6 30 6 55q0 111 -75 179.5t-181 68.5q-119 0 -194 -68t-101 -202l-33 -168q-6 -38 -6 -72z" />
    <glyph glyph-name="ntilde" unicode="&#xf1;" 
d="M16 0l197 1012h115l-4 -123q141 82 221.5 107.5t152.5 25.5q128 0 200.5 -66t72.5 -190q0 -40 -10 -98l-130 -668h-135l125 645q10 55 10 86q0 160 -169 160q-68 0 -165.5 -37.5t-201.5 -105.5l-143 -748h-136zM313 1260q48 76 109.5 116.5t120.5 40.5q38 0 82.5 -22.5
t85 -45t69.5 -22.5q55 0 131 90l80 -51q-96 -158 -211 -158q-46 0 -126 42t-117 42q-34 0 -67.5 -20.5t-78.5 -65.5z" />
    <glyph glyph-name="ograve" unicode="&#xf2;" horiz-adv-x="1007" 
d="M94 328q0 48 8 92l45 233q70 369 439 369q170 0 271 -98.5t101 -245.5q0 -44 -8 -80l-45 -248q-70 -360 -448 -360q-155 0 -259 90t-104 248zM225 338q0 -112 71 -169.5t173 -57.5q252 0 307 274l41 205q8 36 8 74q0 109 -70 171t-177 62q-251 0 -304 -270l-41 -215
q-8 -54 -8 -74zM393 1454l109 55l235 -323l-61 -41z" />
    <glyph glyph-name="oacute" unicode="&#xf3;" horiz-adv-x="1007" 
d="M94 328q0 48 8 92l45 233q70 369 439 369q170 0 271 -98.5t101 -245.5q0 -44 -8 -80l-45 -248q-70 -360 -448 -360q-155 0 -259 90t-104 248zM225 338q0 -112 71 -169.5t173 -57.5q252 0 307 274l41 205q8 36 8 74q0 109 -70 171t-177 62q-251 0 -304 -270l-41 -215
q-8 -54 -8 -74zM578 1174l221 339l123 -45l-269 -327z" />
    <glyph glyph-name="ocircumflex" unicode="&#xf4;" horiz-adv-x="1007" 
d="M94 328q0 48 8 92l45 233q70 369 439 369q170 0 271 -98.5t101 -245.5q0 -44 -8 -80l-45 -248q-70 -360 -448 -360q-155 0 -259 90t-104 248zM225 338q0 -112 71 -169.5t173 -57.5q252 0 307 274l41 205q8 36 8 74q0 109 -70 171t-177 62q-251 0 -304 -270l-41 -215
q-8 -54 -8 -74zM311 1196l346 283h93l219 -281l-72 -61l-213 213l-319 -215z" />
    <glyph glyph-name="otilde" unicode="&#xf5;" horiz-adv-x="1007" 
d="M94 328q0 48 8 92l45 233q70 369 439 369q170 0 271 -98.5t101 -245.5q0 -44 -8 -80l-45 -248q-70 -360 -448 -360q-155 0 -259 90t-104 248zM225 338q0 -112 71 -169.5t173 -57.5q252 0 307 274l41 205q8 36 8 74q0 109 -70 171t-177 62q-251 0 -304 -270l-41 -215
q-8 -54 -8 -74zM301 1260q48 76 109 116.5t120 40.5q38 0 83 -22.5t85.5 -45t69.5 -22.5q55 0 131 90l80 -51q-96 -158 -211 -158q-46 0 -126 42t-118 42q-34 0 -67 -20.5t-78 -65.5z" />
    <glyph glyph-name="odieresis" unicode="&#xf6;" horiz-adv-x="1007" 
d="M94 328q0 48 8 92l45 233q70 369 439 369q170 0 271 -98.5t101 -245.5q0 -44 -8 -80l-45 -248q-70 -360 -448 -360q-155 0 -259 90t-104 248zM225 338q0 -112 71 -169.5t173 -57.5q252 0 307 274l41 205q8 36 8 74q0 109 -70 171t-177 62q-251 0 -304 -270l-41 -215
q-8 -54 -8 -74zM406 1317q6 34 35.5 60t62.5 26q35 0 54.5 -23.5t14.5 -56.5q-6 -35 -35.5 -60.5t-66.5 -25.5q-33 0 -52 23.5t-13 56.5zM780 1317q6 34 35.5 60t63.5 26q32 0 52 -24t15 -56q-6 -35 -35.5 -60.5t-64.5 -25.5q-33 0 -52.5 23.5t-13.5 56.5z" />
    <glyph glyph-name="divide" unicode="&#xf7;" 
d="M72 537l20 102h889l-23 -102h-886zM360 213q0 46 37 80.5t82 34.5q35 0 57.5 -21t22.5 -55q0 -48 -36 -83.5t-81 -35.5q-36 0 -59 23t-23 57zM498 926q0 46 37 80t83 34q34 0 56 -21.5t22 -55.5q0 -45 -36 -81t-80 -36q-36 0 -59 23t-23 57z" />
    <glyph glyph-name="oslash" unicode="&#xf8;" horiz-adv-x="1007" 
d="M72 39l80 92q-58 83 -58 197q0 48 8 92l45 233q70 369 439 369q152 0 256 -84l76 88l57 -47l-82 -96q65 -86 65 -205q0 -44 -8 -80l-45 -248q-70 -360 -448 -360q-156 0 -256 86l-72 -84zM225 338q0 -55 19 -98l510 596q-70 61 -176 61q-251 0 -304 -270l-41 -215
q-8 -54 -8 -74zM287 176q68 -65 182 -65q252 0 307 274l41 205q8 36 8 74q0 64 -24 110z" />
    <glyph glyph-name="ugrave" unicode="&#xf9;" horiz-adv-x="1007" 
d="M72 246q0 38 10 96l131 670h133l-125 -645q-8 -44 -8 -86q0 -162 168 -162q67 0 166.5 41.5t200.5 109.5l145 742h133l-195 -1012h-114l2 121q-213 -131 -373 -131q-129 0 -201.5 66t-72.5 190zM399 1454l109 55l235 -323l-61 -41z" />
    <glyph glyph-name="uacute" unicode="&#xfa;" horiz-adv-x="1007" 
d="M72 246q0 38 10 96l131 670h133l-125 -645q-8 -44 -8 -86q0 -162 168 -162q67 0 166.5 41.5t200.5 109.5l145 742h133l-195 -1012h-114l2 121q-213 -131 -373 -131q-129 0 -201.5 66t-72.5 190zM573 1174l222 339l123 -45l-269 -327z" />
    <glyph glyph-name="ucircumflex" unicode="&#xfb;" horiz-adv-x="1007" 
d="M72 246q0 38 10 96l131 670h133l-125 -645q-8 -44 -8 -86q0 -162 168 -162q67 0 166.5 41.5t200.5 109.5l145 742h133l-195 -1012h-114l2 121q-213 -131 -373 -131q-129 0 -201.5 66t-72.5 190zM307 1196l346 283h92l220 -281l-72 -61l-213 213l-320 -215z" />
    <glyph glyph-name="udieresis" unicode="&#xfc;" horiz-adv-x="1007" 
d="M72 246q0 38 10 96l131 670h133l-125 -645q-8 -44 -8 -86q0 -162 168 -162q67 0 166.5 41.5t200.5 109.5l145 742h133l-195 -1012h-114l2 121q-213 -131 -373 -131q-129 0 -201.5 66t-72.5 190zM393 1317q6 34 35.5 60t63.5 26q35 0 54.5 -23.5t14.5 -56.5
q-6 -35 -35.5 -60.5t-66.5 -25.5q-33 0 -52.5 23.5t-13.5 56.5zM768 1317q6 34 35.5 60t62.5 26q32 0 52.5 -24t15.5 -56q-6 -35 -35.5 -60.5t-64.5 -25.5q-33 0 -52.5 23.5t-13.5 56.5z" />
    <glyph glyph-name="yacute" unicode="&#xfd;" horiz-adv-x="884" 
d="M57 -414l230 426l-58 62l-116 938h135l49 -441q5 -51 25.5 -227t25.5 -227h4l324 598q52 96 71 146t19 112v39h135v-37q0 -81 -21.5 -140t-70.5 -147l-608 -1102h-144zM459 1174l221 339l123 -45l-268 -327z" />
    <glyph glyph-name="thorn" unicode="&#xfe;" horiz-adv-x="1011" 
d="M-61 -410l348 1821h133l-98 -522q236 133 376 133q128 0 199.5 -63t71.5 -189q0 -51 -11 -102l-63 -324q-71 -356 -420 -356q-149 0 -313 78l-94 -476h-129zM186 195q160 -82 301 -82q230 0 277 245l57 293q10 55 10 84q0 156 -169 156q-62 0 -163 -38t-204 -99z" />
    <glyph glyph-name="ydieresis" unicode="&#xff;" horiz-adv-x="884" 
d="M57 -414l230 426l-58 62l-116 938h135l49 -441q5 -51 25.5 -227t25.5 -227h4l324 598q52 96 71 146t19 112v39h135v-37q0 -81 -21.5 -140t-70.5 -147l-608 -1102h-144zM293 1317q6 34 35.5 60t62.5 26q35 0 55 -23.5t15 -56.5q-6 -35 -36 -60.5t-67 -25.5q-33 0 -52 23.5
t-13 56.5zM668 1317q6 34 35.5 60t62.5 26q32 0 52.5 -24t15.5 -56q-6 -35 -36 -60.5t-65 -25.5q-33 0 -52 23.5t-13 56.5z" />
    <glyph glyph-name="OE" unicode="&#x152;" horiz-adv-x="1781" 
d="M111 393q0 57 12 119l88 453q43 217 183.5 338.5t377.5 121.5q115 0 184 -14h926l-24 -131h-783l-98 -504h670l-25 -131h-670l-102 -516h782l-24 -129h-901q-79 -14 -148 -14q-203 0 -325.5 110t-122.5 297zM256 408q0 -142 87 -216.5t218 -74.5q83 0 150 20l219 1135
q-59 20 -162 20q-352 0 -420 -360l-82 -430q-10 -55 -10 -94z" />
    <glyph glyph-name="oe" unicode="&#x153;" horiz-adv-x="1650" 
d="M86 309q0 45 8 84l51 269q33 172 146 265t303 93q112 0 204 -49.5t130 -134.5q124 184 366 184q148 0 239 -72t91 -192q0 -55 -13.5 -100.5t-53 -92t-102.5 -78t-169.5 -51.5t-247.5 -20q-75 0 -110 2q-10 -52 -10 -90q0 -101 56.5 -160.5t174.5 -59.5q142 0 242 93
l88 -97q-130 -114 -338 -114q-244 0 -318 174q-117 -172 -374 -172q-157 0 -260 85.5t-103 233.5zM221 326q0 -101 67.5 -158t172.5 -57q264 0 315 272q28 138 45 231q6 34 6 64q0 104 -72 161.5t-177 57.5q-253 0 -306 -270l-45 -236q-6 -35 -6 -65zM944 532q43 -2 119 -2
q424 0 424 207q0 77 -52 119.5t-149 42.5q-78 0 -137.5 -26t-98.5 -77t-64 -114.5t-42 -149.5z" />
    <glyph glyph-name="Ydieresis" unicode="&#x178;" horiz-adv-x="1052" 
d="M213 1411h149l109 -397l88 -324h6q22 32 73 109.5t110 167t73 110.5l221 334h164q-27 -41 -165.5 -244.5t-260 -383.5t-164.5 -244q-9 -44 -52 -269.5t-52 -269.5h-143l104 537zM444 1608q4 34 34 59t65 25q33 0 52.5 -22.5t14.5 -55.5q-6 -36 -35.5 -62t-64.5 -26
q-34 0 -53 24t-13 58zM827 1608q4 34 33.5 59t63.5 25q32 0 52 -23t15 -55q-6 -36 -35.5 -62t-64.5 -26q-32 0 -51 24t-13 58z" />
    <glyph glyph-name="circumflex" unicode="&#x2c6;" 
d="M326 1196l346 283h92l219 -281l-72 -61l-213 213l-319 -215z" />
    <glyph glyph-name="tilde" unicode="&#x2dc;" 
d="M338 1260q48 76 109 116.5t120 40.5q47 0 126 -45t112 -45q55 0 131 90l80 -51q-96 -158 -211 -158q-47 0 -127 42t-117 42q-34 0 -67 -20.5t-78 -65.5z" />
    <glyph glyph-name="uni2000" unicode="&#x2000;" horiz-adv-x="923" 
 />
    <glyph glyph-name="uni2001" unicode="&#x2001;" horiz-adv-x="1847" 
 />
    <glyph glyph-name="uni2002" unicode="&#x2002;" horiz-adv-x="923" 
 />
    <glyph glyph-name="uni2003" unicode="&#x2003;" horiz-adv-x="1847" 
 />
    <glyph glyph-name="uni2004" unicode="&#x2004;" horiz-adv-x="615" 
 />
    <glyph glyph-name="uni2005" unicode="&#x2005;" horiz-adv-x="461" 
 />
    <glyph glyph-name="uni2006" unicode="&#x2006;" horiz-adv-x="307" 
 />
    <glyph glyph-name="uni2007" unicode="&#x2007;" horiz-adv-x="307" 
 />
    <glyph glyph-name="uni2008" unicode="&#x2008;" horiz-adv-x="230" 
 />
    <glyph glyph-name="uni2009" unicode="&#x2009;" horiz-adv-x="369" 
 />
    <glyph glyph-name="uni200A" unicode="&#x200a;" horiz-adv-x="102" 
 />
    <glyph glyph-name="uni2010" unicode="&#x2010;" horiz-adv-x="780" 
d="M119 485l24 123h566l-25 -123h-565z" />
    <glyph glyph-name="uni2011" unicode="&#x2011;" horiz-adv-x="780" 
d="M119 485l24 123h566l-25 -123h-565z" />
    <glyph glyph-name="figuredash" unicode="&#x2012;" horiz-adv-x="780" 
d="M119 485l24 123h566l-25 -123h-565z" />
    <glyph glyph-name="endash" unicode="&#x2013;" horiz-adv-x="1003" 
d="M51 483l25 125h923l-24 -125h-924z" />
    <glyph glyph-name="emdash" unicode="&#x2014;" horiz-adv-x="2041" 
d="M35 483l24 125h1960l-24 -125h-1960z" />
    <glyph glyph-name="quoteleft" unicode="&#x2018;" horiz-adv-x="528" 
d="M301 1147q0 95 74 187.5t166 133.5q13 -26 34 -61q-105 -68 -129 -164h5q30 -2 49.5 -22t19.5 -54q0 -45 -37 -81.5t-88 -36.5q-44 0 -69 27.5t-25 70.5z" />
    <glyph glyph-name="quoteright" unicode="&#x2019;" horiz-adv-x="528" 
d="M295 1114q106 69 127 164q-30 2 -52 30t-18 62q5 43 39.5 74t83.5 31q52 0 74.5 -36t15.5 -87q-10 -92 -78.5 -176.5t-156.5 -122.5q-32 47 -35 61z" />
    <glyph glyph-name="quotesinglbase" unicode="&#x201a;" horiz-adv-x="460" 
d="M2 -174q105 69 127 164h-2q-68 3 -68 73q0 48 35 83.5t88 35.5q48 0 71 -28t23 -74q0 -91 -75 -183t-164 -130z" />
    <glyph glyph-name="quotedblleft" unicode="&#x201c;" horiz-adv-x="755" 
d="M272 1147q0 95 74 187.5t166 133.5q8 -16 35 -61q-105 -68 -129 -164h4q30 -2 50 -22t20 -54q0 -47 -36.5 -82.5t-88.5 -35.5q-44 0 -69.5 27.5t-25.5 70.5zM553 1147q0 95 74 187.5t166 133.5q13 -26 34 -61q-105 -68 -129 -164h4q30 -2 50 -22t20 -54
q0 -47 -36.5 -82.5t-88.5 -35.5q-44 0 -69 27.5t-25 70.5z" />
    <glyph glyph-name="quotedblright" unicode="&#x201d;" horiz-adv-x="755" 
d="M268 1114q106 69 127 164h-2q-30 2 -48.5 22t-18.5 54q0 47 36 83t87 36q45 0 68.5 -27.5t23.5 -71.5q0 -97 -72.5 -188.5t-165.5 -132.5zM549 1114q106 69 127 164h-2q-30 2 -49 22t-19 54q0 47 36 83t87 36q45 0 68.5 -27.5t23.5 -71.5q0 -97 -72 -188.5t-165 -132.5z
" />
    <glyph glyph-name="quotedblbase" unicode="&#x201e;" horiz-adv-x="782" 
d="M2 -174q105 69 127 164h-2q-68 3 -68 73q0 48 35 83.5t88 35.5q48 0 71 -28t23 -74q0 -91 -75 -183t-164 -130zM330 -174q104 66 129 164h-4q-32 2 -50 19t-18 50q0 50 34 86.5t89 36.5q43 0 68.5 -25.5t25.5 -64.5q0 -98 -71 -191.5t-166 -133.5z" />
    <glyph glyph-name="bullet" unicode="&#x2022;" horiz-adv-x="780" 
d="M166 561q0 97 67 164.5t162 67.5t162.5 -67.5t67.5 -164.5q0 -94 -67.5 -160.5t-162.5 -66.5t-162 66.5t-67 160.5z" />
    <glyph glyph-name="ellipsis" unicode="&#x2026;" horiz-adv-x="1452" 
d="M59 88q6 41 38 71.5t79 30.5q45 0 68.5 -28.5t17.5 -65.5q-6 -45 -41 -75.5t-82 -30.5q-45 0 -66.5 27t-13.5 71zM555 88q6 41 39 71.5t80 30.5q45 0 68.5 -28.5t17.5 -65.5q-6 -45 -41 -75.5t-82 -30.5q-45 0 -66.5 27t-15.5 71zM1061 90q6 40 39 70t80 30
q45 0 68.5 -28.5t17.5 -65.5q-6 -45 -41 -75.5t-82 -30.5q-45 0 -66.5 27.5t-15.5 72.5z" />
    <glyph glyph-name="uni202F" unicode="&#x202f;" horiz-adv-x="369" 
 />
    <glyph glyph-name="guilsinglleft" unicode="&#x2039;" horiz-adv-x="600" 
d="M68 463l319 366h131l-325 -374l169 -361h-118z" />
    <glyph glyph-name="guilsinglright" unicode="&#x203a;" horiz-adv-x="581" 
d="M41 94l326 377l-172 358h120l179 -366l-322 -369h-131z" />
    <glyph glyph-name="uni205F" unicode="&#x205f;" horiz-adv-x="461" 
 />
    <glyph glyph-name="Euro" unicode="&#x20ac;" 
d="M86 575l18 97h756l-18 -97h-512l-17 -83q-10 -46 -10 -105q0 -134 78 -203t217 -69q143 0 287 69l45 -121q-139 -77 -352 -77q-192 0 -305 102t-113 287q0 57 12 125l14 75h-100zM125 776l18 96h103l18 95q90 458 520 458q94 0 182 -24.5t152 -69.5l-80 -110
q-50 32 -122 51.5t-136 19.5q-162 0 -251.5 -84.5t-129.5 -275.5l-12 -60h512l-18 -96h-756z" />
    <glyph glyph-name="trademark" unicode="&#x2122;" horiz-adv-x="1708" 
d="M78 1329v96h610v-96h-256v-735h-98v735h-256zM782 594v829h103q20 -36 147.5 -288.5t147.5 -290.5h6l287 579h98v-829h-96v629h-5q-10 -19 -120 -240.5t-131 -259.5h-74q-21 34 -129.5 247.5t-126.5 246.5h-6l-4 -623h-97z" />
    <glyph glyph-name="uni25FC" unicode="&#x25fc;" horiz-adv-x="1013" 
d="M0 0v1014h1014v-1014h-1014z" />
    </font>
</defs>
</svg>
