<?xml version="1.0" standalone="no"?>
<!DOCTYPE svg PUBLIC "-//W3C//DTD SVG 1.1//EN" "http://www.w3.org/Graphics/SVG/1.1/DTD/svg11.dtd" >
<svg xmlns="http://www.w3.org/2000/svg" xmlns:xlink="http://www.w3.org/1999/xlink" version="1.1">
<metadata>
Created by FontForge 20170731 at Wed Feb  5 12:00:05 2014
 By Aleksey,,,
A^(c) 2014 GEERT
</metadata>
<defs>
<font id="ManusTrial" horiz-adv-x="500" >
  <font-face 
    font-family="ManusTrial"
    font-weight="400"
    font-stretch="normal"
    units-per-em="1000"
    panose-1="0 0 0 0 0 0 0 0 0 0"
    ascent="750"
    descent="-250"
    x-height="411"
    cap-height="677"
    bbox="-335 -509 792 827"
    underline-thickness="50"
    underline-position="-150"
    unicode-range="U+0020-007A"
  />
<missing-glyph 
 />
    <glyph glyph-name=".notdef" 
 />
    <glyph glyph-name=".null" horiz-adv-x="0" 
 />
    <glyph glyph-name="nonmarkingreturn" 
 />
    <glyph glyph-name="space" unicode=" " 
 />
    <glyph glyph-name="space" unicode="&#xa0;" 
 />
    <glyph glyph-name="comma" unicode="," horiz-adv-x="178" 
d="M157 20q0 -15 -9 -40t-17 -47q-2 -7 -8.5 -13t-6.5 -16q-5 -2 -20 -7.5t-21 -22.5q0 7 -4 11q-10 -6 -11 -14v4.5t-6 1.5q-8 0 -13 -11q-3 2 -5.5 5t-8.5 3q-5 0 -7 -2t-3 -2q1 5 6 16q-4 7 -12 1q0 3 -2 4.5t-2 6.5q0 1 5 8.5t11.5 16t13.5 17t9 13.5q19 33 24.5 56
t12.5 42q1 2 3.5 3.5t5.5 7.5t2.5 11.5t-0.5 12.5q6 3 13 5l14 4q2 -2 1.5 -6.5t-0.5 -8.5q3 -2 1.5 -3t3.5 -1q6 0 4 1.5t3 1.5q8 0 13 -12q6 -11 8 -27t2 -20z" />
    <glyph glyph-name="period" unicode="." horiz-adv-x="141" 
d="M124 57q0 -6 -1.5 -10t-2.5 -8q-8 -7 -15 -17.5t-17 -17.5q-7 -4 -18 -6.5t-16 -2.5q-24 0 -31.5 16.5t-7.5 31.5q0 10 4 18q6 7 16.5 19.5t15.5 12.5t3 -1.5t4 -1.5q4 0 10.5 9t14.5 13q-2 -8 8 -15t17 -4q0 -7 -3 -9q7 -7 13 -14.5t6 -12.5z" />
    <glyph glyph-name="A" unicode="A" horiz-adv-x="454" 
d="M495 253q-15 -6 -38.5 -13t-44.5 -13q-3 -1 -9.5 -2t-14.5 -2q-3 -6 -5 -14.5t-4 -15.5q-3 -5 -1.5 -9.5l3.5 -10.5q-2 -3 -3.5 -3t-2.5 -2q-2 -24 -1 -54.5t-5 -57.5q-3 -15 -2.5 -27t1 -23.5t-1.5 -24t-10 -28.5q-2 -5 -3 -12t-1 -12q-2 0 -3 -1.5t-4 -1.5q-7 -2 -9 -8
q-4 4 -13 7t-16 7q-10 14 -13 27t-3 27t1.5 28.5t1.5 28.5q-2 9 -0.5 18.5t1.5 18.5l2 130h-37q-6 0 -22 -4t-33 -9t-31.5 -9t-16.5 -6q-11 -21 -21 -45.5t-26 -51.5l-6.5 -6.5t-6.5 -10.5q-6 -12 -10.5 -24.5t-7.5 -25.5q-3 0 -3 2.5t-2 4.5q-5 -6 -5 -15q-2 0 -3.5 -1
t-3.5 2l-5 -5q-2 4 -8 5.5t-11 5.5q-6 3 -8.5 11.5t-2.5 13.5q0 7 6.5 28t15.5 43q9 25 23 55q-11 8 -25 16t-23 15q-2 3 -5.5 9.5t-7.5 13t-7 12.5t-3 8q0 4 5.5 9t7.5 8q5 -5 11 -5q5 0 20 4.5t25 9.5q14 1 25 2t25 6q32 68 63 141.5t63 135.5q13 29 46 90q8 13 21.5 29.5
t24.5 36.5q4 6 5 16.5t1 18.5l1 1q3 3 5 3q5 0 8.5 -1.5t8.5 -1.5q3 0 5.5 -1t5.5 1l2.5 -5t6.5 -3t2.5 1t2.5 1q4 0 13 -9t11 -18q4 -9 5 -20.5t2 -22.5t1 -19.5v-11.5t-1.5 -13.5l-2.5 -17.5q-2 -8 0 -16.5t1 -18.5l-10 -84t-7 -84q-1 -8 -3 -22t-4.5 -30t-4.5 -32t-4 -31
q3 -2 11 -2q21 -3 41 -4t41 -1q0 -2 1 -4.5t4 -2.5l-5 -6q1 -5 5 -9t9 -7zM315 505q-32 -50 -56.5 -110t-48.5 -109q19 0 38.5 -4t49.5 2z" />
    <glyph glyph-name="B" unicode="B" horiz-adv-x="349" 
d="M414 632q0 -4 -5.5 -15t-5.5 -13q-9 -33 -31.5 -57t-41.5 -44q-7 -7 -19.5 -18.5t-27.5 -25t-32 -26.5t-31 -25l-9 -5t-20 -12t-19.5 -15.5t-8.5 -15.5q0 -2 9.5 -12t23.5 -23.5t29 -28.5t25 -27q14 -18 19 -31.5t9 -29.5q3 -10 3.5 -24t0.5 -18t-0.5 -16t-3.5 -20
q-2 -12 -6 -26.5t-10 -26.5q-11 -21 -27 -43q-2 -5 -9.5 -12.5l-13.5 -13.5q-4 -4 -13 -9.5t-18 -10.5t-16.5 -8t-8.5 -3q-4 0 -8.5 -2.5t-8.5 -2.5q-5 0 -14 4t-13 4q-5 0 -4.5 -1.5t-4.5 -1.5t-3.5 2.5t-1.5 3.5q-12 3 -22 12t-18 21t-14 25t-9 24q-4 3 -10.5 8t-13.5 11
q-4 11 -6.5 27t-2.5 21q0 1 1.5 10.5t3 23t4 27t5.5 24.5q12 58 24 118t24 119q2 10 5.5 26.5t7 35t8.5 38.5l9 36q-3 5 0 10q1 6 4 15t6 17.5t5.5 15t2.5 8.5q0 4 -7.5 13.5t-7.5 14.5q0 4 6.5 10.5t12.5 11.5q4 2 8 1.5t7 1.5q25 17 52 22t50 5q3 0 19 -1.5t25 -2.5h3l6 2
q0 -1 4 -6q10 -4 22 -8t16 -4t3 1.5t-1 3.5q6 -9 16 -11t18 -7q15 -7 30 -21q1 -3 4 -7.5t5 -8.5q4 -6 7.5 -17.5t3.5 -16.5zM324 664q-6 2 -13 4t-11 2q-5 0 -4.5 -2.5t-3.5 -2.5t-7.5 1t-7.5 1q-21 0 -39 -6t-42 -12q-8 -2 -14 -7.5t-10 -5.5q-3 -31 -5.5 -62.5
t-4.5 -61.5q-2 -6 -3 -16.5t3 -15.5q2 8 11 12.5l11 5.5q20 19 38.5 37.5t36.5 39.5q3 2 3 6.5t1 5.5q5 5 11 10t9 9q12 13 23.5 28.5t17.5 29.5zM206 208q0 37 -19 62.5t-65 63.5q-6 -26 -12 -49t-12 -47q-2 -14 -8 -36t-12 -41q-1 -3 -2.5 -3t-3.5 -2v-25q4 3 7 6t7 6
q0 -4 -1 -5.5t0 -4.5q5 3 8 3t5 2q0 -14 1.5 -28.5t1.5 -29.5q6 6 8 4q-8 -20 -6 -34q9 4 19 7t17 10q7 6 14.5 14t15.5 13q1 1 1 2.5t2 4.5q7 11 13.5 19t10.5 20q6 16 8 39.5t2 28.5z" />
    <glyph glyph-name="C" unicode="C" horiz-adv-x="372" 
d="M490 167l-16 -12l4 -15q-12 -8 -23 -17.5t-18 -18.5q-6 -7 -17 -15.5t-19 -14.5q-4 -2 -7 -6t-6 -10q-21 -11 -43.5 -26t-43.5 -30q0 -2 1 -4.5t-2 -2.5q-2 -2 -2.5 -3.5t-5.5 -1.5t-4.5 0t-1.5 3q-3 -3 -3.5 -5t-1.5 -4q-5 -1 -12 -2.5t-15 -4t-14.5 -4.5t-7.5 -2
q-4 0 -8.5 -2.5t-8.5 0.5q-2 -3 -1 -5t-4 -2t-17 2t-15 2q-5 0 -4.5 -2t-4.5 -2q-9 0 -23.5 8t-29 19.5t-26 22t-13.5 13.5q-6 9 -14 20t-15 25q-20 33 -27.5 59t-13.5 47q2 6 -0.5 20t-2.5 19q0 20 4 45.5t10 51.5t14.5 52.5t16.5 48.5q3 9 13 26t16 30q3 6 6 14.5t5 14.5
q12 22 30.5 50.5t40 56t42.5 50t38 30.5q4 3 9.5 7.5t9.5 4.5q5 0 8 -3.5t8 -3.5t3 1t3 1q4 0 16 -3t18 -5q6 -1 12 -7t14 -10q11 -6 21 -12t16 -18t7.5 -28t1.5 -21q0 -13 -4 -15t-6 -10q-1 -4 -2.5 -11t-3.5 -13q-4 -10 -10 -19l-12 -18q-6 -2 -9 -8t-7 -6t-9.5 1.5
t-12.5 -1.5q-2 3 -1 4.5t1 4.5q-2 2 -4.5 1.5t-5.5 0.5q-3 3 -9 9.5t-12 9.5q3 9 8 20.5t8.5 22t6.5 18.5t3 10v13v2h-1q-1 0 -1 0.5t-1 0.5q-5 0 -14.5 -8.5t-19.5 -19.5t-17 -20.5t-7 -10.5q-7 -11 -15.5 -24t-14.5 -25q-11 -21 -24 -39.5t-22 -38.5q-8 -21 -14.5 -44
t-16.5 -46q-2 -10 -6.5 -22t-6.5 -23q-6 -27 -12.5 -57t-6.5 -55q0 -4 -2 -8t-2 -9t2.5 -9t2.5 -8v-11.5t1 -11.5q0 -2 3.5 -14t10.5 -26.5t14.5 -26t17.5 -11.5q5 0 5.5 2.5t0.5 4.5q2 -2 3.5 -4.5t7.5 -2.5h18q16 6 36 11t37 12q11 4 26.5 11.5t29.5 13.5q3 1 6 5t6 6
q12 8 24.5 13.5t24.5 11.5q11 4 15 15q2 1 11 1q4 0 3 -2.5t1 -4.5q8 6 26.5 18t29.5 13q2 1 3 4.5t4 6.5q15 9 18 -5zM401 125l-2 3l-9 -6l3 -2zM376 110l-4 2l-3 -6l3 -3z" />
    <glyph glyph-name="D" unicode="D" horiz-adv-x="366" 
d="M390 422q0 -2 -1 -11.5t-3 -22t-3.5 -26t-4.5 -22.5q-5 -17 -13 -32t-17 -32q-3 -7 -5 -16.5t-6 -18.5q-8 -19 -20 -37.5t-22 -33.5q-12 -16 -28.5 -37t-35.5 -47q-5 -6 -14 -13t-19 -15q-9 -10 -25.5 -25t-25.5 -19q-3 -1 -3.5 -3.5t-2.5 -4.5q0 2 0.5 3.5t-2.5 3.5
q-2 -3 -4.5 -8.5t-7.5 -9.5q-7 -6 -20 -13.5t-18 -7.5q-4 0 -7.5 1t-9.5 1l-5 5v-1q0 -2 -3 -2q-5 0 -14.5 9t-16.5 15q-2 3 -0.5 4t0.5 2q-6 9 -13.5 23.5t-7.5 20.5q0 3 6 15t6 17t-6.5 11t-8.5 11q-3 4 -5 14q-3 7 1 20q0 2 -2.5 3t-2.5 6t1.5 3t3.5 0q2 24 9 52t14 59
q1 5 9 33t18.5 69t24 87.5t24 89t18 74.5t7.5 42q0 3 -1.5 10.5t-2.5 14.5q-1 3 -6 8t-5 9q0 8 6 8q4 -2 6.5 -3.5t6.5 -1.5t17 -4t21 -7q1 0 3.5 -4t6.5 -4t15.5 -6t17.5 -10q15 -9 34 -21t37 -25.5t33.5 -28.5t26.5 -30q24 -35 34.5 -72t10.5 -69zM312 464q0 15 -2.5 31.5
t-8.5 31.5t-15 28t-23 20l2 2q-12 9 -27.5 21.5t-30.5 17.5q3 -29 -2.5 -59.5t-13.5 -62t-17 -62t-14 -56.5q-15 -42 -25 -79.5t-21 -78.5q-6 -13 -14.5 -31t-8.5 -29q-1 -2 -2 -1.5t-2 -1.5q-3 -17 -6.5 -35t-8.5 -36q-1 1 -1 7q-5 -8 -8 -11q0 -3 1.5 -5.5t-0.5 -4.5
q-5 4 -9 4q0 -2 -1 -5.5t1 -9.5q4 2 6 4.5t4 3.5q2 -2 0 -3.5t2 -1.5t3.5 5t1.5 7q3 -2 1.5 -2t3.5 0q4 0 16.5 11t25.5 24t24 24.5t12 12.5q6 6 12.5 17t10.5 17q8 4 17 14.5t17.5 22.5t15 24t11.5 20q-7 -7 -14.5 -16.5t-14.5 -19.5q18 31 37.5 60.5t33.5 60.5q4 9 9 23.5
t10 30.5t8.5 33.5t3.5 32.5z" />
    <glyph glyph-name="E" unicode="E" horiz-adv-x="377" 
d="M610 630q-6 -4 -12.5 -8.5t-10.5 -4.5h-132q-4 0 -8.5 -3t-7.5 -3q-9 -3 -22.5 -3t-22.5 -2q-13 -4 -29.5 -6t-36.5 -5l-5 -5q-17 3 -31.5 -0.5t-32.5 -6.5v-2q0 -1 -2 -1q-5 0 -14.5 -2t-17.5 -2q-5 -2 -8.5 -4.5t-5.5 -6.5q-9 -20 -15 -41.5t-12 -42.5
q-9 -25 -16.5 -49.5t-18.5 -49.5l4 -4q9 5 14 5t5 -1.5t2 -3.5l7 7l3 -2h3t30 6l58.5 13l58.5 13t30 6q5 0 4 -1t2 -1l67 15l-5 -4q4 -3 5.5 -7t1.5 -8q0 -5 -3 -7t-5 -7q-1 -3 1.5 -4.5t2.5 -4.5q-10 -2 -19.5 -7.5t-18.5 -7.5q-1 -3 -5 -6.5t3 -3.5q-10 0 -24 -7
q2 -2 4.5 -1.5t5.5 0.5l-148 -59q-10 0 -26 -6.5t-28 -11.5q-12 -4 -29 -5.5t-21 -1.5q-5 0 -2.5 1t-2.5 1q-4 0 -7.5 -9.5t-6 -22.5l-5 -26t-3.5 -20q-2 -11 -5 -26.5t-5 -30.5t-3 -25.5t-1 -13.5q0 -5 1 -6t1 -3q1 -6 0.5 -12t10.5 -20q4 -1 6 -2t7 -1t5 2.5t5 2.5t8 -4
t7 -4q5 0 10 1.5t10 1.5q3 0 12 3.5t15 5.5q12 4 25.5 10t29.5 14q11 6 22 16.5t22 10.5q4 0 4 -2.5t3 -2.5q2 -6 -0.5 -11t6.5 -12q-3 -3 -6 -10.5t-9 -13.5q0 -2 2.5 -2.5t5.5 -0.5q-5 -3 -16 -15t-12 -15q-2 -3 -4 -7t-8 -8q-7 -6 -18.5 -11.5t-22.5 -10.5t-20 -8t-10 -3
h-38q-5 0 -5.5 1t-3.5 2q-12 0 -26 6.5t-26 16.5q-28 19 -43.5 39t-22.5 40q-3 7 -4.5 17t-3.5 20t-3 17t-1 10v67q4 5 4 6q5 29 11 50.5t10.5 37.5t5 28t-4.5 22q2 -1 6.5 0.5t6.5 6.5q13 36 26 75l26 78q2 6 7.5 16t5.5 15t-8 11t-14 8q0 4 -6.5 10.5t-8.5 14.5l-6.5 19.5
t-6.5 21.5v7l1 1q2 3 5 3q4 0 2 -1.5t2 -1.5q5 0 5.5 2t2.5 3q19 5 40 11t44 11q10 14 13 22t5.5 12t7 4.5t16.5 0.5q4 0 6.5 -2t5.5 -4q2 -6 8.5 -11t13.5 -10q3 -1 2.5 -1t3.5 0q2 0 9.5 1t17 2t20 3t18.5 2q21 1 48.5 1t52.5 -0.5t43.5 -1t21.5 -0.5q1 0 10 -1.5t21 -4.5
t24.5 -6t22.5 -6l22.5 -7.5t25.5 -13.5q8 -6 7 -12.5t5 -13.5z" />
    <glyph glyph-name="F" unicode="F" horiz-adv-x="415" 
d="M546 672h-7.5t-6.5 -1q-10 -5 -11 -11q-8 0 -17.5 -2t-18.5 -8q-6 -2 -12 -5.5t-12 -6.5q-24 -6 -50.5 -11t-53.5 -11q-3 0 -7.5 -4.5t-9.5 -4.5q-12 0 -18.5 -2.5t-25.5 -10.5q-10 -4 -25.5 -6t-20.5 -2q-4 0 -19.5 -2.5t-18.5 -11.5q-20 -44 -30.5 -90t-25.5 -92
l236 24q1 0 14.5 0.5t30 0.5t30 0.5t16.5 0.5q5 0 5 -0.5t1 -0.5q2 -3 5.5 -7t-2.5 -6q0 -2 4 -4.5t7 -3.5q0 -3 2 -7l4 -8q-3 0 -8.5 -1.5t-9.5 -1.5q-3 -2 1 -11h-5t-7 -3q3 -2 5 -2q-5 1 -10 -4.5t-13 -7.5q-13 -5 -32 -10.5t-36.5 -9.5t-30.5 -6.5t-16 -2.5q-5 0 -5 1.5
t-4 1.5t-19.5 -7t-32.5 -9q-11 -2 -25.5 -3.5t-26.5 -2.5q-18 -2 -49.5 -6t-58.5 -12q-4 -22 -11.5 -47t-13.5 -47q-3 -13 -4 -28.5t-3 -28.5q0 -3 -3 -7t-4 -10q-3 -4 -3 -15t-2 -20q-2 0 -5 -5q-1 -16 -4.5 -38.5t-9.5 -40.5q2 9 -6 15q-3 -6 -3.5 -11t-3.5 -11
q-3 2 -3 3.5t-2 3.5q-3 -2 -5 -2t-5 -3l-14.5 14.5t-8.5 13.5q0 4 2 6t2 6q1 74 9.5 137t18.5 125q-23 15 -30.5 34.5t-9.5 41.5q6 2 15 3.5t19 4.5q6 1 14 2t14 5q8 31 19 68t21 73q5 14 9.5 33t10.5 38q3 5 7.5 12t4.5 11q0 5 -4.5 17t-4.5 17v7q5 5 12 5q5 0 3.5 -1.5
t3.5 -1.5q4 0 8 3.5t12 6.5q3 0 6 -4q15 1 37.5 3.5t43.5 5.5q11 3 24.5 7.5t18.5 4.5h6q1 0 14.5 1.5t31.5 4.5t37.5 5.5t34.5 4.5q6 2 11 3.5t10 2.5q7 2 18.5 2h16.5q13 0 31 -1.5t30 -12.5q-1 -2 0 -7t4 -7q-1 0 -1 -1v-4q0 -2 2 -3.5t2 -3.5z" />
    <glyph glyph-name="G" unicode="G" horiz-adv-x="480" 
d="M500 253q0 -2 -6 -11t-13.5 -19.5t-14 -19.5t-8.5 -11q-11 -13 -22 -27t-23 -26q-27 -25 -57 -51t-62 -50q-6 -4 -19.5 -12.5t-30.5 -17.5t-33.5 -15.5t-26.5 -6.5h-23q-23 0 -46 8t-40 25q-3 0 -6.5 -1t2.5 -6q-35 28 -46 58t-19 56q-2 8 -1 21.5t1 26.5q0 5 -1.5 10.5
t-1.5 9.5q0 5 1 11.5t2 12.5q2 6 0.5 12t-0.5 12q15 60 41.5 125t62.5 125v8q14 21 29 45.5t32 48.5q-3 2 -5 2h-5q6 8 14 17t15.5 18t14.5 16.5t11 11.5q4 8 10.5 15.5t14 12.5t13.5 10.5t8 12.5q10 10 21 10.5t21 3.5q2 1 1.5 3.5t4.5 2.5t3 -1.5t3 -1.5t3.5 2.5t3.5 2.5
t14.5 -4t15.5 -8q3 2 3 3.5t2 3.5q16 -6 33 -16t31.5 -22.5t24 -27t9.5 -30.5q0 -15 -6.5 -31.5t-15.5 -25.5q-3 -3 -6.5 -11.5t-9.5 -8.5q-5 0 -3.5 1.5t-1.5 3.5q-6 -8 -11.5 -16.5t-11.5 -18.5q-2 0 -4 2.5t-6 2.5q-5 0 -4.5 -2.5t0.5 -4.5q-4 0 -8 5q-6 0 -7.5 -3
t-1.5 -9l-4 6t-2 9q0 14 6.5 24.5t16.5 29.5q7 17 13 37t6 25q0 8 -4.5 14t-10.5 6q-4 0 -13 -4t-15 -7q-28 -9 -45 -30t-41 -48q-6 -7 -10.5 -17t-10.5 -20q-3 -7 -10.5 -16t-13.5 -20q-1 -2 -1.5 -6t-3.5 -6q-2 -4 -7 -8.5t-7 -8.5q-7 -13 -17.5 -33t-21.5 -41.5
t-21.5 -42.5t-17.5 -36q-6 -12 -13 -31.5t-13 -39.5q-2 -5 -2 -13.5t-2 -14.5l-4 -14t-3 -15q-1 -9 -3 -21.5t-3 -25.5t-2 -22t-1 -11q0 -28 7.5 -44t38.5 -16h20q5 0 5.5 2.5t3.5 3.5q23 12 47 20t44 28q0 1 -1 2h5q4 0 10 7.5t12 10.5v2q0 1 -1 2q-3 -4 -7.5 -5t-7.5 -3
q13 8 25 20t25 22q13 1 25.5 17t21.5 28q-1 1 -7 1q-5 0 -10.5 -3t-12.5 -5q-5 -2 -14.5 -3t-15.5 -3q-9 -4 -19.5 -8t-21.5 -9t-18.5 -8t-10.5 -3t-16.5 9t-21.5 14q-4 4 -6 9q5 6 0 16.5t-11 13.5q2 8 12 15q13 6 30 14t22 8q4 0 3.5 -2.5t4.5 -2.5q2 0 10 4t16.5 9.5
t15.5 10.5t10 5q4 0 3 -1.5t4 -1.5q8 0 19.5 6t13.5 8q10 3 25.5 6.5t20.5 3.5t6.5 -1t6.5 -1t26 -1t37 -7q3 -3 10.5 -7.5t11.5 -7.5q9 -6 17.5 -18.5t8.5 -17.5zM202 635l-4 1l-2 -6l4 -2zM197 626l-2 3l-6 -6l2 -3zM304 158l-2 3l-14 -10l3 -3zM287 144l-2 2l-9 -7l3 -3z
" />
    <glyph glyph-name="H" unicode="H" horiz-adv-x="502" 
d="M550 686q0 -5 -6 -27.5t-10 -39.5q-6 -22 -19 -54q-3 -9 -7.5 -35t-10.5 -46q-2 -9 -7.5 -21.5t-9.5 -24.5q-1 -5 -3.5 -13t-6.5 -14v-20q18 3 36 0q-3 -10 1.5 -18.5t17.5 -6.5q-3 -2 -6.5 -3t-5.5 -3q3 -8 17 -8q-10 -3 -21.5 -9t-16.5 -6q-4 0 -4 1t-2 1q-1 -1 -3 -6
q1 -2 0 -4.5t1 -2.5q-6 1 -11 -4.5t-7 -7.5t-7 -3.5t-7 -6.5q-8 -19 -12 -38t-6 -38q-3 -17 -7 -47t-10 -65.5t-12 -72.5t-10 -70q-16 -4 -22 -11v4.5t-2 4.5q-3 -2 -1 -9q0 2 0.5 3t-4.5 1t-3.5 -2t-3.5 -2t-14 7t-11 13q1 4 -1.5 6t-2.5 7q0 4 2.5 8t2.5 8v35
q0 13 -0.5 29t0.5 29q1 6 3.5 14.5t2.5 17.5v6t-4 6q7 16 6 35t1 35q2 12 5 29t3 21q0 3 0.5 14.5t-8.5 10.5l-177 -31q-1 -1 -1 -4q0 -1 1 -1q-5 -7 -7 -23q-11 -41 -23 -92t-15 -97q0 -2 -2 -5t-2 -7q0 -6 10 -11q0 -3 -2.5 -8.5t-2.5 -7.5q1 -4 4 -8t3 -8q0 -5 -3 -12
t-5 -14q-5 3 -13.5 6t-13.5 3t-3 -1t-3 -1t-11.5 8.5t-13 19t-10.5 20t-4 12.5q0 13 -1.5 30.5t-1.5 22.5q0 1 1.5 11t3 22.5t3 26l2.5 22.5q2 17 7.5 35.5t9.5 36.5l-26 13t-28 16q-3 5 -6 19.5t-11 15.5v8q3 2 7 7t10 8q16 6 35.5 10.5t39.5 10.5q7 24 13 46.5t12 52.5
q12 53 25.5 116.5t24.5 117.5q1 6 0.5 14.5t0.5 15.5q-1 0 -1 1q-2 1 -2 1.5t-1 2.5q3 2 4 5t6 3t3.5 -1t3.5 -1t4.5 2t-0.5 5q2 -3 7.5 -2t11.5 1q3 0 7 -3t8 -3q5 0 3.5 1t2.5 1q8 0 14 -6t10 -13t7 -14l3 -7q0 -2 -0.5 -13t-2.5 -24.5t-3.5 -28t-4.5 -22.5q-1 -2 3 -8
q-5 -14 -14.5 -49t-19.5 -71.5t-17 -65t-7 -31.5q0 -5 -0.5 -4t1.5 -2q22 5 47.5 8.5t49.5 6.5q17 2 35 4.5t39 5.5l2 1l2 2q5 21 9.5 44t8.5 43q2 18 8 45t14 57t16.5 59t25.5 54q1 3 4 7l6 8q2 6 7.5 14t4.5 14q2 -2 5.5 -4t6.5 -5q7 2 10 4.5t6 9.5q3 -5 6 -7t0 -6
q6 -4 16 1q7 -9 15.5 -23.5t8.5 -19.5zM503 364q-3 4 -9 4v-10q2 0 5.5 2t3.5 4z" />
    <glyph glyph-name="I" unicode="I" horiz-adv-x="441" 
d="M162 653h-11v4h11v-4zM549 627q-6 -2 -10.5 -8t-8.5 -6q-5 0 -3 1.5t-3 1.5q-4 0 -6.5 -3.5t-6.5 -3.5q-32 0 -67.5 -4t-70.5 -10l-2 -1l-3 -2q-2 -20 -6 -35.5t-9 -29.5t-11 -30t-12 -38q-3 -9 -7.5 -17t-7.5 -17q-1 -2 -1 -6.5t-2 -9.5q-20 -43 -29 -82t-22 -66
q-3 -8 -4 -17t-3 -18q0 -3 2 -3q-2 0 -2 -3t-3 -4q-4 -22 -9 -42.5t-10 -43.5q-3 -9 -5.5 -21t-2.5 -17v-18q10 0 23.5 1t16.5 1l175 -15h-1q-2 0 -4 -2q0 -4 9 -4q2 0 5.5 -0.5t5.5 -0.5v-9q-2 -3 -6.5 -3.5t-13.5 -3.5q4 -2 7 -4t7 -5h-5t-4 -2q0 -9 -9 -16q-5 -2 -14 -4
t-13 -2q-5 0 -4 -2.5t-3 -2.5q-5 0 -1.5 2.5t-0.5 2.5q-5 0 -4 -1.5t0 -3.5q-14 0 -31 -1t-32 -3q-26 -3 -51.5 -3.5t-52.5 -1.5q-4 0 -7 -3.5t-3 -7.5q0 -5 4.5 -21t4.5 -21q0 -4 -4 -8t-8 -10q-3 0 -6.5 1.5t-7.5 1.5q-5 9 -7 12q-7 3 -11.5 10t-8.5 14t-6.5 14t-6.5 10
q-32 5 -61.5 5.5t-59.5 13.5q-19 12 -29 34q-3 2 -2.5 7.5t2.5 10.5h-3q-1 0 -1 5q0 4 2.5 9t3.5 11q3 2 15.5 5t20.5 3q3 0 10.5 -4t15.5 -2q22 -7 44.5 -5t41.5 1l1 2l21 142q4 10 5 21.5t8 24.5q0 3 -1 5t-2 2q8 14 10 30.5t6 28.5v1q0 1 -3 4l71 240q-3 3 -13 3
q-5 0 -7 -2.5t-7 -4.5q-3 -1 -10.5 -1.5t-12.5 -0.5q-4 0 -8.5 1t-8.5 1q-5 0 -16.5 -3.5t-15.5 -3.5t-13 5.5t-16 10.5q-9 9 -12 26t-8 28q2 2 9.5 2.5t9.5 8.5h6.5h7.5h9t-1 5q1 0 2 2t6 2q4 0 7.5 -1t12.5 -2q3 1 0.5 2l-2.5 1h5t13 -2q4 3 -2 3q6 0 14 -0.5t15 -0.5
q6 1 12.5 3t14.5 2q2 4 -2 4q6 -3 11.5 -2.5t9.5 0.5q5 0 20 3.5t31 5.5q13 0 34.5 1.5t39.5 1.5q4 0 11.5 0.5t12.5 0.5q3 0 12.5 -0.5t23 -2t29 -4t26.5 -4.5q4 -2 10.5 -7t10.5 -7q1 -3 2 -7.5t4 -9.5v-8z" />
    <glyph glyph-name="J" unicode="J" horiz-adv-x="509" 
d="M490 574q0 -4 -2 -15.5t-2 -20.5q0 -3 -2 -12q1 -3 1 -4t1 -3q-2 -8 -3.5 -16t-3.5 -18q1 -2 3.5 -7.5t-2.5 -9.5q-2 -21 -4 -69t-6 -74q-2 -2 -2.5 -13t-2.5 -17q0 -18 -6.5 -86.5t-11 -93t-10 -44.5t-13.5 -44q-10 -30 -22 -62t-32 -68v-4.5t-2 -4.5q-7 -15 -17 -31.5
t-26 -27.5q-6 -4 -14.5 -7.5t-11.5 -3.5q-5 0 -4.5 2.5t-4.5 2.5q-4 0 -7 -2.5t-8 -2.5t-8.5 2t-7.5 3q-37 4 -75 22t-71.5 46t-59 62t-39.5 69q-3 10 -8.5 20.5t-5.5 15.5v57q0 3 8 11.5t11 14.5q4 8 10 18t17 16q-5 -3 -7.5 -8.5t-4.5 -8.5v-1q0 -2 1 -3q6 7 13.5 17
t16.5 18q5 5 11 6.5t12 5.5v-14.5t7 -11.5q-6 -4 -5 -9.5t-1 -10.5q-1 -3 -5.5 -6.5t-5.5 -9.5q2 -3 7.5 -1t9.5 4q-3 -2 -7.5 -8.5t-9 -15t-8 -17t-3.5 -13.5t2.5 -4t3.5 -2q-2 -5 -3.5 -12.5t3.5 -7.5q4 0 3.5 1t1.5 1q-6 -24 3 -52t37 -52h1q7 -13 19.5 -21.5t27 -13
t29 -6t25.5 -1.5q27 0 46.5 16t32.5 39t22.5 48t18.5 42q2 5 4.5 14t5 23t4.5 25.5t4 20.5q0 2 2 5t4 7q4 18 9 74.5t7 75.5q2 4 0.5 10t2.5 33q1 4 0.5 10t0.5 12q2 2 3 6.5t2 6.5q4 97 12 163t13 120q4 0 7 1t8 1q3 0 8.5 -6t10.5 -7q6 -6 13 -13.5t16 -14.5
q4 -14 8.5 -32.5t4.5 -23.5z" />
    <glyph glyph-name="K" unicode="K" horiz-adv-x="516" 
d="M571 548q0 -8 -9.5 -14t-20.5 -10t-22.5 -7.5t-14.5 -4.5q-48 -22 -68 -33.5t-36 -22.5q-15 -8 -38.5 -19.5t-52.5 -27.5t-61.5 -34t-64.5 -35q-5 -3 -14 -9t-9 -14q0 -5 10.5 -13.5t23 -17t23.5 -15t14 -8.5q17 -11 38.5 -27t45.5 -33q6 -5 17 -10.5t18 -10.5
q25 -17 49 -37.5t48 -44.5t43.5 -51t24.5 -52q-4 0 -7 -2.5t-8 -2.5q-3 0 -7 2.5t-9 2.5h-14t-13 3q-18 16 -33 35t-36 36q-48 50 -115.5 95.5t-134.5 85.5q-2 -2 -5 -9t-5 -12q-3 0 -5 -3q-11 -45 -26.5 -98.5t-15.5 -112.5v-9t2 -10q3 -2 8 -7t5 -10t-2.5 -12.5
t-6.5 -13.5q-6 3 -15.5 3t-19.5 4q-6 3 -16 13.5t-16 19.5q0 1 -1.5 4.5t-1.5 7.5q-6 4 -8.5 12.5t-4.5 20t-2 22v18.5q0 30 7.5 66.5t17 70t17 57.5t7.5 31q0 3 -4 6.5t-7 5.5q0 1 0.5 5t1 7.5t-1.5 7t-8 3.5q3 5 0.5 12.5t-2.5 14.5q10 6 27.5 11t22.5 19
q25 60 31.5 107.5t25.5 111.5q4 13 7.5 31.5t9.5 28.5q2 3 -0.5 5.5t-2.5 4.5q7 14 10 37t7 39h14q6 0 1 5q10 -3 14 0t7 3q5 0 14.5 -5t17.5 -5q6 -11 12 -27.5t6 -21.5q0 -4 -2.5 -12t-2.5 -14q3 -33 -2.5 -58t-13.5 -51q-10 -36 -14 -56t-16 -57l7 -6q6 11 25 20
q15 10 36 20.5t42 20.5q58 29 86 45.5t52 26.5q5 2 15.5 10t19.5 8q4 0 11.5 -3.5t12.5 -3.5t6 2.5t6 2.5q2 0 8.5 -4.5t13.5 -10.5t13.5 -12.5t7.5 -10.5q1 -2 3.5 -9t2.5 -11z" />
    <glyph glyph-name="L" unicode="L" horiz-adv-x="391" 
d="M453 84q-3 -2 -8 -5t-11 -9q0 -6 5 -6q-11 -4 -25 -12.5t-18 -8.5q-5 0 -4 1.5t-4 1.5q-2 0 -8.5 -2t-15.5 -4.5l-18 -5t-15 -3.5q-52 -5 -103.5 -18t-97.5 -13q-2 0 -9 0.5t-17.5 2t-21 4.5t-18.5 6q-9 5 -23 19.5t-22 27.5q-6 10 -8.5 22.5t-4.5 23.5q-2 2 -3 6t-1 9
q0 18 7 43.5t17 51.5t20 51t16 41q7 22 14.5 48t16.5 50l3 6t3 8q10 35 24.5 80.5t18.5 87.5q5 8 7 18t3 19q2 13 6 28t6 29q1 4 1 11.5v13.5h15q8 0 12 -1q32 -14 39 -35t7 -39q0 -4 -1.5 -11.5t-1.5 -12.5q-3 -25 -5 -39.5t-7 -30.5q-10 -35 -17 -64.5t-14.5 -58.5
t-15.5 -57.5t-20 -61.5q-16 -42 -33.5 -93.5t-32.5 -101.5v-6l206 19h88q3 0 21 3t29 4v-1q4 -4 7.5 -10t8.5 -9q1 -4 1 -8.5t2 -8.5z" />
    <glyph glyph-name="M" unicode="M" horiz-adv-x="767" 
d="M310 38h-3l-3 6l3 1zM12 48l-2 -4l-6 2l2 4zM663 675q-5 -9 -5 -19q-2 2 -4 1.5t-4 -0.5q2 3 6.5 9t6.5 9zM651 654q-3 -6 -7.5 -11.5t-6.5 -11.5q-1 0 -3 1q-1 0 -3 2q6 4 11.5 10t8.5 10zM627 618l-3 -6l-4 1l4 6zM609 597q0 -2 -0.5 -5.5t-2.5 -6.5v4q0 5 3 8z
M670 507q-3 -3 -6 -8.5t-9 -11.5q5 13 15 20zM654 487q0 -3 -1.5 -5t-4.5 -2zM664 430h-3v6h3v-6zM564 523q0 -4 -1.5 -5t-1.5 -4q-5 5 -5 8h2q1 0 3 -3l1 1q2 2 2 3zM549 483l-3 -6l-4 1l4 6zM540 483q0 -2 -4 -7.5t-5 -10.5q-1 0 -2 1q-1 0 -1 1t-2 1q-1 0 -1 1q3 2 9 7
t6 7zM518 445l-6 -6l-2 2l6 6zM511 432l-3 -8l-3 3l2 6zM469 361l-11 -25l-2 1l9 24h4zM792 616q0 -6 -2 -16t-4 -19.5t-3.5 -17.5t-1.5 -9q-1 -5 -1 -12t-3 -12l-3 -6t-3 -7q0 -1 1 -1q0 -2 3 -2q-3 -2 -4.5 -6t-4.5 -9q-14 -61 -28.5 -123.5t-27.5 -125.5q0 5 -2 8
q-3 -6 -1.5 -11t1.5 -11v1q0 1 -3 4q0 -7 -2.5 -11t0.5 -11l1 1q1 2 1 3q0 -3 -1.5 -6t0.5 -7q-1 0 -1 1q-1 1 -1 1.5t-2 1.5q-3 -12 -4.5 -26t-3.5 -31q0 -1 0.5 -2.5t0.5 -7v-16t-1 -28.5q1 -13 3.5 -25t4.5 -24q3 -6 6 -11.5t3 -10.5v-14q0 -5 -6.5 -10.5t-11.5 -5.5
q-4 0 -6.5 1t-6.5 1t-9.5 4.5t-11.5 9.5q0 3 -1 6q-10 9 -18 24t-11 28q-3 11 -5 26t-3 29t-2 24t-1 13q0 2 1.5 11.5t2.5 20.5t2.5 20.5t1.5 11.5v11h2q2 0 4 1q4 18 1 19t-3 5t5.5 19t8.5 26t3 30q-6 0 -6 -9q-1 6 2 18t10 21q1 3 0.5 5.5t-0.5 7.5q-1 -1 3 -8
q2 2 1.5 2.5t-0.5 3.5q0 4 1.5 9.5t1.5 11.5q0 1 2 4t1 7l-1 1h-2q0 7 1.5 16l3 18t3 16t1.5 9q0 5 0.5 5.5t-1.5 2.5q-4 -3 -9.5 -6t-5.5 -6l-5 5q-2 -2 -2.5 -4t-3.5 -4q0 -4 4 -4q-1 -3 -3.5 -9t-6.5 -12q0 2 1 4t1 5q-10 -5 -15 -15t-8 -17q-3 -5 -8 -10t-7 -8
q-1 -5 -5.5 -14.5t-8.5 -16.5q-2 -5 -1.5 -11t-2.5 -11q-15 -31 -32 -62.5t-34 -62.5l-5 -5t-5 -7q-14 -24 -25 -51t-25 -48q-8 -15 -14 -31.5t-11.5 -34t-11.5 -33t-15 -29.5q-3 -2 -14.5 -4t-17.5 -2q-3 0 -5.5 5t-6.5 7q-16 8 -27.5 20t-12.5 26q-2 2 -4 3.5t-4 3.5
q-2 10 -1.5 21.5t-0.5 21.5q-2 8 -4 18.5t-2 15.5q0 4 2.5 5t3.5 3q-1 6 0 12t1 12l5 5q-8 13 -6.5 31t-0.5 35l2 159q0 4 -1 3t-2 1q-2 4 0.5 9t2.5 8q0 7 -3 14t-5 14q-1 5 0 11.5t1 12.5q0 18 -1 35.5t-5 33.5q-11 -8 -17 -25q-32 -77 -70 -166t-67 -173q-6 -16 -13 -32
t-12 -32q-9 -30 -16.5 -61t-14.5 -63q-2 -4 -2 -14.5t-8 -16.5q-2 0 -6 -4.5t-9 -4.5t-10 1t-11 -1q-3 9 -11.5 17.5t-15.5 20.5q-4 6 -4 14t3 15l-9 8q-2 5 1.5 7.5t-4.5 8.5q3 2 5 6.5t3 6.5q1 1 3.5 2.5t4.5 3.5q-2 4 -1 7t-5 3q-4 0 -3 0.5t-1 -2.5l6 6q2 6 0 14t1 14
q9 36 23.5 72.5t29.5 71.5q1 4 5 10.5t9 13.5q0 1 -0.5 5.5t0.5 6.5q2 12 11 26t6 27q5 0 8 -4q1 -1 0.5 -3.5t2.5 -4.5q3 2 3.5 6.5t3.5 7.5q-4 -11 -7 -23.5t-9 -23.5v-1q0 -1 1 -1q3 1 5 6q10 24 20 47.5t21 50.5v2q0 1 -1 2q-7 -7 -11 -18.5t-10 -23.5h-1q-1 0 -3 2
l-4.5 -3t-4.5 -4q0 -7 -3 -14q-2 0 -3 1q-1 0 -1.5 0.5t-1.5 0.5q6 15 14 36t16 31q3 6 6 17.5t6 17.5q1 1 2.5 3.5t4.5 2.5q-3 -3 -5 -10t-4 -10q-1 -3 0.5 -4t1.5 -2q-2 -6 -5.5 -11.5t-5.5 -7.5q0 -3 0.5 -4.5t0.5 -4.5q-5 5 -7 5q0 -8 -1.5 -18t-3.5 -22q6 12 12 26
l12 28q0 -2 -1 -4t-1 -4l3 -4q3 4 4.5 8t4.5 8q-5 5 -9 1q0 1 1 3q0 1 1 2t1 2h1q1 0 3 -2l113 226l-3 3l-9 -7q3 4 5 7t2 4q0 -1 2 -1h3q3 2 5 8t7 10l-3 2q-3 -2 -5.5 -3.5t-2.5 -3.5q0 2 1.5 2t-1.5 3q-4 -3 -6.5 -9t-8.5 -9v-2q0 -1 1 -2q-6 -10 -14.5 -23.5
t-15.5 -24.5q0 -6 4 -11q0 1 -2 3q-13 -20 -19.5 -36.5t-22.5 -31.5q8 17 16 40t18 40q13 24 30 53t29 57q2 2 3.5 3t3.5 3q4 -1 4.5 -4t2.5 -6l5 5q4 0 7 -1t7 -1q3 2 1.5 4.5t-1.5 4.5q11 -8 17 -10.5t12 -13.5h4q2 3 1 4t-1 4q7 -4 12.5 -11t8.5 -15.5t4.5 -17t4.5 -14.5
q2 -13 6.5 -32.5t6.5 -33.5q1 -13 3 -31t3 -34.5t1.5 -29t0.5 -14.5v-83q0 -2 -0.5 -16.5t-1.5 -34.5t-2.5 -42t-2.5 -39l4 -4q9 3 9 12v-1q0 -1 3 -3q2 1 2.5 2.5t3.5 4.5q-3 -3 1 -10q2 5 8 11v10q0 2 -6.5 0t-0.5 -5q0 -1 -1 -1h-4q8 10 15.5 21.5t14.5 22.5
q-3 -7 -8 -16t-7 -18v-1q0 -1 1 -2q6 8 13 17.5t9 19.5q0 -5 2 -7q8 8 8 19l-4 -5q12 16 20 31q2 6 6.5 12t-1.5 10q6 4 10 11t8 13q13 18 26 36.5t25 37.5q10 17 20 36.5t19 38.5q1 2 4 2.5t5 4.5q9 13 18 25.5t17 24.5q6 10 9.5 21.5t9.5 20.5q4 3 12.5 9t10.5 19
q-2 0 -3.5 -1t-3.5 -1q2 4 11 9t7 16q0 -4 1 -5q3 4 6 6t3 6q0 2 -9 2q-5 0 -8 -5t-6 -9q3 11 11 24t18 25h8v-1q0 -1 -2 -4q4 -2 9 -1t11 -2q1 1 1 3v8q5 -3 10.5 -5.5t8.5 -4.5q5 -4 9 -6q3 0 8 -2.5l7 -3.5q3 -2 4 -6.5t4 -7.5q3 -5 7.5 -13t6.5 -15q4 -13 4 -30v-22z
M618 90h-4l-4 15h5zM186 500l-4 -7l-4 2l4 6zM193 498q-4 -9 -8.5 -19t-9.5 -21q2 4 1 8t1 8q-2 2 -5 0l-6 -4q2 8 6 13l5 5q0 4 -5 4q0 1 2 2q2 2 2 4v-8t2 -8q4 1 7.5 5.5t7.5 10.5zM403 232l-4 -6l-3 2l3 6zM393 211h-5v6h5v-6zM694 712q-2 0 -3 2q-1 0 -3 1q0 -5 -1 -11
t-1 -10q8 12 8 18zM573 544q0 -3 -1 -6.5t-1 -6.5q2 4 2 7.5v5.5zM549 498l-3 1l-4 -9l2 -2zM498 410q-6 -6 -14.5 -20.5t-9.5 -23.5q6 10 12 23t12 21zM450 325h-4l-2 -7l3 -2zM169 464l-3 4q0 -8 -3 -15q2 4 3.5 6.5t2.5 4.5zM115 338v8h-5v-8h5zM108 307h-4l-4 -9l4 -1z
M98 280l-4 2l-3 -6l3 -3zM96 254h-4l-5 -18h4z" />
    <glyph glyph-name="N" unicode="N" horiz-adv-x="543" 
d="M517 712l-3 -6l-4 1l4 6zM508 694l-4 -13h-4l4 13h4zM628 714q0 -2 -5 -11t-11 -22t-13 -27t-11 -25t-10 -28t-10 -31q-3 -4 -3.5 -11t-1.5 -13q-6 -18 -16.5 -45t-10.5 -47q0 -2 -1.5 -4.5l-4.5 -7.5q-8 -26 -10 -56q-5 -10 -9.5 -26t-4.5 -21q0 -4 -3 -17t-6 -24
q0 -1 3 -5q-2 -17 -7 -39.5t-8 -40.5q-3 -3 -3.5 -2t-2.5 -2q0 -1 1 -1q0 -1 2 -1q-1 -9 -2.5 -18t-5.5 -18q0 -1 4 -5q-6 -41 -10 -77t-7 -86q-5 -4 -11.5 -8t-11.5 -4h-25q-3 0 -7 2.5t-8 4.5q-13 7 -23.5 18t-20.5 20q-6 5 -11.5 14t-7.5 16q-6 16 -13.5 42t-16.5 46
q2 2 2 4q-6 6 -10 21t-7 23q2 2 0 6q-2 5 -4 5q-3 5 0 9q-8 22 -17.5 47t-15.5 46q-9 31 -19 64.5t-19 67.5q-1 2 -2.5 4t-4.5 4l-3 -1q-9 -42 -20.5 -88t-23.5 -85q-1 -3 -3.5 -7t-5.5 -6q-7 -19 -13 -40t-12 -40q-1 -2 -2 -2.5t-3 -2.5q-2 -10 -4.5 -17.5t-3.5 -18.5
q-2 -3 -3.5 -5t-2.5 -5q-7 -31 -16 -55.5t-7 -45.5q1 -6 0.5 -18t5.5 -14q-5 -5 -8 0q-3 -4 -4 -7.5t-6 -3.5t-10 -1t-10 -1q-4 0 -7.5 4t-8.5 4q-3 0 -2.5 0t-2.5 -2q-4 9 -11.5 20.5t-15.5 24.5q3 4 2 6q-1 6 -3.5 16.5t-2.5 13.5q0 5 3 17t6 19q2 10 2.5 21t3.5 23
q14 51 29 103.5t32 103.5v15q9 40 20.5 80.5t22.5 82.5q6 20 14 48.5t15 52.5q1 4 1.5 9.5t-0.5 10.5q-1 4 -0.5 9t-0.5 11q7 20 16 27.5t17 13.5l9 -2q9 9 15 9q5 0 8.5 -2t7.5 -5q5 -1 10.5 -1t11.5 -2q6 -3 12 -10t9 -13q1 -4 0 -10t0 -9q0 -12 -1.5 -22.5t-3.5 -21.5
q-2 -9 4 -20t8 -22v-7.5t2 -8.5q9 -32 20 -65.5t20 -65.5q11 -41 25 -93t27 -96q1 -2 4 -5.5t6 -7.5q7 6 8 13.5t4 15.5q-3 -8 -4 -17t1 -19q6 24 11 47.5t12 43.5l56 233q6 17 12 23.5t4 18.5q7 13 11.5 33.5t13.5 27.5q5 17 11.5 34t13.5 35q-2 2 -4 1t-2 -4q0 6 5 11
q0 -5 3 -7q3 3 3 11q0 10 -6 14q9 -2 17 -1t18 -1q4 3 4 6q-3 4 -10 1l10 2q6 -3 10 -2t9 -7q2 0 4 2t4 5q4 -7 4 -15q3 -2 5.5 -4.5t6.5 -3.5q0 -7 3 -10t6 -5.5t5.5 -5t2.5 -7.5zM74 322q0 5 -1.5 5t-1.5 2q0 -9 -2.5 -18t-4.5 -18q3 7 6.5 15.5t3.5 13.5zM61 288
q-3 -9 -5 -20t-4 -20q3 9 5 20t4 20zM32 179h-3l-3 -11h4zM25 140q0 3 -0.5 7.5t-0.5 7.5q-2 -6 -4 -11.5t-2 -8.5zM20 126l-2 2l-4 -6l4 -2z" />
    <glyph glyph-name="O" unicode="O" horiz-adv-x="486" 
d="M519 425q-3 -7 -6 -18t-11 -14q6 -6 4 -10q-17 -47 -41 -94t-50 -90.5t-55 -81.5t-58 -67q-5 -6 -12.5 -10t-13.5 -7q-2 -2 -5 -7t-8 -7q-16 -11 -25 -16.5t-17 -8.5t-16 -3.5t-22 -0.5h-38q-4 0 -9 3.5t-11 8.5q-4 2 -11 3.5t-12 6.5q-12 10 -24.5 22t-24.5 27
q-7 10 -13.5 21.5t-12.5 21.5q-5 16 -11.5 34t-8.5 35q-3 15 -4 36t-1 26q0 3 1 25t4 49q2 11 6.5 29t10.5 34q2 4 2 10.5t3 12.5q5 17 12.5 35.5t12.5 36.5q7 5 13 23q3 12 14 34t27 49t35 55t39 50.5t39.5 37.5t35.5 15q5 0 16 -5t16 -5q3 0 10 3.5t13 3.5q3 0 11 -1.5
t16 -3.5q6 -3 14.5 -3t14.5 -1q13 -3 25 -9.5t23 -13.5q15 -10 25.5 -21t21.5 -21q0 -2 -0.5 -6t1.5 -6q6 -10 14 -23t16 -23q3 -13 7 -27.5t7 -28.5q5 -15 5 -33.5t-3 -34.5q2 -2 3 -5t1 -7q-1 -9 -6.5 -18.5t5.5 -21.5q4 5 6 5zM448 511q-1 0 -7 6q0 16 -2.5 37t-5.5 38
q0 1 -4 12.5t-10.5 24t-16 23.5t-19.5 11q-19 0 -31 -8.5t-37 -27.5q-5 -3 -10 -5t-7 -3q-11 -9 -20 -22.5t-22 -21.5q-3 -2 -3.5 -5.5t-3.5 -6.5q-3 2 -4.5 4t-4.5 0q-3 -5 -6.5 -10t-8.5 -5q-4 0 -2 1.5t-2 1.5q-5 0 -5 -3.5t-5 -3.5q-4 0 -3 2t-3 2q-5 0 -11 -9.5
t-10 -16.5v-9q-6 -15 -11.5 -27.5t-11.5 -24.5q-5 -11 -9 -25.5t-8 -23.5q-4 -10 -10 -19t-9 -18q-7 -20 -10.5 -41t-8.5 -41q-6 -19 -9.5 -43.5t-5.5 -40.5q-1 -6 -2 -16t-1 -14q0 -10 2.5 -29.5t7 -40.5t11 -37.5t14.5 -21.5q21 -1 45.5 14.5t48.5 38t46.5 48t38.5 44.5
q5 6 5.5 13t4.5 9q5 6 9.5 10t8.5 10q2 4 2.5 10t3.5 9q1 5 7 7.5t12 4.5q0 2 -1 4.5t0 4.5q20 38 41.5 79t35.5 84q1 6 3 15t3.5 19t4 18.5t6.5 14.5z" />
    <glyph glyph-name="P" unicode="P" horiz-adv-x="403" 
d="M462 503q0 -5 -3 -18t-6 -24q-2 -4 0 -7q-9 -32 -32 -71t-55 -69q-39 -34 -82.5 -62.5t-72.5 -39.5q-5 -2 -13.5 0t-13.5 2q-6 0 -15 -4.5t-13 -4.5q-10 0 -12 5v2q-6 -3 -8.5 -8.5t-3.5 -10.5q-5 -12 -8 -31t-9 -37q-3 -10 -10 -25t-9 -27q-3 -18 -4 -34t-14 -39
l-4.5 -6l-4.5 -6q-2 0 -4 -1t-7 -1q-3 0 -6.5 3t-7.5 3q-5 0 -6 -2t-4 -2q-2 4 -2.5 8.5t-5.5 4.5t-4.5 -0.5t-1.5 -0.5q0 2 1 1.5t1 4.5t-6 11.5t-12 16.5q2 3 0.5 5.5t-1.5 7.5q0 7 3.5 16t8 18l8.5 17t5 14q12 46 25.5 92t24.5 91q19 79 39.5 159.5t40.5 159.5q2 10 3 25
t3 29q-24 10 -33 36.5t-7 45.5q4 2 8 4.5t8 3.5q14 5 36 5.5t26 0.5q5 0 3.5 -1t0.5 -2q12 0 29 -8t30 -14q2 -2 9.5 -4t10.5 -4q37 -24 69.5 -50.5t56 -55.5t37.5 -59.5t14 -62.5zM388 564q0 13 -16 32.5t-38 37.5t-45.5 30.5t-39.5 12.5q-2 0 -0.5 1t-2.5 1t-7.5 -1
t-6.5 -1v-12q0 -6 4.5 -21t3.5 -25q-3 -24 -7 -48.5t-8 -44.5q-8 -35 -18.5 -74t-16.5 -64q-3 -17 -10.5 -40.5t-8.5 -40.5q7 0 17 2.5t16 4.5q-3 5 -1.5 8t5 5t7.5 3.5t7 4.5l1 -3v-1q-3 -2 -0.5 -2.5t5.5 -0.5q4 3 14 11t12 11q-1 0 -1.5 -0.5t-2.5 -0.5h-2q-2 3 -0.5 3
t1.5 2q27 13 52 37.5t44 54t31 60t12 58.5z" />
    <glyph glyph-name="Q" unicode="Q" horiz-adv-x="489" 
d="M507 456q0 -11 -8.5 -36t-18.5 -51.5t-20 -47t-11 -22.5q-6 -9 -14.5 -21t-16.5 -24.5t-15.5 -23t-10.5 -18.5q0 5 -3 8q-3 -4 -6 -6.5t-3 -7.5q0 -4 1 -5.5t3 -6.5q-2 -6 -1 -12q6 -24 11.5 -53t7.5 -57q0 -5 3 -12t6 -15.5t4.5 -16.5t-2.5 -14q5 -7 8.5 -20t7.5 -26
q-5 -6 -3 -14t4 -14q0 -6 -5 -10t4 -14q-6 2 -12.5 7.5t-10.5 10.5q-7 10 -15 25t-15 31t-13.5 32t-10.5 28q-6 22 -15 42.5t-16 41.5q-6 -4 -9.5 -9.5t-8.5 -11.5q-7 -6 -17.5 -14.5t-19.5 -18.5q-2 -1 -2 -5t-2 -7q-5 -3 -10.5 -8t-11.5 -8l4 6q-4 2 -5.5 -1t-4.5 -4
q-6 -6 -13.5 -14.5t-14.5 -14.5q-3 -1 -11.5 -5.5t-18.5 -9t-19.5 -8t-14.5 -3.5q-4 0 -17 1t-26 1q-29 10 -48 30t-30 44t-15 47.5t-4 40.5q0 65 20 122.5t53 124.5v5q2 6 7.5 12.5t7.5 11.5q3 4 3.5 8t0.5 6q6 3 11 8q-3 2 -4 1.5t-3 -0.5q13 20 24.5 41t24.5 33q1 3 2 5
t0 5q3 2 7.5 6.5l7.5 7.5q13 24 39.5 56.5t57 61.5t60 49t48.5 20q5 0 4 -2t4 -2t4 2t3 2t9.5 -3.5t10.5 -3.5q4 0 2.5 1.5t3.5 1.5q10 0 21.5 -5t21 -11t17 -11t9.5 -6q3 -2 7 -5.5t4 -8.5t-2.5 -4.5t0.5 -8.5v-4v-2q-4 -3 -10 -3t-10 -3q-12 -12 -24.5 -28.5t-24.5 -33.5
q3 3 3 9q-3 2 -5.5 1t-4.5 -1q4 13 13 31.5t9 23.5v8q-3 3 -11 3q-6 0 -18 -6.5t-24 -14.5t-22.5 -16t-12.5 -10q2 -2 9.5 -5t14.5 -3l56 -40q41 -25 61 -60.5t20 -71.5zM426 460q0 9 -3 22.5t-6.5 26.5t-7.5 24.5t-8 17.5q-9 18 -32 32.5t-39 14.5q-4 0 -13 -8.5t-17 -15.5
q-2 2 -4.5 3t-2.5 4q-2 -4 -7 -5.5t-5 -3.5q-6 -6 -11.5 -12.5t-7.5 -11.5q-10 -25 -29 -47.5t-33 -55.5q0 -2 -2.5 -2.5t-3.5 -2.5q-40 -70 -70 -134.5t-36 -129.5q-1 -2 -2.5 -4.5t-3.5 -4.5v-66q0 -5 2.5 -17.5l4.5 -22.5q4 0 7 -1t6 -1q5 0 4 1t1 2q23 6 46.5 23.5
t54.5 42.5q11 9 20.5 18.5l14.5 14.5q2 2 2 5t3 6q1 -2 3 -2h3q-4 4 0 8q7 8 16 17.5t16 19.5q2 -3 4 -3h1v4q-1 4 2.5 8.5t3.5 9.5q0 1 -3 13.5t-6.5 29.5t-8 35t-5.5 31q-1 12 -2.5 25.5t-2 24.5t-1 19t-0.5 10q0 6 4 16.5t20 10.5h10.5t7.5 -3q0 3 1 4q0 1 1 1
q12 -9 26 -18t24 -20q3 -4 5 -9.5t5 -8.5q-2 -3 -7 -18t-5 -21q0 -4 2.5 -11.5t6.5 -12.5q2 3 6.5 10t10.5 12q7 17 15.5 33.5t14.5 36.5q2 8 6 20t4 16z" />
    <glyph glyph-name="R" unicode="R" horiz-adv-x="450" 
d="M543 13q0 -3 -3.5 -4.5t-2.5 -2.5q-1 -1 -4 -3.5t-8 -2.5h-21q-5 0 -19 3.5t-26 7.5q-5 1 -11 1t-10 2q-57 23 -117 68t-117 104q-16 17 -43 38t-51 40q-2 0 -3 -2t-3 -4q-6 -29 -11 -57t-9 -56q-2 -6 -3 -10.5t-3 -10.5q1 -6 1 -11v-11q0 -10 -3.5 -19.5t-6.5 -17.5
q-3 -15 0.5 -31t0.5 -32q-9 -7 -18 -7q-6 0 -16 11q-3 2 -10.5 6t-10.5 10q-6 12 -9.5 28t-3.5 21q0 38 6.5 89.5t17 104t21 99t17.5 76.5l9.5 28.5t14.5 43t17 48t16 45.5q-10 3 -20 4.5t-20 7.5q-7 6 -8 15t-11 11v1q0 2 -2 4q0 2 2 4.5t2 5.5q3 6 2.5 10.5t0.5 10.5
q7 6 13 12.5t12 12.5q5 4 12.5 6.5t13.5 3.5q3 0 4 3.5t5 3.5q8 1 20 3t23 3t19.5 2t10.5 1q19 0 47.5 -7.5t57 -19t52.5 -24.5t34 -25q1 -2 2 -4.5t1 -5.5q17 -15 25 -30t14 -32l4 -8t3 -11q0 -4 -2 -11t-4 -13q-2 -10 -7.5 -22.5t-11.5 -22.5q-4 -6 -11 -12t-12 -12
q0 -1 -2 -5t-4 -7q-7 -6 -13 -12.5t-13 -12.5q-14 -13 -34 -29t-37 -28l-31.5 -21t-33.5 -21q-7 -5 -19 -8.5t-22 -9.5q-2 -3 -5.5 -5.5t-7.5 -4.5q26 -25 56 -55t61.5 -60t65 -56t69.5 -41q13 -6 29.5 -13.5t32 -14.5t30 -15t24.5 -16q3 -3 4 -10t1 -12zM362 606
q-10 11 -26 21t-36 18t-41 12t-39 4q-4 0 -8 -1.5t-6 -1.5q4 -9 7.5 -19.5t3.5 -15.5t-0.5 -20.5t-3.5 -27.5q-5 -24 -15.5 -50.5t-16.5 -43.5q-7 -18 -14 -37t-13 -36q5 4 9 0q0 4 4.5 8t7.5 6q31 22 61 39t61 48v9q21 21 40.5 44.5t24.5 43.5z" />
    <glyph glyph-name="S" unicode="S" horiz-adv-x="386" 
d="M438 571q0 -3 -2 -16t-4 -21l-3.5 -7t-4.5 -11q-4 0 -9 5q-2 -3 -4 -4.5t-4 -4.5h1q0 2 1 3v1q0 1 -1 2q-6 -2 -9.5 -5t-7.5 -7v5.5t-1 4.5q-5 2 -12 9t-12 13q-1 2 -1 3t-1 4q1 3 1 8t2 9h-2q-3 0 -3 3v10t2 11q1 1 2 0.5t2 1.5l3 5q-1 2 0 1t1 4q0 7 -2 17.5t-5.5 22
t-8 20.5t-9.5 13q-7 6 -19 13t-16 7q-5 0 -3 -1t-3 -1t-6 2.5t-4 3.5q-1 1 -10 1q-4 0 -13 -5t-18.5 -11.5t-17.5 -12.5t-9 -8q-6 -10 -12 -22.5t-8 -23.5q-4 -9 -4 -19q0 -5 0.5 -20t3.5 -26q0 -4 4 -9.5t5 -11.5q3 -11 3.5 -26t9.5 -27q5 -16 11.5 -35.5t11.5 -36.5
q0 -2 2.5 -5t4.5 -7q6 -17 11 -32.5l10 -31t11.5 -33.5t15.5 -40q5 -9 9.5 -26.5t8 -37.5t6 -39t2.5 -34q0 -3 -2 -19.5t-6 -28.5q-1 -3 0.5 -6.5t-0.5 -7.5q-2 -10 -11 -22t-21 -20q-2 -2 -6.5 -7t-9.5 -9h-3.5t-4.5 -1q-11 -6 -27 -9.5t-27 -3.5h-22q-2 0 -10 2.5t-16 6
t-16 6t-10 2.5q-5 0 -2.5 -1.5t-2.5 -1.5q-3 0 -9 6t-8 10q-6 6 -22 14t-27 21q-10 11 -25 32t-18 36q-4 6 -7.5 15t-9.5 18q0 2 2.5 4.5t0.5 4.5q-1 3 -6 7q3 6 1 16.5t-2 17.5q0 4 -3 6t-3 7t1.5 6t1.5 4q2 0 2.5 -2.5t4.5 -4.5q0 7 -1.5 14.5t1.5 17.5q1 0 6 -8q3 8 1 17
t-5 17q3 0 2 2.5t4 2.5t4 -1t2 -1q0 5 2 9.5t2 10.5q0 -5 -1.5 -10t0.5 -11q1 -3 2 -2.5t2 -0.5q3 -2 2.5 -11t7.5 -10q1 -10 6 -22l5 5q0 -10 2.5 -22.5t6 -24.5t8 -21.5t8.5 -13.5q5 -5 11 -17.5t11 -12.5q4 0 2.5 1.5t-1.5 3.5q3 -7 15 -14.5t28 -13.5t32 -10t27 -4
q7 0 12 2l5 -4q2 2 9 4.5t11 4.5q6 4 13 11.5t10 16.5q2 6 2 12.5v12.5q0 5 -1 4.5t-1 0.5q1 6 1.5 13.5t-1.5 13.5q-6 20 -14.5 45t-18 52t-20.5 53.5t-22 49.5q0 2 -9 29.5t-19.5 63.5t-19.5 71.5t-9 53.5q0 2 1.5 22t4.5 33q2 13 11 32.5t19 36.5q0 2 -1.5 2.5t-1.5 3.5
q6 2 11.5 8t9.5 6q5 0 2 -2.5t1 -2.5q5 0 16.5 11.5t18.5 11.5q16 1 37 2.5t26 1.5q1 0 7.5 -2t14.5 -5t15.5 -6t12.5 -4q6 -3 16 -9t19 -7q17 -2 29.5 -21.5t21 -44.5t12.5 -50t4 -40z" />
    <glyph glyph-name="T" unicode="T" horiz-adv-x="399" 
d="M659 682q-7 -3 -18.5 -7t-21.5 -7.5t-18.5 -6t-10.5 -2.5q-5 0 -5 2.5t-4 2.5t-14 -5.5t-17 -5.5q-44 -5 -80.5 -10.5t-74.5 -16.5q-2 -16 -4 -36t-6 -39q-3 -7 -5.5 -18t-4.5 -19q-4 -17 -8 -32.5t-6 -31.5q-3 -17 -8.5 -38.5t-10 -45t-7.5 -45.5t-3 -39l-41 -275
q-7 -2 -11.5 -6.5l-7.5 -7.5l-5 5q-5 -5 -7.5 -10t-8.5 -5q-4 0 -18 11t-25 20q4 6 10 11.5t6 10.5q2 29 3.5 57t3.5 57q1 12 1 29.5t1 34.5q6 58 13.5 117.5t14.5 118.5l36 157h-16.5t-18.5 -1q-8 -1 -22.5 -3.5t-32 -5.5t-35.5 -6t-33 -4q-2 0 -5 0.5t-9 0.5l-4 -5
q-9 3 -21.5 0.5t-18.5 -2.5q-2 0 -9 3t-14.5 7t-14 9t-10.5 7q-8 7 -13.5 17t-10.5 19q-5 10 -5 22.5t-3 22.5q0 2 1.5 6t6.5 4t16.5 -2t14.5 -2q11 0 20 2t13 7l1 -1q0 -2 2 -2q6 -2 12.5 -2t12.5 -2l226 29q13 2 28 2h27v3q0 2 5 2h66t58.5 -2t63.5 -7t81 -15q-4 -4 1 -7
q1 -3 -8 -10q2 -2 4.5 -5t5.5 -4z" />
    <glyph glyph-name="U" unicode="U" horiz-adv-x="591" 
d="M609 598q0 -14 -4.5 -36t-10.5 -45t-12 -45t-8 -37q-2 -11 -8 -25t-4 -24q-7 -28 -10.5 -48t-7.5 -44q-2 -14 -5 -32t-5.5 -34t-5 -28t-2.5 -14v-60q0 -5 -2.5 -4t-2.5 -4q0 -16 5.5 -31t11.5 -24q7 -8 16.5 -13t17.5 -11q2 -8 13 -21q-3 -4 -3.5 -11t-5.5 -7h-10
q-2 -2 3 -6q-3 0 -6 -3t-7 -3q-5 0 -5 2t-5 2q-3 0 -21 10t-29 18q-6 4 -12 11t-10 11q-2 1 -4.5 3.5t-4.5 -0.5v3q0 1 2 3q-9 10 -14 27.5t-10 36.5q0 5 1 7q-1 5 -3.5 11t-2.5 11v154q-1 3 -0.5 3.5t-1.5 2.5q-29 -38 -58.5 -82t-61 -86.5t-67 -78t-76.5 -54.5q-3 -2 -7 0
q-4 -3 -13 -5t-18.5 -2.5t-19.5 -0.5h-15q-6 0 -12 4t-11.5 9.5t-11 10.5t-8.5 5q-4 0 -2 -1.5t-2 -1.5q-5 0 -17 14.5t-16 24.5q-5 7 -8 16q-1 3 -1.5 8.5t-2.5 11.5q-2 3 -3 6.5t-2 7.5q0 2 -0.5 7t-0.5 10q0 1 0.5 10t1 21t2.5 24.5t4 22.5q1 6 3.5 14.5t4.5 17.5v7
l54 178l75 178q9 4 12 15.5t9 21.5q3 2 7 6.5t5 10.5q2 6 2 12.5t2 13.5q0 -1 1 -1q1 -1 5 -1q5 0 4.5 -1.5t3.5 -1.5t6.5 3.5t5.5 3.5q5 0 4 -2t4 -2q4 0 4 1t5 1q15 0 20 -11.5t5 -17.5q0 -8 -4.5 -27.5t-10.5 -38.5t-11.5 -33t-6.5 -11q-1 -3 0.5 -4.5t0.5 -4.5
q-11 -32 -24 -64t-26 -63q-3 -6 -3.5 -16t-2.5 -17q-8 -22 -16 -43t-16 -43q-1 -3 -1.5 -10.5t-1.5 -13.5q-6 -16 -14.5 -35t-13.5 -37q-2 -12 -4 -28t-3 -31t-1.5 -26t-0.5 -13q0 -8 1 -15t12 -7q12 0 30 11.5t29 23.5q1 1 6 1q27 32 59.5 66.5t56.5 75.5q12 19 26.5 37
t28.5 36q1 0 1 4.5t3 6.5q11 14 23.5 31.5t21.5 34.5q5 8 11.5 21.5t14 26t14.5 23.5t13 14q-2 11 10.5 27t17.5 26q2 5 6.5 14t8.5 21t9 24t9 23q4 8 8 17.5t10 18.5q3 -2 6 0.5t8 2.5q4 0 2 -2.5t2 -2.5q5 0 4.5 1.5t-0.5 2.5q5 -2 12 -0.5t12 1.5q1 0 6.5 -4.5
t11.5 -11.5l12 -14t10 -11q1 -3 1 -8v-10z" />
    <glyph glyph-name="V" unicode="V" horiz-adv-x="333" 
d="M488 754l-20 -19l-3 2l21 19zM482 740l-6 -4v4l5 3zM455 719l-6 -6l-3 3l6 6zM438 700l-6 -6l-1 2l4 6zM381 629l-4 -8l-4 2l6 9zM501 720q-2 -9 -10.5 -15.5t-5.5 -14.5h1q1 0 1.5 1t1.5 1q-3 -4 -7 -2q-3 -7 -8 -14.5t-10 -17.5v-1q0 -1 1 -3q4 4 8 9t10 8
q-1 -3 -6.5 -12t-0.5 -11q-6 -9 -18.5 -25.5t-16.5 -25.5q-9 -28 -24.5 -44t-20.5 -34q-1 -4 -5 -8.5t-5 -8.5q-1 -6 -2 -12.5t-4 -11.5q-5 -10 -10 -17.5l-11 -16.5q-6 -7 -10 -18.5t-10 -20.5q-6 -12 -16 -24t-17 -25q-4 -8 -1 -14q-6 -7 -7 -11.5t-5 -13.5
q-11 -2 -16 -13q2 -2 7 -2q-3 -6 -7 -11.5t-8 -8.5q-2 -1 -0.5 -3.5t0.5 -3.5q-2 -1 -3 -0.5t-2 -1.5q-13 -28 -31 -60.5t-33 -62.5q-2 -6 -5.5 -14t-8.5 -14q-3 -4 -7 -8t-5 -7q-11 -24 -20 -51t-22 -51q-3 -3 -14 -8.5t-16 -5.5q-4 0 -8.5 4t-9.5 7q-3 1 -5 1h-5
q-11 9 -17 19t-24 17q3 30 -2.5 79.5t-7.5 102.5q-2 13 -2.5 27.5t-0.5 29.5q0 18 -1 50t-2.5 64.5t-2 56.5t-0.5 27l-13 172q0 5 3 9.5t4 10.5q4 2 14.5 5t16.5 3t20 -9.5t16 -15.5q3 -9 7 -20t7 -22q6 -31 7 -65t2 -66q1 -24 3 -56t2 -52q-1 -36 -2.5 -77t6.5 -87
q13 9 19 23.5t15 27.5q4 6 9.5 11t10.5 13q2 5 4 11t4 10t9 10t11 14q18 33 38.5 68.5t41.5 66.5q6 11 18.5 26.5t21.5 31.5q10 15 22 32.5t23 33.5q1 1 3.5 1.5t3.5 3.5q8 16 21.5 35.5t22.5 33.5h3q13 11 29 29.5t22 36.5q8 0 12 10q3 0 6 -0.5t3 -3.5t2 -6h1q3 -6 2.5 -7
l-2.5 -5v-2q4 2 8 0zM476 689l-3 1l-3 -6l3 -1zM461 654l-6 -6q6 0 6 6z" />
    <glyph glyph-name="W" unicode="W" horiz-adv-x="684" 
d="M317 417l-6 -6l-2 3l6 6zM703 470v-13.5t-0.5 -26.5t-1.5 -30t-2 -22q-3 -10 -6.5 -21t-7.5 -23q-1 -4 1 -10t1 -12q-6 -30 -20 -52.5t-28 -49.5q-5 -6 -3 -18q0 -4 -4.5 -7t-7.5 -9q-1 -1 0 -3.5t1 -4.5q-9 -20 -22.5 -41t-26.5 -34q-1 -2 -3 -7.5t-5 -10.5
q-4 -5 -11 -13t-16 -17t-18 -16.5t-16 -9.5q-4 -3 -11 -3.5t-12 -0.5h-19q-5 0 -23 7.5t-28 14.5q-6 6 -13.5 16.5t-17.5 16.5q-10 21 -13.5 52.5t-3.5 51.5q0 1 -0.5 8.5t-1.5 16t-2 16t-1 9.5v71q0 3 2 11t0 14q-14 -13 -25 -24.5t-21 -24.5q-23 -33 -48 -72.5t-43 -76.5
q-1 -2 -3.5 -4t-5.5 -6q-3 -8 -8.5 -21t-11.5 -23q0 -1 -10 -16.5t-24 -34.5t-29 -34t-23 -15q-4 0 -10 4t-10 4t-6 -2.5t-4 -2.5q-33 30 -51 52t-20 43q-5 10 -7 24t0 24q1 62 16.5 124.5t39.5 124t53 118t63 120.5q0 1 0.5 4t-1.5 7q6 1 7 4.5t4 9.5q1 6 5 11t7 8
q1 3 1 7.5t2 7.5q11 18 21 35t26 32q5 6 14.5 7t19.5 4q9 -9 19.5 -28.5t10.5 -36.5q0 -1 -6 -15t-14.5 -32t-17.5 -38t-16 -33q-5 -11 -13.5 -25t-17.5 -30.5t-14 -28t-8 -25.5l-5 -10q-21 -54 -45.5 -109.5t-39.5 -109.5q-2 -7 -6.5 -21.5t-8 -29t-6.5 -26t-3 -12.5v-44
v-2q0 -1 4 -1q3 0 11.5 12t14.5 19q24 29 51 73t55 85q2 2 5 12q1 3 -2 3h2q1 0 2 -1q4 6 5.5 16t6.5 10q4 0 1.5 -1t-0.5 -3q4 6 9.5 10.5t11.5 11.5q7 11 10.5 23.5t15.5 21.5q1 0 1 1q0 2 -2 2q-5 0 -4.5 -0.5t-1.5 -0.5l5 10t6 6q4 0 2 -1.5t0 -3.5q4 5 3 8t2 6
q2 -2 6 -2q3 5 4 9t9 14q1 3 -0.5 5.5t0.5 6.5q0 -4 2 -6q8 6 4 18v-1q0 -2 2 -4q0 1 4.5 8.5t-1.5 3.5q6 4 9 9t8 11q-4 0 0 7t10 10l-4 -5v-1q0 -1 1 -2q6 6 11 8q0 5 -5 5q6 -2 13 -1.5t14 1.5q3 -1 5.5 -4.5t4.5 -3.5q5 0 3 1t2 1q3 0 12 -4t15 -7q6 -1 13 -12.5
t9 -17.5q2 -9 5 -19.5t3 -15.5l-12 -193q0 -2 1 -11t1.5 -21t1 -25.5t-0.5 -23.5q2 -3 1.5 -4t4.5 -1t15.5 15t22.5 33.5t21.5 36t13.5 22.5q2 3 3 11t5 14q10 11 18 26q3 6 4.5 17t4.5 18q3 11 9 23t10 23q4 12 10 25q6 17 7 35.5t3 35.5q5 2 5 7q4 20 7 44.5t8 45.5
q2 7 5.5 16t6.5 15q8 0 9 -11.5t5 -11.5q10 0 14 1q3 -4 4.5 -11.5t4.5 -14.5q2 -4 6.5 -5t6.5 -3q1 -8 0.5 -17t1.5 -18q3 3 8 13q-2 -10 -2 -19t3 -22q1 -2 2 -2t1 -5zM294 354l-3 2l-6 -8l3 -3z" />
    <glyph glyph-name="X" unicode="X" horiz-adv-x="482" 
d="M536 668q0 -4 -6 -18.5t-11 -25.5l2 -4q-36 -46 -61 -89t-46 -75q-25 -30 -45 -55q-17 -21 -31.5 -42t-14.5 -29q0 -4 2 -6.5t2 -6.5q1 -25 4 -36.5t8 -26.5q-1 -3 -2.5 -5.5t-1.5 -4.5q6 -5 7.5 -15.5t2.5 -15.5q3 -10 6 -19.5t6 -17.5q9 -26 19.5 -52t23.5 -53
q8 -17 20 -36.5t20 -34.5q3 -6 11.5 -16.5t18.5 -16.5q2 -1 1 -2.5t3 -1.5t12.5 2.5t14.5 4.5q-3 -2 -3 -4.5v-4.5q4 -3 8 -4t4 -3q3 -6 6.5 -11t3.5 -10q0 -6 -8 -13.5t-12 -7.5q-5 0 -8.5 1t-8.5 1h-13q-4 0 -13 7t-15 11q-13 8 -27.5 22t-28.5 29t-25 30.5t-17 28.5
q-2 3 -4 4t-4 4q-12 22 -28.5 51t-28.5 53q-6 12 -11 29.5t-14 26.5q0 6 -3 16q-6 -1 -9 -4.5t-5 -6.5q-12 -17 -24.5 -29.5t-23.5 -25.5q-10 -11 -16.5 -25.5t-18.5 -26.5q-30 -31 -41.5 -50t-26.5 -40v2q0 1 -3 3q-7 -5 -15 -17q-11 4 -27 0q-5 5 -7 12q0 5 -10 5
q-6 10 -14 20.5t-8 15.5q0 3 6 14t15.5 27.5t21 34.5t21.5 33q33 48 69.5 101t71.5 106q3 5 3 13l-43 293q4 3 9.5 5t8.5 6q3 -3 6.5 -7.5t8.5 -7.5q6 -3 12.5 -5.5t11.5 -5.5q9 -6 18 -16t19 -21q1 -2 1 -7q14 -17 18.5 -42t7.5 -48q2 -1 6 -1q0 -3 -1.5 -4.5t-1.5 -6.5
q0 -4 2.5 -8t5.5 -10q23 26 48 57t47 58q2 4 14 20.5t26.5 34.5t29 32.5t21.5 14.5q5 0 17.5 -4t19.5 -8q-1 0 -1 -1q-1 -1 -1 -4q6 -13 11 -18.5t5 -15.5z" />
    <glyph glyph-name="Y" unicode="Y" horiz-adv-x="468" 
d="M513 582q0 -2 -3.5 -22t-9 -47.5l-11.5 -57.5t-11 -52q-9 -31 -19.5 -65t-19.5 -63q-3 -7 -4.5 -21.5t-10.5 -24.5q-1 -17 -9.5 -50t-17.5 -60q-3 -10 -7.5 -25.5t-7.5 -28.5q-7 -34 -16 -76.5t-20 -86.5q-1 -6 -4.5 -13t-4.5 -14q-4 -19 -7 -39.5t-6 -41.5q7 3 10 10
q-4 -9 -1 -14l5 4q-2 -5 -0.5 -10t4.5 -8q-2 -2 -2 -4v-5v-1q0 -2 2 -2q-2 -2 -2 -10l3 -1q0 -5 -2.5 -9t-4.5 -8q2 -2 3 -1.5t4 0.5q-3 -13 -7.5 -26.5t-8.5 -24.5q-3 -6 4 -9q-1 0 -5 0.5t-7 0.5q-5 0 -6 -1t-6 -1t-10.5 3.5t-10.5 3.5q-4 0 -2 -1.5t-2 -1.5t-10 6
t-11.5 14t-9.5 15t-4 9q-3 10 -6 22t-4 22l42 221q11 48 22.5 97t24.5 97q6 25 16 54.5t14 58.5q1 6 0.5 18t1.5 23q2 6 5.5 17.5t5.5 21.5l-1 9q-12 -17 -34 -43t-50 -46q-7 -6 -13 -14.5t-15 -16.5q-3 -4 -8.5 -7t-9.5 -6q-6 -6 -24 -29.5t-41 -49t-48 -45.5t-43 -20
q-3 0 -17.5 3.5t-20.5 9.5q-11 8 -21.5 27.5t-16.5 35.5q-4 10 -4.5 25t-0.5 20q0 3 1.5 13t1.5 16q0 32 8 64.5t15 63.5q5 17 14 41.5t17 44.5q-1 0 -1 2q0 1 -0.5 1t-0.5 1q10 20 26 57.5t33 73.5t31 63t22 27q4 0 14 -2t17 -4q3 -9 11 -18.5t8 -14.5q0 -12 -3.5 -19
l-6.5 -13q0 -2 4 -6q-10 -23 -23 -52.5t-17 -44.5q-2 -7 -5.5 -15t-6.5 -14q-12 -24 -22.5 -53.5t-17.5 -55.5q-9 -28 -16.5 -52.5t-11.5 -46.5q-1 -4 -4.5 -9.5t-6.5 -11.5q-6 -17 -7 -35.5t-4 -39.5q12 9 25.5 23.5t24.5 26.5q2 1 6 2.5t7 5.5q27 31 52 55.5t49 48.5
q62 62 107.5 127t81.5 136q3 6 2 14t-4 11q2 3 3.5 4.5t5.5 1.5t9.5 -3.5t8.5 -4.5q5 -1 12.5 -0.5t14.5 -3.5q2 -2 5.5 -7t8.5 -8q4 -4 10 -5.5t8 -7.5q3 -3 4.5 -10t1.5 -12z" />
    <glyph glyph-name="Z" unicode="Z" horiz-adv-x="478" 
d="M293 734q2 -2 0 -4t-4 -2q0 1 1 2q0 2 3 4zM599 103q-5 2 -12 0q2 -4 2.5 -9t4.5 -11q-6 2 -11 1t-10 -1q-6 0 -6 -4q-2 0 -4 2t-4 5q-2 0 -2 0.5t-3 -1.5q4 -4 4 -6q-3 2 -7.5 1t-9.5 1q-1 0 -1 -1l-3 -3q0 -2 1.5 -5t1.5 -5q-4 0 -7.5 -1.5t-8.5 -1.5t-2.5 1.5t0.5 3.5
q-1 0 -5 -4q-10 0 -21.5 -1.5t-16.5 -3.5t-15 -3.5t-12 -1.5q-4 0 -8 -3t-8 -3q-13 -2 -31.5 -5t-36.5 -10q-35 -6 -67 -9.5t-51 -7.5l-71 -25q-12 -1 -23 -8.5t-17 -11.5q-10 -6 -22 -8.5t-21 -7.5q-5 -1 -10 -3.5t-11 -4.5q-8 -2 -21 -2h-18q-1 0 -9 8t-14 8q-7 5 -8.5 13
t-1.5 16.5t-0.5 15.5t-3.5 11l1 1q1 1 1 1.5t1 1.5q1 6 2.5 10.5t1.5 10.5q-1 -1 -1 0q-2 0 -2 5q0 4 4.5 7t9.5 8q1 3 2.5 4.5t1.5 2.5q8 12 18.5 28t22 32t24 31.5t23.5 28.5q7 10 16.5 21t15.5 20q38 47 80 105t81 115q1 1 1 4.5t3 7.5q8 13 19.5 28.5t23.5 32.5
q1 2 1 4.5t1 3.5q6 9 11 18.5t7 15.5q3 5 10 10.5t11 11.5q11 16 21 35.5t20 36.5q-3 4 -13 5t-14 1q-13 0 -28.5 -2.5t-32 -5.5t-30.5 -6.5t-25 -7.5q-17 -6 -38 -14.5t-38 -16.5q-7 -4 -16.5 -9.5t-18.5 -10.5t-17 -9t-11 -4h-15q-3 0 -8.5 5t-10.5 11q-1 10 -6 20.5
t-5 16.5t4.5 9t10.5 12q2 3 4.5 11t4.5 15q1 0 6 -5q18 7 36.5 14t39.5 15q5 2 12 10q2 -3 4 -5.5t7 -2.5q3 0 8 2t7 4q-2 3 -7 1t-11 -4q4 5 11 8.5t14.5 6t12.5 4t7 1.5q4 0 4 -3t5 -3t19.5 7.5t28.5 10.5q1 0 4 1q2 0 4.5 1t7.5 1q-1 -3 -5 -3.5t-7 -4.5q23 0 48 4
q3 0 8.5 4t10.5 4t8 -4.5t8 -4.5q4 0 9 1t10 1t12.5 -3.5t14 -7.5t12 -8.5l5.5 -4.5q4 -13 11.5 -26t7.5 -29q0 -18 -6.5 -33.5t-15.5 -30t-19.5 -30t-18.5 -34.5v1q0 1 -2 3q-4 -2 -3 -7.5t-2 -8.5q-3 -4 -8.5 -9.5t-10.5 -11.5q-8 -9 -13.5 -20.5t-11.5 -21.5
q-3 -2 -7 -4.5t-6 -7.5q-3 -2 -2.5 -7t-1.5 -7q-4 -7 -10 -15t-12 -12q3 -2 -0.5 -7.5t-7.5 -7.5h-1q-3 0 -3 -3q-2 -12 -14.5 -25t-16.5 -26q-7 -6 -15 -17t-14 -19q0 -1 -0.5 -5.5t-2.5 -6.5q-12 -17 -24.5 -32t-26.5 -32q-2 -2 -4 -8t-4 -11q-22 -31 -47 -61t-49 -61
q4 -3 8 -1.5t8 -7.5q1 0 1 1q0 2 1 3q12 2 25 5t27 6l1 1q1 1 1.5 1t1.5 1q20 4 26 5.5t21 2t33 4.5t32 6q5 0 14 1l18 2t16 1.5t10 0.5t6.5 -2.5t8.5 -2.5q4 0 8.5 2.5t8.5 2.5q6 0 11 -1.5t10 -1.5q2 0 10 1t21 2t16 1.5t6 0.5q2 0 11 -1.5t18 -3.5l18 -4t11 -2q5 0 5 2
t5 2q3 0 13.5 -0.5t14.5 -0.5h6q5 0 12.5 -2.5zM404 741v4h-11v-4h11zM333 734v4h-6v-4h6zM326 732v3h-8v-3h8zM315 732l-1 3l-6 -2v-4zM263 717l-2 4l-4 -3v-3zM138 668l-1 4l-6 -3v-3z" />
    <glyph glyph-name="a" unicode="a" horiz-adv-x="386" 
d="M459 109q-2 -6 -9 -10t-9 -9q-8 -7 -4 -14q-6 -7 -16.5 -16t-21.5 -17q0 -1 3 -4t5 -3q-8 -1 -17.5 -7l-19 -12t-17 -10.5t-10.5 -4.5h-42q-15 0 -29.5 13t-25 29t-17 31t-6.5 17q0 9 -0.5 23t-2.5 28q-8 -14 -16.5 -26t-17.5 -27q-4 -6 -14.5 -21t-24 -30.5t-28 -27.5
t-25.5 -12q-4 0 -10.5 -2t-10.5 -2q-25 0 -37 12.5t-26 24.5q-1 6 -4.5 16t-3.5 14q0 22 13 57t31.5 70.5t38 67t32.5 48.5q5 7 17.5 19t22.5 19q7 3 14.5 11t14.5 14q2 2 1 4.5t1 4.5q7 3 12 3t9 3q8 5 12 14h8q10 -9 17 -9q4 0 8 -1t8 -1q9 10 8 15t9 5q5 0 4.5 -4t4.5 -4
q6 0 4 1.5t2 1.5q9 0 23.5 -6.5t20.5 -13.5q2 -4 4.5 -12t-0.5 -11q0 -3 1.5 -0.5t1.5 -3.5q0 -3 -3 -15t-8.5 -28.5t-10 -35t-7.5 -32.5q-4 -19 -8.5 -46t-7.5 -51t-4.5 -42t-1.5 -20q0 -4 1.5 -14t1.5 -17q8 -3 16 -1t14 2t26 8t43 18t42 19t21 10zM218 283l-6 -6
q-3 3 -1.5 6t1.5 5q-25 -30 -47.5 -68t-40.5 -73l6 -7q24 29 45 68t43 75z" />
    <glyph glyph-name="b" unicode="b" horiz-adv-x="350" 
d="M283 762q1 -6 -1.5 -7t-4.5 -4q8 -15 3.5 -38.5t-6.5 -34.5q-6 -27 -15.5 -64t-19 -76.5t-21 -80.5t-21.5 -77q-4 -19 -13 -42t-17 -47l4 -4q9 9 19 12.5t22 5.5q19 2 39 -3.5t36.5 -16.5t28 -28t13.5 -37q1 -4 -2.5 -23.5t-7.5 -35.5q-4 -11 -11.5 -30.5t-13.5 -33.5
q-4 -6 -13 -22.5t-20.5 -34.5t-21.5 -31.5t-14 -14.5q-5 0 -3.5 2.5t-4.5 2.5q-4 -1 -11.5 -9t-14.5 -10l2 1v3q-5 1 -10 3.5t-10 1.5q-6 -1 -4 -2t-3 -2q-5 0 -8.5 3.5l-6.5 6.5q-1 1 -7 7.5t-11.5 14.5t-10 17.5t-4.5 13.5q-1 6 4 19t8 16q7 -4 8.5 -9t3 -9t3.5 -5.5
t8 -1.5q5 1 12.5 10.5t15.5 22t15 26t10 21.5q10 20 18 47t15 46l-2 13q-5 0 -8 -8t-10 -12q-14 -8 -21 -16.5t-10 -18.5q-3 -1 -4 0t-4 1q2 -6 -3.5 -15.5t-13.5 -20.5t-15.5 -21.5t-10.5 -18.5q5 -6 9 1q-6 -5 -13.5 -13.5t-12.5 -9.5q-6 -1 -17.5 0.5t-16.5 0.5
q-5 0 -13 10t-15.5 23t-12.5 23.5l-5 10.5q-1 7 3 26t9.5 39t10.5 36.5t5 17.5q15 50 32 108.5t34.5 118t34 115.5t29.5 101q5 15 10 35t14 36q6 3 13.5 3.5t12.5 0.5q3 1 8.5 -4.5t11.5 -12t10.5 -12.5z" />
    <glyph glyph-name="c" unicode="c" horiz-adv-x="293" 
d="M341 179q-4 -4 -7 -12t-9 -8q-5 0 -4.5 1.5t-1.5 -1.5q0 -3 -1.5 -4t2.5 -1q5 0 4.5 0.5t2.5 0.5q-3 -3 -5.5 -9.5t-0.5 -9.5q-9 -8 -20 -16t-19 -16q0 -4 5 -4v-10q-18 -10 -38.5 -23t-47.5 -29q-3 -3 -5.5 -8.5t-6.5 -8.5q-4 -2 -15 -6t-23.5 -8t-25.5 -7t-21 -3
q-20 0 -37.5 9.5t-31 23.5t-22 32t-9.5 34q0 6 -0.5 13t-0.5 12q0 22 7 60.5t22 64.5q2 1 2 5t1 8q7 15 14.5 29t17.5 26l13 13t10 14q0 2 -1 3q-4 -4 -4 -5q9 11 19.5 29t22.5 31q3 5 10 6t13 4q5 3 8 7t9 4q4 0 19 -3t23 -7q8 -5 21 -16t18 -23q4 -8 7 -20t3 -18
q0 -4 -2 -15.5t-5 -23.5t-7 -23t-8 -13q-4 -3 -15 -3q-12 0 -18.5 8t-9.5 19q-3 8 -7.5 15.5t-1.5 15.5v1h-3q-28 -35 -49 -71.5t-34 -64.5q-4 -9 -8.5 -22.5t-8.5 -27t-7 -24t-3 -12.5v-14q7 -3 16 -5t13 -2t18 6.5t26 11.5q27 11 60.5 23.5t68.5 30.5q9 5 29.5 16.5
t38.5 19.5z" />
    <glyph glyph-name="d" unicode="d" horiz-adv-x="437" 
d="M447 619q0 -4 -2 -12t-4 -13q-3 -4 -8.5 -11.5t-5.5 -11.5q-1 -28 -15.5 -56.5t-32.5 -79.5q-2 -3 -1 -10t-1 -12q-3 -10 -6.5 -24t-6.5 -24q-2 -8 -6 -18t-6 -17q-7 -31 -15.5 -61.5t-15.5 -101.5l4 -8t0 -7q0 -8 -1.5 -19.5t-4 -22t-3.5 -18.5t-1 -11l2 -17
q7 -3 18.5 -5.5t17.5 -1.5q16 2 37.5 10.5t42 19.5t37 19.5t20.5 12.5q-2 -8 -3 -17t-2 -16q-2 -8 -11 -17.5t-15 -14.5q-3 -2 -5 -6.5t-4 -11.5q-9 -4 -20 -8.5t-13 -11.5q-13 -5 -32 -10.5t-23 -5.5l-25 -3q-5 -1 -3 1t-3 1q-3 0 -9.5 2.5t-15 5.5t-15.5 8t-12 8
q-4 6 -12.5 16.5t-16.5 24t-14.5 47.5t-8.5 47q-7 -9 -14.5 -22t-14.5 -29q-9 -16 -20.5 -34.5t-24.5 -32.5q-5 -5 -12.5 -13t-9.5 -14q5 -6 9 -2q-10 -9 -19 -16.5t-13.5 -13.5t-8.5 -9.5t-14 -4.5q-4 0 -14.5 1.5t-18.5 1.5q-26 23 -37 39.5t-13 38.5q-3 29 6.5 66t25 74
t32 71.5t29.5 57.5q6 10 14 20.5t18 20.5q2 3 8.5 7t10.5 6q3 2 9.5 3t12.5 1q4 1 4.5 -3.5t6.5 -4.5q5 1 4.5 2.5t-0.5 4.5q7 -6 18.5 -8.5t19.5 -7.5q4 -4 9.5 -11t13.5 -13q2 3 2.5 3t2.5 2q15 46 28 85t27 77.5t31 76.5t39 80q6 0 18 -2t23.5 -5t21 -11t10.5 -21z
M196 262q-1 5 -1.5 12.5t-4.5 14.5q-4 -4 -10 -9t-9 -4q1 -3 1 -5.5t-3 -5.5q-6 -10 -16 -23t-15 -24q-9 -16 -15 -32.5t-11 -31.5q0 -2 1.5 -3.5t1.5 -4.5q-3 -7 -5.5 -15.5t-3.5 -13.5q7 12 17.5 25.5t17.5 16.5q1 5 3 13t6 8q3 1 5.5 -1t1.5 1v6q9 4 9.5 10t4.5 17
q3 -3 0.5 -5t3.5 -1q4 0 5.5 6.5t-0.5 10.5q3 3 9 6.5t8 13.5q-3 4 -2 9t1 9z" />
    <glyph glyph-name="e" unicode="e" horiz-adv-x="266" 
d="M276 87q-8 -3 -13 -7.5t-12 -6.5q0 -7 11 -10q-3 -4 -5.5 -10.5t-5.5 -13.5q-13 3 -19.5 -9.5t-6.5 -24.5q-9 -3 -18.5 -4.5t-20.5 -1.5q-4 -2 -1.5 -3t5.5 -1q-8 -1 -18.5 -5.5t-18.5 -5.5v-3q0 -2 -4 -2t-11.5 3t-14 4.5t-12 0.5t-6.5 -8l-11 15q-22 5 -32.5 13
t-29.5 28q-7 4 -9.5 6t-4 6t-5 16t-9.5 43q-4 30 0.5 47.5t7.5 29.5q3 14 13 40t21 49q6 12 14 28.5t19 34.5q5 7 13 17t13 20q11 10 16.5 18t20.5 17q7 3 18 8t9 13q-2 -1 -2 -2q0 -3 4 -3q6 0 3 1.5t3 1.5q4 0 12.5 -5t15.5 -7q2 -7 2 -13t5 -6q6 0 4 1.5t3 1.5
q4 0 6.5 -3t5.5 -6q0 -15 2.5 -21t6.5 -8t7.5 -4.5t3.5 -12.5q0 -2 -2 -11.5t-4.5 -22t-6 -25t-6.5 -22.5q-6 -12 -19.5 -31.5t-26.5 -35.5q-12 -12 -26 -29t-28 -31.5t-23 -25.5t-9 -15q0 -6 10.5 -13.5t19.5 -11.5q5 -3 14.5 -3h14.5q8 0 15.5 4t19.5 -1q20 6 38.5 12
t33.5 10q5 -4 10 -4z" />
    <glyph glyph-name="f" unicode="f" horiz-adv-x="410" 
d="M602 308v4v-4zM605 306q-7 0 -14.5 -4t-18.5 -11l-5 -6q3 -2 5.5 -4t2.5 -6q-7 -2 -15 -5.5t-15 -4.5q-1 -7 -6.5 -9t-12 -2.5t-15 -0.5t-13.5 -1q-12 -3 -29 -10.5t-22 -7.5q-6 0 -4.5 1.5t-3.5 1.5q-3 0 -11 -3t-19.5 -6t-23 -7.5t-21.5 -6.5q-41 -12 -87 -21.5
t-89 -21.5q-3 -3 -6.5 -8t-3.5 -7q-7 -26 -15 -60.5t-14.5 -71t-12.5 -72t-11 -65.5q-1 0 -5 10q-4 -6 -7 -18q-1 -11 -3 -28t-2 -22v-66q8 -4 10.5 -10t2.5 -13t-1 -13.5t0 -13.5l5 5q-2 -10 1.5 -10t3.5 -3q0 -6 -3.5 -14t-6.5 -15h-3q-1 0 -4 3q-2 0 -3 -2.5t-1 -5.5
q-11 7 -23.5 17.5t-20.5 21.5q-2 10 -4 23.5t-3 26t-2 23t-1 12.5l18 196q0 3 4 21t9.5 42.5t11 51.5t7.5 47q-8 3 -15 -4q-2 4 -7.5 6t-11.5 2q-5 0 -3 -1.5t2 -3.5q-5 5 -11 5q-5 0 -9 2t-8 5t-9.5 8t-8.5 8q-1 1 -5 9.5t-8 19t-7 21.5t-3 15q0 3 5.5 4t0.5 12
q10 -7 15.5 -8t9 -0.5t8 2t13.5 1.5q5 0 3.5 2.5t2.5 2.5q7 0 16 -0.5t21 3.5q11 5 34 5q8 38 16 79t17 76q6 21 11 44.5t12 43.5q10 31 21.5 67t24 71.5t27.5 70t33 63.5q2 4 8 11t13 14.5t13 12.5t10 5q5 0 8 -2t7 -5q5 -3 12.5 -3t14.5 -1q7 -3 14.5 -7t11.5 -7
q10 -8 21.5 -18.5t18.5 -18.5q5 -11 12.5 -26t7.5 -20q0 -6 -6.5 -25.5t-10.5 -32.5q-7 0 -13.5 -7t-12.5 -15q-3 0 -5.5 2.5t-3.5 2.5l-8 -5q-3 3 -6 3h-5l5 5q-5 3 -10.5 5.5t-8.5 5.5q-4 7 -7.5 17t-3.5 15q0 6 2.5 8t4.5 4q3 -2 3 -3.5t3 -4.5q6 11 6 25q0 4 -0.5 8
t-5.5 4q-7 0 -15 -14.5t-15.5 -32t-14.5 -35t-8 -22.5q-5 -14 -20.5 -49t-25.5 -66q-7 -24 -16.5 -58t-15.5 -65q-4 -15 -9 -32.5t-12 -36.5q-2 -2 -4 -2t-5 -3q0 -5 4 -9q1 -3 -1.5 -7t-5.5 -8v-7q15 -5 36 -1t37 6q19 3 40.5 3t42.5 3q9 0 14 5q22 -1 52.5 0.5t57.5 1.5
q2 1 5 1t4 3q11 -3 24 -1.5t25 2.5l1 1q3 3 6 3q5 0 1.5 -2.5t2.5 -2.5q4 0 13.5 2.5t14.5 2.5t6.5 -2.5t4.5 -2.5zM119 -170h-4v17h4v-17zM594 303v4h-10v-4h10zM101 -164v16h-5v-16h5z" />
    <glyph glyph-name="g" unicode="g" horiz-adv-x="385" 
d="M233 164l-19 -25l-1 2l19 23h1zM209 132l-11 -10l-3 1l11 12zM358 308q0 -2 -1 -9.5t-2.5 -17.5t-3.5 -21.5t-3 -19.5q-6 -43 -16.5 -86.5t-21.5 -87.5q-9 -50 -20 -100.5t-24 -100.5q0 -2 1 -5t0 -6q-3 -16 -7.5 -38t-9.5 -45t-9.5 -47.5t-7.5 -45.5q0 -4 1 -11t-1 -12
q-1 -10 -5 -22.5t-3 -22.5q0 -4 2 -11.5t2 -14.5v-1h4l4 3q4 1 7 6q6 -5 9.5 -10t9.5 -12l2 -35q-9 -1 -28 6q-2 -3 -1.5 -5t-3.5 -3q-3 0 -9 3.5t-11 7.5q-2 3 -7.5 5.5t-8.5 3.5q-6 10 -13 20t-8 20q-4 14 -6.5 31.5t-2.5 22.5q0 3 0.5 13.5t0.5 18.5q1 65 10 127t22 125
t27.5 129t30.5 138l-1 1q0 1 -1 2q-3 -2 -6 -7.5t-6 -12.5q3 0 4.5 2.5t3.5 4.5q-2 -2 -5.5 -7.5t-10.5 -13.5q3 4 4.5 8.5t-0.5 7.5q-5 -9 -12.5 -17.5t-15 -17.5t-12.5 -19t-7 -20q-16 -20 -33 -39t-32 -37q-6 -5 -16.5 -16t-20.5 -21q0 -2 1.5 -4t1.5 -4
q-6 -3 -13.5 -5.5t-12.5 -2.5q-4 0 -17 4.5t-22 8.5q-3 3 -5.5 6.5t-6.5 7.5q-1 3 -3 5q-8 15 -9 22.5t-2 19.5q-1 18 5.5 40.5t16 46t21.5 44.5t20 33q29 39 51 74t43 61.5t45 43t57 18.5q4 0 12 -10.5t12 -15.5q-2 -6 0 -9t4 -9q3 -1 8 -5t10 -5q7 -2 15.5 -6t15.5 -8
q-1 -3 9 -14.5t11 -24.5zM243 294v8q-3 0 -3 -2.5t-3 -5.5q-4 5 -9 5l-1 12l-4 -5q-4 7 1 17q-10 -9 -21.5 -26t-16.5 -28q-6 -13 -16.5 -23.5t-14.5 -19.5q-16 -28 -32 -64.5t-29 -62.5q20 21 41.5 44t36.5 40q1 1 12 17t24.5 35t24 36.5t10.5 22.5z" />
    <glyph glyph-name="h" unicode="h" horiz-adv-x="398" 
d="M434 107q-10 -10 -33 -23v-2q0 -1 2 -2q6 4 12.5 4.5t12.5 3.5q-6 -3 -9 -12t-8 -14q-4 -4 -10 -6t-9 -8q-3 -2 -3.5 -8t-2.5 -10q-6 -3 -12 -10.5t-17 -15.5q4 -4 6 -4q-6 -3 -17.5 -10.5t-17.5 -7.5q-5 0 -17 1.5t-18 1.5q-1 0 -7 3.5t-12 7.5t-11.5 8t-7.5 5
q-2 4 -5 11t-7 12q-2 6 -7.5 13.5t-8.5 13.5q-11 33 -12 65q-1 16 -0.5 31.5t3.5 32.5l-2 14q-43 -28 -76 -90t-72 -97v-1q0 -1 3 -1q-3 0 -2.5 0.5t-4.5 0.5q-4 0 -10 -3.5t-13 -7.5q-4 8 -8.5 14t-9.5 14q-4 6 -6 14t-9 15q0 11 -2.5 25.5t-2.5 20.5q0 16 8 67t18 82.5
t19 55.5t9 25q0 7 3.5 14.5t4.5 13.5q4 4 6 7q4 20 12.5 46t16.5 45q3 9 -1 16q5 15 12.5 34.5t15.5 40.5t16.5 40.5t14.5 35.5q11 23 18.5 36t27.5 13q6 0 13 -4t13 -4q3 -6 5 -6q6 -11 8 -28.5t2 -24.5q0 -5 -2 -16.5t-6 -19.5l-141 -383q7 0 13.5 9.5t11.5 14.5
q6 7 16.5 15.5t16.5 15.5q2 3 13.5 15.5t25 27.5t25.5 26.5t16 11.5t7.5 -5t7.5 -6q6 -1 15.5 -0.5t16.5 -3.5q27 -19 34 -38t7 -40l-17 -141q0 -4 1 -12t5 -15q9 3 10.5 1.5t6.5 -1.5q3 0 12.5 4t21.5 9.5t24.5 10.5t18.5 6q7 1 14.5 4t14.5 6z" />
    <glyph glyph-name="i" unicode="i" horiz-adv-x="197" 
d="M191 528q-6 -9 -4 -20t3 -20.5t-3 -16t-22 -7.5q-11 -1 -21.5 4t-18.5 9q-1 2 -1 3.5t-2 3.5q-11 6 -18 21.5t-11 28.5q-3 6 -2.5 16.5t-3.5 17.5q17 -1 27 0t18 3t14 4.5t16 3.5q5 -7 11 -11.5t8 -9.5q4 -4 2.5 -13t7.5 -17zM227 170q-5 -4 -5 -12.5t0.5 -18t-2 -18.5
t-10.5 -16q2 -1 5 -1t5 -3q-1 -4 -5 -8t-7 -6q-4 -6 -3 -17q-12 -7 -27.5 -21t-24.5 -25v-6.5t-6 -7.5q-9 -5 -22 -9t-18 -4q-26 -2 -44.5 11t-32 32t-20.5 41.5t-8 38.5q-1 9 1 30.5t6 36t7 26t4 15.5q14 64 33 105q0 4 1 14q3 2 5 7.5t7 10.5q6 0 11.5 2t11.5 3
q19 1 40.5 -16t23.5 -36q0 -4 -2 -8.5t-3 -10.5q-5 -18 -10 -53.5t-15 -52.5q-3 -7 -5 -18t-4 -18q-9 -31 -14 -45.5t0 -32.5q35 16 68.5 41t58.5 50z" />
    <glyph glyph-name="j" unicode="j" horiz-adv-x="200" 
d="M228 506q0 -4 -2 -12.5t-5 -17.5q-10 -5 -21.5 -9.5t-17.5 -4.5q-4 0 -11.5 6t-14.5 13.5t-14 14.5l-10 10q-4 19 -4.5 36.5t-7.5 32.5q3 4 6.5 9.5t9.5 5.5q4 0 14.5 -9.5t19.5 -16.5q4 -4 12 -8.5t14 -10.5q7 -6 19.5 -19.5t12.5 -19.5zM160 274q0 -6 -3.5 -16
t-4.5 -17q-3 -15 -3 -26.5t-2 -21.5q-2 -8 -2 -29t-2 -37q-7 -44 -18 -89t-17 -92q-2 -3 -1 -9t-2 -10q-11 -23 -13.5 -53t-23.5 -55q2 -4 -1 -10t-5 -12q-2 -5 0 -12.5t1 -14.5q-8 -31 -26 -69q-10 -19 -19.5 -38.5t-20.5 -38.5q-3 -4 -9.5 -10.5t-13.5 -14t-12.5 -15
t-3.5 -12.5q-4 -8 -21 -21.5t-38.5 -26.5t-42.5 -23t-35 -10q-6 0 -20.5 4.5t-22.5 7.5q-27 8 -47 27t-33.5 43t-21.5 50t-11 47q1 22 1 34v18t-0.5 8t-0.5 4q3 8 5 18l4 20q0 -7 -1 -12t1 -11q6 14 8.5 31.5t7.5 32.5q7 21 17 41.5t19 39.5q0 -2 1 -5t3 -3t0 -6l1 -82
q3 0 5.5 -2t2.5 -7q0 -4 -2.5 -10.5t-2.5 -13.5q0 -15 -3.5 -37.5t-3.5 -27.5q0 -4 3.5 -15.5t7.5 -19.5q0 -2 -1 -14.5t1 -27.5t7.5 -27t16.5 -12q24 0 54 16t57.5 39t50 48t32.5 41q3 4 3.5 10t3.5 11q23 37 30 60t13 50q7 27 18 67t13 71q2 4 6 20t7 27q6 33 9.5 66.5
t8.5 67.5q6 31 10.5 63.5t11.5 63.5q3 15 3.5 31t-2.5 31q3 0 4.5 1.5t6.5 1.5q4 0 16.5 -5.5t18.5 -12.5q12 -12 15 -31q3 -11 5.5 -27t2.5 -20zM-318 -207l-6 -19l-3 2l5 17h4z" />
    <glyph glyph-name="k" unicode="k" horiz-adv-x="358" 
d="M428 -24q-3 -3 -8.5 -2.5t-8.5 -0.5q-5 0 -4.5 -0.5t0.5 -3.5q-8 5 -19 8.5t-16 3.5q-4 -1 -5.5 -3.5t-6.5 -2.5q-4 0 -4 2.5t-6 1.5q-10 -1 -26 4.5t-31 12t-27.5 12.5t-16.5 8q-11 7 -25.5 12.5t-25.5 14.5q-22 15 -44 35t-45 48q-9 -20 -15.5 -37.5t-10.5 -42.5
q-2 -10 -5 -23t-4 -27q0 -1 -2 -4l1 -1q1 -11 1.5 -24t-2.5 -28q-2 -10 -14 -10q-3 -1 -12 3t-18 7q-2 4 -5.5 7.5t-6.5 7.5q-4 11 -8 27t-5 22q0 1 0.5 9t2 17.5t2.5 19.5t0 18q3 35 16.5 84t27.5 101q1 4 0 8q23 76 47 155.5t44 155.5q5 16 11.5 39.5t12.5 48.5t12 51.5
t8 50.5q2 6 5.5 11.5t6.5 12.5q8 -13 20.5 -18.5t26.5 -17.5q7 -17 13.5 -41t6.5 -29q0 -3 -1.5 -14t-3.5 -21q-6 -33 -14 -67.5t-15 -68.5q-2 -2 -4.5 -5t-3.5 -6t0 -6.5t-1 -6.5q-12 -23 -18 -40.5t-10 -33.5t-7.5 -31.5t-12.5 -30.5v-7q3 0 1.5 2t3.5 2q6 1 11 3t8 2
q3 1 10 7.5t18.5 13.5t27 14t34.5 8q2 0 10 -4.5t15.5 -11t16 -14t15.5 -10.5q-4 -8 -3 -19.5t-1 -21.5q-4 -3 -8 -6.5t-7 -10.5q-3 -1 -5 -2t-5 -1q-10 -8 -16 -24l-5 5q-12 -6 -31 -19t-35 -25q-3 -3 -8 -5t-8 -4l-8.5 -6t-17.5 -15.5t-17 -19t-7 -17.5q0 -6 8 -15.5
t17.5 -18.5t18 -15t11.5 -7q10 -8 25 -19t29 -20q14 -10 38 -21.5t43 -22.5q17 -8 35.5 -21.5t38.5 -25.5z" />
    <glyph glyph-name="l" unicode="l" horiz-adv-x="228" 
d="M293 101q-5 -6 -8 -12.5t-10 -8.5q0 -1 1 -4q8 3 15 6q-11 -3 -3 -10q-8 -4 -13.5 -16t5.5 -13q-6 -3 -9 -10.5t-5 -10.5q-8 -6 -19.5 -12t-19.5 -13q-5 -4 -11 -10.5t-14 -8.5q-7 -3 -16 -5.5t-17 -4.5l-6 6q-9 -7 -13 -5.5t-9 1.5q-6 0 -4.5 -2t-3.5 -2q-3 0 -17 6
t-21 8q-24 9 -42 29t-30 45t-16.5 49t-4.5 43q0 62 13.5 116t27.5 109q1 7 5.5 12.5t5.5 10.5q3 17 8 40t11 44t17.5 53.5t24.5 69.5q3 7 9 14t8 15q9 28 19 42t9 32q2 0 5.5 1t7.5 1q5 0 11 -5t13 -6q2 0 2 1h3h5q3 -7 7.5 -16.5t6.5 -16.5q3 -5 2 -13.5t2 -13.5l-98 -318
q-7 -17 -13 -35t-9 -35q-3 -12 -6.5 -32t-7.5 -40.5t-6 -40t-2 -30.5q0 -4 0.5 -18.5t1.5 -23.5q1 -4 4.5 -8.5t6.5 -7.5q13 -8 24 -8q6 0 8 2.5t5 2.5q5 0 7.5 -1.5t8.5 -1.5q3 0 10 3t25 9q4 3 7.5 6t6.5 3q6 0 5 -1.5t4 -1.5q4 0 16.5 10t29.5 19q-3 -2 0 -6q1 2 1 3.5
t4 1.5q5 0 16.5 5t18.5 9z" />
    <glyph glyph-name="m" unicode="m" horiz-adv-x="612" 
d="M635 88q4 -7 0.5 -14t-4.5 -12q-3 -7 5 -10q-2 -4 -5.5 -6.5t-6.5 -5.5q1 -6 -2 -9q-11 -5 -22.5 -11t-17.5 -7q-5 0 -17 4.5t-17 4.5q-4 -1 -1 -2.5t-2 -2.5q-4 0 -20 11.5t-26 21.5q-16 17 -21 44t-11 55q-1 7 -1 15t-5 18q-6 -7 -9.5 -14t-9.5 -15q-8 -12 -29.5 -36
t-36.5 -46q-10 -12 -20.5 -25.5t-24.5 -21.5q-2 -3 -1 -4.5t-2 -2.5q-8 -5 -19 -10.5t-16 -5.5q-7 -1 -20 3.5t-25.5 13t-21 17t-9.5 15.5q-2 17 1 39t8 43.5t9 39.5t5 30q2 4 0 5t-2 3l3 4q-1 3 -2.5 5t-1.5 6q-24 -25 -50 -59.5t-50 -65.5q-1 -2 -2 -6t-3 -8
q-10 -13 -22 -26v-8q-10 -9 -18.5 -23t-17.5 -23q-4 -3 -13.5 -9t-15.5 -6q-4 -1 -14 6t-16 13q-8 5 -10 16t-3 22q-3 24 6.5 63.5t21.5 77.5t23 68.5t13 42.5q2 8 6.5 21.5t6.5 24.5q1 1 2.5 2t2.5 4q0 22 4.5 38t17.5 45q5 1 11.5 3.5t11.5 2.5q10 1 18 -5q1 -4 3 -5
q11 -2 18 -16.5t7 -18.5q1 -6 -3.5 -32.5t-10.5 -43.5q-1 -7 -5.5 -18.5t-9 -24t-7.5 -22.5t-2 -17q1 0 3 3t8 4q2 0 13.5 14t25.5 33t30 40.5t27 37.5q5 2 15.5 2t22.5 -2q8 -2 24.5 -9.5t26.5 -18.5q4 -7 9 -20t6 -20q0 -3 -1.5 -15t-4 -28.5t-4.5 -34.5t-3 -31
q-8 -2 -9 -12.5t-2 -19.5v-1q0 -1 1 -3q5 5 7 8.5t11 3.5l130 158q2 -1 8.5 0t13.5 -1q4 -1 9.5 -6t8.5 -7q1 -1 5.5 -0.5t7.5 -2.5q4 -2 8 -5.5t9 -9.5t6 -13t8 -12q-2 -1 -0.5 -4t2.5 -7q0 -2 -1.5 -13t-3 -25t-4 -29.5t-2.5 -25.5q-1 -11 -1 -32t1 -27q2 -20 8.5 -29
t32.5 -6q4 0 20 5.5t26 10.5zM437 152h-3l-6 -9l5 -3z" />
    <glyph glyph-name="n" unicode="n" horiz-adv-x="415" 
d="M443 122q-6 -10 -7 -21q-2 -2 0 -5t1 -4q-2 -2 -4.5 -4t-4.5 -5q3 -2 8 -2l-1 -1q-3 -3 -4 -2q-3 -3 -3 -8t-5 -9q2 -4 1.5 -8t2.5 -8q-4 -4 -8.5 -7.5t-5.5 -9.5q-4 -7 -14.5 -12.5t-16.5 -12.5q-5 -2 -10.5 -10t-7.5 -12q-10 -1 -22.5 0.5t-17.5 1.5q-4 0 -13.5 3.5
t-20 9.5t-18.5 12t-9 9q-11 22 -20.5 46t-12.5 47q-4 15 -4.5 40.5t-1.5 47.5q-2 1 -1 2.5t-1 2.5q-20 -23 -43 -54t-44 -56q-1 -1 0 -7q-7 -13 -14.5 -26t-17.5 -25q-7 -9 -19.5 -21.5t-16.5 -13.5q-5 0 -9 5t-8 4q-6 0 -3.5 -1.5t-2.5 -1.5q-9 -1 -15 6.5t-9.5 16.5
t-5.5 18t-3 10q-3 2 -6 6.5t-4 11.5q0 4 4 23.5t5 34.5q4 7 7.5 15.5t5.5 15.5q3 11 3.5 24t3.5 24q14 41 34 97t40 109q0 3 -0.5 9t-0.5 12q7 6 14.5 13t13.5 9q4 -5 8.5 -10t9.5 -12q3 3 3.5 8t-0.5 9q5 -4 11 -8t14 -6q0 -4 -1.5 -8.5t1.5 -8.5h1q2 0 2.5 0.5t3.5 1.5
l1 -11q1 -5 -2.5 -10.5t-5.5 -12.5q-2 -13 -4 -30.5t-5 -32.5q0 -5 -2 -8l-4 -6q-8 -23 -6 -44q6 6 12.5 15.5t15 19t16 18t15.5 11.5q7 3 15 3t17 5q5 -4 7.5 -7.5t4.5 -7.5q4 2 6.5 4t7.5 3q4 0 12 -7.5t14 -12.5v-1q0 -1 -2 -3q0 -2 2.5 -3t3.5 -1q9 -18 13.5 -24.5
t5.5 -11t1 -7.5t1 -13q1 -2 0.5 -17t-1 -34t-1.5 -40.5t0 -36.5q-2 -12 -0.5 -26t2.5 -29q5 -3 13 -2q6 0 15.5 4.5t19 10t19.5 12t15 8.5h-1q-3 0 -2 -2l-1 -2h4q5 1 15.5 9.5t21.5 14.5zM277 324l-1 5l-7 -1l1 -5z" />
    <glyph glyph-name="o" unicode="o" horiz-adv-x="292" 
d="M301 235q0 -55 -38 -109t-93 -102q-3 -2 -4.5 -7t-3.5 -8q-34 -21 -62 -21q-23 0 -37.5 11.5t-29.5 23.5q-5 4 -9.5 17t-13.5 13l-5 22.5t-3 17.5q0 16 6.5 38.5t14.5 43.5t15.5 37t11.5 22q2 2 2 7.5t3 8.5q5 9 12 18t11 18q3 2 4 2t4 1t3 4.5t3 7.5q4 7 12 11.5
t13 11.5q3 4 3 9.5t3 10.5q-2 0 -6 1.5t-7 -3.5q0 4 -2 6q-3 -2 -3 -8q0 7 -7 7l2 1q1 0 4 3q-2 14 7.5 24t23 17.5t26.5 12t17 8.5q4 -8 10 -6.5t14 -2.5q4 -3 14 -13l17 -17q0 -1 2 -4q2 -5 4 -7q2 -1 5 -1t5 -2q23 -32 37.5 -62.5t14.5 -62.5zM195 312v15h-5v-15h5z
M218 267q0 6 -4 17.5t-8 19.5q-8 -16 -22 -33.5t-21 -28.5q-8 -15 -19 -36t-21 -40.5t-16.5 -35t-6.5 -17.5v-9q10 7 23 18.5t17 11.5q5 0 1 -3t2 -3q4 0 12 10.5t16 23t15.5 23.5t8.5 13q2 3 6 14t8 23t6.5 21.5t2.5 10.5z" />
    <glyph glyph-name="p" unicode="p" horiz-adv-x="386" 
d="M377 261q0 -31 -13.5 -67.5t-35 -72t-49.5 -65.5t-57 -46q-4 -2 -13 -2h-13v2q-3 3 -5 2.5t-7 -0.5h-8q-6 8 -12.5 18.5t-12.5 21t-11 17.5t-5 10q0 4 5 10t12 10q0 7 -7 7q1 0 4 -2t7 -2q5 0 14.5 10t18.5 17q39 32 59.5 73.5t27.5 76.5q-29 4 -69 -31q-6 -4 -12 -13
t-12 -17.5t-11.5 -15.5t-6.5 -7q-5 0 -2.5 1.5t-0.5 4.5q-4 -8 -12 -18.5t-12 -21.5q-5 -10 -11.5 -29.5t-12.5 -42.5t-11.5 -47t-9.5 -43q-2 -12 -8 -28.5t-10 -29.5q-10 -29 -14.5 -60t-11.5 -62q-1 -7 -5.5 -18t-10.5 -18h-7q-5 0 -2.5 3t-2.5 3q-6 0 -6.5 -3t-6.5 -3
q-4 0 -8 4.5t-8 5.5q0 1 -0.5 3t0.5 5l-13 13t-14 13q3 4 5.5 9.5t4.5 10.5q1 7 -1 15.5t-1 20.5q0 3 2 5.5t5 5.5q3 4 2 13t2 17q3 7 9.5 25t16.5 21q13 55 26 119t26 126q2 6 0 12t-1 13q4 16 9 31.5t11 31.5q2 4 2 12t-2 14q15 44 30.5 94t26.5 94q3 6 -3 16
q3 0 3.5 -1.5t6.5 -1.5q4 0 5.5 4t6.5 4q4 0 14 -9.5t21 -17.5q1 -7 4 -16.5t4 -19.5t2.5 -18t1.5 -11q0 -2 -3.5 -15.5t-7.5 -32.5t-9 -39.5t-10 -36.5l5 -4h4q1 0 2.5 0.5t2.5 0.5q-4 -5 -11 -13t-11 -16v-2q0 -1 2 -2q5 8 17 20.5t26.5 25t29 22t25.5 9.5q6 0 22.5 -4
t29.5 -7q5 -3 11.5 -9t10.5 -9q23 -11 30 -33.5t7 -39.5z" />
    <glyph glyph-name="q" unicode="q" horiz-adv-x="358" 
d="M495 -144q-7 -11 -11 -13t4 -9q-3 -2 -8.5 -6.5t-11.5 -6.5q-3 -2 -0.5 -3t2.5 -3q-4 0 -9 -0.5t-7 -3.5q2 -3 5.5 -1.5t7.5 -1.5q-4 -4 -8 -9.5t-8 -6.5q-8 -3 -18.5 -7t-19.5 -7.5t-16 -7t-10 -3.5q-8 -1 -23 -3.5t-31.5 -6t-32.5 -8t-26 -5.5q-13 -4 -31.5 -10.5
t-37.5 -11.5q-5 -7 -7 -20.5t-3.5 -29.5t-5.5 -31.5t-13 -25.5q-4 3 -7 9t-6 11q-3 2 -6 -3t-6 -9q-3 4 -8.5 8.5t-11.5 5.5l-3 50l-3 6q-15 1 -21 -3.5t-9 -4.5q-17 -1 -42 9t-35 25q-2 1 -2.5 4.5t-5.5 6.5q8 8 16 21.5t20 28.5q13 1 24 5q7 4 15 7.5t16 8.5q11 4 19 5
t18 9q6 10 6.5 21t-0.5 22.5t0.5 22.5t9.5 20q0 3 1 3t-3 3h-1q-2 -1 -1 -4q6 13 6.5 30t7.5 28q-5 4 -7 1q-1 3 1.5 7t5.5 5q3 2 1 2.5t-2 1.5l31 160h-3q-22 -17 -36.5 -35t-27 -32t-26 -23.5t-32.5 -10.5q-4 0 -12 3.5t-12 3.5q-5 0 -8 -1t-5 -1q-8 13 -13.5 19t-9.5 11
t-5 10.5t-2 15.5q0 4 8.5 25.5t13.5 33.5q10 22 26 46t33.5 48.5t36 48t36.5 41.5q10 12 25.5 28.5t33.5 32.5l-7 -9q8 1 15.5 5.5t13.5 11t10.5 12.5t8.5 6q5 0 19.5 -11.5t25.5 -20.5q-8 -5 -2.5 -14.5t-6.5 -14.5q4 -6 13.5 -12.5t20.5 -8.5q2 3 1 4.5t2 4.5
q1 -8 8 -20.5t7 -18.5q1 -8 -4 -26t-11.5 -37.5t-12.5 -35.5t-7 -22q-5 -27 -15 -51.5t-17 -48.5q-10 -31 -19 -75t-18 -84t-14 -69t-5 -32q1 -9 5 -8t7 1q2 0 20 4t40 9t40.5 8.5t20.5 3.5q5 0 7.5 -2t7.5 -2q4 0 10 3t12 3q18 4 43 8t30 4q4 0 13.5 -3.5t17.5 -7.5z
M229 303q-13 -12 -28.5 -29t-28.5 -34.5t-23.5 -32t-13.5 -22.5q12 9 25.5 24.5t26 32.5t23.5 34t19 27zM153 -116l-1 9l-4 -1l1 -9z" />
    <glyph glyph-name="r" unicode="r" horiz-adv-x="268" 
d="M317 307q-3 -7 -10.5 -13t-4.5 -13q-8 0 -18 1.5t-24 -1.5q-1 5 -2 12t-3 17q-30 -11 -54.5 -41.5t-43.5 -59.5q0 5 -4 5q-5 -9 -2 -12q-2 0 -3 -1l-3 -4q-1 -2 1 -3.5t2 -4.5q-2 0 -3 -1t-4 -1h-1q-3 0 -3 -2q-2 -3 1 -4.5t3 -2.5q-9 -17 -24 -37q0 -3 1.5 -4.5
t0.5 -2.5q-3 -7 -7.5 -11.5l-9.5 -9.5q-4 -5 -4.5 -12t-3.5 -13q-10 -20 -17 -43.5t0 -44.5q-9 -6 -19 -6q-3 0 -12 4t-16 7q-3 3 -3 9.5t-8 4.5q-5 16 -11 28t-6 24q0 2 3 12.5t5.5 24t5.5 27t4 24.5q7 28 12 56t7 57q2 17 5 38.5t5 43.5q2 14 3.5 30t5.5 30h12q8 0 20 -9
t16 -19q4 -11 6.5 -22t3.5 -22q1 -8 -1 -16t-2 -19q4 10 15.5 21t25 21.5t29 17.5t27.5 7q22 0 50.5 -12t45.5 -33q3 -4 5 -10t6 -12z" />
    <glyph glyph-name="s" unicode="s" horiz-adv-x="310" 
d="M303 398q0 -5 -1 -7.5t-3 -4.5q2 -15 0.5 -37.5t-8.5 -36.5q-3 -3 -9.5 -5t-11.5 -2q-4 0 -13.5 4.5t-16.5 11.5q-7 -3 -8 -9q-7 -56 -5.5 -114t-8.5 -115q-2 -14 -5.5 -36t-11.5 -43.5t-22.5 -36.5t-35.5 -15q-6 0 -6.5 1.5t-3.5 2.5q-2 2 -2 0.5t-6 -1.5q-7 0 -14 5
t-14 9.5t-11.5 9t-6.5 4.5q-12 7 -25.5 23.5t-25 36.5t-19 41t-7.5 36q0 9 6 28.5t15 32.5q5 0 8 2q1 -4 -1 -9.5t-3 -10.5q2 -3 4 -3.5t5 -3.5q3 0 2 -4.5t-1 -11.5q4 -4 5.5 -4.5t-5.5 -7.5q6 -11 4 -18q3 -6 8.5 -12.5t1.5 -14.5l4 -4q5 6 11 6q8 -14 12 -31t19 -27
q9 8 15 20t10 23q9 21 13 49.5t6 57.5t1 55t-1 43q0 11 3.5 24.5t3.5 25.5q0 4 -1.5 8t-1.5 8q0 10 2 20t4 26q0 4 0.5 20.5t4 34.5t9 32t14.5 14q6 0 7 -1t4 -3q24 3 52.5 -14.5t43.5 -32.5q1 -3 1 -5.5v-5.5q6 -4 11 -13.5t5 -14.5zM64 87h-4v15h4v-15z" />
    <glyph glyph-name="t" unicode="t" horiz-adv-x="286" 
d="M394 349q0 -3 -2.5 -5t-5.5 -5q0 -4 5 -4q-2 -7 -6 -8t4 -8q-8 -4 -17.5 -8t-16.5 -8q0 -3 2.5 -4.5t5.5 -3.5q-5 -13 -20.5 -18t-30.5 -8q-3 -5 -10.5 -14t-12.5 -9q-4 0 -2 1.5t-1 3.5q-4 0 -4 -9q-15 -3 -33 -9.5t-36 -12.5q-2 -1 -1 -2.5t1 -3.5q-2 0 -2 1t-6 1
q-3 0 -18.5 -5.5t-27.5 -10.5q-1 -1 -3.5 -4.5t-4.5 -7.5q-7 -1 -15 -6.5t-14 -9.5q-3 -12 -6.5 -29t-6 -32.5t-4.5 -27t-2 -14.5t1 -10t3 -15.5t4 -15.5t2 -9q0 -5 -6 -10.5t-6 -12.5q-2 0 -7 -1t-9 -1q-5 0 -7 6.5t-5 9.5q-23 21 -25 40t-5 38q-3 11 0.5 38.5t2.5 64.5
q0 2 -5 9t-10 14.5l-9 13.5t-4 9q0 4 2.5 16.5t2.5 23.5q5 5 5 7q3 1 5.5 2.5t6.5 1.5q6 0 4.5 -1.5t4.5 -1.5q4 0 8.5 5t5.5 10q4 11 8.5 32.5t8.5 46t8.5 48.5t8.5 40q8 33 18.5 66.5t19.5 67.5q4 16 9.5 35.5t12.5 38.5q5 15 9 35.5t19 30.5q3 3 9 5t8 2q6 0 11.5 -8
t10.5 -8t6.5 0.5t4.5 0.5l-3 -1v-5q0 -3 3 -10t7 -14t6.5 -14t2.5 -10q0 -4 -3.5 -18t-8.5 -24q3 -10 3 -17q-15 -51 -30.5 -100.5t-30.5 -96.5q-3 -20 -8.5 -43t-11.5 -45v-5q5 -3 9 -2.5t11 0.5q8 3 21 3q5 0 4 -2.5t5 -2.5q5 0 11.5 2.5t13.5 3.5q34 6 72.5 9.5t85.5 7.5
z" />
    <glyph glyph-name="u" unicode="u" horiz-adv-x="402" 
d="M438 128q-5 -3 -16 -14q3 -4 5 -8t6 -8q-7 -10 -15 -24q-3 -5 0 -7q-4 -6 -15 -16q3 -3 5.5 -2.5t5.5 3.5q0 -3 -1.5 -5.5t-6.5 -2.5q-6 0 -4 1.5t0 3.5q-2 -2 -2.5 -5.5t-3.5 -6.5q-2 -3 -6 -7.5t-11 -8.5q-8 -7 -23 -15t-20 -8q-18 0 -37 5.5t-35 11.5q-3 2 -9.5 8
t-9.5 11q-9 18 -16.5 37t-14.5 35q-3 5 -2 14t1 14q0 8 -4 16q-27 -33 -56 -67.5t-51 -75.5q-3 -2 -8 -5.5t-12 -6.5l-2 -1q0 -1 3 -3q-7 0 -15.5 1.5t-16.5 1.5q-3 7 -11 12t-15 12q-4 4 -9.5 11t-6.5 13q-3 7 -5 18.5t-2 17.5q0 35 7 60.5t13 59.5q7 7 11 16t6 18
q0 4 -1.5 9t-0.5 9q3 7 7.5 12t7.5 7q4 4 4.5 11.5t2.5 14.5q1 3 4 4t5 4q0 3 -1 4t0 4q8 14 15.5 31.5t15.5 32t19.5 25.5t29.5 11q5 0 9.5 -2.5t10.5 -0.5q1 -6 6.5 -12.5t9.5 -12.5q0 -3 1.5 -6.5t1.5 -8.5q0 -19 -15 -48t-26 -55q-6 -13 -13.5 -28.5t-13.5 -29.5
q-6 -15 -14.5 -31.5t-16.5 -35.5v-5t2 -7q-6 -9 -8.5 -19.5t-6.5 -21.5v-7h2q50 57 94.5 108.5t75.5 111.5q5 10 13 24t16 25q3 -3 7.5 -5t8.5 -6q3 0 2 3t-1 5q3 -2 4.5 -5t6.5 -3q4 0 2 1.5t2 1.5q2 0 8.5 -7.5t20.5 -11.5q5 -7 9.5 -19.5t4.5 -18.5q0 -3 -8 -17.5
t-12 -25.5q-7 -16 -13 -35.5t-10 -38.5l-1 -2q-3 -2 -3 -4q-3 -16 -5.5 -36t-2.5 -26q0 -7 7 -9q3 -2 7 -2q5 0 27.5 5.5t35.5 9.5q15 4 30 13.5t29 17.5z" />
    <glyph glyph-name="v" unicode="v" horiz-adv-x="315" 
d="M337 333l-6 -8l-3 3l6 6zM372 428l-5.5 -5.5l-6.5 -6.5q0 -1 2 -1h3q1 -3 -1.5 -5.5t-3.5 -5.5q0 -1 12 -5q-8 -9 -17 -20t-7 -21q-6 -8 -14 -16.5t-14 -15.5q5 -4 7 -1q-11 -19 -26.5 -43.5t-25.5 -36.5q-9 -15 -20.5 -34.5t-23.5 -39t-21.5 -37.5t-16.5 -27
q-5 -4 -9.5 -14t-10 -22t-10.5 -23t-8 -21q-6 -9 -10.5 -21.5t-8.5 -24.5q-1 -1 -4.5 -3.5t-7.5 -3.5l-13 -2q-13 -2 -26 8t-24.5 24.5t-18 28.5t-7.5 19q0 2 -1 21t-3 46t-4 56t-4 50q-1 25 -3 55t-8 61q-1 3 -4.5 8.5t-3.5 11.5l-2 18l13 1q5 2 5.5 0t5.5 -1q4 0 2 0.5
t2 0.5q2 1 8.5 -2t14 -8t15 -10.5t11.5 -10.5q7 -10 10.5 -24t8.5 -28q0 -23 5.5 -50.5t15.5 -69.5q26 41 54.5 80t56.5 70q4 3 13.5 13.5t20.5 21.5t21.5 20t19.5 13q3 3 4.5 6t5.5 7q9 5 22 12.5t16 8.5q9 5 10 3.5t9 -4.5z" />
    <glyph glyph-name="w" unicode="w" horiz-adv-x="516" 
d="M503 265q0 -36 -6 -68.5t-13 -67.5q-5 -26 -16 -49t-22 -41q-7 -9 -15 -18.5t-14 -17.5q-5 -7 -16 -7q-4 0 -23 8.5t-30 17.5q-8 6 -14 19q-7 18 -12.5 36t-9.5 35q-7 20 -12 41.5t-11 43.5q-4 -4 -9 -11.5t-9 -14.5q-2 -4 -8.5 -9.5t-6.5 -13.5q-2 3 -4.5 0.5t-5.5 -2.5
q-23 -28 -47 -50.5t-40 -46.5q-10 -12 -28 -24t-29 -18v-11h-35q-6 0 -17 5.5t-17 11.5q-5 3 -9.5 11.5t-10.5 19.5t-8.5 21.5t-2.5 15.5q0 22 1.5 53.5t17 63t33 60t28.5 47.5q10 20 31.5 52t42.5 62q14 -2 25 -2.5t27 -14.5q8 -6 12 -17.5t8 -21.5q-5 -4 -8.5 -11
t-10.5 -13v-9q-13 -20 -29.5 -46t-33.5 -53.5t-29.5 -54.5t-2.5 -47v-4q5 4 15.5 15t21.5 25t22.5 28t19.5 23q25 35 31.5 45.5t12 17t13.5 9t23 2.5q6 0 10 -5.5t9 -8.5q20 -4 36 -17t22 -41t13 -48.5t11 -37.5q12 16 20.5 37t13 41.5t8.5 40.5t5 34q1 13 -0.5 33.5
t-1.5 39.5q0 7 2 18.5t2 24.5q0 -3 4 -8q1 -3 6.5 -4t5.5 -3q2 -1 2.5 -4.5t4.5 -7.5q4 6 9 6v-8q11 -6 21 -6q12 -22 19.5 -50.5t7.5 -50.5z" />
    <glyph glyph-name="x" unicode="x" horiz-adv-x="354" 
d="M384 405q0 -12 -12.5 -31t-26.5 -36.5t-26 -31.5t-14 -17q-2 -6 -15 -18.5t-26 -27.5q-4 -6 -3 -16h-3q-1 0 -4 3q-7 -20 -21 -32.5t-14 -29.5q0 -27 11.5 -64t18.5 -59q2 -11 11.5 -26t23.5 -25q21 -17 49 -22t51 -16q-3 1 -7 0.5t-8 -1.5q-6 -3 -6 -6q-6 -1 -15.5 -5
t-15.5 -4q-4 0 -20.5 2.5t-22.5 2.5q-4 0 -13.5 6t-15.5 12q-40 24 -62.5 65t-39.5 79q-13 -12 -32 -36.5t-30 -43.5q-3 0 -3.5 3t-3.5 6l-82 -80q-3 0 -3.5 2.5t-5.5 2.5q-6 0 -4.5 -1t-3.5 -1q-9 0 -20.5 16t-11.5 24q0 7 13 26t32 44t42 52.5t42 51t31.5 40.5t12.5 20
q0 4 -3 6.5t-5 6.5q-2 20 -2 42t-3 40q-2 13 -1 21t1 14.5t-1.5 13.5t-6.5 16q1 3 6 7.5t10 4.5t4.5 -1t2.5 -4q15 -3 29.5 -13.5t25.5 -24.5q3 -2 5 -7t3 -8q3 -6 5 -15.5t6 -19.5q9 10 22.5 23.5t28 29t27 31t23.5 27.5q4 4 4 13q8 3 11.5 6t10.5 3l5 5q7 -7 19 -11
t16 -19l2 2q1 1 1 2q0 -2 3.5 -8.5t3.5 -10.5z" />
    <glyph glyph-name="y" unicode="y" horiz-adv-x="411" 
d="M391 331q1 -4 -1 -23t-8 -32q3 -8 1.5 -16.5t-2.5 -15.5q-2 -11 -7.5 -23t-7.5 -25q0 -3 0.5 -7.5t-1.5 -8.5q-7 -34 -16 -70t-16 -69l-7 -7q-10 -44 -20 -87.5t-17 -87.5q-2 -5 -0.5 -15t0.5 -17q-3 -5 -5 -10t-3 -9q0 -11 -1 -25t-3 -26.5t-3 -22t0 -12.5l1 -15
q3 -2 2.5 -3.5t5.5 -1.5q12 2 22 9.5t21 14.5l4 -34q-8 -3 -10.5 -8.5t-2.5 -11v-9.5t-4 -5q-5 0 -4 1t-3 1q-6 -1 -11.5 -5.5t-10.5 -5.5q-4 0 -14 4.5t-15 6.5t-10 10t-8 13q-8 10 -19.5 29t-13.5 37q-3 33 1 81t12.5 100.5t19 106.5t20.5 99t18.5 78t11.5 44l-1 1
q0 2 -1 3q-41 -49 -79 -94.5t-83 -93.5q-7 -8 -27 -20t-30 -13q-16 -2 -27 5t-19 18.5t-12 25.5t-5 25q-2 18 8.5 53t24.5 70.5t26.5 64.5t16.5 37q9 13 18.5 30t19.5 32q9 3 18 1t17 -7.5t13 -13.5t5 -13q1 -10 1 -12q-6 -8 -12.5 -22.5t-12.5 -27.5q-11 -24 -24 -56.5
t-27 -64.5q-3 -4 -5.5 -7t-4.5 -8t-2 -10.5t1 -13.5l221 264q25 -9 41 -15.5t25 -15.5t14 -20t6 -29z" />
    <glyph glyph-name="z" unicode="z" horiz-adv-x="345" 
d="M440 58q-9 -2 -3 -6q-10 -4 -28 -8.5t-22 -4.5t-16.5 1.5t-26.5 -0.5q-41 -6 -81.5 -12t-79.5 -15q-3 -2 -6 -5.5t-7 -3.5q-11 -4 -26 -9t-32 -9q-9 -3 -24 -6t-19 -3q-24 0 -42.5 17t-20.5 48q-2 4 -3 5.5t-1 8.5q0 10 5.5 20.5t13 20.5t16 19t14.5 15q19 24 41 45.5
t44 44.5q12 11 26 25.5t28 29.5t26.5 29.5t19.5 28.5h-1q-2 0 -2 1v1q-5 0 -31 -8.5t-50 -14.5q-3 -1 -6 -6.5t-7 -5.5q-5 0 -2.5 1.5t-2.5 1.5t-12 -5t-14 -7q-1 -1 -3 -4t-6 -5q-10 -5 -19 -5q-8 0 -13 6.5t-8.5 13.5t-5 14t-1.5 10q0 8 1 15t9 11q14 9 38 21t42 17
q14 5 34.5 10.5t39.5 9.5t33.5 7.5t17.5 3.5t8.5 -1.5t11.5 -2.5q5 -8 17 -14.5t18 -13.5q1 -6 6 -16.5t5 -14.5q0 -6 -3 -15.5t-7 -20t-9 -20t-8 -13.5q-18 -21 -33 -40t-32.5 -40t-40.5 -47t-57 -61q2 -3 4 -2t5 1l91 17q55 0 101.5 -9.5t95.5 -29.5v-16z" />
    <glyph glyph-name="NULL" horiz-adv-x="0" 
 />
    </font>
</defs>
</svg>
