<?xml version="1.0" standalone="no"?>
<!DOCTYPE svg PUBLIC "-//W3C//DTD SVG 1.1//EN" "http://www.w3.org/Graphics/SVG/1.1/DTD/svg11.dtd" >
<svg xmlns="http://www.w3.org/2000/svg" xmlns:xlink="http://www.w3.org/1999/xlink" version="1.1">
<metadata>
Created by FontForge 20161013 at Fri Nov 30 21:20:43 2012
 By ,,,
Copyright (c) 2012 by Manuel Eduardo Corradine - Sergio Rami'rez. All rights reserved.
</metadata>
<defs>
<font id="Neuron-Light" horiz-adv-x="461" >
  <font-face 
    font-family="Neuron Light"
    font-weight="300"
    font-stretch="normal"
    units-per-em="1000"
    panose-1="0 0 0 0 0 0 0 0 0 0"
    ascent="800"
    descent="-200"
    x-height="491"
    cap-height="612"
    bbox="-56 -234 854 842"
    underline-thickness="50"
    underline-position="-200"
    unicode-range="U+000D-F6C3"
  />
<missing-glyph horiz-adv-x="500" 
d="M75 0v561h350v-561h-350zM85 11h330v539h-330v-539zM324 349l-70 -69l70 -69l-5 -4l-69 69l-68 -69l-5 4l69 69l-69 69l4 5l69 -69l70 69z" />
    <glyph glyph-name=".notdef" horiz-adv-x="500" 
d="M75 0v561h350v-561h-350zM85 11h330v539h-330v-539zM324 349l-70 -69l70 -69l-5 -4l-69 69l-68 -69l-5 4l69 69l-69 69l4 5l69 -69l70 69z" />
    <glyph glyph-name=".null" horiz-adv-x="0" 
 />
    <glyph glyph-name="nonmarkingreturn" horiz-adv-x="333" 
 />
    <glyph glyph-name="NULL" horiz-adv-x="0" 
 />
    <glyph glyph-name="NULL" horiz-adv-x="0" 
 />
    <glyph glyph-name="CR" unicode="&#xd;" horiz-adv-x="424" 
 />
    <glyph glyph-name="space" unicode=" " horiz-adv-x="198" 
 />
    <glyph glyph-name="exclam" unicode="!" horiz-adv-x="197" 
d="M98 136q-18 0 -23 4.5t-5 18.5q0 74 -3 214.5t-3 215.5q0 14 7 18.5t27 4.5t27 -4.5t7 -18.5q0 -75 -2.5 -215.5t-2.5 -214.5q0 -14 -5.5 -18.5t-23.5 -4.5zM98 0q-22 0 -29 4.5t-7 20.5v26q0 16 7 20.5t29 4.5t29.5 -5t7.5 -20v-26q0 -15 -7.5 -20t-29.5 -5z" />
    <glyph glyph-name="quotedbl" unicode="&#x22;" horiz-adv-x="232" 
d="M60 423q-13 0 -17.5 3.5t-5.5 14.5q-11 118 -11 148q0 14 6.5 18.5t27.5 4.5t27.5 -4.5t6.5 -18.5q0 -30 -11 -148q-1 -11 -5.5 -14.5t-17.5 -3.5zM171 423q-13 0 -17 3.5t-5 14.5q-12 129 -12 148q0 14 6.5 18.5t27.5 4.5t27.5 -4.5t6.5 -18.5q0 -30 -11 -148
q-1 -11 -5.5 -14.5t-17.5 -3.5z" />
    <glyph glyph-name="numbersign" unicode="#" 
d="M306 37q-18 0 -24 4.5t-6 18.5v128h-95v-128q0 -14 -5.5 -18.5t-24.5 -4.5q-18 0 -23.5 4.5t-5.5 18.5v128h-69q-14 0 -18.5 5.5t-4.5 22.5q0 18 4.5 23t18.5 5h69v146h-69q-14 0 -18.5 5.5t-4.5 22.5q0 18 4.5 23t18.5 5h69v111q0 15 5.5 19t23.5 4q19 0 24.5 -4
t5.5 -19v-111h95v111q0 15 6 19t24 4q19 0 24.5 -4t5.5 -19v-111h71q14 0 18.5 -5t4.5 -23q0 -17 -4.5 -22.5t-18.5 -5.5h-71v-146h71q14 0 18.5 -5t4.5 -23q0 -17 -4.5 -22.5t-18.5 -5.5h-71v-128q0 -14 -5.5 -18.5t-24.5 -4.5zM181 390v-146h95v146h-95z" />
    <glyph glyph-name="dollar" unicode="$" 
d="M239 726q20 0 25.5 -4.5t5.5 -18.5v-88q62 -5 105 -17q23 -6 23 -32q0 -17 -3 -22.5t-12 -5.5q-3 0 -24 5t-54 10t-65 5q-69 0 -91 -16.5t-22 -78.5q0 -37 10 -54t37 -29l150 -66q52 -23 70.5 -57.5t18.5 -96.5q0 -157 -159 -169v-86q0 -14 -6 -18.5t-25 -4.5t-25 4.5
t-6 18.5v86q-66 3 -119 18q-13 4 -19 11t-6 22q0 17 3 22t12 5q1 0 51.5 -10t95.5 -10q75 0 106.5 24.5t31.5 81.5q0 44 -11 66t-40 35l-136 61q-58 26 -78.5 55t-20.5 92q0 89 38 120t108 33v86q0 14 6 18.5t25 4.5z" />
    <glyph glyph-name="percent" unicode="%" horiz-adv-x="473" 
d="M344 0q-68 0 -88 26.5t-20 104.5t20.5 104t87.5 26t87.5 -26t20.5 -104t-20.5 -104.5t-87.5 -26.5zM344 46q35 0 43.5 15.5t8.5 68.5q0 54 -8.5 69t-43.5 15q-36 0 -44.5 -15t-8.5 -69q0 -53 9 -68.5t44 -15.5zM129 351q-67 0 -87.5 26.5t-20.5 104.5t20.5 104t87.5 26
t87.5 -26t20.5 -104t-20.5 -104.5t-87.5 -26.5zM129 398q36 0 44.5 15t8.5 69t-8.5 69t-44.5 15t-44.5 -15t-8.5 -69t8.5 -69t44.5 -15zM57 0q-23 0 -23 12q0 8 7 21l332 563q7 16 38 16q23 0 23 -12q0 -8 -7 -21l-332 -563q-9 -16 -38 -16z" />
    <glyph glyph-name="ampersand" unicode="&#x26;" horiz-adv-x="515" 
d="M486 286h-62v-149q0 -85 -43.5 -115.5t-139.5 -30.5q-106 0 -147.5 40t-41.5 134q0 70 27.5 106.5t99.5 42.5q-55 10 -78 45.5t-23 99.5q0 91 35.5 124.5t106.5 33.5q80 0 152 -20q11 -3 14.5 -9t3.5 -22q0 -17 -3.5 -21.5t-12.5 -4.5q-1 0 -54 9.5t-94 9.5
q-48 0 -64.5 -20t-16.5 -83q0 -29 4.5 -47.5t18.5 -36t43.5 -26t75.5 -8.5h76v70q0 15 5 19t25 4q19 0 24.5 -4t5.5 -19v-70h63q13 0 18 -5.5t5 -20.5t-5 -20.5t-18 -5.5zM240 49q69 0 96 17t27 70v150h-77q-55 0 -90.5 -8.5t-51.5 -27t-21 -37.5t-5 -49q0 -62 24 -88.5
t98 -26.5z" />
    <glyph glyph-name="quotesingle" unicode="'" horiz-adv-x="120" 
d="M60 423q-13 0 -17.5 3.5t-5.5 14.5q-11 118 -11 148q0 14 6.5 18.5t27.5 4.5t27.5 -4.5t6.5 -18.5q0 -30 -11 -148q-1 -11 -5.5 -14.5t-17.5 -3.5z" />
    <glyph glyph-name="parenleft" unicode="(" horiz-adv-x="191" 
d="M51 301q0 193 70 353q7 15 32 15q24 0 24 -14q0 -7 -15.5 -53.5t-31 -128t-15.5 -172.5t15.5 -172.5t31 -128t15.5 -54.5q0 -13 -24 -13q-25 0 -32 15q-70 160 -70 353z" />
    <glyph glyph-name="parenright" unicode=")" horiz-adv-x="191" 
d="M141 301q0 -197 -71 -353q-7 -15 -31 -15q-25 0 -25 13q0 8 16 54.5t31.5 128t15.5 172.5t-15.5 172.5t-31.5 128t-16 53.5q0 14 25 14q24 0 31 -15q71 -156 71 -353z" />
    <glyph glyph-name="asterisk" unicode="*" horiz-adv-x="383" 
d="M192 617q17 0 22.5 -4.5t5.5 -16.5v-95q0 -16 -5 -25q8 8 23 13l84 28q12 4 17.5 0t11.5 -21q5 -17 3 -23.5t-14 -10.5l-84 -27q-20 -7 -33 -2q19 -8 27 -19l56 -77q7 -10 5 -16.5t-17 -17.5q-14 -10 -20.5 -9.5t-13.5 10.5l-57 77q-11 13 -11 31q-1 -15 -12 -31l-56 -77
q-8 -10 -14.5 -10.5t-20.5 9.5q-15 11 -17 18t5 16l57 77q11 14 21 18q-12 -3 -27 3l-84 27q-12 4 -14 10.5t3 23.5q5 16 11 20t17 1l84 -28q16 -6 23 -13q-5 9 -5 25v95q0 12 5.5 16.5t23.5 4.5z" />
    <glyph glyph-name="plus" unicode="+" 
d="M231 96q-18 0 -24 4.5t-6 18.5v122h-112q-14 0 -18.5 5.5t-4.5 23.5t4.5 23t18.5 5h112v124q0 13 6 17.5t24 4.5t23.5 -4.5t5.5 -17.5v-124h112q14 0 18.5 -5t4.5 -23t-4.5 -23.5t-18.5 -5.5h-112v-122q0 -14 -5.5 -18.5t-23.5 -4.5z" />
    <glyph glyph-name="comma" unicode="," horiz-adv-x="146" 
d="M67 78q21 0 27.5 -5t6.5 -20v-28q0 -32 -11 -71l-17 -65q-5 -12 -11 -16t-21 -4q-13 0 -17.5 2.5t-4.5 10.5q0 5 7 49.5t7 75.5v46q0 15 6.5 20t27.5 5z" />
    <glyph glyph-name="hyphen" unicode="-" horiz-adv-x="313" 
d="M39 267q0 18 4.5 24t18.5 6h189q13 0 17.5 -6t4.5 -24t-4.5 -24t-17.5 -6h-189q-14 0 -18.5 6t-4.5 24z" />
    <glyph glyph-name="period" unicode="." horiz-adv-x="166" 
d="M83 0q-22 0 -29 4.5t-7 20.5v28q0 16 7 20.5t29 4.5t29.5 -5t7.5 -20v-28q0 -15 -7.5 -20t-29.5 -5z" />
    <glyph glyph-name="slash" unicode="/" horiz-adv-x="255" 
d="M209 669q29 0 29 -15q0 -5 -5 -27l-150 -671q-3 -13 -10 -17.5t-25 -4.5q-30 0 -30 14q0 6 5 28l150 670q3 14 10.5 18.5t25.5 4.5z" />
    <glyph glyph-name="zero" unicode="0" 
d="M231 48q55 0 81 15.5t37 56.5t11 127v113q0 128 -22.5 164t-106.5 36q-55 0 -81.5 -15.5t-37.5 -56.5t-11 -128v-113q0 -127 22.5 -163t107.5 -36zM231 -9q-77 0 -117 19.5t-58.5 71.5t-18.5 154v133q0 79 11 128.5t37 75.5t59 35t87 9q115 0 154 -48.5t39 -199.5v-133
q0 -78 -11 -127t-37 -74.5t-59 -34.5t-86 -9z" />
    <glyph glyph-name="one" unicode="1" 
d="M100 0q-13 0 -18 6t-5 24t5 24t18 6h100v486l-94 -31q-12 -4 -21 -4q-13 0 -13 30q0 26 14 30l109 36q15 5 37 5q20 0 26 -4.5t6 -18.5v-529h102q12 0 17 -6t5 -24t-5 -24t-17 -6h-266z" />
    <glyph glyph-name="two" unicode="2" 
d="M127 60h253q13 0 17.5 -6t4.5 -24t-4.5 -24t-17.5 -6h-299q-13 0 -18 5.5t-5 22.5v67q0 52 17.5 79.5t68.5 74.5l141 127q26 23 35.5 39.5t9.5 48.5q0 62 -21 78.5t-89 16.5q-32 0 -62 -5.5t-48.5 -10.5t-22.5 -5q-8 0 -11 5.5t-3 22.5q0 15 5.5 21.5t18.5 10.5
q63 19 138 19q30 0 50 -2t43 -10.5t36.5 -24t22.5 -44t9 -69.5q0 -21 -3.5 -38t-7 -27t-16 -25t-17.5 -20t-26 -23.5t-29 -25.5l-122 -111q-19 -18 -26.5 -26.5t-14.5 -27t-7 -44.5v-39z" />
    <glyph glyph-name="three" unicode="3" 
d="M237 -9q-95 0 -160 18q-14 5 -19.5 11.5t-5.5 21.5q0 17 3 22t12 5q1 0 57 -10t101 -10q70 0 93.5 27.5t23.5 88.5q0 23 -3 39t-13 32.5t-28 26.5t-50 16t-78 6q-13 0 -17.5 5.5t-4.5 22.5q0 18 4.5 23.5t17.5 5.5q91 0 125 29.5t34 86.5q0 63 -19.5 82t-85.5 19
q-39 0 -88 -10t-51 -10q-8 0 -11.5 5t-3.5 22q0 26 24 32q65 19 151 19q78 0 114.5 -33t36.5 -125q0 -121 -114 -144q71 -6 98.5 -42t27.5 -106q0 -92 -41.5 -134t-129.5 -42z" />
    <glyph glyph-name="four" unicode="4" 
d="M329 0q-20 0 -26 4.5t-6 18.5v144h-241q-14 0 -19 6t-5 26q0 21 8 35l209 352q10 17 21.5 21.5t42.5 4.5q30 0 39.5 -4.5t9.5 -18.5v-365h45q13 0 17.5 -5.5t4.5 -22.5q0 -18 -4.5 -23.5t-17.5 -5.5h-45v-144q0 -14 -6.5 -18.5t-26.5 -4.5zM293 555l-191 -331h196l1 331
h-6z" />
    <glyph glyph-name="five" unicode="5" 
d="M217 -9q-61 0 -132 19q-14 4 -19 9.5t-5 21.5q0 17 3 21.5t12 4.5q3 0 21.5 -4.5t48 -9.5t60.5 -5q80 0 104.5 23t24.5 102v32q0 72 -21 91.5t-81 19.5q-42 0 -85.5 -10t-50.5 -10q-10 0 -15 1t-9.5 6t-4.5 15v272q0 13 5 17.5t22 4.5h262q13 0 17.5 -6t4.5 -24t-5 -24
t-17 -6h-227v-194q61 14 109 14q31 0 49 -1.5t42 -10.5t37 -25.5t22.5 -49t9.5 -78.5v-36q0 -58 -13 -95.5t-40 -55t-56 -23.5t-73 -6z" />
    <glyph glyph-name="six" unicode="6" 
d="M227 -9q-40 0 -65 4t-49 18t-37 40.5t-20.5 70.5t-7.5 109v126q0 68 11.5 117t29 76t46 42t53.5 19t61 4q55 0 105 -12q14 -3 18.5 -8t4.5 -23q0 -27 -14 -27q-2 0 -43.5 6.5t-66.5 6.5q-29 0 -45.5 -2t-37.5 -13t-32 -31.5t-18.5 -60t-7.5 -97.5v-41q31 57 144 57
q85 0 120.5 -38t35.5 -153q0 -106 -43.5 -148t-141.5 -42zM228 48q67 0 94 24t27 105q0 86 -21 112.5t-91 26.5q-65 0 -95 -22.5t-30 -84.5q0 -55 6 -87.5t22 -48.5t35 -20.5t53 -4.5z" />
    <glyph glyph-name="seven" unicode="7" 
d="M167 0q-29 0 -29 15q0 11 5 23l193 514h-262q-13 0 -17.5 6t-4.5 24t4.5 24t17.5 6h309q14 0 19 -6.5t5 -26.5q0 -13 -7 -34l-196 -528q-6 -17 -37 -17z" />
    <glyph glyph-name="eight" unicode="8" 
d="M230 -9q-107 0 -145.5 38t-38.5 143q0 121 74 150q-59 29 -59 140q0 54 12.5 87t40 47t51 17.5t65.5 3.5q43 0 66.5 -3.5t51 -17.5t40 -47t12.5 -87q0 -111 -60 -140q75 -29 75 -150q0 -105 -38.5 -143t-146.5 -38zM230 47q73 0 97 23t24 104q0 74 -26.5 96t-94.5 22
t-94 -22t-26 -96q0 -81 23.5 -104t96.5 -23zM230 350q64 0 85 18t21 90q0 68 -21 86t-85 18q-63 0 -84 -18t-21 -86q0 -72 20.5 -90t84.5 -18z" />
    <glyph glyph-name="nine" unicode="9" 
d="M202 -9q-46 0 -101 11q-15 3 -19.5 8.5t-4.5 23.5q0 16 3 21.5t12 5.5q2 0 37 -6.5t64 -6.5q30 0 46.5 1.5t37 7.5t30.5 19t20 35.5t13.5 57.5t3.5 84v37q-32 -54 -140 -54q-84 0 -117.5 37.5t-33.5 153.5q0 107 39.5 148.5t135.5 41.5q50 0 79 -7.5t54 -32t35.5 -74
t10.5 -129.5v-124q0 -52 -6 -92t-15 -67t-25 -46t-31 -29.5t-38.5 -16t-42.5 -7t-47 -1.5zM223 292q65 0 93 22.5t28 84.5q0 57 -5 88.5t-20 48.5t-34 21t-57 4q-66 0 -89.5 -24t-23.5 -106q0 -87 19.5 -113t88.5 -26z" />
    <glyph glyph-name="colon" unicode=":" horiz-adv-x="166" 
d="M83 0q-22 0 -29 4.5t-7 20.5v28q0 16 7 20.5t29 4.5t29.5 -5t7.5 -20v-28q0 -15 -7.5 -20t-29.5 -5zM83 421q-22 0 -29 4.5t-7 20.5v28q0 16 7 20.5t29 4.5t29.5 -5t7.5 -20v-28q0 -15 -7.5 -20t-29.5 -5z" />
    <glyph glyph-name="semicolon" unicode=";" horiz-adv-x="152" 
d="M66 78q21 0 27.5 -5t6.5 -20v-28q0 -32 -11 -71l-17 -65q-5 -12 -11 -16t-21 -4q-13 0 -17.5 2.5t-4.5 10.5q0 5 7 49.5t7 75.5v46q0 15 6.5 20t27.5 5zM69 421q-22 0 -29 4.5t-7 20.5v28q0 16 7 20.5t29 4.5t29.5 -5t7.5 -20v-28q0 -15 -7.5 -20t-29.5 -5z" />
    <glyph glyph-name="less" unicode="&#x3c;" 
d="M123 264l209 -84q22 -8 26.5 -14.5t4.5 -27.5q0 -29 -16 -29q-7 0 -21 6l-239 101q-16 7 -20.5 17t-4.5 37q0 25 4.5 34.5t20.5 16.5l239 101q14 6 21 6q16 0 16 -29q0 -21 -5 -28t-26 -15l-209 -83v-9z" />
    <glyph glyph-name="equal" unicode="=" 
d="M84 206q0 18 4.5 23t18.5 5h247q13 0 17.5 -5t4.5 -23t-4.5 -23.5t-17.5 -5.5h-247q-14 0 -18.5 5.5t-4.5 23.5zM84 342q0 18 4.5 23t18.5 5h247q13 0 17.5 -5t4.5 -23t-4.5 -23.5t-17.5 -5.5h-247q-14 0 -18.5 5.5t-4.5 23.5z" />
    <glyph glyph-name="greater" unicode="&#x3e;" 
d="M128 180l209 84v9l-209 83q-21 8 -26 15t-5 28q0 29 16 29q7 0 21 -6l239 -101q16 -7 20.5 -16.5t4.5 -34.5q0 -27 -4.5 -37t-20.5 -17l-239 -101q-14 -6 -21 -6q-16 0 -16 29q0 21 4.5 27.5t26.5 14.5z" />
    <glyph glyph-name="question" unicode="?" horiz-adv-x="357" 
d="M151 136q-19 0 -25 4.5t-6 18.5v33q0 41 9.5 63t31.5 47l81 89q30 32 30 89q0 51 -21 65t-88 14q-31 0 -60.5 -5t-47.5 -10t-22 -5q-8 0 -11 5t-3 22q0 15 5.5 21.5t18.5 10.5q63 19 134 19q37 0 62 -4t50 -16.5t37.5 -40.5t12.5 -71q0 -47 -12.5 -74.5t-43.5 -59.5
l-74 -80q-27 -29 -27 -82v-30q0 -14 -6 -18.5t-25 -4.5zM151 0q-22 0 -29 4.5t-7 20.5v26q0 16 7 20.5t29 4.5t29.5 -5t7.5 -20v-26q0 -15 -7.5 -20t-29.5 -5z" />
    <glyph glyph-name="at" unicode="@" horiz-adv-x="791" 
d="M363 -10q-99 0 -130 52.5t-31 206.5q0 78 10.5 128t34.5 77t55 37t79 10q97 0 128 -65v32q0 14 6 18.5t25 4.5t25 -4.5t6 -18.5v-335q0 -89 58 -89q37 0 54 28t17 116v117q0 78 -12 130.5t-33 85t-60.5 49.5t-84 22.5t-115.5 5.5q-58 0 -97.5 -4t-76.5 -15.5t-59 -32
t-39.5 -53.5t-24.5 -80.5t-7 -113.5v-112q0 -90 16.5 -148t55 -91t92 -46t136.5 -13q13 0 18 -5.5t5 -22.5t-5 -22.5t-20 -5.5q-72 0 -124.5 8.5t-99 31.5t-75 62.5t-45 103t-16.5 150.5v108q0 91 16.5 155.5t44.5 103t76.5 60.5t100.5 29t128 7q63 0 108 -4.5t89.5 -17.5
t73.5 -37t52 -62t33.5 -94t10.5 -131v-117q0 -199 -134 -199q-47 0 -72.5 20t-37.5 65q-34 -85 -155 -85zM372 46q72 0 103.5 30t31.5 123v88q0 89 -23 123t-95 34q-51 0 -75 -15t-34.5 -57.5t-10.5 -131.5q0 -120 19.5 -157t83.5 -37z" />
    <glyph glyph-name="A" unicode="A" horiz-adv-x="508" 
d="M50 0q-31 0 -31 15q0 7 4 20l171 550q6 18 16 22.5t44 4.5q35 0 45 -4.5t16 -22.5l170 -550q5 -17 5 -20q0 -15 -31 -15q-20 0 -26.5 3.5t-9.5 13.5l-55 176h-229l-53 -176q-3 -10 -10 -13.5t-26 -3.5zM248 554l-93 -307h198l-93 307h-12z" />
    <glyph glyph-name="B" unicode="B" horiz-adv-x="509" 
d="M259 -9q-85 0 -161 7q-19 3 -25.5 9.5t-6.5 20.5v552q0 24 27 29q78 8 144 8q47 0 73 -2t54 -9.5t41 -23t21.5 -43t8.5 -69.5q0 -61 -15 -95.5t-53 -48.5q49 -13 69.5 -50t20.5 -110q0 -100 -39.5 -137.5t-158.5 -37.5zM131 554v-204h108q82 0 105.5 20.5t23.5 96.5
q0 63 -20.5 77.5t-107.5 14.5q-74 0 -109 -5zM131 295v-242q39 -5 129 -5q87 0 108.5 21t21.5 101q0 78 -24.5 101.5t-104.5 23.5h-130z" />
    <glyph glyph-name="C" unicode="C" horiz-adv-x="451" 
d="M257 -9q-28 0 -46 1t-40 5t-35.5 12t-29 21t-24 33.5t-16.5 49t-11 67t-3 87.5v70q0 65 5 111t18 77t28 49.5t41 28t50.5 12t63.5 2.5q66 0 131 -19q14 -3 19 -9t5 -23q0 -16 -3 -21t-11 -5q-3 0 -22 5t-48.5 10t-59.5 5q-52 0 -77 -5.5t-45 -29.5t-25.5 -69t-5.5 -128
v-47q0 -66 5.5 -108.5t15 -68t30 -37.5t42 -15.5t60.5 -3.5q32 0 61 5t47 10t22 5q9 0 11.5 -4.5t2.5 -21.5t-5.5 -23t-18.5 -9q-65 -19 -132 -19z" />
    <glyph glyph-name="D" unicode="D" horiz-adv-x="522" 
d="M254 50q39 0 60 3.5t41.5 15t29.5 37t14.5 67.5t5.5 108v50q0 80 -7.5 125.5t-29.5 68.5t-48.5 28.5t-79.5 5.5q-64 0 -109 -5v-499q38 -5 123 -5zM254 -9q-100 0 -155 7q-19 2 -26 9t-7 21v552q0 24 27 29q58 8 146 8q46 0 74.5 -2.5t58 -12.5t45 -28.5t29.5 -50
t19 -78.5t5 -113v-51q0 -67 -6 -115.5t-19.5 -80t-29.5 -50.5t-43.5 -28.5t-52.5 -12.5t-65 -3z" />
    <glyph glyph-name="E" unicode="E" horiz-adv-x="455" 
d="M422 30q0 -18 -4.5 -24t-17.5 -6h-306q-17 0 -22.5 4.5t-5.5 17.5v568q0 13 5.5 17.5t22.5 4.5h296q13 0 17.5 -6t4.5 -24t-4.5 -24t-17.5 -6h-259v-199h207q13 0 17.5 -5.5t4.5 -23.5t-4.5 -23.5t-17.5 -5.5h-207v-235h269q13 0 17.5 -6t4.5 -24z" />
    <glyph glyph-name="F" unicode="F" horiz-adv-x="418" 
d="M99 0q-20 0 -26.5 4.5t-6.5 18.5v567q0 13 5.5 17.5t22.5 4.5h287q13 0 18 -6t5 -24t-5 -24t-18 -6h-250v-199h198q13 0 17.5 -5.5t4.5 -23.5t-4.5 -23.5t-17.5 -5.5h-198v-272q0 -14 -6 -18.5t-26 -4.5z" />
    <glyph glyph-name="G" unicode="G" horiz-adv-x="488" 
d="M245 -9q-36 0 -57.5 2t-47 10.5t-40 26.5t-28 48t-19 77t-5.5 112v70q0 65 5 111t18 77t28 49.5t41 28t50.5 12t63.5 2.5q76 0 141 -19q14 -3 19 -9t5 -23q0 -16 -3 -21t-11 -5q-3 0 -24.5 5t-53.5 10t-62 5q-52 0 -77 -5.5t-45 -29.5t-25.5 -69t-5.5 -128v-47
q0 -66 5.5 -108.5t14.5 -68t28 -37.5t38.5 -15.5t54.5 -3.5q71 0 96 30t25 127v62h-109q-12 0 -16.5 6t-4.5 24t4.5 23.5t16.5 5.5h138q20 0 26.5 -4.5t6.5 -17.5v-105q0 -123 -41.5 -165.5t-149.5 -42.5z" />
    <glyph glyph-name="H" unicode="H" horiz-adv-x="513" 
d="M131 349h251v240q0 14 6 18.5t26 4.5t26.5 -4.5t6.5 -18.5v-566q0 -14 -6.5 -18.5t-26.5 -4.5t-26 4.5t-6 18.5v267h-251v-267q0 -14 -6 -18.5t-26 -4.5t-26.5 4.5t-6.5 18.5v566q0 14 6.5 18.5t26.5 4.5t26 -4.5t6 -18.5v-240z" />
    <glyph glyph-name="I" unicode="I" horiz-adv-x="197" 
d="M99 0q-20 0 -26.5 4.5t-6.5 18.5v566q0 14 6.5 18.5t26.5 4.5t26 -4.5t6 -18.5v-566q0 -14 -6 -18.5t-26 -4.5z" />
    <glyph glyph-name="J" unicode="J" horiz-adv-x="328" 
d="M122 -9q-42 0 -89 11q-24 7 -24 31q0 17 3 21t12 4q2 0 32.5 -5t55.5 -5q51 0 68 20t17 79v442q0 14 6 18.5t26 4.5t26 -4.5t6 -18.5v-450q0 -78 -34.5 -113t-104.5 -35z" />
    <glyph glyph-name="K" unicode="K" horiz-adv-x="445" 
d="M99 0q-20 0 -26.5 4.5t-6.5 18.5v566q0 14 6.5 18.5t26.5 4.5t26 -4.5t6 -18.5v-251h12l200 260q11 14 43 14t32 -14q0 -11 -12 -26l-207 -258l218 -274q13 -16 13 -26q0 -14 -31 -14q-33 0 -44 15l-213 276h-11v-268q0 -14 -6 -18.5t-26 -4.5z" />
    <glyph glyph-name="L" unicode="L" horiz-adv-x="421" 
d="M131 60h249q13 0 17.5 -6t4.5 -24t-4.5 -24t-17.5 -6h-286q-17 0 -22.5 4.5t-5.5 17.5v567q0 14 6.5 18.5t26.5 4.5t26 -4.5t6 -18.5v-529z" />
    <glyph glyph-name="M" unicode="M" horiz-adv-x="623" 
d="M99 0q-20 0 -26.5 4.5t-6.5 18.5v565q0 14 10 19t47 5q32 0 44 -5.5t20 -26.5l122 -337h5l122 337q8 21 20 26.5t44 5.5q37 0 47 -5t10 -19v-565q0 -14 -6 -18.5t-26 -4.5t-26.5 4.5t-6.5 18.5l1 512h-8l-131 -348q-6 -15 -14.5 -19.5t-27.5 -4.5q-20 0 -28.5 4.5
t-14.5 19.5l-130 348h-9l1 -512q0 -14 -6 -18.5t-26 -4.5z" />
    <glyph glyph-name="N" unicode="N" horiz-adv-x="538" 
d="M99 0q-20 0 -26.5 4.5t-6.5 18.5v566q0 14 10 18.5t45 4.5q31 0 41.5 -3.5t17.5 -18.5l217 -506h10v505q0 14 6 18.5t26 4.5t26.5 -4.5t6.5 -18.5v-566q0 -14 -10 -18.5t-44 -4.5q-31 0 -41 4t-17 19l-219 505h-10v-505q0 -14 -6 -18.5t-26 -4.5z" />
    <glyph glyph-name="O" unicode="O" horiz-adv-x="522" 
d="M261 48q38 0 60.5 4.5t41 17t26.5 39.5t12.5 67t4.5 105v46q0 67 -3.5 105.5t-11 66.5t-25.5 40t-41 16.5t-64 4.5q-38 0 -60.5 -4.5t-41 -17t-26.5 -39.5t-12.5 -67t-4.5 -105v-46q0 -67 3.5 -105.5t11 -66.5t25.5 -40t41 -16.5t64 -4.5zM261 -9q-66 0 -101.5 8.5
t-62.5 39t-36 86.5t-9 153v51q0 67 5 114.5t17.5 79t27.5 50.5t41.5 28.5t51.5 12.5t66 3q44 0 72 -3.5t53.5 -14t39.5 -29.5t25 -52t15 -78t4 -111v-51q0 -66 -5 -113.5t-18 -79t-28 -50.5t-41.5 -28.5t-51.5 -12.5t-65 -3z" />
    <glyph glyph-name="P" unicode="P" horiz-adv-x="478" 
d="M99 0q-20 0 -26.5 4.5t-6.5 18.5v557q0 24 27 28q66 9 147 9q61 0 94.5 -5.5t60 -23t36 -51.5t9.5 -91q0 -109 -44.5 -154t-162.5 -45h-102v-224q0 -14 -6 -18.5t-26 -4.5zM131 554v-252h103q82 0 110 29.5t28 113.5q0 73 -24.5 93.5t-110.5 20.5q-58 0 -106 -5z" />
    <glyph glyph-name="Q" unicode="Q" horiz-adv-x="522" 
d="M261 -9q-66 0 -101.5 8.5t-62.5 39t-36 86.5t-9 153v51q0 67 5 114.5t17.5 79t27.5 50.5t41.5 28.5t51.5 12.5t66 3q44 0 72 -3.5t53.5 -14t39.5 -29.5t25 -52t15 -78t4 -111v-51q0 -124 -20.5 -185t-63.5 -83l44 -85q8 -16 8 -23q0 -14 -29 -14q-27 0 -34 15l-46 91
q-32 -3 -68 -3zM261 48q38 0 60.5 4.5t41 17t26.5 39.5t12.5 67t4.5 105v46q0 67 -3.5 105.5t-11 66.5t-25.5 40t-41 16.5t-64 4.5q-38 0 -60.5 -4.5t-41 -17t-26.5 -39.5t-12.5 -67t-4.5 -105v-46q0 -67 3.5 -105.5t11 -66.5t25.5 -40t41 -16.5t64 -4.5z" />
    <glyph glyph-name="R" unicode="R" horiz-adv-x="494" 
d="M99 0q-20 0 -26.5 4.5t-6.5 18.5v557q0 24 27 28q66 9 147 9q61 0 94.5 -5t60 -21.5t36 -48.5t9.5 -86q0 -78 -24 -120t-82 -57l114 -244q7 -16 7 -20q0 -15 -32 -15q-20 0 -27.5 3.5t-11.5 12.5l-110 254q-12 -1 -47 -1h-96v-246q0 -14 -6 -18.5t-26 -4.5zM131 554v-232
h105q81 0 108.5 26.5t27.5 106.5q0 65 -25 84.5t-110 19.5q-61 0 -106 -5z" />
    <glyph glyph-name="S" unicode="S" horiz-adv-x="459" 
d="M221 -9q-84 0 -149 18q-25 9 -25 33q0 18 3 23t12 5q1 0 51.5 -10t96.5 -10q74 0 105.5 24.5t31.5 80.5q0 44 -10.5 66t-40.5 35l-136 61q-58 27 -78.5 55.5t-20.5 91.5q0 50 12.5 82.5t38 47t50.5 19t63 4.5q84 0 149 -19q23 -6 23 -32q0 -17 -3 -22.5t-11 -5.5
q-3 0 -24.5 5t-54.5 10t-65 5q-69 0 -90.5 -16t-21.5 -79q0 -38 12.5 -55t46.5 -32l137 -62q53 -23 71 -57t18 -96q0 -93 -50.5 -131.5t-140.5 -38.5z" />
    <glyph glyph-name="T" unicode="T" horiz-adv-x="423" 
d="M211 0q-20 0 -26 4.5t-6 18.5v529h-147q-12 0 -17 6t-5 24t5 24t17 6h358q13 0 18 -6t5 -24t-5 -24t-18 -6h-146v-529q0 -14 -6.5 -18.5t-26.5 -4.5z" />
    <glyph glyph-name="U" unicode="U" horiz-adv-x="518" 
d="M259 -9q-102 0 -147.5 42t-45.5 140v416q0 14 6.5 18.5t26.5 4.5t26 -4.5t6 -18.5v-417q0 -67 26.5 -94t101.5 -27t102 27t27 94v417q0 14 6 18.5t26 4.5t26 -4.5t6 -18.5v-416q0 -98 -45.5 -140t-147.5 -42z" />
    <glyph glyph-name="V" unicode="V" horiz-adv-x="500" 
d="M256 59l158 537q2 10 9.5 13t27.5 3q18 0 24 -2.5t6 -10.5q0 -9 -6 -28l-165 -545q-5 -17 -15.5 -21.5t-44.5 -4.5q-33 0 -43.5 4.5t-15.5 21.5l-166 545q-6 19 -6 28q0 8 6.5 10.5t24.5 2.5q20 0 27 -3t10 -13l157 -537h12z" />
    <glyph glyph-name="W" unicode="W" horiz-adv-x="791" 
d="M211 0q-32 0 -43 4.5t-15 21.5l-132 551q-2 14 -2 19q0 16 31 16q33 0 36 -16l121 -535h12l122 518q4 14 15.5 18.5t39.5 4.5q27 0 38.5 -4.5t15.5 -18.5l123 -518h11l121 535q3 16 36 16q31 0 31 -16q0 -5 -2 -19l-132 -551q-4 -17 -15 -21.5t-43 -4.5t-43 4.5t-15 21.5
l-121 501h-10l-122 -501q-4 -17 -15 -21.5t-43 -4.5z" />
    <glyph glyph-name="X" unicode="X" horiz-adv-x="473" 
d="M56 0q-32 0 -32 16q0 8 9 23l168 276l-158 258q-9 13 -9 23q0 16 32 16q20 0 28 -3t14 -13l126 -218h4l127 218q6 10 14 13t28 3q33 0 33 -16q0 -9 -10 -23l-159 -258l169 -275q9 -14 9 -24q0 -16 -32 -16q-20 0 -28 3.5t-14 13.5l-137 237h-4l-136 -237
q-5 -11 -13.5 -14t-28.5 -3z" />
    <glyph glyph-name="Y" unicode="Y" horiz-adv-x="444" 
d="M222 0q-20 0 -26 4.5t-6 18.5v218l-163 331q-8 16 -8 24q0 16 30 16q22 0 30.5 -3t12.5 -13l128 -284h4l129 284q4 10 12 13t29 3q32 0 32 -15q0 -9 -8 -25l-164 -331v-218q0 -14 -6 -18.5t-26 -4.5z" />
    <glyph glyph-name="Z" unicode="Z" horiz-adv-x="405" 
d="M309 552h-247q-12 0 -17 6t-5 24t5 24t17 6h300q14 0 18.5 -6t4.5 -24q0 -21 -15 -47l-276 -475h268q12 0 17 -6t5 -24t-5 -24t-17 -6h-321q-13 0 -17.5 6t-4.5 25q0 21 15 47z" />
    <glyph glyph-name="bracketleft" unicode="[" horiz-adv-x="257" 
d="M242 -34q0 -18 -4.5 -23t-18.5 -5h-127q-17 0 -22.5 4.5t-5.5 18.5v680q0 13 5.5 18t22.5 5h118q13 0 18 -5.5t5 -22.5t-5 -22.5t-18 -5.5h-84v-614h93q13 0 18 -5.5t5 -22.5z" />
    <glyph glyph-name="backslash" unicode="\" horiz-adv-x="255" 
d="M209 -67q-18 0 -25 4.5t-10 18.5l-150 672q-5 20 -5 27q0 14 30 14q18 0 25 -4.5t10 -18.5l150 -672q5 -21 5 -27q0 -14 -30 -14z" />
    <glyph glyph-name="bracketright" unicode="]" horiz-adv-x="257" 
d="M15 -34q0 17 5 22.5t18 5.5h92v614h-84q-13 0 -17.5 5.5t-4.5 22.5t4.5 22.5t17.5 5.5h119q17 0 22.5 -5t5.5 -18v-680q0 -14 -5.5 -18.5t-22.5 -4.5h-127q-14 0 -18.5 5t-4.5 23z" />
    <glyph glyph-name="asciicircum" unicode="^" 
d="M234 555h-6l-88 -188q-5 -14 -12 -18t-28 -4q-29 0 -29 16q0 6 11 28l96 199q8 15 18 20t38 5t37 -4.5t16 -20.5l92 -199q10 -22 10 -28q0 -16 -29 -16q-21 0 -28 4t-12 18z" />
    <glyph glyph-name="underscore" unicode="_" horiz-adv-x="472" 
d="M36 -46q0 18 4.5 24t18.5 6h354q13 0 17.5 -6t4.5 -24t-4.5 -24t-17.5 -6h-354q-14 0 -18.5 6t-4.5 24z" />
    <glyph glyph-name="grave" unicode="`" horiz-adv-x="195" 
d="M142 540q-20 0 -26.5 3.5t-13.5 13.5l-64 97q-9 16 -9 24q0 13 36 13q21 0 27.5 -4t12.5 -15l55 -98q7 -13 7 -22q0 -12 -25 -12z" />
    <glyph glyph-name="a" unicode="a" horiz-adv-x="485" 
d="M175 -10q-67 0 -98 32t-31 107t39.5 106.5t136.5 31.5h119v91q0 54 -21 70t-78 16q-47 0 -99.5 -10t-53.5 -10q-13 0 -13 26q0 24 19 30q69 21 152 21q86 0 122 -26.5t36 -106.5v-201q0 -37 6 -72t12 -55.5t6 -23.5q0 -16 -30 -16q-18 0 -23.5 3t-9.5 16l-18 70
q-23 -49 -69.5 -74t-103.5 -25zM191 46q62 0 106 36.5t44 96.5v42l-124 -4q-65 -2 -86 -18.5t-21 -63.5q0 -55 18 -72t63 -17z" />
    <glyph glyph-name="b" unicode="b" horiz-adv-x="505" 
d="M243 -10q-107 0 -142 26.5t-35 83.5v528q0 15 6 19t26 4t26 -4t6 -19v-219q39 92 158 92q67 0 99.5 -19.5t46.5 -71.5t14 -159q0 -154 -44.5 -207.5t-160.5 -53.5zM246 46q81 0 108.5 38.5t27.5 156.5q0 131 -18.5 167t-89.5 36q-79 0 -111.5 -44t-32.5 -144v-153
q0 -30 22 -43.5t94 -13.5z" />
    <glyph glyph-name="c" unicode="c" horiz-adv-x="427" 
d="M240 -10q-54 0 -85 8t-55.5 34t-34 75.5t-9.5 132.5q0 59 6 103t19 72t28 45.5t39 26.5t45 11.5t53 2.5q52 0 119 -18q14 -4 19 -10t5 -22q0 -26 -13 -26l-48 10q-48 10 -81 10q-51 0 -75 -12.5t-36.5 -55t-12.5 -130.5q0 -130 21 -164.5t105 -34.5q42 0 85 11t44 11
q11 0 11 -26q0 -15 -4.5 -21t-19.5 -11q-59 -22 -125 -22z" />
    <glyph glyph-name="d" unicode="d" horiz-adv-x="516" 
d="M227 -10q-105 0 -138 52.5t-33 205.5q0 104 21.5 160t60 74.5t107.5 18.5q101 0 136 -57v184q0 15 6 19t26 4t26 -4t6 -19v-461q0 -37 6 -72t12 -55.5t6 -23.5q0 -16 -30 -16q-18 0 -23.5 3t-9.5 16l-14 55q-35 -84 -165 -84zM236 46q79 0 112 30t33 124v86q0 90 -25 124
t-103 34q-81 0 -105.5 -37.5t-24.5 -166.5q0 -121 21 -157.5t92 -36.5z" />
    <glyph glyph-name="e" unicode="e" horiz-adv-x="463" 
d="M250 -10q-58 0 -91 8t-58.5 34t-35 75.5t-9.5 132.5q0 71 9.5 120t24.5 76.5t41.5 42t51.5 18.5t64 4q46 0 77 -10t49 -26.5t27.5 -48t12.5 -64t3 -84.5q0 -20 -6.5 -28.5t-25.5 -8.5h-261q1 -119 24 -151t111 -32q34 0 65.5 5.5t50.5 11t24 5.5q11 0 11 -26
q0 -15 -4.5 -21t-18.5 -11q-60 -22 -136 -22zM245 445q-69 0 -94 -30t-28 -135h228q0 42 -1 61.5t-6 44t-16 34.5t-31.5 17.5t-51.5 7.5z" />
    <glyph glyph-name="f" unicode="f" horiz-adv-x="300" 
d="M36 463q0 16 4.5 21.5t17.5 5.5h47v52q0 64 22.5 92t78.5 28q32 0 62 -8q15 -4 19.5 -8.5t4.5 -18.5q0 -26 -15 -26q-3 0 -23.5 3t-37.5 3q-31 0 -39.5 -13t-8.5 -65v-39h88q12 0 16.5 -5.5t4.5 -21.5t-4.5 -21.5t-16.5 -5.5h-86v-413q0 -15 -6 -19t-27 -4q-20 0 -26 4
t-6 19v413h-47q-13 0 -17.5 5.5t-4.5 21.5z" />
    <glyph glyph-name="g" unicode="g" horiz-adv-x="510" 
d="M56 250q0 103 21.5 158.5t60.5 74t109 18.5q110 0 143 -70l10 41q3 12 9 15.5t24 3.5q30 0 30 -16q0 -4 -6 -24.5t-12 -55.5t-6 -72v-291q0 -127 -52.5 -175t-154.5 -48q-74 0 -133 10q-13 3 -19 9.5t-6 24.5q0 26 15 26q5 0 24 -2.5t52.5 -5.5t72.5 -3q77 0 107 36
t30 120v23q-42 -57 -149 -57q-104 0 -137 52.5t-33 207.5zM123 240q0 -121 21 -157.5t92 -36.5q79 0 112 30t33 124v86q0 90 -25 124t-103 34q-81 0 -105.5 -37.5t-24.5 -166.5z" />
    <glyph glyph-name="h" unicode="h" horiz-adv-x="493" 
d="M98 0q-20 0 -26 4t-6 19v605q0 15 6 19t26 4t26 -4t6 -19v-205q36 78 162 78q79 0 107 -31t28 -97v-350q0 -15 -6 -19t-27 -4q-20 0 -26 4t-6 19v336q0 49 -18 67t-73 18q-78 0 -109.5 -40.5t-31.5 -132.5v-248q0 -15 -6 -19t-26 -4z" />
    <glyph glyph-name="i" unicode="i" horiz-adv-x="201" 
d="M98 0q-20 0 -26 4t-6 19v445q0 14 6 18.5t26 4.5t26 -4.5t6 -18.5v-445q0 -15 -6 -19t-26 -4zM98 577q-23 0 -30 4.5t-7 20.5v24q0 16 7 20.5t30 4.5t30 -4.5t7 -20.5v-24q0 -16 -7 -20.5t-30 -4.5z" />
    <glyph glyph-name="j" unicode="j" horiz-adv-x="201" 
d="M98 491q20 0 26 -4.5t6 -18.5v-538q0 -65 -22 -93t-77 -28q-32 0 -62 8q-15 5 -20 10t-5 18q0 16 3 21t12 5q3 0 23.5 -2.5t36.5 -2.5q30 0 38.5 13t8.5 64v525q0 14 6 18.5t26 4.5zM98 577q-23 0 -30 4.5t-7 20.5v24q0 16 7 20.5t30 4.5t30 -4.5t7 -20.5v-24
q0 -16 -7 -20.5t-30 -4.5z" />
    <glyph glyph-name="k" unicode="k" horiz-adv-x="413" 
d="M98 0q-20 0 -26 4t-6 19v605q0 15 6 19t26 4t26 -4t6 -19v-349h8l174 195q10 11 17.5 14t28.5 3q31 0 31 -12q0 -10 -15 -25l-178 -198l190 -220q14 -16 14 -24q0 -12 -33 -12q-20 0 -27.5 3t-16.5 13l-186 217h-7v-210q0 -15 -6 -19t-26 -4z" />
    <glyph glyph-name="l" unicode="l" horiz-adv-x="197" 
d="M98 0q-20 0 -26 4t-6 19v605q0 15 6 19t26 4t26 -4t6 -19v-605q0 -15 -6 -19t-26 -4z" />
    <glyph glyph-name="m" unicode="m" horiz-adv-x="783" 
d="M112 0q-20 0 -26 4t-6 19v300q0 37 -6 72t-12 55.5t-6 24.5q0 16 30 16q18 0 24 -3.5t9 -15.5l13 -60q18 47 57 68t107 21q62 0 91.5 -19.5t38.5 -58.5q18 42 55 60t101 18q79 0 107 -31t28 -97v-350q0 -15 -6 -19t-26 -4t-26 4t-6 19v336q0 49 -18 67t-74 18
q-75 0 -102.5 -39.5t-27.5 -133.5v-248q0 -15 -6 -19t-27 -4q-20 0 -26 4t-6 19v336q0 49 -18 67t-73 18q-76 0 -103.5 -39.5t-27.5 -133.5v-248q0 -15 -6 -19t-26 -4z" />
    <glyph glyph-name="n" unicode="n" horiz-adv-x="507" 
d="M112 0q-20 0 -26 4t-6 19v300q0 37 -6 72t-12 55.5t-6 24.5q0 16 30 16q18 0 24 -3.5t9 -15.5l15 -63q38 92 172 92q79 0 107 -31t28 -97v-350q0 -15 -6 -19t-27 -4q-20 0 -26 4t-6 19v336q0 49 -18 67t-73 18q-78 0 -109.5 -40.5t-31.5 -132.5v-248q0 -15 -6 -19t-26 -4
z" />
    <glyph glyph-name="o" unicode="o" horiz-adv-x="494" 
d="M239 -10q-75 0 -112 19.5t-54 72.5t-17 159q0 149 44.5 204.5t154.5 55.5q75 0 112 -19t54 -72t17 -159q0 -149 -44.5 -205t-154.5 -56zM241 46q81 0 106 37.5t25 157.5q0 131 -20.5 167t-98.5 36q-81 0 -105.5 -37t-24.5 -157q0 -132 20 -168t98 -36z" />
    <glyph glyph-name="p" unicode="p" horiz-adv-x="525" 
d="M112 -189q-20 0 -26 4t-6 19v489q0 37 -6 72t-12 55.5t-6 24.5q0 16 30 16q18 0 24 -3.5t9 -15.5l15 -61q38 90 164 90q105 0 138 -52.5t33 -205.5q0 -104 -21.5 -160t-60 -74.5t-107.5 -18.5q-102 0 -136 55v-211q0 -15 -6 -19t-26 -4zM272 46q56 0 82 15.5t37 58
t11 131.5q0 120 -21 156.5t-92 36.5q-77 0 -111 -35t-34 -135v-70q0 -89 25 -123.5t103 -34.5z" />
    <glyph glyph-name="q" unicode="q" horiz-adv-x="510" 
d="M407 -189q-20 0 -26 4t-6 19v213q-42 -57 -149 -57q-104 0 -137 52.5t-33 207.5q0 103 21.5 158.5t60.5 74t109 18.5q110 0 143 -70l10 41q3 12 9 15.5t24 3.5q30 0 30 -16q0 -4 -6 -24.5t-12 -55.5t-6 -72v-489q0 -15 -6 -19t-26 -4zM235 46q79 0 112 30t33 123v87
q0 89 -25 123.5t-102 34.5q-81 0 -106 -37t-25 -165q0 -122 21 -159t92 -37z" />
    <glyph glyph-name="r" unicode="r" horiz-adv-x="331" 
d="M112 0q-20 0 -26 4t-6 19v300q0 37 -6 72t-12 55.5t-6 24.5q0 16 30 16q18 0 24 -3.5t9 -15.5l15 -62q36 90 125 90q29 0 45 -7q14 -6 14 -30q0 -26 -14 -26q-2 0 -20 2.5t-33 2.5q-107 0 -107 -202v-217q0 -15 -6 -19t-26 -4z" />
    <glyph glyph-name="s" unicode="s" horiz-adv-x="425" 
d="M197 -10q-69 0 -126 18q-14 5 -18.5 10.5t-4.5 21.5q0 27 11 27q1 0 47.5 -9.5t87.5 -9.5q64 0 90.5 21.5t26.5 68.5q0 45 -40 61l-144 60q-67 28 -67 115q0 127 150 127q64 0 129 -17q14 -4 19 -10.5t5 -23.5q0 -16 -3 -20.5t-10 -4.5l-48 10q-49 10 -87 10
q-52 0 -71 -16t-19 -53q0 -28 8.5 -42.5t33.5 -24.5l140 -57q38 -16 54 -41.5t16 -68.5q0 -152 -180 -152z" />
    <glyph glyph-name="t" unicode="t" horiz-adv-x="310" 
d="M204 -10q-55 0 -77 28.5t-22 92.5v325h-56q-12 0 -16.5 5.5t-4.5 21.5t4.5 21.5t16.5 5.5h56v78q0 15 6 19t26 4q21 0 27 -4t6 -19v-78h95q12 0 16.5 -5.5t4.5 -21.5t-4.5 -21.5t-16.5 -5.5h-95v-312q0 -51 8 -64t38 -13q17 0 37 3t23 3q8 0 11 -5t3 -21q0 -13 -4.5 -18
t-18.5 -10q-27 -9 -63 -9z" />
    <glyph glyph-name="u" unicode="u" horiz-adv-x="497" 
d="M200 -10q-78 0 -106 30.5t-28 96.5v351q0 14 6 18.5t26 4.5t26 -4.5t6 -18.5v-337q0 -49 18 -66.5t73 -17.5q77 0 109 40t32 132v249q0 14 6 18.5t26 4.5t26 -4.5t6 -18.5v-301q0 -37 6 -72t12 -55.5t6 -23.5q0 -16 -30 -16q-18 0 -23.5 3t-9.5 16l-15 60
q-20 -47 -61.5 -68t-110.5 -21z" />
    <glyph glyph-name="v" unicode="v" horiz-adv-x="448" 
d="M220 0q-28 0 -38.5 4.5t-15.5 20.5l-130 414q-8 22 -8 33q0 10 6 14.5t25 4.5q22 0 28.5 -5t13.5 -27l116 -400h11l119 400q6 22 13 27t29 5q19 0 25 -4.5t6 -14.5q0 -5 -8 -33l-136 -414q-5 -16 -16.5 -20.5t-39.5 -4.5z" />
    <glyph glyph-name="w" unicode="w" horiz-adv-x="693" 
d="M189 0q-28 0 -39.5 4.5t-15.5 20.5l-101 414q-5 22 -5 33t6 15t25 4q22 0 29 -4.5t11 -21.5l90 -406h11l95 390q5 19 15 25.5t37 6.5t36.5 -6.5t14.5 -25.5l96 -390h10l91 406q4 17 10.5 21.5t29.5 4.5q19 0 25 -4.5t6 -14.5q0 -7 -6 -33l-101 -414q-4 -16 -15 -20.5
t-39 -4.5q-32 0 -45.5 4.5t-17.5 20.5l-92 374h-6l-93 -374q-4 -16 -17.5 -20.5t-44.5 -4.5z" />
    <glyph glyph-name="x" unicode="x" horiz-adv-x="434" 
d="M61 0q-33 0 -33 17q0 6 9 21l143 218l-130 195q-11 16 -11 23q0 17 36 17q19 0 26 -3t12 -13l102 -164h4l101 164q5 10 12 13t26 3q36 0 36 -17q0 -8 -10 -23l-131 -194l143 -219q10 -14 10 -21q0 -17 -33 -17q-20 0 -28 3t-14 14l-112 185h-4l-113 -185q-8 -17 -41 -17z
" />
    <glyph glyph-name="y" unicode="y" horiz-adv-x="444" 
d="M28 472q0 10 6 14.5t27 4.5q19 0 25.5 -3t9.5 -13l124 -416h6l122 416q3 10 10 13t25 3q21 0 28 -4t7 -14t-9 -37l-156 -487q-26 -83 -48.5 -111.5t-78.5 -28.5q-44 0 -71 8q-24 7 -24 29q0 16 3 21t12 5q2 0 25.5 -3t47.5 -3q31 0 45 13t25 52l20 69q-18 2 -27.5 12.5
t-17.5 33.5l-123 373q-13 39 -13 53z" />
    <glyph glyph-name="z" unicode="z" horiz-adv-x="394" 
d="M361 29q0 -17 -4.5 -23t-16.5 -6h-287q-12 0 -16.5 5.5t-4.5 22.5q0 30 14 51l245 354h-218q-12 0 -16.5 6t-4.5 23t4.5 23t16.5 6h267q12 0 16.5 -6t4.5 -22q0 -29 -14 -49l-246 -356h239q12 0 16.5 -6t4.5 -23z" />
    <glyph glyph-name="braceleft" unicode="{" horiz-adv-x="293" 
d="M109 218q0 30 -11 42t-38 12q-13 0 -17.5 6t-4.5 24t4.5 23.5t17.5 5.5q26 0 37.5 12.5t11.5 42.5q0 34 -1 98t-1 99q0 46 16 67t60 21q40 0 77 -7q12 -1 15 -6.5t3 -20.5q0 -16 -3.5 -21t-13.5 -5q-6 0 -32.5 1.5t-39.5 1.5q-12 0 -16 -7.5t-4 -30.5q0 -32 1.5 -94.5
t1.5 -95.5q0 -75 -50 -82v-4q50 -8 50 -83q0 -33 -1.5 -94.5t-1.5 -94.5q0 -22 4 -29.5t16 -7.5q13 0 39.5 1t32.5 1q10 0 13.5 -5t3.5 -21q0 -15 -3 -20.5t-15 -6.5q-37 -7 -77 -7q-44 0 -60 21t-16 67q0 36 1 99t1 98z" />
    <glyph glyph-name="bar" unicode="|" horiz-adv-x="169" 
d="M84 -189q-18 0 -23 4t-5 20v809q0 16 5 20.5t23 4.5q19 0 24 -4.5t5 -20.5v-809q0 -16 -5 -20t-24 -4z" />
    <glyph glyph-name="braceright" unicode="}" horiz-adv-x="293" 
d="M109 -67q-39 0 -77 7q-11 1 -14.5 6.5t-3.5 20.5q0 16 4 21t14 5q6 0 32.5 -1t39.5 -1q11 0 15 7.5t4 29.5q0 33 -1 94.5t-1 94.5q0 75 49 83v4q-49 7 -49 82q0 33 1 95.5t1 94.5q0 23 -4 30.5t-15 7.5q-13 0 -39.5 -1.5t-32.5 -1.5q-10 0 -14 5t-4 21q0 15 3.5 20.5
t14.5 6.5q39 7 77 7q45 0 61 -21t16 -67q0 -35 -1 -99t-1 -98q0 -30 11 -42.5t38 -12.5q13 0 17.5 -5.5t4.5 -23.5t-4.5 -24t-17.5 -6q-27 0 -38 -12t-11 -42q0 -35 1 -98t1 -99q0 -46 -16 -67t-61 -21z" />
    <glyph glyph-name="asciitilde" unicode="~" 
d="M87 262q0 22 23 37q27 17 56 17q20 0 69 -11.5t65 -11.5q20 0 40 10t22 10q12 0 12 -24q0 -23 -23 -37q-31 -17 -57 -17q-20 0 -69 11t-65 11q-19 0 -39.5 -10t-22.5 -10q-11 0 -11 25z" />
    <glyph glyph-name="nbspace" unicode="&#xa0;" horiz-adv-x="198" 
 />
    <glyph glyph-name="exclamdown" unicode="&#xa1;" horiz-adv-x="197" 
d="M99 476q18 0 23 -4.5t5 -18.5q0 -74 3 -214.5t3 -215.5q0 -14 -7 -18.5t-27 -4.5t-27 4.5t-7 18.5q0 75 2.5 215.5t2.5 214.5q0 14 5.5 18.5t23.5 4.5zM99 612q22 0 29 -4.5t7 -20.5v-26q0 -16 -7 -20.5t-29 -4.5t-29.5 5t-7.5 20v26q0 15 7.5 20t29.5 5z" />
    <glyph glyph-name="cent" unicode="&#xa2;" 
d="M248 612q19 0 24.5 -4t5.5 -19v-73q50 -3 95 -15q15 -4 19.5 -10t4.5 -22q0 -26 -13 -26q-3 0 -25 5t-55 10t-65 5q-43 0 -63.5 -9t-32.5 -41.5t-12 -99.5q0 -99 19.5 -125t95.5 -26q36 0 67 6t50 11.5t23 5.5q11 0 11 -26q0 -15 -4.5 -21t-19.5 -11q-40 -16 -95 -20v-84
q0 -15 -5.5 -19t-24.5 -4t-24.5 4t-5.5 19v82q-43 1 -69 8t-47 28t-29.5 61t-8.5 104q0 67 11 110t33.5 64t47 28.5t62.5 8.5v72q0 15 5.5 19t24.5 4z" />
    <glyph glyph-name="sterling" unicode="&#xa3;" 
d="M273 302q0 -17 -4.5 -22t-17.5 -5h-81v-57q0 -31 -3.5 -58t-7 -41t-10.5 -34t-8 -25h243q13 0 17.5 -6t4.5 -24t-4.5 -24t-17.5 -6h-290q-17 0 -22.5 4.5t-5.5 17.5q0 9 20 65.5t20 111.5v76h-49q-13 0 -17.5 5t-4.5 22q0 16 4.5 21t17.5 5h49v135q0 81 39 117.5
t117 36.5q62 0 103 -12q12 -3 17.5 -9t5.5 -21q0 -17 -2.5 -21.5t-11.5 -4.5q-2 0 -38.5 5.5t-61.5 5.5q-59 0 -81.5 -22t-22.5 -86v-124h81q13 0 17.5 -5t4.5 -21z" />
    <glyph glyph-name="currency" unicode="&#xa4;" horiz-adv-x="464" 
d="M125 68q-28 0 -28 11q0 7 9 27l24 54q-29 25 -29 110q0 84 29 109l-24 54q-9 21 -9 28q0 11 28 11q20 0 26 -2.5t10 -12.5l25 -56q20 3 45 3q18 0 44 -2l25 55q4 10 10.5 12.5t26.5 2.5q28 0 28 -11q0 -9 -9 -28l-25 -53q30 -26 30 -110q0 -85 -30 -111l25 -53
q9 -20 9 -27q0 -11 -28 -11q-20 0 -26.5 2t-10.5 12l-25 56q-26 -2 -44 -2q-31 0 -44 2l-26 -56q-4 -10 -10 -12t-26 -2zM231 187q45 0 57.5 13.5t12.5 69.5q0 55 -12.5 68.5t-57.5 13.5t-57.5 -13.5t-12.5 -68.5q0 -56 12.5 -69.5t57.5 -13.5z" />
    <glyph glyph-name="yen" unicode="&#xa5;" 
d="M231 0q-20 0 -26.5 4.5t-6.5 18.5v97h-101q-13 0 -17.5 5t-4.5 22t4.5 22t17.5 5h101v59h-101q-13 0 -17.5 5.5t-4.5 21.5q0 17 4.5 22.5t17.5 5.5h81l-141 285q-8 14 -8 23q0 16 32 16q20 0 28 -3t12 -13l127 -281h5l127 281q4 10 12 13t28 3q32 0 32 -16q0 -9 -8 -23
l-141 -285h82q13 0 17.5 -5.5t4.5 -22.5q0 -16 -4.5 -21.5t-17.5 -5.5h-102v-59h102q13 0 17.5 -5t4.5 -22t-4.5 -22t-17.5 -5h-102v-97q0 -14 -6 -18.5t-26 -4.5z" />
    <glyph glyph-name="brokenbar" unicode="&#xa6;" horiz-adv-x="169" 
d="M84 281q-18 0 -23 4t-5 20v339q0 16 5 20.5t23 4.5q19 0 24 -4.5t5 -20.5v-339q0 -16 -5 -20t-24 -4zM84 -189q-18 0 -23 4t-5 20v339q0 16 5 20t23 4q19 0 24 -4t5 -20v-339q0 -16 -5 -20t-24 -4z" />
    <glyph glyph-name="section" unicode="&#xa7;" horiz-adv-x="458" 
d="M52 258q0 80 44 107q-35 31 -35 109q0 47 12.5 77t37.5 43.5t50 18t63 4.5q84 0 149 -19q24 -6 24 -32q0 -17 -3 -22.5t-12 -5.5q-3 0 -24.5 5t-54.5 10t-65 5q-68 0 -90 -15t-22 -70q0 -36 9.5 -52.5t37.5 -28.5l148 -65q49 -21 68 -54.5t19 -85.5q0 -74 -38 -102
q24 -20 33 -48.5t9 -74.5q0 -86 -50 -118.5t-141 -32.5q-96 0 -150 18q-25 8 -25 33q0 18 3.5 23t12.5 5q1 0 51 -10t96 -10q78 0 108 19t30 68q0 44 -11 65t-41 34l-157 68q-48 20 -67 51.5t-19 82.5zM117 263q0 -34 10 -52t37 -30l155 -67q24 14 24 69q0 35 -10 54.5
t-38 31.5l-150 66q-28 -12 -28 -72z" />
    <glyph glyph-name="dieresis" unicode="&#xa8;" horiz-adv-x="268" 
d="M66 577q-22 0 -28.5 4.5t-6.5 20.5v24q0 16 6.5 20.5t28.5 4.5q23 0 29.5 -4.5t6.5 -20.5v-24q0 -16 -6.5 -20.5t-29.5 -4.5zM202 577q-22 0 -29 4.5t-7 20.5v24q0 16 7 20.5t29 4.5t29 -4.5t7 -20.5v-24q0 -16 -7 -20.5t-29 -4.5z" />
    <glyph glyph-name="copyright" unicode="&#xa9;" horiz-adv-x="882" 
d="M441 -70q111 0 179 19t107 68.5t52 118t13 182.5q0 89 -8.5 148t-30 107t-61.5 74t-101 39.5t-150 13.5t-150 -13.5t-101 -39.5t-61.5 -74t-30 -107t-8.5 -148q0 -114 13 -182.5t52 -118t107 -68.5t179 -19zM441 -126q-106 0 -179.5 19t-119 52t-71 90.5t-34 121.5
t-8.5 158t8.5 158t34 121.5t71 90.5t119 52t179.5 19t179.5 -19t119 -52t71 -90.5t34 -121.5t8.5 -158t-8.5 -158t-34 -121.5t-71 -90.5t-119 -52t-179.5 -19zM444 60q-54 0 -85.5 8t-55.5 34t-33.5 75.5t-9.5 132.5q0 71 9.5 120t24.5 76.5t41.5 42t51 18.5t62.5 4
q54 0 119 -18q14 -4 19 -10t5 -22t-3 -21t-10 -5q-1 0 -48 10t-80 10q-51 0 -75 -12.5t-36.5 -55t-12.5 -130.5q0 -130 21 -164.5t105 -34.5q42 0 84.5 11t43.5 11q11 0 11 -26q0 -15 -4.5 -21t-18.5 -11q-61 -22 -125 -22z" />
    <glyph glyph-name="ordfeminine" unicode="&#xaa;" horiz-adv-x="368" 
d="M136 253q-55 0 -78.5 23.5t-23.5 78.5q0 56 26 79.5t94 23.5h100v40q0 41 -14.5 55.5t-54.5 14.5q-36 0 -74 -7.5t-41 -7.5q-12 0 -12 23q0 19 15 25q39 16 112 16q68 0 96 -21.5t28 -84.5v-105q0 -30 3.5 -59.5t7.5 -47.5t4 -21q0 -15 -25 -15q-14 0 -18.5 3t-7.5 15
l-12 48q-32 -76 -125 -76zM145 303q109 0 109 106v9l-115 -5q-30 -2 -40 -13t-10 -44q0 -32 13 -42.5t43 -10.5z" />
    <glyph glyph-name="guillemotleft" unicode="&#xab;" horiz-adv-x="582" 
d="M380 247v-8l146 -126q12 -11 15.5 -18.5t3.5 -25.5q0 -28 -13 -28q-5 0 -21 10l-173 137q-15 12 -20 21.5t-5 33.5t5 33.5t20 21.5l173 137q13 10 21 10q13 0 13 -28q0 -18 -3.5 -25.5t-15.5 -18.5zM105 247v-8l155 -116q12 -10 15.5 -17.5t3.5 -26.5q0 -28 -13 -28
q-5 0 -21 10l-183 128q-15 10 -19.5 20t-4.5 34t4.5 34t19.5 20l183 128q13 10 21 10q13 0 13 -28q0 -19 -3.5 -26.5t-15.5 -17.5z" />
    <glyph glyph-name="logicalnot" unicode="&#xac;" 
d="M350 143q-20 0 -25.5 4.5t-5.5 18.5v79h-217q-13 0 -17.5 6t-4.5 24t4.5 23.5t17.5 5.5h252q17 0 22 -4.5t5 -17.5v-116q0 -14 -5.5 -18.5t-25.5 -4.5z" />
    <glyph glyph-name="registered" unicode="&#xae;" horiz-adv-x="882" 
d="M441 -126q-106 0 -179.5 19t-119 52t-71 90.5t-34 121.5t-8.5 158t8.5 158t34 121.5t71 90.5t119 52t179.5 19t179.5 -19t119 -52t71 -90.5t34 -121.5t8.5 -158t-8.5 -158t-34 -121.5t-71 -90.5t-119 -52t-179.5 -19zM441 -70q111 0 179 19t107 68.5t52 118t13 182.5
q0 89 -8.5 148t-30 107t-61.5 74t-101 39.5t-150 13.5t-150 -13.5t-101 -39.5t-61.5 -74t-30 -107t-8.5 -148q0 -114 13 -182.5t52 -118t107 -68.5t179 -19zM304 70q-20 0 -26.5 4.5t-6.5 18.5v444q0 25 27 29q66 9 137 9q113 0 150.5 -25.5t37.5 -115.5q0 -69 -20.5 -102.5
t-77.5 -45.5l106 -183q7 -12 7 -18q0 -15 -32 -15q-20 0 -27 3t-12 13l-102 193h-128v-186q0 -14 -6.5 -18.5t-26.5 -4.5zM337 512v-180h94q81 0 103 17t22 86q0 52 -23 67t-100 15q-49 0 -96 -5z" />
    <glyph glyph-name="macron" unicode="&#xaf;" horiz-adv-x="252" 
d="M29 610q0 18 4.5 23.5t17.5 5.5h149q14 0 18.5 -5.5t4.5 -23.5t-4.5 -24t-18.5 -6h-149q-13 0 -17.5 6t-4.5 24z" />
    <glyph glyph-name="degree" unicode="&#xb0;" horiz-adv-x="449" 
d="M222 343q-79 0 -104 27.5t-25 107.5q0 42 4 65t17.5 41.5t40 25.5t71.5 7q79 0 104 -27t25 -107q0 -43 -4 -66t-17.5 -41.5t-40 -25.5t-71.5 -7zM152 477q0 -56 13 -70t57 -14q50 0 62 15.5t12 74.5q0 56 -13 70t-57 14q-50 0 -62 -15.5t-12 -74.5z" />
    <glyph glyph-name="plusminus" unicode="&#xb1;" 
d="M85 295q0 18 4.5 23t17.5 5h94v104q0 13 5.5 17.5t23.5 4.5t23 -4.5t5 -17.5v-104h95q13 0 17.5 -5t4.5 -23q0 -17 -4.5 -22t-17.5 -5h-95v-103q0 -14 -5 -18.5t-23 -4.5t-23.5 4.5t-5.5 18.5v103h-94q-13 0 -17.5 5t-4.5 22zM104 66q0 17 4.5 22t17.5 5h208
q14 0 18.5 -5t4.5 -22q0 -18 -4.5 -23t-18.5 -5h-208q-13 0 -17.5 5t-4.5 23z" />
    <glyph glyph-name="twosuperior" unicode="&#xb2;" horiz-adv-x="368" 
d="M117 348h159q11 0 15.5 -5t4.5 -21q0 -15 -4.5 -20.5t-15.5 -5.5h-199q-12 0 -16.5 5t-4.5 20v13q0 21 26 48l107 111q38 40 38 74q0 29 -11 38t-42 9q-29 0 -58 -6.5t-30 -6.5q-8 0 -10.5 4t-2.5 20q0 21 22 27q46 12 85 12q51 0 77.5 -18t26.5 -69q0 -35 -12 -57.5
t-48 -60.5z" />
    <glyph glyph-name="threesuperior" unicode="&#xb3;" horiz-adv-x="378" 
d="M188 291q-43 0 -93 13q-21 6 -21 27q0 15 2.5 19t9.5 4q2 0 35 -6.5t61 -6.5q36 0 52.5 12.5t16.5 46.5q0 30 -18.5 45t-81.5 15q-11 0 -14.5 5t-3.5 18q0 14 4 19.5t14 5.5q55 0 72 13t17 47q0 28 -11.5 37t-45.5 9q-25 0 -55 -6.5t-31 -6.5q-8 0 -11 4.5t-3 19.5
q0 21 23 27q46 12 87 12q51 0 77 -18.5t26 -68.5q0 -83 -72 -94q84 -5 84 -87q0 -105 -120 -105z" />
    <glyph glyph-name="acute" unicode="&#xb4;" horiz-adv-x="195" 
d="M53 540q-25 0 -25 12q0 8 8 22l54 98q4 8 7 11t11 5.5t23 2.5q36 0 36 -13q0 -9 -10 -24l-64 -97q-5 -7 -8 -10t-10.5 -5t-21.5 -2z" />
    <glyph glyph-name="mu" unicode="&#xb5;" horiz-adv-x="495" 
d="M96 -189q-20 0 -26 4t-6 19v634q0 14 6 18.5t26 4.5t26 -4.5t6 -18.5v-337q0 -49 18 -66.5t74 -17.5q77 0 108.5 40t31.5 132v249q0 14 6 18.5t26 4.5t26.5 -4.5t6.5 -18.5v-301q0 -37 6 -72t12 -55.5t6 -23.5q0 -16 -31 -16q-18 0 -23.5 3t-9.5 16l-15 60
q-38 -89 -159 -89q-55 0 -83 17v-173q0 -15 -6 -19t-26 -4z" />
    <glyph glyph-name="paragraph" unicode="&#xb6;" horiz-adv-x="539" 
d="M221 -191q-56 0 -115 10q-13 2 -18.5 9t-5.5 25q0 16 3 21t11 5q1 0 45 -5.5t87 -5.5q75 0 97 34t22 122v528h-48v-318q0 -26 -27 -32q-38 -9 -79 -9q-70 0 -94.5 45t-24.5 156q0 123 30 170.5t113 47.5h254q13 0 18 -6t5 -24t-5 -24t-18 -6h-60v-520q0 -129 -45.5 -176
t-144.5 -47z" />
    <glyph glyph-name="middot" unicode="&#xb7;" horiz-adv-x="168" 
d="M84 232q-22 0 -29 4.5t-7 20.5v28q0 16 7 20.5t29 4.5t29.5 -5t7.5 -20v-28q0 -15 -7.5 -20t-29.5 -5z" />
    <glyph glyph-name="cedilla" unicode="&#xb8;" horiz-adv-x="208" 
d="M101 -197q-28 0 -48 4q-13 2 -18.5 7.5t-5.5 19.5q0 26 15 26q2 0 16 -1.5t29 -1.5q30 0 30 18q0 4 -1 7t-2 5t-4.5 4.5t-5.5 4t-7.5 5t-9.5 5.5q-29 19 -29 53v56h48v-43q0 -17 15 -27q36 -22 46 -35.5t10 -43.5q0 -63 -78 -63z" />
    <glyph glyph-name="onesuperior" unicode="&#xb9;" horiz-adv-x="364" 
d="M82 322q0 15 4 19.5t16 4.5h62v261l-57 -18q-11 -3 -18 -3q-11 0 -11 23q0 21 12 25l69 24q15 4 35 4q15 0 19.5 -4t4.5 -16v-296h64q11 0 15.5 -4.5t4.5 -19.5q0 -16 -4.5 -21t-15.5 -5h-180q-12 0 -16 5t-4 21z" />
    <glyph glyph-name="ordmasculine" unicode="&#xba;" horiz-adv-x="391" 
d="M188 253q-37 0 -58.5 5t-42 21.5t-29.5 54t-9 97.5q0 63 9 101t30.5 56t46.5 23.5t68 5.5q37 0 58 -4.5t42 -21.5t30 -54t9 -97q0 -63 -9 -101t-30.5 -56.5t-46.5 -24t-68 -5.5zM189 302q57 0 76 23t19 106q0 62 -9 91.5t-24.5 37.5t-49.5 8q-39 0 -56.5 -7.5t-27.5 -35
t-10 -85.5q0 -62 9 -92t24.5 -38t48.5 -8z" />
    <glyph glyph-name="guillemotright" unicode="&#xbb;" horiz-adv-x="582" 
d="M269 243q0 -24 -5 -33.5t-20 -21.5l-173 -137q-16 -10 -21 -10q-12 0 -12 28q0 18 3 26t15 18l146 126v8l-146 126q-12 10 -15 18t-3 26q0 28 12 28q8 0 21 -10l173 -137q15 -12 20 -21.5t5 -33.5zM545 243q0 -24 -5 -34t-20 -20l-183 -128q-16 -10 -21 -10q-12 0 -12 28
q0 19 3 27t15 17l155 116v8l-155 116q-12 9 -15 17t-3 27q0 28 12 28q8 0 21 -10l183 -128q15 -10 20 -20t5 -34z" />
    <glyph glyph-name="onequarter" unicode="&#xbc;" horiz-adv-x="706" 
d="M599 0q-16 0 -22 4.5t-6 16.5v60h-160q-14 0 -14 24q0 25 8 37l140 210q9 15 50 15q20 0 26 -4.5t6 -18.5v-216h28q12 0 16 -4.5t4 -19.5t-4 -19t-16 -4h-28v-60q0 -12 -6 -16.5t-22 -4.5zM253 0q-24 0 -24 12q0 8 5 21l214 568q6 17 32 17q24 0 24 -12q0 -7 -5 -21
l-214 -568q-7 -17 -32 -17zM39 561q0 21 12 25l69 23q14 5 35 5q16 0 20.5 -4t4.5 -17v-295h63q11 0 15.5 -4.5t4.5 -19.5q0 -16 -4.5 -21.5t-15.5 -5.5h-179q-12 0 -16 5t-4 22q0 15 4 19.5t16 4.5h61v260l-57 -18q-9 -3 -17 -3q-12 0 -12 24zM574 312l-121 -184h121v184z
" />
    <glyph glyph-name="onehalf" unicode="&#xbd;" horiz-adv-x="715" 
d="M253 0q-24 0 -24 12q0 4 5 21l214 568q6 17 32 17q24 0 24 -12q0 -3 -5 -21l-214 -568q-7 -17 -32 -17zM44 274q0 15 4 19.5t16 4.5h61v260l-57 -18q-9 -3 -17 -3q-12 0 -12 24q0 21 12 25l69 23q14 5 35 5q16 0 20.5 -4t4.5 -17v-295h63q11 0 15.5 -4.5t4.5 -19.5
q0 -16 -4.5 -21.5t-15.5 -5.5h-179q-12 0 -16 5t-4 22zM688 26q0 -15 -4.5 -20.5t-15.5 -5.5h-200q-11 0 -15.5 5t-4.5 20v14q0 21 26 47l106 112q39 42 39 74q0 28 -11.5 37.5t-41.5 9.5q-29 0 -58.5 -6.5t-30.5 -6.5q-7 0 -9.5 3.5t-2.5 19.5q0 13 5 18.5t17 8.5
q46 12 85 12q51 0 77.5 -18t26.5 -69q0 -35 -12 -56.5t-49 -61.5l-107 -111h160q11 0 15.5 -5t4.5 -21z" />
    <glyph glyph-name="threequarters" unicode="&#xbe;" horiz-adv-x="696" 
d="M589 0q-16 0 -22 4.5t-6 16.5v60h-160q-14 0 -14 24q0 25 8 37l140 210q9 15 50 15q20 0 26 -4.5t6 -18.5v-216h28q12 0 16 -4.5t4 -19.5t-4 -19t-16 -4h-28v-60q0 -12 -5.5 -16.5t-22.5 -4.5zM144 243q-50 0 -93 13q-21 6 -21 27q0 15 2.5 19t9.5 4q2 0 35 -6.5t61 -6.5
q36 0 52.5 12.5t16.5 45.5q0 30 -18.5 45.5t-81.5 15.5q-11 0 -14.5 5t-3.5 18q0 14 3.5 19t14.5 5q55 0 72 13t17 47q0 29 -11.5 38t-45.5 9q-25 0 -55 -6.5t-31 -6.5q-6 0 -8.5 1t-4 6t-1.5 16q0 21 22 27q39 12 88 12q51 0 77 -18t26 -68q0 -83 -72 -94q84 -7 84 -87
q0 -105 -120 -105zM243 0q-24 0 -24 12q0 8 5 21l214 568q6 17 32 17q24 0 24 -12q0 -7 -5 -21l-214 -568q-7 -17 -32 -17zM564 312l-121 -184h121v184z" />
    <glyph glyph-name="questiondown" unicode="&#xbf;" horiz-adv-x="357" 
d="M206 477q19 0 25 -4.5t6 -18.5v-33q0 -41 -9 -64t-31 -46l-82 -89q-30 -32 -30 -89q0 -51 21 -65t88 -14q31 0 60.5 5t47.5 10t22 5q9 0 12 -5t3 -22q0 -15 -5.5 -21.5t-18.5 -10.5q-63 -19 -135 -19q-37 0 -61.5 4t-49.5 16.5t-37.5 40.5t-12.5 71q0 47 12.5 74.5
t42.5 59.5l74 80q27 30 27 82v30q0 14 6 18.5t25 4.5zM206 613q22 0 29.5 -5t7.5 -20v-26q0 -15 -7.5 -20t-29.5 -5t-29 4.5t-7 20.5v26q0 16 7 20.5t29 4.5z" />
    <glyph glyph-name="Agrave" unicode="&#xc0;" horiz-adv-x="508" 
d="M50 0q-31 0 -31 15q0 7 4 20l171 550q6 18 16 22.5t44 4.5q35 0 45 -4.5t16 -22.5l170 -550q5 -17 5 -20q0 -15 -31 -15q-20 0 -26.5 3.5t-9.5 13.5l-55 176h-229l-53 -176q-3 -10 -10 -13.5t-26 -3.5zM248 554l-93 -307h198l-93 307h-12zM256 657q-20 0 -26.5 3.5
t-13.5 13.5l-64 97q-9 16 -9 24q0 13 36 13q21 0 27.5 -4t12.5 -15l55 -98q7 -13 7 -22q0 -12 -25 -12z" />
    <glyph glyph-name="Aacute" unicode="&#xc1;" horiz-adv-x="508" 
d="M50 0q-31 0 -31 15q0 7 4 20l171 550q6 18 16 22.5t44 4.5q35 0 45 -4.5t16 -22.5l170 -550q5 -17 5 -20q0 -15 -31 -15q-20 0 -26.5 3.5t-9.5 13.5l-55 176h-229l-53 -176q-3 -10 -10 -13.5t-26 -3.5zM248 554l-93 -307h198l-93 307h-12zM251 657q-25 0 -25 12q0 8 8 22
l54 98q4 8 7 11t11 5.5t23 2.5q36 0 36 -13q0 -9 -10 -24l-64 -97q-5 -7 -8 -10t-10.5 -5t-21.5 -2z" />
    <glyph glyph-name="Acircumflex" unicode="&#xc2;" horiz-adv-x="508" 
d="M50 0q-31 0 -31 15q0 7 4 20l171 550q6 18 16 22.5t44 4.5q35 0 45 -4.5t16 -22.5l170 -550q5 -17 5 -20q0 -15 -31 -15q-20 0 -26.5 3.5t-9.5 13.5l-55 176h-229l-53 -176q-3 -10 -10 -13.5t-26 -3.5zM248 554l-93 -307h198l-93 307h-12zM256 757h-5l-52 -84
q-10 -16 -39 -16q-28 0 -28 12q0 6 9 21l63 102q5 9 12 12.5t25 3.5h25q19 0 26 -3.5t12 -12.5l62 -102q9 -15 9 -21q0 -12 -28 -12q-18 0 -24.5 3t-13.5 13z" />
    <glyph glyph-name="Atilde" unicode="&#xc3;" horiz-adv-x="508" 
d="M50 0q-31 0 -31 15q0 7 4 20l171 550q6 18 16 22.5t44 4.5q35 0 45 -4.5t16 -22.5l170 -550q5 -17 5 -20q0 -15 -31 -15q-20 0 -26.5 3.5t-9.5 13.5l-55 176h-229l-53 -176q-3 -10 -10 -13.5t-26 -3.5zM248 554l-93 -307h198l-93 307h-12zM129 708q0 13 4.5 19.5
t18.5 15.5q28 16 56 16q20 0 51 -10t46 -10q19 0 40 10t23 10q10 0 10 -24q0 -14 -4.5 -20.5t-18.5 -15.5q-28 -16 -56 -16q-20 0 -51 10.5t-46 10.5q-19 0 -40 -10t-23 -10q-6 0 -8 4.5t-2 19.5z" />
    <glyph glyph-name="Adieresis" unicode="&#xc4;" horiz-adv-x="508" 
d="M50 0q-31 0 -31 15q0 7 4 20l171 550q6 18 16 22.5t44 4.5q35 0 45 -4.5t16 -22.5l170 -550q5 -17 5 -20q0 -15 -31 -15q-20 0 -26.5 3.5t-9.5 13.5l-55 176h-229l-53 -176q-3 -10 -10 -13.5t-26 -3.5zM248 554l-93 -307h198l-93 307h-12zM186 696q-22 0 -28.5 4.5
t-6.5 20.5v24q0 16 6.5 20.5t28.5 4.5q23 0 29.5 -4.5t6.5 -20.5v-24q0 -16 -6.5 -20.5t-29.5 -4.5zM322 696q-22 0 -29 4.5t-7 20.5v24q0 16 7 20.5t29 4.5t29 -4.5t7 -20.5v-24q0 -16 -7 -20.5t-29 -4.5z" />
    <glyph glyph-name="Aring" unicode="&#xc5;" horiz-adv-x="508" 
d="M50 0q-31 0 -31 15q0 7 4 20l171 550q6 18 16 22.5t44 4.5q35 0 45 -4.5t16 -22.5l170 -550q5 -17 5 -20q0 -15 -31 -15q-20 0 -26.5 3.5t-9.5 13.5l-55 176h-229l-53 -176q-3 -10 -10 -13.5t-26 -3.5zM248 554l-93 -307h198l-93 307h-12zM254 719q29 0 37 7.5t8 29.5
q0 23 -8 30.5t-37 7.5t-37 -7.5t-8 -30.5q0 -22 8 -29.5t37 -7.5zM254 673q-61 0 -79 18.5t-18 64.5q0 47 18 65.5t79 18.5t79 -18.5t18 -65.5q0 -46 -18 -64.5t-79 -18.5z" />
    <glyph glyph-name="AE" unicode="&#xc6;" horiz-adv-x="720" 
d="M50 0q-31 0 -31 15q0 7 4 20l171 550q6 18 16 22.5t44 4.5h401q13 0 18 -6t5 -24t-5 -24t-18 -6h-258v-199h206q13 0 17.5 -5.5t4.5 -23.5t-4.5 -23.5t-17.5 -5.5h-206v-235h268q13 0 18 -6t5 -24t-5 -24t-18 -6h-305q-17 0 -22 4.5t-5 17.5v171h-194l-53 -176
q-3 -10 -10 -13.5t-26 -3.5zM248 554l-93 -307h178v307h-85z" />
    <glyph glyph-name="Ccedilla" unicode="&#xc7;" horiz-adv-x="451" 
d="M256 -197q-28 0 -48 4q-13 2 -18.5 7.5t-5.5 19.5q0 26 15 26q2 0 16 -1.5t29 -1.5q30 0 30 18q0 4 -1 7t-2 5t-4.5 4.5t-5.5 4t-7.5 5t-9.5 5.5q-29 19 -29 53v33q-43 2 -70 12.5t-50 39t-33 83t-10 140.5v70q0 65 5 111t18 77t28 49.5t41 28t50.5 12t63.5 2.5
q66 0 131 -19q14 -3 19 -9t5 -23q0 -16 -3 -21t-11 -5q-3 0 -22 5t-48.5 10t-59.5 5q-52 0 -77 -5.5t-45 -29.5t-25.5 -69t-5.5 -128v-47q0 -66 5.5 -108.5t15 -68t30 -37.5t42 -15.5t60.5 -3.5q32 0 61 5t47 10t22 5q9 0 11.5 -4.5t2.5 -21.5t-5.5 -23t-18.5 -9
q-62 -17 -126 -19v-19q0 -17 15 -27q36 -22 46 -35.5t10 -43.5q0 -63 -78 -63z" />
    <glyph glyph-name="Egrave" unicode="&#xc8;" horiz-adv-x="455" 
d="M422 30q0 -18 -4.5 -24t-17.5 -6h-306q-17 0 -22.5 4.5t-5.5 17.5v568q0 13 5.5 17.5t22.5 4.5h296q13 0 17.5 -6t4.5 -24t-4.5 -24t-17.5 -6h-259v-199h207q13 0 17.5 -5.5t4.5 -23.5t-4.5 -23.5t-17.5 -5.5h-207v-235h269q13 0 17.5 -6t4.5 -24zM246 657
q-20 0 -26.5 3.5t-13.5 13.5l-64 97q-9 16 -9 24q0 13 36 13q21 0 27.5 -4t12.5 -15l55 -98q7 -13 7 -22q0 -12 -25 -12z" />
    <glyph glyph-name="Eacute" unicode="&#xc9;" horiz-adv-x="455" 
d="M422 30q0 -18 -4.5 -24t-17.5 -6h-306q-17 0 -22.5 4.5t-5.5 17.5v568q0 13 5.5 17.5t22.5 4.5h296q13 0 17.5 -6t4.5 -24t-4.5 -24t-17.5 -6h-259v-199h207q13 0 17.5 -5.5t4.5 -23.5t-4.5 -23.5t-17.5 -5.5h-207v-235h269q13 0 17.5 -6t4.5 -24zM214 657q-25 0 -25 12
q0 8 8 22l54 98q4 8 7 11t11 5.5t23 2.5q36 0 36 -13q0 -9 -10 -24l-64 -97q-7 -10 -13.5 -13.5t-26.5 -3.5z" />
    <glyph glyph-name="Ecircumflex" unicode="&#xca;" horiz-adv-x="455" 
d="M422 30q0 -18 -4.5 -24t-17.5 -6h-306q-17 0 -22.5 4.5t-5.5 17.5v568q0 13 5.5 17.5t22.5 4.5h296q13 0 17.5 -6t4.5 -24t-4.5 -24t-17.5 -6h-259v-199h207q13 0 17.5 -5.5t4.5 -23.5t-4.5 -23.5t-17.5 -5.5h-207v-235h269q13 0 17.5 -6t4.5 -24zM242 757h-5l-52 -84
q-10 -16 -39 -16q-28 0 -28 12q0 6 9 21l63 102q5 9 12 12.5t25 3.5h25q19 0 26 -3.5t12 -12.5l62 -102q9 -15 9 -21q0 -12 -28 -12q-18 0 -24.5 3t-13.5 13z" />
    <glyph glyph-name="Edieresis" unicode="&#xcb;" horiz-adv-x="455" 
d="M422 30q0 -18 -4.5 -24t-17.5 -6h-306q-17 0 -22.5 4.5t-5.5 17.5v568q0 13 5.5 17.5t22.5 4.5h296q13 0 17.5 -6t4.5 -24t-4.5 -24t-17.5 -6h-259v-199h207q13 0 17.5 -5.5t4.5 -23.5t-4.5 -23.5t-17.5 -5.5h-207v-235h269q13 0 17.5 -6t4.5 -24zM172 694
q-22 0 -28.5 4.5t-6.5 20.5v24q0 16 6.5 20.5t28.5 4.5q23 0 29.5 -4.5t6.5 -20.5v-24q0 -16 -6.5 -20.5t-29.5 -4.5zM308 694q-22 0 -29 4.5t-7 20.5v24q0 16 7 20.5t29 4.5t29 -4.5t7 -20.5v-24q0 -16 -7 -20.5t-29 -4.5z" />
    <glyph glyph-name="Igrave" unicode="&#xcc;" horiz-adv-x="197" 
d="M99 0q-20 0 -26.5 4.5t-6.5 18.5v566q0 14 6.5 18.5t26.5 4.5t26 -4.5t6 -18.5v-566q0 -14 -6 -18.5t-26 -4.5zM107 657q-19 0 -26 3.5t-14 13.5l-64 97q-9 16 -9 24q0 13 36 13q21 0 27.5 -4t12.5 -15l55 -98q7 -13 7 -22q0 -12 -25 -12z" />
    <glyph glyph-name="Iacute" unicode="&#xcd;" horiz-adv-x="197" 
d="M99 0q-20 0 -26.5 4.5t-6.5 18.5v566q0 14 6.5 18.5t26.5 4.5t26 -4.5t6 -18.5v-566q0 -14 -6 -18.5t-26 -4.5zM91 657q-25 0 -25 12q0 8 8 22l54 98q4 8 7 11t11 5.5t23 2.5q36 0 36 -13q0 -9 -10 -24l-64 -97q-5 -7 -8 -10t-10.5 -5t-21.5 -2z" />
    <glyph glyph-name="Icircumflex" unicode="&#xce;" horiz-adv-x="197" 
d="M99 0q-20 0 -26.5 4.5t-6.5 18.5v566q0 14 6.5 18.5t26.5 4.5t26 -4.5t6 -18.5v-566q0 -14 -6 -18.5t-26 -4.5zM101 757h-5l-52 -84q-10 -16 -39 -16q-28 0 -28 12q0 6 9 21l63 102q5 9 12 12.5t25 3.5h25q19 0 26 -3.5t12 -12.5l62 -102q9 -15 9 -21q0 -12 -28 -12
q-18 0 -24.5 3t-13.5 13z" />
    <glyph glyph-name="Idieresis" unicode="&#xcf;" horiz-adv-x="197" 
d="M99 0q-20 0 -26.5 4.5t-6.5 18.5v566q0 14 6.5 18.5t26.5 4.5t26 -4.5t6 -18.5v-566q0 -14 -6 -18.5t-26 -4.5zM31 694q-22 0 -28.5 4.5t-6.5 20.5v24q0 16 6.5 20.5t28.5 4.5q23 0 29.5 -4.5t6.5 -20.5v-24q0 -16 -6.5 -20.5t-29.5 -4.5zM167 694q-22 0 -29 4.5t-7 20.5
v24q0 16 7 20.5t29 4.5t29 -4.5t7 -20.5v-24q0 -16 -7 -20.5t-29 -4.5z" />
    <glyph glyph-name="Eth" unicode="&#xd0;" horiz-adv-x="522" 
d="M9 311q0 18 4.5 24t17.5 6h35v239q0 25 27 29q55 8 146 8q46 0 74.5 -2.5t58 -12.5t45 -28.5t29.5 -50t19 -78.5t5 -113v-51q0 -67 -6 -115.5t-19.5 -80t-29.5 -50.5t-43.5 -28.5t-52.5 -12.5t-65 -3q-100 0 -155 7q-19 2 -26 9t-7 21v253h-35q-13 0 -17.5 6t-4.5 24z
M254 50q39 0 60 3.5t41.5 15t29.5 37t14.5 67.5t5.5 108v50q0 80 -7.5 125.5t-29.5 68.5t-48.5 28.5t-79.5 5.5q-64 0 -109 -5v-214h39q14 0 18.5 -5.5t4.5 -23.5t-4.5 -24t-18.5 -6h-39v-226q38 -5 123 -5z" />
    <glyph glyph-name="Ntilde" unicode="&#xd1;" horiz-adv-x="538" 
d="M99 0q-20 0 -26.5 4.5t-6.5 18.5v566q0 14 10 18.5t45 4.5q31 0 41.5 -3.5t17.5 -18.5l217 -506h10v505q0 14 6 18.5t26 4.5t26.5 -4.5t6.5 -18.5v-566q0 -14 -10 -18.5t-44 -4.5q-31 0 -41 4t-17 19l-219 505h-10v-505q0 -14 -6 -18.5t-26 -4.5zM144 717q0 13 4.5 19.5
t18.5 15.5q28 16 56 16q20 0 51 -10t46 -10q19 0 40 10t23 10q10 0 10 -24q0 -14 -4.5 -20.5t-18.5 -15.5q-28 -16 -56 -16q-20 0 -51 10.5t-46 10.5q-19 0 -40 -10t-23 -10q-6 0 -8 4.5t-2 19.5z" />
    <glyph glyph-name="Ograve" unicode="&#xd2;" horiz-adv-x="522" 
d="M261 48q38 0 60.5 4.5t41 17t26.5 39.5t12.5 67t4.5 105v46q0 67 -3.5 105.5t-11 66.5t-25.5 40t-41 16.5t-64 4.5q-38 0 -60.5 -4.5t-41 -17t-26.5 -39.5t-12.5 -67t-4.5 -105v-46q0 -67 3.5 -105.5t11 -66.5t25.5 -40t41 -16.5t64 -4.5zM261 -9q-66 0 -101.5 8.5
t-62.5 39t-36 86.5t-9 153v51q0 67 5 114.5t17.5 79t27.5 50.5t41.5 28.5t51.5 12.5t66 3q44 0 72 -3.5t53.5 -14t39.5 -29.5t25 -52t15 -78t4 -111v-51q0 -66 -5 -113.5t-18 -79t-28 -50.5t-41.5 -28.5t-51.5 -12.5t-65 -3zM284 657q-20 0 -26.5 3.5t-13.5 13.5l-64 97
q-9 16 -9 24q0 13 36 13q21 0 27.5 -4t12.5 -15l55 -98q7 -13 7 -22q0 -12 -25 -12z" />
    <glyph glyph-name="Oacute" unicode="&#xd3;" horiz-adv-x="522" 
d="M261 48q38 0 60.5 4.5t41 17t26.5 39.5t12.5 67t4.5 105v46q0 67 -3.5 105.5t-11 66.5t-25.5 40t-41 16.5t-64 4.5q-38 0 -60.5 -4.5t-41 -17t-26.5 -39.5t-12.5 -67t-4.5 -105v-46q0 -67 3.5 -105.5t11 -66.5t25.5 -40t41 -16.5t64 -4.5zM261 -9q-66 0 -101.5 8.5
t-62.5 39t-36 86.5t-9 153v51q0 67 5 114.5t17.5 79t27.5 50.5t41.5 28.5t51.5 12.5t66 3q44 0 72 -3.5t53.5 -14t39.5 -29.5t25 -52t15 -78t4 -111v-51q0 -66 -5 -113.5t-18 -79t-28 -50.5t-41.5 -28.5t-51.5 -12.5t-65 -3zM236 657q-25 0 -25 12q0 8 8 22l54 98q4 8 7 11
t11 5.5t23 2.5q36 0 36 -13q0 -9 -10 -24l-64 -97q-7 -10 -13.5 -13.5t-26.5 -3.5z" />
    <glyph glyph-name="Ocircumflex" unicode="&#xd4;" horiz-adv-x="522" 
d="M261 48q38 0 60.5 4.5t41 17t26.5 39.5t12.5 67t4.5 105v46q0 67 -3.5 105.5t-11 66.5t-25.5 40t-41 16.5t-64 4.5q-38 0 -60.5 -4.5t-41 -17t-26.5 -39.5t-12.5 -67t-4.5 -105v-46q0 -67 3.5 -105.5t11 -66.5t25.5 -40t41 -16.5t64 -4.5zM261 -9q-66 0 -101.5 8.5
t-62.5 39t-36 86.5t-9 153v51q0 67 5 114.5t17.5 79t27.5 50.5t41.5 28.5t51.5 12.5t66 3q44 0 72 -3.5t53.5 -14t39.5 -29.5t25 -52t15 -78t4 -111v-51q0 -66 -5 -113.5t-18 -79t-28 -50.5t-41.5 -28.5t-51.5 -12.5t-65 -3zM264 757h-5l-52 -84q-10 -16 -39 -16
q-28 0 -28 12q0 6 9 21l63 102q5 9 12 12.5t25 3.5h25q19 0 26 -3.5t12 -12.5l62 -102q9 -15 9 -21q0 -12 -28 -12q-18 0 -24.5 3t-13.5 13z" />
    <glyph glyph-name="Otilde" unicode="&#xd5;" horiz-adv-x="522" 
d="M261 48q38 0 60.5 4.5t41 17t26.5 39.5t12.5 67t4.5 105v46q0 67 -3.5 105.5t-11 66.5t-25.5 40t-41 16.5t-64 4.5q-38 0 -60.5 -4.5t-41 -17t-26.5 -39.5t-12.5 -67t-4.5 -105v-46q0 -67 3.5 -105.5t11 -66.5t25.5 -40t41 -16.5t64 -4.5zM261 -9q-66 0 -101.5 8.5
t-62.5 39t-36 86.5t-9 153v51q0 67 5 114.5t17.5 79t27.5 50.5t41.5 28.5t51.5 12.5t66 3q44 0 72 -3.5t53.5 -14t39.5 -29.5t25 -52t15 -78t4 -111v-51q0 -66 -5 -113.5t-18 -79t-28 -50.5t-41.5 -28.5t-51.5 -12.5t-65 -3zM137 708q0 13 4.5 19.5t18.5 15.5q28 16 56 16
q20 0 51 -10t46 -10q19 0 40 10t23 10q10 0 10 -24q0 -14 -4.5 -20.5t-18.5 -15.5q-28 -16 -56 -16q-20 0 -51 10.5t-46 10.5q-19 0 -40 -10t-23 -10q-6 0 -8 4.5t-2 19.5z" />
    <glyph glyph-name="Odieresis" unicode="&#xd6;" horiz-adv-x="522" 
d="M261 48q38 0 60.5 4.5t41 17t26.5 39.5t12.5 67t4.5 105v46q0 67 -3.5 105.5t-11 66.5t-25.5 40t-41 16.5t-64 4.5q-38 0 -60.5 -4.5t-41 -17t-26.5 -39.5t-12.5 -67t-4.5 -105v-46q0 -67 3.5 -105.5t11 -66.5t25.5 -40t41 -16.5t64 -4.5zM261 -9q-66 0 -101.5 8.5
t-62.5 39t-36 86.5t-9 153v51q0 67 5 114.5t17.5 79t27.5 50.5t41.5 28.5t51.5 12.5t66 3q44 0 72 -3.5t53.5 -14t39.5 -29.5t25 -52t15 -78t4 -111v-51q0 -66 -5 -113.5t-18 -79t-28 -50.5t-41.5 -28.5t-51.5 -12.5t-65 -3zM193 695q-22 0 -28.5 4.5t-6.5 20.5v24
q0 16 6.5 20.5t28.5 4.5q23 0 29.5 -4.5t6.5 -20.5v-24q0 -16 -6.5 -20.5t-29.5 -4.5zM329 695q-22 0 -29 4.5t-7 20.5v24q0 16 7 20.5t29 4.5t29 -4.5t7 -20.5v-24q0 -16 -7 -20.5t-29 -4.5z" />
    <glyph glyph-name="multiply" unicode="&#xd7;" 
d="M89 131q0 6 13 23l91 116l-91 123q-13 17 -13 23q0 14 31 14q30 0 38 -13l69 -100l70 100q9 13 38 13q31 0 31 -14q0 -6 -13 -23l-91 -123l91 -116q13 -17 13 -23q0 -14 -31 -14q-28 0 -38 13l-70 93l-69 -93q-10 -13 -38 -13q-31 0 -31 14z" />
    <glyph glyph-name="Oslash" unicode="&#xd8;" horiz-adv-x="522" 
d="M261 -9q-40 0 -65 3t-51.5 12.5t-41.5 28.5t-28 50.5t-18 79t-5 113.5v51q0 66 4 111t15 78t25 52t39.5 29.5t53.5 14t72 3.5t72 -3.5t53.5 -14t39.5 -29.5t25 -52t15 -78t4 -111v-51q0 -66 -5 -113.5t-18 -79t-28 -50.5t-41.5 -28.5t-51.5 -12.5t-65 -3zM116 327v-46
q0 -96 9 -140l258 376q-14 26 -41.5 34.5t-80.5 8.5q-41 0 -64 -4.5t-41 -16.5t-25.5 -40t-11 -66.5t-3.5 -105.5zM261 48q38 0 60.5 4.5t41 17t26.5 39.5t12.5 67t4.5 105v46q0 85 -5 125l-254 -369q16 -21 42 -28t72 -7z" />
    <glyph glyph-name="Ugrave" unicode="&#xd9;" horiz-adv-x="518" 
d="M259 -9q-102 0 -147.5 42t-45.5 140v416q0 14 6.5 18.5t26.5 4.5t26 -4.5t6 -18.5v-417q0 -67 26.5 -94t101.5 -27t102 27t27 94v417q0 14 6 18.5t26 4.5t26 -4.5t6 -18.5v-416q0 -98 -45.5 -140t-147.5 -42zM283 657q-19 0 -26 3.5t-14 13.5l-64 97q-9 16 -9 24
q0 13 36 13q21 0 27.5 -4t12.5 -15l55 -98q7 -13 7 -22q0 -12 -25 -12z" />
    <glyph glyph-name="Uacute" unicode="&#xda;" horiz-adv-x="518" 
d="M259 -9q-102 0 -147.5 42t-45.5 140v416q0 14 6.5 18.5t26.5 4.5t26 -4.5t6 -18.5v-417q0 -67 26.5 -94t101.5 -27t102 27t27 94v417q0 14 6 18.5t26 4.5t26 -4.5t6 -18.5v-416q0 -98 -45.5 -140t-147.5 -42zM234 657q-25 0 -25 12q0 8 8 22l54 98q4 8 7 11t11 5.5
t23 2.5q36 0 36 -13q0 -9 -10 -24l-64 -97q-7 -10 -13.5 -13.5t-26.5 -3.5z" />
    <glyph glyph-name="Ucircumflex" unicode="&#xdb;" horiz-adv-x="518" 
d="M259 -9q-102 0 -147.5 42t-45.5 140v416q0 14 6.5 18.5t26.5 4.5t26 -4.5t6 -18.5v-417q0 -67 26.5 -94t101.5 -27t102 27t27 94v417q0 14 6 18.5t26 4.5t26 -4.5t6 -18.5v-416q0 -98 -45.5 -140t-147.5 -42zM262 757h-5l-52 -84q-10 -16 -39 -16q-28 0 -28 12q0 6 9 21
l63 102q5 9 12 12.5t25 3.5h25q19 0 26 -3.5t12 -12.5l62 -102q9 -15 9 -21q0 -12 -28 -12q-18 0 -24.5 3t-13.5 13z" />
    <glyph glyph-name="Udieresis" unicode="&#xdc;" horiz-adv-x="518" 
d="M259 -9q-102 0 -147.5 42t-45.5 140v416q0 14 6.5 18.5t26.5 4.5t26 -4.5t6 -18.5v-417q0 -67 26.5 -94t101.5 -27t102 27t27 94v417q0 14 6 18.5t26 4.5t26 -4.5t6 -18.5v-416q0 -98 -45.5 -140t-147.5 -42zM191 695q-22 0 -28.5 4.5t-6.5 20.5v24q0 16 6.5 20.5
t28.5 4.5q23 0 29.5 -4.5t6.5 -20.5v-24q0 -16 -6.5 -20.5t-29.5 -4.5zM327 695q-22 0 -29 4.5t-7 20.5v24q0 16 7 20.5t29 4.5t29 -4.5t7 -20.5v-24q0 -16 -7 -20.5t-29 -4.5z" />
    <glyph glyph-name="Yacute" unicode="&#xdd;" horiz-adv-x="444" 
d="M222 0q-20 0 -26 4.5t-6 18.5v218l-163 331q-8 16 -8 24q0 16 30 16q22 0 30.5 -3t12.5 -13l128 -284h4l129 284q4 10 12 13t29 3q32 0 32 -15q0 -9 -8 -25l-164 -331v-218q0 -14 -6 -18.5t-26 -4.5zM203 657q-25 0 -25 12q0 8 8 22l54 98q4 8 7 11t11 5.5t23 2.5
q36 0 36 -13q0 -9 -10 -24l-64 -97q-5 -7 -8 -10t-10.5 -5t-21.5 -2z" />
    <glyph glyph-name="Thorn" unicode="&#xde;" horiz-adv-x="466" 
d="M99 0q-20 0 -26.5 4.5t-6.5 18.5v566q0 14 6.5 18.5t26.5 4.5t26 -4.5t6 -18.5v-99q78 6 100 6q60 0 94 -5.5t60 -23t35.5 -51t9.5 -90.5q0 -108 -44.5 -153t-161.5 -45h-93v-105q0 -14 -6 -18.5t-26 -4.5zM131 432v-248h94q82 0 110 29.5t28 112.5q0 71 -24.5 91.5
t-109.5 20.5q-40 0 -98 -6z" />
    <glyph glyph-name="germandbls" unicode="&#xdf;" horiz-adv-x="462" 
d="M194 662q81 0 118 -22.5t37 -80.5q0 -40 -25 -104t-25 -87q0 -25 7 -38t25 -26l66 -45q47 -31 47 -118q0 -151 -135 -151q-48 0 -90 14q-15 5 -19.5 11t-4.5 21q0 27 11 27q1 0 34 -7.5t63 -7.5q45 0 60 21.5t15 68.5q0 35 -4.5 51t-23.5 28l-60 38q-52 33 -52 100
q0 38 24 101t24 91q0 38 -20 49t-71 11q-43 0 -54 -13t-11 -67v-504q0 -15 -6 -19t-26 -4t-26 4t-6 19v516q0 67 25.5 95t102.5 28z" />
    <glyph glyph-name="agrave" unicode="&#xe0;" horiz-adv-x="485" 
d="M175 -10q-67 0 -98 32t-31 107t39.5 106.5t136.5 31.5h119v91q0 54 -21 70t-78 16q-47 0 -99.5 -10t-53.5 -10q-13 0 -13 26q0 24 19 30q69 21 152 21q86 0 122 -26.5t36 -106.5v-201q0 -37 6 -72t12 -55.5t6 -23.5q0 -16 -30 -16q-18 0 -23.5 3t-9.5 16l-18 70
q-23 -49 -69.5 -74t-103.5 -25zM191 46q62 0 106 36.5t44 96.5v42l-124 -4q-65 -2 -86 -18.5t-21 -63.5q0 -55 18 -72t63 -17zM263 540q-19 0 -26 3.5t-14 13.5l-64 97q-9 16 -9 24q0 13 36 13q21 0 27.5 -4t12.5 -15l55 -98q7 -13 7 -22q0 -12 -25 -12z" />
    <glyph glyph-name="aacute" unicode="&#xe1;" horiz-adv-x="485" 
d="M175 -10q-67 0 -98 32t-31 107t39.5 106.5t136.5 31.5h119v91q0 54 -21 70t-78 16q-47 0 -99.5 -10t-53.5 -10q-13 0 -13 26q0 24 19 30q69 21 152 21q86 0 122 -26.5t36 -106.5v-201q0 -37 6 -72t12 -55.5t6 -23.5q0 -16 -30 -16q-18 0 -23.5 3t-9.5 16l-18 70
q-23 -49 -69.5 -74t-103.5 -25zM191 46q62 0 106 36.5t44 96.5v42l-124 -4q-65 -2 -86 -18.5t-21 -63.5q0 -55 18 -72t63 -17zM219 540q-25 0 -25 12q0 8 8 22l54 98q4 8 7 11t11 5.5t23 2.5q36 0 36 -13q0 -9 -10 -24l-64 -97q-5 -7 -8 -10t-10.5 -5t-21.5 -2z" />
    <glyph glyph-name="acircumflex" unicode="&#xe2;" horiz-adv-x="485" 
d="M175 -10q-67 0 -98 32t-31 107t39.5 106.5t136.5 31.5h119v91q0 54 -21 70t-78 16q-47 0 -99.5 -10t-53.5 -10q-13 0 -13 26q0 24 19 30q69 21 152 21q86 0 122 -26.5t36 -106.5v-201q0 -37 6 -72t12 -55.5t6 -23.5q0 -16 -30 -16q-18 0 -23.5 3t-9.5 16l-18 70
q-23 -49 -69.5 -74t-103.5 -25zM191 46q62 0 106 36.5t44 96.5v42l-124 -4q-65 -2 -86 -18.5t-21 -63.5q0 -55 18 -72t63 -17zM236 640h-5l-52 -84q-10 -16 -39 -16q-28 0 -28 12q0 6 9 21l63 102q5 9 12 12.5t25 3.5h25q19 0 26 -3.5t12 -12.5l62 -102q9 -15 9 -21
q0 -12 -28 -12q-18 0 -24.5 3t-13.5 13z" />
    <glyph glyph-name="atilde" unicode="&#xe3;" horiz-adv-x="485" 
d="M175 -10q-67 0 -98 32t-31 107t39.5 106.5t136.5 31.5h119v91q0 54 -21 70t-78 16q-47 0 -99.5 -10t-53.5 -10q-13 0 -13 26q0 24 19 30q69 21 152 21q86 0 122 -26.5t36 -106.5v-201q0 -37 6 -72t12 -55.5t6 -23.5q0 -16 -30 -16q-18 0 -23.5 3t-9.5 16l-18 70
q-23 -49 -69.5 -74t-103.5 -25zM191 46q62 0 106 36.5t44 96.5v42l-124 -4q-65 -2 -86 -18.5t-21 -63.5q0 -55 18 -72t63 -17zM109 592q0 13 4.5 19.5t18.5 15.5q28 16 56 16q20 0 51 -10t46 -10q19 0 40 10t23 10q10 0 10 -24q0 -14 -4.5 -20.5t-18.5 -15.5
q-28 -16 -56 -16q-20 0 -51 10.5t-46 10.5q-19 0 -40 -10t-23 -10q-6 0 -8 4.5t-2 19.5z" />
    <glyph glyph-name="adieresis" unicode="&#xe4;" horiz-adv-x="485" 
d="M175 -10q-67 0 -98 32t-31 107t39.5 106.5t136.5 31.5h119v91q0 54 -21 70t-78 16q-47 0 -99.5 -10t-53.5 -10q-13 0 -13 26q0 24 19 30q69 21 152 21q86 0 122 -26.5t36 -106.5v-201q0 -37 6 -72t12 -55.5t6 -23.5q0 -16 -30 -16q-18 0 -23.5 3t-9.5 16l-18 70
q-23 -49 -69.5 -74t-103.5 -25zM191 46q62 0 106 36.5t44 96.5v42l-124 -4q-65 -2 -86 -18.5t-21 -63.5q0 -55 18 -72t63 -17zM165 577q-22 0 -28.5 4.5t-6.5 20.5v24q0 16 6.5 20.5t28.5 4.5q23 0 29.5 -4.5t6.5 -20.5v-24q0 -16 -6.5 -20.5t-29.5 -4.5zM301 577
q-22 0 -29 4.5t-7 20.5v24q0 16 7 20.5t29 4.5t29 -4.5t7 -20.5v-24q0 -16 -7 -20.5t-29 -4.5z" />
    <glyph glyph-name="aring" unicode="&#xe5;" horiz-adv-x="485" 
d="M175 -10q-67 0 -98 32t-31 107t39.5 106.5t136.5 31.5h119v91q0 54 -21 70t-78 16q-47 0 -99.5 -10t-53.5 -10q-13 0 -13 26q0 24 19 30q69 21 152 21q86 0 122 -26.5t36 -106.5v-201q0 -37 6 -72t12 -55.5t6 -23.5q0 -16 -30 -16q-18 0 -23.5 3t-9.5 16l-18 70
q-23 -49 -69.5 -74t-103.5 -25zM191 46q62 0 106 36.5t44 96.5v42l-124 -4q-65 -2 -86 -18.5t-21 -63.5q0 -55 18 -72t63 -17zM232 602q29 0 37 7.5t8 29.5q0 23 -8 30.5t-37 7.5t-37 -7.5t-8 -30.5q0 -22 8 -29.5t37 -7.5zM232 556q-61 0 -79 18.5t-18 64.5q0 47 18 65.5
t79 18.5t79 -18.5t18 -65.5q0 -46 -18 -64.5t-79 -18.5z" />
    <glyph glyph-name="ae" unicode="&#xe6;" horiz-adv-x="747" 
d="M520 -10q-81 0 -119.5 20.5t-48.5 87.5q-21 -53 -69 -80.5t-108 -27.5q-67 0 -98 32t-31 107t39.5 106.5t136.5 31.5h119v91q0 54 -21 70t-78 16q-47 0 -99.5 -10t-53.5 -10q-13 0 -13 26q0 24 19 30q69 21 152 21q57 0 90.5 -10.5t49.5 -39.5q22 30 56.5 40t88.5 10
q56 0 90.5 -13.5t51 -46.5t21 -70t4.5 -103q0 -20 -6.5 -28.5t-25.5 -8.5h-261q0 -44 2.5 -74t8.5 -51t13 -32t22 -17t28.5 -7.5t38.5 -1.5q44 0 81 5.5t57.5 11t23.5 5.5q12 0 12 -26q0 -15 -4.5 -21t-19.5 -11q-59 -22 -149 -22zM191 46q62 0 106 36.5t44 96.5v42l-124 -4
q-65 -2 -86 -18.5t-21 -63.5q0 -55 18 -72t63 -17zM528 445q-50 0 -73.5 -11t-35 -45.5t-13.5 -108.5h228q0 42 -1 61t-6 44.5t-16 35t-31.5 17t-51.5 7.5z" />
    <glyph glyph-name="ccedilla" unicode="&#xe7;" horiz-adv-x="427" 
d="M232 -197q-28 0 -48 4q-13 2 -18.5 7.5t-5.5 19.5q0 26 15 26q2 0 16 -1.5t29 -1.5q30 0 30 18q0 4 -1 7t-2 5t-4.5 4.5t-5.5 4t-7.5 5t-9.5 5.5q-29 19 -29 53v33q-75 7 -105 58t-30 190q0 59 6 103t19 72t28 45.5t39 26.5t45 11.5t53 2.5q52 0 119 -18q14 -4 19 -10
t5 -22q0 -26 -13 -26l-48 10q-48 10 -81 10q-51 0 -75 -12.5t-36.5 -55t-12.5 -130.5q0 -130 21 -164.5t105 -34.5q42 0 85 11t44 11q11 0 11 -26q0 -15 -4.5 -21t-19.5 -11q-59 -22 -126 -22v-18q0 -17 15 -27q36 -22 46 -35.5t10 -43.5q0 -63 -78 -63z" />
    <glyph glyph-name="egrave" unicode="&#xe8;" horiz-adv-x="463" 
d="M250 -10q-58 0 -91 8t-58.5 34t-35 75.5t-9.5 132.5q0 71 9.5 120t24.5 76.5t41.5 42t51.5 18.5t64 4q46 0 77 -10t49 -26.5t27.5 -48t12.5 -64t3 -84.5q0 -20 -6.5 -28.5t-25.5 -8.5h-261q1 -119 24 -151t111 -32q34 0 65.5 5.5t50.5 11t24 5.5q11 0 11 -26
q0 -15 -4.5 -21t-18.5 -11q-60 -22 -136 -22zM245 445q-69 0 -94 -30t-28 -135h228q0 42 -1 61.5t-6 44t-16 34.5t-31.5 17.5t-51.5 7.5zM267 540q-19 0 -26 3.5t-14 13.5l-64 97q-9 16 -9 24q0 13 36 13q21 0 27.5 -4t12.5 -15l55 -98q7 -13 7 -22q0 -12 -25 -12z" />
    <glyph glyph-name="eacute" unicode="&#xe9;" horiz-adv-x="463" 
d="M250 -10q-58 0 -91 8t-58.5 34t-35 75.5t-9.5 132.5q0 71 9.5 120t24.5 76.5t41.5 42t51.5 18.5t64 4q46 0 77 -10t49 -26.5t27.5 -48t12.5 -64t3 -84.5q0 -20 -6.5 -28.5t-25.5 -8.5h-261q1 -119 24 -151t111 -32q34 0 65.5 5.5t50.5 11t24 5.5q11 0 11 -26
q0 -15 -4.5 -21t-18.5 -11q-60 -22 -136 -22zM245 445q-69 0 -94 -30t-28 -135h228q0 42 -1 61.5t-6 44t-16 34.5t-31.5 17.5t-51.5 7.5zM216 540q-25 0 -25 12q0 8 8 22l54 98q4 8 7 11t11 5.5t23 2.5q36 0 36 -13q0 -9 -10 -24l-64 -97q-7 -10 -13.5 -13.5t-26.5 -3.5z
" />
    <glyph glyph-name="ecircumflex" unicode="&#xea;" horiz-adv-x="463" 
d="M250 -10q-58 0 -91 8t-58.5 34t-35 75.5t-9.5 132.5q0 71 9.5 120t24.5 76.5t41.5 42t51.5 18.5t64 4q46 0 77 -10t49 -26.5t27.5 -48t12.5 -64t3 -84.5q0 -20 -6.5 -28.5t-25.5 -8.5h-261q1 -119 24 -151t111 -32q34 0 65.5 5.5t50.5 11t24 5.5q11 0 11 -26
q0 -15 -4.5 -21t-18.5 -11q-60 -22 -136 -22zM245 445q-69 0 -94 -30t-28 -135h228q0 42 -1 61.5t-6 44t-16 34.5t-31.5 17.5t-51.5 7.5zM244 640h-5l-52 -84q-10 -16 -39 -16q-28 0 -28 12q0 6 9 21l63 102q5 9 12 12.5t25 3.5h25q19 0 26 -3.5t12 -12.5l62 -102
q9 -15 9 -21q0 -12 -28 -12q-18 0 -24.5 3t-13.5 13z" />
    <glyph glyph-name="edieresis" unicode="&#xeb;" horiz-adv-x="463" 
d="M250 -10q-58 0 -91 8t-58.5 34t-35 75.5t-9.5 132.5q0 71 9.5 120t24.5 76.5t41.5 42t51.5 18.5t64 4q46 0 77 -10t49 -26.5t27.5 -48t12.5 -64t3 -84.5q0 -20 -6.5 -28.5t-25.5 -8.5h-261q1 -119 24 -151t111 -32q34 0 65.5 5.5t50.5 11t24 5.5q11 0 11 -26
q0 -15 -4.5 -21t-18.5 -11q-60 -22 -136 -22zM245 445q-69 0 -94 -30t-28 -135h228q0 42 -1 61.5t-6 44t-16 34.5t-31.5 17.5t-51.5 7.5zM174 577q-22 0 -28.5 4.5t-6.5 20.5v24q0 16 6.5 20.5t28.5 4.5q23 0 29.5 -4.5t6.5 -20.5v-24q0 -16 -6.5 -20.5t-29.5 -4.5zM310 577
q-22 0 -29 4.5t-7 20.5v24q0 16 7 20.5t29 4.5t29 -4.5t7 -20.5v-24q0 -16 -7 -20.5t-29 -4.5z" />
    <glyph glyph-name="igrave" unicode="&#xec;" horiz-adv-x="201" 
d="M113 540q-19 0 -26 3.5t-14 13.5l-64 97q-9 16 -9 24q0 13 36 13q21 0 27.5 -4t12.5 -15l55 -98q7 -13 7 -22q0 -12 -25 -12zM98 0q-20 0 -26 4t-6 19v445q0 14 6 18.5t26 4.5t26 -4.5t6 -18.5v-445q0 -15 -6 -19t-26 -4z" />
    <glyph glyph-name="iacute" unicode="&#xed;" horiz-adv-x="201" 
d="M84 540q-25 0 -25 12q0 8 8 22l54 98q4 8 7 11t11 5.5t23 2.5q36 0 36 -13q0 -9 -10 -24l-64 -97q-7 -10 -13.5 -13.5t-26.5 -3.5zM98 0q-20 0 -26 4t-6 19v445q0 14 6 18.5t26 4.5t26 -4.5t6 -18.5v-445q0 -15 -6 -19t-26 -4z" />
    <glyph glyph-name="icircumflex" unicode="&#xee;" horiz-adv-x="201" 
d="M99 0q-20 0 -26 4t-6 19v445q0 14 6 18.5t26 4.5t26 -4.5t6 -18.5v-445q0 -15 -6 -19t-26 -4zM103 640h-5l-52 -84q-10 -16 -39 -16q-28 0 -28 12q0 6 9 21l63 102q5 9 12 12.5t25 3.5h25q19 0 26 -3.5t12 -12.5l62 -102q9 -15 9 -21q0 -12 -28 -12q-18 0 -24.5 3
t-13.5 13z" />
    <glyph glyph-name="idieresis" unicode="&#xef;" horiz-adv-x="201" 
d="M32 577q-22 0 -28.5 4.5t-6.5 20.5v24q0 16 6.5 20.5t28.5 4.5q23 0 29.5 -4.5t6.5 -20.5v-24q0 -16 -6.5 -20.5t-29.5 -4.5zM168 577q-22 0 -29 4.5t-7 20.5v24q0 16 7 20.5t29 4.5t29 -4.5t7 -20.5v-24q0 -16 -7 -20.5t-29 -4.5zM98 0q-20 0 -26 4t-6 19v445
q0 14 6 18.5t26 4.5t26 -4.5t6 -18.5v-445q0 -15 -6 -19t-26 -4z" />
    <glyph glyph-name="eth" unicode="&#xf0;" horiz-adv-x="494" 
d="M410 584q0 -10 -10 -12l-47 -12q85 -141 85 -309q0 -149 -44.5 -205t-154.5 -56q-75 0 -112 19.5t-54 72.5t-17 159t17.5 162t53.5 77t102 21q69 0 102 -27q-13 33 -35 72l-50 -12q-10 -2 -12 -2q-7 0 -12 14q-4 12 -4 17q0 9 11 12l42 10q-30 42 -30 50q0 13 22 13
q24 0 33 -10l31 -38l56 14q8 2 12 2q7 0 12 -14q3 -13 3 -18zM241 46q81 0 106 37.5t25 157.5q0 126 -24 164.5t-95 38.5q-87 0 -108.5 -33t-21.5 -161q0 -132 20 -168t98 -36z" />
    <glyph glyph-name="ntilde" unicode="&#xf1;" horiz-adv-x="507" 
d="M112 0q-20 0 -26 4t-6 19v300q0 37 -6 72t-12 55.5t-6 24.5q0 16 30 16q18 0 24 -3.5t9 -15.5l15 -63q38 92 172 92q79 0 107 -31t28 -97v-350q0 -15 -6 -19t-27 -4q-20 0 -26 4t-6 19v336q0 49 -18 67t-73 18q-78 0 -109.5 -40.5t-31.5 -132.5v-248q0 -15 -6 -19t-26 -4
zM137 592q0 13 4.5 19.5t18.5 15.5q28 16 56 16q20 0 51 -10t46 -10q19 0 40 10t23 10q10 0 10 -24q0 -14 -4.5 -20.5t-18.5 -15.5q-28 -16 -56 -16q-20 0 -51 10.5t-46 10.5q-19 0 -40 -10t-23 -10q-6 0 -8 4.5t-2 19.5z" />
    <glyph glyph-name="ograve" unicode="&#xf2;" horiz-adv-x="494" 
d="M239 -10q-75 0 -112 19.5t-54 72.5t-17 159q0 149 44.5 204.5t154.5 55.5q75 0 112 -19t54 -72t17 -159q0 -149 -44.5 -205t-154.5 -56zM241 46q81 0 106 37.5t25 157.5q0 131 -20.5 167t-98.5 36q-81 0 -105.5 -37t-24.5 -157q0 -132 20 -168t98 -36zM268 540
q-20 0 -26.5 3.5t-13.5 13.5l-64 97q-9 16 -9 24q0 13 36 13q21 0 27.5 -4t12.5 -15l55 -98q7 -13 7 -22q0 -12 -25 -12z" />
    <glyph glyph-name="oacute" unicode="&#xf3;" horiz-adv-x="494" 
d="M239 -10q-75 0 -112 19.5t-54 72.5t-17 159q0 149 44.5 204.5t154.5 55.5q75 0 112 -19t54 -72t17 -159q0 -149 -44.5 -205t-154.5 -56zM241 46q81 0 106 37.5t25 157.5q0 131 -20.5 167t-98.5 36q-81 0 -105.5 -37t-24.5 -157q0 -132 20 -168t98 -36zM226 540
q-25 0 -25 12q0 8 8 22l54 98q4 8 7 11t11 5.5t23 2.5q36 0 36 -13q0 -9 -10 -24l-64 -97q-7 -10 -13.5 -13.5t-26.5 -3.5z" />
    <glyph glyph-name="ocircumflex" unicode="&#xf4;" horiz-adv-x="494" 
d="M239 -10q-75 0 -112 19.5t-54 72.5t-17 159q0 149 44.5 204.5t154.5 55.5q75 0 112 -19t54 -72t17 -159q0 -149 -44.5 -205t-154.5 -56zM241 46q81 0 106 37.5t25 157.5q0 131 -20.5 167t-98.5 36q-81 0 -105.5 -37t-24.5 -157q0 -132 20 -168t98 -36zM250 640h-5
l-52 -84q-10 -16 -39 -16q-28 0 -28 12q0 6 9 21l63 102q5 9 12 12.5t25 3.5h25q19 0 26 -3.5t12 -12.5l62 -102q9 -15 9 -21q0 -12 -28 -12q-18 0 -24.5 3t-13.5 13z" />
    <glyph glyph-name="otilde" unicode="&#xf5;" horiz-adv-x="494" 
d="M239 -10q-75 0 -112 19.5t-54 72.5t-17 159q0 149 44.5 204.5t154.5 55.5q75 0 112 -19t54 -72t17 -159q0 -149 -44.5 -205t-154.5 -56zM241 46q81 0 106 37.5t25 157.5q0 131 -20.5 167t-98.5 36q-81 0 -105.5 -37t-24.5 -157q0 -132 20 -168t98 -36zM123 592
q0 13 4.5 19.5t18.5 15.5q28 16 56 16q20 0 51 -10t46 -10q19 0 40 10t23 10q10 0 10 -24q0 -14 -4.5 -20.5t-18.5 -15.5q-28 -16 -56 -16q-20 0 -51 10.5t-46 10.5q-19 0 -40 -10t-23 -10q-6 0 -8 4.5t-2 19.5z" />
    <glyph glyph-name="odieresis" unicode="&#xf6;" horiz-adv-x="494" 
d="M239 -10q-75 0 -112 19.5t-54 72.5t-17 159q0 149 44.5 204.5t154.5 55.5q75 0 112 -19t54 -72t17 -159q0 -149 -44.5 -205t-154.5 -56zM241 46q81 0 106 37.5t25 157.5q0 131 -20.5 167t-98.5 36q-81 0 -105.5 -37t-24.5 -157q0 -132 20 -168t98 -36zM179 577
q-22 0 -28.5 4.5t-6.5 20.5v24q0 16 6.5 20.5t28.5 4.5q23 0 29.5 -4.5t6.5 -20.5v-24q0 -16 -6.5 -20.5t-29.5 -4.5zM315 577q-22 0 -29 4.5t-7 20.5v24q0 16 7 20.5t29 4.5t29 -4.5t7 -20.5v-24q0 -16 -7 -20.5t-29 -4.5z" />
    <glyph glyph-name="divide" unicode="&#xf7;" 
d="M93 270q0 18 4.5 23t18.5 5h229q13 0 17.5 -5t4.5 -23t-4.5 -23.5t-17.5 -5.5h-229q-14 0 -18.5 5.5t-4.5 23.5zM228 372q-20 0 -27 4.5t-7 18.5v27q0 15 7 19t27 4q21 0 28 -4t7 -19v-27q0 -14 -7 -18.5t-28 -4.5zM228 76q-20 0 -27 4t-7 19v27q0 14 7 18.5t27 4.5
q21 0 28 -4.5t7 -18.5v-27q0 -15 -7 -19t-28 -4z" />
    <glyph glyph-name="oslash" unicode="&#xf8;" horiz-adv-x="494" 
d="M239 -10q-75 0 -112 19.5t-54 72.5t-17 159q0 149 44.5 204.5t154.5 55.5q75 0 112 -19t54 -72t17 -159q0 -149 -44.5 -205t-154.5 -56zM241 46q81 0 106 37.5t25 157.5q0 89 -8 129l-213 -299q21 -25 90 -25zM123 250q0 -97 6 -127l213 297q-24 24 -89 24
q-81 0 -105.5 -37t-24.5 -157z" />
    <glyph glyph-name="ugrave" unicode="&#xf9;" horiz-adv-x="497" 
d="M200 -10q-78 0 -106 30.5t-28 96.5v351q0 14 6 18.5t26 4.5t26 -4.5t6 -18.5v-337q0 -49 18 -66.5t73 -17.5q77 0 109 40t32 132v249q0 14 6 18.5t26 4.5t26 -4.5t6 -18.5v-301q0 -37 6 -72t12 -55.5t6 -23.5q0 -16 -30 -16q-18 0 -23.5 3t-9.5 16l-15 60
q-20 -47 -61.5 -68t-110.5 -21zM267 540q-19 0 -26 3.5t-14 13.5l-64 97q-9 16 -9 24q0 13 36 13q21 0 27.5 -4t12.5 -15l55 -98q7 -13 7 -22q0 -12 -25 -12z" />
    <glyph glyph-name="uacute" unicode="&#xfa;" horiz-adv-x="497" 
d="M200 -10q-78 0 -106 30.5t-28 96.5v351q0 14 6 18.5t26 4.5t26 -4.5t6 -18.5v-337q0 -49 18 -66.5t73 -17.5q77 0 109 40t32 132v249q0 14 6 18.5t26 4.5t26 -4.5t6 -18.5v-301q0 -37 6 -72t12 -55.5t6 -23.5q0 -16 -30 -16q-18 0 -23.5 3t-9.5 16l-15 60
q-20 -47 -61.5 -68t-110.5 -21zM226 540q-25 0 -25 12q0 8 8 22l54 98q4 8 7 11t11 5.5t23 2.5q36 0 36 -13q0 -9 -10 -24l-64 -97q-7 -10 -13.5 -13.5t-26.5 -3.5z" />
    <glyph glyph-name="ucircumflex" unicode="&#xfb;" horiz-adv-x="497" 
d="M200 -10q-78 0 -106 30.5t-28 96.5v351q0 14 6 18.5t26 4.5t26 -4.5t6 -18.5v-337q0 -49 18 -66.5t73 -17.5q77 0 109 40t32 132v249q0 14 6 18.5t26 4.5t26 -4.5t6 -18.5v-301q0 -37 6 -72t12 -55.5t6 -23.5q0 -16 -30 -16q-18 0 -23.5 3t-9.5 16l-15 60
q-20 -47 -61.5 -68t-110.5 -21zM249 640h-5l-52 -84q-10 -16 -39 -16q-28 0 -28 12q0 6 9 21l63 102q5 9 12 12.5t25 3.5h25q19 0 26 -3.5t12 -12.5l62 -102q9 -15 9 -21q0 -12 -28 -12q-18 0 -24.5 3t-13.5 13z" />
    <glyph glyph-name="udieresis" unicode="&#xfc;" horiz-adv-x="497" 
d="M200 -10q-78 0 -106 30.5t-28 96.5v351q0 14 6 18.5t26 4.5t26 -4.5t6 -18.5v-337q0 -49 18 -66.5t73 -17.5q77 0 109 40t32 132v249q0 14 6 18.5t26 4.5t26 -4.5t6 -18.5v-301q0 -37 6 -72t12 -55.5t6 -23.5q0 -16 -30 -16q-18 0 -23.5 3t-9.5 16l-15 60
q-20 -47 -61.5 -68t-110.5 -21zM178 577q-22 0 -28.5 4.5t-6.5 20.5v24q0 16 6.5 20.5t28.5 4.5q23 0 29.5 -4.5t6.5 -20.5v-24q0 -16 -6.5 -20.5t-29.5 -4.5zM314 577q-22 0 -29 4.5t-7 20.5v24q0 16 7 20.5t29 4.5t29 -4.5t7 -20.5v-24q0 -16 -7 -20.5t-29 -4.5z" />
    <glyph glyph-name="yacute" unicode="&#xfd;" horiz-adv-x="444" 
d="M28 472q0 10 6 14.5t27 4.5q19 0 25.5 -3t9.5 -13l124 -416h6l122 416q3 10 10 13t25 3q21 0 28 -4t7 -14t-9 -37l-156 -487q-26 -83 -48.5 -111.5t-78.5 -28.5q-44 0 -71 8q-24 7 -24 29q0 16 3 21t12 5q2 0 25.5 -3t47.5 -3q31 0 45 13t25 52l20 69q-18 2 -27.5 12.5
t-17.5 33.5l-123 373q-13 39 -13 53zM203 540q-25 0 -25 12q0 8 8 22l54 98q4 8 7 11t11 5.5t23 2.5q36 0 36 -13q0 -9 -10 -24l-64 -97q-5 -7 -8 -10t-10.5 -5t-21.5 -2z" />
    <glyph glyph-name="thorn" unicode="&#xfe;" horiz-adv-x="525" 
d="M144 628v-197q42 70 154 70q105 0 138 -52.5t33 -205.5q0 -104 -21.5 -160t-60 -74.5t-107.5 -18.5q-102 0 -136 55v-211q0 -15 -6 -19t-26 -4t-26 4t-6 19v794q0 15 6 19t26 4t26 -4t6 -19zM272 46q56 0 82 15.5t37 58t11 131.5q0 120 -21 156.5t-92 36.5
q-77 0 -111 -35t-34 -135v-70q0 -89 25 -123.5t103 -34.5z" />
    <glyph glyph-name="ydieresis" unicode="&#xff;" horiz-adv-x="444" 
d="M28 472q0 10 6 14.5t27 4.5q19 0 25.5 -3t9.5 -13l124 -416h6l122 416q3 10 10 13t25 3q21 0 28 -4t7 -14t-9 -37l-156 -487q-26 -83 -48.5 -111.5t-78.5 -28.5q-44 0 -71 8q-24 7 -24 29q0 16 3 21t12 5q2 0 25.5 -3t47.5 -3q31 0 45 13t25 52l20 69q-18 2 -27.5 12.5
t-17.5 33.5l-123 373q-13 39 -13 53zM156 577q-22 0 -28.5 4.5t-6.5 20.5v24q0 16 6.5 20.5t28.5 4.5q23 0 29.5 -4.5t6.5 -20.5v-24q0 -16 -6.5 -20.5t-29.5 -4.5zM292 577q-22 0 -29 4.5t-7 20.5v24q0 16 7 20.5t29 4.5t29 -4.5t7 -20.5v-24q0 -16 -7 -20.5t-29 -4.5z" />
    <glyph glyph-name="Amacron" unicode="&#x100;" horiz-adv-x="508" 
d="M50 0q-31 0 -31 15q0 7 4 20l171 550q6 18 16 22.5t44 4.5q35 0 45 -4.5t16 -22.5l170 -550q5 -17 5 -20q0 -15 -31 -15q-20 0 -26.5 3.5t-9.5 13.5l-55 176h-229l-53 -176q-3 -10 -10 -13.5t-26 -3.5zM248 554l-93 -307h198l-93 307h-12zM157 727q0 18 4.5 23.5
t17.5 5.5h149q14 0 18.5 -5.5t4.5 -23.5t-4.5 -24t-18.5 -6h-149q-13 0 -17.5 6t-4.5 24z" />
    <glyph glyph-name="amacron" unicode="&#x101;" horiz-adv-x="485" 
d="M175 -10q-67 0 -98 32t-31 107t39.5 106.5t136.5 31.5h119v91q0 54 -21 70t-78 16q-47 0 -99.5 -10t-53.5 -10q-13 0 -13 26q0 24 19 30q69 21 152 21q86 0 122 -26.5t36 -106.5v-201q0 -37 6 -72t12 -55.5t6 -23.5q0 -16 -30 -16q-18 0 -23.5 3t-9.5 16l-18 70
q-23 -49 -69.5 -74t-103.5 -25zM191 46q62 0 106 36.5t44 96.5v42l-124 -4q-65 -2 -86 -18.5t-21 -63.5q0 -55 18 -72t63 -17zM136 610q0 18 4.5 23.5t17.5 5.5h149q14 0 18.5 -5.5t4.5 -23.5t-4.5 -24t-18.5 -6h-149q-13 0 -17.5 6t-4.5 24z" />
    <glyph glyph-name="Abreve" unicode="&#x102;" horiz-adv-x="508" 
d="M50 0q-31 0 -31 15q0 7 4 20l171 550q6 18 16 22.5t44 4.5q35 0 45 -4.5t16 -22.5l170 -550q5 -17 5 -20q0 -15 -31 -15q-20 0 -26.5 3.5t-9.5 13.5l-55 176h-229l-53 -176q-3 -10 -10 -13.5t-26 -3.5zM248 554l-93 -307h198l-93 307h-12zM254 674q-61 0 -79 18.5
t-18 65.5q0 15 4.5 19t22.5 4q17 0 21.5 -3.5t5.5 -17.5q0 -23 7 -29.5t36 -6.5q30 0 37 6.5t7 29.5q1 14 5 17.5t22 3.5t22.5 -4t4.5 -19q0 -47 -18.5 -65.5t-79.5 -18.5z" />
    <glyph glyph-name="abreve" unicode="&#x103;" horiz-adv-x="485" 
d="M175 -10q-67 0 -98 32t-31 107t39.5 106.5t136.5 31.5h119v91q0 54 -21 70t-78 16q-47 0 -99.5 -10t-53.5 -10q-13 0 -13 26q0 24 19 30q69 21 152 21q86 0 122 -26.5t36 -106.5v-201q0 -37 6 -72t12 -55.5t6 -23.5q0 -16 -30 -16q-18 0 -23.5 3t-9.5 16l-18 70
q-23 -49 -69.5 -74t-103.5 -25zM191 46q62 0 106 36.5t44 96.5v42l-124 -4q-65 -2 -86 -18.5t-21 -63.5q0 -55 18 -72t63 -17zM232 557q-61 0 -79 18.5t-18 65.5q0 15 4.5 19t22.5 4q17 0 21.5 -3.5t5.5 -17.5q0 -23 7 -29.5t36 -6.5q30 0 37 6.5t7 29.5q1 14 5 17.5t22 3.5
t22.5 -4t4.5 -19q0 -47 -18.5 -65.5t-79.5 -18.5z" />
    <glyph glyph-name="Aogonek" unicode="&#x104;" horiz-adv-x="508" 
d="M425 -191q-34 0 -49.5 16t-15.5 52q0 55 74 125q-8 3 -11 15l-55 176h-229l-53 -176q-3 -10 -10 -13.5t-26 -3.5q-31 0 -31 15q0 7 4 20l171 550q6 18 16 22.5t44 4.5q35 0 45 -4.5t16 -22.5l170 -550q5 -17 5 -20q0 -17 -27 -51q-41 -48 -41 -75q0 -15 4 -20t17 -5
q11 0 19.5 1.5t12.5 1.5q15 0 15 -25q0 -13 -5.5 -18.5t-19.5 -9.5q-20 -5 -40 -5zM248 554l-93 -307h198l-93 307h-12z" />
    <glyph glyph-name="aogonek" unicode="&#x105;" horiz-adv-x="485" 
d="M365 -191q-65 0 -65 68q0 31 16.5 59t55.5 69q-4 5 -6 14l-18 70q-23 -49 -69.5 -74t-103.5 -25q-67 0 -98 32t-31 107t39.5 106.5t136.5 31.5h119v91q0 54 -21 70t-78 16q-47 0 -99.5 -10t-53.5 -10q-13 0 -13 26q0 24 19 30q69 21 152 21q86 0 122 -26.5t36 -106.5
v-201q0 -37 6 -72t12 -55.5t6 -23.5q0 -17 -28 -51q-38 -48 -38 -76q0 -15 4 -20t16 -5q11 0 19.5 1.5t12.5 1.5q15 0 15 -25q0 -13 -5 -18.5t-19 -9.5q-23 -5 -41 -5zM191 46q62 0 106 36.5t44 96.5v42l-124 -4q-65 -2 -86 -18.5t-21 -63.5q0 -55 18 -72t63 -17z" />
    <glyph glyph-name="Cacute" unicode="&#x106;" horiz-adv-x="451" 
d="M257 -9q-28 0 -46 1t-40 5t-35.5 12t-29 21t-24 33.5t-16.5 49t-11 67t-3 87.5v70q0 65 5 111t18 77t28 49.5t41 28t50.5 12t63.5 2.5q66 0 131 -19q14 -3 19 -9t5 -23q0 -16 -3 -21t-11 -5q-3 0 -22 5t-48.5 10t-59.5 5q-52 0 -77 -5.5t-45 -29.5t-25.5 -69t-5.5 -128
v-47q0 -66 5.5 -108.5t15 -68t30 -37.5t42 -15.5t60.5 -3.5q32 0 61 5t47 10t22 5q9 0 11.5 -4.5t2.5 -21.5t-5.5 -23t-18.5 -9q-65 -19 -132 -19zM238 657q-25 0 -25 12q0 8 8 22l54 98q4 8 7 11t11 5.5t23 2.5q36 0 36 -13q0 -9 -10 -24l-64 -97q-7 -10 -13.5 -13.5
t-26.5 -3.5z" />
    <glyph glyph-name="cacute" unicode="&#x107;" horiz-adv-x="427" 
d="M240 -10q-54 0 -85 8t-55.5 34t-34 75.5t-9.5 132.5q0 59 6 103t19 72t28 45.5t39 26.5t45 11.5t53 2.5q52 0 119 -18q14 -4 19 -10t5 -22q0 -26 -13 -26l-48 10q-48 10 -81 10q-51 0 -75 -12.5t-36.5 -55t-12.5 -130.5q0 -130 21 -164.5t105 -34.5q42 0 85 11t44 11
q11 0 11 -26q0 -15 -4.5 -21t-19.5 -11q-59 -22 -125 -22zM219 540q-25 0 -25 12q0 8 8 22l54 98q4 8 7 11t11 5.5t23 2.5q36 0 36 -13q0 -9 -10 -24l-64 -97q-5 -7 -8 -10t-10.5 -5t-21.5 -2z" />
    <glyph glyph-name="Ccircumflex" unicode="&#x108;" horiz-adv-x="451" 
d="M257 -9q-28 0 -46 1t-40 5t-35.5 12t-29 21t-24 33.5t-16.5 49t-11 67t-3 87.5v70q0 65 5 111t18 77t28 49.5t41 28t50.5 12t63.5 2.5q66 0 131 -19q14 -3 19 -9t5 -23q0 -16 -3 -21t-11 -5q-3 0 -22 5t-48.5 10t-59.5 5q-52 0 -77 -5.5t-45 -29.5t-25.5 -69t-5.5 -128
v-47q0 -66 5.5 -108.5t15 -68t30 -37.5t42 -15.5t60.5 -3.5q32 0 61 5t47 10t22 5q9 0 11.5 -4.5t2.5 -21.5t-5.5 -23t-18.5 -9q-65 -19 -132 -19zM244 757h-5l-52 -84q-10 -16 -39 -16q-28 0 -28 12q0 6 9 21l63 102q5 9 12 12.5t25 3.5h25q19 0 26 -3.5t12 -12.5l62 -102
q9 -15 9 -21q0 -12 -28 -12q-18 0 -24.5 3t-13.5 13z" />
    <glyph glyph-name="ccircumflex" unicode="&#x109;" horiz-adv-x="427" 
d="M240 -10q-54 0 -85 8t-55.5 34t-34 75.5t-9.5 132.5q0 59 6 103t19 72t28 45.5t39 26.5t45 11.5t53 2.5q52 0 119 -18q14 -4 19 -10t5 -22q0 -26 -13 -26l-48 10q-48 10 -81 10q-51 0 -75 -12.5t-36.5 -55t-12.5 -130.5q0 -130 21 -164.5t105 -34.5q42 0 85 11t44 11
q11 0 11 -26q0 -15 -4.5 -21t-19.5 -11q-59 -22 -125 -22zM243 640h-5l-52 -84q-10 -16 -39 -16q-28 0 -28 12q0 6 9 21l63 102q5 9 12 12.5t25 3.5h25q19 0 26 -3.5t12 -12.5l62 -102q9 -15 9 -21q0 -12 -28 -12q-18 0 -24.5 3t-13.5 13z" />
    <glyph glyph-name="Cdotaccent" unicode="&#x10a;" horiz-adv-x="451" 
d="M257 -9q-28 0 -46 1t-40 5t-35.5 12t-29 21t-24 33.5t-16.5 49t-11 67t-3 87.5v70q0 65 5 111t18 77t28 49.5t41 28t50.5 12t63.5 2.5q66 0 131 -19q14 -3 19 -9t5 -23q0 -16 -3 -21t-11 -5q-3 0 -22 5t-48.5 10t-59.5 5q-52 0 -77 -5.5t-45 -29.5t-25.5 -69t-5.5 -128
v-47q0 -66 5.5 -108.5t15 -68t30 -37.5t42 -15.5t60.5 -3.5q32 0 61 5t47 10t22 5q9 0 11.5 -4.5t2.5 -21.5t-5.5 -23t-18.5 -9q-65 -19 -132 -19zM241 694q-23 0 -30 4.5t-7 20.5v24q0 16 7 20.5t30 4.5t30 -4.5t7 -20.5v-24q0 -16 -7 -20.5t-30 -4.5z" />
    <glyph glyph-name="cdotaccent" unicode="&#x10b;" horiz-adv-x="427" 
d="M240 -10q-54 0 -85 8t-55.5 34t-34 75.5t-9.5 132.5q0 59 6 103t19 72t28 45.5t39 26.5t45 11.5t53 2.5q52 0 119 -18q14 -4 19 -10t5 -22q0 -26 -13 -26l-48 10q-48 10 -81 10q-51 0 -75 -12.5t-36.5 -55t-12.5 -130.5q0 -130 21 -164.5t105 -34.5q42 0 85 11t44 11
q11 0 11 -26q0 -15 -4.5 -21t-19.5 -11q-59 -22 -125 -22zM240 577q-23 0 -30 4.5t-7 20.5v24q0 16 7 20.5t30 4.5t30 -4.5t7 -20.5v-24q0 -16 -7 -20.5t-30 -4.5z" />
    <glyph glyph-name="Ccaron" unicode="&#x10c;" horiz-adv-x="451" 
d="M257 -9q-28 0 -46 1t-40 5t-35.5 12t-29 21t-24 33.5t-16.5 49t-11 67t-3 87.5v70q0 65 5 111t18 77t28 49.5t41 28t50.5 12t63.5 2.5q66 0 131 -19q14 -3 19 -9t5 -23q0 -16 -3 -21t-11 -5q-3 0 -22 5t-48.5 10t-59.5 5q-52 0 -77 -5.5t-45 -29.5t-25.5 -69t-5.5 -128
v-47q0 -66 5.5 -108.5t15 -68t30 -37.5t42 -15.5t60.5 -3.5q32 0 61 5t47 10t22 5q9 0 11.5 -4.5t2.5 -21.5t-5.5 -23t-18.5 -9q-65 -19 -132 -19zM117 795q0 13 28 13q17 0 24 -3.5t14 -13.5l53 -83h5l52 83q10 17 39 17q28 0 28 -13q0 -6 -9 -21l-63 -102q-6 -9 -12.5 -12
t-24.5 -3h-25q-18 0 -25 3t-13 12l-62 102q-9 15 -9 21z" />
    <glyph glyph-name="ccaron" unicode="&#x10d;" horiz-adv-x="427" 
d="M240 -10q-54 0 -85 8t-55.5 34t-34 75.5t-9.5 132.5q0 59 6 103t19 72t28 45.5t39 26.5t45 11.5t53 2.5q52 0 119 -18q14 -4 19 -10t5 -22q0 -26 -13 -26l-48 10q-48 10 -81 10q-51 0 -75 -12.5t-36.5 -55t-12.5 -130.5q0 -130 21 -164.5t105 -34.5q42 0 85 11t44 11
q11 0 11 -26q0 -15 -4.5 -21t-19.5 -11q-59 -22 -125 -22zM119 678q0 13 28 13q17 0 24 -3.5t14 -13.5l53 -83h5l52 83q10 17 39 17q28 0 28 -13q0 -6 -9 -21l-63 -102q-6 -9 -12.5 -12t-24.5 -3h-25q-18 0 -25 3t-13 12l-62 102q-9 15 -9 21z" />
    <glyph glyph-name="Dcaron" unicode="&#x10e;" horiz-adv-x="522" 
d="M254 50q39 0 60 3.5t41.5 15t29.5 37t14.5 67.5t5.5 108v50q0 80 -7.5 125.5t-29.5 68.5t-48.5 28.5t-79.5 5.5q-64 0 -109 -5v-499q38 -5 123 -5zM254 -9q-100 0 -155 7q-19 2 -26 9t-7 21v552q0 24 27 29q58 8 146 8q46 0 74.5 -2.5t58 -12.5t45 -28.5t29.5 -50
t19 -78.5t5 -113v-51q0 -67 -6 -115.5t-19.5 -80t-29.5 -50.5t-43.5 -28.5t-52.5 -12.5t-65 -3zM135 795q0 13 28 13q17 0 24 -3.5t14 -13.5l53 -83h5l52 83q10 17 39 17q28 0 28 -13q0 -6 -9 -21l-63 -102q-6 -9 -12.5 -12t-24.5 -3h-25q-18 0 -25 3t-13 12l-62 102
q-9 15 -9 21z" />
    <glyph glyph-name="dcaron" unicode="&#x10f;" horiz-adv-x="628" 
d="M227 -10q-105 0 -138 52.5t-33 205.5q0 104 21.5 160t60 74.5t107.5 18.5q101 0 136 -57v184q0 15 6 19t26 4t26 -4t6 -19v-461q0 -37 6 -72t12 -55.5t6 -23.5q0 -16 -30 -16q-18 0 -23.5 3t-9.5 16l-14 55q-35 -84 -165 -84zM236 46q79 0 112 30t33 124v86q0 90 -25 124
t-103 34q-81 0 -105.5 -37.5t-24.5 -166.5q0 -121 21 -157.5t92 -36.5zM558 651q21 0 27.5 -5t6.5 -20v-27q0 -31 -11 -72l-17 -65q-4 -12 -10.5 -16t-21.5 -4q-13 0 -17 3t-4 11q0 5 6.5 49t6.5 75v46q0 15 6.5 20t27.5 5z" />
    <glyph glyph-name="Dcroat" unicode="&#x110;" horiz-adv-x="522" 
d="M254 -9q-100 0 -155 7q-19 2 -26 9t-7 21v253h-34q-14 0 -18.5 6t-4.5 24t4.5 24t18.5 6h34v239q0 25 27 29q58 8 146 8q46 0 74.5 -2.5t58 -12.5t45 -28.5t29.5 -50t19 -78.5t5 -113v-51q0 -67 -6 -115.5t-19.5 -80t-29.5 -50.5t-43.5 -28.5t-52.5 -12.5t-65 -3zM254 50
q39 0 60 3.5t41.5 15t29.5 37t14.5 67.5t5.5 108v50q0 80 -7.5 125.5t-29.5 68.5t-48.5 28.5t-79.5 5.5q-64 0 -109 -5v-214h92q13 0 17.5 -5.5t4.5 -23.5t-4.5 -24t-17.5 -6h-92v-226q38 -5 123 -5z" />
    <glyph glyph-name="dcroat" unicode="&#x111;" horiz-adv-x="516" 
d="M227 -10q-105 0 -138 52.5t-33 205.5q0 104 21.5 160t60 74.5t107.5 18.5q101 0 136 -57v96h-40q-12 0 -16 4.5t-4 19.5q0 16 4 20.5t16 4.5h40v39q0 15 6 19t26 4t26 -4t6 -19v-39h47q11 0 15 -5t4 -20t-4 -20t-15 -5h-47v-372q0 -37 6 -72t12 -55.5t6 -23.5
q0 -16 -30 -16q-18 0 -23.5 3t-9.5 16l-14 55q-35 -84 -165 -84zM236 46q79 0 112 30t33 124v86q0 90 -25 124t-103 34q-81 0 -105.5 -37.5t-24.5 -166.5q0 -121 21 -157.5t92 -36.5z" />
    <glyph glyph-name="Emacron" unicode="&#x112;" horiz-adv-x="455" 
d="M422 30q0 -18 -4.5 -24t-17.5 -6h-306q-17 0 -22.5 4.5t-5.5 17.5v568q0 13 5.5 17.5t22.5 4.5h296q13 0 17.5 -6t4.5 -24t-4.5 -24t-17.5 -6h-259v-199h207q13 0 17.5 -5.5t4.5 -23.5t-4.5 -23.5t-17.5 -5.5h-207v-235h269q13 0 17.5 -6t4.5 -24zM144 727q0 18 4.5 23.5
t17.5 5.5h149q14 0 18.5 -5.5t4.5 -23.5t-4.5 -24t-18.5 -6h-149q-13 0 -17.5 6t-4.5 24z" />
    <glyph glyph-name="emacron" unicode="&#x113;" horiz-adv-x="463" 
d="M250 -10q-58 0 -91 8t-58.5 34t-35 75.5t-9.5 132.5q0 71 9.5 120t24.5 76.5t41.5 42t51.5 18.5t64 4q46 0 77 -10t49 -26.5t27.5 -48t12.5 -64t3 -84.5q0 -20 -6.5 -28.5t-25.5 -8.5h-261q1 -119 24 -151t111 -32q34 0 65.5 5.5t50.5 11t24 5.5q11 0 11 -26
q0 -15 -4.5 -21t-18.5 -11q-60 -22 -136 -22zM245 445q-69 0 -94 -30t-28 -135h228q0 42 -1 61.5t-6 44t-16 34.5t-31.5 17.5t-51.5 7.5zM145 610q0 18 4.5 23.5t17.5 5.5h149q14 0 18.5 -5.5t4.5 -23.5t-4.5 -24t-18.5 -6h-149q-13 0 -17.5 6t-4.5 24z" />
    <glyph glyph-name="Ebreve" unicode="&#x114;" horiz-adv-x="455" 
d="M422 30q0 -18 -4.5 -24t-17.5 -6h-306q-17 0 -22.5 4.5t-5.5 17.5v568q0 13 5.5 17.5t22.5 4.5h296q13 0 17.5 -6t4.5 -24t-4.5 -24t-17.5 -6h-259v-199h207q13 0 17.5 -5.5t4.5 -23.5t-4.5 -23.5t-17.5 -5.5h-207v-235h269q13 0 17.5 -6t4.5 -24zM240 683
q-61 0 -79 18.5t-18 65.5q0 15 4.5 19t22.5 4q17 0 21.5 -3.5t5.5 -17.5q0 -23 7 -29.5t36 -6.5q30 0 37 6.5t7 29.5q1 14 5 17.5t22 3.5t22.5 -4t4.5 -19q0 -47 -18.5 -65.5t-79.5 -18.5z" />
    <glyph glyph-name="ebreve" unicode="&#x115;" horiz-adv-x="463" 
d="M250 -10q-58 0 -91 8t-58.5 34t-35 75.5t-9.5 132.5q0 71 9.5 120t24.5 76.5t41.5 42t51.5 18.5t64 4q46 0 77 -10t49 -26.5t27.5 -48t12.5 -64t3 -84.5q0 -20 -6.5 -28.5t-25.5 -8.5h-261q1 -119 24 -151t111 -32q34 0 65.5 5.5t50.5 11t24 5.5q11 0 11 -26
q0 -15 -4.5 -21t-18.5 -11q-60 -22 -136 -22zM245 445q-69 0 -94 -30t-28 -135h228q0 42 -1 61.5t-6 44t-16 34.5t-31.5 17.5t-51.5 7.5zM241 557q-61 0 -79 18.5t-18 65.5q0 15 4.5 19t22.5 4q17 0 21.5 -3.5t5.5 -17.5q0 -23 7 -29.5t36 -6.5q30 0 37 6.5t7 29.5
q1 14 5 17.5t22 3.5t22.5 -4t4.5 -19q0 -47 -18.5 -65.5t-79.5 -18.5z" />
    <glyph glyph-name="Edotaccent" unicode="&#x116;" horiz-adv-x="455" 
d="M422 30q0 -18 -4.5 -24t-17.5 -6h-306q-17 0 -22.5 4.5t-5.5 17.5v568q0 13 5.5 17.5t22.5 4.5h296q13 0 17.5 -6t4.5 -24t-4.5 -24t-17.5 -6h-259v-199h207q13 0 17.5 -5.5t4.5 -23.5t-4.5 -23.5t-17.5 -5.5h-207v-235h269q13 0 17.5 -6t4.5 -24zM240 695q-23 0 -30 4.5
t-7 20.5v24q0 16 7 20.5t30 4.5t30 -4.5t7 -20.5v-24q0 -16 -7 -20.5t-30 -4.5z" />
    <glyph glyph-name="edotaccent" unicode="&#x117;" horiz-adv-x="463" 
d="M250 -10q-58 0 -91 8t-58.5 34t-35 75.5t-9.5 132.5q0 71 9.5 120t24.5 76.5t41.5 42t51.5 18.5t64 4q46 0 77 -10t49 -26.5t27.5 -48t12.5 -64t3 -84.5q0 -20 -6.5 -28.5t-25.5 -8.5h-261q1 -119 24 -151t111 -32q34 0 65.5 5.5t50.5 11t24 5.5q11 0 11 -26
q0 -15 -4.5 -21t-18.5 -11q-60 -22 -136 -22zM245 445q-69 0 -94 -30t-28 -135h228q0 42 -1 61.5t-6 44t-16 34.5t-31.5 17.5t-51.5 7.5zM241 577q-23 0 -30 4.5t-7 20.5v24q0 16 7 20.5t30 4.5t30 -4.5t7 -20.5v-24q0 -16 -7 -20.5t-30 -4.5z" />
    <glyph glyph-name="Eogonek" unicode="&#x118;" horiz-adv-x="455" 
d="M360 324q0 -18 -4.5 -23.5t-17.5 -5.5h-207v-235h269q13 0 17.5 -6t4.5 -24q0 -26 -27 -61q-40 -54 -40 -80q0 -15 4 -20t16 -5q11 0 20 1.5t13 1.5q8 0 11 -5t3 -20q0 -14 -5.5 -19.5t-18.5 -8.5q-20 -5 -41 -5q-33 0 -48.5 16t-15.5 52q0 30 14.5 55t51.5 68h-265
q-17 0 -22.5 4.5t-5.5 17.5v568q0 13 5.5 17.5t22.5 4.5h296q13 0 17.5 -6t4.5 -24t-4.5 -24t-17.5 -6h-259v-199h207q13 0 17.5 -5.5t4.5 -23.5z" />
    <glyph glyph-name="eogonek" unicode="&#x119;" horiz-adv-x="463" 
d="M344 -191q-33 0 -48.5 16t-15.5 52q0 31 15 58t49 65q-48 -10 -94 -10q-58 0 -91 8t-58.5 34t-35 75.5t-9.5 132.5q0 71 9.5 120t24.5 76.5t41.5 42t51.5 18.5t64 4q46 0 77 -10t49 -26.5t27.5 -48t12.5 -64t3 -84.5q0 -20 -6.5 -28.5t-25.5 -8.5h-261q1 -119 24 -151
t111 -32q34 0 65.5 5.5t50.5 11t24 5.5q11 0 11 -26q0 -19 -5.5 -32.5t-25.5 -42.5q-36 -54 -36 -80q0 -15 4 -20t16 -5q11 0 20 1.5t13 1.5q8 0 11 -5t3 -20q0 -14 -5.5 -19.5t-18.5 -8.5q-22 -5 -41 -5zM245 445q-69 0 -94 -30t-28 -135h228q0 42 -1 61.5t-6 44t-16 34.5
t-31.5 17.5t-51.5 7.5z" />
    <glyph glyph-name="Ecaron" unicode="&#x11a;" horiz-adv-x="455" 
d="M422 30q0 -18 -4.5 -24t-17.5 -6h-306q-17 0 -22.5 4.5t-5.5 17.5v568q0 13 5.5 17.5t22.5 4.5h296q13 0 17.5 -6t4.5 -24t-4.5 -24t-17.5 -6h-259v-199h207q13 0 17.5 -5.5t4.5 -23.5t-4.5 -23.5t-17.5 -5.5h-207v-235h269q13 0 17.5 -6t4.5 -24zM119 795q0 13 28 13
q17 0 24 -3.5t14 -13.5l53 -83h5l52 83q10 17 39 17q28 0 28 -13q0 -6 -9 -21l-63 -102q-6 -9 -12.5 -12t-24.5 -3h-25q-18 0 -25 3t-13 12l-62 102q-9 15 -9 21z" />
    <glyph glyph-name="ecaron" unicode="&#x11b;" horiz-adv-x="463" 
d="M250 -10q-58 0 -91 8t-58.5 34t-35 75.5t-9.5 132.5q0 71 9.5 120t24.5 76.5t41.5 42t51.5 18.5t64 4q46 0 77 -10t49 -26.5t27.5 -48t12.5 -64t3 -84.5q0 -20 -6.5 -28.5t-25.5 -8.5h-261q1 -119 24 -151t111 -32q34 0 65.5 5.5t50.5 11t24 5.5q11 0 11 -26
q0 -15 -4.5 -21t-18.5 -11q-60 -22 -136 -22zM245 445q-69 0 -94 -30t-28 -135h228q0 42 -1 61.5t-6 44t-16 34.5t-31.5 17.5t-51.5 7.5zM120 678q0 13 28 13q17 0 24 -3.5t14 -13.5l53 -83h5l52 83q10 17 39 17q28 0 28 -13q0 -6 -9 -21l-63 -102q-6 -9 -12.5 -12t-24.5 -3
h-25q-18 0 -25 3t-13 12l-62 102q-9 15 -9 21z" />
    <glyph glyph-name="Gcircumflex" unicode="&#x11c;" horiz-adv-x="488" 
d="M245 -9q-36 0 -57.5 2t-47 10.5t-40 26.5t-28 48t-19 77t-5.5 112v70q0 65 5 111t18 77t28 49.5t41 28t50.5 12t63.5 2.5q76 0 141 -19q14 -3 19 -9t5 -23q0 -16 -3 -21t-11 -5q-3 0 -24.5 5t-53.5 10t-62 5q-52 0 -77 -5.5t-45 -29.5t-25.5 -69t-5.5 -128v-47
q0 -66 5.5 -108.5t14.5 -68t28 -37.5t38.5 -15.5t54.5 -3.5q71 0 96 30t25 127v62h-109q-12 0 -16.5 6t-4.5 24t4.5 23.5t16.5 5.5h138q20 0 26.5 -4.5t6.5 -17.5v-105q0 -123 -41.5 -165.5t-149.5 -42.5zM243 757h-5l-52 -84q-10 -16 -39 -16q-28 0 -28 12q0 6 9 21l63 102
q5 9 12 12.5t25 3.5h25q19 0 26 -3.5t12 -12.5l62 -102q9 -15 9 -21q0 -12 -28 -12q-18 0 -24.5 3t-13.5 13z" />
    <glyph glyph-name="gcircumflex" unicode="&#x11d;" horiz-adv-x="510" 
d="M56 250q0 103 21.5 158.5t60.5 74t109 18.5q110 0 143 -70l10 41q3 12 9 15.5t24 3.5q30 0 30 -16q0 -4 -6 -24.5t-12 -55.5t-6 -72v-291q0 -127 -52.5 -175t-154.5 -48q-74 0 -133 10q-13 3 -19 9.5t-6 24.5q0 26 15 26q5 0 24 -2.5t52.5 -5.5t72.5 -3q77 0 107 36
t30 120v23q-42 -57 -149 -57q-104 0 -137 52.5t-33 207.5zM123 240q0 -121 21 -157.5t92 -36.5q79 0 112 30t33 124v86q0 90 -25 124t-103 34q-81 0 -105.5 -37.5t-24.5 -166.5zM257 640h-5l-52 -84q-10 -16 -39 -16q-28 0 -28 12q0 6 9 21l63 102q5 9 12 12.5t25 3.5h25
q19 0 26 -3.5t12 -12.5l62 -102q9 -15 9 -21q0 -12 -28 -12q-18 0 -24.5 3t-13.5 13z" />
    <glyph glyph-name="Gbreve" unicode="&#x11e;" horiz-adv-x="488" 
d="M245 -9q-36 0 -57.5 2t-47 10.5t-40 26.5t-28 48t-19 77t-5.5 112v70q0 65 5 111t18 77t28 49.5t41 28t50.5 12t63.5 2.5q76 0 141 -19q14 -3 19 -9t5 -23q0 -16 -3 -21t-11 -5q-3 0 -24.5 5t-53.5 10t-62 5q-52 0 -77 -5.5t-45 -29.5t-25.5 -69t-5.5 -128v-47
q0 -66 5.5 -108.5t14.5 -68t28 -37.5t38.5 -15.5t54.5 -3.5q71 0 96 30t25 127v62h-109q-12 0 -16.5 6t-4.5 24t4.5 23.5t16.5 5.5h138q20 0 26.5 -4.5t6.5 -17.5v-105q0 -123 -41.5 -165.5t-149.5 -42.5zM240 674q-61 0 -79 18.5t-18 65.5q0 15 4.5 19t22.5 4
q17 0 21.5 -3.5t5.5 -17.5q0 -23 7 -29.5t36 -6.5q30 0 37 6.5t7 29.5q1 14 5 17.5t22 3.5t22.5 -4t4.5 -19q0 -47 -18.5 -65.5t-79.5 -18.5z" />
    <glyph glyph-name="gbreve" unicode="&#x11f;" horiz-adv-x="510" 
d="M56 250q0 103 21.5 158.5t60.5 74t109 18.5q110 0 143 -70l10 41q3 12 9 15.5t24 3.5q30 0 30 -16q0 -4 -6 -24.5t-12 -55.5t-6 -72v-291q0 -127 -52.5 -175t-154.5 -48q-74 0 -133 10q-13 3 -19 9.5t-6 24.5q0 26 15 26q5 0 24 -2.5t52.5 -5.5t72.5 -3q77 0 107 36
t30 120v23q-42 -57 -149 -57q-104 0 -137 52.5t-33 207.5zM123 240q0 -121 21 -157.5t92 -36.5q79 0 112 30t33 124v86q0 90 -25 124t-103 34q-81 0 -105.5 -37.5t-24.5 -166.5zM254 557q-61 0 -79 18.5t-18 65.5q0 15 4.5 19t22.5 4q17 0 21.5 -3.5t5.5 -17.5
q0 -23 7 -29.5t36 -6.5q30 0 37 6.5t7 29.5q1 14 5 17.5t22 3.5t22.5 -4t4.5 -19q0 -47 -18.5 -65.5t-79.5 -18.5z" />
    <glyph glyph-name="Gdotaccent" unicode="&#x120;" horiz-adv-x="488" 
d="M245 -9q-36 0 -57.5 2t-47 10.5t-40 26.5t-28 48t-19 77t-5.5 112v70q0 65 5 111t18 77t28 49.5t41 28t50.5 12t63.5 2.5q76 0 141 -19q14 -3 19 -9t5 -23q0 -16 -3 -21t-11 -5q-3 0 -24.5 5t-53.5 10t-62 5q-52 0 -77 -5.5t-45 -29.5t-25.5 -69t-5.5 -128v-47
q0 -66 5.5 -108.5t14.5 -68t28 -37.5t38.5 -15.5t54.5 -3.5q71 0 96 30t25 127v62h-109q-12 0 -16.5 6t-4.5 24t4.5 23.5t16.5 5.5h138q20 0 26.5 -4.5t6.5 -17.5v-105q0 -123 -41.5 -165.5t-149.5 -42.5zM240 695q-23 0 -30 4.5t-7 20.5v24q0 16 7 20.5t30 4.5t30 -4.5
t7 -20.5v-24q0 -16 -7 -20.5t-30 -4.5z" />
    <glyph glyph-name="gdotaccent" unicode="&#x121;" horiz-adv-x="510" 
d="M56 250q0 103 21.5 158.5t60.5 74t109 18.5q110 0 143 -70l10 41q3 12 9 15.5t24 3.5q30 0 30 -16q0 -4 -6 -24.5t-12 -55.5t-6 -72v-291q0 -127 -52.5 -175t-154.5 -48q-74 0 -133 10q-13 3 -19 9.5t-6 24.5q0 26 15 26q5 0 24 -2.5t52.5 -5.5t72.5 -3q77 0 107 36
t30 120v23q-42 -57 -149 -57q-104 0 -137 52.5t-33 207.5zM123 240q0 -121 21 -157.5t92 -36.5q79 0 112 30t33 124v86q0 90 -25 124t-103 34q-81 0 -105.5 -37.5t-24.5 -166.5zM254 577q-23 0 -30 4.5t-7 20.5v24q0 16 7 20.5t30 4.5t30 -4.5t7 -20.5v-24q0 -16 -7 -20.5
t-30 -4.5z" />
    <glyph glyph-name="Gcommaaccent" unicode="&#x122;" horiz-adv-x="488" 
d="M245 -9q-36 0 -57.5 2t-47 10.5t-40 26.5t-28 48t-19 77t-5.5 112v70q0 65 5 111t18 77t28 49.5t41 28t50.5 12t63.5 2.5q76 0 141 -19q14 -3 19 -9t5 -23q0 -16 -3 -21t-11 -5q-3 0 -24.5 5t-53.5 10t-62 5q-52 0 -77 -5.5t-45 -29.5t-25.5 -69t-5.5 -128v-47
q0 -66 5.5 -108.5t14.5 -68t28 -37.5t38.5 -15.5t54.5 -3.5q71 0 96 30t25 127v62h-109q-12 0 -16.5 6t-4.5 24t4.5 23.5t16.5 5.5h138q20 0 26.5 -4.5t6.5 -17.5v-105q0 -123 -41.5 -165.5t-149.5 -42.5zM235 -225q-14 0 -18 2.5t-4 10.5q0 2 5.5 48t5.5 91q0 18 6 23.5
t28 5.5q20 0 27 -5t7 -18q0 -53 -8 -74l-19 -67q-6 -17 -30 -17z" />
    <glyph glyph-name="gcommaaccent" unicode="&#x123;" horiz-adv-x="510" 
d="M56 250q0 103 21.5 158.5t60.5 74t109 18.5q110 0 143 -70l10 41q3 12 9 15.5t24 3.5q30 0 30 -16q0 -4 -6 -24.5t-12 -55.5t-6 -72v-291q0 -127 -52.5 -175t-154.5 -48q-74 0 -133 10q-13 3 -19 9.5t-6 24.5q0 26 15 26q5 0 24 -2.5t52.5 -5.5t72.5 -3q77 0 107 36
t30 120v23q-42 -57 -149 -57q-104 0 -137 52.5t-33 207.5zM123 240q0 -121 21 -157.5t92 -36.5q79 0 112 30t33 124v86q0 90 -25 124t-103 34q-81 0 -105.5 -37.5t-24.5 -166.5zM273 719q14 0 18 -2.5t4 -10.5q0 -2 -5.5 -48t-5.5 -91q0 -18 -6 -23.5t-28 -5.5q-20 0 -27 5
t-7 18q0 53 8 74l19 67q6 17 30 17z" />
    <glyph glyph-name="Hcircumflex" unicode="&#x124;" horiz-adv-x="513" 
d="M131 349h251v240q0 14 6 18.5t26 4.5t26.5 -4.5t6.5 -18.5v-566q0 -14 -6.5 -18.5t-26.5 -4.5t-26 4.5t-6 18.5v267h-251v-267q0 -14 -6 -18.5t-26 -4.5t-26.5 4.5t-6.5 18.5v566q0 14 6.5 18.5t26.5 4.5t26 -4.5t6 -18.5v-240zM258 757h-5l-52 -84q-10 -16 -39 -16
q-28 0 -28 12q0 6 9 21l63 102q5 9 12 12.5t25 3.5h25q19 0 26 -3.5t12 -12.5l62 -102q9 -15 9 -21q0 -12 -28 -12q-18 0 -24.5 3t-13.5 13z" />
    <glyph glyph-name="hcircumflex" unicode="&#x125;" horiz-adv-x="493" 
d="M98 0q-20 0 -26 4t-6 19v605q0 15 6 19t26 4t26 -4t6 -19v-205q36 78 162 78q79 0 107 -31t28 -97v-350q0 -15 -6 -19t-27 -4q-20 0 -26 4t-6 19v336q0 49 -18 67t-73 18q-78 0 -109.5 -40.5t-31.5 -132.5v-248q0 -15 -6 -19t-26 -4zM269 768h-5l-52 -84q-10 -16 -39 -16
q-28 0 -28 12q0 6 9 21l63 102q5 9 12 12.5t25 3.5h25q19 0 26 -3.5t12 -12.5l62 -102q9 -15 9 -21q0 -12 -28 -12q-18 0 -24.5 3t-13.5 13z" />
    <glyph glyph-name="Hbar" unicode="&#x126;" horiz-adv-x="513" 
d="M13 479q0 18 4.5 23t17.5 5h31v82q0 14 6.5 18.5t26.5 4.5t26 -4.5t6 -18.5v-82h251v82q0 14 6 18.5t26 4.5t26.5 -4.5t6.5 -18.5v-82h28q12 0 16.5 -5.5t4.5 -22.5t-4.5 -22.5t-16.5 -5.5h-28v-428q0 -14 -6.5 -18.5t-26.5 -4.5t-26 4.5t-6 18.5v267h-251v-267
q0 -14 -6 -18.5t-26 -4.5t-26.5 4.5t-6.5 18.5v428h-31q-13 0 -17.5 5.5t-4.5 22.5zM131 349h251v102h-251v-102z" />
    <glyph glyph-name="hbar" unicode="&#x127;" horiz-adv-x="493" 
d="M98 0q-20 0 -26 4t-6 19v516h-45q-11 0 -15.5 5t-4.5 20t4.5 20t15.5 5h45v39q0 15 6 19t26 4t26 -4t6 -19v-39h47q12 0 16 -5t4 -20t-4 -19.5t-16 -4.5h-47v-117q36 78 162 78q79 0 107 -31t28 -97v-350q0 -15 -6 -19t-27 -4q-20 0 -26 4t-6 19v336q0 49 -18 67t-73 18
q-78 0 -109.5 -40.5t-31.5 -132.5v-248q0 -15 -6 -19t-26 -4z" />
    <glyph glyph-name="Itilde" unicode="&#x128;" horiz-adv-x="197" 
d="M99 0q-20 0 -26.5 4.5t-6.5 18.5v566q0 14 6.5 18.5t26.5 4.5t26 -4.5t6 -18.5v-566q0 -14 -6 -18.5t-26 -4.5zM-25 708q0 13 4.5 19.5t18.5 15.5q28 16 56 16q20 0 51 -10t46 -10q19 0 40 10t23 10q10 0 10 -24q0 -14 -4.5 -20.5t-18.5 -15.5q-28 -16 -56 -16
q-20 0 -51 10.5t-46 10.5q-19 0 -40 -10t-23 -10q-6 0 -8 4.5t-2 19.5z" />
    <glyph glyph-name="itilde" unicode="&#x129;" horiz-adv-x="201" 
d="M-24 592q0 13 4.5 19.5t18.5 15.5q28 16 56 16q20 0 51 -10t46 -10q19 0 40 10t23 10q10 0 10 -24q0 -14 -4.5 -20.5t-18.5 -15.5q-28 -16 -56 -16q-20 0 -51 10.5t-46 10.5q-19 0 -40 -10t-23 -10q-6 0 -8 4.5t-2 19.5zM98 0q-20 0 -26 4t-6 19v445q0 14 6 18.5t26 4.5
t26 -4.5t6 -18.5v-445q0 -15 -6 -19t-26 -4z" />
    <glyph glyph-name="Imacron" unicode="&#x12a;" horiz-adv-x="197" 
d="M99 0q-20 0 -26.5 4.5t-6.5 18.5v566q0 14 6.5 18.5t26.5 4.5t26 -4.5t6 -18.5v-566q0 -14 -6 -18.5t-26 -4.5zM2 727q0 18 4.5 23.5t17.5 5.5h149q14 0 18.5 -5.5t4.5 -23.5t-4.5 -24t-18.5 -6h-149q-13 0 -17.5 6t-4.5 24z" />
    <glyph glyph-name="imacron" unicode="&#x12b;" horiz-adv-x="201" 
d="M4 610q0 18 4.5 23.5t17.5 5.5h149q14 0 18.5 -5.5t4.5 -23.5t-4.5 -24t-18.5 -6h-149q-13 0 -17.5 6t-4.5 24zM98 0q-20 0 -26 4t-6 19v445q0 14 6 18.5t26 4.5t26 -4.5t6 -18.5v-445q0 -15 -6 -19t-26 -4z" />
    <glyph glyph-name="Ibreve" unicode="&#x12c;" horiz-adv-x="197" 
d="M99 0q-20 0 -26.5 4.5t-6.5 18.5v566q0 14 6.5 18.5t26.5 4.5t26 -4.5t6 -18.5v-566q0 -14 -6 -18.5t-26 -4.5zM98 674q-61 0 -79 18.5t-18 65.5q0 15 4.5 19t22.5 4q17 0 21.5 -3.5t5.5 -17.5q0 -23 7 -29.5t36 -6.5q30 0 37 6.5t7 29.5q1 14 5 17.5t22 3.5t22.5 -4
t4.5 -19q0 -47 -18.5 -65.5t-79.5 -18.5z" />
    <glyph glyph-name="ibreve" unicode="&#x12d;" horiz-adv-x="201" 
d="M100 557q-61 0 -79 18.5t-18 65.5q0 15 4.5 19t22.5 4q17 0 21.5 -3.5t5.5 -17.5q0 -23 7 -29.5t36 -6.5q30 0 37 6.5t7 29.5q1 14 5 17.5t22 3.5t22.5 -4t4.5 -19q0 -47 -18.5 -65.5t-79.5 -18.5zM98 0q-20 0 -26 4t-6 19v445q0 14 6 18.5t26 4.5t26 -4.5t6 -18.5v-445
q0 -15 -6 -19t-26 -4z" />
    <glyph glyph-name="Iogonek" unicode="&#x12e;" horiz-adv-x="197" 
d="M131 589v-559q0 -26 -27 -61q-41 -54 -41 -80q0 -15 4 -20t17 -5q11 0 19.5 1.5t12.5 1.5q15 0 15 -25q0 -14 -5 -19t-20 -9q-22 -5 -40 -5q-34 0 -49.5 16t-15.5 52q0 21 10 43t21.5 36.5t40.5 47.5q-7 4 -7 19v566q0 14 6.5 18.5t26.5 4.5t26 -4.5t6 -18.5z" />
    <glyph glyph-name="iogonek" unicode="&#x12f;" horiz-adv-x="201" 
d="M65 -191q-34 0 -49.5 16t-15.5 52q0 53 71 127q-5 5 -5 19v445q0 14 6 18.5t26 4.5t26 -4.5t6 -18.5v-445q0 -23 -30 -59q-37 -45 -37 -75q0 -15 4 -20t16 -5q11 0 19.5 1.5t12.5 1.5q15 0 15 -25q0 -13 -5 -18.5t-19 -9.5q-16 -5 -41 -5zM98 577q-23 0 -30 4.5t-7 20.5
v24q0 16 7 20.5t30 4.5t30 -4.5t7 -20.5v-24q0 -16 -7 -20.5t-30 -4.5z" />
    <glyph glyph-name="Idotaccent" unicode="&#x130;" horiz-adv-x="197" 
d="M99 0q-20 0 -26.5 4.5t-6.5 18.5v566q0 14 6.5 18.5t26.5 4.5t26 -4.5t6 -18.5v-566q0 -14 -6 -18.5t-26 -4.5zM99 695q-23 0 -30 4.5t-7 20.5v24q0 16 7 20.5t30 4.5t30 -4.5t7 -20.5v-24q0 -16 -7 -20.5t-30 -4.5z" />
    <glyph glyph-name="dotlessi" unicode="&#x131;" horiz-adv-x="201" 
d="M98 0q-20 0 -26 4t-6 19v445q0 14 6 18.5t26 4.5t26 -4.5t6 -18.5v-445q0 -15 -6 -19t-26 -4z" />
    <glyph glyph-name="IJ" unicode="&#x132;" horiz-adv-x="525" 
d="M99 0q-20 0 -26.5 4.5t-6.5 18.5v566q0 14 6.5 18.5t26.5 4.5t26 -4.5t6 -18.5v-566q0 -14 -6 -18.5t-26 -4.5zM319 -9q-42 0 -89 11q-13 4 -18.5 10t-5.5 21q0 17 3 21t12 4q2 0 32.5 -5t55.5 -5q51 0 68 20t17 79v442q0 14 6 18.5t26 4.5t26 -4.5t6 -18.5v-450
q0 -78 -34.5 -113t-104.5 -35z" />
    <glyph glyph-name="ij" unicode="&#x133;" horiz-adv-x="402" 
d="M98 0q-20 0 -26 4t-6 19v445q0 14 6 18.5t26 4.5t26 -4.5t6 -18.5v-445q0 -15 -6 -19t-26 -4zM98 577q-23 0 -30 4.5t-7 20.5v24q0 16 7 20.5t30 4.5t30 -4.5t7 -20.5v-24q0 -16 -7 -20.5t-30 -4.5zM299 491q20 0 26 -4.5t6 -18.5v-538q0 -65 -22 -93t-77 -28
q-32 0 -62 8q-15 5 -20 10t-5 18q0 16 3 21t12 5q3 0 23.5 -2.5t36.5 -2.5q30 0 38.5 13t8.5 64v525q0 14 6 18.5t26 4.5zM299 577q-23 0 -30 4.5t-7 20.5v24q0 16 7 20.5t30 4.5t30 -4.5t7 -20.5v-24q0 -16 -7 -20.5t-30 -4.5z" />
    <glyph glyph-name="Jcircumflex" unicode="&#x134;" horiz-adv-x="328" 
d="M122 -9q-42 0 -89 11q-24 7 -24 31q0 17 3 21t12 4q2 0 32.5 -5t55.5 -5q51 0 68 20t17 79v442q0 14 6 18.5t26 4.5t26 -4.5t6 -18.5v-450q0 -78 -34.5 -113t-104.5 -35zM231 757h-5l-52 -84q-10 -16 -39 -16q-28 0 -28 12q0 6 9 21l63 102q5 9 12 12.5t25 3.5h25
q19 0 26 -3.5t12 -12.5l62 -102q9 -15 9 -21q0 -12 -28 -12q-18 0 -24.5 3t-13.5 13z" />
    <glyph glyph-name="jcircumflex" unicode="&#x135;" horiz-adv-x="201" 
d="M98 491q20 0 26 -4.5t6 -18.5v-538q0 -65 -22 -93t-77 -28q-32 0 -62 8q-15 5 -20 10t-5 18q0 16 3 21t12 5q3 0 23.5 -2.5t36.5 -2.5q30 0 38.5 13t8.5 64v525q0 14 6 18.5t26 4.5zM101 640h-5l-52 -84q-10 -16 -39 -16q-28 0 -28 12q0 6 9 21l63 102q5 9 12 12.5
t25 3.5h25q19 0 26 -3.5t12 -12.5l62 -102q9 -15 9 -21q0 -12 -28 -12q-18 0 -24.5 3t-13.5 13z" />
    <glyph glyph-name="Kcommaaccent" unicode="&#x136;" horiz-adv-x="445" 
d="M99 0q-20 0 -26.5 4.5t-6.5 18.5v566q0 14 6.5 18.5t26.5 4.5t26 -4.5t6 -18.5v-251h12l200 260q11 14 43 14t32 -14q0 -11 -12 -26l-207 -258l218 -274q13 -16 13 -26q0 -14 -31 -14q-33 0 -44 15l-213 276h-11v-268q0 -14 -6 -18.5t-26 -4.5zM205 -225q-14 0 -18 2.5
t-4 10.5q0 2 5.5 48t5.5 91q0 18 6 23.5t28 5.5q20 0 27 -5t7 -18q0 -53 -8 -74l-19 -67q-6 -17 -30 -17z" />
    <glyph glyph-name="kcommaaccent" unicode="&#x137;" horiz-adv-x="413" 
d="M190 -225q-14 0 -18 2.5t-4 10.5q0 2 5.5 48t5.5 91q0 18 6 23.5t28 5.5q20 0 27 -5t7 -18q0 -53 -8 -74l-19 -67q-6 -17 -30 -17zM98 0q-20 0 -26 4t-6 19v605q0 15 6 19t26 4t26 -4t6 -19v-349h8l174 195q10 11 17.5 14t28.5 3q31 0 31 -12q0 -10 -15 -25l-178 -198
l190 -220q14 -16 14 -24q0 -12 -33 -12q-20 0 -27.5 3t-16.5 13l-186 217h-7v-210q0 -15 -6 -19t-26 -4z" />
    <glyph glyph-name="Lacute" unicode="&#x139;" horiz-adv-x="421" 
d="M131 60h249q13 0 17.5 -6t4.5 -24t-4.5 -24t-17.5 -6h-286q-17 0 -22.5 4.5t-5.5 17.5v567q0 14 6.5 18.5t26.5 4.5t26 -4.5t6 -18.5v-529zM105 657q-25 0 -25 12q0 8 8 22l54 98q4 8 7 11t11 5.5t23 2.5q36 0 36 -13q0 -9 -10 -24l-64 -97q-5 -7 -8 -10t-10.5 -5
t-21.5 -2z" />
    <glyph glyph-name="lacute" unicode="&#x13a;" horiz-adv-x="197" 
d="M98 0q-20 0 -26 4t-6 19v605q0 15 6 19t26 4t26 -4t6 -19v-605q0 -15 -6 -19t-26 -4zM86 691q-25 0 -25 12q0 8 8 22l54 98q4 8 7 11t11 5.5t23 2.5q36 0 36 -13q0 -9 -10 -24l-64 -97q-7 -10 -13.5 -13.5t-26.5 -3.5z" />
    <glyph glyph-name="Lcommaaccent" unicode="&#x13b;" horiz-adv-x="421" 
d="M131 60h249q13 0 17.5 -6t4.5 -24t-4.5 -24t-17.5 -6h-286q-17 0 -22.5 4.5t-5.5 17.5v567q0 14 6.5 18.5t26.5 4.5t26 -4.5t6 -18.5v-529zM214 -225q-14 0 -18 2.5t-4 10.5q0 2 5.5 48t5.5 91q0 18 6 23.5t28 5.5q20 0 27 -5t7 -18q0 -53 -8 -74l-19 -67q-6 -17 -30 -17
z" />
    <glyph glyph-name="lcommaaccent" unicode="&#x13c;" horiz-adv-x="197" 
d="M98 0q-20 0 -26 4t-6 19v605q0 15 6 19t26 4t26 -4t6 -19v-605q0 -15 -6 -19t-26 -4zM76 -225q-14 0 -18 2.5t-4 10.5q0 2 5.5 48t5.5 91q0 18 6 23.5t28 5.5q20 0 27 -5t7 -18q0 -53 -8 -74l-19 -67q-6 -17 -30 -17z" />
    <glyph glyph-name="Lcaron" unicode="&#x13d;" horiz-adv-x="421" 
d="M131 60h249q13 0 17.5 -6t4.5 -24t-4.5 -24t-17.5 -6h-286q-17 0 -22.5 4.5t-5.5 17.5v567q0 14 6.5 18.5t26.5 4.5t26 -4.5t6 -18.5v-529zM268 612q21 0 27.5 -5t6.5 -20v-27q0 -31 -11 -72l-17 -65q-4 -12 -10.5 -16t-21.5 -4q-13 0 -17 3t-4 11q0 5 6.5 49t6.5 75v46
q0 15 6.5 20t27.5 5z" />
    <glyph glyph-name="lcaron" unicode="&#x13e;" horiz-adv-x="314" 
d="M245 651q21 0 27.5 -5t6.5 -20v-27q0 -31 -11 -72l-17 -65q-8 -20 -32 -20q-22 0 -22 14q0 5 7 49t7 75v46q0 15 6.5 20t27.5 5zM98 0q-20 0 -26 4t-6 19v605q0 15 6 19t26 4t26 -4t6 -19v-605q0 -15 -6 -19t-26 -4z" />
    <glyph glyph-name="Ldot" unicode="&#x13f;" horiz-adv-x="421" 
d="M131 60h249q13 0 17.5 -6t4.5 -24t-4.5 -24t-17.5 -6h-286q-17 0 -22.5 4.5t-5.5 17.5v567q0 14 6.5 18.5t26.5 4.5t26 -4.5t6 -18.5v-529zM250 282q-23 0 -30 4.5t-7 20.5v24q0 16 7 20.5t30 4.5t30 -4.5t7 -20.5v-24q0 -16 -7 -20.5t-30 -4.5z" />
    <glyph glyph-name="ldot" unicode="&#x140;" horiz-adv-x="280" 
d="M98 0q-20 0 -26 4t-6 19v605q0 15 6 19t26 4t26 -4t6 -19v-605q0 -15 -6 -19t-26 -4zM220 227q-23 0 -30 4.5t-7 20.5v24q0 16 7 20.5t30 4.5t30 -4.5t7 -20.5v-24q0 -16 -7 -20.5t-30 -4.5z" />
    <glyph glyph-name="Lslash" unicode="&#x141;" horiz-adv-x="421" 
d="M131 60h249q13 0 17.5 -6t4.5 -24t-4.5 -24t-17.5 -6h-286q-17 0 -22.5 4.5t-5.5 17.5v212l-32 -21q-11 -8 -17 -8q-12 0 -12 25q0 30 17 40l44 28v291q0 14 6.5 18.5t26.5 4.5t26 -4.5t6 -18.5v-248l127 83q11 8 17 8q13 0 13 -25q0 -29 -18 -40l-139 -91v-216z" />
    <glyph glyph-name="lslash" unicode="&#x142;" horiz-adv-x="205" 
d="M102 0q-20 0 -26 4t-6 19v237l-41 -27q-9 -7 -16 -7q-11 0 -11 23q0 28 17 39l51 34v306q0 15 6 19t26 4t26 -4t6 -19v-263l42 29q10 7 16 7q12 0 12 -23q0 -28 -17 -39l-53 -36v-280q0 -15 -6 -19t-26 -4z" />
    <glyph glyph-name="Nacute" unicode="&#x143;" horiz-adv-x="538" 
d="M99 0q-20 0 -26.5 4.5t-6.5 18.5v566q0 14 10 18.5t45 4.5q31 0 41.5 -3.5t17.5 -18.5l217 -506h10v505q0 14 6 18.5t26 4.5t26.5 -4.5t6.5 -18.5v-566q0 -14 -10 -18.5t-44 -4.5q-31 0 -41 4t-17 19l-219 505h-10v-505q0 -14 -6 -18.5t-26 -4.5zM251 657q-25 0 -25 12
q0 8 8 22l54 98q4 8 7 11t11 5.5t23 2.5q36 0 36 -13q0 -9 -10 -24l-64 -97q-5 -7 -8 -10t-10.5 -5t-21.5 -2z" />
    <glyph glyph-name="nacute" unicode="&#x144;" horiz-adv-x="507" 
d="M112 0q-20 0 -26 4t-6 19v300q0 37 -6 72t-12 55.5t-6 24.5q0 16 30 16q18 0 24 -3.5t9 -15.5l15 -63q38 92 172 92q79 0 107 -31t28 -97v-350q0 -15 -6 -19t-27 -4q-20 0 -26 4t-6 19v336q0 49 -18 67t-73 18q-78 0 -109.5 -40.5t-31.5 -132.5v-248q0 -15 -6 -19t-26 -4
zM240 540q-25 0 -25 12q0 8 8 22l54 98q4 8 7 11t11 5.5t23 2.5q36 0 36 -13q0 -9 -10 -24l-64 -97q-7 -10 -13.5 -13.5t-26.5 -3.5z" />
    <glyph glyph-name="Ncommaaccent" unicode="&#x145;" horiz-adv-x="538" 
d="M99 0q-20 0 -26.5 4.5t-6.5 18.5v566q0 14 10 18.5t45 4.5q31 0 41.5 -3.5t17.5 -18.5l217 -506h10v505q0 14 6 18.5t26 4.5t26.5 -4.5t6.5 -18.5v-566q0 -14 -10 -18.5t-44 -4.5q-31 0 -41 4t-17 19l-219 505h-10v-505q0 -14 -6 -18.5t-26 -4.5zM250 -225q-14 0 -18 2.5
t-4 10.5q0 2 5.5 48t5.5 91q0 18 6 23.5t28 5.5q20 0 27 -5t7 -18q0 -53 -8 -74l-19 -67q-6 -17 -30 -17z" />
    <glyph glyph-name="ncommaaccent" unicode="&#x146;" horiz-adv-x="507" 
d="M112 0q-20 0 -26 4t-6 19v300q0 37 -6 72t-12 55.5t-6 24.5q0 16 30 16q18 0 24 -3.5t9 -15.5l15 -63q38 92 172 92q79 0 107 -31t28 -97v-350q0 -15 -6 -19t-27 -4q-20 0 -26 4t-6 19v336q0 49 -18 67t-73 18q-78 0 -109.5 -40.5t-31.5 -132.5v-248q0 -15 -6 -19t-26 -4
zM241 -225q-14 0 -18 2.5t-4 10.5q0 2 5.5 48t5.5 91q0 18 6 23.5t28 5.5q20 0 27 -5t7 -18q0 -53 -8 -74l-19 -67q-6 -17 -30 -17z" />
    <glyph glyph-name="Ncaron" unicode="&#x147;" horiz-adv-x="538" 
d="M99 0q-20 0 -26.5 4.5t-6.5 18.5v566q0 14 10 18.5t45 4.5q31 0 41.5 -3.5t17.5 -18.5l217 -506h10v505q0 14 6 18.5t26 4.5t26.5 -4.5t6.5 -18.5v-566q0 -14 -10 -18.5t-44 -4.5q-31 0 -41 4t-17 19l-219 505h-10v-505q0 -14 -6 -18.5t-26 -4.5zM152 795q0 13 28 13
q17 0 24 -3.5t14 -13.5l53 -83h5l52 83q10 17 39 17q28 0 28 -13q0 -6 -9 -21l-63 -102q-6 -9 -12.5 -12t-24.5 -3h-25q-18 0 -25 3t-13 12l-62 102q-9 15 -9 21z" />
    <glyph glyph-name="ncaron" unicode="&#x148;" horiz-adv-x="507" 
d="M112 0q-20 0 -26 4t-6 19v300q0 37 -6 72t-12 55.5t-6 24.5q0 16 30 16q18 0 24 -3.5t9 -15.5l15 -63q38 92 172 92q79 0 107 -31t28 -97v-350q0 -15 -6 -19t-27 -4q-20 0 -26 4t-6 19v336q0 49 -18 67t-73 18q-78 0 -109.5 -40.5t-31.5 -132.5v-248q0 -15 -6 -19t-26 -4
zM140 678q0 13 28 13q17 0 24 -3.5t14 -13.5l53 -83h5l52 83q10 17 39 17q28 0 28 -13q0 -6 -9 -21l-63 -102q-6 -9 -12.5 -12t-24.5 -3h-25q-18 0 -25 3t-13 12l-62 102q-9 15 -9 21z" />
    <glyph glyph-name="Eng" unicode="&#x14a;" horiz-adv-x="538" 
d="M372 -191q-38 0 -62 8q-14 4 -19 9.5t-5 18.5q0 16 3 21t11 5q3 0 23.5 -2.5t36.5 -2.5q30 0 38.5 13t8.5 64v57q-23 0 -32 4.5t-15 18.5l-219 505h-10v-505q0 -14 -6 -18.5t-26 -4.5t-26.5 4.5t-6.5 18.5v566q0 14 10 18.5t45 4.5q32 0 42.5 -3.5t16.5 -18.5l217 -506
h10v505q0 14 6 18.5t26 4.5t26.5 -4.5t6.5 -18.5v-659q0 -64 -22.5 -92.5t-77.5 -28.5z" />
    <glyph glyph-name="eng" unicode="&#x14b;" horiz-adv-x="507" 
d="M112 0q-20 0 -26 4t-6 19v300q0 37 -6 72t-12 55.5t-6 24.5q0 16 30 16q18 0 24 -3.5t9 -15.5l15 -63q38 92 172 92q79 0 107 -31t28 -97v-443q0 -64 -22.5 -92.5t-77.5 -28.5q-38 0 -62 8q-14 4 -19 9.5t-5 18.5q0 16 3 21t12 5q3 0 23 -2.5t36 -2.5q30 0 38.5 13
t8.5 64v416q0 49 -18 67t-73 18q-78 0 -109.5 -40.5t-31.5 -132.5v-248q0 -15 -6 -19t-26 -4z" />
    <glyph glyph-name="Omacron" unicode="&#x14c;" horiz-adv-x="522" 
d="M261 48q38 0 60.5 4.5t41 17t26.5 39.5t12.5 67t4.5 105v46q0 67 -3.5 105.5t-11 66.5t-25.5 40t-41 16.5t-64 4.5q-38 0 -60.5 -4.5t-41 -17t-26.5 -39.5t-12.5 -67t-4.5 -105v-46q0 -67 3.5 -105.5t11 -66.5t25.5 -40t41 -16.5t64 -4.5zM261 -9q-66 0 -101.5 8.5
t-62.5 39t-36 86.5t-9 153v51q0 67 5 114.5t17.5 79t27.5 50.5t41.5 28.5t51.5 12.5t66 3q44 0 72 -3.5t53.5 -14t39.5 -29.5t25 -52t15 -78t4 -111v-51q0 -66 -5 -113.5t-18 -79t-28 -50.5t-41.5 -28.5t-51.5 -12.5t-65 -3zM165 727q0 18 4.5 23.5t17.5 5.5h149
q14 0 18.5 -5.5t4.5 -23.5t-4.5 -24t-18.5 -6h-149q-13 0 -17.5 6t-4.5 24z" />
    <glyph glyph-name="omacron" unicode="&#x14d;" horiz-adv-x="494" 
d="M239 -10q-75 0 -112 19.5t-54 72.5t-17 159q0 149 44.5 204.5t154.5 55.5q75 0 112 -19t54 -72t17 -159q0 -149 -44.5 -205t-154.5 -56zM241 46q81 0 106 37.5t25 157.5q0 131 -20.5 167t-98.5 36q-81 0 -105.5 -37t-24.5 -157q0 -132 20 -168t98 -36zM151 610
q0 18 4.5 23.5t17.5 5.5h149q14 0 18.5 -5.5t4.5 -23.5t-4.5 -24t-18.5 -6h-149q-13 0 -17.5 6t-4.5 24z" />
    <glyph glyph-name="Obreve" unicode="&#x14e;" horiz-adv-x="522" 
d="M261 48q38 0 60.5 4.5t41 17t26.5 39.5t12.5 67t4.5 105v46q0 67 -3.5 105.5t-11 66.5t-25.5 40t-41 16.5t-64 4.5q-38 0 -60.5 -4.5t-41 -17t-26.5 -39.5t-12.5 -67t-4.5 -105v-46q0 -67 3.5 -105.5t11 -66.5t25.5 -40t41 -16.5t64 -4.5zM261 -9q-66 0 -101.5 8.5
t-62.5 39t-36 86.5t-9 153v51q0 67 5 114.5t17.5 79t27.5 50.5t41.5 28.5t51.5 12.5t66 3q44 0 72 -3.5t53.5 -14t39.5 -29.5t25 -52t15 -78t4 -111v-51q0 -66 -5 -113.5t-18 -79t-28 -50.5t-41.5 -28.5t-51.5 -12.5t-65 -3zM261 674q-61 0 -79 18.5t-18 65.5q0 15 4.5 19
t22.5 4q17 0 21.5 -3.5t5.5 -17.5q0 -23 7 -29.5t36 -6.5q30 0 37 6.5t7 29.5q1 14 5 17.5t22 3.5t22.5 -4t4.5 -19q0 -47 -18.5 -65.5t-79.5 -18.5z" />
    <glyph glyph-name="obreve" unicode="&#x14f;" horiz-adv-x="494" 
d="M239 -10q-75 0 -112 19.5t-54 72.5t-17 159q0 149 44.5 204.5t154.5 55.5q75 0 112 -19t54 -72t17 -159q0 -149 -44.5 -205t-154.5 -56zM241 46q81 0 106 37.5t25 157.5q0 131 -20.5 167t-98.5 36q-81 0 -105.5 -37t-24.5 -157q0 -132 20 -168t98 -36zM247 557
q-61 0 -79 18.5t-18 65.5q0 15 4.5 19t22.5 4q17 0 21.5 -3.5t5.5 -17.5q0 -23 7 -29.5t36 -6.5q30 0 37 6.5t7 29.5q1 14 5 17.5t22 3.5t22.5 -4t4.5 -19q0 -47 -18.5 -65.5t-79.5 -18.5z" />
    <glyph glyph-name="Ohungarumlaut" unicode="&#x150;" horiz-adv-x="522" 
d="M261 48q38 0 60.5 4.5t41 17t26.5 39.5t12.5 67t4.5 105v46q0 67 -3.5 105.5t-11 66.5t-25.5 40t-41 16.5t-64 4.5q-38 0 -60.5 -4.5t-41 -17t-26.5 -39.5t-12.5 -67t-4.5 -105v-46q0 -67 3.5 -105.5t11 -66.5t25.5 -40t41 -16.5t64 -4.5zM261 -9q-66 0 -101.5 8.5
t-62.5 39t-36 86.5t-9 153v51q0 67 5 114.5t17.5 79t27.5 50.5t41.5 28.5t51.5 12.5t66 3q44 0 72 -3.5t53.5 -14t39.5 -29.5t25 -52t15 -78t4 -111v-51q0 -66 -5 -113.5t-18 -79t-28 -50.5t-41.5 -28.5t-51.5 -12.5t-65 -3zM165 669q0 9 52 124q6 15 40 15t34 -13
q0 -12 -64 -122q-5 -10 -12 -13t-26 -3q-24 0 -24 12zM276 669q0 10 68 124q5 9 11.5 12t27.5 3q35 0 35 -13q0 -12 -79 -122l-4.5 -6t-4.5 -4.5t-6.5 -3.5t-9 -1.5t-13.5 -0.5q-25 0 -25 12z" />
    <glyph glyph-name="ohungarumlaut" unicode="&#x151;" horiz-adv-x="494" 
d="M239 -10q-75 0 -112 19.5t-54 72.5t-17 159q0 149 44.5 204.5t154.5 55.5q75 0 112 -19t54 -72t17 -159q0 -149 -44.5 -205t-154.5 -56zM241 46q81 0 106 37.5t25 157.5q0 131 -20.5 167t-98.5 36q-81 0 -105.5 -37t-24.5 -157q0 -132 20 -168t98 -36zM149 552
q0 9 52 124q6 15 40 15t34 -13q0 -12 -64 -122q-5 -10 -12 -13t-26 -3q-24 0 -24 12zM260 552q0 10 68 124q5 9 11.5 12t27.5 3q35 0 35 -13q0 -12 -79 -122l-4.5 -6t-4.5 -4.5t-6.5 -3.5t-9 -1.5t-13.5 -0.5q-25 0 -25 12z" />
    <glyph glyph-name="OE" unicode="&#x152;" horiz-adv-x="794" 
d="M261 -9q-40 0 -65 3t-51.5 12.5t-41.5 28.5t-28 50.5t-18 79t-5 113.5v51q0 66 4 111t15 78t25 52t39.5 29.5t53.5 14t72 3.5q110 0 149 -34v7q0 13 6 17.5t23 4.5h290q13 0 18 -6t5 -24t-5 -24t-18 -6h-259v-199h207q13 0 17.5 -5.5t4.5 -23.5t-4.5 -23.5t-17.5 -5.5
h-207v-235h269q13 0 18 -6t5 -24t-5 -24t-18 -6h-300q-17 0 -23 4.5t-6 17.5v8q-40 -39 -149 -39zM261 48q48 0 73 6t43 29.5t23.5 64.5t5.5 116v66q0 81 -4 122.5t-21 68t-43 33t-77 6.5q-41 0 -64 -4.5t-41 -16.5t-25.5 -40t-11 -66.5t-3.5 -105.5v-46q0 -65 4.5 -105
t12.5 -67t26.5 -39.5t41 -17t60.5 -4.5z" />
    <glyph glyph-name="oe" unicode="&#x153;" horiz-adv-x="779" 
d="M239 -10q-75 0 -112 19.5t-54 72.5t-17 159q0 149 44.5 204.5t154.5 55.5q63 0 99 -14t55 -49q23 38 59 50.5t94 12.5q46 0 77 -10t49.5 -26.5t28 -48t12 -64t2.5 -84.5q0 -20 -6.5 -28.5t-25.5 -8.5h-261q1 -119 24 -151t112 -32q34 0 65.5 5.5t50.5 11t24 5.5
q11 0 11 -26q0 -15 -4.5 -21t-19.5 -11q-59 -22 -136 -22q-70 0 -107.5 13.5t-57.5 53.5q-40 -67 -161 -67zM241 46q81 0 106 37.5t25 157.5q0 131 -20.5 167t-98.5 36q-81 0 -105.5 -37t-24.5 -157q0 -132 20 -168t98 -36zM560 445q-46 0 -69.5 -10.5t-37 -46.5t-15.5 -108
h228q0 42 -1 61t-6 44.5t-16 35t-31.5 17t-51.5 7.5z" />
    <glyph glyph-name="Racute" unicode="&#x154;" horiz-adv-x="494" 
d="M99 0q-20 0 -26.5 4.5t-6.5 18.5v557q0 24 27 28q66 9 147 9q61 0 94.5 -5t60 -21.5t36 -48.5t9.5 -86q0 -78 -24 -120t-82 -57l114 -244q7 -16 7 -20q0 -15 -32 -15q-20 0 -27.5 3.5t-11.5 12.5l-110 254q-12 -1 -47 -1h-96v-246q0 -14 -6 -18.5t-26 -4.5zM131 554v-232
h105q81 0 108.5 26.5t27.5 106.5q0 65 -25 84.5t-110 19.5q-61 0 -106 -5zM212 657q-25 0 -25 12q0 8 8 22l54 98q4 8 7 11t11 5.5t23 2.5q36 0 36 -13q0 -9 -10 -24l-64 -97q-7 -10 -13.5 -13.5t-26.5 -3.5z" />
    <glyph glyph-name="racute" unicode="&#x155;" horiz-adv-x="331" 
d="M112 0q-20 0 -26 4t-6 19v300q0 37 -6 72t-12 55.5t-6 24.5q0 16 30 16q18 0 24 -3.5t9 -15.5l15 -62q36 90 125 90q29 0 45 -7q14 -6 14 -30q0 -26 -14 -26q-2 0 -20 2.5t-33 2.5q-107 0 -107 -202v-217q0 -15 -6 -19t-26 -4zM132 540q-25 0 -25 12q0 8 8 22l54 98
q4 8 7 11t11 5.5t23 2.5q36 0 36 -13q0 -9 -10 -24l-64 -97q-7 -10 -13.5 -13.5t-26.5 -3.5z" />
    <glyph glyph-name="Rcommaaccent" unicode="&#x156;" horiz-adv-x="494" 
d="M99 0q-20 0 -26.5 4.5t-6.5 18.5v557q0 24 27 28q66 9 147 9q61 0 94.5 -5t60 -21.5t36 -48.5t9.5 -86q0 -78 -24 -120t-82 -57l114 -244q7 -16 7 -20q0 -15 -32 -15q-20 0 -27.5 3.5t-11.5 12.5l-110 254q-12 -1 -47 -1h-96v-246q0 -14 -6 -18.5t-26 -4.5zM131 554v-232
h105q81 0 108.5 26.5t27.5 106.5q0 65 -25 84.5t-110 19.5q-61 0 -106 -5zM231 -225q-14 0 -18 2.5t-4 10.5q0 2 5.5 48t5.5 91q0 18 6 23.5t28 5.5q20 0 27 -5t7 -18q0 -53 -8 -74l-19 -67q-6 -17 -30 -17z" />
    <glyph glyph-name="rcommaaccent" unicode="&#x157;" horiz-adv-x="331" 
d="M112 0q-20 0 -26 4t-6 19v300q0 37 -6 72t-12 55.5t-6 24.5q0 16 30 16q18 0 24 -3.5t9 -15.5l15 -62q36 90 125 90q29 0 45 -7q14 -6 14 -30q0 -26 -14 -26q-2 0 -20 2.5t-33 2.5q-107 0 -107 -202v-217q0 -15 -6 -19t-26 -4zM92 -234q-14 0 -18 2.5t-4 10.5q0 3 5.5 49
t5.5 90q0 18 6 23.5t28 5.5q20 0 27 -5t7 -18q0 -53 -8 -74l-19 -67q-6 -17 -30 -17z" />
    <glyph glyph-name="Rcaron" unicode="&#x158;" horiz-adv-x="494" 
d="M99 0q-20 0 -26.5 4.5t-6.5 18.5v557q0 24 27 28q66 9 147 9q61 0 94.5 -5t60 -21.5t36 -48.5t9.5 -86q0 -78 -24 -120t-82 -57l114 -244q7 -16 7 -20q0 -15 -32 -15q-20 0 -27.5 3.5t-11.5 12.5l-110 254q-12 -1 -47 -1h-96v-246q0 -14 -6 -18.5t-26 -4.5zM131 554v-232
h105q81 0 108.5 26.5t27.5 106.5q0 65 -25 84.5t-110 19.5q-61 0 -106 -5zM128 795q0 13 28 13q17 0 24 -3.5t14 -13.5l53 -83h5l52 83q10 17 39 17q28 0 28 -13q0 -6 -9 -21l-63 -102q-6 -9 -12.5 -12t-24.5 -3h-25q-18 0 -25 3t-13 12l-62 102q-9 15 -9 21z" />
    <glyph glyph-name="rcaron" unicode="&#x159;" horiz-adv-x="331" 
d="M112 0q-20 0 -26 4t-6 19v300q0 37 -6 72t-12 55.5t-6 24.5q0 16 30 16q18 0 24 -3.5t9 -15.5l15 -62q36 90 125 90q29 0 45 -7q14 -6 14 -30q0 -26 -14 -26q-2 0 -20 2.5t-33 2.5q-107 0 -107 -202v-217q0 -15 -6 -19t-26 -4zM49 678q0 13 28 13q17 0 24 -3.5t14 -13.5
l53 -83h5l52 83q10 17 39 17q28 0 28 -13q0 -6 -9 -21l-63 -102q-6 -9 -12.5 -12t-24.5 -3h-25q-18 0 -25 3t-13 12l-62 102q-9 15 -9 21z" />
    <glyph glyph-name="Sacute" unicode="&#x15a;" horiz-adv-x="459" 
d="M221 -9q-84 0 -149 18q-25 9 -25 33q0 18 3 23t12 5q1 0 51.5 -10t96.5 -10q74 0 105.5 24.5t31.5 80.5q0 44 -10.5 66t-40.5 35l-136 61q-58 27 -78.5 55.5t-20.5 91.5q0 50 12.5 82.5t38 47t50.5 19t63 4.5q84 0 149 -19q23 -6 23 -32q0 -17 -3 -22.5t-11 -5.5
q-3 0 -24.5 5t-54.5 10t-65 5q-69 0 -90.5 -16t-21.5 -79q0 -38 12.5 -55t46.5 -32l137 -62q53 -23 71 -57t18 -96q0 -93 -50.5 -131.5t-140.5 -38.5zM213 657q-25 0 -25 12q0 8 8 22l54 98q4 8 7 11t11 5.5t23 2.5q36 0 36 -13q0 -9 -10 -24l-64 -97q-5 -7 -8 -10t-10.5 -5
t-21.5 -2z" />
    <glyph glyph-name="sacute" unicode="&#x15b;" horiz-adv-x="425" 
d="M197 -10q-69 0 -126 18q-14 5 -18.5 10.5t-4.5 21.5q0 27 11 27q1 0 47.5 -9.5t87.5 -9.5q64 0 90.5 21.5t26.5 68.5q0 45 -40 61l-144 60q-67 28 -67 115q0 127 150 127q64 0 129 -17q14 -4 19 -10.5t5 -23.5q0 -16 -3 -20.5t-10 -4.5l-48 10q-49 10 -87 10
q-52 0 -71 -16t-19 -53q0 -28 8.5 -42.5t33.5 -24.5l140 -57q38 -16 54 -41.5t16 -68.5q0 -152 -180 -152zM186 540q-25 0 -25 12q0 8 8 22l54 98q4 8 7 11t11 5.5t23 2.5q36 0 36 -13q0 -9 -10 -24l-64 -97q-7 -10 -13.5 -13.5t-26.5 -3.5z" />
    <glyph glyph-name="Scircumflex" unicode="&#x15c;" horiz-adv-x="459" 
d="M221 -9q-84 0 -149 18q-25 9 -25 33q0 18 3 23t12 5q1 0 51.5 -10t96.5 -10q74 0 105.5 24.5t31.5 80.5q0 44 -10.5 66t-40.5 35l-136 61q-58 27 -78.5 55.5t-20.5 91.5q0 50 12.5 82.5t38 47t50.5 19t63 4.5q84 0 149 -19q23 -6 23 -32q0 -17 -3 -22.5t-11 -5.5
q-3 0 -24.5 5t-54.5 10t-65 5q-69 0 -90.5 -16t-21.5 -79q0 -38 12.5 -55t46.5 -32l137 -62q53 -23 71 -57t18 -96q0 -93 -50.5 -131.5t-140.5 -38.5zM241 757h-5l-52 -84q-10 -16 -39 -16q-28 0 -28 12q0 6 9 21l63 102q5 9 12 12.5t25 3.5h25q19 0 26 -3.5t12 -12.5
l62 -102q9 -15 9 -21q0 -12 -28 -12q-18 0 -24.5 3t-13.5 13z" />
    <glyph glyph-name="scircumflex" unicode="&#x15d;" horiz-adv-x="425" 
d="M197 -10q-69 0 -126 18q-14 5 -18.5 10.5t-4.5 21.5q0 27 11 27q1 0 47.5 -9.5t87.5 -9.5q64 0 90.5 21.5t26.5 68.5q0 45 -40 61l-144 60q-67 28 -67 115q0 127 150 127q64 0 129 -17q14 -4 19 -10.5t5 -23.5q0 -16 -3 -20.5t-10 -4.5l-48 10q-49 10 -87 10
q-52 0 -71 -16t-19 -53q0 -28 8.5 -42.5t33.5 -24.5l140 -57q38 -16 54 -41.5t16 -68.5q0 -152 -180 -152zM210 640h-5l-52 -84q-10 -16 -39 -16q-28 0 -28 12q0 6 9 21l63 102q5 9 12 12.5t25 3.5h25q19 0 26 -3.5t12 -12.5l62 -102q9 -15 9 -21q0 -12 -28 -12
q-18 0 -24.5 3t-13.5 13z" />
    <glyph glyph-name="Scedilla" unicode="&#x15e;" horiz-adv-x="459" 
d="M237 -197q-28 0 -48 4q-13 2 -18.5 7.5t-5.5 19.5q0 26 15 26q2 0 16 -1.5t29 -1.5q30 0 30 18q0 4 -1 7t-2 5t-4.5 4.5t-5.5 4t-7.5 5t-9.5 5.5q-29 19 -29 53v33q-85 4 -124 17q-25 8 -25 33q0 18 3 23t12 5q1 0 51.5 -10t96.5 -10q74 0 105.5 24.5t31.5 80.5
q0 44 -10.5 66t-40.5 35l-136 61q-58 27 -78.5 55.5t-20.5 91.5q0 50 12.5 82.5t38 47t50.5 19t63 4.5q84 0 149 -19q23 -6 23 -32q0 -17 -3 -22.5t-11 -5.5q-3 0 -24.5 5t-54.5 10t-65 5q-69 0 -90.5 -16t-21.5 -79q0 -38 12.5 -55t46.5 -32l137 -62q53 -23 71 -57t18 -96
q0 -87 -44.5 -126t-123.5 -43v-20q0 -17 15 -27q36 -22 46 -35.5t10 -43.5q0 -63 -78 -63z" />
    <glyph glyph-name="scedilla" unicode="&#x15f;" horiz-adv-x="425" 
d="M217 -197q-28 0 -48 4q-13 2 -18.5 7.5t-5.5 19.5q0 26 15 26q2 0 16 -1.5t29 -1.5q30 0 30 18q0 4 -1 7t-2 5t-4.5 4.5t-5.5 4t-7.5 5t-9.5 5.5q-29 19 -29 53v32q-60 3 -105 17q-14 5 -18.5 10.5t-4.5 21.5q0 27 11 27q1 0 47.5 -9.5t87.5 -9.5q64 0 90.5 21.5
t26.5 68.5q0 45 -40 61l-144 60q-67 28 -67 115q0 127 150 127q64 0 129 -17q14 -4 19 -10.5t5 -23.5q0 -16 -3 -20.5t-10 -4.5l-48 10q-49 10 -87 10q-52 0 -71 -16t-19 -53q0 -28 8.5 -42.5t33.5 -24.5l140 -57q38 -16 54 -41.5t16 -68.5q0 -141 -153 -151v-19
q0 -17 15 -27q36 -22 46 -35.5t10 -43.5q0 -63 -78 -63z" />
    <glyph glyph-name="Scaron" unicode="&#x160;" horiz-adv-x="459" 
d="M221 -9q-84 0 -149 18q-25 9 -25 33q0 18 3 23t12 5q1 0 51.5 -10t96.5 -10q74 0 105.5 24.5t31.5 80.5q0 44 -10.5 66t-40.5 35l-136 61q-58 27 -78.5 55.5t-20.5 91.5q0 50 12.5 82.5t38 47t50.5 19t63 4.5q84 0 149 -19q23 -6 23 -32q0 -17 -3 -22.5t-11 -5.5
q-3 0 -24.5 5t-54.5 10t-65 5q-69 0 -90.5 -16t-21.5 -79q0 -38 12.5 -55t46.5 -32l137 -62q53 -23 71 -57t18 -96q0 -93 -50.5 -131.5t-140.5 -38.5zM122 795q0 13 28 13q17 0 24 -3.5t14 -13.5l53 -83h5l52 83q10 17 39 17q28 0 28 -13q0 -6 -9 -21l-63 -102
q-6 -9 -12.5 -12t-24.5 -3h-25q-18 0 -25 3t-13 12l-62 102q-9 15 -9 21z" />
    <glyph glyph-name="scaron" unicode="&#x161;" horiz-adv-x="425" 
d="M197 -10q-69 0 -126 18q-14 5 -18.5 10.5t-4.5 21.5q0 27 11 27q1 0 47.5 -9.5t87.5 -9.5q64 0 90.5 21.5t26.5 68.5q0 45 -40 61l-144 60q-67 28 -67 115q0 127 150 127q64 0 129 -17q14 -4 19 -10.5t5 -23.5q0 -16 -3 -20.5t-10 -4.5l-48 10q-49 10 -87 10
q-52 0 -71 -16t-19 -53q0 -28 8.5 -42.5t33.5 -24.5l140 -57q38 -16 54 -41.5t16 -68.5q0 -152 -180 -152zM87 678q0 13 28 13q17 0 24 -3.5t14 -13.5l53 -83h5l52 83q10 17 39 17q28 0 28 -13q0 -6 -9 -21l-63 -102q-6 -9 -12.5 -12t-24.5 -3h-25q-18 0 -25 3t-13 12
l-62 102q-9 15 -9 21z" />
    <glyph glyph-name="Tcommaaccent" unicode="&#x162;" horiz-adv-x="423" 
d="M211 0q-20 0 -26 4.5t-6 18.5v529h-147q-12 0 -17 6t-5 24t5 24t17 6h358q13 0 18 -6t5 -24t-5 -24t-18 -6h-146v-529q0 -14 -6.5 -18.5t-26.5 -4.5zM190 -225q-14 0 -18 2.5t-4 10.5q0 2 5.5 48t5.5 91q0 18 6 23.5t28 5.5q20 0 27 -5t7 -18q0 -53 -8 -74l-19 -67
q-6 -17 -30 -17z" />
    <glyph glyph-name="tcommaaccent" unicode="&#x163;" horiz-adv-x="310" 
d="M204 -10q-55 0 -77 28.5t-22 92.5v325h-56q-12 0 -16.5 5.5t-4.5 21.5t4.5 21.5t16.5 5.5h56v78q0 15 6 19t26 4q21 0 27 -4t6 -19v-78h95q12 0 16.5 -5.5t4.5 -21.5t-4.5 -21.5t-16.5 -5.5h-95v-312q0 -51 8 -64t38 -13q17 0 37 3t23 3q8 0 11 -5t3 -21q0 -13 -4.5 -18
t-18.5 -10q-27 -9 -63 -9zM169 -225q-14 0 -18 2.5t-4 10.5q0 2 5.5 48t5.5 91q0 18 6 23.5t28 5.5q20 0 27 -5t7 -18q0 -53 -8 -74l-19 -67q-6 -17 -30 -17z" />
    <glyph glyph-name="Tcaron" unicode="&#x164;" horiz-adv-x="423" 
d="M211 0q-20 0 -26 4.5t-6 18.5v529h-147q-12 0 -17 6t-5 24t5 24t17 6h358q13 0 18 -6t5 -24t-5 -24t-18 -6h-146v-529q0 -14 -6.5 -18.5t-26.5 -4.5zM90 795q0 13 28 13q17 0 24 -3.5t14 -13.5l53 -83h5l52 83q10 17 39 17q28 0 28 -13q0 -6 -9 -21l-63 -102
q-6 -9 -12.5 -12t-24.5 -3h-25q-18 0 -25 3t-13 12l-62 102q-9 15 -9 21z" />
    <glyph glyph-name="tcaron" unicode="&#x165;" horiz-adv-x="436" 
d="M367 651q21 0 27.5 -5t6.5 -20v-27q0 -31 -11 -72l-18 -65q-5 -20 -31 -20q-22 0 -22 14q0 5 7 49t7 75v46q0 15 6.5 20t27.5 5zM204 -10q-55 0 -77 28.5t-22 92.5v325h-56q-12 0 -16.5 5.5t-4.5 21.5t4.5 21.5t16.5 5.5h56v78q0 15 6 19t26 4q21 0 27 -4t6 -19v-78h95
q12 0 16.5 -5.5t4.5 -21.5t-4.5 -21.5t-16.5 -5.5h-95v-312q0 -51 8 -64t38 -13q17 0 37 3t23 3q8 0 11 -5t3 -21q0 -13 -4.5 -18t-18.5 -10q-27 -9 -63 -9z" />
    <glyph glyph-name="Tbar" unicode="&#x166;" horiz-adv-x="423" 
d="M211 0q-20 0 -26 4.5t-6 18.5v270h-129q-13 0 -17.5 5.5t-4.5 23.5q0 17 4.5 22.5t17.5 5.5h129v202h-147q-12 0 -17 6t-5 24t5 24t17 6h358q13 0 18 -6t5 -24t-5 -24t-18 -6h-146v-202h128q13 0 17.5 -5.5t4.5 -22.5q0 -18 -4.5 -23.5t-17.5 -5.5h-128v-270
q0 -14 -6.5 -18.5t-26.5 -4.5z" />
    <glyph glyph-name="tbar" unicode="&#x167;" horiz-adv-x="310" 
d="M204 -10q-55 0 -77 28.5t-22 92.5v110h-54q-12 0 -16 5.5t-4 21.5q0 17 4 22.5t16 5.5h54v160h-56q-12 0 -16.5 5.5t-4.5 21.5t4.5 21.5t16.5 5.5h56v78q0 15 6 19t26 4q21 0 27 -4t6 -19v-78h95q12 0 16.5 -5.5t4.5 -21.5t-4.5 -21.5t-16.5 -5.5h-95v-160h92
q12 0 16 -5.5t4 -22.5q0 -16 -4 -21.5t-16 -5.5h-92v-97q0 -51 8 -64t38 -13q17 0 37 3t23 3q8 0 11 -5t3 -21q0 -13 -4.5 -18t-18.5 -10q-27 -9 -63 -9z" />
    <glyph glyph-name="Utilde" unicode="&#x168;" horiz-adv-x="518" 
d="M259 -9q-102 0 -147.5 42t-45.5 140v416q0 14 6.5 18.5t26.5 4.5t26 -4.5t6 -18.5v-417q0 -67 26.5 -94t101.5 -27t102 27t27 94v417q0 14 6 18.5t26 4.5t26 -4.5t6 -18.5v-416q0 -98 -45.5 -140t-147.5 -42zM135 708q0 13 4.5 19.5t18.5 15.5q28 16 56 16q20 0 51 -10
t46 -10q19 0 40 10t23 10q10 0 10 -24q0 -14 -4.5 -20.5t-18.5 -15.5q-28 -16 -56 -16q-20 0 -51 10.5t-46 10.5q-19 0 -40 -10t-23 -10q-6 0 -8 4.5t-2 19.5z" />
    <glyph glyph-name="utilde" unicode="&#x169;" horiz-adv-x="497" 
d="M200 -10q-78 0 -106 30.5t-28 96.5v351q0 14 6 18.5t26 4.5t26 -4.5t6 -18.5v-337q0 -49 18 -66.5t73 -17.5q77 0 109 40t32 132v249q0 14 6 18.5t26 4.5t26 -4.5t6 -18.5v-301q0 -37 6 -72t12 -55.5t6 -23.5q0 -16 -30 -16q-18 0 -23.5 3t-9.5 16l-15 60
q-20 -47 -61.5 -68t-110.5 -21zM122 592q0 13 4.5 19.5t18.5 15.5q28 16 56 16q20 0 51 -10t46 -10q19 0 40 10t23 10q10 0 10 -24q0 -14 -4.5 -20.5t-18.5 -15.5q-28 -16 -56 -16q-20 0 -51 10.5t-46 10.5q-19 0 -40 -10t-23 -10q-6 0 -8 4.5t-2 19.5z" />
    <glyph glyph-name="Umacron" unicode="&#x16a;" horiz-adv-x="518" 
d="M259 -9q-102 0 -147.5 42t-45.5 140v416q0 14 6.5 18.5t26.5 4.5t26 -4.5t6 -18.5v-417q0 -67 26.5 -94t101.5 -27t102 27t27 94v417q0 14 6 18.5t26 4.5t26 -4.5t6 -18.5v-416q0 -98 -45.5 -140t-147.5 -42zM162 727q0 18 4.5 23.5t17.5 5.5h149q14 0 18.5 -5.5
t4.5 -23.5t-4.5 -24t-18.5 -6h-149q-13 0 -17.5 6t-4.5 24z" />
    <glyph glyph-name="umacron" unicode="&#x16b;" horiz-adv-x="497" 
d="M200 -10q-78 0 -106 30.5t-28 96.5v351q0 14 6 18.5t26 4.5t26 -4.5t6 -18.5v-337q0 -49 18 -66.5t73 -17.5q77 0 109 40t32 132v249q0 14 6 18.5t26 4.5t26 -4.5t6 -18.5v-301q0 -37 6 -72t12 -55.5t6 -23.5q0 -16 -30 -16q-18 0 -23.5 3t-9.5 16l-15 60
q-20 -47 -61.5 -68t-110.5 -21zM150 610q0 18 4.5 23.5t17.5 5.5h149q14 0 18.5 -5.5t4.5 -23.5t-4.5 -24t-18.5 -6h-149q-13 0 -17.5 6t-4.5 24z" />
    <glyph glyph-name="Ubreve" unicode="&#x16c;" horiz-adv-x="518" 
d="M259 -9q-102 0 -147.5 42t-45.5 140v416q0 14 6.5 18.5t26.5 4.5t26 -4.5t6 -18.5v-417q0 -67 26.5 -94t101.5 -27t102 27t27 94v417q0 14 6 18.5t26 4.5t26 -4.5t6 -18.5v-416q0 -98 -45.5 -140t-147.5 -42zM259 674q-61 0 -79 18.5t-18 65.5q0 15 4.5 19t22.5 4
q17 0 21.5 -3.5t5.5 -17.5q0 -23 7 -29.5t36 -6.5q30 0 37 6.5t7 29.5q1 14 5 17.5t22 3.5t22.5 -4t4.5 -19q0 -47 -18.5 -65.5t-79.5 -18.5z" />
    <glyph glyph-name="ubreve" unicode="&#x16d;" horiz-adv-x="497" 
d="M200 -10q-78 0 -106 30.5t-28 96.5v351q0 14 6 18.5t26 4.5t26 -4.5t6 -18.5v-337q0 -49 18 -66.5t73 -17.5q77 0 109 40t32 132v249q0 14 6 18.5t26 4.5t26 -4.5t6 -18.5v-301q0 -37 6 -72t12 -55.5t6 -23.5q0 -16 -30 -16q-18 0 -23.5 3t-9.5 16l-15 60
q-20 -47 -61.5 -68t-110.5 -21zM246 557q-61 0 -79 18.5t-18 65.5q0 15 4.5 19t22.5 4q17 0 21.5 -3.5t5.5 -17.5q0 -23 7 -29.5t36 -6.5q30 0 37 6.5t7 29.5q1 14 5 17.5t22 3.5t22.5 -4t4.5 -19q0 -47 -18.5 -65.5t-79.5 -18.5z" />
    <glyph glyph-name="Uring" unicode="&#x16e;" horiz-adv-x="518" 
d="M259 -9q-102 0 -147.5 42t-45.5 140v416q0 14 6.5 18.5t26.5 4.5t26 -4.5t6 -18.5v-417q0 -67 26.5 -94t101.5 -27t102 27t27 94v417q0 14 6 18.5t26 4.5t26 -4.5t6 -18.5v-416q0 -98 -45.5 -140t-147.5 -42zM259 719q29 0 37 7.5t8 29.5q0 23 -8 30.5t-37 7.5t-37 -7.5
t-8 -30.5q0 -22 8 -29.5t37 -7.5zM259 673q-61 0 -79 18.5t-18 64.5q0 47 18 65.5t79 18.5t79 -18.5t18 -65.5q0 -46 -18 -64.5t-79 -18.5z" />
    <glyph glyph-name="uring" unicode="&#x16f;" horiz-adv-x="497" 
d="M200 -10q-78 0 -106 30.5t-28 96.5v351q0 14 6 18.5t26 4.5t26 -4.5t6 -18.5v-337q0 -49 18 -66.5t73 -17.5q77 0 109 40t32 132v249q0 14 6 18.5t26 4.5t26 -4.5t6 -18.5v-301q0 -37 6 -72t12 -55.5t6 -23.5q0 -16 -30 -16q-18 0 -23.5 3t-9.5 16l-15 60
q-20 -47 -61.5 -68t-110.5 -21zM246 602q29 0 37 7.5t8 29.5q0 23 -8 30.5t-37 7.5t-37 -7.5t-8 -30.5q0 -22 8 -29.5t37 -7.5zM246 556q-61 0 -79 18.5t-18 64.5q0 47 18 65.5t79 18.5t79 -18.5t18 -65.5q0 -46 -18 -64.5t-79 -18.5z" />
    <glyph glyph-name="Uhungarumlaut" unicode="&#x170;" horiz-adv-x="518" 
d="M259 -9q-102 0 -147.5 42t-45.5 140v416q0 14 6.5 18.5t26.5 4.5t26 -4.5t6 -18.5v-417q0 -67 26.5 -94t101.5 -27t102 27t27 94v417q0 14 6 18.5t26 4.5t26 -4.5t6 -18.5v-416q0 -98 -45.5 -140t-147.5 -42zM160 669q0 9 52 124q6 15 40 15t34 -13q0 -12 -64 -122
q-5 -10 -12 -13t-26 -3q-24 0 -24 12zM271 669q0 10 68 124q5 9 11.5 12t27.5 3q35 0 35 -13q0 -12 -79 -122l-4.5 -6t-4.5 -4.5t-6.5 -3.5t-9 -1.5t-13.5 -0.5q-25 0 -25 12z" />
    <glyph glyph-name="uhungarumlaut" unicode="&#x171;" horiz-adv-x="497" 
d="M200 -10q-78 0 -106 30.5t-28 96.5v351q0 14 6 18.5t26 4.5t26 -4.5t6 -18.5v-337q0 -49 18 -66.5t73 -17.5q77 0 109 40t32 132v249q0 14 6 18.5t26 4.5t26 -4.5t6 -18.5v-301q0 -37 6 -72t12 -55.5t6 -23.5q0 -16 -30 -16q-18 0 -23.5 3t-9.5 16l-15 60
q-20 -47 -61.5 -68t-110.5 -21zM148 552q0 9 52 124q6 15 40 15t34 -13q0 -12 -64 -122q-5 -10 -12 -13t-26 -3q-24 0 -24 12zM259 552q0 10 68 124q5 9 11.5 12t27.5 3q35 0 35 -13q0 -12 -79 -122l-4.5 -6t-4.5 -4.5t-6.5 -3.5t-9 -1.5t-13.5 -0.5q-25 0 -25 12z" />
    <glyph glyph-name="Uogonek" unicode="&#x172;" horiz-adv-x="518" 
d="M343 -10q-82 -39 -82 -101q0 -15 4 -20t16 -5q11 0 19.5 1.5t12.5 1.5q15 0 15 -25q0 -13 -5 -18.5t-19 -9.5q-23 -5 -41 -5q-34 0 -49.5 16t-15.5 52q0 68 65 114h-4q-102 0 -147.5 42t-45.5 140v416q0 14 6.5 18.5t26.5 4.5t26 -4.5t6 -18.5v-417q0 -67 26.5 -94
t101.5 -27t102 27t27 94v417q0 14 6 18.5t26 4.5t26 -4.5t6 -18.5v-416q0 -69 -23 -111t-86 -72z" />
    <glyph glyph-name="uogonek" unicode="&#x173;" horiz-adv-x="497" 
d="M385 -191q-33 0 -48.5 16t-15.5 52q0 31 16.5 58.5t57.5 69.5l-23 74q-20 -47 -61.5 -68t-110.5 -21q-78 0 -106 30.5t-28 96.5v351q0 14 6 18.5t26 4.5t26 -4.5t6 -18.5v-337q0 -49 18 -66.5t73 -17.5q77 0 109 40t32 132v249q0 14 6 18.5t26 4.5t26 -4.5t6 -18.5v-301
q0 -37 6 -72t12 -55.5t6 -23.5q0 -16 -29 -51q-38 -46 -38 -76q0 -15 4 -20t16 -5q11 0 20 1.5t13 1.5q8 0 11 -5t3 -20q0 -13 -5 -18.5t-19 -9.5q-16 -5 -41 -5z" />
    <glyph glyph-name="Wcircumflex" unicode="&#x174;" horiz-adv-x="791" 
d="M211 0q-32 0 -43 4.5t-15 21.5l-132 551q-2 14 -2 19q0 16 31 16q33 0 36 -16l121 -535h12l122 518q4 14 15.5 18.5t39.5 4.5q27 0 38.5 -4.5t15.5 -18.5l123 -518h11l121 535q3 16 36 16q31 0 31 -16q0 -5 -2 -19l-132 -551q-4 -17 -15 -21.5t-43 -4.5t-43 4.5t-15 21.5
l-121 501h-10l-122 -501q-4 -17 -15 -21.5t-43 -4.5zM397 757h-5l-52 -84q-10 -16 -39 -16q-28 0 -28 12q0 6 9 21l63 102q5 9 12 12.5t25 3.5h25q19 0 26 -3.5t12 -12.5l62 -102q9 -15 9 -21q0 -12 -28 -12q-18 0 -24.5 3t-13.5 13z" />
    <glyph glyph-name="wcircumflex" unicode="&#x175;" horiz-adv-x="693" 
d="M189 0q-28 0 -39.5 4.5t-15.5 20.5l-101 414q-5 22 -5 33t6 15t25 4q22 0 29 -4.5t11 -21.5l90 -406h11l95 390q5 19 15 25.5t37 6.5t36.5 -6.5t14.5 -25.5l96 -390h10l91 406q4 17 10.5 21.5t29.5 4.5q19 0 25 -4.5t6 -14.5q0 -7 -6 -33l-101 -414q-4 -16 -15 -20.5
t-39 -4.5q-32 0 -45.5 4.5t-17.5 20.5l-92 374h-6l-93 -374q-4 -16 -17.5 -20.5t-44.5 -4.5zM349 640h-5l-52 -84q-10 -16 -39 -16q-28 0 -28 12q0 6 9 21l63 102q5 9 12 12.5t25 3.5h25q19 0 26 -3.5t12 -12.5l62 -102q9 -15 9 -21q0 -12 -28 -12q-18 0 -24.5 3t-13.5 13z
" />
    <glyph glyph-name="Ycircumflex" unicode="&#x176;" horiz-adv-x="444" 
d="M222 0q-20 0 -26 4.5t-6 18.5v218l-163 331q-8 16 -8 24q0 16 30 16q22 0 30.5 -3t12.5 -13l128 -284h4l129 284q4 10 12 13t29 3q32 0 32 -15q0 -9 -8 -25l-164 -331v-218q0 -14 -6 -18.5t-26 -4.5zM226 757h-5l-52 -84q-10 -16 -39 -16q-28 0 -28 12q0 6 9 21l63 102
q5 9 12 12.5t25 3.5h25q19 0 26 -3.5t12 -12.5l62 -102q9 -15 9 -21q0 -12 -28 -12q-18 0 -24.5 3t-13.5 13z" />
    <glyph glyph-name="ycircumflex" unicode="&#x177;" horiz-adv-x="444" 
d="M28 472q0 10 6 14.5t27 4.5q19 0 25.5 -3t9.5 -13l124 -416h6l122 416q3 10 10 13t25 3q21 0 28 -4t7 -14t-9 -37l-156 -487q-26 -83 -48.5 -111.5t-78.5 -28.5q-44 0 -71 8q-24 7 -24 29q0 16 3 21t12 5q2 0 25.5 -3t47.5 -3q31 0 45 13t25 52l20 69q-18 2 -27.5 12.5
t-17.5 33.5l-123 373q-13 39 -13 53zM226 640h-5l-52 -84q-10 -16 -39 -16q-28 0 -28 12q0 6 9 21l63 102q5 9 12 12.5t25 3.5h25q19 0 26 -3.5t12 -12.5l62 -102q9 -15 9 -21q0 -12 -28 -12q-18 0 -24.5 3t-13.5 13z" />
    <glyph glyph-name="Ydieresis" unicode="&#x178;" horiz-adv-x="444" 
d="M222 0q-20 0 -26 4.5t-6 18.5v218l-163 331q-8 16 -8 24q0 16 30 16q22 0 30.5 -3t12.5 -13l128 -284h4l129 284q4 10 12 13t29 3q32 0 32 -15q0 -9 -8 -25l-164 -331v-218q0 -14 -6 -18.5t-26 -4.5zM155 695q-22 0 -28.5 4.5t-6.5 20.5v24q0 16 6.5 20.5t28.5 4.5
q23 0 29.5 -4.5t6.5 -20.5v-24q0 -16 -6.5 -20.5t-29.5 -4.5zM291 695q-22 0 -29 4.5t-7 20.5v24q0 16 7 20.5t29 4.5t29 -4.5t7 -20.5v-24q0 -16 -7 -20.5t-29 -4.5z" />
    <glyph glyph-name="Zacute" unicode="&#x179;" horiz-adv-x="405" 
d="M309 552h-247q-12 0 -17 6t-5 24t5 24t17 6h300q14 0 18.5 -6t4.5 -24q0 -21 -15 -47l-276 -475h268q12 0 17 -6t5 -24t-5 -24t-17 -6h-321q-13 0 -17.5 6t-4.5 25q0 21 15 47zM188 657q-25 0 -25 12q0 8 8 22l54 98q4 8 7 11t11 5.5t23 2.5q36 0 36 -13q0 -9 -10 -24
l-64 -97q-7 -10 -13.5 -13.5t-26.5 -3.5z" />
    <glyph glyph-name="zacute" unicode="&#x17a;" horiz-adv-x="394" 
d="M361 29q0 -17 -4.5 -23t-16.5 -6h-287q-12 0 -16.5 5.5t-4.5 22.5q0 30 14 51l245 354h-218q-12 0 -16.5 6t-4.5 23t4.5 23t16.5 6h267q12 0 16.5 -6t4.5 -22q0 -29 -14 -49l-246 -356h239q12 0 16.5 -6t4.5 -23zM180 540q-25 0 -25 12q0 8 8 22l54 98q4 8 7 11t11 5.5
t23 2.5q36 0 36 -13q0 -9 -10 -24l-64 -97q-7 -10 -13.5 -13.5t-26.5 -3.5z" />
    <glyph glyph-name="Zdotaccent" unicode="&#x17b;" horiz-adv-x="405" 
d="M309 552h-247q-12 0 -17 6t-5 24t5 24t17 6h300q14 0 18.5 -6t4.5 -24q0 -21 -15 -47l-276 -475h268q12 0 17 -6t5 -24t-5 -24t-17 -6h-321q-13 0 -17.5 6t-4.5 25q0 21 15 47zM211 695q-23 0 -30 4.5t-7 20.5v24q0 16 7 20.5t30 4.5t30 -4.5t7 -20.5v-24q0 -16 -7 -20.5
t-30 -4.5z" />
    <glyph glyph-name="zdotaccent" unicode="&#x17c;" horiz-adv-x="394" 
d="M361 29q0 -17 -4.5 -23t-16.5 -6h-287q-12 0 -16.5 5.5t-4.5 22.5q0 30 14 51l245 354h-218q-12 0 -16.5 6t-4.5 23t4.5 23t16.5 6h267q12 0 16.5 -6t4.5 -22q0 -29 -14 -49l-246 -356h239q12 0 16.5 -6t4.5 -23zM201 577q-23 0 -30 4.5t-7 20.5v24q0 16 7 20.5t30 4.5
t30 -4.5t7 -20.5v-24q0 -16 -7 -20.5t-30 -4.5z" />
    <glyph glyph-name="Zcaron" unicode="&#x17d;" horiz-adv-x="405" 
d="M309 552h-247q-12 0 -17 6t-5 24t5 24t17 6h300q14 0 18.5 -6t4.5 -24q0 -21 -15 -47l-276 -475h268q12 0 17 -6t5 -24t-5 -24t-17 -6h-321q-13 0 -17.5 6t-4.5 25q0 21 15 47zM90 795q0 13 28 13q17 0 24 -3.5t14 -13.5l53 -83h5l52 83q10 17 39 17q28 0 28 -13
q0 -6 -9 -21l-63 -102q-6 -9 -12.5 -12t-24.5 -3h-25q-18 0 -25 3t-13 12l-62 102q-9 15 -9 21z" />
    <glyph glyph-name="zcaron" unicode="&#x17e;" horiz-adv-x="394" 
d="M361 29q0 -17 -4.5 -23t-16.5 -6h-287q-12 0 -16.5 5.5t-4.5 22.5q0 30 14 51l245 354h-218q-12 0 -16.5 6t-4.5 23t4.5 23t16.5 6h267q12 0 16.5 -6t4.5 -22q0 -29 -14 -49l-246 -356h239q12 0 16.5 -6t4.5 -23zM80 678q0 13 28 13q17 0 24 -3.5t14 -13.5l53 -83h5
l52 83q10 17 39 17q28 0 28 -13q0 -6 -9 -21l-63 -102q-6 -9 -12.5 -12t-24.5 -3h-25q-18 0 -25 3t-13 12l-62 102q-9 15 -9 21z" />
    <glyph glyph-name="florin" unicode="&#x192;" 
d="M123 398q0 16 4.5 21.5t16.5 5.5h64l8 72q7 67 28.5 93.5t76.5 26.5q32 0 62 -8q15 -4 19.5 -8.5t4.5 -18.5q0 -26 -15 -26q-3 0 -23.5 3t-37.5 3q-30 0 -38.5 -12.5t-13.5 -65.5l-6 -59h71q12 0 16.5 -5.5t4.5 -21.5t-4.5 -21t-16.5 -5h-77l-26 -262q-7 -66 -29 -93
t-76 -27q-31 0 -61 8q-14 4 -19 9t-5 18q0 26 14 26q3 0 23.5 -2.5t37.5 -2.5q29 0 37.5 12.5t13.5 65.5l26 248h-59q-12 0 -16.5 5t-4.5 21z" />
    <glyph glyph-name="AEacute" unicode="&#x1fc;" horiz-adv-x="720" 
d="M50 0q-31 0 -31 15q0 7 4 20l171 550q6 18 16 22.5t44 4.5h401q13 0 18 -6t5 -24t-5 -24t-18 -6h-258v-199h206q13 0 17.5 -5.5t4.5 -23.5t-4.5 -23.5t-17.5 -5.5h-206v-235h268q13 0 18 -6t5 -24t-5 -24t-18 -6h-305q-17 0 -22 4.5t-5 17.5v171h-194l-53 -176
q-3 -10 -10 -13.5t-26 -3.5zM248 554l-93 -307h178v307h-85zM387 657q-25 0 -25 12q0 8 8 22l54 98q4 8 7 11t11 5.5t23 2.5q36 0 36 -13q0 -9 -10 -24l-64 -97q-5 -7 -8 -10t-10.5 -5t-21.5 -2z" />
    <glyph glyph-name="aeacute" unicode="&#x1fd;" horiz-adv-x="747" 
d="M520 -10q-105 0 -138 35q-19 21 -30 73q-21 -53 -69 -80.5t-108 -27.5q-67 0 -98 32t-31 107t39.5 106.5t136.5 31.5h119v91q0 54 -21 70t-78 16q-47 0 -99.5 -10t-53.5 -10q-13 0 -13 26q0 24 19 30q69 21 152 21q57 0 90.5 -10.5t49.5 -39.5q22 30 56.5 40t88.5 10
q56 0 90.5 -13.5t51 -46.5t21 -70t4.5 -103q0 -20 -6.5 -28.5t-25.5 -8.5h-261q0 -44 2.5 -74t8.5 -51t13 -32t22 -17t28.5 -7.5t38.5 -1.5q44 0 81 5.5t57.5 11t23.5 5.5q12 0 12 -26q0 -15 -4.5 -21t-19.5 -11q-59 -22 -149 -22zM191 46q62 0 106 36.5t44 96.5v42l-124 -4
q-65 -2 -86 -18.5t-21 -63.5q0 -55 18 -72t63 -17zM528 445q-50 0 -73.5 -11t-35 -45.5t-13.5 -108.5h228q0 42 -1 61t-6 44.5t-16 35t-31.5 17t-51.5 7.5zM379 540q-25 0 -25 12q0 8 8 22l54 98q4 8 7 11t11 5.5t23 2.5q36 0 36 -13q0 -9 -10 -24l-64 -97q-5 -7 -8 -10
t-10.5 -5t-21.5 -2z" />
    <glyph glyph-name="Oslashacute" unicode="&#x1fe;" horiz-adv-x="522" 
d="M238 657q-25 0 -25 12q0 8 8 22l54 98q4 8 7 11t11 5.5t23 2.5q36 0 36 -13q0 -9 -10 -24l-64 -97q-7 -10 -13.5 -13.5t-26.5 -3.5zM261 -9q-40 0 -65 3t-51.5 12.5t-41.5 28.5t-28 50.5t-18 79t-5 113.5v51q0 66 4 111t15 78t25 52t39.5 29.5t53.5 14t72 3.5t72 -3.5
t53.5 -14t39.5 -29.5t25 -52t15 -78t4 -111v-51q0 -66 -5 -113.5t-18 -79t-28 -50.5t-41.5 -28.5t-51.5 -12.5t-65 -3zM116 327v-46q0 -96 9 -140l258 376q-14 26 -41.5 34.5t-80.5 8.5q-41 0 -64 -4.5t-41 -16.5t-25.5 -40t-11 -66.5t-3.5 -105.5zM261 48q38 0 60.5 4.5
t41 17t26.5 39.5t12.5 67t4.5 105v46q0 85 -5 125l-254 -369q16 -21 42 -28t72 -7z" />
    <glyph glyph-name="oslashacute" unicode="&#x1ff;" horiz-adv-x="494" 
d="M226 540q-25 0 -25 12q0 8 8 22l54 98q4 8 7 11t11 5.5t23 2.5q36 0 36 -13q0 -9 -10 -24l-64 -97q-7 -10 -13.5 -13.5t-26.5 -3.5zM239 -10q-75 0 -112 19.5t-54 72.5t-17 159q0 149 44.5 204.5t154.5 55.5q75 0 112 -19t54 -72t17 -159q0 -149 -44.5 -205t-154.5 -56z
M241 46q81 0 106 37.5t25 157.5q0 89 -8 129l-213 -299q21 -25 90 -25zM123 250q0 -97 6 -127l213 297q-24 24 -89 24q-81 0 -105.5 -37t-24.5 -157z" />
    <glyph glyph-name="Scommaaccent" unicode="&#x218;" horiz-adv-x="459" 
d="M221 -9q-84 0 -149 18q-25 9 -25 33q0 18 3 23t12 5q1 0 51.5 -10t96.5 -10q74 0 105.5 24.5t31.5 80.5q0 44 -10.5 66t-40.5 35l-136 61q-58 27 -78.5 55.5t-20.5 91.5q0 50 12.5 82.5t38 47t50.5 19t63 4.5q84 0 149 -19q23 -6 23 -32q0 -17 -3 -22.5t-11 -5.5
q-3 0 -24.5 5t-54.5 10t-65 5q-69 0 -90.5 -16t-21.5 -79q0 -38 12.5 -55t46.5 -32l137 -62q53 -23 71 -57t18 -96q0 -93 -50.5 -131.5t-140.5 -38.5zM220 -225q-14 0 -18 2.5t-4 10.5q0 2 5.5 48t5.5 91q0 18 6 23.5t28 5.5q20 0 27 -5t7 -18q0 -53 -8 -74l-19 -67
q-6 -17 -30 -17z" />
    <glyph glyph-name="scommaaccent" unicode="&#x219;" horiz-adv-x="425" 
d="M197 -10q-69 0 -126 18q-14 5 -18.5 10.5t-4.5 21.5q0 27 11 27q1 0 47.5 -9.5t87.5 -9.5q64 0 90.5 21.5t26.5 68.5q0 45 -40 61l-144 60q-67 28 -67 115q0 127 150 127q64 0 129 -17q14 -4 19 -10.5t5 -23.5q0 -16 -3 -20.5t-10 -4.5l-48 10q-49 10 -87 10
q-52 0 -71 -16t-19 -53q0 -28 8.5 -42.5t33.5 -24.5l140 -57q38 -16 54 -41.5t16 -68.5q0 -152 -180 -152zM195 -225q-14 0 -18 2.5t-4 10.5q0 2 5.5 48t5.5 91q0 18 6 23.5t28 5.5q20 0 27 -5t7 -18q0 -53 -8 -74l-19 -67q-6 -17 -30 -17z" />
    <glyph glyph-name="dotlessj" unicode="&#x237;" horiz-adv-x="201" 
d="M98 491q20 0 26 -4.5t6 -18.5v-538q0 -65 -22 -93t-77 -28q-32 0 -62 8q-15 5 -20 10t-5 18q0 16 3 21t12 5q3 0 23.5 -2.5t36.5 -2.5q30 0 38.5 13t8.5 64v525q0 14 6 18.5t26 4.5z" />
    <glyph glyph-name="circumflex" unicode="&#x2c6;" horiz-adv-x="299" 
d="M155 640h-5l-52 -84q-10 -16 -39 -16q-28 0 -28 12q0 6 9 21l63 102q5 9 12 12.5t25 3.5h25q19 0 26 -3.5t12 -12.5l62 -102q9 -15 9 -21q0 -12 -28 -12q-18 0 -24.5 3t-13.5 13z" />
    <glyph glyph-name="caron" unicode="&#x2c7;" horiz-adv-x="299" 
d="M28 678q0 13 28 13q17 0 24 -3.5t14 -13.5l53 -83h5l52 83q10 17 39 17q28 0 28 -13q0 -6 -9 -21l-63 -102q-6 -9 -12.5 -12t-24.5 -3h-25q-18 0 -25 3t-13 12l-62 102q-9 15 -9 21z" />
    <glyph glyph-name="breve" unicode="&#x2d8;" horiz-adv-x="253" 
d="M126 557q-61 0 -79 18.5t-18 65.5q0 15 4.5 19t22.5 4q17 0 21.5 -3.5t5.5 -17.5q0 -23 7 -29.5t36 -6.5q30 0 37 6.5t7 29.5q1 14 5 17.5t22 3.5t22.5 -4t4.5 -19q0 -47 -18.5 -65.5t-79.5 -18.5z" />
    <glyph glyph-name="dotaccent" unicode="&#x2d9;" horiz-adv-x="132" 
d="M65 577q-23 0 -30 4.5t-7 20.5v24q0 16 7 20.5t30 4.5t30 -4.5t7 -20.5v-24q0 -16 -7 -20.5t-30 -4.5z" />
    <glyph glyph-name="ring" unicode="&#x2da;" horiz-adv-x="252" 
d="M126 602q29 0 37 7.5t8 29.5q0 23 -8 30.5t-37 7.5t-37 -7.5t-8 -30.5q0 -22 8 -29.5t37 -7.5zM126 556q-61 0 -79 18.5t-18 64.5q0 47 18 65.5t79 18.5t79 -18.5t18 -65.5q0 -46 -18 -64.5t-79 -18.5z" />
    <glyph glyph-name="ogonek" unicode="&#x2db;" horiz-adv-x="187" 
d="M94 -191q-34 0 -49.5 16t-15.5 52q0 38 21.5 69.5t83.5 97.5h25q0 -18 -6 -32t-26 -43q-36 -54 -36 -80q0 -15 4 -20t17 -5q11 0 19.5 1.5t12.5 1.5q15 0 15 -25q0 -13 -5.5 -18.5t-19.5 -9.5q-16 -5 -40 -5z" />
    <glyph glyph-name="tilde" unicode="&#x2dc;" horiz-adv-x="307" 
d="M29 592q0 13 4.5 19.5t18.5 15.5q28 16 56 16q20 0 51 -10t46 -10q19 0 40 10t23 10q10 0 10 -24q0 -14 -4.5 -20.5t-18.5 -15.5q-28 -16 -56 -16q-20 0 -51 10.5t-46 10.5q-19 0 -40 -10t-23 -10q-6 0 -8 4.5t-2 19.5z" />
    <glyph glyph-name="hungarumlaut" unicode="&#x2dd;" horiz-adv-x="311" 
d="M29 552q0 9 52 124q6 15 40 15t34 -13q0 -12 -64 -122q-5 -10 -12 -13t-26 -3q-24 0 -24 12zM140 552q0 10 68 124q5 9 11.5 12t27.5 3q35 0 35 -13q0 -12 -79 -122l-4.5 -6t-4.5 -4.5t-6.5 -3.5t-9 -1.5t-13.5 -0.5q-25 0 -25 12z" />
    <glyph glyph-name="afii10023" unicode="&#x401;" horiz-adv-x="455" 
d="M422 30q0 -18 -4.5 -24t-17.5 -6h-306q-17 0 -22.5 4.5t-5.5 17.5v568q0 13 5.5 17.5t22.5 4.5h296q13 0 17.5 -6t4.5 -24t-4.5 -24t-17.5 -6h-259v-199h207q13 0 17.5 -5.5t4.5 -23.5t-4.5 -23.5t-17.5 -5.5h-207v-235h269q13 0 17.5 -6t4.5 -24zM161 699
q-22 0 -28.5 4.5t-6.5 20.5v24q0 16 6.5 20.5t28.5 4.5q23 0 29.5 -4.5t6.5 -20.5v-24q0 -16 -6.5 -20.5t-29.5 -4.5zM297 699q-22 0 -29 4.5t-7 20.5v24q0 16 7 20.5t29 4.5t29 -4.5t7 -20.5v-24q0 -16 -7 -20.5t-29 -4.5z" />
    <glyph glyph-name="afii10051" unicode="&#x402;" horiz-adv-x="576" 
d="M201 0q-20 0 -26 4t-6 19v529h-137q-12 0 -17 6t-5 24t5 24t17 6h340q12 0 17 -6t5 -24t-5 -24t-17 -6h-138v-161q35 76 144 76q77 0 104.5 -31t27.5 -97v-225q0 -63 -22 -91t-75 -28q-31 0 -59 8q-15 4 -20 9.5t-5 18.5q0 17 3 22t12 5q2 0 21 -3t35 -3q29 0 37.5 13
t8.5 65v195q0 49 -18 67t-74 18q-63 0 -91.5 -40t-28.5 -127v-220q0 -15 -6 -19t-27 -4z" />
    <glyph glyph-name="afii10052" unicode="&#x403;" horiz-adv-x="401" 
d="M183 675q-25 0 -25 12q0 8 8 22l54 98q4 8 7 11t11 5.5t23 2.5q36 0 36 -13q0 -9 -10 -24l-64 -97q-5 -7 -8 -10t-10.5 -5t-21.5 -2zM99 0q-20 0 -26.5 4.5t-6.5 18.5v567q0 13 5.5 17.5t22.5 4.5h266q13 0 17.5 -6t4.5 -24t-4.5 -24t-17.5 -6h-229v-529q0 -14 -6 -18.5
t-26 -4.5z" />
    <glyph glyph-name="afii10053" unicode="&#x404;" horiz-adv-x="451" 
d="M352 320q0 -18 -4.5 -23.5t-17.5 -5.5h-215v-10q0 -66 5 -108.5t13.5 -68t27.5 -37.5t37.5 -15.5t52.5 -3.5q37 0 70.5 4t54 8.5t23.5 4.5q9 0 11.5 -4.5t2.5 -21.5q0 -16 -5.5 -22t-18.5 -9q-68 -17 -142 -17q-40 0 -63.5 3t-52 18t-43.5 43.5t-25.5 81.5t-10.5 130v70
q0 77 9 129t23.5 82t42.5 45.5t55 19.5t72 4q70 0 135 -17q14 -3 19 -8.5t5 -20.5q0 -17 -3 -22t-11 -5q-3 0 -22 4t-48.5 8t-59.5 4q-51 0 -76 -5t-45 -27t-26 -63t-7 -116h215q13 0 17.5 -5.5t4.5 -23.5z" />
    <glyph glyph-name="afii10054" unicode="&#x405;" horiz-adv-x="459" 
d="M221 -9q-84 0 -149 18q-25 9 -25 33q0 18 3 23t12 5q1 0 51.5 -10t96.5 -10q74 0 105.5 24.5t31.5 80.5q0 44 -10.5 66t-40.5 35l-136 61q-58 27 -78.5 55.5t-20.5 91.5q0 50 12.5 82.5t38 47t50.5 19t63 4.5q84 0 149 -19q23 -6 23 -32q0 -17 -3 -22.5t-11 -5.5
q-3 0 -24.5 5t-54.5 10t-65 5q-69 0 -90.5 -16t-21.5 -79q0 -38 12.5 -55t46.5 -32l137 -62q53 -23 71 -57t18 -96q0 -93 -50.5 -131.5t-140.5 -38.5z" />
    <glyph glyph-name="afii10055" unicode="&#x406;" horiz-adv-x="197" 
d="M99 0q-20 0 -26.5 4.5t-6.5 18.5v566q0 14 6.5 18.5t26.5 4.5t26 -4.5t6 -18.5v-566q0 -14 -6 -18.5t-26 -4.5z" />
    <glyph glyph-name="afii10056" unicode="&#x407;" horiz-adv-x="197" 
d="M99 0q-20 0 -26.5 4.5t-6.5 18.5v566q0 14 6.5 18.5t26.5 4.5t26 -4.5t6 -18.5v-566q0 -14 -6 -18.5t-26 -4.5zM31 694q-22 0 -28.5 4.5t-6.5 20.5v24q0 16 6.5 20.5t28.5 4.5q23 0 29.5 -4.5t6.5 -20.5v-24q0 -16 -6.5 -20.5t-29.5 -4.5zM167 694q-22 0 -29 4.5t-7 20.5
v24q0 16 7 20.5t29 4.5t29 -4.5t7 -20.5v-24q0 -16 -7 -20.5t-29 -4.5z" />
    <glyph glyph-name="afii10057" unicode="&#x408;" horiz-adv-x="328" 
d="M122 -9q-42 0 -89 11q-24 7 -24 31q0 17 3 21t12 4q2 0 32.5 -5t55.5 -5q51 0 68 20t17 79v442q0 14 6 18.5t26 4.5t26 -4.5t6 -18.5v-450q0 -78 -34.5 -113t-104.5 -35z" />
    <glyph glyph-name="afii10058" unicode="&#x409;" horiz-adv-x="852" 
d="M83 -9q-30 0 -49 5q-14 3 -19 9t-5 21t3 20t11 5q6 0 19.5 -2t23.5 -2q19 0 25 9t10 43l50 491q1 10 3 14t7.5 6t16.5 2h270q17 0 22 -4.5t5 -17.5v-246q70 9 155 9q104 0 137 -40.5t33 -143.5t-39 -140.5t-158 -37.5q-97 0 -160 7q-19 2 -25.5 9t-6.5 21v524h-200
l-49 -475q-4 -44 -20 -65t-60 -21zM605 296q-51 0 -129 -6v-237q39 -5 129 -5q86 0 107.5 21t21.5 101q0 82 -24 104t-105 22z" />
    <glyph glyph-name="afii10059" unicode="&#x40a;" horiz-adv-x="822" 
d="M99 0q-20 0 -26.5 4.5t-6.5 18.5v566q0 14 6.5 18.5t26.5 4.5t26 -4.5t6 -18.5v-240h251v240q0 14 6 18.5t26 4.5t26.5 -4.5t6.5 -18.5v-245q71 9 155 9q104 0 137 -40.5t33 -143.5t-39 -140.5t-159 -37.5q-97 0 -160 7q-19 2 -25.5 9t-6.5 21v262h-251v-267
q0 -14 -6 -18.5t-26 -4.5zM575 296q-51 0 -128 -6v-237q37 -5 128 -5q86 0 107.5 21t21.5 101q0 82 -23.5 104t-105.5 22z" />
    <glyph glyph-name="afii10060" unicode="&#x40b;" horiz-adv-x="576" 
d="M201 0q-20 0 -26 4t-6 19v529h-137q-12 0 -17 6t-5 24t5 24t17 6h340q12 0 17 -6t5 -24t-5 -24t-17 -6h-138v-161q35 76 144 76q77 0 104.5 -31t27.5 -97v-316q0 -15 -6 -19t-26 -4t-26 4t-6 19v302q0 49 -18 67t-74 18q-63 0 -91.5 -40t-28.5 -127v-220q0 -15 -6 -19
t-27 -4z" />
    <glyph glyph-name="afii10061" unicode="&#x40c;" horiz-adv-x="445" 
d="M99 0q-20 0 -26.5 4.5t-6.5 18.5v566q0 14 6.5 18.5t26.5 4.5t26 -4.5t6 -18.5v-251h12l200 260q11 14 43 14t32 -14q0 -11 -12 -26l-207 -258l218 -274q13 -16 13 -26q0 -14 -31 -14q-33 0 -44 15l-213 276h-11v-268q0 -14 -6 -18.5t-26 -4.5zM194 675q-25 0 -25 12
q0 8 8 22l54 98q4 8 7 11t11 5.5t23 2.5q36 0 36 -13q0 -9 -10 -24l-64 -97q-7 -10 -13.5 -13.5t-26.5 -3.5z" />
    <glyph glyph-name="afii10062" unicode="&#x40e;" horiz-adv-x="468" 
d="M234 692q-61 0 -79 18.5t-18 65.5q0 15 4.5 19t22.5 4q17 0 21.5 -3.5t5.5 -17.5q0 -23 7 -29.5t36 -6.5q30 0 37 6.5t7 29.5q1 14 5 17.5t22 3.5t22.5 -4t4.5 -19q0 -47 -18.5 -65.5t-79.5 -18.5zM19 599q0 13 32 13q19 0 26 -3t10 -12l145 -389h13l134 388
q4 11 10.5 13.5t26.5 2.5q33 0 33 -13q0 -7 -10 -37l-179 -477q-17 -45 -41 -67.5t-74 -22.5q-41 0 -78 7q-14 3 -19.5 9.5t-5.5 21.5q0 17 3 21.5t12 4.5q2 0 29.5 -3.5t49.5 -3.5q36 0 50.5 12.5t28.5 54.5l11 34h-7q-28 0 -39 27l-153 388q-8 22 -8 31z" />
    <glyph glyph-name="afii10145" unicode="&#x40f;" horiz-adv-x="512" 
d="M256 -111q-17 0 -20.5 3t-4.5 14l-5 94h-132q-17 0 -22.5 4.5t-5.5 17.5v567q0 14 6.5 18.5t26.5 4.5t26 -4.5t6 -18.5v-529h250v529q0 14 6 18.5t26 4.5t26 -4.5t6 -18.5v-567q0 -13 -5 -17.5t-22 -4.5h-133l-4 -94q-1 -11 -4.5 -14t-20.5 -3z" />
    <glyph glyph-name="afii10017" unicode="&#x410;" horiz-adv-x="508" 
d="M50 0q-31 0 -31 15q0 7 4 20l171 550q6 18 16 22.5t44 4.5q35 0 45 -4.5t16 -22.5l170 -550q5 -17 5 -20q0 -15 -31 -15q-20 0 -26.5 3.5t-9.5 13.5l-55 176h-229l-53 -176q-3 -10 -10 -13.5t-26 -3.5zM248 554l-93 -307h198l-93 307h-12z" />
    <glyph glyph-name="afii10018" unicode="&#x411;" horiz-adv-x="509" 
d="M259 -9q-98 0 -161 7q-19 2 -25.5 9t-6.5 21v562q0 13 5.5 17.5t22.5 4.5h303q13 0 17.5 -6t4.5 -24t-4.5 -24t-17.5 -6h-266v-209q72 9 156 9q104 0 137 -40t33 -143t-39.5 -140.5t-158.5 -37.5zM261 295q-52 0 -130 -6v-236q39 -5 129 -5q87 0 108.5 21t21.5 101
q0 81 -23.5 103t-105.5 22z" />
    <glyph glyph-name="afii10019" unicode="&#x412;" horiz-adv-x="509" 
d="M259 -9q-85 0 -161 7q-19 3 -25.5 9.5t-6.5 20.5v552q0 24 27 29q78 8 144 8q47 0 73 -2t54 -9.5t41 -23t21.5 -43t8.5 -69.5q0 -61 -15 -95.5t-53 -48.5q49 -13 69.5 -50t20.5 -110q0 -100 -39.5 -137.5t-158.5 -37.5zM131 554v-204h108q82 0 105.5 20.5t23.5 96.5
q0 63 -20.5 77.5t-107.5 14.5q-74 0 -109 -5zM131 295v-242q39 -5 129 -5q87 0 108.5 21t21.5 101q0 78 -24.5 101.5t-104.5 23.5h-130z" />
    <glyph glyph-name="afii10020" unicode="&#x413;" horiz-adv-x="401" 
d="M99 0q-20 0 -26.5 4.5t-6.5 18.5v567q0 13 5.5 17.5t22.5 4.5h266q13 0 17.5 -6t4.5 -24t-4.5 -24t-17.5 -6h-229v-529q0 -14 -6 -18.5t-26 -4.5z" />
    <glyph glyph-name="afii10021" unicode="&#x414;" horiz-adv-x="513" 
d="M42 -111q-14 0 -18.5 2.5t-4.5 12.5v129q0 17 5 22t20 5h19l52 530q2 14 6.5 18t21.5 4h272q17 0 22.5 -4.5t5.5 -17.5v-530h27q14 0 19.5 -5t5.5 -22v-129q0 -10 -4.5 -12.5t-19.5 -2.5q-17 0 -22.5 2.5t-6.5 12.5l-12 96h-346l-13 -96q-1 -10 -6.5 -12.5t-22.5 -2.5z
M174 552l-47 -492h251v492h-204z" />
    <glyph glyph-name="afii10022" unicode="&#x415;" horiz-adv-x="455" 
d="M422 30q0 -18 -4.5 -24t-17.5 -6h-306q-17 0 -22.5 4.5t-5.5 17.5v568q0 13 5.5 17.5t22.5 4.5h296q13 0 17.5 -6t4.5 -24t-4.5 -24t-17.5 -6h-259v-199h207q13 0 17.5 -5.5t4.5 -23.5t-4.5 -23.5t-17.5 -5.5h-207v-235h269q13 0 17.5 -6t4.5 -24z" />
    <glyph glyph-name="afii10024" unicode="&#x416;" horiz-adv-x="657" 
d="M46 0q-31 0 -31 14q0 10 12 26l201 274l-189 258q-12 15 -12 26q0 14 32 14q34 0 43 -14l182 -260h12v251q0 14 6 18.5t26 4.5t26 -4.5t6 -18.5v-251h12l183 260q9 14 43 14q32 0 32 -14q0 -11 -12 -26l-189 -258l201 -274q12 -16 12 -26q0 -14 -32 -14q-33 0 -43 15
l-196 276h-11v-268q0 -14 -6 -18.5t-26 -4.5t-26 4.5t-6 18.5v268h-11l-196 -276q-11 -15 -43 -15z" />
    <glyph glyph-name="afii10025" unicode="&#x417;" horiz-adv-x="441" 
d="M94 313q0 17 4.5 23t18.5 6h50q83 0 111 28.5t28 87.5q0 63 -19.5 82t-85.5 19q-45 0 -91.5 -7t-47.5 -7q-9 0 -12 4t-3 21t4 22.5t20 9.5q57 15 151 15q77 0 114 -33t37 -125q0 -121 -106 -144q66 -6 92 -42.5t26 -105.5q0 -92 -41.5 -134t-129.5 -42q-98 0 -160 17
q-25 6 -25 32q0 17 3 22t12 5q1 0 57 -9t101 -9q70 0 93 27.5t23 88.5q0 30 -4.5 48.5t-19 36.5t-46 26t-81.5 8h-50q-14 0 -18.5 6t-4.5 23z" />
    <glyph glyph-name="afii10026" unicode="&#x418;" horiz-adv-x="538" 
d="M439 0q-20 0 -26 4.5t-6 18.5v505h-10l-225 -505q-7 -15 -16.5 -19t-37.5 -4q-34 0 -43 4.5t-9 18.5v566q0 14 6.5 18.5t26.5 4.5t26 -4.5t6 -18.5v-505h10l224 506q7 15 16.5 18.5t37.5 3.5q34 0 43.5 -4.5t9.5 -18.5v-566q0 -14 -6.5 -18.5t-26.5 -4.5z" />
    <glyph glyph-name="afii10027" unicode="&#x419;" horiz-adv-x="538" 
d="M272 692q-61 0 -79 18.5t-18 65.5q0 15 4.5 19t22.5 4q17 0 21.5 -3.5t5.5 -17.5q0 -23 7 -29.5t36 -6.5q30 0 37 6.5t7 29.5q1 14 5 17.5t22 3.5t22.5 -4t4.5 -19q0 -47 -18.5 -65.5t-79.5 -18.5zM439 0q-20 0 -26 4.5t-6 18.5v505h-10l-225 -505q-7 -15 -16.5 -19
t-37.5 -4q-34 0 -43 4.5t-9 18.5v566q0 14 6.5 18.5t26.5 4.5t26 -4.5t6 -18.5v-505h10l224 506q7 15 16.5 18.5t37.5 3.5q34 0 43.5 -4.5t9.5 -18.5v-566q0 -14 -6.5 -18.5t-26.5 -4.5z" />
    <glyph glyph-name="afii10028" unicode="&#x41a;" horiz-adv-x="445" 
d="M99 0q-20 0 -26.5 4.5t-6.5 18.5v566q0 14 6.5 18.5t26.5 4.5t26 -4.5t6 -18.5v-251h12l200 260q11 14 43 14t32 -14q0 -11 -12 -26l-207 -258l218 -274q13 -16 13 -26q0 -14 -31 -14q-33 0 -44 15l-213 276h-11v-268q0 -14 -6 -18.5t-26 -4.5z" />
    <glyph glyph-name="afii10029" unicode="&#x41b;" horiz-adv-x="553" 
d="M454 0q-20 0 -26 4.5t-6 18.5v529h-202l-48 -475q-4 -44 -20.5 -65t-60.5 -21q-29 0 -48 5q-14 3 -19 9t-5 21t3 20t11 5q6 0 19.5 -2t23.5 -2q19 0 25 9t10 43l50 491q1 10 3 14t7.5 6t16.5 2h271q17 0 22 -4.5t5 -17.5v-567q0 -14 -6 -18.5t-26 -4.5z" />
    <glyph glyph-name="afii10030" unicode="&#x41c;" horiz-adv-x="623" 
d="M99 0q-20 0 -26.5 4.5t-6.5 18.5v565q0 14 10 19t47 5q32 0 44 -5.5t20 -26.5l122 -337h5l122 337q8 21 20 26.5t44 5.5q37 0 47 -5t10 -19v-565q0 -14 -6 -18.5t-26 -4.5t-26.5 4.5t-6.5 18.5l1 512h-8l-131 -348q-6 -15 -14.5 -19.5t-27.5 -4.5q-20 0 -28.5 4.5
t-14.5 19.5l-130 348h-9l1 -512q0 -14 -6 -18.5t-26 -4.5z" />
    <glyph glyph-name="afii10031" unicode="&#x41d;" horiz-adv-x="513" 
d="M131 349h251v240q0 14 6 18.5t26 4.5t26.5 -4.5t6.5 -18.5v-566q0 -14 -6.5 -18.5t-26.5 -4.5t-26 4.5t-6 18.5v267h-251v-267q0 -14 -6 -18.5t-26 -4.5t-26.5 4.5t-6.5 18.5v566q0 14 6.5 18.5t26.5 4.5t26 -4.5t6 -18.5v-240z" />
    <glyph glyph-name="afii10032" unicode="&#x41e;" horiz-adv-x="522" 
d="M261 48q38 0 60.5 4.5t41 17t26.5 39.5t12.5 67t4.5 105v46q0 67 -3.5 105.5t-11 66.5t-25.5 40t-41 16.5t-64 4.5q-38 0 -60.5 -4.5t-41 -17t-26.5 -39.5t-12.5 -67t-4.5 -105v-46q0 -67 3.5 -105.5t11 -66.5t25.5 -40t41 -16.5t64 -4.5zM261 -9q-66 0 -101.5 8.5
t-62.5 39t-36 86.5t-9 153v51q0 67 5 114.5t17.5 79t27.5 50.5t41.5 28.5t51.5 12.5t66 3q44 0 72 -3.5t53.5 -14t39.5 -29.5t25 -52t15 -78t4 -111v-51q0 -66 -5 -113.5t-18 -79t-28 -50.5t-41.5 -28.5t-51.5 -12.5t-65 -3z" />
    <glyph glyph-name="afii10033" unicode="&#x41f;" horiz-adv-x="512" 
d="M99 0q-20 0 -26.5 4.5t-6.5 18.5v567q0 13 5.5 17.5t22.5 4.5h324q17 0 22 -4.5t5 -17.5v-567q0 -14 -6 -18.5t-26 -4.5t-26 4.5t-6 18.5v529h-250v-529q0 -14 -6 -18.5t-26 -4.5z" />
    <glyph glyph-name="afii10034" unicode="&#x420;" horiz-adv-x="478" 
d="M99 0q-20 0 -26.5 4.5t-6.5 18.5v557q0 24 27 28q66 9 147 9q61 0 94.5 -5.5t60 -23t36 -51.5t9.5 -91q0 -109 -44.5 -154t-162.5 -45h-102v-224q0 -14 -6 -18.5t-26 -4.5zM131 554v-252h103q82 0 110 29.5t28 113.5q0 73 -24.5 93.5t-110.5 20.5q-58 0 -106 -5z" />
    <glyph glyph-name="afii10035" unicode="&#x421;" horiz-adv-x="451" 
d="M257 -9q-28 0 -46 1t-40 5t-35.5 12t-29 21t-24 33.5t-16.5 49t-11 67t-3 87.5v70q0 65 5 111t18 77t28 49.5t41 28t50.5 12t63.5 2.5q66 0 131 -19q14 -3 19 -9t5 -23q0 -16 -3 -21t-11 -5q-3 0 -22 5t-48.5 10t-59.5 5q-52 0 -77 -5.5t-45 -29.5t-25.5 -69t-5.5 -128
v-47q0 -66 5.5 -108.5t15 -68t30 -37.5t42 -15.5t60.5 -3.5q32 0 61 5t47 10t22 5q9 0 11.5 -4.5t2.5 -21.5t-5.5 -23t-18.5 -9q-65 -19 -132 -19z" />
    <glyph glyph-name="afii10036" unicode="&#x422;" horiz-adv-x="423" 
d="M211 0q-20 0 -26 4.5t-6 18.5v529h-147q-12 0 -17 6t-5 24t5 24t17 6h358q13 0 18 -6t5 -24t-5 -24t-18 -6h-146v-529q0 -14 -6.5 -18.5t-26.5 -4.5z" />
    <glyph glyph-name="afii10037" unicode="&#x423;" horiz-adv-x="468" 
d="M19 599q0 13 32 13q19 0 26 -3t10 -12l145 -389h13l134 388q4 11 10.5 13.5t26.5 2.5q33 0 33 -13q0 -7 -10 -37l-179 -477q-17 -45 -41 -67.5t-74 -22.5q-41 0 -78 7q-14 3 -19.5 9.5t-5.5 21.5q0 17 3 21.5t12 4.5q2 0 29.5 -3.5t49.5 -3.5q36 0 50.5 12.5t28.5 54.5
l11 34h-7q-28 0 -39 27l-153 388q-8 22 -8 31z" />
    <glyph glyph-name="afii10038" unicode="&#x424;" horiz-adv-x="598" 
d="M26 334q0 59 12 96t39.5 55.5t59.5 24.5t84 6h49v75q0 14 6 18.5t26 4.5t26.5 -4.5t6.5 -18.5v-75h48q52 0 84 -6t59.5 -24.5t39.5 -55.5t12 -96q0 -114 -43.5 -161.5t-151.5 -47.5h-48v-103q0 -14 -6.5 -18.5t-26.5 -4.5t-26 4.5t-6 18.5v103h-49q-107 0 -151 47.5
t-44 161.5zM94 334q0 -96 25.5 -124.5t101.5 -28.5h49v277h-49q-77 0 -102 -22.5t-25 -101.5zM383 458h-48v-277h48q77 0 102.5 28.5t25.5 124.5q0 79 -25 101.5t-103 22.5z" />
    <glyph glyph-name="afii10039" unicode="&#x425;" horiz-adv-x="473" 
d="M56 0q-32 0 -32 16q0 8 9 23l168 276l-158 258q-9 13 -9 23q0 16 32 16q20 0 28 -3t14 -13l126 -218h4l127 218q6 10 14 13t28 3q33 0 33 -16q0 -9 -10 -23l-159 -258l169 -275q9 -14 9 -24q0 -16 -32 -16q-20 0 -28 3.5t-14 13.5l-137 237h-4l-136 -237
q-5 -11 -13.5 -14t-28.5 -3z" />
    <glyph glyph-name="afii10040" unicode="&#x426;" horiz-adv-x="521" 
d="M479 -111q-17 0 -23 2.5t-7 12.5l-12 96h-343q-17 0 -22.5 4.5t-5.5 17.5v567q0 14 6.5 18.5t26.5 4.5t26 -4.5t6 -18.5v-529h250v529q0 14 6 18.5t26 4.5t26 -4.5t6 -18.5v-529h30q16 0 22 -5t6 -22v-129q0 -10 -4.5 -12.5t-19.5 -2.5z" />
    <glyph glyph-name="afii10041" unicode="&#x427;" horiz-adv-x="475" 
d="M209 253q-92 0 -127.5 26.5t-35.5 113.5v196q0 14 6.5 18.5t26.5 4.5t26 -4.5t6 -18.5v-186q0 -59 20 -74t88 -15q59 0 125 7v268q0 14 6 18.5t26 4.5t26.5 -4.5t6.5 -18.5v-566q0 -14 -6.5 -18.5t-26.5 -4.5t-26 4.5t-6 18.5v242q-65 -12 -135 -12z" />
    <glyph glyph-name="afii10042" unicode="&#x428;" horiz-adv-x="798" 
d="M99 612q20 0 26 -4.5t6 -18.5v-529h236v529q0 14 6 18.5t26 4.5t26 -4.5t6 -18.5v-529h236v529q0 14 6 18.5t26 4.5t26 -4.5t6 -18.5v-567q0 -13 -5 -17.5t-22 -4.5h-610q-17 0 -22.5 4.5t-5.5 17.5v567q0 14 6.5 18.5t26.5 4.5z" />
    <glyph glyph-name="afii10043" unicode="&#x429;" horiz-adv-x="807" 
d="M723 0h-629q-17 0 -22.5 4.5t-5.5 17.5v567q0 14 6.5 18.5t26.5 4.5t26 -4.5t6 -18.5v-529h236v529q0 14 6 18.5t26 4.5t26 -4.5t6 -18.5v-529h236v529q0 14 6 18.5t26 4.5t26 -4.5t6 -18.5v-529h30q16 0 21.5 -5t5.5 -22v-129q0 -10 -4.5 -12.5t-19.5 -2.5
q-17 0 -22.5 2.5t-6.5 12.5z" />
    <glyph glyph-name="afii10044" unicode="&#x42a;" horiz-adv-x="541" 
d="M297 -9q-97 0 -160 7q-19 2 -25.5 9t-6.5 21v524h-73q-12 0 -17 6t-5 24t5 24t17 6h105q20 0 26 -4.5t6 -18.5v-245q71 9 155 9q104 0 137 -40.5t33 -143.5t-39 -140.5t-158 -37.5zM298 296q-51 0 -129 -6v-237q39 -5 129 -5q86 0 107.5 21t21.5 101q0 82 -24 104
t-105 22z" />
    <glyph glyph-name="afii10045" unicode="&#x42b;" horiz-adv-x="697" 
d="M608 0q-20 0 -26.5 4.5t-6.5 18.5v566q0 14 6.5 18.5t26.5 4.5t26 -4.5t6 -18.5v-566q0 -14 -6 -18.5t-26 -4.5zM99 612q20 0 26 -4.5t6 -18.5v-245q71 9 155 9q104 0 137 -40.5t33 -143.5t-39 -140.5t-159 -37.5q-97 0 -160 7q-19 2 -25.5 9t-6.5 21v561q0 14 6.5 18.5
t26.5 4.5zM260 296q-52 0 -129 -6v-237q38 -5 128 -5q86 0 107.5 21t21.5 101q0 82 -23.5 104t-104.5 22z" />
    <glyph glyph-name="afii10046" unicode="&#x42c;" horiz-adv-x="502" 
d="M99 612q20 0 26 -4.5t6 -18.5v-245q71 9 155 9q104 0 137 -40.5t33 -143.5t-39 -140.5t-159 -37.5q-97 0 -160 7q-19 2 -25.5 9t-6.5 21v561q0 14 6.5 18.5t26.5 4.5zM260 296q-52 0 -129 -6v-237q38 -5 128 -5q86 0 107.5 21t21.5 101q0 82 -23.5 104t-104.5 22z" />
    <glyph glyph-name="afii10047" unicode="&#x42d;" horiz-adv-x="452" 
d="M99 320q0 18 4.5 23.5t17.5 5.5h216q-1 75 -7 116t-26 63t-45 27t-76 5q-30 0 -59.5 -4t-48.5 -8t-22 -4q-8 0 -11 5t-3 22q0 15 5 20.5t19 8.5q65 17 134 17q37 0 61 -3t50 -12t40.5 -27.5t27.5 -49t18.5 -77.5t5.5 -111v-70q0 -77 -10.5 -130t-25.5 -81.5t-43.5 -43.5
t-52 -18t-63.5 -3q-76 0 -142 17q-13 3 -18.5 9t-5.5 22q0 17 2.5 21.5t11.5 4.5q3 0 23 -4.5t54 -8.5t71 -4q34 0 52.5 3.5t37.5 15.5t27.5 37.5t13.5 68t5 108.5v10h-216q-13 0 -17.5 5.5t-4.5 23.5z" />
    <glyph glyph-name="afii10048" unicode="&#x42e;" horiz-adv-x="744" 
d="M483 -9q-49 0 -77.5 4.5t-57 20t-43 46.5t-23 84t-8.5 132v13h-143v-268q0 -14 -6 -18.5t-26 -4.5t-26.5 4.5t-6.5 18.5v566q0 14 6.5 18.5t26.5 4.5t26 -4.5t6 -18.5v-238h143q1 90 10.5 142t36.5 80t62 36t100 8q44 0 72 -3.5t53.5 -14t39.5 -29.5t25 -52t15 -78
t4 -111v-51q0 -66 -5 -113.5t-18 -79t-28 -50.5t-41.5 -28.5t-51.5 -12.5t-65 -3zM483 48q38 0 60 4.5t40.5 17t27 39.5t12.5 67t4 105v46q0 67 -3.5 105.5t-11 66.5t-25.5 40t-40.5 16.5t-63.5 4.5t-64 -4.5t-41 -16.5t-25.5 -40t-11 -66.5t-3.5 -105.5v-46q0 -65 4.5 -105
t12.5 -67t26.5 -39.5t41 -17t60.5 -4.5z" />
    <glyph glyph-name="afii10049" unicode="&#x42f;" horiz-adv-x="498" 
d="M400 0q-20 0 -26 4.5t-6 18.5v246h-102q-29 0 -42 1l-109 -254q-4 -9 -11.5 -12.5t-27.5 -3.5q-32 0 -32 15q0 5 10 25l111 239q-58 15 -82 57t-24 120q0 54 9.5 86t36 48.5t60 21.5t94.5 5q80 0 146 -9q27 -4 27 -28v-557q0 -14 -6 -18.5t-26 -4.5zM127 455
q0 -80 28 -106.5t110 -26.5h103v232q-47 5 -107 5q-85 0 -109.5 -19.5t-24.5 -84.5z" />
    <glyph glyph-name="afii10065" unicode="&#x430;" horiz-adv-x="485" 
d="M175 -10q-67 0 -98 32t-31 107t39.5 106.5t136.5 31.5h119v91q0 54 -21 70t-78 16q-47 0 -99.5 -10t-53.5 -10q-13 0 -13 26q0 24 19 30q69 21 152 21q86 0 122 -26.5t36 -106.5v-201q0 -37 6 -72t12 -55.5t6 -23.5q0 -16 -30 -16q-18 0 -23.5 3t-9.5 16l-18 70
q-23 -49 -69.5 -74t-103.5 -25zM191 46q62 0 106 36.5t44 96.5v42l-124 -4q-65 -2 -86 -18.5t-21 -63.5q0 -55 18 -72t63 -17z" />
    <glyph glyph-name="afii10066" unicode="&#x431;" horiz-adv-x="504" 
d="M263 -10q-119 0 -158.5 51.5t-39.5 196.5v224q0 117 45 158.5t147 41.5q80 0 152 -14q19 -3 19 -30q0 -25 -13 -25q-2 0 -54 6.5t-98 6.5q-73 0 -103 -23.5t-30 -101.5v-50q16 37 50.5 53.5t93.5 16.5q70 0 105 -18.5t52 -74t17 -167.5q0 -106 -18.5 -159.5t-56 -72.5
t-110.5 -19zM263 46q78 0 98 36t20 169q0 89 -11 128.5t-36 52t-83 12.5q-69 0 -94.5 -36t-25.5 -149v-20q0 -118 25.5 -155.5t106.5 -37.5z" />
    <glyph glyph-name="afii10067" unicode="&#x432;" horiz-adv-x="481" 
d="M246 49q77 0 99 16.5t22 72.5q0 51 -28.5 70.5t-109.5 19.5h-98v-173q45 -6 115 -6zM245 -9q-76 0 -147 8q-19 2 -25.5 8.5t-6.5 20.5v434q0 26 27 29q74 9 156 9q98 0 135.5 -22.5t37.5 -93.5q0 -66 -24 -93t-77 -35q63 -10 88 -34.5t25 -89.5q0 -83 -42 -112t-147 -29z
M238 441q-60 0 -107 -5v-155h101q70 0 96.5 18.5t26.5 68.5q0 48 -23 60.5t-94 12.5z" />
    <glyph glyph-name="afii10068" unicode="&#x433;" horiz-adv-x="335" 
d="M99 0q-20 0 -26.5 4.5t-6.5 18.5v445q0 14 5.5 18.5t22.5 4.5h208q13 0 18 -6t5 -24t-5 -24t-18 -6h-171v-408q0 -14 -6 -18.5t-26 -4.5z" />
    <glyph glyph-name="afii10069" unicode="&#x434;" horiz-adv-x="494" 
d="M42 -111q-15 0 -19.5 2.5t-4.5 12.5v126q0 18 4.5 24t18.5 6h28l43 408q2 14 7.5 18.5t24.5 4.5h236q20 0 26 -4.5t6 -18.5v-408h30q14 0 19.5 -5t5.5 -22v-129q0 -10 -4.5 -12.5t-19.5 -2.5q-17 0 -22.5 2.5t-6.5 12.5l-12 96h-319l-12 -96q-1 -10 -6.5 -12.5
t-22.5 -2.5zM171 431l-40 -371h217v371h-177z" />
    <glyph glyph-name="afii10070" unicode="&#x435;" horiz-adv-x="463" 
d="M250 -10q-58 0 -91 8t-58.5 34t-35 75.5t-9.5 132.5q0 71 9.5 120t24.5 76.5t41.5 42t51.5 18.5t64 4q46 0 77 -10t49 -26.5t27.5 -48t12.5 -64t3 -84.5q0 -20 -6.5 -28.5t-25.5 -8.5h-261q1 -119 24 -151t111 -32q34 0 65.5 5.5t50.5 11t24 5.5q11 0 11 -26
q0 -15 -4.5 -21t-18.5 -11q-60 -22 -136 -22zM245 445q-69 0 -94 -30t-28 -135h228q0 42 -1 61.5t-6 44t-16 34.5t-31.5 17.5t-51.5 7.5z" />
    <glyph glyph-name="afii10072" unicode="&#x436;" horiz-adv-x="615" 
d="M49 0q-35 0 -35 13q0 8 13 23l186 220l-174 198q-14 16 -14 25q0 12 33 12q31 0 44 -17l165 -195h8v189q0 14 6 18.5t26 4.5t26.5 -4.5t6.5 -18.5v-189h8l165 195q13 17 44 17q33 0 33 -12q0 -9 -14 -25l-174 -198l186 -220q13 -15 13 -23q0 -13 -35 -13q-19 0 -26.5 2.5
t-15.5 13.5l-177 217h-7v-210q0 -15 -6 -19t-27 -4q-20 0 -26 4t-6 19v210h-7l-177 -217q-8 -11 -15.5 -13.5t-26.5 -2.5z" />
    <glyph glyph-name="afii10073" unicode="&#x437;" horiz-adv-x="438" 
d="M113 255q0 16 4.5 21.5t18.5 5.5h39q73 0 100.5 18.5t27.5 68.5q0 48 -18 60t-83 12q-45 0 -92 -6t-48 -6q-8 0 -11.5 5t-3.5 22q0 26 24 31q59 13 148 13q78 0 114 -23.5t36 -92.5q0 -67 -23.5 -93.5t-77.5 -34.5q63 -10 88 -33.5t25 -85.5q0 -86 -39 -116t-130 -30
q-99 0 -158 15q-15 4 -20 10.5t-5 22.5q0 17 3 22t12 5q1 0 53.5 -8.5t100.5 -8.5q74 0 95.5 16.5t21.5 71.5q0 51 -28 70.5t-112 19.5h-39q-14 0 -18.5 5.5t-4.5 22.5z" />
    <glyph glyph-name="afii10074" unicode="&#x438;" horiz-adv-x="499" 
d="M387 491q23 0 35 -5q11 -6 11 -22v-441q0 -14 -6 -18.5t-26 -4.5t-26.5 4.5t-6.5 18.5v391h-7l-191 -388q-8 -15 -19 -20.5t-38 -5.5t-35 4q-12 7 -12 23v441q0 14 6.5 18.5t26.5 4.5t26 -4.5t6 -18.5v-390h7l193 391q7 14 17 18t39 4z" />
    <glyph glyph-name="afii10075" unicode="&#x439;" horiz-adv-x="499" 
d="M247 557q-61 0 -79 18.5t-18 65.5q0 15 4.5 19t22.5 4q17 0 21.5 -3.5t5.5 -17.5q0 -23 7 -29.5t36 -6.5q30 0 37 6.5t7 29.5q1 14 5 17.5t22 3.5t22.5 -4t4.5 -19q0 -47 -18.5 -65.5t-79.5 -18.5zM387 491q23 0 35 -5q11 -6 11 -22v-441q0 -14 -6 -18.5t-26 -4.5
t-26.5 4.5t-6.5 18.5v391h-7l-191 -388q-8 -15 -19 -20.5t-38 -5.5t-35 4q-12 7 -12 23v441q0 14 6.5 18.5t26.5 4.5t26 -4.5t6 -18.5v-390h7l193 391q7 14 17 18t39 4z" />
    <glyph glyph-name="afii10076" unicode="&#x43a;" horiz-adv-x="415" 
d="M99 0q-21 0 -27 4t-6 19v445q0 14 6.5 18.5t26.5 4.5t26 -4.5t6 -18.5v-189h8l174 195q10 11 17.5 14t28.5 3q31 0 31 -12q0 -7 -16 -25l-178 -198l188 -220q16 -19 16 -25q0 -11 -32 -11q-21 0 -28.5 2.5t-16.5 13.5l-185 217h-7v-210q0 -15 -6 -19t-26 -4z" />
    <glyph glyph-name="afii10077" unicode="&#x43b;" horiz-adv-x="502" 
d="M404 0q-21 0 -27 4.5t-6 18.5v408h-176l-37 -354q-4 -44 -20 -65t-60 -21q-30 0 -49 5q-14 3 -19 9t-5 21t3 20t11 5q6 0 19.5 -2t23.5 -2q19 0 25 9t10 43l39 369q2 14 7 18.5t22 4.5h243q18 0 23 -4.5t5 -18.5v-445q0 -14 -6 -18.5t-26 -4.5z" />
    <glyph glyph-name="afii10078" unicode="&#x43c;" horiz-adv-x="621" 
d="M99 0q-20 0 -26.5 4.5t-6.5 18.5v443q0 15 10 20t47 5q31 0 43 -6t20 -27l122 -334h5l122 334q8 21 19.5 27t43.5 6q37 0 46.5 -5t9.5 -20v-443q0 -14 -6 -18.5t-26 -4.5t-26 4.5t-6 18.5l1 392h-9l-129 -343q-6 -15 -14.5 -19.5t-28.5 -4.5q-19 0 -27.5 4.5t-14.5 19.5
l-129 343h-9l1 -392q0 -14 -6 -18.5t-26 -4.5z" />
    <glyph glyph-name="afii10079" unicode="&#x43d;" horiz-adv-x="488" 
d="M131 284h226v184q0 14 6 18.5t26 4.5t26.5 -4.5t6.5 -18.5v-445q0 -14 -6.5 -18.5t-26.5 -4.5t-26 4.5t-6 18.5v202h-226v-202q0 -14 -6 -18.5t-26 -4.5t-26.5 4.5t-6.5 18.5v445q0 14 6.5 18.5t26.5 4.5t26 -4.5t6 -18.5v-184z" />
    <glyph glyph-name="afii10080" unicode="&#x43e;" horiz-adv-x="494" 
d="M239 -10q-75 0 -112 19.5t-54 72.5t-17 159q0 149 44.5 204.5t154.5 55.5q75 0 112 -19t54 -72t17 -159q0 -149 -44.5 -205t-154.5 -56zM241 46q81 0 106 37.5t25 157.5q0 131 -20.5 167t-98.5 36q-81 0 -105.5 -37t-24.5 -157q0 -132 20 -168t98 -36z" />
    <glyph glyph-name="afii10081" unicode="&#x43f;" horiz-adv-x="488" 
d="M99 0q-20 0 -26.5 4.5t-6.5 18.5v445q0 14 5.5 18.5t22.5 4.5h300q17 0 22.5 -4.5t5.5 -18.5v-445q0 -14 -6.5 -18.5t-26.5 -4.5t-26 4.5t-6 18.5v409h-226v-409q0 -14 -6 -18.5t-26 -4.5z" />
    <glyph glyph-name="afii10082" unicode="&#x440;" horiz-adv-x="525" 
d="M112 -189q-20 0 -26 4t-6 19v489q0 37 -6 72t-12 55.5t-6 24.5q0 16 30 16q18 0 24 -3.5t9 -15.5l15 -61q38 90 164 90q105 0 138 -52.5t33 -205.5q0 -104 -21.5 -160t-60 -74.5t-107.5 -18.5q-102 0 -136 55v-211q0 -15 -6 -19t-26 -4zM272 46q56 0 82 15.5t37 58
t11 131.5q0 120 -21 156.5t-92 36.5q-77 0 -111 -35t-34 -135v-70q0 -89 25 -123.5t103 -34.5z" />
    <glyph glyph-name="afii10083" unicode="&#x441;" horiz-adv-x="427" 
d="M240 -10q-54 0 -85 8t-55.5 34t-34 75.5t-9.5 132.5q0 59 6 103t19 72t28 45.5t39 26.5t45 11.5t53 2.5q52 0 119 -18q14 -4 19 -10t5 -22q0 -26 -13 -26l-48 10q-48 10 -81 10q-51 0 -75 -12.5t-36.5 -55t-12.5 -130.5q0 -130 21 -164.5t105 -34.5q42 0 85 11t44 11
q11 0 11 -26q0 -15 -4.5 -21t-19.5 -11q-59 -22 -125 -22z" />
    <glyph glyph-name="afii10084" unicode="&#x442;" horiz-adv-x="400" 
d="M200 0q-20 0 -26 4.5t-6 18.5v408h-127q-13 0 -17.5 6t-4.5 24t4.5 24t17.5 6h318q13 0 18 -6t5 -24t-5 -24t-18 -6h-127v-408q0 -14 -6 -18.5t-26 -4.5z" />
    <glyph glyph-name="afii10085" unicode="&#x443;" horiz-adv-x="444" 
d="M28 472q0 10 6 14.5t27 4.5q19 0 25.5 -3t9.5 -13l124 -416h6l122 416q3 10 10 13t25 3q21 0 28 -4t7 -14t-9 -37l-156 -487q-26 -83 -48.5 -111.5t-78.5 -28.5q-44 0 -71 8q-24 7 -24 29q0 16 3 21t12 5q2 0 25.5 -3t47.5 -3q31 0 45 13t25 52l20 69q-18 2 -27.5 12.5
t-17.5 33.5l-123 373q-13 39 -13 53z" />
    <glyph glyph-name="afii10086" unicode="&#x444;" horiz-adv-x="806" 
d="M217 -10q-105 0 -137 52t-32 206q0 104 21 160t59 74.5t107 18.5q51 0 82.5 -13.5t48.5 -48.5v189q0 15 6.5 19t26.5 4t26 -4t6 -19v-199q17 43 53 57.5t96 14.5q105 0 137.5 -52t32.5 -206q0 -79 -10.5 -129t-35.5 -77.5t-57.5 -37t-84.5 -9.5q-100 0 -131 64v-220
q0 -15 -6 -19t-26 -4t-26.5 4t-6.5 19v228q-37 -72 -149 -72zM554 46q55 0 81 15.5t37 57.5t11 132q0 121 -20.5 157t-91.5 36q-82 0 -111.5 -31.5t-29.5 -126.5v-87q0 -89 23 -121t101 -32zM227 46q81 0 110.5 34.5t29.5 119.5v86q0 91 -23 124.5t-100 33.5
q-81 0 -105.5 -37.5t-24.5 -166.5q0 -121 21 -157.5t92 -36.5z" />
    <glyph glyph-name="afii10087" unicode="&#x445;" horiz-adv-x="434" 
d="M61 0q-33 0 -33 17q0 6 9 21l143 218l-130 195q-11 16 -11 23q0 17 36 17q19 0 26 -3t12 -13l102 -164h4l101 164q5 10 12 13t26 3q36 0 36 -17q0 -8 -10 -23l-131 -194l143 -219q10 -14 10 -21q0 -17 -33 -17q-20 0 -28 3t-14 14l-112 185h-4l-113 -185q-8 -17 -41 -17z
" />
    <glyph glyph-name="afii10088" unicode="&#x446;" horiz-adv-x="480" 
d="M429 -111q-17 0 -22.5 2.5t-6.5 12.5l-12 96h-294q-17 0 -22.5 4.5t-5.5 17.5v446q0 14 6.5 18.5t26.5 4.5t26 -4.5t6 -18.5v-408h202v408q0 14 6.5 18.5t26.5 4.5t26 -4.5t6 -18.5v-408h30q14 0 19.5 -5t5.5 -22v-129q0 -10 -4.5 -12.5t-19.5 -2.5z" />
    <glyph glyph-name="afii10089" unicode="&#x447;" horiz-adv-x="451" 
d="M199 176q-86 0 -120 26.5t-34 113.5v152q0 14 6 18.5t26 4.5t26.5 -4.5t6.5 -18.5v-142q0 -59 18.5 -74t79.5 -15q62 0 113 6v225q0 14 6 18.5t26 4.5t26 -4.5t6 -18.5v-445q0 -14 -6 -18.5t-26 -4.5t-26 4.5t-6 18.5v164q-62 -11 -122 -11z" />
    <glyph glyph-name="afii10090" unicode="&#x448;" horiz-adv-x="720" 
d="M654 468v-446q0 -13 -5.5 -17.5t-22.5 -4.5h-532q-17 0 -22.5 4.5t-5.5 17.5v446q0 14 6.5 18.5t26.5 4.5t26 -4.5t6 -18.5v-408h197v408q0 14 6 18.5t26 4.5t26 -4.5t6 -18.5v-408h197v408q0 14 6 18.5t26 4.5q21 0 27 -4.5t6 -18.5z" />
    <glyph glyph-name="afii10091" unicode="&#x449;" horiz-adv-x="735" 
d="M685 -111q-17 0 -22.5 2.5t-6.5 12.5l-12 96h-550q-17 0 -22.5 4.5t-5.5 17.5v446q0 14 6.5 18.5t26.5 4.5t26 -4.5t6 -18.5v-408h197v408q0 14 6 18.5t26 4.5t26 -4.5t6 -18.5v-408h197v408q0 14 6 18.5t26 4.5q21 0 27 -4.5t6 -18.5v-408h30q14 0 19 -5t5 -22v-129
q0 -10 -4.5 -12.5t-18.5 -2.5z" />
    <glyph glyph-name="afii10092" unicode="&#x44a;" horiz-adv-x="491" 
d="M89 431h-57q-12 0 -17 6t-5 24t5 24t17 6h89q20 0 26 -4.5t6 -18.5v-181h120q102 0 141 -26.5t39 -112.5q0 -94 -41 -125.5t-146 -31.5q-76 0 -145 8q-19 2 -25.5 8.5t-6.5 20.5v403zM286 229h-133v-175q45 -6 115 -6q76 0 97.5 18t21.5 81q0 50 -19 66t-82 16z" />
    <glyph glyph-name="afii10093" unicode="&#x44b;" horiz-adv-x="661" 
d="M562 0q-20 0 -26 4t-6 19v445q0 14 6 18.5t26 4.5t26 -4.5t6 -18.5v-445q0 -15 -6 -19t-26 -4zM243 -9q-74 0 -145 8q-19 2 -25.5 8.5t-6.5 20.5v440q0 14 6.5 18.5t26.5 4.5t26 -4.5t6 -18.5v-181h120q101 0 140.5 -26.5t39.5 -112.5q0 -95 -41.5 -126t-146.5 -31z
M264 229h-133v-175q43 -6 114 -6q77 0 98.5 18t21.5 81q0 50 -19 66t-82 16z" />
    <glyph glyph-name="afii10094" unicode="&#x44c;" horiz-adv-x="468" 
d="M243 -9q-74 0 -145 8q-19 2 -25.5 8.5t-6.5 20.5v440q0 14 6.5 18.5t26.5 4.5t26 -4.5t6 -18.5v-181h120q101 0 140.5 -26.5t39.5 -112.5q0 -95 -41.5 -126t-146.5 -31zM264 229h-133v-175q43 -6 114 -6q77 0 98.5 18t21.5 81q0 50 -19 66t-82 16z" />
    <glyph glyph-name="afii10095" unicode="&#x44d;" horiz-adv-x="431" 
d="M180 -10q-68 0 -127 22q-15 5 -19.5 11t-4.5 21q0 26 12 26q2 0 48 -11t86 -11q87 0 110.5 31.5t24.5 146.5h-181q-13 0 -17.5 5.5t-4.5 22.5t4.5 22.5t17.5 5.5h181q-1 106 -21.5 134.5t-90.5 28.5q-32 0 -66.5 -4.5t-58 -9t-27.5 -4.5q-13 0 -13 26q0 16 5 22.5t19 9.5
q74 16 138 16q37 0 59.5 -2.5t45 -11.5t35 -26t22.5 -46t14 -71.5t4 -103.5q0 -83 -10 -132.5t-36 -75.5t-59 -34t-90 -8z" />
    <glyph glyph-name="afii10096" unicode="&#x44e;" horiz-adv-x="674" 
d="M419 -10q-55 0 -87.5 9t-55 35.5t-31 71.5t-9.5 120h-105v-203q0 -15 -6 -19t-26 -4q-21 0 -27 4t-6 19v445q0 14 6.5 18.5t26.5 4.5t26 -4.5t6 -18.5v-183h106q6 123 51 169.5t147 46.5q75 0 112 -19t54 -72t17 -159q0 -149 -44.5 -205t-154.5 -56zM420 46
q81 0 106 37.5t25 157.5q0 132 -20 167.5t-99 35.5q-80 0 -105 -37.5t-25 -156.5q0 -132 20 -168t98 -36z" />
    <glyph glyph-name="afii10097" unicode="&#x44f;" horiz-adv-x="491" 
d="M76 0q-30 0 -30 13q0 8 8 22l99 176q-50 9 -72 39.5t-22 94.5q0 93 41.5 124t146.5 31q76 0 145 -8q19 -2 25.5 -8.5t6.5 -20.5v-440q0 -15 -6 -19t-26 -4t-26 4t-6 19v182h-146l-97 -189q-5 -10 -12.5 -13t-28.5 -3zM126 343q0 -49 19 -65t82 -16h133v174q-50 5 -114 5
q-77 0 -98.5 -18t-21.5 -80z" />
    <glyph glyph-name="afii10071" unicode="&#x451;" horiz-adv-x="463" 
d="M250 -10q-58 0 -91 8t-58.5 34t-35 75.5t-9.5 132.5q0 71 9.5 120t24.5 76.5t41.5 42t51.5 18.5t64 4q46 0 77 -10t49 -26.5t27.5 -48t12.5 -64t3 -84.5q0 -20 -6.5 -28.5t-25.5 -8.5h-261q1 -119 24 -151t111 -32q34 0 65.5 5.5t50.5 11t24 5.5q11 0 11 -26
q0 -15 -4.5 -21t-18.5 -11q-60 -22 -136 -22zM245 445q-69 0 -94 -30t-28 -135h228q0 42 -1 61.5t-6 44t-16 34.5t-31.5 17.5t-51.5 7.5zM163 577q-22 0 -28.5 4.5t-6.5 20.5v24q0 16 6.5 20.5t28.5 4.5q23 0 29.5 -4.5t6.5 -20.5v-24q0 -16 -6.5 -20.5t-29.5 -4.5zM299 577
q-22 0 -29 4.5t-7 20.5v24q0 16 7 20.5t29 4.5t29 -4.5t7 -20.5v-24q0 -16 -7 -20.5t-29 -4.5z" />
    <glyph glyph-name="afii10099" unicode="&#x452;" horiz-adv-x="497" 
d="M102 0q-21 0 -27 4t-6 19v515h-39q-13 0 -17.5 4.5t-4.5 19.5t4.5 20t17.5 5h39v41q0 15 6 19t27 4q20 0 26 -4t6 -19v-41h128q13 0 17.5 -5t4.5 -20t-4.5 -19.5t-17.5 -4.5h-128v-137q36 78 162 78q79 0 106.5 -30.5t27.5 -97.5v-421q0 -65 -22 -93t-77 -28q-34 0 -62 8
q-15 5 -20 10t-5 18q0 16 3 21t12 5q3 0 23.5 -2.5t36.5 -2.5q30 0 38.5 13t8.5 64v394q0 49 -18 67t-73 18q-77 0 -109 -40t-32 -132v-227q0 -15 -6 -19t-26 -4z" />
    <glyph glyph-name="afii10100" unicode="&#x453;" horiz-adv-x="335" 
d="M156 540q-25 0 -25 12q0 8 8 22l54 98q4 8 7 11t11 5.5t23 2.5q36 0 36 -13q0 -9 -10 -24l-64 -97q-7 -10 -13.5 -13.5t-26.5 -3.5zM99 0q-20 0 -26.5 4.5t-6.5 18.5v445q0 14 5.5 18.5t22.5 4.5h208q13 0 18 -6t5 -24t-5 -24t-18 -6h-171v-408q0 -14 -6 -18.5t-26 -4.5z
" />
    <glyph glyph-name="afii10101" unicode="&#x454;" horiz-adv-x="432" 
d="M252 -10q-57 0 -90.5 8t-59.5 34t-36 75.5t-10 132.5q0 72 7 119.5t18.5 76.5t36 43t50 18t69.5 4q64 0 138 -16q14 -3 18.5 -9t4.5 -23q0 -26 -13 -26q-4 0 -27 4.5t-57.5 9t-67.5 4.5q-69 0 -89.5 -28.5t-21.5 -134.5h181q13 0 17.5 -5.5t4.5 -22.5t-4.5 -22.5
t-17.5 -5.5h-181q1 -115 24 -146.5t110 -31.5q41 0 87.5 11t47.5 11q11 0 11 -26q0 -15 -4.5 -21t-18.5 -11q-61 -22 -127 -22z" />
    <glyph glyph-name="afii10102" unicode="&#x455;" horiz-adv-x="425" 
d="M197 -10q-69 0 -126 18q-14 5 -18.5 10.5t-4.5 21.5q0 27 11 27q1 0 47.5 -9.5t87.5 -9.5q64 0 90.5 21.5t26.5 68.5q0 45 -40 61l-144 60q-67 28 -67 115q0 127 150 127q64 0 129 -17q14 -4 19 -10.5t5 -23.5q0 -16 -3 -20.5t-10 -4.5l-48 10q-49 10 -87 10
q-52 0 -71 -16t-19 -53q0 -28 8.5 -42.5t33.5 -24.5l140 -57q38 -16 54 -41.5t16 -68.5q0 -152 -180 -152z" />
    <glyph glyph-name="afii10103" unicode="&#x456;" horiz-adv-x="201" 
d="M98 0q-20 0 -26 4t-6 19v445q0 14 6 18.5t26 4.5t26 -4.5t6 -18.5v-445q0 -15 -6 -19t-26 -4zM98 577q-23 0 -30 4.5t-7 20.5v24q0 16 7 20.5t30 4.5t30 -4.5t7 -20.5v-24q0 -16 -7 -20.5t-30 -4.5z" />
    <glyph glyph-name="afii10104" unicode="&#x457;" horiz-adv-x="201" 
d="M32 577q-22 0 -28.5 4.5t-6.5 20.5v24q0 16 6.5 20.5t28.5 4.5q23 0 29.5 -4.5t6.5 -20.5v-24q0 -16 -6.5 -20.5t-29.5 -4.5zM168 577q-22 0 -29 4.5t-7 20.5v24q0 16 7 20.5t29 4.5t29 -4.5t7 -20.5v-24q0 -16 -7 -20.5t-29 -4.5zM98 0q-20 0 -26 4t-6 19v445
q0 14 6 18.5t26 4.5t26 -4.5t6 -18.5v-445q0 -15 -6 -19t-26 -4z" />
    <glyph glyph-name="afii10105" unicode="&#x458;" horiz-adv-x="201" 
d="M98 491q20 0 26 -4.5t6 -18.5v-538q0 -65 -22 -93t-77 -28q-32 0 -62 8q-15 5 -20 10t-5 18q0 16 3 21t12 5q3 0 23.5 -2.5t36.5 -2.5q30 0 38.5 13t8.5 64v525q0 14 6 18.5t26 4.5zM98 577q-23 0 -30 4.5t-7 20.5v24q0 16 7 20.5t30 4.5t30 -4.5t7 -20.5v-24
q0 -16 -7 -20.5t-30 -4.5z" />
    <glyph glyph-name="afii10106" unicode="&#x459;" horiz-adv-x="769" 
d="M82 -9q-29 0 -49 5q-13 3 -18.5 9t-5.5 21t3 20t12 5q6 0 19 -2t23 -2q19 0 25.5 9.5t10.5 42.5l38 369q2 14 7 18.5t22 4.5h239q18 0 23 -4.5t5 -18.5v-181h115q102 0 141 -26.5t39 -112.5q0 -95 -41 -126t-146 -31q-70 0 -141 8q-19 2 -25.5 8.5t-6.5 20.5v403h-172
l-37 -354q-4 -44 -20 -65t-60 -21zM564 229h-128v-175q44 -6 110 -6q76 0 97.5 18t21.5 81q0 50 -19 66t-82 16z" />
    <glyph glyph-name="afii10107" unicode="&#x45a;" horiz-adv-x="750" 
d="M99 0q-20 0 -26.5 4.5t-6.5 18.5v445q0 14 6.5 18.5t26.5 4.5t26 -4.5t6 -18.5v-184h222v184q0 14 6 18.5t26 4.5t26 -4.5t6 -18.5v-181h116q101 0 140.5 -26.5t39.5 -112.5q0 -95 -41.5 -126t-146.5 -31q-71 0 -140 8q-19 2 -25.5 8.5t-6.5 20.5v197h-222v-202
q0 -14 -6 -18.5t-26 -4.5zM546 229h-129v-175q45 -6 110 -6q77 0 98.5 18t21.5 81q0 50 -19 66t-82 16z" />
    <glyph glyph-name="afii10108" unicode="&#x45b;" horiz-adv-x="497" 
d="M8 562q0 15 4.5 20t17.5 5h39v41q0 15 6 19t27 4q20 0 26 -4t6 -19v-41h128q13 0 17.5 -5t4.5 -20t-4.5 -19.5t-17.5 -4.5h-128v-137q36 78 162 78q79 0 106.5 -30.5t27.5 -97.5v-328q0 -15 -6 -19t-26 -4t-26 4t-6 19v314q0 49 -18 67t-73 18q-77 0 -109 -40t-32 -132
v-227q0 -15 -6 -19t-26 -4q-21 0 -27 4t-6 19v515h-39q-13 0 -17.5 4.5t-4.5 19.5z" />
    <glyph glyph-name="afii10109" unicode="&#x45c;" horiz-adv-x="415" 
d="M183 540q-25 0 -25 12q0 8 8 22l54 98q4 8 7 11t11 5.5t23 2.5q36 0 36 -13q0 -9 -10 -24l-64 -97q-5 -7 -8 -10t-10.5 -5t-21.5 -2zM99 0q-21 0 -27 4t-6 19v445q0 14 6.5 18.5t26.5 4.5t26 -4.5t6 -18.5v-189h8l174 195q10 11 17.5 14t28.5 3q31 0 31 -12q0 -7 -16 -25
l-178 -198l188 -220q16 -19 16 -25q0 -11 -32 -11q-21 0 -28.5 2.5t-16.5 13.5l-185 217h-7v-210q0 -15 -6 -19t-26 -4z" />
    <glyph glyph-name="afii10110" unicode="&#x45e;" horiz-adv-x="444" 
d="M28 472q0 10 6 14.5t27 4.5q19 0 25.5 -3t9.5 -13l124 -416h6l122 416q3 10 10 13t25 3q21 0 28 -4t7 -14t-9 -37l-156 -487q-26 -83 -48.5 -111.5t-78.5 -28.5q-44 0 -71 8q-24 7 -24 29q0 16 3 21t12 5q2 0 25.5 -3t47.5 -3q31 0 45 13t25 52l20 69q-18 2 -27.5 12.5
t-17.5 33.5l-123 373q-13 39 -13 53zM221 557q-61 0 -79 18.5t-18 65.5q0 15 4.5 19t22.5 4q17 0 21.5 -3.5t5.5 -17.5q0 -23 7 -29.5t36 -6.5q30 0 37 6.5t7 29.5q1 14 5 17.5t22 3.5t22.5 -4t4.5 -19q0 -47 -18.5 -65.5t-79.5 -18.5z" />
    <glyph glyph-name="afii10193" unicode="&#x45f;" horiz-adv-x="464" 
d="M232 -111q-16 0 -20 3t-5 14l-5 94h-108q-17 0 -22.5 4.5t-5.5 17.5v446q0 14 6.5 18.5t26.5 4.5t26 -4.5t6 -18.5v-409h202v409q0 14 6.5 18.5t26.5 4.5t26 -4.5t6 -18.5v-446q0 -13 -5 -17.5t-23 -4.5h-109l-4 -94q-1 -11 -4.5 -14t-20.5 -3z" />
    <glyph glyph-name="afii10050" unicode="&#x490;" horiz-adv-x="401" 
d="M359 724q14 0 18.5 -3t4.5 -12v-130q0 -16 -5 -21.5t-19 -5.5h-227v-529q0 -14 -6 -18.5t-26 -4.5t-26.5 4.5t-6.5 18.5v567q0 13 5.5 17.5t22.5 4.5h224l12 97q2 9 7.5 12t21.5 3z" />
    <glyph glyph-name="afii10098" unicode="&#x491;" horiz-adv-x="344" 
d="M301 602q15 0 19.5 -2.5t4.5 -12.5v-130q0 -16 -5 -21t-20 -5h-169v-408q0 -14 -6 -18.5t-26 -4.5t-26.5 4.5t-6.5 18.5v445q0 14 5.5 18.5t22.5 4.5h166l12 96q2 9 7.5 12t21.5 3z" />
    <glyph glyph-name="Wgrave" unicode="&#x1e80;" horiz-adv-x="791" 
d="M211 0q-32 0 -43 4.5t-15 21.5l-132 551q-2 14 -2 19q0 16 31 16q33 0 36 -16l121 -535h12l122 518q4 14 15.5 18.5t39.5 4.5q27 0 38.5 -4.5t15.5 -18.5l123 -518h11l121 535q3 16 36 16q31 0 31 -16q0 -5 -2 -19l-132 -551q-4 -17 -15 -21.5t-43 -4.5t-43 4.5t-15 21.5
l-121 501h-10l-122 -501q-4 -17 -15 -21.5t-43 -4.5zM397 657q-19 0 -26 3.5t-14 13.5l-64 97q-9 16 -9 24q0 13 36 13q21 0 27.5 -4t12.5 -15l55 -98q7 -13 7 -22q0 -12 -25 -12z" />
    <glyph glyph-name="wgrave" unicode="&#x1e81;" horiz-adv-x="693" 
d="M189 0q-28 0 -39.5 4.5t-15.5 20.5l-101 414q-5 22 -5 33t6 15t25 4q22 0 29 -4.5t11 -21.5l90 -406h11l95 390q5 19 15 25.5t37 6.5t36.5 -6.5t14.5 -25.5l96 -390h10l91 406q4 17 10.5 21.5t29.5 4.5q19 0 25 -4.5t6 -14.5q0 -7 -6 -33l-101 -414q-4 -16 -15 -20.5
t-39 -4.5q-32 0 -45.5 4.5t-17.5 20.5l-92 374h-6l-93 -374q-4 -16 -17.5 -20.5t-44.5 -4.5zM369 540q-19 0 -26 3.5t-14 13.5l-64 97q-9 16 -9 24q0 13 36 13q21 0 27.5 -4t12.5 -15l55 -98q7 -13 7 -22q0 -12 -25 -12z" />
    <glyph glyph-name="Wacute" unicode="&#x1e82;" horiz-adv-x="791" 
d="M211 0q-32 0 -43 4.5t-15 21.5l-132 551q-2 14 -2 19q0 16 31 16q33 0 36 -16l121 -535h12l122 518q4 14 15.5 18.5t39.5 4.5q27 0 38.5 -4.5t15.5 -18.5l123 -518h11l121 535q3 16 36 16q31 0 31 -16q0 -5 -2 -19l-132 -551q-4 -17 -15 -21.5t-43 -4.5t-43 4.5t-15 21.5
l-121 501h-10l-122 -501q-4 -17 -15 -21.5t-43 -4.5zM394 657q-25 0 -25 12q0 8 8 22l54 98q4 8 7 11t11 5.5t23 2.5q36 0 36 -13q0 -9 -10 -24l-64 -97q-7 -10 -13.5 -13.5t-26.5 -3.5z" />
    <glyph glyph-name="wacute" unicode="&#x1e83;" horiz-adv-x="693" 
d="M189 0q-28 0 -39.5 4.5t-15.5 20.5l-101 414q-5 22 -5 33t6 15t25 4q22 0 29 -4.5t11 -21.5l90 -406h11l95 390q5 19 15 25.5t37 6.5t36.5 -6.5t14.5 -25.5l96 -390h10l91 406q4 17 10.5 21.5t29.5 4.5q19 0 25 -4.5t6 -14.5q0 -7 -6 -33l-101 -414q-4 -16 -15 -20.5
t-39 -4.5q-32 0 -45.5 4.5t-17.5 20.5l-92 374h-6l-93 -374q-4 -16 -17.5 -20.5t-44.5 -4.5zM326 540q-25 0 -25 12q0 8 8 22l54 98q4 8 7 11t11 5.5t23 2.5q36 0 36 -13q0 -9 -10 -24l-64 -97q-7 -10 -13.5 -13.5t-26.5 -3.5z" />
    <glyph glyph-name="Wdieresis" unicode="&#x1e84;" horiz-adv-x="791" 
d="M211 0q-32 0 -43 4.5t-15 21.5l-132 551q-2 14 -2 19q0 16 31 16q33 0 36 -16l121 -535h12l122 518q4 14 15.5 18.5t39.5 4.5q27 0 38.5 -4.5t15.5 -18.5l123 -518h11l121 535q3 16 36 16q31 0 31 -16q0 -5 -2 -19l-132 -551q-4 -17 -15 -21.5t-43 -4.5t-43 4.5t-15 21.5
l-121 501h-10l-122 -501q-4 -17 -15 -21.5t-43 -4.5zM328 699q-22 0 -28.5 4.5t-6.5 20.5v24q0 16 6.5 20.5t28.5 4.5q23 0 29.5 -4.5t6.5 -20.5v-24q0 -16 -6.5 -20.5t-29.5 -4.5zM464 699q-22 0 -29 4.5t-7 20.5v24q0 16 7 20.5t29 4.5t29 -4.5t7 -20.5v-24
q0 -16 -7 -20.5t-29 -4.5z" />
    <glyph glyph-name="wdieresis" unicode="&#x1e85;" horiz-adv-x="693" 
d="M189 0q-28 0 -39.5 4.5t-15.5 20.5l-101 414q-5 22 -5 33t6 15t25 4q22 0 29 -4.5t11 -21.5l90 -406h11l95 390q5 19 15 25.5t37 6.5t36.5 -6.5t14.5 -25.5l96 -390h10l91 406q4 17 10.5 21.5t29.5 4.5q19 0 25 -4.5t6 -14.5q0 -7 -6 -33l-101 -414q-4 -16 -15 -20.5
t-39 -4.5q-32 0 -45.5 4.5t-17.5 20.5l-92 374h-6l-93 -374q-4 -16 -17.5 -20.5t-44.5 -4.5zM279 577q-22 0 -28.5 4.5t-6.5 20.5v24q0 16 6.5 20.5t28.5 4.5q23 0 29.5 -4.5t6.5 -20.5v-24q0 -16 -6.5 -20.5t-29.5 -4.5zM415 577q-22 0 -29 4.5t-7 20.5v24q0 16 7 20.5
t29 4.5t29 -4.5t7 -20.5v-24q0 -16 -7 -20.5t-29 -4.5z" />
    <glyph glyph-name="Eszett" unicode="&#x1e9e;" horiz-adv-x="499" 
d="M97 0q-20 0 -26.5 4.5t-6.5 18.5v467q0 68 39.5 100t136.5 32q72 0 139 -21q40 -13 40 -41q0 -18 -13 -40l-103 -181l94 -83q36 -32 51 -56.5t15 -66.5q0 -74 -37.5 -108t-117.5 -34q-49 0 -102 15q-15 4 -19.5 10t-4.5 22q0 26 11 26q2 0 40 -7t68 -7q59 0 77.5 19.5
t18.5 65.5q0 23 -7.5 37.5t-26.5 30.5l-93 82q-30 27 -30 49q0 14 15 42l97 169q-38 16 -113 16q-71 0 -90.5 -15.5t-19.5 -54.5v-468q0 -14 -6 -18.5t-26 -4.5z" />
    <glyph glyph-name="Ygrave" unicode="&#x1ef2;" horiz-adv-x="444" 
d="M222 0q-20 0 -26 4.5t-6 18.5v218l-163 331q-8 16 -8 24q0 16 30 16q22 0 30.5 -3t12.5 -13l128 -284h4l129 284q4 10 12 13t29 3q32 0 32 -15q0 -9 -8 -25l-164 -331v-218q0 -14 -6 -18.5t-26 -4.5zM245 657q-19 0 -26 3.5t-14 13.5l-64 97q-9 16 -9 24q0 13 36 13
q21 0 27.5 -4t12.5 -15l55 -98q7 -13 7 -22q0 -12 -25 -12z" />
    <glyph glyph-name="ygrave" unicode="&#x1ef3;" horiz-adv-x="444" 
d="M28 472q0 10 6 14.5t27 4.5q19 0 25.5 -3t9.5 -13l124 -416h6l122 416q3 10 10 13t25 3q21 0 28 -4t7 -14t-9 -37l-156 -487q-26 -83 -48.5 -111.5t-78.5 -28.5q-44 0 -71 8q-24 7 -24 29q0 16 3 21t12 5q2 0 25.5 -3t47.5 -3q31 0 45 13t25 52l20 69q-18 2 -27.5 12.5
t-17.5 33.5l-123 373q-13 39 -13 53zM244 540q-20 0 -26.5 3.5t-13.5 13.5l-64 97q-9 16 -9 24q0 13 36 13q21 0 27.5 -4t12.5 -15l55 -98q7 -13 7 -22q0 -12 -25 -12z" />
    <glyph glyph-name="endash" unicode="&#x2013;" horiz-adv-x="416" 
d="M39 267q0 18 4.5 24t18.5 6h292q13 0 17.5 -6t4.5 -24t-4.5 -24t-17.5 -6h-292q-14 0 -18.5 6t-4.5 24z" />
    <glyph glyph-name="emdash" unicode="&#x2014;" horiz-adv-x="662" 
d="M39 267q0 18 4.5 24t18.5 6h538q14 0 18.5 -6t4.5 -24t-4.5 -24t-18.5 -6h-538q-14 0 -18.5 6t-4.5 24z" />
    <glyph glyph-name="afii00208" unicode="&#x2015;" horiz-adv-x="662" 
d="M39 267q0 18 4.5 24t18.5 6h538q14 0 18.5 -6t4.5 -24t-4.5 -24t-18.5 -6h-538q-14 0 -18.5 6t-4.5 24z" />
    <glyph glyph-name="quoteleft" unicode="&#x2018;" horiz-adv-x="190" 
d="M88 442q-21 0 -27.5 5t-6.5 20v28q0 31 11 72l17 64q5 12 11 16t21 4q13 0 17.5 -2.5t4.5 -10.5q0 -5 -7 -49t-7 -75v-47q0 -15 -6.5 -20t-27.5 -5z" />
    <glyph glyph-name="quoteright" unicode="&#x2019;" horiz-adv-x="190" 
d="M102 651q21 0 27.5 -5t6.5 -20v-27q0 -31 -11 -72l-17 -65q-4 -12 -10.5 -16t-21.5 -4q-13 0 -17 3t-4 11q0 5 6.5 49t6.5 75v46q0 15 6.5 20t27.5 5z" />
    <glyph glyph-name="quotesinglbase" unicode="&#x201a;" horiz-adv-x="146" 
d="M67 78q21 0 27.5 -5t6.5 -20v-28q0 -32 -11 -71l-17 -65q-5 -12 -11 -16t-21 -4q-13 0 -17.5 2.5t-4.5 10.5q0 5 7 49.5t7 75.5v46q0 15 6.5 20t27.5 5z" />
    <glyph glyph-name="quotedblleft" unicode="&#x201c;" horiz-adv-x="329" 
d="M88 442q-21 0 -27.5 5t-6.5 20v28q0 31 11 72l17 64q5 12 11 16t21 4q13 0 17.5 -2.5t4.5 -10.5q0 -5 -7 -49t-7 -75v-47q0 -15 -6.5 -20t-27.5 -5zM227 442q-21 0 -27.5 5t-6.5 20v28q0 31 11 72l17 64q5 12 11 16t21 4q13 0 17.5 -2.5t4.5 -10.5q0 -5 -7 -49t-7 -75
v-47q0 -15 -6.5 -20t-27.5 -5z" />
    <glyph glyph-name="quotedblright" unicode="&#x201d;" horiz-adv-x="329" 
d="M241 651q21 0 27.5 -5t6.5 -20v-27q0 -31 -11 -72l-17 -65q-4 -12 -10.5 -16t-21.5 -4q-13 0 -17 3t-4 11q0 5 6.5 49t6.5 75v46q0 15 6.5 20t27.5 5zM102 651q21 0 27.5 -5t6.5 -20v-27q0 -31 -11 -72l-17 -65q-4 -12 -10.5 -16t-21.5 -4q-13 0 -17 3t-4 11q0 5 6.5 49
t6.5 75v46q0 15 6.5 20t27.5 5z" />
    <glyph glyph-name="quotedblbase" unicode="&#x201e;" horiz-adv-x="285" 
d="M67 78q21 0 27.5 -5t6.5 -20v-28q0 -32 -11 -71l-17 -65q-5 -12 -11 -16t-21 -4q-13 0 -17.5 2.5t-4.5 10.5q0 5 7 49.5t7 75.5v46q0 15 6.5 20t27.5 5zM206 78q21 0 27.5 -5t6.5 -20v-28q0 -32 -11 -71l-17 -65q-5 -12 -11 -16t-21 -4q-13 0 -17.5 2.5t-4.5 10.5
q0 5 7 49.5t7 75.5v46q0 15 6.5 20t27.5 5z" />
    <glyph glyph-name="dagger" unicode="&#x2020;" horiz-adv-x="420" 
d="M210 -190q-20 0 -26 4t-6 19v506h-127q-13 0 -17.5 5t-4.5 23t4.5 23.5t17.5 5.5h127v153q0 14 6 18.5t26 4.5q19 0 25.5 -4.5t6.5 -18.5v-153h126q14 0 18.5 -5.5t4.5 -23.5t-4.5 -23t-18.5 -5h-126v-506q0 -15 -6.5 -19t-25.5 -4z" />
    <glyph glyph-name="daggerdbl" unicode="&#x2021;" horiz-adv-x="420" 
d="M210 -190q-20 0 -26 4t-6 19v153h-127q-13 0 -17.5 5.5t-4.5 23.5t4.5 23t17.5 5h127v296h-127q-13 0 -17.5 5t-4.5 23t4.5 23.5t17.5 5.5h127v153q0 14 6 18.5t26 4.5q19 0 25.5 -4.5t6.5 -18.5v-153h126q14 0 18.5 -5.5t4.5 -23.5t-4.5 -23t-18.5 -5h-126v-296h126
q14 0 18.5 -5t4.5 -23t-4.5 -23.5t-18.5 -5.5h-126v-153q0 -15 -6.5 -19t-25.5 -4z" />
    <glyph glyph-name="bullet" unicode="&#x2022;" horiz-adv-x="268" 
d="M134 169q-60 0 -82 22.5t-22 85.5q0 64 21.5 84t82.5 20t82.5 -20t21.5 -84q0 -63 -22 -85.5t-82 -22.5z" />
    <glyph glyph-name="ellipsis" unicode="&#x2026;" horiz-adv-x="525" 
d="M83 0q-22 0 -29 4.5t-7 20.5v28q0 16 7 20.5t29 4.5t29.5 -5t7.5 -20v-28q0 -15 -7.5 -20t-29.5 -5zM263 0q-22 0 -29.5 5t-7.5 20v28q0 15 7.5 20t29.5 5t29 -4.5t7 -20.5v-28q0 -16 -7 -20.5t-29 -4.5zM442 0q-22 0 -29.5 5t-7.5 20v28q0 15 7.5 20t29.5 5t29 -4.5
t7 -20.5v-28q0 -16 -7 -20.5t-29 -4.5z" />
    <glyph glyph-name="perthousand" unicode="&#x2030;" horiz-adv-x="737" 
d="M344 0q-68 0 -88 26.5t-20 104.5t20.5 104t87.5 26t87.5 -26t20.5 -104t-20.5 -104.5t-87.5 -26.5zM344 46q35 0 43.5 15.5t8.5 68.5q0 54 -8.5 69t-43.5 15q-36 0 -44.5 -15t-8.5 -69q0 -53 9 -68.5t44 -15.5zM129 351q-67 0 -87.5 26.5t-20.5 104.5t20.5 104t87.5 26
t87.5 -26t20.5 -104t-20.5 -104.5t-87.5 -26.5zM129 398q36 0 44.5 15t8.5 69t-8.5 69t-44.5 15t-44.5 -15t-8.5 -69t8.5 -69t44.5 -15zM57 0q-23 0 -23 12q0 8 7 21l332 563q7 16 38 16q23 0 23 -12q0 -8 -7 -21l-332 -563q-9 -16 -38 -16zM608 0q-67 0 -87.5 26.5
t-20.5 104.5t20.5 104t87.5 26t87.5 -26t20.5 -104t-20 -104.5t-88 -26.5zM608 46q35 0 44 15.5t9 68.5q0 54 -8.5 69t-44.5 15q-35 0 -43.5 -15t-8.5 -69q0 -53 8.5 -68.5t43.5 -15.5z" />
    <glyph glyph-name="guilsinglleft" unicode="&#x2039;" horiz-adv-x="316" 
d="M105 256v-8l155 -116q12 -10 15.5 -17.5t3.5 -26.5q0 -28 -13 -28q-8 0 -21 10l-183 128q-15 10 -19.5 20t-4.5 34t4.5 34t19.5 20l183 128q16 10 21 10q13 0 13 -28q0 -19 -3.5 -27t-15.5 -17z" />
    <glyph glyph-name="guilsinglright" unicode="&#x203a;" horiz-adv-x="316" 
d="M279 252q0 -24 -5 -34t-20 -20l-183 -128q-13 -10 -21 -10q-12 0 -12 28q0 19 3 27t15 17l155 116v8l-155 116q-12 9 -15 16.5t-3 27.5q0 28 12 28q5 0 21 -10l183 -128q15 -10 20 -20t5 -34z" />
    <glyph glyph-name="fraction" unicode="&#x2044;" 
d="M341 618q25 0 25 -12q0 -4 -6 -21l-214 -568q-4 -10 -10.5 -13.5t-21.5 -3.5q-24 0 -24 12q0 4 5 21l214 568q6 17 32 17z" />
    <glyph glyph-name="Euro" unicode="&#x20ac;" 
d="M307 272q0 -8 -8 -32q-2 -8 -11 -8h-153q2 -65 8.5 -101.5t25 -55t41 -23t67.5 -4.5q31 0 60.5 5t47.5 10t21 5q9 0 11.5 -4.5t2.5 -21.5t-5 -22.5t-19 -9.5q-63 -19 -132 -19q-35 0 -56 2t-45.5 9.5t-38 23t-26.5 42t-19 67t-7 97.5h-48q-9 0 -9 7q0 11 9 31q3 9 10 9
h38v70h-48q-9 0 -9 7q0 11 9 31q2 8 10 8h39q2 51 8 87.5t18 61t25.5 39.5t37 22.5t46 9.5t57.5 2q68 0 131 -19q10 -3 14 -5t7 -8.5t3 -18.5q0 -17 -2.5 -21.5t-11.5 -4.5q-3 0 -22 5t-48.5 10t-58.5 5q-46 0 -68.5 -4t-41 -21.5t-24.5 -49t-8 -90.5h186q8 0 8 -7t-8 -31
q-2 -8 -11 -8h-175v-70h164q8 0 8 -7z" />
    <glyph glyph-name="hryvnia" unicode="&#x20b4;" 
d="M57 355q0 17 4.5 22t17.5 5h162l45 51q47 55 47 86q0 23 -21 31t-80 8q-34 0 -69.5 -5t-58 -10t-25.5 -5q-9 0 -12 5.5t-3 22.5q0 25 21 31q75 20 152 20q78 0 119 -18.5t41 -74.5q0 -34 -19 -65t-64 -77h71q13 0 17.5 -5t4.5 -22t-4.5 -22t-17.5 -5h-118l-44 -51h162
q13 0 17.5 -5t4.5 -22t-4.5 -22t-17.5 -5h-209q-39 -46 -51.5 -67t-12.5 -48q0 -34 30 -46t94 -12q50 0 106 8l57 9q8 0 10.5 -4t2.5 -21q0 -16 -4 -22.5t-16 -9.5q-71 -19 -173 -19q-84 0 -127 22.5t-43 91.5q0 57 52 118h-22q-13 0 -17.5 5t-4.5 22t4.5 22t17.5 5h71
l44 51h-115q-13 0 -17.5 5t-4.5 22z" />
    <glyph glyph-name="numero" unicode="&#x2116;" horiz-adv-x="903" 
d="M576 146q0 18 4.5 24t18.5 6h209q14 0 18.5 -6t4.5 -24t-4.5 -24t-18.5 -6h-209q-14 0 -18.5 6t-4.5 24zM701 253q-37 0 -58.5 5t-42 21.5t-29.5 54t-9 97.5q0 63 8.5 101t30.5 56t46.5 23.5t67.5 5.5q37 0 58.5 -4.5t42 -21.5t29.5 -54t9 -97q0 -63 -9 -101t-30.5 -56.5
t-46 -24t-67.5 -5.5zM702 302q56 0 75 23t19 106q0 62 -9 91.5t-24.5 37.5t-48.5 8q-39 0 -56.5 -7.5t-27.5 -35t-10 -85.5q0 -62 8.5 -92t24 -38t49.5 -8zM103 0q-20 0 -26 4.5t-6 18.5v566q0 14 10 18.5t44 4.5q31 0 41.5 -3.5t17.5 -18.5l218 -506h10v505q0 14 6 18.5
t26 4.5t26 -4.5t6 -18.5v-566q0 -14 -9.5 -18.5t-44.5 -4.5q-31 0 -41 4t-17 19l-219 505h-10v-505q0 -14 -6 -18.5t-26 -4.5z" />
    <glyph glyph-name="trademark" unicode="&#x2122;" horiz-adv-x="702" 
d="M362 292q-18 0 -23 4.5t-5 18.5v273q0 15 8.5 19.5t44.5 4.5q31 0 41 -5.5t17 -27.5l58 -177l59 177q7 22 17 27.5t41 5.5q36 0 44.5 -4.5t8.5 -19.5v-273q0 -14 -5 -18.5t-23 -4.5t-23 4.5t-5 18.5v234h-9l-69 -199q-5 -15 -11.5 -19t-24.5 -4q-17 0 -23.5 4t-11.5 19
l-69 199h-9v-234q0 -14 -5 -18.5t-23 -4.5zM155 297q-18 0 -23 4.5t-5 18.5v240h-76q-14 0 -18 4.5t-4 21.5t4 21.5t18 4.5h208q14 0 18 -4.5t4 -21.5t-4 -21.5t-18 -4.5h-76v-240q0 -14 -5 -18.5t-23 -4.5z" />
    <glyph glyph-name="minus" unicode="&#x2212;" 
d="M102 267q0 18 4.5 24t17.5 6h213q13 0 17.5 -6t4.5 -24t-4.5 -24t-17.5 -6h-213q-13 0 -17.5 6t-4.5 24z" />
    <glyph glyph-name="commaaccent" unicode="&#xf6c3;" horiz-adv-x="138" 
d="M53 -225q-14 0 -18 2.5t-4 10.5q0 2 5.5 48t5.5 91q0 18 6 23.5t28 5.5q20 0 27 -5t7 -18q0 -53 -8 -74l-19 -67q-6 -17 -30 -17z" />
    <glyph glyph-name="ruble" 
d="M114 0q-20 0 -26 4.5t-6 18.5v131h-43q-13 0 -17.5 5t-4.5 22t4.5 22t17.5 5h43v55h-43q-13 0 -17.5 5t-4.5 22t4.5 22t17.5 5h43v263q0 24 27 28q69 9 129 9q115 0 149.5 -28t34.5 -132q0 -106 -38.5 -150t-149.5 -44h-88v-55h182q13 0 17.5 -5t4.5 -22t-4.5 -22
t-17.5 -5h-182v-131q0 -14 -6 -18.5t-26 -4.5zM146 556v-239h88q76 0 98.5 27.5t22.5 110.5q0 39 -2.5 56t-14.5 31t-34.5 17t-66.5 3q-41 0 -91 -6z" />
    </font>
</defs>
</svg>
