<?xml version="1.0" standalone="no"?>
<!DOCTYPE svg PUBLIC "-//W3C//DTD SVG 1.1//EN" "http://www.w3.org/Graphics/SVG/1.1/DTD/svg11.dtd" >
<svg xmlns="http://www.w3.org/2000/svg" xmlns:xlink="http://www.w3.org/1999/xlink" version="1.1">
<metadata>
Created by FontForge 20161013 at Fri Nov 30 21:21:03 2012
 By ,,,
Copyright (c) 2012 by Manuel Eduardo Corradine - Sergio Rami'rez. All rights reserved.
</metadata>
<defs>
<font id="Neuron-Bold" horiz-adv-x="465" >
  <font-face 
    font-family="Neuron"
    font-weight="700"
    font-stretch="normal"
    units-per-em="1000"
    panose-1="0 0 0 0 0 0 0 0 0 0"
    ascent="800"
    descent="-200"
    x-height="493"
    cap-height="621"
    bbox="-58 -244 874 880"
    underline-thickness="50"
    underline-position="-200"
    unicode-range="U+000D-F6C3"
  />
<missing-glyph horiz-adv-x="500" 
d="M75 0v561h350v-561h-350zM85 11h330v539h-330v-539zM324 349l-70 -69l70 -69l-5 -4l-69 69l-68 -69l-5 4l69 69l-69 69l4 5l69 -69l70 69z" />
    <glyph glyph-name=".notdef" horiz-adv-x="500" 
d="M75 0v561h350v-561h-350zM85 11h330v539h-330v-539zM324 349l-70 -69l70 -69l-5 -4l-69 69l-68 -69l-5 4l69 69l-69 69l4 5l69 -69l70 69z" />
    <glyph glyph-name=".null" horiz-adv-x="0" 
 />
    <glyph glyph-name="nonmarkingreturn" horiz-adv-x="333" 
 />
    <glyph glyph-name="NULL" horiz-adv-x="0" 
 />
    <glyph glyph-name="NULL" horiz-adv-x="0" 
 />
    <glyph glyph-name="CR" unicode="&#xd;" horiz-adv-x="424" 
 />
    <glyph glyph-name="space" unicode=" " horiz-adv-x="209" 
 />
    <glyph glyph-name="exclam" unicode="!" horiz-adv-x="213" 
d="M106 160q-32 0 -41.5 6t-9.5 27q0 54 -3.5 190.5t-3.5 203.5q0 21 11.5 27.5t46.5 6.5t47 -6.5t12 -27.5q0 -67 -3.5 -203.5t-3.5 -190.5q0 -21 -9.5 -27t-42.5 -6zM107 0q-38 0 -49 8t-11 35v25q0 27 11 35t49 8t49 -8t11 -35v-25q0 -27 -11 -35t-49 -8z" />
    <glyph glyph-name="quotedbl" unicode="&#x22;" horiz-adv-x="316" 
d="M82 385q-24 0 -32.5 5t-10.5 21q-16 126 -16 173q0 22 11 29.5t48 7.5t48 -7.5t11 -29.5q0 -47 -16 -173q-2 -16 -10.5 -21t-32.5 -5zM234 385q-24 0 -32.5 5t-10.5 21q-16 126 -16 173q0 22 11 29.5t48 7.5t48 -7.5t11 -29.5q0 -47 -16 -173q-2 -16 -11 -21t-32 -5z" />
    <glyph glyph-name="numbersign" unicode="#" 
d="M318 39q-29 0 -38 6t-9 27v100h-78v-100q0 -21 -9.5 -27t-37.5 -6q-29 0 -38 6t-9 27v100h-43q-21 0 -27 7t-6 34t6 34t27 7h43v127h-43q-21 0 -27 7.5t-6 33.5q0 27 6 34.5t27 7.5h43v92q0 22 9 28t38 6q28 0 37.5 -6t9.5 -28v-92h78v92q0 22 9 28t38 6q28 0 37.5 -6
t9.5 -28v-92h44q21 0 27 -7.5t6 -34.5q0 -26 -6 -33.5t-27 -7.5h-44v-127h44q21 0 27 -7t6 -34t-6 -34t-27 -7h-44v-100q0 -21 -9.5 -27t-37.5 -6zM193 381v-127h78v127h-78z" />
    <glyph glyph-name="dollar" unicode="$" 
d="M245 721q33 0 42.5 -6t9.5 -28v-65q42 -4 88 -15q13 -3 18.5 -13.5t5.5 -40.5q0 -46 -20 -46q-1 0 -45 7.5t-87 7.5q-52 0 -72 -11.5t-20 -53.5q0 -27 9 -39.5t33 -23.5l120 -52q54 -23 76 -59t22 -104q0 -158 -146 -183v-71q0 -22 -9.5 -28t-43.5 -6q-33 0 -42.5 6
t-9.5 28v66q-63 5 -106 17q-16 5 -22 15.5t-6 39.5q0 28 4.5 37t15.5 9q3 0 46.5 -7.5t87.5 -7.5q62 0 90 17t28 61q0 34 -9.5 51.5t-38.5 29.5l-115 49q-51 21 -74 55.5t-23 100.5q0 151 140 166v63q0 22 9.5 28t43.5 6z" />
    <glyph glyph-name="percent" unicode="%" horiz-adv-x="522" 
d="M143 335q-75 0 -99 28.5t-24 115.5q0 86 25.5 114t97.5 28t97 -28t25 -114q0 -55 -8 -82l118 201q8 14 19.5 18.5t43.5 4.5q40 0 40 -17q0 -11 -13 -32l-180 -309q26 23 93 23q73 0 98 -28t25 -114q0 -87 -24 -115.5t-99 -28.5t-98.5 28.5t-23.5 115.5q0 57 9 83
l-119 -204q-8 -13 -20 -18t-43 -5q-40 0 -40 16q0 11 12 33l179 307q-25 -21 -91 -21zM143 404q27 0 34 13t7 60q0 48 -7 61t-34 13q-28 0 -34.5 -13t-6.5 -61q0 -47 7 -60t34 -13zM378 70q27 0 34 13t7 60q0 48 -6.5 60.5t-34.5 12.5q-27 0 -34 -13t-7 -60t7 -60t34 -13z
" />
    <glyph glyph-name="ampersand" unicode="&#x26;" horiz-adv-x="518" 
d="M480 270h-42v-134q0 -84 -47 -113.5t-147 -29.5q-111 0 -159 37.5t-48 134.5q0 73 30 109t99 40q-104 16 -104 154q0 91 40 124.5t119 33.5q87 0 160 -19q14 -4 18.5 -13t4.5 -38q0 -45 -22 -45q-4 0 -53 7t-84 7q-39 0 -52 -15t-13 -64q0 -47 20 -69.5t82 -22.5h55v48
q0 22 8 28t40 6q31 0 39 -6t8 -28v-48h48q19 0 25 -8.5t6 -33.5t-6 -33.5t-25 -8.5zM248 91q51 0 70 15t19 53v111h-59q-74 0 -98.5 -22t-24.5 -71q0 -48 18 -67t75 -19z" />
    <glyph glyph-name="quotesingle" unicode="'" horiz-adv-x="164" 
d="M82 385q-24 0 -32.5 5t-10.5 21q-16 126 -16 173q0 22 11 29.5t48 7.5t48 -7.5t11 -29.5q0 -47 -16 -173q-2 -16 -10.5 -21t-32.5 -5z" />
    <glyph glyph-name="parenleft" unicode="(" horiz-adv-x="218" 
d="M36 308q0 195 68 336q8 18 20.5 24t41.5 6q40 0 40 -24q0 -8 -13 -52t-26.5 -121.5t-13.5 -168.5t13.5 -168.5t26.5 -121.5t13 -52q0 -25 -40 -25q-28 0 -40.5 6.5t-21.5 23.5q-68 141 -68 337z" />
    <glyph glyph-name="parenright" unicode=")" horiz-adv-x="218" 
d="M182 308q0 -196 -68 -337q-9 -17 -21.5 -23.5t-40.5 -6.5q-40 0 -40 25q0 8 13 52t26.5 121.5t13.5 168.5t-13.5 168.5t-26.5 121.5t-13 52q0 24 40 24q29 0 41.5 -6t20.5 -24q68 -141 68 -336z" />
    <glyph glyph-name="asterisk" unicode="*" horiz-adv-x="395" 
d="M198 626q27 0 36 -5.5t9 -20.5v-73q0 -12 -3 -21q8 6 19 10l66 21q14 5 21.5 -2t16.5 -33q6 -18 6.5 -28t-3 -15t-13.5 -8l-66 -21q-12 -4 -21 -4q8 -4 15 -15l43 -59q9 -11 5 -21t-27 -26q-22 -16 -32 -17t-19 11l-43 59q-8 9 -11 19q-1 -4 -10 -19l-43 -59
q-8 -12 -18 -11.5t-33 17.5q-22 16 -26.5 26t4.5 21l43 59q8 11 15 15q-9 0 -20 4l-67 21q-10 3 -13.5 8t-3 15t6.5 28q8 26 16 33t22 2l66 -21q13 -4 19 -10q-2 5 -2 21v73q0 15 9 20.5t36 5.5z" />
    <glyph glyph-name="plus" unicode="+" 
d="M233 90q-32 0 -41.5 6t-9.5 25v102h-90q-20 0 -25.5 7.5t-5.5 38.5t5.5 38t25.5 7h90v103q0 19 9.5 25t41.5 6t41.5 -6t9.5 -25v-103h90q20 0 25.5 -7t5.5 -38t-5.5 -38.5t-25.5 -7.5h-90v-102q0 -19 -9.5 -25t-41.5 -6z" />
    <glyph glyph-name="comma" unicode="," horiz-adv-x="176" 
d="M89 122q38 0 48.5 -8t10.5 -35v-27q0 -43 -17 -92l-16 -48q-9 -27 -20.5 -34.5t-42.5 -7.5q-21 0 -28 5t-7 16q0 7 6.5 53t6.5 73v62q0 27 11 35t48 8z" />
    <glyph glyph-name="hyphen" unicode="-" horiz-adv-x="326" 
d="M30 257q0 32 6 41.5t25 9.5h204q19 0 25 -9.5t6 -41.5t-6 -41.5t-25 -9.5h-204q-19 0 -25 9.5t-6 41.5z" />
    <glyph glyph-name="period" unicode="." horiz-adv-x="188" 
d="M95 0q-38 0 -49 8t-11 35v36q0 27 11 35t49 8t49 -8t11 -35v-36q0 -27 -11 -35t-49 -8z" />
    <glyph glyph-name="slash" unicode="/" horiz-adv-x="275" 
d="M218 674q48 0 48 -22q0 -11 -8 -48l-142 -632q-7 -30 -58 -30q-49 0 -49 22q0 7 9 48l142 632q7 30 58 30z" />
    <glyph glyph-name="zero" unicode="0" 
d="M233 93q54 0 72 27.5t18 114.5v142q0 96 -16.5 122.5t-73.5 26.5q-55 0 -73 -27t-18 -122v-142q0 -89 17 -115.5t74 -26.5zM233 -7q-56 0 -92 9t-63.5 34t-39.5 70t-12 115v160q0 78 12 127t39.5 74.5t63 34.5t92.5 9q60 0 96 -9.5t62.5 -36.5t37 -74.5t10.5 -124.5v-159
q0 -71 -13 -117.5t-41.5 -70t-63.5 -32.5t-88 -9z" />
    <glyph glyph-name="one" unicode="1" 
d="M61 51q0 31 6.5 41.5t24.5 10.5h83v394l-71 -19q-16 -4 -25 -4q-20 0 -20 49q0 32 5 43t21 16l100 31q24 8 48 8q35 0 46.5 -6.5t11.5 -27.5v-484h84q18 0 24.5 -10.5t6.5 -41.5q0 -30 -6.5 -40.5t-24.5 -10.5h-283q-18 0 -24.5 10.5t-6.5 40.5z" />
    <glyph glyph-name="two" unicode="2" 
d="M175 103h216q18 0 24.5 -10.5t6.5 -41.5q0 -30 -6.5 -40.5t-24.5 -10.5h-315q-19 0 -26 6.5t-7 27.5v61q0 52 19.5 86t65.5 79l130 128q19 19 27 33.5t8 39.5q0 41 -16 52.5t-65 11.5q-39 0 -85 -8.5t-51 -8.5q-10 0 -14 9t-4 37q0 29 5.5 38.5t21.5 14.5q64 19 161 19
q38 0 62.5 -4t50.5 -18t39 -46.5t13 -83.5q0 -56 -20.5 -88.5t-80.5 -90.5l-103 -98q-12 -11 -17.5 -18.5t-10 -19.5t-4.5 -29v-27z" />
    <glyph glyph-name="three" unicode="3" 
d="M231 -7q-106 0 -165 18q-17 5 -23 14t-6 38q0 28 4.5 37t15.5 9q4 0 58.5 -7.5t93.5 -7.5q57 0 76 21.5t19 68.5q0 48 -28.5 68.5t-112.5 20.5q-19 0 -25 9.5t-6 36.5q0 26 6 36t25 10q72 0 100.5 21.5t28.5 66.5q0 43 -15 57.5t-62 14.5q-37 0 -86.5 -7.5t-52.5 -7.5
q-21 0 -21 46q0 29 5.5 38.5t18.5 12.5q71 19 168 19q82 0 122.5 -33.5t40.5 -124.5q0 -62 -28.5 -100.5t-83.5 -46.5q67 -4 95.5 -39.5t28.5 -108.5q0 -96 -47.5 -138t-143.5 -42z" />
    <glyph glyph-name="four" unicode="4" 
d="M327 0q-35 0 -46.5 6.5t-11.5 27.5v111h-211q-24 0 -31.5 10t-7.5 48q0 36 16 66l169 317q12 23 31.5 29t68.5 6t65 -6.5t16 -27.5v-345h31q18 0 24.5 -9t6.5 -39t-6.5 -39.5t-24.5 -9.5h-31v-111q0 -21 -11.5 -27.5t-46.5 -6.5zM271 515l-139 -273h143l2 273h-6z" />
    <glyph glyph-name="five" unicode="5" 
d="M211 -7q-68 0 -135 18q-17 5 -22.5 14t-5.5 38q0 28 4.5 36.5t15.5 8.5q2 0 42.5 -7.5t82.5 -7.5q65 0 86.5 18t21.5 73v33q0 47 -15.5 61.5t-58.5 14.5q-33 0 -79.5 -7.5t-55.5 -7.5q-16 0 -24 4.5t-8 22.5v285q0 19 7.5 25t28.5 6h270q18 0 24.5 -10.5t6.5 -41.5
t-6.5 -41t-24.5 -10h-201v-139q35 11 94 11q28 0 45 -1.5t41 -10.5t38 -25.5t24 -49t10 -78.5v-52q0 -47 -11 -80.5t-29 -52.5t-46 -30t-55.5 -14t-64.5 -3z" />
    <glyph glyph-name="six" unicode="6" 
d="M231 -7q-51 0 -82 7.5t-59.5 31.5t-41.5 74t-13 129v134q0 68 13 117t32 75.5t49.5 41.5t57 19t62.5 4q64 0 124 -15q14 -3 19 -11.5t5 -39.5q0 -46 -20 -46q-2 0 -42 6t-73 6q-34 0 -52 -4t-34.5 -20t-23 -48.5t-6.5 -87.5v-39q31 59 132 59q82 0 116.5 -37t34.5 -150
q0 -119 -45.5 -162.5t-152.5 -43.5zM234 93q49 0 68 19.5t19 78.5q0 61 -16 81t-69 20q-50 0 -70 -19t-20 -68q0 -71 18 -91.5t70 -20.5z" />
    <glyph glyph-name="seven" unicode="7" 
d="M169 0q-51 0 -51 25q0 15 12 46l165 447h-227q-18 0 -24.5 10t-6.5 41t6.5 41.5t24.5 10.5h310q25 0 32.5 -10t7.5 -48q0 -24 -15 -66l-169 -467q-6 -18 -21.5 -24t-43.5 -6z" />
    <glyph glyph-name="eight" unicode="8" 
d="M232 -7q-118 0 -159.5 40.5t-41.5 144.5q0 121 87 151q-73 31 -73 142q0 91 47 123t140 32q94 0 140.5 -32t46.5 -123q0 -111 -73 -142q89 -30 89 -151q0 -104 -42.5 -144.5t-160.5 -40.5zM232 91q53 0 69.5 18.5t16.5 79.5q0 59 -18 76t-68 17t-68 -17t-18 -76
q0 -61 16.5 -79.5t69.5 -18.5zM232 374q45 0 59 14t14 68q0 49 -15 62t-58 13t-58 -13t-15 -62q0 -54 14.5 -68t58.5 -14z" />
    <glyph glyph-name="nine" unicode="9" 
d="M206 -7q-57 0 -119 15q-16 3 -21.5 11.5t-5.5 39.5q0 46 20 46q2 0 39 -6t71 -6q40 0 60.5 4t37.5 20.5t22.5 48.5t5.5 89v33q-30 -57 -128 -57q-83 0 -116.5 37.5t-33.5 153.5t43.5 160t148.5 44q50 0 81.5 -7.5t60.5 -31.5t42 -74.5t13 -129.5v-131q0 -70 -13 -119.5
t-32 -76t-50.5 -41.5t-58.5 -18.5t-67 -3.5zM227 326q51 0 70 18.5t19 68.5q0 75 -15.5 95.5t-69.5 20.5q-52 0 -69 -19.5t-17 -81.5t15 -82t67 -20z" />
    <glyph glyph-name="colon" unicode=":" horiz-adv-x="188" 
d="M95 0q-38 0 -49 8t-11 35v36q0 27 11 35t49 8t49 -8t11 -35v-36q0 -27 -11 -35t-49 -8zM95 376q-38 0 -49 8t-11 35v36q0 27 11 35t49 8t49 -8t11 -35v-36q0 -27 -11 -35t-49 -8z" />
    <glyph glyph-name="semicolon" unicode=";" horiz-adv-x="176" 
d="M83 122q38 0 48.5 -8t10.5 -35v-27q0 -43 -17 -92l-16 -48q-9 -27 -20.5 -34.5t-42.5 -7.5q-21 0 -28 5t-7 16q0 7 6.5 53t6.5 73v62q0 27 11 35t48 8zM83 376q-38 0 -49 8t-11 35v36q0 27 11 35t49 8t49 -8t11 -35v-36q0 -27 -11 -35t-49 -8z" />
    <glyph glyph-name="less" unicode="&#x3c;" 
d="M157 265l194 -61q22 -7 27.5 -17.5t5.5 -47.5q0 -27 -5 -36t-17 -9t-23 5l-235 83q-26 9 -34 24.5t-8 62.5q0 45 8.5 60t33.5 25l235 84q15 5 23 5q11 0 16.5 -9t5.5 -36q0 -38 -5.5 -48t-27.5 -17l-194 -61v-7z" />
    <glyph glyph-name="equal" unicode="=" 
d="M75 193q0 31 5.5 38t25.5 7h253q20 0 25.5 -7t5.5 -38t-5.5 -38t-25.5 -7h-253q-20 0 -25.5 7t-5.5 38zM75 351q0 31 5.5 38t25.5 7h253q20 0 25.5 -7t5.5 -38t-5.5 -38.5t-25.5 -7.5h-253q-20 0 -25.5 7.5t-5.5 38.5z" />
    <glyph glyph-name="greater" unicode="&#x3e;" 
d="M114 204l194 61v7l-194 61q-22 7 -27.5 17t-5.5 48q0 27 5.5 36t16.5 9q8 0 23 -5l235 -84q25 -10 33.5 -25t8.5 -60q0 -47 -8 -62.5t-34 -24.5l-235 -83q-11 -5 -23 -5t-17 9t-5 36q0 37 5.5 47.5t27.5 17.5z" />
    <glyph glyph-name="question" unicode="?" horiz-adv-x="366" 
d="M159 160q-30 0 -41 6.5t-11 26.5v40q0 34 7.5 53t26.5 40l65 70q27 29 27 73q0 35 -15 45.5t-60 10.5q-36 0 -77.5 -7.5t-46.5 -7.5q-11 0 -15.5 9t-4.5 36q0 29 5.5 38t21.5 14q64 19 145 19q36 0 62.5 -5t51.5 -18t38 -40.5t13 -69.5q0 -48 -12.5 -76t-39.5 -59
l-65 -72q-22 -25 -22 -65v-28q0 -20 -11 -26.5t-42 -6.5zM159 0q-38 0 -49 8t-11 35v25q0 27 11 35t49 8t49.5 -8t11.5 -35v-25q0 -27 -11.5 -35t-49.5 -8z" />
    <glyph glyph-name="at" unicode="@" horiz-adv-x="867" 
d="M383 -10q-95 0 -125 50.5t-30 203.5q0 108 19 164.5t53.5 75.5t99.5 19q96 0 124 -74v30q0 22 9.5 28t42.5 6q34 0 43.5 -6t9.5 -28v-302q0 -82 49 -82q32 0 45.5 31.5t13.5 123.5v81q0 85 -12.5 136t-48 84.5t-93 45.5t-152.5 12q-94 0 -152 -15t-92 -52.5t-46 -92
t-12 -143.5v-96q0 -90 16.5 -146t57 -87t97 -42t149.5 -11q18 0 24.5 -9t6.5 -36q0 -28 -8 -37t-33 -9q-236 0 -325.5 82.5t-89.5 302.5v78q0 109 19 181.5t65.5 123.5t125 74t197.5 23q158 0 247.5 -38t126.5 -115t37 -209v-82q0 -62 -10.5 -107t-26.5 -71t-40.5 -41.5
t-48 -20t-53.5 -4.5q-54 0 -85 21t-46 71q-34 -92 -149 -92zM421 87q53 0 73.5 25t20.5 106v60q0 76 -16 101.5t-70 25.5q-35 0 -51 -11t-24 -46t-8 -108q0 -97 14.5 -125t60.5 -28z" />
    <glyph glyph-name="A" unicode="A" horiz-adv-x="532" 
d="M70 0q-35 0 -45.5 5.5t-10.5 21.5q0 7 7 35l136 506q9 35 28.5 44t80.5 9q60 0 79 -9t29 -44l137 -506q6 -24 6 -35q0 -15 -10.5 -21t-44.5 -6q-37 0 -49 6t-17 27l-36 134h-191l-33 -134q-5 -20 -17 -26.5t-49 -6.5zM259 523l-67 -267h148l-68 267h-13z" />
    <glyph glyph-name="B" unicode="B" horiz-adv-x="517" 
d="M254 -7q-107 0 -165 7q-23 3 -29.5 10.5t-6.5 26.5v542q0 21 7.5 29t27.5 10q66 8 144 8q63 0 99.5 -5t67 -20.5t43 -47t12.5 -83.5q0 -62 -16.5 -96.5t-60.5 -47.5q53 -11 76 -47t23 -111q0 -99 -46 -137t-176 -38zM169 525v-161h74q59 0 75.5 17t16.5 73q0 48 -15 61.5
t-72 13.5q-39 0 -79 -4zM169 281v-191q38 -5 91 -5q64 0 80.5 17t16.5 84q0 58 -17.5 76.5t-74.5 18.5h-96z" />
    <glyph glyph-name="C" unicode="C" horiz-adv-x="453" 
d="M255 -7q-54 0 -87 7.5t-65 33t-47 81t-15 143.5v88q0 55 6 97.5t15.5 72t25.5 50t32.5 32t40.5 18t45 8.5t51 2q72 0 143 -19q13 -3 18.5 -13t5.5 -41q0 -45 -18 -45q-1 0 -42.5 7.5t-79.5 7.5q-32 0 -50.5 -3t-35.5 -13t-24.5 -30.5t-12 -53.5t-4.5 -85v-55
q0 -67 5.5 -104.5t23 -56t37.5 -23t61 -4.5q40 0 79.5 8t42.5 8q11 0 14.5 -9.5t3.5 -36.5q0 -29 -5.5 -39.5t-18.5 -13.5q-65 -19 -145 -19z" />
    <glyph glyph-name="D" unicode="D" horiz-adv-x="528" 
d="M249 95q53 0 76 11t34.5 50.5t11.5 126.5v69q0 112 -26 144.5t-106 32.5q-36 0 -70 -4v-426q28 -4 80 -4zM249 -7q-96 0 -160 7q-22 3 -29 10.5t-7 26.5v542q0 20 8 28.5t27 10.5q58 8 146 8q46 0 76 -2.5t62 -11.5t50.5 -27t34.5 -47.5t23 -74.5t7 -107v-73
q0 -79 -12 -133.5t-30.5 -85t-52 -47t-64 -20.5t-79.5 -4z" />
    <glyph glyph-name="E" unicode="E" horiz-adv-x="455" 
d="M431 51q0 -30 -6.5 -40.5t-24.5 -10.5h-311q-21 0 -28.5 6t-7.5 25v559q0 19 7.5 25t28.5 6h301q18 0 24.5 -10.5t6.5 -41.5t-6.5 -41t-24.5 -10h-221v-142h160q20 0 25.5 -9.5t5.5 -40.5q0 -32 -6 -41.5t-25 -9.5h-160v-172h231q18 0 24.5 -10.5t6.5 -41.5z" />
    <glyph glyph-name="F" unicode="F" horiz-adv-x="429" 
d="M111 0q-35 0 -46.5 6.5t-11.5 27.5v556q0 19 7.5 25t28.5 6h296q18 0 24.5 -10.5t6.5 -41.5t-6.5 -41t-24.5 -10h-216v-142h155q20 0 25.5 -9.5t5.5 -40.5q0 -32 -6 -41.5t-25 -9.5h-155v-241q0 -21 -11.5 -27.5t-46.5 -6.5z" />
    <glyph glyph-name="G" unicode="G" horiz-adv-x="497" 
d="M254 -7q-35 0 -59.5 3t-51 11.5t-44 26.5t-32 46.5t-21.5 73t-7 104.5v88q0 64 7 111t22 77t32.5 49t45 28t52 12t60.5 3q81 0 152 -19q13 -3 18.5 -13t5.5 -41q0 -45 -18 -45q-2 0 -49 7.5t-85 7.5q-53 0 -77 -10.5t-37 -50t-13 -124.5v-55q0 -65 6 -103.5t21.5 -57
t32.5 -23t49 -4.5q48 0 68.5 18.5t20.5 72.5v64h-70q-16 0 -21 10t-5 41q0 28 5 37t21 9h131q25 0 33 -7t8 -24v-156q0 -92 -46.5 -129.5t-154.5 -37.5z" />
    <glyph glyph-name="H" unicode="H" horiz-adv-x="531" 
d="M169 366h193v221q0 21 11.5 27.5t46.5 6.5t46.5 -6.5t11.5 -27.5v-553q0 -21 -11.5 -27.5t-46.5 -6.5t-46.5 6.5t-11.5 27.5v234h-193v-234q0 -21 -11.5 -27.5t-46.5 -6.5t-46.5 6.5t-11.5 27.5v553q0 21 11.5 27.5t46.5 6.5t46.5 -6.5t11.5 -27.5v-221z" />
    <glyph glyph-name="I" unicode="I" horiz-adv-x="223" 
d="M111 0q-35 0 -46.5 6.5t-11.5 27.5v553q0 21 11.5 27.5t46.5 6.5t46.5 -6.5t11.5 -27.5v-553q0 -21 -11.5 -27.5t-46.5 -6.5z" />
    <glyph glyph-name="J" unicode="J" horiz-adv-x="348" 
d="M141 -7q-56 0 -106 14q-16 5 -22 15t-6 39q0 27 4 34.5t16 7.5q6 0 34 -4t50 -4q40 0 54 15t14 60v417q0 21 11.5 27.5t46.5 6.5t46.5 -6.5t11.5 -27.5v-417q0 -96 -36.5 -136.5t-117.5 -40.5z" />
    <glyph glyph-name="K" unicode="K" horiz-adv-x="484" 
d="M111 0q-35 0 -46.5 6.5t-11.5 27.5v553q0 21 11.5 27.5t46.5 6.5t46.5 -6.5t11.5 -27.5v-236h16l143 242q11 18 23.5 23t51.5 5q31 0 42.5 -5.5t11.5 -18.5q0 -12 -13 -33l-158 -250l163 -242q20 -31 20 -46q0 -13 -12 -19.5t-49 -6.5q-31 0 -44.5 5.5t-23.5 21.5
l-155 248h-16v-241q0 -21 -11.5 -27.5t-46.5 -6.5z" />
    <glyph glyph-name="L" unicode="L" horiz-adv-x="425" 
d="M169 103h211q18 0 24.5 -10.5t6.5 -41.5q0 -30 -6.5 -40.5t-24.5 -10.5h-291q-21 0 -28.5 6t-7.5 25v556q0 21 11.5 27.5t46.5 6.5t46.5 -6.5t11.5 -27.5v-484z" />
    <glyph glyph-name="M" unicode="M" horiz-adv-x="649" 
d="M110 0q-35 0 -46 6.5t-11 27.5v546q0 24 14 32.5t57 8.5q46 0 63 -7t28 -34l107 -277h5l107 277q11 27 28 34t63 7q43 0 56.5 -8.5t13.5 -32.5v-546q0 -21 -11 -27.5t-46 -6.5t-46 6.5t-11 27.5l1 411h-6l-91 -247q-9 -26 -20 -33t-41 -7q-29 0 -40 7.5t-20 32.5l-91 247
h-6v-411q0 -21 -11 -27.5t-46 -6.5z" />
    <glyph glyph-name="N" unicode="N" horiz-adv-x="552" 
d="M111 0q-35 0 -46.5 6.5t-11.5 27.5v553q0 21 13.5 27.5t56.5 6.5q33 0 48 -6t25 -27l178 -382h9v381q0 21 11.5 27.5t46.5 6.5t46.5 -6.5t11.5 -27.5v-553q0 -22 -12.5 -28t-54.5 -6q-31 0 -44 5.5t-25 26.5l-185 383h-9v-381q0 -21 -11.5 -27.5t-46.5 -6.5z" />
    <glyph glyph-name="O" unicode="O" horiz-adv-x="529" 
d="M264 93q36 0 55 5.5t32 26t17 56.5t4 102v53q0 67 -3.5 102t-16 56.5t-31.5 26.5t-57 5q-47 0 -68 -12.5t-30 -51.5t-9 -126v-53q0 -89 8.5 -127t29 -50.5t69.5 -12.5zM264 -7q-66 0 -103.5 8.5t-67 37.5t-41 84.5t-11.5 148.5v69q0 77 9 129t24 83t45 47t61.5 21t83.5 5
q68 0 106 -8.5t67.5 -38.5t40 -86t10.5 -152v-69q0 -76 -9.5 -127t-25 -81t-46 -46t-61.5 -20.5t-82 -4.5z" />
    <glyph glyph-name="P" unicode="P" horiz-adv-x="493" 
d="M111 0q-35 0 -46.5 6.5t-11.5 27.5v544q0 20 8 28.5t27 10.5q77 9 171 9q57 0 91.5 -7t61.5 -27t38.5 -58.5t11.5 -100.5q0 -123 -56.5 -170t-181.5 -47h-55v-182q0 -21 -11.5 -27.5t-46.5 -6.5zM169 525v-214h60q67 0 89.5 23.5t22.5 92.5q0 63 -19 82.5t-76 19.5
q-37 0 -77 -4z" />
    <glyph glyph-name="Q" unicode="Q" horiz-adv-x="529" 
d="M264 -7q-66 0 -103.5 8.5t-67 37.5t-41 84.5t-11.5 148.5v69q0 77 9 129t24 83t45 47t61.5 21t83.5 5q68 0 106 -8.5t67.5 -38.5t40 -86t10.5 -152v-69q0 -115 -20.5 -174t-64.5 -82l46 -74q17 -28 17 -36q0 -24 -54 -24q-28 0 -40 6.5t-23 26.5l-45 79h-7q-7 0 -17 -0.5
t-16 -0.5zM264 93q36 0 55 5.5t32 26t17 56.5t4 102v53q0 67 -3.5 102t-16 56.5t-31.5 26.5t-57 5q-47 0 -68 -12.5t-30 -51.5t-9 -126v-53q0 -89 8.5 -127t29 -50.5t69.5 -12.5z" />
    <glyph glyph-name="R" unicode="R" horiz-adv-x="506" 
d="M111 0q-35 0 -46.5 6.5t-11.5 27.5v544q0 20 8 28.5t27 10.5q77 9 171 9q112 0 157.5 -35.5t45.5 -147.5q0 -137 -96 -177l98 -208q11 -24 11 -35q0 -23 -48 -23q-42 0 -55 5.5t-21 25.5l-86 217q-9 -1 -29 -1h-67v-213q0 -21 -11.5 -27.5t-46.5 -6.5zM169 525v-194h70
q61 0 81.5 21t20.5 85q0 55 -19.5 73.5t-75.5 18.5q-39 0 -77 -4z" />
    <glyph glyph-name="S" unicode="S" horiz-adv-x="457" 
d="M208 -7q-84 0 -143 18q-16 5 -22.5 15.5t-6.5 39.5q0 28 4.5 37t15.5 9q3 0 46.5 -8t87.5 -8q61 0 89.5 17.5t28.5 61.5q0 33 -9 48t-39 29l-115 51q-51 23 -74 56t-23 99q0 96 48.5 132t128.5 36q85 0 156 -19q13 -3 18.5 -13.5t5.5 -40.5q0 -46 -20 -46q-1 0 -45 7.5
t-87 7.5q-52 0 -72 -11.5t-20 -53.5q0 -27 10 -39t38 -24l114 -51q54 -24 76 -58.5t22 -103.5q0 -188 -213 -188z" />
    <glyph glyph-name="T" unicode="T" horiz-adv-x="440" 
d="M220 0q-35 0 -46.5 6.5t-11.5 27.5v484h-121q-18 0 -24.5 10t-6.5 41t6.5 41.5t24.5 10.5h358q18 0 24.5 -10.5t6.5 -41.5t-6.5 -41t-24.5 -10h-121v-484q0 -21 -11.5 -27.5t-46.5 -6.5z" />
    <glyph glyph-name="U" unicode="U" horiz-adv-x="527" 
d="M263 -7q-115 0 -162.5 43t-47.5 148v403q0 21 11.5 27.5t46.5 6.5t46.5 -6.5t11.5 -27.5v-409q0 -49 19 -67.5t75 -18.5t75 18.5t19 67.5v409q0 21 11.5 27.5t46.5 6.5t46.5 -6.5t11.5 -27.5v-403q0 -105 -47.5 -148t-162.5 -43z" />
    <glyph glyph-name="V" unicode="V" horiz-adv-x="523" 
d="M268 97l116 491q4 21 17 27t52 6q34 0 44.5 -5.5t10.5 -20.5t-7 -39l-135 -509q-8 -31 -26.5 -39t-78.5 -8q-59 0 -77.5 8t-26.5 39l-135 509q-8 27 -8 39q0 15 10.5 20.5t45.5 5.5q38 0 51.5 -6t17.5 -27l116 -491h13z" />
    <glyph glyph-name="W" unicode="W" horiz-adv-x="802" 
d="M214 0q-53 0 -72.5 8.5t-25.5 38.5l-98 512q-4 26 -4 35q0 16 10.5 21.5t45.5 5.5q38 0 51 -6.5t15 -26.5l80 -481h12l95 467q4 23 20.5 30t57.5 7q40 0 56.5 -7t21.5 -30l96 -467h11l80 481q2 20 15 26.5t51 6.5q35 0 45.5 -5.5t10.5 -21.5q0 -5 -1.5 -18t-1.5 -17
l-98 -512q-6 -30 -26 -38.5t-73 -8.5q-50 0 -70.5 10t-27.5 40l-84 401h-10l-83 -401q-7 -30 -27.5 -40t-71.5 -10z" />
    <glyph glyph-name="X" unicode="X" horiz-adv-x="497" 
d="M75 0q-58 0 -58 28q0 13 18 41l152 250l-140 230q-18 29 -18 44q0 28 59 28q34 0 46.5 -6t24.5 -27l88 -160h4l86 160q10 21 23 27t49 6q58 0 58 -28q0 -15 -17 -43l-141 -231l153 -248q17 -26 17 -43q0 -28 -57 -28q-34 0 -46.5 6t-24.5 27l-102 183h-4l-99 -183
q-11 -21 -23.5 -27t-47.5 -6z" />
    <glyph glyph-name="Y" unicode="Y" horiz-adv-x="474" 
d="M237 0q-35 0 -46.5 6.5t-11.5 27.5v194l-150 320q-15 31 -15 46q0 27 51 27q42 0 54.5 -6t21.5 -27l94 -239h5l93 239q8 22 20.5 27.5t53.5 5.5q54 0 54 -26q0 -14 -16 -47l-150 -320v-194q0 -21 -11.5 -27.5t-46.5 -6.5z" />
    <glyph glyph-name="Z" unicode="Z" horiz-adv-x="414" 
d="M260 518h-196q-18 0 -24.5 10t-6.5 41t6.5 41.5t24.5 10.5h300q19 0 25 -10t6 -38q0 -30 -25 -75l-220 -395h218q18 0 24.5 -10.5t6.5 -41.5q0 -30 -6.5 -40.5t-24.5 -10.5h-323q-19 0 -25 9.5t-6 38.5q0 28 28 79z" />
    <glyph glyph-name="bracketleft" unicode="[" horiz-adv-x="263" 
d="M251 -7q0 -28 -6.5 -37t-24.5 -9h-139q-21 0 -30 8t-9 27v652q0 19 9 27t30 8h134q18 0 24.5 -9t6.5 -37q0 -29 -6.5 -38.5t-24.5 -9.5h-62v-535h67q18 0 24.5 -9t6.5 -38z" />
    <glyph glyph-name="backslash" unicode="\" horiz-adv-x="275" 
d="M218 -59q-51 0 -58 31l-142 632q-8 35 -8 48q0 22 49 22q50 0 57 -30l142 -633q9 -39 9 -48q0 -22 -49 -22z" />
    <glyph glyph-name="bracketright" unicode="]" horiz-adv-x="263" 
d="M13 -7q0 29 6 38t25 9h67v535h-63q-18 0 -24.5 9.5t-6.5 38.5q0 28 6.5 37t24.5 9h135q20 0 29 -8t9 -27v-652q0 -19 -9 -27t-29 -8h-139q-18 0 -24.5 8.5t-6.5 37.5z" />
    <glyph glyph-name="asciicircum" unicode="^" 
d="M236 526h-6l-63 -149q-7 -19 -18 -24.5t-46 -5.5q-46 0 -46 22q0 7 9 27l81 185q11 26 26 34t62 8q46 0 60.5 -8t25.5 -34l78 -185q9 -23 9 -27q0 -22 -46 -22q-36 0 -46 5t-18 25z" />
    <glyph glyph-name="underscore" unicode="_" horiz-adv-x="495" 
d="M23 -69q0 32 6 41.5t25 9.5h387q19 0 25 -9.5t6 -41.5t-6 -41.5t-25 -9.5h-387q-19 0 -25 9.5t-6 41.5z" />
    <glyph glyph-name="grave" unicode="`" horiz-adv-x="218" 
d="M149 539q-24 0 -37 4t-18 9t-12 17l-43 74q-15 25 -15 42q0 12 12 17t48 5q37 0 48.5 -7t21.5 -31l33 -74q10 -22 10 -35q0 -21 -48 -21z" />
    <glyph glyph-name="a" unicode="a" horiz-adv-x="486" 
d="M162 -10q-67 0 -98 34t-31 112q0 80 42 114t148 34h87v50q0 46 -16.5 58t-65.5 12q-43 0 -92 -8t-53 -8q-21 0 -21 46q0 25 5.5 34.5t19.5 14.5q64 20 156 20q99 0 140.5 -27.5t41.5 -112.5v-158q0 -51 5 -90t10 -60.5t5 -27.5q0 -15 -10.5 -21t-42.5 -6q-30 0 -40 5.5
t-15 24.5l-15 56q-39 -96 -160 -96zM203 83q45 0 76 26.5t31 78.5v27l-87 -3q-47 -1 -63 -14.5t-16 -49.5q0 -40 13 -52.5t46 -12.5z" />
    <glyph glyph-name="b" unicode="b" horiz-adv-x="511" 
d="M245 -10q-113 0 -153.5 29.5t-40.5 93.5v509q0 21 11.5 27t46.5 6t46.5 -6t11.5 -27v-193q39 74 143 74q64 0 96 -19t46.5 -72t14.5 -159q0 -109 -22 -165.5t-67.5 -77t-132.5 -20.5zM252 87q60 0 78.5 30t18.5 127q0 104 -14.5 132.5t-65.5 28.5q-61 0 -82.5 -34
t-21.5 -128v-112q0 -25 16.5 -34.5t70.5 -9.5z" />
    <glyph glyph-name="c" unicode="c" horiz-adv-x="430" 
d="M248 -10q-55 0 -89 8.5t-62.5 34t-41 76.5t-12.5 133q0 86 13 139.5t41.5 79.5t61 34t85.5 8q64 0 128 -18q15 -5 20.5 -15t5.5 -35q0 -47 -20 -47q-2 0 -46.5 8t-72.5 8q-41 0 -60 -9t-29.5 -41t-10.5 -101q0 -108 17.5 -135.5t85.5 -27.5q38 0 77.5 8.5t40.5 8.5
q19 0 19 -47q0 -24 -6 -34t-21 -16q-55 -20 -124 -20z" />
    <glyph glyph-name="d" unicode="d" horiz-adv-x="521" 
d="M209 -10q-99 0 -132.5 50t-33.5 199q0 110 20.5 168t57.5 77t105 19q93 0 122 -56v175q0 21 11.5 27t46.5 6t46.5 -6t11.5 -27v-417q0 -51 5 -90t10.5 -60.5t5.5 -27.5q0 -15 -10.5 -21t-43.5 -6q-30 0 -39.5 5t-14.5 25l-13 47q-35 -87 -155 -87zM247 87q56 0 79.5 26.5
t23.5 105.5v54q0 79 -19 105.5t-77 26.5q-40 0 -58 -11t-26.5 -45.5t-8.5 -108.5q0 -98 16 -125.5t70 -27.5z" />
    <glyph glyph-name="e" unicode="e" horiz-adv-x="475" 
d="M258 -10q-59 0 -95 8.5t-65.5 34t-42 76.5t-12.5 133q0 86 12.5 139t42 79.5t63 34.5t89.5 8q60 0 97.5 -13t56.5 -44.5t25.5 -71t6.5 -104.5q0 -29 -9 -41.5t-35 -12.5h-233q1 -82 21 -104t86 -22q34 0 67 4t53 8.5t24 4.5q19 0 19 -47q0 -24 -6 -34t-21 -16
q-55 -20 -144 -20zM248 406q-50 0 -68 -21.5t-21 -96.5h168q0 70 -13 94t-66 24z" />
    <glyph glyph-name="f" unicode="f" horiz-adv-x="320" 
d="M23 444q0 28 5 37t21 9h39v60q0 68 29 94.5t91 26.5q42 0 80 -9q17 -4 22 -11.5t5 -32.5q0 -46 -20 -46q-3 0 -23.5 2t-36.5 2q-22 0 -29.5 -9.5t-7.5 -42.5v-34h79q16 0 21 -9t5 -37q0 -27 -5 -36t-21 -9h-73v-365q0 -22 -11.5 -28t-46.5 -6t-46.5 6t-11.5 28v365h-39
q-16 0 -21 9t-5 36z" />
    <glyph glyph-name="g" unicode="g" horiz-adv-x="517" 
d="M43 250q0 79 10.5 129t35 77t57.5 37t85 10q53 0 85 -16.5t49 -55.5l8 32q5 20 14.5 25t39.5 5q32 0 43 -6.5t11 -20.5q0 -6 -5.5 -27.5t-10.5 -61t-5 -89.5v-243q0 -75 -16.5 -124t-50 -74t-72 -34t-94.5 -9q-80 0 -139 14q-14 3 -20.5 14t-6.5 37q0 47 21 47
q4 0 23.5 -3t50.5 -5.5t64 -2.5q77 0 100.5 28.5t23.5 110.5v6q-37 -60 -142 -60q-95 0 -127 52t-32 208zM161 240q0 -98 16 -125.5t70 -27.5q56 0 79.5 26.5t23.5 105.5v54q0 79 -19 105.5t-77 26.5q-40 0 -58 -11t-26.5 -45.5t-8.5 -108.5z" />
    <glyph glyph-name="h" unicode="h" horiz-adv-x="504" 
d="M109 0q-35 0 -46.5 6t-11.5 28v588q0 21 11.5 27t46.5 6t46.5 -6t11.5 -27v-185q39 66 146 66q78 0 107.5 -32t29.5 -106v-331q0 -22 -11.5 -28t-46.5 -6t-46.5 6t-11.5 28v303q0 38 -13 52t-50 14q-58 0 -81 -37t-23 -126v-206q0 -22 -11.5 -28t-46.5 -6z" />
    <glyph glyph-name="i" unicode="i" horiz-adv-x="222" 
d="M109 0q-35 0 -46.5 6t-11.5 28v425q0 22 11.5 28t46.5 6t46.5 -6t11.5 -28v-425q0 -22 -11.5 -28t-46.5 -6zM109 553q-42 0 -52.5 8t-10.5 35v16q0 28 10.5 35.5t52.5 7.5q41 0 52 -7.5t11 -35.5v-16q0 -27 -11 -35t-52 -8z" />
    <glyph glyph-name="j" unicode="j" horiz-adv-x="222" 
d="M109 493q35 0 46.5 -6t11.5 -28v-528q0 -68 -28.5 -97.5t-86.5 -29.5q-41 0 -81 11q-16 5 -22.5 14.5t-6.5 34.5q0 28 5 36.5t16 8.5q4 0 22 -2.5t29 -2.5q23 0 30 9t7 42v504q0 22 11.5 28t46.5 6zM109 553q-42 0 -52.5 8t-10.5 35v16q0 28 10.5 35.5t52.5 7.5
q41 0 52 -7.5t11 -35.5v-16q0 -27 -11 -35t-52 -8z" />
    <glyph glyph-name="k" unicode="k" horiz-adv-x="457" 
d="M109 0q-35 0 -46.5 6t-11.5 28v588q0 21 11.5 27t46.5 6t46.5 -6t11.5 -27v-328h11l121 170q13 18 26 23.5t49 5.5q56 0 56 -20q0 -17 -13 -33l-137 -182l150 -206q12 -17 12 -29q0 -23 -60 -23q-32 0 -45 5t-25 23l-135 193h-10v-187q0 -22 -11.5 -28t-46.5 -6z" />
    <glyph glyph-name="l" unicode="l" horiz-adv-x="220" 
d="M109 0q-35 0 -46.5 6t-11.5 28v588q0 21 11.5 27t46.5 6t46.5 -6t11.5 -27v-588q0 -22 -11.5 -28t-46.5 -6z" />
    <glyph glyph-name="m" unicode="m" horiz-adv-x="778" 
d="M119 0q-35 0 -46.5 6t-11.5 28v254q0 50 -5 89.5t-10 61t-5 27.5q0 14 10.5 20.5t42.5 6.5q30 0 40 -5.5t15 -24.5l12 -49q35 89 153 89q58 0 88.5 -18t41.5 -56q36 74 144 74q78 0 107 -32t29 -106v-331q0 -22 -11.5 -28t-46.5 -6t-46.5 6t-11.5 28v303q0 38 -13 52
t-50 14q-55 0 -74.5 -36t-19.5 -127v-206q0 -22 -11.5 -28t-46.5 -6t-46.5 6t-11.5 28v303q0 38 -13 52t-50 14q-56 0 -75.5 -36t-19.5 -127v-206q0 -22 -11.5 -28t-46.5 -6z" />
    <glyph glyph-name="n" unicode="n" horiz-adv-x="514" 
d="M119 0q-35 0 -46.5 6t-11.5 28v254q0 50 -5 89.5t-10 61t-5 27.5q0 14 10.5 20.5t42.5 6.5q30 0 40 -5.5t15 -24.5l14 -54q40 94 161 94q78 0 107.5 -32t29.5 -106v-331q0 -22 -11.5 -28t-46.5 -6t-46.5 6t-11.5 28v303q0 38 -13 52t-50 14q-58 0 -81.5 -37t-23.5 -126
v-206q0 -22 -11.5 -28t-46.5 -6z" />
    <glyph glyph-name="o" unicode="o" horiz-adv-x="503" 
d="M243 -10q-79 0 -120 19.5t-60.5 73.5t-19.5 160t22.5 162.5t67 77t126.5 20.5q80 0 120.5 -19t60 -72.5t19.5 -158.5q0 -156 -47 -209.5t-169 -53.5zM247 87q59 0 76.5 29.5t17.5 127.5q0 105 -15.5 133t-70.5 28q-60 0 -77 -28.5t-17 -125.5q0 -105 15.5 -134.5
t70.5 -29.5z" />
    <glyph glyph-name="p" unicode="p" horiz-adv-x="526" 
d="M119 -187q-35 0 -46.5 6t-11.5 27v442q0 50 -5 89.5t-10 61t-5 27.5q0 14 10.5 20.5t42.5 6.5q30 0 40 -5.5t15 -24.5l11 -44q40 84 157 84q98 0 131.5 -50.5t33.5 -198.5q0 -109 -20.5 -167.5t-57.5 -77.5t-104 -19q-94 0 -123 53v-197q0 -21 -11.5 -27t-46.5 -6z
M271 87q40 0 58 11.5t26.5 46t8.5 108.5q0 98 -16 125t-69 27q-56 0 -80 -27.5t-24 -110.5v-48q0 -78 19.5 -105t76.5 -27z" />
    <glyph glyph-name="q" unicode="q" horiz-adv-x="517" 
d="M402 -187q-35 0 -46.5 6t-11.5 27v204q-37 -60 -142 -60q-95 0 -127 52t-32 208q0 79 10.5 129t35 77t57.5 37t85 10q53 0 85 -16.5t49 -55.5l8 32q5 20 14.5 25t39.5 5q32 0 43 -6.5t11 -20.5q0 -6 -5.5 -27.5t-10.5 -61t-5 -89.5v-442q0 -21 -11.5 -27t-46.5 -6z
M240 87q58 0 81.5 24.5t23.5 105.5v56q0 78 -19 105t-75 27q-59 0 -76.5 -27.5t-17.5 -129.5q0 -103 15.5 -132t67.5 -29z" />
    <glyph glyph-name="r" unicode="r" horiz-adv-x="358" 
d="M119 0q-35 0 -46.5 6t-11.5 28v254q0 50 -5 89.5t-10 61t-5 27.5q0 14 10.5 20.5t42.5 6.5q30 0 40 -5.5t15 -24.5l12 -46q38 83 122 83q31 0 45 -6q12 -4 17 -15t5 -39q0 -47 -22 -47q-2 0 -20 2t-33 2q-98 0 -98 -174v-189q0 -22 -11.5 -28t-46.5 -6z" />
    <glyph glyph-name="s" unicode="s" horiz-adv-x="437" 
d="M201 -10q-79 0 -136 18q-15 5 -20.5 15t-5.5 35q0 47 19 47q1 0 47 -7.5t84 -7.5q51 0 71.5 13.5t20.5 43.5t-32 42l-119 51q-75 31 -75 124q0 139 167 139q76 0 141 -17q15 -4 20.5 -14t5.5 -39q0 -45 -21 -45q-2 0 -46 8.5t-78 8.5q-39 0 -55 -10.5t-16 -33.5
q0 -31 31 -43l116 -47q44 -17 61 -45t17 -75q0 -161 -197 -161z" />
    <glyph glyph-name="t" unicode="t" horiz-adv-x="330" 
d="M199 -10q-59 0 -85 28.5t-26 98.5v282h-44q-15 0 -20 9t-5 36q0 28 5 37t20 9h44v72q0 21 11.5 27t46.5 6t46.5 -6t11.5 -27v-72h78q15 0 20 -9t5 -37q0 -27 -5 -36t-20 -9h-78v-259q0 -31 6.5 -39.5t28.5 -8.5q13 0 29.5 2.5t20.5 2.5q11 0 16 -8.5t5 -34.5
q0 -24 -6 -33.5t-21 -15.5q-33 -15 -84 -15z" />
    <glyph glyph-name="u" unicode="u" horiz-adv-x="506" 
d="M186 -10q-76 0 -105.5 30t-29.5 102v337q0 22 11.5 28t46.5 6t46.5 -6t11.5 -28v-308q0 -36 12.5 -48.5t50.5 -12.5q58 0 80.5 36.5t22.5 125.5v207q0 22 11.5 28t46.5 6t46.5 -6t11.5 -28v-254q0 -51 5.5 -90t10.5 -60.5t5 -27.5q0 -15 -10.5 -21t-43.5 -6
q-30 0 -39.5 5t-14.5 25l-13 50q-41 -90 -163 -90z" />
    <glyph glyph-name="v" unicode="v" horiz-adv-x="472" 
d="M234 0q-53 0 -71 8.5t-25 33.5l-110 375q-9 30 -9 43q0 20 10.5 26.5t47.5 6.5q38 0 50 -6.5t18 -31.5l85 -351h11l87 351q6 25 18 31.5t50 6.5q37 0 47 -6.5t10 -26.5q0 -16 -8 -43l-113 -375q-8 -25 -26.5 -33.5t-71.5 -8.5z" />
    <glyph glyph-name="w" unicode="w" horiz-adv-x="709" 
d="M191 0q-50 0 -68.5 8.5t-23.5 33.5l-75 375q-5 24 -5 43q0 20 10.5 26.5t47.5 6.5q38 0 50 -6.5t14 -28.5l60 -354h11l70 342q4 22 19 29.5t54 7.5q38 0 53 -7.5t19 -29.5l70 -342h11l60 354q4 23 15.5 29t49.5 6q37 0 47 -6.5t10 -26.5q0 -19 -5 -43l-75 -375
q-5 -25 -23 -33.5t-68 -8.5q-54 0 -75.5 8.5t-26.5 33.5l-58 272h-8l-59 -272q-5 -25 -26 -33.5t-75 -8.5z" />
    <glyph glyph-name="x" unicode="x" horiz-adv-x="453" 
d="M75 0q-56 0 -56 24q0 9 12 28l126 202l-112 177q-15 25 -15 35q0 15 13.5 21t47.5 6q37 0 48.5 -5t21.5 -23l65 -117h4l63 117q10 19 21 23.5t48 4.5q34 0 47.5 -6t13.5 -21q0 -11 -14 -33l-115 -173l127 -206q13 -20 13 -30q0 -24 -56 -24q-37 0 -51 7t-27 30l-72 134
h-4l-72 -134q-12 -23 -26 -30t-51 -7z" />
    <glyph glyph-name="y" unicode="y" horiz-adv-x="471" 
d="M19 463q0 16 11.5 23t48.5 7q35 0 46.5 -5.5t16.5 -24.5l86 -366h11l90 366q5 19 16.5 24.5t45.5 5.5q37 0 49.5 -6.5t12.5 -22.5q0 -19 -16 -73l-125 -426q-14 -49 -26 -76.5t-31 -48.5t-44.5 -28.5t-65.5 -7.5q-57 0 -97 14q-15 5 -21 14.5t-6 33.5q0 47 21 47
q1 0 30.5 -4.5t59.5 -4.5q38 0 51 10.5t22 43.5l10 42q-43 0 -59 11t-25 42l-94 325q-18 61 -18 85z" />
    <glyph glyph-name="z" unicode="z" horiz-adv-x="400" 
d="M376 49q0 -49 -25 -49h-304q-15 0 -20.5 10.5t-5.5 34.5q0 28 6 45.5t24 41.5l196 262h-180q-26 0 -26 49q0 50 26 50h284q25 0 25 -45q0 -47 -23 -78l-203 -271h201q25 0 25 -50z" />
    <glyph glyph-name="braceleft" unicode="{" horiz-adv-x="320" 
d="M98 213q0 46 -38 46q-20 0 -25.5 9t-5.5 40t5.5 39.5t25.5 8.5q38 0 38 46q0 26 -1 76t-1 80q0 59 22 88t77 29q51 0 90 -9q13 -2 17.5 -12.5t4.5 -35.5q0 -43 -22 -43q-7 0 -29 1t-32 1q-18 0 -18 -35q0 -22 1 -70t1 -70q0 -77 -52 -92v-4q52 -15 52 -92q0 -22 -1 -70
t-1 -70q0 -35 18 -35q10 0 32 1t29 1q22 0 22 -42q0 -25 -4.5 -35.5t-17.5 -13.5q-39 -9 -90 -9q-55 0 -77 29t-22 88q0 30 1 79.5t1 75.5z" />
    <glyph glyph-name="bar" unicode="|" horiz-adv-x="180" 
d="M90 -187q-31 0 -39 6.5t-8 31.5v784q0 26 8 32.5t39 6.5t38.5 -6.5t7.5 -32.5v-784q0 -25 -7.5 -31.5t-38.5 -6.5z" />
    <glyph glyph-name="braceright" unicode="}" horiz-adv-x="320" 
d="M125 -59q-52 0 -91 9q-13 3 -17.5 13.5t-4.5 35.5q0 42 22 42q7 0 30 -1t32 -1q18 0 18 35q0 22 -1 70t-1 70q0 77 51 92v4q-51 15 -51 92q0 22 1 70t1 70q0 35 -18 35q-9 0 -32 -1t-30 -1q-22 0 -22 43q0 25 4.5 35.5t17.5 12.5q39 9 91 9q55 0 76.5 -29t21.5 -88
q0 -30 -0.5 -80t-0.5 -76q0 -46 38 -46q20 0 25.5 -8.5t5.5 -39.5t-5.5 -40t-25.5 -9q-38 0 -38 -46q0 -26 0.5 -75.5t0.5 -79.5q0 -59 -21.5 -88t-76.5 -29z" />
    <glyph glyph-name="asciitilde" unicode="~" 
d="M75 265q0 37 26 55q30 19 67 19q24 0 69 -11t65 -11q22 0 44 9.5t25 9.5q19 0 19 -41q0 -37 -27 -55q-27 -19 -66 -19q-24 0 -69.5 11t-65.5 11q-22 0 -44 -9.5t-25 -9.5q-18 0 -18 41z" />
    <glyph glyph-name="nbspace" unicode="&#xa0;" horiz-adv-x="209" 
 />
    <glyph glyph-name="exclamdown" unicode="&#xa1;" horiz-adv-x="213" 
d="M107 461q32 0 41.5 -6t9.5 -27q0 -54 3.5 -190.5t3.5 -203.5q0 -21 -11.5 -27.5t-46.5 -6.5t-47 6.5t-12 27.5q0 67 3.5 203.5t3.5 190.5q0 21 9.5 27t42.5 6zM106 621q38 0 49 -8t11 -35v-25q0 -27 -11 -35t-49 -8t-49 8t-11 35v25q0 27 11 35t49 8z" />
    <glyph glyph-name="cent" unicode="&#xa2;" 
d="M252 621q30 0 40 -6t10 -28v-64q41 -4 81 -15q15 -5 20.5 -13.5t5.5 -33.5q0 -46 -19 -46q-1 0 -48 7.5t-80 7.5q-53 0 -72 -20t-19 -89q0 -78 16.5 -99.5t79.5 -21.5q31 0 59 4t44.5 8.5t20.5 4.5q19 0 19 -47q0 -24 -5.5 -33t-20.5 -14q-32 -11 -82 -18v-71
q0 -22 -10 -28t-40 -6t-40 6t-10 28v71q-76 6 -111.5 49.5t-35.5 155.5q0 80 18.5 127t48.5 65t80 22v63q0 22 10 28t40 6z" />
    <glyph glyph-name="sterling" unicode="&#xa3;" 
d="M305 307q0 -24 -5.5 -30.5t-23.5 -6.5h-70v-37q0 -72 -28 -130h221q18 0 24.5 -10.5t6.5 -41.5q0 -30 -6.5 -40.5t-24.5 -10.5h-313q-21 0 -28.5 6t-7.5 25q0 22 21.5 79.5t21.5 111.5v48h-43q-18 0 -23.5 6.5t-5.5 30.5t5.5 30.5t23.5 6.5h43v111q0 100 40.5 135.5
t117.5 35.5q65 0 137 -15q13 -3 18.5 -13t5.5 -40q0 -44 -19 -44q-5 0 -42 4.5t-61 4.5q-49 0 -66.5 -15t-17.5 -65v-99h70q18 0 23.5 -6.5t5.5 -30.5z" />
    <glyph glyph-name="currency" unicode="&#xa4;" 
d="M126 60q-40 0 -40 15q0 10 12 40l16 38q-31 31 -31 116q0 84 31 115l-16 39q-12 29 -12 40q0 15 40 15q27 0 36 -4.5t15 -18.5l17 -42q24 2 40 2q15 0 39 -2l18 42q6 14 15 18.5t36 4.5q39 0 39 -15q0 -14 -11 -40l-17 -39q32 -31 32 -115q0 -85 -32 -116l17 -38
q11 -23 11 -40q0 -15 -39 -15q-27 0 -36 4.5t-15 18.5l-17 41q-12 -1 -40 -1t-40 1l-17 -41q-6 -14 -15 -18.5t-36 -4.5zM234 200q37 0 46.5 12t9.5 58q0 44 -9.5 56t-46.5 12t-47 -12t-10 -56q0 -46 10 -58t47 -12z" />
    <glyph glyph-name="yen" unicode="&#xa5;" 
d="M233 0q-35 0 -46.5 6.5t-11.5 27.5v66h-80q-17 0 -23 7t-6 30q0 24 6 31t23 7h80v49h-81q-18 0 -23.5 7t-5.5 31t5.5 31t23.5 7h59l-121 250q-14 32 -14 44q0 16 10.5 21.5t45.5 5.5q36 0 47.5 -6t20.5 -27l88 -227h5l88 227q9 21 20.5 27t47.5 6q35 0 45.5 -5.5
t10.5 -21.5q0 -12 -14 -44l-121 -250h60q17 0 23 -7t6 -31q0 -23 -6 -30.5t-23 -7.5h-81v-49h80q17 0 22.5 -7t5.5 -31q0 -23 -5.5 -30t-22.5 -7h-80v-66q0 -21 -11.5 -27.5t-46.5 -6.5z" />
    <glyph glyph-name="brokenbar" unicode="&#xa6;" horiz-adv-x="180" 
d="M90 280q-31 0 -39 6.5t-8 32.5v316q0 26 8 32.5t39 6.5t38.5 -6.5t7.5 -32.5v-316q0 -26 -7.5 -32.5t-38.5 -6.5zM90 -187q-31 0 -39 6.5t-8 31.5v317q0 25 8 31.5t39 6.5t38.5 -6.5t7.5 -31.5v-317q0 -25 -7.5 -31.5t-38.5 -6.5z" />
    <glyph glyph-name="section" unicode="&#xa7;" horiz-adv-x="452" 
d="M41 235q0 77 47 115q-43 35 -43 118q0 49 14.5 82t41 48.5t55 21.5t66.5 6q86 0 157 -19q12 -3 17.5 -14t5.5 -40q0 -46 -20 -46l-45 7q-45 8 -87 8q-51 0 -71.5 -11t-20.5 -44q0 -22 9.5 -34.5t32.5 -21.5l113 -45q55 -22 79 -56t24 -89q0 -74 -43 -109q45 -35 45 -125
q0 -97 -55.5 -135.5t-156.5 -38.5q-85 0 -144 18q-16 5 -22.5 15.5t-6.5 39.5q0 28 5 37t16 9q3 0 46 -8t87 -8q63 0 91 14.5t28 49.5q0 30 -9.5 44.5t-38.5 26.5l-118 48q-52 22 -75.5 52.5t-23.5 83.5zM154 258q0 -52 42 -69l94 -38q14 16 14 49q0 30 -9 47.5t-37 27.5
l-90 36q-14 -17 -14 -53z" />
    <glyph glyph-name="dieresis" unicode="&#xa8;" horiz-adv-x="338" 
d="M85 553q-38 0 -49 8t-11 35v16q0 27 10.5 35t49.5 8t49.5 -8t10.5 -35v-16q0 -27 -11 -35t-49 -8zM252 553q-38 0 -48.5 8t-10.5 35v16q0 27 10.5 35t48.5 8q39 0 49.5 -8t10.5 -35v-16q0 -27 -11 -35t-49 -8z" />
    <glyph glyph-name="copyright" unicode="&#xa9;" horiz-adv-x="889" 
d="M444 -50q105 0 169 19t98.5 66.5t46 111.5t11.5 171q0 105 -11.5 167.5t-46 109.5t-98.5 66t-169 19q-104 0 -168 -19t-99 -66t-46.5 -110t-11.5 -167q0 -107 11.5 -171t46.5 -111.5t98.5 -66.5t168.5 -19zM444 -133q-90 0 -157.5 13t-113.5 40.5t-75.5 63t-45.5 89.5
t-22 109.5t-6 132.5q0 93 8.5 156.5t34.5 123t71.5 93.5t121.5 54.5t184 20.5t184 -20.5t121.5 -54.5t71.5 -93.5t34.5 -123t8.5 -156.5q0 -77 -6 -132.5t-22 -109.5t-45.5 -89.5t-75.5 -63t-113.5 -40.5t-157.5 -13zM457 60q-55 0 -89 8.5t-62 34t-40.5 76.5t-12.5 133
q0 69 9.5 117t24.5 76t42 43.5t54.5 20t69.5 4.5q66 0 128 -18q15 -5 20.5 -15t5.5 -35q0 -47 -20 -47q-2 0 -46 8t-72 8q-41 0 -60.5 -9t-30 -41.5t-10.5 -100.5q0 -108 17.5 -135.5t85.5 -27.5q38 0 77.5 8.5t40.5 8.5q19 0 19 -47q0 -24 -6 -34t-21 -16q-55 -20 -124 -20
z" />
    <glyph glyph-name="ordfeminine" unicode="&#xaa;" horiz-adv-x="367" 
d="M127 248q-53 0 -76.5 25.5t-23.5 83.5q0 60 30 86t108 26h66v18q0 36 -10.5 47t-43.5 11t-69.5 -6t-40.5 -6q-17 0 -17 38q0 19 4 27t15 13q41 15 117 15q74 0 104.5 -22t30.5 -88v-95q0 -40 3.5 -71t7 -48.5t3.5 -22.5q0 -12 -8 -17t-33 -5q-24 0 -32 4.5t-12 19.5
l-9 38q-28 -71 -114 -71zM157 322q74 0 74 82v7l-73 -3q-25 -1 -33.5 -9.5t-8.5 -34.5q0 -25 9 -33.5t32 -8.5z" />
    <glyph glyph-name="guillemotleft" unicode="&#xab;" horiz-adv-x="608" 
d="M434 251v-8l117 -102q18 -16 23 -27.5t5 -44.5q0 -39 -20 -39q-8 0 -24 8l-169 117q-25 15 -33.5 31.5t-8.5 60.5t8.5 60.5t33.5 31.5l169 116q14 9 24 9q20 0 20 -39q0 -33 -5 -44.5t-23 -27.5zM142 251v-8l122 -92q18 -13 22.5 -25t4.5 -47q0 -39 -20 -39q-7 0 -23 8
l-177 112q-25 16 -33.5 31t-8.5 56t8.5 56.5t33.5 30.5l177 111q14 9 23 9q20 0 20 -39q0 -35 -4.5 -47t-22.5 -25z" />
    <glyph glyph-name="logicalnot" unicode="&#xac;" 
d="M352 141q-34 0 -43 6t-9 28v68h-208q-18 0 -24.5 9.5t-6.5 39.5t6.5 39.5t24.5 9.5h277q21 0 28.5 -6t7.5 -25v-135q0 -22 -9.5 -28t-43.5 -6z" />
    <glyph glyph-name="registered" unicode="&#xae;" horiz-adv-x="889" 
d="M444 -133q-90 0 -157.5 13t-113.5 40.5t-75.5 63t-45.5 89.5t-22 109.5t-6 132.5q0 93 8.5 156.5t34.5 123t71.5 93.5t121.5 54.5t184 20.5t184 -20.5t121.5 -54.5t71.5 -93.5t34.5 -123t8.5 -156.5q0 -77 -6 -132.5t-22 -109.5t-45.5 -89.5t-75.5 -63t-113.5 -40.5
t-157.5 -13zM444 -50q105 0 169 19t98.5 66.5t46 111.5t11.5 171q0 105 -11.5 167.5t-46 109.5t-98.5 66t-169 19q-104 0 -168 -19t-99 -66t-46.5 -110t-11.5 -167q0 -107 11.5 -171t46.5 -111.5t98.5 -66.5t168.5 -19zM319 70q-35 0 -47 6.5t-12 27.5v423q0 20 8 28.5
t27 10.5q77 9 160 9q108 0 148 -32t40 -131q0 -58 -18 -91t-59 -48l79 -150q12 -22 12 -32q0 -12 -11 -16.5t-42 -4.5q-40 0 -51.5 5t-20.5 26l-64 156h-91v-153q0 -21 -11.5 -27.5t-46.5 -6.5zM377 475v-137h63q56 0 71.5 14t15.5 64q0 40 -14.5 51.5t-65.5 11.5
q-30 0 -70 -4z" />
    <glyph glyph-name="macron" unicode="&#xaf;" horiz-adv-x="275" 
d="M24 608q0 30 6 39t25 9h165q19 0 25 -9t6 -39q0 -31 -5.5 -39.5t-25.5 -8.5h-165q-20 0 -25.5 8.5t-5.5 39.5z" />
    <glyph glyph-name="degree" unicode="&#xb0;" horiz-adv-x="409" 
d="M203 327q-88 0 -117 29.5t-29 119.5q0 89 30 119.5t119 30.5q86 0 116 -29.5t30 -117.5q0 -91 -28.5 -121.5t-120.5 -30.5zM151 475q0 -43 9.5 -53.5t42.5 -10.5q36 0 45 11.5t9 54.5t-9.5 54t-41.5 11q-36 0 -45.5 -12t-9.5 -55z" />
    <glyph glyph-name="plusminus" unicode="&#xb1;" 
d="M78 315q0 27 5.5 34.5t25.5 7.5h76v84q0 20 8 25.5t39 5.5t39.5 -5.5t8.5 -25.5v-84h76q20 0 25.5 -7.5t5.5 -34.5q0 -28 -5.5 -35.5t-25.5 -7.5h-76v-83q0 -20 -8.5 -25.5t-39.5 -5.5t-39 5.5t-8 25.5v83h-76q-20 0 -25.5 7.5t-5.5 35.5zM92 71q0 29 5.5 37t25.5 8h219
q20 0 25.5 -8t5.5 -37t-5.5 -37t-25.5 -8h-219q-20 0 -25.5 8t-5.5 37z" />
    <glyph glyph-name="twosuperior" unicode="&#xb2;" horiz-adv-x="349" 
d="M153 376h121q16 0 22 -7t6 -33t-6 -33.5t-22 -7.5h-205q-18 0 -24.5 5.5t-6.5 24.5v17q0 26 34 63l90 94q30 30 30 59q0 22 -9.5 29.5t-35.5 7.5q-21 0 -46 -5t-31 -5q-9 0 -12.5 6t-3.5 28q0 23 5 31t19 12q41 11 93 11q56 0 86.5 -18.5t30.5 -73.5q0 -37 -11 -60
t-43 -58z" />
    <glyph glyph-name="threesuperior" unicode="&#xb3;" horiz-adv-x="355" 
d="M172 289q-61 0 -100 12q-14 4 -19 11.5t-5 30.5q0 21 3.5 27.5t12.5 6.5q6 0 35.5 -4.5t49.5 -4.5q29 0 43 8.5t14 33.5q0 23 -16 33.5t-64 10.5q-12 0 -16 7t-4 24q0 18 4 25t16 7q45 0 60 9t15 33q0 21 -11 28.5t-38 7.5q-19 0 -47 -5t-33 -5q-9 0 -13 6t-4 28
q0 23 5 31t19 12q41 11 97 11t86.5 -18.5t30.5 -74.5q0 -84 -71 -96q81 -4 81 -91q0 -33 -11 -54.5t-31.5 -32t-41 -14t-47.5 -3.5z" />
    <glyph glyph-name="acute" unicode="&#xb4;" horiz-adv-x="218" 
d="M69 539q-48 0 -48 21q0 11 11 35l33 74q12 26 22 32t47 6q36 0 48 -6.5t12 -20.5q0 -12 -14 -37l-44 -74q-10 -18 -21.5 -24t-45.5 -6z" />
    <glyph glyph-name="mu" unicode="&#xb5;" horiz-adv-x="495" 
d="M100 -187q-35 0 -46.5 6t-11.5 27v613q0 22 11.5 28t46.5 6t46.5 -6t11.5 -28v-308q0 -36 13 -48.5t51 -12.5q58 0 80.5 36.5t22.5 125.5v207q0 22 11.5 28t46.5 6t46.5 -6t11.5 -28v-254q0 -51 5 -90t10 -60.5t5 -27.5q0 -15 -10 -21t-43 -6q-30 0 -39.5 5t-15.5 25
l-13 48q-39 -88 -156 -88q-5 0 -13.5 0.5t-12.5 0.5v-145q0 -21 -11.5 -27t-46.5 -6z" />
    <glyph glyph-name="paragraph" unicode="&#xb6;" horiz-adv-x="600" 
d="M259 -196q-65 0 -131 14q-15 4 -21 14.5t-6 36.5q0 47 21 47q1 0 45.5 -5.5t83.5 -5.5q75 0 95.5 27.5t20.5 111.5v474h-51v-308q0 -19 -6.5 -27.5t-24.5 -12.5q-38 -9 -85 -9q-82 0 -112 47.5t-30 176.5q0 134 33 185t123 51h316q18 0 24.5 -10.5t6.5 -41.5t-6.5 -41
t-24.5 -10h-47v-473q0 -75 -15 -124t-46.5 -74t-69 -34t-93.5 -9z" />
    <glyph glyph-name="middot" unicode="&#xb7;" horiz-adv-x="198" 
d="M99 216q-38 0 -49 8t-11 35v36q0 27 11 35t49 8t49 -8t11 -35v-36q0 -27 -11 -35t-49 -8z" />
    <glyph glyph-name="cedilla" unicode="&#xb8;" horiz-adv-x="244" 
d="M113 -223q-33 0 -61 6q-16 3 -22 11t-6 31q0 42 23 42q4 0 20.5 -2t30.5 -2q23 0 23 13q0 3 -0.5 5t-2 3.5t-2.5 3t-4 3.5l-4.5 3t-6.5 3.5l-7 3.5q-19 9 -26 21.5t-7 38.5v58h82v-42q0 -14 14 -22q38 -21 50.5 -38t12.5 -53q0 -87 -107 -87z" />
    <glyph glyph-name="onesuperior" unicode="&#xb9;" horiz-adv-x="348" 
d="M62 336q0 26 5 32.5t22 6.5h47v202l-40 -11q-12 -4 -20 -4q-18 0 -18 38q0 22 5 29.5t19 12.5l62 22q23 7 51 7q20 0 26 -5.5t6 -24.5v-266h48q16 0 22 -7t6 -32q0 -26 -6 -33.5t-22 -7.5h-186q-17 0 -22 7t-5 34z" />
    <glyph glyph-name="ordmasculine" unicode="&#xba;" horiz-adv-x="384" 
d="M185 247q-42 0 -67 6.5t-45.5 25.5t-29 56.5t-8.5 97.5q0 64 9 102.5t31 58.5t49 26t74 6q42 0 67 -6t46 -24.5t29.5 -56t8.5 -97.5q0 -64 -9 -102.5t-31 -59t-49.5 -27t-74.5 -6.5zM187 325q41 0 53.5 19t12.5 90q0 75 -11.5 95t-46.5 20q-41 0 -53 -19t-12 -89
q0 -76 11 -96t46 -20z" />
    <glyph glyph-name="guillemotright" unicode="&#xbb;" horiz-adv-x="608" 
d="M284 247q0 -44 -8.5 -60.5t-33.5 -31.5l-169 -117q-16 -8 -24 -8q-20 0 -20 39q0 33 5 44.5t23 27.5l117 102v8l-117 102q-18 16 -23 27.5t-5 44.5q0 39 20 39q10 0 24 -9l169 -116q25 -15 33.5 -31.5t8.5 -60.5zM579 247q0 -41 -8.5 -56t-33.5 -31l-177 -112
q-16 -8 -23 -8q-21 0 -21 39q0 35 5 47t23 25l122 92v8l-122 92q-18 13 -23 25t-5 47q0 39 21 39q9 0 23 -9l177 -111q25 -15 33.5 -30.5t8.5 -56.5z" />
    <glyph glyph-name="onequarter" unicode="&#xbc;" horiz-adv-x="777" 
d="M653 0q-25 0 -35.5 4.5t-10.5 19.5v51h-145q-14 0 -19 8t-5 30q0 36 14 60l108 180q9 16 24 20.5t53 4.5q37 0 49.5 -6t12.5 -27v-198h26q13 0 17.5 -8.5t4.5 -29.5t-4.5 -27.5t-17.5 -6.5h-26v-51q0 -15 -10.5 -19.5t-35.5 -4.5zM281 0q-39 0 -39 16q0 12 8 33l203 554
q5 16 16 22t37 6q23 0 31 -3.5t8 -13.5q0 -11 -8 -32l-203 -554q-5 -16 -15.5 -22t-37.5 -6zM38 558q0 22 5 29.5t19 12.5l62 21q26 8 51 8q21 0 26.5 -5.5t5.5 -24.5v-266h48q16 0 22 -7t6 -33t-6 -33t-22 -7h-186q-16 0 -21.5 7t-5.5 33t5.5 33t21.5 7h47v202l-40 -11
q-10 -4 -20 -4q-18 0 -18 38zM611 303l-89 -156h89v156z" />
    <glyph glyph-name="onehalf" unicode="&#xbd;" horiz-adv-x="774" 
d="M281 0q-39 0 -39 16q0 12 8 33l203 554q5 16 16 22t37 6q23 0 31 -3.5t8 -13.5q0 -11 -8 -32l-203 -554q-5 -16 -15.5 -22t-37.5 -6zM42 293q0 26 5.5 33t21.5 7h47v202l-40 -11q-10 -4 -20 -4q-18 0 -18 38q0 22 5 29.5t19 12.5l62 21q26 8 51 8q21 0 26.5 -5.5
t5.5 -24.5v-266h48q16 0 22 -7t6 -33t-6 -33t-22 -7h-186q-16 0 -21.5 7t-5.5 33zM749 41q0 -26 -6 -33.5t-22 -7.5h-206q-17 0 -23.5 5.5t-6.5 24.5v18q0 25 34 62l90 94q30 30 30 59q0 23 -9.5 30t-35.5 7q-20 0 -46 -5t-31 -5q-9 0 -12.5 6t-3.5 28q0 23 5 31t19 12
q41 11 93 11q57 0 87 -18t30 -74q0 -36 -11 -58.5t-43 -58.5l-81 -88h121q16 0 22 -7t6 -33z" />
    <glyph glyph-name="threequarters" unicode="&#xbe;" horiz-adv-x="760" 
d="M637 0q-25 0 -36 4.5t-11 19.5v51h-144q-14 0 -19 8t-5 30q0 36 14 60l108 180q9 15 24.5 20t52.5 5t49.5 -6t12.5 -27v-198h25q13 0 18 -8.5t5 -29.5t-4.5 -27.5t-18.5 -6.5h-25v-51q0 -15 -10.5 -19.5t-35.5 -4.5zM148 246q-54 0 -99 12q-14 4 -19 12t-5 31
q0 21 3.5 27.5t12.5 6.5q6 0 35.5 -5t49.5 -5q29 0 43 9t14 33t-16 34t-65 10q-11 0 -15 7t-4 24q0 18 3.5 25t15.5 7q45 0 60.5 9t15.5 34q0 21 -11 28t-38 7q-19 0 -47 -4.5t-34 -4.5q-9 0 -12.5 6t-3.5 28q0 23 5 31t19 11q45 12 97 12q56 0 86.5 -18.5t30.5 -74.5
q0 -85 -71 -97q81 -4 81 -91q0 -61 -36.5 -82.5t-95.5 -21.5zM264 0q-39 0 -39 16q0 12 8 33l203 554q6 16 16.5 22t36.5 6q23 0 31 -3.5t8 -13.5q0 -13 -7 -32l-204 -554q-6 -17 -16 -22.5t-37 -5.5zM595 303l-89 -156h89v156z" />
    <glyph glyph-name="questiondown" unicode="&#xbf;" horiz-adv-x="366" 
d="M207 464q30 0 41 -6.5t11 -27.5v-40q0 -34 -7.5 -52.5t-26.5 -39.5l-65 -70q-28 -30 -28 -73q0 -35 15.5 -45.5t60.5 -10.5q36 0 77.5 7.5t46.5 7.5q10 0 14.5 -9t4.5 -37q0 -29 -5.5 -38t-20.5 -13q-60 -19 -145 -19q-36 0 -62.5 5t-51.5 18t-38.5 40.5t-13.5 69.5
q0 47 13 75.5t40 58.5l65 72q22 25 22 66v27q0 21 11 27.5t42 6.5zM207 624q38 0 49 -8t11 -35v-25q0 -27 -11 -35t-49 -8t-49.5 8t-11.5 35v25q0 27 11.5 35t49.5 8z" />
    <glyph glyph-name="Agrave" unicode="&#xc0;" horiz-adv-x="532" 
d="M70 0q-35 0 -45.5 5.5t-10.5 21.5q0 7 7 35l136 506q9 35 28.5 44t80.5 9q60 0 79 -9t29 -44l137 -506q6 -24 6 -35q0 -15 -10.5 -21t-44.5 -6q-37 0 -49 6t-17 27l-36 134h-191l-33 -134q-5 -20 -17 -26.5t-49 -6.5zM259 523l-67 -267h148l-68 267h-13zM279 665
q-24 0 -37 4t-18 9t-12 17l-43 74q-15 25 -15 42q0 12 12 17t48 5q38 0 48.5 -7t21.5 -31l33 -74q10 -22 10 -35q0 -21 -48 -21z" />
    <glyph glyph-name="Aacute" unicode="&#xc1;" horiz-adv-x="532" 
d="M70 0q-35 0 -45.5 5.5t-10.5 21.5q0 7 7 35l136 506q9 35 28.5 44t80.5 9q60 0 79 -9t29 -44l137 -506q6 -24 6 -35q0 -15 -10.5 -21t-44.5 -6q-37 0 -49 6t-17 27l-36 134h-191l-33 -134q-5 -20 -17 -26.5t-49 -6.5zM259 523l-67 -267h148l-68 267h-13zM252 665
q-48 0 -48 21q0 11 11 35l33 74q12 26 22 32t47 6q36 0 48 -6.5t12 -20.5q0 -12 -14 -37l-44 -74q-10 -17 -21.5 -23.5t-45.5 -6.5z" />
    <glyph glyph-name="Acircumflex" unicode="&#xc2;" horiz-adv-x="532" 
d="M70 0q-35 0 -45.5 5.5t-10.5 21.5q0 7 7 35l136 506q9 35 28.5 44t80.5 9q60 0 79 -9t29 -44l137 -506q6 -24 6 -35q0 -15 -10.5 -21t-44.5 -6q-37 0 -49 6t-17 27l-36 134h-191l-33 -134q-5 -20 -17 -26.5t-49 -6.5zM259 523l-67 -267h148l-68 267h-13zM268 751h-6
l-39 -60q-10 -16 -22.5 -21t-39.5 -5q-38 0 -38 20q0 11 13 34l53 90q8 14 18 19t34 5h48q24 0 34 -5t18 -19l53 -90q13 -23 13 -34q0 -20 -38 -20q-27 0 -38.5 5t-22.5 21z" />
    <glyph glyph-name="Atilde" unicode="&#xc3;" horiz-adv-x="532" 
d="M70 0q-35 0 -45.5 5.5t-10.5 21.5q0 7 7 35l136 506q9 35 28.5 44t80.5 9q60 0 79 -9t29 -44l137 -506q6 -24 6 -35q0 -15 -10.5 -21t-44.5 -6q-37 0 -49 6t-17 27l-36 134h-191l-33 -134q-5 -20 -17 -26.5t-49 -6.5zM259 523l-67 -267h148l-68 267h-13zM122 718
q0 24 5.5 33.5t20.5 19.5q30 19 65 19q25 0 60.5 -10t52.5 -10q20 0 42 8.5t25 8.5q9 0 12.5 -7t3.5 -32q0 -23 -5.5 -33.5t-20.5 -20.5q-30 -18 -65 -18q-25 0 -60 10t-52 10q-21 0 -43 -8.5t-25 -8.5q-9 0 -12.5 7t-3.5 32z" />
    <glyph glyph-name="Adieresis" unicode="&#xc4;" horiz-adv-x="532" 
d="M70 0q-35 0 -45.5 5.5t-10.5 21.5q0 7 7 35l136 506q9 35 28.5 44t80.5 9q60 0 79 -9t29 -44l137 -506q6 -24 6 -35q0 -15 -10.5 -21t-44.5 -6q-37 0 -49 6t-17 27l-36 134h-191l-33 -134q-5 -20 -17 -26.5t-49 -6.5zM259 523l-67 -267h148l-68 267h-13zM182 684
q-38 0 -49 8t-11 35v16q0 27 10.5 35t49.5 8t49.5 -8t10.5 -35v-16q0 -27 -11 -35t-49 -8zM349 684q-38 0 -48.5 8t-10.5 35v16q0 27 10.5 35t48.5 8q39 0 49.5 -8t10.5 -35v-16q0 -27 -11 -35t-49 -8z" />
    <glyph glyph-name="Aring" unicode="&#xc5;" horiz-adv-x="532" 
d="M70 0q-35 0 -45.5 5.5t-10.5 21.5q0 7 7 35l136 506q9 35 28.5 44t80.5 9q60 0 79 -9t29 -44l137 -506q6 -24 6 -35q0 -15 -10.5 -21t-44.5 -6q-37 0 -49 6t-17 27l-36 134h-191l-33 -134q-5 -20 -17 -26.5t-49 -6.5zM259 523l-67 -267h148l-68 267h-13zM265 742
q28 0 35.5 6.5t7.5 26.5t-7.5 26.5t-35.5 6.5q-27 0 -34 -6.5t-7 -26.5t7 -26.5t34 -6.5zM265 670q-68 0 -95.5 22t-27.5 83q0 60 27.5 82.5t95.5 22.5q69 0 96.5 -22t27.5 -83t-27 -83t-97 -22z" />
    <glyph glyph-name="AE" unicode="&#xc6;" horiz-adv-x="728" 
d="M70 0q-35 0 -45.5 5.5t-10.5 21.5q0 7 7 35l136 506q10 35 29.5 44t79.5 9h397q18 0 24.5 -10.5t6.5 -41.5t-6.5 -41t-24.5 -10h-215v-142h154q20 0 25.5 -9.5t5.5 -40.5q0 -32 -6 -41.5t-25 -9.5h-154v-172h225q18 0 24.5 -10.5t6.5 -41.5q0 -30 -6.5 -40.5t-24.5 -10.5
h-305q-21 0 -28.5 6t-7.5 25v136h-163l-33 -134q-5 -21 -17 -27t-49 -6zM259 523l-67 -267h140v267h-73z" />
    <glyph glyph-name="Ccedilla" unicode="&#xc7;" horiz-adv-x="453" 
d="M249 -223q-33 0 -61 6q-16 3 -22 11t-6 31q0 42 23 42q4 0 20.5 -2t30.5 -2q23 0 23 13t-27 25q-19 8 -26 20.5t-7 39.5v35q-78 8 -117 63.5t-39 198.5v88q0 55 6 97.5t15.5 72t25.5 50t32.5 32t40.5 18t45 8.5t51 2q72 0 143 -19q13 -3 18.5 -13t5.5 -41q0 -45 -18 -45
q-1 0 -42.5 7.5t-79.5 7.5q-32 0 -50.5 -3t-35.5 -13t-24.5 -30.5t-12 -53.5t-4.5 -85v-55q0 -67 5.5 -104.5t23 -56t37.5 -23t61 -4.5q40 0 79.5 8t42.5 8q11 0 14.5 -9.5t3.5 -36.5q0 -29 -5.5 -39.5t-18.5 -13.5q-52 -15 -121 -18v-17q0 -14 14 -22q38 -21 50.5 -38
t12.5 -53q0 -87 -107 -87z" />
    <glyph glyph-name="Egrave" unicode="&#xc8;" horiz-adv-x="455" 
d="M431 51q0 -30 -6.5 -40.5t-24.5 -10.5h-311q-21 0 -28.5 6t-7.5 25v559q0 19 7.5 25t28.5 6h301q18 0 24.5 -10.5t6.5 -41.5t-6.5 -41t-24.5 -10h-221v-142h160q20 0 25.5 -9.5t5.5 -40.5q0 -32 -6 -41.5t-25 -9.5h-160v-172h231q18 0 24.5 -10.5t6.5 -41.5zM255 665
q-24 0 -37 4t-18 9t-12 17l-43 74q-15 25 -15 42q0 12 12 17t48 5q38 0 48.5 -7t21.5 -31l33 -74q10 -22 10 -35q0 -21 -48 -21z" />
    <glyph glyph-name="Eacute" unicode="&#xc9;" horiz-adv-x="455" 
d="M431 51q0 -30 -6.5 -40.5t-24.5 -10.5h-311q-21 0 -28.5 6t-7.5 25v559q0 19 7.5 25t28.5 6h301q18 0 24.5 -10.5t6.5 -41.5t-6.5 -41t-24.5 -10h-221v-142h160q20 0 25.5 -9.5t5.5 -40.5q0 -32 -6 -41.5t-25 -9.5h-160v-172h231q18 0 24.5 -10.5t6.5 -41.5zM205 665
q-48 0 -48 21q0 11 11 35l33 74q12 26 22 32t47 6q36 0 48 -6.5t12 -20.5q0 -12 -14 -37l-44 -74q-10 -17 -21.5 -23.5t-45.5 -6.5z" />
    <glyph glyph-name="Ecircumflex" unicode="&#xca;" horiz-adv-x="455" 
d="M431 51q0 -30 -6.5 -40.5t-24.5 -10.5h-311q-21 0 -28.5 6t-7.5 25v559q0 19 7.5 25t28.5 6h301q18 0 24.5 -10.5t6.5 -41.5t-6.5 -41t-24.5 -10h-221v-142h160q20 0 25.5 -9.5t5.5 -40.5q0 -32 -6 -41.5t-25 -9.5h-160v-172h231q18 0 24.5 -10.5t6.5 -41.5zM243 751h-6
l-39 -60q-10 -16 -22.5 -21t-39.5 -5q-38 0 -38 20q0 11 13 34l53 90q8 14 18 19t34 5h48q24 0 34 -5t18 -19l53 -90q13 -23 13 -34q0 -20 -38 -20q-27 0 -38.5 5t-22.5 21z" />
    <glyph glyph-name="Edieresis" unicode="&#xcb;" horiz-adv-x="455" 
d="M431 51q0 -30 -6.5 -40.5t-24.5 -10.5h-311q-21 0 -28.5 6t-7.5 25v559q0 19 7.5 25t28.5 6h301q18 0 24.5 -10.5t6.5 -41.5t-6.5 -41t-24.5 -10h-221v-142h160q20 0 25.5 -9.5t5.5 -40.5q0 -32 -6 -41.5t-25 -9.5h-160v-172h231q18 0 24.5 -10.5t6.5 -41.5zM157 679
q-38 0 -49 8t-11 35v16q0 27 10.5 35t49.5 8t49.5 -8t10.5 -35v-16q0 -27 -11 -35t-49 -8zM324 679q-38 0 -48.5 8t-10.5 35v16q0 27 10.5 35t48.5 8q39 0 49.5 -8t10.5 -35v-16q0 -27 -11 -35t-49 -8z" />
    <glyph glyph-name="Igrave" unicode="&#xcc;" horiz-adv-x="223" 
d="M111 0q-35 0 -46.5 6.5t-11.5 27.5v553q0 21 11.5 27.5t46.5 6.5t46.5 -6.5t11.5 -27.5v-553q0 -21 -11.5 -27.5t-46.5 -6.5zM130 665q-24 0 -37 4t-18 9t-12 17l-43 74q-15 25 -15 42q0 12 12 17t48 5q38 0 48.5 -7t21.5 -31l33 -74q10 -22 10 -35q0 -21 -48 -21z" />
    <glyph glyph-name="Iacute" unicode="&#xcd;" horiz-adv-x="223" 
d="M111 0q-35 0 -46.5 6.5t-11.5 27.5v553q0 21 11.5 27.5t46.5 6.5t46.5 -6.5t11.5 -27.5v-553q0 -21 -11.5 -27.5t-46.5 -6.5zM93 665q-48 0 -48 21q0 11 11 35l33 74q12 26 22 32t47 6q36 0 48 -6.5t12 -20.5q0 -12 -14 -37l-44 -74q-10 -17 -21.5 -23.5t-45.5 -6.5z" />
    <glyph glyph-name="Icircumflex" unicode="&#xce;" horiz-adv-x="223" 
d="M111 0q-35 0 -46.5 6.5t-11.5 27.5v553q0 21 11.5 27.5t46.5 6.5t46.5 -6.5t11.5 -27.5v-553q0 -21 -11.5 -27.5t-46.5 -6.5zM115 751h-6l-39 -60q-10 -16 -22.5 -21t-39.5 -5q-38 0 -38 20q0 11 13 34l53 90q8 14 18 19t34 5h48q24 0 34 -5t18 -19l53 -90q13 -23 13 -34
q0 -20 -38 -20q-27 0 -38.5 5t-22.5 21z" />
    <glyph glyph-name="Idieresis" unicode="&#xcf;" horiz-adv-x="223" 
d="M111 0q-35 0 -46.5 6.5t-11.5 27.5v553q0 21 11.5 27.5t46.5 6.5t46.5 -6.5t11.5 -27.5v-553q0 -21 -11.5 -27.5t-46.5 -6.5zM28 679q-38 0 -49 8t-11 35v16q0 27 10.5 35t49.5 8t49.5 -8t10.5 -35v-16q0 -27 -11 -35t-49 -8zM195 679q-38 0 -48.5 8t-10.5 35v16
q0 27 10.5 35t48.5 8q39 0 49.5 -8t10.5 -35v-16q0 -27 -11 -35t-49 -8z" />
    <glyph glyph-name="Eth" unicode="&#xd0;" horiz-adv-x="528" 
d="M0 314q0 32 6 41.5t25 9.5h22v214q0 20 8 28.5t27 10.5q58 8 146 8q46 0 76 -2.5t62 -11.5t50.5 -27t34.5 -47.5t23 -74.5t7 -107v-73q0 -79 -12 -133.5t-30.5 -85t-52 -47t-64 -20.5t-79.5 -4q-96 0 -160 7q-22 3 -29 10.5t-7 26.5v226h-22q-19 0 -25 9.5t-6 41.5z
M249 95q53 0 76 11t34.5 50.5t11.5 126.5v69q0 112 -26 144.5t-106 32.5q-36 0 -70 -4v-162h31q19 0 25 -9.5t6 -39.5q0 -31 -6 -40t-25 -9h-31v-166q28 -4 80 -4z" />
    <glyph glyph-name="Ntilde" unicode="&#xd1;" horiz-adv-x="552" 
d="M111 0q-35 0 -46.5 6.5t-11.5 27.5v553q0 21 13.5 27.5t56.5 6.5q33 0 48 -6t25 -27l178 -382h9v381q0 21 11.5 27.5t46.5 6.5t46.5 -6.5t11.5 -27.5v-553q0 -22 -12.5 -28t-54.5 -6q-31 0 -44 5.5t-25 26.5l-185 383h-9v-381q0 -21 -11.5 -27.5t-46.5 -6.5zM132 722
q0 24 5.5 33.5t20.5 19.5q30 19 65 19q25 0 60.5 -10t52.5 -10q20 0 42 8.5t25 8.5q9 0 12.5 -7t3.5 -32q0 -23 -5.5 -33.5t-20.5 -20.5q-30 -18 -65 -18q-25 0 -60 10t-52 10q-21 0 -43 -8.5t-25 -8.5q-9 0 -12.5 7t-3.5 32z" />
    <glyph glyph-name="Ograve" unicode="&#xd2;" horiz-adv-x="529" 
d="M264 93q36 0 55 5.5t32 26t17 56.5t4 102v53q0 67 -3.5 102t-16 56.5t-31.5 26.5t-57 5q-47 0 -68 -12.5t-30 -51.5t-9 -126v-53q0 -89 8.5 -127t29 -50.5t69.5 -12.5zM264 -7q-66 0 -103.5 8.5t-67 37.5t-41 84.5t-11.5 148.5v69q0 77 9 129t24 83t45 47t61.5 21t83.5 5
q68 0 106 -8.5t67.5 -38.5t40 -86t10.5 -152v-69q0 -76 -9.5 -127t-25 -81t-46 -46t-61.5 -20.5t-82 -4.5zM291 665q-24 0 -37 4t-18 9t-12 17l-43 74q-15 25 -15 42q0 12 12 17t48 5q38 0 48.5 -7t21.5 -31l33 -74q10 -22 10 -35q0 -21 -48 -21z" />
    <glyph glyph-name="Oacute" unicode="&#xd3;" horiz-adv-x="529" 
d="M264 93q36 0 55 5.5t32 26t17 56.5t4 102v53q0 67 -3.5 102t-16 56.5t-31.5 26.5t-57 5q-47 0 -68 -12.5t-30 -51.5t-9 -126v-53q0 -89 8.5 -127t29 -50.5t69.5 -12.5zM264 -7q-66 0 -103.5 8.5t-67 37.5t-41 84.5t-11.5 148.5v69q0 77 9 129t24 83t45 47t61.5 21t83.5 5
q68 0 106 -8.5t67.5 -38.5t40 -86t10.5 -152v-69q0 -76 -9.5 -127t-25 -81t-46 -46t-61.5 -20.5t-82 -4.5zM237 665q-48 0 -48 21q0 11 11 35l33 74q12 26 22 32t47 6q36 0 48 -6.5t12 -20.5q0 -12 -14 -37l-44 -74q-7 -12 -12 -17t-18 -9t-37 -4z" />
    <glyph glyph-name="Ocircumflex" unicode="&#xd4;" horiz-adv-x="529" 
d="M264 93q36 0 55 5.5t32 26t17 56.5t4 102v53q0 67 -3.5 102t-16 56.5t-31.5 26.5t-57 5q-47 0 -68 -12.5t-30 -51.5t-9 -126v-53q0 -89 8.5 -127t29 -50.5t69.5 -12.5zM264 -7q-66 0 -103.5 8.5t-67 37.5t-41 84.5t-11.5 148.5v69q0 77 9 129t24 83t45 47t61.5 21t83.5 5
q68 0 106 -8.5t67.5 -38.5t40 -86t10.5 -152v-69q0 -76 -9.5 -127t-25 -81t-46 -46t-61.5 -20.5t-82 -4.5zM267 751h-6l-39 -60q-10 -16 -22.5 -21t-39.5 -5q-38 0 -38 20q0 11 13 34l53 90q8 14 18 19t34 5h48q24 0 34 -5t18 -19l53 -90q13 -23 13 -34q0 -20 -38 -20
q-27 0 -38.5 5t-22.5 21z" />
    <glyph glyph-name="Otilde" unicode="&#xd5;" horiz-adv-x="529" 
d="M264 93q36 0 55 5.5t32 26t17 56.5t4 102v53q0 67 -3.5 102t-16 56.5t-31.5 26.5t-57 5q-47 0 -68 -12.5t-30 -51.5t-9 -126v-53q0 -89 8.5 -127t29 -50.5t69.5 -12.5zM264 -7q-66 0 -103.5 8.5t-67 37.5t-41 84.5t-11.5 148.5v69q0 77 9 129t24 83t45 47t61.5 21t83.5 5
q68 0 106 -8.5t67.5 -38.5t40 -86t10.5 -152v-69q0 -76 -9.5 -127t-25 -81t-46 -46t-61.5 -20.5t-82 -4.5zM121 718q0 24 5.5 33.5t20.5 19.5q30 19 65 19q25 0 60.5 -10t52.5 -10q20 0 42 8.5t25 8.5q9 0 12.5 -7t3.5 -32q0 -23 -5.5 -33.5t-20.5 -20.5q-30 -18 -65 -18
q-25 0 -60 10t-52 10q-21 0 -43 -8.5t-25 -8.5q-9 0 -12.5 7t-3.5 32z" />
    <glyph glyph-name="Odieresis" unicode="&#xd6;" horiz-adv-x="529" 
d="M264 93q36 0 55 5.5t32 26t17 56.5t4 102v53q0 67 -3.5 102t-16 56.5t-31.5 26.5t-57 5q-47 0 -68 -12.5t-30 -51.5t-9 -126v-53q0 -89 8.5 -127t29 -50.5t69.5 -12.5zM264 -7q-66 0 -103.5 8.5t-67 37.5t-41 84.5t-11.5 148.5v69q0 77 9 129t24 83t45 47t61.5 21t83.5 5
q68 0 106 -8.5t67.5 -38.5t40 -86t10.5 -152v-69q0 -76 -9.5 -127t-25 -81t-46 -46t-61.5 -20.5t-82 -4.5zM181 682q-38 0 -49 8t-11 35v16q0 27 10.5 35t49.5 8t49.5 -8t10.5 -35v-16q0 -27 -11 -35t-49 -8zM348 682q-38 0 -48.5 8t-10.5 35v16q0 27 10.5 35t48.5 8
q39 0 49.5 -8t10.5 -35v-16q0 -27 -11 -35t-49 -8z" />
    <glyph glyph-name="multiply" unicode="&#xd7;" 
d="M78 122q0 9 16 32l87 114l-87 122q-16 21 -16 31q0 17 44 17q41 0 54 -18l55 -82l55 82q13 18 54 18q44 0 44 -17q0 -10 -16 -31l-88 -122l88 -114q16 -23 16 -32q0 -17 -44 -17q-40 0 -54 18l-55 76l-55 -76q-14 -18 -54 -18q-44 0 -44 17z" />
    <glyph glyph-name="Oslash" unicode="&#xd8;" horiz-adv-x="529" 
d="M264 -7q-64 0 -100 8t-67 36t-43.5 84.5t-12.5 150.5v69q0 96 10.5 152t40 86t67 38.5t105.5 8.5t106 -8.5t67.5 -38.5t40 -86t10.5 -152v-69q0 -76 -9.5 -127t-25 -81t-46 -46t-61.5 -20.5t-82 -4.5zM157 242l203 236q-9 29 -30.5 38.5t-65.5 9.5q-37 0 -56 -5
t-31.5 -26.5t-16 -56.5t-3.5 -102v-94zM264 93q36 0 55 5.5t32 26t17 56.5t4 102v86l-199 -232q11 -27 31 -35.5t60 -8.5z" />
    <glyph glyph-name="Ugrave" unicode="&#xd9;" horiz-adv-x="527" 
d="M263 -7q-115 0 -162.5 43t-47.5 148v403q0 21 11.5 27.5t46.5 6.5t46.5 -6.5t11.5 -27.5v-409q0 -49 19 -67.5t75 -18.5t75 18.5t19 67.5v409q0 21 11.5 27.5t46.5 6.5t46.5 -6.5t11.5 -27.5v-403q0 -105 -47.5 -148t-162.5 -43zM283 665q-34 0 -45.5 6.5t-21.5 23.5
l-43 74q-15 25 -15 42q0 12 12 17t48 5q38 0 48.5 -7t21.5 -31l33 -74q10 -22 10 -35q0 -21 -48 -21z" />
    <glyph glyph-name="Uacute" unicode="&#xda;" horiz-adv-x="527" 
d="M263 -7q-115 0 -162.5 43t-47.5 148v403q0 21 11.5 27.5t46.5 6.5t46.5 -6.5t11.5 -27.5v-409q0 -49 19 -67.5t75 -18.5t75 18.5t19 67.5v409q0 21 11.5 27.5t46.5 6.5t46.5 -6.5t11.5 -27.5v-403q0 -105 -47.5 -148t-162.5 -43zM243 665q-48 0 -48 21q0 11 11 35l33 74
q12 26 22 32t47 6q36 0 48 -6.5t12 -20.5q0 -12 -14 -37l-44 -74q-10 -17 -21.5 -23.5t-45.5 -6.5z" />
    <glyph glyph-name="Ucircumflex" unicode="&#xdb;" horiz-adv-x="527" 
d="M263 -7q-115 0 -162.5 43t-47.5 148v403q0 21 11.5 27.5t46.5 6.5t46.5 -6.5t11.5 -27.5v-409q0 -49 19 -67.5t75 -18.5t75 18.5t19 67.5v409q0 21 11.5 27.5t46.5 6.5t46.5 -6.5t11.5 -27.5v-403q0 -105 -47.5 -148t-162.5 -43zM267 751h-6l-39 -60q-10 -16 -22.5 -21
t-39.5 -5q-38 0 -38 20q0 11 13 34l53 90q8 14 18 19t34 5h48q24 0 34 -5t18 -19l53 -90q13 -23 13 -34q0 -20 -38 -20q-27 0 -38.5 5t-22.5 21z" />
    <glyph glyph-name="Udieresis" unicode="&#xdc;" horiz-adv-x="527" 
d="M263 -7q-115 0 -162.5 43t-47.5 148v403q0 21 11.5 27.5t46.5 6.5t46.5 -6.5t11.5 -27.5v-409q0 -49 19 -67.5t75 -18.5t75 18.5t19 67.5v409q0 21 11.5 27.5t46.5 6.5t46.5 -6.5t11.5 -27.5v-403q0 -105 -47.5 -148t-162.5 -43zM180 682q-38 0 -49 8t-11 35v16
q0 27 10.5 35t49.5 8t49.5 -8t10.5 -35v-16q0 -27 -11 -35t-49 -8zM347 682q-38 0 -48.5 8t-10.5 35v16q0 27 10.5 35t48.5 8q39 0 49.5 -8t10.5 -35v-16q0 -27 -11 -35t-49 -8z" />
    <glyph glyph-name="Yacute" unicode="&#xdd;" horiz-adv-x="474" 
d="M237 0q-35 0 -46.5 6.5t-11.5 27.5v194l-150 320q-15 31 -15 46q0 27 51 27q42 0 54.5 -6t21.5 -27l94 -239h5l93 239q8 22 20.5 27.5t53.5 5.5q54 0 54 -26q0 -14 -16 -47l-150 -320v-194q0 -21 -11.5 -27.5t-46.5 -6.5zM217 665q-48 0 -48 21q0 11 11 35l33 74
q12 26 22 32t47 6q36 0 48 -6.5t12 -20.5q0 -12 -14 -37l-44 -74q-10 -17 -21.5 -23.5t-45.5 -6.5z" />
    <glyph glyph-name="Thorn" unicode="&#xde;" horiz-adv-x="475" 
d="M111 0q-35 0 -46.5 6.5t-11.5 27.5v553q0 21 11.5 27.5t46.5 6.5t46.5 -6.5t11.5 -27.5v-78q42 3 85 3q109 0 153.5 -35.5t44.5 -148.5q0 -118 -54.5 -163.5t-178.5 -45.5h-50v-85q0 -21 -11.5 -27.5t-46.5 -6.5zM169 412v-198h56q67 0 89.5 22t22.5 90q0 55 -19.5 72
t-76.5 17q-12 0 -72 -3z" />
    <glyph glyph-name="germandbls" unicode="&#xdf;" horiz-adv-x="500" 
d="M217 671q98 0 140.5 -28t42.5 -93q0 -47 -22.5 -110t-22.5 -81q0 -31 25 -48l55 -40q31 -23 42.5 -51t11.5 -76q0 -79 -39.5 -116.5t-108.5 -37.5q-56 0 -95 15q-15 6 -21 15.5t-6 34.5q0 47 19 47q3 0 29 -5.5t48 -5.5q34 0 45 13.5t11 45.5q0 40 -20 54l-52 34
q-50 32 -50 98q0 33 20 96t20 95q0 30 -15 39.5t-55 9.5q-34 0 -43 -9.5t-9 -48.5v-484q0 -22 -11.5 -28t-46.5 -6t-46.5 6t-11.5 28v500q0 76 34.5 106.5t131.5 30.5z" />
    <glyph glyph-name="agrave" unicode="&#xe0;" horiz-adv-x="486" 
d="M162 -10q-67 0 -98 34t-31 112q0 80 42 114t148 34h87v50q0 46 -16.5 58t-65.5 12q-43 0 -92 -8t-53 -8q-21 0 -21 46q0 25 5.5 34.5t19.5 14.5q64 20 156 20q99 0 140.5 -27.5t41.5 -112.5v-158q0 -51 5 -90t10 -60.5t5 -27.5q0 -15 -10.5 -21t-42.5 -6q-30 0 -40 5.5
t-15 24.5l-15 56q-39 -96 -160 -96zM203 83q45 0 76 26.5t31 78.5v27l-87 -3q-47 -1 -63 -14.5t-16 -49.5q0 -40 13 -52.5t46 -12.5zM271 539q-34 0 -45.5 6t-21.5 24l-43 74q-15 25 -15 42q0 12 12 17t48 5q38 0 48.5 -7t21.5 -31l33 -74q10 -22 10 -35q0 -21 -48 -21z" />
    <glyph glyph-name="aacute" unicode="&#xe1;" horiz-adv-x="486" 
d="M162 -10q-67 0 -98 34t-31 112q0 80 42 114t148 34h87v50q0 46 -16.5 58t-65.5 12q-43 0 -92 -8t-53 -8q-21 0 -21 46q0 25 5.5 34.5t19.5 14.5q64 20 156 20q99 0 140.5 -27.5t41.5 -112.5v-158q0 -51 5 -90t10 -60.5t5 -27.5q0 -15 -10.5 -21t-42.5 -6q-30 0 -40 5.5
t-15 24.5l-15 56q-39 -96 -160 -96zM203 83q45 0 76 26.5t31 78.5v27l-87 -3q-47 -1 -63 -14.5t-16 -49.5q0 -40 13 -52.5t46 -12.5zM216 539q-48 0 -48 21q0 11 11 35l33 74q12 26 22 32t47 6q36 0 48 -6.5t12 -20.5q0 -12 -14 -37l-44 -74q-7 -12 -12 -17t-18 -9t-37 -4z
" />
    <glyph glyph-name="acircumflex" unicode="&#xe2;" horiz-adv-x="486" 
d="M162 -10q-67 0 -98 34t-31 112q0 80 42 114t148 34h87v50q0 46 -16.5 58t-65.5 12q-43 0 -92 -8t-53 -8q-21 0 -21 46q0 25 5.5 34.5t19.5 14.5q64 20 156 20q99 0 140.5 -27.5t41.5 -112.5v-158q0 -51 5 -90t10 -60.5t5 -27.5q0 -15 -10.5 -21t-42.5 -6q-30 0 -40 5.5
t-15 24.5l-15 56q-39 -96 -160 -96zM203 83q45 0 76 26.5t31 78.5v27l-87 -3q-47 -1 -63 -14.5t-16 -49.5q0 -40 13 -52.5t46 -12.5zM242 625h-6l-39 -60q-10 -16 -22.5 -21t-39.5 -5q-38 0 -38 20q0 11 13 34l53 90q8 14 18 19t34 5h48q24 0 34 -5t18 -19l53 -90
q13 -23 13 -34q0 -20 -38 -20q-27 0 -38.5 5t-22.5 21z" />
    <glyph glyph-name="atilde" unicode="&#xe3;" horiz-adv-x="486" 
d="M162 -10q-67 0 -98 34t-31 112q0 80 42 114t148 34h87v50q0 46 -16.5 58t-65.5 12q-43 0 -92 -8t-53 -8q-21 0 -21 46q0 25 5.5 34.5t19.5 14.5q64 20 156 20q99 0 140.5 -27.5t41.5 -112.5v-158q0 -51 5 -90t10 -60.5t5 -27.5q0 -15 -10.5 -21t-42.5 -6q-30 0 -40 5.5
t-15 24.5l-15 56q-39 -96 -160 -96zM203 83q45 0 76 26.5t31 78.5v27l-87 -3q-47 -1 -63 -14.5t-16 -49.5q0 -40 13 -52.5t46 -12.5zM96 598q0 24 5.5 33.5t20.5 19.5q30 19 65 19q25 0 60.5 -10t52.5 -10q20 0 42 8.5t25 8.5q9 0 12.5 -7t3.5 -32q0 -23 -5.5 -33.5
t-20.5 -20.5q-30 -18 -65 -18q-25 0 -60 10t-52 10q-21 0 -43 -8.5t-25 -8.5q-9 0 -12.5 7t-3.5 32z" />
    <glyph glyph-name="adieresis" unicode="&#xe4;" horiz-adv-x="486" 
d="M162 -10q-67 0 -98 34t-31 112q0 80 42 114t148 34h87v50q0 46 -16.5 58t-65.5 12q-43 0 -92 -8t-53 -8q-21 0 -21 46q0 25 5.5 34.5t19.5 14.5q64 20 156 20q99 0 140.5 -27.5t41.5 -112.5v-158q0 -51 5 -90t10 -60.5t5 -27.5q0 -15 -10.5 -21t-42.5 -6q-30 0 -40 5.5
t-15 24.5l-15 56q-39 -96 -160 -96zM203 83q45 0 76 26.5t31 78.5v27l-87 -3q-47 -1 -63 -14.5t-16 -49.5q0 -40 13 -52.5t46 -12.5zM156 553q-38 0 -49 8t-11 35v16q0 27 10.5 35t49.5 8t49.5 -8t10.5 -35v-16q0 -27 -11 -35t-49 -8zM323 553q-38 0 -48.5 8t-10.5 35v16
q0 27 10.5 35t48.5 8q39 0 49.5 -8t10.5 -35v-16q0 -27 -11 -35t-49 -8z" />
    <glyph glyph-name="aring" unicode="&#xe5;" horiz-adv-x="486" 
d="M162 -10q-67 0 -98 34t-31 112q0 80 42 114t148 34h87v50q0 46 -16.5 58t-65.5 12q-43 0 -92 -8t-53 -8q-21 0 -21 46q0 25 5.5 34.5t19.5 14.5q64 20 156 20q99 0 140.5 -27.5t41.5 -112.5v-158q0 -51 5 -90t10 -60.5t5 -27.5q0 -15 -10.5 -21t-42.5 -6q-30 0 -40 5.5
t-15 24.5l-15 56q-39 -96 -160 -96zM203 83q45 0 76 26.5t31 78.5v27l-87 -3q-47 -1 -63 -14.5t-16 -49.5q0 -40 13 -52.5t46 -12.5zM237 619q28 0 35.5 6.5t7.5 26.5t-7.5 26.5t-35.5 6.5q-27 0 -34 -6.5t-7 -26.5t7 -26.5t34 -6.5zM237 547q-68 0 -95.5 22t-27.5 83
q0 60 27.5 82.5t95.5 22.5q69 0 96.5 -22t27.5 -83t-27 -83t-97 -22z" />
    <glyph glyph-name="ae" unicode="&#xe6;" horiz-adv-x="741" 
d="M501 -10q-84 0 -122.5 20.5t-51.5 87.5q-36 -108 -165 -108q-67 0 -98 34t-31 112q0 80 42 114t148 34h87v50q0 46 -16.5 58t-65.5 12q-43 0 -92 -8t-53 -8q-21 0 -21 46q0 25 5.5 34.5t19.5 14.5q64 20 156 20q106 0 141 -35q46 35 141 35q57 0 92.5 -13t54 -44.5
t24.5 -71t6 -104.5q0 -29 -9 -41.5t-35 -12.5h-233q1 -59 11.5 -85.5t27.5 -33.5t57 -7q39 0 74.5 4t56 8.5t24.5 4.5q19 0 19 -47q0 -24 -6 -34t-21 -16q-55 -20 -167 -20zM203 83q45 0 76 26.5t31 78.5v27l-87 -3q-47 -1 -63 -14.5t-16 -49.5q0 -40 13 -52.5t46 -12.5z
M514 406q-52 0 -69.5 -21t-19.5 -97h168q0 70 -13 94t-66 24z" />
    <glyph glyph-name="ccedilla" unicode="&#xe7;" horiz-adv-x="430" 
d="M225 -223q-32 0 -61 6q-16 3 -22 11t-6 31q0 42 23 42q4 0 20.5 -2t30.5 -2q23 0 23 13q0 3 -0.5 5t-2 3.5t-2.5 3t-4 3.5l-4.5 3t-6.5 3.5l-7 3.5q-19 9 -26 21.5t-7 38.5v35q-67 12 -98.5 66t-31.5 180q0 86 13 139.5t41.5 79.5t61 34t85.5 8q64 0 128 -18
q15 -5 20.5 -15t5.5 -35q0 -47 -20 -47q-2 0 -46.5 8t-72.5 8q-41 0 -60 -9t-29.5 -41t-10.5 -101q0 -108 17.5 -135.5t85.5 -27.5q38 0 77.5 8.5t40.5 8.5q19 0 19 -47q0 -24 -6 -34t-21 -16q-52 -18 -117 -20v-13q0 -14 14 -22q38 -21 50.5 -38t12.5 -53q0 -87 -107 -87z
" />
    <glyph glyph-name="egrave" unicode="&#xe8;" horiz-adv-x="475" 
d="M258 -10q-59 0 -95 8.5t-65.5 34t-42 76.5t-12.5 133q0 86 12.5 139t42 79.5t63 34.5t89.5 8q60 0 97.5 -13t56.5 -44.5t25.5 -71t6.5 -104.5q0 -29 -9 -41.5t-35 -12.5h-233q1 -82 21 -104t86 -22q34 0 67 4t53 8.5t24 4.5q19 0 19 -47q0 -24 -6 -34t-21 -16
q-55 -20 -144 -20zM248 406q-50 0 -68 -21.5t-21 -96.5h168q0 70 -13 94t-66 24zM268 539q-34 0 -45.5 6t-21.5 24l-43 74q-15 25 -15 42q0 12 12 17t48 5q38 0 48.5 -7t21.5 -31l33 -74q10 -22 10 -35q0 -21 -48 -21z" />
    <glyph glyph-name="eacute" unicode="&#xe9;" horiz-adv-x="475" 
d="M258 -10q-59 0 -95 8.5t-65.5 34t-42 76.5t-12.5 133q0 86 12.5 139t42 79.5t63 34.5t89.5 8q60 0 97.5 -13t56.5 -44.5t25.5 -71t6.5 -104.5q0 -29 -9 -41.5t-35 -12.5h-233q1 -82 21 -104t86 -22q34 0 67 4t53 8.5t24 4.5q19 0 19 -47q0 -24 -6 -34t-21 -16
q-55 -20 -144 -20zM248 406q-50 0 -68 -21.5t-21 -96.5h168q0 70 -13 94t-66 24zM217 539q-48 0 -48 21q0 11 11 35l33 74q12 26 22 32t47 6q36 0 48 -6.5t12 -20.5q0 -12 -14 -37l-44 -74q-10 -18 -21.5 -24t-45.5 -6z" />
    <glyph glyph-name="ecircumflex" unicode="&#xea;" horiz-adv-x="475" 
d="M258 -10q-59 0 -95 8.5t-65.5 34t-42 76.5t-12.5 133q0 86 12.5 139t42 79.5t63 34.5t89.5 8q60 0 97.5 -13t56.5 -44.5t25.5 -71t6.5 -104.5q0 -29 -9 -41.5t-35 -12.5h-233q1 -82 21 -104t86 -22q34 0 67 4t53 8.5t24 4.5q19 0 19 -47q0 -24 -6 -34t-21 -16
q-55 -20 -144 -20zM248 406q-50 0 -68 -21.5t-21 -96.5h168q0 70 -13 94t-66 24zM246 625h-6l-39 -60q-10 -16 -22.5 -21t-39.5 -5q-38 0 -38 20q0 11 13 34l53 90q8 14 18 19t34 5h48q24 0 34 -5t18 -19l53 -90q13 -23 13 -34q0 -20 -38 -20q-27 0 -38.5 5t-22.5 21z" />
    <glyph glyph-name="edieresis" unicode="&#xeb;" horiz-adv-x="475" 
d="M258 -10q-59 0 -95 8.5t-65.5 34t-42 76.5t-12.5 133q0 86 12.5 139t42 79.5t63 34.5t89.5 8q60 0 97.5 -13t56.5 -44.5t25.5 -71t6.5 -104.5q0 -29 -9 -41.5t-35 -12.5h-233q1 -82 21 -104t86 -22q34 0 67 4t53 8.5t24 4.5q19 0 19 -47q0 -24 -6 -34t-21 -16
q-55 -20 -144 -20zM248 406q-50 0 -68 -21.5t-21 -96.5h168q0 70 -13 94t-66 24zM159 553q-38 0 -49 8t-11 35v16q0 27 10.5 35t49.5 8t49.5 -8t10.5 -35v-16q0 -27 -11 -35t-49 -8zM326 553q-38 0 -48.5 8t-10.5 35v16q0 27 10.5 35t48.5 8q39 0 49.5 -8t10.5 -35v-16
q0 -27 -11 -35t-49 -8z" />
    <glyph glyph-name="igrave" unicode="&#xec;" horiz-adv-x="222" 
d="M109 0q-35 0 -46.5 6t-11.5 28v425q0 22 11.5 28t46.5 6t46.5 -6t11.5 -28v-425q0 -22 -11.5 -28t-46.5 -6zM129 539q-24 0 -37 4t-18 9t-12 17l-43 74q-15 25 -15 42q0 12 12 17t48 5q38 0 48.5 -7t21.5 -31l33 -74q10 -22 10 -35q0 -21 -48 -21z" />
    <glyph glyph-name="iacute" unicode="&#xed;" horiz-adv-x="222" 
d="M90 539q-48 0 -48 21q0 11 11 35l33 74q12 26 22 32t47 6q36 0 48 -6.5t12 -20.5q0 -12 -14 -37l-44 -74q-7 -12 -12 -17t-18 -9t-37 -4zM109 0q-35 0 -46.5 6t-11.5 28v425q0 22 11.5 28t46.5 6t46.5 -6t11.5 -28v-425q0 -22 -11.5 -28t-46.5 -6z" />
    <glyph glyph-name="icircumflex" unicode="&#xee;" horiz-adv-x="222" 
d="M109 0q-35 0 -46.5 6t-11.5 28v425q0 22 11.5 28t46.5 6t46.5 -6t11.5 -28v-425q0 -22 -11.5 -28t-46.5 -6zM113 625h-6l-39 -60q-10 -16 -22.5 -21t-39.5 -5q-38 0 -38 20q0 11 13 34l53 90q8 14 18 19t34 5h48q24 0 34 -5t18 -19l53 -90q13 -23 13 -34q0 -20 -38 -20
q-27 0 -38.5 5t-22.5 21z" />
    <glyph glyph-name="idieresis" unicode="&#xef;" horiz-adv-x="222" 
d="M27 553q-38 0 -49 8t-11 35v16q0 27 10.5 35t49.5 8t49.5 -8t10.5 -35v-16q0 -27 -11 -35t-49 -8zM194 553q-38 0 -48.5 8t-10.5 35v16q0 27 10.5 35t48.5 8q39 0 49.5 -8t10.5 -35v-16q0 -27 -11 -35t-49 -8zM109 0q-35 0 -46.5 6t-11.5 28v425q0 22 11.5 28t46.5 6
t46.5 -6t11.5 -28v-425q0 -22 -11.5 -28t-46.5 -6z" />
    <glyph glyph-name="eth" unicode="&#xf0;" horiz-adv-x="503" 
d="M437 597q0 -13 -16 -17l-40 -11q78 -162 78 -316q0 -156 -47 -209.5t-169 -53.5q-79 0 -120 19.5t-60.5 73.5t-19.5 160q0 107 18.5 164.5t51.5 76.5t93 19q64 0 98 -29q-13 43 -25 69l-41 -10q-9 -3 -14 -3q-12 0 -17 22q-5 17 -5 26q0 13 15 17l36 9q-15 33 -15 47
q0 10 8 16t36 6q25 0 34 -4t17 -16l16 -25l52 14q7 3 13 3q10 0 17 -22q6 -21 6 -26zM247 87q59 0 76.5 29.5t17.5 127.5q0 102 -17.5 131.5t-68.5 29.5q-63 0 -78.5 -26t-15.5 -128q0 -105 15.5 -134.5t70.5 -29.5z" />
    <glyph glyph-name="ntilde" unicode="&#xf1;" horiz-adv-x="514" 
d="M119 0q-35 0 -46.5 6t-11.5 28v254q0 50 -5 89.5t-10 61t-5 27.5q0 14 10.5 20.5t42.5 6.5q30 0 40 -5.5t15 -24.5l14 -54q40 94 161 94q78 0 107.5 -32t29.5 -106v-331q0 -22 -11.5 -28t-46.5 -6t-46.5 6t-11.5 28v303q0 38 -13 52t-50 14q-58 0 -81.5 -37t-23.5 -126
v-206q0 -22 -11.5 -28t-46.5 -6zM118 598q0 24 5.5 33.5t20.5 19.5q30 19 65 19q25 0 60.5 -10t52.5 -10q20 0 42 8.5t25 8.5q9 0 12.5 -7t3.5 -32q0 -23 -5.5 -33.5t-20.5 -20.5q-30 -18 -65 -18q-25 0 -60 10t-52 10q-21 0 -43 -8.5t-25 -8.5q-9 0 -12.5 7t-3.5 32z" />
    <glyph glyph-name="ograve" unicode="&#xf2;" horiz-adv-x="503" 
d="M243 -10q-79 0 -120 19.5t-60.5 73.5t-19.5 160t22.5 162.5t67 77t126.5 20.5q80 0 120.5 -19t60 -72.5t19.5 -158.5q0 -156 -47 -209.5t-169 -53.5zM247 87q59 0 76.5 29.5t17.5 127.5q0 105 -15.5 133t-70.5 28q-60 0 -77 -28.5t-17 -125.5q0 -105 15.5 -134.5
t70.5 -29.5zM274 539q-34 0 -45.5 6t-21.5 24l-43 74q-15 25 -15 42q0 12 12 17t48 5q38 0 48.5 -7t21.5 -31l33 -74q10 -22 10 -35q0 -21 -48 -21z" />
    <glyph glyph-name="oacute" unicode="&#xf3;" horiz-adv-x="503" 
d="M243 -10q-79 0 -120 19.5t-60.5 73.5t-19.5 160t22.5 162.5t67 77t126.5 20.5q80 0 120.5 -19t60 -72.5t19.5 -158.5q0 -156 -47 -209.5t-169 -53.5zM247 87q59 0 76.5 29.5t17.5 127.5q0 105 -15.5 133t-70.5 28q-60 0 -77 -28.5t-17 -125.5q0 -105 15.5 -134.5
t70.5 -29.5zM228 539q-48 0 -48 21q0 11 11 35l33 74q12 26 22 32t47 6q36 0 48 -6.5t12 -20.5q0 -12 -14 -37l-44 -74q-7 -12 -12 -17t-18 -9t-37 -4z" />
    <glyph glyph-name="ocircumflex" unicode="&#xf4;" horiz-adv-x="503" 
d="M243 -10q-79 0 -120 19.5t-60.5 73.5t-19.5 160t22.5 162.5t67 77t126.5 20.5q80 0 120.5 -19t60 -72.5t19.5 -158.5q0 -156 -47 -209.5t-169 -53.5zM247 87q59 0 76.5 29.5t17.5 127.5q0 105 -15.5 133t-70.5 28q-60 0 -77 -28.5t-17 -125.5q0 -105 15.5 -134.5
t70.5 -29.5zM255 625h-6l-39 -60q-10 -16 -22.5 -21t-39.5 -5q-38 0 -38 20q0 11 13 34l53 90q8 14 18 19t34 5h48q24 0 34 -5t18 -19l53 -90q13 -23 13 -34q0 -20 -38 -20q-27 0 -38.5 5t-22.5 21z" />
    <glyph glyph-name="otilde" unicode="&#xf5;" horiz-adv-x="503" 
d="M243 -10q-79 0 -120 19.5t-60.5 73.5t-19.5 160t22.5 162.5t67 77t126.5 20.5q80 0 120.5 -19t60 -72.5t19.5 -158.5q0 -156 -47 -209.5t-169 -53.5zM247 87q59 0 76.5 29.5t17.5 127.5q0 105 -15.5 133t-70.5 28q-60 0 -77 -28.5t-17 -125.5q0 -105 15.5 -134.5
t70.5 -29.5zM108 598q0 24 5.5 33.5t20.5 19.5q30 19 65 19q25 0 60.5 -10t52.5 -10q20 0 42 8.5t25 8.5q9 0 12.5 -7t3.5 -32q0 -23 -5.5 -33.5t-20.5 -20.5q-30 -18 -65 -18q-25 0 -60 10t-52 10q-21 0 -43 -8.5t-25 -8.5q-9 0 -12.5 7t-3.5 32z" />
    <glyph glyph-name="odieresis" unicode="&#xf6;" horiz-adv-x="503" 
d="M243 -10q-79 0 -120 19.5t-60.5 73.5t-19.5 160t22.5 162.5t67 77t126.5 20.5q80 0 120.5 -19t60 -72.5t19.5 -158.5q0 -156 -47 -209.5t-169 -53.5zM247 87q59 0 76.5 29.5t17.5 127.5q0 105 -15.5 133t-70.5 28q-60 0 -77 -28.5t-17 -125.5q0 -105 15.5 -134.5
t70.5 -29.5zM168 553q-38 0 -49 8t-11 35v16q0 27 10.5 35t49.5 8t49.5 -8t10.5 -35v-16q0 -27 -11 -35t-49 -8zM335 553q-38 0 -48.5 8t-10.5 35v16q0 27 10.5 35t48.5 8q39 0 49.5 -8t10.5 -35v-16q0 -27 -11 -35t-49 -8z" />
    <glyph glyph-name="divide" unicode="&#xf7;" 
d="M79 269q0 31 5.5 38t25.5 7h245q20 0 25.5 -7t5.5 -38t-5.5 -38.5t-25.5 -7.5h-245q-20 0 -25.5 7.5t-5.5 38.5zM234 366q-30 0 -39.5 6.5t-9.5 27.5v31q0 21 9.5 27.5t39.5 6.5q31 0 39.5 -6t8.5 -28v-31q0 -22 -8.5 -28t-39.5 -6zM234 60q-30 0 -39.5 6t-9.5 27v31
q0 21 9.5 27.5t39.5 6.5q31 0 39.5 -6t8.5 -28v-31q0 -21 -8.5 -27t-39.5 -6z" />
    <glyph glyph-name="oslash" unicode="&#xf8;" horiz-adv-x="503" 
d="M243 -10q-79 0 -120 19.5t-60.5 73.5t-19.5 160t22.5 162.5t67 77t126.5 20.5q80 0 120.5 -19t60 -72.5t19.5 -158.5q0 -156 -47 -209.5t-169 -53.5zM247 87q59 0 76.5 29.5t17.5 127.5q0 10 -0.5 27.5t-0.5 24.5l-166 -172q15 -37 73 -37zM161 251q0 -38 1 -54l166 175
q-9 19 -25.5 26t-47.5 7q-60 0 -77 -28.5t-17 -125.5z" />
    <glyph glyph-name="ugrave" unicode="&#xf9;" horiz-adv-x="506" 
d="M186 -10q-76 0 -105.5 30t-29.5 102v337q0 22 11.5 28t46.5 6t46.5 -6t11.5 -28v-308q0 -36 12.5 -48.5t50.5 -12.5q58 0 80.5 36.5t22.5 125.5v207q0 22 11.5 28t46.5 6t46.5 -6t11.5 -28v-254q0 -51 5.5 -90t10.5 -60.5t5 -27.5q0 -15 -10.5 -21t-43.5 -6
q-30 0 -39.5 5t-14.5 25l-13 50q-41 -90 -163 -90zM269 539q-24 0 -37 4t-18 9t-12 17l-43 74q-15 25 -15 42q0 12 12 17t48 5q38 0 48.5 -7t21.5 -31l33 -74q10 -22 10 -35q0 -21 -48 -21z" />
    <glyph glyph-name="uacute" unicode="&#xfa;" horiz-adv-x="506" 
d="M186 -10q-76 0 -105.5 30t-29.5 102v337q0 22 11.5 28t46.5 6t46.5 -6t11.5 -28v-308q0 -36 12.5 -48.5t50.5 -12.5q58 0 80.5 36.5t22.5 125.5v207q0 22 11.5 28t46.5 6t46.5 -6t11.5 -28v-254q0 -51 5.5 -90t10.5 -60.5t5 -27.5q0 -15 -10.5 -21t-43.5 -6
q-30 0 -39.5 5t-14.5 25l-13 50q-41 -90 -163 -90zM231 539q-48 0 -48 21q0 11 11 35l33 74q12 26 22 32t47 6q36 0 48 -6.5t12 -20.5q0 -12 -14 -37l-44 -74q-10 -18 -21.5 -24t-45.5 -6z" />
    <glyph glyph-name="ucircumflex" unicode="&#xfb;" horiz-adv-x="506" 
d="M186 -10q-76 0 -105.5 30t-29.5 102v337q0 22 11.5 28t46.5 6t46.5 -6t11.5 -28v-308q0 -36 12.5 -48.5t50.5 -12.5q58 0 80.5 36.5t22.5 125.5v207q0 22 11.5 28t46.5 6t46.5 -6t11.5 -28v-254q0 -51 5.5 -90t10.5 -60.5t5 -27.5q0 -15 -10.5 -21t-43.5 -6
q-30 0 -39.5 5t-14.5 25l-13 50q-41 -90 -163 -90zM254 625h-6l-39 -60q-10 -16 -22.5 -21t-39.5 -5q-38 0 -38 20q0 11 13 34l53 90q8 14 18 19t34 5h48q24 0 34 -5t18 -19l53 -90q13 -23 13 -34q0 -20 -38 -20q-27 0 -38.5 5t-22.5 21z" />
    <glyph glyph-name="udieresis" unicode="&#xfc;" horiz-adv-x="506" 
d="M186 -10q-76 0 -105.5 30t-29.5 102v337q0 22 11.5 28t46.5 6t46.5 -6t11.5 -28v-308q0 -36 12.5 -48.5t50.5 -12.5q58 0 80.5 36.5t22.5 125.5v207q0 22 11.5 28t46.5 6t46.5 -6t11.5 -28v-254q0 -51 5.5 -90t10.5 -60.5t5 -27.5q0 -15 -10.5 -21t-43.5 -6
q-30 0 -39.5 5t-14.5 25l-13 50q-41 -90 -163 -90zM167 553q-38 0 -49 8t-11 35v16q0 27 10.5 35t49.5 8t49.5 -8t10.5 -35v-16q0 -27 -11 -35t-49 -8zM334 553q-38 0 -48.5 8t-10.5 35v16q0 27 10.5 35t48.5 8q39 0 49.5 -8t10.5 -35v-16q0 -27 -11 -35t-49 -8z" />
    <glyph glyph-name="yacute" unicode="&#xfd;" horiz-adv-x="471" 
d="M19 463q0 16 11.5 23t48.5 7q35 0 46.5 -5.5t16.5 -24.5l86 -366h11l90 366q5 19 16.5 24.5t45.5 5.5q37 0 49.5 -6.5t12.5 -22.5q0 -19 -16 -73l-125 -426q-14 -49 -26 -76.5t-31 -48.5t-44.5 -28.5t-65.5 -7.5q-57 0 -97 14q-15 5 -21 14.5t-6 33.5q0 47 21 47
q1 0 30.5 -4.5t59.5 -4.5q38 0 51 10.5t22 43.5l10 42q-43 0 -59 11t-25 42l-94 325q-18 61 -18 85zM218 539q-48 0 -48 21q0 11 11 35l33 74q12 26 22 32t47 6q36 0 48 -6.5t12 -20.5q0 -12 -14 -37l-44 -74q-7 -12 -12 -17t-18 -9t-37 -4z" />
    <glyph glyph-name="thorn" unicode="&#xfe;" horiz-adv-x="526" 
d="M119 -187q-35 0 -46.5 6t-11.5 27v776q0 21 11.5 27t46.5 6t46.5 -6t11.5 -27v-176q43 57 140 57q98 0 131.5 -50.5t33.5 -198.5q0 -109 -20.5 -167.5t-57.5 -77.5t-104 -19q-94 0 -123 53v-197q0 -21 -11.5 -27t-46.5 -6zM271 87q40 0 58 11.5t26.5 46t8.5 108.5
q0 98 -16 125t-69 27q-56 0 -80 -27.5t-24 -110.5v-48q0 -78 19.5 -105t76.5 -27z" />
    <glyph glyph-name="ydieresis" unicode="&#xff;" horiz-adv-x="471" 
d="M19 463q0 16 11.5 23t48.5 7q35 0 46.5 -5.5t16.5 -24.5l86 -366h11l90 366q5 19 16.5 24.5t45.5 5.5q37 0 49.5 -6.5t12.5 -22.5q0 -19 -16 -73l-125 -426q-14 -49 -26 -76.5t-31 -48.5t-44.5 -28.5t-65.5 -7.5q-57 0 -97 14q-15 5 -21 14.5t-6 33.5q0 47 21 47
q1 0 30.5 -4.5t59.5 -4.5q38 0 51 10.5t22 43.5l10 42q-43 0 -59 11t-25 42l-94 325q-18 61 -18 85zM152 553q-38 0 -49 8t-11 35v16q0 27 10.5 35t49.5 8t49.5 -8t10.5 -35v-16q0 -27 -11 -35t-49 -8zM319 553q-38 0 -48.5 8t-10.5 35v16q0 27 10.5 35t48.5 8q39 0 49.5 -8
t10.5 -35v-16q0 -27 -11 -35t-49 -8z" />
    <glyph glyph-name="Amacron" unicode="&#x100;" horiz-adv-x="532" 
d="M70 0q-35 0 -45.5 5.5t-10.5 21.5q0 7 7 35l136 506q9 35 28.5 44t80.5 9q60 0 79 -9t29 -44l137 -506q6 -24 6 -35q0 -15 -10.5 -21t-44.5 -6q-37 0 -49 6t-17 27l-36 134h-191l-33 -134q-5 -20 -17 -26.5t-49 -6.5zM259 523l-67 -267h148l-68 267h-13zM152 734
q0 30 6 39t25 9h165q19 0 25 -9t6 -39q0 -31 -5.5 -39.5t-25.5 -8.5h-165q-20 0 -25.5 8.5t-5.5 39.5z" />
    <glyph glyph-name="amacron" unicode="&#x101;" horiz-adv-x="486" 
d="M162 -10q-67 0 -98 34t-31 112q0 80 42 114t148 34h87v50q0 46 -16.5 58t-65.5 12q-43 0 -92 -8t-53 -8q-21 0 -21 46q0 25 5.5 34.5t19.5 14.5q64 20 156 20q99 0 140.5 -27.5t41.5 -112.5v-158q0 -51 5 -90t10 -60.5t5 -27.5q0 -15 -10.5 -21t-42.5 -6q-30 0 -40 5.5
t-15 24.5l-15 56q-39 -96 -160 -96zM203 83q45 0 76 26.5t31 78.5v27l-87 -3q-47 -1 -63 -14.5t-16 -49.5q0 -40 13 -52.5t46 -12.5zM124 608q0 30 6 39t25 9h165q19 0 25 -9t6 -39q0 -31 -5.5 -39.5t-25.5 -8.5h-165q-20 0 -25.5 8.5t-5.5 39.5z" />
    <glyph glyph-name="Abreve" unicode="&#x102;" horiz-adv-x="532" 
d="M70 0q-35 0 -45.5 5.5t-10.5 21.5q0 7 7 35l136 506q9 35 28.5 44t80.5 9q60 0 79 -9t29 -44l137 -506q6 -24 6 -35q0 -15 -10.5 -21t-44.5 -6q-37 0 -49 6t-17 27l-36 134h-191l-33 -134q-5 -20 -17 -26.5t-49 -6.5zM259 523l-67 -267h148l-68 267h-13zM266 671
q-70 0 -97.5 25t-27.5 87q0 21 7.5 27t33.5 6q25 0 32 -4.5t9 -21.5q2 -21 8.5 -27.5t34.5 -6.5t34.5 6.5t8.5 27.5q2 17 9 21.5t32 4.5q26 0 33.5 -6t7.5 -27q0 -62 -27.5 -87t-97.5 -25z" />
    <glyph glyph-name="abreve" unicode="&#x103;" horiz-adv-x="486" 
d="M162 -10q-67 0 -98 34t-31 112q0 80 42 114t148 34h87v50q0 46 -16.5 58t-65.5 12q-43 0 -92 -8t-53 -8q-21 0 -21 46q0 25 5.5 34.5t19.5 14.5q64 20 156 20q99 0 140.5 -27.5t41.5 -112.5v-158q0 -51 5 -90t10 -60.5t5 -27.5q0 -15 -10.5 -21t-42.5 -6q-30 0 -40 5.5
t-15 24.5l-15 56q-39 -96 -160 -96zM203 83q45 0 76 26.5t31 78.5v27l-87 -3q-47 -1 -63 -14.5t-16 -49.5q0 -40 13 -52.5t46 -12.5zM239 548q-70 0 -97.5 25t-27.5 87q0 21 7.5 27t33.5 6q25 0 32 -4.5t9 -21.5q2 -21 8.5 -27.5t34.5 -6.5t34.5 6.5t8.5 27.5q2 17 9 21.5
t32 4.5q26 0 33.5 -6t7.5 -27q0 -62 -27.5 -87t-97.5 -25z" />
    <glyph glyph-name="Aogonek" unicode="&#x104;" horiz-adv-x="532" 
d="M423 -196q-39 0 -58.5 17t-19.5 58q0 60 71 125q-14 5 -20 29l-36 134h-191l-33 -134q-5 -20 -17 -26.5t-49 -6.5q-35 0 -45.5 5.5t-10.5 21.5q0 7 7 35l136 506q9 35 28.5 44t80.5 9q60 0 79 -9t29 -44l137 -506q6 -24 6 -35v-4q-2 -18 -27 -46q-39 -42 -39 -63
q0 -18 16 -18q7 0 15.5 1t13.5 1q11 0 16 -7.5t5 -30.5q0 -24 -6 -32t-23 -14q-34 -10 -65 -10zM259 523l-67 -267h148l-68 267h-13z" />
    <glyph glyph-name="aogonek" unicode="&#x105;" horiz-adv-x="486" 
d="M355 -196q-39 0 -58.5 17t-19.5 58q0 34 16.5 63.5t53.5 65.5q-7 7 -10 22l-15 56q-39 -96 -160 -96q-67 0 -98 34t-31 112q0 80 42 114t148 34h87v50q0 46 -16.5 58t-65.5 12q-43 0 -92 -8t-53 -8q-21 0 -21 46q0 25 5.5 34.5t19.5 14.5q64 20 156 20q99 0 140.5 -27.5
t41.5 -112.5v-158q0 -51 5 -90t10 -60.5t5 -27.5q0 -18 -24 -46q-38 -43 -38 -67q0 -18 16 -18q7 0 15.5 1t13.5 1q11 0 16 -7.5t5 -30.5q0 -24 -6 -32t-23 -14q-34 -10 -65 -10zM203 83q45 0 76 26.5t31 78.5v27l-87 -3q-47 -1 -63 -14.5t-16 -49.5q0 -40 13 -52.5
t46 -12.5z" />
    <glyph glyph-name="Cacute" unicode="&#x106;" horiz-adv-x="453" 
d="M255 -7q-54 0 -87 7.5t-65 33t-47 81t-15 143.5v88q0 55 6 97.5t15.5 72t25.5 50t32.5 32t40.5 18t45 8.5t51 2q72 0 143 -19q13 -3 18.5 -13t5.5 -41q0 -45 -18 -45q-1 0 -42.5 7.5t-79.5 7.5q-32 0 -50.5 -3t-35.5 -13t-24.5 -30.5t-12 -53.5t-4.5 -85v-55
q0 -67 5.5 -104.5t23 -56t37.5 -23t61 -4.5q40 0 79.5 8t42.5 8q11 0 14.5 -9.5t3.5 -36.5q0 -29 -5.5 -39.5t-18.5 -13.5q-65 -19 -145 -19zM231 665q-48 0 -48 21q0 11 11 35l33 74q12 26 22 32t47 6q36 0 48 -6.5t12 -20.5q0 -12 -14 -37l-44 -74q-10 -17 -21.5 -23.5
t-45.5 -6.5z" />
    <glyph glyph-name="cacute" unicode="&#x107;" horiz-adv-x="430" 
d="M248 -10q-55 0 -89 8.5t-62.5 34t-41 76.5t-12.5 133q0 86 13 139.5t41.5 79.5t61 34t85.5 8q64 0 128 -18q15 -5 20.5 -15t5.5 -35q0 -47 -20 -47q-2 0 -46.5 8t-72.5 8q-41 0 -60 -9t-29.5 -41t-10.5 -101q0 -108 17.5 -135.5t85.5 -27.5q38 0 77.5 8.5t40.5 8.5
q19 0 19 -47q0 -24 -6 -34t-21 -16q-55 -20 -124 -20zM211 539q-48 0 -48 21q0 11 11 35l33 74q12 26 22 32t47 6q36 0 48 -6.5t12 -20.5q0 -12 -14 -37l-44 -74q-10 -18 -21.5 -24t-45.5 -6z" />
    <glyph glyph-name="Ccircumflex" unicode="&#x108;" horiz-adv-x="453" 
d="M255 -7q-54 0 -87 7.5t-65 33t-47 81t-15 143.5v88q0 55 6 97.5t15.5 72t25.5 50t32.5 32t40.5 18t45 8.5t51 2q72 0 143 -19q13 -3 18.5 -13t5.5 -41q0 -45 -18 -45q-1 0 -42.5 7.5t-79.5 7.5q-32 0 -50.5 -3t-35.5 -13t-24.5 -30.5t-12 -53.5t-4.5 -85v-55
q0 -67 5.5 -104.5t23 -56t37.5 -23t61 -4.5q40 0 79.5 8t42.5 8q11 0 14.5 -9.5t3.5 -36.5q0 -29 -5.5 -39.5t-18.5 -13.5q-65 -19 -145 -19zM249 751h-6l-39 -60q-10 -16 -22.5 -21t-39.5 -5q-38 0 -38 20q0 11 13 34l53 90q8 14 18 19t34 5h48q24 0 34 -5t18 -19l53 -90
q13 -23 13 -34q0 -20 -38 -20q-27 0 -38.5 5t-22.5 21z" />
    <glyph glyph-name="ccircumflex" unicode="&#x109;" horiz-adv-x="430" 
d="M248 -10q-55 0 -89 8.5t-62.5 34t-41 76.5t-12.5 133q0 86 13 139.5t41.5 79.5t61 34t85.5 8q64 0 128 -18q15 -5 20.5 -15t5.5 -35q0 -47 -20 -47q-2 0 -46.5 8t-72.5 8q-41 0 -60 -9t-29.5 -41t-10.5 -101q0 -108 17.5 -135.5t85.5 -27.5q38 0 77.5 8.5t40.5 8.5
q19 0 19 -47q0 -24 -6 -34t-21 -16q-55 -20 -124 -20zM240 625h-6l-39 -60q-10 -16 -22.5 -21t-39.5 -5q-38 0 -38 20q0 11 13 34l53 90q8 14 18 19t34 5h48q24 0 34 -5t18 -19l53 -90q13 -23 13 -34q0 -20 -38 -20q-27 0 -38.5 5t-22.5 21z" />
    <glyph glyph-name="Cdotaccent" unicode="&#x10a;" horiz-adv-x="453" 
d="M255 -7q-54 0 -87 7.5t-65 33t-47 81t-15 143.5v88q0 55 6 97.5t15.5 72t25.5 50t32.5 32t40.5 18t45 8.5t51 2q72 0 143 -19q13 -3 18.5 -13t5.5 -41q0 -45 -18 -45q-1 0 -42.5 7.5t-79.5 7.5q-32 0 -50.5 -3t-35.5 -13t-24.5 -30.5t-12 -53.5t-4.5 -85v-55
q0 -67 5.5 -104.5t23 -56t37.5 -23t61 -4.5q40 0 79.5 8t42.5 8q11 0 14.5 -9.5t3.5 -36.5q0 -29 -5.5 -39.5t-18.5 -13.5q-65 -19 -145 -19zM245 679q-41 0 -52 8t-11 35v16q0 27 11 35t52 8q42 0 52.5 -7.5t10.5 -35.5v-16q0 -27 -10.5 -35t-52.5 -8z" />
    <glyph glyph-name="cdotaccent" unicode="&#x10b;" horiz-adv-x="430" 
d="M248 -10q-55 0 -89 8.5t-62.5 34t-41 76.5t-12.5 133q0 86 13 139.5t41.5 79.5t61 34t85.5 8q64 0 128 -18q15 -5 20.5 -15t5.5 -35q0 -47 -20 -47q-2 0 -46.5 8t-72.5 8q-41 0 -60 -9t-29.5 -41t-10.5 -101q0 -108 17.5 -135.5t85.5 -27.5q38 0 77.5 8.5t40.5 8.5
q19 0 19 -47q0 -24 -6 -34t-21 -16q-55 -20 -124 -20zM236 553q-41 0 -52 8t-11 35v16q0 28 11 35.5t52 7.5q42 0 52.5 -7.5t10.5 -35.5v-16q0 -27 -10.5 -35t-52.5 -8z" />
    <glyph glyph-name="Ccaron" unicode="&#x10c;" horiz-adv-x="453" 
d="M255 -7q-54 0 -87 7.5t-65 33t-47 81t-15 143.5v88q0 55 6 97.5t15.5 72t25.5 50t32.5 32t40.5 18t45 8.5t51 2q72 0 143 -19q13 -3 18.5 -13t5.5 -41q0 -45 -18 -45q-1 0 -42.5 7.5t-79.5 7.5q-32 0 -50.5 -3t-35.5 -13t-24.5 -30.5t-12 -53.5t-4.5 -85v-55
q0 -67 5.5 -104.5t23 -56t37.5 -23t61 -4.5q40 0 79.5 8t42.5 8q11 0 14.5 -9.5t3.5 -36.5q0 -29 -5.5 -39.5t-18.5 -13.5q-65 -19 -145 -19zM92 813q0 20 39 20q27 0 38.5 -4.5t22.5 -21.5l40 -59h6l39 59q11 16 23 21t39 5q38 0 38 -20q0 -11 -13 -33l-53 -91
q-7 -14 -17.5 -19t-34.5 -5h-48q-24 0 -34.5 5t-18.5 19l-52 91q-14 24 -14 33z" />
    <glyph glyph-name="ccaron" unicode="&#x10d;" horiz-adv-x="430" 
d="M248 -10q-55 0 -89 8.5t-62.5 34t-41 76.5t-12.5 133q0 86 13 139.5t41.5 79.5t61 34t85.5 8q64 0 128 -18q15 -5 20.5 -15t5.5 -35q0 -47 -20 -47q-2 0 -46.5 8t-72.5 8q-41 0 -60 -9t-29.5 -41t-10.5 -101q0 -108 17.5 -135.5t85.5 -27.5q38 0 77.5 8.5t40.5 8.5
q19 0 19 -47q0 -24 -6 -34t-21 -16q-55 -20 -124 -20zM94 687q0 20 39 20q27 0 38.5 -4.5t22.5 -21.5l40 -59h6l39 59q11 16 23 21t39 5q38 0 38 -20q0 -11 -13 -33l-53 -91q-7 -14 -17.5 -19t-34.5 -5h-48q-24 0 -34.5 5t-18.5 19l-52 91q-14 24 -14 33z" />
    <glyph glyph-name="Dcaron" unicode="&#x10e;" horiz-adv-x="528" 
d="M249 95q53 0 76 11t34.5 50.5t11.5 126.5v69q0 112 -26 144.5t-106 32.5q-36 0 -70 -4v-426q28 -4 80 -4zM249 -7q-96 0 -160 7q-22 3 -29 10.5t-7 26.5v542q0 20 8 28.5t27 10.5q58 8 146 8q46 0 76 -2.5t62 -11.5t50.5 -27t34.5 -47.5t23 -74.5t7 -107v-73
q0 -79 -12 -133.5t-30.5 -85t-52 -47t-64 -20.5t-79.5 -4zM115 813q0 20 39 20q27 0 38.5 -4.5t22.5 -21.5l40 -59h6l39 59q11 16 23 21t39 5q38 0 38 -20q0 -11 -13 -33l-53 -91q-7 -14 -17.5 -19t-34.5 -5h-48q-24 0 -34.5 5t-18.5 19l-52 91q-14 24 -14 33z" />
    <glyph glyph-name="dcaron" unicode="&#x10f;" horiz-adv-x="662" 
d="M209 -10q-99 0 -132.5 50t-33.5 199q0 110 20.5 168t57.5 77t105 19q93 0 122 -56v175q0 21 11.5 27t46.5 6t46.5 -6t11.5 -27v-417q0 -51 5 -90t10.5 -60.5t5.5 -27.5q0 -15 -10.5 -21t-43.5 -6q-30 0 -39.5 5t-14.5 25l-13 47q-35 -87 -155 -87zM247 87q56 0 79.5 26.5
t23.5 105.5v54q0 79 -19 105.5t-77 26.5q-40 0 -58 -11t-26.5 -45.5t-8.5 -108.5q0 -98 16 -125.5t70 -27.5zM584 655q38 0 48.5 -7.5t10.5 -34.5v-27q0 -43 -17 -91l-16 -49q-11 -26 -22 -33.5t-41 -7.5q-35 0 -35 20q0 8 6.5 53.5t6.5 72.5v62q0 26 11 34t48 8z" />
    <glyph glyph-name="Dcroat" unicode="&#x110;" horiz-adv-x="528" 
d="M249 -7q-96 0 -160 7q-22 3 -29 10.5t-7 26.5v226h-22q-19 0 -25 9.5t-6 41.5t6 41.5t25 9.5h22v214q0 20 8 28.5t27 10.5q58 8 146 8q46 0 76 -2.5t62 -11.5t50.5 -27t34.5 -47.5t23 -74.5t7 -107v-73q0 -79 -12 -133.5t-30.5 -85t-52 -47t-64 -20.5t-79.5 -4zM249 95
q53 0 76 11t34.5 50.5t11.5 126.5v69q0 112 -26 144.5t-106 32.5q-36 0 -70 -4v-162h58q19 0 25 -9.5t6 -39.5q0 -31 -6 -40t-25 -9h-58v-166q28 -4 80 -4z" />
    <glyph glyph-name="dcroat" unicode="&#x111;" horiz-adv-x="521" 
d="M209 -10q-99 0 -132.5 50t-33.5 199q0 110 20.5 168t57.5 77t105 19q93 0 122 -56v79h-28q-17 0 -22 6t-5 27t5 27.5t22 6.5h28v29q0 21 11.5 27t46.5 6t46.5 -6t11.5 -27v-29h37q16 0 21 -6.5t5 -28.5q0 -21 -5 -28t-21 -7h-37v-318q0 -51 5 -90t10.5 -60.5t5.5 -27.5
q0 -15 -10.5 -21t-43.5 -6q-30 0 -39.5 5t-14.5 25l-13 47q-35 -87 -155 -87zM247 87q56 0 79.5 26.5t23.5 105.5v54q0 79 -19 105.5t-77 26.5q-40 0 -58 -11t-26.5 -45.5t-8.5 -108.5q0 -98 16 -125.5t70 -27.5z" />
    <glyph glyph-name="Emacron" unicode="&#x112;" horiz-adv-x="455" 
d="M431 51q0 -30 -6.5 -40.5t-24.5 -10.5h-311q-21 0 -28.5 6t-7.5 25v559q0 19 7.5 25t28.5 6h301q18 0 24.5 -10.5t6.5 -41.5t-6.5 -41t-24.5 -10h-221v-142h160q20 0 25.5 -9.5t5.5 -40.5q0 -32 -6 -41.5t-25 -9.5h-160v-172h231q18 0 24.5 -10.5t6.5 -41.5zM127 734
q0 30 6 39t25 9h165q19 0 25 -9t6 -39q0 -31 -5.5 -39.5t-25.5 -8.5h-165q-20 0 -25.5 8.5t-5.5 39.5z" />
    <glyph glyph-name="emacron" unicode="&#x113;" horiz-adv-x="475" 
d="M258 -10q-59 0 -95 8.5t-65.5 34t-42 76.5t-12.5 133q0 86 12.5 139t42 79.5t63 34.5t89.5 8q60 0 97.5 -13t56.5 -44.5t25.5 -71t6.5 -104.5q0 -29 -9 -41.5t-35 -12.5h-233q1 -82 21 -104t86 -22q34 0 67 4t53 8.5t24 4.5q19 0 19 -47q0 -24 -6 -34t-21 -16
q-55 -20 -144 -20zM248 406q-50 0 -68 -21.5t-21 -96.5h168q0 70 -13 94t-66 24zM129 608q0 30 6 39t25 9h165q19 0 25 -9t6 -39q0 -31 -5.5 -39.5t-25.5 -8.5h-165q-20 0 -25.5 8.5t-5.5 39.5z" />
    <glyph glyph-name="Ebreve" unicode="&#x114;" horiz-adv-x="455" 
d="M431 51q0 -30 -6.5 -40.5t-24.5 -10.5h-311q-21 0 -28.5 6t-7.5 25v559q0 19 7.5 25t28.5 6h301q18 0 24.5 -10.5t6.5 -41.5t-6.5 -41t-24.5 -10h-221v-142h160q20 0 25.5 -9.5t5.5 -40.5q0 -32 -6 -41.5t-25 -9.5h-160v-172h231q18 0 24.5 -10.5t6.5 -41.5zM240 676
q-70 0 -97.5 25t-27.5 87q0 21 7.5 27t33.5 6q25 0 32 -4.5t9 -21.5q2 -21 8.5 -27.5t34.5 -6.5t34.5 6.5t8.5 27.5q2 17 9 21.5t32 4.5q26 0 33.5 -6t7.5 -27q0 -62 -27.5 -87t-97.5 -25z" />
    <glyph glyph-name="ebreve" unicode="&#x115;" horiz-adv-x="475" 
d="M258 -10q-59 0 -95 8.5t-65.5 34t-42 76.5t-12.5 133q0 86 12.5 139t42 79.5t63 34.5t89.5 8q60 0 97.5 -13t56.5 -44.5t25.5 -71t6.5 -104.5q0 -29 -9 -41.5t-35 -12.5h-233q1 -82 21 -104t86 -22q34 0 67 4t53 8.5t24 4.5q19 0 19 -47q0 -24 -6 -34t-21 -16
q-55 -20 -144 -20zM248 406q-50 0 -68 -21.5t-21 -96.5h168q0 70 -13 94t-66 24zM242 548q-70 0 -97.5 25t-27.5 87q0 21 7.5 27t33.5 6q25 0 32 -4.5t9 -21.5q2 -21 8.5 -27.5t34.5 -6.5t34.5 6.5t8.5 27.5q2 17 9 21.5t32 4.5q26 0 33.5 -6t7.5 -27q0 -62 -27.5 -87
t-97.5 -25z" />
    <glyph glyph-name="Edotaccent" unicode="&#x116;" horiz-adv-x="455" 
d="M431 51q0 -30 -6.5 -40.5t-24.5 -10.5h-311q-21 0 -28.5 6t-7.5 25v559q0 19 7.5 25t28.5 6h301q18 0 24.5 -10.5t6.5 -41.5t-6.5 -41t-24.5 -10h-221v-142h160q20 0 25.5 -9.5t5.5 -40.5q0 -32 -6 -41.5t-25 -9.5h-160v-172h231q18 0 24.5 -10.5t6.5 -41.5zM240 682
q-41 0 -52 8t-11 35v16q0 27 11 35t52 8q42 0 52.5 -7.5t10.5 -35.5v-16q0 -27 -10.5 -35t-52.5 -8z" />
    <glyph glyph-name="edotaccent" unicode="&#x117;" horiz-adv-x="475" 
d="M258 -10q-59 0 -95 8.5t-65.5 34t-42 76.5t-12.5 133q0 86 12.5 139t42 79.5t63 34.5t89.5 8q60 0 97.5 -13t56.5 -44.5t25.5 -71t6.5 -104.5q0 -29 -9 -41.5t-35 -12.5h-233q1 -82 21 -104t86 -22q34 0 67 4t53 8.5t24 4.5q19 0 19 -47q0 -24 -6 -34t-21 -16
q-55 -20 -144 -20zM248 406q-50 0 -68 -21.5t-21 -96.5h168q0 70 -13 94t-66 24zM242 553q-41 0 -52 8t-11 35v16q0 28 11 35.5t52 7.5q42 0 52.5 -7.5t10.5 -35.5v-16q0 -27 -10.5 -35t-52.5 -8z" />
    <glyph glyph-name="Eogonek" unicode="&#x118;" horiz-adv-x="455" 
d="M360 326q0 -32 -6 -41.5t-25 -9.5h-160v-172h231q18 0 24.5 -10.5t6.5 -40.5q0 -24 -5 -39t-23 -35q-38 -44 -38 -64q0 -18 16 -18q7 0 15.5 1t13.5 1q11 0 16 -7.5t5 -30.5q0 -24 -6 -32t-23 -14q-34 -10 -65 -10q-40 0 -59 17t-19 58q0 58 65 121h-235q-21 0 -28.5 6
t-7.5 25v559q0 19 7.5 25t28.5 6h301q18 0 24.5 -10.5t6.5 -41.5t-6.5 -41t-24.5 -10h-221v-142h160q20 0 25.5 -9.5t5.5 -40.5z" />
    <glyph glyph-name="eogonek" unicode="&#x119;" horiz-adv-x="475" 
d="M334 -196q-39 0 -58.5 17t-19.5 58q0 55 54 114q-27 -3 -52 -3q-59 0 -95 8.5t-65.5 34t-42 76.5t-12.5 133q0 86 12.5 139t42 79.5t63 34.5t89.5 8q60 0 97.5 -13t56.5 -44.5t25.5 -71t6.5 -104.5q0 -29 -9 -41.5t-35 -12.5h-233q1 -82 21 -104t86 -22q34 0 67 4t53 8.5
t24 4.5q19 0 19 -47q0 -24 -6.5 -39t-27.5 -43q-32 -41 -32 -64q0 -11 3 -14.5t12 -3.5q8 0 16 1t13 1q12 0 17 -7.5t5 -30.5q0 -24 -6 -32t-23 -14q-34 -10 -66 -10zM248 406q-50 0 -68 -21.5t-21 -96.5h168q0 70 -13 94t-66 24z" />
    <glyph glyph-name="Ecaron" unicode="&#x11a;" horiz-adv-x="455" 
d="M431 51q0 -30 -6.5 -40.5t-24.5 -10.5h-311q-21 0 -28.5 6t-7.5 25v559q0 19 7.5 25t28.5 6h301q18 0 24.5 -10.5t6.5 -41.5t-6.5 -41t-24.5 -10h-221v-142h160q20 0 25.5 -9.5t5.5 -40.5q0 -32 -6 -41.5t-25 -9.5h-160v-172h231q18 0 24.5 -10.5t6.5 -41.5zM98 813
q0 20 39 20q27 0 38.5 -4.5t22.5 -21.5l40 -59h6l39 59q11 16 23 21t39 5q38 0 38 -20q0 -11 -13 -33l-53 -91q-7 -14 -17.5 -19t-34.5 -5h-48q-24 0 -34.5 5t-18.5 19l-52 91q-14 24 -14 33z" />
    <glyph glyph-name="ecaron" unicode="&#x11b;" horiz-adv-x="475" 
d="M258 -10q-59 0 -95 8.5t-65.5 34t-42 76.5t-12.5 133q0 86 12.5 139t42 79.5t63 34.5t89.5 8q60 0 97.5 -13t56.5 -44.5t25.5 -71t6.5 -104.5q0 -29 -9 -41.5t-35 -12.5h-233q1 -82 21 -104t86 -22q34 0 67 4t53 8.5t24 4.5q19 0 19 -47q0 -24 -6 -34t-21 -16
q-55 -20 -144 -20zM248 406q-50 0 -68 -21.5t-21 -96.5h168q0 70 -13 94t-66 24zM100 687q0 20 39 20q27 0 38.5 -4.5t22.5 -21.5l40 -59h6l39 59q11 16 23 21t39 5q38 0 38 -20q0 -11 -13 -33l-53 -91q-7 -14 -17.5 -19t-34.5 -5h-48q-24 0 -34.5 5t-18.5 19l-52 91
q-14 24 -14 33z" />
    <glyph glyph-name="Gcircumflex" unicode="&#x11c;" horiz-adv-x="497" 
d="M254 -7q-35 0 -59.5 3t-51 11.5t-44 26.5t-32 46.5t-21.5 73t-7 104.5v88q0 64 7 111t22 77t32.5 49t45 28t52 12t60.5 3q81 0 152 -19q13 -3 18.5 -13t5.5 -41q0 -45 -18 -45q-2 0 -49 7.5t-85 7.5q-53 0 -77 -10.5t-37 -50t-13 -124.5v-55q0 -65 6 -103.5t21.5 -57
t32.5 -23t49 -4.5q48 0 68.5 18.5t20.5 72.5v64h-70q-16 0 -21 10t-5 41q0 28 5 37t21 9h131q25 0 33 -7t8 -24v-156q0 -92 -46.5 -129.5t-154.5 -37.5zM245 751h-6l-39 -60q-10 -16 -22.5 -21t-39.5 -5q-38 0 -38 20q0 11 13 34l53 90q8 14 18 19t34 5h48q24 0 34 -5
t18 -19l53 -90q13 -23 13 -34q0 -20 -38 -20q-27 0 -38.5 5t-22.5 21z" />
    <glyph glyph-name="gcircumflex" unicode="&#x11d;" horiz-adv-x="517" 
d="M43 250q0 79 10.5 129t35 77t57.5 37t85 10q53 0 85 -16.5t49 -55.5l8 32q5 20 14.5 25t39.5 5q32 0 43 -6.5t11 -20.5q0 -6 -5.5 -27.5t-10.5 -61t-5 -89.5v-243q0 -75 -16.5 -124t-50 -74t-72 -34t-94.5 -9q-80 0 -139 14q-14 3 -20.5 14t-6.5 37q0 47 21 47
q4 0 23.5 -3t50.5 -5.5t64 -2.5q77 0 100.5 28.5t23.5 110.5v6q-37 -60 -142 -60q-95 0 -127 52t-32 208zM161 240q0 -98 16 -125.5t70 -27.5q56 0 79.5 26.5t23.5 105.5v54q0 79 -19 105.5t-77 26.5q-40 0 -58 -11t-26.5 -45.5t-8.5 -108.5zM263 625h-6l-39 -60
q-10 -16 -22.5 -21t-39.5 -5q-38 0 -38 20q0 11 13 34l53 90q8 14 18 19t34 5h48q24 0 34 -5t18 -19l53 -90q13 -23 13 -34q0 -20 -38 -20q-27 0 -38.5 5t-22.5 21z" />
    <glyph glyph-name="Gbreve" unicode="&#x11e;" horiz-adv-x="497" 
d="M254 -7q-35 0 -59.5 3t-51 11.5t-44 26.5t-32 46.5t-21.5 73t-7 104.5v88q0 64 7 111t22 77t32.5 49t45 28t52 12t60.5 3q81 0 152 -19q13 -3 18.5 -13t5.5 -41q0 -45 -18 -45q-2 0 -49 7.5t-85 7.5q-53 0 -77 -10.5t-37 -50t-13 -124.5v-55q0 -65 6 -103.5t21.5 -57
t32.5 -23t49 -4.5q48 0 68.5 18.5t20.5 72.5v64h-70q-16 0 -21 10t-5 41q0 28 5 37t21 9h131q25 0 33 -7t8 -24v-156q0 -92 -46.5 -129.5t-154.5 -37.5zM241 674q-70 0 -97.5 25t-27.5 87q0 21 7.5 27t33.5 6q25 0 32 -4.5t9 -21.5q2 -21 8.5 -27.5t34.5 -6.5t34.5 6.5
t8.5 27.5q2 17 9 21.5t32 4.5q26 0 33.5 -6t7.5 -27q0 -62 -27.5 -87t-97.5 -25z" />
    <glyph glyph-name="gbreve" unicode="&#x11f;" horiz-adv-x="517" 
d="M43 250q0 79 10.5 129t35 77t57.5 37t85 10q53 0 85 -16.5t49 -55.5l8 32q5 20 14.5 25t39.5 5q32 0 43 -6.5t11 -20.5q0 -6 -5.5 -27.5t-10.5 -61t-5 -89.5v-243q0 -75 -16.5 -124t-50 -74t-72 -34t-94.5 -9q-80 0 -139 14q-14 3 -20.5 14t-6.5 37q0 47 21 47
q4 0 23.5 -3t50.5 -5.5t64 -2.5q77 0 100.5 28.5t23.5 110.5v6q-37 -60 -142 -60q-95 0 -127 52t-32 208zM161 240q0 -98 16 -125.5t70 -27.5q56 0 79.5 26.5t23.5 105.5v54q0 79 -19 105.5t-77 26.5q-40 0 -58 -11t-26.5 -45.5t-8.5 -108.5zM259 548q-70 0 -97.5 25
t-27.5 87q0 21 7.5 27t33.5 6q25 0 32 -4.5t9 -21.5q2 -21 8.5 -27.5t34.5 -6.5t34.5 6.5t8.5 27.5q2 17 9 21.5t32 4.5q26 0 33.5 -6t7.5 -27q0 -62 -27.5 -87t-97.5 -25z" />
    <glyph glyph-name="Gdotaccent" unicode="&#x120;" horiz-adv-x="497" 
d="M254 -7q-35 0 -59.5 3t-51 11.5t-44 26.5t-32 46.5t-21.5 73t-7 104.5v88q0 64 7 111t22 77t32.5 49t45 28t52 12t60.5 3q81 0 152 -19q13 -3 18.5 -13t5.5 -41q0 -45 -18 -45q-2 0 -49 7.5t-85 7.5q-53 0 -77 -10.5t-37 -50t-13 -124.5v-55q0 -65 6 -103.5t21.5 -57
t32.5 -23t49 -4.5q48 0 68.5 18.5t20.5 72.5v64h-70q-16 0 -21 10t-5 41q0 28 5 37t21 9h131q25 0 33 -7t8 -24v-156q0 -92 -46.5 -129.5t-154.5 -37.5zM241 682q-41 0 -52 8t-11 35v16q0 27 11 35t52 8q42 0 52.5 -7.5t10.5 -35.5v-16q0 -27 -10.5 -35t-52.5 -8z" />
    <glyph glyph-name="gdotaccent" unicode="&#x121;" horiz-adv-x="517" 
d="M43 250q0 79 10.5 129t35 77t57.5 37t85 10q53 0 85 -16.5t49 -55.5l8 32q5 20 14.5 25t39.5 5q32 0 43 -6.5t11 -20.5q0 -6 -5.5 -27.5t-10.5 -61t-5 -89.5v-243q0 -75 -16.5 -124t-50 -74t-72 -34t-94.5 -9q-80 0 -139 14q-14 3 -20.5 14t-6.5 37q0 47 21 47
q4 0 23.5 -3t50.5 -5.5t64 -2.5q77 0 100.5 28.5t23.5 110.5v6q-37 -60 -142 -60q-95 0 -127 52t-32 208zM161 240q0 -98 16 -125.5t70 -27.5q56 0 79.5 26.5t23.5 105.5v54q0 79 -19 105.5t-77 26.5q-40 0 -58 -11t-26.5 -45.5t-8.5 -108.5zM259 553q-41 0 -52 8t-11 35v16
q0 28 11 35.5t52 7.5q42 0 52.5 -7.5t10.5 -35.5v-16q0 -27 -10.5 -35t-52.5 -8z" />
    <glyph glyph-name="Gcommaaccent" unicode="&#x122;" horiz-adv-x="497" 
d="M254 -7q-35 0 -59.5 3t-51 11.5t-44 26.5t-32 46.5t-21.5 73t-7 104.5v88q0 64 7 111t22 77t32.5 49t45 28t52 12t60.5 3q81 0 152 -19q13 -3 18.5 -13t5.5 -41q0 -45 -18 -45q-2 0 -49 7.5t-85 7.5q-53 0 -77 -10.5t-37 -50t-13 -124.5v-55q0 -65 6 -103.5t21.5 -57
t32.5 -23t49 -4.5q48 0 68.5 18.5t20.5 72.5v64h-70q-16 0 -21 10t-5 41q0 28 5 37t21 9h131q25 0 33 -7t8 -24v-156q0 -92 -46.5 -129.5t-154.5 -37.5zM224 -239q-21 0 -28.5 5t-7.5 16q0 7 5.5 50.5t5.5 76.5q0 28 10.5 36.5t48.5 8.5q34 0 46.5 -7t12.5 -27
q0 -46 -13 -73l-23 -58q-8 -17 -18 -22.5t-39 -5.5z" />
    <glyph glyph-name="gcommaaccent" unicode="&#x123;" horiz-adv-x="517" 
d="M43 250q0 79 10.5 129t35 77t57.5 37t85 10q53 0 85 -16.5t49 -55.5l8 32q5 20 14.5 25t39.5 5q32 0 43 -6.5t11 -20.5q0 -6 -5.5 -27.5t-10.5 -61t-5 -89.5v-243q0 -75 -16.5 -124t-50 -74t-72 -34t-94.5 -9q-80 0 -139 14q-14 3 -20.5 14t-6.5 37q0 47 21 47
q4 0 23.5 -3t50.5 -5.5t64 -2.5q77 0 100.5 28.5t23.5 110.5v6q-37 -60 -142 -60q-95 0 -127 52t-32 208zM161 240q0 -98 16 -125.5t70 -27.5q56 0 79.5 26.5t23.5 105.5v54q0 79 -19 105.5t-77 26.5q-40 0 -58 -11t-26.5 -45.5t-8.5 -108.5zM297 726q21 0 28.5 -5t7.5 -16
q0 -7 -5.5 -50.5t-5.5 -76.5q0 -28 -10.5 -36.5t-48.5 -8.5q-34 0 -46.5 7t-12.5 27q0 46 13 73l23 58q8 17 18 22.5t39 5.5z" />
    <glyph glyph-name="Hcircumflex" unicode="&#x124;" horiz-adv-x="531" 
d="M169 366h193v221q0 21 11.5 27.5t46.5 6.5t46.5 -6.5t11.5 -27.5v-553q0 -21 -11.5 -27.5t-46.5 -6.5t-46.5 6.5t-11.5 27.5v234h-193v-234q0 -21 -11.5 -27.5t-46.5 -6.5t-46.5 6.5t-11.5 27.5v553q0 21 11.5 27.5t46.5 6.5t46.5 -6.5t11.5 -27.5v-221zM268 751h-6
l-39 -60q-10 -16 -22.5 -21t-39.5 -5q-38 0 -38 20q0 11 13 34l53 90q8 14 18 19t34 5h48q24 0 34 -5t18 -19l53 -90q13 -23 13 -34q0 -20 -38 -20q-27 0 -38.5 5t-22.5 21z" />
    <glyph glyph-name="hcircumflex" unicode="&#x125;" horiz-adv-x="504" 
d="M109 0q-35 0 -46.5 6t-11.5 28v588q0 21 11.5 27t46.5 6t46.5 -6t11.5 -27v-185q39 66 146 66q78 0 107.5 -32t29.5 -106v-331q0 -22 -11.5 -28t-46.5 -6t-46.5 6t-11.5 28v303q0 38 -13 52t-50 14q-58 0 -81 -37t-23 -126v-206q0 -22 -11.5 -28t-46.5 -6zM268 759h-6
l-39 -60q-10 -16 -22.5 -21t-39.5 -5q-38 0 -38 20q0 11 13 34l53 90q8 14 18 19t34 5h48q24 0 34 -5t18 -19l53 -90q13 -23 13 -34q0 -20 -38 -20q-27 0 -38.5 5t-22.5 21z" />
    <glyph glyph-name="Hbar" unicode="&#x126;" horiz-adv-x="531" 
d="M6 487q0 27 5.5 35t22.5 8h19v57q0 21 11.5 27.5t46.5 6.5t46.5 -6.5t11.5 -27.5v-57h193v57q0 21 11.5 27.5t46.5 6.5t46.5 -6.5t11.5 -27.5v-57h17q17 0 22.5 -8t5.5 -35t-5.5 -34.5t-22.5 -7.5h-17v-411q0 -21 -11.5 -27.5t-46.5 -6.5t-46.5 6.5t-11.5 27.5v234h-193
v-234q0 -21 -11.5 -27.5t-46.5 -6.5t-46.5 6.5t-11.5 27.5v411h-19q-17 0 -22.5 7.5t-5.5 34.5zM169 366h193v79h-193v-79z" />
    <glyph glyph-name="hbar" unicode="&#x127;" horiz-adv-x="504" 
d="M109 0q-35 0 -46.5 6t-11.5 28v489h-32q-16 0 -21 7t-5 28t5 28t21 7h32v29q0 21 11.5 27t46.5 6t46.5 -6t11.5 -27v-29h36q17 0 22 -6.5t5 -27.5t-5 -27t-22 -6h-36v-89q39 66 146 66q78 0 107.5 -32t29.5 -106v-331q0 -22 -11.5 -28t-46.5 -6t-46.5 6t-11.5 28v303
q0 38 -13 52t-50 14q-58 0 -81 -37t-23 -126v-206q0 -22 -11.5 -28t-46.5 -6z" />
    <glyph glyph-name="Itilde" unicode="&#x128;" horiz-adv-x="223" 
d="M111 0q-35 0 -46.5 6.5t-11.5 27.5v553q0 21 11.5 27.5t46.5 6.5t46.5 -6.5t11.5 -27.5v-553q0 -21 -11.5 -27.5t-46.5 -6.5zM-32 718q0 24 5.5 33.5t20.5 19.5q30 19 65 19q25 0 60.5 -10t52.5 -10q20 0 42 8.5t25 8.5q9 0 12.5 -7t3.5 -32q0 -23 -5.5 -33.5
t-20.5 -20.5q-30 -18 -65 -18q-25 0 -60 10t-52 10q-21 0 -43 -8.5t-25 -8.5q-9 0 -12.5 7t-3.5 32z" />
    <glyph glyph-name="itilde" unicode="&#x129;" horiz-adv-x="222" 
d="M-33 598q0 24 5.5 33.5t20.5 19.5q30 19 65 19q25 0 60.5 -10t52.5 -10q20 0 42 8.5t25 8.5q9 0 12.5 -7t3.5 -32q0 -23 -5.5 -33.5t-20.5 -20.5q-30 -18 -65 -18q-25 0 -60 10t-52 10q-21 0 -43 -8.5t-25 -8.5q-9 0 -12.5 7t-3.5 32zM109 0q-35 0 -46.5 6t-11.5 28v425
q0 22 11.5 28t46.5 6t46.5 -6t11.5 -28v-425q0 -22 -11.5 -28t-46.5 -6z" />
    <glyph glyph-name="Imacron" unicode="&#x12a;" horiz-adv-x="223" 
d="M111 0q-35 0 -46.5 6.5t-11.5 27.5v553q0 21 11.5 27.5t46.5 6.5t46.5 -6.5t11.5 -27.5v-553q0 -21 -11.5 -27.5t-46.5 -6.5zM-2 734q0 30 6 39t25 9h165q19 0 25 -9t6 -39q0 -31 -5.5 -39.5t-25.5 -8.5h-165q-20 0 -25.5 8.5t-5.5 39.5z" />
    <glyph glyph-name="imacron" unicode="&#x12b;" horiz-adv-x="222" 
d="M-3 608q0 30 6 39t25 9h165q19 0 25 -9t6 -39q0 -31 -5.5 -39.5t-25.5 -8.5h-165q-20 0 -25.5 8.5t-5.5 39.5zM109 0q-35 0 -46.5 6t-11.5 28v425q0 22 11.5 28t46.5 6t46.5 -6t11.5 -28v-425q0 -22 -11.5 -28t-46.5 -6z" />
    <glyph glyph-name="Ibreve" unicode="&#x12c;" horiz-adv-x="223" 
d="M111 0q-35 0 -46.5 6.5t-11.5 27.5v553q0 21 11.5 27.5t46.5 6.5t46.5 -6.5t11.5 -27.5v-553q0 -21 -11.5 -27.5t-46.5 -6.5zM111 671q-70 0 -97.5 25t-27.5 87q0 21 7.5 27t33.5 6q25 0 32 -4.5t9 -21.5q2 -21 8.5 -27.5t34.5 -6.5t34.5 6.5t8.5 27.5q2 17 9 21.5
t32 4.5q26 0 33.5 -6t7.5 -27q0 -62 -27.5 -87t-97.5 -25z" />
    <glyph glyph-name="ibreve" unicode="&#x12d;" horiz-adv-x="222" 
d="M110 548q-70 0 -97.5 25t-27.5 87q0 21 7.5 27t33.5 6q25 0 32 -4.5t9 -21.5q2 -21 8.5 -27.5t34.5 -6.5t34.5 6.5t8.5 27.5q2 17 9 21.5t32 4.5q26 0 33.5 -6t7.5 -27q0 -62 -27.5 -87t-97.5 -25zM109 0q-35 0 -46.5 6t-11.5 28v425q0 22 11.5 28t46.5 6t46.5 -6
t11.5 -28v-425q0 -22 -11.5 -28t-46.5 -6z" />
    <glyph glyph-name="Iogonek" unicode="&#x12e;" horiz-adv-x="223" 
d="M169 53q0 -25 -4.5 -40t-22.5 -35q-38 -44 -38 -64q0 -11 3 -14.5t12 -3.5q7 0 15.5 1t13.5 1q12 0 16.5 -7.5t4.5 -30.5q0 -24 -6 -32t-23 -14q-32 -10 -65 -10q-39 0 -58.5 17t-19.5 58q0 34 17 61.5t54 63.5q-15 7 -15 30v553q0 21 11.5 27.5t46.5 6.5t46.5 -6.5
t11.5 -27.5v-534z" />
    <glyph glyph-name="iogonek" unicode="&#x12f;" horiz-adv-x="222" 
d="M72 -196q-39 0 -58.5 17t-19.5 58q0 32 15.5 59.5t56.5 65.5q-15 7 -15 30v425q0 22 11.5 28t46.5 6t46.5 -6t11.5 -28v-425q0 -15 -5.5 -26.5t-25.5 -34.5q-35 -39 -35 -59q0 -11 3 -14.5t12 -3.5q8 0 16.5 1t12.5 1q12 0 17 -7.5t5 -30.5q0 -24 -6 -32t-23 -14
q-34 -10 -66 -10zM109 553q-42 0 -52.5 8t-10.5 35v16q0 28 10.5 35.5t52.5 7.5q41 0 52 -7.5t11 -35.5v-16q0 -27 -11 -35t-52 -8z" />
    <glyph glyph-name="Idotaccent" unicode="&#x130;" horiz-adv-x="223" 
d="M111 0q-35 0 -46.5 6.5t-11.5 27.5v553q0 21 11.5 27.5t46.5 6.5t46.5 -6.5t11.5 -27.5v-553q0 -21 -11.5 -27.5t-46.5 -6.5zM111 682q-41 0 -52 8t-11 35v16q0 27 11 35t52 8q42 0 52.5 -7.5t10.5 -35.5v-16q0 -27 -10.5 -35t-52.5 -8z" />
    <glyph glyph-name="dotlessi" unicode="&#x131;" horiz-adv-x="222" 
d="M109 0q-35 0 -46.5 6t-11.5 28v425q0 22 11.5 28t46.5 6t46.5 -6t11.5 -28v-425q0 -22 -11.5 -28t-46.5 -6z" />
    <glyph glyph-name="IJ" unicode="&#x132;" horiz-adv-x="571" 
d="M111 0q-35 0 -46.5 6.5t-11.5 27.5v553q0 21 11.5 27.5t46.5 6.5t46.5 -6.5t11.5 -27.5v-553q0 -21 -11.5 -27.5t-46.5 -6.5zM364 -7q-56 0 -106 14q-16 5 -22 15t-6 39q0 27 4 34.5t16 7.5q6 0 34 -4t50 -4q40 0 54 15t14 60v417q0 21 11.5 27.5t46.5 6.5t46.5 -6.5
t11.5 -27.5v-417q0 -96 -36.5 -136.5t-117.5 -40.5z" />
    <glyph glyph-name="ij" unicode="&#x133;" horiz-adv-x="445" 
d="M109 0q-35 0 -46.5 6t-11.5 28v425q0 22 11.5 28t46.5 6t46.5 -6t11.5 -28v-425q0 -22 -11.5 -28t-46.5 -6zM109 553q-42 0 -52.5 8t-10.5 35v16q0 28 10.5 35.5t52.5 7.5q41 0 52 -7.5t11 -35.5v-16q0 -27 -11 -35t-52 -8zM331 493q35 0 46.5 -6t11.5 -28v-528
q0 -68 -28.5 -97.5t-86.5 -29.5q-41 0 -81 11q-16 5 -22.5 14.5t-6.5 34.5q0 28 5 36.5t16 8.5q4 0 22 -2.5t29 -2.5q23 0 30 9t7 42v504q0 22 11.5 28t46.5 6zM331 553q-42 0 -52.5 8t-10.5 35v16q0 28 10.5 35.5t52.5 7.5q41 0 52 -7.5t11 -35.5v-16q0 -27 -11 -35t-52 -8
z" />
    <glyph glyph-name="Jcircumflex" unicode="&#x134;" horiz-adv-x="348" 
d="M141 -7q-56 0 -106 14q-16 5 -22 15t-6 39q0 27 4 34.5t16 7.5q6 0 34 -4t50 -4q40 0 54 15t14 60v417q0 21 11.5 27.5t46.5 6.5t46.5 -6.5t11.5 -27.5v-417q0 -96 -36.5 -136.5t-117.5 -40.5zM239 751h-6l-39 -60q-10 -16 -22.5 -21t-39.5 -5q-38 0 -38 20q0 11 13 34
l53 90q8 14 18 19t34 5h48q24 0 34 -5t18 -19l53 -90q13 -23 13 -34q0 -20 -38 -20q-27 0 -38.5 5t-22.5 21z" />
    <glyph glyph-name="jcircumflex" unicode="&#x135;" horiz-adv-x="222" 
d="M109 493q35 0 46.5 -6t11.5 -28v-528q0 -68 -28.5 -97.5t-86.5 -29.5q-41 0 -81 11q-16 5 -22.5 14.5t-6.5 34.5q0 28 5 36.5t16 8.5q4 0 22 -2.5t29 -2.5q23 0 30 9t7 42v504q0 22 11.5 28t46.5 6zM111 625h-6l-39 -60q-10 -16 -22.5 -21t-39.5 -5q-38 0 -38 20
q0 11 13 34l53 90q8 14 18 19t34 5h48q24 0 34 -5t18 -19l53 -90q13 -23 13 -34q0 -20 -38 -20q-27 0 -38.5 5t-22.5 21z" />
    <glyph glyph-name="Kcommaaccent" unicode="&#x136;" horiz-adv-x="484" 
d="M111 0q-35 0 -46.5 6.5t-11.5 27.5v553q0 21 11.5 27.5t46.5 6.5t46.5 -6.5t11.5 -27.5v-236h16l143 242q11 18 23.5 23t51.5 5q31 0 42.5 -5.5t11.5 -18.5q0 -12 -13 -33l-158 -250l163 -242q20 -31 20 -46q0 -13 -12 -19.5t-49 -6.5q-31 0 -44.5 5.5t-23.5 21.5
l-155 248h-16v-241q0 -21 -11.5 -27.5t-46.5 -6.5zM213 -239q-21 0 -28.5 5t-7.5 16q0 7 5.5 50.5t5.5 76.5q0 28 10.5 36.5t48.5 8.5q34 0 46.5 -7t12.5 -27q0 -46 -13 -73l-23 -58q-8 -17 -18 -22.5t-39 -5.5z" />
    <glyph glyph-name="kcommaaccent" unicode="&#x137;" horiz-adv-x="457" 
d="M109 0q-35 0 -46.5 6t-11.5 28v588q0 21 11.5 27t46.5 6t46.5 -6t11.5 -27v-328h11l121 170q13 18 26 23.5t49 5.5q56 0 56 -20q0 -17 -13 -33l-137 -182l150 -206q12 -17 12 -29q0 -23 -60 -23q-32 0 -45 5t-25 23l-135 193h-10v-187q0 -22 -11.5 -28t-46.5 -6z
M202 -239q-21 0 -28.5 5t-7.5 16q0 7 5.5 50.5t5.5 76.5q0 28 10.5 36.5t48.5 8.5q34 0 46.5 -7t12.5 -27q0 -46 -13 -73l-23 -58q-8 -17 -18 -22.5t-39 -5.5z" />
    <glyph glyph-name="Lacute" unicode="&#x139;" horiz-adv-x="425" 
d="M169 103h211q18 0 24.5 -10.5t6.5 -41.5q0 -30 -6.5 -40.5t-24.5 -10.5h-291q-21 0 -28.5 6t-7.5 25v556q0 21 11.5 27.5t46.5 6.5t46.5 -6.5t11.5 -27.5v-484zM117 665q-45 0 -45 21q0 17 8 35l33 74q12 26 22 32t47 6q36 0 48 -6.5t12 -20.5q0 -12 -14 -37l-44 -74
q-10 -17 -21.5 -23.5t-45.5 -6.5z" />
    <glyph glyph-name="lacute" unicode="&#x13a;" horiz-adv-x="220" 
d="M109 0q-35 0 -46.5 6t-11.5 28v588q0 21 11.5 27t46.5 6t46.5 -6t11.5 -27v-588q0 -22 -11.5 -28t-46.5 -6zM97 689q-48 0 -48 21q0 11 11 35l33 74q12 26 22 32t47 6q36 0 48 -6.5t12 -20.5q0 -12 -14 -37l-44 -74q-10 -18 -21.5 -24t-45.5 -6z" />
    <glyph glyph-name="Lcommaaccent" unicode="&#x13b;" horiz-adv-x="425" 
d="M169 103h211q18 0 24.5 -10.5t6.5 -41.5q0 -30 -6.5 -40.5t-24.5 -10.5h-291q-21 0 -28.5 6t-7.5 25v556q0 21 11.5 27.5t46.5 6.5t46.5 -6.5t11.5 -27.5v-484zM198 -239q-21 0 -28.5 5t-7.5 16q0 7 5.5 50.5t5.5 76.5q0 28 10.5 36.5t48.5 8.5q34 0 46.5 -7t12.5 -27
q0 -46 -13 -73l-23 -58q-8 -17 -18 -22.5t-39 -5.5z" />
    <glyph glyph-name="lcommaaccent" unicode="&#x13c;" horiz-adv-x="220" 
d="M109 0q-35 0 -46.5 6t-11.5 28v588q0 21 11.5 27t46.5 6t46.5 -6t11.5 -27v-588q0 -22 -11.5 -28t-46.5 -6zM77 -239q-21 0 -28.5 5t-7.5 16q0 7 5.5 50.5t5.5 76.5q0 28 10.5 36.5t48.5 8.5q34 0 46.5 -7t12.5 -27q0 -46 -13 -73l-23 -58q-8 -17 -18 -22.5t-39 -5.5z
" />
    <glyph glyph-name="Lcaron" unicode="&#x13d;" horiz-adv-x="425" 
d="M169 103h211q18 0 24.5 -10.5t6.5 -41.5q0 -30 -6.5 -40.5t-24.5 -10.5h-291q-21 0 -28.5 6t-7.5 25v556q0 21 11.5 27.5t46.5 6.5t46.5 -6.5t11.5 -27.5v-484zM301 620q38 0 48.5 -7.5t10.5 -34.5v-27q0 -43 -17 -91l-16 -49q-11 -26 -22 -33.5t-41 -7.5q-35 0 -35 20
q0 8 6.5 53.5t6.5 72.5v62q0 26 11 34t48 8z" />
    <glyph glyph-name="lcaron" unicode="&#x13e;" horiz-adv-x="366" 
d="M295 655q37 0 48 -8t11 -34v-27q0 -35 -18 -91l-15 -49q-11 -26 -22 -33.5t-41 -7.5q-35 0 -35 20q0 8 6.5 53.5t6.5 72.5v62q0 27 10.5 34.5t48.5 7.5zM109 0q-35 0 -46.5 6t-11.5 28v588q0 21 11.5 27t46.5 6t46.5 -6t11.5 -27v-588q0 -22 -11.5 -28t-46.5 -6z" />
    <glyph glyph-name="Ldot" unicode="&#x13f;" horiz-adv-x="425" 
d="M169 103h211q18 0 24.5 -10.5t6.5 -41.5q0 -30 -6.5 -40.5t-24.5 -10.5h-291q-21 0 -28.5 6t-7.5 25v556q0 21 11.5 27.5t46.5 6.5t46.5 -6.5t11.5 -27.5v-484zM283 277q-41 0 -52 8t-11 35v16q0 28 11 35.5t52 7.5q42 0 52.5 -7.5t10.5 -35.5v-16q0 -27 -10.5 -35
t-52.5 -8z" />
    <glyph glyph-name="ldot" unicode="&#x140;" horiz-adv-x="354" 
d="M109 0q-35 0 -46.5 6t-11.5 28v588q0 21 11.5 27t46.5 6t46.5 -6t11.5 -27v-588q0 -22 -11.5 -28t-46.5 -6zM277 204q-41 0 -52 8t-11 35v16q0 27 11 35t52 8q42 0 52.5 -7.5t10.5 -35.5v-16q0 -27 -10.5 -35t-52.5 -8z" />
    <glyph glyph-name="Lslash" unicode="&#x141;" horiz-adv-x="425" 
d="M169 103h211q18 0 24.5 -10.5t6.5 -41.5q0 -30 -6.5 -40.5t-24.5 -10.5h-291q-21 0 -28.5 6t-7.5 25v187l-22 -13q-16 -10 -25 -10q-17 0 -17 42q0 29 6 42.5t21 22.5l37 22v263q0 21 11.5 27.5t46.5 6.5t46.5 -6.5t11.5 -27.5v-193l90 54q17 9 25 9t12 -8t4 -34
q0 -28 -6 -41.5t-21 -22.5l-104 -63v-185z" />
    <glyph glyph-name="lslash" unicode="&#x142;" horiz-adv-x="258" 
d="M128 0q-35 0 -46.5 6t-11.5 28v200l-28 -17q-15 -9 -25 -9q-16 0 -16 41q0 47 27 64l42 26v283q0 21 11.5 27t46.5 6t46.5 -6t11.5 -27v-211l30 19q15 9 25 9q16 0 16 -41q0 -28 -6 -41.5t-21 -22.5l-44 -28v-272q0 -22 -11.5 -28t-46.5 -6z" />
    <glyph glyph-name="Nacute" unicode="&#x143;" horiz-adv-x="552" 
d="M111 0q-35 0 -46.5 6.5t-11.5 27.5v553q0 21 13.5 27.5t56.5 6.5q33 0 48 -6t25 -27l178 -382h9v381q0 21 11.5 27.5t46.5 6.5t46.5 -6.5t11.5 -27.5v-553q0 -22 -12.5 -28t-54.5 -6q-31 0 -44 5.5t-25 26.5l-185 383h-9v-381q0 -21 -11.5 -27.5t-46.5 -6.5zM254 665
q-48 0 -48 21q0 11 11 35l33 74q12 26 22 32t47 6q36 0 48 -6.5t12 -20.5q0 -12 -14 -37l-44 -74q-7 -12 -12 -17t-18 -9t-37 -4z" />
    <glyph glyph-name="nacute" unicode="&#x144;" horiz-adv-x="514" 
d="M119 0q-35 0 -46.5 6t-11.5 28v254q0 50 -5 89.5t-10 61t-5 27.5q0 14 10.5 20.5t42.5 6.5q30 0 40 -5.5t15 -24.5l14 -54q40 94 161 94q78 0 107.5 -32t29.5 -106v-331q0 -22 -11.5 -28t-46.5 -6t-46.5 6t-11.5 28v303q0 38 -13 52t-50 14q-58 0 -81.5 -37t-23.5 -126
v-206q0 -22 -11.5 -28t-46.5 -6zM238 539q-48 0 -48 21q0 11 11 35l33 74q12 26 22 32t47 6q36 0 48 -6.5t12 -20.5q0 -12 -14 -37l-44 -74q-10 -18 -21.5 -24t-45.5 -6z" />
    <glyph glyph-name="Ncommaaccent" unicode="&#x145;" horiz-adv-x="552" 
d="M111 0q-35 0 -46.5 6.5t-11.5 27.5v553q0 21 13.5 27.5t56.5 6.5q33 0 48 -6t25 -27l178 -382h9v381q0 21 11.5 27.5t46.5 6.5t46.5 -6.5t11.5 -27.5v-553q0 -22 -12.5 -28t-54.5 -6q-31 0 -44 5.5t-25 26.5l-185 383h-9v-381q0 -21 -11.5 -27.5t-46.5 -6.5zM250 -239
q-21 0 -28.5 5t-7.5 16q0 7 5.5 50.5t5.5 76.5q0 28 10.5 36.5t48.5 8.5q34 0 46.5 -7t12.5 -27q0 -46 -13 -73l-23 -58q-8 -17 -18 -22.5t-39 -5.5z" />
    <glyph glyph-name="ncommaaccent" unicode="&#x146;" horiz-adv-x="514" 
d="M119 0q-35 0 -46.5 6t-11.5 28v254q0 50 -5 89.5t-10 61t-5 27.5q0 14 10.5 20.5t42.5 6.5q30 0 40 -5.5t15 -24.5l14 -54q40 94 161 94q78 0 107.5 -32t29.5 -106v-331q0 -22 -11.5 -28t-46.5 -6t-46.5 6t-11.5 28v303q0 38 -13 52t-50 14q-58 0 -81.5 -37t-23.5 -126
v-206q0 -22 -11.5 -28t-46.5 -6zM231 -239q-21 0 -28.5 5t-7.5 16q0 7 5.5 50.5t5.5 76.5q0 28 10.5 36.5t48.5 8.5q34 0 46.5 -7t12.5 -27q0 -46 -13 -73l-23 -58q-8 -17 -18 -22.5t-39 -5.5z" />
    <glyph glyph-name="Ncaron" unicode="&#x147;" horiz-adv-x="552" 
d="M111 0q-35 0 -46.5 6.5t-11.5 27.5v553q0 21 13.5 27.5t56.5 6.5q33 0 48 -6t25 -27l178 -382h9v381q0 21 11.5 27.5t46.5 6.5t46.5 -6.5t11.5 -27.5v-553q0 -22 -12.5 -28t-54.5 -6q-31 0 -44 5.5t-25 26.5l-185 383h-9v-381q0 -21 -11.5 -27.5t-46.5 -6.5zM135 813
q0 20 39 20q27 0 38.5 -4.5t22.5 -21.5l40 -59h6l39 59q11 16 23 21t39 5q38 0 38 -20q0 -11 -13 -33l-53 -91q-7 -14 -17.5 -19t-34.5 -5h-48q-24 0 -34.5 5t-18.5 19l-52 91q-14 24 -14 33z" />
    <glyph glyph-name="ncaron" unicode="&#x148;" horiz-adv-x="514" 
d="M119 0q-35 0 -46.5 6t-11.5 28v254q0 50 -5 89.5t-10 61t-5 27.5q0 14 10.5 20.5t42.5 6.5q30 0 40 -5.5t15 -24.5l14 -54q40 94 161 94q78 0 107.5 -32t29.5 -106v-331q0 -22 -11.5 -28t-46.5 -6t-46.5 6t-11.5 28v303q0 38 -13 52t-50 14q-58 0 -81.5 -37t-23.5 -126
v-206q0 -22 -11.5 -28t-46.5 -6zM119 687q0 20 39 20q27 0 38.5 -4.5t22.5 -21.5l40 -59h6l39 59q11 16 23 21t39 5q38 0 38 -20q0 -11 -13 -33l-53 -91q-7 -14 -17.5 -19t-34.5 -5h-48q-24 0 -34.5 5t-18.5 19l-52 91q-14 24 -14 33z" />
    <glyph glyph-name="Eng" unicode="&#x14a;" horiz-adv-x="552" 
d="M384 -196q-42 0 -81 11q-16 5 -22.5 14.5t-6.5 34.5q0 28 5 36.5t16 8.5q4 0 22 -2.5t29 -2.5q23 0 30 9t7 42v52q-11 7 -20 25l-185 383h-9v-381q0 -21 -11.5 -27.5t-46.5 -6.5t-46.5 6.5t-11.5 27.5v553q0 21 13.5 27.5t56.5 6.5q33 0 48 -6t25 -27l178 -382h9v381
q0 21 11.5 27.5t46.5 6.5t46.5 -6.5t11.5 -27.5v-656q0 -68 -28.5 -97.5t-86.5 -29.5z" />
    <glyph glyph-name="eng" unicode="&#x14b;" horiz-adv-x="514" 
d="M119 0q-35 0 -46.5 6t-11.5 28v254q0 50 -5 89.5t-10 61t-5 27.5q0 14 10.5 20.5t42.5 6.5q30 0 40 -5.5t15 -24.5l14 -54q40 94 161 94q78 0 107.5 -32t29.5 -106v-434q0 -68 -28.5 -97.5t-86.5 -29.5q-41 0 -81 11q-16 5 -22.5 14.5t-6.5 34.5q0 28 5 36.5t16 8.5
q4 0 22 -2.5t30 -2.5q22 0 29 9t7 42v382q0 38 -13 52t-50 14q-58 0 -81.5 -37t-23.5 -126v-206q0 -22 -11.5 -28t-46.5 -6z" />
    <glyph glyph-name="Omacron" unicode="&#x14c;" horiz-adv-x="529" 
d="M264 93q36 0 55 5.5t32 26t17 56.5t4 102v53q0 67 -3.5 102t-16 56.5t-31.5 26.5t-57 5q-47 0 -68 -12.5t-30 -51.5t-9 -126v-53q0 -89 8.5 -127t29 -50.5t69.5 -12.5zM264 -7q-66 0 -103.5 8.5t-67 37.5t-41 84.5t-11.5 148.5v69q0 77 9 129t24 83t45 47t61.5 21t83.5 5
q68 0 106 -8.5t67.5 -38.5t40 -86t10.5 -152v-69q0 -76 -9.5 -127t-25 -81t-46 -46t-61.5 -20.5t-82 -4.5zM151 734q0 30 6 39t25 9h165q19 0 25 -9t6 -39q0 -31 -5.5 -39.5t-25.5 -8.5h-165q-20 0 -25.5 8.5t-5.5 39.5z" />
    <glyph glyph-name="omacron" unicode="&#x14d;" horiz-adv-x="503" 
d="M243 -10q-79 0 -120 19.5t-60.5 73.5t-19.5 160t22.5 162.5t67 77t126.5 20.5q80 0 120.5 -19t60 -72.5t19.5 -158.5q0 -156 -47 -209.5t-169 -53.5zM247 87q59 0 76.5 29.5t17.5 127.5q0 105 -15.5 133t-70.5 28q-60 0 -77 -28.5t-17 -125.5q0 -105 15.5 -134.5
t70.5 -29.5zM138 608q0 30 6 39t25 9h165q19 0 25 -9t6 -39q0 -31 -5.5 -39.5t-25.5 -8.5h-165q-20 0 -25.5 8.5t-5.5 39.5z" />
    <glyph glyph-name="Obreve" unicode="&#x14e;" horiz-adv-x="529" 
d="M264 93q36 0 55 5.5t32 26t17 56.5t4 102v53q0 67 -3.5 102t-16 56.5t-31.5 26.5t-57 5q-47 0 -68 -12.5t-30 -51.5t-9 -126v-53q0 -89 8.5 -127t29 -50.5t69.5 -12.5zM264 -7q-66 0 -103.5 8.5t-67 37.5t-41 84.5t-11.5 148.5v69q0 77 9 129t24 83t45 47t61.5 21t83.5 5
q68 0 106 -8.5t67.5 -38.5t40 -86t10.5 -152v-69q0 -76 -9.5 -127t-25 -81t-46 -46t-61.5 -20.5t-82 -4.5zM264 674q-70 0 -97.5 25t-27.5 87q0 21 7.5 27t33.5 6q25 0 32 -4.5t9 -21.5q2 -21 8.5 -27.5t34.5 -6.5t34.5 6.5t8.5 27.5q2 17 9 21.5t32 4.5q26 0 33.5 -6
t7.5 -27q0 -62 -27.5 -87t-97.5 -25z" />
    <glyph glyph-name="obreve" unicode="&#x14f;" horiz-adv-x="503" 
d="M243 -10q-79 0 -120 19.5t-60.5 73.5t-19.5 160t22.5 162.5t67 77t126.5 20.5q80 0 120.5 -19t60 -72.5t19.5 -158.5q0 -156 -47 -209.5t-169 -53.5zM247 87q59 0 76.5 29.5t17.5 127.5q0 105 -15.5 133t-70.5 28q-60 0 -77 -28.5t-17 -125.5q0 -105 15.5 -134.5
t70.5 -29.5zM251 548q-70 0 -97.5 25t-27.5 87q0 21 7.5 27t33.5 6q25 0 32 -4.5t9 -21.5q2 -21 8.5 -27.5t34.5 -6.5t34.5 6.5t8.5 27.5q2 17 9 21.5t32 4.5q26 0 33.5 -6t7.5 -27q0 -62 -27.5 -87t-97.5 -25z" />
    <glyph glyph-name="Ohungarumlaut" unicode="&#x150;" horiz-adv-x="529" 
d="M264 93q36 0 55 5.5t32 26t17 56.5t4 102v53q0 67 -3.5 102t-16 56.5t-31.5 26.5t-57 5q-47 0 -68 -12.5t-30 -51.5t-9 -126v-53q0 -89 8.5 -127t29 -50.5t69.5 -12.5zM264 -7q-66 0 -103.5 8.5t-67 37.5t-41 84.5t-11.5 148.5v69q0 77 9 129t24 83t45 47t61.5 21t83.5 5
q68 0 106 -8.5t67.5 -38.5t40 -86t10.5 -152v-69q0 -76 -9.5 -127t-25 -81t-46 -46t-61.5 -20.5t-82 -4.5zM134 686q0 8 36 125q4 13 15 17.5t48 4.5q33 0 43 -3q14 -4 14 -18q0 -17 -53 -123q-7 -14 -17 -19t-42 -5q-26 0 -35 5t-9 16zM285 686q0 9 52 126q5 12 16.5 16.5
t45.5 4.5q33 0 44 -4q15 -5 15 -17q0 -17 -70 -122q-7 -11 -11.5 -15t-16 -7t-33.5 -3q-25 0 -33.5 5t-8.5 16z" />
    <glyph glyph-name="ohungarumlaut" unicode="&#x151;" horiz-adv-x="503" 
d="M243 -10q-79 0 -120 19.5t-60.5 73.5t-19.5 160t22.5 162.5t67 77t126.5 20.5q80 0 120.5 -19t60 -72.5t19.5 -158.5q0 -156 -47 -209.5t-169 -53.5zM247 87q59 0 76.5 29.5t17.5 127.5q0 105 -15.5 133t-70.5 28q-60 0 -77 -28.5t-17 -125.5q0 -105 15.5 -134.5
t70.5 -29.5zM121 560q0 8 36 125q4 13 15 17.5t48 4.5q32 0 43 -3q14 -4 14 -18q0 -17 -53 -123q-7 -14 -17 -19t-42 -5q-26 0 -35 5t-9 16zM272 560q0 9 52 126q5 12 16.5 16.5t45.5 4.5q33 0 44 -4q15 -5 15 -17q0 -17 -70 -122q-7 -11 -11.5 -15t-16 -7t-33.5 -3
q-25 0 -33.5 5t-8.5 16z" />
    <glyph glyph-name="OE" unicode="&#x152;" horiz-adv-x="773" 
d="M264 -7q-64 0 -100 8t-67 36t-43.5 84.5t-12.5 150.5v69q0 96 10.5 152t40 86t67 38.5t105.5 8.5q92 0 132 -21q6 16 39 16h273q18 0 24.5 -10.5t6.5 -41.5t-6.5 -41t-24.5 -10h-220v-142h159q20 0 25.5 -9.5t5.5 -40.5q0 -32 -6 -41.5t-25 -9.5h-159v-172h230
q18 0 24.5 -10.5t6.5 -41.5q0 -30 -6.5 -40.5t-24.5 -10.5h-283q-33 0 -39 16q-41 -23 -132 -23zM264 93q48 0 68.5 12t30 49t9.5 120v63q0 66 -3.5 101t-16 56t-32 26.5t-56.5 5.5t-56 -5t-31.5 -26.5t-16 -56.5t-3.5 -102v-53q0 -66 4 -102t17 -56.5t31.5 -26t54.5 -5.5z
" />
    <glyph glyph-name="oe" unicode="&#x153;" horiz-adv-x="774" 
d="M243 -10q-79 0 -120 19.5t-60.5 73.5t-19.5 160t22.5 162.5t67 77t126.5 20.5q106 0 145 -39q40 39 145 39q60 0 97.5 -13t56.5 -44.5t25.5 -71t6.5 -104.5q0 -29 -9.5 -41.5t-35.5 -12.5h-232q1 -82 21 -104t86 -22q34 0 66.5 4t52.5 8.5t24 4.5q19 0 19 -47
q0 -25 -5.5 -35t-20.5 -15q-57 -20 -145 -20q-116 0 -157 45q-44 -45 -156 -45zM247 87q59 0 76.5 29.5t17.5 127.5q0 105 -15.5 133t-70.5 28q-60 0 -77 -28.5t-17 -125.5q0 -105 15.5 -134.5t70.5 -29.5zM547 406q-50 0 -68 -21.5t-21 -96.5h167q0 70 -13 94t-65 24z" />
    <glyph glyph-name="Racute" unicode="&#x154;" horiz-adv-x="506" 
d="M111 0q-35 0 -46.5 6.5t-11.5 27.5v544q0 20 8 28.5t27 10.5q77 9 171 9q112 0 157.5 -35.5t45.5 -147.5q0 -137 -96 -177l98 -208q11 -24 11 -35q0 -23 -48 -23q-42 0 -55 5.5t-21 25.5l-86 217q-9 -1 -29 -1h-67v-213q0 -21 -11.5 -27.5t-46.5 -6.5zM169 525v-194h70
q61 0 81.5 21t20.5 85q0 55 -19.5 73.5t-75.5 18.5q-39 0 -77 -4zM218 665q-48 0 -48 21q0 11 11 35l33 74q12 26 22 32t47 6q36 0 48 -6.5t12 -20.5q0 -12 -14 -37l-44 -74q-7 -12 -12 -17t-18 -9t-37 -4z" />
    <glyph glyph-name="racute" unicode="&#x155;" horiz-adv-x="358" 
d="M119 0q-35 0 -46.5 6t-11.5 28v254q0 50 -5 89.5t-10 61t-5 27.5q0 14 10.5 20.5t42.5 6.5q30 0 40 -5.5t15 -24.5l12 -46q38 83 122 83q31 0 45 -6q12 -4 17 -15t5 -39q0 -47 -22 -47q-2 0 -20 2t-33 2q-98 0 -98 -174v-189q0 -22 -11.5 -28t-46.5 -6zM145 539
q-48 0 -48 21q0 11 11 35l33 74q12 26 22 32t47 6q36 0 48 -6.5t12 -20.5q0 -12 -14 -37l-44 -74q-10 -18 -21.5 -24t-45.5 -6z" />
    <glyph glyph-name="Rcommaaccent" unicode="&#x156;" horiz-adv-x="506" 
d="M111 0q-35 0 -46.5 6.5t-11.5 27.5v544q0 20 8 28.5t27 10.5q77 9 171 9q112 0 157.5 -35.5t45.5 -147.5q0 -137 -96 -177l98 -208q11 -24 11 -35q0 -23 -48 -23q-42 0 -55 5.5t-21 25.5l-86 217q-9 -1 -29 -1h-67v-213q0 -21 -11.5 -27.5t-46.5 -6.5zM169 525v-194h70
q61 0 81.5 21t20.5 85q0 55 -19.5 73.5t-75.5 18.5q-39 0 -77 -4zM228 -239q-21 0 -28.5 5t-7.5 16q0 7 5.5 50.5t5.5 76.5q0 28 10.5 36.5t48.5 8.5q34 0 46.5 -7t12.5 -27q0 -46 -13 -73l-23 -58q-8 -17 -18 -22.5t-39 -5.5z" />
    <glyph glyph-name="rcommaaccent" unicode="&#x157;" horiz-adv-x="358" 
d="M119 0q-35 0 -46.5 6t-11.5 28v254q0 50 -5 89.5t-10 61t-5 27.5q0 14 10.5 20.5t42.5 6.5q30 0 40 -5.5t15 -24.5l12 -46q38 83 122 83q31 0 45 -6q12 -4 17 -15t5 -39q0 -47 -22 -47q-2 0 -20 2t-33 2q-98 0 -98 -174v-189q0 -22 -11.5 -28t-46.5 -6zM88 -244
q-21 0 -28.5 5t-7.5 16q0 7 5.5 50.5t5.5 76.5q0 28 10.5 36.5t48.5 8.5q34 0 46.5 -7t12.5 -27q0 -46 -13 -73l-23 -58q-8 -17 -18 -22.5t-39 -5.5z" />
    <glyph glyph-name="Rcaron" unicode="&#x158;" horiz-adv-x="506" 
d="M111 0q-35 0 -46.5 6.5t-11.5 27.5v544q0 20 8 28.5t27 10.5q77 9 171 9q112 0 157.5 -35.5t45.5 -147.5q0 -137 -96 -177l98 -208q11 -24 11 -35q0 -23 -48 -23q-42 0 -55 5.5t-21 25.5l-86 217q-9 -1 -29 -1h-67v-213q0 -21 -11.5 -27.5t-46.5 -6.5zM169 525v-194h70
q61 0 81.5 21t20.5 85q0 55 -19.5 73.5t-75.5 18.5q-39 0 -77 -4zM111 813q0 20 39 20q27 0 38.5 -4.5t22.5 -21.5l40 -59h6l39 59q11 16 23 21t39 5q38 0 38 -20q0 -11 -13 -33l-53 -91q-7 -14 -17.5 -19t-34.5 -5h-48q-24 0 -34.5 5t-18.5 19l-52 91q-14 24 -14 33z" />
    <glyph glyph-name="rcaron" unicode="&#x159;" horiz-adv-x="358" 
d="M119 0q-35 0 -46.5 6t-11.5 28v254q0 50 -5 89.5t-10 61t-5 27.5q0 14 10.5 20.5t42.5 6.5q30 0 40 -5.5t15 -24.5l12 -46q38 83 122 83q31 0 45 -6q12 -4 17 -15t5 -39q0 -47 -22 -47q-2 0 -20 2t-33 2q-98 0 -98 -174v-189q0 -22 -11.5 -28t-46.5 -6zM39 687
q0 20 39 20q27 0 38.5 -4.5t22.5 -21.5l40 -59h6l39 59q11 16 23 21t39 5q38 0 38 -20q0 -11 -13 -33l-53 -91q-7 -14 -17.5 -19t-34.5 -5h-48q-24 0 -34.5 5t-18.5 19l-52 91q-14 24 -14 33z" />
    <glyph glyph-name="Sacute" unicode="&#x15a;" horiz-adv-x="457" 
d="M208 -7q-84 0 -143 18q-16 5 -22.5 15.5t-6.5 39.5q0 28 4.5 37t15.5 9q3 0 46.5 -8t87.5 -8q61 0 89.5 17.5t28.5 61.5q0 33 -9 48t-39 29l-115 51q-51 23 -74 56t-23 99q0 96 48.5 132t128.5 36q85 0 156 -19q13 -3 18.5 -13.5t5.5 -40.5q0 -46 -20 -46q-1 0 -45 7.5
t-87 7.5q-52 0 -72 -11.5t-20 -53.5q0 -27 10 -39t38 -24l114 -51q54 -24 76 -58.5t22 -103.5q0 -188 -213 -188zM210 665q-48 0 -48 21q0 11 11 35l33 74q12 26 22 32t47 6q36 0 48 -6.5t12 -20.5q0 -12 -14 -37l-44 -74q-7 -12 -12 -17t-18 -9t-37 -4z" />
    <glyph glyph-name="sacute" unicode="&#x15b;" horiz-adv-x="437" 
d="M201 -10q-79 0 -136 18q-15 5 -20.5 15t-5.5 35q0 47 19 47q1 0 47 -7.5t84 -7.5q51 0 71.5 13.5t20.5 43.5t-32 42l-119 51q-75 31 -75 124q0 139 167 139q76 0 141 -17q15 -4 20.5 -14t5.5 -39q0 -45 -21 -45q-2 0 -46 8.5t-78 8.5q-39 0 -55 -10.5t-16 -33.5
q0 -31 31 -43l116 -47q44 -17 61 -45t17 -75q0 -161 -197 -161zM200 539q-48 0 -48 21q0 11 11 35l33 74q12 26 22 32t47 6q36 0 48 -6.5t12 -20.5q0 -12 -14 -37l-44 -74q-7 -12 -12 -17t-18 -9t-37 -4z" />
    <glyph glyph-name="Scircumflex" unicode="&#x15c;" horiz-adv-x="457" 
d="M208 -7q-84 0 -143 18q-16 5 -22.5 15.5t-6.5 39.5q0 28 4.5 37t15.5 9q3 0 46.5 -8t87.5 -8q61 0 89.5 17.5t28.5 61.5q0 33 -9 48t-39 29l-115 51q-51 23 -74 56t-23 99q0 96 48.5 132t128.5 36q85 0 156 -19q13 -3 18.5 -13.5t5.5 -40.5q0 -46 -20 -46q-1 0 -45 7.5
t-87 7.5q-52 0 -72 -11.5t-20 -53.5q0 -27 10 -39t38 -24l114 -51q54 -24 76 -58.5t22 -103.5q0 -188 -213 -188zM238 751h-6l-39 -60q-10 -16 -22.5 -21t-39.5 -5q-38 0 -38 20q0 11 13 34l53 90q8 14 18 19t34 5h48q24 0 34 -5t18 -19l53 -90q13 -23 13 -34q0 -20 -38 -20
q-27 0 -38.5 5t-22.5 21z" />
    <glyph glyph-name="scircumflex" unicode="&#x15d;" horiz-adv-x="437" 
d="M201 -10q-79 0 -136 18q-15 5 -20.5 15t-5.5 35q0 47 19 47q1 0 47 -7.5t84 -7.5q51 0 71.5 13.5t20.5 43.5t-32 42l-119 51q-75 31 -75 124q0 139 167 139q76 0 141 -17q15 -4 20.5 -14t5.5 -39q0 -45 -21 -45q-2 0 -46 8.5t-78 8.5q-39 0 -55 -10.5t-16 -33.5
q0 -31 31 -43l116 -47q44 -17 61 -45t17 -75q0 -161 -197 -161zM226 625h-6l-39 -60q-10 -16 -22.5 -21t-39.5 -5q-38 0 -38 20q0 11 13 34l53 90q8 14 18 19t34 5h48q24 0 34 -5t18 -19l53 -90q13 -23 13 -34q0 -20 -38 -20q-27 0 -38.5 5t-22.5 21z" />
    <glyph glyph-name="Scedilla" unicode="&#x15e;" horiz-adv-x="457" 
d="M227 -223q-33 0 -61 6q-16 3 -22 11t-6 31q0 42 23 42q4 0 20.5 -2t30.5 -2q23 0 23 13q0 3 -0.5 5t-2 3.5t-2.5 3t-4 3.5l-4.5 3t-6.5 3.5l-7 3.5q-19 9 -26 21.5t-7 38.5v33q-67 3 -110 17q-16 5 -22.5 15.5t-6.5 39.5q0 28 4.5 37t15.5 9q3 0 46.5 -8t87.5 -8
q61 0 89.5 17.5t28.5 61.5q0 33 -9 48t-39 29l-115 51q-51 23 -74 56t-23 99q0 96 48.5 132t128.5 36q85 0 156 -19q13 -3 18.5 -13.5t5.5 -40.5q0 -46 -20 -46q-1 0 -45 7.5t-87 7.5q-52 0 -72 -11.5t-20 -53.5q0 -27 10 -39t38 -24l114 -51q54 -24 76 -58.5t22 -103.5
q0 -166 -164 -185v-19q0 -14 14 -22q38 -21 50.5 -38t12.5 -53q0 -87 -107 -87z" />
    <glyph glyph-name="scedilla" unicode="&#x15f;" horiz-adv-x="437" 
d="M220 -223q-32 0 -61 6q-16 3 -22 11t-6 31q0 42 23 42q4 0 20.5 -2t30.5 -2q23 0 23 13q0 3 -0.5 5t-2 3.5t-2.5 3t-4 3.5l-4.5 3t-6.5 3.5l-7 3.5q-19 9 -26 21.5t-7 38.5v30q-63 5 -103 17q-15 5 -20.5 15t-5.5 35q0 47 19 47q1 0 47 -7.5t84 -7.5q51 0 71.5 13.5
t20.5 43.5t-32 42l-119 51q-75 31 -75 124q0 139 167 139q76 0 141 -17q15 -4 20.5 -14t5.5 -39q0 -45 -21 -45q-2 0 -46 8.5t-78 8.5q-39 0 -55 -10.5t-16 -33.5q0 -31 31 -43l116 -47q44 -17 61 -45t17 -75q0 -139 -148 -158v-16q0 -14 14 -22q38 -21 50.5 -38t12.5 -53
q0 -87 -107 -87z" />
    <glyph glyph-name="Scaron" unicode="&#x160;" horiz-adv-x="457" 
d="M208 -7q-84 0 -143 18q-16 5 -22.5 15.5t-6.5 39.5q0 28 4.5 37t15.5 9q3 0 46.5 -8t87.5 -8q61 0 89.5 17.5t28.5 61.5q0 33 -9 48t-39 29l-115 51q-51 23 -74 56t-23 99q0 96 48.5 132t128.5 36q85 0 156 -19q13 -3 18.5 -13.5t5.5 -40.5q0 -46 -20 -46q-1 0 -45 7.5
t-87 7.5q-52 0 -72 -11.5t-20 -53.5q0 -27 10 -39t38 -24l114 -51q54 -24 76 -58.5t22 -103.5q0 -188 -213 -188zM95 813q0 20 39 20q27 0 38.5 -4.5t22.5 -21.5l40 -59h6l39 59q11 16 23 21t39 5q38 0 38 -20q0 -11 -13 -33l-53 -91q-7 -14 -17.5 -19t-34.5 -5h-48
q-24 0 -34.5 5t-18.5 19l-52 91q-14 24 -14 33z" />
    <glyph glyph-name="scaron" unicode="&#x161;" horiz-adv-x="437" 
d="M201 -10q-79 0 -136 18q-15 5 -20.5 15t-5.5 35q0 47 19 47q1 0 47 -7.5t84 -7.5q51 0 71.5 13.5t20.5 43.5t-32 42l-119 51q-75 31 -75 124q0 139 167 139q76 0 141 -17q15 -4 20.5 -14t5.5 -39q0 -45 -21 -45q-2 0 -46 8.5t-78 8.5q-39 0 -55 -10.5t-16 -33.5
q0 -31 31 -43l116 -47q44 -17 61 -45t17 -75q0 -161 -197 -161zM81 687q0 20 39 20q27 0 38.5 -4.5t22.5 -21.5l40 -59h6l39 59q11 16 23 21t39 5q38 0 38 -20q0 -11 -13 -33l-53 -91q-7 -14 -17.5 -19t-34.5 -5h-48q-24 0 -34.5 5t-18.5 19l-52 91q-14 24 -14 33z" />
    <glyph glyph-name="Tcommaaccent" unicode="&#x162;" horiz-adv-x="440" 
d="M220 0q-35 0 -46.5 6.5t-11.5 27.5v484h-121q-18 0 -24.5 10t-6.5 41t6.5 41.5t24.5 10.5h358q18 0 24.5 -10.5t6.5 -41.5t-6.5 -41t-24.5 -10h-121v-484q0 -21 -11.5 -27.5t-46.5 -6.5zM189 -239q-21 0 -28.5 5t-7.5 16q0 7 5.5 50.5t5.5 76.5q0 28 10.5 36.5t48.5 8.5
q34 0 46.5 -7t12.5 -27q0 -46 -13 -73l-23 -58q-8 -17 -18 -22.5t-39 -5.5z" />
    <glyph glyph-name="tcommaaccent" unicode="&#x163;" horiz-adv-x="330" 
d="M199 -10q-59 0 -85 28.5t-26 98.5v282h-44q-15 0 -20 9t-5 36q0 28 5 37t20 9h44v72q0 21 11.5 27t46.5 6t46.5 -6t11.5 -27v-72h78q15 0 20 -9t5 -37q0 -27 -5 -36t-20 -9h-78v-259q0 -31 6.5 -39.5t28.5 -8.5q13 0 29.5 2.5t20.5 2.5q11 0 16 -8.5t5 -34.5
q0 -24 -6 -33.5t-21 -15.5q-33 -15 -84 -15zM156 -239q-21 0 -28.5 5t-7.5 16q0 7 5.5 50.5t5.5 76.5q0 28 10.5 36.5t48.5 8.5q34 0 46.5 -7t12.5 -27q0 -46 -13 -73l-23 -58q-8 -17 -18 -22.5t-39 -5.5z" />
    <glyph glyph-name="Tcaron" unicode="&#x164;" horiz-adv-x="440" 
d="M220 0q-35 0 -46.5 6.5t-11.5 27.5v484h-121q-18 0 -24.5 10t-6.5 41t6.5 41.5t24.5 10.5h358q18 0 24.5 -10.5t6.5 -41.5t-6.5 -41t-24.5 -10h-121v-484q0 -21 -11.5 -27.5t-46.5 -6.5zM77 813q0 20 39 20q27 0 38.5 -4.5t22.5 -21.5l40 -59h6l39 59q11 16 23 21t39 5
q38 0 38 -20q0 -11 -13 -33l-53 -91q-7 -14 -17.5 -19t-34.5 -5h-48q-24 0 -34.5 5t-18.5 19l-52 91q-14 24 -14 33z" />
    <glyph glyph-name="tcaron" unicode="&#x165;" horiz-adv-x="483" 
d="M408 655q38 0 48.5 -7.5t10.5 -34.5v-27q0 -38 -17 -91l-15 -49q-11 -26 -22 -33.5t-41 -7.5q-21 0 -28 4.5t-7 15.5q0 8 6 53.5t6 72.5v62q0 26 11 34t48 8zM199 -10q-59 0 -85 28.5t-26 98.5v282h-44q-15 0 -20 9t-5 36q0 28 5 37t20 9h44v72q0 21 11.5 27t46.5 6
t46.5 -6t11.5 -27v-72h78q15 0 20 -9t5 -37q0 -27 -5 -36t-20 -9h-78v-259q0 -31 6.5 -39.5t28.5 -8.5q13 0 29.5 2.5t20.5 2.5q11 0 16 -8.5t5 -34.5q0 -24 -6 -33.5t-21 -15.5q-33 -15 -84 -15z" />
    <glyph glyph-name="Tbar" unicode="&#x166;" horiz-adv-x="440" 
d="M220 0q-35 0 -46.5 6.5t-11.5 27.5v232h-98q-19 0 -25 8.5t-6 34.5t6 34.5t25 8.5h98v166h-121q-18 0 -24.5 10t-6.5 41t6.5 41.5t24.5 10.5h358q18 0 24.5 -10.5t6.5 -41.5t-6.5 -41t-24.5 -10h-121v-166h97q19 0 25 -8.5t6 -34.5t-6 -34.5t-25 -8.5h-97v-232
q0 -21 -11.5 -27.5t-46.5 -6.5z" />
    <glyph glyph-name="tbar" unicode="&#x167;" horiz-adv-x="330" 
d="M199 -10q-59 0 -85 28.5t-26 98.5v88h-43q-14 0 -19 9t-5 36q0 28 5 37t19 9h43v103h-44q-15 0 -20 9t-5 36q0 28 5 37t20 9h44v72q0 21 11.5 27t46.5 6t46.5 -6t11.5 -27v-72h78q15 0 20 -9t5 -37q0 -27 -5 -36t-20 -9h-78v-103h77q15 0 20 -9t5 -37t-5 -36.5t-20 -8.5
h-77v-65q0 -31 6.5 -39.5t28.5 -8.5q13 0 29.5 2.5t20.5 2.5q11 0 16 -8.5t5 -34.5q0 -24 -6 -33.5t-21 -15.5q-33 -15 -84 -15z" />
    <glyph glyph-name="Utilde" unicode="&#x168;" horiz-adv-x="527" 
d="M263 -7q-115 0 -162.5 43t-47.5 148v403q0 21 11.5 27.5t46.5 6.5t46.5 -6.5t11.5 -27.5v-409q0 -49 19 -67.5t75 -18.5t75 18.5t19 67.5v409q0 21 11.5 27.5t46.5 6.5t46.5 -6.5t11.5 -27.5v-403q0 -105 -47.5 -148t-162.5 -43zM120 718q0 24 5.5 33.5t20.5 19.5
q30 19 65 19q25 0 60.5 -10t52.5 -10q20 0 42 8.5t25 8.5q9 0 12.5 -7t3.5 -32q0 -23 -5.5 -33.5t-20.5 -20.5q-30 -18 -65 -18q-25 0 -60 10t-52 10q-21 0 -43 -8.5t-25 -8.5q-9 0 -12.5 7t-3.5 32z" />
    <glyph glyph-name="utilde" unicode="&#x169;" horiz-adv-x="506" 
d="M186 -10q-76 0 -105.5 30t-29.5 102v337q0 22 11.5 28t46.5 6t46.5 -6t11.5 -28v-308q0 -36 12.5 -48.5t50.5 -12.5q58 0 80.5 36.5t22.5 125.5v207q0 22 11.5 28t46.5 6t46.5 -6t11.5 -28v-254q0 -51 5.5 -90t10.5 -60.5t5 -27.5q0 -15 -10.5 -21t-43.5 -6
q-30 0 -39.5 5t-14.5 25l-13 50q-41 -90 -163 -90zM107 598q0 24 5.5 33.5t20.5 19.5q30 19 65 19q25 0 60.5 -10t52.5 -10q20 0 42 8.5t25 8.5q9 0 12.5 -7t3.5 -32q0 -23 -5.5 -33.5t-20.5 -20.5q-30 -18 -65 -18q-25 0 -60 10t-52 10q-21 0 -43 -8.5t-25 -8.5
q-9 0 -12.5 7t-3.5 32z" />
    <glyph glyph-name="Umacron" unicode="&#x16a;" horiz-adv-x="527" 
d="M263 -7q-115 0 -162.5 43t-47.5 148v403q0 21 11.5 27.5t46.5 6.5t46.5 -6.5t11.5 -27.5v-409q0 -49 19 -67.5t75 -18.5t75 18.5t19 67.5v409q0 21 11.5 27.5t46.5 6.5t46.5 -6.5t11.5 -27.5v-403q0 -105 -47.5 -148t-162.5 -43zM150 734q0 30 6 39t25 9h165q19 0 25 -9
t6 -39q0 -31 -5.5 -39.5t-25.5 -8.5h-165q-20 0 -25.5 8.5t-5.5 39.5z" />
    <glyph glyph-name="umacron" unicode="&#x16b;" horiz-adv-x="506" 
d="M186 -10q-76 0 -105.5 30t-29.5 102v337q0 22 11.5 28t46.5 6t46.5 -6t11.5 -28v-308q0 -36 12.5 -48.5t50.5 -12.5q58 0 80.5 36.5t22.5 125.5v207q0 22 11.5 28t46.5 6t46.5 -6t11.5 -28v-254q0 -51 5.5 -90t10.5 -60.5t5 -27.5q0 -15 -10.5 -21t-43.5 -6
q-30 0 -39.5 5t-14.5 25l-13 50q-41 -90 -163 -90zM137 608q0 30 6 39t25 9h165q19 0 25 -9t6 -39q0 -31 -5.5 -39.5t-25.5 -8.5h-165q-20 0 -25.5 8.5t-5.5 39.5z" />
    <glyph glyph-name="Ubreve" unicode="&#x16c;" horiz-adv-x="527" 
d="M263 -7q-115 0 -162.5 43t-47.5 148v403q0 21 11.5 27.5t46.5 6.5t46.5 -6.5t11.5 -27.5v-409q0 -49 19 -67.5t75 -18.5t75 18.5t19 67.5v409q0 21 11.5 27.5t46.5 6.5t46.5 -6.5t11.5 -27.5v-403q0 -105 -47.5 -148t-162.5 -43zM263 671q-70 0 -97.5 25t-27.5 87
q0 21 7.5 27t33.5 6q25 0 32 -4.5t9 -21.5q2 -21 8.5 -27.5t34.5 -6.5t34.5 6.5t8.5 27.5q2 17 9 21.5t32 4.5q26 0 33.5 -6t7.5 -27q0 -62 -27.5 -87t-97.5 -25z" />
    <glyph glyph-name="ubreve" unicode="&#x16d;" horiz-adv-x="506" 
d="M186 -10q-76 0 -105.5 30t-29.5 102v337q0 22 11.5 28t46.5 6t46.5 -6t11.5 -28v-308q0 -36 12.5 -48.5t50.5 -12.5q58 0 80.5 36.5t22.5 125.5v207q0 22 11.5 28t46.5 6t46.5 -6t11.5 -28v-254q0 -51 5.5 -90t10.5 -60.5t5 -27.5q0 -15 -10.5 -21t-43.5 -6
q-30 0 -39.5 5t-14.5 25l-13 50q-41 -90 -163 -90zM250 548q-70 0 -97.5 25t-27.5 87q0 21 7.5 27t33.5 6q25 0 32 -4.5t9 -21.5q2 -21 8.5 -27.5t34.5 -6.5t34.5 6.5t8.5 27.5q2 17 9 21.5t32 4.5q26 0 33.5 -6t7.5 -27q0 -62 -27.5 -87t-97.5 -25z" />
    <glyph glyph-name="Uring" unicode="&#x16e;" horiz-adv-x="527" 
d="M263 -7q-115 0 -162.5 43t-47.5 148v403q0 21 11.5 27.5t46.5 6.5t46.5 -6.5t11.5 -27.5v-409q0 -49 19 -67.5t75 -18.5t75 18.5t19 67.5v409q0 21 11.5 27.5t46.5 6.5t46.5 -6.5t11.5 -27.5v-403q0 -105 -47.5 -148t-162.5 -43zM262 742q28 0 35.5 6.5t7.5 26.5
t-7.5 26.5t-35.5 6.5q-27 0 -34 -6.5t-7 -26.5t7 -26.5t34 -6.5zM262 670q-68 0 -95.5 22t-27.5 83q0 60 27.5 82.5t95.5 22.5q69 0 96.5 -22t27.5 -83t-27 -83t-97 -22z" />
    <glyph glyph-name="uring" unicode="&#x16f;" horiz-adv-x="506" 
d="M186 -10q-76 0 -105.5 30t-29.5 102v337q0 22 11.5 28t46.5 6t46.5 -6t11.5 -28v-308q0 -36 12.5 -48.5t50.5 -12.5q58 0 80.5 36.5t22.5 125.5v207q0 22 11.5 28t46.5 6t46.5 -6t11.5 -28v-254q0 -51 5.5 -90t10.5 -60.5t5 -27.5q0 -15 -10.5 -21t-43.5 -6
q-30 0 -39.5 5t-14.5 25l-13 50q-41 -90 -163 -90zM250 619q28 0 35.5 6.5t7.5 26.5t-7.5 26.5t-35.5 6.5q-27 0 -34 -6.5t-7 -26.5t7 -26.5t34 -6.5zM250 547q-68 0 -95.5 22t-27.5 83q0 60 27.5 82.5t95.5 22.5q69 0 96.5 -22t27.5 -83t-27 -83t-97 -22z" />
    <glyph glyph-name="Uhungarumlaut" unicode="&#x170;" horiz-adv-x="527" 
d="M263 -7q-115 0 -162.5 43t-47.5 148v403q0 21 11.5 27.5t46.5 6.5t46.5 -6.5t11.5 -27.5v-409q0 -49 19 -67.5t75 -18.5t75 18.5t19 67.5v409q0 21 11.5 27.5t46.5 6.5t46.5 -6.5t11.5 -27.5v-403q0 -105 -47.5 -148t-162.5 -43zM135 686q0 8 36 125q4 13 15 17.5t48 4.5
q32 0 43 -3q14 -4 14 -18q0 -17 -53 -123q-7 -14 -17 -19t-42 -5q-26 0 -35 5t-9 16zM286 686q0 9 52 126q5 12 16.5 16.5t45.5 4.5q33 0 44 -4q15 -5 15 -17q0 -17 -70 -122q-7 -11 -11.5 -15t-16 -7t-33.5 -3q-25 0 -33.5 5t-8.5 16z" />
    <glyph glyph-name="uhungarumlaut" unicode="&#x171;" horiz-adv-x="506" 
d="M186 -10q-76 0 -105.5 30t-29.5 102v337q0 22 11.5 28t46.5 6t46.5 -6t11.5 -28v-308q0 -36 12.5 -48.5t50.5 -12.5q58 0 80.5 36.5t22.5 125.5v207q0 22 11.5 28t46.5 6t46.5 -6t11.5 -28v-254q0 -51 5.5 -90t10.5 -60.5t5 -27.5q0 -15 -10.5 -21t-43.5 -6
q-30 0 -39.5 5t-14.5 25l-13 50q-41 -90 -163 -90zM117 560q0 8 36 125q4 13 15 17.5t48 4.5q32 0 43 -3q14 -4 14 -18q0 -17 -53 -123q-7 -14 -17 -19t-42 -5q-26 0 -35 5t-9 16zM268 560q0 9 52 126q5 12 16.5 16.5t45.5 4.5q33 0 44 -4q15 -5 15 -17q0 -17 -70 -122
q-7 -11 -11.5 -15t-16 -7t-33.5 -3q-25 0 -33.5 5t-8.5 16z" />
    <glyph glyph-name="Uogonek" unicode="&#x172;" horiz-adv-x="527" 
d="M370 -1q-82 -40 -82 -85q0 -18 16 -18q7 0 15.5 1t13.5 1q11 0 16 -7.5t5 -30.5q0 -24 -6 -32t-23 -14q-34 -10 -65 -10q-40 0 -59 17t-19 58q0 68 61 115q-103 3 -146.5 46t-43.5 144v403q0 21 11.5 27.5t46.5 6.5t46.5 -6.5t11.5 -27.5v-409q0 -49 19 -67.5t75 -18.5
t75 18.5t19 67.5v409q0 21 11.5 27.5t46.5 6.5t46.5 -6.5t11.5 -27.5v-403q0 -72 -21.5 -114t-81.5 -71z" />
    <glyph glyph-name="uogonek" unicode="&#x173;" horiz-adv-x="506" 
d="M375 -196q-39 0 -58.5 17t-19.5 58q0 35 17 62.5t59 66.5q-5 5 -8 17l-16 54q-41 -89 -163 -89q-76 0 -105.5 30t-29.5 102v337q0 22 11.5 28t46.5 6t46.5 -6t11.5 -28v-308q0 -36 12.5 -48.5t50.5 -12.5q58 0 80.5 36.5t22.5 125.5v207q0 22 11.5 28t46.5 6t46.5 -6
t11.5 -28v-254q0 -51 5.5 -90t10.5 -60.5t5 -27.5q0 -17 -28 -49q-38 -42 -38 -64q0 -11 3 -14.5t12 -3.5q7 0 15.5 1t13.5 1q12 0 17 -7.5t5 -30.5q0 -24 -6 -32t-23 -14q-34 -10 -66 -10z" />
    <glyph glyph-name="Wcircumflex" unicode="&#x174;" horiz-adv-x="802" 
d="M214 0q-53 0 -72.5 8.5t-25.5 38.5l-98 512q-4 26 -4 35q0 16 10.5 21.5t45.5 5.5q38 0 51 -6.5t15 -26.5l80 -481h12l95 467q4 23 20.5 30t57.5 7q40 0 56.5 -7t21.5 -30l96 -467h11l80 481q2 20 15 26.5t51 6.5q35 0 45.5 -5.5t10.5 -21.5q0 -5 -1.5 -18t-1.5 -17
l-98 -512q-6 -30 -26 -38.5t-73 -8.5q-50 0 -70.5 10t-27.5 40l-84 401h-10l-83 -401q-7 -30 -27.5 -40t-71.5 -10zM404 751h-6l-39 -60q-10 -16 -22.5 -21t-39.5 -5q-38 0 -38 20q0 11 13 34l53 90q8 14 18 19t34 5h48q24 0 34 -5t18 -19l53 -90q13 -23 13 -34
q0 -20 -38 -20q-27 0 -38.5 5t-22.5 21z" />
    <glyph glyph-name="wcircumflex" unicode="&#x175;" horiz-adv-x="709" 
d="M191 0q-50 0 -68.5 8.5t-23.5 33.5l-75 375q-5 24 -5 43q0 20 10.5 26.5t47.5 6.5q38 0 50 -6.5t14 -28.5l60 -354h11l70 342q4 22 19 29.5t54 7.5q38 0 53 -7.5t19 -29.5l70 -342h11l60 354q4 23 15.5 29t49.5 6q37 0 47 -6.5t10 -26.5q0 -19 -5 -43l-75 -375
q-5 -25 -23 -33.5t-68 -8.5q-54 0 -75.5 8.5t-26.5 33.5l-58 272h-8l-59 -272q-5 -25 -26 -33.5t-75 -8.5zM357 625h-6l-39 -60q-10 -16 -22.5 -21t-39.5 -5q-38 0 -38 20q0 11 13 34l53 90q8 14 18 19t34 5h48q24 0 34 -5t18 -19l53 -90q13 -23 13 -34q0 -20 -38 -20
q-27 0 -38.5 5t-22.5 21z" />
    <glyph glyph-name="Ycircumflex" unicode="&#x176;" horiz-adv-x="474" 
d="M237 0q-35 0 -46.5 6.5t-11.5 27.5v194l-150 320q-15 31 -15 46q0 27 51 27q42 0 54.5 -6t21.5 -27l94 -239h5l93 239q8 22 20.5 27.5t53.5 5.5q54 0 54 -26q0 -14 -16 -47l-150 -320v-194q0 -21 -11.5 -27.5t-46.5 -6.5zM241 751h-6l-39 -60q-10 -16 -22.5 -21t-39.5 -5
q-38 0 -38 20q0 11 13 34l53 90q8 14 18 19t34 5h48q24 0 34 -5t18 -19l53 -90q13 -23 13 -34q0 -20 -38 -20q-27 0 -38.5 5t-22.5 21z" />
    <glyph glyph-name="ycircumflex" unicode="&#x177;" horiz-adv-x="471" 
d="M19 463q0 16 11.5 23t48.5 7q35 0 46.5 -5.5t16.5 -24.5l86 -366h11l90 366q5 19 16.5 24.5t45.5 5.5q37 0 49.5 -6.5t12.5 -22.5q0 -19 -16 -73l-125 -426q-14 -49 -26 -76.5t-31 -48.5t-44.5 -28.5t-65.5 -7.5q-57 0 -97 14q-15 5 -21 14.5t-6 33.5q0 47 21 47
q1 0 30.5 -4.5t59.5 -4.5q38 0 51 10.5t22 43.5l10 42q-43 0 -59 11t-25 42l-94 325q-18 61 -18 85zM239 625h-6l-39 -60q-10 -16 -22.5 -21t-39.5 -5q-38 0 -38 20q0 11 13 34l53 90q8 14 18 19t34 5h48q24 0 34 -5t18 -19l53 -90q13 -23 13 -34q0 -20 -38 -20
q-27 0 -38.5 5t-22.5 21z" />
    <glyph glyph-name="Ydieresis" unicode="&#x178;" horiz-adv-x="474" 
d="M237 0q-35 0 -46.5 6.5t-11.5 27.5v194l-150 320q-15 31 -15 46q0 27 51 27q42 0 54.5 -6t21.5 -27l94 -239h5l93 239q8 22 20.5 27.5t53.5 5.5q54 0 54 -26q0 -14 -16 -47l-150 -320v-194q0 -21 -11.5 -27.5t-46.5 -6.5zM154 682q-38 0 -49 8t-11 35v16q0 27 10.5 35
t49.5 8t49.5 -8t10.5 -35v-16q0 -27 -11 -35t-49 -8zM321 682q-38 0 -48.5 8t-10.5 35v16q0 27 10.5 35t48.5 8q39 0 49.5 -8t10.5 -35v-16q0 -27 -11 -35t-49 -8z" />
    <glyph glyph-name="Zacute" unicode="&#x179;" horiz-adv-x="414" 
d="M260 518h-196q-18 0 -24.5 10t-6.5 41t6.5 41.5t24.5 10.5h300q19 0 25 -10t6 -38q0 -30 -25 -75l-220 -395h218q18 0 24.5 -10.5t6.5 -41.5q0 -30 -6.5 -40.5t-24.5 -10.5h-323q-19 0 -25 9.5t-6 38.5q0 28 28 79zM192 665q-48 0 -48 21q0 11 11 35l33 74q12 26 22 32
t47 6q36 0 48 -6.5t12 -20.5q0 -12 -14 -37l-44 -74q-7 -12 -12 -17t-18 -9t-37 -4z" />
    <glyph glyph-name="zacute" unicode="&#x17a;" horiz-adv-x="400" 
d="M376 49q0 -49 -25 -49h-304q-15 0 -20.5 10.5t-5.5 34.5q0 28 6 45.5t24 41.5l196 262h-180q-26 0 -26 49q0 50 26 50h284q25 0 25 -45q0 -47 -23 -78l-203 -271h201q25 0 25 -50zM187 539q-48 0 -48 21q0 11 11 35l33 74q12 26 22 32t47 6q36 0 48 -6.5t12 -20.5
q0 -12 -14 -37l-44 -74q-10 -18 -21.5 -24t-45.5 -6z" />
    <glyph glyph-name="Zdotaccent" unicode="&#x17b;" horiz-adv-x="414" 
d="M260 518h-196q-18 0 -24.5 10t-6.5 41t6.5 41.5t24.5 10.5h300q19 0 25 -10t6 -38q0 -30 -25 -75l-220 -395h218q18 0 24.5 -10.5t6.5 -41.5q0 -30 -6.5 -40.5t-24.5 -10.5h-323q-19 0 -25 9.5t-6 38.5q0 28 28 79zM211 682q-41 0 -52 8t-11 35v16q0 27 11 35t52 8
q42 0 52.5 -7.5t10.5 -35.5v-16q0 -27 -10.5 -35t-52.5 -8z" />
    <glyph glyph-name="zdotaccent" unicode="&#x17c;" horiz-adv-x="400" 
d="M376 49q0 -49 -25 -49h-304q-15 0 -20.5 10.5t-5.5 34.5q0 28 6 45.5t24 41.5l196 262h-180q-26 0 -26 49q0 50 26 50h284q25 0 25 -45q0 -47 -23 -78l-203 -271h201q25 0 25 -50zM209 553q-41 0 -52 8t-11 35v16q0 28 11 35.5t52 7.5q42 0 52.5 -7.5t10.5 -35.5v-16
q0 -27 -10.5 -35t-52.5 -8z" />
    <glyph glyph-name="Zcaron" unicode="&#x17d;" horiz-adv-x="414" 
d="M260 518h-196q-18 0 -24.5 10t-6.5 41t6.5 41.5t24.5 10.5h300q19 0 25 -10t6 -38q0 -30 -25 -75l-220 -395h218q18 0 24.5 -10.5t6.5 -41.5q0 -30 -6.5 -40.5t-24.5 -10.5h-323q-19 0 -25 9.5t-6 38.5q0 28 28 79zM69 813q0 20 39 20q27 0 38.5 -4.5t22.5 -21.5l40 -59
h6l39 59q11 16 23 21t39 5q38 0 38 -20q0 -11 -13 -33l-53 -91q-7 -14 -17.5 -19t-34.5 -5h-48q-24 0 -34.5 5t-18.5 19l-52 91q-14 24 -14 33z" />
    <glyph glyph-name="zcaron" unicode="&#x17e;" horiz-adv-x="400" 
d="M376 49q0 -49 -25 -49h-304q-15 0 -20.5 10.5t-5.5 34.5q0 28 6 45.5t24 41.5l196 262h-180q-26 0 -26 49q0 50 26 50h284q25 0 25 -45q0 -47 -23 -78l-203 -271h201q25 0 25 -50zM67 687q0 20 39 20q27 0 38.5 -4.5t22.5 -21.5l40 -59h6l39 59q11 16 23 21t39 5
q38 0 38 -20q0 -11 -13 -33l-53 -91q-7 -14 -17.5 -19t-34.5 -5h-48q-24 0 -34.5 5t-18.5 19l-52 91q-14 24 -14 33z" />
    <glyph glyph-name="florin" unicode="&#x192;" 
d="M102 382q0 26 5 35t21 9h59l11 79q10 69 36.5 95t85.5 26q41 0 81 -9q16 -4 21.5 -12t5.5 -32q0 -46 -21 -46q-3 0 -23 2t-36 2q-22 0 -28.5 -9t-10.5 -43l-7 -53h60q15 0 20 -9t5 -35t-5 -35t-20 -9h-71l-29 -227q-9 -68 -37 -94.5t-87 -26.5q-37 0 -75 9
q-17 4 -22 11.5t-5 32.5q0 46 20 46q3 0 20.5 -2.5t33.5 -2.5q22 0 28 9t11 43l27 202h-48q-16 0 -21 9t-5 35z" />
    <glyph glyph-name="AEacute" unicode="&#x1fc;" horiz-adv-x="728" 
d="M70 0q-35 0 -45.5 5.5t-10.5 21.5q0 7 7 35l136 506q10 35 29.5 44t79.5 9h397q18 0 24.5 -10.5t6.5 -41.5t-6.5 -41t-24.5 -10h-215v-142h154q20 0 25.5 -9.5t5.5 -40.5q0 -32 -6 -41.5t-25 -9.5h-154v-172h225q18 0 24.5 -10.5t6.5 -41.5q0 -30 -6.5 -40.5t-24.5 -10.5
h-305q-21 0 -28.5 6t-7.5 25v136h-163l-33 -134q-5 -21 -17 -27t-49 -6zM259 523l-67 -267h140v267h-73zM385 665q-48 0 -48 21q0 11 11 35l33 74q12 26 22 32t47 6q36 0 48 -6.5t12 -20.5q0 -12 -14 -37l-44 -74q-10 -17 -21.5 -23.5t-45.5 -6.5z" />
    <glyph glyph-name="aeacute" unicode="&#x1fd;" horiz-adv-x="741" 
d="M501 -10q-108 0 -142 36q-22 22 -32 72q-36 -108 -165 -108q-67 0 -98 34t-31 112q0 80 42 114t148 34h87v50q0 46 -16.5 58t-65.5 12q-43 0 -92 -8t-53 -8q-21 0 -21 46q0 25 5.5 34.5t19.5 14.5q64 20 156 20q106 0 141 -35q46 35 141 35q57 0 92.5 -13t54 -44.5
t24.5 -71t6 -104.5q0 -29 -9 -41.5t-35 -12.5h-233q1 -59 11.5 -85.5t27.5 -33.5t57 -7q39 0 74.5 4t56 8.5t24.5 4.5q19 0 19 -47q0 -24 -6 -34t-21 -16q-55 -20 -167 -20zM203 83q45 0 76 26.5t31 78.5v27l-87 -3q-47 -1 -63 -14.5t-16 -49.5q0 -40 13 -52.5t46 -12.5z
M514 406q-52 0 -69.5 -21t-19.5 -97h168q0 70 -13 94t-66 24zM370 539q-48 0 -48 21q0 11 11 35l33 74q12 26 22 32t47 6q36 0 48 -6.5t12 -20.5q0 -12 -14 -37l-44 -74q-10 -18 -21.5 -24t-45.5 -6z" />
    <glyph glyph-name="Oslashacute" unicode="&#x1fe;" horiz-adv-x="529" 
d="M238 665q-48 0 -48 21q0 11 11 35l33 74q12 26 22 32t47 6q36 0 48 -6.5t12 -20.5q0 -12 -14 -37l-44 -74q-10 -17 -21.5 -23.5t-45.5 -6.5zM264 -7q-64 0 -100 8t-67 36t-43.5 84.5t-12.5 150.5v69q0 96 10.5 152t40 86t67 38.5t105.5 8.5t106 -8.5t67.5 -38.5t40 -86
t10.5 -152v-69q0 -76 -9.5 -127t-25 -81t-46 -46t-61.5 -20.5t-82 -4.5zM157 242l203 236q-9 29 -30.5 38.5t-65.5 9.5q-37 0 -56 -5t-31.5 -26.5t-16 -56.5t-3.5 -102v-94zM264 93q36 0 55 5.5t32 26t17 56.5t4 102v86l-199 -232q11 -27 31 -35.5t60 -8.5z" />
    <glyph glyph-name="oslashacute" unicode="&#x1ff;" horiz-adv-x="503" 
d="M228 539q-48 0 -48 21q0 11 11 35l33 74q12 26 22 32t47 6q36 0 48 -6.5t12 -20.5q0 -12 -14 -37l-44 -74q-7 -12 -12 -17t-18 -9t-37 -4zM243 -10q-79 0 -120 19.5t-60.5 73.5t-19.5 160t22.5 162.5t67 77t126.5 20.5q80 0 120.5 -19t60 -72.5t19.5 -158.5
q0 -156 -47 -209.5t-169 -53.5zM247 87q59 0 76.5 29.5t17.5 127.5q0 10 -0.5 27.5t-0.5 24.5l-166 -172q15 -37 73 -37zM161 251q0 -38 1 -54l166 175q-9 19 -25.5 26t-47.5 7q-60 0 -77 -28.5t-17 -125.5z" />
    <glyph glyph-name="Scommaaccent" unicode="&#x218;" horiz-adv-x="457" 
d="M208 -7q-84 0 -143 18q-16 5 -22.5 15.5t-6.5 39.5q0 28 4.5 37t15.5 9q3 0 46.5 -8t87.5 -8q61 0 89.5 17.5t28.5 61.5q0 33 -9 48t-39 29l-115 51q-51 23 -74 56t-23 99q0 96 48.5 132t128.5 36q85 0 156 -19q13 -3 18.5 -13.5t5.5 -40.5q0 -46 -20 -46q-1 0 -45 7.5
t-87 7.5q-52 0 -72 -11.5t-20 -53.5q0 -27 10 -39t38 -24l114 -51q54 -24 76 -58.5t22 -103.5q0 -188 -213 -188zM206 -239q-21 0 -28.5 5t-7.5 16q0 7 5.5 50.5t5.5 76.5q0 28 10.5 36.5t48.5 8.5q34 0 46.5 -7t12.5 -27q0 -46 -13 -73l-23 -58q-8 -17 -18 -22.5t-39 -5.5z
" />
    <glyph glyph-name="scommaaccent" unicode="&#x219;" horiz-adv-x="437" 
d="M201 -10q-79 0 -136 18q-15 5 -20.5 15t-5.5 35q0 47 19 47q1 0 47 -7.5t84 -7.5q51 0 71.5 13.5t20.5 43.5t-32 42l-119 51q-75 31 -75 124q0 139 167 139q76 0 141 -17q15 -4 20.5 -14t5.5 -39q0 -45 -21 -45q-2 0 -46 8.5t-78 8.5q-39 0 -55 -10.5t-16 -33.5
q0 -31 31 -43l116 -47q44 -17 61 -45t17 -75q0 -161 -197 -161zM190 -239q-21 0 -28.5 5t-7.5 16q0 7 5.5 50.5t5.5 76.5q0 28 10.5 36.5t48.5 8.5q34 0 46.5 -7t12.5 -27q0 -46 -13 -73l-23 -58q-8 -17 -18 -22.5t-39 -5.5z" />
    <glyph glyph-name="dotlessj" unicode="&#x237;" horiz-adv-x="222" 
d="M109 493q35 0 46.5 -6t11.5 -28v-528q0 -68 -28.5 -97.5t-86.5 -29.5q-41 0 -81 11q-16 5 -22.5 14.5t-6.5 34.5q0 28 5 36.5t16 8.5q4 0 22 -2.5t29 -2.5q23 0 30 9t7 42v504q0 22 11.5 28t46.5 6z" />
    <glyph glyph-name="circumflex" unicode="&#x2c6;" horiz-adv-x="334" 
d="M185 625h-6l-39 -60q-10 -16 -22.5 -21t-39.5 -5q-38 0 -38 20q0 11 13 34l53 90q8 14 18 19t34 5h48q24 0 34 -5t18 -19l53 -90q13 -23 13 -34q0 -20 -38 -20q-27 0 -38.5 5t-22.5 21z" />
    <glyph glyph-name="caron" unicode="&#x2c7;" horiz-adv-x="334" 
d="M24 687q0 20 39 20q27 0 38.5 -4.5t22.5 -21.5l40 -59h6l39 59q11 16 23 21t39 5q38 0 38 -20q0 -11 -13 -33l-53 -91q-7 -14 -17.5 -19t-34.5 -5h-48q-24 0 -34.5 5t-18.5 19l-52 91q-14 24 -14 33z" />
    <glyph glyph-name="breve" unicode="&#x2d8;" horiz-adv-x="298" 
d="M149 548q-70 0 -97.5 25t-27.5 87q0 21 7.5 27t33.5 6q25 0 32 -4.5t9 -21.5q2 -21 8.5 -27.5t34.5 -6.5t34.5 6.5t8.5 27.5q2 17 9 21.5t32 4.5q26 0 33.5 -6t7.5 -27q0 -62 -27.5 -87t-97.5 -25z" />
    <glyph glyph-name="dotaccent" unicode="&#x2d9;" horiz-adv-x="175" 
d="M86 553q-41 0 -52 8t-11 35v16q0 28 11 35.5t52 7.5q42 0 52.5 -7.5t10.5 -35.5v-16q0 -27 -10.5 -35t-52.5 -8z" />
    <glyph glyph-name="ring" unicode="&#x2da;" horiz-adv-x="296" 
d="M147 619q28 0 35.5 6.5t7.5 26.5t-7.5 26.5t-35.5 6.5q-27 0 -34 -6.5t-7 -26.5t7 -26.5t34 -6.5zM147 547q-68 0 -95.5 22t-27.5 83q0 60 27.5 82.5t95.5 22.5q69 0 96.5 -22t27.5 -83t-27 -83t-97 -22z" />
    <glyph glyph-name="ogonek" unicode="&#x2db;" horiz-adv-x="221" 
d="M103 -196q-40 0 -59.5 17t-19.5 58q0 45 27.5 80.5t98.5 100.5h47q0 -24 -6.5 -39t-27.5 -43q-32 -41 -32 -64q0 -18 16 -18q7 0 15.5 1t13.5 1q11 0 16 -7.5t5 -30.5q0 -24 -6 -32t-23 -14q-34 -10 -65 -10z" />
    <glyph glyph-name="tilde" unicode="&#x2dc;" horiz-adv-x="335" 
d="M24 598q0 24 5.5 33.5t20.5 19.5q30 19 65 19q25 0 60.5 -10t52.5 -10q20 0 42 8.5t25 8.5q9 0 12.5 -7t3.5 -32q0 -23 -5.5 -33.5t-20.5 -20.5q-30 -18 -65 -18q-25 0 -60 10t-52 10q-21 0 -43 -8.5t-25 -8.5q-9 0 -12.5 7t-3.5 32z" />
    <glyph glyph-name="hungarumlaut" unicode="&#x2dd;" horiz-adv-x="372" 
d="M24 560q0 8 36 125q4 13 15 17.5t48 4.5q33 0 43 -3q14 -4 14 -18q0 -17 -53 -123q-7 -14 -17 -19t-42 -5q-26 0 -35 5t-9 16zM175 560q0 9 52 126q5 12 16.5 16.5t45.5 4.5q33 0 44 -4q15 -5 15 -17q0 -17 -70 -122q-7 -11 -11.5 -15t-16 -7t-33.5 -3q-25 0 -33.5 5
t-8.5 16z" />
    <glyph glyph-name="afii10023" unicode="&#x401;" horiz-adv-x="455" 
d="M431 51q0 -30 -6.5 -40.5t-24.5 -10.5h-311q-21 0 -28.5 6t-7.5 25v559q0 19 7.5 25t28.5 6h301q18 0 24.5 -10.5t6.5 -41.5t-6.5 -41t-24.5 -10h-221v-142h160q20 0 25.5 -9.5t5.5 -40.5q0 -32 -6 -41.5t-25 -9.5h-160v-172h231q18 0 24.5 -10.5t6.5 -41.5zM151 681
q-38 0 -49 8t-11 35v16q0 27 10.5 35t49.5 8t49.5 -8t10.5 -35v-16q0 -27 -11 -35t-49 -8zM318 681q-38 0 -48.5 8t-10.5 35v16q0 27 10.5 35t48.5 8q39 0 49.5 -8t10.5 -35v-16q0 -27 -11 -35t-49 -8z" />
    <glyph glyph-name="afii10051" unicode="&#x402;" horiz-adv-x="585" 
d="M210 0q-35 0 -46.5 6t-11.5 28v484h-111q-18 0 -24.5 10t-6.5 41t6.5 41.5t24.5 10.5h343q18 0 24.5 -10.5t6.5 -41.5t-6.5 -41t-24.5 -10h-116v-132q40 70 137 70q71 0 98.5 -32t27.5 -105v-207q0 -64 -26.5 -90.5t-79.5 -26.5q-32 0 -65 7q-18 5 -24.5 15.5t-6.5 36.5
q0 29 4.5 37t16.5 8q2 0 15 -2t22 -2q18 0 23 9t5 42v145q0 37 -13 51t-50 14q-43 0 -63.5 -32t-20.5 -105v-185q0 -22 -11.5 -28t-46.5 -6z" />
    <glyph glyph-name="afii10052" unicode="&#x403;" horiz-adv-x="405" 
d="M186 674q-48 0 -48 21q0 11 11 35l33 74q12 26 22 32t47 6q36 0 48 -6.5t12 -20.5q0 -13 -14 -37l-44 -74q-10 -18 -21.5 -24t-45.5 -6zM111 0q-35 0 -46.5 6.5t-11.5 27.5v556q0 19 7.5 25t28.5 6h271q18 0 24.5 -10.5t6.5 -41.5t-6.5 -41t-24.5 -10h-191v-484
q0 -21 -11.5 -27.5t-46.5 -6.5z" />
    <glyph glyph-name="afii10053" unicode="&#x404;" horiz-adv-x="453" 
d="M375 320q0 -29 -5.5 -37.5t-25.5 -8.5h-192q0 -64 5 -99t21.5 -53.5t36 -22.5t60.5 -4q43 0 86 7.5t45 7.5q11 0 14.5 -9.5t3.5 -36.5q0 -29 -5.5 -39.5t-18.5 -13.5q-70 -18 -150 -18q-33 0 -55.5 3t-49 11.5t-43.5 26.5t-32 46.5t-22 73.5t-7 104v88q0 63 7 110.5
t22.5 77.5t33 49t44.5 28t50.5 12t57.5 3q75 0 144 -18q13 -3 18.5 -13t5.5 -39q0 -46 -18 -46q-1 0 -42.5 6.5t-79.5 6.5q-56 0 -80.5 -9.5t-37 -42.5t-14.5 -105h192q20 0 25.5 -8.5t5.5 -37.5z" />
    <glyph glyph-name="afii10054" unicode="&#x405;" horiz-adv-x="457" 
d="M208 -7q-84 0 -143 18q-16 5 -22.5 15.5t-6.5 39.5q0 28 4.5 37t15.5 9q3 0 46.5 -8t87.5 -8q61 0 89.5 17.5t28.5 61.5q0 33 -9 48t-39 29l-115 51q-51 23 -74 56t-23 99q0 96 48.5 132t128.5 36q85 0 156 -19q13 -3 18.5 -13.5t5.5 -40.5q0 -46 -20 -46q-1 0 -45 7.5
t-87 7.5q-52 0 -72 -11.5t-20 -53.5q0 -27 10 -39t38 -24l114 -51q54 -24 76 -58.5t22 -103.5q0 -188 -213 -188z" />
    <glyph glyph-name="afii10055" unicode="&#x406;" horiz-adv-x="223" 
d="M111 0q-35 0 -46.5 6.5t-11.5 27.5v553q0 21 11.5 27.5t46.5 6.5t46.5 -6.5t11.5 -27.5v-553q0 -21 -11.5 -27.5t-46.5 -6.5z" />
    <glyph glyph-name="afii10056" unicode="&#x407;" horiz-adv-x="223" 
d="M111 0q-35 0 -46.5 6.5t-11.5 27.5v553q0 21 11.5 27.5t46.5 6.5t46.5 -6.5t11.5 -27.5v-553q0 -21 -11.5 -27.5t-46.5 -6.5zM28 679q-38 0 -49 8t-11 35v16q0 27 10.5 35t49.5 8t49.5 -8t10.5 -35v-16q0 -27 -11 -35t-49 -8zM195 679q-38 0 -48.5 8t-10.5 35v16
q0 27 10.5 35t48.5 8q39 0 49.5 -8t10.5 -35v-16q0 -27 -11 -35t-49 -8z" />
    <glyph glyph-name="afii10057" unicode="&#x408;" horiz-adv-x="348" 
d="M141 -7q-56 0 -106 14q-16 5 -22 15t-6 39q0 27 4 34.5t16 7.5q6 0 34 -4t50 -4q40 0 54 15t14 60v417q0 21 11.5 27.5t46.5 6.5t46.5 -6.5t11.5 -27.5v-417q0 -96 -36.5 -136.5t-117.5 -40.5z" />
    <glyph glyph-name="afii10058" unicode="&#x409;" horiz-adv-x="834" 
d="M103 -7q-39 0 -65 6q-16 3 -22 14t-6 41q0 26 4.5 33.5t15.5 7.5q5 0 15.5 -1.5t18.5 -1.5q16 0 22.5 7.5t9.5 34.5l48 458q2 17 9 23t27 6h282q21 0 28.5 -6t7.5 -25v-219q67 8 137 8q97 0 130 -43.5t33 -150.5q0 -111 -44 -151.5t-174 -40.5q-104 0 -163 7
q-22 2 -28.5 9.5t-6.5 27.5v481h-136l-48 -438q-5 -46 -27 -66.5t-68 -20.5zM587 286q-32 0 -89 -3v-194q44 -4 88 -4q61 0 77 18.5t16 85.5q0 61 -17.5 79t-74.5 18z" />
    <glyph glyph-name="afii10059" unicode="&#x40a;" horiz-adv-x="813" 
d="M111 0q-35 0 -46.5 6.5t-11.5 27.5v553q0 21 11.5 27.5t46.5 6.5t46.5 -6.5t11.5 -27.5v-221h193v221q0 21 11.5 27.5t46.5 6.5t46.5 -6.5t11.5 -27.5v-216q67 8 136 8q97 0 130.5 -43.5t33.5 -150.5q0 -111 -44 -151.5t-174 -40.5q-104 0 -163 7q-22 2 -28.5 9.5
t-6.5 27.5v231h-193v-234q0 -21 -11.5 -27.5t-46.5 -6.5zM566 286q-31 0 -88 -3v-194q44 -4 87 -4q62 0 78 18.5t16 85.5q0 60 -18 78.5t-75 18.5z" />
    <glyph glyph-name="afii10060" unicode="&#x40b;" horiz-adv-x="585" 
d="M210 0q-35 0 -46.5 6t-11.5 28v484h-111q-18 0 -24.5 10t-6.5 41t6.5 41.5t24.5 10.5h343q18 0 24.5 -10.5t6.5 -41.5t-6.5 -41t-24.5 -10h-116v-132q40 70 137 70q71 0 98.5 -32t27.5 -105v-285q0 -22 -11.5 -28t-45.5 -6q-35 0 -47 6t-12 28v257q0 37 -13 51t-50 14
q-43 0 -63.5 -32t-20.5 -105v-185q0 -22 -11.5 -28t-46.5 -6z" />
    <glyph glyph-name="afii10061" unicode="&#x40c;" horiz-adv-x="484" 
d="M111 0q-35 0 -46.5 6.5t-11.5 27.5v553q0 21 11.5 27.5t46.5 6.5t46.5 -6.5t11.5 -27.5v-236h16l143 242q11 18 23.5 23t51.5 5q31 0 42.5 -5.5t11.5 -18.5q0 -12 -13 -33l-158 -250l163 -242q20 -31 20 -46q0 -13 -12 -19.5t-49 -6.5q-31 0 -44.5 5.5t-23.5 21.5
l-155 248h-16v-241q0 -21 -11.5 -27.5t-46.5 -6.5zM210 674q-48 0 -48 21q0 11 11 35l33 74q12 26 22 32t47 6q36 0 48 -6.5t12 -20.5q0 -13 -14 -37l-44 -74q-7 -12 -12 -17t-18 -9t-37 -4z" />
    <glyph glyph-name="afii10062" unicode="&#x40e;" horiz-adv-x="488" 
d="M244 683q-70 0 -97.5 25t-27.5 87q0 21 7.5 27t33.5 6q25 0 32 -4.5t9 -21.5q2 -21 8.5 -27.5t34.5 -6.5t34.5 6.5t8.5 27.5q2 17 9 21.5t32 4.5q26 0 33.5 -6t7.5 -27q0 -62 -27.5 -87t-97.5 -25zM14 597q0 24 57 24q35 0 47.5 -6t17.5 -24l105 -330h10l100 327
q6 21 17.5 27t50.5 6q55 0 55 -24q0 -15 -14 -54l-161 -443q-19 -54 -51.5 -79.5t-89.5 -25.5q-58 0 -93 9q-16 4 -22 14t-6 39q0 28 4 35.5t15 7.5q7 0 33.5 -3t46.5 -3q37 0 54.5 12t28.5 49l3 11h-6q-30 0 -43.5 10t-21.5 33l-123 333q-14 37 -14 55z" />
    <glyph glyph-name="afii10145" unicode="&#x40f;" horiz-adv-x="526" 
d="M263 -106q-26 0 -32 5t-8 26l-5 75h-129q-21 0 -28.5 6t-7.5 25v556q0 21 11.5 27.5t46.5 6.5t46.5 -6.5t11.5 -27.5v-484h187v484q0 21 11.5 27.5t46.5 6.5t46.5 -6.5t11.5 -27.5v-556q0 -19 -7.5 -25t-28.5 -6h-130l-4 -75q-1 -21 -7 -26t-32 -5z" />
    <glyph glyph-name="afii10017" unicode="&#x410;" horiz-adv-x="532" 
d="M70 0q-35 0 -45.5 5.5t-10.5 21.5q0 7 7 35l136 506q9 35 28.5 44t80.5 9q60 0 79 -9t29 -44l137 -506q6 -24 6 -35q0 -15 -10.5 -21t-44.5 -6q-37 0 -49 6t-17 27l-36 134h-191l-33 -134q-5 -20 -17 -26.5t-49 -6.5zM259 523l-67 -267h148l-68 267h-13z" />
    <glyph glyph-name="afii10018" unicode="&#x411;" horiz-adv-x="514" 
d="M254 -7q-107 0 -165 7q-23 3 -29.5 10.5t-6.5 26.5v553q0 19 7.5 25t28.5 6h314q18 0 24.5 -10.5t6.5 -41.5t-6.5 -41t-24.5 -10h-234v-153q72 8 143 8q98 0 131 -42t33 -149q0 -109 -45.5 -149t-176.5 -40zM265 281q-41 0 -96 -4v-187q38 -5 91 -5q64 0 80.5 17t16.5 84
q0 60 -17 77.5t-75 17.5z" />
    <glyph glyph-name="afii10019" unicode="&#x412;" horiz-adv-x="517" 
d="M254 -7q-107 0 -165 7q-23 3 -29.5 10.5t-6.5 26.5v542q0 21 7.5 29t27.5 10q66 8 144 8q63 0 99.5 -5t67 -20.5t43 -47t12.5 -83.5q0 -62 -16.5 -96.5t-60.5 -47.5q53 -11 76 -47t23 -111q0 -99 -46 -137t-176 -38zM169 525v-161h74q59 0 75.5 17t16.5 73q0 48 -15 61.5
t-72 13.5q-39 0 -79 -4zM169 281v-191q38 -5 91 -5q64 0 80.5 17t16.5 84q0 58 -17.5 76.5t-74.5 18.5h-96z" />
    <glyph glyph-name="afii10020" unicode="&#x413;" horiz-adv-x="405" 
d="M111 0q-35 0 -46.5 6.5t-11.5 27.5v556q0 19 7.5 25t28.5 6h271q18 0 24.5 -10.5t6.5 -41.5t-6.5 -41t-24.5 -10h-191v-484q0 -21 -11.5 -27.5t-46.5 -6.5z" />
    <glyph glyph-name="afii10021" unicode="&#x414;" horiz-adv-x="558" 
d="M58 -106q-26 0 -35 5.5t-9 24.5v143q0 22 9 29t33 7h17l54 489q2 17 9 23t27 6h289q21 0 28.5 -6t7.5 -25v-487h14q24 0 33 -7t9 -29v-143q0 -19 -9 -24.5t-35 -5.5q-28 0 -37.5 5.5t-13.5 24.5l-16 76h-308l-16 -76q-4 -19 -13.5 -24.5t-37.5 -5.5zM229 518l-44 -415
h187v415h-143z" />
    <glyph glyph-name="afii10022" unicode="&#x415;" horiz-adv-x="455" 
d="M431 51q0 -30 -6.5 -40.5t-24.5 -10.5h-311q-21 0 -28.5 6t-7.5 25v559q0 19 7.5 25t28.5 6h301q18 0 24.5 -10.5t6.5 -41.5t-6.5 -41t-24.5 -10h-221v-142h160q20 0 25.5 -9.5t5.5 -40.5q0 -32 -6 -41.5t-25 -9.5h-160v-172h231q18 0 24.5 -10.5t6.5 -41.5z" />
    <glyph glyph-name="afii10024" unicode="&#x416;" horiz-adv-x="723" 
d="M75 0q-37 0 -48.5 6.5t-11.5 19.5q0 15 19 46l155 242l-150 250q-13 22 -13 33q0 13 11 18.5t43 5.5q39 0 52 -5t23 -23l134 -242h13v236q0 21 11.5 27.5t46.5 6.5t46.5 -6.5t11.5 -27.5v-236h16l134 242q10 18 23 23t52 5q31 0 42.5 -5.5t11.5 -18.5q0 -11 -13 -33
l-150 -250l155 -242q19 -31 19 -46q0 -13 -11.5 -19.5t-48.5 -6.5q-31 0 -44.5 5.5t-23.5 21.5l-146 248h-16v-241q0 -21 -11.5 -27.5t-46.5 -6.5t-46.5 6.5t-11.5 27.5v241h-13l-146 -248q-10 -16 -23.5 -21.5t-44.5 -5.5z" />
    <glyph glyph-name="afii10025" unicode="&#x417;" horiz-adv-x="453" 
d="M89 316q0 27 6 36.5t25 9.5h52q65 0 86 21.5t21 69.5q0 43 -15 57.5t-62 14.5q-40 0 -88.5 -5.5t-50.5 -5.5q-21 0 -21 46q0 30 4.5 38.5t19.5 12.5q60 15 168 15q82 0 122.5 -33.5t40.5 -124.5q0 -61 -28 -100t-79 -47q64 -4 91.5 -39.5t27.5 -108.5q0 -96 -47.5 -138
t-143.5 -42q-102 0 -165 15q-17 4 -23 13.5t-6 38.5q0 28 5 37t16 9q3 0 57 -6t94 -6q57 0 76 21t19 69t-22 67t-96 19h-53q-19 0 -25 10t-6 36z" />
    <glyph glyph-name="afii10026" unicode="&#x418;" horiz-adv-x="552" 
d="M441 0q-35 0 -46.5 6.5t-11.5 27.5v381h-9l-190 -383q-11 -21 -22.5 -26.5t-41.5 -5.5q-42 0 -54.5 6t-12.5 28v553q0 21 11.5 27.5t46.5 6.5t46.5 -6.5t11.5 -27.5v-381h9l186 382q11 22 23 27.5t43 5.5q43 0 56 -6.5t13 -27.5v-553q0 -21 -11.5 -27.5t-46.5 -6.5z" />
    <glyph glyph-name="afii10027" unicode="&#x419;" horiz-adv-x="552" 
d="M277 683q-70 0 -97.5 25t-27.5 87q0 21 7.5 27t33.5 6q25 0 32 -4.5t9 -21.5q2 -21 8.5 -27.5t34.5 -6.5t34.5 6.5t8.5 27.5q2 17 9 21.5t32 4.5q26 0 33.5 -6t7.5 -27q0 -62 -27.5 -87t-97.5 -25zM441 0q-35 0 -46.5 6.5t-11.5 27.5v381h-9l-190 -383
q-11 -21 -22.5 -26.5t-41.5 -5.5q-42 0 -54.5 6t-12.5 28v553q0 21 11.5 27.5t46.5 6.5t46.5 -6.5t11.5 -27.5v-381h9l186 382q11 22 23 27.5t43 5.5q43 0 56 -6.5t13 -27.5v-553q0 -21 -11.5 -27.5t-46.5 -6.5z" />
    <glyph glyph-name="afii10028" unicode="&#x41a;" horiz-adv-x="484" 
d="M111 0q-35 0 -46.5 6.5t-11.5 27.5v553q0 21 11.5 27.5t46.5 6.5t46.5 -6.5t11.5 -27.5v-236h16l143 242q11 18 23.5 23t51.5 5q31 0 42.5 -5.5t11.5 -18.5q0 -12 -13 -33l-158 -250l163 -242q20 -31 20 -46q0 -13 -12 -19.5t-49 -6.5q-31 0 -44.5 5.5t-23.5 21.5
l-155 248h-16v-241q0 -21 -11.5 -27.5t-46.5 -6.5z" />
    <glyph glyph-name="afii10029" unicode="&#x41b;" horiz-adv-x="562" 
d="M450 0q-35 0 -46.5 6.5t-11.5 27.5v484h-141l-48 -438q-5 -46 -27 -66.5t-69 -20.5q-37 0 -65 6q-16 3 -22 14t-6 41q0 26 4.5 33.5t15.5 7.5q6 0 16.5 -1.5t17.5 -1.5q16 0 22.5 7.5t9.5 34.5l48 458q2 17 9 23t28 6h287q21 0 28.5 -6t7.5 -25v-556q0 -21 -11.5 -27.5
t-46.5 -6.5z" />
    <glyph glyph-name="afii10030" unicode="&#x41c;" horiz-adv-x="649" 
d="M110 0q-35 0 -46 6.5t-11 27.5v546q0 24 14 32.5t57 8.5q46 0 63 -7t28 -34l107 -277h5l107 277q11 27 28 34t63 7q43 0 56.5 -8.5t13.5 -32.5v-546q0 -21 -11 -27.5t-46 -6.5t-46 6.5t-11 27.5l1 411h-6l-91 -247q-9 -26 -20 -33t-41 -7q-29 0 -40 7.5t-20 32.5l-91 247
h-6v-411q0 -21 -11 -27.5t-46 -6.5z" />
    <glyph glyph-name="afii10031" unicode="&#x41d;" horiz-adv-x="531" 
d="M169 366h193v221q0 21 11.5 27.5t46.5 6.5t46.5 -6.5t11.5 -27.5v-553q0 -21 -11.5 -27.5t-46.5 -6.5t-46.5 6.5t-11.5 27.5v234h-193v-234q0 -21 -11.5 -27.5t-46.5 -6.5t-46.5 6.5t-11.5 27.5v553q0 21 11.5 27.5t46.5 6.5t46.5 -6.5t11.5 -27.5v-221z" />
    <glyph glyph-name="afii10032" unicode="&#x41e;" horiz-adv-x="529" 
d="M264 93q36 0 55 5.5t32 26t17 56.5t4 102v53q0 67 -3.5 102t-16 56.5t-31.5 26.5t-57 5q-47 0 -68 -12.5t-30 -51.5t-9 -126v-53q0 -89 8.5 -127t29 -50.5t69.5 -12.5zM264 -7q-66 0 -103.5 8.5t-67 37.5t-41 84.5t-11.5 148.5v69q0 77 9 129t24 83t45 47t61.5 21t83.5 5
q68 0 106 -8.5t67.5 -38.5t40 -86t10.5 -152v-69q0 -76 -9.5 -127t-25 -81t-46 -46t-61.5 -20.5t-82 -4.5z" />
    <glyph glyph-name="afii10033" unicode="&#x41f;" horiz-adv-x="526" 
d="M111 0q-35 0 -46.5 6.5t-11.5 27.5v556q0 19 7.5 25t28.5 6h347q21 0 28.5 -6t7.5 -25v-556q0 -21 -11.5 -27.5t-46.5 -6.5t-46.5 6.5t-11.5 27.5v484h-187v-484q0 -21 -11.5 -27.5t-46.5 -6.5z" />
    <glyph glyph-name="afii10034" unicode="&#x420;" horiz-adv-x="493" 
d="M111 0q-35 0 -46.5 6.5t-11.5 27.5v544q0 20 8 28.5t27 10.5q77 9 171 9q57 0 91.5 -7t61.5 -27t38.5 -58.5t11.5 -100.5q0 -123 -56.5 -170t-181.5 -47h-55v-182q0 -21 -11.5 -27.5t-46.5 -6.5zM169 525v-214h60q67 0 89.5 23.5t22.5 92.5q0 63 -19 82.5t-76 19.5
q-37 0 -77 -4z" />
    <glyph glyph-name="afii10035" unicode="&#x421;" horiz-adv-x="453" 
d="M255 -7q-54 0 -87 7.5t-65 33t-47 81t-15 143.5v88q0 55 6 97.5t15.5 72t25.5 50t32.5 32t40.5 18t45 8.5t51 2q72 0 143 -19q13 -3 18.5 -13t5.5 -41q0 -45 -18 -45q-1 0 -42.5 7.5t-79.5 7.5q-32 0 -50.5 -3t-35.5 -13t-24.5 -30.5t-12 -53.5t-4.5 -85v-55
q0 -67 5.5 -104.5t23 -56t37.5 -23t61 -4.5q40 0 79.5 8t42.5 8q11 0 14.5 -9.5t3.5 -36.5q0 -29 -5.5 -39.5t-18.5 -13.5q-65 -19 -145 -19z" />
    <glyph glyph-name="afii10036" unicode="&#x422;" horiz-adv-x="440" 
d="M220 0q-35 0 -46.5 6.5t-11.5 27.5v484h-121q-18 0 -24.5 10t-6.5 41t6.5 41.5t24.5 10.5h358q18 0 24.5 -10.5t6.5 -41.5t-6.5 -41t-24.5 -10h-121v-484q0 -21 -11.5 -27.5t-46.5 -6.5z" />
    <glyph glyph-name="afii10037" unicode="&#x423;" horiz-adv-x="488" 
d="M14 597q0 24 57 24q35 0 47.5 -6t17.5 -24l105 -330h10l100 327q6 21 17.5 27t50.5 6q55 0 55 -24q0 -15 -14 -54l-161 -443q-19 -54 -51.5 -79.5t-89.5 -25.5q-58 0 -93 9q-16 4 -22 14t-6 39q0 28 4 35.5t15 7.5q7 0 33.5 -3t46.5 -3q37 0 54.5 12t28.5 49l3 11h-6
q-30 0 -43.5 10t-21.5 33l-123 333q-14 37 -14 55z" />
    <glyph glyph-name="afii10038" unicode="&#x424;" horiz-adv-x="655" 
d="M28 327q0 66 14.5 108.5t45.5 63.5t66.5 28t90.5 7h26v59q0 21 11.5 27t46.5 6t46.5 -6t11.5 -27v-59h26q55 0 90.5 -7t66.5 -28t45.5 -63.5t14.5 -108.5q0 -127 -52 -175.5t-165 -48.5h-26v-75q0 -21 -11.5 -27.5t-46.5 -6.5t-46.5 6.5t-11.5 27.5v75h-26
q-113 0 -165 48.5t-52 175.5zM413 439h-26v-242h26q62 0 82 24t20 106q0 72 -20 92t-82 20zM143 327q0 -82 20.5 -106t81.5 -24h26v242h-26q-62 0 -82 -20t-20 -92z" />
    <glyph glyph-name="afii10039" unicode="&#x425;" horiz-adv-x="497" 
d="M75 0q-58 0 -58 28q0 13 18 41l152 250l-140 230q-18 29 -18 44q0 28 59 28q34 0 46.5 -6t24.5 -27l88 -160h4l86 160q10 21 23 27t49 6q58 0 58 -28q0 -15 -17 -43l-141 -231l153 -248q17 -26 17 -43q0 -28 -57 -28q-34 0 -46.5 6t-24.5 27l-102 183h-4l-99 -183
q-11 -21 -23.5 -27t-47.5 -6z" />
    <glyph glyph-name="afii10040" unicode="&#x426;" horiz-adv-x="555" 
d="M495 -106q-29 0 -38.5 5.5t-13.5 24.5l-16 76h-338q-21 0 -28.5 6t-7.5 25v556q0 21 11.5 27.5t46.5 6.5t46.5 -6.5t11.5 -27.5v-484h187v484q0 21 11.5 27.5t46.5 6.5t46.5 -6.5t11.5 -27.5v-484h15q31 0 42 -7t11 -29v-143q0 -19 -9 -24.5t-36 -5.5z" />
    <glyph glyph-name="afii10041" unicode="&#x427;" horiz-adv-x="493" 
d="M200 229q-94 0 -130.5 34.5t-36.5 135.5v188q0 21 11.5 27.5t46.5 6.5t46.5 -6.5t11.5 -27.5v-172q0 -55 15 -70.5t67 -15.5q41 0 93 3v255q0 21 11.5 27.5t46.5 6.5t46.5 -6.5t11.5 -27.5v-553q0 -21 -11.5 -27.5t-46.5 -6.5t-46.5 6.5t-11.5 27.5v205q-65 -10 -124 -10
z" />
    <glyph glyph-name="afii10042" unicode="&#x428;" horiz-adv-x="804" 
d="M111 621q35 0 46.5 -6.5t11.5 -27.5v-484h175v484q0 21 11.5 27.5t46.5 6.5t46.5 -6.5t11.5 -27.5v-484h174v484q0 21 11.5 27.5t46.5 6.5t46.5 -6.5t11.5 -27.5v-556q0 -19 -7.5 -25t-28.5 -6h-625q-21 0 -28.5 6t-7.5 25v556q0 21 11.5 27.5t46.5 6.5z" />
    <glyph glyph-name="afii10043" unicode="&#x429;" horiz-adv-x="833" 
d="M705 0h-616q-21 0 -28.5 6t-7.5 25v556q0 21 11.5 27.5t46.5 6.5t46.5 -6.5t11.5 -27.5v-484h175v484q0 21 11.5 27.5t46.5 6.5t46.5 -6.5t11.5 -27.5v-484h174v484q0 21 11.5 27.5t46.5 6.5t46.5 -6.5t11.5 -27.5v-484h15q31 0 42 -7t11 -29v-143q0 -19 -9 -24.5
t-36 -5.5q-29 0 -38.5 5.5t-13.5 24.5z" />
    <glyph glyph-name="afii10044" unicode="&#x42a;" horiz-adv-x="553" 
d="M302 -7q-104 0 -163 7q-22 2 -28.5 9.5t-6.5 27.5v481h-63q-18 0 -24.5 10t-6.5 41t6.5 41.5t24.5 10.5h121q35 0 46.5 -6.5t11.5 -27.5v-216q67 8 137 8q97 0 130 -43.5t33 -150.5q0 -111 -44 -151.5t-174 -40.5zM309 286q-32 0 -89 -3v-194q44 -4 88 -4q61 0 77 18.5
t16 85.5q0 61 -17.5 79t-74.5 18z" />
    <glyph glyph-name="afii10045" unicode="&#x42b;" horiz-adv-x="723" 
d="M615 0q-35 0 -46.5 6.5t-11.5 27.5v553q0 21 11.5 27.5t46.5 6.5t46.5 -6.5t11.5 -27.5v-553q0 -21 -11.5 -27.5t-46.5 -6.5zM111 621q35 0 46.5 -6.5t11.5 -27.5v-216q67 8 137 8q97 0 130.5 -43.5t33.5 -150.5q0 -111 -44 -151.5t-174 -40.5q-105 0 -163 7
q-23 3 -29.5 10.5t-6.5 26.5v550q0 21 11.5 27.5t46.5 6.5zM258 286q-32 0 -89 -3v-194q44 -4 88 -4q61 0 77.5 18.5t16.5 85.5q0 60 -18 78.5t-75 18.5z" />
    <glyph glyph-name="afii10046" unicode="&#x42c;" horiz-adv-x="503" 
d="M111 621q35 0 46.5 -6.5t11.5 -27.5v-216q67 8 137 8q97 0 130.5 -43.5t33.5 -150.5q0 -111 -44 -151.5t-174 -40.5q-105 0 -163 7q-23 3 -29.5 10.5t-6.5 26.5v550q0 21 11.5 27.5t46.5 6.5zM258 286q-32 0 -89 -3v-194q44 -4 88 -4q61 0 77.5 18.5t16.5 85.5
q0 60 -18 78.5t-75 18.5z" />
    <glyph glyph-name="afii10047" unicode="&#x42d;" horiz-adv-x="458" 
d="M80 320q0 29 5.5 37.5t25.5 8.5h195q-2 72 -14.5 105t-37.5 42.5t-80 9.5q-38 0 -79.5 -6.5t-42.5 -6.5q-18 0 -18 46q0 29 5.5 39t18.5 13q69 18 145 18q42 0 69 -4t57 -20t47.5 -45t29 -82t11.5 -129v-88q0 -59 -7 -104t-22 -73.5t-32 -46.5t-43.5 -26.5t-49 -11.5
t-55.5 -3q-80 0 -150 18q-13 3 -18.5 13.5t-5.5 39.5q0 46 18 46q2 0 45 -7.5t86 -7.5q53 0 75.5 9.5t35 47.5t12.5 122h-195q-20 0 -25.5 8.5t-5.5 37.5z" />
    <glyph glyph-name="afii10048" unicode="&#x42e;" horiz-adv-x="774" 
d="M510 -7q-51 0 -82 4.5t-61.5 20.5t-46 46.5t-25 81.5t-9.5 127h-117v-239q0 -21 -11.5 -27.5t-46.5 -6.5t-46.5 6.5t-11.5 27.5v553q0 21 11.5 27.5t46.5 6.5t46.5 -6.5t11.5 -27.5v-212h117q2 67 11 112t24 73t43.5 42t61 19t84.5 5q68 0 105.5 -8.5t67 -38.5t40 -86
t10.5 -152v-69q0 -94 -12.5 -150.5t-43.5 -84.5t-67 -36t-100 -8zM510 93q36 0 54.5 5.5t31.5 26t17 56.5t4 102v53q0 67 -3.5 102t-16 56.5t-31.5 26.5t-56 5q-38 0 -57 -5t-31.5 -26.5t-16 -56.5t-3.5 -102v-53q0 -66 4 -102t17 -56.5t32 -26t55 -5.5z" />
    <glyph glyph-name="afii10049" unicode="&#x42f;" horiz-adv-x="506" 
d="M397 0q-35 0 -46.5 6.5t-11.5 27.5v213h-54q-29 0 -42 1l-86 -217q-8 -21 -20.5 -26t-55.5 -5q-48 0 -48 23q0 11 13 38l97 206q-96 38 -96 176q0 58 11.5 94.5t38.5 56t61.5 26t91.5 6.5q94 0 171 -9q18 -2 26 -10.5t8 -28.5v-544q0 -21 -11.5 -27.5t-46.5 -6.5z
M167 437q0 -64 22.5 -85t89.5 -21h60v194q-38 4 -76 4q-56 0 -76 -18.5t-20 -73.5z" />
    <glyph glyph-name="afii10065" unicode="&#x430;" horiz-adv-x="486" 
d="M162 -10q-67 0 -98 34t-31 112q0 80 42 114t148 34h87v50q0 46 -16.5 58t-65.5 12q-43 0 -92 -8t-53 -8q-21 0 -21 46q0 25 5.5 34.5t19.5 14.5q64 20 156 20q99 0 140.5 -27.5t41.5 -112.5v-158q0 -51 5 -90t10 -60.5t5 -27.5q0 -15 -10.5 -21t-42.5 -6q-30 0 -40 5.5
t-15 24.5l-15 56q-39 -96 -160 -96zM203 83q45 0 76 26.5t31 78.5v27l-87 -3q-47 -1 -63 -14.5t-16 -49.5q0 -40 13 -52.5t46 -12.5z" />
    <glyph glyph-name="afii10066" unicode="&#x431;" horiz-adv-x="511" 
d="M263 -10q-121 0 -168 51t-47 191v202q0 137 49.5 186t168.5 49q81 0 159 -13q24 -4 24 -48t-20 -44q-7 0 -55.5 4.5t-83.5 4.5q-76 0 -99.5 -20.5t-23.5 -96.5v-20q31 67 139 67q65 0 97.5 -19.5t48 -75t15.5 -165.5q0 -80 -11 -129t-37 -77t-62 -37.5t-94 -9.5zM263 87
q56 0 71 28.5t15 137.5q0 71 -8.5 102.5t-26 40.5t-59.5 9q-51 0 -70.5 -29.5t-19.5 -118.5v-20q0 -94 19 -122t79 -28z" />
    <glyph glyph-name="afii10067" unicode="&#x432;" horiz-adv-x="493" 
d="M252 94q54 0 70.5 11.5t16.5 49.5q0 35 -20.5 48t-80.5 13h-69v-119q30 -3 83 -3zM246 -7q-91 0 -157 9q-23 3 -29.5 9.5t-6.5 25.5v416q0 21 7.5 29t27.5 10q66 8 165 8q109 0 150.5 -23t41.5 -99q0 -64 -24.5 -91.5t-80.5 -33.5q64 -7 90.5 -32t26.5 -91
q0 -84 -47 -110.5t-164 -26.5zM247 399q-50 0 -78 -4v-106h69q50 0 69.5 12.5t19.5 46.5q0 33 -16 42t-64 9z" />
    <glyph glyph-name="afii10068" unicode="&#x433;" horiz-adv-x="352" 
d="M111 0q-35 0 -46.5 6.5t-11.5 27.5v428q0 19 7.5 25t28.5 6h222q18 0 24.5 -10.5t6.5 -41.5t-6.5 -41t-24.5 -10h-142v-356q0 -21 -11.5 -27.5t-46.5 -6.5z" />
    <glyph glyph-name="afii10069" unicode="&#x434;" horiz-adv-x="514" 
d="M56 -106q-26 0 -35 5.5t-9 24.5v128q0 32 6 41.5t25 9.5h22l46 356q3 22 13.5 28t44.5 6h213q35 0 46.5 -6.5t11.5 -27.5v-356h16q24 0 33 -7t9 -29v-143q0 -19 -9 -24.5t-35 -5.5q-28 0 -37.5 5.5t-13.5 24.5l-16 76h-265l-16 -76q-4 -19 -13 -24.5t-37 -5.5zM211 394
l-37 -291h150v291h-113z" />
    <glyph glyph-name="afii10070" unicode="&#x435;" horiz-adv-x="475" 
d="M258 -10q-59 0 -95 8.5t-65.5 34t-42 76.5t-12.5 133q0 86 12.5 139t42 79.5t63 34.5t89.5 8q60 0 97.5 -13t56.5 -44.5t25.5 -71t6.5 -104.5q0 -29 -9 -41.5t-35 -12.5h-233q1 -82 21 -104t86 -22q34 0 67 4t53 8.5t24 4.5q19 0 19 -47q0 -24 -6 -34t-21 -16
q-55 -20 -144 -20zM248 406q-50 0 -68 -21.5t-21 -96.5h168q0 70 -13 94t-66 24z" />
    <glyph glyph-name="afii10072" unicode="&#x436;" horiz-adv-x="683" 
d="M73 0q-61 0 -61 23q0 9 13 29l147 206l-134 182q-14 19 -14 33q0 20 58 20q36 0 48.5 -5.5t25.5 -23.5l117 -170h10v165q0 22 11.5 28t46.5 6t46.5 -6t11.5 -28v-165h11l117 170q13 18 25.5 23.5t48.5 5.5q57 0 57 -20q0 -17 -13 -33l-134 -182l147 -206q13 -20 13 -29
q0 -23 -61 -23q-33 0 -46.5 5.5t-24.5 22.5l-129 193h-11v-187q0 -22 -11.5 -28t-46.5 -6t-46.5 6t-11.5 28v187h-10l-129 -193q-11 -17 -24.5 -22.5t-46.5 -5.5z" />
    <glyph glyph-name="afii10073" unicode="&#x437;" horiz-adv-x="436" 
d="M103 253q0 23 6 32t25 9h37q52 0 71.5 12t19.5 45q0 32 -13.5 40t-60.5 8q-40 0 -81.5 -5t-43.5 -5q-21 0 -21 47q0 20 3 30.5t7.5 14t13.5 5.5q64 14 151 14q84 0 124 -23.5t40 -94.5t-24 -97t-81 -32q65 -7 91 -30.5t26 -89.5q0 -85 -43.5 -112.5t-141.5 -27.5
q-94 0 -155 14q-17 4 -23 13.5t-6 38.5q0 28 5 37.5t16 9.5q3 0 48.5 -6t86.5 -6q60 0 77.5 11t17.5 47q0 34 -20.5 46.5t-81.5 12.5h-39q-19 0 -25 9t-6 33z" />
    <glyph glyph-name="afii10074" unicode="&#x438;" horiz-adv-x="518" 
d="M403 493q38 0 49.5 -8t11.5 -29v-422q0 -21 -11.5 -27.5t-46.5 -6.5t-46.5 6.5t-11.5 27.5v288h-7l-155 -288q-11 -22 -25.5 -28t-45.5 -6q-37 0 -49.5 8t-12.5 29v422q0 21 11.5 27.5t46.5 6.5t46.5 -6.5t11.5 -27.5v-281h7l160 287q10 19 23 23.5t44 4.5z" />
    <glyph glyph-name="afii10075" unicode="&#x439;" horiz-adv-x="518" 
d="M257 548q-70 0 -97.5 25t-27.5 87q0 21 7.5 27t33.5 6q25 0 32 -4.5t9 -21.5q2 -21 8.5 -27.5t34.5 -6.5t34.5 6.5t8.5 27.5q2 17 9 21.5t32 4.5q26 0 33.5 -6t7.5 -27q0 -62 -27.5 -87t-97.5 -25zM403 493q38 0 49.5 -8t11.5 -29v-422q0 -21 -11.5 -27.5t-46.5 -6.5
t-46.5 6.5t-11.5 27.5v288h-7l-155 -288q-11 -22 -25.5 -28t-45.5 -6q-37 0 -49.5 8t-12.5 29v422q0 21 11.5 27.5t46.5 6.5t46.5 -6.5t11.5 -27.5v-281h7l160 287q10 19 23 23.5t44 4.5z" />
    <glyph glyph-name="afii10076" unicode="&#x43a;" horiz-adv-x="457" 
d="M111 0q-35 0 -46.5 6t-11.5 28v425q0 22 11.5 28t46.5 6t46.5 -6t11.5 -28v-165h11l122 170q13 18 26 23.5t49 5.5q56 0 56 -20q0 -17 -13 -33l-137 -182l150 -206q12 -17 12 -29q0 -23 -60 -23q-33 0 -45.5 5t-24.5 23l-135 193h-11v-187q0 -22 -11.5 -28t-46.5 -6z" />
    <glyph glyph-name="afii10077" unicode="&#x43b;" horiz-adv-x="513" 
d="M402 0q-35 0 -46.5 6.5t-11.5 27.5v360h-113l-38 -314q-5 -46 -27 -66.5t-68 -20.5q-39 0 -65 6q-16 3 -22 14t-6 41q0 26 4.5 33.5t15.5 7.5q5 0 15.5 -1.5t18.5 -1.5q16 0 22 7.5t10 34.5l40 325q3 21 11 27.5t32 6.5h250q21 0 28.5 -6t7.5 -25v-428q0 -21 -11.5 -27.5
t-46.5 -6.5z" />
    <glyph glyph-name="afii10078" unicode="&#x43c;" horiz-adv-x="638" 
d="M111 0q-35 0 -46.5 6.5t-11.5 27.5v418q0 24 14 32.5t57 8.5q45 0 60 -7t26 -34l107 -264h4l107 264q11 27 26 34t60 7q43 0 56.5 -8.5t13.5 -32.5v-418q0 -21 -11.5 -27.5t-46.5 -6.5t-46.5 6.5t-11.5 27.5q0 79 1.5 155t1.5 135h-6l-85 -222q-10 -25 -21 -32t-40 -7
t-40 7t-21 32l-85 222h-6q2 -286 2 -290q0 -21 -11.5 -27.5t-46.5 -6.5z" />
    <glyph glyph-name="afii10079" unicode="&#x43d;" horiz-adv-x="499" 
d="M169 303h160v156q0 21 11.5 27.5t46.5 6.5t46.5 -6.5t11.5 -27.5v-425q0 -21 -11.5 -27.5t-46.5 -6.5t-46.5 6.5t-11.5 27.5v171h-160v-171q0 -21 -11.5 -27.5t-46.5 -6.5t-46.5 6.5t-11.5 27.5v425q0 21 11.5 27.5t46.5 6.5t46.5 -6.5t11.5 -27.5v-156z" />
    <glyph glyph-name="afii10080" unicode="&#x43e;" horiz-adv-x="503" 
d="M243 -10q-79 0 -120 19.5t-60.5 73.5t-19.5 160t22.5 162.5t67 77t126.5 20.5q80 0 120.5 -19t60 -72.5t19.5 -158.5q0 -156 -47 -209.5t-169 -53.5zM247 87q59 0 76.5 29.5t17.5 127.5q0 105 -15.5 133t-70.5 28q-60 0 -77 -28.5t-17 -125.5q0 -105 15.5 -134.5
t70.5 -29.5z" />
    <glyph glyph-name="afii10081" unicode="&#x43f;" horiz-adv-x="499" 
d="M111 0q-35 0 -46.5 6.5t-11.5 27.5v428q0 19 7.5 25t28.5 6h320q21 0 28.5 -6t7.5 -25v-428q0 -21 -11.5 -27.5t-46.5 -6.5t-46.5 6.5t-11.5 27.5v361h-160v-361q0 -21 -11.5 -27.5t-46.5 -6.5z" />
    <glyph glyph-name="afii10082" unicode="&#x440;" horiz-adv-x="526" 
d="M119 -187q-35 0 -46.5 6t-11.5 27v442q0 50 -5 89.5t-10 61t-5 27.5q0 14 10.5 20.5t42.5 6.5q30 0 40 -5.5t15 -24.5l11 -44q40 84 157 84q98 0 131.5 -50.5t33.5 -198.5q0 -109 -20.5 -167.5t-57.5 -77.5t-104 -19q-94 0 -123 53v-197q0 -21 -11.5 -27t-46.5 -6z
M271 87q40 0 58 11.5t26.5 46t8.5 108.5q0 98 -16 125t-69 27q-56 0 -80 -27.5t-24 -110.5v-48q0 -78 19.5 -105t76.5 -27z" />
    <glyph glyph-name="afii10083" unicode="&#x441;" horiz-adv-x="430" 
d="M248 -10q-55 0 -89 8.5t-62.5 34t-41 76.5t-12.5 133q0 86 13 139.5t41.5 79.5t61 34t85.5 8q64 0 128 -18q15 -5 20.5 -15t5.5 -35q0 -47 -20 -47q-2 0 -46.5 8t-72.5 8q-41 0 -60 -9t-29.5 -41t-10.5 -101q0 -108 17.5 -135.5t85.5 -27.5q38 0 77.5 8.5t40.5 8.5
q19 0 19 -47q0 -24 -6 -34t-21 -16q-55 -20 -124 -20z" />
    <glyph glyph-name="afii10084" unicode="&#x442;" horiz-adv-x="409" 
d="M204 0q-35 0 -46.5 6.5t-11.5 27.5v356h-101q-18 0 -24.5 10t-6.5 41t6.5 41.5t24.5 10.5h318q18 0 24.5 -10.5t6.5 -41.5t-6.5 -41t-24.5 -10h-101v-356q0 -21 -11.5 -27.5t-46.5 -6.5z" />
    <glyph glyph-name="afii10085" unicode="&#x443;" horiz-adv-x="471" 
d="M19 463q0 16 11.5 23t48.5 7q35 0 46.5 -5.5t16.5 -24.5l86 -366h11l90 366q5 19 16.5 24.5t45.5 5.5q37 0 49.5 -6.5t12.5 -22.5q0 -19 -16 -73l-125 -426q-14 -49 -26 -76.5t-31 -48.5t-44.5 -28.5t-65.5 -7.5q-57 0 -97 14q-15 5 -21 14.5t-6 33.5q0 47 21 47
q1 0 30.5 -4.5t59.5 -4.5q38 0 51 10.5t22 43.5l10 42q-43 0 -59 11t-25 42l-94 325q-18 61 -18 85z" />
    <glyph glyph-name="afii10086" unicode="&#x444;" horiz-adv-x="792" 
d="M199 -10q-98 0 -129 49.5t-31 199.5q0 110 19 168t55 77t103 19q93 0 120 -64v183q0 21 11.5 27t46.5 6t46.5 -6t11.5 -27v-187q33 68 137 68q98 0 129 -49.5t31 -199.5q0 -110 -19 -168t-55 -77t-103 -19q-92 0 -120 61v-205q0 -21 -11.5 -27t-46.5 -6t-46.5 6t-11.5 27
v209q-37 -65 -137 -65zM541 87q57 0 73.5 29.5t16.5 136.5q0 99 -15 125.5t-68 26.5q-57 0 -77.5 -25.5t-20.5 -106.5v-56q0 -79 17 -104.5t74 -25.5zM239 87q58 0 78.5 28t20.5 104v54q0 80 -17 106t-74 26q-39 0 -57 -11.5t-25.5 -45t-7.5 -108.5q0 -99 14.5 -126
t67.5 -27z" />
    <glyph glyph-name="afii10087" unicode="&#x445;" horiz-adv-x="453" 
d="M75 0q-56 0 -56 24q0 9 12 28l126 202l-112 177q-15 25 -15 35q0 15 13.5 21t47.5 6q37 0 48.5 -5t21.5 -23l65 -117h4l63 117q10 19 21 23.5t48 4.5q34 0 47.5 -6t13.5 -21q0 -11 -14 -33l-115 -173l127 -206q13 -20 13 -30q0 -24 -56 -24q-37 0 -51 7t-27 30l-72 134
h-4l-72 -134q-12 -23 -26 -30t-51 -7z" />
    <glyph glyph-name="afii10088" unicode="&#x446;" horiz-adv-x="507" 
d="M447 -106q-28 0 -37.5 5.5t-13.5 24.5l-16 76h-291q-21 0 -28.5 6t-7.5 25v428q0 21 11.5 27.5t46.5 6.5t46.5 -6.5t11.5 -27.5v-356h148v356q0 21 11.5 27.5t46.5 6.5t46.5 -6.5t11.5 -27.5v-356h15q25 0 33.5 -6.5t8.5 -29.5v-143q0 -19 -8.5 -24.5t-34.5 -5.5z" />
    <glyph glyph-name="afii10089" unicode="&#x447;" horiz-adv-x="457" 
d="M190 162q-91 0 -126.5 34.5t-35.5 134.5v128q0 21 11.5 27.5t46.5 6.5t46.5 -6.5t11.5 -27.5v-112q0 -54 13.5 -70t57.5 -16q33 0 72 3v195q0 21 11.5 27.5t46.5 6.5t46.5 -6.5t11.5 -27.5v-425q0 -21 -11.5 -27.5t-46.5 -6.5t-46.5 6.5t-11.5 27.5v135q-53 -7 -97 -7z
" />
    <glyph glyph-name="afii10090" unicode="&#x448;" horiz-adv-x="735" 
d="M681 459v-428q0 -19 -7.5 -25t-28.5 -6h-556q-21 0 -28.5 6t-7.5 25v428q0 21 11.5 27.5t46.5 6.5t46.5 -6.5t11.5 -27.5v-356h140v356q0 21 11.5 27.5t46.5 6.5t46.5 -6.5t11.5 -27.5v-356h140v356q0 21 11.5 27.5t46.5 6.5t46.5 -6.5t11.5 -27.5z" />
    <glyph glyph-name="afii10091" unicode="&#x449;" horiz-adv-x="755" 
d="M695 -106q-28 0 -37.5 5.5t-13.5 24.5l-16 76h-539q-21 0 -28.5 6t-7.5 25v428q0 21 11.5 27.5t46.5 6.5t46.5 -6.5t11.5 -27.5v-356h140v356q0 21 11.5 27.5t46.5 6.5t46.5 -6.5t11.5 -27.5v-356h140v356q0 21 11.5 27.5t46.5 6.5t46.5 -6.5t11.5 -27.5v-356h15
q25 0 33.5 -6.5t8.5 -29.5v-143q0 -19 -8.5 -24.5t-34.5 -5.5z" />
    <glyph glyph-name="afii10092" unicode="&#x44a;" horiz-adv-x="503" 
d="M84 390h-43q-18 0 -24.5 10t-6.5 41t6.5 41.5t24.5 10.5h101q35 0 46.5 -6t11.5 -28v-143h84q112 0 152 -29.5t40 -122.5q0 -55 -12 -89.5t-40.5 -52t-63 -23.5t-92.5 -6q-82 0 -148 9q-23 3 -29.5 9.5t-6.5 25.5v353zM287 223h-87v-130q34 -4 77 -4q51 0 66.5 13.5
t15.5 57.5q0 38 -14 50.5t-58 12.5z" />
    <glyph glyph-name="afii10093" unicode="&#x44b;" horiz-adv-x="693" 
d="M582 0q-35 0 -46.5 6t-11.5 28v425q0 22 11.5 28t46.5 6t46.5 -6t11.5 -28v-425q0 -22 -11.5 -28t-46.5 -6zM237 -7q-82 0 -148 9q-23 3 -29.5 9.5t-6.5 25.5v422q0 22 11.5 28t46.5 6t46.5 -6t11.5 -28v-143h84q112 0 152 -29.5t40 -122.5q0 -55 -12 -89.5t-40.5 -52
t-63 -23.5t-92.5 -6zM256 223h-87v-130q34 -4 77 -4q51 0 66.5 13.5t15.5 57.5q0 38 -14 50.5t-58 12.5z" />
    <glyph glyph-name="afii10094" unicode="&#x44c;" horiz-adv-x="472" 
d="M237 -7q-82 0 -148 9q-23 3 -29.5 9.5t-6.5 25.5v422q0 22 11.5 28t46.5 6t46.5 -6t11.5 -28v-143h84q112 0 152 -29.5t40 -122.5q0 -55 -12 -89.5t-40.5 -52t-63 -23.5t-92.5 -6zM256 223h-87v-130q34 -4 77 -4q51 0 66.5 13.5t15.5 57.5q0 38 -14 50.5t-58 12.5z" />
    <glyph glyph-name="afii10095" unicode="&#x44d;" horiz-adv-x="447" 
d="M189 -10q-80 0 -135 20q-15 6 -21 16t-6 34q0 47 19 47q3 0 45.5 -8.5t85.5 -8.5q73 0 96 21t25 97h-168q-19 0 -25 8.5t-6 34.5q0 25 6 33.5t25 8.5h168q-2 73 -21 92t-84 19q-39 0 -87.5 -7t-51.5 -7q-19 0 -19 46q0 26 5.5 36t20.5 14q59 17 144 17q49 0 79 -5
t57 -19.5t40 -43.5t20.5 -75.5t7.5 -117.5q0 -82 -12 -132.5t-42 -76.5t-67 -34.5t-99 -8.5z" />
    <glyph glyph-name="afii10096" unicode="&#x44e;" horiz-adv-x="717" 
d="M457 -10q-110 0 -153 43.5t-47 174.5h-88v-174q0 -22 -11.5 -28t-46.5 -6t-46.5 6t-11.5 28v425q0 22 11.5 28t46.5 6t46.5 -6t11.5 -28v-155h90q8 117 56.5 158t158.5 41q79 0 119.5 -19t60 -72.5t19.5 -158.5q0 -156 -47 -209.5t-169 -53.5zM461 87q59 0 76.5 29.5
t17.5 127.5q0 105 -15.5 133t-70.5 28q-60 0 -77 -28.5t-17 -125.5q0 -105 15.5 -134.5t70.5 -29.5z" />
    <glyph glyph-name="afii10097" unicode="&#x44f;" horiz-adv-x="489" 
d="M83 0q-32 0 -42 5t-10 16t15 37l80 139q-46 13 -64.5 46.5t-18.5 96.5q0 99 47 129.5t162 30.5q69 0 148 -9q23 -3 29.5 -9.5t6.5 -25.5v-422q0 -22 -11.5 -28t-46.5 -6t-46.5 6t-11.5 28v152h-90l-74 -155q-10 -21 -22 -26t-51 -5zM161 330q0 -34 14 -45t58 -11h87v121
q-34 4 -76 4q-51 0 -67 -13t-16 -56z" />
    <glyph glyph-name="afii10071" unicode="&#x451;" horiz-adv-x="475" 
d="M258 -10q-59 0 -95 8.5t-65.5 34t-42 76.5t-12.5 133q0 86 12.5 139t42 79.5t63 34.5t89.5 8q60 0 97.5 -13t56.5 -44.5t25.5 -71t6.5 -104.5q0 -29 -9 -41.5t-35 -12.5h-233q1 -82 21 -104t86 -22q34 0 67 4t53 8.5t24 4.5q19 0 19 -47q0 -24 -6 -34t-21 -16
q-55 -20 -144 -20zM248 406q-50 0 -68 -21.5t-21 -96.5h168q0 70 -13 94t-66 24zM154 553q-38 0 -49 8t-11 35v16q0 27 10.5 35t49.5 8t49.5 -8t10.5 -35v-16q0 -27 -11 -35t-49 -8zM321 553q-38 0 -48.5 8t-10.5 35v16q0 27 10.5 35t48.5 8q39 0 49.5 -8t10.5 -35v-16
q0 -27 -11 -35t-49 -8z" />
    <glyph glyph-name="afii10099" unicode="&#x452;" horiz-adv-x="506" 
d="M111 0q-35 0 -46.5 6t-11.5 28v488h-22q-18 0 -23.5 6.5t-5.5 28.5q0 21 5.5 28t23.5 7h22v30q0 21 11.5 27t46.5 6t46.5 -6t11.5 -27v-30h117q18 0 23 -7t5 -28q0 -22 -5 -28.5t-23 -6.5h-117v-113q39 66 146 66q78 0 107.5 -32t29.5 -106v-406q0 -68 -28.5 -97.5
t-86.5 -29.5q-41 0 -80 11q-17 5 -23 14.5t-6 34.5q0 29 4.5 37t15.5 8q4 0 22.5 -2.5t29.5 -2.5q22 0 29 9t7 42v355q0 37 -13 51t-50 14q-58 0 -81 -36.5t-23 -125.5v-179q0 -22 -11.5 -28t-46.5 -6z" />
    <glyph glyph-name="afii10100" unicode="&#x453;" horiz-adv-x="352" 
d="M161 539q-48 0 -48 21q0 11 11 35l33 74q12 26 22 32t47 6q36 0 48 -6.5t12 -20.5q0 -12 -14 -37l-44 -74q-7 -12 -12 -17t-18 -9t-37 -4zM111 0q-35 0 -46.5 6.5t-11.5 27.5v428q0 19 7.5 25t28.5 6h222q18 0 24.5 -10.5t6.5 -41.5t-6.5 -41t-24.5 -10h-142v-356
q0 -21 -11.5 -27.5t-46.5 -6.5z" />
    <glyph glyph-name="afii10101" unicode="&#x454;" horiz-adv-x="452" 
d="M264 -10q-63 0 -100 8.5t-67 34.5t-42 76.5t-12 132.5q0 71 7.5 117.5t20.5 75.5t40 43.5t57 19.5t79 5q85 0 144 -17q15 -4 21 -14.5t6 -35.5q0 -46 -20 -46q-3 0 -51 7t-87 7q-65 0 -84.5 -19t-21.5 -92h168q19 0 25 -8.5t6 -33.5q0 -26 -6 -34.5t-25 -8.5h-168
q3 -76 25 -97t96 -21q44 0 86 8.5t45 8.5q19 0 19 -47q0 -25 -5.5 -35t-20.5 -15q-57 -20 -135 -20z" />
    <glyph glyph-name="afii10102" unicode="&#x455;" horiz-adv-x="437" 
d="M201 -10q-79 0 -136 18q-15 5 -20.5 15t-5.5 35q0 47 19 47q1 0 47 -7.5t84 -7.5q51 0 71.5 13.5t20.5 43.5t-32 42l-119 51q-75 31 -75 124q0 139 167 139q76 0 141 -17q15 -4 20.5 -14t5.5 -39q0 -45 -21 -45q-2 0 -46 8.5t-78 8.5q-39 0 -55 -10.5t-16 -33.5
q0 -31 31 -43l116 -47q44 -17 61 -45t17 -75q0 -161 -197 -161z" />
    <glyph glyph-name="afii10103" unicode="&#x456;" horiz-adv-x="222" 
d="M109 0q-35 0 -46.5 6t-11.5 28v425q0 22 11.5 28t46.5 6t46.5 -6t11.5 -28v-425q0 -22 -11.5 -28t-46.5 -6zM109 553q-42 0 -52.5 8t-10.5 35v16q0 28 10.5 35.5t52.5 7.5q41 0 52 -7.5t11 -35.5v-16q0 -27 -11 -35t-52 -8z" />
    <glyph glyph-name="afii10104" unicode="&#x457;" horiz-adv-x="222" 
d="M28 553q-38 0 -49 8t-11 35v16q0 27 10.5 35t49.5 8t49.5 -8t10.5 -35v-16q0 -27 -11 -35t-49 -8zM195 553q-38 0 -48.5 8t-10.5 35v16q0 27 10.5 35t48.5 8q39 0 49.5 -8t10.5 -35v-16q0 -27 -11 -35t-49 -8zM109 0q-35 0 -46.5 6t-11.5 28v425q0 22 11.5 28t46.5 6
t46.5 -6t11.5 -28v-425q0 -22 -11.5 -28t-46.5 -6z" />
    <glyph glyph-name="afii10105" unicode="&#x458;" horiz-adv-x="222" 
d="M109 493q35 0 46.5 -6t11.5 -28v-528q0 -68 -28.5 -97.5t-86.5 -29.5q-41 0 -81 11q-16 5 -22.5 14.5t-6.5 34.5q0 28 5 36.5t16 8.5q4 0 22 -2.5t29 -2.5q23 0 30 9t7 42v504q0 22 11.5 28t46.5 6zM109 553q-42 0 -52.5 8t-10.5 35v16q0 28 10.5 35.5t52.5 7.5
q41 0 52 -7.5t11 -35.5v-16q0 -27 -11 -35t-52 -8z" />
    <glyph glyph-name="afii10106" unicode="&#x459;" horiz-adv-x="761" 
d="M100 -7q-37 0 -65 6q-16 3 -22 14t-6 41q0 26 4.5 33.5t15.5 7.5q6 0 16 -1.5t18 -1.5q16 0 22 7.5t10 34.5l40 325q3 21 11 27.5t32 6.5h248q21 0 28.5 -6t7.5 -25v-146h81q112 0 152 -29.5t40 -122.5q0 -55 -12 -89.5t-40.5 -52t-63 -23.5t-92.5 -6q-79 0 -146 9
q-22 3 -28.5 9.5t-6.5 25.5v357h-111l-38 -314q-5 -46 -26.5 -66.5t-68.5 -20.5zM544 223h-84v-130q32 -4 74 -4q51 0 66.5 13.5t15.5 57.5q0 38 -14 50.5t-58 12.5z" />
    <glyph glyph-name="afii10107" unicode="&#x45a;" horiz-adv-x="744" 
d="M111 0q-35 0 -46.5 6.5t-11.5 27.5v425q0 21 11.5 27.5t46.5 6.5t46.5 -6.5t11.5 -27.5v-156h158v156q0 21 11.5 27.5t46.5 6.5t46.5 -6.5t11.5 -27.5v-143h82q111 0 151 -29.5t40 -122.5q0 -55 -12 -89.5t-40.5 -52t-63 -23.5t-91.5 -6q-79 0 -147 9q-22 3 -28.5 9.5
t-6.5 25.5v168h-158v-171q0 -21 -11.5 -27.5t-46.5 -6.5zM527 223h-84v-130q32 -4 74 -4q51 0 66.5 13.5t15.5 57.5q0 38 -14 50.5t-58 12.5z" />
    <glyph glyph-name="afii10108" unicode="&#x45b;" horiz-adv-x="506" 
d="M2 557q0 21 5.5 28t23.5 7h22v30q0 21 11.5 27t46.5 6t46.5 -6t11.5 -27v-30h117q18 0 23 -7t5 -28q0 -22 -5 -28.5t-23 -6.5h-117v-113q39 66 146 66q78 0 107.5 -32t29.5 -106v-303q0 -22 -11.5 -28t-46.5 -6t-46.5 6t-11.5 28v276q0 37 -13 51t-50 14q-58 0 -81 -36.5
t-23 -125.5v-179q0 -22 -11.5 -28t-46.5 -6t-46.5 6t-11.5 28v488h-22q-18 0 -23.5 6.5t-5.5 28.5z" />
    <glyph glyph-name="afii10109" unicode="&#x45c;" horiz-adv-x="457" 
d="M199 539q-48 0 -48 21q0 11 11 35l33 74q12 26 22 32t47 6q36 0 48 -6.5t12 -20.5q0 -12 -14 -37l-44 -74q-10 -18 -21.5 -24t-45.5 -6zM111 0q-35 0 -46.5 6t-11.5 28v425q0 22 11.5 28t46.5 6t46.5 -6t11.5 -28v-165h11l122 170q13 18 26 23.5t49 5.5q56 0 56 -20
q0 -17 -13 -33l-137 -182l150 -206q12 -17 12 -29q0 -23 -60 -23q-33 0 -45.5 5t-24.5 23l-135 193h-11v-187q0 -22 -11.5 -28t-46.5 -6z" />
    <glyph glyph-name="afii10110" unicode="&#x45e;" horiz-adv-x="471" 
d="M19 463q0 16 11.5 23t48.5 7q35 0 46.5 -5.5t16.5 -24.5l86 -366h11l90 366q5 19 16.5 24.5t45.5 5.5q37 0 49.5 -6.5t12.5 -22.5q0 -19 -16 -73l-125 -426q-14 -49 -26 -76.5t-31 -48.5t-44.5 -28.5t-65.5 -7.5q-57 0 -97 14q-15 5 -21 14.5t-6 33.5q0 47 21 47
q1 0 30.5 -4.5t59.5 -4.5q38 0 51 10.5t22 43.5l10 42q-43 0 -59 11t-25 42l-94 325q-18 61 -18 85zM235 548q-70 0 -97.5 25t-27.5 87q0 21 7.5 27t33.5 6q25 0 32 -4.5t9 -21.5q2 -21 8.5 -27.5t34.5 -6.5t34.5 6.5t8.5 27.5q2 17 9 21.5t32 4.5q26 0 33.5 -6t7.5 -27
q0 -62 -27.5 -87t-97.5 -25z" />
    <glyph glyph-name="afii10193" unicode="&#x45f;" horiz-adv-x="487" 
d="M243 -106q-26 0 -31.5 5t-7.5 26l-5 75h-110q-21 0 -28.5 6t-7.5 25v428q0 21 11.5 27.5t46.5 6.5t46.5 -6.5t11.5 -27.5v-362h148v362q0 21 11.5 27.5t46.5 6.5t46.5 -6.5t11.5 -27.5v-428q0 -19 -7.5 -25t-28.5 -6h-110l-4 -75q-2 -21 -8 -26t-32 -5z" />
    <glyph glyph-name="afii10050" unicode="&#x490;" horiz-adv-x="405" 
d="M347 727q26 0 35 -5.5t9 -24.5v-143q0 -22 -9 -29t-33 -7h-180v-484q0 -21 -11.5 -27.5t-46.5 -6.5t-46.5 6.5t-11.5 27.5v556q0 19 7.5 25t28.5 6h192l16 76q6 19 14.5 24.5t35.5 5.5z" />
    <glyph glyph-name="afii10098" unicode="&#x491;" horiz-adv-x="356" 
d="M298 599q26 0 35 -5.5t9 -24.5v-144q0 -22 -8.5 -28.5t-33.5 -6.5h-131v-356q0 -21 -11.5 -27.5t-46.5 -6.5t-46.5 6.5t-11.5 27.5v428q0 19 7.5 25t28.5 6h143l16 76q6 19 15 24.5t35 5.5z" />
    <glyph glyph-name="Wgrave" unicode="&#x1e80;" horiz-adv-x="802" 
d="M214 0q-53 0 -72.5 8.5t-25.5 38.5l-98 512q-4 26 -4 35q0 16 10.5 21.5t45.5 5.5q38 0 51 -6.5t15 -26.5l80 -481h12l95 467q4 23 20.5 30t57.5 7q40 0 56.5 -7t21.5 -30l96 -467h11l80 481q2 20 15 26.5t51 6.5q35 0 45.5 -5.5t10.5 -21.5q0 -5 -1.5 -18t-1.5 -17
l-98 -512q-6 -30 -26 -38.5t-73 -8.5q-50 0 -70.5 10t-27.5 40l-84 401h-10l-83 -401q-7 -30 -27.5 -40t-71.5 -10zM409 665q-34 0 -45.5 6.5t-21.5 23.5l-43 74q-15 25 -15 42q0 12 12 17t48 5q38 0 48.5 -6.5t21.5 -31.5l33 -74q10 -22 10 -35q0 -21 -48 -21z" />
    <glyph glyph-name="wgrave" unicode="&#x1e81;" horiz-adv-x="709" 
d="M191 0q-50 0 -68.5 8.5t-23.5 33.5l-75 375q-5 24 -5 43q0 20 10.5 26.5t47.5 6.5q38 0 50 -6.5t14 -28.5l60 -354h11l70 342q4 22 19 29.5t54 7.5q38 0 53 -7.5t19 -29.5l70 -342h11l60 354q4 23 15.5 29t49.5 6q37 0 47 -6.5t10 -26.5q0 -19 -5 -43l-75 -375
q-5 -25 -23 -33.5t-68 -8.5q-54 0 -75.5 8.5t-26.5 33.5l-58 272h-8l-59 -272q-5 -25 -26 -33.5t-75 -8.5zM381 539q-24 0 -37 4t-18 9t-12 17l-43 74q-15 25 -15 42q0 12 12 17t48 5q38 0 48.5 -7t21.5 -31l33 -74q10 -22 10 -35q0 -21 -48 -21z" />
    <glyph glyph-name="Wacute" unicode="&#x1e82;" horiz-adv-x="802" 
d="M214 0q-53 0 -72.5 8.5t-25.5 38.5l-98 512q-4 26 -4 35q0 16 10.5 21.5t45.5 5.5q38 0 51 -6.5t15 -26.5l80 -481h12l95 467q4 23 20.5 30t57.5 7q40 0 56.5 -7t21.5 -30l96 -467h11l80 481q2 20 15 26.5t51 6.5q35 0 45.5 -5.5t10.5 -21.5q0 -5 -1.5 -18t-1.5 -17
l-98 -512q-6 -30 -26 -38.5t-73 -8.5q-50 0 -70.5 10t-27.5 40l-84 401h-10l-83 -401q-7 -30 -27.5 -40t-71.5 -10zM393 665q-48 0 -48 21q0 11 11 35l33 74q12 26 22 32t47 6q36 0 48 -6.5t12 -20.5q0 -12 -14 -37l-44 -74q-10 -17 -21.5 -23.5t-45.5 -6.5z" />
    <glyph glyph-name="wacute" unicode="&#x1e83;" horiz-adv-x="709" 
d="M191 0q-50 0 -68.5 8.5t-23.5 33.5l-75 375q-5 24 -5 43q0 20 10.5 26.5t47.5 6.5q38 0 50 -6.5t14 -28.5l60 -354h11l70 342q4 22 19 29.5t54 7.5q38 0 53 -7.5t19 -29.5l70 -342h11l60 354q4 23 15.5 29t49.5 6q37 0 47 -6.5t10 -26.5q0 -19 -5 -43l-75 -375
q-5 -25 -23 -33.5t-68 -8.5q-54 0 -75.5 8.5t-26.5 33.5l-58 272h-8l-59 -272q-5 -25 -26 -33.5t-75 -8.5zM330 539q-48 0 -48 21q0 11 11 35l33 74q12 26 22 32t47 6q36 0 48 -6.5t12 -20.5q0 -12 -14 -37l-44 -74q-7 -12 -12 -17t-18 -9t-37 -4z" />
    <glyph glyph-name="Wdieresis" unicode="&#x1e84;" horiz-adv-x="802" 
d="M214 0q-53 0 -72.5 8.5t-25.5 38.5l-98 512q-4 26 -4 35q0 16 10.5 21.5t45.5 5.5q38 0 51 -6.5t15 -26.5l80 -481h12l95 467q4 23 20.5 30t57.5 7q40 0 56.5 -7t21.5 -30l96 -467h11l80 481q2 20 15 26.5t51 6.5q35 0 45.5 -5.5t10.5 -21.5q0 -5 -1.5 -18t-1.5 -17
l-98 -512q-6 -30 -26 -38.5t-73 -8.5q-50 0 -70.5 10t-27.5 40l-84 401h-10l-83 -401q-7 -30 -27.5 -40t-71.5 -10zM318 684q-38 0 -49 8t-11 35v16q0 27 10.5 35t49.5 8t49.5 -8t10.5 -35v-16q0 -27 -11 -35t-49 -8zM485 684q-38 0 -48.5 8t-10.5 35v16q0 27 10.5 35
t48.5 8q39 0 49.5 -8t10.5 -35v-16q0 -27 -11 -35t-49 -8z" />
    <glyph glyph-name="wdieresis" unicode="&#x1e85;" horiz-adv-x="709" 
d="M191 0q-50 0 -68.5 8.5t-23.5 33.5l-75 375q-5 24 -5 43q0 20 10.5 26.5t47.5 6.5q38 0 50 -6.5t14 -28.5l60 -354h11l70 342q4 22 19 29.5t54 7.5q38 0 53 -7.5t19 -29.5l70 -342h11l60 354q4 23 15.5 29t49.5 6q37 0 47 -6.5t10 -26.5q0 -19 -5 -43l-75 -375
q-5 -25 -23 -33.5t-68 -8.5q-54 0 -75.5 8.5t-26.5 33.5l-58 272h-8l-59 -272q-5 -25 -26 -33.5t-75 -8.5zM271 553q-38 0 -49 8t-11 35v16q0 27 10.5 35t49.5 8t49.5 -8t10.5 -35v-16q0 -27 -11 -35t-49 -8zM438 553q-38 0 -48.5 8t-10.5 35v16q0 27 10.5 35t48.5 8
q39 0 49.5 -8t10.5 -35v-16q0 -27 -11 -35t-49 -8z" />
    <glyph glyph-name="Eszett" unicode="&#x1e9e;" horiz-adv-x="507" 
d="M102 0q-35 0 -46.5 6.5t-11.5 27.5v429q0 89 44.5 127t156.5 38q75 0 144 -21q54 -18 54 -52q0 -26 -14 -54l-78 -151l66 -66q38 -42 52 -69t14 -73q0 -77 -38 -112t-117 -35q-50 0 -98 13q-16 4 -22 14.5t-6 40.5q0 45 18 45q5 0 31.5 -4.5t47.5 -4.5q38 0 51 12.5
t13 42.5q0 31 -28 58l-68 67q-26 24 -26 53q0 20 12 46l71 140q-27 11 -81 11q-53 0 -68 -13.5t-15 -47.5v-434q0 -21 -11.5 -27.5t-46.5 -6.5z" />
    <glyph glyph-name="Ygrave" unicode="&#x1ef2;" horiz-adv-x="474" 
d="M237 0q-35 0 -46.5 6.5t-11.5 27.5v194l-150 320q-15 31 -15 46q0 27 51 27q42 0 54.5 -6t21.5 -27l94 -239h5l93 239q8 22 20.5 27.5t53.5 5.5q54 0 54 -26q0 -14 -16 -47l-150 -320v-194q0 -21 -11.5 -27.5t-46.5 -6.5zM256 665q-24 0 -37 4t-18 9t-12 17l-43 74
q-15 25 -15 42q0 12 12 17t48 5q38 0 48.5 -7t21.5 -31l33 -74q10 -22 10 -35q0 -21 -48 -21z" />
    <glyph glyph-name="ygrave" unicode="&#x1ef3;" horiz-adv-x="471" 
d="M19 463q0 16 11.5 23t48.5 7q35 0 46.5 -5.5t16.5 -24.5l86 -366h11l90 366q5 19 16.5 24.5t45.5 5.5q37 0 49.5 -6.5t12.5 -22.5q0 -19 -16 -73l-125 -426q-14 -49 -26 -76.5t-31 -48.5t-44.5 -28.5t-65.5 -7.5q-57 0 -97 14q-15 5 -21 14.5t-6 33.5q0 47 21 47
q1 0 30.5 -4.5t59.5 -4.5q38 0 51 10.5t22 43.5l10 42q-43 0 -59 11t-25 42l-94 325q-18 61 -18 85zM258 539q-24 0 -37 4t-18 9t-12 17l-43 74q-15 25 -15 42q0 12 12 17t48 5q38 0 48.5 -7t21.5 -31l33 -74q10 -22 10 -35q0 -21 -48 -21z" />
    <glyph glyph-name="endash" unicode="&#x2013;" horiz-adv-x="422" 
d="M30 257q0 32 6 41.5t25 9.5h300q19 0 25 -9.5t6 -41.5t-6 -41.5t-25 -9.5h-300q-19 0 -25 9.5t-6 41.5z" />
    <glyph glyph-name="emdash" unicode="&#x2014;" horiz-adv-x="670" 
d="M30 257q0 32 6 41.5t25 9.5h548q19 0 25 -9.5t6 -41.5t-6 -41.5t-25 -9.5h-548q-19 0 -25 9.5t-6 41.5z" />
    <glyph glyph-name="afii00208" unicode="&#x2015;" horiz-adv-x="670" 
d="M30 257q0 32 6 41.5t25 9.5h548q19 0 25 -9.5t6 -41.5t-6 -41.5t-25 -9.5h-548q-19 0 -25 9.5t-6 41.5z" />
    <glyph glyph-name="quoteleft" unicode="&#x2018;" horiz-adv-x="198" 
d="M91 405q-37 0 -48 8t-11 34v27q0 35 18 91l15 49q11 26 22 33.5t41 7.5q21 0 28 -4.5t7 -15.5q0 -8 -6.5 -53.5t-6.5 -72.5v-62q0 -27 -10.5 -34.5t-48.5 -7.5z" />
    <glyph glyph-name="quoteright" unicode="&#x2019;" horiz-adv-x="198" 
d="M107 655q38 0 48.5 -7.5t10.5 -34.5v-27q0 -43 -17 -91l-16 -49q-11 -26 -22 -33.5t-41 -7.5q-35 0 -35 20q0 8 6.5 53.5t6.5 72.5v62q0 26 11 34t48 8z" />
    <glyph glyph-name="quotesinglbase" unicode="&#x201a;" horiz-adv-x="176" 
d="M89 122q38 0 48.5 -8t10.5 -35v-27q0 -43 -17 -92l-16 -48q-9 -27 -20.5 -34.5t-42.5 -7.5q-21 0 -28 5t-7 16q0 7 6.5 53t6.5 73v62q0 27 11 35t48 8z" />
    <glyph glyph-name="quotedblleft" unicode="&#x201c;" horiz-adv-x="370" 
d="M91 405q-37 0 -48 8t-11 34v27q0 35 18 91l15 49q11 26 22 33.5t41 7.5q21 0 28 -4.5t7 -15.5q0 -8 -6.5 -53.5t-6.5 -72.5v-62q0 -27 -10.5 -34.5t-48.5 -7.5zM263 405q-38 0 -48.5 7.5t-10.5 34.5v27q0 38 17 91l15 49q11 26 22 33.5t41 7.5q21 0 28 -4.5t7 -15.5
q0 -8 -6 -53.5t-6 -72.5v-62q0 -26 -11 -34t-48 -8z" />
    <glyph glyph-name="quotedblright" unicode="&#x201d;" horiz-adv-x="370" 
d="M278 655q38 0 48.5 -7.5t10.5 -34.5v-27q0 -38 -17 -91l-15 -49q-11 -26 -22 -33.5t-41 -7.5q-21 0 -28.5 4.5t-7.5 15.5q0 8 6.5 53.5t6.5 72.5v62q0 26 11 34t48 8zM107 655q38 0 48.5 -7.5t10.5 -34.5v-27q0 -43 -17 -91l-16 -49q-11 -26 -22 -33.5t-41 -7.5
q-35 0 -35 20q0 8 6.5 53.5t6.5 72.5v62q0 26 11 34t48 8z" />
    <glyph glyph-name="quotedblbase" unicode="&#x201e;" horiz-adv-x="347" 
d="M89 122q38 0 48.5 -8t10.5 -35v-27q0 -43 -17 -92l-16 -48q-9 -27 -20.5 -34.5t-42.5 -7.5q-21 0 -28 5t-7 16q0 7 6.5 53t6.5 73v62q0 27 11 35t48 8zM260 122q38 0 48.5 -8t10.5 -35v-27q0 -43 -17 -92l-15 -48q-11 -27 -22 -34.5t-41 -7.5q-21 0 -28.5 5t-7.5 16
q0 7 6.5 53t6.5 73v62q0 27 11 35t48 8z" />
    <glyph glyph-name="dagger" unicode="&#x2020;" horiz-adv-x="439" 
d="M220 -189q-34 0 -45.5 5.5t-11.5 25.5v475h-108q-20 0 -25.5 9.5t-5.5 40.5t5.5 40.5t25.5 9.5h108v133q0 19 12 25t45 6t45 -6t12 -25v-133h107q20 0 25.5 -9.5t5.5 -40.5t-5.5 -40.5t-25.5 -9.5h-107v-475q0 -19 -12 -25t-45 -6z" />
    <glyph glyph-name="daggerdbl" unicode="&#x2021;" horiz-adv-x="439" 
d="M220 -189q-34 0 -45.5 5.5t-11.5 25.5v132h-108q-20 0 -25.5 9.5t-5.5 40.5t5.5 40.5t25.5 9.5h108v243h-108q-20 0 -25.5 9.5t-5.5 40.5t5.5 40.5t25.5 9.5h108v133q0 19 12 25t45 6t45 -6t12 -25v-133h107q20 0 25.5 -9.5t5.5 -40.5t-5.5 -40.5t-25.5 -9.5h-107v-243
h107q20 0 25.5 -9.5t5.5 -40.5t-5.5 -40.5t-25.5 -9.5h-107v-132q0 -19 -12 -25t-45 -6z" />
    <glyph glyph-name="bullet" unicode="&#x2022;" horiz-adv-x="322" 
d="M161 136q-75 0 -103 28t-28 107q0 82 27 107.5t104 25.5q76 0 103.5 -25.5t27.5 -107.5q0 -79 -28 -107t-103 -28z" />
    <glyph glyph-name="ellipsis" unicode="&#x2026;" horiz-adv-x="578" 
d="M95 0q-38 0 -49 8t-11 35v36q0 27 11 35t49 8t49 -8t11 -35v-36q0 -27 -11 -35t-49 -8zM290 0q-38 0 -49.5 8t-11.5 35v36q0 27 11.5 35t49.5 8t49 -8t11 -35v-36q0 -27 -11 -35t-49 -8zM484 0q-38 0 -49 8t-11 35v36q0 27 11 35t49 8t49.5 -8t11.5 -35v-36
q0 -27 -11.5 -35t-49.5 -8z" />
    <glyph glyph-name="perthousand" unicode="&#x2030;" horiz-adv-x="803" 
d="M143 335q-75 0 -99 28.5t-24 115.5q0 86 25.5 114t97.5 28t97 -28t25 -114q0 -55 -8 -82l118 201q8 14 19.5 18.5t43.5 4.5q40 0 40 -17q0 -11 -13 -32l-180 -309q26 23 93 23q73 0 98 -28t25 -114q0 -87 -24 -115.5t-99 -28.5t-98.5 28.5t-23.5 115.5q0 57 9 83
l-119 -204q-8 -13 -20 -18t-43 -5q-40 0 -40 16q0 11 12 33l179 307q-25 -21 -91 -21zM660 0q-75 0 -98.5 28.5t-23.5 115.5q0 86 25 114t97 28q73 0 98 -28t25 -114q0 -87 -24 -115.5t-99 -28.5zM143 404q27 0 34 13t7 60q0 48 -7 61t-34 13q-28 0 -34.5 -13t-6.5 -61
q0 -47 7 -60t34 -13zM378 70q27 0 34 13t7 60q0 48 -6.5 60.5t-34.5 12.5q-27 0 -34 -13t-7 -60t7 -60t34 -13zM660 70q27 0 34 13t7 60q0 48 -6.5 60.5t-34.5 12.5q-27 0 -34 -13t-7 -60t7 -60t34 -13z" />
    <glyph glyph-name="guilsinglleft" unicode="&#x2039;" horiz-adv-x="320" 
d="M142 255v-8l122 -91q18 -14 22.5 -26t4.5 -47q0 -39 -20 -39q-9 0 -23 9l-177 112q-25 16 -33.5 31t-8.5 55q0 41 8.5 56t33.5 31l177 112q14 9 23 9q20 0 20 -40q0 -34 -4.5 -46t-22.5 -26z" />
    <glyph glyph-name="guilsinglright" unicode="&#x203a;" horiz-adv-x="320" 
d="M291 251q0 -40 -8.5 -55t-33.5 -31l-176 -112q-14 -9 -24 -9q-20 0 -20 39q0 35 5 47t23 26l121 91v8l-121 92q-18 14 -23 25.5t-5 46.5q0 40 20 40q10 0 24 -9l176 -112q25 -16 33.5 -31t8.5 -56z" />
    <glyph glyph-name="fraction" unicode="&#x2044;" 
d="M343 631q22 0 30.5 -3.5t8.5 -13.5q0 -11 -8 -32l-203 -554q-5 -16 -16 -22t-37 -6q-23 0 -31 3.5t-8 12.5q0 14 7 33l204 554q6 17 16 22.5t37 5.5z" />
    <glyph glyph-name="Euro" unicode="&#x20ac;" 
d="M332 277q0 -12 -12 -48q-4 -12 -16 -12h-122q2 -80 24 -101t87 -21q40 0 79.5 8t41.5 8q11 0 14.5 -8t3.5 -38q0 -29 -5.5 -39t-18.5 -14q-62 -19 -145 -19q-46 0 -74.5 6.5t-57 28t-43 68.5t-17.5 121h-41q-13 0 -13 10q0 9 13 48q5 13 16 13h25v52h-41q-13 0 -13 10
q0 12 13 48q5 13 16 13h26q3 57 14.5 97.5t27.5 63.5t42 35t50 15.5t60 3.5q75 0 142 -19q14 -4 19 -13.5t5 -40.5q0 -28 -4 -36.5t-14 -8.5q-1 0 -42 7.5t-79 7.5q-66 0 -87 -19.5t-24 -92.5h160q12 0 12 -11q0 -12 -12 -48q-5 -12 -16 -12h-144v-52h138q12 0 12 -11z" />
    <glyph glyph-name="hryvnia" unicode="&#x20b4;" 
d="M46 367q0 23 5.5 30t22.5 7h166l23 26q31 34 31 62q0 18 -15.5 24t-60.5 6q-37 0 -87 -7t-52 -7q-20 0 -20 46q0 30 5.5 40t19.5 14q64 18 159 18q80 0 118 -22.5t38 -84.5q0 -52 -48 -115h33q18 0 23.5 -7t5.5 -30q0 -24 -5.5 -30.5t-23.5 -6.5h-95l-32 -38h127
q18 0 23.5 -7t5.5 -31q0 -23 -5.5 -30t-23.5 -7h-191q-40 -46 -40 -79q0 -24 22.5 -33t77.5 -9q42 0 91 6.5t53 6.5q11 0 15 -8t4 -36q0 -30 -5 -40t-21 -14q-64 -18 -164 -18q-92 0 -135 27.5t-43 100.5q0 46 34 96h-8q-17 0 -22.5 7t-5.5 30q0 24 5.5 31t22.5 7h70l33 38
h-103q-17 0 -22.5 6.5t-5.5 30.5z" />
    <glyph glyph-name="numero" unicode="&#x2116;" horiz-adv-x="908" 
d="M574 132q0 32 6 41.5t25 9.5h219q19 0 25 -9.5t6 -41.5t-6 -41.5t-25 -9.5h-219q-19 0 -25 9.5t-6 41.5zM710 247q-42 0 -67 6.5t-45.5 25.5t-29 56.5t-8.5 97.5q0 64 9 102.5t31 58.5t49 26t74 6q42 0 67 -6t46 -24.5t29.5 -56t8.5 -97.5q0 -64 -9 -102.5t-31 -59
t-49.5 -27t-74.5 -6.5zM712 325q41 0 53.5 19t12.5 90q0 75 -11.5 95t-46.5 20q-41 0 -53 -19t-12 -89q0 -76 11 -96t46 -20zM104 0q-35 0 -46.5 6.5t-11.5 27.5v553q0 21 13.5 27.5t55.5 6.5q33 0 48 -6t26 -27l177 -382h9v381q0 21 11.5 27.5t46.5 6.5t46.5 -6.5
t11.5 -27.5v-553q0 -22 -12.5 -28t-54.5 -6q-31 0 -44 5.5t-25 26.5l-184 383h-9v-381q0 -21 -11.5 -27.5t-46.5 -6.5z" />
    <glyph glyph-name="trademark" unicode="&#x2122;" horiz-adv-x="811" 
d="M176 264q-33 0 -42 6t-9 28v234h-70q-19 0 -25 7.5t-6 36.5q0 30 6 37.5t25 7.5h242q19 0 25 -7.5t6 -37.5q0 -29 -6 -36.5t-25 -7.5h-69v-234q0 -22 -9 -28t-43 -6zM426 261q-33 0 -42 6t-9 28v285q0 26 13 33.5t63 7.5q44 0 59.5 -8t26.5 -39l43 -126l44 126
q11 31 26.5 39t59.5 8q50 0 63 -7.5t13 -33.5v-285q0 -22 -9 -28t-42 -6t-42 6t-9 28q0 32 0.5 96.5t0.5 95.5h-7l-46 -124q-9 -25 -18 -31.5t-34 -6.5q-24 0 -33 7t-18 31l-46 124h-8q2 -126 2 -192q0 -22 -9 -28t-42 -6z" />
    <glyph glyph-name="minus" unicode="&#x2212;" 
d="M84 257q0 32 6 41.5t25 9.5h236q19 0 25 -9.5t6 -41.5t-6 -41.5t-25 -9.5h-236q-19 0 -25 9.5t-6 41.5z" />
    <glyph glyph-name="commaaccent" unicode="&#xf6c3;" horiz-adv-x="179" 
d="M62 -239q-21 0 -28.5 5t-7.5 16q0 7 5.5 50.5t5.5 76.5q0 28 10.5 36.5t48.5 8.5q34 0 46.5 -7t12.5 -27q0 -46 -13 -73l-23 -58q-8 -17 -18 -22.5t-39 -5.5z" />
    <glyph glyph-name="ruble" 
d="M133 0q-35 0 -46.5 6.5t-11.5 27.5v109h-31q-18 0 -23.5 6.5t-5.5 30.5t5.5 30.5t23.5 6.5h31v47h-31q-18 0 -23.5 6.5t-5.5 30.5q0 23 5.5 30t23.5 7h31v240q0 20 8 28.5t27 10.5q77 9 147 9q109 0 145.5 -31t36.5 -134q0 -115 -42.5 -156t-158.5 -41h-47v-47h155
q17 0 22.5 -6.5t5.5 -30.5t-5.5 -30.5t-22.5 -6.5h-155v-109q0 -21 -11.5 -27.5t-46.5 -6.5zM191 536v-198h46q55 0 72.5 23.5t17.5 88.5q0 59 -12.5 74.5t-65.5 15.5q-24 0 -58 -4z" />
    </font>
</defs>
</svg>
