<?xml version="1.0" standalone="no"?>
<!DOCTYPE svg PUBLIC "-//W3C//DTD SVG 1.1//EN" "http://www.w3.org/Graphics/SVG/1.1/DTD/svg11.dtd" >
<svg xmlns="http://www.w3.org/2000/svg" xmlns:xlink="http://www.w3.org/1999/xlink" version="1.1">
<metadata>
Created by FontForge 20161013 at Fri Nov 30 21:21:10 2012
 By ,,,
Copyright (c) 2012 by Manuel Eduardo Corradine - Sergio Rami'rez. All rights reserved.
</metadata>
<defs>
<font id="Neuron-ExtraBold" horiz-adv-x="467" >
  <font-face 
    font-family="Neuron ExtraBold"
    font-weight="800"
    font-stretch="normal"
    units-per-em="1000"
    panose-1="0 0 0 0 0 0 0 0 0 0"
    ascent="800"
    descent="-200"
    x-height="493"
    cap-height="624"
    bbox="-58 -246 880 892"
    underline-thickness="50"
    underline-position="-200"
    unicode-range="U+000D-F6C3"
  />
<missing-glyph horiz-adv-x="500" 
d="M75 0v561h350v-561h-350zM85 11h330v539h-330v-539zM324 349l-70 -69l70 -69l-5 -4l-69 69l-68 -69l-5 4l69 69l-69 69l4 5l69 -69l70 69z" />
    <glyph glyph-name=".notdef" horiz-adv-x="500" 
d="M75 0v561h350v-561h-350zM85 11h330v539h-330v-539zM324 349l-70 -69l70 -69l-5 -4l-69 69l-68 -69l-5 4l69 69l-69 69l4 5l69 -69l70 69z" />
    <glyph glyph-name=".null" horiz-adv-x="0" 
 />
    <glyph glyph-name="nonmarkingreturn" horiz-adv-x="333" 
 />
    <glyph glyph-name="NULL" horiz-adv-x="0" 
 />
    <glyph glyph-name="NULL" horiz-adv-x="0" 
 />
    <glyph glyph-name="CR" unicode="&#xd;" horiz-adv-x="424" 
 />
    <glyph glyph-name="space" unicode=" " horiz-adv-x="212" 
 />
    <glyph glyph-name="exclam" unicode="!" horiz-adv-x="219" 
d="M109 167q-38 0 -48 6.5t-10 30.5q0 48 -4.5 183.5t-4.5 199.5q0 23 13.5 30t53.5 7q39 0 52.5 -7t13.5 -30q0 -64 -4 -199.5t-4 -183.5q0 -24 -10 -30.5t-48 -6.5zM110 0q-43 0 -55.5 9t-12.5 39v25q0 30 12.5 39t55.5 9q42 0 54.5 -9t12.5 -39v-25q0 -30 -12.5 -39
t-54.5 -9z" />
    <glyph glyph-name="quotedbl" unicode="&#x22;" horiz-adv-x="341" 
d="M89 373q-27 0 -37 6t-12 23q-18 130 -18 181q0 25 12.5 33t54.5 8t54 -8t12 -33q0 -58 -17 -181q-2 -17 -12 -23t-37 -6zM253 373q-27 0 -37 6t-12 23q-18 130 -18 181q0 25 12.5 33t54.5 8t54 -8t12 -33q0 -58 -17 -181q-2 -17 -12 -23t-37 -6z" />
    <glyph glyph-name="numbersign" unicode="#" 
d="M321 39q-31 0 -41.5 6.5t-10.5 30.5v91h-73v-91q0 -24 -10.5 -30.5t-41.5 -6.5t-41.5 6.5t-10.5 30.5v91h-35q-24 0 -30.5 8t-6.5 37q0 30 6.5 37.5t30.5 7.5h35v122h-35q-24 0 -30.5 7.5t-6.5 37.5t6.5 37.5t30.5 7.5h35v87q0 23 10.5 30t41.5 7t41.5 -7t10.5 -30v-87
h73v87q0 23 10.5 30t41.5 7t42 -7t11 -30v-87h35q24 0 30.5 -7.5t6.5 -37.5t-6.5 -37.5t-30.5 -7.5h-35v-122h35q24 0 30.5 -7.5t6.5 -37.5q0 -29 -6.5 -37t-30.5 -8h-35v-91q0 -24 -10.5 -30.5t-42.5 -6.5zM196 379v-122h73v122h-73z" />
    <glyph glyph-name="dollar" unicode="$" 
d="M246 720q38 0 48.5 -6.5t10.5 -30.5v-58q53 -7 83 -16q13 -3 18.5 -14.5t5.5 -45.5q0 -52 -22 -52q-1 0 -43.5 7.5t-84.5 7.5q-47 0 -66.5 -10.5t-19.5 -46.5q0 -24 9 -35.5t32 -21.5l111 -48q54 -23 77 -59t23 -107q0 -158 -142 -186v-67q0 -25 -10 -31t-49 -6
q-38 0 -48.5 6.5t-10.5 30.5v61q-66 5 -101 16q-17 5 -23 16.5t-6 44.5q0 32 4.5 42t16.5 10q4 0 45 -7t85 -7q58 0 85.5 15.5t27.5 54.5q0 30 -9.5 46.5t-38.5 28.5l-109 46q-48 20 -72 55.5t-24 103.5q0 151 138 169v57q0 24 10.5 30.5t48.5 6.5z" />
    <glyph glyph-name="percent" unicode="%" horiz-adv-x="536" 
d="M147 329q-77 0 -102 29.5t-25 119.5q0 89 26.5 117.5t100.5 28.5t100.5 -28.5t26.5 -117.5q0 -34 -3 -59l104 180q8 14 22 19.5t49 5.5q45 0 45 -18q0 -11 -14 -37l-167 -287q25 12 78 12q75 0 101.5 -28.5t26.5 -117.5q0 -90 -25.5 -119t-102.5 -29t-101.5 29t-24.5 119
q0 32 3 56l-104 -179q-9 -15 -22 -20t-48 -5q-46 0 -46 18q0 11 14 36l166 286q-23 -11 -78 -11zM388 77q25 0 31.5 12.5t6.5 57.5q0 46 -6 58t-32 12q-24 0 -30.5 -12.5t-6.5 -57.5t6.5 -57.5t30.5 -12.5zM147 406q24 0 30.5 12.5t6.5 57.5q0 46 -6 58t-31 12t-31 -12
t-6 -58q0 -45 6.5 -57.5t30.5 -12.5z" />
    <glyph glyph-name="ampersand" unicode="&#x26;" horiz-adv-x="519" 
d="M478 265h-36v-129q0 -84 -48.5 -113.5t-148.5 -29.5q-112 0 -162 37.5t-50 134.5q0 73 31 109t99 40q-53 7 -80 50t-27 107q0 91 41.5 124.5t123.5 33.5q92 0 163 -19q14 -4 19 -14t5 -43q0 -51 -23 -51q-5 0 -53.5 6.5t-81.5 6.5q-35 0 -47 -14t-12 -58q0 -43 18 -63.5
t72 -20.5h48v41q0 25 9 31t44 6t44 -6t9 -31v-41h43q21 0 27.5 -9.5t6.5 -37.5t-6.5 -37.5t-27.5 -9.5zM251 104q45 0 61.5 13.5t16.5 48.5v99h-53q-65 0 -87.5 -19.5t-22.5 -64.5q0 -43 17 -60t68 -17z" />
    <glyph glyph-name="quotesingle" unicode="'" horiz-adv-x="177" 
d="M89 373q-27 0 -37 6t-12 23q-18 130 -18 181q0 25 12.5 33t54.5 8t54 -8t12 -33q0 -58 -17 -181q-2 -17 -12 -23t-37 -6z" />
    <glyph glyph-name="parenleft" unicode="(" horiz-adv-x="226" 
d="M31 310q0 101 20 189t48 142q10 20 24 27.5t47 7.5q45 0 45 -28q0 -9 -12.5 -52t-25 -119t-12.5 -167t12.5 -167.5t25 -119t12.5 -51.5q0 -28 -45 -28q-33 0 -47 7t-24 27q-28 56 -48 143.5t-20 188.5z" />
    <glyph glyph-name="parenright" unicode=")" horiz-adv-x="226" 
d="M195 310q0 -101 -20 -188.5t-48 -143.5q-10 -20 -24 -27t-47 -7q-44 0 -44 28q0 9 12 52t24.5 119t12.5 167t-12 167.5t-24.5 119t-12.5 51.5q0 28 44 28q33 0 47 -7.5t24 -27.5q28 -54 48 -142t20 -189z" />
    <glyph glyph-name="asterisk" unicode="*" horiz-adv-x="399" 
d="M200 629q30 0 39.5 -6t9.5 -22v-66q0 -12 -3 -21q4 3 19 9l61 20q8 2 11 2q17 0 30 -41q8 -26 8 -36q0 -14 -18 -20l-61 -19q-13 -5 -19 -5q6 -5 14 -14l39 -54q6 -9 6 -15q0 -14 -31 -36q-26 -19 -38 -19q-10 0 -19 12l-39 54q-9 11 -10 16q-3 -6 -9 -16l-39 -54
q-9 -12 -19 -12q-12 0 -38 19q-31 22 -31 35q0 7 6 16l39 54q8 9 14 14q-6 0 -19 5l-61 19q-18 6 -18 22q0 17 11.5 46t24.5 29q5 0 13 -2l61 -20q15 -5 18 -8q-2 10 -2 20v66q0 16 9.5 22t40.5 6z" />
    <glyph glyph-name="plus" unicode="+" 
d="M233 88q-36 0 -46.5 6t-10.5 27v97h-83q-22 0 -28 8t-6 43q0 34 6 42t28 8h83v97q0 22 10.5 28t46.5 6t47 -6t11 -28v-97h83q22 0 28 -8t6 -42q0 -35 -6 -43t-28 -8h-83v-97q0 -21 -11 -27t-47 -6z" />
    <glyph glyph-name="comma" unicode="," horiz-adv-x="185" 
d="M96 135q42 0 54 -9t12 -39v-28q0 -43 -19 -97l-15 -44q-10 -31 -23.5 -39.5t-48.5 -8.5q-23 0 -31 5.5t-8 18.5q0 8 6 54t6 72v67q0 30 12.5 39t54.5 9z" />
    <glyph glyph-name="hyphen" unicode="-" horiz-adv-x="330" 
d="M27 254q0 36 6 47t28 11h208q22 0 28 -11t6 -47t-6 -46.5t-28 -10.5h-208q-22 0 -28 10.5t-6 46.5z" />
    <glyph glyph-name="period" unicode="." horiz-adv-x="195" 
d="M98 0q-43 0 -55 9t-12 39v39q0 30 12 39t55 9t55.5 -9t12.5 -39v-39q0 -30 -12.5 -39t-55.5 -9z" />
    <glyph glyph-name="slash" unicode="/" horiz-adv-x="281" 
d="M220 676q55 0 55 -25q0 -8 -10 -54l-139 -620q-8 -33 -65 -33q-54 0 -54 25q0 12 9 54l140 620q7 33 64 33z" />
    <glyph glyph-name="zero" unicode="0" 
d="M233 106q47 0 63 24.5t16 101.5v150q0 87 -15 110.5t-64 23.5q-47 0 -62.5 -24t-15.5 -110v-150q0 -78 15 -102t63 -24zM233 -7q-110 0 -160 46t-50 177v169q0 78 12 126.5t40 74t64 34.5t94 9q80 0 123 -18t65.5 -71.5t22.5 -154.5v-167q0 -70 -14 -115.5t-43.5 -69
t-65 -32t-88.5 -8.5z" />
    <glyph glyph-name="one" unicode="1" 
d="M378 0h-288q-19 0 -26.5 12t-7.5 46t7.5 46t26.5 12h78v367l-65 -17q-16 -4 -26 -4q-7 0 -11 3t-7.5 16t-3.5 37q0 37 6 50t24 18l97 29q24 9 51 9q40 0 53 -7t13 -30v-471h79q19 0 26.5 -12t7.5 -46t-7.5 -46t-26.5 -12z" />
    <glyph glyph-name="two" unicode="2" 
d="M189 116h205q19 0 26.5 -12t7.5 -46t-7.5 -46t-26.5 -12h-319q-21 0 -29 7t-8 29v59q0 52 20 87.5t65 81.5l128 128q31 33 31 68t-14 45t-58 10q-38 0 -84.5 -8t-52.5 -8q-20 0 -20 51q0 33 6 44t22 16q62 19 168 19q30 0 50.5 -2t44.5 -10.5t38 -24.5t24 -45t10 -70
q0 -22 -4 -41t-7 -30.5t-16.5 -29.5t-18.5 -24.5t-26.5 -29.5t-29.5 -31l-98 -94q-27 -25 -27 -58v-23z" />
    <glyph glyph-name="three" unicode="3" 
d="M229 -7q-102 0 -167 18q-17 5 -23 15t-6 43q0 31 5 41.5t16 10.5q5 0 59 -7t92 -7q52 0 70 20t18 63q0 44 -27.5 61.5t-105.5 17.5q-20 0 -26.5 10.5t-6.5 40.5t6.5 40.5t26.5 10.5q67 0 93.5 19.5t26.5 61.5q0 36 -13.5 49.5t-54.5 13.5q-37 0 -86.5 -7t-52.5 -7
q-22 0 -22 52q0 33 5 43t19 14q71 19 172 19q83 0 125 -33.5t42 -124.5q0 -62 -28.5 -102t-81.5 -47q65 -4 93.5 -38.5t28.5 -108.5q0 -97 -49.5 -139.5t-147.5 -42.5z" />
    <glyph glyph-name="four" unicode="4" 
d="M327 0q-40 0 -53 7t-13 30v102h-202q-28 0 -36 11t-8 55q0 35 19 74l156 307q13 25 34.5 31.5t76.5 6.5t73 -7t18 -30v-339h26q20 0 27 -10.5t7 -44.5t-7 -44t-27 -10h-26v-102q0 -23 -13 -30t-52 -7zM264 503l-123 -255h127l3 255h-7z" />
    <glyph glyph-name="five" unicode="5" 
d="M209 -7q-72 0 -135 18q-17 5 -23 15t-6 43q0 32 4.5 42t16.5 10q3 0 42 -7.5t81 -7.5q60 0 80.5 16.5t20.5 64.5v34q0 39 -13.5 52t-50.5 13q-31 0 -78.5 -6.5t-56.5 -6.5q-11 0 -17 1t-11.5 7.5t-5.5 19.5v289q0 21 8 27.5t31 6.5h272q19 0 26.5 -12t7.5 -46
q0 -35 -7.5 -46.5t-26.5 -11.5h-193v-122q33 10 90 10q27 0 44 -1.5t41 -10.5t37.5 -25.5t24 -49t10.5 -78.5v-58q0 -47 -11.5 -80.5t-30 -52.5t-48 -30t-57.5 -14t-66 -3z" />
    <glyph glyph-name="six" unicode="6" 
d="M233 -7q-40 0 -67 4t-54.5 18.5t-43.5 40.5t-26 71t-10 109v136q0 68 13.5 117t33 75.5t50.5 41.5t57.5 19t62.5 4q64 0 130 -17q14 -3 19 -12.5t5 -43.5q0 -52 -22 -52q-3 0 -42 6t-74 6q-33 0 -51 -4t-32.5 -19t-20 -44.5t-5.5 -79.5v-38q31 59 129 59q54 0 84 -13
t47.5 -54t17.5 -118q0 -123 -45.5 -167.5t-155.5 -44.5zM236 106q44 0 60.5 18.5t16.5 70.5q0 54 -14.5 71.5t-62.5 17.5q-45 0 -62.5 -17t-17.5 -63q0 -61 16 -79.5t64 -18.5z" />
    <glyph glyph-name="seven" unicode="7" 
d="M169 0q-57 0 -57 28q0 15 14 53l156 427h-216q-19 0 -26.5 11.5t-7.5 46.5q0 34 7.5 46t26.5 12h311q28 0 36 -11.5t8 -55.5q0 -27 -17 -74l-161 -449q-8 -21 -24.5 -27.5t-49.5 -6.5z" />
    <glyph glyph-name="eight" unicode="8" 
d="M233 -7q-121 0 -164 41.5t-43 145.5q0 120 92 151q-77 29 -77 142q0 89 48 122.5t144 33.5t144 -33.5t48 -122.5q0 -111 -77 -142q93 -30 93 -151q0 -104 -43.5 -145.5t-164.5 -41.5zM233 104q46 0 60.5 17.5t14.5 71.5q0 55 -15 70.5t-60 15.5t-60.5 -15.5t-15.5 -70.5
q0 -54 14.5 -71.5t61.5 -17.5zM233 381q39 0 51 12.5t12 61.5q0 43 -13.5 55t-49.5 12t-50 -12t-14 -55q0 -48 12.5 -61t51.5 -13z" />
    <glyph glyph-name="nine" unicode="9" 
d="M216 -7q-74 0 -132 13q-17 4 -23 14.5t-6 45.5q0 52 22 52q2 0 39 -6t73 -6q74 0 96.5 25.5t22.5 123.5v32q-30 -57 -125 -57q-82 0 -116 37.5t-34 152.5q0 119 45 164t153 45q51 0 83 -7.5t61.5 -31.5t43.5 -74.5t14 -129.5v-134q0 -69 -13 -118.5t-32 -76t-50.5 -41.5
t-58 -19t-63.5 -4zM229 336q45 0 62 17.5t17 63.5q0 64 -14 83t-62 19q-47 0 -62 -18.5t-15 -73.5t13.5 -73t60.5 -18z" />
    <glyph glyph-name="colon" unicode=":" horiz-adv-x="195" 
d="M98 0q-43 0 -55 9t-12 39v39q0 30 12 39t55 9t55.5 -9t12.5 -39v-39q0 -30 -12.5 -39t-55.5 -9zM98 362q-43 0 -55 9t-12 39v39q0 30 12 39t55 9t55.5 -9t12.5 -39v-39q0 -30 -12.5 -39t-55.5 -9z" />
    <glyph glyph-name="semicolon" unicode=";" horiz-adv-x="183" 
d="M89 135q42 0 54 -9t12 -39v-28q0 -43 -19 -97l-15 -44q-10 -31 -23.5 -39.5t-48.5 -8.5q-23 0 -31 5.5t-8 18.5q0 8 6 54t6 72v67q0 30 12.5 39t54.5 9zM86 362q-42 0 -54.5 9t-12.5 39v39q0 30 12.5 39t54.5 9q43 0 55.5 -9t12.5 -39v-39q0 -30 -12.5 -39t-55.5 -9z" />
    <glyph glyph-name="less" unicode="&#x3c;" 
d="M167 265l189 -54q23 -7 29 -18.5t6 -53.5q0 -30 -6 -40t-18 -10q-9 0 -24 5l-234 78q-29 9 -38 26.5t-9 70.5q0 52 9 69t38 26l234 78q11 5 24 5q12 0 18 -10t6 -39q0 -42 -5.5 -53.5t-29.5 -18.5l-189 -54v-7z" />
    <glyph glyph-name="equal" unicode="=" 
d="M72 189q0 34 6 42.5t28 8.5h255q22 0 27.5 -8.5t5.5 -42.5t-5.5 -42t-27.5 -8h-255q-22 0 -28 8t-6 42zM72 353q0 34 6 42.5t28 8.5h255q22 0 27.5 -8.5t5.5 -42.5t-5.5 -42t-27.5 -8h-255q-22 0 -28 8t-6 42z" />
    <glyph glyph-name="greater" unicode="&#x3e;" 
d="M110 211l189 54v7l-189 54q-24 7 -29.5 18.5t-5.5 53.5q0 29 6 39t18 10q13 0 24 -5l234 -78q29 -9 38 -26t9 -69q0 -53 -9 -70.5t-38 -26.5l-234 -78q-15 -5 -24 -5q-12 0 -18 10t-6 40q0 42 6 53.5t29 18.5z" />
    <glyph glyph-name="question" unicode="?" horiz-adv-x="369" 
d="M162 167q-35 0 -47 7t-12 30v42q0 31 7 49t25 38l60 64q27 31 27 68q0 31 -14 40.5t-52 9.5q-34 0 -75 -7t-47 -7q-11 0 -16 10.5t-5 40.5q0 33 5.5 43t22.5 15q62 19 148 19q76 0 121 -28t45 -106q0 -48 -12.5 -76.5t-39.5 -57.5l-62 -70q-20 -23 -20 -61v-26
q0 -23 -12 -30t-47 -7zM162 0q-42 0 -54.5 9t-12.5 39v25q0 30 12.5 39t54.5 9t54.5 -9t12.5 -39v-25q0 -30 -12.5 -39t-54.5 -9z" />
    <glyph glyph-name="at" unicode="@" horiz-adv-x="890" 
d="M390 -10q-94 0 -124 50t-30 203q0 82 9 133t31 79.5t52 38t78 9.5q96 0 122 -74v27q0 24 10.5 30.5t48.5 6.5t48.5 -6.5t10.5 -30.5v-292q0 -43 11 -61.5t36 -18.5q31 0 43 33t12 126v70q0 82 -11.5 130.5t-45 82.5t-93 47t-157.5 13q-77 0 -130 -11.5t-87 -33t-52 -60
t-24.5 -84t-6.5 -114.5v-92q0 -91 16 -145.5t57.5 -85.5t99 -41t153.5 -10q19 0 26 -10t7 -41q0 -32 -8.5 -41.5t-37.5 -9.5q-129 0 -211 19.5t-132 68t-69 120.5t-19 186v69q0 108 17.5 180.5t63 128t128.5 81.5t209 26q127 0 211 -22.5t130.5 -71t65 -113t18.5 -160.5v-72
q0 -81 -15.5 -134.5t-44.5 -79t-59.5 -34.5t-72.5 -9q-57 0 -89.5 21.5t-49.5 71.5q-32 -93 -145 -93zM436 100q47 0 64 23t17 101v52q0 73 -14 95.5t-62 22.5q-29 0 -43 -10t-21.5 -43t-7.5 -101q0 -90 13 -115t54 -25z" />
    <glyph glyph-name="A" unicode="A" horiz-adv-x="539" 
d="M76 0q-40 0 -51.5 6.5t-11.5 23.5q0 8 7 40l126 493q10 40 32.5 50.5t90.5 10.5q69 0 91.5 -10.5t32.5 -50.5l126 -493q7 -32 7 -40q0 -17 -12 -23.5t-51 -6.5q-43 0 -56 7t-19 31l-31 121h-178l-28 -121q-5 -24 -18.5 -31t-56.5 -7zM263 514l-60 -255h133l-60 255h-13z
" />
    <glyph glyph-name="B" unicode="B" horiz-adv-x="519" 
d="M253 -7q-100 0 -167 8q-23 2 -29.5 9.5t-6.5 29.5v539q0 23 7.5 31.5t28.5 10.5q64 8 145 8q51 0 84 -3t63 -12.5t46 -27t25.5 -46t9.5 -70.5q0 -63 -17 -97.5t-62 -46.5q54 -11 77.5 -46.5t23.5 -111.5q0 -99 -47.5 -137t-180.5 -38zM181 516v-148h64q51 0 65.5 16
t14.5 66q0 44 -13.5 57t-61.5 13q-35 0 -69 -4zM181 277v-176q27 -4 79 -4q58 0 72.5 15.5t14.5 78.5q0 52 -15.5 69t-65.5 17h-85z" />
    <glyph glyph-name="C" unicode="C" horiz-adv-x="453" 
d="M254 -7q-52 0 -86 8t-66.5 33.5t-48 80.5t-15.5 141v93q0 76 12 129t30.5 82t49.5 45t58.5 20t68.5 4q75 0 146 -19q13 -4 18.5 -15t5.5 -45q0 -52 -19 -52q-2 0 -42 7t-77 7t-56.5 -4.5t-35.5 -22.5t-21.5 -51.5t-5.5 -92.5v-58q0 -62 5 -96.5t21.5 -51.5t35 -21
t57.5 -4t77 7t42 7q11 0 15 -10.5t4 -41.5q0 -33 -5.5 -44.5t-18.5 -15.5q-71 -19 -149 -19z" />
    <glyph glyph-name="D" unicode="D" horiz-adv-x="530" 
d="M248 108q49 0 70.5 10.5t32 47t10.5 117.5v76q0 100 -24.5 130.5t-97.5 30.5q-30 0 -58 -4v-404q36 -4 67 -4zM248 -7q-89 0 -162 8q-23 2 -29.5 10t-6.5 29v539q0 23 8 31.5t28 10.5q58 8 147 8q40 0 66.5 -2t56 -8t48.5 -17.5t37.5 -31t28.5 -47.5t16 -68t6 -92v-80
q0 -79 -13 -134t-32 -85t-53.5 -46.5t-65.5 -20.5t-80 -4z" />
    <glyph glyph-name="E" unicode="E" horiz-adv-x="455" 
d="M434 58q0 -34 -7.5 -46t-26.5 -12h-312q-22 0 -30 6.5t-8 27.5v556q0 21 8 27.5t30 6.5h302q19 0 26.5 -12t7.5 -46q0 -35 -7.5 -46.5t-26.5 -11.5h-209v-125h145q22 0 28 -10.5t6 -46.5t-6 -46.5t-28 -10.5h-145v-153h219q19 0 26.5 -12t7.5 -46z" />
    <glyph glyph-name="F" unicode="F" horiz-adv-x="432" 
d="M115 0q-39 0 -52 7t-13 30v553q0 21 8 27.5t30 6.5h299q19 0 26 -11.5t7 -46.5t-7 -46.5t-26 -11.5h-206v-125h142q22 0 28 -10.5t6 -46.5t-6 -46.5t-28 -10.5h-142v-232q0 -23 -13 -30t-53 -7z" />
    <glyph glyph-name="G" unicode="G" horiz-adv-x="499" 
d="M256 -7q-42 0 -71 4.5t-59.5 19.5t-48.5 43t-29.5 77t-11.5 119v93q0 76 12.5 129t30.5 82t50 45t60 20t71 4q84 0 155 -19q13 -4 18.5 -15t5.5 -45q0 -52 -19 -52q-2 0 -49 7t-84 7q-49 0 -71.5 -10t-35 -47t-12.5 -114v-58q0 -60 5.5 -96t20.5 -52.5t30 -20.5t44 -4
q41 0 60 14.5t19 56.5v64h-59q-16 0 -21.5 11.5t-5.5 46.5q0 30 5.5 40.5t21.5 10.5h130q27 0 35 -8t8 -26v-171q0 -83 -48.5 -119.5t-156.5 -36.5z" />
    <glyph glyph-name="H" unicode="H" horiz-adv-x="537" 
d="M181 371h174v216q0 23 13.5 30t52.5 7q40 0 53 -7t13 -30v-550q0 -23 -13 -30t-53 -7q-39 0 -52.5 7t-13.5 30v225h-174v-225q0 -23 -13 -30t-53 -7q-39 0 -52 7t-13 30v550q0 23 13 30t52 7q40 0 53 -7t13 -30v-216z" />
    <glyph glyph-name="I" unicode="I" horiz-adv-x="231" 
d="M115 0q-39 0 -52 7t-13 30v550q0 23 13 30t52 7q40 0 53 -7t13 -30v-550q0 -23 -13 -30t-53 -7z" />
    <glyph glyph-name="J" unicode="J" horiz-adv-x="355" 
d="M146 -7q-59 0 -110 15q-17 6 -23 17t-6 44q0 31 4.5 39.5t16.5 8.5q7 0 34.5 -3.5t48.5 -3.5q37 0 49.5 13t12.5 54v410q0 23 13.5 30t52.5 7q40 0 53 -7t13 -30v-407q0 -102 -37 -144.5t-122 -42.5z" />
    <glyph glyph-name="K" unicode="K" horiz-adv-x="495" 
d="M115 0q-39 0 -52 7t-13 30v550q0 23 13 30t52 7q40 0 53 -7t13 -30v-232h17l124 237q11 20 25.5 26t59.5 6q36 0 49 -6.5t13 -20.5q0 -11 -15 -36l-142 -247l145 -232q23 -36 23 -52q0 -14 -13.5 -22t-56.5 -8q-35 0 -50 6t-26 25l-136 239h-17v-233q0 -23 -13 -30
t-53 -7z" />
    <glyph glyph-name="L" unicode="L" horiz-adv-x="427" 
d="M181 116h199q19 0 26.5 -12t7.5 -46t-7.5 -46t-26.5 -12h-292q-22 0 -30 6.5t-8 27.5v553q0 23 13 30t52 7q40 0 53 -7t13 -30v-471z" />
    <glyph glyph-name="M" unicode="M" horiz-adv-x="657" 
d="M115 0q-39 0 -52 7t-13 30v541q0 26 15 36t59 10q51 0 69.5 -7.5t30.5 -36.5l102 -259h5l102 259q12 29 30.5 36.5t68.5 7.5q45 0 60 -10t15 -36v-541q0 -23 -13 -30t-53 -7q-39 0 -52 7t-13 30q0 197 3 381h-6l-78 -217q-10 -28 -22 -36t-45 -8q-32 0 -44 7.5t-22 36.5
l-79 217h-5q3 -184 3 -381q0 -23 -13 -30t-53 -7z" />
    <glyph glyph-name="N" unicode="N" horiz-adv-x="556" 
d="M115 0q-39 0 -52 7t-13 30v550q0 23 14 30t59 7q33 0 49.5 -6.5t29.5 -29.5l165 -345h8v344q0 23 13 30t53 7t53 -7t13 -30v-550q0 -24 -13.5 -30.5t-57.5 -6.5q-33 0 -46.5 6t-25.5 29l-174 345h-9v-343q0 -23 -13 -30t-53 -7z" />
    <glyph glyph-name="O" unicode="O" horiz-adv-x="531" 
d="M265 106q43 0 61.5 12t26.5 48t8 117v56q0 82 -7.5 117.5t-26 47.5t-62.5 12q-42 0 -60.5 -12t-26.5 -48t-8 -117v-56q0 -82 7.5 -117.5t25.5 -47.5t62 -12zM265 -7q-66 0 -104 8.5t-68.5 37t-42.5 84t-12 147.5v75q0 64 5.5 110t18.5 77.5t29 50.5t44.5 29.5t57 13.5
t72.5 3q69 0 107 -8.5t68.5 -38t41.5 -86t11 -151.5v-75q0 -62 -6 -107t-19.5 -75.5t-30.5 -49.5t-45 -29t-56.5 -13t-70.5 -3z" />
    <glyph glyph-name="P" unicode="P" horiz-adv-x="498" 
d="M115 0q-39 0 -52 7t-13 30v540q0 23 7.5 31.5t28.5 11.5q66 9 178 9q56 0 90.5 -7t62 -28t39.5 -61t12 -104q0 -127 -59.5 -174.5t-187.5 -47.5h-40v-170q0 -23 -13 -30t-53 -7zM181 516v-202h47q62 0 83 21.5t21 85.5q0 60 -17.5 79.5t-65.5 19.5q-34 0 -68 -4z" />
    <glyph glyph-name="Q" unicode="Q" horiz-adv-x="531" 
d="M265 -7q-66 0 -104 8.5t-68.5 37t-42.5 84t-12 147.5v75q0 64 5.5 110t18.5 77.5t29 50.5t44.5 29.5t57 13.5t72.5 3q69 0 107 -8.5t68.5 -38t41.5 -86t11 -151.5v-75q0 -112 -20 -170.5t-64 -82.5l46 -70q20 -31 20 -40q0 -26 -62 -26q-31 0 -44.5 7t-27.5 31l-44 75
q-10 -1 -32 -1zM265 106q43 0 61.5 12t26.5 48t8 117v56q0 82 -7.5 117.5t-26 47.5t-62.5 12q-42 0 -60.5 -12t-26.5 -48t-8 -117v-56q0 -82 7.5 -117.5t25.5 -47.5t62 -12z" />
    <glyph glyph-name="R" unicode="R" horiz-adv-x="510" 
d="M115 0q-39 0 -52 7t-13 30v540q0 23 7.5 31.5t28.5 11.5q66 9 178 9q55 0 90 -7t62.5 -27t39.5 -58t12 -97q0 -135 -93 -177l94 -198q13 -28 13 -39q0 -26 -53 -26q-50 0 -64 5.5t-24 30.5l-79 205h-81v-204q0 -23 -13 -30t-53 -7zM181 516v-182h59q54 0 73 19.5t19 78.5
q0 51 -18 69.5t-65 18.5q-34 0 -68 -4z" />
    <glyph glyph-name="S" unicode="S" horiz-adv-x="457" 
d="M205 -7q-78 0 -143 18q-17 5 -23 16.5t-6 45.5q0 31 5 41.5t16 10.5q4 0 45 -7.5t85 -7.5q58 0 85.5 15.5t27.5 55.5q0 29 -9 42.5t-38 26.5l-110 49q-49 22 -72.5 56.5t-23.5 101.5q0 172 181 172q91 0 159 -20q13 -3 18 -14.5t5 -45.5q0 -52 -22 -52q-1 0 -43 7.5
t-85 7.5q-47 0 -66.5 -10.5t-19.5 -46.5q0 -23 9.5 -33.5t35.5 -22.5l107 -47q55 -25 78 -59.5t23 -104.5q0 -195 -219 -195z" />
    <glyph glyph-name="T" unicode="T" horiz-adv-x="445" 
d="M223 0q-40 0 -53 7t-13 30v471h-113q-20 0 -27 11.5t-7 46.5t7 46.5t27 11.5h358q19 0 26 -11.5t7 -46.5t-7 -46.5t-26 -11.5h-114v-471q0 -23 -13 -30t-52 -7z" />
    <glyph glyph-name="U" unicode="U" horiz-adv-x="530" 
d="M265 -7q-118 0 -166.5 43t-48.5 151v400q0 23 13 30t52 7q40 0 53 -7t13 -30v-407q0 -44 16.5 -59.5t67.5 -15.5t67 15.5t16 59.5v407q0 23 13.5 30t52.5 7q40 0 53 -7t13 -30v-400q0 -108 -48.5 -151t-166.5 -43z" />
    <glyph glyph-name="V" unicode="V" horiz-adv-x="529" 
d="M271 109l104 477q5 24 20 31t58 7q40 0 51.5 -6.5t11.5 -23.5q0 -16 -7 -43l-126 -497q-9 -35 -30 -44.5t-88 -9.5q-68 0 -88.5 9.5t-29.5 44.5l-126 497q-8 30 -8 43q0 17 11.5 23.5t51.5 6.5q44 0 59 -7t19 -31l104 -477h13z" />
    <glyph glyph-name="W" unicode="W" horiz-adv-x="806" 
d="M215 0q-59 0 -81.5 10t-28.5 44l-88 499q-4 20 -4 40q0 18 12 24.5t51 6.5q43 0 57.5 -7t18.5 -31l67 -465h11l87 452q5 25 23 33t63 8q44 0 62 -8t23 -33l87 -452h12l67 465q4 24 18 31t58 7q39 0 50.5 -6.5t11.5 -24.5q0 -25 -3 -40l-88 -499q-6 -34 -28.5 -44
t-81.5 -10q-57 0 -81 11t-30 46l-72 371h-10l-72 -371q-6 -35 -30.5 -46t-80.5 -11z" />
    <glyph glyph-name="X" unicode="X" horiz-adv-x="504" 
d="M80 0q-65 0 -65 31q0 13 22 48l146 241l-133 222q-22 35 -22 50q0 32 67 32q40 0 54.5 -7t27.5 -31l74 -143h4l72 143q12 24 27 31t55 7q67 0 67 -32q0 -11 -22 -49l-134 -222l147 -240q22 -35 22 -50q0 -31 -66 -31q-40 0 -54 6.5t-28 31.5l-88 166h-4l-87 -166
q-13 -24 -27.5 -31t-54.5 -7z" />
    <glyph glyph-name="Y" unicode="Y" horiz-adv-x="484" 
d="M242 0q-40 0 -53 7t-13 30v187l-146 316q-17 37 -17 54q0 30 56 30q48 0 63 -7t24 -31l83 -226h5l83 226q9 25 23 31.5t61 6.5q60 0 60 -29q0 -18 -17 -55l-146 -316v-187q0 -23 -13.5 -30t-52.5 -7z" />
    <glyph glyph-name="Z" unicode="Z" horiz-adv-x="417" 
d="M245 508h-181q-19 0 -26.5 11.5t-7.5 46.5q0 34 7.5 46t26.5 12h301q21 0 27 -11t6 -43t-28 -84l-203 -370h203q19 0 26 -11.5t7 -46.5t-7 -46.5t-26 -11.5h-323q-21 0 -27.5 10.5t-6.5 42.5q0 30 32 89z" />
    <glyph glyph-name="bracketleft" unicode="[" horiz-adv-x="265" 
d="M253 1q0 -32 -7 -42t-26 -10h-143q-41 0 -41 39v643q0 21 10 30t31 9h139q20 0 27 -10t7 -41q0 -33 -7 -43.5t-27 -10.5h-56v-511h60q19 0 26 -10t7 -43z" />
    <glyph glyph-name="backslash" unicode="\" horiz-adv-x="281" 
d="M221 -56q-57 0 -65 33l-140 620q-9 40 -9 54q0 25 55 25q57 0 64 -33l140 -621q9 -39 9 -53q0 -25 -54 -25z" />
    <glyph glyph-name="bracketright" unicode="]" horiz-adv-x="265" 
d="M12 1q0 33 7 43t27 10h59v511h-56q-19 0 -26.5 10.5t-7.5 43.5q0 31 7 41t27 10h139q22 0 31.5 -9t9.5 -30v-643q0 -21 -9.5 -30t-31.5 -9h-142q-20 0 -27 10t-7 42z" />
    <glyph glyph-name="asciicircum" unicode="^" 
d="M237 517h-6l-56 -137q-9 -21 -19.5 -26.5t-51.5 -5.5q-30 0 -40.5 6t-10.5 18q0 6 8 26l76 181q12 29 28.5 38t69.5 9t68.5 -9t27.5 -38l75 -181q8 -20 8 -26q0 -24 -51 -24q-42 0 -53 5.5t-19 26.5z" />
    <glyph glyph-name="underscore" unicode="_" horiz-adv-x="502" 
d="M20 -76q0 36 6 46.5t27 10.5h396q22 0 28 -10.5t6 -46.5t-6 -46.5t-28 -10.5h-396q-21 0 -27 10.5t-6 46.5z" />
    <glyph glyph-name="grave" unicode="`" horiz-adv-x="225" 
d="M151 539q-35 0 -48 5.5t-23 24.5l-39 70q-18 34 -18 49q0 13 13.5 19t53.5 6q41 0 54 -6.5t22 -31.5l23 -63q15 -41 15 -50q0 -23 -53 -23z" />
    <glyph glyph-name="a" unicode="a" horiz-adv-x="486" 
d="M159 -10q-67 0 -98 35t-31 113q0 81 42.5 116t150.5 35h78v37q0 44 -15.5 55t-61.5 11q-42 0 -90 -7.5t-53 -7.5q-23 0 -23 53q0 27 5.5 38t21.5 16q59 19 157 19q104 0 146.5 -27.5t42.5 -114.5v-145q0 -54 4.5 -95t9.5 -62.5t5 -28.5q0 -16 -12 -23t-49 -7
q-33 0 -44 5.5t-17 27.5l-14 51q-38 -94 -155 -94zM207 94q40 0 67 23t27 73v23l-77 -3q-41 -2 -55.5 -13.5t-14.5 -44.5q0 -35 12 -46.5t41 -11.5z" />
    <glyph glyph-name="b" unicode="b" horiz-adv-x="513" 
d="M245 -10q-114 0 -156.5 30t-42.5 96v504q0 23 13.5 30t52.5 7t52.5 -7t13.5 -30v-186q40 69 139 69q63 0 94.5 -19t46.5 -72t15 -159q0 -110 -22.5 -166.5t-69 -76.5t-136.5 -20zM254 100q53 0 69 27.5t16 117.5q0 96 -13.5 122.5t-58.5 26.5q-54 0 -73 -31.5t-19 -123.5
v-99q0 -23 15 -31.5t64 -8.5z" />
    <glyph glyph-name="c" unicode="c" horiz-adv-x="431" 
d="M250 -10q-55 0 -89.5 8.5t-64.5 34t-43 77t-13 133.5q0 85 13 138t41.5 79t62 34.5t87.5 8.5q70 0 130 -18q15 -5 21 -16t6 -39q0 -53 -22 -53q-3 0 -46.5 7t-69.5 7q-39 0 -56 -7.5t-27 -36.5t-10 -92q0 -71 7 -101t25.5 -40.5t63.5 -10.5q38 0 76 7l38 8q22 0 22 -53
q0 -28 -6 -39t-21 -16q-57 -20 -125 -20z" />
    <glyph glyph-name="d" unicode="d" horiz-adv-x="522" 
d="M203 -10q-97 0 -130 49.5t-33 196.5q0 112 20 170.5t56.5 77.5t103.5 19q91 0 118 -54v171q0 23 13.5 30t52.5 7t52.5 -7t13.5 -30v-404q0 -54 5 -95t9.5 -62.5t4.5 -28.5q0 -16 -12 -23t-48 -7q-34 0 -44.5 5.5t-16.5 27.5l-12 43q-35 -86 -153 -86zM250 100
q50 0 70.5 25t20.5 100v45q0 75 -17.5 99.5t-69.5 24.5q-50 0 -65.5 -27t-15.5 -127q0 -91 14.5 -115.5t62.5 -24.5z" />
    <glyph glyph-name="e" unicode="e" horiz-adv-x="479" 
d="M260 -10q-59 0 -95.5 8.5t-67 34t-44 77t-13.5 133.5q0 85 12.5 138t42 79t64 34.5t92.5 8.5q62 0 100 -13t58.5 -44t27 -71t6.5 -105q0 -31 -10 -45t-39 -14h-224q3 -70 21.5 -89t77.5 -19q34 0 67 3.5t53 7.5t24 4q22 0 22 -53q0 -28 -6 -39t-21 -16q-58 -20 -148 -20z
M249 394q-45 0 -60.5 -18t-18.5 -85h149q0 62 -12 82.5t-58 20.5z" />
    <glyph glyph-name="f" unicode="f" horiz-adv-x="326" 
d="M20 439q0 31 5 41t21 10h37v62q0 69 31 95.5t94 26.5q47 0 87 -10q17 -4 22 -12.5t5 -36.5q0 -52 -22 -52q-3 0 -23 2t-36 2q-20 0 -26.5 -8.5t-6.5 -35.5v-33h76q16 0 21.5 -10t5.5 -41t-5 -41t-22 -10h-70v-351q0 -24 -13 -30.5t-52 -6.5q-40 0 -53 6.5t-13 30.5v351
h-37q-16 0 -21 10t-5 41z" />
    <glyph glyph-name="g" unicode="g" horiz-adv-x="520" 
d="M40 250q0 105 20.5 160.5t58 74t108.5 18.5q52 0 83.5 -16.5t46.5 -55.5l8 29q6 22 16.5 27.5t44.5 5.5q36 0 48.5 -7t12.5 -23q0 -7 -5 -28.5t-10 -62.5t-5 -95v-228q0 -77 -17 -127.5t-52 -75.5t-74.5 -34t-97.5 -9q-79 0 -142 15q-14 4 -20.5 16t-6.5 41q0 52 22 52
l47 -5q47 -6 88 -6q77 0 99 26.5t22 108.5q-35 -61 -140 -61q-63 0 -95 21.5t-46 76t-14 162.5zM173 240q0 -91 14.5 -115.5t62.5 -24.5q50 0 70.5 25t20.5 100v45q0 75 -17.5 99.5t-69.5 24.5q-50 0 -65.5 -27t-15.5 -127z" />
    <glyph glyph-name="h" unicode="h" horiz-adv-x="507" 
d="M112 0q-40 0 -53 6.5t-13 30.5v583q0 23 13.5 30t52.5 7t52.5 -7t13.5 -30v-180q38 63 142 63q78 0 107.5 -32t29.5 -108v-326q0 -24 -13 -30.5t-52 -6.5q-40 0 -53 6.5t-13 30.5v294q0 34 -11.5 46.5t-43.5 12.5q-52 0 -72.5 -35.5t-20.5 -123.5v-194q0 -24 -13 -30.5
t-53 -6.5z" />
    <glyph glyph-name="i" unicode="i" horiz-adv-x="229" 
d="M112 0q-40 0 -53 6.5t-13 30.5v419q0 24 13 30.5t53 6.5t53 -6.5t13 -30.5v-419q0 -24 -13 -30.5t-53 -6.5zM112 546q-47 0 -59 9t-12 39v14q0 31 12 40t59 9t59 -9t12 -40v-14q0 -30 -12 -39t-59 -9z" />
    <glyph glyph-name="j" unicode="j" horiz-adv-x="229" 
d="M112 493q40 0 53 -6.5t13 -30.5v-525q0 -69 -30.5 -98.5t-89.5 -29.5q-47 0 -86 12q-17 4 -23.5 15t-6.5 40q0 32 5 41t17 9q5 0 22 -2t27 -2q20 0 26.5 8t6.5 35v497q0 24 13 30.5t53 6.5zM112 546q-47 0 -59 9t-12 39v14q0 31 12 40t59 9t59 -9t12 -40v-14
q0 -30 -12 -39t-59 -9z" />
    <glyph glyph-name="k" unicode="k" horiz-adv-x="470" 
d="M112 0q-40 0 -53 6.5t-13 30.5v583q0 23 13.5 30t52.5 7t52.5 -7t13.5 -30v-322h12l104 163q13 20 27.5 26t56.5 6q65 0 65 -21q0 -14 -16 -36l-121 -178l135 -200q14 -20 14 -32q0 -26 -68 -26q-38 0 -53 6t-28 26l-117 185h-11v-180q0 -24 -13 -30.5t-53 -6.5z" />
    <glyph glyph-name="l" unicode="l" horiz-adv-x="227" 
d="M112 0q-40 0 -53 6.5t-13 30.5v583q0 23 13.5 30t52.5 7t52.5 -7t13.5 -30v-583q0 -24 -13 -30.5t-53 -6.5z" />
    <glyph glyph-name="m" unicode="m" horiz-adv-x="776" 
d="M122 0q-40 0 -53 6.5t-13 30.5v240q0 54 -5 95t-10 62.5t-5 28.5q0 16 12 23t49 7q34 0 45 -5.5t16 -27.5l11 -46q35 89 151 89q57 0 87.5 -17t41.5 -55q37 72 140 72q78 0 108 -32t30 -108v-326q0 -24 -13.5 -30.5t-52.5 -6.5t-52.5 6.5t-13.5 30.5v294q0 34 -11.5 46.5
t-43.5 12.5q-49 0 -66 -34.5t-17 -124.5v-194q0 -24 -13.5 -30.5t-52.5 -6.5t-52.5 6.5t-13.5 30.5v294q0 34 -11 46.5t-43 12.5q-50 0 -67 -34.5t-17 -124.5v-194q0 -24 -13 -30.5t-52 -6.5z" />
    <glyph glyph-name="n" unicode="n" horiz-adv-x="517" 
d="M122 0q-40 0 -53 6.5t-13 30.5v240q0 54 -5 95t-10 62.5t-5 28.5q0 16 12 23t49 7q34 0 44.5 -5.5t16.5 -27.5l13 -52q40 95 159 95q78 0 107.5 -32t29.5 -108v-326q0 -24 -13.5 -30.5t-52.5 -6.5t-52.5 6.5t-13.5 30.5v294q0 34 -11 46.5t-43 12.5q-52 0 -73 -35.5
t-21 -123.5v-194q0 -24 -13 -30.5t-52 -6.5z" />
    <glyph glyph-name="o" unicode="o" horiz-adv-x="506" 
d="M245 -10q-81 0 -123 19.5t-62 74t-20 159.5q0 108 23 164.5t68 76t130 19.5q61 0 97 -9.5t62 -37t36 -76t10 -127.5q0 -108 -23 -165t-68.5 -77.5t-129.5 -20.5zM249 100q53 0 68 27t15 118q0 97 -14 123t-62 26q-53 0 -68 -26t-15 -117q0 -97 14 -124t62 -27z" />
    <glyph glyph-name="p" unicode="p" horiz-adv-x="526" 
d="M122 -187q-40 0 -53 7t-13 30v427q0 54 -5 95t-10 62.5t-5 28.5q0 16 12 23t49 7q34 0 44.5 -5.5t16.5 -27.5l10 -39q40 82 154 82q97 0 130.5 -49.5t33.5 -196.5q0 -111 -20 -170t-56.5 -78t-103.5 -19q-92 0 -119 51v-191q0 -23 -13 -30t-52 -7zM271 100q35 0 50.5 10
t23 42t7.5 101q0 92 -14 116.5t-62 24.5q-49 0 -70 -26t-21 -104v-40q0 -75 17.5 -99.5t68.5 -24.5z" />
    <glyph glyph-name="q" unicode="q" horiz-adv-x="520" 
d="M401 -187q-39 0 -52.5 7t-13.5 30v201q-35 -61 -140 -61q-63 0 -95 21.5t-46 76t-14 162.5q0 105 20.5 160.5t58 74t108.5 18.5q52 0 83.5 -16.5t46.5 -55.5l8 29q6 22 16.5 27.5t44.5 5.5q36 0 48.5 -7t12.5 -23q0 -7 -5 -28.5t-10 -62.5t-5 -95v-427q0 -23 -13.5 -30
t-52.5 -7zM242 100q52 0 72.5 23t20.5 99v47q0 74 -18 99.5t-67 25.5q-36 0 -52 -9.5t-23.5 -39.5t-7.5 -95q0 -67 7 -98.5t21.5 -41.5t46.5 -10z" />
    <glyph glyph-name="r" unicode="r" horiz-adv-x="366" 
d="M122 0q-40 0 -53 6.5t-13 30.5v240q0 54 -5 95t-10 62.5t-5 28.5q0 16 12 23t49 7q34 0 44.5 -5.5t16.5 -27.5l10 -40q39 80 123 80q31 0 45 -6q13 -4 18 -15.5t5 -44.5q0 -54 -24 -54q-2 0 -19.5 2t-32.5 2q-96 0 -96 -166v-181q0 -24 -13 -30.5t-52 -6.5z" />
    <glyph glyph-name="s" unicode="s" horiz-adv-x="441" 
d="M203 -10q-83 0 -140 18q-15 5 -21 16.5t-6 39.5q0 53 22 53q1 0 47 -7t83 -7q47 0 65.5 11t18.5 35q0 25 -29 37l-112 48q-77 33 -77 127q0 142 172 142q79 0 144 -17q15 -4 21 -15t6 -43q0 -51 -24 -51q-2 0 -44.5 8t-75.5 8q-66 0 -66 -36q0 -14 6 -22t23 -15l108 -43
q45 -17 63 -46t18 -77q0 -164 -202 -164z" />
    <glyph glyph-name="t" unicode="t" horiz-adv-x="336" 
d="M198 -10q-61 0 -88 29t-27 99v270h-40q-17 0 -22 10t-5 41t5.5 41t21.5 10h40v70q0 23 13 30t53 7q39 0 52 -7t13 -30v-70h73q16 0 21.5 -10t5.5 -41t-5 -41t-22 -10h-73v-244q0 -24 6 -31t26 -7q12 0 27.5 2t19.5 2q12 0 17.5 -9t5.5 -39q0 -27 -6 -38t-21 -18
q-36 -16 -91 -16z" />
    <glyph glyph-name="u" unicode="u" horiz-adv-x="509" 
d="M182 -10q-75 0 -105.5 30t-30.5 104v332q0 24 13 30.5t53 6.5t53 -6.5t13 -30.5v-299q0 -33 11 -43.5t44 -10.5q51 0 71 35.5t20 123.5v194q0 24 13 30.5t53 6.5t53 -6.5t13 -30.5v-240q0 -54 5 -95t10 -62.5t5 -28.5q0 -16 -12.5 -23t-48.5 -7q-34 0 -44.5 5.5
t-16.5 27.5l-12 46q-41 -89 -160 -89z" />
    <glyph glyph-name="v" unicode="v" horiz-adv-x="480" 
d="M238 0q-60 0 -80.5 9.5t-28.5 37.5l-104 364q-9 31 -9 46q0 22 11.5 29t54.5 7q44 0 57 -7t19 -32l76 -337h11l77 337q6 25 19 32t57 7q43 0 54 -7t11 -29q0 -18 -8 -46l-106 -364q-8 -28 -29 -37.5t-82 -9.5z" />
    <glyph glyph-name="w" unicode="w" horiz-adv-x="714" 
d="M692 411l-67 -364q-5 -28 -25.5 -37.5t-76.5 -9.5q-61 0 -84 9.5t-29 37.5l-49 241h-8l-48 -241q-6 -28 -29.5 -37.5t-84.5 -9.5q-56 0 -76.5 9.5t-25.5 37.5l-67 364q-6 29 -6 46q0 22 11.5 29t54.5 7t55.5 -6.5t16.5 -30.5l50 -339h12l62 328q4 23 20 30.5t59 7.5
t59 -7.5t20 -30.5l62 -328h12l50 339q4 24 16.5 30.5t55.5 6.5t54.5 -7t11.5 -29q0 -17 -6 -46z" />
    <glyph glyph-name="x" unicode="x" horiz-adv-x="459" 
d="M79 0q-63 0 -63 26q0 10 13 30l122 197l-107 172q-17 27 -17 39q0 16 15 22.5t54 6.5q44 0 57.5 -5t21.5 -26l54 -103h4l52 103q9 21 21.5 26t56.5 5q39 0 54 -6.5t15 -22.5q0 -12 -16 -37l-109 -166l122 -202q14 -22 14 -32q0 -27 -63 -27q-45 0 -62 7.5t-28 35.5
l-60 119h-4l-58 -119q-10 -27 -27 -35t-62 -8z" />
    <glyph glyph-name="y" unicode="y" horiz-adv-x="479" 
d="M16 461q0 16 13 24t56 8q41 0 54 -6t17 -27l74 -351h13l80 351q4 21 17 27t53 6q43 0 56.5 -7t13.5 -24q0 -22 -18 -85l-116 -407q-29 -100 -62.5 -133.5t-116.5 -33.5q-63 0 -105 15q-15 6 -21 16.5t-6 37.5q0 53 23 53q1 0 32 -4.5t63 -4.5q40 0 54.5 10t20.5 40l7 34
q-52 0 -70 11.5t-27 43.5l-85 311q-20 76 -20 95z" />
    <glyph glyph-name="z" unicode="z" horiz-adv-x="402" 
d="M381 56q0 -56 -27 -56h-309q-16 0 -21.5 12t-5.5 38q0 32 6.5 51.5t27.5 46.5l182 234h-169q-27 0 -27 56q0 55 27 55h289q27 0 27 -50q0 -54 -26 -86l-191 -246h190q27 0 27 -55z" />
    <glyph glyph-name="braceleft" unicode="{" horiz-adv-x="328" 
d="M94 212q0 44 -34 44q-22 0 -28 9.5t-6 44.5t6 44.5t28 9.5q34 0 34 44q0 23 -0.5 69t-0.5 74q0 62 23.5 94t81.5 32q50 0 95 -10q14 -3 18.5 -14.5t4.5 -40.5q0 -47 -23 -47q-7 0 -28.5 0.5t-29.5 0.5q-11 0 -14.5 -8t-3.5 -26q0 -19 0.5 -63t0.5 -63q0 -78 -51 -94v-4
q51 -16 51 -95q0 -18 -0.5 -62t-0.5 -63q0 -18 3.5 -26t14.5 -8q8 0 29.5 0.5t28.5 0.5q23 0 23 -47q0 -29 -4.5 -40.5t-18.5 -14.5q-45 -10 -95 -10q-58 0 -81.5 32t-23.5 94q0 28 0.5 74t0.5 69z" />
    <glyph glyph-name="bar" unicode="|" horiz-adv-x="183" 
d="M91 -187q-34 0 -42.5 7.5t-8.5 36.5v776q0 29 8.5 36t42.5 7q35 0 43.5 -7t8.5 -36v-776q0 -29 -8.5 -36.5t-43.5 -7.5z" />
    <glyph glyph-name="braceright" unicode="}" horiz-adv-x="328" 
d="M129 -57q-49 0 -94 10q-14 3 -18.5 14.5t-4.5 40.5q0 47 23 47q7 0 28.5 -0.5t29.5 -0.5q11 0 14.5 8t3.5 26q0 19 -1 63t-1 62q0 78 52 95v4q-52 17 -52 94q0 19 1 63t1 63q0 18 -3.5 26t-14.5 8q-8 0 -29.5 -0.5t-28.5 -0.5q-23 0 -23 47q0 29 4.5 40.5t18.5 14.5
q45 10 94 10q59 0 82.5 -32t23.5 -94q0 -28 -0.5 -74t-0.5 -69q0 -44 34 -44q21 0 27 -9.5t6 -44.5q0 -36 -6 -45t-27 -9q-34 0 -34 -44q0 -23 0.5 -69t0.5 -74q0 -62 -23.5 -94t-82.5 -32z" />
    <glyph glyph-name="asciitilde" unicode="~" 
d="M71 266q0 42 27 60q32 20 70 20q26 0 69.5 -11t65.5 -11t45 9t26 9q21 0 21 -45q0 -42 -28 -60q-30 -20 -69 -20q-26 0 -69.5 11t-65.5 11t-45 -9t-26 -9q-21 0 -21 45z" />
    <glyph glyph-name="nbspace" unicode="&#xa0;" horiz-adv-x="212" 
 />
    <glyph glyph-name="exclamdown" unicode="&#xa1;" horiz-adv-x="219" 
d="M110 457q38 0 48 -6.5t10 -30.5q0 -48 4.5 -183.5t4.5 -199.5q0 -23 -13.5 -30t-53.5 -7q-39 0 -52.5 7t-13.5 30q0 64 4 199.5t4 183.5q0 24 10 30.5t48 6.5zM109 624q43 0 55.5 -9t12.5 -39v-25q0 -30 -12.5 -39t-55.5 -9t-55 9t-12 39v25q0 30 12 39t55 9z" />
    <glyph glyph-name="cent" unicode="&#xa2;" 
d="M253 624q34 0 45 -7t11 -30v-61q41 -5 77 -15q16 -6 21.5 -15.5t5.5 -36.5q0 -53 -21 -53q-2 0 -47.5 7t-75.5 7q-50 0 -68 -17.5t-18 -78.5q0 -72 16 -92.5t75 -20.5q40 0 80 7l39 8q21 0 21 -52q0 -28 -6 -37.5t-21 -14.5q-34 -12 -78 -17v-68q0 -24 -11 -30.5
t-45 -6.5t-44.5 6.5t-10.5 30.5v67q-75 9 -110.5 54t-35.5 154q0 115 35.5 161t110.5 54v60q0 23 11 30t44 7z" />
    <glyph glyph-name="sterling" unicode="&#xa3;" 
d="M314 309q0 -26 -6 -33t-25 -7h-66v-31q0 -72 -27 -122h213q19 0 26.5 -12t7.5 -46t-7.5 -46t-26.5 -12h-319q-23 0 -31 6.5t-8 27.5q0 26 22 83.5t22 111.5v40h-41q-19 0 -25 7t-6 33q0 25 6 32.5t25 7.5h41v104q0 56 12 93t36 54t49 23t62 6q79 0 147 -17
q13 -3 18.5 -14t5.5 -45q0 -49 -21 -49q-6 0 -43 4t-60 4q-47 0 -62.5 -13t-15.5 -58v-92h66q19 0 25 -7t6 -33z" />
    <glyph glyph-name="currency" unicode="&#xa4;" 
d="M126 58q-43 0 -43 16q0 12 13 44l14 33q-33 32 -33 118q0 84 33 117l-14 34q-13 30 -13 43q0 17 43 17q29 0 39 -5t16 -21l15 -38q24 2 39 2t37 -2l16 38q6 16 16.5 21t39.5 5q43 0 43 -17q0 -9 -13 -43l-15 -35q33 -32 33 -116q0 -85 -33 -118l15 -33q13 -36 13 -44
q0 -16 -43 -16q-29 0 -39.5 4.5t-16.5 20.5l-15 37q-12 -1 -38 -1q-27 0 -39 1l-15 -37q-6 -16 -16 -20.5t-39 -4.5zM235 204q34 0 43 11.5t9 54.5q0 41 -9 52.5t-43 11.5t-43 -11.5t-9 -52.5q0 -43 8.5 -54.5t43.5 -11.5z" />
    <glyph glyph-name="yen" unicode="&#xa5;" 
d="M233 0q-39 0 -52 7t-13 30v57h-73q-19 0 -25 7t-6 33t6 33.5t25 7.5h73v46h-75q-19 0 -25 8t-6 34t6 33.5t25 7.5h53l-115 239q-16 34 -16 50q0 18 12 24.5t51 6.5q42 0 55.5 -7t21.5 -31l76 -211h5l76 211q8 25 21 31.5t56 6.5q39 0 51 -6.5t12 -24.5q0 -16 -16 -50
l-115 -239h53q19 0 25 -7.5t6 -33.5t-6 -34t-25 -8h-75v-46h74q19 0 24.5 -7.5t5.5 -33.5t-5.5 -33t-24.5 -7h-74v-57q0 -23 -13 -30t-53 -7z" />
    <glyph glyph-name="brokenbar" unicode="&#xa6;" horiz-adv-x="183" 
d="M91 280q-34 0 -42.5 7t-8.5 36v310q0 29 8.5 36t42.5 7q35 0 43.5 -7t8.5 -36v-310q0 -29 -8.5 -36t-43.5 -7zM91 -187q-34 0 -42.5 7.5t-8.5 36.5v309q0 29 8.5 36t42.5 7q35 0 43.5 -7t8.5 -36v-309q0 -29 -8.5 -36.5t-43.5 -7.5z" />
    <glyph glyph-name="section" unicode="&#xa7;" horiz-adv-x="450" 
d="M37 228q0 77 49 117q-45 35 -45 122q0 49 14.5 82.5t42 50t57 23t67.5 6.5q90 0 158 -20q13 -3 18.5 -14.5t5.5 -45.5q0 -52 -22 -52q-1 0 -43.5 7.5t-84.5 7.5q-45 0 -65.5 -9.5t-20.5 -37.5q0 -33 41 -48l101 -39q58 -23 83.5 -57t25.5 -90q0 -74 -45 -111
q46 -33 46 -126q0 -100 -57.5 -140.5t-161.5 -40.5q-77 0 -142 18q-17 5 -23 16.5t-6 45.5q0 32 4.5 42t16.5 10q4 0 45 -7.5t85 -7.5q58 0 85 13t27 44q0 26 -8.5 38.5t-38.5 24.5l-105 42q-54 22 -79 52.5t-25 83.5zM165 256q0 -50 40 -65l76 -29q11 16 11 43q0 28 -9 45
t-37 27l-70 27q-11 -16 -11 -48z" />
    <glyph glyph-name="dieresis" unicode="&#xa8;" horiz-adv-x="358" 
d="M91 546q-43 0 -55 9t-12 39v14q0 31 12 40t55 9t55 -9t12 -40v-14q0 -30 -12 -39t-55 -9zM268 546q-43 0 -55.5 9t-12.5 39v14q0 31 12 40t56 9q43 0 55 -9t12 -40v-14q0 -30 -12 -39t-55 -9z" />
    <glyph glyph-name="copyright" unicode="&#xa9;" horiz-adv-x="891" 
d="M445 -44q83 0 139 13.5t91.5 38.5t54.5 71.5t26 100.5t7 138q0 68 -4.5 115t-17 89.5t-34.5 69t-57.5 46t-85.5 28t-119 8.5q-102 0 -165 -19t-96.5 -65.5t-44.5 -107.5t-11 -164q0 -84 7 -138t26 -100.5t54.5 -71.5t91.5 -38.5t138 -13.5zM445 -135q-108 0 -184.5 20.5
t-122.5 55.5t-72 94.5t-34.5 123t-8.5 156.5t8.5 156.5t34.5 123t72 94.5t122.5 55.5t184.5 20.5q109 0 185.5 -20.5t122.5 -55.5t72 -94.5t34.5 -123t8.5 -156.5t-8.5 -156.5t-34.5 -123t-72 -94.5t-122.5 -55.5t-185.5 -20.5zM461 60q-55 0 -90 8.5t-64.5 34t-43 77
t-13.5 133.5q0 68 9.5 115.5t25 76t43 43.5t56 20t71.5 5q70 0 130 -18q15 -5 21 -16t6 -39q0 -53 -22 -53q-3 0 -46.5 7t-69.5 7q-39 0 -56.5 -7.5t-27 -36.5t-9.5 -92q0 -71 7 -101t25.5 -40.5t63.5 -10.5q37 0 75 7l39 8q21 0 21 -53q0 -28 -6 -39t-21 -16
q-57 -20 -124 -20z" />
    <glyph glyph-name="ordfeminine" unicode="&#xaa;" horiz-adv-x="367" 
d="M125 246q-53 0 -76.5 26.5t-23.5 84.5q0 61 31 88t112 27h56v11q0 35 -9.5 45t-40.5 10q-32 0 -68 -6t-40 -6q-19 0 -19 44q0 37 21 44q50 15 118 15q76 0 107.5 -22t31.5 -89v-93q0 -42 3.5 -74.5t7 -49.5t3.5 -22q0 -13 -9.5 -18.5t-37.5 -5.5q-27 0 -36 4.5t-13 21.5
l-8 35q-26 -70 -110 -70zM161 328q63 0 63 75v6l-60 -2q-24 -1 -32 -9t-8 -31q0 -24 8 -31.5t29 -7.5z" />
    <glyph glyph-name="guillemotleft" unicode="&#xab;" horiz-adv-x="616" 
d="M451 252v-8l108 -94q19 -17 24.5 -30.5t5.5 -50.5q0 -43 -23 -43q-9 0 -23 9l-169 110q-27 17 -37 35t-10 68t10 68.5t37 35.5l169 110q16 8 23 8q23 0 23 -43q0 -38 -5 -51t-25 -30zM153 252v-8l112 -84q20 -15 25 -28t5 -53q0 -43 -23 -43q-9 0 -23 9l-175 106
q-28 17 -38 34.5t-10 62.5q0 46 10 63t38 34l175 107q16 8 23 8q23 0 23 -43q0 -40 -5 -53.5t-25 -27.5z" />
    <glyph glyph-name="logicalnot" unicode="&#xac;" 
d="M353 141q-38 0 -48.5 6.5t-10.5 30.5v65h-205q-20 0 -27 10t-7 44t7 44.5t27 10.5h284q23 0 31 -6.5t8 -27.5v-140q0 -24 -10.5 -30.5t-48.5 -6.5z" />
    <glyph glyph-name="registered" unicode="&#xae;" horiz-adv-x="891" 
d="M445 -135q-108 0 -184.5 20.5t-122.5 55.5t-72 94.5t-34.5 123t-8.5 156.5t8.5 156.5t34.5 123t72 94.5t122.5 55.5t184.5 20.5q109 0 185.5 -20.5t122.5 -55.5t72 -94.5t34.5 -123t8.5 -156.5t-8.5 -156.5t-34.5 -123t-72 -94.5t-122.5 -55.5t-185.5 -20.5zM445 -44
q83 0 139 13.5t91.5 38.5t54.5 71.5t26 100.5t7 138q0 68 -4.5 115t-17 89.5t-34.5 69t-57.5 46t-85.5 28t-119 8.5q-102 0 -165 -19t-96.5 -65.5t-44.5 -107.5t-11 -164q0 -84 7 -138t26 -100.5t54.5 -71.5t91.5 -38.5t138 -13.5zM323 70q-39 0 -52.5 7t-13.5 30v417
q0 23 8 31.5t29 10.5q77 9 168 9q105 0 146 -34t41 -135q0 -106 -72 -136l72 -141q13 -26 13 -36q0 -13 -12 -18t-46 -5q-47 0 -60 5.5t-22 30.5l-54 145h-79v-144q0 -23 -13 -30t-53 -7zM389 464v-124h54q48 0 61.5 13t13.5 57q0 36 -12 46.5t-55 10.5q-37 0 -62 -3z" />
    <glyph glyph-name="macron" unicode="&#xaf;" horiz-adv-x="282" 
d="M23 607q0 34 6 44t28 10h169q21 0 27 -10t6 -44t-6 -44t-27 -10h-169q-22 0 -28 10t-6 44z" />
    <glyph glyph-name="degree" unicode="&#xb0;" horiz-adv-x="397" 
d="M198 322q-91 0 -121 30.5t-30 122.5q0 93 30.5 123.5t121.5 30.5q89 0 120.5 -30t31.5 -122q0 -93 -29.5 -124t-123.5 -31zM151 474q0 -38 9 -48t38 -10q31 0 39.5 10.5t8.5 49.5q0 38 -9 48t-38 10q-31 0 -39.5 -10.5t-8.5 -49.5z" />
    <glyph glyph-name="plusminus" unicode="&#xb1;" 
d="M75 321q0 30 6 38t28 8h70v78q0 21 9.5 27t44.5 6t44.5 -6t9.5 -27v-78h70q21 0 27 -8t6 -38q0 -31 -6 -39t-27 -8h-70v-77q0 -22 -9.5 -28t-44.5 -6t-44.5 6t-9.5 28v77h-70q-22 0 -28 8t-6 39zM89 73q0 33 6 41.5t27 8.5h222q22 0 28 -8.5t6 -41.5t-6 -41.5t-28 -8.5
h-222q-21 0 -27 8.5t-6 41.5z" />
    <glyph glyph-name="twosuperior" unicode="&#xb2;" horiz-adv-x="344" 
d="M163 384h110q18 0 24 -7.5t6 -36.5q0 -30 -6 -37.5t-24 -7.5h-207q-19 0 -26 6t-7 25v19q0 27 36 66l85 89q28 28 28 55q0 20 -9 27t-34 7q-18 0 -42.5 -4.5t-30.5 -4.5q-10 0 -14 7t-4 31q0 26 5 34.5t20 12.5q42 11 96 11q57 0 89 -18.5t32 -75.5q0 -37 -11 -59.5
t-42 -57.5z" />
    <glyph glyph-name="threesuperior" unicode="&#xb3;" horiz-adv-x="348" 
d="M166 288q-60 0 -101 12q-15 4 -20 12.5t-5 33.5q0 24 4 31t13 7q7 0 35.5 -4.5t46.5 -4.5q28 0 41 8t13 30q0 21 -15.5 30t-59.5 9q-21 0 -21 33q0 34 21 34q42 0 56.5 8t14.5 29q0 19 -11 26t-36 7q-17 0 -44.5 -4.5t-33.5 -4.5q-10 0 -14 7t-4 31q0 26 5 34.5t20 12.5
q42 11 100 11q57 0 89 -18.5t32 -76.5q0 -85 -70 -97q80 -4 80 -92q0 -33 -11.5 -55t-33 -32t-42.5 -13.5t-49 -3.5z" />
    <glyph glyph-name="acute" unicode="&#xb4;" horiz-adv-x="225" 
d="M74 539q-53 0 -53 23q0 11 15 50l23 63q9 25 22 31.5t54 6.5q40 0 53.5 -6t13.5 -19q0 -16 -18 -49l-39 -70q-11 -20 -22.5 -25t-48.5 -5z" />
    <glyph glyph-name="mu" unicode="&#xb5;" horiz-adv-x="495" 
d="M102 -187q-39 0 -52.5 7t-13.5 30v606q0 24 13 30.5t53 6.5t53 -6.5t13 -30.5v-299q0 -33 10.5 -43.5t43.5 -10.5q52 0 72 35t20 124v194q0 24 13 30.5t53 6.5t53 -6.5t13 -30.5v-240q0 -54 5 -95t9.5 -62.5t4.5 -28.5q0 -16 -12 -23t-48 -7q-34 0 -44.5 5.5t-16.5 27.5
l-12 46q-39 -89 -156 -89h-8v-140q0 -23 -13.5 -30t-52.5 -7z" />
    <glyph glyph-name="paragraph" unicode="&#xb6;" horiz-adv-x="619" 
d="M270 -197q-73 0 -135 15q-15 4 -21.5 16t-6.5 41q0 52 23 52q1 0 46 -5.5t82 -5.5q76 0 95.5 26t19.5 109v457h-52v-305q0 -20 -7 -29t-25 -14q-41 -9 -86 -9q-87 0 -118.5 48t-31.5 184t33.5 188.5t126.5 52.5h335q19 0 26.5 -12t7.5 -46q0 -35 -7.5 -46.5t-26.5 -11.5
h-43v-459q0 -78 -16 -128t-50 -75t-72.5 -34t-96.5 -9z" />
    <glyph glyph-name="middot" unicode="&#xb7;" horiz-adv-x="208" 
d="M103 212q-43 0 -55 9t-12 39v39q0 30 12 39t55 9t55.5 -9t12.5 -39v-39q0 -30 -12.5 -39t-55.5 -9z" />
    <glyph glyph-name="cedilla" unicode="&#xb8;" horiz-adv-x="255" 
d="M117 -231q-35 0 -65 6q-17 4 -23 12.5t-6 35.5t6 36.5t19 9.5q5 0 22.5 -2t29.5 -2q21 0 21 11q0 2 -0.5 4t-2 4t-2.5 3t-4 3t-4.5 2.5t-6 3t-6.5 3.5q-20 9 -27 21.5t-7 40.5v60h92v-43q0 -12 14 -20q39 -20 52 -38t13 -56q0 -95 -115 -95z" />
    <glyph glyph-name="onesuperior" unicode="&#xb9;" horiz-adv-x="342" 
d="M55 340q0 29 6 36.5t24 7.5h42v184l-34 -9q-2 0 -10.5 -2t-10.5 -2q-20 0 -20 43q0 25 5.5 33t21.5 14l60 21q28 8 56 8q22 0 28.5 -6t6.5 -27v-257h43q18 0 24 -7.5t6 -36.5t-6 -37t-24 -8h-188q-18 0 -24 8t-6 37z" />
    <glyph glyph-name="ordmasculine" unicode="&#xba;" horiz-adv-x="381" 
d="M184 245q-43 0 -69 6.5t-46.5 26.5t-29 57.5t-8.5 98.5q0 64 9 102.5t31 59t50 27t76 6.5q58 0 88.5 -12.5t48 -53.5t17.5 -120q0 -64 -9 -103.5t-31 -60t-50.5 -27.5t-76.5 -7zM187 331q36 0 46.5 18.5t10.5 85.5q0 71 -10 89.5t-41 18.5q-36 0 -46.5 -18t-10.5 -84
q0 -71 10 -90.5t41 -19.5z" />
    <glyph glyph-name="guillemotright" unicode="&#xbb;" horiz-adv-x="616" 
d="M289 248q0 -50 -10 -68t-37 -35l-169 -110q-14 -9 -24 -9q-23 0 -23 43q0 37 5.5 50.5t25.5 30.5l108 94v8l-108 94q-20 17 -25.5 30.5t-5.5 50.5q0 43 23 43q13 0 24 -8l169 -110q19 -13 27 -21t14 -28t6 -55zM589 248q0 -45 -9.5 -62.5t-37.5 -34.5l-175 -106
q-14 -9 -24 -9q-23 0 -23 43q0 40 5.5 52.5t25.5 28.5l111 84v8l-111 84q-20 16 -25.5 29t-5.5 52q0 43 23 43q11 0 24 -8l175 -107q28 -17 37.5 -34t9.5 -63z" />
    <glyph glyph-name="onequarter" unicode="&#xbc;" horiz-adv-x="798" 
d="M670 0q-28 0 -40.5 5t-12.5 20v49h-139q-16 0 -21.5 8.5t-5.5 32.5q0 40 16 68l98 170q10 17 27 23t58 6q43 0 57 -6.5t14 -30.5v-192h25q13 0 18 -9.5t5 -32.5t-4.5 -30t-18.5 -7h-25v-49q0 -15 -12 -20t-39 -5zM290 0q-26 0 -35 4t-9 14q0 12 8 36l200 550q6 17 18 24
t42 7q26 0 35 -4t9 -14q0 -13 -9 -36l-200 -550q-6 -18 -17.5 -24.5t-41.5 -6.5zM38 557q0 25 5.5 33t21.5 14l60 21q22 8 56 8q22 0 28.5 -6t6.5 -27v-256h43q18 0 24 -7.5t6 -37.5q0 -29 -6 -37t-24 -8h-188q-18 0 -24 8t-6 37q0 30 6 37.5t24 7.5h42v184l-34 -9
q-12 -4 -21 -4q-20 0 -20 42zM623 300l-80 -147h80v147z" />
    <glyph glyph-name="onehalf" unicode="&#xbd;" horiz-adv-x="793" 
d="M41 299q0 30 6 37.5t24 7.5h42v184l-34 -9q-12 -4 -21 -4q-20 0 -20 42q0 25 5.5 33t21.5 14l60 21q22 8 56 8q22 0 28.5 -6t6.5 -27v-256h43q18 0 24 -7.5t6 -37.5q0 -29 -6 -37t-24 -8h-188q-18 0 -24 8t-6 37zM767 45q0 -29 -6 -37t-24 -8h-207q-19 0 -26 6t-7 25v19
q0 28 36 67l85 89q28 28 28 54q0 20 -9 27t-34 7q-19 0 -43 -4t-31 -4q-10 0 -14 6.5t-4 30.5q0 26 5.5 34.5t20.5 12.5q42 11 95 11q28 0 46.5 -3t37.5 -12t28.5 -28.5t9.5 -50.5q0 -37 -11 -59.5t-43 -57.5l-73 -80h110q18 0 24 -8t6 -37zM290 0q-26 0 -35 4t-9 14
q0 12 8 36l200 550q6 17 18 24t42 7q26 0 35 -4t9 -14q0 -13 -9 -36l-200 -550q-6 -18 -17.5 -24.5t-41.5 -6.5z" />
    <glyph glyph-name="threequarters" unicode="&#xbe;" horiz-adv-x="780" 
d="M651 0q-27 0 -39.5 5t-12.5 20v49h-139q-16 0 -21.5 8.5t-5.5 32.5q0 41 16 68l98 170q10 17 26.5 23t57.5 6q43 0 57 -6.5t14 -30.5v-192h26q12 0 17 -9.5t5 -32.5t-4.5 -30t-17.5 -7h-26v-49q0 -15 -12 -20t-39 -5zM150 247q-56 0 -102 12q-14 4 -19 12.5t-5 34.5
q0 24 4 31t13 7q7 0 35.5 -4.5t46.5 -4.5q27 0 40 8t13 29t-15.5 30t-59.5 9q-12 0 -16 7.5t-4 26.5t4 26.5t16 7.5q42 0 56.5 8t14.5 29q0 19 -10.5 25.5t-35.5 6.5q-17 0 -44.5 -4t-34.5 -4q-10 0 -14 6.5t-4 30.5q0 26 5.5 34.5t19.5 12.5q39 11 100 11q58 0 89.5 -18.5
t31.5 -75.5q0 -84 -70 -98q81 -3 81 -92q0 -33 -11.5 -55t-33 -32t-42.5 -13.5t-49 -3.5zM271 0q-26 0 -35 4t-9 14q0 13 9 36l200 550q6 18 18 24.5t41 6.5q26 0 35 -4t9 -14q0 -9 -9 -36l-200 -550q-6 -18 -17.5 -24.5t-41.5 -6.5zM605 300l-80 -147h80v147z" />
    <glyph glyph-name="questiondown" unicode="&#xbf;" horiz-adv-x="369" 
d="M207 460q34 0 46.5 -7t12.5 -30v-42q0 -31 -7 -49.5t-26 -37.5l-59 -64q-27 -29 -27 -68q0 -31 13.5 -40.5t51.5 -9.5q34 0 75 7t47 7q11 0 16 -10.5t5 -40.5q0 -33 -5.5 -43t-21.5 -15q-64 -19 -148 -19q-36 0 -62.5 5t-52 18.5t-39 41.5t-13.5 69q0 47 12.5 75.5
t39.5 58.5l62 70q21 22 21 61v26q0 23 12 30t47 7zM207 627q43 0 55 -9t12 -39v-25q0 -30 -12 -39t-55 -9t-55.5 9t-12.5 39v25q0 30 12.5 39t55.5 9z" />
    <glyph glyph-name="Agrave" unicode="&#xc0;" horiz-adv-x="539" 
d="M76 0q-40 0 -51.5 6.5t-11.5 23.5q0 8 7 40l126 493q10 40 32.5 50.5t90.5 10.5q69 0 91.5 -10.5t32.5 -50.5l126 -493q7 -32 7 -40q0 -17 -12 -23.5t-51 -6.5q-43 0 -56 7t-19 31l-31 121h-178l-28 -121q-5 -24 -18.5 -31t-56.5 -7zM263 514l-60 -255h133l-60 255h-13z
M286 668q-35 0 -48 5.5t-23 24.5l-39 70q-18 34 -18 49q0 13 13.5 19t53.5 6q41 0 54 -6.5t22 -31.5l23 -63q15 -41 15 -50q0 -23 -53 -23z" />
    <glyph glyph-name="Aacute" unicode="&#xc1;" horiz-adv-x="539" 
d="M76 0q-40 0 -51.5 6.5t-11.5 23.5q0 8 7 40l126 493q10 40 32.5 50.5t90.5 10.5q69 0 91.5 -10.5t32.5 -50.5l126 -493q7 -32 7 -40q0 -17 -12 -23.5t-51 -6.5q-43 0 -56 7t-19 31l-31 121h-178l-28 -121q-5 -24 -18.5 -31t-56.5 -7zM263 514l-60 -255h133l-60 255h-13z
M252 668q-53 0 -53 23q0 11 15 50l23 63q9 25 22 31.5t54 6.5q40 0 53.5 -6t13.5 -19q0 -16 -18 -49l-39 -70q-11 -20 -22.5 -25t-48.5 -5z" />
    <glyph glyph-name="Acircumflex" unicode="&#xc2;" horiz-adv-x="539" 
d="M76 0q-40 0 -51.5 6.5t-11.5 23.5q0 8 7 40l126 493q10 40 32.5 50.5t90.5 10.5q69 0 91.5 -10.5t32.5 -50.5l126 -493q7 -32 7 -40q0 -17 -12 -23.5t-51 -6.5q-43 0 -56 7t-19 31l-31 121h-178l-28 -121q-5 -24 -18.5 -31t-56.5 -7zM263 514l-60 -255h133l-60 255h-13z
M272 749h-6l-35 -52q-13 -19 -25 -24t-44 -5q-42 0 -42 23q0 10 15 37l50 87q8 15 19.5 21t37.5 6h55q25 0 36.5 -6t19.5 -21l50 -87q15 -25 15 -37q0 -23 -42 -23q-32 0 -43.5 5t-24.5 24z" />
    <glyph glyph-name="Atilde" unicode="&#xc3;" horiz-adv-x="539" 
d="M76 0q-40 0 -51.5 6.5t-11.5 23.5q0 8 7 40l126 493q10 40 32.5 50.5t90.5 10.5q69 0 91.5 -10.5t32.5 -50.5l126 -493q7 -32 7 -40q0 -17 -12 -23.5t-51 -6.5q-43 0 -56 7t-19 31l-31 121h-178l-28 -121q-5 -24 -18.5 -31t-56.5 -7zM263 514l-60 -255h133l-60 255h-13z
M120 721q0 26 5.5 37.5t20.5 21.5q33 19 68 19q26 0 62.5 -9.5t54.5 -9.5q21 0 43.5 7.5t26.5 7.5q10 0 13.5 -8t3.5 -36q0 -26 -5.5 -37.5t-20.5 -20.5q-30 -20 -68 -20q-26 0 -63 10t-54 10q-22 0 -44.5 -8t-25.5 -8q-10 0 -13.5 8t-3.5 36z" />
    <glyph glyph-name="Adieresis" unicode="&#xc4;" horiz-adv-x="539" 
d="M76 0q-40 0 -51.5 6.5t-11.5 23.5q0 8 7 40l126 493q10 40 32.5 50.5t90.5 10.5q69 0 91.5 -10.5t32.5 -50.5l126 -493q7 -32 7 -40q0 -17 -12 -23.5t-51 -6.5q-43 0 -56 7t-19 31l-31 121h-178l-28 -121q-5 -24 -18.5 -31t-56.5 -7zM263 514l-60 -255h133l-60 255h-13z
M181 681q-43 0 -55 9t-12 39v14q0 31 12 40t55 9t55 -9t12 -40v-14q0 -30 -12 -39t-55 -9zM358 681q-43 0 -55.5 9t-12.5 39v14q0 31 12 40t56 9q43 0 55 -9t12 -40v-14q0 -30 -12 -39t-55 -9z" />
    <glyph glyph-name="Aring" unicode="&#xc5;" horiz-adv-x="539" 
d="M76 0q-40 0 -51.5 6.5t-11.5 23.5q0 8 7 40l126 493q10 40 32.5 50.5t90.5 10.5q69 0 91.5 -10.5t32.5 -50.5l126 -493q7 -32 7 -40q0 -17 -12 -23.5t-51 -6.5q-43 0 -56 7t-19 31l-31 121h-178l-28 -121q-5 -24 -18.5 -31t-56.5 -7zM263 514l-60 -255h133l-60 255h-13z
M269 749q27 0 34 6.5t7 25.5t-7 25t-34 6t-34 -6t-7 -25t7 -25.5t34 -6.5zM269 669q-71 0 -101 23.5t-30 88.5t30 88t101 23q72 0 101.5 -23t29.5 -88t-29.5 -88.5t-101.5 -23.5z" />
    <glyph glyph-name="AE" unicode="&#xc6;" horiz-adv-x="730" 
d="M76 0q-40 0 -51.5 6.5t-11.5 23.5q0 15 7 40l126 493q10 40 32 50.5t91 10.5h396q19 0 26.5 -12t7.5 -46q0 -35 -7.5 -46.5t-26.5 -11.5h-202v-125h139q21 0 27 -10.5t6 -46.5t-6 -46.5t-27 -10.5h-139v-153h212q19 0 26.5 -12t7.5 -46t-7.5 -46t-26.5 -12h-305
q-22 0 -30 6.5t-8 27.5v125h-153l-28 -121q-5 -24 -18.5 -31t-56.5 -7zM263 514l-60 -255h129v255h-69z" />
    <glyph glyph-name="Ccedilla" unicode="&#xc7;" horiz-adv-x="453" 
d="M247 -231q-35 0 -65 6q-17 4 -23 12.5t-6 35.5t6 36.5t19 9.5q5 0 22.5 -2t29.5 -2q21 0 21 11q0 2 -0.5 4t-2 4t-2.5 3t-4 3t-4.5 2.5t-6 3t-6.5 3.5q-20 9 -27 21.5t-7 40.5v36q-49 7 -80.5 29t-52 79t-20.5 151v93q0 76 12 129t30.5 82t49.5 45t58.5 20t68.5 4
q75 0 146 -19q13 -4 18.5 -15t5.5 -45q0 -52 -19 -52q-2 0 -42 7t-77 7t-56.5 -4.5t-35.5 -22.5t-21.5 -51.5t-5.5 -92.5v-58q0 -62 5 -96.5t21.5 -51.5t35 -21t57.5 -4t77 7t42 7q11 0 15 -10.5t4 -41.5q0 -33 -5.5 -44.5t-18.5 -15.5q-58 -15 -120 -18v-16q0 -12 14 -20
q39 -20 52 -38t13 -56q0 -95 -115 -95z" />
    <glyph glyph-name="Egrave" unicode="&#xc8;" horiz-adv-x="455" 
d="M434 58q0 -34 -7.5 -46t-26.5 -12h-312q-22 0 -30 6.5t-8 27.5v556q0 21 8 27.5t30 6.5h302q19 0 26.5 -12t7.5 -46q0 -35 -7.5 -46.5t-26.5 -11.5h-209v-125h145q22 0 28 -10.5t6 -46.5t-6 -46.5t-28 -10.5h-145v-153h219q19 0 26.5 -12t7.5 -46zM258 668q-35 0 -48 5.5
t-23 24.5l-39 70q-18 34 -18 49q0 13 13.5 19t53.5 6q41 0 54 -6.5t22 -31.5l23 -63q15 -41 15 -50q0 -23 -53 -23z" />
    <glyph glyph-name="Eacute" unicode="&#xc9;" horiz-adv-x="455" 
d="M434 58q0 -34 -7.5 -46t-26.5 -12h-312q-22 0 -30 6.5t-8 27.5v556q0 21 8 27.5t30 6.5h302q19 0 26.5 -12t7.5 -46q0 -35 -7.5 -46.5t-26.5 -11.5h-209v-125h145q22 0 28 -10.5t6 -46.5t-6 -46.5t-28 -10.5h-145v-153h219q19 0 26.5 -12t7.5 -46zM202 668q-53 0 -53 23
q0 11 15 50l23 63q9 25 22 31.5t54 6.5q40 0 53.5 -6t13.5 -19q0 -16 -18 -49l-39 -70q-11 -20 -22.5 -25t-48.5 -5z" />
    <glyph glyph-name="Ecircumflex" unicode="&#xca;" horiz-adv-x="455" 
d="M434 58q0 -34 -7.5 -46t-26.5 -12h-312q-22 0 -30 6.5t-8 27.5v556q0 21 8 27.5t30 6.5h302q19 0 26.5 -12t7.5 -46q0 -35 -7.5 -46.5t-26.5 -11.5h-209v-125h145q22 0 28 -10.5t6 -46.5t-6 -46.5t-28 -10.5h-145v-153h219q19 0 26.5 -12t7.5 -46zM243 749h-6l-35 -52
q-13 -19 -25 -24t-44 -5q-42 0 -42 23q0 10 15 37l50 87q8 15 19.5 21t37.5 6h55q25 0 36.5 -6t19.5 -21l50 -87q15 -25 15 -37q0 -23 -42 -23q-32 0 -43.5 5t-24.5 24z" />
    <glyph glyph-name="Edieresis" unicode="&#xcb;" horiz-adv-x="455" 
d="M434 58q0 -34 -7.5 -46t-26.5 -12h-312q-22 0 -30 6.5t-8 27.5v556q0 21 8 27.5t30 6.5h302q19 0 26.5 -12t7.5 -46q0 -35 -7.5 -46.5t-26.5 -11.5h-209v-125h145q22 0 28 -10.5t6 -46.5t-6 -46.5t-28 -10.5h-145v-153h219q19 0 26.5 -12t7.5 -46zM153 675q-43 0 -55 9
t-12 39v14q0 31 12 40t55 9t55 -9t12 -40v-14q0 -30 -12 -39t-55 -9zM330 675q-43 0 -55.5 9t-12.5 39v14q0 31 12 40t56 9q43 0 55 -9t12 -40v-14q0 -30 -12 -39t-55 -9z" />
    <glyph glyph-name="Igrave" unicode="&#xcc;" horiz-adv-x="231" 
d="M115 0q-39 0 -52 7t-13 30v550q0 23 13 30t52 7q40 0 53 -7t13 -30v-550q0 -23 -13 -30t-53 -7zM137 668q-35 0 -48 5.5t-23 24.5l-39 70q-18 34 -18 49q0 13 13.5 19t53.5 6q41 0 54 -6.5t22 -31.5l23 -63q15 -41 15 -50q0 -23 -53 -23z" />
    <glyph glyph-name="Iacute" unicode="&#xcd;" horiz-adv-x="231" 
d="M115 0q-39 0 -52 7t-13 30v550q0 23 13 30t52 7q40 0 53 -7t13 -30v-550q0 -23 -13 -30t-53 -7zM94 668q-53 0 -53 23q0 11 15 50l23 63q9 25 22 31.5t54 6.5q40 0 53.5 -6t13.5 -19q0 -16 -18 -49l-39 -70q-11 -20 -22.5 -25t-48.5 -5z" />
    <glyph glyph-name="Icircumflex" unicode="&#xce;" horiz-adv-x="231" 
d="M115 0q-39 0 -52 7t-13 30v550q0 23 13 30t52 7q40 0 53 -7t13 -30v-550q0 -23 -13 -30t-53 -7zM118 749h-6l-35 -52q-13 -19 -25 -24t-44 -5q-42 0 -42 23q0 10 15 37l50 87q8 15 19.5 21t37.5 6h55q25 0 36.5 -6t19.5 -21l50 -87q15 -25 15 -37q0 -23 -42 -23
q-32 0 -43.5 5t-24.5 24z" />
    <glyph glyph-name="Idieresis" unicode="&#xcf;" horiz-adv-x="231" 
d="M115 0q-39 0 -52 7t-13 30v550q0 23 13 30t52 7q40 0 53 -7t13 -30v-550q0 -23 -13 -30t-53 -7zM27 675q-43 0 -55 9t-12 39v14q0 31 12 40t55 9t55 -9t12 -40v-14q0 -30 -12 -39t-55 -9zM204 675q-43 0 -55.5 9t-12.5 39v14q0 31 12 40t56 9q43 0 55 -9t12 -40v-14
q0 -30 -12 -39t-55 -9z" />
    <glyph glyph-name="Eth" unicode="&#xd0;" horiz-adv-x="530" 
d="M-3 315q0 36 6 46.5t28 10.5h19v207q0 23 8 31.5t28 10.5q58 8 147 8q40 0 66.5 -2t56 -8t48.5 -17.5t37.5 -31t28.5 -47.5t16 -68t6 -92v-80q0 -79 -13 -134t-32 -85t-53.5 -46.5t-65.5 -20.5t-80 -4q-89 0 -162 8q-23 2 -29.5 10t-6.5 29v217h-19q-21 0 -27.5 11
t-6.5 47zM248 108q49 0 70.5 10.5t32 47t10.5 117.5v76q0 100 -24.5 130.5t-97.5 30.5q-30 0 -58 -4v-147h28q22 0 28 -10t6 -44t-6.5 -44.5t-27.5 -10.5h-28v-148q36 -4 67 -4z" />
    <glyph glyph-name="Ntilde" unicode="&#xd1;" horiz-adv-x="556" 
d="M115 0q-39 0 -52 7t-13 30v550q0 23 14 30t59 7q33 0 49.5 -6.5t29.5 -29.5l165 -345h8v344q0 23 13 30t53 7t53 -7t13 -30v-550q0 -24 -13.5 -30.5t-57.5 -6.5q-33 0 -46.5 6t-25.5 29l-174 345h-9v-343q0 -23 -13 -30t-53 -7zM129 724q0 26 5.5 37.5t20.5 21.5
q33 19 68 19q26 0 62.5 -9.5t54.5 -9.5q21 0 43.5 7.5t26.5 7.5q10 0 13.5 -8t3.5 -36q0 -26 -5.5 -37.5t-20.5 -20.5q-30 -20 -68 -20q-27 0 -63 10t-54 10q-21 0 -43.5 -8t-26.5 -8q-10 0 -13.5 8t-3.5 36z" />
    <glyph glyph-name="Ograve" unicode="&#xd2;" horiz-adv-x="531" 
d="M265 106q43 0 61.5 12t26.5 48t8 117v56q0 82 -7.5 117.5t-26 47.5t-62.5 12q-42 0 -60.5 -12t-26.5 -48t-8 -117v-56q0 -82 7.5 -117.5t25.5 -47.5t62 -12zM265 -7q-66 0 -104 8.5t-68.5 37t-42.5 84t-12 147.5v75q0 64 5.5 110t18.5 77.5t29 50.5t44.5 29.5t57 13.5
t72.5 3q69 0 107 -8.5t68.5 -38t41.5 -86t11 -151.5v-75q0 -62 -6 -107t-19.5 -75.5t-30.5 -49.5t-45 -29t-56.5 -13t-70.5 -3zM293 668q-35 0 -48 5.5t-23 24.5l-39 70q-18 34 -18 49q0 13 13.5 19t53.5 6q41 0 54 -6.5t22 -31.5l23 -63q15 -41 15 -50q0 -23 -53 -23z" />
    <glyph glyph-name="Oacute" unicode="&#xd3;" horiz-adv-x="531" 
d="M265 106q43 0 61.5 12t26.5 48t8 117v56q0 82 -7.5 117.5t-26 47.5t-62.5 12q-42 0 -60.5 -12t-26.5 -48t-8 -117v-56q0 -82 7.5 -117.5t25.5 -47.5t62 -12zM265 -7q-66 0 -104 8.5t-68.5 37t-42.5 84t-12 147.5v75q0 64 5.5 110t18.5 77.5t29 50.5t44.5 29.5t57 13.5
t72.5 3q69 0 107 -8.5t68.5 -38t41.5 -86t11 -151.5v-75q0 -62 -6 -107t-19.5 -75.5t-30.5 -49.5t-45 -29t-56.5 -13t-70.5 -3zM237 668q-53 0 -53 23q0 11 15 50l23 63q9 25 22 31.5t54 6.5q40 0 53.5 -6t13.5 -19q0 -16 -18 -49l-39 -70q-11 -20 -22.5 -25t-48.5 -5z" />
    <glyph glyph-name="Ocircumflex" unicode="&#xd4;" horiz-adv-x="531" 
d="M265 106q43 0 61.5 12t26.5 48t8 117v56q0 82 -7.5 117.5t-26 47.5t-62.5 12q-42 0 -60.5 -12t-26.5 -48t-8 -117v-56q0 -82 7.5 -117.5t25.5 -47.5t62 -12zM265 -7q-66 0 -104 8.5t-68.5 37t-42.5 84t-12 147.5v75q0 64 5.5 110t18.5 77.5t29 50.5t44.5 29.5t57 13.5
t72.5 3q69 0 107 -8.5t68.5 -38t41.5 -86t11 -151.5v-75q0 -62 -6 -107t-19.5 -75.5t-30.5 -49.5t-45 -29t-56.5 -13t-70.5 -3zM269 749h-6l-35 -52q-13 -19 -25 -24t-44 -5q-42 0 -42 23q0 10 15 37l50 87q8 15 19.5 21t37.5 6h55q25 0 36.5 -6t19.5 -21l50 -87
q15 -25 15 -37q0 -23 -42 -23q-32 0 -43.5 5t-24.5 24z" />
    <glyph glyph-name="Otilde" unicode="&#xd5;" horiz-adv-x="531" 
d="M265 106q43 0 61.5 12t26.5 48t8 117v56q0 82 -7.5 117.5t-26 47.5t-62.5 12q-42 0 -60.5 -12t-26.5 -48t-8 -117v-56q0 -82 7.5 -117.5t25.5 -47.5t62 -12zM265 -7q-66 0 -104 8.5t-68.5 37t-42.5 84t-12 147.5v75q0 64 5.5 110t18.5 77.5t29 50.5t44.5 29.5t57 13.5
t72.5 3q69 0 107 -8.5t68.5 -38t41.5 -86t11 -151.5v-75q0 -62 -6 -107t-19.5 -75.5t-30.5 -49.5t-45 -29t-56.5 -13t-70.5 -3zM116 721q0 26 5.5 37.5t20.5 21.5q33 19 68 19q26 0 62.5 -9.5t54.5 -9.5q21 0 43.5 7.5t26.5 7.5q10 0 13.5 -8t3.5 -36q0 -26 -5.5 -37.5
t-20.5 -20.5q-30 -20 -68 -20q-26 0 -62.5 10t-54.5 10q-21 0 -44 -8t-26 -8q-10 0 -13.5 8t-3.5 36z" />
    <glyph glyph-name="Odieresis" unicode="&#xd6;" horiz-adv-x="531" 
d="M265 106q43 0 61.5 12t26.5 48t8 117v56q0 82 -7.5 117.5t-26 47.5t-62.5 12q-42 0 -60.5 -12t-26.5 -48t-8 -117v-56q0 -82 7.5 -117.5t25.5 -47.5t62 -12zM265 -7q-66 0 -104 8.5t-68.5 37t-42.5 84t-12 147.5v75q0 64 5.5 110t18.5 77.5t29 50.5t44.5 29.5t57 13.5
t72.5 3q69 0 107 -8.5t68.5 -38t41.5 -86t11 -151.5v-75q0 -62 -6 -107t-19.5 -75.5t-30.5 -49.5t-45 -29t-56.5 -13t-70.5 -3zM177 678q-43 0 -55 9t-12 39v14q0 31 12 40t55 9t55 -9t12 -40v-14q0 -30 -12 -39t-55 -9zM354 678q-43 0 -55.5 9t-12.5 39v14q0 31 12 40t56 9
q43 0 55 -9t12 -40v-14q0 -30 -12 -39t-55 -9z" />
    <glyph glyph-name="multiply" unicode="&#xd7;" 
d="M75 120q0 13 17 34l86 113l-86 122q-17 21 -17 34q0 18 47 18q44 0 59 -20l51 -76l51 76q13 20 59 20q47 0 47 -18q0 -10 -17 -34l-87 -122l87 -113q17 -24 17 -34q0 -18 -47 -18q-45 0 -59 19l-51 71l-51 -71q-15 -19 -59 -19q-47 0 -47 18z" />
    <glyph glyph-name="Oslash" unicode="&#xd8;" horiz-adv-x="531" 
d="M265 -7q-42 0 -70 3t-56 13t-45 29t-30.5 49.5t-19.5 75.5t-6 107v75q0 95 11 151.5t41 86t68.5 38t106.5 8.5q69 0 107 -8.5t68.5 -38t41.5 -86t11 -151.5v-75q0 -62 -6 -107t-19.5 -75.5t-30.5 -49.5t-45 -29t-56.5 -13t-70.5 -3zM170 339v-68l182 195q-9 30 -28 40
t-59 10q-44 0 -62 -12t-25.5 -47.5t-7.5 -117.5zM265 106q43 0 61.5 12t26.5 48t8 117v63l-178 -193q8 -29 26.5 -38t55.5 -9z" />
    <glyph glyph-name="Ugrave" unicode="&#xd9;" horiz-adv-x="530" 
d="M265 -7q-118 0 -166.5 43t-48.5 151v400q0 23 13 30t52 7q40 0 53 -7t13 -30v-407q0 -44 16.5 -59.5t67.5 -15.5t67 15.5t16 59.5v407q0 23 13.5 30t52.5 7q40 0 53 -7t13 -30v-400q0 -108 -48.5 -151t-166.5 -43zM283 668q-35 0 -48 5.5t-23 24.5l-39 70q-18 34 -18 49
q0 13 13.5 19t53.5 6q41 0 54 -6.5t22 -31.5l23 -63q15 -41 15 -50q0 -23 -53 -23z" />
    <glyph glyph-name="Uacute" unicode="&#xda;" horiz-adv-x="530" 
d="M265 -7q-118 0 -166.5 43t-48.5 151v400q0 23 13 30t52 7q40 0 53 -7t13 -30v-407q0 -44 16.5 -59.5t67.5 -15.5t67 15.5t16 59.5v407q0 23 13.5 30t52.5 7q40 0 53 -7t13 -30v-400q0 -108 -48.5 -151t-166.5 -43zM246 668q-53 0 -53 23q0 11 15 50l23 63q9 25 22 31.5
t54 6.5q40 0 53.5 -6t13.5 -19q0 -16 -18 -49l-39 -70q-11 -20 -22.5 -25t-48.5 -5z" />
    <glyph glyph-name="Ucircumflex" unicode="&#xdb;" horiz-adv-x="530" 
d="M265 -7q-118 0 -166.5 43t-48.5 151v400q0 23 13 30t52 7q40 0 53 -7t13 -30v-407q0 -44 16.5 -59.5t67.5 -15.5t67 15.5t16 59.5v407q0 23 13.5 30t52.5 7q40 0 53 -7t13 -30v-400q0 -108 -48.5 -151t-166.5 -43zM268 749h-6l-35 -52q-13 -19 -25 -24t-44 -5
q-42 0 -42 23q0 10 15 37l50 87q8 15 19.5 21t37.5 6h55q25 0 36.5 -6t19.5 -21l50 -87q15 -25 15 -37q0 -23 -42 -23q-32 0 -43.5 5t-24.5 24z" />
    <glyph glyph-name="Udieresis" unicode="&#xdc;" horiz-adv-x="530" 
d="M265 -7q-118 0 -166.5 43t-48.5 151v400q0 23 13 30t52 7q40 0 53 -7t13 -30v-407q0 -44 16.5 -59.5t67.5 -15.5t67 15.5t16 59.5v407q0 23 13.5 30t52.5 7q40 0 53 -7t13 -30v-400q0 -108 -48.5 -151t-166.5 -43zM177 678q-43 0 -55 9t-12 39v14q0 31 12 40t55 9t55 -9
t12 -40v-14q0 -30 -12 -39t-55 -9zM354 678q-43 0 -55.5 9t-12.5 39v14q0 31 12 40t56 9q43 0 55 -9t12 -40v-14q0 -30 -12 -39t-55 -9z" />
    <glyph glyph-name="Yacute" unicode="&#xdd;" horiz-adv-x="484" 
d="M242 0q-40 0 -53 7t-13 30v187l-146 316q-17 37 -17 54q0 30 56 30q48 0 63 -7t24 -31l83 -226h5l83 226q9 25 23 31.5t61 6.5q60 0 60 -29q0 -18 -17 -55l-146 -316v-187q0 -23 -13.5 -30t-52.5 -7zM222 668q-53 0 -53 23q0 11 15 50l23 63q9 25 22 31.5t54 6.5
q40 0 53.5 -6t13.5 -19q0 -16 -18 -49l-39 -70q-11 -20 -22.5 -25t-48.5 -5z" />
    <glyph glyph-name="Thorn" unicode="&#xde;" horiz-adv-x="478" 
d="M115 0q-39 0 -52 7t-13 30v550q0 23 13 30t52 7q40 0 53 -7t13 -30v-72q39 3 80 3q106 0 151.5 -37.5t45.5 -152.5q0 -121 -57 -166t-183 -45h-37v-80q0 -23 -13 -30t-53 -7zM181 405v-182h44q63 0 83.5 20t20.5 83q0 51 -17.5 67t-66.5 16q-30 0 -64 -4z" />
    <glyph glyph-name="germandbls" unicode="&#xdf;" horiz-adv-x="512" 
d="M224 674q104 0 147.5 -29.5t43.5 -97.5q0 -49 -21.5 -112t-21.5 -79q0 -27 22 -43l53 -39q32 -24 43.5 -51.5t11.5 -77.5q0 -79 -40.5 -117t-110.5 -38q-55 0 -97 15q-15 6 -21 16.5t-6 38.5q0 53 21 53q4 0 27.5 -4.5t43.5 -4.5q30 0 40 11t10 39q0 34 -18 46l-49 33
q-50 32 -50 97q0 31 19 94t19 96q0 28 -13 37.5t-50 9.5q-32 0 -40.5 -8.5t-8.5 -42.5v-479q0 -24 -13 -30.5t-53 -6.5t-53 6.5t-13 30.5v496q0 78 37.5 109.5t140.5 31.5z" />
    <glyph glyph-name="agrave" unicode="&#xe0;" horiz-adv-x="486" 
d="M159 -10q-67 0 -98 35t-31 113q0 81 42.5 116t150.5 35h78v37q0 44 -15.5 55t-61.5 11q-42 0 -90 -7.5t-53 -7.5q-23 0 -23 53q0 27 5.5 38t21.5 16q59 19 157 19q104 0 146.5 -27.5t42.5 -114.5v-145q0 -54 4.5 -95t9.5 -62.5t5 -28.5q0 -16 -12 -23t-49 -7
q-33 0 -44 5.5t-17 27.5l-14 51q-38 -94 -155 -94zM207 94q40 0 67 23t27 73v23l-77 -3q-41 -2 -55.5 -13.5t-14.5 -44.5q0 -35 12 -46.5t41 -11.5zM273 539q-35 0 -48 5.5t-23 24.5l-39 70q-18 34 -18 49q0 13 13.5 19t53.5 6q41 0 54 -6.5t22 -31.5l23 -63q15 -41 15 -50
q0 -23 -53 -23z" />
    <glyph glyph-name="aacute" unicode="&#xe1;" horiz-adv-x="486" 
d="M159 -10q-67 0 -98 35t-31 113q0 81 42.5 116t150.5 35h78v37q0 44 -15.5 55t-61.5 11q-42 0 -90 -7.5t-53 -7.5q-23 0 -23 53q0 27 5.5 38t21.5 16q59 19 157 19q104 0 146.5 -27.5t42.5 -114.5v-145q0 -54 4.5 -95t9.5 -62.5t5 -28.5q0 -16 -12 -23t-49 -7
q-33 0 -44 5.5t-17 27.5l-14 51q-38 -94 -155 -94zM207 94q40 0 67 23t27 73v23l-77 -3q-41 -2 -55.5 -13.5t-14.5 -44.5q0 -35 12 -46.5t41 -11.5zM216 539q-53 0 -53 23q0 11 15 50l23 63q9 25 22 31.5t54 6.5q40 0 53.5 -6t13.5 -19q0 -16 -18 -49l-39 -70
q-11 -20 -22.5 -25t-48.5 -5z" />
    <glyph glyph-name="acircumflex" unicode="&#xe2;" horiz-adv-x="486" 
d="M159 -10q-67 0 -98 35t-31 113q0 81 42.5 116t150.5 35h78v37q0 44 -15.5 55t-61.5 11q-42 0 -90 -7.5t-53 -7.5q-23 0 -23 53q0 27 5.5 38t21.5 16q59 19 157 19q104 0 146.5 -27.5t42.5 -114.5v-145q0 -54 4.5 -95t9.5 -62.5t5 -28.5q0 -16 -12 -23t-49 -7
q-33 0 -44 5.5t-17 27.5l-14 51q-38 -94 -155 -94zM207 94q40 0 67 23t27 73v23l-77 -3q-41 -2 -55.5 -13.5t-14.5 -44.5q0 -35 12 -46.5t41 -11.5zM244 620h-6l-35 -52q-13 -19 -25 -24t-44 -5q-42 0 -42 23q0 10 15 37l50 87q8 15 19.5 21t37.5 6h55q25 0 36.5 -6
t19.5 -21l50 -87q15 -25 15 -37q0 -23 -42 -23q-32 0 -43.5 5t-24.5 24z" />
    <glyph glyph-name="atilde" unicode="&#xe3;" horiz-adv-x="486" 
d="M159 -10q-67 0 -98 35t-31 113q0 81 42.5 116t150.5 35h78v37q0 44 -15.5 55t-61.5 11q-42 0 -90 -7.5t-53 -7.5q-23 0 -23 53q0 27 5.5 38t21.5 16q59 19 157 19q104 0 146.5 -27.5t42.5 -114.5v-145q0 -54 4.5 -95t9.5 -62.5t5 -28.5q0 -16 -12 -23t-49 -7
q-33 0 -44 5.5t-17 27.5l-14 51q-38 -94 -155 -94zM207 94q40 0 67 23t27 73v23l-77 -3q-41 -2 -55.5 -13.5t-14.5 -44.5q0 -35 12 -46.5t41 -11.5zM93 600q0 26 5.5 37.5t20.5 21.5q33 19 68 19q26 0 62.5 -9.5t54.5 -9.5q21 0 43.5 7.5t26.5 7.5q10 0 13.5 -8t3.5 -36
q0 -26 -5.5 -37.5t-20.5 -20.5q-30 -20 -68 -20q-27 0 -63 10t-54 10q-22 0 -44.5 -8t-25.5 -8q-10 0 -13.5 8t-3.5 36z" />
    <glyph glyph-name="adieresis" unicode="&#xe4;" horiz-adv-x="486" 
d="M159 -10q-67 0 -98 35t-31 113q0 81 42.5 116t150.5 35h78v37q0 44 -15.5 55t-61.5 11q-42 0 -90 -7.5t-53 -7.5q-23 0 -23 53q0 27 5.5 38t21.5 16q59 19 157 19q104 0 146.5 -27.5t42.5 -114.5v-145q0 -54 4.5 -95t9.5 -62.5t5 -28.5q0 -16 -12 -23t-49 -7
q-33 0 -44 5.5t-17 27.5l-14 51q-38 -94 -155 -94zM207 94q40 0 67 23t27 73v23l-77 -3q-41 -2 -55.5 -13.5t-14.5 -44.5q0 -35 12 -46.5t41 -11.5zM153 546q-43 0 -55 9t-12 39v14q0 31 12 40t55 9t55 -9t12 -40v-14q0 -30 -12 -39t-55 -9zM330 546q-43 0 -55.5 9t-12.5 39
v14q0 31 12 40t56 9q43 0 55 -9t12 -40v-14q0 -30 -12 -39t-55 -9z" />
    <glyph glyph-name="aring" unicode="&#xe5;" horiz-adv-x="486" 
d="M159 -10q-67 0 -98 35t-31 113q0 81 42.5 116t150.5 35h78v37q0 44 -15.5 55t-61.5 11q-42 0 -90 -7.5t-53 -7.5q-23 0 -23 53q0 27 5.5 38t21.5 16q59 19 157 19q104 0 146.5 -27.5t42.5 -114.5v-145q0 -54 4.5 -95t9.5 -62.5t5 -28.5q0 -16 -12 -23t-49 -7
q-33 0 -44 5.5t-17 27.5l-14 51q-38 -94 -155 -94zM207 94q40 0 67 23t27 73v23l-77 -3q-41 -2 -55.5 -13.5t-14.5 -44.5q0 -35 12 -46.5t41 -11.5zM239 624q27 0 34 6.5t7 25.5t-7 25t-34 6t-34 -6t-7 -25t7 -25.5t34 -6.5zM239 544q-71 0 -101 23.5t-30 88.5t30 88t101 23
q72 0 101.5 -23t29.5 -88t-29.5 -88.5t-101.5 -23.5z" />
    <glyph glyph-name="ae" unicode="&#xe6;" horiz-adv-x="740" 
d="M496 -10q-86 0 -124.5 20.5t-51.5 88.5q-35 -109 -161 -109q-67 0 -98 35t-31 113q0 81 42.5 116t150.5 35h78v37q0 44 -15.5 55t-61.5 11q-42 0 -90 -7.5t-53 -7.5q-23 0 -23 53q0 27 5.5 38t21.5 16q59 19 157 19q106 0 142 -31q48 31 139 31q58 0 93.5 -13t54.5 -44
t25.5 -71t6.5 -105q0 -31 -10 -45t-38 -14h-224q3 -72 20 -90t70 -18q38 0 73 3.5t56 7.5t24 4q21 0 21 -53q0 -28 -6 -39t-21 -16q-57 -20 -172 -20zM207 94q40 0 67 23t27 73v23l-77 -3q-41 -2 -55.5 -13.5t-14.5 -44.5q0 -35 12 -46.5t41 -11.5zM510 394q-46 0 -61.5 -18
t-17.5 -85h149q0 62 -12 82.5t-58 20.5z" />
    <glyph glyph-name="ccedilla" unicode="&#xe7;" horiz-adv-x="431" 
d="M223 -231q-35 0 -65 6q-17 4 -23 12.5t-6 35.5t6 36.5t19 9.5q5 0 22.5 -2t29.5 -2q21 0 21 11q0 2 -0.5 4t-2 4t-2.5 3t-4 3t-4.5 2.5t-6 3t-6.5 3.5q-20 9 -27 21.5t-7 40.5v36q-65 13 -96 68t-31 178q0 85 13 138t41.5 79t62 34.5t87.5 8.5q70 0 130 -18q15 -5 21 -16
t6 -39q0 -53 -22 -53q-3 0 -46.5 7t-69.5 7q-39 0 -56 -7.5t-27 -36.5t-10 -92q0 -71 7 -101t25.5 -40.5t63.5 -10.5q38 0 76 7l38 8q22 0 22 -53q0 -28 -6 -39t-21 -16q-54 -18 -116 -20v-12q0 -12 14 -20q39 -20 52 -38t13 -56q0 -95 -115 -95z" />
    <glyph glyph-name="egrave" unicode="&#xe8;" horiz-adv-x="479" 
d="M260 -10q-59 0 -95.5 8.5t-67 34t-44 77t-13.5 133.5q0 85 12.5 138t42 79t64 34.5t92.5 8.5q62 0 100 -13t58.5 -44t27 -71t6.5 -105q0 -31 -10 -45t-39 -14h-224q3 -70 21.5 -89t77.5 -19q34 0 67 3.5t53 7.5t24 4q22 0 22 -53q0 -28 -6 -39t-21 -16q-58 -20 -148 -20z
M249 394q-45 0 -60.5 -18t-18.5 -85h149q0 62 -12 82.5t-58 20.5zM268 539q-35 0 -48 5.5t-23 24.5l-39 70q-18 34 -18 49q0 13 13.5 19t53.5 6q41 0 54 -6.5t22 -31.5l23 -63q15 -41 15 -50q0 -23 -53 -23z" />
    <glyph glyph-name="eacute" unicode="&#xe9;" horiz-adv-x="479" 
d="M260 -10q-59 0 -95.5 8.5t-67 34t-44 77t-13.5 133.5q0 85 12.5 138t42 79t64 34.5t92.5 8.5q62 0 100 -13t58.5 -44t27 -71t6.5 -105q0 -31 -10 -45t-39 -14h-224q3 -70 21.5 -89t77.5 -19q34 0 67 3.5t53 7.5t24 4q22 0 22 -53q0 -28 -6 -39t-21 -16q-58 -20 -148 -20z
M249 394q-45 0 -60.5 -18t-18.5 -85h149q0 62 -12 82.5t-58 20.5zM218 539q-53 0 -53 23q0 11 15 50l23 63q9 25 22 31.5t54 6.5q40 0 53.5 -6t13.5 -19q0 -16 -18 -49l-39 -70q-11 -20 -22.5 -25t-48.5 -5z" />
    <glyph glyph-name="ecircumflex" unicode="&#xea;" horiz-adv-x="479" 
d="M260 -10q-59 0 -95.5 8.5t-67 34t-44 77t-13.5 133.5q0 85 12.5 138t42 79t64 34.5t92.5 8.5q62 0 100 -13t58.5 -44t27 -71t6.5 -105q0 -31 -10 -45t-39 -14h-224q3 -70 21.5 -89t77.5 -19q34 0 67 3.5t53 7.5t24 4q22 0 22 -53q0 -28 -6 -39t-21 -16q-58 -20 -148 -20z
M249 394q-45 0 -60.5 -18t-18.5 -85h149q0 62 -12 82.5t-58 20.5zM246 620h-6l-35 -52q-13 -19 -25 -24t-44 -5q-42 0 -42 23q0 10 15 37l50 87q8 15 19.5 21t37.5 6h55q25 0 36.5 -6t19.5 -21l50 -87q15 -25 15 -37q0 -23 -42 -23q-32 0 -43.5 5t-24.5 24z" />
    <glyph glyph-name="edieresis" unicode="&#xeb;" horiz-adv-x="479" 
d="M260 -10q-59 0 -95.5 8.5t-67 34t-44 77t-13.5 133.5q0 85 12.5 138t42 79t64 34.5t92.5 8.5q62 0 100 -13t58.5 -44t27 -71t6.5 -105q0 -31 -10 -45t-39 -14h-224q3 -70 21.5 -89t77.5 -19q34 0 67 3.5t53 7.5t24 4q22 0 22 -53q0 -28 -6 -39t-21 -16q-58 -20 -148 -20z
M249 394q-45 0 -60.5 -18t-18.5 -85h149q0 62 -12 82.5t-58 20.5zM155 546q-43 0 -55 9t-12 39v14q0 31 12 40t55 9t55 -9t12 -40v-14q0 -30 -12 -39t-55 -9zM332 546q-43 0 -55.5 9t-12.5 39v14q0 31 12 40t56 9q43 0 55 -9t12 -40v-14q0 -30 -12 -39t-55 -9z" />
    <glyph glyph-name="igrave" unicode="&#xec;" horiz-adv-x="229" 
d="M134 539q-35 0 -48 5.5t-23 24.5l-39 70q-18 34 -18 49q0 13 13.5 19t53.5 6q41 0 54 -6.5t22 -31.5l23 -63q15 -41 15 -50q0 -23 -53 -23zM112 0q-40 0 -53 6.5t-13 30.5v419q0 24 13 30.5t53 6.5t53 -6.5t13 -30.5v-419q0 -24 -13 -30.5t-53 -6.5z" />
    <glyph glyph-name="iacute" unicode="&#xed;" horiz-adv-x="229" 
d="M92 539q-53 0 -53 23q0 11 15 50l23 63q9 25 22 31.5t54 6.5q40 0 53.5 -6t13.5 -19q0 -16 -18 -49l-39 -70q-11 -20 -22.5 -25t-48.5 -5zM112 0q-40 0 -53 6.5t-13 30.5v419q0 24 13 30.5t53 6.5t53 -6.5t13 -30.5v-419q0 -24 -13 -30.5t-53 -6.5z" />
    <glyph glyph-name="icircumflex" unicode="&#xee;" horiz-adv-x="229" 
d="M112 0q-40 0 -53 6.5t-13 30.5v419q0 24 13 30.5t53 6.5t53 -6.5t13 -30.5v-419q0 -24 -13 -30.5t-53 -6.5zM116 620h-6l-35 -52q-13 -19 -25 -24t-44 -5q-42 0 -42 23q0 10 15 37l50 87q8 15 19.5 21t37.5 6h55q25 0 36.5 -6t19.5 -21l50 -87q15 -25 15 -37
q0 -23 -42 -23q-32 0 -43.5 5t-24.5 24z" />
    <glyph glyph-name="idieresis" unicode="&#xef;" horiz-adv-x="229" 
d="M25 546q-43 0 -55 9t-12 39v14q0 31 12 40t55 9t55 -9t12 -40v-14q0 -30 -12 -39t-55 -9zM202 546q-43 0 -55.5 9t-12.5 39v14q0 31 12 40t56 9q43 0 55 -9t12 -40v-14q0 -30 -12 -39t-55 -9zM112 0q-40 0 -53 6.5t-13 30.5v419q0 24 13 30.5t53 6.5t53 -6.5t13 -30.5
v-419q0 -24 -13 -30.5t-53 -6.5z" />
    <glyph glyph-name="eth" unicode="&#xf0;" horiz-adv-x="506" 
d="M444 601q0 -14 -17 -18l-38 -10q77 -177 77 -320q0 -108 -23 -165t-68.5 -77.5t-129.5 -20.5q-81 0 -123 19.5t-62 74t-20 159.5q0 81 9.5 133t31 79.5t49 37.5t70.5 10q65 0 98 -31q-10 36 -23 71l-35 -9q-16 -4 -19 -4q-7 0 -10.5 5t-8.5 19q-6 18 -6 29q0 8 4 11.5
t14 6.5l35 9q-12 33 -12 45q0 8 2.5 12.5t14.5 9t34 4.5q29 0 39 -4.5t18 -18.5q2 -3 6 -10t6 -10l49 13q7 3 14 3q12 0 19 -24q5 -16 5 -29zM249 100q53 0 68 27t15 118q0 94 -15.5 121.5t-60.5 27.5q-56 0 -69.5 -24.5t-13.5 -118.5q0 -97 14 -124t62 -27z" />
    <glyph glyph-name="ntilde" unicode="&#xf1;" horiz-adv-x="517" 
d="M122 0q-40 0 -53 6.5t-13 30.5v240q0 54 -5 95t-10 62.5t-5 28.5q0 16 12 23t49 7q34 0 44.5 -5.5t16.5 -27.5l13 -52q40 95 159 95q78 0 107.5 -32t29.5 -108v-326q0 -24 -13.5 -30.5t-52.5 -6.5t-52.5 6.5t-13.5 30.5v294q0 34 -11 46.5t-43 12.5q-52 0 -73 -35.5
t-21 -123.5v-194q0 -24 -13 -30.5t-52 -6.5zM113 600q0 26 5.5 37.5t20.5 21.5q33 19 68 19q26 0 62.5 -9.5t54.5 -9.5q21 0 43.5 7.5t26.5 7.5q10 0 13.5 -8t3.5 -36q0 -26 -5.5 -37.5t-20.5 -20.5q-30 -20 -68 -20q-27 0 -63 10t-54 10q-22 0 -44 -8t-26 -8q-10 0 -13.5 8
t-3.5 36z" />
    <glyph glyph-name="ograve" unicode="&#xf2;" horiz-adv-x="506" 
d="M245 -10q-81 0 -123 19.5t-62 74t-20 159.5q0 108 23 164.5t68 76t130 19.5q61 0 97 -9.5t62 -37t36 -76t10 -127.5q0 -108 -23 -165t-68.5 -77.5t-129.5 -20.5zM249 100q53 0 68 27t15 118q0 97 -14 123t-62 26q-53 0 -68 -26t-15 -117q0 -97 14 -124t62 -27zM276 539
q-35 0 -48 5.5t-23 24.5l-39 70q-18 34 -18 49q0 13 13.5 19t53.5 6q41 0 54 -6.5t22 -31.5l23 -63q15 -41 15 -50q0 -23 -53 -23z" />
    <glyph glyph-name="oacute" unicode="&#xf3;" horiz-adv-x="506" 
d="M245 -10q-81 0 -123 19.5t-62 74t-20 159.5q0 108 23 164.5t68 76t130 19.5q61 0 97 -9.5t62 -37t36 -76t10 -127.5q0 -108 -23 -165t-68.5 -77.5t-129.5 -20.5zM249 100q53 0 68 27t15 118q0 97 -14 123t-62 26q-53 0 -68 -26t-15 -117q0 -97 14 -124t62 -27zM229 539
q-53 0 -53 23q0 11 15 50l23 63q9 25 22 31.5t54 6.5q40 0 53.5 -6t13.5 -19q0 -16 -18 -49l-39 -70q-11 -20 -22.5 -25t-48.5 -5z" />
    <glyph glyph-name="ocircumflex" unicode="&#xf4;" horiz-adv-x="506" 
d="M245 -10q-81 0 -123 19.5t-62 74t-20 159.5q0 108 23 164.5t68 76t130 19.5q61 0 97 -9.5t62 -37t36 -76t10 -127.5q0 -108 -23 -165t-68.5 -77.5t-129.5 -20.5zM249 100q53 0 68 27t15 118q0 97 -14 123t-62 26q-53 0 -68 -26t-15 -117q0 -97 14 -124t62 -27zM256 620
h-6l-35 -52q-13 -19 -25 -24t-44 -5q-42 0 -42 23q0 10 15 37l50 87q8 15 19.5 21t37.5 6h55q25 0 36.5 -6t19.5 -21l50 -87q15 -25 15 -37q0 -23 -42 -23q-32 0 -43.5 5t-24.5 24z" />
    <glyph glyph-name="otilde" unicode="&#xf5;" horiz-adv-x="506" 
d="M245 -10q-81 0 -123 19.5t-62 74t-20 159.5q0 108 23 164.5t68 76t130 19.5q61 0 97 -9.5t62 -37t36 -76t10 -127.5q0 -108 -23 -165t-68.5 -77.5t-129.5 -20.5zM249 100q53 0 68 27t15 118q0 97 -14 123t-62 26q-53 0 -68 -26t-15 -117q0 -97 14 -124t62 -27zM104 600
q0 26 5.5 37.5t20.5 21.5q33 19 68 19q26 0 62.5 -9.5t54.5 -9.5q21 0 43.5 7.5t26.5 7.5q10 0 13.5 -8t3.5 -36q0 -26 -5.5 -37.5t-20.5 -20.5q-30 -20 -68 -20q-26 0 -63 10t-54 10q-21 0 -44 -8t-26 -8q-10 0 -13.5 8t-3.5 36z" />
    <glyph glyph-name="odieresis" unicode="&#xf6;" horiz-adv-x="506" 
d="M245 -10q-81 0 -123 19.5t-62 74t-20 159.5q0 108 23 164.5t68 76t130 19.5q61 0 97 -9.5t62 -37t36 -76t10 -127.5q0 -108 -23 -165t-68.5 -77.5t-129.5 -20.5zM249 100q53 0 68 27t15 118q0 97 -14 123t-62 26q-53 0 -68 -26t-15 -117q0 -97 14 -124t62 -27zM165 546
q-43 0 -55 9t-12 39v14q0 31 12 40t55 9t55 -9t12 -40v-14q0 -30 -12 -39t-55 -9zM342 546q-43 0 -55.5 9t-12.5 39v14q0 31 12 40t56 9q43 0 55 -9t12 -40v-14q0 -30 -12 -39t-55 -9z" />
    <glyph glyph-name="divide" unicode="&#xf7;" 
d="M75 269q0 34 6 42t28 8h249q22 0 27.5 -8t5.5 -42q0 -35 -5.5 -43t-27.5 -8h-249q-22 0 -28 8t-6 43zM235 364q-33 0 -42.5 7t-9.5 30v33q0 23 9.5 30t42.5 7q34 0 43.5 -7t9.5 -30v-33q0 -23 -9.5 -30t-43.5 -7zM235 55q-33 0 -42.5 7t-9.5 30v32q0 23 9.5 30t42.5 7
q34 0 43.5 -7t9.5 -30v-32q0 -23 -9.5 -30t-43.5 -7z" />
    <glyph glyph-name="oslash" unicode="&#xf8;" horiz-adv-x="506" 
d="M245 -10q-81 0 -123 19.5t-62 74t-20 159.5q0 108 23 164.5t68 76t130 19.5q61 0 97 -9.5t62 -37t36 -76t10 -127.5q0 -108 -23 -165t-68.5 -77.5t-129.5 -20.5zM249 100q53 0 68 27t15 118v32l-150 -138q8 -23 23 -31t44 -8zM173 251v-34l149 140q-7 22 -22 29.5
t-44 7.5q-53 0 -68 -26t-15 -117z" />
    <glyph glyph-name="ugrave" unicode="&#xf9;" horiz-adv-x="509" 
d="M182 -10q-75 0 -105.5 30t-30.5 104v332q0 24 13 30.5t53 6.5t53 -6.5t13 -30.5v-299q0 -33 11 -43.5t44 -10.5q51 0 71 35.5t20 123.5v194q0 24 13 30.5t53 6.5t53 -6.5t13 -30.5v-240q0 -54 5 -95t10 -62.5t5 -28.5q0 -16 -12.5 -23t-48.5 -7q-34 0 -44.5 5.5
t-16.5 27.5l-12 46q-41 -89 -160 -89zM270 539q-35 0 -48 5.5t-23 24.5l-39 70q-18 34 -18 49q0 13 13.5 19t53.5 6q41 0 54 -6.5t22 -31.5l23 -63q15 -41 15 -50q0 -23 -53 -23z" />
    <glyph glyph-name="uacute" unicode="&#xfa;" horiz-adv-x="509" 
d="M182 -10q-75 0 -105.5 30t-30.5 104v332q0 24 13 30.5t53 6.5t53 -6.5t13 -30.5v-299q0 -33 11 -43.5t44 -10.5q51 0 71 35.5t20 123.5v194q0 24 13 30.5t53 6.5t53 -6.5t13 -30.5v-240q0 -54 5 -95t10 -62.5t5 -28.5q0 -16 -12.5 -23t-48.5 -7q-34 0 -44.5 5.5
t-16.5 27.5l-12 46q-41 -89 -160 -89zM233 539q-53 0 -53 23q0 11 15 50l23 63q9 25 22 31.5t54 6.5q40 0 53.5 -6t13.5 -19q0 -16 -18 -49l-39 -70q-11 -20 -22.5 -25t-48.5 -5z" />
    <glyph glyph-name="ucircumflex" unicode="&#xfb;" horiz-adv-x="509" 
d="M182 -10q-75 0 -105.5 30t-30.5 104v332q0 24 13 30.5t53 6.5t53 -6.5t13 -30.5v-299q0 -33 11 -43.5t44 -10.5q51 0 71 35.5t20 123.5v194q0 24 13 30.5t53 6.5t53 -6.5t13 -30.5v-240q0 -54 5 -95t10 -62.5t5 -28.5q0 -16 -12.5 -23t-48.5 -7q-34 0 -44.5 5.5
t-16.5 27.5l-12 46q-41 -89 -160 -89zM255 620h-6l-35 -52q-13 -19 -25 -24t-44 -5q-42 0 -42 23q0 10 15 37l50 87q8 15 19.5 21t37.5 6h55q25 0 36.5 -6t19.5 -21l50 -87q15 -25 15 -37q0 -23 -42 -23q-32 0 -43.5 5t-24.5 24z" />
    <glyph glyph-name="udieresis" unicode="&#xfc;" horiz-adv-x="509" 
d="M182 -10q-75 0 -105.5 30t-30.5 104v332q0 24 13 30.5t53 6.5t53 -6.5t13 -30.5v-299q0 -33 11 -43.5t44 -10.5q51 0 71 35.5t20 123.5v194q0 24 13 30.5t53 6.5t53 -6.5t13 -30.5v-240q0 -54 5 -95t10 -62.5t5 -28.5q0 -16 -12.5 -23t-48.5 -7q-34 0 -44.5 5.5
t-16.5 27.5l-12 46q-41 -89 -160 -89zM164 546q-43 0 -55 9t-12 39v14q0 31 12 40t55 9t55 -9t12 -40v-14q0 -30 -12 -39t-55 -9zM341 546q-43 0 -55.5 9t-12.5 39v14q0 31 12 40t56 9q43 0 55 -9t12 -40v-14q0 -30 -12 -39t-55 -9z" />
    <glyph glyph-name="yacute" unicode="&#xfd;" horiz-adv-x="479" 
d="M16 461q0 16 13 24t56 8q41 0 54 -6t17 -27l74 -351h13l80 351q4 21 17 27t53 6q43 0 56.5 -7t13.5 -24q0 -22 -18 -85l-116 -407q-29 -100 -62.5 -133.5t-116.5 -33.5q-63 0 -105 15q-15 6 -21 16.5t-6 37.5q0 53 23 53q1 0 32 -4.5t63 -4.5q40 0 54.5 10t20.5 40l7 34
q-52 0 -70 11.5t-27 43.5l-85 311q-20 76 -20 95zM223 539q-53 0 -53 23q0 11 15 50l23 63q9 25 22 31.5t54 6.5q40 0 53.5 -6t13.5 -19q0 -16 -18 -49l-39 -70q-11 -20 -22.5 -25t-48.5 -5z" />
    <glyph glyph-name="thorn" unicode="&#xfe;" horiz-adv-x="526" 
d="M187 620v-169q43 52 135 52q97 0 130.5 -49.5t33.5 -196.5q0 -111 -20 -170t-56.5 -78t-103.5 -19q-92 0 -119 51v-191q0 -23 -13 -30t-52 -7q-40 0 -53 7t-13 30v770q0 23 13 30t53 7q39 0 52 -7t13 -30zM271 100q35 0 50.5 10t23 42t7.5 101q0 92 -14 116.5t-62 24.5
q-49 0 -70 -26t-21 -104v-40q0 -75 17.5 -99.5t68.5 -24.5z" />
    <glyph glyph-name="ydieresis" unicode="&#xff;" horiz-adv-x="479" 
d="M16 461q0 16 13 24t56 8q41 0 54 -6t17 -27l74 -351h13l80 351q4 21 17 27t53 6q43 0 56.5 -7t13.5 -24q0 -22 -18 -85l-116 -407q-29 -100 -62.5 -133.5t-116.5 -33.5q-63 0 -105 15q-15 6 -21 16.5t-6 37.5q0 53 23 53q1 0 32 -4.5t63 -4.5q40 0 54.5 10t20.5 40l7 34
q-52 0 -70 11.5t-27 43.5l-85 311q-20 76 -20 95zM152 546q-43 0 -55 9t-12 39v14q0 31 12 40t55 9t55 -9t12 -40v-14q0 -30 -12 -39t-55 -9zM329 546q-43 0 -55.5 9t-12.5 39v14q0 31 12 40t56 9q43 0 55 -9t12 -40v-14q0 -30 -12 -39t-55 -9z" />
    <glyph glyph-name="Amacron" unicode="&#x100;" horiz-adv-x="539" 
d="M76 0q-40 0 -51.5 6.5t-11.5 23.5q0 8 7 40l126 493q10 40 32.5 50.5t90.5 10.5q69 0 91.5 -10.5t32.5 -50.5l126 -493q7 -32 7 -40q0 -17 -12 -23.5t-51 -6.5q-43 0 -56 7t-19 31l-31 121h-178l-28 -121q-5 -24 -18.5 -31t-56.5 -7zM263 514l-60 -255h133l-60 255h-13z
M151 736q0 34 6 44t28 10h169q21 0 27 -10t6 -44t-6 -44t-27 -10h-169q-22 0 -28 10t-6 44z" />
    <glyph glyph-name="amacron" unicode="&#x101;" horiz-adv-x="486" 
d="M159 -10q-67 0 -98 35t-31 113q0 81 42.5 116t150.5 35h78v37q0 44 -15.5 55t-61.5 11q-42 0 -90 -7.5t-53 -7.5q-23 0 -23 53q0 27 5.5 38t21.5 16q59 19 157 19q104 0 146.5 -27.5t42.5 -114.5v-145q0 -54 4.5 -95t9.5 -62.5t5 -28.5q0 -16 -12 -23t-49 -7
q-33 0 -44 5.5t-17 27.5l-14 51q-38 -94 -155 -94zM207 94q40 0 67 23t27 73v23l-77 -3q-41 -2 -55.5 -13.5t-14.5 -44.5q0 -35 12 -46.5t41 -11.5zM121 607q0 34 6 44t28 10h169q21 0 27 -10t6 -44t-6 -44t-27 -10h-169q-22 0 -28 10t-6 44z" />
    <glyph glyph-name="Abreve" unicode="&#x102;" horiz-adv-x="539" 
d="M76 0q-40 0 -51.5 6.5t-11.5 23.5q0 8 7 40l126 493q10 40 32.5 50.5t90.5 10.5q69 0 91.5 -10.5t32.5 -50.5l126 -493q7 -32 7 -40q0 -17 -12 -23.5t-51 -6.5q-43 0 -56 7t-19 31l-31 121h-178l-28 -121q-5 -24 -18.5 -31t-56.5 -7zM263 514l-60 -255h133l-60 255h-13z
M269 670q-74 0 -103.5 26t-29.5 94q0 24 8.5 30.5t36.5 6.5t35.5 -5t9.5 -23q2 -20 9 -26.5t34 -6.5t34 6.5t9 26.5q2 18 9.5 23t35.5 5t36.5 -6.5t8.5 -30.5q0 -68 -29.5 -94t-103.5 -26z" />
    <glyph glyph-name="abreve" unicode="&#x103;" horiz-adv-x="486" 
d="M159 -10q-67 0 -98 35t-31 113q0 81 42.5 116t150.5 35h78v37q0 44 -15.5 55t-61.5 11q-42 0 -90 -7.5t-53 -7.5q-23 0 -23 53q0 27 5.5 38t21.5 16q59 19 157 19q104 0 146.5 -27.5t42.5 -114.5v-145q0 -54 4.5 -95t9.5 -62.5t5 -28.5q0 -16 -12 -23t-49 -7
q-33 0 -44 5.5t-17 27.5l-14 51q-38 -94 -155 -94zM207 94q40 0 67 23t27 73v23l-77 -3q-41 -2 -55.5 -13.5t-14.5 -44.5q0 -35 12 -46.5t41 -11.5zM241 545q-74 0 -103.5 26t-29.5 94q0 24 8.5 30.5t36.5 6.5t35.5 -5t9.5 -23q2 -20 9 -26.5t34 -6.5t34 6.5t9 26.5
q2 18 9.5 23t35.5 5t36.5 -6.5t8.5 -30.5q0 -68 -29.5 -94t-103.5 -26z" />
    <glyph glyph-name="Aogonek" unicode="&#x104;" horiz-adv-x="539" 
d="M422 -197q-41 0 -61.5 17t-20.5 60q0 62 69 125q-13 5 -21 33l-31 121h-178l-28 -121q-5 -24 -18.5 -31t-56.5 -7q-40 0 -51.5 6.5t-11.5 23.5q0 8 7 40l126 493q10 40 32.5 50.5t90.5 10.5q69 0 91.5 -10.5t32.5 -50.5l126 -493q7 -29 7 -43q-2 -21 -27 -46
q-39 -40 -39 -59q0 -17 14 -17q6 0 14.5 1.5t13.5 1.5q13 0 18.5 -8.5t5.5 -34.5q0 -27 -6.5 -36t-24.5 -15q-33 -11 -73 -11zM263 514l-60 -255h133l-60 255h-13z" />
    <glyph glyph-name="aogonek" unicode="&#x105;" horiz-adv-x="486" 
d="M352 -197q-41 0 -61.5 17t-20.5 60q0 36 16.5 65.5t53.5 63.5q-7 6 -12 24l-14 51q-38 -94 -155 -94q-67 0 -98 35t-31 113q0 81 42.5 116t150.5 35h78v37q0 44 -15.5 55t-61.5 11q-42 0 -90 -7.5t-53 -7.5q-23 0 -23 53q0 27 5.5 38t21.5 16q59 19 157 19
q104 0 146.5 -27.5t42.5 -114.5v-145q0 -54 4.5 -95t9.5 -62.5t5 -28.5q0 -19 -23 -45q-37 -44 -37 -63q0 -17 13 -17q6 0 15 1.5t14 1.5q12 0 17.5 -8.5t5.5 -34.5q0 -27 -6.5 -36t-24.5 -15q-31 -11 -72 -11zM207 94q40 0 67 23t27 73v23q-29 0 -77 -2q-41 -1 -55.5 -13.5
t-14.5 -45.5q0 -35 12 -46.5t41 -11.5z" />
    <glyph glyph-name="Cacute" unicode="&#x106;" horiz-adv-x="453" 
d="M254 -7q-52 0 -86 8t-66.5 33.5t-48 80.5t-15.5 141v93q0 76 12 129t30.5 82t49.5 45t58.5 20t68.5 4q75 0 146 -19q13 -4 18.5 -15t5.5 -45q0 -52 -19 -52q-2 0 -42 7t-77 7t-56.5 -4.5t-35.5 -22.5t-21.5 -51.5t-5.5 -92.5v-58q0 -62 5 -96.5t21.5 -51.5t35 -21
t57.5 -4t77 7t42 7q11 0 15 -10.5t4 -41.5q0 -33 -5.5 -44.5t-18.5 -15.5q-71 -19 -149 -19zM230 668q-53 0 -53 23q0 11 15 50l23 63q9 25 22 31.5t54 6.5q40 0 53.5 -6t13.5 -19q0 -16 -18 -49l-39 -70q-11 -20 -22.5 -25t-48.5 -5z" />
    <glyph glyph-name="cacute" unicode="&#x107;" horiz-adv-x="431" 
d="M250 -10q-55 0 -89.5 8.5t-64.5 34t-43 77t-13 133.5q0 85 13 138t41.5 79t62 34.5t87.5 8.5q70 0 130 -18q15 -5 21 -16t6 -39q0 -53 -22 -53q-3 0 -46.5 7t-69.5 7q-39 0 -56 -7.5t-27 -36.5t-10 -92q0 -71 7 -101t25.5 -40.5t63.5 -10.5q38 0 76 7l38 8q22 0 22 -53
q0 -28 -6 -39t-21 -16q-57 -20 -125 -20zM209 539q-53 0 -53 23q0 11 15 50l23 63q9 25 22 31.5t54 6.5q40 0 53.5 -6t13.5 -19q0 -16 -18 -49l-39 -70q-11 -20 -22.5 -25t-48.5 -5z" />
    <glyph glyph-name="Ccircumflex" unicode="&#x108;" horiz-adv-x="453" 
d="M254 -7q-52 0 -86 8t-66.5 33.5t-48 80.5t-15.5 141v93q0 76 12 129t30.5 82t49.5 45t58.5 20t68.5 4q75 0 146 -19q13 -4 18.5 -15t5.5 -45q0 -52 -19 -52q-2 0 -42 7t-77 7t-56.5 -4.5t-35.5 -22.5t-21.5 -51.5t-5.5 -92.5v-58q0 -62 5 -96.5t21.5 -51.5t35 -21
t57.5 -4t77 7t42 7q11 0 15 -10.5t4 -41.5q0 -33 -5.5 -44.5t-18.5 -15.5q-71 -19 -149 -19zM250 749h-6l-35 -52q-13 -19 -25 -24t-44 -5q-42 0 -42 23q0 10 15 37l50 87q8 15 19.5 21t37.5 6h55q25 0 36.5 -6t19.5 -21l50 -87q15 -25 15 -37q0 -23 -42 -23q-32 0 -43.5 5
t-24.5 24z" />
    <glyph glyph-name="ccircumflex" unicode="&#x109;" horiz-adv-x="431" 
d="M250 -10q-55 0 -89.5 8.5t-64.5 34t-43 77t-13 133.5q0 85 13 138t41.5 79t62 34.5t87.5 8.5q70 0 130 -18q15 -5 21 -16t6 -39q0 -53 -22 -53q-3 0 -46.5 7t-69.5 7q-39 0 -56 -7.5t-27 -36.5t-10 -92q0 -71 7 -101t25.5 -40.5t63.5 -10.5q38 0 76 7l38 8q22 0 22 -53
q0 -28 -6 -39t-21 -16q-57 -20 -125 -20zM239 620h-6l-35 -52q-13 -19 -25 -24t-44 -5q-42 0 -42 23q0 10 15 37l50 87q8 15 19.5 21t37.5 6h55q25 0 36.5 -6t19.5 -21l50 -87q15 -25 15 -37q0 -23 -42 -23q-32 0 -43.5 5t-24.5 24z" />
    <glyph glyph-name="Cdotaccent" unicode="&#x10a;" horiz-adv-x="453" 
d="M254 -7q-52 0 -86 8t-66.5 33.5t-48 80.5t-15.5 141v93q0 76 12 129t30.5 82t49.5 45t58.5 20t68.5 4q75 0 146 -19q13 -4 18.5 -15t5.5 -45q0 -52 -19 -52q-2 0 -42 7t-77 7t-56.5 -4.5t-35.5 -22.5t-21.5 -51.5t-5.5 -92.5v-58q0 -62 5 -96.5t21.5 -51.5t35 -21
t57.5 -4t77 7t42 7q11 0 15 -10.5t4 -41.5q0 -33 -5.5 -44.5t-18.5 -15.5q-71 -19 -149 -19zM247 675q-47 0 -59 9t-12 39v14q0 31 12 40t59 9t59 -9t12 -40v-14q0 -30 -12 -39t-59 -9z" />
    <glyph glyph-name="cdotaccent" unicode="&#x10b;" horiz-adv-x="431" 
d="M250 -10q-55 0 -89.5 8.5t-64.5 34t-43 77t-13 133.5q0 85 13 138t41.5 79t62 34.5t87.5 8.5q70 0 130 -18q15 -5 21 -16t6 -39q0 -53 -22 -53q-3 0 -46.5 7t-69.5 7q-39 0 -56 -7.5t-27 -36.5t-10 -92q0 -71 7 -101t25.5 -40.5t63.5 -10.5q38 0 76 7l38 8q22 0 22 -53
q0 -28 -6 -39t-21 -16q-57 -20 -125 -20zM236 546q-47 0 -59 9t-12 39v14q0 31 12 40t59 9t59 -9t12 -40v-14q0 -30 -12 -39t-59 -9z" />
    <glyph glyph-name="Ccaron" unicode="&#x10c;" horiz-adv-x="453" 
d="M254 -7q-52 0 -86 8t-66.5 33.5t-48 80.5t-15.5 141v93q0 76 12 129t30.5 82t49.5 45t58.5 20t68.5 4q75 0 146 -19q13 -4 18.5 -15t5.5 -45q0 -52 -19 -52q-2 0 -42 7t-77 7t-56.5 -4.5t-35.5 -22.5t-21.5 -51.5t-5.5 -92.5v-58q0 -62 5 -96.5t21.5 -51.5t35 -21
t57.5 -4t77 7t42 7q11 0 15 -10.5t4 -41.5q0 -33 -5.5 -44.5t-18.5 -15.5q-71 -19 -149 -19zM85 819q0 12 8.5 17.5t33.5 5.5q34 0 44.5 -5t23.5 -24l36 -53h6l35 53q13 19 23.5 24t45.5 5q25 0 33.5 -5.5t8.5 -17.5q0 -10 -15 -37l-50 -88q-8 -14 -19 -20t-37 -6h-55
q-26 0 -37.5 5.5t-19.5 20.5l-50 88q-15 26 -15 37z" />
    <glyph glyph-name="ccaron" unicode="&#x10d;" horiz-adv-x="431" 
d="M250 -10q-55 0 -89.5 8.5t-64.5 34t-43 77t-13 133.5q0 85 13 138t41.5 79t62 34.5t87.5 8.5q70 0 130 -18q15 -5 21 -16t6 -39q0 -53 -22 -53q-3 0 -46.5 7t-69.5 7q-39 0 -56 -7.5t-27 -36.5t-10 -92q0 -71 7 -101t25.5 -40.5t63.5 -10.5q38 0 76 7l38 8q22 0 22 -53
q0 -28 -6 -39t-21 -16q-57 -20 -125 -20zM87 690q0 12 8.5 17.5t33.5 5.5q34 0 44.5 -5t23.5 -24l36 -53h6l35 53q13 19 23.5 24t45.5 5q25 0 33.5 -5.5t8.5 -17.5q0 -10 -15 -37l-50 -88q-8 -14 -19 -20t-37 -6h-55q-26 0 -37.5 5.5t-19.5 20.5l-50 88q-15 26 -15 37z" />
    <glyph glyph-name="Dcaron" unicode="&#x10e;" horiz-adv-x="530" 
d="M248 108q49 0 70.5 10.5t32 47t10.5 117.5v76q0 100 -24.5 130.5t-97.5 30.5q-30 0 -58 -4v-404q36 -4 67 -4zM248 -7q-89 0 -162 8q-23 2 -29.5 10t-6.5 29v539q0 23 8 31.5t28 10.5q58 8 147 8q40 0 66.5 -2t56 -8t48.5 -17.5t37.5 -31t28.5 -47.5t16 -68t6 -92v-80
q0 -79 -13 -134t-32 -85t-53.5 -46.5t-65.5 -20.5t-80 -4zM110 819q0 12 8.5 17.5t33.5 5.5q34 0 44.5 -5t23.5 -24l36 -53h6l35 53q13 19 23.5 24t45.5 5q25 0 33.5 -5.5t8.5 -17.5q0 -10 -15 -37l-50 -88q-8 -14 -19 -20t-37 -6h-55q-26 0 -37.5 5.5t-19.5 20.5l-50 88
q-15 26 -15 37z" />
    <glyph glyph-name="dcaron" unicode="&#x10f;" horiz-adv-x="672" 
d="M203 -10q-97 0 -130 49.5t-33 196.5q0 112 20 170.5t56.5 77.5t103.5 19q91 0 118 -54v171q0 23 13.5 30t52.5 7t52.5 -7t13.5 -30v-404q0 -54 5 -95t9.5 -62.5t4.5 -28.5q0 -16 -12 -23t-48 -7q-34 0 -44.5 5.5t-16.5 27.5l-12 43q-35 -86 -153 -86zM250 100
q50 0 70.5 25t20.5 100v45q0 75 -17.5 99.5t-69.5 24.5q-50 0 -65.5 -27t-15.5 -127q0 -91 14.5 -115.5t62.5 -24.5zM592 657q42 0 54.5 -9t12.5 -39v-27q0 -43 -19 -97l-13 -39q-12 -35 -25.5 -44t-49.5 -9q-23 0 -31 5.5t-8 17.5q0 8 6.5 54.5t6.5 71.5v67q0 30 12 39
t54 9z" />
    <glyph glyph-name="Dcroat" unicode="&#x110;" horiz-adv-x="530" 
d="M248 -7q-89 0 -162 8q-23 2 -29.5 10t-6.5 29v217h-19q-21 0 -27 11t-6 47t6 46.5t27 10.5h19v207q0 23 8 31.5t28 10.5q58 8 147 8q40 0 66.5 -2t56 -8t48.5 -17.5t37.5 -31t28.5 -47.5t16 -68t6 -92v-80q0 -79 -13 -134t-32 -85t-53.5 -46.5t-65.5 -20.5t-80 -4z
M248 108q49 0 70.5 10.5t32 47t10.5 117.5v76q0 100 -24.5 130.5t-97.5 30.5q-30 0 -58 -4v-147h47q22 0 28 -10t6 -44t-6 -44.5t-28 -10.5h-47v-148q36 -4 67 -4z" />
    <glyph glyph-name="dcroat" unicode="&#x111;" horiz-adv-x="522" 
d="M203 -10q-97 0 -130 49.5t-33 196.5q0 112 20 170.5t56.5 77.5t103.5 19q91 0 118 -54v73h-24q-18 0 -23.5 6.5t-5.5 28.5q0 23 5.5 30t23.5 7h24v26q0 23 13.5 30t52.5 7t52.5 -7t13.5 -30v-26h33q18 0 23.5 -7.5t5.5 -30.5t-5.5 -30.5t-23.5 -7.5h-33v-302q0 -54 5 -95
t9.5 -62.5t4.5 -28.5q0 -16 -12 -23t-48 -7q-34 0 -44.5 5.5t-16.5 27.5l-12 43q-35 -86 -153 -86zM250 100q50 0 70.5 25t20.5 100v45q0 75 -17.5 99.5t-69.5 24.5q-50 0 -65.5 -27t-15.5 -127q0 -91 14.5 -115.5t62.5 -24.5z" />
    <glyph glyph-name="Emacron" unicode="&#x112;" horiz-adv-x="455" 
d="M434 58q0 -34 -7.5 -46t-26.5 -12h-312q-22 0 -30 6.5t-8 27.5v556q0 21 8 27.5t30 6.5h302q19 0 26.5 -12t7.5 -46q0 -35 -7.5 -46.5t-26.5 -11.5h-209v-125h145q22 0 28 -10.5t6 -46.5t-6 -46.5t-28 -10.5h-145v-153h219q19 0 26.5 -12t7.5 -46zM123 736q0 34 6 44
t28 10h169q21 0 27 -10t6 -44t-6 -44t-27 -10h-169q-22 0 -28 10t-6 44z" />
    <glyph glyph-name="emacron" unicode="&#x113;" horiz-adv-x="479" 
d="M260 -10q-59 0 -95.5 8.5t-67 34t-44 77t-13.5 133.5q0 85 12.5 138t42 79t64 34.5t92.5 8.5q62 0 100 -13t58.5 -44t27 -71t6.5 -105q0 -31 -10 -45t-39 -14h-224q3 -70 21.5 -89t77.5 -19q34 0 67 3.5t53 7.5t24 4q22 0 22 -53q0 -28 -6 -39t-21 -16q-58 -20 -148 -20z
M249 394q-45 0 -60.5 -18t-18.5 -85h149q0 62 -12 82.5t-58 20.5zM125 607q0 34 6 44t28 10h169q21 0 27 -10t6 -44t-6 -44t-27 -10h-169q-22 0 -28 10t-6 44z" />
    <glyph glyph-name="Ebreve" unicode="&#x114;" horiz-adv-x="455" 
d="M434 58q0 -34 -7.5 -46t-26.5 -12h-312q-22 0 -30 6.5t-8 27.5v556q0 21 8 27.5t30 6.5h302q19 0 26.5 -12t7.5 -46q0 -35 -7.5 -46.5t-26.5 -11.5h-209v-125h145q22 0 28 -10.5t6 -46.5t-6 -46.5t-28 -10.5h-145v-153h219q19 0 26.5 -12t7.5 -46zM241 673
q-74 0 -103.5 26t-29.5 94q0 24 8.5 30.5t36.5 6.5t35.5 -5t9.5 -23q2 -20 9 -26.5t34 -6.5t34 6.5t9 26.5q2 18 9.5 23t35.5 5t36.5 -6.5t8.5 -30.5q0 -68 -29.5 -94t-103.5 -26z" />
    <glyph glyph-name="ebreve" unicode="&#x115;" horiz-adv-x="479" 
d="M260 -10q-59 0 -95.5 8.5t-67 34t-44 77t-13.5 133.5q0 85 12.5 138t42 79t64 34.5t92.5 8.5q62 0 100 -13t58.5 -44t27 -71t6.5 -105q0 -31 -10 -45t-39 -14h-224q3 -70 21.5 -89t77.5 -19q34 0 67 3.5t53 7.5t24 4q22 0 22 -53q0 -28 -6 -39t-21 -16q-58 -20 -148 -20z
M249 394q-45 0 -60.5 -18t-18.5 -85h149q0 62 -12 82.5t-58 20.5zM243 545q-74 0 -103.5 26t-29.5 94q0 24 8.5 30.5t36.5 6.5t35.5 -5t9.5 -23q2 -20 9 -26.5t34 -6.5t34 6.5t9 26.5q2 18 9.5 23t35.5 5t36.5 -6.5t8.5 -30.5q0 -68 -29.5 -94t-103.5 -26z" />
    <glyph glyph-name="Edotaccent" unicode="&#x116;" horiz-adv-x="455" 
d="M434 58q0 -34 -7.5 -46t-26.5 -12h-312q-22 0 -30 6.5t-8 27.5v556q0 21 8 27.5t30 6.5h302q19 0 26.5 -12t7.5 -46q0 -35 -7.5 -46.5t-26.5 -11.5h-209v-125h145q22 0 28 -10.5t6 -46.5t-6 -46.5t-28 -10.5h-145v-153h219q19 0 26.5 -12t7.5 -46zM241 678q-47 0 -59 9
t-12 39v14q0 31 12 40t59 9t59 -9t12 -40v-14q0 -30 -12 -39t-59 -9z" />
    <glyph glyph-name="edotaccent" unicode="&#x117;" horiz-adv-x="479" 
d="M260 -10q-59 0 -95.5 8.5t-67 34t-44 77t-13.5 133.5q0 85 12.5 138t42 79t64 34.5t92.5 8.5q62 0 100 -13t58.5 -44t27 -71t6.5 -105q0 -31 -10 -45t-39 -14h-224q3 -70 21.5 -89t77.5 -19q34 0 67 3.5t53 7.5t24 4q22 0 22 -53q0 -28 -6 -39t-21 -16q-58 -20 -148 -20z
M249 394q-45 0 -60.5 -18t-18.5 -85h149q0 62 -12 82.5t-58 20.5zM243 546q-47 0 -59 9t-12 39v14q0 31 12 40t59 9t59 -9t12 -40v-14q0 -30 -12 -39t-59 -9z" />
    <glyph glyph-name="Eogonek" unicode="&#x118;" horiz-adv-x="455" 
d="M360 326q0 -36 -6 -46.5t-28 -10.5h-145v-153h219q19 0 26.5 -12t7.5 -46q0 -27 -5 -43t-23 -35q-38 -41 -38 -58t14 -17q6 0 14.5 1.5t13.5 1.5q13 0 18.5 -8.5t5.5 -34.5q0 -27 -6.5 -36t-24.5 -15q-33 -11 -73 -11q-41 0 -61.5 17t-20.5 60q0 59 64 120h-224
q-22 0 -30 6.5t-8 27.5v556q0 21 8 27.5t30 6.5h302q19 0 26.5 -12t7.5 -46q0 -35 -7.5 -46.5t-26.5 -11.5h-209v-125h145q22 0 28 -10.5t6 -46.5z" />
    <glyph glyph-name="eogonek" unicode="&#x119;" horiz-adv-x="479" 
d="M331 -197q-41 0 -61.5 17t-20.5 60q0 57 52 112q-28 -2 -41 -2q-59 0 -95.5 8.5t-67 34t-44 77t-13.5 133.5q0 85 12.5 138t42 79t64 34.5t92.5 8.5q62 0 100 -13t58.5 -44t27 -71t6.5 -105q0 -31 -10 -45t-39 -14h-224q3 -70 21.5 -89t77.5 -19q34 0 67 3.5t53 7.5t24 4
q22 0 22 -53q0 -27 -7 -42.5t-28 -42.5q-31 -40 -31 -58q0 -17 14 -17q6 0 14.5 1.5t13.5 1.5q13 0 18.5 -8.5t5.5 -34.5q0 -27 -6.5 -36t-24.5 -15q-33 -11 -73 -11zM249 394q-45 0 -60.5 -18t-18.5 -85h149q0 62 -12 82.5t-58 20.5z" />
    <glyph glyph-name="Ecaron" unicode="&#x11a;" horiz-adv-x="455" 
d="M434 58q0 -34 -7.5 -46t-26.5 -12h-312q-22 0 -30 6.5t-8 27.5v556q0 21 8 27.5t30 6.5h302q19 0 26.5 -12t7.5 -46q0 -35 -7.5 -46.5t-26.5 -11.5h-209v-125h145q22 0 28 -10.5t6 -46.5t-6 -46.5t-28 -10.5h-145v-153h219q19 0 26.5 -12t7.5 -46zM92 819q0 12 8.5 17.5
t33.5 5.5q34 0 44.5 -5t23.5 -24l36 -53h6l35 53q13 19 23.5 24t45.5 5q25 0 33.5 -5.5t8.5 -17.5q0 -10 -15 -37l-50 -88q-8 -14 -19 -20t-37 -6h-55q-26 0 -37.5 5.5t-19.5 20.5l-50 88q-15 26 -15 37z" />
    <glyph glyph-name="ecaron" unicode="&#x11b;" horiz-adv-x="479" 
d="M260 -10q-59 0 -95.5 8.5t-67 34t-44 77t-13.5 133.5q0 85 12.5 138t42 79t64 34.5t92.5 8.5q62 0 100 -13t58.5 -44t27 -71t6.5 -105q0 -31 -10 -45t-39 -14h-224q3 -70 21.5 -89t77.5 -19q34 0 67 3.5t53 7.5t24 4q22 0 22 -53q0 -28 -6 -39t-21 -16q-58 -20 -148 -20z
M249 394q-45 0 -60.5 -18t-18.5 -85h149q0 62 -12 82.5t-58 20.5zM94 690q0 12 8.5 17.5t33.5 5.5q34 0 44.5 -5t23.5 -24l36 -53h6l35 53q13 19 23.5 24t45.5 5q25 0 33.5 -5.5t8.5 -17.5q0 -10 -15 -37l-50 -88q-8 -14 -19 -20t-37 -6h-55q-26 0 -37.5 5.5t-19.5 20.5
l-50 88q-15 26 -15 37z" />
    <glyph glyph-name="Gcircumflex" unicode="&#x11c;" horiz-adv-x="499" 
d="M256 -7q-42 0 -71 4.5t-59.5 19.5t-48.5 43t-29.5 77t-11.5 119v93q0 76 12.5 129t30.5 82t50 45t60 20t71 4q84 0 155 -19q13 -4 18.5 -15t5.5 -45q0 -52 -19 -52q-2 0 -49 7t-84 7q-49 0 -71.5 -10t-35 -47t-12.5 -114v-58q0 -60 5.5 -96t20.5 -52.5t30 -20.5t44 -4
q41 0 60 14.5t19 56.5v64h-59q-16 0 -21.5 11.5t-5.5 46.5q0 30 5.5 40.5t21.5 10.5h130q27 0 35 -8t8 -26v-171q0 -83 -48.5 -119.5t-156.5 -36.5zM245 749h-6l-35 -52q-13 -19 -25 -24t-44 -5q-42 0 -42 23q0 10 15 37l50 87q8 15 19.5 21t37.5 6h55q25 0 36.5 -6
t19.5 -21l50 -87q15 -25 15 -37q0 -23 -42 -23q-32 0 -43.5 5t-24.5 24z" />
    <glyph glyph-name="gcircumflex" unicode="&#x11d;" horiz-adv-x="520" 
d="M40 250q0 105 20.5 160.5t58 74t108.5 18.5q52 0 83.5 -16.5t46.5 -55.5l8 29q6 22 16.5 27.5t44.5 5.5q36 0 48.5 -7t12.5 -23q0 -7 -5 -28.5t-10 -62.5t-5 -95v-228q0 -77 -17 -127.5t-52 -75.5t-74.5 -34t-97.5 -9q-79 0 -142 15q-14 4 -20.5 16t-6.5 41q0 52 22 52
l47 -5q47 -6 88 -6q77 0 99 26.5t22 108.5q-35 -61 -140 -61q-63 0 -95 21.5t-46 76t-14 162.5zM173 240q0 -91 14.5 -115.5t62.5 -24.5q50 0 70.5 25t20.5 100v45q0 75 -17.5 99.5t-69.5 24.5q-50 0 -65.5 -27t-15.5 -127zM264 620h-6l-35 -52q-13 -19 -25 -24t-44 -5
q-42 0 -42 23q0 10 15 37l50 87q8 15 19.5 21t37.5 6h55q25 0 36.5 -6t19.5 -21l50 -87q15 -25 15 -37q0 -23 -42 -23q-32 0 -43.5 5t-24.5 24z" />
    <glyph glyph-name="Gbreve" unicode="&#x11e;" horiz-adv-x="499" 
d="M256 -7q-42 0 -71 4.5t-59.5 19.5t-48.5 43t-29.5 77t-11.5 119v93q0 76 12.5 129t30.5 82t50 45t60 20t71 4q84 0 155 -19q13 -4 18.5 -15t5.5 -45q0 -52 -19 -52q-2 0 -49 7t-84 7q-49 0 -71.5 -10t-35 -47t-12.5 -114v-58q0 -60 5.5 -96t20.5 -52.5t30 -20.5t44 -4
q41 0 60 14.5t19 56.5v64h-59q-16 0 -21.5 11.5t-5.5 46.5q0 30 5.5 40.5t21.5 10.5h130q27 0 35 -8t8 -26v-171q0 -83 -48.5 -119.5t-156.5 -36.5zM242 674q-74 0 -103.5 26t-29.5 94q0 24 8.5 30.5t36.5 6.5t35.5 -5t9.5 -23q2 -20 9 -26.5t34 -6.5t34 6.5t9 26.5
q2 18 9.5 23t35.5 5t36.5 -6.5t8.5 -30.5q0 -68 -29.5 -94t-103.5 -26z" />
    <glyph glyph-name="gbreve" unicode="&#x11f;" horiz-adv-x="520" 
d="M40 250q0 105 20.5 160.5t58 74t108.5 18.5q52 0 83.5 -16.5t46.5 -55.5l8 29q6 22 16.5 27.5t44.5 5.5q36 0 48.5 -7t12.5 -23q0 -7 -5 -28.5t-10 -62.5t-5 -95v-228q0 -77 -17 -127.5t-52 -75.5t-74.5 -34t-97.5 -9q-79 0 -142 15q-14 4 -20.5 16t-6.5 41q0 52 22 52
l47 -5q47 -6 88 -6q77 0 99 26.5t22 108.5q-35 -61 -140 -61q-63 0 -95 21.5t-46 76t-14 162.5zM173 240q0 -91 14.5 -115.5t62.5 -24.5q50 0 70.5 25t20.5 100v45q0 75 -17.5 99.5t-69.5 24.5q-50 0 -65.5 -27t-15.5 -127zM261 545q-74 0 -103.5 26t-29.5 94q0 24 8.5 30.5
t36.5 6.5t35.5 -5t9.5 -23q2 -20 9 -26.5t34 -6.5t34 6.5t9 26.5q2 18 9.5 23t35.5 5t36.5 -6.5t8.5 -30.5q0 -68 -29.5 -94t-103.5 -26z" />
    <glyph glyph-name="Gdotaccent" unicode="&#x120;" horiz-adv-x="499" 
d="M256 -7q-42 0 -71 4.5t-59.5 19.5t-48.5 43t-29.5 77t-11.5 119v93q0 76 12.5 129t30.5 82t50 45t60 20t71 4q84 0 155 -19q13 -4 18.5 -15t5.5 -45q0 -52 -19 -52q-2 0 -49 7t-84 7q-49 0 -71.5 -10t-35 -47t-12.5 -114v-58q0 -60 5.5 -96t20.5 -52.5t30 -20.5t44 -4
q41 0 60 14.5t19 56.5v64h-59q-16 0 -21.5 11.5t-5.5 46.5q0 30 5.5 40.5t21.5 10.5h130q27 0 35 -8t8 -26v-171q0 -83 -48.5 -119.5t-156.5 -36.5zM242 678q-47 0 -59 9t-12 39v14q0 31 12 40t59 9t59 -9t12 -40v-14q0 -30 -12 -39t-59 -9z" />
    <glyph glyph-name="gdotaccent" unicode="&#x121;" horiz-adv-x="520" 
d="M40 250q0 105 20.5 160.5t58 74t108.5 18.5q52 0 83.5 -16.5t46.5 -55.5l8 29q6 22 16.5 27.5t44.5 5.5q36 0 48.5 -7t12.5 -23q0 -7 -5 -28.5t-10 -62.5t-5 -95v-228q0 -77 -17 -127.5t-52 -75.5t-74.5 -34t-97.5 -9q-79 0 -142 15q-14 4 -20.5 16t-6.5 41q0 52 22 52
l47 -5q47 -6 88 -6q77 0 99 26.5t22 108.5q-35 -61 -140 -61q-63 0 -95 21.5t-46 76t-14 162.5zM173 240q0 -91 14.5 -115.5t62.5 -24.5q50 0 70.5 25t20.5 100v45q0 75 -17.5 99.5t-69.5 24.5q-50 0 -65.5 -27t-15.5 -127zM261 546q-47 0 -59 9t-12 39v14q0 31 12 40t59 9
t59 -9t12 -40v-14q0 -30 -12 -39t-59 -9z" />
    <glyph glyph-name="Gcommaaccent" unicode="&#x122;" horiz-adv-x="499" 
d="M256 -7q-42 0 -71 4.5t-59.5 19.5t-48.5 43t-29.5 77t-11.5 119v93q0 76 12.5 129t30.5 82t50 45t60 20t71 4q84 0 155 -19q13 -4 18.5 -15t5.5 -45q0 -52 -19 -52q-2 0 -49 7t-84 7q-49 0 -71.5 -10t-35 -47t-12.5 -114v-58q0 -60 5.5 -96t20.5 -52.5t30 -20.5t44 -4
q41 0 60 14.5t19 56.5v64h-59q-16 0 -21.5 11.5t-5.5 46.5q0 30 5.5 40.5t21.5 10.5h130q27 0 35 -8t8 -26v-171q0 -83 -48.5 -119.5t-156.5 -36.5zM220 -243q-23 0 -31 5.5t-8 17.5q0 8 5.5 51t5.5 73q0 31 12 40t54 9q39 0 52.5 -7.5t13.5 -29.5q0 -41 -14 -73l-24 -55
q-10 -19 -21.5 -25t-44.5 -6z" />
    <glyph glyph-name="gcommaaccent" unicode="&#x123;" horiz-adv-x="520" 
d="M40 250q0 105 20.5 160.5t58 74t108.5 18.5q52 0 83.5 -16.5t46.5 -55.5l8 29q6 22 16.5 27.5t44.5 5.5q36 0 48.5 -7t12.5 -23q0 -7 -5 -28.5t-10 -62.5t-5 -95v-228q0 -77 -17 -127.5t-52 -75.5t-74.5 -34t-97.5 -9q-79 0 -142 15q-14 4 -20.5 16t-6.5 41q0 52 22 52
l47 -5q47 -6 88 -6q77 0 99 26.5t22 108.5q-35 -61 -140 -61q-63 0 -95 21.5t-46 76t-14 162.5zM173 240q0 -91 14.5 -115.5t62.5 -24.5q50 0 70.5 25t20.5 100v45q0 75 -17.5 99.5t-69.5 24.5q-50 0 -65.5 -27t-15.5 -127zM305 728q23 0 31 -5.5t8 -17.5q0 -8 -5.5 -51
t-5.5 -73q0 -31 -12 -40t-54 -9q-39 0 -52.5 7.5t-13.5 29.5q0 41 14 73l24 55q10 19 21.5 25t44.5 6z" />
    <glyph glyph-name="Hcircumflex" unicode="&#x124;" horiz-adv-x="537" 
d="M181 371h174v216q0 23 13.5 30t52.5 7q40 0 53 -7t13 -30v-550q0 -23 -13 -30t-53 -7q-39 0 -52.5 7t-13.5 30v225h-174v-225q0 -23 -13 -30t-53 -7q-39 0 -52 7t-13 30v550q0 23 13 30t52 7q40 0 53 -7t13 -30v-216zM271 749h-6l-35 -52q-13 -19 -25 -24t-44 -5
q-42 0 -42 23q0 10 15 37l50 87q8 15 19.5 21t37.5 6h55q25 0 36.5 -6t19.5 -21l50 -87q15 -25 15 -37q0 -23 -42 -23q-32 0 -43.5 5t-24.5 24z" />
    <glyph glyph-name="hcircumflex" unicode="&#x125;" horiz-adv-x="507" 
d="M112 0q-40 0 -53 6.5t-13 30.5v583q0 23 13.5 30t52.5 7t52.5 -7t13.5 -30v-180q38 63 142 63q78 0 107.5 -32t29.5 -108v-326q0 -24 -13 -30.5t-52 -6.5q-40 0 -53 6.5t-13 30.5v294q0 34 -11.5 46.5t-43.5 12.5q-52 0 -72.5 -35.5t-20.5 -123.5v-194q0 -24 -13 -30.5
t-53 -6.5zM268 756h-6l-35 -52q-13 -19 -25 -24t-44 -5q-42 0 -42 23q0 10 15 37l50 87q8 15 19.5 21t37.5 6h55q25 0 36.5 -6t19.5 -21l50 -87q15 -25 15 -37q0 -23 -42 -23q-32 0 -43.5 5t-24.5 24z" />
    <glyph glyph-name="Hbar" unicode="&#x126;" horiz-adv-x="537" 
d="M4 490q0 30 5.5 38.5t24.5 8.5h16v50q0 23 13 30t52 7q40 0 53 -7t13 -30v-50h174v50q0 23 13.5 30t52.5 7q40 0 53 -7t13 -30v-50h15q18 0 23.5 -8.5t5.5 -38.5t-5.5 -38.5t-23.5 -8.5h-15v-406q0 -23 -13 -30t-53 -7q-39 0 -52.5 7t-13.5 30v225h-174v-225
q0 -23 -13 -30t-53 -7q-39 0 -52 7t-13 30v406h-16q-19 0 -24.5 8.5t-5.5 38.5zM181 371h174v72h-174v-72z" />
    <glyph glyph-name="hbar" unicode="&#x127;" horiz-adv-x="507" 
d="M112 0q-40 0 -53 6.5t-13 30.5v481h-27q-18 0 -23.5 7.5t-5.5 30.5t5.5 30.5t23.5 7.5h27v26q0 23 13.5 30t52.5 7t52.5 -7t13.5 -30v-26h33q18 0 23.5 -7t5.5 -30q0 -22 -5.5 -28.5t-23.5 -6.5h-33v-82q38 63 142 63q78 0 107.5 -32t29.5 -108v-326q0 -24 -13 -30.5
t-52 -6.5q-40 0 -53 6.5t-13 30.5v294q0 34 -11.5 46.5t-43.5 12.5q-52 0 -72.5 -35.5t-20.5 -123.5v-194q0 -24 -13 -30.5t-53 -6.5z" />
    <glyph glyph-name="Itilde" unicode="&#x128;" horiz-adv-x="231" 
d="M115 0q-39 0 -52 7t-13 30v550q0 23 13 30t52 7q40 0 53 -7t13 -30v-550q0 -23 -13 -30t-53 -7zM-33 721q0 26 5.5 37.5t20.5 21.5q33 19 68 19q26 0 62.5 -9.5t54.5 -9.5q21 0 43.5 7.5t26.5 7.5q10 0 13.5 -8t3.5 -36q0 -26 -5.5 -37.5t-20.5 -20.5q-30 -20 -68 -20
q-27 0 -63 10t-54 10q-22 0 -44 -8t-26 -8q-10 0 -13.5 8t-3.5 36z" />
    <glyph glyph-name="itilde" unicode="&#x129;" horiz-adv-x="229" 
d="M-35 600q0 26 5.5 37.5t20.5 21.5q33 19 68 19q26 0 62.5 -9.5t54.5 -9.5q21 0 43.5 7.5t26.5 7.5q10 0 13.5 -8t3.5 -36q0 -26 -5.5 -37.5t-20.5 -20.5q-30 -20 -68 -20q-27 0 -63 10t-54 10q-22 0 -44 -8t-26 -8q-10 0 -13.5 8t-3.5 36zM112 0q-40 0 -53 6.5t-13 30.5
v419q0 24 13 30.5t53 6.5t53 -6.5t13 -30.5v-419q0 -24 -13 -30.5t-53 -6.5z" />
    <glyph glyph-name="Imacron" unicode="&#x12a;" horiz-adv-x="231" 
d="M115 0q-39 0 -52 7t-13 30v550q0 23 13 30t52 7q40 0 53 -7t13 -30v-550q0 -23 -13 -30t-53 -7zM-3 736q0 34 6 44t28 10h169q21 0 27 -10t6 -44t-6 -44t-27 -10h-169q-22 0 -28 10t-6 44z" />
    <glyph glyph-name="imacron" unicode="&#x12b;" horiz-adv-x="229" 
d="M-5 607q0 34 6 44t28 10h169q21 0 27 -10t6 -44t-6 -44t-27 -10h-169q-22 0 -28 10t-6 44zM112 0q-40 0 -53 6.5t-13 30.5v419q0 24 13 30.5t53 6.5t53 -6.5t13 -30.5v-419q0 -24 -13 -30.5t-53 -6.5z" />
    <glyph glyph-name="Ibreve" unicode="&#x12c;" horiz-adv-x="231" 
d="M115 0q-39 0 -52 7t-13 30v550q0 23 13 30t52 7q40 0 53 -7t13 -30v-550q0 -23 -13 -30t-53 -7zM115 670q-74 0 -103.5 26t-29.5 94q0 24 8.5 30.5t36.5 6.5t35.5 -5t9.5 -23q2 -20 9 -26.5t34 -6.5t34 6.5t9 26.5q2 18 9.5 23t35.5 5t36.5 -6.5t8.5 -30.5
q0 -68 -29.5 -94t-103.5 -26z" />
    <glyph glyph-name="ibreve" unicode="&#x12d;" horiz-adv-x="229" 
d="M114 545q-74 0 -103.5 26t-29.5 94q0 24 8.5 30.5t36.5 6.5t35.5 -5t9.5 -23q2 -20 9 -26.5t34 -6.5t34 6.5t9 26.5q2 18 9.5 23t35.5 5t36.5 -6.5t8.5 -30.5q0 -68 -29.5 -94t-103.5 -26zM112 0q-40 0 -53 6.5t-13 30.5v419q0 24 13 30.5t53 6.5t53 -6.5t13 -30.5v-419
q0 -24 -13 -30.5t-53 -6.5z" />
    <glyph glyph-name="Iogonek" unicode="&#x12e;" horiz-adv-x="231" 
d="M115 624q40 0 53 -7t13 -30v-527q0 -28 -4.5 -44t-22.5 -36q-38 -41 -38 -58t14 -17q6 0 14.5 1.5t13.5 1.5q12 0 17.5 -8.5t5.5 -34.5q0 -27 -6 -36t-24 -15q-33 -11 -73 -11q-41 0 -61.5 17t-20.5 60q0 61 69 125q-15 7 -15 32v550q0 23 13 30t52 7z" />
    <glyph glyph-name="iogonek" unicode="&#x12f;" horiz-adv-x="229" 
d="M75 -197q-42 0 -62.5 17t-20.5 60q0 33 15 60t56 65q-17 7 -17 32v419q0 24 13 30.5t53 6.5t53 -6.5t13 -30.5v-419q0 -17 -5.5 -28t-26.5 -33q-33 -35 -33 -54q0 -17 13 -17q6 0 15 1.5t14 1.5q12 0 17.5 -8.5t5.5 -34.5q0 -27 -6.5 -36t-24.5 -15q-31 -11 -72 -11z
M112 546q-47 0 -59 9t-12 39v14q0 31 12 40t59 9t59 -9t12 -40v-14q0 -30 -12 -39t-59 -9z" />
    <glyph glyph-name="Idotaccent" unicode="&#x130;" horiz-adv-x="231" 
d="M115 0q-39 0 -52 7t-13 30v550q0 23 13 30t52 7q40 0 53 -7t13 -30v-550q0 -23 -13 -30t-53 -7zM115 678q-47 0 -59 9t-12 39v14q0 31 12 40t59 9t59 -9t12 -40v-14q0 -30 -12 -39t-59 -9z" />
    <glyph glyph-name="dotlessi" unicode="&#x131;" horiz-adv-x="229" 
d="M112 0q-40 0 -53 6.5t-13 30.5v419q0 24 13 30.5t53 6.5t53 -6.5t13 -30.5v-419q0 -24 -13 -30.5t-53 -6.5z" />
    <glyph glyph-name="IJ" unicode="&#x132;" horiz-adv-x="585" 
d="M115 0q-39 0 -52 7t-13 30v550q0 23 13 30t52 7q40 0 53 -7t13 -30v-550q0 -23 -13 -30t-53 -7zM377 -7q-59 0 -110 15q-17 6 -23 17t-6 44q0 31 4.5 39.5t16.5 8.5q7 0 34.5 -3.5t48.5 -3.5q37 0 49.5 13t12.5 54v410q0 23 13.5 30t52.5 7q40 0 53 -7t13 -30v-407
q0 -102 -37 -144.5t-122 -42.5z" />
    <glyph glyph-name="ij" unicode="&#x133;" horiz-adv-x="458" 
d="M112 0q-40 0 -53 6.5t-13 30.5v419q0 24 13 30.5t53 6.5t53 -6.5t13 -30.5v-419q0 -24 -13 -30.5t-53 -6.5zM112 546q-47 0 -59 9t-12 39v14q0 31 12 40t59 9t59 -9t12 -40v-14q0 -30 -12 -39t-59 -9zM341 493q39 0 52.5 -6.5t13.5 -30.5v-525q0 -69 -30.5 -98.5
t-89.5 -29.5q-47 0 -86 12q-17 4 -23.5 15t-6.5 40q0 32 5 41t17 9q5 0 22 -2t27 -2q20 0 26.5 8t6.5 35v497q0 24 13.5 30.5t52.5 6.5zM341 546q-47 0 -59 9t-12 39v14q0 31 12 40t59 9t59 -9t12 -40v-14q0 -30 -12 -39t-59 -9z" />
    <glyph glyph-name="Jcircumflex" unicode="&#x134;" horiz-adv-x="355" 
d="M146 -7q-59 0 -110 15q-17 6 -23 17t-6 44q0 31 4.5 39.5t16.5 8.5q7 0 34.5 -3.5t48.5 -3.5q37 0 49.5 13t12.5 54v410q0 23 13.5 30t52.5 7q40 0 53 -7t13 -30v-407q0 -102 -37 -144.5t-122 -42.5zM241 749h-6l-35 -52q-13 -19 -25 -24t-44 -5q-42 0 -42 23q0 10 15 37
l50 87q8 15 19.5 21t37.5 6h55q25 0 36.5 -6t19.5 -21l50 -87q15 -25 15 -37q0 -23 -42 -23q-32 0 -43.5 5t-24.5 24z" />
    <glyph glyph-name="jcircumflex" unicode="&#x135;" horiz-adv-x="229" 
d="M112 493q40 0 53 -6.5t13 -30.5v-525q0 -69 -30.5 -98.5t-89.5 -29.5q-47 0 -86 12q-17 4 -23.5 15t-6.5 40q0 32 5 41t17 9q5 0 22 -2t27 -2q20 0 26.5 8t6.5 35v497q0 24 13 30.5t53 6.5zM114 620h-6l-35 -52q-13 -19 -25 -24t-44 -5q-42 0 -42 23q0 10 15 37l50 87
q8 15 19.5 21t37.5 6h55q25 0 36.5 -6t19.5 -21l50 -87q15 -25 15 -37q0 -23 -42 -23q-32 0 -43.5 5t-24.5 24z" />
    <glyph glyph-name="Kcommaaccent" unicode="&#x136;" horiz-adv-x="495" 
d="M115 0q-39 0 -52 7t-13 30v550q0 23 13 30t52 7q40 0 53 -7t13 -30v-232h17l124 237q11 20 25.5 26t59.5 6q36 0 49 -6.5t13 -20.5q0 -11 -15 -36l-142 -247l145 -232q23 -36 23 -52q0 -14 -13.5 -22t-56.5 -8q-35 0 -50 6t-26 25l-136 239h-17v-233q0 -23 -13 -30
t-53 -7zM215 -243q-23 0 -31 5.5t-8 17.5q0 8 5.5 51t5.5 73q0 31 12 40t54 9q39 0 52.5 -7.5t13.5 -29.5q0 -41 -14 -73l-24 -55q-10 -19 -21.5 -25t-44.5 -6z" />
    <glyph glyph-name="kcommaaccent" unicode="&#x137;" horiz-adv-x="470" 
d="M112 0q-40 0 -53 6.5t-13 30.5v583q0 23 13.5 30t52.5 7t52.5 -7t13.5 -30v-322h12l104 163q13 20 27.5 26t56.5 6q65 0 65 -21q0 -14 -16 -36l-121 -178l135 -200q14 -20 14 -32q0 -26 -68 -26q-38 0 -53 6t-28 26l-117 185h-11v-180q0 -24 -13 -30.5t-53 -6.5z
M205 -243q-23 0 -31 5.5t-8 17.5q0 8 5.5 51t5.5 73q0 31 12 40t54 9q39 0 52.5 -7.5t13.5 -29.5q0 -41 -14 -73l-24 -55q-10 -19 -21.5 -25t-44.5 -6z" />
    <glyph glyph-name="Lacute" unicode="&#x139;" horiz-adv-x="427" 
d="M181 116h199q19 0 26.5 -12t7.5 -46t-7.5 -46t-26.5 -12h-292q-22 0 -30 6.5t-8 27.5v553q0 23 13 30t52 7q40 0 53 -7t13 -30v-471zM121 668q-53 0 -53 23q0 11 15 50l23 63q9 25 22 31.5t54 6.5q40 0 53.5 -6t13.5 -19q0 -16 -18 -49l-39 -70q-11 -20 -22.5 -25
t-48.5 -5z" />
    <glyph glyph-name="lacute" unicode="&#x13a;" horiz-adv-x="227" 
d="M112 0q-40 0 -53 6.5t-13 30.5v583q0 23 13.5 30t52.5 7t52.5 -7t13.5 -30v-583q0 -24 -13 -30.5t-53 -6.5zM101 689q-53 0 -53 23q0 11 15 50l23 63q9 25 22 31.5t54 6.5q40 0 53.5 -6t13.5 -19q0 -16 -18 -49l-39 -70q-11 -20 -22.5 -25t-48.5 -5z" />
    <glyph glyph-name="Lcommaaccent" unicode="&#x13b;" horiz-adv-x="427" 
d="M181 116h199q19 0 26.5 -12t7.5 -46t-7.5 -46t-26.5 -12h-292q-22 0 -30 6.5t-8 27.5v553q0 23 13 30t52 7q40 0 53 -7t13 -30v-471zM192 -243q-23 0 -31 5.5t-8 17.5q0 8 5.5 51t5.5 73q0 31 12 40t54 9q39 0 52.5 -7.5t13.5 -29.5q0 -41 -14 -73l-24 -55
q-10 -19 -21.5 -25t-44.5 -6z" />
    <glyph glyph-name="lcommaaccent" unicode="&#x13c;" horiz-adv-x="227" 
d="M112 0q-40 0 -53 6.5t-13 30.5v583q0 23 13.5 30t52.5 7t52.5 -7t13.5 -30v-583q0 -24 -13 -30.5t-53 -6.5zM77 -243q-23 0 -31 5.5t-8 17.5q0 8 5.5 51t5.5 73q0 31 12 40t54 9q39 0 52.5 -7.5t13.5 -29.5q0 -41 -14 -73l-24 -55q-10 -19 -21.5 -25t-44.5 -6z" />
    <glyph glyph-name="Lcaron" unicode="&#x13d;" horiz-adv-x="427" 
d="M181 116h199q19 0 26.5 -12t7.5 -46t-7.5 -46t-26.5 -12h-292q-22 0 -30 6.5t-8 27.5v553q0 23 13 30t52 7q40 0 53 -7t13 -30v-471zM310 624q42 0 54.5 -9t12.5 -39v-27q0 -43 -19 -97l-13 -39q-12 -35 -25.5 -44t-49.5 -9q-23 0 -31 5.5t-8 17.5q0 8 6.5 54.5t6.5 71.5
v67q0 30 12 39t54 9z" />
    <glyph glyph-name="lcaron" unicode="&#x13e;" horiz-adv-x="382" 
d="M310 657q42 0 54 -9t12 -39v-27q0 -38 -19 -97l-14 -44q-13 -31 -26 -39.5t-47 -8.5q-23 0 -31 5.5t-8 17.5q0 8 6 54.5t6 71.5v67q0 30 12.5 39t54.5 9zM112 0q-40 0 -53 6.5t-13 30.5v583q0 23 13.5 30t52.5 7t52.5 -7t13.5 -30v-583q0 -24 -13 -30.5t-53 -6.5z" />
    <glyph glyph-name="Ldot" unicode="&#x13f;" horiz-adv-x="427" 
d="M181 116h199q19 0 26.5 -12t7.5 -46t-7.5 -46t-26.5 -12h-292q-22 0 -30 6.5t-8 27.5v553q0 23 13 30t52 7q40 0 53 -7t13 -30v-471zM294 276q-47 0 -59 9t-12 39v14q0 31 12 40t59 9t59 -9t12 -40v-14q0 -30 -12 -39t-59 -9z" />
    <glyph glyph-name="ldot" unicode="&#x140;" horiz-adv-x="376" 
d="M112 0q-40 0 -53 6.5t-13 30.5v583q0 23 13.5 30t52.5 7t52.5 -7t13.5 -30v-583q0 -24 -13 -30.5t-53 -6.5zM295 197q-47 0 -59 9t-12 39v14q0 31 12 40t59 9t59 -9t12 -40v-14q0 -30 -12 -39t-59 -9z" />
    <glyph glyph-name="Lslash" unicode="&#x141;" horiz-adv-x="427" 
d="M181 116h199q19 0 26.5 -12t7.5 -46t-7.5 -46t-26.5 -12h-292q-22 0 -30 6.5t-8 27.5v180l-20 -11q-19 -11 -28 -11q-17 0 -17 48q0 32 6 46.5t23 24.5l36 21v255q0 23 13 30t52 7q40 0 53 -7t13 -30v-178l78 46q17 10 28 10q9 0 13 -9t4 -38q0 -33 -6.5 -47.5
t-23.5 -24.5l-93 -55v-175z" />
    <glyph glyph-name="lslash" unicode="&#x142;" horiz-adv-x="274" 
d="M136 0q-40 0 -53 6.5t-13 30.5v190l-24 -14q-19 -11 -27 -11q-9 0 -13.5 9t-4.5 38q0 32 6.5 46.5t23.5 24.5l39 24v276q0 23 13.5 30t52.5 7t52.5 -7t13.5 -30v-195l26 16q16 10 27 10q9 0 13.5 -9t4.5 -37q0 -32 -6.5 -47t-23.5 -25l-41 -25v-271q0 -24 -13 -30.5
t-53 -6.5z" />
    <glyph glyph-name="Nacute" unicode="&#x143;" horiz-adv-x="556" 
d="M115 0q-39 0 -52 7t-13 30v550q0 23 14 30t59 7q33 0 49.5 -6.5t29.5 -29.5l165 -345h8v344q0 23 13 30t53 7t53 -7t13 -30v-550q0 -24 -13.5 -30.5t-57.5 -6.5q-33 0 -46.5 6t-25.5 29l-174 345h-9v-343q0 -23 -13 -30t-53 -7zM255 668q-53 0 -53 23q0 11 15 50l23 63
q9 25 22 31.5t54 6.5q40 0 53.5 -6t13.5 -19q0 -16 -18 -49l-39 -70q-11 -20 -22.5 -25t-48.5 -5z" />
    <glyph glyph-name="nacute" unicode="&#x144;" horiz-adv-x="517" 
d="M122 0q-40 0 -53 6.5t-13 30.5v240q0 54 -5 95t-10 62.5t-5 28.5q0 16 12 23t49 7q34 0 44.5 -5.5t16.5 -27.5l13 -52q40 95 159 95q78 0 107.5 -32t29.5 -108v-326q0 -24 -13.5 -30.5t-52.5 -6.5t-52.5 6.5t-13.5 30.5v294q0 34 -11 46.5t-43 12.5q-52 0 -73 -35.5
t-21 -123.5v-194q0 -24 -13 -30.5t-52 -6.5zM238 539q-53 0 -53 23q0 11 15 50l23 63q9 25 22 31.5t54 6.5q40 0 53.5 -6t13.5 -19q0 -16 -18 -49l-39 -70q-11 -20 -22.5 -25t-48.5 -5z" />
    <glyph glyph-name="Ncommaaccent" unicode="&#x145;" horiz-adv-x="556" 
d="M115 0q-39 0 -52 7t-13 30v550q0 23 14 30t59 7q33 0 49.5 -6.5t29.5 -29.5l165 -345h8v344q0 23 13 30t53 7t53 -7t13 -30v-550q0 -24 -13.5 -30.5t-57.5 -6.5q-33 0 -46.5 6t-25.5 29l-174 345h-9v-343q0 -23 -13 -30t-53 -7zM249 -243q-23 0 -31 5.5t-8 17.5
q0 8 5.5 51t5.5 73q0 31 12 40t54 9q39 0 52.5 -7.5t13.5 -29.5q0 -41 -14 -73l-24 -55q-10 -19 -21.5 -25t-44.5 -6z" />
    <glyph glyph-name="ncommaaccent" unicode="&#x146;" horiz-adv-x="517" 
d="M122 0q-40 0 -53 6.5t-13 30.5v240q0 54 -5 95t-10 62.5t-5 28.5q0 16 12 23t49 7q34 0 44.5 -5.5t16.5 -27.5l13 -52q40 95 159 95q78 0 107.5 -32t29.5 -108v-326q0 -24 -13.5 -30.5t-52.5 -6.5t-52.5 6.5t-13.5 30.5v294q0 34 -11 46.5t-43 12.5q-52 0 -73 -35.5
t-21 -123.5v-194q0 -24 -13 -30.5t-52 -6.5zM228 -243q-23 0 -31 5.5t-8 17.5q0 8 5.5 51t5.5 73q0 31 12 40t54 9q39 0 52.5 -7.5t13.5 -29.5q0 -41 -14 -73l-24 -55q-10 -19 -21.5 -25t-44.5 -6z" />
    <glyph glyph-name="Ncaron" unicode="&#x147;" horiz-adv-x="556" 
d="M115 0q-39 0 -52 7t-13 30v550q0 23 14 30t59 7q33 0 49.5 -6.5t29.5 -29.5l165 -345h8v344q0 23 13 30t53 7t53 -7t13 -30v-550q0 -24 -13.5 -30.5t-57.5 -6.5q-33 0 -46.5 6t-25.5 29l-174 345h-9v-343q0 -23 -13 -30t-53 -7zM130 819q0 12 8.5 17.5t33.5 5.5
q34 0 44.5 -5t23.5 -24l36 -53h6l35 53q13 19 23.5 24t45.5 5q25 0 33.5 -5.5t8.5 -17.5q0 -10 -15 -37l-50 -88q-8 -14 -19 -20t-37 -6h-55q-26 0 -37.5 5.5t-19.5 20.5l-50 88q-15 26 -15 37z" />
    <glyph glyph-name="ncaron" unicode="&#x148;" horiz-adv-x="517" 
d="M122 0q-40 0 -53 6.5t-13 30.5v240q0 54 -5 95t-10 62.5t-5 28.5q0 16 12 23t49 7q34 0 44.5 -5.5t16.5 -27.5l13 -52q40 95 159 95q78 0 107.5 -32t29.5 -108v-326q0 -24 -13.5 -30.5t-52.5 -6.5t-52.5 6.5t-13.5 30.5v294q0 34 -11 46.5t-43 12.5q-52 0 -73 -35.5
t-21 -123.5v-194q0 -24 -13 -30.5t-52 -6.5zM113 690q0 12 8.5 17.5t33.5 5.5q34 0 44.5 -5t23.5 -24l36 -53h6l35 53q13 19 23.5 24t45.5 5q25 0 33.5 -5.5t8.5 -17.5q0 -10 -15 -37l-50 -88q-8 -14 -19 -20t-37 -6h-55q-26 0 -37.5 5.5t-19.5 20.5l-50 88q-15 26 -15 37z
" />
    <glyph glyph-name="Eng" unicode="&#x14a;" horiz-adv-x="556" 
d="M387 -197q-40 0 -86 12q-17 5 -23.5 15.5t-6.5 39.5q0 32 5 41t17 9q5 0 22 -2t27 -2q20 0 26.5 8t6.5 35v59q-3 3 -11 17l-174 345h-9v-343q0 -23 -13 -30t-53 -7q-39 0 -52 7t-13 30v550q0 23 14 30t59 7q34 0 51 -6t28 -30l165 -345h8v344q0 23 13 30t53 7t53 -7
t13 -30v-656q0 -69 -30.5 -98.5t-89.5 -29.5z" />
    <glyph glyph-name="eng" unicode="&#x14b;" horiz-adv-x="517" 
d="M122 0q-40 0 -53 6.5t-13 30.5v240q0 54 -5 95t-10 62.5t-5 28.5q0 16 12 23t49 7q34 0 44.5 -5.5t16.5 -27.5l13 -52q40 95 159 95q78 0 107.5 -32t29.5 -108v-432q0 -69 -30.5 -98.5t-89.5 -29.5q-40 0 -86 12q-17 5 -23.5 15.5t-6.5 39.5q0 32 5 41t17 9q5 0 22.5 -2
t26.5 -2q20 0 26.5 8t6.5 35v372q0 34 -11 46.5t-43 12.5q-52 0 -73 -35.5t-21 -123.5v-194q0 -24 -13 -30.5t-52 -6.5z" />
    <glyph glyph-name="Omacron" unicode="&#x14c;" horiz-adv-x="531" 
d="M265 106q43 0 61.5 12t26.5 48t8 117v56q0 82 -7.5 117.5t-26 47.5t-62.5 12q-42 0 -60.5 -12t-26.5 -48t-8 -117v-56q0 -82 7.5 -117.5t25.5 -47.5t62 -12zM265 -7q-66 0 -104 8.5t-68.5 37t-42.5 84t-12 147.5v75q0 64 5.5 110t18.5 77.5t29 50.5t44.5 29.5t57 13.5
t72.5 3q69 0 107 -8.5t68.5 -38t41.5 -86t11 -151.5v-75q0 -62 -6 -107t-19.5 -75.5t-30.5 -49.5t-45 -29t-56.5 -13t-70.5 -3zM147 736q0 34 6 44t28 10h169q21 0 27 -10t6 -44t-6 -44t-27 -10h-169q-22 0 -28 10t-6 44z" />
    <glyph glyph-name="omacron" unicode="&#x14d;" horiz-adv-x="506" 
d="M245 -10q-81 0 -123 19.5t-62 74t-20 159.5q0 108 23 164.5t68 76t130 19.5q61 0 97 -9.5t62 -37t36 -76t10 -127.5q0 -108 -23 -165t-68.5 -77.5t-129.5 -20.5zM249 100q53 0 68 27t15 118q0 97 -14 123t-62 26q-53 0 -68 -26t-15 -117q0 -97 14 -124t62 -27zM135 607
q0 34 6 44t28 10h169q21 0 27 -10t6 -44t-6 -44t-27 -10h-169q-22 0 -28 10t-6 44z" />
    <glyph glyph-name="Obreve" unicode="&#x14e;" horiz-adv-x="531" 
d="M265 106q43 0 61.5 12t26.5 48t8 117v56q0 82 -7.5 117.5t-26 47.5t-62.5 12q-42 0 -60.5 -12t-26.5 -48t-8 -117v-56q0 -82 7.5 -117.5t25.5 -47.5t62 -12zM265 -7q-66 0 -104 8.5t-68.5 37t-42.5 84t-12 147.5v75q0 64 5.5 110t18.5 77.5t29 50.5t44.5 29.5t57 13.5
t72.5 3q69 0 107 -8.5t68.5 -38t41.5 -86t11 -151.5v-75q0 -62 -6 -107t-19.5 -75.5t-30.5 -49.5t-45 -29t-56.5 -13t-70.5 -3zM265 674q-74 0 -103.5 26t-29.5 94q0 24 8.5 30.5t36.5 6.5t35.5 -5t9.5 -23q2 -20 9 -26.5t34 -6.5t34 6.5t9 26.5q2 18 9.5 23t35.5 5
t36.5 -6.5t8.5 -30.5q0 -68 -29.5 -94t-103.5 -26z" />
    <glyph glyph-name="obreve" unicode="&#x14f;" horiz-adv-x="506" 
d="M245 -10q-81 0 -123 19.5t-62 74t-20 159.5q0 108 23 164.5t68 76t130 19.5q61 0 97 -9.5t62 -37t36 -76t10 -127.5q0 -108 -23 -165t-68.5 -77.5t-129.5 -20.5zM249 100q53 0 68 27t15 118q0 97 -14 123t-62 26q-53 0 -68 -26t-15 -117q0 -97 14 -124t62 -27zM253 545
q-74 0 -103.5 26t-29.5 94q0 24 8.5 30.5t36.5 6.5t35.5 -5t9.5 -23q2 -20 9 -26.5t34 -6.5t34 6.5t9 26.5q2 18 9.5 23t35.5 5t36.5 -6.5t8.5 -30.5q0 -68 -29.5 -94t-103.5 -26z" />
    <glyph glyph-name="Ohungarumlaut" unicode="&#x150;" horiz-adv-x="531" 
d="M265 106q43 0 61.5 12t26.5 48t8 117v56q0 82 -7.5 117.5t-26 47.5t-62.5 12q-42 0 -60.5 -12t-26.5 -48t-8 -117v-56q0 -82 7.5 -117.5t25.5 -47.5t62 -12zM265 -7q-66 0 -104 8.5t-68.5 37t-42.5 84t-12 147.5v75q0 64 5.5 110t18.5 77.5t29 50.5t44.5 29.5t57 13.5
t72.5 3q69 0 107 -8.5t68.5 -38t41.5 -86t11 -151.5v-75q0 -62 -6 -107t-19.5 -75.5t-30.5 -49.5t-45 -29t-56.5 -13t-70.5 -3zM125 691q0 14 31 125q3 15 15.5 20.5t53.5 5.5q36 0 49 -5q15 -3 15 -20t-49 -122q-6 -15 -18 -21t-47 -6q-31 0 -40.5 5t-9.5 18zM287 691
q0 12 48 127q5 13 18 18.5t51 5.5q34 0 49 -5q16 -6 16 -20q0 -17 -66 -122q-10 -17 -21.5 -22t-47.5 -5q-28 0 -37.5 5.5t-9.5 17.5z" />
    <glyph glyph-name="ohungarumlaut" unicode="&#x151;" horiz-adv-x="506" 
d="M245 -10q-81 0 -123 19.5t-62 74t-20 159.5q0 108 23 164.5t68 76t130 19.5q61 0 97 -9.5t62 -37t36 -76t10 -127.5q0 -108 -23 -165t-68.5 -77.5t-129.5 -20.5zM249 100q53 0 68 27t15 118q0 97 -14 123t-62 26q-53 0 -68 -26t-15 -117q0 -97 14 -124t62 -27zM113 562
q0 14 31 125q3 15 15.5 20.5t53.5 5.5q36 0 49 -5q15 -3 15 -20t-49 -122q-6 -15 -18 -21t-47 -6q-31 0 -40.5 5t-9.5 18zM275 562q0 12 48 127q5 13 18 18.5t51 5.5q34 0 49 -5q16 -6 16 -20q0 -17 -66 -122q-10 -17 -21.5 -22t-47.5 -5q-28 0 -37.5 5.5t-9.5 17.5z" />
    <glyph glyph-name="OE" unicode="&#x152;" horiz-adv-x="767" 
d="M265 -7q-42 0 -70 3t-56 13t-45 29t-30.5 49.5t-19.5 75.5t-6 107v75q0 95 11 151.5t41 86t68.5 38t106.5 8.5q86 0 127 -19q9 14 42 14h268q19 0 26 -11.5t7 -46.5t-7 -46.5t-26 -11.5h-209v-125h145q22 0 28 -10.5t6 -46.5t-6 -46.5t-28 -10.5h-145v-153h219
q19 0 26 -11.5t7 -46.5t-7 -46.5t-26 -11.5h-278q-34 0 -42 14q-41 -21 -127 -21zM265 106q43 0 61.5 11.5t26.5 46t8 113.5v63q0 50 -2.5 79t-7.5 50t-17 30.5t-27 13t-42 3.5q-44 0 -62 -12t-25.5 -47.5t-7.5 -117.5v-56q0 -81 8 -117t26.5 -48t60.5 -12z" />
    <glyph glyph-name="oe" unicode="&#x153;" horiz-adv-x="773" 
d="M245 -10q-81 0 -123 19.5t-62 74t-20 159.5q0 108 23 164.5t68 76t130 19.5q101 0 142 -34q41 34 142 34q62 0 100 -13t58 -44t26.5 -70.5t6.5 -105.5q0 -31 -10 -45t-38 -14h-224q3 -70 21 -89t77 -19q34 0 67 3.5t53.5 7.5t24.5 4q21 0 21 -53q0 -28 -6 -39t-21 -16
q-57 -20 -147 -20q-111 0 -154 39q-44 -39 -155 -39zM249 100q53 0 68 27t15 118q0 97 -14 123t-62 26q-53 0 -68 -26t-15 -117q0 -97 14 -124t62 -27zM543 394q-45 0 -60.5 -18t-18.5 -85h149q0 62 -12 82.5t-58 20.5z" />
    <glyph glyph-name="Racute" unicode="&#x154;" horiz-adv-x="510" 
d="M115 0q-39 0 -52 7t-13 30v540q0 23 7.5 31.5t28.5 11.5q66 9 178 9q55 0 90 -7t62.5 -27t39.5 -58t12 -97q0 -135 -93 -177l94 -198q13 -28 13 -39q0 -26 -53 -26q-50 0 -64 5.5t-24 30.5l-79 205h-81v-204q0 -23 -13 -30t-53 -7zM181 516v-182h59q54 0 73 19.5t19 78.5
q0 51 -18 69.5t-65 18.5q-34 0 -68 -4zM220 668q-53 0 -53 23q0 11 15 50l23 63q9 25 22 31.5t54 6.5q40 0 53.5 -6t13.5 -19q0 -16 -18 -49l-39 -70q-11 -20 -22.5 -25t-48.5 -5z" />
    <glyph glyph-name="racute" unicode="&#x155;" horiz-adv-x="366" 
d="M122 0q-40 0 -53 6.5t-13 30.5v240q0 54 -5 95t-10 62.5t-5 28.5q0 16 12 23t49 7q34 0 44.5 -5.5t16.5 -27.5l10 -40q39 80 123 80q31 0 45 -6q13 -4 18 -15.5t5 -44.5q0 -54 -24 -54q-2 0 -19.5 2t-32.5 2q-96 0 -96 -166v-181q0 -24 -13 -30.5t-52 -6.5zM149 539
q-53 0 -53 23q0 11 15 50l23 63q9 25 22 31.5t54 6.5q40 0 53.5 -6t13.5 -19q0 -16 -18 -49l-39 -70q-11 -20 -22.5 -25t-48.5 -5z" />
    <glyph glyph-name="Rcommaaccent" unicode="&#x156;" horiz-adv-x="510" 
d="M115 0q-39 0 -52 7t-13 30v540q0 23 7.5 31.5t28.5 11.5q66 9 178 9q55 0 90 -7t62.5 -27t39.5 -58t12 -97q0 -135 -93 -177l94 -198q13 -28 13 -39q0 -26 -53 -26q-50 0 -64 5.5t-24 30.5l-79 205h-81v-204q0 -23 -13 -30t-53 -7zM181 516v-182h59q54 0 73 19.5t19 78.5
q0 51 -18 69.5t-65 18.5q-34 0 -68 -4zM226 -243q-23 0 -31 5.5t-8 17.5q0 8 5.5 51t5.5 73q0 31 12 40t54 9q39 0 52.5 -7.5t13.5 -29.5q0 -41 -14 -73l-24 -55q-10 -19 -21.5 -25t-44.5 -6z" />
    <glyph glyph-name="rcommaaccent" unicode="&#x157;" horiz-adv-x="366" 
d="M122 0q-40 0 -53 6.5t-13 30.5v240q0 54 -5 95t-10 62.5t-5 28.5q0 16 12 23t49 7q34 0 44.5 -5.5t16.5 -27.5l10 -40q39 80 123 80q31 0 45 -6q13 -4 18 -15.5t5 -44.5q0 -54 -24 -54q-2 0 -19.5 2t-32.5 2q-96 0 -96 -166v-181q0 -24 -13 -30.5t-52 -6.5zM86 -246
q-23 0 -31 5.5t-8 17.5q0 8 5.5 51t5.5 73q0 31 12 40t54 9q39 0 52.5 -7.5t13.5 -29.5q0 -41 -14 -73l-24 -55q-10 -19 -21.5 -25t-44.5 -6z" />
    <glyph glyph-name="Rcaron" unicode="&#x158;" horiz-adv-x="510" 
d="M115 0q-39 0 -52 7t-13 30v540q0 23 7.5 31.5t28.5 11.5q66 9 178 9q55 0 90 -7t62.5 -27t39.5 -58t12 -97q0 -135 -93 -177l94 -198q13 -28 13 -39q0 -26 -53 -26q-50 0 -64 5.5t-24 30.5l-79 205h-81v-204q0 -23 -13 -30t-53 -7zM181 516v-182h59q54 0 73 19.5t19 78.5
q0 51 -18 69.5t-65 18.5q-34 0 -68 -4zM107 819q0 12 8.5 17.5t33.5 5.5q34 0 44.5 -5t23.5 -24l36 -53h6l35 53q13 19 23.5 24t45.5 5q25 0 33.5 -5.5t8.5 -17.5q0 -10 -15 -37l-50 -88q-8 -14 -19 -20t-37 -6h-55q-26 0 -37.5 5.5t-19.5 20.5l-50 88q-15 26 -15 37z" />
    <glyph glyph-name="rcaron" unicode="&#x159;" horiz-adv-x="366" 
d="M122 0q-40 0 -53 6.5t-13 30.5v240q0 54 -5 95t-10 62.5t-5 28.5q0 16 12 23t49 7q34 0 44.5 -5.5t16.5 -27.5l10 -40q39 80 123 80q31 0 45 -6q13 -4 18 -15.5t5 -44.5q0 -54 -24 -54q-2 0 -19.5 2t-32.5 2q-96 0 -96 -166v-181q0 -24 -13 -30.5t-52 -6.5zM36 690
q0 12 8.5 17.5t33.5 5.5q34 0 44.5 -5t23.5 -24l36 -53h6l35 53q13 19 23.5 24t45.5 5q25 0 33.5 -5.5t8.5 -17.5q0 -10 -15 -37l-50 -88q-8 -14 -19 -20t-37 -6h-55q-26 0 -37.5 5.5t-19.5 20.5l-50 88q-15 26 -15 37z" />
    <glyph glyph-name="Sacute" unicode="&#x15a;" horiz-adv-x="457" 
d="M205 -7q-78 0 -143 18q-17 5 -23 16.5t-6 45.5q0 31 5 41.5t16 10.5q4 0 45 -7.5t85 -7.5q58 0 85.5 15.5t27.5 55.5q0 29 -9 42.5t-38 26.5l-110 49q-49 22 -72.5 56.5t-23.5 101.5q0 172 181 172q91 0 159 -20q13 -3 18 -14.5t5 -45.5q0 -52 -22 -52q-1 0 -43 7.5
t-85 7.5q-47 0 -66.5 -10.5t-19.5 -46.5q0 -23 9.5 -33.5t35.5 -22.5l107 -47q55 -25 78 -59.5t23 -104.5q0 -195 -219 -195zM209 668q-53 0 -53 23q0 11 15 50l23 63q9 25 22 31.5t54 6.5q40 0 53.5 -6t13.5 -19q0 -16 -18 -49l-39 -70q-11 -20 -22.5 -25t-48.5 -5z" />
    <glyph glyph-name="sacute" unicode="&#x15b;" horiz-adv-x="441" 
d="M203 -10q-83 0 -140 18q-15 5 -21 16.5t-6 39.5q0 53 22 53q1 0 47 -7t83 -7q47 0 65.5 11t18.5 35q0 25 -29 37l-112 48q-77 33 -77 127q0 142 172 142q79 0 144 -17q15 -4 21 -15t6 -43q0 -51 -24 -51q-2 0 -44.5 8t-75.5 8q-66 0 -66 -36q0 -14 6 -22t23 -15l108 -43
q45 -17 63 -46t18 -77q0 -164 -202 -164zM205 539q-53 0 -53 23q0 11 15 50l23 63q9 25 22 31.5t54 6.5q40 0 53.5 -6t13.5 -19q0 -16 -18 -49l-39 -70q-11 -20 -22.5 -25t-48.5 -5z" />
    <glyph glyph-name="Scircumflex" unicode="&#x15c;" horiz-adv-x="457" 
d="M205 -7q-78 0 -143 18q-17 5 -23 16.5t-6 45.5q0 31 5 41.5t16 10.5q4 0 45 -7.5t85 -7.5q58 0 85.5 15.5t27.5 55.5q0 29 -9 42.5t-38 26.5l-110 49q-49 22 -72.5 56.5t-23.5 101.5q0 172 181 172q91 0 159 -20q13 -3 18 -14.5t5 -45.5q0 -52 -22 -52q-1 0 -43 7.5
t-85 7.5q-47 0 -66.5 -10.5t-19.5 -46.5q0 -23 9.5 -33.5t35.5 -22.5l107 -47q55 -25 78 -59.5t23 -104.5q0 -195 -219 -195zM237 749h-6l-35 -52q-13 -19 -25 -24t-44 -5q-42 0 -42 23q0 10 15 37l50 87q8 15 19.5 21t37.5 6h55q25 0 36.5 -6t19.5 -21l50 -87
q15 -25 15 -37q0 -23 -42 -23q-32 0 -43.5 5t-24.5 24z" />
    <glyph glyph-name="scircumflex" unicode="&#x15d;" horiz-adv-x="441" 
d="M203 -10q-83 0 -140 18q-15 5 -21 16.5t-6 39.5q0 53 22 53q1 0 47 -7t83 -7q47 0 65.5 11t18.5 35q0 25 -29 37l-112 48q-77 33 -77 127q0 142 172 142q79 0 144 -17q15 -4 21 -15t6 -43q0 -51 -24 -51q-2 0 -44.5 8t-75.5 8q-66 0 -66 -36q0 -14 6 -22t23 -15l108 -43
q45 -17 63 -46t18 -77q0 -164 -202 -164zM231 620h-6l-35 -52q-13 -19 -25 -24t-44 -5q-42 0 -42 23q0 10 15 37l50 87q8 15 19.5 21t37.5 6h55q25 0 36.5 -6t19.5 -21l50 -87q15 -25 15 -37q0 -23 -42 -23q-32 0 -43.5 5t-24.5 24z" />
    <glyph glyph-name="Scedilla" unicode="&#x15e;" horiz-adv-x="457" 
d="M224 -231q-35 0 -65 6q-17 4 -23 12.5t-6 35.5t6 36.5t19 9.5q5 0 22.5 -2t29.5 -2q21 0 21 11q0 2 -0.5 4t-2 4t-2.5 3t-4 3t-4.5 2.5t-6 3t-6.5 3.5q-20 9 -27 21.5t-7 40.5v33q-65 5 -106 17q-17 5 -23 16.5t-6 45.5q0 31 5 41.5t16 10.5q4 0 45 -7.5t85 -7.5
q58 0 85.5 15.5t27.5 55.5q0 29 -9 42.5t-38 26.5l-110 49q-49 22 -72.5 56.5t-23.5 101.5q0 172 181 172q91 0 159 -20q13 -3 18 -14.5t5 -45.5q0 -52 -22 -52q-1 0 -43 7.5t-85 7.5q-47 0 -66.5 -10.5t-19.5 -46.5q0 -23 9.5 -33.5t35.5 -22.5l107 -47q55 -25 78 -59.5
t23 -104.5q0 -169 -164 -191v-19q0 -12 14 -20q39 -20 52 -38t13 -56q0 -95 -115 -95z" />
    <glyph glyph-name="scedilla" unicode="&#x15f;" horiz-adv-x="441" 
d="M221 -231q-35 0 -65 6q-17 4 -23 12.5t-6 35.5t6 36.5t19 9.5q5 0 22.5 -2t29.5 -2q21 0 21 11q0 2 -0.5 4t-2 4t-2.5 3t-4 3t-4.5 2.5t-6 3t-6.5 3.5q-20 9 -27 21.5t-7 40.5v31q-63 3 -102 16q-15 5 -21 16.5t-6 39.5q0 53 22 53q1 0 47 -7t83 -7q47 0 65.5 11t18.5 35
q0 25 -29 37l-112 48q-77 33 -77 127q0 142 172 142q79 0 144 -17q15 -4 21 -15t6 -43q0 -51 -24 -51q-2 0 -44.5 8t-75.5 8q-66 0 -66 -36q0 -14 6 -22t23 -15l108 -43q45 -17 63 -46t18 -77q0 -141 -148 -160v-16q0 -12 14 -20q39 -20 52 -38t13 -56q0 -95 -115 -95z" />
    <glyph glyph-name="Scaron" unicode="&#x160;" horiz-adv-x="457" 
d="M205 -7q-78 0 -143 18q-17 5 -23 16.5t-6 45.5q0 31 5 41.5t16 10.5q4 0 45 -7.5t85 -7.5q58 0 85.5 15.5t27.5 55.5q0 29 -9 42.5t-38 26.5l-110 49q-49 22 -72.5 56.5t-23.5 101.5q0 172 181 172q91 0 159 -20q13 -3 18 -14.5t5 -45.5q0 -52 -22 -52q-1 0 -43 7.5
t-85 7.5q-47 0 -66.5 -10.5t-19.5 -46.5q0 -23 9.5 -33.5t35.5 -22.5l107 -47q55 -25 78 -59.5t23 -104.5q0 -195 -219 -195zM87 819q0 12 8.5 17.5t33.5 5.5q34 0 44.5 -5t23.5 -24l36 -53h6l35 53q13 19 23.5 24t45.5 5q25 0 33.5 -5.5t8.5 -17.5q0 -10 -15 -37l-50 -88
q-8 -14 -19 -20t-37 -6h-55q-26 0 -37.5 5.5t-19.5 20.5l-50 88q-15 26 -15 37z" />
    <glyph glyph-name="scaron" unicode="&#x161;" horiz-adv-x="441" 
d="M203 -10q-83 0 -140 18q-15 5 -21 16.5t-6 39.5q0 53 22 53q1 0 47 -7t83 -7q47 0 65.5 11t18.5 35q0 25 -29 37l-112 48q-77 33 -77 127q0 142 172 142q79 0 144 -17q15 -4 21 -15t6 -43q0 -51 -24 -51q-2 0 -44.5 8t-75.5 8q-66 0 -66 -36q0 -14 6 -22t23 -15l108 -43
q45 -17 63 -46t18 -77q0 -164 -202 -164zM79 690q0 12 8.5 17.5t33.5 5.5q34 0 44.5 -5t23.5 -24l36 -53h6l35 53q13 19 23.5 24t45.5 5q25 0 33.5 -5.5t8.5 -17.5q0 -10 -15 -37l-50 -88q-8 -14 -19 -20t-37 -6h-55q-26 0 -37.5 5.5t-19.5 20.5l-50 88q-15 26 -15 37z" />
    <glyph glyph-name="Tcommaaccent" unicode="&#x162;" horiz-adv-x="445" 
d="M223 0q-40 0 -53 7t-13 30v471h-113q-20 0 -27 11.5t-7 46.5t7 46.5t27 11.5h358q19 0 26 -11.5t7 -46.5t-7 -46.5t-26 -11.5h-114v-471q0 -23 -13 -30t-52 -7zM188 -243q-23 0 -31 5.5t-8 17.5q0 8 5.5 51t5.5 73q0 31 12 40t54 9q39 0 52.5 -7.5t13.5 -29.5
q0 -41 -14 -73l-24 -55q-10 -19 -21.5 -25t-44.5 -6z" />
    <glyph glyph-name="tcommaaccent" unicode="&#x163;" horiz-adv-x="336" 
d="M198 -10q-61 0 -88 29t-27 99v270h-40q-17 0 -22 10t-5 41t5.5 41t21.5 10h40v70q0 23 13 30t53 7q39 0 52 -7t13 -30v-70h73q16 0 21.5 -10t5.5 -41t-5 -41t-22 -10h-73v-244q0 -24 6 -31t26 -7q12 0 27.5 2t19.5 2q12 0 17.5 -9t5.5 -39q0 -27 -6 -38t-21 -18
q-36 -16 -91 -16zM151 -243q-23 0 -31 5.5t-8 17.5q0 8 5.5 51t5.5 73q0 31 12 40t54 9q39 0 52.5 -7.5t13.5 -29.5q0 -41 -14 -73l-24 -55q-10 -19 -21.5 -25t-44.5 -6z" />
    <glyph glyph-name="Tcaron" unicode="&#x164;" horiz-adv-x="445" 
d="M223 0q-40 0 -53 7t-13 30v471h-113q-20 0 -27 11.5t-7 46.5t7 46.5t27 11.5h358q19 0 26 -11.5t7 -46.5t-7 -46.5t-26 -11.5h-114v-471q0 -23 -13 -30t-52 -7zM73 819q0 12 8.5 17.5t33.5 5.5q34 0 44.5 -5t23.5 -24l36 -53h6l35 53q13 19 23.5 24t45.5 5
q25 0 33.5 -5.5t8.5 -17.5q0 -10 -15 -37l-50 -88q-8 -14 -19 -20t-37 -6h-55q-26 0 -37.5 5.5t-19.5 20.5l-50 88q-15 26 -15 37z" />
    <glyph glyph-name="tcaron" unicode="&#x165;" horiz-adv-x="498" 
d="M421 657q42 0 54 -9t12 -39v-27q0 -42 -33 -141q-13 -31 -26 -39.5t-47 -8.5q-23 0 -31 5.5t-8 17.5q0 8 6.5 54.5t6.5 71.5v67q0 30 12 39t54 9zM198 -10q-61 0 -88 29t-27 99v270h-40q-17 0 -22 10t-5 41t5.5 41t21.5 10h40v70q0 23 13 30t53 7q39 0 52 -7t13 -30v-70
h73q16 0 21.5 -10t5.5 -41t-5 -41t-22 -10h-73v-244q0 -24 6 -31t26 -7q12 0 27.5 2t19.5 2q12 0 17.5 -9t5.5 -39q0 -27 -6 -38t-21 -18q-36 -16 -91 -16z" />
    <glyph glyph-name="Tbar" unicode="&#x166;" horiz-adv-x="445" 
d="M223 0q-40 0 -53 7t-13 30v221h-89q-21 0 -27 9t-6 38t6 38t27 9h89v156h-113q-20 0 -27 11.5t-7 46.5t7 46.5t27 11.5h358q19 0 26 -11.5t7 -46.5t-7 -46.5t-26 -11.5h-114v-156h88q22 0 28 -9t6 -38t-6.5 -38t-27.5 -9h-88v-221q0 -23 -13 -30t-52 -7z" />
    <glyph glyph-name="tbar" unicode="&#x167;" horiz-adv-x="336" 
d="M198 -10q-61 0 -88 29t-27 99v81h-39q-16 0 -21 10.5t-5 41.5t5 41t21 10h39v86h-40q-17 0 -22 10t-5 41t5.5 41t21.5 10h40v70q0 23 13 30t53 7q39 0 52 -7t13 -30v-70h73q16 0 21.5 -10t5.5 -41t-5 -41t-22 -10h-73v-86h72q17 0 22 -10t5 -41q0 -32 -5.5 -42t-21.5 -10
h-72v-55q0 -24 6 -31t26 -7q12 0 27.5 2t19.5 2q12 0 17.5 -9t5.5 -39q0 -27 -6 -38t-21 -18q-36 -16 -91 -16z" />
    <glyph glyph-name="Utilde" unicode="&#x168;" horiz-adv-x="530" 
d="M265 -7q-118 0 -166.5 43t-48.5 151v400q0 23 13 30t52 7q40 0 53 -7t13 -30v-407q0 -44 16.5 -59.5t67.5 -15.5t67 15.5t16 59.5v407q0 23 13.5 30t52.5 7q40 0 53 -7t13 -30v-400q0 -108 -48.5 -151t-166.5 -43zM116 721q0 26 5.5 37.5t20.5 21.5q33 19 68 19
q26 0 62.5 -9.5t54.5 -9.5q21 0 43.5 7.5t26.5 7.5q10 0 13.5 -8t3.5 -36q0 -26 -5.5 -37.5t-20.5 -20.5q-30 -20 -68 -20q-26 0 -62.5 10t-54.5 10q-21 0 -44 -8t-26 -8q-10 0 -13.5 8t-3.5 36z" />
    <glyph glyph-name="utilde" unicode="&#x169;" horiz-adv-x="509" 
d="M182 -10q-75 0 -105.5 30t-30.5 104v332q0 24 13 30.5t53 6.5t53 -6.5t13 -30.5v-299q0 -33 11 -43.5t44 -10.5q51 0 71 35.5t20 123.5v194q0 24 13 30.5t53 6.5t53 -6.5t13 -30.5v-240q0 -54 5 -95t10 -62.5t5 -28.5q0 -16 -12.5 -23t-48.5 -7q-34 0 -44.5 5.5
t-16.5 27.5l-12 46q-41 -89 -160 -89zM103 600q0 26 5.5 37.5t20.5 21.5q33 19 68 19q26 0 62.5 -9.5t54.5 -9.5q21 0 43.5 7.5t26.5 7.5q10 0 13.5 -8t3.5 -36q0 -26 -5.5 -37.5t-20.5 -20.5q-30 -20 -68 -20q-27 0 -63.5 10t-53.5 10q-22 0 -44 -8t-26 -8q-10 0 -13.5 8
t-3.5 36z" />
    <glyph glyph-name="Umacron" unicode="&#x16a;" horiz-adv-x="530" 
d="M265 -7q-118 0 -166.5 43t-48.5 151v400q0 23 13 30t52 7q40 0 53 -7t13 -30v-407q0 -44 16.5 -59.5t67.5 -15.5t67 15.5t16 59.5v407q0 23 13.5 30t52.5 7q40 0 53 -7t13 -30v-400q0 -108 -48.5 -151t-166.5 -43zM146 736q0 34 6 44t28 10h169q21 0 27 -10t6 -44t-6 -44
t-27 -10h-169q-22 0 -28 10t-6 44z" />
    <glyph glyph-name="umacron" unicode="&#x16b;" horiz-adv-x="509" 
d="M182 -10q-75 0 -105.5 30t-30.5 104v332q0 24 13 30.5t53 6.5t53 -6.5t13 -30.5v-299q0 -33 11 -43.5t44 -10.5q51 0 71 35.5t20 123.5v194q0 24 13 30.5t53 6.5t53 -6.5t13 -30.5v-240q0 -54 5 -95t10 -62.5t5 -28.5q0 -16 -12.5 -23t-48.5 -7q-34 0 -44.5 5.5
t-16.5 27.5l-12 46q-41 -89 -160 -89zM134 607q0 34 6 44t28 10h169q21 0 27 -10t6 -44t-6 -44t-27 -10h-169q-22 0 -28 10t-6 44z" />
    <glyph glyph-name="Ubreve" unicode="&#x16c;" horiz-adv-x="530" 
d="M265 -7q-118 0 -166.5 43t-48.5 151v400q0 23 13 30t52 7q40 0 53 -7t13 -30v-407q0 -44 16.5 -59.5t67.5 -15.5t67 15.5t16 59.5v407q0 23 13.5 30t52.5 7q40 0 53 -7t13 -30v-400q0 -108 -48.5 -151t-166.5 -43zM265 670q-74 0 -103.5 26t-29.5 94q0 24 8.5 30.5
t36.5 6.5t35.5 -5t9.5 -23q2 -20 9 -26.5t34 -6.5t34 6.5t9 26.5q2 18 9.5 23t35.5 5t36.5 -6.5t8.5 -30.5q0 -68 -29.5 -94t-103.5 -26z" />
    <glyph glyph-name="ubreve" unicode="&#x16d;" horiz-adv-x="509" 
d="M182 -10q-75 0 -105.5 30t-30.5 104v332q0 24 13 30.5t53 6.5t53 -6.5t13 -30.5v-299q0 -33 11 -43.5t44 -10.5q51 0 71 35.5t20 123.5v194q0 24 13 30.5t53 6.5t53 -6.5t13 -30.5v-240q0 -54 5 -95t10 -62.5t5 -28.5q0 -16 -12.5 -23t-48.5 -7q-34 0 -44.5 5.5
t-16.5 27.5l-12 46q-41 -89 -160 -89zM252 545q-74 0 -103.5 26t-29.5 94q0 24 8.5 30.5t36.5 6.5t35.5 -5t9.5 -23q2 -20 9 -26.5t34 -6.5t34 6.5t9 26.5q2 18 9.5 23t35.5 5t36.5 -6.5t8.5 -30.5q0 -68 -29.5 -94t-103.5 -26z" />
    <glyph glyph-name="Uring" unicode="&#x16e;" horiz-adv-x="530" 
d="M265 -7q-118 0 -166.5 43t-48.5 151v400q0 23 13 30t52 7q40 0 53 -7t13 -30v-407q0 -44 16.5 -59.5t67.5 -15.5t67 15.5t16 59.5v407q0 23 13.5 30t52.5 7q40 0 53 -7t13 -30v-400q0 -108 -48.5 -151t-166.5 -43zM264 749q27 0 34 6.5t7 25.5t-7 25t-34 6t-34 -6t-7 -25
t7 -25.5t34 -6.5zM264 669q-71 0 -101 23.5t-30 88.5t30 88t101 23q72 0 101.5 -23t29.5 -88t-29.5 -88.5t-101.5 -23.5z" />
    <glyph glyph-name="uring" unicode="&#x16f;" horiz-adv-x="509" 
d="M182 -10q-75 0 -105.5 30t-30.5 104v332q0 24 13 30.5t53 6.5t53 -6.5t13 -30.5v-299q0 -33 11 -43.5t44 -10.5q51 0 71 35.5t20 123.5v194q0 24 13 30.5t53 6.5t53 -6.5t13 -30.5v-240q0 -54 5 -95t10 -62.5t5 -28.5q0 -16 -12.5 -23t-48.5 -7q-34 0 -44.5 5.5
t-16.5 27.5l-12 46q-41 -89 -160 -89zM252 624q27 0 34 6.5t7 25.5t-7 25t-34 6t-34 -6t-7 -25t7.5 -25.5t33.5 -6.5zM252 544q-71 0 -101 23.5t-30 88.5t30 88t101 23q72 0 101.5 -23t29.5 -88t-29.5 -88.5t-101.5 -23.5z" />
    <glyph glyph-name="Uhungarumlaut" unicode="&#x170;" horiz-adv-x="530" 
d="M265 -7q-118 0 -166.5 43t-48.5 151v400q0 23 13 30t52 7q40 0 53 -7t13 -30v-407q0 -44 16.5 -59.5t67.5 -15.5t67 15.5t16 59.5v407q0 23 13.5 30t52.5 7q40 0 53 -7t13 -30v-400q0 -108 -48.5 -151t-166.5 -43zM128 691q0 14 31 125q3 15 15.5 20.5t53.5 5.5
q36 0 49 -5q15 -3 15 -20t-49 -122q-6 -15 -17.5 -21t-47.5 -6q-31 0 -40.5 5t-9.5 18zM290 691q0 12 48 127q5 13 18 18.5t51 5.5q34 0 49 -5q16 -6 16 -20q0 -17 -66 -122q-10 -17 -21.5 -22t-47.5 -5q-28 0 -37.5 5.5t-9.5 17.5z" />
    <glyph glyph-name="uhungarumlaut" unicode="&#x171;" horiz-adv-x="509" 
d="M182 -10q-75 0 -105.5 30t-30.5 104v332q0 24 13 30.5t53 6.5t53 -6.5t13 -30.5v-299q0 -33 11 -43.5t44 -10.5q51 0 71 35.5t20 123.5v194q0 24 13 30.5t53 6.5t53 -6.5t13 -30.5v-240q0 -54 5 -95t10 -62.5t5 -28.5q0 -16 -12.5 -23t-48.5 -7q-34 0 -44.5 5.5
t-16.5 27.5l-12 46q-41 -89 -160 -89zM108 562q0 14 31 125q3 15 15.5 20.5t53.5 5.5q36 0 49 -5q15 -3 15 -20t-49 -122q-6 -15 -17.5 -21t-47.5 -6q-31 0 -40.5 5t-9.5 18zM270 562q0 12 48 127q5 13 18 18.5t51 5.5q34 0 49 -5q16 -6 16 -20q0 -17 -66 -122
q-10 -17 -21.5 -22t-47.5 -5q-28 0 -37.5 5.5t-9.5 17.5z" />
    <glyph glyph-name="Uogonek" unicode="&#x172;" horiz-adv-x="530" 
d="M378 1q-81 -41 -81 -79q0 -17 13 -17q6 0 15 1.5t14 1.5q12 0 17.5 -8.5t5.5 -34.5q0 -27 -6.5 -36t-24.5 -15q-31 -11 -72 -11q-42 0 -62.5 17t-20.5 60q0 67 60 114q-101 5 -143.5 48.5t-42.5 144.5v400q0 23 13 30t52 7q40 0 53 -7t13 -30v-407q0 -44 16.5 -59.5
t67.5 -15.5t67 15.5t16 59.5v407q0 23 13.5 30t52.5 7q40 0 53 -7t13 -30v-400q0 -73 -21 -114.5t-81 -71.5z" />
    <glyph glyph-name="uogonek" unicode="&#x173;" horiz-adv-x="509" 
d="M372 -197q-41 0 -61.5 17t-20.5 60q0 37 16.5 64t59.5 65q-5 5 -10 21l-14 49q-41 -89 -160 -89q-75 0 -105.5 30t-30.5 104v332q0 24 13 30.5t53 6.5t53 -6.5t13 -30.5v-299q0 -33 11 -43.5t44 -10.5q51 0 71 35.5t20 123.5v194q0 24 13 30.5t53 6.5t53 -6.5t13 -30.5
v-240q0 -54 5 -95t10 -62.5t5 -28.5q0 -19 -28 -48q-38 -40 -38 -60q0 -17 14 -17q6 0 14.5 1.5t13.5 1.5q13 0 18.5 -8.5t5.5 -34.5q0 -27 -6.5 -36t-24.5 -15q-33 -11 -73 -11z" />
    <glyph glyph-name="Wcircumflex" unicode="&#x174;" horiz-adv-x="806" 
d="M215 0q-59 0 -81.5 10t-28.5 44l-88 499q-4 20 -4 40q0 18 12 24.5t51 6.5q43 0 57.5 -7t18.5 -31l67 -465h11l87 452q5 25 23 33t63 8q44 0 62 -8t23 -33l87 -452h12l67 465q4 24 18 31t58 7q39 0 50.5 -6.5t11.5 -24.5q0 -25 -3 -40l-88 -499q-6 -34 -28.5 -44
t-81.5 -10q-57 0 -81 11t-30 46l-72 371h-10l-72 -371q-6 -35 -30.5 -46t-80.5 -11zM406 749h-6l-35 -52q-13 -19 -25 -24t-44 -5q-42 0 -42 23q0 10 15 37l50 87q8 15 19.5 21t37.5 6h55q25 0 36.5 -6t19.5 -21l50 -87q15 -25 15 -37q0 -23 -42 -23q-32 0 -43.5 5t-24.5 24
z" />
    <glyph glyph-name="wcircumflex" unicode="&#x175;" horiz-adv-x="714" 
d="M692 411l-67 -364q-5 -28 -25.5 -37.5t-76.5 -9.5q-61 0 -84 9.5t-29 37.5l-49 241h-8l-48 -241q-6 -28 -29.5 -37.5t-84.5 -9.5q-56 0 -76.5 9.5t-25.5 37.5l-67 364q-6 29 -6 46q0 22 11.5 29t54.5 7t55.5 -6.5t16.5 -30.5l50 -339h12l62 328q4 23 20 30.5t59 7.5
t59 -7.5t20 -30.5l62 -328h12l50 339q4 24 16.5 30.5t55.5 6.5t54.5 -7t11.5 -29q0 -17 -6 -46zM360 620h-6l-35 -52q-13 -19 -25 -24t-44 -5q-42 0 -42 23q0 10 15 37l50 87q8 15 19.5 21t37.5 6h55q25 0 36.5 -6t19.5 -21l50 -87q15 -25 15 -37q0 -23 -42 -23
q-32 0 -43.5 5t-24.5 24z" />
    <glyph glyph-name="Ycircumflex" unicode="&#x176;" horiz-adv-x="484" 
d="M242 0q-40 0 -53 7t-13 30v187l-146 316q-17 37 -17 54q0 30 56 30q48 0 63 -7t24 -31l83 -226h5l83 226q9 25 23 31.5t61 6.5q60 0 60 -29q0 -18 -17 -55l-146 -316v-187q0 -23 -13.5 -30t-52.5 -7zM245 749h-6l-35 -52q-13 -19 -25 -24t-44 -5q-42 0 -42 23q0 10 15 37
l50 87q8 15 19.5 21t37.5 6h55q25 0 36.5 -6t19.5 -21l50 -87q15 -25 15 -37q0 -23 -42 -23q-32 0 -43.5 5t-24.5 24z" />
    <glyph glyph-name="ycircumflex" unicode="&#x177;" horiz-adv-x="479" 
d="M16 461q0 16 13 24t56 8q41 0 54 -6t17 -27l74 -351h13l80 351q4 21 17 27t53 6q43 0 56.5 -7t13.5 -24q0 -22 -18 -85l-116 -407q-29 -100 -62.5 -133.5t-116.5 -33.5q-63 0 -105 15q-15 6 -21 16.5t-6 37.5q0 53 23 53q1 0 32 -4.5t63 -4.5q40 0 54.5 10t20.5 40l7 34
q-52 0 -70 11.5t-27 43.5l-85 311q-20 76 -20 95zM243 620h-6l-35 -52q-13 -19 -25 -24t-44 -5q-42 0 -42 23q0 10 15 37l50 87q8 15 19.5 21t37.5 6h55q25 0 36.5 -6t19.5 -21l50 -87q15 -25 15 -37q0 -23 -42 -23q-32 0 -43.5 5t-24.5 24z" />
    <glyph glyph-name="Ydieresis" unicode="&#x178;" horiz-adv-x="484" 
d="M242 0q-40 0 -53 7t-13 30v187l-146 316q-17 37 -17 54q0 30 56 30q48 0 63 -7t24 -31l83 -226h5l83 226q9 25 23 31.5t61 6.5q60 0 60 -29q0 -18 -17 -55l-146 -316v-187q0 -23 -13.5 -30t-52.5 -7zM154 678q-43 0 -55 9t-12 39v14q0 31 12 40t55 9t55 -9t12 -40v-14
q0 -30 -12 -39t-55 -9zM331 678q-43 0 -55.5 9t-12.5 39v14q0 31 12 40t56 9q43 0 55 -9t12 -40v-14q0 -30 -12 -39t-55 -9z" />
    <glyph glyph-name="Zacute" unicode="&#x179;" horiz-adv-x="417" 
d="M245 508h-181q-19 0 -26.5 11.5t-7.5 46.5q0 34 7.5 46t26.5 12h301q21 0 27 -11t6 -43t-28 -84l-203 -370h203q19 0 26 -11.5t7 -46.5t-7 -46.5t-26 -11.5h-323q-21 0 -27.5 10.5t-6.5 42.5q0 30 32 89zM194 668q-53 0 -53 23q0 11 15 50l23 63q9 25 22 31.5t54 6.5
q40 0 53.5 -6t13.5 -19q0 -16 -18 -49l-39 -70q-11 -20 -22.5 -25t-48.5 -5z" />
    <glyph glyph-name="zacute" unicode="&#x17a;" horiz-adv-x="402" 
d="M381 56q0 -56 -27 -56h-309q-16 0 -21.5 12t-5.5 38q0 32 6.5 51.5t27.5 46.5l182 234h-169q-27 0 -27 56q0 55 27 55h289q27 0 27 -50q0 -54 -26 -86l-191 -246h190q27 0 27 -55zM190 539q-53 0 -53 23q0 11 15 50l23 63q9 25 22 31.5t54 6.5q40 0 53.5 -6t13.5 -19
q0 -16 -18 -49l-39 -70q-11 -20 -22.5 -25t-48.5 -5z" />
    <glyph glyph-name="Zdotaccent" unicode="&#x17b;" horiz-adv-x="417" 
d="M245 508h-181q-19 0 -26.5 11.5t-7.5 46.5q0 34 7.5 46t26.5 12h301q21 0 27 -11t6 -43t-28 -84l-203 -370h203q19 0 26 -11.5t7 -46.5t-7 -46.5t-26 -11.5h-323q-21 0 -27.5 10.5t-6.5 42.5q0 30 32 89zM212 678q-47 0 -59 9t-12 39v14q0 31 12 40t59 9t59 -9t12 -40
v-14q0 -30 -12 -39t-59 -9z" />
    <glyph glyph-name="zdotaccent" unicode="&#x17c;" horiz-adv-x="402" 
d="M381 56q0 -56 -27 -56h-309q-16 0 -21.5 12t-5.5 38q0 32 6.5 51.5t27.5 46.5l182 234h-169q-27 0 -27 56q0 55 27 55h289q27 0 27 -50q0 -54 -26 -86l-191 -246h190q27 0 27 -55zM213 546q-47 0 -59 9t-12 39v14q0 31 12 40t59 9t59 -9t12 -40v-14q0 -30 -12 -39t-59 -9
z" />
    <glyph glyph-name="Zcaron" unicode="&#x17d;" horiz-adv-x="417" 
d="M245 508h-181q-19 0 -26.5 11.5t-7.5 46.5q0 34 7.5 46t26.5 12h301q21 0 27 -11t6 -43t-28 -84l-203 -370h203q19 0 26 -11.5t7 -46.5t-7 -46.5t-26 -11.5h-323q-21 0 -27.5 10.5t-6.5 42.5q0 30 32 89zM63 819q0 12 8.5 17.5t33.5 5.5q34 0 44.5 -5t23.5 -24l36 -53h6
l35 53q13 19 23.5 24t45.5 5q25 0 33.5 -5.5t8.5 -17.5q0 -10 -15 -37l-50 -88q-8 -14 -19 -20t-37 -6h-55q-26 0 -37.5 5.5t-19.5 20.5l-50 88q-15 26 -15 37z" />
    <glyph glyph-name="zcaron" unicode="&#x17e;" horiz-adv-x="402" 
d="M381 56q0 -56 -27 -56h-309q-16 0 -21.5 12t-5.5 38q0 32 6.5 51.5t27.5 46.5l182 234h-169q-27 0 -27 56q0 55 27 55h289q27 0 27 -50q0 -54 -26 -86l-191 -246h190q27 0 27 -55zM64 690q0 12 8.5 17.5t33.5 5.5q34 0 44.5 -5t23.5 -24l36 -53h6l35 53q13 19 23.5 24
t45.5 5q25 0 33.5 -5.5t8.5 -17.5q0 -10 -15 -37l-50 -88q-8 -14 -19 -20t-37 -6h-55q-26 0 -37.5 5.5t-19.5 20.5l-50 88q-15 26 -15 37z" />
    <glyph glyph-name="florin" unicode="&#x192;" 
d="M96 377q0 30 5 39.5t21 9.5h59l12 81q10 71 38.5 96.5t88.5 25.5q47 0 87 -10q17 -4 22 -12.5t5 -36.5q0 -52 -22 -52q-4 0 -24 2t-35 2q-19 0 -25 -8t-10 -36l-7 -52h56q17 0 22 -9.5t5 -39.5q0 -29 -5.5 -39t-21.5 -10h-69l-29 -217q-9 -70 -39 -95.5t-92 -25.5
q-36 0 -79 9q-17 4 -22.5 13t-5.5 37q0 51 23 51q3 0 19.5 -2t32.5 -2q19 0 25 8t10 36l26 188h-45q-16 0 -21 10t-5 39z" />
    <glyph glyph-name="AEacute" unicode="&#x1fc;" horiz-adv-x="730" 
d="M76 0q-40 0 -51.5 6.5t-11.5 23.5q0 15 7 40l126 493q10 40 32 50.5t91 10.5h396q19 0 26.5 -12t7.5 -46q0 -35 -7.5 -46.5t-26.5 -11.5h-202v-125h139q21 0 27 -10.5t6 -46.5t-6 -46.5t-27 -10.5h-139v-153h212q19 0 26.5 -12t7.5 -46t-7.5 -46t-26.5 -12h-305
q-22 0 -30 6.5t-8 27.5v125h-153l-28 -121q-5 -24 -18.5 -31t-56.5 -7zM263 514l-60 -255h129v255h-69zM384 668q-53 0 -53 23q0 11 15 50l23 63q9 25 22 31.5t54 6.5q40 0 53.5 -6t13.5 -19q0 -16 -18 -49l-39 -70q-11 -20 -22.5 -25t-48.5 -5z" />
    <glyph glyph-name="aeacute" unicode="&#x1fd;" horiz-adv-x="740" 
d="M496 -10q-86 0 -124.5 20.5t-51.5 88.5q-35 -109 -161 -109q-67 0 -98 35t-31 113q0 81 42.5 116t150.5 35h78v37q0 44 -15.5 55t-61.5 11q-42 0 -90 -7.5t-53 -7.5q-23 0 -23 53q0 27 5.5 38t21.5 16q59 19 157 19q106 0 142 -31q48 31 139 31q58 0 93.5 -13t54.5 -44
t25.5 -71t6.5 -105q0 -31 -10 -45t-38 -14h-224q3 -72 20 -90t70 -18q38 0 73 3.5t56 7.5t24 4q21 0 21 -53q0 -28 -6 -39t-21 -16q-57 -20 -172 -20zM207 94q40 0 67 23t27 73v23l-77 -3q-41 -2 -55.5 -13.5t-14.5 -44.5q0 -35 12 -46.5t41 -11.5zM510 394q-46 0 -61.5 -18
t-17.5 -85h149q0 62 -12 82.5t-58 20.5zM368 539q-53 0 -53 23q0 11 15 50l23 63q9 25 22 31.5t54 6.5q40 0 53.5 -6t13.5 -19q0 -16 -18 -49l-39 -70q-11 -20 -22.5 -25t-48.5 -5z" />
    <glyph glyph-name="Oslashacute" unicode="&#x1fe;" horiz-adv-x="531" 
d="M238 668q-53 0 -53 23q0 11 15 50l23 63q9 25 22 31.5t54 6.5q40 0 53.5 -6t13.5 -19q0 -16 -18 -49l-39 -70q-11 -20 -22.5 -25t-48.5 -5zM265 -7q-42 0 -70 3t-56 13t-45 29t-30.5 49.5t-19.5 75.5t-6 107v75q0 95 11 151.5t41 86t68.5 38t106.5 8.5q69 0 107 -8.5
t68.5 -38t41.5 -86t11 -151.5v-75q0 -62 -6 -107t-19.5 -75.5t-30.5 -49.5t-45 -29t-56.5 -13t-70.5 -3zM170 339v-68l182 195q-9 30 -28 40t-59 10q-44 0 -62 -12t-25.5 -47.5t-7.5 -117.5zM265 106q43 0 61.5 12t26.5 48t8 117v63l-178 -193q8 -29 26.5 -38t55.5 -9z" />
    <glyph glyph-name="oslashacute" unicode="&#x1ff;" horiz-adv-x="506" 
d="M229 539q-53 0 -53 23q0 11 15 50l23 63q9 25 22 31.5t54 6.5q40 0 53.5 -6t13.5 -19q0 -16 -18 -49l-39 -70q-11 -20 -22.5 -25t-48.5 -5zM245 -10q-81 0 -123 19.5t-62 74t-20 159.5q0 108 23 164.5t68 76t130 19.5q61 0 97 -9.5t62 -37t36 -76t10 -127.5
q0 -108 -23 -165t-68.5 -77.5t-129.5 -20.5zM249 100q53 0 68 27t15 118v32l-150 -138q8 -23 23 -31t44 -8zM173 251v-34l149 140q-7 22 -22 29.5t-44 7.5q-53 0 -68 -26t-15 -117z" />
    <glyph glyph-name="Scommaaccent" unicode="&#x218;" horiz-adv-x="457" 
d="M205 -7q-78 0 -143 18q-17 5 -23 16.5t-6 45.5q0 31 5 41.5t16 10.5q4 0 45 -7.5t85 -7.5q58 0 85.5 15.5t27.5 55.5q0 29 -9 42.5t-38 26.5l-110 49q-49 22 -72.5 56.5t-23.5 101.5q0 172 181 172q91 0 159 -20q13 -3 18 -14.5t5 -45.5q0 -52 -22 -52q-1 0 -43 7.5
t-85 7.5q-47 0 -66.5 -10.5t-19.5 -46.5q0 -23 9.5 -33.5t35.5 -22.5l107 -47q55 -25 78 -59.5t23 -104.5q0 -195 -219 -195zM202 -243q-23 0 -31 5.5t-8 17.5q0 8 5.5 51t5.5 73q0 31 12 40t54 9q39 0 52.5 -7.5t13.5 -29.5q0 -41 -14 -73l-24 -55q-10 -19 -21.5 -25
t-44.5 -6z" />
    <glyph glyph-name="scommaaccent" unicode="&#x219;" horiz-adv-x="441" 
d="M203 -10q-83 0 -140 18q-15 5 -21 16.5t-6 39.5q0 53 22 53q1 0 47 -7t83 -7q47 0 65.5 11t18.5 35q0 25 -29 37l-112 48q-77 33 -77 127q0 142 172 142q79 0 144 -17q15 -4 21 -15t6 -43q0 -51 -24 -51q-2 0 -44.5 8t-75.5 8q-66 0 -66 -36q0 -14 6 -22t23 -15l108 -43
q45 -17 63 -46t18 -77q0 -164 -202 -164zM188 -243q-23 0 -31 5.5t-8 17.5q0 8 5.5 51t5.5 73q0 31 12 40t54 9q39 0 52.5 -7.5t13.5 -29.5q0 -41 -14 -73l-24 -55q-10 -19 -21.5 -25t-44.5 -6z" />
    <glyph glyph-name="dotlessj" unicode="&#x237;" horiz-adv-x="229" 
d="M112 493q40 0 53 -6.5t13 -30.5v-525q0 -69 -30.5 -98.5t-89.5 -29.5q-47 0 -86 12q-17 4 -23.5 15t-6.5 40q0 32 5 41t17 9q5 0 22 -2t27 -2q20 0 26.5 8t6.5 35v497q0 24 13 30.5t53 6.5z" />
    <glyph glyph-name="circumflex" unicode="&#x2c6;" horiz-adv-x="344" 
d="M194 620h-6l-35 -52q-13 -19 -25 -24t-44 -5q-42 0 -42 23q0 10 15 37l50 87q8 15 19.5 21t37.5 6h55q25 0 36.5 -6t19.5 -21l50 -87q15 -25 15 -37q0 -23 -42 -23q-32 0 -43.5 5t-24.5 24z" />
    <glyph glyph-name="caron" unicode="&#x2c7;" horiz-adv-x="344" 
d="M23 690q0 12 8.5 17.5t33.5 5.5q34 0 44.5 -5t23.5 -24l36 -53h6l35 53q13 19 23.5 24t45.5 5q25 0 33.5 -5.5t8.5 -17.5q0 -10 -15 -37l-50 -88q-8 -14 -19 -20t-37 -6h-55q-26 0 -37.5 5.5t-19.5 20.5l-50 88q-15 26 -15 37z" />
    <glyph glyph-name="breve" unicode="&#x2d8;" horiz-adv-x="312" 
d="M156 545q-74 0 -103.5 26t-29.5 94q0 24 8.5 30.5t36.5 6.5t35.5 -5t9.5 -23q2 -20 9 -26.5t34 -6.5t34 6.5t9 26.5q2 18 9.5 23t35.5 5t36.5 -6.5t8.5 -30.5q0 -68 -29.5 -94t-103.5 -26z" />
    <glyph glyph-name="dotaccent" unicode="&#x2d9;" horiz-adv-x="188" 
d="M93 546q-47 0 -59 9t-12 39v14q0 31 12 40t59 9t59 -9t12 -40v-14q0 -30 -12 -39t-59 -9z" />
    <glyph glyph-name="ring" unicode="&#x2da;" horiz-adv-x="309" 
d="M154 624q27 0 34 6.5t7 25.5t-7 25t-34 6t-34 -6t-7 -25t7.5 -25.5t33.5 -6.5zM154 544q-71 0 -101 23.5t-30 88.5t30 88t101 23q72 0 101.5 -23t29.5 -88t-29.5 -88.5t-101.5 -23.5z" />
    <glyph glyph-name="ogonek" unicode="&#x2db;" horiz-adv-x="232" 
d="M105 -197q-41 0 -61.5 17t-20.5 60q0 47 29 84t103 101h54q0 -27 -7 -42.5t-28 -42.5q-31 -40 -31 -58q0 -17 14 -17q6 0 14.5 1.5t13.5 1.5q13 0 18.5 -8.5t5.5 -34.5q0 -27 -6.5 -36t-24.5 -15q-33 -11 -73 -11z" />
    <glyph glyph-name="tilde" unicode="&#x2dc;" horiz-adv-x="344" 
d="M23 600q0 26 5.5 37.5t20.5 21.5q33 19 68 19q26 0 62.5 -9.5t54.5 -9.5q21 0 43.5 7.5t26.5 7.5q10 0 13.5 -8t3.5 -36q0 -26 -5.5 -37.5t-20.5 -20.5q-30 -20 -68 -20q-27 0 -63.5 10t-53.5 10q-22 0 -44 -8t-26 -8q-10 0 -13.5 8t-3.5 36z" />
    <glyph glyph-name="hungarumlaut" unicode="&#x2dd;" horiz-adv-x="391" 
d="M23 562q0 14 31 125q3 15 15.5 20.5t53.5 5.5q36 0 49 -5q15 -3 15 -20t-49 -122q-6 -15 -18 -21t-47 -6q-31 0 -40.5 5t-9.5 18zM185 562q0 12 48 127q5 13 18 18.5t51 5.5q34 0 49 -5q16 -6 16 -20q0 -17 -66 -122q-10 -17 -21.5 -22t-47.5 -5q-28 0 -37.5 5.5
t-9.5 17.5z" />
    <glyph glyph-name="afii10023" unicode="&#x401;" horiz-adv-x="455" 
d="M434 58q0 -34 -7.5 -46t-26.5 -12h-312q-22 0 -30 6.5t-8 27.5v556q0 21 8 27.5t30 6.5h302q19 0 26.5 -12t7.5 -46q0 -35 -7.5 -46.5t-26.5 -11.5h-209v-125h145q22 0 28 -10.5t6 -46.5t-6 -46.5t-28 -10.5h-145v-153h219q19 0 26.5 -12t7.5 -46zM148 676q-43 0 -55 9
t-12 39v14q0 31 12 40t55 9t55 -9t12 -40v-14q0 -30 -12 -39t-55 -9zM325 676q-43 0 -55.5 9t-12.5 39v14q0 31 12 40t56 9q43 0 55 -9t12 -40v-14q0 -30 -12 -39t-55 -9z" />
    <glyph glyph-name="afii10051" unicode="&#x402;" horiz-adv-x="588" 
d="M213 0q-40 0 -53 6.5t-13 30.5v471h-103q-20 0 -27 11.5t-7 46.5t7 46.5t27 11.5h344q20 0 27 -11.5t7 -46.5t-7 -46.5t-27 -11.5h-110v-123q39 68 135 68q69 0 97 -32.5t28 -108.5v-201q0 -64 -28.5 -90t-80.5 -26q-32 0 -67 7q-19 5 -26 17t-7 42q0 33 5 41.5t18 8.5
q2 0 13 -1.5t19 -1.5q14 0 18 8t4 35v130q0 33 -11 46t-43 13q-38 0 -56 -30t-18 -99v-174q0 -24 -13 -30.5t-52 -6.5z" />
    <glyph glyph-name="afii10052" unicode="&#x403;" horiz-adv-x="407" 
d="M188 674q-53 0 -53 23q0 11 15 50l23 63q9 25 22 31.5t54 6.5q40 0 53.5 -6t13.5 -19q0 -16 -18 -49l-39 -70q-11 -20 -22.5 -25t-48.5 -5zM115 0q-39 0 -52 7t-13 30v553q0 21 8 27.5t30 6.5h272q19 0 26.5 -12t7.5 -46q0 -35 -7.5 -46.5t-26.5 -11.5h-179v-471
q0 -23 -13 -30t-53 -7z" />
    <glyph glyph-name="afii10053" unicode="&#x404;" horiz-adv-x="453" 
d="M382 320q0 -32 -6 -41.5t-28 -9.5h-185q0 -58 5 -89t21 -47t34.5 -19.5t58.5 -3.5q41 0 82 6.5t44 6.5q11 0 15 -10.5t4 -41.5q0 -33 -5.5 -44.5t-18.5 -14.5q-73 -19 -152 -19q-32 0 -56 3t-50 12t-44 27t-33 46.5t-22.5 72.5t-7.5 102v93q0 75 12.5 128.5t30.5 82.5
t49 45t58.5 20t67.5 4q76 0 147 -19q13 -3 18.5 -14t5.5 -45q0 -51 -19 -51q-2 0 -42 6t-77 6q-76 0 -100 -24.5t-26 -116.5h185q22 0 28 -9.5t6 -41.5z" />
    <glyph glyph-name="afii10054" unicode="&#x405;" horiz-adv-x="457" 
d="M205 -7q-78 0 -143 18q-17 5 -23 16.5t-6 45.5q0 31 5 41.5t16 10.5q4 0 45 -7.5t85 -7.5q58 0 85.5 15.5t27.5 55.5q0 29 -9 42.5t-38 26.5l-110 49q-49 22 -72.5 56.5t-23.5 101.5q0 172 181 172q91 0 159 -20q13 -3 18 -14.5t5 -45.5q0 -52 -22 -52q-1 0 -43 7.5
t-85 7.5q-47 0 -66.5 -10.5t-19.5 -46.5q0 -23 9.5 -33.5t35.5 -22.5l107 -47q55 -25 78 -59.5t23 -104.5q0 -195 -219 -195z" />
    <glyph glyph-name="afii10055" unicode="&#x406;" horiz-adv-x="231" 
d="M115 0q-39 0 -52 7t-13 30v550q0 23 13 30t52 7q40 0 53 -7t13 -30v-550q0 -23 -13 -30t-53 -7z" />
    <glyph glyph-name="afii10056" unicode="&#x407;" horiz-adv-x="231" 
d="M115 0q-39 0 -52 7t-13 30v550q0 23 13 30t52 7q40 0 53 -7t13 -30v-550q0 -23 -13 -30t-53 -7zM27 675q-43 0 -55 9t-12 39v14q0 31 12 40t55 9t55 -9t12 -40v-14q0 -30 -12 -39t-55 -9zM204 675q-43 0 -55.5 9t-12.5 39v14q0 31 12 40t56 9q43 0 55 -9t12 -40v-14
q0 -30 -12 -39t-55 -9z" />
    <glyph glyph-name="afii10057" unicode="&#x408;" horiz-adv-x="355" 
d="M146 -7q-59 0 -110 15q-17 6 -23 17t-6 44q0 31 4.5 39.5t16.5 8.5q7 0 34.5 -3.5t48.5 -3.5q37 0 49.5 13t12.5 54v410q0 23 13.5 30t52.5 7q40 0 53 -7t13 -30v-407q0 -102 -37 -144.5t-122 -42.5z" />
    <glyph glyph-name="afii10058" unicode="&#x409;" horiz-adv-x="828" 
d="M109 -7q-35 0 -70 7q-16 3 -22.5 15.5t-6.5 46.5q0 30 5 38t16 8q5 0 15 -1.5t17 -1.5q15 0 21.5 7.5t9.5 32.5l47 447q2 19 10 25.5t29 6.5h286q23 0 31 -6.5t8 -27.5v-210q70 7 131 7q95 0 128 -44.5t33 -153.5q0 -113 -45.5 -154.5t-178.5 -41.5q-85 0 -163 8
q-23 2 -30 9.5t-7 29.5v468h-117l-47 -427q-5 -47 -28.5 -67.5t-71.5 -20.5zM581 283q-12 0 -76 -2v-181q29 -3 75 -3q54 0 68.5 17.5t14.5 79.5q0 55 -16 72t-66 17z" />
    <glyph glyph-name="afii10059" unicode="&#x40a;" horiz-adv-x="811" 
d="M115 0q-39 0 -52 7t-13 30v550q0 23 13 30t52 7q40 0 53 -7t13 -30v-216h174v216q0 23 13.5 30t52.5 7q40 0 53 -7t13 -30v-207q70 7 131 7q95 0 128.5 -44.5t33.5 -153.5q0 -112 -45.5 -154t-178.5 -42q-86 0 -164 8q-23 2 -30 9.5t-7 29.5v222h-174v-225q0 -23 -13 -30
t-53 -7zM564 283q-11 0 -77 -2v-181q29 -3 75 -3q55 0 69 17t14 80q0 55 -15.5 72t-65.5 17z" />
    <glyph glyph-name="afii10060" unicode="&#x40b;" horiz-adv-x="588" 
d="M213 0q-40 0 -53 6.5t-13 30.5v471h-103q-20 0 -27 11.5t-7 46.5t7 46.5t27 11.5h344q20 0 27 -11.5t7 -46.5t-7 -46.5t-27 -11.5h-110v-123q39 68 135 68q69 0 97 -32.5t28 -108.5v-275q0 -24 -13 -30.5t-53 -6.5t-53 6.5t-13 30.5v244q0 33 -11 46t-43 13
q-38 0 -56 -30t-18 -99v-174q0 -24 -13 -30.5t-52 -6.5z" />
    <glyph glyph-name="afii10061" unicode="&#x40c;" horiz-adv-x="495" 
d="M115 0q-39 0 -52 7t-13 30v550q0 23 13 30t52 7q40 0 53 -7t13 -30v-232h17l124 237q11 20 25.5 26t59.5 6q36 0 49 -6.5t13 -20.5q0 -11 -15 -36l-142 -247l145 -232q23 -36 23 -52q0 -14 -13.5 -22t-56.5 -8q-35 0 -50 6t-26 25l-136 239h-17v-233q0 -23 -13 -30
t-53 -7zM215 674q-53 0 -53 23q0 11 15 50l23 63q9 25 22 31.5t54 6.5q40 0 53.5 -6t13.5 -19q0 -16 -18 -49l-39 -70q-11 -20 -22.5 -25t-48.5 -5z" />
    <glyph glyph-name="afii10062" unicode="&#x40e;" horiz-adv-x="495" 
d="M13 596q0 28 65 28q40 0 53.5 -6.5t19.5 -27.5l93 -313h9l89 309q7 24 20.5 31t57.5 7q61 0 61 -28q0 -18 -15 -59l-155 -433q-21 -57 -55.5 -83t-93.5 -26q-62 0 -98 10q-17 4 -23 15t-6 45q0 31 4.5 39t16.5 8q8 0 34.5 -2.5t45.5 -2.5q37 0 55.5 11.5t29.5 47.5l1 4
h-7q-33 0 -48.5 11t-24.5 37l-114 316q-15 40 -15 62zM248 680q-74 0 -103.5 26t-29.5 94q0 24 8.5 30.5t36.5 6.5t35.5 -5t9.5 -23q2 -20 9 -26.5t34 -6.5t34 6.5t9 26.5q2 18 9.5 23t35.5 5t36.5 -6.5t8.5 -30.5q0 -68 -29.5 -94t-103.5 -26z" />
    <glyph glyph-name="afii10145" unicode="&#x40f;" horiz-adv-x="530" 
d="M265 -104q-29 0 -35.5 5.5t-8.5 29.5l-5 69h-128q-22 0 -30 6.5t-8 27.5v553q0 23 13 30t52 7q40 0 53 -7t13 -30v-471h168v471q0 23 13 30t52 7q40 0 53 -7t13 -30v-553q0 -21 -8 -27.5t-30 -6.5h-129l-4 -69q-2 -24 -8.5 -29.5t-35.5 -5.5z" />
    <glyph glyph-name="afii10017" unicode="&#x410;" horiz-adv-x="539" 
d="M76 0q-40 0 -51.5 6.5t-11.5 23.5q0 8 7 40l126 493q10 40 32.5 50.5t90.5 10.5q69 0 91.5 -10.5t32.5 -50.5l126 -493q7 -32 7 -40q0 -17 -12 -23.5t-51 -6.5q-43 0 -56 7t-19 31l-31 121h-178l-28 -121q-5 -24 -18.5 -31t-56.5 -7zM263 514l-60 -255h133l-60 255h-13z
" />
    <glyph glyph-name="afii10018" unicode="&#x411;" horiz-adv-x="516" 
d="M253 -7q-100 0 -167 8q-23 2 -29.5 9.5t-6.5 29.5v550q0 21 8 27.5t30 6.5h317q19 0 26.5 -12t7.5 -46q0 -35 -7.5 -46.5t-26.5 -11.5h-224v-135q77 7 139 7q95 0 128 -43t33 -151q0 -112 -46.5 -152.5t-181.5 -40.5zM266 277q-31 0 -85 -3v-173q27 -4 79 -4
q58 0 72.5 15.5t14.5 78.5q0 53 -15 69.5t-66 16.5z" />
    <glyph glyph-name="afii10019" unicode="&#x412;" horiz-adv-x="519" 
d="M253 -7q-100 0 -167 8q-23 2 -29.5 9.5t-6.5 29.5v539q0 23 7.5 31.5t28.5 10.5q64 8 145 8q51 0 84 -3t63 -12.5t46 -27t25.5 -46t9.5 -70.5q0 -63 -17 -97.5t-62 -46.5q54 -11 77.5 -46.5t23.5 -111.5q0 -99 -47.5 -137t-180.5 -38zM181 516v-148h64q51 0 65.5 16
t14.5 66q0 44 -13.5 57t-61.5 13q-35 0 -69 -4zM181 277v-176q27 -4 79 -4q58 0 72.5 15.5t14.5 78.5q0 52 -15.5 69t-65.5 17h-85z" />
    <glyph glyph-name="afii10020" unicode="&#x413;" horiz-adv-x="407" 
d="M115 0q-39 0 -52 7t-13 30v553q0 21 8 27.5t30 6.5h272q19 0 26.5 -12t7.5 -46q0 -35 -7.5 -46.5t-26.5 -11.5h-179v-471q0 -23 -13 -30t-53 -7z" />
    <glyph glyph-name="afii10021" unicode="&#x414;" horiz-adv-x="572" 
d="M63 -104q-30 0 -40 6t-10 28v148q0 24 9.5 31t37.5 7h16l54 476q2 19 10 25.5t30 6.5h293q22 0 30 -6.5t8 -27.5v-474h10q28 0 38 -7t10 -31v-148q0 -22 -10 -28t-40 -6q-31 0 -41.5 6.5t-15.5 27.5l-18 70h-297l-17 -70q-5 -22 -15.5 -28t-41.5 -6zM245 508l-43 -392
h168v392h-125z" />
    <glyph glyph-name="afii10022" unicode="&#x415;" horiz-adv-x="455" 
d="M434 58q0 -34 -7.5 -46t-26.5 -12h-312q-22 0 -30 6.5t-8 27.5v556q0 21 8 27.5t30 6.5h302q19 0 26.5 -12t7.5 -46q0 -35 -7.5 -46.5t-26.5 -11.5h-209v-125h145q22 0 28 -10.5t6 -46.5t-6 -46.5t-28 -10.5h-145v-153h219q19 0 26.5 -12t7.5 -46z" />
    <glyph glyph-name="afii10024" unicode="&#x416;" horiz-adv-x="743" 
d="M84 0q-43 0 -56 7.5t-13 22.5q0 16 22 52l140 232l-138 247q-13 23 -13 36q0 14 12.5 20.5t48.5 6.5q45 0 59.5 -6t24.5 -26l119 -237h14v232q0 23 13 30t53 7t53 -7t13 -30v-232h17l119 237q11 21 25.5 26.5t58.5 5.5q36 0 48.5 -6.5t12.5 -20.5q0 -13 -13 -36
l-138 -247l141 -232q21 -34 21 -52q0 -15 -13 -22.5t-56 -7.5q-35 0 -50 6t-25 25l-131 239h-17v-233q0 -23 -13 -30t-53 -7t-53 7t-13 30v233h-13l-131 -239q-10 -19 -25.5 -25t-50.5 -6z" />
    <glyph glyph-name="afii10025" unicode="&#x417;" horiz-adv-x="456" 
d="M87 317q0 30 6.5 41t27.5 11h52q60 0 78.5 19t18.5 64q0 36 -13 49.5t-55 13.5q-38 0 -87 -5t-52 -5q-22 0 -22 52q0 34 4.5 43.5t19.5 13.5q60 15 172 15q84 0 126 -33.5t42 -124.5q0 -62 -28 -102t-80 -47q63 -4 91.5 -39t28.5 -108q0 -97 -49.5 -139.5t-147.5 -42.5
t-167 15q-17 4 -23.5 14.5t-6.5 43.5q0 31 5 41.5t17 10.5q4 0 58 -5.5t92 -5.5q52 0 70 20t18 63q0 44 -20 60t-89 16h-53q-21 0 -27.5 11t-6.5 40z" />
    <glyph glyph-name="afii10026" unicode="&#x418;" horiz-adv-x="556" 
d="M441 0q-40 0 -53 7t-13 30v343h-8l-180 -345q-12 -24 -24.5 -29.5t-42.5 -5.5q-44 0 -57 6.5t-13 30.5v550q0 23 13 30t52 7q40 0 53 -7t13 -30v-344h9l174 345q14 24 26.5 30t43.5 6q45 0 59 -7t14 -30v-550q0 -23 -13 -30t-53 -7z" />
    <glyph glyph-name="afii10027" unicode="&#x419;" horiz-adv-x="556" 
d="M279 680q-74 0 -103.5 26t-29.5 94q0 24 8.5 30.5t36.5 6.5t35.5 -5t9.5 -23q2 -20 9 -26.5t34 -6.5t34 6.5t9 26.5q2 18 9.5 23t35.5 5t36.5 -6.5t8.5 -30.5q0 -68 -29.5 -94t-103.5 -26zM441 0q-40 0 -53 7t-13 30v343h-8l-180 -345q-12 -24 -24.5 -29.5t-42.5 -5.5
q-44 0 -57 6.5t-13 30.5v550q0 23 13 30t52 7q40 0 53 -7t13 -30v-344h9l174 345q14 24 26.5 30t43.5 6q45 0 59 -7t14 -30v-550q0 -23 -13 -30t-53 -7z" />
    <glyph glyph-name="afii10028" unicode="&#x41a;" horiz-adv-x="495" 
d="M115 0q-39 0 -52 7t-13 30v550q0 23 13 30t52 7q40 0 53 -7t13 -30v-232h17l124 237q11 20 25.5 26t59.5 6q36 0 49 -6.5t13 -20.5q0 -11 -15 -36l-142 -247l145 -232q23 -36 23 -52q0 -14 -13.5 -22t-56.5 -8q-35 0 -50 6t-26 25l-136 239h-17v-233q0 -23 -13 -30
t-53 -7z" />
    <glyph glyph-name="afii10029" unicode="&#x41b;" horiz-adv-x="564" 
d="M449 0q-40 0 -53 7t-13 30v471h-123l-48 -427q-5 -47 -28.5 -67.5t-71.5 -20.5q-35 0 -70 7q-16 3 -22.5 15.5t-6.5 46.5q0 20 3 30.5t7 13t11 2.5q6 0 15.5 -1.5t16.5 -1.5q15 0 21.5 7.5t9.5 32.5l47 447q2 19 10 25.5t30 6.5h292q23 0 31 -6.5t8 -27.5v-553
q0 -23 -13.5 -30t-52.5 -7z" />
    <glyph glyph-name="afii10030" unicode="&#x41c;" horiz-adv-x="657" 
d="M115 0q-39 0 -52 7t-13 30v541q0 26 15 36t59 10q51 0 69.5 -7.5t30.5 -36.5l102 -259h5l102 259q12 29 30.5 36.5t68.5 7.5q45 0 60 -10t15 -36v-541q0 -23 -13 -30t-53 -7q-39 0 -52 7t-13 30q0 197 3 381h-6l-78 -217q-10 -28 -22 -36t-45 -8q-32 0 -44 7.5t-22 36.5
l-79 217h-5q3 -184 3 -381q0 -23 -13 -30t-53 -7z" />
    <glyph glyph-name="afii10031" unicode="&#x41d;" horiz-adv-x="537" 
d="M181 371h174v216q0 23 13.5 30t52.5 7q40 0 53 -7t13 -30v-550q0 -23 -13 -30t-53 -7q-39 0 -52.5 7t-13.5 30v225h-174v-225q0 -23 -13 -30t-53 -7q-39 0 -52 7t-13 30v550q0 23 13 30t52 7q40 0 53 -7t13 -30v-216z" />
    <glyph glyph-name="afii10032" unicode="&#x41e;" horiz-adv-x="531" 
d="M265 106q43 0 61.5 12t26.5 48t8 117v56q0 82 -7.5 117.5t-26 47.5t-62.5 12q-42 0 -60.5 -12t-26.5 -48t-8 -117v-56q0 -82 7.5 -117.5t25.5 -47.5t62 -12zM265 -7q-66 0 -104 8.5t-68.5 37t-42.5 84t-12 147.5v75q0 64 5.5 110t18.5 77.5t29 50.5t44.5 29.5t57 13.5
t72.5 3q69 0 107 -8.5t68.5 -38t41.5 -86t11 -151.5v-75q0 -62 -6 -107t-19.5 -75.5t-30.5 -49.5t-45 -29t-56.5 -13t-70.5 -3z" />
    <glyph glyph-name="afii10033" unicode="&#x41f;" horiz-adv-x="530" 
d="M115 0q-39 0 -52 7t-13 30v553q0 21 8 27.5t30 6.5h354q22 0 30 -6.5t8 -27.5v-553q0 -23 -13 -30t-53 -7q-39 0 -52 7t-13 30v471h-168v-471q0 -23 -13 -30t-53 -7z" />
    <glyph glyph-name="afii10034" unicode="&#x420;" horiz-adv-x="498" 
d="M115 0q-39 0 -52 7t-13 30v540q0 23 7.5 31.5t28.5 11.5q66 9 178 9q56 0 90.5 -7t62 -28t39.5 -61t12 -104q0 -127 -59.5 -174.5t-187.5 -47.5h-40v-170q0 -23 -13 -30t-53 -7zM181 516v-202h47q62 0 83 21.5t21 85.5q0 60 -17.5 79.5t-65.5 19.5q-34 0 -68 -4z" />
    <glyph glyph-name="afii10035" unicode="&#x421;" horiz-adv-x="453" 
d="M254 -7q-52 0 -86 8t-66.5 33.5t-48 80.5t-15.5 141v93q0 76 12 129t30.5 82t49.5 45t58.5 20t68.5 4q75 0 146 -19q13 -4 18.5 -15t5.5 -45q0 -52 -19 -52q-2 0 -42 7t-77 7t-56.5 -4.5t-35.5 -22.5t-21.5 -51.5t-5.5 -92.5v-58q0 -62 5 -96.5t21.5 -51.5t35 -21
t57.5 -4t77 7t42 7q11 0 15 -10.5t4 -41.5q0 -33 -5.5 -44.5t-18.5 -15.5q-71 -19 -149 -19z" />
    <glyph glyph-name="afii10036" unicode="&#x422;" horiz-adv-x="445" 
d="M223 0q-40 0 -53 7t-13 30v471h-113q-20 0 -27 11.5t-7 46.5t7 46.5t27 11.5h358q19 0 26 -11.5t7 -46.5t-7 -46.5t-26 -11.5h-114v-471q0 -23 -13 -30t-52 -7z" />
    <glyph glyph-name="afii10037" unicode="&#x423;" horiz-adv-x="495" 
d="M13 596q0 28 65 28q40 0 53.5 -6.5t19.5 -27.5l93 -313h9l89 309q7 24 20.5 31t57.5 7q61 0 61 -28q0 -18 -15 -59l-155 -433q-21 -57 -55.5 -83t-93.5 -26q-62 0 -98 10q-17 4 -23 15t-6 45q0 31 4.5 39t16.5 8q8 0 34.5 -2.5t45.5 -2.5q37 0 55.5 11.5t29.5 47.5l1 4
h-7q-33 0 -48.5 11t-24.5 37l-114 316q-15 40 -15 62z" />
    <glyph glyph-name="afii10038" unicode="&#x424;" horiz-adv-x="672" 
d="M29 324q0 69 15 113t47 66t68.5 29.5t92.5 7.5h19v53q0 23 13.5 30t52.5 7q40 0 53 -7t13 -30v-53h20q56 0 92.5 -7.5t68.5 -29.5t47 -66t15 -113q0 -131 -54.5 -179.5t-168.5 -48.5h-20v-66q0 -23 -13 -30t-53 -7q-39 0 -52.5 7t-13.5 30v66h-19q-114 0 -168.5 48.5
t-54.5 179.5zM423 433h-20v-230h20q57 0 75.5 22.5t18.5 98.5q0 70 -18.5 89.5t-75.5 19.5zM158 324q0 -76 18.5 -98.5t75.5 -22.5h19v230h-19q-57 0 -75.5 -19.5t-18.5 -89.5z" />
    <glyph glyph-name="afii10039" unicode="&#x425;" horiz-adv-x="504" 
d="M80 0q-65 0 -65 31q0 13 22 48l146 241l-133 222q-22 35 -22 50q0 32 67 32q40 0 54.5 -7t27.5 -31l74 -143h4l72 143q12 24 27 31t55 7q67 0 67 -32q0 -11 -22 -49l-134 -222l147 -240q22 -35 22 -50q0 -31 -66 -31q-40 0 -54 6.5t-28 31.5l-88 166h-4l-87 -166
q-13 -24 -27.5 -31t-54.5 -7z" />
    <glyph glyph-name="afii10040" unicode="&#x426;" horiz-adv-x="565" 
d="M500 -104q-32 0 -43 6t-16 28l-17 70h-336q-22 0 -30 6.5t-8 27.5v553q0 23 13 30t52 7q40 0 53 -7t13 -30v-471h168v471q0 23 13 30t52 7q40 0 53 -7t13 -30v-471h11q36 0 48.5 -7t12.5 -31v-148q0 -21 -11 -27.5t-41 -6.5z" />
    <glyph glyph-name="afii10041" unicode="&#x427;" horiz-adv-x="499" 
d="M197 222q-95 0 -131 36.5t-36 141.5v187q0 23 13 30t52 7q40 0 53 -7t13 -30v-169q0 -54 13.5 -69.5t59.5 -15.5q34 0 83 3v251q0 23 13.5 30t52.5 7q40 0 53 -7t13 -30v-550q0 -23 -13 -30t-53 -7q-39 0 -52.5 7t-13.5 30v194q-57 -9 -120 -9z" />
    <glyph glyph-name="afii10042" unicode="&#x428;" horiz-adv-x="806" 
d="M115 624q40 0 53 -7t13 -30v-471h156v471q0 23 13 30t53 7q39 0 52.5 -7t13.5 -30v-471h155v471q0 23 13.5 30t52.5 7q40 0 53 -7t13 -30v-553q0 -21 -8 -27.5t-31 -6.5h-629q-22 0 -30 6.5t-8 27.5v553q0 23 13 30t52 7z" />
    <glyph glyph-name="afii10043" unicode="&#x429;" horiz-adv-x="841" 
d="M699 0h-611q-22 0 -30 6.5t-8 27.5v553q0 23 13 30t52 7q40 0 53 -7t13 -30v-471h156v471q0 23 13 30t53 7q39 0 52.5 -7t13.5 -30v-471h155v471q0 23 13.5 30t52.5 7q40 0 53 -7t13 -30v-471h11q36 0 48.5 -7t12.5 -31v-148q0 -21 -11 -27.5t-41 -6.5q-32 0 -43 6.5
t-16 27.5z" />
    <glyph glyph-name="afii10044" unicode="&#x42a;" horiz-adv-x="557" 
d="M304 -7q-97 0 -164 8q-23 2 -29.5 9.5t-6.5 29.5v468h-60q-20 0 -27 11.5t-7 46.5t7 46.5t27 11.5h125q40 0 53 -7t13 -30v-207q72 7 132 7q95 0 128 -44.5t33 -153.5q0 -112 -45.5 -154t-178.5 -42zM312 283q-28 0 -77 -3v-180q30 -3 76 -3q54 0 68 17.5t14 79.5
q0 55 -15.5 72t-65.5 17z" />
    <glyph glyph-name="afii10045" unicode="&#x42b;" horiz-adv-x="731" 
d="M115 624q40 0 53 -7t13 -30v-207q72 7 132 7q95 0 128 -44.5t33 -153.5q0 -112 -45.5 -154t-178.5 -42q-97 0 -164 8q-23 2 -29.5 9.5t-6.5 29.5v547q0 23 13 30t52 7zM258 283q-11 0 -77 -2v-181q30 -3 76 -3q54 0 68 17.5t14 79.5q0 55 -15.5 72t-65.5 17zM618 0
q-39 0 -52 7t-13 30v550q0 23 13 30t52 7q40 0 53 -7t13 -30v-550q0 -23 -13 -30t-53 -7z" />
    <glyph glyph-name="afii10046" unicode="&#x42c;" horiz-adv-x="503" 
d="M115 624q40 0 53 -7t13 -30v-207q72 7 132 7q95 0 128 -44.5t33 -153.5q0 -112 -45.5 -154t-178.5 -42q-97 0 -164 8q-23 2 -29.5 9.5t-6.5 29.5v547q0 23 13 30t52 7zM258 283q-11 0 -77 -2v-181q30 -3 76 -3q54 0 68 17.5t14 79.5q0 55 -15.5 72t-65.5 17z" />
    <glyph glyph-name="afii10047" unicode="&#x42d;" horiz-adv-x="460" 
d="M74 320q0 32 6 41.5t28 9.5h189q-2 92 -26 116.5t-100 24.5q-37 0 -77 -6t-42 -6q-19 0 -19 51q0 34 5.5 45t18.5 14q73 19 147 19q40 0 67.5 -4t58.5 -20t49 -45t30.5 -82.5t12.5 -128.5v-93q0 -58 -7.5 -102t-22.5 -72.5t-33 -46.5t-44 -27t-50 -12t-56 -3
q-79 0 -152 19q-13 3 -18.5 14.5t-5.5 44.5q0 30 4 41t15 11q3 0 44 -6.5t82 -6.5q40 0 58.5 3.5t34.5 19.5t20.5 47t5.5 89h-189q-22 0 -28 9.5t-6 41.5z" />
    <glyph glyph-name="afii10048" unicode="&#x42e;" horiz-adv-x="783" 
d="M518 -7q-51 0 -83.5 5t-63 20.5t-46.5 45.5t-25.5 80t-9.5 123h-109v-230q0 -23 -13 -30t-53 -7q-39 0 -52 7t-13 30v550q0 23 13 30t52 7q40 0 53 -7t13 -30v-205h109q2 82 14.5 131t43 75t68 33.5t102.5 7.5q69 0 107 -8.5t68 -38t41 -86t11 -151.5v-75q0 -62 -6 -107
t-19.5 -75.5t-30.5 -49.5t-45 -29t-56 -13t-70 -3zM518 106q42 0 61 12t27 48t8 117v56q0 82 -7.5 117.5t-26 47.5t-62.5 12t-62.5 -12t-26 -47.5t-7.5 -117.5v-56q0 -81 8 -117t26.5 -48t61.5 -12z" />
    <glyph glyph-name="afii10049" unicode="&#x42f;" horiz-adv-x="508" 
d="M396 0q-39 0 -52.5 7t-13.5 30v204h-40q-28 0 -41 1l-79 -206q-10 -25 -23.5 -30.5t-63.5 -5.5q-53 0 -53 26q0 11 14 41l92 197q-92 41 -92 176q0 114 46.5 151.5t156.5 37.5q101 0 178 -9q21 -3 29 -11.5t8 -31.5v-540q0 -23 -13 -30t-53 -7zM179 432q0 -60 20.5 -79
t83.5 -19h47v182q-32 4 -67 4q-47 0 -65.5 -18t-18.5 -70z" />
    <glyph glyph-name="afii10065" unicode="&#x430;" horiz-adv-x="486" 
d="M159 -10q-67 0 -98 35t-31 113q0 81 42.5 116t150.5 35h78v37q0 44 -15.5 55t-61.5 11q-42 0 -90 -7.5t-53 -7.5q-23 0 -23 53q0 27 5.5 38t21.5 16q59 19 157 19q104 0 146.5 -27.5t42.5 -114.5v-145q0 -54 4.5 -95t9.5 -62.5t5 -28.5q0 -16 -12 -23t-49 -7
q-33 0 -44 5.5t-17 27.5l-14 51q-38 -94 -155 -94zM207 94q40 0 67 23t27 73v23l-77 -3q-41 -2 -55.5 -13.5t-14.5 -44.5q0 -35 12 -46.5t41 -11.5z" />
    <glyph glyph-name="afii10066" unicode="&#x431;" horiz-adv-x="513" 
d="M263 -10q-122 0 -171 50.5t-49 190.5v194q0 144 50.5 195.5t174.5 51.5q86 0 162 -13q25 -4 25 -54t-22 -50q-8 0 -55.5 4t-80.5 4q-76 0 -97.5 -19.5t-21.5 -95.5v-10q32 65 138 65q47 0 75 -9.5t47.5 -38t27 -78.5t7.5 -134q0 -105 -22.5 -160t-65.5 -74t-122 -19z
M263 100q49 0 63 26t14 127q0 66 -7.5 95t-23 37.5t-52.5 8.5q-47 0 -64.5 -27.5t-17.5 -110.5v-19q0 -86 17.5 -111.5t70.5 -25.5z" />
    <glyph glyph-name="afii10067" unicode="&#x432;" horiz-adv-x="497" 
d="M253 107q48 0 63 10.5t15 42.5q0 30 -18.5 41.5t-71.5 11.5h-60v-103q25 -3 72 -3zM246 -7q-92 0 -160 10q-23 3 -29.5 9.5t-6.5 27.5v410q0 23 7.5 31.5t28.5 10.5q64 8 168 8q112 0 155 -23t43 -100q0 -64 -25 -91.5t-81 -33.5q64 -6 91 -31t27 -91q0 -85 -49 -111
t-169 -26zM250 386q-42 0 -69 -3v-92h59q44 0 61 10.5t17 40.5q0 28 -13.5 36t-54.5 8z" />
    <glyph glyph-name="afii10068" unicode="&#x433;" horiz-adv-x="357" 
d="M115 0q-39 0 -52 7t-13 30v423q0 20 8 26.5t30 6.5h226q19 0 26 -11.5t7 -46.5t-7 -46.5t-26 -11.5h-133v-340q0 -23 -13 -30t-53 -7z" />
    <glyph glyph-name="afii10069" unicode="&#x434;" horiz-adv-x="520" 
d="M60 -104q-30 0 -40 6t-10 28v129q0 36 6 46.5t27 10.5h21l47 340q4 24 16 30.5t50 6.5h206q40 0 53 -7t13 -30v-340h11q28 0 37.5 -7t9.5 -31v-148q0 -22 -10 -28t-40 -6t-41 6t-16 28l-17 70h-249l-17 -70q-5 -22 -16 -28t-41 -6zM223 382l-35 -266h129v266h-94z" />
    <glyph glyph-name="afii10070" unicode="&#x435;" horiz-adv-x="479" 
d="M260 -10q-59 0 -95.5 8.5t-67 34t-44 77t-13.5 133.5q0 85 12.5 138t42 79t64 34.5t92.5 8.5q62 0 100 -13t58.5 -44t27 -71t6.5 -105q0 -31 -10 -45t-39 -14h-224q3 -70 21.5 -89t77.5 -19q34 0 67 3.5t53 7.5t24 4q22 0 22 -53q0 -28 -6 -39t-21 -16q-58 -20 -148 -20z
M249 394q-45 0 -60.5 -18t-18.5 -85h149q0 62 -12 82.5t-58 20.5z" />
    <glyph glyph-name="afii10072" unicode="&#x436;" horiz-adv-x="703" 
d="M81 0q-69 0 -69 26q0 14 12 32l135 200l-119 178q-16 22 -16 36q0 21 65 21q43 0 58.5 -6t27.5 -26l99 -163h12v158q0 24 13 30.5t53 6.5t53 -6.5t13 -30.5v-158h11l100 163q13 21 28 26.5t57 5.5q65 0 65 -21q0 -12 -15 -36l-120 -178l135 -200q13 -19 13 -32
q0 -26 -69 -26q-38 0 -52 6t-27 26l-115 185h-11v-180q0 -24 -13 -30.5t-53 -6.5t-53 6.5t-13 30.5v180h-12l-114 -185q-13 -20 -27.5 -26t-51.5 -6z" />
    <glyph glyph-name="afii10073" unicode="&#x437;" horiz-adv-x="436" 
d="M100 252q0 26 6.5 36t27.5 10h36q45 0 62.5 9.5t17.5 37.5q0 26 -12.5 33.5t-53.5 7.5q-38 0 -78 -4.5t-43 -4.5q-22 0 -22 52q0 23 3.5 35.5t7.5 16t13 5.5q64 14 152 14q85 0 126 -24t41 -94q0 -72 -24 -98t-82 -32q65 -7 91.5 -30t26.5 -90q0 -85 -45 -112t-144 -27
q-87 0 -154 14q-18 4 -24 14.5t-6 44.5q0 31 5 41.5t17 10.5q4 0 47 -5.5t82 -5.5q56 0 72.5 9.5t16.5 40.5q0 29 -18 39t-73 10h-38q-21 0 -27.5 10t-6.5 36z" />
    <glyph glyph-name="afii10074" unicode="&#x438;" horiz-adv-x="523" 
d="M408 493q39 0 52.5 -7.5t13.5 -32.5v-416q0 -23 -13.5 -30t-52.5 -7q-40 0 -53 7t-13 30v257h-8l-144 -258q-13 -23 -28 -29.5t-47 -6.5q-39 0 -52 7t-13 33v416q0 23 13 30t52 7q40 0 53 -7t13 -30v-248h7l150 256q11 19 24.5 24t45.5 5z" />
    <glyph glyph-name="afii10075" unicode="&#x439;" horiz-adv-x="523" 
d="M261 545q-74 0 -103.5 26t-29.5 94q0 24 8.5 30.5t36.5 6.5t35.5 -5t9.5 -23q2 -20 9 -26.5t34 -6.5t34 6.5t9 26.5q2 18 9.5 23t35.5 5t36.5 -6.5t8.5 -30.5q0 -68 -29.5 -94t-103.5 -26zM408 493q39 0 52.5 -7.5t13.5 -32.5v-416q0 -23 -13.5 -30t-52.5 -7q-40 0 -53 7
t-13 30v257h-8l-144 -258q-13 -23 -28 -29.5t-47 -6.5q-39 0 -52 7t-13 33v416q0 23 13 30t52 7q40 0 53 -7t13 -30v-248h7l150 256q11 19 24.5 24t45.5 5z" />
    <glyph glyph-name="afii10076" unicode="&#x43a;" horiz-adv-x="470" 
d="M115 0q-39 0 -52 6.5t-13 30.5v419q0 24 13 30.5t52 6.5q40 0 53 -6.5t13 -30.5v-158h12l103 163q13 20 28.5 26t57.5 6q64 0 64 -21q0 -12 -15 -36l-122 -178l137 -200q13 -19 13 -32q0 -26 -69 -26q-37 0 -51.5 6t-27.5 26l-118 185h-12v-180q0 -24 -13 -30.5t-53 -6.5
z" />
    <glyph glyph-name="afii10077" unicode="&#x43b;" horiz-adv-x="517" 
d="M401 0q-39 0 -52.5 7t-13.5 30v345h-94l-38 -301q-6 -47 -29 -67.5t-70 -20.5q-35 0 -70 7q-16 3 -22.5 15.5t-6.5 46.5q0 30 5 38t16 8q5 0 15 -1.5t17 -1.5q15 0 21 7t10 33l41 311q3 23 12 30t34 7h252q23 0 31 -6.5t8 -26.5v-423q0 -23 -13 -30t-53 -7z" />
    <glyph glyph-name="afii10078" unicode="&#x43c;" horiz-adv-x="643" 
d="M115 0q-39 0 -52 7t-13 30v411q0 26 14.5 35.5t59.5 9.5q49 0 65 -7.5t28 -35.5l102 -242h5l102 242q12 29 27.5 36t65.5 7q45 0 60 -9.5t15 -35.5v-411q0 -23 -13.5 -30t-52.5 -7q-40 0 -53 7t-13 30q0 65 3 260h-5l-72 -186q-11 -28 -22.5 -36t-43.5 -8t-44 8t-23 36
l-72 186h-5q3 -195 3 -260q0 -23 -13 -30t-53 -7z" />
    <glyph glyph-name="afii10079" unicode="&#x43d;" horiz-adv-x="502" 
d="M181 308h140v148q0 23 13 30t53 7q39 0 52 -7t13 -30v-419q0 -23 -13 -30t-52 -7q-40 0 -53 7t-13 30v162h-140v-162q0 -23 -13 -30t-53 -7q-39 0 -52 7t-13 30v419q0 23 13 30t52 7q40 0 53 -7t13 -30v-148z" />
    <glyph glyph-name="afii10080" unicode="&#x43e;" horiz-adv-x="506" 
d="M245 -10q-81 0 -123 19.5t-62 74t-20 159.5q0 108 23 164.5t68 76t130 19.5q61 0 97 -9.5t62 -37t36 -76t10 -127.5q0 -108 -23 -165t-68.5 -77.5t-129.5 -20.5zM249 100q53 0 68 27t15 118q0 97 -14 123t-62 26q-53 0 -68 -26t-15 -117q0 -97 14 -124t62 -27z" />
    <glyph glyph-name="afii10081" unicode="&#x43f;" horiz-adv-x="502" 
d="M115 0q-39 0 -52 7t-13 30v423q0 20 8 26.5t30 6.5h326q22 0 30 -6.5t8 -26.5v-423q0 -23 -13 -30t-52 -7q-40 0 -53 7t-13 30v347h-140v-347q0 -23 -13 -30t-53 -7z" />
    <glyph glyph-name="afii10082" unicode="&#x440;" horiz-adv-x="526" 
d="M122 -187q-40 0 -53 7t-13 30v427q0 54 -5 95t-10 62.5t-5 28.5q0 16 12 23t49 7q34 0 44.5 -5.5t16.5 -27.5l10 -39q40 82 154 82q97 0 130.5 -49.5t33.5 -196.5q0 -111 -20 -170t-56.5 -78t-103.5 -19q-92 0 -119 51v-191q0 -23 -13 -30t-52 -7zM271 100q35 0 50.5 10
t23 42t7.5 101q0 92 -14 116.5t-62 24.5q-49 0 -70 -26t-21 -104v-40q0 -75 17.5 -99.5t68.5 -24.5z" />
    <glyph glyph-name="afii10083" unicode="&#x441;" horiz-adv-x="431" 
d="M250 -10q-55 0 -89.5 8.5t-64.5 34t-43 77t-13 133.5q0 85 13 138t41.5 79t62 34.5t87.5 8.5q70 0 130 -18q15 -5 21 -16t6 -39q0 -53 -22 -53q-3 0 -46.5 7t-69.5 7q-39 0 -56 -7.5t-27 -36.5t-10 -92q0 -71 7 -101t25.5 -40.5t63.5 -10.5q38 0 76 7l38 8q22 0 22 -53
q0 -28 -6 -39t-21 -16q-57 -20 -125 -20z" />
    <glyph glyph-name="afii10084" unicode="&#x442;" horiz-adv-x="412" 
d="M206 0q-40 0 -53 7t-13 30v340h-93q-19 0 -26.5 12t-7.5 46q0 35 7.5 46.5t26.5 11.5h318q19 0 26 -11.5t7 -46.5t-7 -46.5t-26 -11.5h-93v-340q0 -23 -13.5 -30t-52.5 -7z" />
    <glyph glyph-name="afii10085" unicode="&#x443;" horiz-adv-x="479" 
d="M16 461q0 16 13 24t56 8q41 0 54 -6t17 -27l74 -351h13l80 351q4 21 17 27t53 6q43 0 56.5 -7t13.5 -24q0 -22 -18 -85l-116 -407q-29 -100 -62.5 -133.5t-116.5 -33.5q-63 0 -105 15q-15 6 -21 16.5t-6 37.5q0 53 23 53q1 0 32 -4.5t63 -4.5q40 0 54.5 10t20.5 40l7 34
q-52 0 -70 11.5t-27 43.5l-85 311q-20 76 -20 95z" />
    <glyph glyph-name="afii10086" unicode="&#x444;" horiz-adv-x="788" 
d="M193 -10q-96 0 -126.5 48.5t-30.5 197.5q0 112 18.5 170.5t53.5 77.5t102 19q90 0 117 -63v180q0 23 13 30t53 7q39 0 52 -7t13 -30v-183q32 66 134 66q96 0 126.5 -48.5t30.5 -197.5q0 -112 -18.5 -170t-53.5 -77.5t-102 -19.5q-89 0 -117 60v-200q0 -23 -13 -30t-52 -7
q-40 0 -53 7t-13 30v204q-36 -64 -134 -64zM537 100q34 0 49 10t22 41.5t7 101.5q0 93 -12.5 117t-60.5 24q-50 0 -68 -24t-18 -101v-47q0 -76 15 -99t66 -23zM243 100q51 0 68.5 26t17.5 99v45q0 76 -15 100t-66 24q-34 0 -49.5 -10.5t-22 -42t-6.5 -101.5q0 -92 13 -116
t60 -24z" />
    <glyph glyph-name="afii10087" unicode="&#x445;" horiz-adv-x="459" 
d="M79 0q-63 0 -63 26q0 10 13 30l122 197l-107 172q-17 27 -17 39q0 16 15 22.5t54 6.5q44 0 57.5 -5t21.5 -26l54 -103h4l52 103q9 21 21.5 26t56.5 5q39 0 54 -6.5t15 -22.5q0 -12 -16 -37l-109 -166l122 -202q14 -22 14 -32q0 -27 -63 -27q-45 0 -62 7.5t-28 35.5
l-60 119h-4l-58 -119q-10 -27 -27 -35t-62 -8z" />
    <glyph glyph-name="afii10088" unicode="&#x446;" horiz-adv-x="515" 
d="M452 -104q-31 0 -41.5 6t-15.5 28l-17 70h-290q-22 0 -30 6.5t-8 27.5v422q0 23 13 30t52 7q40 0 53 -7t13 -30v-340h131v340q0 23 13 30t53 7t53 -7t13 -30v-340h11q28 0 37.5 -7t9.5 -31v-148q0 -22 -10 -28t-40 -6z" />
    <glyph glyph-name="afii10089" unicode="&#x447;" horiz-adv-x="458" 
d="M187 158q-92 0 -128 36.5t-36 141.5v120q0 23 13 30t53 7q39 0 52 -7t13 -30v-102q0 -53 12.5 -69t51.5 -16q37 0 59 2v185q0 23 13 30t53 7q39 0 52.5 -7t13.5 -30v-419q0 -23 -13.5 -30t-52.5 -7q-40 0 -53 7t-13 30v127q-42 -6 -90 -6z" />
    <glyph glyph-name="afii10090" unicode="&#x448;" horiz-adv-x="739" 
d="M690 456v-422q0 -21 -8 -27.5t-31 -6.5h-563q-22 0 -30 6.5t-8 27.5v422q0 23 13 30t52 7q40 0 53 -7t13 -30v-340h123v340q0 23 13 30t53 7q39 0 52 -7t13 -30v-340h123v340q0 23 13 30t53 7q39 0 52.5 -7t13.5 -30z" />
    <glyph glyph-name="afii10091" unicode="&#x449;" horiz-adv-x="761" 
d="M698 -104q-31 0 -41.5 6t-15.5 28l-17 70h-536q-22 0 -30 6.5t-8 27.5v422q0 23 13 30t52 7q40 0 53 -7t13 -30v-340h123v340q0 23 13 30t53 7q39 0 52 -7t13 -30v-340h123v340q0 23 13 30t53 7q39 0 52.5 -7t13.5 -30v-340h10q28 0 38 -7t10 -31v-148q0 -22 -10 -28
t-40 -6z" />
    <glyph glyph-name="afii10092" unicode="&#x44a;" horiz-adv-x="507" 
d="M83 377h-39q-20 0 -27 11.5t-7 46.5t7 46.5t27 11.5h105q39 0 52.5 -6.5t13.5 -30.5v-131h73q114 0 154 -30.5t40 -126.5q0 -57 -12.5 -92.5t-42 -53.5t-64.5 -23.5t-94 -5.5q-79 0 -149 10q-24 3 -30.5 9.5t-6.5 27.5v337zM287 221h-72v-116q39 -3 64 -3q44 0 58 11.5
t14 50.5q0 34 -12.5 45.5t-51.5 11.5z" />
    <glyph glyph-name="afii10093" unicode="&#x44b;" horiz-adv-x="703" 
d="M235 -7q-79 0 -149 10q-23 3 -29.5 9.5t-6.5 27.5v416q0 24 13 30.5t52 6.5q40 0 53 -6.5t13 -30.5v-131h73q114 0 154.5 -31t40.5 -126q0 -57 -12.5 -92.5t-42 -53.5t-65 -23.5t-94.5 -5.5zM254 221h-73v-116q39 -3 65 -3q43 0 57 11.5t14 50.5q0 34 -12.5 45.5
t-50.5 11.5zM588 0q-40 0 -53 6.5t-13 30.5v419q0 24 13 30.5t53 6.5t53 -6.5t13 -30.5v-419q0 -24 -13 -30.5t-53 -6.5z" />
    <glyph glyph-name="afii10094" unicode="&#x44c;" horiz-adv-x="474" 
d="M235 -7q-79 0 -149 10q-23 3 -29.5 9.5t-6.5 27.5v416q0 24 13 30.5t52 6.5q40 0 53 -6.5t13 -30.5v-131h73q114 0 154.5 -31t40.5 -126q0 -57 -12.5 -92.5t-42 -53.5t-65 -23.5t-94.5 -5.5zM254 221h-73v-116q39 -3 65 -3q43 0 57 11.5t14 50.5q0 34 -12.5 45.5
t-50.5 11.5z" />
    <glyph glyph-name="afii10095" unicode="&#x44d;" horiz-adv-x="452" 
d="M191 -10q-80 0 -137 20q-15 5 -21 16t-6 39q0 53 21 53q3 0 44.5 -7.5t85.5 -7.5q69 0 90.5 17.5t25.5 81.5h-164q-20 0 -26.5 9.5t-6.5 38.5q0 28 6 37.5t27 9.5h164q-2 63 -21 78.5t-82 15.5q-38 0 -84 -6.5t-50 -6.5q-22 0 -22 53q0 28 6 39t21 16q64 17 146 17
q64 0 99.5 -8t63.5 -35.5t38 -78.5t10 -138q0 -83 -12.5 -133.5t-43.5 -76.5t-69.5 -34.5t-102.5 -8.5z" />
    <glyph glyph-name="afii10096" unicode="&#x44e;" horiz-adv-x="730" 
d="M469 -10q-111 0 -155 42.5t-49 169.5h-84v-165q0 -24 -13 -30.5t-53 -6.5q-39 0 -52 6.5t-13 30.5v419q0 24 13 30.5t52 6.5q40 0 53 -6.5t13 -30.5v-146h85q9 115 58 154t161 39q61 0 97.5 -9.5t62 -37t35.5 -75.5t10 -128q0 -82 -11.5 -133t-39.5 -80t-67 -39.5
t-103 -10.5zM473 100q53 0 68.5 27t15.5 118q0 67 -6.5 97.5t-21.5 41t-49 10.5q-53 0 -68 -26t-15 -117q0 -97 14 -124t62 -27z" />
    <glyph glyph-name="afii10097" unicode="&#x44f;" horiz-adv-x="489" 
d="M85 0q-37 0 -48 6t-11 18t17 41l75 128q-45 14 -62.5 48t-17.5 98q0 100 48.5 130.5t166.5 30.5q74 0 150 -9q23 -2 29.5 -9.5t6.5 -28.5v-416q0 -24 -13 -30.5t-52 -6.5q-40 0 -53 6.5t-13 30.5v143h-72l-68 -144q-11 -24 -24.5 -30t-58.5 -6zM172 327q0 -31 12 -40.5
t51 -9.5h73v106q-39 3 -65 3q-43 0 -57 -11.5t-14 -47.5z" />
    <glyph glyph-name="afii10071" unicode="&#x451;" horiz-adv-x="479" 
d="M260 -10q-59 0 -95.5 8.5t-67 34t-44 77t-13.5 133.5q0 85 12.5 138t42 79t64 34.5t92.5 8.5q62 0 100 -13t58.5 -44t27 -71t6.5 -105q0 -31 -10 -45t-39 -14h-224q3 -70 21.5 -89t77.5 -19q34 0 67 3.5t53 7.5t24 4q22 0 22 -53q0 -28 -6 -39t-21 -16q-58 -20 -148 -20z
M249 394q-45 0 -60.5 -18t-18.5 -85h149q0 62 -12 82.5t-58 20.5zM151 546q-43 0 -55 9t-12 39v14q0 31 12 40t55 9t55 -9t12 -40v-14q0 -30 -12 -39t-55 -9zM328 546q-43 0 -55.5 9t-12.5 39v14q0 31 12 40t56 9q43 0 55 -9t12 -40v-14q0 -30 -12 -39t-55 -9z" />
    <glyph glyph-name="afii10099" unicode="&#x452;" horiz-adv-x="508" 
d="M113 0q-39 0 -52.5 6.5t-13.5 30.5v480h-16q-19 0 -25 7.5t-6 30.5t6 30.5t25 7.5h16v27q0 23 13.5 30t52.5 7q40 0 53 -7t13 -30v-27h114q19 0 24.5 -7t5.5 -31t-5.5 -31t-24.5 -7h-114v-107q38 64 142 64q78 0 108 -32.5t30 -108.5v-402q0 -69 -30.5 -98.5t-89.5 -29.5
q-40 0 -86 12q-17 5 -24 16t-7 39q0 32 5.5 41t17.5 9q5 0 22 -2t27 -2q20 0 26.5 8t6.5 35v342q0 34 -11.5 47t-43.5 13q-52 0 -72.5 -35.5t-20.5 -123.5v-165q0 -24 -13 -30.5t-53 -6.5z" />
    <glyph glyph-name="afii10100" unicode="&#x453;" horiz-adv-x="357" 
d="M163 539q-53 0 -53 23q0 11 15 50l23 63q9 25 22 31.5t54 6.5q40 0 53.5 -6t13.5 -19q0 -16 -18 -49l-39 -70q-11 -20 -22.5 -25t-48.5 -5zM115 0q-39 0 -52 7t-13 30v423q0 20 8 26.5t30 6.5h226q19 0 26 -11.5t7 -46.5t-7 -46.5t-26 -11.5h-133v-340q0 -23 -13 -30
t-53 -7z" />
    <glyph glyph-name="afii10101" unicode="&#x454;" horiz-adv-x="459" 
d="M267 -10q-64 0 -102 8.5t-69 34.5t-43.5 76.5t-12.5 133.5q0 87 10 138t37.5 78.5t63 35.5t99.5 8q83 0 147 -17q15 -5 21 -16t6 -39q0 -53 -22 -53q-4 0 -51 6.5t-84 6.5q-64 0 -82.5 -15.5t-21.5 -78.5h165q21 0 27.5 -9.5t6.5 -37.5q0 -29 -6.5 -38.5t-27.5 -9.5h-164
q4 -64 25.5 -81.5t91.5 -17.5q44 0 85 7.5t45 7.5q21 0 21 -53q0 -28 -6 -39t-21 -16q-57 -20 -138 -20z" />
    <glyph glyph-name="afii10102" unicode="&#x455;" horiz-adv-x="441" 
d="M203 -10q-83 0 -140 18q-15 5 -21 16.5t-6 39.5q0 53 22 53q1 0 47 -7t83 -7q47 0 65.5 11t18.5 35q0 25 -29 37l-112 48q-77 33 -77 127q0 142 172 142q79 0 144 -17q15 -4 21 -15t6 -43q0 -51 -24 -51q-2 0 -44.5 8t-75.5 8q-66 0 -66 -36q0 -14 6 -22t23 -15l108 -43
q45 -17 63 -46t18 -77q0 -164 -202 -164z" />
    <glyph glyph-name="afii10103" unicode="&#x456;" horiz-adv-x="229" 
d="M112 0q-40 0 -53 6.5t-13 30.5v419q0 24 13 30.5t53 6.5t53 -6.5t13 -30.5v-419q0 -24 -13 -30.5t-53 -6.5zM112 546q-47 0 -59 9t-12 39v14q0 31 12 40t59 9t59 -9t12 -40v-14q0 -30 -12 -39t-59 -9z" />
    <glyph glyph-name="afii10104" unicode="&#x457;" horiz-adv-x="229" 
d="M27 546q-43 0 -55 9t-12 39v14q0 31 12 40t55 9t55 -9t12 -40v-14q0 -30 -12 -39t-55 -9zM204 546q-43 0 -55.5 9t-12.5 39v14q0 31 12 40t56 9q43 0 55 -9t12 -40v-14q0 -30 -12 -39t-55 -9zM112 0q-40 0 -53 6.5t-13 30.5v419q0 24 13 30.5t53 6.5t53 -6.5t13 -30.5
v-419q0 -24 -13 -30.5t-53 -6.5z" />
    <glyph glyph-name="afii10105" unicode="&#x458;" horiz-adv-x="229" 
d="M112 493q40 0 53 -6.5t13 -30.5v-525q0 -69 -30.5 -98.5t-89.5 -29.5q-47 0 -86 12q-17 4 -23.5 15t-6.5 40q0 32 5 41t17 9q5 0 22 -2t27 -2q20 0 26.5 8t6.5 35v497q0 24 13 30.5t53 6.5zM112 546q-47 0 -59 9t-12 39v14q0 31 12 40t59 9t59 -9t12 -40v-14
q0 -30 -12 -39t-59 -9z" />
    <glyph glyph-name="afii10106" unicode="&#x459;" horiz-adv-x="758" 
d="M106 -7q-36 0 -70 7q-17 3 -23 15.5t-6 46.5q0 30 5 38t16 8q5 0 14.5 -1.5t16.5 -1.5q15 0 21 7t10 33l41 311q3 23 12 30t35 7h250q23 0 31 -6.5t8 -26.5v-135h71q114 0 154.5 -31t40.5 -126q0 -57 -12.5 -92.5t-42 -53.5t-65 -23.5t-93.5 -5.5q-78 0 -148 10
q-24 3 -30.5 9.5t-6.5 27.5v342h-92l-38 -301q-6 -47 -29 -67.5t-70 -20.5zM538 221h-71v-116q39 -3 63 -3q44 0 57.5 11.5t13.5 50.5q0 34 -12.5 45.5t-50.5 11.5z" />
    <glyph glyph-name="afii10107" unicode="&#x45a;" horiz-adv-x="742" 
d="M115 0q-39 0 -52 7t-13 30v419q0 23 13 30t52 7q40 0 53 -7t13 -30v-148h138v148q0 23 13 30t53 7t53 -7t13 -30v-131h71q114 0 154.5 -31t40.5 -126q0 -57 -12.5 -92.5t-42 -53.5t-65 -23.5t-94.5 -5.5q-77 0 -147 10q-24 3 -30.5 9.5t-6.5 27.5v159h-138v-162
q0 -23 -13 -30t-53 -7zM522 221h-71v-116q36 -3 63 -3q43 0 57 11.5t14 50.5q0 34 -12.5 45.5t-50.5 11.5z" />
    <glyph glyph-name="afii10108" unicode="&#x45b;" horiz-adv-x="508" 
d="M0 555q0 23 6 30.5t25 7.5h16v27q0 23 13.5 30t52.5 7q40 0 53 -7t13 -30v-27h114q19 0 24.5 -7t5.5 -31t-5.5 -31t-24.5 -7h-114v-107q38 64 142 64q78 0 108 -32.5t30 -108.5v-296q0 -24 -13.5 -30.5t-52.5 -6.5t-52.5 6.5t-13.5 30.5v264q0 34 -11.5 47t-43.5 13
q-52 0 -72.5 -35.5t-20.5 -123.5v-165q0 -24 -13 -30.5t-53 -6.5q-39 0 -52.5 6.5t-13.5 30.5v480h-16q-19 0 -25 7.5t-6 30.5z" />
    <glyph glyph-name="afii10109" unicode="&#x45c;" horiz-adv-x="470" 
d="M204 539q-53 0 -53 23q0 11 15 50l23 63q9 25 22 31.5t54 6.5q40 0 53.5 -6t13.5 -19q0 -16 -18 -49l-39 -70q-11 -20 -22.5 -25t-48.5 -5zM115 0q-39 0 -52 6.5t-13 30.5v419q0 24 13 30.5t52 6.5q40 0 53 -6.5t13 -30.5v-158h12l103 163q13 20 28.5 26t57.5 6
q64 0 64 -21q0 -12 -15 -36l-122 -178l137 -200q13 -19 13 -32q0 -26 -69 -26q-37 0 -51.5 6t-27.5 26l-118 185h-12v-180q0 -24 -13 -30.5t-53 -6.5z" />
    <glyph glyph-name="afii10110" unicode="&#x45e;" horiz-adv-x="479" 
d="M16 461q0 16 13 24t56 8q41 0 54 -6t17 -27l74 -351h13l80 351q4 21 17 27t53 6q43 0 56.5 -7t13.5 -24q0 -22 -18 -85l-116 -407q-29 -100 -62.5 -133.5t-116.5 -33.5q-63 0 -105 15q-15 6 -21 16.5t-6 37.5q0 53 23 53q1 0 32 -4.5t63 -4.5q40 0 54.5 10t20.5 40l7 34
q-52 0 -70 11.5t-27 43.5l-85 311q-20 76 -20 95zM239 545q-74 0 -103.5 26t-29.5 94q0 24 8.5 30.5t36.5 6.5t35.5 -5t9.5 -23q2 -20 9 -26.5t34 -6.5t34 6.5t9 26.5q2 18 9.5 23t35.5 5t36.5 -6.5t8.5 -30.5q0 -68 -29.5 -94t-103.5 -26z" />
    <glyph glyph-name="afii10193" unicode="&#x45f;" horiz-adv-x="493" 
d="M247 -104q-29 0 -35.5 5.5t-8.5 29.5l-5 69h-110q-22 0 -30 6.5t-8 27.5v422q0 23 13 30t52 7q40 0 53 -7t13 -30v-347h131v347q0 23 13 30t53 7t53 -7t13 -30v-422q0 -21 -8 -27.5t-31 -6.5h-110l-4 -69q-2 -24 -8.5 -29.5t-35.5 -5.5z" />
    <glyph glyph-name="afii10050" unicode="&#x490;" horiz-adv-x="407" 
d="M344 728q30 0 40 -6t10 -28v-148q0 -24 -9.5 -31t-38.5 -7h-165v-471q0 -23 -13 -30t-53 -7q-39 0 -52 7t-13 30v553q0 21 8 27.5t30 6.5h182l17 70q7 22 17 28t40 6z" />
    <glyph glyph-name="afii10098" unicode="&#x491;" horiz-adv-x="360" 
d="M297 598q30 0 40 -6.5t10 -28.5v-147q0 -25 -9.5 -32t-37.5 -7h-119v-340q0 -23 -13 -30t-53 -7q-39 0 -52 7t-13 30v423q0 20 8 26.5t30 6.5h135l17 70q8 22 18 28.5t39 6.5z" />
    <glyph glyph-name="Wgrave" unicode="&#x1e80;" horiz-adv-x="806" 
d="M215 0q-59 0 -81.5 10t-28.5 44l-88 499q-4 20 -4 40q0 18 12 24.5t51 6.5q43 0 57.5 -7t18.5 -31l67 -465h11l87 452q5 25 23 33t63 8q44 0 62 -8t23 -33l87 -452h12l67 465q4 24 18 31t58 7q39 0 50.5 -6.5t11.5 -24.5q0 -25 -3 -40l-88 -499q-6 -34 -28.5 -44
t-81.5 -10q-57 0 -81 11t-30 46l-72 371h-10l-72 -371q-6 -35 -30.5 -46t-80.5 -11zM413 668q-35 0 -48 5.5t-23 24.5l-39 70q-18 34 -18 49q0 13 13.5 19t53.5 6q41 0 54 -6.5t22 -31.5l23 -63q15 -41 15 -50q0 -23 -53 -23z" />
    <glyph glyph-name="wgrave" unicode="&#x1e81;" horiz-adv-x="714" 
d="M692 411l-67 -364q-5 -28 -25.5 -37.5t-76.5 -9.5q-61 0 -84 9.5t-29 37.5l-49 241h-8l-48 -241q-6 -28 -29.5 -37.5t-84.5 -9.5q-56 0 -76.5 9.5t-25.5 37.5l-67 364q-6 29 -6 46q0 22 11.5 29t54.5 7t55.5 -6.5t16.5 -30.5l50 -339h12l62 328q4 23 20 30.5t59 7.5
t59 -7.5t20 -30.5l62 -328h12l50 339q4 24 16.5 30.5t55.5 6.5t54.5 -7t11.5 -29q0 -17 -6 -46zM383 539q-35 0 -48 5.5t-23 24.5l-39 70q-18 34 -18 49q0 13 13.5 19t53.5 6q41 0 54 -6.5t22 -31.5l23 -63q15 -41 15 -50q0 -23 -53 -23z" />
    <glyph glyph-name="Wacute" unicode="&#x1e82;" horiz-adv-x="806" 
d="M215 0q-59 0 -81.5 10t-28.5 44l-88 499q-4 20 -4 40q0 18 12 24.5t51 6.5q43 0 57.5 -7t18.5 -31l67 -465h11l87 452q5 25 23 33t63 8q44 0 62 -8t23 -33l87 -452h12l67 465q4 24 18 31t58 7q39 0 50.5 -6.5t11.5 -24.5q0 -25 -3 -40l-88 -499q-6 -34 -28.5 -44
t-81.5 -10q-57 0 -81 11t-30 46l-72 371h-10l-72 -371q-6 -35 -30.5 -46t-80.5 -11zM393 668q-53 0 -53 23q0 11 15 50l23 63q9 25 22 31.5t54 6.5q40 0 53.5 -6t13.5 -19q0 -16 -18 -49l-39 -70q-11 -20 -22.5 -25t-48.5 -5z" />
    <glyph glyph-name="wacute" unicode="&#x1e83;" horiz-adv-x="714" 
d="M692 411l-67 -364q-5 -28 -25.5 -37.5t-76.5 -9.5q-61 0 -84 9.5t-29 37.5l-49 241h-8l-48 -241q-6 -28 -29.5 -37.5t-84.5 -9.5q-56 0 -76.5 9.5t-25.5 37.5l-67 364q-6 29 -6 46q0 22 11.5 29t54.5 7t55.5 -6.5t16.5 -30.5l50 -339h12l62 328q4 23 20 30.5t59 7.5
t59 -7.5t20 -30.5l62 -328h12l50 339q4 24 16.5 30.5t55.5 6.5t54.5 -7t11.5 -29q0 -17 -6 -46zM332 539q-53 0 -53 23q0 11 15 50l23 63q9 25 22 31.5t54 6.5q40 0 53.5 -6t13.5 -19q0 -16 -18 -49l-39 -70q-11 -20 -22.5 -25t-48.5 -5z" />
    <glyph glyph-name="Wdieresis" unicode="&#x1e84;" horiz-adv-x="806" 
d="M215 0q-59 0 -81.5 10t-28.5 44l-88 499q-4 20 -4 40q0 18 12 24.5t51 6.5q43 0 57.5 -7t18.5 -31l67 -465h11l87 452q5 25 23 33t63 8q44 0 62 -8t23 -33l87 -452h12l67 465q4 24 18 31t58 7q39 0 50.5 -6.5t11.5 -24.5q0 -25 -3 -40l-88 -499q-6 -34 -28.5 -44
t-81.5 -10q-57 0 -81 11t-30 46l-72 371h-10l-72 -371q-6 -35 -30.5 -46t-80.5 -11zM315 680q-43 0 -55 9t-12 39v14q0 31 12 40t55 9t55 -9t12 -40v-14q0 -30 -12 -39t-55 -9zM492 680q-43 0 -55.5 9t-12.5 39v14q0 31 12 40t56 9q43 0 55 -9t12 -40v-14q0 -30 -12 -39
t-55 -9z" />
    <glyph glyph-name="wdieresis" unicode="&#x1e85;" horiz-adv-x="714" 
d="M692 411l-67 -364q-5 -28 -25.5 -37.5t-76.5 -9.5q-61 0 -84 9.5t-29 37.5l-49 241h-8l-48 -241q-6 -28 -29.5 -37.5t-84.5 -9.5q-56 0 -76.5 9.5t-25.5 37.5l-67 364q-6 29 -6 46q0 22 11.5 29t54.5 7t55.5 -6.5t16.5 -30.5l50 -339h12l62 328q4 23 20 30.5t59 7.5
t59 -7.5t20 -30.5l62 -328h12l50 339q4 24 16.5 30.5t55.5 6.5t54.5 -7t11.5 -29q0 -17 -6 -46zM269 546q-43 0 -55 9t-12 39v14q0 31 12 40t55 9t55 -9t12 -40v-14q0 -30 -12 -39t-55 -9zM446 546q-43 0 -55.5 9t-12.5 39v14q0 31 12 40t56 9q43 0 55 -9t12 -40v-14
q0 -30 -12 -39t-55 -9z" />
    <glyph glyph-name="Eszett" unicode="&#x1e9e;" horiz-adv-x="509" 
d="M104 0q-40 0 -53 7t-13 30v418q0 94 46.5 134.5t162.5 40.5q77 0 145 -22q30 -10 44.5 -22t14.5 -33q0 -24 -16 -58l-69 -141l58 -62q26 -32 37 -48t20 -41.5t9 -57.5q0 -78 -38.5 -113t-117.5 -35q-50 0 -96 11q-18 5 -23.5 16.5t-5.5 45.5q0 31 4.5 41t15.5 10
q5 0 28 -3.5t41 -3.5q31 0 43 10.5t12 35.5q0 28 -27 55l-60 62q-25 25 -25 54q0 21 12 48l62 131q-25 9 -71 9q-47 0 -60.5 -12.5t-13.5 -44.5v-425q0 -23 -13.5 -30t-52.5 -7z" />
    <glyph glyph-name="Ygrave" unicode="&#x1ef2;" horiz-adv-x="484" 
d="M242 0q-40 0 -53 7t-13 30v187l-146 316q-17 37 -17 54q0 30 56 30q48 0 63 -7t24 -31l83 -226h5l83 226q9 25 23 31.5t61 6.5q60 0 60 -29q0 -18 -17 -55l-146 -316v-187q0 -23 -13.5 -30t-52.5 -7zM260 668q-35 0 -48 5.5t-23 24.5l-39 70q-18 34 -18 49q0 13 13.5 19
t53.5 6q41 0 54 -6.5t22 -31.5l23 -63q15 -41 15 -50q0 -23 -53 -23z" />
    <glyph glyph-name="ygrave" unicode="&#x1ef3;" horiz-adv-x="479" 
d="M16 461q0 16 13 24t56 8q41 0 54 -6t17 -27l74 -351h13l80 351q4 21 17 27t53 6q43 0 56.5 -7t13.5 -24q0 -22 -18 -85l-116 -407q-29 -100 -62.5 -133.5t-116.5 -33.5q-63 0 -105 15q-15 6 -21 16.5t-6 37.5q0 53 23 53q1 0 32 -4.5t63 -4.5q40 0 54.5 10t20.5 40l7 34
q-52 0 -70 11.5t-27 43.5l-85 311q-20 76 -20 95zM260 539q-35 0 -48 5.5t-23 24.5l-39 70q-18 34 -18 49q0 13 13.5 19t53.5 6q41 0 54 -6.5t22 -31.5l23 -63q15 -41 15 -50q0 -23 -53 -23z" />
    <glyph glyph-name="endash" unicode="&#x2013;" horiz-adv-x="424" 
d="M27 254q0 36 6 47t28 11h302q21 0 27 -11t6 -47t-6 -46.5t-27 -10.5h-302q-22 0 -28 10.5t-6 46.5z" />
    <glyph glyph-name="emdash" unicode="&#x2014;" horiz-adv-x="672" 
d="M27 254q0 36 6 47t28 11h551q21 0 27 -11t6 -47t-6 -46.5t-27 -10.5h-551q-22 0 -28 10.5t-6 46.5z" />
    <glyph glyph-name="afii00208" unicode="&#x2015;" horiz-adv-x="672" 
d="M27 254q0 36 6 47t28 11h551q21 0 27 -11t6 -47t-6 -46.5t-27 -10.5h-551q-22 0 -28 10.5t-6 46.5z" />
    <glyph glyph-name="quoteleft" unicode="&#x2018;" horiz-adv-x="201" 
d="M92 393q-42 0 -54 9t-12 39v27q0 43 19 97l12 36q12 37 26 46.5t49 9.5q23 0 31.5 -5.5t8.5 -17.5q0 -9 -6.5 -55t-6.5 -71v-67q0 -30 -12.5 -39t-54.5 -9z" />
    <glyph glyph-name="quoteright" unicode="&#x2019;" horiz-adv-x="201" 
d="M108 657q42 0 54.5 -9t12.5 -39v-27q0 -43 -19 -97l-13 -39q-12 -35 -25.5 -44t-49.5 -9q-23 0 -31 5.5t-8 17.5q0 8 6.5 54.5t6.5 71.5v67q0 30 12 39t54 9z" />
    <glyph glyph-name="quotesinglbase" unicode="&#x201a;" horiz-adv-x="185" 
d="M96 135q42 0 54 -9t12 -39v-28q0 -43 -19 -97l-15 -44q-10 -31 -23.5 -39.5t-48.5 -8.5q-23 0 -31 5.5t-8 18.5q0 8 6 54t6 72v67q0 30 12.5 39t54.5 9z" />
    <glyph glyph-name="quotedblleft" unicode="&#x201c;" horiz-adv-x="382" 
d="M92 393q-42 0 -54 9t-12 39v27q0 43 19 97l15 44q10 31 23.5 39.5t48.5 8.5q23 0 31.5 -5.5t8.5 -17.5q0 -9 -6.5 -55t-6.5 -71v-67q0 -30 -12.5 -39t-54.5 -9zM273 393q-42 0 -54 9t-12 39v27q0 43 19 97l15 44q10 31 23.5 39.5t48.5 8.5q23 0 31.5 -5.5t8.5 -17.5
q0 -9 -6.5 -55t-6.5 -71v-67q0 -30 -12.5 -39t-54.5 -9z" />
    <glyph glyph-name="quotedblright" unicode="&#x201d;" horiz-adv-x="382" 
d="M289 657q42 0 54.5 -9t12.5 -39v-27q0 -43 -19 -97l-15 -44q-10 -31 -23.5 -39.5t-49.5 -8.5q-23 0 -31 5.5t-8 17.5q0 8 6.5 54.5t6.5 71.5v67q0 30 12 39t54 9zM108 657q42 0 54.5 -9t12.5 -39v-27q0 -43 -19 -97l-15 -44q-10 -31 -23.5 -39.5t-49.5 -8.5
q-23 0 -31 5.5t-8 17.5q0 8 6.5 54.5t6.5 71.5v67q0 30 12 39t54 9z" />
    <glyph glyph-name="quotedblbase" unicode="&#x201e;" horiz-adv-x="366" 
d="M96 135q42 0 54 -9t12 -39v-28q0 -43 -19 -97l-15 -44q-10 -31 -23.5 -39.5t-48.5 -8.5q-23 0 -31 5.5t-8 18.5q0 8 6 54t6 72v67q0 30 12.5 39t54.5 9zM277 135q42 0 54 -9t12 -39v-28q0 -43 -19 -97l-15 -44q-10 -31 -23.5 -39.5t-48.5 -8.5q-23 0 -31 5.5t-8 18.5
q0 8 6 54t6 72v67q0 30 12.5 39t54.5 9z" />
    <glyph glyph-name="dagger" unicode="&#x2020;" horiz-adv-x="445" 
d="M223 -189q-38 0 -51.5 6t-13.5 27v466h-101q-22 0 -28 10.5t-6 46.5t6 46.5t28 10.5h101v126q0 21 13.5 27t51.5 6q37 0 50.5 -6t13.5 -27v-126h101q22 0 28 -10.5t6 -46.5t-6 -46.5t-28 -10.5h-101v-466q0 -21 -13.5 -27t-50.5 -6z" />
    <glyph glyph-name="daggerdbl" unicode="&#x2021;" horiz-adv-x="445" 
d="M223 -189q-38 0 -51.5 6t-13.5 27v126h-101q-22 0 -28 10.5t-6 46.5t6 46.5t28 10.5h101v226h-101q-22 0 -28 10.5t-6 46.5t6 46.5t28 10.5h101v126q0 21 13.5 27t51.5 6q37 0 50.5 -6t13.5 -27v-126h101q22 0 28 -10.5t6 -46.5t-6 -46.5t-28 -10.5h-101v-226h101
q22 0 28 -10.5t6 -46.5t-6 -46.5t-28 -10.5h-101v-126q0 -21 -13.5 -27t-50.5 -6z" />
    <glyph glyph-name="bullet" unicode="&#x2022;" horiz-adv-x="338" 
d="M169 126q-80 0 -109.5 30t-29.5 114q0 87 28.5 113.5t110.5 26.5t110.5 -26.5t28.5 -113.5q0 -84 -29.5 -114t-109.5 -30z" />
    <glyph glyph-name="ellipsis" unicode="&#x2026;" horiz-adv-x="594" 
d="M98 0q-43 0 -55 9t-12 39v39q0 30 12 39t55 9t55.5 -9t12.5 -39v-39q0 -30 -12.5 -39t-55.5 -9zM298 0q-43 0 -55.5 9t-12.5 39v39q0 30 12.5 39t55.5 9q42 0 54.5 -9t12.5 -39v-39q0 -30 -12.5 -39t-54.5 -9zM497 0q-43 0 -55 9t-12 39v39q0 30 12 39t55 9t55.5 -9
t12.5 -39v-39q0 -30 -12.5 -39t-55.5 -9z" />
    <glyph glyph-name="perthousand" unicode="&#x2030;" horiz-adv-x="823" 
d="M147 329q-77 0 -102 29.5t-25 119.5q0 89 26.5 117.5t100.5 28.5t100.5 -28.5t26.5 -117.5q0 -34 -3 -59l104 180q8 14 22 19.5t49 5.5q45 0 45 -18q0 -11 -14 -37l-167 -287q25 12 78 12q75 0 101.5 -28.5t26.5 -117.5q0 -90 -25.5 -119t-102.5 -29t-101.5 29t-24.5 119
q0 32 3 56l-104 -179q-9 -15 -22 -20t-48 -5q-46 0 -46 18q0 11 14 36l166 286q-23 -11 -78 -11zM676 0q-77 0 -102 29t-25 119q0 89 26.5 117.5t100.5 28.5t100.5 -28.5t26.5 -117.5q0 -90 -25 -119t-102 -29zM388 77q25 0 31.5 12.5t6.5 57.5q0 46 -6 58t-32 12
q-24 0 -30.5 -12.5t-6.5 -57.5t6.5 -57.5t30.5 -12.5zM147 406q24 0 30.5 12.5t6.5 57.5q0 46 -6 58t-31 12t-31 -12t-6 -58q0 -45 6.5 -57.5t30.5 -12.5zM676 77q24 0 30.5 12.5t6.5 57.5t-6 57.5t-31 12.5t-31 -12.5t-6 -57.5t6.5 -57.5t30.5 -12.5z" />
    <glyph glyph-name="guilsinglleft" unicode="&#x2039;" horiz-adv-x="322" 
d="M153 255v-8l112 -84q20 -15 25 -28t5 -53q0 -25 -5.5 -33.5t-17.5 -8.5q-10 0 -23 8l-175 107q-28 17 -38 34t-10 62t10 62.5t38 34.5l175 107q16 8 23 8q23 0 23 -43q0 -39 -5 -52t-25 -28z" />
    <glyph glyph-name="guilsinglright" unicode="&#x203a;" horiz-adv-x="322" 
d="M295 251q0 -45 -10 -62t-37 -34l-175 -107q-13 -8 -24 -8q-23 0 -23 42q0 40 5.5 53t25.5 28l111 84v8l-111 85q-20 15 -25.5 28t-5.5 52q0 43 23 43q8 0 24 -8l175 -107q27 -17 37 -34t10 -63z" />
    <glyph glyph-name="fraction" unicode="&#x2044;" 
d="M343 635q26 0 35 -4t9 -14q0 -13 -9 -36l-200 -550q-6 -18 -17.5 -24.5t-41.5 -6.5q-26 0 -35 4t-9 14q0 13 9 36l200 550q6 18 18 24.5t41 6.5z" />
    <glyph glyph-name="Euro" unicode="&#x20ac;" 
d="M340 279q0 -16 -14 -53q-5 -14 -18 -14h-112q2 -67 22 -84.5t80 -17.5q39 0 77 7t42 7q12 0 15.5 -9t3.5 -43q0 -33 -5.5 -44.5t-18.5 -15.5q-67 -19 -149 -19q-44 0 -73 7t-57.5 28t-43.5 66.5t-18 117.5h-39q-14 0 -14 12q0 15 14 52q4 14 17 14h22v47h-39
q-14 0 -14 12q0 16 14 53q4 13 17 13h23q4 71 20 116t45 65t57.5 26.5t71.5 6.5q79 0 146 -19q14 -4 19 -15t5 -45q0 -32 -4.5 -42t-14.5 -10q-2 0 -42 7t-77 7q-60 0 -79.5 -17.5t-22.5 -79.5h152q14 0 14 -11q0 -16 -14 -53q-5 -14 -18 -14h-134v-47h130q14 0 14 -11z" />
    <glyph glyph-name="hryvnia" unicode="&#x20b4;" 
d="M42 370q0 26 6 33.5t25 7.5h168q25 28 33.5 42.5t8.5 30.5t-15 22t-54 6q-34 0 -83 -6.5t-52 -6.5q-22 0 -22 52q0 34 6 45.5t21 15.5q65 17 160 17q81 0 118.5 -23.5t37.5 -87.5q0 -52 -39 -107h23q19 0 25 -7.5t6 -33.5t-6 -33t-25 -7h-89l-29 -34h118q19 0 25 -7
t6 -33t-6 -33.5t-25 -7.5h-185q-34 -38 -34 -68q0 -21 20 -29t73 -8q40 0 87 6t52 6q11 0 16 -9.5t5 -40.5q0 -33 -6 -44.5t-23 -16.5q-72 -18 -161 -18q-95 0 -137.5 29t-42.5 104q0 43 30 89q-22 0 -29 7.5t-7 33.5q0 25 6 32.5t25 7.5h69l30 34h-99q-19 0 -25 7.5
t-6 32.5z" />
    <glyph glyph-name="numero" unicode="&#x2116;" horiz-adv-x="910" 
d="M573 128q0 36 6 46.5t28 10.5h221q22 0 28 -10.5t6 -46.5t-6 -47t-28 -11h-221q-22 0 -28 11t-6 47zM713 245q-43 0 -69.5 6.5t-47 26.5t-29 57.5t-8.5 98.5q0 64 9 102.5t31.5 59t50.5 27t76 6.5q58 0 88.5 -12.5t48 -53.5t17.5 -120q0 -85 -18.5 -128t-51.5 -56.5
t-97 -13.5zM715 331q37 0 47.5 18.5t10.5 85.5q0 70 -10 89t-41 19q-37 0 -47 -17.5t-10 -84.5q0 -71 9.5 -90.5t40.5 -19.5zM104 0q-39 0 -52 7t-13 30v550q0 23 14 30t59 7q34 0 50.5 -6.5t27.5 -29.5l166 -345h8v344q0 23 13 30t53 7t53 -7t13 -30v-550
q0 -24 -13.5 -30.5t-57.5 -6.5q-33 0 -46.5 6t-25.5 29l-174 345h-9v-343q0 -23 -13 -30t-53 -7z" />
    <glyph glyph-name="trademark" unicode="&#x2122;" horiz-adv-x="843" 
d="M183 254q-38 0 -48 6.5t-10 30.5v232h-68q-20 0 -27 8.5t-7 41.5t7 42t27 9h252q20 0 27 -9t7 -42t-7 -41.5t-27 -8.5h-68v-232q0 -24 -10 -30.5t-48 -6.5zM445 252q-38 0 -48 6.5t-10 30.5v289q0 29 14.5 37.5t68.5 8.5q49 0 66 -8.5t29 -42.5l39 -111l39 111
q12 34 29 42.5t65 8.5q54 0 68.5 -8.5t14.5 -37.5v-289q0 -24 -10 -30.5t-48 -6.5t-48 6.5t-10 30.5q0 62 2 180h-8l-38 -102q-10 -27 -19.5 -34.5t-36.5 -7.5t-36 7.5t-20 34.5l-39 102h-8q2 -118 2 -180q0 -24 -10 -30.5t-48 -6.5z" />
    <glyph glyph-name="minus" unicode="&#x2212;" 
d="M78 254q0 36 6 47t28 11h243q21 0 27 -11t6 -47t-6 -46.5t-27 -10.5h-243q-22 0 -28 10.5t-6 46.5z" />
    <glyph glyph-name="commaaccent" unicode="&#xf6c3;" horiz-adv-x="192" 
d="M64 -243q-23 0 -31 5.5t-8 17.5q0 8 5.5 51t5.5 73q0 31 12 40t54 9q39 0 52.5 -7.5t13.5 -29.5q0 -41 -14 -73l-24 -55q-10 -19 -21.5 -25t-44.5 -6z" />
    <glyph glyph-name="ruble" 
d="M139 0q-40 0 -53 7t-13 30v102h-28q-19 0 -24.5 7.5t-5.5 33.5t5.5 33t24.5 7h28v44h-28q-19 0 -24.5 7t-5.5 33t5.5 33t24.5 7h28v233q0 23 8 31.5t29 11.5q77 9 152 9q108 0 145 -32t37 -135q0 -118 -43.5 -158t-160.5 -40h-35v-44h146q19 0 25 -7.5t6 -32.5
q0 -26 -6 -33.5t-25 -7.5h-146v-102q0 -23 -13.5 -30t-52.5 -7zM205 530v-186h33q49 0 65 22t16 83q0 54 -11.5 69t-54.5 15q-27 0 -48 -3z" />
    </font>
</defs>
</svg>
