<?xml version="1.0" standalone="no"?>
<!DOCTYPE svg PUBLIC "-//W3C//DTD SVG 1.1//EN" "http://www.w3.org/Graphics/SVG/1.1/DTD/svg11.dtd" >
<svg xmlns="http://www.w3.org/2000/svg" xmlns:xlink="http://www.w3.org/1999/xlink" version="1.1">
<metadata>
Created by FontForge 20161013 at Fri Nov 30 21:21:23 2012
 By ,,,
Copyright (c) 2012 by Manuel Eduardo Corradine - Sergio Rami'rez. All rights reserved.
</metadata>
<defs>
<font id="Neuron-Black" horiz-adv-x="470" >
  <font-face 
    font-family="Neuron Black"
    font-weight="950"
    font-stretch="normal"
    units-per-em="1000"
    panose-1="4 0 0 0 3 0 0 0 0 0"
    ascent="800"
    descent="-200"
    x-height="495"
    cap-height="630"
    bbox="-64 -253 926 922"
    underline-thickness="39"
    underline-position="-154"
    unicode-range="U+000D-F6C3"
  />
<missing-glyph horiz-adv-x="500" 
d="M75 0v561h350v-561h-350zM85 11h330v539h-330v-539zM324 349l-70 -69l70 -69l-5 -4l-69 69l-68 -69l-5 4l69 69l-69 69l4 5l69 -69l70 69z" />
    <glyph glyph-name=".notdef" horiz-adv-x="500" 
d="M75 0v561h350v-561h-350zM85 11h330v539h-330v-539zM324 349l-70 -69l70 -69l-5 -4l-69 69l-68 -69l-5 4l69 69l-69 69l4 5l69 -69l70 69z" />
    <glyph glyph-name=".null" horiz-adv-x="0" 
 />
    <glyph glyph-name="nonmarkingreturn" horiz-adv-x="333" 
 />
    <glyph glyph-name="NULL" horiz-adv-x="0" 
 />
    <glyph glyph-name="NULL" horiz-adv-x="0" 
 />
    <glyph glyph-name="CR" unicode="&#xd;" horiz-adv-x="424" 
 />
    <glyph glyph-name="space" unicode=" " horiz-adv-x="220" 
 />
    <glyph glyph-name="exclam" unicode="!" horiz-adv-x="231" 
d="M115 184q-49 0 -62 7.5t-13 37.5q0 34 -5 166.5t-5 189.5q0 29 17 37t68 8t68 -8t17 -37q0 -57 -5 -189.5t-5 -166.5q0 -30 -13 -37.5t-62 -7.5zM116 0q-54 0 -69.5 11t-15.5 50v25q0 39 15.5 50t69.5 11t69.5 -11t15.5 -50v-25q0 -39 -15.5 -50t-69.5 -11z" />
    <glyph glyph-name="quotedbl" unicode="&#x22;" horiz-adv-x="404" 
d="M105 345q-35 0 -48 7.5t-16 27.5q-21 141 -21 200q0 31 15.5 40.5t69.5 9.5t69.5 -9.5t15.5 -40.5q0 -59 -21 -200q-3 -20 -16 -27.5t-48 -7.5zM299 345q-35 0 -48 7.5t-16 27.5q-21 141 -21 200q0 31 15.5 40.5t69.5 9.5t69.5 -9.5t15.5 -40.5q0 -59 -21 -200
q-3 -20 -16 -27.5t-48 -7.5z" />
    <glyph glyph-name="numbersign" unicode="#" 
d="M330 40q-39 0 -52 8t-13 37v70h-60v-70q0 -29 -13 -37t-52 -8t-52 8t-13 37v70h-15q-30 0 -37.5 9t-7.5 46t7.5 46t37.5 9h15v107h-15q-30 0 -37.5 9t-7.5 46t7.5 46t37.5 9h15v73q0 29 13 37t52 8t52 -8t13 -37v-73h60v73q0 29 13 37t52 8t52 -8t13 -37v-73h15
q30 0 37.5 -9t7.5 -46t-7.5 -46t-37.5 -9h-15v-107h15q30 0 37.5 -9t7.5 -46t-7.5 -46t-37.5 -9h-15v-70q0 -29 -13 -37t-52 -8zM205 372v-107h60v107h-60z" />
    <glyph glyph-name="dollar" unicode="$" 
d="M250 716q49 0 62 -7.5t13 -37.5v-42q34 -4 71 -13q13 -3 18.5 -17t5.5 -59q0 -66 -26 -66q-3 0 -40.5 5.5t-78.5 5.5q-35 0 -53 -6.5t-18 -27.5q0 -17 8 -25.5t29 -17.5l89 -37q55 -23 81 -59.5t26 -113.5q0 -154 -132 -195v-58q0 -30 -13 -37.5t-62 -7.5t-62 7.5
t-13 37.5v47q-57 5 -91 15q-19 6 -25.5 20t-6.5 58q0 39 5.5 52.5t19.5 13.5q5 0 41 -5.5t79 -5.5q49 0 73.5 10t24.5 40q0 21 -8.5 33.5t-36.5 25.5l-94 38q-95 38 -95 166q0 148 134 176v42q0 30 13 37.5t62 7.5z" />
    <glyph glyph-name="percent" unicode="%" horiz-adv-x="572" 
d="M157 317q-82 0 -109.5 30.5t-27.5 127.5q0 95 29.5 125t107.5 30q79 0 108.5 -30t29.5 -125v-18l82 143q9 17 26.5 23.5t62.5 6.5q58 0 58 -21q0 -13 -18 -45l-147 -255q21 4 55 4q78 0 108 -29.5t30 -125.5q0 -97 -27.5 -127.5t-110.5 -30.5q-82 0 -109.5 30.5
t-27.5 127.5v7l-78 -135q-9 -17 -26.5 -23.5t-62.5 -6.5q-58 0 -58 21q0 14 18 45l147 255q-23 -4 -60 -4zM157 411q19 0 24 11t5 51q0 41 -5 51.5t-24 10.5t-23.5 -10.5t-4.5 -51.5q0 -40 5 -51t23 -11zM414 94q19 0 24 11t5 51q0 41 -5 51.5t-24 10.5t-23.5 -10.5
t-4.5 -51.5q0 -40 5 -51t23 -11z" />
    <glyph glyph-name="ampersand" unicode="&#x26;" horiz-adv-x="521" 
d="M474 253h-22v-118q0 -44 -14 -72.5t-43 -43t-63 -19.5t-85 -5q-117 0 -171 35t-54 135q0 76 32.5 111.5t98.5 37.5q-51 6 -80 52.5t-29 110.5q0 91 45 124.5t132 33.5q103 0 170 -18q16 -4 22 -16.5t6 -54.5q0 -66 -28 -66q-6 0 -52.5 5t-74.5 5q-29 0 -38 -10.5
t-9 -43.5q0 -34 12.5 -49.5t48.5 -15.5h32v25q0 30 11 37.5t55 7.5t55 -7.5t11 -37.5v-25h32q25 0 32.5 -11.5t7.5 -47.5t-7.5 -47.5t-32.5 -11.5zM257 135q33 0 43 11.5t10 36.5v70h-40q-43 0 -59.5 -13t-16.5 -49q0 -33 12.5 -44.5t50.5 -11.5z" />
    <glyph glyph-name="quotesingle" unicode="'" horiz-adv-x="210" 
d="M105 345q-35 0 -48 7.5t-16 27.5q-21 141 -21 200q0 31 15.5 40.5t69.5 9.5t69.5 -9.5t15.5 -40.5q0 -59 -21 -200q-3 -20 -16 -27.5t-48 -7.5z" />
    <glyph glyph-name="parenleft" unicode="(" horiz-adv-x="246" 
d="M20 315q0 95 19 180t47 139q14 27 32.5 36.5t61.5 9.5q56 0 56 -36q0 -10 -10.5 -50.5t-21 -114t-10.5 -164.5t10.5 -165t21 -114t10.5 -50q0 -36 -56 -36q-43 0 -61.5 9.5t-32.5 36.5q-28 54 -47 139t-19 180z" />
    <glyph glyph-name="parenright" unicode=")" horiz-adv-x="246" 
d="M226 315q0 -95 -19 -180t-47 -139q-14 -27 -32.5 -36.5t-61.5 -9.5q-56 0 -56 36q0 10 10.5 50.5t21 114t10.5 164.5t-10.5 165t-21 114t-10.5 50q0 36 56 36q43 0 61.5 -9.5t32.5 -36.5q28 -54 47 -139t19 -180z" />
    <glyph glyph-name="asterisk" unicode="*" horiz-adv-x="408" 
d="M204 635q38 0 50 -6.5t12 -24.5v-50q0 -9 -2 -19q7 5 17 8l48 15q17 6 26.5 -3.5t21.5 -45.5q12 -38 9.5 -51t-19.5 -18l-48 -15q-14 -4 -17 -4q8 -6 12 -13l29 -41q11 -13 5 -26t-37 -35q-31 -23 -45 -25t-24 13l-29 41q-8 10 -10 15q-4 -10 -8 -15l-29 -41
q-9 -15 -23.5 -13t-45.5 25q-31 21 -37 35t5 26l29 41q6 8 12 12l-17 5l-48 15q-17 5 -19.5 18t9.5 51q12 36 21.5 45.5t26.5 3.5l48 -15q7 -2 17 -8q-2 5 -2 19v50q0 18 12 24.5t50 6.5z" />
    <glyph glyph-name="plus" unicode="+" 
d="M235 83q-46 0 -59.5 7t-13.5 33v82h-67q-27 0 -33.5 9.5t-6.5 53.5t6.5 53.5t33.5 9.5h67v82q0 26 13.5 33t59.5 7t59.5 -7t13.5 -33v-82h67q27 0 33.5 -9.5t6.5 -53.5t-6.5 -53.5t-33.5 -9.5h-67v-82q0 -26 -13.5 -33t-59.5 -7z" />
    <glyph glyph-name="comma" unicode="," horiz-adv-x="207" 
d="M112 167q54 0 69.5 -11t15.5 -50v-27q0 -51 -24 -112l-13 -32q-17 -42 -33.5 -53t-62.5 -11q-29 0 -39 7t-10 22q0 10 6 57t6 70v79q0 39 15.5 50t69.5 11z" />
    <glyph glyph-name="hyphen" unicode="-" horiz-adv-x="340" 
d="M20 247q0 46 7 59.5t33 13.5h220q26 0 33 -13.5t7 -59.5t-7 -59.5t-33 -13.5h-220q-26 0 -33 13.5t-7 59.5z" />
    <glyph glyph-name="period" unicode="." horiz-adv-x="211" 
d="M107 0q-54 0 -69.5 11t-15.5 50v45q0 39 15.5 50t69.5 11t69.5 -11t15.5 -50v-45q0 -39 -15.5 -50t-69.5 -11z" />
    <glyph glyph-name="slash" unicode="/" horiz-adv-x="296" 
d="M227 680q69 0 69 -31q0 -14 -12 -69l-134 -591q-8 -39 -81 -39q-69 0 -69 31q0 14 12 69l134 591q8 39 81 39z" />
    <glyph glyph-name="zero" unicode="0" 
d="M235 140q27 0 38.5 17t11.5 66v172q0 63 -10.5 79t-39.5 16t-39.5 -16t-10.5 -79v-172q0 -49 11.5 -66t38.5 -17zM235 -5q-109 0 -164.5 44t-55.5 166v190q0 76 12.5 124t42 73t67 34t98.5 9t98.5 -9t67 -34t42 -73t12.5 -124v-188q0 -64 -15.5 -107t-46.5 -65.5t-68 -31
t-90 -8.5z" />
    <glyph glyph-name="one" unicode="1" 
d="M385 0h-301q-23 0 -31.5 15t-8.5 59t8.5 59t31.5 15h65v299l-47 -9q-19 -4 -30 -4q-8 0 -12.5 2.5t-9.5 19.5t-5 49q0 49 8 65.5t32 23.5l90 25q28 11 59 11q51 0 68 -8t17 -37v-437h66q23 0 31.5 -15t8.5 -59t-8.5 -59t-31.5 -15z" />
    <glyph glyph-name="two" unicode="2" 
d="M225 148h177q23 0 31.5 -15t8.5 -59t-8.5 -59t-31.5 -15h-330q-26 0 -35.5 7.5t-9.5 32.5v55q0 52 21 91.5t63 85.5l120 129q24 28 24 56q0 20 -11 26.5t-40 6.5q-36 0 -82.5 -7t-56.5 -7q-23 0 -23 65q0 44 6 57t24 19q61 18 185 18q39 0 64 -4t52 -18.5t40.5 -47
t13.5 -83.5q0 -54 -21 -92t-82 -108l-84 -85q-15 -18 -15 -35v-14z" />
    <glyph glyph-name="three" unicode="3" 
d="M225 -5q-109 0 -171 17q-20 6 -26 18t-6 55q0 39 5.5 52.5t19.5 13.5q7 0 59.5 -5.5t86.5 -5.5q42 0 57 15.5t15 48.5q0 34 -23.5 45t-86.5 11q-25 0 -32.5 13.5t-7.5 50.5t7.5 50.5t32.5 13.5q53 0 75 13.5t22 47.5q0 21 -10 31t-37 10q-35 0 -85 -5.5t-54 -5.5
q-26 0 -26 66q0 44 5 56t19 15q71 19 184 19q87 0 132 -33.5t45 -124.5q0 -62 -28.5 -103.5t-80.5 -47.5q62 -2 91.5 -36t29.5 -110q0 -101 -54 -143t-158 -42z" />
    <glyph glyph-name="four" unicode="4" 
d="M325 0q-51 0 -68 8t-17 37v78h-180q-35 0 -45 14t-10 71q0 42 25 97l127 281q13 30 40 37t98 7q70 0 92.5 -8t22.5 -37v-324h15q24 0 32 -13t8 -56t-8 -56t-32 -13h-15v-78q0 -29 -17 -37t-68 -8zM248 473l-84 -212h87l4 212h-7z" />
    <glyph glyph-name="five" unicode="5" 
d="M205 -5q-76 0 -138 17q-20 6 -26 18t-6 55q0 39 5.5 52.5t19.5 13.5q5 0 41 -5.5t79 -5.5q48 0 66.5 13t18.5 42v35q0 21 -9.5 30t-33.5 9t-74 -4.5t-61 -4.5q-12 0 -18 1.5t-12 8.5t-6 21v299q0 25 9.5 32.5t35.5 7.5h279q23 0 31.5 -15t8.5 -59t-8.5 -59t-31.5 -15
h-174v-80q21 7 78 7q25 0 41 -1.5t40 -10.5t38.5 -25.5t25.5 -49t11 -78.5v-69q0 -57 -18 -95t-53 -55.5t-71 -23.5t-88 -6z" />
    <glyph glyph-name="six" unicode="6" 
d="M236 -5q-40 0 -68.5 4t-58 18.5t-47 40t-29 70.5t-11.5 109v142q0 68 14.5 117t35 75.5t53.5 41.5t60 18.5t64 3.5q75 0 144 -19q14 -3 19 -15t5 -56q0 -66 -26 -66q-3 0 -40.5 5.5t-78.5 5.5q-59 0 -74.5 -20t-15.5 -94v-35q30 60 119 60q52 0 81.5 -12.5t47 -53.5
t17.5 -117q0 -131 -47 -177t-164 -46zM240 140q32 0 42 14.5t10 50.5t-10.5 48.5t-45.5 12.5q-34 0 -44 -13.5t-10 -51.5q0 -36 10.5 -48.5t47.5 -12.5z" />
    <glyph glyph-name="seven" unicode="7" 
d="M171 0q-31 0 -48 6t-21 13t-4 17q0 19 18 69l136 377h-191q-23 0 -31.5 15t-8.5 59t8.5 59t31.5 15h313q35 0 45 -14t10 -71q0 -32 -22 -97l-141 -405q-10 -27 -31.5 -35t-63.5 -8z" />
    <glyph glyph-name="eight" unicode="8" 
d="M234 -5q-128 0 -173.5 43.5t-45.5 145.5q0 120 101 152q-87 30 -87 144q0 81 51.5 118t153.5 37t153.5 -37t51.5 -118q0 -114 -87 -144q103 -33 103 -152q0 -102 -46 -145.5t-175 -43.5zM234 136q32 0 41 14t9 54q0 44 -9.5 55.5t-40.5 11.5t-40.5 -11.5t-9.5 -55.5
q0 -40 9 -54t41 -14zM234 399q25 0 32 9.5t7 44.5q0 30 -9.5 38.5t-29.5 8.5q-13 0 -20.5 -2.5t-13 -13t-5.5 -31.5q0 -35 7 -44.5t32 -9.5z" />
    <glyph glyph-name="nine" unicode="9" 
d="M210 -5q-70 0 -138 18q-19 5 -24.5 16t-5.5 56q0 66 26 66q3 0 40.5 -5.5t78.5 -5.5q66 0 83 21t17 96v28q-29 -58 -116 -58q-81 0 -115 37t-34 152q0 125 47.5 172t163.5 47q40 0 68.5 -4t58 -18.5t47 -40.5t29 -71t11.5 -109v-138q0 -68 -14.5 -117.5t-36 -76t-55 -42
t-62.5 -19.5t-69 -4zM232 362q35 0 45 14t10 52q0 41 -9 54t-44 13q-38 0 -47.5 -14.5t-9.5 -56.5q0 -37 10 -49.5t45 -12.5z" />
    <glyph glyph-name="colon" unicode=":" horiz-adv-x="211" 
d="M107 328q-54 0 -69.5 11t-15.5 50v45q0 39 15.5 50t69.5 11t69.5 -11t15.5 -50v-45q0 -39 -15.5 -50t-69.5 -11zM107 0q-54 0 -69.5 11t-15.5 50v45q0 39 15.5 50t69.5 11t69.5 -11t15.5 -50v-45q0 -39 -15.5 -50t-69.5 -11z" />
    <glyph glyph-name="semicolon" unicode=";" horiz-adv-x="201" 
d="M102 167q54 0 69.5 -11t15.5 -50v-27q0 -51 -24 -112l-13 -32q-17 -42 -33.5 -53t-62.5 -11q-29 0 -39 7t-10 22q0 10 6 57t6 70v79q0 39 15.5 50t69.5 11zM97 328q-54 0 -69.5 11t-15.5 50v45q0 39 15.5 50t69.5 11t69.5 -11t15.5 -50v-45q0 -39 -15.5 -50t-69.5 -11z
" />
    <glyph glyph-name="less" unicode="&#x3c;" 
d="M193 265l177 -37q25 -5 31 -20t6 -69q0 -37 -7 -49t-22 -12q-13 0 -25 4l-231 65q-36 10 -48 31.5t-12 89.5t12 89.5t48 31.5l231 65q12 4 25 4q15 0 22 -12t7 -49q0 -54 -6 -69t-31 -20l-177 -37v-6z" />
    <glyph glyph-name="equal" unicode="=" 
d="M65 180q0 44 6.5 53.5t33.5 9.5h260q27 0 33.5 -9.5t6.5 -53.5t-6.5 -53.5t-33.5 -9.5h-260q-27 0 -33.5 9.5t-6.5 53.5zM65 360q0 44 6.5 53.5t33.5 9.5h260q27 0 33.5 -9.5t6.5 -53.5t-6.5 -53.5t-33.5 -9.5h-260q-27 0 -33.5 9.5t-6.5 53.5z" />
    <glyph glyph-name="greater" unicode="&#x3e;" 
d="M99 228l177 37v6l-177 37q-25 5 -31 20t-6 69q0 37 7 49t22 12q13 0 25 -4l231 -65q36 -10 48 -31.5t12 -89.5t-12 -89.5t-48 -31.5l-231 -65q-12 -4 -25 -4q-15 0 -22 12t-7 49q0 54 6 69t31 20z" />
    <glyph glyph-name="question" unicode="?" horiz-adv-x="375" 
d="M168 184q-43 0 -59 8t-16 37v48q0 44 28 73l47 51q25 27 25 56q0 19 -9.5 26t-31.5 7q-29 0 -68 -5.5t-49 -5.5q-13 0 -19 13.5t-6 51.5q0 43 6 55t24 18q61 18 155 18q170 0 170 -134q0 -48 -12.5 -77t-37.5 -58l-55 -64q-17 -20 -17 -48v-25q0 -29 -16 -37t-59 -8z
M168 0q-54 0 -69.5 11t-15.5 50v25q0 39 15.5 50t69.5 11t69.5 -11t15.5 -50v-25q0 -39 -15.5 -50t-69.5 -11z" />
    <glyph glyph-name="at" unicode="@" horiz-adv-x="946" 
d="M405 -10q-91 0 -120.5 48.5t-29.5 201.5q0 112 17 169t50 76.5t98 19.5q52 0 79.5 -19.5t39.5 -59.5v24q0 30 13 37.5t62 7.5t62 -7.5t13 -37.5v-268q0 -43 9.5 -59t31.5 -16q28 0 37 35t9 133v43q0 36 -1.5 61.5t-6.5 52.5t-14.5 45.5t-25 36.5t-38.5 29t-54.5 20
t-73 13t-94.5 4q-60 0 -105.5 -7.5t-77 -20t-53.5 -35t-34 -44.5t-18.5 -58t-8 -65.5t-1.5 -76.5v-80q0 -61 7 -103.5t24.5 -73.5t41 -49.5t65 -29t87.5 -14t115 -3.5q23 0 31.5 -13t8.5 -51q0 -40 -11 -52t-48 -12q-121 0 -204.5 16t-136 45.5t-81.5 82.5t-39 115.5
t-10 156.5v46q0 60 3.5 104.5t14.5 94t30.5 84.5t53 68.5t80.5 54t114 33t152 12.5t153 -10.5t115.5 -28t82 -45.5t55 -58t32.5 -71t16 -79t4 -87v-45q0 -74 -12.5 -128t-32 -85t-51 -49t-61 -23.5t-69.5 -5.5q-120 0 -148 79l-7 19q-32 -98 -140 -98zM473 130q32 0 41 19
t9 89v31q0 63 -9 79.5t-44 16.5q-25 0 -34 -22t-9 -103q0 -74 9 -92t37 -18z" />
    <glyph glyph-name="A" unicode="A" horiz-adv-x="556" 
d="M91 0q-52 0 -66.5 8t-14.5 31q0 16 8 51l101 460q12 52 41 66t118 14t118 -14t41 -66l101 -460q8 -35 8 -51q0 -23 -14.5 -31t-66.5 -8q-56 0 -73.5 9t-23.5 41l-17 90h-146l-17 -90q-6 -32 -23.5 -41t-73.5 -9zM271 492l-43 -227h99l-42 227h-14z" />
    <glyph glyph-name="B" unicode="B" horiz-adv-x="525" 
d="M250 -5q-105 0 -171 7q-25 3 -32 11.5t-7 33.5v531q0 28 8 37.5t34 12.5q59 7 146 7q134 0 189.5 -32.5t55.5 -132.5q0 -63 -18 -98t-68 -46q58 -10 83 -44.5t25 -111.5q0 -99 -52 -137t-193 -38zM210 495v-116h38q34 0 43 13t9 49q0 32 -8.5 44t-35.5 12q-24 0 -46 -2z
M210 266v-138q21 -3 50 -3q42 0 52 12.5t10 65.5q0 37 -10 50t-43 13h-59z" />
    <glyph glyph-name="C" unicode="C" horiz-adv-x="455" 
d="M253 -5q-39 0 -68.5 4.5t-60 20.5t-50 43t-32 74t-12.5 112v106q0 75 14 128.5t34.5 82.5t53.5 45t60 20t65 4q83 0 154 -19q13 -3 18.5 -17t5.5 -59q0 -66 -22 -66q-4 0 -41 5.5t-72 5.5q-57 0 -78.5 -25.5t-21.5 -111.5v-63q0 -66 10.5 -96t28.5 -37t61 -7q36 0 71 5.5
t42 5.5q13 0 17.5 -14t4.5 -52q0 -43 -5.5 -58t-18.5 -18q-71 -19 -158 -19z" />
    <glyph glyph-name="D" unicode="D" horiz-adv-x="535" 
d="M245 142q57 0 73.5 24.5t16.5 118.5v90q0 70 -19 96t-78 26q-16 0 -28 -2v-351q22 -2 35 -2zM245 -5q-102 0 -166 7q-25 3 -32 11.5t-7 33.5v531q0 28 8 37.5t34 12.5q51 7 148 7q56 0 92.5 -4t74.5 -18.5t59.5 -41t35 -74t13.5 -116.5v-96q0 -78 -14.5 -133.5t-36 -85.5
t-58.5 -46.5t-69.5 -20.5t-81.5 -4z" />
    <glyph glyph-name="E" unicode="E" horiz-adv-x="455" 
d="M440 74q0 -44 -8.5 -59t-31.5 -15h-315q-26 0 -35.5 7.5t-9.5 32.5v550q0 25 9.5 32.5t35.5 7.5h305q23 0 31.5 -15t8.5 -59t-8.5 -59t-31.5 -15h-180v-82h110q26 0 33 -13.5t7 -59.5t-7 -59.5t-33 -13.5h-110v-106h190q23 0 31.5 -15t8.5 -59z" />
    <glyph glyph-name="F" unicode="F" horiz-adv-x="440" 
d="M125 0q-51 0 -68 8t-17 37v545q0 25 9.5 32.5t35.5 7.5h305q23 0 31.5 -15t8.5 -59t-8.5 -59t-31.5 -15h-180v-82h110q26 0 33 -13.5t7 -59.5t-7 -59.5t-33 -13.5h-110v-209q0 -29 -17 -37t-68 -8z" />
    <glyph glyph-name="G" unicode="G" horiz-adv-x="506" 
d="M263 -5q-43 0 -74 4.5t-62.5 20.5t-51.5 43t-32.5 74t-12.5 112v106q0 75 14 128.5t34.5 82.5t54.5 45t62 20t68 4q92 0 163 -19q13 -3 18.5 -17t5.5 -59q0 -66 -22 -66q-4 0 -48.5 5.5t-79.5 5.5q-56 0 -78 -26t-22 -111v-63q0 -49 5 -78.5t16.5 -42t23 -16t31.5 -3.5
q55 0 55 22v65h-30q-19 0 -24.5 14.5t-5.5 59.5q0 38 6 51t24 13h125q31 0 40.5 -9.5t9.5 -30.5v-210q0 -125 -213 -125z" />
    <glyph glyph-name="H" unicode="H" horiz-adv-x="550" 
d="M210 384h130v201q0 29 17 37t68 8t68 -8t17 -37v-540q0 -29 -17 -37t-68 -8t-68 8t-17 37v201h-130v-201q0 -29 -17 -37t-68 -8t-68 8t-17 37v540q0 29 17 37t68 8t68 -8t17 -37v-201z" />
    <glyph glyph-name="I" unicode="I" horiz-adv-x="250" 
d="M125 0q-51 0 -68 8t-17 37v540q0 29 17 37t68 8t68 -8t17 -37v-540q0 -29 -17 -37t-68 -8z" />
    <glyph glyph-name="J" unicode="J" horiz-adv-x="370" 
d="M160 -5q-67 0 -123 17q-19 6 -25.5 20t-6.5 58q0 39 5.5 49.5t19.5 10.5q10 0 36 -2.5t44 -2.5q30 0 40 9.5t10 40.5v390q0 29 17 37t68 8t68 -8t17 -37v-382q0 -115 -38.5 -161.5t-131.5 -46.5z" />
    <glyph glyph-name="K" unicode="K" horiz-adv-x="524" 
d="M125 0q-51 0 -68 8t-17 37v540q0 29 17 37t68 8t68 -8t17 -37v-221h20l83 225q10 27 29 34t79 7q47 0 62 -8t15 -25q0 -12 -13 -42l-109 -241l106 -208q27 -54 27 -67q0 -12 -4.5 -19t-25.5 -13.5t-61 -6.5q-45 0 -63.5 7.5t-30.5 33.5l-94 217h-20v-213q0 -29 -17 -37
t-68 -8z" />
    <glyph glyph-name="L" unicode="L" horiz-adv-x="430" 
d="M210 148h170q23 0 31.5 -15t8.5 -59t-8.5 -59t-31.5 -15h-295q-26 0 -35.5 7.5t-9.5 32.5v545q0 29 17 37t68 8t68 -8t17 -37v-437z" />
    <glyph glyph-name="M" unicode="M" horiz-adv-x="676" 
d="M125 0q-51 0 -68 8t-17 37v527q0 33 17.5 45.5t67.5 12.5q62 0 84 -8.5t36 -41.5l91 -214h4l91 214q14 33 36 41.5t84 8.5q50 0 67.5 -12.5t17.5 -45.5v-527q0 -29 -17 -37t-68 -8t-68 8t-17 37q0 141 5 306h-4l-49 -142q-12 -36 -25.5 -45.5t-54.5 -9.5t-54.5 9.5
t-25.5 45.5l-49 142h-4q5 -165 5 -306q0 -29 -17 -37t-68 -8z" />
    <glyph glyph-name="N" unicode="N" horiz-adv-x="567" 
d="M125 0q-51 0 -68 8t-17 37v540q0 29 17 37t68 8q35 0 54.5 -7.5t34.5 -35.5l135 -253h8v251q0 29 17 37t68 8t68 -8t17 -37v-540q0 -29 -15.5 -37t-65.5 -8q-33 0 -48.5 7t-31.5 35l-148 254h-8v-251q0 -29 -17 -37t-68 -8z" />
    <glyph glyph-name="O" unicode="O" horiz-adv-x="536" 
d="M268 140q44 0 56 24.5t12 120.5v60q0 96 -12 120.5t-56 24.5t-56 -24.5t-12 -120.5v-60q0 -96 12 -120.5t56 -24.5zM268 -5q-53 0 -87 5t-65.5 21t-48.5 45.5t-27 78.5t-10 120v90q0 63 5.5 107.5t19 76t30.5 50.5t46 29t60 13.5t77 3.5t77 -3.5t60 -13.5t46 -29
t30.5 -50.5t19 -76t5.5 -107.5v-90q0 -71 -10 -120t-27 -78.5t-48.5 -45.5t-65.5 -21t-87 -5z" />
    <glyph glyph-name="P" unicode="P" horiz-adv-x="509" 
d="M125 0q-51 0 -68 8t-17 37v531q0 28 8 37.5t34 12.5q76 9 196 9q53 0 88 -8t63.5 -31t41.5 -66.5t13 -110.5q0 -72 -18.5 -119.5t-57 -72t-83.5 -33.5t-110 -9h-5v-140q0 -29 -17 -37t-68 -8zM210 495v-175h15q51 0 68 17t17 71q0 52 -14 70.5t-41 18.5q-25 0 -45 -2z
" />
    <glyph glyph-name="Q" unicode="Q" horiz-adv-x="536" 
d="M280 -5h-12q-53 0 -87 5t-65.5 21t-48.5 45.5t-27 78.5t-10 120v90q0 63 5.5 107.5t19 76t30.5 50.5t46 29t60 13.5t77 3.5t77 -3.5t60 -13.5t46 -29t30.5 -50.5t19 -76t5.5 -107.5v-90q0 -104 -20 -160.5t-62 -81.5l46 -63q26 -34 26 -50q0 -33 -80 -33q-40 0 -56.5 9.5
t-37.5 42.5zM268 140q44 0 56 24.5t12 120.5v60q0 96 -12 120.5t-56 24.5t-56 -24.5t-12 -120.5v-60q0 -96 12 -120.5t56 -24.5z" />
    <glyph glyph-name="R" unicode="R" horiz-adv-x="519" 
d="M125 0q-51 0 -68 8t-17 37v531q0 28 8 37.5t34 12.5q76 9 196 9q107 0 156.5 -42.5t49.5 -162.5q0 -128 -85 -175l82 -172q18 -38 18 -51q0 -32 -67 -32t-85 7t-30 40l-63 178h-44v-180q0 -29 -17 -37t-68 -8zM210 495v-155h33q38 0 52.5 16t14.5 63q0 78 -55 78
q-25 0 -45 -2z" />
    <glyph glyph-name="S" unicode="S" horiz-adv-x="455" 
d="M195 -5q-76 0 -138 17q-19 6 -25.5 20t-6.5 58q0 39 5.5 52.5t19.5 13.5q5 0 41 -5.5t79 -5.5q49 0 73.5 10t24.5 40q0 20 -7.5 29.5t-37.5 22.5l-94 42q-95 42 -95 164q0 50 16 87t44 57t60.5 29t70.5 9q93 0 164 -19q13 -3 18.5 -17t5.5 -59q0 -66 -26 -66
q-3 0 -40.5 5.5t-78.5 5.5q-35 0 -53 -6.5t-18 -27.5q0 -11 5 -18t11 -10.5t21 -10.5l89 -39q56 -24 81.5 -59t25.5 -111q0 -208 -235 -208z" />
    <glyph glyph-name="T" unicode="T" horiz-adv-x="458" 
d="M229 0q-51 0 -68 8t-17 37v437h-94q-23 0 -31.5 15t-8.5 59t8.5 59t31.5 15h358q23 0 31.5 -15t8.5 -59t-8.5 -59t-31.5 -15h-94v-437q0 -29 -17 -37t-68 -8z" />
    <glyph glyph-name="U" unicode="U" horiz-adv-x="536" 
d="M268 -5q-128 0 -178 44t-50 156v390q0 29 17 37t68 8t68 -8t17 -37v-400q0 -32 10.5 -41t47.5 -9t47.5 9t10.5 41v400q0 29 17 37t68 8t68 -8t17 -37v-390q0 -112 -50 -156t-178 -44z" />
    <glyph glyph-name="V" unicode="V" horiz-adv-x="546" 
d="M280 138l73 442q5 32 24.5 41t77.5 9q52 0 66.5 -8t14.5 -31q0 -16 -8 -51l-103 -470q-10 -45 -37.5 -57.5t-114.5 -12.5t-114 12.5t-37 57.5l-104 470q-8 35 -8 51q0 23 14.5 31t66.5 8q58 0 77.5 -9t24.5 -41l73 -442h14z" />
    <glyph glyph-name="W" unicode="W" horiz-adv-x="814" 
d="M217 0q-74 0 -104 13t-36 57l-63 470q-4 38 -4 51q0 23 14.5 31t66.5 8q57 0 76 -9t22 -41l37 -424h11l67 414q5 31 27 40.5t76 9.5t76 -9.5t27 -40.5l67 -414h11l37 424q3 32 22 41t76 9q52 0 66.5 -8t14.5 -31q0 -13 -4 -51l-63 -470q-6 -44 -36 -57t-104 -13
q-71 0 -103 15t-38 59l-44 297h-10l-44 -297q-6 -44 -38 -59t-103 -15z" />
    <glyph glyph-name="X" unicode="X" horiz-adv-x="521" 
d="M94 0q-49 0 -66.5 10.5t-17.5 29.5t26 61l136 222l-121 202q-26 42 -26 64q0 20 18 30.5t68 10.5q51 0 68.5 -8.5t33.5 -41.5l47 -100h4l44 100q14 33 32 41.5t70 8.5q50 0 68 -10.5t18 -30.5q0 -21 -26 -63l-122 -202l137 -220q26 -42 26 -64q0 -19 -17.5 -29.5
t-66.5 -10.5q-51 0 -68 8.5t-34 41.5l-64 126h-4l-61 -126q-16 -33 -33 -41.5t-69 -8.5z" />
    <glyph glyph-name="Y" unicode="Y" horiz-adv-x="506" 
d="M253 0q-51 0 -68 8t-17 37v170l-136 307q-23 53 -23 70q0 38 72 38q64 0 83 -9t29 -41l57 -192h6l57 192q10 33 27.5 41.5t79.5 8.5q77 0 77 -36q0 -19 -23 -72l-136 -307v-170q0 -29 -17 -37t-68 -8z" />
    <glyph glyph-name="Z" unicode="Z" horiz-adv-x="424" 
d="M208 482h-143q-23 0 -31.5 15t-8.5 59t8.5 59t31.5 15h301q25 0 32.5 -13t7.5 -53q0 -36 -36 -106l-162 -310h166q23 0 31.5 -15t8.5 -59t-8.5 -59t-31.5 -15h-324q-25 0 -32.5 13t-7.5 53q0 35 41 113z" />
    <glyph glyph-name="bracketleft" unicode="[" horiz-adv-x="270" 
d="M260 21q0 -39 -8.5 -52t-31.5 -13h-151q-49 0 -49 48v622q0 48 49 48h151q23 0 31.5 -13t8.5 -52q0 -42 -8.5 -55t-31.5 -13h-40v-452h40q23 0 31.5 -13t8.5 -55z" />
    <glyph glyph-name="backslash" unicode="\" horiz-adv-x="296" 
d="M227 -50q-73 0 -81 39l-134 591q-12 55 -12 69q0 31 69 31q73 0 81 -39l134 -591q12 -55 12 -69q0 -31 -69 -31z" />
    <glyph glyph-name="bracketright" unicode="]" horiz-adv-x="270" 
d="M10 21q0 42 8.5 55t31.5 13h40v452h-40q-23 0 -31.5 13t-8.5 55q0 39 8.5 52t31.5 13h151q49 0 49 -48v-622q0 -48 -49 -48h-151q-23 0 -31.5 13t-8.5 52z" />
    <glyph glyph-name="asciicircum" unicode="^" 
d="M238 495h-6l-37 -108q-9 -25 -23 -31.5t-66 -6.5q-64 0 -64 29q0 4 7 25l65 171q14 37 34.5 48.5t86.5 11.5t86.5 -11.5t34.5 -48.5l65 -171q7 -21 7 -25q0 -29 -64 -29q-52 0 -66 6.5t-23 31.5z" />
    <glyph glyph-name="underscore" unicode="_" horiz-adv-x="520" 
d="M10 -93q0 46 7 59.5t33 13.5h420q26 0 33 -13.5t7 -59.5t-7 -59.5t-33 -13.5h-420q-26 0 -33 13.5t-7 59.5z" />
    <glyph glyph-name="grave" unicode="`" horiz-adv-x="242" 
d="M156 538q-49 0 -66.5 9.5t-28.5 34.5l-22 49q-19 44 -19 62t16.5 25t68.5 7q57 0 73.5 -11t25.5 -48l11 -49q7 -28 7 -49q0 -16 -14.5 -23t-51.5 -7z" />
    <glyph glyph-name="a" unicode="a" horiz-adv-x="487" 
d="M149 -10q-66 0 -97.5 36.5t-31.5 116.5q0 84 44.5 121.5t159.5 37.5h54v6q0 21 -2.5 32t-12 16t-18.5 6t-31 1q-39 0 -84.5 -6.5t-52.5 -6.5q-29 0 -29 68q0 34 6.5 48t24.5 20q53 19 160 19q114 0 160 -28.5t46 -119.5v-113q0 -87 9 -146l8 -60q0 -21 -15.5 -29.5
t-62.5 -8.5q-43 0 -56.5 7t-20.5 34l-11 41q-33 -92 -147 -92zM217 122q61 0 61 75v11l-50 -1q-28 -1 -38 -10.5t-10 -34.5q0 -24 8 -32t29 -8z" />
    <glyph glyph-name="b" unicode="b" horiz-adv-x="517" 
d="M246 -10q-119 0 -165 32.5t-46 103.5v489q0 29 17 37t68 8t68 -8t17 -37v-169q39 59 128 59q61 0 92.5 -19t46.5 -72.5t15 -158.5q0 -113 -23.5 -169.5t-72 -76t-145.5 -19.5zM258 130q38 0 47.5 21t9.5 97t-10.5 96.5t-41.5 20.5q-40 0 -51 -23.5t-11 -112.5v-68
q0 -19 10.5 -25t46.5 -6z" />
    <glyph glyph-name="c" unicode="c" horiz-adv-x="434" 
d="M256 -10q-56 0 -93 9t-69.5 34.5t-48 78t-15.5 133.5q0 83 13 135.5t42 79.5t65 36t93 9q81 0 136 -19q16 -6 22.5 -19.5t6.5 -48.5q0 -68 -27 -68q-3 0 -45 5.5t-64 5.5q-32 0 -45.5 -4.5t-21.5 -26.5t-8 -70q0 -84 13.5 -105t64.5 -21q35 0 70.5 5.5t36.5 5.5
q27 0 27 -68q0 -35 -7 -49t-22 -19q-55 -19 -124 -19z" />
    <glyph glyph-name="d" unicode="d" horiz-adv-x="526" 
d="M190 -10q-92 0 -126 48t-34 192q0 115 19.5 175.5t54.5 80t101 19.5q85 0 109 -49v159q0 29 17 37t68 8t68 -8t17 -37v-371q0 -87 8 -146l9 -60q0 -21 -15.5 -29.5t-62.5 -8.5q-43 0 -56.5 7t-20.5 34l-10 36q-35 -87 -146 -87zM258 130q34 0 47 22.5t13 87.5v20
q0 67 -13 86t-50 19q-22 0 -32 -7t-15.5 -33.5t-5.5 -84.5q0 -52 5.5 -75t15.5 -29t35 -6z" />
    <glyph glyph-name="e" unicode="e" horiz-adv-x="488" 
d="M266 -10q-60 0 -98.5 8.5t-72.5 34.5t-49.5 78t-15.5 134q0 84 12.5 135.5t42.5 79t68 36.5t101 9q124 0 164 -51.5t40 -181.5q0 -38 -12 -55t-46 -17h-201q4 -43 19 -54.5t57 -11.5q34 0 67.5 3t54.5 5.5t25 2.5q27 0 27 -68q0 -35 -7 -49t-22 -19q-55 -19 -154 -19z
M252 365q-32 0 -42.5 -11.5t-12.5 -56.5h104q0 43 -9 55.5t-40 12.5z" />
    <glyph glyph-name="f" unicode="f" horiz-adv-x="340" 
d="M10 425q0 40 5.5 52.5t24.5 12.5h30v68q0 72 35.5 97t104.5 25q52 0 100 -10q19 -4 24.5 -15t5.5 -47q0 -66 -27 -66q-4 0 -23 1.5t-34 1.5q-26 0 -26 -25v-30h70q19 0 24.5 -12.5t5.5 -52.5t-5.5 -52.5t-24.5 -12.5h-60v-315q0 -29 -17 -37t-68 -8t-68 8t-17 37v315h-30
q-19 0 -24.5 12.5t-5.5 52.5z" />
    <glyph glyph-name="g" unicode="g" horiz-adv-x="525" 
d="M30 250q0 80 10 130t33.5 77.5t56 37.5t85.5 10t82.5 -16.5t42.5 -54.5l5 20q7 27 20.5 34t56.5 7q47 0 62.5 -8.5t15.5 -29.5l-8 -59q-9 -60 -9 -147v-192q0 -67 -13.5 -115.5t-34.5 -76t-56.5 -43t-70.5 -20t-85 -4.5q-90 0 -147 18q-15 5 -22 19.5t-7 49.5q0 68 27 68
q1 0 46.5 -5.5t80.5 -5.5q73 0 92 19.5t20 90.5q-32 -64 -135 -64q-58 0 -88.5 20t-45 76t-14.5 164zM202 240q0 -52 5.5 -75t15.5 -29t35 -6q34 0 47 22.5t13 87.5v20q0 67 -13 86t-50 19q-22 0 -32 -7t-15.5 -33.5t-5.5 -84.5z" />
    <glyph glyph-name="h" unicode="h" horiz-adv-x="515" 
d="M120 0q-51 0 -68 8t-17 37v570q0 29 17 37t68 8t68 -8t17 -37v-166q40 56 131 56q78 0 108.5 -33t30.5 -115v-312q0 -29 -17 -37t-68 -8t-68 8t-17 37v270q0 24 -7.5 34.5t-26.5 10.5q-37 0 -51.5 -33t-14.5 -119v-163q0 -29 -17 -37t-68 -8z" />
    <glyph glyph-name="i" unicode="i" horiz-adv-x="245" 
d="M120 0q-51 0 -68 8t-17 37v405q0 29 17 37t68 8t68 -8t17 -37v-405q0 -29 -17 -37t-68 -8zM120 528q-61 0 -75.5 11.5t-14.5 50.5v8q0 39 14.5 50.5t75.5 11.5t75.5 -11.5t14.5 -50.5v-8q0 -39 -14.5 -50.5t-75.5 -11.5z" />
    <glyph glyph-name="j" unicode="j" horiz-adv-x="245" 
d="M120 495q51 0 68 -8t17 -37v-518q0 -132 -131 -132q-54 0 -100 13q-19 5 -26.5 19.5t-7.5 51.5q0 42 6.5 53t20.5 11q5 0 21 -1.5t22 -1.5q14 0 19.5 5t5.5 18v482q0 29 17 37t68 8zM120 528q-61 0 -75.5 11.5t-14.5 50.5v8q0 39 14.5 50.5t75.5 11.5t75.5 -11.5
t14.5 -50.5v-8q0 -39 -14.5 -50.5t-75.5 -11.5z" />
    <glyph glyph-name="k" unicode="k" horiz-adv-x="502" 
d="M120 0q-51 0 -68 8t-17 37v570q0 29 17 37t68 8t68 -8t17 -37v-306h14l65 145q12 27 30.5 34t75.5 7q47 0 65 -6t18 -21q0 -19 -13 -43l-91 -166l105 -189q13 -22 13 -36q0 -34 -89 -34q-50 0 -69 7.5t-31 33.5l-79 167h-14v-163q0 -29 -17 -37t-68 -8z" />
    <glyph glyph-name="l" unicode="l" horiz-adv-x="245" 
d="M120 0q-51 0 -68 8t-17 37v570q0 29 17 37t68 8t68 -8t17 -37v-570q0 -29 -17 -37t-68 -8z" />
    <glyph glyph-name="m" unicode="m" horiz-adv-x="772" 
d="M127 0q-51 0 -68 8t-17 37v206q0 87 -8 147l-9 59q0 21 15.5 29.5t62.5 8.5q43 0 56.5 -7t20.5 -34l10 -39q35 90 143 90q55 0 85.5 -16t43.5 -53q37 69 131 69q78 0 108.5 -33t30.5 -115v-312q0 -29 -17 -37t-68 -8t-68 8t-17 37v270q0 24 -7.5 34.5t-26.5 10.5
q-34 0 -45 -32t-11 -120v-163q0 -29 -17 -37t-68 -8t-68 8t-17 37v270q0 24 -7.5 34.5t-26.5 10.5q-34 0 -45 -32t-11 -120v-163q0 -29 -17 -37t-68 -8z" />
    <glyph glyph-name="n" unicode="n" horiz-adv-x="522" 
d="M127 0q-51 0 -68 8t-17 37v206q0 87 -8 147l-9 59q0 21 15.5 29.5t62.5 8.5q43 0 56.5 -7t20.5 -34l12 -46q42 97 151 97q78 0 108.5 -33t30.5 -115v-312q0 -29 -17 -37t-68 -8t-68 8t-17 37v270q0 24 -7.5 34.5t-26.5 10.5q-37 0 -51.5 -33t-14.5 -119v-163
q0 -29 -17 -37t-68 -8z" />
    <glyph glyph-name="o" unicode="o" horiz-adv-x="512" 
d="M248 -10q-84 0 -129 20t-67 75t-22 160q0 84 12 135.5t42.5 79t70.5 36.5t109 9q85 0 129 -18.5t66.5 -72.5t22.5 -159q0 -85 -12 -136.5t-42 -80.5t-71 -38.5t-109 -9.5zM253 130q38 0 47.5 21t9.5 97t-10.5 96.5t-41.5 20.5q-38 0 -47.5 -19t-9.5 -94q0 -77 11 -99.5
t41 -22.5z" />
    <glyph glyph-name="p" unicode="p" horiz-adv-x="526" 
d="M127 -185q-51 0 -68 8t-17 37v391q0 87 -8 147l-9 59q0 21 15.5 29.5t62.5 8.5q43 0 56.5 -7t20.5 -34l7 -28q41 79 149 79q92 0 126 -48t34 -192q0 -115 -19.5 -175.5t-54.5 -80t-101 -19.5q-85 0 -109 43v-173q0 -29 -17 -37t-68 -8zM271 130q22 0 32 7t15.5 33.5
t5.5 84.5q0 52 -5.5 75t-15.5 29t-35 6q-33 0 -46.5 -20.5t-13.5 -85.5v-24q0 -67 13 -86t50 -19z" />
    <glyph glyph-name="q" unicode="q" horiz-adv-x="525" 
d="M398 -185q-51 0 -68 8t-17 37v194q-32 -64 -135 -64q-58 0 -88.5 20t-45 76t-14.5 164q0 80 10 130t33.5 77.5t56 37.5t85.5 10t82.5 -16.5t42.5 -54.5l5 20q7 27 20.5 34t56.5 7q47 0 62.5 -8.5t15.5 -29.5l-8 -59q-9 -60 -9 -147v-391q0 -29 -17 -37t-68 -8zM246 130
q37 0 50 19t13 86v24q0 65 -13.5 85.5t-46.5 20.5q-25 0 -35 -6t-15.5 -29t-5.5 -75q0 -58 5.5 -84.5t15.5 -33.5t32 -7z" />
    <glyph glyph-name="r" unicode="r" horiz-adv-x="386" 
d="M127 0q-51 0 -68 8t-17 37v206q0 87 -8 147l-9 59q0 21 15.5 29.5t62.5 8.5q43 0 56.5 -7t20.5 -34l8 -30q38 76 121 76q27 0 45 -5q16 -5 22.5 -19.5t6.5 -58.5q0 -70 -30 -70q-2 0 -19.5 1.5t-32.5 1.5q-45 0 -67 -32.5t-22 -112.5v-160q0 -29 -17 -37t-68 -8z" />
    <glyph glyph-name="s" unicode="s" horiz-adv-x="451" 
d="M206 -10q-90 0 -147 18q-15 5 -22 19.5t-7 49.5q0 68 27 68q1 0 46.5 -5.5t80.5 -5.5q65 0 65 22q0 14 -22 23l-93 40q-83 36 -83 134q0 44 17 75.5t46 47.5t58.5 22.5t63.5 6.5q86 0 151 -17q16 -4 22.5 -18t6.5 -55q0 -65 -30 -65q-4 0 -43 6.5t-69 6.5q-51 0 -51 -17
q0 -10 21 -19l90 -35q49 -19 68 -50t19 -82q0 -170 -215 -170z" />
    <glyph glyph-name="t" unicode="t" horiz-adv-x="350" 
d="M195 -10q-64 0 -94.5 28.5t-30.5 103.5v238h-30q-19 0 -24.5 12.5t-5.5 52.5t5.5 52.5t24.5 12.5h30v65q0 29 17 37t68 8t68 -8t17 -37v-65h60q19 0 24.5 -12.5t5.5 -52.5t-5.5 -52.5t-24.5 -12.5h-60v-204q0 -9 4.5 -13t18.5 -4q9 0 22 2t18 2q14 0 20.5 -11.5
t6.5 -49.5q0 -36 -6.5 -50.5t-22.5 -21.5q-43 -20 -106 -20z" />
    <glyph glyph-name="u" unicode="u" horiz-adv-x="515" 
d="M171 -10q-73 0 -104.5 29.5t-31.5 108.5v322q0 29 17 37t68 8t68 -8t17 -37v-278q0 -23 7 -30t27 -7q37 0 50.5 32.5t13.5 119.5v163q0 29 17 37t68 8t68 -8t17 -37v-206q0 -87 9 -146l8 -60q0 -21 -15.5 -29.5t-62.5 -8.5q-43 0 -56.5 7t-20.5 34l-10 38
q-41 -89 -154 -89z" />
    <glyph glyph-name="v" unicode="v" horiz-adv-x="498" 
d="M249 0q-79 0 -105.5 12t-35.5 48l-89 335q-9 32 -9 53q0 29 14.5 38t70.5 9q55 0 72.5 -8t22.5 -36l53 -300h12l53 300q5 28 22.5 36t72.5 8q56 0 70.5 -9t14.5 -38q0 -21 -9 -53l-89 -335q-9 -36 -35.5 -48t-105.5 -12z" />
    <glyph glyph-name="w" unicode="w" horiz-adv-x="726" 
d="M193 0q-74 0 -99.5 12t-30.5 48l-48 335q-5 38 -5 53q0 29 14.5 38t70.5 9q55 0 72 -8t19 -36l27 -300h13l42 292q4 25 24 33.5t71 8.5t71 -8.5t24 -33.5l42 -292h13l27 300q2 28 19 36t72 8q56 0 70.5 -9t14.5 -38q0 -15 -5 -53l-48 -335q-5 -36 -30.5 -48t-99.5 -12
q-78 0 -107.5 12.5t-34.5 47.5l-23 164h-10l-23 -164q-5 -35 -34.5 -47.5t-107.5 -12.5z" />
    <glyph glyph-name="x" unicode="x" horiz-adv-x="474" 
d="M90 0q-47 0 -63.5 7.5t-16.5 23.5q0 12 14 36l110 185l-94 159q-20 34 -20 47q0 21 19 29t69 8q57 0 75 -7t28 -34l26 -68h4l24 68q10 29 26.5 35t74.5 6q50 0 69 -8t19 -29q0 -14 -19 -44l-97 -151l110 -192q16 -28 16 -39q0 -16 -16.5 -24t-63.5 -8q-60 0 -81.5 10
t-35.5 47l-30 82h-4l-28 -82q-13 -36 -34.5 -46.5t-80.5 -10.5z" />
    <glyph glyph-name="y" unicode="y" horiz-adv-x="499" 
d="M10 454q0 21 16.5 31t71.5 10q54 0 71 -8t21 -36l46 -314h14l58 314q5 28 22 36t69 8q55 0 72.5 -9t17.5 -31q0 -19 -23 -111l-93 -362q-29 -111 -69 -146.5t-140 -35.5q-75 0 -124 19q-16 6 -22.5 19.5t-6.5 48.5q0 68 27 68q1 0 36.5 -5.5t70.5 -5.5q45 0 59 9t19 33
l2 14h-14q-63 0 -84.5 13t-29.5 47l-64 275q-23 98 -23 119z" />
    <glyph glyph-name="z" unicode="z" horiz-adv-x="407" 
d="M392 71q0 -71 -30 -71h-322q-18 0 -24 15t-6 48q0 42 8.5 66.5t37.5 57.5l146 166h-142q-30 0 -30 71t30 71h302q30 0 30 -63q0 -70 -33 -108l-159 -182h162q30 0 30 -71z" />
    <glyph glyph-name="braceleft" unicode="{" horiz-adv-x="348" 
d="M86 209q0 37 -26 37t-33 12t-7 57t7 56.5t33 11.5t26 37q0 17 -0.5 52.5t-0.5 59.5q0 73 27.5 110.5t94.5 37.5q59 0 105 -12q15 -4 20.5 -19.5t5.5 -51.5q0 -59 -27 -59q-8 0 -26 0.5t-24 0.5q-17 0 -17 -33q0 -10 0.5 -44t0.5 -44q0 -79 -53 -101v-5q53 -22 53 -101
q0 -11 -0.5 -44t-0.5 -44q0 -33 17 -33q6 0 24 0.5t26 0.5q27 0 27 -59q0 -36 -5.5 -51.5t-20.5 -19.5q-46 -12 -105 -12q-67 0 -94.5 37.5t-27.5 110.5q0 24 0.5 59.5t0.5 52.5z" />
    <glyph glyph-name="bar" unicode="|" horiz-adv-x="191" 
d="M95 -185q-43 0 -54 9t-11 45v757q0 36 11 45t54 9q44 0 55 -9t11 -45v-757q0 -36 -11 -45t-55 -9z" />
    <glyph glyph-name="braceright" unicode="}" horiz-adv-x="348" 
d="M141 -51q-59 0 -105 12q-15 4 -20.5 19.5t-5.5 51.5q0 59 27 59q8 0 26 -0.5t24 -0.5q17 0 17 33q0 11 -0.5 44t-0.5 44q0 79 53 101v5q-53 22 -53 101q0 10 0.5 44t0.5 44q0 33 -17 33q-6 0 -24 -0.5t-26 -0.5q-27 0 -27 59q0 36 5.5 51.5t20.5 19.5q46 12 105 12
q67 0 94.5 -37.5t27.5 -110.5q0 -24 -0.5 -59.5t-0.5 -52.5q0 -37 26 -37t33 -12t7 -57t-7 -56.5t-33 -11.5t-26 -37q0 -17 0.5 -52.5t0.5 -59.5q0 -73 -27.5 -110.5t-94.5 -37.5z" />
    <glyph glyph-name="asciitilde" unicode="~" 
d="M62 268q0 54 30 74q32 22 77 22q29 0 70 -11.5t66 -11.5q24 0 47.5 9t27.5 9q13 0 20 -12t7 -45q0 -54 -30 -74q-32 -22 -77 -22q-28 0 -69 11.5t-67 11.5q-24 0 -47.5 -9t-27.5 -9q-13 0 -20 12t-7 45z" />
    <glyph glyph-name="nbspace" unicode="&#xa0;" horiz-adv-x="220" 
 />
    <glyph glyph-name="exclamdown" unicode="&#xa1;" horiz-adv-x="231" 
d="M116 446q49 0 62 -7.5t13 -37.5q0 -34 5 -166.5t5 -189.5q0 -29 -17 -37t-68 -8t-68 8t-17 37q0 57 5 189.5t5 166.5q0 30 13 37.5t62 7.5zM115 630q54 0 69.5 -11t15.5 -50v-25q0 -39 -15.5 -50t-69.5 -11t-69.5 11t-15.5 50v25q0 39 15.5 50t69.5 11z" />
    <glyph glyph-name="cent" unicode="&#xa2;" 
d="M256 630q42 0 56 -8t14 -37v-55q38 -4 68 -14q16 -6 22.5 -17.5t6.5 -45.5q0 -68 -27 -68q-3 0 -45 5.5t-64 5.5q-44 0 -59.5 -12.5t-15.5 -53.5q0 -57 14.5 -74t63.5 -17q35 0 70.5 5.5t36.5 5.5q27 0 27 -68q0 -34 -6.5 -46t-22.5 -17q-34 -12 -69 -16v-58
q0 -29 -14 -37t-56 -8t-56 8t-14 37v61q-70 13 -105.5 60.5t-35.5 148.5q0 108 34 156t107 59v55q0 29 14 37t56 8z" />
    <glyph glyph-name="sterling" unicode="&#xa3;" 
d="M338 313q0 -31 -7 -39.5t-29 -8.5h-58v-16q0 -20 -7.5 -53t-18.5 -48h196q23 0 31.5 -15t8.5 -59t-8.5 -59t-31.5 -15h-336q-26 0 -35.5 7.5t-9.5 32.5q0 36 23 94t23 112v19h-36q-22 0 -29 8.5t-7 39.5t7 39.5t29 8.5h36v86q0 44 6 77t19 53t26 32.5t34.5 17.5t36.5 6.5
t39 1.5q85 0 172 -19q13 -3 18.5 -17t5.5 -59q0 -62 -24 -62q-9 0 -46 3.5t-59 3.5q-39 0 -51 -8t-12 -43v-73h58q22 0 29 -8.5t7 -39.5z" />
    <glyph glyph-name="currency" unicode="&#xa4;" 
d="M126 52q-51 0 -51 19q0 14 15 53l9 22q-35 35 -35 122t35 122l-9 22q-15 39 -15 53q0 19 51 19q35 0 47 -6t20 -26l10 -27q5 0 16.5 0.5t17.5 0.5t17 -0.5t16 -0.5l11 27q8 20 20 26t47 6q51 0 51 -19q0 -14 -15 -53l-9 -22q35 -35 35 -122q0 -85 -35 -122l9 -22
q15 -39 15 -53q0 -19 -51 -19q-35 0 -47 6t-20 26l-11 27q-10 -1 -33 -1t-34 1l-10 -27q-8 -20 -20 -26t-47 -6zM237 213q28 0 35 10.5t7 46.5q0 33 -7 43t-35 10t-35 -10t-7 -43q0 -36 7 -46.5t35 -10.5z" />
    <glyph glyph-name="yen" unicode="&#xa5;" 
d="M235 0q-51 0 -68 8t-17 37v34h-57q-22 0 -29 8.5t-7 39.5t7 39.5t29 8.5h57v39h-59q-22 0 -29 9t-7 41t7 41t29 9h36l-99 212q-21 46 -21 65q0 23 14.5 31t66.5 8q55 0 71.5 -8.5t25.5 -41.5l47 -171h6l47 171q9 33 25.5 41.5t71.5 8.5q52 0 66.5 -8t14.5 -31
q0 -19 -21 -65l-99 -212h36q22 0 29 -9t7 -41t-7 -41t-29 -9h-59v-39h57q22 0 29 -8.5t7 -39.5t-7 -39.5t-29 -8.5h-57v-34q0 -29 -17 -37t-68 -8z" />
    <glyph glyph-name="brokenbar" unicode="&#xa6;" horiz-adv-x="191" 
d="M95 280q-43 0 -54 9t-11 45v292q0 36 11 45t54 9q44 0 55 -9t11 -45v-292q0 -36 -11 -45t-55 -9zM95 -185q-43 0 -54 9t-11 45v292q0 36 11 45t54 9q44 0 55 -9t11 -45v-292q0 -36 -11 -45t-55 -9z" />
    <glyph glyph-name="section" unicode="&#xa7;" horiz-adv-x="445" 
d="M29 210q0 79 52 124q-52 36 -52 129q0 172 191 172q93 0 164 -19q13 -3 18.5 -17t5.5 -59q0 -66 -26 -66q-3 0 -40.5 5.5t-78.5 5.5q-71 0 -71 -24q0 -18 37 -29l75 -25q63 -21 92 -56t29 -95q0 -75 -47 -115q47 -33 47 -128q0 -108 -62 -153t-173 -45q-76 0 -138 17
q-19 6 -25.5 20t-6.5 58q0 39 5.5 52.5t19.5 13.5q5 0 41 -5.5t79 -5.5q98 0 98 40q0 16 -7.5 24t-37.5 18l-76 26q-58 19 -85.5 50t-27.5 87zM192 252q0 -44 37 -55l26 -9q8 13 8 30q0 15 -2 25t-12.5 21t-30.5 18l-20 6q-6 -14 -6 -36z" />
    <glyph glyph-name="dieresis" unicode="&#xa8;" horiz-adv-x="410" 
d="M105 528q-55 0 -70 11.5t-15 50.5v8q0 39 15 50.5t70 11.5t70 -11.5t15 -50.5v-8q0 -39 -15 -50.5t-70 -11.5zM305 528q-55 0 -70 11.5t-15 50.5v8q0 39 15 50.5t70 11.5t70 -11.5t15 -50.5v-8q0 -39 -15 -50.5t-70 -11.5z" />
    <glyph glyph-name="copyright" unicode="&#xa9;" horiz-adv-x="896" 
d="M448 -30q79 0 132 13.5t86 38t50.5 70t23.5 96.5t6 130q0 64 -4 108t-15 85.5t-31.5 67t-53.5 45t-80.5 28t-113.5 8.5t-113.5 -8.5t-80.5 -28t-53.5 -45t-31.5 -67t-15 -85.5t-4 -108q0 -79 6 -130t23.5 -96.5t50.5 -70t86 -38t132 -13.5zM448 -140q-92 0 -161.5 13.5
t-116 42.5t-76.5 65.5t-46 91.5t-22 110.5t-6 131.5t6 131.5t22 110.5t46 91.5t76.5 65.5t116 42.5t161.5 13.5t161.5 -13.5t116 -42.5t76.5 -65.5t46 -91.5t22 -110.5t6 -131.5t-6 -131.5t-22 -110.5t-46 -91.5t-76.5 -65.5t-116 -42.5t-161.5 -13.5zM471 60q-56 0 -93 9
t-69.5 34.5t-48 78t-15.5 133.5q0 83 13 135.5t42 79.5t65 36t93 9q81 0 136 -19q16 -6 22.5 -19.5t6.5 -48.5q0 -68 -27 -68q-3 0 -45 5.5t-64 5.5q-32 0 -45.5 -4.5t-21.5 -26.5t-8 -70q0 -84 13.5 -105t64.5 -21q35 0 70.5 5.5t36.5 5.5q27 0 27 -68q0 -35 -7 -49
t-22 -19q-55 -19 -124 -19z" />
    <glyph glyph-name="ordfeminine" unicode="&#xaa;" horiz-adv-x="367" 
d="M118 242q-51 0 -74.5 28t-23.5 89q0 64 34 92.5t122 28.5h31q-1 27 -8.5 34t-30.5 7q-30 0 -65 -5t-40 -5q-22 0 -22 55q0 27 5 38.5t19 16.5q42 14 122 14q81 0 114 -22t33 -91v-86q0 -49 3 -83t6.5 -50.5t3.5 -23.5q0 -16 -11.5 -22.5t-47.5 -6.5q-34 0 -46 5.5
t-16 25.5l-6 26q-24 -65 -102 -65zM170 343q37 0 37 57v5l-28 -1q-21 -1 -28 -7.5t-7 -23.5q0 -18 5.5 -24t20.5 -6z" />
    <glyph glyph-name="guillemotleft" unicode="&#xab;" horiz-adv-x="635" 
d="M491 255v-8l87 -76q24 -22 30.5 -38t6.5 -64q0 -30 -7.5 -40.5t-21.5 -10.5q-11 0 -25 7l-166 95q-24 13 -34.5 23.5t-18 36t-7.5 71.5t7.5 71.5t18 36t34.5 23.5l166 95q14 7 25 7q14 0 21.5 -10.5t7.5 -40.5q0 -48 -6.5 -64t-30.5 -38zM181 255v-8l87 -66
q24 -18 30.5 -34.5t6.5 -67.5q0 -30 -7.5 -40.5t-21.5 -10.5q-11 0 -25 7l-171 95q-35 20 -47.5 41.5t-12.5 79.5t12.5 79.5t47.5 41.5l171 95q14 7 25 7q14 0 21.5 -10.5t7.5 -40.5q0 -51 -6.5 -67.5t-30.5 -34.5z" />
    <glyph glyph-name="logicalnot" unicode="&#xac;" 
d="M354 139q-49 0 -62 7.5t-13 37.5v57h-198q-24 0 -32 13t-8 56t8 56t32 13h303q26 0 35.5 -7.5t9.5 -32.5v-155q0 -30 -13 -37.5t-62 -7.5z" />
    <glyph glyph-name="registered" unicode="&#xae;" horiz-adv-x="896" 
d="M448 -140q-92 0 -161.5 13.5t-116 42.5t-76.5 65.5t-46 91.5t-22 110.5t-6 131.5t6 131.5t22 110.5t46 91.5t76.5 65.5t116 42.5t161.5 13.5t161.5 -13.5t116 -42.5t76.5 -65.5t46 -91.5t22 -110.5t6 -131.5t-6 -131.5t-22 -110.5t-46 -91.5t-76.5 -65.5t-116 -42.5
t-161.5 -13.5zM448 -30q79 0 132 13.5t86 38t50.5 70t23.5 96.5t6 130q0 64 -4 108t-15 85.5t-31.5 67t-53.5 45t-80.5 28t-113.5 8.5t-113.5 -8.5t-80.5 -28t-53.5 -45t-31.5 -67t-15 -85.5t-4 -108q0 -79 6 -130t23.5 -96.5t50.5 -70t86 -38t132 -13.5zM334 70
q-51 0 -68 8t-17 37v401q0 28 8 37.5t34 12.5q77 9 186 9q102 0 144 -38t42 -147q0 -92 -58 -126l55 -121q16 -33 16 -45q0 -15 -15 -21.5t-59 -6.5q-64 0 -80.5 7t-25.5 40l-32 118h-45v-120q0 -29 -17 -37t-68 -8zM419 437v-92h30q29 0 38.5 10.5t9.5 40.5q0 26 -6 34.5
t-29 8.5q-21 0 -43 -2z" />
    <glyph glyph-name="macron" unicode="&#xaf;" horiz-adv-x="300" 
d="M20 606q0 43 7 55.5t33 12.5h180q26 0 33 -12.5t7 -55.5t-7 -55.5t-33 -12.5h-180q-26 0 -33 12.5t-7 55.5z" />
    <glyph glyph-name="degree" unicode="&#xb0;" horiz-adv-x="368" 
d="M184 310q-98 0 -131 32t-33 132q0 98 35 129.5t129 31.5t129 -31.5t35 -129.5q0 -100 -33 -132t-131 -32zM151 472q0 -28 6 -35.5t27 -7.5t27 7.5t6 35.5t-6 35.5t-27 7.5t-27 -7.5t-6 -35.5z" />
    <glyph glyph-name="plusminus" unicode="&#xb1;" 
d="M70 335q0 38 7 48t33 10h57v62q0 26 11.5 33t56.5 7t56.5 -7t11.5 -33v-62h56q26 0 33 -10t7 -48t-7 -48t-33 -10h-56v-62q0 -26 -11.5 -33t-56.5 -7t-56.5 7t-11.5 33v62h-57q-26 0 -33 10t-7 48zM80 77q0 41 7 52t33 11h230q26 0 33 -11t7 -52t-7 -52t-33 -11h-230
q-26 0 -33 11t-7 52z" />
    <glyph glyph-name="twosuperior" unicode="&#xb2;" horiz-adv-x="330" 
d="M190 405h81q22 0 29 -9t7 -46q0 -38 -7 -47t-29 -9h-211q-23 0 -31.5 6.5t-8.5 28.5v22q0 21 10 37t32 40l72 76q22 23 22 44q0 16 -7.5 21t-29.5 5q-12 0 -33.5 -3t-31.5 -3q-11 0 -16 8t-5 38q0 34 5.5 44t21.5 14q41 11 102 11q23 0 38.5 -1.5t34.5 -7t30.5 -15.5
t19.5 -29t8 -45q0 -38 -10.5 -61t-38.5 -56z" />
    <glyph glyph-name="threesuperior" unicode="&#xb3;" horiz-adv-x="330" 
d="M154 286q-66 0 -107 11q-16 5 -21 15t-5 43q0 29 5 37.5t15 8.5t36 -3t38 -3q45 0 45 25q0 17 -13 22t-48 5q-13 0 -17.5 9t-4.5 30t4.5 30.5t17.5 9.5q36 0 48.5 4.5t12.5 19.5q0 24 -41 24q-12 0 -38 -3t-36 -3q-11 0 -15.5 8t-4.5 38q0 34 5 44t21 14q41 11 107 11
q23 0 39 -1.5t35 -7.5t30 -16t19 -29t8 -45q0 -41 -18 -67t-51 -33q79 -1 79 -95q0 -27 -9.5 -47t-22.5 -30.5t-34 -16.5t-38.5 -7.5t-40.5 -1.5z" />
    <glyph glyph-name="acute" unicode="&#xb4;" horiz-adv-x="242" 
d="M86 538q-37 0 -51.5 7t-14.5 23q0 21 7 49l11 49q9 37 25.5 48t73.5 11q52 0 68.5 -7t16.5 -25t-19 -62l-22 -49q-11 -25 -28.5 -34.5t-66.5 -9.5z" />
    <glyph glyph-name="mu" unicode="&#xb5;" horiz-adv-x="495" 
d="M105 -185q-51 0 -68 8t-17 37v590q0 29 17 37t68 8t68 -8t17 -37v-278q0 -23 7 -30t27 -7q37 0 50.5 32.5t13.5 119.5v163q0 29 17 37t68 8t68 -8t17 -37v-206q0 -87 8 -146l9 -60q0 -21 -15.5 -29.5t-62.5 -8.5q-43 0 -56.5 7t-20.5 34l-10 38q-35 -75 -120 -87v-132
q0 -29 -17 -37t-68 -8z" />
    <glyph glyph-name="paragraph" unicode="&#xb6;" horiz-adv-x="664" 
d="M298 -200q-90 0 -147 18q-15 5 -22 19.5t-7 49.5q0 68 27 68q1 0 46.5 -5.5t80.5 -5.5q76 0 94 21t18 101v416h-54v-296q0 -24 -7.5 -34.5t-28.5 -15.5q-43 -9 -90 -9q-66 0 -100 19.5t-50.5 73t-16.5 156.5q0 144 36 199t133 55h382q23 0 31.5 -15t8.5 -59t-8.5 -59
t-31.5 -15h-34v-423q0 -67 -13.5 -115.5t-34.5 -76t-56.5 -43t-70.5 -20t-85 -4.5z" />
    <glyph glyph-name="middot" unicode="&#xb7;" horiz-adv-x="230" 
d="M115 200q-54 0 -69.5 11t-15.5 50v45q0 39 15.5 50t69.5 11t69.5 -11t15.5 -50v-45q0 -39 -15.5 -50t-69.5 -11z" />
    <glyph glyph-name="cedilla" unicode="&#xb8;" horiz-adv-x="282" 
d="M127 -250q-44 0 -75 7q-18 4 -25 14.5t-7 44.5t7.5 46t22.5 12q6 0 26 -2.5t31 -2.5q16 0 16 8t-24 18q-23 9 -30.5 22t-7.5 45v62h118v-42q0 -10 13 -16q41 -20 55.5 -41t14.5 -63q0 -58 -33.5 -85t-101.5 -27z" />
    <glyph glyph-name="onesuperior" unicode="&#xb9;" horiz-adv-x="330" 
d="M40 350q0 37 7 46.5t28 9.5h31v140l-21 -4q-20 -4 -23 -4q-24 0 -24 53q0 33 6.5 43t28.5 17l55 19q32 10 67 10q26 0 33.5 -7t7.5 -33v-234h32q21 0 28 -9.5t7 -46.5t-7 -46.5t-28 -9.5h-193q-21 0 -28 9.5t-7 46.5z" />
    <glyph glyph-name="ordmasculine" unicode="&#xba;" horiz-adv-x="376" 
d="M182 240q-92 0 -127 39.5t-35 156.5q0 85 18.5 128.5t53 57t102.5 13.5q93 0 127.5 -37.5t34.5 -153.5q0 -65 -9 -105t-31.5 -62t-53 -29.5t-80.5 -7.5zM185 348q26 0 31.5 15.5t5.5 74.5q0 60 -6 75t-27 15q-25 0 -30.5 -14t-5.5 -73q0 -61 5.5 -77t26.5 -16z" />
    <glyph glyph-name="guillemotright" unicode="&#xbb;" horiz-adv-x="635" 
d="M300 251q0 -46 -7.5 -71.5t-18 -36t-34.5 -23.5l-166 -95q-14 -7 -25 -7q-14 0 -21.5 10.5t-7.5 40.5q0 48 6.5 64t30.5 38l87 76v8l-87 76q-24 22 -30.5 38t-6.5 64q0 30 7.5 40.5t21.5 10.5q11 0 25 -7l166 -95q24 -13 34.5 -23.5t18 -36t7.5 -71.5zM615 251
q0 -58 -12.5 -79.5t-47.5 -41.5l-171 -95q-14 -7 -25 -7q-14 0 -21.5 10.5t-7.5 40.5q0 51 6.5 67.5t30.5 34.5l87 66v8l-87 66q-24 18 -30.5 34.5t-6.5 67.5q0 30 7.5 40.5t21.5 10.5q11 0 25 -7l171 -95q35 -20 47.5 -41.5t12.5 -79.5z" />
    <glyph glyph-name="onequarter" unicode="&#xbc;" horiz-adv-x="851" 
d="M710 0q-34 0 -50 5t-16 22v43h-128q-20 0 -27 10t-7 41q0 45 20 85l74 147q11 23 31.5 30t73.5 7q56 0 74.5 -7.5t18.5 -36.5v-178h24q24 0 24 -53q0 -27 -5 -36t-19 -9h-24v-43q0 -17 -15 -22t-49 -5zM311 0q-33 0 -44 4.5t-11 16.5q0 16 10 45l192 539q8 22 22.5 30.5
t52.5 8.5q33 0 44 -4.5t11 -16.5q0 -16 -10 -45l-192 -539q-8 -22 -22.5 -30.5t-52.5 -8.5zM38 555q0 33 6.5 43t28.5 17l55 19q32 10 67 10q26 0 33.5 -7t7.5 -33v-234h32q21 0 28 -9.5t7 -46.5t-7 -46.5t-28 -9.5h-193q-21 0 -28 9.5t-7 46.5t7 46.5t28 9.5h31v140l-21 -4
q-20 -4 -23 -4q-24 0 -24 53zM651 293l-57 -125h57v125z" />
    <glyph glyph-name="onehalf" unicode="&#xbd;" horiz-adv-x="837" 
d="M311 0q-33 0 -44 4.5t-11 16.5q0 16 10 45l192 539q8 22 22.5 30.5t52.5 8.5q33 0 44 -4.5t11 -16.5q0 -16 -10 -45l-192 -539q-8 -22 -22.5 -30.5t-52.5 -8.5zM40 314q0 37 7 46.5t28 9.5h31v140l-21 -4q-20 -4 -23 -4q-24 0 -24 53q0 33 6.5 43t28.5 17l55 19
q32 10 67 10q26 0 33.5 -7t7.5 -33v-234h32q21 0 28 -9.5t7 -46.5t-7 -46.5t-28 -9.5h-193q-21 0 -28 9.5t-7 46.5zM812 56q0 -38 -7 -47t-29 -9h-211q-23 0 -31.5 6.5t-8.5 28.5v22q0 21 10 37t32 40l72 76q22 23 22 44q0 16 -7.5 21t-29.5 5q-12 0 -33.5 -3t-31.5 -3
q-11 0 -16 8t-5 38q0 34 5.5 44t21.5 14q41 11 102 11q23 0 38.5 -1.5t34.5 -7t30.5 -15.5t19.5 -29t8 -45q0 -38 -10.5 -61t-38.5 -56l-54 -63h81q22 0 29 -9t7 -46z" />
    <glyph glyph-name="threequarters" unicode="&#xbe;" horiz-adv-x="828" 
d="M687 0q-34 0 -50 5t-16 22v43h-128q-20 0 -27 10t-7 41q0 45 20 85l74 147q11 23 31.5 30t73.5 7q56 0 74.5 -7.5t18.5 -36.5v-178h24q24 0 24 -53q0 -27 -5 -36t-19 -9h-24v-43q0 -17 -15 -22t-49 -5zM287 0q-33 0 -44 4.5t-11 16.5q0 16 10 45l192 539q8 22 22.5 30.5
t52.5 8.5q33 0 44 -4.5t11 -16.5q0 -16 -10 -45l-192 -539q-8 -22 -22.5 -30.5t-52.5 -8.5zM153 250q-66 0 -107 11q-16 5 -21 15t-5 43q0 29 5 37.5t15 8.5t36 -3t38 -3q45 0 45 25q0 17 -13 22t-48 5q-13 0 -17.5 9t-4.5 30t4.5 30.5t17.5 9.5q36 0 48.5 4.5t12.5 19.5
q0 24 -41 24q-12 0 -38 -3t-36 -3q-11 0 -15.5 8t-4.5 38q0 34 5 44t21 14q41 11 107 11q23 0 39 -1.5t35 -7.5t30 -16t19 -29t8 -45q0 -41 -18 -67t-51 -33q79 -1 79 -95q0 -27 -9.5 -47t-22.5 -30.5t-34 -16.5t-38.5 -7.5t-40.5 -1.5zM628 293l-57 -125h57v125z" />
    <glyph glyph-name="questiondown" unicode="&#xbf;" horiz-adv-x="375" 
d="M207 451q43 0 59 -8t16 -37v-48q0 -44 -28 -73l-47 -51q-25 -27 -25 -56q0 -19 9.5 -26t31.5 -7q29 0 68 5.5t49 5.5q13 0 19 -13.5t6 -51.5q0 -43 -6 -55t-24 -18q-61 -18 -155 -18q-170 0 -170 134q0 48 12.5 77t37.5 58l55 64q17 20 17 48v25q0 29 16 37t59 8z
M207 635q54 0 69.5 -11t15.5 -50v-25q0 -39 -15.5 -50t-69.5 -11t-69.5 11t-15.5 50v25q0 39 15.5 50t69.5 11z" />
    <glyph glyph-name="Agrave" unicode="&#xc0;" horiz-adv-x="556" 
d="M91 0q-52 0 -66.5 8t-14.5 31q0 16 8 51l101 460q12 52 41 66t118 14t118 -14t41 -66l101 -460q8 -35 8 -51q0 -23 -14.5 -31t-66.5 -8q-56 0 -73.5 9t-23.5 41l-17 90h-146l-17 -90q-6 -32 -23.5 -41t-73.5 -9zM271 492l-43 -227h99l-42 227h-14zM303 673
q-49 0 -66.5 9.5t-28.5 34.5l-22 49q-19 44 -19 62t16.5 25t68.5 7q57 0 73.5 -11t25.5 -48l11 -49q7 -28 7 -49q0 -16 -14.5 -23t-51.5 -7z" />
    <glyph glyph-name="Aacute" unicode="&#xc1;" horiz-adv-x="556" 
d="M91 0q-52 0 -66.5 8t-14.5 31q0 16 8 51l101 460q12 52 41 66t118 14t118 -14t41 -66l101 -460q8 -35 8 -51q0 -23 -14.5 -31t-66.5 -8q-56 0 -73.5 9t-23.5 41l-17 90h-146l-17 -90q-6 -32 -23.5 -41t-73.5 -9zM271 492l-43 -227h99l-42 227h-14zM253 673q-37 0 -51.5 7
t-14.5 23q0 21 7 49l11 49q9 37 25.5 48t73.5 11q52 0 68.5 -7t16.5 -25t-19 -62l-22 -49q-11 -25 -28.5 -34.5t-66.5 -9.5z" />
    <glyph glyph-name="Acircumflex" unicode="&#xc2;" horiz-adv-x="556" 
d="M91 0q-52 0 -66.5 8t-14.5 31q0 16 8 51l101 460q12 52 41 66t118 14t118 -14t41 -66l101 -460q8 -35 8 -51q0 -23 -14.5 -31t-66.5 -8q-56 0 -73.5 9t-23.5 41l-17 90h-146l-17 -90q-6 -32 -23.5 -41t-73.5 -9zM271 492l-43 -227h99l-42 227h-14zM281 744h-6l-26 -35
q-16 -22 -33.5 -29t-52.5 -7q-50 0 -50 29q0 15 18 46l43 79q10 18 24 25.5t44 7.5h72q30 0 44 -7.5t24 -25.5l43 -79q18 -31 18 -46q0 -29 -50 -29q-35 0 -51.5 7t-33.5 29z" />
    <glyph glyph-name="Atilde" unicode="&#xc3;" horiz-adv-x="556" 
d="M91 0q-52 0 -66.5 8t-14.5 31q0 16 8 51l101 460q12 52 41 66t118 14t118 -14t41 -66l101 -460q8 -35 8 -51q0 -23 -14.5 -31t-66.5 -8q-56 0 -73.5 9t-23.5 41l-17 90h-146l-17 -90q-6 -32 -23.5 -41t-73.5 -9zM271 492l-43 -227h99l-42 227h-14zM115 729q0 34 5.5 47.5
t22.5 24.5q33 21 74 21q30 0 70 -9.5t59 -9.5q22 0 45 6.5t28 6.5q13 0 17 -10t4 -45q0 -34 -5.5 -47.5t-22.5 -24.5q-33 -21 -74 -21q-30 0 -70 9.5t-59 9.5q-23 0 -46 -6.5t-27 -6.5q-13 0 -17 10t-4 45z" />
    <glyph glyph-name="Adieresis" unicode="&#xc4;" horiz-adv-x="556" 
d="M91 0q-52 0 -66.5 8t-14.5 31q0 16 8 51l101 460q12 52 41 66t118 14t118 -14t41 -66l101 -460q8 -35 8 -51q0 -23 -14.5 -31t-66.5 -8q-56 0 -73.5 9t-23.5 41l-17 90h-146l-17 -90q-6 -32 -23.5 -41t-73.5 -9zM271 492l-43 -227h99l-42 227h-14zM178 673
q-55 0 -70 11.5t-15 50.5v8q0 39 15 50.5t70 11.5t70 -11.5t15 -50.5v-8q0 -39 -15 -50.5t-70 -11.5zM378 673q-55 0 -70 11.5t-15 50.5v8q0 39 15 50.5t70 11.5t70 -11.5t15 -50.5v-8q0 -39 -15 -50.5t-70 -11.5z" />
    <glyph glyph-name="Aring" unicode="&#xc5;" horiz-adv-x="556" 
d="M91 0q-52 0 -66.5 8t-14.5 31q0 16 8 51l101 460q12 52 41 66t118 14t118 -14t41 -66l101 -460q8 -35 8 -51q0 -23 -14.5 -31t-66.5 -8q-56 0 -73.5 9t-23.5 41l-17 90h-146l-17 -90q-6 -32 -23.5 -41t-73.5 -9zM271 492l-43 -227h99l-42 227h-14zM277 767q26 0 32.5 5.5
t6.5 22.5t-6.5 22.5t-32.5 5.5q-25 0 -31.5 -5.5t-6.5 -22.5t6.5 -22.5t31.5 -5.5zM277 668q-78 0 -114 25.5t-36 101.5t36 101.5t114 25.5q79 0 115 -25.5t36 -101.5t-36 -101.5t-115 -25.5z" />
    <glyph glyph-name="AE" unicode="&#xc6;" horiz-adv-x="736" 
d="M91 0q-52 0 -66.5 8t-14.5 31q0 16 8 51l101 460q12 52 41 66t118 14h393q23 0 31.5 -15t8.5 -59t-8.5 -59t-31.5 -15h-170v-82h100q26 0 33 -13.5t7 -59.5t-7 -59.5t-33 -13.5h-100v-106h180q23 0 31.5 -15t8.5 -59t-8.5 -59t-31.5 -15h-305q-26 0 -35.5 7.5t-9.5 32.5
v100h-126l-17 -90q-6 -32 -23.5 -41t-73.5 -9zM271 492l-43 -227h103v227h-60z" />
    <glyph glyph-name="Ccedilla" unicode="&#xc7;" horiz-adv-x="455" 
d="M243 -250q-44 0 -75 7q-18 4 -25 14.5t-7 44.5t7.5 46t22.5 12q6 0 26 -2.5t31 -2.5q16 0 16 8t-24 18q-23 9 -30.5 22t-7.5 45v39q-69 14 -108 70t-39 178v106q0 75 14 128.5t34.5 82.5t53.5 45t60 20t65 4q83 0 154 -19q13 -3 18.5 -17t5.5 -59q0 -66 -22 -66
q-4 0 -41 5.5t-72 5.5q-57 0 -78.5 -25.5t-21.5 -111.5v-63q0 -66 10.5 -96t28.5 -37t61 -7q36 0 71 5.5t42 5.5q13 0 17.5 -14t4.5 -52q0 -43 -5.5 -58t-18.5 -18q-48 -14 -116 -18v-14q0 -10 13 -16q41 -20 55.5 -41t14.5 -63q0 -58 -33.5 -85t-101.5 -27z" />
    <glyph glyph-name="Egrave" unicode="&#xc8;" horiz-adv-x="455" 
d="M440 74q0 -44 -8.5 -59t-31.5 -15h-315q-26 0 -35.5 7.5t-9.5 32.5v550q0 25 9.5 32.5t35.5 7.5h305q23 0 31.5 -15t8.5 -59t-8.5 -59t-31.5 -15h-180v-82h110q26 0 33 -13.5t7 -59.5t-7 -59.5t-33 -13.5h-110v-106h190q23 0 31.5 -15t8.5 -59zM265 673q-49 0 -66.5 9.5
t-28.5 34.5l-22 49q-19 44 -19 62t16.5 25t68.5 7q57 0 73.5 -11t25.5 -48l11 -49q7 -28 7 -49q0 -16 -14.5 -23t-51.5 -7z" />
    <glyph glyph-name="Eacute" unicode="&#xc9;" horiz-adv-x="455" 
d="M440 74q0 -44 -8.5 -59t-31.5 -15h-315q-26 0 -35.5 7.5t-9.5 32.5v550q0 25 9.5 32.5t35.5 7.5h305q23 0 31.5 -15t8.5 -59t-8.5 -59t-31.5 -15h-180v-82h110q26 0 33 -13.5t7 -59.5t-7 -59.5t-33 -13.5h-110v-106h190q23 0 31.5 -15t8.5 -59zM195 673q-37 0 -51.5 7
t-14.5 23q0 21 7 49l11 49q9 37 25.5 48t73.5 11q52 0 68.5 -7t16.5 -25t-19 -62l-22 -49q-11 -25 -28.5 -34.5t-66.5 -9.5z" />
    <glyph glyph-name="Ecircumflex" unicode="&#xca;" horiz-adv-x="455" 
d="M440 74q0 -44 -8.5 -59t-31.5 -15h-315q-26 0 -35.5 7.5t-9.5 32.5v550q0 25 9.5 32.5t35.5 7.5h305q23 0 31.5 -15t8.5 -59t-8.5 -59t-31.5 -15h-180v-82h110q26 0 33 -13.5t7 -59.5t-7 -59.5t-33 -13.5h-110v-106h190q23 0 31.5 -15t8.5 -59zM244 744h-6l-26 -35
q-16 -22 -33.5 -29t-52.5 -7q-50 0 -50 29q0 15 18 46l43 79q10 18 24 25.5t44 7.5h72q30 0 44 -7.5t24 -25.5l43 -79q18 -31 18 -46q0 -29 -50 -29q-35 0 -51.5 7t-33.5 29z" />
    <glyph glyph-name="Edieresis" unicode="&#xcb;" horiz-adv-x="455" 
d="M440 74q0 -44 -8.5 -59t-31.5 -15h-315q-26 0 -35.5 7.5t-9.5 32.5v550q0 25 9.5 32.5t35.5 7.5h305q23 0 31.5 -15t8.5 -59t-8.5 -59t-31.5 -15h-180v-82h110q26 0 33 -13.5t7 -59.5t-7 -59.5t-33 -13.5h-110v-106h190q23 0 31.5 -15t8.5 -59zM141 663q-55 0 -70 11.5
t-15 50.5v8q0 39 15 50.5t70 11.5t70 -11.5t15 -50.5v-8q0 -39 -15 -50.5t-70 -11.5zM341 663q-55 0 -70 11.5t-15 50.5v8q0 39 15 50.5t70 11.5t70 -11.5t15 -50.5v-8q0 -39 -15 -50.5t-70 -11.5z" />
    <glyph glyph-name="Igrave" unicode="&#xcc;" horiz-adv-x="250" 
d="M125 0q-51 0 -68 8t-17 37v540q0 29 17 37t68 8t68 -8t17 -37v-540q0 -29 -17 -37t-68 -8zM154 673q-49 0 -66.5 9.5t-28.5 34.5l-22 49q-19 44 -19 62t16.5 25t68.5 7q57 0 73.5 -11t25.5 -48l11 -49q7 -28 7 -49q0 -16 -14.5 -23t-51.5 -7z" />
    <glyph glyph-name="Iacute" unicode="&#xcd;" horiz-adv-x="250" 
d="M125 0q-51 0 -68 8t-17 37v540q0 29 17 37t68 8t68 -8t17 -37v-540q0 -29 -17 -37t-68 -8zM96 673q-37 0 -51.5 7t-14.5 23q0 21 7 49l11 49q9 37 25.5 48t73.5 11q52 0 68.5 -7t16.5 -25t-19 -62l-22 -49q-11 -25 -28.5 -34.5t-66.5 -9.5z" />
    <glyph glyph-name="Icircumflex" unicode="&#xce;" horiz-adv-x="250" 
d="M125 0q-51 0 -68 8t-17 37v540q0 29 17 37t68 8t68 -8t17 -37v-540q0 -29 -17 -37t-68 -8zM128 744h-6l-26 -35q-16 -22 -33.5 -29t-52.5 -7q-50 0 -50 29q0 15 18 46l43 79q10 18 24 25.5t44 7.5h72q30 0 44 -7.5t24 -25.5l43 -79q18 -31 18 -46q0 -29 -50 -29
q-35 0 -51.5 7t-33.5 29z" />
    <glyph glyph-name="Idieresis" unicode="&#xcf;" horiz-adv-x="250" 
d="M125 0q-51 0 -68 8t-17 37v540q0 29 17 37t68 8t68 -8t17 -37v-540q0 -29 -17 -37t-68 -8zM25 663q-55 0 -70 11.5t-15 50.5v8q0 39 15 50.5t70 11.5t70 -11.5t15 -50.5v-8q0 -39 -15 -50.5t-70 -11.5zM225 663q-55 0 -70 11.5t-15 50.5v8q0 39 15 50.5t70 11.5t70 -11.5
t15 -50.5v-8q0 -39 -15 -50.5t-70 -11.5z" />
    <glyph glyph-name="Eth" unicode="&#xd0;" horiz-adv-x="535" 
d="M-9 317q0 46 7 59.5t33 13.5h9v188q0 28 8 37.5t34 12.5q51 7 148 7q56 0 92.5 -4t74.5 -18.5t59.5 -41t35 -74t13.5 -116.5v-96q0 -78 -14.5 -133.5t-36 -85.5t-58.5 -46.5t-69.5 -20.5t-81.5 -4q-102 0 -166 7q-25 3 -32 11.5t-7 33.5v197h-9q-26 0 -33 13.5t-7 59.5z
M245 142q57 0 73.5 24.5t16.5 118.5v90q0 70 -19 96t-78 26q-16 0 -28 -2v-109h21q26 0 33 -13t7 -56t-7 -56t-33 -13h-21v-104q22 -2 35 -2z" />
    <glyph glyph-name="Ntilde" unicode="&#xd1;" horiz-adv-x="567" 
d="M125 0q-51 0 -68 8t-17 37v540q0 29 17 37t68 8q35 0 54.5 -7.5t34.5 -35.5l135 -253h8v251q0 29 17 37t68 8t68 -8t17 -37v-540q0 -29 -15.5 -37t-65.5 -8q-33 0 -48.5 7t-31.5 35l-148 254h-8v-251q0 -29 -17 -37t-68 -8zM121 729q0 34 5.5 47.5t22.5 24.5q33 21 74 21
q30 0 70 -9.5t59 -9.5q22 0 45 6.5t28 6.5q13 0 17 -10t4 -45q0 -34 -5.5 -47.5t-22.5 -24.5q-33 -21 -74 -21q-30 0 -70 9.5t-59 9.5q-23 0 -46 -6.5t-27 -6.5q-13 0 -17 10t-4 45z" />
    <glyph glyph-name="Ograve" unicode="&#xd2;" horiz-adv-x="536" 
d="M268 140q44 0 56 24.5t12 120.5v60q0 96 -12 120.5t-56 24.5t-56 -24.5t-12 -120.5v-60q0 -96 12 -120.5t56 -24.5zM268 -5q-53 0 -87 5t-65.5 21t-48.5 45.5t-27 78.5t-10 120v90q0 63 5.5 107.5t19 76t30.5 50.5t46 29t60 13.5t77 3.5t77 -3.5t60 -13.5t46 -29
t30.5 -50.5t19 -76t5.5 -107.5v-90q0 -71 -10 -120t-27 -78.5t-48.5 -45.5t-65.5 -21t-87 -5zM298 673q-49 0 -66.5 9.5t-28.5 34.5l-22 49q-19 44 -19 62t16.5 25t68.5 7q57 0 73.5 -11t25.5 -48l11 -49q7 -28 7 -49q0 -16 -14.5 -23t-51.5 -7z" />
    <glyph glyph-name="Oacute" unicode="&#xd3;" horiz-adv-x="536" 
d="M268 140q44 0 56 24.5t12 120.5v60q0 96 -12 120.5t-56 24.5t-56 -24.5t-12 -120.5v-60q0 -96 12 -120.5t56 -24.5zM268 -5q-53 0 -87 5t-65.5 21t-48.5 45.5t-27 78.5t-10 120v90q0 63 5.5 107.5t19 76t30.5 50.5t46 29t60 13.5t77 3.5t77 -3.5t60 -13.5t46 -29
t30.5 -50.5t19 -76t5.5 -107.5v-90q0 -71 -10 -120t-27 -78.5t-48.5 -45.5t-65.5 -21t-87 -5zM238 673q-37 0 -51.5 7t-14.5 23q0 21 7 49l11 49q9 37 25.5 48t73.5 11q52 0 68.5 -7t16.5 -25t-19 -62l-22 -49q-11 -25 -28.5 -34.5t-66.5 -9.5z" />
    <glyph glyph-name="Ocircumflex" unicode="&#xd4;" horiz-adv-x="536" 
d="M268 140q44 0 56 24.5t12 120.5v60q0 96 -12 120.5t-56 24.5t-56 -24.5t-12 -120.5v-60q0 -96 12 -120.5t56 -24.5zM268 -5q-53 0 -87 5t-65.5 21t-48.5 45.5t-27 78.5t-10 120v90q0 63 5.5 107.5t19 76t30.5 50.5t46 29t60 13.5t77 3.5t77 -3.5t60 -13.5t46 -29
t30.5 -50.5t19 -76t5.5 -107.5v-90q0 -71 -10 -120t-27 -78.5t-48.5 -45.5t-65.5 -21t-87 -5zM271 744h-6l-26 -35q-16 -22 -33.5 -29t-52.5 -7q-50 0 -50 29q0 15 18 46l43 79q10 18 24 25.5t44 7.5h72q30 0 44 -7.5t24 -25.5l43 -79q18 -31 18 -46q0 -29 -50 -29
q-35 0 -51.5 7t-33.5 29z" />
    <glyph glyph-name="Otilde" unicode="&#xd5;" horiz-adv-x="536" 
d="M268 140q44 0 56 24.5t12 120.5v60q0 96 -12 120.5t-56 24.5t-56 -24.5t-12 -120.5v-60q0 -96 12 -120.5t56 -24.5zM268 -5q-53 0 -87 5t-65.5 21t-48.5 45.5t-27 78.5t-10 120v90q0 63 5.5 107.5t19 76t30.5 50.5t46 29t60 13.5t77 3.5t77 -3.5t60 -13.5t46 -29
t30.5 -50.5t19 -76t5.5 -107.5v-90q0 -71 -10 -120t-27 -78.5t-48.5 -45.5t-65.5 -21t-87 -5zM105 729q0 34 5.5 47.5t22.5 24.5q33 21 74 21q30 0 70 -9.5t59 -9.5q22 0 45 6.5t28 6.5q13 0 17 -10t4 -45q0 -34 -5.5 -47.5t-22.5 -24.5q-33 -21 -74 -21q-30 0 -70 9.5
t-59 9.5q-23 0 -46 -6.5t-27 -6.5q-13 0 -17 10t-4 45z" />
    <glyph glyph-name="Odieresis" unicode="&#xd6;" horiz-adv-x="536" 
d="M268 140q44 0 56 24.5t12 120.5v60q0 96 -12 120.5t-56 24.5t-56 -24.5t-12 -120.5v-60q0 -96 12 -120.5t56 -24.5zM268 -5q-53 0 -87 5t-65.5 21t-48.5 45.5t-27 78.5t-10 120v90q0 63 5.5 107.5t19 76t30.5 50.5t46 29t60 13.5t77 3.5t77 -3.5t60 -13.5t46 -29
t30.5 -50.5t19 -76t5.5 -107.5v-90q0 -71 -10 -120t-27 -78.5t-48.5 -45.5t-65.5 -21t-87 -5zM168 668q-55 0 -70 11.5t-15 50.5v8q0 39 15 50.5t70 11.5t70 -11.5t15 -50.5v-8q0 -39 -15 -50.5t-70 -11.5zM368 668q-55 0 -70 11.5t-15 50.5v8q0 39 15 50.5t70 11.5
t70 -11.5t15 -50.5v-8q0 -39 -15 -50.5t-70 -11.5z" />
    <glyph glyph-name="multiply" unicode="&#xd7;" 
d="M67 113q0 12 19 41l83 113l-83 119q-19 28 -19 41q0 20 56 20q55 0 71 -23l40 -61l41 61q16 23 71 23q56 0 56 -20q0 -13 -19 -41l-84 -119l84 -113q19 -29 19 -41q0 -20 -56 -20q-55 0 -71 23l-41 58l-40 -58q-16 -23 -71 -23q-56 0 -56 20z" />
    <glyph glyph-name="Oslash" unicode="&#xd8;" horiz-adv-x="536" 
d="M268 -5q-53 0 -87 5t-65.5 21t-48.5 45.5t-27 78.5t-10 120v90q0 63 5.5 107.5t19 76t30.5 50.5t46 29t60 13.5t77 3.5t77 -3.5t60 -13.5t46 -29t30.5 -50.5t19 -76t5.5 -107.5v-90q0 -71 -10 -120t-27 -78.5t-48.5 -45.5t-65.5 -21t-87 -5zM268 140q44 0 56 24.5
t12 120.5v16l-131 -114q5 -29 18.5 -38t44.5 -9zM200 345v-12l130 112q-6 27 -19.5 36t-42.5 9q-44 0 -56 -24.5t-12 -120.5z" />
    <glyph glyph-name="Ugrave" unicode="&#xd9;" horiz-adv-x="536" 
d="M268 -5q-128 0 -178 44t-50 156v390q0 29 17 37t68 8t68 -8t17 -37v-400q0 -32 10.5 -41t47.5 -9t47.5 9t10.5 41v400q0 29 17 37t68 8t68 -8t17 -37v-390q0 -112 -50 -156t-178 -44zM283 673q-49 0 -66.5 9.5t-28.5 34.5l-22 49q-19 44 -19 62t16.5 25t68.5 7
q57 0 73.5 -11t25.5 -48l11 -49q7 -28 7 -49q0 -16 -14.5 -23t-51.5 -7z" />
    <glyph glyph-name="Uacute" unicode="&#xda;" horiz-adv-x="536" 
d="M268 -5q-128 0 -178 44t-50 156v390q0 29 17 37t68 8t68 -8t17 -37v-400q0 -32 10.5 -41t47.5 -9t47.5 9t10.5 41v400q0 29 17 37t68 8t68 -8t17 -37v-390q0 -112 -50 -156t-178 -44zM253 673q-37 0 -51.5 7t-14.5 23q0 21 7 49l11 49q9 37 25.5 48t73.5 11q52 0 68.5 -7
t16.5 -25t-19 -62l-22 -49q-11 -25 -28.5 -34.5t-66.5 -9.5z" />
    <glyph glyph-name="Ucircumflex" unicode="&#xdb;" horiz-adv-x="536" 
d="M268 -5q-128 0 -178 44t-50 156v390q0 29 17 37t68 8t68 -8t17 -37v-400q0 -32 10.5 -41t47.5 -9t47.5 9t10.5 41v400q0 29 17 37t68 8t68 -8t17 -37v-390q0 -112 -50 -156t-178 -44zM271 744h-6l-26 -35q-16 -22 -33.5 -29t-52.5 -7q-50 0 -50 29q0 15 18 46l43 79
q10 18 24 25.5t44 7.5h72q30 0 44 -7.5t24 -25.5l43 -79q18 -31 18 -46q0 -29 -50 -29q-35 0 -51.5 7t-33.5 29z" />
    <glyph glyph-name="Udieresis" unicode="&#xdc;" horiz-adv-x="536" 
d="M268 -5q-128 0 -178 44t-50 156v390q0 29 17 37t68 8t68 -8t17 -37v-400q0 -32 10.5 -41t47.5 -9t47.5 9t10.5 41v400q0 29 17 37t68 8t68 -8t17 -37v-390q0 -112 -50 -156t-178 -44zM168 668q-55 0 -70 11.5t-15 50.5v8q0 39 15 50.5t70 11.5t70 -11.5t15 -50.5v-8
q0 -39 -15 -50.5t-70 -11.5zM368 668q-55 0 -70 11.5t-15 50.5v8q0 39 15 50.5t70 11.5t70 -11.5t15 -50.5v-8q0 -39 -15 -50.5t-70 -11.5z" />
    <glyph glyph-name="Yacute" unicode="&#xdd;" horiz-adv-x="506" 
d="M253 0q-51 0 -68 8t-17 37v170l-136 307q-23 53 -23 70q0 38 72 38q64 0 83 -9t29 -41l57 -192h6l57 192q10 33 27.5 41.5t79.5 8.5q77 0 77 -36q0 -19 -23 -72l-136 -307v-170q0 -29 -17 -37t-68 -8zM233 673q-37 0 -51.5 7t-14.5 23q0 21 7 49l11 49q9 37 25.5 48
t73.5 11q52 0 68.5 -7t16.5 -25t-19 -62l-22 -49q-11 -25 -28.5 -34.5t-66.5 -9.5z" />
    <glyph glyph-name="Thorn" unicode="&#xde;" horiz-adv-x="484" 
d="M125 0q-51 0 -68 8t-17 37v540q0 29 17 37t68 8t68 -8t17 -37v-57q42 2 68 2q100 0 148 -41.5t48 -159.5q0 -129 -63.5 -174t-195.5 -45h-5v-65q0 -29 -17 -37t-68 -8zM210 390v-145h15q52 0 68.5 15t16.5 66q0 39 -14 52.5t-41 13.5q-25 0 -45 -2z" />
    <glyph glyph-name="germandbls" unicode="&#xdf;" horiz-adv-x="541" 
d="M241 680q117 0 164.5 -33t47.5 -107q0 -54 -20 -116.5t-20 -73.5q0 -20 17 -32l46 -35q35 -28 47.5 -56t12.5 -80q0 -81 -45 -119t-116 -38q-57 0 -101 15q-15 6 -22 20t-7 49q0 68 27 68q5 0 23.5 -3t33.5 -3q21 0 28 5.5t7 21.5q0 18 -13 28l-43 29q-48 32 -48 95
q0 28 16.5 91t16.5 99q0 22 -9.5 31t-38.5 9q-25 0 -32.5 -6.5t-7.5 -29.5v-464q0 -29 -17 -37t-68 -8t-68 8t-17 37v485q0 83 43.5 116.5t162.5 33.5z" />
    <glyph glyph-name="agrave" unicode="&#xe0;" horiz-adv-x="487" 
d="M149 -10q-66 0 -97.5 36.5t-31.5 116.5q0 84 44.5 121.5t159.5 37.5h54v6q0 21 -2.5 32t-12 16t-18.5 6t-31 1q-39 0 -84.5 -6.5t-52.5 -6.5q-29 0 -29 68q0 34 6.5 48t24.5 20q53 19 160 19q114 0 160 -28.5t46 -119.5v-113q0 -87 9 -146l8 -60q0 -21 -15.5 -29.5
t-62.5 -8.5q-43 0 -56.5 7t-20.5 34l-11 41q-33 -92 -147 -92zM217 122q61 0 61 75v11l-50 -1q-28 -1 -38 -10.5t-10 -34.5q0 -24 8 -32t29 -8zM278 538q-49 0 -66.5 9.5t-28.5 34.5l-22 49q-19 44 -19 62t16.5 25t68.5 7q57 0 73.5 -11t25.5 -48l11 -49q7 -28 7 -49
q0 -16 -14.5 -23t-51.5 -7z" />
    <glyph glyph-name="aacute" unicode="&#xe1;" horiz-adv-x="487" 
d="M149 -10q-66 0 -97.5 36.5t-31.5 116.5q0 84 44.5 121.5t159.5 37.5h54v6q0 21 -2.5 32t-12 16t-18.5 6t-31 1q-39 0 -84.5 -6.5t-52.5 -6.5q-29 0 -29 68q0 34 6.5 48t24.5 20q53 19 160 19q114 0 160 -28.5t46 -119.5v-113q0 -87 9 -146l8 -60q0 -21 -15.5 -29.5
t-62.5 -8.5q-43 0 -56.5 7t-20.5 34l-11 41q-33 -92 -147 -92zM217 122q61 0 61 75v11l-50 -1q-28 -1 -38 -10.5t-10 -34.5q0 -24 8 -32t29 -8zM214 538q-37 0 -51.5 7t-14.5 23q0 21 7 49l11 49q9 37 25.5 48t73.5 11q52 0 68.5 -7t16.5 -25t-19 -62l-22 -49
q-11 -25 -28.5 -34.5t-66.5 -9.5z" />
    <glyph glyph-name="acircumflex" unicode="&#xe2;" horiz-adv-x="487" 
d="M149 -10q-66 0 -97.5 36.5t-31.5 116.5q0 84 44.5 121.5t159.5 37.5h54v6q0 21 -2.5 32t-12 16t-18.5 6t-31 1q-39 0 -84.5 -6.5t-52.5 -6.5q-29 0 -29 68q0 34 6.5 48t24.5 20q53 19 160 19q114 0 160 -28.5t46 -119.5v-113q0 -87 9 -146l8 -60q0 -21 -15.5 -29.5
t-62.5 -8.5q-43 0 -56.5 7t-20.5 34l-11 41q-33 -92 -147 -92zM217 122q61 0 61 75v11l-50 -1q-28 -1 -38 -10.5t-10 -34.5q0 -24 8 -32t29 -8zM249 609h-6l-26 -35q-16 -22 -33.5 -29t-52.5 -7q-50 0 -50 29q0 15 18 46l43 79q10 18 24 25.5t44 7.5h72q30 0 44 -7.5
t24 -25.5l43 -79q18 -31 18 -46q0 -29 -50 -29q-35 0 -51.5 7t-33.5 29z" />
    <glyph glyph-name="atilde" unicode="&#xe3;" horiz-adv-x="487" 
d="M149 -10q-66 0 -97.5 36.5t-31.5 116.5q0 84 44.5 121.5t159.5 37.5h54v6q0 21 -2.5 32t-12 16t-18.5 6t-31 1q-39 0 -84.5 -6.5t-52.5 -6.5q-29 0 -29 68q0 34 6.5 48t24.5 20q53 19 160 19q114 0 160 -28.5t46 -119.5v-113q0 -87 9 -146l8 -60q0 -21 -15.5 -29.5
t-62.5 -8.5q-43 0 -56.5 7t-20.5 34l-11 41q-33 -92 -147 -92zM217 122q61 0 61 75v11l-50 -1q-28 -1 -38 -10.5t-10 -34.5q0 -24 8 -32t29 -8zM84 605q0 34 5.5 47.5t22.5 24.5q33 21 74 21q30 0 70 -9.5t59 -9.5q22 0 45 6.5t28 6.5q13 0 17 -10t4 -45q0 -34 -5.5 -47.5
t-22.5 -24.5q-33 -21 -74 -21q-30 0 -70 9.5t-59 9.5q-22 0 -45 -6.5t-28 -6.5q-13 0 -17 10t-4 45z" />
    <glyph glyph-name="adieresis" unicode="&#xe4;" horiz-adv-x="487" 
d="M149 -10q-66 0 -97.5 36.5t-31.5 116.5q0 84 44.5 121.5t159.5 37.5h54v6q0 21 -2.5 32t-12 16t-18.5 6t-31 1q-39 0 -84.5 -6.5t-52.5 -6.5q-29 0 -29 68q0 34 6.5 48t24.5 20q53 19 160 19q114 0 160 -28.5t46 -119.5v-113q0 -87 9 -146l8 -60q0 -21 -15.5 -29.5
t-62.5 -8.5q-43 0 -56.5 7t-20.5 34l-11 41q-33 -92 -147 -92zM217 122q61 0 61 75v11l-50 -1q-28 -1 -38 -10.5t-10 -34.5q0 -24 8 -32t29 -8zM146 528q-55 0 -70 11.5t-15 50.5v8q0 39 15 50.5t70 11.5t70 -11.5t15 -50.5v-8q0 -39 -15 -50.5t-70 -11.5zM346 528
q-55 0 -70 11.5t-15 50.5v8q0 39 15 50.5t70 11.5t70 -11.5t15 -50.5v-8q0 -39 -15 -50.5t-70 -11.5z" />
    <glyph glyph-name="aring" unicode="&#xe5;" horiz-adv-x="487" 
d="M149 -10q-66 0 -97.5 36.5t-31.5 116.5q0 84 44.5 121.5t159.5 37.5h54v6q0 21 -2.5 32t-12 16t-18.5 6t-31 1q-39 0 -84.5 -6.5t-52.5 -6.5q-29 0 -29 68q0 34 6.5 48t24.5 20q53 19 160 19q114 0 160 -28.5t46 -119.5v-113q0 -87 9 -146l8 -60q0 -21 -15.5 -29.5
t-62.5 -8.5q-43 0 -56.5 7t-20.5 34l-11 41q-33 -92 -147 -92zM217 122q61 0 61 75v11l-50 -1q-28 -1 -38 -10.5t-10 -34.5q0 -24 8 -32t29 -8zM243 637q26 0 32.5 5.5t6.5 22.5t-6.5 22.5t-32.5 5.5q-25 0 -31.5 -5.5t-6.5 -22.5t6.5 -22.5t31.5 -5.5zM243 538
q-78 0 -114 25.5t-36 101.5t36 101.5t114 25.5q79 0 115 -25.5t36 -101.5t-36 -101.5t-115 -25.5z" />
    <glyph glyph-name="ae" unicode="&#xe6;" horiz-adv-x="736" 
d="M482 -10q-114 0 -148 36q-22 24 -33 73q-29 -109 -152 -109q-66 0 -97.5 36.5t-31.5 116.5q0 84 44.5 121.5t159.5 37.5h54v6q0 21 -2.5 32t-12 16t-18.5 6t-31 1q-39 0 -84.5 -6.5t-52.5 -6.5q-29 0 -29 68q0 34 6.5 48t24.5 20q53 19 160 19q104 0 144 -26
q49 26 135 26q112 0 150 -52t38 -181q0 -38 -12 -55t-46 -17h-201q4 -43 19 -54.5t57 -11.5q34 0 67.5 3t54.5 5.5t25 2.5q27 0 27 -68q0 -35 -7 -49t-22 -19q-24 -8 -83.5 -13.5t-102.5 -5.5zM217 122q61 0 61 75v11l-50 -1q-28 -1 -38 -10.5t-10 -34.5q0 -24 8 -32t29 -8z
M500 365q-32 0 -42.5 -11.5t-12.5 -56.5h104q0 43 -9 55.5t-40 12.5z" />
    <glyph glyph-name="ccedilla" unicode="&#xe7;" horiz-adv-x="434" 
d="M218 -250q-44 0 -75 7q-18 4 -25 14.5t-7 44.5t7.5 46t22.5 12q6 0 26 -2.5t31 -2.5q16 0 16 8t-24 18q-23 9 -30.5 22t-7.5 45v39q-61 18 -91.5 73.5t-30.5 170.5q0 83 13 135.5t42 79.5t65 36t93 9q81 0 136 -19q16 -6 22.5 -19.5t6.5 -48.5q0 -68 -27 -68
q-3 0 -45 5.5t-64 5.5q-32 0 -45.5 -4.5t-21.5 -26.5t-8 -70q0 -84 13.5 -105t64.5 -21q35 0 70.5 5.5t36.5 5.5q27 0 27 -68q0 -35 -7 -49t-22 -19q-49 -16 -110 -19v-8q0 -10 13 -16q41 -20 55.5 -41t14.5 -63q0 -58 -33.5 -85t-101.5 -27z" />
    <glyph glyph-name="egrave" unicode="&#xe8;" horiz-adv-x="488" 
d="M266 -10q-60 0 -98.5 8.5t-72.5 34.5t-49.5 78t-15.5 134q0 84 12.5 135.5t42.5 79t68 36.5t101 9q124 0 164 -51.5t40 -181.5q0 -38 -12 -55t-46 -17h-201q4 -43 19 -54.5t57 -11.5q34 0 67.5 3t54.5 5.5t25 2.5q27 0 27 -68q0 -35 -7 -49t-22 -19q-55 -19 -154 -19z
M252 365q-32 0 -42.5 -11.5t-12.5 -56.5h104q0 43 -9 55.5t-40 12.5zM269 538q-49 0 -66.5 9.5t-28.5 34.5l-22 49q-19 44 -19 62t16.5 25t68.5 7q57 0 73.5 -11t25.5 -48l11 -49q7 -28 7 -49q0 -16 -14.5 -23t-51.5 -7z" />
    <glyph glyph-name="eacute" unicode="&#xe9;" horiz-adv-x="488" 
d="M266 -10q-60 0 -98.5 8.5t-72.5 34.5t-49.5 78t-15.5 134q0 84 12.5 135.5t42.5 79t68 36.5t101 9q124 0 164 -51.5t40 -181.5q0 -38 -12 -55t-46 -17h-201q4 -43 19 -54.5t57 -11.5q34 0 67.5 3t54.5 5.5t25 2.5q27 0 27 -68q0 -35 -7 -49t-22 -19q-55 -19 -154 -19z
M252 365q-32 0 -42.5 -11.5t-12.5 -56.5h104q0 43 -9 55.5t-40 12.5zM219 538q-37 0 -51.5 7t-14.5 23q0 21 7 49l11 49q9 37 25.5 48t73.5 11q52 0 68.5 -7t16.5 -25t-19 -62l-22 -49q-11 -25 -28.5 -34.5t-66.5 -9.5z" />
    <glyph glyph-name="ecircumflex" unicode="&#xea;" horiz-adv-x="488" 
d="M266 -10q-60 0 -98.5 8.5t-72.5 34.5t-49.5 78t-15.5 134q0 84 12.5 135.5t42.5 79t68 36.5t101 9q124 0 164 -51.5t40 -181.5q0 -38 -12 -55t-46 -17h-201q4 -43 19 -54.5t57 -11.5q34 0 67.5 3t54.5 5.5t25 2.5q27 0 27 -68q0 -35 -7 -49t-22 -19q-55 -19 -154 -19z
M252 365q-32 0 -42.5 -11.5t-12.5 -56.5h104q0 43 -9 55.5t-40 12.5zM247 609h-6l-26 -35q-16 -22 -33.5 -29t-52.5 -7q-50 0 -50 29q0 15 18 46l43 79q10 18 24 25.5t44 7.5h72q30 0 44 -7.5t24 -25.5l43 -79q18 -31 18 -46q0 -29 -50 -29q-35 0 -51.5 7t-33.5 29z" />
    <glyph glyph-name="edieresis" unicode="&#xeb;" horiz-adv-x="488" 
d="M266 -10q-60 0 -98.5 8.5t-72.5 34.5t-49.5 78t-15.5 134q0 84 12.5 135.5t42.5 79t68 36.5t101 9q124 0 164 -51.5t40 -181.5q0 -38 -12 -55t-46 -17h-201q4 -43 19 -54.5t57 -11.5q34 0 67.5 3t54.5 5.5t25 2.5q27 0 27 -68q0 -35 -7 -49t-22 -19q-55 -19 -154 -19z
M252 365q-32 0 -42.5 -11.5t-12.5 -56.5h104q0 43 -9 55.5t-40 12.5zM144 528q-55 0 -70 11.5t-15 50.5v8q0 39 15 50.5t70 11.5t70 -11.5t15 -50.5v-8q0 -39 -15 -50.5t-70 -11.5zM344 528q-55 0 -70 11.5t-15 50.5v8q0 39 15 50.5t70 11.5t70 -11.5t15 -50.5v-8
q0 -39 -15 -50.5t-70 -11.5z" />
    <glyph glyph-name="igrave" unicode="&#xec;" horiz-adv-x="245" 
d="M120 0q-51 0 -68 8t-17 37v405q0 29 17 37t68 8t68 -8t17 -37v-405q0 -29 -17 -37t-68 -8zM146 538q-49 0 -66.5 9.5t-28.5 34.5l-22 49q-19 44 -19 62t16.5 25t68.5 7q57 0 73.5 -11t25.5 -48l11 -49q7 -28 7 -49q0 -16 -14.5 -23t-51.5 -7z" />
    <glyph glyph-name="iacute" unicode="&#xed;" horiz-adv-x="245" 
d="M120 0q-51 0 -68 8t-17 37v405q0 29 17 37t68 8t68 -8t17 -37v-405q0 -29 -17 -37t-68 -8zM96 538q-37 0 -51.5 7t-14.5 23q0 21 7 49l11 49q9 37 25.5 48t73.5 11q52 0 68.5 -7t16.5 -25t-19 -62l-22 -49q-11 -25 -28.5 -34.5t-66.5 -9.5z" />
    <glyph glyph-name="icircumflex" unicode="&#xee;" horiz-adv-x="245" 
d="M120 0q-51 0 -68 8t-17 37v405q0 29 17 37t68 8t68 -8t17 -37v-405q0 -29 -17 -37t-68 -8zM124 609h-6l-26 -35q-16 -22 -33.5 -29t-52.5 -7q-50 0 -50 29q0 15 18 46l43 79q10 18 24 25.5t44 7.5h72q30 0 44 -7.5t24 -25.5l43 -79q18 -31 18 -46q0 -29 -50 -29
q-35 0 -51.5 7t-33.5 29z" />
    <glyph glyph-name="idieresis" unicode="&#xef;" horiz-adv-x="245" 
d="M120 0q-51 0 -68 8t-17 37v405q0 29 17 37t68 8t68 -8t17 -37v-405q0 -29 -17 -37t-68 -8zM21 528q-55 0 -70 11.5t-15 50.5v8q0 39 15 50.5t70 11.5t70 -11.5t15 -50.5v-8q0 -39 -15 -50.5t-70 -11.5zM221 528q-55 0 -70 11.5t-15 50.5v8q0 39 15 50.5t70 11.5t70 -11.5
t15 -50.5v-8q0 -39 -15 -50.5t-70 -11.5z" />
    <glyph glyph-name="eth" unicode="&#xf0;" horiz-adv-x="512" 
d="M464 610q0 -9 -4.5 -13.5t-16.5 -7.5l-33 -9q72 -196 72 -325q0 -85 -12 -136.5t-42 -80.5t-71 -38.5t-109 -9.5q-84 0 -129 20t-67 75t-22 160q0 82 10 135t31.5 79.5t47 36t64.5 9.5q70 0 101 -40q-5 35 -17 77l-38 -10q-9 -3 -16 -3q-8 0 -12.5 6t-9.5 23q-7 23 -7 36
q0 9 4.5 13.5t16.5 7.5l37 10q-7 30 -7 42q0 9 3 15t18.5 12t45.5 6q38 0 50 -6t21 -25l4 -8l42 11q9 3 16 3q8 0 12.5 -6t9.5 -23q7 -23 7 -36zM253 130q38 0 47.5 21t9.5 97t-10.5 96.5t-41.5 20.5q-38 0 -47.5 -19t-9.5 -94q0 -77 11 -99.5t41 -22.5z" />
    <glyph glyph-name="ntilde" unicode="&#xf1;" horiz-adv-x="522" 
d="M127 0q-51 0 -68 8t-17 37v206q0 87 -8 147l-9 59q0 21 15.5 29.5t62.5 8.5q43 0 56.5 -7t20.5 -34l12 -46q42 97 151 97q78 0 108.5 -33t30.5 -115v-312q0 -29 -17 -37t-68 -8t-68 8t-17 37v270q0 24 -7.5 34.5t-26.5 10.5q-37 0 -51.5 -33t-14.5 -119v-163
q0 -29 -17 -37t-68 -8zM100 605q0 34 5.5 47.5t22.5 24.5q33 21 74 21q30 0 70 -9.5t59 -9.5q22 0 45 6.5t28 6.5q13 0 17 -10t4 -45q0 -34 -5.5 -47.5t-22.5 -24.5q-33 -21 -74 -21q-30 0 -70 9.5t-59 9.5q-22 0 -45.5 -6.5t-27.5 -6.5q-13 0 -17 10t-4 45z" />
    <glyph glyph-name="ograve" unicode="&#xf2;" horiz-adv-x="512" 
d="M248 -10q-84 0 -129 20t-67 75t-22 160q0 84 12 135.5t42.5 79t70.5 36.5t109 9q85 0 129 -18.5t66.5 -72.5t22.5 -159q0 -85 -12 -136.5t-42 -80.5t-71 -38.5t-109 -9.5zM253 130q38 0 47.5 21t9.5 97t-10.5 96.5t-41.5 20.5q-38 0 -47.5 -19t-9.5 -94q0 -77 11 -99.5
t41 -22.5zM281 538q-49 0 -66.5 9.5t-28.5 34.5l-22 49q-19 44 -19 62t16.5 25t68.5 7q57 0 73.5 -11t25.5 -48l11 -49q7 -28 7 -49q0 -16 -14.5 -23t-51.5 -7z" />
    <glyph glyph-name="oacute" unicode="&#xf3;" horiz-adv-x="512" 
d="M248 -10q-84 0 -129 20t-67 75t-22 160q0 84 12 135.5t42.5 79t70.5 36.5t109 9q85 0 129 -18.5t66.5 -72.5t22.5 -159q0 -85 -12 -136.5t-42 -80.5t-71 -38.5t-109 -9.5zM253 130q38 0 47.5 21t9.5 97t-10.5 96.5t-41.5 20.5q-38 0 -47.5 -19t-9.5 -94q0 -77 11 -99.5
t41 -22.5zM231 538q-37 0 -51.5 7t-14.5 23q0 21 7 49l11 49q9 37 25.5 48t73.5 11q52 0 68.5 -7t16.5 -25t-19 -62l-22 -49q-11 -25 -28.5 -34.5t-66.5 -9.5z" />
    <glyph glyph-name="ocircumflex" unicode="&#xf4;" horiz-adv-x="512" 
d="M248 -10q-84 0 -129 20t-67 75t-22 160q0 84 12 135.5t42.5 79t70.5 36.5t109 9q85 0 129 -18.5t66.5 -72.5t22.5 -159q0 -85 -12 -136.5t-42 -80.5t-71 -38.5t-109 -9.5zM253 130q38 0 47.5 21t9.5 97t-10.5 96.5t-41.5 20.5q-38 0 -47.5 -19t-9.5 -94q0 -77 11 -99.5
t41 -22.5zM259 609h-6l-26 -35q-16 -22 -33.5 -29t-52.5 -7q-50 0 -50 29q0 15 18 46l43 79q10 18 24 25.5t44 7.5h72q30 0 44 -7.5t24 -25.5l43 -79q18 -31 18 -46q0 -29 -50 -29q-35 0 -51.5 7t-33.5 29z" />
    <glyph glyph-name="otilde" unicode="&#xf5;" horiz-adv-x="512" 
d="M248 -10q-84 0 -129 20t-67 75t-22 160q0 84 12 135.5t42.5 79t70.5 36.5t109 9q85 0 129 -18.5t66.5 -72.5t22.5 -159q0 -85 -12 -136.5t-42 -80.5t-71 -38.5t-109 -9.5zM253 130q38 0 47.5 21t9.5 97t-10.5 96.5t-41.5 20.5q-38 0 -47.5 -19t-9.5 -94q0 -77 11 -99.5
t41 -22.5zM93 605q0 34 5.5 47.5t22.5 24.5q33 21 74 21q30 0 70 -9.5t59 -9.5q22 0 45 6.5t28 6.5q13 0 17 -10t4 -45q0 -34 -5.5 -47.5t-22.5 -24.5q-33 -21 -74 -21q-30 0 -70 9.5t-59 9.5q-23 0 -46 -6.5t-27 -6.5q-13 0 -17 10t-4 45z" />
    <glyph glyph-name="odieresis" unicode="&#xf6;" horiz-adv-x="512" 
d="M248 -10q-84 0 -129 20t-67 75t-22 160q0 84 12 135.5t42.5 79t70.5 36.5t109 9q85 0 129 -18.5t66.5 -72.5t22.5 -159q0 -85 -12 -136.5t-42 -80.5t-71 -38.5t-109 -9.5zM253 130q38 0 47.5 21t9.5 97t-10.5 96.5t-41.5 20.5q-38 0 -47.5 -19t-9.5 -94q0 -77 11 -99.5
t41 -22.5zM156 528q-55 0 -70 11.5t-15 50.5v8q0 39 15 50.5t70 11.5t70 -11.5t15 -50.5v-8q0 -39 -15 -50.5t-70 -11.5zM356 528q-55 0 -70 11.5t-15 50.5v8q0 39 15 50.5t70 11.5t70 -11.5t15 -50.5v-8q0 -39 -15 -50.5t-70 -11.5z" />
    <glyph glyph-name="divide" unicode="&#xf7;" 
d="M65 268q0 44 6.5 53.5t33.5 9.5h260q27 0 33.5 -9.5t6.5 -53.5t-6.5 -53.5t-33.5 -9.5h-260q-27 0 -33.5 9.5t-6.5 53.5zM239 360q-40 0 -51.5 8t-11.5 37v35q0 29 11.5 37t51.5 8q42 0 53 -8t11 -37v-35q0 -29 -11 -37t-53 -8zM239 43q-40 0 -51.5 8t-11.5 37v35
q0 29 11.5 37t51.5 8q42 0 53 -8t11 -37v-35q0 -29 -11 -37t-53 -8z" />
    <glyph glyph-name="oslash" unicode="&#xf8;" horiz-adv-x="512" 
d="M248 -10q-84 0 -129 20t-67 75t-22 160q0 84 12 135.5t42.5 79t70.5 36.5t109 9q85 0 129 -18.5t66.5 -72.5t22.5 -159q0 -85 -12 -136.5t-42 -80.5t-71 -38.5t-109 -9.5zM253 130q37 0 46.5 19.5t10.5 88.5l-104 -66q4 -24 15 -33t32 -9zM258 365q-38 0 -47.5 -18.5
t-9.5 -89.5l104 68q-5 25 -15.5 32.5t-31.5 7.5z" />
    <glyph glyph-name="ugrave" unicode="&#xf9;" horiz-adv-x="515" 
d="M171 -10q-73 0 -104.5 29.5t-31.5 108.5v322q0 29 17 37t68 8t68 -8t17 -37v-278q0 -23 7 -30t27 -7q37 0 50.5 32.5t13.5 119.5v163q0 29 17 37t68 8t68 -8t17 -37v-206q0 -87 9 -146l8 -60q0 -21 -15.5 -29.5t-62.5 -8.5q-43 0 -56.5 7t-20.5 34l-10 38
q-41 -89 -154 -89zM272 538q-49 0 -66.5 9.5t-28.5 34.5l-22 49q-19 44 -19 62t16.5 25t68.5 7q57 0 73.5 -11t25.5 -48l11 -49q7 -28 7 -49q0 -16 -14.5 -23t-51.5 -7z" />
    <glyph glyph-name="uacute" unicode="&#xfa;" horiz-adv-x="515" 
d="M171 -10q-73 0 -104.5 29.5t-31.5 108.5v322q0 29 17 37t68 8t68 -8t17 -37v-278q0 -23 7 -30t27 -7q37 0 50.5 32.5t13.5 119.5v163q0 29 17 37t68 8t68 -8t17 -37v-206q0 -87 9 -146l8 -60q0 -21 -15.5 -29.5t-62.5 -8.5q-43 0 -56.5 7t-20.5 34l-10 38
q-41 -89 -154 -89zM237 538q-37 0 -51.5 7t-14.5 23q0 21 7 49l11 49q9 37 25.5 48t73.5 11q52 0 68.5 -7t16.5 -25t-19 -62l-22 -49q-11 -25 -28.5 -34.5t-66.5 -9.5z" />
    <glyph glyph-name="ucircumflex" unicode="&#xfb;" horiz-adv-x="515" 
d="M171 -10q-73 0 -104.5 29.5t-31.5 108.5v322q0 29 17 37t68 8t68 -8t17 -37v-278q0 -23 7 -30t27 -7q37 0 50.5 32.5t13.5 119.5v163q0 29 17 37t68 8t68 -8t17 -37v-206q0 -87 9 -146l8 -60q0 -21 -15.5 -29.5t-62.5 -8.5q-43 0 -56.5 7t-20.5 34l-10 38
q-41 -89 -154 -89zM258 609h-6l-26 -35q-16 -22 -33.5 -29t-52.5 -7q-50 0 -50 29q0 15 18 46l43 79q10 18 24 25.5t44 7.5h72q30 0 44 -7.5t24 -25.5l43 -79q18 -31 18 -46q0 -29 -50 -29q-35 0 -51.5 7t-33.5 29z" />
    <glyph glyph-name="udieresis" unicode="&#xfc;" horiz-adv-x="515" 
d="M171 -10q-73 0 -104.5 29.5t-31.5 108.5v322q0 29 17 37t68 8t68 -8t17 -37v-278q0 -23 7 -30t27 -7q37 0 50.5 32.5t13.5 119.5v163q0 29 17 37t68 8t68 -8t17 -37v-206q0 -87 9 -146l8 -60q0 -21 -15.5 -29.5t-62.5 -8.5q-43 0 -56.5 7t-20.5 34l-10 38
q-41 -89 -154 -89zM155 528q-55 0 -70 11.5t-15 50.5v8q0 39 15 50.5t70 11.5t70 -11.5t15 -50.5v-8q0 -39 -15 -50.5t-70 -11.5zM355 528q-55 0 -70 11.5t-15 50.5v8q0 39 15 50.5t70 11.5t70 -11.5t15 -50.5v-8q0 -39 -15 -50.5t-70 -11.5z" />
    <glyph glyph-name="yacute" unicode="&#xfd;" horiz-adv-x="499" 
d="M10 454q0 21 16.5 31t71.5 10q54 0 71 -8t21 -36l46 -314h14l58 314q5 28 22 36t69 8q55 0 72.5 -9t17.5 -31q0 -19 -23 -111l-93 -362q-29 -111 -69 -146.5t-140 -35.5q-75 0 -124 19q-16 6 -22.5 19.5t-6.5 48.5q0 68 27 68q1 0 36.5 -5.5t70.5 -5.5q45 0 59 9t19 33
l2 14h-14q-63 0 -84.5 13t-29.5 47l-64 275q-23 98 -23 119zM234 538q-37 0 -51.5 7t-14.5 23q0 21 7 49l11 49q9 37 25.5 48t73.5 11q52 0 68.5 -7t16.5 -25t-19 -62l-22 -49q-11 -25 -28.5 -34.5t-66.5 -9.5z" />
    <glyph glyph-name="thorn" unicode="&#xfe;" horiz-adv-x="526" 
d="M212 615v-154q42 44 124 44q92 0 126 -48t34 -192q0 -115 -19.5 -175.5t-54.5 -80t-101 -19.5q-85 0 -109 43v-173q0 -29 -17 -37t-68 -8t-68 8t-17 37v755q0 29 17 37t68 8t68 -8t17 -37zM271 130q22 0 32 7t15.5 33.5t5.5 84.5q0 52 -5.5 75t-15.5 29t-35 6
q-33 0 -46.5 -20.5t-13.5 -85.5v-24q0 -67 13 -86t50 -19z" />
    <glyph glyph-name="ydieresis" unicode="&#xff;" horiz-adv-x="499" 
d="M10 454q0 21 16.5 31t71.5 10q54 0 71 -8t21 -36l46 -314h14l58 314q5 28 22 36t69 8q55 0 72.5 -9t17.5 -31q0 -19 -23 -111l-93 -362q-29 -111 -69 -146.5t-140 -35.5q-75 0 -124 19q-16 6 -22.5 19.5t-6.5 48.5q0 68 27 68q1 0 36.5 -5.5t70.5 -5.5q45 0 59 9t19 33
l2 14h-14q-63 0 -84.5 13t-29.5 47l-64 275q-23 98 -23 119zM149 528q-55 0 -70 11.5t-15 50.5v8q0 39 15 50.5t70 11.5t70 -11.5t15 -50.5v-8q0 -39 -15 -50.5t-70 -11.5zM349 528q-55 0 -70 11.5t-15 50.5v8q0 39 15 50.5t70 11.5t70 -11.5t15 -50.5v-8q0 -39 -15 -50.5
t-70 -11.5z" />
    <glyph glyph-name="Amacron" unicode="&#x100;" horiz-adv-x="556" 
d="M91 0q-52 0 -66.5 8t-14.5 31q0 16 8 51l101 460q12 52 41 66t118 14t118 -14t41 -66l101 -460q8 -35 8 -51q0 -23 -14.5 -31t-66.5 -8q-56 0 -73.5 9t-23.5 41l-17 90h-146l-17 -90q-6 -32 -23.5 -41t-73.5 -9zM271 492l-43 -227h99l-42 227h-14zM148 741q0 43 7 55.5
t33 12.5h180q26 0 33 -12.5t7 -55.5t-7 -55.5t-33 -12.5h-180q-26 0 -33 12.5t-7 55.5z" />
    <glyph glyph-name="amacron" unicode="&#x101;" horiz-adv-x="487" 
d="M149 -10q-66 0 -97.5 36.5t-31.5 116.5q0 84 44.5 121.5t159.5 37.5h54v6q0 21 -2.5 32t-12 16t-18.5 6t-31 1q-39 0 -84.5 -6.5t-52.5 -6.5q-29 0 -29 68q0 34 6.5 48t24.5 20q53 19 160 19q114 0 160 -28.5t46 -119.5v-113q0 -87 9 -146l8 -60q0 -21 -15.5 -29.5
t-62.5 -8.5q-43 0 -56.5 7t-20.5 34l-11 41q-33 -92 -147 -92zM217 122q61 0 61 75v11l-50 -1q-28 -1 -38 -10.5t-10 -34.5q0 -24 8 -32t29 -8zM113 606q0 43 7 55.5t33 12.5h180q26 0 33 -12.5t7 -55.5t-7 -55.5t-33 -12.5h-180q-26 0 -33 12.5t-7 55.5z" />
    <glyph glyph-name="Abreve" unicode="&#x102;" horiz-adv-x="556" 
d="M91 0q-52 0 -66.5 8t-14.5 31q0 16 8 51l101 460q12 52 41 66t118 14t118 -14t41 -66l101 -460q8 -35 8 -51q0 -23 -14.5 -31t-66.5 -8q-56 0 -73.5 9t-23.5 41l-17 90h-146l-17 -90q-6 -32 -23.5 -41t-73.5 -9zM271 492l-43 -227h99l-42 227h-14zM278 668
q-80 0 -116.5 31t-36.5 110q0 29 10.5 37t44.5 8q33 0 43 -6t13 -26q2 -19 9.5 -25.5t32.5 -6.5t32.5 6.5t9.5 25.5q3 20 13 26t43 6q34 0 44.5 -8t10.5 -37q0 -79 -36.5 -110t-116.5 -31z" />
    <glyph glyph-name="abreve" unicode="&#x103;" horiz-adv-x="487" 
d="M149 -10q-66 0 -97.5 36.5t-31.5 116.5q0 84 44.5 121.5t159.5 37.5h54v6q0 21 -2.5 32t-12 16t-18.5 6t-31 1q-39 0 -84.5 -6.5t-52.5 -6.5q-29 0 -29 68q0 34 6.5 48t24.5 20q53 19 160 19q114 0 160 -28.5t46 -119.5v-113q0 -87 9 -146l8 -60q0 -21 -15.5 -29.5
t-62.5 -8.5q-43 0 -56.5 7t-20.5 34l-11 41q-33 -92 -147 -92zM217 122q61 0 61 75v11l-50 -1q-28 -1 -38 -10.5t-10 -34.5q0 -24 8 -32t29 -8zM246 538q-80 0 -116.5 31t-36.5 110q0 29 10.5 37t44.5 8q33 0 43 -6t13 -26q2 -19 9.5 -25.5t32.5 -6.5t32.5 6.5t9.5 25.5
q3 20 13 26t43 6q34 0 44.5 -8t10.5 -37q0 -79 -36.5 -110t-116.5 -31z" />
    <glyph glyph-name="Aogonek" unicode="&#x104;" horiz-adv-x="556" 
d="M421 -200q-46 0 -69 17.5t-23 64.5q0 66 65 125q-20 9 -26 43l-17 90h-146l-17 -90q-6 -32 -23.5 -41t-73.5 -9q-52 0 -66.5 8t-14.5 31q0 16 8 51l101 460q12 52 41 66t118 14t118 -14t41 -66l101 -460q8 -35 8 -51v-4q-1 -23 -27 -45q-37 -33 -37 -49q0 -12 10 -12
q3 0 12 1t14 1q15 0 21.5 -10.5t6.5 -42.5q0 -35 -7 -46t-27 -18q-40 -14 -91 -14zM271 492l-43 -227h99l-42 227h-14z" />
    <glyph glyph-name="aogonek" unicode="&#x105;" horiz-adv-x="487" 
d="M344 -200q-46 0 -69 17.5t-23 64.5q0 65 68 130q-9 9 -13 29l-11 41q-33 -92 -147 -92q-66 0 -97.5 36.5t-31.5 116.5q0 84 44.5 121.5t159.5 37.5h54v6q0 21 -2.5 32t-12 16t-18.5 6t-31 1q-39 0 -84.5 -6.5t-52.5 -6.5q-29 0 -29 68q0 34 6.5 48t24.5 20q53 19 160 19
q114 0 160 -28.5t46 -119.5v-113q0 -87 9 -146l8 -60q0 -19 -20 -41q-37 -40 -37 -56q0 -12 10 -12q3 0 12 1t14 1q15 0 21.5 -10.5t6.5 -42.5q0 -35 -7 -46t-27 -18q-40 -14 -91 -14zM217 122q61 0 61 75v11l-50 -1q-28 -1 -38 -10.5t-10 -34.5q0 -24 8 -32t29 -8z" />
    <glyph glyph-name="Cacute" unicode="&#x106;" horiz-adv-x="455" 
d="M253 -5q-39 0 -68.5 4.5t-60 20.5t-50 43t-32 74t-12.5 112v106q0 75 14 128.5t34.5 82.5t53.5 45t60 20t65 4q83 0 154 -19q13 -3 18.5 -17t5.5 -59q0 -66 -22 -66q-4 0 -41 5.5t-72 5.5q-57 0 -78.5 -25.5t-21.5 -111.5v-63q0 -66 10.5 -96t28.5 -37t61 -7q36 0 71 5.5
t42 5.5q13 0 17.5 -14t4.5 -52q0 -43 -5.5 -58t-18.5 -18q-71 -19 -158 -19zM225 673q-37 0 -51.5 7t-14.5 23q0 21 7 49l11 49q9 37 25.5 48t73.5 11q52 0 68.5 -7t16.5 -25t-19 -62l-22 -49q-11 -25 -28.5 -34.5t-66.5 -9.5z" />
    <glyph glyph-name="cacute" unicode="&#x107;" horiz-adv-x="434" 
d="M256 -10q-56 0 -93 9t-69.5 34.5t-48 78t-15.5 133.5q0 83 13 135.5t42 79.5t65 36t93 9q81 0 136 -19q16 -6 22.5 -19.5t6.5 -48.5q0 -68 -27 -68q-3 0 -45 5.5t-64 5.5q-32 0 -45.5 -4.5t-21.5 -26.5t-8 -70q0 -84 13.5 -105t64.5 -21q35 0 70.5 5.5t36.5 5.5
q27 0 27 -68q0 -35 -7 -49t-22 -19q-55 -19 -124 -19zM204 538q-37 0 -51.5 7t-14.5 23q0 21 7 49l11 49q9 37 25.5 48t73.5 11q52 0 68.5 -7t16.5 -25t-19 -62l-22 -49q-11 -25 -28.5 -34.5t-66.5 -9.5z" />
    <glyph glyph-name="Ccircumflex" unicode="&#x108;" horiz-adv-x="455" 
d="M253 -5q-39 0 -68.5 4.5t-60 20.5t-50 43t-32 74t-12.5 112v106q0 75 14 128.5t34.5 82.5t53.5 45t60 20t65 4q83 0 154 -19q13 -3 18.5 -17t5.5 -59q0 -66 -22 -66q-4 0 -41 5.5t-72 5.5q-57 0 -78.5 -25.5t-21.5 -111.5v-63q0 -66 10.5 -96t28.5 -37t61 -7q36 0 71 5.5
t42 5.5q13 0 17.5 -14t4.5 -52q0 -43 -5.5 -58t-18.5 -18q-71 -19 -158 -19zM253 744h-6l-26 -35q-16 -22 -33.5 -29t-52.5 -7q-50 0 -50 29q0 15 18 46l43 79q10 18 24 25.5t44 7.5h72q30 0 44 -7.5t24 -25.5l43 -79q18 -31 18 -46q0 -29 -50 -29q-35 0 -51.5 7t-33.5 29z
" />
    <glyph glyph-name="ccircumflex" unicode="&#x109;" horiz-adv-x="434" 
d="M256 -10q-56 0 -93 9t-69.5 34.5t-48 78t-15.5 133.5q0 83 13 135.5t42 79.5t65 36t93 9q81 0 136 -19q16 -6 22.5 -19.5t6.5 -48.5q0 -68 -27 -68q-3 0 -45 5.5t-64 5.5q-32 0 -45.5 -4.5t-21.5 -26.5t-8 -70q0 -84 13.5 -105t64.5 -21q35 0 70.5 5.5t36.5 5.5
q27 0 27 -68q0 -35 -7 -49t-22 -19q-55 -19 -124 -19zM236 609h-6l-26 -35q-16 -22 -33.5 -29t-52.5 -7q-50 0 -50 29q0 15 18 46l43 79q10 18 24 25.5t44 7.5h72q30 0 44 -7.5t24 -25.5l43 -79q18 -31 18 -46q0 -29 -50 -29q-35 0 -51.5 7t-33.5 29z" />
    <glyph glyph-name="Cdotaccent" unicode="&#x10a;" horiz-adv-x="455" 
d="M253 -5q-39 0 -68.5 4.5t-60 20.5t-50 43t-32 74t-12.5 112v106q0 75 14 128.5t34.5 82.5t53.5 45t60 20t65 4q83 0 154 -19q13 -3 18.5 -17t5.5 -59q0 -66 -22 -66q-4 0 -41 5.5t-72 5.5q-57 0 -78.5 -25.5t-21.5 -111.5v-63q0 -66 10.5 -96t28.5 -37t61 -7q36 0 71 5.5
t42 5.5q13 0 17.5 -14t4.5 -52q0 -43 -5.5 -58t-18.5 -18q-71 -19 -158 -19zM250 663q-61 0 -75.5 11.5t-14.5 50.5v8q0 39 14.5 50.5t75.5 11.5t75.5 -11.5t14.5 -50.5v-8q0 -39 -14.5 -50.5t-75.5 -11.5z" />
    <glyph glyph-name="cdotaccent" unicode="&#x10b;" horiz-adv-x="434" 
d="M256 -10q-56 0 -93 9t-69.5 34.5t-48 78t-15.5 133.5q0 83 13 135.5t42 79.5t65 36t93 9q81 0 136 -19q16 -6 22.5 -19.5t6.5 -48.5q0 -68 -27 -68q-3 0 -45 5.5t-64 5.5q-32 0 -45.5 -4.5t-21.5 -26.5t-8 -70q0 -84 13.5 -105t64.5 -21q35 0 70.5 5.5t36.5 5.5
q27 0 27 -68q0 -35 -7 -49t-22 -19q-55 -19 -124 -19zM233 528q-61 0 -75.5 11.5t-14.5 50.5v8q0 39 14.5 50.5t75.5 11.5t75.5 -11.5t14.5 -50.5v-8q0 -39 -14.5 -50.5t-75.5 -11.5z" />
    <glyph glyph-name="Ccaron" unicode="&#x10c;" horiz-adv-x="455" 
d="M253 -5q-39 0 -68.5 4.5t-60 20.5t-50 43t-32 74t-12.5 112v106q0 75 14 128.5t34.5 82.5t53.5 45t60 20t65 4q83 0 154 -19q13 -3 18.5 -17t5.5 -59q0 -66 -22 -66q-4 0 -41 5.5t-72 5.5q-57 0 -78.5 -25.5t-21.5 -111.5v-63q0 -66 10.5 -96t28.5 -37t61 -7q36 0 71 5.5
t42 5.5q13 0 17.5 -14t4.5 -52q0 -43 -5.5 -58t-18.5 -18q-71 -19 -158 -19zM66 831q0 29 50 29q35 0 51.5 -7t33.5 -29l27 -35h6l26 35q16 22 33.5 29t52.5 7q50 0 50 -29q0 -15 -18 -46l-43 -79q-10 -18 -24 -25.5t-44 -7.5h-72q-30 0 -44 7.5t-24 25.5l-43 79
q-18 31 -18 46z" />
    <glyph glyph-name="ccaron" unicode="&#x10d;" horiz-adv-x="434" 
d="M256 -10q-56 0 -93 9t-69.5 34.5t-48 78t-15.5 133.5q0 83 13 135.5t42 79.5t65 36t93 9q81 0 136 -19q16 -6 22.5 -19.5t6.5 -48.5q0 -68 -27 -68q-3 0 -45 5.5t-64 5.5q-32 0 -45.5 -4.5t-21.5 -26.5t-8 -70q0 -84 13.5 -105t64.5 -21q35 0 70.5 5.5t36.5 5.5
q27 0 27 -68q0 -35 -7 -49t-22 -19q-55 -19 -124 -19zM68 696q0 29 50 29q35 0 51.5 -7t33.5 -29l27 -35h6l26 35q16 22 33.5 29t52.5 7q50 0 50 -29q0 -15 -18 -46l-43 -79q-10 -18 -24 -25.5t-44 -7.5h-72q-30 0 -44 7.5t-24 25.5l-43 79q-18 31 -18 46z" />
    <glyph glyph-name="Dcaron" unicode="&#x10e;" horiz-adv-x="535" 
d="M245 142q57 0 73.5 24.5t16.5 118.5v90q0 70 -19 96t-78 26q-16 0 -28 -2v-351q22 -2 35 -2zM245 -5q-102 0 -166 7q-25 3 -32 11.5t-7 33.5v531q0 28 8 37.5t34 12.5q51 7 148 7q56 0 92.5 -4t74.5 -18.5t59.5 -41t35 -74t13.5 -116.5v-96q0 -78 -14.5 -133.5t-36 -85.5
t-58.5 -46.5t-69.5 -20.5t-81.5 -4zM95 831q0 29 50 29q35 0 51.5 -7t33.5 -29l27 -35h6l26 35q16 22 33.5 29t52.5 7q50 0 50 -29q0 -15 -18 -46l-43 -79q-10 -18 -24 -25.5t-44 -7.5h-72q-30 0 -44 7.5t-24 25.5l-43 79q-18 31 -18 46z" />
    <glyph glyph-name="dcaron" unicode="&#x10f;" horiz-adv-x="697" 
d="M190 -10q-92 0 -126 48t-34 192q0 115 19.5 175.5t54.5 80t101 19.5q85 0 109 -49v159q0 29 17 37t68 8t68 -8t17 -37v-371q0 -87 8 -146l9 -60q0 -21 -15.5 -29.5t-62.5 -8.5q-43 0 -56.5 7t-20.5 34l-10 36q-35 -87 -146 -87zM258 130q34 0 47 22.5t13 87.5v20
q0 67 -13 86t-50 19q-22 0 -32 -7t-15.5 -33.5t-5.5 -84.5q0 -52 5.5 -75t15.5 -29t35 -6zM612 660q54 0 69.5 -11t15.5 -50v-26q0 -51 -24 -112l-13 -32q-17 -42 -33.5 -53t-62.5 -11q-29 0 -39 7t-10 22q0 10 6 57t6 70v78q0 39 15.5 50t69.5 11z" />
    <glyph glyph-name="Dcroat" unicode="&#x110;" horiz-adv-x="535" 
d="M245 -5q-102 0 -166 7q-25 3 -32 11.5t-7 33.5v197h-9q-26 0 -33 13.5t-7 59.5t7 59.5t33 13.5h9v188q0 28 8 37.5t34 12.5q51 7 148 7q56 0 92.5 -4t74.5 -18.5t59.5 -41t35 -74t13.5 -116.5v-96q0 -78 -14.5 -133.5t-36 -85.5t-58.5 -46.5t-69.5 -20.5t-81.5 -4z
M245 142q57 0 73.5 24.5t16.5 118.5v90q0 70 -19 96t-78 26q-16 0 -28 -2v-109h21q26 0 33 -13t7 -56t-7 -56t-33 -13h-21v-104q22 -2 35 -2z" />
    <glyph glyph-name="dcroat" unicode="&#x111;" horiz-adv-x="526" 
d="M190 -10q-92 0 -126 48t-34 192q0 115 19.5 175.5t54.5 80t101 19.5q85 0 109 -49v55h-16q-22 0 -28 7.5t-6 34.5q0 28 6 36t28 8h16v18q0 29 17 37t68 8t68 -8t17 -37v-18h26q21 0 27.5 -9t6.5 -37t-6.5 -36.5t-27.5 -8.5h-26v-262q0 -87 8 -146l9 -60
q0 -21 -15.5 -29.5t-62.5 -8.5q-43 0 -56.5 7t-20.5 34l-10 36q-35 -87 -146 -87zM258 130q34 0 47 22.5t13 87.5v20q0 67 -13 86t-50 19q-22 0 -32 -7t-15.5 -33.5t-5.5 -84.5q0 -52 5.5 -75t15.5 -29t35 -6z" />
    <glyph glyph-name="Emacron" unicode="&#x112;" horiz-adv-x="455" 
d="M440 74q0 -44 -8.5 -59t-31.5 -15h-315q-26 0 -35.5 7.5t-9.5 32.5v550q0 25 9.5 32.5t35.5 7.5h305q23 0 31.5 -15t8.5 -59t-8.5 -59t-31.5 -15h-180v-82h110q26 0 33 -13.5t7 -59.5t-7 -59.5t-33 -13.5h-110v-106h190q23 0 31.5 -15t8.5 -59zM111 741q0 43 7 55.5
t33 12.5h180q26 0 33 -12.5t7 -55.5t-7 -55.5t-33 -12.5h-180q-26 0 -33 12.5t-7 55.5z" />
    <glyph glyph-name="emacron" unicode="&#x113;" horiz-adv-x="488" 
d="M266 -10q-60 0 -98.5 8.5t-72.5 34.5t-49.5 78t-15.5 134q0 84 12.5 135.5t42.5 79t68 36.5t101 9q124 0 164 -51.5t40 -181.5q0 -38 -12 -55t-46 -17h-201q4 -43 19 -54.5t57 -11.5q34 0 67.5 3t54.5 5.5t25 2.5q27 0 27 -68q0 -35 -7 -49t-22 -19q-55 -19 -154 -19z
M252 365q-32 0 -42.5 -11.5t-12.5 -56.5h104q0 43 -9 55.5t-40 12.5zM114 606q0 43 7 55.5t33 12.5h180q26 0 33 -12.5t7 -55.5t-7 -55.5t-33 -12.5h-180q-26 0 -33 12.5t-7 55.5z" />
    <glyph glyph-name="Ebreve" unicode="&#x114;" horiz-adv-x="455" 
d="M440 74q0 -44 -8.5 -59t-31.5 -15h-315q-26 0 -35.5 7.5t-9.5 32.5v550q0 25 9.5 32.5t35.5 7.5h305q23 0 31.5 -15t8.5 -59t-8.5 -59t-31.5 -15h-180v-82h110q26 0 33 -13.5t7 -59.5t-7 -59.5t-33 -13.5h-110v-106h190q23 0 31.5 -15t8.5 -59zM241 668q-80 0 -116.5 31
t-36.5 110q0 29 10.5 37t44.5 8q33 0 43 -6t13 -26q2 -19 9.5 -25.5t32.5 -6.5t32.5 6.5t9.5 25.5q3 20 13 26t43 6q34 0 44.5 -8t10.5 -37q0 -79 -36.5 -110t-116.5 -31z" />
    <glyph glyph-name="ebreve" unicode="&#x115;" horiz-adv-x="488" 
d="M266 -10q-60 0 -98.5 8.5t-72.5 34.5t-49.5 78t-15.5 134q0 84 12.5 135.5t42.5 79t68 36.5t101 9q124 0 164 -51.5t40 -181.5q0 -38 -12 -55t-46 -17h-201q4 -43 19 -54.5t57 -11.5q34 0 67.5 3t54.5 5.5t25 2.5q27 0 27 -68q0 -35 -7 -49t-22 -19q-55 -19 -154 -19z
M252 365q-32 0 -42.5 -11.5t-12.5 -56.5h104q0 43 -9 55.5t-40 12.5zM244 538q-80 0 -116.5 31t-36.5 110q0 29 10.5 37t44.5 8q33 0 43 -6t13 -26q2 -19 9.5 -25.5t32.5 -6.5t32.5 6.5t9.5 25.5q3 20 13 26t43 6q34 0 44.5 -8t10.5 -37q0 -79 -36.5 -110t-116.5 -31z" />
    <glyph glyph-name="Edotaccent" unicode="&#x116;" horiz-adv-x="455" 
d="M440 74q0 -44 -8.5 -59t-31.5 -15h-315q-26 0 -35.5 7.5t-9.5 32.5v550q0 25 9.5 32.5t35.5 7.5h305q23 0 31.5 -15t8.5 -59t-8.5 -59t-31.5 -15h-180v-82h110q26 0 33 -13.5t7 -59.5t-7 -59.5t-33 -13.5h-110v-106h190q23 0 31.5 -15t8.5 -59zM241 668q-61 0 -75.5 11.5
t-14.5 50.5v8q0 39 14.5 50.5t75.5 11.5t75.5 -11.5t14.5 -50.5v-8q0 -39 -14.5 -50.5t-75.5 -11.5z" />
    <glyph glyph-name="edotaccent" unicode="&#x117;" horiz-adv-x="488" 
d="M266 -10q-60 0 -98.5 8.5t-72.5 34.5t-49.5 78t-15.5 134q0 84 12.5 135.5t42.5 79t68 36.5t101 9q124 0 164 -51.5t40 -181.5q0 -38 -12 -55t-46 -17h-201q4 -43 19 -54.5t57 -11.5q34 0 67.5 3t54.5 5.5t25 2.5q27 0 27 -68q0 -35 -7 -49t-22 -19q-55 -19 -154 -19z
M252 365q-32 0 -42.5 -11.5t-12.5 -56.5h104q0 43 -9 55.5t-40 12.5zM244 528q-61 0 -75.5 11.5t-14.5 50.5v8q0 39 14.5 50.5t75.5 11.5t75.5 -11.5t14.5 -50.5v-8q0 -39 -14.5 -50.5t-75.5 -11.5z" />
    <glyph glyph-name="Eogonek" unicode="&#x118;" horiz-adv-x="455" 
d="M360 327q0 -46 -7 -59.5t-33 -13.5h-110v-106h190q23 0 31.5 -15t8.5 -58q0 -36 -5 -53t-23 -35q-36 -34 -36 -46t10 -12q3 0 12 1t14 1q15 0 21.5 -10.5t6.5 -42.5q0 -35 -7 -46t-27 -18q-40 -14 -91 -14q-46 0 -69 17.5t-23 64.5q0 62 58 118h-196q-26 0 -35.5 7.5
t-9.5 32.5v550q0 25 9.5 32.5t35.5 7.5h305q23 0 31.5 -15t8.5 -59t-8.5 -59t-31.5 -15h-180v-82h110q26 0 33 -13.5t7 -59.5z" />
    <glyph glyph-name="eogonek" unicode="&#x119;" horiz-adv-x="488" 
d="M324 -200q-46 0 -69 17.5t-23 64.5q0 57 46 108h-12q-60 0 -98.5 8.5t-72.5 34.5t-49.5 78t-15.5 134q0 84 12.5 135.5t42.5 79t68 36.5t101 9q124 0 164 -51.5t40 -181.5q0 -38 -12 -55t-46 -17h-201q4 -43 19 -54.5t57 -11.5q34 0 67.5 3t54.5 5.5t25 2.5q27 0 27 -68
q0 -31 -7 -48t-29 -42q-28 -34 -28 -46t10 -12q3 0 12 1t14 1q15 0 21.5 -10.5t6.5 -42.5q0 -35 -7 -46t-27 -18q-40 -14 -91 -14zM252 365q-32 0 -42.5 -11.5t-12.5 -56.5h104q0 43 -9 55.5t-40 12.5z" />
    <glyph glyph-name="Ecaron" unicode="&#x11a;" horiz-adv-x="455" 
d="M440 74q0 -44 -8.5 -59t-31.5 -15h-315q-26 0 -35.5 7.5t-9.5 32.5v550q0 25 9.5 32.5t35.5 7.5h305q23 0 31.5 -15t8.5 -59t-8.5 -59t-31.5 -15h-180v-82h110q26 0 33 -13.5t7 -59.5t-7 -59.5t-33 -13.5h-110v-106h190q23 0 31.5 -15t8.5 -59zM76 831q0 29 50 29
q35 0 51.5 -7t33.5 -29l27 -35h6l26 35q16 22 33.5 29t52.5 7q50 0 50 -29q0 -15 -18 -46l-43 -79q-10 -18 -24 -25.5t-44 -7.5h-72q-30 0 -44 7.5t-24 25.5l-43 79q-18 31 -18 46z" />
    <glyph glyph-name="ecaron" unicode="&#x11b;" horiz-adv-x="488" 
d="M266 -10q-60 0 -98.5 8.5t-72.5 34.5t-49.5 78t-15.5 134q0 84 12.5 135.5t42.5 79t68 36.5t101 9q124 0 164 -51.5t40 -181.5q0 -38 -12 -55t-46 -17h-201q4 -43 19 -54.5t57 -11.5q34 0 67.5 3t54.5 5.5t25 2.5q27 0 27 -68q0 -35 -7 -49t-22 -19q-55 -19 -154 -19z
M252 365q-32 0 -42.5 -11.5t-12.5 -56.5h104q0 43 -9 55.5t-40 12.5zM79 696q0 29 50 29q35 0 51.5 -7t33.5 -29l27 -35h6l26 35q16 22 33.5 29t52.5 7q50 0 50 -29q0 -15 -18 -46l-43 -79q-10 -18 -24 -25.5t-44 -7.5h-72q-30 0 -44 7.5t-24 25.5l-43 79q-18 31 -18 46z
" />
    <glyph glyph-name="Gcircumflex" unicode="&#x11c;" horiz-adv-x="506" 
d="M263 -5q-43 0 -74 4.5t-62.5 20.5t-51.5 43t-32.5 74t-12.5 112v106q0 75 14 128.5t34.5 82.5t54.5 45t62 20t68 4q92 0 163 -19q13 -3 18.5 -17t5.5 -59q0 -66 -22 -66q-4 0 -48.5 5.5t-79.5 5.5q-56 0 -78 -26t-22 -111v-63q0 -49 5 -78.5t16.5 -42t23 -16t31.5 -3.5
q55 0 55 22v65h-30q-19 0 -24.5 14.5t-5.5 59.5q0 38 6 51t24 13h125q31 0 40.5 -9.5t9.5 -30.5v-210q0 -125 -213 -125zM246 744h-6l-26 -35q-16 -22 -33.5 -29t-52.5 -7q-50 0 -50 29q0 15 18 46l43 79q10 18 24 25.5t44 7.5h72q30 0 44 -7.5t24 -25.5l43 -79
q18 -31 18 -46q0 -29 -50 -29q-35 0 -51.5 7t-33.5 29z" />
    <glyph glyph-name="gcircumflex" unicode="&#x11d;" horiz-adv-x="525" 
d="M30 250q0 80 10 130t33.5 77.5t56 37.5t85.5 10t82.5 -16.5t42.5 -54.5l5 20q7 27 20.5 34t56.5 7q47 0 62.5 -8.5t15.5 -29.5l-8 -59q-9 -60 -9 -147v-192q0 -67 -13.5 -115.5t-34.5 -76t-56.5 -43t-70.5 -20t-85 -4.5q-90 0 -147 18q-15 5 -22 19.5t-7 49.5q0 68 27 68
q1 0 46.5 -5.5t80.5 -5.5q73 0 92 19.5t20 90.5q-32 -64 -135 -64q-58 0 -88.5 20t-45 76t-14.5 164zM202 240q0 -52 5.5 -75t15.5 -29t35 -6q34 0 47 22.5t13 87.5v20q0 67 -13 86t-50 19q-22 0 -32 -7t-15.5 -33.5t-5.5 -84.5zM268 609h-6l-26 -35q-16 -22 -33.5 -29
t-52.5 -7q-50 0 -50 29q0 15 18 46l43 79q10 18 24 25.5t44 7.5h72q30 0 44 -7.5t24 -25.5l43 -79q18 -31 18 -46q0 -29 -50 -29q-35 0 -51.5 7t-33.5 29z" />
    <glyph glyph-name="Gbreve" unicode="&#x11e;" horiz-adv-x="506" 
d="M263 -5q-43 0 -74 4.5t-62.5 20.5t-51.5 43t-32.5 74t-12.5 112v106q0 75 14 128.5t34.5 82.5t54.5 45t62 20t68 4q92 0 163 -19q13 -3 18.5 -17t5.5 -59q0 -66 -22 -66q-4 0 -48.5 5.5t-79.5 5.5q-56 0 -78 -26t-22 -111v-63q0 -49 5 -78.5t16.5 -42t23 -16t31.5 -3.5
q55 0 55 22v65h-30q-19 0 -24.5 14.5t-5.5 59.5q0 38 6 51t24 13h125q31 0 40.5 -9.5t9.5 -30.5v-210q0 -125 -213 -125zM243 673q-80 0 -116.5 30.5t-36.5 110.5q0 29 10.5 37t44.5 8q33 0 43 -6t13 -26q2 -19 9.5 -25.5t32.5 -6.5t32.5 6.5t9.5 25.5q3 20 13 26t43 6
q34 0 44.5 -8t10.5 -37q0 -80 -36.5 -110.5t-116.5 -30.5z" />
    <glyph glyph-name="gbreve" unicode="&#x11f;" horiz-adv-x="525" 
d="M30 250q0 80 10 130t33.5 77.5t56 37.5t85.5 10t82.5 -16.5t42.5 -54.5l5 20q7 27 20.5 34t56.5 7q47 0 62.5 -8.5t15.5 -29.5l-8 -59q-9 -60 -9 -147v-192q0 -67 -13.5 -115.5t-34.5 -76t-56.5 -43t-70.5 -20t-85 -4.5q-90 0 -147 18q-15 5 -22 19.5t-7 49.5q0 68 27 68
q1 0 46.5 -5.5t80.5 -5.5q73 0 92 19.5t20 90.5q-32 -64 -135 -64q-58 0 -88.5 20t-45 76t-14.5 164zM202 240q0 -52 5.5 -75t15.5 -29t35 -6q34 0 47 22.5t13 87.5v20q0 67 -13 86t-50 19q-22 0 -32 -7t-15.5 -33.5t-5.5 -84.5zM265 538q-80 0 -116.5 31t-36.5 110
q0 29 10.5 37t44.5 8q33 0 43 -6t13 -26q2 -19 9.5 -25.5t32.5 -6.5t32.5 6.5t9.5 25.5q3 20 13 26t43 6q34 0 44.5 -8t10.5 -37q0 -79 -36.5 -110t-116.5 -31z" />
    <glyph glyph-name="Gdotaccent" unicode="&#x120;" horiz-adv-x="506" 
d="M263 -5q-43 0 -74 4.5t-62.5 20.5t-51.5 43t-32.5 74t-12.5 112v106q0 75 14 128.5t34.5 82.5t54.5 45t62 20t68 4q92 0 163 -19q13 -3 18.5 -17t5.5 -59q0 -66 -22 -66q-4 0 -48.5 5.5t-79.5 5.5q-56 0 -78 -26t-22 -111v-63q0 -49 5 -78.5t16.5 -42t23 -16t31.5 -3.5
q55 0 55 22v65h-30q-19 0 -24.5 14.5t-5.5 59.5q0 38 6 51t24 13h125q31 0 40.5 -9.5t9.5 -30.5v-210q0 -125 -213 -125zM243 668q-61 0 -75.5 11.5t-14.5 50.5v8q0 39 14.5 50.5t75.5 11.5t75.5 -11.5t14.5 -50.5v-8q0 -39 -14.5 -50.5t-75.5 -11.5z" />
    <glyph glyph-name="gdotaccent" unicode="&#x121;" horiz-adv-x="525" 
d="M30 250q0 80 10 130t33.5 77.5t56 37.5t85.5 10t82.5 -16.5t42.5 -54.5l5 20q7 27 20.5 34t56.5 7q47 0 62.5 -8.5t15.5 -29.5l-8 -59q-9 -60 -9 -147v-192q0 -67 -13.5 -115.5t-34.5 -76t-56.5 -43t-70.5 -20t-85 -4.5q-90 0 -147 18q-15 5 -22 19.5t-7 49.5q0 68 27 68
q1 0 46.5 -5.5t80.5 -5.5q73 0 92 19.5t20 90.5q-32 -64 -135 -64q-58 0 -88.5 20t-45 76t-14.5 164zM202 240q0 -52 5.5 -75t15.5 -29t35 -6q34 0 47 22.5t13 87.5v20q0 67 -13 86t-50 19q-22 0 -32 -7t-15.5 -33.5t-5.5 -84.5zM265 528q-61 0 -75.5 11.5t-14.5 50.5v8
q0 39 14.5 50.5t75.5 11.5t75.5 -11.5t14.5 -50.5v-8q0 -39 -14.5 -50.5t-75.5 -11.5z" />
    <glyph glyph-name="Gcommaaccent" unicode="&#x122;" horiz-adv-x="506" 
d="M263 -5q-43 0 -74 4.5t-62.5 20.5t-51.5 43t-32.5 74t-12.5 112v106q0 75 14 128.5t34.5 82.5t54.5 45t62 20t68 4q92 0 163 -19q13 -3 18.5 -17t5.5 -59q0 -66 -22 -66q-4 0 -48.5 5.5t-79.5 5.5q-56 0 -78 -26t-22 -111v-63q0 -49 5 -78.5t16.5 -42t23 -16t31.5 -3.5
q55 0 55 22v65h-30q-19 0 -24.5 14.5t-5.5 59.5q0 38 6 51t24 13h125q31 0 40.5 -9.5t9.5 -30.5v-210q0 -125 -213 -125zM213 -253q-29 0 -39 7t-10 22q0 10 5 52t5 63q0 39 15.5 50t69.5 11q50 0 67.5 -9.5t17.5 -35.5q0 -39 -18 -73l-27 -49q-13 -23 -28 -30.5t-58 -7.5z
" />
    <glyph glyph-name="gcommaaccent" unicode="&#x123;" horiz-adv-x="525" 
d="M30 250q0 80 10 130t33.5 77.5t56 37.5t85.5 10t82.5 -16.5t42.5 -54.5l5 20q7 27 20.5 34t56.5 7q47 0 62.5 -8.5t15.5 -29.5l-8 -59q-9 -60 -9 -147v-192q0 -67 -13.5 -115.5t-34.5 -76t-56.5 -43t-70.5 -20t-85 -4.5q-90 0 -147 18q-15 5 -22 19.5t-7 49.5q0 68 27 68
q1 0 46.5 -5.5t80.5 -5.5q73 0 92 19.5t20 90.5q-32 -64 -135 -64q-58 0 -88.5 20t-45 76t-14.5 164zM202 240q0 -52 5.5 -75t15.5 -29t35 -6q34 0 47 22.5t13 87.5v20q0 67 -13 86t-50 19q-22 0 -32 -7t-15.5 -33.5t-5.5 -84.5zM323 733q29 0 39 -7t10 -22q0 -10 -5 -52
t-5 -63q0 -39 -15.5 -50t-69.5 -11q-50 0 -67.5 9.5t-17.5 35.5q0 39 18 73l27 49q13 23 28 30.5t58 7.5z" />
    <glyph glyph-name="Hcircumflex" unicode="&#x124;" horiz-adv-x="550" 
d="M210 384h130v201q0 29 17 37t68 8t68 -8t17 -37v-540q0 -29 -17 -37t-68 -8t-68 8t-17 37v201h-130v-201q0 -29 -17 -37t-68 -8t-68 8t-17 37v540q0 29 17 37t68 8t68 -8t17 -37v-201zM278 744h-6l-26 -35q-16 -22 -33.5 -29t-52.5 -7q-50 0 -50 29q0 15 18 46l43 79
q10 18 24 25.5t44 7.5h72q30 0 44 -7.5t24 -25.5l43 -79q18 -31 18 -46q0 -29 -50 -29q-35 0 -51.5 7t-33.5 29z" />
    <glyph glyph-name="hcircumflex" unicode="&#x125;" horiz-adv-x="515" 
d="M120 0q-51 0 -68 8t-17 37v570q0 29 17 37t68 8t68 -8t17 -37v-166q40 56 131 56q78 0 108.5 -33t30.5 -115v-312q0 -29 -17 -37t-68 -8t-68 8t-17 37v270q0 24 -7.5 34.5t-26.5 10.5q-37 0 -51.5 -33t-14.5 -119v-163q0 -29 -17 -37t-68 -8zM268 749h-6l-26 -35
q-16 -22 -33.5 -29t-52.5 -7q-50 0 -50 29q0 15 18 46l43 79q10 18 24 25.5t44 7.5h72q30 0 44 -7.5t24 -25.5l43 -79q18 -31 18 -46q0 -29 -50 -29q-35 0 -51.5 7t-33.5 29z" />
    <glyph glyph-name="Hbar" unicode="&#x126;" horiz-adv-x="550" 
d="M-1 496q0 37 6 47.5t28 10.5h7v31q0 29 17 37t68 8t68 -8t17 -37v-31h130v31q0 29 17 37t68 8t68 -8t17 -37v-31h7q22 0 28 -10.5t6 -47.5t-6 -47.5t-28 -10.5h-7v-393q0 -29 -17 -37t-68 -8t-68 8t-17 37v201h-130v-201q0 -29 -17 -37t-68 -8t-68 8t-17 37v393h-7
q-22 0 -28 10.5t-6 47.5zM210 384h130v54h-130v-54z" />
    <glyph glyph-name="hbar" unicode="&#x127;" horiz-adv-x="515" 
d="M120 0q-51 0 -68 8t-17 37v461h-17q-21 0 -27.5 8.5t-6.5 36.5t6.5 37t27.5 9h17v18q0 29 17 37t68 8t68 -8t17 -37v-18h25q22 0 28 -8t6 -36q0 -27 -6 -34.5t-28 -7.5h-25v-62q40 56 131 56q78 0 108.5 -33t30.5 -115v-312q0 -29 -17 -37t-68 -8t-68 8t-17 37v270
q0 24 -7.5 34.5t-26.5 10.5q-37 0 -51.5 -33t-14.5 -119v-163q0 -29 -17 -37t-68 -8z" />
    <glyph glyph-name="Itilde" unicode="&#x128;" horiz-adv-x="250" 
d="M125 0q-51 0 -68 8t-17 37v540q0 29 17 37t68 8t68 -8t17 -37v-540q0 -29 -17 -37t-68 -8zM-37 729q0 34 5.5 47.5t22.5 24.5q33 21 74 21q30 0 70 -9.5t59 -9.5q22 0 45 6.5t28 6.5q13 0 17 -10t4 -45q0 -34 -5.5 -47.5t-22.5 -24.5q-33 -21 -74 -21q-30 0 -70 9.5
t-59 9.5q-23 0 -46 -6.5t-27 -6.5q-13 0 -17 10t-4 45z" />
    <glyph glyph-name="itilde" unicode="&#x129;" horiz-adv-x="245" 
d="M120 0q-51 0 -68 8t-17 37v405q0 29 17 37t68 8t68 -8t17 -37v-405q0 -29 -17 -37t-68 -8zM-41 605q0 34 5.5 47.5t22.5 24.5q33 21 74 21q30 0 70 -9.5t59 -9.5q22 0 45 6.5t28 6.5q13 0 17 -10t4 -45q0 -34 -5.5 -47.5t-22.5 -24.5q-33 -21 -74 -21q-30 0 -70 9.5
t-59 9.5q-22 0 -45.5 -6.5t-27.5 -6.5q-13 0 -17 10t-4 45z" />
    <glyph glyph-name="Imacron" unicode="&#x12a;" horiz-adv-x="250" 
d="M125 0q-51 0 -68 8t-17 37v540q0 29 17 37t68 8t68 -8t17 -37v-540q0 -29 -17 -37t-68 -8zM-5 741q0 43 7 55.5t33 12.5h180q26 0 33 -12.5t7 -55.5t-7 -55.5t-33 -12.5h-180q-26 0 -33 12.5t-7 55.5z" />
    <glyph glyph-name="imacron" unicode="&#x12b;" horiz-adv-x="245" 
d="M120 0q-51 0 -68 8t-17 37v405q0 29 17 37t68 8t68 -8t17 -37v-405q0 -29 -17 -37t-68 -8zM-9 606q0 43 7 55.5t33 12.5h180q26 0 33 -12.5t7 -55.5t-7 -55.5t-33 -12.5h-180q-26 0 -33 12.5t-7 55.5z" />
    <glyph glyph-name="Ibreve" unicode="&#x12c;" horiz-adv-x="250" 
d="M125 0q-51 0 -68 8t-17 37v540q0 29 17 37t68 8t68 -8t17 -37v-540q0 -29 -17 -37t-68 -8zM125 668q-80 0 -116.5 31t-36.5 110q0 29 10.5 37t44.5 8q33 0 43 -6t13 -26q2 -19 9.5 -25.5t32.5 -6.5t32.5 6.5t9.5 25.5q3 20 13 26t43 6q34 0 44.5 -8t10.5 -37
q0 -79 -36.5 -110t-116.5 -31z" />
    <glyph glyph-name="ibreve" unicode="&#x12d;" horiz-adv-x="245" 
d="M120 0q-51 0 -68 8t-17 37v405q0 29 17 37t68 8t68 -8t17 -37v-405q0 -29 -17 -37t-68 -8zM121 538q-80 0 -116.5 31t-36.5 110q0 29 10.5 37t44.5 8q33 0 43 -6t13 -26q2 -19 9.5 -25.5t32.5 -6.5t32.5 6.5t9.5 25.5q3 20 13 26t43 6q34 0 44.5 -8t10.5 -37
q0 -79 -36.5 -110t-116.5 -31z" />
    <glyph glyph-name="Iogonek" unicode="&#x12e;" horiz-adv-x="250" 
d="M210 585v-508q0 -36 -5 -54t-23 -36q-36 -34 -36 -46t10 -12q3 0 12 1t14 1q15 0 21.5 -10.5t6.5 -42.5q0 -35 -7 -46t-27 -18q-40 -14 -91 -14q-46 0 -69 17.5t-23 64.5q0 65 65 125q-18 8 -18 38v540q0 29 17 37t68 8t68 -8t17 -37z" />
    <glyph glyph-name="iogonek" unicode="&#x12f;" horiz-adv-x="245" 
d="M80 -200q51 0 91 14q20 7 27 18t7 46q0 32 -6.5 42.5t-21.5 10.5q-5 0 -14 -1t-12 -1q-10 0 -10 12q0 10 32 42q20 20 26 31.5t6 30.5v405q0 29 -17 37t-68 8t-68 -8t-17 -37v-405q0 -32 23 -40q-41 -36 -55.5 -62t-14.5 -61q0 -47 23 -64.5t69 -17.5zM120 528
q-61 0 -75.5 11.5t-14.5 50.5v8q0 39 14.5 50.5t75.5 11.5t75.5 -11.5t14.5 -50.5v-8q0 -39 -14.5 -50.5t-75.5 -11.5z" />
    <glyph glyph-name="Idotaccent" unicode="&#x130;" horiz-adv-x="250" 
d="M125 0q-51 0 -68 8t-17 37v540q0 29 17 37t68 8t68 -8t17 -37v-540q0 -29 -17 -37t-68 -8zM125 668q-61 0 -75.5 11.5t-14.5 50.5v8q0 39 14.5 50.5t75.5 11.5t75.5 -11.5t14.5 -50.5v-8q0 -39 -14.5 -50.5t-75.5 -11.5z" />
    <glyph glyph-name="dotlessi" unicode="&#x131;" horiz-adv-x="245" 
d="M120 0q-51 0 -68 8t-17 37v405q0 29 17 37t68 8t68 -8t17 -37v-405q0 -29 -17 -37t-68 -8z" />
    <glyph glyph-name="IJ" unicode="&#x132;" horiz-adv-x="620" 
d="M125 0q-51 0 -68 8t-17 37v540q0 29 17 37t68 8t68 -8t17 -37v-540q0 -29 -17 -37t-68 -8zM410 -5q-67 0 -123 17q-19 6 -25.5 20t-6.5 58q0 39 5.5 49.5t19.5 10.5q10 0 36 -2.5t44 -2.5q30 0 40 9.5t10 40.5v390q0 29 17 37t68 8t68 -8t17 -37v-382
q0 -115 -38.5 -161.5t-131.5 -46.5z" />
    <glyph glyph-name="ij" unicode="&#x133;" horiz-adv-x="490" 
d="M120 0q-51 0 -68 8t-17 37v405q0 29 17 37t68 8t68 -8t17 -37v-405q0 -29 -17 -37t-68 -8zM120 528q-61 0 -75.5 11.5t-14.5 50.5v8q0 39 14.5 50.5t75.5 11.5t75.5 -11.5t14.5 -50.5v-8q0 -39 -14.5 -50.5t-75.5 -11.5zM365 495q51 0 68 -8t17 -37v-518
q0 -132 -131 -132q-55 0 -100 13q-19 5 -26.5 19.5t-7.5 51.5q0 42 6.5 53t20.5 11q5 0 21 -1.5t22 -1.5q14 0 19.5 5t5.5 18v482q0 29 17 37t68 8zM365 528q-61 0 -75.5 11.5t-14.5 50.5v8q0 39 14.5 50.5t75.5 11.5t75.5 -11.5t14.5 -50.5v-8q0 -39 -14.5 -50.5
t-75.5 -11.5z" />
    <glyph glyph-name="Jcircumflex" unicode="&#x134;" horiz-adv-x="370" 
d="M160 -5q-67 0 -123 17q-19 6 -25.5 20t-6.5 58q0 39 5.5 49.5t19.5 10.5q10 0 36 -2.5t44 -2.5q30 0 40 9.5t10 40.5v390q0 29 17 37t68 8t68 -8t17 -37v-382q0 -115 -38.5 -161.5t-131.5 -46.5zM247 744h-6l-26 -35q-16 -22 -33.5 -29t-52.5 -7q-50 0 -50 29q0 15 18 46
l43 79q10 18 24 25.5t44 7.5h72q30 0 44 -7.5t24 -25.5l43 -79q18 -31 18 -46q0 -29 -50 -29q-35 0 -51.5 7t-33.5 29z" />
    <glyph glyph-name="jcircumflex" unicode="&#x135;" horiz-adv-x="245" 
d="M120 495q51 0 68 -8t17 -37v-518q0 -132 -131 -132q-54 0 -100 13q-19 5 -26.5 19.5t-7.5 51.5q0 42 6.5 53t20.5 11q5 0 21 -1.5t22 -1.5q14 0 19.5 5t5.5 18v482q0 29 17 37t68 8zM122 609h-6l-26 -35q-16 -22 -33.5 -29t-52.5 -7q-50 0 -50 29q0 15 18 46l43 79
q10 18 24 25.5t44 7.5h72q30 0 44 -7.5t24 -25.5l43 -79q18 -31 18 -46q0 -29 -50 -29q-35 0 -51.5 7t-33.5 29z" />
    <glyph glyph-name="Kcommaaccent" unicode="&#x136;" horiz-adv-x="524" 
d="M125 0q-51 0 -68 8t-17 37v540q0 29 17 37t68 8t68 -8t17 -37v-221h20l83 225q10 27 29 34t79 7q47 0 62 -8t15 -25q0 -12 -13 -42l-109 -241l106 -208q27 -54 27 -67q0 -12 -4.5 -19t-25.5 -13.5t-61 -6.5q-45 0 -63.5 7.5t-30.5 33.5l-94 217h-20v-213q0 -29 -17 -37
t-68 -8zM222 -253q-29 0 -39 7t-10 22q0 10 5 52t5 63q0 39 15.5 50t69.5 11q50 0 67.5 -9.5t17.5 -35.5q0 -39 -18 -73l-27 -49q-13 -23 -28 -30.5t-58 -7.5z" />
    <glyph glyph-name="kcommaaccent" unicode="&#x137;" horiz-adv-x="502" 
d="M120 0q-51 0 -68 8t-17 37v570q0 29 17 37t68 8t68 -8t17 -37v-306h14l65 145q12 27 30.5 34t75.5 7q47 0 65 -6t18 -21q0 -19 -13 -43l-91 -166l105 -189q13 -22 13 -36q0 -34 -89 -34q-50 0 -69 7.5t-31 33.5l-79 167h-14v-163q0 -29 -17 -37t-68 -8zM215 -253
q-29 0 -39 7t-10 22q0 10 5 52t5 63q0 39 15.5 50t69.5 11q50 0 67.5 -9.5t17.5 -35.5q0 -39 -18 -73l-27 -49q-13 -23 -28 -30.5t-58 -7.5z" />
    <glyph glyph-name="Lacute" unicode="&#x139;" horiz-adv-x="430" 
d="M210 148h170q23 0 31.5 -15t8.5 -59t-8.5 -59t-31.5 -15h-295q-26 0 -35.5 7.5t-9.5 32.5v545q0 29 17 37t68 8t68 -8t17 -37v-437zM130 673q-37 0 -51.5 7t-14.5 23q0 21 7 49l11 49q9 37 25.5 48t73.5 11q52 0 68.5 -7t16.5 -25t-19 -62l-22 -49q-11 -25 -28.5 -34.5
t-66.5 -9.5z" />
    <glyph glyph-name="lacute" unicode="&#x13a;" horiz-adv-x="245" 
d="M120 0q-51 0 -68 8t-17 37v570q0 29 17 37t68 8t68 -8t17 -37v-570q0 -29 -17 -37t-68 -8zM110 687q-37 0 -51.5 7t-14.5 23q0 21 7 49l11 49q9 37 25.5 48t73.5 11q52 0 68.5 -7t16.5 -25t-19 -62l-22 -49q-11 -25 -28.5 -34.5t-66.5 -9.5z" />
    <glyph glyph-name="Lcommaaccent" unicode="&#x13b;" horiz-adv-x="430" 
d="M210 148h170q23 0 31.5 -15t8.5 -59t-8.5 -59t-31.5 -15h-295q-26 0 -35.5 7.5t-9.5 32.5v545q0 29 17 37t68 8t68 -8t17 -37v-437zM180 -253q-29 0 -39 7t-10 22q0 10 5 52t5 63q0 39 15.5 50t69.5 11q50 0 67.5 -9.5t17.5 -35.5q0 -39 -18 -73l-27 -49
q-13 -23 -28 -30.5t-58 -7.5z" />
    <glyph glyph-name="lcommaaccent" unicode="&#x13c;" horiz-adv-x="245" 
d="M120 0q-51 0 -68 8t-17 37v570q0 29 17 37t68 8t68 -8t17 -37v-570q0 -29 -17 -37t-68 -8zM78 -253q-29 0 -39 7t-10 22q0 10 5 52t5 63q0 39 15.5 50t69.5 11q50 0 67.5 -9.5t17.5 -35.5q0 -39 -18 -73l-27 -49q-13 -23 -28 -30.5t-58 -7.5z" />
    <glyph glyph-name="Lcaron" unicode="&#x13d;" horiz-adv-x="430" 
d="M210 148h170q23 0 31.5 -15t8.5 -59t-8.5 -59t-31.5 -15h-295q-26 0 -35.5 7.5t-9.5 32.5v545q0 29 17 37t68 8t68 -8t17 -37v-437zM335 630q54 0 69.5 -11t15.5 -50v-26q0 -51 -24 -112l-13 -32q-17 -42 -33.5 -53t-62.5 -11q-29 0 -39 7t-10 22q0 10 6 57t6 70v78
q0 39 15.5 50t69.5 11z" />
    <glyph glyph-name="lcaron" unicode="&#x13e;" horiz-adv-x="421" 
d="M347 660q54 0 69.5 -11t15.5 -50v-26q0 -51 -24 -112l-13 -32q-17 -42 -33.5 -53t-62.5 -11q-29 0 -39 7t-10 22q0 10 6 57t6 70v78q0 39 15.5 50t69.5 11zM120 0q-51 0 -68 8t-17 37v570q0 29 17 37t68 8t68 -8t17 -37v-570q0 -29 -17 -37t-68 -8z" />
    <glyph glyph-name="Ldot" unicode="&#x13f;" horiz-adv-x="430" 
d="M210 148h170q23 0 31.5 -15t8.5 -59t-8.5 -59t-31.5 -15h-295q-26 0 -35.5 7.5t-9.5 32.5v545q0 29 17 37t68 8t68 -8t17 -37v-437zM319 272q-61 0 -75.5 11.5t-14.5 50.5v8q0 39 14.5 50.5t75.5 11.5t75.5 -11.5t14.5 -50.5v-8q0 -39 -14.5 -50.5t-75.5 -11.5z" />
    <glyph glyph-name="ldot" unicode="&#x140;" horiz-adv-x="431" 
d="M120 0q-51 0 -68 8t-17 37v570q0 29 17 37t68 8t68 -8t17 -37v-570q0 -29 -17 -37t-68 -8zM338 180q-61 0 -75.5 11.5t-14.5 50.5v8q0 39 14.5 50.5t75.5 11.5t75.5 -11.5t14.5 -50.5v-8q0 -39 -14.5 -50.5t-75.5 -11.5z" />
    <glyph glyph-name="Lslash" unicode="&#x141;" horiz-adv-x="430" 
d="M210 148h170q23 0 31.5 -15t8.5 -59t-8.5 -59t-31.5 -15h-295q-26 0 -35.5 7.5t-9.5 32.5v164l-13 -7q-21 -12 -33 -12q-11 0 -16 11.5t-5 48.5q0 41 8 60t29 30l30 16v234q0 29 17 37t68 8t68 -8t17 -37v-141l50 28q21 12 33 12q11 0 16 -11.5t5 -48.5q0 -41 -8 -60
t-29 -30l-67 -37v-149z" />
    <glyph glyph-name="lslash" unicode="&#x142;" horiz-adv-x="314" 
d="M155 0q-51 0 -68 8t-17 37v165l-15 -9q-21 -12 -33 -12q-11 0 -16 11.5t-5 48.5q0 41 8 59.5t29 30.5l32 19v257q0 29 17 37t68 8t68 -8t17 -37v-158l18 11q19 12 33 12q11 0 16 -11.5t5 -48.5q0 -41 -8 -59.5t-29 -30.5l-35 -21v-264q0 -29 -17 -37t-68 -8z" />
    <glyph glyph-name="Nacute" unicode="&#x143;" horiz-adv-x="567" 
d="M125 0q-51 0 -68 8t-17 37v540q0 29 17 37t68 8q35 0 54.5 -7.5t34.5 -35.5l135 -253h8v251q0 29 17 37t68 8t68 -8t17 -37v-540q0 -29 -15.5 -37t-65.5 -8q-33 0 -48.5 7t-31.5 35l-148 254h-8v-251q0 -29 -17 -37t-68 -8zM258 673q-37 0 -51.5 7t-14.5 23q0 21 7 49
l11 49q9 37 25.5 48t73.5 11q52 0 68.5 -7t16.5 -25t-19 -62l-22 -49q-11 -25 -28.5 -34.5t-66.5 -9.5z" />
    <glyph glyph-name="nacute" unicode="&#x144;" horiz-adv-x="522" 
d="M127 0q-51 0 -68 8t-17 37v206q0 87 -8 147l-9 59q0 21 15.5 29.5t62.5 8.5q43 0 56.5 -7t20.5 -34l12 -46q42 97 151 97q78 0 108.5 -33t30.5 -115v-312q0 -29 -17 -37t-68 -8t-68 8t-17 37v270q0 24 -7.5 34.5t-26.5 10.5q-37 0 -51.5 -33t-14.5 -119v-163
q0 -29 -17 -37t-68 -8zM237 538q-37 0 -51.5 7t-14.5 23q0 21 7 49l11 49q9 37 25.5 48t73.5 11q52 0 68.5 -7t16.5 -25t-19 -62l-22 -49q-11 -25 -28.5 -34.5t-66.5 -9.5z" />
    <glyph glyph-name="Ncommaaccent" unicode="&#x145;" horiz-adv-x="567" 
d="M125 0q-51 0 -68 8t-17 37v540q0 29 17 37t68 8q35 0 54.5 -7.5t34.5 -35.5l135 -253h8v251q0 29 17 37t68 8t68 -8t17 -37v-540q0 -29 -15.5 -37t-65.5 -8q-33 0 -48.5 7t-31.5 35l-148 254h-8v-251q0 -29 -17 -37t-68 -8zM249 -253q-29 0 -39 7t-10 22q0 10 5 52t5 63
q0 39 15.5 50t69.5 11q50 0 67.5 -9.5t17.5 -35.5q0 -39 -18 -73l-27 -49q-13 -23 -28 -30.5t-58 -7.5z" />
    <glyph glyph-name="ncommaaccent" unicode="&#x146;" horiz-adv-x="522" 
d="M127 0q-51 0 -68 8t-17 37v206q0 87 -8 147l-9 59q0 21 15.5 29.5t62.5 8.5q43 0 56.5 -7t20.5 -34l12 -46q42 97 151 97q78 0 108.5 -33t30.5 -115v-312q0 -29 -17 -37t-68 -8t-68 8t-17 37v270q0 24 -7.5 34.5t-26.5 10.5q-37 0 -51.5 -33t-14.5 -119v-163
q0 -29 -17 -37t-68 -8zM221 -253q-29 0 -39 7t-10 22q0 10 5 52t5 63q0 39 15.5 50t69.5 11q50 0 67.5 -9.5t17.5 -35.5q0 -39 -18 -73l-27 -49q-13 -23 -28 -30.5t-58 -7.5z" />
    <glyph glyph-name="Ncaron" unicode="&#x147;" horiz-adv-x="567" 
d="M125 0q-51 0 -68 8t-17 37v540q0 29 17 37t68 8q35 0 54.5 -7.5t34.5 -35.5l135 -253h8v251q0 29 17 37t68 8t68 -8t17 -37v-540q0 -29 -15.5 -37t-65.5 -8q-33 0 -48.5 7t-31.5 35l-148 254h-8v-251q0 -29 -17 -37t-68 -8zM118 831q0 29 50 29q35 0 51.5 -7t33.5 -29
l27 -35h6l26 35q16 22 33.5 29t52.5 7q50 0 50 -29q0 -15 -18 -46l-43 -79q-10 -18 -24 -25.5t-44 -7.5h-72q-30 0 -44 7.5t-24 25.5l-43 79q-18 31 -18 46z" />
    <glyph glyph-name="ncaron" unicode="&#x148;" horiz-adv-x="522" 
d="M127 0q-51 0 -68 8t-17 37v206q0 87 -8 147l-9 59q0 21 15.5 29.5t62.5 8.5q43 0 56.5 -7t20.5 -34l12 -46q42 97 151 97q78 0 108.5 -33t30.5 -115v-312q0 -29 -17 -37t-68 -8t-68 8t-17 37v270q0 24 -7.5 34.5t-26.5 10.5q-37 0 -51.5 -33t-14.5 -119v-163
q0 -29 -17 -37t-68 -8zM97 696q0 29 50 29q35 0 51.5 -7t33.5 -29l27 -35h6l26 35q16 22 33.5 29t52.5 7q50 0 50 -29q0 -15 -18 -46l-43 -79q-10 -18 -24 -25.5t-44 -7.5h-72q-30 0 -44 7.5t-24 25.5l-43 79q-18 31 -18 46z" />
    <glyph glyph-name="Eng" unicode="&#x14a;" horiz-adv-x="567" 
d="M396 -200q-54 0 -100 13q-19 5 -26.5 19.5t-7.5 51.5q0 42 6.5 53t20.5 11q5 0 21 -1.5t22 -1.5q14 0 19.5 5t5.5 18v89l-139 239h-8v-251q0 -29 -17 -37t-68 -8t-68 8t-17 37v540q0 29 17 37t68 8q35 0 54.5 -7.5t34.5 -35.5l135 -253h8v251q0 29 17 37t68 8t68 -8
t17 -37v-653q0 -132 -131 -132z" />
    <glyph glyph-name="eng" unicode="&#x14b;" horiz-adv-x="522" 
d="M127 0q-51 0 -68 8t-17 37v206q0 87 -8 147l-9 59q0 21 15.5 29.5t62.5 8.5q43 0 56.5 -7t20.5 -34l12 -46q42 97 151 97q78 0 108.5 -33t30.5 -115v-425q0 -132 -131 -132q-55 0 -100 13q-19 5 -26.5 19.5t-7.5 51.5q0 42 6.5 53t20.5 11q5 0 21 -1.5t22 -1.5
q14 0 19.5 5t5.5 18v347q0 24 -7.5 34.5t-26.5 10.5q-37 0 -51.5 -33t-14.5 -119v-163q0 -29 -17 -37t-68 -8z" />
    <glyph glyph-name="Omacron" unicode="&#x14c;" horiz-adv-x="536" 
d="M268 140q44 0 56 24.5t12 120.5v60q0 96 -12 120.5t-56 24.5t-56 -24.5t-12 -120.5v-60q0 -96 12 -120.5t56 -24.5zM268 -5q-53 0 -87 5t-65.5 21t-48.5 45.5t-27 78.5t-10 120v90q0 63 5.5 107.5t19 76t30.5 50.5t46 29t60 13.5t77 3.5t77 -3.5t60 -13.5t46 -29
t30.5 -50.5t19 -76t5.5 -107.5v-90q0 -71 -10 -120t-27 -78.5t-48.5 -45.5t-65.5 -21t-87 -5zM138 741q0 43 7 55.5t33 12.5h180q26 0 33 -12.5t7 -55.5t-7 -55.5t-33 -12.5h-180q-26 0 -33 12.5t-7 55.5z" />
    <glyph glyph-name="omacron" unicode="&#x14d;" horiz-adv-x="512" 
d="M248 -10q-84 0 -129 20t-67 75t-22 160q0 84 12 135.5t42.5 79t70.5 36.5t109 9q85 0 129 -18.5t66.5 -72.5t22.5 -159q0 -85 -12 -136.5t-42 -80.5t-71 -38.5t-109 -9.5zM253 130q38 0 47.5 21t9.5 97t-10.5 96.5t-41.5 20.5q-38 0 -47.5 -19t-9.5 -94q0 -77 11 -99.5
t41 -22.5zM126 606q0 43 7 55.5t33 12.5h180q26 0 33 -12.5t7 -55.5t-7 -55.5t-33 -12.5h-180q-26 0 -33 12.5t-7 55.5z" />
    <glyph glyph-name="Obreve" unicode="&#x14e;" horiz-adv-x="536" 
d="M268 140q44 0 56 24.5t12 120.5v60q0 96 -12 120.5t-56 24.5t-56 -24.5t-12 -120.5v-60q0 -96 12 -120.5t56 -24.5zM268 -5q-53 0 -87 5t-65.5 21t-48.5 45.5t-27 78.5t-10 120v90q0 63 5.5 107.5t19 76t30.5 50.5t46 29t60 13.5t77 3.5t77 -3.5t60 -13.5t46 -29
t30.5 -50.5t19 -76t5.5 -107.5v-90q0 -71 -10 -120t-27 -78.5t-48.5 -45.5t-65.5 -21t-87 -5zM268 673q-80 0 -116.5 30.5t-36.5 110.5q0 29 10.5 37t44.5 8q33 0 43 -6t13 -26q2 -19 9.5 -25.5t32.5 -6.5t32.5 6.5t9.5 25.5q3 20 13 26t43 6q34 0 44.5 -8t10.5 -37
q0 -80 -36.5 -110.5t-116.5 -30.5z" />
    <glyph glyph-name="obreve" unicode="&#x14f;" horiz-adv-x="512" 
d="M248 -10q-84 0 -129 20t-67 75t-22 160q0 84 12 135.5t42.5 79t70.5 36.5t109 9q85 0 129 -18.5t66.5 -72.5t22.5 -159q0 -85 -12 -136.5t-42 -80.5t-71 -38.5t-109 -9.5zM253 130q38 0 47.5 21t9.5 97t-10.5 96.5t-41.5 20.5q-38 0 -47.5 -19t-9.5 -94q0 -77 11 -99.5
t41 -22.5zM256 538q-80 0 -116.5 31t-36.5 110q0 29 10.5 37t44.5 8q33 0 43 -6t13 -26q2 -19 9.5 -25.5t32.5 -6.5t32.5 6.5t9.5 25.5q3 20 13 26t43 6q34 0 44.5 -8t10.5 -37q0 -79 -36.5 -110t-116.5 -31z" />
    <glyph glyph-name="Ohungarumlaut" unicode="&#x150;" horiz-adv-x="536" 
d="M268 140q44 0 56 24.5t12 120.5v60q0 96 -12 120.5t-56 24.5t-56 -24.5t-12 -120.5v-60q0 -96 12 -120.5t56 -24.5zM268 -5q-53 0 -87 5t-65.5 21t-48.5 45.5t-27 78.5t-10 120v90q0 63 5.5 107.5t19 76t30.5 50.5t46 29t60 13.5t77 3.5t77 -3.5t60 -13.5t46 -29
t30.5 -50.5t19 -76t5.5 -107.5v-90q0 -71 -10 -120t-27 -78.5t-48.5 -45.5t-65.5 -21t-87 -5zM103 703q0 14 18 126q3 19 18.5 25t68.5 6q45 0 62 -5q19 -6 19 -26q0 -19 -41 -123q-5 -12 -10.5 -18t-22.5 -10.5t-48 -4.5q-39 0 -51.5 6.5t-12.5 23.5zM294 703q0 10 37 129
q5 16 21 22t65 6q44 0 62 -6q20 -8 20 -25q0 -20 -59 -122q-12 -21 -26 -27.5t-60 -6.5q-36 0 -48 7t-12 23z" />
    <glyph glyph-name="ohungarumlaut" unicode="&#x151;" horiz-adv-x="512" 
d="M248 -10q-84 0 -129 20t-67 75t-22 160q0 84 12 135.5t42.5 79t70.5 36.5t109 9q85 0 129 -18.5t66.5 -72.5t22.5 -159q0 -85 -12 -136.5t-42 -80.5t-71 -38.5t-109 -9.5zM253 130q38 0 47.5 21t9.5 97t-10.5 96.5t-41.5 20.5q-38 0 -47.5 -19t-9.5 -94q0 -77 11 -99.5
t41 -22.5zM93 568q0 14 18 126q3 19 18.5 25t68.5 6q45 0 62 -5q19 -6 19 -26q0 -19 -41 -123q-5 -12 -10.5 -18t-22.5 -10.5t-48 -4.5q-39 0 -51.5 6.5t-12.5 23.5zM284 568q0 10 37 129q5 16 21 22t65 6q44 0 62 -6q20 -8 20 -25q0 -20 -59 -122q-12 -21 -26 -27.5
t-60 -6.5q-36 0 -48 7t-12 23z" />
    <glyph glyph-name="OE" unicode="&#x152;" horiz-adv-x="751" 
d="M268 -5q-53 0 -87 5t-65.5 21t-48.5 45.5t-27 78.5t-10 120v90q0 63 5.5 107.5t19 76t30.5 50.5t46 29t60 13.5t77 3.5q79 0 119 -15q13 10 44 10h255q23 0 31.5 -15t8.5 -59t-8.5 -59t-31.5 -15h-180v-82h110q26 0 33 -13.5t7 -59.5t-7 -59.5t-33 -13.5h-110v-106h190
q23 0 31.5 -15t8.5 -59t-8.5 -59t-31.5 -15h-265q-34 0 -45 11q-39 -16 -118 -16zM268 140q44 0 56 24.5t12 120.5v60q0 96 -12 120.5t-56 24.5t-56 -24.5t-12 -120.5v-60q0 -96 12 -120.5t56 -24.5z" />
    <glyph glyph-name="oe" unicode="&#x153;" horiz-adv-x="769" 
d="M248 -10q-84 0 -129 20t-67 75t-22 160q0 84 12 135.5t42.5 79t70.5 36.5t109 9q94 0 136 -25q43 25 135 25q124 0 164 -51.5t40 -181.5q0 -38 -12 -55t-46 -17h-201q4 -43 19 -54.5t57 -11.5q34 0 67.5 3t54.5 5.5t25 2.5q27 0 27 -68q0 -35 -7 -49t-22 -19
q-55 -19 -154 -19t-147 29q-44 -29 -152 -29zM253 130q38 0 47.5 21t9.5 97t-10.5 96.5t-41.5 20.5q-38 0 -47.5 -19t-9.5 -94q0 -77 11 -99.5t41 -22.5zM533 365q-32 0 -42.5 -11.5t-12.5 -56.5h104q0 43 -9 55.5t-40 12.5z" />
    <glyph glyph-name="Racute" unicode="&#x154;" horiz-adv-x="519" 
d="M125 0q-51 0 -68 8t-17 37v531q0 28 8 37.5t34 12.5q76 9 196 9q107 0 156.5 -42.5t49.5 -162.5q0 -128 -85 -175l82 -172q18 -38 18 -51q0 -32 -67 -32t-85 7t-30 40l-63 178h-44v-180q0 -29 -17 -37t-68 -8zM210 495v-155h33q38 0 52.5 16t14.5 63q0 78 -55 78
q-25 0 -45 -2zM224 673q-37 0 -51.5 7t-14.5 23q0 21 7 49l11 49q9 37 25.5 48t73.5 11q52 0 68.5 -7t16.5 -25t-19 -62l-22 -49q-11 -25 -28.5 -34.5t-66.5 -9.5z" />
    <glyph glyph-name="racute" unicode="&#x155;" horiz-adv-x="386" 
d="M127 0q-51 0 -68 8t-17 37v206q0 87 -8 147l-9 59q0 21 15.5 29.5t62.5 8.5q43 0 56.5 -7t20.5 -34l8 -30q38 76 121 76q27 0 45 -5q16 -5 22.5 -19.5t6.5 -58.5q0 -70 -30 -70q-2 0 -19.5 1.5t-32.5 1.5q-45 0 -67 -32.5t-22 -112.5v-160q0 -29 -17 -37t-68 -8zM158 538
q-37 0 -51.5 7t-14.5 23q0 21 7 49l11 49q9 37 25.5 48t73.5 11q52 0 68.5 -7t16.5 -25t-19 -62l-22 -49q-11 -25 -28.5 -34.5t-66.5 -9.5z" />
    <glyph glyph-name="Rcommaaccent" unicode="&#x156;" horiz-adv-x="519" 
d="M125 0q-51 0 -68 8t-17 37v531q0 28 8 37.5t34 12.5q76 9 196 9q107 0 156.5 -42.5t49.5 -162.5q0 -128 -85 -175l82 -172q18 -38 18 -51q0 -32 -67 -32t-85 7t-30 40l-63 178h-44v-180q0 -29 -17 -37t-68 -8zM210 495v-155h33q38 0 52.5 16t14.5 63q0 78 -55 78
q-25 0 -45 -2zM224 -253q-29 0 -39 7t-10 22q0 10 5 52t5 63q0 39 15.5 50t69.5 11q50 0 67.5 -9.5t17.5 -35.5q0 -39 -18 -73l-27 -49q-13 -23 -28 -30.5t-58 -7.5z" />
    <glyph glyph-name="rcommaaccent" unicode="&#x157;" horiz-adv-x="386" 
d="M127 0q-51 0 -68 8t-17 37v206q0 87 -8 147l-9 59q0 21 15.5 29.5t62.5 8.5q43 0 56.5 -7t20.5 -34l8 -30q38 76 121 76q27 0 45 -5q16 -5 22.5 -19.5t6.5 -58.5q0 -70 -30 -70q-2 0 -19.5 1.5t-32.5 1.5q-45 0 -67 -32.5t-22 -112.5v-160q0 -29 -17 -37t-68 -8zM83 -253
q-29 0 -39 7t-10 22q0 10 5 52t5 63q0 39 15.5 50t69.5 11q50 0 67.5 -9.5t17.5 -35.5q0 -39 -18 -73l-27 -49q-13 -23 -28 -30.5t-58 -7.5z" />
    <glyph glyph-name="Rcaron" unicode="&#x158;" horiz-adv-x="519" 
d="M125 0q-51 0 -68 8t-17 37v531q0 28 8 37.5t34 12.5q76 9 196 9q107 0 156.5 -42.5t49.5 -162.5q0 -128 -85 -175l82 -172q18 -38 18 -51q0 -32 -67 -32t-85 7t-30 40l-63 178h-44v-180q0 -29 -17 -37t-68 -8zM210 495v-155h33q38 0 52.5 16t14.5 63q0 78 -55 78
q-25 0 -45 -2zM94 831q0 29 50 29q35 0 51.5 -7t33.5 -29l27 -35h6l26 35q16 22 33.5 29t52.5 7q50 0 50 -29q0 -15 -18 -46l-43 -79q-10 -18 -24 -25.5t-44 -7.5h-72q-30 0 -44 7.5t-24 25.5l-43 79q-18 31 -18 46z" />
    <glyph glyph-name="rcaron" unicode="&#x159;" horiz-adv-x="386" 
d="M127 0q-51 0 -68 8t-17 37v206q0 87 -8 147l-9 59q0 21 15.5 29.5t62.5 8.5q43 0 56.5 -7t20.5 -34l8 -30q38 76 121 76q27 0 45 -5q16 -5 22.5 -19.5t6.5 -58.5q0 -70 -30 -70q-2 0 -19.5 1.5t-32.5 1.5q-45 0 -67 -32.5t-22 -112.5v-160q0 -29 -17 -37t-68 -8zM28 696
q0 29 50 29q35 0 51.5 -7t33.5 -29l27 -35h6l26 35q16 22 33.5 29t52.5 7q50 0 50 -29q0 -15 -18 -46l-43 -79q-10 -18 -24 -25.5t-44 -7.5h-72q-30 0 -44 7.5t-24 25.5l-43 79q-18 31 -18 46z" />
    <glyph glyph-name="Sacute" unicode="&#x15a;" horiz-adv-x="455" 
d="M195 -5q-76 0 -138 17q-19 6 -25.5 20t-6.5 58q0 39 5.5 52.5t19.5 13.5q5 0 41 -5.5t79 -5.5q49 0 73.5 10t24.5 40q0 20 -7.5 29.5t-37.5 22.5l-94 42q-95 42 -95 164q0 50 16 87t44 57t60.5 29t70.5 9q93 0 164 -19q13 -3 18.5 -17t5.5 -59q0 -66 -26 -66
q-3 0 -40.5 5.5t-78.5 5.5q-35 0 -53 -6.5t-18 -27.5q0 -11 5 -18t11 -10.5t21 -10.5l89 -39q56 -24 81.5 -59t25.5 -111q0 -208 -235 -208zM207 673q-37 0 -51.5 7t-14.5 23q0 21 7 49l11 49q9 37 25.5 48t73.5 11q52 0 68.5 -7t16.5 -25t-19 -62l-22 -49
q-11 -25 -28.5 -34.5t-66.5 -9.5z" />
    <glyph glyph-name="sacute" unicode="&#x15b;" horiz-adv-x="451" 
d="M206 -10q-90 0 -147 18q-15 5 -22 19.5t-7 49.5q0 68 27 68q1 0 46.5 -5.5t80.5 -5.5q65 0 65 22q0 14 -22 23l-93 40q-83 36 -83 134q0 44 17 75.5t46 47.5t58.5 22.5t63.5 6.5q86 0 151 -17q16 -4 22.5 -18t6.5 -55q0 -65 -30 -65q-4 0 -43 6.5t-69 6.5q-51 0 -51 -17
q0 -10 21 -19l90 -35q49 -19 68 -50t19 -82q0 -170 -215 -170zM215 538q-37 0 -51.5 7t-14.5 23q0 21 7 49l11 49q9 37 25.5 48t73.5 11q52 0 68.5 -7t16.5 -25t-19 -62l-22 -49q-11 -25 -28.5 -34.5t-66.5 -9.5z" />
    <glyph glyph-name="Scircumflex" unicode="&#x15c;" horiz-adv-x="455" 
d="M195 -5q-76 0 -138 17q-19 6 -25.5 20t-6.5 58q0 39 5.5 52.5t19.5 13.5q5 0 41 -5.5t79 -5.5q49 0 73.5 10t24.5 40q0 20 -7.5 29.5t-37.5 22.5l-94 42q-95 42 -95 164q0 50 16 87t44 57t60.5 29t70.5 9q93 0 164 -19q13 -3 18.5 -17t5.5 -59q0 -66 -26 -66
q-3 0 -40.5 5.5t-78.5 5.5q-35 0 -53 -6.5t-18 -27.5q0 -11 5 -18t11 -10.5t21 -10.5l89 -39q56 -24 81.5 -59t25.5 -111q0 -208 -235 -208zM235 744h-6l-26 -35q-16 -22 -33.5 -29t-52.5 -7q-50 0 -50 29q0 15 18 46l43 79q10 18 24 25.5t44 7.5h72q30 0 44 -7.5t24 -25.5
l43 -79q18 -31 18 -46q0 -29 -50 -29q-35 0 -51.5 7t-33.5 29z" />
    <glyph glyph-name="scircumflex" unicode="&#x15d;" horiz-adv-x="451" 
d="M206 -10q-90 0 -147 18q-15 5 -22 19.5t-7 49.5q0 68 27 68q1 0 46.5 -5.5t80.5 -5.5q65 0 65 22q0 14 -22 23l-93 40q-83 36 -83 134q0 44 17 75.5t46 47.5t58.5 22.5t63.5 6.5q86 0 151 -17q16 -4 22.5 -18t6.5 -55q0 -65 -30 -65q-4 0 -43 6.5t-69 6.5q-51 0 -51 -17
q0 -10 21 -19l90 -35q49 -19 68 -50t19 -82q0 -170 -215 -170zM243 609h-6l-26 -35q-16 -22 -33.5 -29t-52.5 -7q-50 0 -50 29q0 15 18 46l43 79q10 18 24 25.5t44 7.5h72q30 0 44 -7.5t24 -25.5l43 -79q18 -31 18 -46q0 -29 -50 -29q-35 0 -51.5 7t-33.5 29z" />
    <glyph glyph-name="Scedilla" unicode="&#x15e;" horiz-adv-x="455" 
d="M218 -250q-44 0 -75 7q-18 4 -25 14.5t-7 44.5t7.5 46t22.5 12q6 0 26 -2.5t31 -2.5q16 0 16 8t-24 18q-23 9 -30.5 22t-7.5 45v35q-60 5 -95 15q-19 6 -25.5 20t-6.5 58q0 39 5.5 52.5t19.5 13.5q5 0 41 -5.5t79 -5.5q49 0 73.5 10t24.5 40q0 20 -7.5 29.5t-37.5 22.5
l-94 42q-95 42 -95 164q0 50 16 87t44 57t60.5 29t70.5 9q93 0 164 -19q13 -3 18.5 -17t5.5 -59q0 -66 -26 -66q-3 0 -40.5 5.5t-78.5 5.5q-35 0 -53 -6.5t-18 -27.5q0 -11 5 -18t11 -10.5t21 -10.5l89 -39q56 -24 81.5 -59t25.5 -111q0 -170 -160 -202v-19q0 -10 13 -16
q41 -20 55.5 -41t14.5 -63q0 -58 -33.5 -85t-101.5 -27z" />
    <glyph glyph-name="scedilla" unicode="&#x15f;" horiz-adv-x="451" 
d="M224 -250q-44 0 -75 7q-18 4 -25 14.5t-7 44.5t7.5 46t22.5 12q6 0 26 -2.5t31 -2.5q16 0 16 8t-24 18q-23 9 -30.5 22t-7.5 45v30q-67 5 -99 16q-15 5 -22 19.5t-7 49.5q0 68 27 68q1 0 46.5 -5.5t80.5 -5.5q65 0 65 22q0 14 -22 23l-93 40q-83 36 -83 134q0 44 17 75.5
t46 47.5t58.5 22.5t63.5 6.5q86 0 151 -17q16 -4 22.5 -18t6.5 -55q0 -65 -30 -65q-4 0 -43 6.5t-69 6.5q-51 0 -51 -17q0 -10 21 -19l90 -35q49 -19 68 -50t19 -82q0 -139 -145 -164v-14q0 -10 13 -16q41 -20 55.5 -41t14.5 -63q0 -58 -33.5 -85t-101.5 -27z" />
    <glyph glyph-name="Scaron" unicode="&#x160;" horiz-adv-x="455" 
d="M195 -5q-76 0 -138 17q-19 6 -25.5 20t-6.5 58q0 39 5.5 52.5t19.5 13.5q5 0 41 -5.5t79 -5.5q49 0 73.5 10t24.5 40q0 20 -7.5 29.5t-37.5 22.5l-94 42q-95 42 -95 164q0 50 16 87t44 57t60.5 29t70.5 9q93 0 164 -19q13 -3 18.5 -17t5.5 -59q0 -66 -26 -66
q-3 0 -40.5 5.5t-78.5 5.5q-35 0 -53 -6.5t-18 -27.5q0 -11 5 -18t11 -10.5t21 -10.5l89 -39q56 -24 81.5 -59t25.5 -111q0 -208 -235 -208zM67 831q0 29 50 29q35 0 51.5 -7t33.5 -29l27 -35h6l26 35q16 22 33.5 29t52.5 7q50 0 50 -29q0 -15 -18 -46l-43 -79
q-10 -18 -24 -25.5t-44 -7.5h-72q-30 0 -44 7.5t-24 25.5l-43 79q-18 31 -18 46z" />
    <glyph glyph-name="scaron" unicode="&#x161;" horiz-adv-x="451" 
d="M206 -10q-90 0 -147 18q-15 5 -22 19.5t-7 49.5q0 68 27 68q1 0 46.5 -5.5t80.5 -5.5q65 0 65 22q0 14 -22 23l-93 40q-83 36 -83 134q0 44 17 75.5t46 47.5t58.5 22.5t63.5 6.5q86 0 151 -17q16 -4 22.5 -18t6.5 -55q0 -65 -30 -65q-4 0 -43 6.5t-69 6.5q-51 0 -51 -17
q0 -10 21 -19l90 -35q49 -19 68 -50t19 -82q0 -170 -215 -170zM75 696q0 29 50 29q35 0 51.5 -7t33.5 -29l27 -35h6l26 35q16 22 33.5 29t52.5 7q50 0 50 -29q0 -15 -18 -46l-43 -79q-10 -18 -24 -25.5t-44 -7.5h-72q-30 0 -44 7.5t-24 25.5l-43 79q-18 31 -18 46z" />
    <glyph glyph-name="Tcommaaccent" unicode="&#x162;" horiz-adv-x="458" 
d="M229 0q-51 0 -68 8t-17 37v437h-94q-23 0 -31.5 15t-8.5 59t8.5 59t31.5 15h358q23 0 31.5 -15t8.5 -59t-8.5 -59t-31.5 -15h-94v-437q0 -29 -17 -37t-68 -8zM187 -253q-29 0 -39 7t-10 22q0 10 5 52t5 63q0 39 15.5 50t69.5 11q50 0 67.5 -9.5t17.5 -35.5q0 -39 -18 -73
l-27 -49q-13 -23 -28 -30.5t-58 -7.5z" />
    <glyph glyph-name="tcommaaccent" unicode="&#x163;" horiz-adv-x="350" 
d="M195 -10q-64 0 -94.5 28.5t-30.5 103.5v238h-30q-19 0 -24.5 12.5t-5.5 52.5t5.5 52.5t24.5 12.5h30v65q0 29 17 37t68 8t68 -8t17 -37v-65h60q19 0 24.5 -12.5t5.5 -52.5t-5.5 -52.5t-24.5 -12.5h-60v-204q0 -9 4.5 -13t18.5 -4q9 0 22 2t18 2q14 0 20.5 -11.5
t6.5 -49.5q0 -36 -6.5 -50.5t-22.5 -21.5q-43 -20 -106 -20zM142 -253q-29 0 -39 7t-10 22q0 10 5 52t5 63q0 39 15.5 50t69.5 11q50 0 67.5 -9.5t17.5 -35.5q0 -39 -18 -73l-27 -49q-13 -23 -28 -30.5t-58 -7.5z" />
    <glyph glyph-name="Tcaron" unicode="&#x164;" horiz-adv-x="458" 
d="M229 0q-51 0 -68 8t-17 37v437h-94q-23 0 -31.5 15t-8.5 59t8.5 59t31.5 15h358q23 0 31.5 -15t8.5 -59t-8.5 -59t-31.5 -15h-94v-437q0 -29 -17 -37t-68 -8zM64 831q0 29 50 29q35 0 51.5 -7t33.5 -29l27 -35h6l26 35q16 22 33.5 29t52.5 7q50 0 50 -29q0 -15 -18 -46
l-43 -79q-10 -18 -24 -25.5t-44 -7.5h-72q-30 0 -44 7.5t-24 25.5l-43 79q-18 31 -18 46z" />
    <glyph glyph-name="tcaron" unicode="&#x165;" horiz-adv-x="533" 
d="M452 660q54 0 69.5 -11t15.5 -50v-26q0 -51 -24 -112l-13 -32q-17 -42 -33.5 -53t-62.5 -11q-29 0 -39 7t-10 22q0 10 6 57t6 70v78q0 39 15.5 50t69.5 11zM195 -10q-64 0 -94.5 28.5t-30.5 103.5v238h-30q-19 0 -24.5 12.5t-5.5 52.5t5.5 52.5t24.5 12.5h30v65
q0 29 17 37t68 8t68 -8t17 -37v-65h60q19 0 24.5 -12.5t5.5 -52.5t-5.5 -52.5t-24.5 -12.5h-60v-204q0 -9 4.5 -13t18.5 -4q9 0 22 2t18 2q14 0 20.5 -11.5t6.5 -49.5q0 -36 -6.5 -50.5t-22.5 -21.5q-43 -20 -106 -20z" />
    <glyph glyph-name="Tbar" unicode="&#x166;" horiz-adv-x="458" 
d="M229 0q-51 0 -68 8t-17 37v193h-65q-26 0 -33 11t-7 47t7 47t33 11h65v128h-94q-23 0 -31.5 15t-8.5 59t8.5 59t31.5 15h358q23 0 31.5 -15t8.5 -59t-8.5 -59t-31.5 -15h-94v-128h65q26 0 33 -11t7 -47t-7 -47t-33 -11h-65v-193q0 -29 -17 -37t-68 -8z" />
    <glyph glyph-name="tbar" unicode="&#x167;" horiz-adv-x="350" 
d="M195 -10q-64 0 -94.5 28.5t-30.5 103.5v65h-30q-19 0 -24.5 12.5t-5.5 52.5t5.5 52.5t24.5 12.5h30v43h-30q-19 0 -24.5 12.5t-5.5 52.5t5.5 52.5t24.5 12.5h30v65q0 29 17 37t68 8t68 -8t17 -37v-65h60q19 0 24.5 -12.5t5.5 -52.5t-5.5 -52.5t-24.5 -12.5h-60v-43h60
q19 0 24.5 -12.5t5.5 -52.5t-5.5 -52.5t-24.5 -12.5h-60v-31q0 -9 4.5 -13t18.5 -4q9 0 22 2t18 2q14 0 20.5 -11.5t6.5 -49.5q0 -36 -6.5 -50.5t-22.5 -21.5q-43 -20 -106 -20z" />
    <glyph glyph-name="Utilde" unicode="&#x168;" horiz-adv-x="536" 
d="M268 -5q-128 0 -178 44t-50 156v390q0 29 17 37t68 8t68 -8t17 -37v-400q0 -32 10.5 -41t47.5 -9t47.5 9t10.5 41v400q0 29 17 37t68 8t68 -8t17 -37v-390q0 -112 -50 -156t-178 -44zM105 729q0 34 5.5 47.5t22.5 24.5q33 21 74 21q30 0 70 -9.5t59 -9.5q22 0 45 6.5
t28 6.5q13 0 17 -10t4 -45q0 -34 -5.5 -47.5t-22.5 -24.5q-33 -21 -74 -21q-30 0 -70 9.5t-59 9.5q-23 0 -46 -6.5t-27 -6.5q-13 0 -17 10t-4 45z" />
    <glyph glyph-name="utilde" unicode="&#x169;" horiz-adv-x="515" 
d="M171 -10q-73 0 -104.5 29.5t-31.5 108.5v322q0 29 17 37t68 8t68 -8t17 -37v-278q0 -23 7 -30t27 -7q37 0 50.5 32.5t13.5 119.5v163q0 29 17 37t68 8t68 -8t17 -37v-206q0 -87 9 -146l8 -60q0 -21 -15.5 -29.5t-62.5 -8.5q-43 0 -56.5 7t-20.5 34l-10 38
q-41 -89 -154 -89zM93 605q0 34 5.5 47.5t22.5 24.5q33 21 74 21q30 0 70 -9.5t59 -9.5q22 0 45 6.5t28 6.5q13 0 17 -10t4 -45q0 -34 -5.5 -47.5t-22.5 -24.5q-33 -21 -74 -21q-30 0 -70 9.5t-59 9.5q-23 0 -46 -6.5t-27 -6.5q-13 0 -17 10t-4 45z" />
    <glyph glyph-name="Umacron" unicode="&#x16a;" horiz-adv-x="536" 
d="M268 -5q-128 0 -178 44t-50 156v390q0 29 17 37t68 8t68 -8t17 -37v-400q0 -32 10.5 -41t47.5 -9t47.5 9t10.5 41v400q0 29 17 37t68 8t68 -8t17 -37v-390q0 -112 -50 -156t-178 -44zM138 741q0 43 7 55.5t33 12.5h180q26 0 33 -12.5t7 -55.5t-7 -55.5t-33 -12.5h-180
q-26 0 -33 12.5t-7 55.5z" />
    <glyph glyph-name="umacron" unicode="&#x16b;" horiz-adv-x="515" 
d="M171 -10q-73 0 -104.5 29.5t-31.5 108.5v322q0 29 17 37t68 8t68 -8t17 -37v-278q0 -23 7 -30t27 -7q37 0 50.5 32.5t13.5 119.5v163q0 29 17 37t68 8t68 -8t17 -37v-206q0 -87 9 -146l8 -60q0 -21 -15.5 -29.5t-62.5 -8.5q-43 0 -56.5 7t-20.5 34l-10 38
q-41 -89 -154 -89zM125 606q0 43 7 55.5t33 12.5h180q26 0 33 -12.5t7 -55.5t-7 -55.5t-33 -12.5h-180q-26 0 -33 12.5t-7 55.5z" />
    <glyph glyph-name="Ubreve" unicode="&#x16c;" horiz-adv-x="536" 
d="M268 -5q-128 0 -178 44t-50 156v390q0 29 17 37t68 8t68 -8t17 -37v-400q0 -32 10.5 -41t47.5 -9t47.5 9t10.5 41v400q0 29 17 37t68 8t68 -8t17 -37v-390q0 -112 -50 -156t-178 -44zM268 668q-80 0 -116.5 31t-36.5 110q0 29 10.5 37t44.5 8q33 0 43 -6t13 -26
q2 -19 9.5 -25.5t32.5 -6.5t32.5 6.5t9.5 25.5q3 20 13 26t43 6q34 0 44.5 -8t10.5 -37q0 -79 -36.5 -110t-116.5 -31z" />
    <glyph glyph-name="ubreve" unicode="&#x16d;" horiz-adv-x="515" 
d="M171 -10q-73 0 -104.5 29.5t-31.5 108.5v322q0 29 17 37t68 8t68 -8t17 -37v-278q0 -23 7 -30t27 -7q37 0 50.5 32.5t13.5 119.5v163q0 29 17 37t68 8t68 -8t17 -37v-206q0 -87 9 -146l8 -60q0 -21 -15.5 -29.5t-62.5 -8.5q-43 0 -56.5 7t-20.5 34l-10 38
q-41 -89 -154 -89zM255 538q-80 0 -116.5 31t-36.5 110q0 29 10.5 37t44.5 8q33 0 43 -6t13 -26q2 -19 9.5 -25.5t32.5 -6.5t32.5 6.5t9.5 25.5q3 20 13 26t43 6q34 0 44.5 -8t10.5 -37q0 -79 -36.5 -110t-116.5 -31z" />
    <glyph glyph-name="Uring" unicode="&#x16e;" horiz-adv-x="536" 
d="M268 -5q-128 0 -178 44t-50 156v390q0 29 17 37t68 8t68 -8t17 -37v-400q0 -32 10.5 -41t47.5 -9t47.5 9t10.5 41v400q0 29 17 37t68 8t68 -8t17 -37v-390q0 -112 -50 -156t-178 -44zM267 767q26 0 32.5 5.5t6.5 22.5t-6.5 22.5t-32.5 5.5q-25 0 -31.5 -5.5t-6.5 -22.5
t6.5 -22.5t31.5 -5.5zM267 668q-78 0 -114 25.5t-36 101.5t36 101.5t114 25.5q79 0 115 -25.5t36 -101.5t-36 -101.5t-115 -25.5z" />
    <glyph glyph-name="uring" unicode="&#x16f;" horiz-adv-x="515" 
d="M171 -10q-73 0 -104.5 29.5t-31.5 108.5v322q0 29 17 37t68 8t68 -8t17 -37v-278q0 -23 7 -30t27 -7q37 0 50.5 32.5t13.5 119.5v163q0 29 17 37t68 8t68 -8t17 -37v-206q0 -87 9 -146l8 -60q0 -21 -15.5 -29.5t-62.5 -8.5q-43 0 -56.5 7t-20.5 34l-10 38
q-41 -89 -154 -89zM255 637q26 0 32.5 5.5t6.5 22.5t-6.5 22.5t-32.5 5.5q-25 0 -31.5 -5.5t-6.5 -22.5t6.5 -22.5t31.5 -5.5zM255 538q-78 0 -114 25.5t-36 101.5t36 101.5t114 25.5q79 0 115 -25.5t36 -101.5t-36 -101.5t-115 -25.5z" />
    <glyph glyph-name="Uhungarumlaut" unicode="&#x170;" horiz-adv-x="536" 
d="M268 -5q-128 0 -178 44t-50 156v390q0 29 17 37t68 8t68 -8t17 -37v-400q0 -32 10.5 -41t47.5 -9t47.5 9t10.5 41v400q0 29 17 37t68 8t68 -8t17 -37v-390q0 -112 -50 -156t-178 -44zM110 703q0 14 18 126q3 19 18.5 25t68.5 6q45 0 62 -5q19 -6 19 -26q0 -19 -41 -123
q-5 -12 -10.5 -18t-22.5 -10.5t-48 -4.5q-39 0 -51.5 6.5t-12.5 23.5zM301 703q0 10 37 129q5 16 21 22t65 6q44 0 62 -6q20 -8 20 -25q0 -20 -59 -122q-12 -21 -26 -27.5t-60 -6.5q-36 0 -48 7t-12 23z" />
    <glyph glyph-name="uhungarumlaut" unicode="&#x171;" horiz-adv-x="515" 
d="M171 -10q-73 0 -104.5 29.5t-31.5 108.5v322q0 29 17 37t68 8t68 -8t17 -37v-278q0 -23 7 -30t27 -7q37 0 50.5 32.5t13.5 119.5v163q0 29 17 37t68 8t68 -8t17 -37v-206q0 -87 9 -146l8 -60q0 -21 -15.5 -29.5t-62.5 -8.5q-43 0 -56.5 7t-20.5 34l-10 38
q-41 -89 -154 -89zM86 568q0 14 18 126q3 19 18.5 25t68.5 6q45 0 62 -5q19 -6 19 -26q0 -19 -41 -123q-5 -12 -10.5 -18t-22.5 -10.5t-48 -4.5q-39 0 -51.5 6.5t-12.5 23.5zM277 568q0 10 37 129q5 16 21 22t65 6q44 0 62 -6q20 -8 20 -25q0 -20 -59 -122
q-12 -21 -26 -27.5t-60 -6.5q-36 0 -48 7t-12 23z" />
    <glyph glyph-name="Uogonek" unicode="&#x172;" horiz-adv-x="536" 
d="M398 8q-47 -25 -64 -39.5t-17 -27.5q0 -12 10 -12q3 0 12 1t14 1q15 0 21.5 -10.5t6.5 -42.5q0 -35 -7 -46t-27 -18q-40 -14 -91 -14q-46 0 -69 17.5t-23 64.5q0 68 59 115q-101 6 -142 50.5t-41 147.5v390q0 29 17 37t68 8t68 -8t17 -37v-400q0 -32 10.5 -41t47.5 -9
t47.5 9t10.5 41v400q0 29 17 37t68 8t68 -8t17 -37v-390q0 -74 -20.5 -115.5t-77.5 -71.5z" />
    <glyph glyph-name="uogonek" unicode="&#x173;" horiz-adv-x="515" 
d="M365 -200q-46 0 -69 17.5t-23 64.5q0 39 16.5 67t58.5 63q-9 9 -13 29l-10 38q-41 -89 -154 -89q-73 0 -104.5 29.5t-31.5 108.5v322q0 29 17 37t68 8t68 -8t17 -37v-278q0 -23 7 -30t27 -7q37 0 50.5 32.5t13.5 119.5v163q0 29 17 37t68 8t68 -8t17 -37v-206
q0 -87 9 -146l8 -60q0 -21 -26 -46q-38 -38 -38 -51q0 -12 10 -12q3 0 12 1t14 1q15 0 21.5 -10.5t6.5 -42.5q0 -35 -7 -46t-27 -18q-40 -14 -91 -14z" />
    <glyph glyph-name="Wcircumflex" unicode="&#x174;" horiz-adv-x="814" 
d="M217 0q-74 0 -104 13t-36 57l-63 470q-4 38 -4 51q0 23 14.5 31t66.5 8q57 0 76 -9t22 -41l37 -424h11l67 414q5 31 27 40.5t76 9.5t76 -9.5t27 -40.5l67 -414h11l37 424q3 32 22 41t76 9q52 0 66.5 -8t14.5 -31q0 -13 -4 -51l-63 -470q-6 -44 -36 -57t-104 -13
q-71 0 -103 15t-38 59l-44 297h-10l-44 -297q-6 -44 -38 -59t-103 -15zM410 744h-6l-26 -35q-16 -22 -33.5 -29t-52.5 -7q-50 0 -50 29q0 15 18 46l43 79q10 18 24 25.5t44 7.5h72q30 0 44 -7.5t24 -25.5l43 -79q18 -31 18 -46q0 -29 -50 -29q-35 0 -51.5 7t-33.5 29z" />
    <glyph glyph-name="wcircumflex" unicode="&#x175;" horiz-adv-x="726" 
d="M193 0q-74 0 -99.5 12t-30.5 48l-48 335q-5 38 -5 53q0 29 14.5 38t70.5 9q55 0 72 -8t19 -36l27 -300h13l42 292q4 25 24 33.5t71 8.5t71 -8.5t24 -33.5l42 -292h13l27 300q2 28 19 36t72 8q56 0 70.5 -9t14.5 -38q0 -15 -5 -53l-48 -335q-5 -36 -30.5 -48t-99.5 -12
q-78 0 -107.5 12.5t-34.5 47.5l-23 164h-10l-23 -164q-5 -35 -34.5 -47.5t-107.5 -12.5zM366 609h-6l-26 -35q-16 -22 -33.5 -29t-52.5 -7q-50 0 -50 29q0 15 18 46l43 79q10 18 24 25.5t44 7.5h72q30 0 44 -7.5t24 -25.5l43 -79q18 -31 18 -46q0 -29 -50 -29q-35 0 -51.5 7
t-33.5 29z" />
    <glyph glyph-name="Ycircumflex" unicode="&#x176;" horiz-adv-x="506" 
d="M253 0q-51 0 -68 8t-17 37v170l-136 307q-23 53 -23 70q0 38 72 38q64 0 83 -9t29 -41l57 -192h6l57 192q10 33 27.5 41.5t79.5 8.5q77 0 77 -36q0 -19 -23 -72l-136 -307v-170q0 -29 -17 -37t-68 -8zM256 744h-6l-26 -35q-16 -22 -33.5 -29t-52.5 -7q-50 0 -50 29
q0 15 18 46l43 79q10 18 24 25.5t44 7.5h72q30 0 44 -7.5t24 -25.5l43 -79q18 -31 18 -46q0 -29 -50 -29q-35 0 -51.5 7t-33.5 29z" />
    <glyph glyph-name="ycircumflex" unicode="&#x177;" horiz-adv-x="499" 
d="M10 454q0 21 16.5 31t71.5 10q54 0 71 -8t21 -36l46 -314h14l58 314q5 28 22 36t69 8q55 0 72.5 -9t17.5 -31q0 -19 -23 -111l-93 -362q-29 -111 -69 -146.5t-140 -35.5q-75 0 -124 19q-16 6 -22.5 19.5t-6.5 48.5q0 68 27 68q1 0 36.5 -5.5t70.5 -5.5q45 0 59 9t19 33
l2 14h-14q-63 0 -84.5 13t-29.5 47l-64 275q-23 98 -23 119zM252 609h-6l-26 -35q-16 -22 -33.5 -29t-52.5 -7q-50 0 -50 29q0 15 18 46l43 79q10 18 24 25.5t44 7.5h72q30 0 44 -7.5t24 -25.5l43 -79q18 -31 18 -46q0 -29 -50 -29q-35 0 -51.5 7t-33.5 29z" />
    <glyph glyph-name="Ydieresis" unicode="&#x178;" horiz-adv-x="506" 
d="M253 0q-51 0 -68 8t-17 37v170l-136 307q-23 53 -23 70q0 38 72 38q64 0 83 -9t29 -41l57 -192h6l57 192q10 33 27.5 41.5t79.5 8.5q77 0 77 -36q0 -19 -23 -72l-136 -307v-170q0 -29 -17 -37t-68 -8zM153 668q-55 0 -70 11.5t-15 50.5v8q0 39 15 50.5t70 11.5t70 -11.5
t15 -50.5v-8q0 -39 -15 -50.5t-70 -11.5zM353 668q-55 0 -70 11.5t-15 50.5v8q0 39 15 50.5t70 11.5t70 -11.5t15 -50.5v-8q0 -39 -15 -50.5t-70 -11.5z" />
    <glyph glyph-name="Zacute" unicode="&#x179;" horiz-adv-x="424" 
d="M208 482h-143q-23 0 -31.5 15t-8.5 59t8.5 59t31.5 15h301q25 0 32.5 -13t7.5 -53q0 -36 -36 -106l-162 -310h166q23 0 31.5 -15t8.5 -59t-8.5 -59t-31.5 -15h-324q-25 0 -32.5 13t-7.5 53q0 35 41 113zM197 673q-37 0 -51.5 7t-14.5 23q0 21 7 49l11 49q9 37 25.5 48
t73.5 11q52 0 68.5 -7t16.5 -25t-19 -62l-22 -49q-11 -25 -28.5 -34.5t-66.5 -9.5z" />
    <glyph glyph-name="zacute" unicode="&#x17a;" horiz-adv-x="407" 
d="M392 71q0 -71 -30 -71h-322q-18 0 -24 15t-6 48q0 42 8.5 66.5t37.5 57.5l146 166h-142q-30 0 -30 71t30 71h302q30 0 30 -63q0 -70 -33 -108l-159 -182h162q30 0 30 -71zM195 538q-37 0 -51.5 7t-14.5 23q0 21 7 49l11 49q9 37 25.5 48t73.5 11q52 0 68.5 -7t16.5 -25
t-19 -62l-22 -49q-11 -25 -28.5 -34.5t-66.5 -9.5z" />
    <glyph glyph-name="Zdotaccent" unicode="&#x17b;" horiz-adv-x="424" 
d="M208 482h-143q-23 0 -31.5 15t-8.5 59t8.5 59t31.5 15h301q25 0 32.5 -13t7.5 -53q0 -36 -36 -106l-162 -310h166q23 0 31.5 -15t8.5 -59t-8.5 -59t-31.5 -15h-324q-25 0 -32.5 13t-7.5 53q0 35 41 113zM212 668q-61 0 -75.5 11.5t-14.5 50.5v8q0 39 14.5 50.5t75.5 11.5
t75.5 -11.5t14.5 -50.5v-8q0 -39 -14.5 -50.5t-75.5 -11.5z" />
    <glyph glyph-name="zdotaccent" unicode="&#x17c;" horiz-adv-x="407" 
d="M392 71q0 -71 -30 -71h-322q-18 0 -24 15t-6 48q0 42 8.5 66.5t37.5 57.5l146 166h-142q-30 0 -30 71t30 71h302q30 0 30 -63q0 -70 -33 -108l-159 -182h162q30 0 30 -71zM219 528q-61 0 -75.5 11.5t-14.5 50.5v8q0 39 14.5 50.5t75.5 11.5t75.5 -11.5t14.5 -50.5v-8
q0 -39 -14.5 -50.5t-75.5 -11.5z" />
    <glyph glyph-name="Zcaron" unicode="&#x17d;" horiz-adv-x="424" 
d="M208 482h-143q-23 0 -31.5 15t-8.5 59t8.5 59t31.5 15h301q25 0 32.5 -13t7.5 -53q0 -36 -36 -106l-162 -310h166q23 0 31.5 -15t8.5 -59t-8.5 -59t-31.5 -15h-324q-25 0 -32.5 13t-7.5 53q0 35 41 113zM47 831q0 29 50 29q35 0 51.5 -7t33.5 -29l27 -35h6l26 35
q16 22 33.5 29t52.5 7q50 0 50 -29q0 -15 -18 -46l-43 -79q-10 -18 -24 -25.5t-44 -7.5h-72q-30 0 -44 7.5t-24 25.5l-43 79q-18 31 -18 46z" />
    <glyph glyph-name="zcaron" unicode="&#x17e;" horiz-adv-x="407" 
d="M392 71q0 -71 -30 -71h-322q-18 0 -24 15t-6 48q0 42 8.5 66.5t37.5 57.5l146 166h-142q-30 0 -30 71t30 71h302q30 0 30 -63q0 -70 -33 -108l-159 -182h162q30 0 30 -71zM54 696q0 29 50 29q35 0 51.5 -7t33.5 -29l27 -35h6l26 35q16 22 33.5 29t52.5 7q50 0 50 -29
q0 -15 -18 -46l-43 -79q-10 -18 -24 -25.5t-44 -7.5h-72q-30 0 -44 7.5t-24 25.5l-43 79q-18 31 -18 46z" />
    <glyph glyph-name="florin" unicode="&#x192;" 
d="M80 365q0 38 5.5 50t24.5 12h56l14 86q12 73 43.5 97.5t96.5 24.5q52 0 100 -10q19 -4 24.5 -15t5.5 -47q0 -66 -27 -66q-4 0 -23 1.5t-34 1.5q-14 0 -19 -5.5t-7 -19.5l-8 -48h48q19 0 24.5 -12t5.5 -50t-5.5 -50t-24.5 -12h-66l-29 -191q-11 -73 -45 -97.5t-100 -24.5
q-42 0 -90 10q-19 4 -24.5 15t-5.5 47q0 66 27 66q4 0 18 -1.5t29 -1.5q14 0 19 5.5t7 19.5l25 153h-35q-19 0 -24.5 12t-5.5 50z" />
    <glyph glyph-name="AEacute" unicode="&#x1fc;" horiz-adv-x="736" 
d="M91 0q-52 0 -66.5 8t-14.5 31q0 16 8 51l101 460q12 52 41 66t118 14h393q23 0 31.5 -15t8.5 -59t-8.5 -59t-31.5 -15h-170v-82h100q26 0 33 -13.5t7 -59.5t-7 -59.5t-33 -13.5h-100v-106h180q23 0 31.5 -15t8.5 -59t-8.5 -59t-31.5 -15h-305q-26 0 -35.5 7.5t-9.5 32.5
v100h-126l-17 -90q-6 -32 -23.5 -41t-73.5 -9zM271 492l-43 -227h103v227h-60zM383 673q-37 0 -51.5 7t-14.5 23q0 21 7 49l11 49q9 37 25.5 48t73.5 11q52 0 68.5 -7t16.5 -25t-19 -62l-22 -49q-11 -25 -28.5 -34.5t-66.5 -9.5z" />
    <glyph glyph-name="aeacute" unicode="&#x1fd;" horiz-adv-x="736" 
d="M482 -10q-114 0 -148 36q-22 24 -33 73q-29 -109 -152 -109q-66 0 -97.5 36.5t-31.5 116.5q0 84 44.5 121.5t159.5 37.5h54v6q0 21 -2.5 32t-12 16t-18.5 6t-31 1q-39 0 -84.5 -6.5t-52.5 -6.5q-29 0 -29 68q0 34 6.5 48t24.5 20q53 19 160 19q104 0 144 -26
q49 26 135 26q112 0 150 -52t38 -181q0 -38 -12 -55t-46 -17h-201q4 -43 19 -54.5t57 -11.5q34 0 67.5 3t54.5 5.5t25 2.5q27 0 27 -68q0 -35 -7 -49t-22 -19q-24 -8 -83.5 -13.5t-102.5 -5.5zM217 122q61 0 61 75v11l-50 -1q-28 -1 -38 -10.5t-10 -34.5q0 -24 8 -32t29 -8z
M500 365q-32 0 -42.5 -11.5t-12.5 -56.5h104q0 43 -9 55.5t-40 12.5zM361 538q-37 0 -51.5 7t-14.5 23q0 21 7 49l11 49q9 37 25.5 48t73.5 11q52 0 68.5 -7t16.5 -25t-19 -62l-22 -49q-11 -25 -28.5 -34.5t-66.5 -9.5z" />
    <glyph glyph-name="Oslashacute" unicode="&#x1fe;" horiz-adv-x="536" 
d="M268 -5q-53 0 -87 5t-65.5 21t-48.5 45.5t-27 78.5t-10 120v90q0 63 5.5 107.5t19 76t30.5 50.5t46 29t60 13.5t77 3.5t77 -3.5t60 -13.5t46 -29t30.5 -50.5t19 -76t5.5 -107.5v-90q0 -71 -10 -120t-27 -78.5t-48.5 -45.5t-65.5 -21t-87 -5zM268 140q44 0 56 24.5
t12 120.5v16l-131 -114q5 -29 18.5 -38t44.5 -9zM200 345v-12l130 112q-6 27 -19.5 36t-42.5 9q-44 0 -56 -24.5t-12 -120.5zM238 673q-37 0 -51.5 7t-14.5 23q0 21 7 49l11 49q9 37 25.5 48t73.5 11q52 0 68.5 -7t16.5 -25t-19 -62l-22 -49q-11 -25 -28.5 -34.5t-66.5 -9.5
z" />
    <glyph glyph-name="oslashacute" unicode="&#x1ff;" horiz-adv-x="512" 
d="M231 538q-37 0 -51.5 7t-14.5 23q0 21 7 49l11 49q9 37 25.5 48t73.5 11q52 0 68.5 -7t16.5 -25t-19 -62l-22 -49q-11 -25 -28.5 -34.5t-66.5 -9.5zM248 -10q-84 0 -129 20t-67 75t-22 160q0 84 12 135.5t42.5 79t70.5 36.5t109 9q85 0 129 -18.5t66.5 -72.5t22.5 -159
q0 -85 -12 -136.5t-42 -80.5t-71 -38.5t-109 -9.5zM253 130q37 0 46.5 19.5t10.5 88.5l-104 -66q4 -24 15 -33t32 -9zM258 365q-38 0 -47.5 -18.5t-9.5 -89.5l104 68q-5 25 -15.5 32.5t-31.5 7.5z" />
    <glyph glyph-name="Scommaaccent" unicode="&#x218;" horiz-adv-x="455" 
d="M195 -5q-76 0 -138 17q-19 6 -25.5 20t-6.5 58q0 39 5.5 52.5t19.5 13.5q5 0 41 -5.5t79 -5.5q49 0 73.5 10t24.5 40q0 20 -7.5 29.5t-37.5 22.5l-94 42q-95 42 -95 164q0 50 16 87t44 57t60.5 29t70.5 9q93 0 164 -19q13 -3 18.5 -17t5.5 -59q0 -66 -26 -66
q-3 0 -40.5 5.5t-78.5 5.5q-35 0 -53 -6.5t-18 -27.5q0 -11 5 -18t11 -10.5t21 -10.5l89 -39q56 -24 81.5 -59t25.5 -111q0 -208 -235 -208zM192 -253q-29 0 -39 7t-10 22q0 10 5 52t5 63q0 39 15.5 50t69.5 11q50 0 67.5 -9.5t17.5 -35.5q0 -39 -18 -73l-27 -49
q-13 -23 -28 -30.5t-58 -7.5z" />
    <glyph glyph-name="scommaaccent" unicode="&#x219;" horiz-adv-x="451" 
d="M206 -10q-90 0 -147 18q-15 5 -22 19.5t-7 49.5q0 68 27 68q1 0 46.5 -5.5t80.5 -5.5q65 0 65 22q0 14 -22 23l-93 40q-83 36 -83 134q0 44 17 75.5t46 47.5t58.5 22.5t63.5 6.5q86 0 151 -17q16 -4 22.5 -18t6.5 -55q0 -65 -30 -65q-4 0 -43 6.5t-69 6.5q-51 0 -51 -17
q0 -10 21 -19l90 -35q49 -19 68 -50t19 -82q0 -170 -215 -170zM185 -253q-29 0 -39 7t-10 22q0 10 5 52t5 63q0 39 15.5 50t69.5 11q50 0 67.5 -9.5t17.5 -35.5q0 -39 -18 -73l-27 -49q-13 -23 -28 -30.5t-58 -7.5z" />
    <glyph glyph-name="dotlessj" unicode="&#x237;" horiz-adv-x="245" 
d="M120 495q51 0 68 -8t17 -37v-518q0 -132 -131 -132q-54 0 -100 13q-19 5 -26.5 19.5t-7.5 51.5q0 42 6.5 53t20.5 11q5 0 21 -1.5t22 -1.5q14 0 19.5 5t5.5 18v482q0 29 17 37t68 8z" />
    <glyph glyph-name="circumflex" unicode="&#x2c6;" horiz-adv-x="370" 
d="M216 609h-6l-26 -35q-16 -22 -33.5 -29t-52.5 -7q-50 0 -50 29q0 15 18 46l43 79q10 18 24 25.5t44 7.5h72q30 0 44 -7.5t24 -25.5l43 -79q18 -31 18 -46q0 -29 -50 -29q-35 0 -51.5 7t-33.5 29z" />
    <glyph glyph-name="caron" unicode="&#x2c7;" horiz-adv-x="370" 
d="M20 696q0 29 50 29q35 0 51.5 -7t33.5 -29l27 -35h6l26 35q16 22 33.5 29t52.5 7q50 0 50 -29q0 -15 -18 -46l-43 -79q-10 -18 -24 -25.5t-44 -7.5h-72q-30 0 -44 7.5t-24 25.5l-43 79q-18 31 -18 46z" />
    <glyph glyph-name="breve" unicode="&#x2d8;" horiz-adv-x="346" 
d="M173 538q-80 0 -116.5 31t-36.5 110q0 29 10.5 37t44.5 8q33 0 43 -6t13 -26q2 -19 9.5 -25.5t32.5 -6.5t32.5 6.5t9.5 25.5q3 20 13 26t43 6q34 0 44.5 -8t10.5 -37q0 -79 -36.5 -110t-116.5 -31z" />
    <glyph glyph-name="dotaccent" unicode="&#x2d9;" horiz-adv-x="220" 
d="M109 528q-61 0 -75.5 11.5t-14.5 50.5v8q0 39 14.5 50.5t75.5 11.5t75.5 -11.5t14.5 -50.5v-8q0 -39 -14.5 -50.5t-75.5 -11.5z" />
    <glyph glyph-name="ring" unicode="&#x2da;" horiz-adv-x="341" 
d="M170 637q26 0 32.5 5.5t6.5 22.5t-6.5 22.5t-32.5 5.5q-25 0 -31.5 -5.5t-6.5 -22.5t6.5 -22.5t31.5 -5.5zM170 538q-78 0 -114 25.5t-36 101.5t36 101.5t114 25.5q79 0 115 -25.5t36 -101.5t-36 -101.5t-115 -25.5z" />
    <glyph glyph-name="ogonek" unicode="&#x2db;" horiz-adv-x="257" 
d="M112 -200q-46 0 -69 17.5t-23 64.5q0 53 33 92.5t114 102.5h70q0 -31 -7 -48t-29 -42q-28 -34 -28 -46t10 -12q3 0 12 1t14 1q15 0 21.5 -10.5t6.5 -42.5q0 -35 -7 -46t-27 -18q-40 -14 -91 -14z" />
    <glyph glyph-name="tilde" unicode="&#x2dc;" horiz-adv-x="365" 
d="M20 605q0 34 5.5 47.5t22.5 24.5q33 21 74 21q30 0 70 -9.5t59 -9.5q22 0 45 6.5t28 6.5q13 0 17 -10t4 -45q0 -34 -5.5 -47.5t-22.5 -24.5q-33 -21 -74 -21q-30 0 -70 9.5t-59 9.5q-22 0 -45.5 -6.5t-27.5 -6.5q-13 0 -17 10t-4 45z" />
    <glyph glyph-name="hungarumlaut" unicode="&#x2dd;" horiz-adv-x="436" 
d="M20 568q0 14 18 126q3 19 18.5 25t68.5 6q45 0 62 -5q19 -6 19 -26q0 -19 -41 -123q-5 -12 -10.5 -18t-22.5 -10.5t-48 -4.5q-39 0 -51.5 6.5t-12.5 23.5zM211 568q0 10 37 129q5 16 21 22t65 6q44 0 62 -6q20 -8 20 -25q0 -20 -59 -122q-12 -21 -26 -27.5t-60 -6.5
q-36 0 -48 7t-12 23z" />
    <glyph glyph-name="afii10023" unicode="&#x401;" horiz-adv-x="455" 
d="M440 74q0 -44 -8.5 -59t-31.5 -15h-315q-26 0 -35.5 7.5t-9.5 32.5v550q0 25 9.5 32.5t35.5 7.5h305q23 0 31.5 -15t8.5 -59t-8.5 -59t-31.5 -15h-180v-82h110q26 0 33 -13.5t7 -59.5t-7 -59.5t-33 -13.5h-110v-106h190q23 0 31.5 -15t8.5 -59zM141 663q-55 0 -70 11.5
t-15 50.5v8q0 39 15 50.5t70 11.5t70 -11.5t15 -50.5v-8q0 -39 -15 -50.5t-70 -11.5zM341 663q-55 0 -70 11.5t-15 50.5v8q0 39 15 50.5t70 11.5t70 -11.5t15 -50.5v-8q0 -39 -15 -50.5t-70 -11.5z" />
    <glyph glyph-name="afii10051" unicode="&#x402;" horiz-adv-x="594" 
d="M219 0q-51 0 -68 8t-17 37v437h-84q-23 0 -31.5 15t-8.5 59t8.5 59t31.5 15h348q23 0 31.5 -15t8.5 -59t-8.5 -59t-31.5 -15h-94v-101q42 64 129 64q65 0 93 -33.5t28 -114.5v-188q0 -114 -115 -114q-39 0 -73 7q-21 5 -29 21t-8 55q0 42 6.5 53t20.5 11q2 0 8.5 -1
t9.5 -1q10 0 10 23v92q0 24 -7.5 34.5t-26.5 10.5q-46 0 -46 -107v-148q0 -29 -17 -37t-68 -8z" />
    <glyph glyph-name="afii10052" unicode="&#x403;" horiz-adv-x="410" 
d="M190 673q-37 0 -51.5 7t-14.5 23q0 21 7 49l11 49q9 37 25.5 48t73.5 11q52 0 68.5 -7t16.5 -25t-19 -62l-22 -49q-11 -25 -28.5 -34.5t-66.5 -9.5zM125 0q-51 0 -68 8t-17 37v545q0 25 9.5 32.5t35.5 7.5h275q23 0 31.5 -15t8.5 -59t-8.5 -59t-31.5 -15h-150v-437
q0 -29 -17 -37t-68 -8z" />
    <glyph glyph-name="afii10053" unicode="&#x404;" horiz-adv-x="455" 
d="M399 320q0 -41 -7 -52.5t-33 -11.5h-169q1 -41 5 -62.5t18.5 -33t31.5 -13.5t55 -2q36 0 71 5.5t42 5.5q13 0 17.5 -14t4.5 -52q0 -43 -5.5 -58t-18.5 -18q-71 -19 -158 -19q-39 0 -68.5 4.5t-60 20.5t-50 43t-32 74t-12.5 112v106q0 75 14 128.5t34.5 82.5t53.5 45
t60 20t65 4q83 0 154 -19q13 -3 18.5 -17t5.5 -59q0 -66 -22 -66q-4 0 -41 5.5t-72 5.5q-62 0 -84 -18.5t-26 -82.5h169q26 0 33 -11.5t7 -52.5z" />
    <glyph glyph-name="afii10054" unicode="&#x405;" horiz-adv-x="455" 
d="M195 -5q-76 0 -138 17q-19 6 -25.5 20t-6.5 58q0 39 5.5 52.5t19.5 13.5q5 0 41 -5.5t79 -5.5q49 0 73.5 10t24.5 40q0 20 -7.5 29.5t-37.5 22.5l-94 42q-95 42 -95 164q0 50 16 87t44 57t60.5 29t70.5 9q93 0 164 -19q13 -3 18.5 -17t5.5 -59q0 -66 -26 -66
q-3 0 -40.5 5.5t-78.5 5.5q-35 0 -53 -6.5t-18 -27.5q0 -11 5 -18t11 -10.5t21 -10.5l89 -39q56 -24 81.5 -59t25.5 -111q0 -208 -235 -208z" />
    <glyph glyph-name="afii10055" unicode="&#x406;" horiz-adv-x="250" 
d="M125 0q-51 0 -68 8t-17 37v540q0 29 17 37t68 8t68 -8t17 -37v-540q0 -29 -17 -37t-68 -8z" />
    <glyph glyph-name="afii10056" unicode="&#x407;" horiz-adv-x="250" 
d="M125 0q-51 0 -68 8t-17 37v540q0 29 17 37t68 8t68 -8t17 -37v-540q0 -29 -17 -37t-68 -8zM25 663q-55 0 -70 11.5t-15 50.5v8q0 39 15 50.5t70 11.5t70 -11.5t15 -50.5v-8q0 -39 -15 -50.5t-70 -11.5zM225 663q-55 0 -70 11.5t-15 50.5v8q0 39 15 50.5t70 11.5t70 -11.5
t15 -50.5v-8q0 -39 -15 -50.5t-70 -11.5z" />
    <glyph glyph-name="afii10057" unicode="&#x408;" horiz-adv-x="370" 
d="M160 -5q-67 0 -123 17q-19 6 -25.5 20t-6.5 58q0 39 5.5 49.5t19.5 10.5q10 0 36 -2.5t44 -2.5q30 0 40 9.5t10 40.5v390q0 29 17 37t68 8t68 -8t17 -37v-382q0 -115 -38.5 -161.5t-131.5 -46.5z" />
    <glyph glyph-name="afii10058" unicode="&#x409;" horiz-adv-x="815" 
d="M124 -5q-47 0 -82 7q-18 4 -25 20t-7 61q0 26 3.5 39t8 15.5t13.5 2.5q5 0 12.5 -1t12.5 -1q13 0 20 6t9 27l46 422q2 22 11.5 29.5t34.5 7.5h295q26 0 35.5 -7.5t9.5 -32.5v-190q55 6 118 6q90 0 123 -47t33 -158q0 -119 -49 -162.5t-190 -43.5q-100 0 -166 7
q-25 3 -32 11.5t-7 33.5v435h-69l-47 -399q-6 -49 -33 -68.5t-78 -19.5zM568 276q-28 0 -47 -1v-148q26 -2 45 -2q36 0 46 15t10 68q0 39 -11 53.5t-43 14.5z" />
    <glyph glyph-name="afii10059" unicode="&#x40a;" horiz-adv-x="804" 
d="M125 0q-51 0 -68 8t-17 37v540q0 29 17 37t68 8t68 -8t17 -37v-201h130v201q0 29 17 37t68 8t68 -8t17 -37v-185q56 6 118 6q90 0 123 -47t33 -158q0 -119 -49 -162.5t-190 -43.5q-100 0 -166 7q-25 3 -32 11.5t-7 33.5v199h-130v-201q0 -29 -17 -37t-68 -8zM557 276
q-28 0 -47 -1v-148q26 -2 45 -2q36 0 46 15t10 68q0 39 -11 53.5t-43 14.5z" />
    <glyph glyph-name="afii10060" unicode="&#x40b;" horiz-adv-x="594" 
d="M219 0q-51 0 -68 8t-17 37v437h-84q-23 0 -31.5 15t-8.5 59t8.5 59t31.5 15h348q23 0 31.5 -15t8.5 -59t-8.5 -59t-31.5 -15h-94v-101q42 64 129 64q65 0 93 -33.5t28 -114.5v-252q0 -29 -17 -37t-68 -8t-68 8t-17 37v210q0 24 -7.5 34.5t-26.5 10.5q-46 0 -46 -107v-148
q0 -29 -17 -37t-68 -8z" />
    <glyph glyph-name="afii10061" unicode="&#x40c;" horiz-adv-x="524" 
d="M125 0q-51 0 -68 8t-17 37v540q0 29 17 37t68 8t68 -8t17 -37v-221h20l83 225q10 27 29 34t79 7q47 0 62 -8t15 -25q0 -12 -13 -42l-109 -241l106 -208q27 -54 27 -67q0 -12 -4.5 -19t-25.5 -13.5t-61 -6.5q-45 0 -63.5 7.5t-30.5 33.5l-94 217h-20v-213q0 -29 -17 -37
t-68 -8zM227 673q-37 0 -51.5 7t-14.5 23q0 21 7 49l11 49q9 37 25.5 48t73.5 11q52 0 68.5 -7t16.5 -25t-19 -62l-22 -49q-11 -25 -28.5 -34.5t-66.5 -9.5z" />
    <glyph glyph-name="afii10062" unicode="&#x40e;" horiz-adv-x="510" 
d="M255 673q-80 0 -116.5 30.5t-36.5 110.5q0 29 10.5 37t44.5 8q33 0 43 -6t13 -26q2 -19 9.5 -25.5t32.5 -6.5t32.5 6.5t9.5 25.5q3 20 13 26t43 6q34 0 44.5 -8t10.5 -37q0 -80 -36.5 -110.5t-116.5 -30.5zM10 594q0 17 16.5 26.5t66.5 9.5q53 0 70 -8.5t24 -35.5
l63 -270h5l66 264q8 32 25.5 41t76.5 9q77 0 77 -36q0 -19 -18 -72l-142 -407q-23 -65 -63 -92.5t-105 -27.5q-73 0 -109 11q-19 6 -25.5 19.5t-6.5 57.5q0 39 5.5 49.5t19.5 10.5q10 0 36 -2.5t44 -2.5q35 0 54.5 8t29.5 33h-8q-42 0 -61 13.5t-30 46.5l-92 276
q-19 59 -19 79z" />
    <glyph glyph-name="afii10145" unicode="&#x40f;" horiz-adv-x="540" 
d="M270 -100q-36 0 -44.5 7t-10.5 38l-4 55h-126q-26 0 -35.5 7.5t-9.5 32.5v545q0 29 17 37t68 8t68 -8t17 -37v-437h120v437q0 29 17 37t68 8t68 -8t17 -37v-545q0 -25 -9.5 -32.5t-35.5 -7.5h-126l-4 -55q-2 -31 -10.5 -38t-44.5 -7z" />
    <glyph glyph-name="afii10017" unicode="&#x410;" horiz-adv-x="556" 
d="M91 0q-52 0 -66.5 8t-14.5 31q0 16 8 51l101 460q12 52 41 66t118 14t118 -14t41 -66l101 -460q8 -35 8 -51q0 -23 -14.5 -31t-66.5 -8q-56 0 -73.5 9t-23.5 41l-17 90h-146l-17 -90q-6 -32 -23.5 -41t-73.5 -9zM271 492l-43 -227h99l-42 227h-14z" />
    <glyph glyph-name="afii10018" unicode="&#x411;" horiz-adv-x="520" 
d="M250 -5q-105 0 -171 7q-25 3 -32 11.5t-7 33.5v543q0 25 9.5 32.5t35.5 7.5h325q23 0 31.5 -15t8.5 -59t-8.5 -59t-31.5 -15h-200v-93q74 7 129 7q90 0 123 -45t33 -155q0 -117 -51 -159t-194 -42zM269 266q-9 0 -59 -2v-136q21 -3 50 -3q42 0 52 12.5t10 65.5
q0 37 -9.5 50t-43.5 13z" />
    <glyph glyph-name="afii10019" unicode="&#x412;" horiz-adv-x="525" 
d="M250 -5q-105 0 -171 7q-25 3 -32 11.5t-7 33.5v531q0 28 8 37.5t34 12.5q59 7 146 7q134 0 189.5 -32.5t55.5 -132.5q0 -63 -18 -98t-68 -46q58 -10 83 -44.5t25 -111.5q0 -99 -52 -137t-193 -38zM210 495v-116h38q34 0 43 13t9 49q0 32 -8.5 44t-35.5 12q-24 0 -46 -2z
M210 266v-138q21 -3 50 -3q42 0 52 12.5t10 65.5q0 37 -10 50t-43 13h-59z" />
    <glyph glyph-name="afii10020" unicode="&#x413;" horiz-adv-x="410" 
d="M125 0q-51 0 -68 8t-17 37v545q0 25 9.5 32.5t35.5 7.5h275q23 0 31.5 -15t8.5 -59t-8.5 -59t-31.5 -15h-150v-437q0 -29 -17 -37t-68 -8z" />
    <glyph glyph-name="afii10021" unicode="&#x414;" horiz-adv-x="605" 
d="M75 -100q-39 0 -52 8t-13 37v158q0 29 12 37t48 8h14l55 445q3 22 12 29.5t34 7.5h305q26 0 35.5 -7.5t9.5 -32.5v-442q36 0 48 -8t12 -37v-158q0 -29 -13 -37t-52 -8q-37 0 -49.5 8t-23.5 37l-20 55h-269l-20 -55q-11 -29 -23.5 -37t-49.5 -8zM286 482l-40 -334h119v334
h-79z" />
    <glyph glyph-name="afii10022" unicode="&#x415;" horiz-adv-x="455" 
d="M440 74q0 -44 -8.5 -59t-31.5 -15h-315q-26 0 -35.5 7.5t-9.5 32.5v550q0 25 9.5 32.5t35.5 7.5h305q23 0 31.5 -15t8.5 -59t-8.5 -59t-31.5 -15h-180v-82h110q26 0 33 -13.5t7 -59.5t-7 -59.5t-33 -13.5h-110v-106h190q23 0 31.5 -15t8.5 -59z" />
    <glyph glyph-name="afii10024" unicode="&#x416;" horiz-adv-x="793" 
d="M106 0q-40 0 -61 6.5t-25.5 13.5t-4.5 19q0 13 27 67l106 208l-109 241q-13 30 -13 42q0 17 15 25t62 8q60 0 79 -7t29 -34l83 -225h15v221q0 29 17 37t68 8t68 -8t17 -37v-221h20l83 225q10 27 29 34t79 7q47 0 62 -8t15 -25q0 -12 -13 -42l-109 -241l106 -208
q27 -54 27 -67q0 -12 -4.5 -19t-25.5 -13.5t-61 -6.5q-45 0 -63.5 7.5t-30.5 33.5l-94 217h-20v-213q0 -29 -17 -37t-68 -8t-68 8t-17 37v213h-15l-94 -217q-12 -26 -30.5 -33.5t-63.5 -7.5z" />
    <glyph glyph-name="afii10025" unicode="&#x417;" horiz-adv-x="465" 
d="M83 320q0 37 7.5 50.5t32.5 13.5h54q47 0 60 14t13 51q0 21 -10 31t-37 10q-35 0 -85 -3.5t-54 -3.5q-26 0 -26 66q0 44 5 56t19 15q68 15 184 15q87 0 132 -33.5t45 -124.5q0 -62 -28.5 -103.5t-80.5 -47.5q62 -2 91.5 -36t29.5 -110q0 -101 -54 -143t-158 -42
q-106 0 -171 13q-19 4 -25.5 17t-6.5 56q0 39 5.5 52.5t19.5 13.5q7 0 59.5 -3.5t86.5 -3.5q42 0 57 15.5t15 48.5q0 35 -14.5 43.5t-70.5 8.5h-55q-25 0 -32.5 13.5t-7.5 50.5z" />
    <glyph glyph-name="afii10026" unicode="&#x418;" horiz-adv-x="567" 
d="M442 0q-51 0 -68 8t-17 37v251h-8l-153 -254q-16 -28 -30 -35t-45 -7q-50 0 -65.5 8t-15.5 37v540q0 29 17 37t68 8t68 -8t17 -37v-251h8l146 253q16 28 31 35.5t47 7.5q51 0 68 -8t17 -37v-540q0 -29 -17 -37t-68 -8z" />
    <glyph glyph-name="afii10027" unicode="&#x419;" horiz-adv-x="567" 
d="M283 673q-80 0 -116.5 30.5t-36.5 110.5q0 29 10.5 37t44.5 8q33 0 43 -6t13 -26q2 -19 9.5 -25.5t32.5 -6.5t32.5 6.5t9.5 25.5q3 20 13 26t43 6q34 0 44.5 -8t10.5 -37q0 -80 -36.5 -110.5t-116.5 -30.5zM442 0q-51 0 -68 8t-17 37v251h-8l-153 -254q-16 -28 -30 -35
t-45 -7q-50 0 -65.5 8t-15.5 37v540q0 29 17 37t68 8t68 -8t17 -37v-251h8l146 253q16 28 31 35.5t47 7.5q51 0 68 -8t17 -37v-540q0 -29 -17 -37t-68 -8z" />
    <glyph glyph-name="afii10028" unicode="&#x41a;" horiz-adv-x="524" 
d="M125 0q-51 0 -68 8t-17 37v540q0 29 17 37t68 8t68 -8t17 -37v-221h20l83 225q10 27 29 34t79 7q47 0 62 -8t15 -25q0 -12 -13 -42l-109 -241l106 -208q27 -54 27 -67q0 -12 -4.5 -19t-25.5 -13.5t-61 -6.5q-45 0 -63.5 7.5t-30.5 33.5l-94 217h-20v-213q0 -29 -17 -37
t-68 -8z" />
    <glyph glyph-name="afii10029" unicode="&#x41b;" horiz-adv-x="571" 
d="M446 0q-51 0 -68 8t-17 37v437h-79l-47 -399q-6 -49 -33 -68.5t-78 -19.5q-47 0 -82 7q-18 4 -25 20t-7 61q0 26 3.5 39t8 15.5t13.5 2.5q5 0 12.5 -1t12.5 -1q13 0 20 6t9 27l46 422q2 22 11.5 29.5t34.5 7.5h305q26 0 35.5 -7.5t9.5 -32.5v-545q0 -29 -17 -37t-68 -8z
" />
    <glyph glyph-name="afii10030" unicode="&#x41c;" horiz-adv-x="676" 
d="M125 0q-51 0 -68 8t-17 37v527q0 33 17.5 45.5t67.5 12.5q62 0 84 -8.5t36 -41.5l91 -214h4l91 214q14 33 36 41.5t84 8.5q50 0 67.5 -12.5t17.5 -45.5v-527q0 -29 -17 -37t-68 -8t-68 8t-17 37q0 141 5 306h-4l-49 -142q-12 -36 -25.5 -45.5t-54.5 -9.5t-54.5 9.5
t-25.5 45.5l-49 142h-4q5 -165 5 -306q0 -29 -17 -37t-68 -8z" />
    <glyph glyph-name="afii10031" unicode="&#x41d;" horiz-adv-x="550" 
d="M210 384h130v201q0 29 17 37t68 8t68 -8t17 -37v-540q0 -29 -17 -37t-68 -8t-68 8t-17 37v201h-130v-201q0 -29 -17 -37t-68 -8t-68 8t-17 37v540q0 29 17 37t68 8t68 -8t17 -37v-201z" />
    <glyph glyph-name="afii10032" unicode="&#x41e;" horiz-adv-x="536" 
d="M268 140q44 0 56 24.5t12 120.5v60q0 96 -12 120.5t-56 24.5t-56 -24.5t-12 -120.5v-60q0 -96 12 -120.5t56 -24.5zM268 -5q-53 0 -87 5t-65.5 21t-48.5 45.5t-27 78.5t-10 120v90q0 63 5.5 107.5t19 76t30.5 50.5t46 29t60 13.5t77 3.5t77 -3.5t60 -13.5t46 -29
t30.5 -50.5t19 -76t5.5 -107.5v-90q0 -71 -10 -120t-27 -78.5t-48.5 -45.5t-65.5 -21t-87 -5z" />
    <glyph glyph-name="afii10033" unicode="&#x41f;" horiz-adv-x="540" 
d="M125 0q-51 0 -68 8t-17 37v545q0 25 9.5 32.5t35.5 7.5h370q26 0 35.5 -7.5t9.5 -32.5v-545q0 -29 -17 -37t-68 -8t-68 8t-17 37v437h-120v-437q0 -29 -17 -37t-68 -8z" />
    <glyph glyph-name="afii10034" unicode="&#x420;" horiz-adv-x="509" 
d="M125 0q-51 0 -68 8t-17 37v531q0 28 8 37.5t34 12.5q76 9 196 9q53 0 88 -8t63.5 -31t41.5 -66.5t13 -110.5q0 -72 -18.5 -119.5t-57 -72t-83.5 -33.5t-110 -9h-5v-140q0 -29 -17 -37t-68 -8zM210 495v-175h15q51 0 68 17t17 71q0 52 -14 70.5t-41 18.5q-25 0 -45 -2z
" />
    <glyph glyph-name="afii10035" unicode="&#x421;" horiz-adv-x="455" 
d="M253 -5q-39 0 -68.5 4.5t-60 20.5t-50 43t-32 74t-12.5 112v106q0 75 14 128.5t34.5 82.5t53.5 45t60 20t65 4q83 0 154 -19q13 -3 18.5 -17t5.5 -59q0 -66 -22 -66q-4 0 -41 5.5t-72 5.5q-57 0 -78.5 -25.5t-21.5 -111.5v-63q0 -66 10.5 -96t28.5 -37t61 -7q36 0 71 5.5
t42 5.5q13 0 17.5 -14t4.5 -52q0 -43 -5.5 -58t-18.5 -18q-71 -19 -158 -19z" />
    <glyph glyph-name="afii10036" unicode="&#x422;" horiz-adv-x="458" 
d="M229 0q-51 0 -68 8t-17 37v437h-94q-23 0 -31.5 15t-8.5 59t8.5 59t31.5 15h358q23 0 31.5 -15t8.5 -59t-8.5 -59t-31.5 -15h-94v-437q0 -29 -17 -37t-68 -8z" />
    <glyph glyph-name="afii10037" unicode="&#x423;" horiz-adv-x="510" 
d="M10 594q0 17 16.5 26.5t66.5 9.5q53 0 70 -8.5t24 -35.5l63 -270h5l66 264q8 32 25.5 41t76.5 9q77 0 77 -36q0 -19 -18 -72l-142 -407q-23 -65 -63 -92.5t-105 -27.5q-73 0 -109 11q-19 6 -25.5 19.5t-6.5 57.5q0 39 5.5 49.5t19.5 10.5q10 0 36 -2.5t44 -2.5
q35 0 54.5 8t29.5 33h-8q-42 0 -61 13.5t-30 46.5l-92 276q-19 59 -19 79z" />
    <glyph glyph-name="afii10038" unicode="&#x424;" horiz-adv-x="714" 
d="M30 319q0 60 12 102.5t31.5 67.5t52 40t66 19.5t80.5 4.5v42q0 29 17 37t68 8t68 -8t17 -37v-42q47 0 80.5 -4.5t66 -19.5t52 -40t31.5 -67.5t12 -102.5q0 -74 -17 -122.5t-51.5 -73.5t-74.5 -34t-99 -9v-45q0 -29 -17 -37t-68 -8t-68 8t-17 37v45q-59 0 -99 9t-74.5 34
t-51.5 73.5t-17 122.5zM442 418v-203q47 0 62.5 19t15.5 85q0 65 -15 82t-63 17zM194 319q0 -66 15.5 -85t62.5 -19v203q-48 0 -63 -17t-15 -82z" />
    <glyph glyph-name="afii10039" unicode="&#x425;" horiz-adv-x="521" 
d="M94 0q-49 0 -66.5 10.5t-17.5 29.5t26 61l136 222l-121 202q-26 42 -26 64q0 20 18 30.5t68 10.5q51 0 68.5 -8.5t33.5 -41.5l47 -100h4l44 100q14 33 32 41.5t70 8.5q50 0 68 -10.5t18 -30.5q0 -21 -26 -63l-122 -202l137 -220q26 -42 26 -64q0 -19 -17.5 -29.5
t-66.5 -10.5q-51 0 -68 8.5t-34 41.5l-64 126h-4l-61 -126q-16 -33 -33 -41.5t-69 -8.5z" />
    <glyph glyph-name="afii10040" unicode="&#x426;" horiz-adv-x="590" 
d="M512 -100q-39 0 -52 8t-24 37l-20 55h-331q-26 0 -35.5 7.5t-9.5 32.5v545q0 29 17 37t68 8t68 -8t17 -37v-437h120v437q0 29 17 37t68 8t68 -8t17 -37v-437q47 0 63.5 -8t16.5 -37v-158q0 -29 -14.5 -37t-53.5 -8z" />
    <glyph glyph-name="afii10041" unicode="&#x427;" horiz-adv-x="512" 
d="M191 204q-97 0 -134 42.5t-37 157.5v181q0 29 17 37t68 8t68 -8t17 -37v-158q0 -52 9.5 -67.5t43.5 -15.5t59 1v240q0 29 17 37t68 8t68 -8t17 -37v-540q0 -29 -17 -37t-68 -8t-68 8t-17 37v167q-58 -8 -111 -8z" />
    <glyph glyph-name="afii10042" unicode="&#x428;" horiz-adv-x="810" 
d="M125 630q51 0 68 -8t17 -37v-437h110v437q0 29 17 37t68 8t68 -8t17 -37v-437h110v437q0 29 17 37t68 8t68 -8t17 -37v-545q0 -25 -9.5 -32.5t-35.5 -7.5h-640q-26 0 -35.5 7.5t-9.5 32.5v545q0 29 17 37t68 8z" />
    <glyph glyph-name="afii10043" unicode="&#x429;" horiz-adv-x="860" 
d="M686 0h-601q-26 0 -35.5 7.5t-9.5 32.5v545q0 29 17 37t68 8t68 -8t17 -37v-437h110v437q0 29 17 37t68 8t68 -8t17 -37v-437h110v437q0 29 17 37t68 8t68 -8t17 -37v-437q47 0 63.5 -8t16.5 -37v-158q0 -29 -14.5 -37t-53.5 -8t-52 8t-24 37z" />
    <glyph glyph-name="afii10044" unicode="&#x42a;" horiz-adv-x="567" 
d="M308 -5q-100 0 -166 7q-25 3 -32 11.5t-7 33.5v435h-53q-23 0 -31.5 15t-8.5 59t8.5 59t31.5 15h138q51 0 68 -8t17 -37v-185q56 6 118 6q90 0 123 -47t33 -158q0 -119 -49 -162.5t-190 -43.5zM320 276q-28 0 -47 -1v-148q26 -2 45 -2q36 0 46 15t10 68q0 39 -11 53.5
t-43 14.5z" />
    <glyph glyph-name="afii10045" unicode="&#x42b;" horiz-adv-x="750" 
d="M125 630q51 0 68 -8t17 -37v-185q56 6 118 6q90 0 123 -47t33 -158q0 -119 -49 -162.5t-190 -43.5q-100 0 -166 7q-25 3 -32 11.5t-7 33.5v538q0 29 17 37t68 8zM257 276q-28 0 -47 -1v-148q26 -2 45 -2q36 0 46 15t10 68q0 39 -11 53.5t-43 14.5zM625 0q-51 0 -68 8
t-17 37v540q0 29 17 37t68 8t68 -8t17 -37v-540q0 -29 -17 -37t-68 -8z" />
    <glyph glyph-name="afii10046" unicode="&#x42c;" horiz-adv-x="504" 
d="M125 630q51 0 68 -8t17 -37v-185q56 6 118 6q90 0 123 -47t33 -158q0 -119 -49 -162.5t-190 -43.5q-100 0 -166 7q-25 3 -32 11.5t-7 33.5v538q0 29 17 37t68 8zM257 276q-28 0 -47 -1v-148q26 -2 45 -2q36 0 46 15t10 68q0 39 -11 53.5t-43 14.5z" />
    <glyph glyph-name="afii10047" unicode="&#x42d;" horiz-adv-x="465" 
d="M60 320q0 41 7 52.5t33 11.5h174q-3 64 -25 82.5t-84 18.5q-35 0 -72 -5.5t-41 -5.5q-22 0 -22 66q0 45 5.5 59t18.5 17q71 19 154 19q38 0 65 -4t60 -20t53.5 -45t34.5 -82.5t14 -128.5v-106q0 -65 -12.5 -112t-32 -74t-50 -43t-60 -20.5t-68.5 -4.5q-87 0 -158 19
q-13 3 -18.5 18t-5.5 58q0 38 4.5 52t17.5 14q6 0 41 -5.5t72 -5.5t54 2.5t31.5 13.5t18.5 32.5t5 62.5h-174q-26 0 -33 11.5t-7 52.5z" />
    <glyph glyph-name="afii10048" unicode="&#x42e;" horiz-adv-x="806" 
d="M538 -5q-66 0 -105 8.5t-71.5 34.5t-46.5 78.5t-15 137.5h-90v-209q0 -29 -17 -37t-68 -8t-68 8t-17 37v540q0 29 17 37t68 8t68 -8t17 -37v-185h91q3 77 17 124t46 71.5t70.5 32t103.5 7.5q46 0 77 -3.5t60 -13.5t46 -29t30.5 -50.5t19 -76t5.5 -107.5v-90
q0 -71 -10 -120t-27 -78.5t-48.5 -45.5t-65.5 -21t-87 -5zM538 140q44 0 56 24.5t12 120.5v60q0 96 -12 120.5t-56 24.5t-56 -24.5t-12 -120.5v-60q0 -96 12 -120.5t56 -24.5z" />
    <glyph glyph-name="afii10049" unicode="&#x42f;" horiz-adv-x="514" 
d="M394 0q-51 0 -68 8t-17 37v180h-44l-63 -178q-12 -33 -30 -40t-85 -7t-67 32q0 13 18 51l83 174q-86 45 -86 173q0 120 49.5 162.5t156.5 42.5q119 0 196 -9q26 -3 34 -12.5t8 -37.5v-531q0 -29 -17 -37t-68 -8zM209 419q0 -48 17 -63.5t68 -15.5h15v155q-20 2 -45 2
q-55 0 -55 -78z" />
    <glyph glyph-name="afii10065" unicode="&#x430;" horiz-adv-x="487" 
d="M149 -10q-66 0 -97.5 36.5t-31.5 116.5q0 84 44.5 121.5t159.5 37.5h54v6q0 21 -2.5 32t-12 16t-18.5 6t-31 1q-39 0 -84.5 -6.5t-52.5 -6.5q-29 0 -29 68q0 34 6.5 48t24.5 20q53 19 160 19q114 0 160 -28.5t46 -119.5v-113q0 -87 9 -146l8 -60q0 -21 -15.5 -29.5
t-62.5 -8.5q-43 0 -56.5 7t-20.5 34l-11 41q-33 -92 -147 -92zM217 122q61 0 61 75v11l-50 -1q-28 -1 -38 -10.5t-10 -34.5q0 -24 8 -32t29 -8z" />
    <glyph glyph-name="afii10066" unicode="&#x431;" horiz-adv-x="518" 
d="M263 -10q-125 0 -179 49.5t-54 187.5v177q0 160 53.5 216.5t191.5 56.5q97 0 167 -12q29 -5 29 -68t-28 -63q-11 0 -56 2t-70 2q-76 0 -94 -15.5t-18 -81.5q33 64 135 64q58 0 88.5 -20t45 -76t14.5 -164q0 -80 -12.5 -130t-42.5 -77.5t-69 -37.5t-101 -10zM263 130
q22 0 32 7t15.5 33.5t5.5 84.5q0 52 -5.5 75t-15.5 29t-35 6q-34 0 -47 -22.5t-13 -87.5v-20q0 -67 13 -86t50 -19z" />
    <glyph glyph-name="afii10067" unicode="&#x432;" horiz-adv-x="507" 
d="M257 140q31 0 42 7t11 26t-12.5 25t-50.5 6h-37v-62q18 -2 47 -2zM247 -5q-98 0 -168 10q-26 4 -32.5 11t-6.5 31v396q0 28 8 37.5t34 12.5q59 7 175 7q120 0 166.5 -23t46.5 -104q0 -62 -26 -90t-83 -33q65 -5 93 -29.5t28 -91.5q0 -36 -10.5 -61t-27 -39.5t-49 -22
t-64.5 -9.5t-84 -2zM257 355q-23 0 -47 -2v-56h34q29 0 41 6t12 24q0 17 -8 22.5t-32 5.5z" />
    <glyph glyph-name="afii10068" unicode="&#x433;" horiz-adv-x="370" 
d="M125 0q-51 0 -68 8t-17 37v410q0 25 9.5 32.5t35.5 7.5h235q23 0 31.5 -15t8.5 -59t-8.5 -59t-31.5 -15h-110v-302q0 -29 -17 -37t-68 -8z" />
    <glyph glyph-name="afii10069" unicode="&#x434;" horiz-adv-x="535" 
d="M70 -100q-39 0 -52 8t-13 37v130q0 46 7 59.5t33 13.5h17l49 302q5 29 20.5 37t64.5 8h189q51 0 68 -8t17 -37v-302q36 0 48 -8t12 -37v-158q0 -29 -13 -37t-52 -8q-37 0 -49.5 8t-23.5 37l-20 55h-209l-20 -55q-11 -29 -23.5 -37t-49.5 -8zM253 354l-32 -206h79v206h-47
z" />
    <glyph glyph-name="afii10070" unicode="&#x435;" horiz-adv-x="488" 
d="M266 -10q-60 0 -98.5 8.5t-72.5 34.5t-49.5 78t-15.5 134q0 84 12.5 135.5t42.5 79t68 36.5t101 9q124 0 164 -51.5t40 -181.5q0 -38 -12 -55t-46 -17h-201q4 -43 19 -54.5t57 -11.5q34 0 67.5 3t54.5 5.5t25 2.5q27 0 27 -68q0 -35 -7 -49t-22 -19q-55 -19 -154 -19z
M252 365q-32 0 -42.5 -11.5t-12.5 -56.5h104q0 43 -9 55.5t-40 12.5z" />
    <glyph glyph-name="afii10072" unicode="&#x436;" horiz-adv-x="754" 
d="M99 0q-89 0 -89 34q0 14 13 36l105 189l-91 166q-13 24 -13 43q0 15 18 21t65 6q57 0 75.5 -7t30.5 -34l65 -145h14v141q0 29 17 37t68 8t68 -8t17 -37v-141h14l65 145q12 27 30.5 34t75.5 7q47 0 65 -6t18 -21q0 -19 -13 -43l-91 -166l105 -189q13 -22 13 -36
q0 -34 -89 -34q-50 0 -69 7.5t-31 33.5l-79 167h-14v-163q0 -29 -17 -37t-68 -8t-68 8t-17 37v163h-14l-79 -167q-12 -26 -31 -33.5t-69 -7.5z" />
    <glyph glyph-name="afii10073" unicode="&#x437;" horiz-adv-x="435" 
d="M93 251q0 30 7.5 43t32.5 13h34q29 0 41 4.5t12 20.5q0 14 -9 18.5t-38 4.5q-35 0 -70 -3.5t-39 -3.5q-26 0 -26 66q0 44 5 56t19 15q68 15 154 15q89 0 133 -24t44 -96q0 -74 -24.5 -99t-84.5 -31q67 -5 94 -28t27 -93q0 -36 -10 -61t-25.5 -39.5t-43.5 -22t-54.5 -9.5
t-67.5 -2q-76 0 -152 13q-19 3 -25.5 16t-6.5 57q0 39 5.5 52.5t19.5 13.5q7 0 44.5 -3.5t71.5 -3.5q45 0 58.5 5.5t13.5 22.5q0 16 -12.5 21t-50.5 5h-37q-25 0 -32.5 12.5t-7.5 44.5z" />
    <glyph glyph-name="afii10074" unicode="&#x438;" horiz-adv-x="537" 
d="M420 495q40 0 57 -7q20 -9 20 -41v-402q0 -29 -17 -37t-68 -8t-68 8t-17 37v181h-8l-117 -184q-17 -27 -34 -34.5t-51 -7.5q-40 0 -57 7q-20 9 -20 41v402q0 29 17 37t68 8t68 -8t17 -37v-168h7l125 179q16 22 30.5 28t47.5 6z" />
    <glyph glyph-name="afii10075" unicode="&#x439;" horiz-adv-x="537" 
d="M268 538q-80 0 -116.5 31t-36.5 110q0 29 10.5 37t44.5 8q33 0 43 -6t13 -26q2 -19 9.5 -25.5t32.5 -6.5t32.5 6.5t9.5 25.5q3 20 13 26t43 6q34 0 44.5 -8t10.5 -37q0 -79 -36.5 -110t-116.5 -31zM420 495q40 0 57 -7q20 -9 20 -41v-402q0 -29 -17 -37t-68 -8t-68 8
t-17 37v181h-8l-117 -184q-17 -27 -34 -34.5t-51 -7.5q-40 0 -57 7q-20 9 -20 41v402q0 29 17 37t68 8t68 -8t17 -37v-168h7l125 179q16 22 30.5 28t47.5 6z" />
    <glyph glyph-name="afii10076" unicode="&#x43a;" horiz-adv-x="502" 
d="M125 0q-51 0 -68 8t-17 37v405q0 29 17 37t68 8t68 -8t17 -37v-141h14l65 145q12 27 30.5 34t75.5 7q47 0 65 -6t18 -21q0 -19 -13 -43l-91 -166l105 -189q13 -22 13 -36q0 -34 -89 -34q-50 0 -69 7.5t-31 33.5l-79 167h-14v-163q0 -29 -17 -37t-68 -8z" />
    <glyph glyph-name="afii10077" unicode="&#x43b;" horiz-adv-x="525" 
d="M400 0q-51 0 -68 8t-17 37v309h-47l-39 -271q-7 -50 -33.5 -69t-76.5 -19q-47 0 -82 7q-18 4 -25 20t-7 61q0 26 3.5 39t8 15.5t13.5 2.5q5 0 12.5 -1t12.5 -1q13 0 19.5 6t9.5 27l42 279q4 29 15.5 37t41.5 8h257q26 0 35.5 -7.5t9.5 -32.5v-410q0 -29 -17 -37t-68 -8z
" />
    <glyph glyph-name="afii10078" unicode="&#x43c;" horiz-adv-x="656" 
d="M125 0q-51 0 -68 8t-17 37v392q0 33 17.5 45.5t67.5 12.5q59 0 76.5 -8.5t33.5 -41.5l91 -189h4l91 189q16 33 33.5 41.5t76.5 8.5q50 0 67.5 -12.5t17.5 -45.5v-392q0 -29 -17 -37t-68 -8t-68 8t-17 37q0 20 5 185h-4l-39 -97q-14 -36 -27 -45.5t-53 -9.5t-53 9.5
t-27 45.5l-39 97h-4q5 -165 5 -185q0 -29 -17 -37t-68 -8z" />
    <glyph glyph-name="afii10079" unicode="&#x43d;" horiz-adv-x="510" 
d="M210 322h90v128q0 29 17 37t68 8t68 -8t17 -37v-405q0 -29 -17 -37t-68 -8t-68 8t-17 37v139h-90v-139q0 -29 -17 -37t-68 -8t-68 8t-17 37v405q0 29 17 37t68 8t68 -8t17 -37v-128z" />
    <glyph glyph-name="afii10080" unicode="&#x43e;" horiz-adv-x="512" 
d="M248 -10q-84 0 -129 20t-67 75t-22 160q0 84 12 135.5t42.5 79t70.5 36.5t109 9q85 0 129 -18.5t66.5 -72.5t22.5 -159q0 -85 -12 -136.5t-42 -80.5t-71 -38.5t-109 -9.5zM253 130q38 0 47.5 21t9.5 97t-10.5 96.5t-41.5 20.5q-38 0 -47.5 -19t-9.5 -94q0 -77 11 -99.5
t41 -22.5z" />
    <glyph glyph-name="afii10081" unicode="&#x43f;" horiz-adv-x="510" 
d="M125 0q-51 0 -68 8t-17 37v410q0 25 9.5 32.5t35.5 7.5h340q26 0 35.5 -7.5t9.5 -32.5v-410q0 -29 -17 -37t-68 -8t-68 8t-17 37v312h-90v-312q0 -29 -17 -37t-68 -8z" />
    <glyph glyph-name="afii10082" unicode="&#x440;" horiz-adv-x="526" 
d="M127 -185q-51 0 -68 8t-17 37v391q0 87 -8 147l-9 59q0 21 15.5 29.5t62.5 8.5q43 0 56.5 -7t20.5 -34l7 -28q41 79 149 79q92 0 126 -48t34 -192q0 -115 -19.5 -175.5t-54.5 -80t-101 -19.5q-85 0 -109 43v-173q0 -29 -17 -37t-68 -8zM271 130q22 0 32 7t15.5 33.5
t5.5 84.5q0 52 -5.5 75t-15.5 29t-35 6q-33 0 -46.5 -20.5t-13.5 -85.5v-24q0 -67 13 -86t50 -19z" />
    <glyph glyph-name="afii10083" unicode="&#x441;" horiz-adv-x="434" 
d="M256 -10q-56 0 -93 9t-69.5 34.5t-48 78t-15.5 133.5q0 83 13 135.5t42 79.5t65 36t93 9q81 0 136 -19q16 -6 22.5 -19.5t6.5 -48.5q0 -68 -27 -68q-3 0 -45 5.5t-64 5.5q-32 0 -45.5 -4.5t-21.5 -26.5t-8 -70q0 -84 13.5 -105t64.5 -21q35 0 70.5 5.5t36.5 5.5
q27 0 27 -68q0 -35 -7 -49t-22 -19q-55 -19 -124 -19z" />
    <glyph glyph-name="afii10084" unicode="&#x442;" horiz-adv-x="418" 
d="M209 0q-51 0 -68 8t-17 37v302h-74q-23 0 -31.5 15t-8.5 59t8.5 59t31.5 15h318q23 0 31.5 -15t8.5 -59t-8.5 -59t-31.5 -15h-74v-302q0 -29 -17 -37t-68 -8z" />
    <glyph glyph-name="afii10085" unicode="&#x443;" horiz-adv-x="499" 
d="M10 454q0 21 16.5 31t71.5 10q54 0 71 -8t21 -36l46 -314h14l58 314q5 28 22 36t69 8q55 0 72.5 -9t17.5 -31q0 -19 -23 -111l-93 -362q-29 -111 -69 -146.5t-140 -35.5q-75 0 -124 19q-16 6 -22.5 19.5t-6.5 48.5q0 68 27 68q1 0 36.5 -5.5t70.5 -5.5q45 0 59 9t19 33
l2 14h-14q-63 0 -84.5 13t-29.5 47l-64 275q-23 98 -23 119z" />
    <glyph glyph-name="afii10086" unicode="&#x444;" horiz-adv-x="778" 
d="M180 -10q-91 0 -120.5 47t-29.5 193q0 117 17 176t50 79t98 20q85 0 109 -61v171q0 29 17 37t68 8t68 -8t17 -37v-171q34 61 124 61q91 0 120.5 -47t29.5 -193q0 -117 -17 -176t-50 -79t-98 -20q-83 0 -109 56v-186q0 -29 -17 -37t-68 -8t-68 8t-17 37v184
q-34 -54 -124 -54zM528 130q22 0 31 7.5t13 33t4 84.5q0 76 -8.5 93t-42.5 17q-32 0 -43.5 -20t-11.5 -86v-24q0 -68 11 -86.5t47 -18.5zM253 130q33 0 44 21.5t11 88.5v20q0 68 -11 86.5t-47 18.5q-22 0 -31 -7.5t-13 -33t-4 -84.5q0 -76 8.5 -93t42.5 -17z" />
    <glyph glyph-name="afii10087" unicode="&#x445;" horiz-adv-x="474" 
d="M90 0q-47 0 -63.5 7.5t-16.5 23.5q0 12 14 36l110 185l-94 159q-20 34 -20 47q0 21 19 29t69 8q57 0 75 -7t28 -34l26 -68h4l24 68q10 29 26.5 35t74.5 6q50 0 69 -8t19 -29q0 -14 -19 -44l-97 -151l110 -192q16 -28 16 -39q0 -16 -16.5 -24t-63.5 -8q-60 0 -81.5 10
t-35.5 47l-30 82h-4l-28 -82q-13 -36 -34.5 -46.5t-80.5 -10.5z" />
    <glyph glyph-name="afii10088" unicode="&#x446;" horiz-adv-x="535" 
d="M465 -100q-37 0 -49.5 8t-23.5 37l-20 55h-287q-26 0 -35.5 7.5t-9.5 32.5v410q0 29 17 37t68 8t68 -8t17 -37v-302h90v302q0 29 17 37t68 8t68 -8t17 -37v-302q36 0 48 -8t12 -37v-158q0 -29 -13 -37t-52 -8z" />
    <glyph glyph-name="afii10089" unicode="&#x447;" horiz-adv-x="462" 
d="M181 147q-97 0 -134 42.5t-37 157.5v103q0 29 17 37t68 8t68 -8t17 -37v-80q0 -51 8 -67t35 -16h29v163q0 29 17 37t68 8t68 -8t17 -37v-405q0 -29 -17 -37t-68 -8t-68 8t-17 37v106q-29 -4 -71 -4z" />
    <glyph glyph-name="afii10090" unicode="&#x448;" horiz-adv-x="750" 
d="M710 450v-410q0 -25 -9.5 -32.5t-35.5 -7.5h-580q-26 0 -35.5 7.5t-9.5 32.5v410q0 29 17 37t68 8t68 -8t17 -37v-302h80v302q0 29 17 37t68 8t68 -8t17 -37v-302h80v302q0 29 17 37t68 8t68 -8t17 -37z" />
    <glyph glyph-name="afii10091" unicode="&#x449;" horiz-adv-x="775" 
d="M705 -100q-37 0 -49.5 8t-23.5 37l-20 55h-527q-26 0 -35.5 7.5t-9.5 32.5v410q0 29 17 37t68 8t68 -8t17 -37v-302h80v302q0 29 17 37t68 8t68 -8t17 -37v-302h80v302q0 29 17 37t68 8t68 -8t17 -37v-302q36 0 48 -8t12 -37v-158q0 -29 -13 -37t-52 -8z" />
    <glyph glyph-name="afii10092" unicode="&#x44a;" horiz-adv-x="517" 
d="M80 347h-30q-23 0 -31.5 15t-8.5 59t8.5 59t31.5 15h115q51 0 68 -8t17 -37v-103h46q122 0 162.5 -33t40.5 -134q0 -62 -14 -100t-46.5 -56t-69 -23.5t-98.5 -5.5q-80 0 -152 10q-26 4 -32.5 11t-6.5 31v300zM288 217h-38v-83q1 0 5 -0.5t12.5 -1t18.5 -0.5
q25 0 34.5 8.5t9.5 33.5t-9 34t-33 9z" />
    <glyph glyph-name="afii10093" unicode="&#x44b;" horiz-adv-x="727" 
d="M602 0q-51 0 -68 8t-17 37v405q0 29 17 37t68 8t68 -8t17 -37v-405q0 -29 -17 -37t-68 -8zM231 -5q-80 0 -152 10q-26 4 -32.5 11t-6.5 31v403q0 29 17 37t68 8t68 -8t17 -37v-103h46q122 0 162.5 -33t40.5 -134q0 -62 -14 -100t-46.5 -56t-69 -23.5t-98.5 -5.5zM248 217
h-38v-83q1 0 5 -0.5t12.5 -1t18.5 -0.5q25 0 34.5 8.5t9.5 33.5t-9 34t-33 9z" />
    <glyph glyph-name="afii10094" unicode="&#x44c;" horiz-adv-x="477" 
d="M231 -5q-80 0 -152 10q-26 4 -32.5 11t-6.5 31v403q0 29 17 37t68 8t68 -8t17 -37v-103h46q122 0 162.5 -33t40.5 -134q0 -62 -14 -100t-46.5 -56t-69 -23.5t-98.5 -5.5zM248 217h-38v-83q1 0 5 -0.5t12.5 -1t18.5 -0.5q25 0 34.5 8.5t9.5 33.5t-9 34t-33 9z" />
    <glyph glyph-name="afii10095" unicode="&#x44d;" horiz-adv-x="464" 
d="M198 -10q-89 0 -144 19q-15 5 -22 19t-7 49q0 68 27 68q4 0 42 -5.5t85 -5.5q56 0 77 10t27 45h-152q-25 0 -32.5 11.5t-7.5 46.5t7.5 46.5t32.5 11.5h155q-4 38 -22 47t-77 9q-33 0 -75 -5.5t-49 -5.5q-27 0 -27 68q0 35 6.5 48.5t22.5 19.5q55 19 151 19q69 0 108.5 -9
t68.5 -37t40 -78.5t11 -135.5q0 -83 -14.5 -134.5t-48 -77.5t-74.5 -34.5t-109 -8.5z" />
    <glyph glyph-name="afii10096" unicode="&#x44e;" horiz-adv-x="762" 
d="M498 -10q-113 0 -161 40.5t-55 158.5h-72v-144q0 -29 -17 -37t-68 -8t-68 8t-17 37v405q0 29 17 37t68 8t68 -8t17 -37v-125h73q11 110 62 145t169 35q85 0 129 -18.5t66.5 -72.5t22.5 -159q0 -85 -12 -136.5t-42 -80.5t-71 -38.5t-109 -9.5zM503 130q38 0 47.5 21
t9.5 97t-10.5 96.5t-41.5 20.5q-38 0 -47.5 -19t-9.5 -94q0 -77 11 -99.5t41 -22.5z" />
    <glyph glyph-name="afii10097" unicode="&#x44f;" horiz-adv-x="488" 
d="M90 0q-33 0 -50.5 5t-21 10.5t-3.5 14.5q0 17 22 53l61 100q-41 17 -56.5 53t-15.5 100q0 54 14 87.5t46.5 50t70 21.5t100.5 5q62 0 152 -10q26 -3 32.5 -10t6.5 -32v-403q0 -29 -17 -37t-68 -8t-68 8t-17 37v120h-29l-52 -118q-15 -32 -31 -39.5t-76 -7.5zM198 317
q0 -20 8.5 -25.5t33.5 -5.5h38v67q-1 0 -5 0.5t-12.5 1t-18.5 0.5q-25 0 -34.5 -8t-9.5 -30z" />
    <glyph glyph-name="afii10071" unicode="&#x451;" horiz-adv-x="488" 
d="M266 -10q-60 0 -98.5 8.5t-72.5 34.5t-49.5 78t-15.5 134q0 84 12.5 135.5t42.5 79t68 36.5t101 9q124 0 164 -51.5t40 -181.5q0 -38 -12 -55t-46 -17h-201q4 -43 19 -54.5t57 -11.5q34 0 67.5 3t54.5 5.5t25 2.5q27 0 27 -68q0 -35 -7 -49t-22 -19q-55 -19 -154 -19z
M252 365q-32 0 -42.5 -11.5t-12.5 -56.5h104q0 43 -9 55.5t-40 12.5zM144 528q-55 0 -70 11.5t-15 50.5v8q0 39 15 50.5t70 11.5t70 -11.5t15 -50.5v-8q0 -39 -15 -50.5t-70 -11.5zM344 528q-55 0 -70 11.5t-15 50.5v8q0 39 15 50.5t70 11.5t70 -11.5t15 -50.5v-8
q0 -39 -15 -50.5t-70 -11.5z" />
    <glyph glyph-name="afii10099" unicode="&#x452;" horiz-adv-x="515" 
d="M120 0q-51 0 -68 8t-17 37v460h-4q-23 0 -29 8.5t-6 37.5t6 37.5t29 8.5h4v18q0 29 17 37t68 8t68 -8t17 -37v-18h106q23 0 29 -8.5t6 -37.5t-6 -37.5t-29 -8.5h-106v-90q40 56 131 56q78 0 108.5 -33t30.5 -115v-391q0 -132 -131 -132q-54 0 -100 13q-19 5 -26.5 19.5
t-7.5 51.5q0 42 6.5 53t20.5 11q5 0 21 -1.5t22 -1.5q14 0 19.5 5t5.5 18v313q0 24 -7.5 34.5t-26.5 10.5q-37 0 -51.5 -33t-14.5 -119v-129q0 -29 -17 -37t-68 -8z" />
    <glyph glyph-name="afii10100" unicode="&#x453;" horiz-adv-x="370" 
d="M167 538q-37 0 -51.5 7t-14.5 23q0 21 7 49l11 49q9 37 25.5 48t73.5 11q52 0 68.5 -7t16.5 -25t-19 -62l-22 -49q-11 -25 -28.5 -34.5t-66.5 -9.5zM125 0q-51 0 -68 8t-17 37v410q0 25 9.5 32.5t35.5 7.5h235q23 0 31.5 -15t8.5 -59t-8.5 -59t-31.5 -15h-110v-302
q0 -29 -17 -37t-68 -8z" />
    <glyph glyph-name="afii10101" unicode="&#x454;" horiz-adv-x="474" 
d="M276 -10q-68 0 -109 8.5t-74.5 34.5t-48 77.5t-14.5 134.5q0 85 11 135.5t40 78.5t68.5 37t108.5 9q96 0 151 -19q16 -6 22.5 -19.5t6.5 -48.5q0 -68 -27 -68q-7 0 -49 5.5t-75 5.5q-60 0 -78 -9t-21 -47h155q25 0 32.5 -11.5t7.5 -46.5t-7.5 -46.5t-32.5 -11.5h-153
q6 -35 27.5 -45t77.5 -10q47 0 85 5.5t42 5.5q27 0 27 -68q0 -35 -7 -49t-22 -19q-55 -19 -144 -19z" />
    <glyph glyph-name="afii10102" unicode="&#x455;" horiz-adv-x="451" 
d="M206 -10q-90 0 -147 18q-15 5 -22 19.5t-7 49.5q0 68 27 68q1 0 46.5 -5.5t80.5 -5.5q65 0 65 22q0 14 -22 23l-93 40q-83 36 -83 134q0 44 17 75.5t46 47.5t58.5 22.5t63.5 6.5q86 0 151 -17q16 -4 22.5 -18t6.5 -55q0 -65 -30 -65q-4 0 -43 6.5t-69 6.5q-51 0 -51 -17
q0 -10 21 -19l90 -35q49 -19 68 -50t19 -82q0 -170 -215 -170z" />
    <glyph glyph-name="afii10103" unicode="&#x456;" horiz-adv-x="245" 
d="M120 0q-51 0 -68 8t-17 37v405q0 29 17 37t68 8t68 -8t17 -37v-405q0 -29 -17 -37t-68 -8zM120 528q-61 0 -75.5 11.5t-14.5 50.5v8q0 39 14.5 50.5t75.5 11.5t75.5 -11.5t14.5 -50.5v-8q0 -39 -14.5 -50.5t-75.5 -11.5z" />
    <glyph glyph-name="afii10104" unicode="&#x457;" horiz-adv-x="245" 
d="M120 0q-51 0 -68 8t-17 37v405q0 29 17 37t68 8t68 -8t17 -37v-405q0 -29 -17 -37t-68 -8zM23 528q-55 0 -70 11.5t-15 50.5v8q0 39 15 50.5t70 11.5t70 -11.5t15 -50.5v-8q0 -39 -15 -50.5t-70 -11.5zM223 528q-55 0 -70 11.5t-15 50.5v8q0 39 15 50.5t70 11.5t70 -11.5
t15 -50.5v-8q0 -39 -15 -50.5t-70 -11.5z" />
    <glyph glyph-name="afii10105" unicode="&#x458;" horiz-adv-x="245" 
d="M120 495q51 0 68 -8t17 -37v-518q0 -132 -131 -132q-54 0 -100 13q-19 5 -26.5 19.5t-7.5 51.5q0 42 6.5 53t20.5 11q5 0 21 -1.5t22 -1.5q14 0 19.5 5t5.5 18v482q0 29 17 37t68 8zM120 528q-61 0 -75.5 11.5t-14.5 50.5v8q0 39 14.5 50.5t75.5 11.5t75.5 -11.5
t14.5 -50.5v-8q0 -39 -14.5 -50.5t-75.5 -11.5z" />
    <glyph glyph-name="afii10106" unicode="&#x459;" horiz-adv-x="752" 
d="M119 -5q-47 0 -82 7q-18 4 -25 20t-7 61q0 26 3.5 39t8 15.5t13.5 2.5q5 0 12.5 -1t12.5 -1q13 0 19.5 6t9.5 27l42 279q4 29 15.5 37t41.5 8h257q26 0 35.5 -7.5t9.5 -32.5v-108h46q122 0 162.5 -33t40.5 -134q0 -62 -14 -100t-46.5 -56t-69 -23.5t-98.5 -5.5
q-80 0 -152 10q-26 4 -32.5 11t-6.5 31v307h-47l-39 -271q-7 -50 -33.5 -69t-76.5 -19zM523 217h-38v-83q1 0 5 -0.5t12.5 -1t18.5 -0.5q25 0 34.5 8.5t9.5 33.5t-9 34t-33 9z" />
    <glyph glyph-name="afii10107" unicode="&#x45a;" horiz-adv-x="737" 
d="M125 0q-51 0 -68 8t-17 37v405q0 29 17 37t68 8t68 -8t17 -37v-128h90v128q0 29 17 37t68 8t68 -8t17 -37v-103h46q122 0 162.5 -33t40.5 -134q0 -62 -14 -100t-46.5 -56t-69 -23.5t-98.5 -5.5q-80 0 -152 10q-26 4 -32.5 11t-6.5 31v137h-90v-139q0 -29 -17 -37t-68 -8z
M508 217h-38v-83q1 0 5 -0.5t12.5 -1t18.5 -0.5q25 0 34.5 8.5t9.5 33.5t-9 34t-33 9z" />
    <glyph glyph-name="afii10108" unicode="&#x45b;" horiz-adv-x="515" 
d="M-4 551q0 29 6 37.5t29 8.5h4v18q0 29 17 37t68 8t68 -8t17 -37v-18h106q23 0 29 -8.5t6 -37.5t-6 -37.5t-29 -8.5h-106v-90q40 56 131 56q78 0 108.5 -33t30.5 -115v-278q0 -29 -17 -37t-68 -8t-68 8t-17 37v236q0 24 -7.5 34.5t-26.5 10.5q-37 0 -51.5 -33t-14.5 -119
v-129q0 -29 -17 -37t-68 -8t-68 8t-17 37v460h-4q-23 0 -29 8.5t-6 37.5z" />
    <glyph glyph-name="afii10109" unicode="&#x45c;" horiz-adv-x="502" 
d="M216 538q-37 0 -51.5 7t-14.5 23q0 21 7 49l11 49q9 37 25.5 48t73.5 11q52 0 68.5 -7t16.5 -25t-19 -62l-22 -49q-11 -25 -28.5 -34.5t-66.5 -9.5zM125 0q-51 0 -68 8t-17 37v405q0 29 17 37t68 8t68 -8t17 -37v-141h14l65 145q12 27 30.5 34t75.5 7q47 0 65 -6t18 -21
q0 -19 -13 -43l-91 -166l105 -189q13 -22 13 -36q0 -34 -89 -34q-50 0 -69 7.5t-31 33.5l-79 167h-14v-163q0 -29 -17 -37t-68 -8z" />
    <glyph glyph-name="afii10110" unicode="&#x45e;" horiz-adv-x="499" 
d="M10 454q0 21 16.5 31t71.5 10q54 0 71 -8t21 -36l46 -314h14l58 314q5 28 22 36t69 8q55 0 72.5 -9t17.5 -31q0 -19 -23 -111l-93 -362q-29 -111 -69 -146.5t-140 -35.5q-75 0 -124 19q-16 6 -22.5 19.5t-6.5 48.5q0 68 27 68q1 0 36.5 -5.5t70.5 -5.5q45 0 59 9t19 33
l2 14h-14q-63 0 -84.5 13t-29.5 47l-64 275q-23 98 -23 119zM249 538q-80 0 -116.5 31t-36.5 110q0 29 10.5 37t44.5 8q33 0 43 -6t13 -26q2 -19 9.5 -25.5t32.5 -6.5t32.5 6.5t9.5 25.5q3 20 13 26t43 6q34 0 44.5 -8t10.5 -37q0 -79 -36.5 -110t-116.5 -31z" />
    <glyph glyph-name="afii10193" unicode="&#x45f;" horiz-adv-x="510" 
d="M255 -100q-36 0 -44.5 7t-10.5 38l-4 55h-111q-26 0 -35.5 7.5t-9.5 32.5v410q0 29 17 37t68 8t68 -8t17 -37v-312h90v312q0 29 17 37t68 8t68 -8t17 -37v-410q0 -25 -9.5 -32.5t-35.5 -7.5h-111l-4 -55q-2 -31 -10.5 -38t-44.5 -7z" />
    <glyph glyph-name="afii10050" unicode="&#x490;" horiz-adv-x="410" 
d="M335 730q39 0 52 -8t13 -37v-158q0 -29 -12 -37t-48 -8h-130v-437q0 -29 -17 -37t-68 -8t-68 8t-17 37v545q0 25 9.5 32.5t35.5 7.5h157l20 55q11 29 23.5 37t49.5 8z" />
    <glyph glyph-name="afii10098" unicode="&#x491;" horiz-adv-x="370" 
d="M295 595q39 0 52 -8t13 -37v-158q0 -29 -12 -37t-48 -8h-90v-302q0 -29 -17 -37t-68 -8t-68 8t-17 37v410q0 25 9.5 32.5t35.5 7.5h117l20 55q11 29 23.5 37t49.5 8z" />
    <glyph glyph-name="Wgrave" unicode="&#x1e80;" horiz-adv-x="814" 
d="M217 0q-74 0 -104 13t-36 57l-63 470q-4 38 -4 51q0 23 14.5 31t66.5 8q57 0 76 -9t22 -41l37 -424h11l67 414q5 31 27 40.5t76 9.5t76 -9.5t27 -40.5l67 -414h11l37 424q3 32 22 41t76 9q52 0 66.5 -8t14.5 -31q0 -13 -4 -51l-63 -470q-6 -44 -36 -57t-104 -13
q-71 0 -103 15t-38 59l-44 297h-10l-44 -297q-6 -44 -38 -59t-103 -15zM422 673q-49 0 -66.5 9.5t-28.5 34.5l-22 49q-19 44 -19 62t16.5 25t68.5 7q57 0 73.5 -11t25.5 -48l11 -49q7 -28 7 -49q0 -16 -14.5 -23t-51.5 -7z" />
    <glyph glyph-name="wgrave" unicode="&#x1e81;" horiz-adv-x="726" 
d="M193 0q-74 0 -99.5 12t-30.5 48l-48 335q-5 38 -5 53q0 29 14.5 38t70.5 9q55 0 72 -8t19 -36l27 -300h13l42 292q4 25 24 33.5t71 8.5t71 -8.5t24 -33.5l42 -292h13l27 300q2 28 19 36t72 8q56 0 70.5 -9t14.5 -38q0 -15 -5 -53l-48 -335q-5 -36 -30.5 -48t-99.5 -12
q-78 0 -107.5 12.5t-34.5 47.5l-23 164h-10l-23 -164q-5 -35 -34.5 -47.5t-107.5 -12.5zM391 538q-49 0 -66.5 9.5t-28.5 34.5l-22 49q-19 44 -19 62t16.5 25t68.5 7q57 0 73.5 -11t25.5 -48l11 -49q7 -28 7 -49q0 -16 -14.5 -23t-51.5 -7z" />
    <glyph glyph-name="Wacute" unicode="&#x1e82;" horiz-adv-x="814" 
d="M217 0q-74 0 -104 13t-36 57l-63 470q-4 38 -4 51q0 23 14.5 31t66.5 8q57 0 76 -9t22 -41l37 -424h11l67 414q5 31 27 40.5t76 9.5t76 -9.5t27 -40.5l67 -414h11l37 424q3 32 22 41t76 9q52 0 66.5 -8t14.5 -31q0 -13 -4 -51l-63 -470q-6 -44 -36 -57t-104 -13
q-71 0 -103 15t-38 59l-44 297h-10l-44 -297q-6 -44 -38 -59t-103 -15zM392 673q-37 0 -51.5 7t-14.5 23q0 21 7 49l11 49q9 37 25.5 48t73.5 11q52 0 68.5 -7t16.5 -25t-19 -62l-22 -49q-11 -25 -28.5 -34.5t-66.5 -9.5z" />
    <glyph glyph-name="wacute" unicode="&#x1e83;" horiz-adv-x="726" 
d="M193 0q-74 0 -99.5 12t-30.5 48l-48 335q-5 38 -5 53q0 29 14.5 38t70.5 9q55 0 72 -8t19 -36l27 -300h13l42 292q4 25 24 33.5t71 8.5t71 -8.5t24 -33.5l42 -292h13l27 300q2 28 19 36t72 8q56 0 70.5 -9t14.5 -38q0 -15 -5 -53l-48 -335q-5 -36 -30.5 -48t-99.5 -12
q-78 0 -107.5 12.5t-34.5 47.5l-23 164h-10l-23 -164q-5 -35 -34.5 -47.5t-107.5 -12.5zM335 538q-37 0 -51.5 7t-14.5 23q0 21 7 49l11 49q9 37 25.5 48t73.5 11q52 0 68.5 -7t16.5 -25t-19 -62l-22 -49q-11 -25 -28.5 -34.5t-66.5 -9.5z" />
    <glyph glyph-name="Wdieresis" unicode="&#x1e84;" horiz-adv-x="814" 
d="M217 0q-74 0 -104 13t-36 57l-63 470q-4 38 -4 51q0 23 14.5 31t66.5 8q57 0 76 -9t22 -41l37 -424h11l67 414q5 31 27 40.5t76 9.5t76 -9.5t27 -40.5l67 -414h11l37 424q3 32 22 41t76 9q52 0 66.5 -8t14.5 -31q0 -13 -4 -51l-63 -470q-6 -44 -36 -57t-104 -13
q-71 0 -103 15t-38 59l-44 297h-10l-44 -297q-6 -44 -38 -59t-103 -15zM307 668q-55 0 -70 11.5t-15 50.5v8q0 39 15 50.5t70 11.5t70 -11.5t15 -50.5v-8q0 -39 -15 -50.5t-70 -11.5zM507 668q-55 0 -70 11.5t-15 50.5v8q0 39 15 50.5t70 11.5t70 -11.5t15 -50.5v-8
q0 -39 -15 -50.5t-70 -11.5z" />
    <glyph glyph-name="wdieresis" unicode="&#x1e85;" horiz-adv-x="726" 
d="M193 0q-74 0 -99.5 12t-30.5 48l-48 335q-5 38 -5 53q0 29 14.5 38t70.5 9q55 0 72 -8t19 -36l27 -300h13l42 292q4 25 24 33.5t71 8.5t71 -8.5t24 -33.5l42 -292h13l27 300q2 28 19 36t72 8q56 0 70.5 -9t14.5 -38q0 -15 -5 -53l-48 -335q-5 -36 -30.5 -48t-99.5 -12
q-78 0 -107.5 12.5t-34.5 47.5l-23 164h-10l-23 -164q-5 -35 -34.5 -47.5t-107.5 -12.5zM263 528q-55 0 -70 11.5t-15 50.5v8q0 39 15 50.5t70 11.5t70 -11.5t15 -50.5v-8q0 -39 -15 -50.5t-70 -11.5zM463 528q-55 0 -70 11.5t-15 50.5v8q0 39 15 50.5t70 11.5t70 -11.5
t15 -50.5v-8q0 -39 -15 -50.5t-70 -11.5z" />
    <glyph glyph-name="Eszett" unicode="&#x1e9e;" horiz-adv-x="515" 
d="M108 0q-51 0 -68 8t-17 37v390q0 110 50.5 155t177.5 45q77 0 148 -23q36 -12 53 -25.5t17 -37.5q0 -25 -17 -68l-50 -119l37 -49q38 -51 52 -82t14 -80q0 -80 -39.5 -115.5t-117.5 -35.5q-54 0 -92 10q-19 5 -25.5 20t-6.5 59q0 39 5.5 51.5t19.5 12.5q8 0 23 -1.5
t25 -1.5q31 0 31 24q0 17 -23 47l-41 51q-23 29 -23 58q0 24 10 50l43 110q-18 5 -47 5q-33 0 -43.5 -10.5t-10.5 -39.5v-400q0 -29 -17 -37t-68 -8z" />
    <glyph glyph-name="Ygrave" unicode="&#x1ef2;" horiz-adv-x="506" 
d="M253 0q-51 0 -68 8t-17 37v170l-136 307q-23 53 -23 70q0 38 72 38q64 0 83 -9t29 -41l57 -192h6l57 192q10 33 27.5 41.5t79.5 8.5q77 0 77 -36q0 -19 -23 -72l-136 -307v-170q0 -29 -17 -37t-68 -8zM268 673q-49 0 -66.5 9.5t-28.5 34.5l-22 49q-19 44 -19 62t16.5 25
t68.5 7q57 0 73.5 -11t25.5 -48l11 -49q7 -28 7 -49q0 -16 -14.5 -23t-51.5 -7z" />
    <glyph glyph-name="ygrave" unicode="&#x1ef3;" horiz-adv-x="499" 
d="M10 454q0 21 16.5 31t71.5 10q54 0 71 -8t21 -36l46 -314h14l58 314q5 28 22 36t69 8q55 0 72.5 -9t17.5 -31q0 -19 -23 -111l-93 -362q-29 -111 -69 -146.5t-140 -35.5q-75 0 -124 19q-16 6 -22.5 19.5t-6.5 48.5q0 68 27 68q1 0 36.5 -5.5t70.5 -5.5q45 0 59 9t19 33
l2 14h-14q-63 0 -84.5 13t-29.5 47l-64 275q-23 98 -23 119zM269 538q-49 0 -66.5 9.5t-28.5 34.5l-22 49q-19 44 -19 62t16.5 25t68.5 7q57 0 73.5 -11t25.5 -48l11 -49q7 -28 7 -49q0 -16 -14.5 -23t-51.5 -7z" />
    <glyph glyph-name="endash" unicode="&#x2013;" horiz-adv-x="428" 
d="M20 247q0 46 7 59.5t33 13.5h308q26 0 33 -13.5t7 -59.5t-7 -59.5t-33 -13.5h-308q-26 0 -33 13.5t-7 59.5z" />
    <glyph glyph-name="emdash" unicode="&#x2014;" horiz-adv-x="678" 
d="M20 247q0 46 7 59.5t33 13.5h558q26 0 33 -13.5t7 -59.5t-7 -59.5t-33 -13.5h-558q-26 0 -33 13.5t-7 59.5z" />
    <glyph glyph-name="afii00208" unicode="&#x2015;" horiz-adv-x="678" 
d="M20 247q0 46 7 59.5t33 13.5h558q26 0 33 -13.5t7 -59.5t-7 -59.5t-33 -13.5h-558q-26 0 -33 13.5t-7 59.5z" />
    <glyph glyph-name="quoteleft" unicode="&#x2018;" horiz-adv-x="207" 
d="M95 365q-54 0 -69.5 11t-15.5 50v26q0 51 24 112l13 32q17 42 33.5 53t62.5 11q29 0 39 -7t10 -22q0 -10 -6 -57t-6 -70v-78q0 -39 -15.5 -50t-69.5 -11z" />
    <glyph glyph-name="quoteright" unicode="&#x2019;" horiz-adv-x="207" 
d="M112 660q54 0 69.5 -11t15.5 -50v-26q0 -51 -24 -112l-13 -32q-17 -42 -33.5 -53t-62.5 -11q-29 0 -39 7t-10 22q0 10 6 57t6 70v78q0 39 15.5 50t69.5 11z" />
    <glyph glyph-name="quotesinglbase" unicode="&#x201a;" horiz-adv-x="207" 
d="M112 167q54 0 69.5 -11t15.5 -50v-27q0 -51 -24 -112l-13 -32q-17 -42 -33.5 -53t-62.5 -11q-29 0 -39 7t-10 22q0 10 6 57t6 70v79q0 39 15.5 50t69.5 11z" />
    <glyph glyph-name="quotedblleft" unicode="&#x201c;" horiz-adv-x="412" 
d="M95 365q-54 0 -69.5 11t-15.5 50v26q0 51 24 112l13 32q17 42 33.5 53t62.5 11q29 0 39 -7t10 -22q0 -10 -6 -57t-6 -70v-78q0 -39 -15.5 -50t-69.5 -11zM300 365q-54 0 -69.5 11t-15.5 50v26q0 51 24 112l13 32q17 42 33.5 53t62.5 11q29 0 39 -7t10 -22q0 -10 -6 -57
t-6 -70v-78q0 -39 -15.5 -50t-69.5 -11z" />
    <glyph glyph-name="quotedblright" unicode="&#x201d;" horiz-adv-x="412" 
d="M317 660q54 0 69.5 -11t15.5 -50v-26q0 -51 -24 -112l-13 -32q-17 -42 -33.5 -53t-62.5 -11q-29 0 -39 7t-10 22q0 10 6 57t6 70v78q0 39 15.5 50t69.5 11zM112 660q54 0 69.5 -11t15.5 -50v-26q0 -51 -24 -112l-13 -32q-17 -42 -33.5 -53t-62.5 -11q-29 0 -39 7t-10 22
q0 10 6 57t6 70v78q0 39 15.5 50t69.5 11z" />
    <glyph glyph-name="quotedblbase" unicode="&#x201e;" horiz-adv-x="412" 
d="M112 167q54 0 69.5 -11t15.5 -50v-27q0 -51 -24 -112l-13 -32q-17 -42 -33.5 -53t-62.5 -11q-29 0 -39 7t-10 22q0 10 6 57t6 70v79q0 39 15.5 50t69.5 11zM317 167q54 0 69.5 -11t15.5 -50v-27q0 -51 -24 -112l-13 -32q-17 -42 -33.5 -53t-62.5 -11q-29 0 -39 7t-10 22
q0 10 6 57t6 70v79q0 39 15.5 50t69.5 11z" />
    <glyph glyph-name="dagger" unicode="&#x2020;" horiz-adv-x="460" 
d="M230 -189q-48 0 -65.5 7.5t-17.5 32.5v443h-87q-26 0 -33 13.5t-7 59.5t7 59.5t33 13.5h87v110q0 25 17.5 32.5t65.5 7.5t65.5 -7.5t17.5 -32.5v-110h87q26 0 33 -13.5t7 -59.5t-7 -59.5t-33 -13.5h-87v-443q0 -25 -17.5 -32.5t-65.5 -7.5z" />
    <glyph glyph-name="daggerdbl" unicode="&#x2021;" horiz-adv-x="460" 
d="M230 -189q-48 0 -65.5 7.5t-17.5 32.5v110h-87q-26 0 -33 13.5t-7 59.5t7 59.5t33 13.5h87v187h-87q-26 0 -33 13.5t-7 59.5t7 59.5t33 13.5h87v110q0 25 17.5 32.5t65.5 7.5t65.5 -7.5t17.5 -32.5v-110h87q26 0 33 -13.5t7 -59.5t-7 -59.5t-33 -13.5h-87v-187h87
q26 0 33 -13.5t7 -59.5t-7 -59.5t-33 -13.5h-87v-110q0 -25 -17.5 -32.5t-65.5 -7.5z" />
    <glyph glyph-name="bullet" unicode="&#x2022;" horiz-adv-x="378" 
d="M189 102q-91 0 -125 34t-34 130q0 99 33 130t126 31t126 -31t33 -130q0 -96 -34 -130t-125 -34z" />
    <glyph glyph-name="ellipsis" unicode="&#x2026;" horiz-adv-x="633" 
d="M107 0q-54 0 -69.5 11t-15.5 50v45q0 39 15.5 50t69.5 11t69.5 -11t15.5 -50v-45q0 -39 -15.5 -50t-69.5 -11zM318 0q-54 0 -69.5 11t-15.5 50v45q0 39 15.5 50t69.5 11t69.5 -11t15.5 -50v-45q0 -39 -15.5 -50t-69.5 -11zM529 0q-54 0 -69.5 11t-15.5 50v45
q0 39 15.5 50t69.5 11t69.5 -11t15.5 -50v-45q0 -39 -15.5 -50t-69.5 -11z" />
    <glyph glyph-name="perthousand" unicode="&#x2030;" horiz-adv-x="872" 
d="M157 317q-82 0 -109.5 30.5t-27.5 127.5q0 95 29.5 125t107.5 30q79 0 108.5 -30t29.5 -125v-18l82 143q9 17 26.5 23.5t62.5 6.5q58 0 58 -21q0 -13 -18 -45l-147 -255q21 4 55 4q78 0 108 -29.5t30 -125.5q0 -97 -27.5 -127.5t-110.5 -30.5q-82 0 -109.5 30.5
t-27.5 127.5v7l-78 -135q-9 -17 -26.5 -23.5t-62.5 -6.5q-58 0 -58 21q0 14 18 45l147 255q-23 -4 -60 -4zM714 0q-82 0 -109.5 30.5t-27.5 127.5q0 95 29.5 125t107.5 30t108 -29.5t30 -125.5q0 -97 -27.5 -127.5t-110.5 -30.5zM414 94q19 0 24 11t5 51q0 41 -5 51.5
t-24 10.5t-23.5 -10.5t-4.5 -51.5q0 -40 5 -51t23 -11zM157 411q19 0 24 11t5 51q0 41 -5 51.5t-24 10.5t-23.5 -10.5t-4.5 -51.5q0 -40 5 -51t23 -11zM714 94q19 0 24 11t5 51q0 41 -5 51.5t-24 10.5t-23.5 -10.5t-4.5 -51.5q0 -40 5 -51t23 -11z" />
    <glyph glyph-name="guilsinglleft" unicode="&#x2039;" horiz-adv-x="325" 
d="M181 255v-8l87 -66q24 -18 30.5 -34.5t6.5 -67.5q0 -30 -7.5 -40.5t-21.5 -10.5q-11 0 -25 7l-171 95q-35 20 -47.5 41.5t-12.5 79.5t12.5 79.5t47.5 41.5l171 95q14 7 25 7q14 0 21.5 -10.5t7.5 -40.5q0 -51 -6.5 -67.5t-30.5 -34.5z" />
    <glyph glyph-name="guilsinglright" unicode="&#x203a;" horiz-adv-x="325" 
d="M305 251q0 -58 -12.5 -79.5t-47.5 -41.5l-171 -95q-14 -7 -25 -7q-14 0 -21.5 10.5t-7.5 40.5q0 51 6.5 67.5t30.5 34.5l87 66v8l-87 66q-24 18 -30.5 34.5t-6.5 67.5q0 30 7.5 40.5t21.5 10.5q11 0 25 -7l171 -95q35 -20 47.5 -41.5t12.5 -79.5z" />
    <glyph glyph-name="fraction" unicode="&#x2044;" 
d="M344 644q33 0 44 -4.5t11 -16.5q0 -16 -10 -45l-192 -539q-8 -22 -22.5 -30.5t-52.5 -8.5q-33 0 -44 4.5t-11 16.5q0 16 10 45l192 539q8 22 22.5 30.5t52.5 8.5z" />
    <glyph glyph-name="Euro" unicode="&#x20ac;" 
d="M359 283q0 -16 -17 -65q-6 -17 -22 -17h-89q1 -36 17 -46t62 -10q36 0 71 5.5t42 5.5q13 0 17.5 -11.5t4.5 -54.5t-5.5 -57.5t-18.5 -18.5q-66 -19 -158 -19q-39 0 -68.5 7.5t-58 28t-45.5 63.5t-20 107h-35q-17 0 -17 14q0 16 17 65q6 17 22 17h13v34h-35q-17 0 -17 14
q0 16 17 65q6 17 22 17h14q3 55 17 94.5t32.5 61t45.5 34t49 15.5t51 3q88 0 154 -19q14 -4 19 -17.5t5 -58.5q0 -28 -3 -43t-7.5 -19t-11.5 -4q-4 0 -41 5.5t-72 5.5q-44 0 -60.5 -12t-18.5 -46h133q17 0 17 -14q0 -16 -17 -65q-6 -17 -22 -17h-111v-34h111q17 0 17 -14z
" />
    <glyph glyph-name="hryvnia" unicode="&#x20b4;" 
d="M34 379q0 31 7 39.5t29 8.5h170q14 14 14 37q0 12 -11 16.5t-40 4.5q-26 0 -72 -4.5t-52 -4.5q-26 0 -26 66q0 45 6 59t24 19q58 15 165 15q84 0 119 -26.5t35 -94.5q0 -41 -24 -87h6q22 0 29 -8.5t7 -39.5t-7 -39.5t-29 -8.5h-73l-20 -24h93q22 0 29 -8.5t7 -39.5
t-7 -39.5t-29 -8.5h-171q-18 -19 -18 -42q0 -12 15 -18t61 -6q34 0 76 4.5t49 4.5q14 0 19.5 -12.5t5.5 -51.5q0 -44 -7 -59t-27 -20q-55 -16 -154 -16q-101 0 -143 32.5t-42 110.5q0 35 20 73q-21 0 -27.5 8.5t-6.5 39.5t7 39.5t29 8.5h69l20 24h-89q-22 0 -29 8.5t-7 39.5
z" />
    <glyph glyph-name="numero" unicode="&#x2116;" horiz-adv-x="914" 
d="M571 117q0 46 7 59.5t33 13.5h229q26 0 33 -13.5t7 -59.5t-7 -59.5t-33 -13.5h-229q-26 0 -33 13.5t-7 59.5zM720 240q-92 0 -127 39.5t-35 156.5q0 85 18.5 128.5t53 57t102.5 13.5q93 0 127.5 -37.5t34.5 -153.5q0 -65 -9 -105t-31.5 -62t-53 -29.5t-80.5 -7.5z
M723 348q26 0 31.5 15.5t5.5 74.5q0 60 -6 75t-27 15q-25 0 -30.5 -14t-5.5 -73q0 -61 5.5 -77t26.5 -16zM105 0q-51 0 -68 8t-17 37v540q0 29 17 37t68 8q35 0 54.5 -7.5t34.5 -35.5l135 -253h8v251q0 29 17 37t68 8t68 -8t17 -37v-540q0 -29 -15.5 -37t-65.5 -8
q-33 0 -48.5 7t-31.5 35l-148 254h-8v-251q0 -29 -17 -37t-68 -8z" />
    <glyph glyph-name="trademark" unicode="&#x2122;" horiz-adv-x="924" 
d="M199 230q-49 0 -62 7.5t-13 37.5v227h-64q-24 0 -32 10.5t-8 53.5t8 53.5t32 10.5h278q24 0 32 -10.5t8 -53.5t-8 -53.5t-32 -10.5h-64v-227q0 -30 -13 -37.5t-62 -7.5zM493 230q-49 0 -62 7.5t-13 37.5v297q0 37 17.5 47.5t82.5 10.5q58 0 79 -10.5t36 -49.5l28 -74
l28 74q15 40 35.5 50t79.5 10q65 0 82.5 -10.5t17.5 -47.5v-297q0 -30 -13 -37.5t-62 -7.5t-62 7.5t-13 37.5q0 1 3 148h-7l-21 -47q-15 -34 -25.5 -43t-42.5 -9t-42.5 9t-25.5 43l-21 47h-7q3 -147 3 -148q0 -30 -13 -37.5t-62 -7.5z" />
    <glyph glyph-name="minus" unicode="&#x2212;" 
d="M65 247q0 46 7 59.5t33 13.5h260q26 0 33 -13.5t7 -59.5t-7 -59.5t-33 -13.5h-260q-26 0 -33 13.5t-7 59.5z" />
    <glyph glyph-name="commaaccent" unicode="&#xf6c3;" horiz-adv-x="222" 
d="M71 -253q-29 0 -39 7t-10 22q0 10 5 52t5 63q0 39 15.5 50t69.5 11q50 0 67.5 -9.5t17.5 -35.5q0 -39 -18 -73l-27 -49q-13 -23 -28 -30.5t-58 -7.5z" />
    <glyph glyph-name="ruble" 
d="M153 0q-51 0 -68 8t-17 37v86h-19q-22 0 -29 8.5t-7 39.5t7 39.5t29 8.5h19v37h-19q-22 0 -29 8.5t-7 39.5t7 39.5t29 8.5h19v216q0 28 8 37.5t34 12.5q76 9 166 9q105 0 143 -34t38 -136q0 -65 -11.5 -104.5t-40.5 -61t-66.5 -28.5t-100.5 -7v-37h126q22 0 29 -8.5
t7 -39.5t-7 -39.5t-29 -8.5h-126v-86q0 -29 -17 -37t-68 -8zM238 515v-155q37 0 48.5 19t11.5 67q0 43 -7 57t-28 14q-9 0 -25 -2z" />
    </font>
</defs>
</svg>
