<?xml version="1.0" standalone="no"?>
<!DOCTYPE svg PUBLIC "-//W3C//DTD SVG 1.1//EN" "http://www.w3.org/Graphics/SVG/1.1/DTD/svg11.dtd" >
<svg xmlns="http://www.w3.org/2000/svg" xmlns:xlink="http://www.w3.org/1999/xlink" version="1.1">
<metadata>
Created by FontForge 20161013 at Fri Nov 30 21:20:50 2012
 By ,,,
Copyright (c) 2012 by Manuel Eduardo Corradine - Sergio Rami'rez. All rights reserved.
</metadata>
<defs>
<font id="Neuron-Regular" horiz-adv-x="463" >
  <font-face 
    font-family="Neuron"
    font-weight="400"
    font-stretch="normal"
    units-per-em="1000"
    panose-1="0 0 0 0 0 0 0 0 0 0"
    ascent="800"
    descent="-200"
    x-height="491"
    cap-height="615"
    bbox="-56 -237 861 854"
    underline-thickness="50"
    underline-position="-200"
    unicode-range="U+000D-F6C3"
  />
<missing-glyph horiz-adv-x="500" 
d="M75 0v561h350v-561h-350zM85 11h330v539h-330v-539zM324 349l-70 -69l70 -69l-5 -4l-69 69l-68 -69l-5 4l69 69l-69 69l4 5l69 -69l70 69z" />
    <glyph glyph-name=".notdef" horiz-adv-x="500" 
d="M75 0v561h350v-561h-350zM85 11h330v539h-330v-539zM324 349l-70 -69l70 -69l-5 -4l-69 69l-68 -69l-5 4l69 69l-69 69l4 5l69 -69l70 69z" />
    <glyph glyph-name=".null" horiz-adv-x="0" 
 />
    <glyph glyph-name="nonmarkingreturn" horiz-adv-x="333" 
 />
    <glyph glyph-name="NULL" horiz-adv-x="0" 
 />
    <glyph glyph-name="NULL" horiz-adv-x="0" 
 />
    <glyph glyph-name="CR" unicode="&#xd;" horiz-adv-x="424" 
 />
    <glyph glyph-name="space" unicode=" " horiz-adv-x="202" 
 />
    <glyph glyph-name="exclam" unicode="!" horiz-adv-x="203" 
d="M101 145q-23 0 -29.5 5t-6.5 21q0 66 -3.5 205.5t-3.5 212.5q0 16 9 21t34 5t34 -5t9 -21q0 -73 -3.5 -212.5t-3.5 -205.5q0 -16 -6.5 -21t-29.5 -5zM101 0q-27 0 -35.5 6t-8.5 25v26q0 19 8.5 25t35.5 6q28 0 36.5 -6t8.5 -25v-26q0 -19 -8.5 -25t-36.5 -6z" />
    <glyph glyph-name="quotedbl" unicode="&#x22;" horiz-adv-x="261" 
d="M68 410q-17 0 -22.5 4t-7.5 16q-13 104 -13 157q0 17 8 22.5t35 5.5q26 0 34 -5.5t8 -22.5q0 -53 -13 -157q-1 -12 -6.5 -16t-22.5 -4zM193 410q-17 0 -23 4t-7 16q-13 125 -13 157q0 17 8 22.5t35 5.5t35 -5.5t8 -22.5q0 -32 -13 -157q-1 -12 -7 -16t-23 -4z" />
    <glyph glyph-name="numbersign" unicode="#" 
d="M310 38q-22 0 -29 5t-7 22v118h-89v-118q0 -18 -7 -22.5t-29 -4.5t-28.5 5t-6.5 22v118h-60q-17 0 -22 5.5t-5 26.5t5 26.5t22 5.5h60v140h-60q-17 0 -22 6t-5 27t5 26.5t22 5.5h60v104q0 18 6.5 22.5t28.5 4.5t29 -4.5t7 -22.5v-104h89v104q0 17 7 22t29 5t29 -4.5
t7 -22.5v-104h62q17 0 22 -5.5t5 -26.5t-5 -27t-22 -6h-62v-140h62q17 0 22 -5.5t5 -26.5t-5 -26.5t-22 -5.5h-62v-118q0 -18 -7 -22.5t-29 -4.5zM185 387v-140h89v140h-89z" />
    <glyph glyph-name="dollar" unicode="$" 
d="M241 724q25 0 32 -5t7 -22v-80q62 -5 98 -16q13 -3 18.5 -11t5.5 -29q0 -20 -4 -27t-13 -7q-4 0 -24 4.5t-51.5 9.5t-63.5 5q-63 0 -84.5 -15t-21.5 -70q0 -34 10 -49t36 -27l139 -61q53 -24 72.5 -58.5t19.5 -98.5q0 -159 -154 -174v-81q0 -17 -7 -22t-32 -5
q-24 0 -31 5t-7 22v79q-69 3 -115 17q-14 4 -20 12.5t-6 28.5q0 21 3.5 27.5t13.5 6.5q2 0 50 -9t93 -9q70 0 100.5 22t30.5 74q0 40 -11 60.5t-40 33.5l-129 57q-55 24 -76 55t-21 95q0 87 38 120.5t106 36.5v78q0 17 7 22t31 5z" />
    <glyph glyph-name="percent" unicode="%" horiz-adv-x="490" 
d="M356 0q-70 0 -91.5 27t-21.5 108t22 108t91 27q68 0 90.5 -27t22.5 -108t-21.5 -108t-91.5 -27zM356 55q32 0 40 14.5t8 65.5q0 52 -7.5 66t-40.5 14t-41 -14.5t-8 -65.5t8 -65.5t41 -14.5zM134 345q-70 0 -91.5 27.5t-21.5 108.5t22 107.5t91 26.5t91 -26.5t22 -107.5
t-21.5 -108.5t-91.5 -27.5zM134 400q32 0 40 14.5t8 65.5q0 52 -7.5 66.5t-40.5 14.5t-41 -14.5t-8 -66.5q0 -51 8 -65.5t41 -14.5zM66 0q-29 0 -29 14q0 8 9 25l327 558q6 11 15 14.5t32 3.5q30 0 30 -13q0 -10 -10 -26l-327 -558q-6 -11 -15 -14.5t-32 -3.5z" />
    <glyph glyph-name="ampersand" unicode="&#x26;" horiz-adv-x="516" 
d="M484 280h-55v-144q0 -84 -45 -114.5t-142 -30.5q-107 0 -151 39.5t-44 134.5q0 71 28.5 107.5t99.5 41.5q-103 18 -103 148q0 91 37 124.5t111 33.5q86 0 155 -20q12 -3 16 -9.5t4 -27.5q0 -20 -4 -26.5t-14 -6.5q-3 0 -54 8.5t-90 8.5q-45 0 -60.5 -18t-15.5 -76
q0 -55 25 -82t103 -27h69v62q0 17 6.5 22t29.5 5t29.5 -5t6.5 -22v-62h58q16 0 21 -6.5t5 -25.5t-5 -25.5t-21 -6.5zM243 63q62 0 86.5 16.5t24.5 64.5v136h-71q-49 0 -80.5 -7.5t-46.5 -24t-20 -34.5t-5 -46q0 -57 22 -81t90 -24z" />
    <glyph glyph-name="quotesingle" unicode="'" horiz-adv-x="136" 
d="M68 410q-17 0 -22.5 4t-7.5 16q-13 104 -13 157q0 17 8 22.5t35 5.5q26 0 34 -5.5t8 -22.5q0 -53 -13 -157q-1 -12 -6.5 -16t-22.5 -4z" />
    <glyph glyph-name="parenleft" unicode="(" horiz-adv-x="201" 
d="M46 303q0 197 69 348q10 20 42 20q30 0 30 -18q0 -8 -14.5 -53.5t-29.5 -125.5t-15 -171t15 -171t29.5 -125.5t14.5 -53.5q0 -17 -30 -17q-33 0 -42 20q-69 151 -69 347z" />
    <glyph glyph-name="parenright" unicode=")" horiz-adv-x="201" 
d="M155 303q0 -196 -69 -347q-6 -12 -14.5 -16t-28.5 -4q-29 0 -29 17q0 8 14.5 54t29 125.5t14.5 170.5t-14.5 171t-29 125.5t-14.5 53.5q0 18 29 18q32 0 43 -20q69 -151 69 -348z" />
    <glyph glyph-name="asterisk" unicode="*" horiz-adv-x="388" 
d="M194 620q21 0 27.5 -4.5t6.5 -18.5v-87q0 -16 -6 -25q7 7 23 13l78 26q12 4 18.5 -1t13.5 -25q6 -21 4 -28t-15 -12l-78 -25q-13 -5 -24 -3q9 -4 19 -17l51 -71q8 -9 5 -17.5t-20 -20.5t-25 -12.5t-15 10.5l-52 71q-11 12 -12 23q-1 -10 -10 -23l-52 -71
q-7 -11 -15 -10.5t-26 12.5q-17 12 -20 20.5t5 17.5l52 71q9 11 20 17q-11 -3 -26 3l-78 25q-12 4 -14.5 11.5t3.5 28.5q7 20 13.5 25t18.5 1l78 -26q16 -6 22 -12q-4 8 -4 24v87q0 14 6.5 18.5t27.5 4.5z" />
    <glyph glyph-name="plus" unicode="+" 
d="M231 94q-22 0 -29.5 5t-7.5 20v116h-104q-16 0 -21 6t-5 28q0 23 5 29t21 6h104v116q0 16 7.5 21t29.5 5q23 0 30.5 -5t7.5 -21v-116h104q15 0 20 -6t5 -29q0 -22 -5 -28t-20 -6h-104v-116q0 -15 -7.5 -20t-30.5 -5z" />
    <glyph glyph-name="comma" unicode="," horiz-adv-x="157" 
d="M75 93q27 0 34.5 -6t7.5 -25v-28q0 -32 -13 -78l-16 -59q-7 -17 -15 -22t-28 -5q-16 0 -21 3t-5 12q0 6 6.5 51t6.5 74v52q0 19 8 25t35 6z" />
    <glyph glyph-name="hyphen" unicode="-" horiz-adv-x="317" 
d="M36 264q0 23 5 30t20 7h195q15 0 20 -7t5 -30t-5 -30t-20 -7h-195q-15 0 -20 7t-5 30z" />
    <glyph glyph-name="period" unicode="." horiz-adv-x="174" 
d="M87 0q-27 0 -36 6t-9 25v31q0 19 9 25t36 6q28 0 36.5 -6t8.5 -25v-31q0 -19 -8.5 -25t-36.5 -6z" />
    <glyph glyph-name="slash" unicode="/" horiz-adv-x="262" 
d="M212 671q36 0 36 -18q0 -4 -6 -34l-147 -657q-6 -25 -44 -25q-36 0 -36 17q0 4 6 34l148 657q5 26 43 26z" />
    <glyph glyph-name="zero" unicode="0" 
d="M231 63q71 0 93.5 34t22.5 146v123q0 117 -20.5 149.5t-95.5 32.5q-71 0 -93 -33.5t-22 -148.5v-123q0 -114 20.5 -147t94.5 -33zM231 -9q-76 0 -116.5 19t-61 71t-20.5 150v142q0 79 11.5 128t38 75t60 35t88.5 9q79 0 119.5 -19t59.5 -72t19 -156v-142q0 -76 -12 -124
t-39 -73t-60.5 -34t-86.5 -9z" />
    <glyph glyph-name="one" unicode="1" 
d="M369 0h-272q-15 0 -20 7.5t-5 29.5q0 23 5 30.5t20 7.5h94v454l-86 -27q-13 -4 -22 -4q-15 0 -15 37q0 21 3.5 29t14.5 11l106 34q16 6 41 6t33 -5t8 -21v-514h95q15 0 20 -7.5t5 -30.5q0 -22 -5 -29.5t-20 -7.5z" />
    <glyph glyph-name="two" unicode="2" 
d="M144 75h240q15 0 20 -7.5t5 -30.5q0 -22 -5 -29.5t-20 -7.5h-305q-15 0 -20.5 6t-5.5 24v65q0 52 18.5 82t67.5 76l137 128q23 22 32 37.5t9 44.5q0 55 -19 69.5t-81 14.5q-42 0 -87.5 -9.5t-46.5 -9.5q-9 0 -12 6.5t-3 26.5t5.5 28t18.5 12q63 19 147 19q38 0 62 -4
t49.5 -18t38 -46t12.5 -82q0 -28 -5 -48.5t-21 -42t-28.5 -34t-45.5 -42.5l-115 -106q-16 -15 -23 -23.5t-13 -25t-6 -39.5v-34z" />
    <glyph glyph-name="three" unicode="3" 
d="M235 -9q-95 0 -162 19q-14 4 -20 11.5t-6 27.5q0 21 3.5 27.5t13.5 6.5q2 0 57 -9t98 -9q66 0 88 25.5t22 81.5t-31.5 82t-130.5 26q-15 0 -20 7.5t-5 27.5t5 27.5t20 7.5q84 0 116.5 26.5t32.5 79.5q0 56 -18 73.5t-77 17.5q-39 0 -87.5 -9t-51.5 -9q-9 0 -13 7t-4 27
q0 32 24 38q65 19 157 19q79 0 117 -33t38 -125q0 -125 -113 -145q70 -5 97.5 -41t27.5 -107q0 -93 -43.5 -135.5t-134.5 -42.5z" />
    <glyph glyph-name="four" unicode="4" 
d="M329 0q-26 0 -34 5.5t-8 21.5v132h-230q-18 0 -23.5 7.5t-5.5 34.5q0 28 10 45l195 340q11 19 25 24t52 5q36 0 48 -5t12 -21v-359h40q15 0 20 -6.5t5 -28.5q0 -23 -5 -29.5t-20 -6.5h-40v-132q0 -16 -8 -21.5t-33 -5.5zM285 541l-173 -311h178l1 311h-6z" />
    <glyph glyph-name="five" unicode="5" 
d="M215 -9q-68 0 -133 20q-14 3 -19.5 10t-5.5 27q0 22 3.5 28t12.5 6l43 -10q43 -9 85 -9q75 0 98.5 21.5t23.5 92.5v33q0 62 -19 80t-73 18q-39 0 -83.5 -9t-52.5 -9q-15 0 -22.5 4t-7.5 20v276q0 15 6 20t24 5h265q15 0 20 -7t5 -30t-5 -30.5t-20 -7.5h-218v-175
q50 13 104 13q30 0 47.5 -1.5t41.5 -10.5t37.5 -25.5t23 -49t9.5 -78.5v-42q0 -58 -14 -95.5t-42.5 -55t-58.5 -23.5t-75 -6z" />
    <glyph glyph-name="six" unicode="6" 
d="M229 -9q-50 0 -80 7.5t-56 32t-37.5 74t-11.5 129.5v128q0 68 12 117t30 76t47 42t54.5 19t61.5 4q60 0 112 -13q14 -3 18.5 -9.5t4.5 -28.5q0 -34 -16 -34q-2 0 -43 6.5t-69 6.5q-29 0 -45 -2t-35 -12t-29 -29.5t-16.5 -56t-6.5 -89.5v-41q32 59 140 59q84 0 119 -38
t35 -152q0 -110 -44.5 -153t-144.5 -43zM230 63q60 0 84.5 23t24.5 96q0 77 -19 101.5t-83 24.5q-60 0 -86.5 -21.5t-26.5 -78.5q0 -93 22 -119t84 -26z" />
    <glyph glyph-name="seven" unicode="7" 
d="M167 0q-36 0 -36 18q0 12 8 32l182 490h-249q-15 0 -20 7.5t-5 30.5t5 30t20 7h309q18 0 24 -7.5t6 -34.5q0 -15 -10 -45l-187 -506q-8 -22 -47 -22z" />
    <glyph glyph-name="eight" unicode="8" 
d="M231 -9q-111 0 -150.5 39t-39.5 144q0 121 79 150q-65 29 -65 141q0 52 12.5 84.5t39.5 47t54 19t70 4.5t70 -4.5t54 -19t39.5 -47t12.5 -84.5q0 -111 -65 -141q80 -30 80 -150q0 -105 -40 -144t-151 -39zM231 62q66 0 87 21.5t21 95.5q0 70 -23 90t-85 20t-85 -20
t-23 -90q0 -74 21 -95.5t87 -21.5zM231 358q57 0 76 17t19 82q0 61 -19.5 77.5t-75.5 16.5t-75 -16.5t-19 -77.5q0 -65 18.5 -82t75.5 -17z" />
    <glyph glyph-name="nine" unicode="9" 
d="M203 -9q-35 0 -107 13q-15 3 -20 10t-5 29q0 34 17 34q2 0 38 -7t66 -7q35 0 53.5 2.5t38.5 12.5t29 30t15 55.5t6 89.5v36q-31 -55 -135 -55q-84 0 -117.5 38t-33.5 153q0 111 41 153t140 42q50 0 80 -7.5t56 -32t37.5 -74t11.5 -129.5v-127q0 -71 -12 -120.5t-29 -76
t-47.5 -41t-56.5 -18t-66 -3.5zM225 304q59 0 84 21.5t25 78.5q0 96 -20 121t-85 25q-60 0 -81.5 -22.5t-21.5 -97.5q0 -78 18 -102t81 -24z" />
    <glyph glyph-name="colon" unicode=":" horiz-adv-x="174" 
d="M87 0q-27 0 -36 6t-9 25v31q0 19 9 25t36 6q28 0 36.5 -6t8.5 -25v-31q0 -19 -8.5 -25t-36.5 -6zM87 405q-27 0 -36 6t-9 25v31q0 19 9 25t36 6q28 0 36.5 -6t8.5 -25v-31q0 -19 -8.5 -25t-36.5 -6z" />
    <glyph glyph-name="semicolon" unicode=";" horiz-adv-x="160" 
d="M72 93q27 0 34.5 -6t7.5 -25v-28q0 -32 -13 -78l-16 -59q-7 -17 -15 -22t-28 -5q-16 0 -21 3t-5 12q0 6 6.5 51t6.5 74v52q0 19 8 25t35 6zM73 405q-27 0 -36 6t-9 25v31q0 19 9 25t36 6q28 0 36.5 -6t8.5 -25v-31q0 -19 -8.5 -25t-36.5 -6z" />
    <glyph glyph-name="less" unicode="&#x3c;" 
d="M135 264l204 -75q21 -7 26 -15.5t5 -35.5q0 -21 -4 -27.5t-14 -6.5q-11 0 -22 5l-237 95q-19 7 -25 19.5t-6 45.5t6 44.5t25 19.5l237 95q15 5 22 5q18 0 18 -35q0 -27 -5 -34.5t-26 -15.5l-204 -76v-8z" />
    <glyph glyph-name="equal" unicode="=" 
d="M81 201q0 23 5 29t20 6h250q15 0 20 -6t5 -29q0 -22 -4.5 -28t-20.5 -6h-250q-16 0 -20.5 6t-4.5 28zM81 345q0 22 5 28t20 6h250q15 0 20 -6t5 -28q0 -23 -5 -29t-20 -6h-250q-15 0 -20 6t-5 29z" />
    <glyph glyph-name="greater" unicode="&#x3e;" 
d="M123 189l204 75v8l-204 76q-21 8 -26 15.5t-5 34.5q0 35 18 35q7 0 22 -5l237 -95q19 -8 25 -19.5t6 -44.5t-6 -45.5t-25 -19.5l-237 -95q-11 -5 -22 -5q-10 0 -14 6.5t-4 27.5q0 27 5 35.5t26 15.5z" />
    <glyph glyph-name="question" unicode="?" horiz-adv-x="360" 
d="M154 145q-23 0 -30.5 5t-7.5 21v35q0 39 8.5 60.5t29.5 44.5l75 82q30 32 30 83q0 46 -19.5 58.5t-78.5 12.5q-40 0 -83 -9t-44 -9q-10 0 -13.5 6t-3.5 27q0 20 5.5 27.5t19.5 11.5q62 19 138 19q37 0 62 -4t50.5 -17t38 -40.5t12.5 -70.5q0 -48 -12.5 -75.5t-41.5 -58.5
l-71 -78q-25 -28 -25 -76v-29q0 -16 -8 -21t-31 -5zM154 0q-27 0 -36 6t-9 25v26q0 19 9 25t36 6q28 0 36.5 -6t8.5 -25v-26q0 -19 -8.5 -25t-36.5 -6z" />
    <glyph glyph-name="at" unicode="@" horiz-adv-x="818" 
d="M370 -10q-97 0 -128 52t-31 205q0 105 20 161t56 74.5t101 18.5q96 0 126 -68v32q0 17 7 21.5t32 4.5q24 0 31 -4.5t7 -21.5v-324q0 -87 55 -87q35 0 51 30t16 119v104q0 93 -15 149t-54 87t-92.5 41.5t-144.5 10.5q-89 0 -143.5 -11.5t-92 -45t-52.5 -91.5t-15 -152
v-107q0 -90 16.5 -147t56 -90t94 -45t140.5 -12q15 0 20.5 -6.5t5.5 -27.5t-6 -27.5t-25 -6.5q-101 0 -168 16t-116.5 56.5t-72 112t-22.5 181.5v98q0 112 21.5 184t71 113.5t117 57.5t170.5 16q104 0 171.5 -14.5t117.5 -53t72 -108t22 -176.5v-105q0 -66 -12.5 -111
t-36 -66t-47 -29t-54.5 -8q-49 0 -76.5 20.5t-40.5 67.5q-34 -88 -153 -88zM389 61q66 0 93.5 28t27.5 117v78q0 84 -21 115.5t-86 31.5q-45 0 -66.5 -14t-31 -54t-9.5 -123q0 -112 17.5 -145.5t75.5 -33.5z" />
    <glyph glyph-name="A" unicode="A" horiz-adv-x="517" 
d="M57 0q-23 0 -31.5 4t-8.5 15q0 10 5 26l159 534q7 24 20.5 30t56.5 6q44 0 57.5 -6t20.5 -30l158 -534q5 -16 5 -26t-8 -14.5t-31 -4.5q-26 0 -34.5 4.5t-12.5 17.5l-48 162h-216l-46 -162q-4 -13 -12.5 -17.5t-33.5 -4.5zM252 543l-84 -293h180l-83 293h-13z" />
    <glyph glyph-name="B" unicode="B" horiz-adv-x="512" 
d="M257 -9q-91 0 -162 8q-20 2 -26.5 9t-6.5 23v548q0 29 29 33q63 8 144 8q48 0 76.5 -2t57 -10.5t42 -24.5t22.5 -43.5t9 -69.5q0 -62 -16 -96t-56 -48q51 -12 72.5 -49t21.5 -111q0 -100 -42 -137.5t-165 -37.5zM144 544v-189h97q73 0 94 19t21 88q0 58 -18.5 72.5
t-94.5 14.5q-57 0 -99 -5zM144 290v-224q35 -5 116 -5q79 0 98.5 19.5t19.5 94.5q0 71 -22 93t-94 22h-118z" />
    <glyph glyph-name="C" unicode="C" horiz-adv-x="451" 
d="M256 -9q-31 0 -51.5 1.5t-44.5 7.5t-39.5 17.5t-30.5 31.5t-23.5 48.5t-13.5 70.5t-5 96v76q0 64 6 111t19.5 77.5t29 49t42 27.5t51 12t62.5 3q70 0 135 -19q14 -3 19 -10t5 -29q0 -33 -16 -33q-4 0 -22 4.5t-47 9t-58 4.5q-62 0 -89 -12t-40.5 -57.5t-13.5 -146.5v-50
q0 -51 3 -86.5t11 -60t17 -38t27.5 -20.5t36 -9t48.5 -2t59.5 4.5t46 9t21.5 4.5q9 0 12.5 -6.5t3.5 -26.5q0 -21 -5.5 -28.5t-18.5 -11.5q-71 -19 -137 -19z" />
    <glyph glyph-name="D" unicode="D" horiz-adv-x="524" 
d="M252 65q46 0 68.5 5t41.5 27t25 65t6 119v57q0 73 -7 114.5t-27 63.5t-45.5 27.5t-74.5 5.5q-40 0 -95 -5v-474q45 -5 108 -5zM252 -9q-83 0 -156 8q-20 2 -27 9t-7 23v548q0 28 29 33q58 8 146 8q39 0 65 -2t53.5 -8t44.5 -18t33 -32.5t24.5 -50.5t13.5 -71.5t5 -97.5
v-59q0 -67 -6.5 -115.5t-21 -80t-31.5 -50.5t-45.5 -28.5t-54 -12.5t-65.5 -3z" />
    <glyph glyph-name="E" unicode="E" horiz-adv-x="455" 
d="M425 37q0 -22 -5 -29.5t-20 -7.5h-308q-18 0 -24 5t-6 20v565q0 15 6 20t24 5h298q15 0 20 -7t5 -30t-5 -30.5t-20 -7.5h-246v-179h191q15 0 20 -6.5t5 -29.5t-5 -30t-20 -7h-191v-213h256q15 0 20 -7.5t5 -30.5z" />
    <glyph glyph-name="F" unicode="F" horiz-adv-x="422" 
d="M103 0q-25 0 -33 5.5t-8 21.5v563q0 15 6 20t24 5h291q15 0 20 -7t5 -30t-5 -30.5t-20 -7.5h-239v-179h183q16 0 21 -6.5t5 -29.5t-5 -30t-21 -7h-183v-261q0 -16 -8 -21.5t-33 -5.5z" />
    <glyph glyph-name="G" unicode="G" horiz-adv-x="491" 
d="M248 -9q-43 0 -69 3.5t-54.5 18.5t-44 43.5t-25.5 80.5t-10 127v76q0 64 6 111t19.5 77.5t29.5 49t42.5 27.5t51 12t62.5 3q79 0 144 -19q14 -3 19 -10t5 -29q0 -20 -3 -26.5t-12 -6.5q-4 0 -25 4.5t-52.5 9t-60.5 4.5q-38 0 -59 -3.5t-40 -14.5t-27.5 -35.5t-13 -62.5
t-4.5 -100v-50q0 -76 6.5 -120t25 -65t38.5 -26t60 -5q63 0 86.5 25.5t23.5 107.5v63h-96q-14 0 -18.5 7.5t-4.5 30.5q0 21 4.5 27.5t18.5 6.5h136q22 0 28.5 -5.5t6.5 -19.5v-122q0 -112 -43 -153.5t-151 -41.5z" />
    <glyph glyph-name="H" unicode="H" horiz-adv-x="519" 
d="M144 355h231v234q0 16 8 21t33 5t33 -5t8 -21v-562q0 -17 -8 -22t-33 -5t-33 5.5t-8 21.5v255h-231v-255q0 -16 -8 -21.5t-33 -5.5t-33 5.5t-8 21.5v562q0 16 8 21t33 5t33 -5t8 -21v-234z" />
    <glyph glyph-name="I" unicode="I" horiz-adv-x="206" 
d="M103 0q-25 0 -33 5.5t-8 21.5v562q0 16 8 21t33 5t33 -5t8 -21v-562q0 -16 -8 -21.5t-33 -5.5z" />
    <glyph glyph-name="J" unicode="J" horiz-adv-x="335" 
d="M129 -9q-54 0 -95 13q-14 4 -19.5 11.5t-5.5 27.5q0 21 3 26t13 5q4 0 33.5 -4.5t52.5 -4.5q47 0 63.5 18t16.5 72v434q0 16 8 21t33 5t33 -5t8 -21v-439q0 -84 -35.5 -121.5t-108.5 -37.5z" />
    <glyph glyph-name="K" unicode="K" horiz-adv-x="458" 
d="M103 0q-25 0 -33 5.5t-8 21.5v562q0 16 8 21t33 5t33 -5t8 -21v-246h14l180 253q8 12 17.5 15.5t36.5 3.5q40 0 40 -17q0 -11 -13 -29l-190 -255l200 -263q14 -19 14 -32q0 -10 -8 -14.5t-33 -4.5q-38 0 -52 19l-193 267h-13v-259q0 -16 -8 -21.5t-33 -5.5z" />
    <glyph glyph-name="L" unicode="L" horiz-adv-x="423" 
d="M144 75h236q15 0 20 -7.5t5 -30.5q0 -22 -5 -29.5t-20 -7.5h-288q-18 0 -24 5t-6 20v564q0 16 8 21t33 5t33 -5t8 -21v-514z" />
    <glyph glyph-name="M" unicode="M" horiz-adv-x="632" 
d="M103 0q-25 0 -33 5.5t-8 21.5v558q0 18 11 24t51 6q37 0 50.5 -6t22.5 -29l116 -316h6l116 316q9 23 23 29t51 6q39 0 50 -6t11 -24v-558q0 -16 -8 -21.5t-33 -5.5t-33 5.5t-8 21.5q0 322 1 477h-7l-117 -313q-7 -19 -16.5 -24.5t-32.5 -5.5t-32.5 5.5t-16.5 24.5
l-116 313h-8q1 -155 1 -477q0 -16 -8 -21.5t-33 -5.5z" />
    <glyph glyph-name="N" unicode="N" horiz-adv-x="543" 
d="M103 0q-25 0 -33 5.5t-8 21.5v562q0 16 11 21t48 5q33 0 45 -4t20 -22l203 -462h10v462q0 16 8 21t33 5t33 -5t8 -21v-562q0 -17 -10.5 -22t-47.5 -5q-31 0 -42.5 4.5t-19.5 21.5l-207 463h-10v-462q0 -16 -8 -21.5t-33 -5.5z" />
    <glyph glyph-name="O" unicode="O" horiz-adv-x="524" 
d="M262 63q58 0 83.5 14.5t37 59.5t11.5 144v49q0 102 -10 145.5t-35.5 58t-86.5 14.5q-58 0 -83 -14t-36.5 -59t-11.5 -145v-49q0 -62 3 -98t10 -62.5t23 -37.5t37 -15.5t58 -4.5zM262 -9q-53 0 -84.5 5.5t-59.5 21.5t-41.5 48t-21 82.5t-7.5 127.5v57q0 66 5 113t18 79
t28 51t42 28.5t53 12.5t68 3q53 0 85 -5.5t60 -21.5t41.5 -48.5t20.5 -83t7 -128.5v-57q0 -78 -9 -130.5t-23.5 -83t-43.5 -46.5t-59 -20.5t-79 -4.5z" />
    <glyph glyph-name="P" unicode="P" horiz-adv-x="483" 
d="M103 0q-25 0 -33 5.5t-8 21.5v552q0 29 29 32q66 9 156 9q59 0 93 -6t60.5 -24.5t36.5 -53.5t10 -94q0 -114 -48.5 -160t-168.5 -46h-86v-209q0 -16 -8 -21.5t-33 -5.5zM144 544v-239h88q77 0 103 27.5t26 106.5q0 69 -23 89.5t-98 20.5q-38 0 -96 -5z" />
    <glyph glyph-name="Q" unicode="Q" horiz-adv-x="524" 
d="M262 -9q-53 0 -84.5 5.5t-59.5 21.5t-41.5 48t-21 82.5t-7.5 127.5v57q0 66 5 113t18 79t28 51t42 28.5t53 12.5t68 3q53 0 85 -5.5t60 -21.5t41.5 -48.5t20.5 -83t7 -128.5v-57q0 -122 -20 -182.5t-64 -82.5l44 -80q11 -19 11 -28q0 -17 -37 -17q-20 0 -28.5 4t-15.5 17
l-46 87q-27 -3 -58 -3zM262 63q58 0 83.5 14.5t37 59.5t11.5 144v49q0 102 -10 145.5t-35.5 58t-86.5 14.5q-58 0 -83 -14t-36.5 -59t-11.5 -145v-49q0 -62 3 -98t10 -62.5t23 -37.5t37 -15.5t58 -4.5z" />
    <glyph glyph-name="R" unicode="R" horiz-adv-x="499" 
d="M103 0q-25 0 -33 5.5t-8 21.5v552q0 29 29 32q66 9 156 9q59 0 93 -5.5t60.5 -23t36.5 -51t10 -88.5q0 -76 -24 -118.5t-78 -59.5l108 -231q8 -19 8 -25q0 -18 -36 -18q-29 0 -38.5 4t-14.5 17l-101 241q-11 -1 -36 -1h-91v-234q0 -16 -8 -21.5t-33 -5.5zM144 544v-219
h93q74 0 99 24.5t25 99.5q0 62 -23 81t-98 19q-34 0 -96 -5z" />
    <glyph glyph-name="S" unicode="S" horiz-adv-x="459" 
d="M217 -9q-81 0 -148 19q-14 4 -20 12.5t-6 28.5q0 21 3.5 27t13.5 6q2 0 50 -9t93 -9q70 0 100.5 22t30.5 74q0 40 -10.5 59.5t-39.5 32.5l-129 58q-56 25 -77 55.5t-21 94.5q0 50 13 83t38.5 48.5t52 21t64.5 5.5q87 0 152 -19q23 -6 23 -40q0 -20 -4 -27t-13 -7
q-4 0 -24 4.5t-51.5 9.5t-63.5 5q-63 0 -84 -15t-21 -70q0 -34 11.5 -49.5t43.5 -29.5l129 -58q53 -24 72.5 -58t19.5 -98q0 -177 -198 -177z" />
    <glyph glyph-name="T" unicode="T" horiz-adv-x="429" 
d="M214 0q-25 0 -33 5.5t-8 21.5v513h-138q-15 0 -20 7.5t-5 30.5t5 30t20 7h358q15 0 20.5 -7.5t5.5 -29.5q0 -23 -5.5 -30.5t-20.5 -7.5h-137v-513q0 -16 -8 -21.5t-34 -5.5z" />
    <glyph glyph-name="U" unicode="U" horiz-adv-x="521" 
d="M261 -9q-107 0 -153 42.5t-46 143.5v412q0 16 8 21t33 5t33 -5t8 -21v-415q0 -60 24 -84t93 -24q68 0 92 24t24 84v415q0 16 8 21t33 5t33 -5t8 -21v-412q0 -101 -46 -143.5t-152 -42.5z" />
    <glyph glyph-name="V" unicode="V" horiz-adv-x="508" 
d="M260 72l143 521q4 14 13 18t35 4q24 0 32 -3.5t8 -13.5q0 -8 -7 -32l-155 -533q-6 -22 -19 -27.5t-56 -5.5t-56 5.5t-19 27.5l-155 533q-7 24 -7 32q0 10 8 13.5t32 3.5q26 0 35 -4t13 -18l143 -521h12z" />
    <glyph glyph-name="W" unicode="W" horiz-adv-x="795" 
d="M212 0q-39 0 -53.5 6t-18.5 27l-120 538q0 3 -1 8t-1.5 9t-0.5 7q0 11 8 15.5t32 4.5q26 0 35 -4t12 -18l106 -516h12l113 500q3 17 16.5 22.5t46.5 5.5q32 0 45.5 -5.5t16.5 -22.5l113 -500h12l106 516q3 14 12 18t35 4q24 0 32 -4.5t8 -15.5l-3 -24l-120 -538
q-4 -21 -18.5 -27t-53.5 -6q-38 0 -52.5 6.5t-19.5 28.5l-108 465h-10l-109 -465q-5 -22 -19.5 -28.5t-52.5 -6.5z" />
    <glyph glyph-name="X" unicode="X" horiz-adv-x="482" 
d="M63 0q-41 0 -41 20q0 11 12 30l162 266l-152 248q-12 22 -12 31q0 20 42 20q25 0 35 -4t17 -18l113 -198h4l112 198q7 14 17.5 18t35.5 4q41 0 41 -20q0 -11 -12 -30l-153 -248l164 -266q12 -20 12 -31q0 -20 -41 -20q-25 0 -35 4t-17 18l-125 219h-4l-123 -219
q-7 -14 -17 -18t-35 -4z" />
    <glyph glyph-name="Y" unicode="Y" horiz-adv-x="455" 
d="M227 0q-25 0 -33 5.5t-8 21.5v209l-158 328q-11 23 -11 32q0 19 38 19q29 0 39 -4t15 -18l116 -268h5l116 268q5 14 14.5 18t38.5 4q39 0 39 -19q0 -9 -11 -32l-158 -328v-209q0 -16 -8 -21.5t-34 -5.5z" />
    <glyph glyph-name="Z" unicode="Z" horiz-adv-x="408" 
d="M292 540h-229q-15 0 -20.5 7.5t-5.5 30.5q0 22 5.5 29.5t20.5 7.5h300q15 0 20 -7t5 -29q0 -25 -18 -57l-256 -447h250q15 0 20 -7.5t5 -30.5q0 -22 -5 -29.5t-20 -7.5h-321q-16 0 -21 7.5t-5 29.5q0 23 20 58z" />
    <glyph glyph-name="bracketleft" unicode="[" horiz-adv-x="259" 
d="M245 -25q0 -21 -5.5 -27.5t-20.5 -6.5h-131q-18 0 -25 6t-7 21v670q0 16 6.5 22t25.5 6h124q15 0 20 -6.5t5 -27.5q0 -22 -5 -29t-20 -7h-77v-586h84q15 0 20.5 -6.5t5.5 -28.5z" />
    <glyph glyph-name="backslash" unicode="\" horiz-adv-x="262" 
d="M212 -64q-37 0 -43 25l-147 658q-6 26 -6 35q0 17 36 17q38 0 43 -26l147 -658q7 -30 7 -34q0 -17 -37 -17z" />
    <glyph glyph-name="bracketright" unicode="]" horiz-adv-x="259" 
d="M14 -25q0 22 5.5 28.5t20.5 6.5h84v586h-77q-15 0 -20 7t-5 29q0 21 5 27.5t20 6.5h124q19 0 25.5 -6t6.5 -22v-670q0 -15 -7 -21t-25 -6h-131q-15 0 -20.5 6.5t-5.5 27.5z" />
    <glyph glyph-name="asciicircum" unicode="^" 
d="M235 545h-6l-79 -175q-7 -16 -15 -20t-34 -4q-35 0 -35 18q0 5 10 27l91 195q9 19 20.5 24.5t46.5 5.5t46 -5.5t19 -24.5l87 -195q10 -25 10 -27q0 -18 -35 -18q-26 0 -34 4t-15 20z" />
    <glyph glyph-name="underscore" unicode="_" horiz-adv-x="480" 
d="M32 -54q0 22 5 29.5t20 7.5h366q15 0 20 -7.5t5 -29.5q0 -23 -5 -30.5t-20 -7.5h-366q-15 0 -20 7.5t-5 30.5z" />
    <glyph glyph-name="grave" unicode="`" horiz-adv-x="203" 
d="M144 539q-16 0 -25.5 3t-13.5 7t-10 13l-57 88q-14 22 -14 31q0 16 47 16q27 0 35 -5t16 -21l47 -90q10 -20 10 -26q0 -16 -35 -16z" />
    <glyph glyph-name="a" unicode="a" horiz-adv-x="486" 
d="M171 -10q-67 0 -98 33t-31 108q0 77 40.5 109.5t140.5 32.5h108v77q0 51 -20 65.5t-74 14.5q-46 0 -97 -9.5t-53 -9.5q-16 0 -16 33q0 31 21 37q64 20 154 20t128 -26.5t38 -108.5v-186q0 -42 6 -78t11.5 -57t5.5 -25q0 -10 -7.5 -15t-31.5 -5q-22 0 -28.5 4t-11.5 19
l-17 65q-22 -49 -66.5 -73.5t-101.5 -24.5zM195 59q57 0 96.5 33t39.5 90v36l-112 -3q-58 -1 -77.5 -16.5t-19.5 -59.5q0 -50 16 -65t57 -15z" />
    <glyph glyph-name="b" unicode="b" horiz-adv-x="507" 
d="M244 -10q-75 0 -116.5 15t-54 37.5t-12.5 61.5v522q0 17 8 22t33 5t33 -5t8 -22v-210q39 85 153 85q66 0 98 -19t46.5 -71.5t14.5 -159.5q0 -155 -45.5 -208t-165.5 -53zM248 61q73 0 97.5 35.5t24.5 145.5q0 122 -17 155.5t-81 33.5q-73 0 -101.5 -41t-28.5 -138v-139
q0 -28 20 -40t86 -12z" />
    <glyph glyph-name="c" unicode="c" horiz-adv-x="428" 
d="M243 -10q-43 0 -71 5t-53 19.5t-38.5 42.5t-21 73t-7.5 111q0 70 9.5 118.5t24.5 76t41.5 42.5t52 19t65.5 4q64 0 122 -17q15 -5 20 -12.5t5 -26.5q0 -33 -15 -33q-2 0 -48 9t-77 9q-48 0 -70 -11t-34 -50t-12 -120q0 -123 19.5 -155t98.5 -32q41 0 82 10l42 11
q14 0 14 -33q0 -19 -4.5 -26.5t-19.5 -12.5q-58 -21 -125 -21z" />
    <glyph glyph-name="d" unicode="d" horiz-adv-x="518" 
d="M221 -10q-103 0 -136 51.5t-33 203.5q0 80 10.5 131t35.5 78.5t57.5 37t83.5 9.5q97 0 130 -56v181q0 17 8.5 22t33.5 5t33 -5t8 -22v-446q0 -42 6 -78t11.5 -57t5.5 -25q0 -20 -39 -20q-22 0 -29 4t-11 19l-14 52q-36 -85 -161 -85zM240 61q71 0 101 28.5t30 116.5v76
q0 85 -23 117t-94 32q-73 0 -95.5 -35t-22.5 -156q0 -112 19.5 -145.5t84.5 -33.5z" />
    <glyph glyph-name="e" unicode="e" horiz-adv-x="468" 
d="M253 -10q-59 0 -93 8t-60.5 34.5t-37 76t-10.5 132.5q0 70 9.5 118.5t24.5 76t42 42.5t53 19t67 4q58 0 93.5 -13t53 -45.5t23 -70.5t5.5 -104q0 -22 -7.5 -32t-28.5 -10h-251q1 -106 22.5 -135t102.5 -29q34 0 66 5t51.5 10.5t23.5 5.5q14 0 14 -33q0 -19 -4.5 -26.5
t-19.5 -12.5q-58 -21 -139 -21zM246 431q-62 0 -84.5 -26.5t-25.5 -121.5h207q0 37 -1 55.5t-6 40t-15 30.5t-28.5 15.5t-46.5 6.5z" />
    <glyph glyph-name="f" unicode="f" horiz-adv-x="307" 
d="M32 456q0 20 4.5 27t18.5 7h44v55q0 65 25 92.5t82 27.5q35 0 69 -8q15 -4 20 -9.5t5 -23.5q0 -33 -17 -33q-3 0 -23.5 2.5t-37.5 2.5q-27 0 -35 -12t-8 -57v-37h84q14 0 18.5 -7t4.5 -27q0 -19 -4.5 -26t-18.5 -7h-81v-396q0 -17 -8.5 -22t-33.5 -5t-33 5t-8 22v396h-44
q-14 0 -18.5 7t-4.5 26z" />
    <glyph glyph-name="g" unicode="g" horiz-adv-x="513" 
d="M52 250q0 79 10.5 128.5t35.5 76.5t58 36.5t85 9.5q107 0 139 -71l10 39q4 15 11 18.5t30 3.5t30.5 -4.5t7.5 -14.5q0 -4 -6 -25t-11.5 -57.5t-5.5 -78.5v-275q0 -132 -54.5 -180.5t-161.5 -48.5q-75 0 -135 12q-14 3 -19.5 11t-5.5 29q0 19 3.5 26t12.5 7q5 0 24.5 -3
t52 -5.5t69.5 -2.5q77 0 104.5 33.5t27.5 116.5v17q-40 -58 -147 -58q-101 0 -133 52.5t-32 207.5zM136 240q0 -112 19.5 -145.5t84.5 -33.5q71 0 101 28.5t30 116.5v76q0 85 -23 117t-94 32q-73 0 -95.5 -35t-22.5 -156z" />
    <glyph glyph-name="h" unicode="h" horiz-adv-x="497" 
d="M102 0q-25 0 -33 5t-8 22v599q0 17 8 22t33 5t33 -5t8 -22v-199q37 74 156 74q79 0 107.5 -31t28.5 -100v-343q0 -17 -8 -22t-33 -5t-33.5 5t-8.5 22v324q0 45 -16 61.5t-65 16.5q-70 0 -99 -39t-29 -129v-234q0 -17 -8 -22t-33 -5z" />
    <glyph glyph-name="i" unicode="i" horiz-adv-x="208" 
d="M102 0q-25 0 -33 5t-8 22v438q0 17 8 21.5t33 4.5t33 -4.5t8 -21.5v-438q0 -17 -8 -22t-33 -5zM102 569q-30 0 -38 5.5t-8 25.5v21q0 20 8.5 26t37.5 6t37.5 -6t8.5 -26v-21q0 -20 -8.5 -25.5t-37.5 -5.5z" />
    <glyph glyph-name="j" unicode="j" horiz-adv-x="208" 
d="M102 491q25 0 33 -4.5t8 -21.5v-534q0 -66 -24.5 -95t-80.5 -29q-34 0 -68 10q-15 4 -20.5 10.5t-5.5 24.5q0 20 3.5 26t12.5 6q4 0 23.5 -2.5t33.5 -2.5q28 0 36 12t8 57v517q0 17 8 21.5t33 4.5zM102 569q-30 0 -38 5.5t-8 25.5v21q0 20 8.5 26t37.5 6t37.5 -6t8.5 -26
v-21q0 -20 -8.5 -25.5t-37.5 -5.5z" />
    <glyph glyph-name="k" unicode="k" horiz-adv-x="428" 
d="M102 0q-25 0 -33 5t-8 22v599q0 17 8 22t33 5t33 -5t8 -22v-342h9l157 187q11 12 20.5 16t34.5 4q40 0 40 -14q0 -12 -14 -28l-165 -192l177 -215q13 -15 13 -26q0 -16 -43 -16q-23 0 -31.5 4t-19.5 17l-170 207h-8v-201q0 -17 -8 -22t-33 -5z" />
    <glyph glyph-name="l" unicode="l" horiz-adv-x="205" 
d="M102 0q-25 0 -33 5t-8 22v599q0 17 8 22t33 5t33 -5t8 -22v-599q0 -17 -8 -22t-33 -5z" />
    <glyph glyph-name="m" unicode="m" horiz-adv-x="781" 
d="M115 0q-25 0 -33.5 5t-8.5 22v284q0 42 -5.5 78.5t-11 57.5t-5.5 25q0 10 7.5 14.5t30.5 4.5t30.5 -4t10.5 -18l12 -55q18 46 56.5 66.5t103.5 20.5q61 0 91.5 -18.5t39.5 -57.5q34 76 151 76q79 0 107.5 -31t28.5 -100v-343q0 -17 -8.5 -22t-33.5 -5t-33 5t-8 22v324
q0 45 -16 61.5t-65 16.5q-68 0 -93 -38t-25 -130v-234q0 -17 -8.5 -22t-33.5 -5t-33 5t-8 22v324q0 45 -16 61.5t-65 16.5q-68 0 -93 -38t-25 -130v-234q0 -17 -8 -22t-33 -5z" />
    <glyph glyph-name="n" unicode="n" horiz-adv-x="510" 
d="M115 0q-25 0 -33.5 5t-8.5 22v284q0 42 -5.5 78.5t-11 57.5t-5.5 25q0 10 7.5 14.5t30.5 4.5t30 -3.5t11 -18.5l14 -59q39 91 168 91q79 0 107.5 -31t28.5 -100v-343q0 -17 -8.5 -22t-33.5 -5t-33 5t-8 22v324q0 45 -16 61.5t-65 16.5q-70 0 -99 -39t-29 -129v-234
q0 -17 -8 -22t-33 -5z" />
    <glyph glyph-name="o" unicode="o" horiz-adv-x="497" 
d="M241 -10q-58 0 -92 9.5t-57 37.5t-31.5 76t-8.5 128q0 151 45.5 205.5t159.5 54.5q76 0 114.5 -19t56 -72t17.5 -159q0 -151 -45 -206t-159 -55zM243 61q73 0 95.5 35t22.5 146q0 122 -18.5 155.5t-88.5 33.5q-73 0 -95.5 -34.5t-22.5 -145.5q0 -123 18.5 -156.5
t88.5 -33.5z" />
    <glyph glyph-name="p" unicode="p" horiz-adv-x="525" 
d="M115 -189q-25 0 -33.5 5t-8.5 22v473q0 42 -5.5 78.5t-11 57.5t-5.5 25q0 10 7.5 14.5t30.5 4.5t30 -3.5t11 -18.5l13 -54q39 86 162 86q103 0 135.5 -51t32.5 -203q0 -107 -21 -163.5t-58.5 -75t-106.5 -18.5q-98 0 -131 54v-206q0 -17 -8 -22t-33 -5zM272 61
q72 0 94.5 34.5t22.5 155.5q0 113 -19 146.5t-84 33.5q-70 0 -100.5 -32.5t-30.5 -127.5v-62q0 -85 23 -116.5t94 -31.5z" />
    <glyph glyph-name="q" unicode="q" horiz-adv-x="513" 
d="M405 -189q-25 0 -33 5t-8 22v210q-40 -58 -147 -58q-101 0 -133 52.5t-32 207.5q0 79 10.5 128.5t35.5 76.5t58 36.5t85 9.5q107 0 139 -71l10 39q4 15 11 18.5t30 3.5t30.5 -4.5t7.5 -14.5q0 -4 -6 -25t-11.5 -57.5t-5.5 -78.5v-473q0 -17 -8 -22t-33 -5zM237 61
q72 0 101.5 28t29.5 116v77q0 85 -23 117t-93 32q-51 0 -74.5 -13.5t-33.5 -52.5t-10 -121q0 -115 19 -149t84 -34z" />
    <glyph glyph-name="r" unicode="r" horiz-adv-x="341" 
d="M115 0q-25 0 -33.5 5t-8.5 22v284q0 42 -5.5 78.5t-11 57.5t-5.5 25q0 10 7.5 14.5t30.5 4.5t30 -3.5t11 -18.5l14 -55q36 86 123 86q24 0 45 -6q17 -7 17 -39q0 -34 -17 -34q-2 0 -20 3t-33 3q-103 0 -103 -193v-207q0 -17 -8 -22t-33 -5z" />
    <glyph glyph-name="s" unicode="s" horiz-adv-x="429" 
d="M199 -10q-73 0 -130 18q-14 5 -19 12t-5 26q0 34 13 34q2 0 48 -9t86 -9q59 0 84 19t25 60q0 22 -9 34t-29 21l-135 57q-70 30 -70 118q0 130 156 130q69 0 134 -17q15 -4 19.5 -11.5t4.5 -28.5q0 -32 -16 -32l-47 10q-47 9 -84 9q-47 0 -65 -14t-18 -46q0 -24 7.5 -37
t30.5 -22l131 -54q40 -16 56.5 -42.5t16.5 -70.5q0 -155 -185 -155z" />
    <glyph glyph-name="t" unicode="t" horiz-adv-x="317" 
d="M202 -10q-56 0 -79.5 28.5t-23.5 94.5v310h-52q-13 0 -17.5 7t-4.5 26q0 20 4.5 27t17.5 7h52v76q0 17 8 22t33 5t33.5 -5t8.5 -22v-76h89q13 0 17.5 -7t4.5 -27q0 -19 -4.5 -26t-17.5 -7h-89v-293q0 -44 7.5 -55.5t34.5 -11.5q16 0 34.5 3t21.5 3q10 0 13.5 -6.5
t3.5 -25.5q0 -17 -5.5 -24t-18.5 -12q-33 -11 -71 -11z" />
    <glyph glyph-name="u" unicode="u" horiz-adv-x="500" 
d="M195 -10q-77 0 -105.5 30t-28.5 99v346q0 17 8 21.5t33 4.5t33 -4.5t8 -21.5v-327q0 -45 16 -60.5t65 -15.5q71 0 99.5 39t28.5 130v234q0 17 8 21.5t33 4.5t33 -4.5t8 -21.5v-285q0 -42 6 -78t11.5 -57t5.5 -25q0 -10 -7.5 -15t-30.5 -5t-30 4t-11 19l-14 56
q-39 -89 -169 -89z" />
    <glyph glyph-name="v" unicode="v" horiz-adv-x="456" 
d="M225 0q-37 0 -50 6t-19 25l-123 400q-8 26 -8 37q0 13 7.5 18t32.5 5q28 0 36.5 -5.5t14.5 -27.5l106 -384h10l108 384q7 22 15.5 27.5t35.5 5.5q26 0 33.5 -5t7.5 -18q0 -5 -8 -37l-128 -400q-6 -19 -20 -25t-51 -6z" />
    <glyph glyph-name="w" unicode="w" horiz-adv-x="699" 
d="M189 0q-35 0 -49 6t-18 25l-92 400q-5 25 -5 37q0 13 7.5 18t32.5 5q28 0 36.5 -4.5t12.5 -23.5l79 -389h11l87 374q5 20 16.5 26.5t42.5 6.5q30 0 41.5 -6.5t16.5 -26.5l87 -374h11l79 389q4 19 12.5 23.5t36.5 4.5q25 0 32.5 -5t7.5 -18q0 -12 -5 -37l-92 -400
q-4 -19 -18 -25t-49 -6q-39 0 -56 6t-21 25l-80 338h-7l-80 -338q-4 -19 -21 -25t-56 -6z" />
    <glyph glyph-name="x" unicode="x" horiz-adv-x="440" 
d="M66 0q-41 0 -41 19q0 7 10 24l137 212l-124 189q-12 19 -12 27q0 11 10 15.5t35 4.5t34 -3.5t15 -15.5l89 -148h4l88 148q6 13 14.5 16t33.5 3q26 0 35.5 -4.5t9.5 -15.5q0 -9 -11 -26l-126 -187l138 -214q11 -19 11 -24q0 -20 -41 -20q-26 0 -37 4.5t-18 19.5l-98 168
h-4l-98 -168q-7 -15 -18 -19.5t-36 -4.5z" />
    <glyph glyph-name="y" unicode="y" horiz-adv-x="454" 
d="M25 469q0 12 8 17t34 5q25 0 33 -3.5t12 -16.5l111 -399h8l111 399q4 13 12 16.5t32 3.5q26 0 35 -5t9 -16q0 -16 -11 -50l-145 -466q-27 -86 -53 -116.5t-88 -30.5q-50 0 -81 11q-13 4 -18.5 11t-5.5 24q0 20 3.5 26.5t13.5 6.5q1 0 26.5 -3.5t52.5 -3.5q33 0 46.5 12
t24.5 50l16 59q-27 1 -39 11.5t-20 36.5l-112 357q-15 49 -15 64z" />
    <glyph glyph-name="z" unicode="z" horiz-adv-x="396" 
d="M366 36q0 -36 -22 -36h-293q-13 0 -18 7t-5 27q0 34 20 63l228 322h-205q-23 0 -23 36q0 20 5 28t18 8h273q13 0 17.5 -7t4.5 -26q0 -36 -17 -60l-231 -326h226q22 0 22 -36z" />
    <glyph glyph-name="braceleft" unicode="{" horiz-adv-x="302" 
d="M105 216q0 28 -10 40t-35 12q-15 0 -20 6.5t-5 29.5t5 29.5t20 6.5q25 0 35 12t10 40q0 31 -1 90t-1 92q0 51 18 75t66 24q36 0 82 -8q12 -2 15.5 -9t3.5 -25q0 -19 -4.5 -25.5t-14.5 -6.5q-6 0 -31 1t-37 1q-11 0 -15 -7.5t-4 -29.5q0 -29 1 -86t1 -86q0 -76 -50 -86v-4
q50 -10 50 -86q0 -29 -1 -86t-1 -86q0 -21 4 -28.5t15 -7.5q12 0 37 1t31 1q10 0 14.5 -6.5t4.5 -25.5t-3.5 -26t-15.5 -9q-40 -7 -82 -7q-48 0 -66 24t-18 74q0 33 1 92t1 90z" />
    <glyph glyph-name="bar" unicode="|" horiz-adv-x="173" 
d="M86 -189q-22 0 -28 5t-6 25v800q0 20 6 25t28 5q23 0 29 -5t6 -25v-800q0 -20 -6 -25t-29 -5z" />
    <glyph glyph-name="braceright" unicode="}" horiz-adv-x="302" 
d="M115 -64q-42 0 -82 7q-12 2 -15.5 9t-3.5 26t4.5 25.5t14.5 6.5q6 0 31 -1t37 -1q11 0 15 7.5t4 28.5q0 29 -1 86t-1 86q0 76 50 86v4q-50 10 -50 86q0 29 1 86t1 86q0 22 -4 29.5t-15 7.5q-12 0 -37 -1t-31 -1q-10 0 -14.5 6.5t-4.5 25.5q0 18 3.5 25t15.5 9q46 8 82 8
q48 0 66 -24t18 -75q0 -33 -1 -92t-1 -90q0 -28 10 -40t35 -12q15 0 20 -6.5t5 -29.5t-5 -29.5t-20 -6.5q-25 0 -35 -12t-10 -40q0 -31 1 -90t1 -92q0 -50 -18 -74t-66 -24z" />
    <glyph glyph-name="asciitilde" unicode="~" 
d="M82 263q0 28 25 43q26 18 60 18q21 0 69 -11t65 -11q20 0 41 9.5t23 9.5q14 0 14 -30q0 -28 -24 -43q-26 -18 -60 -18q-22 0 -69.5 11t-64.5 11q-20 0 -41 -9.5t-24 -9.5q-14 0 -14 30z" />
    <glyph glyph-name="nbspace" unicode="&#xa0;" horiz-adv-x="202" 
 />
    <glyph glyph-name="exclamdown" unicode="&#xa1;" horiz-adv-x="203" 
d="M102 470q23 0 29.5 -5t6.5 -21q0 -66 3.5 -205.5t3.5 -212.5q0 -16 -9 -21t-34 -5t-34 5t-9 21q0 73 3.5 212.5t3.5 205.5q0 16 6.5 21t29.5 5zM102 615q27 0 35.5 -6t8.5 -25v-26q0 -19 -8.5 -25t-35.5 -6q-28 0 -36.5 6t-8.5 25v26q0 19 8.5 25t36.5 6z" />
    <glyph glyph-name="cent" unicode="&#xa2;" 
d="M249 615q23 0 30.5 -4.5t7.5 -21.5v-71q48 -3 89 -14q15 -5 20 -12t5 -26q0 -33 -15 -33q-3 0 -24.5 4.5t-53.5 9t-61 4.5q-31 0 -47.5 -4t-30.5 -17.5t-19 -40.5t-5 -73q0 -92 18.5 -116.5t89.5 -24.5q34 0 64.5 5.5t48.5 10.5t22 5q13 0 13 -33q0 -19 -4.5 -25
t-19.5 -12q-42 -14 -90 -20v-79q0 -17 -7.5 -22t-30.5 -5q-22 0 -29.5 5t-7.5 22v77q-82 3 -116.5 44t-34.5 160q0 123 37 165.5t114 45.5v70q0 17 7 21.5t30 4.5z" />
    <glyph glyph-name="sterling" unicode="&#xa3;" 
d="M284 304q0 -20 -5 -25.5t-19 -5.5h-77v-50q0 -85 -29 -148h235q15 0 20.5 -7.5t5.5 -30.5q0 -22 -5.5 -29.5t-20.5 -7.5h-298q-19 0 -24.5 5t-5.5 20q0 14 20.5 70.5t20.5 111.5v66h-47q-15 0 -20 5.5t-5 25.5q0 19 5 24.5t20 5.5h47v126q0 87 39.5 123.5t116.5 36.5
q70 0 115 -13q13 -3 18.5 -10.5t5.5 -27.5t-3.5 -26t-12.5 -6q-3 0 -40 5t-61 5q-56 0 -76.5 -19.5t-20.5 -78.5v-115h77q14 0 19 -5.5t5 -24.5z" />
    <glyph glyph-name="currency" unicode="&#xa4;" 
d="M125 65q-32 0 -32 13q0 6 10 31l21 48q-29 28 -29 112t29 112l-21 49q-10 25 -10 31q0 13 32 13q22 0 29.5 -3.5t12.5 -14.5l21 -50q26 2 44 2t42 -2l23 50q5 11 12.5 14.5t29.5 3.5q32 0 32 -13q0 -6 -10 -31l-22 -49q30 -29 30 -112t-30 -112l22 -48q10 -25 10 -31
q0 -13 -32 -13q-23 0 -30 3t-12 15l-22 50q-13 -2 -43 -2t-43 2l-22 -50q-5 -12 -12 -15t-30 -3zM232 192q43 0 54 13t11 65q0 51 -11 64t-54 13t-54 -13t-11 -64q0 -52 11 -65t54 -13z" />
    <glyph glyph-name="yen" unicode="&#xa5;" 
d="M231 0q-25 0 -33 5.5t-8 21.5v86h-93q-15 0 -20 6t-5 25t5 24.5t20 5.5h93v56h-94q-14 0 -19 6t-5 25t5 25t19 6h73l-134 273q-10 22 -10 30q0 11 8 15.5t32 4.5q26 0 35.5 -4t15.5 -18l113 -262h5l113 262q6 14 15 18t35 4q24 0 32 -4.5t8 -15.5q0 -12 -10 -30
l-134 -273h74q15 0 20 -6t5 -25t-5 -25t-20 -6h-94v-56h94q15 0 19.5 -5.5t4.5 -24.5t-5 -25t-19 -6h-94v-86q0 -16 -8 -21.5t-34 -5.5z" />
    <glyph glyph-name="brokenbar" unicode="&#xa6;" horiz-adv-x="173" 
d="M86 281q-22 0 -28 5t-6 24v331q0 20 6 25t28 5q23 0 29 -5t6 -25v-331q0 -19 -6 -24t-29 -5zM86 -189q-22 0 -28 5t-6 25v331q0 19 6 24t28 5q23 0 29 -5t6 -24v-331q0 -20 -6 -25t-29 -5z" />
    <glyph glyph-name="section" unicode="&#xa7;" horiz-adv-x="456" 
d="M48 250q0 80 45 110q-38 32 -38 112q0 38 9.5 66t24 43.5t38 24.5t45.5 11.5t52 2.5q86 0 151 -19q13 -3 18.5 -11t5.5 -29q0 -34 -17 -34q-4 0 -24.5 4.5t-52 9.5t-62.5 5q-62 0 -84 -14t-22 -61q0 -31 9.5 -46.5t35.5 -26.5l136 -57q51 -21 72 -55t21 -87
q0 -73 -39 -105q42 -35 42 -123q0 -91 -51.5 -125.5t-146.5 -34.5q-81 0 -148 19q-14 4 -20 12.5t-6 28.5q0 21 3.5 27t13.5 6q2 0 49.5 -9t92.5 -9q73 0 102 17t29 62q0 39 -10 57.5t-40 31.5l-143 61q-50 21 -70.5 52.5t-20.5 82.5zM130 261q0 -32 9.5 -49.5t35.5 -27.5
l135 -57q19 16 19 62q0 33 -9.5 52t-37.5 30l-129 55q-23 -14 -23 -65z" />
    <glyph glyph-name="dieresis" unicode="&#xa8;" horiz-adv-x="292" 
d="M73 569q-28 0 -36 5.5t-8 25.5v21q0 20 8.5 26t35.5 6t35.5 -6t8.5 -26v-21q0 -20 -8 -25.5t-36 -5.5zM220 569q-28 0 -36.5 5.5t-8.5 25.5v21q0 20 8.5 26t36.5 6q27 0 35.5 -6t8.5 -26v-21q0 -20 -8 -25.5t-36 -5.5z" />
    <glyph glyph-name="copyright" unicode="&#xa9;" horiz-adv-x="884" 
d="M442 -63q109 0 175.5 19t104 67.5t50 115.5t12.5 179q0 109 -12.5 175t-50 114t-104 67t-175.5 19t-175.5 -19t-104 -67t-50 -114t-12.5 -175q0 -112 12.5 -179t50 -115.5t104 -67.5t175.5 -19zM442 -128q-89 0 -155.5 12.5t-112 39.5t-74.5 61.5t-45 87.5t-22 109
t-6 133t6 133t22 109t45 87.5t74.5 61.5t112 39.5t155.5 12.5q107 0 181.5 -19.5t120 -53t71 -91.5t34 -121.5t8.5 -157.5q0 -93 -8.5 -157t-34 -122t-71 -91.5t-120 -53t-181.5 -19.5zM448 60q-43 0 -71 5t-53 19.5t-38.5 42.5t-21 73t-7.5 111q0 87 13 141t41.5 79
t59 32.5t80.5 7.5q63 0 122 -17q14 -5 19 -12.5t5 -26.5q0 -33 -15 -33q-1 0 -47 9t-78 9q-48 0 -70 -11t-34 -50t-12 -120q0 -86 8 -122.5t31.5 -50.5t78.5 -14q41 0 82.5 10.5t42.5 10.5q14 0 14 -33q0 -19 -5 -26.5t-20 -12.5q-58 -21 -125 -21z" />
    <glyph glyph-name="ordfeminine" unicode="&#xaa;" horiz-adv-x="368" 
d="M133 251q-55 0 -78 24t-23 80q0 58 27 82.5t99 24.5h88v32q0 39 -13 52.5t-51 13.5q-35 0 -72.5 -7t-40.5 -7q-14 0 -14 28q0 14 3.5 20t13.5 10q41 16 114 16q70 0 99 -21.5t29 -85.5v-102q0 -33 3.5 -63t7 -48t3.5 -22q0 -17 -31 -17q-17 0 -23 3.5t-9 16.5l-11 44
q-30 -74 -121 -74zM150 309q96 0 96 98v8l-101 -4q-28 -1 -37 -11t-9 -41q0 -30 11.5 -40t39.5 -10z" />
    <glyph glyph-name="guillemotleft" unicode="&#xab;" horiz-adv-x="591" 
d="M399 248v-8l136 -117q14 -12 18 -21.5t4 -32.5q0 -32 -16 -32q-9 0 -22 10l-171 129q-18 13 -24.5 25t-6.5 43t6.5 43.5t24.5 25.5l171 129q16 10 22 10q16 0 16 -32q0 -23 -4 -32.5t-18 -21.5zM118 248v-8l143 -107q14 -11 18 -20t4 -34q0 -32 -15 -32q-9 0 -22 10
l-181 122q-18 12 -24 24t-6 41q0 30 6 42t24 24l181 122q16 10 22 10q15 0 15 -32q0 -25 -4 -34t-18 -20z" />
    <glyph glyph-name="logicalnot" unicode="&#xac;" 
d="M351 143q-24 0 -31 5t-7 21v76h-214q-16 0 -21 6.5t-5 29.5t5 29.5t21 6.5h260q19 0 25 -5t6 -20v-123q0 -16 -7.5 -21t-31.5 -5z" />
    <glyph glyph-name="registered" unicode="&#xae;" horiz-adv-x="884" 
d="M442 -128q-89 0 -155.5 12.5t-112 39.5t-74.5 61.5t-45 87.5t-22 109t-6 133t6 133t22 109t45 87.5t74.5 61.5t112 39.5t155.5 12.5q107 0 181.5 -19.5t120 -53t71 -91.5t34 -121.5t8.5 -157.5q0 -93 -8.5 -157t-34 -122t-71 -91.5t-120 -53t-181.5 -19.5zM442 -63
q109 0 175.5 19t104 67.5t50 115.5t12.5 179q0 109 -12.5 175t-50 114t-104 67t-175.5 19t-175.5 -19t-104 -67t-50 -114t-12.5 -175q0 -112 12.5 -179t50 -115.5t104 -67.5t175.5 -19zM309 70q-25 0 -33.5 5.5t-8.5 21.5v437q0 27 30 32q66 9 145 9q111 0 149.5 -28
t38.5 -121q0 -65 -20 -99t-71 -46l97 -171q9 -18 9 -23q0 -17 -39 -17q-27 0 -36 4t-15 17l-88 180h-116v-174q0 -16 -8 -21.5t-34 -5.5zM351 499v-165h83q72 0 92 16t20 78q0 48 -20 62t-88 14q-45 0 -87 -5z" />
    <glyph glyph-name="macron" unicode="&#xaf;" horiz-adv-x="260" 
d="M27 609q0 22 5 29t21 7h154q16 0 21 -7t5 -29t-5 -29t-21 -7h-154q-16 0 -21 7t-5 29z" />
    <glyph glyph-name="degree" unicode="&#xb0;" horiz-adv-x="435" 
d="M215 337q-82 0 -108 28.5t-26 111.5q0 84 25.5 113.5t112.5 29.5q81 0 108 -28t27 -111q0 -85 -25.5 -114.5t-113.5 -29.5zM152 476q0 -51 11.5 -64t51.5 -13q46 0 57 14t11 68q0 51 -11.5 64t-52.5 13q-45 0 -56 -14t-11 -68z" />
    <glyph glyph-name="plusminus" unicode="&#xb1;" 
d="M82 302q0 21 5 27t21 6h87v97q0 15 6.5 20t29.5 5q22 0 28.5 -5t6.5 -20v-97h88q15 0 20 -6t5 -27q0 -20 -5 -26t-20 -6h-88v-97q0 -15 -6.5 -20t-28.5 -5q-23 0 -29.5 5t-6.5 20v97h-87q-16 0 -21 5.5t-5 26.5zM100 68q0 21 5 27t20 6h212q15 0 20 -6t5 -27
q0 -22 -5 -28t-20 -6h-212q-15 0 -20 6t-5 28z" />
    <glyph glyph-name="twosuperior" unicode="&#xb2;" horiz-adv-x="361" 
d="M129 358h146q13 0 18 -6t5 -25t-5 -25.5t-18 -6.5h-201q-13 0 -18.5 5.5t-5.5 21.5v15q0 23 29 53l100 105q36 37 36 69q0 26 -10.5 35t-39.5 9q-27 0 -55 -6t-30 -6q-8 0 -10.5 4.5t-2.5 22.5q0 16 5 22.5t17 9.5q41 12 88 12q53 0 81 -18.5t28 -70.5q0 -36 -11.5 -57.5
t-47.5 -59.5z" />
    <glyph glyph-name="threesuperior" unicode="&#xb3;" horiz-adv-x="370" 
d="M182 290q-50 0 -95 13q-12 3 -17 9.5t-5 22.5q0 18 3 22.5t10 4.5q3 0 35 -6t57 -6q34 0 49.5 11t15.5 42q0 28 -17.5 41.5t-75.5 13.5q-11 0 -14.5 5.5t-3.5 20.5q0 16 3.5 21.5t14.5 5.5q51 0 67.5 11.5t16.5 42.5q0 26 -11.5 34.5t-42.5 8.5q-23 0 -52 -6t-32 -6
q-9 0 -12 4.5t-3 22.5q0 16 5.5 22.5t17.5 9.5q41 12 91 12q53 0 80.5 -18t27.5 -71q0 -83 -71 -95q82 -5 82 -88q0 -105 -124 -105z" />
    <glyph glyph-name="acute" unicode="&#xb4;" horiz-adv-x="203" 
d="M59 539q-35 0 -35 16q0 6 10 26l47 90q6 11 9 15t13 7.5t29 3.5q47 0 47 -16q0 -9 -14 -31l-57 -88q-6 -9 -10 -13t-13.5 -7t-25.5 -3z" />
    <glyph glyph-name="mu" unicode="&#xb5;" horiz-adv-x="495" 
d="M98 -189q-25 0 -33.5 5t-8.5 22v627q0 17 8 21.5t34 4.5q25 0 33 -4.5t8 -21.5v-327q0 -45 16 -60.5t65 -15.5q71 0 99.5 39t28.5 130v234q0 17 8 21.5t33 4.5t33 -4.5t8 -21.5v-285q0 -42 6 -78t11.5 -57t5.5 -25q0 -10 -7.5 -15t-30.5 -5t-30 4t-11 19l-14 56
q-39 -89 -158 -89q-42 0 -63 8v-160q0 -17 -8 -22t-33 -5z" />
    <glyph glyph-name="paragraph" unicode="&#xb6;" horiz-adv-x="560" 
d="M234 -193q-60 0 -120 12q-14 3 -20 11t-6 29q0 33 17 33q1 0 45.5 -5.5t85.5 -5.5q75 0 96.5 31.5t21.5 118.5v509h-49v-315q0 -28 -28 -34q-35 -9 -81 -9q-75 0 -101.5 46t-26.5 163q0 127 31 175.5t117 48.5h276q15 0 20 -7t5 -30t-5 -30.5t-20 -7.5h-56v-504
q0 -69 -13 -115t-40.5 -70.5t-62.5 -34t-86 -9.5z" />
    <glyph glyph-name="middot" unicode="&#xb7;" horiz-adv-x="179" 
d="M89 226q-27 0 -36 6t-9 25v31q0 19 9 25t36 6q28 0 36.5 -6t8.5 -25v-31q0 -19 -8.5 -25t-36.5 -6z" />
    <glyph glyph-name="cedilla" unicode="&#xb8;" horiz-adv-x="221" 
d="M105 -206q-32 0 -52 5q-15 2 -20.5 8.5t-5.5 23.5q0 19 4 25t14 6q3 0 18 -1.5t29 -1.5t20.5 3t6.5 14q0 3 -1 6t-2 4.5t-4 4t-4.5 4t-7.5 4.5t-9 5q-17 10 -24 22t-7 34v57h60v-43q0 -16 15 -26q36 -21 47 -35.5t11 -46.5q0 -72 -88 -72z" />
    <glyph glyph-name="onesuperior" unicode="&#xb9;" horiz-adv-x="358" 
d="M75 327q0 19 4.5 24t18.5 5h56v240l-51 -15q-12 -4 -18 -4q-14 0 -14 29q0 26 16 31l67 23q18 5 40 5q18 0 22.5 -4.5t4.5 -19.5v-285h59q12 0 17 -5.5t5 -23.5q0 -20 -5 -26t-17 -6h-182q-14 0 -18.5 6t-4.5 26z" />
    <glyph glyph-name="ordmasculine" unicode="&#xba;" horiz-adv-x="388" 
d="M187 251q-38 0 -61 5.5t-43.5 23t-29.5 55t-9 97.5q0 63 9 101t30.5 57t47.5 24.5t70 5.5q39 0 61.5 -5t43.5 -22.5t29.5 -54.5t8.5 -97q0 -63 -9 -101.5t-30.5 -57.5t-47.5 -25t-70 -6zM189 310q50 0 67 21.5t17 100.5q0 59 -8 87t-22 35.5t-44 7.5q-51 0 -67.5 -21.5
t-16.5 -100.5q0 -84 15 -107t59 -23z" />
    <glyph glyph-name="guillemotright" unicode="&#xbb;" horiz-adv-x="591" 
d="M274 244q0 -31 -6 -43t-24 -25l-172 -129q-13 -10 -22 -10q-15 0 -15 32q0 23 3.5 32.5t17.5 21.5l136 117v8l-136 118q-14 12 -17.5 21.5t-3.5 32.5q0 32 15 32q6 0 22 -10l172 -129q18 -13 24 -25t6 -44zM557 244q0 -29 -6.5 -41t-24.5 -24l-181 -122q-13 -10 -22 -10
q-15 0 -15 32q0 25 4 34t18 20l143 107v8l-143 108q-14 11 -18 20t-4 34q0 32 15 32q6 0 22 -10l181 -122q19 -12 25 -24t6 -42z" />
    <glyph glyph-name="onequarter" unicode="&#xbc;" horiz-adv-x="731" 
d="M618 0q-20 0 -27.5 4.5t-7.5 17.5v57h-154q-18 0 -18 29q0 28 11 45l128 199q7 12 19 15.5t40 3.5q27 0 35 -5t8 -21v-211h27q12 0 16.5 -6t4.5 -22q0 -17 -4 -22t-17 -5h-27v-57q0 -13 -7.5 -17.5t-26.5 -4.5zM263 0q-30 0 -30 14q0 7 7 25l210 563q5 12 12.5 16.5
t26.5 4.5q30 0 30 -14q0 -7 -7 -25l-210 -563q-5 -12 -12.5 -16.5t-26.5 -4.5zM39 560q0 26 16 31l66 23q15 5 41 5q17 0 22 -4.5t5 -19.5v-285h59q12 0 17 -5.5t5 -24.5t-5 -25t-17 -6h-182q-14 0 -18.5 5.5t-4.5 25.5t4.5 25t18.5 5h56v240l-51 -15q-12 -4 -18 -4
q-14 0 -14 29zM587 309l-110 -175h110v175z" />
    <glyph glyph-name="onehalf" unicode="&#xbd;" horiz-adv-x="736" 
d="M263 0q-30 0 -30 14q0 7 7 25l210 563q5 12 12.5 16.5t26.5 4.5q30 0 30 -14q0 -7 -7 -25l-210 -563q-5 -12 -12.5 -16.5t-26.5 -4.5zM43 280q0 20 4.5 25t18.5 5h56v240l-51 -15q-12 -4 -18 -4q-14 0 -14 29q0 26 16 31l66 23q20 5 41 5q17 0 22 -4.5t5 -19.5v-285h59
q12 0 17 -5.5t5 -24.5t-5 -25t-17 -6h-182q-14 0 -18.5 5.5t-4.5 25.5zM709 31q0 -19 -5 -25t-18 -6h-201q-13 0 -18.5 5.5t-5.5 21.5v15q0 21 29 53l100 105q36 39 36 69q0 26 -10.5 34.5t-39.5 8.5q-26 0 -54 -6t-31 -6q-8 0 -11 4.5t-3 22.5q0 16 5 22.5t18 10.5
q44 11 88 11q53 0 81 -18t28 -70q0 -36 -11.5 -58.5t-47.5 -59.5l-98 -103h146q13 0 18 -6t5 -25z" />
    <glyph glyph-name="threequarters" unicode="&#xbe;" horiz-adv-x="718" 
d="M606 0q-20 0 -27.5 4.5t-7.5 17.5v57h-154q-11 0 -14.5 6.5t-3.5 22.5q0 28 11 45l128 199q7 12 19 15.5t40 3.5q27 0 35 -5t8 -21v-211h27q12 0 16.5 -6t4.5 -22q0 -17 -4 -22t-17 -5h-27v-57q0 -13 -7.5 -17.5t-26.5 -4.5zM146 244q-50 0 -96 13q-12 3 -17 9.5t-5 22.5
q0 18 3 22.5t10 4.5q3 0 35 -6t58 -6q33 0 48.5 11t15.5 42q0 28 -17.5 41.5t-75.5 13.5q-10 0 -14 5.5t-4 20.5t4 20.5t14 5.5q51 0 68 11.5t17 42.5q0 26 -11.5 34.5t-42.5 8.5q-23 0 -52.5 -5.5t-32.5 -5.5q-9 0 -12 4.5t-3 22.5q0 16 5.5 22.5t17.5 9.5q43 12 91 12
q53 0 80.5 -18t27.5 -71q0 -83 -71 -95q83 -6 83 -88q0 -105 -124 -105zM250 0q-29 0 -29 14q0 9 6 25l211 563q5 12 12.5 16.5t26.5 4.5q29 0 29 -14q0 -9 -6 -25l-210 -563q-5 -12 -13 -16.5t-27 -4.5zM575 309l-110 -175h110v175z" />
    <glyph glyph-name="questiondown" unicode="&#xbf;" horiz-adv-x="360" 
d="M206 472q23 0 31 -5.5t8 -21.5v-34q0 -39 -8.5 -60.5t-29.5 -44.5l-76 -82q-29 -31 -29 -83q0 -46 19 -58.5t78 -12.5q40 0 83.5 9t44.5 9q9 0 12.5 -6.5t3.5 -27.5q0 -20 -5.5 -27t-19.5 -11q-65 -20 -138 -20q-29 0 -50 2.5t-43.5 10.5t-37 22t-23.5 38.5t-9 59.5
q0 47 12.5 74.5t42.5 59.5l71 77q25 28 25 77v28q0 16 7.5 21.5t30.5 5.5zM206 617q28 0 36.5 -6t8.5 -25v-26q0 -19 -8.5 -25t-36.5 -6q-27 0 -36 6t-9 25v26q0 19 9 25t36 6z" />
    <glyph glyph-name="Agrave" unicode="&#xc0;" horiz-adv-x="517" 
d="M57 0q-23 0 -31.5 4t-8.5 15q0 10 5 26l159 534q7 24 20.5 30t56.5 6q44 0 57.5 -6t20.5 -30l158 -534q5 -16 5 -26t-8 -14.5t-31 -4.5q-26 0 -34.5 4.5t-12.5 17.5l-48 162h-216l-46 -162q-4 -13 -12.5 -17.5t-33.5 -4.5zM252 543l-84 -293h180l-83 293h-13zM263 659
q-16 0 -25.5 3t-13.5 7t-10 13l-57 88q-14 22 -14 31q0 16 47 16q27 0 35 -5t16 -21l47 -90q10 -20 10 -26q0 -16 -35 -16z" />
    <glyph glyph-name="Aacute" unicode="&#xc1;" horiz-adv-x="517" 
d="M57 0q-23 0 -31.5 4t-8.5 15q0 10 5 26l159 534q7 24 20.5 30t56.5 6q44 0 57.5 -6t20.5 -30l158 -534q5 -16 5 -26t-8 -14.5t-31 -4.5q-26 0 -34.5 4.5t-12.5 17.5l-48 162h-216l-46 -162q-4 -13 -12.5 -17.5t-33.5 -4.5zM252 543l-84 -293h180l-83 293h-13zM252 659
q-35 0 -35 16q0 6 10 26l47 90q6 11 9 15t13 7.5t29 3.5q47 0 47 -16q0 -9 -14 -31l-57 -88q-6 -9 -10 -13t-13.5 -7t-25.5 -3z" />
    <glyph glyph-name="Acircumflex" unicode="&#xc2;" horiz-adv-x="517" 
d="M57 0q-23 0 -31.5 4t-8.5 15q0 10 5 26l159 534q7 24 20.5 30t56.5 6q44 0 57.5 -6t20.5 -30l158 -534q5 -16 5 -26t-8 -14.5t-31 -4.5q-26 0 -34.5 4.5t-12.5 17.5l-48 162h-216l-46 -162q-4 -13 -12.5 -17.5t-33.5 -4.5zM252 543l-84 -293h180l-83 293h-13zM261 755h-6
l-48 -76q-8 -12 -16.5 -16t-29.5 -4q-32 0 -32 16q0 7 11 25l59 98q7 11 14.5 15t27.5 4h34q20 0 27.5 -4t14.5 -15l59 -98q11 -18 11 -25q0 -16 -32 -16q-21 0 -29.5 4t-16.5 16z" />
    <glyph glyph-name="Atilde" unicode="&#xc3;" horiz-adv-x="517" 
d="M57 0q-23 0 -31.5 4t-8.5 15q0 10 5 26l159 534q7 24 20.5 30t56.5 6q44 0 57.5 -6t20.5 -30l158 -534q5 -16 5 -26t-8 -14.5t-31 -4.5q-26 0 -34.5 4.5t-12.5 17.5l-48 162h-216l-46 -162q-4 -13 -12.5 -17.5t-33.5 -4.5zM252 543l-84 -293h180l-83 293h-13zM126 711
q0 17 5 24.5t19 16.5q27 18 59 18q22 0 55 -10.5t48 -10.5q20 0 41 9.5t23 9.5q8 0 10.5 -5.5t2.5 -23.5q0 -17 -5 -25t-19 -17q-31 -17 -60 -17q-21 0 -53.5 10t-48.5 10q-20 0 -41 -9t-23 -9q-8 0 -10.5 5.5t-2.5 23.5z" />
    <glyph glyph-name="Adieresis" unicode="&#xc4;" horiz-adv-x="517" 
d="M57 0q-23 0 -31.5 4t-8.5 15q0 10 5 26l159 534q7 24 20.5 30t56.5 6q44 0 57.5 -6t20.5 -30l158 -534q5 -16 5 -26t-8 -14.5t-31 -4.5q-26 0 -34.5 4.5t-12.5 17.5l-48 162h-216l-46 -162q-4 -13 -12.5 -17.5t-33.5 -4.5zM252 543l-84 -293h180l-83 293h-13zM185 692
q-28 0 -36 5.5t-8 25.5v21q0 20 8.5 26t35.5 6t35.5 -6t8.5 -26v-21q0 -20 -8 -25.5t-36 -5.5zM332 692q-28 0 -36.5 5.5t-8.5 25.5v21q0 20 8.5 26t36.5 6q27 0 35.5 -6t8.5 -26v-21q0 -20 -8 -25.5t-36 -5.5z" />
    <glyph glyph-name="Aring" unicode="&#xc5;" horiz-adv-x="517" 
d="M57 0q-23 0 -31.5 4t-8.5 15q0 10 5 26l159 534q7 24 20.5 30t56.5 6q44 0 57.5 -6t20.5 -30l158 -534q5 -16 5 -26t-8 -14.5t-31 -4.5q-26 0 -34.5 4.5t-12.5 17.5l-48 162h-216l-46 -162q-4 -13 -12.5 -17.5t-33.5 -4.5zM252 543l-84 -293h180l-83 293h-13zM258 727
q30 0 37.5 7t7.5 29t-8 29t-37 7q-28 0 -35.5 -7t-7.5 -29t7 -29t36 -7zM258 672q-63 0 -84.5 20t-21.5 71t21.5 71t84.5 20q64 0 85.5 -20t21.5 -71t-21.5 -71t-85.5 -20z" />
    <glyph glyph-name="AE" unicode="&#xc6;" horiz-adv-x="723" 
d="M57 0q-23 0 -31.5 4t-8.5 15q0 10 5 26l159 534q7 24 20.5 30t56.5 6h400q15 0 20 -7t5 -30t-5 -30.5t-20 -7.5h-243v-179h187q16 0 21 -6.5t5 -29.5t-5 -30t-21 -7h-187v-213h253q15 0 20 -7.5t5 -30.5q0 -22 -5 -29.5t-20 -7.5h-305q-19 0 -25 5t-6 20v159h-183
l-46 -162q-4 -13 -12.5 -17.5t-33.5 -4.5zM252 543l-84 -293h164v293h-80z" />
    <glyph glyph-name="Ccedilla" unicode="&#xc7;" horiz-adv-x="451" 
d="M253 -206q-25 0 -52 5q-15 3 -20.5 9t-5.5 23q0 19 4 25t14 6q3 0 18 -1.5t29 -1.5t20.5 3t6.5 14q0 3 -1 6t-2 4.5t-4 4t-4.5 4t-7.5 4.5t-9 5q-17 10 -24 22t-7 34v32q-41 3 -67.5 14.5t-49 40t-33 82t-10.5 135.5v76q0 64 6 111t19.5 77.5t29 49t42 27.5t51 12t62.5 3
q70 0 135 -19q14 -3 19 -10t5 -29q0 -33 -16 -33q-4 0 -22 4.5t-47 9t-58 4.5q-62 0 -89 -12t-40.5 -57.5t-13.5 -146.5v-50q0 -51 3 -86.5t11 -60t17 -38t27.5 -20.5t36 -9t48.5 -2t59.5 4.5t46 9t21.5 4.5q9 0 12.5 -6.5t3.5 -26.5q0 -21 -5.5 -28.5t-18.5 -11.5
q-61 -16 -125 -19v-17q0 -16 15 -26q36 -21 47 -35.5t11 -46.5q0 -72 -88 -72z" />
    <glyph glyph-name="Egrave" unicode="&#xc8;" horiz-adv-x="455" 
d="M425 37q0 -22 -5 -29.5t-20 -7.5h-308q-18 0 -24 5t-6 20v565q0 15 6 20t24 5h298q15 0 20 -7t5 -30t-5 -30.5t-20 -7.5h-246v-179h191q15 0 20 -6.5t5 -29.5t-5 -30t-20 -7h-191v-213h256q15 0 20 -7.5t5 -30.5zM249 659q-16 0 -25.5 3t-13.5 7t-10 13l-57 88
q-14 22 -14 31q0 16 47 16q27 0 35 -5t16 -21l47 -90q10 -20 10 -26q0 -16 -35 -16z" />
    <glyph glyph-name="Eacute" unicode="&#xc9;" horiz-adv-x="455" 
d="M425 37q0 -22 -5 -29.5t-20 -7.5h-308q-18 0 -24 5t-6 20v565q0 15 6 20t24 5h298q15 0 20 -7t5 -30t-5 -30.5t-20 -7.5h-246v-179h191q15 0 20 -6.5t5 -29.5t-5 -30t-20 -7h-191v-213h256q15 0 20 -7.5t5 -30.5zM211 659q-35 0 -35 16q0 6 10 26l47 90q6 11 9 15t13 7.5
t29 3.5q47 0 47 -16q0 -9 -14 -31l-57 -88q-6 -9 -10 -13t-13.5 -7t-25.5 -3z" />
    <glyph glyph-name="Ecircumflex" unicode="&#xca;" horiz-adv-x="455" 
d="M425 37q0 -22 -5 -29.5t-20 -7.5h-308q-18 0 -24 5t-6 20v565q0 15 6 20t24 5h298q15 0 20 -7t5 -30t-5 -30.5t-20 -7.5h-246v-179h191q15 0 20 -6.5t5 -29.5t-5 -30t-20 -7h-191v-213h256q15 0 20 -7.5t5 -30.5zM243 755h-6l-48 -76q-8 -12 -16.5 -16t-29.5 -4
q-32 0 -32 16q0 7 11 25l59 98q7 11 14.5 15t27.5 4h34q20 0 27.5 -4t14.5 -15l59 -98q11 -18 11 -25q0 -16 -32 -16q-21 0 -29.5 4t-16.5 16z" />
    <glyph glyph-name="Edieresis" unicode="&#xcb;" horiz-adv-x="455" 
d="M425 37q0 -22 -5 -29.5t-20 -7.5h-308q-18 0 -24 5t-6 20v565q0 15 6 20t24 5h298q15 0 20 -7t5 -30t-5 -30.5t-20 -7.5h-246v-179h191q15 0 20 -6.5t5 -29.5t-5 -30t-20 -7h-191v-213h256q15 0 20 -7.5t5 -30.5zM167 689q-28 0 -36 5.5t-8 25.5v21q0 20 8.5 26t35.5 6
t35.5 -6t8.5 -26v-21q0 -20 -8 -25.5t-36 -5.5zM314 689q-28 0 -36.5 5.5t-8.5 25.5v21q0 20 8.5 26t36.5 6q27 0 35.5 -6t8.5 -26v-21q0 -20 -8 -25.5t-36 -5.5z" />
    <glyph glyph-name="Igrave" unicode="&#xcc;" horiz-adv-x="206" 
d="M103 0q-25 0 -33 5.5t-8 21.5v562q0 16 8 21t33 5t33 -5t8 -21v-562q0 -16 -8 -21.5t-33 -5.5zM115 659q-16 0 -25.5 3t-13.5 7t-10 13l-57 88q-14 22 -14 31q0 16 47 16q27 0 35 -5t16 -21l47 -90q10 -20 10 -26q0 -16 -35 -16z" />
    <glyph glyph-name="Iacute" unicode="&#xcd;" horiz-adv-x="206" 
d="M103 0q-25 0 -33 5.5t-8 21.5v562q0 16 8 21t33 5t33 -5t8 -21v-562q0 -16 -8 -21.5t-33 -5.5zM92 659q-35 0 -35 16q0 6 10 26l47 90q6 11 9 15t13 7.5t29 3.5q47 0 47 -16q0 -9 -14 -31l-57 -88q-6 -9 -10 -13t-13.5 -7t-25.5 -3z" />
    <glyph glyph-name="Icircumflex" unicode="&#xce;" horiz-adv-x="206" 
d="M103 0q-25 0 -33 5.5t-8 21.5v562q0 16 8 21t33 5t33 -5t8 -21v-562q0 -16 -8 -21.5t-33 -5.5zM106 755h-6l-48 -76q-8 -12 -16.5 -16t-29.5 -4q-32 0 -32 16q0 7 11 25l59 98q7 11 14.5 15t27.5 4h34q20 0 27.5 -4t14.5 -15l59 -98q11 -18 11 -25q0 -16 -32 -16
q-21 0 -29.5 4t-16.5 16z" />
    <glyph glyph-name="Idieresis" unicode="&#xcf;" horiz-adv-x="206" 
d="M103 0q-25 0 -33 5.5t-8 21.5v562q0 16 8 21t33 5t33 -5t8 -21v-562q0 -16 -8 -21.5t-33 -5.5zM30 689q-28 0 -36 5.5t-8 25.5v21q0 20 8.5 26t35.5 6t35.5 -6t8.5 -26v-21q0 -20 -8 -25.5t-36 -5.5zM177 689q-28 0 -36.5 5.5t-8.5 25.5v21q0 20 8.5 26t36.5 6
q27 0 35.5 -6t8.5 -26v-21q0 -20 -8 -25.5t-36 -5.5z" />
    <glyph glyph-name="Eth" unicode="&#xd0;" horiz-adv-x="524" 
d="M6 312q0 23 5 30t20 7h31v230q0 28 29 33q58 8 146 8q39 0 65 -2t53.5 -8t44.5 -18t33 -32.5t24.5 -50.5t13.5 -71.5t5 -97.5v-59q0 -67 -6.5 -115.5t-21 -80t-31.5 -50.5t-45.5 -28.5t-54 -12.5t-65.5 -3q-83 0 -156 8q-20 2 -27 9t-7 23v244h-31q-15 0 -20 7t-5 30z
M252 65q46 0 68.5 5t41.5 27t25 65t6 119v57q0 73 -7 114.5t-27 63.5t-45.5 27.5t-74.5 5.5q-40 0 -95 -5v-196h37q15 0 20 -7t5 -29t-5 -29t-20 -7h-37v-206q45 -5 108 -5z" />
    <glyph glyph-name="Ntilde" unicode="&#xd1;" horiz-adv-x="543" 
d="M103 0q-25 0 -33 5.5t-8 21.5v562q0 16 11 21t48 5q33 0 45 -4t20 -22l203 -462h10v462q0 16 8 21t33 5t33 -5t8 -21v-562q0 -17 -10.5 -22t-47.5 -5q-31 0 -42.5 4.5t-19.5 21.5l-207 463h-10v-462q0 -16 -8 -21.5t-33 -5.5zM140 719q0 17 5 24.5t19 16.5q27 18 59 18
q22 0 55 -10.5t48 -10.5q20 0 41 9.5t23 9.5q8 0 10.5 -5.5t2.5 -23.5q0 -17 -5 -25t-19 -17q-31 -17 -60 -17q-21 0 -53.5 10t-48.5 10q-20 0 -41 -9t-23 -9q-8 0 -10.5 5.5t-2.5 23.5z" />
    <glyph glyph-name="Ograve" unicode="&#xd2;" horiz-adv-x="524" 
d="M262 63q58 0 83.5 14.5t37 59.5t11.5 144v49q0 102 -10 145.5t-35.5 58t-86.5 14.5q-58 0 -83 -14t-36.5 -59t-11.5 -145v-49q0 -62 3 -98t10 -62.5t23 -37.5t37 -15.5t58 -4.5zM262 -9q-53 0 -84.5 5.5t-59.5 21.5t-41.5 48t-21 82.5t-7.5 127.5v57q0 66 5 113t18 79
t28 51t42 28.5t53 12.5t68 3q53 0 85 -5.5t60 -21.5t41.5 -48.5t20.5 -83t7 -128.5v-57q0 -78 -9 -130.5t-23.5 -83t-43.5 -46.5t-59 -20.5t-79 -4.5zM286 659q-16 0 -25.5 3t-13.5 7t-10 13l-57 88q-14 22 -14 31q0 16 47 16q27 0 35 -5t16 -21l47 -90q10 -20 10 -26
q0 -16 -35 -16z" />
    <glyph glyph-name="Oacute" unicode="&#xd3;" horiz-adv-x="524" 
d="M262 63q58 0 83.5 14.5t37 59.5t11.5 144v49q0 102 -10 145.5t-35.5 58t-86.5 14.5q-58 0 -83 -14t-36.5 -59t-11.5 -145v-49q0 -62 3 -98t10 -62.5t23 -37.5t37 -15.5t58 -4.5zM262 -9q-53 0 -84.5 5.5t-59.5 21.5t-41.5 48t-21 82.5t-7.5 127.5v57q0 66 5 113t18 79
t28 51t42 28.5t53 12.5t68 3q53 0 85 -5.5t60 -21.5t41.5 -48.5t20.5 -83t7 -128.5v-57q0 -78 -9 -130.5t-23.5 -83t-43.5 -46.5t-59 -20.5t-79 -4.5zM237 659q-35 0 -35 16q0 6 10 26l47 90q6 11 9 15t13 7.5t29 3.5q47 0 47 -16q0 -9 -14 -31l-57 -88q-6 -9 -10 -13
t-13.5 -7t-25.5 -3z" />
    <glyph glyph-name="Ocircumflex" unicode="&#xd4;" horiz-adv-x="524" 
d="M262 63q58 0 83.5 14.5t37 59.5t11.5 144v49q0 102 -10 145.5t-35.5 58t-86.5 14.5q-58 0 -83 -14t-36.5 -59t-11.5 -145v-49q0 -62 3 -98t10 -62.5t23 -37.5t37 -15.5t58 -4.5zM262 -9q-53 0 -84.5 5.5t-59.5 21.5t-41.5 48t-21 82.5t-7.5 127.5v57q0 66 5 113t18 79
t28 51t42 28.5t53 12.5t68 3q53 0 85 -5.5t60 -21.5t41.5 -48.5t20.5 -83t7 -128.5v-57q0 -78 -9 -130.5t-23.5 -83t-43.5 -46.5t-59 -20.5t-79 -4.5zM266 755h-6l-48 -76q-8 -12 -16.5 -16t-29.5 -4q-32 0 -32 16q0 7 11 25l59 98q7 11 14.5 15t27.5 4h34q20 0 27.5 -4
t14.5 -15l59 -98q11 -18 11 -25q0 -16 -32 -16q-21 0 -29.5 4t-16.5 16z" />
    <glyph glyph-name="Otilde" unicode="&#xd5;" horiz-adv-x="524" 
d="M262 63q58 0 83.5 14.5t37 59.5t11.5 144v49q0 102 -10 145.5t-35.5 58t-86.5 14.5q-58 0 -83 -14t-36.5 -59t-11.5 -145v-49q0 -62 3 -98t10 -62.5t23 -37.5t37 -15.5t58 -4.5zM262 -9q-53 0 -84.5 5.5t-59.5 21.5t-41.5 48t-21 82.5t-7.5 127.5v57q0 66 5 113t18 79
t28 51t42 28.5t53 12.5t68 3q53 0 85 -5.5t60 -21.5t41.5 -48.5t20.5 -83t7 -128.5v-57q0 -78 -9 -130.5t-23.5 -83t-43.5 -46.5t-59 -20.5t-79 -4.5zM131 711q0 17 5 24.5t19 16.5q27 18 59 18q22 0 55 -10.5t48 -10.5q20 0 41 9.5t23 9.5q8 0 10.5 -5.5t2.5 -23.5
q0 -17 -5 -25t-19 -17q-31 -17 -60 -17q-22 0 -54 10t-48 10q-20 0 -41 -9t-23 -9q-8 0 -10.5 5.5t-2.5 23.5z" />
    <glyph glyph-name="Odieresis" unicode="&#xd6;" horiz-adv-x="524" 
d="M262 63q58 0 83.5 14.5t37 59.5t11.5 144v49q0 102 -10 145.5t-35.5 58t-86.5 14.5q-58 0 -83 -14t-36.5 -59t-11.5 -145v-49q0 -62 3 -98t10 -62.5t23 -37.5t37 -15.5t58 -4.5zM262 -9q-53 0 -84.5 5.5t-59.5 21.5t-41.5 48t-21 82.5t-7.5 127.5v57q0 66 5 113t18 79
t28 51t42 28.5t53 12.5t68 3q53 0 85 -5.5t60 -21.5t41.5 -48.5t20.5 -83t7 -128.5v-57q0 -78 -9 -130.5t-23.5 -83t-43.5 -46.5t-59 -20.5t-79 -4.5zM189 691q-28 0 -36 5.5t-8 25.5v21q0 20 8.5 26t35.5 6t35.5 -6t8.5 -26v-21q0 -20 -8 -25.5t-36 -5.5zM336 691
q-28 0 -36.5 5.5t-8.5 25.5v21q0 20 8.5 26t36.5 6q27 0 35.5 -6t8.5 -26v-21q0 -20 -8 -25.5t-36 -5.5z" />
    <glyph glyph-name="multiply" unicode="&#xd7;" 
d="M85 128q0 7 14 26l90 115l-90 123q-14 19 -14 26q0 15 36 15q32 0 43 -15l64 -94l65 94q10 15 44 15q35 0 35 -15q0 -5 -14 -26l-90 -123l90 -115q14 -16 14 -26q0 -15 -35 -15q-32 0 -44 15l-65 88l-64 -88q-11 -15 -43 -15q-36 0 -36 15z" />
    <glyph glyph-name="Oslash" unicode="&#xd8;" horiz-adv-x="524" 
d="M262 -9q-49 0 -78.5 4.5t-58.5 20.5t-44 46.5t-24 83t-9 130.5v57q0 78 7 128.5t20.5 83t41.5 48.5t60 21.5t85 5.5t85 -5.5t60 -21.5t41.5 -48.5t20.5 -83t7 -128.5v-57q0 -78 -9 -130.5t-23.5 -83t-43.5 -46.5t-59 -20.5t-79 -4.5zM131 330q0 -116 4 -153l241 325
q-12 28 -37.5 37t-76.5 9q-61 0 -86 -14.5t-35 -58t-10 -145.5zM262 63q58 0 83.5 14.5t37 59.5t11.5 144q0 103 -3 142l-235 -320q14 -24 38 -32t68 -8z" />
    <glyph glyph-name="Ugrave" unicode="&#xd9;" horiz-adv-x="521" 
d="M261 -9q-107 0 -153 42.5t-46 143.5v412q0 16 8 21t33 5t33 -5t8 -21v-415q0 -60 24 -84t93 -24q68 0 92 24t24 84v415q0 16 8 21t33 5t33 -5t8 -21v-412q0 -101 -46 -143.5t-152 -42.5zM283 659q-16 0 -25.5 3t-13.5 7t-10 13l-57 88q-14 22 -14 31q0 16 47 16
q27 0 35 -5t16 -21l47 -90q10 -20 10 -26q0 -16 -35 -16z" />
    <glyph glyph-name="Uacute" unicode="&#xda;" horiz-adv-x="521" 
d="M261 -9q-107 0 -153 42.5t-46 143.5v412q0 16 8 21t33 5t33 -5t8 -21v-415q0 -60 24 -84t93 -24q68 0 92 24t24 84v415q0 16 8 21t33 5t33 -5t8 -21v-412q0 -101 -46 -143.5t-152 -42.5zM238 659q-35 0 -35 16q0 6 10 26l47 90q6 11 9 15t13 7.5t29 3.5q47 0 47 -16
q0 -9 -14 -31l-57 -88q-6 -9 -10 -13t-13.5 -7t-25.5 -3z" />
    <glyph glyph-name="Ucircumflex" unicode="&#xdb;" horiz-adv-x="521" 
d="M261 -9q-107 0 -153 42.5t-46 143.5v412q0 16 8 21t33 5t33 -5t8 -21v-415q0 -60 24 -84t93 -24q68 0 92 24t24 84v415q0 16 8 21t33 5t33 -5t8 -21v-412q0 -101 -46 -143.5t-152 -42.5zM264 755h-6l-48 -76q-8 -12 -16.5 -16t-29.5 -4q-32 0 -32 16q0 7 11 25l59 98
q7 11 14.5 15t27.5 4h34q20 0 27.5 -4t14.5 -15l59 -98q11 -18 11 -25q0 -16 -32 -16q-21 0 -29.5 4t-16.5 16z" />
    <glyph glyph-name="Udieresis" unicode="&#xdc;" horiz-adv-x="521" 
d="M261 -9q-107 0 -153 42.5t-46 143.5v412q0 16 8 21t33 5t33 -5t8 -21v-415q0 -60 24 -84t93 -24q68 0 92 24t24 84v415q0 16 8 21t33 5t33 -5t8 -21v-412q0 -101 -46 -143.5t-152 -42.5zM188 691q-28 0 -36 5.5t-8 25.5v21q0 20 8.5 26t35.5 6t35.5 -6t8.5 -26v-21
q0 -20 -8 -25.5t-36 -5.5zM335 691q-28 0 -36.5 5.5t-8.5 25.5v21q0 20 8.5 26t36.5 6q27 0 35.5 -6t8.5 -26v-21q0 -20 -8 -25.5t-36 -5.5z" />
    <glyph glyph-name="Yacute" unicode="&#xdd;" horiz-adv-x="455" 
d="M227 0q-25 0 -33 5.5t-8 21.5v209l-158 328q-11 23 -11 32q0 19 38 19q29 0 39 -4t15 -18l116 -268h5l116 268q5 14 14.5 18t38.5 4q39 0 39 -19q0 -9 -11 -32l-158 -328v-209q0 -16 -8 -21.5t-34 -5.5zM208 659q-35 0 -35 16q0 6 10 26l47 90q6 11 9 15t13 7.5t29 3.5
q47 0 47 -16q0 -9 -14 -31l-57 -88q-6 -9 -10 -13t-13.5 -7t-25.5 -3z" />
    <glyph glyph-name="Thorn" unicode="&#xde;" horiz-adv-x="469" 
d="M103 0q-25 0 -33 5.5t-8 21.5v562q0 16 8 21t33 5t33 -5t8 -21v-92q58 5 95 5q58 0 91.5 -6t60 -24.5t36.5 -53t10 -91.5q0 -111 -47.5 -156.5t-167.5 -45.5h-78v-98q0 -16 -8 -21.5t-33 -5.5zM144 425v-230h81q77 0 103 26.5t26 104.5q0 66 -22.5 85t-98.5 19
q-24 0 -89 -5z" />
    <glyph glyph-name="germandbls" unicode="&#xdf;" horiz-adv-x="475" 
d="M202 665q88 0 126.5 -24.5t38.5 -84.5q0 -42 -24 -105.5t-24 -85.5q0 -23 6.5 -35t22.5 -24l62 -43q28 -19 38.5 -47t10.5 -74q0 -152 -139 -152q-52 0 -92 14q-15 5 -20 12.5t-5 26.5q0 33 14 33q2 0 32.5 -6.5t57.5 -6.5q41 0 55 19t14 61q0 30 -4.5 44t-21.5 25
l-57 37q-51 34 -51 100q0 36 22.5 99t22.5 92q0 35 -18.5 45.5t-65.5 10.5q-40 0 -50 -12t-10 -60v-497q0 -17 -8 -22t-33 -5t-33 5t-8 22v510q0 70 28.5 99t112.5 29z" />
    <glyph glyph-name="agrave" unicode="&#xe0;" horiz-adv-x="486" 
d="M171 -10q-67 0 -98 33t-31 108q0 77 40.5 109.5t140.5 32.5h108v77q0 51 -20 65.5t-74 14.5q-46 0 -97 -9.5t-53 -9.5q-16 0 -16 33q0 31 21 37q64 20 154 20t128 -26.5t38 -108.5v-186q0 -42 6 -78t11.5 -57t5.5 -25q0 -10 -7.5 -15t-31.5 -5q-22 0 -28.5 4t-11.5 19
l-17 65q-22 -49 -66.5 -73.5t-101.5 -24.5zM195 59q57 0 96.5 33t39.5 90v36l-112 -3q-58 -1 -77.5 -16.5t-19.5 -59.5q0 -50 16 -65t57 -15zM265 539q-16 0 -25.5 3t-13.5 7t-10 13l-57 88q-14 22 -14 31q0 16 47 16q27 0 35 -5t16 -21l47 -90q10 -20 10 -26q0 -16 -35 -16
z" />
    <glyph glyph-name="aacute" unicode="&#xe1;" horiz-adv-x="486" 
d="M171 -10q-67 0 -98 33t-31 108q0 77 40.5 109.5t140.5 32.5h108v77q0 51 -20 65.5t-74 14.5q-46 0 -97 -9.5t-53 -9.5q-16 0 -16 33q0 31 21 37q64 20 154 20t128 -26.5t38 -108.5v-186q0 -42 6 -78t11.5 -57t5.5 -25q0 -10 -7.5 -15t-31.5 -5q-22 0 -28.5 4t-11.5 19
l-17 65q-22 -49 -66.5 -73.5t-101.5 -24.5zM195 59q57 0 96.5 33t39.5 90v36l-112 -3q-58 -1 -77.5 -16.5t-19.5 -59.5q0 -50 16 -65t57 -15zM218 539q-35 0 -35 16q0 6 10 26l47 90q6 11 9 15t13 7.5t29 3.5q47 0 47 -16q0 -9 -14 -31l-57 -88q-6 -9 -10 -13t-13.5 -7
t-25.5 -3z" />
    <glyph glyph-name="acircumflex" unicode="&#xe2;" horiz-adv-x="486" 
d="M171 -10q-67 0 -98 33t-31 108q0 77 40.5 109.5t140.5 32.5h108v77q0 51 -20 65.5t-74 14.5q-46 0 -97 -9.5t-53 -9.5q-16 0 -16 33q0 31 21 37q64 20 154 20t128 -26.5t38 -108.5v-186q0 -42 6 -78t11.5 -57t5.5 -25q0 -10 -7.5 -15t-31.5 -5q-22 0 -28.5 4t-11.5 19
l-17 65q-22 -49 -66.5 -73.5t-101.5 -24.5zM195 59q57 0 96.5 33t39.5 90v36l-112 -3q-58 -1 -77.5 -16.5t-19.5 -59.5q0 -50 16 -65t57 -15zM238 635h-6l-48 -76q-8 -12 -16.5 -16t-29.5 -4q-32 0 -32 16q0 7 11 25l59 98q7 11 14.5 15t27.5 4h34q20 0 27.5 -4t14.5 -15
l59 -98q11 -18 11 -25q0 -16 -32 -16q-21 0 -29.5 4t-16.5 16z" />
    <glyph glyph-name="atilde" unicode="&#xe3;" horiz-adv-x="486" 
d="M171 -10q-67 0 -98 33t-31 108q0 77 40.5 109.5t140.5 32.5h108v77q0 51 -20 65.5t-74 14.5q-46 0 -97 -9.5t-53 -9.5q-16 0 -16 33q0 31 21 37q64 20 154 20t128 -26.5t38 -108.5v-186q0 -42 6 -78t11.5 -57t5.5 -25q0 -10 -7.5 -15t-31.5 -5q-22 0 -28.5 4t-11.5 19
l-17 65q-22 -49 -66.5 -73.5t-101.5 -24.5zM195 59q57 0 96.5 33t39.5 90v36l-112 -3q-58 -1 -77.5 -16.5t-19.5 -59.5q0 -50 16 -65t57 -15zM104 594q0 17 5 24.5t19 16.5q27 18 59 18q22 0 55 -10.5t48 -10.5q20 0 41 9.5t23 9.5q8 0 10.5 -5.5t2.5 -23.5q0 -17 -5 -25
t-19 -17q-31 -17 -60 -17q-21 0 -54 10t-48 10q-20 0 -41 -9t-23 -9q-8 0 -10.5 5.5t-2.5 23.5z" />
    <glyph glyph-name="adieresis" unicode="&#xe4;" horiz-adv-x="486" 
d="M171 -10q-67 0 -98 33t-31 108q0 77 40.5 109.5t140.5 32.5h108v77q0 51 -20 65.5t-74 14.5q-46 0 -97 -9.5t-53 -9.5q-16 0 -16 33q0 31 21 37q64 20 154 20t128 -26.5t38 -108.5v-186q0 -42 6 -78t11.5 -57t5.5 -25q0 -10 -7.5 -15t-31.5 -5q-22 0 -28.5 4t-11.5 19
l-17 65q-22 -49 -66.5 -73.5t-101.5 -24.5zM195 59q57 0 96.5 33t39.5 90v36l-112 -3q-58 -1 -77.5 -16.5t-19.5 -59.5q0 -50 16 -65t57 -15zM162 569q-28 0 -36 5.5t-8 25.5v21q0 20 8.5 26t35.5 6t35.5 -6t8.5 -26v-21q0 -20 -8 -25.5t-36 -5.5zM309 569q-28 0 -36.5 5.5
t-8.5 25.5v21q0 20 8.5 26t36.5 6q27 0 35.5 -6t8.5 -26v-21q0 -20 -8 -25.5t-36 -5.5z" />
    <glyph glyph-name="aring" unicode="&#xe5;" horiz-adv-x="486" 
d="M171 -10q-67 0 -98 33t-31 108q0 77 40.5 109.5t140.5 32.5h108v77q0 51 -20 65.5t-74 14.5q-46 0 -97 -9.5t-53 -9.5q-16 0 -16 33q0 31 21 37q64 20 154 20t128 -26.5t38 -108.5v-186q0 -42 6 -78t11.5 -57t5.5 -25q0 -10 -7.5 -15t-31.5 -5q-22 0 -28.5 4t-11.5 19
l-17 65q-22 -49 -66.5 -73.5t-101.5 -24.5zM195 59q57 0 96.5 33t39.5 90v36l-112 -3q-58 -1 -77.5 -16.5t-19.5 -59.5q0 -50 16 -65t57 -15zM234 608q30 0 37.5 7t7.5 29t-8 29t-37 7q-28 0 -35.5 -7t-7.5 -29t7 -29t36 -7zM234 553q-63 0 -84.5 20t-21.5 71t21.5 71
t84.5 20q64 0 85.5 -20t21.5 -71t-21.5 -71t-85.5 -20z" />
    <glyph glyph-name="ae" unicode="&#xe6;" horiz-adv-x="745" 
d="M513 -10q-38 0 -61.5 3t-47.5 13.5t-38.5 33t-21.5 59.5q-20 -54 -66.5 -81.5t-106.5 -27.5q-67 0 -98 33t-31 108q0 77 40.5 109.5t140.5 32.5h108v77q0 51 -20 65.5t-74 14.5q-46 0 -97 -9.5t-53 -9.5q-16 0 -16 33q0 31 21 37q64 20 154 20q108 0 140 -43
q41 43 144 43q45 0 76 -10t49.5 -26.5t28.5 -47.5t13 -64t3 -85q0 -22 -7.5 -32t-28.5 -10h-251q1 -47 4.5 -76.5t10 -47.5t20.5 -26.5t29 -11t42 -2.5q43 0 79.5 5t56.5 10.5t24 5.5q14 0 14 -33q0 -19 -4.5 -26.5t-19.5 -12.5q-58 -21 -156 -21zM195 59q57 0 96.5 33
t39.5 90v36l-112 -3q-58 -1 -77.5 -16.5t-19.5 -59.5q0 -50 16 -65t57 -15zM523 431q-45 0 -66 -10t-31.5 -41t-12.5 -97h207q0 37 -1 55.5t-6 40t-15 30.5t-28.5 15.5t-46.5 6.5z" />
    <glyph glyph-name="ccedilla" unicode="&#xe7;" horiz-adv-x="428" 
d="M230 -206q-25 0 -52 5q-15 3 -20.5 9t-5.5 23q0 19 4 25t14 6q3 0 18 -1.5t29 -1.5t20.5 3t6.5 14q0 3 -1 6t-2 4.5t-4 4t-4.5 4t-7.5 4.5t-9 5q-17 10 -24 22t-7 34v33q-72 9 -102.5 61t-30.5 187q0 70 9.5 118.5t24.5 76t41.5 42.5t52 19t65.5 4q64 0 122 -17
q15 -5 20 -12.5t5 -26.5q0 -33 -15 -33q-2 0 -48 9t-77 9q-48 0 -70 -11t-34 -50t-12 -120q0 -123 19.5 -155t98.5 -32q41 0 82 10l42 11q14 0 14 -33q0 -19 -4.5 -26.5t-19.5 -12.5q-53 -19 -123 -21v-16q0 -16 15 -26q36 -21 47 -35.5t11 -46.5q0 -72 -88 -72z" />
    <glyph glyph-name="egrave" unicode="&#xe8;" horiz-adv-x="468" 
d="M253 -10q-59 0 -93 8t-60.5 34.5t-37 76t-10.5 132.5q0 70 9.5 118.5t24.5 76t42 42.5t53 19t67 4q58 0 93.5 -13t53 -45.5t23 -70.5t5.5 -104q0 -22 -7.5 -32t-28.5 -10h-251q1 -106 22.5 -135t102.5 -29q34 0 66 5t51.5 10.5t23.5 5.5q14 0 14 -33q0 -19 -4.5 -26.5
t-19.5 -12.5q-58 -21 -139 -21zM246 431q-62 0 -84.5 -26.5t-25.5 -121.5h207q0 37 -1 55.5t-6 40t-15 30.5t-28.5 15.5t-46.5 6.5zM267 539q-16 0 -25.5 3t-13.5 7t-10 13l-57 88q-14 22 -14 31q0 16 47 16q27 0 35 -5t16 -21l47 -90q10 -20 10 -26q0 -16 -35 -16z" />
    <glyph glyph-name="eacute" unicode="&#xe9;" horiz-adv-x="468" 
d="M253 -10q-59 0 -93 8t-60.5 34.5t-37 76t-10.5 132.5q0 70 9.5 118.5t24.5 76t42 42.5t53 19t67 4q58 0 93.5 -13t53 -45.5t23 -70.5t5.5 -104q0 -22 -7.5 -32t-28.5 -10h-251q1 -106 22.5 -135t102.5 -29q34 0 66 5t51.5 10.5t23.5 5.5q14 0 14 -33q0 -19 -4.5 -26.5
t-19.5 -12.5q-58 -21 -139 -21zM246 431q-62 0 -84.5 -26.5t-25.5 -121.5h207q0 37 -1 55.5t-6 40t-15 30.5t-28.5 15.5t-46.5 6.5zM217 539q-35 0 -35 16q0 6 10 26l47 90q6 11 9 15t13 7.5t29 3.5q47 0 47 -16q0 -9 -14 -31l-57 -88q-6 -9 -10 -13t-13.5 -7t-25.5 -3z" />
    <glyph glyph-name="ecircumflex" unicode="&#xea;" horiz-adv-x="468" 
d="M253 -10q-59 0 -93 8t-60.5 34.5t-37 76t-10.5 132.5q0 70 9.5 118.5t24.5 76t42 42.5t53 19t67 4q58 0 93.5 -13t53 -45.5t23 -70.5t5.5 -104q0 -22 -7.5 -32t-28.5 -10h-251q1 -106 22.5 -135t102.5 -29q34 0 66 5t51.5 10.5t23.5 5.5q14 0 14 -33q0 -19 -4.5 -26.5
t-19.5 -12.5q-58 -21 -139 -21zM246 431q-62 0 -84.5 -26.5t-25.5 -121.5h207q0 37 -1 55.5t-6 40t-15 30.5t-28.5 15.5t-46.5 6.5zM245 635h-6l-48 -76q-8 -12 -16.5 -16t-29.5 -4q-32 0 -32 16q0 7 11 25l59 98q7 11 14.5 15t27.5 4h34q20 0 27.5 -4t14.5 -15l59 -98
q11 -18 11 -25q0 -16 -32 -16q-21 0 -29.5 4t-16.5 16z" />
    <glyph glyph-name="edieresis" unicode="&#xeb;" horiz-adv-x="468" 
d="M253 -10q-59 0 -93 8t-60.5 34.5t-37 76t-10.5 132.5q0 70 9.5 118.5t24.5 76t42 42.5t53 19t67 4q58 0 93.5 -13t53 -45.5t23 -70.5t5.5 -104q0 -22 -7.5 -32t-28.5 -10h-251q1 -106 22.5 -135t102.5 -29q34 0 66 5t51.5 10.5t23.5 5.5q14 0 14 -33q0 -19 -4.5 -26.5
t-19.5 -12.5q-58 -21 -139 -21zM246 431q-62 0 -84.5 -26.5t-25.5 -121.5h207q0 37 -1 55.5t-6 40t-15 30.5t-28.5 15.5t-46.5 6.5zM169 569q-28 0 -36 5.5t-8 25.5v21q0 20 8.5 26t35.5 6t35.5 -6t8.5 -26v-21q0 -20 -8 -25.5t-36 -5.5zM316 569q-28 0 -36.5 5.5t-8.5 25.5
v21q0 20 8.5 26t36.5 6q27 0 35.5 -6t8.5 -26v-21q0 -20 -8 -25.5t-36 -5.5z" />
    <glyph glyph-name="igrave" unicode="&#xec;" horiz-adv-x="208" 
d="M118 539q-16 0 -25.5 3t-13.5 7t-10 13l-57 88q-14 22 -14 31q0 16 47 16q27 0 35 -5t16 -21l47 -90q10 -20 10 -26q0 -16 -35 -16zM102 0q-25 0 -33 5t-8 22v438q0 17 8 21.5t33 4.5t33 -4.5t8 -21.5v-438q0 -17 -8 -22t-33 -5z" />
    <glyph glyph-name="iacute" unicode="&#xed;" horiz-adv-x="208" 
d="M87 539q-35 0 -35 16q0 6 10 26l47 90q6 11 9 15t13 7.5t29 3.5q47 0 47 -16q0 -9 -14 -31l-57 -88q-6 -9 -10 -13t-13.5 -7t-25.5 -3zM102 0q-25 0 -33 5t-8 22v438q0 17 8 21.5t33 4.5t33 -4.5t8 -21.5v-438q0 -17 -8 -22t-33 -5z" />
    <glyph glyph-name="icircumflex" unicode="&#xee;" horiz-adv-x="208" 
d="M103 0q-25 0 -33 5t-8 22v438q0 17 8 21.5t33 4.5t33 -4.5t8 -21.5v-438q0 -17 -8 -22t-33 -5zM107 635h-6l-48 -76q-8 -12 -16.5 -16t-29.5 -4q-32 0 -32 16q0 7 11 25l59 98q7 11 14.5 15t27.5 4h34q20 0 27.5 -4t14.5 -15l59 -98q11 -18 11 -25q0 -16 -32 -16
q-21 0 -29.5 4t-16.5 16z" />
    <glyph glyph-name="idieresis" unicode="&#xef;" horiz-adv-x="208" 
d="M31 569q-28 0 -36 5.5t-8 25.5v21q0 20 8.5 26t35.5 6t35.5 -6t8.5 -26v-21q0 -20 -8 -25.5t-36 -5.5zM178 569q-28 0 -36.5 5.5t-8.5 25.5v21q0 20 8.5 26t36.5 6q27 0 35.5 -6t8.5 -26v-21q0 -20 -8 -25.5t-36 -5.5zM102 0q-25 0 -33 5t-8 22v438q0 17 8 21.5t33 4.5
t33 -4.5t8 -21.5v-438q0 -17 -8 -22t-33 -5z" />
    <glyph glyph-name="eth" unicode="&#xf0;" horiz-adv-x="497" 
d="M419 589q0 -10 -12 -14l-44 -12q82 -148 82 -312q0 -151 -45 -206t-159 -55q-58 0 -92 9.5t-57 37.5t-31.5 76t-8.5 128q0 106 18 163t52.5 77t98.5 20q65 0 100 -27q-11 32 -31 71l-47 -12q-10 -2 -12 -2q-6 0 -8 3t-6 14q-5 17 -5 21q0 10 13 13l38 10q-23 38 -23 49
q0 16 30 16q29 0 39 -14q16 -20 25 -33l55 14q7 2 13 2q9 0 13 -17q4 -13 4 -20zM243 61q73 0 95.5 35t22.5 146q0 81 -10.5 121.5t-32 54t-64.5 13.5q-79 0 -98.5 -31t-19.5 -149q0 -123 18.5 -156.5t88.5 -33.5z" />
    <glyph glyph-name="ntilde" unicode="&#xf1;" horiz-adv-x="510" 
d="M115 0q-25 0 -33.5 5t-8.5 22v284q0 42 -5.5 78.5t-11 57.5t-5.5 25q0 10 7.5 14.5t30.5 4.5t30 -3.5t11 -18.5l14 -59q39 91 168 91q79 0 107.5 -31t28.5 -100v-343q0 -17 -8.5 -22t-33.5 -5t-33 5t-8 22v324q0 45 -16 61.5t-65 16.5q-70 0 -99 -39t-29 -129v-234
q0 -17 -8 -22t-33 -5zM130 594q0 17 5 24.5t19 16.5q27 18 59 18q22 0 55 -10.5t48 -10.5q20 0 41 9.5t23 9.5q8 0 10.5 -5.5t2.5 -23.5q0 -17 -5 -25t-19 -17q-31 -17 -60 -17q-21 0 -54 10t-48 10q-20 0 -41 -9t-23 -9q-8 0 -10.5 5.5t-2.5 23.5z" />
    <glyph glyph-name="ograve" unicode="&#xf2;" horiz-adv-x="497" 
d="M241 -10q-58 0 -92 9.5t-57 37.5t-31.5 76t-8.5 128q0 151 45.5 205.5t159.5 54.5q76 0 114.5 -19t56 -72t17.5 -159q0 -151 -45 -206t-159 -55zM243 61q73 0 95.5 35t22.5 146q0 122 -18.5 155.5t-88.5 33.5q-73 0 -95.5 -34.5t-22.5 -145.5q0 -123 18.5 -156.5
t88.5 -33.5zM270 539q-16 0 -25.5 3t-13.5 7t-10 13l-57 88q-14 22 -14 31q0 16 47 16q27 0 35 -5t16 -21l47 -90q10 -20 10 -26q0 -16 -35 -16z" />
    <glyph glyph-name="oacute" unicode="&#xf3;" horiz-adv-x="497" 
d="M241 -10q-58 0 -92 9.5t-57 37.5t-31.5 76t-8.5 128q0 151 45.5 205.5t159.5 54.5q76 0 114.5 -19t56 -72t17.5 -159q0 -151 -45 -206t-159 -55zM243 61q73 0 95.5 35t22.5 146q0 122 -18.5 155.5t-88.5 33.5q-73 0 -95.5 -34.5t-22.5 -145.5q0 -123 18.5 -156.5
t88.5 -33.5zM227 539q-35 0 -35 16q0 6 10 26l47 90q6 11 9 15t13 7.5t29 3.5q47 0 47 -16q0 -9 -14 -31l-57 -88q-6 -9 -10 -13t-13.5 -7t-25.5 -3z" />
    <glyph glyph-name="ocircumflex" unicode="&#xf4;" horiz-adv-x="497" 
d="M241 -10q-58 0 -92 9.5t-57 37.5t-31.5 76t-8.5 128q0 151 45.5 205.5t159.5 54.5q76 0 114.5 -19t56 -72t17.5 -159q0 -151 -45 -206t-159 -55zM243 61q73 0 95.5 35t22.5 146q0 122 -18.5 155.5t-88.5 33.5q-73 0 -95.5 -34.5t-22.5 -145.5q0 -123 18.5 -156.5
t88.5 -33.5zM252 635h-6l-48 -76q-8 -12 -16.5 -16t-29.5 -4q-32 0 -32 16q0 7 11 25l59 98q7 11 14.5 15t27.5 4h34q20 0 27.5 -4t14.5 -15l59 -98q11 -18 11 -25q0 -16 -32 -16q-21 0 -29.5 4t-16.5 16z" />
    <glyph glyph-name="otilde" unicode="&#xf5;" horiz-adv-x="497" 
d="M241 -10q-58 0 -92 9.5t-57 37.5t-31.5 76t-8.5 128q0 151 45.5 205.5t159.5 54.5q76 0 114.5 -19t56 -72t17.5 -159q0 -151 -45 -206t-159 -55zM243 61q73 0 95.5 35t22.5 146q0 122 -18.5 155.5t-88.5 33.5q-73 0 -95.5 -34.5t-22.5 -145.5q0 -123 18.5 -156.5
t88.5 -33.5zM118 594q0 17 5 24.5t19 16.5q27 18 59 18q22 0 55 -10.5t48 -10.5q20 0 41 9.5t23 9.5q8 0 10.5 -5.5t2.5 -23.5q0 -17 -5 -25t-19 -17q-31 -17 -60 -17q-21 0 -54 10t-48 10q-20 0 -41 -9t-23 -9q-8 0 -10.5 5.5t-2.5 23.5z" />
    <glyph glyph-name="odieresis" unicode="&#xf6;" horiz-adv-x="497" 
d="M241 -10q-58 0 -92 9.5t-57 37.5t-31.5 76t-8.5 128q0 151 45.5 205.5t159.5 54.5q76 0 114.5 -19t56 -72t17.5 -159q0 -151 -45 -206t-159 -55zM243 61q73 0 95.5 35t22.5 146q0 122 -18.5 155.5t-88.5 33.5q-73 0 -95.5 -34.5t-22.5 -145.5q0 -123 18.5 -156.5
t88.5 -33.5zM176 569q-28 0 -36 5.5t-8 25.5v21q0 20 8.5 26t35.5 6t35.5 -6t8.5 -26v-21q0 -20 -8 -25.5t-36 -5.5zM323 569q-28 0 -36.5 5.5t-8.5 25.5v21q0 20 8.5 26t36.5 6q27 0 35.5 -6t8.5 -26v-21q0 -20 -8 -25.5t-36 -5.5z" />
    <glyph glyph-name="divide" unicode="&#xf7;" 
d="M88 269q0 23 5 29t21 6h234q16 0 21 -6t5 -29q0 -22 -5 -28t-21 -6h-234q-16 0 -21 6t-5 28zM230 370q-24 0 -31.5 5t-7.5 22v28q0 17 7.5 22t31.5 5t31.5 -5t7.5 -22v-28q0 -17 -7.5 -22t-31.5 -5zM230 70q-24 0 -31.5 5t-7.5 22v28q0 17 7.5 22t31.5 5t31.5 -5t7.5 -22
v-28q0 -17 -7.5 -22t-31.5 -5z" />
    <glyph glyph-name="oslash" unicode="&#xf8;" horiz-adv-x="497" 
d="M241 -10q-58 0 -92 9.5t-57 37.5t-31.5 76t-8.5 128q0 151 45.5 205.5t159.5 54.5q76 0 114.5 -19t56 -72t17.5 -159q0 -151 -45 -206t-159 -55zM243 61q73 0 95.5 35t22.5 146q0 67 -4 102l-200 -254q20 -29 86 -29zM136 251q0 -75 3 -102l199 255q-19 27 -84 27
q-73 0 -95.5 -34.5t-22.5 -145.5z" />
    <glyph glyph-name="ugrave" unicode="&#xf9;" horiz-adv-x="500" 
d="M195 -10q-77 0 -105.5 30t-28.5 99v346q0 17 8 21.5t33 4.5t33 -4.5t8 -21.5v-327q0 -45 16 -60.5t65 -15.5q71 0 99.5 39t28.5 130v234q0 17 8 21.5t33 4.5t33 -4.5t8 -21.5v-285q0 -42 6 -78t11.5 -57t5.5 -25q0 -10 -7.5 -15t-30.5 -5t-30 4t-11 19l-14 56
q-39 -89 -169 -89zM267 539q-16 0 -25.5 3t-13.5 7t-10 13l-57 88q-14 22 -14 31q0 16 47 16q27 0 35 -5t16 -21l47 -90q10 -20 10 -26q0 -16 -35 -16z" />
    <glyph glyph-name="uacute" unicode="&#xfa;" horiz-adv-x="500" 
d="M195 -10q-77 0 -105.5 30t-28.5 99v346q0 17 8 21.5t33 4.5t33 -4.5t8 -21.5v-327q0 -45 16 -60.5t65 -15.5q71 0 99.5 39t28.5 130v234q0 17 8 21.5t33 4.5t33 -4.5t8 -21.5v-285q0 -42 6 -78t11.5 -57t5.5 -25q0 -10 -7.5 -15t-30.5 -5t-30 4t-11 19l-14 56
q-39 -89 -169 -89zM228 539q-35 0 -35 16q0 6 10 26l47 90q6 11 9 15t13 7.5t29 3.5q47 0 47 -16q0 -9 -14 -31l-57 -88q-6 -9 -10 -13t-13.5 -7t-25.5 -3z" />
    <glyph glyph-name="ucircumflex" unicode="&#xfb;" horiz-adv-x="500" 
d="M195 -10q-77 0 -105.5 30t-28.5 99v346q0 17 8 21.5t33 4.5t33 -4.5t8 -21.5v-327q0 -45 16 -60.5t65 -15.5q71 0 99.5 39t28.5 130v234q0 17 8 21.5t33 4.5t33 -4.5t8 -21.5v-285q0 -42 6 -78t11.5 -57t5.5 -25q0 -10 -7.5 -15t-30.5 -5t-30 4t-11 19l-14 56
q-39 -89 -169 -89zM251 635h-6l-48 -76q-8 -12 -16.5 -16t-29.5 -4q-32 0 -32 16q0 7 11 25l59 98q7 11 14.5 15t27.5 4h34q20 0 27.5 -4t14.5 -15l59 -98q11 -18 11 -25q0 -16 -32 -16q-21 0 -29.5 4t-16.5 16z" />
    <glyph glyph-name="udieresis" unicode="&#xfc;" horiz-adv-x="500" 
d="M195 -10q-77 0 -105.5 30t-28.5 99v346q0 17 8 21.5t33 4.5t33 -4.5t8 -21.5v-327q0 -45 16 -60.5t65 -15.5q71 0 99.5 39t28.5 130v234q0 17 8 21.5t33 4.5t33 -4.5t8 -21.5v-285q0 -42 6 -78t11.5 -57t5.5 -25q0 -10 -7.5 -15t-30.5 -5t-30 4t-11 19l-14 56
q-39 -89 -169 -89zM175 569q-28 0 -36 5.5t-8 25.5v21q0 20 8.5 26t35.5 6t35.5 -6t8.5 -26v-21q0 -20 -8 -25.5t-36 -5.5zM322 569q-28 0 -36.5 5.5t-8.5 25.5v21q0 20 8.5 26t36.5 6q27 0 35.5 -6t8.5 -26v-21q0 -20 -8 -25.5t-36 -5.5z" />
    <glyph glyph-name="yacute" unicode="&#xfd;" horiz-adv-x="454" 
d="M25 469q0 12 8 17t34 5q25 0 33 -3.5t12 -16.5l111 -399h8l111 399q4 13 12 16.5t32 3.5q26 0 35 -5t9 -16q0 -16 -11 -50l-145 -466q-27 -86 -53 -116.5t-88 -30.5q-50 0 -81 11q-13 4 -18.5 11t-5.5 24q0 20 3.5 26.5t13.5 6.5q1 0 26.5 -3.5t52.5 -3.5q33 0 46.5 12
t24.5 50l16 59q-27 1 -39 11.5t-20 36.5l-112 357q-15 49 -15 64zM208 539q-35 0 -35 16q0 6 10 26l47 90q6 11 9 15t13 7.5t29 3.5q47 0 47 -16q0 -9 -14 -31l-57 -88q-6 -9 -10 -13t-13.5 -7t-25.5 -3z" />
    <glyph glyph-name="thorn" unicode="&#xfe;" horiz-adv-x="525" 
d="M156 626v-189q44 64 149 64q103 0 135.5 -51t32.5 -203q0 -107 -21 -163.5t-58.5 -75t-106.5 -18.5q-98 0 -131 54v-206q0 -17 -8 -22t-33 -5t-33.5 5t-8.5 22v788q0 17 8.5 22t33.5 5t33 -5t8 -22zM272 61q72 0 94.5 34.5t22.5 155.5q0 113 -19 146.5t-84 33.5
q-70 0 -100.5 -32.5t-30.5 -127.5v-62q0 -85 23 -116.5t94 -31.5z" />
    <glyph glyph-name="ydieresis" unicode="&#xff;" horiz-adv-x="454" 
d="M25 469q0 12 8 17t34 5q25 0 33 -3.5t12 -16.5l111 -399h8l111 399q4 13 12 16.5t32 3.5q26 0 35 -5t9 -16q0 -16 -11 -50l-145 -466q-27 -86 -53 -116.5t-88 -30.5q-50 0 -81 11q-13 4 -18.5 11t-5.5 24q0 20 3.5 26.5t13.5 6.5q1 0 26.5 -3.5t52.5 -3.5q33 0 46.5 12
t24.5 50l16 59q-27 1 -39 11.5t-20 36.5l-112 357q-15 49 -15 64zM155 569q-28 0 -36 5.5t-8 25.5v21q0 20 8.5 26t35.5 6t35.5 -6t8.5 -26v-21q0 -20 -8 -25.5t-36 -5.5zM302 569q-28 0 -36.5 5.5t-8.5 25.5v21q0 20 8.5 26t36.5 6q27 0 35.5 -6t8.5 -26v-21
q0 -20 -8 -25.5t-36 -5.5z" />
    <glyph glyph-name="Amacron" unicode="&#x100;" horiz-adv-x="517" 
d="M57 0q-23 0 -31.5 4t-8.5 15q0 10 5 26l159 534q7 24 20.5 30t56.5 6q44 0 57.5 -6t20.5 -30l158 -534q5 -16 5 -26t-8 -14.5t-31 -4.5q-26 0 -34.5 4.5t-12.5 17.5l-48 162h-216l-46 -162q-4 -13 -12.5 -17.5t-33.5 -4.5zM252 543l-84 -293h180l-83 293h-13zM155 729
q0 22 5 29t21 7h154q16 0 21 -7t5 -29t-5 -29t-21 -7h-154q-16 0 -21 7t-5 29z" />
    <glyph glyph-name="amacron" unicode="&#x101;" horiz-adv-x="486" 
d="M171 -10q-67 0 -98 33t-31 108q0 77 40.5 109.5t140.5 32.5h108v77q0 51 -20 65.5t-74 14.5q-46 0 -97 -9.5t-53 -9.5q-16 0 -16 33q0 31 21 37q64 20 154 20t128 -26.5t38 -108.5v-186q0 -42 6 -78t11.5 -57t5.5 -25q0 -10 -7.5 -15t-31.5 -5q-22 0 -28.5 4t-11.5 19
l-17 65q-22 -49 -66.5 -73.5t-101.5 -24.5zM195 59q57 0 96.5 33t39.5 90v36l-112 -3q-58 -1 -77.5 -16.5t-19.5 -59.5q0 -50 16 -65t57 -15zM132 609q0 22 5 29t21 7h154q16 0 21 -7t5 -29t-5 -29t-21 -7h-154q-16 0 -21 7t-5 29z" />
    <glyph glyph-name="Abreve" unicode="&#x102;" horiz-adv-x="517" 
d="M57 0q-23 0 -31.5 4t-8.5 15q0 10 5 26l159 534q7 24 20.5 30t56.5 6q44 0 57.5 -6t20.5 -30l158 -534q5 -16 5 -26t-8 -14.5t-31 -4.5q-26 0 -34.5 4.5t-12.5 17.5l-48 162h-216l-46 -162q-4 -13 -12.5 -17.5t-33.5 -4.5zM252 543l-84 -293h180l-83 293h-13zM258 673
q-64 0 -85.5 20.5t-21.5 73.5q0 17 5.5 21.5t26.5 4.5q20 0 25.5 -4t6.5 -19q1 -22 7.5 -28.5t35.5 -6.5t36 6.5t8 28.5q1 15 6 19t26 4q20 0 25.5 -4.5t5.5 -21.5q0 -53 -21 -73.5t-86 -20.5z" />
    <glyph glyph-name="abreve" unicode="&#x103;" horiz-adv-x="486" 
d="M171 -10q-67 0 -98 33t-31 108q0 77 40.5 109.5t140.5 32.5h108v77q0 51 -20 65.5t-74 14.5q-46 0 -97 -9.5t-53 -9.5q-16 0 -16 33q0 31 21 37q64 20 154 20t128 -26.5t38 -108.5v-186q0 -42 6 -78t11.5 -57t5.5 -25q0 -10 -7.5 -15t-31.5 -5q-22 0 -28.5 4t-11.5 19
l-17 65q-22 -49 -66.5 -73.5t-101.5 -24.5zM195 59q57 0 96.5 33t39.5 90v36l-112 -3q-58 -1 -77.5 -16.5t-19.5 -59.5q0 -50 16 -65t57 -15zM235 554q-64 0 -85.5 20.5t-21.5 73.5q0 17 5.5 21.5t26.5 4.5q20 0 25.5 -4t6.5 -19q1 -22 7.5 -28.5t35.5 -6.5t36 6.5t8 28.5
q1 15 6 19t26 4q20 0 25.5 -4.5t5.5 -21.5q0 -53 -21 -73.5t-86 -20.5z" />
    <glyph glyph-name="Aogonek" unicode="&#x104;" horiz-adv-x="517" 
d="M424 -193q-36 0 -52.5 16.5t-16.5 54.5q0 55 73 125q-10 3 -15 19l-48 162h-216l-46 -162q-4 -13 -12.5 -17.5t-33.5 -4.5q-23 0 -31.5 4t-8.5 15q0 10 5 26l159 534q7 24 20.5 30t56.5 6q44 0 57.5 -6t20.5 -30l158 -534q5 -16 5 -26q0 -19 -27 -50q-40 -46 -40 -71
q0 -14 4 -18.5t15 -4.5q9 0 18 1.5t13 1.5q9 0 13 -6t4 -24q0 -17 -5.5 -23.5t-20.5 -10.5q-26 -7 -49 -7zM252 543l-84 -293h180l-83 293h-13z" />
    <glyph glyph-name="aogonek" unicode="&#x105;" horiz-adv-x="486" 
d="M362 -193q-36 0 -53 16.5t-17 54.5q0 31 16.5 59.5t55.5 68.5q-5 3 -8 17l-17 65q-22 -49 -66.5 -73.5t-101.5 -24.5q-67 0 -98 33t-31 108q0 77 40.5 109.5t140.5 32.5h108v77q0 51 -20 65.5t-74 14.5q-46 0 -97 -9.5t-53 -9.5q-16 0 -16 33q0 31 21 37q64 20 154 20
t128 -26.5t38 -108.5v-186q0 -42 6 -78t11.5 -57t5.5 -25q0 -17 -27 -49q-38 -46 -38 -73q0 -14 4 -18.5t15 -4.5q9 0 18 1.5t13 1.5q9 0 13 -6t4 -24q0 -17 -5.5 -23.5t-20.5 -10.5q-26 -7 -49 -7zM195 59q57 0 96.5 33t39.5 90v36l-112 -3q-58 -1 -77.5 -16.5t-19.5 -59.5
q0 -50 16 -65t57 -15z" />
    <glyph glyph-name="Cacute" unicode="&#x106;" horiz-adv-x="451" 
d="M256 -9q-31 0 -51.5 1.5t-44.5 7.5t-39.5 17.5t-30.5 31.5t-23.5 48.5t-13.5 70.5t-5 96v76q0 64 6 111t19.5 77.5t29 49t42 27.5t51 12t62.5 3q70 0 135 -19q14 -3 19 -10t5 -29q0 -33 -16 -33q-4 0 -22 4.5t-47 9t-58 4.5q-62 0 -89 -12t-40.5 -57.5t-13.5 -146.5v-50
q0 -51 3 -86.5t11 -60t17 -38t27.5 -20.5t36 -9t48.5 -2t59.5 4.5t46 9t21.5 4.5q9 0 12.5 -6.5t3.5 -26.5q0 -21 -5.5 -28.5t-18.5 -11.5q-71 -19 -137 -19zM236 659q-35 0 -35 16q0 6 10 26l47 90q6 11 9 15t13 7.5t29 3.5q47 0 47 -16q0 -9 -14 -31l-57 -88
q-6 -9 -10 -13t-13.5 -7t-25.5 -3z" />
    <glyph glyph-name="cacute" unicode="&#x107;" horiz-adv-x="428" 
d="M243 -10q-43 0 -71 5t-53 19.5t-38.5 42.5t-21 73t-7.5 111q0 70 9.5 118.5t24.5 76t41.5 42.5t52 19t65.5 4q64 0 122 -17q15 -5 20 -12.5t5 -26.5q0 -33 -15 -33q-2 0 -48 9t-77 9q-48 0 -70 -11t-34 -50t-12 -120q0 -123 19.5 -155t98.5 -32q41 0 82 10l42 11
q14 0 14 -33q0 -19 -4.5 -26.5t-19.5 -12.5q-58 -21 -125 -21zM216 539q-35 0 -35 16q0 6 10 26l47 90q6 11 9 15t13 7.5t29 3.5q47 0 47 -16q0 -9 -14 -31l-57 -88q-6 -9 -10 -13t-13.5 -7t-25.5 -3z" />
    <glyph glyph-name="Ccircumflex" unicode="&#x108;" horiz-adv-x="451" 
d="M256 -9q-31 0 -51.5 1.5t-44.5 7.5t-39.5 17.5t-30.5 31.5t-23.5 48.5t-13.5 70.5t-5 96v76q0 64 6 111t19.5 77.5t29 49t42 27.5t51 12t62.5 3q70 0 135 -19q14 -3 19 -10t5 -29q0 -33 -16 -33q-4 0 -22 4.5t-47 9t-58 4.5q-62 0 -89 -12t-40.5 -57.5t-13.5 -146.5v-50
q0 -51 3 -86.5t11 -60t17 -38t27.5 -20.5t36 -9t48.5 -2t59.5 4.5t46 9t21.5 4.5q9 0 12.5 -6.5t3.5 -26.5q0 -21 -5.5 -28.5t-18.5 -11.5q-71 -19 -137 -19zM246 755h-6l-48 -76q-8 -12 -16.5 -16t-29.5 -4q-32 0 -32 16q0 7 11 25l59 98q7 11 14.5 15t27.5 4h34
q20 0 27.5 -4t14.5 -15l59 -98q11 -18 11 -25q0 -16 -32 -16q-21 0 -29.5 4t-16.5 16z" />
    <glyph glyph-name="ccircumflex" unicode="&#x109;" horiz-adv-x="428" 
d="M243 -10q-43 0 -71 5t-53 19.5t-38.5 42.5t-21 73t-7.5 111q0 70 9.5 118.5t24.5 76t41.5 42.5t52 19t65.5 4q64 0 122 -17q15 -5 20 -12.5t5 -26.5q0 -33 -15 -33q-2 0 -48 9t-77 9q-48 0 -70 -11t-34 -50t-12 -120q0 -123 19.5 -155t98.5 -32q41 0 82 10l42 11
q14 0 14 -33q0 -19 -4.5 -26.5t-19.5 -12.5q-58 -21 -125 -21zM242 635h-6l-48 -76q-8 -12 -16.5 -16t-29.5 -4q-32 0 -32 16q0 7 11 25l59 98q7 11 14.5 15t27.5 4h34q20 0 27.5 -4t14.5 -15l59 -98q11 -18 11 -25q0 -16 -32 -16q-21 0 -29.5 4t-16.5 16z" />
    <glyph glyph-name="Cdotaccent" unicode="&#x10a;" horiz-adv-x="451" 
d="M256 -9q-31 0 -51.5 1.5t-44.5 7.5t-39.5 17.5t-30.5 31.5t-23.5 48.5t-13.5 70.5t-5 96v76q0 64 6 111t19.5 77.5t29 49t42 27.5t51 12t62.5 3q70 0 135 -19q14 -3 19 -10t5 -29q0 -33 -16 -33q-4 0 -22 4.5t-47 9t-58 4.5q-62 0 -89 -12t-40.5 -57.5t-13.5 -146.5v-50
q0 -51 3 -86.5t11 -60t17 -38t27.5 -20.5t36 -9t48.5 -2t59.5 4.5t46 9t21.5 4.5q9 0 12.5 -6.5t3.5 -26.5q0 -21 -5.5 -28.5t-18.5 -11.5q-71 -19 -137 -19zM242 689q-29 0 -37.5 5.5t-8.5 25.5v21q0 20 8.5 26t37.5 6q30 0 38.5 -6t8.5 -26v-21q0 -20 -8.5 -25.5
t-38.5 -5.5z" />
    <glyph glyph-name="cdotaccent" unicode="&#x10b;" horiz-adv-x="428" 
d="M243 -10q-43 0 -71 5t-53 19.5t-38.5 42.5t-21 73t-7.5 111q0 70 9.5 118.5t24.5 76t41.5 42.5t52 19t65.5 4q64 0 122 -17q15 -5 20 -12.5t5 -26.5q0 -33 -15 -33q-2 0 -48 9t-77 9q-48 0 -70 -11t-34 -50t-12 -120q0 -123 19.5 -155t98.5 -32q41 0 82 10l42 11
q14 0 14 -33q0 -19 -4.5 -26.5t-19.5 -12.5q-58 -21 -125 -21zM238 569q-29 0 -37.5 5.5t-8.5 25.5v21q0 20 8.5 26t37.5 6q30 0 38.5 -6t8.5 -26v-21q0 -20 -8.5 -25.5t-38.5 -5.5z" />
    <glyph glyph-name="Ccaron" unicode="&#x10c;" horiz-adv-x="451" 
d="M256 -9q-31 0 -51.5 1.5t-44.5 7.5t-39.5 17.5t-30.5 31.5t-23.5 48.5t-13.5 70.5t-5 96v76q0 64 6 111t19.5 77.5t29 49t42 27.5t51 12t62.5 3q70 0 135 -19q14 -3 19 -10t5 -29q0 -33 -16 -33q-4 0 -22 4.5t-47 9t-58 4.5q-62 0 -89 -12t-40.5 -57.5t-13.5 -146.5v-50
q0 -51 3 -86.5t11 -60t17 -38t27.5 -20.5t36 -9t48.5 -2t59.5 4.5t46 9t21.5 4.5q9 0 12.5 -6.5t3.5 -26.5q0 -21 -5.5 -28.5t-18.5 -11.5q-71 -19 -137 -19zM108 801q0 16 32 16q21 0 30 -3.5t17 -16.5l48 -76h5l48 76q12 20 47 20q32 0 32 -16q0 -5 -11 -25l-59 -98
q-7 -11 -15 -15t-28 -4h-33q-20 0 -28 4t-15 15l-59 98q-11 20 -11 25z" />
    <glyph glyph-name="ccaron" unicode="&#x10d;" horiz-adv-x="428" 
d="M243 -10q-43 0 -71 5t-53 19.5t-38.5 42.5t-21 73t-7.5 111q0 70 9.5 118.5t24.5 76t41.5 42.5t52 19t65.5 4q64 0 122 -17q15 -5 20 -12.5t5 -26.5q0 -33 -15 -33q-2 0 -48 9t-77 9q-48 0 -70 -11t-34 -50t-12 -120q0 -123 19.5 -155t98.5 -32q41 0 82 10l42 11
q14 0 14 -33q0 -19 -4.5 -26.5t-19.5 -12.5q-58 -21 -125 -21zM110 681q0 16 32 16q21 0 30 -3.5t17 -16.5l48 -76h5l48 76q12 20 47 20q32 0 32 -16q0 -5 -11 -25l-59 -98q-7 -11 -15 -15t-28 -4h-33q-20 0 -28 4t-15 15l-59 98q-11 20 -11 25z" />
    <glyph glyph-name="Dcaron" unicode="&#x10e;" horiz-adv-x="524" 
d="M252 65q46 0 68.5 5t41.5 27t25 65t6 119v57q0 73 -7 114.5t-27 63.5t-45.5 27.5t-74.5 5.5q-40 0 -95 -5v-474q45 -5 108 -5zM252 -9q-83 0 -156 8q-20 2 -27 9t-7 23v548q0 28 29 33q58 8 146 8q39 0 65 -2t53.5 -8t44.5 -18t33 -32.5t24.5 -50.5t13.5 -71.5t5 -97.5
v-59q0 -67 -6.5 -115.5t-21 -80t-31.5 -50.5t-45.5 -28.5t-54 -12.5t-65.5 -3zM127 801q0 16 32 16q21 0 30 -3.5t17 -16.5l48 -76h5l48 76q8 12 17 16t30 4q32 0 32 -16q0 -5 -11 -25l-59 -98q-7 -11 -15 -15t-28 -4h-33q-20 0 -28 4t-15 15l-59 98q-11 20 -11 25z" />
    <glyph glyph-name="dcaron" unicode="&#x10f;" horiz-adv-x="640" 
d="M221 -10q-103 0 -136 51.5t-33 203.5q0 80 10.5 131t35.5 78.5t57.5 37t83.5 9.5q97 0 130 -56v181q0 17 8.5 22t33.5 5t33 -5t8 -22v-446q0 -42 6 -78t11.5 -57t5.5 -25q0 -20 -39 -20q-22 0 -29 4t-11 19l-14 52q-36 -85 -161 -85zM240 61q71 0 101 28.5t30 116.5v76
q0 85 -23 117t-94 32q-73 0 -95.5 -35t-22.5 -156q0 -112 19.5 -145.5t84.5 -33.5zM567 653q26 0 34.5 -6.5t8.5 -24.5v-28q0 -32 -13 -78l-17 -59q-6 -17 -14 -22.5t-29 -5.5q-16 0 -21 3.5t-5 12.5q0 6 6.5 51t6.5 74v52q0 19 8 25t35 6z" />
    <glyph glyph-name="Dcroat" unicode="&#x110;" horiz-adv-x="524" 
d="M252 -9q-83 0 -156 8q-20 2 -27 9t-7 23v244h-30q-16 0 -21 7t-5 30t5 30t21 7h30v230q0 28 29 33q58 8 146 8q39 0 65 -2t53.5 -8t44.5 -18t33 -32.5t24.5 -50.5t13.5 -71.5t5 -97.5v-59q0 -67 -6.5 -115.5t-21 -80t-31.5 -50.5t-45.5 -28.5t-54 -12.5t-65.5 -3zM252 65
q46 0 68.5 5t41.5 27t25 65t6 119v57q0 73 -7 114.5t-27 63.5t-45.5 27.5t-74.5 5.5q-40 0 -95 -5v-196h80q16 0 21 -7t5 -29t-5 -29t-21 -7h-80v-206q45 -5 108 -5z" />
    <glyph glyph-name="dcroat" unicode="&#x111;" horiz-adv-x="518" 
d="M221 -10q-103 0 -136 51.5t-33 203.5q0 80 10.5 131t35.5 78.5t57.5 37t83.5 9.5q97 0 130 -56v90h-35q-14 0 -18.5 5.5t-4.5 21.5q0 18 4.5 23t18.5 5h35v36q0 17 8.5 22t33.5 5t33 -5t8 -22v-36h43q14 0 18 -5t4 -23q0 -17 -4 -22.5t-18 -5.5h-43v-354q0 -42 6 -78
t11.5 -57t5.5 -25q0 -20 -39 -20q-22 0 -29 4t-11 19l-14 52q-36 -85 -161 -85zM240 61q71 0 101 28.5t30 116.5v76q0 85 -23 117t-94 32q-73 0 -95.5 -35t-22.5 -156q0 -112 19.5 -145.5t84.5 -33.5z" />
    <glyph glyph-name="Emacron" unicode="&#x112;" horiz-adv-x="455" 
d="M425 37q0 -22 -5 -29.5t-20 -7.5h-308q-18 0 -24 5t-6 20v565q0 15 6 20t24 5h298q15 0 20 -7t5 -30t-5 -30.5t-20 -7.5h-246v-179h191q15 0 20 -6.5t5 -29.5t-5 -30t-20 -7h-191v-213h256q15 0 20 -7.5t5 -30.5zM138 729q0 22 5 29t21 7h154q16 0 21 -7t5 -29t-5 -29
t-21 -7h-154q-16 0 -21 7t-5 29z" />
    <glyph glyph-name="emacron" unicode="&#x113;" horiz-adv-x="468" 
d="M253 -10q-59 0 -93 8t-60.5 34.5t-37 76t-10.5 132.5q0 70 9.5 118.5t24.5 76t42 42.5t53 19t67 4q58 0 93.5 -13t53 -45.5t23 -70.5t5.5 -104q0 -22 -7.5 -32t-28.5 -10h-251q1 -106 22.5 -135t102.5 -29q34 0 66 5t51.5 10.5t23.5 5.5q14 0 14 -33q0 -19 -4.5 -26.5
t-19.5 -12.5q-58 -21 -139 -21zM246 431q-62 0 -84.5 -26.5t-25.5 -121.5h207q0 37 -1 55.5t-6 40t-15 30.5t-28.5 15.5t-46.5 6.5zM139 609q0 22 5 29t21 7h154q16 0 21 -7t5 -29t-5 -29t-21 -7h-154q-16 0 -21 7t-5 29z" />
    <glyph glyph-name="Ebreve" unicode="&#x114;" horiz-adv-x="455" 
d="M425 37q0 -22 -5 -29.5t-20 -7.5h-308q-18 0 -24 5t-6 20v565q0 15 6 20t24 5h298q15 0 20 -7t5 -30t-5 -30.5t-20 -7.5h-246v-179h191q15 0 20 -6.5t5 -29.5t-5 -30t-20 -7h-191v-213h256q15 0 20 -7.5t5 -30.5zM240 680q-64 0 -85.5 20.5t-21.5 73.5q0 17 5.5 21.5
t26.5 4.5q20 0 25.5 -4t6.5 -19q1 -22 7.5 -28.5t35.5 -6.5t36 6.5t8 28.5q1 15 6 19t26 4q20 0 25.5 -4.5t5.5 -21.5q0 -53 -21 -73.5t-86 -20.5z" />
    <glyph glyph-name="ebreve" unicode="&#x115;" horiz-adv-x="468" 
d="M253 -10q-59 0 -93 8t-60.5 34.5t-37 76t-10.5 132.5q0 70 9.5 118.5t24.5 76t42 42.5t53 19t67 4q58 0 93.5 -13t53 -45.5t23 -70.5t5.5 -104q0 -22 -7.5 -32t-28.5 -10h-251q1 -106 22.5 -135t102.5 -29q34 0 66 5t51.5 10.5t23.5 5.5q14 0 14 -33q0 -19 -4.5 -26.5
t-19.5 -12.5q-58 -21 -139 -21zM246 431q-62 0 -84.5 -26.5t-25.5 -121.5h207q0 37 -1 55.5t-6 40t-15 30.5t-28.5 15.5t-46.5 6.5zM241 554q-64 0 -85.5 20.5t-21.5 73.5q0 17 5.5 21.5t26.5 4.5q20 0 25.5 -4t6.5 -19q1 -22 7.5 -28.5t35.5 -6.5t36 6.5t8 28.5q1 15 6 19
t26 4q20 0 25.5 -4.5t5.5 -21.5q0 -53 -21 -73.5t-86 -20.5z" />
    <glyph glyph-name="Edotaccent" unicode="&#x116;" horiz-adv-x="455" 
d="M425 37q0 -22 -5 -29.5t-20 -7.5h-308q-18 0 -24 5t-6 20v565q0 15 6 20t24 5h298q15 0 20 -7t5 -30t-5 -30.5t-20 -7.5h-246v-179h191q15 0 20 -6.5t5 -29.5t-5 -30t-20 -7h-191v-213h256q15 0 20 -7.5t5 -30.5zM240 691q-29 0 -37.5 5.5t-8.5 25.5v21q0 20 8.5 26
t37.5 6q30 0 38.5 -6t8.5 -26v-21q0 -20 -8.5 -25.5t-38.5 -5.5z" />
    <glyph glyph-name="edotaccent" unicode="&#x117;" horiz-adv-x="468" 
d="M253 -10q-59 0 -93 8t-60.5 34.5t-37 76t-10.5 132.5q0 70 9.5 118.5t24.5 76t42 42.5t53 19t67 4q58 0 93.5 -13t53 -45.5t23 -70.5t5.5 -104q0 -22 -7.5 -32t-28.5 -10h-251q1 -106 22.5 -135t102.5 -29q34 0 66 5t51.5 10.5t23.5 5.5q14 0 14 -33q0 -19 -4.5 -26.5
t-19.5 -12.5q-58 -21 -139 -21zM246 431q-62 0 -84.5 -26.5t-25.5 -121.5h207q0 37 -1 55.5t-6 40t-15 30.5t-28.5 15.5t-46.5 6.5zM241 569q-29 0 -37.5 5.5t-8.5 25.5v21q0 20 8.5 26t37.5 6q30 0 38.5 -6t8.5 -26v-21q0 -20 -8.5 -25.5t-38.5 -5.5z" />
    <glyph glyph-name="Eogonek" unicode="&#x118;" horiz-adv-x="455" 
d="M360 325q0 -23 -5 -30t-20 -7h-191v-213h256q15 0 20 -7.5t5 -30.5q0 -31 -27 -65q-40 -52 -40 -74q0 -14 4 -18.5t15 -4.5q9 0 18 1.5t13 1.5q10 0 13.5 -6t3.5 -24q0 -17 -5.5 -23.5t-20.5 -10.5q-25 -7 -49 -7q-35 0 -52 16.5t-17 54.5q0 32 15.5 58t51.5 64h-256
q-18 0 -24 5t-6 20v565q0 15 6 20t24 5h298q15 0 20 -7t5 -30t-5 -30.5t-20 -7.5h-246v-179h191q15 0 20 -6.5t5 -29.5z" />
    <glyph glyph-name="eogonek" unicode="&#x119;" horiz-adv-x="468" 
d="M341 -193q-36 0 -53 16.5t-17 54.5q0 31 14.5 57.5t46.5 61.5q-46 -7 -79 -7q-59 0 -93 8t-60.5 34.5t-37 76t-10.5 132.5q0 70 9.5 118.5t24.5 76t42 42.5t53 19t67 4q58 0 93.5 -13t53 -45.5t23 -70.5t5.5 -104q0 -22 -7.5 -32t-28.5 -10h-251q1 -106 22.5 -135
t102.5 -29q34 0 66 5t51.5 10.5t23.5 5.5q14 0 14 -33q0 -21 -6 -35t-26 -43q-35 -50 -35 -74q0 -14 4 -18.5t15 -4.5q9 0 18 1.5t13 1.5q9 0 13 -6t4 -24q0 -17 -5.5 -23.5t-20.5 -10.5q-26 -7 -49 -7zM246 431q-62 0 -84.5 -26.5t-25.5 -121.5h207q0 37 -1 55.5t-6 40
t-15 30.5t-28.5 15.5t-46.5 6.5z" />
    <glyph glyph-name="Ecaron" unicode="&#x11a;" horiz-adv-x="455" 
d="M425 37q0 -22 -5 -29.5t-20 -7.5h-308q-18 0 -24 5t-6 20v565q0 15 6 20t24 5h298q15 0 20 -7t5 -30t-5 -30.5t-20 -7.5h-246v-179h191q15 0 20 -6.5t5 -29.5t-5 -30t-20 -7h-191v-213h256q15 0 20 -7.5t5 -30.5zM111 801q0 16 32 16q21 0 30 -3.5t17 -16.5l48 -76h5
l48 76q8 12 17 16t30 4q32 0 32 -16q0 -5 -11 -25l-59 -98q-7 -11 -15 -15t-28 -4h-33q-20 0 -28 4t-15 15l-59 98q-11 20 -11 25z" />
    <glyph glyph-name="ecaron" unicode="&#x11b;" horiz-adv-x="468" 
d="M253 -10q-59 0 -93 8t-60.5 34.5t-37 76t-10.5 132.5q0 70 9.5 118.5t24.5 76t42 42.5t53 19t67 4q58 0 93.5 -13t53 -45.5t23 -70.5t5.5 -104q0 -22 -7.5 -32t-28.5 -10h-251q1 -106 22.5 -135t102.5 -29q34 0 66 5t51.5 10.5t23.5 5.5q14 0 14 -33q0 -19 -4.5 -26.5
t-19.5 -12.5q-58 -21 -139 -21zM246 431q-62 0 -84.5 -26.5t-25.5 -121.5h207q0 37 -1 55.5t-6 40t-15 30.5t-28.5 15.5t-46.5 6.5zM113 681q0 16 32 16q21 0 30 -3.5t17 -16.5l48 -76h5l48 76q8 12 17 16t30 4q32 0 32 -16q0 -5 -11 -25l-59 -98q-7 -11 -15 -15t-28 -4h-33
q-20 0 -28 4t-15 15l-59 98q-11 20 -11 25z" />
    <glyph glyph-name="Gcircumflex" unicode="&#x11c;" horiz-adv-x="491" 
d="M248 -9q-43 0 -69 3.5t-54.5 18.5t-44 43.5t-25.5 80.5t-10 127v76q0 64 6 111t19.5 77.5t29.5 49t42.5 27.5t51 12t62.5 3q79 0 144 -19q14 -3 19 -10t5 -29q0 -20 -3 -26.5t-12 -6.5q-4 0 -25 4.5t-52.5 9t-60.5 4.5q-38 0 -59 -3.5t-40 -14.5t-27.5 -35.5t-13 -62.5
t-4.5 -100v-50q0 -76 6.5 -120t25 -65t38.5 -26t60 -5q63 0 86.5 25.5t23.5 107.5v63h-96q-14 0 -18.5 7.5t-4.5 30.5q0 21 4.5 27.5t18.5 6.5h136q22 0 28.5 -5.5t6.5 -19.5v-122q0 -112 -43 -153.5t-151 -41.5zM244 755h-6l-48 -76q-8 -12 -16.5 -16t-29.5 -4
q-32 0 -32 16q0 7 11 25l59 98q7 11 14.5 15t27.5 4h34q20 0 27.5 -4t14.5 -15l59 -98q11 -18 11 -25q0 -16 -32 -16q-21 0 -29.5 4t-16.5 16z" />
    <glyph glyph-name="gcircumflex" unicode="&#x11d;" horiz-adv-x="513" 
d="M52 250q0 79 10.5 128.5t35.5 76.5t58 36.5t85 9.5q107 0 139 -71l10 39q4 15 11 18.5t30 3.5t30.5 -4.5t7.5 -14.5q0 -4 -6 -25t-11.5 -57.5t-5.5 -78.5v-275q0 -132 -54.5 -180.5t-161.5 -48.5q-75 0 -135 12q-14 3 -19.5 11t-5.5 29q0 19 3.5 26t12.5 7q5 0 24.5 -3
t52 -5.5t69.5 -2.5q77 0 104.5 33.5t27.5 116.5v17q-40 -58 -147 -58q-101 0 -133 52.5t-32 207.5zM136 240q0 -112 19.5 -145.5t84.5 -33.5q71 0 101 28.5t30 116.5v76q0 85 -23 117t-94 32q-73 0 -95.5 -35t-22.5 -156zM260 635h-6l-48 -76q-8 -12 -16.5 -16t-29.5 -4
q-32 0 -32 16q0 7 11 25l59 98q7 11 14.5 15t27.5 4h34q20 0 27.5 -4t14.5 -15l59 -98q11 -18 11 -25q0 -16 -32 -16q-21 0 -29.5 4t-16.5 16z" />
    <glyph glyph-name="Gbreve" unicode="&#x11e;" horiz-adv-x="491" 
d="M248 -9q-43 0 -69 3.5t-54.5 18.5t-44 43.5t-25.5 80.5t-10 127v76q0 64 6 111t19.5 77.5t29.5 49t42.5 27.5t51 12t62.5 3q79 0 144 -19q14 -3 19 -10t5 -29q0 -20 -3 -26.5t-12 -6.5q-4 0 -25 4.5t-52.5 9t-60.5 4.5q-38 0 -59 -3.5t-40 -14.5t-27.5 -35.5t-13 -62.5
t-4.5 -100v-50q0 -76 6.5 -120t25 -65t38.5 -26t60 -5q63 0 86.5 25.5t23.5 107.5v63h-96q-14 0 -18.5 7.5t-4.5 30.5q0 21 4.5 27.5t18.5 6.5h136q22 0 28.5 -5.5t6.5 -19.5v-122q0 -112 -43 -153.5t-151 -41.5zM240 674q-64 0 -85.5 20.5t-21.5 73.5q0 17 5.5 21.5
t26.5 4.5q20 0 25.5 -4t6.5 -19q1 -22 7.5 -28.5t35.5 -6.5t36 6.5t8 28.5q1 15 6 19t26 4q20 0 25.5 -4.5t5.5 -21.5q0 -53 -21 -73.5t-86 -20.5z" />
    <glyph glyph-name="gbreve" unicode="&#x11f;" horiz-adv-x="513" 
d="M52 250q0 79 10.5 128.5t35.5 76.5t58 36.5t85 9.5q107 0 139 -71l10 39q4 15 11 18.5t30 3.5t30.5 -4.5t7.5 -14.5q0 -4 -6 -25t-11.5 -57.5t-5.5 -78.5v-275q0 -132 -54.5 -180.5t-161.5 -48.5q-75 0 -135 12q-14 3 -19.5 11t-5.5 29q0 19 3.5 26t12.5 7q5 0 24.5 -3
t52 -5.5t69.5 -2.5q77 0 104.5 33.5t27.5 116.5v17q-40 -58 -147 -58q-101 0 -133 52.5t-32 207.5zM136 240q0 -112 19.5 -145.5t84.5 -33.5q71 0 101 28.5t30 116.5v76q0 85 -23 117t-94 32q-73 0 -95.5 -35t-22.5 -156zM256 554q-64 0 -85.5 20.5t-21.5 73.5
q0 17 5.5 21.5t26.5 4.5q20 0 25.5 -4t6.5 -19q1 -22 7.5 -28.5t35.5 -6.5t36 6.5t8 28.5q1 15 6 19t26 4q20 0 25.5 -4.5t5.5 -21.5q0 -53 -21 -73.5t-86 -20.5z" />
    <glyph glyph-name="Gdotaccent" unicode="&#x120;" horiz-adv-x="491" 
d="M248 -9q-43 0 -69 3.5t-54.5 18.5t-44 43.5t-25.5 80.5t-10 127v76q0 64 6 111t19.5 77.5t29.5 49t42.5 27.5t51 12t62.5 3q79 0 144 -19q14 -3 19 -10t5 -29q0 -20 -3 -26.5t-12 -6.5q-4 0 -25 4.5t-52.5 9t-60.5 4.5q-38 0 -59 -3.5t-40 -14.5t-27.5 -35.5t-13 -62.5
t-4.5 -100v-50q0 -76 6.5 -120t25 -65t38.5 -26t60 -5q63 0 86.5 25.5t23.5 107.5v63h-96q-14 0 -18.5 7.5t-4.5 30.5q0 21 4.5 27.5t18.5 6.5h136q22 0 28.5 -5.5t6.5 -19.5v-122q0 -112 -43 -153.5t-151 -41.5zM240 691q-29 0 -37.5 5.5t-8.5 25.5v21q0 20 8.5 26t37.5 6
q30 0 38.5 -6t8.5 -26v-21q0 -20 -8.5 -25.5t-38.5 -5.5z" />
    <glyph glyph-name="gdotaccent" unicode="&#x121;" horiz-adv-x="513" 
d="M52 250q0 79 10.5 128.5t35.5 76.5t58 36.5t85 9.5q107 0 139 -71l10 39q4 15 11 18.5t30 3.5t30.5 -4.5t7.5 -14.5q0 -4 -6 -25t-11.5 -57.5t-5.5 -78.5v-275q0 -132 -54.5 -180.5t-161.5 -48.5q-75 0 -135 12q-14 3 -19.5 11t-5.5 29q0 19 3.5 26t12.5 7q5 0 24.5 -3
t52 -5.5t69.5 -2.5q77 0 104.5 33.5t27.5 116.5v17q-40 -58 -147 -58q-101 0 -133 52.5t-32 207.5zM136 240q0 -112 19.5 -145.5t84.5 -33.5q71 0 101 28.5t30 116.5v76q0 85 -23 117t-94 32q-73 0 -95.5 -35t-22.5 -156zM256 569q-29 0 -37.5 5.5t-8.5 25.5v21q0 20 8.5 26
t37.5 6q30 0 38.5 -6t8.5 -26v-21q0 -20 -8.5 -25.5t-38.5 -5.5z" />
    <glyph glyph-name="Gcommaaccent" unicode="&#x122;" horiz-adv-x="491" 
d="M248 -9q-43 0 -69 3.5t-54.5 18.5t-44 43.5t-25.5 80.5t-10 127v76q0 64 6 111t19.5 77.5t29.5 49t42.5 27.5t51 12t62.5 3q79 0 144 -19q14 -3 19 -10t5 -29q0 -20 -3 -26.5t-12 -6.5q-4 0 -25 4.5t-52.5 9t-60.5 4.5q-38 0 -59 -3.5t-40 -14.5t-27.5 -35.5t-13 -62.5
t-4.5 -100v-50q0 -76 6.5 -120t25 -65t38.5 -26t60 -5q63 0 86.5 25.5t23.5 107.5v63h-96q-14 0 -18.5 7.5t-4.5 30.5q0 21 4.5 27.5t18.5 6.5h136q22 0 28.5 -5.5t6.5 -19.5v-122q0 -112 -43 -153.5t-151 -41.5zM231 -230q-27 0 -27 16q0 4 5.5 49t5.5 86q0 21 8 27.5
t35 6.5q25 0 33.5 -5.5t8.5 -21.5q0 -46 -9 -74l-20 -63q-6 -12 -13.5 -16.5t-26.5 -4.5z" />
    <glyph glyph-name="gcommaaccent" unicode="&#x123;" horiz-adv-x="513" 
d="M52 250q0 79 10.5 128.5t35.5 76.5t58 36.5t85 9.5q107 0 139 -71l10 39q4 15 11 18.5t30 3.5t30.5 -4.5t7.5 -14.5q0 -4 -6 -25t-11.5 -57.5t-5.5 -78.5v-275q0 -132 -54.5 -180.5t-161.5 -48.5q-75 0 -135 12q-14 3 -19.5 11t-5.5 29q0 19 3.5 26t12.5 7q5 0 24.5 -3
t52 -5.5t69.5 -2.5q77 0 104.5 33.5t27.5 116.5v17q-40 -58 -147 -58q-101 0 -133 52.5t-32 207.5zM136 240q0 -112 19.5 -145.5t84.5 -33.5q71 0 101 28.5t30 116.5v76q0 85 -23 117t-94 32q-73 0 -95.5 -35t-22.5 -156zM282 722q27 0 27 -16q0 -4 -5.5 -49t-5.5 -86
q0 -21 -8 -27.5t-35 -6.5q-25 0 -33.5 5.5t-8.5 21.5q0 46 9 74l20 63q6 12 13.5 16.5t26.5 4.5z" />
    <glyph glyph-name="Hcircumflex" unicode="&#x124;" horiz-adv-x="519" 
d="M144 355h231v234q0 16 8 21t33 5t33 -5t8 -21v-562q0 -17 -8 -22t-33 -5t-33 5.5t-8 21.5v255h-231v-255q0 -16 -8 -21.5t-33 -5.5t-33 5.5t-8 21.5v562q0 16 8 21t33 5t33 -5t8 -21v-234zM262 755h-6l-48 -76q-8 -12 -16.5 -16t-29.5 -4q-32 0 -32 16q0 7 11 25l59 98
q7 11 14.5 15t27.5 4h34q20 0 27.5 -4t14.5 -15l59 -98q11 -18 11 -25q0 -16 -32 -16q-21 0 -29.5 4t-16.5 16z" />
    <glyph glyph-name="hcircumflex" unicode="&#x125;" horiz-adv-x="497" 
d="M102 0q-25 0 -33 5t-8 22v599q0 17 8 22t33 5t33 -5t8 -22v-199q37 74 156 74q79 0 107.5 -31t28.5 -100v-343q0 -17 -8 -22t-33 -5t-33.5 5t-8.5 22v324q0 45 -16 61.5t-65 16.5q-70 0 -99 -39t-29 -129v-234q0 -17 -8 -22t-33 -5zM269 765h-6l-48 -76q-8 -12 -16.5 -16
t-29.5 -4q-32 0 -32 16q0 7 11 25l59 98q7 11 14.5 15t27.5 4h34q20 0 27.5 -4t14.5 -15l59 -98q11 -18 11 -25q0 -16 -32 -16q-21 0 -29.5 4t-16.5 16z" />
    <glyph glyph-name="Hbar" unicode="&#x126;" horiz-adv-x="519" 
d="M11 482q0 21 4.5 27t18.5 6h28v74q0 16 8 21t33 5t33 -5t8 -21v-74h231v74q0 16 8 21t33 5t33 -5t8 -21v-74h25q15 0 19.5 -6t4.5 -27t-4.5 -27t-19.5 -6h-25v-422q0 -17 -8 -22t-33 -5t-33 5.5t-8 21.5v255h-231v-255q0 -16 -8 -21.5t-33 -5.5t-33 5.5t-8 21.5v422h-28
q-14 0 -18.5 6t-4.5 27zM144 355h231v94h-231v-94z" />
    <glyph glyph-name="hbar" unicode="&#x127;" horiz-adv-x="497" 
d="M102 0q-25 0 -33 5t-8 22v507h-41q-13 0 -17.5 5.5t-4.5 22.5t4.5 22.5t17.5 5.5h41v36q0 17 8 22t33 5t33 -5t8 -22v-36h43q14 0 18.5 -5t4.5 -23q0 -16 -4.5 -21.5t-18.5 -5.5h-43v-108q37 74 156 74q79 0 107.5 -31t28.5 -100v-343q0 -17 -8 -22t-33 -5t-33.5 5
t-8.5 22v324q0 45 -16 61.5t-65 16.5q-70 0 -99 -39t-29 -129v-234q0 -17 -8 -22t-33 -5z" />
    <glyph glyph-name="Itilde" unicode="&#x128;" horiz-adv-x="206" 
d="M103 0q-25 0 -33 5.5t-8 21.5v562q0 16 8 21t33 5t33 -5t8 -21v-562q0 -16 -8 -21.5t-33 -5.5zM-28 711q0 17 5 24.5t19 16.5q27 18 59 18q22 0 55 -10.5t48 -10.5q20 0 41 9.5t23 9.5q8 0 10.5 -5.5t2.5 -23.5q0 -17 -5 -25t-19 -17q-31 -17 -60 -17q-21 0 -54 10
t-48 10q-20 0 -41 -9t-23 -9q-8 0 -10.5 5.5t-2.5 23.5z" />
    <glyph glyph-name="itilde" unicode="&#x129;" horiz-adv-x="208" 
d="M-27 594q0 17 5 24.5t19 16.5q27 18 59 18q22 0 55 -10.5t48 -10.5q20 0 41 9.5t23 9.5q8 0 10.5 -5.5t2.5 -23.5q0 -17 -5 -25t-19 -17q-31 -17 -60 -17q-22 0 -54 10t-48 10q-20 0 -41 -9t-23 -9q-8 0 -10.5 5.5t-2.5 23.5zM102 0q-25 0 -33 5t-8 22v438q0 17 8 21.5
t33 4.5t33 -4.5t8 -21.5v-438q0 -17 -8 -22t-33 -5z" />
    <glyph glyph-name="Imacron" unicode="&#x12a;" horiz-adv-x="206" 
d="M103 0q-25 0 -33 5.5t-8 21.5v562q0 16 8 21t33 5t33 -5t8 -21v-562q0 -16 -8 -21.5t-33 -5.5zM1 729q0 22 5 29t21 7h154q16 0 21 -7t5 -29t-5 -29t-21 -7h-154q-16 0 -21 7t-5 29z" />
    <glyph glyph-name="imacron" unicode="&#x12b;" horiz-adv-x="208" 
d="M1 609q0 22 5 29t21 7h154q16 0 21 -7t5 -29t-5 -29t-21 -7h-154q-16 0 -21 7t-5 29zM102 0q-25 0 -33 5t-8 22v438q0 17 8 21.5t33 4.5t33 -4.5t8 -21.5v-438q0 -17 -8 -22t-33 -5z" />
    <glyph glyph-name="Ibreve" unicode="&#x12c;" horiz-adv-x="206" 
d="M103 0q-25 0 -33 5.5t-8 21.5v562q0 16 8 21t33 5t33 -5t8 -21v-562q0 -16 -8 -21.5t-33 -5.5zM103 673q-64 0 -85.5 20.5t-21.5 73.5q0 17 5.5 21.5t26.5 4.5q20 0 25.5 -4t6.5 -19q1 -22 7.5 -28.5t35.5 -6.5t36 6.5t8 28.5q1 15 6 19t26 4q20 0 25.5 -4.5t5.5 -21.5
q0 -53 -21 -73.5t-86 -20.5z" />
    <glyph glyph-name="ibreve" unicode="&#x12d;" horiz-adv-x="208" 
d="M104 554q-64 0 -85.5 20.5t-21.5 73.5q0 17 5.5 21.5t26.5 4.5q20 0 25.5 -4t6.5 -19q1 -22 7.5 -28.5t35.5 -6.5t36 6.5t8 28.5q1 15 6 19t26 4q20 0 25.5 -4.5t5.5 -21.5q0 -53 -21 -73.5t-86 -20.5zM102 0q-25 0 -33 5t-8 22v438q0 17 8 21.5t33 4.5t33 -4.5t8 -21.5
v-438q0 -17 -8 -22t-33 -5z" />
    <glyph glyph-name="Iogonek" unicode="&#x12e;" horiz-adv-x="206" 
d="M144 589v-551q0 -33 -27 -66q-40 -52 -40 -74q0 -14 4 -18.5t15 -4.5q9 0 18 1.5t13 1.5q9 0 13 -6t4 -24q0 -17 -5.5 -23.5t-20.5 -10.5q-26 -7 -49 -7q-36 0 -52.5 16.5t-16.5 54.5q0 32 16.5 58.5t55.5 67.5q-10 5 -10 23v562q0 16 8 21t33 5t33 -5t8 -21z" />
    <glyph glyph-name="iogonek" unicode="&#x12f;" horiz-adv-x="208" 
d="M68 -193q-36 0 -53 16.5t-17 54.5q0 30 16.5 58.5t55.5 67.5q-9 5 -9 23v438q0 17 8 21.5t33 4.5t33 -4.5t8 -21.5v-438q0 -14 -5.5 -25.5t-25.5 -34.5q-36 -41 -36 -69q0 -14 4 -18.5t15 -4.5q9 0 18 1.5t13 1.5q9 0 13 -6t4 -24q0 -17 -5.5 -23.5t-20.5 -10.5
q-26 -7 -49 -7zM102 569q-30 0 -38 5.5t-8 25.5v21q0 20 8.5 26t37.5 6t37.5 -6t8.5 -26v-21q0 -20 -8.5 -25.5t-37.5 -5.5z" />
    <glyph glyph-name="Idotaccent" unicode="&#x130;" horiz-adv-x="206" 
d="M103 0q-25 0 -33 5.5t-8 21.5v562q0 16 8 21t33 5t33 -5t8 -21v-562q0 -16 -8 -21.5t-33 -5.5zM103 691q-29 0 -37.5 5.5t-8.5 25.5v21q0 20 8.5 26t37.5 6q30 0 38.5 -6t8.5 -26v-21q0 -20 -8.5 -25.5t-38.5 -5.5z" />
    <glyph glyph-name="dotlessi" unicode="&#x131;" horiz-adv-x="208" 
d="M102 0q-25 0 -33 5t-8 22v438q0 17 8 21.5t33 4.5t33 -4.5t8 -21.5v-438q0 -17 -8 -22t-33 -5z" />
    <glyph glyph-name="IJ" unicode="&#x132;" horiz-adv-x="541" 
d="M103 0q-25 0 -33 5.5t-8 21.5v562q0 16 8 21t33 5t33 -5t8 -21v-562q0 -16 -8 -21.5t-33 -5.5zM335 -9q-54 0 -95 13q-14 4 -19.5 11.5t-5.5 27.5q0 21 3 26t13 5q4 0 33.5 -4.5t52.5 -4.5q47 0 63.5 18t16.5 72v434q0 16 8 21t33 5t33 -5t8 -21v-439q0 -84 -35.5 -121.5
t-108.5 -37.5z" />
    <glyph glyph-name="ij" unicode="&#x133;" horiz-adv-x="417" 
d="M102 0q-25 0 -33 5t-8 22v438q0 17 8 21.5t33 4.5t33 -4.5t8 -21.5v-438q0 -17 -8 -22t-33 -5zM102 569q-30 0 -38 5.5t-8 25.5v21q0 20 8.5 26t37.5 6t37.5 -6t8.5 -26v-21q0 -20 -8.5 -25.5t-37.5 -5.5zM310 491q25 0 33 -4.5t8 -21.5v-534q0 -66 -24.5 -95t-80.5 -29
q-34 0 -68 10q-15 4 -20.5 10.5t-5.5 24.5q0 20 3.5 26t12.5 6q4 0 23.5 -2.5t33.5 -2.5q28 0 36 12t8 57v517q0 17 8 21.5t33 4.5zM310 569q-30 0 -38 5.5t-8 25.5v21q0 20 8.5 26t37.5 6t37.5 -6t8.5 -26v-21q0 -20 -8.5 -25.5t-37.5 -5.5z" />
    <glyph glyph-name="Jcircumflex" unicode="&#x134;" horiz-adv-x="335" 
d="M129 -9q-54 0 -95 13q-14 4 -19.5 11.5t-5.5 27.5q0 21 3 26t13 5q4 0 33.5 -4.5t52.5 -4.5q47 0 63.5 18t16.5 72v434q0 16 8 21t33 5t33 -5t8 -21v-439q0 -84 -35.5 -121.5t-108.5 -37.5zM234 755h-6l-48 -76q-8 -12 -16.5 -16t-29.5 -4q-32 0 -32 16q0 7 11 25l59 98
q7 11 14.5 15t27.5 4h34q20 0 27.5 -4t14.5 -15l59 -98q11 -18 11 -25q0 -16 -32 -16q-21 0 -29.5 4t-16.5 16z" />
    <glyph glyph-name="jcircumflex" unicode="&#x135;" horiz-adv-x="208" 
d="M102 491q25 0 33 -4.5t8 -21.5v-534q0 -66 -24.5 -95t-80.5 -29q-34 0 -68 10q-15 4 -20.5 10.5t-5.5 24.5q0 20 3.5 26t12.5 6q4 0 23.5 -2.5t33.5 -2.5q28 0 36 12t8 57v517q0 17 8 21.5t33 4.5zM105 635h-6l-48 -76q-8 -12 -16.5 -16t-29.5 -4q-32 0 -32 16q0 7 11 25
l59 98q7 11 14.5 15t27.5 4h34q20 0 27.5 -4t14.5 -15l59 -98q11 -18 11 -25q0 -16 -32 -16q-21 0 -29.5 4t-16.5 16z" />
    <glyph glyph-name="Kcommaaccent" unicode="&#x136;" horiz-adv-x="458" 
d="M103 0q-25 0 -33 5.5t-8 21.5v562q0 16 8 21t33 5t33 -5t8 -21v-246h14l180 253q8 12 17.5 15.5t36.5 3.5q40 0 40 -17q0 -11 -13 -29l-190 -255l200 -263q14 -19 14 -32q0 -10 -8 -14.5t-33 -4.5q-38 0 -52 19l-193 267h-13v-259q0 -16 -8 -21.5t-33 -5.5zM208 -230
q-27 0 -27 16q0 4 5.5 49t5.5 86q0 21 8 27.5t35 6.5q25 0 33.5 -5.5t8.5 -21.5q0 -46 -9 -74l-20 -63q-6 -12 -13.5 -16.5t-26.5 -4.5z" />
    <glyph glyph-name="kcommaaccent" unicode="&#x137;" horiz-adv-x="428" 
d="M102 0q-25 0 -33 5t-8 22v599q0 17 8 22t33 5t33 -5t8 -22v-342h9l157 187q11 12 20.5 16t34.5 4q40 0 40 -14q0 -12 -14 -28l-165 -192l177 -215q13 -15 13 -26q0 -16 -43 -16q-23 0 -31.5 4t-19.5 17l-170 207h-8v-201q0 -17 -8 -22t-33 -5zM194 -230q-27 0 -27 16
q0 4 5.5 49t5.5 86q0 21 8 27.5t35 6.5q25 0 33.5 -5.5t8.5 -21.5q0 -46 -9 -74l-20 -63q-6 -12 -13.5 -16.5t-26.5 -4.5z" />
    <glyph glyph-name="Lacute" unicode="&#x139;" horiz-adv-x="423" 
d="M144 75h236q15 0 20 -7.5t5 -30.5q0 -22 -5 -29.5t-20 -7.5h-288q-18 0 -24 5t-6 20v564q0 16 8 21t33 5t33 -5t8 -21v-514zM110 659q-35 0 -35 16q0 6 10 26l47 90q6 11 9 15t13 7.5t29 3.5q47 0 47 -16q0 -9 -14 -31l-57 -88q-6 -9 -10 -13t-13.5 -7t-25.5 -3z" />
    <glyph glyph-name="lacute" unicode="&#x13a;" horiz-adv-x="205" 
d="M102 0q-25 0 -33 5t-8 22v599q0 17 8 22t33 5t33 -5t8 -22v-599q0 -17 -8 -22t-33 -5zM90 689q-35 0 -35 16q0 6 10 26l47 90q6 11 9 15t13 7.5t29 3.5q47 0 47 -16q0 -9 -14 -31l-57 -88q-6 -9 -10 -13t-13.5 -7t-25.5 -3z" />
    <glyph glyph-name="Lcommaaccent" unicode="&#x13b;" horiz-adv-x="423" 
d="M144 75h236q15 0 20 -7.5t5 -30.5q0 -22 -5 -29.5t-20 -7.5h-288q-18 0 -24 5t-6 20v564q0 16 8 21t33 5t33 -5t8 -21v-514zM208 -230q-27 0 -27 16q0 4 5.5 49t5.5 86q0 21 8 27.5t35 6.5q25 0 33.5 -5.5t8.5 -21.5q0 -46 -9 -74l-20 -63q-6 -12 -13.5 -16.5t-26.5 -4.5
z" />
    <glyph glyph-name="lcommaaccent" unicode="&#x13c;" horiz-adv-x="205" 
d="M102 0q-25 0 -33 5t-8 22v599q0 17 8 22t33 5t33 -5t8 -22v-599q0 -17 -8 -22t-33 -5zM76 -230q-27 0 -27 16q0 4 5.5 49t5.5 86q0 21 8 27.5t35 6.5q25 0 33.5 -5.5t8.5 -21.5q0 -46 -9 -74l-20 -63q-6 -12 -13.5 -16.5t-26.5 -4.5z" />
    <glyph glyph-name="Lcaron" unicode="&#x13d;" horiz-adv-x="423" 
d="M144 75h236q15 0 20 -7.5t5 -30.5q0 -22 -5 -29.5t-20 -7.5h-288q-18 0 -24 5t-6 20v564q0 16 8 21t33 5t33 -5t8 -21v-514zM280 616q26 0 34.5 -6.5t8.5 -24.5v-28q0 -33 -13 -78l-17 -59q-6 -17 -14 -22.5t-29 -5.5q-16 0 -21 3.5t-5 12.5q0 6 6.5 51t6.5 74v52
q0 19 8 25t35 6z" />
    <glyph glyph-name="lcaron" unicode="&#x13e;" horiz-adv-x="332" 
d="M262 653q27 0 35 -6t8 -25v-28q0 -32 -13 -78l-17 -59q-6 -17 -14 -22.5t-28 -5.5q-27 0 -27 16q0 6 7 51t7 74v52q0 19 8 25t34 6zM102 0q-25 0 -33 5t-8 22v599q0 17 8 22t33 5t33 -5t8 -22v-599q0 -17 -8 -22t-33 -5z" />
    <glyph glyph-name="Ldot" unicode="&#x13f;" horiz-adv-x="423" 
d="M144 75h236q15 0 20 -7.5t5 -30.5q0 -22 -5 -29.5t-20 -7.5h-288q-18 0 -24 5t-6 20v564q0 16 8 21t33 5t33 -5t8 -21v-514zM262 281q-29 0 -37.5 5.5t-8.5 25.5v21q0 20 8.5 26t37.5 6q30 0 38.5 -6t8.5 -26v-21q0 -20 -8.5 -25.5t-38.5 -5.5z" />
    <glyph glyph-name="ldot" unicode="&#x140;" horiz-adv-x="305" 
d="M102 0q-25 0 -33 5t-8 22v599q0 17 8 22t33 5t33 -5t8 -22v-599q0 -17 -8 -22t-33 -5zM240 220q-29 0 -37.5 5.5t-8.5 25.5v21q0 20 8.5 26t37.5 6q30 0 38.5 -6t8.5 -26v-21q0 -20 -8.5 -25.5t-38.5 -5.5z" />
    <glyph glyph-name="Lslash" unicode="&#x141;" horiz-adv-x="423" 
d="M144 75h236q15 0 20 -7.5t5 -30.5q0 -22 -5 -29.5t-20 -7.5h-288q-18 0 -24 5t-6 20v203l-29 -18q-13 -8 -20 -8q-14 0 -14 31q0 35 21 48l42 26v282q0 16 8 21t33 5t33 -5t8 -21v-230l115 74q13 8 19 8q14 0 14 -31q0 -34 -21 -48l-127 -81v-206z" />
    <glyph glyph-name="lslash" unicode="&#x142;" horiz-adv-x="223" 
d="M111 0q-25 0 -33 5t-8 22v223l-36 -23q-12 -7 -19 -7q-13 0 -13 29q0 35 20 48l48 31v298q0 17 8 22t33 5t33 -5t8 -22v-244l38 25q12 7 19 7q13 0 13 -29q0 -35 -20 -48l-50 -33v-277q0 -17 -8 -22t-33 -5z" />
    <glyph glyph-name="Nacute" unicode="&#x143;" horiz-adv-x="543" 
d="M103 0q-25 0 -33 5.5t-8 21.5v562q0 16 11 21t48 5q33 0 45 -4t20 -22l203 -462h10v462q0 16 8 21t33 5t33 -5t8 -21v-562q0 -17 -10.5 -22t-47.5 -5q-31 0 -42.5 4.5t-19.5 21.5l-207 463h-10v-462q0 -16 -8 -21.5t-33 -5.5zM252 659q-35 0 -35 16q0 6 10 26l47 90
q6 11 9 15t13 7.5t29 3.5q47 0 47 -16q0 -9 -14 -31l-57 -88q-6 -9 -10 -13t-13.5 -7t-25.5 -3z" />
    <glyph glyph-name="nacute" unicode="&#x144;" horiz-adv-x="510" 
d="M115 0q-25 0 -33.5 5t-8.5 22v284q0 42 -5.5 78.5t-11 57.5t-5.5 25q0 10 7.5 14.5t30.5 4.5t30 -3.5t11 -18.5l14 -59q39 91 168 91q79 0 107.5 -31t28.5 -100v-343q0 -17 -8.5 -22t-33.5 -5t-33 5t-8 22v324q0 45 -16 61.5t-65 16.5q-70 0 -99 -39t-29 -129v-234
q0 -17 -8 -22t-33 -5zM240 539q-35 0 -35 16q0 6 10 26l47 90q6 11 9 15t13 7.5t29 3.5q47 0 47 -16q0 -9 -14 -31l-57 -88q-6 -9 -10 -13t-13.5 -7t-25.5 -3z" />
    <glyph glyph-name="Ncommaaccent" unicode="&#x145;" horiz-adv-x="543" 
d="M103 0q-25 0 -33 5.5t-8 21.5v562q0 16 11 21t48 5q33 0 45 -4t20 -22l203 -462h10v462q0 16 8 21t33 5t33 -5t8 -21v-562q0 -17 -10.5 -22t-47.5 -5q-31 0 -42.5 4.5t-19.5 21.5l-207 463h-10v-462q0 -16 -8 -21.5t-33 -5.5zM250 -230q-27 0 -27 16q0 4 5.5 49t5.5 86
q0 21 8 27.5t35 6.5q25 0 33.5 -5.5t8.5 -21.5q0 -46 -9 -74l-20 -63q-6 -12 -13.5 -16.5t-26.5 -4.5z" />
    <glyph glyph-name="ncommaaccent" unicode="&#x146;" horiz-adv-x="510" 
d="M115 0q-25 0 -33.5 5t-8.5 22v284q0 42 -5.5 78.5t-11 57.5t-5.5 25q0 10 7.5 14.5t30.5 4.5t30 -3.5t11 -18.5l14 -59q39 91 168 91q79 0 107.5 -31t28.5 -100v-343q0 -17 -8.5 -22t-33.5 -5t-33 5t-8 22v324q0 45 -16 61.5t-65 16.5q-70 0 -99 -39t-29 -129v-234
q0 -17 -8 -22t-33 -5zM237 -230q-27 0 -27 16q0 4 5.5 49t5.5 86q0 21 8 27.5t35 6.5q25 0 33.5 -5.5t8.5 -21.5q0 -46 -9 -74l-20 -63q-6 -12 -13.5 -16.5t-26.5 -4.5z" />
    <glyph glyph-name="Ncaron" unicode="&#x147;" horiz-adv-x="543" 
d="M103 0q-25 0 -33 5.5t-8 21.5v562q0 16 11 21t48 5q33 0 45 -4t20 -22l203 -462h10v462q0 16 8 21t33 5t33 -5t8 -21v-562q0 -17 -10.5 -22t-47.5 -5q-31 0 -42.5 4.5t-19.5 21.5l-207 463h-10v-462q0 -16 -8 -21.5t-33 -5.5zM145 801q0 16 32 16q21 0 30 -3.5t17 -16.5
l48 -76h5l48 76q8 12 17 16t30 4q32 0 32 -16q0 -5 -11 -25l-59 -98q-7 -11 -15 -15t-28 -4h-33q-20 0 -28 4t-15 15l-59 98q-11 20 -11 25z" />
    <glyph glyph-name="ncaron" unicode="&#x148;" horiz-adv-x="510" 
d="M115 0q-25 0 -33.5 5t-8.5 22v284q0 42 -5.5 78.5t-11 57.5t-5.5 25q0 10 7.5 14.5t30.5 4.5t30 -3.5t11 -18.5l14 -59q39 91 168 91q79 0 107.5 -31t28.5 -100v-343q0 -17 -8.5 -22t-33.5 -5t-33 5t-8 22v324q0 45 -16 61.5t-65 16.5q-70 0 -99 -39t-29 -129v-234
q0 -17 -8 -22t-33 -5zM132 681q0 16 32 16q21 0 30 -3.5t17 -16.5l48 -76h5l48 76q12 20 47 20q32 0 32 -16q0 -5 -11 -25l-59 -98q-7 -11 -15 -15t-28 -4h-33q-20 0 -28 4t-15 15l-59 98q-11 20 -11 25z" />
    <glyph glyph-name="Eng" unicode="&#x14a;" horiz-adv-x="543" 
d="M376 -193q-34 0 -68 10q-15 4 -20.5 10.5t-5.5 24.5q0 20 3.5 26t12.5 6q4 0 23.5 -2.5t33.5 -2.5q28 0 36 12t8 57v52q-16 2 -23.5 7t-14.5 19l-207 463h-10v-462q0 -16 -8 -21.5t-33 -5.5t-33 5.5t-8 21.5v562q0 16 11 21t48 5q33 0 45 -4t20 -22l203 -462h10v462
q0 16 8 21t33 5t33 -5t8 -21v-658q0 -66 -24.5 -95t-80.5 -29z" />
    <glyph glyph-name="eng" unicode="&#x14b;" horiz-adv-x="510" 
d="M115 0q-25 0 -33.5 5t-8.5 22v284q0 42 -5.5 78.5t-11 57.5t-5.5 25q0 10 7.5 14.5t30.5 4.5t30 -3.5t11 -18.5l14 -59q39 91 168 91q79 0 107.5 -31t28.5 -100v-439q0 -66 -24.5 -95t-80.5 -29q-35 0 -69 10q-15 4 -20.5 10.5t-5.5 24.5q0 20 4 26t13 6q3 0 23 -2.5
t34 -2.5q28 0 35.5 11.5t7.5 57.5v403q0 45 -16 61.5t-65 16.5q-70 0 -99 -39t-29 -129v-234q0 -17 -8 -22t-33 -5z" />
    <glyph glyph-name="Omacron" unicode="&#x14c;" horiz-adv-x="524" 
d="M262 63q58 0 83.5 14.5t37 59.5t11.5 144v49q0 102 -10 145.5t-35.5 58t-86.5 14.5q-58 0 -83 -14t-36.5 -59t-11.5 -145v-49q0 -62 3 -98t10 -62.5t23 -37.5t37 -15.5t58 -4.5zM262 -9q-53 0 -84.5 5.5t-59.5 21.5t-41.5 48t-21 82.5t-7.5 127.5v57q0 66 5 113t18 79
t28 51t42 28.5t53 12.5t68 3q53 0 85 -5.5t60 -21.5t41.5 -48.5t20.5 -83t7 -128.5v-57q0 -78 -9 -130.5t-23.5 -83t-43.5 -46.5t-59 -20.5t-79 -4.5zM160 729q0 22 5 29t21 7h154q16 0 21 -7t5 -29t-5 -29t-21 -7h-154q-16 0 -21 7t-5 29z" />
    <glyph glyph-name="omacron" unicode="&#x14d;" horiz-adv-x="497" 
d="M241 -10q-58 0 -92 9.5t-57 37.5t-31.5 76t-8.5 128q0 151 45.5 205.5t159.5 54.5q76 0 114.5 -19t56 -72t17.5 -159q0 -151 -45 -206t-159 -55zM243 61q73 0 95.5 35t22.5 146q0 122 -18.5 155.5t-88.5 33.5q-73 0 -95.5 -34.5t-22.5 -145.5q0 -123 18.5 -156.5
t88.5 -33.5zM146 609q0 22 5 29t21 7h154q16 0 21 -7t5 -29t-5 -29t-21 -7h-154q-16 0 -21 7t-5 29z" />
    <glyph glyph-name="Obreve" unicode="&#x14e;" horiz-adv-x="524" 
d="M262 63q58 0 83.5 14.5t37 59.5t11.5 144v49q0 102 -10 145.5t-35.5 58t-86.5 14.5q-58 0 -83 -14t-36.5 -59t-11.5 -145v-49q0 -62 3 -98t10 -62.5t23 -37.5t37 -15.5t58 -4.5zM262 -9q-53 0 -84.5 5.5t-59.5 21.5t-41.5 48t-21 82.5t-7.5 127.5v57q0 66 5 113t18 79
t28 51t42 28.5t53 12.5t68 3q53 0 85 -5.5t60 -21.5t41.5 -48.5t20.5 -83t7 -128.5v-57q0 -78 -9 -130.5t-23.5 -83t-43.5 -46.5t-59 -20.5t-79 -4.5zM262 674q-64 0 -85.5 20.5t-21.5 73.5q0 17 5.5 21.5t26.5 4.5q20 0 25.5 -4t6.5 -19q1 -22 7.5 -28.5t35.5 -6.5t36 6.5
t8 28.5q1 15 6 19t26 4q20 0 25.5 -4.5t5.5 -21.5q0 -53 -21 -73.5t-86 -20.5z" />
    <glyph glyph-name="obreve" unicode="&#x14f;" horiz-adv-x="497" 
d="M241 -10q-58 0 -92 9.5t-57 37.5t-31.5 76t-8.5 128q0 151 45.5 205.5t159.5 54.5q76 0 114.5 -19t56 -72t17.5 -159q0 -151 -45 -206t-159 -55zM243 61q73 0 95.5 35t22.5 146q0 122 -18.5 155.5t-88.5 33.5q-73 0 -95.5 -34.5t-22.5 -145.5q0 -123 18.5 -156.5
t88.5 -33.5zM248 554q-64 0 -85.5 20.5t-21.5 73.5q0 17 5.5 21.5t26.5 4.5q20 0 25.5 -4t6.5 -19q1 -22 7.5 -28.5t35.5 -6.5t36 6.5t8 28.5q1 15 6 19t26 4q20 0 25.5 -4.5t5.5 -21.5q0 -53 -21 -73.5t-86 -20.5z" />
    <glyph glyph-name="Ohungarumlaut" unicode="&#x150;" horiz-adv-x="524" 
d="M262 63q58 0 83.5 14.5t37 59.5t11.5 144v49q0 102 -10 145.5t-35.5 58t-86.5 14.5q-58 0 -83 -14t-36.5 -59t-11.5 -145v-49q0 -62 3 -98t10 -62.5t23 -37.5t37 -15.5t58 -4.5zM262 -9q-53 0 -84.5 5.5t-59.5 21.5t-41.5 48t-21 82.5t-7.5 127.5v57q0 66 5 113t18 79
t28 51t42 28.5t53 12.5t68 3q53 0 85 -5.5t60 -21.5t41.5 -48.5t20.5 -83t7 -128.5v-57q0 -78 -9 -130.5t-23.5 -83t-43.5 -46.5t-59 -20.5t-79 -4.5zM154 675q0 8 47 124q3 10 12 14t35 4q25 0 34 -2.5t9 -13.5q0 -13 -60 -122q-6 -12 -14 -16t-32 -4q-31 0 -31 16z
M279 675q0 9 62 124q5 10 14 14t34 4q24 0 33.5 -3t9.5 -13q0 -13 -76 -122q-5 -8 -8.5 -11.5t-12.5 -6t-25 -2.5q-31 0 -31 16z" />
    <glyph glyph-name="ohungarumlaut" unicode="&#x151;" horiz-adv-x="497" 
d="M241 -10q-58 0 -92 9.5t-57 37.5t-31.5 76t-8.5 128q0 151 45.5 205.5t159.5 54.5q76 0 114.5 -19t56 -72t17.5 -159q0 -151 -45 -206t-159 -55zM243 61q73 0 95.5 35t22.5 146q0 122 -18.5 155.5t-88.5 33.5q-73 0 -95.5 -34.5t-22.5 -145.5q0 -123 18.5 -156.5
t88.5 -33.5zM139 555q0 8 47 124q3 10 12 14t35 4q25 0 34 -2.5t9 -13.5q0 -13 -60 -122q-6 -12 -14 -16t-32 -4q-31 0 -31 16zM264 555q0 9 62 124q5 10 14 14t34 4q24 0 33.5 -3t9.5 -13q0 -13 -76 -122q-5 -8 -8.5 -11.5t-12.5 -6t-25 -2.5q-31 0 -31 16z" />
    <glyph glyph-name="OE" unicode="&#x152;" horiz-adv-x="787" 
d="M262 -9q-49 0 -78.5 4.5t-58.5 20.5t-44 46.5t-24 83t-9 130.5v57q0 78 7 128.5t20.5 83t41.5 48.5t60 21.5t85 5.5q103 0 142 -28q0 13 7.5 18t26.5 5h284q15 0 20 -7t5 -30t-5 -30.5t-20 -7.5h-246v-179h190q16 0 21 -6.5t5 -29.5t-5 -30t-21 -7h-190v-213h256
q15 0 20 -7.5t5 -30.5q0 -22 -5 -29.5t-20 -7.5h-294q-19 0 -26.5 4.5t-7.5 18.5q-40 -32 -142 -32zM262 63q58 0 83.5 13.5t37 55.5t11.5 135v66q0 61 -3 96.5t-10 61.5t-23.5 37t-37.5 15.5t-58 4.5q-61 0 -86 -14.5t-35 -58t-10 -145.5v-49q0 -61 3.5 -98t11 -62.5
t24.5 -37t37 -16t55 -4.5z" />
    <glyph glyph-name="oe" unicode="&#x153;" horiz-adv-x="777" 
d="M241 -10q-58 0 -92 9.5t-57 37.5t-31.5 76t-8.5 128q0 151 45.5 205.5t159.5 54.5q60 0 95 -11.5t55 -41.5q24 32 59.5 42.5t91.5 10.5q47 0 78.5 -10t50.5 -26.5t29 -47.5t13 -64t3 -85q0 -22 -7.5 -32t-28.5 -10h-251q1 -106 23 -135t103 -29q34 0 65.5 5t51 10.5
t24.5 5.5q14 0 14 -33q0 -19 -5 -26.5t-20 -12.5q-58 -21 -139 -21q-66 0 -103.5 12t-58.5 46q-43 -58 -159 -58zM243 61q73 0 95.5 35t22.5 146q0 122 -18.5 155.5t-88.5 33.5q-73 0 -95.5 -34.5t-22.5 -145.5q0 -123 18.5 -156.5t88.5 -33.5zM556 431q-43 0 -64 -9.5
t-33 -41.5t-14 -97h207q0 37 -1 55.5t-5.5 40t-15 30.5t-28.5 15.5t-46 6.5z" />
    <glyph glyph-name="Racute" unicode="&#x154;" horiz-adv-x="499" 
d="M103 0q-25 0 -33 5.5t-8 21.5v552q0 29 29 32q66 9 156 9q59 0 93 -5.5t60.5 -23t36.5 -51t10 -88.5q0 -76 -24 -118.5t-78 -59.5l108 -231q8 -19 8 -25q0 -18 -36 -18q-29 0 -38.5 4t-14.5 17l-101 241q-11 -1 -36 -1h-91v-234q0 -16 -8 -21.5t-33 -5.5zM144 544v-219
h93q74 0 99 24.5t25 99.5q0 62 -23 81t-98 19q-34 0 -96 -5zM215 659q-35 0 -35 16q0 6 10 26l47 90q6 11 9 15t13 7.5t29 3.5q47 0 47 -16q0 -9 -14 -31l-57 -88q-6 -9 -10 -13t-13.5 -7t-25.5 -3z" />
    <glyph glyph-name="racute" unicode="&#x155;" horiz-adv-x="341" 
d="M115 0q-25 0 -33.5 5t-8.5 22v284q0 42 -5.5 78.5t-11 57.5t-5.5 25q0 10 7.5 14.5t30.5 4.5t30 -3.5t11 -18.5l14 -55q36 86 123 86q24 0 45 -6q17 -7 17 -39q0 -34 -17 -34q-2 0 -20 3t-33 3q-103 0 -103 -193v-207q0 -17 -8 -22t-33 -5zM137 539q-35 0 -35 16
q0 6 10 26l47 90q6 11 9 15t13 7.5t29 3.5q47 0 47 -16q0 -9 -14 -31l-57 -88q-6 -9 -10 -13t-13.5 -7t-25.5 -3z" />
    <glyph glyph-name="Rcommaaccent" unicode="&#x156;" horiz-adv-x="499" 
d="M103 0q-25 0 -33 5.5t-8 21.5v552q0 29 29 32q66 9 156 9q59 0 93 -5.5t60.5 -23t36.5 -51t10 -88.5q0 -76 -24 -118.5t-78 -59.5l108 -231q8 -19 8 -25q0 -18 -36 -18q-29 0 -38.5 4t-14.5 17l-101 241q-11 -1 -36 -1h-91v-234q0 -16 -8 -21.5t-33 -5.5zM144 544v-219
h93q74 0 99 24.5t25 99.5q0 62 -23 81t-98 19q-34 0 -96 -5zM229 -230q-27 0 -27 16q0 4 5.5 49t5.5 86q0 21 8 27.5t35 6.5q25 0 33.5 -5.5t8.5 -21.5q0 -46 -9 -74l-20 -63q-6 -12 -13.5 -16.5t-26.5 -4.5z" />
    <glyph glyph-name="rcommaaccent" unicode="&#x157;" horiz-adv-x="341" 
d="M115 0q-25 0 -33.5 5t-8.5 22v284q0 42 -5.5 78.5t-11 57.5t-5.5 25q0 10 7.5 14.5t30.5 4.5t30 -3.5t11 -18.5l14 -55q36 86 123 86q24 0 45 -6q17 -7 17 -39q0 -34 -17 -34q-2 0 -20 3t-33 3q-103 0 -103 -193v-207q0 -17 -8 -22t-33 -5zM91 -237q-27 0 -27 16
q0 4 5.5 49t5.5 86q0 21 8 27.5t35 6.5q25 0 33.5 -5.5t8.5 -21.5q0 -45 -9 -74l-20 -63q-6 -12 -13.5 -16.5t-26.5 -4.5z" />
    <glyph glyph-name="Rcaron" unicode="&#x158;" horiz-adv-x="499" 
d="M103 0q-25 0 -33 5.5t-8 21.5v552q0 29 29 32q66 9 156 9q59 0 93 -5.5t60.5 -23t36.5 -51t10 -88.5q0 -76 -24 -118.5t-78 -59.5l108 -231q8 -19 8 -25q0 -18 -36 -18q-29 0 -38.5 4t-14.5 17l-101 241q-11 -1 -36 -1h-91v-234q0 -16 -8 -21.5t-33 -5.5zM144 544v-219
h93q74 0 99 24.5t25 99.5q0 62 -23 81t-98 19q-34 0 -96 -5zM122 801q0 16 32 16q21 0 30 -3.5t17 -16.5l48 -76h5l48 76q12 20 47 20q32 0 32 -16q0 -5 -11 -25l-59 -98q-7 -11 -15 -15t-28 -4h-33q-20 0 -28 4t-15 15l-59 98q-11 20 -11 25z" />
    <glyph glyph-name="rcaron" unicode="&#x159;" horiz-adv-x="341" 
d="M115 0q-25 0 -33.5 5t-8.5 22v284q0 42 -5.5 78.5t-11 57.5t-5.5 25q0 10 7.5 14.5t30.5 4.5t30 -3.5t11 -18.5l14 -55q36 86 123 86q24 0 45 -6q17 -7 17 -39q0 -34 -17 -34q-2 0 -20 3t-33 3q-103 0 -103 -193v-207q0 -17 -8 -22t-33 -5zM45 681q0 16 32 16
q21 0 30 -3.5t17 -16.5l48 -76h5l48 76q8 12 17 16t30 4q32 0 32 -16q0 -5 -11 -25l-59 -98q-7 -11 -15 -15t-28 -4h-33q-20 0 -28 4t-15 15l-59 98q-11 20 -11 25z" />
    <glyph glyph-name="Sacute" unicode="&#x15a;" horiz-adv-x="459" 
d="M217 -9q-81 0 -148 19q-14 4 -20 12.5t-6 28.5q0 21 3.5 27t13.5 6q2 0 50 -9t93 -9q70 0 100.5 22t30.5 74q0 40 -10.5 59.5t-39.5 32.5l-129 58q-56 25 -77 55.5t-21 94.5q0 50 13 83t38.5 48.5t52 21t64.5 5.5q87 0 152 -19q23 -6 23 -40q0 -20 -4 -27t-13 -7
q-4 0 -24 4.5t-51.5 9.5t-63.5 5q-63 0 -84 -15t-21 -70q0 -34 11.5 -49.5t43.5 -29.5l129 -58q53 -24 72.5 -58t19.5 -98q0 -177 -198 -177zM212 659q-35 0 -35 16q0 6 10 26l47 90q6 11 9 15t13 7.5t29 3.5q47 0 47 -16q0 -9 -14 -31l-57 -88q-6 -9 -10 -13t-13.5 -7
t-25.5 -3z" />
    <glyph glyph-name="sacute" unicode="&#x15b;" horiz-adv-x="429" 
d="M199 -10q-73 0 -130 18q-14 5 -19 12t-5 26q0 34 13 34q2 0 48 -9t86 -9q59 0 84 19t25 60q0 22 -9 34t-29 21l-135 57q-70 30 -70 118q0 130 156 130q69 0 134 -17q15 -4 19.5 -11.5t4.5 -28.5q0 -32 -16 -32l-47 10q-47 9 -84 9q-47 0 -65 -14t-18 -46q0 -24 7.5 -37
t30.5 -22l131 -54q40 -16 56.5 -42.5t16.5 -70.5q0 -155 -185 -155zM192 539q-35 0 -35 16q0 6 10 26l47 90q6 11 9 15t13 7.5t29 3.5q47 0 47 -16q0 -9 -14 -31l-57 -88q-6 -9 -10 -13t-13.5 -7t-25.5 -3z" />
    <glyph glyph-name="Scircumflex" unicode="&#x15c;" horiz-adv-x="459" 
d="M217 -9q-81 0 -148 19q-14 4 -20 12.5t-6 28.5q0 21 3.5 27t13.5 6q2 0 50 -9t93 -9q70 0 100.5 22t30.5 74q0 40 -10.5 59.5t-39.5 32.5l-129 58q-56 25 -77 55.5t-21 94.5q0 50 13 83t38.5 48.5t52 21t64.5 5.5q87 0 152 -19q23 -6 23 -40q0 -20 -4 -27t-13 -7
q-4 0 -24 4.5t-51.5 9.5t-63.5 5q-63 0 -84 -15t-21 -70q0 -34 11.5 -49.5t43.5 -29.5l129 -58q53 -24 72.5 -58t19.5 -98q0 -177 -198 -177zM240 755h-6l-48 -76q-8 -12 -16.5 -16t-29.5 -4q-32 0 -32 16q0 7 11 25l59 98q7 11 14.5 15t27.5 4h34q20 0 27.5 -4t14.5 -15
l59 -98q11 -18 11 -25q0 -16 -32 -16q-21 0 -29.5 4t-16.5 16z" />
    <glyph glyph-name="scircumflex" unicode="&#x15d;" horiz-adv-x="429" 
d="M199 -10q-73 0 -130 18q-14 5 -19 12t-5 26q0 34 13 34q2 0 48 -9t86 -9q59 0 84 19t25 60q0 22 -9 34t-29 21l-135 57q-70 30 -70 118q0 130 156 130q69 0 134 -17q15 -4 19.5 -11.5t4.5 -28.5q0 -32 -16 -32l-47 10q-47 9 -84 9q-47 0 -65 -14t-18 -46q0 -24 7.5 -37
t30.5 -22l131 -54q40 -16 56.5 -42.5t16.5 -70.5q0 -155 -185 -155zM216 635h-6l-48 -76q-8 -12 -16.5 -16t-29.5 -4q-32 0 -32 16q0 7 11 25l59 98q7 11 14.5 15t27.5 4h34q20 0 27.5 -4t14.5 -15l59 -98q11 -18 11 -25q0 -16 -32 -16q-21 0 -29.5 4t-16.5 16z" />
    <glyph glyph-name="Scedilla" unicode="&#x15e;" horiz-adv-x="459" 
d="M233 -206q-25 0 -52 5q-15 3 -20.5 9t-5.5 23q0 19 4 25t14 6q3 0 18 -1.5t29 -1.5t20.5 3t6.5 14q0 3 -1 6t-2 4.5t-4 4t-4.5 4t-7.5 4.5t-9 5q-17 10 -24 22t-7 34v32q-66 3 -119 18q-14 4 -20 12.5t-6 28.5q0 21 3.5 27t13.5 6q2 0 50 -9t93 -9q70 0 100.5 22t30.5 74
q0 40 -10.5 59.5t-39.5 32.5l-129 58q-56 25 -77 55.5t-21 94.5q0 50 13 83t38.5 48.5t52 21t64.5 5.5q87 0 152 -19q23 -6 23 -40q0 -20 -4 -27t-13 -7q-4 0 -24 4.5t-51.5 9.5t-63.5 5q-63 0 -84 -15t-21 -70q0 -34 11.5 -49.5t43.5 -29.5l129 -58q53 -24 72.5 -58
t19.5 -98q0 -164 -167 -176v-18q0 -16 15 -26q36 -21 47 -35.5t11 -46.5q0 -72 -88 -72z" />
    <glyph glyph-name="scedilla" unicode="&#x15f;" horiz-adv-x="429" 
d="M218 -206q-25 0 -52 5q-15 3 -20.5 9t-5.5 23q0 19 4 25t14 6q3 0 18 -1.5t29 -1.5t20.5 3t6.5 14q0 3 -1 6t-2 4.5t-4 4t-4.5 4t-7.5 4.5t-9 5q-17 10 -24 22t-7 34v31q-61 3 -104 17q-14 5 -19 12t-5 26q0 34 13 34q2 0 48 -9t86 -9q59 0 84 19t25 60q0 22 -9 34
t-29 21l-135 57q-70 30 -70 118q0 130 156 130q69 0 134 -17q15 -4 19.5 -11.5t4.5 -28.5q0 -32 -16 -32l-47 10q-47 9 -84 9q-47 0 -65 -14t-18 -46q0 -24 7.5 -37t30.5 -22l131 -54q40 -16 56.5 -42.5t16.5 -70.5q0 -140 -151 -153v-18q0 -16 15 -26q36 -21 47 -35.5
t11 -46.5q0 -72 -88 -72z" />
    <glyph glyph-name="Scaron" unicode="&#x160;" horiz-adv-x="459" 
d="M217 -9q-81 0 -148 19q-14 4 -20 12.5t-6 28.5q0 21 3.5 27t13.5 6q2 0 50 -9t93 -9q70 0 100.5 22t30.5 74q0 40 -10.5 59.5t-39.5 32.5l-129 58q-56 25 -77 55.5t-21 94.5q0 50 13 83t38.5 48.5t52 21t64.5 5.5q87 0 152 -19q23 -6 23 -40q0 -20 -4 -27t-13 -7
q-4 0 -24 4.5t-51.5 9.5t-63.5 5q-63 0 -84 -15t-21 -70q0 -34 11.5 -49.5t43.5 -29.5l129 -58q53 -24 72.5 -58t19.5 -98q0 -177 -198 -177zM112 801q0 16 32 16q21 0 30 -3.5t17 -16.5l48 -76h5l48 76q12 20 47 20q32 0 32 -16q0 -5 -11 -25l-59 -98q-7 -11 -15 -15
t-28 -4h-33q-20 0 -28 4t-15 15l-59 98q-11 20 -11 25z" />
    <glyph glyph-name="scaron" unicode="&#x161;" horiz-adv-x="429" 
d="M199 -10q-73 0 -130 18q-14 5 -19 12t-5 26q0 34 13 34q2 0 48 -9t86 -9q59 0 84 19t25 60q0 22 -9 34t-29 21l-135 57q-70 30 -70 118q0 130 156 130q69 0 134 -17q15 -4 19.5 -11.5t4.5 -28.5q0 -32 -16 -32l-47 10q-47 9 -84 9q-47 0 -65 -14t-18 -46q0 -24 7.5 -37
t30.5 -22l131 -54q40 -16 56.5 -42.5t16.5 -70.5q0 -155 -185 -155zM84 681q0 16 32 16q21 0 30 -3.5t17 -16.5l48 -76h5l48 76q12 20 47 20q32 0 32 -16q0 -5 -11 -25l-59 -98q-7 -11 -15 -15t-28 -4h-33q-20 0 -28 4t-15 15l-59 98q-11 20 -11 25z" />
    <glyph glyph-name="Tcommaaccent" unicode="&#x162;" horiz-adv-x="429" 
d="M214 0q-25 0 -33 5.5t-8 21.5v513h-138q-15 0 -20 7.5t-5 30.5t5 30t20 7h358q15 0 20.5 -7.5t5.5 -29.5q0 -23 -5.5 -30.5t-20.5 -7.5h-137v-513q0 -16 -8 -21.5t-34 -5.5zM190 -230q-27 0 -27 16q0 4 5.5 49t5.5 86q0 21 8 27.5t35 6.5q25 0 33.5 -5.5t8.5 -21.5
q0 -46 -9 -74l-20 -63q-6 -12 -13.5 -16.5t-26.5 -4.5z" />
    <glyph glyph-name="tcommaaccent" unicode="&#x163;" horiz-adv-x="317" 
d="M202 -10q-56 0 -79.5 28.5t-23.5 94.5v310h-52q-13 0 -17.5 7t-4.5 26q0 20 4.5 27t17.5 7h52v76q0 17 8 22t33 5t33.5 -5t8.5 -22v-76h89q13 0 17.5 -7t4.5 -27q0 -19 -4.5 -26t-17.5 -7h-89v-293q0 -44 7.5 -55.5t34.5 -11.5q16 0 34.5 3t21.5 3q10 0 13.5 -6.5
t3.5 -25.5q0 -17 -5.5 -24t-18.5 -12q-33 -11 -71 -11zM164 -230q-27 0 -27 16q0 4 5.5 49t5.5 86q0 21 8 27.5t35 6.5q25 0 33.5 -5.5t8.5 -21.5q0 -46 -9 -74l-20 -63q-6 -12 -13.5 -16.5t-26.5 -4.5z" />
    <glyph glyph-name="Tcaron" unicode="&#x164;" horiz-adv-x="429" 
d="M214 0q-25 0 -33 5.5t-8 21.5v513h-138q-15 0 -20 7.5t-5 30.5t5 30t20 7h358q15 0 20.5 -7.5t5.5 -29.5q0 -23 -5.5 -30.5t-20.5 -7.5h-137v-513q0 -16 -8 -21.5t-34 -5.5zM85 801q0 16 32 16q21 0 30 -3.5t17 -16.5l48 -76h5l48 76q8 12 17 16t30 4q32 0 32 -16
q0 -5 -11 -25l-59 -98q-7 -11 -15 -15t-28 -4h-33q-20 0 -28 4t-15 15l-59 98q-11 20 -11 25z" />
    <glyph glyph-name="tcaron" unicode="&#x165;" horiz-adv-x="453" 
d="M381 653q27 0 35 -6t8 -25v-28q0 -32 -13 -78l-17 -59q-6 -17 -14 -22.5t-29 -5.5q-16 0 -21 3.5t-5 12.5q0 6 7 51t7 74v52q0 19 8 25t34 6zM202 -10q-56 0 -79.5 28.5t-23.5 94.5v310h-52q-13 0 -17.5 7t-4.5 26q0 20 4.5 27t17.5 7h52v76q0 17 8 22t33 5t33.5 -5
t8.5 -22v-76h89q13 0 17.5 -7t4.5 -27q0 -19 -4.5 -26t-17.5 -7h-89v-293q0 -44 7.5 -55.5t34.5 -11.5q16 0 34.5 3t21.5 3q10 0 13.5 -6.5t3.5 -25.5q0 -17 -5.5 -24t-18.5 -12q-33 -11 -71 -11z" />
    <glyph glyph-name="Tbar" unicode="&#x166;" horiz-adv-x="429" 
d="M214 0q-25 0 -33 5.5t-8 21.5v257h-118q-15 0 -20 6.5t-5 26.5t5 26.5t20 6.5h118v190h-138q-15 0 -20 7.5t-5 30.5t5 30t20 7h358q15 0 20.5 -7.5t5.5 -29.5q0 -23 -5.5 -30.5t-20.5 -7.5h-137v-190h117q16 0 21 -6.5t5 -26.5t-5 -26.5t-21 -6.5h-117v-257
q0 -16 -8 -21.5t-34 -5.5z" />
    <glyph glyph-name="tbar" unicode="&#x167;" horiz-adv-x="317" 
d="M202 -10q-56 0 -79.5 28.5t-23.5 94.5v102h-50q-12 0 -16.5 7t-4.5 27q0 21 4.5 27.5t16.5 6.5h50v140h-52q-13 0 -17.5 7t-4.5 26q0 20 4.5 27t17.5 7h52v76q0 17 8 22t33 5t33.5 -5t8.5 -22v-76h89q13 0 17.5 -7t4.5 -27q0 -19 -4.5 -26t-17.5 -7h-89v-140h87
q13 0 17.5 -6.5t4.5 -27.5q0 -20 -4.5 -27t-17.5 -7h-87v-85q0 -44 7.5 -55.5t34.5 -11.5q16 0 34.5 3t21.5 3q10 0 13.5 -6.5t3.5 -25.5q0 -17 -5.5 -24t-18.5 -12q-33 -11 -71 -11z" />
    <glyph glyph-name="Utilde" unicode="&#x168;" horiz-adv-x="521" 
d="M261 -9q-107 0 -153 42.5t-46 143.5v412q0 16 8 21t33 5t33 -5t8 -21v-415q0 -60 24 -84t93 -24q68 0 92 24t24 84v415q0 16 8 21t33 5t33 -5t8 -21v-412q0 -101 -46 -143.5t-152 -42.5zM130 711q0 17 5 24.5t19 16.5q27 18 59 18q22 0 55 -10.5t48 -10.5q20 0 41 9.5
t23 9.5q8 0 10.5 -5.5t2.5 -23.5q0 -17 -5 -25t-19 -17q-31 -17 -60 -17q-21 0 -54 10t-48 10q-20 0 -41 -9t-23 -9q-8 0 -10.5 5.5t-2.5 23.5z" />
    <glyph glyph-name="utilde" unicode="&#x169;" horiz-adv-x="500" 
d="M195 -10q-77 0 -105.5 30t-28.5 99v346q0 17 8 21.5t33 4.5t33 -4.5t8 -21.5v-327q0 -45 16 -60.5t65 -15.5q71 0 99.5 39t28.5 130v234q0 17 8 21.5t33 4.5t33 -4.5t8 -21.5v-285q0 -42 6 -78t11.5 -57t5.5 -25q0 -10 -7.5 -15t-30.5 -5t-30 4t-11 19l-14 56
q-39 -89 -169 -89zM117 594q0 17 5 24.5t19 16.5q27 18 59 18q22 0 55 -10.5t48 -10.5q20 0 41 9.5t23 9.5q8 0 10.5 -5.5t2.5 -23.5q0 -17 -5 -25t-19 -17q-31 -17 -60 -17q-22 0 -54 10t-48 10q-20 0 -41 -9t-23 -9q-8 0 -10.5 5.5t-2.5 23.5z" />
    <glyph glyph-name="Umacron" unicode="&#x16a;" horiz-adv-x="521" 
d="M261 -9q-107 0 -153 42.5t-46 143.5v412q0 16 8 21t33 5t33 -5t8 -21v-415q0 -60 24 -84t93 -24q68 0 92 24t24 84v415q0 16 8 21t33 5t33 -5t8 -21v-412q0 -101 -46 -143.5t-152 -42.5zM157 729q0 22 5 29t21 7h154q16 0 21 -7t5 -29t-5 -29t-21 -7h-154q-16 0 -21 7
t-5 29z" />
    <glyph glyph-name="umacron" unicode="&#x16b;" horiz-adv-x="500" 
d="M195 -10q-77 0 -105.5 30t-28.5 99v346q0 17 8 21.5t33 4.5t33 -4.5t8 -21.5v-327q0 -45 16 -60.5t65 -15.5q71 0 99.5 39t28.5 130v234q0 17 8 21.5t33 4.5t33 -4.5t8 -21.5v-285q0 -42 6 -78t11.5 -57t5.5 -25q0 -10 -7.5 -15t-30.5 -5t-30 4t-11 19l-14 56
q-39 -89 -169 -89zM145 609q0 22 5 29t21 7h154q16 0 21 -7t5 -29t-5 -29t-21 -7h-154q-16 0 -21 7t-5 29z" />
    <glyph glyph-name="Ubreve" unicode="&#x16c;" horiz-adv-x="521" 
d="M261 -9q-107 0 -153 42.5t-46 143.5v412q0 16 8 21t33 5t33 -5t8 -21v-415q0 -60 24 -84t93 -24q68 0 92 24t24 84v415q0 16 8 21t33 5t33 -5t8 -21v-412q0 -101 -46 -143.5t-152 -42.5zM260 673q-64 0 -85.5 20.5t-21.5 73.5q0 17 5.5 21.5t26.5 4.5q20 0 25.5 -4
t6.5 -19q1 -22 7.5 -28.5t35.5 -6.5t36 6.5t8 28.5q1 15 6 19t26 4q20 0 25.5 -4.5t5.5 -21.5q0 -53 -21 -73.5t-86 -20.5z" />
    <glyph glyph-name="ubreve" unicode="&#x16d;" horiz-adv-x="500" 
d="M195 -10q-77 0 -105.5 30t-28.5 99v346q0 17 8 21.5t33 4.5t33 -4.5t8 -21.5v-327q0 -45 16 -60.5t65 -15.5q71 0 99.5 39t28.5 130v234q0 17 8 21.5t33 4.5t33 -4.5t8 -21.5v-285q0 -42 6 -78t11.5 -57t5.5 -25q0 -10 -7.5 -15t-30.5 -5t-30 4t-11 19l-14 56
q-39 -89 -169 -89zM247 554q-64 0 -85.5 20.5t-21.5 73.5q0 17 5.5 21.5t26.5 4.5q20 0 25.5 -4t6.5 -19q1 -22 7.5 -28.5t35.5 -6.5t36 6.5t8 28.5q1 15 6 19t26 4q20 0 25.5 -4.5t5.5 -21.5q0 -53 -21 -73.5t-86 -20.5z" />
    <glyph glyph-name="Uring" unicode="&#x16e;" horiz-adv-x="521" 
d="M261 -9q-107 0 -153 42.5t-46 143.5v412q0 16 8 21t33 5t33 -5t8 -21v-415q0 -60 24 -84t93 -24q68 0 92 24t24 84v415q0 16 8 21t33 5t33 -5t8 -21v-412q0 -101 -46 -143.5t-152 -42.5zM260 727q30 0 37.5 7t7.5 29t-8 29t-37 7q-28 0 -35.5 -7t-7.5 -29t7 -29t36 -7z
M260 672q-63 0 -84.5 20t-21.5 71t21.5 71t84.5 20q64 0 85.5 -20t21.5 -71t-21.5 -71t-85.5 -20z" />
    <glyph glyph-name="uring" unicode="&#x16f;" horiz-adv-x="500" 
d="M195 -10q-77 0 -105.5 30t-28.5 99v346q0 17 8 21.5t33 4.5t33 -4.5t8 -21.5v-327q0 -45 16 -60.5t65 -15.5q71 0 99.5 39t28.5 130v234q0 17 8 21.5t33 4.5t33 -4.5t8 -21.5v-285q0 -42 6 -78t11.5 -57t5.5 -25q0 -10 -7.5 -15t-30.5 -5t-30 4t-11 19l-14 56
q-39 -89 -169 -89zM247 608q30 0 37.5 7t7.5 29t-8 29t-37 7q-28 0 -35.5 -7t-7.5 -29t7 -29t36 -7zM247 553q-63 0 -84.5 20t-21.5 71t21.5 71t84.5 20q64 0 85.5 -20t21.5 -71t-21.5 -71t-85.5 -20z" />
    <glyph glyph-name="Uhungarumlaut" unicode="&#x170;" horiz-adv-x="521" 
d="M261 -9q-107 0 -153 42.5t-46 143.5v412q0 16 8 21t33 5t33 -5t8 -21v-415q0 -60 24 -84t93 -24q68 0 92 24t24 84v415q0 16 8 21t33 5t33 -5t8 -21v-412q0 -101 -46 -143.5t-152 -42.5zM151 675q0 8 47 124q3 10 12 14t35 4q25 0 34 -2.5t9 -13.5q0 -13 -60 -122
q-6 -12 -14 -16t-32 -4q-31 0 -31 16zM276 675q0 9 62 124q5 10 14 14t34 4q24 0 33.5 -3t9.5 -13q0 -13 -76 -122q-5 -8 -8.5 -11.5t-12.5 -6t-25 -2.5q-31 0 -31 16z" />
    <glyph glyph-name="uhungarumlaut" unicode="&#x171;" horiz-adv-x="500" 
d="M195 -10q-77 0 -105.5 30t-28.5 99v346q0 17 8 21.5t33 4.5t33 -4.5t8 -21.5v-327q0 -45 16 -60.5t65 -15.5q71 0 99.5 39t28.5 130v234q0 17 8 21.5t33 4.5t33 -4.5t8 -21.5v-285q0 -42 6 -78t11.5 -57t5.5 -25q0 -10 -7.5 -15t-30.5 -5t-30 4t-11 19l-14 56
q-39 -89 -169 -89zM137 555q0 8 47 124q3 10 12 14t35 4q25 0 34 -2.5t9 -13.5q0 -13 -60 -122q-6 -12 -14 -16t-32 -4q-31 0 -31 16zM262 555q0 9 62 124q5 10 14 14t34 4q24 0 33.5 -3t9.5 -13q0 -13 -76 -122q-5 -8 -8.5 -11.5t-12.5 -6t-25 -2.5q-31 0 -31 16z" />
    <glyph glyph-name="Uogonek" unicode="&#x172;" horiz-adv-x="521" 
d="M352 -7q-82 -40 -82 -95q0 -14 4 -18.5t15 -4.5q9 0 18 1.5t13 1.5q9 0 13 -6t4 -24q0 -17 -5.5 -23.5t-20.5 -10.5q-26 -7 -49 -7q-36 0 -53 16.5t-17 54.5q0 66 64 113q-104 1 -149 43t-45 143v412q0 16 8 21t33 5t33 -5t8 -21v-415q0 -60 24 -84t93 -24q68 0 92 24
t24 84v415q0 16 8 21t33 5t33 -5t8 -21v-412q0 -71 -22 -112.5t-85 -71.5z" />
    <glyph glyph-name="uogonek" unicode="&#x173;" horiz-adv-x="500" 
d="M382 -193q-36 0 -53 16.5t-17 54.5q0 32 16.5 59t58.5 68q-2 2 -4 10l-20 64q-39 -89 -168 -89q-77 0 -105.5 30t-28.5 99v346q0 17 8 21.5t33 4.5t33 -4.5t8 -21.5v-327q0 -45 16 -60.5t65 -15.5q71 0 99.5 39t28.5 130v234q0 17 8 21.5t33 4.5t33 -4.5t8 -21.5v-285
q0 -42 6 -78t11.5 -57t5.5 -25q0 -16 -29 -51q-38 -43 -38 -71q0 -14 4 -18.5t15 -4.5q9 0 18 1.5t13 1.5q9 0 13 -6t4 -24q0 -17 -5.5 -23.5t-20.5 -10.5q-26 -7 -49 -7z" />
    <glyph glyph-name="Wcircumflex" unicode="&#x174;" horiz-adv-x="795" 
d="M212 0q-39 0 -53.5 6t-18.5 27l-120 538q0 3 -1 8t-1.5 9t-0.5 7q0 11 8 15.5t32 4.5q26 0 35 -4t12 -18l106 -516h12l113 500q3 17 16.5 22.5t46.5 5.5q32 0 45.5 -5.5t16.5 -22.5l113 -500h12l106 516q3 14 12 18t35 4q24 0 32 -4.5t8 -15.5l-3 -24l-120 -538
q-4 -21 -18.5 -27t-53.5 -6q-38 0 -52.5 6.5t-19.5 28.5l-108 465h-10l-109 -465q-5 -22 -19.5 -28.5t-52.5 -6.5zM400 755h-6l-48 -76q-8 -12 -16.5 -16t-29.5 -4q-32 0 -32 16q0 7 11 25l59 98q7 11 14.5 15t27.5 4h34q20 0 27.5 -4t14.5 -15l59 -98q11 -18 11 -25
q0 -16 -32 -16q-21 0 -29.5 4t-16.5 16z" />
    <glyph glyph-name="wcircumflex" unicode="&#x175;" horiz-adv-x="699" 
d="M189 0q-35 0 -49 6t-18 25l-92 400q-5 25 -5 37q0 13 7.5 18t32.5 5q28 0 36.5 -4.5t12.5 -23.5l79 -389h11l87 374q5 20 16.5 26.5t42.5 6.5q30 0 41.5 -6.5t16.5 -26.5l87 -374h11l79 389q4 19 12.5 23.5t36.5 4.5q25 0 32.5 -5t7.5 -18q0 -12 -5 -37l-92 -400
q-4 -19 -18 -25t-49 -6q-39 0 -56 6t-21 25l-80 338h-7l-80 -338q-4 -19 -21 -25t-56 -6zM352 635h-6l-48 -76q-8 -12 -16.5 -16t-29.5 -4q-32 0 -32 16q0 7 11 25l59 98q7 11 14.5 15t27.5 4h34q20 0 27.5 -4t14.5 -15l59 -98q11 -18 11 -25q0 -16 -32 -16q-21 0 -29.5 4
t-16.5 16z" />
    <glyph glyph-name="Ycircumflex" unicode="&#x176;" horiz-adv-x="455" 
d="M227 0q-25 0 -33 5.5t-8 21.5v209l-158 328q-11 23 -11 32q0 19 38 19q29 0 39 -4t15 -18l116 -268h5l116 268q5 14 14.5 18t38.5 4q39 0 39 -19q0 -9 -11 -32l-158 -328v-209q0 -16 -8 -21.5t-34 -5.5zM232 755h-6l-48 -76q-8 -12 -16.5 -16t-29.5 -4q-32 0 -32 16
q0 7 11 25l59 98q7 11 14.5 15t27.5 4h34q20 0 27.5 -4t14.5 -15l59 -98q11 -18 11 -25q0 -16 -32 -16q-21 0 -29.5 4t-16.5 16z" />
    <glyph glyph-name="ycircumflex" unicode="&#x177;" horiz-adv-x="454" 
d="M25 469q0 12 8 17t34 5q25 0 33 -3.5t12 -16.5l111 -399h8l111 399q4 13 12 16.5t32 3.5q26 0 35 -5t9 -16q0 -16 -11 -50l-145 -466q-27 -86 -53 -116.5t-88 -30.5q-50 0 -81 11q-13 4 -18.5 11t-5.5 24q0 20 3.5 26.5t13.5 6.5q1 0 26.5 -3.5t52.5 -3.5q33 0 46.5 12
t24.5 50l16 59q-27 1 -39 11.5t-20 36.5l-112 357q-15 49 -15 64zM231 635h-6l-48 -76q-8 -12 -16.5 -16t-29.5 -4q-32 0 -32 16q0 7 11 25l59 98q7 11 14.5 15t27.5 4h34q20 0 27.5 -4t14.5 -15l59 -98q11 -18 11 -25q0 -16 -32 -16q-21 0 -29.5 4t-16.5 16z" />
    <glyph glyph-name="Ydieresis" unicode="&#x178;" horiz-adv-x="455" 
d="M227 0q-25 0 -33 5.5t-8 21.5v209l-158 328q-11 23 -11 32q0 19 38 19q29 0 39 -4t15 -18l116 -268h5l116 268q5 14 14.5 18t38.5 4q39 0 39 -19q0 -9 -11 -32l-158 -328v-209q0 -16 -8 -21.5t-34 -5.5zM155 691q-28 0 -36 5.5t-8 25.5v21q0 20 8.5 26t35.5 6t35.5 -6
t8.5 -26v-21q0 -20 -8 -25.5t-36 -5.5zM302 691q-28 0 -36.5 5.5t-8.5 25.5v21q0 20 8.5 26t36.5 6q27 0 35.5 -6t8.5 -26v-21q0 -20 -8 -25.5t-36 -5.5z" />
    <glyph glyph-name="Zacute" unicode="&#x179;" horiz-adv-x="408" 
d="M292 540h-229q-15 0 -20.5 7.5t-5.5 30.5q0 22 5.5 29.5t20.5 7.5h300q15 0 20 -7t5 -29q0 -25 -18 -57l-256 -447h250q15 0 20 -7.5t5 -30.5q0 -22 -5 -29.5t-20 -7.5h-321q-16 0 -21 7.5t-5 29.5q0 23 20 58zM190 659q-35 0 -35 16q0 6 10 26l47 90q6 11 9 15t13 7.5
t29 3.5q47 0 47 -16q0 -9 -14 -31l-57 -88q-6 -9 -10 -13t-13.5 -7t-25.5 -3z" />
    <glyph glyph-name="zacute" unicode="&#x17a;" horiz-adv-x="396" 
d="M366 36q0 -36 -22 -36h-293q-13 0 -18 7t-5 27q0 34 20 63l228 322h-205q-23 0 -23 36q0 20 5 28t18 8h273q13 0 17.5 -7t4.5 -26q0 -36 -17 -60l-231 -326h226q22 0 22 -36zM183 539q-35 0 -35 16q0 6 10 26l47 90q6 11 9 15t13 7.5t29 3.5q47 0 47 -16q0 -9 -14 -31
l-57 -88q-6 -9 -10 -13t-13.5 -7t-25.5 -3z" />
    <glyph glyph-name="Zdotaccent" unicode="&#x17b;" horiz-adv-x="408" 
d="M292 540h-229q-15 0 -20.5 7.5t-5.5 30.5q0 22 5.5 29.5t20.5 7.5h300q15 0 20 -7t5 -29q0 -25 -18 -57l-256 -447h250q15 0 20 -7.5t5 -30.5q0 -22 -5 -29.5t-20 -7.5h-321q-16 0 -21 7.5t-5 29.5q0 23 20 58zM211 691q-29 0 -37.5 5.5t-8.5 25.5v21q0 20 8.5 26t37.5 6
q30 0 38.5 -6t8.5 -26v-21q0 -20 -8.5 -25.5t-38.5 -5.5z" />
    <glyph glyph-name="zdotaccent" unicode="&#x17c;" horiz-adv-x="396" 
d="M366 36q0 -36 -22 -36h-293q-13 0 -18 7t-5 27q0 34 20 63l228 322h-205q-23 0 -23 36q0 20 5 28t18 8h273q13 0 17.5 -7t4.5 -26q0 -36 -17 -60l-231 -326h226q22 0 22 -36zM204 569q-29 0 -37.5 5.5t-8.5 25.5v21q0 20 8.5 26t37.5 6q30 0 38.5 -6t8.5 -26v-21
q0 -20 -8.5 -25.5t-38.5 -5.5z" />
    <glyph glyph-name="Zcaron" unicode="&#x17d;" horiz-adv-x="408" 
d="M292 540h-229q-15 0 -20.5 7.5t-5.5 30.5q0 22 5.5 29.5t20.5 7.5h300q15 0 20 -7t5 -29q0 -25 -18 -57l-256 -447h250q15 0 20 -7.5t5 -30.5q0 -22 -5 -29.5t-20 -7.5h-321q-16 0 -21 7.5t-5 29.5q0 23 20 58zM82 801q0 16 32 16q21 0 30 -3.5t17 -16.5l48 -76h5l48 76
q12 20 47 20q32 0 32 -16q0 -5 -11 -25l-59 -98q-7 -11 -15 -15t-28 -4h-33q-20 0 -28 4t-15 15l-59 98q-11 20 -11 25z" />
    <glyph glyph-name="zcaron" unicode="&#x17e;" horiz-adv-x="396" 
d="M366 36q0 -36 -22 -36h-293q-13 0 -18 7t-5 27q0 34 20 63l228 322h-205q-23 0 -23 36q0 20 5 28t18 8h273q13 0 17.5 -7t4.5 -26q0 -36 -17 -60l-231 -326h226q22 0 22 -36zM75 681q0 16 32 16q21 0 30 -3.5t17 -16.5l48 -76h5l48 76q8 12 17 16t30 4q32 0 32 -16
q0 -5 -11 -25l-59 -98q-7 -11 -15 -15t-28 -4h-33q-20 0 -28 4t-15 15l-59 98q-11 20 -11 25z" />
    <glyph glyph-name="florin" unicode="&#x192;" 
d="M116 393q0 19 4.5 26t17.5 7h63l9 74q8 67 31 93.5t80 26.5q34 0 68 -8q15 -4 20 -9.5t5 -23.5q0 -33 -17 -33q-3 0 -23 2.5t-37 2.5q-27 0 -34 -11t-13 -58l-7 -56h67q14 0 18.5 -7t4.5 -26t-4.5 -26t-18.5 -7h-74l-28 -249q-8 -67 -31.5 -94t-80.5 -27q-34 0 -66 9
q-15 4 -19.5 9.5t-4.5 22.5q0 33 16 33q3 0 22 -2.5t36 -2.5q27 0 34.5 11t12.5 58l27 232h-56q-13 0 -17.5 7t-4.5 26z" />
    <glyph glyph-name="AEacute" unicode="&#x1fc;" horiz-adv-x="723" 
d="M57 0q-23 0 -31.5 4t-8.5 15q0 10 5 26l159 534q7 24 20.5 30t56.5 6h400q15 0 20 -7t5 -30t-5 -30.5t-20 -7.5h-243v-179h187q16 0 21 -6.5t5 -29.5t-5 -30t-21 -7h-187v-213h253q15 0 20 -7.5t5 -30.5q0 -22 -5 -29.5t-20 -7.5h-305q-19 0 -25 5t-6 20v159h-183
l-46 -162q-4 -13 -12.5 -17.5t-33.5 -4.5zM252 543l-84 -293h164v293h-80zM387 659q-35 0 -35 16q0 6 10 26l47 90q6 11 9 15t13 7.5t29 3.5q47 0 47 -16q0 -9 -14 -31l-57 -88q-6 -9 -10 -13t-13.5 -7t-25.5 -3z" />
    <glyph glyph-name="aeacute" unicode="&#x1fd;" horiz-adv-x="745" 
d="M513 -10q-38 0 -61.5 3t-47.5 13.5t-38.5 33t-21.5 59.5q-20 -54 -66.5 -81.5t-106.5 -27.5q-67 0 -98 33t-31 108q0 77 40.5 109.5t140.5 32.5h108v77q0 51 -20 65.5t-74 14.5q-46 0 -97 -9.5t-53 -9.5q-16 0 -16 33q0 31 21 37q64 20 154 20q108 0 140 -43
q41 43 144 43q45 0 76 -10t49.5 -26.5t28.5 -47.5t13 -64t3 -85q0 -22 -7.5 -32t-28.5 -10h-251q1 -47 4.5 -76.5t10 -47.5t20.5 -26.5t29 -11t42 -2.5q43 0 79.5 5t56.5 10.5t24 5.5q14 0 14 -33q0 -19 -4.5 -26.5t-19.5 -12.5q-58 -21 -156 -21zM195 59q57 0 96.5 33
t39.5 90v36l-112 -3q-58 -1 -77.5 -16.5t-19.5 -59.5q0 -50 16 -65t57 -15zM523 431q-45 0 -66 -10t-31.5 -41t-12.5 -97h207q0 37 -1 55.5t-6 40t-15 30.5t-28.5 15.5t-46.5 6.5zM376 539q-35 0 -35 16q0 6 10 26l47 90q6 11 9 15t13 7.5t29 3.5q47 0 47 -16q0 -9 -14 -31
l-57 -88q-6 -9 -10 -13t-13.5 -7t-25.5 -3z" />
    <glyph glyph-name="Oslashacute" unicode="&#x1fe;" horiz-adv-x="524" 
d="M239 659q-35 0 -35 16q0 6 10 26l47 90q6 11 9 15t13 7.5t29 3.5q47 0 47 -16q0 -9 -14 -31l-57 -88q-6 -9 -10 -13t-13.5 -7t-25.5 -3zM262 -9q-49 0 -78.5 4.5t-58.5 20.5t-44 46.5t-24 83t-9 130.5v57q0 78 7 128.5t20.5 83t41.5 48.5t60 21.5t85 5.5t85 -5.5
t60 -21.5t41.5 -48.5t20.5 -83t7 -128.5v-57q0 -78 -9 -130.5t-23.5 -83t-43.5 -46.5t-59 -20.5t-79 -4.5zM131 330q0 -116 4 -153l241 325q-12 28 -37.5 37t-76.5 9q-61 0 -86 -14.5t-35 -58t-10 -145.5zM262 63q58 0 83.5 14.5t37 59.5t11.5 144q0 103 -3 142l-235 -320
q14 -24 38 -32t68 -8z" />
    <glyph glyph-name="oslashacute" unicode="&#x1ff;" horiz-adv-x="497" 
d="M227 539q-35 0 -35 16q0 6 10 26l47 90q6 11 9 15t13 7.5t29 3.5q47 0 47 -16q0 -9 -14 -31l-57 -88q-6 -9 -10 -13t-13.5 -7t-25.5 -3zM241 -10q-58 0 -92 9.5t-57 37.5t-31.5 76t-8.5 128q0 151 45.5 205.5t159.5 54.5q76 0 114.5 -19t56 -72t17.5 -159
q0 -151 -45 -206t-159 -55zM243 61q73 0 95.5 35t22.5 146q0 67 -4 102l-200 -254q20 -29 86 -29zM136 251q0 -75 3 -102l199 255q-19 27 -84 27q-73 0 -95.5 -34.5t-22.5 -145.5z" />
    <glyph glyph-name="Scommaaccent" unicode="&#x218;" horiz-adv-x="459" 
d="M217 -9q-81 0 -148 19q-14 4 -20 12.5t-6 28.5q0 21 3.5 27t13.5 6q2 0 50 -9t93 -9q70 0 100.5 22t30.5 74q0 40 -10.5 59.5t-39.5 32.5l-129 58q-56 25 -77 55.5t-21 94.5q0 50 13 83t38.5 48.5t52 21t64.5 5.5q87 0 152 -19q23 -6 23 -40q0 -20 -4 -27t-13 -7
q-4 0 -24 4.5t-51.5 9.5t-63.5 5q-63 0 -84 -15t-21 -70q0 -34 11.5 -49.5t43.5 -29.5l129 -58q53 -24 72.5 -58t19.5 -98q0 -177 -198 -177zM215 -230q-27 0 -27 16q0 4 5.5 49t5.5 86q0 21 8 27.5t35 6.5q25 0 33.5 -5.5t8.5 -21.5q0 -46 -9 -74l-20 -63
q-6 -12 -13.5 -16.5t-26.5 -4.5z" />
    <glyph glyph-name="scommaaccent" unicode="&#x219;" horiz-adv-x="429" 
d="M199 -10q-73 0 -130 18q-14 5 -19 12t-5 26q0 34 13 34q2 0 48 -9t86 -9q59 0 84 19t25 60q0 22 -9 34t-29 21l-135 57q-70 30 -70 118q0 130 156 130q69 0 134 -17q15 -4 19.5 -11.5t4.5 -28.5q0 -32 -16 -32l-47 10q-47 9 -84 9q-47 0 -65 -14t-18 -46q0 -24 7.5 -37
t30.5 -22l131 -54q40 -16 56.5 -42.5t16.5 -70.5q0 -155 -185 -155zM193 -230q-27 0 -27 16q0 4 5.5 49t5.5 86q0 21 8 27.5t35 6.5q25 0 33.5 -5.5t8.5 -21.5q0 -46 -9 -74l-20 -63q-6 -12 -13.5 -16.5t-26.5 -4.5z" />
    <glyph glyph-name="dotlessj" unicode="&#x237;" horiz-adv-x="208" 
d="M102 491q25 0 33 -4.5t8 -21.5v-534q0 -66 -24.5 -95t-80.5 -29q-34 0 -68 10q-15 4 -20.5 10.5t-5.5 24.5q0 20 3.5 26t12.5 6q4 0 23.5 -2.5t33.5 -2.5q28 0 36 12t8 57v517q0 17 8 21.5t33 4.5z" />
    <glyph glyph-name="circumflex" unicode="&#x2c6;" horiz-adv-x="311" 
d="M166 635h-6l-48 -76q-8 -12 -16.5 -16t-29.5 -4q-32 0 -32 16q0 7 11 25l59 98q7 11 14.5 15t27.5 4h34q20 0 27.5 -4t14.5 -15l59 -98q11 -18 11 -25q0 -16 -32 -16q-21 0 -29.5 4t-16.5 16z" />
    <glyph glyph-name="caron" unicode="&#x2c7;" horiz-adv-x="311" 
d="M26 681q0 16 32 16q21 0 30 -3.5t17 -16.5l48 -76h5l48 76q12 20 47 20q32 0 32 -16q0 -5 -11 -25l-59 -98q-7 -11 -15 -15t-28 -4h-33q-20 0 -28 4t-15 15l-59 98q-11 20 -11 25z" />
    <glyph glyph-name="breve" unicode="&#x2d8;" horiz-adv-x="269" 
d="M134 554q-64 0 -85.5 20.5t-21.5 73.5q0 17 5.5 21.5t26.5 4.5q20 0 25.5 -4t6.5 -19q1 -22 7.5 -28.5t35.5 -6.5t36 6.5t8 28.5q1 15 6 19t26 4q20 0 25.5 -4.5t5.5 -21.5q0 -53 -21 -73.5t-86 -20.5z" />
    <glyph glyph-name="dotaccent" unicode="&#x2d9;" horiz-adv-x="147" 
d="M72 569q-29 0 -37.5 5.5t-8.5 25.5v21q0 20 8.5 26t37.5 6q30 0 38.5 -6t8.5 -26v-21q0 -20 -8.5 -25.5t-38.5 -5.5z" />
    <glyph glyph-name="ring" unicode="&#x2da;" horiz-adv-x="267" 
d="M133 608q30 0 37.5 7t7.5 29t-8 29t-37 7q-28 0 -35.5 -7t-7.5 -29t7 -29t36 -7zM133 553q-63 0 -84.5 20t-21.5 71t21.5 71t84.5 20q64 0 85.5 -20t21.5 -71t-21.5 -71t-85.5 -20z" />
    <glyph glyph-name="ogonek" unicode="&#x2db;" horiz-adv-x="199" 
d="M97 -193q-36 0 -53 16.5t-17 54.5q0 40 23.5 73t89.5 99h32q0 -21 -6 -35t-26 -43q-35 -50 -35 -74q0 -14 4 -18.5t15 -4.5q9 0 18 1.5t13 1.5q9 0 13 -6t4 -24q0 -17 -5.5 -23.5t-20.5 -10.5q-26 -7 -49 -7z" />
    <glyph glyph-name="tilde" unicode="&#x2dc;" horiz-adv-x="317" 
d="M27 594q0 17 5 24.5t19 16.5q27 18 59 18q22 0 55 -10.5t48 -10.5q20 0 41 9.5t23 9.5q8 0 10.5 -5.5t2.5 -23.5q0 -17 -5 -25t-19 -17q-31 -17 -60 -17q-22 0 -54 10t-48 10q-20 0 -41 -9t-23 -9q-8 0 -10.5 5.5t-2.5 23.5z" />
    <glyph glyph-name="hungarumlaut" unicode="&#x2dd;" horiz-adv-x="332" 
d="M27 555q0 8 47 124q3 10 12 14t35 4q25 0 34 -2.5t9 -13.5q0 -13 -60 -122q-6 -12 -14 -16t-32 -4q-31 0 -31 16zM152 555q0 9 62 124q5 10 14 14t34 4q24 0 33.5 -3t9.5 -13q0 -13 -76 -122q-5 -8 -8.5 -11.5t-12.5 -6t-25 -2.5q-31 0 -31 16z" />
    <glyph glyph-name="afii10023" unicode="&#x401;" horiz-adv-x="455" 
d="M425 37q0 -22 -5 -29.5t-20 -7.5h-308q-18 0 -24 5t-6 20v565q0 15 6 20t24 5h298q15 0 20 -7t5 -30t-5 -30.5t-20 -7.5h-246v-179h191q15 0 20 -6.5t5 -29.5t-5 -30t-20 -7h-191v-213h256q15 0 20 -7.5t5 -30.5zM158 693q-28 0 -36 5.5t-8 25.5v21q0 20 8.5 26t35.5 6
t35.5 -6t8.5 -26v-21q0 -20 -8 -25.5t-36 -5.5zM305 693q-28 0 -36.5 5.5t-8.5 25.5v21q0 20 8.5 26t36.5 6q27 0 35.5 -6t8.5 -26v-21q0 -20 -8 -25.5t-36 -5.5z" />
    <glyph glyph-name="afii10051" unicode="&#x402;" horiz-adv-x="579" 
d="M204 0q-25 0 -33 5t-8 22v513h-128q-15 0 -20 7.5t-5 30.5t5 30t20 7h341q15 0 20 -7t5 -30t-5 -30.5t-20 -7.5h-130v-151q36 74 141 74q75 0 102.5 -31t27.5 -100v-219q0 -63 -23.5 -90.5t-76.5 -27.5q-35 0 -61 8q-15 4 -21 11t-6 25q0 21 3.5 27t13.5 6q2 0 19 -2.5
t31 -2.5q25 0 32 11.5t7 56.5v178q0 45 -16 61.5t-65 16.5q-56 0 -82 -37t-26 -119v-208q0 -17 -8.5 -22t-33.5 -5z" />
    <glyph glyph-name="afii10052" unicode="&#x403;" horiz-adv-x="403" 
d="M185 674q-35 0 -35 16q0 6 10 26l47 90q6 11 9 15t13 7.5t29 3.5q47 0 47 -16q0 -9 -14 -31l-57 -88q-6 -9 -10 -13t-13.5 -7t-25.5 -3zM103 0q-25 0 -33 5.5t-8 21.5v563q0 15 6 20t24 5h268q15 0 20 -7t5 -30t-5 -30.5t-20 -7.5h-216v-513q0 -16 -8 -21.5t-33 -5.5z
" />
    <glyph glyph-name="afii10053" unicode="&#x404;" horiz-adv-x="451" 
d="M360 320q0 -22 -5 -28.5t-20 -6.5h-207q0 -63 5 -103t12.5 -64t25.5 -35.5t36 -14.5t52 -3q35 0 67 4t51.5 8t23.5 4q9 0 12.5 -6.5t3.5 -26.5t-5.5 -28t-18.5 -11q-70 -18 -145 -18q-40 0 -64.5 3.5t-53.5 18.5t-44.5 43.5t-26.5 80.5t-11 127v76q0 76 10 128.5
t25.5 82.5t44.5 45.5t56 19.5t71 4q73 0 138 -17q14 -3 19 -10t5 -27q0 -34 -16 -34q-4 0 -22 4t-47 7.5t-58 3.5q-38 0 -59 -3t-40.5 -13t-28 -32t-13 -55.5t-5.5 -88.5h207q15 0 20 -6.5t5 -28.5z" />
    <glyph glyph-name="afii10054" unicode="&#x405;" horiz-adv-x="459" 
d="M217 -9q-81 0 -148 19q-14 4 -20 12.5t-6 28.5q0 21 3.5 27t13.5 6q2 0 50 -9t93 -9q70 0 100.5 22t30.5 74q0 40 -10.5 59.5t-39.5 32.5l-129 58q-56 25 -77 55.5t-21 94.5q0 50 13 83t38.5 48.5t52 21t64.5 5.5q87 0 152 -19q23 -6 23 -40q0 -20 -4 -27t-13 -7
q-4 0 -24 4.5t-51.5 9.5t-63.5 5q-63 0 -84 -15t-21 -70q0 -34 11.5 -49.5t43.5 -29.5l129 -58q53 -24 72.5 -58t19.5 -98q0 -177 -198 -177z" />
    <glyph glyph-name="afii10055" unicode="&#x406;" horiz-adv-x="206" 
d="M103 0q-25 0 -33 5.5t-8 21.5v562q0 16 8 21t33 5t33 -5t8 -21v-562q0 -16 -8 -21.5t-33 -5.5z" />
    <glyph glyph-name="afii10056" unicode="&#x407;" horiz-adv-x="206" 
d="M103 0q-25 0 -33 5.5t-8 21.5v562q0 16 8 21t33 5t33 -5t8 -21v-562q0 -16 -8 -21.5t-33 -5.5zM30 689q-28 0 -36 5.5t-8 25.5v21q0 20 8.5 26t35.5 6t35.5 -6t8.5 -26v-21q0 -20 -8 -25.5t-36 -5.5zM177 689q-28 0 -36.5 5.5t-8.5 25.5v21q0 20 8.5 26t36.5 6
q27 0 35.5 -6t8.5 -26v-21q0 -20 -8 -25.5t-36 -5.5z" />
    <glyph glyph-name="afii10057" unicode="&#x408;" horiz-adv-x="335" 
d="M129 -9q-54 0 -95 13q-14 4 -19.5 11.5t-5.5 27.5q0 21 3 26t13 5q4 0 33.5 -4.5t52.5 -4.5q47 0 63.5 18t16.5 72v434q0 16 8 21t33 5t33 -5t8 -21v-439q0 -84 -35.5 -121.5t-108.5 -37.5z" />
    <glyph glyph-name="afii10058" unicode="&#x409;" horiz-adv-x="846" 
d="M90 -9q-28 0 -55 6q-14 3 -19.5 11t-5.5 28q0 19 3.5 24.5t12.5 5.5q6 0 18.5 -1.5t21.5 -1.5q18 0 24.5 8.5t9.5 39.5l49 480q2 15 7.5 19.5t23.5 4.5h273q19 0 25 -5t6 -20v-237q67 9 148 9q102 0 135 -41t33 -146q0 -106 -41 -145t-164 -39q-91 0 -160 8
q-21 2 -27.5 9t-6.5 23v509h-177l-49 -462q-5 -45 -23 -66t-62 -21zM599 293q-37 0 -115 -5v-222q34 -5 114 -5q78 0 97.5 20.5t19.5 95.5q0 74 -22 95t-94 21z" />
    <glyph glyph-name="afii10059" unicode="&#x40a;" horiz-adv-x="819" 
d="M103 0q-25 0 -33 5.5t-8 21.5v562q0 16 8 21t33 5t33 -5t8 -21v-234h231v234q0 16 8 21t33 5t33 -5t8 -21v-236q81 9 149 9q101 0 134.5 -41.5t33.5 -145.5q0 -106 -41 -145t-164 -39q-90 0 -161 8q-20 2 -26.5 9t-6.5 23v251h-231v-255q0 -16 -8 -21.5t-33 -5.5z
M572 293q-35 0 -115 -5v-222q35 -5 115 -5q77 0 96.5 20.5t19.5 95.5q0 74 -21.5 95t-94.5 21z" />
    <glyph glyph-name="afii10060" unicode="&#x40b;" horiz-adv-x="579" 
d="M204 0q-25 0 -33 5t-8 22v513h-128q-15 0 -20 7.5t-5 30.5t5 30t20 7h341q15 0 20 -7t5 -30t-5 -30.5t-20 -7.5h-130v-151q36 74 141 74q75 0 102.5 -31t27.5 -100v-305q0 -17 -8 -22t-33 -5t-33 5t-8 22v286q0 45 -16 61.5t-65 16.5q-56 0 -82 -37t-26 -119v-208
q0 -17 -8.5 -22t-33.5 -5z" />
    <glyph glyph-name="afii10061" unicode="&#x40c;" horiz-adv-x="458" 
d="M103 0q-25 0 -33 5.5t-8 21.5v562q0 16 8 21t33 5t33 -5t8 -21v-246h14l180 253q8 12 17.5 15.5t36.5 3.5q40 0 40 -17q0 -11 -13 -29l-190 -255l200 -263q14 -19 14 -32q0 -10 -8 -14.5t-33 -4.5q-38 0 -52 19l-193 267h-13v-259q0 -16 -8 -21.5t-33 -5.5zM200 674
q-35 0 -35 16q0 6 10 26l47 90q6 11 9 15t13 7.5t29 3.5q47 0 47 -16q0 -9 -14 -31l-57 -88q-6 -9 -10 -13t-13.5 -7t-25.5 -3z" />
    <glyph glyph-name="afii10062" unicode="&#x40e;" horiz-adv-x="475" 
d="M238 689q-64 0 -85.5 20.5t-21.5 73.5q0 17 5.5 21.5t26.5 4.5q20 0 25.5 -4t6.5 -19q1 -22 7.5 -28.5t35.5 -6.5t36 6.5t8 28.5q1 15 6 19t26 4q20 0 25.5 -4.5t5.5 -21.5q0 -53 -21 -73.5t-86 -20.5zM17 598q0 17 41 17q25 0 33.5 -4t12.5 -16l131 -369h13l121 367
q4 15 12.5 18.5t35.5 3.5q41 0 41 -17q0 -9 -12 -42l-172 -466q-17 -48 -44.5 -71.5t-80.5 -23.5q-52 0 -83 8q-14 3 -20 11t-6 27q0 21 3.5 26.5t13.5 5.5q4 0 31 -3.5t48 -3.5q36 0 52 13t29 53l8 26h-7q-36 0 -48 32l-142 369q-11 28 -11 39z" />
    <glyph glyph-name="afii10145" unicode="&#x40f;" horiz-adv-x="517" 
d="M258 -109q-20 0 -24.5 3.5t-5.5 18.5l-4 87h-132q-18 0 -24 5t-6 20v564q0 16 8 21t33 5t33 -5t8 -21v-514h228v514q0 16 8.5 21t33.5 5t33 -5t8 -21v-564q0 -15 -6 -20t-25 -5h-131l-5 -87q-1 -15 -5.5 -18.5t-24.5 -3.5z" />
    <glyph glyph-name="afii10017" unicode="&#x410;" horiz-adv-x="517" 
d="M57 0q-23 0 -31.5 4t-8.5 15q0 10 5 26l159 534q7 24 20.5 30t56.5 6q44 0 57.5 -6t20.5 -30l158 -534q5 -16 5 -26t-8 -14.5t-31 -4.5q-26 0 -34.5 4.5t-12.5 17.5l-48 162h-216l-46 -162q-4 -13 -12.5 -17.5t-33.5 -4.5zM252 543l-84 -293h180l-83 293h-13z" />
    <glyph glyph-name="afii10018" unicode="&#x411;" horiz-adv-x="511" 
d="M257 -9q-91 0 -162 8q-20 2 -26.5 9t-6.5 23v559q0 15 6 20t24 5h307q15 0 20 -7t5 -30t-5 -30.5t-20 -7.5h-255v-190q71 9 152 9q102 0 135 -41t33 -145q0 -105 -41.5 -143.5t-165.5 -38.5zM262 290q-38 0 -118 -5v-219q35 -5 116 -5q79 0 98.5 19.5t19.5 94.5
q0 74 -21 94.5t-95 20.5z" />
    <glyph glyph-name="afii10019" unicode="&#x412;" horiz-adv-x="512" 
d="M257 -9q-91 0 -162 8q-20 2 -26.5 9t-6.5 23v548q0 29 29 33q63 8 144 8q48 0 76.5 -2t57 -10.5t42 -24.5t22.5 -43.5t9 -69.5q0 -62 -16 -96t-56 -48q51 -12 72.5 -49t21.5 -111q0 -100 -42 -137.5t-165 -37.5zM144 544v-189h97q73 0 94 19t21 88q0 58 -18.5 72.5
t-94.5 14.5q-57 0 -99 -5zM144 290v-224q35 -5 116 -5q79 0 98.5 19.5t19.5 94.5q0 71 -22 93t-94 22h-118z" />
    <glyph glyph-name="afii10020" unicode="&#x413;" horiz-adv-x="403" 
d="M103 0q-25 0 -33 5.5t-8 21.5v563q0 15 6 20t24 5h268q15 0 20 -7t5 -30t-5 -30.5t-20 -7.5h-216v-513q0 -16 -8 -21.5t-33 -5.5z" />
    <glyph glyph-name="afii10021" unicode="&#x414;" horiz-adv-x="529" 
d="M48 -109q-19 0 -25 3.5t-6 16.5v134q0 19 6.5 24.5t24.5 5.5h19l52 516q2 15 7.5 19.5t23.5 4.5h278q19 0 24.5 -5t5.5 -20v-515h23q18 0 24.5 -5.5t6.5 -24.5v-134q0 -13 -6 -16.5t-25 -3.5q-20 0 -27 3.5t-9 16.5l-14 89h-333l-14 -89q-2 -13 -9 -16.5t-27 -3.5z
M193 540l-47 -465h230v465h-183z" />
    <glyph glyph-name="afii10022" unicode="&#x415;" horiz-adv-x="455" 
d="M425 37q0 -22 -5 -29.5t-20 -7.5h-308q-18 0 -24 5t-6 20v565q0 15 6 20t24 5h298q15 0 20 -7t5 -30t-5 -30.5t-20 -7.5h-246v-179h191q15 0 20 -6.5t5 -29.5t-5 -30t-20 -7h-191v-213h256q15 0 20 -7.5t5 -30.5z" />
    <glyph glyph-name="afii10024" unicode="&#x416;" horiz-adv-x="680" 
d="M56 0q-41 0 -41 19q0 12 15 32l184 263l-175 255q-12 17 -12 29q0 17 39 17q27 0 36.5 -3.5t17.5 -15.5l166 -253h12v246q0 16 8 21t33 5t33 -5t8 -21v-246h14l165 253q8 12 17.5 15.5t36.5 3.5q40 0 40 -17q0 -12 -12 -29l-176 -255l185 -263q15 -20 15 -32
q0 -19 -42 -19q-38 0 -51 19l-179 267h-13v-259q0 -17 -8 -22t-33 -5t-33 5.5t-8 21.5v259h-11l-179 -267q-13 -19 -52 -19z" />
    <glyph glyph-name="afii10025" unicode="&#x417;" horiz-adv-x="445" 
d="M92 314q0 21 5 28t21 7h51q77 0 102.5 26t25.5 81q0 56 -18 73.5t-77 17.5q-44 0 -91 -6.5t-48 -6.5q-10 0 -14 6.5t-4 26.5q0 21 4.5 27.5t19.5 10.5q59 15 157 15q79 0 117 -33t38 -125q0 -61 -27.5 -98t-78.5 -47q65 -5 91.5 -41t26.5 -107q0 -93 -43.5 -135.5
t-133.5 -42.5q-95 0 -163 17q-14 3 -20 11t-6 28q0 21 3.5 27.5t13.5 6.5q2 0 57.5 -8t98.5 -8q66 0 87.5 25t21.5 82q0 56 -26.5 81.5t-113.5 25.5h-51q-16 0 -21 7t-5 28z" />
    <glyph glyph-name="afii10026" unicode="&#x418;" horiz-adv-x="543" 
d="M440 0q-25 0 -33 5t-8 22v462h-10l-213 -463q-8 -17 -18 -21.5t-39 -4.5q-37 0 -47 5t-10 22v562q0 16 8 21t33 5t33 -5t8 -21v-462h10l211 462q8 17 18 21.5t40 4.5q37 0 47.5 -5t10.5 -21v-562q0 -16 -8 -21.5t-33 -5.5z" />
    <glyph glyph-name="afii10027" unicode="&#x419;" horiz-adv-x="543" 
d="M274 689q-64 0 -85.5 20.5t-21.5 73.5q0 17 5.5 21.5t26.5 4.5q20 0 25.5 -4t6.5 -19q1 -22 7.5 -28.5t35.5 -6.5t36 6.5t8 28.5q1 15 6 19t26 4q20 0 25.5 -4.5t5.5 -21.5q0 -53 -21 -73.5t-86 -20.5zM440 0q-25 0 -33 5t-8 22v462h-10l-213 -463q-8 -17 -18 -21.5
t-39 -4.5q-37 0 -47 5t-10 22v562q0 16 8 21t33 5t33 -5t8 -21v-462h10l211 462q8 17 18 21.5t40 4.5q37 0 47.5 -5t10.5 -21v-562q0 -16 -8 -21.5t-33 -5.5z" />
    <glyph glyph-name="afii10028" unicode="&#x41a;" horiz-adv-x="458" 
d="M103 0q-25 0 -33 5.5t-8 21.5v562q0 16 8 21t33 5t33 -5t8 -21v-246h14l180 253q8 12 17.5 15.5t36.5 3.5q40 0 40 -17q0 -11 -13 -29l-190 -255l200 -263q14 -19 14 -32q0 -10 -8 -14.5t-33 -4.5q-38 0 -52 19l-193 267h-13v-259q0 -16 -8 -21.5t-33 -5.5z" />
    <glyph glyph-name="afii10029" unicode="&#x41b;" horiz-adv-x="556" 
d="M453 0q-26 0 -34 5.5t-8 21.5v513h-180l-49 -462q-5 -45 -22.5 -66t-62.5 -21q-29 0 -54 6q-14 3 -20 11t-6 28q0 19 3.5 24.5t13.5 5.5q5 0 17.5 -1.5t21.5 -1.5q18 0 24.5 8.5t9.5 39.5l49 480q2 15 7.5 19.5t23.5 4.5h276q19 0 25 -5t6 -20v-563q0 -16 -8 -21.5
t-33 -5.5z" />
    <glyph glyph-name="afii10030" unicode="&#x41c;" horiz-adv-x="632" 
d="M103 0q-25 0 -33 5.5t-8 21.5v558q0 18 11 24t51 6q37 0 50.5 -6t22.5 -29l116 -316h6l116 316q9 23 23 29t51 6q39 0 50 -6t11 -24v-558q0 -16 -8 -21.5t-33 -5.5t-33 5.5t-8 21.5q0 322 1 477h-7l-117 -313q-7 -19 -16.5 -24.5t-32.5 -5.5t-32.5 5.5t-16.5 24.5
l-116 313h-8q1 -155 1 -477q0 -16 -8 -21.5t-33 -5.5z" />
    <glyph glyph-name="afii10031" unicode="&#x41d;" horiz-adv-x="519" 
d="M144 355h231v234q0 16 8 21t33 5t33 -5t8 -21v-562q0 -17 -8 -22t-33 -5t-33 5.5t-8 21.5v255h-231v-255q0 -16 -8 -21.5t-33 -5.5t-33 5.5t-8 21.5v562q0 16 8 21t33 5t33 -5t8 -21v-234z" />
    <glyph glyph-name="afii10032" unicode="&#x41e;" horiz-adv-x="524" 
d="M262 63q58 0 83.5 14.5t37 59.5t11.5 144v49q0 102 -10 145.5t-35.5 58t-86.5 14.5q-58 0 -83 -14t-36.5 -59t-11.5 -145v-49q0 -62 3 -98t10 -62.5t23 -37.5t37 -15.5t58 -4.5zM262 -9q-53 0 -84.5 5.5t-59.5 21.5t-41.5 48t-21 82.5t-7.5 127.5v57q0 66 5 113t18 79
t28 51t42 28.5t53 12.5t68 3q53 0 85 -5.5t60 -21.5t41.5 -48.5t20.5 -83t7 -128.5v-57q0 -78 -9 -130.5t-23.5 -83t-43.5 -46.5t-59 -20.5t-79 -4.5z" />
    <glyph glyph-name="afii10033" unicode="&#x41f;" horiz-adv-x="517" 
d="M103 0q-25 0 -33 5.5t-8 21.5v563q0 15 6 20t24 5h332q19 0 25 -5t6 -20v-563q0 -16 -8 -21.5t-33 -5.5q-26 0 -34 5.5t-8 21.5v513h-228v-513q0 -16 -8 -21.5t-33 -5.5z" />
    <glyph glyph-name="afii10034" unicode="&#x420;" horiz-adv-x="483" 
d="M103 0q-25 0 -33 5.5t-8 21.5v552q0 29 29 32q66 9 156 9q59 0 93 -6t60.5 -24.5t36.5 -53.5t10 -94q0 -114 -48.5 -160t-168.5 -46h-86v-209q0 -16 -8 -21.5t-33 -5.5zM144 544v-239h88q77 0 103 27.5t26 106.5q0 69 -23 89.5t-98 20.5q-38 0 -96 -5z" />
    <glyph glyph-name="afii10035" unicode="&#x421;" horiz-adv-x="451" 
d="M256 -9q-31 0 -51.5 1.5t-44.5 7.5t-39.5 17.5t-30.5 31.5t-23.5 48.5t-13.5 70.5t-5 96v76q0 64 6 111t19.5 77.5t29 49t42 27.5t51 12t62.5 3q70 0 135 -19q14 -3 19 -10t5 -29q0 -33 -16 -33q-4 0 -22 4.5t-47 9t-58 4.5q-62 0 -89 -12t-40.5 -57.5t-13.5 -146.5v-50
q0 -51 3 -86.5t11 -60t17 -38t27.5 -20.5t36 -9t48.5 -2t59.5 4.5t46 9t21.5 4.5q9 0 12.5 -6.5t3.5 -26.5q0 -21 -5.5 -28.5t-18.5 -11.5q-71 -19 -137 -19z" />
    <glyph glyph-name="afii10036" unicode="&#x422;" horiz-adv-x="429" 
d="M214 0q-25 0 -33 5.5t-8 21.5v513h-138q-15 0 -20 7.5t-5 30.5t5 30t20 7h358q15 0 20.5 -7.5t5.5 -29.5q0 -23 -5.5 -30.5t-20.5 -7.5h-137v-513q0 -16 -8 -21.5t-34 -5.5z" />
    <glyph glyph-name="afii10037" unicode="&#x423;" horiz-adv-x="475" 
d="M17 598q0 17 41 17q25 0 33.5 -4t12.5 -16l131 -369h13l121 367q4 15 12.5 18.5t35.5 3.5q41 0 41 -17q0 -9 -12 -42l-172 -466q-17 -48 -44.5 -71.5t-80.5 -23.5q-52 0 -83 8q-14 3 -20 11t-6 27q0 21 3.5 26.5t13.5 5.5q4 0 31 -3.5t48 -3.5q36 0 52 13t29 53l8 26h-7
q-36 0 -48 32l-142 369q-11 28 -11 39z" />
    <glyph glyph-name="afii10038" unicode="&#x424;" horiz-adv-x="618" 
d="M27 331q0 61 13 100t41.5 58.5t62 26t86.5 6.5h41v69q0 17 8 22t33 5t33 -5.5t8 -21.5v-69h41q53 0 86 -6.5t61.5 -26t41.5 -58t13 -100.5q0 -118 -46.5 -166t-155.5 -48h-41v-93q0 -16 -8 -21.5t-33 -5.5t-33 5t-8 22v93h-41q-109 0 -156 48t-47 166zM111 331
q0 -91 23.5 -117.5t95.5 -26.5h41v265h-41q-72 0 -95.5 -22t-23.5 -99zM394 452h-41v-265h41q71 0 95 27t24 117q0 76 -24 98.5t-95 22.5z" />
    <glyph glyph-name="afii10039" unicode="&#x425;" horiz-adv-x="482" 
d="M63 0q-41 0 -41 20q0 11 12 30l162 266l-152 248q-12 22 -12 31q0 20 42 20q25 0 35 -4t17 -18l113 -198h4l112 198q7 14 17.5 18t35.5 4q41 0 41 -20q0 -11 -12 -30l-153 -248l164 -266q12 -20 12 -31q0 -20 -41 -20q-25 0 -35 4t-17 18l-125 219h-4l-123 -219
q-7 -14 -17 -18t-35 -4z" />
    <glyph glyph-name="afii10040" unicode="&#x426;" horiz-adv-x="533" 
d="M484 -109q-21 0 -28 3.5t-9 16.5l-13 89h-342q-18 0 -24 5t-6 20v564q0 16 8 21t33 5t33 -5t8 -21v-514h228v514q0 16 8.5 21t33.5 5t33 -5t8 -21v-514h25q21 0 28.5 -5.5t7.5 -24.5v-134q0 -13 -6.5 -16.5t-25.5 -3.5z" />
    <glyph glyph-name="afii10041" unicode="&#x427;" horiz-adv-x="481" 
d="M206 245q-93 0 -128.5 29t-35.5 121v194q0 16 8 21t33 5t33 -5t8 -21v-182q0 -58 18.5 -73t80.5 -15q57 0 114 6v264q0 16 8 21t33 5t33 -5t8 -21v-562q0 -17 -8 -22t-33 -5t-33 5.5t-8 21.5v229q-72 -11 -131 -11z" />
    <glyph glyph-name="afii10042" unicode="&#x428;" horiz-adv-x="800" 
d="M103 615q25 0 33 -5t8 -21v-514h215v514q0 16 8 21t33 5t33 -5t8 -21v-514h214v514q0 16 8.5 21t33.5 5t33 -5t8 -21v-564q0 -15 -6 -20t-25 -5h-615q-18 0 -24 5t-6 20v564q0 16 8 21t33 5z" />
    <glyph glyph-name="afii10043" unicode="&#x429;" horiz-adv-x="816" 
d="M717 0h-625q-18 0 -24 5t-6 20v564q0 16 8 21t33 5t33 -5t8 -21v-514h215v514q0 16 8 21t33 5t33 -5t8 -21v-514h214v514q0 16 8.5 21t33.5 5t33 -5t8 -21v-514h25q21 0 28.5 -5.5t7.5 -24.5v-134q0 -13 -6 -16.5t-26 -3.5q-21 0 -28 3.5t-9 16.5z" />
    <glyph glyph-name="afii10044" unicode="&#x42a;" horiz-adv-x="545" 
d="M299 -9q-92 0 -161 8q-21 2 -27.5 9t-6.5 23v509h-69q-15 0 -20 7.5t-5 30.5t5 30t20 7h111q25 0 33 -5t8 -21v-236q68 9 149 9q101 0 134 -41t33 -146q0 -106 -40.5 -145t-163.5 -39zM302 293q-37 0 -115 -5v-222q34 -5 114 -5q78 0 97.5 20.5t19.5 95.5q0 74 -21.5 95
t-94.5 21z" />
    <glyph glyph-name="afii10045" unicode="&#x42b;" horiz-adv-x="706" 
d="M610 0q-25 0 -33 5.5t-8 21.5v562q0 16 8 21t33 5t33 -5t8 -21v-562q0 -16 -8 -21.5t-33 -5.5zM103 615q25 0 33 -5t8 -21v-236q81 9 149 9q101 0 134.5 -41.5t33.5 -145.5q0 -106 -41 -145t-164 -39q-90 0 -161 8q-20 2 -26.5 9t-6.5 23v558q0 16 8 21t33 5zM259 293
q-35 0 -115 -5v-222q35 -5 115 -5q77 0 96.5 20.5t19.5 95.5q0 74 -21.5 95t-94.5 21z" />
    <glyph glyph-name="afii10046" unicode="&#x42c;" horiz-adv-x="503" 
d="M103 615q25 0 33 -5t8 -21v-236q81 9 149 9q101 0 134.5 -41.5t33.5 -145.5q0 -106 -41 -145t-164 -39q-90 0 -161 8q-20 2 -26.5 9t-6.5 23v558q0 16 8 21t33 5zM259 293q-35 0 -115 -5v-222q35 -5 115 -5q77 0 96.5 20.5t19.5 95.5q0 74 -21.5 95t-94.5 21z" />
    <glyph glyph-name="afii10047" unicode="&#x42d;" horiz-adv-x="454" 
d="M92 320q0 22 5 28.5t21 6.5h208q-1 55 -5.5 88.5t-13 55.5t-28 32t-40.5 13t-59 3q-29 0 -58 -3.5t-47 -7.5t-22 -4q-16 0 -16 34q0 20 5 27t19 10q65 17 138 17q44 0 71 -4t56 -19.5t44.5 -45.5t25.5 -82.5t10 -128.5v-76q0 -75 -11 -127t-26.5 -80.5t-44.5 -43.5
t-53.5 -18.5t-64.5 -3.5q-75 0 -145 18q-13 3 -18.5 11t-5.5 28t3.5 26.5t12.5 6.5q4 0 23.5 -4t51.5 -8t67 -4q34 0 52 3t36 14t25.5 35t12.5 63t5 101v4h-208q-16 0 -21 6.5t-5 28.5z" />
    <glyph glyph-name="afii10048" unicode="&#x42e;" horiz-adv-x="754" 
d="M492 -9q-49 0 -78.5 4.5t-58.5 20.5t-44 46.5t-24 83t-9 130.5v9h-134v-258q0 -16 -8 -21.5t-33 -5.5t-33 5.5t-8 21.5v562q0 16 8 21t33 5t33 -5t8 -21v-230h134q1 59 5.5 100.5t16.5 71t26.5 46.5t40.5 27t54 13t71 3q53 0 85 -5.5t60 -21.5t41.5 -48.5t20.5 -83
t7 -128.5v-57q0 -78 -9 -130.5t-24 -83t-44 -46.5t-58.5 -20.5t-78.5 -4.5zM492 63q58 0 83.5 14.5t37 59.5t11.5 144v49q0 102 -10 145.5t-35.5 58t-86.5 14.5t-86.5 -14.5t-35.5 -58t-10 -145.5v-49q0 -99 11.5 -144t37 -59.5t83.5 -14.5z" />
    <glyph glyph-name="afii10049" unicode="&#x42f;" horiz-adv-x="501" 
d="M399 0q-25 0 -33 5.5t-8 21.5v234h-85q-29 0 -43 1l-100 -241q-5 -13 -14.5 -17t-37.5 -4q-37 0 -37 18q0 7 10 29l106 228q-54 17 -78 59t-24 118q0 55 10 88.5t36.5 51t61 23t93.5 5.5q89 0 155 -9q29 -3 29 -32v-552q0 -16 -8 -21.5t-33 -5.5zM141 449q0 -75 26 -99.5
t103 -24.5h88v219q-63 5 -96 5q-75 0 -98 -19t-23 -81z" />
    <glyph glyph-name="afii10065" unicode="&#x430;" horiz-adv-x="486" 
d="M171 -10q-67 0 -98 33t-31 108q0 77 40.5 109.5t140.5 32.5h108v77q0 51 -20 65.5t-74 14.5q-46 0 -97 -9.5t-53 -9.5q-16 0 -16 33q0 31 21 37q64 20 154 20t128 -26.5t38 -108.5v-186q0 -42 6 -78t11.5 -57t5.5 -25q0 -10 -7.5 -15t-31.5 -5q-22 0 -28.5 4t-11.5 19
l-17 65q-22 -49 -66.5 -73.5t-101.5 -24.5zM195 59q57 0 96.5 33t39.5 90v36l-112 -3q-58 -1 -77.5 -16.5t-19.5 -59.5q0 -50 16 -65t57 -15z" />
    <glyph glyph-name="afii10066" unicode="&#x431;" horiz-adv-x="506" 
d="M263 -10q-120 0 -162 51.5t-42 194.5v216q0 124 46.5 168.5t154.5 44.5q83 0 155 -14q20 -3 20 -36q0 -32 -15 -32q-4 0 -55 5.5t-93 5.5q-73 0 -101 -22t-28 -100v-39q32 68 142 68q52 0 81.5 -9t51 -37.5t29 -78.5t7.5 -135q0 -105 -19.5 -159.5t-58 -73t-113.5 -18.5z
M263 61q71 0 89 33t18 157q0 83 -10 120t-32.5 48.5t-74.5 11.5q-63 0 -86.5 -34t-23.5 -139v-19q0 -110 23.5 -144t96.5 -34z" />
    <glyph glyph-name="afii10067" unicode="&#x432;" horiz-adv-x="485" 
d="M248 65q69 0 89 14.5t20 64.5q0 45 -26 62.5t-99 17.5h-88v-154q45 -5 104 -5zM246 -9q-76 0 -151 9q-20 2 -26.5 8.5t-6.5 22.5v428q0 29 29 33q63 8 159 8q102 0 141 -22.5t39 -95.5q0 -66 -24 -93t-79 -34q63 -9 89 -33.5t26 -90.5q0 -84 -44 -112t-152 -28zM241 427
q-55 0 -97 -5v-138h90q63 0 87 16.5t24 60.5q0 43 -20.5 54.5t-83.5 11.5z" />
    <glyph glyph-name="afii10068" unicode="&#x433;" horiz-adv-x="341" 
d="M103 0q-25 0 -33 5.5t-8 21.5v439q0 15 6 20t24 5h213q15 0 20.5 -7.5t5.5 -29.5q0 -23 -5.5 -30.5t-20.5 -7.5h-161v-389q0 -16 -8 -21.5t-33 -5.5z" />
    <glyph glyph-name="afii10069" unicode="&#x434;" horiz-adv-x="501" 
d="M47 -109q-19 0 -25 3.5t-6 16.5v127q0 23 5 30t20 7h26l45 390q2 16 9.5 21t31.5 5h228q25 0 33 -5t8 -21v-390h25q18 0 24 -5.5t6 -24.5v-134q0 -13 -5.5 -16.5t-24.5 -3.5q-21 0 -28 3.5t-9 16.5l-13 89h-300l-14 -89q-2 -13 -9 -16.5t-27 -3.5zM185 418l-39 -343h193
v343h-154z" />
    <glyph glyph-name="afii10070" unicode="&#x435;" horiz-adv-x="468" 
d="M253 -10q-59 0 -93 8t-60.5 34.5t-37 76t-10.5 132.5q0 70 9.5 118.5t24.5 76t42 42.5t53 19t67 4q58 0 93.5 -13t53 -45.5t23 -70.5t5.5 -104q0 -22 -7.5 -32t-28.5 -10h-251q1 -106 22.5 -135t102.5 -29q34 0 66 5t51.5 10.5t23.5 5.5q14 0 14 -33q0 -19 -4.5 -26.5
t-19.5 -12.5q-58 -21 -139 -21zM246 431q-62 0 -84.5 -26.5t-25.5 -121.5h207q0 37 -1 55.5t-6 40t-15 30.5t-28.5 15.5t-46.5 6.5z" />
    <glyph glyph-name="afii10072" unicode="&#x436;" horiz-adv-x="639" 
d="M57 0q-43 0 -43 16q0 12 12 26l173 215l-161 192q-13 17 -13 28q0 14 41 14q25 0 35 -3.5t20 -16.5l148 -187h9v181q0 17 8 21.5t33 4.5q26 0 34 -4.5t8 -21.5v-181h8l149 187q10 12 20 16t35 4q41 0 41 -14q0 -12 -14 -28l-160 -192l173 -215q12 -14 12 -26
q0 -16 -44 -16q-23 0 -32.5 4t-19.5 17l-160 207h-8v-201q0 -17 -8.5 -22t-33.5 -5t-33 5t-8 22v201h-8l-161 -207q-10 -13 -19 -17t-33 -4z" />
    <glyph glyph-name="afii10073" unicode="&#x437;" horiz-adv-x="437" 
d="M110 254q0 19 5 26t20 7h39q66 0 90.5 16t24.5 60q0 42 -17 53t-75 11q-43 0 -88 -6t-46 -6q-10 0 -14 6.5t-4 27.5q0 20 5.5 27t18.5 10q64 14 149 14q80 0 117.5 -23.5t37.5 -92.5t-23.5 -95.5t-78.5 -33.5q64 -9 89 -32.5t25 -86.5q0 -86 -40.5 -115.5t-133.5 -29.5
q-97 0 -158 16q-15 3 -20.5 10.5t-5.5 28.5t3.5 27.5t13.5 6.5q2 0 52 -7.5t96 -7.5q69 0 89 14.5t20 62.5q0 45 -25.5 62t-101.5 17h-39q-15 0 -20 7t-5 26z" />
    <glyph glyph-name="afii10074" unicode="&#x438;" horiz-adv-x="506" 
d="M392 491q28 0 39 -4q13 -7 13 -26v-434q0 -16 -8 -21.5t-33 -5.5q-26 0 -34 5.5t-8 21.5v355h-7l-178 -353q-9 -18 -21.5 -23.5t-41.5 -5.5t-38 5q-13 5 -13 25v435q0 16 8 21t33 5t33 -5t8 -21v-352h7l182 355q8 15 18.5 19t40.5 4z" />
    <glyph glyph-name="afii10075" unicode="&#x439;" horiz-adv-x="506" 
d="M251 554q-64 0 -85.5 20.5t-21.5 73.5q0 17 5.5 21.5t26.5 4.5q20 0 25.5 -4t6.5 -19q1 -22 7.5 -28.5t35.5 -6.5t36 6.5t8 28.5q1 15 6 19t26 4q20 0 25.5 -4.5t5.5 -21.5q0 -53 -21 -73.5t-86 -20.5zM392 491q28 0 39 -4q13 -7 13 -26v-434q0 -16 -8 -21.5t-33 -5.5
q-26 0 -34 5.5t-8 21.5v355h-7l-178 -353q-9 -18 -21.5 -23.5t-41.5 -5.5t-38 5q-13 5 -13 25v435q0 16 8 21t33 5t33 -5t8 -21v-352h7l182 355q8 15 18.5 19t40.5 4z" />
    <glyph glyph-name="afii10076" unicode="&#x43a;" horiz-adv-x="430" 
d="M103 0q-25 0 -33 5t-8 22v438q0 17 8 21.5t33 4.5t33 -4.5t8 -21.5v-181h9l157 187q11 13 20.5 16.5t34.5 3.5q40 0 40 -14q0 -12 -14 -28l-164 -192l177 -215q12 -14 12 -26q0 -16 -42 -16q-24 0 -32.5 4t-19.5 17l-170 207h-8v-201q0 -17 -8 -22t-33 -5z" />
    <glyph glyph-name="afii10077" unicode="&#x43b;" horiz-adv-x="506" 
d="M403 0q-25 0 -33 5.5t-8 21.5v391h-155l-37 -340q-5 -45 -23 -66t-62 -21q-28 0 -55 6q-14 3 -19.5 11t-5.5 28q0 19 3.5 24.5t12.5 5.5q6 0 18.5 -1.5t21.5 -1.5q18 0 24 8.5t10 39.5l39 354q2 16 8 21t26 5h246q18 0 24 -5t6 -20v-439q0 -16 -8 -21.5t-33 -5.5z" />
    <glyph glyph-name="afii10078" unicode="&#x43c;" horiz-adv-x="627" 
d="M103 0q-25 0 -33 5.5t-8 21.5v434q0 18 11 24t51 6q36 0 48.5 -6t21.5 -29l117 -310h5l117 310q9 23 21.5 29t48.5 6q40 0 51 -6t11 -24v-434q0 -16 -8 -21.5t-33 -5.5q-26 0 -34 5.5t-8 21.5t2 356h-8l-114 -300q-7 -19 -16.5 -24.5t-32.5 -5.5q-22 0 -31.5 5.5
t-16.5 24.5l-114 300h-8q1 -170 1 -356q0 -16 -8 -21.5t-33 -5.5z" />
    <glyph glyph-name="afii10079" unicode="&#x43d;" horiz-adv-x="492" 
d="M144 291h203v174q0 16 8.5 21t33.5 5t33 -5t8 -21v-438q0 -16 -8 -21.5t-33 -5.5q-26 0 -34 5.5t-8 21.5v191h-203v-191q0 -16 -8 -21.5t-33 -5.5t-33 5.5t-8 21.5v438q0 16 8 21t33 5t33 -5t8 -21v-174z" />
    <glyph glyph-name="afii10080" unicode="&#x43e;" horiz-adv-x="497" 
d="M241 -10q-58 0 -92 9.5t-57 37.5t-31.5 76t-8.5 128q0 151 45.5 205.5t159.5 54.5q76 0 114.5 -19t56 -72t17.5 -159q0 -151 -45 -206t-159 -55zM243 61q73 0 95.5 35t22.5 146q0 122 -18.5 155.5t-88.5 33.5q-73 0 -95.5 -34.5t-22.5 -145.5q0 -123 18.5 -156.5
t88.5 -33.5z" />
    <glyph glyph-name="afii10081" unicode="&#x43f;" horiz-adv-x="492" 
d="M103 0q-25 0 -33 5.5t-8 21.5v439q0 15 6 20t24 5h307q19 0 25 -5t6 -20v-439q0 -16 -8 -21.5t-33 -5.5q-26 0 -34 5.5t-8 21.5v392h-203v-392q0 -16 -8 -21.5t-33 -5.5z" />
    <glyph glyph-name="afii10082" unicode="&#x440;" horiz-adv-x="525" 
d="M115 -189q-25 0 -33.5 5t-8.5 22v473q0 42 -5.5 78.5t-11 57.5t-5.5 25q0 10 7.5 14.5t30.5 4.5t30 -3.5t11 -18.5l13 -54q39 86 162 86q103 0 135.5 -51t32.5 -203q0 -107 -21 -163.5t-58.5 -75t-106.5 -18.5q-98 0 -131 54v-206q0 -17 -8 -22t-33 -5zM272 61
q72 0 94.5 34.5t22.5 155.5q0 113 -19 146.5t-84 33.5q-70 0 -100.5 -32.5t-30.5 -127.5v-62q0 -85 23 -116.5t94 -31.5z" />
    <glyph glyph-name="afii10083" unicode="&#x441;" horiz-adv-x="428" 
d="M243 -10q-43 0 -71 5t-53 19.5t-38.5 42.5t-21 73t-7.5 111q0 70 9.5 118.5t24.5 76t41.5 42.5t52 19t65.5 4q64 0 122 -17q15 -5 20 -12.5t5 -26.5q0 -33 -15 -33q-2 0 -48 9t-77 9q-48 0 -70 -11t-34 -50t-12 -120q0 -123 19.5 -155t98.5 -32q41 0 82 10l42 11
q14 0 14 -33q0 -19 -4.5 -26.5t-19.5 -12.5q-58 -21 -125 -21z" />
    <glyph glyph-name="afii10084" unicode="&#x442;" horiz-adv-x="403" 
d="M202 0q-26 0 -34 5.5t-8 21.5v389h-117q-15 0 -20.5 7.5t-5.5 30.5q0 22 5.5 29.5t20.5 7.5h318q15 0 20 -7t5 -30t-5 -30.5t-20 -7.5h-118v-389q0 -16 -8 -21.5t-33 -5.5z" />
    <glyph glyph-name="afii10085" unicode="&#x443;" horiz-adv-x="454" 
d="M25 469q0 12 8 17t34 5q25 0 33 -3.5t12 -16.5l111 -399h8l111 399q4 13 12 16.5t32 3.5q26 0 35 -5t9 -16q0 -16 -11 -50l-145 -466q-27 -86 -53 -116.5t-88 -30.5q-50 0 -81 11q-13 4 -18.5 11t-5.5 24q0 20 3.5 26.5t13.5 6.5q1 0 26.5 -3.5t52.5 -3.5q33 0 46.5 12
t24.5 50l16 59q-27 1 -39 11.5t-20 36.5l-112 357q-15 49 -15 64z" />
    <glyph glyph-name="afii10086" unicode="&#x444;" horiz-adv-x="801" 
d="M211 -10q-102 0 -134 51.5t-32 203.5q0 106 20.5 162.5t57.5 75t106 18.5q99 0 127 -63v188q0 17 8 22t33 5t33 -5t8 -22v-195q18 40 53 55t92 15q102 0 134 -51t32 -203q0 -107 -20.5 -163.5t-57.5 -75t-106 -18.5q-97 0 -127 65v-217q0 -17 -8 -22t-33 -5t-33 5t-8 22
v223q-37 -71 -145 -71zM549 61q50 0 73 14t33 53t10 123q0 113 -18.5 146.5t-83.5 33.5q-74 0 -100 -29.5t-26 -119.5v-77q0 -85 21 -114.5t91 -29.5zM231 61q73 0 99.5 31.5t26.5 113.5v76q0 87 -21 118t-91 31q-50 0 -73 -14t-33 -53.5t-10 -123.5q0 -113 18.5 -146
t83.5 -33z" />
    <glyph glyph-name="afii10087" unicode="&#x445;" horiz-adv-x="440" 
d="M66 0q-41 0 -41 19q0 7 10 24l137 212l-124 189q-12 19 -12 27q0 11 10 15.5t35 4.5t34 -3.5t15 -15.5l89 -148h4l88 148q6 13 14.5 16t33.5 3q26 0 35.5 -4.5t9.5 -15.5q0 -9 -11 -26l-126 -187l138 -214q11 -19 11 -24q0 -20 -41 -20q-26 0 -37 4.5t-18 19.5l-98 168
h-4l-98 -168q-7 -15 -18 -19.5t-36 -4.5z" />
    <glyph glyph-name="afii10088" unicode="&#x446;" horiz-adv-x="489" 
d="M435 -109q-20 0 -27 3.5t-9 16.5l-14 89h-293q-18 0 -24 5t-6 20v440q0 16 8 21t33 5t33 -5t8 -21v-390h184v390q0 16 8 21t33 5t33 -5t8 -21v-390h25q18 0 24.5 -5.5t6.5 -24.5v-134q0 -13 -6 -16.5t-25 -3.5z" />
    <glyph glyph-name="afii10089" unicode="&#x447;" horiz-adv-x="453" 
d="M196 171q-88 0 -122.5 29t-34.5 121v144q0 16 8 21t33 5t33.5 -5t8.5 -21v-132q0 -57 17 -72.5t72 -15.5q43 0 98 5v215q0 16 8 21t33 5t33 -5t8 -21v-438q0 -16 -8 -21.5t-33 -5.5t-33 5.5t-8 21.5v154q-55 -10 -113 -10z" />
    <glyph glyph-name="afii10090" unicode="&#x448;" horiz-adv-x="725" 
d="M663 465v-440q0 -15 -5.5 -20t-24.5 -5h-541q-18 0 -24 5t-6 20v440q0 16 8 21t33 5t33 -5t8 -21v-390h177v390q0 16 8.5 21t33.5 5t33 -5t8 -21v-390h177v390q0 16 8 21t33 5t33 -5t8 -21z" />
    <glyph glyph-name="afii10091" unicode="&#x449;" horiz-adv-x="742" 
d="M688 -109q-20 0 -27 3.5t-9 16.5l-14 89h-546q-18 0 -24 5t-6 20v440q0 16 8 21t33 5t33 -5t8 -21v-390h177v390q0 16 8.5 21t33.5 5t33 -5t8 -21v-390h177v390q0 16 8 21t33 5t33 -5t8 -21v-390h25q18 0 24.5 -5.5t6.5 -24.5v-134q0 -13 -6 -16.5t-25 -3.5z" />
    <glyph glyph-name="afii10092" unicode="&#x44a;" horiz-adv-x="495" 
d="M87 416h-52q-15 0 -20 7.5t-5 30.5t5 30t20 7h93q26 0 34 -4.5t8 -21.5v-168h107q105 0 144.5 -27.5t39.5 -115.5q0 -99 -43 -131t-151 -32q-72 0 -147 9q-20 2 -26.5 8.5t-6.5 22.5v385zM287 227h-117v-159q42 -5 101 -5q68 0 87 16t19 72q0 46 -17.5 61t-72.5 15z" />
    <glyph glyph-name="afii10093" unicode="&#x44b;" horiz-adv-x="672" 
d="M569 0q-25 0 -33 5t-8 22v438q0 17 8 21.5t33 4.5t33 -4.5t8 -21.5v-438q0 -17 -8 -22t-33 -5zM241 -9q-71 0 -146 9q-20 2 -26.5 8.5t-6.5 22.5v434q0 17 8 21.5t33 4.5t33 -4.5t8 -21.5v-168h108q105 0 144.5 -27.5t39.5 -115.5q0 -99 -43.5 -131t-151.5 -32zM261 227
h-117v-159q42 -5 101 -5q68 0 87.5 16t19.5 72q0 46 -17.5 61t-73.5 15z" />
    <glyph glyph-name="afii10094" unicode="&#x44c;" horiz-adv-x="470" 
d="M241 -9q-71 0 -146 9q-20 2 -26.5 8.5t-6.5 22.5v434q0 17 8 21.5t33 4.5t33 -4.5t8 -21.5v-168h108q105 0 144.5 -27.5t39.5 -115.5q0 -99 -43.5 -131t-151.5 -32zM261 227h-117v-159q42 -5 101 -5q68 0 87.5 16t19.5 72q0 46 -17.5 61t-73.5 15z" />
    <glyph glyph-name="afii10095" unicode="&#x44d;" horiz-adv-x="436" 
d="M183 -10q-72 0 -130 21q-15 5 -19.5 12.5t-4.5 26.5q0 33 14 33q2 0 46.5 -10.5t86.5 -10.5q82 0 105.5 28t24.5 130h-176q-16 0 -21 6.5t-5 26.5t5 26.5t21 6.5h176q-2 95 -22 119.5t-88 24.5q-42 0 -94 -8t-53 -8q-15 0 -15 33q0 20 4.5 27t19.5 11q62 16 140 16
q58 0 89 -7t56.5 -33.5t34.5 -78.5t9 -141q0 -82 -11 -132t-38 -76.5t-61.5 -34.5t-93.5 -8z" />
    <glyph glyph-name="afii10096" unicode="&#x44e;" horiz-adv-x="689" 
d="M432 -10q-74 0 -112 17.5t-56.5 67t-20.5 145.5h-99v-193q0 -17 -8 -22t-33 -5t-33 5t-8 22v438q0 17 8 21.5t33 4.5t33 -4.5t8 -21.5v-174h100q7 121 53 165.5t151 44.5q58 0 91.5 -9.5t57 -37t32 -75.5t8.5 -128q0 -151 -45.5 -206t-159.5 -55zM434 61q74 0 96.5 34.5
t22.5 146.5q0 122 -19 155.5t-89 33.5q-73 0 -95 -34t-22 -146q0 -123 18 -156.5t88 -33.5z" />
    <glyph glyph-name="afii10097" unicode="&#x44f;" horiz-adv-x="490" 
d="M78 0q-37 0 -37 16q0 10 10 27l93 164q-49 11 -69.5 41.5t-20.5 94.5q0 95 43 126t152 31q71 0 146 -9q20 -2 26.5 -8.5t6.5 -22.5v-433q0 -17 -8 -22t-33 -5t-33 5t-8 22v172h-126l-89 -178q-7 -14 -16 -17.5t-37 -3.5zM138 339q0 -44 17.5 -58.5t73.5 -14.5h117v156
q-42 5 -101 5q-67 0 -87 -16t-20 -72z" />
    <glyph glyph-name="afii10071" unicode="&#x451;" horiz-adv-x="468" 
d="M253 -10q-59 0 -93 8t-60.5 34.5t-37 76t-10.5 132.5q0 70 9.5 118.5t24.5 76t42 42.5t53 19t67 4q58 0 93.5 -13t53 -45.5t23 -70.5t5.5 -104q0 -22 -7.5 -32t-28.5 -10h-251q1 -106 22.5 -135t102.5 -29q34 0 66 5t51.5 10.5t23.5 5.5q14 0 14 -33q0 -19 -4.5 -26.5
t-19.5 -12.5q-58 -21 -139 -21zM246 431q-62 0 -84.5 -26.5t-25.5 -121.5h207q0 37 -1 55.5t-6 40t-15 30.5t-28.5 15.5t-46.5 6.5zM160 569q-28 0 -36 5.5t-8 25.5v21q0 20 8.5 26t35.5 6t35.5 -6t8.5 -26v-21q0 -20 -8 -25.5t-36 -5.5zM307 569q-28 0 -36.5 5.5t-8.5 25.5
v21q0 20 8.5 26t36.5 6q27 0 35.5 -6t8.5 -26v-21q0 -20 -8 -25.5t-36 -5.5z" />
    <glyph glyph-name="afii10099" unicode="&#x452;" horiz-adv-x="500" 
d="M105 0q-25 0 -33.5 5t-8.5 22v505h-33q-14 0 -19 5.5t-5 22.5q0 18 5 23.5t19 5.5h33v37q0 17 8.5 22t33.5 5t33 -5t8 -22v-37h124q14 0 19 -5.5t5 -23.5q0 -17 -5 -22.5t-19 -5.5h-124v-128q37 74 156 74q79 0 107.5 -31.5t28.5 -100.5v-415q0 -66 -24.5 -95t-80.5 -29
q-35 0 -69 10q-15 4 -20.5 10.5t-5.5 24.5q0 20 4 26t13 6q4 0 23.5 -2.5t33.5 -2.5q28 0 35.5 11.5t7.5 57.5v380q0 45 -16 61.5t-65 16.5q-70 0 -99 -39t-29 -130v-210q0 -17 -8 -22t-33 -5z" />
    <glyph glyph-name="afii10100" unicode="&#x453;" horiz-adv-x="341" 
d="M158 539q-35 0 -35 16q0 6 10 26l47 90q6 11 9 15t13 7.5t29 3.5q47 0 47 -16q0 -9 -14 -31l-57 -88q-6 -9 -10 -13t-13.5 -7t-25.5 -3zM103 0q-25 0 -33 5.5t-8 21.5v439q0 15 6 20t24 5h213q15 0 20.5 -7.5t5.5 -29.5q0 -23 -5.5 -30.5t-20.5 -7.5h-161v-389
q0 -16 -8 -21.5t-33 -5.5z" />
    <glyph glyph-name="afii10101" unicode="&#x454;" horiz-adv-x="439" 
d="M256 -10q-59 0 -93.5 8t-61.5 34.5t-38 76.5t-11 132q0 89 9 141t34.5 78.5t56.5 33.5t88 7q79 0 141 -16q15 -4 19.5 -11t4.5 -27q0 -33 -15 -33l-52 8q-53 8 -96 8q-68 0 -88 -24.5t-21 -119.5h176q16 0 21 -6.5t5 -26.5t-5 -26.5t-21 -6.5h-176q2 -102 25 -130
t105 -28q42 0 86.5 10.5t46.5 10.5q14 0 14 -33q0 -19 -4.5 -26.5t-19.5 -12.5q-58 -21 -130 -21z" />
    <glyph glyph-name="afii10102" unicode="&#x455;" horiz-adv-x="429" 
d="M199 -10q-73 0 -130 18q-14 5 -19 12t-5 26q0 34 13 34q2 0 48 -9t86 -9q59 0 84 19t25 60q0 22 -9 34t-29 21l-135 57q-70 30 -70 118q0 130 156 130q69 0 134 -17q15 -4 19.5 -11.5t4.5 -28.5q0 -32 -16 -32l-47 10q-47 9 -84 9q-47 0 -65 -14t-18 -46q0 -24 7.5 -37
t30.5 -22l131 -54q40 -16 56.5 -42.5t16.5 -70.5q0 -155 -185 -155z" />
    <glyph glyph-name="afii10103" unicode="&#x456;" horiz-adv-x="208" 
d="M102 0q-25 0 -33 5t-8 22v438q0 17 8 21.5t33 4.5t33 -4.5t8 -21.5v-438q0 -17 -8 -22t-33 -5zM102 569q-30 0 -38 5.5t-8 25.5v21q0 20 8.5 26t37.5 6t37.5 -6t8.5 -26v-21q0 -20 -8.5 -25.5t-37.5 -5.5z" />
    <glyph glyph-name="afii10104" unicode="&#x457;" horiz-adv-x="208" 
d="M31 569q-28 0 -36 5.5t-8 25.5v21q0 20 8.5 26t35.5 6t35.5 -6t8.5 -26v-21q0 -20 -8 -25.5t-36 -5.5zM178 569q-28 0 -36.5 5.5t-8.5 25.5v21q0 20 8.5 26t36.5 6q27 0 35.5 -6t8.5 -26v-21q0 -20 -8 -25.5t-36 -5.5zM102 0q-25 0 -33 5t-8 22v438q0 17 8 21.5t33 4.5
t33 -4.5t8 -21.5v-438q0 -17 -8 -22t-33 -5z" />
    <glyph glyph-name="afii10105" unicode="&#x458;" horiz-adv-x="208" 
d="M102 491q25 0 33 -4.5t8 -21.5v-534q0 -66 -24.5 -95t-80.5 -29q-34 0 -68 10q-15 4 -20.5 10.5t-5.5 24.5q0 20 3.5 26t12.5 6q4 0 23.5 -2.5t33.5 -2.5q28 0 36 12t8 57v517q0 17 8 21.5t33 4.5zM102 569q-30 0 -38 5.5t-8 25.5v21q0 20 8.5 26t37.5 6t37.5 -6t8.5 -26
v-21q0 -20 -8.5 -25.5t-37.5 -5.5z" />
    <glyph glyph-name="afii10106" unicode="&#x459;" horiz-adv-x="766" 
d="M88 -9q-27 0 -54 6q-14 3 -19.5 11t-5.5 28q0 19 3.5 24.5t12.5 5.5q6 0 18 -1.5t21 -1.5q18 0 24.5 8.5t10.5 39.5l39 354q2 16 8 21t25 5h243q18 0 24 -5t6 -20v-169h104q105 0 144.5 -27.5t39.5 -115.5q0 -99 -43.5 -131t-151.5 -32q-67 0 -142 9q-20 2 -26.5 8.5
t-6.5 22.5v387h-151l-37 -340q-5 -45 -23 -66t-63 -21zM557 227h-113v-159q42 -5 97 -5q68 0 87.5 16t19.5 72q0 46 -17.5 61t-73.5 15z" />
    <glyph glyph-name="afii10107" unicode="&#x45a;" horiz-adv-x="748" 
d="M103 0q-25 0 -33 5.5t-8 21.5v438q0 16 8 21t33 5t33 -5t8 -21v-174h200v174q0 16 8 21t33 5t33 -5t8 -21v-168h104q105 0 144.5 -27.5t39.5 -115.5q0 -99 -43.5 -131t-151.5 -32q-67 0 -142 9q-20 2 -26.5 8.5t-6.5 22.5v187h-200v-191q0 -16 -8 -21.5t-33 -5.5z
M539 227h-113v-159q42 -5 98 -5q68 0 87 16t19 72q0 46 -17.5 61t-73.5 15z" />
    <glyph glyph-name="afii10108" unicode="&#x45b;" horiz-adv-x="500" 
d="M6 560q0 18 5 23.5t19 5.5h33v37q0 17 8.5 22t33.5 5t33 -5t8 -22v-37h124q14 0 19 -5.5t5 -23.5q0 -17 -5 -22.5t-19 -5.5h-124v-128q37 74 156 74q79 0 107.5 -31.5t28.5 -100.5v-319q0 -17 -8 -22t-33 -5t-33.5 5t-8.5 22v301q0 45 -16 61.5t-65 16.5q-70 0 -99 -39
t-29 -130v-210q0 -17 -8 -22t-33 -5t-33.5 5t-8.5 22v505h-33q-14 0 -19 5.5t-5 22.5z" />
    <glyph glyph-name="afii10109" unicode="&#x45c;" horiz-adv-x="430" 
d="M189 539q-35 0 -35 16q0 6 10 26l47 90q6 11 9 15t13 7.5t29 3.5q47 0 47 -16q0 -9 -14 -31l-57 -88q-6 -9 -10 -13t-13.5 -7t-25.5 -3zM103 0q-25 0 -33 5t-8 22v438q0 17 8 21.5t33 4.5t33 -4.5t8 -21.5v-181h9l157 187q11 13 20.5 16.5t34.5 3.5q40 0 40 -14
q0 -12 -14 -28l-164 -192l177 -215q12 -14 12 -26q0 -16 -42 -16q-24 0 -32.5 4t-19.5 17l-170 207h-8v-201q0 -17 -8 -22t-33 -5z" />
    <glyph glyph-name="afii10110" unicode="&#x45e;" horiz-adv-x="454" 
d="M25 469q0 12 8 17t34 5q25 0 33 -3.5t12 -16.5l111 -399h8l111 399q4 13 12 16.5t32 3.5q26 0 35 -5t9 -16q0 -16 -11 -50l-145 -466q-27 -86 -53 -116.5t-88 -30.5q-50 0 -81 11q-13 4 -18.5 11t-5.5 24q0 20 3.5 26.5t13.5 6.5q1 0 26.5 -3.5t52.5 -3.5q33 0 46.5 12
t24.5 50l16 59q-27 1 -39 11.5t-20 36.5l-112 357q-15 49 -15 64zM226 554q-64 0 -85.5 20.5t-21.5 73.5q0 17 5.5 21.5t26.5 4.5q20 0 25.5 -4t6.5 -19q1 -22 7.5 -28.5t35.5 -6.5t36 6.5t8 28.5q1 15 6 19t26 4q20 0 25.5 -4.5t5.5 -21.5q0 -53 -21 -73.5t-86 -20.5z" />
    <glyph glyph-name="afii10193" unicode="&#x45f;" horiz-adv-x="472" 
d="M236 -109q-20 0 -24.5 3.5t-5.5 18.5l-5 87h-109q-18 0 -24 5t-6 20v440q0 16 8 21t33 5t33 -5t8 -21v-393h184v393q0 16 8 21t33 5t33 -5t8 -21v-440q0 -15 -6 -20t-24 -5h-109l-5 -87q-1 -15 -5.5 -18.5t-24.5 -3.5z" />
    <glyph glyph-name="afii10050" unicode="&#x490;" horiz-adv-x="403" 
d="M355 725q18 0 24 -3.5t6 -16.5v-135q0 -18 -6 -24t-24 -6h-211v-513q0 -16 -8 -21.5t-33 -5.5t-33 5.5t-8 21.5v563q0 15 6 20t24 5h213l13 90q4 12 10.5 16t26.5 4z" />
    <glyph glyph-name="afii10098" unicode="&#x491;" horiz-adv-x="348" 
d="M300 601q19 0 25 -4t6 -16v-135q0 -18 -6.5 -24t-24.5 -6h-156v-389q0 -16 -8 -21.5t-33 -5.5t-33 5.5t-8 21.5v439q0 15 6 20t24 5h158l14 90q3 12 9.5 16t26.5 4z" />
    <glyph glyph-name="Wgrave" unicode="&#x1e80;" horiz-adv-x="795" 
d="M212 0q-39 0 -53.5 6t-18.5 27l-120 538q0 3 -1 8t-1.5 9t-0.5 7q0 11 8 15.5t32 4.5q26 0 35 -4t12 -18l106 -516h12l113 500q3 17 16.5 22.5t46.5 5.5q32 0 45.5 -5.5t16.5 -22.5l113 -500h12l106 516q3 14 12 18t35 4q24 0 32 -4.5t8 -15.5l-3 -24l-120 -538
q-4 -21 -18.5 -27t-53.5 -6q-38 0 -52.5 6.5t-19.5 28.5l-108 465h-10l-109 -465q-5 -22 -19.5 -28.5t-52.5 -6.5zM401 659q-16 0 -25.5 3t-13.5 7t-10 13l-57 88q-14 22 -14 31q0 16 47 16q27 0 35 -5t16 -21l47 -90q10 -20 10 -26q0 -16 -35 -16z" />
    <glyph glyph-name="wgrave" unicode="&#x1e81;" horiz-adv-x="699" 
d="M189 0q-35 0 -49 6t-18 25l-92 400q-5 25 -5 37q0 13 7.5 18t32.5 5q28 0 36.5 -4.5t12.5 -23.5l79 -389h11l87 374q5 20 16.5 26.5t42.5 6.5q30 0 41.5 -6.5t16.5 -26.5l87 -374h11l79 389q4 19 12.5 23.5t36.5 4.5q25 0 32.5 -5t7.5 -18q0 -12 -5 -37l-92 -400
q-4 -19 -18 -25t-49 -6q-39 0 -56 6t-21 25l-80 338h-7l-80 -338q-4 -19 -21 -25t-56 -6zM372 539q-16 0 -25.5 3t-13.5 7t-10 13l-57 88q-14 22 -14 31q0 16 47 16q27 0 35 -5t16 -21l47 -90q10 -20 10 -26q0 -16 -35 -16z" />
    <glyph glyph-name="Wacute" unicode="&#x1e82;" horiz-adv-x="795" 
d="M212 0q-39 0 -53.5 6t-18.5 27l-120 538q0 3 -1 8t-1.5 9t-0.5 7q0 11 8 15.5t32 4.5q26 0 35 -4t12 -18l106 -516h12l113 500q3 17 16.5 22.5t46.5 5.5q32 0 45.5 -5.5t16.5 -22.5l113 -500h12l106 516q3 14 12 18t35 4q24 0 32 -4.5t8 -15.5l-3 -24l-120 -538
q-4 -21 -18.5 -27t-53.5 -6q-38 0 -52.5 6.5t-19.5 28.5l-108 465h-10l-109 -465q-5 -22 -19.5 -28.5t-52.5 -6.5zM394 659q-35 0 -35 16q0 6 10 26l47 90q6 11 9 15t13 7.5t29 3.5q47 0 47 -16q0 -9 -14 -31l-57 -88q-6 -9 -10 -13t-13.5 -7t-25.5 -3z" />
    <glyph glyph-name="wacute" unicode="&#x1e83;" horiz-adv-x="699" 
d="M189 0q-35 0 -49 6t-18 25l-92 400q-5 25 -5 37q0 13 7.5 18t32.5 5q28 0 36.5 -4.5t12.5 -23.5l79 -389h11l87 374q5 20 16.5 26.5t42.5 6.5q30 0 41.5 -6.5t16.5 -26.5l87 -374h11l79 389q4 19 12.5 23.5t36.5 4.5q25 0 32.5 -5t7.5 -18q0 -12 -5 -37l-92 -400
q-4 -19 -18 -25t-49 -6q-39 0 -56 6t-21 25l-80 338h-7l-80 -338q-4 -19 -21 -25t-56 -6zM328 539q-35 0 -35 16q0 6 10 26l47 90q6 11 9 15t13 7.5t29 3.5q47 0 47 -16q0 -9 -14 -31l-57 -88q-6 -9 -10 -13t-13.5 -7t-25.5 -3z" />
    <glyph glyph-name="Wdieresis" unicode="&#x1e84;" horiz-adv-x="795" 
d="M212 0q-39 0 -53.5 6t-18.5 27l-120 538q0 3 -1 8t-1.5 9t-0.5 7q0 11 8 15.5t32 4.5q26 0 35 -4t12 -18l106 -516h12l113 500q3 17 16.5 22.5t46.5 5.5q32 0 45.5 -5.5t16.5 -22.5l113 -500h12l106 516q3 14 12 18t35 4q24 0 32 -4.5t8 -15.5l-3 -24l-120 -538
q-4 -21 -18.5 -27t-53.5 -6q-38 0 -52.5 6.5t-19.5 28.5l-108 465h-10l-109 -465q-5 -22 -19.5 -28.5t-52.5 -6.5zM325 694q-28 0 -36 5.5t-8 25.5v21q0 20 8.5 26t35.5 6t35.5 -6t8.5 -26v-21q0 -20 -8 -25.5t-36 -5.5zM472 694q-28 0 -36.5 5.5t-8.5 25.5v21q0 20 8.5 26
t36.5 6q27 0 35.5 -6t8.5 -26v-21q0 -20 -8 -25.5t-36 -5.5z" />
    <glyph glyph-name="wdieresis" unicode="&#x1e85;" horiz-adv-x="699" 
d="M189 0q-35 0 -49 6t-18 25l-92 400q-5 25 -5 37q0 13 7.5 18t32.5 5q28 0 36.5 -4.5t12.5 -23.5l79 -389h11l87 374q5 20 16.5 26.5t42.5 6.5q30 0 41.5 -6.5t16.5 -26.5l87 -374h11l79 389q4 19 12.5 23.5t36.5 4.5q25 0 32.5 -5t7.5 -18q0 -12 -5 -37l-92 -400
q-4 -19 -18 -25t-49 -6q-39 0 -56 6t-21 25l-80 338h-7l-80 -338q-4 -19 -21 -25t-56 -6zM277 569q-28 0 -36 5.5t-8 25.5v21q0 20 8.5 26t35.5 6t35.5 -6t8.5 -26v-21q0 -20 -8 -25.5t-36 -5.5zM424 569q-28 0 -36.5 5.5t-8.5 25.5v21q0 20 8.5 26t36.5 6q27 0 35.5 -6
t8.5 -26v-21q0 -20 -8 -25.5t-36 -5.5z" />
    <glyph glyph-name="Eszett" unicode="&#x1e9e;" horiz-adv-x="502" 
d="M99 0q-26 0 -34 5.5t-8 21.5v453q0 76 41.5 110t143.5 34q73 0 140 -21q25 -8 35 -18.5t10 -26.5q0 -17 -13 -45l-94 -170l84 -77q26 -27 37 -40t20 -36.5t9 -53.5q0 -75 -37.5 -109t-117.5 -34q-49 0 -101 13q-15 5 -20 12.5t-5 28.5q0 32 13 32q3 0 37.5 -6t60.5 -6
q51 0 68 17.5t17 57.5q0 34 -32 64l-84 77q-29 26 -29 50q0 19 15 44l87 159q-34 14 -102 14q-64 0 -82 -15t-18 -52v-456q0 -16 -8 -21.5t-33 -5.5z" />
    <glyph glyph-name="Ygrave" unicode="&#x1ef2;" horiz-adv-x="455" 
d="M227 0q-25 0 -33 5.5t-8 21.5v209l-158 328q-11 23 -11 32q0 19 38 19q29 0 39 -4t15 -18l116 -268h5l116 268q5 14 14.5 18t38.5 4q39 0 39 -19q0 -9 -11 -32l-158 -328v-209q0 -16 -8 -21.5t-34 -5.5zM249 659q-16 0 -25.5 3t-13.5 7t-10 13l-57 88q-14 22 -14 31
q0 16 47 16q27 0 35 -5t16 -21l47 -90q10 -20 10 -26q0 -16 -35 -16z" />
    <glyph glyph-name="ygrave" unicode="&#x1ef3;" horiz-adv-x="454" 
d="M25 469q0 12 8 17t34 5q25 0 33 -3.5t12 -16.5l111 -399h8l111 399q4 13 12 16.5t32 3.5q26 0 35 -5t9 -16q0 -16 -11 -50l-145 -466q-27 -86 -53 -116.5t-88 -30.5q-50 0 -81 11q-13 4 -18.5 11t-5.5 24q0 20 3.5 26.5t13.5 6.5q1 0 26.5 -3.5t52.5 -3.5q33 0 46.5 12
t24.5 50l16 59q-27 1 -39 11.5t-20 36.5l-112 357q-15 49 -15 64zM248 539q-16 0 -25.5 3t-13.5 7t-10 13l-57 88q-14 22 -14 31q0 16 47 16q27 0 35 -5t16 -21l47 -90q10 -20 10 -26q0 -16 -35 -16z" />
    <glyph glyph-name="endash" unicode="&#x2013;" horiz-adv-x="418" 
d="M36 264q0 23 5 30t20 7h295q16 0 21 -7t5 -30t-5 -30t-21 -7h-295q-15 0 -20 7t-5 30z" />
    <glyph glyph-name="emdash" unicode="&#x2014;" horiz-adv-x="665" 
d="M36 264q0 23 5 30t20 7h542q16 0 21 -7t5 -30t-5 -30t-21 -7h-542q-15 0 -20 7t-5 30z" />
    <glyph glyph-name="afii00208" unicode="&#x2015;" horiz-adv-x="665" 
d="M36 264q0 23 5 30t20 7h542q16 0 21 -7t5 -30t-5 -30t-21 -7h-542q-15 0 -20 7t-5 30z" />
    <glyph glyph-name="quoteleft" unicode="&#x2018;" horiz-adv-x="193" 
d="M89 429q-26 0 -34.5 6.5t-8.5 24.5v28q0 29 14 78l16 59q7 18 14.5 23t28.5 5q16 0 21 -3.5t5 -12.5q0 -6 -6.5 -51t-6.5 -74v-52q0 -19 -8 -25t-35 -6z" />
    <glyph glyph-name="quoteright" unicode="&#x2019;" horiz-adv-x="193" 
d="M104 653q26 0 34.5 -6.5t8.5 -24.5v-28q0 -32 -13 -78l-17 -59q-6 -17 -14 -22.5t-29 -5.5q-16 0 -21 3.5t-5 12.5q0 6 6.5 51t6.5 74v52q0 19 8 25t35 6z" />
    <glyph glyph-name="quotesinglbase" unicode="&#x201a;" horiz-adv-x="157" 
d="M75 93q27 0 34.5 -6t7.5 -25v-28q0 -32 -13 -78l-16 -59q-7 -17 -15 -22t-28 -5q-16 0 -21 3t-5 12q0 6 6.5 51t6.5 74v52q0 19 8 25t35 6z" />
    <glyph glyph-name="quotedblleft" unicode="&#x201c;" horiz-adv-x="343" 
d="M89 429q-26 0 -34.5 6.5t-8.5 24.5v28q0 29 14 78l16 59q7 18 14.5 23t28.5 5q16 0 21 -3.5t5 -12.5q0 -6 -6.5 -51t-6.5 -74v-52q0 -19 -8 -25t-35 -6zM239 429q-26 0 -34 6t-8 25v28q0 32 13 78l16 59q7 17 15 22.5t28 5.5q27 0 27 -16q0 -6 -7 -51t-7 -74v-52
q0 -19 -8 -25t-35 -6z" />
    <glyph glyph-name="quotedblright" unicode="&#x201d;" horiz-adv-x="343" 
d="M254 653q27 0 35 -6t8 -25v-28q0 -32 -13 -78l-17 -59q-6 -17 -14 -22.5t-29 -5.5q-16 0 -21 3.5t-5 12.5q0 6 7 51t7 74v52q0 19 8 25t34 6zM104 653q26 0 34.5 -6.5t8.5 -24.5v-28q0 -32 -13 -78l-17 -59q-6 -17 -14 -22.5t-29 -5.5q-16 0 -21 3.5t-5 12.5q0 6 6.5 51
t6.5 74v52q0 19 8 25t35 6z" />
    <glyph glyph-name="quotedblbase" unicode="&#x201e;" horiz-adv-x="307" 
d="M75 93q27 0 34.5 -6t7.5 -25v-28q0 -32 -13 -78l-16 -59q-7 -17 -15 -22t-28 -5q-16 0 -21 3t-5 12q0 6 6.5 51t6.5 74v52q0 19 8 25t35 6zM225 93q27 0 35 -6t8 -25v-28q0 -32 -13 -78l-17 -59q-6 -17 -14 -22t-29 -5q-16 0 -21 3t-5 12q0 6 6.5 51t6.5 74v52q0 19 8 25
t35 6z" />
    <glyph glyph-name="dagger" unicode="&#x2020;" horiz-adv-x="426" 
d="M213 -190q-24 0 -32 5t-8 21v495h-120q-16 0 -21 6.5t-5 29.5t5 29.5t21 6.5h120v146q0 16 8 21t32 5q25 0 33 -5t8 -21v-146h120q15 0 20 -6.5t5 -29.5t-5 -29.5t-20 -6.5h-120v-495q0 -16 -8 -21t-33 -5z" />
    <glyph glyph-name="daggerdbl" unicode="&#x2021;" horiz-adv-x="426" 
d="M213 -190q-24 0 -32 5t-8 21v145h-120q-16 0 -21 7t-5 30t5 29.5t21 6.5h120v277h-120q-16 0 -21 6.5t-5 29.5t5 29.5t21 6.5h120v146q0 16 8 21t32 5q25 0 33 -5t8 -21v-146h120q15 0 20 -6.5t5 -29.5t-5 -29.5t-20 -6.5h-120v-277h120q15 0 20 -6.5t5 -29.5t-5 -30
t-20 -7h-120v-145q0 -16 -8 -21t-33 -5z" />
    <glyph glyph-name="bullet" unicode="&#x2022;" horiz-adv-x="287" 
d="M143 157q-65 0 -89 24.5t-24 93.5q0 70 23.5 92t89.5 22q67 0 90.5 -22t23.5 -92q0 -69 -24.5 -93.5t-89.5 -24.5z" />
    <glyph glyph-name="ellipsis" unicode="&#x2026;" horiz-adv-x="543" 
d="M87 0q-27 0 -36 6t-9 25v31q0 19 9 25t36 6q28 0 36.5 -6t8.5 -25v-31q0 -19 -8.5 -25t-36.5 -6zM272 0q-27 0 -36 6t-9 25v31q0 19 9 25t36 6q28 0 36.5 -6t8.5 -25v-31q0 -19 -8.5 -25t-36.5 -6zM457 0q-28 0 -36.5 6t-8.5 25v31q0 19 8.5 25t36.5 6q27 0 36 -6t9 -25
v-31q0 -19 -9 -25t-36 -6z" />
    <glyph glyph-name="perthousand" unicode="&#x2030;" horiz-adv-x="760" 
d="M356 0q-70 0 -91.5 27t-21.5 108t22 108t91 27q68 0 90.5 -27t22.5 -108t-21.5 -108t-91.5 -27zM356 55q32 0 40 14.5t8 65.5q0 52 -7.5 66t-40.5 14t-41 -14.5t-8 -65.5t8 -65.5t41 -14.5zM134 345q-70 0 -91.5 27.5t-21.5 108.5t22 107.5t91 26.5t91 -26.5t22 -107.5
t-21.5 -108.5t-91.5 -27.5zM134 400q32 0 40 14.5t8 65.5q0 52 -7.5 66.5t-40.5 14.5t-41 -14.5t-8 -66.5q0 -51 8 -65.5t41 -14.5zM66 0q-29 0 -29 14q0 8 9 25l327 558q6 11 15 14.5t32 3.5q30 0 30 -13q0 -10 -10 -26l-327 -558q-6 -11 -15 -14.5t-32 -3.5zM626 0
q-69 0 -91 27t-22 108t22.5 108t90.5 27q69 0 91.5 -27t22.5 -108t-21.5 -108t-92.5 -27zM626 55q33 0 41 14.5t8 65.5t-8 65.5t-41 14.5q-32 0 -40 -14.5t-8 -65.5t8 -65.5t40 -14.5z" />
    <glyph glyph-name="guilsinglleft" unicode="&#x2039;" horiz-adv-x="318" 
d="M118 256v-8l143 -108q14 -11 18 -20t4 -34q0 -32 -15 -32q-6 0 -22 10l-181 122q-18 12 -24 24t-6 42q0 29 6 41t24 24l181 122q13 10 22 10q15 0 15 -32q0 -24 -4 -33.5t-18 -20.5z" />
    <glyph glyph-name="guilsinglright" unicode="&#x203a;" horiz-adv-x="318" 
d="M283 252q0 -30 -6 -42t-25 -24l-180 -122q-16 -10 -22 -10q-15 0 -15 32q0 25 3.5 34.5t17.5 19.5l143 108v8l-143 107q-14 11 -17.5 20.5t-3.5 33.5q0 32 15 32q9 0 22 -10l180 -122q18 -12 24.5 -24t6.5 -41z" />
    <glyph glyph-name="fraction" unicode="&#x2044;" 
d="M342 623q29 0 29 -14q0 -9 -6 -25l-210 -563q-5 -12 -13 -16.5t-27 -4.5q-29 0 -29 14q0 9 6 25l211 563q4 12 12 16.5t27 4.5z" />
    <glyph glyph-name="Euro" unicode="&#x20ac;" 
d="M316 274q0 -10 -10 -38q-3 -9 -12 -9h-143q2 -57 8 -89.5t23.5 -48.5t38 -20t61.5 -4q31 0 59.5 4.5t46 9t21.5 4.5q10 0 13 -6t3 -27t-5.5 -28.5t-18.5 -11.5q-71 -19 -137 -19q-29 0 -47.5 1.5t-40 6.5t-35 15t-27.5 27t-22 42t-13.5 61t-6.5 83h-46q-10 0 -10 8
q0 9 10 37q4 10 12 10h34v64h-46q-10 0 -10 8q0 10 10 37q4 10 12 10h35q3 74 16 119t40.5 66.5t56.5 27.5t80 6q70 0 135 -19q14 -4 19 -11t5 -28t-3.5 -27t-12.5 -6q-4 0 -22 4.5t-47 9t-58 4.5q-55 0 -79 -8.5t-36.5 -39t-15.5 -98.5h177q10 0 10 -8t-10 -38
q-3 -9 -12 -9h-165v-64h155q10 0 10 -8z" />
    <glyph glyph-name="hryvnia" unicode="&#x20b4;" 
d="M53 359q0 19 5 25t19 6h164l37 42q42 48 42 78q0 20 -19.5 28t-73.5 8q-32 0 -66 -4.5t-56 -9t-26 -4.5q-9 0 -13 7t-4 27q0 33 22 39q63 19 155 19q79 0 119 -20t40 -78q0 -57 -70 -132h57q14 0 19 -6t5 -25t-4.5 -24.5t-19.5 -5.5h-111l-40 -47h151q15 0 19.5 -5.5
t4.5 -24.5q0 -20 -4.5 -25.5t-19.5 -5.5h-203q-34 -39 -45 -59t-11 -43q0 -31 27.5 -42t88.5 -11q47 0 101 8t55 8q9 0 12.5 -6t3.5 -26q0 -21 -5 -29t-18 -11q-73 -19 -170 -19q-86 0 -129 24.5t-43 94.5q0 54 45 111h-17q-14 0 -19 5.5t-5 25.5q0 19 5 24.5t19 5.5h71
l40 47h-111q-14 0 -19 5.5t-5 24.5z" />
    <glyph glyph-name="numero" unicode="&#x2116;" horiz-adv-x="905" 
d="M575 141q0 23 5 30t21 7h213q15 0 20 -7t5 -30t-5 -30t-20 -7h-213q-16 0 -21 7t-5 30zM704 251q-39 0 -61.5 5.5t-43 23t-29.5 55t-9 97.5q0 63 9 101t30.5 57t47.5 24.5t70 5.5q39 0 61.5 -5t43 -22.5t29.5 -54.5t9 -97q0 -63 -9 -101.5t-30.5 -57.5t-47.5 -25t-70 -6z
M705 310q51 0 68 21.5t17 100.5q0 59 -8 87t-22 35.5t-44 7.5q-51 0 -67.5 -21.5t-16.5 -100.5q0 -58 7.5 -86t21.5 -36t44 -8zM104 0q-26 0 -34 5.5t-8 21.5v562q0 16 11.5 21t48.5 5q33 0 44.5 -4t19.5 -22l204 -462h9v462q0 16 8 21t33 5t33 -5t8 -21v-562
q0 -17 -10.5 -22t-47.5 -5q-31 0 -42.5 4.5t-19.5 21.5l-207 463h-9v-462q0 -16 -8 -21.5t-33 -5.5z" />
    <glyph glyph-name="trademark" unicode="&#x2122;" horiz-adv-x="740" 
d="M162 285q-23 0 -29.5 5t-6.5 22v238h-73q-15 0 -20.5 6t-5.5 27t5 26.5t21 5.5h219q16 0 21 -5.5t5 -26.5t-5.5 -27t-20.5 -6h-73v-238q0 -17 -6.5 -22t-30.5 -5zM384 281q-23 0 -29.5 5t-6.5 22v277q0 19 10 24.5t51 5.5q36 0 47.5 -6t20.5 -32l53 -159l54 159
q9 26 20.5 32t46.5 6q41 0 51.5 -5.5t10.5 -24.5v-277q0 -17 -6.5 -22t-30.5 -5q-23 0 -29.5 5t-6.5 22q0 36 0.5 109.5t0.5 109.5h-9l-61 -172q-7 -19 -14 -24t-27 -5t-27 5t-14 24l-61 172h-8q0 -36 0.5 -109.5t0.5 -109.5q0 -17 -6.5 -22t-30.5 -5z" />
    <glyph glyph-name="minus" unicode="&#x2212;" 
d="M96 264q0 23 5 30t20 7h221q15 0 20 -7t5 -30t-5 -30t-20 -7h-221q-15 0 -20 7t-5 30z" />
    <glyph glyph-name="commaaccent" unicode="&#xf6c3;" horiz-adv-x="153" 
d="M56 -230q-27 0 -27 16q0 4 5.5 49t5.5 86q0 21 8 27.5t35 6.5q25 0 33.5 -5.5t8.5 -21.5q0 -46 -9 -74l-20 -63q-6 -12 -13.5 -16.5t-26.5 -4.5z" />
    <glyph glyph-name="ruble" 
d="M121 0q-25 0 -33 5.5t-8 21.5v123h-39q-15 0 -19.5 5.5t-4.5 24.5q0 20 4.5 25.5t19.5 5.5h39v52h-39q-14 0 -19 6t-5 25t4.5 24.5t19.5 5.5h39v255q0 29 29 32q67 9 136 9q113 0 148 -29t35 -133q0 -109 -40 -152t-152 -43h-74v-52h172q15 0 19.5 -5.5t4.5 -25.5
q0 -19 -4.5 -24.5t-19.5 -5.5h-172v-123q0 -16 -8 -21.5t-33 -5.5zM162 549v-225h73q68 0 89 26.5t21 102.5q0 67 -16 84t-88 17q-42 0 -79 -5z" />
    </font>
</defs>
</svg>
