<?xml version="1.0" standalone="no"?>
<!DOCTYPE svg PUBLIC "-//W3C//DTD SVG 1.1//EN" "http://www.w3.org/Graphics/SVG/1.1/DTD/svg11.dtd" >
<svg xmlns="http://www.w3.org/2000/svg" xmlns:xlink="http://www.w3.org/1999/xlink" version="1.1">
<metadata>
Created by FontForge 20170731 at Thu Dec  4 19:29:14 2014
 By Aleksey,,,
Copyright (c) 2014 by Sascha Timplan. All rights reserved.
</metadata>
<defs>
<font id="Stereotesque-Light" horiz-adv-x="658" >
  <font-face 
    font-family="Stereotesque-Light"
    font-weight="400"
    font-stretch="normal"
    units-per-em="1000"
    panose-1="0 0 4 0 0 0 0 0 0 0"
    ascent="787"
    descent="-213"
    x-height="505"
    cap-height="700"
    bbox="-114 -208 1989 959"
    underline-thickness="50"
    underline-position="-150"
    unicode-range="U+0020-FB02"
  />
<missing-glyph horiz-adv-x="600" 
 />
    <glyph glyph-name="fi" unicode="fi" horiz-adv-x="587" 
d="M491 0h-65v465h-246v-465h-62v465h-79v40h79v40q0 222 212 222q90 0 168 -43l-27 -48q-63 48 -141 48q-150 0 -150 -179v-40h311v-505z" />
    <glyph glyph-name="fl" unicode="fl" horiz-adv-x="631" 
d="M569.5 -0.5q-21.5 -7.5 -55.5 -7.5q-107 0 -107 123v582q-15 15 -41.5 23.5t-56.5 8.5q-63 0 -96 -39t-33 -117v-68h134l-2 -40h-132v-465h-62v465h-79v40h79v62q0 200 195 200q80 0 156 -34v-614q0 -46 16.5 -66.5t48.5 -20.5q25 0 39.5 6t33.5 22l11 -33
q-27 -20 -48.5 -27.5z" />
    <glyph glyph-name="f_f" unicode="ff" horiz-adv-x="662" 
d="M542.5 688.5q-31.5 -38.5 -31.5 -115.5v-68h134l-2 -40h-132v-465h-62v465h-269v-465h-62v465h-79v40h79v62q0 200 184 200q34 0 64 -7.5t52 -17.5l-22 -46q-16 14 -40.5 22.5t-52.5 8.5q-60 0 -91.5 -38.5t-31.5 -115.5v-68h269v62q0 200 184 200q34 0 64 -7.5t52 -17.5
l-22 -46q-16 14 -40.5 22.5t-52.5 8.5q-60 0 -91.5 -38.5z" />
    <glyph glyph-name="f_f_i" unicode="ffi" horiz-adv-x="913" 
d="M822 0h-65v465h-246v-465h-62v465h-269v-465h-62v465h-79v40h79v62q0 200 184 200q34 0 64 -7.5t52 -17.5l-22 -46q-16 14 -40.5 22.5t-52.5 8.5q-60 0 -91.5 -38.5t-31.5 -115.5v-68h269v40q0 222 213 222q89 0 167 -43l-27 -48q-63 48 -140 48q-151 0 -151 -179v-40
h311v-505z" />
    <glyph glyph-name="f_f_l" unicode="ffl" horiz-adv-x="962" 
d="M900.5 -0.5q-21.5 -7.5 -55.5 -7.5q-107 0 -107 123v582q-15 15 -41.5 23.5t-56.5 8.5q-63 0 -96 -39t-33 -117v-68h134l-2 -40h-132v-465h-62v465h-269v-465h-62v465h-79v40h79v62q0 200 184 200q34 0 64 -7.5t52 -17.5l-22 -46q-16 14 -40.5 22.5t-52.5 8.5
q-60 0 -91.5 -38.5t-31.5 -115.5v-68h269v62q0 200 195 200q80 0 156 -34v-614q0 -46 16.5 -66.5t48.5 -20.5q25 0 39.5 6t33.5 22l11 -33q-27 -20 -48.5 -27.5z" />
    <glyph glyph-name=".notdef" horiz-adv-x="600" 
 />
    <glyph glyph-name=".null" horiz-adv-x="0" 
 />
    <glyph glyph-name="nonmarkingreturn" horiz-adv-x="333" 
 />
    <glyph glyph-name="space" unicode=" " horiz-adv-x="189" 
 />
    <glyph glyph-name="exclam" unicode="!" horiz-adv-x="345" 
d="M206 412l-6 -238h-55l-5 238v288h66v-288zM204 75q11 -12 11 -33q0 -20 -11 -31.5t-32 -11.5q-20 0 -31.5 11.5t-11.5 31.5q0 21 11.5 33t31.5 12q21 0 32 -12z" />
    <glyph glyph-name="quotedbl" unicode="&#x22;" horiz-adv-x="332" 
d="M122 495h-49l-7 205h63zM259 495h-49l-7 205h63z" />
    <glyph glyph-name="numbersign" unicode="#" horiz-adv-x="874" 
d="M586 167h158v-56h-170l-52 -255h-66l52 255h-221l-52 -255h-66l52 255h-135v56h147l53 259h-156v55h168l54 264h66l-54 -264h221l54 264h66l-54 -264h136v-55h-148zM352 426l-53 -259h221l53 259h-221z" />
    <glyph glyph-name="dollar" unicode="$" horiz-adv-x="589" 
d="M476.5 50q-52.5 -50 -144.5 -57v-130h-63v130q-139 8 -209 83l44 55q29 -37 79 -61t122 -24q77 0 118.5 32.5t41.5 95.5q0 46 -22.5 73t-55.5 41t-90 29q-66 18 -106.5 35.5t-69 57t-28.5 106.5q0 82 46.5 131.5t129.5 58.5v129h63v-128q82 -6 125.5 -46.5t43.5 -97.5
q0 -29 -10 -56h-58q7 23 7 46q0 45 -35 73t-107 28q-68 0 -105 -34t-37 -96q0 -50 23.5 -79t57.5 -42.5t93 -28.5q65 -16 104.5 -32.5t67 -54t27.5 -103.5q0 -84 -52.5 -134z" />
    <glyph glyph-name="percent" unicode="%" horiz-adv-x="1003" 
d="M387 661q48 -47 48 -125q0 -79 -48 -126.5t-129 -47.5t-129.5 47.5t-48.5 126.5q0 78 48 125t130 47q81 0 129 -47zM297 0h-77l494 700h77zM169 630q-33 -35 -33 -94q0 -60 33 -95.5t89 -35.5q55 0 88 35.5t33 95.5q0 59 -32.5 94t-88.5 35t-89 -35zM883 291
q48 -47 48 -126t-48 -126t-129 -47q-82 0 -130.5 47t-48.5 126t48.5 126t130.5 47q81 0 129 -47zM665.5 259.5q-33.5 -35.5 -33.5 -94.5q0 -60 33 -95t89 -35q55 0 88 35t33 95q0 59 -33 94.5t-88 35.5t-88.5 -35.5z" />
    <glyph glyph-name="ampersand" unicode="&#x26;" horiz-adv-x="690" 
d="M431 53q-72 -61 -163 -61q-99 0 -151 55t-52 143q0 72 36.5 124t108.5 91q-17 60 -17 116q0 90 48 138.5t136 48.5q82 0 123 -39t41 -109q0 -32 -7 -54h-59q7 20 7 50q0 47 -26 73t-79 26q-59 0 -92.5 -34t-33.5 -96q0 -103 51 -209t136 -191q39 49 66 118.5t39 149.5
l58 -11q-18 -84 -50.5 -159.5t-78.5 -129.5q85 -76 179 -111l-31 -61q-91 39 -189 132zM161.5 83.5q38.5 -44.5 108.5 -44.5q71 0 129 47q-58 61 -104.5 133t-72.5 146q-50 -33 -74.5 -73t-24.5 -95q0 -69 38.5 -113.5z" />
    <glyph glyph-name="quotesingle" unicode="'" horiz-adv-x="195" 
d="M122 495h-49l-7 205h63z" />
    <glyph glyph-name="parenleft" unicode="(" horiz-adv-x="394" 
d="M241 661.5q-34 -31.5 -53 -117.5t-19 -243t19 -242.5t53 -117t87 -31.5v-50q-74 0 -123.5 38.5t-76.5 135.5t-27 267t27 266.5t76.5 135t123.5 38.5v-48q-53 0 -87 -31.5z" />
    <glyph glyph-name="parenright" unicode=")" horiz-adv-x="394" 
d="M153.5 -60.5q34.5 31.5 53 117.5t18.5 243t-18.5 242.5t-53 117t-87.5 31.5v50q74 0 123.5 -38.5t76.5 -135.5t27 -267t-27 -266.5t-76.5 -135t-123.5 -38.5v48q53 0 87.5 31.5z" />
    <glyph glyph-name="asterisk" unicode="*" horiz-adv-x="379" 
d="M193 613h-6l-21 77l4 56h40l5 -56zM173 605l-3 -5l-76 21l-44 30l20 35l48 -23zM285 621l-75 -21l-4 5l55 58l47 23l21 -35zM118 521l-48 -23l-20 36l44 31l76 19l3 -5zM329 534l-21 -36l-47 23l-55 58l4 5l75 -19zM210 440h-40l-4 54l21 77h6l22 -77z" />
    <glyph glyph-name="plus" unicode="+" horiz-adv-x="550" 
d="M301 328v-149h-51v149h-148v50h148v149h51v-149h147v-50h-147z" />
    <glyph glyph-name="comma" unicode="," horiz-adv-x="260" 
d="M167 65.5q20 -18.5 20 -60.5q0 -47 -25 -69t-79 -24l-3 26q43 2 59.5 15.5t16.5 42.5q0 13 -5 25q-8 -25 -36 -25q-20 0 -31 11t-11 31t12 33t32 13q30 0 50 -18.5z" />
    <glyph glyph-name="hyphen" unicode="-" horiz-adv-x="488" 
d="M86 235v57h315v-57h-315z" />
    <glyph glyph-name="period" unicode="." horiz-adv-x="246" 
d="M154.5 75q11.5 -12 11.5 -33q0 -20 -11 -31.5t-33 -11.5q-20 0 -31 11.5t-11 31.5q0 21 11 33t31 12q21 0 32.5 -12z" />
    <glyph glyph-name="slash" unicode="/" horiz-adv-x="388" 
d="M69 -144l184 889h66l-184 -889h-66z" />
    <glyph glyph-name="zero" unicode="0" horiz-adv-x="610" 
d="M485.5 617.5q61.5 -90.5 61.5 -265.5q0 -176 -61.5 -268t-178.5 -92q-119 0 -181 91.5t-62 268.5q0 175 62 265.5t181 90.5q117 0 178.5 -90.5zM130 352q0 -307 176 -307q87 0 131 77t44 230q0 150 -44.5 226.5t-130.5 76.5q-176 0 -176 -303z" />
    <glyph glyph-name="one" unicode="1" horiz-adv-x="367" 
d="M237 0h-68v596l-126 -20v42q54 11 89.5 30.5t61.5 51.5h43v-700z" />
    <glyph glyph-name="two" unicode="2" horiz-adv-x="539" 
d="M487 0h-434l1 2q-2 18 -2 29q0 67 26 115.5t64.5 81t100.5 73.5q57 39 89.5 66t54.5 65.5t22 89.5q0 67 -36.5 101t-104.5 34q-69 0 -107 -36t-38 -97q0 -37 11 -60l-57 -7q-15 28 -15 73q0 81 55 129.5t153 48.5q100 0 152 -47t52 -136q0 -59 -24.5 -103t-60 -74
t-95.5 -71q-56 -38 -89.5 -65.5t-57.5 -66.5t-28 -89h368v-56z" />
    <glyph glyph-name="three" unicode="3" horiz-adv-x="542" 
d="M444.5 309q46.5 -43 46.5 -127q0 -85 -55.5 -137.5t-164.5 -52.5t-163 52t-54 139l61 7q2 -68 40 -107t114 -39q79 0 118.5 39t39.5 105q0 82 -51 114.5t-143 32.5l-4 36q89 15 131 51.5t42 108.5q0 62 -33 94t-95 32q-68 0 -102 -31t-34 -84q0 -24 5 -49l-59 -6
q-7 28 -7 60q0 73 51.5 117t146.5 44q92 0 141 -44t49 -124q0 -69 -37.5 -113.5t-102.5 -63.5q73 -11 119.5 -54z" />
    <glyph glyph-name="four" unicode="4" horiz-adv-x="568" 
d="M420 170v-170h-65v170h-325v37l298 493h92v-479h109v-51h-109zM355 654l-258 -433h258v433z" />
    <glyph glyph-name="five" unicode="5" horiz-adv-x="551" 
d="M445 375.5q53 -56.5 53 -159.5q0 -100 -58.5 -162t-164.5 -62q-97 0 -153 47.5t-61 130.5l61 7q6 -63 47 -98t107 -35q75 0 117 46.5t42 124.5q0 82 -39.5 127t-110.5 45q-54 0 -95.5 -24.5t-57.5 -61.5l-60 5l34 394h363l2 -53h-314l-27 -294q25 35 70.5 57t102.5 22
q89 0 142 -56.5z" />
    <glyph glyph-name="six" unicode="6" horiz-adv-x="567" 
d="M460 349.5q52 -52.5 52 -144.5q0 -99 -56 -156t-155 -57q-53 0 -92 17.5t-70 50.5q-40 43 -57.5 115.5t-17.5 177.5q0 175 64 265t187 90q85 0 133.5 -40.5t48.5 -110.5q0 -14 -3 -29t-7 -25l-56 2q8 17 8 46q0 49 -32.5 78.5t-92.5 29.5q-187 0 -187 -307q0 -40 3 -75
q18 57 67 91t117 34q94 0 146 -52.5zM410 86.5q39 41.5 39 116.5q0 74 -40 114t-113 40q-68 0 -110 -42.5t-42 -112.5q0 -30 17 -67t52.5 -63.5t87.5 -26.5q70 0 109 41.5z" />
    <glyph glyph-name="seven" unicode="7" horiz-adv-x="504" 
d="M464 655q-110 -110 -175 -285t-65 -370h-73q0 187 67 359t180 285h-375v56h441v-45z" />
    <glyph glyph-name="eight" unicode="8" horiz-adv-x="569" 
d="M469.5 298.5q40.5 -46.5 40.5 -119.5q0 -88 -58.5 -137.5t-166.5 -49.5t-166.5 49.5t-58.5 137.5q0 73 40 119.5t111 57.5q-61 11 -96 56t-35 115q0 84 53.5 132.5t151.5 48.5t151.5 -48.5t53.5 -132.5q0 -69 -35 -114t-96 -57q70 -11 110.5 -57.5zM177 414
q37 -38 108 -38q70 0 107 38t37 108q0 67 -37 104.5t-107 37.5t-107.5 -37.5t-37.5 -104.5q0 -70 37 -108zM405 74.5q41 38.5 41 109.5t-41 109.5t-120 38.5t-120.5 -38.5t-41.5 -109.5t41.5 -109.5t120.5 -38.5t120 38.5z" />
    <glyph glyph-name="nine" unicode="9" horiz-adv-x="555" 
d="M473 540.5q19 -73.5 19 -195.5q0 -353 -241 -353q-105 0 -187 64l38 50q59 -60 150 -60t133.5 72.5t42.5 230.5q0 41 -3 83q-13 -77 -59 -117t-121 -40q-90 0 -140 58t-50 159q0 65 26.5 114t75 75.5t111.5 26.5q44 0 82.5 -14.5t64.5 -41.5q39 -38 58 -111.5zM372 370
q37 44 37 125q0 78 -36 121t-104 43q-69 0 -110 -44t-41 -118q0 -81 38 -126t107 -45q72 0 109 44z" />
    <glyph glyph-name="colon" unicode=":" horiz-adv-x="293" 
d="M177.5 75q11.5 -12 11.5 -33q0 -20 -11 -31.5t-33 -11.5q-20 0 -31 11.5t-11 31.5q0 21 11 33t31 12q21 0 32.5 -12zM177.5 499q11.5 -12 11.5 -33q0 -20 -11 -31.5t-33 -11.5q-20 0 -31 11.5t-11 31.5q0 21 11 33t31 12q21 0 32.5 -12z" />
    <glyph glyph-name="semicolon" unicode=";" horiz-adv-x="325" 
d="M201.5 65.5q19.5 -18.5 19.5 -60.5q0 -47 -24.5 -69t-77.5 -24l-3 26q42 2 58.5 15.5t16.5 42.5q0 13 -5 25q-8 -25 -36 -25q-19 0 -30 11t-11 31t12 33t31 13q30 0 49.5 -18.5zM179.5 499q11.5 -12 11.5 -33q0 -20 -11 -31.5t-33 -11.5q-20 0 -31 11.5t-11 31.5
q0 21 11 33t31 12q21 0 32.5 -12z" />
    <glyph glyph-name="less" unicode="&#x3c;" horiz-adv-x="550" 
d="M71 330l383 -183v63l-320 143l320 143v63l-383 -183v-46z" />
    <glyph glyph-name="equal" unicode="=" horiz-adv-x="550" 
d="M100 420v52h335v-52h-335zM100 234v52h335v-52h-335z" />
    <glyph glyph-name="greater" unicode="&#x3e;" horiz-adv-x="550" 
d="M479 330l-383 -183v63l320 143l-320 143v63l383 -183v-46z" />
    <glyph glyph-name="question" unicode="?" horiz-adv-x="525" 
d="M418 661q52 -47 52 -134q0 -40 -12.5 -68.5t-30.5 -47.5t-49 -45q-34 -29 -54.5 -50.5t-35 -56.5t-14.5 -85h-47q-2 16 -2 17q0 51 13.5 86t33 57t51.5 48q27 23 43.5 40t27 42t10.5 60q0 66 -36 99.5t-104 33.5q-69 0 -107 -36t-38 -97q0 -34 10 -60l-57 -7
q-14 33 -14 73q0 81 55.5 129.5t152.5 48.5q100 0 152 -47zM283.5 75q11.5 -12 11.5 -33q0 -20 -11 -31.5t-33 -11.5q-20 0 -31.5 11.5t-11.5 31.5q0 21 11.5 33t31.5 12q21 0 32.5 -12z" />
    <glyph glyph-name="at" unicode="@" horiz-adv-x="1028" 
d="M866 -93l17 -38q-129 -73 -351 -73q-139 0 -244.5 46t-165 138t-59.5 226q0 148 63 253t172 158t244 53q145 0 239.5 -48t139 -131t44.5 -190q0 -96 -31 -166t-84.5 -106.5t-120.5 -36.5q-56 0 -83.5 25.5t-30.5 85.5q-24 -53 -67 -82t-96 -29q-70 0 -109.5 47.5
t-39.5 138.5q0 90 29.5 154.5t80 98t112.5 33.5q86 0 134 -48l19 40l40 -5l-37 -291q-4 -28 -4 -54q0 -48 17 -63t54 -15q44 0 81.5 33t59.5 95t22 145q0 148 -89 237.5t-281 89.5q-121 0 -217 -47.5t-152 -143t-56 -231.5q0 -182 111 -275t304 -93q218 0 335 69z
M598.5 409.5q-25.5 9.5 -62.5 9.5q-75 0 -121.5 -59.5t-46.5 -169.5q0 -71 29.5 -108.5t81.5 -37.5q56 0 94.5 39t47.5 108l24 190q-21 19 -46.5 28.5z" />
    <glyph glyph-name="A" unicode="A" horiz-adv-x="570" 
d="M134 174l-54 -174h-57l225 700h72l226 -700h-68l-53 174h-291zM279 647l-129 -419h258z" />
    <glyph glyph-name="B" unicode="B" horiz-adv-x="627" 
d="M557 186q0 -91 -58 -138.5t-172 -47.5h-214v700h198q109 0 165 -43.5t56 -128.5q0 -71 -32.5 -113t-101.5 -55q159 -26 159 -174zM179 382h129q159 0 159 137q0 131 -160 131h-128v-268zM489 192q0 140 -177 140h-133v-282h125q185 2 185 142z" />
    <glyph glyph-name="C" unicode="C" horiz-adv-x="605" 
d="M470 664q52 -44 52 -116q0 -39 -10 -67h-57q8 24 8 61q0 50 -35.5 82t-95.5 32q-100 0 -151 -79.5t-51 -232.5q0 -147 51.5 -220t156.5 -73q117 0 176 80l28 -46q-77 -93 -212 -93t-201 88t-66 264q0 177 69 270.5t202 93.5q84 0 136 -44z" />
    <glyph glyph-name="D" unicode="D" horiz-adv-x="650" 
d="M512 614q75 -86 75 -264q0 -179 -73 -264.5t-224 -85.5h-177v700h169q155 0 230 -86zM465 124.5q57 71.5 57 225.5t-57.5 225.5t-181.5 71.5h-104v-594h106q123 0 180 71.5z" />
    <glyph glyph-name="E" unicode="E" horiz-adv-x="578" 
d="M518 0h-405v700h383v-53h-317v-268h288v-51h-288v-275h339v-53z" />
    <glyph glyph-name="F" unicode="F" horiz-adv-x="551" 
d="M179 363h278v-50h-278v-313h-66v700h375v-53h-309v-284z" />
    <glyph glyph-name="G" unicode="G" horiz-adv-x="633" 
d="M554 0h-33l-18 137q-24 -72 -73.5 -108.5t-120.5 -36.5q-117 0 -181.5 88.5t-64.5 258.5q0 179 73.5 274t209.5 95q88 0 141.5 -43.5t53.5 -114.5q0 -39 -10 -60h-57q8 21 8 54q0 49 -36.5 80.5t-100.5 31.5q-216 0 -216 -317q0 -149 49 -223t143 -74q81 0 127 62t46 188
v6h-177v50h237v-348z" />
    <glyph glyph-name="H" unicode="H" horiz-adv-x="681" 
d="M568 0h-66v330h-323v-330h-66v700h66v-314h323v314h66v-700z" />
    <glyph glyph-name="I" unicode="I" horiz-adv-x="291" 
d="M113 0v700h66v-700h-66z" />
    <glyph glyph-name="J" unicode="J" horiz-adv-x="323" 
d="M208.5 28.5q-34.5 -36.5 -101.5 -36.5q-55 0 -102 22l19 56q19 -13 36.5 -19t39.5 -6q41 0 59.5 24t18.5 82v549h65v-557q0 -78 -34.5 -114.5z" />
    <glyph glyph-name="K" unicode="K" horiz-adv-x="616" 
d="M179 222v-222h-66v700h66v-393l302 393h75l-241 -306l267 -394h-79l-230 341z" />
    <glyph glyph-name="L" unicode="L" horiz-adv-x="504" 
d="M479 0h-366v700h66v-644h300v-56z" />
    <glyph glyph-name="M" unicode="M" horiz-adv-x="847" 
d="M734 0h-65v627l-222 -627h-54l-223 629v-629h-57v700h95l217 -603l216 603h93v-700z" />
    <glyph glyph-name="N" unicode="N" horiz-adv-x="679" 
d="M566 0h-55l-339 584v-584h-59v700h65l329 -573v573h59v-700z" />
    <glyph glyph-name="O" unicode="O" horiz-adv-x="631" 
d="M503 617q65 -91 65 -266q0 -176 -65 -267.5t-187 -91.5q-123 0 -188 91.5t-65 267.5q0 175 65 266t188 91q122 0 187 -91zM177.5 578.5q-47.5 -76.5 -47.5 -227.5q0 -153 47.5 -229.5t138.5 -76.5t138 76.5t47 229.5q0 151 -47 227.5t-138 76.5t-138.5 -76.5z" />
    <glyph glyph-name="P" unicode="P" horiz-adv-x="592" 
d="M470.5 648q59.5 -52 59.5 -166q0 -111 -59 -161.5t-186 -50.5h-106v-270h-66v700h169q129 0 188.5 -52zM422 357q44 37 44 125q0 90 -44 129t-144 39h-99v-330h99q100 0 144 37z" />
    <glyph glyph-name="Q" unicode="Q" horiz-adv-x="634" 
d="M455 -86.5q65 -31.5 149 -38.5l-11 -59q-100 10 -179 57t-112 119q-116 5 -177.5 96.5t-61.5 262.5q0 175 65 266t188 91q122 0 187 -91t65 -266q0 -162 -55 -252.5t-160 -104.5q37 -49 102 -80.5zM177.5 121.5q47.5 -76.5 138.5 -76.5t138 76.5t47 229.5
q0 151 -47 227.5t-138 76.5t-138.5 -76.5t-47.5 -227.5q0 -153 47.5 -229.5z" />
    <glyph glyph-name="R" unicode="R" horiz-adv-x="623" 
d="M510 378q-39 -50 -111 -64l139 -314h-74l-130 307h-155v-307h-66v700h219q105 0 161 -48.5t56 -144.5q0 -79 -39 -129zM341 356q68 0 105.5 38.5t37.5 109.5q0 74 -39 109.5t-118 35.5h-148v-293h162z" />
    <glyph glyph-name="S" unicode="S" horiz-adv-x="589" 
d="M450.5 666.5q50.5 -41.5 50.5 -103.5q0 -29 -10 -56h-58q7 23 7 46q0 45 -35 73t-107 28q-68 0 -105 -34t-37 -96q0 -50 23.5 -79t57.5 -42.5t93 -28.5q65 -16 104.5 -32.5t67 -54t27.5 -103.5q0 -91 -60.5 -141.5t-165.5 -50.5q-164 0 -243 84l44 55q29 -37 79 -61
t122 -24q77 0 118.5 32.5t41.5 95.5q0 46 -22.5 73t-55.5 41t-90 29q-66 18 -106.5 35.5t-69 57t-28.5 106.5q0 90 56 141t156 51q95 0 145.5 -41.5z" />
    <glyph glyph-name="T" unicode="T" horiz-adv-x="569" 
d="M317 644v-644h-66v644h-234v56h534v-56h-234z" />
    <glyph glyph-name="U" unicode="U" horiz-adv-x="606" 
d="M136 52.5q-56 58.5 -56 173.5v474h66v-470q0 -90 40.5 -136.5t121.5 -46.5q160 0 160 183v470h58v-474q0 -113 -56.5 -172.5t-167.5 -59.5q-110 0 -166 58.5z" />
    <glyph glyph-name="V" unicode="V" horiz-adv-x="602" 
d="M337 0h-70l-229 700h75l193 -637l196 637h63z" />
    <glyph glyph-name="W" unicode="W" horiz-adv-x="900" 
d="M683 0h-62l-170 614l-168 -614h-64l-159 700h64l133 -612l164 612h68l164 -607l132 607h55z" />
    <glyph glyph-name="X" unicode="X" horiz-adv-x="628" 
d="M309 312l-181 -312h-67l209 357l-197 343h75l169 -291l169 291h65l-196 -335l212 -365h-77z" />
    <glyph glyph-name="Y" unicode="Y" horiz-adv-x="571" 
d="M319 0h-65v278l-224 422h78l184 -364l185 364h65l-223 -423v-277z" />
    <glyph glyph-name="Z" unicode="Z" horiz-adv-x="533" 
d="M487 0h-441v41l343 605h-328v54h410v-45l-341 -601h357v-54z" />
    <glyph glyph-name="bracketleft" unicode="[" horiz-adv-x="404" 
d="M183 693v-783h155v-50h-220v881h220v-48h-155z" />
    <glyph glyph-name="backslash" unicode="\" horiz-adv-x="388" 
d="M319 -144l-184 889h-66l184 -889h66z" />
    <glyph glyph-name="bracketright" unicode="]" horiz-adv-x="404" 
d="M221 -92v783h-155v50h220v-881h-220v48h155z" />
    <glyph glyph-name="asciicircum" unicode="^" horiz-adv-x="518" 
d="M255 492l-111 -223h-58l149 275h41l156 -275h-58z" />
    <glyph glyph-name="underscore" unicode="_" horiz-adv-x="315" 
d="M0 -162v42h315v-42h-315z" />
    <glyph glyph-name="grave" unicode="`" horiz-adv-x="327" 
d="M187 576l-103 147h72l88 -147h-57z" />
    <glyph glyph-name="a" unicode="a" horiz-adv-x="512" 
d="M441 -2q-71 0 -75 83q-24 -41 -67 -65t-99 -24q-70 0 -107.5 33.5t-37.5 92.5q0 73 67.5 114.5t243.5 42.5v63q0 76 -26 107t-88 31q-60 0 -89 -25.5t-29 -72.5q0 -11 2 -23l-56 -4q-3 14 -3 33q0 58 44 93.5t131 35.5q92 0 134.5 -42.5t42.5 -136.5v-252q0 -48 33 -48
q13 0 23 8l9 -27q-19 -17 -53 -17zM323 74q43 41 43 108v64q-142 -1 -195 -34.5t-53 -90.5q0 -41 26.5 -64.5t72.5 -23.5q63 0 106 41z" />
    <glyph glyph-name="b" unicode="b" horiz-adv-x="544" 
d="M443.5 448.5q47.5 -64.5 47.5 -190.5q0 -129 -57.5 -197.5t-163.5 -68.5q-53 0 -102 14t-85 37v716h62v-352q22 52 65 79t102 27q84 0 131.5 -64.5zM387.5 93q40.5 56 40.5 162q0 103 -37 155.5t-103 52.5t-104.5 -44.5t-38.5 -127.5v-219q25 -16 58.5 -25.5t67.5 -9.5
q76 0 116.5 56z" />
    <glyph glyph-name="c" unicode="c" horiz-adv-x="488" 
d="M397 475q40 -38 40 -98q0 -30 -8 -52l-54 4q6 18 6 46q0 44 -26.5 69t-78.5 26q-77 -1 -119 -56.5t-42 -163.5q0 -100 45 -155t122 -55q49 0 83.5 19t53.5 50l31 -35q-27 -36 -72 -59t-106 -23q-101 0 -160 65.5t-59 188.5q0 130 59.5 198.5t164.5 68.5q80 0 120 -38z
" />
    <glyph glyph-name="d" unicode="d" horiz-adv-x="552" 
d="M468 0h-43l-14 97q-20 -51 -63 -78t-105 -27q-86 0 -138 64.5t-52 187.5q0 132 59 200.5t161 68.5q78 0 133 -33v279h62v-759zM365 77q36 34 41 99v267q-25 12 -51.5 18t-61.5 6q-84 0 -131 -54.5t-47 -162.5q0 -101 40.5 -154t108.5 -53q65 0 101 34z" />
    <glyph glyph-name="e" unicode="e" horiz-adv-x="502" 
d="M420 100l23 -41q-29 -30 -72.5 -48.5t-100.5 -18.5q-102 0 -159.5 66.5t-57.5 194.5q0 83 27.5 141.5t76 88.5t112.5 30q82 0 129 -49.5t47 -151.5q0 -38 -8 -67h-322q1 -101 45 -154t120 -53q88 0 140 62zM163 426.5q-40 -47.5 -47 -140.5h271q4 22 4 36q0 76 -33 114
t-92 38q-63 0 -103 -47.5z" />
    <glyph glyph-name="f" unicode="f" horiz-adv-x="331" 
d="M211.5 688.5q-31.5 -38.5 -31.5 -115.5v-68h134l-2 -40h-132v-465h-62v465h-79v40h79v62q0 200 184 200q34 0 64 -7.5t52 -17.5l-22 -46q-16 14 -40.5 22.5t-52.5 8.5q-60 0 -91.5 -38.5z" />
    <glyph glyph-name="g" unicode="g" horiz-adv-x="539" 
d="M466 36q0 -122 -57 -183t-168 -61q-57 0 -103 12.5t-88 37.5l33 58q65 -59 158 -59q81 0 121.5 45.5t40.5 143.5v68q-22 -51 -63.5 -78.5t-97.5 -27.5q-90 0 -141 64t-51 191q0 85 26 145t72 90.5t106 30.5q94 0 158 -59l16 51h38v-469zM360 77q37 37 43 106v234
q-50 50 -133 50q-73 0 -115 -54.5t-42 -161.5q0 -104 39 -157.5t111 -53.5q60 0 97 37z" />
    <glyph glyph-name="h" unicode="h" horiz-adv-x="562" 
d="M454 462.5q40 -50.5 40 -155.5v-307h-63v303q0 79 -30.5 118.5t-99.5 39.5q-70 0 -110 -42.5t-40 -120.5v-298h-62v759h62v-356q22 54 67.5 82t108.5 28q87 0 127 -50.5z" />
    <glyph glyph-name="i" unicode="i" horiz-adv-x="259" 
d="M97 0v505h65v-505h-65zM162 681q12 -11 12 -30t-12 -29.5t-34 -10.5q-21 0 -33 10.5t-12 29.5t12 30t33 11q22 0 34 -11z" />
    <glyph glyph-name="j" unicode="j" horiz-adv-x="263" 
d="M82.5 -139.5q21.5 24.5 21.5 79.5v565h62v-553q0 -83 -37.5 -121.5t-118.5 -38.5q-50 0 -89 15l18 48q33 -19 72 -19q50 0 71.5 24.5zM168 681q12 -11 12 -30t-12 -29.5t-34 -10.5q-21 0 -33 10.5t-12 29.5t12 30t33 11q22 0 34 -11z" />
    <glyph glyph-name="k" unicode="k" horiz-adv-x="533" 
d="M151 154v-154h-62v759h62v-538l247 284h70l-195 -216l213 -289h-73l-179 246z" />
    <glyph glyph-name="l" unicode="l" horiz-adv-x="307" 
d="M209 32q22 0 36 6t32 22l17 -33q-26 -20 -47.5 -27.5t-56.5 -7.5q-107 0 -107 123v644h62v-640q0 -87 64 -87z" />
    <glyph glyph-name="m" unicode="m" horiz-adv-x="895" 
d="M785 461q41 -52 41 -157v-304h-62v303q0 79 -31 118.5t-99 39.5q-70 0 -110 -42.5t-40 -120.5v-298h-62v303q0 79 -31 118.5t-100 39.5t-109 -42.5t-40 -120.5v-298h-62v505h46l11 -111q21 58 67.5 88.5t111.5 30.5q67 0 106.5 -31t53.5 -93q20 60 67.5 92t114.5 32
q86 0 127 -52z" />
    <glyph glyph-name="n" unicode="n" horiz-adv-x="552" 
d="M444.5 460.5q39.5 -52.5 39.5 -159.5v-301h-62v295q0 85 -29 125.5t-102 40.5q-69 0 -109 -44.5t-40 -126.5v-290h-62v505h46l10 -119q20 61 67 94t114 33q88 0 127.5 -52.5z" />
    <glyph glyph-name="o" unicode="o" horiz-adv-x="528" 
d="M421.5 447q52.5 -66 52.5 -194t-52.5 -194.5t-155.5 -66.5q-104 0 -158.5 66t-54.5 193q0 129 54 195.5t159 66.5q103 0 155.5 -66zM115 251q0 -214 151 -214q74 0 110 53.5t36 162.5q0 215 -146 215q-151 0 -151 -217z" />
    <glyph glyph-name="p" unicode="p" horiz-adv-x="549" 
d="M450.5 451q45.5 -62 45.5 -196q0 -132 -52 -197.5t-150 -65.5q-88 0 -152 61v-253h-62v705h46l11 -120q19 61 64 94.5t110 33.5q94 0 139.5 -62zM395 91q38 53 38 164q0 109 -35 158.5t-108 49.5q-68 0 -108 -45t-40 -122v-207q60 -51 137 -51q78 0 116 53z" />
    <glyph glyph-name="q" unicode="q" horiz-adv-x="537" 
d="M468 -200h-62v298q-22 -51 -63.5 -78.5t-97.5 -27.5q-90 0 -141 64t-51 191q0 128 56 197t148 69q94 0 158 -59l16 51h37v-705zM362.5 79.5q37.5 36.5 43.5 104.5v233q-50 50 -134 50q-73 0 -115 -54.5t-42 -161.5q0 -102 39.5 -155t110.5 -53q60 0 97.5 36.5z" />
    <glyph glyph-name="r" unicode="r" horiz-adv-x="414" 
d="M358.5 481.5q26.5 -31.5 26.5 -86.5q0 -43 -19 -79l-44 6q11 25 11 55q0 84 -78 84q-53 0 -83 -42t-30 -124v-295h-62v505h46l10 -114q16 59 53 90.5t89 31.5q54 0 80.5 -31.5z" />
    <glyph glyph-name="s" unicode="s" horiz-adv-x="483" 
d="M369.5 483q41.5 -30 41.5 -79q0 -17 -6 -43l-48 6q4 15 4 34q0 31 -28.5 50.5t-87.5 19.5q-56 0 -87 -24t-31 -67q0 -36 18.5 -56.5t45.5 -30t75 -20.5q55 -11 88 -23.5t56 -41.5t23 -81q0 -65 -48.5 -100t-135.5 -35q-75 0 -124.5 22t-79.5 65l31 43q27 -44 69 -64.5
t108 -20.5q60 0 93.5 21.5t33.5 62.5q0 34 -18 54t-45 29t-73 19q-56 12 -89.5 25t-57 42t-23.5 82q0 66 45 103.5t125 37.5q84 0 125.5 -30z" />
    <glyph glyph-name="t" unicode="t" horiz-adv-x="367" 
d="M297.5 8.5q-30.5 -16.5 -76.5 -16.5q-57 0 -86 33t-29 95v345h-81v40h63q15 0 20.5 4.5t7.5 15.5l9 96h43v-116h161l-1 -40h-160v-342q0 -39 19.5 -62t53.5 -23q29 0 49.5 11t37.5 33l22 -27q-22 -30 -52.5 -46.5z" />
    <glyph glyph-name="u" unicode="u" horiz-adv-x="540" 
d="M463 0h-43l-14 104q-21 -53 -67 -82.5t-109 -29.5q-83 0 -122.5 44t-39.5 144v325h62v-317q0 -76 29.5 -110t94.5 -34q67 0 107 37.5t40 108.5v315h62v-505z" />
    <glyph glyph-name="v" unicode="v" horiz-adv-x="495" 
d="M285 0h-75l-185 505h64l161 -457l160 457h60z" />
    <glyph glyph-name="w" unicode="w" horiz-adv-x="734" 
d="M568 0h-72l-125 437l-129 -437h-71l-138 506h60l120 -441l130 441h62l128 -441l114 441h54z" />
    <glyph glyph-name="x" unicode="x" horiz-adv-x="499" 
d="M245 219l-146 -219h-61l173 258l-161 248h74l130 -199l132 199h61l-158 -239l173 -267h-71z" />
    <glyph glyph-name="y" unicode="y" horiz-adv-x="509" 
d="M286 -26q-26 -69 -53 -108.5t-61.5 -56.5t-83.5 -17q-75 0 -132 35l29 53q43 -40 106 -40q35 0 58.5 11t42.5 39t38 80l11 30h-17l-193 505h68l163 -448l164 448h58z" />
    <glyph glyph-name="z" unicode="z" horiz-adv-x="467" 
d="M419 0h-370v29l276 423h-264v53h346v-31l-275 -421h287v-53z" />
    <glyph glyph-name="braceleft" unicode="{" horiz-adv-x="399" 
d="M223 631q-10 -24 -10 -66q0 -25 6 -81q1 -10 3 -34.5t2 -42.5q0 -50 -19.5 -77.5t-70.5 -27.5v-3q61 0 81 -44q9 -22 9 -61q0 -18 -2 -42t-3 -34q-6 -54 -6 -80q0 -61 25.5 -94.5t94.5 -33.5v-50q-75 0 -116 23t-56 65q-11 32 -11 77q0 29 6 83q1 11 3 34t2 40
q0 46 -18 71t-66 25v47q53 0 71 34q11 22 11 59q0 21 -6 75q-6 56 -6 85q0 76 39.5 119.5t146.5 43.5v-48q-88 0 -110 -62z" />
    <glyph glyph-name="bar" unicode="|" horiz-adv-x="381" 
d="M158 -144v889h65v-889h-65z" />
    <glyph glyph-name="braceright" unicode="}" horiz-adv-x="399" 
d="M176 -30q9 24 9 66q0 19 -2 44.5t-3 35.5q-5 45 -5 76q0 51 19 79t71 28v2q-61 0 -81 45q-9 22 -9 61q0 18 2 42t3 34q6 54 6 80q0 61 -25.5 94.5t-94.5 33.5v50q75 0 115.5 -23t55.5 -64q11 -33 11 -78q0 -21 -2 -46.5t-3 -35.5q-5 -42 -5 -72q0 -48 18 -73.5t66 -25.5
v-47q-53 0 -72 -34q-11 -22 -11 -60q0 -21 6 -75q6 -56 6 -85q0 -76 -39 -119t-146 -43v48q87 0 110 62z" />
    <glyph glyph-name="asciitilde" unicode="~" horiz-adv-x="600" 
d="M500 314.5q-29 -32.5 -85 -32.5q-26 0 -54 10t-71 30q-36 17 -57 25t-40 8q-71 0 -71 -76h-39q0 63 28.5 95.5t83.5 32.5q28 0 57.5 -10.5t68.5 -29.5q6 -3 28.5 -12.5t39.5 -14.5t30 -5q36 0 53.5 18.5t17.5 57.5h39q0 -64 -29 -96.5z" />
    <glyph glyph-name="exclamdown" unicode="&#xa1;" horiz-adv-x="312" 
d="M124.5 430q-11.5 12 -11.5 33t11.5 32t32.5 11q20 0 31 -11.5t11 -31.5q0 -21 -11 -33t-31 -12q-21 0 -32.5 12zM122 94l6 237h55l5 -237v-289h-66v289z" />
    <glyph glyph-name="cent" unicode="&#xa2;" horiz-adv-x="487" 
d="M388 20q-38 -22 -89 -27v-130h-63v131q-85 12 -134 76.5t-49 175.5q0 116 48.5 183.5t134.5 80.5v133h63v-131q69 -5 103.5 -42t34.5 -93q0 -30 -8 -52l-54 4q6 18 6 46q0 44 -26.5 69t-78.5 26q-77 -1 -119 -56.5t-42 -163.5q0 -100 45 -155t122 -55q49 0 83.5 19
t53.5 50l31 -35q-24 -32 -62 -54z" />
    <glyph glyph-name="sterling" unicode="&#xa3;" horiz-adv-x="649" 
d="M597 0h-549v50h1q45 0 68.5 30.5t31.5 80t10 126.5h-83v54h85q3 114 16.5 189t60.5 126.5t142 51.5q85 0 131.5 -43.5t46.5 -119.5q0 -40 -10 -64h-51q9 23 9 58q0 54 -32 85.5t-94 31.5q-68 0 -101 -42.5t-43 -105t-15 -167.5h240v-54h-243q-4 -87 -18.5 -145.5
t-49.5 -91.5h447v-50z" />
    <glyph glyph-name="currency" unicode="&#xa4;" horiz-adv-x="627" 
d="M473 241l105 -102l-46 -47l-104 107q-50 -32 -114 -32t-114 32l-104 -106l-47 46l106 102q-38 51 -38 116q0 66 37 116l-104 102l46 47l104 -106q50 32 114 32q65 0 115 -33l102 107l47 -46l-105 -102q38 -51 38 -117q0 -67 -38 -116zM187 280.5q19 -34.5 53 -54
t75 -19.5t74.5 19.5t52.5 54t19 76.5t-19 76.5t-52.5 54t-74.5 19.5t-75 -19.5t-53 -54t-19 -76.5t19 -76.5z" />
    <glyph glyph-name="yen" unicode="&#xa5;" horiz-adv-x="601" 
d="M510 306v-47h-191v-259h-65v259h-159v47h144l-209 394h78l184 -364l185 364h65l-208 -394h176z" />
    <glyph glyph-name="brokenbar" unicode="&#xa6;" horiz-adv-x="381" 
d="M158 356v389h65v-389h-65zM158 -144v389h65v-389h-65z" />
    <glyph glyph-name="section" unicode="&#xa7;" horiz-adv-x="674" 
d="M570 -36q0 -51 -28.5 -90t-80.5 -60.5t-122 -21.5q-89 0 -150.5 23t-97.5 61l35 51q33 -38 87 -62t130 -24t119.5 31t43.5 82q0 43 -26 68.5t-64.5 38.5t-106.5 27q-83 19 -132.5 37t-85 58.5t-35.5 111.5q0 55 32.5 99t88.5 69q-71 45 -71 132q0 80 61.5 126t171.5 46
q150 0 241 -83l-34 -50q-83 83 -211 83q-80 0 -123 -30t-43 -82q0 -41 26 -66t65 -38.5t105 -29.5q82 -20 132 -39t85.5 -60t35.5 -109q0 -56 -30.5 -100t-79.5 -70q62 -45 62 -129zM145.5 224.5q28.5 -30.5 71 -45t114.5 -28.5q92 -18 135 -36q41 20 66.5 56t25.5 81
q0 50 -28.5 80t-71.5 44.5t-114 30.5q-33 7 -67.5 16t-60.5 20q-48 -20 -73.5 -55.5t-25.5 -80.5q0 -52 28.5 -82.5z" />
    <glyph glyph-name="dieresis" unicode="&#xa8;" horiz-adv-x="431" 
d="M168.5 679q11.5 -11 11.5 -30t-11.5 -29t-32.5 -10t-32.5 10t-11.5 29t11.5 30t32.5 11t32.5 -11zM328.5 679q11.5 -11 11.5 -30t-11.5 -29t-32.5 -10t-32.5 10t-11.5 29t11.5 30t32.5 11t32.5 -11z" />
    <glyph glyph-name="copyright" unicode="&#xa9;" horiz-adv-x="641" 
d="M524.5 768.5q73.5 -71.5 73.5 -196.5q0 -126 -73.5 -197.5t-203.5 -71.5t-204 71.5t-74 197.5q0 125 74 196.5t204 71.5t203.5 -71.5zM150 742q-61 -61 -61 -170t61.5 -170.5t170.5 -61.5t170 61t61 171t-60.5 170.5t-170.5 60.5t-171 -61zM394 704q25 -21 25 -56
q0 -20 -5 -30h-34q3 12 3 27q0 20 -15 33.5t-41 13.5q-43 0 -65 -31.5t-22 -91.5q0 -115 91 -115q49 0 82 35l14 -29q-37 -42 -100 -42q-130 0 -130 151q0 76 33.5 116t98.5 40q40 0 65 -21z" />
    <glyph glyph-name="ordfeminine" unicode="&#xaa;" horiz-adv-x="393" 
d="M321 351q-51 0 -55 58q-17 -29 -47 -46t-68 -17q-44 0 -68.5 23t-24.5 62q0 51 44.5 80t163.5 30v45q0 49 -16.5 70t-55.5 21q-37 0 -56 -18t-19 -50q0 -8 2 -16l-45 -2q-4 10 -4 23q0 40 30.5 65t91.5 25q67 0 94.5 -29.5t27.5 -95.5v-167q0 -32 22 -32q11 0 18 5l3 -22
q-16 -12 -38 -12zM238.5 406.5q27.5 26.5 27.5 71.5v42q-89 -1 -123 -23t-34 -60q0 -26 16.5 -41.5t45.5 -15.5q40 0 67.5 26.5z" />
    <glyph glyph-name="guillemotleft" unicode="&#xab;" horiz-adv-x="471" 
d="M181 55l-115 206l114 206l56 -13l-101 -193l102 -193zM362 55l-115 206l114 206l56 -13l-101 -193l102 -193z" />
    <glyph glyph-name="logicalnot" unicode="&#xac;" horiz-adv-x="550" 
d="M448 214h-51v114h-295v50h346v-164z" />
    <glyph glyph-name="registered" unicode="&#xae;" horiz-adv-x="641" 
d="M524.5 768.5q73.5 -71.5 73.5 -196.5q0 -126 -73.5 -197.5t-203.5 -71.5t-204 71.5t-74 197.5q0 125 74 196.5t204 71.5t203.5 -71.5zM492.5 399.5q59.5 59.5 59.5 172.5q0 112 -59.5 171.5t-171.5 59.5q-113 0 -172.5 -59.5t-59.5 -171.5t59.5 -172t172.5 -60
q112 0 171.5 59.5zM418 585.5q-16 -20.5 -47 -27.5l57 -132h-40l-52 125h-69v-125h-38v294h108q97 0 97 -83q0 -31 -16 -51.5zM382 594q16 15 16 41q0 57 -64 57h-67v-113h72q27 0 43 15z" />
    <glyph glyph-name="macron" unicode="&#xaf;" horiz-adv-x="448" 
d="M361 617h-275v46h275v-46z" />
    <glyph glyph-name="degree" unicode="&#xb0;" horiz-adv-x="391" 
d="M288.5 675q35.5 -33 35.5 -86t-35.5 -85t-93.5 -32t-93.5 32.5t-35.5 84.5q0 53 35.5 86t93.5 33t93.5 -33zM136.5 650q-23.5 -24 -23.5 -61q0 -36 23 -60t59 -24t59 24t23 60q0 38 -22.5 61.5t-59.5 23.5q-35 0 -58.5 -24z" />
    <glyph glyph-name="plusminus" unicode="&#xb1;" horiz-adv-x="550" 
d="M301 395v-149h-51v149h-148v50h148v149h51v-149h147v-50h-147zM102 109v50h346v-50h-346z" />
    <glyph glyph-name="twosuperior" unicode="&#xb2;" horiz-adv-x="333" 
d="M300 399h-267q-1 8 -1 22q0 38 16 66t39 46t60 41q49 31 73 55t24 62q0 71 -79 71q-38 0 -59.5 -18t-21.5 -49q0 -21 6 -34l-42 -5q-10 14 -10 42q0 46 34 74t94 28q63 0 95 -27t32 -79q0 -48 -28.5 -78t-82.5 -64q-47 -30 -71 -53t-29 -57h218v-43z" />
    <glyph glyph-name="threesuperior" unicode="&#xb3;" horiz-adv-x="362" 
d="M286 574q27 -24 27 -70q0 -50 -34 -79.5t-102 -29.5q-69 0 -103 29.5t-34 81.5l48 5q1 -36 22.5 -57t64.5 -21q45 0 67.5 20.5t22.5 53.5q0 43 -30 61t-83 18l-3 26q52 8 76.5 27.5t24.5 57.5q0 65 -73 65q-38 0 -56.5 -16t-18.5 -44q0 -14 3 -26l-45 -4q-5 22 -5 36
q0 42 32 67t91 25t89.5 -25t30.5 -71q0 -37 -22 -62.5t-59 -36.5q42 -7 69 -31z" />
    <glyph glyph-name="acute" unicode="&#xb4;" horiz-adv-x="327" 
d="M84 576l87 147h71l-103 -147h-55z" />
    <glyph glyph-name="paragraph" unicode="&#xb6;" horiz-adv-x="594" 
d="M420 0h-41v651h-60q-90 0 -136.5 -44.5t-46.5 -129.5q0 -82 47 -127t136 -45h26v-50h-33q-116 0 -178 58.5t-62 164.5q0 107 62.5 164.5t179.5 57.5h106v-700zM481 0h-41v700h41v-700z" />
    <glyph glyph-name="periodcentered" unicode="&#xb7;" horiz-adv-x="244" 
d="M154.5 296q11.5 -12 11.5 -33q0 -20 -11 -31.5t-33 -11.5q-20 0 -31 11.5t-11 31.5q0 21 11 33t31 12q21 0 32.5 -12z" />
    <glyph glyph-name="cedilla" unicode="&#xb8;" horiz-adv-x="381" 
d="M203 -55q45 -6 68 -24.5t23 -51.5q0 -37 -26.5 -57t-76.5 -20q-36 0 -65 10.5t-46 26.5l27 38q30 -42 89 -42q26 0 41.5 11.5t15.5 32.5q0 22 -20.5 33t-65.5 16l3 90h34z" />
    <glyph glyph-name="onesuperior" unicode="&#xb9;" horiz-adv-x="219" 
d="M142 399h-50v321l-74 -10l-1 29q77 14 93 57h32v-397z" />
    <glyph glyph-name="ordmasculine" unicode="&#xba;" horiz-adv-x="375" 
d="M291 657.5q35 -45.5 35 -132.5t-35 -132.5t-102 -45.5q-69 0 -104.5 44.5t-35.5 132.5t35.5 133.5t104.5 45.5q67 0 102 -45.5zM99 524q0 -73 22.5 -108t67.5 -35q44 0 65 35.5t21 108.5t-21.5 108.5t-64.5 35.5q-90 0 -90 -145z" />
    <glyph glyph-name="guillemotright" unicode="&#xbb;" horiz-adv-x="471" 
d="M290 467l115 -206l-114 -206l-56 13l101 193l-102 193zM109 467l115 -206l-114 -206l-56 13l101 193l-102 193z" />
    <glyph glyph-name="onequarter" unicode="&#xbc;" horiz-adv-x="734" 
d="M142 313h-50v321l-74 -10l-1 29q77 14 93 57h32v-397zM48 0l511 700h58l-511 -700h-58zM643 90v-90h-49v90h-196v29l176 276h69v-266h64v-39h-64zM594 360l-145 -231h145v231z" />
    <glyph glyph-name="onehalf" unicode="&#xbd;" horiz-adv-x="764" 
d="M142 313h-50v321l-74 -10l-1 29q77 14 93 57h32v-397zM48 0l511 700h58l-511 -700h-58zM732 0h-267q-1 7 -1 22q0 38 16 65.5t38.5 46t60.5 41.5q48 29 72.5 54t24.5 63q0 71 -79 71q-38 0 -59.5 -18.5t-21.5 -48.5q0 -21 6 -34l-42 -5q-10 14 -10 42q0 46 34 73.5
t94 27.5q63 0 95 -27t32 -78q0 -34 -15.5 -59.5t-36.5 -42t-59 -41.5q-47 -30 -71 -52.5t-29 -57.5h218v-42z" />
    <glyph glyph-name="threequarters" unicode="&#xbe;" horiz-adv-x="854" 
d="M286 488q27 -24 27 -70q0 -50 -34 -79.5t-102 -29.5q-69 0 -103 29.5t-34 81.5l48 5q1 -36 22.5 -57t64.5 -21q45 0 67.5 20.5t22.5 53.5q0 43 -30 61t-83 18l-3 26q52 8 76.5 27.5t24.5 57.5q0 65 -73 65q-38 0 -56.5 -16t-18.5 -44q0 -14 3 -26l-45 -4q-5 22 -5 36
q0 42 32 67t91 25t89.5 -25t30.5 -71q0 -37 -22 -62.5t-59 -36.5q42 -7 69 -31zM168 0l511 700h58l-511 -700h-58zM763 90v-90h-49v90h-196v29l176 276h69v-266h64v-39h-64zM714 360l-145 -231h145v231z" />
    <glyph glyph-name="questiondown" unicode="&#xbf;" horiz-adv-x="509" 
d="M234.5 429q-11.5 12 -11.5 33t11.5 32t32.5 11q20 0 31 -11.5t11 -31.5q0 -21 -11 -33t-31 -12q-21 0 -32.5 12zM99.5 -157q-51.5 47 -51.5 134q0 40 12.5 68.5t30.5 47.5t49 45q33 27 53.5 49.5t35 57.5t14.5 84h48l1 -16q0 -51 -13.5 -86t-33 -57t-51.5 -49
q-27 -23 -43.5 -40t-27 -42t-10.5 -60q0 -65 36 -98.5t105 -33.5t107 36t38 96q0 36 -11 61l57 7q15 -36 15 -73q0 -81 -55.5 -129.5t-152.5 -48.5q-101 0 -152.5 47z" />
    <glyph glyph-name="Agrave" unicode="&#xc0;" horiz-adv-x="570" 
d="M134 174l-54 -174h-57l225 700h72l226 -700h-68l-53 174h-291zM279 647l-129 -419h258zM255 752l-110 107h78l94 -107h-62z" />
    <glyph glyph-name="Aacute" unicode="&#xc1;" horiz-adv-x="570" 
d="M134 174l-54 -174h-57l225 700h72l226 -700h-68l-53 174h-291zM279 647l-129 -419h258zM253 752l101 104h82l-117 -104h-66z" />
    <glyph glyph-name="Acircumflex" unicode="&#xc2;" horiz-adv-x="570" 
d="M134 174l-54 -174h-57l225 700h72l226 -700h-68l-53 174h-291zM279 647l-129 -419h258zM281 827l-80 -73h-58l99 104h81l98 -104h-58z" />
    <glyph glyph-name="Atilde" unicode="&#xc3;" horiz-adv-x="570" 
d="M134 174l-54 -174h-57l225 700h72l226 -700h-68l-53 174h-291zM279 647l-129 -419h258zM423 773q-21 -24 -61 -24q-20 0 -40.5 7.5t-51.5 21.5q-24 11 -39.5 17t-27.5 6q-46 0 -46 -52h-32q0 46 20.5 70.5t59.5 24.5q20 0 39.5 -6.5t54.5 -21.5q25 -12 40.5 -17.5
t28.5 -5.5q45 0 45 50h31q0 -46 -21 -70z" />
    <glyph glyph-name="Adieresis" unicode="&#xc4;" horiz-adv-x="570" 
d="M134 174l-54 -174h-57l225 700h72l226 -700h-68l-53 174h-291zM279 647l-129 -419h258zM221 833q11 -10 11 -29q0 -17 -11 -27t-32 -10q-20 0 -31 10t-11 27q0 19 11 29t31 10q21 0 32 -10zM410 833q11 -10 11 -29q0 -17 -11 -27t-32 -10q-19 0 -30 10t-11 27
q0 19 10.5 29t30.5 10q21 0 32 -10z" />
    <glyph glyph-name="Aring" unicode="&#xc5;" horiz-adv-x="570" 
d="M134 174l-54 -174h-57l225 700h72l226 -700h-68l-53 174h-291zM279 647l-129 -419h258zM366.5 841q26.5 -14 26.5 -42q0 -58 -108 -58q-110 0 -110 58q0 56 110 56q55 0 81.5 -14zM241 828q-14 -9 -14 -29t14 -29.5t43 -9.5t43 9.5t14 29.5t-14 29t-43 9t-43 -9z" />
    <glyph glyph-name="AE" unicode="&#xc6;" horiz-adv-x="886" 
d="M826 0h-406v181h-258l-66 -181h-66l264 700h510v-53h-318v-268h289v-51h-289v-275h340v-53zM420 648h-88l-153 -420h241v420z" />
    <glyph glyph-name="Ccedilla" unicode="&#xc7;" horiz-adv-x="605" 
d="M341 -8l-1 -47q45 -6 68 -24.5t23 -51.5q0 -37 -26.5 -57t-76.5 -20q-36 0 -65 10.5t-46 26.5l27 38q30 -42 89 -42q26 0 41.5 11.5t15.5 32.5q0 22 -20.5 33t-65.5 16l2 75q-243 15 -243 351q0 177 69 270.5t202 93.5q84 0 136 -44t52 -116q0 -39 -10 -67h-57q8 24 8 61
q0 50 -35.5 82t-95.5 32q-100 0 -151 -79.5t-51 -232.5q0 -147 51.5 -220t156.5 -73q117 0 176 80l28 -46q-74 -90 -201 -93z" />
    <glyph glyph-name="Egrave" unicode="&#xc8;" horiz-adv-x="578" 
d="M518 0h-405v700h383v-53h-317v-268h288v-51h-288v-275h339v-53zM284 752l-110 107h78l94 -107h-62z" />
    <glyph glyph-name="Eacute" unicode="&#xc9;" horiz-adv-x="578" 
d="M518 0h-405v700h383v-53h-317v-268h288v-51h-288v-275h339v-53zM283 752l101 104h82l-117 -104h-66z" />
    <glyph glyph-name="Ecircumflex" unicode="&#xca;" horiz-adv-x="578" 
d="M518 0h-405v700h383v-53h-317v-268h288v-51h-288v-275h339v-53zM311 827l-80 -73h-58l99 104h81l98 -104h-58z" />
    <glyph glyph-name="Edieresis" unicode="&#xcb;" horiz-adv-x="578" 
d="M518 0h-405v700h383v-53h-317v-268h288v-51h-288v-275h339v-53zM251 833q11 -10 11 -29q0 -17 -11 -27t-32 -10q-20 0 -31 10t-11 27q0 19 11 29t31 10q21 0 32 -10zM440 833q11 -10 11 -29q0 -17 -11 -27t-32 -10q-19 0 -30 10t-11 27q0 19 10.5 29t30.5 10q21 0 32 -10
z" />
    <glyph glyph-name="Igrave" unicode="&#xcc;" horiz-adv-x="291" 
d="M113 0v700h66v-700h-66zM116 752l-110 107h78l94 -107h-62z" />
    <glyph glyph-name="Iacute" unicode="&#xcd;" horiz-adv-x="291" 
d="M113 0v700h66v-700h-66zM115 752l101 104h82l-117 -104h-66z" />
    <glyph glyph-name="Icircumflex" unicode="&#xce;" horiz-adv-x="291" 
d="M113 0v700h66v-700h-66zM142 827l-80 -73h-58l99 104h81l98 -104h-58z" />
    <glyph glyph-name="Idieresis" unicode="&#xcf;" horiz-adv-x="291" 
d="M113 0v700h66v-700h-66zM82 833q11 -10 11 -29q0 -17 -11 -27t-32 -10q-20 0 -31 10t-11 27q0 19 11 29t31 10q21 0 32 -10zM271 833q11 -10 11 -29q0 -17 -11 -27t-32 -10q-19 0 -30 10t-11 27q0 19 10.5 29t30.5 10q21 0 32 -10z" />
    <glyph glyph-name="Eth" unicode="&#xd0;" horiz-adv-x="670" 
d="M527 614q75 -86 75 -264q0 -179 -73 -264.5t-224 -85.5h-177v326h-99v57h99v317h169q155 0 230 -86zM479.5 124q56.5 71 56.5 226q0 154 -57 225.5t-181 71.5h-105v-264h151v-57h-151v-273h106q124 0 180.5 71z" />
    <glyph glyph-name="Ntilde" unicode="&#xd1;" horiz-adv-x="679" 
d="M566 0h-55l-339 584v-584h-59v700h65l329 -573v573h59v-700zM479 773q-21 -24 -61 -24q-20 0 -40.5 7.5t-51.5 21.5q-24 11 -39.5 17t-27.5 6q-46 0 -46 -52h-32q0 46 20.5 70.5t59.5 24.5q20 0 39.5 -6.5t54.5 -21.5q25 -12 40.5 -17.5t28.5 -5.5q45 0 45 50h31
q0 -46 -21 -70z" />
    <glyph glyph-name="Ograve" unicode="&#xd2;" horiz-adv-x="631" 
d="M503 617q65 -91 65 -266q0 -176 -65 -267.5t-187 -91.5q-123 0 -188 91.5t-65 267.5q0 175 65 266t188 91q122 0 187 -91zM177.5 578.5q-47.5 -76.5 -47.5 -227.5q0 -153 47.5 -229.5t138.5 -76.5t138 76.5t47 229.5q0 151 -47 227.5t-138 76.5t-138.5 -76.5zM286 752
l-110 107h78l94 -107h-62z" />
    <glyph glyph-name="Oacute" unicode="&#xd3;" horiz-adv-x="631" 
d="M503 617q65 -91 65 -266q0 -176 -65 -267.5t-187 -91.5q-123 0 -188 91.5t-65 267.5q0 175 65 266t188 91q122 0 187 -91zM177.5 578.5q-47.5 -76.5 -47.5 -227.5q0 -153 47.5 -229.5t138.5 -76.5t138 76.5t47 229.5q0 151 -47 227.5t-138 76.5t-138.5 -76.5zM284 752
l101 104h82l-117 -104h-66z" />
    <glyph glyph-name="Ocircumflex" unicode="&#xd4;" horiz-adv-x="631" 
d="M503 617q65 -91 65 -266q0 -176 -65 -267.5t-187 -91.5q-123 0 -188 91.5t-65 267.5q0 175 65 266t188 91q122 0 187 -91zM177.5 578.5q-47.5 -76.5 -47.5 -227.5q0 -153 47.5 -229.5t138.5 -76.5t138 76.5t47 229.5q0 151 -47 227.5t-138 76.5t-138.5 -76.5zM312 827
l-80 -73h-58l99 104h81l98 -104h-58z" />
    <glyph glyph-name="Otilde" unicode="&#xd5;" horiz-adv-x="631" 
d="M503 617q65 -91 65 -266q0 -176 -65 -267.5t-187 -91.5q-123 0 -188 91.5t-65 267.5q0 175 65 266t188 91q122 0 187 -91zM177.5 578.5q-47.5 -76.5 -47.5 -227.5q0 -153 47.5 -229.5t138.5 -76.5t138 76.5t47 229.5q0 151 -47 227.5t-138 76.5t-138.5 -76.5zM454 773
q-21 -24 -61 -24q-20 0 -40.5 7.5t-51.5 21.5q-24 11 -39.5 17t-27.5 6q-46 0 -46 -52h-32q0 46 20.5 70.5t59.5 24.5q20 0 39.5 -6.5t54.5 -21.5q25 -12 40.5 -17.5t28.5 -5.5q45 0 45 50h31q0 -46 -21 -70z" />
    <glyph glyph-name="Odieresis" unicode="&#xd6;" horiz-adv-x="631" 
d="M503 617q65 -91 65 -266q0 -176 -65 -267.5t-187 -91.5q-123 0 -188 91.5t-65 267.5q0 175 65 266t188 91q122 0 187 -91zM177.5 578.5q-47.5 -76.5 -47.5 -227.5q0 -153 47.5 -229.5t138.5 -76.5t138 76.5t47 229.5q0 151 -47 227.5t-138 76.5t-138.5 -76.5zM252 833
q11 -10 11 -29q0 -17 -11 -27t-32 -10q-20 0 -31 10t-11 27q0 19 11 29t31 10q21 0 32 -10zM441 833q11 -10 11 -29q0 -17 -11 -27t-32 -10q-19 0 -30 10t-11 27q0 19 10.5 29t30.5 10q21 0 32 -10z" />
    <glyph glyph-name="multiply" unicode="&#xd7;" horiz-adv-x="550" 
d="M464 219l-37 -37l-134 135l-134 -135l-37 37l134 136l-134 135l37 38l134 -136l134 136l37 -38l-134 -135z" />
    <glyph glyph-name="Oslash" unicode="&#xd8;" horiz-adv-x="631" 
d="M568 351q0 -176 -65 -267.5t-187 -91.5q-61 0 -106 22l-45 -118h-57l56 147q-101 87 -101 308q0 175 65 266t188 91q63 0 111 -24l38 100h57l-50 -131q96 -87 96 -302zM194 98l206 536q-36 21 -84 21q-91 0 -138.5 -76.5t-47.5 -227.5q0 -177 64 -253zM454 121.5
q47 76.5 47 229.5q0 169 -59 245l-205 -532q34 -19 79 -19q91 0 138 76.5z" />
    <glyph glyph-name="Ugrave" unicode="&#xd9;" horiz-adv-x="606" 
d="M136 52.5q-56 58.5 -56 173.5v474h66v-470q0 -90 40.5 -136.5t121.5 -46.5q160 0 160 183v470h58v-474q0 -113 -56.5 -172.5t-167.5 -59.5q-110 0 -166 58.5zM273 752l-110 107h78l94 -107h-62z" />
    <glyph glyph-name="Uacute" unicode="&#xda;" horiz-adv-x="606" 
d="M136 52.5q-56 58.5 -56 173.5v474h66v-470q0 -90 40.5 -136.5t121.5 -46.5q160 0 160 183v470h58v-474q0 -113 -56.5 -172.5t-167.5 -59.5q-110 0 -166 58.5zM271 752l101 104h82l-117 -104h-66z" />
    <glyph glyph-name="Ucircumflex" unicode="&#xdb;" horiz-adv-x="606" 
d="M136 52.5q-56 58.5 -56 173.5v474h66v-470q0 -90 40.5 -136.5t121.5 -46.5q160 0 160 183v470h58v-474q0 -113 -56.5 -172.5t-167.5 -59.5q-110 0 -166 58.5zM299 827l-80 -73h-58l99 104h81l98 -104h-58z" />
    <glyph glyph-name="Udieresis" unicode="&#xdc;" horiz-adv-x="606" 
d="M136 52.5q-56 58.5 -56 173.5v474h66v-470q0 -90 40.5 -136.5t121.5 -46.5q160 0 160 183v470h58v-474q0 -113 -56.5 -172.5t-167.5 -59.5q-110 0 -166 58.5zM239 833q11 -10 11 -29q0 -17 -11 -27t-32 -10q-20 0 -31 10t-11 27q0 19 11 29t31 10q21 0 32 -10zM428 833
q11 -10 11 -29q0 -17 -11 -27t-32 -10q-19 0 -30 10t-11 27q0 19 10.5 29t30.5 10q21 0 32 -10z" />
    <glyph glyph-name="Yacute" unicode="&#xdd;" horiz-adv-x="571" 
d="M319 0h-65v278l-224 422h78l184 -364l185 364h65l-223 -423v-277zM255 752l101 104h82l-117 -104h-66z" />
    <glyph glyph-name="Thorn" unicode="&#xde;" horiz-adv-x="590" 
d="M468.5 518q59.5 -52 59.5 -166q0 -111 -59 -161.5t-186 -50.5h-107v-140h-65v700h65v-130h104q129 0 188.5 -52zM420 226.5q44 37.5 44 124.5q0 91 -44 130t-144 39h-100v-331h100q100 0 144 37.5z" />
    <glyph glyph-name="germandbls" unicode="&#xdf;" horiz-adv-x="576" 
d="M423 730q38 -37 38 -96q0 -37 -17 -65.5t-50 -65.5q-29 -33 -43.5 -56.5t-14.5 -51.5q0 -37 22 -58t67 -44q36 -19 57.5 -34.5t37 -42t15.5 -65.5q0 -71 -47.5 -115t-126.5 -44q-76 0 -126 23l17 53q44 -29 115 -29q55 0 85.5 27t30.5 72q0 28 -12.5 46.5t-30.5 30.5
t-51 28q-35 17 -56 31t-36 38t-15 59t15.5 62t46.5 63t46 62t15 61q0 49 -26.5 78.5t-73.5 29.5q-75 0 -120.5 -64t-45.5 -217v-446h-63v420q0 184 65 265.5t173 81.5q71 0 109 -37z" />
    <glyph glyph-name="agrave" unicode="&#xe0;" horiz-adv-x="512" 
d="M441 -2q-71 0 -75 83q-24 -41 -67 -65t-99 -24q-70 0 -107.5 33.5t-37.5 92.5q0 73 67.5 114.5t243.5 42.5v63q0 76 -26 107t-88 31q-60 0 -89 -25.5t-29 -72.5q0 -11 2 -23l-56 -4q-3 14 -3 33q0 58 44 93.5t131 35.5q92 0 134.5 -42.5t42.5 -136.5v-252q0 -48 33 -48
q13 0 23 8l9 -27q-19 -17 -53 -17zM323 74q43 41 43 108v64q-142 -1 -195 -34.5t-53 -90.5q0 -41 26.5 -64.5t72.5 -23.5q63 0 106 41zM234 576l-103 147h72l88 -147h-57z" />
    <glyph glyph-name="aacute" unicode="&#xe1;" horiz-adv-x="512" 
d="M441 -2q-71 0 -75 83q-24 -41 -67 -65t-99 -24q-70 0 -107.5 33.5t-37.5 92.5q0 73 67.5 114.5t243.5 42.5v63q0 76 -26 107t-88 31q-60 0 -89 -25.5t-29 -72.5q0 -11 2 -23l-56 -4q-3 14 -3 33q0 58 44 93.5t131 35.5q92 0 134.5 -42.5t42.5 -136.5v-252q0 -48 33 -48
q13 0 23 8l9 -27q-19 -17 -53 -17zM323 74q43 41 43 108v64q-142 -1 -195 -34.5t-53 -90.5q0 -41 26.5 -64.5t72.5 -23.5q63 0 106 41zM223 576l87 147h71l-103 -147h-55z" />
    <glyph glyph-name="acircumflex" unicode="&#xe2;" horiz-adv-x="512" 
d="M441 -2q-71 0 -75 83q-24 -41 -67 -65t-99 -24q-70 0 -107.5 33.5t-37.5 92.5q0 73 67.5 114.5t243.5 42.5v63q0 76 -26 107t-88 31q-60 0 -89 -25.5t-29 -72.5q0 -11 2 -23l-56 -4q-3 14 -3 33q0 58 44 93.5t131 35.5q92 0 134.5 -42.5t42.5 -136.5v-252q0 -48 33 -48
q13 0 23 8l9 -27q-19 -17 -53 -17zM323 74q43 41 43 108v64q-142 -1 -195 -34.5t-53 -90.5q0 -41 26.5 -64.5t72.5 -23.5q63 0 106 41zM250 686l-83 -110h-49l99 147h67l100 -147h-50z" />
    <glyph glyph-name="atilde" unicode="&#xe3;" horiz-adv-x="512" 
d="M441 -2q-71 0 -75 83q-24 -41 -67 -65t-99 -24q-70 0 -107.5 33.5t-37.5 92.5q0 73 67.5 114.5t243.5 42.5v63q0 76 -26 107t-88 31q-60 0 -89 -25.5t-29 -72.5q0 -11 2 -23l-56 -4q-3 14 -3 33q0 58 44 93.5t131 35.5q92 0 134.5 -42.5t42.5 -136.5v-252q0 -48 33 -48
q13 0 23 8l9 -27q-19 -17 -53 -17zM323 74q43 41 43 108v64q-142 -1 -195 -34.5t-53 -90.5q0 -41 26.5 -64.5t72.5 -23.5q63 0 106 41zM312 591q-19 0 -37 7.5t-46 22.5q-21 11 -35 17t-25 6q-43 0 -43 -52h-31q0 95 75 95q20 0 38 -7.5t48 -22.5q22 -12 35 -17.5t24 -5.5
q43 0 43 52h31q0 -95 -77 -95z" />
    <glyph glyph-name="adieresis" unicode="&#xe4;" horiz-adv-x="512" 
d="M137.5 620q-11.5 10 -11.5 29t11.5 29.5t32.5 10.5t32.5 -10.5t11.5 -29.5t-11.5 -29t-32.5 -10t-32.5 10zM297.5 620q-11.5 10 -11.5 29t11.5 29.5t32.5 10.5t32.5 -10.5t11.5 -29.5t-11.5 -29t-32.5 -10t-32.5 10zM441 -2q-71 0 -75 83q-24 -41 -67 -65t-99 -24
q-70 0 -107.5 33.5t-37.5 92.5q0 73 67.5 114.5t243.5 42.5v63q0 76 -26 107t-88 31q-60 0 -89 -25.5t-29 -72.5q0 -11 2 -23l-56 -4q-3 14 -3 33q0 58 44 93.5t131 35.5q92 0 134.5 -42.5t42.5 -136.5v-252q0 -48 33 -48q13 0 23 8l9 -27q-19 -17 -53 -17zM323 74
q43 41 43 108v64q-142 -1 -195 -34.5t-53 -90.5q0 -41 26.5 -64.5t72.5 -23.5q63 0 106 41z" />
    <glyph glyph-name="aring" unicode="&#xe5;" horiz-adv-x="512" 
d="M441 -2q-71 0 -75 83q-24 -41 -67 -65t-99 -24q-70 0 -107.5 33.5t-37.5 92.5q0 73 67.5 114.5t243.5 42.5v63q0 76 -26 107t-88 31q-60 0 -89 -25.5t-29 -72.5q0 -11 2 -23l-56 -4q-3 14 -3 33q0 58 44 93.5t131 35.5q92 0 134.5 -42.5t42.5 -136.5v-252q0 -48 33 -48
q13 0 23 8l9 -27q-19 -17 -53 -17zM323 74q43 41 43 108v64q-142 -1 -195 -34.5t-53 -90.5q0 -41 26.5 -64.5t72.5 -23.5q63 0 106 41zM332 711q29 -21 29 -61t-29 -61.5t-82 -21.5t-82 21.5t-29 61.5t29 61t82 21t82 -21zM204.5 693.5q-17.5 -15.5 -17.5 -43.5t17.5 -44
t46.5 -16q28 0 45.5 16t17.5 44t-17.5 43.5t-45.5 15.5q-29 0 -46.5 -15.5z" />
    <glyph glyph-name="ae" unicode="&#xe6;" horiz-adv-x="818" 
d="M585 -8q-71 0 -120 34.5t-71 100.5q-22 -60 -75 -97.5t-125 -37.5q-67 0 -103.5 33.5t-36.5 91.5q0 74 70 116t251 43l1 65q0 73 -29 104t-91 31q-61 0 -92 -26.5t-31 -71.5q0 -10 2 -26h-56q-3 27 -3 32q0 58 44.5 93.5t136.5 35.5q68 0 106.5 -23.5t53.5 -75.5
q26 48 69 73.5t97 25.5q80 0 127.5 -50.5t47.5 -150.5q0 -33 -9 -64l-313 1q0 -102 42 -156t116 -54q48 0 80.5 15t57.5 43l27 -38q-65 -67 -174 -67zM481 427q-38 -47 -44 -143l262 -1q4 15 4 38q0 77 -31.5 115t-90.5 38q-62 0 -100 -47zM329 76.5q45 43.5 48 134.5
q-2 22 -2 36q-147 -1 -202.5 -35t-55.5 -91q0 -41 26.5 -64.5t72.5 -23.5q68 0 113 43.5z" />
    <glyph glyph-name="ccedilla" unicode="&#xe7;" horiz-adv-x="488" 
d="M380 16q-44 -23 -103 -24l-1 -47q45 -6 68 -24.5t23 -51.5q0 -37 -26.5 -57t-76.5 -20q-36 0 -65 10.5t-46 26.5l27 38q30 -42 89 -42q26 0 41.5 11.5t15.5 32.5q0 22 -20.5 33t-65.5 16l3 76q-88 9 -139 74t-51 178q0 130 59.5 198.5t164.5 68.5q80 0 120 -38t40 -98
q0 -30 -8 -52l-54 4q6 18 6 46q0 44 -26.5 69t-78.5 26q-77 -1 -119 -56.5t-42 -163.5q0 -100 45 -155t122 -55q49 0 83.5 19t53.5 50l31 -35q-26 -35 -70 -58z" />
    <glyph glyph-name="egrave" unicode="&#xe8;" horiz-adv-x="502" 
d="M420 100l23 -41q-29 -30 -72.5 -48.5t-100.5 -18.5q-102 0 -159.5 66.5t-57.5 194.5q0 83 27.5 141.5t76 88.5t112.5 30q82 0 129 -49.5t47 -151.5q0 -38 -8 -67h-322q1 -101 45 -154t120 -53q88 0 140 62zM163 426.5q-40 -47.5 -47 -140.5h271q4 22 4 36q0 76 -33 114
t-92 38q-63 0 -103 -47.5zM253 576l-103 147h72l88 -147h-57z" />
    <glyph glyph-name="eacute" unicode="&#xe9;" horiz-adv-x="502" 
d="M420 100l23 -41q-29 -30 -72.5 -48.5t-100.5 -18.5q-102 0 -159.5 66.5t-57.5 194.5q0 83 27.5 141.5t76 88.5t112.5 30q82 0 129 -49.5t47 -151.5q0 -38 -8 -67h-322q1 -101 45 -154t120 -53q88 0 140 62zM163 426.5q-40 -47.5 -47 -140.5h271q4 22 4 36q0 76 -33 114
t-92 38q-63 0 -103 -47.5zM242 576l87 147h71l-103 -147h-55z" />
    <glyph glyph-name="ecircumflex" unicode="&#xea;" horiz-adv-x="502" 
d="M420 100l23 -41q-29 -30 -72.5 -48.5t-100.5 -18.5q-102 0 -159.5 66.5t-57.5 194.5q0 83 27.5 141.5t76 88.5t112.5 30q82 0 129 -49.5t47 -151.5q0 -38 -8 -67h-322q1 -101 45 -154t120 -53q88 0 140 62zM163 426.5q-40 -47.5 -47 -140.5h271q4 22 4 36q0 76 -33 114
t-92 38q-63 0 -103 -47.5zM268 686l-83 -110h-49l99 147h67l100 -147h-50z" />
    <glyph glyph-name="edieresis" unicode="&#xeb;" horiz-adv-x="502" 
d="M156.5 620q-11.5 10 -11.5 29t11.5 29.5t32.5 10.5t32.5 -10.5t11.5 -29.5t-11.5 -29t-32.5 -10t-32.5 10zM316.5 620q-11.5 10 -11.5 29t11.5 29.5t32.5 10.5t32.5 -10.5t11.5 -29.5t-11.5 -29t-32.5 -10t-32.5 10zM420 100l23 -41q-29 -30 -72.5 -48.5t-100.5 -18.5
q-102 0 -159.5 66.5t-57.5 194.5q0 83 27.5 141.5t76 88.5t112.5 30q82 0 129 -49.5t47 -151.5q0 -38 -8 -67h-322q1 -101 45 -154t120 -53q88 0 140 62zM163 426.5q-40 -47.5 -47 -140.5h271q4 22 4 36q0 76 -33 114t-92 38q-63 0 -103 -47.5z" />
    <glyph glyph-name="igrave" unicode="&#xec;" horiz-adv-x="259" 
d="M97 0v505h65v-505h-65zM113 576l-103 147h72l88 -147h-57z" />
    <glyph glyph-name="iacute" unicode="&#xed;" horiz-adv-x="259" 
d="M97 0v505h65v-505h-65zM102 576l87 147h71l-103 -147h-55z" />
    <glyph glyph-name="icircumflex" unicode="&#xee;" horiz-adv-x="259" 
d="M97 0v505h65v-505h-65zM129 686l-83 -110h-49l99 147h67l100 -147h-50z" />
    <glyph glyph-name="idieresis" unicode="&#xef;" horiz-adv-x="259" 
d="M81.5 678.5q11.5 -10.5 11.5 -29.5t-11.5 -29t-32.5 -10t-32.5 10t-11.5 29t11.5 29.5t32.5 10.5t32.5 -10.5zM241.5 678.5q11.5 -10.5 11.5 -29.5t-11.5 -29t-32.5 -10t-32.5 10t-11.5 29t11.5 29.5t32.5 10.5t32.5 -10.5zM97 0v505h65v-505h-65z" />
    <glyph glyph-name="eth" unicode="&#xf0;" horiz-adv-x="519" 
d="M432 560q39 -104 38 -288q0 -140 -52.5 -210t-155.5 -70q-104 0 -158.5 66t-54.5 193q0 128 53 195t151 67q97 0 150 -61q-14 80 -43 131t-76 81l-37 -78l-42 17l39 81q-54 22 -136 30l10 59q89 -13 150 -38l27 56l42 -18l-28 -59q84 -50 123 -154zM372 90.5
q36 55.5 36 169.5q0 210 -146 211q-151 0 -151 -220q0 -216 151 -216q74 0 110 55.5z" />
    <glyph glyph-name="ntilde" unicode="&#xf1;" horiz-adv-x="552" 
d="M444.5 460.5q39.5 -52.5 39.5 -159.5v-301h-62v295q0 85 -29 125.5t-102 40.5q-69 0 -109 -44.5t-40 -126.5v-290h-62v505h46l10 -119q20 61 67 94t114 33q88 0 127.5 -52.5zM344 591q-19 0 -37 7.5t-46 22.5q-21 11 -35 17t-25 6q-43 0 -43 -52h-31q0 95 75 95
q20 0 38 -7.5t48 -22.5q22 -12 35 -17.5t24 -5.5q43 0 43 52h31q0 -95 -77 -95z" />
    <glyph glyph-name="ograve" unicode="&#xf2;" horiz-adv-x="528" 
d="M421.5 447q52.5 -66 52.5 -194t-52.5 -194.5t-155.5 -66.5q-104 0 -158.5 66t-54.5 193q0 129 54 195.5t159 66.5q103 0 155.5 -66zM115 251q0 -214 151 -214q74 0 110 53.5t36 162.5q0 215 -146 215q-151 0 -151 -217zM248 576l-103 147h72l88 -147h-57z" />
    <glyph glyph-name="oacute" unicode="&#xf3;" horiz-adv-x="528" 
d="M421.5 447q52.5 -66 52.5 -194t-52.5 -194.5t-155.5 -66.5q-104 0 -158.5 66t-54.5 193q0 129 54 195.5t159 66.5q103 0 155.5 -66zM115 251q0 -214 151 -214q74 0 110 53.5t36 162.5q0 215 -146 215q-151 0 -151 -217zM236 576l87 147h71l-103 -147h-55z" />
    <glyph glyph-name="ocircumflex" unicode="&#xf4;" horiz-adv-x="528" 
d="M421.5 447q52.5 -66 52.5 -194t-52.5 -194.5t-155.5 -66.5q-104 0 -158.5 66t-54.5 193q0 129 54 195.5t159 66.5q103 0 155.5 -66zM115 251q0 -214 151 -214q74 0 110 53.5t36 162.5q0 215 -146 215q-151 0 -151 -217zM263 686l-83 -110h-49l99 147h67l100 -147h-50z
" />
    <glyph glyph-name="otilde" unicode="&#xf5;" horiz-adv-x="528" 
d="M421.5 447q52.5 -66 52.5 -194t-52.5 -194.5t-155.5 -66.5q-104 0 -158.5 66t-54.5 193q0 129 54 195.5t159 66.5q103 0 155.5 -66zM115 251q0 -214 151 -214q74 0 110 53.5t36 162.5q0 215 -146 215q-151 0 -151 -217zM325 591q-19 0 -37 7.5t-46 22.5q-21 11 -35 17
t-25 6q-43 0 -43 -52h-31q0 95 75 95q20 0 38 -7.5t48 -22.5q22 -12 35 -17.5t24 -5.5q43 0 43 52h31q0 -95 -77 -95z" />
    <glyph glyph-name="odieresis" unicode="&#xf6;" horiz-adv-x="528" 
d="M216.5 678.5q11.5 -10.5 11.5 -29.5t-11.5 -29t-32.5 -10t-32.5 10t-11.5 29t11.5 29.5t32.5 10.5t32.5 -10.5zM376.5 678.5q11.5 -10.5 11.5 -29.5t-11.5 -29t-32.5 -10t-32.5 10t-11.5 29t11.5 29.5t32.5 10.5t32.5 -10.5zM421.5 447q52.5 -66 52.5 -194t-52.5 -194.5
t-155.5 -66.5q-104 0 -158.5 66t-54.5 193q0 129 54 195.5t159 66.5q103 0 155.5 -66zM115 251q0 -214 151 -214q74 0 110 53.5t36 162.5q0 215 -146 215q-151 0 -151 -217z" />
    <glyph glyph-name="divide" unicode="&#xf7;" horiz-adv-x="550" 
d="M302.5 547q10.5 -11 10.5 -30q0 -18 -10.5 -29t-29.5 -11q-18 0 -29 11t-11 29q0 19 11 30t29 11q19 0 29.5 -11zM102 328v50h346v-50h-346zM302.5 219q10.5 -11 10.5 -30q0 -18 -10.5 -29t-29.5 -11q-18 0 -29 11t-11 29q0 19 11 30t29 11q19 0 29.5 -11z" />
    <glyph glyph-name="oslash" unicode="&#xf8;" horiz-adv-x="519" 
d="M474 253q0 -128 -52.5 -194.5t-155.5 -66.5q-48 0 -83 13l-49 -121h-46l56 140q-91 61 -91 227q0 129 54 195.5t159 66.5q47 0 80 -13l43 107h46l-52 -125q91 -61 91 -229zM171 69l150 390q-24 9 -55 9q-151 0 -151 -217q0 -131 56 -182zM376 90.5q36 53.5 36 162.5
q0 130 -53 182l-149 -389q25 -9 56 -9q74 0 110 53.5z" />
    <glyph glyph-name="ugrave" unicode="&#xf9;" horiz-adv-x="540" 
d="M463 0h-43l-14 104q-21 -53 -67 -82.5t-109 -29.5q-83 0 -122.5 44t-39.5 144v325h62v-317q0 -76 29.5 -110t94.5 -34q67 0 107 37.5t40 108.5v315h62v-505zM249 576l-103 147h72l88 -147h-57z" />
    <glyph glyph-name="uacute" unicode="&#xfa;" horiz-adv-x="540" 
d="M463 0h-43l-14 104q-21 -53 -67 -82.5t-109 -29.5q-83 0 -122.5 44t-39.5 144v325h62v-317q0 -76 29.5 -110t94.5 -34q67 0 107 37.5t40 108.5v315h62v-505zM238 576l87 147h71l-103 -147h-55z" />
    <glyph glyph-name="ucircumflex" unicode="&#xfb;" horiz-adv-x="540" 
d="M463 0h-43l-14 104q-21 -53 -67 -82.5t-109 -29.5q-83 0 -122.5 44t-39.5 144v325h62v-317q0 -76 29.5 -110t94.5 -34q67 0 107 37.5t40 108.5v315h62v-505zM264 686l-83 -110h-49l99 147h67l100 -147h-50z" />
    <glyph glyph-name="udieresis" unicode="&#xfc;" horiz-adv-x="540" 
d="M152.5 620q-11.5 10 -11.5 29t11.5 29.5t32.5 10.5t32.5 -10.5t11.5 -29.5t-11.5 -29t-32.5 -10t-32.5 10zM312.5 620q-11.5 10 -11.5 29t11.5 29.5t32.5 10.5t32.5 -10.5t11.5 -29.5t-11.5 -29t-32.5 -10t-32.5 10zM463 0h-43l-14 104q-21 -53 -67 -82.5t-109 -29.5
q-83 0 -122.5 44t-39.5 144v325h62v-317q0 -76 29.5 -110t94.5 -34q67 0 107 37.5t40 108.5v315h62v-505z" />
    <glyph glyph-name="yacute" unicode="&#xfd;" horiz-adv-x="509" 
d="M286 -26q-26 -69 -53 -108.5t-61.5 -56.5t-83.5 -17q-75 0 -132 35l29 53q43 -40 106 -40q35 0 58.5 11t42.5 39t38 80l11 30h-17l-193 505h68l163 -448l164 448h58zM227 576l87 147h71l-103 -147h-55z" />
    <glyph glyph-name="thorn" unicode="&#xfe;" horiz-adv-x="558" 
d="M460 451q45 -62 45 -196q0 -132 -51.5 -197.5t-149.5 -65.5q-89 0 -153 61v-253h-62v959h62v-369q20 59 63.5 91t106.5 32q94 0 139 -62zM404.5 91q38.5 53 38.5 164q0 109 -35 158.5t-108 49.5q-68 0 -108.5 -45t-40.5 -122v-205q59 -53 137 -53t116.5 53z" />
    <glyph glyph-name="ydieresis" unicode="&#xff;" horiz-adv-x="509" 
d="M141.5 620q-11.5 10 -11.5 29t11.5 29.5t32.5 10.5t32.5 -10.5t11.5 -29.5t-11.5 -29t-32.5 -10t-32.5 10zM301.5 620q-11.5 10 -11.5 29t11.5 29.5t32.5 10.5t32.5 -10.5t11.5 -29.5t-11.5 -29t-32.5 -10t-32.5 10zM286 -26q-26 -69 -53 -108.5t-61.5 -56.5t-83.5 -17
q-75 0 -132 35l29 53q43 -40 106 -40q35 0 58.5 11t42.5 39t38 80l11 30h-17l-193 505h68l163 -448l164 448h58z" />
    <glyph glyph-name="Amacron" unicode="&#x100;" horiz-adv-x="570" 
d="M134 174l-54 -174h-57l225 700h72l226 -700h-68l-53 174h-291zM279 647l-129 -419h258zM431 772h-292v47h292v-47z" />
    <glyph glyph-name="amacron" unicode="&#x101;" horiz-adv-x="512" 
d="M441 -2q-71 0 -75 83q-24 -41 -67 -65t-99 -24q-70 0 -107.5 33.5t-37.5 92.5q0 73 67.5 114.5t243.5 42.5v63q0 76 -26 107t-88 31q-60 0 -89 -25.5t-29 -72.5q0 -11 2 -23l-56 -4q-3 14 -3 33q0 58 44 93.5t131 35.5q92 0 134.5 -42.5t42.5 -136.5v-252q0 -48 33 -48
q13 0 23 8l9 -27q-19 -17 -53 -17zM323 74q43 41 43 108v64q-142 -1 -195 -34.5t-53 -90.5q0 -41 26.5 -64.5t72.5 -23.5q63 0 106 41zM387 617h-275v46h275v-46z" />
    <glyph glyph-name="Abreve" unicode="&#x102;" horiz-adv-x="570" 
d="M134 174l-54 -174h-57l225 700h72l226 -700h-68l-53 174h-291zM279 647l-129 -419h258zM384 777.5q-33 -29.5 -100 -29.5q-65 0 -98.5 29.5t-33.5 85.5h39q0 -34 24 -53.5t69 -19.5q46 0 70.5 19.5t24.5 53.5h38q0 -56 -33 -85.5z" />
    <glyph glyph-name="abreve" unicode="&#x103;" horiz-adv-x="512" 
d="M441 -2q-71 0 -75 83q-24 -41 -67 -65t-99 -24q-70 0 -107.5 33.5t-37.5 92.5q0 73 67.5 114.5t243.5 42.5v63q0 76 -26 107t-88 31q-60 0 -89 -25.5t-29 -72.5q0 -11 2 -23l-56 -4q-3 14 -3 33q0 58 44 93.5t131 35.5q92 0 134.5 -42.5t42.5 -136.5v-252q0 -48 33 -48
q13 0 23 8l9 -27q-19 -17 -53 -17zM323 74q43 41 43 108v64q-142 -1 -195 -34.5t-53 -90.5q0 -41 26.5 -64.5t72.5 -23.5q63 0 106 41zM351.5 615q-32.5 -31 -100.5 -31q-67 0 -100 31t-33 96h36q0 -86 97 -86t97 86h36q0 -65 -32.5 -96z" />
    <glyph glyph-name="Aogonek" unicode="&#x104;" horiz-adv-x="570" 
d="M518.5 -155.5q6.5 2.5 14.5 7.5l6 -34q-13 -7 -23 -10.5t-27 -3.5q-30 0 -48 18t-18 48q0 33 22 67.5t57 62.5h-24l-53 174h-291l-54 -174h-57l225 700h72l226 -700h-14q-31 -35 -47 -63t-16 -55q0 -19 8.5 -29.5t23.5 -10.5q11 0 17.5 2.5zM279 647l-129 -419h258z" />
    <glyph glyph-name="aogonek" unicode="&#x105;" horiz-adv-x="512" 
d="M479 -177.5q-10 -3.5 -27 -3.5q-30 0 -48 18t-18 48q0 55 60 113h-5q-71 0 -75 83q-24 -41 -67 -65t-99 -24q-70 0 -107.5 33.5t-37.5 92.5q0 73 67.5 114.5t243.5 42.5v63q0 76 -26 107t-88 31q-60 0 -89 -25.5t-29 -72.5q0 -11 2 -23l-56 -4q-3 14 -3 33q0 58 44 93.5
t131 35.5q92 0 134.5 -42.5t42.5 -136.5v-252q0 -48 33 -48q13 0 23 8l9 -26l1 -1q-31 -35 -47 -63t-16 -55q0 -19 8.5 -29.5t23.5 -10.5q11 0 17.5 2.5t14.5 7.5l6 -34q-13 -7 -23 -10.5zM323 74q43 41 43 108v64q-142 -1 -195 -34.5t-53 -90.5q0 -41 26.5 -64.5
t72.5 -23.5q63 0 106 41z" />
    <glyph glyph-name="Cacute" unicode="&#x106;" horiz-adv-x="605" 
d="M470 664q52 -44 52 -116q0 -39 -10 -67h-57q8 24 8 61q0 50 -35.5 82t-95.5 32q-100 0 -151 -79.5t-51 -232.5q0 -147 51.5 -220t156.5 -73q117 0 176 80l28 -46q-77 -93 -212 -93t-201 88t-66 264q0 177 69 270.5t202 93.5q84 0 136 -44zM300 752l101 104h82l-117 -104
h-66z" />
    <glyph glyph-name="cacute" unicode="&#x107;" horiz-adv-x="488" 
d="M397 475q40 -38 40 -98q0 -30 -8 -52l-54 4q6 18 6 46q0 44 -26.5 69t-78.5 26q-77 -1 -119 -56.5t-42 -163.5q0 -100 45 -155t122 -55q49 0 83.5 19t53.5 50l31 -35q-27 -36 -72 -59t-106 -23q-101 0 -160 65.5t-59 188.5q0 130 59.5 198.5t164.5 68.5q80 0 120 -38z
M252 576l87 147h71l-103 -147h-55z" />
    <glyph glyph-name="Ccircumflex" unicode="&#x108;" horiz-adv-x="605" 
d="M470 664q52 -44 52 -116q0 -39 -10 -67h-57q8 24 8 61q0 50 -35.5 82t-95.5 32q-100 0 -151 -79.5t-51 -232.5q0 -147 51.5 -220t156.5 -73q117 0 176 80l28 -46q-77 -93 -212 -93t-201 88t-66 264q0 177 69 270.5t202 93.5q84 0 136 -44zM327 827l-80 -73h-58l99 104h81
l98 -104h-58z" />
    <glyph glyph-name="ccircumflex" unicode="&#x109;" horiz-adv-x="488" 
d="M397 475q40 -38 40 -98q0 -30 -8 -52l-54 4q6 18 6 46q0 44 -26.5 69t-78.5 26q-77 -1 -119 -56.5t-42 -163.5q0 -100 45 -155t122 -55q49 0 83.5 19t53.5 50l31 -35q-27 -36 -72 -59t-106 -23q-101 0 -160 65.5t-59 188.5q0 130 59.5 198.5t164.5 68.5q80 0 120 -38z
M279 686l-83 -110h-49l99 147h67l100 -147h-50z" />
    <glyph glyph-name="Cdotaccent" unicode="&#x10a;" horiz-adv-x="605" 
d="M470 664q52 -44 52 -116q0 -39 -10 -67h-57q8 24 8 61q0 50 -35.5 82t-95.5 32q-100 0 -151 -79.5t-51 -232.5q0 -147 51.5 -220t156.5 -73q117 0 176 80l28 -46q-77 -93 -212 -93t-201 88t-66 264q0 177 69 270.5t202 93.5q84 0 136 -44zM363 833q12 -10 12 -28
q0 -17 -12 -26.5t-34 -9.5q-21 0 -33 9.5t-12 26.5q0 18 12 28t33 10q22 0 34 -10z" />
    <glyph glyph-name="cdotaccent" unicode="&#x10b;" horiz-adv-x="488" 
d="M397 475q40 -38 40 -98q0 -30 -8 -52l-54 4q6 18 6 46q0 44 -26.5 69t-78.5 26q-77 -1 -119 -56.5t-42 -163.5q0 -100 45 -155t122 -55q49 0 83.5 19t53.5 50l31 -35q-27 -36 -72 -59t-106 -23q-101 0 -160 65.5t-59 188.5q0 130 59.5 198.5t164.5 68.5q80 0 120 -38z
M313 681q12 -11 12 -30t-12 -29.5t-34 -10.5q-21 0 -33 10.5t-12 29.5t12 30t33 11q22 0 34 -11z" />
    <glyph glyph-name="Ccaron" unicode="&#x10c;" horiz-adv-x="605" 
d="M470 664q52 -44 52 -116q0 -39 -10 -67h-57q8 24 8 61q0 50 -35.5 82t-95.5 32q-100 0 -151 -79.5t-51 -232.5q0 -147 51.5 -220t156.5 -73q117 0 176 80l28 -46q-77 -93 -212 -93t-201 88t-66 264q0 177 69 270.5t202 93.5q84 0 136 -44zM370 757h-81l-98 104h57l82 -73
l81 73h58z" />
    <glyph glyph-name="ccaron" unicode="&#x10d;" horiz-adv-x="488" 
d="M397 475q40 -38 40 -98q0 -30 -8 -52l-54 4q6 18 6 46q0 44 -26.5 69t-78.5 26q-77 -1 -119 -56.5t-42 -163.5q0 -100 45 -155t122 -55q49 0 83.5 19t53.5 50l31 -35q-27 -36 -72 -59t-106 -23q-101 0 -160 65.5t-59 188.5q0 130 59.5 198.5t164.5 68.5q80 0 120 -38z
M312 576h-66l-100 147h49l85 -110l83 110h49z" />
    <glyph glyph-name="Dcaron" unicode="&#x10e;" horiz-adv-x="650" 
d="M512 614q75 -86 75 -264q0 -179 -73 -264.5t-224 -85.5h-177v700h169q155 0 230 -86zM465 124.5q57 71.5 57 225.5t-57.5 225.5t-181.5 71.5h-104v-594h106q123 0 180 71.5zM353 757h-81l-98 104h57l82 -73l81 73h58z" />
    <glyph glyph-name="dcaron" unicode="&#x10f;" horiz-adv-x="552" 
d="M468 0h-43l-14 97q-20 -51 -63 -78t-105 -27q-86 0 -138 64.5t-52 187.5q0 132 59 200.5t161 68.5q78 0 133 -33v279h62v-759zM365 77q36 34 41 99v267q-25 12 -51.5 18t-61.5 6q-84 0 -131 -54.5t-47 -162.5q0 -101 40.5 -154t108.5 -53q65 0 101 34zM614 746.5
q16 -20.5 16 -54.5q0 -39 -24.5 -61t-70.5 -23l-2 23q37 1 53.5 15.5t16.5 42.5q0 14 -6 26q-6 -22 -34 -22q-18 0 -28 9.5t-10 27.5q0 17 11 27t32 10q30 0 46 -20.5z" />
    <glyph glyph-name="Dcroat" unicode="&#x110;" horiz-adv-x="670" 
d="M527 614q75 -86 75 -264q0 -179 -73 -264.5t-224 -85.5h-177v326h-99v57h99v317h169q155 0 230 -86zM479.5 124q56.5 71 56.5 226q0 154 -57 225.5t-181 71.5h-105v-264h151v-57h-151v-273h106q124 0 180.5 71z" />
    <glyph glyph-name="dcroat" unicode="&#x111;" horiz-adv-x="552" 
d="M468 607v-607h-43l-14 97q-20 -51 -63 -78t-105 -27q-86 0 -138 64.5t-52 187.5q0 132 59 200.5t161 68.5q78 0 133 -33v127h-151v44h151v108h62v-108h69v-44h-69zM365 77q36 34 41 99v267q-25 12 -51.5 18t-61.5 6q-84 0 -131 -54.5t-47 -162.5q0 -101 40.5 -154
t108.5 -53q65 0 101 34z" />
    <glyph glyph-name="Emacron" unicode="&#x112;" horiz-adv-x="578" 
d="M518 0h-405v700h383v-53h-317v-268h288v-51h-288v-275h339v-53zM460 772h-292v47h292v-47z" />
    <glyph glyph-name="emacron" unicode="&#x113;" horiz-adv-x="502" 
d="M420 100l23 -41q-29 -30 -72.5 -48.5t-100.5 -18.5q-102 0 -159.5 66.5t-57.5 194.5q0 83 27.5 141.5t76 88.5t112.5 30q82 0 129 -49.5t47 -151.5q0 -38 -8 -67h-322q1 -101 45 -154t120 -53q88 0 140 62zM163 426.5q-40 -47.5 -47 -140.5h271q4 22 4 36q0 76 -33 114
t-92 38q-63 0 -103 -47.5zM406 617h-275v46h275v-46z" />
    <glyph glyph-name="Ebreve" unicode="&#x114;" horiz-adv-x="578" 
d="M518 0h-405v700h383v-53h-317v-268h288v-51h-288v-275h339v-53zM414 777.5q-33 -29.5 -100 -29.5q-65 0 -98.5 29.5t-33.5 85.5h39q0 -34 24 -53.5t69 -19.5q46 0 70.5 19.5t24.5 53.5h38q0 -56 -33 -85.5z" />
    <glyph glyph-name="ebreve" unicode="&#x115;" horiz-adv-x="502" 
d="M420 100l23 -41q-29 -30 -72.5 -48.5t-100.5 -18.5q-102 0 -159.5 66.5t-57.5 194.5q0 83 27.5 141.5t76 88.5t112.5 30q82 0 129 -49.5t47 -151.5q0 -38 -8 -67h-322q1 -101 45 -154t120 -53q88 0 140 62zM163 426.5q-40 -47.5 -47 -140.5h271q4 22 4 36q0 76 -33 114
t-92 38q-63 0 -103 -47.5zM370.5 615q-32.5 -31 -100.5 -31q-67 0 -100 31t-33 96h36q0 -86 97 -86t97 86h36q0 -65 -32.5 -96z" />
    <glyph glyph-name="Edotaccent" unicode="&#x116;" horiz-adv-x="578" 
d="M518 0h-405v700h383v-53h-317v-268h288v-51h-288v-275h339v-53zM347 833q12 -10 12 -28q0 -17 -12 -26.5t-34 -9.5q-21 0 -33 9.5t-12 26.5q0 18 12 28t33 10q22 0 34 -10z" />
    <glyph glyph-name="edotaccent" unicode="&#x117;" horiz-adv-x="502" 
d="M420 100l23 -41q-29 -30 -72.5 -48.5t-100.5 -18.5q-102 0 -159.5 66.5t-57.5 194.5q0 83 27.5 141.5t76 88.5t112.5 30q82 0 129 -49.5t47 -151.5q0 -38 -8 -67h-322q1 -101 45 -154t120 -53q88 0 140 62zM163 426.5q-40 -47.5 -47 -140.5h271q4 22 4 36q0 76 -33 114
t-92 38q-63 0 -103 -47.5zM302 681q12 -11 12 -30t-12 -29.5t-34 -10.5q-21 0 -33 10.5t-12 29.5t12 30t33 11q22 0 34 -11z" />
    <glyph glyph-name="Eogonek" unicode="&#x118;" horiz-adv-x="578" 
d="M501 -192.5q-10 -3.5 -27 -3.5q-30 0 -48 18t-18 48q0 33 22 67.5t57 62.5h-374v700h383v-53h-317v-268h288v-51h-288v-275h339v-53h-1q-31 -35 -47 -63t-16 -55q0 -19 8.5 -29.5t23.5 -10.5q11 0 17.5 2.5t14.5 7.5l6 -34q-13 -7 -23 -10.5z" />
    <glyph glyph-name="eogonek" unicode="&#x119;" horiz-adv-x="502" 
d="M420 100l23 -41q-14 -14 -22 -20q-31 -35 -47 -63t-16 -55q0 -19 8.5 -29.5t23.5 -10.5q11 0 17.5 2.5t14.5 7.5l6 -34q-13 -7 -23 -10.5t-27 -3.5q-30 0 -48 18t-18 48q0 46 43 96q-41 -13 -85 -13q-102 0 -159.5 66.5t-57.5 194.5q0 83 27.5 141.5t76 88.5t112.5 30
q82 0 129 -49.5t47 -151.5q0 -38 -8 -67h-322q1 -101 45 -154t120 -53q88 0 140 62zM163 426.5q-40 -47.5 -47 -140.5h271q4 22 4 36q0 76 -33 114t-92 38q-63 0 -103 -47.5z" />
    <glyph glyph-name="Ecaron" unicode="&#x11a;" horiz-adv-x="578" 
d="M518 0h-405v700h383v-53h-317v-268h288v-51h-288v-275h339v-53zM353 757h-81l-98 104h57l82 -73l81 73h58z" />
    <glyph glyph-name="ecaron" unicode="&#x11b;" horiz-adv-x="502" 
d="M420 100l23 -41q-29 -30 -72.5 -48.5t-100.5 -18.5q-102 0 -159.5 66.5t-57.5 194.5q0 83 27.5 141.5t76 88.5t112.5 30q82 0 129 -49.5t47 -151.5q0 -38 -8 -67h-322q1 -101 45 -154t120 -53q88 0 140 62zM163 426.5q-40 -47.5 -47 -140.5h271q4 22 4 36q0 76 -33 114
t-92 38q-63 0 -103 -47.5zM301 576h-66l-100 147h49l85 -110l83 110h49z" />
    <glyph glyph-name="Gcircumflex" unicode="&#x11c;" horiz-adv-x="633" 
d="M554 0h-33l-18 137q-24 -72 -73.5 -108.5t-120.5 -36.5q-117 0 -181.5 88.5t-64.5 258.5q0 179 73.5 274t209.5 95q88 0 141.5 -43.5t53.5 -114.5q0 -39 -10 -60h-57q8 21 8 54q0 49 -36.5 80.5t-100.5 31.5q-216 0 -216 -317q0 -149 49 -223t143 -74q81 0 127 62t46 188
v6h-177v50h237v-348zM340 827l-80 -73h-58l99 104h81l98 -104h-58z" />
    <glyph glyph-name="gcircumflex" unicode="&#x11d;" horiz-adv-x="539" 
d="M466 36q0 -122 -57 -183t-168 -61q-57 0 -103 12.5t-88 37.5l33 58q65 -59 158 -59q81 0 121.5 45.5t40.5 143.5v68q-22 -51 -63.5 -78.5t-97.5 -27.5q-90 0 -141 64t-51 191q0 85 26 145t72 90.5t106 30.5q94 0 158 -59l16 51h38v-469zM360 77q37 37 43 106v234
q-50 50 -133 50q-73 0 -115 -54.5t-42 -161.5q0 -104 39 -157.5t111 -53.5q60 0 97 37zM276 686l-83 -110h-49l99 147h67l100 -147h-50z" />
    <glyph glyph-name="Gbreve" unicode="&#x11e;" horiz-adv-x="633" 
d="M554 0h-33l-18 137q-24 -72 -73.5 -108.5t-120.5 -36.5q-117 0 -181.5 88.5t-64.5 258.5q0 179 73.5 274t209.5 95q88 0 141.5 -43.5t53.5 -114.5q0 -39 -10 -60h-57q8 21 8 54q0 49 -36.5 80.5t-100.5 31.5q-216 0 -216 -317q0 -149 49 -223t143 -74q81 0 127 62t46 188
v6h-177v50h237v-348zM443 777.5q-33 -29.5 -100 -29.5q-65 0 -98.5 29.5t-33.5 85.5h39q0 -34 24 -53.5t69 -19.5q46 0 70.5 19.5t24.5 53.5h38q0 -56 -33 -85.5z" />
    <glyph glyph-name="gbreve" unicode="&#x11f;" horiz-adv-x="539" 
d="M466 36q0 -122 -57 -183t-168 -61q-57 0 -103 12.5t-88 37.5l33 58q65 -59 158 -59q81 0 121.5 45.5t40.5 143.5v68q-22 -51 -63.5 -78.5t-97.5 -27.5q-90 0 -141 64t-51 191q0 85 26 145t72 90.5t106 30.5q94 0 158 -59l16 51h38v-469zM360 77q37 37 43 106v234
q-50 50 -133 50q-73 0 -115 -54.5t-42 -161.5q0 -104 39 -157.5t111 -53.5q60 0 97 37zM377.5 615q-32.5 -31 -100.5 -31q-67 0 -100 31t-33 96h36q0 -86 97 -86t97 86h36q0 -65 -32.5 -96z" />
    <glyph glyph-name="Gdotaccent" unicode="&#x120;" horiz-adv-x="633" 
d="M554 0h-33l-18 137q-24 -72 -73.5 -108.5t-120.5 -36.5q-117 0 -181.5 88.5t-64.5 258.5q0 179 73.5 274t209.5 95q88 0 141.5 -43.5t53.5 -114.5q0 -39 -10 -60h-57q8 21 8 54q0 49 -36.5 80.5t-100.5 31.5q-216 0 -216 -317q0 -149 49 -223t143 -74q81 0 127 62t46 188
v6h-177v50h237v-348zM376 833q12 -10 12 -28q0 -17 -12 -26.5t-34 -9.5q-21 0 -33 9.5t-12 26.5q0 18 12 28t33 10q22 0 34 -10z" />
    <glyph glyph-name="gdotaccent" unicode="&#x121;" horiz-adv-x="539" 
d="M466 36q0 -122 -57 -183t-168 -61q-57 0 -103 12.5t-88 37.5l33 58q65 -59 158 -59q81 0 121.5 45.5t40.5 143.5v68q-22 -51 -63.5 -78.5t-97.5 -27.5q-90 0 -141 64t-51 191q0 85 26 145t72 90.5t106 30.5q94 0 158 -59l16 51h38v-469zM360 77q37 37 43 106v234
q-50 50 -133 50q-73 0 -115 -54.5t-42 -161.5q0 -104 39 -157.5t111 -53.5q60 0 97 37zM310 681q12 -11 12 -30t-12 -29.5t-34 -10.5q-21 0 -33 10.5t-12 29.5t12 30t33 11q22 0 34 -11z" />
    <glyph glyph-name="Gcommaaccent" unicode="&#x122;" horiz-adv-x="633" 
d="M554 0h-33l-18 137q-24 -72 -73.5 -108.5t-120.5 -36.5q-117 0 -181.5 88.5t-64.5 258.5q0 179 73.5 274t209.5 95q88 0 141.5 -43.5t53.5 -114.5q0 -39 -10 -60h-57q8 21 8 54q0 49 -36.5 80.5t-100.5 31.5q-216 0 -216 -317q0 -149 49 -223t143 -74q81 0 127 62t46 188
v6h-177v50h237v-348zM371.5 -78.5q17.5 -18.5 17.5 -49.5q0 -36 -25 -57t-75 -22l-2 19q78 3 78 58q0 21 -16 33q0 -13 -8.5 -20.5t-24.5 -7.5q-18 0 -28 9t-10 24t10.5 23.5t31.5 8.5q34 0 51.5 -18.5z" />
    <glyph glyph-name="gcommaaccent" unicode="&#x123;" horiz-adv-x="539" 
d="M466 36q0 -122 -57 -183t-168 -61q-57 0 -103 12.5t-88 37.5l33 58q65 -59 158 -59q81 0 121.5 45.5t40.5 143.5v68q-22 -51 -63.5 -78.5t-97.5 -27.5q-90 0 -141 64t-51 191q0 85 26 145t72 90.5t106 30.5q94 0 158 -59l16 51h38v-469zM360 77q37 37 43 106v234
q-50 50 -133 50q-73 0 -115 -54.5t-42 -161.5q0 -104 39 -157.5t111 -53.5q60 0 97 37zM229.5 583.5q-17.5 18.5 -17.5 49.5q0 36 25 57t75 22l2 -19q-78 -3 -78 -58q0 -21 16 -33q0 13 8.5 20.5t24.5 7.5q18 0 28 -9t10 -24t-10.5 -23.5t-31.5 -8.5q-34 0 -51.5 18.5z" />
    <glyph glyph-name="Hcircumflex" unicode="&#x124;" horiz-adv-x="681" 
d="M568 0h-66v330h-323v-330h-66v700h66v-314h323v314h66v-700zM338 827l-80 -73h-58l99 104h81l98 -104h-58z" />
    <glyph glyph-name="hcircumflex" unicode="&#x125;" horiz-adv-x="562" 
d="M454 462.5q40 -50.5 40 -155.5v-307h-63v303q0 79 -30.5 118.5t-99.5 39.5q-70 0 -110 -42.5t-40 -120.5v-298h-62v759h62v-356q22 54 67.5 82t108.5 28q87 0 127 -50.5zM119 886l-83 -110h-49l99 147h67l100 -147h-50z" />
    <glyph glyph-name="Hbar" unicode="&#x126;" horiz-adv-x="686" 
d="M572 519v-519h-65v310h-324v-310h-65v519h-91v47h91v134h65v-134h324v134h65v-134h91v-47h-91zM183 519v-153h324v153h-324z" />
    <glyph glyph-name="hbar" unicode="&#x127;" horiz-adv-x="564" 
d="M454 462.5q40 -50.5 40 -155.5v-307h-63v303q0 79 -30.5 118.5t-99.5 39.5q-70 0 -110 -42.5t-40 -120.5v-298h-62v614h-63v44h63v101h62v-101h158v-44h-158v-211q22 54 67.5 82t108.5 28q87 0 127 -50.5z" />
    <glyph glyph-name="Itilde" unicode="&#x128;" horiz-adv-x="291" 
d="M113 0v700h66v-700h-66zM285 773q-21 -24 -61 -24q-20 0 -40.5 7.5t-51.5 21.5q-24 11 -39.5 17t-27.5 6q-46 0 -46 -52h-32q0 46 20.5 70.5t59.5 24.5q20 0 39.5 -6.5t54.5 -21.5q25 -12 40.5 -17.5t28.5 -5.5q45 0 45 50h31q0 -46 -21 -70z" />
    <glyph glyph-name="itilde" unicode="&#x129;" horiz-adv-x="259" 
d="M97 0v505h65v-505h-65zM191 591q-19 0 -37 7.5t-46 22.5q-21 11 -35 17t-25 6q-43 0 -43 -52h-31q0 95 75 95q20 0 38 -7.5t48 -22.5q22 -12 35 -17.5t24 -5.5q43 0 43 52h31q0 -95 -77 -95z" />
    <glyph glyph-name="Imacron" unicode="&#x12a;" horiz-adv-x="291" 
d="M113 0v700h66v-700h-66zM292 772h-292v47h292v-47z" />
    <glyph glyph-name="imacron" unicode="&#x12b;" horiz-adv-x="259" 
d="M97 0v505h65v-505h-65zM266 617h-275v46h275v-46z" />
    <glyph glyph-name="Ibreve" unicode="&#x12c;" horiz-adv-x="291" 
d="M113 0v700h66v-700h-66zM245 777.5q-33 -29.5 -100 -29.5q-65 0 -98.5 29.5t-33.5 85.5h39q0 -34 24 -53.5t69 -19.5q46 0 70.5 19.5t24.5 53.5h38q0 -56 -33 -85.5z" />
    <glyph glyph-name="ibreve" unicode="&#x12d;" horiz-adv-x="259" 
d="M97 0v505h65v-505h-65zM230.5 615q-32.5 -31 -100.5 -31q-67 0 -100 31t-33 96h36q0 -86 97 -86t97 86h36q0 -65 -32.5 -96z" />
    <glyph glyph-name="Iogonek" unicode="&#x12e;" horiz-adv-x="291" 
d="M123 -63q-16 -28 -16 -55q0 -19 8.5 -29.5t23.5 -10.5q11 0 17.5 2.5t14.5 7.5l6 -34q-13 -7 -23 -10.5t-27 -3.5q-30 0 -48 18t-18 48q0 33 22 67.5t57 62.5h-27v700h66v-700h-9q-31 -35 -47 -63z" />
    <glyph glyph-name="iogonek" unicode="&#x12f;" horiz-adv-x="259" 
d="M162 681q12 -11 12 -30t-12 -29.5t-34 -10.5q-21 0 -33 10.5t-12 29.5t12 30t33 11q22 0 34 -11zM142.5 -155.5q6.5 2.5 14.5 7.5l6 -34q-13 -7 -23 -10.5t-27 -3.5q-30 0 -48 18t-18 48q0 33 22 67.5t57 62.5h-29v505h65v-505h-6q-31 -35 -47 -63t-16 -55
q0 -19 8.5 -29.5t23.5 -10.5q11 0 17.5 2.5z" />
    <glyph glyph-name="Idotaccent" unicode="&#x130;" horiz-adv-x="291" 
d="M113 0v700h66v-700h-66zM178 833q12 -10 12 -28q0 -17 -12 -26.5t-34 -9.5q-21 0 -33 9.5t-12 26.5q0 18 12 28t33 10q22 0 34 -10z" />
    <glyph glyph-name="dotlessi" unicode="&#x131;" horiz-adv-x="259" 
d="M97 0v505h65v-505h-65z" />
    <glyph glyph-name="IJ" unicode="&#x132;" horiz-adv-x="614" 
d="M113 0v700h66v-700h-66zM499.5 28.5q-34.5 -36.5 -101.5 -36.5q-55 0 -102 22l19 56q19 -13 36.5 -19t39.5 -6q41 0 59.5 24t18.5 82v549h65v-557q0 -78 -34.5 -114.5z" />
    <glyph glyph-name="ij" unicode="&#x133;" horiz-adv-x="508" 
d="M162 681q12 -11 12 -30t-12 -29.5t-34 -10.5q-21 0 -33 10.5t-12 29.5t12 30t33 11q22 0 34 -11zM413 681q12 -11 12 -30t-12 -29.5t-34 -10.5q-21 0 -33 10.5t-12 29.5t12 30t33 11q22 0 34 -11zM97 0v505h65v-505h-65zM327.5 -139.5q21.5 24.5 21.5 79.5v565h62v-553
q0 -83 -37.5 -121.5t-118.5 -38.5q-50 0 -89 15l18 48q33 -19 72 -19q50 0 71.5 24.5z" />
    <glyph glyph-name="Jcircumflex" unicode="&#x134;" horiz-adv-x="323" 
d="M208.5 28.5q-34.5 -36.5 -101.5 -36.5q-55 0 -102 22l19 56q19 -13 36.5 -19t39.5 -6q41 0 59.5 24t18.5 82v549h65v-557q0 -78 -34.5 -114.5zM210 827l-80 -73h-58l99 104h81l98 -104h-58z" />
    <glyph glyph-name="jcircumflex" unicode="&#x135;" horiz-adv-x="263" 
d="M82.5 -139.5q21.5 24.5 21.5 79.5v565h62v-553q0 -83 -37.5 -121.5t-118.5 -38.5q-50 0 -89 15l18 48q33 -19 72 -19q50 0 71.5 24.5zM134 686l-83 -110h-49l99 147h67l100 -147h-50z" />
    <glyph glyph-name="Kcommaaccent" unicode="&#x136;" horiz-adv-x="616" 
d="M179 222v-222h-66v700h66v-393l302 393h75l-241 -306l267 -394h-79l-230 341zM356.5 -78.5q17.5 -18.5 17.5 -49.5q0 -36 -25 -57t-75 -22l-2 19q78 3 78 58q0 21 -16 33q0 -13 -8.5 -20.5t-24.5 -7.5q-18 0 -28 9t-10 24t10.5 23.5t31.5 8.5q34 0 51.5 -18.5z" />
    <glyph glyph-name="kcommaaccent" unicode="&#x137;" horiz-adv-x="533" 
d="M151 154v-154h-62v759h62v-538l247 284h70l-195 -216l213 -289h-73l-179 246zM312.5 -78.5q17.5 -18.5 17.5 -49.5q0 -36 -25 -57t-75 -22l-2 19q78 3 78 58q0 21 -16 33q0 -13 -8.5 -20.5t-24.5 -7.5q-18 0 -28 9t-10 24t10.5 23.5t31.5 8.5q34 0 51.5 -18.5z" />
    <glyph glyph-name="kgreenlandic" unicode="&#x138;" horiz-adv-x="523" 
d="M142 154v-154h-62v505h62v-289l252 289h64l-192 -213l211 -292h-71l-180 247z" />
    <glyph glyph-name="Lacute" unicode="&#x139;" horiz-adv-x="504" 
d="M479 0h-366v700h66v-644h300v-56zM120 752l101 104h82l-117 -104h-66z" />
    <glyph glyph-name="lacute" unicode="&#x13a;" horiz-adv-x="307" 
d="M209 32q22 0 36 6t32 22l17 -33q-26 -20 -47.5 -27.5t-56.5 -7.5q-107 0 -107 123v644h62v-640q0 -87 64 -87zM88 812l87 147h71l-103 -147h-55z" />
    <glyph glyph-name="Lcommaaccent" unicode="&#x13b;" horiz-adv-x="504" 
d="M479 0h-366v700h66v-644h300v-56zM353.5 -78.5q17.5 -18.5 17.5 -49.5q0 -36 -25 -57t-75 -22l-2 19q78 3 78 58q0 21 -16 33q0 -13 -8.5 -20.5t-24.5 -7.5q-18 0 -28 9t-10 24t10.5 23.5t31.5 8.5q34 0 51.5 -18.5z" />
    <glyph glyph-name="lcommaaccent" unicode="&#x13c;" horiz-adv-x="307" 
d="M209 32q22 0 36 6t32 22l17 -33q-26 -20 -47.5 -27.5t-56.5 -7.5q-107 0 -107 123v644h62v-640q0 -87 64 -87zM226.5 -78.5q17.5 -18.5 17.5 -49.5q0 -36 -25 -57t-75 -22l-2 19q78 3 78 58q0 21 -16 33q0 -13 -8.5 -20.5t-24.5 -7.5q-18 0 -28 9t-10 24t10.5 23.5
t31.5 8.5q34 0 51.5 -18.5z" />
    <glyph glyph-name="Lcaron" unicode="&#x13d;" horiz-adv-x="504" 
d="M479 0h-366v700h66v-644h300v-56zM389 684.5q16 -20.5 16 -54.5q0 -39 -24.5 -61t-70.5 -23l-2 23q37 1 53.5 15.5t16.5 42.5q0 14 -6 26q-6 -22 -34 -22q-18 0 -28 9.5t-10 27.5q0 17 11 27t32 10q30 0 46 -20.5z" />
    <glyph glyph-name="lcaron" unicode="&#x13e;" horiz-adv-x="307" 
d="M209 32q22 0 36 6t32 22l17 -33q-26 -20 -47.5 -27.5t-56.5 -7.5q-107 0 -107 123v644h62v-640q0 -87 64 -87zM303 746.5q16 -20.5 16 -54.5q0 -39 -24.5 -61t-70.5 -23l-2 23q37 1 53.5 15.5t16.5 42.5q0 14 -6 26q-6 -22 -34 -22q-18 0 -28 9.5t-10 27.5q0 17 11 27
t32 10q30 0 46 -20.5z" />
    <glyph glyph-name="Ldot" unicode="&#x13f;" horiz-adv-x="504" 
d="M479 0h-366v700h66v-644h300v-56zM440.5 374q11.5 -12 11.5 -33q0 -20 -11 -31.5t-33 -11.5q-20 0 -31 11.5t-11 31.5q0 21 11 33t31 12q21 0 32.5 -12z" />
    <glyph glyph-name="ldot" unicode="&#x140;" horiz-adv-x="354" 
d="M209 32q22 0 36 6t32 22l17 -33q-26 -20 -47.5 -27.5t-56.5 -7.5q-107 0 -107 123v644h62v-640q0 -87 64 -87zM317.5 352q11.5 -12 11.5 -33q0 -20 -11 -31.5t-33 -11.5q-20 0 -31 11.5t-11 31.5q0 21 11 33t31 12q21 0 32.5 -12z" />
    <glyph glyph-name="Lslash" unicode="&#x141;" horiz-adv-x="529" 
d="M484 0h-366v229l-86 -46v65l86 46v406h66v-375l163 89v-65l-163 -89v-204h300v-56z" />
    <glyph glyph-name="lslash" unicode="&#x142;" horiz-adv-x="338" 
d="M281 -0.5q-21 -7.5 -56 -7.5q-54 0 -81 30t-27 93v175l-94 -48v58l94 48v411h63v-384l137 70v-58l-137 -71v-197q0 -46 16 -66.5t48 -20.5q22 0 36 6t31 22l18 -33q-27 -20 -48 -27.5z" />
    <glyph glyph-name="Nacute" unicode="&#x143;" horiz-adv-x="679" 
d="M566 0h-55l-339 584v-584h-59v700h65l329 -573v573h59v-700zM309 752l101 104h82l-117 -104h-66z" />
    <glyph glyph-name="nacute" unicode="&#x144;" horiz-adv-x="552" 
d="M444.5 460.5q39.5 -52.5 39.5 -159.5v-301h-62v295q0 85 -29 125.5t-102 40.5q-69 0 -109 -44.5t-40 -126.5v-290h-62v505h46l10 -119q20 61 67 94t114 33q88 0 127.5 -52.5zM255 576l87 147h71l-103 -147h-55z" />
    <glyph glyph-name="Ncommaaccent" unicode="&#x145;" horiz-adv-x="679" 
d="M566 0h-55l-339 584v-584h-59v700h65l329 -573v573h59v-700zM388.5 -78.5q17.5 -18.5 17.5 -49.5q0 -36 -25 -57t-75 -22l-2 19q78 3 78 58q0 21 -16 33q0 -13 -8.5 -20.5t-24.5 -7.5q-18 0 -28 9t-10 24t10.5 23.5t31.5 8.5q34 0 51.5 -18.5z" />
    <glyph glyph-name="ncommaaccent" unicode="&#x146;" horiz-adv-x="552" 
d="M444.5 460.5q39.5 -52.5 39.5 -159.5v-301h-62v295q0 85 -29 125.5t-102 40.5q-69 0 -109 -44.5t-40 -126.5v-290h-62v505h46l10 -119q20 61 67 94t114 33q88 0 127.5 -52.5zM321.5 -78.5q17.5 -18.5 17.5 -49.5q0 -36 -25 -57t-75 -22l-2 19q78 3 78 58q0 21 -16 33
q0 -13 -8.5 -20.5t-24.5 -7.5q-18 0 -28 9t-10 24t10.5 23.5t31.5 8.5q34 0 51.5 -18.5z" />
    <glyph glyph-name="Ncaron" unicode="&#x147;" horiz-adv-x="679" 
d="M566 0h-55l-339 584v-584h-59v700h65l329 -573v573h59v-700zM380 757h-81l-98 104h57l82 -73l81 73h58z" />
    <glyph glyph-name="ncaron" unicode="&#x148;" horiz-adv-x="552" 
d="M444.5 460.5q39.5 -52.5 39.5 -159.5v-301h-62v295q0 85 -29 125.5t-102 40.5q-69 0 -109 -44.5t-40 -126.5v-290h-62v505h46l10 -119q20 61 67 94t114 33q88 0 127.5 -52.5zM314 576h-66l-100 147h49l85 -110l83 110h49z" />
    <glyph glyph-name="napostrophe" unicode="&#x149;" horiz-adv-x="604" 
d="M117.5 744.5q17.5 -18.5 17.5 -49.5q0 -36 -25 -57t-75 -22l-2 19q78 3 78 58q0 21 -16 33q0 -13 -8.5 -20.5t-24.5 -7.5q-18 0 -28 9t-10 24t10.5 23.5t31.5 8.5q34 0 51.5 -18.5zM495.5 460.5q39.5 -52.5 39.5 -159.5v-301h-62v295q0 85 -29 125.5t-102 40.5
q-69 0 -109 -44.5t-40 -126.5v-290h-62v505h46l10 -119q20 61 67 94t114 33q88 0 127.5 -52.5z" />
    <glyph glyph-name="Eng" unicode="&#x14a;" horiz-adv-x="675" 
d="M564 -48q-1 -86 -33 -123t-102 -37q-55 0 -102 22l19 56q20 -13 37.5 -19t39.5 -6q45 0 64.5 24t19.5 86v50l-339 579v-584h-57v700h63l333 -575v575h58z" />
    <glyph glyph-name="eng" unicode="&#x14b;" horiz-adv-x="551" 
d="M446 461.5q38 -51.5 38 -160.5v-349q0 -83 -37.5 -121.5t-119.5 -38.5q-51 0 -93 14l17 49q32 -19 77 -19q51 0 72.5 24.5t21.5 79.5v355q0 85 -29 125.5t-102 40.5q-69 0 -109 -44.5t-40 -126.5v-290h-62v505h46l10 -117q21 60 68 92.5t113 32.5q91 0 129 -51.5z" />
    <glyph glyph-name="Omacron" unicode="&#x14c;" horiz-adv-x="631" 
d="M503 617q65 -91 65 -266q0 -176 -65 -267.5t-187 -91.5q-123 0 -188 91.5t-65 267.5q0 175 65 266t188 91q122 0 187 -91zM177.5 578.5q-47.5 -76.5 -47.5 -227.5q0 -153 47.5 -229.5t138.5 -76.5t138 76.5t47 229.5q0 151 -47 227.5t-138 76.5t-138.5 -76.5zM461 772
h-292v47h292v-47z" />
    <glyph glyph-name="omacron" unicode="&#x14d;" horiz-adv-x="528" 
d="M421.5 447q52.5 -66 52.5 -194t-52.5 -194.5t-155.5 -66.5q-104 0 -158.5 66t-54.5 193q0 129 54 195.5t159 66.5q103 0 155.5 -66zM115 251q0 -214 151 -214q74 0 110 53.5t36 162.5q0 215 -146 215q-151 0 -151 -217zM401 617h-275v46h275v-46z" />
    <glyph glyph-name="Obreve" unicode="&#x14e;" horiz-adv-x="631" 
d="M503 617q65 -91 65 -266q0 -176 -65 -267.5t-187 -91.5q-123 0 -188 91.5t-65 267.5q0 175 65 266t188 91q122 0 187 -91zM177.5 578.5q-47.5 -76.5 -47.5 -227.5q0 -153 47.5 -229.5t138.5 -76.5t138 76.5t47 229.5q0 151 -47 227.5t-138 76.5t-138.5 -76.5zM415 777.5
q-33 -29.5 -100 -29.5q-65 0 -98.5 29.5t-33.5 85.5h39q0 -34 24 -53.5t69 -19.5q46 0 70.5 19.5t24.5 53.5h38q0 -56 -33 -85.5z" />
    <glyph glyph-name="obreve" unicode="&#x14f;" horiz-adv-x="528" 
d="M421.5 447q52.5 -66 52.5 -194t-52.5 -194.5t-155.5 -66.5q-104 0 -158.5 66t-54.5 193q0 129 54 195.5t159 66.5q103 0 155.5 -66zM115 251q0 -214 151 -214q74 0 110 53.5t36 162.5q0 215 -146 215q-151 0 -151 -217zM364.5 615q-32.5 -31 -100.5 -31q-67 0 -100 31
t-33 96h36q0 -86 97 -86t97 86h36q0 -65 -32.5 -96z" />
    <glyph glyph-name="Ohungarumlaut" unicode="&#x150;" horiz-adv-x="631" 
d="M503 617q65 -91 65 -266q0 -176 -65 -267.5t-187 -91.5q-123 0 -188 91.5t-65 267.5q0 175 65 266t188 91q122 0 187 -91zM177.5 578.5q-47.5 -76.5 -47.5 -227.5q0 -153 47.5 -229.5t138.5 -76.5t138 76.5t47 229.5q0 151 -47 227.5t-138 76.5t-138.5 -76.5zM210 752
l75 109h75l-93 -109h-57zM340 752l111 109h77l-126 -109h-62z" />
    <glyph glyph-name="ohungarumlaut" unicode="&#x151;" horiz-adv-x="528" 
d="M421.5 447q52.5 -66 52.5 -194t-52.5 -194.5t-155.5 -66.5q-104 0 -158.5 66t-54.5 193q0 129 54 195.5t159 66.5q103 0 155.5 -66zM115 251q0 -214 151 -214q74 0 110 53.5t36 162.5q0 215 -146 215q-151 0 -151 -217zM177 574l66 148h61l-81 -148h-46zM309 574l103 148
h61l-115 -148h-49z" />
    <glyph glyph-name="OE" unicode="&#x152;" horiz-adv-x="918" 
d="M858 0h-385q-66 -8 -115 -8q-142 0 -218.5 92t-76.5 267t76.5 266t218.5 91q49 0 115 -8h363v-53h-318v-268h289v-51h-289v-275h340v-53zM189.5 121q58.5 -76 169.5 -76q49 0 94 7v596q-45 7 -94 7q-111 0 -169.5 -76t-58.5 -228q0 -154 58.5 -230z" />
    <glyph glyph-name="oe" unicode="&#x153;" horiz-adv-x="864" 
d="M785 101l20 -42q-29 -30 -72.5 -48.5t-100.5 -18.5q-69 0 -116.5 32t-71.5 95q-42 -127 -179 -127q-104 0 -158 66t-54 193q0 129 54 195.5t158 66.5q138 0 180 -129q24 63 72.5 96t112.5 33q82 0 129.5 -50.5t47.5 -150.5q0 -36 -9 -61l-321 1v-2q0 -102 44 -156.5
t121 -54.5q90 0 143 62zM525 426q-40 -48 -47 -142l270 -1q4 15 4 38q0 77 -32 115t-92 38q-63 0 -103 -48zM374 89q36 54 36 164q0 218 -146 218q-151 0 -151 -220q0 -216 151 -216q74 0 110 54z" />
    <glyph glyph-name="Racute" unicode="&#x154;" horiz-adv-x="623" 
d="M510 378q-39 -50 -111 -64l139 -314h-74l-130 307h-155v-307h-66v700h219q105 0 161 -48.5t56 -144.5q0 -79 -39 -129zM341 356q68 0 105.5 38.5t37.5 109.5q0 74 -39 109.5t-118 35.5h-148v-293h162zM274 752l101 104h82l-117 -104h-66z" />
    <glyph glyph-name="racute" unicode="&#x155;" horiz-adv-x="414" 
d="M358.5 481.5q26.5 -31.5 26.5 -86.5q0 -43 -19 -79l-44 6q11 25 11 55q0 84 -78 84q-53 0 -83 -42t-30 -124v-295h-62v505h46l10 -114q16 59 53 90.5t89 31.5q54 0 80.5 -31.5zM201 576l87 147h71l-103 -147h-55z" />
    <glyph glyph-name="Rcommaaccent" unicode="&#x156;" horiz-adv-x="623" 
d="M510 378q-39 -50 -111 -64l139 -314h-74l-130 307h-155v-307h-66v700h219q105 0 161 -48.5t56 -144.5q0 -79 -39 -129zM341 356q68 0 105.5 38.5t37.5 109.5q0 74 -39 109.5t-118 35.5h-148v-293h162zM360.5 -78.5q17.5 -18.5 17.5 -49.5q0 -36 -25 -57t-75 -22l-2 19
q78 3 78 58q0 21 -16 33q0 -13 -8.5 -20.5t-24.5 -7.5q-18 0 -28 9t-10 24t10.5 23.5t31.5 8.5q34 0 51.5 -18.5z" />
    <glyph glyph-name="rcommaaccent" unicode="&#x157;" horiz-adv-x="414" 
d="M358.5 481.5q26.5 -31.5 26.5 -86.5q0 -43 -19 -79l-44 6q11 25 11 55q0 84 -78 84q-53 0 -83 -42t-30 -124v-295h-62v505h46l10 -114q16 59 53 90.5t89 31.5q54 0 80.5 -31.5zM160.5 -78.5q17.5 -18.5 17.5 -49.5q0 -36 -25 -57t-75 -22l-2 19q78 3 78 58q0 21 -16 33
q0 -13 -8.5 -20.5t-24.5 -7.5q-18 0 -28 9t-10 24t10.5 23.5t31.5 8.5q34 0 51.5 -18.5z" />
    <glyph glyph-name="Rcaron" unicode="&#x158;" horiz-adv-x="623" 
d="M510 378q-39 -50 -111 -64l139 -314h-74l-130 307h-155v-307h-66v700h219q105 0 161 -48.5t56 -144.5q0 -79 -39 -129zM341 356q68 0 105.5 38.5t37.5 109.5q0 74 -39 109.5t-118 35.5h-148v-293h162zM344 757h-81l-98 104h57l82 -73l81 73h58z" />
    <glyph glyph-name="rcaron" unicode="&#x159;" horiz-adv-x="414" 
d="M358.5 481.5q26.5 -31.5 26.5 -86.5q0 -43 -19 -79l-44 6q11 25 11 55q0 84 -78 84q-53 0 -83 -42t-30 -124v-295h-62v505h46l10 -114q16 59 53 90.5t89 31.5q54 0 80.5 -31.5zM260 576h-66l-100 147h49l85 -110l83 110h49z" />
    <glyph glyph-name="Sacute" unicode="&#x15a;" horiz-adv-x="589" 
d="M450.5 666.5q50.5 -41.5 50.5 -103.5q0 -29 -10 -56h-58q7 23 7 46q0 45 -35 73t-107 28q-68 0 -105 -34t-37 -96q0 -50 23.5 -79t57.5 -42.5t93 -28.5q65 -16 104.5 -32.5t67 -54t27.5 -103.5q0 -91 -60.5 -141.5t-165.5 -50.5q-164 0 -243 84l44 55q29 -37 79 -61
t122 -24q77 0 118.5 32.5t41.5 95.5q0 46 -22.5 73t-55.5 41t-90 29q-66 18 -106.5 35.5t-69 57t-28.5 106.5q0 90 56 141t156 51q95 0 145.5 -41.5zM265 752l101 104h82l-117 -104h-66z" />
    <glyph glyph-name="sacute" unicode="&#x15b;" horiz-adv-x="483" 
d="M369.5 483q41.5 -30 41.5 -79q0 -17 -6 -43l-48 6q4 15 4 34q0 31 -28.5 50.5t-87.5 19.5q-56 0 -87 -24t-31 -67q0 -36 18.5 -56.5t45.5 -30t75 -20.5q55 -11 88 -23.5t56 -41.5t23 -81q0 -65 -48.5 -100t-135.5 -35q-75 0 -124.5 22t-79.5 65l31 43q27 -44 69 -64.5
t108 -20.5q60 0 93.5 21.5t33.5 62.5q0 34 -18 54t-45 29t-73 19q-56 12 -89.5 25t-57 42t-23.5 82q0 66 45 103.5t125 37.5q84 0 125.5 -30zM215 576l87 147h71l-103 -147h-55z" />
    <glyph glyph-name="Scircumflex" unicode="&#x15c;" horiz-adv-x="589" 
d="M450.5 666.5q50.5 -41.5 50.5 -103.5q0 -29 -10 -56h-58q7 23 7 46q0 45 -35 73t-107 28q-68 0 -105 -34t-37 -96q0 -50 23.5 -79t57.5 -42.5t93 -28.5q65 -16 104.5 -32.5t67 -54t27.5 -103.5q0 -91 -60.5 -141.5t-165.5 -50.5q-164 0 -243 84l44 55q29 -37 79 -61
t122 -24q77 0 118.5 32.5t41.5 95.5q0 46 -22.5 73t-55.5 41t-90 29q-66 18 -106.5 35.5t-69 57t-28.5 106.5q0 90 56 141t156 51q95 0 145.5 -41.5zM293 827l-80 -73h-58l99 104h81l98 -104h-58z" />
    <glyph glyph-name="scircumflex" unicode="&#x15d;" horiz-adv-x="483" 
d="M369.5 483q41.5 -30 41.5 -79q0 -17 -6 -43l-48 6q4 15 4 34q0 31 -28.5 50.5t-87.5 19.5q-56 0 -87 -24t-31 -67q0 -36 18.5 -56.5t45.5 -30t75 -20.5q55 -11 88 -23.5t56 -41.5t23 -81q0 -65 -48.5 -100t-135.5 -35q-75 0 -124.5 22t-79.5 65l31 43q27 -44 69 -64.5
t108 -20.5q60 0 93.5 21.5t33.5 62.5q0 34 -18 54t-45 29t-73 19q-56 12 -89.5 25t-57 42t-23.5 82q0 66 45 103.5t125 37.5q84 0 125.5 -30zM241 686l-83 -110h-49l99 147h67l100 -147h-50z" />
    <glyph glyph-name="Scedilla" unicode="&#x15e;" horiz-adv-x="589" 
d="M471 45q-58 -51 -159 -53l-1 -47q45 -6 68 -24.5t23 -51.5q0 -37 -26.5 -57t-76.5 -20q-36 0 -65 10.5t-46 26.5l27 38q30 -42 89 -42q26 0 41.5 11.5t15.5 32.5q0 22 -20.5 33t-65.5 16l2 75q-145 5 -217 83l44 55q29 -37 79 -61t122 -24q77 0 118.5 32.5t41.5 95.5
q0 46 -22.5 73t-55.5 41t-90 29q-66 18 -106.5 35.5t-69 57t-28.5 106.5q0 90 56 141t156 51q95 0 145.5 -41.5t50.5 -103.5q0 -29 -10 -56h-58q7 23 7 46q0 45 -35 73t-107 28q-68 0 -105 -34t-37 -96q0 -50 23.5 -79t57.5 -42.5t93 -28.5q65 -16 104.5 -32.5t67 -54
t27.5 -103.5q0 -88 -58 -139z" />
    <glyph glyph-name="scedilla" unicode="&#x15f;" horiz-adv-x="483" 
d="M387.5 29q-45.5 -35 -127.5 -37l-1 -47q45 -6 68 -24.5t23 -51.5q0 -37 -26.5 -57t-76.5 -20q-36 0 -65 10.5t-46 26.5l27 38q30 -42 89 -42q26 0 41.5 11.5t15.5 32.5q0 22 -20.5 33t-65.5 16l2 75q-124 6 -180 86l31 43q27 -44 69 -64.5t108 -20.5q60 0 93.5 21.5
t33.5 62.5q0 34 -18 54t-45 29t-73 19q-56 12 -89.5 25t-57 42t-23.5 82q0 66 45 103.5t125 37.5q84 0 125.5 -30t41.5 -79q0 -17 -6 -43l-48 6q4 15 4 34q0 31 -28.5 50.5t-87.5 19.5q-56 0 -87 -24t-31 -67q0 -36 18.5 -56.5t45.5 -30t75 -20.5q55 -11 88 -23.5t56 -41.5
t23 -81q0 -63 -45.5 -98z" />
    <glyph glyph-name="Scaron" unicode="&#x160;" horiz-adv-x="589" 
d="M450.5 666.5q50.5 -41.5 50.5 -103.5q0 -29 -10 -56h-58q7 23 7 46q0 45 -35 73t-107 28q-68 0 -105 -34t-37 -96q0 -50 23.5 -79t57.5 -42.5t93 -28.5q65 -16 104.5 -32.5t67 -54t27.5 -103.5q0 -91 -60.5 -141.5t-165.5 -50.5q-164 0 -243 84l44 55q29 -37 79 -61
t122 -24q77 0 118.5 32.5t41.5 95.5q0 46 -22.5 73t-55.5 41t-90 29q-66 18 -106.5 35.5t-69 57t-28.5 106.5q0 90 56 141t156 51q95 0 145.5 -41.5zM335 757h-81l-98 104h57l82 -73l81 73h58z" />
    <glyph glyph-name="scaron" unicode="&#x161;" horiz-adv-x="483" 
d="M369.5 483q41.5 -30 41.5 -79q0 -17 -6 -43l-48 6q4 15 4 34q0 31 -28.5 50.5t-87.5 19.5q-56 0 -87 -24t-31 -67q0 -36 18.5 -56.5t45.5 -30t75 -20.5q55 -11 88 -23.5t56 -41.5t23 -81q0 -65 -48.5 -100t-135.5 -35q-75 0 -124.5 22t-79.5 65l31 43q27 -44 69 -64.5
t108 -20.5q60 0 93.5 21.5t33.5 62.5q0 34 -18 54t-45 29t-73 19q-56 12 -89.5 25t-57 42t-23.5 82q0 66 45 103.5t125 37.5q84 0 125.5 -30zM274 576h-66l-100 147h49l85 -110l83 110h49z" />
    <glyph glyph-name="Tcedilla" unicode="&#x162;" horiz-adv-x="569" 
d="M301 -55q45 -6 68 -24.5t23 -51.5q0 -37 -26.5 -57t-76.5 -20q-36 0 -65 10.5t-46 26.5l27 38q30 -42 89 -42q26 0 41.5 11.5t15.5 32.5q0 22 -20.5 33t-65.5 16l3 82h-17v644h-234v56h534v-56h-234v-644h-15z" />
    <glyph glyph-name="tcedilla" unicode="&#x163;" horiz-adv-x="367" 
d="M225 -8l-1 -47q45 -6 68 -24.5t23 -51.5q0 -37 -26.5 -57t-76.5 -20q-36 0 -65 10.5t-46 26.5l27 38q30 -42 89 -42q26 0 41.5 11.5t15.5 32.5q0 22 -20.5 33t-65.5 16l3 77q-42 8 -63.5 40t-21.5 85v345h-81v40h63q15 0 20.5 4.5t7.5 15.5l9 96h43v-116h161l-1 -40h-160
v-342q0 -39 19.5 -62t53.5 -23q29 0 49.5 11t37.5 33l22 -27q-46 -62 -125 -63z" />
    <glyph glyph-name="Tcaron" unicode="&#x164;" horiz-adv-x="569" 
d="M317 644v-644h-66v644h-234v56h534v-56h-234zM323 757h-81l-98 104h57l82 -73l81 73h58z" />
    <glyph glyph-name="tcaron" unicode="&#x165;" horiz-adv-x="367" 
d="M297.5 8.5q-30.5 -16.5 -76.5 -16.5q-57 0 -86 33t-29 95v345h-81v40h63q15 0 20.5 4.5t7.5 15.5l9 96h43v-116h161l-1 -40h-160v-342q0 -39 19.5 -62t53.5 -23q29 0 49.5 11t37.5 33l22 -27q-22 -30 -52.5 -46.5zM324 746.5q16 -20.5 16 -54.5q0 -39 -24.5 -61
t-70.5 -23l-2 23q37 1 53.5 15.5t16.5 42.5q0 14 -6 26q-6 -22 -34 -22q-18 0 -28 9.5t-10 27.5q0 17 11 27t32 10q30 0 46 -20.5z" />
    <glyph glyph-name="Tbar" unicode="&#x166;" horiz-adv-x="569" 
d="M317 338h160v-47h-160v-291h-66v291h-159v47h159v306h-234v56h534v-56h-234v-306z" />
    <glyph glyph-name="tbar" unicode="&#x167;" horiz-adv-x="367" 
d="M297.5 8.5q-30.5 -16.5 -76.5 -16.5q-57 0 -86 33t-29 95v126h-81v41h81v178h-81v40h63q15 0 20.5 4.5t7.5 15.5l9 96h43v-116h161l-1 -40h-160v-178h158v-41h-158v-123q0 -39 19.5 -62t53.5 -23q29 0 49.5 11t37.5 33l22 -27q-22 -30 -52.5 -46.5z" />
    <glyph glyph-name="Utilde" unicode="&#x168;" horiz-adv-x="606" 
d="M136 52.5q-56 58.5 -56 173.5v474h66v-470q0 -90 40.5 -136.5t121.5 -46.5q160 0 160 183v470h58v-474q0 -113 -56.5 -172.5t-167.5 -59.5q-110 0 -166 58.5zM441 773q-21 -24 -61 -24q-20 0 -40.5 7.5t-51.5 21.5q-24 11 -39.5 17t-27.5 6q-46 0 -46 -52h-32
q0 46 20.5 70.5t59.5 24.5q20 0 39.5 -6.5t54.5 -21.5q25 -12 40.5 -17.5t28.5 -5.5q45 0 45 50h31q0 -46 -21 -70z" />
    <glyph glyph-name="utilde" unicode="&#x169;" horiz-adv-x="540" 
d="M463 0h-43l-14 104q-21 -53 -67 -82.5t-109 -29.5q-83 0 -122.5 44t-39.5 144v325h62v-317q0 -76 29.5 -110t94.5 -34q67 0 107 37.5t40 108.5v315h62v-505zM327 591q-19 0 -37 7.5t-46 22.5q-21 11 -35 17t-25 6q-43 0 -43 -52h-31q0 95 75 95q20 0 38 -7.5t48 -22.5
q22 -12 35 -17.5t24 -5.5q43 0 43 52h31q0 -95 -77 -95z" />
    <glyph glyph-name="Umacron" unicode="&#x16a;" horiz-adv-x="606" 
d="M136 52.5q-56 58.5 -56 173.5v474h66v-470q0 -90 40.5 -136.5t121.5 -46.5q160 0 160 183v470h58v-474q0 -113 -56.5 -172.5t-167.5 -59.5q-110 0 -166 58.5zM449 772h-292v47h292v-47z" />
    <glyph glyph-name="umacron" unicode="&#x16b;" horiz-adv-x="540" 
d="M463 0h-43l-14 104q-21 -53 -67 -82.5t-109 -29.5q-83 0 -122.5 44t-39.5 144v325h62v-317q0 -76 29.5 -110t94.5 -34q67 0 107 37.5t40 108.5v315h62v-505zM402 617h-275v46h275v-46z" />
    <glyph glyph-name="Ubreve" unicode="&#x16c;" horiz-adv-x="606" 
d="M136 52.5q-56 58.5 -56 173.5v474h66v-470q0 -90 40.5 -136.5t121.5 -46.5q160 0 160 183v470h58v-474q0 -113 -56.5 -172.5t-167.5 -59.5q-110 0 -166 58.5zM402 777.5q-33 -29.5 -100 -29.5q-65 0 -98.5 29.5t-33.5 85.5h39q0 -34 24 -53.5t69 -19.5q46 0 70.5 19.5
t24.5 53.5h38q0 -56 -33 -85.5z" />
    <glyph glyph-name="ubreve" unicode="&#x16d;" horiz-adv-x="540" 
d="M463 0h-43l-14 104q-21 -53 -67 -82.5t-109 -29.5q-83 0 -122.5 44t-39.5 144v325h62v-317q0 -76 29.5 -110t94.5 -34q67 0 107 37.5t40 108.5v315h62v-505zM366.5 615q-32.5 -31 -100.5 -31q-67 0 -100 31t-33 96h36q0 -86 97 -86t97 86h36q0 -65 -32.5 -96z" />
    <glyph glyph-name="Uring" unicode="&#x16e;" horiz-adv-x="606" 
d="M136 52.5q-56 58.5 -56 173.5v474h66v-470q0 -90 40.5 -136.5t121.5 -46.5q160 0 160 183v470h58v-474q0 -113 -56.5 -172.5t-167.5 -59.5q-110 0 -166 58.5zM384.5 841q26.5 -14 26.5 -42q0 -58 -108 -58q-110 0 -110 58q0 56 110 56q55 0 81.5 -14zM259 828
q-14 -9 -14 -29t14 -29.5t43 -9.5t43 9.5t14 29.5t-14 29t-43 9t-43 -9z" />
    <glyph glyph-name="uring" unicode="&#x16f;" horiz-adv-x="540" 
d="M463 0h-43l-14 104q-21 -53 -67 -82.5t-109 -29.5q-83 0 -122.5 44t-39.5 144v325h62v-317q0 -76 29.5 -110t94.5 -34q67 0 107 37.5t40 108.5v315h62v-505zM347 711q29 -21 29 -61t-29 -61.5t-82 -21.5t-82 21.5t-29 61.5t29 61t82 21t82 -21zM219.5 693.5
q-17.5 -15.5 -17.5 -43.5t17.5 -44t46.5 -16q28 0 45.5 16t17.5 44t-17.5 43.5t-45.5 15.5q-29 0 -46.5 -15.5z" />
    <glyph glyph-name="Uhungarumlaut" unicode="&#x170;" horiz-adv-x="606" 
d="M136 52.5q-56 58.5 -56 173.5v474h66v-470q0 -90 40.5 -136.5t121.5 -46.5q160 0 160 183v470h58v-474q0 -113 -56.5 -172.5t-167.5 -59.5q-110 0 -166 58.5zM197 752l75 109h75l-93 -109h-57zM327 752l111 109h77l-126 -109h-62z" />
    <glyph glyph-name="uhungarumlaut" unicode="&#x171;" horiz-adv-x="540" 
d="M463 0h-43l-14 104q-21 -53 -67 -82.5t-109 -29.5q-83 0 -122.5 44t-39.5 144v325h62v-317q0 -76 29.5 -110t94.5 -34q67 0 107 37.5t40 108.5v315h62v-505zM178 574l66 148h61l-81 -148h-46zM310 574l103 148h61l-115 -148h-49z" />
    <glyph glyph-name="Uogonek" unicode="&#x172;" horiz-adv-x="606" 
d="M526 226q0 -125 -69 -184q-30 -35 -45 -62t-15 -53q0 -19 8.5 -29.5t23.5 -10.5q11 0 17.5 2.5t14.5 7.5l6 -34q-13 -7 -23 -10.5t-27 -3.5q-30 0 -48 18t-18 48q0 44 39 91q-39 -12 -88 -12q-110 0 -166 58.5t-56 173.5v474h66v-470q0 -90 40.5 -136.5t121.5 -46.5
q160 0 160 183v470h58v-474z" />
    <glyph glyph-name="uogonek" unicode="&#x173;" horiz-adv-x="540" 
d="M448 -192.5q-10 -3.5 -27 -3.5q-30 0 -48 18t-18 48q0 33 22 67.5t57 62.5h-14l-14 104q-21 -53 -67 -82.5t-109 -29.5q-83 0 -122.5 44t-39.5 144v325h62v-317q0 -76 29.5 -110t94.5 -34q67 0 107 37.5t40 108.5v315h62v-504l1 -1q-31 -35 -47 -63t-16 -55
q0 -19 8.5 -29.5t23.5 -10.5q11 0 17.5 2.5t14.5 7.5l6 -34q-13 -7 -23 -10.5z" />
    <glyph glyph-name="Wcircumflex" unicode="&#x174;" horiz-adv-x="900" 
d="M683 0h-62l-170 614l-168 -614h-64l-159 700h64l133 -612l164 612h68l164 -607l132 607h55zM454 827l-80 -73h-58l99 104h81l98 -104h-58z" />
    <glyph glyph-name="wcircumflex" unicode="&#x175;" horiz-adv-x="734" 
d="M568 0h-72l-125 437l-129 -437h-71l-138 506h60l120 -441l130 441h62l128 -441l114 441h54zM368 686l-83 -110h-49l99 147h67l100 -147h-50z" />
    <glyph glyph-name="Ycircumflex" unicode="&#x176;" horiz-adv-x="571" 
d="M319 0h-65v278l-224 422h78l184 -364l185 364h65l-223 -423v-277zM282 827l-80 -73h-58l99 104h81l98 -104h-58z" />
    <glyph glyph-name="ycircumflex" unicode="&#x177;" horiz-adv-x="509" 
d="M286 -26q-26 -69 -53 -108.5t-61.5 -56.5t-83.5 -17q-75 0 -132 35l29 53q43 -40 106 -40q35 0 58.5 11t42.5 39t38 80l11 30h-17l-193 505h68l163 -448l164 448h58zM253 686l-83 -110h-49l99 147h67l100 -147h-50z" />
    <glyph glyph-name="Ydieresis" unicode="&#x178;" horiz-adv-x="571" 
d="M319 0h-65v278l-224 422h78l184 -364l185 364h65l-223 -423v-277zM222 833q11 -10 11 -29q0 -17 -11 -27t-32 -10q-20 0 -31 10t-11 27q0 19 11 29t31 10q21 0 32 -10zM411 833q11 -10 11 -29q0 -17 -11 -27t-32 -10q-19 0 -30 10t-11 27q0 19 10.5 29t30.5 10
q21 0 32 -10z" />
    <glyph glyph-name="Zacute" unicode="&#x179;" horiz-adv-x="533" 
d="M487 0h-441v41l343 605h-328v54h410v-45l-341 -601h357v-54zM236 752l101 104h82l-117 -104h-66z" />
    <glyph glyph-name="zacute" unicode="&#x17a;" horiz-adv-x="467" 
d="M419 0h-370v29l276 423h-264v53h346v-31l-275 -421h287v-53zM206 576l87 147h71l-103 -147h-55z" />
    <glyph glyph-name="Zdotaccent" unicode="&#x17b;" horiz-adv-x="533" 
d="M487 0h-441v41l343 605h-328v54h410v-45l-341 -601h357v-54zM300 833q12 -10 12 -28q0 -17 -12 -26.5t-34 -9.5q-21 0 -33 9.5t-12 26.5q0 18 12 28t33 10q22 0 34 -10z" />
    <glyph glyph-name="zdotaccent" unicode="&#x17c;" horiz-adv-x="467" 
d="M419 0h-370v29l276 423h-264v53h346v-31l-275 -421h287v-53zM267 681q12 -11 12 -30t-12 -29.5t-34 -10.5q-21 0 -33 10.5t-12 29.5t12 30t33 11q22 0 34 -11z" />
    <glyph glyph-name="Zcaron" unicode="&#x17d;" horiz-adv-x="533" 
d="M487 0h-441v41l343 605h-328v54h410v-45l-341 -601h357v-54zM306 757h-81l-98 104h57l82 -73l81 73h58z" />
    <glyph glyph-name="zcaron" unicode="&#x17e;" horiz-adv-x="467" 
d="M419 0h-370v29l276 423h-264v53h346v-31l-275 -421h287v-53zM266 576h-66l-100 147h49l85 -110l83 110h49z" />
    <glyph glyph-name="Schwa" unicode="&#x18f;" horiz-adv-x="598" 
d="M469 620q66 -87 66 -271q0 -177 -64 -267t-177 -90q-106 0 -168 69.5t-62 206.5q0 50 14 89h392q-2 151 -53 223t-142 72q-117 0 -180 -89l-29 52q36 42 90 67t125 25q122 0 188 -87zM419.5 109q44.5 65 49.5 199h-333q-4 -19 -4 -45q0 -109 42.5 -164t122.5 -55
q78 0 122.5 65z" />
    <glyph glyph-name="Aringacute" unicode="&#x1fa;" horiz-adv-x="570" 
d="M134 174l-54 -174h-57l222 690q-69 9 -69 52q0 47 85 51l86 69h82l-103 -70q68 -9 68 -50q0 -43 -71 -52l223 -690h-68l-53 174h-291zM285 707q56 0 56 35q0 33 -56 33q-58 0 -58 -33q0 -35 58 -35zM279 647l-129 -419h258z" />
    <glyph glyph-name="aringacute" unicode="&#x1fb;" horiz-adv-x="511" 
d="M138 635q0 65 86 73l82 138h73l-97 -139q78 -9 78 -72q0 -75 -110 -75q-112 0 -112 75zM201 675q-18 -13 -18 -40t18 -40t49 -13q30 0 47.5 13t17.5 40t-17.5 40t-47.5 13q-31 0 -49 -13zM441 -2q-71 0 -75 83q-24 -41 -67 -65t-99 -24q-70 0 -107.5 33.5t-37.5 92.5
q0 73 67.5 114.5t243.5 42.5v63q0 76 -26 107t-88 31q-60 0 -89 -25.5t-29 -72.5q0 -11 2 -23l-56 -4q-3 13 -3 33q0 58 44 93.5t131 35.5q92 0 134.5 -42.5t42.5 -136.5v-252q0 -48 33 -48q13 0 23 8l9 -27q-19 -17 -53 -17zM323 74q43 41 43 108v64q-142 -1 -195 -34.5
t-53 -90.5q0 -41 26.5 -64.5t72.5 -23.5q63 0 106 41z" />
    <glyph glyph-name="AEacute" unicode="&#x1fc;" horiz-adv-x="886" 
d="M826 0h-406v181h-258l-66 -181h-66l264 700h510v-53h-318v-268h289v-51h-289v-275h340v-53zM420 648h-88l-153 -420h241v420zM478 752l101 104h82l-117 -104h-66z" />
    <glyph glyph-name="aeacute" unicode="&#x1fd;" horiz-adv-x="818" 
d="M585 -8q-71 0 -120 34.5t-71 100.5q-22 -60 -75 -97.5t-125 -37.5q-67 0 -103.5 33.5t-36.5 91.5q0 74 70 116t251 43l1 65q0 73 -29 104t-91 31q-61 0 -92 -26.5t-31 -71.5q0 -10 2 -26h-56q-3 27 -3 32q0 58 44.5 93.5t136.5 35.5q68 0 106.5 -23.5t53.5 -75.5
q26 48 69 73.5t97 25.5q80 0 127.5 -50.5t47.5 -150.5q0 -33 -9 -64l-313 1q0 -102 42 -156t116 -54q48 0 80.5 15t57.5 43l27 -38q-65 -67 -174 -67zM481 427q-38 -47 -44 -143l262 -1q4 15 4 38q0 77 -31.5 115t-90.5 38q-62 0 -100 -47zM329 76.5q45 43.5 48 134.5
q-2 22 -2 36q-147 -1 -202.5 -35t-55.5 -91q0 -41 26.5 -64.5t72.5 -23.5q68 0 113 43.5zM392 576l87 147h71l-103 -147h-55z" />
    <glyph glyph-name="Oslashacute" unicode="&#x1fe;" horiz-adv-x="631" 
d="M568 351q0 -176 -65 -267.5t-187 -91.5q-61 0 -106 22l-45 -118h-57l56 147q-101 87 -101 308q0 175 65 266t188 91q63 0 111 -24l38 100h57l-50 -131q96 -87 96 -302zM194 98l206 536q-36 21 -84 21q-91 0 -138.5 -76.5t-47.5 -227.5q0 -177 64 -253zM454 121.5
q47 76.5 47 229.5q0 169 -59 245l-205 -532q34 -19 79 -19q91 0 138 76.5zM284 752l101 104h82l-117 -104h-66z" />
    <glyph glyph-name="oslashacute" unicode="&#x1ff;" horiz-adv-x="519" 
d="M474 253q0 -128 -52.5 -194.5t-155.5 -66.5q-48 0 -83 13l-49 -121h-46l56 140q-91 61 -91 227q0 129 54 195.5t159 66.5q47 0 80 -13l43 107h46l-52 -125q91 -61 91 -229zM171 69l150 390q-24 9 -55 9q-151 0 -151 -217q0 -131 56 -182zM376 90.5q36 53.5 36 162.5
q0 130 -53 182l-149 -389q25 -9 56 -9q74 0 110 53.5zM232 576l87 147h71l-103 -147h-55z" />
    <glyph glyph-name="Scommaaccent" unicode="&#x218;" horiz-adv-x="589" 
d="M450.5 666.5q50.5 -41.5 50.5 -103.5q0 -29 -10 -56h-58q7 23 7 46q0 45 -35 73t-107 28q-68 0 -105 -34t-37 -96q0 -50 23.5 -79t57.5 -42.5t93 -28.5q65 -16 104.5 -32.5t67 -54t27.5 -103.5q0 -91 -60.5 -141.5t-165.5 -50.5q-164 0 -243 84l44 55q29 -37 79 -61
t122 -24q77 0 118.5 32.5t41.5 95.5q0 46 -22.5 73t-55.5 41t-90 29q-66 18 -106.5 35.5t-69 57t-28.5 106.5q0 90 56 141t156 51q95 0 145.5 -41.5zM341.5 -78.5q17.5 -18.5 17.5 -49.5q0 -36 -25 -57t-75 -22l-2 19q78 3 78 58q0 21 -16 33q0 -13 -8.5 -20.5t-24.5 -7.5
q-18 0 -28 9t-10 24t10.5 23.5t31.5 8.5q34 0 51.5 -18.5z" />
    <glyph glyph-name="scommaaccent" unicode="&#x219;" horiz-adv-x="483" 
d="M369.5 483q41.5 -30 41.5 -79q0 -17 -6 -43l-48 6q4 15 4 34q0 31 -28.5 50.5t-87.5 19.5q-56 0 -87 -24t-31 -67q0 -36 18.5 -56.5t45.5 -30t75 -20.5q55 -11 88 -23.5t56 -41.5t23 -81q0 -65 -48.5 -100t-135.5 -35q-75 0 -124.5 22t-79.5 65l31 43q27 -44 69 -64.5
t108 -20.5q60 0 93.5 21.5t33.5 62.5q0 34 -18 54t-45 29t-73 19q-56 12 -89.5 25t-57 42t-23.5 82q0 66 45 103.5t125 37.5q84 0 125.5 -30zM289.5 -78.5q17.5 -18.5 17.5 -49.5q0 -36 -25 -57t-75 -22l-2 19q78 3 78 58q0 21 -16 33q0 -13 -8.5 -20.5t-24.5 -7.5
q-18 0 -28 9t-10 24t10.5 23.5t31.5 8.5q34 0 51.5 -18.5z" />
    <glyph glyph-name="uni021A" unicode="&#x21a;" horiz-adv-x="569" 
d="M317 644v-644h-66v644h-234v56h534v-56h-234zM332.5 -78.5q17.5 -18.5 17.5 -49.5q0 -36 -25 -57t-75 -22l-2 19q78 3 78 58q0 21 -16 33q0 -13 -8.5 -20.5t-24.5 -7.5q-18 0 -28 9t-10 24t10.5 23.5t31.5 8.5q34 0 51.5 -18.5z" />
    <glyph glyph-name="uni021B" unicode="&#x21b;" horiz-adv-x="367" 
d="M297.5 8.5q-30.5 -16.5 -76.5 -16.5q-57 0 -86 33t-29 95v345h-81v40h63q15 0 20.5 4.5t7.5 15.5l9 96h43v-116h161l-1 -40h-160v-342q0 -39 19.5 -62t53.5 -23q29 0 49.5 11t37.5 33l22 -27q-22 -30 -52.5 -46.5zM254.5 -78.5q17.5 -18.5 17.5 -49.5q0 -36 -25 -57
t-75 -22l-2 19q78 3 78 58q0 21 -16 33q0 -13 -8.5 -20.5t-24.5 -7.5q-18 0 -28 9t-10 24t10.5 23.5t31.5 8.5q34 0 51.5 -18.5z" />
    <glyph glyph-name="dotlessj" unicode="&#x237;" horiz-adv-x="263" 
d="M82.5 -139.5q21.5 24.5 21.5 79.5v565h62v-553q0 -83 -37.5 -121.5t-118.5 -38.5q-50 0 -89 15l18 48q33 -19 72 -19q50 0 71.5 24.5z" />
    <glyph glyph-name="schwa" unicode="&#x259;" horiz-adv-x="502" 
d="M82 405l-23 41q29 30 72.5 48.5t100.5 18.5q102 0 159.5 -66.5t57.5 -194.5q0 -83 -27.5 -141.5t-76 -88.5t-112.5 -30q-82 0 -129 49.5t-47 151.5q0 38 8 67h322q-1 101 -45 154t-120 53q-88 0 -140 -62zM339 78.5q40 47.5 47 140.5h-271q-4 -22 -4 -36q0 -76 33 -114
t92 -38q63 0 103 47.5z" />
    <glyph glyph-name="circumflex" unicode="&#x2c6;" horiz-adv-x="433" 
d="M216 686l-83 -110h-49l99 147h67l100 -147h-50z" />
    <glyph glyph-name="caron" unicode="&#x2c7;" horiz-adv-x="433" 
d="M249 576h-66l-100 147h49l85 -110l83 110h49z" />
    <glyph glyph-name="breve" unicode="&#x2d8;" horiz-adv-x="448" 
d="M324.5 616q-32.5 -31 -100.5 -31q-67 0 -100 31t-33 96h36q0 -86 97 -86t97 86h36q0 -65 -32.5 -96z" />
    <glyph glyph-name="dotaccent" unicode="&#x2d9;" horiz-adv-x="251" 
d="M159 681q12 -11 12 -30t-12 -29.5t-34 -10.5q-21 0 -33 10.5t-12 29.5t12 30t33 11q22 0 34 -11z" />
    <glyph glyph-name="ring" unicode="&#x2da;" horiz-adv-x="393" 
d="M278 711q29 -21 29 -61t-29 -61.5t-82 -21.5t-82 21.5t-29 61.5t29 61t82 21t82 -21zM150.5 693.5q-17.5 -15.5 -17.5 -43.5t17.5 -44t46.5 -16q28 0 45.5 16t17.5 44t-17.5 43.5t-45.5 15.5q-29 0 -46.5 -15.5z" />
    <glyph glyph-name="ogonek" unicode="&#x2db;" horiz-adv-x="308" 
d="M143 -64q-16 -28 -16 -55q0 -19 8.5 -29.5t23.5 -10.5q11 0 17.5 2.5t14.5 7.5l6 -34q-13 -7 -23 -10.5t-27 -3.5q-30 0 -48 18t-18 48q0 37 26.5 74.5t67.5 67.5l15 -12q-31 -35 -47 -63z" />
    <glyph glyph-name="tilde" unicode="&#x2dc;" horiz-adv-x="470" 
d="M305 591q-19 0 -37 7.5t-46 22.5q-21 11 -35 17t-25 6q-43 0 -43 -52h-31q0 95 75 95q20 0 38 -7.5t48 -22.5q22 -12 35 -17.5t24 -5.5q43 0 43 52h31q0 -95 -77 -95z" />
    <glyph glyph-name="hungarumlaut" unicode="&#x2dd;" horiz-adv-x="478" 
d="M86 575l66 148h61l-81 -148h-46zM218 575l103 148h61l-115 -148h-49z" />
    <glyph glyph-name="uni0326" unicode="&#x326;" horiz-adv-x="0" 
d="M175.5 -78.5q17.5 -18.5 17.5 -49.5q0 -36 -25 -57t-75 -22l-2 19q78 3 78 58q0 21 -16 33q0 -13 -8.5 -20.5t-24.5 -7.5q-18 0 -28 9t-10 24t10.5 23.5t31.5 8.5q34 0 51.5 -18.5z" />
    <glyph glyph-name="Delta" unicode="&#x394;" horiz-adv-x="569" 
d="M23 0l225 700h72l226 -700h-523zM277 647l-185 -600h369z" />
    <glyph glyph-name="Omega" unicode="&#x3a9;" horiz-adv-x="660" 
d="M544.5 186.5q-38.5 -81.5 -113.5 -134.5h150v-52h-192v60q62 52 94 130t32 176q0 289 -185 289q-92 0 -139 -72t-47 -217q0 -97 32.5 -175t94.5 -131v-34l-1 1v-27h-192v52h150q-75 53 -113.5 134.5t-38.5 185.5q0 168 65 252t189 84t188.5 -84t64.5 -252
q0 -104 -38.5 -185.5z" />
    <glyph glyph-name="Wgrave" unicode="&#x1e80;" horiz-adv-x="900" 
d="M683 0h-62l-170 614l-168 -614h-64l-159 700h64l133 -612l164 612h68l164 -607l132 607h55zM428 752l-110 107h78l94 -107h-62z" />
    <glyph glyph-name="wgrave" unicode="&#x1e81;" horiz-adv-x="734" 
d="M568 0h-72l-125 437l-129 -437h-71l-138 506h60l120 -441l130 441h62l128 -441l114 441h54zM353 576l-103 147h72l88 -147h-57z" />
    <glyph glyph-name="Wacute" unicode="&#x1e82;" horiz-adv-x="900" 
d="M683 0h-62l-170 614l-168 -614h-64l-159 700h64l133 -612l164 612h68l164 -607l132 607h55zM427 752l101 104h82l-117 -104h-66z" />
    <glyph glyph-name="wacute" unicode="&#x1e83;" horiz-adv-x="734" 
d="M568 0h-72l-125 437l-129 -437h-71l-138 506h60l120 -441l130 441h62l128 -441l114 441h54zM342 576l87 147h71l-103 -147h-55z" />
    <glyph glyph-name="Wdieresis" unicode="&#x1e84;" horiz-adv-x="900" 
d="M683 0h-62l-170 614l-168 -614h-64l-159 700h64l133 -612l164 612h68l164 -607l132 607h55zM394 833q11 -10 11 -29q0 -17 -11 -27t-32 -10q-20 0 -31 10t-11 27q0 19 11 29t31 10q21 0 32 -10zM583 833q11 -10 11 -29q0 -17 -11 -27t-32 -10q-19 0 -30 10t-11 27
q0 19 10.5 29t30.5 10q21 0 32 -10z" />
    <glyph glyph-name="wdieresis" unicode="&#x1e85;" horiz-adv-x="734" 
d="M256.5 620q-11.5 10 -11.5 29t11.5 29.5t32.5 10.5t32.5 -10.5t11.5 -29.5t-11.5 -29t-32.5 -10t-32.5 10zM416.5 620q-11.5 10 -11.5 29t11.5 29.5t32.5 10.5t32.5 -10.5t11.5 -29.5t-11.5 -29t-32.5 -10t-32.5 10zM568 0h-72l-125 437l-129 -437h-71l-138 506h60
l120 -441l130 441h62l128 -441l114 441h54z" />
    <glyph glyph-name="uni1E9E" unicode="&#x1e9e;" horiz-adv-x="668" 
d="M515.5 331.5q41.5 -20.5 66 -58.5t24.5 -101q0 -83 -53 -131.5t-143 -48.5q-98 0 -153 36l12 58q23 -18 59 -30t85 -12q60 0 94.5 33.5t34.5 93.5q0 51 -22 80t-58.5 43.5t-109.5 33.5v44l157 224q-31 28 -73 44.5t-89 16.5q-88 0 -137 -48.5t-49 -148.5v-460h-65v454
q0 128 66 191t186 63q66 0 123.5 -21.5t95.5 -52.5l-1 -1v-46l-157 -217q65 -18 106.5 -38.5z" />
    <glyph glyph-name="Ygrave" unicode="&#x1ef2;" horiz-adv-x="571" 
d="M319 0h-65v278l-224 422h78l184 -364l185 364h65l-223 -423v-277zM256 752l-110 107h78l94 -107h-62z" />
    <glyph glyph-name="ygrave" unicode="&#x1ef3;" horiz-adv-x="509" 
d="M286 -26q-26 -69 -53 -108.5t-61.5 -56.5t-83.5 -17q-75 0 -132 35l29 53q43 -40 106 -40q35 0 58.5 11t42.5 39t38 80l11 30h-17l-193 505h68l163 -448l164 448h58zM238 576l-103 147h72l88 -147h-57z" />
    <glyph glyph-name="uni2009" unicode="&#x2009;" horiz-adv-x="95" 
 />
    <glyph glyph-name="endash" unicode="&#x2013;" horiz-adv-x="636" 
d="M86 235v57h464v-57h-464z" />
    <glyph glyph-name="emdash" unicode="&#x2014;" horiz-adv-x="794" 
d="M86 235v57h621v-57h-621z" />
    <glyph glyph-name="quoteleft" unicode="&#x2018;" horiz-adv-x="260" 
d="M176 609q11 -11 11 -31t-12 -33t-32 -13q-30 0 -50 18.5t-20 60.5q0 47 25 69t79 24l3 -26q-43 -2 -59.5 -15.5t-16.5 -42.5q0 -13 5 -25q8 25 36 25q20 0 31 -11z" />
    <glyph glyph-name="quoteright" unicode="&#x2019;" horiz-adv-x="260" 
d="M167 685.5q20 -18.5 20 -60.5q0 -47 -25 -69t-79 -24l-3 26q43 2 59.5 15.5t16.5 42.5q0 13 -5 25q-8 -25 -36 -25q-20 0 -31 11t-11 31t12 33t32 13q30 0 50 -18.5z" />
    <glyph glyph-name="quotesinglbase" unicode="&#x201a;" horiz-adv-x="260" 
d="M167 65.5q20 -18.5 20 -60.5q0 -47 -25 -69t-79 -24l-3 26q43 2 59.5 15.5t16.5 42.5q0 13 -5 25q-8 -25 -36 -25q-20 0 -31 11t-11 31t12 33t32 13q30 0 50 -18.5z" />
    <glyph glyph-name="quotedblleft" unicode="&#x201c;" horiz-adv-x="401" 
d="M317 609q11 -11 11 -31t-12 -33t-32 -13q-30 0 -50 18.5t-20 60.5q0 47 25 69t79 24l3 -26q-43 -2 -59.5 -15.5t-16.5 -42.5q0 -13 5 -25q8 25 36 25q20 0 31 -11zM176 609q11 -11 11 -31t-12 -33t-32 -13q-30 0 -50 18.5t-20 60.5q0 47 25 69t79 24l3 -26
q-43 -2 -59.5 -15.5t-16.5 -42.5q0 -13 5 -25q8 25 36 25q20 0 31 -11z" />
    <glyph glyph-name="quotedblright" unicode="&#x201d;" horiz-adv-x="401" 
d="M308 685.5q20 -18.5 20 -60.5q0 -47 -25 -69t-79 -24l-3 26q43 2 59.5 15.5t16.5 42.5q0 13 -5 25q-8 -25 -36 -25q-20 0 -31 11t-11 31t12 33t32 13q30 0 50 -18.5zM167 685.5q20 -18.5 20 -60.5q0 -47 -25 -69t-79 -24l-3 26q43 2 59.5 15.5t16.5 42.5q0 13 -5 25
q-8 -25 -36 -25q-20 0 -31 11t-11 31t12 33t32 13q30 0 50 -18.5z" />
    <glyph glyph-name="quotedblbase" unicode="&#x201e;" horiz-adv-x="401" 
d="M308 65.5q20 -18.5 20 -60.5q0 -47 -25 -69t-79 -24l-3 26q43 2 59.5 15.5t16.5 42.5q0 13 -5 25q-8 -25 -36 -25q-20 0 -31 11t-11 31t12 33t32 13q30 0 50 -18.5zM167 65.5q20 -18.5 20 -60.5q0 -47 -25 -69t-79 -24l-3 26q43 2 59.5 15.5t16.5 42.5q0 13 -5 25
q-8 -25 -36 -25q-20 0 -31 11t-11 31t12 33t32 13q30 0 50 -18.5z" />
    <glyph glyph-name="dagger" unicode="&#x2020;" horiz-adv-x="605" 
d="M332 419l5 -568h-69l5 568l-192 -5v60l191 -5l-4 257h69l-4 -257l192 5v-60z" />
    <glyph glyph-name="daggerdbl" unicode="&#x2021;" horiz-adv-x="605" 
d="M331 159l194 5v-60l-192 5l4 -258h-69l4 258l-191 -5v60l192 -5v260l-192 -5v60l191 -5l-4 257h69l-4 -257l192 5v-60l-193 5z" />
    <glyph glyph-name="bullet" unicode="&#x2022;" horiz-adv-x="323" 
d="M207.5 392.5q16.5 -17.5 16.5 -48.5q0 -29 -16 -46t-48 -17q-30 0 -46 17t-16 46q0 31 16 48.5t46 17.5q31 0 47.5 -17.5z" />
    <glyph glyph-name="ellipsis" unicode="&#x2026;" horiz-adv-x="589" 
d="M326.5 75q11.5 -12 11.5 -33q0 -20 -11 -31.5t-33 -11.5q-20 0 -31 11.5t-11 31.5q0 21 11 33t31 12q21 0 32.5 -12zM498.5 75q11.5 -12 11.5 -33q0 -20 -11 -31.5t-33 -11.5q-20 0 -31 11.5t-11 31.5q0 21 11 33t31 12q21 0 32.5 -12zM154.5 75q11.5 -12 11.5 -33
q0 -20 -11 -31.5t-33 -11.5q-20 0 -31 11.5t-11 31.5q0 21 11 33t31 12q21 0 32.5 -12z" />
    <glyph glyph-name="perthousand" unicode="&#x2030;" horiz-adv-x="1423" 
d="M383.5 661q47.5 -47 47.5 -125q0 -79 -47.5 -126.5t-127.5 -47.5t-128 47.5t-48 126.5q0 78 48 125t128 47t127.5 -47zM294 0h-74l496 700h74zM166.5 630q-33.5 -35 -33.5 -94q0 -60 33.5 -95.5t89.5 -35.5t89 35.5t33 95.5q0 59 -33 94t-89 35t-89.5 -35zM881.5 291
q47.5 -47 47.5 -126t-47.5 -126t-127.5 -47q-81 0 -128.5 47t-47.5 126t47.5 126t128.5 47q80 0 127.5 -47zM1302.5 291q47.5 -47 47.5 -126t-47.5 -126t-127.5 -47t-128 47t-48 126t48 126t128 47t127.5 -47zM665 259.5q-33 -35.5 -33 -94.5q0 -60 33 -95t89 -35t89 35
t33 95q0 59 -33 94.5t-89 35.5t-89 -35.5zM1085.5 259.5q-33.5 -35.5 -33.5 -94.5q0 -60 33 -95t89 -35t89.5 35t33.5 95q0 59 -33.5 94.5t-89.5 35.5q-55 0 -88.5 -35.5z" />
    <glyph glyph-name="guilsinglleft" unicode="&#x2039;" horiz-adv-x="314" 
d="M181 55l-115 206l114 206l56 -13l-101 -193l102 -193z" />
    <glyph glyph-name="guilsinglright" unicode="&#x203a;" horiz-adv-x="285" 
d="M105 55l-56 13l101 193l-102 193l56 13l115 -206z" />
    <glyph glyph-name="fraction" unicode="&#x2044;" horiz-adv-x="342" 
d="M-114 0l511 700h58l-511 -700h-58z" />
    <glyph glyph-name="zerosuperior" unicode="&#x2070;" horiz-adv-x="386" 
d="M305.5 740q38.5 -51 38.5 -150q0 -100 -38.5 -152t-111.5 -52q-74 0 -113 52t-39 152q0 99 39 150t113 51q73 0 111.5 -51zM93 590q0 -83 24.5 -123t76.5 -40q101 0 101 163q0 80 -25.5 121t-75.5 41q-101 0 -101 -162z" />
    <glyph glyph-name="foursuperior" unicode="&#x2074;" horiz-adv-x="359" 
d="M268 490v-91h-49v91h-196v28l176 277h69v-266h64v-39h-64zM219 759l-144 -230h144v230z" />
    <glyph glyph-name="fivesuperior" unicode="&#x2075;" horiz-adv-x="354" 
d="M282 614q33 -32 33 -91q0 -58 -37 -93.5t-104 -35.5q-62 0 -96.5 27t-38.5 76l47 6q4 -33 27.5 -51.5t61.5 -18.5q43 0 67.5 24.5t24.5 64.5q0 43 -23 67t-64 24q-31 0 -55.5 -13.5t-33.5 -32.5l-45 3l21 225h225l1 -41h-188l-16 -151q16 19 43 31t61 12q56 0 89 -32z
" />
    <glyph glyph-name="sixsuperior" unicode="&#x2076;" horiz-adv-x="361" 
d="M296.5 601q30.5 -30 30.5 -83q0 -58 -33.5 -90.5t-94.5 -32.5q-60 0 -99 37q-46 47 -46 166q0 99 39 150t113 51q53 0 82.5 -23t29.5 -62q0 -15 -6 -31l-43 2q5 7 5 23q0 25 -17.5 40t-50.5 15q-103 0 -103 -165l1 -32q12 30 39.5 47.5t66.5 17.5q56 0 86.5 -30zM258 454
q21 22 21 61q0 40 -21.5 61t-61.5 21q-37 0 -60.5 -22.5t-23.5 -59.5q0 -17 9.5 -36t29 -33t48.5 -14q38 0 59 22z" />
    <glyph glyph-name="sevensuperior" unicode="&#x2077;" horiz-adv-x="307" 
d="M281 761q-63 -61 -100.5 -157t-37.5 -205h-54q0 102 38.5 197t103.5 157h-214v42h264v-34z" />
    <glyph glyph-name="eightsuperior" unicode="&#x2078;" horiz-adv-x="347" 
d="M289.5 566q23.5 -26 23.5 -68q0 -49 -36 -77t-103 -28t-103 28t-36 77q0 42 23 68t65 33q-36 8 -55.5 32.5t-19.5 63.5q0 48 32.5 75.5t93.5 27.5t93.5 -27.5t32.5 -75.5q0 -39 -20 -64t-56 -32q42 -7 65.5 -33zM114.5 635.5q20.5 -19.5 59.5 -19.5q38 0 58 19.5t20 55.5
q0 34 -20 53.5t-58 19.5t-59 -19.5t-21 -53.5q0 -36 20.5 -55.5zM239.5 446.5q23.5 20.5 23.5 55.5q0 37 -23 57t-66 20q-44 0 -66.5 -20t-22.5 -57q0 -35 23 -55.5t66 -20.5q42 0 65.5 20.5z" />
    <glyph glyph-name="ninesuperior" unicode="&#x2079;" horiz-adv-x="350" 
d="M296 595q0 -200 -144 -200q-66 0 -111 36l28 39q35 -35 83 -35q49 0 72.5 39t23.5 124l-1 29q-9 -34 -34.5 -52.5t-64.5 -18.5q-52 0 -82.5 33t-30.5 86q0 57 35 90.5t92 33.5q27 0 50.5 -8t39.5 -24q44 -44 44 -172zM219.5 616.5q19.5 22.5 19.5 62.5q0 39 -20 61.5
t-56 22.5t-58 -23t-22 -61t21.5 -61.5t57.5 -23.5q38 0 57.5 22.5z" />
    <glyph glyph-name="zeroinferior" unicode="&#x2080;" horiz-adv-x="386" 
d="M305.5 179q38.5 -51 38.5 -150t-38.5 -151t-111.5 -52q-74 0 -113 51.5t-39 151.5q0 99 39 150t113 51q73 0 111.5 -51zM93 29q0 -82 25 -122.5t76 -40.5q101 0 101 163q0 80 -25.5 121t-75.5 41q-101 0 -101 -162z" />
    <glyph glyph-name="oneinferior" unicode="&#x2081;" horiz-adv-x="219" 
d="M142 -170h-50v321l-74 -10l-1 29q77 14 93 56h32v-396z" />
    <glyph glyph-name="twoinferior" unicode="&#x2082;" horiz-adv-x="333" 
d="M300 -170h-267q-1 7 -1 22q0 38 16 65.5t38.5 46t60.5 41.5q48 29 72.5 54t24.5 63q0 71 -79 71q-38 0 -59.5 -18.5t-21.5 -48.5q0 -21 6 -34l-42 -5q-10 14 -10 42q0 46 34 73.5t94 27.5q63 0 95 -27t32 -78q0 -34 -15.5 -59.5t-36.5 -42t-59 -41.5q-47 -30 -71 -52.5
t-29 -57.5h218v-42z" />
    <glyph glyph-name="threeinferior" unicode="&#x2083;" horiz-adv-x="362" 
d="M286.5 4q26.5 -24 26.5 -70q0 -49 -34 -78.5t-102 -29.5q-69 0 -103 29.5t-34 81.5l48 5q1 -37 22.5 -57.5t64.5 -20.5q45 0 67.5 20.5t22.5 53.5q0 43 -30 61t-83 18l-3 26q52 8 76.5 27.5t24.5 57.5q0 65 -73 65q-38 0 -56.5 -16.5t-18.5 -44.5q0 -13 3 -25l-45 -4
q-5 23 -5 36q0 42 31.5 66.5t91.5 24.5q59 0 89.5 -25t30.5 -70q0 -38 -21.5 -63t-57.5 -36q41 -8 67.5 -32z" />
    <glyph glyph-name="fourinferior" unicode="&#x2084;" horiz-adv-x="359" 
d="M268 -80v-90h-49v90h-196v29l176 276h69v-266h64v-39h-64zM219 190l-145 -231h145v231z" />
    <glyph glyph-name="fiveinferior" unicode="&#x2085;" horiz-adv-x="354" 
d="M282 45q33 -32 33 -92q0 -58 -37 -93t-104 -35q-62 0 -96.5 27t-38.5 76l47 6q4 -33 27.5 -51.5t61.5 -18.5q43 0 67.5 24.5t24.5 64.5q0 43 -23 66.5t-64 23.5q-31 0 -56 -13t-33 -32l-45 3l21 224h225l1 -40h-188l-16 -151q16 19 43 31t61 12q56 0 89 -32z" />
    <glyph glyph-name="sixinferior" unicode="&#x2086;" horiz-adv-x="361" 
d="M296.5 32q30.5 -30 30.5 -83q0 -58 -33.5 -90.5t-94.5 -32.5q-60 0 -99 37q-46 47 -46 166q0 99 39 150t113 51q53 0 82.5 -23t29.5 -62q0 -15 -6 -31l-43 2q5 7 5 23q0 25 -17.5 40t-50.5 15q-103 0 -103 -165l1 -32q12 30 39.5 47.5t66.5 17.5q56 0 86.5 -30zM258 -115
q21 22 21 61q0 40 -21.5 61t-61.5 21q-37 0 -60.5 -22.5t-23.5 -59.5q0 -17 9.5 -36t29 -33t48.5 -14q38 0 59 22z" />
    <glyph glyph-name="seveninferior" unicode="&#x2087;" horiz-adv-x="307" 
d="M281 192q-63 -61 -100.5 -157t-37.5 -205h-54q0 102 38.5 197t103.5 157h-214v41h264v-33z" />
    <glyph glyph-name="eightinferior" unicode="&#x2088;" horiz-adv-x="347" 
d="M289.5 -1q23.5 -26 23.5 -68q0 -49 -36 -77t-103 -28t-103 28t-36 77q0 42 23 68t65 33q-36 8 -55.5 32.5t-19.5 63.5q0 48 32.5 75.5t93.5 27.5t93.5 -27.5t32.5 -75.5q0 -39 -20 -64t-56 -32q42 -7 65.5 -33zM114.5 68.5q20.5 -19.5 59.5 -19.5q38 0 58 19.5t20 55.5
q0 34 -20 53.5t-58 19.5t-59 -19.5t-21 -53.5q0 -36 20.5 -55.5zM239.5 -120.5q23.5 20.5 23.5 55.5q0 37 -23 57t-66 20q-44 0 -66.5 -20t-22.5 -57q0 -35 23 -55.5t66 -20.5q42 0 65.5 20.5z" />
    <glyph glyph-name="nineinferior" unicode="&#x2089;" horiz-adv-x="350" 
d="M296 26q0 -200 -144 -200q-66 0 -111 36l28 39q35 -35 83 -35q49 0 72.5 39t23.5 124l-1 29q-9 -34 -34.5 -52.5t-64.5 -18.5q-52 0 -82.5 33t-30.5 86q0 57 35 90.5t92 33.5q27 0 50.5 -8t39.5 -24q44 -44 44 -172zM219.5 47.5q19.5 22.5 19.5 62.5q0 39 -20 61.5
t-56 22.5t-58 -23t-22 -61t21.5 -61.5t57.5 -23.5q38 0 57.5 22.5z" />
    <glyph glyph-name="Euro" unicode="&#x20ac;" horiz-adv-x="652" 
d="M516.5 19q-48.5 -27 -127.5 -27q-122 0 -189.5 66t-82.5 200h-100v47h97l-1 37q0 33 1 49h-97v47h102q17 131 85.5 200.5t184.5 69.5q87 0 139.5 -44.5t52.5 -117.5q0 -41 -10 -64h-49q7 24 7 56q0 53 -37.5 86t-100.5 33q-87 0 -138.5 -55.5t-66.5 -163.5h202v-47h-206
q-2 -32 -2 -50l1 -36h207v-47h-203q14 -106 65.5 -158.5t142.5 -52.5q116 0 180 85l24 -47q-32 -39 -80.5 -66z" />
    <glyph glyph-name="uni2117" unicode="&#x2117;" horiz-adv-x="641" 
d="M524.5 768.5q73.5 -71.5 73.5 -196.5q0 -126 -73.5 -197.5t-203.5 -71.5t-204 71.5t-74 197.5q0 125 74 196.5t204 71.5t203.5 -71.5zM492.5 399.5q59.5 59.5 59.5 172.5q0 112 -59.5 171.5t-171.5 59.5q-113 0 -172.5 -59.5t-59.5 -171.5q0 -113 59.5 -172.5
t172.5 -59.5q112 0 171.5 59.5zM406.5 695q26.5 -23 26.5 -71q0 -47 -26 -68.5t-81 -21.5h-51v-116h-38v300h89q54 0 80.5 -23zM379 576q17 14 17 48q0 35 -17 50.5t-56 15.5h-48v-128h48q39 0 56 14z" />
    <glyph glyph-name="uni2120" unicode="&#x2120;" horiz-adv-x="635" 
d="M112.5 602q16.5 -9 51.5 -16q43 -8 65 -22.5t22 -53.5q0 -34 -27 -53.5t-73 -19.5q-71 0 -105 30l19 31q33 -31 88 -31q31 0 46 10t15 31q0 20 -15 28t-48 15q-30 6 -47.5 12.5t-30.5 22.5t-13 45q0 36 24.5 54.5t68.5 18.5q41 0 63 -15.5t22 -39.5q0 -12 -4 -26h-33
q3 12 3 20q0 33 -54 33q-27 0 -40.5 -10.5t-13.5 -30.5q0 -24 16.5 -33zM582 440h-42v223l-84 -223h-32l-86 226l1 -226h-37v260h64l78 -202l78 202h60v-260z" />
    <glyph glyph-name="trademark" unicode="&#x2122;" horiz-adv-x="633" 
d="M263 662h-94v-222h-44v222h-93v38h231v-38zM580 440h-42v223l-85 -223h-32l-85 221l1 -221h-38v260h63l79 -202l79 202h60v-260z" />
    <glyph glyph-name="uni2152" unicode="&#x2152;" horiz-adv-x="1073" 
d="M142 313h-50v321l-74 -10l-1 29q77 14 93 57h32v-397zM48 0l511 700h58l-511 -700h-58zM610 0h-50v321l-74 -10l-1 29q77 14 93 56h32v-396zM992.5 349q38.5 -51 38.5 -150t-38.5 -151t-111.5 -52q-74 0 -113 51.5t-39 151.5q0 99 39 150t113 51q73 0 111.5 -51zM780 199
q0 -82 25 -122.5t76 -40.5q101 0 101 163q0 80 -25.5 121t-75.5 41q-101 0 -101 -162z" />
    <glyph glyph-name="uni2153" unicode="&#x2153;" horiz-adv-x="794" 
d="M142 313h-50v321l-74 -10l-1 29q77 14 93 57h32v-397zM48 0l511 700h58l-511 -700h-58zM718.5 174q26.5 -24 26.5 -70q0 -49 -34 -78.5t-102 -29.5q-69 0 -103 29.5t-34 81.5l48 5q1 -37 22.5 -57.5t64.5 -20.5q45 0 67.5 20.5t22.5 53.5q0 43 -30 61t-83 18l-3 26
q52 8 76.5 27.5t24.5 57.5q0 65 -73 65q-38 0 -56.5 -16.5t-18.5 -44.5q0 -13 3 -25l-45 -4q-5 23 -5 36q0 42 31.5 66.5t91.5 24.5q59 0 89.5 -25t30.5 -70q0 -38 -21.5 -63t-57.5 -36q41 -8 67.5 -32z" />
    <glyph glyph-name="uni2154" unicode="&#x2154;" horiz-adv-x="928" 
d="M300 313h-267q-1 8 -1 22q0 38 16 66t39 46t60 41q49 31 73 55t24 62q0 71 -79 71q-38 0 -59.5 -18t-21.5 -49q0 -21 6 -34l-42 -5q-10 14 -10 42q0 46 34 74t94 28q63 0 95 -27t32 -79q0 -48 -28.5 -78t-82.5 -64q-47 -30 -71 -53t-29 -57h218v-43zM182 0l511 700h58
l-511 -700h-58zM852.5 174q26.5 -24 26.5 -70q0 -49 -34 -78.5t-102 -29.5q-69 0 -103 29.5t-34 81.5l48 5q1 -37 22.5 -57.5t64.5 -20.5q45 0 67.5 20.5t22.5 53.5q0 43 -30 61t-83 18l-3 26q52 8 76.5 27.5t24.5 57.5q0 65 -73 65q-38 0 -56.5 -16.5t-18.5 -44.5
q0 -13 3 -25l-45 -4q-5 23 -5 36q0 42 31.5 66.5t91.5 24.5q59 0 89.5 -25t30.5 -70q0 -38 -21.5 -63t-57.5 -36q41 -8 67.5 -32z" />
    <glyph glyph-name="uni2155" unicode="&#x2155;" horiz-adv-x="801" 
d="M142 313h-50v321l-74 -10l-1 29q77 14 93 57h32v-397zM48 0l511 700h58l-511 -700h-58zM729 215q33 -32 33 -92q0 -58 -37 -93t-104 -35q-62 0 -96.5 27t-38.5 76l47 6q4 -33 27.5 -51.5t61.5 -18.5q43 0 67.5 24.5t24.5 64.5q0 43 -23 66.5t-64 23.5q-31 0 -56 -13
t-33 -32l-45 3l21 224h225l1 -40h-188l-16 -151q16 19 43 31t61 12q56 0 89 -32z" />
    <glyph glyph-name="uni2156" unicode="&#x2156;" horiz-adv-x="935" 
d="M300 313h-267q-1 8 -1 22q0 38 16 66t39 46t60 41q49 31 73 55t24 62q0 71 -79 71q-38 0 -59.5 -18t-21.5 -49q0 -21 6 -34l-42 -5q-10 14 -10 42q0 46 34 74t94 28q63 0 95 -27t32 -79q0 -48 -28.5 -78t-82.5 -64q-47 -30 -71 -53t-29 -57h218v-43zM182 0l511 700h58
l-511 -700h-58zM863 215q33 -32 33 -92q0 -58 -37 -93t-104 -35q-62 0 -96.5 27t-38.5 76l47 6q4 -33 27.5 -51.5t61.5 -18.5q43 0 67.5 24.5t24.5 64.5q0 43 -23 66.5t-64 23.5q-31 0 -56 -13t-33 -32l-45 3l21 224h225l1 -40h-188l-16 -151q16 19 43 31t61 12q56 0 89 -32
z" />
    <glyph glyph-name="uni2157" unicode="&#x2157;" horiz-adv-x="921" 
d="M286 488q27 -24 27 -70q0 -50 -34 -79.5t-102 -29.5q-69 0 -103 29.5t-34 81.5l48 5q1 -36 22.5 -57t64.5 -21q45 0 67.5 20.5t22.5 53.5q0 43 -30 61t-83 18l-3 26q52 8 76.5 27.5t24.5 57.5q0 65 -73 65q-38 0 -56.5 -16t-18.5 -44q0 -14 3 -26l-45 -4q-5 22 -5 36
q0 42 32 67t91 25t89.5 -25t30.5 -71q0 -37 -22 -62.5t-59 -36.5q42 -7 69 -31zM168 0l511 700h58l-511 -700h-58zM849 215q33 -32 33 -92q0 -58 -37 -93t-104 -35q-62 0 -96.5 27t-38.5 76l47 6q4 -33 27.5 -51.5t61.5 -18.5q43 0 67.5 24.5t24.5 64.5q0 43 -23 66.5
t-64 23.5q-31 0 -56 -13t-33 -32l-45 3l21 224h225l1 -40h-188l-16 -151q16 19 43 31t61 12q56 0 89 -32z" />
    <glyph glyph-name="uni2158" unicode="&#x2158;" horiz-adv-x="923" 
d="M268 404v-91h-49v91h-196v28l176 277h69v-266h64v-39h-64zM219 673l-144 -230h144v230zM170 0l511 700h58l-511 -700h-58zM851 215q33 -32 33 -92q0 -58 -37 -93t-104 -35q-62 0 -96.5 27t-38.5 76l47 6q4 -33 27.5 -51.5t61.5 -18.5q43 0 67.5 24.5t24.5 64.5
q0 43 -23 66.5t-64 23.5q-31 0 -56 -13t-33 -32l-45 3l21 224h225l1 -40h-188l-16 -151q16 19 43 31t61 12q56 0 89 -32z" />
    <glyph glyph-name="uni2159" unicode="&#x2159;" horiz-adv-x="781" 
d="M142 313h-50v321l-74 -10l-1 29q77 14 93 57h32v-397zM48 0l511 700h58l-511 -700h-58zM717.5 202q30.5 -30 30.5 -83q0 -58 -33.5 -90.5t-94.5 -32.5q-60 0 -99 37q-46 47 -46 166q0 99 39 150t113 51q53 0 82.5 -23t29.5 -62q0 -15 -6 -31l-43 2q5 7 5 23
q0 25 -17.5 40t-50.5 15q-103 0 -103 -165l1 -32q12 30 39.5 47.5t66.5 17.5q56 0 86.5 -30zM679 55q21 22 21 61q0 40 -21.5 61t-61.5 21q-37 0 -60.5 -22.5t-23.5 -59.5q0 -17 9.5 -36t29 -33t48.5 -14q38 0 59 22z" />
    <glyph glyph-name="uni215A" unicode="&#x215a;" horiz-adv-x="893" 
d="M282 528q33 -32 33 -91q0 -58 -37 -93.5t-104 -35.5q-62 0 -96.5 27t-38.5 76l47 6q4 -33 27.5 -51.5t61.5 -18.5q43 0 67.5 24.5t24.5 64.5q0 43 -23 67t-64 24q-31 0 -55.5 -13.5t-33.5 -32.5l-45 3l21 225h225l1 -41h-188l-16 -151q16 19 43 31t61 12q56 0 89 -32z
M160 0l511 700h58l-511 -700h-58zM829.5 202q30.5 -30 30.5 -83q0 -58 -33.5 -90.5t-94.5 -32.5q-60 0 -99 37q-46 47 -46 166q0 99 39 150t113 51q53 0 82.5 -23t29.5 -62q0 -15 -6 -31l-43 2q5 7 5 23q0 25 -17.5 40t-50.5 15q-103 0 -103 -165l1 -32q12 30 39.5 47.5
t66.5 17.5q56 0 86.5 -30zM791 55q21 22 21 61q0 40 -21.5 61t-61.5 21q-37 0 -60.5 -22.5t-23.5 -59.5q0 -17 9.5 -36t29 -33t48.5 -14q38 0 59 22z" />
    <glyph glyph-name="oneeighth" unicode="&#x215b;" horiz-adv-x="771" 
d="M142 313h-50v321l-74 -10l-1 29q77 14 93 57h32v-397zM48 0l511 700h58l-511 -700h-58zM713.5 169q23.5 -26 23.5 -68q0 -49 -36 -77t-103 -28t-103 28t-36 77q0 42 23 68t65 33q-36 8 -55.5 32.5t-19.5 63.5q0 48 32.5 75.5t93.5 27.5t93.5 -27.5t32.5 -75.5
q0 -39 -20 -64t-56 -32q42 -7 65.5 -33zM538.5 238.5q20.5 -19.5 59.5 -19.5q38 0 58 19.5t20 55.5q0 34 -20 53.5t-58 19.5t-59 -19.5t-21 -53.5q0 -36 20.5 -55.5zM663.5 49.5q23.5 20.5 23.5 55.5q0 37 -23 57t-66 20q-44 0 -66.5 -20t-22.5 -57q0 -35 23 -55.5t66 -20.5
q42 0 65.5 20.5z" />
    <glyph glyph-name="threeeighths" unicode="&#x215c;" horiz-adv-x="891" 
d="M286 488q27 -24 27 -70q0 -50 -34 -79.5t-102 -29.5q-69 0 -103 29.5t-34 81.5l48 5q1 -36 22.5 -57t64.5 -21q45 0 67.5 20.5t22.5 53.5q0 43 -30 61t-83 18l-3 26q52 8 76.5 27.5t24.5 57.5q0 65 -73 65q-38 0 -56.5 -16t-18.5 -44q0 -14 3 -26l-45 -4q-5 22 -5 36
q0 42 32 67t91 25t89.5 -25t30.5 -71q0 -37 -22 -62.5t-59 -36.5q42 -7 69 -31zM168 0l511 700h58l-511 -700h-58zM833.5 169q23.5 -26 23.5 -68q0 -49 -36 -77t-103 -28t-103 28t-36 77q0 42 23 68t65 33q-36 8 -55.5 32.5t-19.5 63.5q0 48 32.5 75.5t93.5 27.5t93.5 -27.5
t32.5 -75.5q0 -39 -20 -64t-56 -32q42 -7 65.5 -33zM658.5 238.5q20.5 -19.5 59.5 -19.5q38 0 58 19.5t20 55.5q0 34 -20 53.5t-58 19.5t-59 -19.5t-21 -53.5q0 -36 20.5 -55.5zM783.5 49.5q23.5 20.5 23.5 55.5q0 37 -23 57t-66 20q-44 0 -66.5 -20t-22.5 -57
q0 -35 23 -55.5t66 -20.5q42 0 65.5 20.5z" />
    <glyph glyph-name="fiveeighths" unicode="&#x215d;" horiz-adv-x="883" 
d="M282 528q33 -32 33 -91q0 -58 -37 -93.5t-104 -35.5q-62 0 -96.5 27t-38.5 76l47 6q4 -33 27.5 -51.5t61.5 -18.5q43 0 67.5 24.5t24.5 64.5q0 43 -23 67t-64 24q-31 0 -55.5 -13.5t-33.5 -32.5l-45 3l21 225h225l1 -41h-188l-16 -151q16 19 43 31t61 12q56 0 89 -32z
M160 0l511 700h58l-511 -700h-58zM825.5 169q23.5 -26 23.5 -68q0 -49 -36 -77t-103 -28t-103 28t-36 77q0 42 23 68t65 33q-36 8 -55.5 32.5t-19.5 63.5q0 48 32.5 75.5t93.5 27.5t93.5 -27.5t32.5 -75.5q0 -39 -20 -64t-56 -32q42 -7 65.5 -33zM650.5 238.5
q20.5 -19.5 59.5 -19.5q38 0 58 19.5t20 55.5q0 34 -20 53.5t-58 19.5t-59 -19.5t-21 -53.5q0 -36 20.5 -55.5zM775.5 49.5q23.5 20.5 23.5 55.5q0 37 -23 57t-66 20q-44 0 -66.5 -20t-22.5 -57q0 -35 23 -55.5t66 -20.5q42 0 65.5 20.5z" />
    <glyph glyph-name="seveneighths" unicode="&#x215e;" horiz-adv-x="798" 
d="M281 675q-63 -61 -100.5 -157t-37.5 -205h-54q0 102 38.5 197t103.5 157h-214v42h264v-34zM75 0l511 700h58l-511 -700h-58zM740.5 169q23.5 -26 23.5 -68q0 -49 -36 -77t-103 -28t-103 28t-36 77q0 42 23 68t65 33q-36 8 -55.5 32.5t-19.5 63.5q0 48 32.5 75.5
t93.5 27.5t93.5 -27.5t32.5 -75.5q0 -39 -20 -64t-56 -32q42 -7 65.5 -33zM565.5 238.5q20.5 -19.5 59.5 -19.5q38 0 58 19.5t20 55.5q0 34 -20 53.5t-58 19.5t-59 -19.5t-21 -53.5q0 -36 20.5 -55.5zM690.5 49.5q23.5 20.5 23.5 55.5q0 37 -23 57t-66 20q-44 0 -66.5 -20
t-22.5 -57q0 -35 23 -55.5t66 -20.5q42 0 65.5 20.5z" />
    <glyph glyph-name="onefraction" unicode="&#x215f;" horiz-adv-x="504" 
d="M142 313h-50v321l-74 -10l-1 29q77 14 93 57h32v-397zM48 0l511 700h58l-511 -700h-58z" />
    <glyph glyph-name="zerothird" unicode="&#x2189;" horiz-adv-x="932" 
d="M305.5 654q38.5 -51 38.5 -150q0 -100 -38.5 -152t-111.5 -52q-74 0 -113 52t-39 152q0 99 39 150t113 51q73 0 111.5 -51zM93 504q0 -83 24.5 -123t76.5 -40q101 0 101 163q0 80 -25.5 121t-75.5 41q-101 0 -101 -162zM186 0l511 700h58l-511 -700h-58zM856.5 174
q26.5 -24 26.5 -70q0 -49 -34 -78.5t-102 -29.5q-69 0 -103 29.5t-34 81.5l48 5q1 -37 22.5 -57.5t64.5 -20.5q45 0 67.5 20.5t22.5 53.5q0 43 -30 61t-83 18l-3 26q52 8 76.5 27.5t24.5 57.5q0 65 -73 65q-38 0 -56.5 -16.5t-18.5 -44.5q0 -13 3 -25l-45 -4q-5 23 -5 36
q0 42 31.5 66.5t91.5 24.5q59 0 89.5 -25t30.5 -70q0 -38 -21.5 -63t-57.5 -36q41 -8 67.5 -32z" />
    <glyph glyph-name="arrowleft" unicode="&#x2190;" horiz-adv-x="613" 
d="M192 156h60l-89 173h348v56h-348l89 173h-60l-97 -201z" />
    <glyph glyph-name="arrowup" unicode="&#x2191;" horiz-adv-x="577" 
d="M89 448v-60l173 89v-348h56v348l173 -89v60l-201 97z" />
    <glyph glyph-name="arrowright" unicode="&#x2192;" horiz-adv-x="613" 
d="M421 156h-60l89 173h-348v56h348l-89 173h60l97 -201z" />
    <glyph glyph-name="arrowdown" unicode="&#x2193;" horiz-adv-x="575" 
d="M86 242v60l173 -89v348h56v-348l173 89v-60l-201 -97z" />
    <glyph glyph-name="uni2194" unicode="&#x2194;" horiz-adv-x="882" 
d="M689 156h-60l90 173h-556l89 -173h-60l-97 201l97 201h60l-89 -173h556l-90 173h60l98 -201z" />
    <glyph glyph-name="arrowupdn" unicode="&#x2195;" horiz-adv-x="575" 
d="M86 116v60l173 -90v556l-173 -89v60l201 97l201 -97v-60l-173 89v-556l173 90v-60l-201 -98z" />
    <glyph glyph-name="partialdiff" unicode="&#x2202;" horiz-adv-x="519" 
d="M325.5 712q79.5 -48 112 -146.5t32.5 -278.5q0 -150 -51.5 -222.5t-156.5 -72.5q-104 0 -158.5 66t-54.5 193q0 128 54 195t156 67q105 0 154 -81q-12 105 -45 162.5t-96.5 85t-176.5 41.5v57q151 -18 230.5 -66zM371.5 95.5q36.5 54.5 36.5 164.5q0 204 -146 204
q-151 0 -151 -213q0 -208 151 -210q73 0 109.5 54.5z" />
    <glyph glyph-name="emptyset" unicode="&#x2205;" horiz-adv-x="814" 
d="M673 369q0 -77 -34 -138.5t-94.5 -95.5t-137.5 -34q-51 0 -95.5 15.5t-78.5 44.5l-110 -111l-31 31l110 111q-61 72 -61 177q0 77 34 138.5t94.5 95.5t137.5 34q102 0 175 -60l109 110l32 -31l-110 -111q60 -73 60 -176zM235 225l315 319q-58 49 -143 49
q-63 0 -112.5 -28t-77 -79t-27.5 -117q0 -85 45 -144zM580 512l-315 -318q58 -49 142 -49q64 0 113 28t76.5 79t27.5 117q0 83 -44 143z" />
    <glyph glyph-name="product" unicode="&#x220f;" horiz-adv-x="728" 
d="M569 644v-844h-66v844h-279v-844h-66v844h-111v56h634v-56h-112z" />
    <glyph glyph-name="summation" unicode="&#x2211;" horiz-adv-x="504" 
d="M467 -200h-432v36l240 418l-230 405v41h412v-54h-325l213 -388l-225 -401h347v-57z" />
    <glyph glyph-name="minus" unicode="&#x2212;" horiz-adv-x="550" 
d="M102 328v50h346v-50h-346z" />
    <glyph glyph-name="radical" unicode="&#x221a;" horiz-adv-x="579" 
d="M305 0h-76l-95 252h-107v35h164l82 -239l228 652h58z" />
    <glyph glyph-name="infinity" unicode="&#x221e;" horiz-adv-x="957" 
d="M820 489.5q41 -23.5 64.5 -64.5t23.5 -92t-24 -92t-66 -64.5t-94 -23.5q-64 0 -123 36.5t-130 103.5q-66 -68 -120.5 -104t-121.5 -36q-50 0 -91.5 23.5t-65 64.5t-23.5 92t24 92t66.5 64.5t94.5 23.5q64 0 122 -36.5t130 -103.5q64 67 120 103.5t122 36.5q51 0 92 -23.5
zM822.5 245.5q36.5 36.5 36.5 92.5q0 55 -37 92.5t-92 37.5q-56 0 -105 -32.5t-107 -93.5q71 -68 117.5 -100.5t93.5 -32.5q57 0 93.5 36.5zM330.5 231q48.5 33 107.5 94q-70 66 -117 99t-93 33q-56 0 -93 -37t-37 -92q0 -56 37 -93t92 -37t103.5 33z" />
    <glyph glyph-name="integral" unicode="&#x222b;" horiz-adv-x="314" 
d="M401 742l-16 -45q-15 13 -38 21.5t-48 8.5q-53 0 -81.5 -38.5t-28.5 -115.5v-581q0 -101 -43.5 -150.5t-126.5 -49.5q-55 0 -105 25l16 44q14 -13 37 -20.5t50 -7.5q52 0 80.5 38t28.5 116v580q0 101 43.5 150.5t126.5 49.5q57 0 105 -25z" />
    <glyph glyph-name="approxequal" unicode="&#x2248;" horiz-adv-x="550" 
d="M453 400q-26 -30 -77 -30q-24 0 -49.5 9.5t-60.5 26.5q-30 14 -49.5 21.5t-35.5 7.5q-32 0 -47.5 -16.5t-15.5 -51.5h-35q0 58 25.5 87.5t74.5 29.5q25 0 51.5 -9.5t60.5 -26.5q30 -14 49.5 -21.5t36.5 -7.5q63 0 63 68h35q0 -57 -26 -87zM453.5 230.5
q-25.5 -29.5 -74.5 -29.5q-25 0 -50.5 9t-61.5 26q-30 14 -49.5 21.5t-36.5 7.5q-63 0 -63 -67h-35q0 58 25.5 87.5t74.5 29.5q25 0 51.5 -9.5t60.5 -26.5q30 -14 49.5 -21.5t36.5 -7.5q63 0 63 68h35q0 -58 -25.5 -87.5z" />
    <glyph glyph-name="notequal" unicode="&#x2260;" horiz-adv-x="550" 
d="M285 286h158v-52h-166l-30 -193h-42l29 193h-127v52h135l21 134h-156v52h164l29 193h43l-30 -193h130v-52h-138z" />
    <glyph glyph-name="lessequal" unicode="&#x2264;" horiz-adv-x="550" 
d="M71 417l383 -183v63l-320 143l320 143v63l-383 -183v-46zM88 78v50h366v-50h-366z" />
    <glyph glyph-name="greaterequal" unicode="&#x2265;" horiz-adv-x="550" 
d="M478 420l-383 -183v63l320 143l-320 143v63l383 -183v-46zM460 78v50h-366v-50h366z" />
    <glyph glyph-name="triagup" unicode="&#x25b2;" horiz-adv-x="600" 
d="M595 20v-20h-590v20l285 716h20z" />
    <glyph glyph-name="lozenge" unicode="&#x25ca;" horiz-adv-x="520" 
d="M297 0h-74l-178 350l178 349h74l179 -349zM259 661l-150 -310l154 -313l149 308z" />
    <glyph glyph-name="a.ss01" horiz-adv-x="545" 
d="M468 0h-52l-7 100q-22 -52 -64.5 -80t-99.5 -28q-90 0 -141 64t-51 191q0 85 26.5 145t73.5 90.5t108 30.5q95 0 154 -54l16 46h37v-505zM362.5 79.5q37.5 36.5 43.5 104.5v239q-50 42 -130 42q-74 0 -117.5 -54.5t-43.5 -159.5q0 -102 39.5 -155t110.5 -53
q60 0 97.5 36.5z" />
    <glyph glyph-name="aacute.ss01" horiz-adv-x="545" 
d="M468 0h-52l-7 100q-22 -52 -64.5 -80t-99.5 -28q-90 0 -141 64t-51 191q0 85 26.5 145t73.5 90.5t108 30.5q95 0 154 -54l16 46h37v-505zM362.5 79.5q37.5 36.5 43.5 104.5v239q-50 42 -130 42q-74 0 -117.5 -54.5t-43.5 -159.5q0 -102 39.5 -155t110.5 -53
q60 0 97.5 36.5zM255 576l87 147h71l-103 -147h-55z" />
    <glyph glyph-name="abreve.ss01" horiz-adv-x="545" 
d="M468 0h-52l-7 100q-22 -52 -64.5 -80t-99.5 -28q-90 0 -141 64t-51 191q0 85 26.5 145t73.5 90.5t108 30.5q95 0 154 -54l16 46h37v-505zM362.5 79.5q37.5 36.5 43.5 104.5v239q-50 42 -130 42q-74 0 -117.5 -54.5t-43.5 -159.5q0 -102 39.5 -155t110.5 -53
q60 0 97.5 36.5zM383.5 615q-32.5 -31 -100.5 -31q-67 0 -100 31t-33 96h36q0 -86 97 -86t97 86h36q0 -65 -32.5 -96z" />
    <glyph glyph-name="acircumflex.ss01" horiz-adv-x="545" 
d="M468 0h-52l-7 100q-22 -52 -64.5 -80t-99.5 -28q-90 0 -141 64t-51 191q0 85 26.5 145t73.5 90.5t108 30.5q95 0 154 -54l16 46h37v-505zM362.5 79.5q37.5 36.5 43.5 104.5v239q-50 42 -130 42q-74 0 -117.5 -54.5t-43.5 -159.5q0 -102 39.5 -155t110.5 -53
q60 0 97.5 36.5zM282 686l-83 -110h-49l99 147h67l100 -147h-50z" />
    <glyph glyph-name="adieresis.ss01" horiz-adv-x="545" 
d="M170.5 620q-11.5 10 -11.5 29t11.5 29.5t32.5 10.5t32.5 -10.5t11.5 -29.5t-11.5 -29t-32.5 -10t-32.5 10zM330.5 620q-11.5 10 -11.5 29t11.5 29.5t32.5 10.5t32.5 -10.5t11.5 -29.5t-11.5 -29t-32.5 -10t-32.5 10zM468 0h-52l-7 100q-22 -52 -64.5 -80t-99.5 -28
q-90 0 -141 64t-51 191q0 85 26.5 145t73.5 90.5t108 30.5q95 0 154 -54l16 46h37v-505zM362.5 79.5q37.5 36.5 43.5 104.5v239q-50 42 -130 42q-74 0 -117.5 -54.5t-43.5 -159.5q0 -102 39.5 -155t110.5 -53q60 0 97.5 36.5z" />
    <glyph glyph-name="agrave.ss01" horiz-adv-x="545" 
d="M468 0h-52l-7 100q-22 -52 -64.5 -80t-99.5 -28q-90 0 -141 64t-51 191q0 85 26.5 145t73.5 90.5t108 30.5q95 0 154 -54l16 46h37v-505zM362.5 79.5q37.5 36.5 43.5 104.5v239q-50 42 -130 42q-74 0 -117.5 -54.5t-43.5 -159.5q0 -102 39.5 -155t110.5 -53
q60 0 97.5 36.5zM267 576l-103 147h72l88 -147h-57z" />
    <glyph glyph-name="amacron.ss01" horiz-adv-x="545" 
d="M468 0h-52l-7 100q-22 -52 -64.5 -80t-99.5 -28q-90 0 -141 64t-51 191q0 85 26.5 145t73.5 90.5t108 30.5q95 0 154 -54l16 46h37v-505zM362.5 79.5q37.5 36.5 43.5 104.5v239q-50 42 -130 42q-74 0 -117.5 -54.5t-43.5 -159.5q0 -102 39.5 -155t110.5 -53
q60 0 97.5 36.5zM420 617h-275v46h275v-46z" />
    <glyph glyph-name="aogonek.ss01" horiz-adv-x="545" 
d="M448 -189.5q-10 -3.5 -27 -3.5q-30 0 -48 18t-18 48q0 33 21 65.5t54 61.5h-14l-7 100q-22 -52 -64.5 -80t-99.5 -28q-90 0 -141 64t-51 191q0 85 26.5 145t73.5 90.5t108 30.5q95 0 154 -54l16 46h37v-505h-7q-30 -35 -45 -62t-15 -53q0 -19 8.5 -29.5t23.5 -10.5
q11 0 17.5 2.5t14.5 7.5l6 -34q-13 -7 -23 -10.5zM362.5 79.5q37.5 36.5 43.5 104.5v239q-50 42 -130 42q-74 0 -117.5 -54.5t-43.5 -159.5q0 -102 39.5 -155t110.5 -53q60 0 97.5 36.5z" />
    <glyph glyph-name="aring.ss01" horiz-adv-x="545" 
d="M468 0h-52l-7 100q-22 -52 -64.5 -80t-99.5 -28q-90 0 -141 64t-51 191q0 85 26.5 145t73.5 90.5t108 30.5q95 0 154 -54l16 46h37v-505zM362.5 79.5q37.5 36.5 43.5 104.5v239q-50 42 -130 42q-74 0 -117.5 -54.5t-43.5 -159.5q0 -102 39.5 -155t110.5 -53
q60 0 97.5 36.5zM365 711q29 -21 29 -61t-29 -61.5t-82 -21.5t-82 21.5t-29 61.5t29 61t82 21t82 -21zM237.5 693.5q-17.5 -15.5 -17.5 -43.5t17.5 -44t46.5 -16q28 0 45.5 16t17.5 44t-17.5 43.5t-45.5 15.5q-29 0 -46.5 -15.5z" />
    <glyph glyph-name="aringacute.ss01" horiz-adv-x="545" 
d="M162 635q0 65 85 73l82 138h73l-97 -139q79 -9 79 -72q0 -75 -111 -75t-111 75zM225 675q-18 -13 -18 -40t17.5 -40t48.5 -13q30 0 48 13t18 40t-17.5 40t-48.5 13q-30 0 -48 -13zM468 0h-52l-7 100q-22 -52 -64.5 -80t-99.5 -28q-90 0 -141 64t-51 191q0 85 26.5 145
t73.5 90.5t108 30.5q95 0 154 -54l16 46h37v-505zM362.5 79.5q37.5 36.5 43.5 104.5v239q-50 42 -130 42q-74 0 -117.5 -54.5t-43.5 -159.5q0 -102 39.5 -155t110.5 -53q60 0 97.5 36.5z" />
    <glyph glyph-name="atilde.ss01" horiz-adv-x="545" 
d="M468 0h-52l-7 100q-22 -52 -64.5 -80t-99.5 -28q-90 0 -141 64t-51 191q0 85 26.5 145t73.5 90.5t108 30.5q95 0 154 -54l16 46h37v-505zM362.5 79.5q37.5 36.5 43.5 104.5v239q-50 42 -130 42q-74 0 -117.5 -54.5t-43.5 -159.5q0 -102 39.5 -155t110.5 -53
q60 0 97.5 36.5zM344 591q-19 0 -37 7.5t-46 22.5q-21 11 -35 17t-25 6q-43 0 -43 -52h-31q0 95 75 95q20 0 38 -7.5t48 -22.5q22 -12 35 -17.5t24 -5.5q43 0 43 52h31q0 -95 -77 -95z" />
    <glyph glyph-name="g.ss02" horiz-adv-x="514" 
d="M199 96q30 -13 93 -26q60 -12 97 -25t64 -40.5t27 -75.5q0 -60 -57.5 -98.5t-178.5 -38.5q-118 0 -170 34.5t-52 92.5q0 47 36.5 77.5t115.5 47.5q-29 12 -44.5 30.5t-15.5 46.5q0 27 17.5 49.5t47.5 34.5q-53 16 -83 55t-30 94q0 73 49.5 116t132.5 43q54 0 96 -20l9 12
h118v-42l-87 3q45 -43 45 -112q0 -72 -49.5 -115t-131.5 -43q-19 0 -37 3q-42 -20 -42 -60q0 -30 30 -43zM156 264q32 -31 93 -31q60 0 91.5 31t31.5 90q0 60 -31.5 91t-91.5 31q-61 0 -93 -31t-32 -91q0 -59 32 -90zM378.5 -144.5q38.5 25.5 38.5 63.5q0 32 -20.5 51.5
t-50.5 29t-81 20.5l-42 9q-78 -14 -112 -40t-34 -64q0 -95 175 -95q88 0 126.5 25.5z" />
    <glyph glyph-name="gbreve.ss02" horiz-adv-x="514" 
d="M199 96q30 -13 93 -26q60 -12 97 -25t64 -40.5t27 -75.5q0 -60 -57.5 -98.5t-178.5 -38.5q-118 0 -170 34.5t-52 92.5q0 47 36.5 77.5t115.5 47.5q-29 12 -44.5 30.5t-15.5 46.5q0 27 17.5 49.5t47.5 34.5q-53 16 -83 55t-30 94q0 73 49.5 116t132.5 43q54 0 96 -20l9 12
h118v-42l-87 3q45 -43 45 -112q0 -72 -49.5 -115t-131.5 -43q-19 0 -37 3q-42 -20 -42 -60q0 -30 30 -43zM156 264q32 -31 93 -31q60 0 91.5 31t31.5 90q0 60 -31.5 91t-91.5 31q-61 0 -93 -31t-32 -91q0 -59 32 -90zM378.5 -144.5q38.5 25.5 38.5 63.5q0 32 -20.5 51.5
t-50.5 29t-81 20.5l-42 9q-78 -14 -112 -40t-34 -64q0 -95 175 -95q88 0 126.5 25.5zM357.5 615q-32.5 -31 -100.5 -31q-67 0 -100 31t-33 96h36q0 -86 97 -86t97 86h36q0 -65 -32.5 -96z" />
    <glyph glyph-name="gcommaaccent.ss02" horiz-adv-x="514" 
d="M199 96q30 -13 93 -26q60 -12 97 -25t64 -40.5t27 -75.5q0 -60 -57.5 -98.5t-178.5 -38.5q-118 0 -170 34.5t-52 92.5q0 47 36.5 77.5t115.5 47.5q-29 12 -44.5 30.5t-15.5 46.5q0 27 17.5 49.5t47.5 34.5q-53 16 -83 55t-30 94q0 73 49.5 116t132.5 43q54 0 96 -20l9 12
h118v-42l-87 3q45 -43 45 -112q0 -72 -49.5 -115t-131.5 -43q-19 0 -37 3q-42 -20 -42 -60q0 -30 30 -43zM156 264q32 -31 93 -31q60 0 91.5 31t31.5 90q0 60 -31.5 91t-91.5 31q-61 0 -93 -31t-32 -91q0 -59 32 -90zM378.5 -144.5q38.5 25.5 38.5 63.5q0 32 -20.5 51.5
t-50.5 29t-81 20.5l-42 9q-78 -14 -112 -40t-34 -64q0 -95 175 -95q88 0 126.5 25.5zM208.5 583.5q-17.5 18.5 -17.5 49.5q0 36 25 57t75 22l2 -19q-78 -3 -78 -58q0 -21 16 -33q0 13 8.5 20.5t24.5 7.5q18 0 28 -9t10 -24t-10.5 -23.5t-31.5 -8.5q-34 0 -51.5 18.5z" />
    <glyph glyph-name="gdotaccent.ss02" horiz-adv-x="514" 
d="M199 96q30 -13 93 -26q60 -12 97 -25t64 -40.5t27 -75.5q0 -60 -57.5 -98.5t-178.5 -38.5q-118 0 -170 34.5t-52 92.5q0 47 36.5 77.5t115.5 47.5q-29 12 -44.5 30.5t-15.5 46.5q0 27 17.5 49.5t47.5 34.5q-53 16 -83 55t-30 94q0 73 49.5 116t132.5 43q54 0 96 -20l9 12
h118v-42l-87 3q45 -43 45 -112q0 -72 -49.5 -115t-131.5 -43q-19 0 -37 3q-42 -20 -42 -60q0 -30 30 -43zM156 264q32 -31 93 -31q60 0 91.5 31t31.5 90q0 60 -31.5 91t-91.5 31q-61 0 -93 -31t-32 -91q0 -59 32 -90zM378.5 -144.5q38.5 25.5 38.5 63.5q0 32 -20.5 51.5
t-50.5 29t-81 20.5l-42 9q-78 -14 -112 -40t-34 -64q0 -95 175 -95q88 0 126.5 25.5zM289 681q12 -11 12 -30t-12 -29.5t-34 -10.5q-21 0 -33 10.5t-12 29.5t12 30t33 11q22 0 34 -11z" />
    <glyph glyph-name="i.loclTRK" horiz-adv-x="259" 
d="M97 0v505h65v-505h-65zM162 681q12 -11 12 -30t-12 -29.5t-34 -10.5q-21 0 -33 10.5t-12 29.5t12 30t33 11q22 0 34 -11z" />
    <glyph glyph-name="y.ss03" horiz-adv-x="540" 
d="M463 36q0 -122 -56 -183t-165 -61q-58 0 -104 12.5t-87 37.5l33 58q64 -59 158 -59q80 0 119.5 45.5t39.5 143.5v62q-23 -48 -67.5 -74t-103.5 -26q-83 0 -122.5 44t-39.5 144v325h62v-317q0 -76 29.5 -110t94.5 -34q67 0 107 37.5t40 108.5v315h62v-469z" />
    <glyph glyph-name="yacute.ss03" horiz-adv-x="540" 
d="M463 36q0 -122 -56 -183t-165 -61q-58 0 -104 12.5t-87 37.5l33 58q64 -59 158 -59q80 0 119.5 45.5t39.5 143.5v62q-23 -48 -67.5 -74t-103.5 -26q-83 0 -122.5 44t-39.5 144v325h62v-317q0 -76 29.5 -110t94.5 -34q67 0 107 37.5t40 108.5v315h62v-469zM242 576l87 147
h71l-103 -147h-55z" />
    <glyph glyph-name="ycircumflex.ss03" horiz-adv-x="540" 
d="M463 36q0 -122 -56 -183t-165 -61q-58 0 -104 12.5t-87 37.5l33 58q64 -59 158 -59q80 0 119.5 45.5t39.5 143.5v62q-23 -48 -67.5 -74t-103.5 -26q-83 0 -122.5 44t-39.5 144v325h62v-317q0 -76 29.5 -110t94.5 -34q67 0 107 37.5t40 108.5v315h62v-469zM269 686
l-83 -110h-49l99 147h67l100 -147h-50z" />
    <glyph glyph-name="ydieresis.ss03" horiz-adv-x="540" 
d="M157.5 620q-11.5 10 -11.5 29t11.5 29.5t32.5 10.5t32.5 -10.5t11.5 -29.5t-11.5 -29t-32.5 -10t-32.5 10zM317.5 620q-11.5 10 -11.5 29t11.5 29.5t32.5 10.5t32.5 -10.5t11.5 -29.5t-11.5 -29t-32.5 -10t-32.5 10zM463 36q0 -122 -56 -183t-165 -61q-58 0 -104 12.5
t-87 37.5l33 58q64 -59 158 -59q80 0 119.5 45.5t39.5 143.5v62q-23 -48 -67.5 -74t-103.5 -26q-83 0 -122.5 44t-39.5 144v325h62v-317q0 -76 29.5 -110t94.5 -34q67 0 107 37.5t40 108.5v315h62v-469z" />
    <glyph glyph-name="ygrave.ss03" horiz-adv-x="540" 
d="M463 36q0 -122 -56 -183t-165 -61q-58 0 -104 12.5t-87 37.5l33 58q64 -59 158 -59q80 0 119.5 45.5t39.5 143.5v62q-23 -48 -67.5 -74t-103.5 -26q-83 0 -122.5 44t-39.5 144v325h62v-317q0 -76 29.5 -110t94.5 -34q67 0 107 37.5t40 108.5v315h62v-469zM254 576
l-103 147h72l88 -147h-57z" />
    <glyph glyph-name="T_h" horiz-adv-x="1086" 
d="M954.5 462.5q39.5 -50.5 39.5 -155.5v-307h-62v303q0 79 -30.5 118.5t-99.5 39.5q-70 0 -110 -42.5t-40 -120.5v-298h-62v644h-266v-644h-65v644h-242v56h573v59h62v-369q19 60 64.5 91.5t111.5 31.5q87 0 126.5 -50.5z" />
    <glyph glyph-name="w_w_w" horiz-adv-x="2022" 
d="M1856 0h-71l-126 435l-129 -435h-70l-126 463l-122 -463h-71l-125 437l-130 -437h-70l-126 463l-122 -463h-72l-125 437l-129 -437h-71l-138 506h60l120 -441l130 441h62l128 -441l114 441h90l120 -443l130 443h63l127 -440l115 440h89l120 -443l130 443h63l127 -440
l115 440h53z" />
    <glyph glyph-name="zero.slash" horiz-adv-x="610" 
d="M485.5 617.5q61.5 -90.5 61.5 -265.5q0 -176 -61.5 -268t-178.5 -92q-119 0 -181 91.5t-62 268.5q0 175 62 265.5t181 90.5q117 0 178.5 -90.5zM130 352q0 -307 176 -307q87 0 131 77t44 230q0 150 -44.5 226.5t-130.5 76.5q-176 0 -176 -303zM334 388.5
q10 -10.5 10 -28.5t-9.5 -28t-28.5 -10q-18 0 -27.5 10t-9.5 28t9.5 28.5t27.5 10.5t28 -10.5z" />
    <glyph glyph-name="zero.tf.slash" horiz-adv-x="580" 
d="M463.5 617q60.5 -91 60.5 -265q0 -175 -60.5 -267.5t-171.5 -92.5q-113 0 -174.5 92t-61.5 268q0 174 61.5 265t174.5 91q111 0 171.5 -91zM163.5 579.5q-43.5 -75.5 -43.5 -227.5q0 -154 43.5 -230.5t127.5 -76.5q82 0 126 76.5t44 230.5q0 151 -44 227t-126 76
q-84 0 -127.5 -75.5zM319 389.5q10 -10.5 10 -29.5q0 -17 -10 -27.5t-29 -10.5q-17 0 -26.5 10.5t-9.5 27.5q0 19 9.5 29.5t26.5 10.5q19 0 29 -10.5z" />
    <glyph glyph-name="zero.ss04" horiz-adv-x="1316" 
d="M944.5 836q127.5 -72 199.5 -199.5t72 -286.5t-72 -286.5t-199.5 -199.5t-286.5 -72t-286.5 72t-199.5 199.5t-72 286.5t72 286.5t199.5 199.5t286.5 72t286.5 -72zM395.5 799.5q-116.5 -66.5 -182.5 -184.5t-66 -265t66 -265t182.5 -184.5t262.5 -66.5t263 66.5
t183 184.5t66 265t-66 265t-183 184.5t-263 66.5t-262.5 -66.5zM773.5 500q39.5 -52 39.5 -151t-39.5 -151t-113.5 -52q-77 0 -116.5 51.5t-39.5 151.5t39.5 151.5t116.5 51.5q74 0 113.5 -52zM581.5 469.5q-25.5 -39.5 -25.5 -120.5t25.5 -121.5t77.5 -40.5q50 0 75.5 40.5
t25.5 121.5q0 160 -101 160q-52 0 -77.5 -39.5z" />
    <glyph glyph-name="one.ss04" horiz-adv-x="1316" 
d="M944.5 836q127.5 -72 199.5 -199.5t72 -286.5t-72 -286.5t-199.5 -199.5t-286.5 -72t-286.5 72t-199.5 199.5t-72 286.5t72 286.5t199.5 199.5t286.5 72t286.5 -72zM921 -99.5q117 66.5 183 184.5t66 265t-66 265t-183 184.5t-263 66.5t-262.5 -66.5t-182.5 -184.5
t-66 -265t66 -265t182.5 -184.5t262.5 -66.5t263 66.5zM769 188v-40h-228v40h91v276l-81 -9l-2 32q40 8 66.5 23t33.5 35h42v-357h78z" />
    <glyph glyph-name="two.ss04" horiz-adv-x="1316" 
d="M944.5 836q127.5 -72 199.5 -199.5t72 -286.5t-72 -286.5t-199.5 -199.5t-286.5 -72t-286.5 72t-199.5 199.5t-72 286.5t72 286.5t199.5 199.5t286.5 72t286.5 -72zM921 -99.5q117 66.5 183 184.5t66 265t-66 265t-183 184.5t-263 66.5t-262.5 -66.5t-182.5 -184.5
t-66 -265t66 -265t182.5 -184.5t262.5 -66.5t263 66.5zM773.5 385q-15.5 -25 -37 -42t-58.5 -40q-47 -28 -71.5 -51.5t-29.5 -57.5h219v-44h-272q-1 7 -1 22q0 37 16 64.5t39.5 46t61.5 41.5q49 31 73.5 55.5t24.5 62.5q0 69 -79 69q-38 0 -59.5 -18t-21.5 -48q0 -19 6 -33
l-44 -6q-11 15 -11 43q0 46 35 73.5t97 27.5q63 0 95.5 -27t32.5 -79q0 -34 -15.5 -59z" />
    <glyph glyph-name="three.ss04" horiz-adv-x="1316" 
d="M944.5 836q127.5 -72 199.5 -199.5t72 -286.5t-72 -286.5t-199.5 -199.5t-286.5 -72t-286.5 72t-199.5 199.5t-72 286.5t72 286.5t199.5 199.5t286.5 72t286.5 -72zM921 -99.5q117 66.5 183 184.5t66 265t-66 265t-183 184.5t-263 66.5t-262.5 -66.5t-182.5 -184.5
t-66 -265t66 -265t182.5 -184.5t262.5 -66.5t263 66.5zM801 254q0 -49 -35 -78.5t-105 -29.5q-71 0 -105 29.5t-34 81.5l49 5q1 -36 22.5 -56t65.5 -20q46 0 68 20t22 54q0 42 -30 59t-84 17l-3 27q53 8 78 27.5t25 57.5q0 63 -74 63q-38 0 -57 -16t-19 -43q0 -13 3 -25
l-47 -5q-5 25 -5 37q0 42 33 66.5t93 24.5q61 0 92 -25t31 -71q0 -37 -22 -62t-59 -36q97 -17 97 -102z" />
    <glyph glyph-name="four.ss04" horiz-adv-x="1316" 
d="M944.5 836q127.5 -72 199.5 -199.5t72 -286.5t-72 -286.5t-199.5 -199.5t-286.5 -72t-286.5 72t-199.5 199.5t-72 286.5t72 286.5t199.5 199.5t286.5 72t286.5 -72zM921 -99.5q117 66.5 183 184.5t66 265t-66 265t-183 184.5t-263 66.5t-262.5 -66.5t-182.5 -184.5
t-66 -265t66 -265t182.5 -184.5t262.5 -66.5t263 66.5zM791 280v-40h-63v-90h-52v90h-202v29l181 276h73v-265h63zM676 510l-148 -230h148v230z" />
    <glyph glyph-name="five.ss04" horiz-adv-x="1316" 
d="M944.5 836q127.5 -72 199.5 -199.5t72 -286.5t-72 -286.5t-199.5 -199.5t-286.5 -72t-286.5 72t-199.5 199.5t-72 286.5t72 286.5t199.5 199.5t286.5 72t286.5 -72zM921 -99.5q117 66.5 183 184.5t66 265t-66 265t-183 184.5t-263 66.5t-262.5 -66.5t-182.5 -184.5
t-66 -265t66 -265t182.5 -184.5t262.5 -66.5t263 66.5zM767 365.5q33 -31.5 33 -92.5q0 -58 -37 -93t-106 -35q-62 0 -97 27t-39 76l50 6q3 -33 26.5 -50.5t61.5 -17.5q43 0 67 23.5t24 63.5q0 43 -22.5 66t-63.5 23q-31 0 -55.5 -12.5t-33.5 -31.5l-47 3l21 224h228l1 -41
h-189l-16 -150q16 20 43 31.5t61 11.5q57 0 90 -31.5z" />
    <glyph glyph-name="six.ss04" horiz-adv-x="1316" 
d="M944.5 836q127.5 -72 199.5 -199.5t72 -286.5t-72 -286.5t-199.5 -199.5t-286.5 -72t-286.5 72t-199.5 199.5t-72 286.5t72 286.5t199.5 199.5t286.5 72t286.5 -72zM921 -99.5q117 66.5 183 184.5t66 265t-66 265t-183 184.5t-263 66.5t-262.5 -66.5t-182.5 -184.5
t-66 -265t66 -265t182.5 -184.5t262.5 -66.5t263 66.5zM760.5 352.5q31.5 -30.5 31.5 -83.5q0 -58 -35.5 -90.5t-97.5 -32.5t-101 37q-25 25 -36.5 66t-11.5 99q0 99 40 150.5t117 51.5q53 0 84 -23t31 -62q0 -17 -6 -31l-44 2q4 8 4 23q0 24 -18.5 39t-51.5 15
q-53 0 -79 -40.5t-26 -124.5q0 -21 1 -30q13 30 41.5 47.5t67.5 17.5q58 0 89.5 -30.5zM720.5 206.5q21.5 21.5 21.5 60.5q0 38 -22.5 59.5t-62.5 21.5q-38 0 -62 -22.5t-24 -59.5q0 -16 9.5 -35t29 -32.5t49.5 -13.5q40 0 61.5 21.5z" />
    <glyph glyph-name="seven.ss04" horiz-adv-x="1316" 
d="M944.5 836q127.5 -72 199.5 -199.5t72 -286.5t-72 -286.5t-199.5 -199.5t-286.5 -72t-286.5 72t-199.5 199.5t-72 286.5t72 286.5t199.5 199.5t286.5 72t286.5 -72zM921 -99.5q117 66.5 183 184.5t66 265t-66 265t-183 184.5t-263 66.5t-262.5 -66.5t-182.5 -184.5
t-66 -265t66 -265t182.5 -184.5t262.5 -66.5t263 66.5zM791 545v-36q-63 -60 -100.5 -156t-37.5 -204h-57q0 102 38.5 196t103.5 156h-214v44h267z" />
    <glyph glyph-name="eight.ss04" horiz-adv-x="1316" 
d="M944.5 836q127.5 -72 199.5 -199.5t72 -286.5t-72 -286.5t-199.5 -199.5t-286.5 -72t-286.5 72t-199.5 199.5t-72 286.5t72 286.5t199.5 199.5t286.5 72t286.5 -72zM921 -99.5q117 66.5 183 184.5t66 265t-66 265t-183 184.5t-263 66.5t-262.5 -66.5t-182.5 -184.5
t-66 -265t66 -265t182.5 -184.5t262.5 -66.5t263 66.5zM776.5 319q24.5 -26 24.5 -68q0 -49 -37.5 -77t-105.5 -28t-105.5 28t-37.5 77q0 42 24 68t66 33q-36 7 -56.5 32t-20.5 64q0 47 34 75.5t96 28.5t96 -28t34 -76q0 -39 -21 -64t-58 -32q43 -7 67.5 -33zM598.5 388.5
q20.5 -19.5 60.5 -19.5q39 0 59 19.5t20 55.5q0 34 -20.5 53t-58.5 19q-39 0 -60 -19t-21 -53q0 -36 20.5 -55.5zM724.5 200q23.5 20 23.5 55q0 37 -23.5 57t-66.5 20q-44 0 -67 -20t-23 -57q0 -35 23 -55t67 -20q43 0 66.5 20z" />
    <glyph glyph-name="nine.ss04" horiz-adv-x="1316" 
d="M944.5 836q127.5 -72 199.5 -199.5t72 -286.5t-72 -286.5t-199.5 -199.5t-286.5 -72t-286.5 72t-199.5 199.5t-72 286.5t72 286.5t199.5 199.5t286.5 72t286.5 -72zM921 -99.5q117 66.5 183 184.5t66 265t-66 265t-183 184.5t-263 66.5t-262.5 -66.5t-182.5 -184.5
t-66 -265t66 -265t182.5 -184.5t262.5 -66.5t263 66.5zM752 517q23 -23 34 -64t11 -107q0 -200 -150 -200q-68 0 -114 37l29 40q36 -36 85 -36q52 0 76 38.5t24 124.5l-1 28q-9 -35 -35 -53t-67 -18q-54 0 -86 32.5t-32 86.5q0 57 36 90.5t96 33.5q61 0 94 -33zM717.5 368
q20.5 22 20.5 62q0 39 -20.5 61t-57.5 22q-38 0 -61 -23t-23 -60q0 -38 22.5 -61t59.5 -23q39 0 59.5 22z" />
    <glyph glyph-name="zero.left.ss04" 
d="M395.5 799.5q-116.5 -66.5 -182.5 -184.5t-66 -265t66 -265t182.5 -184.5t262.5 -66.5v-42q-159 0 -286.5 72t-199.5 199.5t-72 286.5t72 286.5t199.5 199.5t286.5 72v-42q-146 0 -262.5 -66.5zM586 500q39 -52 39 -151t-39 -151t-113 -52q-77 0 -116.5 51.5t-39.5 151.5
t39.5 151.5t116.5 51.5q74 0 113 -52zM369 349q0 -162 104 -162q49 0 74.5 41t25.5 121t-25.5 120t-74.5 40q-104 0 -104 -160z" />
    <glyph glyph-name="one.left.ss04" 
d="M395.5 799.5q-116.5 -66.5 -182.5 -184.5t-66 -265t66 -265t182.5 -184.5t262.5 -66.5v-42q-159 0 -286.5 72t-199.5 199.5t-72 286.5t72 286.5t199.5 199.5t286.5 72v-42q-146 0 -262.5 -66.5zM466 467l-81 -9l-1 32q38 8 65 22.5t35 33.5h42v-357h74v-39h-228v39h94
v278z" />
    <glyph glyph-name="two.left.ss04" 
d="M395.5 799.5q-116.5 -66.5 -182.5 -184.5t-66 -265t66 -265t182.5 -184.5t262.5 -66.5v-42q-159 0 -286.5 72t-199.5 199.5t-72 286.5t72 286.5t199.5 199.5t286.5 72v-42q-146 0 -262.5 -66.5zM353 236.5q16 27.5 39 45.5t61 42q49 31 73.5 55.5t24.5 62.5q0 69 -78 69
q-38 0 -59.5 -18t-21.5 -48q0 -18 5 -33l-44 -6q-10 16 -10 43q0 46 34.5 73.5t96.5 27.5q64 0 96.5 -27t32.5 -79q0 -34 -15.5 -59t-37.5 -42t-59 -40q-47 -28 -71.5 -51.5t-29.5 -57.5h219v-44h-271q-1 7 -1 22q0 37 16 64.5z" />
    <glyph glyph-name="three.left.ss04" 
d="M395.5 799.5q-116.5 -66.5 -182.5 -184.5t-66 -265t66 -265t182.5 -184.5t262.5 -66.5v-42q-159 0 -286.5 72t-199.5 199.5t-72 286.5t72 286.5t199.5 199.5t286.5 72v-42q-146 0 -262.5 -66.5zM538 206q22 20 22 54q0 42 -30 59t-84 17l-3 27q53 8 78 27.5t25 57.5
q0 63 -74 63q-38 0 -57 -16t-19 -43q0 -13 3 -25l-47 -5q-5 25 -5 37q0 42 32.5 66.5t93.5 24.5t92 -25t31 -71q0 -37 -22 -62t-59 -36q96 -18 96 -102q0 -49 -35 -78.5t-105 -29.5t-104.5 29.5t-34.5 81.5l50 5q0 -36 22 -56t66 -20q46 0 68 20z" />
    <glyph glyph-name="four.left.ss04" 
d="M395.5 799.5q-116.5 -66.5 -182.5 -184.5t-66 -265t66 -265t182.5 -184.5t262.5 -66.5v-42q-159 0 -286.5 72t-199.5 199.5t-72 286.5t72 286.5t199.5 199.5t286.5 72v-42q-146 0 -262.5 -66.5zM511 240h-199v29l178 276h72v-265h64v-40h-64v-90h-51v90zM511 509
l-145 -229h145v229z" />
    <glyph glyph-name="five.left.ss04" 
d="M395.5 799.5q-116.5 -66.5 -182.5 -184.5t-66 -265t66 -265t182.5 -184.5t262.5 -66.5v-42q-159 0 -286.5 72t-199.5 199.5t-72 286.5t72 286.5t199.5 199.5t286.5 72v-42q-146 0 -262.5 -66.5zM539 209.5q24 23.5 24 63.5q0 43 -22.5 66t-63.5 23q-31 0 -55.5 -12.5
t-33.5 -31.5l-47 3l22 224h227l1 -41h-188l-16 -148q16 18 43 29.5t60 11.5q57 0 90 -31.5t33 -92.5q0 -58 -36.5 -93t-105.5 -35q-63 0 -98 27t-39 76l50 6q3 -33 26.5 -50.5t60.5 -17.5q44 0 68 23.5z" />
    <glyph glyph-name="six.left.ss04" 
d="M395.5 799.5q-116.5 -66.5 -182.5 -184.5t-66 -265t66 -265t182.5 -184.5t262.5 -66.5v-42q-159 0 -286.5 72t-199.5 199.5t-72 286.5t72 286.5t199.5 199.5t286.5 72v-42q-146 0 -262.5 -66.5zM554 459q0 24 -18 39t-51 15q-53 0 -79 -40.5t-26 -124.5l1 -30
q12 30 40 47.5t68 17.5q58 0 89.5 -30.5t31.5 -83.5q0 -58 -35 -90.5t-97 -32.5q-64 0 -101 37q-25 25 -36.5 66t-11.5 99q0 100 39.5 151t116.5 51q54 0 85 -23t31 -62q0 -17 -6 -31l-45 2q4 8 4 23zM413 325.5q-24 -22.5 -24 -59.5q0 -16 9.5 -35t29.5 -32.5t50 -13.5
q39 0 60.5 21.5t21.5 60.5q0 38 -22.5 59.5t-62.5 21.5q-38 0 -62 -22.5z" />
    <glyph glyph-name="seven.left.ss04" 
d="M395.5 799.5q-116.5 -66.5 -182.5 -184.5t-66 -265t66 -265t182.5 -184.5t262.5 -66.5v-42q-159 0 -286.5 72t-199.5 199.5t-72 286.5t72 286.5t199.5 199.5t286.5 72v-42q-146 0 -262.5 -66.5zM458.5 345q38.5 94 104.5 156h-214v44h267v-36q-64 -60 -101.5 -156
t-37.5 -204h-57q0 102 38.5 196z" />
    <glyph glyph-name="eight.left.ss04" 
d="M395.5 799.5q-116.5 -66.5 -182.5 -184.5t-66 -265t66 -265t182.5 -184.5t262.5 -66.5v-42q-159 0 -286.5 72t-199.5 199.5t-72 286.5t72 286.5t199.5 199.5t286.5 72v-42q-146 0 -262.5 -66.5zM358 319q24 26 66 33q-36 7 -56.5 32t-20.5 64q0 47 34 75.5t96 28.5
t96 -28t34 -76q0 -39 -20.5 -64t-57.5 -32q43 -7 67 -33.5t24 -67.5q0 -49 -37.5 -77t-105.5 -28t-105.5 28t-37.5 77q0 42 24 68zM417 388.5q21 -19.5 61 -19.5q39 0 59.5 19.5t20.5 55.5q0 34 -21 53t-59 19q-39 0 -60.5 -19.5t-21.5 -52.5q0 -36 21 -55.5zM410 312
q-23 -20 -23 -57q0 -35 23 -55t67 -20q43 0 66.5 20t23.5 55q0 37 -23.5 57t-66.5 20q-44 0 -67 -20z" />
    <glyph glyph-name="nine.left.ss04" 
d="M395.5 799.5q-116.5 -66.5 -182.5 -184.5t-66 -265t66 -265t182.5 -184.5t262.5 -66.5v-42q-159 0 -286.5 72t-199.5 199.5t-72 286.5t72 286.5t199.5 199.5t286.5 72v-42q-146 0 -262.5 -66.5zM533 226q24 39 24 124l-1 28q-9 -35 -35 -53t-67 -18q-54 0 -86 32.5
t-32 86.5q0 57 36.5 90.5t96.5 33.5q28 0 52 -8.5t40 -24.5q23 -23 34.5 -64.5t11.5 -106.5q0 -200 -149 -200q-68 0 -116 37l29 40q36 -36 87 -36t75 39zM527.5 368.5q20.5 22.5 20.5 61.5t-21 61t-58 22t-60 -23t-23 -60q0 -38 22.5 -61t59.5 -23q39 0 59.5 22.5z" />
    <glyph glyph-name="zero.middle.ss04" horiz-adv-x="372" 
d="M372 866h-372v42h372v-42zM301 500q39 -52 39 -151t-39 -151t-113 -52q-76 0 -115 51.5t-39 151.5t39 151.5t115 51.5q74 0 113 -52zM111 469q-25 -40 -25 -120q0 -162 102 -162q49 0 74.5 41t25.5 121t-25.5 120t-74.5 40q-52 0 -77 -40zM372 -208h-372v42h372v-42z" />
    <glyph glyph-name="one.middle.ss04" horiz-adv-x="335" 
d="M335 866h-335v42h335v-42zM151 467l-80 -9l-1 32q38 8 64.5 22.5t33.5 33.5h42v-357h75v-39h-226v39h92v278zM335 -166v-42h-335v42h335z" />
    <glyph glyph-name="two.middle.ss04" horiz-adv-x="369" 
d="M369 866h-369v42h369v-42zM67 236.5q16 27.5 39 46t61 41.5q49 30 73 55t24 63q0 69 -79 69q-38 0 -59 -18t-21 -48q0 -19 6 -33l-44 -6q-10 16 -10 43q0 46 34.5 73.5t95.5 27.5q63 0 95.5 -27t32.5 -79q0 -34 -15.5 -59t-37 -42t-58.5 -40q-47 -28 -71.5 -51.5
t-29.5 -57.5h219v-44h-270q-1 7 -1 22q0 37 16 64.5zM369 -166v-42h-369v42h369z" />
    <glyph glyph-name="three.middle.ss04" horiz-adv-x="369" 
d="M369 866h-369v42h369v-42zM250 206q22 20 22 54q0 42 -30 59t-84 17l-3 27q53 8 77.5 27.5t24.5 57.5q0 63 -73 63q-38 0 -57 -16t-19 -43q0 -13 3 -25l-47 -5q-4 20 -4 37q0 42 32.5 66.5t92.5 24.5q61 0 92 -25t31 -71q0 -37 -22 -62t-59 -36q96 -18 96 -102
q0 -49 -35 -78.5t-104 -29.5q-70 0 -104.5 29.5t-34.5 81.5l49 5q1 -36 22.5 -56t65.5 -20q46 0 68 20zM369 -166v-42h-369v42h369z" />
    <glyph glyph-name="four.middle.ss04" horiz-adv-x="372" 
d="M372 866h-372v42h372v-42zM278 280h64v-40h-64v-90h-51v90h-196v29l175 276h72v-265zM227 509l-143 -229h143v229zM372 -166v-42h-372v42h372z" />
    <glyph glyph-name="five.middle.ss04" horiz-adv-x="372" 
d="M372 866h-372v42h372v-42zM255 209.5q24 23.5 24 63.5q0 42 -22.5 65.5t-62.5 23.5q-30 0 -54.5 -12.5t-33.5 -31.5l-46 3l20 224h226l1 -41h-186l-16 -148q16 18 42.5 29.5t59.5 11.5q56 0 89 -31.5t33 -92.5q0 -58 -37 -93t-105 -35q-61 0 -96 27t-38 76l49 6
q3 -33 26 -50.5t60 -17.5q43 0 67 23.5zM372 -166v-42h-372v42h372z" />
    <glyph glyph-name="six.middle.ss04" horiz-adv-x="372" 
d="M372 866h-372v42h372v-42zM270 459q0 24 -18 39t-51 15q-52 0 -77.5 -40.5t-25.5 -124.5l1 -30q11 30 39.5 47.5t67.5 17.5q58 0 89 -30.5t31 -83.5q0 -58 -35 -90.5t-97 -32.5q-63 0 -100 37q-48 48 -48 165q0 99 40 150.5t116 51.5q53 0 83.5 -23t30.5 -62
q0 -17 -6 -31l-44 2q4 8 4 23zM131 325.5q-23 -22.5 -23 -59.5q0 -17 9 -35.5t28.5 -32t48.5 -13.5q39 0 60.5 21.5t21.5 60.5q0 38 -22 59.5t-62 21.5q-38 0 -61 -22.5zM372 -166v-42h-372v42h372z" />
    <glyph glyph-name="seven.middle.ss04" horiz-adv-x="346" 
d="M346 866h-346v42h346v-42zM153.5 345q38.5 94 103.5 156h-214v44h268v-36q-64 -60 -101.5 -156t-37.5 -204h-57q0 102 38.5 196zM346 -166v-42h-346v42h346z" />
    <glyph glyph-name="eight.middle.ss04" horiz-adv-x="372" 
d="M372 866h-372v42h372v-42zM76.5 319q23.5 26 65.5 33q-36 7 -56 32t-20 64q0 48 33.5 76t94.5 28q62 0 95.5 -28t33.5 -76q0 -39 -20.5 -64t-57.5 -32q43 -7 67 -33.5t24 -67.5q0 -49 -37 -77t-105 -28t-104.5 28t-36.5 77q0 42 23.5 68zM135.5 388.5
q20.5 -19.5 59.5 -19.5q38 0 58.5 19.5t20.5 55.5q0 33 -21 52.5t-58 19.5q-38 0 -59 -19t-21 -53q0 -36 20.5 -55.5zM128 312q-23 -20 -23 -57q0 -35 23 -55t66 -20q42 0 65.5 20t23.5 55q0 37 -23 57t-66 20t-66 -20zM372 -166v-42h-372v42h372z" />
    <glyph glyph-name="nine.middle.ss04" horiz-adv-x="372" 
d="M372 866h-372v42h372v-42zM248.5 225.5q23.5 38.5 23.5 124.5l-1 28q-9 -35 -34.5 -53t-65.5 -18q-54 0 -85.5 32.5t-31.5 86.5q0 57 36 90.5t95 33.5t92 -33q23 -23 34.5 -64.5t11.5 -106.5q0 -200 -149 -200q-68 0 -114 37l29 40q36 -36 85 -36q51 0 74.5 38.5z
M243 368q20 22 20 62q0 39 -20 61t-57 22t-59.5 -23t-22.5 -60q0 -38 22 -61t59 -23q38 0 58 22zM372 -166v-42h-372v42h372z" />
    <glyph glyph-name="zero.right.ss04" 
d="M286.5 836q127.5 -72 199.5 -199.5t72 -286.5t-72 -286.5t-199.5 -199.5t-286.5 -72v42q146 0 262.5 66.5t182.5 184.5t66 265t-66 265t-182.5 184.5t-262.5 66.5v42q159 0 286.5 -72zM301.5 500q39.5 -52 39.5 -151t-39.5 -151t-114.5 -52q-76 0 -115.5 51.5
t-39.5 151.5t39.5 151.5t115.5 51.5q75 0 114.5 -52zM110 469q-25 -40 -25 -120q0 -162 102 -162t102 162q0 160 -102 160q-52 0 -77 -40z" />
    <glyph glyph-name="one.right.ss04" 
d="M286.5 836q127.5 -72 199.5 -199.5t72 -286.5t-72 -286.5t-199.5 -199.5t-286.5 -72v42q146 0 262.5 66.5t182.5 184.5t66 265t-66 265t-182.5 184.5t-262.5 66.5v42q159 0 286.5 -72zM168 467l-81 -9l-2 32q39 8 65.5 22.5t34.5 33.5h42v-357h79v-39h-228v39h90v278z
" />
    <glyph glyph-name="two.right.ss04" 
d="M286.5 836q127.5 -72 199.5 -199.5t72 -286.5t-72 -286.5t-199.5 -199.5t-286.5 -72v42q146 0 262.5 66.5t182.5 184.5t66 265t-66 265t-182.5 184.5t-262.5 66.5v42q159 0 286.5 -72zM64 236.5q16 27.5 39 45.5t61 42q49 31 73.5 55.5t24.5 62.5q0 69 -79 69
q-38 0 -59 -18t-21 -48q0 -18 5 -33l-43 -6q-11 15 -11 43q0 46 34.5 73.5t96.5 27.5q128 0 128 -106q0 -34 -15.5 -59t-37 -42t-58.5 -40q-47 -28 -71.5 -51.5t-29.5 -57.5h219v-44h-271q-1 7 -1 22q0 37 16 64.5z" />
    <glyph glyph-name="three.right.ss04" 
d="M286.5 836q127.5 -72 199.5 -199.5t72 -286.5t-72 -286.5t-199.5 -199.5t-286.5 -72v42q146 0 262.5 66.5t182.5 184.5t66 265t-66 265t-182.5 184.5t-262.5 66.5v42q159 0 286.5 -72zM252.5 206.5q22.5 20.5 22.5 53.5q0 42 -30.5 59t-84.5 17l-3 27q53 8 78 27.5
t25 57.5q0 63 -74 63q-38 0 -57 -16t-19 -43q0 -13 3 -25l-47 -5q-5 25 -5 37q0 42 33 66.5t93 24.5q61 0 92 -25t31 -71q0 -37 -22 -62t-59 -36q97 -17 97 -102q0 -49 -35 -78.5t-105 -29.5t-104.5 29.5t-34.5 81.5l49 5q1 -36 22.5 -56t65.5 -20q46 0 68.5 20.5z" />
    <glyph glyph-name="four.right.ss04" 
d="M286.5 836q127.5 -72 199.5 -199.5t72 -286.5t-72 -286.5t-199.5 -199.5t-286.5 -72v42q146 0 262.5 66.5t182.5 184.5t66 265t-66 265t-182.5 184.5t-262.5 66.5v42q159 0 286.5 -72zM281 280h64v-40h-64v-90h-51v90h-199v29l178 276h72v-265zM230 509l-145 -229h145
v229z" />
    <glyph glyph-name="five.right.ss04" 
d="M286.5 836q127.5 -72 199.5 -199.5t72 -286.5t-72 -286.5t-199.5 -199.5t-286.5 -72v42q146 0 262.5 66.5t182.5 184.5t66 265t-66 265t-182.5 184.5t-262.5 66.5v42q159 0 286.5 -72zM249.5 209.5q24.5 23.5 24.5 63.5q0 43 -23 66t-64 23q-31 0 -55 -12.5t-33 -31.5
l-47 3l21 224h227l1 -41h-188l-16 -148q16 18 43 29.5t60 11.5q57 0 90.5 -31.5t33.5 -92.5q0 -58 -37 -93t-106 -35q-62 0 -97.5 27t-38.5 76l49 6q4 -33 27 -50.5t60 -17.5q44 0 68.5 23.5z" />
    <glyph glyph-name="six.right.ss04" 
d="M286.5 836q127.5 -72 199.5 -199.5t72 -286.5t-72 -286.5t-199.5 -199.5t-286.5 -72v42q146 0 262.5 66.5t182.5 184.5t66 265t-66 265t-182.5 184.5t-262.5 66.5v42q159 0 286.5 -72zM273 459q0 24 -18 39t-51 15q-53 0 -79 -40.5t-26 -124.5l1 -30q12 30 40 47.5
t68 17.5q58 0 89.5 -30.5t31.5 -83.5q0 -58 -35 -90.5t-97 -32.5q-63 0 -102 37q-47 47 -47 165q0 99 40 150.5t116 51.5q54 0 84.5 -23t30.5 -62q0 -17 -6 -31l-44 2q4 8 4 23zM132.5 325.5q-23.5 -22.5 -23.5 -59.5q0 -16 9.5 -35t29 -32.5t49.5 -13.5q39 0 60.5 21.5
t21.5 60.5q0 38 -22.5 59.5t-62.5 21.5q-38 0 -61.5 -22.5z" />
    <glyph glyph-name="seven.right.ss04" 
d="M286.5 836q127.5 -72 199.5 -199.5t72 -286.5t-72 -286.5t-199.5 -199.5t-286.5 -72v42q146 0 262.5 66.5t182.5 184.5t66 265t-66 265t-182.5 184.5t-262.5 66.5v42q159 0 286.5 -72zM150.5 345q38.5 94 103.5 156h-214v44h267v-36q-63 -60 -100.5 -156t-37.5 -204h-57
q0 102 38.5 196z" />
    <glyph glyph-name="eight.right.ss04" 
d="M286.5 836q127.5 -72 199.5 -199.5t72 -286.5t-72 -286.5t-199.5 -199.5t-286.5 -72v42q146 0 262.5 66.5t182.5 184.5t66 265t-66 265t-182.5 184.5t-262.5 66.5v42q159 0 286.5 -72zM73.5 319q23.5 26 66.5 33q-36 7 -56.5 32t-20.5 64q0 47 34 75.5t96 28.5t95.5 -28
t33.5 -76q0 -39 -20.5 -64t-57.5 -32q43 -7 67 -33.5t24 -67.5q0 -49 -37 -77t-105 -28t-105.5 28t-37.5 77q0 42 23.5 68zM132 388.5q21 -19.5 61 -19.5q38 0 58.5 19.5t20.5 55.5q0 33 -20.5 52.5t-58.5 19.5q-39 0 -60.5 -19.5t-21.5 -52.5q0 -36 21 -55.5zM126 312
q-23 -20 -23 -57q0 -35 23 -55t67 -20q43 0 66.5 20t23.5 55q0 37 -23.5 57t-66.5 20q-44 0 -67 -20z" />
    <glyph glyph-name="nine.right.ss04" 
d="M286.5 836q127.5 -72 199.5 -199.5t72 -286.5t-72 -286.5t-199.5 -199.5t-286.5 -72v42q146 0 262.5 66.5t182.5 184.5t66 265t-66 265t-182.5 184.5t-262.5 66.5v42q159 0 286.5 -72zM249 225.5q24 38.5 24 124.5l-1 28q-9 -35 -35 -53t-67 -18q-54 0 -86 32.5t-32 86.5
q0 57 36 90.5t96 33.5q61 0 94 -33q23 -23 34 -64t11 -107q0 -200 -150 -200q-68 0 -114 37l29 40q36 -36 85 -36q52 0 76 38.5zM243.5 368q20.5 22 20.5 62q0 39 -20.5 61t-57.5 22q-38 0 -61 -23t-23 -60q0 -38 22.5 -61t59.5 -23q39 0 59.5 22z" />
    <glyph glyph-name="zero.tf" horiz-adv-x="580" 
d="M463.5 617q60.5 -91 60.5 -265q0 -175 -60.5 -267.5t-171.5 -92.5q-113 0 -174.5 92t-61.5 268q0 174 61.5 265t174.5 91q111 0 171.5 -91zM163.5 579.5q-43.5 -75.5 -43.5 -227.5q0 -154 43.5 -230.5t127.5 -76.5q82 0 126 76.5t44 230.5q0 151 -44 227t-126 76
q-84 0 -127.5 -75.5z" />
    <glyph glyph-name="one.tf" horiz-adv-x="580" 
d="M511 0h-425v56h189v540l-188 -22v39q145 22 214 87h42v-644h168v-56z" />
    <glyph glyph-name="two.tf" horiz-adv-x="580" 
d="M508 0h-435l-1 31q0 67 26 115.5t64 81t100 73.5q57 39 89.5 66t54.5 65.5t22 89.5q0 68 -36 101.5t-105 33.5q-68 0 -106.5 -36t-38.5 -97q0 -37 11 -60l-56 -7q-16 28 -16 73q0 81 55.5 129.5t152.5 48.5q101 0 152.5 -47t51.5 -136q0 -59 -24.5 -103t-60 -74
t-95.5 -71q-56 -39 -89 -66t-57 -66t-28 -89h369v-56z" />
    <glyph glyph-name="three.tf" horiz-adv-x="580" 
d="M461.5 309q46.5 -43 46.5 -127q0 -85 -55.5 -137.5t-165.5 -52.5q-108 0 -162.5 52.5t-54.5 138.5l62 7q1 -67 39 -106.5t114 -39.5q80 0 119 39.5t39 106.5q0 81 -51 113t-143 32l-3 36q89 15 130.5 51.5t41.5 108.5q0 62 -32.5 94t-94.5 32q-68 0 -102.5 -31t-34.5 -84
q0 -24 5 -49l-59 -6q-7 37 -7 60q0 73 51.5 117t146.5 44q93 0 141.5 -44t48.5 -124q0 -69 -37 -113.5t-102 -64.5q73 -10 119.5 -53z" />
    <glyph glyph-name="four.tf" horiz-adv-x="580" 
d="M431 0h-62v170h-323v37l299 493h86v-479h104l2 -51h-106v-170zM369 661l-259 -440h259v440z" />
    <glyph glyph-name="five.tf" horiz-adv-x="580" 
d="M459 375.5q53 -56.5 53 -159.5q0 -100 -58.5 -162t-164.5 -62q-97 0 -153 47.5t-61 130.5l61 7q6 -63 47 -98t107 -35q75 0 117 46.5t42 124.5q0 82 -39.5 127t-110.5 45q-54 0 -95.5 -24.5t-57.5 -61.5l-60 5l34 394h357l1 -53h-307l-27 -294q25 35 70.5 57t102.5 22
q89 0 142 -56.5z" />
    <glyph glyph-name="six.tf" horiz-adv-x="580" 
d="M462.5 349.5q51.5 -52.5 51.5 -144.5q0 -99 -56 -156t-154 -57q-99 0 -162 68q-40 43 -57.5 115.5t-17.5 177.5q0 174 64 264.5t186 90.5q84 0 133 -40.5t49 -110.5q0 -13 -3 -28.5t-7 -25.5l-57 2q9 20 9 46q0 49 -32.5 78.5t-92.5 29.5q-186 0 -186 -307q0 -41 3 -76
q18 57 67 91.5t117 34.5q94 0 145.5 -52.5zM413 86.5q39 41.5 39 116.5q0 74 -40.5 114t-112.5 40q-68 0 -110.5 -43t-42.5 -112q0 -30 17 -67t52.5 -63.5t88.5 -26.5q70 0 109 41.5z" />
    <glyph glyph-name="seven.tf" horiz-adv-x="580" 
d="M531 655q-115 -110 -183.5 -285t-68.5 -370h-72q0 187 69.5 359t185.5 285h-410v56h479v-45z" />
    <glyph glyph-name="eight.tf" horiz-adv-x="580" 
d="M474.5 298.5q40.5 -46.5 40.5 -119.5q0 -88 -58.5 -137.5t-166.5 -49.5t-166.5 49.5t-58.5 137.5q0 73 40 119.5t111 57.5q-61 11 -96 56t-35 115q0 84 53.5 132.5t151.5 48.5t151.5 -48.5t53.5 -132.5q0 -69 -35 -114t-96 -57q70 -11 110.5 -57.5zM183 414
q37 -38 107 -38t107 38t37 108q0 67 -37 104.5t-107 37.5t-107 -37.5t-37 -104.5q0 -70 37 -108zM410.5 75q41.5 39 41.5 109t-41.5 109t-120.5 39t-120.5 -39t-41.5 -109t41.5 -109t120.5 -39t120.5 39z" />
    <glyph glyph-name="nine.tf" horiz-adv-x="580" 
d="M486 539.5q20 -74.5 20 -194.5q0 -178 -61 -265.5t-183 -87.5q-109 0 -190 63l36 50q60 -59 154 -59q95 0 138 72t43 231q0 41 -3 83q-26 -157 -185 -157q-93 0 -143.5 58t-50.5 159q0 98 59 157t158 59q46 0 85 -14.5t65 -41.5q38 -38 58 -112.5zM387 370q38 44 38 125
q0 77 -37.5 120.5t-107.5 43.5q-72 0 -114 -43.5t-42 -118.5q0 -81 38.5 -126t110.5 -45q76 0 114 44z" />
    <glyph glyph-name="zero.dnom" horiz-adv-x="386" 
d="M305.5 349q38.5 -51 38.5 -150t-38.5 -151t-111.5 -52q-74 0 -113 51.5t-39 151.5q0 99 39 150t113 51q73 0 111.5 -51zM93 199q0 -82 25 -122.5t76 -40.5q101 0 101 163q0 80 -25.5 121t-75.5 41q-101 0 -101 -162z" />
    <glyph glyph-name="one.dnom" horiz-adv-x="219" 
d="M142 0h-50v321l-74 -10l-1 29q77 14 93 56h32v-396z" />
    <glyph glyph-name="two.dnom" horiz-adv-x="333" 
d="M300 0h-267q-1 7 -1 22q0 38 16 65.5t38.5 46t60.5 41.5q48 29 72.5 54t24.5 63q0 71 -79 71q-38 0 -59.5 -18.5t-21.5 -48.5q0 -21 6 -34l-42 -5q-10 14 -10 42q0 46 34 73.5t94 27.5q63 0 95 -27t32 -78q0 -34 -15.5 -59.5t-36.5 -42t-59 -41.5q-47 -30 -71 -52.5
t-29 -57.5h218v-42z" />
    <glyph glyph-name="three.dnom" horiz-adv-x="362" 
d="M286.5 174q26.5 -24 26.5 -70q0 -49 -34 -78.5t-102 -29.5q-69 0 -103 29.5t-34 81.5l48 5q1 -37 22.5 -57.5t64.5 -20.5q45 0 67.5 20.5t22.5 53.5q0 43 -30 61t-83 18l-3 26q52 8 76.5 27.5t24.5 57.5q0 65 -73 65q-38 0 -56.5 -16.5t-18.5 -44.5q0 -13 3 -25l-45 -4
q-5 23 -5 36q0 42 31.5 66.5t91.5 24.5q59 0 89.5 -25t30.5 -70q0 -38 -21.5 -63t-57.5 -36q41 -8 67.5 -32z" />
    <glyph glyph-name="four.dnom" horiz-adv-x="359" 
d="M268 90v-90h-49v90h-196v29l176 276h69v-266h64v-39h-64zM219 360l-145 -231h145v231z" />
    <glyph glyph-name="five.dnom" horiz-adv-x="354" 
d="M282 215q33 -32 33 -92q0 -58 -37 -93t-104 -35q-62 0 -96.5 27t-38.5 76l47 6q4 -33 27.5 -51.5t61.5 -18.5q43 0 67.5 24.5t24.5 64.5q0 43 -23 66.5t-64 23.5q-31 0 -56 -13t-33 -32l-45 3l21 224h225l1 -40h-188l-16 -151q16 19 43 31t61 12q56 0 89 -32z" />
    <glyph glyph-name="six.dnom" horiz-adv-x="361" 
d="M296.5 202q30.5 -30 30.5 -83q0 -58 -33.5 -90.5t-94.5 -32.5q-60 0 -99 37q-46 47 -46 166q0 99 39 150t113 51q53 0 82.5 -23t29.5 -62q0 -15 -6 -31l-43 2q5 7 5 23q0 25 -17.5 40t-50.5 15q-103 0 -103 -165l1 -32q12 30 39.5 47.5t66.5 17.5q56 0 86.5 -30zM258 55
q21 22 21 61q0 40 -21.5 61t-61.5 21q-37 0 -60.5 -22.5t-23.5 -59.5q0 -17 9.5 -36t29 -33t48.5 -14q38 0 59 22z" />
    <glyph glyph-name="seven.dnom" horiz-adv-x="307" 
d="M281 362q-63 -61 -100.5 -157t-37.5 -205h-54q0 102 38.5 197t103.5 157h-214v41h264v-33z" />
    <glyph glyph-name="eight.dnom" horiz-adv-x="347" 
d="M289.5 169q23.5 -26 23.5 -68q0 -49 -36 -77t-103 -28t-103 28t-36 77q0 42 23 68t65 33q-36 8 -55.5 32.5t-19.5 63.5q0 48 32.5 75.5t93.5 27.5t93.5 -27.5t32.5 -75.5q0 -39 -20 -64t-56 -32q42 -7 65.5 -33zM114.5 238.5q20.5 -19.5 59.5 -19.5q38 0 58 19.5t20 55.5
q0 34 -20 53.5t-58 19.5t-59 -19.5t-21 -53.5q0 -36 20.5 -55.5zM239.5 49.5q23.5 20.5 23.5 55.5q0 37 -23 57t-66 20q-44 0 -66.5 -20t-22.5 -57q0 -35 23 -55.5t66 -20.5q42 0 65.5 20.5z" />
    <glyph glyph-name="nine.dnom" horiz-adv-x="350" 
d="M296 196q0 -200 -144 -200q-66 0 -111 36l28 39q35 -35 83 -35q49 0 72.5 39t23.5 124l-1 29q-9 -34 -34.5 -52.5t-64.5 -18.5q-52 0 -82.5 33t-30.5 86q0 57 35 90.5t92 33.5q27 0 50.5 -8t39.5 -24q44 -44 44 -172zM219.5 217.5q19.5 22.5 19.5 62.5q0 39 -20 61.5
t-56 22.5t-58 -23t-22 -61t21.5 -61.5t57.5 -23.5q38 0 57.5 22.5z" />
    <glyph glyph-name="zero.numr" horiz-adv-x="386" 
d="M305.5 654q38.5 -51 38.5 -150q0 -100 -38.5 -152t-111.5 -52q-74 0 -113 52t-39 152q0 99 39 150t113 51q73 0 111.5 -51zM93 504q0 -83 24.5 -123t76.5 -40q101 0 101 163q0 80 -25.5 121t-75.5 41q-101 0 -101 -162z" />
    <glyph glyph-name="one.numr" horiz-adv-x="219" 
d="M142 313h-50v321l-74 -10l-1 29q77 14 93 57h32v-397z" />
    <glyph glyph-name="two.numr" horiz-adv-x="333" 
d="M300 313h-267q-1 8 -1 22q0 38 16 66t39 46t60 41q49 31 73 55t24 62q0 71 -79 71q-38 0 -59.5 -18t-21.5 -49q0 -21 6 -34l-42 -5q-10 14 -10 42q0 46 34 74t94 28q63 0 95 -27t32 -79q0 -48 -28.5 -78t-82.5 -64q-47 -30 -71 -53t-29 -57h218v-43z" />
    <glyph glyph-name="three.numr" horiz-adv-x="362" 
d="M286 488q27 -24 27 -70q0 -50 -34 -79.5t-102 -29.5q-69 0 -103 29.5t-34 81.5l48 5q1 -36 22.5 -57t64.5 -21q45 0 67.5 20.5t22.5 53.5q0 43 -30 61t-83 18l-3 26q52 8 76.5 27.5t24.5 57.5q0 65 -73 65q-38 0 -56.5 -16t-18.5 -44q0 -14 3 -26l-45 -4q-5 22 -5 36
q0 42 32 67t91 25t89.5 -25t30.5 -71q0 -37 -22 -62.5t-59 -36.5q42 -7 69 -31z" />
    <glyph glyph-name="four.numr" horiz-adv-x="359" 
d="M268 404v-91h-49v91h-196v28l176 277h69v-266h64v-39h-64zM219 673l-144 -230h144v230z" />
    <glyph glyph-name="five.numr" horiz-adv-x="354" 
d="M282 528q33 -32 33 -91q0 -58 -37 -93.5t-104 -35.5q-62 0 -96.5 27t-38.5 76l47 6q4 -33 27.5 -51.5t61.5 -18.5q43 0 67.5 24.5t24.5 64.5q0 43 -23 67t-64 24q-31 0 -55.5 -13.5t-33.5 -32.5l-45 3l21 225h225l1 -41h-188l-16 -151q16 19 43 31t61 12q56 0 89 -32z
" />
    <glyph glyph-name="six.numr" horiz-adv-x="361" 
d="M296.5 515q30.5 -30 30.5 -83q0 -58 -33.5 -90.5t-94.5 -32.5q-60 0 -99 37q-46 47 -46 166q0 99 39 150t113 51q53 0 82.5 -23t29.5 -62q0 -15 -6 -31l-43 2q5 7 5 23q0 25 -17.5 40t-50.5 15q-103 0 -103 -165l1 -32q12 30 39.5 47.5t66.5 17.5q56 0 86.5 -30zM258 368
q21 22 21 61q0 40 -21.5 61t-61.5 21q-37 0 -60.5 -22.5t-23.5 -59.5q0 -17 9.5 -36t29 -33t48.5 -14q38 0 59 22z" />
    <glyph glyph-name="seven.numr" horiz-adv-x="307" 
d="M281 675q-63 -61 -100.5 -157t-37.5 -205h-54q0 102 38.5 197t103.5 157h-214v42h264v-34z" />
    <glyph glyph-name="eight.numr" horiz-adv-x="347" 
d="M289.5 482q23.5 -26 23.5 -68q0 -49 -36 -77t-103 -28t-103 28t-36 77q0 42 23 68t65 33q-36 8 -55.5 32.5t-19.5 63.5q0 48 32.5 75.5t93.5 27.5t93.5 -27.5t32.5 -75.5q0 -39 -20 -64t-56 -32q42 -7 65.5 -33zM114.5 551.5q20.5 -19.5 59.5 -19.5q38 0 58 19.5t20 55.5
q0 34 -20 53.5t-58 19.5t-59 -19.5t-21 -53.5q0 -36 20.5 -55.5zM239.5 362.5q23.5 20.5 23.5 55.5q0 37 -23 57t-66 20q-44 0 -66.5 -20t-22.5 -57q0 -35 23 -55.5t66 -20.5q42 0 65.5 20.5z" />
    <glyph glyph-name="nine.numr" horiz-adv-x="350" 
d="M296 509q0 -200 -144 -200q-66 0 -111 36l28 39q35 -35 83 -35q49 0 72.5 39t23.5 124l-1 29q-9 -34 -34.5 -52.5t-64.5 -18.5q-52 0 -82.5 33t-30.5 86q0 57 35 90.5t92 33.5q27 0 50.5 -8t39.5 -24q44 -44 44 -172zM219.5 530.5q19.5 22.5 19.5 62.5q0 39 -20 61.5
t-56 22.5t-58 -23t-22 -61t21.5 -61.5t57.5 -23.5q38 0 57.5 22.5z" />
    <glyph glyph-name="colon.case" horiz-adv-x="293" 
d="M177.5 244q11.5 -12 11.5 -33q0 -20 -11 -31.5t-33 -11.5q-20 0 -31 11.5t-11 31.5q0 21 11 33t31 12q21 0 32.5 -12zM177.5 538q11.5 -12 11.5 -33q0 -20 -11 -31.5t-33 -11.5q-20 0 -31 11.5t-11 31.5q0 21 11 33t31 12q21 0 32.5 -12z" />
    <glyph glyph-name="exclamdown.case" horiz-adv-x="312" 
d="M124.5 625q-11.5 12 -11.5 33t11.5 32t32.5 11q20 0 31 -11.5t11 -31.5q0 -21 -11 -33t-31 -12q-21 0 -32.5 12zM122 289l6 237h55l5 -237v-289h-66v289z" />
    <glyph glyph-name="questiondown.case" horiz-adv-x="509" 
d="M234.5 626q-11.5 12 -11.5 33t11.5 32t32.5 11q20 0 31 -11.5t11 -31.5q0 -21 -11 -33t-31 -12q-21 0 -32.5 12zM99.5 40q-51.5 47 -51.5 134q0 40 12.5 68.5t30.5 47.5t49 45q33 27 53.5 49.5t35 57.5t14.5 84h48l1 -16q0 -51 -13.5 -86t-33 -57t-51.5 -49
q-27 -23 -43.5 -40t-27 -42t-10.5 -60q0 -65 36 -98.5t105 -33.5t107 36t38 96q0 36 -11 61l57 7q15 -36 15 -73q0 -81 -55.5 -129.5t-152.5 -48.5q-101 0 -152.5 47z" />
    <glyph glyph-name="braceleft.case" horiz-adv-x="399" 
d="M223 689q-10 -24 -10 -66q0 -25 6 -81q1 -10 3 -34.5t2 -42.5q0 -50 -19.5 -77.5t-70.5 -27.5v-3q61 0 81 -44q9 -22 9 -61q0 -18 -2 -42t-3 -34q-6 -54 -6 -80q0 -61 25.5 -94.5t94.5 -33.5v-50q-75 0 -116 23t-56 65q-11 32 -11 77q0 29 6 83q1 11 3 34t2 40
q0 46 -18 71t-66 25v47q53 0 71 34q11 22 11 59q0 21 -6 75q-6 56 -6 85q0 76 39.5 119.5t146.5 43.5v-48q-88 0 -110 -62z" />
    <glyph glyph-name="braceright.case" horiz-adv-x="363" 
d="M176 28q9 24 9 66q0 19 -2 44.5t-3 35.5q-5 45 -5 76q0 51 19 79t71 28v2q-61 0 -81 45q-9 22 -9 61q0 18 2 42t3 34q6 54 6 80q0 61 -25.5 94.5t-94.5 33.5v50q75 0 115.5 -23t55.5 -64q11 -33 11 -78q0 -21 -2 -46.5t-3 -35.5q-5 -42 -5 -72q0 -48 18 -73.5t66 -25.5
v-47q-53 0 -72 -34q-11 -22 -11 -60q0 -21 6 -75q6 -56 6 -85q0 -76 -39 -119t-146 -43v48q87 0 110 62z" />
    <glyph glyph-name="bracketleft.case" horiz-adv-x="404" 
d="M183 751v-783h155v-50h-220v881h220v-48h-155z" />
    <glyph glyph-name="bracketright.case" horiz-adv-x="404" 
d="M221 -34v783h-155v50h220v-881h-220v48h155z" />
    <glyph glyph-name="parenleft.case" horiz-adv-x="394" 
d="M241 719.5q-34 -31.5 -53 -117.5t-19 -243t19 -242.5t53 -117t87 -31.5v-50q-74 0 -123.5 38.5t-76.5 135.5t-27 267t27 266.5t76.5 135t123.5 38.5v-48q-53 0 -87 -31.5z" />
    <glyph glyph-name="parenright.case" horiz-adv-x="394" 
d="M153.5 -2.5q34.5 31.5 53 117.5t18.5 243t-18.5 242.5t-53 117t-87.5 31.5v50q74 0 123.5 -38.5t76.5 -135.5t27 -267t-27 -266.5t-76.5 -135t-123.5 -38.5v48q53 0 87.5 31.5z" />
    <glyph glyph-name="emdash.case" horiz-adv-x="799" 
d="M86 322v57h621v-57h-621z" />
    <glyph glyph-name="endash.case" horiz-adv-x="641" 
d="M86 322v57h464v-57h-464z" />
    <glyph glyph-name="hyphen.case" horiz-adv-x="493" 
d="M86 322v57h315v-57h-315z" />
    <glyph glyph-name="guillemotleft.case" horiz-adv-x="458" 
d="M237 155l-56 -13l-115 206l114 206l56 -13l-101 -193zM362 142l-115 206l114 206l56 -13l-101 -193l102 -193z" />
    <glyph glyph-name="guillemotright.case" horiz-adv-x="458" 
d="M290 554l115 -206l-114 -206l-56 13l101 193l-102 193zM109 554l115 -206l-114 -206l-56 13l101 193l-102 193z" />
    <glyph glyph-name="guilsinglleft.case" horiz-adv-x="277" 
d="M181 142l-115 206l114 206l56 -13l-101 -193l102 -193z" />
    <glyph glyph-name="guilsinglright.case" horiz-adv-x="277" 
d="M105 142l-56 13l101 193l-102 193l56 13l115 -206z" />
    <glyph glyph-name="at.case" horiz-adv-x="1028" 
d="M866 19l17 -38q-129 -73 -351 -73q-139 0 -244.5 46t-165 138t-59.5 226q0 148 63 253t172 158t244 53q145 0 239.5 -48t139 -131t44.5 -190q0 -96 -31 -166t-84.5 -106.5t-120.5 -36.5q-56 0 -83.5 25.5t-30.5 85.5q-24 -53 -67 -82t-96 -29q-70 0 -109.5 47.5
t-39.5 138.5q0 90 29.5 154.5t80 98t112.5 33.5q86 0 134 -48l19 40l40 -5l-37 -291q-4 -28 -4 -54q0 -48 17 -63t54 -15q44 0 81.5 33t59.5 95t22 145q0 148 -89 237.5t-281 89.5q-121 0 -217 -47.5t-152 -143t-56 -231.5q0 -182 111 -275t304 -93q218 0 335 69z
M598.5 521.5q-25.5 9.5 -62.5 9.5q-75 0 -121.5 -59.5t-46.5 -169.5q0 -71 29.5 -108.5t81.5 -37.5q56 0 94.5 39t47.5 108l24 190q-21 19 -46.5 28.5z" />
    <glyph glyph-name="caron.alt" horiz-adv-x="241" 
d="M167 746.5q16 -20.5 16 -54.5q0 -39 -24.5 -61t-70.5 -23l-2 23q37 1 53.5 15.5t16.5 42.5q0 14 -6 26q-6 -22 -34 -22q-18 0 -28 9.5t-10 27.5q0 17 11 27t32 10q30 0 46 -20.5z" />
    <glyph glyph-name="acute.case" horiz-adv-x="332" 
d="M84 752l101 104h82l-117 -104h-66z" />
    <glyph glyph-name="breve.case" horiz-adv-x="437" 
d="M318 777.5q-33 -29.5 -100 -29.5q-65 0 -98.5 29.5t-33.5 85.5h39q0 -34 24 -53.5t69 -19.5q46 0 70.5 19.5t24.5 53.5h38q0 -56 -33 -85.5z" />
    <glyph glyph-name="caron.case" horiz-adv-x="436" 
d="M258 757h-81l-98 104h57l82 -73l81 73h58z" />
    <glyph glyph-name="circumflex.case" horiz-adv-x="449" 
d="M223 827l-80 -73h-58l99 104h81l98 -104h-58z" />
    <glyph glyph-name="dieresis.case" horiz-adv-x="447" 
d="M160 833q11 -10 11 -29q0 -17 -11 -27t-32 -10q-20 0 -31 10t-11 27q0 19 11 29t31 10q21 0 32 -10zM349 833q11 -10 11 -29q0 -17 -11 -27t-32 -10q-19 0 -30 10t-11 27q0 19 10.5 29t30.5 10q21 0 32 -10z" />
    <glyph glyph-name="dotaccent.case" horiz-adv-x="263" 
d="M165 833q12 -10 12 -28q0 -17 -12 -26.5t-34 -9.5q-21 0 -33 9.5t-12 26.5q0 18 12 28t33 10q22 0 34 -10z" />
    <glyph glyph-name="grave.case" horiz-adv-x="335" 
d="M186 752l-110 107h78l94 -107h-62z" />
    <glyph glyph-name="hungarumlaut.case" horiz-adv-x="466" 
d="M81 752l75 109h75l-93 -109h-57zM211 752l111 109h77l-126 -109h-62z" />
    <glyph glyph-name="macron.case" horiz-adv-x="453" 
d="M373 772h-292v47h292v-47z" />
    <glyph glyph-name="ring.case" horiz-adv-x="394" 
d="M279.5 841q26.5 -14 26.5 -42q0 -58 -108 -58q-110 0 -110 58q0 56 110 56q55 0 81.5 -14zM154 828q-14 -9 -14 -29t14 -29.5t43 -9.5t43 9.5t14 29.5t-14 29t-43 9t-43 -9z" />
    <glyph glyph-name="tilde.case" horiz-adv-x="491" 
d="M384 773q-21 -24 -61 -24q-20 0 -40.5 7.5t-51.5 21.5q-24 11 -39.5 17t-27.5 6q-46 0 -46 -52h-32q0 46 20.5 70.5t59.5 24.5q20 0 39.5 -6.5t54.5 -21.5q25 -12 40.5 -17.5t28.5 -5.5q45 0 45 50h31q0 -46 -21 -70z" />
    <glyph glyph-name="mail" horiz-adv-x="1338" 
d="M1139.5 674.5q25.5 -25.5 25.5 -70.5v-508q0 -45 -25.5 -70.5t-69.5 -25.5h-802q-44 0 -70 25.5t-26 70.5v508q0 45 26 70.5t70 25.5h802q44 0 69.5 -25.5zM228 646.5q-17 -17.5 -17 -46.5v-53l393 -238q32 -20 65 -20q31 0 63 20l396 239v52q0 29 -17 46.5t-45 17.5
h-792q-29 0 -46 -17.5zM829 327l297 -179l2 363zM211 148l303 175l-303 186v-361zM1109.5 54q16.5 17 16.5 46v11l-328 197l-43 -26q-43 -26 -86 -26q-45 0 -88 26l-35 22l-335 -194v-10q0 -29 17 -46t46 -17h790q29 0 45.5 17z" />
    <glyph glyph-name="email" horiz-adv-x="1338" 
d="M1142.5 642q22.5 -23 22.5 -62v-496q0 -39 -22.5 -61.5t-61.5 -22.5h-825q-38 0 -61 22.5t-23 61.5v496q0 39 23 62t61 23h182q32 65 97 99t151 34q95 0 151.5 -35.5t76.5 -97.5h167q39 0 61.5 -23zM515.5 710q-65.5 -58 -65.5 -167q0 -112 60 -165t165 -53q102 0 213 54
l240 116v74q0 28 -15.5 43.5t-43.5 15.5h-146q2 -24 2 -37q0 -50 -18.5 -87.5t-49.5 -57.5t-68 -20q-30 0 -45.5 13.5t-17.5 44.5q-13 -28 -36.5 -43t-51.5 -15q-37 0 -59.5 25.5t-22.5 74.5q0 73 35 113.5t88 40.5q47 0 71 -26l10 22l23 -3l-20 -156q-2 -12 -2 -29
q0 -25 9 -32.5t30 -7.5q36 0 62 39.5t26 103.5q0 81 -48.5 129t-153.5 48t-170.5 -58zM684 654q-41 0 -66.5 -31.5t-25.5 -90.5q0 -37 16 -57t44 -20q29 0 49 18t27 51v3l14 106q-20 21 -58 21zM225.5 612.5q-15.5 -15.5 -15.5 -43.5v-426l317 183q-55 28 -85 82t-30 135
q0 48 12 85h-155q-28 0 -43.5 -15.5zM829 322l297 -179l2 319l-232 -111q-26 -13 -67 -29zM1110.5 52q15.5 16 15.5 43v11l-340 203q-54 -14 -111 -14q-60 0 -109 15l-356 -205v-11q0 -27 16 -42.5t43 -15.5h798q28 0 43.5 16z" />
    </font>
</defs>
</svg>
