<?xml version="1.0" standalone="no"?>
<!DOCTYPE svg PUBLIC "-//W3C//DTD SVG 1.1//EN" "http://www.w3.org/Graphics/SVG/1.1/DTD/svg11.dtd" >
<svg xmlns="http://www.w3.org/2000/svg" xmlns:xlink="http://www.w3.org/1999/xlink" version="1.1">
<metadata>
Created by FontForge 20170731 at Thu Dec  4 19:29:13 2014
 By Aleksey,,,
Copyright (c) 2014 by Sascha Timplan. All rights reserved.
</metadata>
<defs>
<font id="Stereotesque-Black" horiz-adv-x="658" >
  <font-face 
    font-family="Stereotesque-Black"
    font-weight="400"
    font-stretch="normal"
    units-per-em="1000"
    panose-1="0 0 10 0 0 0 0 0 0 0"
    ascent="777"
    descent="-223"
    x-height="520"
    cap-height="700"
    bbox="-150 -222 2257 935"
    underline-thickness="50"
    underline-position="-150"
    unicode-range="U+0020-FB02"
  />
<missing-glyph horiz-adv-x="600" 
 />
    <glyph glyph-name="fi" unicode="fi" horiz-adv-x="636" 
d="M591 0h-210v395h-123v-395h-200v395h-48v125h48v13q0 212 292 212q69 0 130 -15t108 -39l-84 -152q-39 35 -75 54t-79 19q-45 0 -68.5 -20.5t-23.5 -58.5v-13h333v-520z" />
    <glyph glyph-name="fl" unicode="fl" horiz-adv-x="662" 
d="M600 -10.5q-25 -4.5 -63 -4.5q-77 0 -114 38.5t-37 118.5v449q-21 41 -61 41q-67 0 -67 -80v-32h84l-8 -125h-76v-395h-200v395h-48v125h48v13q0 106 69 159t209 53q124 0 250 -45v-546q0 -27 5.5 -38.5t17.5 -11.5q11 0 22 7l26 -104q-32 -13 -57 -17.5z" />
    <glyph glyph-name="f_f" unicode="ff" horiz-adv-x="692" 
d="M769 730l-47 -139q-23 41 -65 41q-26 0 -39.5 -20.5t-13.5 -59.5v-32h84l-8 -125h-76v-395h-200v395h-146v-395h-200v395h-48v125h48v13q0 212 254 212q59 0 111 -15l-47 -139q-23 41 -65 41q-26 0 -39.5 -20.5t-13.5 -59.5v-32h146v13q0 212 254 212q58 0 111 -15z" />
    <glyph glyph-name="f_f_i" unicode="ffi" horiz-adv-x="982" 
d="M937 0h-210v395h-123v-395h-200v395h-146v-395h-200v395h-48v125h48v13q0 212 254 212q59 0 111 -15l-47 -139q-23 41 -65 41q-26 0 -39.5 -20.5t-13.5 -59.5v-32h146v13q0 212 292 212q69 0 130 -15t108 -39l-84 -152q-39 35 -75 54t-79 19q-45 0 -68.5 -20.5
t-23.5 -58.5v-13h333v-520z" />
    <glyph glyph-name="f_f_l" unicode="ffl" horiz-adv-x="1008" 
d="M946 -10.5q-25 -4.5 -63 -4.5q-77 0 -114 38.5t-37 118.5v449q-21 41 -61 41q-67 0 -67 -80v-32h84l-8 -125h-76v-395h-200v395h-146v-395h-200v395h-48v125h48v13q0 212 254 212q59 0 111 -15l-47 -139q-23 41 -65 41q-26 0 -39.5 -20.5t-13.5 -59.5v-32h146v13
q0 106 69 159t209 53q124 0 250 -45v-546q0 -27 5.5 -38.5t17.5 -11.5q11 0 22 7l26 -104q-32 -13 -57 -17.5z" />
    <glyph glyph-name=".notdef" horiz-adv-x="600" 
 />
    <glyph glyph-name=".null" horiz-adv-x="0" 
 />
    <glyph glyph-name="nonmarkingreturn" horiz-adv-x="333" 
 />
    <glyph glyph-name="space" unicode=" " horiz-adv-x="161" 
 />
    <glyph glyph-name="exclam" unicode="!" horiz-adv-x="308" 
d="M260 658l-17 -418h-178l-17 418v42h212v-42zM230.5 174q27.5 -27 27.5 -76t-27.5 -76t-76.5 -27t-76.5 27t-27.5 76t27.5 76t76.5 27t76.5 -27z" />
    <glyph glyph-name="quotedbl" unicode="&#x22;" horiz-adv-x="496" 
d="M212 372h-162l-20 328h202zM446 372h-162l-20 328h202z" />
    <glyph glyph-name="numbersign" unicode="#" horiz-adv-x="930" 
d="M729 201h131v-180h-159l-31 -201h-214l31 201h-116l-31 -201h-214l31 201h-107v180h135l18 121h-133v180h161l35 228h214l-35 -228h116l35 228h214l-35 -228h105v-180h-133zM418 322l-19 -121h116l19 121h-116z" />
    <glyph glyph-name="dollar" unicode="$" horiz-adv-x="612" 
d="M553 74q-49 -57 -140 -78v-126h-200v121q-127 16 -208 77l108 173q37 -35 90.5 -62t117.5 -27q44 0 60 7t16 21q0 17 -21.5 25t-70.5 16q-77 14 -130.5 33.5t-94 71t-40.5 144.5q0 86 45.5 145.5t127.5 84.5v120h200v-114q75 -18 116.5 -63.5t41.5 -103.5q0 -43 -14 -76
h-188q7 19 7 39q0 24 -17 34.5t-52 10.5q-32 0 -49 -13t-17 -35q0 -24 16.5 -38t41.5 -20.5t69 -12.5q72 -10 119 -26t81 -59.5t34 -125.5q0 -86 -49 -143z" />
    <glyph glyph-name="percent" unicode="%" horiz-adv-x="1102" 
d="M440 665.5q55 -49.5 55 -137.5t-55 -137.5t-152 -49.5q-98 0 -153 49.5t-55 137.5t55 137.5t153 49.5q97 0 152 -49.5zM427 0h-222l500 700h222zM240 528q0 -68 48 -68q47 0 47 68t-47 68q-48 0 -48 -68zM997 309.5q55 -49.5 55 -137.5t-55 -137.5t-152 -49.5
q-98 0 -153 49.5t-55 137.5t55 137.5t153 49.5q97 0 152 -49.5zM797 172q0 -68 48 -68q47 0 47 68t-47 68q-48 0 -48 -68z" />
    <glyph glyph-name="ampersand" unicode="&#x26;" horiz-adv-x="713" 
d="M428 33q-75 -48 -164 -48q-120 0 -179.5 54.5t-59.5 144.5q0 72 40.5 122.5t118.5 88.5q-11 49 -11 94q0 109 56 167.5t163 58.5q108 0 160.5 -48t52.5 -138q0 -33 -8 -59h-181q6 24 6 48q0 38 -31 38q-20 0 -29.5 -14.5t-9.5 -39.5q0 -80 20.5 -142t63.5 -109
q33 70 53 171l174 -34q-54 -140 -109 -224q60 -30 149 -55l-97 -183q-88 34 -178 107zM218.5 149.5q21.5 -23.5 55.5 -23.5q25 0 49 8q-61 70 -98 145q-28 -30 -28 -68t21.5 -61.5z" />
    <glyph glyph-name="quotesingle" unicode="'" horiz-adv-x="262" 
d="M212 372h-162l-20 328h202z" />
    <glyph glyph-name="parenleft" unicode="(" horiz-adv-x="420" 
d="M318.5 560.5q-24.5 -19.5 -36.5 -84t-12 -199.5q0 -133 12 -196t36.5 -82t71.5 -19v-160q-113 0 -187.5 42.5t-113.5 143t-39 271.5q0 170 39 269.5t113.5 141.5t187.5 42v-150q-47 0 -71.5 -19.5z" />
    <glyph glyph-name="parenright" unicode=")" horiz-adv-x="420" 
d="M101.5 -10.5q24.5 19.5 36.5 84t12 199.5q0 133 -12 196t-36.5 82t-71.5 19v160q113 0 187.5 -42.5t113.5 -143t39 -271.5q0 -170 -39 -269.5t-113.5 -141.5t-187.5 -42v150q47 0 71.5 19.5z" />
    <glyph glyph-name="asterisk" unicode="*" horiz-adv-x="368" 
d="M190 612h-12l-59 132l12 15h106l12 -15zM173 608l-8 -10l-142 14l-3 17l53 93l16 3zM345 612l-142 -14l-8 10l84 117l16 -3l53 -93zM89 463l-16 3l-53 92l3 18l142 15l8 -12zM348 558l-53 -92l-16 -3l-84 116l8 12l142 -15zM237 430h-106l-12 14l59 133h12l59 -133z" />
    <glyph glyph-name="plus" unicode="+" horiz-adv-x="550" 
d="M349 281v-123h-148v123h-121v144h121v123h148v-123h121v-144h-121z" />
    <glyph glyph-name="comma" unicode="," horiz-adv-x="282" 
d="M258 47q0 -91 -49 -135.5t-153 -44.5l-7 59q75 0 104.5 21.5t31.5 63.5q-22 -16 -54 -16q-49 0 -75 27t-26 76t27.5 76t76.5 27q124 0 124 -154z" />
    <glyph glyph-name="hyphen" unicode="-" horiz-adv-x="475" 
d="M60 184v180h355v-180h-355z" />
    <glyph glyph-name="period" unicode="." horiz-adv-x="268" 
d="M210.5 174q27.5 -27 27.5 -76t-27.5 -76t-76.5 -27t-76.5 27t-27.5 76t27.5 76t76.5 27t76.5 -27z" />
    <glyph glyph-name="slash" unicode="/" horiz-adv-x="434" 
d="M40 -180l140 910h214l-140 -910h-214z" />
    <glyph glyph-name="zero" unicode="0" horiz-adv-x="616" 
d="M522 621q74 -94 74 -269q0 -177 -74 -272t-212 -95q-140 0 -215 95t-75 272q0 175 75 269t215 94q138 0 212 -94zM252.5 499q-17.5 -46 -17.5 -147q0 -104 17 -150.5t57 -46.5q38 0 55 46.5t17 150.5q0 101 -17 147t-55 46q-39 0 -56.5 -46z" />
    <glyph glyph-name="one" unicode="1" horiz-adv-x="389" 
d="M339 0h-220v425h-109v160q72 0 122 31.5t67 83.5h140v-700z" />
    <glyph glyph-name="two" unicode="2" horiz-adv-x="524" 
d="M509 0h-500q-4 60 -4 87q0 59 24 103.5t58 75t87 67.5q43 31 67.5 51.5t41 47t16.5 58.5q0 34 -10.5 49t-30.5 15q-22 0 -33 -14.5t-11 -39.5q0 -37 10 -58l-184 -14q-23 28 -23 90q0 90 66 143.5t182 53.5q124 0 183.5 -56t59.5 -158q0 -55 -24.5 -99t-59 -75t-88.5 -70
q-37 -27 -57 -43t-35 -34h265v-180z" />
    <glyph glyph-name="three" unicode="3" horiz-adv-x="538" 
d="M488.5 309q34.5 -43 34.5 -115q0 -94 -64 -151.5t-188 -57.5q-135 0 -198 58t-63 174l198 22q3 -52 17.5 -71t39.5 -19q26 0 39 18t13 51q0 42 -28.5 61t-94.5 19l-13 106q52 8 79 20t37.5 29.5t10.5 44.5q0 30 -10.5 43.5t-30.5 13.5q-39 0 -39 -39q0 -31 5 -49
l-187 -17q-12 34 -12 83q0 84 63.5 133t172.5 49q121 0 180.5 -50t59.5 -137q0 -52 -30 -93.5t-81 -64.5q55 -18 89.5 -61z" />
    <glyph glyph-name="four" unicode="4" horiz-adv-x="594" 
d="M513 118v-118h-210v118h-298v118l212 464h296v-422h71v-160h-71zM303 535l-98 -257h98v257z" />
    <glyph glyph-name="five" unicode="5" horiz-adv-x="544" 
d="M479 401q55 -55 55 -165q0 -115 -68 -183t-201 -68q-127 0 -191 56t-64 159l198 22q3 -37 20.5 -54.5t43.5 -17.5q29 0 44.5 20.5t15.5 59.5q0 43 -14.5 64t-43.5 21q-42 0 -63 -44l-190 14l31 415h446l3 -170h-286l-11 -126q23 24 57.5 38t76.5 14q86 0 141 -55z" />
    <glyph glyph-name="six" unicode="6" horiz-adv-x="586" 
d="M518 387.5q53 -57.5 53 -152.5q0 -76 -32.5 -132.5t-92.5 -87t-141 -30.5q-119 0 -192 71q-93 93 -93 288q0 179 78.5 275t225.5 96q103 0 164.5 -45t61.5 -130q0 -28 -7 -51h-180q3 13 3 28q0 20 -11.5 32t-35.5 12q-42 0 -65 -41t-27 -130q50 55 143 55q95 0 148 -57.5
zM352 172q16 20 16 57t-16.5 57t-46.5 20q-28 0 -43.5 -20t-15.5 -57t16 -57t45 -20t45 20z" />
    <glyph glyph-name="seven" unicode="7" horiz-adv-x="506" 
d="M491 551q-85 -90 -130.5 -233t-45.5 -318h-235q0 147 52 284.5t144 235.5h-271v180h486v-149z" />
    <glyph glyph-name="eight" unicode="8" horiz-adv-x="584" 
d="M530 296q34 -45 34 -112q0 -95 -71 -147t-201 -52t-201 52t-71 147q0 67 33.5 112t97.5 63q-54 18 -83 59t-29 102q0 92 66.5 143.5t186.5 51.5q121 0 187 -51t66 -144q0 -60 -29 -101.5t-83 -59.5q63 -18 97 -63zM248.5 559q-15.5 -20 -15.5 -59t15.5 -59t43.5 -20
t43.5 20t15.5 59t-15.5 59t-43.5 20t-43.5 -20zM343 140q18 21 18 63t-18 63t-51 21t-51 -21t-18 -63t18 -63t51 -21t51 21z" />
    <glyph glyph-name="nine" unicode="9" horiz-adv-x="586" 
d="M566 357q0 -179 -81.5 -275.5t-233.5 -96.5q-74 0 -136.5 21.5t-107.5 60.5l118 161q51 -70 127 -70q55 0 79 35t28 123q-22 -33 -58 -49.5t-81 -16.5q-97 0 -151 59t-54 157q0 76 32.5 132t92.5 86.5t141 30.5q133 0 206 -87q79 -91 79 -271zM331 429.5q16 19.5 16 53.5
q0 37 -16 58t-45 21q-32 0 -49.5 -20.5t-17.5 -57.5q0 -35 17.5 -54.5t49.5 -19.5q29 0 45 19.5z" />
    <glyph glyph-name="colon" unicode=":" horiz-adv-x="328" 
d="M240.5 174q27.5 -27 27.5 -76t-27.5 -76t-76.5 -27t-76.5 27t-27.5 76t27.5 76t76.5 27t76.5 -27zM240.5 500q27.5 -27 27.5 -76t-27.5 -76t-76.5 -27t-76.5 27t-27.5 76t27.5 76t76.5 27t76.5 -27z" />
    <glyph glyph-name="semicolon" unicode=";" horiz-adv-x="331" 
d="M277 47q0 -91 -46.5 -135.5t-145.5 -44.5l-6 59q71 0 99 21.5t30 63.5q-21 -16 -52 -16q-46 0 -71 27t-25 76t26.5 76t72.5 27q118 0 118 -154zM242.5 500q27.5 -27 27.5 -76t-27.5 -76t-76.5 -27t-76.5 27t-27.5 76t27.5 76t76.5 27t76.5 -27z" />
    <glyph glyph-name="less" unicode="&#x3c;" horiz-adv-x="550" 
d="M75 281l390 -155v181l-230 46l230 46v181l-390 -155v-144z" />
    <glyph glyph-name="equal" unicode="=" horiz-adv-x="550" 
d="M100 378v150h350v-150h-350zM100 178v150h350v-150h-350z" />
    <glyph glyph-name="greater" unicode="&#x3e;" horiz-adv-x="550" 
d="M475 281l-390 -155v181l230 46l-230 46v181l390 -155v-144z" />
    <glyph glyph-name="question" unicode="?" horiz-adv-x="531" 
d="M456.5 660q59.5 -55 59.5 -153q0 -36 -14 -63t-34 -46t-52 -43q-42 -31 -63 -55.5t-23 -59.5h-146q-1 5 -3 19.5t-2 32.5q0 38 17 62.5t50 53.5q29 24 43.5 43.5t14.5 47.5q0 55 -40 55q-22 0 -33.5 -14.5t-11.5 -39.5q0 -29 10 -58l-185 -14q-8 16 -13.5 42t-5.5 48
q0 90 66 143.5t182 53.5q124 0 183.5 -55zM336.5 174q27.5 -27 27.5 -76t-27.5 -76t-76.5 -27t-76.5 27t-27.5 76t27.5 76t76.5 27t76.5 -27z" />
    <glyph glyph-name="at" unicode="@" horiz-adv-x="1026" 
d="M758 -64q80 21 142 60l49 -115q-78 -40 -173 -63t-231 -23q-257 0 -393.5 103t-136.5 296q0 151 69.5 257.5t189.5 160.5t271 54q153 0 258 -47t156.5 -129t51.5 -186q0 -96 -36 -168t-103 -111.5t-158 -39.5q-69 0 -109.5 27.5t-54.5 77.5q-26 -51 -66 -77.5t-90 -26.5
q-73 0 -116 52.5t-43 148.5q0 93 31.5 160t86.5 102t127 35q92 0 141 -59l34 43l118 -18l-40 -316q-1 -5 -1 -14q0 -21 9 -28t28 -7q22 -1 41 30t30 82.5t11 107.5q0 111 -73 176t-236 65q-106 0 -190 -38.5t-132 -117.5t-48 -196q0 -140 86 -209.5t282 -69.5q138 0 218 21z
M530 162q14 20 19 64l14 115q-17 10 -44 10q-46 0 -65.5 -29.5t-19.5 -96.5q0 -40 13.5 -61.5t38.5 -21.5q30 0 44 20z" />
    <glyph glyph-name="A" unicode="A" horiz-adv-x="654" 
d="M210 121l-29 -121h-176l207 700h225l212 -700h-228l-30 121h-181zM300 492l-54 -224h109z" />
    <glyph glyph-name="B" unicode="B" horiz-adv-x="631" 
d="M573.5 301q32.5 -41 32.5 -105q0 -89 -54 -142.5t-154 -53.5h-363v700h290q126 0 192.5 -46.5t66.5 -135.5q0 -119 -115 -157q72 -19 104.5 -60zM245 426h67q34 0 49.5 15t15.5 45q0 28 -15.5 42.5t-49.5 14.5h-67v-117zM370.5 163.5q16.5 17.5 16.5 53.5q0 34 -15 50
t-48 16h-79v-137h73q36 0 52.5 17.5z" />
    <glyph glyph-name="C" unicode="C" horiz-adv-x="595" 
d="M448 690.5q53 -24.5 83.5 -72.5t30.5 -117q0 -50 -14 -87h-178q6 26 6 65q0 71 -52 71q-43 0 -66 -50.5t-23 -149.5q0 -174 130 -174q42 0 76 12t71 35l68 -181q-100 -57 -243 -57q-161 0 -241.5 94t-80.5 273q0 114 37.5 195.5t108.5 124.5t169 43q65 0 118 -24.5z" />
    <glyph glyph-name="D" unicode="D" horiz-adv-x="627" 
d="M525 609.5q87 -90.5 87 -259.5t-85.5 -259.5t-243.5 -90.5h-248v700h240q163 0 250 -90.5zM367.5 209.5q30.5 43.5 30.5 140.5t-29 140.5t-93 43.5h-31v-368h24q68 0 98.5 43.5z" />
    <glyph glyph-name="E" unicode="E" horiz-adv-x="551" 
d="M531 0h-496v700h476v-167h-266v-101h235v-152h-235v-113h286v-167z" />
    <glyph glyph-name="F" unicode="F" horiz-adv-x="521" 
d="M245 412h225v-152h-225v-260h-210v700h466v-167h-256v-121z" />
    <glyph glyph-name="G" unicode="G" horiz-adv-x="643" 
d="M613 0h-104l-28 76q-59 -91 -189 -91q-135 0 -206 92t-71 262q0 184 82 280t241 96q71 0 130 -24t94 -71t35 -113q0 -15 -3.5 -32.5t-9.5 -29.5h-183q5 17 5 40q0 31 -18.5 48t-51.5 17q-58 0 -82.5 -49t-24.5 -162q0 -101 24 -146.5t77 -45.5q39 0 61 23t29 73h-104v148
h297v-391z" />
    <glyph glyph-name="H" unicode="H" horiz-adv-x="655" 
d="M620 0h-210v264h-165v-264h-210v700h210v-256h165v256h210v-700z" />
    <glyph glyph-name="I" unicode="I" horiz-adv-x="280" 
d="M35 0v700h210v-700h-210z" />
    <glyph glyph-name="J" unicode="J" horiz-adv-x="408" 
d="M317 43.5q-61 -58.5 -176 -58.5q-80 0 -149 23l54 174q20 -16 35 -22.5t35 -6.5q29 0 40.5 19t11.5 71v457h210v-483q0 -115 -61 -173.5z" />
    <glyph glyph-name="K" unicode="K" horiz-adv-x="686" 
d="M245 157v-157h-210v700h210v-286l193 286h220l-209 -275l217 -425h-254l-105 238z" />
    <glyph glyph-name="L" unicode="L" horiz-adv-x="476" 
d="M466 0h-431v700h210v-520h221v-180z" />
    <glyph glyph-name="M" unicode="M" horiz-adv-x="825" 
d="M790 0h-205l3 473l-120 -473h-140l-122 464l4 -464h-175v700h296l94 -353l83 353h282v-700z" />
    <glyph glyph-name="N" unicode="N" horiz-adv-x="635" 
d="M600 0h-174l-207 340v-340h-184v700h204l177 -300v300h184v-700z" />
    <glyph glyph-name="O" unicode="O" horiz-adv-x="650" 
d="M555 621q80 -94 80 -269q0 -177 -80 -272t-230 -95q-149 0 -229.5 95t-80.5 272q0 175 80.5 269t229.5 94q150 0 230 -94zM256.5 499q-21.5 -46 -21.5 -147q0 -103 21.5 -150t68.5 -47t68.5 47t21.5 150q0 101 -21.5 147t-68.5 46t-68.5 -46z" />
    <glyph glyph-name="P" unicode="P" horiz-adv-x="605" 
d="M521.5 640q68.5 -60 68.5 -175q0 -116 -66 -175.5t-190 -59.5h-89v-230h-210v700h291q127 0 195.5 -60zM364.5 402.5q17.5 18.5 17.5 59.5q0 44 -17.5 64t-54.5 20h-65v-162h65q37 0 54.5 18.5z" />
    <glyph glyph-name="Q" unicode="Q" horiz-adv-x="650" 
d="M589.5 131.5q-45.5 -87.5 -133.5 -122.5q81 -21 179 -28l-36 -181q-100 12 -189 60t-128 127q-129 14 -198 108t-69 257q0 175 80.5 269t229.5 94q150 0 230 -94t80 -269q0 -133 -45.5 -220.5zM256.5 202q21.5 -47 68.5 -47t68.5 47t21.5 150q0 101 -21.5 147t-68.5 46
t-68.5 -46t-21.5 -147q0 -103 21.5 -150z" />
    <glyph glyph-name="R" unicode="R" horiz-adv-x="643" 
d="M245 245v-245h-210v700h309q127 0 195.5 -55.5t68.5 -161.5q0 -140 -109 -187l122 -296h-242l-78 245h-56zM328 397q36 0 54 17.5t18 55.5q0 40 -18 59t-54 19h-83v-151h83z" />
    <glyph glyph-name="S" unicode="S" horiz-adv-x="612" 
d="M459 691.5q55 -23.5 83.5 -64t28.5 -88.5q0 -43 -14 -76h-188q7 19 7 39q0 24 -17 34.5t-52 10.5q-32 0 -49 -13t-17 -35q0 -24 16.5 -38t41.5 -20.5t69 -12.5q72 -10 119 -26t81 -59.5t34 -125.5q0 -109 -78 -170.5t-215 -61.5q-195 0 -304 83l108 173q37 -35 90.5 -62
t117.5 -27q44 0 60 7t16 21q0 17 -21.5 25t-70.5 16q-77 14 -130.5 33.5t-94 71t-40.5 144.5q0 75 35 130.5t100 85t154 29.5q75 0 130 -23.5z" />
    <glyph glyph-name="T" unicode="T" horiz-adv-x="565" 
d="M388 520v-520h-210v520h-168v180h545v-180h-167z" />
    <glyph glyph-name="U" unicode="U" horiz-adv-x="599" 
d="M96 51q-66 58 -66 182v467h209v-452q0 -44 18.5 -64.5t57.5 -20.5t56 20t17 65v452h181v-467q0 -116 -72 -178t-206 -62q-129 0 -195 58z" />
    <glyph glyph-name="V" unicode="V" horiz-adv-x="654" 
d="M442 0h-225l-212 700h252l101 -454l99 454h192z" />
    <glyph glyph-name="W" unicode="W" horiz-adv-x="901" 
d="M730 0h-187l-91 387l-90 -387h-187l-170 700h213l76 -383l85 383h192l81 -375l78 375h166z" />
    <glyph glyph-name="X" unicode="X" horiz-adv-x="688" 
d="M316 197l-103 -197h-203l195 346l-191 354h254l95 -185l97 185h196l-182 -331l204 -369h-262z" />
    <glyph glyph-name="Y" unicode="Y" horiz-adv-x="667" 
d="M443 0h-210v253l-228 447h263l95 -244l102 244h197l-219 -440v-260z" />
    <glyph glyph-name="Z" unicode="Z" horiz-adv-x="559" 
d="M549 0h-539v136l255 390h-240v174h509v-145l-248 -381h263v-174z" />
    <glyph glyph-name="bracketleft" unicode="[" horiz-adv-x="430" 
d="M270 580v-600h130v-160h-340v910h340v-150h-130z" />
    <glyph glyph-name="backslash" unicode="\" horiz-adv-x="434" 
d="M394 -180l-140 910h-214l140 -910h214z" />
    <glyph glyph-name="bracketright" unicode="]" horiz-adv-x="430" 
d="M160 -30v600h-130v160h340v-910h-340v150h130z" />
    <glyph glyph-name="asciicircum" unicode="^" horiz-adv-x="554" 
d="M277 404l-46 -146h-181l155 290h144l155 -290h-181z" />
    <glyph glyph-name="underscore" unicode="_" horiz-adv-x="355" 
d="M0 -206v130h355v-130h-355z" />
    <glyph glyph-name="grave" unicode="`" horiz-adv-x="373" 
d="M153 561l-113 169h232l61 -169h-180z" />
    <glyph glyph-name="a" unicode="a" horiz-adv-x="571" 
d="M460 -8q-49 0 -80 18t-46 57q-25 -38 -64.5 -60t-93.5 -22q-74 0 -111 39t-40 106q0 55 25 92t89 58t179 23v51q0 48 -9 66.5t-30 18.5q-41 0 -41 -74q0 -10 2 -28l-180 -10q-6 34 -6 60q0 67 52.5 107.5t175.5 40.5q91 0 142.5 -22t72.5 -66.5t21 -118.5v-202
q0 -25 19 -25q14 0 17 1l7 -82q-40 -28 -101 -28zM305 133q13 22 13 85v18q-48 -4 -69.5 -24.5t-21.5 -52.5q0 -48 38 -48q27 0 40 22z" />
    <glyph glyph-name="b" unicode="b" horiz-adv-x="585" 
d="M519.5 472.5q45.5 -61.5 45.5 -208.5q0 -144 -69 -211.5t-210 -67.5q-70 0 -135 13t-111 33v699h200v-288q46 92 150 92q84 0 129.5 -61.5zM348 151.5q17 28.5 17 99.5q0 51 -7.5 78t-21 36.5t-35.5 9.5q-61 0 -61 -102v-145q19 -5 48 -5q43 0 60 28.5z" />
    <glyph glyph-name="c" unicode="c" horiz-adv-x="509" 
d="M395 511.5q46 -23.5 66 -60t20 -76.5q0 -46 -10 -76l-171 9q5 27 5 60q0 19 -6.5 26.5t-22.5 7.5q-26 0 -41 -32t-15 -99q0 -69 25 -101t77 -32q35 0 67.5 13.5t49.5 29.5l55 -138q-32 -25 -83.5 -41.5t-122.5 -16.5q-127 0 -197.5 65.5t-70.5 202.5t67.5 209.5
t188.5 72.5q73 0 119 -23.5z" />
    <glyph glyph-name="d" unicode="d" horiz-adv-x="593" 
d="M553 0h-137l-42 106q-21 -58 -61 -89.5t-95 -31.5q-89 0 -143.5 70t-54.5 198q0 136 56.5 209t151.5 73q76 0 125 -34v229h200v-730zM339.5 168.5q13.5 23.5 13.5 74.5v135q-25 14 -54 14q-41 0 -60 -27t-19 -93q0 -61 19.5 -94t53.5 -33q33 0 46.5 23.5z" />
    <glyph glyph-name="e" unicode="e" horiz-adv-x="514" 
d="M288 -15q-268 0 -268 275q0 134 71 204.5t192 70.5q56 0 101.5 -22t72.5 -66.5t27 -108.5q0 -32 -5 -63.5t-16 -51.5h-241q6 -46 32.5 -68.5t66.5 -22.5q36 0 57.5 11t51.5 37l64 -141q-92 -54 -206 -54zM223 318h82q5 19 5 56q0 23 -9 37t-27 14q-42 0 -51 -107z" />
    <glyph glyph-name="f" unicode="f" horiz-adv-x="346" 
d="M423 730l-47 -139q-23 41 -65 41q-26 0 -39.5 -20.5t-13.5 -59.5v-32h84l-8 -125h-76v-395h-200v395h-48v125h48v13q0 212 254 212q59 0 111 -15z" />
    <glyph glyph-name="g" unicode="g" horiz-adv-x="598" 
d="M558 93q0 -148 -78 -228t-224 -80q-134 0 -241 38l84 176q29 -31 63.5 -49t72.5 -18q67 0 95 32t28 109q-47 -73 -135 -73q-89 0 -143.5 66.5t-54.5 186.5q0 136 60 209t162 73q53 0 91.5 -17.5t68.5 -52.5l36 55h115v-427zM344.5 172.5q13.5 22.5 13.5 70.5v135
q-25 14 -54 14q-41 0 -60 -27t-19 -93q0 -59 19.5 -90.5t53.5 -31.5q33 0 46.5 22.5z" />
    <glyph glyph-name="h" unicode="h" horiz-adv-x="593" 
d="M519.5 483.5q38.5 -51.5 38.5 -169.5v-314h-200v299q0 71 -54 71q-59 0 -59 -76v-294h-200v730h200v-294q43 99 155 99q81 0 119.5 -51.5z" />
    <glyph glyph-name="i" unicode="i" horiz-adv-x="300" 
d="M45 0v520h210v-520h-210zM233 724.5q30 -24.5 30 -71.5q0 -46 -30 -70t-85 -24q-54 0 -83 24.5t-29 69.5q0 47 29 71.5t83 24.5q55 0 85 -24.5z" />
    <glyph glyph-name="j" unicode="j" horiz-adv-x="290" 
d="M34 -69.5q11 11.5 11 33.5v556h200v-511q0 -119 -60.5 -171.5t-184.5 -52.5q-23 0 -48.5 4t-45.5 11l49 147q25 -28 50 -28q18 0 29 11.5zM228 724.5q30 -24.5 30 -71.5q0 -46 -30 -70t-85 -24q-54 0 -83 24.5t-29 69.5q0 47 29 71.5t83 24.5q55 0 85 -24.5z" />
    <glyph glyph-name="k" unicode="k" horiz-adv-x="615" 
d="M245 113v-113h-200v730h200v-396l133 186h212l-162 -192l177 -328h-224l-86 172z" />
    <glyph glyph-name="l" unicode="l" horiz-adv-x="316" 
d="M245.5 115.5q5.5 -11.5 17.5 -11.5q11 0 22 7l26 -104q-32 -13 -57 -17.5t-63 -4.5q-77 0 -114 38.5t-37 118.5v588h200v-576q0 -27 5.5 -38.5z" />
    <glyph glyph-name="m" unicode="m" horiz-adv-x="901" 
d="M825.5 480.5q40.5 -54.5 40.5 -176.5v-304h-200v299q0 71 -54 71q-59 0 -59 -76v-294h-200v299q0 71 -54 71q-59 0 -59 -76v-294h-200v520h147l29 -106q22 59 66.5 90t108.5 31q59 0 96.5 -29t53.5 -91q22 58 64 89t99 31q81 0 121.5 -54.5z" />
    <glyph glyph-name="n" unicode="n" horiz-adv-x="588" 
d="M513 485q40 -50 40 -165v-320h-200v299q0 71 -54 71q-59 0 -59 -76v-294h-200v520h147l29 -108q22 59 66.5 91t106.5 32q84 0 124 -50z" />
    <glyph glyph-name="o" unicode="o" horiz-adv-x="577" 
d="M487.5 463.5q69.5 -71.5 69.5 -203.5t-69.5 -203.5t-196.5 -71.5q-129 0 -200 71t-71 202q0 133 71 205t200 72q127 0 196.5 -71.5zM237 370.5q-17 -34.5 -17 -112.5q0 -76 17 -109.5t54 -33.5q35 0 50.5 34t15.5 111t-15.5 111t-50.5 34q-37 0 -54 -34.5z" />
    <glyph glyph-name="p" unicode="p" horiz-adv-x="589" 
d="M524 467.5q45 -67.5 45 -208.5q0 -143 -58 -208.5t-160 -65.5q-64 0 -111 36v-221h-200v720h147l29 -108q19 60 61 91.5t105 31.5q97 0 142 -67.5zM351.5 156q17.5 28 17.5 100q0 64 -15 91.5t-48 27.5q-31 0 -48.5 -19.5t-17.5 -55.5v-163q29 -9 56 -9q38 0 55.5 28z
" />
    <glyph glyph-name="q" unicode="q" horiz-adv-x="593" 
d="M553 -200h-200v262q-46 -77 -135 -77t-143.5 70t-54.5 198q0 136 60 209t162 73q53 0 91.5 -17.5t68.5 -52.5l36 55h115v-720zM339.5 168.5q13.5 23.5 13.5 74.5v135q-25 14 -54 14q-41 0 -60 -27t-19 -93q0 -61 19.5 -94t53.5 -33q33 0 46.5 23.5z" />
    <glyph glyph-name="r" unicode="r" horiz-adv-x="487" 
d="M450.5 498q26.5 -37 26.5 -104q0 -41 -12 -76t-29 -60l-132 13q8 32 8 58q0 41 -30 41q-20 0 -31 -21t-11 -78v-271h-200v520h147l28 -104q20 57 59 88t95 31q55 0 81.5 -37z" />
    <glyph glyph-name="s" unicode="s" horiz-adv-x="503" 
d="M416 497q54 -38 54 -108q0 -27 -5 -52l-153 12q3 18 3 30q0 14 -15.5 23.5t-43.5 9.5q-24 0 -40 -10t-16 -27q0 -24 24.5 -34.5t75.5 -17.5q60 -10 98.5 -23t66.5 -47t28 -97q0 -82 -63 -126.5t-174 -44.5q-76 0 -144.5 19.5t-106.5 46.5l87 139q78 -76 177 -76
q24 0 39 6.5t15 16.5q0 16 -19 22t-61 12q-60 8 -101.5 21t-72.5 50.5t-31 107.5q0 87 57 136t159 49q108 0 162 -38z" />
    <glyph glyph-name="t" unicode="t" horiz-adv-x="409" 
d="M233 -15q-87 0 -126 44t-39 133v233h-58v125h6q28 0 42 3.5t23.5 13.5t23.5 35l28 49h135v-101h126l-3 -125h-123v-225q0 -20 10 -31t29 -11q28 0 49 20l43 -90q-66 -73 -166 -73z" />
    <glyph glyph-name="u" unicode="u" horiz-adv-x="585" 
d="M545 0h-137l-36 120q-21 -63 -64.5 -99t-101.5 -36q-80 0 -125.5 48.5t-45.5 156.5v330h200v-301q0 -34 14.5 -51.5t39.5 -17.5q28 0 42 18t14 62v290h200v-520z" />
    <glyph glyph-name="v" unicode="v" horiz-adv-x="591" 
d="M416 0h-239l-167 520h224l87 -338l85 338h175z" />
    <glyph glyph-name="w" unicode="w" horiz-adv-x="824" 
d="M680 0h-206l-62 257l-57 -257h-208l-132 521h190l70 -287l67 287h160l74 -294l68 294h165z" />
    <glyph glyph-name="x" unicode="x" horiz-adv-x="573" 
d="M259 128l-77 -128h-177l159 253l-154 268h248l55 -106l62 106h178l-147 -233l162 -288h-237z" />
    <glyph glyph-name="y" unicode="y" horiz-adv-x="605" 
d="M428 26q-44 -131 -113.5 -186t-174.5 -55q-47 0 -95 9.5t-88 26.5l91 162q23 -28 51.5 -44t58.5 -16q34 0 54.5 17t33.5 58l1 2h-63l-181 520h220l89 -316l102 316h181z" />
    <glyph glyph-name="z" unicode="z" horiz-adv-x="481" 
d="M461 0h-441v85l181 290h-166v145h410v-95l-179 -280h195v-145z" />
    <glyph glyph-name="braceleft" unicode="{" horiz-adv-x="385" 
d="M287 545q-7 -17 -7 -43q0 -14 2 -34t3 -29q6 -46 6 -67q0 -44 -20.5 -68.5t-75.5 -24.5v-4q70 0 88 -45q8 -17 8 -46q0 -21 -6 -65t-6 -63q0 -36 16.5 -56t59.5 -20v-160q-123 0 -186 27.5t-84 75.5q-12 29 -12 70q0 29 8 81q6 46 6 63q0 33 -15.5 50.5t-56.5 17.5v144
q43 0 59 21q12 15 12 44q0 14 -3 35t-4 30q-9 59 -9 83q0 77 60.5 122.5t224.5 45.5v-150q-51 0 -68 -35z" />
    <glyph glyph-name="bar" unicode="|" horiz-adv-x="410" 
d="M100 -180v910h210v-910h-210z" />
    <glyph glyph-name="braceright" unicode="}" horiz-adv-x="385" 
d="M98 5q7 17 7 43q0 14 -2 34t-3 29q-6 46 -6 67q0 44 20.5 68.5t75.5 24.5v4q-70 0 -88 45q-8 17 -8 46q0 21 6 65t6 63q0 36 -16.5 56t-59.5 20v160q123 0 186 -27.5t84 -75.5q12 -29 12 -70q0 -29 -8 -81q-6 -46 -6 -63q0 -33 15.5 -50.5t56.5 -17.5v-144q-43 0 -59 -21
q-12 -15 -12 -44q0 -14 3 -35t4 -30q9 -58 9 -83q0 -77 -60.5 -122.5t-224.5 -45.5v150q51 0 68 35z" />
    <glyph glyph-name="asciitilde" unicode="~" horiz-adv-x="600" 
d="M367 268q-33 0 -56 7t-47 19q-4 2 -18.5 8t-27.5 6q-18 0 -29 -10t-11 -25h-103q0 186 149 186q35 0 59 -6.5t52 -18.5q12 -5 24 -9t23 -4q20 0 30 9t10 24h103q0 -186 -158 -186z" />
    <glyph glyph-name="exclamdown" unicode="&#xa1;" horiz-adv-x="292" 
d="M69.5 346q-27.5 27 -27.5 76t27.5 76t76.5 27t76.5 -27t27.5 -76t-27.5 -76t-76.5 -27t-76.5 27zM40 -138l17 418h178l17 -418v-42h-212v42z" />
    <glyph glyph-name="cent" unicode="&#xa2;" horiz-adv-x="509" 
d="M373 -8v-122h-200v132q-153 51 -153 251q0 104 40 171.5t113 93.5v132h200v-130q56 -20 82 -59.5t26 -85.5t-10 -76l-171 9q5 27 5 60q0 19 -6.5 26.5t-22.5 7.5q-26 0 -41 -32t-15 -99q0 -69 25 -101t77 -32q35 0 67.5 13.5t49.5 29.5l55 -138q-44 -36 -121 -51z" />
    <glyph glyph-name="sterling" unicode="&#xa3;" horiz-adv-x="620" 
d="M590 0h-575v160q30 0 46 19.5t23 57.5h-44v146h52q3 98 20 167.5t73.5 117t166.5 47.5q58 0 104.5 -23t74 -68t27.5 -108q0 -41 -15 -77h-158q7 24 7 55q0 27 -10.5 41.5t-30.5 14.5q-25 0 -37.5 -17.5t-16 -45t-6.5 -77.5q0 -18 -1 -27h175v-146h-198q-18 -47 -48 -77
h371v-160z" />
    <glyph glyph-name="currency" unicode="&#xa4;" horiz-adv-x="649" 
d="M542 279l86 -78l-148 -149l-94 102q-29 -6 -61 -6q-34 0 -62 6l-94 -101l-149 148l87 81q-13 37 -13 76q0 38 13 77l-86 79l148 149l92 -101q28 7 64 7q33 0 62 -6l93 99l149 -148l-86 -80q13 -37 13 -76q0 -42 -14 -79zM271.5 296.5q20.5 -23.5 53.5 -23.5t53.5 23.5
t20.5 61.5t-20.5 61.5t-53.5 23.5t-53.5 -23.5t-20.5 -61.5t20.5 -61.5z" />
    <glyph glyph-name="yen" unicode="&#xa5;" horiz-adv-x="667" 
d="M605 343v-146h-162v-197h-210v197h-162v146h116l-182 357h263l95 -244l102 244h197l-178 -357h121z" />
    <glyph glyph-name="brokenbar" unicode="&#xa6;" horiz-adv-x="410" 
d="M100 320v410h210v-410h-210zM100 -180v410h210v-410h-210z" />
    <glyph glyph-name="section" unicode="&#xa7;" horiz-adv-x="706" 
d="M611 129q38 -46 38 -123q0 -67 -35 -117t-101.5 -77t-156.5 -27q-195 0 -304 83l108 162q38 -36 91.5 -62.5t120.5 -26.5q39 0 55.5 7.5t16.5 21.5q0 18 -27 26.5t-90 19.5q-90 16 -152 35.5t-108.5 67.5t-46.5 131q0 46 22.5 81.5t60.5 59.5q-46 49 -46 133q0 67 35 117
t101.5 77t156.5 27q195 0 304 -83l-108 -162q-38 36 -91.5 62.5t-120.5 26.5q-39 0 -55.5 -7.5t-16.5 -21.5q0 -18 27 -26.5t90 -19.5q90 -16 152 -35.5t108.5 -67.5t46.5 -131q0 -94 -75 -151zM232 253q20 -14 49.5 -20.5t86.5 -13.5q75 -8 117 -19q9 12 9 37q0 26 -20 40
t-49.5 20.5t-86.5 13.5q-75 8 -117 19q-9 -12 -9 -37q0 -26 20 -40z" />
    <glyph glyph-name="dieresis" unicode="&#xa8;" horiz-adv-x="474" 
d="M199 714.5q27 -23.5 27 -68.5q0 -43 -27 -66t-76 -23t-75 23.5t-26 65.5q0 45 26 68.5t75 23.5t76 -23.5zM425 714.5q27 -23.5 27 -68.5q0 -43 -27 -66t-76 -23t-75 23.5t-26 65.5q0 45 26 68.5t75 23.5t76 -23.5z" />
    <glyph glyph-name="copyright" unicode="&#xa9;" horiz-adv-x="633" 
d="M471.5 807.5q65.5 -32.5 101 -93t35.5 -142.5t-35.5 -142.5t-101 -93.5t-154.5 -33t-155 33t-101.5 93.5t-35.5 142.5t35.5 142.5t101.5 93t155 32.5t154.5 -32.5zM185 703q-46 -46 -46 -131t46.5 -131.5t131.5 -46.5t131 46t46 132t-45.5 131.5t-131.5 45.5t-132 -46z
M392.5 696q29.5 -24 29.5 -69q0 -26 -6 -37h-85q1 4 1 12q0 24 -2.5 32t-15.5 8q-31 0 -31 -72q0 -60 52 -60q33 0 62 15l29 -76q-43 -29 -105 -29q-72 0 -108 39t-36 111q0 71 37.5 110.5t103.5 39.5q45 0 74.5 -24z" />
    <glyph glyph-name="ordfeminine" unicode="&#xaa;" horiz-adv-x="459" 
d="M361 312q-36 0 -59 13t-36 41q-37 -59 -115 -59q-56 0 -83.5 29t-27.5 78q0 41 18 67.5t65 42t130 16.5v36q0 32 -5.5 44.5t-18.5 12.5q-25 0 -25 -52q0 -7 2 -21l-140 -7q-6 26 -6 46q0 49 39.5 78.5t132.5 29.5q68 0 106.5 -16t54.5 -49t16 -87v-142q0 -16 13 -16h12
l5 -64q-29 -21 -78 -21zM245.5 419.5q7.5 14.5 7.5 59.5v9q-29 -3 -42.5 -17t-13.5 -35q0 -31 24 -31q17 0 24.5 14.5z" />
    <glyph glyph-name="guillemotleft" unicode="&#xab;" horiz-adv-x="581" 
d="M123 26l-93 235l92 235l183 -35l-56 -200l57 -200zM383 26l-93 235l92 235l183 -35l-56 -200l57 -200z" />
    <glyph glyph-name="logicalnot" unicode="&#xac;" horiz-adv-x="550" 
d="M470 172h-140v109h-250v144h390v-253z" />
    <glyph glyph-name="registered" unicode="&#xae;" horiz-adv-x="633" 
d="M471.5 807.5q65.5 -32.5 101 -93t35.5 -142.5t-35.5 -142.5t-101 -93.5t-154.5 -33t-155 33t-101.5 93.5t-35.5 142.5t35.5 142.5t101.5 93t155 32.5t154.5 -32.5zM452 436q42 42 42 136q0 93 -42 135t-135 42q-94 0 -136 -42t-42 -135t42 -135.5t136 -42.5q93 0 135 42z
M401 546l37 -115h-98l-25 94h-19v-94h-92v277h131q52 0 80.5 -22.5t28.5 -65.5q0 -54 -43 -74zM327 590q14 0 20.5 6t6.5 19q0 27 -27 27h-31v-52h31z" />
    <glyph glyph-name="macron" unicode="&#xaf;" horiz-adv-x="433" 
d="M393 573h-353v145h353v-145z" />
    <glyph glyph-name="degree" unicode="&#xb0;" horiz-adv-x="420" 
d="M342.5 675.5q47.5 -39.5 47.5 -110.5t-47.5 -111t-132.5 -40t-132.5 40t-47.5 111t47.5 110.5t132.5 39.5t132.5 -39.5zM174 608.5q-13 -16.5 -13 -43.5q0 -28 13 -44.5t36 -16.5t36 16.5t13 44.5q0 27 -13 43.5t-36 16.5t-36 -16.5z" />
    <glyph glyph-name="plusminus" unicode="&#xb1;" horiz-adv-x="550" 
d="M349 361v-123h-148v123h-121v144h121v123h148v-123h121v-144h-121zM80 41v144h390v-144h-390z" />
    <glyph glyph-name="twosuperior" unicode="&#xb2;" horiz-adv-x="342" 
d="M327 390h-315q-2 38 -2 56q0 32 15 56.5t36.5 41.5t55.5 39q39 25 57 42t18 40q0 29 -22 29q-13 0 -19.5 -6t-6.5 -16q0 -20 7 -33l-119 -9q-14 14 -14 53q0 51 41.5 81.5t114.5 30.5q78 0 115 -32.5t37 -90.5q0 -32 -16 -57t-38 -42t-57 -40q-7 -5 -20 -13t-20 -14h152
v-116z" />
    <glyph glyph-name="threesuperior" unicode="&#xb3;" horiz-adv-x="378" 
d="M334.5 565q23.5 -24 23.5 -64q0 -53 -43 -86.5t-125 -33.5q-91 0 -133 33.5t-42 102.5l128 14q1 -28 11.5 -37t30.5 -9q41 0 41 31q0 20 -21 29.5t-65 9.5l-9 67q51 7 69.5 17t18.5 30q0 13 -8 19t-25 6q-14 0 -21.5 -6t-7.5 -15q0 -11 3 -21l-121 -11q-7 21 -7 50
q0 49 41.5 76.5t115.5 27.5q80 0 119.5 -28.5t39.5 -77.5q0 -29 -20 -52t-54 -37q37 -11 60.5 -35z" />
    <glyph glyph-name="acute" unicode="&#xb4;" horiz-adv-x="373" 
d="M40 561l61 169h226l-113 -169h-174z" />
    <glyph glyph-name="paragraph" unicode="&#xb6;" horiz-adv-x="684" 
d="M508 0h-124v546h-54q-37 0 -54.5 -20t-17.5 -64q0 -41 17.5 -59.5t54.5 -18.5h28v-154h-52q-124 0 -190 59.5t-66 175.5q0 115 68.5 175t195.5 60h194v-700zM649 0h-124v700h124v-700z" />
    <glyph glyph-name="periodcentered" unicode="&#xb7;" horiz-adv-x="268" 
d="M210.5 344q27.5 -27 27.5 -76t-27.5 -76t-76.5 -27t-76.5 27t-27.5 76t27.5 76t76.5 27t76.5 -27z" />
    <glyph glyph-name="cedilla" unicode="&#xb8;" horiz-adv-x="334" 
d="M201 -16q47 -8 72.5 -32.5t25.5 -64.5q0 -49 -34 -75.5t-101 -26.5q-40 0 -79 11t-58 25l63 94q33 -52 82 -52q11 0 18.5 8.5t7.5 18.5q0 14 -20 20t-64 8l7 99h82z" />
    <glyph glyph-name="onesuperior" unicode="&#xb9;" horiz-adv-x="276" 
d="M236 390h-158v243h-68l1 84q44 -3 76 18t43 55h106v-400z" />
    <glyph glyph-name="ordmasculine" unicode="&#xba;" horiz-adv-x="420" 
d="M350.5 656q49.5 -52 49.5 -148t-49 -148t-139 -52q-92 0 -142 51.5t-50 147.5q0 97 50 149t142 52q89 0 138.5 -52zM183.5 584q-8.5 -23 -8.5 -77q0 -53 8.5 -75.5t28.5 -22.5q17 0 25 23t8 76t-8 76t-25 23q-20 0 -28.5 -23z" />
    <glyph glyph-name="guillemotright" unicode="&#xbb;" horiz-adv-x="581" 
d="M458 496l93 -235l-92 -235l-183 35l56 200l-57 200zM198 496l93 -235l-92 -235l-183 35l56 200l-57 200z" />
    <glyph glyph-name="onequarter" unicode="&#xbc;" horiz-adv-x="927" 
d="M236 300h-158v243h-68l1 84q44 -3 76 18t43 55h106v-400zM76 0l536 700h184l-536 -700h-184zM873 62v-62h-135v62h-187v76l133 262h189v-235h44v-103h-44zM738 297l-57 -132h57v132z" />
    <glyph glyph-name="onehalf" unicode="&#xbd;" horiz-adv-x="908" 
d="M236 300h-158v243h-68l1 84q44 -3 76 18t43 55h106v-400zM76 0l536 700h184l-536 -700h-184zM893 0h-315q-2 38 -2 56q0 32 15 56.5t36.5 41.5t55.5 39q39 25 57 42t18 40q0 29 -22 29q-13 0 -19.5 -6t-6.5 -16q0 -20 7 -33l-119 -9q-14 14 -14 53q0 51 41.5 81.5
t114.5 30.5q78 0 115 -32.5t37 -90.5q0 -32 -16 -57t-38 -42t-57 -40q-7 -5 -20 -13t-20 -14h152v-116z" />
    <glyph glyph-name="threequarters" unicode="&#xbe;" horiz-adv-x="999" 
d="M334.5 475q23.5 -24 23.5 -64q0 -53 -43 -86.5t-125 -33.5q-91 0 -133 33.5t-42 102.5l128 14q1 -28 11.5 -37t30.5 -9q41 0 41 31q0 20 -21 29.5t-65 9.5l-9 67q51 7 69.5 17t18.5 30q0 13 -8 19t-25 6q-14 0 -21.5 -6t-7.5 -15q0 -11 3 -21l-121 -11q-7 21 -7 50
q0 49 41.5 76.5t115.5 27.5q80 0 119.5 -28.5t39.5 -77.5q0 -29 -20 -52t-54 -37q37 -11 60.5 -35zM148 0l536 700h184l-536 -700h-184zM945 62v-62h-135v62h-187v76l133 262h189v-235h44v-103h-44zM810 297l-57 -132h57v132z" />
    <glyph glyph-name="questiondown" unicode="&#xbf;" horiz-adv-x="526" 
d="M194.5 337q-27.5 27 -27.5 76t27.5 76t76.5 27t76.5 -27t27.5 -76t-27.5 -76t-76.5 -27t-76.5 27zM74.5 -149q-59.5 55 -59.5 153q0 36 14 63t34 46t52 43q42 31 63 55.5t23 59.5h146q1 -5 3 -19.5t2 -32.5q0 -38 -17 -62.5t-50 -53.5q-29 -24 -43.5 -43.5t-14.5 -47.5
q0 -55 40 -55q22 0 33.5 14.5t11.5 39.5q0 29 -10 58l185 14q8 -16 13.5 -42t5.5 -48q0 -90 -66 -143.5t-182 -53.5q-124 0 -183.5 55z" />
    <glyph glyph-name="Agrave" unicode="&#xc0;" horiz-adv-x="654" 
d="M210 121l-29 -121h-176l207 700h225l212 -700h-228l-30 121h-181zM300 492l-54 -224h109zM228 746l-113 149h242l61 -149h-190z" />
    <glyph glyph-name="Aacute" unicode="&#xc1;" horiz-adv-x="654" 
d="M210 121l-29 -121h-176l207 700h225l212 -700h-228l-30 121h-181zM300 492l-54 -224h109zM230 746l61 139h252l-113 -139h-200z" />
    <glyph glyph-name="Acircumflex" unicode="&#xc2;" horiz-adv-x="654" 
d="M210 121l-29 -121h-176l207 700h225l212 -700h-228l-30 121h-181zM300 492l-54 -224h109zM324 792l-59 -55h-169l108 139h247l106 -139h-168z" />
    <glyph glyph-name="Atilde" unicode="&#xc3;" horiz-adv-x="654" 
d="M210 121l-29 -121h-176l207 700h225l212 -700h-228l-30 121h-181zM300 492l-54 -224h109zM510.5 782.5q-36.5 -42.5 -107.5 -42.5q-30 0 -54 7t-57 20q-15 6 -30.5 11t-26.5 5q-18 0 -30 -11t-12 -29h-86q0 83 34.5 126t102.5 43q33 0 59 -7t58 -19q39 -16 59 -16
q19 0 30 10.5t11 28.5h86q0 -84 -36.5 -126.5z" />
    <glyph glyph-name="Adieresis" unicode="&#xc4;" horiz-adv-x="654" 
d="M210 121l-29 -121h-176l207 700h225l212 -700h-228l-30 121h-181zM300 492l-54 -224h109zM289.5 880q26.5 -23 26.5 -66q0 -40 -27 -63t-76 -23q-47 0 -74 23.5t-27 62.5q0 43 26.5 66t74.5 23q50 0 76.5 -23zM515.5 880q26.5 -23 26.5 -66q0 -40 -27 -63t-76 -23
q-47 0 -74 23.5t-27 62.5q0 43 26.5 66t74.5 23q50 0 76.5 -23z" />
    <glyph glyph-name="Aring" unicode="&#xc5;" horiz-adv-x="654" 
d="M210 121l-29 -121h-176l207 700h225l212 -700h-228l-30 121h-181zM300 492l-54 -224h109zM472.5 888.5q49.5 -21.5 49.5 -64.5t-49.5 -65t-145.5 -22t-145.5 22t-49.5 65t49.5 64.5t145.5 21.5t145.5 -21.5zM304.5 852.5q-6.5 -8.5 -6.5 -28.5t6.5 -29t22.5 -9t22.5 9
t6.5 29t-6.5 28.5t-22.5 8.5t-22.5 -8.5z" />
    <glyph glyph-name="AE" unicode="&#xc6;" horiz-adv-x="917" 
d="M897 0h-496v121h-147l-31 -121h-218l217 700h655v-167h-266v-101h235v-152h-235v-113h286v-167zM401 533h-41l-68 -265h109v265z" />
    <glyph glyph-name="Ccedilla" unicode="&#xc7;" horiz-adv-x="595" 
d="M440.5 -48.5q25.5 -24.5 25.5 -64.5q0 -49 -34 -75.5t-101 -26.5q-39 0 -78.5 11t-58.5 25l63 94q33 -52 82 -52q11 0 18.5 8.5t7.5 18.5q0 14 -20 20t-64 8l5 70q-135 14 -203 107t-68 257q0 114 37.5 195.5t108.5 124.5t169 43q65 0 118 -24.5t83.5 -72.5t30.5 -117
q0 -50 -14 -87h-178q6 25 6 65q0 71 -52 71q-43 0 -66 -50.5t-23 -149.5q0 -174 130 -174q42 0 76 12t71 35l68 -181q-87 -51 -212 -56v-2q47 -8 72.5 -32.5z" />
    <glyph glyph-name="Egrave" unicode="&#xc8;" horiz-adv-x="551" 
d="M531 0h-496v700h476v-167h-266v-101h235v-152h-235v-113h286v-167zM179 746l-113 149h242l61 -149h-190z" />
    <glyph glyph-name="Eacute" unicode="&#xc9;" horiz-adv-x="551" 
d="M531 0h-496v700h476v-167h-266v-101h235v-152h-235v-113h286v-167zM181 746l61 139h252l-113 -139h-200z" />
    <glyph glyph-name="Ecircumflex" unicode="&#xca;" horiz-adv-x="551" 
d="M531 0h-496v700h476v-167h-266v-101h235v-152h-235v-113h286v-167zM275 792l-59 -55h-169l108 139h247l106 -139h-168z" />
    <glyph glyph-name="Edieresis" unicode="&#xcb;" horiz-adv-x="551" 
d="M531 0h-496v700h476v-167h-266v-101h235v-152h-235v-113h286v-167zM240.5 880q26.5 -23 26.5 -66q0 -40 -27 -63t-76 -23q-47 0 -74 23.5t-27 62.5q0 43 26.5 66t74.5 23q50 0 76.5 -23zM466.5 880q26.5 -23 26.5 -66q0 -40 -27 -63t-76 -23q-47 0 -74 23.5t-27 62.5
q0 43 26.5 66t74.5 23q50 0 76.5 -23z" />
    <glyph glyph-name="Igrave" unicode="&#xcc;" horiz-adv-x="280" 
d="M35 0v700h210v-700h-210zM41 746l-113 149h242l61 -149h-190z" />
    <glyph glyph-name="Iacute" unicode="&#xcd;" horiz-adv-x="280" 
d="M35 0v700h210v-700h-210zM43 746l61 139h252l-113 -139h-200z" />
    <glyph glyph-name="Icircumflex" unicode="&#xce;" horiz-adv-x="280" 
d="M35 0v700h210v-700h-210zM137 792l-59 -55h-169l108 139h247l106 -139h-168z" />
    <glyph glyph-name="Idieresis" unicode="&#xcf;" horiz-adv-x="280" 
d="M35 0v700h210v-700h-210zM102.5 880q26.5 -23 26.5 -66q0 -40 -27 -63t-76 -23q-47 0 -74 23.5t-27 62.5q0 43 26.5 66t74.5 23q50 0 76.5 -23zM328.5 880q26.5 -23 26.5 -66q0 -40 -27 -63t-76 -23q-47 0 -74 23.5t-27 62.5q0 43 26.5 66t74.5 23q50 0 76.5 -23z" />
    <glyph glyph-name="Eth" unicode="&#xd0;" horiz-adv-x="665" 
d="M563 609.5q87 -90.5 87 -259.5t-85.5 -259.5t-243.5 -90.5h-248v265h-63v180h63v255h240q163 0 250 -90.5zM405.5 209.5q30.5 43.5 30.5 140.5t-29 140.5t-93 43.5h-31v-89h82v-180h-82v-99h24q68 0 98.5 43.5z" />
    <glyph glyph-name="Ntilde" unicode="&#xd1;" horiz-adv-x="635" 
d="M600 0h-174l-207 340v-340h-184v700h204l177 -300v300h184v-700zM501.5 782.5q-36.5 -42.5 -107.5 -42.5q-30 0 -54 7t-57 20q-15 6 -30.5 11t-26.5 5q-18 0 -30 -11t-12 -29h-86q0 83 34.5 126t102.5 43q33 0 59 -7t58 -19q39 -16 59 -16q19 0 30 10.5t11 28.5h86
q0 -84 -36.5 -126.5z" />
    <glyph glyph-name="Ograve" unicode="&#xd2;" horiz-adv-x="650" 
d="M555 621q80 -94 80 -269q0 -177 -80 -272t-230 -95q-149 0 -229.5 95t-80.5 272q0 175 80.5 269t229.5 94q150 0 230 -94zM256.5 499q-21.5 -46 -21.5 -147q0 -103 21.5 -150t68.5 -47t68.5 47t21.5 150q0 101 -21.5 147t-68.5 46t-68.5 -46zM226 746l-113 149h242
l61 -149h-190z" />
    <glyph glyph-name="Oacute" unicode="&#xd3;" horiz-adv-x="650" 
d="M555 621q80 -94 80 -269q0 -177 -80 -272t-230 -95q-149 0 -229.5 95t-80.5 272q0 175 80.5 269t229.5 94q150 0 230 -94zM256.5 499q-21.5 -46 -21.5 -147q0 -103 21.5 -150t68.5 -47t68.5 47t21.5 150q0 101 -21.5 147t-68.5 46t-68.5 -46zM228 746l61 139h252
l-113 -139h-200z" />
    <glyph glyph-name="Ocircumflex" unicode="&#xd4;" horiz-adv-x="650" 
d="M555 621q80 -94 80 -269q0 -177 -80 -272t-230 -95q-149 0 -229.5 95t-80.5 272q0 175 80.5 269t229.5 94q150 0 230 -94zM256.5 499q-21.5 -46 -21.5 -147q0 -103 21.5 -150t68.5 -47t68.5 47t21.5 150q0 101 -21.5 147t-68.5 46t-68.5 -46zM322 792l-59 -55h-169
l108 139h247l106 -139h-168z" />
    <glyph glyph-name="Otilde" unicode="&#xd5;" horiz-adv-x="650" 
d="M555 621q80 -94 80 -269q0 -177 -80 -272t-230 -95q-149 0 -229.5 95t-80.5 272q0 175 80.5 269t229.5 94q150 0 230 -94zM256.5 499q-21.5 -46 -21.5 -147q0 -103 21.5 -150t68.5 -47t68.5 47t21.5 150q0 101 -21.5 147t-68.5 46t-68.5 -46zM508.5 782.5
q-36.5 -42.5 -107.5 -42.5q-30 0 -54 7t-57 20q-15 6 -30.5 11t-26.5 5q-18 0 -30 -11t-12 -29h-86q0 83 34.5 126t102.5 43q33 0 59 -7t58 -19q39 -16 59 -16q19 0 30 10.5t11 28.5h86q0 -84 -36.5 -126.5z" />
    <glyph glyph-name="Odieresis" unicode="&#xd6;" horiz-adv-x="650" 
d="M555 621q80 -94 80 -269q0 -177 -80 -272t-230 -95q-149 0 -229.5 95t-80.5 272q0 175 80.5 269t229.5 94q150 0 230 -94zM256.5 499q-21.5 -46 -21.5 -147q0 -103 21.5 -150t68.5 -47t68.5 47t21.5 150q0 101 -21.5 147t-68.5 46t-68.5 -46zM287.5 880
q26.5 -23 26.5 -66q0 -40 -27 -63t-76 -23q-47 0 -74 23.5t-27 62.5q0 43 26.5 66t74.5 23q50 0 76.5 -23zM513.5 880q26.5 -23 26.5 -66q0 -40 -27 -63t-76 -23q-47 0 -74 23.5t-27 62.5q0 43 26.5 66t74.5 23q50 0 76.5 -23z" />
    <glyph glyph-name="multiply" unicode="&#xd7;" horiz-adv-x="550" 
d="M488 251l-106 -106l-107 107l-107 -107l-106 106l107 107l-107 107l106 106l107 -107l107 107l106 -106l-107 -107z" />
    <glyph glyph-name="Oslash" unicode="&#xd8;" horiz-adv-x="650" 
d="M635 352q0 -177 -80 -272t-230 -95q-62 0 -115 17l-46 -117h-134l73 186q-88 94 -88 281q0 175 80.5 269t229.5 94q66 0 118 -18l37 98h134l-64 -169q85 -93 85 -274zM256.5 499q-21.5 -46 -21.5 -147q0 -27 2 -65l97 258h-9q-47 0 -68.5 -46zM393.5 202
q21.5 47 21.5 150q0 22 -2 58l-96 -255h8q47 0 68.5 47z" />
    <glyph glyph-name="Ugrave" unicode="&#xd9;" horiz-adv-x="599" 
d="M96 51q-66 58 -66 182v467h209v-452q0 -44 18.5 -64.5t57.5 -20.5t56 20t17 65v452h181v-467q0 -116 -72 -178t-206 -62q-129 0 -195 58zM200 746l-113 149h242l61 -149h-190z" />
    <glyph glyph-name="Uacute" unicode="&#xda;" horiz-adv-x="599" 
d="M96 51q-66 58 -66 182v467h209v-452q0 -44 18.5 -64.5t57.5 -20.5t56 20t17 65v452h181v-467q0 -116 -72 -178t-206 -62q-129 0 -195 58zM202 746l61 139h252l-113 -139h-200z" />
    <glyph glyph-name="Ucircumflex" unicode="&#xdb;" horiz-adv-x="599" 
d="M96 51q-66 58 -66 182v467h209v-452q0 -44 18.5 -64.5t57.5 -20.5t56 20t17 65v452h181v-467q0 -116 -72 -178t-206 -62q-129 0 -195 58zM296 792l-59 -55h-169l108 139h247l106 -139h-168z" />
    <glyph glyph-name="Udieresis" unicode="&#xdc;" horiz-adv-x="599" 
d="M96 51q-66 58 -66 182v467h209v-452q0 -44 18.5 -64.5t57.5 -20.5t56 20t17 65v452h181v-467q0 -116 -72 -178t-206 -62q-129 0 -195 58zM261.5 880q26.5 -23 26.5 -66q0 -40 -27 -63t-76 -23q-47 0 -74 23.5t-27 62.5q0 43 26.5 66t74.5 23q50 0 76.5 -23zM487.5 880
q26.5 -23 26.5 -66q0 -40 -27 -63t-76 -23q-47 0 -74 23.5t-27 62.5q0 43 26.5 66t74.5 23q50 0 76.5 -23z" />
    <glyph glyph-name="Yacute" unicode="&#xdd;" horiz-adv-x="667" 
d="M443 0h-210v253l-228 447h263l95 -244l102 244h197l-219 -440v-260zM237 746l61 139h252l-113 -139h-200z" />
    <glyph glyph-name="Thorn" unicode="&#xde;" horiz-adv-x="605" 
d="M521.5 535q68.5 -60 68.5 -175q0 -116 -66 -175.5t-190 -59.5h-89v-125h-210v700h210v-105h81q127 0 195.5 -60zM364.5 297.5q17.5 18.5 17.5 59.5q0 44 -17.5 64t-54.5 20h-65v-162h65q37 0 54.5 18.5z" />
    <glyph glyph-name="germandbls" unicode="&#xdf;" horiz-adv-x="617" 
d="M491 708q48 -37 48 -96q0 -33 -14 -59t-39 -56q-19 -25 -27.5 -39.5t-8.5 -30.5q0 -18 12 -29t41 -28q31 -17 52 -34t36.5 -48.5t15.5 -80.5q0 -101 -61.5 -161.5t-165.5 -60.5q-37 0 -69.5 4.5t-52.5 10.5l51 166q41 -36 92 -36q26 0 36 7.5t10 23.5q0 14 -13 23t-42 21
q-34 14 -57 28t-39.5 40.5t-16.5 68.5q0 34 10.5 58.5t32.5 57.5q20 30 29.5 51t9.5 50q0 33 -11.5 48t-34.5 15q-75 0 -75 -141v-481h-200v389q0 178 81.5 267t225.5 89q96 0 144 -37z" />
    <glyph glyph-name="agrave" unicode="&#xe0;" horiz-adv-x="571" 
d="M460 -8q-49 0 -80 18t-46 57q-25 -38 -64.5 -60t-93.5 -22q-74 0 -111 39t-40 106q0 55 25 92t89 58t179 23v51q0 48 -9 66.5t-30 18.5q-41 0 -41 -74q0 -10 2 -28l-180 -10q-6 34 -6 60q0 67 52.5 107.5t175.5 40.5q91 0 142.5 -22t72.5 -66.5t21 -118.5v-202
q0 -25 19 -25q14 0 17 1l7 -82q-40 -28 -101 -28zM305 133q13 22 13 85v18q-48 -4 -69.5 -24.5t-21.5 -52.5q0 -48 38 -48q27 0 40 22zM218 561l-113 169h232l61 -169h-180z" />
    <glyph glyph-name="aacute" unicode="&#xe1;" horiz-adv-x="571" 
d="M460 -8q-49 0 -80 18t-46 57q-25 -38 -64.5 -60t-93.5 -22q-74 0 -111 39t-40 106q0 55 25 92t89 58t179 23v51q0 48 -9 66.5t-30 18.5q-41 0 -41 -74q0 -10 2 -28l-180 -10q-6 34 -6 60q0 67 52.5 107.5t175.5 40.5q91 0 142.5 -22t72.5 -66.5t21 -118.5v-202
q0 -25 19 -25q14 0 17 1l7 -82q-40 -28 -101 -28zM305 133q13 22 13 85v18q-48 -4 -69.5 -24.5t-21.5 -52.5q0 -48 38 -48q27 0 40 22zM186 561l61 169h226l-113 -169h-174z" />
    <glyph glyph-name="acircumflex" unicode="&#xe2;" horiz-adv-x="571" 
d="M460 -8q-49 0 -80 18t-46 57q-25 -38 -64.5 -60t-93.5 -22q-74 0 -111 39t-40 106q0 55 25 92t89 58t179 23v51q0 48 -9 66.5t-30 18.5q-41 0 -41 -74q0 -10 2 -28l-180 -10q-6 34 -6 60q0 67 52.5 107.5t175.5 40.5q91 0 142.5 -22t72.5 -66.5t21 -118.5v-202
q0 -25 19 -25q14 0 17 1l7 -82q-40 -28 -101 -28zM305 133q13 22 13 85v18q-48 -4 -69.5 -24.5t-21.5 -52.5q0 -48 38 -48q27 0 40 22zM281 629l-57 -68h-152l108 169h207l106 -169h-151z" />
    <glyph glyph-name="atilde" unicode="&#xe3;" horiz-adv-x="571" 
d="M460 -8q-49 0 -80 18t-46 57q-25 -38 -64.5 -60t-93.5 -22q-74 0 -111 39t-40 106q0 55 25 92t89 58t179 23v51q0 48 -9 66.5t-30 18.5q-41 0 -41 -74q0 -10 2 -28l-180 -10q-6 34 -6 60q0 67 52.5 107.5t175.5 40.5q91 0 142.5 -22t72.5 -66.5t21 -118.5v-202
q0 -25 19 -25q14 0 17 1l7 -82q-40 -28 -101 -28zM305 133q13 22 13 85v18q-48 -4 -69.5 -24.5t-21.5 -52.5q0 -48 38 -48q27 0 40 22zM439.5 607.5q-33.5 -42.5 -98.5 -42.5q-27 0 -46.5 7.5t-41.5 21.5q-11 7 -21 12t-19 5q-16 0 -25.5 -11.5t-9.5 -31.5h-85
q0 83 31.5 126t93.5 43q29 0 50 -7.5t44 -21.5q14 -8 23 -12t18 -4q35 0 35 42h85q0 -84 -33.5 -126.5z" />
    <glyph glyph-name="adieresis" unicode="&#xe4;" horiz-adv-x="571" 
d="M94.5 580q-26.5 23 -26.5 66q0 45 26.5 68.5t74.5 23.5q50 0 76.5 -23.5t26.5 -68.5q0 -43 -26.5 -66t-76.5 -23q-48 0 -74.5 23zM320.5 580q-26.5 23 -26.5 66q0 45 26.5 68.5t74.5 23.5q50 0 76.5 -23.5t26.5 -68.5q0 -43 -26.5 -66t-76.5 -23q-48 0 -74.5 23zM460 -8
q-49 0 -80 18t-46 57q-25 -38 -64.5 -60t-93.5 -22q-74 0 -111 39t-40 106q0 55 25 92t89 58t179 23v51q0 48 -9 66.5t-30 18.5q-41 0 -41 -74q0 -10 2 -28l-180 -10q-6 34 -6 60q0 67 52.5 107.5t175.5 40.5q91 0 142.5 -22t72.5 -66.5t21 -118.5v-202q0 -25 19 -25
q14 0 17 1l7 -82q-40 -28 -101 -28zM305 133q13 22 13 85v18q-48 -4 -69.5 -24.5t-21.5 -52.5q0 -48 38 -48q27 0 40 22z" />
    <glyph glyph-name="aring" unicode="&#xe5;" horiz-adv-x="571" 
d="M460 -8q-49 0 -80 18t-46 57q-25 -38 -64.5 -60t-93.5 -22q-74 0 -111 39t-40 106q0 55 25 92t89 58t179 23v51q0 48 -9 66.5t-30 18.5q-41 0 -41 -74q0 -10 2 -28l-180 -10q-6 34 -6 60q0 67 52.5 107.5t175.5 40.5q91 0 142.5 -22t72.5 -66.5t21 -118.5v-202
q0 -25 19 -25q14 0 17 1l7 -82q-40 -28 -101 -28zM305 133q13 22 13 85v18q-48 -4 -69.5 -24.5t-21.5 -52.5q0 -48 38 -48q27 0 40 22zM417.5 726q40.5 -22 40.5 -74t-40 -74.5t-135 -22.5t-135 22.5t-40 74.5t40.5 74t134.5 22t134.5 -22zM248 652q0 -19 9 -29.5t26 -10.5
t26 10.5t9 29.5q0 39 -35 39t-35 -39z" />
    <glyph glyph-name="ae" unicode="&#xe6;" horiz-adv-x="812" 
d="M586 -15q-157 0 -217 105q-26 -48 -74 -76.5t-119 -28.5q-74 0 -111 39t-40 106q0 55 25 92t90 58t181 23v51q0 46 -9.5 63.5t-32.5 17.5q-41 0 -41 -70q0 -14 2 -38h-180q-6 34 -6 60q0 67 52.5 107.5t175.5 40.5q55 0 91.5 -13t58.5 -39q58 52 149 52q56 0 101.5 -22
t72.5 -66.5t27 -108.5q0 -32 -5 -64.5t-16 -52.5l-238 1q6 -46 32 -68t64 -22q39 0 63 11t56 37l54 -141q-92 -54 -206 -54zM523 313l79 -1q6 24 6 59q0 47 -36 47q-40 0 -49 -105zM296.5 120q11.5 9 18 36t6.5 80q-50 -3 -72 -24t-22 -53q0 -48 38 -48q20 0 31.5 9z" />
    <glyph glyph-name="ccedilla" unicode="&#xe7;" horiz-adv-x="509" 
d="M379.5 -48.5q25.5 -24.5 25.5 -64.5q0 -49 -34 -75.5t-101 -26.5q-39 0 -78.5 11t-58.5 25l63 94q33 -52 82 -52q11 0 18.5 8.5t7.5 18.5q0 14 -20 20t-64 8l5 71q-98 15 -151.5 80t-53.5 184q0 137 67.5 209.5t188.5 72.5q73 0 119 -23.5t66 -60t20 -76.5q0 -46 -10 -76
l-171 9q5 27 5 60q0 19 -6.5 26.5t-22.5 7.5q-26 0 -41 -32t-15 -99q0 -69 25 -101t77 -32q35 0 67.5 13.5t49.5 29.5l55 -138q-68 -53 -187 -58v-1q47 -8 72.5 -32.5z" />
    <glyph glyph-name="egrave" unicode="&#xe8;" horiz-adv-x="514" 
d="M288 -15q-268 0 -268 275q0 134 71 204.5t192 70.5q56 0 101.5 -22t72.5 -66.5t27 -108.5q0 -32 -5 -63.5t-16 -51.5h-241q6 -46 32.5 -68.5t66.5 -22.5q36 0 57.5 11t51.5 37l64 -141q-92 -54 -206 -54zM223 318h82q5 19 5 56q0 23 -9 37t-27 14q-42 0 -51 -107z
M215 561l-113 169h232l61 -169h-180z" />
    <glyph glyph-name="eacute" unicode="&#xe9;" horiz-adv-x="514" 
d="M288 -15q-268 0 -268 275q0 134 71 204.5t192 70.5q56 0 101.5 -22t72.5 -66.5t27 -108.5q0 -32 -5 -63.5t-16 -51.5h-241q6 -46 32.5 -68.5t66.5 -22.5q36 0 57.5 11t51.5 37l64 -141q-92 -54 -206 -54zM223 318h82q5 19 5 56q0 23 -9 37t-27 14q-42 0 -51 -107z
M183 561l61 169h226l-113 -169h-174z" />
    <glyph glyph-name="ecircumflex" unicode="&#xea;" horiz-adv-x="514" 
d="M288 -15q-268 0 -268 275q0 134 71 204.5t192 70.5q56 0 101.5 -22t72.5 -66.5t27 -108.5q0 -32 -5 -63.5t-16 -51.5h-241q6 -46 32.5 -68.5t66.5 -22.5q36 0 57.5 11t51.5 37l64 -141q-92 -54 -206 -54zM223 318h82q5 19 5 56q0 23 -9 37t-27 14q-42 0 -51 -107z
M278 629l-57 -68h-152l108 169h207l106 -169h-151z" />
    <glyph glyph-name="edieresis" unicode="&#xeb;" horiz-adv-x="514" 
d="M91.5 580q-26.5 23 -26.5 66q0 45 26.5 68.5t74.5 23.5q50 0 76.5 -23.5t26.5 -68.5q0 -43 -26.5 -66t-76.5 -23q-48 0 -74.5 23zM317.5 580q-26.5 23 -26.5 66q0 45 26.5 68.5t74.5 23.5q50 0 76.5 -23.5t26.5 -68.5q0 -43 -26.5 -66t-76.5 -23q-48 0 -74.5 23z
M378.5 143q21.5 11 51.5 37l64 -141q-92 -54 -206 -54q-268 0 -268 275q0 134 71 204.5t192 70.5q56 0 101.5 -22t72.5 -66.5t27 -108.5q0 -32 -5 -63.5t-16 -51.5h-241q6 -46 32.5 -68.5t66.5 -22.5q36 0 57.5 11zM223 318h82q5 19 5 56q0 23 -9 37t-27 14q-42 0 -51 -107z
" />
    <glyph glyph-name="igrave" unicode="&#xec;" horiz-adv-x="300" 
d="M45 0v520h210v-520h-210zM85 561l-113 169h232l61 -169h-180z" />
    <glyph glyph-name="iacute" unicode="&#xed;" horiz-adv-x="300" 
d="M45 0v520h210v-520h-210zM53 561l61 169h226l-113 -169h-174z" />
    <glyph glyph-name="icircumflex" unicode="&#xee;" horiz-adv-x="300" 
d="M45 0v520h210v-520h-210zM148 629l-57 -68h-152l108 169h207l106 -169h-151z" />
    <glyph glyph-name="idieresis" unicode="&#xef;" horiz-adv-x="300" 
d="M112.5 714.5q26.5 -23.5 26.5 -68.5q0 -43 -26.5 -66t-76.5 -23q-48 0 -74.5 23t-26.5 66q0 45 26.5 68.5t74.5 23.5q50 0 76.5 -23.5zM338.5 714.5q26.5 -23.5 26.5 -68.5q0 -43 -26.5 -66t-76.5 -23q-48 0 -74.5 23t-26.5 66q0 45 26.5 68.5t74.5 23.5q50 0 76.5 -23.5
zM45 0v520h210v-520h-210z" />
    <glyph glyph-name="eth" unicode="&#xf0;" horiz-adv-x="577" 
d="M464.5 630q49.5 -53 71 -132t21.5 -199q0 -158 -68 -236t-198 -78q-129 0 -200 71t-71 202q0 120 68.5 186t186.5 66q61 0 116 -29q-15 33 -38.5 55t-59.5 36l-8 -35l-100 20l10 40q-40 6 -104 13l31 159q66 -12 108 -22l8 34l100 -20l-10 -44q87 -34 136.5 -87z
M341.5 149q15.5 34 15.5 111q0 63 -15.5 91.5t-50.5 28.5q-37 0 -54 -29t-17 -93q0 -76 17 -109.5t54 -33.5q35 0 50.5 34z" />
    <glyph glyph-name="ntilde" unicode="&#xf1;" horiz-adv-x="588" 
d="M513 485q40 -50 40 -165v-320h-200v299q0 71 -54 71q-59 0 -59 -76v-294h-200v520h147l29 -108q22 59 66.5 91t106.5 32q84 0 124 -50zM454.5 607.5q-33.5 -42.5 -98.5 -42.5q-27 0 -46.5 7.5t-41.5 21.5q-11 7 -21 12t-19 5q-16 0 -25.5 -11.5t-9.5 -31.5h-85
q0 83 31.5 126t93.5 43q29 0 50 -7.5t44 -21.5q14 -8 23 -12t18 -4q35 0 35 42h85q0 -84 -33.5 -126.5z" />
    <glyph glyph-name="ograve" unicode="&#xf2;" horiz-adv-x="577" 
d="M487.5 463.5q69.5 -71.5 69.5 -203.5t-69.5 -203.5t-196.5 -71.5q-129 0 -200 71t-71 202q0 133 71 205t200 72q127 0 196.5 -71.5zM237 370.5q-17 -34.5 -17 -112.5q0 -76 17 -109.5t54 -33.5q35 0 50.5 34t15.5 111t-15.5 111t-50.5 34q-37 0 -54 -34.5zM224 561
l-113 169h232l61 -169h-180z" />
    <glyph glyph-name="oacute" unicode="&#xf3;" horiz-adv-x="577" 
d="M487.5 463.5q69.5 -71.5 69.5 -203.5t-69.5 -203.5t-196.5 -71.5q-129 0 -200 71t-71 202q0 133 71 205t200 72q127 0 196.5 -71.5zM237 370.5q-17 -34.5 -17 -112.5q0 -76 17 -109.5t54 -33.5q35 0 50.5 34t15.5 111t-15.5 111t-50.5 34q-37 0 -54 -34.5zM192 561
l61 169h226l-113 -169h-174z" />
    <glyph glyph-name="ocircumflex" unicode="&#xf4;" horiz-adv-x="577" 
d="M487.5 463.5q69.5 -71.5 69.5 -203.5t-69.5 -203.5t-196.5 -71.5q-129 0 -200 71t-71 202q0 133 71 205t200 72q127 0 196.5 -71.5zM237 370.5q-17 -34.5 -17 -112.5q0 -76 17 -109.5t54 -33.5q35 0 50.5 34t15.5 111t-15.5 111t-50.5 34q-37 0 -54 -34.5zM287 629
l-57 -68h-152l108 169h207l106 -169h-151z" />
    <glyph glyph-name="otilde" unicode="&#xf5;" horiz-adv-x="577" 
d="M487.5 463.5q69.5 -71.5 69.5 -203.5t-69.5 -203.5t-196.5 -71.5q-129 0 -200 71t-71 202q0 133 71 205t200 72q127 0 196.5 -71.5zM237 370.5q-17 -34.5 -17 -112.5q0 -76 17 -109.5t54 -33.5q35 0 50.5 34t15.5 111t-15.5 111t-50.5 34q-37 0 -54 -34.5zM445.5 607.5
q-33.5 -42.5 -98.5 -42.5q-27 0 -46.5 7.5t-41.5 21.5q-11 7 -21 12t-19 5q-16 0 -25.5 -11.5t-9.5 -31.5h-85q0 83 31.5 126t93.5 43q29 0 50 -7.5t44 -21.5q14 -8 23 -12t18 -4q35 0 35 42h85q0 -84 -33.5 -126.5z" />
    <glyph glyph-name="odieresis" unicode="&#xf6;" horiz-adv-x="577" 
d="M251.5 714.5q26.5 -23.5 26.5 -68.5q0 -43 -26.5 -66t-76.5 -23q-48 0 -74.5 23t-26.5 66q0 45 26.5 68.5t74.5 23.5q50 0 76.5 -23.5zM477.5 714.5q26.5 -23.5 26.5 -68.5q0 -43 -26.5 -66t-76.5 -23q-48 0 -74.5 23t-26.5 66q0 45 26.5 68.5t74.5 23.5q50 0 76.5 -23.5
zM487.5 463.5q69.5 -71.5 69.5 -203.5t-69.5 -203.5t-196.5 -71.5q-129 0 -200 71t-71 202q0 133 71 205t200 72q127 0 196.5 -71.5zM237 370.5q-17 -34.5 -17 -112.5q0 -76 17 -109.5t54 -33.5q35 0 50.5 34t15.5 111t-15.5 111t-50.5 34q-37 0 -54 -34.5z" />
    <glyph glyph-name="divide" unicode="&#xf7;" horiz-adv-x="550" 
d="M339 626q24 -24 24 -64q0 -39 -24 -63t-64 -24t-64 24t-24 63q0 40 24 64t64 24t64 -24zM80 281v144h390v-144h-390zM339 207q24 -24 24 -64q0 -39 -24 -63t-64 -24t-64 24t-24 63q0 40 24 64t64 24t64 -24z" />
    <glyph glyph-name="oslash" unicode="&#xf8;" horiz-adv-x="577" 
d="M534 391.5q23 -56.5 23 -131.5q0 -132 -69.5 -203.5t-196.5 -71.5q-53 0 -95 12l-51 -112h-94l65 149q-47 35 -71.5 91.5t-24.5 132.5q0 133 71 205t200 72q56 0 96 -13l51 109h94l-66 -148q45 -35 68 -91.5zM237 370.5q-17 -34.5 -17 -112.5q0 -39 4 -63l77 209l-10 1
q-37 0 -54 -34.5zM341.5 149q15.5 34 15.5 111q0 21 -2 49l-72 -194h8q35 0 50.5 34z" />
    <glyph glyph-name="ugrave" unicode="&#xf9;" horiz-adv-x="585" 
d="M545 0h-137l-36 120q-21 -63 -64.5 -99t-101.5 -36q-80 0 -125.5 48.5t-45.5 156.5v330h200v-301q0 -34 14.5 -51.5t39.5 -17.5q28 0 42 18t14 62v290h200v-520zM228 561l-113 169h232l61 -169h-180z" />
    <glyph glyph-name="uacute" unicode="&#xfa;" horiz-adv-x="585" 
d="M545 0h-137l-36 120q-21 -63 -64.5 -99t-101.5 -36q-80 0 -125.5 48.5t-45.5 156.5v330h200v-301q0 -34 14.5 -51.5t39.5 -17.5q28 0 42 18t14 62v290h200v-520zM196 561l61 169h226l-113 -169h-174z" />
    <glyph glyph-name="ucircumflex" unicode="&#xfb;" horiz-adv-x="585" 
d="M545 0h-137l-36 120q-21 -63 -64.5 -99t-101.5 -36q-80 0 -125.5 48.5t-45.5 156.5v330h200v-301q0 -34 14.5 -51.5t39.5 -17.5q28 0 42 18t14 62v290h200v-520zM291 629l-57 -68h-152l108 169h207l106 -169h-151z" />
    <glyph glyph-name="udieresis" unicode="&#xfc;" horiz-adv-x="585" 
d="M104.5 580q-26.5 23 -26.5 66q0 45 26.5 68.5t74.5 23.5q50 0 76.5 -23.5t26.5 -68.5q0 -43 -26.5 -66t-76.5 -23q-48 0 -74.5 23zM330.5 580q-26.5 23 -26.5 66q0 45 26.5 68.5t74.5 23.5q50 0 76.5 -23.5t26.5 -68.5q0 -43 -26.5 -66t-76.5 -23q-48 0 -74.5 23zM545 0
h-137l-36 120q-21 -63 -64.5 -99t-101.5 -36q-80 0 -125.5 48.5t-45.5 156.5v330h200v-301q0 -34 14.5 -51.5t39.5 -17.5q28 0 42 18t14 62v290h200v-520z" />
    <glyph glyph-name="yacute" unicode="&#xfd;" horiz-adv-x="605" 
d="M428 26q-44 -131 -113.5 -186t-174.5 -55q-47 0 -95 9.5t-88 26.5l91 162q23 -28 51.5 -44t58.5 -16q34 0 54.5 17t33.5 58l1 2h-63l-181 520h220l89 -316l102 316h181zM206 561l61 169h226l-113 -169h-174z" />
    <glyph glyph-name="thorn" unicode="&#xfe;" horiz-adv-x="594" 
d="M529 467.5q45 -67.5 45 -208.5q0 -143 -58 -208.5t-160 -65.5q-64 0 -111 36v-221h-200v930h200v-281q44 86 142 86q97 0 142 -67.5zM356.5 156q17.5 28 17.5 100q0 64 -15 91.5t-48 27.5q-31 0 -48.5 -19.5t-17.5 -55.5v-163q29 -9 56 -9q38 0 55.5 28z" />
    <glyph glyph-name="ydieresis" unicode="&#xff;" horiz-adv-x="605" 
d="M114.5 580q-26.5 23 -26.5 66q0 45 26.5 68.5t74.5 23.5q50 0 76.5 -23.5t26.5 -68.5q0 -43 -26.5 -66t-76.5 -23q-48 0 -74.5 23zM340.5 580q-26.5 23 -26.5 66q0 45 26.5 68.5t74.5 23.5q50 0 76.5 -23.5t26.5 -68.5q0 -43 -26.5 -66t-76.5 -23q-48 0 -74.5 23zM428 26
q-44 -131 -113.5 -186t-174.5 -55q-47 0 -95 9.5t-88 26.5l91 162q23 -28 51.5 -44t58.5 -16q34 0 54.5 17t33.5 58l1 2h-63l-181 520h220l89 -316l102 316h181z" />
    <glyph glyph-name="Amacron" unicode="&#x100;" horiz-adv-x="654" 
d="M210 121l-29 -121h-176l207 700h225l212 -700h-228l-30 121h-181zM300 492l-54 -224h109zM523 748h-393v145h393v-145z" />
    <glyph glyph-name="amacron" unicode="&#x101;" horiz-adv-x="571" 
d="M460 -8q-49 0 -80 18t-46 57q-25 -38 -64.5 -60t-93.5 -22q-74 0 -111 39t-40 106q0 55 25 92t89 58t179 23v51q0 48 -9 66.5t-30 18.5q-41 0 -41 -74q0 -10 2 -28l-180 -10q-6 34 -6 60q0 67 52.5 107.5t175.5 40.5q91 0 142.5 -22t72.5 -66.5t21 -118.5v-202
q0 -25 19 -25q14 0 17 1l7 -82q-40 -28 -101 -28zM305 133q13 22 13 85v18q-48 -4 -69.5 -24.5t-21.5 -52.5q0 -48 38 -48q27 0 40 22zM459 573h-353v145h353v-145z" />
    <glyph glyph-name="Abreve" unicode="&#x102;" horiz-adv-x="654" 
d="M210 121l-29 -121h-176l207 700h225l212 -700h-228l-30 121h-181zM300 492l-54 -224h109zM460 773q-42 -40 -133 -40t-133 40t-42 126h100q0 -52 75 -52q35 0 55 13.5t20 38.5h100q0 -86 -42 -126z" />
    <glyph glyph-name="abreve" unicode="&#x103;" horiz-adv-x="571" 
d="M460 -8q-49 0 -80 18t-46 57q-25 -38 -64.5 -60t-93.5 -22q-74 0 -111 39t-40 106q0 55 25 92t89 58t179 23v51q0 48 -9 66.5t-30 18.5q-41 0 -41 -74q0 -10 2 -28l-180 -10q-6 34 -6 60q0 67 52.5 107.5t175.5 40.5q91 0 142.5 -22t72.5 -66.5t21 -118.5v-202
q0 -25 19 -25q14 0 17 1l7 -82q-40 -28 -101 -28zM305 133q13 22 13 85v18q-48 -4 -69.5 -24.5t-21.5 -52.5q0 -48 38 -48q27 0 40 22zM416 599.5q-42 -41.5 -133 -41.5t-133 41.5t-42 133.5h100q0 -27 18 -39.5t57 -12.5q75 0 75 52h100q0 -92 -42 -133.5z" />
    <glyph glyph-name="Aogonek" unicode="&#x104;" horiz-adv-x="654" 
d="M602 -114l9 -88q-29 -13 -68 -13q-49 0 -77.5 22t-28.5 65q0 39 23.5 71.5t60.5 56.5h-100l-30 121h-181l-29 -121h-176l207 700h225l212 -700h-50q-21 -27 -30 -47t-9 -43q0 -13 6 -20t15 -7q11 0 21 3zM300 492l-54 -224h109z" />
    <glyph glyph-name="aogonek" unicode="&#x105;" horiz-adv-x="571" 
d="M505 -195q-49 0 -77.5 22t-28.5 65q0 54 48 100q-43 2 -71 20.5t-42 54.5q-25 -38 -64.5 -60t-93.5 -22q-74 0 -111 39t-40 106q0 55 25 92t89 58t179 23v51q0 48 -9 66.5t-30 18.5q-41 0 -41 -74q0 -10 2 -28l-180 -10q-6 34 -6 60q0 67 52.5 107.5t175.5 40.5
q91 0 142.5 -22t72.5 -66.5t21 -118.5v-202q0 -25 19 -25q14 0 17 1l7 -82q-21 -27 -30 -47t-9 -43q0 -13 6 -20t15 -7q11 0 21 3l9 -88q-29 -13 -68 -13zM305 133q13 22 13 85v18q-48 -4 -69.5 -24.5t-21.5 -52.5q0 -48 38 -48q27 0 40 22z" />
    <glyph glyph-name="Cacute" unicode="&#x106;" horiz-adv-x="595" 
d="M448 690.5q53 -24.5 83.5 -72.5t30.5 -117q0 -50 -14 -87h-178q6 26 6 65q0 71 -52 71q-43 0 -66 -50.5t-23 -149.5q0 -174 130 -174q42 0 76 12t71 35l68 -181q-100 -57 -243 -57q-161 0 -241.5 94t-80.5 273q0 114 37.5 195.5t108.5 124.5t169 43q65 0 118 -24.5z
M230 746l61 139h252l-113 -139h-200z" />
    <glyph glyph-name="cacute" unicode="&#x107;" horiz-adv-x="509" 
d="M395 511.5q46 -23.5 66 -60t20 -76.5q0 -46 -10 -76l-171 9q5 27 5 60q0 19 -6.5 26.5t-22.5 7.5q-26 0 -41 -32t-15 -99q0 -69 25 -101t77 -32q35 0 67.5 13.5t49.5 29.5l55 -138q-32 -25 -83.5 -41.5t-122.5 -16.5q-127 0 -197.5 65.5t-70.5 202.5t67.5 209.5
t188.5 72.5q73 0 119 -23.5zM189 561l61 169h226l-113 -169h-174z" />
    <glyph glyph-name="Ccircumflex" unicode="&#x108;" horiz-adv-x="595" 
d="M448 690.5q53 -24.5 83.5 -72.5t30.5 -117q0 -50 -14 -87h-178q6 26 6 65q0 71 -52 71q-43 0 -66 -50.5t-23 -149.5q0 -174 130 -174q42 0 76 12t71 35l68 -181q-100 -57 -243 -57q-161 0 -241.5 94t-80.5 273q0 114 37.5 195.5t108.5 124.5t169 43q65 0 118 -24.5z
M324 792l-59 -55h-169l108 139h247l106 -139h-168z" />
    <glyph glyph-name="ccircumflex" unicode="&#x109;" horiz-adv-x="509" 
d="M395 511.5q46 -23.5 66 -60t20 -76.5q0 -46 -10 -76l-171 9q5 27 5 60q0 19 -6.5 26.5t-22.5 7.5q-26 0 -41 -32t-15 -99q0 -69 25 -101t77 -32q35 0 67.5 13.5t49.5 29.5l55 -138q-32 -25 -83.5 -41.5t-122.5 -16.5q-127 0 -197.5 65.5t-70.5 202.5t67.5 209.5
t188.5 72.5q73 0 119 -23.5zM284 629l-57 -68h-152l108 169h207l106 -169h-151z" />
    <glyph glyph-name="Cdotaccent" unicode="&#x10a;" horiz-adv-x="595" 
d="M448 690.5q53 -24.5 83.5 -72.5t30.5 -117q0 -50 -14 -87h-178q6 26 6 65q0 71 -52 71q-43 0 -66 -50.5t-23 -149.5q0 -174 130 -174q42 0 76 12t71 35l68 -181q-100 -57 -243 -57q-161 0 -241.5 94t-80.5 273q0 114 37.5 195.5t108.5 124.5t169 43q65 0 118 -24.5z
M409.5 882q30.5 -23 30.5 -62q0 -38 -30.5 -60t-84.5 -22q-53 0 -82.5 22t-29.5 60q0 39 29.5 62t82.5 23q54 0 84.5 -23z" />
    <glyph glyph-name="cdotaccent" unicode="&#x10b;" horiz-adv-x="509" 
d="M395 511.5q46 -23.5 66 -60t20 -76.5q0 -46 -10 -76l-171 9q5 27 5 60q0 19 -6.5 26.5t-22.5 7.5q-26 0 -41 -32t-15 -99q0 -69 25 -101t77 -32q35 0 67.5 13.5t49.5 29.5l55 -138q-32 -25 -83.5 -41.5t-122.5 -16.5q-127 0 -197.5 65.5t-70.5 202.5t67.5 209.5
t188.5 72.5q73 0 119 -23.5zM369 724.5q30 -24.5 30 -71.5q0 -46 -30 -70t-85 -24q-54 0 -83 24.5t-29 69.5q0 47 29 71.5t83 24.5q55 0 85 -24.5z" />
    <glyph glyph-name="Ccaron" unicode="&#x10c;" horiz-adv-x="595" 
d="M448 690.5q53 -24.5 83.5 -72.5t30.5 -117q0 -50 -14 -87h-178q6 26 6 65q0 71 -52 71q-43 0 -66 -50.5t-23 -149.5q0 -174 130 -174q42 0 76 12t71 35l68 -181q-100 -57 -243 -57q-161 0 -241.5 94t-80.5 273q0 114 37.5 195.5t108.5 124.5t169 43q65 0 118 -24.5z
M449 746h-247l-106 139h168l65 -55l59 55h169z" />
    <glyph glyph-name="ccaron" unicode="&#x10d;" horiz-adv-x="509" 
d="M395 511.5q46 -23.5 66 -60t20 -76.5q0 -46 -10 -76l-171 9q5 27 5 60q0 19 -6.5 26.5t-22.5 7.5q-26 0 -41 -32t-15 -99q0 -69 25 -101t77 -32q35 0 67.5 13.5t49.5 29.5l55 -138q-32 -25 -83.5 -41.5t-122.5 -16.5q-127 0 -197.5 65.5t-70.5 202.5t67.5 209.5
t188.5 72.5q73 0 119 -23.5zM388 561h-207l-106 169h151l61 -68l57 68h152z" />
    <glyph glyph-name="Dcaron" unicode="&#x10e;" horiz-adv-x="627" 
d="M525 609.5q87 -90.5 87 -259.5t-85.5 -259.5t-243.5 -90.5h-248v700h240q163 0 250 -90.5zM367.5 209.5q30.5 43.5 30.5 140.5t-29 140.5t-93 43.5h-31v-368h24q68 0 98.5 43.5zM406 746h-247l-106 139h168l65 -55l59 55h169z" />
    <glyph glyph-name="dcaron" unicode="&#x10f;" horiz-adv-x="593" 
d="M553 0h-137l-42 106q-21 -58 -61 -89.5t-95 -31.5q-89 0 -143.5 70t-54.5 198q0 136 56.5 209t151.5 73q76 0 125 -34v229h200v-730zM339.5 168.5q13.5 23.5 13.5 74.5v135q-25 14 -54 14q-41 0 -60 -27t-19 -93q0 -61 19.5 -94t53.5 -33q33 0 46.5 23.5zM720 732
q23 -26 23 -74q0 -53 -39 -80.5t-110 -26.5l-4 43q48 1 70 11t27 32q-17 -9 -40 -9q-33 0 -52.5 17.5t-19.5 48.5q0 30 21.5 47t60.5 17q40 0 63 -26z" />
    <glyph glyph-name="Dcroat" unicode="&#x110;" horiz-adv-x="665" 
d="M563 609.5q87 -90.5 87 -259.5t-85.5 -259.5t-243.5 -90.5h-248v265h-63v180h63v255h240q163 0 250 -90.5zM405.5 209.5q30.5 43.5 30.5 140.5t-29 140.5t-93 43.5h-31v-89h82v-180h-82v-99h24q68 0 98.5 43.5z" />
    <glyph glyph-name="dcroat" unicode="&#x111;" horiz-adv-x="593" 
d="M553 572v-572h-137l-42 106q-21 -58 -61 -89.5t-95 -31.5q-89 0 -143.5 70t-54.5 198q0 136 56.5 209t151.5 73q76 0 125 -34v71h-149v116h149v42h200v-42h39v-116h-39zM339.5 168.5q13.5 23.5 13.5 74.5v135q-25 14 -54 14q-41 0 -60 -27t-19 -93q0 -61 19.5 -94
t53.5 -33q33 0 46.5 23.5z" />
    <glyph glyph-name="Emacron" unicode="&#x112;" horiz-adv-x="551" 
d="M531 0h-496v700h476v-167h-266v-101h235v-152h-235v-113h286v-167zM474 748h-393v145h393v-145z" />
    <glyph glyph-name="emacron" unicode="&#x113;" horiz-adv-x="514" 
d="M288 -15q-268 0 -268 275q0 134 71 204.5t192 70.5q56 0 101.5 -22t72.5 -66.5t27 -108.5q0 -32 -5 -63.5t-16 -51.5h-241q6 -46 32.5 -68.5t66.5 -22.5q36 0 57.5 11t51.5 37l64 -141q-92 -54 -206 -54zM223 318h82q5 19 5 56q0 23 -9 37t-27 14q-42 0 -51 -107z
M456 573h-353v145h353v-145z" />
    <glyph glyph-name="Ebreve" unicode="&#x114;" horiz-adv-x="551" 
d="M531 0h-496v700h476v-167h-266v-101h235v-152h-235v-113h286v-167zM411 773q-42 -40 -133 -40t-133 40t-42 126h100q0 -52 75 -52q35 0 55 13.5t20 38.5h100q0 -86 -42 -126z" />
    <glyph glyph-name="ebreve" unicode="&#x115;" horiz-adv-x="514" 
d="M288 -15q-268 0 -268 275q0 134 71 204.5t192 70.5q56 0 101.5 -22t72.5 -66.5t27 -108.5q0 -32 -5 -63.5t-16 -51.5h-241q6 -46 32.5 -68.5t66.5 -22.5q36 0 57.5 11t51.5 37l64 -141q-92 -54 -206 -54zM223 318h82q5 19 5 56q0 23 -9 37t-27 14q-42 0 -51 -107z
M413 599.5q-42 -41.5 -133 -41.5t-133 41.5t-42 133.5h100q0 -27 18 -39.5t57 -12.5q75 0 75 52h100q0 -92 -42 -133.5z" />
    <glyph glyph-name="Edotaccent" unicode="&#x116;" horiz-adv-x="551" 
d="M531 0h-496v700h476v-167h-266v-101h235v-152h-235v-113h286v-167zM360.5 882q30.5 -23 30.5 -62q0 -38 -30.5 -60t-84.5 -22q-53 0 -82.5 22t-29.5 60q0 39 29.5 62t82.5 23q54 0 84.5 -23z" />
    <glyph glyph-name="edotaccent" unicode="&#x117;" horiz-adv-x="514" 
d="M288 -15q-268 0 -268 275q0 134 71 204.5t192 70.5q56 0 101.5 -22t72.5 -66.5t27 -108.5q0 -32 -5 -63.5t-16 -51.5h-241q6 -46 32.5 -68.5t66.5 -22.5q36 0 57.5 11t51.5 37l64 -141q-92 -54 -206 -54zM223 318h82q5 19 5 56q0 23 -9 37t-27 14q-42 0 -51 -107z
M363 724.5q30 -24.5 30 -71.5q0 -46 -30 -70t-85 -24q-54 0 -83 24.5t-29 69.5q0 47 29 71.5t83 24.5q55 0 85 -24.5z" />
    <glyph glyph-name="Eogonek" unicode="&#x118;" horiz-adv-x="551" 
d="M470 -215q-49 0 -77.5 22t-28.5 65q0 39 23.5 71.5t60.5 56.5h-413v700h476v-167h-266v-101h235v-152h-235v-113h286v-167h-5q-21 -27 -30 -47t-9 -43q0 -13 6 -20t15 -7q10 0 21 3l9 -88q-29 -13 -68 -13z" />
    <glyph glyph-name="eogonek" unicode="&#x119;" horiz-adv-x="514" 
d="M445 -100l9 -88q-29 -13 -68 -13q-49 0 -77.5 22t-28.5 65q0 55 49 101q-26 -2 -41 -2q-268 0 -268 275q0 134 71 204.5t192 70.5q56 0 101.5 -22t72.5 -66.5t27 -108.5q0 -32 -5 -63.5t-16 -51.5h-241q6 -46 32.5 -68.5t66.5 -22.5q36 0 57.5 11t51.5 37l64 -141
q-18 -11 -53 -26q-21 -28 -29.5 -47.5t-8.5 -41.5q0 -13 6 -20t15 -7q11 0 21 3zM223 318h82q5 19 5 56q0 23 -9 37t-27 14q-42 0 -51 -107z" />
    <glyph glyph-name="Ecaron" unicode="&#x11a;" horiz-adv-x="551" 
d="M531 0h-496v700h476v-167h-266v-101h235v-152h-235v-113h286v-167zM400 746h-247l-106 139h168l65 -55l59 55h169z" />
    <glyph glyph-name="ecaron" unicode="&#x11b;" horiz-adv-x="514" 
d="M288 -15q-268 0 -268 275q0 134 71 204.5t192 70.5q56 0 101.5 -22t72.5 -66.5t27 -108.5q0 -32 -5 -63.5t-16 -51.5h-241q6 -46 32.5 -68.5t66.5 -22.5q36 0 57.5 11t51.5 37l64 -141q-92 -54 -206 -54zM223 318h82q5 19 5 56q0 23 -9 37t-27 14q-42 0 -51 -107z
M382 561h-207l-106 169h151l61 -68l57 68h152z" />
    <glyph glyph-name="Gcircumflex" unicode="&#x11c;" horiz-adv-x="643" 
d="M613 0h-104l-28 76q-59 -91 -189 -91q-135 0 -206 92t-71 262q0 184 82 280t241 96q71 0 130 -24t94 -71t35 -113q0 -15 -3.5 -32.5t-9.5 -29.5h-183q5 17 5 40q0 31 -18.5 48t-51.5 17q-58 0 -82.5 -49t-24.5 -162q0 -101 24 -146.5t77 -45.5q39 0 61 23t29 73h-104v148
h297v-391zM335 792l-59 -55h-169l108 139h247l106 -139h-168z" />
    <glyph glyph-name="gcircumflex" unicode="&#x11d;" horiz-adv-x="598" 
d="M558 93q0 -148 -78 -228t-224 -80q-134 0 -241 38l84 176q29 -31 63.5 -49t72.5 -18q67 0 95 32t28 109q-47 -73 -135 -73q-89 0 -143.5 66.5t-54.5 186.5q0 136 60 209t162 73q53 0 91.5 -17.5t68.5 -52.5l36 55h115v-427zM344.5 172.5q13.5 22.5 13.5 70.5v135
q-25 14 -54 14q-41 0 -60 -27t-19 -93q0 -59 19.5 -90.5t53.5 -31.5q33 0 46.5 22.5zM303 629l-57 -68h-152l108 169h207l106 -169h-151z" />
    <glyph glyph-name="Gbreve" unicode="&#x11e;" horiz-adv-x="643" 
d="M613 0h-104l-28 76q-59 -91 -189 -91q-135 0 -206 92t-71 262q0 184 82 280t241 96q71 0 130 -24t94 -71t35 -113q0 -15 -3.5 -32.5t-9.5 -29.5h-183q5 17 5 40q0 31 -18.5 48t-51.5 17q-58 0 -82.5 -49t-24.5 -162q0 -101 24 -146.5t77 -45.5q39 0 61 23t29 73h-104v148
h297v-391zM471 773q-42 -40 -133 -40t-133 40t-42 126h100q0 -52 75 -52q35 0 55 13.5t20 38.5h100q0 -86 -42 -126z" />
    <glyph glyph-name="gbreve" unicode="&#x11f;" horiz-adv-x="598" 
d="M558 93q0 -148 -78 -228t-224 -80q-134 0 -241 38l84 176q29 -31 63.5 -49t72.5 -18q67 0 95 32t28 109q-47 -73 -135 -73q-89 0 -143.5 66.5t-54.5 186.5q0 136 60 209t162 73q53 0 91.5 -17.5t68.5 -52.5l36 55h115v-427zM344.5 172.5q13.5 22.5 13.5 70.5v135
q-25 14 -54 14q-41 0 -60 -27t-19 -93q0 -59 19.5 -90.5t53.5 -31.5q33 0 46.5 22.5zM438 599.5q-42 -41.5 -133 -41.5t-133 41.5t-42 133.5h100q0 -27 18 -39.5t57 -12.5q75 0 75 52h100q0 -92 -42 -133.5z" />
    <glyph glyph-name="Gdotaccent" unicode="&#x120;" horiz-adv-x="643" 
d="M613 0h-104l-28 76q-59 -91 -189 -91q-135 0 -206 92t-71 262q0 184 82 280t241 96q71 0 130 -24t94 -71t35 -113q0 -15 -3.5 -32.5t-9.5 -29.5h-183q5 17 5 40q0 31 -18.5 48t-51.5 17q-58 0 -82.5 -49t-24.5 -162q0 -101 24 -146.5t77 -45.5q39 0 61 23t29 73h-104v148
h297v-391zM420.5 882q30.5 -23 30.5 -62q0 -38 -30.5 -60t-84.5 -22q-53 0 -82.5 22t-29.5 60q0 39 29.5 62t82.5 23q54 0 84.5 -23z" />
    <glyph glyph-name="gdotaccent" unicode="&#x121;" horiz-adv-x="598" 
d="M558 93q0 -148 -78 -228t-224 -80q-134 0 -241 38l84 176q29 -31 63.5 -49t72.5 -18q67 0 95 32t28 109q-47 -73 -135 -73q-89 0 -143.5 66.5t-54.5 186.5q0 136 60 209t162 73q53 0 91.5 -17.5t68.5 -52.5l36 55h115v-427zM344.5 172.5q13.5 22.5 13.5 70.5v135
q-25 14 -54 14q-41 0 -60 -27t-19 -93q0 -59 19.5 -90.5t53.5 -31.5q33 0 46.5 22.5zM388 724.5q30 -24.5 30 -71.5q0 -46 -30 -70t-85 -24q-54 0 -83 24.5t-29 69.5q0 47 29 71.5t83 24.5q55 0 85 -24.5z" />
    <glyph glyph-name="Gcommaaccent" unicode="&#x122;" horiz-adv-x="643" 
d="M613 0h-104l-28 76q-59 -91 -189 -91q-135 0 -206 92t-71 262q0 184 82 280t241 96q71 0 130 -24t94 -71t35 -113q0 -15 -3.5 -32.5t-9.5 -29.5h-183q5 17 5 40q0 31 -18.5 48t-51.5 17q-58 0 -82.5 -49t-24.5 -162q0 -101 24 -146.5t77 -45.5q39 0 61 23t29 73h-104v148
h297v-391zM403.5 -53q27.5 -24 27.5 -66q0 -51 -42 -77t-132 -26l-6 41q59 0 87 10.5t33 30.5q-17 -15 -53 -15q-40 0 -62 16.5t-22 45.5q0 30 23.5 47t68.5 17q50 0 77.5 -24z" />
    <glyph glyph-name="gcommaaccent" unicode="&#x123;" horiz-adv-x="598" 
d="M558 93q0 -148 -78 -228t-224 -80q-134 0 -241 38l84 176q29 -31 63.5 -49t72.5 -18q67 0 95 32t28 109q-47 -73 -135 -73q-89 0 -143.5 66.5t-54.5 186.5q0 136 60 209t162 73q53 0 91.5 -17.5t68.5 -52.5l36 55h115v-427zM344.5 172.5q13.5 22.5 13.5 70.5v135
q-25 14 -54 14q-41 0 -60 -27t-19 -93q0 -59 19.5 -90.5t53.5 -31.5q33 0 46.5 22.5zM233.5 573q-27.5 24 -27.5 66q0 51 42 77t132 26l6 -41q-59 0 -87 -10.5t-33 -30.5q17 15 53 15q40 0 62 -16.5t22 -45.5q0 -30 -23.5 -47t-68.5 -17q-50 0 -77.5 24z" />
    <glyph glyph-name="Hcircumflex" unicode="&#x124;" horiz-adv-x="655" 
d="M620 0h-210v264h-165v-264h-210v700h210v-256h165v256h210v-700zM325 792l-59 -55h-169l108 139h247l106 -139h-168z" />
    <glyph glyph-name="hcircumflex" unicode="&#x125;" horiz-adv-x="593" 
d="M519.5 483.5q38.5 -51.5 38.5 -169.5v-314h-200v299q0 71 -54 71q-59 0 -59 -76v-294h-200v730h200v-294q43 99 155 99q81 0 119.5 -51.5zM143 829l-57 -68h-152l108 169h207l106 -169h-151z" />
    <glyph glyph-name="Hbar" unicode="&#x126;" horiz-adv-x="687" 
d="M645 483v-483h-210v244h-165v-244h-210v483h-40v145h40v72h210v-72h165v72h210v-72h40v-145h-40zM270 483v-59h165v59h-165z" />
    <glyph glyph-name="hbar" unicode="&#x127;" horiz-adv-x="593" 
d="M519.5 483.5q38.5 -51.5 38.5 -169.5v-314h-200v299q0 71 -54 71q-59 0 -59 -76v-294h-200v572h-43v116h43v42h200v-42h145v-116h-145v-136q43 99 155 99q81 0 119.5 -51.5z" />
    <glyph glyph-name="Itilde" unicode="&#x128;" horiz-adv-x="280" 
d="M35 0v700h210v-700h-210zM323.5 782.5q-36.5 -42.5 -107.5 -42.5q-30 0 -54 7t-57 20q-15 6 -30.5 11t-26.5 5q-18 0 -30 -11t-12 -29h-86q0 83 34.5 126t102.5 43q33 0 59 -7t58 -19q39 -16 59 -16q19 0 30 10.5t11 28.5h86q0 -84 -36.5 -126.5z" />
    <glyph glyph-name="itilde" unicode="&#x129;" horiz-adv-x="300" 
d="M45 0v520h210v-520h-210zM306.5 607.5q-33.5 -42.5 -98.5 -42.5q-27 0 -46.5 7.5t-41.5 21.5q-11 7 -21 12t-19 5q-16 0 -25.5 -11.5t-9.5 -31.5h-85q0 83 31.5 126t93.5 43q29 0 50 -7.5t44 -21.5q14 -8 23 -12t18 -4q35 0 35 42h85q0 -84 -33.5 -126.5z" />
    <glyph glyph-name="Imacron" unicode="&#x12a;" horiz-adv-x="280" 
d="M35 0v700h210v-700h-210zM336 748h-393v145h393v-145z" />
    <glyph glyph-name="imacron" unicode="&#x12b;" horiz-adv-x="300" 
d="M45 0v520h210v-520h-210zM326 573h-353v145h353v-145z" />
    <glyph glyph-name="Ibreve" unicode="&#x12c;" horiz-adv-x="280" 
d="M35 0v700h210v-700h-210zM273 773q-42 -40 -133 -40t-133 40t-42 126h100q0 -52 75 -52q35 0 55 13.5t20 38.5h100q0 -86 -42 -126z" />
    <glyph glyph-name="ibreve" unicode="&#x12d;" horiz-adv-x="300" 
d="M45 0v520h210v-520h-210zM283 599.5q-42 -41.5 -133 -41.5t-133 41.5t-42 133.5h100q0 -27 18 -39.5t57 -12.5q75 0 75 52h100q0 -92 -42 -133.5z" />
    <glyph glyph-name="Iogonek" unicode="&#x12e;" horiz-adv-x="280" 
d="M182 -47q-9 -20 -9 -43q0 -13 6 -20t15 -7q11 0 21 3l9 -88q-29 -13 -68 -13q-49 0 -77.5 22t-28.5 65q0 39 23.5 71.5t60.5 56.5h-99v700h210v-700h-33q-21 -27 -30 -47z" />
    <glyph glyph-name="iogonek" unicode="&#x12f;" horiz-adv-x="300" 
d="M65 583.5q-29 24.5 -29 69.5q0 47 29 71.5t83 24.5q55 0 85 -24.5t30 -71.5q0 -46 -30 -70t-85 -24q-54 0 -83 24.5zM255 520v-520h-21q-21 -27 -30 -47t-9 -43q0 -13 6 -20t15 -7q11 0 21 3l9 -88q-29 -13 -68 -13q-49 0 -77.5 22t-28.5 65q0 39 23.5 71.5t60.5 56.5
h-111v520h210z" />
    <glyph glyph-name="Idotaccent" unicode="&#x130;" horiz-adv-x="280" 
d="M35 0v700h210v-700h-210zM222.5 882q30.5 -23 30.5 -62q0 -38 -30.5 -60t-84.5 -22q-53 0 -82.5 22t-29.5 60q0 39 29.5 62t82.5 23q54 0 84.5 -23z" />
    <glyph glyph-name="dotlessi" unicode="&#x131;" horiz-adv-x="300" 
d="M45 0v520h210v-520h-210z" />
    <glyph glyph-name="IJ" unicode="&#x132;" horiz-adv-x="688" 
d="M35 0v700h210v-700h-210zM597 43.5q-61 -58.5 -176 -58.5q-80 0 -149 23l54 174q20 -16 35 -22.5t35 -6.5q29 0 40.5 19t11.5 71v457h210v-483q0 -115 -61 -173.5z" />
    <glyph glyph-name="ij" unicode="&#x133;" horiz-adv-x="590" 
d="M233 724.5q30 -24.5 30 -71.5q0 -46 -30 -70t-85 -24q-54 0 -83 24.5t-29 69.5q0 47 29 71.5t83 24.5q55 0 85 -24.5zM528 724.5q30 -24.5 30 -71.5q0 -46 -30 -70t-85 -24q-54 0 -83 24.5t-29 69.5q0 47 29 71.5t83 24.5q55 0 85 -24.5zM45 0v520h210v-520h-210z
M334 -69.5q11 11.5 11 33.5v556h200v-511q0 -119 -60.5 -171.5t-184.5 -52.5q-23 0 -48.5 4t-45.5 11l49 147q25 -28 50 -28q18 0 29 11.5z" />
    <glyph glyph-name="Jcircumflex" unicode="&#x134;" horiz-adv-x="408" 
d="M317 43.5q-61 -58.5 -176 -58.5q-80 0 -149 23l54 174q20 -16 35 -22.5t35 -6.5q29 0 40.5 19t11.5 71v457h210v-483q0 -115 -61 -173.5zM281 792l-59 -55h-169l108 139h247l106 -139h-168z" />
    <glyph glyph-name="jcircumflex" unicode="&#x135;" horiz-adv-x="290" 
d="M34 -69.5q11 11.5 11 33.5v556h200v-511q0 -119 -60.5 -171.5t-184.5 -52.5q-23 0 -48.5 4t-45.5 11l49 147q25 -28 50 -28q18 0 29 11.5zM143 629l-57 -68h-152l108 169h207l106 -169h-151z" />
    <glyph glyph-name="Kcommaaccent" unicode="&#x136;" horiz-adv-x="686" 
d="M245 157v-157h-210v700h210v-286l193 286h220l-209 -275l217 -425h-254l-105 238zM411.5 -53q27.5 -24 27.5 -66q0 -51 -42 -77t-132 -26l-6 41q59 0 87 10.5t33 30.5q-17 -15 -53 -15q-40 0 -62 16.5t-22 45.5q0 30 23.5 47t68.5 17q50 0 77.5 -24z" />
    <glyph glyph-name="kcommaaccent" unicode="&#x137;" horiz-adv-x="615" 
d="M245 113v-113h-200v730h200v-396l133 186h212l-162 -192l177 -328h-224l-86 172zM379.5 -53q27.5 -24 27.5 -66q0 -51 -42 -77t-132 -26l-6 41q59 0 87 10.5t33 30.5q-17 -15 -53 -15q-40 0 -62 16.5t-22 45.5q0 30 23.5 47t68.5 17q50 0 77.5 -24z" />
    <glyph glyph-name="kgreenlandic" unicode="&#x138;" horiz-adv-x="610" 
d="M240 113v-113h-200v520h200v-193l144 193h201l-162 -192l177 -328h-224l-86 172z" />
    <glyph glyph-name="Lacute" unicode="&#x139;" horiz-adv-x="476" 
d="M466 0h-431v700h210v-520h221v-180zM47 746l61 139h252l-113 -139h-200z" />
    <glyph glyph-name="lacute" unicode="&#x13a;" horiz-adv-x="316" 
d="M245.5 115.5q5.5 -11.5 17.5 -11.5q11 0 22 7l26 -104q-32 -13 -57 -17.5t-63 -4.5q-77 0 -114 38.5t-37 118.5v588h200v-576q0 -27 5.5 -38.5zM61 761l61 169h226l-113 -169h-174z" />
    <glyph glyph-name="Lcommaaccent" unicode="&#x13b;" horiz-adv-x="476" 
d="M466 0h-431v700h210v-520h221v-180zM329.5 -53q27.5 -24 27.5 -66q0 -51 -42 -77t-132 -26l-6 41q59 0 87 10.5t33 30.5q-17 -15 -53 -15q-40 0 -62 16.5t-22 45.5q0 30 23.5 47t68.5 17q50 0 77.5 -24z" />
    <glyph glyph-name="lcommaaccent" unicode="&#x13c;" horiz-adv-x="316" 
d="M245.5 115.5q5.5 -11.5 17.5 -11.5q11 0 22 7l26 -104q-32 -13 -57 -17.5t-63 -4.5q-77 0 -114 38.5t-37 118.5v588h200v-576q0 -27 5.5 -38.5zM249.5 -53q27.5 -24 27.5 -66q0 -51 -42 -77t-132 -26l-6 41q59 0 87 10.5t33 30.5q-17 -15 -53 -15q-40 0 -62 16.5
t-22 45.5q0 30 23.5 47t68.5 17q50 0 77.5 -24z" />
    <glyph glyph-name="Lcaron" unicode="&#x13d;" horiz-adv-x="476" 
d="M466 0h-431v700h210v-520h221v-180zM433 692q23 -26 23 -74q0 -53 -39 -80.5t-110 -26.5l-4 43q48 1 70 11t27 32q-17 -9 -40 -9q-33 0 -52.5 17.5t-19.5 48.5q0 30 21.5 47t60.5 17q40 0 63 -26z" />
    <glyph glyph-name="lcaron" unicode="&#x13e;" horiz-adv-x="316" 
d="M245.5 115.5q5.5 -11.5 17.5 -11.5q11 0 22 7l26 -104q-32 -13 -57 -17.5t-63 -4.5q-77 0 -114 38.5t-37 118.5v588h200v-576q0 -27 5.5 -38.5zM403 732q23 -26 23 -74q0 -53 -39 -80.5t-110 -26.5l-4 43q48 1 70 11t27 32q-17 -9 -40 -9q-33 0 -52.5 17.5t-19.5 48.5
q0 30 21.5 47t60.5 17q40 0 63 -26z" />
    <glyph glyph-name="Ldot" unicode="&#x13f;" horiz-adv-x="476" 
d="M466 180v-180h-431v700h210v-520h221zM304.5 292q-27.5 27 -27.5 76t27.5 76t76.5 27t76.5 -27t27.5 -76t-27.5 -76t-76.5 -27t-76.5 27z" />
    <glyph glyph-name="ldot" unicode="&#x140;" horiz-adv-x="452" 
d="M245.5 115.5q5.5 -11.5 17.5 -11.5q11 0 22 7l26 -104q-32 -13 -57 -17.5t-63 -4.5q-77 0 -114 38.5t-37 118.5v588h200v-576q0 -27 5.5 -38.5zM440.5 421q27.5 -27 27.5 -76t-27.5 -76t-76.5 -27t-76.5 27t-27.5 76t27.5 76t76.5 27t76.5 -27z" />
    <glyph glyph-name="Lslash" unicode="&#x141;" horiz-adv-x="496" 
d="M486 0h-431v179l-45 -25v210l45 25v311h210v-212l100 56v-210l-100 -56v-98h221v-180z" />
    <glyph glyph-name="lslash" unicode="&#x142;" horiz-adv-x="332" 
d="M270 -10.5q-25 -4.5 -63 -4.5q-77 0 -114 38.5t-37 118.5v76l-51 -25v185l51 25v327h200v-250l70 34v-185l-70 -34v-141q0 -27 5.5 -38.5t17.5 -11.5q11 0 22 7l26 -104q-32 -13 -57 -17.5z" />
    <glyph glyph-name="Nacute" unicode="&#x143;" horiz-adv-x="635" 
d="M600 0h-174l-207 340v-340h-184v700h204l177 -300v300h184v-700zM221 746l61 139h252l-113 -139h-200z" />
    <glyph glyph-name="nacute" unicode="&#x144;" horiz-adv-x="588" 
d="M513 485q40 -50 40 -165v-320h-200v299q0 71 -54 71q-59 0 -59 -76v-294h-200v520h147l29 -108q22 59 66.5 91t106.5 32q84 0 124 -50zM201 561l61 169h226l-113 -169h-174z" />
    <glyph glyph-name="Ncommaaccent" unicode="&#x145;" horiz-adv-x="635" 
d="M600 0h-174l-207 340v-340h-184v700h204l177 -300v300h184v-700zM389.5 -53q27.5 -24 27.5 -66q0 -51 -42 -77t-132 -26l-6 41q59 0 87 10.5t33 30.5q-17 -15 -53 -15q-40 0 -62 16.5t-22 45.5q0 30 23.5 47t68.5 17q50 0 77.5 -24z" />
    <glyph glyph-name="ncommaaccent" unicode="&#x146;" horiz-adv-x="588" 
d="M513 485q40 -50 40 -165v-320h-200v299q0 71 -54 71q-59 0 -59 -76v-294h-200v520h147l29 -108q22 59 66.5 91t106.5 32q84 0 124 -50zM365.5 -53q27.5 -24 27.5 -66q0 -51 -42 -77t-132 -26l-6 41q59 0 87 10.5t33 30.5q-17 -15 -53 -15q-40 0 -62 16.5t-22 45.5
q0 30 23.5 47t68.5 17q50 0 77.5 -24z" />
    <glyph glyph-name="Ncaron" unicode="&#x147;" horiz-adv-x="635" 
d="M600 0h-174l-207 340v-340h-184v700h204l177 -300v300h184v-700zM440 746h-247l-106 139h168l65 -55l59 55h169z" />
    <glyph glyph-name="ncaron" unicode="&#x148;" horiz-adv-x="588" 
d="M513 485q40 -50 40 -165v-320h-200v299q0 71 -54 71q-59 0 -59 -76v-294h-200v520h147l29 -108q22 59 66.5 91t106.5 32q84 0 124 -50zM400 561h-207l-106 169h151l61 -68l57 68h152z" />
    <glyph glyph-name="napostrophe" unicode="&#x149;" horiz-adv-x="678" 
d="M179.5 719q27.5 -24 27.5 -66q0 -51 -42 -77t-132 -26l-6 41q59 0 87 10.5t33 30.5q-17 -15 -53 -15q-40 0 -62 16.5t-22 45.5q0 30 23.5 47t68.5 17q50 0 77.5 -24zM603 485q40 -50 40 -165v-320h-200v299q0 71 -54 71q-59 0 -59 -76v-294h-200v520h147l29 -108
q22 59 66.5 91t106.5 32q84 0 124 -50z" />
    <glyph glyph-name="Eng" unicode="&#x14a;" horiz-adv-x="635" 
d="M600 27q0 -123 -59.5 -182.5t-177.5 -59.5q-80 0 -149 23l54 174q21 -16 37.5 -22.5t39.5 -6.5q35 0 51 13.5t19 51.5l-196 322v-340h-184v700h204l177 -300v300h184v-673z" />
    <glyph glyph-name="eng" unicode="&#x14b;" horiz-adv-x="588" 
d="M513 485q40 -50 40 -165v-311q0 -119 -60.5 -171.5t-184.5 -52.5q-25 0 -53.5 4t-49.5 11l49 147q30 -28 59 -28q18 0 29 11.5t11 33.5v335q0 71 -54 71q-59 0 -59 -76v-294h-200v520h147l29 -108q22 59 66.5 91t106.5 32q84 0 124 -50z" />
    <glyph glyph-name="Omacron" unicode="&#x14c;" horiz-adv-x="650" 
d="M555 621q80 -94 80 -269q0 -177 -80 -272t-230 -95q-149 0 -229.5 95t-80.5 272q0 175 80.5 269t229.5 94q150 0 230 -94zM256.5 499q-21.5 -46 -21.5 -147q0 -103 21.5 -150t68.5 -47t68.5 47t21.5 150q0 101 -21.5 147t-68.5 46t-68.5 -46zM521 748h-393v145h393v-145z
" />
    <glyph glyph-name="omacron" unicode="&#x14d;" horiz-adv-x="577" 
d="M487.5 463.5q69.5 -71.5 69.5 -203.5t-69.5 -203.5t-196.5 -71.5q-129 0 -200 71t-71 202q0 133 71 205t200 72q127 0 196.5 -71.5zM237 370.5q-17 -34.5 -17 -112.5q0 -76 17 -109.5t54 -33.5q35 0 50.5 34t15.5 111t-15.5 111t-50.5 34q-37 0 -54 -34.5zM465 573h-353
v145h353v-145z" />
    <glyph glyph-name="Obreve" unicode="&#x14e;" horiz-adv-x="650" 
d="M555 621q80 -94 80 -269q0 -177 -80 -272t-230 -95q-149 0 -229.5 95t-80.5 272q0 175 80.5 269t229.5 94q150 0 230 -94zM256.5 499q-21.5 -46 -21.5 -147q0 -103 21.5 -150t68.5 -47t68.5 47t21.5 150q0 101 -21.5 147t-68.5 46t-68.5 -46zM458 773q-42 -40 -133 -40
t-133 40t-42 126h100q0 -52 75 -52q35 0 55 13.5t20 38.5h100q0 -86 -42 -126z" />
    <glyph glyph-name="obreve" unicode="&#x14f;" horiz-adv-x="577" 
d="M487.5 463.5q69.5 -71.5 69.5 -203.5t-69.5 -203.5t-196.5 -71.5q-129 0 -200 71t-71 202q0 133 71 205t200 72q127 0 196.5 -71.5zM237 370.5q-17 -34.5 -17 -112.5q0 -76 17 -109.5t54 -33.5q35 0 50.5 34t15.5 111t-15.5 111t-50.5 34q-37 0 -54 -34.5zM422 599.5
q-42 -41.5 -133 -41.5t-133 41.5t-42 133.5h100q0 -27 18 -39.5t57 -12.5q75 0 75 52h100q0 -92 -42 -133.5z" />
    <glyph glyph-name="Ohungarumlaut" unicode="&#x150;" horiz-adv-x="650" 
d="M555 621q80 -94 80 -269q0 -177 -80 -272t-230 -95q-149 0 -229.5 95t-80.5 272q0 175 80.5 269t229.5 94q150 0 230 -94zM256.5 499q-21.5 -46 -21.5 -147q0 -103 21.5 -150t68.5 -47t68.5 47t21.5 150q0 101 -21.5 147t-68.5 46t-68.5 -46zM148 746l44 149h202
l-96 -149h-150zM338 746l101 149h202l-143 -149h-160z" />
    <glyph glyph-name="ohungarumlaut" unicode="&#x151;" horiz-adv-x="577" 
d="M487.5 463.5q69.5 -71.5 69.5 -203.5t-69.5 -203.5t-196.5 -71.5q-129 0 -200 71t-71 202q0 133 71 205t200 72q127 0 196.5 -71.5zM237 370.5q-17 -34.5 -17 -112.5q0 -76 17 -109.5t54 -33.5q35 0 50.5 34t15.5 111t-15.5 111t-50.5 34q-37 0 -54 -34.5zM137 561
l44 169h182l-96 -169h-130zM307 561l101 169h182l-143 -169h-140z" />
    <glyph glyph-name="OE" unicode="&#x152;" horiz-adv-x="923" 
d="M903 0h-422q-37 -8 -68 -11.5t-69 -3.5q-156 0 -242.5 95.5t-86.5 271.5q0 174 87 268.5t242 94.5q38 0 69 -3.5t68 -11.5h402v-167h-266v-101h235v-152h-235v-113h286v-167zM262 199q27 -44 88 -44q34 0 57 5v380q-23 5 -57 5q-61 0 -88 -43.5t-27 -149.5
q0 -109 27 -153z" />
    <glyph glyph-name="oe" unicode="&#x153;" horiz-adv-x="855" 
d="M629 -15q-117 0 -176 66q-60 -66 -169 -66q-125 0 -194.5 71.5t-69.5 201.5q0 133 69.5 205t194.5 72q111 0 171 -69q63 69 169 69q56 0 101.5 -22t72.5 -66.5t27 -108.5q0 -32 -5 -64.5t-16 -52.5l-241 1q6 -46 32.5 -68t66.5 -22q39 0 63 11t56 37l54 -141
q-92 -54 -206 -54zM563 313l82 -1q6 24 6 59q0 47 -36 47q-43 0 -52 -105zM334.5 149q15.5 34 15.5 111t-15.5 111t-50.5 34q-37 0 -54 -34.5t-17 -112.5q0 -76 17 -109.5t54 -33.5q35 0 50.5 34z" />
    <glyph glyph-name="Racute" unicode="&#x154;" horiz-adv-x="643" 
d="M245 245v-245h-210v700h309q127 0 195.5 -55.5t68.5 -161.5q0 -140 -109 -187l122 -296h-242l-78 245h-56zM328 397q36 0 54 17.5t18 55.5q0 40 -18 59t-54 19h-83v-151h83zM195 746l61 139h252l-113 -139h-200z" />
    <glyph glyph-name="racute" unicode="&#x155;" horiz-adv-x="487" 
d="M450.5 498q26.5 -37 26.5 -104q0 -41 -12 -76t-29 -60l-132 13q8 32 8 58q0 41 -30 41q-20 0 -31 -21t-11 -78v-271h-200v520h147l28 -104q20 57 59 88t95 31q55 0 81.5 -37zM147 561l61 169h226l-113 -169h-174z" />
    <glyph glyph-name="Rcommaaccent" unicode="&#x156;" horiz-adv-x="643" 
d="M245 245v-245h-210v700h309q127 0 195.5 -55.5t68.5 -161.5q0 -140 -109 -187l122 -296h-242l-78 245h-56zM328 397q36 0 54 17.5t18 55.5q0 40 -18 59t-54 19h-83v-151h83zM393.5 -53q27.5 -24 27.5 -66q0 -51 -42 -77t-132 -26l-6 41q59 0 87 10.5t33 30.5
q-17 -15 -53 -15q-40 0 -62 16.5t-22 45.5q0 30 23.5 47t68.5 17q50 0 77.5 -24z" />
    <glyph glyph-name="rcommaaccent" unicode="&#x157;" horiz-adv-x="487" 
d="M450.5 498q26.5 -37 26.5 -104q0 -41 -12 -76t-29 -60l-132 13q8 32 8 58q0 41 -30 41q-20 0 -31 -21t-11 -78v-271h-200v520h147l28 -104q20 57 59 88t95 31q55 0 81.5 -37zM211.5 -53q27.5 -24 27.5 -66q0 -51 -42 -77t-132 -26l-6 41q59 0 87 10.5t33 30.5
q-17 -15 -53 -15q-40 0 -62 16.5t-22 45.5q0 30 23.5 47t68.5 17q50 0 77.5 -24z" />
    <glyph glyph-name="Rcaron" unicode="&#x158;" horiz-adv-x="643" 
d="M245 245v-245h-210v700h309q127 0 195.5 -55.5t68.5 -161.5q0 -140 -109 -187l122 -296h-242l-78 245h-56zM328 397q36 0 54 17.5t18 55.5q0 40 -18 59t-54 19h-83v-151h83zM414 746h-247l-106 139h168l65 -55l59 55h169z" />
    <glyph glyph-name="rcaron" unicode="&#x159;" horiz-adv-x="487" 
d="M450.5 498q26.5 -37 26.5 -104q0 -41 -12 -76t-29 -60l-132 13q8 32 8 58q0 41 -30 41q-20 0 -31 -21t-11 -78v-271h-200v520h147l28 -104q20 57 59 88t95 31q55 0 81.5 -37zM346 561h-207l-106 169h151l61 -68l57 68h152z" />
    <glyph glyph-name="Sacute" unicode="&#x15a;" horiz-adv-x="612" 
d="M459 691.5q55 -23.5 83.5 -64t28.5 -88.5q0 -43 -14 -76h-188q7 19 7 39q0 24 -17 34.5t-52 10.5q-32 0 -49 -13t-17 -35q0 -24 16.5 -38t41.5 -20.5t69 -12.5q72 -10 119 -26t81 -59.5t34 -125.5q0 -109 -78 -170.5t-215 -61.5q-195 0 -304 83l108 173q37 -35 90.5 -62
t117.5 -27q44 0 60 7t16 21q0 17 -21.5 25t-70.5 16q-77 14 -130.5 33.5t-94 71t-40.5 144.5q0 75 35 130.5t100 85t154 29.5q75 0 130 -23.5zM214 746l61 139h252l-113 -139h-200z" />
    <glyph glyph-name="sacute" unicode="&#x15b;" horiz-adv-x="503" 
d="M416 497q54 -38 54 -108q0 -27 -5 -52l-153 12q3 18 3 30q0 14 -15.5 23.5t-43.5 9.5q-24 0 -40 -10t-16 -27q0 -24 24.5 -34.5t75.5 -17.5q60 -10 98.5 -23t66.5 -47t28 -97q0 -82 -63 -126.5t-174 -44.5q-76 0 -144.5 19.5t-106.5 46.5l87 139q78 -76 177 -76
q24 0 39 6.5t15 16.5q0 16 -19 22t-61 12q-60 8 -101.5 21t-72.5 50.5t-31 107.5q0 87 57 136t159 49q108 0 162 -38zM155 561l61 169h226l-113 -169h-174z" />
    <glyph glyph-name="Scircumflex" unicode="&#x15c;" horiz-adv-x="612" 
d="M459 691.5q55 -23.5 83.5 -64t28.5 -88.5q0 -43 -14 -76h-188q7 19 7 39q0 24 -17 34.5t-52 10.5q-32 0 -49 -13t-17 -35q0 -24 16.5 -38t41.5 -20.5t69 -12.5q72 -10 119 -26t81 -59.5t34 -125.5q0 -109 -78 -170.5t-215 -61.5q-195 0 -304 83l108 173q37 -35 90.5 -62
t117.5 -27q44 0 60 7t16 21q0 17 -21.5 25t-70.5 16q-77 14 -130.5 33.5t-94 71t-40.5 144.5q0 75 35 130.5t100 85t154 29.5q75 0 130 -23.5zM308 792l-59 -55h-169l108 139h247l106 -139h-168z" />
    <glyph glyph-name="scircumflex" unicode="&#x15d;" horiz-adv-x="503" 
d="M416 497q54 -38 54 -108q0 -27 -5 -52l-153 12q3 18 3 30q0 14 -15.5 23.5t-43.5 9.5q-24 0 -40 -10t-16 -27q0 -24 24.5 -34.5t75.5 -17.5q60 -10 98.5 -23t66.5 -47t28 -97q0 -82 -63 -126.5t-174 -44.5q-76 0 -144.5 19.5t-106.5 46.5l87 139q78 -76 177 -76
q24 0 39 6.5t15 16.5q0 16 -19 22t-61 12q-60 8 -101.5 21t-72.5 50.5t-31 107.5q0 87 57 136t159 49q108 0 162 -38zM250 629l-57 -68h-152l108 169h207l106 -169h-151z" />
    <glyph glyph-name="Scedilla" unicode="&#x15e;" horiz-adv-x="612" 
d="M534.5 55q-67.5 -61 -188.5 -69v-2q47 -8 72.5 -32.5t25.5 -64.5q0 -49 -34 -75.5t-101 -26.5q-39 0 -78.5 11t-58.5 25l63 94q33 -52 82 -52q11 0 18.5 8.5t7.5 18.5q0 14 -20 20t-64 8l5 68q-162 9 -259 82l108 173q37 -35 90.5 -62t117.5 -27q44 0 60 7t16 21
q0 17 -21.5 25t-70.5 16q-77 14 -130.5 33.5t-94 71t-40.5 144.5q0 75 35 130.5t100 85t154 29.5q75 0 130 -23.5t83.5 -64t28.5 -88.5q0 -43 -14 -76h-188q7 19 7 39q0 24 -17 34.5t-52 10.5q-32 0 -49 -13t-17 -35q0 -24 16.5 -38t41.5 -20.5t69 -12.5q72 -10 119 -26
t81 -59.5t34 -125.5q0 -101 -67.5 -162z" />
    <glyph glyph-name="scedilla" unicode="&#x15f;" horiz-adv-x="503" 
d="M440 37.5q-53 -43.5 -148 -51.5v-2q47 -8 72.5 -32.5t25.5 -64.5q0 -49 -34 -75.5t-101 -26.5q-40 0 -79 11t-58 25l63 94q33 -52 82 -52q11 0 18.5 8.5t7.5 18.5q0 14 -20 20t-64 8l5 69q-63 6 -118 24t-87 40l87 139q78 -76 177 -76q24 0 39 6.5t15 16.5q0 16 -19 22
t-61 12q-60 8 -101.5 21t-72.5 50.5t-31 107.5q0 87 57 136t159 49q108 0 162 -38t54 -108q0 -27 -5 -52l-153 12q3 18 3 30q0 14 -15.5 23.5t-43.5 9.5q-24 0 -40 -10t-16 -27q0 -24 24.5 -34.5t75.5 -17.5q60 -10 98.5 -23t66.5 -47t28 -97q0 -75 -53 -118.5z" />
    <glyph glyph-name="Scaron" unicode="&#x160;" horiz-adv-x="612" 
d="M459 691.5q55 -23.5 83.5 -64t28.5 -88.5q0 -43 -14 -76h-188q7 19 7 39q0 24 -17 34.5t-52 10.5q-32 0 -49 -13t-17 -35q0 -24 16.5 -38t41.5 -20.5t69 -12.5q72 -10 119 -26t81 -59.5t34 -125.5q0 -109 -78 -170.5t-215 -61.5q-195 0 -304 83l108 173q37 -35 90.5 -62
t117.5 -27q44 0 60 7t16 21q0 17 -21.5 25t-70.5 16q-77 14 -130.5 33.5t-94 71t-40.5 144.5q0 75 35 130.5t100 85t154 29.5q75 0 130 -23.5zM433 746h-247l-106 139h168l65 -55l59 55h169z" />
    <glyph glyph-name="scaron" unicode="&#x161;" horiz-adv-x="503" 
d="M416 497q54 -38 54 -108q0 -27 -5 -52l-153 12q3 18 3 30q0 14 -15.5 23.5t-43.5 9.5q-24 0 -40 -10t-16 -27q0 -24 24.5 -34.5t75.5 -17.5q60 -10 98.5 -23t66.5 -47t28 -97q0 -82 -63 -126.5t-174 -44.5q-76 0 -144.5 19.5t-106.5 46.5l87 139q78 -76 177 -76
q24 0 39 6.5t15 16.5q0 16 -19 22t-61 12q-60 8 -101.5 21t-72.5 50.5t-31 107.5q0 87 57 136t159 49q108 0 162 -38zM354 561h-207l-106 169h151l61 -68l57 68h152z" />
    <glyph glyph-name="Tcedilla" unicode="&#x162;" horiz-adv-x="565" 
d="M323 -16q47 -8 72.5 -32.5t25.5 -64.5q0 -49 -34 -75.5t-101 -26.5q-39 0 -78.5 11t-58.5 25l63 94q33 -52 82 -52q11 0 18.5 8.5t7.5 18.5q0 14 -20 20t-64 8l6 82h-64v520h-168v180h545v-180h-167v-520h-64z" />
    <glyph glyph-name="tcedilla" unicode="&#x163;" horiz-adv-x="409" 
d="M248 -15v-1q47 -8 72.5 -32.5t25.5 -64.5q0 -49 -34 -75.5t-101 -26.5q-39 0 -78.5 11t-58.5 25l63 94q33 -52 82 -52q11 0 18.5 8.5t7.5 18.5q0 14 -20 20t-64 8l5 76q-51 15 -74.5 57t-23.5 111v233h-58v125h6q28 0 42 3.5t23.5 13.5t23.5 35l28 49h135v-101h126
l-3 -125h-123v-225q0 -20 10 -31t29 -11q28 0 49 20l43 -90q-61 -67 -151 -73z" />
    <glyph glyph-name="Tcaron" unicode="&#x164;" horiz-adv-x="565" 
d="M388 520v-520h-210v520h-168v180h545v-180h-167zM405 746h-247l-106 139h168l65 -55l59 55h169z" />
    <glyph glyph-name="tcaron" unicode="&#x165;" horiz-adv-x="409" 
d="M233 -15q-87 0 -126 44t-39 133v233h-58v125h6q28 0 42 3.5t23.5 13.5t23.5 35l28 49h135v-101h126l-3 -125h-123v-225q0 -20 10 -31t29 -11q28 0 49 20l43 -90q-66 -73 -166 -73zM423 732q23 -26 23 -74q0 -53 -39 -80.5t-110 -26.5l-4 43q48 1 70 11t27 32
q-17 -9 -40 -9q-33 0 -52.5 17.5t-19.5 48.5q0 30 21.5 47t60.5 17q40 0 63 -26z" />
    <glyph glyph-name="Tbar" unicode="&#x166;" horiz-adv-x="565" 
d="M388 378h141v-145h-141v-233h-210v233h-143v145h143v142h-168v180h545v-180h-167v-142z" />
    <glyph glyph-name="tbar" unicode="&#x167;" horiz-adv-x="409" 
d="M233 -15q-87 0 -126 44t-39 133v55h-57v125h57v53h-58v125h6q28 0 42 3.5t23.5 13.5t23.5 35l28 49h135v-101h126l-3 -125h-123v-53h119v-125h-119v-47q0 -20 10 -31t29 -11q28 0 49 20l43 -90q-66 -73 -166 -73z" />
    <glyph glyph-name="Utilde" unicode="&#x168;" horiz-adv-x="599" 
d="M96 51q-66 58 -66 182v467h209v-452q0 -44 18.5 -64.5t57.5 -20.5t56 20t17 65v452h181v-467q0 -116 -72 -178t-206 -62q-129 0 -195 58zM482.5 782.5q-36.5 -42.5 -107.5 -42.5q-30 0 -54 7t-57 20q-15 6 -30.5 11t-26.5 5q-18 0 -30 -11t-12 -29h-86q0 83 34.5 126
t102.5 43q33 0 59 -7t58 -19q39 -16 59 -16q19 0 30 10.5t11 28.5h86q0 -84 -36.5 -126.5z" />
    <glyph glyph-name="utilde" unicode="&#x169;" horiz-adv-x="585" 
d="M545 0h-137l-36 120q-21 -63 -64.5 -99t-101.5 -36q-80 0 -125.5 48.5t-45.5 156.5v330h200v-301q0 -34 14.5 -51.5t39.5 -17.5q28 0 42 18t14 62v290h200v-520zM449.5 607.5q-33.5 -42.5 -98.5 -42.5q-27 0 -46.5 7.5t-41.5 21.5q-11 7 -21 12t-19 5q-16 0 -25.5 -11.5
t-9.5 -31.5h-85q0 83 31.5 126t93.5 43q29 0 50 -7.5t44 -21.5q14 -8 23 -12t18 -4q35 0 35 42h85q0 -84 -33.5 -126.5z" />
    <glyph glyph-name="Umacron" unicode="&#x16a;" horiz-adv-x="599" 
d="M96 51q-66 58 -66 182v467h209v-452q0 -44 18.5 -64.5t57.5 -20.5t56 20t17 65v452h181v-467q0 -116 -72 -178t-206 -62q-129 0 -195 58zM495 748h-393v145h393v-145z" />
    <glyph glyph-name="umacron" unicode="&#x16b;" horiz-adv-x="585" 
d="M545 0h-137l-36 120q-21 -63 -64.5 -99t-101.5 -36q-80 0 -125.5 48.5t-45.5 156.5v330h200v-301q0 -34 14.5 -51.5t39.5 -17.5q28 0 42 18t14 62v290h200v-520zM469 573h-353v145h353v-145z" />
    <glyph glyph-name="Ubreve" unicode="&#x16c;" horiz-adv-x="599" 
d="M96 51q-66 58 -66 182v467h209v-452q0 -44 18.5 -64.5t57.5 -20.5t56 20t17 65v452h181v-467q0 -116 -72 -178t-206 -62q-129 0 -195 58zM432 773q-42 -40 -133 -40t-133 40t-42 126h100q0 -52 75 -52q35 0 55 13.5t20 38.5h100q0 -86 -42 -126z" />
    <glyph glyph-name="ubreve" unicode="&#x16d;" horiz-adv-x="585" 
d="M545 0h-137l-36 120q-21 -63 -64.5 -99t-101.5 -36q-80 0 -125.5 48.5t-45.5 156.5v330h200v-301q0 -34 14.5 -51.5t39.5 -17.5q28 0 42 18t14 62v290h200v-520zM426 599.5q-42 -41.5 -133 -41.5t-133 41.5t-42 133.5h100q0 -27 18 -39.5t57 -12.5q75 0 75 52h100
q0 -92 -42 -133.5z" />
    <glyph glyph-name="Uring" unicode="&#x16e;" horiz-adv-x="599" 
d="M96 51q-66 58 -66 182v467h209v-452q0 -44 18.5 -64.5t57.5 -20.5t56 20t17 65v452h181v-467q0 -116 -72 -178t-206 -62q-129 0 -195 58zM444.5 888.5q49.5 -21.5 49.5 -64.5t-49.5 -65t-145.5 -22t-145.5 22t-49.5 65t49.5 64.5t145.5 21.5t145.5 -21.5zM276.5 852.5
q-6.5 -8.5 -6.5 -28.5t6.5 -29t22.5 -9t22.5 9t6.5 29t-6.5 28.5t-22.5 8.5t-22.5 -8.5z" />
    <glyph glyph-name="uring" unicode="&#x16f;" horiz-adv-x="585" 
d="M545 0h-137l-36 120q-21 -63 -64.5 -99t-101.5 -36q-80 0 -125.5 48.5t-45.5 156.5v330h200v-301q0 -34 14.5 -51.5t39.5 -17.5q28 0 42 18t14 62v290h200v-520zM427.5 726q40.5 -22 40.5 -74t-40 -74.5t-135 -22.5t-135 22.5t-40 74.5t40.5 74t134.5 22t134.5 -22z
M258 652q0 -19 9 -29.5t26 -10.5t26 10.5t9 29.5q0 39 -35 39t-35 -39z" />
    <glyph glyph-name="Uhungarumlaut" unicode="&#x170;" horiz-adv-x="599" 
d="M96 51q-66 58 -66 182v467h209v-452q0 -44 18.5 -64.5t57.5 -20.5t56 20t17 65v452h181v-467q0 -116 -72 -178t-206 -62q-129 0 -195 58zM122 746l44 149h202l-96 -149h-150zM312 746l101 149h202l-143 -149h-160z" />
    <glyph glyph-name="uhungarumlaut" unicode="&#x171;" horiz-adv-x="585" 
d="M545 0h-137l-36 120q-21 -63 -64.5 -99t-101.5 -36q-80 0 -125.5 48.5t-45.5 156.5v330h200v-301q0 -34 14.5 -51.5t39.5 -17.5q28 0 42 18t14 62v290h200v-520zM141 561l44 169h182l-96 -169h-130zM311 561l101 169h182l-143 -169h-140z" />
    <glyph glyph-name="Uogonek" unicode="&#x172;" horiz-adv-x="599" 
d="M569 233q0 -125 -83 -186q-19 -26 -27.5 -45.5t-8.5 -41.5q0 -13 6 -20t15 -7q11 0 21 3l9 -88q-29 -13 -68 -13q-49 0 -77.5 22t-28.5 65q0 39 26 75q-25 -4 -62 -4q-129 0 -195 58t-66 182v467h209v-452q0 -44 18.5 -64.5t57.5 -20.5t56 20t17 65v452h181v-467z" />
    <glyph glyph-name="uogonek" unicode="&#x173;" horiz-adv-x="585" 
d="M489 -215q-49 0 -77.5 22t-28.5 65q0 39 23.5 71.5t60.5 56.5h-59l-36 120q-21 -63 -64.5 -99t-101.5 -36q-80 0 -125.5 48.5t-45.5 156.5v330h200v-301q0 -34 14.5 -51.5t39.5 -17.5q28 0 42 18t14 62v290h200v-520q-21 -27 -30 -47t-9 -43q0 -13 6 -20t15 -7q11 0 21 3
l9 -88q-29 -13 -68 -13z" />
    <glyph glyph-name="Wcircumflex" unicode="&#x174;" horiz-adv-x="901" 
d="M730 0h-187l-91 387l-90 -387h-187l-170 700h213l76 -383l85 383h192l81 -375l78 375h166zM473 792l-59 -55h-169l108 139h247l106 -139h-168z" />
    <glyph glyph-name="wcircumflex" unicode="&#x175;" horiz-adv-x="824" 
d="M680 0h-206l-62 257l-57 -257h-208l-132 521h190l70 -287l67 287h160l74 -294l68 294h165zM416 629l-57 -68h-152l108 169h207l106 -169h-151z" />
    <glyph glyph-name="Ycircumflex" unicode="&#x176;" horiz-adv-x="667" 
d="M443 0h-210v253l-228 447h263l95 -244l102 244h197l-219 -440v-260zM331 792l-59 -55h-169l108 139h247l106 -139h-168z" />
    <glyph glyph-name="ycircumflex" unicode="&#x177;" horiz-adv-x="605" 
d="M428 26q-44 -131 -113.5 -186t-174.5 -55q-47 0 -95 9.5t-88 26.5l91 162q23 -28 51.5 -44t58.5 -16q34 0 54.5 17t33.5 58l1 2h-63l-181 520h220l89 -316l102 316h181zM301 629l-57 -68h-152l108 169h207l106 -169h-151z" />
    <glyph glyph-name="Ydieresis" unicode="&#x178;" horiz-adv-x="667" 
d="M443 0h-210v253l-228 447h263l95 -244l102 244h197l-219 -440v-260zM296.5 880q26.5 -23 26.5 -66q0 -40 -27 -63t-76 -23q-47 0 -74 23.5t-27 62.5q0 43 26.5 66t74.5 23q50 0 76.5 -23zM522.5 880q26.5 -23 26.5 -66q0 -40 -27 -63t-76 -23q-47 0 -74 23.5t-27 62.5
q0 43 26.5 66t74.5 23q50 0 76.5 -23z" />
    <glyph glyph-name="Zacute" unicode="&#x179;" horiz-adv-x="559" 
d="M549 0h-539v136l255 390h-240v174h509v-145l-248 -381h263v-174zM183 746l61 139h252l-113 -139h-200z" />
    <glyph glyph-name="zacute" unicode="&#x17a;" horiz-adv-x="481" 
d="M461 0h-441v85l181 290h-166v145h410v-95l-179 -280h195v-145zM144 561l61 169h226l-113 -169h-174z" />
    <glyph glyph-name="Zdotaccent" unicode="&#x17b;" horiz-adv-x="559" 
d="M549 0h-539v136l255 390h-240v174h509v-145l-248 -381h263v-174zM362.5 882q30.5 -23 30.5 -62q0 -38 -30.5 -60t-84.5 -22q-53 0 -82.5 22t-29.5 60q0 39 29.5 62t82.5 23q54 0 84.5 -23z" />
    <glyph glyph-name="zdotaccent" unicode="&#x17c;" horiz-adv-x="481" 
d="M461 0h-441v85l181 290h-166v145h410v-95l-179 -280h195v-145zM324 724.5q30 -24.5 30 -71.5q0 -46 -30 -70t-85 -24q-54 0 -83 24.5t-29 69.5q0 47 29 71.5t83 24.5q55 0 85 -24.5z" />
    <glyph glyph-name="Zcaron" unicode="&#x17d;" horiz-adv-x="559" 
d="M549 0h-539v136l255 390h-240v174h509v-145l-248 -381h263v-174zM402 746h-247l-106 139h168l65 -55l59 55h169z" />
    <glyph glyph-name="zcaron" unicode="&#x17e;" horiz-adv-x="481" 
d="M461 0h-441v85l181 290h-166v145h410v-95l-179 -280h195v-145zM343 561h-207l-106 169h151l61 -68l57 68h152z" />
    <glyph glyph-name="Schwa" unicode="&#x18f;" horiz-adv-x="602" 
d="M502.5 626q84.5 -89 84.5 -278q0 -118 -38 -199.5t-105.5 -122.5t-157.5 -41q-74 0 -133.5 29t-95 88t-35.5 143q0 45 9 88t27 70h314q-11 69 -46.5 102.5t-87.5 33.5q-49 0 -79 -17.5t-68 -58.5l-81 178q112 74 252 74q156 0 240.5 -89zM349 173.5q20 28.5 26 99.5h-129
q-5 -22 -5 -46q0 -37 14 -59.5t42 -22.5q32 0 52 28.5z" />
    <glyph glyph-name="Aringacute" unicode="&#x1fa;" horiz-adv-x="654" 
d="M210 121l-29 -121h-176l204 690q-77 20 -77 74q0 62 102 79l57 92h252l-108 -95q87 -20 87 -76q0 -55 -81 -76l208 -688h-228l-30 121h-181zM304.5 792.5q-6.5 -8.5 -6.5 -28.5t6.5 -29t22.5 -9t22.5 9t6.5 29t-6.5 28.5t-22.5 8.5t-22.5 -8.5zM300 492l-54 -224h109z
" />
    <glyph glyph-name="aringacute" unicode="&#x1fb;" horiz-adv-x="571" 
d="M148 577.5q-40 22.5 -40 74.5q0 37 20 58.5t65 30.5l54 149h232l-100 -150q42 -10 60.5 -31t18.5 -57q0 -52 -40 -74.5t-135 -22.5t-135 22.5zM309 622.5q9 10.5 9 29.5q0 39 -35 39t-35 -39q0 -19 9 -29.5t26 -10.5t26 10.5zM460 -8q-49 0 -80 18t-46 57
q-25 -38 -64.5 -60t-93.5 -22q-74 0 -111 39t-40 106q0 55 25 92t89 58t179 23v51q0 48 -9 66.5t-30 18.5q-41 0 -41 -74q0 -10 2 -28l-180 -10q-6 34 -6 60q0 67 52.5 107.5t175.5 40.5q91 0 142.5 -22t72.5 -66.5t21 -118.5v-202q0 -25 19 -25q14 0 17 1l7 -82
q-40 -28 -101 -28zM305 133q13 22 13 85v18q-48 -4 -69.5 -24.5t-21.5 -52.5q0 -48 38 -48q27 0 40 22z" />
    <glyph glyph-name="AEacute" unicode="&#x1fc;" horiz-adv-x="917" 
d="M897 0h-496v121h-147l-31 -121h-218l217 700h655v-167h-266v-101h235v-152h-235v-113h286v-167zM401 533h-41l-68 -265h109v265zM442 746l61 139h252l-113 -139h-200z" />
    <glyph glyph-name="aeacute" unicode="&#x1fd;" horiz-adv-x="812" 
d="M586 -15q-157 0 -217 105q-26 -48 -74 -76.5t-119 -28.5q-74 0 -111 39t-40 106q0 55 25 92t90 58t181 23v51q0 46 -9.5 63.5t-32.5 17.5q-41 0 -41 -70q0 -14 2 -38h-180q-6 34 -6 60q0 67 52.5 107.5t175.5 40.5q55 0 91.5 -13t58.5 -39q58 52 149 52q56 0 101.5 -22
t72.5 -66.5t27 -108.5q0 -32 -5 -64.5t-16 -52.5l-238 1q6 -46 32 -68t64 -22q39 0 63 11t56 37l54 -141q-92 -54 -206 -54zM523 313l79 -1q6 24 6 59q0 47 -36 47q-40 0 -49 -105zM296.5 120q11.5 9 18 36t6.5 80q-50 -3 -72 -24t-22 -53q0 -48 38 -48q20 0 31.5 9z
M332 561l61 169h226l-113 -169h-174z" />
    <glyph glyph-name="Oslashacute" unicode="&#x1fe;" horiz-adv-x="650" 
d="M228 746l61 139h252l-113 -139h-200zM635 352q0 -177 -80 -272t-230 -95q-62 0 -115 17l-46 -117h-134l73 186q-88 94 -88 281q0 175 80.5 269t229.5 94q66 0 118 -18l37 98h134l-64 -169q85 -93 85 -274zM256.5 499q-21.5 -46 -21.5 -147q0 -27 2 -65l97 258h-9
q-47 0 -68.5 -46zM393.5 202q21.5 47 21.5 150q0 22 -2 58l-96 -255h8q47 0 68.5 47z" />
    <glyph glyph-name="oslashacute" unicode="&#x1ff;" horiz-adv-x="577" 
d="M188 561l61 169h226l-113 -169h-174zM534 391.5q23 -56.5 23 -131.5q0 -132 -69.5 -203.5t-196.5 -71.5q-53 0 -95 12l-51 -112h-94l65 149q-47 35 -71.5 91.5t-24.5 132.5q0 133 71 205t200 72q56 0 96 -13l51 109h94l-66 -148q45 -35 68 -91.5zM237 370.5
q-17 -34.5 -17 -112.5q0 -39 4 -63l77 209l-10 1q-37 0 -54 -34.5zM341.5 149q15.5 34 15.5 111q0 21 -2 49l-72 -194h8q35 0 50.5 34z" />
    <glyph glyph-name="Scommaaccent" unicode="&#x218;" horiz-adv-x="612" 
d="M459 691.5q55 -23.5 83.5 -64t28.5 -88.5q0 -43 -14 -76h-188q7 19 7 39q0 24 -17 34.5t-52 10.5q-32 0 -49 -13t-17 -35q0 -24 16.5 -38t41.5 -20.5t69 -12.5q72 -10 119 -26t81 -59.5t34 -125.5q0 -109 -78 -170.5t-215 -61.5q-195 0 -304 83l108 173q37 -35 90.5 -62
t117.5 -27q44 0 60 7t16 21q0 17 -21.5 25t-70.5 16q-77 14 -130.5 33.5t-94 71t-40.5 144.5q0 75 35 130.5t100 85t154 29.5q75 0 130 -23.5zM377.5 -53q27.5 -24 27.5 -66q0 -51 -42 -77t-132 -26l-6 41q59 0 87 10.5t33 30.5q-17 -15 -53 -15q-40 0 -62 16.5t-22 45.5
q0 30 23.5 47t68.5 17q50 0 77.5 -24z" />
    <glyph glyph-name="scommaaccent" unicode="&#x219;" horiz-adv-x="503" 
d="M416 497q54 -38 54 -108q0 -27 -5 -52l-153 12q3 18 3 30q0 14 -15.5 23.5t-43.5 9.5q-24 0 -40 -10t-16 -27q0 -24 24.5 -34.5t75.5 -17.5q60 -10 98.5 -23t66.5 -47t28 -97q0 -82 -63 -126.5t-174 -44.5q-76 0 -144.5 19.5t-106.5 46.5l87 139q78 -76 177 -76
q24 0 39 6.5t15 16.5q0 16 -19 22t-61 12q-60 8 -101.5 21t-72.5 50.5t-31 107.5q0 87 57 136t159 49q108 0 162 -38zM323.5 -53q27.5 -24 27.5 -66q0 -51 -42 -77t-132 -26l-6 41q59 0 87 10.5t33 30.5q-17 -15 -53 -15q-40 0 -62 16.5t-22 45.5q0 30 23.5 47t68.5 17
q50 0 77.5 -24z" />
    <glyph glyph-name="uni021A" unicode="&#x21a;" horiz-adv-x="565" 
d="M388 520v-520h-210v520h-168v180h545v-180h-167zM354.5 -53q27.5 -24 27.5 -66q0 -51 -42 -77t-132 -26l-6 41q59 0 87 10.5t33 30.5q-17 -15 -53 -15q-40 0 -62 16.5t-22 45.5q0 30 23.5 47t68.5 17q50 0 77.5 -24z" />
    <glyph glyph-name="uni021B" unicode="&#x21b;" horiz-adv-x="409" 
d="M233 -15q-87 0 -126 44t-39 133v233h-58v125h6q28 0 42 3.5t23.5 13.5t23.5 35l28 49h135v-101h126l-3 -125h-123v-225q0 -20 10 -31t29 -11q28 0 49 20l43 -90q-66 -73 -166 -73zM279.5 -53q27.5 -24 27.5 -66q0 -51 -42 -77t-132 -26l-6 41q59 0 87 10.5t33 30.5
q-17 -15 -53 -15q-40 0 -62 16.5t-22 45.5q0 30 23.5 47t68.5 17q50 0 77.5 -24z" />
    <glyph glyph-name="dotlessj" unicode="&#x237;" horiz-adv-x="290" 
d="M34 -69.5q11 11.5 11 33.5v556h200v-511q0 -119 -60.5 -171.5t-184.5 -52.5q-23 0 -48.5 4t-45.5 11l49 147q25 -28 50 -28q18 0 29 11.5z" />
    <glyph glyph-name="schwa" unicode="&#x259;" horiz-adv-x="514" 
d="M226 535q268 0 268 -275q0 -134 -71 -204.5t-192 -70.5q-56 0 -101.5 22t-72.5 66.5t-27 108.5q0 32 5 63.5t16 51.5h241q-6 46 -32.5 68.5t-66.5 22.5q-36 0 -57.5 -11t-51.5 -37l-64 141q92 54 206 54zM291 202h-82q-5 -19 -5 -56q0 -23 9 -37t27 -14q42 0 51 107z" />
    <glyph glyph-name="circumflex" unicode="&#x2c6;" horiz-adv-x="501" 
d="M249 629l-57 -68h-152l108 169h207l106 -169h-151z" />
    <glyph glyph-name="caron" unicode="&#x2c7;" horiz-adv-x="501" 
d="M353 561h-207l-106 169h151l61 -68l57 68h152z" />
    <glyph glyph-name="breve" unicode="&#x2d8;" horiz-adv-x="430" 
d="M348 599.5q-42 -41.5 -133 -41.5t-133 41.5t-42 133.5h100q0 -27 18 -39.5t57 -12.5q75 0 75 52h100q0 -92 -42 -133.5z" />
    <glyph glyph-name="dotaccent" unicode="&#x2d9;" horiz-adv-x="283" 
d="M225 724.5q30 -24.5 30 -71.5q0 -46 -30 -70t-85 -24q-54 0 -83 24.5t-29 69.5q0 47 29 71.5t83 24.5q55 0 85 -24.5z" />
    <glyph glyph-name="ring" unicode="&#x2da;" horiz-adv-x="430" 
d="M349.5 726q40.5 -22 40.5 -74t-40 -74.5t-135 -22.5t-135 22.5t-40 74.5t40.5 74t134.5 22t134.5 -22zM180 652q0 -19 9 -29.5t26 -10.5t26 10.5t9 29.5q0 39 -35 39t-35 -39z" />
    <glyph glyph-name="ogonek" unicode="&#x2db;" horiz-adv-x="353" 
d="M173 -47q-9 -20 -9 -43q0 -13 6 -20t15 -7q11 0 21 3l9 -88q-29 -13 -68 -13q-49 0 -77.5 22t-28.5 65q0 54 44 96t100 61l18 -29q-21 -27 -30 -47z" />
    <glyph glyph-name="tilde" unicode="&#x2dc;" horiz-adv-x="460" 
d="M386.5 607.5q-33.5 -42.5 -98.5 -42.5q-27 0 -46.5 7.5t-41.5 21.5q-11 7 -21 12t-19 5q-16 0 -25.5 -11.5t-9.5 -31.5h-85q0 83 31.5 126t93.5 43q29 0 50 -7.5t44 -21.5q14 -8 23 -12t18 -4q35 0 35 42h85q0 -84 -33.5 -126.5z" />
    <glyph glyph-name="hungarumlaut" unicode="&#x2dd;" horiz-adv-x="533" 
d="M40 561l44 169h182l-96 -169h-130zM210 561l101 169h182l-143 -169h-140z" />
    <glyph glyph-name="uni0326" unicode="&#x326;" horiz-adv-x="0" 
d="M209.5 -53q27.5 -24 27.5 -66q0 -51 -42 -77t-132 -26l-6 41q59 0 87 10.5t33 30.5q-17 -15 -53 -15q-40 0 -62 16.5t-22 45.5q0 30 23.5 47t68.5 17q50 0 77.5 -24z" />
    <glyph glyph-name="Delta" unicode="&#x394;" horiz-adv-x="654" 
d="M5 0l207 700h225l212 -700h-644zM301 492l-84 -345h168z" />
    <glyph glyph-name="Omega" unicode="&#x3a9;" horiz-adv-x="700" 
d="M632 270q-28 -60 -83 -103h110v-167h-279v195q60 63 60 187q0 163 -90 163t-90 -163q0 -124 60 -187v-195h-279v167h107q-54 42 -81 102t-27 133q0 152 80 232.5t230 80.5t230 -80.5t80 -232.5q0 -72 -28 -132z" />
    <glyph glyph-name="Wgrave" unicode="&#x1e80;" horiz-adv-x="901" 
d="M730 0h-187l-91 387l-90 -387h-187l-170 700h213l76 -383l85 383h192l81 -375l78 375h166zM377 746l-113 149h242l61 -149h-190z" />
    <glyph glyph-name="wgrave" unicode="&#x1e81;" horiz-adv-x="824" 
d="M680 0h-206l-62 257l-57 -257h-208l-132 521h190l70 -287l67 287h160l74 -294l68 294h165zM353 561l-113 169h232l61 -169h-180z" />
    <glyph glyph-name="Wacute" unicode="&#x1e82;" horiz-adv-x="901" 
d="M730 0h-187l-91 387l-90 -387h-187l-170 700h213l76 -383l85 383h192l81 -375l78 375h166zM379 746l61 139h252l-113 -139h-200z" />
    <glyph glyph-name="wacute" unicode="&#x1e83;" horiz-adv-x="824" 
d="M680 0h-206l-62 257l-57 -257h-208l-132 521h190l70 -287l67 287h160l74 -294l68 294h165zM321 561l61 169h226l-113 -169h-174z" />
    <glyph glyph-name="Wdieresis" unicode="&#x1e84;" horiz-adv-x="901" 
d="M730 0h-187l-91 387l-90 -387h-187l-170 700h213l76 -383l85 383h192l81 -375l78 375h166zM438.5 880q26.5 -23 26.5 -66q0 -40 -27 -63t-76 -23q-47 0 -74 23.5t-27 62.5q0 43 26.5 66t74.5 23q50 0 76.5 -23zM664.5 880q26.5 -23 26.5 -66q0 -40 -27 -63t-76 -23
q-47 0 -74 23.5t-27 62.5q0 43 26.5 66t74.5 23q50 0 76.5 -23z" />
    <glyph glyph-name="wdieresis" unicode="&#x1e85;" horiz-adv-x="824" 
d="M229.5 580q-26.5 23 -26.5 66q0 45 26.5 68.5t74.5 23.5q50 0 76.5 -23.5t26.5 -68.5q0 -43 -26.5 -66t-76.5 -23q-48 0 -74.5 23zM455.5 580q-26.5 23 -26.5 66q0 45 26.5 68.5t74.5 23.5q50 0 76.5 -23.5t26.5 -68.5q0 -43 -26.5 -66t-76.5 -23q-48 0 -74.5 23zM680 0
h-206l-62 257l-57 -257h-208l-132 521h190l70 -287l67 287h160l74 -294l68 294h165z" />
    <glyph glyph-name="uni1E9E" unicode="&#x1e9e;" horiz-adv-x="699" 
d="M640.5 314q43.5 -45 43.5 -123q0 -61 -31.5 -107.5t-91.5 -72.5t-142 -26q-93 0 -145 15l27 190q58 -41 128 -41q50 0 50 37q0 15 -11.5 25t-46.5 21.5t-107 28.5v133l123 134q-34 24 -77 24q-56 0 -88 -29t-32 -91v-432h-210v413q0 152 85.5 227t247.5 75q77 0 146 -19
t117 -48v-144l-118 -117q89 -28 132.5 -73z" />
    <glyph glyph-name="Ygrave" unicode="&#x1ef2;" horiz-adv-x="667" 
d="M443 0h-210v253l-228 447h263l95 -244l102 244h197l-219 -440v-260zM235 746l-113 149h242l61 -149h-190z" />
    <glyph glyph-name="ygrave" unicode="&#x1ef3;" horiz-adv-x="605" 
d="M428 26q-44 -131 -113.5 -186t-174.5 -55q-47 0 -95 9.5t-88 26.5l91 162q23 -28 51.5 -44t58.5 -16q34 0 54.5 17t33.5 58l1 2h-63l-181 520h220l89 -316l102 316h181zM238 561l-113 169h232l61 -169h-180z" />
    <glyph glyph-name="uni2009" unicode="&#x2009;" horiz-adv-x="80" 
 />
    <glyph glyph-name="endash" unicode="&#x2013;" horiz-adv-x="617" 
d="M60 184v180h497v-180h-497z" />
    <glyph glyph-name="emdash" unicode="&#x2014;" horiz-adv-x="794" 
d="M60 184v180h674v-180h-674z" />
    <glyph glyph-name="quoteleft" unicode="&#x2018;" horiz-adv-x="282" 
d="M226 544q26 -27 26 -76t-27.5 -76t-76.5 -27q-124 0 -124 154q0 91 49 135.5t153 44.5l7 -59q-75 0 -104.5 -21.5t-31.5 -63.5q22 16 54 16q49 0 75 -27z" />
    <glyph glyph-name="quoteright" unicode="&#x2019;" horiz-adv-x="282" 
d="M258 561q0 -91 -49 -135.5t-153 -44.5l-7 59q75 0 104.5 21.5t31.5 63.5q-22 -16 -54 -16q-49 0 -75 27t-26 76t27.5 76t76.5 27q124 0 124 -154z" />
    <glyph glyph-name="quotesinglbase" unicode="&#x201a;" horiz-adv-x="282" 
d="M258 47q0 -91 -49 -135.5t-153 -44.5l-7 59q75 0 104.5 21.5t31.5 63.5q-22 -16 -54 -16q-49 0 -75 27t-26 76t27.5 76t76.5 27q124 0 124 -154z" />
    <glyph glyph-name="quotedblleft" unicode="&#x201c;" horiz-adv-x="532" 
d="M482 544q26 -27 26 -76t-27.5 -76t-76.5 -27q-124 0 -124 154q0 91 49 135.5t153 44.5l7 -59q-75 0 -104.5 -21.5t-31.5 -63.5q22 16 54 16q49 0 75 -27zM232 544q26 -27 26 -76t-27.5 -76t-76.5 -27q-124 0 -124 154q0 91 49 135.5t153 44.5l7 -59q-75 0 -104.5 -21.5
t-31.5 -63.5q22 16 54 16q49 0 75 -27z" />
    <glyph glyph-name="quotedblright" unicode="&#x201d;" horiz-adv-x="532" 
d="M508 561q0 -91 -49 -135.5t-153 -44.5l-7 59q75 0 104.5 21.5t31.5 63.5q-22 -16 -54 -16q-49 0 -75 27t-26 76t27.5 76t76.5 27q124 0 124 -154zM258 561q0 -91 -49 -135.5t-153 -44.5l-7 59q75 0 104.5 21.5t31.5 63.5q-22 -16 -54 -16q-49 0 -75 27t-26 76t27.5 76
t76.5 27q124 0 124 -154z" />
    <glyph glyph-name="quotedblbase" unicode="&#x201e;" horiz-adv-x="532" 
d="M508 47q0 -91 -49 -135.5t-153 -44.5l-7 59q75 0 104.5 21.5t31.5 63.5q-22 -16 -54 -16q-49 0 -75 27t-26 76t27.5 76t76.5 27q124 0 124 -154zM258 47q0 -91 -49 -135.5t-153 -44.5l-7 59q75 0 104.5 21.5t31.5 63.5q-22 -16 -54 -16q-49 0 -75 27t-26 76t27.5 76
t76.5 27q124 0 124 -154z" />
    <glyph glyph-name="dagger" unicode="&#x2020;" horiz-adv-x="583" 
d="M388 359l15 -515h-222l15 515l-166 -12v189l163 -12l-12 209h222l-12 -209l162 12v-189z" />
    <glyph glyph-name="daggerdbl" unicode="&#x2021;" horiz-adv-x="583" 
d="M387 224l166 12v-189l-163 12l13 -215h-222l11 215l-162 -12v189l165 -12l1 135l-166 -12v189l163 -12l-12 209h222l-12 -209l162 12v-189l-165 12z" />
    <glyph glyph-name="bullet" unicode="&#x2022;" horiz-adv-x="491" 
d="M352.5 431.5q38.5 -37.5 38.5 -106t-38.5 -106.5t-107 -38t-107 38t-38.5 106.5t38.5 106t107 37.5t107 -37.5z" />
    <glyph glyph-name="ellipsis" unicode="&#x2026;" horiz-adv-x="728" 
d="M440.5 174q27.5 -27 27.5 -76t-27.5 -76t-76.5 -27t-76.5 27t-27.5 76t27.5 76t76.5 27t76.5 -27zM670.5 174q27.5 -27 27.5 -76t-27.5 -76t-76.5 -27t-76.5 27t-27.5 76t27.5 76t76.5 27t76.5 -27zM210.5 174q27.5 -27 27.5 -76t-27.5 -76t-76.5 -27t-76.5 27t-27.5 76
t27.5 76t76.5 27t76.5 -27z" />
    <glyph glyph-name="perthousand" unicode="&#x2030;" horiz-adv-x="1515" 
d="M423 665.5q52 -49.5 52 -137.5t-52 -137.5t-145 -49.5t-145.5 49.5t-52.5 137.5t52.5 137.5t145.5 49.5t145 -49.5zM412 0h-212l500 700h212zM230 528q0 -68 48 -68q47 0 47 68t-47 68q-48 0 -48 -68zM980 309.5q52 -49.5 52 -137.5t-52 -137.5t-145 -49.5t-145.5 49.5
t-52.5 137.5t52.5 137.5t145.5 49.5t145 -49.5zM1413 309.5q52 -49.5 52 -137.5t-52 -137.5t-145 -49.5t-145.5 49.5t-52.5 137.5t52.5 137.5t145.5 49.5t145 -49.5zM787 172q0 -68 48 -68q47 0 47 68t-47 68q-48 0 -48 -68zM1220 172q0 -68 48 -68q47 0 47 68t-47 68
q-48 0 -48 -68z" />
    <glyph glyph-name="guilsinglleft" unicode="&#x2039;" horiz-adv-x="346" 
d="M123 26l-93 235l92 235l183 -35l-56 -200l57 -200z" />
    <glyph glyph-name="guilsinglright" unicode="&#x203a;" horiz-adv-x="321" 
d="M199 26l-183 35l56 200l-57 200l183 35l93 -235z" />
    <glyph glyph-name="fraction" unicode="&#x2044;" horiz-adv-x="420" 
d="M-150 0l536 700h184l-536 -700h-184z" />
    <glyph glyph-name="zerosuperior" unicode="&#x2070;" horiz-adv-x="407" 
d="M339.5 741.5q47.5 -53.5 47.5 -152.5q0 -100 -47.5 -154t-134.5 -54q-89 0 -137 54t-48 154t48 153t137 53q87 0 134.5 -53.5zM168.5 664.5q-10.5 -23.5 -10.5 -75.5q0 -53 10.5 -76.5t35.5 -23.5q23 0 34 23.5t11 76.5q0 52 -11 75.5t-34 23.5q-25 0 -35.5 -23.5z" />
    <glyph glyph-name="foursuperior" unicode="&#x2074;" horiz-adv-x="381" 
d="M327 452v-62h-135v62h-187v76l133 262h189v-235h44v-103h-44zM192 687l-57 -132h57v132z" />
    <glyph glyph-name="fivesuperior" unicode="&#x2075;" horiz-adv-x="345" 
d="M301.5 621.5q33.5 -31.5 33.5 -95.5q0 -67 -42 -106t-125 -39q-78 0 -118 33t-40 93l128 15q3 -36 36 -36q15 0 23 9t8 27q0 41 -30 41q-23 0 -36 -21l-122 9l19 239h277l2 -108h-174l-5 -57q32 28 80 28q52 0 85.5 -31.5z" />
    <glyph glyph-name="sixsuperior" unicode="&#x2076;" horiz-adv-x="375" 
d="M327.5 612q32.5 -33 32.5 -86q0 -67 -44.5 -106t-119.5 -39q-76 0 -119 40q-57 54 -57 163q0 102 48 156.5t139 54.5q65 0 102.5 -26.5t37.5 -72.5q0 -17 -4 -28h-115l1 13q0 7 -6 12t-19 5q-22 0 -34.5 -20t-15.5 -63q30 30 84 30q57 0 89.5 -33zM220.5 492
q8.5 10 8.5 27q0 19 -8.5 29.5t-24.5 10.5q-14 0 -22.5 -10t-8.5 -29q0 -18 8 -28t23 -10q16 0 24.5 10z" />
    <glyph glyph-name="sevensuperior" unicode="&#x2077;" horiz-adv-x="326" 
d="M311 695q-52 -50 -79 -129t-27 -176h-151q0 81 30 156t85 130h-159v114h301v-95z" />
    <glyph glyph-name="eightsuperior" unicode="&#x2078;" horiz-adv-x="384" 
d="M344 548q20 -25 20 -63q0 -55 -44.5 -84.5t-126.5 -29.5q-83 0 -128 29.5t-45 84.5q0 38 19.5 63t57.5 36q-32 11 -48.5 33.5t-16.5 56.5q0 53 42.5 82.5t118.5 29.5q75 0 117 -29.5t42 -82.5q0 -33 -17 -56t-49 -34q38 -11 58 -36zM162 661q0 -35 31 -35q29 0 29 35
q0 17 -8 25.5t-21 8.5q-31 0 -31 -34zM218 470q9 9 9 27q0 38 -34 38q-36 0 -36 -38q0 -36 36 -36q16 0 25 9z" />
    <glyph glyph-name="ninesuperior" unicode="&#x2079;" horiz-adv-x="370" 
d="M340 680q12 -39 12 -87q0 -101 -50.5 -156.5t-144.5 -55.5q-46 0 -85 12.5t-67 34.5l75 105q32 -42 77 -42q30 0 44.5 16.5t18.5 57.5q-28 -34 -84 -34q-58 0 -92.5 34t-34.5 86q0 67 45 105.5t122 38.5q83 0 128 -50q24 -26 36 -65zM205 640q10 9 10 23q0 16 -10 26
t-26 10q-18 0 -28.5 -9.5t-10.5 -26.5q0 -14 10.5 -23t28.5 -9q16 0 26 9z" />
    <glyph glyph-name="zeroinferior" unicode="&#x2080;" horiz-adv-x="407" 
d="M339.5 181.5q47.5 -53.5 47.5 -152.5q0 -100 -47.5 -154t-134.5 -54q-89 0 -137 54t-48 154t48 153t137 53q87 0 134.5 -53.5zM168.5 104.5q-10.5 -23.5 -10.5 -75.5q0 -53 10.5 -76.5t35.5 -23.5q23 0 34 23.5t11 76.5q0 52 -11 75.5t-34 23.5q-25 0 -35.5 -23.5z" />
    <glyph glyph-name="oneinferior" unicode="&#x2081;" horiz-adv-x="276" 
d="M236 -170h-158v243h-68l1 84q44 -3 76 18t43 55h106v-400z" />
    <glyph glyph-name="twoinferior" unicode="&#x2082;" horiz-adv-x="342" 
d="M327 -170h-315q-2 38 -2 56q0 32 15 56.5t36.5 41.5t55.5 39q39 25 57 42t18 40q0 29 -22 29q-13 0 -19.5 -6t-6.5 -16q0 -20 7 -33l-119 -9q-14 14 -14 53q0 51 41.5 81.5t114.5 30.5q78 0 115 -32.5t37 -90.5q0 -32 -16 -57t-38 -42t-57 -40q-7 -5 -20 -13t-20 -14h152
v-116z" />
    <glyph glyph-name="threeinferior" unicode="&#x2083;" horiz-adv-x="378" 
d="M334.5 5q23.5 -24 23.5 -64q0 -53 -43 -86.5t-125 -33.5q-91 0 -133 33.5t-42 102.5l128 14q1 -28 11.5 -37t30.5 -9q41 0 41 31q0 20 -21 29.5t-65 9.5l-9 67q51 7 69.5 17t18.5 30q0 13 -8 19t-25 6q-14 0 -21.5 -6t-7.5 -15q0 -11 3 -21l-121 -11q-7 21 -7 50
q0 49 41.5 76.5t115.5 27.5q80 0 119.5 -28.5t39.5 -77.5q0 -29 -20 -52t-54 -37q37 -11 60.5 -35z" />
    <glyph glyph-name="fourinferior" unicode="&#x2084;" horiz-adv-x="381" 
d="M327 -108v-62h-135v62h-187v76l133 262h189v-235h44v-103h-44zM192 127l-57 -132h57v132z" />
    <glyph glyph-name="fiveinferior" unicode="&#x2085;" horiz-adv-x="345" 
d="M301.5 61.5q33.5 -31.5 33.5 -95.5q0 -67 -42 -106t-125 -39q-78 0 -118 33t-40 93l128 15q3 -36 36 -36q15 0 23 9t8 27q0 41 -30 41q-23 0 -36 -21l-122 9l19 239h277l2 -108h-174l-5 -57q32 28 80 28q52 0 85.5 -31.5z" />
    <glyph glyph-name="sixinferior" unicode="&#x2086;" horiz-adv-x="375" 
d="M327.5 52q32.5 -33 32.5 -86q0 -67 -44.5 -106t-119.5 -39q-76 0 -119 40q-57 54 -57 163q0 102 48 156.5t139 54.5q65 0 102.5 -26.5t37.5 -72.5q0 -17 -4 -28h-115l1 13q0 7 -6 12t-19 5q-22 0 -34.5 -20t-15.5 -63q30 30 84 30q57 0 89.5 -33zM220.5 -68
q8.5 10 8.5 27q0 19 -8.5 29.5t-24.5 10.5q-14 0 -22.5 -10t-8.5 -29q0 -18 8 -28t23 -10q16 0 24.5 10z" />
    <glyph glyph-name="seveninferior" unicode="&#x2087;" horiz-adv-x="326" 
d="M311 135q-52 -50 -79 -129t-27 -176h-151q0 81 30 156t85 130h-159v114h301v-95z" />
    <glyph glyph-name="eightinferior" unicode="&#x2088;" horiz-adv-x="384" 
d="M344 -2q20 -25 20 -63q0 -55 -44.5 -84.5t-126.5 -29.5q-83 0 -128 29.5t-45 84.5q0 38 19.5 63t57.5 36q-32 11 -48.5 33.5t-16.5 56.5q0 53 42.5 82.5t118.5 29.5q75 0 117 -29.5t42 -82.5q0 -33 -17 -56t-49 -34q38 -11 58 -36zM162 111q0 -35 31 -35q29 0 29 35
q0 17 -8 25.5t-21 8.5q-31 0 -31 -34zM218 -80q9 9 9 27q0 38 -34 38q-36 0 -36 -38q0 -36 36 -36q16 0 25 9z" />
    <glyph glyph-name="nineinferior" unicode="&#x2089;" horiz-adv-x="370" 
d="M340 120q12 -39 12 -87q0 -101 -50.5 -156.5t-144.5 -55.5q-46 0 -85 12.5t-67 34.5l75 105q32 -42 77 -42q30 0 44.5 16.5t18.5 57.5q-28 -34 -84 -34q-58 0 -92.5 34t-34.5 86q0 67 45 105.5t122 38.5q83 0 128 -50q24 -26 36 -65zM205 80q10 9 10 23q0 16 -10 26
t-26 10q-18 0 -28.5 -9.5t-10.5 -26.5q0 -14 10.5 -23t28.5 -9q16 0 26 9z" />
    <glyph glyph-name="Euro" unicode="&#x20ac;" horiz-adv-x="664" 
d="M417 -15q-271 0 -328 222h-79v120h64v16v24h-64v120h83q30 109 108.5 168.5t193.5 59.5q112 0 178 -59t66 -164q0 -43 -13 -77h-154q4 17 4 50q0 44 -18 65t-56 21q-59 0 -87 -64h118v-120h-141v-26v-14h141v-120h-108q35 -47 105 -47q42 0 75.5 10t75.5 29l68 -157
q-96 -57 -232 -57z" />
    <glyph glyph-name="uni2117" unicode="&#x2117;" horiz-adv-x="633" 
d="M471.5 807.5q65.5 -32.5 101 -93t35.5 -142.5t-35.5 -142.5t-101 -93.5t-154.5 -33t-155 33t-101.5 93.5t-35.5 142.5t35.5 142.5t101.5 93t155 32.5t154.5 -32.5zM452 436q42 42 42 136q0 93 -42 135t-135 42q-94 0 -136 -42t-42 -135q0 -94 42 -136t136 -42
q93 0 135 42zM420.5 684.5q29.5 -24.5 29.5 -69.5q0 -46 -29 -70.5t-81 -24.5h-38v-88h-92v277h127q54 0 83.5 -24.5zM359 613q0 16 -7 22.5t-22 6.5h-28v-55h28q29 0 29 26z" />
    <glyph glyph-name="uni2120" unicode="&#x2120;" horiz-adv-x="696" 
d="M120.5 612.5q11.5 -3.5 41.5 -6.5q34 -2 57 -7.5t39.5 -22.5t16.5 -51q0 -42 -35 -67.5t-95 -25.5q-85 0 -135 31l44 75q47 -34 96 -34q23 0 31 2.5t8 8.5q0 5 -9 7t-28 4q-55 5 -91 22t-36 69q0 43 33.5 66.5t93.5 23.5q52 0 80 -18t28 -48q0 -11 -6 -27h-78q4 4 4 13
q0 13 -36 13q-35 0 -35 -13q0 -11 11.5 -14.5zM661 440h-103l2 163l-51 -163h-77l-51 159l2 -159h-91v260h155l36 -113l31 113h147v-260z" />
    <glyph glyph-name="trademark" unicode="&#x2122;" horiz-adv-x="690" 
d="M271 606h-76v-166h-110v166h-75v94h261v-94zM655 440h-103l2 163l-51 -163h-77l-51 159l2 -159h-91v260h155l36 -113l31 113h147v-260z" />
    <glyph glyph-name="uni2152" unicode="&#x2152;" horiz-adv-x="1279" 
d="M236 300h-158v243h-68l1 84q44 -3 76 18t43 55h106v-400zM76 0l536 700h184l-536 -700h-184zM832 0h-158v243h-68l1 84q44 -3 76 18t43 55h106v-400zM1211.5 351.5q47.5 -53.5 47.5 -152.5q0 -100 -47.5 -154t-134.5 -54q-89 0 -137 54t-48 154t48 153t137 53
q87 0 134.5 -53.5zM1040.5 274.5q-10.5 -23.5 -10.5 -75.5q0 -53 10.5 -76.5t35.5 -23.5q23 0 34 23.5t11 76.5q0 52 -11 75.5t-34 23.5q-25 0 -35.5 -23.5z" />
    <glyph glyph-name="uni2153" unicode="&#x2153;" horiz-adv-x="944" 
d="M236 300h-158v243h-68l1 84q44 -3 76 18t43 55h106v-400zM76 0l536 700h184l-536 -700h-184zM900.5 175q23.5 -24 23.5 -64q0 -53 -43 -86.5t-125 -33.5q-91 0 -133 33.5t-42 102.5l128 14q1 -28 11.5 -37t30.5 -9q41 0 41 31q0 20 -21 29.5t-65 9.5l-9 67q51 7 69.5 17
t18.5 30q0 13 -8 19t-25 6q-14 0 -21.5 -6t-7.5 -15q0 -11 3 -21l-121 -11q-7 21 -7 50q0 49 41.5 76.5t115.5 27.5q80 0 119.5 -28.5t39.5 -77.5q0 -29 -20 -52t-54 -37q37 -11 60.5 -35z" />
    <glyph glyph-name="uni2154" unicode="&#x2154;" horiz-adv-x="1030" 
d="M327 300h-315q-2 38 -2 56q0 32 15 56.5t36.5 41.5t55.5 39q39 25 57 42t18 40q0 29 -22 29q-13 0 -19.5 -6t-6.5 -16q0 -20 7 -33l-119 -9q-14 14 -14 53q0 51 41.5 81.5t114.5 30.5q78 0 115 -32.5t37 -90.5q0 -32 -16 -57t-38 -42t-57 -40q-7 -5 -20 -13t-20 -14h152
v-116zM162 0l536 700h184l-536 -700h-184zM986.5 175q23.5 -24 23.5 -64q0 -53 -43 -86.5t-125 -33.5q-91 0 -133 33.5t-42 102.5l128 14q1 -28 11.5 -37t30.5 -9q41 0 41 31q0 20 -21 29.5t-65 9.5l-9 67q51 7 69.5 17t18.5 30q0 13 -8 19t-25 6q-14 0 -21.5 -6t-7.5 -15
q0 -11 3 -21l-121 -11q-7 21 -7 50q0 49 41.5 76.5t115.5 27.5q80 0 119.5 -28.5t39.5 -77.5q0 -29 -20 -52t-54 -37q37 -11 60.5 -35z" />
    <glyph glyph-name="uni2155" unicode="&#x2155;" horiz-adv-x="941" 
d="M236 300h-158v243h-68l1 84q44 -3 76 18t43 55h106v-400zM76 0l536 700h184l-536 -700h-184zM897.5 231.5q33.5 -31.5 33.5 -95.5q0 -67 -42 -106t-125 -39q-78 0 -118 33t-40 93l128 15q3 -36 36 -36q15 0 23 9t8 27q0 41 -30 41q-23 0 -36 -21l-122 9l19 239h277
l2 -108h-174l-5 -57q32 28 80 28q52 0 85.5 -31.5z" />
    <glyph glyph-name="uni2156" unicode="&#x2156;" horiz-adv-x="1027" 
d="M327 300h-315q-2 38 -2 56q0 32 15 56.5t36.5 41.5t55.5 39q39 25 57 42t18 40q0 29 -22 29q-13 0 -19.5 -6t-6.5 -16q0 -20 7 -33l-119 -9q-14 14 -14 53q0 51 41.5 81.5t114.5 30.5q78 0 115 -32.5t37 -90.5q0 -32 -16 -57t-38 -42t-57 -40q-7 -5 -20 -13t-20 -14h152
v-116zM162 0l536 700h184l-536 -700h-184zM983.5 231.5q33.5 -31.5 33.5 -95.5q0 -67 -42 -106t-125 -39q-78 0 -118 33t-40 93l128 15q3 -36 36 -36q15 0 23 9t8 27q0 41 -30 41q-23 0 -36 -21l-122 9l19 239h277l2 -108h-174l-5 -57q32 28 80 28q52 0 85.5 -31.5z" />
    <glyph glyph-name="uni2157" unicode="&#x2157;" horiz-adv-x="1013" 
d="M334.5 475q23.5 -24 23.5 -64q0 -53 -43 -86.5t-125 -33.5q-91 0 -133 33.5t-42 102.5l128 14q1 -28 11.5 -37t30.5 -9q41 0 41 31q0 20 -21 29.5t-65 9.5l-9 67q51 7 69.5 17t18.5 30q0 13 -8 19t-25 6q-14 0 -21.5 -6t-7.5 -15q0 -11 3 -21l-121 -11q-7 21 -7 50
q0 49 41.5 76.5t115.5 27.5q80 0 119.5 -28.5t39.5 -77.5q0 -29 -20 -52t-54 -37q37 -11 60.5 -35zM148 0l536 700h184l-536 -700h-184zM969.5 231.5q33.5 -31.5 33.5 -95.5q0 -67 -42 -106t-125 -39q-78 0 -118 33t-40 93l128 15q3 -36 36 -36q15 0 23 9t8 27q0 41 -30 41
q-23 0 -36 -21l-122 9l19 239h277l2 -108h-174l-5 -57q32 28 80 28q52 0 85.5 -31.5z" />
    <glyph glyph-name="uni2158" unicode="&#x2158;" horiz-adv-x="1036" 
d="M327 362v-62h-135v62h-187v76l133 262h189v-235h44v-103h-44zM192 597l-57 -132h57v132zM171 0l536 700h184l-536 -700h-184zM992.5 231.5q33.5 -31.5 33.5 -95.5q0 -67 -42 -106t-125 -39q-78 0 -118 33t-40 93l128 15q3 -36 36 -36q15 0 23 9t8 27q0 41 -30 41
q-23 0 -36 -21l-122 9l19 239h277l2 -108h-174l-5 -57q32 28 80 28q52 0 85.5 -31.5z" />
    <glyph glyph-name="uni2159" unicode="&#x2159;" horiz-adv-x="931" 
d="M236 300h-158v243h-68l1 84q44 -3 76 18t43 55h106v-400zM76 0l536 700h184l-536 -700h-184zM883.5 222q32.5 -33 32.5 -86q0 -67 -44.5 -106t-119.5 -39q-76 0 -119 40q-57 54 -57 163q0 102 48 156.5t139 54.5q65 0 102.5 -26.5t37.5 -72.5q0 -17 -4 -28h-115l1 13
q0 7 -6 12t-19 5q-22 0 -34.5 -20t-15.5 -63q30 30 84 30q57 0 89.5 -33zM776.5 102q8.5 10 8.5 27q0 19 -8.5 29.5t-24.5 10.5q-14 0 -22.5 -10t-8.5 -29q0 -18 8 -28t23 -10q16 0 24.5 10z" />
    <glyph glyph-name="uni215A" unicode="&#x215a;" horiz-adv-x="970" 
d="M301.5 531.5q33.5 -31.5 33.5 -95.5q0 -67 -42 -106t-125 -39q-78 0 -118 33t-40 93l128 15q3 -36 36 -36q15 0 23 9t8 27q0 41 -30 41q-23 0 -36 -21l-122 9l19 239h277l2 -108h-174l-5 -57q32 28 80 28q52 0 85.5 -31.5zM115 0l536 700h184l-536 -700h-184zM922.5 222
q32.5 -33 32.5 -86q0 -67 -44.5 -106t-119.5 -39q-76 0 -119 40q-57 54 -57 163q0 102 48 156.5t139 54.5q65 0 102.5 -26.5t37.5 -72.5q0 -17 -4 -28h-115l1 13q0 7 -6 12t-19 5q-22 0 -34.5 -20t-15.5 -63q30 30 84 30q57 0 89.5 -33zM815.5 102q8.5 10 8.5 27
q0 19 -8.5 29.5t-24.5 10.5q-14 0 -22.5 -10t-8.5 -29q0 -18 8 -28t23 -10q16 0 24.5 10z" />
    <glyph glyph-name="oneeighth" unicode="&#x215b;" horiz-adv-x="950" 
d="M236 300h-158v243h-68l1 84q44 -3 76 18t43 55h106v-400zM76 0l536 700h184l-536 -700h-184zM910 168q20 -25 20 -63q0 -55 -44.5 -84.5t-126.5 -29.5q-83 0 -128 29.5t-45 84.5q0 38 19.5 63t57.5 36q-32 11 -48.5 33.5t-16.5 56.5q0 53 42.5 82.5t118.5 29.5
q75 0 117 -29.5t42 -82.5q0 -33 -17 -56t-49 -34q38 -11 58 -36zM728 281q0 -35 31 -35q29 0 29 35q0 17 -8 25.5t-21 8.5q-31 0 -31 -34zM784 90q9 9 9 27q0 38 -34 38q-36 0 -36 -38q0 -36 36 -36q16 0 25 9z" />
    <glyph glyph-name="threeeighths" unicode="&#x215c;" horiz-adv-x="1022" 
d="M334.5 475q23.5 -24 23.5 -64q0 -53 -43 -86.5t-125 -33.5q-91 0 -133 33.5t-42 102.5l128 14q1 -28 11.5 -37t30.5 -9q41 0 41 31q0 20 -21 29.5t-65 9.5l-9 67q51 7 69.5 17t18.5 30q0 13 -8 19t-25 6q-14 0 -21.5 -6t-7.5 -15q0 -11 3 -21l-121 -11q-7 21 -7 50
q0 49 41.5 76.5t115.5 27.5q80 0 119.5 -28.5t39.5 -77.5q0 -29 -20 -52t-54 -37q37 -11 60.5 -35zM148 0l536 700h184l-536 -700h-184zM982 168q20 -25 20 -63q0 -55 -44.5 -84.5t-126.5 -29.5q-83 0 -128 29.5t-45 84.5q0 38 19.5 63t57.5 36q-32 11 -48.5 33.5
t-16.5 56.5q0 53 42.5 82.5t118.5 29.5q75 0 117 -29.5t42 -82.5q0 -33 -17 -56t-49 -34q38 -11 58 -36zM800 281q0 -35 31 -35q29 0 29 35q0 17 -8 25.5t-21 8.5q-31 0 -31 -34zM856 90q9 9 9 27q0 38 -34 38q-36 0 -36 -38q0 -36 36 -36q16 0 25 9z" />
    <glyph glyph-name="fiveeighths" unicode="&#x215d;" horiz-adv-x="989" 
d="M301.5 531.5q33.5 -31.5 33.5 -95.5q0 -67 -42 -106t-125 -39q-78 0 -118 33t-40 93l128 15q3 -36 36 -36q15 0 23 9t8 27q0 41 -30 41q-23 0 -36 -21l-122 9l19 239h277l2 -108h-174l-5 -57q32 28 80 28q52 0 85.5 -31.5zM115 0l536 700h184l-536 -700h-184zM949 168
q20 -25 20 -63q0 -55 -44.5 -84.5t-126.5 -29.5q-83 0 -128 29.5t-45 84.5q0 38 19.5 63t57.5 36q-32 11 -48.5 33.5t-16.5 56.5q0 53 42.5 82.5t118.5 29.5q75 0 117 -29.5t42 -82.5q0 -33 -17 -56t-49 -34q38 -11 58 -36zM767 281q0 -35 31 -35q29 0 29 35q0 17 -8 25.5
t-21 8.5q-31 0 -31 -34zM823 90q9 9 9 27q0 38 -34 38q-36 0 -36 -38q0 -36 36 -36q16 0 25 9z" />
    <glyph glyph-name="seveneighths" unicode="&#x215e;" horiz-adv-x="940" 
d="M311 605q-52 -50 -79 -129t-27 -176h-151q0 81 30 156t85 130h-159v114h301v-95zM66 0l536 700h184l-536 -700h-184zM900 168q20 -25 20 -63q0 -55 -44.5 -84.5t-126.5 -29.5q-83 0 -128 29.5t-45 84.5q0 38 19.5 63t57.5 36q-32 11 -48.5 33.5t-16.5 56.5
q0 53 42.5 82.5t118.5 29.5q75 0 117 -29.5t42 -82.5q0 -33 -17 -56t-49 -34q38 -11 58 -36zM718 281q0 -35 31 -35q29 0 29 35q0 17 -8 25.5t-21 8.5q-31 0 -31 -34zM774 90q9 9 9 27q0 38 -34 38q-36 0 -36 -38q0 -36 36 -36q16 0 25 9z" />
    <glyph glyph-name="onefraction" unicode="&#x215f;" horiz-adv-x="646" 
d="M236 300h-158v243h-68l1 84q44 -3 76 18t43 55h106v-400zM76 0l536 700h184l-536 -700h-184z" />
    <glyph glyph-name="zerothird" unicode="&#x2189;" horiz-adv-x="1025" 
d="M339.5 651.5q47.5 -53.5 47.5 -152.5q0 -100 -47.5 -154t-134.5 -54q-89 0 -137 54t-48 154t48 153t137 53q87 0 134.5 -53.5zM168.5 574.5q-10.5 -23.5 -10.5 -75.5q0 -53 10.5 -76.5t35.5 -23.5q23 0 34 23.5t11 76.5q0 52 -11 75.5t-34 23.5q-25 0 -35.5 -23.5zM157 0
l536 700h184l-536 -700h-184zM981.5 175q23.5 -24 23.5 -64q0 -53 -43 -86.5t-125 -33.5q-91 0 -133 33.5t-42 102.5l128 14q1 -28 11.5 -37t30.5 -9q41 0 41 31q0 20 -21 29.5t-65 9.5l-9 67q51 7 69.5 17t18.5 30q0 13 -8 19t-25 6q-14 0 -21.5 -6t-7.5 -15q0 -11 3 -21
l-121 -11q-7 21 -7 50q0 49 41.5 76.5t115.5 27.5q80 0 119.5 -28.5t39.5 -77.5q0 -29 -20 -52t-54 -37q37 -11 60.5 -35z" />
    <glyph glyph-name="arrowleft" unicode="&#x2190;" 
d="M184 127h190l-75 140h279v180h-279l75 140h-190l-104 -230z" />
    <glyph glyph-name="arrowup" unicode="&#x2191;" horiz-adv-x="580" 
d="M60 486v-190l140 75v-279h180v279l140 -75v190l-230 104z" />
    <glyph glyph-name="arrowright" unicode="&#x2192;" 
d="M474 127h-190l75 140h-279v180h279l-75 140h190l104 -230z" />
    <glyph glyph-name="arrowdown" unicode="&#x2193;" horiz-adv-x="580" 
d="M60 196v190l140 -75v279h180v-279l140 75v-190l-230 -104z" />
    <glyph glyph-name="uni2194" unicode="&#x2194;" horiz-adv-x="1008" 
d="M824 127h-190l75 140h-410l75 -140h-190l-104 230l104 230h190l-75 -140h410l-75 140h190l104 -230z" />
    <glyph glyph-name="arrowupdn" unicode="&#x2195;" horiz-adv-x="580" 
d="M60 47v190l140 -75v410l-140 -75v190l230 104l230 -104v-190l-140 75v-410l140 75v-190l-230 -104z" />
    <glyph glyph-name="partialdiff" unicode="&#x2202;" horiz-adv-x="577" 
d="M367 701q104 -54 147 -141.5t43 -230.5q0 -180 -67 -262t-199 -82q-129 0 -200 71t-71 202q0 120 65.5 186t179.5 66q75 0 129 -32q-19 47 -56.5 74.5t-98.5 44.5t-168 33v159q192 -34 296 -88zM341.5 149q15.5 34 15.5 111q0 63 -15.5 91.5t-50.5 28.5q-37 0 -54 -29
t-17 -93q0 -76 17 -109.5t54 -33.5q35 0 50.5 34z" />
    <glyph glyph-name="emptyset" unicode="&#x2205;" horiz-adv-x="816" 
d="M681 371q0 -78 -35 -139t-96.5 -95.5t-140.5 -34.5q-89 0 -155 43l-113 -113l-71 70l112 112q-46 68 -46 157q0 78 35 139t97 95t141 34q89 0 155 -43l112 112l70 -71l-110 -110q45 -67 45 -156zM263 295l226 226q-34 18 -80 18q-74 0 -116.5 -45t-42.5 -123
q0 -44 13 -76zM555 446l-226 -226q35 -18 80 -18q74 0 116 45t42 124q0 42 -12 75z" />
    <glyph glyph-name="product" unicode="&#x220f;" horiz-adv-x="815" 
d="M685 520v-720h-210v720h-135v-720h-210v720h-90v180h735v-180h-90z" />
    <glyph glyph-name="summation" unicode="&#x2211;" horiz-adv-x="559" 
d="M529 -200h-509v116l222 324l-211 324v136h488v-174h-204l163 -274l-175 -268h226v-184z" />
    <glyph glyph-name="minus" unicode="&#x2212;" horiz-adv-x="550" 
d="M80 281v144h390v-144h-390z" />
    <glyph glyph-name="radical" unicode="&#x221a;" horiz-adv-x="662" 
d="M427 0h-249l-93 285h-65v103h254l49 -204l134 516h185z" />
    <glyph glyph-name="infinity" unicode="&#x221e;" horiz-adv-x="928" 
d="M801 529q51 -28 79 -79t28 -117t-29.5 -117t-82.5 -79t-122 -28q-74 0 -130.5 24.5t-104.5 67.5q-42 -44 -88.5 -68t-106.5 -24q-66 0 -117 28t-79 79t-28 117t29.5 117t83 79t123.5 28q74 0 130.5 -24.5t102.5 -66.5q43 43 90.5 67t104.5 24q66 0 117 -28zM740.5 306.5
q16.5 16.5 16.5 46.5q0 28 -17.5 45.5t-45.5 17.5q-60 0 -113 -50q32 -38 58 -57t55 -19q30 0 46.5 16.5zM343 305q-32 36 -56.5 53.5t-52.5 17.5q-30 0 -46.5 -16.5t-16.5 -46.5q0 -28 17.5 -45.5t45.5 -17.5q54 0 109 55z" />
    <glyph glyph-name="integral" unicode="&#x222b;" horiz-adv-x="380" 
d="M430 730l-47 -139q-20 31 -54 31q-39 0 -39 -70v-555q0 -106 -56.5 -159t-171.5 -53q-58 0 -112 15l47 139q20 -31 54 -31q39 0 39 70v555q0 106 56.5 159t171.5 53q58 0 112 -15z" />
    <glyph glyph-name="approxequal" unicode="&#x2248;" horiz-adv-x="550" 
d="M439 413.5q-36 -44.5 -106 -44.5q-29 0 -49.5 7.5t-41.5 20.5q-10 6 -20 10.5t-19 4.5q-15 0 -24.5 -11t-9.5 -28h-94q0 177 134 177q31 0 52.5 -7t44.5 -20q3 -2 16 -8t25 -6q17 0 25.5 10t8.5 27h94q0 -88 -36 -132.5zM341 156q-31 0 -51.5 7t-45.5 20
q-11 6 -21.5 10.5t-19.5 4.5q-15 0 -24.5 -10.5t-9.5 -27.5h-94q0 177 134 177q31 0 52.5 -7t44.5 -20q3 -2 16 -8t25 -6q17 0 25.5 10t8.5 27h94q0 -177 -134 -177z" />
    <glyph glyph-name="notequal" unicode="&#x2260;" horiz-adv-x="550" 
d="M329 328h121v-150h-143l-23 -160h-114l23 160h-93v150h115l7 50h-122v150h144l23 160h114l-23 -160h92v-150h-114z" />
    <glyph glyph-name="lessequal" unicode="&#x2264;" horiz-adv-x="550" 
d="M75 361l390 -155v181l-230 46l230 46v181l-390 -155v-144zM75 31v144h390v-144h-390z" />
    <glyph glyph-name="greaterequal" unicode="&#x2265;" horiz-adv-x="550" 
d="M470 371l-390 -155v181l230 46l-230 46v181l390 -155v-144zM470 31v144h-390v-144h390z" />
    <glyph glyph-name="triagup" unicode="&#x25b2;" horiz-adv-x="600" 
d="M595 20v-20h-590v20l285 716h20z" />
    <glyph glyph-name="lozenge" unicode="&#x25ca;" horiz-adv-x="631" 
d="M436 0h-239l-167 349l165 350h239l167 -349zM229 353l91 -225l81 209l-91 231z" />
    <glyph glyph-name="a.ss01" horiz-adv-x="593" 
d="M553 0h-170l-15 90q-22 -51 -60.5 -78t-89.5 -27q-89 0 -143.5 70t-54.5 198q0 136 60 209t162 73q53 0 91.5 -17.5t68.5 -52.5l36 55h115v-520zM339.5 168.5q13.5 23.5 13.5 74.5v135q-25 14 -54 14q-41 0 -60 -27t-19 -93q0 -61 19.5 -94t53.5 -33q33 0 46.5 23.5z" />
    <glyph glyph-name="aacute.ss01" horiz-adv-x="593" 
d="M553 0h-170l-15 90q-22 -51 -60.5 -78t-89.5 -27q-89 0 -143.5 70t-54.5 198q0 136 60 209t162 73q53 0 91.5 -17.5t68.5 -52.5l36 55h115v-520zM339.5 168.5q13.5 23.5 13.5 74.5v135q-25 14 -54 14q-41 0 -60 -27t-19 -93q0 -61 19.5 -94t53.5 -33q33 0 46.5 23.5z
M216 561l61 169h226l-113 -169h-174z" />
    <glyph glyph-name="abreve.ss01" horiz-adv-x="593" 
d="M553 0h-170l-15 90q-22 -51 -60.5 -78t-89.5 -27q-89 0 -143.5 70t-54.5 198q0 136 60 209t162 73q53 0 91.5 -17.5t68.5 -52.5l36 55h115v-520zM339.5 168.5q13.5 23.5 13.5 74.5v135q-25 14 -54 14q-41 0 -60 -27t-19 -93q0 -61 19.5 -94t53.5 -33q33 0 46.5 23.5z
M446 599.5q-42 -41.5 -133 -41.5t-133 41.5t-42 133.5h100q0 -27 18 -39.5t57 -12.5q75 0 75 52h100q0 -92 -42 -133.5z" />
    <glyph glyph-name="acircumflex.ss01" horiz-adv-x="593" 
d="M553 0h-170l-15 90q-22 -51 -60.5 -78t-89.5 -27q-89 0 -143.5 70t-54.5 198q0 136 60 209t162 73q53 0 91.5 -17.5t68.5 -52.5l36 55h115v-520zM339.5 168.5q13.5 23.5 13.5 74.5v135q-25 14 -54 14q-41 0 -60 -27t-19 -93q0 -61 19.5 -94t53.5 -33q33 0 46.5 23.5z
M311 629l-57 -68h-152l108 169h207l106 -169h-151z" />
    <glyph glyph-name="adieresis.ss01" horiz-adv-x="593" 
d="M124.5 580q-26.5 23 -26.5 66q0 45 26.5 68.5t74.5 23.5q50 0 76.5 -23.5t26.5 -68.5q0 -43 -26.5 -66t-76.5 -23q-48 0 -74.5 23zM350.5 580q-26.5 23 -26.5 66q0 45 26.5 68.5t74.5 23.5q50 0 76.5 -23.5t26.5 -68.5q0 -43 -26.5 -66t-76.5 -23q-48 0 -74.5 23zM553 0
h-170l-15 90q-22 -51 -60.5 -78t-89.5 -27q-89 0 -143.5 70t-54.5 198q0 136 60 209t162 73q53 0 91.5 -17.5t68.5 -52.5l36 55h115v-520zM339.5 168.5q13.5 23.5 13.5 74.5v135q-25 14 -54 14q-41 0 -60 -27t-19 -93q0 -61 19.5 -94t53.5 -33q33 0 46.5 23.5z" />
    <glyph glyph-name="agrave.ss01" horiz-adv-x="593" 
d="M553 0h-170l-15 90q-22 -51 -60.5 -78t-89.5 -27q-89 0 -143.5 70t-54.5 198q0 136 60 209t162 73q53 0 91.5 -17.5t68.5 -52.5l36 55h115v-520zM339.5 168.5q13.5 23.5 13.5 74.5v135q-25 14 -54 14q-41 0 -60 -27t-19 -93q0 -61 19.5 -94t53.5 -33q33 0 46.5 23.5z
M248 561l-113 169h232l61 -169h-180z" />
    <glyph glyph-name="amacron.ss01" horiz-adv-x="593" 
d="M553 0h-170l-15 90q-22 -51 -60.5 -78t-89.5 -27q-89 0 -143.5 70t-54.5 198q0 136 60 209t162 73q53 0 91.5 -17.5t68.5 -52.5l36 55h115v-520zM339.5 168.5q13.5 23.5 13.5 74.5v135q-25 14 -54 14q-41 0 -60 -27t-19 -93q0 -61 19.5 -94t53.5 -33q33 0 46.5 23.5z
M489 573h-353v145h353v-145z" />
    <glyph glyph-name="aogonek.ss01" horiz-adv-x="593" 
d="M502.5 -41.5q-7.5 -18.5 -7.5 -38.5q0 -13 6 -20t15 -7q11 0 21 3l9 -88q-29 -13 -68 -13q-49 0 -77.5 22t-28.5 65q0 66 70 118h-59l-15 90q-22 -51 -60.5 -78t-89.5 -27q-89 0 -143.5 70t-54.5 198q0 136 60 209t162 73q53 0 91.5 -17.5t68.5 -52.5l36 55h115v-520h-27
q-16 -23 -23.5 -41.5zM339.5 168.5q13.5 23.5 13.5 74.5v135q-25 14 -54 14q-41 0 -60 -27t-19 -93q0 -61 19.5 -94t53.5 -33q33 0 46.5 23.5z" />
    <glyph glyph-name="aring.ss01" horiz-adv-x="593" 
d="M553 0h-170l-15 90q-22 -51 -60.5 -78t-89.5 -27q-89 0 -143.5 70t-54.5 198q0 136 60 209t162 73q53 0 91.5 -17.5t68.5 -52.5l36 55h115v-520zM339.5 168.5q13.5 23.5 13.5 74.5v135q-25 14 -54 14q-41 0 -60 -27t-19 -93q0 -61 19.5 -94t53.5 -33q33 0 46.5 23.5z
M447.5 726q40.5 -22 40.5 -74t-40 -74.5t-135 -22.5t-135 22.5t-40 74.5t40.5 74t134.5 22t134.5 -22zM278 652q0 -19 9 -29.5t26 -10.5t26 10.5t9 29.5q0 39 -35 39t-35 -39z" />
    <glyph glyph-name="aringacute.ss01" horiz-adv-x="593" 
d="M172 577.5q-40 22.5 -40 74.5q0 37 20 58.5t65 30.5l54 149h232l-100 -150q42 -10 60.5 -31t18.5 -57q0 -52 -40 -74.5t-135 -22.5t-135 22.5zM333 622.5q9 10.5 9 29.5q0 39 -35 39t-35 -39q0 -19 9 -29.5t26 -10.5t26 10.5zM553 0h-170l-15 90q-22 -51 -60.5 -78
t-89.5 -27q-89 0 -143.5 70t-54.5 198q0 136 60 209t162 73q53 0 91.5 -17.5t68.5 -52.5l36 55h115v-520zM339.5 168.5q13.5 23.5 13.5 74.5v135q-25 14 -54 14q-41 0 -60 -27t-19 -93q0 -61 19.5 -94t53.5 -33q33 0 46.5 23.5z" />
    <glyph glyph-name="atilde.ss01" horiz-adv-x="593" 
d="M553 0h-170l-15 90q-22 -51 -60.5 -78t-89.5 -27q-89 0 -143.5 70t-54.5 198q0 136 60 209t162 73q53 0 91.5 -17.5t68.5 -52.5l36 55h115v-520zM339.5 168.5q13.5 23.5 13.5 74.5v135q-25 14 -54 14q-41 0 -60 -27t-19 -93q0 -61 19.5 -94t53.5 -33q33 0 46.5 23.5z
M469.5 607.5q-33.5 -42.5 -98.5 -42.5q-27 0 -46.5 7.5t-41.5 21.5q-11 7 -21 12t-19 5q-16 0 -25.5 -11.5t-9.5 -31.5h-85q0 83 31.5 126t93.5 43q29 0 50 -7.5t44 -21.5q14 -8 23 -12t18 -4q35 0 35 42h85q0 -84 -33.5 -126.5z" />
    <glyph glyph-name="g.ss02" horiz-adv-x="576" 
d="M501 395q3 -18 3 -37q0 -85 -64 -131t-169 -46h-12q-6 -5 -6 -13q0 -13 20 -20t68 -17q64 -12 108 -26.5t77 -48t33 -90.5q0 -181 -301 -181q-138 0 -198 37t-60 97q0 40 31.5 65.5t87.5 34.5q-30 30 -30 75q0 37 24.5 61.5t67.5 35.5q-68 17 -106 59.5t-38 107.5
q0 177 234 177q125 0 182 -51l30 36h83v-130zM310 301q13 18 13 58t-13 58t-39 18q-27 0 -40 -18t-13 -58t13 -58t40 -18q26 0 39 18zM336 -54.5q-20 7.5 -64 14.5q-42 7 -72 16q-26 -11 -26 -34q0 -19 22 -30t89 -11q43 0 57 5.5t14 17.5q0 14 -20 21.5z" />
    <glyph glyph-name="gbreve.ss02" horiz-adv-x="576" 
d="M501 395q3 -18 3 -37q0 -85 -64 -131t-169 -46h-12q-6 -5 -6 -13q0 -13 20 -20t68 -17q64 -12 108 -26.5t77 -48t33 -90.5q0 -181 -301 -181q-138 0 -198 37t-60 97q0 40 31.5 65.5t87.5 34.5q-30 30 -30 75q0 37 24.5 61.5t67.5 35.5q-68 17 -106 59.5t-38 107.5
q0 177 234 177q125 0 182 -51l30 36h83v-130zM310 301q13 18 13 58t-13 58t-39 18q-27 0 -40 -18t-13 -58t13 -58t40 -18q26 0 39 18zM336 -54.5q-20 7.5 -64 14.5q-42 7 -72 16q-26 -11 -26 -34q0 -19 22 -30t89 -11q43 0 57 5.5t14 17.5q0 14 -20 21.5zM421 599.5
q-42 -41.5 -133 -41.5t-133 41.5t-42 133.5h100q0 -27 18 -39.5t57 -12.5q75 0 75 52h100q0 -92 -42 -133.5z" />
    <glyph glyph-name="gcommaaccent.ss02" horiz-adv-x="576" 
d="M501 395q3 -18 3 -37q0 -85 -64 -131t-169 -46h-12q-6 -5 -6 -13q0 -13 20 -20t68 -17q64 -12 108 -26.5t77 -48t33 -90.5q0 -181 -301 -181q-138 0 -198 37t-60 97q0 40 31.5 65.5t87.5 34.5q-30 30 -30 75q0 37 24.5 61.5t67.5 35.5q-68 17 -106 59.5t-38 107.5
q0 177 234 177q125 0 182 -51l30 36h83v-130zM310 301q13 18 13 58t-13 58t-39 18q-27 0 -40 -18t-13 -58t13 -58t40 -18q26 0 39 18zM336 -54.5q-20 7.5 -64 14.5q-42 7 -72 16q-26 -11 -26 -34q0 -19 22 -30t89 -11q43 0 57 5.5t14 17.5q0 14 -20 21.5zM216.5 573
q-27.5 24 -27.5 66q0 51 42 77t132 26l6 -41q-59 0 -87 -10.5t-33 -30.5q17 15 53 15q40 0 62 -16.5t22 -45.5q0 -30 -23.5 -47t-68.5 -17q-50 0 -77.5 24z" />
    <glyph glyph-name="gdotaccent.ss02" horiz-adv-x="576" 
d="M501 395q3 -18 3 -37q0 -85 -64 -131t-169 -46h-12q-6 -5 -6 -13q0 -13 20 -20t68 -17q64 -12 108 -26.5t77 -48t33 -90.5q0 -181 -301 -181q-138 0 -198 37t-60 97q0 40 31.5 65.5t87.5 34.5q-30 30 -30 75q0 37 24.5 61.5t67.5 35.5q-68 17 -106 59.5t-38 107.5
q0 177 234 177q125 0 182 -51l30 36h83v-130zM310 301q13 18 13 58t-13 58t-39 18q-27 0 -40 -18t-13 -58t13 -58t40 -18q26 0 39 18zM336 -54.5q-20 7.5 -64 14.5q-42 7 -72 16q-26 -11 -26 -34q0 -19 22 -30t89 -11q43 0 57 5.5t14 17.5q0 14 -20 21.5zM371 724.5
q30 -24.5 30 -71.5q0 -46 -30 -70t-85 -24q-54 0 -83 24.5t-29 69.5q0 47 29 71.5t83 24.5q55 0 85 -24.5z" />
    <glyph glyph-name="i.loclTRK" horiz-adv-x="300" 
d="M45 0v520h210v-520h-210zM233 724.5q30 -24.5 30 -71.5q0 -46 -30 -70t-85 -24q-54 0 -83 24.5t-29 69.5q0 47 29 71.5t83 24.5q55 0 85 -24.5z" />
    <glyph glyph-name="y.ss03" horiz-adv-x="585" 
d="M545 93q0 -148 -76.5 -228t-218.5 -80q-131 0 -235 38l84 176q27 -31 60 -49t70 -18q62 0 88.5 31.5t27.5 106.5q-25 -35 -60.5 -54.5t-78.5 -19.5q-80 0 -125.5 48.5t-45.5 156.5v319h200v-290q0 -34 14.5 -51.5t39.5 -17.5q28 0 42 15.5t14 53.5v290h200v-427z" />
    <glyph glyph-name="yacute.ss03" horiz-adv-x="585" 
d="M545 93q0 -148 -76.5 -228t-218.5 -80q-131 0 -235 38l84 176q27 -31 60 -49t70 -18q62 0 88.5 31.5t27.5 106.5q-25 -35 -60.5 -54.5t-78.5 -19.5q-80 0 -125.5 48.5t-45.5 156.5v319h200v-290q0 -34 14.5 -51.5t39.5 -17.5q28 0 42 15.5t14 53.5v290h200v-427zM196 561
l61 169h226l-113 -169h-174z" />
    <glyph glyph-name="ycircumflex.ss03" horiz-adv-x="585" 
d="M545 93q0 -148 -76.5 -228t-218.5 -80q-131 0 -235 38l84 176q27 -31 60 -49t70 -18q62 0 88.5 31.5t27.5 106.5q-25 -35 -60.5 -54.5t-78.5 -19.5q-80 0 -125.5 48.5t-45.5 156.5v319h200v-290q0 -34 14.5 -51.5t39.5 -17.5q28 0 42 15.5t14 53.5v290h200v-427zM291 629
l-57 -68h-152l108 169h207l106 -169h-151z" />
    <glyph glyph-name="ydieresis.ss03" horiz-adv-x="585" 
d="M104.5 580q-26.5 23 -26.5 66q0 45 26.5 68.5t74.5 23.5q50 0 76.5 -23.5t26.5 -68.5q0 -43 -26.5 -66t-76.5 -23q-48 0 -74.5 23zM330.5 580q-26.5 23 -26.5 66q0 45 26.5 68.5t74.5 23.5q50 0 76.5 -23.5t26.5 -68.5q0 -43 -26.5 -66t-76.5 -23q-48 0 -74.5 23zM545 93
q0 -148 -76.5 -228t-218.5 -80q-131 0 -235 38l84 176q27 -31 60 -49t70 -18q62 0 88.5 31.5t27.5 106.5q-25 -35 -60.5 -54.5t-78.5 -19.5q-80 0 -125.5 48.5t-45.5 156.5v319h200v-290q0 -34 14.5 -51.5t39.5 -17.5q28 0 42 15.5t14 53.5v290h200v-427z" />
    <glyph glyph-name="ygrave.ss03" horiz-adv-x="585" 
d="M545 93q0 -148 -76.5 -228t-218.5 -80q-131 0 -235 38l84 176q27 -31 60 -49t70 -18q62 0 88.5 31.5t27.5 106.5q-25 -35 -60.5 -54.5t-78.5 -19.5q-80 0 -125.5 48.5t-45.5 156.5v319h200v-290q0 -34 14.5 -51.5t39.5 -17.5q28 0 42 15.5t14 53.5v290h200v-427zM228 561
l-113 169h232l61 -169h-180z" />
    <glyph glyph-name="T_h" horiz-adv-x="1088" 
d="M1014.5 483.5q38.5 -51.5 38.5 -169.5v-314h-200v299q0 71 -54 71q-59 0 -59 -76v-294h-200v520h-152v-520h-210v520h-168v180h530v30h200v-294q43 99 155 99q81 0 119.5 -51.5z" />
    <glyph glyph-name="w_w_w" horiz-adv-x="2272" 
d="M2128 0h-206l-62 257l-57 -257h-208l-97 381l-94 -381h-206l-62 257l-57 -257h-208l-97 381l-94 -381h-206l-62 257l-57 -257h-208l-132 521h190l70 -287l67 287h160l74 -294l68 294h285l70 -287l67 287h160l74 -294l68 294h285l70 -287l67 287h160l74 -294l68 294h165z
" />
    <glyph glyph-name="zero.slash" horiz-adv-x="616" 
d="M522 621q74 -94 74 -269q0 -177 -74 -272t-212 -95q-140 0 -215 95t-75 272q0 175 75 269t215 94q138 0 212 -94zM252.5 499q-17.5 -46 -17.5 -147q0 -104 17 -150.5t57 -46.5q38 0 55 46.5t17 150.5q0 101 -17 147t-55 46q-39 0 -56.5 -46zM351 395q15 -15 15 -42
t-15 -42t-42 -15t-42.5 15t-15 42t15.5 42t42 15t42 -15z" />
    <glyph glyph-name="zero.tf.slash" horiz-adv-x="580" 
d="M490 620.5q70 -94.5 70 -268.5q0 -176 -70 -271.5t-198 -95.5q-130 0 -201 95t-71 272q0 174 71 268.5t201 94.5q128 0 198 -94.5zM252.5 527q-14.5 -18 -21 -60t-6.5 -115q0 -75 6.5 -117.5t21 -61t38.5 -18.5t38 18.5t20 61t6 117.5q0 73 -6 115t-20 60t-38 18
t-38.5 -18zM330.5 403.5q14.5 -16.5 14.5 -46t-14.5 -45.5t-40.5 -16t-40.5 16t-14.5 45.5t14.5 46t40.5 16.5t40.5 -16.5z" />
    <glyph glyph-name="zero.ss04" horiz-adv-x="1316" 
d="M944.5 836q127.5 -72 199.5 -199.5t72 -286.5t-72 -286.5t-199.5 -199.5t-286.5 -72t-286.5 72t-199.5 199.5t-72 286.5t72 286.5t199.5 199.5t286.5 72t286.5 -72zM435 739.5q-100 -58.5 -157 -160.5t-57 -229t57 -229t157 -160.5t223 -58.5t223 58.5t157 160.5t57 229
t-57 229t-157 160.5t-223 58.5t-223 -58.5zM794.5 502.5q47.5 -53.5 47.5 -152.5q0 -100 -47.5 -154t-134.5 -54q-89 0 -137 54t-48 154t48 153t137 53q87 0 134.5 -53.5zM624.5 424.5q-10.5 -23.5 -10.5 -74.5q0 -53 10.5 -76t34.5 -23q23 0 33.5 23.5t10.5 75.5
q0 51 -10.5 74.5t-33.5 23.5q-24 0 -34.5 -23.5z" />
    <glyph glyph-name="one.ss04" horiz-adv-x="1316" 
d="M944.5 836q127.5 -72 199.5 -199.5t72 -286.5t-72 -286.5t-199.5 -199.5t-286.5 -72t-286.5 72t-199.5 199.5t-72 286.5t72 286.5t199.5 199.5t286.5 72t286.5 -72zM881 -39.5q100 58.5 157 160.5t57 229t-57 229t-157 160.5t-223 58.5t-223 -58.5t-157 -160.5t-57 -229
t57 -229t157 -160.5t223 -58.5t223 58.5zM798 254v-104h-309v104h87v138h-68l1 85q45 -3 77 18t43 55h107v-296h62z" />
    <glyph glyph-name="two.ss04" horiz-adv-x="1316" 
d="M944.5 836q127.5 -72 199.5 -199.5t72 -286.5t-72 -286.5t-199.5 -199.5t-286.5 -72t-286.5 72t-199.5 199.5t-72 286.5t72 286.5t199.5 199.5t286.5 72t286.5 -72zM881 -39.5q100 58.5 157 160.5t57 229t-57 229t-157 160.5t-223 58.5t-223 -58.5t-157 -160.5t-57 -229
t57 -229t157 -160.5t223 -58.5t223 58.5zM787.5 355.5q-29.5 -30.5 -83.5 -64.5q-19 -11 -37 -24h151v-117h-315q-2 38 -2 57q0 45 27.5 74t78.5 62q39 25 57 42t18 40q0 28 -21 28q-12 0 -18.5 -6t-6.5 -15q0 -20 7 -33l-120 -9q-14 14 -14 53q0 51 41.5 81.5t114.5 30.5
q78 0 115 -32.5t37 -90.5q0 -46 -29.5 -76.5z" />
    <glyph glyph-name="three.ss04" horiz-adv-x="1316" 
d="M944.5 836q127.5 -72 199.5 -199.5t72 -286.5t-72 -286.5t-199.5 -199.5t-286.5 -72t-286.5 72t-199.5 199.5t-72 286.5t72 286.5t199.5 199.5t286.5 72t286.5 -72zM881 -39.5q100 58.5 157 160.5t57 229t-57 229t-157 160.5t-223 58.5t-223 -58.5t-157 -160.5t-57 -229
t57 -229t157 -160.5t223 -58.5t223 58.5zM807.5 325q23.5 -24 23.5 -64q0 -53 -43 -86.5t-125 -33.5q-91 0 -133 33.5t-42 102.5l129 14q1 -27 11.5 -36t29.5 -9q40 0 40 30q0 20 -20.5 29.5t-64.5 9.5l-9 67q51 6 69 16.5t18 30.5q0 13 -7.5 18.5t-24.5 5.5q-14 0 -21 -5.5
t-7 -14.5q0 -10 3 -21l-122 -11q-7 21 -7 50q0 49 41.5 76.5t115.5 27.5q80 0 120 -28.5t40 -77.5q0 -29 -20 -52t-55 -37q37 -11 60.5 -35z" />
    <glyph glyph-name="four.ss04" horiz-adv-x="1316" 
d="M944.5 836q127.5 -72 199.5 -199.5t72 -286.5t-72 -286.5t-199.5 -199.5t-286.5 -72t-286.5 72t-199.5 199.5t-72 286.5t72 286.5t199.5 199.5t286.5 72t286.5 -72zM881 -39.5q100 58.5 157 160.5t57 229t-57 229t-157 160.5t-223 58.5t-223 -58.5t-157 -160.5t-57 -229
t57 -229t157 -160.5t223 -58.5t223 58.5zM826 316v-104h-44v-62h-136v62h-198v76l143 262h191v-234h44zM646 452l-65 -136h65v136z" />
    <glyph glyph-name="five.ss04" horiz-adv-x="1316" 
d="M944.5 836q127.5 -72 199.5 -199.5t72 -286.5t-72 -286.5t-199.5 -199.5t-286.5 -72t-286.5 72t-199.5 199.5t-72 286.5t72 286.5t199.5 199.5t286.5 72t286.5 -72zM881 -39.5q100 58.5 157 160.5t57 229t-57 229t-157 160.5t-223 58.5t-223 -58.5t-157 -160.5t-57 -229
t57 -229t157 -160.5t223 -58.5t223 58.5zM791.5 381.5q33.5 -31.5 33.5 -95.5q0 -67 -42 -106t-125 -39q-78 0 -118 33t-40 93l129 15q1 -18 11 -26.5t24 -8.5t22 9t8 26q0 21 -7 30.5t-22 9.5q-13 0 -21 -5t-14 -15l-123 9l19 239h277l2 -109h-173l-5 -56q32 28 79 28
q52 0 85.5 -31.5z" />
    <glyph glyph-name="six.ss04" horiz-adv-x="1316" 
d="M944.5 836q127.5 -72 199.5 -199.5t72 -286.5t-72 -286.5t-199.5 -199.5t-286.5 -72t-286.5 72t-199.5 199.5t-72 286.5t72 286.5t199.5 199.5t286.5 72t286.5 -72zM881 -39.5q100 58.5 157 160.5t57 229t-57 229t-157 160.5t-223 58.5t-223 -58.5t-157 -160.5t-57 -229
t57 -229t157 -160.5t223 -58.5t223 58.5zM787.5 372q32.5 -33 32.5 -86q0 -67 -44.5 -106t-119.5 -39q-76 0 -119 40q-57 54 -57 163q0 102 48 156.5t139 54.5q65 0 102.5 -26.5t37.5 -72.5q0 -17 -4 -28h-116l1 13q0 16 -24 16q-22 0 -34 -19.5t-15 -61.5q31 29 83 29
q57 0 89.5 -33zM679.5 253q8.5 10 8.5 26q0 40 -32 40q-14 0 -22 -10t-8 -29q0 -18 8 -27.5t22 -9.5q15 0 23.5 10z" />
    <glyph glyph-name="seven.ss04" horiz-adv-x="1316" 
d="M944.5 836q127.5 -72 199.5 -199.5t72 -286.5t-72 -286.5t-199.5 -199.5t-286.5 -72t-286.5 72t-199.5 199.5t-72 286.5t72 286.5t199.5 199.5t286.5 72t286.5 -72zM881 -39.5q100 58.5 157 160.5t57 229t-57 229t-157 160.5t-223 58.5t-223 -58.5t-157 -160.5t-57 -229
t57 -229t157 -160.5t223 -58.5t223 58.5zM808 547v-96q-51 -50 -78 -128.5t-27 -175.5h-153q0 80 30 155t84 130h-157v115h301z" />
    <glyph glyph-name="eight.ss04" horiz-adv-x="1316" 
d="M944.5 836q127.5 -72 199.5 -199.5t72 -286.5t-72 -286.5t-199.5 -199.5t-286.5 -72t-286.5 72t-199.5 199.5t-72 286.5t72 286.5t199.5 199.5t286.5 72t286.5 -72zM881 -39.5q100 58.5 157 160.5t57 229t-57 229t-157 160.5t-223 58.5t-223 -58.5t-157 -160.5t-57 -229
t57 -229t157 -160.5t223 -58.5t223 58.5zM810 318q20 -25 20 -63q0 -55 -44.5 -84.5t-126.5 -29.5q-83 0 -128 29.5t-45 84.5q0 38 19.5 63t57.5 36q-32 11 -48.5 33.5t-16.5 56.5q0 53 42.5 82.5t118.5 29.5q75 0 117 -29.5t42 -82.5q0 -33 -17 -56t-49 -34q38 -11 58 -36z
M629 431q0 -35 30 -35q28 0 28 35q0 17 -7.5 25t-20.5 8q-30 0 -30 -33zM692 267q0 38 -33 38q-35 0 -35 -38q0 -35 35 -35q33 0 33 35z" />
    <glyph glyph-name="nine.ss04" horiz-adv-x="1316" 
d="M944.5 836q127.5 -72 199.5 -199.5t72 -286.5t-72 -286.5t-199.5 -199.5t-286.5 -72t-286.5 72t-199.5 199.5t-72 286.5t72 286.5t199.5 199.5t286.5 72t286.5 -72zM881 -39.5q100 58.5 157 160.5t57 229t-57 229t-157 160.5t-223 58.5t-223 -58.5t-157 -160.5t-57 -229
t57 -229t157 -160.5t223 -58.5t223 58.5zM790 505q24 -26 36 -65t12 -87q0 -101 -51 -156.5t-145 -55.5q-46 0 -85.5 12.5t-67.5 34.5l76 106q32 -42 77 -42q30 0 44 16t17 55q-26 -32 -82 -32q-58 0 -92.5 34t-34.5 86q0 67 45 105.5t122 38.5q84 0 129 -50zM689.5 400.5
q9.5 8.5 9.5 22.5q0 16 -9.5 25.5t-25.5 9.5q-18 0 -28 -9t-10 -26q0 -14 10 -22.5t28 -8.5q16 0 25.5 8.5z" />
    <glyph glyph-name="zero.left.ss04" 
d="M435 739.5q-100 -58.5 -157 -160.5t-57 -229t57 -229t157 -160.5t223 -58.5v-110q-159 0 -286.5 72t-199.5 199.5t-72 286.5t72 286.5t199.5 199.5t286.5 72v-110q-123 0 -223 -58.5zM595.5 502.5q47.5 -53.5 47.5 -152.5q0 -100 -47.5 -154t-134.5 -54q-89 0 -137.5 54
t-48.5 154t48.5 153t137.5 53q87 0 134.5 -53.5zM425.5 425q-10.5 -23 -10.5 -75q0 -53 10 -76t35 -23q23 0 33.5 23.5t10.5 75.5q0 51 -10.5 74.5t-33.5 23.5q-24 0 -34.5 -23z" />
    <glyph glyph-name="one.left.ss04" 
d="M435 739.5q-100 -58.5 -157 -160.5t-57 -229t57 -229t157 -160.5t223 -58.5v-110q-159 0 -286.5 72t-199.5 199.5t-72 286.5t72 286.5t199.5 199.5t286.5 72v-110q-123 0 -223 -58.5zM417 392h-68l2 85q44 -3 76 18t43 55h107v-296h54v-104h-309v104h95v138z" />
    <glyph glyph-name="two.left.ss04" 
d="M435 739.5q-100 -58.5 -157 -160.5t-57 -229t57 -229t157 -160.5t223 -58.5v-110q-159 0 -286.5 72t-199.5 199.5t-72 286.5t72 286.5t199.5 199.5t286.5 72v-110q-123 0 -223 -58.5zM337.5 281q27.5 29 78.5 62q39 25 57 42t18 40q0 28 -21 28q-13 0 -19 -6t-6 -15
q0 -20 7 -33l-120 -9q-14 14 -14 53q0 51 41.5 81.5t114.5 30.5q78 0 115 -32.5t37 -90.5q0 -46 -29.5 -76.5t-83.5 -64.5q-19 -11 -37 -24h151v-117h-315q-2 38 -2 57q0 45 27.5 74z" />
    <glyph glyph-name="three.left.ss04" 
d="M435 739.5q-100 -58.5 -157 -160.5t-57 -229t57 -229t157 -160.5t223 -58.5v-110q-159 0 -286.5 72t-199.5 199.5t-72 286.5t72 286.5t199.5 199.5t286.5 72v-110q-123 0 -223 -58.5zM503 276q0 20 -20.5 29.5t-64.5 9.5l-9 67q51 6 69 16.5t18 30.5q0 24 -32 24
q-14 0 -21 -5.5t-7 -14.5q0 -11 3 -21l-123 -11q-7 21 -7 50q0 49 42 76.5t116 27.5q80 0 119.5 -28.5t39.5 -77.5q0 -29 -20 -52t-54 -37q37 -11 60.5 -35t23.5 -64q0 -53 -43 -86.5t-125 -33.5q-91 0 -133.5 33.5t-42.5 102.5l130 14q1 -28 11 -36.5t30 -8.5q40 0 40 30z
" />
    <glyph glyph-name="four.left.ss04" 
d="M435 739.5q-100 -58.5 -157 -160.5t-57 -229t57 -229t157 -160.5t223 -58.5v-110q-159 0 -286.5 72t-199.5 199.5t-72 286.5t72 286.5t199.5 199.5t286.5 72v-110q-123 0 -223 -58.5zM461 212h-187v76l133 262h191v-234h43v-104h-43v-62h-137v62zM461 446l-55 -130h55
v130z" />
    <glyph glyph-name="five.left.ss04" 
d="M435 739.5q-100 -58.5 -157 -160.5t-57 -229t57 -229t157 -160.5t223 -58.5v-110q-159 0 -286.5 72t-199.5 199.5t-72 286.5t72 286.5t199.5 199.5t286.5 72v-110q-123 0 -223 -58.5zM490 256q8 9 8 26q0 21 -7 30.5t-22 9.5q-13 0 -21 -5t-14 -15l-123 9l19 239h277
l2 -109h-173l-5 -55q32 27 79 27q52 0 85.5 -31.5t33.5 -95.5q0 -67 -42 -106t-125 -39q-78 0 -118.5 33t-39.5 93l129 15q3 -35 35 -35q14 0 22 9z" />
    <glyph glyph-name="six.left.ss04" 
d="M435 739.5q-100 -58.5 -157 -160.5t-57 -229t57 -229t157 -160.5t223 -58.5v-110q-159 0 -286.5 72t-199.5 199.5t-72 286.5t72 286.5t199.5 199.5t286.5 72v-110q-123 0 -223 -58.5zM494 441q0 7 -6 11.5t-18 4.5q-22 0 -34 -19t-15 -62q31 29 83 29q57 0 89.5 -33
t32.5 -86q0 -67 -44.5 -106t-119.5 -39q-76 0 -119 40q-58 55 -58 163q0 102 48.5 156.5t139.5 54.5q65 0 102.5 -26.5t37.5 -72.5q0 -17 -4 -28h-116zM440 309q-8 -10 -8 -29q0 -37 30 -37q15 0 23.5 10t8.5 26q0 19 -8.5 29.5t-23.5 10.5q-14 0 -22 -10z" />
    <glyph glyph-name="seven.left.ss04" 
d="M435 739.5q-100 -58.5 -157 -160.5t-57 -229t57 -229t157 -160.5t223 -58.5v-110q-159 0 -286.5 72t-199.5 199.5t-72 286.5t72 286.5t199.5 199.5t286.5 72v-110q-123 0 -223 -58.5zM418 302q30 75 84 130h-158v115h301v-96q-51 -50 -78 -128.5t-27 -175.5h-152
q0 80 30 155z" />
    <glyph glyph-name="eight.left.ss04" 
d="M435 739.5q-100 -58.5 -157 -160.5t-57 -229t57 -229t157 -160.5t223 -58.5v-110q-159 0 -286.5 72t-199.5 199.5t-72 286.5t72 286.5t199.5 199.5t286.5 72v-110q-123 0 -223 -58.5zM322.5 318q19.5 25 57.5 36q-32 11 -48.5 33.5t-16.5 56.5q0 53 42.5 82.5t118.5 29.5
q75 0 117 -29.5t42 -82.5q0 -33 -17 -56t-49 -34q38 -11 58 -36t20 -63q0 -55 -44.5 -84.5t-126.5 -29.5q-83 0 -128 29.5t-45 84.5q0 38 19.5 63zM446 431q0 -19 7.5 -27t22.5 -8q28 0 28 35q0 17 -7.5 25t-20.5 8q-30 0 -30 -33zM509 267q0 38 -33 38q-35 0 -35 -38
q0 -35 35 -35q33 0 33 35z" />
    <glyph glyph-name="nine.left.ss04" 
d="M435 739.5q-100 -58.5 -157 -160.5t-57 -229t57 -229t157 -160.5t223 -58.5v-110q-159 0 -286.5 72t-199.5 199.5t-72 286.5t72 286.5t199.5 199.5t286.5 72v-110q-123 0 -223 -58.5zM491 268q14 16 17 55q-26 -32 -82 -32q-59 0 -93.5 34t-34.5 86q0 67 45.5 105.5
t122.5 38.5q84 0 129 -50q24 -26 36 -65t12 -87q0 -101 -51 -156.5t-145 -55.5q-46 0 -85.5 12.5t-67.5 34.5l76 106q31 -42 77 -42q30 0 44 16zM494.5 400.5q9.5 8.5 9.5 22.5q0 16 -9.5 25.5t-25.5 9.5q-18 0 -28 -9t-10 -26q0 -14 10 -22.5t28 -8.5q16 0 25.5 8.5z" />
    <glyph glyph-name="zero.middle.ss04" horiz-adv-x="396" 
d="M396 798h-396v110h396v-110zM333.5 502.5q47.5 -53.5 47.5 -152.5q0 -100 -47.5 -154t-134.5 -54q-89 0 -137 54t-48 154t48 153t137 53q87 0 134.5 -53.5zM163.5 424.5q-10.5 -23.5 -10.5 -74.5q0 -53 10.5 -76t34.5 -23q23 0 33.5 23.5t10.5 75.5q0 51 -10.5 74.5
t-33.5 23.5q-24 0 -34.5 -23.5zM396 -208h-396v110h396v-110z" />
    <glyph glyph-name="one.middle.ss04" horiz-adv-x="366" 
d="M366 798h-366v110h366v-110zM123 392h-67l1 85q44 -3 76 18t43 55h107v-296h58v-104h-309v104h91v138zM366 -98v-110h-366v110h366z" />
    <glyph glyph-name="two.middle.ss04" horiz-adv-x="381" 
d="M381 798h-381v110h381v-110zM62.5 281q27.5 29 78.5 62q39 25 57 42t18 40q0 28 -21 28q-12 0 -18.5 -6t-6.5 -15q0 -20 7 -33l-120 -9q-14 14 -14 53q0 51 41.5 81.5t114.5 30.5q78 0 115 -32.5t37 -90.5q0 -46 -29.5 -76.5t-83.5 -64.5q-19 -11 -37 -24h151v-117h-315
q-2 38 -2 57q0 45 27.5 74zM381 -98v-110h-381v110h381z" />
    <glyph glyph-name="three.middle.ss04" horiz-adv-x="379" 
d="M379 798h-379v110h379v-110zM226 276q0 20 -20.5 29.5t-64.5 9.5l-9 67q51 6 69 16.5t18 30.5q0 13 -7.5 18.5t-24.5 5.5q-14 0 -21 -5.5t-7 -14.5q0 -10 3 -21l-122 -11q-7 21 -7 50q0 49 41.5 76.5t115.5 27.5q80 0 120 -28.5t40 -77.5q0 -29 -20 -52t-55 -37
q37 -11 60.5 -35t23.5 -64q0 -53 -43 -86.5t-125 -33.5q-91 0 -133 33.5t-42 102.5l129 14q1 -27 11.5 -36t29.5 -9q40 0 40 30zM379 -98v-110h-379v110h379z" />
    <glyph glyph-name="four.middle.ss04" horiz-adv-x="396" 
d="M396 798h-396v110h396v-110zM340 316h43v-104h-43v-62h-137v62h-186v76l132 262h191v-234zM203 444l-55 -128h55v128zM396 -98v-110h-396v110h396z" />
    <glyph glyph-name="five.middle.ss04" horiz-adv-x="396" 
d="M396 798h-396v110h396v-110zM230 256q8 9 8 26q0 21 -7 30.5t-22 9.5q-13 0 -21 -5t-14 -15l-123 9l19 239h277l2 -109h-173l-5 -56q32 28 79 28q52 0 85.5 -31.5t33.5 -95.5q0 -67 -42 -106t-125 -39q-78 0 -118 33t-40 93l129 15q1 -18 11 -26.5t24 -8.5t22 9zM396 -98
v-110h-396v110h396z" />
    <glyph glyph-name="six.middle.ss04" horiz-adv-x="396" 
d="M396 798h-396v110h396v-110zM234 441q0 7 -6 11.5t-18 4.5q-22 0 -34 -19.5t-15 -61.5q31 29 83 29q57 0 89.5 -33t32.5 -86q0 -67 -44.5 -106t-119.5 -39q-76 0 -119 40q-57 54 -57 163q0 102 48 156.5t139 54.5q65 0 102.5 -26.5t37.5 -72.5q0 -17 -4 -28h-116z
M180 309q-8 -10 -8 -29q0 -18 8 -27.5t22 -9.5q15 0 23.5 10t8.5 26q0 19 -8.5 29.5t-23.5 10.5q-14 0 -22 -10zM396 -98v-110h-396v110h396z" />
    <glyph glyph-name="seven.middle.ss04" horiz-adv-x="346" 
d="M346 798h-346v110h346v-110zM107.5 302q30.5 75 84.5 130h-158v115h301v-96q-51 -50 -78 -128.5t-27 -175.5h-153q0 80 30.5 155zM346 -98v-110h-346v110h346z" />
    <glyph glyph-name="eight.middle.ss04" horiz-adv-x="396" 
d="M396 798h-396v110h396v-110zM62.5 318q19.5 25 57.5 36q-32 11 -48.5 33.5t-16.5 56.5q0 53 42.5 82.5t118.5 29.5q75 0 117 -29.5t42 -82.5q0 -33 -17 -56t-49 -34q38 -11 58 -36t20 -63q0 -55 -44.5 -84.5t-126.5 -29.5q-83 0 -128 29.5t-45 84.5q0 38 19.5 63z
M186 431q0 -35 30 -35q28 0 28 35q0 33 -28 33q-30 0 -30 -33zM249 267q0 38 -33 38q-35 0 -35 -38q0 -35 35 -35q33 0 33 35zM396 -98v-110h-396v110h396z" />
    <glyph glyph-name="nine.middle.ss04" horiz-adv-x="396" 
d="M396 798h-396v110h396v-110zM231 268q14 16 17 55q-26 -32 -82 -32q-58 0 -92.5 34t-34.5 86q0 67 45 105.5t122 38.5q84 0 129 -50q24 -26 36 -65t12 -87q0 -101 -51 -156.5t-145 -55.5q-46 0 -85 12.5t-67 34.5l75 106q31 -42 77 -42q30 0 44 16zM234.5 400.5
q9.5 8.5 9.5 22.5q0 16 -9.5 25.5t-25.5 9.5q-17 0 -27.5 -9.5t-10.5 -25.5q0 -14 10.5 -22.5t27.5 -8.5q16 0 25.5 8.5zM396 -98v-110h-396v110h396z" />
    <glyph glyph-name="zero.right.ss04" 
d="M286.5 836q127.5 -72 199.5 -199.5t72 -286.5t-72 -286.5t-199.5 -199.5t-286.5 -72v110q123 0 223 58.5t157 160.5t57 229t-57 229t-157 160.5t-223 58.5v110q159 0 286.5 -72zM335 502.5q48 -53.5 48 -152.5q0 -100 -48 -154t-135 -54q-89 0 -137 54t-48 154t48 153
t137 53q87 0 135 -53.5zM164.5 424.5q-10.5 -23.5 -10.5 -74.5q0 -53 10.5 -76t34.5 -23q23 0 33.5 23.5t10.5 75.5q0 51 -10.5 74.5t-33.5 23.5q-24 0 -34.5 -23.5z" />
    <glyph glyph-name="one.right.ss04" 
d="M286.5 836q127.5 -72 199.5 -199.5t72 -286.5t-72 -286.5t-199.5 -199.5t-286.5 -72v110q123 0 223 58.5t157 160.5t57 229t-57 229t-157 160.5t-223 58.5v110q159 0 286.5 -72zM112 392h-68l1 85q45 -3 77 18t43 55h107v-296h65v-104h-309v104h84v138z" />
    <glyph glyph-name="two.right.ss04" 
d="M286.5 836q127.5 -72 199.5 -199.5t72 -286.5t-72 -286.5t-199.5 -199.5t-286.5 -72v110q123 0 223 58.5t157 160.5t57 229t-57 229t-157 160.5t-223 58.5v110q159 0 286.5 -72zM58.5 281q27.5 29 78.5 62q39 25 57 42t18 40q0 28 -21 28q-12 0 -18.5 -6t-6.5 -15
q0 -20 7 -33l-120 -9q-14 14 -14 53q0 51 41.5 81.5t114.5 30.5q78 0 115.5 -32.5t37.5 -90.5q0 -46 -29.5 -76t-83.5 -64l-37 -25h150v-117h-315q-2 38 -2 57q0 45 27.5 74z" />
    <glyph glyph-name="three.right.ss04" 
d="M286.5 836q127.5 -72 199.5 -199.5t72 -286.5t-72 -286.5t-199.5 -199.5t-286.5 -72v110q123 0 223 58.5t157 160.5t57 229t-57 229t-157 160.5t-223 58.5v110q159 0 286.5 -72zM232 276q0 20 -20.5 29.5t-64.5 9.5l-9 67q51 6 69 16.5t18 30.5q0 13 -7.5 18.5t-24.5 5.5
q-14 0 -21 -5.5t-7 -14.5q0 -11 3 -21l-122 -11q-7 21 -7 50q0 49 41.5 76.5t115.5 27.5q80 0 120 -28.5t40 -77.5q0 -29 -20 -52t-54 -37q37 -11 60.5 -35t23.5 -64q0 -53 -43.5 -86.5t-125.5 -33.5q-91 0 -133 33.5t-42 102.5l129 14q1 -27 11.5 -36t29.5 -9q40 0 40 30z
" />
    <glyph glyph-name="four.right.ss04" 
d="M286.5 836q127.5 -72 199.5 -199.5t72 -286.5t-72 -286.5t-199.5 -199.5t-286.5 -72v110q123 0 223 58.5t157 160.5t57 229t-57 229t-157 160.5t-223 58.5v110q159 0 286.5 -72zM337 316h44v-104h-44v-62h-136v62h-187v76l132 262h191v-234zM201 447l-56 -131h56v131z
" />
    <glyph glyph-name="five.right.ss04" 
d="M286.5 836q127.5 -72 199.5 -199.5t72 -286.5t-72 -286.5t-199.5 -199.5t-286.5 -72v110q123 0 223 58.5t157 160.5t57 229t-57 229t-157 160.5t-223 58.5v110q159 0 286.5 -72zM223 282q0 21 -7 30.5t-22 9.5q-13 0 -21 -5t-14 -15l-123 9l19 239h277l2 -109h-173
l-5 -56q32 28 80 28q51 0 84.5 -31.5t33.5 -95.5q0 -67 -42 -106t-125 -39q-78 0 -118 33t-40 93l129 15q1 -18 11 -26.5t24 -8.5q30 0 30 35z" />
    <glyph glyph-name="six.right.ss04" 
d="M286.5 836q127.5 -72 199.5 -199.5t72 -286.5t-72 -286.5t-199.5 -199.5t-286.5 -72v110q123 0 223 58.5t157 160.5t57 229t-57 229t-157 160.5t-223 58.5v110q159 0 286.5 -72zM241 441q0 7 -6 11.5t-19 4.5q-22 0 -34 -19.5t-15 -61.5q31 29 84 29q57 0 89.5 -33
t32.5 -86q0 -67 -45 -106t-120 -39q-76 0 -119 40q-57 54 -57 163q0 102 48 156.5t139 54.5q65 0 103 -26.5t38 -72.5q0 -17 -4 -28h-116zM186 308.5q-8 -10.5 -8 -28.5t8 -27.5t22 -9.5q15 0 23.5 10t8.5 26q0 40 -32 40q-14 0 -22 -10.5z" />
    <glyph glyph-name="seven.right.ss04" 
d="M286.5 836q127.5 -72 199.5 -199.5t72 -286.5t-72 -286.5t-199.5 -199.5t-286.5 -72v110q123 0 223 58.5t157 160.5t57 229t-57 229t-157 160.5t-223 58.5v110q159 0 286.5 -72zM95 302q30 75 84 130h-157v115h301v-96q-51 -50 -78 -128.5t-27 -175.5h-153q0 80 30 155z
" />
    <glyph glyph-name="eight.right.ss04" 
d="M286.5 836q127.5 -72 199.5 -199.5t72 -286.5t-72 -286.5t-199.5 -199.5t-286.5 -72v110q123 0 223 58.5t157 160.5t57 229t-57 229t-157 160.5t-223 58.5v110q159 0 286.5 -72zM43.5 318q19.5 25 57.5 36q-32 11 -48.5 33.5t-16.5 56.5q0 53 42.5 82.5t118.5 29.5
q75 0 117.5 -29.5t42.5 -82.5q0 -33 -17.5 -56t-49.5 -34q38 -11 58.5 -36t20.5 -63q0 -55 -45 -84.5t-127 -29.5q-83 0 -128 29.5t-45 84.5q0 38 19.5 63zM167 431q0 -35 30 -35q28 0 28 35q0 33 -28 33q-30 0 -30 -33zM230 267q0 38 -33 38q-35 0 -35 -38q0 -35 35 -35
q33 0 33 35z" />
    <glyph glyph-name="nine.right.ss04" 
d="M286.5 836q127.5 -72 199.5 -199.5t72 -286.5t-72 -286.5t-199.5 -199.5t-286.5 -72v110q123 0 223 58.5t157 160.5t57 229t-57 229t-157 160.5t-223 58.5v110q159 0 286.5 -72zM212 268q14 16 17 55q-26 -32 -82 -32q-58 0 -92.5 34t-34.5 86q0 67 45 105.5t122 38.5
q84 0 129 -50q24 -26 36 -65t12 -87q0 -101 -51 -156.5t-145 -55.5q-46 0 -85.5 12.5t-67.5 34.5l76 106q31 -42 77 -42q30 0 44 16zM215.5 400.5q9.5 8.5 9.5 22.5q0 16 -9.5 25.5t-25.5 9.5q-18 0 -28 -9t-10 -26q0 -14 10 -22.5t28 -8.5q16 0 25.5 8.5z" />
    <glyph glyph-name="zero.tf" horiz-adv-x="580" 
d="M490 620.5q70 -94.5 70 -268.5q0 -176 -70 -271.5t-198 -95.5q-130 0 -201 95t-71 272q0 174 71 268.5t201 94.5q128 0 198 -94.5zM252.5 527q-14.5 -18 -21 -60t-6.5 -115q0 -75 6.5 -117.5t21 -61t38.5 -18.5t38 18.5t20 61t6 117.5q0 73 -6 115t-20 60t-38 18
t-38.5 -18z" />
    <glyph glyph-name="one.tf" horiz-adv-x="580" 
d="M540 0h-490v180h151v245h-146v160q85 0 145.5 31.5t80.5 83.5h140v-520h119v-180z" />
    <glyph glyph-name="two.tf" horiz-adv-x="580" 
d="M537 0h-500q-4 60 -4 87q0 59 24 103.5t58 75t87 67.5q43 31 67.5 51.5t41 47t16.5 58.5q0 34 -10.5 49t-30.5 15q-22 0 -33 -14.5t-11 -39.5q0 -37 10 -58l-184 -14q-23 28 -23 90q0 90 66 143.5t182 53.5q124 0 183.5 -56t59.5 -158q0 -55 -24.5 -99t-59 -75t-88.5 -70
q-37 -27 -57 -43t-35 -34h265v-180z" />
    <glyph glyph-name="three.tf" horiz-adv-x="580" 
d="M513.5 309q34.5 -43 34.5 -115q0 -94 -64 -151.5t-188 -57.5q-135 0 -198 58t-63 174l198 22q3 -52 17.5 -71t39.5 -19q26 0 39 18t13 51q0 42 -28.5 61t-94.5 19l-13 106q52 8 79 20t37.5 29.5t10.5 44.5q0 30 -10.5 43.5t-30.5 13.5q-39 0 -39 -39q0 -31 5 -49
l-187 -17q-12 34 -12 83q0 84 63.5 133t172.5 49q121 0 180.5 -50t59.5 -137q0 -52 -30 -93.5t-81 -64.5q55 -18 89.5 -61z" />
    <glyph glyph-name="four.tf" horiz-adv-x="580" 
d="M504 0h-200v118h-289v118l213 464h276v-422h54l7 -160h-61v-118zM304 554l-99 -276h99v276z" />
    <glyph glyph-name="five.tf" horiz-adv-x="580" 
d="M499 401q55 -55 55 -165q0 -115 -68 -183t-201 -68q-127 0 -191 56t-64 159l198 22q3 -37 20.5 -54.5t43.5 -17.5q29 0 44.5 20.5t15.5 59.5q0 43 -14.5 64t-43.5 21q-42 0 -63 -44l-190 14l31 415h446l3 -170h-286l-11 -126q23 24 57.5 38t76.5 14q86 0 141 -55z" />
    <glyph glyph-name="six.tf" horiz-adv-x="580" 
d="M510.5 387.5q52.5 -57.5 52.5 -152.5q0 -76 -32.5 -132.5t-92 -87t-139.5 -30.5q-119 0 -192 71q-90 95 -90 288q0 179 77.5 275t221.5 96q102 0 163 -45t61 -130q0 -28 -7 -51h-180q3 14 3 28q0 20 -11.5 32t-33.5 12q-41 0 -63.5 -41t-26.5 -130q50 55 143 55
q94 0 146.5 -57.5zM346 172q16 20 16 57t-16.5 57t-46.5 20q-28 0 -43.5 -20t-15.5 -57t16 -57t45 -20t45 20z" />
    <glyph glyph-name="seven.tf" horiz-adv-x="580" 
d="M554 551q-100 -89 -151.5 -231.5t-51.5 -319.5h-235q0 147 56.5 284.5t157.5 235.5h-300v180h524v-149z" />
    <glyph glyph-name="eight.tf" horiz-adv-x="580" 
d="M528 296q34 -45 34 -112q0 -95 -71 -147t-201 -52t-201 52t-71 147q0 67 33.5 112t97.5 63q-54 18 -83 59t-29 102q0 92 66.5 143.5t186.5 51.5q121 0 187 -51t66 -144q0 -60 -29 -101.5t-83 -59.5q63 -18 97 -63zM246.5 559q-15.5 -20 -15.5 -59t15.5 -59t43.5 -20
t43.5 20t15.5 59t-15.5 59t-43.5 20t-43.5 -20zM341 140q18 21 18 63t-18 63t-51 21t-51 -21t-18 -63t18 -63t51 -21t51 21z" />
    <glyph glyph-name="nine.tf" horiz-adv-x="580" 
d="M560 357q0 -179 -81.5 -275.5t-231.5 -96.5q-142 0 -237 79l118 161q26 -34 54.5 -50.5t65.5 -16.5q55 0 79 35t28 123q-22 -33 -58 -49.5t-81 -16.5q-96 0 -150 59t-54 157q0 76 32.5 132t92.5 86.5t140 30.5q133 0 206 -87q77 -92 77 -271zM327 429.5q16 19.5 16 53.5
q0 37 -16 58t-45 21q-32 0 -49.5 -20.5t-17.5 -57.5q0 -35 17.5 -54.5t49.5 -19.5q29 0 45 19.5z" />
    <glyph glyph-name="zero.dnom" horiz-adv-x="407" 
d="M339.5 351.5q47.5 -53.5 47.5 -152.5q0 -100 -47.5 -154t-134.5 -54q-89 0 -137 54t-48 154t48 153t137 53q87 0 134.5 -53.5zM168.5 274.5q-10.5 -23.5 -10.5 -75.5q0 -53 10.5 -76.5t35.5 -23.5q23 0 34 23.5t11 76.5q0 52 -11 75.5t-34 23.5q-25 0 -35.5 -23.5z" />
    <glyph glyph-name="one.dnom" horiz-adv-x="276" 
d="M236 0h-158v243h-68l1 84q44 -3 76 18t43 55h106v-400z" />
    <glyph glyph-name="two.dnom" horiz-adv-x="342" 
d="M327 0h-315q-2 38 -2 56q0 32 15 56.5t36.5 41.5t55.5 39q39 25 57 42t18 40q0 29 -22 29q-13 0 -19.5 -6t-6.5 -16q0 -20 7 -33l-119 -9q-14 14 -14 53q0 51 41.5 81.5t114.5 30.5q78 0 115 -32.5t37 -90.5q0 -32 -16 -57t-38 -42t-57 -40q-7 -5 -20 -13t-20 -14h152
v-116z" />
    <glyph glyph-name="three.dnom" horiz-adv-x="378" 
d="M334.5 175q23.5 -24 23.5 -64q0 -53 -43 -86.5t-125 -33.5q-91 0 -133 33.5t-42 102.5l128 14q1 -28 11.5 -37t30.5 -9q41 0 41 31q0 20 -21 29.5t-65 9.5l-9 67q51 7 69.5 17t18.5 30q0 13 -8 19t-25 6q-14 0 -21.5 -6t-7.5 -15q0 -11 3 -21l-121 -11q-7 21 -7 50
q0 49 41.5 76.5t115.5 27.5q80 0 119.5 -28.5t39.5 -77.5q0 -29 -20 -52t-54 -37q37 -11 60.5 -35z" />
    <glyph glyph-name="four.dnom" horiz-adv-x="381" 
d="M327 62v-62h-135v62h-187v76l133 262h189v-235h44v-103h-44zM192 297l-57 -132h57v132z" />
    <glyph glyph-name="five.dnom" horiz-adv-x="345" 
d="M301.5 231.5q33.5 -31.5 33.5 -95.5q0 -67 -42 -106t-125 -39q-78 0 -118 33t-40 93l128 15q3 -36 36 -36q15 0 23 9t8 27q0 41 -30 41q-23 0 -36 -21l-122 9l19 239h277l2 -108h-174l-5 -57q32 28 80 28q52 0 85.5 -31.5z" />
    <glyph glyph-name="six.dnom" horiz-adv-x="375" 
d="M327.5 222q32.5 -33 32.5 -86q0 -67 -44.5 -106t-119.5 -39q-76 0 -119 40q-57 54 -57 163q0 102 48 156.5t139 54.5q65 0 102.5 -26.5t37.5 -72.5q0 -17 -4 -28h-115l1 13q0 7 -6 12t-19 5q-22 0 -34.5 -20t-15.5 -63q30 30 84 30q57 0 89.5 -33zM220.5 102
q8.5 10 8.5 27q0 19 -8.5 29.5t-24.5 10.5q-14 0 -22.5 -10t-8.5 -29q0 -18 8 -28t23 -10q16 0 24.5 10z" />
    <glyph glyph-name="seven.dnom" horiz-adv-x="326" 
d="M311 305q-52 -50 -79 -129t-27 -176h-151q0 81 30 156t85 130h-159v114h301v-95z" />
    <glyph glyph-name="eight.dnom" horiz-adv-x="384" 
d="M344 168q20 -25 20 -63q0 -55 -44.5 -84.5t-126.5 -29.5q-83 0 -128 29.5t-45 84.5q0 38 19.5 63t57.5 36q-32 11 -48.5 33.5t-16.5 56.5q0 53 42.5 82.5t118.5 29.5q75 0 117 -29.5t42 -82.5q0 -33 -17 -56t-49 -34q38 -11 58 -36zM162 281q0 -35 31 -35q29 0 29 35
q0 17 -8 25.5t-21 8.5q-31 0 -31 -34zM218 90q9 9 9 27q0 38 -34 38q-36 0 -36 -38q0 -36 36 -36q16 0 25 9z" />
    <glyph glyph-name="nine.dnom" horiz-adv-x="370" 
d="M340 290q12 -39 12 -87q0 -101 -50.5 -156.5t-144.5 -55.5q-46 0 -85 12.5t-67 34.5l75 105q32 -42 77 -42q30 0 44.5 16.5t18.5 57.5q-28 -34 -84 -34q-58 0 -92.5 34t-34.5 86q0 67 45 105.5t122 38.5q83 0 128 -50q24 -26 36 -65zM205 250q10 9 10 23q0 16 -10 26
t-26 10q-18 0 -28.5 -9.5t-10.5 -26.5q0 -14 10.5 -23t28.5 -9q16 0 26 9z" />
    <glyph glyph-name="zero.numr" horiz-adv-x="407" 
d="M339.5 651.5q47.5 -53.5 47.5 -152.5q0 -100 -47.5 -154t-134.5 -54q-89 0 -137 54t-48 154t48 153t137 53q87 0 134.5 -53.5zM168.5 574.5q-10.5 -23.5 -10.5 -75.5q0 -53 10.5 -76.5t35.5 -23.5q23 0 34 23.5t11 76.5q0 52 -11 75.5t-34 23.5q-25 0 -35.5 -23.5z" />
    <glyph glyph-name="one.numr" horiz-adv-x="276" 
d="M236 300h-158v243h-68l1 84q44 -3 76 18t43 55h106v-400z" />
    <glyph glyph-name="two.numr" horiz-adv-x="342" 
d="M327 300h-315q-2 38 -2 56q0 32 15 56.5t36.5 41.5t55.5 39q39 25 57 42t18 40q0 29 -22 29q-13 0 -19.5 -6t-6.5 -16q0 -20 7 -33l-119 -9q-14 14 -14 53q0 51 41.5 81.5t114.5 30.5q78 0 115 -32.5t37 -90.5q0 -32 -16 -57t-38 -42t-57 -40q-7 -5 -20 -13t-20 -14h152
v-116z" />
    <glyph glyph-name="three.numr" horiz-adv-x="378" 
d="M334.5 475q23.5 -24 23.5 -64q0 -53 -43 -86.5t-125 -33.5q-91 0 -133 33.5t-42 102.5l128 14q1 -28 11.5 -37t30.5 -9q41 0 41 31q0 20 -21 29.5t-65 9.5l-9 67q51 7 69.5 17t18.5 30q0 13 -8 19t-25 6q-14 0 -21.5 -6t-7.5 -15q0 -11 3 -21l-121 -11q-7 21 -7 50
q0 49 41.5 76.5t115.5 27.5q80 0 119.5 -28.5t39.5 -77.5q0 -29 -20 -52t-54 -37q37 -11 60.5 -35z" />
    <glyph glyph-name="four.numr" horiz-adv-x="381" 
d="M327 362v-62h-135v62h-187v76l133 262h189v-235h44v-103h-44zM192 597l-57 -132h57v132z" />
    <glyph glyph-name="five.numr" horiz-adv-x="345" 
d="M301.5 531.5q33.5 -31.5 33.5 -95.5q0 -67 -42 -106t-125 -39q-78 0 -118 33t-40 93l128 15q3 -36 36 -36q15 0 23 9t8 27q0 41 -30 41q-23 0 -36 -21l-122 9l19 239h277l2 -108h-174l-5 -57q32 28 80 28q52 0 85.5 -31.5z" />
    <glyph glyph-name="six.numr" horiz-adv-x="375" 
d="M327.5 522q32.5 -33 32.5 -86q0 -67 -44.5 -106t-119.5 -39q-76 0 -119 40q-57 54 -57 163q0 102 48 156.5t139 54.5q65 0 102.5 -26.5t37.5 -72.5q0 -17 -4 -28h-115l1 13q0 7 -6 12t-19 5q-22 0 -34.5 -20t-15.5 -63q30 30 84 30q57 0 89.5 -33zM220.5 402
q8.5 10 8.5 27q0 19 -8.5 29.5t-24.5 10.5q-14 0 -22.5 -10t-8.5 -29q0 -18 8 -28t23 -10q16 0 24.5 10z" />
    <glyph glyph-name="seven.numr" horiz-adv-x="326" 
d="M311 605q-52 -50 -79 -129t-27 -176h-151q0 81 30 156t85 130h-159v114h301v-95z" />
    <glyph glyph-name="eight.numr" horiz-adv-x="384" 
d="M344 468q20 -25 20 -63q0 -55 -44.5 -84.5t-126.5 -29.5q-83 0 -128 29.5t-45 84.5q0 38 19.5 63t57.5 36q-32 11 -48.5 33.5t-16.5 56.5q0 53 42.5 82.5t118.5 29.5q75 0 117 -29.5t42 -82.5q0 -33 -17 -56t-49 -34q38 -11 58 -36zM162 581q0 -35 31 -35q29 0 29 35
q0 17 -8 25.5t-21 8.5q-31 0 -31 -34zM218 390q9 9 9 27q0 38 -34 38q-36 0 -36 -38q0 -36 36 -36q16 0 25 9z" />
    <glyph glyph-name="nine.numr" horiz-adv-x="370" 
d="M340 590q12 -39 12 -87q0 -101 -50.5 -156.5t-144.5 -55.5q-46 0 -85 12.5t-67 34.5l75 105q32 -42 77 -42q30 0 44.5 16.5t18.5 57.5q-28 -34 -84 -34q-58 0 -92.5 34t-34.5 86q0 67 45 105.5t122 38.5q83 0 128 -50q24 -26 36 -65zM205 550q10 9 10 23q0 16 -10 26
t-26 10q-18 0 -28.5 -9.5t-10.5 -26.5q0 -14 10.5 -23t28.5 -9q16 0 26 9z" />
    <glyph glyph-name="colon.case" horiz-adv-x="328" 
d="M240.5 294q27.5 -27 27.5 -76t-27.5 -76t-76.5 -27t-76.5 27t-27.5 76t27.5 76t76.5 27t76.5 -27zM240.5 570q27.5 -27 27.5 -76t-27.5 -76t-76.5 -27t-76.5 27t-27.5 76t27.5 76t76.5 27t76.5 -27z" />
    <glyph glyph-name="exclamdown.case" horiz-adv-x="292" 
d="M69.5 526q-27.5 27 -27.5 76t27.5 76t76.5 27t76.5 -27t27.5 -76t-27.5 -76t-76.5 -27t-76.5 27zM40 42l17 418h178l17 -418v-42h-212v42z" />
    <glyph glyph-name="questiondown.case" horiz-adv-x="526" 
d="M194.5 527q-27.5 27 -27.5 76t27.5 76t76.5 27t76.5 -27t27.5 -76t-27.5 -76t-76.5 -27t-76.5 27zM74.5 41q-59.5 55 -59.5 153q0 36 14 63t34 46t52 43q42 31 63 55.5t23 59.5h146q1 -5 3 -19.5t2 -32.5q0 -38 -17 -62.5t-50 -53.5q-29 -24 -43.5 -43.5t-14.5 -47.5
q0 -55 40 -55q22 0 33.5 14.5t11.5 39.5q0 29 -10 58l185 14q8 -16 13.5 -42t5.5 -48q0 -90 -66 -143.5t-182 -53.5q-124 0 -183.5 55z" />
    <glyph glyph-name="braceleft.case" horiz-adv-x="385" 
d="M287 625q-7 -17 -7 -43q0 -14 2 -34t3 -29q6 -46 6 -67q0 -44 -20.5 -68.5t-75.5 -24.5v-4q70 0 88 -45q8 -17 8 -46q0 -21 -6 -65t-6 -63q0 -36 16.5 -56t59.5 -20v-160q-123 0 -186 27.5t-84 75.5q-12 29 -12 70q0 29 8 81q6 46 6 63q0 33 -15.5 50.5t-56.5 17.5v144
q43 0 59 21q12 15 12 44q0 14 -3 35t-4 30q-9 59 -9 83q0 77 60.5 122.5t224.5 45.5v-150q-51 0 -68 -35z" />
    <glyph glyph-name="braceright.case" horiz-adv-x="385" 
d="M98 85q7 17 7 43q0 14 -2 34t-3 29q-6 46 -6 67q0 44 20.5 68.5t75.5 24.5v4q-70 0 -88 45q-8 17 -8 46q0 21 6 65t6 63q0 36 -16.5 56t-59.5 20v160q123 0 186 -27.5t84 -75.5q12 -29 12 -70q0 -29 -8 -81q-6 -46 -6 -63q0 -33 15.5 -50.5t56.5 -17.5v-144
q-43 0 -59 -21q-12 -15 -12 -44q0 -14 3 -35t4 -30q9 -58 9 -83q0 -77 -60.5 -122.5t-224.5 -45.5v150q51 0 68 35z" />
    <glyph glyph-name="bracketleft.case" horiz-adv-x="430" 
d="M270 660v-600h130v-160h-340v910h340v-150h-130z" />
    <glyph glyph-name="bracketright.case" horiz-adv-x="430" 
d="M160 50v600h-130v160h340v-910h-340v150h130z" />
    <glyph glyph-name="parenleft.case" horiz-adv-x="420" 
d="M318.5 640.5q-24.5 -19.5 -36.5 -84t-12 -199.5q0 -133 12 -196t36.5 -82t71.5 -19v-160q-113 0 -187.5 42.5t-113.5 143t-39 271.5q0 170 39 269.5t113.5 141.5t187.5 42v-150q-47 0 -71.5 -19.5z" />
    <glyph glyph-name="parenright.case" horiz-adv-x="420" 
d="M101.5 69.5q24.5 19.5 36.5 84t12 199.5q0 133 -12 196t-36.5 82t-71.5 19v160q113 0 187.5 -42.5t113.5 -143t39 -271.5q0 -170 -39 -269.5t-113.5 -141.5t-187.5 -42v150q47 0 71.5 19.5z" />
    <glyph glyph-name="emdash.case" horiz-adv-x="794" 
d="M60 264v180h674v-180h-674z" />
    <glyph glyph-name="endash.case" horiz-adv-x="617" 
d="M60 264v180h497v-180h-497z" />
    <glyph glyph-name="hyphen.case" horiz-adv-x="475" 
d="M60 264v180h355v-180h-355z" />
    <glyph glyph-name="guillemotleft.case" horiz-adv-x="581" 
d="M306 141l-183 -35l-93 235l92 235l183 -35l-56 -200zM383 106l-93 235l92 235l183 -35l-56 -200l57 -200z" />
    <glyph glyph-name="guillemotright.case" horiz-adv-x="581" 
d="M458 576l93 -235l-92 -235l-183 35l56 200l-57 200zM198 576l93 -235l-92 -235l-183 35l56 200l-57 200z" />
    <glyph glyph-name="guilsinglleft.case" horiz-adv-x="321" 
d="M123 106l-93 235l92 235l183 -35l-56 -200l57 -200z" />
    <glyph glyph-name="guilsinglright.case" horiz-adv-x="321" 
d="M199 106l-183 35l56 200l-57 200l183 35l93 -235z" />
    <glyph glyph-name="at.case" horiz-adv-x="1026" 
d="M758 26q80 21 142 60l49 -115q-78 -40 -173 -63t-231 -23q-257 0 -393.5 103t-136.5 296q0 151 69.5 257.5t189.5 160.5t271 54q153 0 258 -47t156.5 -129t51.5 -186q0 -96 -36 -168t-103 -111.5t-158 -39.5q-69 0 -109.5 27.5t-54.5 77.5q-26 -51 -66 -77.5t-90 -26.5
q-73 0 -116 52.5t-43 148.5q0 93 31.5 160t86.5 102t127 35q92 0 141 -59l34 43l118 -18l-40 -316q-1 -5 -1 -14q0 -21 9 -28t28 -7q22 -1 41 30t30 82.5t11 107.5q0 111 -73 176t-236 65q-106 0 -190 -38.5t-132 -117.5t-48 -196q0 -140 86 -209.5t282 -69.5q138 0 218 21z
M530 252q14 20 19 64l14 115q-17 10 -44 10q-46 0 -65.5 -29.5t-19.5 -96.5q0 -40 13.5 -61.5t38.5 -21.5q30 0 44 20z" />
    <glyph glyph-name="caron.alt" horiz-adv-x="220" 
d="M171 732q23 -26 23 -74q0 -53 -39 -80.5t-110 -26.5l-4 43q48 1 70 11t27 32q-17 -9 -40 -9q-33 0 -52.5 17.5t-19.5 48.5q0 30 21.5 47t60.5 17q40 0 63 -26z" />
    <glyph glyph-name="acute.case" horiz-adv-x="393" 
d="M40 746l61 139h252l-113 -139h-200z" />
    <glyph glyph-name="breve.case" horiz-adv-x="450" 
d="M358 773q-42 -40 -133 -40t-133 40t-42 126h100q0 -52 75 -52q35 0 55 13.5t20 38.5h100q0 -86 -42 -126z" />
    <glyph glyph-name="caron.case" horiz-adv-x="521" 
d="M383 746h-247l-106 139h168l65 -55l59 55h169z" />
    <glyph glyph-name="circumflex.case" horiz-adv-x="561" 
d="M278 792l-59 -55h-169l108 139h247l106 -139h-168z" />
    <glyph glyph-name="dieresis.case" horiz-adv-x="530" 
d="M227.5 880q26.5 -23 26.5 -66q0 -40 -27 -63t-76 -23q-47 0 -74 23.5t-27 62.5q0 43 26.5 66t74.5 23q50 0 76.5 -23zM453.5 880q26.5 -23 26.5 -66q0 -40 -27 -63t-76 -23q-47 0 -74 23.5t-27 62.5q0 43 26.5 66t74.5 23q50 0 76.5 -23z" />
    <glyph glyph-name="dotaccent.case" horiz-adv-x="327" 
d="M246.5 882q30.5 -23 30.5 -62q0 -38 -30.5 -60t-84.5 -22q-53 0 -82.5 22t-29.5 60q0 39 29.5 62t82.5 23q54 0 84.5 -23z" />
    <glyph glyph-name="grave.case" horiz-adv-x="403" 
d="M163 746l-113 149h242l61 -149h-190z" />
    <glyph glyph-name="hungarumlaut.case" horiz-adv-x="553" 
d="M30 746l44 149h202l-96 -149h-150zM220 746l101 149h202l-143 -149h-160z" />
    <glyph glyph-name="macron.case" horiz-adv-x="453" 
d="M423 748h-393v145h393v-145z" />
    <glyph glyph-name="ring.case" horiz-adv-x="450" 
d="M370.5 888.5q49.5 -21.5 49.5 -64.5t-49.5 -65t-145.5 -22t-145.5 22t-49.5 65t49.5 64.5t145.5 21.5t145.5 -21.5zM202.5 852.5q-6.5 -8.5 -6.5 -28.5t6.5 -29t22.5 -9t22.5 9t6.5 29t-6.5 28.5t-22.5 8.5t-22.5 -8.5z" />
    <glyph glyph-name="tilde.case" horiz-adv-x="540" 
d="M453.5 782.5q-36.5 -42.5 -107.5 -42.5q-30 0 -54 7t-57 20q-15 6 -30.5 11t-26.5 5q-18 0 -30 -11t-12 -29h-86q0 83 34.5 126t102.5 43q33 0 59 -7t58 -19q39 -16 59 -16q19 0 30 10.5t11 28.5h86q0 -84 -36.5 -126.5z" />
    <glyph glyph-name="mail" horiz-adv-x="1174" 
d="M1038 664q36 -36 36 -100v-428q0 -64 -36 -100t-100 -36h-702q-64 0 -100 36t-36 100v428q0 64 36 100t100 36h702q64 0 100 -36zM225 580.5q-11 -10.5 -11 -28.5l310 -177q35 -20 61 -20t64 21l310 177q-1 17 -12 27.5t-28 10.5h-665q-18 0 -29 -10.5zM782 339l175 -71
l1 175zM214 273l177 65l-177 105v-170zM946 120q11 11 11 29v18l-272 117q-51 -23 -100 -23t-95 21l-276 -116v-17q0 -18 11 -29t29 -11h663q18 0 29 11z" />
    <glyph glyph-name="email" horiz-adv-x="1174" 
d="M1049 625q25 -25 25 -71v-458q0 -46 -25 -71t-71 -25h-782q-46 0 -71 25t-25 71v458q0 46 25 71t71 25h116q37 73 114 111.5t178 38.5q112 0 181 -39.5t92 -110.5h101q46 0 71 -25zM453.5 667q-57.5 -50 -57.5 -146q0 -93 52 -138.5t150 -45.5q50 0 86.5 8t74.5 24
l203 84v64q0 14 -6.5 20t-20.5 6h-49q-11 -62 -64 -104t-123 -42q-71 0 -87 58q-14 -28 -36 -42.5t-50 -14.5q-40 0 -63.5 28.5t-23.5 80.5q0 77 37.5 120t96.5 43q50 0 77 -32l19 24l62 -10l-21 -169l-1 -9q0 -13 5.5 -17t16.5 -4q20 -1 33.5 34.5t13.5 84.5q0 67 -42 106
t-134 39q-91 0 -148.5 -50zM620 594q-11 6 -27 6q-26 0 -38 -17.5t-12 -55.5q0 -22 8.5 -35t22.5 -13q17 0 26 12t12 37zM217.5 537q-6.5 -6 -6.5 -20v-265l167 62q-94 69 -94 207l1 22h-47q-14 0 -20.5 -6zM822 303l139 -56l1 112zM953.5 113q6.5 6 6.5 20v12l-268 116
q-42 -9 -96 -9q-58 0 -103 11l-282 -118v-18q0 -20 27 -20h695q14 0 20.5 6z" />
    </font>
</defs>
</svg>
