<?xml version="1.0" standalone="no"?>
<!DOCTYPE svg PUBLIC "-//W3C//DTD SVG 1.1//EN" "http://www.w3.org/Graphics/SVG/1.1/DTD/svg11.dtd" >
<svg xmlns="http://www.w3.org/2000/svg" xmlns:xlink="http://www.w3.org/1999/xlink" version="1.1">
<metadata>
Created by FontForge 20170731 at Thu Dec  4 19:29:08 2014
 By Aleksey,,,
Copyright (c) 2014 by Sascha Timplan. All rights reserved.
</metadata>
<defs>
<font id="Stereotesque-Medium" horiz-adv-x="658" >
  <font-face 
    font-family="Stereotesque-Medium"
    font-weight="400"
    font-stretch="normal"
    units-per-em="1000"
    panose-1="0 0 6 0 0 0 0 0 0 0"
    ascent="782"
    descent="-218"
    x-height="511"
    cap-height="700"
    bbox="-128 -213 2092 948"
    underline-thickness="50"
    underline-position="-150"
    unicode-range="U+0020-FB02"
  />
<missing-glyph horiz-adv-x="600" 
 />
    <glyph glyph-name="fi" unicode="fi" horiz-adv-x="608" 
d="M530 0h-121v438h-199v-438h-115v438h-67v73h67v29q0 218 243 218q58 0 108 -13t87 -34l-49 -88q-69 58 -146 58q-63 0 -95.5 -35t-32.5 -106v-29h320v-511z" />
    <glyph glyph-name="fl" unicode="fl" horiz-adv-x="645" 
d="M581.5 -4.5q-22.5 -6.5 -58.5 -6.5q-62 0 -93 33.5t-31 103.5v530q-13 17 -35.5 26.5t-48.5 9.5q-51 0 -78 -31.5t-27 -95.5v-54h115l-4 -73h-111v-438h-115v438h-67v73h67v43q0 204 227 204q101 0 192 -38v-588q0 -72 49 -72q18 0 28.5 4t24.5 16l17 -61
q-29 -17 -51.5 -23.5z" />
    <glyph glyph-name="f_f" unicode="ff" horiz-adv-x="674" 
d="M761 737l-35 -82q-14 16 -35 25t-45 9q-48 0 -73.5 -31t-25.5 -93v-54h115l-4 -73h-111v-438h-115v438h-222v-438h-115v438h-67v73h67v43q0 204 213 204q64 0 116 -21l-35 -82q-14 16 -35 25t-45 9q-48 0 -73.5 -31t-25.5 -93v-54h222v43q0 204 213 204q64 0 116 -21z
" />
    <glyph glyph-name="f_f_i" unicode="ffi" horiz-adv-x="945" 
d="M867 0h-121v438h-199v-438h-115v438h-222v-438h-115v438h-67v73h67v43q0 204 213 204q64 0 116 -21l-35 -82q-14 16 -35 25t-45 9q-48 0 -73.5 -31t-25.5 -93v-54h222v29q0 218 243 218q58 0 108 -13t87 -34l-49 -88q-69 58 -146 58q-63 0 -95.5 -35t-32.5 -106v-29h320
v-511z" />
    <glyph glyph-name="f_f_l" unicode="ffl" horiz-adv-x="982" 
d="M918.5 -4.5q-22.5 -6.5 -58.5 -6.5q-62 0 -93 33.5t-31 103.5v530q-13 17 -35.5 26.5t-48.5 9.5q-51 0 -78 -31.5t-27 -95.5v-54h115l-4 -73h-111v-438h-115v438h-222v-438h-115v438h-67v73h67v43q0 204 213 204q64 0 116 -21l-35 -82q-14 16 -35 25t-45 9
q-48 0 -73.5 -31t-25.5 -93v-54h222v43q0 204 227 204q101 0 192 -38v-588q0 -72 49 -72q18 0 28.5 4t24.5 16l17 -61q-29 -17 -51.5 -23.5z" />
    <glyph glyph-name=".notdef" horiz-adv-x="600" 
 />
    <glyph glyph-name=".null" horiz-adv-x="0" 
 />
    <glyph glyph-name="nonmarkingreturn" horiz-adv-x="333" 
 />
    <glyph glyph-name="space" unicode=" " horiz-adv-x="178" 
 />
    <glyph glyph-name="exclam" unicode="!" horiz-adv-x="330" 
d="M227 507l-10 -307h-103l-9 307v193h122v-193zM214.5 114q17.5 -18 17.5 -50q0 -31 -17.5 -49t-50.5 -18q-31 0 -48.5 18t-17.5 49q0 32 17.5 50t48.5 18q33 0 50.5 -18z" />
    <glyph glyph-name="quotedbl" unicode="&#x22;" horiz-adv-x="395" 
d="M157 448h-93l-12 252h117zM331 448h-93l-12 252h117z" />
    <glyph glyph-name="numbersign" unicode="#" horiz-adv-x="896" 
d="M643 180h146v-104h-166l-43 -234h-124l44 234h-181l-43 -234h-124l44 234h-124v104h143l38 206h-146v103h165l47 250h123l-46 -250h180l47 250h123l-46 -250h123v-103h-142zM377 386l-38 -206h180l39 206h-181z" />
    <glyph glyph-name="dollar" unicode="$" horiz-adv-x="598" 
d="M506 59q-51 -53 -143 -66v-127h-116v126q-131 12 -208 81l73 101q31 -36 81.5 -61t117.5 -25q65 0 96.5 22t31.5 66q0 32 -19 52t-47.5 30.5t-78.5 22.5q-69 17 -113.5 36t-76 62.5t-31.5 118.5q0 83 45.5 137t128.5 70v124h116v-121q80 -11 122.5 -53.5t42.5 -100.5
q0 -36 -11 -64h-108q7 26 7 43q0 37 -28.5 58.5t-85.5 21.5q-54 0 -83.5 -26t-29.5 -72q0 -41 21 -64t51.5 -34t85.5 -23q68 -15 109.5 -31.5t71 -56t29.5 -109.5q0 -85 -51 -138z" />
    <glyph glyph-name="percent" unicode="%" horiz-adv-x="1039" 
d="M407.5 663q50.5 -48 50.5 -130q0 -83 -51 -131.5t-138 -48.5t-138 48.5t-51 131.5q0 82 50.5 130t138.5 48t138.5 -48zM349 0h-136l493 700h136zM203 609.5q-24 -27.5 -24 -76.5t24 -77t66 -28t66 28t24 77t-24 76.5t-66 27.5t-66 -27.5zM924.5 299q50.5 -48 50.5 -131
t-50.5 -131t-137.5 -48q-88 0 -139 48t-51 131t51 131t139 48q87 0 137.5 -48zM721 244.5q-24 -27.5 -24 -76.5t24 -76.5t66 -27.5t66 27.5t24 76.5q0 48 -24.5 76t-65.5 28q-42 0 -66 -27.5z" />
    <glyph glyph-name="ampersand" unicode="&#x26;" horiz-adv-x="699" 
d="M429 44q-73 -55 -163 -55q-107 0 -161.5 55t-54.5 144q0 71 37.5 122.5t111.5 90.5q-14 54 -14 107q0 98 51 150.5t147 52.5q92 0 137.5 -42.5t45.5 -120.5q0 -30 -8 -56h-107q6 19 6 49q0 35 -18 54.5t-56 19.5q-44 0 -68 -26t-24 -73q0 -96 38.5 -184t109.5 -158
q58 87 82 231l104 -21q-48 -167 -122 -265q76 -55 168 -86l-58 -110q-92 38 -184 121zM184.5 110q31.5 -36 87.5 -36q54 0 98 29q-98 105 -148 227q-34 -24 -51.5 -55t-17.5 -72q0 -57 31.5 -93z" />
    <glyph glyph-name="quotesingle" unicode="'" horiz-adv-x="221" 
d="M157 448h-93l-12 252h117z" />
    <glyph glyph-name="parenleft" unicode="(" horiz-adv-x="404" 
d="M271 623q-30 -27 -46.5 -104.5t-16.5 -226.5q0 -148 16.5 -225t46.5 -103.5t81 -26.5v-92q-90 0 -149 40t-90.5 138t-31.5 269q0 170 31.5 267.5t91 137.5t148.5 40v-87q-51 0 -81 -27z" />
    <glyph glyph-name="parenright" unicode=")" horiz-adv-x="404" 
d="M133.5 -41q30.5 27 46.5 104.5t16 225.5t-16 225t-46.5 103.5t-81.5 26.5v93q90 0 149 -40t90.5 -138.5t31.5 -269.5q0 -170 -31.5 -267.5t-90.5 -137t-149 -39.5v87q51 0 81.5 27z" />
    <glyph glyph-name="asterisk" unicode="*" horiz-adv-x="375" 
d="M192 613h-8l-37 100l7 39h67l9 -39zM173 607l-5 -8l-103 19l-26 24l33 59l34 -12zM310 618l-103 -19l-4 8l66 82l33 12l35 -59zM106 497l-34 -12l-33 59l26 26l103 16l5 -7zM337 544l-35 -59l-33 12l-66 82l4 7l103 -16zM221 437h-67l-7 36l37 100h8l38 -100z" />
    <glyph glyph-name="plus" unicode="+" horiz-adv-x="550" 
d="M321 309v-138h-91v138h-137v88h137v138h91v-138h136v-88h-136z" />
    <glyph glyph-name="comma" unicode="," horiz-adv-x="276" 
d="M193.5 103q24.5 -26 24.5 -82q0 -64 -34 -94.5t-108 -31.5l-5 40q56 1 77 17.5t21 51.5v9q-16 -19 -45 -19q-31 0 -47.5 17.5t-16.5 48.5t17.5 50t49.5 19q42 0 66.5 -26z" />
    <glyph glyph-name="hyphen" unicode="-" horiz-adv-x="480" 
d="M75 215v105h330v-105h-330z" />
    <glyph glyph-name="period" unicode="." horiz-adv-x="254" 
d="M176.5 114q17.5 -18 17.5 -50q0 -31 -17.5 -49t-49.5 -18t-49.5 18t-17.5 49q0 32 17.5 50t49.5 18t49.5 -18z" />
    <glyph glyph-name="slash" unicode="/" horiz-adv-x="406" 
d="M58 -158l167 897h123l-167 -897h-123z" />
    <glyph glyph-name="zero" unicode="0" horiz-adv-x="612" 
d="M500 619q66 -92 66 -267q0 -177 -66 -270t-191 -93q-128 0 -195 93t-67 270q0 175 67 267t195 92q125 0 191 -92zM204.5 548q-33.5 -64 -33.5 -196q0 -134 33.5 -199t103.5 -65q67 0 100.5 65t33.5 199q0 260 -134 260q-70 0 -103.5 -64z" />
    <glyph glyph-name="one" unicode="1" horiz-adv-x="367" 
d="M268 0h-127v523h-109v82q63 6 100.5 29.5t55.5 65.5h80v-700z" />
    <glyph glyph-name="two" unicode="2" horiz-adv-x="533" 
d="M496 0h-460l1 2q-3 26 -3 51q0 63 25.5 110t61.5 79t95 72q52 36 81 60t49 58t20 77q0 108 -102 108q-50 0 -78 -27.5t-28 -74.5q0 -37 11 -60l-106 -9q-18 26 -18 79q0 84 59.5 135t163.5 51q110 0 164.5 -50.5t54.5 -144.5q0 -57 -24 -100.5t-59 -73.5t-93 -71
q-68 -48 -103.5 -83t-46.5 -84h335v-104z" />
    <glyph glyph-name="three" unicode="3" horiz-adv-x="540" 
d="M463 308.5q41 -43.5 41 -121.5q0 -89 -59 -143.5t-174 -54.5q-119 0 -176.5 54.5t-57.5 152.5l114 13q5 -124 116 -124q60 0 88.5 31t28.5 85q0 66 -42 92.5t-124 26.5l-7 64q83 13 119 43.5t36 90.5q0 100 -95 100q-49 0 -73.5 -23.5t-24.5 -62.5q0 -32 5 -49l-109 -11
q-9 32 -9 69q0 78 56 124t157 46q103 0 156 -46.5t53 -129.5q0 -62 -33.5 -105t-91.5 -64q65 -14 106 -57.5z" />
    <glyph glyph-name="four" unicode="4" horiz-adv-x="578" 
d="M456 150v-150h-121v150h-314v68l264 482h171v-457h94v-93h-94zM335 616l-194 -373h194v373z" />
    <glyph glyph-name="five" unicode="5" horiz-adv-x="548" 
d="M458.5 385q53.5 -56 53.5 -161t-62 -169.5t-178 -65.5q-109 0 -168 50.5t-63 141.5l115 13q4 -52 36 -80.5t82 -28.5q58 0 90 36.5t32 99.5q0 66 -30 102t-85 36q-41 0 -73 -19.5t-46 -49.5l-110 8l33 402h391l3 -98h-299l-21 -228q24 30 65.5 48.5t91.5 18.5
q89 0 142.5 -56z" />
    <glyph glyph-name="six" unicode="6" horiz-adv-x="575" 
d="M483 364.5q52 -54.5 52 -148.5q0 -104 -62.5 -165.5t-169.5 -61.5t-174 69q-82 85 -82 291q0 176 69.5 269t202.5 93q91 0 145 -42.5t54 -118.5q0 -30 -9 -53l-104 2q6 17 6 39q0 38 -24.5 60.5t-70.5 22.5q-75 0 -113 -67t-38 -206l1 -25q22 45 66 70.5t104 25.5
q95 0 147 -54.5zM388 119.5q30 33.5 30 93.5t-31 92t-87 32q-53 0 -85 -34t-32 -90q0 -28 13 -57.5t40.5 -49.5t66.5 -20q55 0 85 33.5z" />
    <glyph glyph-name="seven" unicode="7" horiz-adv-x="502" 
d="M472 615q-100 -102 -157 -265t-57 -350h-135q0 172 61 330.5t166 265.5h-334v104h456v-85z" />
    <glyph glyph-name="eight" unicode="8" horiz-adv-x="575" 
d="M493.5 297.5q37.5 -45.5 37.5 -116.5q0 -91 -63.5 -141.5t-179.5 -50.5t-179.5 50.5t-63.5 141.5q0 70 37 116t104 61q-58 15 -90 58t-32 108q0 87 58.5 137t165.5 50q106 0 164.5 -49.5t58.5 -137.5q0 -65 -32 -108t-90 -58q67 -15 104.5 -60.5zM205 600.5
q-29 -30.5 -29 -87.5t29 -88.5t83 -31.5t82.5 31.5t28.5 88.5t-28.5 87.5t-82.5 30.5t-83 -30.5zM381 100q32 32 32 92q0 59 -32.5 91t-92.5 32q-61 0 -93.5 -32t-32.5 -91q0 -60 32.5 -92t93.5 -32t93 32z" />
    <glyph glyph-name="nine" unicode="9" horiz-adv-x="567" 
d="M501 530.5q19 -71.5 19 -180.5q0 -178 -68.5 -269.5t-200.5 -91.5q-122 0 -209 71l69 93q57 -64 141 -64q80 0 115 62.5t35 206.5v23q-18 -57 -61 -86t-105 -29q-93 0 -144.5 58.5t-51.5 157.5q0 69 29 121t82 80t123 28q52 0 95.5 -17.5t73.5 -50.5q39 -41 58 -112.5z
M356 392.5q29 34.5 29 97.5q0 62 -28 97t-81 35q-55 0 -87 -35t-32 -95q0 -63 30 -98.5t85 -35.5t84 34.5z" />
    <glyph glyph-name="colon" unicode=":" horiz-adv-x="306" 
d="M202.5 114q17.5 -18 17.5 -50q0 -31 -17.5 -49t-49.5 -18t-49.5 18t-17.5 49q0 32 17.5 50t49.5 18t49.5 -18zM202.5 500q17.5 -18 17.5 -50q0 -31 -17.5 -49t-49.5 -18t-49.5 18t-17.5 49q0 32 17.5 50t49.5 18t49.5 -18z" />
    <glyph glyph-name="semicolon" unicode=";" horiz-adv-x="332" 
d="M223 103q24 -26 24 -82q0 -64 -33 -94.5t-105 -31.5l-5 40q54 1 74.5 17.5t20.5 51.5v9q-15 -19 -43 -19q-31 0 -47 17.5t-16 48.5t17 50t48 19q41 0 65 -26zM204.5 500q17.5 -18 17.5 -50q0 -31 -17.5 -49t-49.5 -18t-49.5 18t-17.5 49q0 32 17.5 50t49.5 18t49.5 -18z
" />
    <glyph glyph-name="less" unicode="&#x3c;" horiz-adv-x="550" 
d="M73 309l385 -170v111l-285 103l285 103v111l-385 -170v-88z" />
    <glyph glyph-name="equal" unicode="=" horiz-adv-x="550" 
d="M100 403v92h341v-92h-341zM100 211v92h341v-92h-341z" />
    <glyph glyph-name="greater" unicode="&#x3e;" horiz-adv-x="550" 
d="M477 309l-385 -170v111l285 103l-285 103v111l385 -170v-88z" />
    <glyph glyph-name="question" unicode="?" horiz-adv-x="527" 
d="M433 660.5q55 -50.5 55 -141.5q0 -38 -13 -66t-31.5 -47t-49.5 -44q-32 -25 -51 -44.5t-32.5 -48.5t-14.5 -69h-86q-1 6 -2 14t-1 16q0 41 12 71t29 49t45 42q36 30 54 56t18 67q0 102 -101 102q-51 0 -78.5 -27.5t-27.5 -74.5q0 -33 10 -60l-107 -9q-6 15 -11 37.5
t-5 41.5q0 84 60 135t164 51q109 0 164 -50.5zM304 114.5q17 -17.5 17 -50.5q0 -31 -17.5 -49t-49.5 -18q-31 0 -49 18t-18 49q0 32 17.5 50t49.5 18q33 0 50 -17.5z" />
    <glyph glyph-name="at" unicode="@" horiz-adv-x="1028" 
d="M742 -111.5q80 19.5 138 53.5l29 -68q-143 -78 -371 -78q-152 0 -262.5 46t-170.5 136.5t-60 222.5q0 149 65.5 254.5t179 159t254.5 53.5q148 0 246.5 -47.5t145.5 -130t47 -187.5q0 -96 -32.5 -167t-91.5 -109t-136 -38q-61 0 -94 26t-40 81q-25 -51 -67 -78.5
t-93 -27.5q-71 0 -112 49.5t-41 142.5q0 91 30.5 156.5t83 99.5t118.5 34q87 0 135 -51l26 40l71 -10l-38 -301q-3 -22 -3 -39q0 -37 14 -48.5t45 -11.5q34 0 64 32.5t47.5 90t17.5 129.5q0 133 -82.5 212.5t-262.5 79.5q-115 0 -206 -44t-143.5 -132.5t-52.5 -217.5
q0 -165 100.5 -248.5t294.5 -83.5q127 0 207 19.5zM556.5 114.5q28.5 31.5 35.5 90.5h1l20 160q-18 14 -37.5 20.5t-46.5 6.5q-63 0 -98.5 -47.5t-35.5 -140.5q0 -59 23 -90t64 -31q46 0 74.5 31.5z" />
    <glyph glyph-name="A" unicode="A" horiz-adv-x="602" 
d="M163 151l-43 -151h-104l218 700h131l221 -700h-129l-43 151h-251zM288 593l-99 -350h199z" />
    <glyph glyph-name="B" unicode="B" horiz-adv-x="631" 
d="M580 190q0 -90 -57 -140t-166 -50h-273v700h235q116 0 176.5 -44.5t60.5 -131.5q0 -64 -29 -105.5t-93 -58.5q146 -31 146 -170zM205 400h107q63 0 93.5 26.5t30.5 79.5q0 52 -31 77t-94 25h-106v-208zM419 117.5q35 27.5 35 83.5q0 111 -134 111h-115v-223h107
q72 1 107 28.5z" />
    <glyph glyph-name="C" unicode="C" horiz-adv-x="604" 
d="M481.5 662.5q57.5 -48.5 57.5 -132.5q0 -45 -12 -75h-103q7 25 7 63q0 44 -27 70.5t-74 26.5q-79 0 -119 -68t-40 -201q0 -124 44 -185.5t134 -61.5q57 0 95.5 17.5t69.5 46.5l45 -95q-92 -79 -225 -79q-145 0 -217 90.5t-72 267.5q0 175 74.5 269.5t214.5 94.5
q90 0 147.5 -48.5z" />
    <glyph glyph-name="D" unicode="D" horiz-adv-x="643" 
d="M598 350q0 -350 -310 -350h-204v700h196q318 0 318 -350zM428 157.5q47 60.5 47 192.5t-46.5 192.5t-147.5 60.5h-76v-506h74q102 0 149 60.5z" />
    <glyph glyph-name="E" unicode="E" horiz-adv-x="570" 
d="M524 0h-440v700h419v-97h-298v-203h268v-91h-268v-212h319v-97z" />
    <glyph glyph-name="F" unicode="F" horiz-adv-x="540" 
d="M205 383h258v-91h-258v-292h-121v700h410v-97h-289v-220z" />
    <glyph glyph-name="G" unicode="G" horiz-adv-x="637" 
d="M577 0h-61l-24 108q-54 -119 -190 -119q-122 0 -189.5 90.5t-67.5 259.5q0 180 77.5 276t221.5 96q98 0 158.5 -47.5t60.5 -130.5q0 -36 -11 -60h-106q7 18 7 48q0 42 -28.5 68t-81.5 26q-90 0 -132.5 -68t-42.5 -208q0 -130 39 -193t118 -63q135 0 142 192h-150v90h260
v-365z" />
    <glyph glyph-name="H" unicode="H" horiz-adv-x="673" 
d="M589 0h-121v304h-263v-304h-121v700h121v-292h263v292h121v-700z" />
    <glyph glyph-name="I" unicode="I" horiz-adv-x="289" 
d="M84 0v700h121v-700h-121z" />
    <glyph glyph-name="J" unicode="J" horiz-adv-x="356" 
d="M120 -11q-62 0 -120 23l33 101q20 -14 36.5 -20.5t36.5 -6.5q36 0 52 22t16 78v514h121v-529q0 -182 -175 -182z" />
    <glyph glyph-name="K" unicode="K" horiz-adv-x="644" 
d="M205 191v-191h-121v700h121v-356l261 356h133l-230 -297l246 -403h-146l-179 301z" />
    <glyph glyph-name="L" unicode="L" horiz-adv-x="494" 
d="M475 0h-391v700h121v-596h270v-104z" />
    <glyph glyph-name="M" unicode="M" horiz-adv-x="840" 
d="M756 0h-119l1 570l-180 -570h-91l-181 570l2 -570h-104v700h174l167 -512l163 512h168v-700z" />
    <glyph glyph-name="N" unicode="N" horiz-adv-x="663" 
d="M580 0h-102l-287 488v-488h-107v700h119l269 -466v466h108v-700z" />
    <glyph glyph-name="O" unicode="O" horiz-adv-x="639" 
d="M523.5 619q70.5 -92 70.5 -268t-71 -269t-203 -93q-133 0 -204 93t-71 269t71 268t204 92t203.5 -92zM208 547.5q-37 -64.5 -37 -196.5q0 -133 37 -198t112 -65q74 0 111 65t37 198q0 261 -148 261q-75 0 -112 -64.5z" />
    <glyph glyph-name="P" unicode="P" horiz-adv-x="598" 
d="M491 645q63 -55 63 -170q0 -113 -61.5 -166.5t-187.5 -53.5h-100v-255h-121v700h216q128 0 191 -55zM400.5 375q33.5 30 33.5 99q0 72 -33.5 103.5t-109.5 31.5h-86v-264h86q76 0 109.5 30z" />
    <glyph glyph-name="Q" unicode="Q" horiz-adv-x="640" 
d="M478 -58q59 -21 130 -27l-20 -107q-101 10 -183 58t-112 124q-120 9 -184 101.5t-64 259.5q0 176 71 268t204 92t203.5 -92t70.5 -268q0 -154 -54 -244.5t-157 -111.5q36 -32 95 -53zM208 153q37 -65 112 -65q74 0 111 65t37 198q0 261 -148 261q-75 0 -112 -64.5
t-37 -196.5q0 -133 37 -198z" />
    <glyph glyph-name="R" unicode="R" horiz-adv-x="632" 
d="M539.5 373q-33.5 -50 -99.5 -69l131 -304h-139l-108 283h-119v-283h-121v700h254q113 0 174 -51.5t61 -150.5q0 -75 -33.5 -125zM337 373q57 0 86.5 30t29.5 88q0 117 -124 117h-124v-235h132z" />
    <glyph glyph-name="S" unicode="S" horiz-adv-x="598" 
d="M430.5 690q48.5 -21 73 -57t24.5 -79q0 -36 -11 -64h-108q7 26 7 43q0 37 -28.5 58.5t-85.5 21.5q-54 0 -83.5 -26t-29.5 -72q0 -41 21 -64t51.5 -34t85.5 -23q68 -15 109.5 -31.5t71 -56t29.5 -109.5q0 -98 -67.5 -153t-184.5 -55q-175 0 -266 84l73 101
q31 -36 81.5 -61t117.5 -25q65 0 96.5 22t31.5 66q0 32 -19 52t-47.5 30.5t-78.5 22.5q-69 17 -113.5 36t-76 62.5t-31.5 118.5q0 99 64 156t177 57q68 0 116.5 -21z" />
    <glyph glyph-name="T" unicode="T" horiz-adv-x="567" 
d="M345 596v-596h-122v596h-209v104h539v-104h-208z" />
    <glyph glyph-name="U" unicode="U" horiz-adv-x="603" 
d="M61 229v471h121v-463q0 -145 129 -145q65 0 95.5 36t30.5 109v463h106v-471q0 -114 -62.5 -174.5t-182.5 -60.5q-237 0 -237 235z" />
    <glyph glyph-name="V" unicode="V" horiz-adv-x="622" 
d="M378 0h-130l-223 700h142l158 -578l158 578h114z" />
    <glyph glyph-name="W" unicode="W" horiz-adv-x="902" 
d="M703 0h-111l-139 532l-138 -532h-113l-163 700h121l111 -531l133 531h118l131 -525l112 525h99z" />
    <glyph glyph-name="X" unicode="X" horiz-adv-x="651" 
d="M313 268l-151 -268h-121l204 353l-195 347h143l141 -251l141 251h117l-190 -334l208 -366h-148z" />
    <glyph glyph-name="Y" unicode="Y" horiz-adv-x="600" 
d="M363 0h-121v268l-226 432h149l149 -322l153 322h117l-221 -430v-270z" />
    <glyph glyph-name="Z" unicode="Z" horiz-adv-x="543" 
d="M511 0h-479v78l310 521h-295v101h448v-84l-305 -515h321v-101z" />
    <glyph glyph-name="bracketleft" unicode="[" horiz-adv-x="414" 
d="M217 650v-713h145v-92h-266v892h266v-87h-145z" />
    <glyph glyph-name="backslash" unicode="\" horiz-adv-x="406" 
d="M348 -158l-167 897h-123l167 -897h123z" />
    <glyph glyph-name="bracketright" unicode="]" horiz-adv-x="414" 
d="M197 -68v712h-145v93h266v-892h-266v87h145z" />
    <glyph glyph-name="asciicircum" unicode="^" horiz-adv-x="532" 
d="M264 458l-86 -193h-106l152 281h80l156 -281h-106z" />
    <glyph glyph-name="underscore" unicode="_" horiz-adv-x="330" 
d="M0 -179v76h330v-76h-330z" />
    <glyph glyph-name="grave" unicode="`" horiz-adv-x="345" 
d="M174 570l-107 156h134l77 -156h-104z" />
    <glyph glyph-name="a" unicode="a" horiz-adv-x="535" 
d="M449 -4q-40 0 -63.5 17.5t-32.5 55.5q-24 -38 -64 -59t-94 -21q-74 0 -112.5 36.5t-38.5 99.5q0 50 26 85t93 55.5t185 21.5v56q0 64 -19 90.5t-66 26.5q-89 0 -89 -87q0 -11 2 -25l-103 -6q-5 20 -5 44q0 61 47.5 98.5t148.5 37.5q105 0 152 -45t47 -145v-233
q0 -39 28 -39q11 0 19 5l11 -48q-27 -21 -72 -21zM317 97q31 34 31 99v46q-106 -2 -147 -30.5t-41 -75.5q0 -34 20 -53.5t56 -19.5q50 0 81 34z" />
    <glyph glyph-name="b" unicode="b" horiz-adv-x="569" 
d="M479.5 457.5q46.5 -63.5 46.5 -197.5q0 -135 -61.5 -203t-181.5 -68q-59 0 -114.5 13.5t-95.5 35.5v710h115v-324q23 47 64 72t97 25q84 0 130.5 -63.5zM411 253q0 176 -111 176q-52 0 -82 -36.5t-30 -108.5v-191q19 -11 45 -17t51 -6q127 0 127 183z" />
    <glyph glyph-name="c" unicode="c" horiz-adv-x="500" 
d="M415 479.5q43 -42.5 43 -103.5q0 -37 -9 -61l-99 6q6 20 6 51q0 70 -75 71q-59 -1 -91 -47t-32 -138q0 -89 37 -135t105 -46q43 0 76 16t51 40l45 -71q-30 -32 -78 -52.5t-113 -20.5q-111 0 -175 65.5t-64 194.5q0 133 64.5 203t176.5 70q89 0 132 -42.5z" />
    <glyph glyph-name="d" unicode="d" horiz-adv-x="570" 
d="M503 0h-80l-24 96q-21 -52 -63 -79.5t-101 -27.5q-87 0 -140 67t-53 192q0 133 58 203.5t158 70.5q77 0 129 -35v261h116v-748zM387 192v226q-42 20 -89 20q-140 0 -140 -179q0 -86 32 -131.5t87 -45.5q101 0 110 110z" />
    <glyph glyph-name="e" unicode="e" horiz-adv-x="515" 
d="M279 -11q-113 0 -175 66.5t-62 200.5q0 128 64 197t170 69q84 0 135 -50t51 -150q0 -56 -13 -89h-291q4 -78 41 -118.5t99 -40.5q44 0 73 14t55 42l39 -79q-75 -62 -186 -62zM196.5 416q-29.5 -37 -36.5 -117h198q4 24 4 43q0 55 -23.5 83t-67.5 29q-45 -1 -74.5 -38z
" />
    <glyph glyph-name="f" unicode="f" horiz-adv-x="337" 
d="M424 737l-35 -82q-14 16 -35 25t-45 9q-48 0 -73.5 -31t-25.5 -93v-54h115l-4 -73h-111v-438h-115v438h-67v73h67v43q0 204 213 204q64 0 116 -21z" />
    <glyph glyph-name="g" unicode="g" horiz-adv-x="564" 
d="M501 59q0 -133 -65 -201.5t-190 -68.5q-63 0 -113.5 11.5t-95.5 33.5l55 106q61 -63 148 -63q75 0 110.5 40.5t35.5 130.5v38q-23 -45 -61.5 -69t-89.5 -24q-90 0 -142 65.5t-52 190.5q0 131 57.5 202t152.5 71q51 0 89.5 -16t68.5 -47l25 52h67v-452zM357.5 116
q28.5 36 28.5 105v181q-42 36 -103 36t-94 -44t-33 -135q0 -87 31.5 -133t88.5 -46q53 0 81.5 36z" />
    <glyph glyph-name="h" unicode="h" horiz-adv-x="578" 
d="M481.5 471q39.5 -51 39.5 -161v-310h-116v301q0 63 -24 94t-77 31q-54 0 -84 -33.5t-30 -96.5v-296h-116v748h116v-327q23 50 66 75.5t101 25.5q85 0 124.5 -51z" />
    <glyph glyph-name="i" unicode="i" horiz-adv-x="287" 
d="M83 0v511h121v-511h-121zM195.5 698q18.5 -16 18.5 -46t-18.5 -45.5t-53.5 -15.5q-34 0 -52.5 15.5t-18.5 45.5t18.5 46t52.5 16q35 0 53.5 -16z" />
    <glyph glyph-name="j" unicode="j" horiz-adv-x="281" 
d="M64.5 -112.5q17.5 19.5 17.5 61.5v562h116v-537q0 -97 -46.5 -141t-144.5 -44q-23 0 -48.5 4t-45.5 11l29 86q31 -22 67 -22q38 0 55.5 19.5zM192.5 698q18.5 -16 18.5 -46t-18.5 -45.5t-53.5 -15.5q-34 0 -52.5 15.5t-18.5 45.5t18.5 46t52.5 16q35 0 53.5 -16z" />
    <glyph glyph-name="k" unicode="k" horiz-adv-x="566" 
d="M190 138v-138h-116v748h116v-486l201 249h126l-182 -208l199 -303h-132l-141 219z" />
    <glyph glyph-name="l" unicode="l" horiz-adv-x="319" 
d="M236 60q15 0 25 4.5t23 15.5l23 -61q-28 -17 -51 -23.5t-59 -6.5q-62 0 -93 33.5t-31 103.5v622h115v-616q0 -72 48 -72z" />
    <glyph glyph-name="m" unicode="m" horiz-adv-x="901" 
d="M802.5 468.5q41.5 -53.5 41.5 -164.5v-304h-116v301q0 63 -24.5 94t-76.5 31q-54 0 -84 -33.5t-30 -96.5v-296h-116v301q0 63 -24.5 94t-76.5 31q-54 0 -84 -33.5t-30 -96.5v-296h-116v511h85l19 -106q22 56 67.5 86.5t109.5 30.5q63 0 101 -29t54 -89q22 57 68 87.5
t108 30.5q83 0 124.5 -53.5z" />
    <glyph glyph-name="n" unicode="n" horiz-adv-x="570" 
d="M472 469.5q41 -52.5 41 -160.5v-309h-116v297q0 65 -23 97t-78 32q-54 0 -84 -34.5t-30 -99.5v-292h-116v511h85l18 -111q21 58 67 90t110 32q85 0 126 -52.5z" />
    <glyph glyph-name="o" unicode="o" horiz-adv-x="551" 
d="M449 454q59 -68 59 -198t-59 -198.5t-171 -68.5q-114 0 -175 68t-61 197q0 131 61 199.5t175 68.5q112 0 171 -68zM187.5 396q-29.5 -46 -29.5 -142q0 -95 29.5 -140t90.5 -45q59 0 87 45.5t28 141.5q0 95 -28 140.5t-87 45.5q-61 0 -90.5 -46z" />
    <glyph glyph-name="p" unicode="p" horiz-adv-x="568" 
d="M480.5 457.5q45.5 -64.5 45.5 -200.5q0 -137 -54.5 -202.5t-153.5 -65.5q-41 0 -75.5 14t-60.5 38v-241h-116v711h85l19 -113q20 59 63 91.5t107 32.5q95 0 140.5 -64.5zM380 116.5q30 43.5 30 138.5q0 92 -27.5 133t-84.5 41q-54 0 -85 -35t-31 -96v-191q48 -34 105 -34
q63 0 93 43.5z" />
    <glyph glyph-name="q" unicode="q" horiz-adv-x="561" 
d="M503 -200h-116v282q-23 -45 -61.5 -69t-88.5 -24q-90 0 -142.5 66.5t-52.5 193.5q0 132 57.5 202.5t153.5 70.5q50 0 88.5 -16t69.5 -46l25 51h67v-711zM354 111.5q28 29.5 33 85.5v206q-41 35 -102 35t-94 -44t-33 -135q0 -87 31.5 -132t88.5 -45q48 0 76 29.5z" />
    <glyph glyph-name="r" unicode="r" horiz-adv-x="446" 
d="M395.5 488.5q26.5 -33.5 26.5 -93.5q0 -53 -27 -101l-78 8q10 28 10 56q0 68 -60 68q-85 0 -85 -140v-286h-116v511h85l17 -109q18 58 56 89t91 31q54 0 80.5 -33.5z" />
    <glyph glyph-name="s" unicode="s" horiz-adv-x="491" 
d="M387.5 488.5q46.5 -33.5 46.5 -90.5q0 -20 -6 -46l-88 8q3 17 3 32q0 24 -23 39.5t-71 15.5q-44 0 -69 -18t-25 -51q0 -28 16.5 -44.5t41 -24t66.5 -15.5q57 -12 92 -24.5t60 -44t25 -87.5q0 -71 -54 -110t-150 -39q-76 0 -132 21t-90 58l52 81q33 -41 75 -61t102 -20
q47 0 73 15t26 44q0 25 -15 39t-38 21t-64 15q-57 11 -93 24.5t-62 46t-26 90.5q0 75 49.5 117t138.5 42q93 0 139.5 -33.5z" />
    <glyph glyph-name="t" unicode="t" horiz-adv-x="383" 
d="M311 7.5q-34 -18.5 -85 -18.5q-135 0 -135 147v302h-72v73h41q26 0 35.5 6.5t16.5 26.5l17 77h78v-110h147l-2 -73h-145v-297q0 -32 16 -50t44 -18q22 0 38.5 8.5t31.5 25.5l32 -50q-24 -31 -58 -49.5z" />
    <glyph glyph-name="u" unicode="u" horiz-adv-x="557" 
d="M495 0h-80l-22 105q-22 -54 -67.5 -85t-104.5 -31q-82 0 -124 45.5t-42 147.5v329h116v-313q0 -59 23.5 -86t72.5 -27q52 0 82 30t30 90v306h116v-511z" />
    <glyph glyph-name="v" unicode="v" horiz-adv-x="532" 
d="M335 0h-138l-178 511h124l132 -419l131 419h107z" />
    <glyph glyph-name="w" unicode="w" horiz-adv-x="769" 
d="M612 0h-126l-100 374l-98 -374h-126l-136 512h110l101 -388l103 388h104l106 -388l95 388h97z" />
    <glyph glyph-name="x" unicode="x" horiz-adv-x="527" 
d="M252 184l-119 -184h-108l168 256l-158 256h139l102 -165l104 165h108l-154 -237l169 -275h-134z" />
    <glyph glyph-name="y" unicode="y" horiz-adv-x="546" 
d="M340 -6q-40 -113 -93.5 -159t-138.5 -46q-83 0 -152 36l53 96q45 -47 107 -47q45 0 71.5 22.5t48.5 84.5l7 19h-34l-189 511h127l134 -401l140 401h106z" />
    <glyph glyph-name="z" unicode="z" horiz-adv-x="470" 
d="M433 0h-395v51l235 368h-222v92h369v-56l-234 -363h247v-92z" />
    <glyph glyph-name="braceleft" unicode="{" horiz-adv-x="393" 
d="M248 599q-9 -22 -9 -58q0 -24 6 -74q1 -10 3 -33t2 -40q0 -48 -20 -74.5t-72 -26.5v-3q65 0 83 -45q9 -19 9 -55q0 -16 -2 -39t-3 -33q-6 -50 -6 -73q0 -51 22.5 -79.5t80.5 -28.5v-92q-93 0 -142 25t-67 70q-12 32 -12 76q0 28 6 80q1 10 3 31.5t2 36.5q0 42 -17 64
t-62 22v84q48 0 66 28q12 19 12 53q0 19 -6 71q-7 63 -7 84q0 77 47 122t177 45v-87q-74 0 -94 -51z" />
    <glyph glyph-name="bar" unicode="|" horiz-adv-x="392" 
d="M136 -158v897h121v-897h-121z" />
    <glyph glyph-name="braceright" unicode="}" horiz-adv-x="393" 
d="M145 -17q9 21 9 57q0 17 -2 40t-3 33q-6 50 -6 73q0 49 20 75.5t73 26.5v3q-66 0 -84 45q-9 21 -9 56q0 16 2 39t3 33q6 50 6 73q0 51 -22 79t-80 28v93q93 0 142 -25t66 -70q12 -31 12 -75q0 -29 -6 -81q-5 -42 -5 -68q0 -42 17 -64t62 -22v-85q-49 0 -66 -28
q-12 -17 -12 -53q0 -21 6 -71q1 -8 4 -35t3 -49q0 -77 -47 -121.5t-176 -44.5v87q73 0 93 51z" />
    <glyph glyph-name="asciitilde" unicode="~" horiz-adv-x="600" 
d="M493.5 314.5q-33.5 -38.5 -98.5 -38.5q-29 0 -56 9.5t-60 25.5q-28 13 -44.5 19t-31.5 6q-28 0 -42.5 -15t-14.5 -44h-66q0 75 32.5 113t95.5 38q30 0 56.5 -8.5t62.5 -25.5q28 -12 45 -18t32 -6q58 0 58 59h65q0 -76 -33.5 -114.5z" />
    <glyph glyph-name="exclamdown" unicode="&#xa1;" horiz-adv-x="304" 
d="M102.5 397q-17.5 18 -17.5 50q0 31 17.5 49t49.5 18t49.5 -18t17.5 -49q0 -32 -17.5 -50t-49.5 -18t-49.5 18zM90 4l10 307h103l9 -307v-193h-122v193z" />
    <glyph glyph-name="cent" unicode="&#xa2;" horiz-adv-x="496" 
d="M327 -8v-126h-115v130q-81 18 -125.5 82t-44.5 171q0 110 44.5 177t125.5 88v132h115v-127q66 -11 98.5 -50.5t32.5 -92.5q0 -37 -9 -61l-99 6q6 20 6 51q0 70 -75 71q-59 -1 -91 -47t-32 -138q0 -89 37 -135t105 -46q43 0 76 16t51 40l45 -71q-53 -57 -145 -70z" />
    <glyph glyph-name="sterling" unicode="&#xa3;" horiz-adv-x="638" 
d="M594 0h-559v93h1q51 0 71 43t24 126h-69v93h72q3 109 18 182t65.5 123.5t151.5 50.5q87 0 138 -47t51 -130q0 -39 -12 -69h-92q8 23 8 57q0 43 -23.5 68t-69.5 25q-51 0 -76 -34.5t-32 -83t-13 -142.5h215v-93h-223q-14 -117 -62 -169h416v-93z" />
    <glyph glyph-name="currency" unicode="&#xa4;" horiz-adv-x="636" 
d="M501 254l96 -91l-85 -86l-97 102q-45 -20 -97 -20q-54 0 -97 20l-97 -101l-86 85l97 92q-27 43 -27 102q0 57 27 103l-96 91l85 87l97 -102q43 20 97 20t97 -20l96 101l87 -85l-97 -92q27 -45 27 -103q0 -57 -27 -103zM233.5 268.5q33.5 -35.5 85.5 -35.5q51 0 84.5 35.5
t33.5 88.5q0 55 -33.5 90t-84.5 35q-52 0 -85.5 -35t-33.5 -90q0 -53 33.5 -88.5z" />
    <glyph glyph-name="yen" unicode="&#xa5;" horiz-adv-x="627" 
d="M547 321v-86h-184v-235h-121v235h-156v86h128l-198 379h149l149 -322l153 322h117l-195 -379h158z" />
    <glyph glyph-name="brokenbar" unicode="&#xa6;" horiz-adv-x="392" 
d="M136 342v397h121v-397h-121zM136 -158v397h121v-397h-121z" />
    <glyph glyph-name="section" unicode="&#xa7;" horiz-adv-x="687" 
d="M600 -20q0 -57 -31 -100t-88.5 -67t-134.5 -24q-177 0 -270 84l63 94q34 -37 88 -62t127 -25q62 0 95 21.5t33 58.5q0 30 -22.5 49t-56 29.5t-92.5 22.5q-85 18 -138.5 37.5t-92 62.5t-38.5 117q0 50 28.5 90.5t76.5 66.5q-60 47 -60 132q0 88 68 139.5t188 51.5
q169 0 265 -83l-62 -93q-36 36 -89 61t-122 25q-64 0 -97 -21t-33 -59q0 -30 22 -48.5t55.5 -29t92.5 -23.5q86 -19 139 -39t91.5 -62.5t38.5 -115.5q0 -53 -26 -95t-69 -68q51 -46 51 -127zM179.5 235q25.5 -24 64.5 -35t104 -22q33 -6 67.5 -13.5t60.5 -16.5
q26 16 41.5 41t15.5 57q0 40 -25 63.5t-63 35.5t-103 24q-82 15 -127 31q-61 -31 -61 -99q0 -42 25.5 -66z" />
    <glyph glyph-name="dieresis" unicode="&#xa8;" horiz-adv-x="448" 
d="M181.5 693.5q17.5 -15.5 17.5 -44.5t-17.5 -44t-50.5 -15q-32 0 -49.5 15t-17.5 44t17.5 44.5t49.5 15.5q33 0 50.5 -15.5zM367.5 693.5q17.5 -15.5 17.5 -44.5t-17.5 -44t-50.5 -15q-32 0 -49.5 15t-17.5 44t17.5 44.5t49.5 15.5q33 0 50.5 -15.5z" />
    <glyph glyph-name="copyright" unicode="&#xa9;" horiz-adv-x="638" 
d="M526.5 768.5q75.5 -71.5 75.5 -196.5q0 -82 -34 -143t-98 -93.5t-151 -32.5t-151 32.5t-98 93.5t-34 143t34 142.5t98 93t151 32.5q132 0 207.5 -71.5zM166 725.5q-55 -54.5 -55 -153.5t55 -154t153 -55q99 0 153.5 55t54.5 154t-54.5 153.5t-153.5 54.5
q-98 0 -153 -54.5zM393.5 700.5q27.5 -22.5 27.5 -61.5q0 -23 -6 -33h-56q2 7 2 27q0 17 -10 27t-30 10q-61 0 -61 -101q0 -91 74 -91q24 0 40.5 7.5t31.5 19.5l21 -50q-42 -36 -102 -36q-136 0 -136 150q0 74 35 114t101 40q41 0 68.5 -22.5z" />
    <glyph glyph-name="ordfeminine" unicode="&#xaa;" horiz-adv-x="419" 
d="M336 336q-29 0 -46.5 13t-24.5 42q-17 -28 -46 -44t-68 -16q-48 0 -74 25.5t-26 67.5q0 56 45 86t165 31v41q0 43 -12.5 60.5t-41.5 17.5q-27 0 -41 -16t-14 -46q0 -6 2 -18l-82 -4q-5 23 -5 32q0 44 34 71t108 27q80 0 111.5 -32t31.5 -104v-158q0 -25 18 -25q12 0 16 3
l4 -38q-22 -16 -54 -16zM241.5 411q19.5 22 19.5 67v30q-66 -1 -92 -20.5t-26 -50.5q0 -22 12.5 -35t34.5 -13q32 0 51.5 22z" />
    <glyph glyph-name="guillemotleft" unicode="&#xab;" horiz-adv-x="505" 
d="M159 44l-107 217l106 217l105 -21l-84 -196l85 -196zM370 44l-107 217l106 217l105 -21l-84 -196l85 -196z" />
    <glyph glyph-name="logicalnot" unicode="&#xac;" horiz-adv-x="550" 
d="M457 197h-88v112h-276v88h364v-200z" />
    <glyph glyph-name="registered" unicode="&#xae;" horiz-adv-x="638" 
d="M526.5 768.5q75.5 -71.5 75.5 -196.5q0 -82 -34 -143t-98 -93.5t-151 -32.5t-151 32.5t-98 93.5t-34 143t34 142.5t98 93t151 32.5q132 0 207.5 -71.5zM527 572q0 208 -208 208t-208 -208q0 -209 208 -209t208 209zM385 552l48 -124h-66l-40 112h-47v-112h-61v287h117
q50 0 76.5 -22t26.5 -63q0 -60 -54 -78zM334 584q21 0 33 11t12 31q0 44 -48 44h-51v-86h54z" />
    <glyph glyph-name="macron" unicode="&#xaf;" horiz-adv-x="442" 
d="M374 600h-306v84h306v-84z" />
    <glyph glyph-name="degree" unicode="&#xb0;" horiz-adv-x="404" 
d="M311.5 675.5q40.5 -35.5 40.5 -95.5t-40 -95t-110 -35q-69 0 -109.5 35t-40.5 95t40.5 95.5t109.5 35.5t109.5 -35.5zM152.5 633q-19.5 -20 -19.5 -53t19 -53.5t50 -20.5q30 0 49 20.5t19 53.5t-18.5 53t-49.5 20q-30 0 -49.5 -20z" />
    <glyph glyph-name="plusminus" unicode="&#xb1;" horiz-adv-x="550" 
d="M321 382v-138h-91v138h-137v88h137v138h91v-138h136v-88h-136zM93 81v88h364v-88h-364z" />
    <glyph glyph-name="twosuperior" unicode="&#xb2;" horiz-adv-x="336" 
d="M310 396h-285q-2 24 -2 36q0 36 15.5 62.5t38 44.5t57.5 40q45 29 66 50t21 52q0 54 -54 54q-27 0 -42 -13.5t-15 -35.5q0 -19 6 -33l-74 -7q-12 15 -12 46q0 49 37 77.5t103 28.5q68 0 102 -29t34 -83q0 -48 -28.5 -78.5t-81.5 -63.5q-35 -22 -54.5 -38.5t-27.5 -36.5
h196v-73z" />
    <glyph glyph-name="threesuperior" unicode="&#xb3;" horiz-adv-x="368" 
d="M305 571q25 -25 25 -68q0 -51 -37 -82t-111 -31q-151 0 -151 121l81 9q1 -65 66 -65q35 0 52 15.5t17 42.5q0 33 -25.5 47t-74.5 14l-6 43q51 8 72.5 23.5t21.5 45.5q0 49 -55 49q-27 0 -40.5 -12t-13.5 -33q0 -11 3 -23l-77 -7q-6 20 -6 42q0 45 35.5 70.5t100.5 25.5
q67 0 101 -26t34 -73q0 -33 -20.5 -58t-55.5 -37q39 -8 64 -33z" />
    <glyph glyph-name="acute" unicode="&#xb4;" horiz-adv-x="345" 
d="M67 570l77 156h131l-107 -156h-101z" />
    <glyph glyph-name="paragraph" unicode="&#xb6;" horiz-adv-x="629" 
d="M454 0h-73v610h-58q-140 0 -140 -139q0 -66 35.5 -101t104.5 -35h27v-89h-40q-119 0 -183 58.5t-64 168.5q0 111 65 169t186 58h140v-700zM545 0h-73v700h73v-700z" />
    <glyph glyph-name="periodcentered" unicode="&#xb7;" horiz-adv-x="252" 
d="M176.5 316q17.5 -18 17.5 -50t-17.5 -49.5t-49.5 -17.5t-49.5 17.5t-17.5 49.5t17.5 50t49.5 18t49.5 -18z" />
    <glyph glyph-name="cedilla" unicode="&#xb8;" horiz-adv-x="365" 
d="M204 -39q94 -14 94 -84q0 -42 -30 -65t-87 -23q-37 0 -70 10.5t-52 25.5l44 63q30 -46 85 -46q19 0 30.5 9.5t11.5 25.5q0 18 -20 27t-65 13l5 95h55z" />
    <glyph glyph-name="onesuperior" unicode="&#xb9;" horiz-adv-x="236" 
d="M174 396h-92v285h-68l1 50q39 1 65 18t34 45h60v-398z" />
    <glyph glyph-name="ordmasculine" unicode="&#xba;" horiz-adv-x="392" 
d="M314 657q40 -48 40 -139t-40 -138.5t-116 -47.5q-78 0 -119 47t-41 138q0 92 41 140t119 48q76 0 116 -48zM146 614q-17 -31 -17 -97q0 -65 17 -95t52 -30q33 0 49.5 30.5t16.5 95.5t-16.5 96t-49.5 31q-35 0 -52 -31z" />
    <glyph glyph-name="guillemotright" unicode="&#xbb;" horiz-adv-x="505" 
d="M346 478l107 -217l-106 -217l-105 21l84 196l-85 196zM135 478l107 -217l-106 -217l-105 21l84 196l-85 196z" />
    <glyph glyph-name="onequarter" unicode="&#xbc;" horiz-adv-x="802" 
d="M174 308h-92v285h-68l1 50q39 1 65 18t34 45h60v-398zM53 0l521 700h107l-521 -700h-107zM726 78v-78h-84v78h-191v49l156 270h119v-253h55v-66h-55zM642 337l-106 -193h106v193z" />
    <glyph glyph-name="onehalf" unicode="&#xbd;" horiz-adv-x="815" 
d="M174 308h-92v285h-68l1 50q39 1 65 18t34 45h60v-398zM53 0l521 700h107l-521 -700h-107zM788 0h-285q-2 24 -2 36q0 36 15.5 62.5t37 43.5t58.5 41q44 28 65.5 49t21.5 53q0 53 -54 53q-27 0 -42 -13t-15 -35q0 -20 6 -34l-74 -6q-12 15 -12 46q0 49 37 77.5t103 28.5
q68 0 102 -29.5t34 -83.5q0 -47 -28.5 -77.5t-81.5 -63.5q-35 -22 -54.5 -38.5t-27.5 -36.5h196v-73z" />
    <glyph glyph-name="threequarters" unicode="&#xbe;" horiz-adv-x="909" 
d="M305 483q25 -25 25 -68q0 -51 -37 -82t-111 -31q-151 0 -151 121l81 9q1 -65 66 -65q35 0 52 15.5t17 42.5q0 33 -25.5 47t-74.5 14l-6 43q51 8 72.5 23.5t21.5 45.5q0 49 -55 49q-27 0 -40.5 -12t-13.5 -33q0 -11 3 -23l-77 -7q-6 20 -6 42q0 45 35.5 70.5t100.5 25.5
q67 0 101 -26t34 -73q0 -33 -20.5 -58t-55.5 -37q39 -8 64 -33zM160 0l521 700h107l-521 -700h-107zM833 78v-78h-84v78h-191v49l156 270h119v-253h55v-66h-55zM749 337l-106 -193h106v193z" />
    <glyph glyph-name="questiondown" unicode="&#xbf;" horiz-adv-x="516" 
d="M218.5 393q-17.5 18 -17.5 50q0 31 17.5 49t49.5 18t49.5 -18t17.5 -49q0 -32 -17.5 -50t-49.5 -18t-49.5 18zM90 -153.5q-55 50.5 -55 141.5q0 38 12.5 65.5t31.5 46.5t50 44q32 27 51 46t32.5 48t14.5 69h86q2 -26 2 -30q0 -42 -12 -71.5t-29.5 -49t-45.5 -42.5
q-36 -31 -53.5 -56t-17.5 -66q0 -102 102 -102q51 0 78.5 27.5t27.5 74.5q0 33 -10 59l107 10q7 -17 11.5 -38.5t4.5 -41.5q0 -84 -60 -134.5t-164 -50.5q-109 0 -164 50.5z" />
    <glyph glyph-name="Agrave" unicode="&#xc0;" horiz-adv-x="602" 
d="M163 151l-43 -151h-104l218 700h131l221 -700h-129l-43 151h-251zM288 593l-99 -350h199zM244 750l-111 123h141l82 -123h-112z" />
    <glyph glyph-name="Aacute" unicode="&#xc1;" horiz-adv-x="602" 
d="M163 151l-43 -151h-104l218 700h131l221 -700h-129l-43 151h-251zM288 593l-99 -350h199zM244 750l86 117h147l-115 -117h-118z" />
    <glyph glyph-name="Acircumflex" unicode="&#xc2;" horiz-adv-x="602" 
d="M163 151l-43 -151h-104l218 700h131l221 -700h-129l-43 151h-251zM288 593l-99 -350h199zM296 812l-70 -65h-102l100 118h148l99 -118h-101z" />
    <glyph glyph-name="Atilde" unicode="&#xc3;" horiz-adv-x="602" 
d="M163 151l-43 -151h-104l218 700h131l221 -700h-129l-43 151h-251zM288 593l-99 -350h199zM378 745q-24 0 -45.5 7t-53.5 21q-42 20 -62 20q-21 0 -32.5 -12t-11.5 -34h-54q0 61 26 92.5t76 31.5q25 0 48.5 -7.5t54.5 -20.5q18 -7 35 -13t29 -6q21 0 32.5 11.5t11.5 33.5
h52q0 -124 -106 -124z" />
    <glyph glyph-name="Adieresis" unicode="&#xc4;" horiz-adv-x="602" 
d="M163 151l-43 -151h-104l218 700h131l221 -700h-129l-43 151h-251zM288 593l-99 -350h199zM247 851q17 -15 17 -43q0 -27 -17 -41.5t-49 -14.5q-31 0 -48 15t-17 41q0 28 17 43t48 15q32 0 49 -15zM450.5 851q17.5 -15 17.5 -43q0 -26 -17.5 -41t-49.5 -15q-30 0 -47 15
t-17 41q0 28 17 43t47 15q32 0 49.5 -15z" />
    <glyph glyph-name="Aring" unicode="&#xc5;" horiz-adv-x="602" 
d="M163 151l-43 -151h-104l218 700h131l221 -700h-129l-43 151h-251zM288 593l-99 -350h199zM443 808q0 -69 -141 -69q-143 0 -143 69q0 68 143 68q141 0 141 -68zM266 837q-11 -9 -11 -29t11 -29t35 -9t35 9t11 29t-11 29t-35 9t-35 -9z" />
    <glyph glyph-name="AE" unicode="&#xc6;" horiz-adv-x="897" 
d="M851 0h-441v158h-218l-51 -158h-125l246 700h567v-97h-297v-203h268v-91h-268v-212h319v-97zM410 603h-73l-117 -360h190v360z" />
    <glyph glyph-name="Ccedilla" unicode="&#xc7;" horiz-adv-x="604" 
d="M447 -123q0 -42 -30 -65t-87 -23q-37 0 -70 10.5t-52 25.5l44 63q30 -46 85 -46q19 0 30.5 9.5t11.5 25.5q0 18 -20 27t-65 13l4 74q-253 21 -253 356q0 175 74.5 269.5t214.5 94.5q90 0 147.5 -48.5t57.5 -132.5q0 -45 -12 -75h-103q7 25 7 63q0 44 -27 70.5t-74 26.5
q-79 0 -119 -68t-40 -201q0 -124 44 -185.5t134 -61.5q57 0 95.5 17.5t69.5 46.5l45 -95q-86 -73 -205 -79l-1 -28q94 -14 94 -84z" />
    <glyph glyph-name="Egrave" unicode="&#xc8;" horiz-adv-x="570" 
d="M524 0h-440v700h419v-97h-298v-203h268v-91h-268v-212h319v-97zM245 750l-111 123h141l82 -123h-112z" />
    <glyph glyph-name="Eacute" unicode="&#xc9;" horiz-adv-x="570" 
d="M524 0h-440v700h419v-97h-298v-203h268v-91h-268v-212h319v-97zM245 750l86 117h147l-115 -117h-118z" />
    <glyph glyph-name="Ecircumflex" unicode="&#xca;" horiz-adv-x="570" 
d="M524 0h-440v700h419v-97h-298v-203h268v-91h-268v-212h319v-97zM297 812l-70 -65h-102l100 118h148l99 -118h-101z" />
    <glyph glyph-name="Edieresis" unicode="&#xcb;" horiz-adv-x="570" 
d="M524 0h-440v700h419v-97h-298v-203h268v-91h-268v-212h319v-97zM248 851q17 -15 17 -43q0 -27 -17 -41.5t-49 -14.5q-31 0 -48 15t-17 41q0 28 17 43t48 15q32 0 49 -15zM451.5 851q17.5 -15 17.5 -43q0 -26 -17.5 -41t-49.5 -15q-30 0 -47 15t-17 41q0 28 17 43t47 15
q32 0 49.5 -15z" />
    <glyph glyph-name="Igrave" unicode="&#xcc;" horiz-adv-x="289" 
d="M84 0v700h121v-700h-121zM88 750l-111 123h141l82 -123h-112z" />
    <glyph glyph-name="Iacute" unicode="&#xcd;" horiz-adv-x="289" 
d="M84 0v700h121v-700h-121zM88 750l86 117h147l-115 -117h-118z" />
    <glyph glyph-name="Icircumflex" unicode="&#xce;" horiz-adv-x="289" 
d="M84 0v700h121v-700h-121zM140 812l-70 -65h-102l100 118h148l99 -118h-101z" />
    <glyph glyph-name="Idieresis" unicode="&#xcf;" horiz-adv-x="289" 
d="M84 0v700h121v-700h-121zM91 851q17 -15 17 -43q0 -27 -17 -41.5t-49 -14.5q-31 0 -48 15t-17 41q0 28 17 43t48 15q32 0 49 -15zM294.5 851q17.5 -15 17.5 -43q0 -26 -17.5 -41t-49.5 -15q-30 0 -47 15t-17 41q0 28 17 43t47 15q32 0 49.5 -15z" />
    <glyph glyph-name="Eth" unicode="&#xd0;" horiz-adv-x="668" 
d="M622 350q0 -350 -310 -350h-205v302h-87v105h87v293h197q318 0 318 -350zM452 157.5q47 60.5 47 192.5t-46.5 192.5t-147.5 60.5h-76v-196h122v-105h-122v-205h74q102 0 149 60.5z" />
    <glyph glyph-name="Ntilde" unicode="&#xd1;" horiz-adv-x="663" 
d="M580 0h-102l-287 488v-488h-107v700h119l269 -466v466h108v-700zM410 745q-24 0 -45.5 7t-53.5 21q-42 20 -62 20q-21 0 -32.5 -12t-11.5 -34h-54q0 61 26 92.5t76 31.5q25 0 48.5 -7.5t54.5 -20.5q18 -7 35 -13t29 -6q21 0 32.5 11.5t11.5 33.5h52q0 -124 -106 -124z
" />
    <glyph glyph-name="Ograve" unicode="&#xd2;" horiz-adv-x="639" 
d="M523.5 619q70.5 -92 70.5 -268t-71 -269t-203 -93q-133 0 -204 93t-71 269t71 268t204 92t203.5 -92zM208 547.5q-37 -64.5 -37 -196.5q0 -133 37 -198t112 -65q74 0 111 65t37 198q0 261 -148 261q-75 0 -112 -64.5zM262 750l-111 123h141l82 -123h-112z" />
    <glyph glyph-name="Oacute" unicode="&#xd3;" horiz-adv-x="639" 
d="M523.5 619q70.5 -92 70.5 -268t-71 -269t-203 -93q-133 0 -204 93t-71 269t71 268t204 92t203.5 -92zM208 547.5q-37 -64.5 -37 -196.5q0 -133 37 -198t112 -65q74 0 111 65t37 198q0 261 -148 261q-75 0 -112 -64.5zM262 750l86 117h147l-115 -117h-118z" />
    <glyph glyph-name="Ocircumflex" unicode="&#xd4;" horiz-adv-x="639" 
d="M523.5 619q70.5 -92 70.5 -268t-71 -269t-203 -93q-133 0 -204 93t-71 269t71 268t204 92t203.5 -92zM208 547.5q-37 -64.5 -37 -196.5q0 -133 37 -198t112 -65q74 0 111 65t37 198q0 261 -148 261q-75 0 -112 -64.5zM315 812l-70 -65h-102l100 118h148l99 -118h-101z
" />
    <glyph glyph-name="Otilde" unicode="&#xd5;" horiz-adv-x="639" 
d="M523.5 619q70.5 -92 70.5 -268t-71 -269t-203 -93q-133 0 -204 93t-71 269t71 268t204 92t203.5 -92zM208 547.5q-37 -64.5 -37 -196.5q0 -133 37 -198t112 -65q74 0 111 65t37 198q0 261 -148 261q-75 0 -112 -64.5zM396 745q-24 0 -45.5 7t-53.5 21q-42 20 -62 20
q-21 0 -32.5 -12t-11.5 -34h-54q0 61 26 92.5t76 31.5q25 0 48.5 -7.5t54.5 -20.5q18 -7 35 -13t29 -6q21 0 32.5 11.5t11.5 33.5h52q0 -124 -106 -124z" />
    <glyph glyph-name="Odieresis" unicode="&#xd6;" horiz-adv-x="639" 
d="M523.5 619q70.5 -92 70.5 -268t-71 -269t-203 -93q-133 0 -204 93t-71 269t71 268t204 92t203.5 -92zM208 547.5q-37 -64.5 -37 -196.5q0 -133 37 -198t112 -65q74 0 111 65t37 198q0 261 -148 261q-75 0 -112 -64.5zM265 851q17 -15 17 -43q0 -27 -17 -41.5t-49 -14.5
q-31 0 -48 15t-17 41q0 28 17 43t48 15q32 0 49 -15zM468.5 851q17.5 -15 17.5 -43q0 -26 -17.5 -41t-49.5 -15q-30 0 -47 15t-17 41q0 28 17 43t47 15q32 0 49.5 -15z" />
    <glyph glyph-name="multiply" unicode="&#xd7;" horiz-adv-x="550" 
d="M473 232l-66 -65l-121 123l-122 -123l-65 65l122 124l-122 124l65 66l122 -124l121 124l66 -66l-122 -124z" />
    <glyph glyph-name="Oslash" unicode="&#xd8;" horiz-adv-x="639" 
d="M594 351q0 -176 -71 -269t-203 -93q-58 0 -104 18l-45 -115h-93l63 162q-96 91 -96 297q0 176 71 268t204 92q61 0 108 -19l36 96h94l-56 -145q92 -92 92 -292zM208 547.5q-37 -64.5 -37 -196.5q0 -126 33 -191l169 442q-23 10 -53 10q-75 0 -112 -64.5zM431 153
q37 65 37 198q0 119 -30 183l-168 -437q22 -9 50 -9q74 0 111 65z" />
    <glyph glyph-name="Ugrave" unicode="&#xd9;" horiz-adv-x="603" 
d="M61 229v471h121v-463q0 -145 129 -145q65 0 95.5 36t30.5 109v463h106v-471q0 -114 -62.5 -174.5t-182.5 -60.5q-237 0 -237 235zM245 750l-111 123h141l82 -123h-112z" />
    <glyph glyph-name="Uacute" unicode="&#xda;" horiz-adv-x="603" 
d="M61 229v471h121v-463q0 -145 129 -145q65 0 95.5 36t30.5 109v463h106v-471q0 -114 -62.5 -174.5t-182.5 -60.5q-237 0 -237 235zM245 750l86 117h147l-115 -117h-118z" />
    <glyph glyph-name="Ucircumflex" unicode="&#xdb;" horiz-adv-x="603" 
d="M61 229v471h121v-463q0 -145 129 -145q65 0 95.5 36t30.5 109v463h106v-471q0 -114 -62.5 -174.5t-182.5 -60.5q-237 0 -237 235zM297 812l-70 -65h-102l100 118h148l99 -118h-101z" />
    <glyph glyph-name="Udieresis" unicode="&#xdc;" horiz-adv-x="603" 
d="M61 229v471h121v-463q0 -145 129 -145q65 0 95.5 36t30.5 109v463h106v-471q0 -114 -62.5 -174.5t-182.5 -60.5q-237 0 -237 235zM248 851q17 -15 17 -43q0 -27 -17 -41.5t-49 -14.5q-31 0 -48 15t-17 41q0 28 17 43t48 15q32 0 49 -15zM451.5 851q17.5 -15 17.5 -43
q0 -26 -17.5 -41t-49.5 -15q-30 0 -47 15t-17 41q0 28 17 43t47 15q32 0 49.5 -15z" />
    <glyph glyph-name="Yacute" unicode="&#xdd;" horiz-adv-x="600" 
d="M363 0h-121v268l-226 432h149l149 -322l153 322h117l-221 -430v-270zM244 750l86 117h147l-115 -117h-118z" />
    <glyph glyph-name="Thorn" unicode="&#xde;" horiz-adv-x="596" 
d="M489 524.5q63 -54.5 63 -169.5q0 -113 -61.5 -167t-187.5 -54h-101v-134h-121v700h121v-121h96q128 0 191 -54.5zM398.5 254q33.5 30 33.5 99q0 73 -34 105t-109 32h-87v-266h87q76 0 109.5 30z" />
    <glyph glyph-name="germandbls" unicode="&#xdf;" horiz-adv-x="592" 
d="M449.5 721.5q41.5 -36.5 41.5 -96.5q0 -36 -15.5 -63t-46.5 -63q-25 -29 -37 -48.5t-12 -42.5q0 -29 18 -46.5t57 -38.5q35 -19 56.5 -35.5t36.5 -44.5t15 -70q0 -82 -52.5 -133t-141.5 -51q-75 0 -125 20l30 97q44 -32 106 -32q44 0 66.5 19.5t22.5 53.5q0 30 -20 46.5
t-60 34.5q-35 17 -56.5 31.5t-36.5 39t-15 61.5q0 35 14 61.5t41 60.5q26 33 39 57.5t13 56.5q0 43 -20.5 66.5t-58.5 23.5q-131 0 -131 -227v-459h-116v408q0 182 71 266t194 84q81 0 122.5 -36.5z" />
    <glyph glyph-name="agrave" unicode="&#xe0;" horiz-adv-x="535" 
d="M449 -4q-40 0 -63.5 17.5t-32.5 55.5q-24 -38 -64 -59t-94 -21q-74 0 -112.5 36.5t-38.5 99.5q0 50 26 85t93 55.5t185 21.5v56q0 64 -19 90.5t-66 26.5q-89 0 -89 -87q0 -11 2 -25l-103 -6q-5 20 -5 44q0 61 47.5 98.5t148.5 37.5q105 0 152 -45t47 -145v-233
q0 -39 28 -39q11 0 19 5l11 -48q-27 -21 -72 -21zM317 97q31 34 31 99v46q-106 -2 -147 -30.5t-41 -75.5q0 -34 20 -53.5t56 -19.5q50 0 81 34zM229 570l-107 156h134l77 -156h-104z" />
    <glyph glyph-name="aacute" unicode="&#xe1;" horiz-adv-x="535" 
d="M449 -4q-40 0 -63.5 17.5t-32.5 55.5q-24 -38 -64 -59t-94 -21q-74 0 -112.5 36.5t-38.5 99.5q0 50 26 85t93 55.5t185 21.5v56q0 64 -19 90.5t-66 26.5q-89 0 -89 -87q0 -11 2 -25l-103 -6q-5 20 -5 44q0 61 47.5 98.5t148.5 37.5q105 0 152 -45t47 -145v-233
q0 -39 28 -39q11 0 19 5l11 -48q-27 -21 -72 -21zM317 97q31 34 31 99v46q-106 -2 -147 -30.5t-41 -75.5q0 -34 20 -53.5t56 -19.5q50 0 81 34zM209 570l77 156h131l-107 -156h-101z" />
    <glyph glyph-name="acircumflex" unicode="&#xe2;" horiz-adv-x="535" 
d="M449 -4q-40 0 -63.5 17.5t-32.5 55.5q-24 -38 -64 -59t-94 -21q-74 0 -112.5 36.5t-38.5 99.5q0 50 26 85t93 55.5t185 21.5v56q0 64 -19 90.5t-66 26.5q-89 0 -89 -87q0 -11 2 -25l-103 -6q-5 20 -5 44q0 61 47.5 98.5t148.5 37.5q105 0 152 -45t47 -145v-233
q0 -39 28 -39q11 0 19 5l11 -48q-27 -21 -72 -21zM317 97q31 34 31 99v46q-106 -2 -147 -30.5t-41 -75.5q0 -34 20 -53.5t56 -19.5q50 0 81 34zM261 662l-72 -92h-89l103 156h121l102 -156h-89z" />
    <glyph glyph-name="atilde" unicode="&#xe3;" horiz-adv-x="535" 
d="M449 -4q-40 0 -63.5 17.5t-32.5 55.5q-24 -38 -64 -59t-94 -21q-74 0 -112.5 36.5t-38.5 99.5q0 50 26 85t93 55.5t185 21.5v56q0 64 -19 90.5t-66 26.5q-89 0 -89 -87q0 -11 2 -25l-103 -6q-5 20 -5 44q0 61 47.5 98.5t148.5 37.5q105 0 152 -45t47 -145v-233
q0 -39 28 -39q11 0 19 5l11 -48q-27 -21 -72 -21zM317 97q31 34 31 99v46q-106 -2 -147 -30.5t-41 -75.5q0 -34 20 -53.5t56 -19.5q50 0 81 34zM323 581q-22 0 -42 8t-44 22q-35 20 -51 20q-19 0 -29 -12.5t-10 -36.5h-53q0 62 24 93.5t71 31.5q23 0 44 -8t46 -22
q33 -20 50 -20q40 0 40 49h53q0 -125 -99 -125z" />
    <glyph glyph-name="adieresis" unicode="&#xe4;" horiz-adv-x="535" 
d="M120.5 605q-17.5 15 -17.5 44t17.5 44.5t49.5 15.5t50 -15.5t18 -44.5t-17.5 -44t-50.5 -15q-32 0 -49.5 15zM306.5 605q-17.5 15 -17.5 44t17.5 44.5t49.5 15.5t50 -15.5t18 -44.5t-17.5 -44t-50.5 -15q-32 0 -49.5 15zM449 -4q-40 0 -63.5 17.5t-32.5 55.5
q-24 -38 -64 -59t-94 -21q-74 0 -112.5 36.5t-38.5 99.5q0 50 26 85t93 55.5t185 21.5v56q0 64 -19 90.5t-66 26.5q-89 0 -89 -87q0 -11 2 -25l-103 -6q-5 20 -5 44q0 61 47.5 98.5t148.5 37.5q105 0 152 -45t47 -145v-233q0 -39 28 -39q11 0 19 5l11 -48q-27 -21 -72 -21z
M317 97q31 34 31 99v46q-106 -2 -147 -30.5t-41 -75.5q0 -34 20 -53.5t56 -19.5q50 0 81 34z" />
    <glyph glyph-name="aring" unicode="&#xe5;" horiz-adv-x="535" 
d="M449 -4q-40 0 -63.5 17.5t-32.5 55.5q-24 -38 -64 -59t-94 -21q-74 0 -112.5 36.5t-38.5 99.5q0 50 26 85t93 55.5t185 21.5v56q0 64 -19 90.5t-66 26.5q-89 0 -89 -87q0 -11 2 -25l-103 -6q-5 20 -5 44q0 61 47.5 98.5t148.5 37.5q105 0 152 -45t47 -145v-233
q0 -39 28 -39q11 0 19 5l11 -48q-27 -21 -72 -21zM317 97q31 34 31 99v46q-106 -2 -147 -30.5t-41 -75.5q0 -34 20 -53.5t56 -19.5q50 0 81 34zM366 717q33 -21 33 -66q0 -46 -33 -67.5t-102 -21.5t-102 21.5t-33 67.5q0 45 33 66t102 21t102 -21zM227 688q-14 -13 -14 -37
t14.5 -38t38.5 -14q22 0 36 14t14 38t-13.5 37t-36.5 13q-25 0 -39 -13z" />
    <glyph glyph-name="ae" unicode="&#xe6;" horiz-adv-x="823" 
d="M585 -11q-73 0 -124 30.5t-77 92.5q-24 -56 -74 -89.5t-122 -33.5q-71 0 -108 36.5t-37 99.5q0 50 27 85.5t95.5 56t189.5 21.5v58q0 61 -22 87t-69 26q-45 0 -67.5 -22.5t-22.5 -63.5q0 -12 2 -30h-104q-5 27 -5 43q0 61 47.5 98.5t151.5 37.5q62 0 100.5 -18t57.5 -56
q28 37 68.5 55.5t89.5 18.5q83 0 134 -51t51 -149q0 -56 -13 -86l-285 1q3 -80 39 -121t95 -41q44 0 73.5 13t56.5 40l40 -77q-77 -62 -188 -62zM471 295l191 -1q4 17 4 46q0 112 -89 112q-94 0 -106 -157zM358 243q-111 -1 -154.5 -30t-43.5 -77q0 -34 19.5 -53.5
t55.5 -19.5q56 0 88 38.5t32 138.5l3 -2v5z" />
    <glyph glyph-name="ccedilla" unicode="&#xe7;" horiz-adv-x="500" 
d="M397 10.5q-46 -20.5 -108 -21.5l-1 -28q94 -14 94 -84q0 -42 -30 -65t-87 -23q-37 0 -70 10.5t-52 25.5l44 63q30 -46 85 -46q19 0 30.5 9.5t11.5 25.5q0 18 -20 27t-65 13l4 75q-90 14 -140.5 78.5t-50.5 178.5q0 133 64.5 203t176.5 70q89 0 132 -42.5t43 -103.5
q0 -37 -9 -61l-99 6q6 20 6 51q0 70 -75 71q-59 -1 -91 -47t-32 -138q0 -89 37 -135t105 -46q43 0 76 16t51 40l45 -71q-29 -31 -75 -51.5z" />
    <glyph glyph-name="egrave" unicode="&#xe8;" horiz-adv-x="515" 
d="M279 -11q-113 0 -175 66.5t-62 200.5q0 128 64 197t170 69q84 0 135 -50t51 -150q0 -56 -13 -89h-291q4 -78 41 -118.5t99 -40.5q44 0 73 14t55 42l39 -79q-75 -62 -186 -62zM196.5 416q-29.5 -37 -36.5 -117h198q4 24 4 43q0 55 -23.5 83t-67.5 29q-45 -1 -74.5 -38z
M240 570l-107 156h134l77 -156h-104z" />
    <glyph glyph-name="eacute" unicode="&#xe9;" horiz-adv-x="515" 
d="M279 -11q-113 0 -175 66.5t-62 200.5q0 128 64 197t170 69q84 0 135 -50t51 -150q0 -56 -13 -89h-291q4 -78 41 -118.5t99 -40.5q44 0 73 14t55 42l39 -79q-75 -62 -186 -62zM196.5 416q-29.5 -37 -36.5 -117h198q4 24 4 43q0 55 -23.5 83t-67.5 29q-45 -1 -74.5 -38z
M221 570l77 156h131l-107 -156h-101z" />
    <glyph glyph-name="ecircumflex" unicode="&#xea;" horiz-adv-x="515" 
d="M279 -11q-113 0 -175 66.5t-62 200.5q0 128 64 197t170 69q84 0 135 -50t51 -150q0 -56 -13 -89h-291q4 -78 41 -118.5t99 -40.5q44 0 73 14t55 42l39 -79q-75 -62 -186 -62zM196.5 416q-29.5 -37 -36.5 -117h198q4 24 4 43q0 55 -23.5 83t-67.5 29q-45 -1 -74.5 -38z
M273 662l-72 -92h-89l103 156h121l102 -156h-89z" />
    <glyph glyph-name="edieresis" unicode="&#xeb;" horiz-adv-x="515" 
d="M132.5 605q-17.5 15 -17.5 44t17.5 44.5t49.5 15.5t50 -15.5t18 -44.5t-17.5 -44t-50.5 -15q-32 0 -49.5 15zM318.5 605q-17.5 15 -17.5 44t17.5 44.5t49.5 15.5t50 -15.5t18 -44.5t-17.5 -44t-50.5 -15q-32 0 -49.5 15zM279 -11q-113 0 -175 66.5t-62 200.5
q0 128 64 197t170 69q84 0 135 -50t51 -150q0 -56 -13 -89h-291q4 -78 41 -118.5t99 -40.5q44 0 73 14t55 42l39 -79q-75 -62 -186 -62zM196.5 416q-29.5 -37 -36.5 -117h198q4 24 4 43q0 55 -23.5 83t-67.5 29q-45 -1 -74.5 -38z" />
    <glyph glyph-name="igrave" unicode="&#xec;" horiz-adv-x="287" 
d="M83 0v511h121v-511h-121zM108 570l-107 156h134l77 -156h-104z" />
    <glyph glyph-name="iacute" unicode="&#xed;" horiz-adv-x="287" 
d="M83 0v511h121v-511h-121zM89 570l77 156h131l-107 -156h-101z" />
    <glyph glyph-name="icircumflex" unicode="&#xee;" horiz-adv-x="287" 
d="M83 0v511h121v-511h-121zM141 662l-72 -92h-89l103 156h121l102 -156h-89z" />
    <glyph glyph-name="idieresis" unicode="&#xef;" horiz-adv-x="287" 
d="M100 693.5q18 -15.5 18 -44.5t-17.5 -44t-50.5 -15q-32 0 -49.5 15t-17.5 44t17.5 44.5t49.5 15.5t50 -15.5zM286 693.5q18 -15.5 18 -44.5t-17.5 -44t-50.5 -15q-32 0 -49.5 15t-17.5 44t17.5 44.5t49.5 15.5t50 -15.5zM83 0v511h121v-511h-121z" />
    <glyph glyph-name="eth" unicode="&#xf0;" horiz-adv-x="541" 
d="M461 566.5q43 -98.5 43 -276.5q0 -301 -231 -301q-114 0 -174.5 68t-60.5 197q0 126 58.5 193.5t162.5 67.5q79 0 134 -41q-14 56 -40 92t-66 58l-23 -61l-69 22l25 65q-44 12 -119 20l19 101q85 -14 134 -30l18 47l68 -23l-19 -51q97 -49 140 -147.5zM360 113.5
q28 47.5 28 146.5q0 91 -28 134.5t-87 44.5q-120 0 -120 -185q0 -96 30 -142t90 -46q59 0 87 47.5z" />
    <glyph glyph-name="ntilde" unicode="&#xf1;" horiz-adv-x="570" 
d="M472 469.5q41 -52.5 41 -160.5v-309h-116v297q0 65 -23 97t-78 32q-54 0 -84 -34.5t-30 -99.5v-292h-116v511h85l18 -111q21 58 67 90t110 32q85 0 126 -52.5zM350 581q-22 0 -42 8t-44 22q-35 20 -51 20q-19 0 -29 -12.5t-10 -36.5h-53q0 62 24 93.5t71 31.5q23 0 44 -8
t46 -22q33 -20 50 -20q40 0 40 49h53q0 -125 -99 -125z" />
    <glyph glyph-name="ograve" unicode="&#xf2;" horiz-adv-x="551" 
d="M449 454q59 -68 59 -198t-59 -198.5t-171 -68.5q-114 0 -175 68t-61 197q0 131 61 199.5t175 68.5q112 0 171 -68zM187.5 396q-29.5 -46 -29.5 -142q0 -95 29.5 -140t90.5 -45q59 0 87 45.5t28 141.5q0 95 -28 140.5t-87 45.5q-61 0 -90.5 -46zM241 570l-107 156h134
l77 -156h-104z" />
    <glyph glyph-name="oacute" unicode="&#xf3;" horiz-adv-x="551" 
d="M449 454q59 -68 59 -198t-59 -198.5t-171 -68.5q-114 0 -175 68t-61 197q0 131 61 199.5t175 68.5q112 0 171 -68zM187.5 396q-29.5 -46 -29.5 -142q0 -95 29.5 -140t90.5 -45q59 0 87 45.5t28 141.5q0 95 -28 140.5t-87 45.5q-61 0 -90.5 -46zM221 570l77 156h131
l-107 -156h-101z" />
    <glyph glyph-name="ocircumflex" unicode="&#xf4;" horiz-adv-x="551" 
d="M449 454q59 -68 59 -198t-59 -198.5t-171 -68.5q-114 0 -175 68t-61 197q0 131 61 199.5t175 68.5q112 0 171 -68zM187.5 396q-29.5 -46 -29.5 -142q0 -95 29.5 -140t90.5 -45q59 0 87 45.5t28 141.5q0 95 -28 140.5t-87 45.5q-61 0 -90.5 -46zM273 662l-72 -92h-89
l103 156h121l102 -156h-89z" />
    <glyph glyph-name="otilde" unicode="&#xf5;" horiz-adv-x="551" 
d="M449 454q59 -68 59 -198t-59 -198.5t-171 -68.5q-114 0 -175 68t-61 197q0 131 61 199.5t175 68.5q112 0 171 -68zM187.5 396q-29.5 -46 -29.5 -142q0 -95 29.5 -140t90.5 -45q59 0 87 45.5t28 141.5q0 95 -28 140.5t-87 45.5q-61 0 -90.5 -46zM335 581q-22 0 -42 8
t-44 22q-35 20 -51 20q-19 0 -29 -12.5t-10 -36.5h-53q0 62 24 93.5t71 31.5q23 0 44 -8t46 -22q33 -20 50 -20q40 0 40 49h53q0 -125 -99 -125z" />
    <glyph glyph-name="odieresis" unicode="&#xf6;" horiz-adv-x="551" 
d="M232 693.5q18 -15.5 18 -44.5t-17.5 -44t-50.5 -15q-32 0 -49.5 15t-17.5 44t17.5 44.5t49.5 15.5t50 -15.5zM418 693.5q18 -15.5 18 -44.5t-17.5 -44t-50.5 -15q-32 0 -49.5 15t-17.5 44t17.5 44.5t49.5 15.5t50 -15.5zM449 454q59 -68 59 -198t-59 -198.5t-171 -68.5
q-114 0 -175 68t-61 197q0 131 61 199.5t175 68.5q112 0 171 -68zM187.5 396q-29.5 -46 -29.5 -142q0 -95 29.5 -140t90.5 -45q59 0 87 45.5t28 141.5q0 95 -28 140.5t-87 45.5q-61 0 -90.5 -46z" />
    <glyph glyph-name="divide" unicode="&#xf7;" horiz-adv-x="550" 
d="M316 579.5q16 -16.5 16 -44.5q0 -26 -16 -42.5t-43 -16.5t-43.5 16.5t-16.5 42.5q0 28 16.5 44.5t43.5 16.5t43 -16.5zM93 309v88h364v-88h-364zM316 213.5q16 -16.5 16 -43.5q0 -26 -16 -42.5t-43 -16.5t-43.5 16.5t-16.5 42.5q0 27 16.5 43.5t43.5 16.5t43 -16.5z" />
    <glyph glyph-name="oslash" unicode="&#xf8;" horiz-adv-x="541" 
d="M508 256q0 -130 -59 -198.5t-171 -68.5q-47 0 -85 12l-49 -117h-71l60 146q-91 66 -91 224q0 131 61 199.5t175 68.5q43 0 82 -11l44 105h71l-57 -133q90 -66 90 -227zM187.5 396q-29.5 -46 -29.5 -142q0 -94 30 -141l122 325q-13 4 -32 4q-61 0 -90.5 -46zM365 114.5
q28 45.5 28 141.5q0 94 -27 139l-123 -322q15 -4 35 -4q59 0 87 45.5z" />
    <glyph glyph-name="ugrave" unicode="&#xf9;" horiz-adv-x="557" 
d="M495 0h-80l-22 105q-22 -54 -67.5 -85t-104.5 -31q-82 0 -124 45.5t-42 147.5v329h116v-313q0 -59 23.5 -86t72.5 -27q52 0 82 30t30 90v306h116v-511zM241 570l-107 156h134l77 -156h-104z" />
    <glyph glyph-name="uacute" unicode="&#xfa;" horiz-adv-x="557" 
d="M495 0h-80l-22 105q-22 -54 -67.5 -85t-104.5 -31q-82 0 -124 45.5t-42 147.5v329h116v-313q0 -59 23.5 -86t72.5 -27q52 0 82 30t30 90v306h116v-511zM222 570l77 156h131l-107 -156h-101z" />
    <glyph glyph-name="ucircumflex" unicode="&#xfb;" horiz-adv-x="557" 
d="M495 0h-80l-22 105q-22 -54 -67.5 -85t-104.5 -31q-82 0 -124 45.5t-42 147.5v329h116v-313q0 -59 23.5 -86t72.5 -27q52 0 82 30t30 90v306h116v-511zM274 662l-72 -92h-89l103 156h121l102 -156h-89z" />
    <glyph glyph-name="udieresis" unicode="&#xfc;" horiz-adv-x="557" 
d="M133.5 605q-17.5 15 -17.5 44t17.5 44.5t49.5 15.5t50 -15.5t18 -44.5t-17.5 -44t-50.5 -15q-32 0 -49.5 15zM319.5 605q-17.5 15 -17.5 44t17.5 44.5t49.5 15.5t50 -15.5t18 -44.5t-17.5 -44t-50.5 -15q-32 0 -49.5 15zM495 0h-80l-22 105q-22 -54 -67.5 -85t-104.5 -31
q-82 0 -124 45.5t-42 147.5v329h116v-313q0 -59 23.5 -86t72.5 -27q52 0 82 30t30 90v306h116v-511z" />
    <glyph glyph-name="yacute" unicode="&#xfd;" horiz-adv-x="546" 
d="M340 -6q-40 -113 -93.5 -159t-138.5 -46q-83 0 -152 36l53 96q45 -47 107 -47q45 0 71.5 22.5t48.5 84.5l7 19h-34l-189 511h127l134 -401l140 401h106zM219 570l77 156h131l-107 -156h-101z" />
    <glyph glyph-name="thorn" unicode="&#xfe;" horiz-adv-x="576" 
d="M488.5 457.5q45.5 -64.5 45.5 -200.5q0 -137 -54.5 -202.5t-153.5 -65.5q-41 0 -75.5 14t-60.5 38v-241h-116v948h116v-333q20 52 60.5 79.5t97.5 27.5q95 0 140.5 -64.5zM388 116.5q30 43.5 30 138.5q0 92 -27.5 133t-84.5 41q-54 0 -85 -35t-31 -96v-191
q49 -34 105 -34q63 0 93 43.5z" />
    <glyph glyph-name="ydieresis" unicode="&#xff;" horiz-adv-x="546" 
d="M130.5 605q-17.5 15 -17.5 44t17.5 44.5t49.5 15.5t50 -15.5t18 -44.5t-17.5 -44t-50.5 -15q-32 0 -49.5 15zM316.5 605q-17.5 15 -17.5 44t17.5 44.5t49.5 15.5t50 -15.5t18 -44.5t-17.5 -44t-50.5 -15q-32 0 -49.5 15zM340 -6q-40 -113 -93.5 -159t-138.5 -46
q-83 0 -152 36l53 96q45 -47 107 -47q45 0 71.5 22.5t48.5 84.5l7 19h-34l-189 511h127l134 -401l140 401h106z" />
    <glyph glyph-name="Amacron" unicode="&#x100;" horiz-adv-x="602" 
d="M163 151l-43 -151h-104l218 700h131l221 -700h-129l-43 151h-251zM288 593l-99 -350h199zM466 763h-331v84h331v-84z" />
    <glyph glyph-name="amacron" unicode="&#x101;" horiz-adv-x="535" 
d="M449 -4q-40 0 -63.5 17.5t-32.5 55.5q-24 -38 -64 -59t-94 -21q-74 0 -112.5 36.5t-38.5 99.5q0 50 26 85t93 55.5t185 21.5v56q0 64 -19 90.5t-66 26.5q-89 0 -89 -87q0 -11 2 -25l-103 -6q-5 20 -5 44q0 61 47.5 98.5t148.5 37.5q105 0 152 -45t47 -145v-233
q0 -39 28 -39q11 0 19 5l11 -48q-27 -21 -72 -21zM317 97q31 34 31 99v46q-106 -2 -147 -30.5t-41 -75.5q0 -34 20 -53.5t56 -19.5q50 0 81 34zM416 600h-306v84h306v-84z" />
    <glyph glyph-name="Abreve" unicode="&#x102;" horiz-adv-x="602" 
d="M163 151l-43 -151h-104l218 700h131l221 -700h-129l-43 151h-251zM288 593l-99 -350h199zM412.5 775q-36.5 -34 -111.5 -34q-149 0 -149 137h65q0 -30 21.5 -47t62.5 -17t63 17t22 47h63q0 -69 -36.5 -103z" />
    <glyph glyph-name="abreve" unicode="&#x103;" horiz-adv-x="535" 
d="M449 -4q-40 0 -63.5 17.5t-32.5 55.5q-24 -38 -64 -59t-94 -21q-74 0 -112.5 36.5t-38.5 99.5q0 50 26 85t93 55.5t185 21.5v56q0 64 -19 90.5t-66 26.5q-89 0 -89 -87q0 -11 2 -25l-103 -6q-5 20 -5 44q0 61 47.5 98.5t148.5 37.5q105 0 152 -45t47 -145v-233
q0 -39 28 -39q11 0 19 5l11 -48q-27 -21 -72 -21zM317 97q31 34 31 99v46q-106 -2 -147 -30.5t-41 -75.5q0 -34 20 -53.5t56 -19.5q50 0 81 34zM376.5 608q-36.5 -35 -113.5 -35q-76 0 -112.5 35.5t-36.5 110.5h62q0 -72 87 -72q89 0 89 72h61q0 -76 -36.5 -111z" />
    <glyph glyph-name="Aogonek" unicode="&#x104;" horiz-adv-x="602" 
d="M560 -134l7 -57q-14 -7 -25.5 -10.5t-30.5 -3.5q-37 0 -60 20.5t-23 56.5q0 35 22.5 68.5t58.5 59.5h-52l-43 151h-251l-43 -151h-104l218 700h131l221 -700h-28q-26 -32 -39 -56.5t-13 -49.5q0 -17 7.5 -26t19.5 -9q15 0 27 7zM288 593l-99 -350h199z" />
    <glyph glyph-name="aogonek" unicode="&#x105;" horiz-adv-x="535" 
d="M504.5 -184.5q-11.5 -3.5 -30.5 -3.5q-37 0 -60 20.5t-23 56.5q0 54 56 107q-39 1 -62 18t-32 55q-24 -38 -64 -59t-94 -21q-74 0 -112.5 36.5t-38.5 99.5q0 50 26 85t93 55.5t185 21.5v56q0 64 -19 90.5t-66 26.5q-89 0 -89 -87q0 -11 2 -25l-103 -6q-5 20 -5 44
q0 61 47.5 98.5t148.5 37.5q105 0 152 -45t47 -145v-233q0 -39 28 -39q11 0 19 5l11 -48q-26 -32 -39 -56.5t-13 -49.5q0 -17 7.5 -26t19.5 -9q15 0 27 7l7 -57q-14 -7 -25.5 -10.5zM317 97q31 34 31 99v46q-106 -2 -147 -30.5t-41 -75.5q0 -34 20 -53.5t56 -19.5
q50 0 81 34z" />
    <glyph glyph-name="Cacute" unicode="&#x106;" horiz-adv-x="604" 
d="M481.5 662.5q57.5 -48.5 57.5 -132.5q0 -45 -12 -75h-103q7 25 7 63q0 44 -27 70.5t-74 26.5q-79 0 -119 -68t-40 -201q0 -124 44 -185.5t134 -61.5q57 0 95.5 17.5t69.5 46.5l45 -95q-92 -79 -225 -79q-145 0 -217 90.5t-72 267.5q0 175 74.5 269.5t214.5 94.5
q90 0 147.5 -48.5zM273 750l86 117h147l-115 -117h-118z" />
    <glyph glyph-name="cacute" unicode="&#x107;" horiz-adv-x="500" 
d="M415 479.5q43 -42.5 43 -103.5q0 -37 -9 -61l-99 6q6 20 6 51q0 70 -75 71q-59 -1 -91 -47t-32 -138q0 -89 37 -135t105 -46q43 0 76 16t51 40l45 -71q-30 -32 -78 -52.5t-113 -20.5q-111 0 -175 65.5t-64 194.5q0 133 64.5 203t176.5 70q89 0 132 -42.5zM232 570l77 156
h131l-107 -156h-101z" />
    <glyph glyph-name="Ccircumflex" unicode="&#x108;" horiz-adv-x="604" 
d="M481.5 662.5q57.5 -48.5 57.5 -132.5q0 -45 -12 -75h-103q7 25 7 63q0 44 -27 70.5t-74 26.5q-79 0 -119 -68t-40 -201q0 -124 44 -185.5t134 -61.5q57 0 95.5 17.5t69.5 46.5l45 -95q-92 -79 -225 -79q-145 0 -217 90.5t-72 267.5q0 175 74.5 269.5t214.5 94.5
q90 0 147.5 -48.5zM326 812l-70 -65h-102l100 118h148l99 -118h-101z" />
    <glyph glyph-name="ccircumflex" unicode="&#x109;" horiz-adv-x="500" 
d="M415 479.5q43 -42.5 43 -103.5q0 -37 -9 -61l-99 6q6 20 6 51q0 70 -75 71q-59 -1 -91 -47t-32 -138q0 -89 37 -135t105 -46q43 0 76 16t51 40l45 -71q-30 -32 -78 -52.5t-113 -20.5q-111 0 -175 65.5t-64 194.5q0 133 64.5 203t176.5 70q89 0 132 -42.5zM285 662
l-72 -92h-89l103 156h121l102 -156h-89z" />
    <glyph glyph-name="Cdotaccent" unicode="&#x10a;" horiz-adv-x="604" 
d="M481.5 662.5q57.5 -48.5 57.5 -132.5q0 -45 -12 -75h-103q7 25 7 63q0 44 -27 70.5t-74 26.5q-79 0 -119 -68t-40 -201q0 -124 44 -185.5t134 -61.5q57 0 95.5 17.5t69.5 46.5l45 -95q-92 -79 -225 -79q-145 0 -217 90.5t-72 267.5q0 175 74.5 269.5t214.5 94.5
q90 0 147.5 -48.5zM381.5 852q19.5 -15 19.5 -41q0 -25 -19.5 -39.5t-53.5 -14.5q-33 0 -52 14.5t-19 39.5q0 26 18.5 41t52.5 15t53.5 -15z" />
    <glyph glyph-name="cdotaccent" unicode="&#x10b;" horiz-adv-x="500" 
d="M415 479.5q43 -42.5 43 -103.5q0 -37 -9 -61l-99 6q6 20 6 51q0 70 -75 71q-59 -1 -91 -47t-32 -138q0 -89 37 -135t105 -46q43 0 76 16t51 40l45 -71q-30 -32 -78 -52.5t-113 -20.5q-111 0 -175 65.5t-64 194.5q0 133 64.5 203t176.5 70q89 0 132 -42.5zM338.5 698
q18.5 -16 18.5 -46t-18.5 -45.5t-53.5 -15.5q-34 0 -52.5 15.5t-18.5 45.5t18.5 46t52.5 16q35 0 53.5 -16z" />
    <glyph glyph-name="Ccaron" unicode="&#x10c;" horiz-adv-x="604" 
d="M481.5 662.5q57.5 -48.5 57.5 -132.5q0 -45 -12 -75h-103q7 25 7 63q0 44 -27 70.5t-74 26.5q-79 0 -119 -68t-40 -201q0 -124 44 -185.5t134 -61.5q57 0 95.5 17.5t69.5 46.5l45 -95q-92 -79 -225 -79q-145 0 -217 90.5t-72 267.5q0 175 74.5 269.5t214.5 94.5
q90 0 147.5 -48.5zM402 753h-148l-99 118h101l74 -65l71 65h101z" />
    <glyph glyph-name="ccaron" unicode="&#x10d;" horiz-adv-x="500" 
d="M415 479.5q43 -42.5 43 -103.5q0 -37 -9 -61l-99 6q6 20 6 51q0 70 -75 71q-59 -1 -91 -47t-32 -138q0 -89 37 -135t105 -46q43 0 76 16t51 40l45 -71q-30 -32 -78 -52.5t-113 -20.5q-111 0 -175 65.5t-64 194.5q0 133 64.5 203t176.5 70q89 0 132 -42.5zM346 570h-121
l-102 156h89l76 -92l72 92h89z" />
    <glyph glyph-name="Dcaron" unicode="&#x10e;" horiz-adv-x="643" 
d="M598 350q0 -350 -310 -350h-204v700h196q318 0 318 -350zM428 157.5q47 60.5 47 192.5t-46.5 192.5t-147.5 60.5h-76v-506h74q102 0 149 60.5zM376 753h-148l-99 118h101l74 -65l71 65h101z" />
    <glyph glyph-name="dcaron" unicode="&#x10f;" horiz-adv-x="570" 
d="M503 0h-80l-24 96q-21 -52 -63 -79.5t-101 -27.5q-87 0 -140 67t-53 192q0 133 58 203.5t158 70.5q77 0 129 -35v261h116v-748zM387 192v226q-42 20 -89 20q-140 0 -140 -179q0 -86 32 -131.5t87 -45.5q101 0 110 110zM656.5 739q18.5 -23 18.5 -63q0 -46 -30.5 -71
t-86.5 -24l-2 32q43 1 61.5 14.5t18.5 42.5v5q-13 -13 -38 -13q-24 0 -38.5 13.5t-14.5 37.5q0 23 16 36t44 13q33 0 51.5 -23z" />
    <glyph glyph-name="Dcroat" unicode="&#x110;" horiz-adv-x="668" 
d="M622 350q0 -350 -310 -350h-205v302h-87v105h87v293h197q318 0 318 -350zM452 157.5q47 60.5 47 192.5t-46.5 192.5t-147.5 60.5h-76v-196h122v-105h-122v-205h74q102 0 149 60.5z" />
    <glyph glyph-name="dcroat" unicode="&#x111;" horiz-adv-x="570" 
d="M503 592v-592h-80l-24 96q-21 -52 -63 -79.5t-101 -27.5q-87 0 -140 67t-53 192q0 133 58 203.5t158 70.5q77 0 129 -35v105h-151v75h151v81h116v-81h55v-75h-55zM387 192v226q-42 20 -89 20q-140 0 -140 -179q0 -86 32 -131.5t87 -45.5q101 0 110 110z" />
    <glyph glyph-name="Emacron" unicode="&#x112;" horiz-adv-x="570" 
d="M524 0h-440v700h419v-97h-298v-203h268v-91h-268v-212h319v-97zM466 763h-331v84h331v-84z" />
    <glyph glyph-name="emacron" unicode="&#x113;" horiz-adv-x="515" 
d="M279 -11q-113 0 -175 66.5t-62 200.5q0 128 64 197t170 69q84 0 135 -50t51 -150q0 -56 -13 -89h-291q4 -78 41 -118.5t99 -40.5q44 0 73 14t55 42l39 -79q-75 -62 -186 -62zM196.5 416q-29.5 -37 -36.5 -117h198q4 24 4 43q0 55 -23.5 83t-67.5 29q-45 -1 -74.5 -38z
M428 600h-306v84h306v-84z" />
    <glyph glyph-name="Ebreve" unicode="&#x114;" horiz-adv-x="570" 
d="M524 0h-440v700h419v-97h-298v-203h268v-91h-268v-212h319v-97zM413.5 775q-36.5 -34 -111.5 -34q-149 0 -149 137h65q0 -30 21.5 -47t62.5 -17t63 17t22 47h63q0 -69 -36.5 -103z" />
    <glyph glyph-name="ebreve" unicode="&#x115;" horiz-adv-x="515" 
d="M279 -11q-113 0 -175 66.5t-62 200.5q0 128 64 197t170 69q84 0 135 -50t51 -150q0 -56 -13 -89h-291q4 -78 41 -118.5t99 -40.5q44 0 73 14t55 42l39 -79q-75 -62 -186 -62zM196.5 416q-29.5 -37 -36.5 -117h198q4 24 4 43q0 55 -23.5 83t-67.5 29q-45 -1 -74.5 -38z
M388.5 608q-36.5 -35 -113.5 -35q-76 0 -112.5 35.5t-36.5 110.5h62q0 -72 87 -72q89 0 89 72h61q0 -76 -36.5 -111z" />
    <glyph glyph-name="Edotaccent" unicode="&#x116;" horiz-adv-x="570" 
d="M524 0h-440v700h419v-97h-298v-203h268v-91h-268v-212h319v-97zM353.5 852q19.5 -15 19.5 -41q0 -25 -19.5 -39.5t-53.5 -14.5q-33 0 -52 14.5t-19 39.5q0 26 18.5 41t52.5 15t53.5 -15z" />
    <glyph glyph-name="edotaccent" unicode="&#x117;" horiz-adv-x="515" 
d="M279 -11q-113 0 -175 66.5t-62 200.5q0 128 64 197t170 69q84 0 135 -50t51 -150q0 -56 -13 -89h-291q4 -78 41 -118.5t99 -40.5q44 0 73 14t55 42l39 -79q-75 -62 -186 -62zM196.5 416q-29.5 -37 -36.5 -117h198q4 24 4 43q0 55 -23.5 83t-67.5 29q-45 -1 -74.5 -38z
M327.5 698q18.5 -16 18.5 -46t-18.5 -45.5t-53.5 -15.5q-34 0 -52.5 15.5t-18.5 45.5t18.5 46t52.5 16q35 0 53.5 -16z" />
    <glyph glyph-name="Eogonek" unicode="&#x118;" horiz-adv-x="570" 
d="M504.5 -201.5q-11.5 -3.5 -30.5 -3.5q-37 0 -60 20.5t-23 56.5q0 35 22.5 68.5t58.5 59.5h-388v700h419v-97h-298v-203h268v-91h-268v-212h319v-97h-3q-26 -32 -39 -56.5t-13 -49.5q0 -17 7.5 -26t19.5 -9q15 0 27 7l7 -57q-14 -7 -25.5 -10.5z" />
    <glyph glyph-name="eogonek" unicode="&#x119;" horiz-adv-x="515" 
d="M436 -103l7 -57q-14 -7 -25.5 -10.5t-30.5 -3.5q-37 0 -60 20.5t-23 56.5q0 46 41 92q-30 -6 -66 -6q-113 0 -175 66.5t-62 200.5q0 128 64 197t170 69q84 0 135 -50t51 -150q0 -56 -13 -89h-291q4 -78 41 -118.5t99 -40.5q44 0 73 14t55 42l39 -79q-19 -15 -34 -24
q-25 -30 -37 -54t-12 -48q0 -17 7.5 -26t19.5 -9q15 0 27 7zM196.5 416q-29.5 -37 -36.5 -117h198q4 24 4 43q0 55 -23.5 83t-67.5 29q-45 -1 -74.5 -38z" />
    <glyph glyph-name="Ecaron" unicode="&#x11a;" horiz-adv-x="570" 
d="M524 0h-440v700h419v-97h-298v-203h268v-91h-268v-212h319v-97zM373 753h-148l-99 118h101l74 -65l71 65h101z" />
    <glyph glyph-name="ecaron" unicode="&#x11b;" horiz-adv-x="515" 
d="M279 -11q-113 0 -175 66.5t-62 200.5q0 128 64 197t170 69q84 0 135 -50t51 -150q0 -56 -13 -89h-291q4 -78 41 -118.5t99 -40.5q44 0 73 14t55 42l39 -79q-75 -62 -186 -62zM196.5 416q-29.5 -37 -36.5 -117h198q4 24 4 43q0 55 -23.5 83t-67.5 29q-45 -1 -74.5 -38z
M334 570h-121l-102 156h89l76 -92l72 92h89z" />
    <glyph glyph-name="Gcircumflex" unicode="&#x11c;" horiz-adv-x="637" 
d="M577 0h-61l-24 108q-54 -119 -190 -119q-122 0 -189.5 90.5t-67.5 259.5q0 180 77.5 276t221.5 96q98 0 158.5 -47.5t60.5 -130.5q0 -36 -11 -60h-106q7 18 7 48q0 42 -28.5 68t-81.5 26q-90 0 -132.5 -68t-42.5 -208q0 -130 39 -193t118 -63q135 0 142 192h-150v90h260
v-365zM337 812l-70 -65h-102l100 118h148l99 -118h-101z" />
    <glyph glyph-name="gcircumflex" unicode="&#x11d;" horiz-adv-x="564" 
d="M501 59q0 -133 -65 -201.5t-190 -68.5q-63 0 -113.5 11.5t-95.5 33.5l55 106q61 -63 148 -63q75 0 110.5 40.5t35.5 130.5v38q-23 -45 -61.5 -69t-89.5 -24q-90 0 -142 65.5t-52 190.5q0 131 57.5 202t152.5 71q51 0 89.5 -16t68.5 -47l25 52h67v-452zM357.5 116
q28.5 36 28.5 105v181q-42 36 -103 36t-94 -44t-33 -135q0 -87 31.5 -133t88.5 -46q53 0 81.5 36zM286 662l-72 -92h-89l103 156h121l102 -156h-89z" />
    <glyph glyph-name="Gbreve" unicode="&#x11e;" horiz-adv-x="637" 
d="M577 0h-61l-24 108q-54 -119 -190 -119q-122 0 -189.5 90.5t-67.5 259.5q0 180 77.5 276t221.5 96q98 0 158.5 -47.5t60.5 -130.5q0 -36 -11 -60h-106q7 18 7 48q0 42 -28.5 68t-81.5 26q-90 0 -132.5 -68t-42.5 -208q0 -130 39 -193t118 -63q135 0 142 192h-150v90h260
v-365zM453.5 775q-36.5 -34 -111.5 -34q-149 0 -149 137h65q0 -30 21.5 -47t62.5 -17t63 17t22 47h63q0 -69 -36.5 -103z" />
    <glyph glyph-name="gbreve" unicode="&#x11f;" horiz-adv-x="564" 
d="M501 59q0 -133 -65 -201.5t-190 -68.5q-63 0 -113.5 11.5t-95.5 33.5l55 106q61 -63 148 -63q75 0 110.5 40.5t35.5 130.5v38q-23 -45 -61.5 -69t-89.5 -24q-90 0 -142 65.5t-52 190.5q0 131 57.5 202t152.5 71q51 0 89.5 -16t68.5 -47l25 52h67v-452zM357.5 116
q28.5 36 28.5 105v181q-42 36 -103 36t-94 -44t-33 -135q0 -87 31.5 -133t88.5 -46q53 0 81.5 36zM401.5 608q-36.5 -35 -113.5 -35q-76 0 -112.5 35.5t-36.5 110.5h62q0 -72 87 -72q89 0 89 72h61q0 -76 -36.5 -111z" />
    <glyph glyph-name="Gdotaccent" unicode="&#x120;" horiz-adv-x="637" 
d="M577 0h-61l-24 108q-54 -119 -190 -119q-122 0 -189.5 90.5t-67.5 259.5q0 180 77.5 276t221.5 96q98 0 158.5 -47.5t60.5 -130.5q0 -36 -11 -60h-106q7 18 7 48q0 42 -28.5 68t-81.5 26q-90 0 -132.5 -68t-42.5 -208q0 -130 39 -193t118 -63q135 0 142 192h-150v90h260
v-365zM393.5 852q19.5 -15 19.5 -41q0 -25 -19.5 -39.5t-53.5 -14.5q-33 0 -52 14.5t-19 39.5q0 26 18.5 41t52.5 15t53.5 -15z" />
    <glyph glyph-name="gdotaccent" unicode="&#x121;" horiz-adv-x="564" 
d="M501 59q0 -133 -65 -201.5t-190 -68.5q-63 0 -113.5 11.5t-95.5 33.5l55 106q61 -63 148 -63q75 0 110.5 40.5t35.5 130.5v38q-23 -45 -61.5 -69t-89.5 -24q-90 0 -142 65.5t-52 190.5q0 131 57.5 202t152.5 71q51 0 89.5 -16t68.5 -47l25 52h67v-452zM357.5 116
q28.5 36 28.5 105v181q-42 36 -103 36t-94 -44t-33 -135q0 -87 31.5 -133t88.5 -46q53 0 81.5 36zM340.5 698q18.5 -16 18.5 -46t-18.5 -45.5t-53.5 -15.5q-34 0 -52.5 15.5t-18.5 45.5t18.5 46t52.5 16q35 0 53.5 -16z" />
    <glyph glyph-name="Gcommaaccent" unicode="&#x122;" horiz-adv-x="637" 
d="M577 0h-61l-24 108q-54 -119 -190 -119q-122 0 -189.5 90.5t-67.5 259.5q0 180 77.5 276t221.5 96q98 0 158.5 -47.5t60.5 -130.5q0 -36 -11 -60h-106q7 18 7 48q0 42 -28.5 68t-81.5 26q-90 0 -132.5 -68t-42.5 -208q0 -130 39 -193t118 -63q135 0 142 192h-150v90h260
v-365zM384 -68.5q21 -20.5 21 -55.5q0 -42 -31.5 -65t-96.5 -24l-4 28q51 1 72.5 15.5t21.5 41.5q0 9 -4 16q-9 -25 -46 -25q-27 0 -42 12t-15 33t16 32.5t47 11.5q40 0 61 -20.5z" />
    <glyph glyph-name="gcommaaccent" unicode="&#x123;" horiz-adv-x="564" 
d="M501 59q0 -133 -65 -201.5t-190 -68.5q-63 0 -113.5 11.5t-95.5 33.5l55 106q61 -63 148 -63q75 0 110.5 40.5t35.5 130.5v38q-23 -45 -61.5 -69t-89.5 -24q-90 0 -142 65.5t-52 190.5q0 131 57.5 202t152.5 71q51 0 89.5 -16t68.5 -47l25 52h67v-452zM357.5 116
q28.5 36 28.5 105v181q-42 36 -103 36t-94 -44t-33 -135q0 -87 31.5 -133t88.5 -46q53 0 81.5 36zM231 579.5q-21 20.5 -21 55.5q0 42 31.5 65t96.5 24l4 -28q-51 -1 -72.5 -15.5t-21.5 -41.5q0 -9 4 -16q9 25 46 25q27 0 42 -12t15 -33t-16 -32.5t-47 -11.5q-40 0 -61 20.5
z" />
    <glyph glyph-name="Hcircumflex" unicode="&#x124;" horiz-adv-x="673" 
d="M589 0h-121v304h-263v-304h-121v700h121v-292h263v292h121v-700zM333 812l-70 -65h-102l100 118h148l99 -118h-101z" />
    <glyph glyph-name="hcircumflex" unicode="&#x125;" horiz-adv-x="578" 
d="M481.5 471q39.5 -51 39.5 -161v-310h-116v301q0 63 -24 94t-77 31q-54 0 -84 -33.5t-30 -96.5v-296h-116v748h116v-327q23 50 66 75.5t101 25.5q85 0 124.5 -51zM129 862l-72 -92h-89l103 156h121l102 -156h-89z" />
    <glyph glyph-name="Hbar" unicode="&#x126;" horiz-adv-x="686" 
d="M600 505v-505h-121v284h-262v-284h-121v505h-72v85h72v110h121v-110h262v110h121v-110h72v-85h-72zM217 505v-117h262v117h-262z" />
    <glyph glyph-name="hbar" unicode="&#x127;" horiz-adv-x="575" 
d="M481.5 471q39.5 -51 39.5 -161v-310h-116v301q0 63 -24 94t-77 31q-54 0 -84 -33.5t-30 -96.5v-296h-116v596h-56v76h56v76h116v-76h150v-76h-150v-175q23 50 66 75.5t101 25.5q85 0 124.5 -51z" />
    <glyph glyph-name="Itilde" unicode="&#x128;" horiz-adv-x="289" 
d="M84 0v700h121v-700h-121zM221 745q-24 0 -45.5 7t-53.5 21q-42 20 -62 20q-21 0 -32.5 -12t-11.5 -34h-54q0 61 26 92.5t76 31.5q25 0 48.5 -7.5t54.5 -20.5q18 -7 35 -13t29 -6q21 0 32.5 11.5t11.5 33.5h52q0 -124 -106 -124z" />
    <glyph glyph-name="itilde" unicode="&#x129;" horiz-adv-x="287" 
d="M83 0v511h121v-511h-121zM203 581q-22 0 -42 8t-44 22q-35 20 -51 20q-19 0 -29 -12.5t-10 -36.5h-53q0 62 24 93.5t71 31.5q23 0 44 -8t46 -22q33 -20 50 -20q40 0 40 49h53q0 -125 -99 -125z" />
    <glyph glyph-name="Imacron" unicode="&#x12a;" horiz-adv-x="289" 
d="M84 0v700h121v-700h-121zM309 763h-331v84h331v-84z" />
    <glyph glyph-name="imacron" unicode="&#x12b;" horiz-adv-x="287" 
d="M83 0v511h121v-511h-121zM296 600h-306v84h306v-84z" />
    <glyph glyph-name="Ibreve" unicode="&#x12c;" horiz-adv-x="289" 
d="M84 0v700h121v-700h-121zM256.5 775q-36.5 -34 -111.5 -34q-149 0 -149 137h65q0 -30 21.5 -47t62.5 -17t63 17t22 47h63q0 -69 -36.5 -103z" />
    <glyph glyph-name="ibreve" unicode="&#x12d;" horiz-adv-x="287" 
d="M83 0v511h121v-511h-121zM256.5 608q-36.5 -35 -113.5 -35q-76 0 -112.5 35.5t-36.5 110.5h62q0 -72 87 -72q89 0 89 72h61q0 -76 -36.5 -111z" />
    <glyph glyph-name="Iogonek" unicode="&#x12e;" horiz-adv-x="289" 
d="M148 -56.5q-13 -24.5 -13 -49.5q0 -17 7.5 -26t19.5 -9q15 0 27 7l7 -57q-14 -7 -25.5 -10.5t-30.5 -3.5q-37 0 -60 20.5t-23 56.5q0 35 22.5 68.5t58.5 59.5h-54v700h121v-700h-18q-26 -32 -39 -56.5z" />
    <glyph glyph-name="iogonek" unicode="&#x12f;" horiz-adv-x="287" 
d="M89.5 606.5q-18.5 15.5 -18.5 45.5t18.5 46t52.5 16q35 0 53.5 -16t18.5 -46t-18.5 -45.5t-53.5 -15.5q-34 0 -52.5 15.5zM204 511v-511h-12q-26 -32 -39 -56.5t-13 -49.5q0 -17 7.5 -26t19.5 -9q15 0 27 7l7 -57q-14 -7 -25.5 -10.5t-30.5 -3.5q-37 0 -60 20.5t-23 56.5
q0 35 22.5 68.5t58.5 59.5h-60v511h121z" />
    <glyph glyph-name="Idotaccent" unicode="&#x130;" horiz-adv-x="289" 
d="M84 0v700h121v-700h-121zM196.5 852q19.5 -15 19.5 -41q0 -25 -19.5 -39.5t-53.5 -14.5q-33 0 -52 14.5t-19 39.5q0 26 18.5 41t52.5 15t53.5 -15z" />
    <glyph glyph-name="dotlessi" unicode="&#x131;" horiz-adv-x="287" 
d="M83 0v511h121v-511h-121z" />
    <glyph glyph-name="IJ" unicode="&#x132;" horiz-adv-x="645" 
d="M84 0v700h121v-700h-121zM409 -11q-62 0 -120 23l33 101q20 -14 36.5 -20.5t36.5 -6.5q36 0 52 22t16 78v514h121v-529q0 -182 -175 -182z" />
    <glyph glyph-name="ij" unicode="&#x133;" horiz-adv-x="559" 
d="M195.5 698q18.5 -16 18.5 -46t-18.5 -45.5t-53.5 -15.5q-34 0 -52.5 15.5t-18.5 45.5t18.5 46t52.5 16q35 0 53.5 -16zM470.5 698q18.5 -16 18.5 -46t-18.5 -45.5t-53.5 -15.5q-34 0 -52.5 15.5t-18.5 45.5t18.5 46t52.5 16q35 0 53.5 -16zM83 0v511h121v-511h-121z
M342.5 -112.5q17.5 19.5 17.5 61.5v562h116v-537q0 -97 -46.5 -141t-144.5 -44q-23 0 -48.5 4t-45.5 11l29 86q31 -22 67 -22q38 0 55.5 19.5z" />
    <glyph glyph-name="Jcircumflex" unicode="&#x134;" horiz-adv-x="356" 
d="M120 -11q-62 0 -120 23l33 101q20 -14 36.5 -20.5t36.5 -6.5q36 0 52 22t16 78v514h121v-529q0 -182 -175 -182zM236 812l-70 -65h-102l100 118h148l99 -118h-101z" />
    <glyph glyph-name="jcircumflex" unicode="&#x135;" horiz-adv-x="281" 
d="M64.5 -112.5q17.5 19.5 17.5 61.5v562h116v-537q0 -97 -46.5 -141t-144.5 -44q-23 0 -48.5 4t-45.5 11l29 86q31 -22 67 -22q38 0 55.5 19.5zM138 662l-72 -92h-89l103 156h121l102 -156h-89z" />
    <glyph glyph-name="Kcommaaccent" unicode="&#x136;" horiz-adv-x="644" 
d="M205 191v-191h-121v700h121v-356l261 356h133l-230 -297l246 -403h-146l-179 301zM379 -68.5q21 -20.5 21 -55.5q0 -42 -31.5 -65t-96.5 -24l-4 28q51 1 72.5 15.5t21.5 41.5q0 9 -4 16q-9 -25 -46 -25q-27 0 -42 12t-15 33t16 32.5t47 11.5q40 0 61 -20.5z" />
    <glyph glyph-name="kcommaaccent" unicode="&#x137;" horiz-adv-x="566" 
d="M190 138v-138h-116v748h116v-486l201 249h126l-182 -208l199 -303h-132l-141 219zM340 -68.5q21 -20.5 21 -55.5q0 -42 -31.5 -65t-96.5 -24l-4 28q51 1 72.5 15.5t21.5 41.5q0 9 -4 16q-9 -25 -46 -25q-27 0 -42 12t-15 33t16 32.5t47 11.5q40 0 61 -20.5z" />
    <glyph glyph-name="kgreenlandic" unicode="&#x138;" horiz-adv-x="558" 
d="M182 138v-138h-116v511h116v-256l209 256h118l-180 -205l197 -306h-130l-142 221z" />
    <glyph glyph-name="Lacute" unicode="&#x139;" horiz-adv-x="494" 
d="M475 0h-391v700h121v-596h270v-104zM93 750l86 117h147l-115 -117h-118z" />
    <glyph glyph-name="lacute" unicode="&#x13a;" horiz-adv-x="319" 
d="M236 60q15 0 25 4.5t23 15.5l23 -61q-28 -17 -51 -23.5t-59 -6.5q-62 0 -93 33.5t-31 103.5v622h115v-616q0 -72 48 -72zM84 792l77 156h131l-107 -156h-101z" />
    <glyph glyph-name="Lcommaaccent" unicode="&#x13b;" horiz-adv-x="494" 
d="M475 0h-391v700h121v-596h270v-104zM345 -68.5q21 -20.5 21 -55.5q0 -42 -31.5 -65t-96.5 -24l-4 28q51 1 72.5 15.5t21.5 41.5q0 9 -4 16q-9 -25 -46 -25q-27 0 -42 12t-15 33t16 32.5t47 11.5q40 0 61 -20.5z" />
    <glyph glyph-name="lcommaaccent" unicode="&#x13c;" horiz-adv-x="319" 
d="M236 60q15 0 25 4.5t23 15.5l23 -61q-28 -17 -51 -23.5t-59 -6.5q-62 0 -93 33.5t-31 103.5v622h115v-616q0 -72 48 -72zM242 -68.5q21 -20.5 21 -55.5q0 -42 -31.5 -65t-96.5 -24l-4 28q51 1 72.5 15.5t21.5 41.5q0 9 -4 16q-9 -25 -46 -25q-27 0 -42 12t-15 33t16 32.5
t47 11.5q40 0 61 -20.5z" />
    <glyph glyph-name="Lcaron" unicode="&#x13d;" horiz-adv-x="494" 
d="M475 0h-391v700h121v-596h270v-104zM406.5 686q18.5 -23 18.5 -63q0 -46 -30.5 -71t-86.5 -24l-2 32q43 1 61.5 14.5t18.5 42.5v5q-13 -13 -38 -13q-24 0 -38.5 13.5t-14.5 37.5q0 23 16 36t44 13q33 0 51.5 -23z" />
    <glyph glyph-name="lcaron" unicode="&#x13e;" horiz-adv-x="319" 
d="M236 60q15 0 25 4.5t23 15.5l23 -61q-28 -17 -51 -23.5t-59 -6.5q-62 0 -93 33.5t-31 103.5v622h115v-616q0 -72 48 -72zM347.5 739q18.5 -23 18.5 -63q0 -46 -30.5 -71t-86.5 -24l-2 32q43 1 61.5 14.5t18.5 42.5v5q-13 -13 -38 -13q-24 0 -38.5 13.5t-14.5 37.5
q0 23 16 36t44 13q33 0 51.5 -23z" />
    <glyph glyph-name="Ldot" unicode="&#x13f;" horiz-adv-x="494" 
d="M475 0h-391v700h121v-596h270v-104zM447.5 403q17.5 -18 17.5 -50t-17.5 -49.5t-49.5 -17.5t-49.5 17.5t-17.5 49.5t17.5 50t49.5 18t49.5 -18z" />
    <glyph glyph-name="ldot" unicode="&#x140;" horiz-adv-x="392" 
d="M236 60q15 0 25 4.5t23 15.5l23 -61q-28 -17 -51 -23.5t-59 -6.5q-62 0 -93 33.5t-31 103.5v622h115v-616q0 -72 48 -72zM365.5 380q17.5 -18 17.5 -50t-17.5 -49.5t-49.5 -17.5t-49.5 17.5t-17.5 49.5t17.5 50t49.5 18t49.5 -18z" />
    <glyph glyph-name="Lslash" unicode="&#x141;" horiz-adv-x="516" 
d="M486 0h-391v211l-72 -39v121l72 39v368h121v-312l138 76v-121l-138 -76v-163h270v-104z" />
    <glyph glyph-name="lslash" unicode="&#x142;" horiz-adv-x="336" 
d="M283 -4.5q-23 -6.5 -59 -6.5q-62 0 -93 33.5t-31 103.5v139l-84 -42v107l84 42v376h116v-329l105 52v-106l-105 -53v-180q0 -38 12 -55t35 -17q15 0 25 4t23 16l23 -61q-28 -17 -51 -23.5z" />
    <glyph glyph-name="Nacute" unicode="&#x143;" horiz-adv-x="663" 
d="M580 0h-102l-287 488v-488h-107v700h119l269 -466v466h108v-700zM276 750l86 117h147l-115 -117h-118z" />
    <glyph glyph-name="nacute" unicode="&#x144;" horiz-adv-x="570" 
d="M472 469.5q41 -52.5 41 -160.5v-309h-116v297q0 65 -23 97t-78 32q-54 0 -84 -34.5t-30 -99.5v-292h-116v511h85l18 -111q21 58 67 90t110 32q85 0 126 -52.5zM235 570l77 156h131l-107 -156h-101z" />
    <glyph glyph-name="Ncommaaccent" unicode="&#x145;" horiz-adv-x="663" 
d="M580 0h-102l-287 488v-488h-107v700h119l269 -466v466h108v-700zM390 -68.5q21 -20.5 21 -55.5q0 -42 -31.5 -65t-96.5 -24l-4 28q51 1 72.5 15.5t21.5 41.5q0 9 -4 16q-9 -25 -46 -25q-27 0 -42 12t-15 33t16 32.5t47 11.5q40 0 61 -20.5z" />
    <glyph glyph-name="ncommaaccent" unicode="&#x146;" horiz-adv-x="570" 
d="M472 469.5q41 -52.5 41 -160.5v-309h-116v297q0 65 -23 97t-78 32q-54 0 -84 -34.5t-30 -99.5v-292h-116v511h85l18 -111q21 58 67 90t110 32q85 0 126 -52.5zM341 -68.5q21 -20.5 21 -55.5q0 -42 -31.5 -65t-96.5 -24l-4 28q51 1 72.5 15.5t21.5 41.5q0 9 -4 16
q-9 -25 -46 -25q-27 0 -42 12t-15 33t16 32.5t47 11.5q40 0 61 -20.5z" />
    <glyph glyph-name="Ncaron" unicode="&#x147;" horiz-adv-x="663" 
d="M580 0h-102l-287 488v-488h-107v700h119l269 -466v466h108v-700zM405 753h-148l-99 118h101l74 -65l71 65h101z" />
    <glyph glyph-name="ncaron" unicode="&#x148;" horiz-adv-x="570" 
d="M472 469.5q41 -52.5 41 -160.5v-309h-116v297q0 65 -23 97t-78 32q-54 0 -84 -34.5t-30 -99.5v-292h-116v511h85l18 -111q21 58 67 90t110 32q85 0 126 -52.5zM349 570h-121l-102 156h89l76 -92l72 92h89z" />
    <glyph glyph-name="napostrophe" unicode="&#x149;" horiz-adv-x="636" 
d="M142 734.5q21 -20.5 21 -55.5q0 -42 -31.5 -65t-96.5 -24l-4 28q51 1 72.5 15.5t21.5 41.5q0 9 -4 16q-9 -25 -46 -25q-27 0 -42 12t-15 33t16 32.5t47 11.5q40 0 61 -20.5zM538 469.5q41 -52.5 41 -160.5v-309h-116v297q0 65 -23 97t-78 32q-54 0 -84 -34.5t-30 -99.5
v-292h-116v511h85l18 -111q21 58 67 90t110 32q85 0 126 -52.5z" />
    <glyph glyph-name="Eng" unicode="&#x14a;" horiz-adv-x="660" 
d="M578 -19q-1 -100 -43.5 -146t-131.5 -46q-63 0 -119 23l32 101q22 -14 38.5 -20.5t38.5 -6.5q43 0 61 22.5t18 80.5v21l-284 478v-488h-107v700h118l273 -468v468h106v-719z" />
    <glyph glyph-name="eng" unicode="&#x14b;" horiz-adv-x="567" 
d="M473.5 471q39.5 -51 39.5 -162v-335q0 -97 -47 -141t-145 -44q-50 0 -97 15l30 86q31 -22 70 -22q38 0 55.5 19.5t17.5 61.5v348q0 65 -23 97t-78 32q-54 0 -84 -34.5t-30 -99.5v-292h-116v511h85l18 -110q22 58 67.5 89.5t109.5 31.5q88 0 127.5 -51z" />
    <glyph glyph-name="Omacron" unicode="&#x14c;" horiz-adv-x="639" 
d="M523.5 619q70.5 -92 70.5 -268t-71 -269t-203 -93q-133 0 -204 93t-71 269t71 268t204 92t203.5 -92zM208 547.5q-37 -64.5 -37 -196.5q0 -133 37 -198t112 -65q74 0 111 65t37 198q0 261 -148 261q-75 0 -112 -64.5zM484 763h-331v84h331v-84z" />
    <glyph glyph-name="omacron" unicode="&#x14d;" horiz-adv-x="551" 
d="M449 454q59 -68 59 -198t-59 -198.5t-171 -68.5q-114 0 -175 68t-61 197q0 131 61 199.5t175 68.5q112 0 171 -68zM187.5 396q-29.5 -46 -29.5 -142q0 -95 29.5 -140t90.5 -45q59 0 87 45.5t28 141.5q0 95 -28 140.5t-87 45.5q-61 0 -90.5 -46zM428 600h-306v84h306v-84z
" />
    <glyph glyph-name="Obreve" unicode="&#x14e;" horiz-adv-x="639" 
d="M523.5 619q70.5 -92 70.5 -268t-71 -269t-203 -93q-133 0 -204 93t-71 269t71 268t204 92t203.5 -92zM208 547.5q-37 -64.5 -37 -196.5q0 -133 37 -198t112 -65q74 0 111 65t37 198q0 261 -148 261q-75 0 -112 -64.5zM431.5 775q-36.5 -34 -111.5 -34q-149 0 -149 137h65
q0 -30 21.5 -47t62.5 -17t63 17t22 47h63q0 -69 -36.5 -103z" />
    <glyph glyph-name="obreve" unicode="&#x14f;" horiz-adv-x="551" 
d="M449 454q59 -68 59 -198t-59 -198.5t-171 -68.5q-114 0 -175 68t-61 197q0 131 61 199.5t175 68.5q112 0 171 -68zM187.5 396q-29.5 -46 -29.5 -142q0 -95 29.5 -140t90.5 -45q59 0 87 45.5t28 141.5q0 95 -28 140.5t-87 45.5q-61 0 -90.5 -46zM388.5 608
q-36.5 -35 -113.5 -35q-76 0 -112.5 35.5t-36.5 110.5h62q0 -72 87 -72q89 0 89 72h61q0 -76 -36.5 -111z" />
    <glyph glyph-name="Ohungarumlaut" unicode="&#x150;" horiz-adv-x="639" 
d="M523.5 619q70.5 -92 70.5 -268t-71 -269t-203 -93q-133 0 -204 93t-71 269t71 268t204 92t203.5 -92zM208 547.5q-37 -64.5 -37 -196.5q0 -133 37 -198t112 -65q74 0 111 65t37 198q0 261 -148 261q-75 0 -112 -64.5zM186 750l59 125h128l-91 -125h-96zM338 750l103 125
h129l-129 -125h-103z" />
    <glyph glyph-name="ohungarumlaut" unicode="&#x151;" horiz-adv-x="551" 
d="M449 454q59 -68 59 -198t-59 -198.5t-171 -68.5q-114 0 -175 68t-61 197q0 131 61 199.5t175 68.5q112 0 171 -68zM187.5 396q-29.5 -46 -29.5 -142q0 -95 29.5 -140t90.5 -45q59 0 87 45.5t28 141.5q0 95 -28 140.5t-87 45.5q-61 0 -90.5 -46zM163 568l56 157h110
l-86 -157h-80zM309 568l101 157h109l-125 -157h-85z" />
    <glyph glyph-name="OE" unicode="&#x152;" horiz-adv-x="923" 
d="M877 0h-400q-70 -11 -124 -11q-147 0 -227.5 93t-80.5 269q0 175 80.5 267.5t227.5 92.5q54 0 124 -11h378v-97h-297v-203h268v-91h-268v-212h319v-97zM217.5 151.5q46.5 -63.5 138.5 -63.5q51 0 80 7v510q-29 7 -80 7q-92 0 -138.5 -63.5t-46.5 -197.5
q0 -136 46.5 -199.5z" />
    <glyph glyph-name="oe" unicode="&#x153;" horiz-adv-x="868" 
d="M633 -11q-128 0 -183 95q-52 -95 -176 -95q-111 0 -171.5 68.5t-60.5 196.5q0 131 60 199.5t172 68.5q126 0 178 -98q28 48 74 73t104 25q83 0 134.5 -51t51.5 -149q0 -22 -3.5 -45t-9.5 -37l-291 1q2 -82 39.5 -124t100.5 -42q45 0 75 14t58 42l34 -80q-77 -62 -186 -62
zM550 414q-30 -38 -36 -119l196 -1q5 16 5 46q0 112 -90 112q-45 0 -75 -38zM361 112.5q28 46.5 28 143.5t-28 143t-87 46q-61 0 -90.5 -46.5t-29.5 -144.5q0 -96 29.5 -142t90.5 -46q59 0 87 46.5z" />
    <glyph glyph-name="Racute" unicode="&#x154;" horiz-adv-x="632" 
d="M539.5 373q-33.5 -50 -99.5 -69l131 -304h-139l-108 283h-119v-283h-121v700h254q113 0 174 -51.5t61 -150.5q0 -75 -33.5 -125zM337 373q57 0 86.5 30t29.5 88q0 117 -124 117h-124v-235h132zM244 750l86 117h147l-115 -117h-118z" />
    <glyph glyph-name="racute" unicode="&#x155;" horiz-adv-x="446" 
d="M395.5 488.5q26.5 -33.5 26.5 -93.5q0 -53 -27 -101l-78 8q10 28 10 56q0 68 -60 68q-85 0 -85 -140v-286h-116v511h85l17 -109q18 58 56 89t91 31q54 0 80.5 -33.5zM181 570l77 156h131l-107 -156h-101z" />
    <glyph glyph-name="Rcommaaccent" unicode="&#x156;" horiz-adv-x="632" 
d="M539.5 373q-33.5 -50 -99.5 -69l131 -304h-139l-108 283h-119v-283h-121v700h254q113 0 174 -51.5t61 -150.5q0 -75 -33.5 -125zM337 373q57 0 86.5 30t29.5 88q0 117 -124 117h-124v-235h132zM374 -68.5q21 -20.5 21 -55.5q0 -42 -31.5 -65t-96.5 -24l-4 28
q51 1 72.5 15.5t21.5 41.5q0 9 -4 16q-9 -25 -46 -25q-27 0 -42 12t-15 33t16 32.5t47 11.5q40 0 61 -20.5z" />
    <glyph glyph-name="rcommaaccent" unicode="&#x157;" horiz-adv-x="446" 
d="M395.5 488.5q26.5 -33.5 26.5 -93.5q0 -53 -27 -101l-78 8q10 28 10 56q0 68 -60 68q-85 0 -85 -140v-286h-116v511h85l17 -109q18 58 56 89t91 31q54 0 80.5 -33.5zM182 -68.5q21 -20.5 21 -55.5q0 -42 -31.5 -65t-96.5 -24l-4 28q51 1 72.5 15.5t21.5 41.5q0 9 -4 16
q-9 -25 -46 -25q-27 0 -42 12t-15 33t16 32.5t47 11.5q40 0 61 -20.5z" />
    <glyph glyph-name="Rcaron" unicode="&#x158;" horiz-adv-x="632" 
d="M539.5 373q-33.5 -50 -99.5 -69l131 -304h-139l-108 283h-119v-283h-121v700h254q113 0 174 -51.5t61 -150.5q0 -75 -33.5 -125zM337 373q57 0 86.5 30t29.5 88q0 117 -124 117h-124v-235h132zM373 753h-148l-99 118h101l74 -65l71 65h101z" />
    <glyph glyph-name="rcaron" unicode="&#x159;" horiz-adv-x="446" 
d="M395.5 488.5q26.5 -33.5 26.5 -93.5q0 -53 -27 -101l-78 8q10 28 10 56q0 68 -60 68q-85 0 -85 -140v-286h-116v511h85l17 -109q18 58 56 89t91 31q54 0 80.5 -33.5zM295 570h-121l-102 156h89l76 -92l72 92h89z" />
    <glyph glyph-name="Sacute" unicode="&#x15a;" horiz-adv-x="598" 
d="M430.5 690q48.5 -21 73 -57t24.5 -79q0 -36 -11 -64h-108q7 26 7 43q0 37 -28.5 58.5t-85.5 21.5q-54 0 -83.5 -26t-29.5 -72q0 -41 21 -64t51.5 -34t85.5 -23q68 -15 109.5 -31.5t71 -56t29.5 -109.5q0 -98 -67.5 -153t-184.5 -55q-175 0 -266 84l73 101
q31 -36 81.5 -61t117.5 -25q65 0 96.5 22t31.5 66q0 32 -19 52t-47.5 30.5t-78.5 22.5q-69 17 -113.5 36t-76 62.5t-31.5 118.5q0 99 64 156t177 57q68 0 116.5 -21zM245 750l86 117h147l-115 -117h-118z" />
    <glyph glyph-name="sacute" unicode="&#x15b;" horiz-adv-x="491" 
d="M387.5 488.5q46.5 -33.5 46.5 -90.5q0 -20 -6 -46l-88 8q3 17 3 32q0 24 -23 39.5t-71 15.5q-44 0 -69 -18t-25 -51q0 -28 16.5 -44.5t41 -24t66.5 -15.5q57 -12 92 -24.5t60 -44t25 -87.5q0 -71 -54 -110t-150 -39q-76 0 -132 21t-90 58l52 81q33 -41 75 -61t102 -20
q47 0 73 15t26 44q0 25 -15 39t-38 21t-64 15q-57 11 -93 24.5t-62 46t-26 90.5q0 75 49.5 117t138.5 42q93 0 139.5 -33.5zM192 570l77 156h131l-107 -156h-101z" />
    <glyph glyph-name="Scircumflex" unicode="&#x15c;" horiz-adv-x="598" 
d="M430.5 690q48.5 -21 73 -57t24.5 -79q0 -36 -11 -64h-108q7 26 7 43q0 37 -28.5 58.5t-85.5 21.5q-54 0 -83.5 -26t-29.5 -72q0 -41 21 -64t51.5 -34t85.5 -23q68 -15 109.5 -31.5t71 -56t29.5 -109.5q0 -98 -67.5 -153t-184.5 -55q-175 0 -266 84l73 101
q31 -36 81.5 -61t117.5 -25q65 0 96.5 22t31.5 66q0 32 -19 52t-47.5 30.5t-78.5 22.5q-69 17 -113.5 36t-76 62.5t-31.5 118.5q0 99 64 156t177 57q68 0 116.5 -21zM298 812l-70 -65h-102l100 118h148l99 -118h-101z" />
    <glyph glyph-name="scircumflex" unicode="&#x15d;" horiz-adv-x="491" 
d="M387.5 488.5q46.5 -33.5 46.5 -90.5q0 -20 -6 -46l-88 8q3 17 3 32q0 24 -23 39.5t-71 15.5q-44 0 -69 -18t-25 -51q0 -28 16.5 -44.5t41 -24t66.5 -15.5q57 -12 92 -24.5t60 -44t25 -87.5q0 -71 -54 -110t-150 -39q-76 0 -132 21t-90 58l52 81q33 -41 75 -61t102 -20
q47 0 73 15t26 44q0 25 -15 39t-38 21t-64 15q-57 11 -93 24.5t-62 46t-26 90.5q0 75 49.5 117t138.5 42q93 0 139.5 -33.5zM244 662l-72 -92h-89l103 156h121l102 -156h-89z" />
    <glyph glyph-name="Scedilla" unicode="&#x15e;" horiz-adv-x="598" 
d="M496 49.5q-61 -54.5 -169 -59.5l-1 -29q94 -14 94 -84q0 -42 -30 -65t-87 -23q-37 0 -70 10.5t-52 25.5l44 63q30 -46 85 -46q19 0 30.5 9.5t11.5 25.5q0 18 -20 27t-65 13l4 73q-149 8 -232 83l73 101q31 -36 81.5 -61t117.5 -25q65 0 96.5 22t31.5 66q0 32 -19 52
t-47.5 30.5t-78.5 22.5q-69 17 -113.5 36t-76 62.5t-31.5 118.5q0 99 64 156t177 57q68 0 116.5 -21t73 -57t24.5 -79q0 -36 -11 -64h-108q7 26 7 43q0 37 -28.5 58.5t-85.5 21.5q-54 0 -83.5 -26t-29.5 -72q0 -41 21 -64t51.5 -34t85.5 -23q68 -15 109.5 -31.5t71 -56
t29.5 -109.5q0 -93 -61 -147.5z" />
    <glyph glyph-name="scedilla" unicode="&#x15f;" horiz-adv-x="491" 
d="M408 32.5q-48 -38.5 -134 -42.5l-1 -29q94 -14 94 -84q0 -42 -30 -65t-87 -23q-37 0 -70 10.5t-52 25.5l44 63q30 -46 85 -46q19 0 30.5 9.5t11.5 25.5q0 18 -20 27t-65 13l4 73q-63 4 -110.5 24.5t-77.5 53.5l52 81q33 -41 75 -61t102 -20q47 0 73 15t26 44q0 25 -15 39
t-38 21t-64 15q-57 11 -93 24.5t-62 46t-26 90.5q0 75 49.5 117t138.5 42q93 0 139.5 -33.5t46.5 -90.5q0 -20 -6 -46l-88 8q3 17 3 32q0 24 -23 39.5t-71 15.5q-44 0 -69 -18t-25 -51q0 -28 16.5 -44.5t41 -24t66.5 -15.5q57 -12 92 -24.5t60 -44t25 -87.5
q0 -67 -48 -105.5z" />
    <glyph glyph-name="Scaron" unicode="&#x160;" horiz-adv-x="598" 
d="M430.5 690q48.5 -21 73 -57t24.5 -79q0 -36 -11 -64h-108q7 26 7 43q0 37 -28.5 58.5t-85.5 21.5q-54 0 -83.5 -26t-29.5 -72q0 -41 21 -64t51.5 -34t85.5 -23q68 -15 109.5 -31.5t71 -56t29.5 -109.5q0 -98 -67.5 -153t-184.5 -55q-175 0 -266 84l73 101
q31 -36 81.5 -61t117.5 -25q65 0 96.5 22t31.5 66q0 32 -19 52t-47.5 30.5t-78.5 22.5q-69 17 -113.5 36t-76 62.5t-31.5 118.5q0 99 64 156t177 57q68 0 116.5 -21zM374 753h-148l-99 118h101l74 -65l71 65h101z" />
    <glyph glyph-name="scaron" unicode="&#x161;" horiz-adv-x="491" 
d="M387.5 488.5q46.5 -33.5 46.5 -90.5q0 -20 -6 -46l-88 8q3 17 3 32q0 24 -23 39.5t-71 15.5q-44 0 -69 -18t-25 -51q0 -28 16.5 -44.5t41 -24t66.5 -15.5q57 -12 92 -24.5t60 -44t25 -87.5q0 -71 -54 -110t-150 -39q-76 0 -132 21t-90 58l52 81q33 -41 75 -61t102 -20
q47 0 73 15t26 44q0 25 -15 39t-38 21t-64 15q-57 11 -93 24.5t-62 46t-26 90.5q0 75 49.5 117t138.5 42q93 0 139.5 -33.5zM305 570h-121l-102 156h89l76 -92l72 92h89z" />
    <glyph glyph-name="Tcedilla" unicode="&#x162;" horiz-adv-x="567" 
d="M311 -39q94 -14 94 -84q0 -42 -30 -65t-87 -23q-37 0 -70 10.5t-52 25.5l44 63q30 -46 85 -46q19 0 30.5 9.5t11.5 25.5q0 18 -20 27t-65 13l4 83h-33v596h-209v104h539v-104h-208v-596h-33z" />
    <glyph glyph-name="tcedilla" unicode="&#x163;" horiz-adv-x="383" 
d="M314 9q-31 -18 -78 -20l-1 -28q94 -14 94 -84q0 -42 -30 -65t-87 -23q-37 0 -70 10.5t-52 25.5l44 63q30 -46 85 -46q19 0 30.5 9.5t11.5 25.5q0 18 -20 27t-65 13l4 77q-89 23 -89 142v302h-72v73h41q26 0 35.5 6.5t16.5 26.5l17 77h78v-110h147l-2 -73h-145v-297
q0 -32 16 -50t44 -18q22 0 38.5 8.5t31.5 25.5l32 -50q-24 -30 -55 -48z" />
    <glyph glyph-name="Tcaron" unicode="&#x164;" horiz-adv-x="567" 
d="M345 596v-596h-122v596h-209v104h539v-104h-208zM356 753h-148l-99 118h101l74 -65l71 65h101z" />
    <glyph glyph-name="tcaron" unicode="&#x165;" horiz-adv-x="383" 
d="M311 7.5q-34 -18.5 -85 -18.5q-135 0 -135 147v302h-72v73h41q26 0 35.5 6.5t16.5 26.5l17 77h78v-110h147l-2 -73h-145v-297q0 -32 16 -50t44 -18q22 0 38.5 8.5t31.5 25.5l32 -50q-24 -31 -58 -49.5zM361.5 739q18.5 -23 18.5 -63q0 -46 -30.5 -71t-86.5 -24l-2 32
q43 1 61.5 14.5t18.5 42.5v5q-13 -13 -38 -13q-24 0 -38.5 13.5t-14.5 37.5q0 23 16 36t44 13q33 0 51.5 -23z" />
    <glyph glyph-name="Tbar" unicode="&#x166;" horiz-adv-x="567" 
d="M345 353h152v-84h-152v-269h-122v269h-153v84h153v243h-209v104h539v-104h-208v-243z" />
    <glyph glyph-name="tbar" unicode="&#x167;" horiz-adv-x="383" 
d="M311 7.5q-34 -18.5 -85 -18.5q-135 0 -135 147v99h-72v73h72v130h-72v73h41q26 0 35.5 6.5t16.5 26.5l17 77h78v-110h147l-2 -73h-145v-130h143v-73h-143v-94q0 -32 16 -50t44 -18q22 0 38.5 8.5t31.5 25.5l32 -50q-24 -31 -58 -49.5z" />
    <glyph glyph-name="Utilde" unicode="&#x168;" horiz-adv-x="603" 
d="M61 229v471h121v-463q0 -145 129 -145q65 0 95.5 36t30.5 109v463h106v-471q0 -114 -62.5 -174.5t-182.5 -60.5q-237 0 -237 235zM378 745q-24 0 -45.5 7t-53.5 21q-42 20 -62 20q-21 0 -32.5 -12t-11.5 -34h-54q0 61 26 92.5t76 31.5q25 0 48.5 -7.5t54.5 -20.5
q18 -7 35 -13t29 -6q21 0 32.5 11.5t11.5 33.5h52q0 -124 -106 -124z" />
    <glyph glyph-name="utilde" unicode="&#x169;" horiz-adv-x="557" 
d="M495 0h-80l-22 105q-22 -54 -67.5 -85t-104.5 -31q-82 0 -124 45.5t-42 147.5v329h116v-313q0 -59 23.5 -86t72.5 -27q52 0 82 30t30 90v306h116v-511zM336 581q-22 0 -42 8t-44 22q-35 20 -51 20q-19 0 -29 -12.5t-10 -36.5h-53q0 62 24 93.5t71 31.5q23 0 44 -8t46 -22
q33 -20 50 -20q40 0 40 49h53q0 -125 -99 -125z" />
    <glyph glyph-name="Umacron" unicode="&#x16a;" horiz-adv-x="603" 
d="M61 229v471h121v-463q0 -145 129 -145q65 0 95.5 36t30.5 109v463h106v-471q0 -114 -62.5 -174.5t-182.5 -60.5q-237 0 -237 235zM466 763h-331v84h331v-84z" />
    <glyph glyph-name="umacron" unicode="&#x16b;" horiz-adv-x="557" 
d="M495 0h-80l-22 105q-22 -54 -67.5 -85t-104.5 -31q-82 0 -124 45.5t-42 147.5v329h116v-313q0 -59 23.5 -86t72.5 -27q52 0 82 30t30 90v306h116v-511zM428 600h-306v84h306v-84z" />
    <glyph glyph-name="Ubreve" unicode="&#x16c;" horiz-adv-x="603" 
d="M61 229v471h121v-463q0 -145 129 -145q65 0 95.5 36t30.5 109v463h106v-471q0 -114 -62.5 -174.5t-182.5 -60.5q-237 0 -237 235zM413.5 775q-36.5 -34 -111.5 -34q-149 0 -149 137h65q0 -30 21.5 -47t62.5 -17t63 17t22 47h63q0 -69 -36.5 -103z" />
    <glyph glyph-name="ubreve" unicode="&#x16d;" horiz-adv-x="557" 
d="M495 0h-80l-22 105q-22 -54 -67.5 -85t-104.5 -31q-82 0 -124 45.5t-42 147.5v329h116v-313q0 -59 23.5 -86t72.5 -27q52 0 82 30t30 90v306h116v-511zM389.5 608q-36.5 -35 -113.5 -35q-76 0 -112.5 35.5t-36.5 110.5h62q0 -72 87 -72q89 0 89 72h61q0 -76 -36.5 -111z
" />
    <glyph glyph-name="Uring" unicode="&#x16e;" horiz-adv-x="603" 
d="M61 229v471h121v-463q0 -145 129 -145q65 0 95.5 36t30.5 109v463h106v-471q0 -114 -62.5 -174.5t-182.5 -60.5q-237 0 -237 235zM443 808q0 -69 -141 -69q-143 0 -143 69q0 68 143 68q141 0 141 -68zM266 837q-11 -9 -11 -29t11 -29t35 -9t35 9t11 29t-11 29t-35 9
t-35 -9z" />
    <glyph glyph-name="uring" unicode="&#x16f;" horiz-adv-x="557" 
d="M495 0h-80l-22 105q-22 -54 -67.5 -85t-104.5 -31q-82 0 -124 45.5t-42 147.5v329h116v-313q0 -59 23.5 -86t72.5 -27q52 0 82 30t30 90v306h116v-511zM378 717q33 -21 33 -66q0 -46 -33 -67.5t-102 -21.5t-102 21.5t-33 67.5q0 45 33 66t102 21t102 -21zM239 688
q-14 -13 -14 -37t14.5 -38t38.5 -14q22 0 36 14t14 38t-13.5 37t-36.5 13q-25 0 -39 -13z" />
    <glyph glyph-name="Uhungarumlaut" unicode="&#x170;" horiz-adv-x="603" 
d="M61 229v471h121v-463q0 -145 129 -145q65 0 95.5 36t30.5 109v463h106v-471q0 -114 -62.5 -174.5t-182.5 -60.5q-237 0 -237 235zM168 750l59 125h128l-91 -125h-96zM320 750l103 125h129l-129 -125h-103z" />
    <glyph glyph-name="uhungarumlaut" unicode="&#x171;" horiz-adv-x="557" 
d="M495 0h-80l-22 105q-22 -54 -67.5 -85t-104.5 -31q-82 0 -124 45.5t-42 147.5v329h116v-313q0 -59 23.5 -86t72.5 -27q52 0 82 30t30 90v306h116v-511zM163 568l56 157h110l-86 -157h-80zM309 568l101 157h109l-125 -157h-85z" />
    <glyph glyph-name="Uogonek" unicode="&#x172;" horiz-adv-x="603" 
d="M543 229q0 -125 -75 -185q-25 -31 -37 -55t-12 -48q0 -17 7.5 -26t19.5 -9q15 0 27 7l7 -57q-14 -7 -25.5 -10.5t-30.5 -3.5q-37 0 -60 20.5t-23 56.5q0 42 33 82q-32 -7 -76 -7q-237 0 -237 235v471h121v-463q0 -145 129 -145q65 0 95.5 36t30.5 109v463h106v-471z" />
    <glyph glyph-name="uogonek" unicode="&#x173;" horiz-adv-x="557" 
d="M478.5 -201.5q-11.5 -3.5 -30.5 -3.5q-37 0 -60 20.5t-23 56.5q0 35 22.5 68.5t58.5 59.5h-31l-22 105q-22 -54 -67.5 -85t-104.5 -31q-82 0 -124 45.5t-42 147.5v329h116v-313q0 -59 23.5 -86t72.5 -27q52 0 82 30t30 90v306h116v-511q-26 -32 -39 -56.5t-13 -49.5
q0 -17 7.5 -26t19.5 -9q15 0 27 7l7 -57q-14 -7 -25.5 -10.5z" />
    <glyph glyph-name="Wcircumflex" unicode="&#x174;" horiz-adv-x="902" 
d="M703 0h-111l-139 532l-138 -532h-113l-163 700h121l111 -531l133 531h118l131 -525l112 525h99zM462 812l-70 -65h-102l100 118h148l99 -118h-101z" />
    <glyph glyph-name="wcircumflex" unicode="&#x175;" horiz-adv-x="769" 
d="M612 0h-126l-100 374l-98 -374h-126l-136 512h110l101 -388l103 388h104l106 -388l95 388h97zM386 662l-72 -92h-89l103 156h121l102 -156h-89z" />
    <glyph glyph-name="Ycircumflex" unicode="&#x176;" horiz-adv-x="600" 
d="M363 0h-121v268l-226 432h149l149 -322l153 322h117l-221 -430v-270zM296 812l-70 -65h-102l100 118h148l99 -118h-101z" />
    <glyph glyph-name="ycircumflex" unicode="&#x177;" horiz-adv-x="546" 
d="M340 -6q-40 -113 -93.5 -159t-138.5 -46q-83 0 -152 36l53 96q45 -47 107 -47q45 0 71.5 22.5t48.5 84.5l7 19h-34l-189 511h127l134 -401l140 401h106zM271 662l-72 -92h-89l103 156h121l102 -156h-89z" />
    <glyph glyph-name="Ydieresis" unicode="&#x178;" horiz-adv-x="600" 
d="M363 0h-121v268l-226 432h149l149 -322l153 322h117l-221 -430v-270zM247 851q17 -15 17 -43q0 -27 -17 -41.5t-49 -14.5q-31 0 -48 15t-17 41q0 28 17 43t48 15q32 0 49 -15zM450.5 851q17.5 -15 17.5 -43q0 -26 -17.5 -41t-49.5 -15q-30 0 -47 15t-17 41q0 28 17 43
t47 15q32 0 49.5 -15z" />
    <glyph glyph-name="Zacute" unicode="&#x179;" horiz-adv-x="543" 
d="M511 0h-479v78l310 521h-295v101h448v-84l-305 -515h321v-101zM215 750l86 117h147l-115 -117h-118z" />
    <glyph glyph-name="zacute" unicode="&#x17a;" horiz-adv-x="470" 
d="M433 0h-395v51l235 368h-222v92h369v-56l-234 -363h247v-92zM181 570l77 156h131l-107 -156h-101z" />
    <glyph glyph-name="Zdotaccent" unicode="&#x17b;" horiz-adv-x="543" 
d="M511 0h-479v78l310 521h-295v101h448v-84l-305 -515h321v-101zM323.5 852q19.5 -15 19.5 -41q0 -25 -19.5 -39.5t-53.5 -14.5q-33 0 -52 14.5t-19 39.5q0 26 18.5 41t52.5 15t53.5 -15z" />
    <glyph glyph-name="zdotaccent" unicode="&#x17c;" horiz-adv-x="470" 
d="M433 0h-395v51l235 368h-222v92h369v-56l-234 -363h247v-92zM287.5 698q18.5 -16 18.5 -46t-18.5 -45.5t-53.5 -15.5q-34 0 -52.5 15.5t-18.5 45.5t18.5 46t52.5 16q35 0 53.5 -16z" />
    <glyph glyph-name="Zcaron" unicode="&#x17d;" horiz-adv-x="543" 
d="M511 0h-479v78l310 521h-295v101h448v-84l-305 -515h321v-101zM344 753h-148l-99 118h101l74 -65l71 65h101z" />
    <glyph glyph-name="zcaron" unicode="&#x17e;" horiz-adv-x="470" 
d="M433 0h-395v51l235 368h-222v92h369v-56l-234 -363h247v-92zM294 570h-121l-102 156h89l76 -92l72 92h89z" />
    <glyph glyph-name="Schwa" unicode="&#x18f;" horiz-adv-x="600" 
d="M483 622.5q72 -87.5 72 -273.5q0 -177 -71 -268.5t-194 -91.5q-70 0 -125 30t-86.5 90.5t-31.5 149.5q0 32 6 64.5t17 54.5h363q-6 118 -50.5 174.5t-118.5 56.5q-58 0 -97.5 -21.5t-73.5 -63.5l-49 101q94 85 233 85q134 0 206 -87.5zM433 295h-254q-5 -16 -5 -46
q0 -81 32 -123.5t91 -42.5q123 0 136 212z" />
    <glyph glyph-name="Aringacute" unicode="&#x1fa;" horiz-adv-x="602" 
d="M163 151l-43 -151h-104l215 690q-72 13 -72 61q0 52 92 62l74 77h148l-104 -79q74 -14 74 -60q0 -49 -75 -62l218 -689h-129l-43 151h-251zM266 776.5q-11 -8.5 -11 -25.5q0 -36 46 -36t46 36q0 17 -11 25.5t-35 8.5t-35 -8.5zM288 593l-99 -350h199z" />
    <glyph glyph-name="aringacute" unicode="&#x1fb;" horiz-adv-x="534" 
d="M160 578q-33 20 -33 64q0 35 20.5 54t64.5 25l71 142h135l-99 -143q40 -7 59.5 -26t19.5 -52q0 -44 -33 -64t-102 -20q-70 0 -103 20zM302.5 605.5q14.5 12.5 14.5 36.5t-14.5 36t-39.5 12t-40 -12.5t-15 -35.5q0 -24 14.5 -36.5t40.5 -12.5q25 0 39.5 12.5zM449 -4
q-40 0 -63.5 17.5t-32.5 55.5q-24 -38 -64 -59t-94 -21q-74 0 -112.5 36.5t-38.5 99.5q0 50 26 85t93 55.5t185 21.5v56q0 64 -19 90.5t-66 26.5q-89 0 -89 -87q0 -11 2 -25l-103 -6q-5 20 -5 44q0 61 47.5 98.5t148.5 37.5q105 0 152 -45t47 -145v-233q0 -39 28 -39
q11 0 19 5l11 -48q-27 -21 -72 -21zM317 97q31 34 31 99v46q-106 -2 -147 -30.5t-41 -75.5q0 -34 20 -53.5t56 -19.5q50 0 81 34z" />
    <glyph glyph-name="AEacute" unicode="&#x1fc;" horiz-adv-x="897" 
d="M851 0h-441v158h-218l-51 -158h-125l246 700h567v-97h-297v-203h268v-91h-268v-212h319v-97zM410 603h-73l-117 -360h190v360zM460 750l86 117h147l-115 -117h-118z" />
    <glyph glyph-name="aeacute" unicode="&#x1fd;" horiz-adv-x="823" 
d="M585 -11q-73 0 -124 30.5t-77 92.5q-24 -56 -74 -89.5t-122 -33.5q-71 0 -108 36.5t-37 99.5q0 50 27 85.5t95.5 56t189.5 21.5v58q0 61 -22 87t-69 26q-45 0 -67.5 -22.5t-22.5 -63.5q0 -12 2 -30h-104q-5 27 -5 43q0 61 47.5 98.5t151.5 37.5q62 0 100.5 -18t57.5 -56
q28 37 68.5 55.5t89.5 18.5q83 0 134 -51t51 -149q0 -56 -13 -86l-285 1q3 -80 39 -121t95 -41q44 0 73.5 13t56.5 40l40 -77q-77 -62 -188 -62zM471 295l191 -1q4 17 4 46q0 112 -89 112q-94 0 -106 -157zM358 243q-111 -1 -154.5 -30t-43.5 -77q0 -34 19.5 -53.5
t55.5 -19.5q56 0 88 38.5t32 138.5l3 -2v5zM369 570l77 156h131l-107 -156h-101z" />
    <glyph glyph-name="Oslashacute" unicode="&#x1fe;" horiz-adv-x="639" 
d="M594 351q0 -176 -71 -269t-203 -93q-58 0 -104 18l-45 -115h-93l63 162q-96 91 -96 297q0 176 71 268t204 92q61 0 108 -19l36 96h94l-56 -145q92 -92 92 -292zM208 547.5q-37 -64.5 -37 -196.5q0 -126 33 -191l169 442q-23 10 -53 10q-75 0 -112 -64.5zM431 153
q37 65 37 198q0 119 -30 183l-168 -437q22 -9 50 -9q74 0 111 65zM262 750l86 117h147l-115 -117h-118z" />
    <glyph glyph-name="oslashacute" unicode="&#x1ff;" horiz-adv-x="541" 
d="M508 256q0 -130 -59 -198.5t-171 -68.5q-47 0 -85 12l-49 -117h-71l60 146q-91 66 -91 224q0 131 61 199.5t175 68.5q43 0 82 -11l44 105h71l-57 -133q90 -66 90 -227zM187.5 396q-29.5 -46 -29.5 -142q0 -94 30 -141l122 325q-13 4 -32 4q-61 0 -90.5 -46zM365 114.5
q28 45.5 28 141.5q0 94 -27 139l-123 -322q15 -4 35 -4q59 0 87 45.5zM215 570l77 156h131l-107 -156h-101z" />
    <glyph glyph-name="Scommaaccent" unicode="&#x218;" horiz-adv-x="598" 
d="M430.5 690q48.5 -21 73 -57t24.5 -79q0 -36 -11 -64h-108q7 26 7 43q0 37 -28.5 58.5t-85.5 21.5q-54 0 -83.5 -26t-29.5 -72q0 -41 21 -64t51.5 -34t85.5 -23q68 -15 109.5 -31.5t71 -56t29.5 -109.5q0 -98 -67.5 -153t-184.5 -55q-175 0 -266 84l73 101
q31 -36 81.5 -61t117.5 -25q65 0 96.5 22t31.5 66q0 32 -19 52t-47.5 30.5t-78.5 22.5q-69 17 -113.5 36t-76 62.5t-31.5 118.5q0 99 64 156t177 57q68 0 116.5 -21zM356 -68.5q21 -20.5 21 -55.5q0 -42 -31.5 -65t-96.5 -24l-4 28q51 1 72.5 15.5t21.5 41.5q0 9 -4 16
q-9 -25 -46 -25q-27 0 -42 12t-15 33t16 32.5t47 11.5q40 0 61 -20.5z" />
    <glyph glyph-name="scommaaccent" unicode="&#x219;" horiz-adv-x="491" 
d="M387.5 488.5q46.5 -33.5 46.5 -90.5q0 -20 -6 -46l-88 8q3 17 3 32q0 24 -23 39.5t-71 15.5q-44 0 -69 -18t-25 -51q0 -28 16.5 -44.5t41 -24t66.5 -15.5q57 -12 92 -24.5t60 -44t25 -87.5q0 -71 -54 -110t-150 -39q-76 0 -132 21t-90 58l52 81q33 -41 75 -61t102 -20
q47 0 73 15t26 44q0 25 -15 39t-38 21t-64 15q-57 11 -93 24.5t-62 46t-26 90.5q0 75 49.5 117t138.5 42q93 0 139.5 -33.5zM303 -68.5q21 -20.5 21 -55.5q0 -42 -31.5 -65t-96.5 -24l-4 28q51 1 72.5 15.5t21.5 41.5q0 9 -4 16q-9 -25 -46 -25q-27 0 -42 12t-15 33t16 32.5
t47 11.5q40 0 61 -20.5z" />
    <glyph glyph-name="uni021A" unicode="&#x21a;" horiz-adv-x="567" 
d="M345 596v-596h-122v596h-209v104h539v-104h-208zM341 -68.5q21 -20.5 21 -55.5q0 -42 -31.5 -65t-96.5 -24l-4 28q51 1 72.5 15.5t21.5 41.5q0 9 -4 16q-9 -25 -46 -25q-27 0 -42 12t-15 33t16 32.5t47 11.5q40 0 61 -20.5z" />
    <glyph glyph-name="uni021B" unicode="&#x21b;" horiz-adv-x="383" 
d="M311 7.5q-34 -18.5 -85 -18.5q-135 0 -135 147v302h-72v73h41q26 0 35.5 6.5t16.5 26.5l17 77h78v-110h147l-2 -73h-145v-297q0 -32 16 -50t44 -18q22 0 38.5 8.5t31.5 25.5l32 -50q-24 -31 -58 -49.5zM264 -68.5q21 -20.5 21 -55.5q0 -42 -31.5 -65t-96.5 -24l-4 28
q51 1 72.5 15.5t21.5 41.5q0 9 -4 16q-9 -25 -46 -25q-27 0 -42 12t-15 33t16 32.5t47 11.5q40 0 61 -20.5z" />
    <glyph glyph-name="dotlessj" unicode="&#x237;" horiz-adv-x="281" 
d="M64.5 -112.5q17.5 19.5 17.5 61.5v562h116v-537q0 -97 -46.5 -141t-144.5 -44q-23 0 -48.5 4t-45.5 11l29 86q31 -22 67 -22q38 0 55.5 19.5z" />
    <glyph glyph-name="schwa" unicode="&#x259;" horiz-adv-x="515" 
d="M236 522q113 0 175 -66.5t62 -200.5q0 -128 -64 -197t-170 -69q-84 0 -135 50t-51 150q0 56 13 89h291q-4 78 -41 118.5t-99 40.5q-44 0 -73 -14t-55 -42l-39 79q75 62 186 62zM318.5 95q29.5 37 36.5 117h-198q-4 -24 -4 -43q0 -55 23.5 -83t67.5 -29q45 1 74.5 38z" />
    <glyph glyph-name="circumflex" unicode="&#x2c6;" horiz-adv-x="459" 
d="M228 662l-72 -92h-89l103 156h121l102 -156h-89z" />
    <glyph glyph-name="caron" unicode="&#x2c7;" horiz-adv-x="459" 
d="M289 570h-121l-102 156h89l76 -92l72 92h89z" />
    <glyph glyph-name="breve" unicode="&#x2d8;" horiz-adv-x="441" 
d="M333.5 609q-36.5 -35 -113.5 -35q-76 0 -112.5 35.5t-36.5 110.5h62q0 -72 87 -72q89 0 89 72h61q0 -76 -36.5 -111z" />
    <glyph glyph-name="dotaccent" unicode="&#x2d9;" horiz-adv-x="264" 
d="M184.5 698q18.5 -16 18.5 -46t-18.5 -45.5t-53.5 -15.5q-34 0 -52.5 15.5t-18.5 45.5t18.5 46t52.5 16q35 0 53.5 -16z" />
    <glyph glyph-name="ring" unicode="&#x2da;" horiz-adv-x="407" 
d="M305 717q33 -21 33 -66q0 -46 -33 -67.5t-102 -21.5t-102 21.5t-33 67.5q0 45 33 66t102 21t102 -21zM166 688q-14 -13 -14 -37t14.5 -38t38.5 -14q22 0 36 14t14 38t-13.5 37t-36.5 13q-25 0 -39 -13z" />
    <glyph glyph-name="ogonek" unicode="&#x2db;" horiz-adv-x="325" 
d="M155 -57.5q-13 -24.5 -13 -49.5q0 -17 7.5 -26t19.5 -9q15 0 27 7l7 -57q-14 -7 -25.5 -10.5t-30.5 -3.5q-37 0 -60 20.5t-23 56.5q0 42 32.5 82t78.5 66l19 -20q-26 -32 -39 -56.5z" />
    <glyph glyph-name="tilde" unicode="&#x2dc;" horiz-adv-x="466" 
d="M298 581q-22 0 -42 8t-44 22q-35 20 -51 20q-19 0 -29 -12.5t-10 -36.5h-53q0 62 24 93.5t71 31.5q23 0 44 -8t46 -22q33 -20 50 -20q40 0 40 49h53q0 -125 -99 -125z" />
    <glyph glyph-name="hungarumlaut" unicode="&#x2dd;" horiz-adv-x="499" 
d="M68 569l56 157h110l-86 -157h-80zM214 569l101 157h109l-125 -157h-85z" />
    <glyph glyph-name="uni0326" unicode="&#x326;" horiz-adv-x="0" 
d="M189 -68.5q21 -20.5 21 -55.5q0 -42 -31.5 -65t-96.5 -24l-4 28q51 1 72.5 15.5t21.5 41.5q0 9 -4 16q-9 -25 -46 -25q-27 0 -42 12t-15 33t16 32.5t47 11.5q40 0 61 -20.5z" />
    <glyph glyph-name="Delta" unicode="&#x394;" horiz-adv-x="602" 
d="M16 0l218 700h131l221 -700h-570zM286 593l-144 -507h288z" />
    <glyph glyph-name="Omega" unicode="&#x3a9;" horiz-adv-x="675" 
d="M577 218.5q-36 -73.5 -105 -121.5h139v-97h-226v112q50 45 75.5 111t25.5 149q0 119 -37 179.5t-111 60.5q-149 0 -149 -240q0 -83 25.5 -149t75.5 -111v-60h-1v-52h-226v97h139q-69 48 -104.5 121.5t-35.5 164.5q0 162 71 245t205 83t204.5 -83t70.5 -245
q0 -91 -36 -164.5z" />
    <glyph glyph-name="Wgrave" unicode="&#x1e80;" horiz-adv-x="902" 
d="M703 0h-111l-139 532l-138 -532h-113l-163 700h121l111 -531l133 531h118l131 -525l112 525h99zM410 750l-111 123h141l82 -123h-112z" />
    <glyph glyph-name="wgrave" unicode="&#x1e81;" horiz-adv-x="769" 
d="M612 0h-126l-100 374l-98 -374h-126l-136 512h110l101 -388l103 388h104l106 -388l95 388h97zM353 570l-107 156h134l77 -156h-104z" />
    <glyph glyph-name="Wacute" unicode="&#x1e82;" horiz-adv-x="902" 
d="M703 0h-111l-139 532l-138 -532h-113l-163 700h121l111 -531l133 531h118l131 -525l112 525h99zM410 750l86 117h147l-115 -117h-118z" />
    <glyph glyph-name="wacute" unicode="&#x1e83;" horiz-adv-x="769" 
d="M612 0h-126l-100 374l-98 -374h-126l-136 512h110l101 -388l103 388h104l106 -388l95 388h97zM334 570l77 156h131l-107 -156h-101z" />
    <glyph glyph-name="Wdieresis" unicode="&#x1e84;" horiz-adv-x="902" 
d="M703 0h-111l-139 532l-138 -532h-113l-163 700h121l111 -531l133 531h118l131 -525l112 525h99zM413 851q17 -15 17 -43q0 -27 -17 -41.5t-49 -14.5q-31 0 -48 15t-17 41q0 28 17 43t48 15q32 0 49 -15zM616.5 851q17.5 -15 17.5 -43q0 -26 -17.5 -41t-49.5 -15
q-30 0 -47 15t-17 41q0 28 17 43t47 15q32 0 49.5 -15z" />
    <glyph glyph-name="wdieresis" unicode="&#x1e85;" horiz-adv-x="769" 
d="M245.5 605q-17.5 15 -17.5 44t17.5 44.5t49.5 15.5t50 -15.5t18 -44.5t-17.5 -44t-50.5 -15q-32 0 -49.5 15zM431.5 605q-17.5 15 -17.5 44t17.5 44.5t49.5 15.5t50 -15.5t18 -44.5t-17.5 -44t-50.5 -15q-32 0 -49.5 15zM612 0h-126l-100 374l-98 -374h-126l-136 512h110
l101 -388l103 388h104l106 -388l95 388h97z" />
    <glyph glyph-name="uni1E9E" unicode="&#x1e9e;" horiz-adv-x="680" 
d="M588 309q48 -43 48 -129q0 -87 -59.5 -139t-162.5 -52q-98 0 -150 28l18 109q53 -41 137 -41q47 0 73 24t26 68q0 37 -18 58.5t-53.5 34.5t-109.5 32v79l145 187q-26 23 -59.5 35.5t-69.5 12.5q-76 0 -119 -41t-43 -126v-449h-121v438q0 137 74 205t210 68
q69 0 131 -20.5t105 -50.5l-1 -1v-84l-145 -178q96 -25 144 -68z" />
    <glyph glyph-name="Ygrave" unicode="&#x1ef2;" horiz-adv-x="600" 
d="M363 0h-121v268l-226 432h149l149 -322l153 322h117l-221 -430v-270zM244 750l-111 123h141l82 -123h-112z" />
    <glyph glyph-name="ygrave" unicode="&#x1ef3;" horiz-adv-x="546" 
d="M340 -6q-40 -113 -93.5 -159t-138.5 -46q-83 0 -152 36l53 96q45 -47 107 -47q45 0 71.5 22.5t48.5 84.5l7 19h-34l-189 511h127l134 -401l140 401h106zM238 570l-107 156h134l77 -156h-104z" />
    <glyph glyph-name="uni2009" unicode="&#x2009;" horiz-adv-x="89" 
 />
    <glyph glyph-name="endash" unicode="&#x2013;" horiz-adv-x="627" 
d="M75 215v105h477v-105h-477z" />
    <glyph glyph-name="emdash" unicode="&#x2014;" horiz-adv-x="792" 
d="M75 215v105h642v-105h-642z" />
    <glyph glyph-name="quoteleft" unicode="&#x2018;" horiz-adv-x="276" 
d="M199.5 585.5q16.5 -17.5 16.5 -48.5t-17.5 -50t-49.5 -19q-42 0 -66.5 26t-24.5 82q0 64 34 94.5t108 31.5l5 -40q-56 -1 -77 -17.5t-21 -51.5v-9q16 19 45 19q31 0 47.5 -17.5z" />
    <glyph glyph-name="quoteright" unicode="&#x2019;" horiz-adv-x="276" 
d="M193.5 682q24.5 -26 24.5 -82q0 -64 -34 -94.5t-108 -31.5l-5 40q56 1 77 17.5t21 51.5v9q-16 -19 -45 -19q-31 0 -47.5 17.5t-16.5 48.5t17.5 50t49.5 19q42 0 66.5 -26z" />
    <glyph glyph-name="quotesinglbase" unicode="&#x201a;" horiz-adv-x="276" 
d="M193.5 103q24.5 -26 24.5 -82q0 -64 -34 -94.5t-108 -31.5l-5 40q56 1 77 17.5t21 51.5v9q-16 -19 -45 -19q-31 0 -47.5 17.5t-16.5 48.5t17.5 50t49.5 19q42 0 66.5 -26z" />
    <glyph glyph-name="quotedblleft" unicode="&#x201c;" horiz-adv-x="459" 
d="M384.5 585.5q16.5 -17.5 16.5 -48.5t-17.5 -50t-49.5 -19q-42 0 -66.5 26t-24.5 82q0 64 34 94.5t108 31.5l5 -40q-56 -1 -77 -17.5t-21 -51.5v-9q16 19 45 19q31 0 47.5 -17.5zM201.5 585.5q16.5 -17.5 16.5 -48.5t-17.5 -50t-49.5 -19q-42 0 -66.5 26t-24.5 82
q0 64 34 94.5t108 31.5l5 -40q-56 -1 -77 -17.5t-21 -51.5v-9q16 19 45 19q31 0 47.5 -17.5z" />
    <glyph glyph-name="quotedblright" unicode="&#x201d;" horiz-adv-x="459" 
d="M376.5 682q24.5 -26 24.5 -82q0 -64 -34 -94.5t-108 -31.5l-5 40q56 1 77 17.5t21 51.5v9q-16 -19 -45 -19q-31 0 -47.5 17.5t-16.5 48.5t17.5 50t49.5 19q42 0 66.5 -26zM193.5 682q24.5 -26 24.5 -82q0 -64 -34 -94.5t-108 -31.5l-5 40q56 1 77 17.5t21 51.5v9
q-16 -19 -45 -19q-31 0 -47.5 17.5t-16.5 48.5t17.5 50t49.5 19q42 0 66.5 -26z" />
    <glyph glyph-name="quotedblbase" unicode="&#x201e;" horiz-adv-x="459" 
d="M376.5 103q24.5 -26 24.5 -82q0 -64 -34 -94.5t-108 -31.5l-5 40q56 1 77 17.5t21 51.5v9q-16 -19 -45 -19q-31 0 -47.5 17.5t-16.5 48.5t17.5 50t49.5 19q42 0 66.5 -26zM193.5 103q24.5 -26 24.5 -82q0 -64 -34 -94.5t-108 -31.5l-5 40q56 1 77 17.5t21 51.5v9
q-16 -19 -45 -19q-31 0 -47.5 17.5t-16.5 48.5t17.5 50t49.5 19q42 0 66.5 -26z" />
    <glyph glyph-name="dagger" unicode="&#x2020;" horiz-adv-x="596" 
d="M354 396l9 -548h-129l9 548l-182 -8v110l181 -8l-8 239h129l-8 -239l181 8v-110z" />
    <glyph glyph-name="daggerdbl" unicode="&#x2021;" horiz-adv-x="596" 
d="M353 184l183 8v-110l-181 8l8 -242h-129l7 242l-180 -8v110l182 -8v212l-182 -8v110l181 -8l-8 239h129l-8 -239l181 8v-110l-182 8z" />
    <glyph glyph-name="bullet" unicode="&#x2022;" horiz-adv-x="388" 
d="M265 410q25 -26 25 -72t-25 -71.5t-71.5 -25.5t-71.5 25.5t-25 71.5t25 72t71.5 26t71.5 -26z" />
    <glyph glyph-name="ellipsis" unicode="&#x2026;" horiz-adv-x="641" 
d="M370.5 114q17.5 -18 17.5 -50q0 -31 -17.5 -49t-49.5 -18t-49.5 18t-17.5 49q0 32 17.5 50t49.5 18t49.5 -18zM565.5 114q17.5 -18 17.5 -50q0 -31 -17.5 -49t-49.5 -18t-49.5 18t-17.5 49q0 32 17.5 50t49.5 18t49.5 -18zM176.5 114q17.5 -18 17.5 -50q0 -31 -17.5 -49
t-49.5 -18t-49.5 18t-17.5 49q0 32 17.5 50t49.5 18t49.5 -18z" />
    <glyph glyph-name="perthousand" unicode="&#x2030;" horiz-adv-x="1457" 
d="M398 663q49 -48 49 -130q0 -83 -49 -131.5t-133 -48.5q-85 0 -135 48.5t-50 131.5q0 82 50 130t135 48q84 0 133 -48zM342 0h-131l496 700h130zM197.5 609.5q-24.5 -27.5 -24.5 -76.5t24.5 -77t67.5 -28q42 0 66 28t24 77q0 48 -24.5 76t-65.5 28q-43 0 -67.5 -27.5z
M918.5 299q49.5 -48 49.5 -131t-49.5 -131t-134.5 -48t-134.5 48.5t-49.5 130.5t49.5 130.5t134.5 48.5t134.5 -48zM1343 299q49 -48 49 -131t-49 -131t-134 -48t-134.5 48t-49.5 131t49.5 131t134.5 48t134 -48zM718 244.5q-24 -27.5 -24 -76.5t24 -76.5t66 -27.5
q43 0 67 27.5t24 76.5t-24 76.5t-67 27.5q-42 0 -66 -27.5zM1142 244.5q-24 -27.5 -24 -76.5t24 -76.5t66 -27.5q43 0 67 27.5t24 76.5t-24 76.5t-67 27.5q-42 0 -66 -27.5z" />
    <glyph glyph-name="guilsinglleft" unicode="&#x2039;" horiz-adv-x="327" 
d="M159 44l-107 217l106 217l105 -21l-84 -196l85 -196z" />
    <glyph glyph-name="guilsinglright" unicode="&#x203a;" horiz-adv-x="289" 
d="M131 44l-105 21l84 196l-85 196l105 21l106 -217z" />
    <glyph glyph-name="fraction" unicode="&#x2044;" horiz-adv-x="372" 
d="M-128 0l521 700h107l-521 -700h-107z" />
    <glyph glyph-name="zerosuperior" unicode="&#x2070;" horiz-adv-x="394" 
d="M318 741q42 -52 42 -151t-42 -152t-120 -53q-80 0 -122.5 52.5t-42.5 152.5q0 99 42.5 151t122.5 52q78 0 120 -52zM139.5 692.5q-18.5 -33.5 -18.5 -102.5q0 -70 18.5 -103.5t58.5 -33.5q76 0 76 137q0 136 -76 136q-40 0 -58.5 -33.5z" />
    <glyph glyph-name="foursuperior" unicode="&#x2074;" horiz-adv-x="367" 
d="M291 475v-79h-84v79h-191v48l156 270h119v-253h55v-65h-55zM207 733l-106 -193h106v193z" />
    <glyph glyph-name="fivesuperior" unicode="&#x2075;" horiz-adv-x="351" 
d="M290 618.5q33 -31.5 33 -93.5q0 -61 -38.5 -98t-111.5 -38q-69 0 -106 29.5t-39 83.5l81 10q2 -28 20 -42t46 -14q31 0 48.5 18t17.5 49q0 34 -16.5 52t-46.5 18q-23 0 -40.5 -9.5t-25.5 -25.5l-77 5l20 230h245l2 -68h-181l-11 -111q16 17 39.5 26.5t53.5 9.5
q54 0 87 -31.5z" />
    <glyph glyph-name="sixsuperior" unicode="&#x2076;" horiz-adv-x="371" 
d="M313.5 606.5q30.5 -31.5 30.5 -84.5q0 -62 -37.5 -97t-103.5 -35t-106 38q-50 50 -50 165q0 100 42 152.5t122 52.5q57 0 90 -24.5t33 -66.5q0 -12 -6 -30l-72 1q3 9 3 19q0 18 -12.5 29t-36.5 11q-40 0 -59.5 -35t-19.5 -109v-4q14 24 38.5 36.5t57.5 12.5
q56 0 86.5 -31.5zM246.5 471q15.5 17 15.5 47q0 31 -16 47.5t-45 16.5q-27 0 -43.5 -17.5t-16.5 -46.5q0 -24 16 -44t46 -20q28 0 43.5 17z" />
    <glyph glyph-name="sevensuperior" unicode="&#x2077;" horiz-adv-x="314" 
d="M292 734q-58 -56 -91 -145t-33 -193h-94q0 94 35 180.5t97 145.5h-192v71h278v-59z" />
    <glyph glyph-name="eightsuperior" unicode="&#x2078;" horiz-adv-x="360" 
d="M311 558q21 -26 21 -65q0 -52 -39.5 -80.5t-111.5 -28.5q-73 0 -112.5 28.5t-39.5 80.5q0 40 21 65.5t59 34.5q-32 10 -49.5 34t-17.5 59q0 50 36 78.5t103 28.5q66 0 102 -28t36 -79q0 -35 -18 -59t-50 -34q39 -9 60 -35zM137.5 720.5q-15.5 -15.5 -15.5 -42.5
q0 -28 15 -43t44 -15q27 0 41.5 15t14.5 43q0 27 -14.5 42.5t-41.5 15.5q-28 0 -43.5 -15.5zM228.5 456q17.5 16 17.5 44q0 30 -17.5 45.5t-47.5 15.5q-32 0 -49 -15.5t-17 -45.5q0 -28 17 -44t49 -16q30 0 47.5 16z" />
    <glyph glyph-name="ninesuperior" unicode="&#x2079;" horiz-adv-x="362" 
d="M316 595q0 -100 -41.5 -152.5t-121.5 -52.5q-76 0 -126 40l47 67q32 -38 79 -38q42 0 61.5 33t19.5 109v2q-22 -56 -92 -56q-54 0 -85.5 33t-31.5 86q0 61 38.5 96.5t102.5 35.5q68 0 105 -40q45 -47 45 -163zM211 627q15 17 15 46q0 30 -15.5 47t-41.5 17
q-28 0 -45 -17.5t-17 -46.5t16.5 -46t44.5 -17t43 17z" />
    <glyph glyph-name="zeroinferior" unicode="&#x2080;" horiz-adv-x="394" 
d="M318 180q42 -52 42 -151t-42 -152t-120 -53q-80 0 -122.5 52.5t-42.5 152.5q0 99 42.5 151t122.5 52q78 0 120 -52zM139.5 131.5q-18.5 -33.5 -18.5 -102.5q0 -70 18.5 -103.5t58.5 -33.5q76 0 76 137q0 136 -76 136q-40 0 -58.5 -33.5z" />
    <glyph glyph-name="oneinferior" unicode="&#x2081;" horiz-adv-x="236" 
d="M174 -170h-92v285h-68l1 49q39 2 65 19t34 45h60v-398z" />
    <glyph glyph-name="twoinferior" unicode="&#x2082;" horiz-adv-x="336" 
d="M310 -170h-285q-2 24 -2 36q0 36 15.5 62.5t37 43.5t58.5 41q44 28 65.5 49t21.5 53q0 53 -54 53q-27 0 -42 -13t-15 -35q0 -20 6 -34l-74 -6q-12 15 -12 46q0 49 37 77.5t103 28.5q68 0 102 -29.5t34 -83.5q0 -47 -28.5 -77.5t-81.5 -63.5q-35 -22 -54.5 -38.5
t-27.5 -36.5h196v-73z" />
    <glyph glyph-name="threeinferior" unicode="&#x2083;" horiz-adv-x="368" 
d="M305 5q25 -25 25 -68q0 -51 -37 -82t-111 -31q-151 0 -151 121l81 9q1 -65 66 -65q35 0 52 15.5t17 41.5q0 33 -26 47.5t-74 14.5l-6 43q51 8 72.5 23.5t21.5 45.5q0 48 -55 48q-27 0 -40.5 -12t-13.5 -32q0 -11 3 -23l-77 -7q-6 20 -6 41q0 46 35.5 71.5t100.5 25.5
q67 0 101 -26.5t34 -72.5q0 -33 -20.5 -58t-55.5 -37q39 -8 64 -33z" />
    <glyph glyph-name="fourinferior" unicode="&#x2084;" horiz-adv-x="367" 
d="M291 -92v-78h-84v78h-191v49l156 270h119v-253h55v-66h-55zM207 167l-106 -193h106v193z" />
    <glyph glyph-name="fiveinferior" unicode="&#x2085;" horiz-adv-x="351" 
d="M290 51.5q33 -31.5 33 -92.5q0 -62 -38.5 -99t-111.5 -37q-69 0 -106 29.5t-39 83.5l81 10q2 -28 20 -42.5t46 -14.5q31 0 48.5 18.5t17.5 49.5q0 34 -16.5 52t-46.5 18q-23 0 -40.5 -10t-25.5 -25l-77 5l20 230h245l2 -68h-181l-11 -111q16 16 40 25.5t53 9.5
q54 0 87 -31.5z" />
    <glyph glyph-name="sixinferior" unicode="&#x2086;" horiz-adv-x="371" 
d="M313.5 40.5q30.5 -31.5 30.5 -84.5q0 -62 -37.5 -97t-103.5 -35t-106 38q-50 50 -50 165q0 100 42 152.5t122 52.5q57 0 90 -24.5t33 -66.5q0 -12 -6 -30l-72 1q3 9 3 19q0 18 -12.5 29t-36.5 11q-40 0 -59.5 -35t-19.5 -109v-4q14 24 38.5 36.5t57.5 12.5
q56 0 86.5 -31.5zM246.5 -95q15.5 17 15.5 47q0 31 -16 47.5t-45 16.5q-27 0 -43.5 -17.5t-16.5 -46.5q0 -24 16 -44t46 -20q28 0 43.5 17z" />
    <glyph glyph-name="seveninferior" unicode="&#x2087;" horiz-adv-x="314" 
d="M292 168q-58 -57 -91 -146t-33 -192h-94q0 93 35.5 180t96.5 146h-192v71h278v-59z" />
    <glyph glyph-name="eightinferior" unicode="&#x2088;" horiz-adv-x="360" 
d="M311 -2q21 -26 21 -65q0 -52 -39.5 -80.5t-111.5 -28.5q-73 0 -112.5 28.5t-39.5 80.5q0 40 21 65.5t59 34.5q-32 10 -49.5 34t-17.5 59q0 50 36 78.5t103 28.5q66 0 102 -28t36 -79q0 -35 -18 -59t-50 -34q39 -9 60 -35zM137.5 160.5q-15.5 -15.5 -15.5 -42.5
q0 -28 15 -43t44 -15q27 0 41.5 15t14.5 43q0 27 -14.5 42.5t-41.5 15.5q-28 0 -43.5 -15.5zM228.5 -104q17.5 16 17.5 44q0 30 -17.5 45.5t-47.5 15.5q-32 0 -49 -15.5t-17 -45.5q0 -28 17 -44t49 -16q30 0 47.5 16z" />
    <glyph glyph-name="nineinferior" unicode="&#x2089;" horiz-adv-x="362" 
d="M316 29q0 -100 -41.5 -152.5t-121.5 -52.5q-76 0 -126 40l47 67q32 -38 79 -38q42 0 61.5 33t19.5 109v2q-22 -56 -92 -56q-54 0 -85.5 33t-31.5 86q0 61 38.5 96.5t102.5 35.5q68 0 105 -40q45 -47 45 -163zM211 61q15 17 15 46q0 30 -15.5 47t-41.5 17q-28 0 -45 -17.5
t-17 -46.5t16.5 -46t44.5 -17t43 17z" />
    <glyph glyph-name="Euro" unicode="&#x20ac;" horiz-adv-x="657" 
d="M526.5 11q-50.5 -22 -126.5 -22q-255 0 -294 249h-92v79h84v25q0 27 1 40h-85v78h94q23 121 95.5 186t187.5 65q98 0 155.5 -50.5t57.5 -135.5q0 -42 -12 -69h-89q6 23 6 54q0 49 -30 77.5t-84 28.5q-128 0 -161 -156h171v-78h-181q-1 -13 -1 -41v-24h182v-79h-172
q31 -148 175 -148q57 0 96 19t73 49l41 -90q-41 -35 -91.5 -57z" />
    <glyph glyph-name="uni2117" unicode="&#x2117;" horiz-adv-x="638" 
d="M526.5 768.5q75.5 -71.5 75.5 -196.5q0 -82 -34 -143t-98 -93.5t-151 -32.5t-151 32.5t-98 93.5t-34 143t34 142.5t98 93t151 32.5q132 0 207.5 -71.5zM527 572q0 208 -208 208t-208 -208q0 -209 208 -209t208 209zM440 620q0 -93 -107 -93h-45v-102h-62v289h105
q109 0 109 -94zM367.5 584q12.5 11 12.5 36q0 26 -12.5 37.5t-41.5 11.5h-38v-96h38q29 0 41.5 11z" />
    <glyph glyph-name="uni2120" unicode="&#x2120;" horiz-adv-x="659" 
d="M119 607q15 -7 47 -12q46 -6 71 -20.5t25 -57.5q0 -38 -30.5 -60t-82.5 -22q-78 0 -117 30l30 51q37 -33 90 -33q27 0 39 6.5t12 21.5q0 13 -13 18.5t-41 10.5q-47 7 -74.5 23.5t-27.5 60.5q0 40 27.5 61t78.5 21q46 0 70.5 -16.5t24.5 -43.5q0 -9 -2 -16.5t-3 -11.5h-53
q3 12 3 18q0 24 -45 24q-44 0 -44 -28q0 -18 15 -25zM613 440h-69l1 198l-68 -198h-52l-69 198l2 -198h-62v260h105l58 -164l56 164h98v-260z" />
    <glyph glyph-name="trademark" unicode="&#x2122;" horiz-adv-x="656" 
d="M266 637h-85v-197h-74v197h-84v63h243v-63zM609 440h-69l2 201l-70 -201h-51l-69 194l1 -194h-61v260h103l60 -164l56 164h98v-260z" />
    <glyph glyph-name="uni2152" unicode="&#x2152;" horiz-adv-x="1142" 
d="M174 308h-92v285h-68l1 50q39 1 65 18t34 45h60v-398zM53 0l521 700h107l-521 -700h-107zM686 0h-92v285h-68l1 49q39 2 65 19t34 45h60v-398zM1067 350q42 -52 42 -151t-42 -152t-120 -53q-80 0 -122.5 52.5t-42.5 152.5q0 99 42.5 151t122.5 52q78 0 120 -52z
M888.5 301.5q-18.5 -33.5 -18.5 -102.5q0 -70 18.5 -103.5t58.5 -33.5q76 0 76 137q0 136 -76 136q-40 0 -58.5 -33.5z" />
    <glyph glyph-name="uni2153" unicode="&#x2153;" horiz-adv-x="847" 
d="M174 308h-92v285h-68l1 50q39 1 65 18t34 45h60v-398zM53 0l521 700h107l-521 -700h-107zM783 175q25 -25 25 -68q0 -51 -37 -82t-111 -31q-151 0 -151 121l81 9q1 -65 66 -65q35 0 52 15.5t17 41.5q0 33 -26 47.5t-74 14.5l-6 43q51 8 72.5 23.5t21.5 45.5q0 48 -55 48
q-27 0 -40.5 -12t-13.5 -32q0 -11 3 -23l-77 -7q-6 20 -6 41q0 46 35.5 71.5t100.5 25.5q67 0 101 -26.5t34 -72.5q0 -33 -20.5 -58t-55.5 -37q39 -8 64 -33z" />
    <glyph glyph-name="uni2154" unicode="&#x2154;" horiz-adv-x="966" 
d="M310 308h-285q-2 24 -2 36q0 36 15.5 62.5t38 44.5t57.5 40q45 29 66 50t21 52q0 54 -54 54q-27 0 -42 -13.5t-15 -35.5q0 -19 6 -33l-74 -7q-12 15 -12 46q0 49 37 77.5t103 28.5q68 0 102 -29t34 -83q0 -48 -28.5 -78.5t-81.5 -63.5q-35 -22 -54.5 -38.5t-27.5 -36.5
h196v-73zM173 0l521 700h107l-521 -700h-107zM903 175q25 -25 25 -68q0 -51 -37 -82t-111 -31q-151 0 -151 121l81 9q1 -65 66 -65q35 0 52 15.5t17 41.5q0 33 -26 47.5t-74 14.5l-6 43q51 8 72.5 23.5t21.5 45.5q0 48 -55 48q-27 0 -40.5 -12t-13.5 -32q0 -11 3 -23l-77 -7
q-6 20 -6 41q0 46 35.5 71.5t100.5 25.5q67 0 101 -26.5t34 -72.5q0 -33 -20.5 -58t-55.5 -37q39 -8 64 -33z" />
    <glyph glyph-name="uni2155" unicode="&#x2155;" horiz-adv-x="849" 
d="M174 308h-92v285h-68l1 50q39 1 65 18t34 45h60v-398zM53 0l521 700h107l-521 -700h-107zM788 221.5q33 -31.5 33 -92.5q0 -62 -38.5 -99t-111.5 -37q-69 0 -106 29.5t-39 83.5l81 10q2 -28 20 -42.5t46 -14.5q31 0 48.5 18.5t17.5 49.5q0 34 -16.5 52t-46.5 18
q-23 0 -40.5 -10t-25.5 -25l-77 5l20 230h245l2 -68h-181l-11 -111q16 16 40 25.5t53 9.5q54 0 87 -31.5z" />
    <glyph glyph-name="uni2156" unicode="&#x2156;" horiz-adv-x="969" 
d="M310 308h-285q-2 24 -2 36q0 36 15.5 62.5t38 44.5t57.5 40q45 29 66 50t21 52q0 54 -54 54q-27 0 -42 -13.5t-15 -35.5q0 -19 6 -33l-74 -7q-12 15 -12 46q0 49 37 77.5t103 28.5q68 0 102 -29t34 -83q0 -48 -28.5 -78.5t-81.5 -63.5q-35 -22 -54.5 -38.5t-27.5 -36.5
h196v-73zM173 0l521 700h107l-521 -700h-107zM908 221.5q33 -31.5 33 -92.5q0 -62 -38.5 -99t-111.5 -37q-69 0 -106 29.5t-39 83.5l81 10q2 -28 20 -42.5t46 -14.5q31 0 48.5 18.5t17.5 49.5q0 34 -16.5 52t-46.5 18q-23 0 -40.5 -10t-25.5 -25l-77 5l20 230h245l2 -68
h-181l-11 -111q16 16 40 25.5t53 9.5q54 0 87 -31.5z" />
    <glyph glyph-name="uni2157" unicode="&#x2157;" horiz-adv-x="956" 
d="M305 483q25 -25 25 -68q0 -51 -37 -82t-111 -31q-151 0 -151 121l81 9q1 -65 66 -65q35 0 52 15.5t17 42.5q0 33 -25.5 47t-74.5 14l-6 43q51 8 72.5 23.5t21.5 45.5q0 49 -55 49q-27 0 -40.5 -12t-13.5 -33q0 -11 3 -23l-77 -7q-6 20 -6 42q0 45 35.5 70.5t100.5 25.5
q67 0 101 -26t34 -73q0 -33 -20.5 -58t-55.5 -37q39 -8 64 -33zM160 0l521 700h107l-521 -700h-107zM895 221.5q33 -31.5 33 -92.5q0 -62 -38.5 -99t-111.5 -37q-69 0 -106 29.5t-39 83.5l81 10q2 -28 20 -42.5t46 -14.5q31 0 48.5 18.5t17.5 49.5q0 34 -16.5 52t-46.5 18
q-23 0 -40.5 -10t-25.5 -25l-77 5l20 230h245l2 -68h-181l-11 -111q16 16 40 25.5t53 9.5q54 0 87 -31.5z" />
    <glyph glyph-name="uni2158" unicode="&#x2158;" horiz-adv-x="966" 
d="M291 387v-79h-84v79h-191v48l156 270h119v-253h55v-65h-55zM207 645l-106 -193h106v193zM170 0l521 700h107l-521 -700h-107zM905 221.5q33 -31.5 33 -92.5q0 -62 -38.5 -99t-111.5 -37q-69 0 -106 29.5t-39 83.5l81 10q2 -28 20 -42.5t46 -14.5q31 0 48.5 18.5
t17.5 49.5q0 34 -16.5 52t-46.5 18q-23 0 -40.5 -10t-25.5 -25l-77 5l20 230h245l2 -68h-181l-11 -111q16 16 40 25.5t53 9.5q54 0 87 -31.5z" />
    <glyph glyph-name="uni2159" unicode="&#x2159;" horiz-adv-x="838" 
d="M174 308h-92v285h-68l1 50q39 1 65 18t34 45h60v-398zM53 0l521 700h107l-521 -700h-107zM780.5 210.5q30.5 -31.5 30.5 -84.5q0 -62 -37.5 -97t-103.5 -35t-106 38q-50 50 -50 165q0 100 42 152.5t122 52.5q57 0 90 -24.5t33 -66.5q0 -12 -6 -30l-72 1q3 9 3 19
q0 18 -12.5 29t-36.5 11q-40 0 -59.5 -35t-19.5 -109v-4q14 24 38.5 36.5t57.5 12.5q56 0 86.5 -31.5zM713.5 75q15.5 17 15.5 47q0 31 -16 47.5t-45 16.5q-27 0 -43.5 -17.5t-16.5 -46.5q0 -24 16 -44t46 -20q28 0 43.5 17z" />
    <glyph glyph-name="uni215A" unicode="&#x215a;" horiz-adv-x="928" 
d="M290 530.5q33 -31.5 33 -93.5q0 -61 -38.5 -98t-111.5 -38q-69 0 -106 29.5t-39 83.5l81 10q2 -28 20 -42t46 -14q31 0 48.5 18t17.5 49q0 34 -16.5 52t-46.5 18q-23 0 -40.5 -9.5t-25.5 -25.5l-77 5l20 230h245l2 -68h-181l-11 -111q16 17 39.5 26.5t53.5 9.5
q54 0 87 -31.5zM143 0l521 700h107l-521 -700h-107zM870.5 210.5q30.5 -31.5 30.5 -84.5q0 -62 -37.5 -97t-103.5 -35t-106 38q-50 50 -50 165q0 100 42 152.5t122 52.5q57 0 90 -24.5t33 -66.5q0 -12 -6 -30l-72 1q3 9 3 19q0 18 -12.5 29t-36.5 11q-40 0 -59.5 -35
t-19.5 -109v-4q14 24 38.5 36.5t57.5 12.5q56 0 86.5 -31.5zM803.5 75q15.5 17 15.5 47q0 31 -16 47.5t-45 16.5q-27 0 -43.5 -17.5t-16.5 -46.5q0 -24 16 -44t46 -20q28 0 43.5 17z" />
    <glyph glyph-name="oneeighth" unicode="&#x215b;" horiz-adv-x="834" 
d="M174 308h-92v285h-68l1 50q39 1 65 18t34 45h60v-398zM53 0l521 700h107l-521 -700h-107zM784 168q21 -26 21 -65q0 -52 -39.5 -80.5t-111.5 -28.5q-73 0 -112.5 28.5t-39.5 80.5q0 40 21 65.5t59 34.5q-32 10 -49.5 34t-17.5 59q0 50 36 78.5t103 28.5q66 0 102 -28
t36 -79q0 -35 -18 -59t-50 -34q39 -9 60 -35zM610.5 330.5q-15.5 -15.5 -15.5 -42.5q0 -28 15 -43t44 -15q27 0 41.5 15t14.5 43q0 27 -14.5 42.5t-41.5 15.5q-28 0 -43.5 -15.5zM701.5 66q17.5 16 17.5 44q0 30 -17.5 45.5t-47.5 15.5q-32 0 -49 -15.5t-17 -45.5
q0 -28 17 -44t49 -16q30 0 47.5 16z" />
    <glyph glyph-name="threeeighths" unicode="&#x215c;" horiz-adv-x="940" 
d="M305 483q25 -25 25 -68q0 -51 -37 -82t-111 -31q-151 0 -151 121l81 9q1 -65 66 -65q35 0 52 15.5t17 42.5q0 33 -25.5 47t-74.5 14l-6 43q51 8 72.5 23.5t21.5 45.5q0 49 -55 49q-27 0 -40.5 -12t-13.5 -33q0 -11 3 -23l-77 -7q-6 20 -6 42q0 45 35.5 70.5t100.5 25.5
q67 0 101 -26t34 -73q0 -33 -20.5 -58t-55.5 -37q39 -8 64 -33zM160 0l521 700h107l-521 -700h-107zM891 168q21 -26 21 -65q0 -52 -39.5 -80.5t-111.5 -28.5q-73 0 -112.5 28.5t-39.5 80.5q0 40 21 65.5t59 34.5q-32 10 -49.5 34t-17.5 59q0 50 36 78.5t103 28.5
q66 0 102 -28t36 -79q0 -35 -18 -59t-50 -34q39 -9 60 -35zM717.5 330.5q-15.5 -15.5 -15.5 -42.5q0 -28 15 -43t44 -15q27 0 41.5 15t14.5 43q0 27 -14.5 42.5t-41.5 15.5q-28 0 -43.5 -15.5zM808.5 66q17.5 16 17.5 44q0 30 -17.5 45.5t-47.5 15.5q-32 0 -49 -15.5
t-17 -45.5q0 -28 17 -44t49 -16q30 0 47.5 16z" />
    <glyph glyph-name="fiveeighths" unicode="&#x215d;" horiz-adv-x="923" 
d="M290 530.5q33 -31.5 33 -93.5q0 -61 -38.5 -98t-111.5 -38q-69 0 -106 29.5t-39 83.5l81 10q2 -28 20 -42t46 -14q31 0 48.5 18t17.5 49q0 34 -16.5 52t-46.5 18q-23 0 -40.5 -9.5t-25.5 -25.5l-77 5l20 230h245l2 -68h-181l-11 -111q16 17 39.5 26.5t53.5 9.5
q54 0 87 -31.5zM143 0l521 700h107l-521 -700h-107zM874 168q21 -26 21 -65q0 -52 -39.5 -80.5t-111.5 -28.5q-73 0 -112.5 28.5t-39.5 80.5q0 40 21 65.5t59 34.5q-32 10 -49.5 34t-17.5 59q0 50 36 78.5t103 28.5q66 0 102 -28t36 -79q0 -35 -18 -59t-50 -34q39 -9 60 -35
zM700.5 330.5q-15.5 -15.5 -15.5 -42.5q0 -28 15 -43t44 -15q27 0 41.5 15t14.5 43q0 27 -14.5 42.5t-41.5 15.5q-28 0 -43.5 -15.5zM791.5 66q17.5 16 17.5 44q0 30 -17.5 45.5t-47.5 15.5q-32 0 -49 -15.5t-17 -45.5q0 -28 17 -44t49 -16q30 0 47.5 16z" />
    <glyph glyph-name="seveneighths" unicode="&#x215e;" horiz-adv-x="851" 
d="M292 646q-58 -56 -91 -145t-33 -193h-94q0 94 35 180.5t97 145.5h-192v71h278v-59zM71 0l521 700h107l-521 -700h-107zM802 168q21 -26 21 -65q0 -52 -39.5 -80.5t-111.5 -28.5q-73 0 -112.5 28.5t-39.5 80.5q0 40 21 65.5t59 34.5q-32 10 -49.5 34t-17.5 59
q0 50 36 78.5t103 28.5q66 0 102 -28t36 -79q0 -35 -18 -59t-50 -34q39 -9 60 -35zM628.5 330.5q-15.5 -15.5 -15.5 -42.5q0 -28 15 -43t44 -15q27 0 41.5 15t14.5 43q0 27 -14.5 42.5t-41.5 15.5q-28 0 -43.5 -15.5zM719.5 66q17.5 16 17.5 44q0 30 -17.5 45.5t-47.5 15.5
q-32 0 -49 -15.5t-17 -45.5q0 -28 17 -44t49 -16q30 0 47.5 16z" />
    <glyph glyph-name="onefraction" unicode="&#x215f;" horiz-adv-x="553" 
d="M174 308h-92v285h-68l1 50q39 1 65 18t34 45h60v-398zM53 0l521 700h107l-521 -700h-107z" />
    <glyph glyph-name="zerothird" unicode="&#x2189;" horiz-adv-x="968" 
d="M318 653q42 -52 42 -151t-42 -152t-120 -53q-80 0 -122.5 52.5t-42.5 152.5q0 99 42.5 151t122.5 52q78 0 120 -52zM139.5 604.5q-18.5 -33.5 -18.5 -102.5q0 -70 18.5 -103.5t58.5 -33.5q76 0 76 137q0 136 -76 136q-40 0 -58.5 -33.5zM175 0l521 700h107l-521 -700
h-107zM905 175q25 -25 25 -68q0 -51 -37 -82t-111 -31q-151 0 -151 121l81 9q1 -65 66 -65q35 0 52 15.5t17 41.5q0 33 -26 47.5t-74 14.5l-6 43q51 8 72.5 23.5t21.5 45.5q0 48 -55 48q-27 0 -40.5 -12t-13.5 -32q0 -11 3 -23l-77 -7q-6 20 -6 41q0 46 35.5 71.5
t100.5 25.5q67 0 101 -26.5t34 -72.5q0 -33 -20.5 -58t-55.5 -37q39 -8 64 -33z" />
    <glyph glyph-name="arrowleft" unicode="&#x2190;" horiz-adv-x="630" 
d="M189 145h110l-84 160h322v104h-322l84 160h-110l-100 -212z" />
    <glyph glyph-name="arrowup" unicode="&#x2191;" horiz-adv-x="577" 
d="M78 462v-110l160 84v-322h104v322l160 -84v110l-212 100z" />
    <glyph glyph-name="arrowright" unicode="&#x2192;" horiz-adv-x="630" 
d="M441 145h-110l84 160h-322v104h322l-84 160h110l100 -212z" />
    <glyph glyph-name="arrowdown" unicode="&#x2193;" horiz-adv-x="574" 
d="M75 225v110l160 -84v322h104v-322l160 84v-110l-212 -100z" />
    <glyph glyph-name="uni2194" unicode="&#x2194;" horiz-adv-x="930" 
d="M741 145h-110l84 160h-500l84 -160h-110l-100 212l100 212h110l-84 -160h500l-84 160h110l100 -212z" />
    <glyph glyph-name="arrowupdn" unicode="&#x2195;" horiz-adv-x="574" 
d="M75 90v110l160 -84v500l-160 -84v110l212 100l212 -100v-110l-160 84v-500l160 84v-110l-212 -100z" />
    <glyph glyph-name="partialdiff" unicode="&#x2202;" horiz-adv-x="541" 
d="M342 707.5q89 -50.5 125.5 -145.5t36.5 -263q0 -159 -58 -234.5t-173 -75.5q-114 0 -174.5 68t-60.5 197q0 126 59.5 193.5t166.5 67.5q88 0 140 -54q-14 77 -49.5 119.5t-97.5 65t-171 36.5v100q167 -24 256 -74.5zM360 118.5q28 45.5 28 141.5q0 87 -28.5 129.5
t-86.5 42.5q-60 0 -90 -44t-30 -134q0 -92 29.5 -136t90.5 -45q59 0 87 45.5z" />
    <glyph glyph-name="emptyset" unicode="&#x2205;" horiz-adv-x="815" 
d="M674 370q0 -78 -34 -139t-94.5 -95.5t-137.5 -34.5q-95 0 -165 51l-109 -110l-51 49l110 111q-53 70 -53 168q0 78 34 139t95 95t139 34q94 0 165 -52l109 111l50 -50l-110 -111q52 -69 52 -166zM247 257l274 277q-46 34 -113 34q-85 0 -137 -54.5t-52 -143.5
q0 -65 28 -113zM568 481l-273 -276q46 -34 113 -34q85 0 136 54.5t51 144.5q0 64 -27 111z" />
    <glyph glyph-name="product" unicode="&#x220f;" horiz-adv-x="762" 
d="M614 596v-796h-122v796h-223v-796h-122v796h-103v104h673v-104h-103z" />
    <glyph glyph-name="summation" unicode="&#x2211;" horiz-adv-x="525" 
d="M491 -200h-462v67l235 381l-225 374v78h442v-101h-278l193 -343l-206 -350h301v-106z" />
    <glyph glyph-name="minus" unicode="&#x2212;" horiz-adv-x="550" 
d="M93 309v88h364v-88h-364z" />
    <glyph glyph-name="radical" unicode="&#x221a;" horiz-adv-x="611" 
d="M352 0h-143l-94 265h-91v61h199l69 -233l192 607h107z" />
    <glyph glyph-name="infinity" unicode="&#x221e;" horiz-adv-x="946" 
d="M812 504.5q45 -25.5 70.5 -70t25.5 -101.5t-26 -102t-72.5 -70t-104.5 -25q-69 0 -128 32.5t-118 89.5q-54 -58 -106.5 -90t-117.5 -32q-56 0 -101 25.5t-70.5 70t-25.5 101.5t26 102t73 70t106 25q69 0 127 -32t117 -89q56 57 108.5 89t115.5 32q56 0 101 -25.5z
M791 269q29 29 29 75q0 44 -30 74t-74 30q-47 0 -87.5 -25t-84.5 -71q55 -56 93.5 -84t78.5 -28q46 0 75 29zM314 243.5q40 25.5 86 72.5q-54 55 -92 82.5t-78 27.5q-46 0 -75 -29t-29 -75q0 -44 29.5 -74t74.5 -30q44 0 84 25.5z" />
    <glyph glyph-name="integral" unicode="&#x222b;" horiz-adv-x="340" 
d="M412 737l-28 -81q-12 14 -31.5 22t-42.5 8q-40 0 -61 -30t-21 -91v-571q0 -205 -192 -205q-53 0 -108 21l28 81q26 -29 74 -29q40 0 61 30t21 91v571q0 204 193 204q59 0 107 -21z" />
    <glyph glyph-name="approxequal" unicode="&#x2248;" horiz-adv-x="550" 
d="M447 406q-30 -36 -89 -36q-25 0 -48 8t-54 24q-23 12 -38 17.5t-28 5.5q-24 0 -37.5 -14.5t-13.5 -41.5h-59q0 70 29 106t85 36q27 0 51 -8t56 -24q23 -12 38 -17.5t28 -5.5q51 0 51 55h59q0 -69 -30 -105zM364 183q-27 0 -51 8t-56 24q-25 12 -39.5 17.5t-27.5 5.5
q-24 0 -37.5 -14.5t-13.5 -41.5h-59q0 70 29 106t85 36q27 0 51 -8t56 -24q23 -12 38 -17.5t28 -5.5q51 0 51 55h59q0 -141 -113 -141z" />
    <glyph glyph-name="notequal" unicode="&#x2260;" horiz-adv-x="550" 
d="M303 303h143v-92h-157l-27 -180h-72l27 180h-113v92h127l14 100h-141v92h155l27 180h72l-27 -180h115v-92h-129z" />
    <glyph glyph-name="lessequal" unicode="&#x2264;" horiz-adv-x="550" 
d="M73 393l385 -170v111l-285 103l285 103v111l-385 -170v-88zM82 59v88h377v-88h-377z" />
    <glyph glyph-name="greaterequal" unicode="&#x2265;" horiz-adv-x="550" 
d="M474 399l-385 -170v111l285 103l-285 103v111l385 -170v-88zM465 59v88h-377v-88h377z" />
    <glyph glyph-name="triagup" unicode="&#x25b2;" horiz-adv-x="600" 
d="M595 20v-20h-590v20l285 716h20z" />
    <glyph glyph-name="lozenge" unicode="&#x25ca;" horiz-adv-x="563" 
d="M351 0h-138l-174 350l173 349h138l174 -349zM279 628l-122 -276l128 -283l122 273z" />
    <glyph glyph-name="a.ss01" horiz-adv-x="565" 
d="M503 0h-98l-10 91q-23 -49 -63.5 -75.5t-94.5 -26.5q-90 0 -142.5 66.5t-52.5 193.5q0 88 27 149.5t75 92.5t111 31q97 0 156 -59l25 48h67v-511zM354 111.5q28 29.5 33 85.5v209q-39 30 -100 30t-95 -43.5t-34 -133.5q0 -87 31.5 -132t88.5 -45q48 0 76 29.5z" />
    <glyph glyph-name="aacute.ss01" horiz-adv-x="565" 
d="M503 0h-98l-10 91q-23 -49 -63.5 -75.5t-94.5 -26.5q-90 0 -142.5 66.5t-52.5 193.5q0 88 27 149.5t75 92.5t111 31q97 0 156 -59l25 48h67v-511zM354 111.5q28 29.5 33 85.5v209q-39 30 -100 30t-95 -43.5t-34 -133.5q0 -87 31.5 -132t88.5 -45q48 0 76 29.5zM242 570
l77 156h131l-107 -156h-101z" />
    <glyph glyph-name="abreve.ss01" horiz-adv-x="565" 
d="M503 0h-98l-10 91q-23 -49 -63.5 -75.5t-94.5 -26.5q-90 0 -142.5 66.5t-52.5 193.5q0 88 27 149.5t75 92.5t111 31q97 0 156 -59l25 48h67v-511zM354 111.5q28 29.5 33 85.5v209q-39 30 -100 30t-95 -43.5t-34 -133.5q0 -87 31.5 -132t88.5 -45q48 0 76 29.5zM409.5 608
q-36.5 -35 -113.5 -35q-76 0 -112.5 35.5t-36.5 110.5h62q0 -72 87 -72q89 0 89 72h61q0 -76 -36.5 -111z" />
    <glyph glyph-name="acircumflex.ss01" horiz-adv-x="565" 
d="M503 0h-98l-10 91q-23 -49 -63.5 -75.5t-94.5 -26.5q-90 0 -142.5 66.5t-52.5 193.5q0 88 27 149.5t75 92.5t111 31q97 0 156 -59l25 48h67v-511zM354 111.5q28 29.5 33 85.5v209q-39 30 -100 30t-95 -43.5t-34 -133.5q0 -87 31.5 -132t88.5 -45q48 0 76 29.5zM294 662
l-72 -92h-89l103 156h121l102 -156h-89z" />
    <glyph glyph-name="adieresis.ss01" horiz-adv-x="565" 
d="M153.5 605q-17.5 15 -17.5 44t17.5 44.5t49.5 15.5t50 -15.5t18 -44.5t-17.5 -44t-50.5 -15q-32 0 -49.5 15zM339.5 605q-17.5 15 -17.5 44t17.5 44.5t49.5 15.5t50 -15.5t18 -44.5t-17.5 -44t-50.5 -15q-32 0 -49.5 15zM503 0h-98l-10 91q-23 -49 -63.5 -75.5
t-94.5 -26.5q-90 0 -142.5 66.5t-52.5 193.5q0 88 27 149.5t75 92.5t111 31q97 0 156 -59l25 48h67v-511zM354 111.5q28 29.5 33 85.5v209q-39 30 -100 30t-95 -43.5t-34 -133.5q0 -87 31.5 -132t88.5 -45q48 0 76 29.5z" />
    <glyph glyph-name="agrave.ss01" horiz-adv-x="565" 
d="M503 0h-98l-10 91q-23 -49 -63.5 -75.5t-94.5 -26.5q-90 0 -142.5 66.5t-52.5 193.5q0 88 27 149.5t75 92.5t111 31q97 0 156 -59l25 48h67v-511zM354 111.5q28 29.5 33 85.5v209q-39 30 -100 30t-95 -43.5t-34 -133.5q0 -87 31.5 -132t88.5 -45q48 0 76 29.5zM262 570
l-107 156h134l77 -156h-104z" />
    <glyph glyph-name="amacron.ss01" horiz-adv-x="565" 
d="M503 0h-98l-10 91q-23 -49 -63.5 -75.5t-94.5 -26.5q-90 0 -142.5 66.5t-52.5 193.5q0 88 27 149.5t75 92.5t111 31q97 0 156 -59l25 48h67v-511zM354 111.5q28 29.5 33 85.5v209q-39 30 -100 30t-95 -43.5t-34 -133.5q0 -87 31.5 -132t88.5 -45q48 0 76 29.5zM449 600
h-306v84h306v-84z" />
    <glyph glyph-name="aogonek.ss01" horiz-adv-x="565" 
d="M453 -53.5q-12 -23.5 -12 -47.5q0 -17 7.5 -26t19.5 -9q15 0 27 7l7 -57q-14 -7 -25.5 -10.5t-30.5 -3.5q-37 0 -60 20.5t-23 56.5q0 33 20.5 65t53.5 58h-32l-10 91q-23 -49 -63.5 -75.5t-94.5 -26.5q-90 0 -142.5 66.5t-52.5 193.5q0 88 27 149.5t75 92.5t111 31
q97 0 156 -59l25 48h67v-511h-14q-24 -30 -36 -53.5zM354 111.5q28 29.5 33 85.5v209q-39 30 -100 30t-95 -43.5t-34 -133.5q0 -87 31.5 -132t88.5 -45q48 0 76 29.5z" />
    <glyph glyph-name="aring.ss01" horiz-adv-x="565" 
d="M503 0h-98l-10 91q-23 -49 -63.5 -75.5t-94.5 -26.5q-90 0 -142.5 66.5t-52.5 193.5q0 88 27 149.5t75 92.5t111 31q97 0 156 -59l25 48h67v-511zM354 111.5q28 29.5 33 85.5v209q-39 30 -100 30t-95 -43.5t-34 -133.5q0 -87 31.5 -132t88.5 -45q48 0 76 29.5zM399 717
q33 -21 33 -66q0 -46 -33 -67.5t-102 -21.5t-102 21.5t-33 67.5q0 45 33 66t102 21t102 -21zM260 688q-14 -13 -14 -37t14.5 -38t38.5 -14q22 0 36 14t14 38t-13.5 37t-36.5 13q-25 0 -39 -13z" />
    <glyph glyph-name="aringacute.ss01" horiz-adv-x="565" 
d="M181 578q-33 20 -33 64q0 35 20.5 54t64.5 25l71 142h135l-99 -143q40 -7 59.5 -26t19.5 -52q0 -44 -33 -64t-102 -20q-70 0 -103 20zM323.5 605.5q14.5 12.5 14.5 36.5t-14.5 36t-39.5 12t-40 -12.5t-15 -35.5q0 -24 14.5 -36.5t40.5 -12.5q25 0 39.5 12.5zM503 0h-98
l-10 91q-23 -49 -63.5 -75.5t-94.5 -26.5q-90 0 -142.5 66.5t-52.5 193.5q0 88 27 149.5t75 92.5t111 31q97 0 156 -59l25 48h67v-511zM354 111.5q28 29.5 33 85.5v209q-39 30 -100 30t-95 -43.5t-34 -133.5q0 -87 31.5 -132t88.5 -45q48 0 76 29.5z" />
    <glyph glyph-name="atilde.ss01" horiz-adv-x="565" 
d="M503 0h-98l-10 91q-23 -49 -63.5 -75.5t-94.5 -26.5q-90 0 -142.5 66.5t-52.5 193.5q0 88 27 149.5t75 92.5t111 31q97 0 156 -59l25 48h67v-511zM354 111.5q28 29.5 33 85.5v209q-39 30 -100 30t-95 -43.5t-34 -133.5q0 -87 31.5 -132t88.5 -45q48 0 76 29.5zM356 581
q-22 0 -42 8t-44 22q-35 20 -51 20q-19 0 -29 -12.5t-10 -36.5h-53q0 62 24 93.5t71 31.5q23 0 44 -8t46 -22q33 -20 50 -20q40 0 40 49h53q0 -125 -99 -125z" />
    <glyph glyph-name="g.ss02" horiz-adv-x="538" 
d="M228 115.5q27 -11.5 84 -22.5q61 -12 100.5 -26t68.5 -44t29 -81q0 -70 -64 -111.5t-196 -41.5q-126 0 -181.5 35.5t-55.5 94.5q0 86 137 116q-46 26 -46 76q0 31 20 54t54 36q-58 17 -90.5 57t-32.5 98q0 77 54 121.5t148 44.5q78 0 130 -32l16 21h105v-76l-71 4
q21 -36 21 -83q0 -76 -55.5 -121t-145.5 -45q-19 0 -28 1q-28 -13 -28 -41q0 -23 27 -34.5zM160 356q0 -102 98 -102q95 0 95 102q0 103 -95 103q-98 0 -98 -103zM393 -79q0 22 -17 36t-41 22t-69 18q-9 2 -25 5.5t-27 6.5q-53 -11 -76.5 -30t-23.5 -47q0 -35 33.5 -54.5
t117.5 -19.5q128 0 128 63z" />
    <glyph glyph-name="gbreve.ss02" horiz-adv-x="538" 
d="M228 115.5q27 -11.5 84 -22.5q61 -12 100.5 -26t68.5 -44t29 -81q0 -70 -64 -111.5t-196 -41.5q-126 0 -181.5 35.5t-55.5 94.5q0 86 137 116q-46 26 -46 76q0 31 20 54t54 36q-58 17 -90.5 57t-32.5 98q0 77 54 121.5t148 44.5q78 0 130 -32l16 21h105v-76l-71 4
q21 -36 21 -83q0 -76 -55.5 -121t-145.5 -45q-19 0 -28 1q-28 -13 -28 -41q0 -23 27 -34.5zM160 356q0 -102 98 -102q95 0 95 102q0 103 -95 103q-98 0 -98 -103zM393 -79q0 22 -17 36t-41 22t-69 18q-9 2 -25 5.5t-27 6.5q-53 -11 -76.5 -30t-23.5 -47q0 -35 33.5 -54.5
t117.5 -19.5q128 0 128 63zM381.5 608q-36.5 -35 -113.5 -35q-76 0 -112.5 35.5t-36.5 110.5h62q0 -72 87 -72q89 0 89 72h61q0 -76 -36.5 -111z" />
    <glyph glyph-name="gcommaaccent.ss02" horiz-adv-x="538" 
d="M228 115.5q27 -11.5 84 -22.5q61 -12 100.5 -26t68.5 -44t29 -81q0 -70 -64 -111.5t-196 -41.5q-126 0 -181.5 35.5t-55.5 94.5q0 86 137 116q-46 26 -46 76q0 31 20 54t54 36q-58 17 -90.5 57t-32.5 98q0 77 54 121.5t148 44.5q78 0 130 -32l16 21h105v-76l-71 4
q21 -36 21 -83q0 -76 -55.5 -121t-145.5 -45q-19 0 -28 1q-28 -13 -28 -41q0 -23 27 -34.5zM160 356q0 -102 98 -102q95 0 95 102q0 103 -95 103q-98 0 -98 -103zM393 -79q0 22 -17 36t-41 22t-69 18q-9 2 -25 5.5t-27 6.5q-53 -11 -76.5 -30t-23.5 -47q0 -35 33.5 -54.5
t117.5 -19.5q128 0 128 63zM212 579.5q-21 20.5 -21 55.5q0 42 31.5 65t96.5 24l4 -28q-51 -1 -72.5 -15.5t-21.5 -41.5q0 -9 4 -16q9 25 46 25q27 0 42 -12t15 -33t-16 -32.5t-47 -11.5q-40 0 -61 20.5z" />
    <glyph glyph-name="gdotaccent.ss02" horiz-adv-x="538" 
d="M228 115.5q27 -11.5 84 -22.5q61 -12 100.5 -26t68.5 -44t29 -81q0 -70 -64 -111.5t-196 -41.5q-126 0 -181.5 35.5t-55.5 94.5q0 86 137 116q-46 26 -46 76q0 31 20 54t54 36q-58 17 -90.5 57t-32.5 98q0 77 54 121.5t148 44.5q78 0 130 -32l16 21h105v-76l-71 4
q21 -36 21 -83q0 -76 -55.5 -121t-145.5 -45q-19 0 -28 1q-28 -13 -28 -41q0 -23 27 -34.5zM160 356q0 -102 98 -102q95 0 95 102q0 103 -95 103q-98 0 -98 -103zM393 -79q0 22 -17 36t-41 22t-69 18q-9 2 -25 5.5t-27 6.5q-53 -11 -76.5 -30t-23.5 -47q0 -35 33.5 -54.5
t117.5 -19.5q128 0 128 63zM320.5 698q18.5 -16 18.5 -46t-18.5 -45.5t-53.5 -15.5q-34 0 -52.5 15.5t-18.5 45.5t18.5 46t52.5 16q35 0 53.5 -16z" />
    <glyph glyph-name="i.loclTRK" horiz-adv-x="287" 
d="M83 0v511h121v-511h-121zM195.5 698q18.5 -16 18.5 -46t-18.5 -45.5t-53.5 -15.5q-34 0 -52.5 15.5t-18.5 45.5t18.5 46t52.5 16q35 0 53.5 -16z" />
    <glyph glyph-name="y.ss03" horiz-adv-x="557" 
d="M495 59q0 -132 -64 -201t-187 -69q-115 0 -207 45l55 106q61 -63 147 -63q71 0 105.5 40.5t34.5 130.5v31q-25 -41 -66 -64t-92 -23q-82 0 -124 45.5t-42 147.5v326h116v-310q0 -59 23.5 -86t72.5 -27q52 0 82 29t30 88v306h116v-452z" />
    <glyph glyph-name="yacute.ss03" horiz-adv-x="557" 
d="M495 59q0 -132 -64 -201t-187 -69q-115 0 -207 45l55 106q61 -63 147 -63q71 0 105.5 40.5t34.5 130.5v31q-25 -41 -66 -64t-92 -23q-82 0 -124 45.5t-42 147.5v326h116v-310q0 -59 23.5 -86t72.5 -27q52 0 82 29t30 88v306h116v-452zM224 570l77 156h131l-107 -156h-101
z" />
    <glyph glyph-name="ycircumflex.ss03" horiz-adv-x="557" 
d="M495 59q0 -132 -64 -201t-187 -69q-115 0 -207 45l55 106q61 -63 147 -63q71 0 105.5 40.5t34.5 130.5v31q-25 -41 -66 -64t-92 -23q-82 0 -124 45.5t-42 147.5v326h116v-310q0 -59 23.5 -86t72.5 -27q52 0 82 29t30 88v306h116v-452zM277 662l-72 -92h-89l103 156h121
l102 -156h-89z" />
    <glyph glyph-name="ydieresis.ss03" horiz-adv-x="557" 
d="M136.5 605q-17.5 15 -17.5 44t17.5 44.5t49.5 15.5t50 -15.5t18 -44.5t-17.5 -44t-50.5 -15q-32 0 -49.5 15zM322.5 605q-17.5 15 -17.5 44t17.5 44.5t49.5 15.5t50 -15.5t18 -44.5t-17.5 -44t-50.5 -15q-32 0 -49.5 15zM495 59q0 -132 -64 -201t-187 -69q-115 0 -207 45
l55 106q61 -63 147 -63q71 0 105.5 40.5t34.5 130.5v31q-25 -41 -66 -64t-92 -23q-82 0 -124 45.5t-42 147.5v326h116v-310q0 -59 23.5 -86t72.5 -27q52 0 82 29t30 88v306h116v-452z" />
    <glyph glyph-name="ygrave.ss03" horiz-adv-x="557" 
d="M495 59q0 -132 -64 -201t-187 -69q-115 0 -207 45l55 106q61 -63 147 -63q71 0 105.5 40.5t34.5 130.5v31q-25 -41 -66 -64t-92 -23q-82 0 -124 45.5t-42 147.5v326h116v-310q0 -59 23.5 -86t72.5 -27q52 0 82 29t30 88v306h116v-452zM244 570l-107 156h134l77 -156h-104
z" />
    <glyph glyph-name="T_h" horiz-adv-x="1101" 
d="M978 471q39 -51 39 -161v-310h-115v301q0 63 -24.5 94t-77.5 31t-83.5 -33.5t-30.5 -96.5v-296h-115v596h-222v-596h-121v596h-214v104h557v48h115v-341q20 57 63 86t105 29q85 0 124 -51z" />
    <glyph glyph-name="w_w_w" horiz-adv-x="2119" 
d="M1962 0h-126l-100 374l-98 -374h-126l-115 431l-110 -431h-126l-100 374l-98 -374h-126l-115 435l-110 -435h-126l-100 374l-98 -374h-126l-136 512h110l101 -388l103 388h104l106 -388l95 388h167l101 -387l102 387h105l105 -388l96 388h165l101 -388l103 388h104
l106 -388l96 388h96z" />
    <glyph glyph-name="zero.slash" horiz-adv-x="612" 
d="M500 619q66 -92 66 -267q0 -177 -66 -270t-191 -93q-128 0 -195 93t-67 270q0 175 67 267t195 92q125 0 191 -92zM204.5 548q-33.5 -64 -33.5 -196q0 -134 33.5 -199t103.5 -65q67 0 100.5 65t33.5 199q0 260 -134 260q-70 0 -103.5 -64zM345.5 399.5
q13.5 -13.5 13.5 -37.5q0 -23 -13.5 -36.5t-37.5 -13.5t-37 13.5t-13 36.5q0 24 13 37.5t37 13.5t37.5 -13.5z" />
    <glyph glyph-name="zero.tf.slash" horiz-adv-x="580" 
d="M473.5 618.5q64.5 -92.5 64.5 -266.5q0 -176 -64.5 -269.5t-181.5 -93.5q-120 0 -185 93.5t-65 269.5q0 174 65 266.5t185 92.5q117 0 181.5 -92.5zM193.5 549.5q-32.5 -62.5 -32.5 -197.5q0 -137 32.5 -200.5t97.5 -63.5q64 0 96.5 64t32.5 200q0 134 -32.5 197
t-96.5 63q-65 0 -97.5 -62.5zM327.5 403q12.5 -14 12.5 -39q0 -24 -12.5 -38t-36.5 -14t-37 14t-13 38q0 25 13 39t37 14t36.5 -14z" />
    <glyph glyph-name="zero.ss04" horiz-adv-x="1316" 
d="M944.5 836q127.5 -72 199.5 -199.5t72 -286.5t-72 -286.5t-199.5 -199.5t-286.5 -72t-286.5 72t-199.5 199.5t-72 286.5t72 286.5t199.5 199.5t286.5 72t286.5 -72zM412.5 774.5q-109.5 -63.5 -172 -174.5t-62.5 -250t62.5 -250t172 -174.5t245.5 -63.5q137 0 246.5 63.5
t171.5 174.5t62 250t-62 250t-171.5 174.5t-246.5 63.5q-136 0 -245.5 -63.5zM783 501q43 -53 43 -152t-43 -152t-123 -53q-82 0 -125.5 52.5t-43.5 152.5t43.5 152.5t125.5 52.5q80 0 123 -53zM599.5 450q-19.5 -33 -19.5 -101t19.5 -101.5t59.5 -33.5q77 0 77 135
q0 134 -77 134q-40 0 -59.5 -33z" />
    <glyph glyph-name="one.ss04" horiz-adv-x="1316" 
d="M944.5 836q127.5 -72 199.5 -199.5t72 -286.5t-72 -286.5t-199.5 -199.5t-286.5 -72t-286.5 72t-199.5 199.5t-72 286.5t72 286.5t199.5 199.5t286.5 72t286.5 -72zM904.5 -74.5q109.5 63.5 171.5 174.5t62 250t-62 250t-171.5 174.5t-246.5 63.5q-136 0 -245.5 -63.5
t-172 -174.5t-62.5 -250t62.5 -250t172 -174.5t245.5 -63.5q137 0 246.5 63.5zM782 216v-67h-263v67h89v213h-75l-1 54q42 2 70.5 19.5t37.5 44.5h71v-331h71z" />
    <glyph glyph-name="two.ss04" horiz-adv-x="1316" 
d="M944.5 836q127.5 -72 199.5 -199.5t72 -286.5t-72 -286.5t-199.5 -199.5t-286.5 -72t-286.5 72t-199.5 199.5t-72 286.5t72 286.5t199.5 199.5t286.5 72t286.5 -72zM904.5 -74.5q109.5 63.5 171.5 174.5t62 250t-62 250t-171.5 174.5t-246.5 63.5q-136 0 -245.5 -63.5
t-172 -174.5t-62.5 -250t62.5 -250t172 -174.5t245.5 -63.5q137 0 246.5 63.5zM785.5 381.5q-15.5 -24.5 -37 -41.5t-58.5 -41q-37 -23 -55.5 -38.5t-27.5 -35.5h198v-75h-290q-1 12 -1 37q0 35 15.5 61t38 44t57.5 40q46 29 67.5 50t21.5 53q0 25 -14 38.5t-40 13.5
q-28 0 -43 -13t-15 -35q0 -20 7 -33l-76 -7q-13 14 -13 47q0 48 38 77t105 29q69 0 103.5 -29.5t34.5 -83.5q0 -33 -15.5 -57.5z" />
    <glyph glyph-name="three.ss04" horiz-adv-x="1316" 
d="M944.5 836q127.5 -72 199.5 -199.5t72 -286.5t-72 -286.5t-199.5 -199.5t-286.5 -72t-286.5 72t-199.5 199.5t-72 286.5t72 286.5t199.5 199.5t286.5 72t286.5 -72zM904.5 -74.5q109.5 63.5 171.5 174.5t62 250t-62 250t-171.5 174.5t-246.5 63.5q-136 0 -245.5 -63.5
t-172 -174.5t-62.5 -250t62.5 -250t172 -174.5t245.5 -63.5q137 0 246.5 63.5zM788.5 325q25.5 -25 25.5 -68q0 -51 -38.5 -82t-113.5 -31q-155 0 -155 122l84 9q1 -33 18 -48t50 -15q34 0 51 14.5t17 40.5q0 32 -25.5 46t-75.5 14l-6 44q52 7 74 23t22 46q0 47 -56 47
q-28 0 -41.5 -12t-13.5 -32q0 -11 3 -23l-80 -7q-5 27 -5 42q0 45 36.5 71t102.5 26q69 0 104 -26.5t35 -73.5q0 -33 -21 -57.5t-57 -36.5q40 -8 65.5 -33z" />
    <glyph glyph-name="four.ss04" horiz-adv-x="1316" 
d="M944.5 836q127.5 -72 199.5 -199.5t72 -286.5t-72 -286.5t-199.5 -199.5t-286.5 -72t-286.5 72t-199.5 199.5t-72 286.5t72 286.5t199.5 199.5t286.5 72t286.5 -72zM904.5 -74.5q109.5 63.5 171.5 174.5t62 250t-62 250t-171.5 174.5t-246.5 63.5q-136 0 -245.5 -63.5
t-172 -174.5t-62.5 -250t62.5 -250t172 -174.5t245.5 -63.5q137 0 246.5 63.5zM806 295v-67h-55v-78h-88v78h-200v49l165 270h123v-252h55zM663 486l-112 -191h112v191z" />
    <glyph glyph-name="five.ss04" horiz-adv-x="1316" 
d="M944.5 836q127.5 -72 199.5 -199.5t72 -286.5t-72 -286.5t-199.5 -199.5t-286.5 -72t-286.5 72t-199.5 199.5t-72 286.5t72 286.5t199.5 199.5t286.5 72t286.5 -72zM904.5 -74.5q109.5 63.5 171.5 174.5t62 250t-62 250t-171.5 174.5t-246.5 63.5q-136 0 -245.5 -63.5
t-172 -174.5t-62.5 -250t62.5 -250t172 -174.5t245.5 -63.5q137 0 246.5 63.5zM777.5 372.5q33.5 -31.5 33.5 -93.5t-39 -99t-113 -37q-70 0 -107.5 29.5t-39.5 83.5l83 10q3 -26 20.5 -40t45.5 -14q31 0 48 17.5t17 47.5q0 33 -16 50.5t-46 17.5q-24 0 -41 -9.5t-24 -24.5
l-80 6l20 230h249l1 -70h-181l-12 -109q16 16 40 26t54 10q54 0 87.5 -31.5z" />
    <glyph glyph-name="six.ss04" horiz-adv-x="1316" 
d="M944.5 836q127.5 -72 199.5 -199.5t72 -286.5t-72 -286.5t-199.5 -199.5t-286.5 -72t-286.5 72t-199.5 199.5t-72 286.5t72 286.5t199.5 199.5t286.5 72t286.5 -72zM904.5 -74.5q109.5 63.5 171.5 174.5t62 250t-62 250t-171.5 174.5t-246.5 63.5q-136 0 -245.5 -63.5
t-172 -174.5t-62.5 -250t62.5 -250t172 -174.5t245.5 -63.5q137 0 246.5 63.5zM772.5 360.5q31.5 -31.5 31.5 -84.5q0 -62 -39 -97t-107 -35t-109 38q-52 51 -52 164q0 101 43.5 153.5t126.5 52.5q59 0 92.5 -24.5t33.5 -66.5q0 -14 -6 -30l-75 1q4 8 4 19q0 17 -13 27.5
t-38 10.5q-41 0 -61 -34.5t-20 -108.5v-2q29 48 99 48q58 0 89.5 -31.5zM703 226q16 17 16 46q0 30 -16.5 46.5t-45.5 16.5q-28 0 -45 -17t-17 -45q0 -24 16 -44t47 -20q29 0 45 17z" />
    <glyph glyph-name="seven.ss04" horiz-adv-x="1316" 
d="M944.5 836q127.5 -72 199.5 -199.5t72 -286.5t-72 -286.5t-199.5 -199.5t-286.5 -72t-286.5 72t-199.5 199.5t-72 286.5t72 286.5t199.5 199.5t286.5 72t286.5 -72zM904.5 -74.5q109.5 63.5 171.5 174.5t62 250t-62 250t-171.5 174.5t-246.5 63.5q-136 0 -245.5 -63.5
t-172 -174.5t-62.5 -250t62.5 -250t172 -174.5t245.5 -63.5q137 0 246.5 63.5zM798 546v-61q-58 -57 -91 -145.5t-33 -191.5h-98q0 93 35 179t97 145h-191v74h281z" />
    <glyph glyph-name="eight.ss04" horiz-adv-x="1316" 
d="M944.5 836q127.5 -72 199.5 -199.5t72 -286.5t-72 -286.5t-199.5 -199.5t-286.5 -72t-286.5 72t-199.5 199.5t-72 286.5t72 286.5t199.5 199.5t286.5 72t286.5 -72zM904.5 -74.5q109.5 63.5 171.5 174.5t62 250t-62 250t-171.5 174.5t-246.5 63.5q-136 0 -245.5 -63.5
t-172 -174.5t-62.5 -250t62.5 -250t172 -174.5t245.5 -63.5q137 0 246.5 63.5zM792 318q22 -26 22 -65q0 -52 -41 -80.5t-115 -28.5t-115 28.5t-41 80.5q0 39 21.5 65t60.5 35q-33 10 -51 33.5t-18 59.5q0 50 37.5 79t105.5 29t105.5 -28.5t37.5 -79.5q0 -36 -18.5 -59.5
t-51.5 -33.5q39 -9 61 -35zM615.5 479q-15.5 -15 -15.5 -41q0 -57 59 -57q57 0 57 57q0 26 -15 41t-42 15q-28 0 -43.5 -15zM707 217q17 15 17 43q0 30 -17 45t-49 15t-49 -15t-17 -45q0 -28 17 -43t49 -15t49 15z" />
    <glyph glyph-name="nine.ss04" horiz-adv-x="1316" 
d="M944.5 836q127.5 -72 199.5 -199.5t72 -286.5t-72 -286.5t-199.5 -199.5t-286.5 -72t-286.5 72t-199.5 199.5t-72 286.5t72 286.5t199.5 199.5t286.5 72t286.5 -72zM904.5 -74.5q109.5 63.5 171.5 174.5t62 250t-62 250t-171.5 174.5t-246.5 63.5q-136 0 -245.5 -63.5
t-172 -174.5t-62.5 -250t62.5 -250t172 -174.5t245.5 -63.5q137 0 246.5 63.5zM768 512q47 -49 47 -163q0 -100 -43.5 -152.5t-126.5 -52.5q-79 0 -131 41l50 69q31 -39 81 -39q45 0 65 32t20 107q-24 -54 -96 -54q-56 0 -88.5 33t-32.5 86q0 62 39.5 97.5t107.5 35.5
q70 0 108 -40zM705.5 382q15.5 16 15.5 45t-15.5 45.5t-43.5 16.5q-29 0 -46.5 -17t-17.5 -45t17 -44.5t46 -16.5t44.5 16z" />
    <glyph glyph-name="zero.left.ss04" 
d="M412.5 774.5q-109.5 -63.5 -172 -174.5t-62.5 -250t62.5 -250t172 -174.5t245.5 -63.5v-70q-159 0 -286.5 72t-199.5 199.5t-72 286.5t72 286.5t199.5 199.5t286.5 72v-70q-136 0 -245.5 -63.5zM590 501q43 -53 43 -152t-43 -152t-122 -53q-82 0 -125.5 52.5t-43.5 152.5
t43.5 152.5t125.5 52.5q79 0 122 -53zM408 450.5q-19 -32.5 -19 -101.5t19 -102t59 -33q77 0 77 135q0 134 -77 134q-40 0 -59 -32.5z" />
    <glyph glyph-name="one.left.ss04" 
d="M412.5 774.5q-109.5 -63.5 -172 -174.5t-62.5 -250t62.5 -250t172 -174.5t245.5 -63.5v-70q-159 0 -286.5 72t-199.5 199.5t-72 286.5t72 286.5t199.5 199.5t286.5 72v-70q-136 0 -245.5 -63.5zM445 431h-76l1 53q40 4 69.5 21t37.5 43h71v-331h65v-67h-263v67h95v214z
" />
    <glyph glyph-name="two.left.ss04" 
d="M412.5 774.5q-109.5 -63.5 -172 -174.5t-62.5 -250t62.5 -250t172 -174.5t245.5 -63.5v-70q-159 0 -286.5 72t-199.5 199.5t-72 286.5t72 286.5t199.5 199.5t286.5 72v-70q-136 0 -245.5 -63.5zM340.5 248q15.5 26 38 44t57.5 40q46 29 67.5 50t21.5 53q0 25 -14 38.5
t-40 13.5q-27 0 -42 -13t-15 -35q0 -20 7 -33l-77 -7q-12 15 -12 47q0 49 37.5 77.5t104.5 28.5q70 0 104.5 -29.5t34.5 -83.5q0 -33 -15.5 -57.5t-37 -41.5t-58.5 -41q-37 -23 -55.5 -38.5t-27.5 -35.5h198v-75h-290q-2 12 -2 37q0 35 15.5 61z" />
    <glyph glyph-name="three.left.ss04" 
d="M412.5 774.5q-109.5 -63.5 -172 -174.5t-62.5 -250t62.5 -250t172 -174.5t245.5 -63.5v-70q-159 0 -286.5 72t-199.5 199.5t-72 286.5t72 286.5t199.5 199.5t286.5 72v-70q-136 0 -245.5 -63.5zM518.5 226.5q17.5 14.5 17.5 40.5q0 32 -26 46t-76 14l-6 44q52 7 74 23
t22 46q0 47 -56 47q-28 0 -41.5 -12t-13.5 -32q0 -11 3 -23l-80 -7q-5 27 -5 42q0 45 36.5 71t102.5 26q69 0 104 -26.5t35 -73.5q0 -33 -21 -57.5t-57 -36.5q40 -9 65.5 -33t25.5 -68q0 -51 -38.5 -82t-114.5 -31q-154 0 -154 122l84 9q1 -33 18 -48t50 -15q34 0 51.5 14.5
z" />
    <glyph glyph-name="four.left.ss04" 
d="M412.5 774.5q-109.5 -63.5 -172 -174.5t-62.5 -250t62.5 -250t172 -174.5t245.5 -63.5v-70q-159 0 -286.5 72t-199.5 199.5t-72 286.5t72 286.5t199.5 199.5t286.5 72v-70q-136 0 -245.5 -63.5zM490 228h-194v49l159 270h122v-252h56v-67h-56v-78h-87v78zM490 487
l-106 -192h106v192z" />
    <glyph glyph-name="five.left.ss04" 
d="M412.5 774.5q-109.5 -63.5 -172 -174.5t-62.5 -250t62.5 -250t172 -174.5t245.5 -63.5v-70q-159 0 -286.5 72t-199.5 199.5t-72 286.5t72 286.5t199.5 199.5t286.5 72v-70q-136 0 -245.5 -63.5zM517.5 229.5q17.5 17.5 17.5 47.5q0 33 -16 50.5t-46 17.5q-24 0 -41 -9.5
t-24 -24.5l-80 6l21 230h248l2 -70h-182l-12 -109q16 16 40 26t53 10q55 0 88.5 -31.5t33.5 -93.5t-38.5 -99t-113.5 -37q-70 0 -107.5 29.5t-39.5 83.5l84 10q2 -26 19.5 -40t44.5 -14q31 0 48.5 17.5z" />
    <glyph glyph-name="six.left.ss04" 
d="M412.5 774.5q-109.5 -63.5 -172 -174.5t-62.5 -250t62.5 -250t172 -174.5t245.5 -63.5v-70q-159 0 -286.5 72t-199.5 199.5t-72 286.5t72 286.5t199.5 199.5t286.5 72v-70q-136 0 -245.5 -63.5zM528 451q0 17 -12.5 27.5t-37.5 10.5q-41 0 -61 -34.5t-20 -108.5v-1
q30 47 99 47q58 0 89.5 -31.5t31.5 -84.5q0 -62 -39 -97t-107 -35t-109 38q-52 52 -52 164q0 101 43.5 153.5t126.5 52.5q59 0 92.5 -24.5t33.5 -66.5q0 -17 -5 -30l-75 1q2 12 2 19zM424.5 318q-17.5 -17 -17.5 -45q0 -24 17 -44t47 -20q29 0 45 17t16 46q0 30 -16.5 46.5
t-46.5 16.5q-27 0 -44.5 -17z" />
    <glyph glyph-name="seven.left.ss04" 
d="M412.5 774.5q-109.5 -63.5 -172 -174.5t-62.5 -250t62.5 -250t172 -174.5t245.5 -63.5v-70q-159 0 -286.5 72t-199.5 199.5t-72 286.5t72 286.5t199.5 199.5t286.5 72v-70q-136 0 -245.5 -63.5zM442 327q35 86 97 145h-192v74h282v-61q-58 -57 -91.5 -145.5t-33.5 -191.5
h-97q0 93 35 179z" />
    <glyph glyph-name="eight.left.ss04" 
d="M412.5 774.5q-109.5 -63.5 -172 -174.5t-62.5 -250t62.5 -250t172 -174.5t245.5 -63.5v-70q-159 0 -286.5 72t-199.5 199.5t-72 286.5t72 286.5t199.5 199.5t286.5 72v-70q-136 0 -245.5 -63.5zM342 318.5q21 25.5 61 34.5q-33 10 -51 33.5t-18 59.5q0 50 37.5 79
t105.5 29t105 -28.5t37 -79.5q0 -36 -18.5 -59.5t-51.5 -33.5q40 -9 61.5 -34.5t21.5 -65.5q0 -52 -40.5 -80.5t-114.5 -28.5q-75 0 -115.5 28.5t-40.5 80.5q0 40 21 65.5zM433.5 479q-15.5 -15 -15.5 -41q0 -57 59 -57q28 0 43 14.5t15 42.5q0 26 -15 41t-43 15t-43.5 -15z
M525.5 217q17.5 15 17.5 43q0 30 -17.5 45t-48.5 15q-67 0 -67 -60q0 -28 17 -43t50 -15q31 0 48.5 15z" />
    <glyph glyph-name="nine.left.ss04" 
d="M412.5 774.5q-109.5 -63.5 -172 -174.5t-62.5 -250t62.5 -250t172 -174.5t245.5 -63.5v-70q-159 0 -286.5 72t-199.5 199.5t-72 286.5t72 286.5t199.5 199.5t286.5 72v-70q-136 0 -245.5 -63.5zM517.5 246.5q19.5 31.5 19.5 105.5q-12 -26 -36.5 -39t-58.5 -13
q-56 0 -89 33t-33 86q0 62 40 97.5t107 35.5q69 0 109 -40q46 -49 46 -163q0 -100 -43 -152.5t-126 -52.5q-79 0 -131 41l49 69q32 -39 82 -39q45 0 64.5 31.5zM513 382q16 16 16 45t-16 45.5t-44 16.5q-29 0 -46.5 -17t-17.5 -45t17 -44.5t46 -16.5t45 16z" />
    <glyph glyph-name="zero.middle.ss04" horiz-adv-x="380" 
d="M380 838h-380v70h380v-70zM313 501q43 -53 43 -152t-43 -152t-121 -53q-82 0 -124.5 52.5t-42.5 152.5t42.5 152.5t124.5 52.5q78 0 121 -53zM132.5 450q-18.5 -33 -18.5 -101q0 -69 18.5 -102t58.5 -33q76 0 76 135q0 134 -76 134q-40 0 -58.5 -33zM380 -208h-380v70
h380v-70z" />
    <glyph glyph-name="one.middle.ss04" horiz-adv-x="346" 
d="M346 838h-346v70h346v-70zM138 431h-75l1 53q40 4 68.5 21t37.5 43h70v-331h67v-67h-260v67h91v214zM346 -138v-70h-346v70h346z" />
    <glyph glyph-name="two.middle.ss04" horiz-adv-x="374" 
d="M374 838h-374v70h374v-70zM59.5 248q15.5 26 38 44t57.5 40q45 29 66.5 50t21.5 53q0 25 -14 38.5t-40 13.5t-41 -13t-15 -35q0 -19 6 -33l-77 -7q-12 15 -12 47q0 49 37.5 77.5t104.5 28.5q69 0 103.5 -29.5t34.5 -83.5q0 -33 -15.5 -57.5t-37 -42t-57.5 -40.5
q-37 -23 -55.5 -38.5t-27.5 -35.5h197v-75h-289q-1 12 -1 37q0 35 15.5 61zM374 -138v-70h-374v70h374z" />
    <glyph glyph-name="three.middle.ss04" horiz-adv-x="372" 
d="M372 838h-372v70h372v-70zM234.5 226.5q16.5 14.5 16.5 40.5q0 32 -25.5 46t-74.5 14l-6 44q52 7 73.5 23t21.5 46q0 47 -55 47q-28 0 -41.5 -12t-13.5 -32q0 -11 3 -23l-80 -7q-5 27 -5 42q0 45 36 71t102 26q69 0 104 -26.5t35 -73.5q0 -33 -21 -57.5t-57 -36.5
q40 -9 65.5 -33t25.5 -68q0 -51 -38.5 -82t-112.5 -31q-155 0 -155 122l84 9q1 -63 67 -63q35 0 51.5 14.5zM372 -138v-70h-372v70h372z" />
    <glyph glyph-name="four.middle.ss04" horiz-adv-x="380" 
d="M380 838h-380v70h380v-70zM303 295h55v-67h-55v-78h-87v78h-192v49l156 270h123v-252zM216 486l-104 -191h104v191zM380 -138v-70h-380v70h380z" />
    <glyph glyph-name="five.middle.ss04" horiz-adv-x="380" 
d="M380 838h-380v70h380v-70zM243 229.5q17 17.5 17 47.5q0 33 -16 50.5t-45 17.5q-23 0 -39.5 -9t-25.5 -25l-79 6l20 230h247l1 -70h-179l-11 -108q15 16 38.5 25.5t52.5 9.5q54 0 87 -31.5t33 -93.5t-38.5 -99t-111.5 -37q-69 0 -106.5 29.5t-39.5 83.5l84 10
q2 -26 19 -40t44 -14q31 0 48 17.5zM380 -138v-70h-380v70h380z" />
    <glyph glyph-name="six.middle.ss04" horiz-adv-x="380" 
d="M380 838h-380v70h380v-70zM253 451q0 17 -12.5 27.5t-36.5 10.5q-40 0 -60 -35t-20 -108v-1q30 47 98 47q57 0 88 -31.5t31 -84.5q0 -62 -38.5 -97t-105.5 -35q-68 0 -108 38q-52 51 -52 164q0 101 43 153.5t126 52.5q58 0 91.5 -24.5t33.5 -66.5q0 -14 -6 -30l-75 1
q3 9 3 19zM151.5 318q-16.5 -17 -16.5 -45q0 -24 16 -44t46 -20q28 0 43.5 16.5t15.5 46.5t-16 46.5t-45 16.5q-27 0 -43.5 -17zM380 -138v-70h-380v70h380z" />
    <glyph glyph-name="seven.middle.ss04" horiz-adv-x="346" 
d="M346 838h-346v70h346v-70zM134 327q35 86 97 145h-192v74h282v-61q-58 -57 -91.5 -145.5t-33.5 -191.5h-97q0 93 35 179zM346 -138v-70h-346v70h346z" />
    <glyph glyph-name="eight.middle.ss04" horiz-adv-x="380" 
d="M380 838h-380v70h380v-70zM69 318.5q21 25.5 60 34.5q-33 10 -50.5 33.5t-17.5 59.5q0 50 37.5 79t104.5 29t104 -28.5t37 -79.5q0 -36 -18.5 -59.5t-51.5 -33.5q39 -9 60.5 -35t21.5 -65q0 -52 -40 -80.5t-113 -28.5q-74 0 -114.5 28.5t-40.5 80.5q0 40 21 65.5z
M160 479q-15 -15 -15 -41q0 -28 15 -42.5t43 -14.5q27 0 42 14.5t15 42.5q0 26 -15 41t-42 15q-28 0 -43 -15zM250 217q17 15 17 43q0 30 -17 45t-47 15q-32 0 -49 -15t-17 -45q0 -28 17 -43t49 -15q30 0 47 15zM380 -138v-70h-380v70h380z" />
    <glyph glyph-name="nine.middle.ss04" horiz-adv-x="380" 
d="M380 838h-380v70h380v-70zM241.5 246.5q19.5 31.5 19.5 105.5q-12 -26 -36 -39t-58 -13q-55 0 -87.5 33t-32.5 86q0 62 39.5 97.5t106.5 35.5q69 0 108 -40q46 -49 46 -163q0 -100 -43 -152.5t-125 -52.5q-79 0 -131 41l49 69q35 -39 82 -39q43 0 62.5 31.5zM238 382
q16 16 16 45t-16 45.5t-43 16.5q-29 0 -46 -17t-17 -45t17 -44.5t45 -16.5t44 16zM380 -138v-70h-380v70h380z" />
    <glyph glyph-name="zero.right.ss04" 
d="M286.5 836q127.5 -72 199.5 -199.5t72 -286.5t-72 -286.5t-199.5 -199.5t-286.5 -72v70q136 0 245.5 63.5t172 174.5t62.5 250t-62.5 250t-172 174.5t-245.5 63.5v70q159 0 286.5 -72zM315.5 501.5q42.5 -52.5 42.5 -152.5t-42.5 -152.5t-122.5 -52.5q-82 0 -125 52.5
t-43 152.5t43 152.5t125 52.5q80 0 122.5 -52.5zM133 450q-19 -33 -19 -101t19 -101.5t59 -33.5q77 0 77 135q0 134 -77 134q-40 0 -59 -33z" />
    <glyph glyph-name="one.right.ss04" 
d="M286.5 836q127.5 -72 199.5 -199.5t72 -286.5t-72 -286.5t-199.5 -199.5t-286.5 -72v70q136 0 245.5 63.5t172 174.5t62.5 250t-62.5 250t-172 174.5t-245.5 63.5v70q159 0 286.5 -72zM144 431h-75l-1 53q41 4 70 21t38 43h71v-331h72v-67h-263v67h88v214z" />
    <glyph glyph-name="two.right.ss04" 
d="M286.5 836q127.5 -72 199.5 -199.5t72 -286.5t-72 -286.5t-199.5 -199.5t-286.5 -72v70q136 0 245.5 63.5t172 174.5t62.5 250t-62.5 250t-172 174.5t-245.5 63.5v70q159 0 286.5 -72zM56.5 248q15.5 26 38 44t57.5 40q45 29 66.5 50t21.5 53q0 25 -13.5 38.5t-39.5 13.5
q-28 0 -43 -13t-15 -35q0 -20 7 -33l-76 -7q-13 14 -13 47q0 49 37.5 77.5t104.5 28.5q70 0 104.5 -29.5t34.5 -83.5q0 -33 -15.5 -57.5t-37 -41.5t-58.5 -41q-37 -23 -55.5 -38.5t-27.5 -35.5h198v-75h-290q-1 12 -1 37q0 35 15.5 61z" />
    <glyph glyph-name="three.right.ss04" 
d="M286.5 836q127.5 -72 199.5 -199.5t72 -286.5t-72 -286.5t-199.5 -199.5t-286.5 -72v70q136 0 245.5 63.5t172 174.5t62.5 250t-62.5 250t-172 174.5t-245.5 63.5v70q159 0 286.5 -72zM239.5 226.5q17.5 14.5 17.5 40.5q0 32 -26.5 46t-76.5 14l-5 44q52 7 74 23t22 46
q0 47 -56 47q-28 0 -41.5 -12t-13.5 -32q0 -11 3 -23l-80 -7q-5 27 -5 42q0 46 36 71.5t103 25.5q69 0 104 -26.5t35 -73.5q0 -33 -21 -57.5t-57 -36.5q40 -8 65.5 -33t25.5 -68q0 -51 -38.5 -82t-114.5 -31q-154 0 -154 122l84 9q1 -33 18 -48t50 -15q34 0 51.5 14.5z" />
    <glyph glyph-name="four.right.ss04" 
d="M286.5 836q127.5 -72 199.5 -199.5t72 -286.5t-72 -286.5t-199.5 -199.5t-286.5 -72v70q136 0 245.5 63.5t172 174.5t62.5 250t-62.5 250t-172 174.5t-245.5 63.5v70q159 0 286.5 -72zM305 295h55v-67h-55v-78h-88v78h-193v49l158 270h123v-252zM217 485l-105 -190h105
v190z" />
    <glyph glyph-name="five.right.ss04" 
d="M286.5 836q127.5 -72 199.5 -199.5t72 -286.5t-72 -286.5t-199.5 -199.5t-286.5 -72v70q136 0 245.5 63.5t172 174.5t62.5 250t-62.5 250t-172 174.5t-245.5 63.5v70q159 0 286.5 -72zM234.5 229.5q17.5 17.5 17.5 47.5q0 33 -16 50.5t-46 17.5q-24 0 -41 -9.5t-24 -24.5
l-80 6l20 230h249l1 -70h-181l-12 -109q16 16 40 26t53 10q55 0 88.5 -31.5t33.5 -93.5t-39 -99t-113 -37q-70 0 -107.5 29.5t-39.5 83.5l83 10q3 -26 20.5 -40t44.5 -14q31 0 48.5 17.5z" />
    <glyph glyph-name="six.right.ss04" 
d="M286.5 836q127.5 -72 199.5 -199.5t72 -286.5t-72 -286.5t-199.5 -199.5t-286.5 -72v70q136 0 245.5 63.5t172 174.5t62.5 250t-62.5 250t-172 174.5t-245.5 63.5v70q159 0 286.5 -72zM260 451q0 17 -13 27.5t-38 10.5q-41 0 -61 -34.5t-20 -108.5v-2q29 48 98 48
q58 0 90 -31.5t32 -84.5q0 -62 -39 -97t-107 -35q-69 0 -109 38q-52 51 -52 164q0 101 43.5 153.5t126.5 52.5q59 0 92.5 -24.5t33.5 -66.5q0 -14 -6 -30l-75 1q4 8 4 19zM155.5 318q-17.5 -17 -17.5 -45q0 -24 16.5 -44t47.5 -20q29 0 44.5 16.5t15.5 46.5t-16 46.5
t-45 16.5q-28 0 -45.5 -17z" />
    <glyph glyph-name="seven.right.ss04" 
d="M286.5 836q127.5 -72 199.5 -199.5t72 -286.5t-72 -286.5t-199.5 -199.5t-286.5 -72v70q136 0 245.5 63.5t172 174.5t62.5 250t-62.5 250t-172 174.5t-245.5 63.5v70q159 0 286.5 -72zM127 327q35 86 97 145h-192v74h282v-61q-58 -57 -91 -145.5t-33 -191.5h-98
q0 93 35 179z" />
    <glyph glyph-name="eight.right.ss04" 
d="M286.5 836q127.5 -72 199.5 -199.5t72 -286.5t-72 -286.5t-199.5 -199.5t-286.5 -72v70q136 0 245.5 63.5t172 174.5t62.5 250t-62.5 250t-172 174.5t-245.5 63.5v70q159 0 286.5 -72zM60 318.5q21 25.5 61 34.5q-33 10 -51 33.5t-18 59.5q0 50 37.5 79t105.5 29
t105 -28.5t37 -79.5q0 -36 -18.5 -59.5t-51.5 -33.5q40 -9 61.5 -34.5t21.5 -65.5q0 -52 -40.5 -80.5t-114.5 -28.5q-75 0 -115.5 28.5t-40.5 80.5q0 40 21 65.5zM151 479q-16 -15 -16 -41q0 -28 15.5 -42.5t44.5 -14.5q27 0 42 14.5t15 42.5q0 26 -15 41t-42 15
q-28 0 -44 -15zM243.5 217q17.5 15 17.5 43q0 30 -17.5 45t-48.5 15q-67 0 -67 -60q0 -28 17 -43t50 -15q31 0 48.5 15z" />
    <glyph glyph-name="nine.right.ss04" 
d="M286.5 836q127.5 -72 199.5 -199.5t72 -286.5t-72 -286.5t-199.5 -199.5t-286.5 -72v70q136 0 245.5 63.5t172 174.5t62.5 250t-62.5 250t-172 174.5t-245.5 63.5v70q159 0 286.5 -72zM236 247q20 32 20 107q-24 -54 -96 -54q-56 0 -88.5 33t-32.5 86q0 62 39.5 97.5
t107.5 35.5q70 0 108 -40q47 -49 47 -163q0 -100 -43.5 -152.5t-126.5 -52.5q-79 0 -131 41l50 69q31 -39 81 -39q45 0 65 32zM231.5 382q15.5 16 15.5 45t-15.5 45.5t-43.5 16.5q-29 0 -46.5 -17t-17.5 -45t17 -44.5t46 -16.5t44.5 16z" />
    <glyph glyph-name="zero.tf" horiz-adv-x="580" 
d="M473.5 618.5q64.5 -92.5 64.5 -266.5q0 -176 -64.5 -269.5t-181.5 -93.5q-120 0 -185 93.5t-65 269.5q0 174 65 266.5t185 92.5q117 0 181.5 -92.5zM193.5 549.5q-32.5 -62.5 -32.5 -197.5q0 -137 32.5 -200.5t97.5 -63.5q64 0 96.5 64t32.5 200q0 134 -32.5 197
t-96.5 63q-65 0 -97.5 -62.5z" />
    <glyph glyph-name="one.tf" horiz-adv-x="580" 
d="M522 0h-447v104h172v418h-166v80q91 7 143.5 33.5t68.5 64.5h80v-596h149v-104z" />
    <glyph glyph-name="two.tf" horiz-adv-x="580" 
d="M519 0h-460q-2 36 -2 53q0 63 25.5 110t61.5 79t95 72q52 36 81 60t49 58t20 77q0 108 -102 108q-50 0 -78 -27.5t-28 -74.5q0 -39 10 -60l-105 -9q-9 14 -14 35t-5 44q0 84 60 135t164 51q109 0 164 -50.5t55 -144.5q0 -57 -24 -100.5t-59 -73.5t-93 -71
q-68 -47 -104 -82.5t-47 -84.5h336v-104z" />
    <glyph glyph-name="three.tf" horiz-adv-x="580" 
d="M482 309q41 -43 41 -122q0 -89 -58.5 -143.5t-173.5 -54.5q-119 0 -176.5 54.5t-57.5 152.5l114 13q3 -124 116 -124q59 0 88 30.5t29 83.5q0 67 -42 94t-124 27l-7 64q83 13 118.5 43.5t35.5 90.5q0 100 -94 100q-49 0 -74 -23.5t-25 -62.5q0 -26 5 -49l-108 -11
q-9 32 -9 69q0 78 56 124t157 46q103 0 156 -46.5t53 -129.5q0 -62 -34 -105t-92 -64q65 -14 106 -57z" />
    <glyph glyph-name="four.tf" horiz-adv-x="580" 
d="M459 0h-115v150h-310v68l266 482h159v-457h85l4 -93h-89v-150zM344 628l-196 -385h196v385z" />
    <glyph glyph-name="five.tf" horiz-adv-x="580" 
d="M475 385q54 -56 54 -161t-62.5 -169.5t-177.5 -65.5q-109 0 -168.5 51t-62.5 141l114 13q4 -52 36 -80.5t83 -28.5q57 0 89 36.5t32 99.5q0 66 -30 102t-85 36q-41 0 -73 -19.5t-45 -49.5l-110 8l32 402h392l2 -98h-299l-21 -228q25 30 66 48.5t92 18.5q88 0 142 -56z
" />
    <glyph glyph-name="six.tf" horiz-adv-x="580" 
d="M481 364.5q52 -54.5 52 -148.5q0 -104 -62.5 -165.5t-168.5 -61.5t-173 69q-81 85 -81 291q0 176 69 269t200 93q90 0 144 -42.5t54 -118.5q0 -30 -9 -53l-104 2q6 16 6 39q0 38 -24.5 60.5t-69.5 22.5q-74 0 -111.5 -67t-37.5 -206v-23q23 44 67 69t103 25
q94 0 146 -54.5zM387 119.5q30 33.5 30 93.5t-31 92t-87 32q-53 0 -85 -34t-32 -90q0 -28 13 -57.5t40.5 -49.5t66.5 -20q55 0 85 33.5z" />
    <glyph glyph-name="seven.tf" horiz-adv-x="580" 
d="M540 615q-110 -101 -171.5 -264t-61.5 -351h-135q0 172 65 330.5t177 265.5h-371v104h497v-85z" />
    <glyph glyph-name="eight.tf" horiz-adv-x="580" 
d="M496.5 297.5q37.5 -45.5 37.5 -116.5q0 -91 -63.5 -141.5t-180.5 -50.5q-116 0 -179.5 50.5t-63.5 141.5q0 70 37 116t104 61q-58 15 -89.5 58t-31.5 108q0 87 58.5 137t164.5 50q107 0 165.5 -49.5t58.5 -137.5q0 -65 -32 -108t-90 -58q67 -15 104.5 -60.5zM207.5 600.5
q-28.5 -30.5 -28.5 -87.5t28.5 -88.5t82.5 -31.5t82.5 31t28.5 89q0 57 -28.5 87.5t-82.5 30.5t-82.5 -30.5zM383.5 100q32.5 32 32.5 92q0 59 -32.5 91t-93.5 32t-93.5 -32t-32.5 -91q0 -60 32.5 -92t93.5 -32t93.5 32z" />
    <glyph glyph-name="nine.tf" horiz-adv-x="580" 
d="M527 350q0 -178 -68.5 -269.5t-202.5 -91.5q-120 0 -208 70l68 93q57 -63 140 -63q56 0 89.5 27t49 86t15.5 156v25q-18 -59 -61.5 -88t-108.5 -29q-94 0 -146 58t-52 158q0 69 29 121t82.5 80t124.5 28q53 0 97.5 -18t73.5 -50q78 -83 78 -293zM363.5 392.5
q29.5 34.5 29.5 97.5q0 62 -29 97t-83 35q-57 0 -89.5 -35t-32.5 -95q0 -63 30.5 -98.5t87.5 -35.5t86.5 34.5z" />
    <glyph glyph-name="zero.dnom" horiz-adv-x="394" 
d="M318 350q42 -52 42 -151t-42 -152t-120 -53q-80 0 -122.5 52.5t-42.5 152.5q0 99 42.5 151t122.5 52q78 0 120 -52zM139.5 301.5q-18.5 -33.5 -18.5 -102.5q0 -70 18.5 -103.5t58.5 -33.5q76 0 76 137q0 136 -76 136q-40 0 -58.5 -33.5z" />
    <glyph glyph-name="one.dnom" horiz-adv-x="236" 
d="M174 0h-92v285h-68l1 49q39 2 65 19t34 45h60v-398z" />
    <glyph glyph-name="two.dnom" horiz-adv-x="336" 
d="M310 0h-285q-2 24 -2 36q0 36 15.5 62.5t37 43.5t58.5 41q44 28 65.5 49t21.5 53q0 53 -54 53q-27 0 -42 -13t-15 -35q0 -20 6 -34l-74 -6q-12 15 -12 46q0 49 37 77.5t103 28.5q68 0 102 -29.5t34 -83.5q0 -47 -28.5 -77.5t-81.5 -63.5q-35 -22 -54.5 -38.5t-27.5 -36.5
h196v-73z" />
    <glyph glyph-name="three.dnom" horiz-adv-x="368" 
d="M305 175q25 -25 25 -68q0 -51 -37 -82t-111 -31q-151 0 -151 121l81 9q1 -65 66 -65q35 0 52 15.5t17 41.5q0 33 -26 47.5t-74 14.5l-6 43q51 8 72.5 23.5t21.5 45.5q0 48 -55 48q-27 0 -40.5 -12t-13.5 -32q0 -11 3 -23l-77 -7q-6 20 -6 41q0 46 35.5 71.5t100.5 25.5
q67 0 101 -26.5t34 -72.5q0 -33 -20.5 -58t-55.5 -37q39 -8 64 -33z" />
    <glyph glyph-name="four.dnom" horiz-adv-x="367" 
d="M291 78v-78h-84v78h-191v49l156 270h119v-253h55v-66h-55zM207 337l-106 -193h106v193z" />
    <glyph glyph-name="five.dnom" horiz-adv-x="351" 
d="M290 221.5q33 -31.5 33 -92.5q0 -62 -38.5 -99t-111.5 -37q-69 0 -106 29.5t-39 83.5l81 10q2 -28 20 -42.5t46 -14.5q31 0 48.5 18.5t17.5 49.5q0 34 -16.5 52t-46.5 18q-23 0 -40.5 -10t-25.5 -25l-77 5l20 230h245l2 -68h-181l-11 -111q16 16 40 25.5t53 9.5
q54 0 87 -31.5z" />
    <glyph glyph-name="six.dnom" horiz-adv-x="371" 
d="M313.5 210.5q30.5 -31.5 30.5 -84.5q0 -62 -37.5 -97t-103.5 -35t-106 38q-50 50 -50 165q0 100 42 152.5t122 52.5q57 0 90 -24.5t33 -66.5q0 -12 -6 -30l-72 1q3 9 3 19q0 18 -12.5 29t-36.5 11q-40 0 -59.5 -35t-19.5 -109v-4q14 24 38.5 36.5t57.5 12.5
q56 0 86.5 -31.5zM246.5 75q15.5 17 15.5 47q0 31 -16 47.5t-45 16.5q-27 0 -43.5 -17.5t-16.5 -46.5q0 -24 16 -44t46 -20q28 0 43.5 17z" />
    <glyph glyph-name="seven.dnom" horiz-adv-x="314" 
d="M292 338q-58 -57 -91 -146t-33 -192h-94q0 93 35.5 180t96.5 146h-192v71h278v-59z" />
    <glyph glyph-name="eight.dnom" horiz-adv-x="360" 
d="M311 168q21 -26 21 -65q0 -52 -39.5 -80.5t-111.5 -28.5q-73 0 -112.5 28.5t-39.5 80.5q0 40 21 65.5t59 34.5q-32 10 -49.5 34t-17.5 59q0 50 36 78.5t103 28.5q66 0 102 -28t36 -79q0 -35 -18 -59t-50 -34q39 -9 60 -35zM137.5 330.5q-15.5 -15.5 -15.5 -42.5
q0 -28 15 -43t44 -15q27 0 41.5 15t14.5 43q0 27 -14.5 42.5t-41.5 15.5q-28 0 -43.5 -15.5zM228.5 66q17.5 16 17.5 44q0 30 -17.5 45.5t-47.5 15.5q-32 0 -49 -15.5t-17 -45.5q0 -28 17 -44t49 -16q30 0 47.5 16z" />
    <glyph glyph-name="nine.dnom" horiz-adv-x="362" 
d="M316 199q0 -100 -41.5 -152.5t-121.5 -52.5q-76 0 -126 40l47 67q32 -38 79 -38q42 0 61.5 33t19.5 109v2q-22 -56 -92 -56q-54 0 -85.5 33t-31.5 86q0 61 38.5 96.5t102.5 35.5q68 0 105 -40q45 -47 45 -163zM211 231q15 17 15 46q0 30 -15.5 47t-41.5 17
q-28 0 -45 -17.5t-17 -46.5t16.5 -46t44.5 -17t43 17z" />
    <glyph glyph-name="zero.numr" horiz-adv-x="394" 
d="M318 653q42 -52 42 -151t-42 -152t-120 -53q-80 0 -122.5 52.5t-42.5 152.5q0 99 42.5 151t122.5 52q78 0 120 -52zM139.5 604.5q-18.5 -33.5 -18.5 -102.5q0 -70 18.5 -103.5t58.5 -33.5q76 0 76 137q0 136 -76 136q-40 0 -58.5 -33.5z" />
    <glyph glyph-name="one.numr" horiz-adv-x="236" 
d="M174 308h-92v285h-68l1 50q39 1 65 18t34 45h60v-398z" />
    <glyph glyph-name="two.numr" horiz-adv-x="336" 
d="M310 308h-285q-2 24 -2 36q0 36 15.5 62.5t38 44.5t57.5 40q45 29 66 50t21 52q0 54 -54 54q-27 0 -42 -13.5t-15 -35.5q0 -19 6 -33l-74 -7q-12 15 -12 46q0 49 37 77.5t103 28.5q68 0 102 -29t34 -83q0 -48 -28.5 -78.5t-81.5 -63.5q-35 -22 -54.5 -38.5t-27.5 -36.5
h196v-73z" />
    <glyph glyph-name="three.numr" horiz-adv-x="368" 
d="M305 483q25 -25 25 -68q0 -51 -37 -82t-111 -31q-151 0 -151 121l81 9q1 -65 66 -65q35 0 52 15.5t17 42.5q0 33 -25.5 47t-74.5 14l-6 43q51 8 72.5 23.5t21.5 45.5q0 49 -55 49q-27 0 -40.5 -12t-13.5 -33q0 -11 3 -23l-77 -7q-6 20 -6 42q0 45 35.5 70.5t100.5 25.5
q67 0 101 -26t34 -73q0 -33 -20.5 -58t-55.5 -37q39 -8 64 -33z" />
    <glyph glyph-name="four.numr" horiz-adv-x="367" 
d="M291 387v-79h-84v79h-191v48l156 270h119v-253h55v-65h-55zM207 645l-106 -193h106v193z" />
    <glyph glyph-name="five.numr" horiz-adv-x="351" 
d="M290 530.5q33 -31.5 33 -93.5q0 -61 -38.5 -98t-111.5 -38q-69 0 -106 29.5t-39 83.5l81 10q2 -28 20 -42t46 -14q31 0 48.5 18t17.5 49q0 34 -16.5 52t-46.5 18q-23 0 -40.5 -9.5t-25.5 -25.5l-77 5l20 230h245l2 -68h-181l-11 -111q16 17 39.5 26.5t53.5 9.5
q54 0 87 -31.5z" />
    <glyph glyph-name="six.numr" horiz-adv-x="371" 
d="M313.5 518.5q30.5 -31.5 30.5 -84.5q0 -62 -37.5 -97t-103.5 -35t-106 38q-50 50 -50 165q0 100 42 152.5t122 52.5q57 0 90 -24.5t33 -66.5q0 -12 -6 -30l-72 1q3 9 3 19q0 18 -12.5 29t-36.5 11q-40 0 -59.5 -35t-19.5 -109v-4q14 24 38.5 36.5t57.5 12.5
q56 0 86.5 -31.5zM246.5 383q15.5 17 15.5 47q0 31 -16 47.5t-45 16.5q-27 0 -43.5 -17.5t-16.5 -46.5q0 -24 16 -44t46 -20q28 0 43.5 17z" />
    <glyph glyph-name="seven.numr" horiz-adv-x="314" 
d="M292 646q-58 -56 -91 -145t-33 -193h-94q0 94 35 180.5t97 145.5h-192v71h278v-59z" />
    <glyph glyph-name="eight.numr" horiz-adv-x="360" 
d="M311 476q21 -26 21 -65q0 -52 -39.5 -80.5t-111.5 -28.5q-73 0 -112.5 28.5t-39.5 80.5q0 40 21 65.5t59 34.5q-32 10 -49.5 34t-17.5 59q0 50 36 78.5t103 28.5q66 0 102 -28t36 -79q0 -35 -18 -59t-50 -34q39 -9 60 -35zM137.5 638.5q-15.5 -15.5 -15.5 -42.5
q0 -28 15 -43t44 -15q27 0 41.5 15t14.5 43q0 27 -14.5 42.5t-41.5 15.5q-28 0 -43.5 -15.5zM228.5 374q17.5 16 17.5 44q0 30 -17.5 45.5t-47.5 15.5q-32 0 -49 -15.5t-17 -45.5q0 -28 17 -44t49 -16q30 0 47.5 16z" />
    <glyph glyph-name="nine.numr" horiz-adv-x="362" 
d="M316 507q0 -100 -41.5 -152.5t-121.5 -52.5q-76 0 -126 40l47 67q32 -38 79 -38q42 0 61.5 33t19.5 109v2q-22 -56 -92 -56q-54 0 -85.5 33t-31.5 86q0 61 38.5 96.5t102.5 35.5q68 0 105 -40q45 -47 45 -163zM211 539q15 17 15 46q0 30 -15.5 47t-41.5 17
q-28 0 -45 -17.5t-17 -46.5t16.5 -46t44.5 -17t43 17z" />
    <glyph glyph-name="colon.case" horiz-adv-x="306" 
d="M202.5 264q17.5 -18 17.5 -50q0 -31 -17.5 -49t-49.5 -18t-49.5 18t-17.5 49q0 32 17.5 50t49.5 18t49.5 -18zM202.5 551q17.5 -18 17.5 -50q0 -31 -17.5 -49t-49.5 -18t-49.5 18t-17.5 49q0 32 17.5 50t49.5 18t49.5 -18z" />
    <glyph glyph-name="exclamdown.case" horiz-adv-x="304" 
d="M102.5 586q-17.5 18 -17.5 50q0 31 17.5 49t49.5 18t49.5 -18t17.5 -49q0 -32 -17.5 -50t-49.5 -18t-49.5 18zM90 193l10 307h103l9 -307v-193h-122v193z" />
    <glyph glyph-name="questiondown.case" horiz-adv-x="516" 
d="M218.5 587q-17.5 18 -17.5 50q0 31 17.5 49t49.5 18t49.5 -18t17.5 -49q0 -32 -17.5 -50t-49.5 -18t-49.5 18zM90 40.5q-55 50.5 -55 141.5q0 38 12.5 65.5t31.5 46.5t50 44q32 27 51 46t32.5 48t14.5 69h86q2 -26 2 -30q0 -42 -12 -71.5t-29.5 -49t-45.5 -42.5
q-36 -31 -53.5 -56t-17.5 -66q0 -102 102 -102q51 0 78.5 27.5t27.5 74.5q0 33 -10 59l107 10q7 -17 11.5 -38.5t4.5 -41.5q0 -84 -60 -134.5t-164 -50.5q-109 0 -164 50.5z" />
    <glyph glyph-name="braceleft.case" horiz-adv-x="393" 
d="M248 666q-9 -22 -9 -58q0 -24 6 -74q1 -10 3 -33t2 -40q0 -48 -20 -74.5t-72 -26.5v-3q65 0 83 -45q9 -19 9 -55q0 -16 -2 -39t-3 -33q-6 -50 -6 -73q0 -51 22.5 -79.5t80.5 -28.5v-92q-93 0 -142 25t-67 70q-12 32 -12 76q0 28 6 80q1 10 3 31.5t2 36.5q0 42 -17 64
t-62 22v84q48 0 66 28q12 19 12 53q0 19 -6 71q-7 63 -7 84q0 77 47 122t177 45v-87q-74 0 -94 -51z" />
    <glyph glyph-name="braceright.case" horiz-adv-x="372" 
d="M145 50q9 21 9 57q0 17 -2 40t-3 33q-6 50 -6 73q0 49 20 75.5t73 26.5v3q-66 0 -84 45q-9 21 -9 56q0 16 2 39t3 33q6 50 6 73q0 51 -22 79t-80 28v93q93 0 142 -25t66 -70q12 -31 12 -75q0 -29 -6 -81q-5 -42 -5 -68q0 -42 17 -64t62 -22v-85q-49 0 -66 -28
q-12 -17 -12 -53q0 -21 6 -71q1 -8 4 -35t3 -49q0 -77 -47 -121.5t-176 -44.5v87q73 0 93 51z" />
    <glyph glyph-name="bracketleft.case" horiz-adv-x="414" 
d="M217 717v-713h145v-92h-266v892h266v-87h-145z" />
    <glyph glyph-name="bracketright.case" horiz-adv-x="414" 
d="M197 -1v712h-145v93h266v-892h-266v87h145z" />
    <glyph glyph-name="parenleft.case" horiz-adv-x="404" 
d="M271 690q-30 -27 -46.5 -104.5t-16.5 -226.5q0 -148 16.5 -225t46.5 -103.5t81 -26.5v-92q-90 0 -149 40t-90.5 138t-31.5 269q0 170 31.5 267.5t91 137.5t148.5 40v-87q-51 0 -81 -27z" />
    <glyph glyph-name="parenright.case" horiz-adv-x="404" 
d="M133.5 26q30.5 27 46.5 104.5t16 225.5t-16 225t-46.5 103.5t-81.5 26.5v93q90 0 149 -40t90.5 -138.5t31.5 -269.5q0 -170 -31.5 -267.5t-90.5 -137t-149 -39.5v87q51 0 81.5 27z" />
    <glyph glyph-name="emdash.case" horiz-adv-x="797" 
d="M75 299v105h642v-105h-642z" />
    <glyph glyph-name="endash.case" horiz-adv-x="632" 
d="M75 299v105h477v-105h-477z" />
    <glyph glyph-name="hyphen.case" horiz-adv-x="486" 
d="M75 299v105h330v-105h-330z" />
    <glyph glyph-name="guillemotleft.case" horiz-adv-x="505" 
d="M264 149l-105 -21l-107 217l106 217l105 -21l-84 -196zM370 128l-107 217l106 217l105 -21l-84 -196l85 -196z" />
    <glyph glyph-name="guillemotright.case" horiz-adv-x="505" 
d="M346 562l107 -217l-106 -217l-105 21l84 196l-85 196zM135 562l107 -217l-106 -217l-105 21l84 196l-85 196z" />
    <glyph glyph-name="guilsinglleft.case" horiz-adv-x="294" 
d="M159 128l-107 217l106 217l105 -21l-84 -196l85 -196z" />
    <glyph glyph-name="guilsinglright.case" horiz-adv-x="294" 
d="M131 128l-105 21l84 196l-85 196l105 21l106 -217z" />
    <glyph glyph-name="at.case" horiz-adv-x="1028" 
d="M742 -8.5q80 19.5 138 53.5l29 -68q-143 -78 -371 -78q-152 0 -262.5 46t-170.5 136.5t-60 222.5q0 149 65.5 254.5t179 159t254.5 53.5q148 0 246.5 -47.5t145.5 -130t47 -187.5q0 -96 -32.5 -167t-91.5 -109t-136 -38q-61 0 -94 26t-40 81q-25 -51 -67 -78.5t-93 -27.5
q-71 0 -112 49.5t-41 142.5q0 91 30.5 156.5t83 99.5t118.5 34q87 0 135 -51l26 40l71 -10l-38 -301q-3 -22 -3 -39q0 -37 14 -48.5t45 -11.5q34 0 64 32.5t47.5 90t17.5 129.5q0 133 -82.5 212.5t-262.5 79.5q-115 0 -206 -44t-143.5 -132.5t-52.5 -217.5
q0 -165 100.5 -248.5t294.5 -83.5q127 0 207 19.5zM556.5 217.5q28.5 31.5 35.5 90.5h1l20 160q-18 14 -37.5 20.5t-46.5 6.5q-63 0 -98.5 -47.5t-35.5 -140.5q0 -59 23 -90t64 -31q46 0 74.5 31.5z" />
    <glyph glyph-name="caron.alt" horiz-adv-x="233" 
d="M169.5 739q18.5 -23 18.5 -63q0 -46 -30.5 -71t-86.5 -24l-2 32q43 1 61.5 14.5t18.5 42.5v5q-13 -13 -38 -13q-24 0 -38.5 13.5t-14.5 37.5q0 23 16 36t44 13q33 0 51.5 -23z" />
    <glyph glyph-name="acute.case" horiz-adv-x="356" 
d="M67 750l86 117h147l-115 -117h-118z" />
    <glyph glyph-name="breve.case" horiz-adv-x="442" 
d="M332.5 775q-36.5 -34 -111.5 -34q-149 0 -149 137h65q0 -30 21.5 -47t62.5 -17t63 17t22 47h63q0 -69 -36.5 -103z" />
    <glyph glyph-name="caron.case" horiz-adv-x="468" 
d="M307 753h-148l-99 118h101l74 -65l71 65h101z" />
    <glyph glyph-name="circumflex.case" horiz-adv-x="491" 
d="M243 812l-70 -65h-102l100 118h148l99 -118h-101z" />
    <glyph glyph-name="dieresis.case" horiz-adv-x="479" 
d="M186 851q17 -15 17 -43q0 -27 -17 -41.5t-49 -14.5q-31 0 -48 15t-17 41q0 28 17 43t48 15q32 0 49 -15zM389.5 851q17.5 -15 17.5 -43q0 -26 -17.5 -41t-49.5 -15q-30 0 -47 15t-17 41q0 28 17 43t47 15q32 0 49.5 -15z" />
    <glyph glyph-name="dotaccent.case" horiz-adv-x="288" 
d="M196.5 852q19.5 -15 19.5 -41q0 -25 -19.5 -39.5t-53.5 -14.5q-33 0 -52 14.5t-19 39.5q0 26 18.5 41t52.5 15t53.5 -15z" />
    <glyph glyph-name="grave.case" horiz-adv-x="361" 
d="M177 750l-111 123h141l82 -123h-112z" />
    <glyph glyph-name="hungarumlaut.case" horiz-adv-x="498" 
d="M61 750l59 125h128l-91 -125h-96zM213 750l103 125h129l-129 -125h-103z" />
    <glyph glyph-name="macron.case" horiz-adv-x="453" 
d="M392 763h-331v84h331v-84z" />
    <glyph glyph-name="ring.case" horiz-adv-x="416" 
d="M350 808q0 -69 -141 -69q-143 0 -143 69q0 68 143 68q141 0 141 -68zM173 837q-11 -9 -11 -29t11 -29t35 -9t35 9t11 29t-11 29t-35 9t-35 -9z" />
    <glyph glyph-name="tilde.case" horiz-adv-x="509" 
d="M331 745q-24 0 -45.5 7t-53.5 21q-42 20 -62 20q-21 0 -32.5 -12t-11.5 -34h-54q0 61 26 92.5t76 31.5q25 0 48.5 -7.5t54.5 -20.5q18 -7 35 -13t29 -6q21 0 32.5 11.5t11.5 33.5h52q0 -124 -106 -124z" />
    <glyph glyph-name="mail" horiz-adv-x="1274" 
d="M1099.5 670.5q29.5 -29.5 29.5 -81.5v-478q0 -52 -29.5 -81.5t-80.5 -29.5h-764q-52 0 -81.5 29.5t-29.5 81.5v478q0 52 29.5 81.5t81.5 29.5h764q51 0 80.5 -29.5zM227.5 621q-14.5 -15 -14.5 -40v-32l360 -214q34 -20 63 -20q30 0 64 20l363 215v31q0 25 -14.5 40
t-39.5 15h-743q-24 0 -38.5 -15zM809 331l253 -135l1 288zM213 199l256 129l-256 154v-283zM1046.5 79.5q14.5 14.5 14.5 39.5v14l-308 164l-13 -8q-50 -31 -103 -31q-51 0 -104 31l-8 5l-312 -161v-14q0 -25 14.5 -39.5t38.5 -14.5h741q25 0 39.5 14.5z" />
    <glyph glyph-name="email" horiz-adv-x="1274" 
d="M1106 635.5q23 -23.5 23 -65.5v-481q0 -42 -23 -65.5t-65 -23.5h-808q-41 0 -65 24t-24 65v481q0 41 24 65t65 24h157q33 68 103 104t162 36q101 0 162 -37.5t83 -102.5h141q42 0 65 -23.5zM491.5 693.5q-62.5 -54.5 -62.5 -159.5q0 -104 57 -154t159 -50q53 0 99.5 11.5
t93.5 33.5l226 103v71q0 22 -12.5 34t-34.5 12h-106v-12q0 -48 -21 -86.5t-57 -60t-79 -21.5q-65 0 -72 56q-14 -27 -36.5 -41.5t-50.5 -14.5q-39 0 -61.5 26.5t-22.5 76.5q0 75 35.5 116.5t91.5 41.5q48 0 74 -28l13 22l38 -5l-20 -161q-2 -16 -2 -22q0 -19 7.5 -25.5
t25.5 -6.5q30 0 50.5 37.5t20.5 95.5q0 76 -45.5 120.5t-145.5 44.5t-162.5 -54.5zM695 618q-18 15 -46 15q-36 0 -56 -26t-20 -77q0 -31 13 -48.5t36 -17.5q25 0 41 17.5t21 49.5zM222 583q-12 -12 -12 -34v-363l262 133q-52 31 -80.5 84.5t-28.5 130.5q0 33 6 61h-112
q-23 0 -35 -12zM821 313l241 -129l1 238l-212 -96zM1049.5 76q12.5 12 12.5 34v12l-314 168q-48 -12 -103 -12q-58 0 -106 13l-329 -170v-14q0 -20 12 -31.5t35 -11.5h758q22 0 34.5 12z" />
    </font>
</defs>
</svg>
