<?xml version="1.0" standalone="no"?>
<!DOCTYPE svg PUBLIC "-//W3C//DTD SVG 1.1//EN" "http://www.w3.org/Graphics/SVG/1.1/DTD/svg11.dtd" >
<svg xmlns="http://www.w3.org/2000/svg" xmlns:xlink="http://www.w3.org/1999/xlink" version="1.1">
<metadata>
Created by FontForge 20160407 at Mon Aug 15 23:15:33 2016
 By Jimmy Wärting
</metadata>
<defs>
<font id="PostNote" horiz-adv-x="389" >
  <font-face 
    font-family="Post Note"
    font-weight="500"
    font-stretch="normal"
    units-per-em="1000"
    panose-1="0 0 0 0 0 0 0 0 0 0"
    ascent="750"
    descent="-250"
    x-height="275"
    cap-height="488"
    bbox="-191 -257 892 695"
    underline-thickness="50"
    underline-position="-100"
    unicode-range="U+0020-FB02"
  />
<missing-glyph horiz-adv-x="210" 
 />
    <glyph glyph-name=".notdef" horiz-adv-x="210" 
 />
    <glyph glyph-name=".null" horiz-adv-x="0" 
 />
    <glyph glyph-name="nonmarkingreturn" horiz-adv-x="210" 
 />
    <glyph glyph-name="space" unicode=" " horiz-adv-x="210" 
 />
    <glyph glyph-name="percent" unicode="%" horiz-adv-x="602" 
d="M149 -65q0 4 1 6.5t2 4.5t1.5 4t2.5 4q1 3 3 5l43 67l237 343q1 1 4.5 5t7 9t7 9.5t5.5 6.5q3 4 11 13.5t17 20t17 20t12 12.5q0 1 3 3.5t4 3.5q2 2 8 6t9 4h1q4 -1 6 -3l4 -4q3 -5 3 -10v-3q-1 -3 -3 -5l-4 -4q-1 -1 -2 -1.5t-3 -2.5t-4 -3q-2 -2 -8.5 -7t-8.5 -7l-3 -3
q-1 -1 -2 -1t-1 -1q-3 -3 -7 -8l-8 -10t-7.5 -8.5t-3.5 -4.5l-209 -289q-1 -1 -6.5 -9.5t-13 -20t-15.5 -23.5t-12 -19q-2 -3 -5.5 -10t-5.5 -9q-5 -11 -10 -21t-11 -20q-4 -5 -8.5 -9.5t-8.5 -9.5q0 -1 -0.5 -2t-0.5 -2q-1 -1 -2 -9t-2 -9q-1 -5 -4 -10.5t-9 -5.5
q-8 0 -14.5 4.5t-6.5 12.5zM323 -3q0 15 5 29t13 27q2 4 6 11.5t8.5 15.5t8.5 14.5t5 8.5q2 3 10 14.5t11 16.5q2 2 9 12.5t10 14.5q2 1 8 8.5t9 11.5l8 8q15 16 38 34t48 18q2 0 7.5 -1t7.5 -3q2 0 4.5 -3t3.5 -4l3 -3t3 -4l3 -3q6 -5 13 -8t14 -6.5t12.5 -8.5t7.5 -14v-5
q0 -2 1 -4v-24l-1 -4q-3 -17 -11 -31.5t-19 -27.5q-15 -24 -35 -43.5t-41 -37.5q-29 -26 -60 -42q-14 -7 -29 -13t-32 -6q-23 0 -36 14.5t-13 37.5zM354 -8v-5.5t3 -6.5q9 -6 20 -6q20 0 38.5 10.5t34.5 21.5q2 1 6 4t6 4q4 4 13 11.5t11 8.5q3 3 10 9t14.5 13t14.5 13t9 9
q1 2 3.5 5.5t2.5 5.5q3 3 3 4q11 15 22.5 30.5t11.5 35.5q0 14 -11 22t-23 12q-4 -7 -11 -7q-5 0 -6 3t-3 7q-4 2 -8 2h-7q-4 0 -5 -2q-5 -4 -9 -8.5t-11 -4.5h-9q-10 0 -15 -7l-15 -15q-2 -1 -7.5 -8t-7.5 -9t-6.5 -9t-5.5 -9q-2 -3 -6.5 -9t-9 -13t-8.5 -13.5t-5 -8.5
q0 -1 -6.5 -12.5t-10.5 -16.5q0 -1 -1 -3t-2 -2q0 -1 -1 -3.5t-1 -3.5q-12 -23 -12 -49zM137 275q0 8 3 14q1 5 4 15t4 12t2 5.5t1 4.5q21 48 54 91q2 2 9.5 11.5t11.5 13.5q1 2 3 4.5t3 3.5l7 7t10.5 10t10 9.5t5.5 6.5q2 0 6.5 4.5l6.5 6.5q24 20 55 20h3l8 -6t9 -5
q2 -2 12 -8t12 -7l1 -1q0 -1 1 -1q11 -10 13.5 -21.5t2.5 -25.5q0 -11 -1 -19.5t-5 -18.5q-5 -14 -13 -26.5t-18 -24.5q-8 -10 -16 -18.5t-17 -17.5q-1 -1 -8 -7.5t-10 -8.5q-2 -1 -4.5 -3t-3.5 -3q-25 -17 -56.5 -33.5t-63.5 -16.5q-11 0 -22.5 5.5t-16.5 15.5q-3 4 -3 12z
M163 285q0 -10 6 -11.5t15 -1.5q14 0 26.5 3.5t23.5 8.5q12 5 22 10.5t21 13.5q13 10 28 22.5t28.5 27.5t23.5 31.5t14 34.5v2q0 1 0.5 1t0.5 1v9q0 3 0.5 5.5t-1.5 6.5q-2 8 -8 16.5t-17 8.5q-12 0 -23 -8q-1 0 -2 -1l-2 -2v-2q0 -4 2 -7t2 -7q0 -5 -2.5 -8.5t-8.5 -3.5h-1
q-2 0 -5 1t-4 2l-1 1q-1 0 -1 1q-1 1 -1 2q-5 7 -5 14v15q-5 0 -5 -1q-2 -3 -8 -8.5t-13 -12t-13 -12.5l-8 -8q-1 -1 -3 -3.5t-3 -3.5q-20 -26 -37.5 -51.5t-31.5 -54.5q-3 -8 -6 -15.5t-3 -15.5z" />
    <glyph glyph-name="ampersand" unicode="&#x26;" horiz-adv-x="474" 
d="M516 -55q-2 1 -6 3.5t-9.5 5.5t-10 6t-6.5 4q-1 1 -5.5 4t-5.5 5q-2 2 -12 9.5t-13 11.5q-2 0 -4 2.5t-3 2.5q-5 5 -15.5 16.5t-12.5 13.5l-6 6t-10.5 11t-10.5 11t-6 7q-2 1 -3 2.5t-3 3.5t-4 3h-2q-10 -10 -20 -19t-21 -18q-29 -21 -61 -35.5t-68 -14.5h-9.5t-9.5 2
q-29 6 -49.5 24.5t-31.5 43.5q-3 3 -3 6q-1 2 -2.5 8.5t-2.5 8.5v6v15v12q1 22 11 42t28 34q22 16 50 27q2 1 10.5 4.5t10.5 5.5q7 3 13 9q4 2 10 2.5t8 3.5v3q0 6 -2.5 12.5t-4.5 11.5q-8 17 -17 34t-9 37q0 29 23 48.5t51 19.5q17 0 29 -6t23 -18q6 -6 10 -16q3 -6 4 -13
t1 -15q0 -16 -4 -31.5t-14 -29.5q-1 -2 -2 -3q-1 -2 -2 -2.5t-1 -1.5q-2 -2 -4 -5t-3 -3q-2 -2 -8 -8.5t-8 -8.5q-2 -1 -6.5 -5.5l-5.5 -5.5t-1.5 -1t-1.5 -1l-2 -2v-2v-1l65 -81q1 -2 5.5 -6.5l6.5 -6.5q0 -2 3 -5t5 -4q1 0 2.5 -1.5l2.5 -2.5l1 -1q0 -1 1 -1h1q5 6 10 13
l10 14q1 1 3 5t4 6q5 10 11 23t6 25q0 7 -1.5 13.5t-1.5 14.5q0 7 5 10.5t10 3.5q7 0 10 -2q9 -9 9 -24q0 -22 -10 -45t-21 -42q-8 -15 -21 -31q-1 0 -1 -1t-1 -1q1 -1 1 -2q0 -2 1 -3q2 -6 6.5 -12t9.5 -11q2 -2 4.5 -5.5t4.5 -5.5l5.5 -5.5l4.5 -4.5q3 -3 9 -8.5t12 -11.5
l11 -11l7 -7t10 -8.5t12 -10.5q5 -5 13 -8q1 -1 5.5 -3t6.5 -3q5 -3 11 -6t11 -9q2 -2 2 -8q0 -5 -3 -10.5t-9 -5.5h-2q-2 0 -4 1.5t-3 2.5zM116 80q3 -15 11.5 -27t21 -20.5t27 -13.5t28.5 -5q40 0 73 21t61 47q1 0 5 4q2 2 3 4q2 2 2 5q0 4 -4 8q-1 2 -2 3.5t-2 3.5
q-2 2 -5.5 6.5t-4.5 5.5q-2 1 -7 6.5t-10.5 11.5t-10 11.5t-6.5 7.5q-1 1 -4 5.5t-7 10t-7 10t-4 6.5q-3 5 -10.5 12.5t-15.5 10.5h-1q-5 0 -10.5 -3t-9.5 -5q-3 -2 -11.5 -6t-17.5 -8.5l-17 -8.5l-12 -6q-28 -16 -40.5 -35t-12.5 -52v-10zM228 335q0 -7 1.5 -12.5
t3.5 -11.5q5 -12 10.5 -24t11.5 -23l2 -4t3 -2t5 1.5l5 2.5q1 1 3 2.5t3 2.5q15 14 25 32.5t10 39.5q0 17 -8.5 28.5t-26.5 11.5q-8 0 -16.5 -3.5t-14.5 -8.5q-7 -7 -12 -14.5t-5 -17.5z" />
    <glyph glyph-name="quotesingle" unicode="'" horiz-adv-x="184" 
d="M132 272q0 2 1 4q0 2 0.5 3t0.5 2q1 1 3 6.5t4 7.5q1 2 1.5 4t1.5 3q2 6 7 17t6 12l58 95q0 1 3 4q1 2 4.5 8t4.5 8q5 6 9.5 9t12.5 3q11 0 14 -6v-6q0 -5 -0.5 -8t-2.5 -8q-2 -1 -6.5 -6t-6.5 -7q0 -1 -1 -2t-2 -1q-1 -2 -3 -5.5t-3 -4.5l-3.5 -7t-5.5 -10t-5.5 -10
t-3.5 -6l-1 -3q-1 0 -4 -4.5t-4 -5.5q-1 -2 -4.5 -6.5t-4.5 -6.5q-2 -3 -6 -11.5t-9.5 -17.5t-10 -16.5t-6.5 -10.5q-2 -5 -5.5 -10.5t-6.5 -10.5q-1 -1 -2.5 -4.5t-3.5 -4.5q-3 -3 -8 -3h-3l-2 1q-7 4 -7 13v2z" />
    <glyph glyph-name="parenleft" unicode="(" horiz-adv-x="287" 
d="M88 47q0 31 6 60.5t14 58.5q1 4 5.5 16.5t5.5 15.5t4.5 10.5t7.5 16t7 15.5t4 10q2 4 7 14.5t11 21.5t11.5 21t7.5 14q2 3 6.5 11t9.5 16.5t9.5 16t6.5 10.5q2 2 9.5 13.5t9.5 15.5q11 15 22.5 28.5t24.5 25.5q2 1 6 4.5t6 5.5q2 0 5 2t5 3q16 12 36 12h8q2 0 4.5 -1
t3.5 -1q11 -5 17.5 -15.5t6.5 -21.5v-5l-1 -2q-7 -5 -12 -5h-7q-4 3 -5 7.5t-2 8.5t-3.5 7t-9.5 3q-11 0 -19.5 -6.5t-16.5 -14.5q-14 -13 -27 -27.5t-25 -29.5q-17 -22 -31.5 -45t-27.5 -48q-2 -3 -5 -10t-6.5 -15t-6.5 -15t-4 -9q-2 -4 -6.5 -15t-9.5 -23t-9.5 -23
t-6.5 -15q-2 -10 -5.5 -19t-5.5 -19q-10 -34 -10 -77v-14q2 -18 12 -32.5t22 -25.5q11 -10 26.5 -16t29.5 -6q5 0 9 0.5t8 0.5q10 0 17 -7q2 -6 2 -8q0 -6 -3.5 -13.5t-9.5 -9.5h-6h-5h-2q-1 0 -2 1q-25 6 -47.5 16t-39 25.5t-26.5 36.5t-10 50z" />
    <glyph glyph-name="parenright" unicode=")" horiz-adv-x="260" 
d="M-10 -64q0 7 8 12q3 2 11.5 6.5t18 10t18.5 10.5t12 7q1 1 5.5 4l10.5 7t11.5 7.5t8.5 5.5q48 32 88.5 78.5t57.5 104.5q5 15 6.5 30.5t1.5 32.5v15q0 1 -0.5 5.5t-1.5 6.5q-4 28 -16 52t-30 46q-1 2 -5 6l-5 5q-2 2 -9.5 10t-11.5 12l-10 10q-3 2 -9 8.5t-8 8.5
q-8 6 -8 14q0 7 8 13q3 3 9 3t9 -1q2 -2 7 -6t7 -6t6 -5.5t8 -8t7.5 -8.5t5.5 -5q8 -9 15 -18.5t15 -18.5q21 -29 33.5 -64t12.5 -72q0 -17 -3 -33q-1 -2 -2.5 -8t-3 -14t-3 -15.5t-2.5 -11.5q-5 -17 -12 -28q-1 -2 -4 -6.5t-3 -6.5q-1 -1 -3 -5.5t-4.5 -9l-5 -9t-2.5 -5.5
q-1 -1 -4.5 -6.5t-5.5 -7.5q-15 -20 -31 -36l-33 -33q-1 -2 -5 -6t-9 -8t-9.5 -8t-5.5 -6q-2 -2 -9 -7t-9 -6l-87 -59q-4 -2 -11 -2h-6q-3 0 -5 2q-9 4 -9 17z" />
    <glyph glyph-name="asterisk" unicode="*" horiz-adv-x="365" 
d="M212 170v4q0 3 1 8t1 7l9 53v2q0 3 -2 3h-1l-1 -1q-2 -1 -4 -3l-3 -3q-2 -2 -8 -7.5t-7 -7.5q-1 -1 -5 -5.5t-8 -9.5t-7.5 -9t-4.5 -5t-5.5 -6t-6.5 -7l-4 -2q-2 0 -3 3t-3 5q-4 -6 -9 -6q-4 0 -4 8q0 11 8 18.5t15 12.5l51 51v1q0 6 -4 12q-8 6 -13 8q-2 2 -5.5 2
t-6.5 1q-2 0 -13.5 1.5t-13.5 1.5q-5 1 -9.5 3t-4.5 10q0 9 11 9h21q2 2 2 4v1q-2 3 -6.5 13.5t-6.5 12.5q-2 4 -3.5 7.5t-1.5 7.5t3 7q2 5 11 5q4 0 5 -2t4 -7.5t6 -11.5t6 -11t4 -7q1 0 3.5 -4.5t3.5 -6.5t3 -5.5t3 -3.5q3 -4 8 -6t10 -2t7 3q9 13 12.5 30t4.5 33v49
q3 8 13 8q3 0 7 -0.5t6 -3.5l1 -3v-17q-1 -3 -2 -9.5t-2.5 -14t-3 -14t-2.5 -8.5q0 -1 -1 -9t-1 -13q0 -1 -0.5 -4t-0.5 -4v-3v-4q0 -1 2 -1h1q5 4 18 16.5t17 17.5q0 1 2.5 2.5t4.5 3.5l3 3h6l2 2q2 2 3 2q6 4 8 4q16 0 16 -11q0 -5 -1 -5q-2 -5 -5 -6q-1 0 -1.5 -0.5
t-2.5 -0.5q-2 -1 -4 -1l-2 -2l-34 -29l-6 -6q-1 -2 -2 -3l-2 -4v-1v-1q5 -2 10 -3t10 -1l44 -2q5 0 13 -3t8 -11q0 -5 -3 -9t-9 -6h-6q-11 0 -25 7q-5 2 -8 4t-8 2q-3 0 -12.5 0.5t-12.5 0.5q-5 0 -8.5 0.5t-7.5 0.5q-5 0 -12.5 -3.5t-7.5 -8.5q0 -3 1 -4q17 -27 43 -43.5
t54 -28.5l1 -1v-4q0 -4 -0.5 -7t-3.5 -6q-4 0 -4 -4q-1 -1 -2 -1.5t-2 -1.5q-2 -1 -3 -2h-3h-3l-2 1l-2 2q-2 1 -11.5 9t-11.5 10q-1 0 -6.5 4t-13 9.5t-15.5 11t-12 8.5q-2 2 -4.5 4t-6.5 2l-3 -3q0 -3 -1 -14.5t-2 -13.5v-3q0 -5 1 -9.5t1 -9.5q0 -8 -7 -15.5t-16 -7.5
q-4 0 -7 6v5z" />
    <glyph glyph-name="plus" unicode="+" horiz-adv-x="335" 
d="M155 45q0 8 5 20l25 74l10 37l-3 1h-3q-18 0 -36.5 -3t-35.5 -3h-14q-2 0 -5 3t-3 5v4q0 10 6.5 12.5t14.5 2.5h17q14 0 28.5 0.5t28.5 2.5q9 2 12 5t6 11l36 109q0 1 2 7t3 10q0 1 1 2t1 1.5t1 1.5q1 0 1 1q0 2 1 2h4q5 0 8.5 -1.5t3.5 -6.5v-2l-40 -132v-1l2 -1
q2 0 6 -0.5t6 -0.5h10h72q5 0 12 -3.5t7 -8.5v-4v-4q0 -4 -5.5 -8.5t-9.5 -5.5h-4q-8 0 -12.5 2.5t-10.5 3.5q-12 2 -24 2.5t-24 0.5h-18h-8q-6 0 -8 -3q0 -2 -2 -6.5t-3 -6.5q-1 -3 -3.5 -10t-4.5 -14t-4 -13.5t-2 -7.5q-1 -3 -2.5 -9.5t-3.5 -13.5t-4 -13.5t-2 -9.5
q-3 -11 -3 -19t-10 -16q-2 -2 -5.5 -2.5t-6.5 -0.5q-10 0 -10 9z" />
    <glyph glyph-name="comma" unicode="," horiz-adv-x="184" 
d="M40 -100q0 11 8 16.5t15 10.5q17 13 25 26.5t8 35.5v10q-2 15 -13 30q-2 1 -6.5 5.5l-6.5 6.5q-5 4 -9.5 7.5t-4.5 10.5q0 5 3 9t8 4q4 0 9.5 -3t7.5 -5q19 -14 27 -35.5t8 -44.5q0 -11 -5.5 -27.5t-15 -32t-21.5 -26.5t-25 -11q-12 0 -12 13z" />
    <glyph glyph-name="hyphen" unicode="-" horiz-adv-x="317" 
d="M59 140v5q0 2 2 4q2 5 6.5 6.5t9.5 2.5q3 0 12.5 0.5t12.5 0.5l127 20q2 1 15 1.5t19 1.5q2 0 12 0.5t15 0.5h10h11q5 -2 8.5 -4t3.5 -8q0 -20 -20 -20q-6 0 -12 1t-13 1h-7q-6 -1 -19 -1.5t-15 -0.5l-103 -16q-4 -1 -18 -4t-18 -5q-5 -1 -11 -1.5t-11 -0.5q-9 0 -14 7
q-3 0 -3 4v5z" />
    <glyph glyph-name="period" unicode="." horiz-adv-x="203" 
d="M67 9q0 8 7 17q5 8 13 15t17 9q5 2 10.5 2h10.5h6q4 -1 5 -6v-5v-6q0 -2 -1 -4.5t-2 -5.5q-8 -13 -23.5 -20t-29.5 -7h-5l-2 1q-1 0 -3 2t-2 3q-1 1 -1 5z" />
    <glyph glyph-name="slash" unicode="/" horiz-adv-x="185" 
d="M-56 -79q0 4 3 4l442 533q4 7 15 7q6 0 9.5 -5t3.5 -10q0 -6 -5 -11l-17 -17q-2 -2 -5.5 -4t-5.5 -5q0 -4 -4 -4l-6 -6t-4 -5l-301 -361l-64 -87q-1 0 -2.5 -3t-3.5 -5q-3 -5 -6 -12.5t-7 -14t-9.5 -11t-12.5 -4.5q-5 0 -12 4t-8 9v5v3z" />
    <glyph glyph-name="zero" unicode="0" horiz-adv-x="588" 
d="M71 49q0 8 1 18t6 18q3 5 6.5 10t5.5 10q1 1 4 6.5t7 12t7.5 12.5t4.5 8q1 1 3.5 5t5.5 8.5t6 8.5t4 6q2 2 5.5 7l7 10t6.5 9t4 6q3 3 9 10t12.5 15t12.5 15t8 9q2 3 8 9l13 13t13.5 13t9.5 9q3 2 9 8t13 12.5t13 12t9 7.5q2 2 10 8.5t18 14t19 15t14 10.5q1 1 4.5 4t8 6
t8.5 6t6 4q1 1 7 4t8 5q8 6 20.5 11t22.5 6h12q14 0 28.5 -2t27.5 -7q19 -11 37 -28q12 -11 24 -25t21.5 -30t16 -33t6.5 -34q0 -54 -26 -92t-68 -68q-15 -13 -31 -23t-33 -21q-2 -1 -11 -6t-11 -7l-14 -7t-13 -6t-10.5 -4t-8.5 -4l-54 -16l-3 -1q-8 -1 -15 -1t-15 -2
q-4 -2 -7.5 -3.5t-7.5 -3.5q-17 -8 -37.5 -12t-40.5 -6q-2 0 -13 -1t-15 -1h-8q-6 0 -13 0.5t-12 1.5q-19 5 -40.5 16.5t-25.5 33.5v10zM102 56q0 -12 7 -19t17 -11t22 -5t21 -1q29 0 59 6q59 11 112 30q3 1 12 4.5t12 4.5q29 11 56.5 25t53.5 30q11 8 22.5 16t22.5 18
q9 9 17 17.5t16 19.5q11 14 17.5 30.5t6.5 35.5q0 24 -11 48.5t-28 42.5q-2 1 -7.5 7t-7.5 8q-4 4 -8.5 7t-8.5 6l-2 1h-3q-9 0 -12.5 -6.5t-6.5 -14t-7 -14t-13 -6.5q-17 0 -17 16q0 11 6 19.5t6 19.5q0 6 -2 9h-5q-14 0 -27 -6t-25 -12q-2 -1 -4.5 -3t-4.5 -2
q-47 -30 -88.5 -66t-79.5 -76q-2 -2 -6 -7t-9.5 -10t-10 -10t-6.5 -7q-2 -3 -7 -9.5t-11 -13.5t-11 -13.5t-7 -8.5q-2 -3 -9 -13t-10 -14q-1 -2 -6.5 -10t-7.5 -12q-5 -11 -11 -24.5t-6 -26.5z" />
    <glyph glyph-name="one" unicode="1" horiz-adv-x="188" 
d="M59 -28l46 146q1 2 3 8t4 9q0 1 1 2.5t1 2.5q1 1 5 7t5 7q2 3 2.5 7t2.5 6q1 3 4 14t4 15l42 125l26 96q0 2 2 7.5t3 8.5q3 8 7 13.5t15 5.5h3.5t3.5 -2q7 -6 7 -15v-3l-66 -192v-12q-3 -6 -8.5 -20t-11.5 -29.5t-11.5 -29.5t-7.5 -20q-2 -5 -6.5 -18.5l-9.5 -28.5
l-9.5 -28.5t-6.5 -18.5q-1 -2 -3 -10t-2 -10q-1 -3 -2.5 -10.5t-3 -16t-3 -16.5t-1.5 -11q-3 -12 -19 -12q-9 0 -12.5 6t-3.5 13v4z" />
    <glyph glyph-name="two" unicode="2" horiz-adv-x="473" 
d="M35 -31q0 9 6.5 15t13.5 10q2 1 7 3t7 3l107 43q1 0 13.5 5.5t18.5 8.5q2 0 5 2t5 3q1 0 2.5 1.5t2.5 1.5q2 2 13 9t14 8q1 1 7.5 5t14 8.5t13.5 8.5t8 5t8.5 5.5t13.5 9t13 9t9 6.5q1 1 5 4t8.5 6.5l9 7t6.5 4.5l9.5 9.5l10.5 10.5q2 2 5.5 5t4.5 5q15 14 29 34t14 43
q0 16 -9 26.5t-22 16.5t-28.5 8t-27.5 2q-18 0 -35 -3.5t-33 -8.5q-6 -2 -11.5 -4t-10.5 -4q-1 0 -3 -1.5t-3 -1.5t-3 -2q-1 -1 -2 -1t-2 -0.5t-3 -0.5q-2 -1 -5 -1h-2q-30 -11 -54 -31.5t-47 -43.5l-10 -3h-1q-7 0 -12 3.5t-5 11.5q0 5 5.5 14t9.5 13l7.5 7.5t6.5 7.5
q7 6 16.5 12t17.5 9q25 14 50.5 23t52.5 16q20 5 41.5 8t42.5 3h18q12 0 27 -5q26 -8 43 -25t17 -45q0 -23 -10 -42.5t-24 -36.5q0 -1 -2.5 -3.5t-3.5 -4.5q-2 -1 -4 -3.5t-3 -3.5q-4 -5 -14 -14.5t-12 -11.5t-10 -9.5t-11 -9.5q-57 -47 -125 -83q-3 -2 -13.5 -6t-13.5 -6
q-1 -1 -6 -3t-10.5 -4.5t-10.5 -4.5t-6 -3q-1 0 -8.5 -4t-11.5 -6q-2 0 -5 -3q-1 0 -2 -1t-1 -2q0 -2 2 -2.5t3 -0.5h4h4q2 0 5 0.5t5 1.5q22 4 44 5l44 2h26h21l185 -8h7h14l2 1h2q6 0 8.5 -6.5t2.5 -11.5q0 -8 -3 -15t-12 -7h-2q-20 11 -43 14q-27 4 -55 4.5t-55 0.5h-32
l-177 -11q-3 0 -14 -1t-15 -2q-20 -2 -39.5 -7.5t-39.5 -5.5q-6 0 -10.5 3.5t-4.5 11.5z" />
    <glyph glyph-name="three" unicode="3" horiz-adv-x="326" 
d="M36 -34q0 9 7 13q4 2 5 2q2 1 14 3.5t14 3.5q12 4 23.5 7.5t22.5 8.5q27 10 54 28q61 37 104 90q19 22 25 49q2 5 2.5 9.5t0.5 9.5v7q0 5 -1.5 8l-3.5 7q-11 18 -33 26.5t-42 8.5q-17 0 -33 -6.5t-33 -12.5q-9 -2 -17.5 -5t-17.5 -3q-18 0 -18 16q0 5 5 10q5 3 11 5.5
t13 5.5q1 0 6.5 2t12 4t12 4t7.5 3q8 2 14.5 5t14.5 7q1 1 4 3t4 2q17 12 33.5 24.5t25.5 32.5q4 7 4 14v3q0 2 -4 3t-6 2q-6 2 -11 2h-12h-11t-11 -2l-56 -15q-11 -4 -25 -4t-14 14q0 9 10 12q2 1 8.5 4t14 6t14 5.5t8.5 3.5q5 3 11.5 5t11.5 4q4 1 7 1.5t8 0.5
q8 0 13.5 -3.5t13.5 -6.5q13 -3 28 -4.5t24 -13.5q4 -4 4.5 -9t0.5 -10q0 -10 -1 -14q-3 -11 -12 -22q-2 -2 -7 -7.5t-7 -6.5q-8 -8 -17.5 -15t-15.5 -17l-1 -1l1 -1h2q2 0 4 0.5t4 0.5q3 0 9 -3q3 -2 10.5 -5.5t8.5 -4.5q3 -1 12.5 -6.5t11.5 -7.5q3 -2 7 -4.5t6 -5.5
q16 -20 16 -48q0 -29 -17 -56t-34 -47q-12 -14 -26 -27t-28 -24q-1 -2 -5 -5t-6 -5q-2 -1 -6.5 -3.5t-4.5 -3.5l-51 -29q-10 -6 -25 -9h-7l-3 -2q-2 -1 -9.5 -4.5t-9.5 -4.5q-1 -1 -4.5 -2.5t-4.5 -2.5q-2 -2 -11 -5.5t-11 -5.5q-4 -2 -7.5 -2h-6.5q-8 0 -14.5 4t-6.5 12z
" />
    <glyph glyph-name="four" unicode="4" horiz-adv-x="365" 
d="M160 -57q0 2 1 4t2 5t1 4l66 146l1 3v1q0 2 -2 2h-19q-5 0 -16 -1t-23.5 -2t-24 -2t-15.5 -1h-30h-3q-6 0 -16.5 1.5t-10.5 12.5q0 5 1.5 7.5t3.5 5.5l39 57l99 126q3 4 6 7l5 5h1q1 0 1 -0.5t1 -0.5h1q9 -9 9 -17v-2q0 -2 -2 -4q-1 -2 -3.5 -6.5t-3.5 -4.5l-103 -132
q-1 -1 -4 -6t-5 -7q-4 -6 -4 -8q0 -4 1 -4h13l111 7h8l1 1l1 2q2 3 5 8.5t4 7.5q2 4 6 13t5 11l110 242q0 1 2.5 7t4.5 8q5 8 14 20t20 12q3 0 5 -1.5t4 -3.5q0 -1 0.5 -1t0.5 -1t1 -1v-9l-1 -1q-1 -2 -5 -8.5t-8.5 -13.5t-9 -13t-5.5 -9q-2 -3 -8 -13t-8 -14l-7 -14t-7 -12
l-59 -136q0 -1 -2.5 -6l-3.5 -7l-2 -2q-1 -1 -1 -2t-1 -1v-9q-11 -18 -20 -37q-4 -10 -4 -12q0 -3 1 -3h3h4q4 0 14 0.5t21 1.5t21 1.5t14 0.5q3 1 5.5 2t6.5 1q8 0 14 -9q3 -5 3 -10q0 -6 -6 -10t-11 -4h-61h-8t-10 -1q-5 -1 -10 -1.5t-10 -1.5l-2 -1q-5 -3 -9 -10
q0 -2 -1 -3l-2 -2q-2 -4 -7 -15t-7 -14q-2 -4 -6 -13t-8.5 -19.5t-8.5 -19.5t-5 -13q-1 -2 -4.5 -11.5t-5.5 -13.5q0 -2 -2.5 -9.5t-3.5 -9.5q0 -1 -0.5 -4t-1.5 -4q0 -1 -1 -3.5t-1 -3.5v-1q0 -1 -2 -1q0 -2 -2.5 -5t-3.5 -5h-1h-5q-8 0 -13.5 1.5t-5.5 11.5z" />
    <glyph glyph-name="five" unicode="5" horiz-adv-x="391" 
d="M137 9q0 9 5 15.5t14 6.5q2 0 7 0.5t6 0.5t4 1t5 2q22 8 41 18.5t39 22.5q2 2 13.5 9.5t14.5 10.5q13 9 23 18.5t21 20.5q6 7 14 19t9 22v6q0 17 -7.5 25t-23.5 13q-7 3 -13.5 3h-12.5h-13q-1 0 -5.5 -0.5t-6.5 -0.5q-3 -2 -9.5 -3t-7.5 -1l-72 -18q-11 -3 -22 -5t-22 -2
q-5 0 -12 1t-7 9q0 5 3 10t7 9q1 2 3 5t2 4l48 55q0 1 2 2t3 3q3 3 3 5q0 1 1 2q0 1 0.5 1t0.5 1v1q0 4 -1 7t-1 7q0 6 1 8q2 2 5.5 3.5t5.5 1.5q5 2 11 3t11 4q7 5 11.5 11t13.5 6q3 0 6 -0.5t6 -0.5q16 0 31 5l30 10q2 0 7.5 1.5t6.5 1.5l90 13q1 0 6.5 0.5t12 1t13.5 1.5
t10 1q7 1 13.5 1h13.5q10 0 18.5 -3.5t8.5 -15.5q0 -5 -3.5 -10t-9.5 -5h-4q-1 0 -5.5 0.5t-10 1t-10 1t-5.5 0.5h-18q-23 0 -46 -2.5t-46 -7.5q-39 -6 -80 -20q-15 -6 -31 -15q-7 -3 -17 -12l-11 -11t-16.5 -17t-16 -17t-10.5 -11q-1 -1 -2.5 -3t-3.5 -3q-1 -2 -2.5 -4
t-1.5 -4q0 -4 3 -4h3l77 17q25 5 46 5h8t8 -1q10 -2 21 -7t20 -12t14.5 -16t5.5 -20q0 -20 -7.5 -36.5t-18.5 -31t-25.5 -26.5t-27.5 -22q-2 -1 -6.5 -4t-9 -7t-9 -7t-5.5 -4q-8 -3 -13 -3q-2 -2 -5.5 -5t-6.5 -4q-3 -2 -11 -6t-16 -8.5l-16 -9t-11 -5.5q-1 -1 -12.5 -5.5
t-16.5 -7.5t-9 -3q-15 0 -15 13z" />
    <glyph glyph-name="six" unicode="6" horiz-adv-x="477" 
d="M71 21q0 31 15 60q2 3 4.5 8.5t2.5 6.5l57 92q1 2 6 9.5t11.5 17t13 18.5t9.5 14q2 3 6.5 9t10 12.5t10 12.5t6.5 8t6.5 7.5t10 11.5t10 11.5t6.5 7.5q1 2 6.5 8t11.5 12t11 11.5t7 7.5q2 1 7 5t10.5 8.5t10.5 9t7 6.5q1 1 5 4t9 7t9.5 8t7.5 6q1 1 6 4.5t7 5.5
q24 17 54 17q9 0 15.5 -3.5t6.5 -14.5v-5q-1 -3 -5 -4.5t-7 -1.5h-23q-1 -1 -2 -1h-4q-3 -3 -6 -3q-19 -9 -35.5 -20.5t-30.5 -25.5q-12 -9 -23 -19.5t-21 -21.5q-17 -15 -28 -38q-2 -2 -7.5 -8t-12 -13t-12 -13.5t-7.5 -8.5q-3 -3 -8.5 -10.5t-11.5 -15.5t-11 -15t-6 -9
l-52 -79q-2 -2 -8 -13t-9 -17q0 -1 -2.5 -7t-4.5 -8q-5 -10 -8.5 -21t-3.5 -20q0 -7 5 -11h1h1q15 20 33 38t38 32q28 17 60 32q2 1 8 3t12.5 4.5t12 5t8.5 3.5q20 7 40.5 12.5t40.5 9.5q8 2 16.5 2.5t16.5 0.5h13q25 -4 45 -17t20 -41q0 -10 -4.5 -18.5t-11.5 -15.5
q-3 -5 -11.5 -12.5t-9.5 -8.5q-2 -2 -10.5 -9t-13.5 -11q-4 -3 -8.5 -5t-8.5 -5q-2 -1 -7.5 -3.5t-7.5 -2.5q-35 -15 -70.5 -26.5t-72.5 -21.5q-24 -7 -51 -7h-37h-25q-4 0 -7.5 -0.5t-5.5 1.5q-3 2 -4 6.5t-3 7.5t-4 4.5t-4 3.5q-1 2 -5.5 5.5t-5.5 5.5q-5 3 -6.5 8
t-3.5 10v10zM132 -3q0 -6 8.5 -8.5t13.5 -2.5h8q14 0 28 0.5t28 3.5q21 3 41 9.5t41 14.5q10 0 15 2q2 0 7.5 2t6.5 3l15 6t12 5l28 14t27 16q10 8 20.5 20.5t10.5 26.5q0 10 -7 15t-15 7q-5 2 -10.5 3t-10.5 1h-33q-1 0 -7.5 -1.5t-10.5 -2.5q-2 -1 -8.5 -3t-8.5 -3
q-23 -5 -44.5 -13t-43.5 -16q-5 -2 -9.5 -5.5t-10.5 -6.5l-15 -9q-31 -17 -58 -44q-6 -6 -12 -15.5t-6 -18.5z" />
    <glyph glyph-name="seven" unicode="7" horiz-adv-x="336" 
d="M91 -7q0 2 1 4l2 4l241 247l82 75v2h-16l-202 -23q-10 -1 -19.5 -1h-19.5h-14q-10 1 -16.5 5t-6.5 15q0 6 6 9h2q1 0 1 1h39l281 26h5h4.5t4.5 -1q5 -2 9.5 -6.5t4.5 -10.5v-1q-2 -5 -6.5 -9t-9.5 -7l-49 -33l-54 -47l-221 -232q0 -1 -2 -3.5t-3 -3.5q0 -1 -3.5 -6
t-4.5 -6l-2 -2q0 -1 -3 -4l-4 -4q-3 -2 -10 -2q-5 0 -11 3.5t-6 10.5z" />
    <glyph glyph-name="eight" unicode="8" horiz-adv-x="470" 
d="M33 -41q0 17 7 32.5t15 29.5q2 2 5 7t4 6q3 5 11 15.5t10 12.5q2 3 7.5 9t11 13t10.5 12.5t7 7.5t9.5 10t15.5 16.5t15.5 16l9.5 9.5q1 1 3 3.5t4 4.5v1q0 3 -4 3q-9 1 -19 2t-18.5 4t-14 9.5t-5.5 18.5q0 8 3.5 16.5t8.5 16.5q9 19 24 35q5 5 15 16t11 12l95 92
q1 2 7.5 7.5t9.5 7.5q32 29 69 46q1 1 8.5 3t10.5 4h2q1 0 1 1q9 2 17.5 4.5t17.5 2.5q10 0 15.5 -5.5t9.5 -13.5q2 0 3 -4t2 -5q0 -3 5 -5q9 -5 20.5 -9t22.5 -9.5t18.5 -13.5t7.5 -22q0 -17 -11 -31t-23 -25q-1 -1 -5 -4t-6 -5t-8.5 -7t-14.5 -10.5t-14.5 -11t-8.5 -6.5
q-4 -4 -7.5 -6.5t-8.5 -5.5l-7 -3.5t-11 -6t-10.5 -6.5t-5.5 -4q-8 -4 -14 -10l1 -1q11 -8 21.5 -11t22.5 -7q27 -8 36 -26t9 -44q0 -20 -10.5 -37t-23.5 -31q-27 -27 -57 -49q-32 -22 -64.5 -39.5t-67.5 -33.5q-2 -1 -12.5 -5t-14.5 -6q-2 -1 -11 -4t-11 -4q-5 -2 -8.5 -5
t-8.5 -5q-16 -6 -30.5 -10t-31.5 -4q-9 0 -20 1t-21.5 4.5t-18.5 9.5t-11 17q-2 3 -1.5 5.5t0.5 6.5zM66 -31q0 -9 4 -12q4 -6 8 -7q4 -3 12 -3h10q20 0 39 4.5t39 9.5q35 14 69 30t66 36q18 11 35.5 23t32.5 26l21 21q10 10 18.5 25t8.5 30q0 18 -9.5 29t-24 16t-31 6.5
t-30.5 1.5h-16.5t-16.5 -2q-2 0 -1.5 -1.5t-1.5 -3.5q1 -5 2.5 -11t1.5 -11q0 -3 -1 -4q-4 -8 -13 -8q-6 0 -9.5 3.5t-6.5 8t-6 8t-9 3.5t-10.5 -4.5t-9.5 -8.5q-3 -2 -6.5 -2.5t-5.5 -2.5l-6 -3q-2 -1 -3 -2q-23 -17 -41 -38t-36 -41l-3 -3l-2 -2q-4 -4 -8 -6t-7 -7
l-42 -66q0 -1 -2 -5.5t-4 -6.5q-5 -10 -5 -20zM151 212q0 -5 2.5 -7t5.5 -4q2 -2 6.5 -3t7.5 -1q14 0 27 1.5t25 7.5q8 3 14 6.5t14 8.5q2 1 7 3t7 3l12 6q2 1 10.5 4t18.5 6.5t18 7t10 4.5q3 2 11.5 4.5t10.5 4.5q49 23 89 56q10 8 18 16t16 17q1 1 3 3.5t3 4.5q7 5 7 12v1
l-1 2v1q-3 8 -12 14t-20.5 9.5t-23 5.5t-18.5 2q-5 0 -6 -1q-1 -2 -3.5 -4t-3.5 -3l-2 -1h-3q-11 0 -12 10t-2 18q0 1 -2 1.5t-3 0.5t-1 -1q-2 -1 -8 -3.5t-7 -3.5t-5.5 -3.5t-9.5 -5.5l-10 -6t-8 -4q-3 -3 -5 -3q-3 -2 -10 -7.5t-15 -11.5t-15 -11.5t-10 -7.5
q-1 -1 -5.5 -4.5t-9.5 -8t-9.5 -9l-6.5 -6.5t-9.5 -9t-10.5 -10q-1 -2 -6 -8.5t-7 -7.5l-5 -5t-8.5 -8l-9 -8t-5.5 -5q-5 -5 -9.5 -12t-8.5 -14q-2 -4 -8.5 -16t-8.5 -15v-3z" />
    <glyph glyph-name="nine" unicode="9" horiz-adv-x="431" 
d="M130 -41q0 5 5.5 15t10.5 10h3q4 0 7 -1t7 -1h1q32 17 60.5 38.5t54.5 44.5l6 6l8 8l7.5 7.5t4.5 5.5q1 1 5.5 6.5t10 11.5t10 11t6.5 7q3 3 10 12t9 11l54 84q1 2 4 7.5t4 7.5l5 10l5 10t2 5q1 2 2 3.5t2 3.5v5q-1 0 -2 1h-2q-1 0 -1 1q-3 -2 -10 -7t-15.5 -10.5
t-15.5 -10t-10 -6.5q-8 -5 -15 -8t-14 -7q-6 -4 -10.5 -9t-11.5 -9q-19 -10 -38.5 -17t-40.5 -13q-2 -1 -11 -3.5t-12 -2.5q-11 -3 -23 -5.5t-24 -2.5q-18 0 -34.5 8.5t-16.5 28.5q0 7 1 10q1 2 1.5 4.5t2.5 5.5q1 4 3 7q24 54 64 93t88 70q33 21 69.5 36t75.5 15h10
q6 0 12.5 -2t12.5 -4q16 -8 28 -22t12 -34q0 -11 -2.5 -20t-6.5 -19q-8 -22 -18.5 -43t-22.5 -40v-7q0 -1 -1 -2q-2 -2 -2 -3q-11 -23 -25.5 -44t-28.5 -43q-5 -7 -8.5 -14.5t-8.5 -14.5q-6 -7 -12.5 -13.5l-13.5 -13.5q-1 -2 -6 -8t-11 -13t-11 -13t-6 -8
q-20 -23 -42.5 -44t-48.5 -40q-8 -8 -18.5 -15t-20.5 -13q-2 -2 -7 -4t-6 -3l-10 -5l-12 -6t-12 -2h-4l-1 1q-1 0 -2 1q-9 9 -9 14zM156 216q2 -7 10.5 -9t14.5 -2h12q9 0 15.5 0.5t14.5 1.5q2 1 8 3t8 2q3 1 10 4.5t15 7t15 6.5t10 4t11.5 5t17.5 8.5t17.5 9t12.5 6.5
q2 2 12 7l14 7q14 8 26.5 16t24.5 19q11 9 21.5 20t17.5 24q4 6 7 13.5t3 14.5v9q0 20 -8.5 29.5t-28.5 9.5q-25 0 -49 -8q-23 -8 -45.5 -19t-42.5 -23q-1 0 -4 -0.5t-4 -0.5l-2 -1q-50 -36 -92 -80q-14 -14 -28 -35.5t-14 -42.5v-6z" />
    <glyph glyph-name="colon" unicode=":" horiz-adv-x="203" 
d="M74 15q0 11 15 20.5t26 9.5q9 0 13 -6t4 -15q0 -5 -4.5 -9.5t-11 -7.5t-13.5 -4.5t-11 -1.5q-8 0 -13 3t-5 11zM128 185q0 7 4 11l9 9q10 7 23 7t13 -12q0 -9 -6.5 -14.5t-14.5 -9.5q-4 -2 -14 -2h-6q-8 3 -8 11z" />
    <glyph glyph-name="semicolon" unicode=";" horiz-adv-x="203" 
d="M15 -102v3.5t2 3.5l2 2l3 3l1 1q1 0 1 0.5t1 0.5q7 2 14 3t13 3q1 0 2.5 1t2.5 1q10 6 19 13.5t17 16.5q8 7 12.5 17.5t4.5 21.5q0 12 -6 22t-12 18l-7 7q-4 6 -4 7q0 6 4.5 10t9.5 4h4q2 0 4 -1.5t3 -2.5q7 -6 12.5 -13t8.5 -15l1 -2q2 -9 4 -18.5t2 -18.5q0 -8 -3 -15
t-5 -13q-6 -11 -13 -20t-15 -18q-11 -11 -29 -25.5t-35 -14.5q-8 0 -13.5 5t-5.5 13zM119 179q0 9 7.5 14t15.5 5q14 0 25 -12q1 -1 1 -5q0 -10 -9.5 -13.5t-17.5 -3.5q-7 0 -14.5 3.5t-7.5 11.5z" />
    <glyph glyph-name="less" unicode="&#x3c;" horiz-adv-x="313" 
d="M206 127q-2 2 -9 5t-9 4q-1 1 -3.5 3t-3.5 2l-69 35q0 1 -3.5 3t-4.5 2q-1 1 -4 3.5t-5 3.5q-2 0 -4 2l-3 3q-2 2 -6 5.5t-4 7.5t3 6.5t6 3.5l106 47l78 39q11 5 22.5 8.5t22.5 7.5q6 2 13 2h1q1 0 2 -0.5t2 -0.5h2l1 -1l2 -4q1 -2 1 -3.5t1 -2.5v-2v-4t-2 -4t-6.5 -3
t-6.5 -2q-2 0 -8.5 -1t-7.5 -1t-4 -1t-5 -2t-5.5 -2t-4.5 -2q-4 -2 -11.5 -5t-8.5 -4l-70 -37l-51 -21q-1 0 -5 -1.5t-6 -3.5t-5.5 -3.5t-6.5 -2.5l-1 -2q0 -2 5 -4q1 -2 5 -4.5t6 -3.5l159 -90q1 0 3.5 -1.5t3.5 -2.5q2 -2 2 -9q0 -9 -4 -11t-12 -2q-6 0 -10 2
q-18 14 -38 26t-40 23z" />
    <glyph glyph-name="equal" unicode="=" horiz-adv-x="443" 
d="M151 87q-4 0 -15 -1.5t-14 -1.5h-8h-8q-13 4 -13 16v2v2q6 8 15 8h25l168 -6l96 -9q15 -2 15 -15q0 -5 -3.5 -10t-8.5 -5t-8 1.5t-7 2.5q-29 7 -56.5 10.5t-57.5 5.5h-21h-50h-49zM411 217q0 2 0.5 4t0.5 4q-2 0 -3 1q-1 0 -1 0.5t-1 0.5t-1 1l-65 6h-11q-14 0 -29 -1
t-29 -1h-14h-6l-7 2h-10q-14 0 -28.5 -1t-28.5 -1h-16h-8q-6 1 -12.5 3t-10.5 7q-1 0 -1 5q0 4 1 5q4 6 13.5 7t15.5 2q3 0 9.5 0.5t7.5 0.5h151q2 0 8.5 -0.5t15 -1t16 -1.5t12.5 -2q2 0 17 -1.5t22 -3.5q8 -1 17 -3t9 -13q0 -7 -5.5 -18.5t-14.5 -11.5q-14 0 -14 11z" />
    <glyph glyph-name="greater" unicode="&#x3e;" horiz-adv-x="323" 
d="M193 136q8 3 14.5 6t14.5 7q1 1 3.5 2.5t3.5 2.5l1 1q1 1 1.5 1t1.5 1l4 2q2 1 4.5 1h4.5q2 2 3 4t3 4l4 2t4 3q2 1 8 5t12.5 7.5t12.5 7t8 5.5q2 0 6 3t5 5q1 0 2 1q0 2 -2 2q-3 3 -7 3l-133 46q-2 1 -9.5 4t-11.5 4q-1 1 -7.5 3.5t-8.5 4.5q-4 2 -7 4t-5 6q-2 2 -1.5 3
t0.5 2q0 10 11 15h5q5 0 8 -1.5t8 -3.5q2 -1 7 -4.5t7 -4.5q0 -1 4 -1q3 -2 12.5 -6t20 -8.5t19.5 -8t13 -4.5q3 -1 8 -3l10 -4t9.5 -3.5t6.5 -1.5l68 -17q1 0 5 -1.5t7 -1.5q2 -2 7 -3.5t7 -4.5v-5q0 -2 -0.5 -5.5t-2.5 -5.5q-1 0 -3.5 -2.5t-3.5 -2.5q-1 -2 -4.5 -4
t-4.5 -3l-130 -71l-64 -31q-1 0 -11.5 -4t-15.5 -6q-11 -4 -22 -4h-7q-6 2 -6 7v10v1q0 1 1 2q3 4 13 8q2 1 7.5 3.5t8.5 2.5q4 1 14.5 5t22 7.5t22 7t14.5 4.5z" />
    <glyph glyph-name="question" unicode="?" horiz-adv-x="365" 
d="M75 2q0 7 4.5 14.5t12.5 7.5t11.5 -6t3.5 -14t-7 -14q-1 -1 -2 -1t-2 -1h-5q-16 0 -16 14zM88 75q1 10 5 19t7 18q1 4 4.5 14.5l4.5 13.5q1 2 2.5 10.5t2.5 11.5q0 2 1.5 8t1.5 8q2 5 5.5 9t8.5 4h6h22q22 0 43 4t43 11q15 3 30 9.5t30 14.5q24 13 47 34t32 47
q2 6 4 12.5t2 12.5v12v12q0 6 -2 12t-4 11q-6 11 -12 19q-17 19 -44 23t-50 4q-42 0 -82 -12q-2 0 -7.5 -1.5t-7.5 -2.5t-6 -2.5t-6 -3.5q-1 -1 -5.5 -4.5t-5.5 -3.5q-2 -3 -5.5 -3.5t-7.5 -1.5q-5 -4 -8.5 -8t-10.5 -4t-12.5 4.5t-5.5 12.5q0 6 4.5 11t11.5 9t13.5 7
t11.5 5q21 8 41.5 12.5t42.5 8.5q2 0 12 1.5t15 2.5h7h13q28 0 53 -5t43.5 -17.5t29 -33.5t10.5 -53q0 -20 -4 -39t-14 -36q-6 -11 -14 -19l-16 -16l-4 -4q-15 -12 -32 -20.5t-35 -16.5q-3 -1 -11.5 -4.5t-10.5 -3.5q-4 -2 -12.5 -4.5t-10.5 -2.5l-97 -23q0 -1 -1 -1h-2
l-2 -1q-1 -1 -1 -2t-0.5 -1.5t-0.5 -1.5q-5 -11 -9.5 -22t-8.5 -24q-5 -11 -6 -21q-2 -7 -2.5 -14t-7.5 -13q-4 -2 -8 -2q-18 0 -18 20z" />
    <glyph glyph-name="at.001" horiz-adv-x="380" 
 />
    <glyph glyph-name="at" unicode="@" horiz-adv-x="474" 
d="M118 178q0 26 8 50.5t22 47.5q26 41 64.5 73.5t82.5 52.5q37 16 76 20h20q22 0 42.5 -2.5t36.5 -11t25 -24.5t9 -43q0 -44 -26.5 -79t-59.5 -61q-1 -1 -5 -4.5t-9 -7t-9.5 -7t-7.5 -5.5q-8 -5 -15.5 -9.5t-18.5 -6.5l-3 -1h-8h-8q-5 1 -8.5 4t-7.5 6h-2q-5 0 -9.5 -2
t-8.5 -4t-7 -2.5t-8 -0.5q-11 0 -20 7t-11 18v7v8q0 5 4 13q4 11 9.5 20.5t11.5 18.5q8 12 20.5 25t27.5 24t30.5 18.5t30.5 7.5t24 -7.5t9 -22.5q0 -20 -13 -33v-13q-1 -9 -7.5 -18t-11.5 -15q-1 -2 -8 -9.5t-8 -9.5q-1 -1 -1.5 -2t-1.5 -2h1q8 2 16 6.5t14 9.5
q40 30 65 73q8 11 14 25t6 28q0 20 -8.5 32.5t-21.5 19.5t-30 9.5t-33 2.5q-43 0 -82.5 -18t-74.5 -44q-17 -13 -31 -28l-28 -30q-8 -9 -12 -19t-9 -21q-5 -15 -9 -29.5t-4 -29.5q0 -38 21.5 -56t54.5 -26q11 -3 22.5 -3.5t23.5 -0.5q38 0 73 9.5t69 23.5q7 -1 13 2t12 7
q10 5 19 11t16 14q4 4 6 9q3 7 5 18t12 11h4l2 -1q4 -2 5.5 -6.5t1.5 -8.5q0 -8 -3.5 -14.5t-8.5 -11.5q-8 -11 -18 -18.5t-20 -14.5q-16 -9 -33.5 -16.5t-34.5 -15.5q-17 -7 -35.5 -11.5t-38.5 -8.5q-25 -5 -48 -5q-35 0 -70.5 12.5t-58.5 41.5q-8 12 -11 26t-3 28z
M275 203q0 -8 4 -13t12 -5q7 0 16 4t14 9l19 19l53 65q3 3 3 10q0 12 -12 12t-25 -8q-17 -8 -31 -20t-28 -26q-7 -8 -16 -22t-9 -25z" />
    <glyph glyph-name="A" unicode="A" 
d="M278 -33l12 37l24 96q0 2 2 14t4 18q2 11 3 21.5t1 21.5q0 2 -2.5 3t-4.5 1h-20h-19q-3 0 -11.5 -0.5t-18 -1.5t-18 -1.5t-10.5 -0.5t-10 -0.5t-17.5 -1t-17.5 -1t-10 -0.5q-8 -1 -17.5 -2.5t-14.5 -9.5l-75 -110q-2 -2 -7 -8.5t-7 -8.5t-5.5 -6t-5.5 -6q-1 -1 -6 -1
t-9.5 4t-4.5 10v4q1 1 2 3q1 1 1 2t1 2q0 2 1.5 3t1.5 2q2 4 7.5 11t6.5 8l64 84q2 2 5.5 8t4.5 10l-1 2q-1 0 -2.5 4t-1.5 5v4q0 6 1 8.5t7 5.5l2 1h14q8 1 13.5 7t9.5 12l122 159q6 9 12 17t11 16q12 15 23.5 28t20.5 28q2 6 4 10q0 2 0.5 7t0.5 6q1 3 2.5 5t3.5 4t5 2h5
q11 0 16 -13.5t7 -21.5q2 -12 3 -24.5t1 -26.5v-12q0 -3 -1 -12.5t-1 -11.5q0 -3 -0.5 -10t-1.5 -13.5t-1.5 -12t-0.5 -6.5l-21 -110q-1 -3 -1 -10q0 -4 2 -6q1 0 2 -0.5t2 -0.5h25q0 -1 1 -1h2q5 -2 8.5 -5t3.5 -9q0 -7 -4.5 -11t-10.5 -6.5t-12.5 -3t-10.5 -0.5h-7
q-1 0 -2.5 0.5t-2.5 0.5h-1h-1l-4 -5l-32 -190q0 -2 -1 -7t-1 -7q-1 -6 -3 -10t-9 -7q-2 0 -3 -0.5t-3 -0.5q-7 0 -13 4.5t-6 10.5v3zM175 210q0 -5 5 -7t10 -2q8 0 14 1t14 2l110 5q3 0 6 5v3l25 149q0 2 1 13.5t1 17.5v11v12.5t-2 13.5q0 2 -1 5t-4 3h-2q0 -1 -1.5 -2
t-1.5 -2l-173 -225q-1 -1 -1 -3z" />
    <glyph glyph-name="B" unicode="B" horiz-adv-x="475" 
d="M93 -11q0 7 8 12q2 0 5 1t5 2h3q1 0 1.5 0.5t1.5 0.5l61 11l31 9l84 28q1 1 7 3t13 5l14 6t10 5l15 7.5l15 7.5q3 2 13 7.5t14 7.5q2 1 9 5.5t9 6.5q16 11 33.5 27t24.5 35q2 5 3 10t1 12v6q0 2 -2.5 6t-4.5 6q0 1 -3.5 4.5t-5.5 4.5q-3 4 -8 6.5t-10 4.5q-11 5 -23 8.5
t-23 5.5q-9 2 -17.5 2h-17.5h-10q-31 -3 -61 -8t-61 -12q-1 0 -2.5 -1t-2.5 -1l-19.5 -6.5t-17.5 -11.5q-2 -3 -6 -13.5t-6 -12.5q-1 -2 -4 -10t-7.5 -17.5t-8.5 -19t-6 -15.5q-1 -1 -1 -2q-1 -1 -1 -2v-1q-2 -3 -3.5 -9.5t-1.5 -7.5q-1 -3 -3 -11t-4.5 -17t-5 -17.5
t-3.5 -11.5q-1 -2 -2 -5.5t-2 -4.5q-2 -5 -5.5 -12t-8.5 -7h-5q-13 0 -16 15v8q0 8 2.5 17t6.5 19q2 4 6.5 15t9.5 23t9.5 22.5t6.5 15.5q1 3 5.5 11.5t9 18.5t8.5 18.5t6 11.5q0 1 1 2t1 2q0 5 -2.5 8t-4.5 6q-1 0 -1 1v2q-1 1 -1 2v4v4q2 5 5 7q1 0 2.5 0.5t2.5 0.5
q7 2 13.5 5t8.5 10l61 134v1q0 2 -0.5 5t-3.5 3q-6 0 -10.5 -4t-9.5 -8q0 -2 -4 -6.5t-5 -5.5q-1 -2 -5 -2q-5 0 -7.5 4t-3.5 8q-3 3 -3 6v7v5q2 9 12.5 15.5t18.5 9.5q2 0 13 4t13 5q4 2 8.5 4t6.5 5q2 2 3 6.5t1 7.5l2 12t9 6q5 0 8 -4q1 0 5 -5t4 -6q2 -1 6 -5l5 -5
q4 -4 11 -4t12.5 2t12.5 2q9 0 18.5 -2.5t18.5 -4.5q20 -4 39 -15q9 -5 15 -11.5t11 -14.5q5 -5 10 -12.5t6 -15.5v-9q0 -11 -2.5 -21t-10.5 -20q-5 -9 -16 -18q-1 -1 -5.5 -4t-10 -7t-10 -7t-5.5 -4t-2.5 -2t-1.5 -2q-1 -1 -3 -2.5t-3 -2.5q-1 0 -2 -1.5t-2 -2.5
q0 -1 -1 -2l1 -2q1 0 3.5 -2t3.5 -3q11 -2 21 -3.5t19 -5.5q20 -8 40.5 -24t26.5 -37q2 -5 2 -9.5v-9.5q0 -23 -11.5 -39.5t-26.5 -30.5q-2 -2 -8 -6.5t-9 -6.5q-2 -2 -7.5 -6t-12 -9t-12.5 -10t-9 -7q-11 -8 -21 -12l-10 -4l-10 -4q-5 -3 -9 -6t-9 -5q-3 -1 -9.5 -4t-14 -6
t-14 -5.5t-9.5 -3.5q-2 -1 -10 -3.5t-17 -5.5l-18 -6t-13 -4q-2 0 -9.5 -2t-16 -4.5t-16 -5t-9.5 -3.5q-1 0 -5.5 -1.5t-9.5 -3t-10 -3.5t-6 -2q-11 -4 -21 -5t-20 -1h-10q-14 1 -14 19zM214 268l3 -3h7h7q2 0 7 1t7 1q23 3 45 10q40 12 77.5 35t62.5 59q3 2 3 12
q0 11 -7 20q-10 11 -19 16t-23 10l-10 2t-10 1h-49q-6 0 -14 -2q-10 -2 -18 -7.5t-13 -14.5q-2 -5 -2 -9.5t-2 -9.5l-50 -116q0 -1 -1 -2t-1 -2v-1z" />
    <glyph glyph-name="C" unicode="C" horiz-adv-x="468" 
d="M56 53q0 12 2.5 23.5t6.5 22.5q1 3 3.5 10t5.5 14.5t5.5 14.5t3.5 9t3 6.5t2 5.5q1 3 3.5 7.5t5 10t5 9.5t2.5 5q18 33 40 62.5t48 56.5q1 2 5.5 6.5l9 9l8.5 8.5t5 6q25 24 51 45.5t55 41.5q1 1 5.5 4t10.5 6.5t11 6.5t8 5q20 13 37 18.5t40 5.5h11q19 -2 32 -14t18 -29
q4 -8 4.5 -15.5t0.5 -15.5v-12q0 -8 -2.5 -14.5t-4.5 -14.5q-6 -20 -16.5 -39.5t-22.5 -36.5q-14 -18 -27.5 -33.5t-28.5 -31.5q-5 -4 -8.5 -7t-9.5 -3q-5 0 -11 5t-6 12q0 5 3 11t7 10q2 2 5.5 7t4.5 6l53 64q0 1 4.5 7t6.5 9q16 20 24 46q2 5 2 15v8q0 5 -4 13
q-2 5 -5.5 8.5l-7.5 7.5l-2 1q-10 6 -22 6q-20 0 -40 -9t-37 -20q-4 -2 -11 -7t-9 -7l-68 -54q-2 -1 -6.5 -5t-10 -8.5t-10 -9l-6.5 -6.5l-7 -7l-10.5 -10.5l-10.5 -10.5l-7 -7q-3 -3 -12.5 -13.5t-12.5 -15.5q-17 -22 -31.5 -45t-28.5 -49q0 -2 -2.5 -7t-2.5 -7
q-2 -3 -5 -11.5t-4 -9.5q0 -1 -2 -6.5t-4.5 -13t-5 -15.5t-3.5 -12q-3 -11 -3 -22q0 -25 19.5 -35t41.5 -14q11 -2 23 -2h25h19q4 0 15 1t14 2q4 1 15 2.5t23.5 4t23 4t15.5 2.5q3 1 14.5 3.5t24.5 5.5t25 5.5t18 4.5q1 1 7.5 2.5t14 4t15.5 4.5l12 3q11 2 19.5 5.5
t17.5 7.5q8 3 13.5 8t15.5 5q8 0 13.5 -7t5.5 -15q0 -5 -2.5 -8.5t-6.5 -7.5q-6 -3 -14 -5q-2 -1 -8 -1.5t-8 -1.5l-186 -46q-2 0 -8 -1t-13.5 -2.5t-14.5 -2.5t-10 -2q-23 -4 -46 -5.5t-47 -1.5q-17 0 -35.5 3t-35 10.5t-28.5 20.5t-16 33q-2 3 -1.5 6t0.5 8z" />
    <glyph glyph-name="D" unicode="D" horiz-adv-x="428" 
d="M26 -46q0 8 2.5 12t7.5 11l160 442v3h-7l-3 -1q-13 -3 -24 -7.5t-23 -4.5h-6q-11 5 -11 16q0 6 8 10l12 6l9 3t7 2q5 2 15.5 4t12.5 3q3 0 11.5 1.5t17.5 3t17.5 3t11.5 1.5q4 1 17 2.5t17 1.5h11q31 0 65.5 -9t63.5 -27t47.5 -45.5t18.5 -64.5q0 -23 -6.5 -43t-17.5 -40
q-8 -17 -19.5 -32t-23.5 -29q-34 -40 -76 -70q-4 -2 -12 -7.5t-10 -6.5l-182 -107q-6 -5 -16 -8q-8 -2 -16.5 -5t-16.5 -8q-1 0 -2 -1t-1 -2q-2 -2 -5.5 -4.5t-4.5 -3.5q0 -1 -2.5 -4t-2.5 -4q-2 -1 -5 -4l-5 -5q-4 -4 -12 -4q-10 0 -14 3q-3 4 -5 6.5t-3 5.5v7zM75 -4
q0 -4 1 -4q8 0 16 5q0 1 1 1t2 1t3 1l163 87q23 13 44 27.5t41 29.5q2 3 11.5 11.5t12.5 10.5q16 15 31 32.5t27 37t19 41.5t7 45q0 9 -1 18t-4 18q-4 7 -7.5 13t-9.5 11q-6 8 -12.5 14t-14.5 11q-19 13 -40 20.5t-44 11.5q-2 0 -7 0.5t-7 0.5h-14h-16t-17 -2
q-20 -3 -30 -21l-3.5 -7t-3.5 -6l-35 -88q-4 -9 -6 -18.5t-6 -18.5l-12 -24q-2 -5 -5.5 -13t-6.5 -16t-5.5 -14.5t-2.5 -7.5l-32 -98l-8 -20l-8 -20l-1 -3q0 -2 -1 -6t-1 -5q-1 -2 -2 -9.5t-3 -9.5v-4q-1 -1 -1 -1.5t-1 -1.5t-1 -3q-2 -6 -6 -13t-4 -14z" />
    <glyph glyph-name="E" unicode="E" horiz-adv-x="495" 
d="M51 11l6 23l54 159q0 2 2 7t2 6v4q0 5 -2 11.5t-2 13.5q0 6 3.5 7t8.5 3h3q1 0 2 1q5 2 5 6q5 8 7.5 16t4.5 16l46 129q0 1 1 5t2 6v1q0 4 -1 7t-1 7v3l1 2q4 5 14.5 12.5t17.5 7.5h2q1 -1 5.5 -3t5.5 -3h3h27q1 0 7.5 -1t7.5 -1h5h4l143 13q2 0 9.5 0.5t17 1t18.5 0.5
h14h30h32h15q9 -1 14 -2t10 -9q2 -3 2.5 -6.5t0.5 -6.5v-5q0 -4 -3.5 -8.5t-8.5 -4.5t-9 3l-8 6q-5 4 -12.5 6t-13.5 2h-59l-213 -15h-32q-2 0 -5 -4t-4 -6l-53 -116q0 -1 -5 -12t-7 -18q-3 -5 -3 -9q0 -2 1.5 -3t2.5 -3h7q21 0 46 5q3 0 10 1.5t15 3t14.5 2.5t9.5 2l122 8
h60q1 -1 2 -1h3q8 -2 16 -6.5t8 -14.5q0 -7 -4 -9q-1 -2 -4.5 -2t-5.5 -1q-2 0 -4 -0.5t-3 -0.5h-13h-12q-2 0 -7 0.5t-11 1t-11 1t-6 0.5h-20h-20q-4 0 -14.5 -0.5t-22 -1t-21.5 -1.5t-14 -1q-2 0 -9 -1t-15 -2t-15.5 -2t-10.5 -1q-2 0 -7.5 -1t-12 -2.5t-12 -2.5t-8.5 -2
q-2 -1 -11.5 -3t-14.5 -3q-2 -1 -6.5 -2t-6.5 -2q-9 -4 -13.5 -13t-7.5 -17q-1 -2 -2.5 -7t-2.5 -7q0 -1 -2 -7t-3.5 -13t-3.5 -13.5t-2 -8.5q-1 -2 -2 -5q-2 -6 -2 -7q-2 -2 -3 -5.5t-2 -6.5q0 -1 -0.5 -8t-0.5 -9q-2 -12 -7 -23q-1 -2 -4 -10t-3 -9q-2 -6 -4 -11t-2 -11
v-2q0 -2 1 -3l5 -5h9l307 31h5.5t13 0.5t15.5 0.5h13h6q10 0 19.5 -3t9.5 -17q0 -5 -2 -7q0 -2 -3.5 -3.5t-5.5 -1.5q-11 -3 -23 -3q-2 0 -4 0.5t-4 0.5t-6.5 2t-5.5 2h-7h-8q-3 -1 -13.5 -2.5t-13.5 -2.5q-1 0 -3 -0.5t-3 -0.5l-170 -9q-27 -11 -55.5 -15.5t-57.5 -7.5
q-2 0 -12.5 -0.5t-14.5 -0.5h-10h-10h-2q-6 5 -7.5 10.5t-1.5 12.5v4z" />
    <glyph glyph-name="F" unicode="F" 
d="M42 -21q0 1 1 4t1 5l62 182v1q0 3 -0.5 5.5t-0.5 4.5q0 5 3 7l6 6q1 1 2.5 4l2.5 5l53 133q0 1 2.5 6.5t5 13l5 15t4.5 12.5q0 1 1.5 6t2.5 7q2 6 2 11q-2 0 -3.5 -1t-3.5 -2q-2 -2 -9.5 -6.5t-9.5 -6.5q-7 -5 -15 -5q-6 0 -11.5 5t-5.5 11q0 3 1.5 5t3.5 4
q12 10 26.5 16.5t28.5 14.5q13 4 20 12q6 6 8 16q0 1 1.5 6.5t3.5 11t3.5 10.5t1.5 7q3 10 10 15q0 1 5 1q11 0 17 -8q1 -1 1 -5v-3q0 -1 -1.5 -4t-1.5 -5q-2 -2 -4.5 -10.5t-4.5 -10.5v-2l134 53q2 2 15 5.5t18 4.5q16 5 31.5 7.5t29.5 5.5h2q2 2 2.5 3.5t2.5 1.5h5h5
q2 -2 3.5 -2.5t3.5 -2.5q0 -1 1.5 -2.5t1.5 -2.5l2 -1v-8v-4.5t-1 -4.5t-3.5 -7.5t-4.5 -7.5q0 -1 -2.5 -3.5t-3.5 -2.5q-5 -3 -9 -3q-8 0 -10.5 4t-7.5 8h-3q-9 0 -18 -1t-18 -3q-1 0 -5.5 -1.5t-6.5 -2.5q-4 -1 -11 -2.5t-9 -2.5q-3 -1 -8.5 -2.5t-11 -4t-10.5 -4t-6 -2.5
q-4 -1 -11.5 -4t-16 -6.5t-15.5 -6.5t-10 -4q-3 -2 -11 -6t-17.5 -8.5t-18.5 -8.5t-12 -5q-5 -4 -10 -7t-8 -8l-5 -10l-62 -156l-13 -39v-2q11 3 23.5 7.5t23.5 10.5q3 1 13 6t21 11t21 11.5t13 6.5q4 1 15 6t23 10t23 10t16 7l10.5 3.5t15.5 5.5t15.5 5.5l10.5 3.5
q2 0 8.5 2.5t9.5 2.5q7 2 13.5 3.5t13.5 1.5h5q3 0 7.5 -3t5.5 -5t1.5 -7t0.5 -7v-3q0 -8 -5 -10l-2 -1h-24q-1 0 -4.5 -0.5t-5.5 -1.5q-10 -2 -18.5 -3.5t-17.5 -4.5q-3 -1 -8 -2.5t-10 -3.5t-9 -3.5t-5 -1.5l-81 -33q-2 0 -10 -4l-18 -9l-20 -10l-16 -8q-1 0 -5.5 -2.5
t-9.5 -5t-10 -5.5t-7 -4l-30 -18l-8 -8t-6 -9q-1 -1 -3.5 -6.5t-4.5 -7.5q-1 -1 -1 -2q-1 -1 -1 -2v-1q-1 -2 -2.5 -6.5t-1.5 -5.5l-39 -138q-1 -2 -3 -8t-2 -8q-1 -2 -2 -4.5t-2 -2.5l-3 -3t-2 -3q-3 -1 -10 -1h-4q-6 2 -8 6.5t-2 9.5v4z" />
    <glyph glyph-name="G" unicode="G" horiz-adv-x="588" 
d="M55 34q0 31 9 60.5t21 56.5l7.5 15t7.5 13q1 3 5 9.5t8.5 14t8.5 14t5 8.5q3 3 8.5 11.5t12 17.5t12 17t8.5 11q2 3 8.5 11t14.5 17.5t15.5 18t10.5 12.5q1 1 5.5 6t9.5 11t10 11.5t8 7.5l9.5 9.5t10.5 9.5q2 2 10 9.5t11 10.5q5 3 7 6q2 1 5.5 2t5.5 3l3 2
q11 14 22.5 25t25.5 22q1 0 5.5 3.5t11 8.5t13 9.5t10.5 7.5l1 2q2 2 7 5t6 3q1 1 7 4t12.5 6t12.5 6l8 4q1 0 5.5 2t4.5 3h2l1 1q5 1 9.5 1h9.5h11q5 0 8.5 -1.5t8.5 -2.5q34 -12 34 -50v-6v-3q0 -1 -0.5 -1t-0.5 -1v-1q-3 -9 -8.5 -18t-16.5 -9q-13 0 -13 12q0 2 1 5
q1 2 3.5 6.5t2.5 6.5q3 6 3 12q0 5 -7 14q-5 4 -13 5t-14 1q-14 0 -27 -5t-24 -12q-2 -1 -9 -5t-9 -6t-8.5 -6t-6.5 -5q-3 -2 -9 -6.5l-12 -9t-11 -8t-6 -4.5q-4 -4 -12.5 -11t-17 -14.5t-15.5 -14t-8 -8.5l-81 -82l-16 -17q-1 0 -1 -1v-2q-2 -4 -4 -7.5t-5 -7.5l-4 -2
t-3 -3l-46 -71q-2 -2 -8.5 -13.5t-8.5 -16.5q-26 -47 -41 -101q0 -2 -3 -5q-4 -5 -4 -12v-12v-9q0 -8 5 -15q6 -9 16 -15.5t22 -10.5t24 -6t22 -2q5 -1 11 -1h11q15 0 29.5 2.5t27.5 5.5q4 2 16.5 4.5t15.5 4.5q31 9 61.5 20t59.5 25q22 11 42.5 22t39.5 24q2 2 7 5.5t7 4.5
q2 2 6.5 5.5t4.5 4.5q2 1 6 5.5t6 6.5q3 2 4 10t1 13q0 23 -13 37l-5 5q-2 4 -5 4q-2 2 -9.5 9t-9.5 8q-5 5 -10.5 6t-11.5 1q-29 0 -56.5 -8.5t-56.5 -8.5h-5q-1 0 -4 0.5t-4 0.5q-7 1 -10.5 6t-3.5 11q0 9 8.5 14.5t15.5 7.5q32 8 62 8h33q3 0 13.5 1t13.5 2l107 5h14
q13 0 24.5 -0.5t20.5 -11.5q5 -5 5 -12t-7 -12q-3 -2 -7.5 -2.5t-7.5 -0.5h-7q-1 0 -5 0.5t-9.5 1t-10 1t-5.5 0.5h-7t-16 0.5t-19 1t-16 0.5h-1l-1 -1l1 -2q3 -8 8 -13t10 -13q14 -19 14 -42q0 -5 -0.5 -9.5t-1.5 -9.5q-2 -5 -2.5 -8t-2.5 -8v-1q-10 -16 -23.5 -27
t-28.5 -21l-10.5 -7t-9.5 -6l-100 -53l-6 -2q-2 -1 -10.5 -4.5t-19 -7t-20.5 -7.5t-15 -5q-4 -1 -19 -5t-21 -6q-21 -5 -41.5 -8t-42.5 -3h-15q-8 0 -15.5 1t-15.5 3q-26 6 -51.5 20t-30.5 44v13z" />
    <glyph glyph-name="H" unicode="H" 
d="M290 -16q0 10 2 15q2 4 7 17t7 16l47 150q0 2 2.5 9.5t2.5 11.5q5 20 5 38v1h-1l-62 -12l-108 -14q-4 -1 -6.5 -2.5t-7.5 -1.5q-6 0 -11 1.5t-11 1.5h-5q-3 -2 -4.5 -5t-3.5 -5l-28 -93q-2 -4 -6 -15t-6 -15q-3 -8 -3 -15t-2 -15q0 -5 -2 -7q0 -1 -1.5 -2t-1.5 -2h-1v-1
q0 -1 0.5 -3.5t0.5 -3.5l-1 -3q-4 -8 -6.5 -20.5t-10.5 -16.5q-2 -2 -6 -2q-8 0 -16 10q-3 4 -3 12q0 9 3 18q2 5 5 14.5t3 10.5l30 76q0 1 1.5 6t3.5 11t4 12.5t4 9.5l7 28q0 2 0.5 5.5t2.5 5.5q0 2 0.5 4t0.5 3v1v1q-1 1 -2.5 3.5t-2.5 4.5v5v3q0 2 2 3.5t4 2.5
q1 1 3.5 2.5t4.5 1.5q6 9 11 19t10 19q1 2 3 7.5t3 6.5q2 7 7 19.5t6 14.5l47 161q1 1 5.5 13.5t6.5 19.5q0 4 3 7q4 1 9 1h2q7 -1 11 -8q0 -1 0.5 -1.5t0.5 -1.5t1 -2v-5q0 -6 -1.5 -12.5t-3.5 -11.5l-32 -77l-37 -106q0 -2 -2.5 -10.5t-4.5 -10.5q0 -2 -1.5 -9t-2.5 -10
q-2 -6 -2 -10.5v-10.5h26l125 18q2 0 18 3.5t24 5.5q2 0 6 1t6 2q2 0 5 1t5 2v1l9 27l37 175q4 8 5 11q5 8 15 8q7 0 14 -9q3 0 3 -5v-2q0 -2 -1 -4.5t-2 -5.5q0 -2 -2.5 -8t-5.5 -12.5t-5.5 -12.5t-2.5 -7q-1 -1 -1 -2t-1 -2q-1 -2 -1 -3l-24 -97q-1 -2 -2 -10t-2 -11
q-1 -2 -1.5 -9t-0.5 -9v-8v-9q2 -5 4 -8.5t2 -8.5q0 -8 -7 -8t-11 -5q-1 0 -1 -1v-2q0 -2 -1.5 -7.5t-1.5 -6.5l-53 -195q0 -1 -2 -7l-4.5 -13.5l-5 -15t-3.5 -11.5q-1 -2 -4 -9.5t-4 -10.5q-4 -4 -8 -4q-16 0 -19 14v7z" />
    <glyph glyph-name="I" unicode="I" horiz-adv-x="312" 
d="M-4 19q0 5 1.5 9t6.5 6h47h19q2 0 5 0.5t5 0.5h3q1 0 1.5 0.5t1.5 0.5t4 0.5t5 0.5q2 1 5.5 1.5t3.5 2.5l190 383q1 2 2.5 6.5t3.5 7.5q1 1 2.5 5t2.5 6v3q0 2 -4 2q-2 0 -10 0.5t-10 0.5h-39q-6 1 -11.5 2t-10.5 6l-1 2v1v11v1q0 1 0.5 1t0.5 1q6 6 12 7h8
q14 0 26.5 -2.5t26.5 -2.5q19 0 37.5 2t35.5 4h22h21q11 -2 23 -6.5t12 -18.5q0 -6 -2.5 -12t-9.5 -6q-6 0 -10.5 3.5t-9.5 4.5q-8 4 -15.5 4.5t-15.5 0.5h-11t-12 -1q-7 -1 -13 -3t-11 -9l-97 -185q-2 -4 -4 -7.5t-3 -7.5q-1 -2 -3.5 -11t-3.5 -11q0 -1 -2 -5t-4 -6
q0 -1 -2.5 -5t-5.5 -9t-5.5 -9.5t-2.5 -5.5q-1 -1 -1.5 -2.5t-1.5 -3.5t-3 -4q-1 -4 -5 -16t-5 -16q-1 -2 -6 -7l-2 -2q-1 -1 -2 -2.5t-2 -2.5q-1 -3 -4.5 -11.5t-7 -18t-7.5 -18t-5 -11.5q-1 -2 -3 -9t-3 -11q-1 0 -1 -1v-2q3 -2 7.5 -2.5t7.5 -0.5q2 0 6.5 -0.5t5.5 -0.5
h7q11 0 21.5 0.5t21.5 0.5h15q1 0 3.5 -0.5t4.5 -0.5h10q8 -2 16 -5.5t8 -12.5t-5.5 -13.5t-13.5 -4.5t-16 3t-16 4q-4 0 -17 0.5t-16 0.5h-24h-19l-112 -9h-33q-1 0 -2 1t-1.5 1t-1.5 1q-3 3 -3 5v7z" />
    <glyph glyph-name="J" unicode="J" horiz-adv-x="346" 
d="M24 50q0 3 1 5q4 9 15 9h5q0 -1 1 -1t2 -1q2 0 4.5 -2.5t4.5 -3.5q0 -1 1 -1l1 -1q2 -1 8.5 -6t7.5 -7q19 -13 39.5 -21.5t43.5 -8.5t42.5 13t33.5 29q13 13 23.5 27.5t19.5 29.5q1 3 5 8.5t7.5 11.5t7 11.5t4.5 7.5q3 5 8 15l10 20t9 18.5t5 10.5l48 112l52 151
q0 1 1.5 3.5t1.5 3.5v2q0 1 1 1q1 3 2.5 15t2.5 14q0 2 1 6.5t2 6.5l2 4q1 2 1 4q1 1 3 5t2 6q2 2 5.5 2h7.5q8 0 11 -5.5t3 -12.5v-4q0 -1 -2 -7q-1 -2 -3 -8.5t-4 -14t-4 -14.5t-3 -10q-1 -2 -1.5 -4t-1.5 -3t-4 -5.5t-4 -4.5v-2v-10q0 -1 -0.5 -3t-1.5 -2q-1 -2 -4.5 -10
t-4.5 -10l-38 -103q-1 -11 -4 -20.5t-6 -18.5q-2 -5 -6.5 -15t-5.5 -12l-53 -101q-2 -2 -6.5 -10.5t-7.5 -12.5q-2 -2 -8 -12t-13 -21t-13.5 -21t-7.5 -13q-5 -7 -9 -13t-9 -12q-16 -20 -41 -35t-51 -15q-35 0 -68 13t-59 35q-1 1 -3 2.5t-3 3.5q-2 1 -4 3q-2 4 -2 7v2v0z
" />
    <glyph glyph-name="K" unicode="K" horiz-adv-x="384" 
d="M292 95l-18 29l-77 108q-1 0 -7.5 8.5t-10.5 12.5q-5 6 -10 11t-11 10q-2 0 -2 -1q-4 -7 -8 -21q0 -2 -1.5 -7.5t-3.5 -12.5t-3.5 -12.5t-1.5 -7.5l-39 -107q-5 -12 -7.5 -25.5t-4.5 -26.5q0 -1 -1 -7.5t-1 -8.5q0 -1 -0.5 -2t-0.5 -2v-3q-2 -4 -7.5 -6.5t-9.5 -2.5
q-16 6 -16 22v2l14 35l122 367q1 2 3.5 14t4.5 17q1 2 3 11.5t2 13.5q1 2 2 10t1 10t1 8t1 7q0 6 8 10h6q7 0 14.5 -4t7.5 -12q0 -5 -2 -7.5t-5 -6.5q-1 -2 -1 -5.5t-1 -5.5q0 -2 -1.5 -7.5t-1.5 -6.5q-2 -10 -4 -13q-1 -3 -3.5 -11t-6 -16t-7 -15.5t-4.5 -10.5l-1 -2v-13
v-3t-1 -4q-1 -1 -1.5 -4t-1.5 -5q-1 -3 -4 -10t-6.5 -15t-6.5 -15t-4 -10l-2 -5q-2 -5 -4 -10.5t-2 -9.5q0 -2 0.5 -4t2.5 -2l93 73l58 41q1 0 9 5.5t12 7.5q1 0 3.5 1.5t3.5 2.5q11 5 23 10.5t24 5.5q16 0 16 -13q0 -12 -9 -15q-10 -1 -18 -5l-18 -9t-19 -9
q-43 -25 -83.5 -53.5t-75.5 -66.5q0 -4 2 -4l149 -220q0 -1 5 -9t7 -13q2 0 3 -2t2 -3q2 -5 5 -11t3 -11t-1 -7q-2 -4 -5.5 -8.5t-8.5 -4.5h-4h-6q-4 1 -7 5t-5 8q-1 2 -1.5 6.5t-1.5 6.5z" />
    <glyph glyph-name="L" unicode="L" horiz-adv-x="312" 
d="M102 160l82 249q1 4 4 15t7 23t7 22.5t5 15.5q0 2 1 6t2 5q3 9 12 9q14 0 17 -12v-5q0 -11 -3 -20l-37 -89q0 -1 -0.5 -2t-0.5 -3q-1 -2 -1 -3q-1 -2 -2 -5.5t-1 -4.5q-1 -2 -0.5 -5.5t-1.5 -6.5q-2 -5 -5 -10t-5 -10l-55 -167l-36 -91q-2 -1 -3.5 -7.5t-2.5 -9.5
q-1 -1 -1.5 -5t-1.5 -6t-1.5 -5t-0.5 -4v-1q0 -2 2 -3t4 -1h2l61 6l160 28l48 7h15l2 -1q10 -5 10 -16q0 -15 -14 -18q-5 0 -19 -0.5t-18 -0.5q-3 0 -9.5 -0.5t-8.5 -0.5l-204 -37q-1 0 -6 -0.5t-11.5 -1t-13.5 -1.5t-11 -1q-1 0 -5.5 -0.5t-5.5 -0.5h-6h-6l-1 2q-3 2 -5 5
l-2 4v2z" />
    <glyph glyph-name="M" unicode="M" horiz-adv-x="502" 
d="M56 13q0 6 1 12t3 11l17 49l68 152l22 49l40 91q0 1 1 3t1 3q4 9 7 18.5t5 19.5q0 1 1 7t2.5 12t2.5 11.5t1 7.5q1 6 2.5 12.5t7.5 10.5l1 1h2h10q7 -5 12 -7.5t13 -2.5l9 -9l-36 -261v-19l2 -1l89 107l108 148l33 48q2 5 6.5 9.5t9.5 8.5h5h3q6 -1 8.5 -9t2.5 -12
q0 -5 -1 -9.5t-1 -9.5q0 -1 -0.5 -2.5t-0.5 -3.5v-5l-1 -1l-109 -416v-6v-1q0 -5 1 -10t1 -10q0 -18 -18 -18q-12 0 -17 8l-1 1v11l13 39l75 300q2 5 6.5 20t5.5 20q3 13 6 25.5t3 26.5h-1l-5 -5l-2 -3q0 -2 -3 -7t-4 -6q0 -2 -1.5 -3t-2.5 -3q-1 -1 -5 -5.5t-5 -5.5
l-119 -169q-2 -2 -7.5 -8t-11.5 -13t-11 -13t-7 -9q-1 -1 -3.5 -4t-3.5 -5q-10 -14 -18 -28t-17 -27q-1 -1 -5.5 -6t-6.5 -7q-2 -3 -5 -3q-6 0 -9.5 5t-4.5 10v19v19q0 3 0.5 9t1 13t1.5 12.5t1 7.5l19 129q0 1 0.5 10t1.5 14q0 2 0.5 6.5t0.5 5.5v10v8q-1 1 -1 2v2l-1 2h-1
v-1l-142 -339q-2 -6 -3 -12.5t-3 -11.5q-1 -2 -2.5 -9t-1.5 -9q-2 -5 -3.5 -8t-3.5 -8q-5 -8 -12 -8h-4q-2 0 -3.5 2t-3.5 3q-5 6 -5 18z" />
    <glyph glyph-name="N" unicode="N" horiz-adv-x="417" 
d="M280 41q-1 2 -1 7l-4 49l-43 259q0 1 -0.5 3.5t-0.5 3.5l-1 2q-1 -2 -2 -2.5t-1 -1.5l-6 -12t-6 -9q-2 -5 -6 -13t-8 -16.5t-7.5 -14.5t-3.5 -7l-89 -239q-3 -2 -3 -6q0 -1 -1 -3.5t-1 -4.5q0 -1 -1 -7.5t-1 -7.5q-1 -8 -4.5 -14t-10.5 -6q-12 0 -15.5 9t-3.5 19
q0 5 0.5 10.5t4.5 10.5q5 5 10.5 9.5t8.5 11.5l128 323q1 2 2 5q2 6 3 8v4v20q0 5 4 11q3 5 9.5 6t11.5 1t9.5 -1t8.5 -6q1 -1 1 -4q0 -8 -5 -16q0 -1 -0.5 -2t-0.5 -2t-1 -2v-14l40 -256q0 -2 1.5 -7.5t3 -12.5t3 -13.5t2.5 -10.5q0 -1 2 -9.5t4 -13.5q0 -2 0.5 -2.5
t0.5 -1.5l2 3l98 349q1 3 4 10t6 15t5 15t3 10q1 1 1.5 3.5t0.5 4.5q1 2 3 10.5t3 10.5l1 1q3 2 6.5 4t8.5 2q8 0 10.5 -5t2.5 -12q0 -5 -1.5 -10.5t-3.5 -10.5l-28 -67l-24 -89q-1 -2 -2 -9.5t-2 -9.5q0 -2 -1 -5t-1 -4l-19 -53q-4 -11 -4.5 -22t-4.5 -21l-20 -59
q-3 -8 -4.5 -16t-3.5 -16q0 -1 -1.5 -5t-3.5 -8.5t-3.5 -8.5t-1.5 -5q-2 -5 -1.5 -10t-0.5 -10q0 -3 -1 -12.5t-2 -12.5q-2 -9 -5.5 -20.5t-15.5 -11.5q-8 0 -13.5 8.5t-8.5 14.5l-4.5 9z" />
    <glyph glyph-name="O" unicode="O" horiz-adv-x="467" 
d="M49 66q0 15 4.5 29.5t10.5 28.5q1 3 5 11t8.5 17.5t8.5 18t6 11.5q1 3 5 10t9 15.5t9.5 16t6.5 11.5q2 3 7 10t10.5 15t10 15t6.5 10q2 2 7.5 9.5t12 15.5t12 16t8.5 11q14 17 28.5 32.5t30.5 29.5q8 9 17 16.5t19 15.5q19 15 41.5 27t47.5 18q6 1 12 1.5t12 0.5h10
q9 -2 15.5 -7t12.5 -11q1 -2 8 -9t8 -9q1 -1 6 -5.5t10 -10t9.5 -10l5.5 -5.5q22 -22 27 -54v-7v-13q0 -30 -9 -58t-24.5 -53t-35.5 -47t-42 -41q-4 -2 -14.5 -10.5t-14.5 -12.5q-2 -2 -9.5 -7t-9.5 -6q-3 -2 -10 -6.5t-14.5 -9.5l-13.5 -9t-7 -5q-3 -2 -9.5 -5.5
t-13.5 -7.5t-13.5 -8t-9.5 -6q-2 -1 -13 -5.5t-16 -6.5q-26 -12 -53.5 -19.5t-56.5 -7.5q-15 0 -29.5 3t-25 10t-17 18.5t-6.5 28.5zM77 59q1 -9 7 -14t14 -7.5t16.5 -3t15.5 -0.5q26 0 52.5 7t49.5 18q39 16 72 37q32 20 60.5 43t54.5 50q1 2 4.5 4.5t4.5 4.5
q25 28 44 61.5t19 71.5q0 26 -8.5 45t-30.5 34q-4 2 -16.5 11t-16.5 11q-6 2 -10 2q-5 0 -8.5 -1t-6.5 -1q-8 0 -11 5t-10 5h-5q-5 -3 -10 -5.5t-10 -4.5q-3 -2 -10.5 -6.5t-9.5 -5.5q-2 -2 -12.5 -9.5t-15.5 -10.5q-1 -1 -4.5 -3t-3.5 -3l-6.5 -6.5t-5.5 -7.5h-1
q-2 -2 -4 -3t-3 -2l-18 -18q-1 -1 -6 -5t-6 -5q-8 -9 -17.5 -19t-18.5 -21q-2 -2 -6 -7.5t-8.5 -11.5t-9 -11t-5.5 -6q-2 -3 -7 -11t-10.5 -16t-10.5 -15.5l-7 -10.5q-1 -2 -5 -8.5t-8.5 -14t-8.5 -14.5t-5 -10q-2 -2 -8 -14t-9 -17q-8 -15 -14.5 -35t-6.5 -38v-8z" />
    <glyph glyph-name="P" unicode="P" horiz-adv-x="388" 
d="M54 -34q0 8 2 16l4 16q1 2 2.5 8t2.5 8l38 98q1 2 2.5 5.5t2.5 5.5v5q0 1 -4 7l-2 4t-1 5q0 4 3 7t6 5q2 2 5.5 3t4.5 3t2.5 5.5t2.5 3.5l62 165q1 1 3 7.5t5 14.5t5.5 16t3.5 13q1 3 3 10t2 8v5v5q0 4 -8.5 4t-11.5 6q-2 2 -3 4q-1 1 -2 3v2q0 6 6 9.5t11 5.5
q2 1 9.5 2.5t8.5 2.5q5 2 7.5 6t4.5 8q2 2 3.5 4.5t3.5 4.5q2 0 4.5 0.5t4.5 0.5h1q5 0 6.5 -2.5t4.5 -4.5h7h8q1 0 6.5 0.5t12 1t11.5 1t7 0.5h14h16q8 0 16 -2l16 -4q35 -11 61 -35t26 -64q0 -20 -8 -38t-20.5 -34t-28 -29.5t-29.5 -24.5q-29 -20 -58 -36t-60 -31
q-5 -2 -17.5 -7.5t-17.5 -7.5t-11 -3.5t-11 -4.5q-8 -7 -10.5 -14.5t-15.5 -7.5q-5 0 -9.5 2t-9.5 2t-5 -1q-10 -8 -15.5 -19.5t-10.5 -23.5q0 -3 -3 -11t-5 -10q0 -1 -1 -6t-2 -7q-2 -8 -2 -12q0 -3 0.5 -5t0.5 -5q0 -5 -1 -9.5t-2 -9.5q0 -1 -2 -4.5t-3 -5.5q0 -2 -1.5 -5
t-1.5 -4l-8 -16q-3 -5 -11 -15t-16 -10q-11 0 -11 10zM159 189q0 -1 -1 -5t-2 -6q-2 -6 -2 -11q1 0 2 0.5t2 0.5q7 2 19.5 5t14.5 4q4 1 18.5 6t18.5 7q30 12 59.5 27t55.5 35q22 15 40.5 33t32.5 41q7 11 13 24.5t6 26.5q0 20 -11 34.5t-27.5 24t-36 14t-35.5 4.5h-7
q-2 0 -5.5 -0.5t-4.5 -0.5q-12 0 -25 -2t-24 -7q-1 0 -3 -1t-3 -1q-4 -3 -5 -6.5t-3 -8.5q-3 -12 -8 -22q-4 -4 -4 -7l-48 -146z" />
    <glyph glyph-name="Q" unicode="Q" horiz-adv-x="588" 
d="M500 -100q-2 0 -4.5 0.5t-3.5 0.5q-10 2 -13 6q-3 5 -3.5 10t-0.5 11l-1 2q-3 9 -7.5 17t-9.5 16q-2 3 -8.5 13t-8.5 13q-8 11 -16 21.5t-17 19.5h-1l-2 -1q-4 -1 -13 -4.5t-19 -8t-19 -8t-12 -4.5q-2 -1 -8 -3t-12.5 -4.5t-12.5 -4t-9 -2.5q-23 -7 -45.5 -10.5
t-46.5 -3.5q-23 0 -46 5t-41 16t-29.5 29t-11.5 45q0 38 15 75t34 69q17 28 37 52.5t40 48.5q1 1 3.5 4t6 6.5t6.5 7t4 4.5q38 38 79 70.5t88 58.5q17 10 36 17.5t39 12.5q19 4 41 4h12q1 0 3 -0.5t4 -0.5q17 -2 31 -10.5t23 -22.5q6 -9 8 -18v-9t2 -9q1 -3 4.5 -9.5
t7 -13.5t6.5 -13.5t4 -9.5q16 -26 18 -57v-15v-15q0 -1 -0.5 -4t-0.5 -4q-4 -26 -13.5 -49t-23.5 -45q-2 -6 -4 -11t-5 -10q0 -1 -2 -4t-3 -4q-18 -28 -47 -52q-11 -11 -24 -21.5t-26 -19.5q-2 -2 -10 -6.5t-10 -6.5q-3 -2 -14.5 -8.5t-14.5 -8.5l-1 -1q2 -2 9 -11t9 -11
q15 -20 29.5 -40.5t26.5 -41.5q1 -2 2.5 -7t3.5 -7q3 -6 3 -12q0 -11 -10 -15h-1q-1 0 -2 1t-2 1zM106 75q0 -22 9.5 -35.5t25 -21t34 -10.5t36.5 -3q46 0 89.5 13.5t85.5 30.5l2 1q1 0 2 1v3q-6 7 -12 13l-10.5 10.5t-8.5 9.5t-8.5 10t-7.5 8l-47 39q-1 0 -7.5 6.5
l-9.5 9.5q0 1 -3 4v1v5q0 13 15 13h5q2 -1 4 -2.5t5 -3.5l6.5 -6.5t5.5 -4.5l90 -93l2 -2q1 -1 3 -1q4 -4 7 -4q5 0 9 2l8 4q2 2 11.5 8.5t11.5 8.5q1 1 4 2t4 2q3 2 9.5 6.5t7.5 5.5q2 1 10 7t10 8q2 1 6 4.5t5 4.5q26 25 46.5 54t31.5 62q6 17 10 34.5t4 37.5v11
q-1 0 -1 1v2v2q-1 1 -1 3.5t-1 4.5q-1 3 -1 5q-8 28 -18 49q-2 3 -6.5 10.5t-9.5 7.5q-3 0 -4.5 -1.5t-4.5 -1.5q-5 0 -8 3.5t-3 8.5v5l1 2v2q0 5 -8 10.5t-13 7.5q-1 1 -5 2.5t-9 3.5t-9.5 4t-5.5 2q-2 1 -7.5 3.5t-7.5 3.5q-1 0 -2 1.5t-2 1.5h-7q-16 0 -28 -6t-25 -13
q-2 -2 -6 -4t-5 -2q-3 -2 -6 -1.5t-6 -1.5q-7 -3 -12.5 -6.5t-11.5 -8.5q-5 -3 -14 -10l-18 -14t-17 -13t-10 -7q-3 -2 -9 -6.5t-13 -9.5t-13.5 -10t-8.5 -7q-4 -3 -15.5 -14t-15.5 -15q-45 -43 -76 -93.5t-50 -110.5q-3 -10 -5.5 -21t-2.5 -22z" />
    <glyph glyph-name="R" unicode="R" horiz-adv-x="445" 
d="M299 181q-2 1 -8.5 4t-14 6.5t-14 7t-9.5 4.5q-14 7 -33 12t-36 5q-5 0 -10 -1.5t-7 -6.5l-28 -78v-14q-1 -1 -1 -2v-2q-2 -8 -4 -14q-1 -2 -3 -7.5t-4.5 -12t-5 -12t-2.5 -6.5q-1 -1 -3 -8t-4 -11q-2 -5 -2 -9.5t-1 -11.5q-2 -10 -11 -17t-18 -7q-15 0 -15 16v1l19 40
l120 330q1 1 3.5 10.5t4.5 14.5q0 2 1 5t1 4v4q0 7 -2 12.5t-2 11.5v4q3 8 14.5 11t17.5 4q10 2 19 2.5t20 0.5q21 0 50 -4.5t55.5 -15.5t45 -30t18.5 -48v-8.5t-2 -8.5q-7 -29 -29 -46.5t-47 -27.5q-29 -14 -58 -24t-59 -18q-4 -2 -4 -4t2.5 -3t3.5 -2l30 -15q1 -1 4.5 -2
t4.5 -2q0 -1 1 -1h2q50 -31 93 -71.5t78 -89.5q1 -1 5 -7.5t6 -8.5q5 -8 8 -14.5t3 -15.5v-6v-4q-6 -9 -16 -9q-8 0 -14 7q-4 5 -4.5 12.5t-3.5 14.5l-1 1q-5 8 -9 15.5t-10 15.5q-17 23 -35.5 44.5t-41.5 39.5q-10 8 -20.5 15t-19.5 15q-1 1 -3 2t-3 2q-1 2 -5.5 6t-6.5 6z
M189 257l2 -2h4q18 0 38 5q5 2 17 4.5t14 3.5q26 8 50 17t48 22q11 6 21 12t19 14q7 8 14 16.5t7 19.5q0 15 -12 29q0 1 -0.5 2t-0.5 2q-6 5 -10.5 9.5t-11.5 9.5q-16 10 -34 14.5t-36 6.5q-3 0 -13.5 1t-13.5 1h-9h-10q-5 -2 -10 -5.5t-9 -6.5q-2 -1 -4.5 -4.5t-3.5 -3.5
q0 -1 -1.5 -4t-1.5 -4q-2 -5 -6.5 -15.5t-5.5 -12.5l-37 -104q0 -2 -2 -8.5t-2 -8.5v-5v-5z" />
    <glyph glyph-name="S" unicode="S" horiz-adv-x="429" 
d="M-5 55q0 3 5 6q7 4 15 4q1 0 9 -2l12 -4t18.5 -6.5t18.5 -6t12 -3.5q64 -19 134 -19q45 0 89.5 8t81.5 34q9 7 16.5 14t15.5 15q1 1 5.5 7t6.5 9q8 8 8 15q0 17 -4.5 33t-13.5 30q-1 1 -1 2t-1 2l-2 2q-12 11 -24 21t-26 19q-10 5 -20 8.5t-21 6.5q-2 1 -6.5 3t-6.5 2
l-95 32q-2 1 -7 2.5t-11 4t-11.5 4.5t-8.5 3q-1 2 -8.5 5.5t-12.5 5.5q-11 6 -23 16t-12 24q0 16 13.5 29t26.5 21q2 2 7.5 5.5t7.5 4.5q1 2 7.5 6t8.5 4q64 33 132 49q1 0 8 1.5t10 2.5h2q1 0 1 0.5t1 0.5h3q1 0 3 1h42q1 0 6 -0.5t7 -1.5q15 -3 30 -8.5t26 -17.5
q5 -5 6 -10.5t1 -11.5v-5v-3q-3 -8 -8 -15t-15 -7t-17 7v5q0 2 2 8q0 2 1.5 3t1.5 2l1 2q0 3 -3 6l-5 5l-2 2q-13 8 -26 9.5t-28 1.5q-14 0 -29.5 -1.5t-29.5 -5.5q-2 -1 -8 -2.5t-8 -1.5q-5 -2 -14.5 -5t-11.5 -4q-1 0 -6 -2.5t-11 -5t-12.5 -5t-10.5 -3.5q-3 -3 -7 -3
q-5 -3 -16 -9t-13 -6q0 -1 -6 -4t-9 -5l-2 -2q-1 -1 -2 -1q-2 -2 -5.5 -4.5t-4.5 -2.5q0 -1 -2.5 -3.5t-4.5 -3.5q-6 -8 -6 -14q0 -5 5 -9.5t9 -6.5q3 -2 8.5 -4.5t6.5 -2.5l140 -49q2 0 13 -5.5t15 -6.5q21 -10 41.5 -22.5t36.5 -29t25.5 -37t9.5 -45.5q0 -20 -7.5 -36.5
t-20 -29.5t-28.5 -23t-33 -17q-20 -10 -41.5 -15.5t-43.5 -10.5q-14 -3 -24.5 -4t-24.5 -3q-1 0 -2.5 -0.5t-3.5 -0.5h-4h-24h-21q-2 0 -14 1t-17 2q-2 0 -9 1t-9 1t-11.5 2t-12.5 3q-2 1 -11 3t-11 3q-2 0 -9.5 1.5t-15.5 3t-15.5 3t-9.5 1.5q-1 0 -7 1.5t-8 2.5
q-2 0 -4.5 1.5t-3.5 1.5q-2 1 -4.5 2t-3.5 1q-3 3 -7 3q-5 4 -9 7t-4 10v4z" />
    <glyph glyph-name="T" unicode="T" horiz-adv-x="365" 
d="M122 -16q0 14 7 25.5t13 23.5q1 1 2.5 4t2.5 4q1 2 1 4.5t2 4.5q4 7 7.5 13t7.5 12l95 194l42 102l21 58v2q0 2 -1 2q-3 1 -7 1h-7h-10q-4 0 -12.5 -1t-9.5 -1l-125 -17q-2 0 -9.5 -0.5t-10.5 -0.5h-11h-11q-6 2 -8 6.5t-2 9.5q0 11 8 12l223 20q4 3 7 6t7 3h4
q1 0 3.5 -1.5t4.5 -1.5h35l167 8h34q15 0 15 -19v-4q-3 -11 -16 -11h-15h-12q-2 0 -8 0.5t-13.5 0.5t-13.5 0.5t-7 0.5q-3 0 -16.5 0.5t-18.5 0.5h-21h-31t-29 -1q-3 0 -10.5 -0.5t-9.5 -0.5q-3 0 -7 -1q-8 -2 -9 -2t-2 -0.5t-2 -0.5h-3q-2 -1 -3 -3l-2 -4q-7 -12 -11 -23
l-20 -54l-129 -273q-1 -2 -5 -12.5t-6 -14.5q-7 -18 -13.5 -36t-15.5 -35q-1 -1 -2 -3.5t-2 -4.5q-2 -4 -5 -7t-8 -3q-8 0 -13.5 5t-5.5 13z" />
    <glyph glyph-name="U" unicode="U" horiz-adv-x="445" 
d="M70 -4q0 13 1.5 25.5t3.5 23.5q2 5 4 15t3 12l153 418q0 1 3 8t5 10q1 2 3 6.5t3 5.5l1 1q0 2 1 2h1h13h2q9 -4 9 -15q0 -2 -2 -8q0 -1 -2 -4t-2 -4q-2 -4 -6.5 -13.5t-9.5 -20t-10 -19.5t-7 -13l-48 -125l-14 -40q-2 -3 -5.5 -11.5t-7 -17.5t-7.5 -17t-5 -11
q-2 -5 -6.5 -17t-5.5 -15l-27 -91q-2 -1 -2.5 -4t-0.5 -5q-3 -17 -4.5 -34t-3.5 -34v-2v-3q0 -1 1 -1t1 -0.5t1 -0.5q2 -2 8 -2q5 0 9.5 2.5t8.5 4.5q15 9 28 19.5t25 21.5q2 2 10 10.5t10 10.5t6 6.5l8 9t7.5 8.5t5.5 5q2 3 7.5 10t11.5 14.5t11 14t7 9.5t7.5 11t12 17.5
t12.5 18t8 11.5t6.5 10t9.5 15.5t9 16.5t6 11q1 3 4.5 9.5t7.5 14t7.5 14.5t5.5 10q1 1 3 5.5t4 9.5t4.5 10t3.5 8q1 2 3 6.5t2 6.5q2 5 6 16t4 13l25 91l10 29q2 8 8 14t14 6q11 0 15 -9v-6q0 -23 -11 -47q-1 -1 -3.5 -7t-6 -12.5t-6 -13t-3.5 -7.5q-4 -7 -6 -16
q0 -2 -1 -10.5t-2 -10.5t-1.5 -3.5t-2.5 -3.5q0 -1 -2 -3l-3 -3v-1q-1 -2 -1.5 -5t-1.5 -5q-1 -4 -3 -6q-1 -3 -3.5 -12t-3.5 -13q-1 -5 -4 -18.5t-7 -28.5t-7.5 -28.5t-4.5 -18.5q0 -2 -2.5 -10t-5 -17t-4.5 -17t-3 -10t-2 -8.5t-2 -9.5q0 -1 -1 -9.5t-2 -9.5
q-1 -2 -3.5 -13.5t-3.5 -13.5q-1 -5 -1 -9t-1 -9q0 -1 -1.5 -5t-1.5 -5q-6 -20 -6 -40q0 -11 2.5 -22.5t2.5 -22.5q0 -8 -8 -11.5t-14 -3.5h-5l-2 1q-3 2 -7 6q-4 5 -4 11v10v9q0 2 0.5 9t2.5 9l42 184l-70 -100q-2 -2 -7 -9t-11.5 -15t-12.5 -16l-9 -12q-3 -3 -10.5 -11.5
t-16.5 -18t-17 -18t-11 -11.5q-17 -19 -36 -33.5t-46 -14.5q-12 0 -21 5.5t-12 17.5v12z" />
    <glyph glyph-name="V" unicode="V" horiz-adv-x="341" 
d="M97 -34l38 473v16v23v10v3q0 6 6.5 9t12.5 3q11 0 15 -11t4 -21q0 -5 -1.5 -9t-3.5 -9q-1 -1 -1 -3v-5q-1 -2 -1.5 -8.5t-0.5 -7.5q0 -4 -1 -12.5t-1.5 -18t-1.5 -17.5t-1 -10t-0.5 -8t-0.5 -13t-0.5 -13t-0.5 -7q0 -2 -1.5 -12t-1.5 -12q0 -1 -0.5 -2t-0.5 -3v-3v-9.5
t-0.5 -14.5t-0.5 -14.5v-9.5l-18 -180q0 -2 -0.5 -8.5t-0.5 -8.5v-17v-20l167 256l149 249q3 5 8.5 10.5t12.5 7.5h6q8 0 12.5 -2t4.5 -10q0 -6 -2.5 -10.5t-6.5 -9.5l-29 -31l-276 -442q-1 -2 -6 -11t-7 -14q-1 -2 -5 -9.5t-6 -10.5q-2 -5 -3 -10.5t-3 -9.5q0 -1 -3.5 -6
t-5.5 -7q-2 -5 -6 -8.5t-8 -8.5q-6 -3 -10 -3q-10 0 -15 8.5t-5 16.5v5z" />
    <glyph glyph-name="W" unicode="W" horiz-adv-x="417" 
d="M46 -35q0 6 1 9l60 222l48 202q5 20 5 37q0 6 -1.5 11t-1.5 11v5q0 4 2 6q4 9 10.5 18t17.5 9q9 0 12.5 -7t3.5 -15v-4l-11 -35l-76 -310l-8 -42v-4q5 5 8.5 10t7.5 11l107 190l57 84q0 1 4 7t10 13.5t12 16t10 13.5q0 1 1 2t2 3t3 3l2 1q1 0 2 1h4q7 0 10 -2q6 -6 6 -11
v-1q0 -8 -0.5 -22.5t-0.5 -15.5q0 -3 -1 -9t-1.5 -13t-1.5 -12.5t-1 -6.5l-24 -147l-5 -49v-13l8 16l70 146l28 52l94 141q1 2 4 7.5t4 7.5q3 5 8 10t11 5q11 0 19 -8q1 -2 1 -5q0 -2 -1 -4l-2 -4l-74 -100l-71 -117l-29 -56l-51 -119q-1 -1 -2.5 -5t-3.5 -7q-1 -2 -2 -3
t-2 -3t-2 -6t-2 -6q0 -2 -1.5 -7.5t-3.5 -11.5t-3.5 -12t-1.5 -7q-1 -1 -3 -8t-3 -10q-2 -6 -4 -10.5t-4 -9.5t-7 -8.5t-10 -3.5q-8 0 -12.5 5.5t-4.5 13.5v7t1 8l21 121q0 1 0.5 3.5t0.5 3.5v31l1 5l19 95q0 3 2 15.5t3 17.5q3 24 3 46v12l-61 -93l-116 -199
q-8 -9 -14 -19.5t-12 -19.5l-3.5 -7l-3.5 -7q0 -2 -2.5 -7.5t-4.5 -11.5t-4.5 -12t-2.5 -7t-1 -3l-2 -4t-3 -5.5t-3 -4.5q-2 -6 -5 -9.5t-8 -7.5q-2 -2 -7 -2q-11 0 -16 8q-1 0 -1 2q0 1 -1 1v4v0z" />
    <glyph glyph-name="X" unicode="X" horiz-adv-x="407" 
d="M339 -15l-86 218q0 1 -2.5 5.5t-3.5 6.5q-2 4 -7 9q0 1 -3 1q-2 0 -6 -4l-2.5 -2.5t-3.5 -1.5q-2 -2 -4.5 -5.5t-3.5 -4.5l-78 -92l-72 -97q-1 -2 -3.5 -5t-3.5 -4q0 -1 -1 -3t-1 -4q0 -1 -1.5 -5t-1.5 -5q-4 -8 -10.5 -12t-14.5 -4q-14 0 -17 13v7q0 11 6 16.5t14 13.5
q0 1 1 1.5t2 2.5q1 1 2 3l52 65l120 137l14 17v1q0 2 -1 4l-96 219q-2 6 -6 12.5t-6 12.5q0 2 -0.5 3.5t-0.5 3.5q0 4 2 10l1 1v2l2 2q1 1 1.5 1t1.5 1q2 1 7 1q6 0 10.5 -3t9.5 -7q1 -2 6 -7l4 -4l1 -2q0 -2 0.5 -9.5t0.5 -9.5t2 -6q1 -3 2.5 -9t2.5 -7l62 -146l15 -29
l1 -3l1 -1h1q0 1 1 1t2 1l8 8q3 2 8 8.5t7 7.5l145 194q2 2 12 14t15 17q1 2 6 6.5t7 6.5q2 1 4 3q2 1 2.5 2t1.5 2q4 2 7 4t8 2q9 0 14 -7t5 -16q0 -11 -7.5 -12t-14.5 -6q-6 -4 -11 -9l-13 -13l-191 -233q-1 0 -1 -1t-1 -2q0 -1 -1 -1t-1 -1v-1l4 -11l116 -275q1 -5 6 -12
q8 -9 15 -16.5t7 -21.5q0 -11 -7.5 -12t-15.5 -3q-2 0 -4.5 -1t-3.5 -1h-2z" />
    <glyph glyph-name="Y" unicode="Y" horiz-adv-x="284" 
d="M77 -6v1q0 1 0.5 1t0.5 1t2 5q1 2 1 4q1 3 5 14t8.5 23.5t8.5 23t5 13.5q1 2 3.5 11.5t4.5 12.5q0 1 1 5.5t2 6.5q0 1 1 4t1 4q0 2 1 7t1 6v81l17 248q0 3 1 6q1 2 1 4.5t1 4.5q0 5 3 7l1 1l1 1h12q5 0 7.5 -4.5t2.5 -8.5v-8q0 -19 -1 -38t-3 -39q0 -2 -0.5 -11t-0.5 -10
q0 -3 -0.5 -9t-1 -13t-1.5 -13t-1 -8q0 -6 -2.5 -11.5t-2.5 -10.5l-5 -100v-13q1 0 2 1t3 2q1 1 4.5 4t5.5 3l2 2q1 1 2 1l253 267q2 4 9 12.5t9 11.5q1 1 2.5 3.5t2.5 2.5h4q16 0 22 -10q0 -1 0.5 -1t0.5 -1v-1v-2q0 -4 -3 -7q-7 -8 -15 -14t-16 -11l-233 -245
q-2 -2 -9.5 -10.5t-10.5 -11.5q-2 -2 -9.5 -12t-9.5 -15q-1 -1 -2.5 -3.5t-2.5 -2.5q0 -1 -1 -3t-1 -4l-35 -114q0 -1 -1 -3t-1 -3q0 -2 -1.5 -12.5t-2.5 -12.5q-2 -8 -10 -19t-17 -11t-12 7q-3 0 -3 4v4v5z" />
    <glyph glyph-name="Z" unicode="Z" horiz-adv-x="597" 
d="M-16 -25q-9 4 -9 14v1q1 1 2 3.5t2 3.5q0 4 4 4l89 70l462 305l102 61h-53l-146 -5q-3 0 -11.5 -1t-17.5 -2.5t-17.5 -2.5t-11.5 -1q-5 -1 -18 -1h-17q-35 -5 -71 -9.5t-71 -4.5h-8.5t-8.5 1q-2 0 -6.5 0.5t-5.5 0.5q-2 0 -6.5 1t-6.5 1q-6 2 -16 6.5t-10 13.5
q0 11 6.5 12.5t15.5 1.5q14 0 29.5 -2t32.5 -2h4l369 19h10t15 0.5t15 0.5h10q2 0 11 1t11 1h10h9q8 -1 16.5 -5t8.5 -12v-2q0 -2 -2 -3.5t-3 -3.5q-4 -4 -12 -8q-5 -2 -13 -7t-8 -6l-80 -37q-5 -3 -8 -7t-8 -6l-32 -16l-91 -55l-320 -216l-70 -54q-1 -2 -7 -7t-8 -7
q-2 -1 -5 -4.5t-5 -4.5q4 0 14.5 -1t22 -1.5t21.5 -1t14 -0.5h30h30l418 13q8 0 16.5 1t16.5 1h11q9 -2 15 -6t6 -14v-4l-1 -1q-8 -11 -21 -11h-5h-2q-1 0 -1.5 0.5t-1.5 0.5q-2 0 -14.5 2t-14.5 3q-5 1 -11 1h-11q-14 0 -28 -0.5t-29 -0.5h-8q-2 0 -4 1.5t-4 1.5h-1
q-12 -3 -26 -3q-16 0 -32 0.5t-32 0.5h-15l-212 -12q-3 -1 -10 -1q-5 0 -10 0.5t-10 0.5t-9.5 -1t-9.5 -2q-1 0 -3 -0.5t-3 -0.5q-5 0 -13.5 -0.5t-10.5 -0.5h-81h-6q-2 0 -4.5 0.5t-4.5 0.5q-5 1 -8.5 2t-8.5 2z" />
    <glyph glyph-name="bracketleft" unicode="[" horiz-adv-x="359" 
d="M57 -16q-5 0 -10.5 2.5t-5.5 9.5t4 15q2 2 7 11.5t7 11.5q0 2 1 4q1 1 2 3l98 272q1 2 4 11.5t6.5 21t6.5 22.5t5 17q0 1 1.5 6t3 11t3 11.5t2.5 8.5q3 15 3 30q0 5 -0.5 10t-0.5 11q0 10 7 14.5t17 4.5q13 0 25 -2t26 -3h14h15q5 0 17.5 1t14.5 2l112 18q1 0 10 0.5
t13 1.5h13h6h8q3 -1 3.5 -4t0.5 -6q0 -8 -5 -11t-13 -3h-16h-9q-3 -1 -10.5 -2t-9.5 -2q-2 0 -9.5 -1.5t-16.5 -3.5t-16.5 -3.5t-9.5 -1.5q-2 -1 -7.5 -2t-6.5 -1q-57 -5 -115 -6q-5 0 -9.5 -0.5t-9.5 -1.5q-7 0 -9 -5q-1 0 -1 -2v-1q-1 -2 -1.5 -10.5t-2.5 -10.5l-25 -91
l-101 -289q0 -1 -2 -7t-3 -10q-2 -8 -2 -11q0 -6 4 -7t8 -1q1 0 4 -0.5t4 -0.5h18q21 0 42 1.5t42 1.5h9l36 -4h50q1 -1 2 -1t2 -0.5t2 -0.5q6 -1 14 -4t8 -11q0 -4 -2.5 -6t-5.5 -5q-6 -6 -16 -6q-3 0 -7 1q-1 0 -6 1t-10 2.5l-10 3t-6 1.5q-3 0 -15 2t-17 3h-8q-3 0 -6 1
h-47q-2 0 -10.5 -0.5t-19.5 -1.5t-22.5 -2t-17.5 -1q-2 0 -13.5 -1.5t-16.5 -2.5t-9 -1.5t-9 -0.5z" />
    <glyph glyph-name="backslash" unicode="\" horiz-adv-x="287" 
d="M224 18q0 8 2.5 16t3.5 16v12v14q-1 5 -2.5 19t-1.5 17l-57 285q-2 13 -8.5 24.5t-6.5 25.5v4q2 6 8 9q1 0 2.5 1t3.5 2h7h5q4 -3 5.5 -10t2.5 -12q1 -3 1.5 -14t1.5 -14l42 -226l17 -77l2 -10q1 -5 1.5 -9t0.5 -6q2 -8 2 -17v-18v-12t-2 -13.5t-6.5 -11t-12.5 -4.5
q-11 0 -11 9z" />
    <glyph glyph-name="bracketright" unicode="]" horiz-adv-x="287" 
d="M0 -14q0 8 6 12t12 7q5 2 13 2h4q2 0 9 -1.5t9 -1.5h9h9l139 12q2 0 17 2t22 3q2 0 5.5 1t5.5 2q5 1 7 3t4 6q2 3 5 9l4 8l89 239l44 135q0 2 3 14.5t5 18.5q2 5 2 8.5v8.5q0 12 -10 12h-25l-177 -10h-16h-21h-36q-15 0 -15 15v4v1q0 1 1 2q9 10 26 10q11 0 21.5 -3.5
t23.5 -3.5l80 5h27q2 -1 7 -1h3q26 5 52.5 8t53.5 3h18q6 0 14 -0.5t8 -11.5q0 -3 -1 -6q0 -1 -1.5 -6t-3.5 -11t-3.5 -11t-1.5 -7q-1 -2 -1 -4t-0.5 -3.5t-0.5 -2.5q-1 -2 -1 -5.5t-2 -6.5q0 -3 -1.5 -5.5t-2.5 -6.5l-29 -97l-97 -267q0 -1 -1.5 -8t-3.5 -11q0 -2 -1 -4.5
t-1 -3.5v-2q0 -2 1 -2.5t1 -2.5q0 -6 -4 -12q-5 -14 -17 -17l-32 -6l-241 -22h-2l-8 4v1l-2 2q-1 1 -1 3v2v0z" />
    <glyph glyph-name="asciicircum" unicode="^" horiz-adv-x="343" 
d="M326 441q-15 -5 -30 -12q-4 -2 -13.5 -7t-11.5 -6t-10 -6t-17.5 -10t-18 -10t-10.5 -6q-1 0 -10 -5t-14 -7q-1 -1 -3.5 -1t-2.5 -1q-2 -1 -10 -4t-10 -3l-2 -2q-1 -1 -2 -1h-6h-5q-6 2 -7.5 7t-1.5 10q0 2 0.5 5t2.5 5q5 3 8.5 4.5t8.5 3.5l9 3h2q1 0 1 0.5t1 0.5
q25 11 47.5 25t45.5 26q1 1 6.5 3.5t12 5.5l13 6t10.5 5q6 2 12.5 4t12.5 2h8t7 -3q3 -2 5.5 -7.5t3.5 -9.5q3 -11 3.5 -23t5.5 -23q5 -13 14 -22.5t15 -21.5v-3q0 -5 -3.5 -6.5t-8.5 -1.5h-6.5t-6.5 2q-1 0 -4 3q-23 21 -32 54q0 2 -3 12t-4 12q-3 3 -2 3z" />
    <glyph glyph-name="underscore" unicode="_" horiz-adv-x="568" 
d="M-1 -18q0 7 5 12q4 4 9 4.5t10 0.5q17 1 33 1h33h13h16.5t25 -0.5t25 -0.5h16.5l10 -2t10 -3q1 0 2.5 -0.5t2.5 -0.5t4 -0.5t4 -0.5h98h6t10.5 -0.5t10.5 -0.5h6h31h23q3 0 12.5 1t21 1.5t21 1.5t12.5 1h19h18q6 0 10.5 -4.5t4.5 -10.5t-4.5 -10.5t-10.5 -4.5h-3
q-4 0 -16 1t-16 1h-32t-48.5 0.5t-48.5 0.5h-32h-3q-4 0 -7 -1t-6 -1h-4l-102 7h-110l-64 -8h-2q-6 0 -10 5t-4 11z" />
    <glyph glyph-name="grave" unicode="`" horiz-adv-x="292" 
d="M261 471q-2 1 -10 8.5t-11 10.5q-2 1 -11 8t-11 8q-3 2 -3 9v3l1 1q1 1 4 3.5t5 3.5q7 7 14 7q3 0 5 -1q2 -2 10 -8.5t10 -8.5q1 0 4 -3t3 -4q4 -3 13.5 -12.5l11.5 -11.5q1 -1 4.5 -5t8 -9t8 -9t4.5 -5q3 -2 5.5 -4.5t5.5 -4.5q1 -2 7 -6.5t8 -6.5q5 -4 8 -9.5t6 -11.5
q3 -5 3 -11q0 -5 -4 -7.5t-8 -4.5q-2 -1 -5 -1q-5 0 -9 4.5t-7 8.5z" />
    <glyph glyph-name="a" unicode="a" horiz-adv-x="378" 
d="M251 -23q0 5 1 9.5t4 8.5l12 12q3 3 3 4q11 19 21 38.5t19 39.5q5 11 10 28l2 8t1 9q0 4 -1 7.5t-1 7.5q-6 24 -22 39q-8 8 -21 8q-11 0 -22.5 -3t-22.5 -7q-47 -20 -87 -48q-14 -11 -26 -21.5t-25 -24.5q-1 0 -3.5 -3.5t-3.5 -5.5q-14 -17 -24 -40l-2 -6t-1 -7
q0 -8 4.5 -12.5t10.5 -6.5t13 -2.5t13 -0.5h12q1 0 8.5 0.5t11.5 2.5h3q5 2 13.5 4t9.5 2q3 1 9.5 3t14.5 4.5t14.5 5t9.5 3.5q1 1 9 3.5t11 4.5q2 0 4 1q1 0 3 1q10 5 14.5 15.5t16.5 10.5q20 0 20 -19v-3q0 -3 -2 -5q-9 -9 -21 -15q-17 -9 -35 -16l-36 -14q-2 0 -8 -1.5
t-12.5 -3.5t-12 -4t-8.5 -3q-2 -1 -10.5 -2.5t-10.5 -2.5t-5.5 -1h-4.5h-11h-14h-7q-15 2 -29.5 8.5t-22.5 20.5q-4 7 -4 16v2q0 2 1 10t2 10v2q0 1 1 1q1 1 2 3.5t2 4.5q31 57 81.5 97t113.5 59q1 1 3.5 1.5t4.5 0.5q9 3 18.5 5t19.5 2h7q1 -1 2 -1h2q11 -2 18.5 -7.5
t14.5 -13.5l3 -3q0 -1 0.5 -1t0.5 -1v-1l12 -24l2 -2q4 4 6 8.5t4 9.5q10 29 14 56q3 15 3 30v8q-2 8 -5.5 13.5t-10.5 11.5q0 1 -1.5 1.5t-2.5 1.5q-12 6 -23.5 8t-25.5 2q-31 0 -60 -12t-55 -29q-2 -2 -6 -4.5t-6 -3.5q-2 -2 -6 -5.5t-8.5 -7t-8.5 -7t-5 -4.5q-3 -3 -6 -3
q-6 0 -9 4.5t-3 10.5q0 13 12.5 23.5t22.5 16.5q21 14 44 23.5t46 17.5q13 4 25 7t25 3q26 0 52.5 -13t34.5 -39q5 -13 5 -29q0 -15 -3 -29t-7 -28q-1 -3 -3.5 -12t-2.5 -11q-1 -3 -3.5 -9.5t-5.5 -13.5t-5 -12.5t-3 -7.5q-2 -4 -5.5 -12.5t-8 -18.5t-8.5 -18.5t-6 -12.5
q-3 -5 -9.5 -18t-13.5 -27.5t-13.5 -27.5t-9.5 -18q-3 -9 -4 -21t-14 -12q-16 0 -20 13v6z" />
    <glyph glyph-name="b" unicode="b" horiz-adv-x="392" 
d="M20 -16q0 5 3 8t6 8q0 1 5 9t6 12q1 1 2 4t2 4q2 4 5.5 10.5t6.5 12.5l5.5 11l2.5 5l63 152l93 266l8 16q4 10 10 20.5t18 10.5q5 0 9.5 -2.5t4.5 -7.5t-1 -8l-70 -172l-34 -98q0 -1 -2.5 -8.5t-3.5 -12.5q0 -1 -0.5 -1.5t-0.5 -1.5v-1l3 2l60 52q2 2 8.5 6.5t9.5 6.5
q28 19 59 32.5t66 13.5q20 0 39 -10q1 0 2 -1q2 -2 3 -2q0 -2 2 -2l1 -1l17 -17q2 -2 3.5 -5l2.5 -5v-12v-17.5t-2 -16.5q-5 -23 -18 -44t-28 -38q-12 -13 -23 -23.5t-24 -19.5q-4 -2 -11.5 -8t-8.5 -6l-86 -55l-14 -7l-12 -6l-22 -11t-23.5 -11.5t-17.5 -8.5
q-17 -8 -37 -14.5t-37 -17.5l-2 -3q-2 -1 -7 -5.5t-6 -6.5q-6 -3 -12 -3q-8 0 -13.5 6.5t-7.5 13.5q-2 2 -2 5v3zM364 306h-12.5t-11.5 -2q-17 -3 -32 -10q-44 -17 -79 -45t-67 -61q-2 -1 -5 -4.5t-3 -4.5q-2 -1 -4 -4t-3 -5q-2 -2 -5 -7t-4 -7t-4.5 -8.5t-4.5 -8.5
q-2 -4 -6 -12.5l-8 -17t-7.5 -15.5l-4.5 -9q-7 -15 -12 -31t-11 -30q-2 -8 -2 -13h1h3q4 2 11 3.5t7 2.5q6 3 20 8.5t17 7.5q4 2 12 5.5t16 7.5t15 7t9 4l76 45q1 1 5.5 4t10 6.5t10.5 6.5t8 5q14 9 26.5 19t23.5 21q19 17 34.5 37.5t23.5 46.5q1 3 1 5v1q0 1 -1 3t-1 3
q0 2 1 4l2 4q0 1 0.5 3t0.5 3q0 14 -11.5 23t-25.5 9h-9z" />
    <glyph glyph-name="c" unicode="c" horiz-adv-x="346" 
d="M68 66v10v6q5 22 9.5 43t12.5 41q11 24 26 46t32 43q17 23 35 37q5 5 11 9t11 9q14 10 32 18t35 8q22 0 37 -16q0 -1 1 -2l2 -2q15 -25 15 -55q0 -17 -5 -39q0 -2 -2 -6.5t-2 -6.5q-2 -6 -9 -6q-13 0 -17.5 8.5t-4.5 19.5q0 13 3.5 24.5t3.5 23.5q0 16 -10 25q0 1 -2.5 2
t-3.5 1h-4q-6 0 -11.5 -3t-11.5 -5t-11.5 -3.5t-12.5 -5.5l-2 -1q-4 -2 -11 -7.5t-8 -6.5q-21 -18 -41.5 -39.5t-36 -46.5t-25 -52t-9.5 -57q0 -11 1.5 -24t10.5 -21q8 -6 17.5 -8t18.5 -2q15 0 29 3l28 6q14 4 28 8.5t27 10.5q23 9 42.5 21t39.5 25q5 2 17.5 10.5
t16.5 11.5q4 2 7 2q5 0 7 -1q5 -4 8 -8t3 -11q0 -9 -9 -13l-110 -55q-1 0 -6 -2.5t-12 -5.5t-13.5 -6t-9.5 -4q-2 -1 -11 -4t-13 -4q-14 -5 -29 -8.5t-29 -3.5q-29 0 -54.5 14.5t-30.5 44.5v10z" />
    <glyph glyph-name="d" unicode="d" horiz-adv-x="349" 
d="M31 98q0 17 9 31q18 41 48.5 73t63.5 59q16 13 33 23t35 19q13 6 27.5 8.5t28.5 2.5q13 0 25.5 -3.5t20.5 -14.5q1 -1 1 -2q0 -2 1 -2q0 -1 1.5 -2.5t1.5 -2.5q1 0 3 4l69 187q1 2 5.5 12t6.5 15q1 1 3.5 6.5t4.5 8.5q1 0 1 1q0 2 1 2q2 2 3.5 5.5t2.5 4.5q3 3 8 7.5
t11 4.5q5 0 8.5 -3t3.5 -7q0 -9 -7 -19q-4 -6 -8.5 -12t-8.5 -13q-1 -1 -1 -2q-1 -1 -1 -2l-31 -75l-93 -263q-1 -1 -2 -8.5t-2 -10.5q-1 -2 -2 -5t-1 -5v-2q0 -2 1 -5.5t1 -6.5q0 -5 -2 -7.5t-4 -6.5q-3 -5 -5.5 -10t-4.5 -11l-14 -46v-1q-6 -8 -12 -8q-8 0 -13 5.5
t-5 12.5q0 5 2.5 10.5t4.5 11.5v2q0 1 0.5 1t0.5 1q0 3 -3 3q-2 0 -3 -1q-3 -2 -8.5 -5.5t-12 -8t-12 -8t-8.5 -4.5q-19 -13 -37 -21q-15 -7 -31 -9.5t-33 -2.5h-12q-17 2 -31 14q-2 2 -6.5 7t-6.5 7q-11 12 -12 27q-1 4 -2.5 13t-1.5 11v7v9zM57 82q0 -9 2 -17t6 -16
q0 -1 0.5 -1t0.5 -1t1 -2q18 -19 47 -19q18 0 35 8t33 16q12 7 24 14.5t22 16.5l1 1q1 1 1.5 1t1.5 1q2 1 4 3q4 4 8.5 5t8.5 4t7 7t5 8q5 8 8.5 15t6.5 15q7 19 13 37.5t11 38.5q2 10 3.5 21t1.5 22q0 8 -3 17.5t-13 11.5h-7q-11 0 -23 -3q-6 -2 -12 -2t-13 -2
q-13 -5 -23 -12q-32 -18 -58 -40q-3 -2 -11 -9t-10 -9q-14 -12 -26.5 -25.5t-23.5 -29.5q-6 -8 -11.5 -17.5t-9.5 -18.5q-8 -21 -8 -39z" />
    <glyph glyph-name="e" unicode="e" horiz-adv-x="310" 
d="M58 68q0 24 6.5 46.5t14.5 44.5h-1h-4q-2 0 -3 1q-7 1 -8 7.5t-1 11.5v8q0 4 4 4h5h16q7 0 12 5q21 26 44.5 50.5t52.5 43.5q20 12 41 20t44 8h11q7 -2 11.5 -6t9.5 -9q1 0 1 -1q0 -2 1 -2q3 -3 4 -6.5t3 -6.5q2 -2 2 -6q5 -14 6.5 -27.5t1.5 -27.5q0 -12 -2 -23.5
t-4 -23.5q0 -2 -1 -6.5t-5 -4.5h-1h-4.5t-8 0.5t-8.5 0.5h-5h-16h-16q-7 0 -23.5 -0.5t-35.5 -1t-35.5 -1t-22.5 -0.5q-3 0 -11.5 -1t-10.5 -1t-4.5 -1t-4.5 -2q-3 0 -5 -1q-1 -2 -4.5 -10.5t-5.5 -10.5q-7 -14 -11 -28t-4 -31q0 -14 4 -24.5t15 -18.5q5 -5 12 -8t14 -5
q2 -1 10 -3t10 -2q1 0 2 -0.5t2 -0.5q4 0 18.5 1t18.5 2q12 1 23 4t22 7q25 8 46.5 19.5t40.5 30.5h4q7 0 9.5 -5t2.5 -12q0 -8 -4 -13l-1 -2l-24 -12q-23 -12 -46.5 -22t-47.5 -16q-12 -3 -22.5 -4t-22.5 -1q-18 0 -38 3t-36 11.5t-26.5 22.5t-10.5 36zM129 192q0 -1 1 -2
t2 -1q1 -1 3 -1q1 0 2 -1q1 0 2.5 -0.5t2.5 -0.5q6 0 11.5 1.5t10.5 2.5q5 0 18 0.5t17 0.5q2 0 10.5 1t10.5 1t11 0.5t19 1t19 1t11 0.5t10 0.5t10 1.5q3 5 4 12t3 13v14q0 14 -2 28.5t-14 24.5h-1q-1 0 -2 1q-2 2 -4 1.5t-4 -0.5q-17 0 -30.5 -5t-26.5 -13q-1 0 -1.5 -0.5
t-1.5 -0.5q-1 -1 -2 -1q-2 -1 -7.5 -4.5l-11 -7t-10.5 -7t-7 -4.5q-3 -2 -6 -3t-6 -4q-5 -3 -8.5 -7t-7.5 -8q-2 -2 -6.5 -8t-5.5 -7q0 -1 -5 -8t-7 -11z" />
    <glyph glyph-name="f" unicode="f" horiz-adv-x="247" 
d="M86 -2v2q2 3 5 11t4 10l85 257v2q-14 -5 -25.5 -10.5t-24.5 -11.5q-6 -3 -13 -5.5t-13 -2.5q-15 0 -15 15q0 5 1 7q5 5 11 8.5t11 5.5q14 5 29.5 9.5t29.5 10.5q9 4 17.5 9t13.5 14q2 2 4 6t2 5t2 6l4 10t4 9.5t3 5.5q0 2 2 5t2 6v7l1 2q1 3 4 9.5t6 14t6 14.5t4 9l3.5 7
l5.5 11t6 11.5t5 8.5t8 14.5t8 15.5q2 2 7.5 11.5t7.5 12.5q2 2 6 7.5t6 7.5q6 8 14.5 18t18.5 18.5t21 14t23 5.5q5 0 11 -1.5t11 -5.5q4 -5 8.5 -9t6.5 -10q1 -2 3 -8t4 -13t4 -13t2 -8q6 -17 6 -33v-7q-1 -7 -9 -7q-11 0 -17 8q-2 3 -4.5 9.5t-3.5 11.5l-8 47
q-1 4 -3 7.5t-7 3.5q-2 0 -4 -1q-2 0 -6.5 -1.5t-5.5 -1.5q-8 -4 -15 -10.5t-14 -12.5q-14 -16 -26 -33t-23 -36q0 -1 -2 -5l-4 -8t-4 -7.5t-3 -4.5q0 -1 -2.5 -5.5t-5.5 -10t-5.5 -9.5t-3.5 -5q-3 -6 -5 -11t-4 -11q-2 -9 -6 -16q0 -2 -2.5 -6.5t-5.5 -10t-5.5 -10.5
t-3.5 -6q-5 -13 -5 -22q5 0 10.5 0.5t10.5 1.5l55 14q8 2 16.5 5t16.5 3t14.5 -4t6.5 -13q0 -8 -3 -11q-6 -8 -14 -8q-2 0 -4 0.5t-5 0.5h-1q-3 -1 -10 -1.5t-8 -0.5q-4 -1 -14 -3t-20.5 -3.5t-20.5 -3.5t-14 -3q-20 -3 -31 -16q0 -1 -1 -2l-2 -2q-1 -2 -3 -6.5t-3 -5.5
q-2 -5 -5.5 -13.5t-3.5 -10.5l-38 -116q0 -1 -3 -10.5t-6.5 -22.5l-7 -26t-5.5 -21q0 -1 -1 -5.5t-2 -6.5q0 -1 -2 -6t-3.5 -10t-3.5 -10t-2 -6t-1 -4.5t-1 -4.5v-11q0 -7 -8 -10.5t-15 -3.5q-8 0 -9.5 6.5t-1.5 12.5v6z" />
    <glyph glyph-name="g" unicode="g" horiz-adv-x="349" 
d="M-15 -145q0 7 2 14.5t11 7.5q5 0 8.5 -3.5t5.5 -8.5q11 -16 20.5 -31.5t31.5 -15.5q14 0 25 5.5t22 12.5q1 1 6 5t11 8.5t11.5 9t8.5 6.5q0 1 2.5 3t3.5 3q3 2 10.5 10t9.5 10t5 6t5 6q21 26 38.5 52.5t30.5 55.5q18 41 30 82q1 3 3.5 14.5t4.5 16.5q0 1 1 3.5t1 3.5v2v1
q-10 -18 -21 -36t-22 -35q-3 -5 -9.5 -13t-8.5 -9l-3 -4l-4.5 -3.5t-10.5 -7.5t-12 -8.5l-10 -7.5q-1 -1 -3.5 -2.5t-3.5 -1.5q-2 -2 -9 -5.5l-9 -4.5q-13 -5 -24.5 -10t-24.5 -9q-14 -3 -26 -3h-8q-23 5 -32 23t-9 38q0 17 5.5 33.5t13.5 31.5q1 4 5.5 13l9.5 19l9.5 19
l6.5 13q1 1 4 6t6.5 10.5t6.5 10.5t4 7q18 29 40.5 54.5t48.5 46.5q1 2 6.5 5.5t7.5 5.5l2 2q1 1 2 1h8q1 0 2 1.5t3 1.5q13 7 31 7q16 0 28 -8q1 0 1.5 -1t1.5 -1l12 -12q4 2 7.5 4t8.5 2q7 0 11.5 -6.5t4.5 -11.5v-22l-16 -114q-1 -3 -3.5 -17t-3.5 -19q-6 -26 -14 -49.5
t-18 -46.5q-12 -28 -26.5 -53.5t-31.5 -51.5q-11 -17 -25 -35t-30 -32q0 -1 -1 -1h-2q-1 -1 -4 -2.5l-5 -2.5q-22 -20 -45.5 -36.5t-52.5 -16.5q-22 0 -35.5 9.5t-25.5 24.5q-2 2 -6.5 7.5t-6.5 7.5q-1 2 -3 8v8zM69 31q0 -15 5 -22t19 -7q17 0 35 5.5t33 13.5q29 16 52 39
t40 51l10 16t9 17q1 4 4 11.5t6.5 15t6 14t3.5 8.5q10 25 10 49q0 17 -5 31.5t-23 17.5q-6 2 -11 2h-11q-1 0 -1.5 0.5t-1.5 0.5h-1q-2 0 -4 -1q-5 -3 -12 -5q-2 -2 -6.5 -5t-5.5 -4q-2 -2 -7 -5.5t-6 -5.5q-2 -2 -6 -5.5t-8 -8t-7.5 -8l-4.5 -4.5q-2 -1 -5.5 -5t-7 -8.5
l-7 -9t-4.5 -6.5q-13 -15 -25 -32.5t-23 -34.5q-8 -14 -15.5 -27t-12.5 -27l-1 -2q-1 -2 -1.5 -5.5t-1.5 -6.5l-2 -8l-4 -20t-2 -19z" />
    <glyph glyph-name="h" unicode="h" horiz-adv-x="314" 
d="M229 6q0 2 1 5q1 2 1 3.5t1 2.5l71 229l1 4t2.5 9t2.5 10t2 8q1 6 1.5 11.5t0.5 12.5v6q0 3 -1.5 7t-5.5 4q-3 0 -6.5 -1.5t-5.5 -3.5q-9 -6 -17.5 -13t-16.5 -14q-3 -3 -8 -8.5t-10.5 -11t-10 -10.5t-5.5 -6q-2 -1 -6.5 -6t-9.5 -11t-10 -11.5t-8 -8.5q-5 -6 -11.5 -13
t-11.5 -15q-2 -4 -2.5 -7t-2.5 -7q-2 -2 -7 -7.5t-7 -7.5l-1 -1q0 -1 -1 -1q0 -1 -0.5 -1t-0.5 -1v-1q-1 -1 -4.5 -8.5t-4.5 -8.5q0 -1 -2.5 -3.5l-4.5 -4.5q-7 -8 -14.5 -16t-12.5 -17q-1 -2 -3.5 -5.5t-2.5 -5.5q-2 -2 -6.5 -12t-6.5 -12q-4 -8 -9 -14.5t-12 -14.5
q-3 -3 -12 -3q-14 0 -14 15q0 9 6.5 15.5t9.5 14.5l34 71l107 267l59 185l2 4q1 2 1 3t1 3q3 7 12 7q17 0 17 -16q0 -6 -4 -16q-2 -3 -4.5 -10t-3.5 -9t-4.5 -9.5t-7.5 -16.5t-8 -16.5t-5 -9.5q0 -2 -1 -4.5t-1 -3.5l-29 -88q-5 -14 -11.5 -27.5t-11.5 -27.5q-1 -3 -2 -6.5
t-2 -7.5l-1 -7v-5l-1 -3q-1 -2 -2.5 -8t-2.5 -7q-1 -3 -4 -10.5t-4 -9.5q0 -1 -2 -5l-3 -6q-4 -4 -8 -12v-3q-1 -2 -2 -5t-1 -4l-44 -101l5 6l94 114l19 19q9 10 19 19t22 17q15 12 34 12q14 0 22 -9t8 -24v-8q0 -2 -1 -9t-2 -10q-1 -4 -2.5 -11t-3 -14.5t-3 -13.5t-1.5 -8
l-30 -111q0 -2 -3.5 -13t-5.5 -17q-3 -9 -6.5 -17.5t-5.5 -18.5q-2 -16 -4.5 -34.5t-16.5 -30.5q-3 -3 -7 -3h-2q-5 0 -11 2.5t-6 9.5v2zM117 157q-1 0 -1 -0.5t1 -0.5t1 0.5t-1 0.5z" />
    <glyph glyph-name="i" unicode="i" horiz-adv-x="148" 
d="M37 -4q0 8 4 18l91 232l24 77q0 1 1.5 2t1.5 2t1.5 5t2.5 4q2 3 3 5.5t5 4.5h3q3 0 5 -1q10 -2 10 -8q0 -1 0.5 -3.5t0.5 -4.5q0 -10 -4.5 -18.5t-9.5 -17.5l-2 -4l-82 -218q-1 -3 -1 -6.5t-1 -7.5l-1 -1q-1 0 -1 -1q-2 -5 -3.5 -9.5t-2.5 -9.5q-1 -2 -2.5 -13.5
t-3.5 -13.5q-2 -8 -6.5 -20t-15.5 -12q-8 0 -12.5 6t-4.5 13zM191 471q0 9 7 22.5t15 18.5h1q1 0 1 0.5t1 0.5t2 1h4q11 0 11 -14q0 -10 -3 -21.5t-12 -17.5q-2 -1 -3 -2t-2 -1h-1q-2 -2 -3 -1.5t-3 0.5h-6q-9 4 -9 14z" />
    <glyph glyph-name="j" unicode="j" horiz-adv-x="171" 
d="M-191 -96q0 9 9 14l1 1h12l3 -1l2 -2q0 -1 2 -1q1 0 2 -1l46 -44l3.5 -3.5t4.5 -3.5q11 -8 22.5 -14.5t23.5 -6.5q8 0 15 2.5t15 4.5q19 7 31 20.5t23 29.5q11 18 21 41q2 3 6 14t6 13q2 4 5 13l6 18l5.5 16.5t3.5 9.5l29 100q0 2 2 11t4.5 20l5 22t3.5 17q1 3 2 9.5
l2 13t2 11.5t1 6l5 78q0 1 0.5 5.5t1.5 6.5q2 11 6 16.5t15 5.5q5 0 8.5 -4.5t3.5 -9.5v-7q0 -11 -2.5 -22t-5.5 -22l-9 -58l-38 -161q0 -2 -2 -8t-4 -12.5l-4 -13t-3 -9.5q-8 -29 -19 -56.5t-25 -54.5q-1 -2 -4.5 -8.5t-4.5 -8.5q-9 -14 -22 -29.5t-27 -26.5
q-13 -9 -29 -14.5t-33 -5.5h-8q-3 0 -5.5 1t-5.5 2q-20 8 -36 23t-30 30q-5 3 -8.5 6t-8.5 6t-11.5 5t-11.5 7q-1 2 -1.5 4t-0.5 5zM142 449q0 2 2 6q1 1 1.5 2t1.5 2l2 2h21q5 0 5.5 -5.5t0.5 -8.5q0 -8 -3.5 -14t-10.5 -6h-4q-4 1 -10 9t-6 13z" />
    <glyph glyph-name="k" unicode="k" horiz-adv-x="350" 
d="M126 151q-5 0 -7 -5q-6 -11 -11 -22q0 -2 -2.5 -9t-5.5 -15t-5.5 -15.5t-2.5 -9.5q-3 -10 -8.5 -19t-10.5 -20q-2 -4 -2 -10q0 -2 -1.5 -9t-1.5 -8l-4 -12t-7 -8h-5h-4q-1 0 -2 1l-2 2q-9 5 -9 14v3q1 1 1 2q0 2 1 3l6 15t4 12l39 86q2 2 4.5 10t4.5 12q1 3 2 5.5t1 6.5
t-2.5 7t-2.5 8q0 11 8.5 17.5t15.5 12.5q2 2 3 4.5t3 4.5l52 141l43 135q0 3 1 6q2 6 2 8l2 6q1 4 4 8q1 7 2 15.5t9 12.5h6q7 0 12 -2t5 -10v-3l-40 -115q-1 -2 -4.5 -10.5t-5.5 -12.5q-2 -5 -5 -8t-6 -8v-10q0 -1 -1.5 -6.5t-2.5 -8.5q0 -1 -1 -5.5t-2 -5.5
q-1 -2 -3.5 -8.5t-6 -14.5t-6 -15t-3.5 -8q0 -2 -1 -5.5t-2 -5.5q-1 -1 -2.5 -8.5t-2.5 -9.5t-4 -10.5t-3 -10.5q-1 -3 -1 -5v-1l10.5 7t16.5 10.5t16.5 10.5l10.5 7q2 1 9.5 5t16.5 9.5t17.5 10t12.5 7.5q2 1 8.5 4t10.5 5q6 3 10.5 4.5t11.5 1.5h5l6 -3t4 -5v-9l-2 -4
q-5 -7 -15 -10q-2 0 -9.5 -3t-9.5 -4q-4 -2 -6.5 -5.5t-7.5 -4.5q-3 -1 -9 -3.5t-12.5 -6t-12.5 -7t-9 -4.5q-1 -1 -7 -5l-9 -6q-1 0 -4.5 -2.5t-4.5 -2.5q-2 -2 -3.5 -2t-3.5 -2q0 -1 -1.5 -2.5l-2.5 -2.5q-2 -1 -5.5 -3t-8 -4.5t-8 -5t-4.5 -3.5q-9 -5 -16.5 -11
t-14.5 -13v-3v-2q15 -9 29.5 -20t28.5 -22q2 -2 7 -6.5t7 -6.5l15 -15l11 -11l54 -61q0 -1 4 -4.5t6 -5.5q1 -2 5.5 -6.5l5.5 -5.5q4 -2 7 -6.5t3 -9.5q0 -7 -2 -10q0 -1 -2 -2.5t-3 -2.5q-4 -4 -11 -4q-16 0 -22.5 13t-12.5 24q-5 10 -11.5 18t-13.5 16q-2 3 -6 7.5
t-8.5 10t-8 9.5t-4.5 5q-19 21 -39 35q-3 2 -11.5 7t-10.5 6q-1 1 -10.5 7t-15.5 9h-3v0z" />
    <glyph glyph-name="l" unicode="l" horiz-adv-x="137" 
d="M18 -19v5l1 3q2 10 7.5 19t10.5 17q1 2 2.5 4.5t1.5 3.5l91 242q1 2 4.5 13t5.5 16q1 2 3 10.5t3 10.5l75 231q0 3 2 7q1 2 1 4v15q1 0 1.5 2.5t1.5 3.5l4 8q3 4 7 4.5t9 0.5h4q8 -8 8 -18q0 -5 -1 -9.5t-3 -9.5t-6 -16.5t-8.5 -24t-8.5 -24.5t-6 -16q-1 -1 -2.5 -7
t-3.5 -8q-2 -5 -6.5 -11.5t-4.5 -11.5v-6v-2v-3l-53 -158l-6 -10t-4 -10q0 -1 -0.5 -1t-0.5 -1v-2q0 -1 -0.5 -4.5t-0.5 -4.5q0 -3 -1 -6t-3 -7q-1 -3 -5.5 -12.5t-5.5 -11.5l-43 -119q-1 -3 -2.5 -9t-4 -13t-4 -13t-2.5 -8q0 -1 -0.5 -1t-0.5 -1l-1 -1l-1 -2l-10 -42
q0 -1 -1 -4t-1 -5q-4 -8 -9.5 -17t-14.5 -9q-14 0 -18 12v7z" />
    <glyph glyph-name="m" unicode="m" horiz-adv-x="427" 
d="M28 0q0 5 2.5 10l4.5 9l66 150l46 137q1 2 4 10t5 12q4 8 8.5 13t13.5 5q14 0 14 -15v-3q-8 -13 -13.5 -26t-11.5 -27q0 -1 -1.5 -5t-2.5 -6v-3l2 1l5 5q2 2 6.5 7t9 11t8.5 11t6 7q11 14 26 25.5t34 11.5q16 0 18.5 -13t2.5 -26q0 -26 -6 -53q-2 -10 -4.5 -20t-5.5 -20
q-1 -1 -2.5 -4l-2.5 -5q-1 0 -1 -1v-2q-5 -5 -5 -7q-2 -1 -2.5 -4.5t-0.5 -4.5l-21 -58l1 1q2 2 7.5 8.5t5.5 7.5l68 98q2 2 11 14.5t14 18.5q2 2 7.5 8.5t7.5 8.5l7.5 7.5l7.5 7.5q12 13 31 27t39 14q11 0 15.5 -9.5t4.5 -19.5q0 -5 -0.5 -8.5t-1.5 -7.5q0 -4 -2 -10
q-1 -4 -1 -6l-69 -234q-1 -2 -2 -6t-1 -6q-1 -2 -2.5 -12t-1.5 -12q-1 -8 -4.5 -18t-13.5 -10q-7 0 -12.5 4.5t-5.5 12.5q0 4 2 7.5t4 8.5q1 2 2 7t2 7v4q1 3 2.5 4.5l2.5 2.5q5 3 5 9l62 211q1 2 4 14.5t5 18.5v4q0 2 1 4v3v3q-1 2 -5 2q-9 0 -20 -7.5t-18 -12.5
q-3 -3 -9.5 -10t-8.5 -8q-1 -2 -4.5 -6t-7.5 -9t-7.5 -9.5t-4.5 -6.5q-3 -3 -9.5 -11t-13.5 -17.5t-13.5 -18t-8.5 -12.5q-1 -2 -5.5 -9t-10.5 -16.5t-11.5 -18.5t-8.5 -14q-2 -1 -8 -11t-7 -12q0 -1 -0.5 -1t-0.5 -1l-1 -1l-13 -13q0 -1 -1 -2t-1 -2t-1 -1q-1 -1 -3.5 -5.5
t-6 -10t-6 -10t-3.5 -5.5q-1 -2 -3.5 -5.5t-3.5 -3.5q-1 -1 -4.5 -5.5t-5.5 -6.5q-9 -7 -17 -7q-6 0 -10.5 3t-4.5 9q0 5 1.5 10.5t3.5 10.5l58 136q1 2 6 15.5t7 20.5q6 18 10.5 37.5t4.5 39.5v4q0 3 -5 3q-2 0 -4 -1l-4 -2q-18 -11 -32.5 -26.5t-28.5 -32.5
q-2 -2 -6.5 -8.5t-5.5 -8.5q-2 -4 -9 -14.5t-9 -12.5q-3 -5 -9.5 -16t-7.5 -13l-50 -110l-22 -58q0 -1 -3 -7t-5 -8q-4 -9 -11 -9q-10 0 -16 9v7v0z" />
    <glyph glyph-name="n" unicode="n" horiz-adv-x="364" 
d="M33 -9q2 16 8 26l86 208q1 1 2.5 7t4 12.5t4.5 13.5t3 10q2 2 3.5 8.5t1.5 9.5q0 1 1 3.5t1 3.5v11q1 6 7 8t11 2q12 0 12 -15v-6v-2l-47 -114q-1 -2 -4.5 -13.5t-5.5 -16.5q0 -1 -1 -4t-2 -4v-1l3 2q3 4 9.5 13t14.5 19.5t15 20t10 13.5l4 4.5t8.5 10l9 11t7.5 8.5
q2 2 4.5 5t4.5 5l6 6t8 8.5t7.5 8l4.5 4.5q2 1 6.5 5t6.5 6q17 13 37.5 25.5t43.5 12.5q15 0 25.5 -9t12.5 -24q2 -3 1.5 -6.5t-0.5 -8.5q0 -20 -4 -39t-9 -38q-1 -5 -5 -15.5t-4 -12.5l-57 -132l-1 -2q0 -1 -0.5 -1.5t-0.5 -1.5v-2q-2 -8 -2.5 -15.5t-8.5 -11.5l-2 -2
q-1 -1 -2 -1h-4q-8 0 -13.5 5t-5.5 13q0 7 3.5 12.5t7.5 10.5l42 89q0 1 2 5t4 9t4.5 10t3.5 8q2 3 4 10t3 9q8 20 14 43.5t6 46.5q0 10 -3.5 17.5t-15.5 7.5q-8 0 -14 -2.5t-13 -5.5q-7 -2 -13.5 -6t-12.5 -9q-13 -9 -24 -19t-22 -22q-2 -3 -8 -10t-12.5 -15t-12 -15
t-8.5 -10q-2 -3 -7 -10t-10.5 -14.5t-10.5 -14.5t-7 -9q-2 -3 -6.5 -10.5t-10.5 -17t-11.5 -18t-7.5 -12.5q-2 -3 -8.5 -14t-8.5 -15q-2 -3 -6.5 -12t-10 -18.5t-10 -18.5t-5.5 -13q-2 -5 -7 -8.5t-10 -3.5q-4 0 -8.5 4.5t-4.5 8.5v1z" />
    <glyph glyph-name="o" unicode="o" horiz-adv-x="283" 
d="M19 26q0 19 7.5 38.5t15.5 36.5q30 57 73 106q1 2 5 6.5t7.5 9t7 8.5t4.5 6q2 1 6.5 6t10 10t10 10t6.5 7q1 1 9 7t11 9q8 7 18.5 13.5t24.5 6.5q3 0 13.5 0.5t13.5 0.5q1 0 2 0.5t2 0.5t2.5 0.5t2.5 0.5h1l1 -1q17 -11 30.5 -22t17.5 -34v-6v-12v-12q0 -11 -3 -22.5
t-7 -21.5q-11 -32 -29 -55.5t-43 -46.5q-2 -1 -6 -5t-6 -5q-42 -35 -94 -59q-11 -5 -23 -9.5t-24 -8.5q-8 -2 -14.5 -3.5t-14.5 -1.5q-38 0 -38 42zM42 26q0 -11 6.5 -13t15.5 -2q19 0 36 6.5t33 16.5q21 11 41 24.5t38 28.5q27 22 50 48t31 60q5 13 5 22v13v9t-1 9
q0 1 -0.5 4t-1.5 5q-3 11 -11.5 18.5t-19.5 7.5q-5 0 -15 -3.5t-13 -8.5q-2 -3 -3.5 -8l-3 -10t-4 -8.5t-7.5 -3.5q-3 0 -6.5 3t-4.5 6v11l-1 1h-1q-3 0 -5 -2t-7 -6t-7 -6q-2 -1 -5 -4t-3 -4q-2 -2 -8.5 -7.5t-8.5 -7.5q-1 -2 -4 -5.5t-4 -4.5q-20 -20 -36.5 -42.5
t-31.5 -46.5q-12 -18 -21 -38t-17 -42q-5 -8 -5 -20z" />
    <glyph glyph-name="p" unicode="p" horiz-adv-x="359" 
d="M-20 -134q1 1 1.5 3.5t0.5 3.5l54 121q0 1 2.5 7t5 13t5 13.5t3.5 10.5q1 1 3.5 8.5t4.5 10.5v6q0 5 -1.5 9.5t-1.5 9.5q0 7 5 10q10 5 14.5 14t8.5 18q1 1 3 5.5t3 6.5q0 1 2 6.5t4 12t4 12.5l3 9q0 1 1 4.5t1 4.5q1 3 3 11t3 10l38 90q1 1 1.5 3.5t1.5 3.5q1 2 5 11.5
t5 11.5q2 2 3.5 5t4.5 4q1 0 3 0.5t3 0.5h2q5 0 8 -4.5t3 -8.5q0 -11 -6 -19.5t-12 -16.5q0 -2 -2.5 -5.5t-3.5 -4.5q-1 -2 -2 -5t-1 -5v-1q0 -1 1 -1q14 8 27.5 13.5t28.5 10.5q36 14 72 14q54 0 90 -37q8 -10 13 -23q5 -9 6.5 -19t2.5 -19v-6v-3l-1 -1q1 -18 -5.5 -34
t-16.5 -30q-6 -7 -12.5 -13t-14.5 -13q-5 -7 -12.5 -12t-15.5 -11q-20 -13 -43 -21.5t-46 -14.5q-2 -1 -9.5 -2t-9.5 -1t-13.5 -1.5t-17.5 -2.5h-9h-4h-9.5t-9.5 2q-2 0 -9.5 1.5t-16 3.5t-16 3.5t-9.5 2.5t-6.5 2t-6.5 1h-3h-4q-1 -2 -2 -3.5t-1 -3.5l-51 -130
q-1 -3 -3.5 -10t-5 -15t-5 -15t-3.5 -10q-2 -7 -6.5 -12t-12.5 -5h-4q-5 1 -7.5 5.5t-2.5 9.5zM97 85q0 -2 3 -3.5l5 -2.5q31 -17 68 -17q23 0 46 5.5t45 13.5q3 1 15 5.5t16 6.5q29 13 52 40q2 2 9 12.5t9 14.5q5 5 8.5 12.5t3.5 15.5q0 1 0.5 5.5t0.5 6.5v6q0 37 -24.5 55
t-58.5 18q-18 0 -36 -3t-34 -9l-22 -10t-22 -11q-6 -3 -13 -7.5t-12 -8.5q-4 -2 -8 -5.5t-6 -8.5t-7.5 -17t-6.5 -15q0 -1 -0.5 -1t-0.5 -1l-1 -1q0 -2 -3.5 -13t-4.5 -13q-1 -1 -2.5 -6t-3.5 -5q0 -1 -0.5 -2t-0.5 -2q-5 -13 -8 -26t-6 -27v-2z" />
    <glyph glyph-name="q" unicode="q" horiz-adv-x="350" 
d="M119 -240v5q0 1 0.5 4.5t1.5 5.5q2 4 5 14t4 11l95 222q0 1 0.5 5.5t2.5 6.5q0 1 1 2v2h-2q-2 -2 -6 -4.5t-6 -4.5q-1 0 -5 -4t-5 -4q-1 -2 -6.5 -6t-7.5 -6q-5 -5 -11 -8t-11 -5q-11 -5 -19.5 -8t-18.5 -7q-9 -4 -19.5 -6.5t-20.5 -2.5q-26 0 -37 19.5t-11 42.5
q0 15 4 30t11 28q16 34 33 66t40 62q1 2 7 11t9 12q28 35 65 63q2 1 4.5 3t3.5 3q2 0 4 0.5t4 0.5q1 0 4.5 2t4.5 3q7 2 13.5 2.5t13.5 0.5h8q7 0 12 -3q2 0 5 -2t4 -3q3 0 3 -2q2 -1 4.5 -3.5l4.5 -4.5q1 0 1 -1q0 -2 1 -2q2 -3 3.5 -7t3.5 -6q4 -9 5 -18.5t1 -18.5
q0 -17 -5 -32t-5 -30v-5q1 -5 4.5 -10.5t3.5 -11.5q0 -1 -1 -3q0 -1 -2 -5q-1 -2 -1 -4l-111 -233q-1 -2 -4 -10t-7.5 -18t-8.5 -20.5t-6 -16.5q0 -1 -1.5 -5t-3.5 -9.5t-4 -10.5t-3 -8q0 -2 -2 -8t-3 -8t-1 -5q-1 -3 -1 -8q0 -1 -0.5 -1t-0.5 -1v-2v-3q0 -3 2 -3q11 0 20 3
q17 5 33 10t30 13q4 0 4 3q2 1 8.5 5.5t8.5 5.5q2 2 5.5 2.5t5.5 2.5t8.5 5.5t7.5 4.5q3 2 6.5 4t4.5 6v12q4 8 13.5 11.5t17.5 3.5t12.5 -6t4.5 -13t-6 -10q-11 -10 -23 -20t-23 -18q-1 0 -3 -1l-4 -2q-1 -1 -4.5 -2.5t-4.5 -1.5q-1 -1 -5 -4t-9 -6t-9 -5.5t-5 -2.5
q-1 -1 -4 -2t-3 -2q-2 0 -8.5 -3.5t-7.5 -4.5q-12 -7 -25.5 -11.5t-27.5 -8.5q-7 -2 -14 -3t-13 -1q-7 0 -18 2.5t-13 10.5v4zM67 29q0 -10 3.5 -17.5t14.5 -10.5h7q32 0 62 15.5t52 36.5q17 16 31 33.5t25 37.5q2 3 4.5 9t3.5 6l23 59q8 22 8 44q0 17 -5 30.5t-23 18.5h-4
q-2 0 -9.5 1t-9.5 1h-3h-1h-3q-16 -7 -25 -16q-13 -11 -25 -22t-23 -25q-47 -56 -82 -120q-6 -11 -9.5 -22.5t-5.5 -22.5l-4 -18t-2 -18z" />
    <glyph glyph-name="r" unicode="r" horiz-adv-x="288" 
d="M16 -15q0 5 1 10.5t3 10.5q2 4 4.5 10.5l5 13t4.5 11.5t3 7l47 103q1 2 3 8.5t3 8.5q1 3 3.5 9.5t5 14l4.5 13.5t2 8t1.5 9t3.5 15t3.5 15.5t2.5 10.5q1 4 3 15.5t3 15.5q0 1 1 6t1.5 10.5t1.5 10.5t1 6t0.5 3.5t0.5 4.5q0 1 0.5 1.5t0.5 1.5q1 4 5.5 7t9.5 3
q10 0 18 -10q2 -2 1.5 -4.5t-0.5 -5.5v-4l-35 -121v-1v-1v-3l2 2q1 1 6 7.5t7 7.5q1 3 5 7t8 8.5t7 8.5t4 5t5.5 6t10.5 10.5t11 11t8 8.5q2 2 7 6t7 6q3 2 9.5 7.5t8.5 6.5q2 2 10 7.5t10 7.5q11 8 23 14t26 6t22.5 -10.5t11.5 -24.5q0 -2 1.5 -10.5t1.5 -10.5q1 -1 4 -7.5
t3 -7.5q2 -2 1.5 -5t-0.5 -5q0 -8 -3.5 -14.5t-13.5 -6.5q-17 0 -22 19q-1 4 -1 12q0 6 0.5 12t0.5 11v8q-2 8 -8 8q-3 0 -5 -1q-14 -4 -26.5 -12t-25.5 -16q-26 -19 -48 -42.5t-39 -49.5q-3 -5 -8.5 -14t-12 -18.5t-12 -17.5t-6.5 -11q-2 -2 -5.5 -8t-7.5 -13.5t-8 -14
t-5 -9.5q-27 -52 -45 -106q-4 -6 -13 -6q-6 0 -12 3.5t-6 11.5z" />
    <glyph glyph-name="s" unicode="s" horiz-adv-x="394" 
d="M66 -5q-8 2 -12.5 9.5t-4.5 15.5v4q0 4 2 6q1 3 7 7q3 3 8 3q9 0 17.5 -7t16.5 -10q4 -2 7.5 -2t7.5 -1q12 -2 24 -3t25 -1q16 0 31.5 2.5t30.5 5.5q3 0 18 3.5t21 5.5q2 1 7.5 2t7.5 2q4 2 12.5 4t10.5 3q3 1 11.5 4.5t10.5 4.5q1 1 8 4t11 5q13 7 27 20t14 30
q0 12 -11.5 21.5t-22.5 15.5q-2 2 -8.5 5t-7.5 4q-2 1 -10.5 4t-10.5 4q-3 1 -8 3t-11 4l-10.5 3.5t-5.5 1.5l-132 32q-14 5 -26.5 14t-18.5 23q-1 1 -1 2q-1 1 -1 3v1q8 10 20 16.5t23 11.5q13 6 26.5 10.5t27.5 8.5q36 10 72 18q16 2 31 4t29 2q10 0 25 -1t29.5 -5
t24.5 -12t10 -22v-6q0 -1 -0.5 -1.5t-0.5 -1.5q-2 -6 -6.5 -12.5t-12.5 -6.5q-5 0 -7.5 3.5t-4 8.5t-3.5 10t-6 8q-11 6 -23 6.5t-25 0.5h-11t-11 -1q-32 -4 -64 -11t-64 -16q-4 -1 -9.5 -3t-9.5 -4q-5 -2 -8.5 -3.5t-6.5 -5.5v-2q0 -2 1.5 -2t2.5 -1q1 0 3 -1t3 -1
q1 -1 4 -1q1 0 3 -1l121 -33q3 -1 15.5 -5t17.5 -6q2 0 10.5 -3.5t12.5 -5.5q19 -8 35 -18q26 -15 36 -40q2 -4 2 -8v-8v-8q0 -7 -3.5 -14.5t-6.5 -12.5q-9 -12 -20 -23q-1 0 -3.5 -2.5t-4.5 -3.5q-25 -17 -52.5 -28.5t-56.5 -19.5q-4 -2 -13.5 -3.5t-11.5 -2.5
q-3 -1 -12 -2.5t-12 -2.5t-10 -1.5t-9 -0.5h-19h-19q-4 0 -15 1t-23 2t-23 2t-15 1q-2 0 -8.5 0.5t-8.5 0.5z" />
    <glyph glyph-name="t" unicode="t" horiz-adv-x="314" 
d="M109 -7l56 132l46 131q0 1 2 5.5t2 7.5q2 4 2 7v1l-6 1.5t-5 0.5h-6l-84 -6h-36q-3 0 -7 2q-5 7 -5 13q0 11 11 14t19 3h11q11 0 21 -0.5t21 -0.5h20.5t20.5 1q1 0 10.5 0.5t14.5 1.5q8 1 11 3t5 9q2 4 2 7q1 4 4 12t6 17l5.5 16.5l3.5 10.5q1 5 3 12t2 14q0 5 -2 10.5
t-2 10.5v4q0 1 0.5 2t0.5 2q4 7 16.5 18t20.5 11q10 0 10 -11q0 -9 -2 -18t-5 -18q0 -2 -2 -7t-3 -7l-25 -62q-1 -2 -3 -8.5t-3 -9.5q0 -2 -0.5 -4t-0.5 -3v-2q0 -5 3 -6h12h13t14 1q1 0 6 0.5t11 1.5t11.5 1.5t6.5 0.5q14 1 27 1.5t27 0.5q8 0 16 -1t14 -8q1 -3 1 -10
q0 -10 -6 -15q-3 -3 -10 -3h-5q-2 0 -3.5 1t-2.5 1q-17 6 -34 6h-34v-1h-46q-1 0 -4 -0.5t-5 -0.5q-9 -2 -15 -4.5t-11 -11.5q-3 -8 -9 -22t-6 -15l-69 -194l-12 -49l-1 -1v-2q-3 -3 -3 -7q-1 -1 -2.5 -4t-1.5 -4q-2 -2 -3.5 -2h-3.5q-5 0 -8.5 1.5t-8.5 3.5l-2.5 2.5
t-3.5 1.5q-2 2 -2 5v6v3z" />
    <glyph glyph-name="u" unicode="u" horiz-adv-x="359" 
d="M238 -28q0 14 6 25t11 24q1 2 3.5 8.5t3.5 8.5q1 4 4 14t6.5 21.5t6.5 22t4 14.5q2 3 4 10t3 9q0 2 4 9.5t4 9.5q2 3 2 9q0 3 -1 7t-4 4q-4 -2 -6 -4q-1 -2 -3.5 -8.5t-4.5 -8.5q-3 -3 -3 -5l-74 -87q-1 -2 -10.5 -11.5l-14.5 -14.5q-20 -19 -45 -35.5t-54 -16.5
q-7 0 -14.5 0.5t-9.5 8.5l-1 2v1v5q0 13 2.5 26t6.5 26q1 3 3 9.5t2 8.5l61 168l37 82q2 2 4.5 11t3.5 11q2 4 5.5 8t8.5 4q12 0 18 -11q1 -1 1 -7q0 -5 -1 -9t-3 -9q-2 -3 -5 -9l-4 -8l-38 -63l-46 -118q-1 -3 -5.5 -17t-6.5 -21q-5 -12 -7.5 -25.5t-2.5 -26.5
q0 -2 0.5 -5.5t2.5 -5.5h4q8 0 16.5 3.5t15.5 7.5q2 1 6 4t6 5q11 6 20.5 14.5t18.5 16.5q3 2 8 7.5t10.5 11l10 10t6.5 5.5q2 3 7.5 9.5t12.5 14.5t13 14.5t8 9.5q1 2 5.5 7.5t9.5 11.5t9.5 12t6.5 9q2 2 7 10t7 11q1 0 3 2.5t2 4.5q2 5 9.5 20.5t9.5 20.5q8 17 10 34
t11 34q3 5 9.5 12t12.5 8h4h5q4 -1 6 -5v-6q0 -11 -3.5 -20.5t-8.5 -18.5l-87 -275q0 -2 -2 -8.5t-3 -8.5q0 -2 -1.5 -8t-1.5 -7q-2 -8 -5 -18t-12 -12h-5q-9 0 -12 4t-3 12z" />
    <glyph glyph-name="v" unicode="v" horiz-adv-x="293" 
d="M102 -4l40 292q2 6 3 11t7 9q3 1 5.5 2t4.5 1q5 0 8.5 -4t3.5 -9v-9v-11q0 -2 -1 -8.5t-2 -8.5l-25 -138q0 -1 -0.5 -6t-1.5 -12t-1.5 -14t-1.5 -11q0 -1 -0.5 -4.5t-0.5 -4.5v-14l2 -1h1l1 1l2 2q2 1 4 3.5t3 3.5l164 200q1 2 5 7.5t8.5 11.5t8.5 11t6 7q6 8 12 14.5
t17 6.5q8 0 10 -7.5t2 -13.5q0 -17 -15 -22q-7 -2 -12.5 -3.5t-10.5 -7.5l-114 -139q-1 -1 -9 -11l-12 -15q0 -1 -2 -4t-3 -4q-1 -2 -4.5 -6.5t-8 -10t-8 -10.5t-4.5 -7l-44 -64q-2 -2 -4 -4.5t-6 -2.5q-2 0 -3.5 0.5t-3.5 0.5h-1q-4 -2 -6.5 -3t-5.5 -1q-7 0 -7 6v1z" />
    <glyph glyph-name="w" unicode="w" horiz-adv-x="421" 
d="M48 -28v5q0 1 1.5 4t1.5 4l1 2q0 1 1 2q2 4 4 12l2 8l26 103l76 237q2 5 7 8.5t10 3.5q6 0 9 -5.5t3 -12.5v-3l-61 -166v-13l-40 -126v-2q0 -3 3 -3q2 0 2 1q11 6 19.5 14.5t16.5 18.5l124 166q2 2 5.5 4.5t5.5 5.5q1 2 4.5 6.5t5.5 7.5q2 2 6 8t5 8q1 1 3.5 6.5t4.5 7.5
q4 7 6 12.5t10 8.5q2 1 5 1q5 0 10 -4t5 -9v-4q0 -9 -4 -17t-6 -17l-34 -143l-7 -32v-3q0 -7 4 -11l11 11l7 10.5t7 9.5l116 175q1 2 4.5 8t7.5 12.5t7.5 12.5t5.5 8q4 8 10 15.5t16 7.5q8 0 10.5 -7.5t2.5 -14.5q0 -9 -3 -14t-11 -9q-1 0 -5.5 -1t-4.5 -2l-3 -2
q-1 -2 -3 -3t-2 -2l-108 -164l-51 -86q-1 -2 -6 -9t-7 -11q-4 -6 -8 -11t-9 -10q-4 -4 -12 -4q-13 0 -16 13v6q0 8 3 16t5 17l31 156q0 2 0.5 6t0.5 6v4v5q0 4 -4 4t-6 -4l-128 -174l-60 -73q-1 -1 -3.5 -4t-3.5 -4t-1.5 -1t-1.5 -1h-3h-4h-2q-1 0 -2 1q-2 1 -4 1t-4 1
q-2 0 -3 2t-1 4v5z" />
    <glyph glyph-name="x" unicode="x" horiz-adv-x="321" 
d="M172 136q-5 0 -6 -3l-78 -102q-1 -2 -4 -6t-5 -5q-1 -1 -4.5 -5t-5.5 -5q-3 -3 -7 -3q-8 0 -16.5 7t-8.5 15t5.5 9.5t10.5 3.5h2q1 0 2 1l9 10l91 113l1 1l1 1q0 3 -1.5 7t-2.5 6t-5 10.5t-8 18.5t-7.5 19t-4.5 11q-2 2 -5.5 12.5t-4.5 14.5q-5 15 -9 30.5t-4 31.5v9
q2 6 8 8h6q5 0 10 -1t7 -8q1 -19 2.5 -36.5t6.5 -34.5q1 -2 3 -9t5 -14.5t5 -14t3 -9.5q1 -2 1.5 -4.5t1.5 -2.5q1 -2 3.5 -5.5t2.5 -5.5q4 -6 5 -7q2 2 4.5 3.5t4.5 3.5l92 88q2 1 9 7t11 10q7 5 17 12t21 7h3q3 0 5.5 -3.5t3.5 -5.5v-3q0 -4 -1 -6l-6 -6l-83 -70l-23 -23
q-10 -11 -20 -21.5t-20 -22.5q-1 -1 -1 -2t-1 -1v-1q1 -5 3.5 -9.5t4.5 -9.5q2 -3 6.5 -10t5.5 -9l48 -69q2 -1 10 -12t13 -17q3 -3 6.5 -7t7.5 -6l6 -3t5 -3q7 -6 7 -15q0 -7 -3.5 -16t-9.5 -12q-2 -1 -5 -1h-4q-3 1 -5.5 5.5t-4.5 6.5q-2 5 -4 11t-5 11l-98 137l-2 2
q-1 1 -1 2h-2v0z" />
    <glyph glyph-name="y" unicode="y" horiz-adv-x="340" 
d="M19 -159q0 10 5 15q2 2 7 7.5t7 7.5q2 3 3.5 6l3.5 7q5 8 11 15.5t11 15.5l2 2q1 1 1 1.5t1 1.5t4 4.5t7 7.5t7 7.5t4 5.5l91 120l2 2q1 1 1 1.5t1 1.5v2l-5 14l-101 210q-2 3 -3.5 6.5t-1.5 6.5q0 7 6 10.5t12 3.5q3 0 7.5 -5.5t6.5 -9.5q2 -2 5 -8.5t4 -6.5l71 -150
q1 -2 4 -7.5t5 -8.5q1 -1 2.5 -3.5t2.5 -4.5q3 -5 9 -9q2 -2 4 -2h2q4 0 4 3q23 35 49 67q2 2 4.5 5t5.5 5q1 2 5 7t8.5 10t8 10t5.5 7q4 5 6.5 10.5t6.5 10.5l92 120q1 0 3.5 2.5l3.5 3.5q4 3 9 3q12 0 18 -7v-2v-5v-6.5t-2 -5.5l-43 -45l-103 -124l-98 -134q-3 -4 -8 -6.5
t-9 -7.5q-1 -2 -3.5 -5t-2.5 -5q-2 -2 -6.5 -9t-10 -14.5t-10 -14t-5.5 -9.5l-61 -81q-1 -1 -6 -8t-7 -9q-1 -1 -1 -2q-1 -1 -1 -2q-3 -3 -3 -5t-3.5 -12t-4.5 -12q-2 -1 -3.5 -4.5t-2.5 -5.5q-3 -6 -7 -9q-2 -2 -4.5 -2h-4.5h-5q-3 0 -3 2q-6 2 -8 7.5t-2 11.5z" />
    <glyph glyph-name="z" unicode="z" horiz-adv-x="387" 
d="M144 11q-16 0 -31.5 -5t-32.5 -5q-8 0 -15.5 2.5t-10.5 10.5v5q0 6 2 9q3 3 5 3q2 1 7.5 4.5t11.5 7t12 6.5t8 5l10.5 7l15 10t14.5 9.5t9 6.5q3 2 10.5 8t16 12t16 11.5t10.5 7.5q9 6 18.5 11.5t17.5 12.5q2 1 10.5 8t10.5 8q1 1 5 4.5t9 7l10 7t7 5.5q2 1 5.5 3.5
t5.5 4.5q2 1 11.5 6.5t11.5 6.5q8 5 17 12t14 15q1 2 2 3t1 2q0 2 -4 2q-11 3 -24 3q-11 0 -22.5 -1.5t-22.5 -1.5q-2 0 -12.5 -0.5t-12.5 -0.5q-4 0 -16 -1t-16 -2t-14.5 -2.5t-22.5 -3t-23 -3t-15 -1.5q-2 0 -10.5 -0.5t-10.5 -0.5h-7h-6h-3q-7 7 -7 17q0 2 0.5 6t4.5 4
l59 8l142 8q10 2 19 2q5 0 10 -0.5t10 -0.5q3 -1 10 -2t15 -2.5t15 -2.5t9 -2q5 0 10 -7q1 -2 1 -8q0 -8 -4.5 -13.5t-10.5 -9.5q-2 -2 -7.5 -5.5t-11 -7.5t-10 -7t-5.5 -4q-9 -7 -19 -10.5t-19 -10.5l-124 -84q-6 -4 -10 -9t-10 -9q-2 -2 -8.5 -5t-8.5 -4t-7.5 -4t-7.5 -5
l-2 -2q-1 -1 -2 -1t-1 -1q-1 -1 -2.5 -3t-3.5 -2q-2 -4 -2 -5q0 -2 1 -3q3 -1 11 -2l16 -2l16 -2t11 -1q5 -1 18 -2t16 -1l172 -6q1 0 4.5 -0.5t4.5 -0.5q2 0 8 -1t8 -1q9 -2 15.5 -5.5t6.5 -14.5q0 -9 -9 -12q-8 -2 -13 -2q-15 0 -28 4.5t-28 5.5l-219 9h-5v0z" />
    <glyph glyph-name="braceleft" unicode="{" horiz-adv-x="232" 
d="M53 -34q0 21 6.5 41t16.5 37l6 9t4 7l50 68q3 3 3 9t-5 9t-11.5 4.5t-13 1.5t-10.5 1q-3 1 -7 2.5t-6 4.5v1v22l3 1q3 0 11 1t17 2.5t17 2.5t11 1q14 2 28 7t26 13l3 3q19 17 31 39.5t12 48.5q0 14 -4.5 30t-11.5 29l-33 55q-13 23 -13 46q0 11 2.5 21t9.5 18
q24 32 53 56.5t65 43.5q2 0 6 2.5t6 2.5h1q5 0 9.5 -6.5t4.5 -10.5q0 -3 -2 -6q-4 -4 -8 -7.5t-8 -6.5q-2 -1 -6.5 -4.5t-6.5 -4.5q-1 0 -5 -2.5t-8.5 -5.5t-8.5 -5.5t-5 -2.5q-5 -4 -10.5 -7t-10.5 -7l-31 -33q-3 -3 -4.5 -6.5t-3.5 -6.5q-5 -10 -5 -26t8 -29q1 -3 5 -9.5
t8.5 -14t8 -14.5t4.5 -10q11 -17 17 -36t6 -39q0 -22 -7 -40t-19 -38q-1 -2 -4 -5t-3 -5q-2 -4 -8 -11t-7 -9q-10 -11 -23.5 -17t-27.5 -13v-1v-1q3 -9 3 -17q0 -12 -5 -21.5t-12 -17.5q-1 -1 -5 -6t-8.5 -10t-8.5 -10t-5 -6q0 -1 -3 -4l-6 -9l-9 -13.5l-9 -13.5l-6 -9
q-9 -14 -15 -28.5t-6 -29.5q0 -9 2.5 -18t5.5 -18q2 -7 5.5 -13t8.5 -13t10.5 -12.5l11.5 -11.5q1 -1 3 -2.5t3 -2.5q20 -16 44.5 -26t50.5 -16q8 -4 8.5 -9t0.5 -12v-8q0 -5 -5 -5h-7h-9h-3q-13 3 -23.5 10t-21.5 12q0 1 -4.5 2t-5.5 1q0 1 -3 2.5l-5 2.5q-1 0 -2 1
q-1 0 -1 1q-2 2 -9 6.5t-9 6.5q-7 5 -14.5 9.5t-14.5 10.5q-21 20 -32.5 44t-11.5 53z" />
    <glyph glyph-name="braceright" unicode="}" horiz-adv-x="275" 
d="M-54 -225q0 8 5.5 15t13.5 7h4q1 0 5.5 -1.5t6.5 -1.5q5 -1 9.5 -1h9.5q38 0 69 23q1 1 5.5 4.5t9.5 7.5t9.5 7.5t6.5 5.5q7 5 13.5 12t11.5 13q1 1 2.5 4.5t2.5 5.5q15 27 22 56.5t7 61.5q0 33 -8 68q0 2 -2 11t-3 13q-2 8 -4.5 14.5t-2.5 14.5q0 26 20 43t41 28v1v1
q-3 7 -9 12.5t-11.5 11.5t-10 12t-4.5 15q0 5 2 10t4 11q2 5 3 10t3 10q5 10 13 18t16 15l50 36q1 1 4.5 4t4.5 4q32 27 41 70q3 18 3 33q0 27 -8 57q-1 2 -3 9t-3 9q-1 1 -3.5 7t-3.5 9q-7 14 -17.5 25t-23.5 19q-3 1 -9.5 5t-14.5 8.5t-15 8t-10 5.5q-2 1 -7.5 4.5
t-7.5 5.5q-1 1 -1 3q0 5 6 12.5t10 7.5h1q29 -6 53 -20.5t44 -35.5q6 -8 11 -15.5t9 -16.5q1 -2 5.5 -10t4.5 -10q5 -9 8 -21q2 -3 2 -6.5t1 -8.5q0 -1 0.5 -6t0.5 -7q0 -3 1 -5v-3q0 -1 1 -2l1 -2v-15v-15q-1 -8 -2 -15t-3 -15q-1 -3 -3 -15t-3 -14q-3 -13 -8 -26t-14 -24
q-14 -17 -32 -27q-20 -13 -36 -24.5t-30 -30.5q-3 -4 -5.5 -8.5t-2.5 -9.5v-2q2 -11 12 -20.5t18 -14.5q1 -1 5.5 -4t9 -6.5t9 -6t5.5 -3.5q4 -2 7.5 -5t5.5 -7v-4q0 -6 -1 -8l-5 -5q-1 0 -2 -0.5t-2 -0.5q-17 -2 -33 -5.5t-32 -12.5l-4 -2t-3 -2t-4 -4.5t-5 -4.5
q-5 -6 -6.5 -13.5t-1.5 -14.5v-9q0 -2 1 -7.5t1 -7.5q1 -3 2 -10.5t2.5 -16t3 -16t1.5 -10.5q0 -2 0.5 -9t0.5 -9v-7v-8q-1 -22 -3.5 -44.5t-9.5 -43.5q-2 -2 -5 -9.5t-3 -9.5q-17 -37 -50 -67.5t-71 -42.5q-14 -4 -26.5 -5t-25.5 -2q-6 -2 -11.5 -4.5t-12.5 -3.5h-5h-5
q-3 0 -6 3q-7 5 -7 13z" />
    <glyph glyph-name="asciitilde" unicode="~" horiz-adv-x="390" 
d="M175 409q0 5 3.5 13t8.5 11q2 1 6 1q2 0 5.5 -1.5t5.5 -3.5v-9q0 -8 -1.5 -16t-1.5 -16q0 -13 6 -18l3 -3q14 6 26.5 14.5t23.5 17.5q16 14 33 28.5t35 25.5q8 3 15.5 5.5t15.5 2.5q16 0 28 -8.5t19 -22.5q1 -2 6 -11.5t6 -11.5q0 -3 3 -6q4 -5 9 -9.5t10 -9.5q2 -4 2 -7
q0 -5 -4 -17t-11 -12q-3 0 -7 4q-1 1 -3 5l-3 6q-1 1 -4 6.5l-6 11t-5.5 10.5t-3.5 6q-6 9 -12.5 17t-15.5 15q-6 3 -11 3q-8 0 -15.5 -4t-14.5 -9l-79 -64q-1 -2 -3 -3t-3 -2t-2 -1q-12 -8 -28 -8h-7q-5 1 -13 5q-9 9 -12 19q0 3 -1.5 11t-1.5 10t-0.5 3.5t-0.5 2.5v9v10z
" />
    <glyph glyph-name="Adieresis" unicode="&#xc4;" 
d="M279 -63l12 36l23 96q1 2 3.5 15t2.5 18q1 3 2 13t1 12v9v10h-1q-1 0 -2 1l-5 1h-34q-4 0 -14.5 -1t-22 -1.5t-22 -1.5t-14.5 -2h-5t-8.5 -0.5t-9 -0.5h-5.5q-2 0 -10 -0.5t-12 -0.5q-11 -1 -17 -4.5t-12 -11.5l-67 -98q-1 -2 -6.5 -9t-7.5 -10q-1 -1 -4 -5t-4 -6
q-7 -7 -12 -7q-15 0 -15 14v3l2 4q2 4 3 5l1 2l2 2q3 5 10 14.5t7 10.5l59 76q0 1 2.5 3.5t3.5 4.5q2 3 3 5.5t1 5.5v2q0 2 -1.5 5l-2.5 5q-1 0 -1 1v2v1q0 5 3.5 9t8.5 5q2 0 7.5 0.5t6.5 0.5q10 1 15 10l128 166q1 3 8.5 13t9.5 12q11 14 23.5 28t22.5 30q2 5 4.5 9.5
t3.5 9.5q2 7 1.5 11t5.5 9q2 2 5 2.5t5 0.5q11 0 15.5 -11.5t6.5 -20.5q3 -13 4 -27t1 -28v-11q0 -4 -0.5 -16t-1.5 -15q0 -4 -1 -11.5l-2 -15t-2 -14t-1 -8.5l-19 -95q0 -2 -0.5 -5t-0.5 -5q0 -7 6 -7h23q5 0 10 -3t6 -8v-5q0 -2 0.5 -3.5t-0.5 -3.5q-5 -9 -16.5 -11.5
t-19.5 -2.5h-9h-5h-1l-3 -4l-33 -189q-2 -11 -3 -19.5t-12 -13.5h-5q-7 0 -12.5 4.5t-5.5 11.5v3zM175 179q0 -6 5.5 -8t10.5 -2q8 0 15 1.5t15 2.5l108 5l5 5l25 151q0 2 1 14.5t1 18.5v10v12q-1 2 -1 4v5q0 2 -1 7t-4 5q-2 0 -5 -3l-174 -224q-1 -2 -1 -4zM276 506
q0 9 3.5 18.5t10.5 15.5q1 2 3.5 4t4.5 4q3 3 5 6h1h5q9 0 17 -3t8 -14q0 -4 -2 -7t-4 -8q0 -1 -1.5 -5.5t-1.5 -5.5q-2 -2 -3.5 -7t-3.5 -7l-3 -3t-4 -3q-4 -4 -8 -4.5t-9 -0.5t-11.5 3t-6.5 10v7zM403 499q1 8 6.5 17t11.5 14q6 3 11.5 6t13.5 3h3q1 -1 2 -1q1 -1 3 -1
q1 -1 2 -1q1 -1 2 -1q3 -8 3 -13v-6q0 -3 -1.5 -6l-2.5 -5q-8 -14 -18 -24q-3 -4 -8 -5h-4q-10 0 -17 4l-1 1q-6 7 -6 17v1z" />
    <glyph glyph-name="Aring" unicode="&#xc5;" 
d="M279 -62l11 33l26 106q0 2 2 14t4 19q1 7 1.5 13.5t0.5 14.5v7q-3 3 -8 3h-35q-4 0 -14.5 -1t-22 -1.5t-22 -1.5t-14.5 -2q-2 0 -14 -0.5t-15 -0.5q-2 0 -9.5 -0.5t-10.5 -0.5q-11 -1 -17.5 -5t-12.5 -12l-71 -104q-2 -2 -7 -9t-7 -9t-5.5 -6t-4.5 -5q-2 -1 -6 -1
q-6 0 -10.5 4t-4.5 10v1q2 6 4 10l5 7.5t4 5.5l72 95l5 5q2 3 3.5 6t1.5 6q0 5 -2.5 8t-2.5 8q0 12 9 13t17 2q10 2 13 8l130 170l13 20q2 2 7.5 8.5t11.5 14t11.5 14t8.5 9.5q6 7 10 14t8 15q2 5 2 15q2 13 17 13q8 0 12.5 -8.5t6.5 -15.5q3 -10 4.5 -20.5t2.5 -21.5v-21
v-19q0 -3 -1 -13.5t-1 -14.5q-1 -4 -2 -12t-2.5 -16.5t-2.5 -16t-1 -9.5q-1 -5 -3.5 -18t-5.5 -27.5t-5.5 -27l-3.5 -17.5v-7q0 -5 6 -5h24q5 0 10 -3.5t6 -8.5v-4v-4q0 -3 -3 -6q-7 -8 -17 -9.5t-18 -1.5h-8h-4h-1q-2 0 -3.5 -2t-1.5 -3l-32 -186q0 -2 -0.5 -7t-0.5 -7
q-2 -8 -4 -12.5t-10 -8.5h-5q-8 0 -13 4t-5 12v4zM175 179q0 -6 5.5 -8t10.5 -2q8 0 15 1.5t15 2.5l108 5l5 5l23 135q0 1 1 6.5t1.5 11.5t1 11.5t0.5 8.5v20v19q0 1 -0.5 3t-0.5 3q-1 2 -1.5 5.5t-3.5 3.5h-2l-4 -5l-173 -223q-1 0 -1 -1v-2zM283 520v8q0 7 4.5 16t9.5 14
q5 6 9.5 12t9.5 11q2 2 12 11.5t13 13.5q2 0 4.5 2.5l3.5 3.5q1 0 1 1l1 1q8 4 16 6.5t17 4.5q1 0 7 0.5t7 0.5q5 1 11 2t11 1q22 0 34 -14t12 -36q0 -19 -9 -33.5t-22 -27.5q-3 -2 -13 -9t-13 -9q-15 -10 -33 -17.5t-38 -7.5q-29 0 -49 23q-6 8 -6 14v8zM312 520
q0 -4 1 -8.5t4 -6.5h5q9 0 18 1.5t18 3.5q12 3 26 8.5t26 14t20 20t8 27.5q0 7 -2 9q-9 11 -18 11q-8 0 -12.5 -6t-12.5 -8q-5 0 -7.5 3t-7.5 3h-1q-1 -1 -2 -1q-1 -1 -2 -1q-7 -5 -13 -12.5t-14 -13.5l-7.5 -5t-6.5 -5q-8 -8 -14 -15.5t-6 -18.5z" />
    <glyph glyph-name="Ccedilla" unicode="&#xc7;" horiz-adv-x="570" 
d="M279 -211q0 6 3.5 13.5t9.5 9.5q22 8 40 16.5t33 25.5q8 8 11.5 17.5t5.5 18.5v3q0 7 -4 13q-2 5 -8 9q-2 2 -5.5 2.5t-6.5 1.5q-2 0 -12 1t-12 1q-9 2 -17.5 5.5t-13.5 11.5q-2 2 -3 6t-1 6q0 9 4.5 18l8.5 17l1 2l2 2l1 2h-3q-2 0 -4.5 1t-3.5 1q-4 1 -11.5 1.5
t-9.5 0.5t-11 0.5t-19.5 1t-19.5 1t-11 0.5q-12 1 -24 2.5t-23 6.5q-3 2 -15.5 7t-16.5 7q-12 4 -21 15q-1 1 -2 3t-2 2q-6 9 -12.5 17t-8.5 19q0 2 -1.5 12t-3.5 12q-2 7 -3 13.5t-2 12.5v15v14q0 1 1 7t1 9v2q0 1 1 2q5 23 13.5 43.5t19.5 40.5q27 51 64.5 92.5t85.5 71.5
q46 28 101 40q5 2 11.5 3t13.5 1q21 0 37.5 -13.5t24.5 -32.5q3 -8 5 -14t2 -14q0 -18 -12 -27q-1 -1 -6 -1t-6.5 0.5t-3.5 5.5q-2 3 -2 12v20v5q-2 5 -5 8.5t-7 7.5q-8 8 -19 10.5t-21 2.5t-19 -2.5t-17 -5.5q-41 -15 -75 -39q-17 -12 -32.5 -26t-30.5 -29q-2 -2 -9 -10.5
t-10 -12.5q-32 -38 -54.5 -84.5t-22.5 -99.5v-9q0 -11 4 -22t9 -20q6 -12 18 -22q25 -21 57.5 -27t64.5 -6q27 0 54 4t53 10q4 1 15.5 3.5t24 5.5t23.5 6t16 4q22 7 43 15t40 21q1 1 6 4t7 5l3 3l22 20q9 9 21 9h3q5 -2 7.5 -6.5t2.5 -9.5q0 -13 -9.5 -20.5t-19.5 -12.5
q-2 -1 -12 -5t-12 -5q-1 0 -2.5 -1t-2.5 -1q-2 -2 -11.5 -7t-11.5 -6q-17 -10 -35.5 -15.5t-38.5 -10.5q-5 -2 -8.5 -4.5t-8.5 -4.5q-2 0 -7.5 -1.5t-12 -3t-12 -3t-7.5 -2.5q-12 -3 -24 -9q-11 -6 -21.5 -17t-10.5 -23q0 -7 4 -9t9 -4q1 -1 9.5 -2t9.5 -2q8 -2 15 -5
q7 -6 13 -17.5t7 -20.5v-9v-10q0 -7 -2.5 -13t-4.5 -13q0 -1 -1 -2t-1 -2q-2 -6 -4.5 -11.5t-7.5 -10.5q-8 -11 -17 -19t-20 -16q-2 -1 -7.5 -3.5t-11.5 -5.5t-11 -6t-7 -4q-1 -1 -4 -2.5t-4 -2.5q-2 -1 -9 -1q-8 0 -14 3.5t-6 11.5z" />
    <glyph glyph-name="Eacute" unicode="&#xc9;" horiz-adv-x="495" 
d="M51 -16q2 4 4.5 14t3.5 11l53 157q0 2 1 4.5t1 3.5v5q0 6 -1.5 12t-1.5 12t4 7t9 3q6 2 9 6.5t5 10.5q1 4 5.5 18.5t6.5 18.5l39 110q1 1 2 4q1 2 1 4t1 4v3v2q0 4 -0.5 7t-0.5 6q0 7 7.5 13t13.5 9q2 2 5 3.5t6 1.5q5 0 8 -2.5t7 -4.5h27q1 0 7 -0.5t8 -0.5h6h6l145 13
q1 0 9.5 0.5t20 0.5t22.5 0.5t18 0.5h19h21q2 0 10 -0.5t11 -0.5h8.5t8.5 -2q7 -3 9 -9.5t2 -13.5v-6q-1 -4 -3.5 -7.5t-7.5 -3.5t-8 2.5t-7 4.5q-14 9 -31 9h-50l-216 -15h-35q0 -1 -1 -1t-2 -1q-3 -2 -3 -4l-60 -126q0 -2 -3 -9t-4 -10q0 -1 -1.5 -4.5t-1.5 -4.5
q-1 -2 -1 -5t4 -5h8h8q4 0 12.5 0.5t10.5 1.5l64 11l127 8h52h6q8 -2 16.5 -7t8.5 -16q0 -8 -7 -9t-13 -2h-14q-17 0 -33 1.5t-33 1.5h-16q-38 -2 -76 -5t-76 -9q-2 -1 -11 -2.5t-11 -2.5t-13 -3.5t-15 -3.5q-14 -5 -22 -23q-2 -5 -3.5 -10.5t-3.5 -10.5q-1 -2 -3 -9
t-4.5 -15t-4.5 -15.5t-2 -8.5q-2 -5 -4 -10.5t-3 -10.5q0 -1 -1 -8t-1 -9q0 -9 -5 -19q0 -2 -5 -13t-5 -13q-2 -5 -3.5 -9t-1.5 -9q0 -4 2 -5l3 -3q1 -1 2 -3h1l318 32q2 0 7 0.5t7 0.5h24h23q17 -2 17 -20q0 -6 -1 -8q-3 -5 -14.5 -6.5t-16.5 -1.5t-9.5 1.5l-10.5 3.5h-2
h-7h-6q-4 0 -14 -2t-14 -3h-4l-171 -10q-28 -9 -55.5 -14t-56.5 -7q-3 0 -13 -1t-12 -1h-13h-12q-6 2 -8 8.5t-2 13.5v9zM318 498q3 5 5 7q1 0 4.5 2t5.5 3q2 0 10.5 4t13.5 6q1 0 3 1t3 1q3 1 8 2.5t10 3.5t9 3.5t5 1.5t5.5 1l9 2t9 2.5t5.5 1.5q23 7 43.5 17t43.5 10h4
q9 -1 13 -3t4 -11q0 -7 -1.5 -10.5t-8.5 -5.5q-2 -1 -4.5 -1t-4.5 -1l-126 -42q-1 0 -5 -1.5t-9.5 -4t-11 -4.5t-8.5 -3q-2 -2 -10.5 -5t-10.5 -4h-7l-1 1q-1 0 -2 1l-2 3q0 2 -0.5 3.5t-0.5 3.5q-1 2 -1 5v5v5z" />
    <glyph glyph-name="Ntilde" unicode="&#xd1;" horiz-adv-x="417" 
d="M232 333q0 4 -1 6l-3 -3l-9 -17l-29 -59l-76 -198q-2 -4 -5 -14t-5 -14t-3.5 -8.5t-2.5 -9.5q0 -2 -1.5 -10t-1.5 -10q-1 -5 -3.5 -11.5t-8.5 -8.5h-3h-6h-2q-2 1 -7 6q-3 5 -3.5 10.5t-0.5 10.5v8t2 8v1q0 1 1 2q0 1 1 2l17 17q1 0 1 1t1 2l131 331q0 2 1.5 5t1.5 7v20
q2 11 8.5 14t15.5 3q5 0 10 -1t9 -6q1 -2 0.5 -2.5t-0.5 -2.5q0 -8 -3.5 -14t-3.5 -12v-2l37 -245l14 -66q0 -1 1.5 -8t3.5 -10q1 -1 1 -2q0 -3 1 -4l1 2l98 346q1 3 4 11.5t6 17.5t6 17.5t4 11.5q1 2 3.5 12l3.5 14q6 6 15 6q13 0 13 -16q0 -4 -0.5 -7.5t-2.5 -7.5l-29 -71
q0 -1 -2.5 -9.5t-6 -20t-6.5 -23.5l-5 -20q-3 -11 -5 -21t-4 -21q-1 -2 -2.5 -6.5t-2.5 -6.5q0 -2 -2.5 -8t-5 -13t-4.5 -13t-3 -8q-4 -12 -5 -25t-6 -26q-1 -3 -3.5 -10t-5.5 -14.5t-5 -14.5t-3 -10q0 -1 -1.5 -6t-3 -11t-3 -11t-1.5 -6q-1 -2 -5 -14.5t-5 -14.5
q-2 -5 -1.5 -9t-0.5 -9q-1 -4 -1.5 -14t-1.5 -13q-2 -10 -5.5 -21.5t-15.5 -11.5q-6 0 -10 5t-7 9q-5 7 -8 13.5t-6 14.5q-2 2 -2 6l-5 62zM259 539q1 7 5 15.5t12 8.5t13 -6v-7q0 -8 -1.5 -16t-1.5 -16q0 -5 1 -9q2 -8 7 -13h1q5 2 9 5t9 5q3 2 8.5 5.5t6.5 4.5l57 47
q1 1 5.5 4t6.5 5q10 7 21 13t24 6q15 0 27 -8t19 -20q1 -1 3 -5.5t4.5 -9t4.5 -8.5t2 -5t1 -2l2 -2q0 -1 1 -1l1 -1q0 -1 2.5 -3.5l4.5 -4.5q4 -3 8.5 -6.5t4.5 -9.5q0 -18 -14 -29q-1 -1 -3 -1q-4 0 -8 6l-24 47q-10 17 -26 27q-4 3 -6.5 3.5t-5.5 0.5q-8 0 -16 -4t-14 -8
l-82 -66q-13 -13 -32 -13h-7q-22 5 -25 25q-2 5 -3.5 15t-1.5 11v11v9z" />
    <glyph glyph-name="Odieresis" unicode="&#xd6;" horiz-adv-x="467" 
d="M49 41q0 25 13 54q1 3 4.5 10.5t7.5 16t7.5 15.5t4.5 10t5 10t8 14.5t8 14t6 9.5t7 11t11 17t11.5 16.5t7.5 10.5q1 3 6.5 10t11.5 15t11.5 15.5t8.5 10.5q0 1 4 5.5t9 10t10 11.5t8 9q1 1 3.5 4.5t3.5 4.5q3 3 8 7.5t10 9.5l8.5 8.5l4.5 4.5q2 2 11 10t12 11q2 1 7 5
t7 5q24 18 52 32t59 14q8 0 15 -2t12 -7q1 -2 4.5 -5t4.5 -5q1 -1 8 -9t8 -9q2 -3 7.5 -8t11 -11t11 -11.5l7.5 -7.5q5 -5 8 -10.5t7 -11.5q5 -11 6 -22.5t1 -22.5q0 -57 -28.5 -102.5t-69.5 -83.5q-2 -2 -10.5 -9t-10.5 -9t-7.5 -6.5t-11.5 -9t-11.5 -9t-7.5 -5.5t-9 -5.5
t-15 -10t-15 -10t-10 -6.5q-2 -1 -7.5 -4t-11.5 -6.5t-11.5 -6.5t-7.5 -4q-32 -18 -69.5 -31t-75.5 -13q-32 0 -55 13t-23 48zM76 41q0 -17 11 -23.5t26 -8.5h16h15q1 0 3.5 0.5t3.5 0.5q10 2 20 3.5t21 5.5q29 8 53 20q52 24 97.5 57t83.5 74q1 2 4.5 6t5.5 5q9 12 17.5 23
t15.5 25q9 17 15.5 36.5t6.5 39.5q0 26 -8.5 45.5t-30.5 33.5q-5 2 -17.5 10.5t-16.5 10.5q-5 3 -10 3q-4 0 -7.5 -1t-7.5 -1q-7 0 -10.5 5t-10.5 5q-3 0 -11 -4q-2 0 -5.5 -2t-4.5 -3q-2 -1 -7.5 -4.5t-7.5 -3.5q-2 -1 -7 -4t-10 -7t-10 -7.5t-7 -4.5q-1 -1 -6 -4t-7 -5
l-1 -1q-1 0 -1 -1q-1 -1 -3 -3.5t-3 -3.5q-3 -4 -6.5 -6t-6.5 -6q-2 -1 -9 -8.5t-9 -9.5q-8 -8 -16.5 -16t-15.5 -17q-3 -3 -7.5 -8l-9 -10t-8 -9.5t-4.5 -5.5l-35 -49q-2 -3 -6 -10t-9 -15t-9.5 -15.5t-6.5 -10.5l-4 -8t-7 -12.5t-7.5 -12.5t-4.5 -9q-2 -2 -5 -11.5
t-5 -13.5q-1 -2 -3.5 -8t-3.5 -8q-2 -10 -4.5 -19.5t-2.5 -18.5zM474 476q-4 3 -5 8q-1 0 -1 2q0 1 -1 2v13q1 0 1 1t1 2q4 7 7 12.5t8 10.5l14 7h1q1 0 1 0.5t1 0.5t3 1h5h2q1 0 3 -1t3 -1l2 -1h2l1 -1q4 -8 4 -13q0 -7 -2.5 -13t-6.5 -11q-2 -2 -7 -8.5t-7 -8.5
q-4 -4 -8 -5h-5h-5h-3q-1 1 -4 2t-4 1zM317 502q0 17 11 33q1 0 1.5 1t1.5 1l6.5 6.5t6.5 5.5q1 0 1 1l1 1h5q8 0 11 -1q13 -3 13 -15q0 -4 -1 -7l-2 -4q-1 -1 -1 -3v-1q-1 -1 -3.5 -8t-3.5 -9q-7 -20 -28 -20h-6q-2 0 -4 1.5t-3 1.5q-5 3 -5.5 7t-0.5 9z" />
    <glyph glyph-name="Udieresis" unicode="&#xdc;" horiz-adv-x="445" 
d="M70 -30q0 32 7 61q1 3 2.5 9t2.5 8l150 411q1 2 5 11t6 13q1 2 2.5 6t2.5 5q2 3 4.5 3.5t4.5 0.5q8 0 13.5 -4t5.5 -12q0 -7 -6 -15l-32 -66l-51 -127l-13 -39q-2 -4 -5.5 -12.5t-8 -18.5t-8 -18.5t-4.5 -11.5q-2 -5 -6.5 -16.5t-5.5 -13.5l-28 -92v-3q-1 -4 -2 -9t-1 -6
l-6 -56v-2q0 -4 4 -5.5t7 -1.5q10 0 17.5 5.5t15.5 10.5q30 23 58 54q2 1 7 6l10 10t9 10t5 7q3 3 7.5 9t10 13t9.5 13t6 8q2 3 8 11t12 17.5t12 18t8 11.5q1 1 5 7.5t8.5 14t9 14.5t6.5 11q1 2 6 11.5t7 13.5q1 3 4 9t6.5 12.5t6 12t3.5 7.5q2 2 6.5 13t5.5 15q2 4 5.5 14
t4.5 12l28 103q1 1 3 7.5t3 9.5q4 10 9.5 19.5t16.5 9.5t14 -8v-8q0 -17 -8 -36q-1 -3 -4 -10t-7 -15t-7 -15t-4 -10q-4 -8 -5 -16t-3 -18q-1 -2 -1.5 -5t-2.5 -5q-1 -1 -2.5 -3t-1.5 -3l-1 -1q-13 -32 -19.5 -63.5t-14.5 -63.5q-1 -4 -4 -13.5t-6 -20.5t-6 -21t-4 -14
q0 -5 -2.5 -17t-2.5 -16q-1 -2 -3 -11t-3 -11q-2 -6 -2 -13l-1 -7q0 -1 -2 -5q-1 -2 -1 -5q-2 -10 -4 -19.5t-2 -19.5q0 -11 2.5 -22.5t2.5 -22.5q0 -8 -7.5 -11.5t-14.5 -3.5q-12 0 -15 8.5t-3 18.5v8q0 2 1 9t2 9l42 186l-68 -98q-1 -3 -6.5 -10t-12.5 -16t-13.5 -17
t-9.5 -12q-3 -3 -10.5 -11.5t-16 -18t-16.5 -18.5t-11 -12q-17 -17 -37 -32t-46 -15q-11 0 -21 6t-11 18v11zM426 539q0 5 1 8q2 6 6 12.5t10 11.5l2 1q5 3 11 6t12 3q4 0 6.5 -1l7.5 -3q2 -4 2.5 -6.5t0.5 -7.5q0 -11 -7 -20.5t-14 -17.5q-1 0 -3 -2.5t-3 -2.5q-2 -2 -4 -2
h-4q-5 0 -8 0.5t-7 2.5q-5 2 -7 8t-2 10zM276 547q0 14 7.5 26t17.5 21q1 0 4 3h6q7 0 11.5 -1.5t9.5 -6.5q3 -3 3 -10v-5q-1 -2 -2 -3t-1 -2v-1q-1 -2 -4.5 -11t-4.5 -11q-8 -18 -27 -18q-20 0 -20 19z" />
    <glyph glyph-name="aacute" unicode="&#xe1;" horiz-adv-x="378" 
d="M251 -48q0 13 7.5 19.5t14.5 17.5q12 20 22 40t19 41q4 9 7 18.5t3 19.5q0 7 -1 12t-3 10q-5 15 -14.5 27.5t-26.5 12.5q-11 0 -21.5 -3t-19.5 -6q-29 -11 -56.5 -26.5t-51.5 -35.5q-9 -7 -17 -15.5t-16 -16.5q-2 -2 -5.5 -6.5t-5.5 -6.5q-1 -1 -4.5 -6.5t-5.5 -7.5
t-2 -4q-5 -8 -8 -15.5t-3 -16.5v-5q0 -2 1 -3.5t2 -3.5q7 -8 17 -9.5t19 -1.5q13 0 26 1.5t24 6.5q3 1 10.5 3t15.5 4.5t15 4.5t9 3q3 2 13.5 6t14.5 6q2 0 5.5 2t4.5 3q7 4 11 11.5t12 10.5h5h5q8 -1 11 -6.5t3 -12.5t-9 -14q-4 -3 -7.5 -5.5t-7.5 -4.5q-19 -10 -37.5 -17
t-38.5 -14q-1 0 -6 -1.5t-11 -3t-12.5 -3t-9.5 -2.5q-20 -6 -39 -6q-16 0 -31.5 3.5t-28.5 11.5q-7 5 -11.5 13t-4.5 18v4q0 1 1 7t2 9q0 1 0.5 3t0.5 3q31 59 82.5 101.5t114.5 61.5q2 0 6 1.5t5 1.5q9 2 19 4t19 2q13 0 23.5 -6.5t19.5 -16.5l3 -3l1 -2q1 -2 5.5 -10.5
t5.5 -10.5q0 -4 2 -4l1 -1q1 0 2 2t2 3q6 11 9.5 23t6.5 25q1 3 3 15t3 17q0 2 0.5 7t0.5 7v4q0 13 -6.5 22.5t-16.5 14.5t-22 7.5t-23 2.5q-32 0 -62.5 -12.5t-56.5 -31.5q-10 -7 -19 -15l-18 -16q-1 -1 -6 -1q-11 0 -11 14q0 12 10.5 22.5t19.5 16.5q18 11 38 19.5
t40 16.5q17 6 32.5 10.5t32.5 4.5q37 0 65.5 -20t28.5 -59q0 -13 -2.5 -25t-5.5 -23q-4 -15 -8.5 -29.5t-10.5 -28.5q-2 -5 -7.5 -17.5t-12 -27t-12 -27t-7.5 -16.5q-3 -5 -8.5 -16.5t-12 -24.5t-12 -25t-8.5 -16q-2 -4 -3 -10t-2.5 -11t-4.5 -9t-10 -4q-19 0 -19 20z
M226 387q0 9 4 12q17 10 35.5 16t36.5 12q1 0 5.5 1.5t9.5 3t9 3t5 1.5q22 6 43 15.5t44 9.5h5q8 0 12 -2t4 -10q0 -11 -4.5 -14t-15.5 -5l-124 -43q-2 0 -11.5 -3.5t-12.5 -4.5q-4 -2 -16 -6.5t-15 -6.5h-8q-3 0 -3 3q-1 5 -2 9t-1 9z" />
    <glyph glyph-name="agrave" unicode="&#xe0;" horiz-adv-x="378" 
d="M252 -49q0 5 1 9.5t4 8.5q1 2 6 6.5t6 5.5q0 1 2 3.5t3 4.5q11 20 21.5 39.5t18.5 41.5q10 20 10 38q0 14 -4 22q-4 15 -14 27.5t-27 12.5q-10 0 -20.5 -3t-20.5 -6q-41 -15 -76 -39t-65 -55q-1 -1 -4.5 -6t-5.5 -7q-6 -8 -11 -15.5t-9 -15.5q-2 -5 -3 -9.5t-1 -9.5v-5
q0 -2 1 -3.5t2 -3.5q7 -8 17 -9.5t19 -1.5h10q1 0 9.5 1t12.5 2q1 0 2.5 0.5t2.5 0.5q5 1 16 4t13 4q2 0 8.5 2.5t14 5l15 5t11.5 4.5q2 1 7 3t7 3q2 0 5 2t4 3q7 4 11 11.5t12 10.5h5h6q6 -1 10 -6.5t4 -12.5q0 -5 -3 -8t-7 -6q-3 -3 -7 -5.5t-8 -4.5q-18 -10 -36.5 -17
t-38.5 -14q-3 -1 -18 -4.5t-22 -5.5q-18 -6 -39 -6q-16 0 -31 3.5t-28 11.5q-7 5 -12 13t-5 18v4q0 1 1.5 7t1.5 9q0 1 1 3t1 3v1q8 12 14.5 23.5t14.5 22.5q33 41 75 71t92 45q2 0 6 1.5t6 1.5q8 2 18.5 4t19.5 2q13 0 23 -6.5t19 -16.5l3 -3l1 -2q1 -2 5.5 -10.5
t5.5 -10.5q0 -1 1 -2q0 -1 1 -2l1 -1h1q7 7 9 16q10 29 14 55q2 8 3 16t1 17q0 13 -6.5 22t-16.5 14t-22 7.5t-23 2.5q-36 0 -73 -16q-23 -11 -43.5 -26t-40.5 -33q-1 -1 -6 -1q-11 0 -11 14q0 13 11.5 23.5t21.5 16.5q17 12 36 19.5t39 15.5q17 6 33 10.5t33 4.5
q37 0 65 -20t28 -59q0 -24 -8 -48q-1 -5 -4 -17t-5 -15q-1 -3 -3.5 -9.5t-5.5 -14t-5.5 -14t-3.5 -8.5q-2 -4 -6 -13.5t-9.5 -21t-10 -21.5t-6.5 -14t-8 -15.5t-12 -24t-12 -24.5l-8 -16t-2.5 -10t-2 -11t-4.5 -9t-10 -4q-19 0 -19 19zM303 446l-3.5 3t-8 6.5t-9.5 7.5t-8 7
q-1 1 -6.5 5t-6.5 5q-4 3 -4 8v3q2 2 6.5 5.5t5.5 4.5q7 6 13 6q2 0 3.5 -1t3.5 -2q2 -2 8.5 -7.5t8.5 -6.5q14 -12 26 -25.5t26 -26.5q2 -3 8.5 -9.5l8.5 -8.5q2 -1 7.5 -5.5t6.5 -5.5q8 -8 14 -22q1 -2 2 -5t1 -7v-3q-4 -3 -7.5 -5.5t-8.5 -2.5h-3t-3 2q-1 1 -2.5 3
t-3.5 2q0 1 -3 4z" />
    <glyph glyph-name="glyph103" horiz-adv-x="391" 
d="M29 92q1 10 6 22.5t8 20.5q19 33 44 60.5t54 51.5q10 8 21 16t22 15q22 14 43 21.5t47 7.5q11 0 20 -2t17 -9q2 -2 4.5 -4t2.5 -3q0 -2 1 -3q0 -1 0.5 -1t0.5 -1t1 -1l1 1q1 2 3.5 6t4.5 6q4 5 6 7t10 2h5q10 -3 10 -14q0 -2 -0.5 -6t-2.5 -7q-5 -8 -8 -16t-7 -17
l-22 -69q-1 -3 -3.5 -10t-5.5 -15t-5.5 -14.5t-3.5 -9.5q-2 -4 -3.5 -7.5t-1.5 -8.5q0 -3 1.5 -6t1.5 -5q0 -6 -3 -9t-5 -8q-3 -6 -5 -10.5t-4 -10.5q-1 -5 -5.5 -19.5t-5.5 -18.5q-2 -6 -5 -10.5t-10 -4.5q-8 0 -12 5.5t-4 12.5v4v4q1 2 3 7.5t3 7.5v2q0 4 -3 4q-2 0 -3 -1
q-2 -2 -7.5 -5.5t-12.5 -8t-13 -8.5t-8 -5q-2 -2 -8.5 -5.5t-9.5 -5.5q-20 -11 -39.5 -16t-41.5 -5h-12q-8 0 -17 4.5t-16 9.5q-2 2 -7 7.5t-7 6.5q-6 8 -8 18.5t-4 19.5q-1 2 -1.5 6t-0.5 5v10v9zM54 74v-6.5t1 -7.5q4 -11 10.5 -21t18.5 -15q15 -5 28 -5q17 0 33 7t32 15
q16 9 30 18.5t28 22.5h2q2 1 7.5 3.5t7.5 3.5q6 5 10 13.5t8 14.5q11 22 18 44.5t13 45.5q2 11 3.5 22t1.5 22v10q-1 3 -1.5 7t-2.5 6q-3 2 -5 4t-6 4h-7q-11 0 -23 -3q-5 -2 -11 -2t-11 -2q-13 -4 -23.5 -10t-20.5 -13q-3 -2 -12.5 -8.5t-13.5 -8.5q-2 -2 -9 -7t-9 -7
q-17 -15 -33 -31t-31 -35q-8 -11 -14.5 -23t-11.5 -23q-7 -19 -7 -35z" />
    <glyph glyph-name="glyph104" horiz-adv-x="393" 
d="M18 8q0 21 8 41.5t20.5 38.5t28.5 33.5t32 26.5q2 1 6.5 4.5t6.5 5.5q8 5 16 8t16 8l2 1q1 0 2 1t5.5 4t5.5 3q1 3 5 3h4q2 0 3 1q1 0 2.5 1.5t2.5 1.5q5 2 9 4t9 4l80 24q2 1 4.5 2t4.5 2q7 2 11 7q3 5 4 10.5t3 11.5q0 1 1.5 7t2.5 12t2.5 11.5t1.5 6.5q2 11 6.5 20.5
t7.5 20.5q2 9 2.5 18.5t5.5 17.5q1 2 6 2q14 0 14 -15q0 -16 -6 -29q0 -2 -2.5 -10t-5.5 -17l-5.5 -16.5t-3.5 -9.5q0 -2 -1.5 -7.5t-1.5 -7.5q-1 -3 -2 -9.5t-2.5 -13.5t-2.5 -13.5t-1 -9.5q-2 -7 -6 -7q-51 -5 -99 -22t-92 -45q-33 -20 -60 -50q-1 -1 -3.5 -4t-4.5 -5
q-15 -20 -20.5 -36.5t-5.5 -41.5q0 -26 11.5 -44t30 -29.5t41 -17t45.5 -5.5q31 0 59.5 8t56.5 19q1 0 3.5 1.5t4.5 3.5l2 1q1 0 1 1q1 1 5.5 4t10 6.5t10.5 6.5t6 4q2 0 4 1.5t5 1.5q5 0 8.5 -3t3.5 -7t-1 -7q-2 -2 -4 -3.5t-4 -3.5q-49 -35 -111 -47q-27 -7 -56 -7h-15
q-8 0 -16.5 2t-17.5 5q-11 2 -20.5 6.5t-19.5 9.5q-27 16 -43 41.5t-16 57.5zM344 415q0 9 6 14q2 2 5.5 6t5.5 6q5 5 13.5 9t16.5 4h4q2 -2 4 -2q2 -2 2 -4v-4q0 -11 -11 -22.5t-20 -17.5q-3 -2 -5 -3.5t-6 -1.5q-15 0 -15 16z" />
    <glyph glyph-name="glyph105" horiz-adv-x="241" 
d="M136 131l48 146q1 2 4 13.5t5 16.5q0 2 2.5 13t2.5 13q1 2 1.5 4t1.5 4q4 4 10.5 6t11.5 2h2q2 -2 3.5 -7t1.5 -7v-2q0 -2 -1 -5.5t-2 -4.5l-173 -488l-4 -12q0 -2 -5 -2h-4q-5 0 -8 1q-3 3 -5.5 6t-2.5 8zM19 435q0 8 6 13t14 5q7 0 11 -9q2 -2 1.5 -3.5t-0.5 -4.5
q0 -7 -4 -14t-11 -7q-8 0 -12.5 6.5t-4.5 13.5z" />
    <glyph glyph-name="glyph106" horiz-adv-x="114" 
d="M28 415q0 9 6 14q2 2 5.5 6t5.5 6q5 5 13.5 9t16.5 4h4q2 -2 4 -2q2 -2 2 -4v-4q0 -11 -11 -22.5t-20 -17.5q-3 -2 -5 -3.5t-6 -1.5q-15 0 -15 16z" />
    <glyph glyph-name="glyph107" horiz-adv-x="119" 
d="M36 229q2 8 8 12t13 4q12 0 20 -8.5t8 -19.5v-5l-1 -1q0 -1 -1 -1q-5 -8 -13.5 -10t-15.5 -2q-6 0 -10 3q-1 1 -2 3t-3 2q-2 3 -2.5 7t-0.5 9v7z" />
    <glyph glyph-name="glyph108" horiz-adv-x="153" 
d="M26 -39q0 7 5 11.5t10 9.5q3 3 14 11.5t15 12.5q11 8 19 19t8 25q0 8 -4.5 14t-10.5 11q-5 5 -11 10.5t-6 14.5q0 2 1.5 7t4.5 6h3h3q1 0 4.5 -1.5t5.5 -1.5q0 -1 1 -1q1 -1 2 -1q15 -9 25.5 -22.5t10.5 -31.5q0 -29 -17.5 -54t-42.5 -40q-1 0 -5 -2l-6 -3l-1 -1
q-1 -1 -4.5 -2.5t-4.5 -1.5q-3 -3 -6 -3q-5 2 -9 5.5t-4 8.5z" />
    <glyph glyph-name="glyph109" horiz-adv-x="218" 
d="M21 -109q0 5 3 7q5 7 11 12t11 8l45 22q1 0 3 2t4 3q9 7 17 13.5t16 15.5q15 15 21 35q2 5 2 10.5v10.5v9v4.5t-1 4.5q-4 20 -15 37t-24 32q-2 2 -1.5 4t0.5 3q0 11 5 14t14 3q5 0 10 -3.5t9 -6.5q21 -14 30 -39t9 -51q0 -38 -22 -76q-5 -8 -13 -16l-16 -16q-1 0 -2 -1.5
t-2 -1.5t-8 -5t-8 -7q-1 -1 -5.5 -4t-10 -7t-10.5 -7.5t-6 -4.5q-10 -8 -22 -13.5t-25 -5.5q-6 0 -12.5 4.5t-6.5 10.5z" />
    <glyph glyph-name="glyph110" horiz-adv-x="183" 
d="M26 -106q0 6 2 8q10 11 22.5 18.5t24.5 14.5q25 15 36 36t11 49v11v7q-4 24 -20 47q-5 5 -8.5 9.5t-8.5 9.5q-1 1 -3.5 3t-3.5 3q-5 4 -8.5 6.5t-3.5 7.5q0 2 2.5 8.5t6.5 6.5q3 0 7 -2q2 0 4 -0.5t3 -0.5q10 -2 17.5 -8t13.5 -12q1 -1 6 -7t7 -9q4 -4 6.5 -9l4.5 -9
q5 -13 7.5 -26.5t2.5 -26.5q0 -14 -1.5 -27t-6.5 -25q-2 -3 -7.5 -15.5t-7.5 -16.5q-4 -8 -8 -14.5t-11 -11.5q-3 -2 -7 -4t-6 -4q-11 -8 -21.5 -16.5t-22.5 -13.5q0 -1 -1 -1h-2q-1 0 -1 -0.5t-1 -0.5h-1h-13l-2 1q-8 6 -8 14z" />
    <glyph glyph-name="glyph111" horiz-adv-x="186" 
d="M16 12q0 6 4 14l95 244l21 72q0 1 2.5 5t3.5 6q2 2 4.5 5.5t6.5 3.5h1l2 -1l5 -1q7 -4 7 -14q0 -8 -1.5 -13t-3.5 -11q-1 -1 -4 -6.5t-4 -7.5l-1 -2l-84 -220v-6.5t-2 -7.5l-1 -2q-1 -3 -2 -5q-1 -1 -1 -3q0 -1 -1 -2l-1 -2q0 -2 -1 -6.5t-1 -5.5q-1 -2 -2.5 -9.5
t-2.5 -9.5q-2 -10 -6.5 -22t-16.5 -12q-7 0 -11.5 5.5t-4.5 13.5z" />
    <glyph glyph-name="glyph112" horiz-adv-x="285" 
d="M84 412h-11t-11 -2q-5 -1 -10.5 -1.5t-10.5 -0.5q-9 0 -16 7q-1 2 -1 6q0 12 13 14q3 0 13.5 1t14.5 2q1 0 6 0.5t10 1.5t10 1.5t6 0.5h12h13q5 0 17.5 -0.5t15.5 -1.5l86 -12q5 -1 7 -5.5t2 -8.5q0 -7 -3.5 -13.5t-11.5 -6.5h-3q-33 7 -66 12.5t-67 5.5h-15z" />
    <glyph glyph-name="glyph113" horiz-adv-x="112" 
d="M39 414q0 6 0.5 11.5t4.5 10.5q1 2 2.5 1.5t2.5 -0.5q8 0 15.5 -2t12.5 -9q2 -4 2 -12v-5l-1 -2q-10 -13 -25 -13q-14 0 -14 13v7v0z" />
    <glyph glyph-name="glyph114" horiz-adv-x="453" 
d="M250 92q0 2 1.5 4t1.5 4h-11q-5 0 -11.5 -2t-11.5 -4q-2 -1 -6.5 -3t-9.5 -4t-9.5 -4t-5.5 -3q-11 -5 -21 -6.5t-23 -1.5q-8 0 -16.5 0.5t-16.5 0.5h-2q-5 0 -11.5 -0.5t-11.5 -2.5q-6 -3 -10 -10.5l-8 -15t-8.5 -13t-11.5 -5.5q-19 0 -19 19q0 13 4.5 18.5t11.5 13.5
q2 1 5.5 5t4.5 5q4 3 5 7.5t2 7.5q0 2 1 6t1 5v46q0 3 1 6q1 2 1 4t1 4q0 2 0.5 3.5t0.5 2.5q4 11 9 22t10 21q2 4 8 13.5t7 11.5q4 7 13 20.5l11 16.5l45 54q-2 12 -7 23t-10 21q-5 8 -10 14.5t-10 15.5q-2 2 -4 8q-1 3 -2 5v12l1 2q5 6 13 6q6 0 11.5 -2t9.5 -7
q1 -2 5.5 -9.5t4.5 -9.5q2 -2 6.5 -8.5t9 -13.5t8.5 -13.5t6 -9.5q14 5 27.5 12.5t27.5 14.5q11 5 26 5h7q7 -1 13 -4t11 -6q2 -2 9.5 -7l10.5 -7l2 2q1 1 2 1t2 1t5.5 6.5t10.5 11t11 10.5l6 6t4.5 5t5.5 5q6 4 13 9t15 5q3 0 5 -1.5t5 -3.5q2 -5 2 -13q0 -3 0.5 -5.5
t-0.5 -4.5q-2 -3 -5 -5.5t-5 -4.5q-1 -2 -9 -7t-8 -6q-2 -1 -5 -4t-4 -3q-8 -6 -10 -11.5t-3 -14.5v-15v-4q0 -15 1 -30.5t1 -31.5q0 -24 -5 -43.5t-19 -39.5q-2 -1 -4 -4.5t-3 -5.5q-2 -1 -3 -2.5t-3 -3.5q-2 -3 -4 -5l-59 -57q0 -1 -2 -3t-2 -3l-1 -2q5 -3 9.5 -6t6.5 -9
q1 -1 1 -6t1 -7q0 -1 2 -5.5t3.5 -9t3.5 -9t2 -5.5q2 -6 2 -10.5v-11.5v-9v-4q-2 -8 -5.5 -10t-9.5 -2q-3 0 -6.5 0.5t-5.5 2.5q0 1 -1 2l-2 2q-7 12 -9.5 23.5t-6.5 25.5q-1 8 -4 15.5t-3 16.5zM87 147q0 -8 5 -14t10 -11l2 -2q1 -1 2 -1l2 -1q1 -1 2 -1q1 -1 6 -4.5
t6 -4.5q2 -3 8 -5h14q54 0 100.5 27.5t77.5 71.5q2 2 6.5 8t5.5 7q16 29 16 63q0 10 -1 19.5t-3 20.5q-2 8 -8.5 11t-12.5 7q-2 1 -4 3l-4 4l-3.5 3.5t-3.5 2.5q-6 9 -11.5 15.5t-16.5 6.5q-5 0 -8.5 -1t-6.5 -2q-4 -2 -10.5 -6t-8.5 -5q-49 -31 -86.5 -77.5t-60.5 -98.5
q-1 -2 -5.5 -12t-6.5 -15q-1 -1 -1 -3q0 -1 -1 -2v-4z" />
    <glyph glyph-name="glyph115" horiz-adv-x="381" 
d="M31 173v10q0 1 0.5 3t0.5 4q5 20 9 41.5t13 41.5q12 23 26.5 46t31.5 44q8 10 16 18.5t18 17.5q5 5 11.5 9.5t11.5 8.5q14 10 31.5 18.5t35.5 8.5q23 0 37 -17q0 -1 1 -2l2 -2q8 -13 11 -27t3 -28q0 -9 -1 -18.5t-3 -19.5q0 -2 -2 -7t-2 -6q-2 -7 -9 -7q-12 0 -17 8.5
t-5 19.5q0 14 3 25.5t3 22.5q0 8 -1.5 14.5t-8.5 11.5l-5 2h-4q-6 0 -11.5 -2.5t-11.5 -4.5q-7 -2 -12.5 -4t-11.5 -6h-2q-4 -4 -11 -9.5t-8 -5.5q-22 -18 -42.5 -39t-36 -46t-25 -52t-9.5 -57q0 -11 1.5 -24.5t11.5 -21.5q8 -7 17.5 -8.5t18.5 -1.5q14 0 28.5 2.5t29.5 6.5
q26 7 53 20q23 9 43 21l40 24q2 1 6.5 4t10 6.5t10 6.5t6.5 4q4 3 8 3q5 0 7 -1q4 -3 7 -8t3 -11q0 -7 -8 -13l-110 -55q-1 -1 -6.5 -3.5t-12.5 -5.5t-13.5 -5.5t-9.5 -3.5q-2 0 -11 -3.5t-11 -3.5q-15 -5 -30 -8.5t-29 -3.5q-30 0 -55 14t-31 45v9z" />
    <glyph glyph-name="uni00A0" unicode="&#xa0;" horiz-adv-x="0" 
d="M0 69v10q0 1 0.5 2.5t0.5 3.5q4 22 8.5 42.5t14.5 40.5q22 49 56 90q8 11 16.5 19.5t19.5 16.5q5 5 11 9.5t11 9.5q14 10 31.5 18t36.5 8q22 0 35 -17l4 -4q15 -26 15 -55q0 -9 -1.5 -18.5t-3.5 -19.5q0 -2 -2 -7t-2 -6q-2 -6 -10 -6q-12 0 -16.5 8.5t-4.5 19.5
q0 13 2.5 24.5t2.5 23.5q0 7 -1 13.5t-8 10.5q-3 3 -6 3h-3q-6 0 -11 -2.5t-11 -4.5q-7 -2 -13 -3.5t-12 -5.5l-1 -1q0 -1 -1 -1q-4 -2 -11.5 -7t-7.5 -6q-22 -18 -42 -39.5t-35.5 -46.5t-25 -52t-9.5 -57q0 -11 1.5 -24t11.5 -20q7 -8 16 -9.5t19 -1.5q15 0 29 3t28 7
q14 2 27.5 7t27.5 10q21 10 41.5 22t41.5 25q1 1 5.5 4t9.5 6.5t10 6.5t7 4t3.5 1.5t3.5 0.5q5 0 7 -1q11 -7 11 -18q0 -9 -9 -14l-109 -53q-1 -1 -6.5 -3.5t-12.5 -5.5t-13.5 -6t-9.5 -4q-2 -1 -11 -4t-12 -5q-14 -4 -29 -7.5t-29 -3.5q-30 0 -55.5 14.5t-30.5 44.5v10z
" />
    <glyph glyph-name="acircumflex" unicode="&#xe2;" horiz-adv-x="378" 
d="M251 -30q0 5 1 10.5t5 10.5q1 1 5.5 5t5.5 6q2 2 2 3q11 19 21.5 38t18.5 39q3 8 5.5 14t4.5 14q3 10 3 17q0 14 -5.5 29t-16.5 25q-9 8 -24 8q-10 0 -20.5 -3t-21.5 -7q-12 -5 -23.5 -10t-23.5 -11q-17 -9 -31 -19t-28 -21q-2 -1 -6 -4.5t-5 -5.5q-15 -14 -28.5 -29.5
t-22.5 -35.5q-2 -4 -3.5 -9t-1.5 -10v-5v-1q0 -1 1 -2q5 -11 17 -12.5t23 -1.5q26 0 50 7q3 1 11 3.5t16.5 5t16.5 5t11 3.5q2 1 7.5 3t7.5 4l10 4t8 4l3 2q0 2 4.5 7t5.5 7q3 4 6 4.5t7 0.5q19 0 19 -19q0 -7 -8 -13t-13 -9q-1 0 -5 -2q-2 -1 -3 -2q-26 -13 -52 -21.5
t-54 -16.5q-1 -1 -9 -2t-12 -3q-6 -2 -12 -2h-11q-18 0 -36.5 4.5t-30.5 19.5q-7 10 -7 23v5l3 15q0 6 5 14q29 51 74.5 90.5t102.5 59.5q12 3 25 6t26 5h3q1 0 2 1h8h7q5 0 9 -1.5t7 -3.5q8 -4 14.5 -9.5t10.5 -13.5q2 -3 6 -12t6 -11l1 -1q3 2 4.5 5.5t3.5 6.5q0 1 1 2
t1 2q11 32 15 64q3 12 3 24q0 16 -11 26.5t-26 14.5q-16 4 -33 4q-45 0 -84 -22.5t-72 -52.5q-1 0 -1.5 -0.5t-2.5 -0.5q-8 0 -12 9v6v5q0 2 1.5 4.5t3.5 4.5q3 6 7.5 10t9.5 9q22 13 47 25q2 1 7 3t6 3q3 1 8 3t10.5 4.5t10 4t6.5 2.5q14 5 28.5 8.5t28.5 3.5
q36 0 64 -20.5t28 -58.5q0 -17 -3.5 -34t-8.5 -32q-2 -7 -6.5 -21t-5.5 -16l-32 -73l-49 -99q-2 -4 -3 -10t-2.5 -11.5t-5 -9.5t-10.5 -4q-18 0 -18 18zM378 444q-11 -2 -22 -7t-20 -10q-3 -2 -11.5 -7t-18 -10.5t-18 -10.5t-11.5 -7q-3 -1 -10.5 -4.5t-9.5 -4.5t-10 -3.5
t-10 -3.5l-2 -2q-1 -1 -2 -1h-1h-4q-8 0 -9 4.5t-1 11.5v5v2l1 1q5 5 9.5 6t9.5 3q5 1 8.5 2.5t6.5 3.5l85 46q11 4 22 10t23 6h8t8 -3q4 -5 5 -10l2 -10q1 -10 1.5 -19t4.5 -19q4 -8 10 -14.5t11 -14.5q1 -2 2.5 -4t1.5 -5q0 -4 -3.5 -4.5t-7.5 -0.5h-5t-6 1
q-11 7 -17.5 19.5t-10.5 23.5q-2 4 -4.5 15t-3.5 15h-1z" />
    <glyph glyph-name="adieresis" unicode="&#xe4;" horiz-adv-x="378" 
d="M251 -30q0 5 1 10.5t5 10.5q1 1 5.5 5t5.5 6q2 2 2 3q13 22 24.5 43.5t20.5 44.5q3 8 5.5 17t2.5 17q0 14 -5.5 29t-16.5 25q-9 8 -24 8q-10 0 -20.5 -3t-21.5 -7q-23 -8 -45 -20t-42 -27q-25 -16 -50 -45q-1 0 -3 -2l-3 -3q-1 -2 -5 -7t-5 -6q-5 -7 -8.5 -13t-6.5 -13
q-2 -4 -3.5 -9t-1.5 -10v-5v-1q0 -1 1 -2q5 -11 17 -12.5t23 -1.5q16 0 29.5 2t27.5 7q2 0 8.5 2.5t14 5t15 4.5t10.5 3q2 1 7.5 3t7.5 4l10 4t8 4l3 2q0 2 4.5 7t5.5 7q3 4 6 4.5t7 0.5q19 0 19 -19q0 -7 -8 -13t-13 -9q-18 -10 -37 -17t-38 -13q-3 -1 -17.5 -5.5
t-21.5 -6.5q-1 -1 -7 -2t-8 -1q-12 -4 -29 -4q-18 0 -36.5 4.5t-30.5 19.5q-7 10 -7 23v5l3 15q0 6 5 14q29 51 74.5 90.5t102.5 59.5q11 2 21 4.5t21 4.5q3 1 8 2t6 1h8h7q9 -1 22 -9t17 -16l14 -26l1 -1q3 2 4.5 5.5t3.5 6.5q0 1 1 2t1 2q5 14 8.5 27.5t5.5 27.5
q1 8 2.5 16.5t1.5 16.5q0 16 -11 26.5t-26 14.5q-16 4 -33 4q-45 0 -84 -22.5t-72 -52.5q-1 0 -1.5 -0.5t-2.5 -0.5q-8 0 -12 9v6v5q2 7 6 11q8 11 20 18.5t23 13.5q17 9 33.5 16t34.5 14q14 5 28.5 8.5t28.5 3.5q37 0 64.5 -20.5t27.5 -59.5q0 -16 -3.5 -33t-8.5 -32
q-2 -7 -6.5 -21t-5.5 -16l-32 -73l-49 -99q-2 -4 -3 -10t-2.5 -11.5t-5 -9.5t-10.5 -4q-3 0 -6 0.5t-6 3.5q-6 4 -6 14zM237 392v7q0 7 5 15.5t10 13.5q1 2 7 8l6 6h17l2 -1q11 -6 11 -17v-5l-4 -7q0 -2 -2.5 -9t-3.5 -9q-2 -6 -7.5 -13t-13.5 -8h-7q-7 0 -10.5 1t-8.5 7
q-1 0 -1 1v2v8zM365 392q2 4 5 9t7 10l6 6q2 1 5 3q4 2 6 4l6 2t6 1h3l2 -2q1 -1 3 -1h2l3 -1q0 -1 1 -2q3 -3 2 -3q2 -4 2 -10q0 -8 -5 -15.5t-10 -14.5q-5 -5 -9.5 -10t-12.5 -5q-2 0 -3.5 0.5l-4.5 1.5q-1 1 -3.5 1t-3.5 1q-5 3 -6 8t-1 9v8z" />
    <glyph glyph-name="atilde" unicode="&#xe3;" horiz-adv-x="378" 
d="M252 -29q0 5 2 10l4 10q1 1 6 5t5 6l3 3q23 39 43 85q3 8 6 18t3 19q0 13 -3 22q-4 11 -10.5 21.5t-18.5 15.5q-4 3 -15 3t-24.5 -3.5t-24.5 -8.5q-21 -8 -41 -19.5t-38 -25.5q-25 -16 -50 -45q-1 0 -2.5 -2t-3.5 -3q-1 -2 -4.5 -7t-5.5 -6q-5 -7 -8.5 -13t-5.5 -13
q-6 -8 -6 -19v-5v-1q0 -1 1 -2q5 -11 17 -12.5t23 -1.5q28 0 58 9q1 0 7.5 2.5t14 5t14.5 4.5t11 3q6 3 14 6t15 7q4 2 6 4q4 0 4 4q1 1 4 5t4 5q2 4 5 4.5t8 0.5q7 0 13 -5t6 -14q0 -7 -8 -12.5t-14 -9.5q-32 -16 -62 -26q-2 -1 -9 -3t-15 -4.5l-16 -5t-12 -3.5
q-22 -7 -43 -7q-18 0 -39.5 5.5t-31.5 23.5q-5 8 -5 17v6q0 2 1.5 9t2.5 9q1 1 2.5 5t2.5 6q30 52 75.5 91t101.5 59q10 2 21 4.5t22 4.5q2 1 7 2t6 1h7h7q11 -1 23.5 -9t17.5 -16l13 -26l1 -1q5 4 8.5 12t4.5 16q0 2 2.5 10.5t3.5 10.5t2 10.5t2 11.5q2 8 3 16.5t1 16.5
q0 18 -12 28t-29 15q-7 2 -13.5 2h-13.5q-29 0 -55.5 -10.5t-52.5 -24.5q0 -1 -4.5 -4t-6.5 -5t-8 -6.5t-8 -5.5q-2 -2 -9 -8t-8 -7q-2 -2 -4 -3.5t-5 -1.5q-10 0 -12 9v6v5q2 7 6 11q8 11 20 18.5t23 13.5q16 9 33.5 16t34.5 14q3 2 14.5 4.5t14.5 4.5q15 3 28 3
q36 0 64.5 -20.5t28.5 -58.5q0 -17 -4 -35t-10 -34q0 -2 -2 -7.5t-4.5 -11.5t-4.5 -11t-3 -7l-7 -17.5t-11 -26t-11.5 -26t-7.5 -16.5q-2 -5 -8 -17l-12.5 -25l-12.5 -25t-9 -16q-2 -3 -2 -9q-2 -9 -4 -17.5t-13 -8.5q-4 0 -7 0.5t-6 3.5q-6 4 -6 15zM217 437q0 5 1.5 11
t6.5 11q0 1 1 2l2 2q2 1 2.5 0.5t2.5 -0.5q7 0 8 -2.5t1 -7.5q0 -6 -1 -12t-1 -12q0 -5 0.5 -8.5t2.5 -7.5q2 -2 4 -2h1q13 4 24 14l50 40q1 1 6.5 4.5t7.5 5.5q8 5 15.5 8t16.5 3q12 0 21.5 -6.5t14.5 -17.5q2 -2 6 -10t6 -10q3 -7 8 -11q4 -3 7.5 -6t3.5 -8t-3.5 -14.5
t-9.5 -9.5q-4 0 -5 2t-3 4q-1 2 -3.5 7.5t-6 11.5t-6.5 11.5t-4 7.5q-1 0 -2.5 2.5t-2.5 4.5l-3 3q-5 5 -9.5 9t-11.5 4q-6 0 -11.5 -2.5t-10.5 -5.5l-74 -59q-5 -4 -10.5 -5t-11.5 -1q-8 0 -15 4.5t-10 12.5v3q-2 8 -3.5 15t-1.5 15z" />
    <glyph glyph-name="ccedilla" unicode="&#xe7;" horiz-adv-x="415" 
d="M239 -155l1 1q4 5 9 7.5t11 4.5q2 1 4.5 1t4.5 2q14 8 21.5 22t7.5 30q0 17 -9 32q-8 11 -18.5 13.5t-21.5 2.5q-4 0 -16 0.5t-15 0.5q-17 3 -24 18q-2 4 -2 12q0 5 0.5 7.5t2.5 7.5q0 1 1 2.5t2 3.5t2.5 4t1.5 4q0 3 -7 5q-1 0 -5.5 1t-6.5 1q-20 5 -39 13t-36 18
q-11 7 -17.5 17.5t-10.5 23.5q-1 0 -1 4q0 2 -1 3v5v10v10v7q3 22 17 42q16 20 34.5 39t41.5 33q40 27 92 38q15 3 33 3q15 0 27.5 -4.5t21.5 -15.5q10 -10 10 -22v-5q0 -1 -2 -3q-1 -1 -1 -2q-2 -4 -5.5 -7t-7.5 -3h-4l-2 1q0 1 -1.5 4.5t-2.5 4.5q-4 10 -14 18
q-2 1 -4.5 2t-4.5 1t-7 1t-7 1h-10q-43 0 -78.5 -20.5t-64.5 -50.5q-11 -11 -21 -26q-8 -11 -10.5 -24t-2.5 -24q0 -13 5.5 -22.5t14.5 -16t20 -11.5t21 -8q10 -2 20 -4.5t20 -3.5q4 -1 12.5 -1.5t10.5 -0.5h20h20q2 0 8.5 0.5t8.5 0.5q32 4 61.5 12.5t58.5 19.5h7
q9 0 14.5 -3.5t5.5 -14.5t-11 -14q-2 0 -9 -2.5t-8 -3.5q-4 -2 -7.5 -4t-7.5 -2h-6h-22q-5 0 -10 -1t-10 -3q-1 0 -2.5 -0.5t-2.5 -0.5t-9.5 -0.5t-9.5 -0.5q-4 -1 -7 -1.5t-7 -1.5q-2 0 -11 -0.5t-11 -0.5t-4.5 -1t-4.5 -1q-2 -1 -6.5 -3t-6.5 -3q-1 -1 -5 -2.5t-5 -2.5
q-4 -2 -11 -7.5t-7 -9.5q0 -2 0.5 -4t2.5 -3q15 0 29.5 -3t28.5 -12q20 -11 26.5 -29.5t6.5 -40.5q0 -47 -42 -78q-1 -2 -3 -3q-2 -2 -3 -2.5t-2 -1.5q-2 -2 -8 -4h-5q-10 0 -17 5t-7 15v5z" />
    <glyph glyph-name="eacute" unicode="&#xe9;" horiz-adv-x="310" 
d="M58 61q0 24 6.5 46.5t14.5 43.5v1h-4q-1 0 -2 1q-8 1 -9 7.5t-1 11.5v7q0 3 3 4t5 1q4 0 8 -0.5t9 -0.5q7 0 11 5q3 4 11.5 13.5t10.5 13.5q14 17 32 34t39 31t43.5 22.5t45.5 8.5h8q4 0 7.5 -1.5t7.5 -3.5l2 -3q1 0 4 -3.5t4 -4.5q5 -7 9 -16q6 -14 7.5 -29t1.5 -31
q0 -12 -1.5 -23.5t-3.5 -23.5q-1 -3 -1.5 -6t-2.5 -5h-8q-9 0 -18.5 0.5t-20.5 0.5h-17q-6 0 -20.5 -0.5t-31.5 -1t-31.5 -1t-20.5 -0.5q-3 0 -13.5 -1t-14.5 -2h-4t-5 -1t-4.5 -1t-4.5 -1q-2 -3 -5.5 -11t-4.5 -10q-15 -27 -15 -59v-9q0 -3 1 -7.5t2 -7.5q7 -14 18.5 -21
t26.5 -12q2 -1 7.5 -2t6.5 -2l3 -1h6h5q2 0 4.5 0.5t3.5 0.5q8 1 13.5 1t13.5 1q24 5 45 13.5t44 18.5q7 5 14 9t13 9q0 1 2.5 3t3.5 3q4 0 4 4q2 1 4 1q8 0 10 -5t2 -11q0 -7 -1 -11t-7 -7q-17 -10 -35.5 -18.5t-37.5 -15.5q-43 -19 -86 -19q-18 0 -38 3t-36.5 11.5
t-27 22.5t-10.5 36zM131 183q5 -4 13 -4h5q2 0 8 1t8 2q4 0 17 0.5t17 0.5q2 0 10.5 1.5t10.5 1.5q4 0 13.5 0.5t20 1t20.5 1t14 0.5l11 2q2 0 2 3q2 1 2.5 3.5t0.5 3.5l2 5q0 1 0.5 4.5t0.5 4.5v15v15q0 1 -0.5 3t-0.5 4q-1 9 -5 20t-15 13h-6q-16 0 -29.5 -5t-26.5 -13
q-2 0 -6.5 -3t-6.5 -4q-4 -2 -14.5 -9.5t-13.5 -9.5q-3 -1 -6.5 -2t-6.5 -4q-5 -4 -9.5 -9.5t-9.5 -11.5q-1 -2 -4 -5t-3 -4q-2 -2 -6.5 -9t-6.5 -10l-1 -2zM193 381q0 2 0.5 5.5t4.5 5.5q0 1 5 3t7 2q3 2 14 6.5t13 5.5q1 1 5.5 2.5t9.5 3l10 3t7 2.5q1 0 5.5 1.5t9.5 3
t9.5 3t5.5 1.5q21 6 42 15.5t44 9.5h6q8 -1 11 -2.5t3 -9.5q0 -11 -4 -14t-15 -5l-126 -42q-1 -1 -13.5 -6t-19.5 -7q-2 -2 -10 -5t-10 -5h-8l-2 4q0 2 -1 4q-2 4 -2 6l-1 4v5z" />
    <glyph glyph-name="egrave" unicode="&#xe8;" horiz-adv-x="310" 
d="M58 62q0 24 6 45.5t14 42.5v1l-1 1q-11 1 -13.5 5.5t-2.5 15.5v6q1 5 8 5q5 0 8.5 -0.5t8.5 -0.5q8 0 12 6q3 4 12 14t12 14q0 2 2.5 4t3.5 3l6 6l8.5 8.5t8 8.5t5.5 5q1 2 4.5 5t5.5 5q25 20 53.5 34.5t60.5 14.5q10 0 13 -2q19 -6 26.5 -25t9.5 -36q1 -2 1.5 -7t0.5 -6
v-16v-13q-2 -7 -3 -14l-2 -12t-1 -10q-1 -2 -1 -4.5t-1 -4.5h-9q-11 0 -19.5 0.5t-19.5 0.5h-17q-6 0 -22.5 -0.5t-35.5 -1t-35.5 -1t-22.5 -0.5q-2 0 -8.5 -1.5t-8.5 -1.5q-2 -1 -4 -1h-5q-1 0 -1 -0.5t-1 -0.5h-2q-3 0 -5 -2q-1 -1 -1.5 -3t-1.5 -3q-9 -17 -15.5 -35
t-6.5 -38q0 -24 12.5 -37.5t35.5 -19.5q2 -1 10 -3q4 -1 7 -2h5h7h4q1 0 3 1q8 1 15.5 1t16.5 2q15 4 30 8.5t29 11.5q37 13 64 40h3q7 0 9.5 -5t2.5 -12q0 -4 -1 -9t-7 -8q-3 -2 -16 -8.5l-17 -8.5q-3 -1 -16.5 -7t-18.5 -8q-22 -10 -45.5 -15.5t-46.5 -5.5
q-16 0 -33.5 2.5t-33 9t-27 18t-15.5 29.5q0 1 -0.5 3t-0.5 3v9zM131 182q4 -3 12 -3h4q2 0 8 1t8 2q4 0 17 0.5t18 0.5q1 0 9.5 1.5t10.5 1.5q4 0 14 0.5t20.5 1t20 1t13.5 0.5l11 2q2 0 3 2q0 2 1 4t1 3t1 3t1 3t0.5 3.5t0.5 3.5q0 2 0.5 5t0.5 4v7q0 6 -0.5 14.5
t-2.5 17.5t-6.5 15.5t-11.5 8.5h-7q-15 0 -28 -5t-27 -12q0 -1 -2.5 -1.5t-2.5 -1.5q-2 -2 -7.5 -5t-11.5 -7t-11 -7.5t-7 -4.5q-3 -1 -6.5 -2.5t-5.5 -3.5q-8 -8 -14 -14.5t-13 -14.5q0 -2 -5 -9t-7 -10l-1 -1v-2zM259 424q-2 1 -7.5 6t-6.5 7q-3 3 -15.5 12t-15.5 12
q-5 3 -5 9q0 3 2 4q2 2 6 5.5t6 3.5q5 5 10 5h4h1q1 0 1 -0.5t1 -0.5q1 -2 4.5 -4.5t5.5 -4.5q4 -3 12 -10t9 -9l53 -55q0 -1 1 -2q2 -2 3 -2q1 -1 5.5 -4t4.5 -4q7 -6 11.5 -11.5t6.5 -13.5q0 -1 0.5 -1.5t0.5 -1.5t1 -3v-3q0 -5 -5 -8.5t-10 -3.5t-9 3t-6 7z" />
    <glyph glyph-name="ecircumflex" unicode="&#xea;" horiz-adv-x="310" 
d="M58 62q0 19 4.5 36t10.5 34q0 2 2 8.5t3 7.5t1 3v1h-4q-1 0 -2 1q-8 1 -9 8t-1 12t1 8t7 3q4 0 8 -0.5t9 -0.5h3t4 1q1 2 2.5 3.5l2.5 2.5q3 4 12 14.5t12 14.5q1 1 4 3.5t3 3.5q4 5 12.5 13.5l10.5 10.5q8 8 17.5 15t17.5 12q20 14 43 24t49 10q7 0 11 -1
q13 -3 20.5 -14t12 -25t6 -28.5t1.5 -25.5v-5q0 -2 -0.5 -7t-0.5 -7q-1 -2 -2.5 -13.5t-2.5 -16.5q-1 -2 -1 -3.5t-2 -3.5h-8q-11 0 -19.5 0.5t-19.5 0.5h-17q-6 0 -22.5 -0.5t-35 -1t-35 -1t-22.5 -0.5q-3 0 -12 -1.5t-11 -1.5t-8 -2q-4 0 -4 -2q-10 -18 -18 -37.5
t-8 -41.5q0 -8 2 -18t8 -16q15 -16 36 -23q2 0 10 -2t10 -3h6h5q2 0 4.5 0.5t3.5 0.5q2 0 7 0.5t7 0.5q14 1 28.5 4.5t28.5 8.5q22 9 43.5 20t38.5 28q1 1 4 1q10 0 12 -11v-6q0 -6 -0.5 -9t-5.5 -7l-14 -7q-35 -18 -71.5 -32.5t-76.5 -14.5q-15 0 -31.5 2t-32 7.5t-28 16
t-17.5 27.5q-2 5 -2 10.5v10.5zM130 184l2 -2q4 -3 12 -3h5q2 0 7.5 1t7.5 2q4 0 17.5 0.5t17.5 0.5q2 0 10 0.5t10 2.5l60 2l20 3h1q0 2 0.5 2.5t0.5 1.5q4 8 5 16.5t1 18.5v11q0 11 -3.5 25t-14.5 18q-2 2 -4.5 1.5t-5.5 -0.5q-19 0 -36.5 -8t-32.5 -18q-4 -2 -15 -9
t-14 -9q-6 -2 -12 -6q-4 -5 -8 -9t-8 -9q-2 -3 -7 -8.5t-6 -7.5t-5 -7.5t-5 -7.5v-2zM330 423q-20 -7 -34 -15q-4 -2 -12.5 -6.5t-17.5 -9.5t-17 -10t-11 -7q-2 -1 -8.5 -3.5t-8.5 -3.5l-9 -3t-7 -2h-7h-2q-4 2 -4.5 5.5t-0.5 6.5v5q1 2 3.5 4t4.5 3q5 2 10.5 3t10.5 4
q2 1 7.5 3.5t7.5 3.5t9.5 5.5t16 9.5t16 9t9.5 5q4 3 17.5 9t17.5 8q6 3 14 3h6.5t6.5 -3q7 -12 7 -24.5t5 -23.5q1 -2 2 -4.5t3 -5.5q2 -1 6.5 -7.5t5.5 -7.5q5 -5 5 -9q0 -3 -1 -4q-1 0 -1.5 -0.5t-1.5 -0.5h-6h-5q-2 0 -3.5 1t-3.5 2q-18 17 -24 44q-1 1 -2.5 5.5
t-1.5 6.5q0 4 -2 4z" />
    <glyph glyph-name="edieresis" unicode="&#xeb;" horiz-adv-x="310" 
d="M58 62q0 26 9 53q1 2 3 8.5t2 8.5q0 1 2.5 7.5t3.5 8.5q1 1 1 3v1h-4q-2 0 -3 1q-7 1 -8 7.5t-1 11.5v7q0 5 7 5q5 0 9 -0.5t8 -0.5q8 0 12 5q2 2 9.5 11t8.5 11q14 17 32.5 35t39.5 32.5t44.5 24t47.5 9.5q7 0 11 -1q7 -2 11.5 -5.5t9.5 -8.5q0 -1 1 -2t2 -1
q2 -3 3 -6.5t3 -7.5q2 -2 2 -6q5 -13 6.5 -26.5t1.5 -26.5v-12q0 -4 -2.5 -18t-2.5 -18q-2 -8 -5 -11h-7q-9 0 -19 0.5t-20 0.5h-18q-6 0 -20.5 -0.5t-31 -1t-31 -1t-20.5 -0.5q-3 0 -13.5 -1t-14.5 -2q-1 0 -5 -0.5t-5 -0.5t-1.5 -0.5t-1.5 -0.5h-3l-2 -1
q-10 -20 -17.5 -38.5t-7.5 -41.5q0 -43 42 -56q3 -1 11.5 -3t10.5 -3h7h5q2 0 4.5 0.5t3.5 0.5q7 1 13 1t14 1q47 11 88 32q8 5 15 9t12 9q1 1 3.5 3t4.5 3l2 4q2 1 5 1q7 0 9.5 -5t2.5 -12q0 -4 -1 -9t-5 -7q-2 -1 -6.5 -2.5t-4.5 -2.5q-26 -14 -53.5 -26t-56.5 -19
q-19 -4 -42 -4q-18 0 -37.5 3.5t-35.5 11.5t-26.5 22.5t-10.5 36.5zM131 183q4 -4 13 -4h4q2 0 8 1t8 2q5 0 18 0.5t17 0.5q2 0 10 1.5t10 1.5q4 0 14 0.5t20.5 1t20.5 1t14 0.5l11 2q2 0 3.5 5t1.5 7v4q0 1 1 3q0 2 0.5 3.5t0.5 2.5v16v12q0 2 -0.5 6.5t-0.5 6.5
q-2 8 -6 17t-13 11h-6q-20 0 -37 -7.5t-33 -17.5q-3 -2 -13.5 -9.5t-14.5 -9.5q-2 -1 -4 -1.5t-4 -2.5q-6 -3 -14 -12t-15.5 -18.5t-13.5 -20.5l-1 -2zM340 382l1 2q4 8 7.5 14t9.5 11q2 0 7 2.5l7 3.5q1 1 3.5 1.5t3.5 0.5h3h3q2 0 5.5 -1.5t4.5 -1.5l2 -1q2 -8 2 -13
q0 -6 -1.5 -12t-6.5 -11q-2 -2 -7 -8t-7 -8q-5 -5 -8 -6h-5q-8 0 -15 3q-5 2 -7 8t-2 11v5zM190 384q0 21 15 36q2 2 6.5 6t5.5 6l2 2h7q7 0 11 -1q11 -7 11 -17q0 -3 -1 -6l-2 -4l-2 -4q0 -2 -2.5 -8.5t-2.5 -8.5q-5 -11 -10.5 -15t-17.5 -4h-7t-6 2q-1 1 -3 2.5t-2 2.5
q-2 2 -2 5.5v5.5z" />
    <glyph glyph-name="iacute" unicode="&#xed;" horiz-adv-x="148" 
d="M37 -9q0 9 4 17l96 246l19 64q2 3 7 13t10 10h1q4 -2 8.5 -3.5t6.5 -6.5v-7v-7q-1 -7 -4.5 -13t-6.5 -12q-1 -2 -3 -5t-2 -5l-81 -216q-2 -4 -2 -7t-1 -6q-1 0 -1 -1v-2q-2 -5 -4 -10.5t-3 -12.5q-1 -2 -2.5 -9.5t-1.5 -9.5q-3 -14 -9 -27q-7 -9 -15 -9t-12 5.5t-4 13.5z
M137 368q-1 2 -2 9.5t-1 9.5v5q0 3 0.5 5.5t2.5 6.5l1 1q0 1 0.5 1t0.5 1q20 17 42 27q1 0 5.5 2.5t10 5t10 5t5.5 2.5q13 7 25.5 18t29.5 11q11 0 14 -10v-7q0 -6 -0.5 -9.5t-6.5 -7.5q-2 -2 -5 -2.5t-5 -2.5q-6 -3 -16 -8.5t-20.5 -11.5t-18.5 -11t-10 -6q-1 0 -8 -4
t-9 -6q-2 -1 -7 -4.5t-7 -4.5q-2 -2 -11 -8.5t-11 -8.5q-2 0 -2.5 -0.5t-2.5 -0.5q-4 0 -4 3z" />
    <glyph glyph-name="oacute" unicode="&#xf3;" horiz-adv-x="283" 
d="M19 20q0 19 7 38.5t15 36.5q2 2 6 10.5t6 11.5q2 2 6 8.5t5 7.5q38 57 86 108q11 13 24 24t27 22q5 3 9.5 5.5t9.5 5.5h2q1 0 5 2q2 1 3 1h30q3 0 5.5 1t5.5 1q22 -11 34 -24t15 -38v-14v-14v-6q-6 -42 -28 -75t-53 -61q-31 -29 -72 -52q-2 -1 -8 -4.5t-8 -4.5
q-13 -5 -23.5 -10t-22.5 -10q-2 -1 -10 -3.5t-11 -3.5q-13 -5 -27 -5h-10q-5 0 -9 2q-11 6 -15 17t-4 23zM41 19q0 -10 6 -12t14 -2q25 0 48 11t44 23q2 2 11 7t11 7q21 15 43 33t40 39t29 46t11 54q0 17 -7 34.5t-27 17.5q-8 0 -13.5 -2.5t-11.5 -6.5q-3 -3 -4 -3
q-4 -6 -5 -18t-11 -12q-12 0 -12 10v10l-1 2q-3 0 -6 -3q-14 -11 -26 -22t-23 -25q-34 -37 -61 -79q-6 -8 -12.5 -19.5t-11.5 -22.5q0 -1 -2.5 -6.5t-5.5 -12.5t-6.5 -14.5t-4.5 -11.5q-2 -5 -4 -11t-2 -11zM178 372q0 2 -0.5 5t1.5 4l3 3q1 1 4.5 2.5t5.5 2.5q23 11 55 22
q2 0 7.5 1.5t12 3.5t11.5 3.5t7 1.5q21 6 41 16t43 10q8 0 14.5 -1.5t6.5 -11.5q0 -11 -4.5 -14t-13.5 -5l-128 -43q-2 0 -14.5 -5t-19.5 -7q-2 -2 -9.5 -5t-9.5 -4h-3q-4 0 -6 0.5t-2 5.5q-1 1 -1 3v4t-1 4v4z" />
    <glyph glyph-name="ograve" unicode="&#xf2;" horiz-adv-x="283" 
d="M19 30v2q0 1 0.5 1.5t0.5 1.5q3 17 9.5 33.5t14.5 31.5q28 50 67 98q2 1 9.5 10.5t11.5 14.5q1 2 4 4.5t4 4.5l7.5 7.5l9.5 9.5t9 8.5t5 4.5q1 2 7.5 7t8.5 8q2 1 6.5 4.5t6.5 5.5q4 2 9.5 5.5t10.5 5.5q4 0 6 1l4 2h30q1 0 4.5 1t5.5 1h1q1 0 3 -2q6 -3 12 -7t11 -7
q2 -1 5.5 -6t5.5 -7q8 -8 10.5 -22t2.5 -25q0 -30 -11.5 -58t-28.5 -52q-14 -19 -31 -35.5t-35 -30.5q-26 -20 -56 -36.5t-60 -27.5q-1 -1 -9 -2.5t-11 -3.5q-7 -2 -11.5 -2.5t-11.5 -0.5h-9q-7 0 -11 4q-11 7 -14 16.5t-3 20.5v11zM41 19q0 -9 6 -11.5t13 -2.5q27 0 53 13
q9 5 19 10t18 11q4 2 15 8.5t14 8.5q2 1 6.5 5t10 7.5t9.5 7t6 5.5q34 27 60.5 62.5t26.5 81.5q0 17 -7 34.5t-28 17.5h-5q-4 0 -13 -5t-11 -9q-2 -6 -5 -17t-11 -11h-1q-1 0 -2.5 1t-2.5 1q-5 3 -4.5 9t-1.5 11h-1q-4 0 -6 -4q-2 -2 -7.5 -6t-6.5 -6q-1 -1 -4.5 -3.5
t-4.5 -4.5l-7 -7t-7 -6q-2 -4 -10.5 -12.5l-10.5 -10.5q-20 -25 -39 -50.5t-34 -54.5q0 -4 -3 -7q0 -1 -2.5 -7t-2.5 -7q-2 -2 -6 -14t-6 -14q-2 -5 -4.5 -11.5t-2.5 -12.5zM252 380q-2 1 -10.5 6.5t-13.5 7.5q-2 2 -11.5 7.5t-12.5 7.5q0 1 -1.5 2t-1.5 2v1l1 3
q5 3 11.5 6.5t13.5 3.5h3q1 0 4 -1.5t4 -1.5q8 -5 16 -10.5t15 -10.5q2 -2 8 -7t13 -10.5t13 -10t9 -5.5q9 -7 18 -11.5t16 -12.5q1 0 2 -2t1 -3q1 -1 2.5 -4t2.5 -4v-1q0 -5 -6.5 -8t-10.5 -3q-5 0 -9 3t-9 7z" />
    <glyph glyph-name="ocircumflex" unicode="&#xf4;" horiz-adv-x="283" 
d="M19 21q0 29 16 59q11 23 23.5 44t27.5 42q1 2 5 7l8 10t7.5 9.5t5.5 6.5q1 2 5.5 7.5t9.5 11t9.5 10.5t6.5 7q14 15 29.5 28.5t32.5 25.5q8 6 18 9l4 2q2 1 3 1h29q2 0 5.5 1t5.5 1h1q11 -3 18 -12q20 -14 25.5 -27t5.5 -37q0 -39 -17.5 -73.5t-44.5 -63.5t-60.5 -51.5
t-66.5 -37.5q-11 -6 -23.5 -11t-26.5 -8q-2 -1 -6 -2t-6 -1q-1 -1 -2 -1h-2h-9q-3 0 -6.5 -0.5t-6.5 1.5q-15 4 -19.5 15.5t-4.5 26.5zM41 14q2 -6 8 -7.5t11 -1.5q20 0 38 7t35 16q20 11 38 23t35 26q4 2 12.5 10t11.5 10q28 26 47.5 57t19.5 70v12t-2 11q-4 14 -11 22
t-21 8q-7 0 -13.5 -3t-11.5 -7q-1 -1 -2 -1t-1 -1q-4 -6 -5.5 -18t-11.5 -12h-2q-1 0 -2 1h-2q-1 0 -1 1q-5 3 -4 9t-1 11h-1q-2 0 -4 -2t-4 -3q-26 -22 -48.5 -47.5t-42.5 -53.5q-11 -15 -21.5 -30.5t-18.5 -33.5q-2 -2 -3 -6t-3 -9q0 -1 -2 -5.5t-4.5 -9.5t-4.5 -10t-2 -6
q-2 -5 -4 -10.5t-2 -11.5v-5zM301 424q-2 -2 -5 -3q-2 -2 -4 -2.5t-3 -1.5q-1 0 -3 -2t-4 -2q-1 -1 -3.5 -3t-3.5 -2l-55 -42q-7 -6 -14 -10t-15 -8h-4q-7 0 -8 4.5t-1 10.5v7q0 3 6 7q3 3 7 4t8 3q1 0 2 1t2 1q2 2 8.5 6.5t7.5 4.5q2 1 9 6.5t14.5 12t14.5 11.5t9 7l2 2
q3 3 3 2l4 2q2 1 3 2q7 4 13.5 9t14.5 5t11 -3q-1 0 2 -5q5 -12 4.5 -24.5t2.5 -24.5q2 -6 4.5 -12t5.5 -12t7 -12t4 -12q0 -9 -7 -9q-5 0 -9 4q-1 0 -2 1q-2 2 -2 4q-8 9 -12 20.5t-8 22.5q0 4 -2.5 15t-2.5 15h-1z" />
    <glyph glyph-name="odieresis" unicode="&#xf6;" horiz-adv-x="283" 
d="M19 20q0 15 5 29l10 28q5 15 13.5 29.5t17.5 26.5q16 26 34 49.5t38 44.5q31 36 64 60l10 6t12 5l4 2q1 1 3 1h30q3 0 6 1t5 1h1q14 -9 28 -19.5t19 -28.5q2 -8 2 -14.5v-14.5v-12q-2 -22 -9 -41q-11 -30 -29.5 -54.5t-42.5 -46.5q-24 -24 -58 -44q-17 -11 -37 -21
t-40 -17q-2 -1 -9 -3.5t-9 -2.5q-2 -1 -7 -2.5t-7 -2.5q-1 0 -3.5 -0.5t-3.5 -0.5h-8h-10q-6 0 -13 5q-10 6 -13 16t-3 21zM41 19q0 -10 6 -12t14 -2q23 0 44 9.5t41 20.5q3 3 14 9t13 8q2 1 6.5 4t9 6.5t9 6.5t6.5 4q18 14 35 30.5t30.5 35.5t21.5 40.5t8 45.5
q0 8 -1.5 17.5t-5.5 17t-10.5 12.5t-16.5 5q-8 0 -13.5 -2.5t-12.5 -6.5l-1 -1q-3 -3 -4.5 -8.5t-3 -10.5t-4 -9t-8.5 -4h-1q-1 1 -2 1q-2 0 -2 1q-5 2 -5.5 7.5t-0.5 10.5q0 2 -2 2t-5 -3q-28 -22 -49 -47q-3 -3 -7.5 -8l-9 -10t-8 -9.5t-3.5 -5.5q-1 -2 -4.5 -6.5t-8 -10
t-8 -10.5t-4.5 -8q-19 -22 -32 -53q-1 -2 -4.5 -10.5t-3.5 -10.5q-1 -2 -4.5 -10.5t-5.5 -10.5q-2 -5 -4.5 -11.5t-2.5 -13.5zM184 392v2q0 3 1 3q0 1 1 2q10 22 25 35h7q4 0 8.5 -0.5t6.5 -2.5q8 -6 8 -14q0 -5 -2 -9.5t-4 -8.5q-5 -14 -10 -23.5t-21 -9.5q-6 0 -10 0.5
t-8 5.5q-3 3 -2.5 6t0.5 6v8z" />
    <glyph glyph-name="otilde" unicode="&#xf5;" horiz-adv-x="283" 
d="M19 31l1 8q6 23 16.5 45t22.5 42q15 25 32 47t34 43l7.5 7.5t6.5 7.5q17 17 33 32t36 28q7 6 13 7l9 3h30q1 0 4.5 1t5.5 1h1h2q9 -8 18 -13.5t17 -15.5q9 -9 11 -21.5t2 -25.5q0 -37 -16.5 -70.5t-40.5 -59.5q-8 -10 -18 -19.5t-20 -17.5q-2 -2 -8.5 -7t-8.5 -7
q-48 -34 -103 -55q-7 -4 -13 -6t-14 -4q-12 -3 -23 -3h-10q-7 0 -12 4q-11 7 -13 17t-2 22v10zM41 19q0 -9 5.5 -11.5t13.5 -2.5q20 0 37 6t33 15q4 2 14 7.5t12 7.5q2 1 7 4t10 7t10 7t7 5q19 14 38 31t34.5 37t25 43t9.5 50q0 17 -6.5 34.5t-27.5 17.5q-4 0 -14 -4
q-7 -1 -15 -8q-3 -6 -4.5 -18t-11.5 -12q-2 0 -6 2q-5 4 -4.5 8t-1.5 10q0 1 -1 2h-2q-4 -2 -6.5 -5t-6.5 -6q-2 -2 -7 -6t-6 -6q-3 -2 -8.5 -8t-7.5 -7q-2 -3 -6 -7.5t-8.5 -9.5t-8.5 -9.5t-5 -5.5q-2 -2 -6.5 -7.5t-9 -12t-8.5 -12t-5 -7.5q-1 -1 -4 -5t-6 -8.5l-6 -9
t-4 -6.5q-6 -9 -10.5 -17.5t-9.5 -17.5q0 -2 -2.5 -8.5t-2.5 -8.5q-2 -2 -7.5 -15t-7.5 -15q-1 -5 -2 -9t-1 -9zM49 377q0 4 1 7l2 4q2 4 4 6l4.5 9t7.5 7q1 1 6.5 3t8.5 4q3 1 8 1q4 0 7 -1.5t7 -2.5q1 -1 1 -3t1 -3q1 -3 1 -8q0 -10 -4.5 -17t-10.5 -13q-1 -2 -4 -5t-4 -5
q-5 -5 -12 -5q-24 0 -24 22zM181 417q1 4 2 6.5t3 6.5q1 5 9 5q4 0 9 -4v-7q0 -8 -1 -13.5t-1 -12.5q0 -5 1 -9.5t6 -7.5q8 2 15 7t13 9q3 2 9 7.5t13 11.5t13 11t8 7q1 0 4.5 2.5t5.5 3.5q9 7 18.5 12t21.5 5q13 0 22.5 -6.5t14.5 -17.5q1 -2 5.5 -10.5t5.5 -9.5t1 -2
q0 -2 1 -2q4 -6 11 -11t7 -11q0 -12 -12 -21q0 -1 -2 -1t-3 1q-2 0 -3 2t-2 3q-8 14 -15.5 30t-21.5 27q-3 2 -5.5 3t-6.5 1q-5 0 -11 -3t-11 -6l-74 -58q-2 -1 -3 -2l-4 -2q-4 -2 -7.5 -2.5t-7.5 -0.5q-7 0 -14 5q-8 5 -10 13q-1 2 -2 7.5t-1 8.5q-1 0 -1 1v2v2v10v10z" />
    <glyph glyph-name="uacute" unicode="&#xfa;" horiz-adv-x="359" 
d="M239 -30q0 17 8.5 31.5t13.5 30.5l4.5 13.5l4.5 13.5q0 2 2.5 10t5 17t4.5 17t3 10q0 1 1.5 5t1.5 6q2 6 7.5 15t5.5 16q0 3 -1 7t-4 4t-8 -5q0 -2 -3 -8t-4 -7q0 -2 -2 -4.5t-3 -2.5l-71 -85q-1 -1 -4.5 -5t-4.5 -6q-11 -11 -23.5 -23t-27 -21.5t-30.5 -16t-34 -6.5
q-9 0 -17.5 2t-8.5 14q0 14 5 31q0 3 2.5 12t2.5 12q2 5 5.5 18t4.5 16l56 151l37 82q2 2 4.5 11t4.5 11q2 4 4.5 7.5t7.5 3.5q7 0 13.5 -5.5t6.5 -13.5q0 -6 -3 -14t-7 -13l-42 -71l-48 -125q-1 -2 -5 -16t-6 -20q-4 -11 -6 -22t-2 -23v-8q0 -4 3 -5h3q9 0 16.5 3.5
t15.5 8.5q2 0 4 2q22 15 46 36q3 3 9 8.5t12 11.5t10.5 11t5.5 7q3 2 8.5 8t12 13.5t12 14.5t8.5 11q1 1 5 6t8.5 11t9 11.5t6.5 7.5t7.5 10.5t8.5 11.5q0 2 1.5 4t1.5 3l20 44q0 1 1.5 2t1.5 2q0 2 1 5t1 4t1.5 6t3 10.5t2.5 10.5t1 6q7 22 22 35q5 5 12 5t9.5 -1.5
t2.5 -7.5q0 -12 -4 -21q-1 -2 -3.5 -9t-4.5 -9l-87 -274q-1 -2 -2 -8t-2 -9q-2 -1 -3 -9t-1 -10t-1.5 -5.5t-1.5 -5.5q-2 -5 -6 -10.5t-9 -6.5h-3q-16 0 -16 15zM221 403q1 5 6 8q2 2 10 5t11 5q4 1 12 4.5t10 3.5l64 20l9 3t13.5 5t13.5 5.5t9 3.5q8 2 16.5 4t16.5 2h5
q8 -1 12 -3.5t4 -10.5q0 -13 -13 -16q-5 0 -7 -1l-127 -44q-2 0 -15.5 -5.5t-20.5 -9.5q-2 0 -7.5 -2.5t-6.5 -3.5q-2 -1 -7 -1t-5 4q-3 7 -3 19v5z" />
    <glyph glyph-name="ugrave" unicode="&#xf9;" horiz-adv-x="359" 
d="M239 -28q0 13 4 22q0 2 5 11t5 11q11 22 17 47t13 48q0 1 2.5 6t2.5 7q2 7 5.5 13t6.5 14v5q0 2 -1 6t-5 4t-7.5 -8t-4.5 -10q-2 -2 -4 -5t-4 -7l-65 -78q-2 -2 -11.5 -11t-13.5 -13q-18 -19 -36 -33q-15 -11 -32 -18t-36 -7q-6 0 -14.5 1t-10.5 9v7q0 18 5 38
q1 3 2.5 8.5t3.5 11.5t3.5 11t1.5 6l58 161l38 86q2 2 4.5 10.5t4.5 10.5q1 4 4 7.5t8 3.5q10 0 18 -10q0 -1 1 -2t1 -2v-4q0 -8 -4 -16.5t-7 -16.5l-40 -66l-49 -124q0 -2 -4 -15t-6 -19q-4 -12 -7 -24.5t-3 -24.5q0 -3 0.5 -6.5t3.5 -5.5h3q8 0 17.5 4.5t17.5 8.5
q27 17 51 41q5 5 16 15.5t13 13.5t8.5 10t13.5 15t13 15t9 10q1 1 4.5 6t8 10.5t8.5 10.5t6 8q1 1 3.5 4.5t5.5 7.5t5.5 7.5t3.5 4.5q1 2 4 7t4 7q0 1 2 5.5t4.5 10l5 11t3.5 8.5q7 14 8 22q5 17 8 31t15 28q10 8 18 8q2 0 3.5 0.5t3.5 -0.5q1 -1 2 -2.5t2 -2.5v-5
q0 -11 -3.5 -20t-8.5 -18l-88 -279q-1 -1 -2 -6.5t-2 -7.5t-2.5 -11t-1.5 -11q-1 -5 -5.5 -14t-11.5 -9h-5q-9 0 -11 4.5t-2 12.5zM262 468q-2 2 -8.5 7.5t-8.5 7.5q-3 3 -12.5 11t-12.5 10q-4 3 -4 7v3q1 0 2 1l2 2q1 1 4 3t4 3q7 7 12 7q3 0 5 -1q21 -15 38 -33l34 -36
q4 -3 10 -9.5t7 -6.5q2 -2 7.5 -6t7.5 -6q5 -5 11 -15t6 -18v-3q0 -4 -6.5 -6.5t-9.5 -2.5h-4t-3 1t-4 3.5t-3 3.5t-1 1.5t-1 1.5z" />
    <glyph glyph-name="ucircumflex" unicode="&#xfb;" horiz-adv-x="359" 
d="M239 -28v7q0 7 4 15q5 10 10 19.5t7 20.5l29 91q2 8 6.5 15t4.5 15q0 9 -5 11q-4 0 -6 -5q-1 -1 -4 -7l-4 -8q-1 -1 -2.5 -3.5t-2.5 -3.5l-69 -84l-3.5 -3.5t-4.5 -3.5q-3 -4 -13 -13t-12 -11q-5 -6 -12 -11.5t-12 -10.5q-15 -11 -33 -18.5t-36 -7.5q-8 0 -17 2t-9 13v1
q0 5 1 9q0 3 1 7q0 2 1 10.5t2 10.5q2 5 4.5 15t3.5 12l58 164q1 2 5 12.5t6 14.5t6 13t9 19.5t9 19.5t6 13l4 12t5 11q2 5 5 8.5t8 3.5q8 0 14 -5.5t6 -13.5q0 -5 -1.5 -9t-3.5 -8q-2 -3 -4.5 -9.5t-3.5 -7.5l-38 -64l-49 -123q-1 -2 -4 -12.5t-5 -15.5q-4 -14 -7.5 -28
t-3.5 -27v-8q0 -4 3 -5h3q11 0 22.5 6t19.5 12q27 18 50 41l6.5 6.5l9.5 9.5t9 9.5t5 6.5q3 2 8 8t10.5 12t10.5 12t7 8q1 2 5.5 7.5t9.5 12t10 12.5t7 9q1 1 6 8.5t8 11.5q1 0 2 2t2 3q0 2 1.5 3t1.5 2q0 2 3 7.5t6 12.5t5.5 13t3.5 9l1 1q0 1 0.5 1t0.5 1q0 3 1 5l2 4
q0 1 1 6t2.5 10.5t2.5 10.5t1 7q4 10 8.5 18.5t12.5 16.5q5 5 15 5h4q7 -1 7 -10q0 -10 -4 -19l-8 -18l-88 -275q0 -2 -1.5 -8.5t-2.5 -9.5q-1 -2 -2.5 -9.5t-1.5 -9.5q-2 -7 -4.5 -14t-8.5 -11q-3 -2 -9 -2q-11 0 -14 9v8zM359 463q-18 -7 -32 -19q-2 -3 -8 -8.5t-13.5 -12
t-14 -12.5t-9.5 -8q-16 -13 -34 -22q-2 -1 -5 -1q-5 0 -6 7t-1 12q0 2 -0.5 4.5t1.5 4.5q1 0 4 3q1 1 2 3q2 2 5 3t7 3q1 1 3 2.5t3 1.5q2 2 9.5 7.5t9.5 7.5q1 1 7.5 6.5t13.5 11.5t13 11t8 7q1 2 2 3t2 1.5t2 1.5q1 0 2.5 1t2.5 1q1 1 7 5.5t7 5.5l7.5 5t9.5 3
q2 -1 4.5 -1t4.5 -1q4 -6 6 -14q3 -14 3 -27.5t4 -27.5q0 -2 1.5 -5t1.5 -4q4 -9 9.5 -19t5.5 -21q0 -2 -0.5 -4t-2.5 -3h-4h-4q-1 0 -2 1h-2q-1 0 -1 1l-1 2q-8 11 -13 23.5t-7 26.5q-1 4 -3.5 16.5t-3.5 16.5z" />
    <glyph glyph-name="udieresis" unicode="&#xfc;" horiz-adv-x="359" 
d="M239 -30q0 12 3.5 20.5t8.5 19.5q11 23 18 48.5t15 51.5q0 2 1.5 7.5t3.5 8.5q3 7 7.5 14.5t4.5 15.5q0 2 -1.5 6t-4.5 4q-5 0 -7 -5l-4 -8t-3 -7q-1 -1 -2 -3t-2 -2l-67 -81q-1 -1 -7 -7.5t-8 -9.5q-11 -11 -24 -23t-27 -21.5t-30 -16t-33 -6.5q-10 0 -18 2t-8 14
q0 21 6 42q1 3 2.5 8t3 10.5t2.5 9.5t1 5l62 169l35 77q1 2 4.5 11.5t4.5 11.5q2 4 4.5 7.5t7.5 3.5q7 0 13.5 -5.5t6.5 -13.5q0 -4 -1 -8.5t-3 -7.5q-2 -5 -5.5 -12t-4.5 -8l-37 -62l-48 -123q0 -2 -4.5 -15t-5.5 -20q-4 -13 -7 -24t-3 -23v-9q0 -4 3 -5h4q10 0 20 5t18 10
q7 5 13 9.5t13 9.5q2 2 9 8.5t9 8.5q29 28 54.5 56.5t49.5 60.5q2 2 8 10.5t8 12.5q5 5 5 9l21 44q0 1 1 2t1 2q1 1 1.5 3.5t0.5 3.5t1.5 7t3 12.5t3 11.5t1.5 6q6 21 22 33q2 4 5 4.5t7 0.5q7 0 9 -1.5t2 -7.5q0 -10 -3.5 -19.5t-7.5 -17.5l-89 -281q-1 -2 -1.5 -6t-1.5 -6
t-2.5 -11t-2.5 -11q-1 -6 -3.5 -13t-8.5 -10q-2 -2 -5 -2h-3q-10 0 -12.5 3.5t-2.5 11.5zM348 399q3 7 7 13.5t10 11.5l2 2q2 1 7.5 2.5t5.5 2.5q4 3 10 3q3 0 4 -1t3 -2q0 -1 1 -1h2l1 -1q4 -1 4.5 -6t0.5 -8q0 -12 -6.5 -21.5t-14.5 -17.5q-6 -6 -14 -6q-3 0 -9 1t-8 3
q-4 4 -5 8.5t-1 9.5v7zM235 449h5q5 0 8.5 -3t5.5 -5v-3q0 -1 1 -2v-5v-4q-1 -1 -1 -3q-1 -1 -1 -3v-1q-5 -10 -8 -20t-11 -17q-8 -3 -17 -3q-5 0 -12.5 2t-7.5 10v15l1 1q0 1 0.5 1t0.5 1q5 16 14 26q2 1 5.5 5t5.5 6l1 1q1 0 1 0.5t1 0.5h8z" />
    <glyph glyph-name="dagger" unicode="&#x2020;" horiz-adv-x="282" 
d="M143 140q0 2 1 4l65 152q2 5 2.5 7.5t0.5 7.5v5h-5h-12h-12q-5 0 -10.5 -1.5t-10.5 -1.5h-34l-2 1q-7 3 -7 13v4q1 7 9.5 9.5t11.5 2.5h69q2 0 5 0.5t5 1.5l2 1q1 0 1 1l9 9v1q0 1 0.5 1.5t0.5 2.5q1 3 4 14.5t5 14.5v4q0 5 -2 10t-2 10q0 4 3.5 8.5t5.5 6.5l4 4t3 4
q4 4 10 8t11 4q3 0 4 -1l4 -4q1 -1 1 -6q0 -19 -10 -41q-2 -1 -7.5 -11.5t-7.5 -12.5q-7 -9 -7 -21q0 -4 4 -4h11h12h7l3 3h5h16h21h21q5 0 11 -1.5t9 -7.5v-1v-12v-2q-3 -7 -6 -9t-11 -2h-3q-1 0 -3 1t-3 1q-16 6 -33 6h-34h-25q-5 0 -9 -6l-1 -2q-2 -5 -8.5 -16.5
t-8.5 -16.5q-5 -12 -8.5 -26t-7.5 -27q-1 -2 -6 -13.5t-5 -13.5q-5 -15 -8 -30.5t-8 -31.5q-1 -1 -2.5 -5.5t-2.5 -6.5q-3 -7 -11 -7t-17 6q-7 3 -7 12z" />
    <glyph glyph-name="degree" unicode="&#xb0;" horiz-adv-x="288" 
d="M100 290v2q0 1 0.5 2t0.5 2t1 2.5t1 2.5q10 24 28 41q2 3 9.5 10t9.5 9t8 7t8 7q5 4 10.5 5.5t10.5 3.5q2 1 7.5 2.5t6.5 1.5h4q2 0 2.5 0.5t1.5 0.5q2 0 11.5 1.5t11.5 1.5h4q23 0 35 -14t12 -35q0 -18 -8 -33.5t-22 -27.5q-3 -2 -11.5 -7.5t-10.5 -7.5q-11 -8 -23 -14
t-25 -10q-8 -2 -13.5 -2.5t-13.5 -0.5h-11q-29 3 -42 27q-2 5 -2.5 8.5t-0.5 8.5v6zM128 285q0 -5 1 -9.5t5 -6.5h4q7 0 14 1t15 3q13 3 28.5 8t28.5 13t22 20.5t9 29.5v4q-1 6 -8.5 11t-12.5 5q-8 0 -12.5 -6.5t-11.5 -6.5q-5 0 -7.5 2t-7.5 2q-2 0 -4 -1.5t-4 -2.5
q-2 -3 -9 -9.5t-9 -8.5q-1 -1 -2.5 -3t-2.5 -2q-2 -1 -6.5 -4t-5.5 -4q0 -1 -2 -1q-1 0 -1 -1q-7 -8 -14 -15.5t-7 -17.5z" />
    <glyph glyph-name="cent" unicode="&#xa2;" horiz-adv-x="284" 
d="M158 48v7v3q3 13 8.5 23.5t8.5 22.5q0 1 0.5 3t0.5 3v7h-21q-11 0 -19 4q-19 6 -29 23.5t-10 37.5q0 29 14 55l5.5 11t4.5 10v1q0 2 1 3q1 2 2 3q6 15 17 26q2 2 5.5 6.5t4.5 5.5t5 4.5t8.5 8l8 8l5.5 5.5q8 8 17 15t20 12q5 2 10 2.5t10 4.5l1 2q0 1 0.5 1t0.5 2
q0 1 1.5 7.5t1.5 8.5q3 16 7.5 31.5t11.5 29.5q3 4 10 4q9 0 13 -9v-5q0 -6 -1 -11q-7 -14 -12 -28.5t-5 -29.5q0 -1 -0.5 -2t0.5 -3q3 -3 4 -3t5 -2t5 -3q1 0 2 -1q2 -2 2 -3q5 -6 9 -14.5t4 -16.5q0 -14 -12 -14q-1 0 -2 1q-2 2 -3.5 4t-2.5 4l-6 12l-1 4q-3 6 -9.5 8
t-13.5 2q-6 0 -12.5 -1.5t-11.5 -6.5q-1 0 -3.5 -3t-3.5 -4q-2 -1 -10 -7t-10 -8l-5 -5q-3 -2 -9.5 -8.5t-8.5 -6.5q-1 -2 -5 -7.5t-5 -7.5q-10 -12 -18 -24t-14 -26q-5 -10 -7.5 -19.5t-2.5 -20.5q0 -31 29 -40q7 -2 12.5 -2h13.5h11q1 0 3 0.5t3 0.5q14 3 29 6.5t29 9.5
q1 2 8 4t10 4h2q1 0 1 1l12 13q1 0 2 1q1 0 1 0.5t1 0.5t2 1h5q14 0 19 -6q2 -2 2 -6q0 -5 -3.5 -7.5t-7.5 -5.5q-20 -13 -42.5 -21t-45.5 -15q-3 -1 -4.5 -3.5t-2.5 -3.5t-2.5 -4t-1.5 -4q-1 -2 -2.5 -6.5t-1.5 -6.5q-1 -3 -2 -8.5t-2.5 -12t-2.5 -12t-1 -7.5
q-2 -8 -5.5 -16.5t-13.5 -8.5q-13 0 -15 11v7z" />
    <glyph glyph-name="sterling" unicode="&#xa3;" horiz-adv-x="415" 
d="M152 42l-2 -1q-13 -18 -30.5 -25t-39.5 -7q-11 0 -20 1t-20 4q-1 0 -2 1q-1 0 -2 1h-1q-1 1 -3 5q-1 2 -3 3l-1 1v12l1 2q1 1 6 5q0 -1 5 2q2 0 4 1l4 2q16 5 31 11t32 10q7 2 13 2.5t12 1.5q6 3 9 10l31 78q0 1 2 6t4 11.5t4 12.5l3 9q1 4 4.5 17.5t5.5 18.5q1 5 3 14
t2 10v4l-2 1q-1 0 -3.5 0.5t-3.5 0.5h-1q-8 0 -15 -1t-15 -1h-7h-3l-8 8q-2 1 -1.5 2.5t0.5 2.5q0 9 5 12q4 2 11.5 3.5l12.5 2.5h8q4 0 13 0.5t12 0.5q3 1 5.5 4t4.5 5l24 91q10 32 26.5 57.5t42.5 45.5h2h1l2 -1q1 -1 2 -1h3q7 -4 7 -12q0 -10 -7 -13.5t-15 -8.5
q-6 -4 -9.5 -9t-7.5 -12q-14 -23 -24 -48t-16 -51q-1 -2 -3 -11.5t-2 -13.5q0 -1 -1 -6t-1 -7v-1q0 -2 3 -2.5t5 -1.5l6 -2t6 -1h26q8 -1 15.5 -2.5t14.5 -7.5q2 -2 2 -9q0 -4 -1.5 -6t-3.5 -6q-1 0 -4 -3l-4 -4q-2 -3 -8 -3h-4q-10 6 -21 10.5t-24 4.5q-4 0 -6.5 -0.5
t-6.5 -1.5q-10 -3 -10 -11q0 -2 -1.5 -7t-1.5 -7q-1 -5 -4.5 -18.5t-7.5 -28t-8 -28t-6 -18.5q-1 -4 -4 -14t-7 -21t-7.5 -21.5t-4.5 -14.5v-1q0 -1 1 -2l61 -20q15 -5 28 -12.5t25 -18.5h4q2 0 4 1t4 1t3.5 -1t3.5 -1q6 0 11.5 1.5t10.5 1.5q4 0 8 -1t6 -5q2 -3 2 -6.5
v-5.5v-7q-2 -2 -7 -6q-8 -3 -15.5 -4.5t-15.5 -2.5q-2 0 -10.5 -0.5t-11.5 -0.5h-1h-1q0 1 -1 1q-2 0 -2 1l-11 11q-17 13 -36.5 23t-40.5 13q-8 2 -15.5 2h-15.5h-10z" />
    <glyph glyph-name="section" unicode="&#xa7;" horiz-adv-x="394" 
d="M31 19q0 5 3 9t7 7q4 2 6 2h1q7 -2 12.5 -6t11.5 -8q8 -5 15.5 -6t15.5 -2q3 -1 10.5 -1h9.5h20h19q2 0 9.5 0.5t11.5 1.5q4 0 16.5 2.5t16.5 3.5q2 1 12 2.5t14 3.5q2 1 9 3t9 3q4 1 13.5 4t11.5 3q3 1 12 4.5t12 4.5q2 2 7 3.5t7 3.5q14 8 29.5 21.5t15.5 31.5
q0 15 -13.5 25.5t-25.5 16.5q-4 0 -7 3h-2q-1 0 -2 1q-5 3 -12.5 2.5t-12.5 2.5q-1 0 -2 1q-1 0 -2 1q-3 2 -4.5 3.5t-3.5 2.5q-3 1 -9 2.5t-13.5 3.5t-13.5 3.5t-9 1.5q-4 1 -14.5 3t-22 4.5t-22 4.5t-14.5 3q-28 4 -46 25l-4 4q-1 1 -1 3t-1 3t-1 3v2l1 1q0 1 0.5 1.5
t0.5 1.5q15 16 33 28t38 22q17 10 36 17.5t39 12.5q-1 0 -1.5 0.5t-2.5 0.5l-87 23q-12 4 -22.5 11t-15.5 18q-3 3 -3 8q0 2 4 5q14 14 32 23q31 16 61.5 27.5t62.5 22.5q2 1 15.5 4.5t20.5 5.5q12 2 21.5 3.5t22.5 1.5h14h9q2 0 7.5 -1t7.5 -2q8 -2 15 -4.5t15 -6.5
q16 -8 16 -25v-5l-2 -4q0 -3 -3 -6q-1 -2 -4 -6t-5 -4h-4h-3q0 1 -1 1q-2 0 -2 1l-1 1q-3 5 -5 11t-5 11q-5 8 -16.5 10.5t-19.5 2.5q-2 0 -6.5 0.5t-6.5 0.5h-8q-14 0 -27 -4q-6 -1 -21 -5t-18 -5t-11 -4t-17 -6t-17 -6t-11 -4t-15.5 -6t-16.5 -7q-1 -1 -9 -5l-12 -6
t-10.5 -6t-6.5 -9q0 -3 4 -3q1 0 2 -0.5t2 -0.5l115 -36q2 0 11 -3.5t13 -5.5q2 -2 8.5 -4.5t8.5 -2.5q12 -6 24 -12.5t23 -16.5q21 -16 25 -40v-10v-11q-1 -1 -1 -2v-3q-3 -16 -8.5 -26.5t-16.5 -21.5q-4 -4 -9.5 -6.5t-10.5 -4.5q3 -3 7 -5t7 -6q9 -10 15 -19.5t6 -22.5
q0 -19 -8.5 -31.5t-21.5 -25.5q-6 -6 -14.5 -11t-16.5 -9q-26 -14 -52.5 -23.5t-55.5 -16.5q-14 -3 -29.5 -5t-32.5 -2h-7l-106 7l-2 1h-2q-1 0 -1 1q-11 9 -11 22zM311 184h2q6 0 12 1.5t12 3.5q19 5 31 17.5t12 33.5q0 12 -9 23q-2 3 -5 6.5t-4 3.5h-19q-3 0 -6.5 4.5
t-5.5 6.5q-1 0 -2.5 1.5t-2.5 1.5q-8 5 -19 5.5t-20 0.5h-10h-14q-6 -1 -12.5 -2.5t-11.5 -3.5q-1 0 -3 -1.5t-3 -1.5q-20 -8 -42 -19t-38 -28q-3 -3 -3 -7q0 -2 3 -3.5l5 -2.5q1 -1 6 -2t6 -2q1 0 2.5 -0.5t2.5 -0.5l102 -24z" />
    <glyph glyph-name="bullet" unicode="&#x2022;" horiz-adv-x="293" 
d="M103 181q0 11 2.5 21.5t4.5 21.5l1 2q5 16 13 31t19 27l7 7l7 7q8 7 18.5 13t18.5 10q2 0 4 1q1 0 3 1h6h6l6 -3t5 -5q1 -2 1 -4v-4q0 -5 -1.5 -5.5t-6.5 -2.5q-7 -2 -12 -4t-10 -7q0 -3 3 -3.5t4 -0.5h4q11 4 21.5 7t22.5 3h6.5t6.5 -1q1 -1 2 -1h3q1 0 2.5 -1t2.5 -1
q1 -1 3 -1t4 -1q1 -1 1 -3v-3v-3q0 -1 1 -3v-9q0 -26 -10 -46.5t-28 -38.5q-2 -2 -6 -4q-8 -7 -17.5 -13t-18.5 -12q-5 -4 -10 -6.5l-11 -5.5q-14 -7 -32 -7q-6 0 -11 0.5t-11 3.5q-14 6 -19 16.5t-5 26.5z" />
    <glyph glyph-name="paragraph" unicode="&#xb6;" horiz-adv-x="361" 
d="M131 -124q0 14 8.5 26t13.5 26l89 232l7 20v1l-1 1q-9 3 -16.5 5t-14.5 6q-29 12 -51 35t-22 56q0 15 3 32q1 2 3 13.5t2 16.5q3 12 11.5 24t17.5 21q17 19 38 34.5t44 29.5q35 23 76 40q2 0 9.5 3t9.5 4q11 4 22.5 7t22.5 3q26 0 35.5 -16.5t9.5 -38.5q0 -21 -7.5 -37
t-19.5 -33q0 -6 -2 -10l-51 -155h1l64 29h5q0 -6 -7 -11q-1 0 -4.5 -3t-5.5 -5q-15 -11 -30 -19.5t-32 -16.5l-2 -2q0 -1 -0.5 -1t-0.5 -1v-1q0 -2 -0.5 -7t-0.5 -6l-43 -109l-30 -93q-1 -2 -2 -7.5t-2 -7.5q0 -2 -1.5 -9t-3 -15t-3 -15.5t-1.5 -8.5q-1 -8 -6.5 -11.5
t-12.5 -3.5q-17 0 -17 18q0 4 1 7l47 146q0 1 2 5.5t2 6.5q4 8 9 15t8 15q1 2 2 6.5t2 6.5t3.5 13t2.5 13q2 3 6 15.5t6 15.5v1h-1q-1 0 -6.5 -1.5t-7.5 -1.5q-1 0 -4.5 -0.5t-4.5 -0.5h-30l-3.5 -7l-3.5 -7q-2 -4 -4 -7.5t-3 -7.5v-8t-2 -9l-23 -52l-49 -147q-1 -2 -3 -7.5
t-3.5 -12.5t-2.5 -13t-1 -8q-1 -2 -2 -6t-2 -6q-3 -6 -8.5 -13.5t-14.5 -7.5q-5 0 -8.5 3.5t-5.5 8.5v5z" />
    <glyph glyph-name="germandbls" unicode="&#xdf;" horiz-adv-x="476" 
d="M269 -92q0 16 11 22l1 1q1 0 1 0.5t1 0.5q14 6 27 13t24 16q5 6 9 13q1 2 4.5 11.5t4.5 11.5q2 4 4 7t2 8q0 8 -7 17q-4 4 -10.5 11.5t-6.5 8.5l-126 120v2q0 2 1 4l2 4q3 8 9 14q2 4 12.5 13.5t13.5 13.5q2 2 10.5 9.5t11.5 10.5q3 2 8 5.5t10.5 7.5t10 7.5t5.5 4.5
l115 74q1 0 2.5 2t2.5 4q8 8 15 16.5t7 19.5q0 10 -3 19.5t-8 18.5q-4 8 -9.5 13.5t-10.5 11.5q-2 1 -3 2q-2 1 -4 3q-17 11 -37.5 18t-40.5 7q-8 0 -17.5 -1t-17.5 -5q-11 -5 -21 -13t-19 -16q-8 -8 -16 -17t-15 -20q-2 -3 -7 -10t-10.5 -15t-10 -15t-6.5 -10q-1 -1 -1 -2
q0 -2 0.5 -4.5t0.5 -5.5v-1l-13 -28l-31 -79q-2 -5 -3 -9t-2 -9q-13 -36 -25 -73t-12 -76q0 -8 1 -16t2 -15q0 -2 1 -5t1 -4t2.5 -7.5t2.5 -8.5q1 -3 1 -8q0 -8 -6 -13.5t-15 -5.5q-5 0 -6.5 2.5t-5.5 7.5l-2 2q-1 1 -1 2q-1 1 -1 3q-1 9 -2 18.5t-1 18.5q0 18 3 38
q1 3 2.5 11t3.5 17t3.5 17t2.5 11q0 3 2.5 11.5t4.5 18t4.5 17.5t2.5 11q2 6 6 17.5l8 23t7.5 20.5t4.5 11l36 83q0 1 2 6t5 11l6 12l5 10q7 13 14 24.5t15 22.5t16.5 19.5l17.5 17.5q35 33 84 33q26 0 56 -11q19 -8 35 -20.5t31 -26.5q11 -11 18 -26t7 -31q0 -20 -13 -38
t-28 -30q-2 -2 -7 -6t-6 -4l-90 -60q-1 -1 -5 -4t-9.5 -7t-10 -7.5t-7.5 -5.5q-2 -1 -13 -9.5t-16 -13.5q-2 -1 -4.5 -3t-2.5 -3q-2 -2 -5 -4.5t-4 -3.5q0 -1 -1 -3t-1 -3v-1v-2q2 -2 9.5 -10.5t9.5 -11.5q25 -26 51.5 -48.5t55.5 -45.5q17 -15 23 -41q0 -2 1 -5l2 -6
q1 -4 2 -7v-4q-7 -8 -13 -15q-5 -6 -10.5 -12t-9.5 -11q-14 -16 -30 -30.5t-35 -26.5q-1 -1 -4.5 -2.5t-5.5 -2.5q-7 -4 -12 -4q-8 0 -13 3.5t-5 11.5z" />
    <glyph glyph-name="registered" unicode="&#xae;" horiz-adv-x="431" 
d="M159 328q0 48 26 90.5t66 67.5q26 17 54.5 26.5t60.5 9.5h12q1 0 3 -0.5t3 -0.5q12 -2 24.5 -6.5t23 -11t17 -16.5t6.5 -23v-6q-2 -9 -10 -9q-1 0 -1 2q-2 2 -3 5t-3 5q-11 19 -29 29t-39 10q-11 0 -20.5 -2t-18.5 -4q-3 -1 -10 -2t-9 -2t-6 -2t-6 -2q-2 0 -9.5 -4
t-9.5 -6q-5 -2 -11 -3.5t-11 -6.5q-20 -14 -33.5 -33.5t-26.5 -40.5q-7 -13 -12 -27.5t-5 -29.5q0 -12 1.5 -23.5t8.5 -22.5q2 -3 5.5 -7.5t7.5 -4.5q1 0 1 1l2 2q1 1 1 2q2 5 5.5 14t3.5 11q2 4 5.5 15.5t4.5 15.5q5 15 5 26v15q0 3 0.5 7t5.5 6q1 1 2.5 1.5t2.5 2.5
q3 5 4.5 10t3.5 10q0 2 2 8.5t4 14t3.5 14t2.5 8.5q1 1 1 3q0 3 1 4l1 1h2q1 0 1 0.5t1 0.5h16h16q1 0 6.5 -0.5t7.5 -1.5q8 -1 18.5 -3t20.5 -6t18 -10t12 -15q1 -2 0.5 -3.5t-0.5 -3.5v-7q0 -1 -0.5 -3.5t-1.5 -3.5q-5 -12 -17.5 -20.5t-23.5 -15.5q-9 -5 -16 -6
q-11 -2 -22 -3t-21 -6l-1 -1q11 -14 22.5 -25t21.5 -24q2 -3 3 -5l2 -4t4.5 -8t4.5 -8q3 -5 8 -10t12 -5q8 0 18 8q3 2 9 6.5t8 6.5q18 17 30.5 40t12.5 48q0 40 -33 64q-2 2 -12.5 8t-12.5 8q-2 1 -2.5 3.5t-0.5 4.5q0 5 1.5 8.5t6.5 4.5h6h6q2 0 6.5 -2t8.5 -4q5 -2 9 -7
l8 -10q9 -8 16 -21t11 -25v-2q0 -1 0.5 -2t0.5 -2l1 -4v-36q-1 -1 -1 -2v-4q-4 -26 -17 -47t-31 -38t-40 -29.5t-45 -19.5q-25 -7 -53 -7h-11.5t-12.5 2q-33 7 -57 29t-31 55q-1 5 -1 11v11zM233 257q0 -1 5 -3q9 -5 17 -7t19 -2q12 0 24 1t23 6q2 2 4.5 3.5t2.5 3.5
q0 5 -2 8.5t-4 5.5q-1 2 -4.5 7t-3.5 6q-2 2 -6.5 7.5t-6.5 7.5q-10 11 -20.5 22.5t-22.5 21.5l-1 1q-1 0 -1 1h-2q-3 0 -3 -1q-1 -1 -1 -2v-3q0 -2 -1.5 -7.5t-2.5 -7.5q0 -3 -1 -8.5t-2.5 -11t-2.5 -10t-1 -5.5q-1 -3 -3 -16t-3 -17v-1zM269 391q1 -3 3 -3h10q30 0 59 13
q3 1 6.5 3t5.5 4l7 7t3 8t-5.5 8.5t-9.5 5.5q-1 0 -5.5 1.5t-6.5 2.5l-4 1q-2 1 -6.5 1.5t-6.5 0.5t-6.5 1t-5.5 1h-4q-9 0 -13 -1t-6 -8q-1 0 -2.5 -3t-1.5 -5q-1 0 -2 -2t-1 -4q-1 -1 -2 -4t-1 -4q-1 -1 -2 -4t-1 -4q-2 -6 -2 -10v-3v-3z" />
    <glyph glyph-name="copyright" unicode="&#xa9;" horiz-adv-x="474" 
d="M103 198q0 19 6.5 36.5t17.5 34.5q20 29 45.5 55t54.5 47q12 9 25.5 17t27.5 15q26 14 57 14q12 0 23.5 -2t22.5 -8q9 -5 14.5 -11.5t10.5 -14.5q1 -1 4 -5.5t3 -5.5q4 -5 8.5 -7t11.5 -5q3 -2 6.5 -4.5t7.5 -4.5q19 -19 28 -43.5t9 -49.5q0 -30 -15 -54
q-5 -10 -11 -18.5t-12 -17.5q-17 -20 -39.5 -34.5t-48 -23.5t-52.5 -13.5t-53 -4.5q-24 0 -51 6t-49.5 19t-37 33.5t-14.5 49.5zM129 195q0 -9 5 -21t10 -18q2 -1 6.5 -5t6.5 -6l3 -3q21 -14 45 -19.5t48 -5.5q30 0 66.5 7.5t68 24t53 42.5t21.5 64q0 11 -2.5 24.5
t-10.5 23.5q-4 2 -6.5 5t-6.5 3q-1 0 -4.5 1t-5.5 1l-1 1q-1 1 -2 2.5t-2 1.5q-2 2 -3.5 5.5t-4.5 5.5t-6 2t-6 2t-6 5v13.5t-2 11.5q-5 14 -20 22.5t-29 8.5q-20 0 -40 -8t-36 -16q-30 -17 -57 -39q-17 -15 -33 -32t-29 -37q-5 -9 -10.5 -19t-8.5 -21q-1 -2 -1 -5v-4v-9v-9
zM217 216q0 21 10 40t26 32.5t36 21.5t40 8q23 0 33 -8.5t10 -31.5q0 -5 -1.5 -16t-9.5 -11q-9 0 -11 10v8q0 3 0.5 6t0.5 8q0 3 -1 4q-10 10 -26 10q-12 0 -27 -7t-28 -17.5t-22 -24t-9 -25.5q0 -20 16 -25.5t33 -5.5q20 0 43 10q2 1 8 3t7 2q3 1 5 1t3 -1q5 -4 6.5 -8
t1.5 -11v-7q-2 -2 -5 -3.5l-5 -2.5t-8.5 -2t-14 -2.5t-14 -2.5t-9.5 -1q-1 0 -3.5 -0.5t-3.5 -0.5h-14h-11q-4 0 -8 1t-9 2q-5 2 -11.5 4.5t-10.5 5.5q-1 2 -4.5 5.5t-5.5 4.5l-1 2q-4 8 -5 12.5t-1 12.5z" />
    <glyph glyph-name="trademark" unicode="&#x2122;" horiz-adv-x="474" 
d="M476 312q0 17 1.5 34t1.5 34v15q0 4 -2 14q0 4 -1 5l-2 -1q-10 -8 -17 -21q-1 -1 -3.5 -6.5t-6 -11.5t-6.5 -11.5t-4 -6.5l-3 -6t-3 -5q0 -2 -2.5 -5t-2.5 -4q-1 -1 -3 -3.5t-3 -3.5t-2 -3t-2 -3q-2 -2 -4.5 -3.5t-4.5 -1.5t-3 1q-10 22 -12 47q0 1 -0.5 6t-1.5 10
t-1.5 9.5t-0.5 5.5v5t-1 6q0 1 -0.5 2t-0.5 2q-1 2 -1 4.5t-1 5.5q-1 4 -2 7h-1q-6 -4 -8 -14q-1 -1 -1 -2.5t-1 -3.5q-1 -3 -2 -5q-1 -5 -4.5 -17t-4.5 -15q0 -1 -1 -6t-2.5 -11t-2.5 -11.5t-1 -7.5q0 -1 -2.5 -10.5t-4.5 -14.5q-1 -1 -1 -2v-2h-8q-2 0 -3 -2t-3 -2
t-3.5 2.5t-1.5 4.5v12l27 128v2q0 3 -4 5t-8 2h-59q-1 0 -4 -0.5t-5 -0.5q-9 0 -13 -2q-8 -2 -9 -7q-1 -1 -1 -3.5v-3.5l-8 -74q0 -2 -1.5 -10t-2.5 -12q-1 -2 -2 -6.5t-1 -5.5q0 -2 -1.5 -6t-3.5 -6q0 -3 -3.5 -9t-7.5 -7h-4q-2 0 -4.5 0.5t-2.5 3.5v8v7q0 3 1 12t3 12
q1 3 3 12t4 19t4.5 19t3.5 13q3 16 3 35q0 9 -10 9q-14 0 -27.5 -3.5t-26.5 -3.5q-5 0 -8.5 2.5t-3.5 6.5v2q3 3 3 6q2 0 3 1t1.5 1t1.5 1q15 9 35 9h69q6 0 19.5 0.5t29.5 1.5t30 2t20 1q5 0 11 1.5t11 1.5h5q3 -2 4.5 -6.5l2.5 -7.5q2 -5 2.5 -10t1.5 -9l12 -76l1 -2l9 9
q2 2 4.5 6t3.5 5q2 2 7.5 11t6.5 11q1 1 3.5 5.5t6 10.5t6 11t3.5 6q4 7 12 13q2 2 4 2q6 0 6 -2q7 -11 9.5 -28t3.5 -31v-11t0.5 -17t0.5 -18v-13v-7v-5v-24q0 -1 -0.5 -5t-0.5 -6q-2 -14 -15 -14q-7 0 -8.5 4.5t-2.5 9.5v14z" />
    <glyph glyph-name="acute" unicode="&#xb4;" horiz-adv-x="292" 
d="M182 394q-1 5 -1.5 10t-0.5 10v6q0 5 3 7q2 0 5 1.5l5 2.5q4 2 14 6.5t12 5.5l15 5t17 5q1 0 6.5 1.5t11.5 3t11 3.5t7 2q14 4 26.5 10t26.5 10q2 1 6.5 2t5.5 1h1q1 0 1.5 0.5t1.5 0.5q2 0 4 1h11h11q10 -1 10 -13q0 -11 -4.5 -13.5t-15.5 -4.5l-120 -40q-1 0 -6 -2.5
t-11.5 -5t-13 -5.5t-10.5 -4q-1 -1 -7.5 -3.5t-7.5 -3.5q-3 -1 -8 -1q-4 0 -6 2z" />
    <glyph glyph-name="dieresis" unicode="&#xa8;" horiz-adv-x="329" 
d="M327 394q0 5 1 7q6 15 17 26l2 1l6 3l6 3t5 2t5 1t4.5 -1.5t4.5 -2.5l3 -1q3 -2 3.5 -6.5t0.5 -7.5q0 -12 -7 -21.5t-14 -17.5q-7 -7 -14 -7q-2 0 -8.5 1.5t-8.5 3.5q-6 6 -6 17zM235 429q-1 -2 -2 -3t-1 -2t-1 -1q-5 -15 -10.5 -28t-23.5 -13q-13 0 -19 10v2v16v3
q4 11 10.5 20t14.5 17l2 2h16q1 -1 2 -1t1 -0.5t1 -0.5q3 -2 6.5 -4.5t3.5 -6.5v-6v-4z" />
    <glyph glyph-name="AE" unicode="&#xc6;" horiz-adv-x="771" 
d="M265 -32q0 3 1 6l17 37q2 3 2 9q1 2 2 5.5t2 7.5l2 8l48 140v1l-2 1h-6h-26q-5 0 -15 -0.5t-21.5 -1.5t-22 -1.5t-14.5 -0.5q-2 0 -8 -0.5t-12.5 -0.5t-13 -0.5t-7.5 -0.5q-8 -1 -17.5 -2t-16.5 -7q-2 -1 -4.5 -4t-3.5 -3l-86 -103l-3.5 -3.5t-2.5 -3.5q-3 -2 -12 -10.5
t-11 -11.5q-5 -4 -8 -4q-9 0 -13 5q-1 0 -1 2q0 1 -1 2v7q1 1 1 2t1 2t2 3t3 4q1 2 4 5l4 4l79 88q1 2 7.5 9.5t9.5 12.5q1 2 2 3t1 3q0 3 -1.5 6.5t-1.5 6.5q0 13 10.5 15t20.5 2q5 2 9 5t8 7l150 164l20 25l44 44q5 5 10.5 11.5t8.5 14.5q6 10 8 20t17 10h3q2 0 3 -1t2 -1
q8 -8 9 -18.5t2 -20.5h1l5 2.5t6 1.5q5 0 10 -3.5t10 -3.5q4 0 7 0.5t7 0.5q8 0 15 -1t15 -1h8l154 13q3 0 18 1t21 1h39h38q5 0 9.5 -0.5t9.5 -2.5q8 -2 11 -9.5t3 -13.5t-2 -12t-10 -6q-5 0 -8.5 3t-7.5 5q-7 5 -15.5 6.5t-17.5 1.5h-21h-18l-259 -16l-2 -1l-4 -4t-4 -5
q-38 -76 -65 -154v-1q0 -2 2 -2h7q8 0 17 0.5t17 2.5q3 1 11.5 2.5t18 3t18 3t12.5 1.5l114 8h4.5t10.5 0.5t12 0.5h9h14h12q7 0 17.5 -3t14.5 -12q0 -1 0.5 -1t0.5 -1t1 -2v-10v-1q0 -1 -1 -2q0 -1 -7 -3t-12.5 -2h-11.5q-16 0 -31.5 1.5t-32.5 1.5h-10q-5 0 -15 -0.5
l-20 -1t-18.5 -1t-10.5 -0.5q-3 0 -11 -1t-17 -2t-17.5 -2t-12.5 -1q-3 -1 -17.5 -3t-20.5 -3q-2 0 -9.5 -2t-11.5 -3q-2 0 -12.5 -2.5t-13.5 -4.5q-1 0 -3.5 -0.5t-3.5 -1.5q-2 -1 -4.5 -2t-3.5 -3q-1 -1 2 -2.5t4 -1.5h25q2 0 4 -1l4 -2l3 -3t2 -3v-3q0 -11 -7 -16t-16 -8
q-2 -1 -3 -1h-3l-4 -1h-25q-1 0 -1 -1q-1 -1 -1 -2q-1 0 -1 -1q-1 -1 -1 -2l-19 -67q-2 -14 -7 -27l-10 -26q-2 -5 -3 -9t-1 -8v-4q4 -4 8 -4h3l145 17l175 14q2 0 10 0.5t12 0.5h14q12 0 24.5 -2.5t12.5 -18.5q0 -5 -2 -8q-3 -5 -15 -6.5t-18 -1.5q-7 0 -13 2.5t-15 2.5
q-12 0 -23.5 -3t-24.5 -4l-162 -8q-29 -11 -59 -16.5t-60 -7.5q-3 0 -14.5 -0.5t-14.5 -0.5q-1 -1 -3 -4q-2 -6 -3 -14.5t-8 -10.5q-1 0 -3.5 -2t-3.5 -2q-3 -1 -6 -1q-7 0 -12.5 3.5t-5.5 10.5zM199 213q0 -5 4.5 -6t8.5 -1h3q1 0 2.5 0.5t3.5 0.5t9 1t9 2l111 5
q0 2 -1 8.5t-2 8.5q0 1 -0.5 4t-0.5 4v1q0 7 6.5 7.5t10.5 4.5q7 7 8 15l29 87q1 2 4 15t5 19q1 4 2 11l2 14t2 12t1 6v12v1l-1 1h-1l-2 -1l-10 -10l-198 -215l-5 -5v-2z" />
    <glyph glyph-name="Oslash" unicode="&#xd8;" horiz-adv-x="520" 
d="M18 -102v2.5t2 2.5l72 89v9l-6.5 6.5l-6.5 6.5q-1 1 -1 2t-0.5 1t-0.5 1q-5 6 -8 14.5t-3 16.5v13v13v6q0 2 1 8.5t2 8.5q9 34 21 66t26 63q1 3 3.5 8.5t5.5 12t5.5 12.5t4.5 8q1 2 4.5 8t7 12.5t7 12.5t5.5 9q1 1 4 6t6.5 11t7 11t5.5 8q2 4 10 13.5t10 11.5q0 1 4 6
t9 11l10 12t8 9q1 2 3.5 5t4.5 4l31 31q17 17 37.5 30t44.5 13q9 0 17 -1.5t16 -6.5t14.5 -9t16.5 -4q7 0 10 2l4.5 4.5l4.5 4.5q16 25 33 48.5t40 43.5q4 5 9 5q11 0 14 -8q3 -5 3 -7q0 -14 -5 -22.5t-15 -17.5q-4 -3 -8.5 -5t-8.5 -6q-1 0 -4 -3l-2 -2q-1 -1 -2 -3.5
t-2 -3.5q0 -1 -1 -2t-1 -2q-2 -2 -9 -11t-9 -11t-4.5 -7t-2.5 -9v-1q8 -4 15.5 -8.5t14.5 -10.5q24 -20 35 -47t11 -57q0 -16 -3 -31.5t-8 -29.5q-17 -45 -45.5 -78t-63.5 -64q-37 -32 -77.5 -58t-84.5 -46q-14 -6 -28.5 -12t-28.5 -10q-2 -1 -6 -2t-6 -1q-3 -1 -10 -2.5
t-14.5 -3t-14 -3t-9.5 -2.5q-14 -3 -24 -15t-17 -23q0 -1 -2.5 -6t-5.5 -10.5t-5.5 -11t-2.5 -6.5q-11 -19 -26 -34q-1 -1 -2 -1t-1 -0.5t-1 -0.5h-1l-8 -4t-8 -2q-3 0 -6.5 1t-5.5 4q-1 0 -2 3.5t-2 5.5t-1 6zM153 27q0 -2 1 -2h6l10 2t9 1.5t7 1.5q2 1 8 2t8 2
q15 4 30.5 8.5t30.5 11.5q46 23 86 53t78 65q35 32 62 74t27 92q0 67 -58 100q-1 1 -4 1q-7 0 -9 -1q-9 -8 -17.5 -17.5t-15.5 -20.5q-1 -2 -4.5 -8t-8 -12t-8.5 -11.5t-5 -7.5l-232 -331q-1 -1 -1 -3zM92 62q1 -4 2.5 -7t2.5 -6v-3q0 -1 1 -3q0 -3 3 -6.5t5 -5.5q0 -1 2 -1
q1 0 2 -1l3 3q1 2 6.5 8t12 13t12 14t8.5 11q4 4 11.5 13.5l15 19t13.5 17.5t7 11l150 223l2 2q0 1 1 1t2 1t3 2q4 3 7 6.5t3 8.5q0 2 -2 6q-2 -2 -4.5 -3.5t-4.5 -1.5h-4l-4 2q-2 1 -4 1t-3 1q-2 0 -5 3q-14 6 -26 13.5t-25 13.5l-1 1q-3 0 -7.5 -2.5t-6.5 -4.5l-8 -8
l-7 -7q-2 -2 -4 -5.5t-4 -4.5q-3 -5 -9.5 -13t-7.5 -8l-60 -89q-1 -2 -6.5 -11.5t-7.5 -13.5q-1 -2 -4 -7.5t-6 -12t-5.5 -12.5t-3.5 -7q-7 -11 -14 -23.5t-12 -25.5q0 -3 -2 -8.5t-4 -12t-4 -12t-3 -7.5q0 -2 -0.5 -6t-1.5 -6q0 -2 -1 -5t-1 -4t-0.5 -5.5t-0.5 -5.5
t-0.5 -6t-0.5 -6v-9v-9zM319 438q0 -3 1.5 -5t3.5 -4q5 -5 10 -9t11 -8q8 -4 14.5 -7.5t14.5 -7.5l2 2q1 0 2.5 3.5t3.5 4.5q1 1 7.5 9t8.5 9q4 5 7 10.5t3 11.5v5q-2 1 -8 1h-20q-14 0 -30 -1t-28 -11q-1 -1 -2 -1t-1 -1v-1z" />
    <glyph glyph-name="quotedblleft" unicode="&#x201c;" horiz-adv-x="390" 
d="M301 275q0 51 29 92q5 8 12 15t17 12q0 1 3.5 2t4.5 3q1 1 5.5 3.5t10 6t10 6t5.5 3.5q8 5 16 8t16 3h6h2q5 -2 8.5 -6.5t3.5 -9.5q0 -3 -1.5 -5t-3.5 -5q-5 -5 -12.5 -9.5t-13.5 -6.5q-3 -1 -14 -4t-14 -4q-15 -7 -30 -21q-1 -1 -6.5 -6t-7.5 -8q-5 -7 -11 -19.5
t-6 -23.5v-11v-10v-6q8 -34 19 -60v-4q0 -3 -2 -9t-7 -6h-5q-2 0 -3 1q-4 1 -10 9q-12 14 -16.5 33t-4.5 37zM168 323q0 10 5 20q0 11 6 22q2 3 5 9t3 7l23 36l1 2l2 2l7 7q5 5 13 7t15 6q1 0 5 2t8.5 4.5t8.5 4.5t5 2q5 2 12 4.5t12 2.5h2q8 -2 13.5 -4t5.5 -10
q0 -7 -4 -12t-10 -7q-12 -7 -24.5 -11t-24.5 -9q-1 0 -6 -3t-7 -4q-16 -8 -27 -25.5t-14 -34.5q-2 -6 -2 -11.5v-13.5v-10v-5t1 -5q2 -7 4.5 -15.5t7.5 -16.5q1 -2 3.5 -5.5t2.5 -4.5q0 -2 2.5 -5.5t3.5 -5.5l8 -8q1 -1 2 -3q0 -1 2 -3l1 -1q1 -1 1 -3q0 -9 -8 -15
q-1 -1 -3 -1t-4.5 1.5t-4.5 2.5q-5 2 -9 3t-7 4q-3 4 -7 7t-6 8q-2 4 -7 12.5t-6 9.5q-6 12 -8 24.5t-2 26.5v15z" />
    <glyph glyph-name="quotedblright" unicode="&#x201d;" horiz-adv-x="390" 
d="M120 284q0 4 1 4.5t3 2.5q12 17 31 24.5t37 17.5q1 0 4 3q21 15 40 36t19 50q0 25 -13 47.5t-29 40.5l-1 1v5q0 5 1 9.5t6 6.5q1 0 5 1t6 1h2q5 0 9.5 -3.5t8.5 -6.5q20 -15 29 -39.5t9 -48.5q0 -40 -20 -74q-6 -11 -12.5 -19t-15.5 -16q-3 -3 -3 -4q-1 0 -4.5 -2.5
t-7.5 -5.5t-7.5 -5.5t-4.5 -2.5q-2 -1 -10.5 -7.5t-9.5 -8.5q-12 -7 -26 -14t-28 -7q-9 0 -18 9q-1 3 -1 5zM293 287v4t2 4q7 9 20 16q1 1 6 4t11 6.5t10.5 6t5.5 3.5q21 14 31.5 35.5t10.5 45.5q0 17 -5.5 33.5t-15.5 30.5q-5 7 -10 12.5t-11 11.5q-2 1 -6.5 5t-6.5 5t-2 6
q0 10 8 16h1h1q0 -1 1 -1h2q1 -1 2 -1q4 -2 8 -1.5t8 -1.5q13 -6 20 -16q1 -2 7 -8.5t8 -9.5q8 -8 12 -19t6 -22q2 -8 3 -16t1 -16q0 -14 -2 -27t-7 -24q-2 -3 -7.5 -16t-7.5 -18t-5.5 -10.5t-8.5 -9.5q-1 0 -2 -1t-1 -3q-1 0 -6 -2.5t-6 -2.5q-11 -8 -21.5 -17t-24.5 -15
q-1 -1 -3 -1q-1 0 -2 -1h-16h-1q-1 1 -2.5 3t-2.5 2q-2 3 -2 10z" />
    <glyph glyph-name="quoteleft" unicode="&#x2018;" horiz-adv-x="235" 
d="M168 393q2 27 14.5 49.5t26.5 45.5q5 5 9.5 9t10.5 6q1 1 6.5 2.5t6.5 2.5q3 2 14.5 7.5t14.5 7.5q12 6 27 9h1l14 -3.5t6 -12.5t-11 -17q-2 -1 -7 -4t-6 -3q-14 -5 -26 -9t-24 -11q-17 -9 -28 -26t-15 -34q-1 -8 -1.5 -12.5t-0.5 -12.5v-12l1 -4q4 -23 13.5 -40
t24.5 -34v-3q0 -6 -9 -15h-1h-1q-2 0 -2 1q-1 0 -2.5 2t-2.5 2q-3 2 -6.5 2.5t-7.5 2.5q-10 3 -15 14q-9 14 -16.5 29t-7.5 33v14v14z" />
    <glyph glyph-name="quoteright" unicode="&#x2019;" horiz-adv-x="184" 
d="M160 380q0 7 5 12.5t10 8.5q1 1 5.5 4.5t9.5 7.5t9 7.5t6 4.5q11 8 18.5 18.5t7.5 23.5t-8 19.5t-17 14.5q-4 4 -6 7.5t-2 9.5q0 4 2 9t7 5h2l7 -2q5 -2 8 -4t8 -5q13 -8 21 -20.5t8 -27.5q0 -18 -7.5 -33.5t-19.5 -28t-26 -23t-27 -18.5q-1 -2 -3.5 -3t-4.5 -1h-1
q-12 2 -12 14z" />
    <glyph glyph-name="fi" unicode="&#xfb01;" horiz-adv-x="433" 
d="M86 16q0 8 3.5 15t6.5 14l85 257v1h-2l-4 -2q-4 -2 -6 -2q0 -1 -1 -1h-2q-2 -1 -7.5 -3.5t-11.5 -5t-11.5 -5t-6.5 -3.5q-14 -7 -26 -7q-14 0 -14 15v2q2 2 3 4t3 3l1 1l2 2q3 2 6 3.5t8 3.5q2 1 6.5 3t6.5 2q1 1 7 3t13 4t12.5 4t6.5 2q2 1 6 2.5t6 2.5q8 4 15 8t11 12
q2 2 4 8t3 7t3 5.5t4 9.5l4 10t2 6q4 4 4 9v7v2q3 7 9 20.5t6 15.5q1 3 5 9.5t7.5 14t7 14t5.5 9.5l4 8t6.5 12t6.5 11.5t5 7.5t9 12.5t9 14.5q1 0 6 7t7 9q11 15 29 29.5t38 14.5q11 0 17.5 -4t14.5 -12q3 -3 7 -9q1 -3 2.5 -9t3 -12.5t3.5 -12.5l3 -9l4 -16t2 -17v-5
q-1 -8 -10 -8q-15 0 -20 16q-1 0 -1 1v3q-1 2 -1 3l-2 4l-9 48q0 5 -2 8.5t-7 3.5h-1q-20 -4 -34 -18t-25 -28q-10 -12 -18.5 -25t-16.5 -27q-2 -2 -6.5 -12.5t-5.5 -12.5q-1 -1 -3.5 -5.5t-5.5 -9.5t-5.5 -9.5t-3.5 -5.5q-5 -9 -7 -18t-6 -17l-3.5 -7l-5.5 -11t-6 -11.5
t-3 -6.5q-2 -5 -4 -9.5t-2 -10.5h9h5q3 1 10 2.5t8 2.5q3 1 10 2.5t14.5 3.5t14 3.5t8.5 2.5q1 1 9 3t10 2q4 2 12 2t14.5 -4t6.5 -13q0 -10 -9 -16q0 -3 -5 -3h-19l-82 -14q-1 -1 -2 -1h-3q-9 -3 -16 -7.5t-12 -12.5q-1 -1 -2.5 -4.5t-2.5 -5.5t-1 -3t-1 -2t-1 -2
q-3 -8 -8 -22t-6 -15l-43 -142q-1 -3 -2.5 -10t-3.5 -14.5t-4 -14t-3 -9.5q-1 -2 -5 -14t-5 -14q0 -1 -0.5 -4.5t-1.5 -4.5q0 -1 -0.5 -1t-0.5 -1v-1v-11q-1 -7 -9.5 -10.5t-13.5 -3.5q-8 0 -10 7t-2 12zM314 22q0 3 1.5 7t3.5 8l94 242l22 73q0 1 2 4t3 5q2 4 3.5 5.5
t3.5 4.5h4h2q1 0 3.5 -0.5t2.5 -1.5q5 -2 6.5 -6t1.5 -9q0 -11 -7 -23q-1 -1 -3.5 -6.5t-3.5 -6.5l-1 -2l-84 -222q-1 -3 -1 -6t-1 -5q-1 -5 -3 -10t-3 -10q-1 -2 -3 -13t-3 -12q-1 -2 -1.5 -6.5t-1.5 -5.5q-2 -8 -6.5 -15.5t-12.5 -7.5t-13 5.5t-5 13.5zM469 501v4
q3 8 8.5 18t13.5 14h2q1 0 2 1h5h5q2 -1 3.5 -2t2.5 -4v-7q0 -13 -6.5 -28t-23.5 -15q-12 0 -12 14v5z" />
    <glyph glyph-name="fl" unicode="&#xfb02;" horiz-adv-x="451" 
d="M318 5q0 12 9 26q1 2 5.5 10.5t6.5 10.5q0 1 1 2q1 2 1.5 4t2.5 5q1 3 3 7l92 246l87 271q0 2 0.5 4t0.5 3v12l5 10q2 5 6.5 6.5t9.5 1.5h5q8 -5 8 -17v-6q-1 0 -1 -1v-2q0 -2 -1 -7t-2 -7q-2 -4 -6 -15t-8.5 -23t-8.5 -23.5t-6 -15.5q-1 -3 -3 -8.5t-3 -6.5
q-2 -6 -6 -12t-4 -12v-7v-1q0 -2 -1.5 -5.5t-1.5 -5.5l-50 -146q-2 -5 -4.5 -10l-4.5 -9q-2 -5 -2 -10.5t-2 -10.5l-1 -2q-3 -3 -3 -7q-1 -3 -5.5 -13t-5.5 -13l-58 -167q-2 -5 -5 -19t-5 -18q0 -1 -1 -5.5t-2 -6.5q-3 -8 -8.5 -16.5t-14.5 -8.5q-6 0 -12 4t-7 10v4zM86 24
q2 2 5 10t4 10l85 257v1h-2q-14 -3 -27.5 -10.5t-27.5 -12.5q-10 -5 -19 -5q-7 0 -11 3t-4 12q0 2 2 6l1 1q6 5 12 8.5t14 6.5q1 1 7.5 3t14 4t13.5 4t7 3q2 1 7 2.5t7 2.5l14 7q8 5 12.5 11.5t7.5 14.5q0 1 2 6l4 10t4 9.5t3 5.5q0 1 2 5t2 5v8q0 1 0.5 2t0.5 2
q25 58 58 114q1 3 6 10.5l7 10.5q2 2 8 10.5t8 11.5q2 2 6 7t6 7l17 17q8 9 20 14t23 5q20 0 34 -17q2 -2 3 -3.5t2 -2.5q1 -3 2.5 -10t4 -14.5t4.5 -14.5t3 -10q0 -1 1.5 -7.5t1.5 -8.5l1 -5v-7v-8q-1 -1 -3 -5q-2 -1 -7 -1q-3 0 -8 2.5t-7 5.5q-3 5 -5 11t-4 11
q0 1 -1 7.5t-2.5 14t-2.5 14t-1 8.5q-1 5 -3 9.5t-7 4.5h-1q-2 0 -2.5 -0.5t-1.5 -0.5q-2 -1 -7 -2.5t-6 -2.5q-5 -2 -9 -5t-7 -5q-14 -14 -24.5 -28t-21.5 -30q-5 -6 -9.5 -14t-9.5 -16q0 -2 -3.5 -9t-3.5 -8q-1 -1 -4 -5.5t-6 -9.5t-6 -9.5t-3 -5.5q-4 -9 -6.5 -17.5
t-6.5 -17.5q0 -3 -2 -5q-6 -12 -12.5 -23.5t-8.5 -23.5q0 -1 -0.5 -2t-0.5 -2q-1 -1 -1 -2h2h3h9l63 15q8 3 16.5 5.5t16.5 2.5q14 0 20 -10q2 -2 1.5 -3t-0.5 -3v-6q-3 -10 -11 -13h-2h-20l-81 -14q-1 0 -5.5 -2t-6.5 -2q-6 -2 -11.5 -6t-9.5 -11q-1 -2 -3.5 -7.5
t-3.5 -7.5q-2 -3 -4 -8.5t-4.5 -12t-4.5 -11.5t-2 -6l-47 -155q-2 -5 -5 -18.5t-5 -18.5q-1 -2 -4.5 -14t-4.5 -14q0 -1 -1 -4t-2 -5l-1 -3v-12q0 -4 -4 -6l-8 -4q-2 0 -5 -1.5t-4 -1.5q-8 0 -10.5 7t-2.5 13v8z" />
    <glyph glyph-name="endash" unicode="&#x2013;" horiz-adv-x="401" 
d="M58 138q0 11 7.5 14.5t15.5 4.5q2 0 9 0.5t9 0.5l255 25q1 0 8 0.5t15 1l16 1t13 0.5h9h10q6 -2 10.5 -4.5t4.5 -8.5q0 -20 -21 -20q-6 0 -12 0.5t-12 0.5h-6l-200 -15q-2 0 -8.5 -1t-14 -2t-14.5 -2t-11 -1q-17 -2 -32 -6.5t-32 -4.5h-7q-12 3 -12 16z" />
    <glyph glyph-name="emdash" unicode="&#x2014;" horiz-adv-x="556" 
d="M58 144q0 2 3 5q5 5 9.5 6t10.5 2q2 0 8.5 0.5t8.5 0.5l418 35q2 0 15.5 1t19.5 1h7q9 0 17 -2t8 -13q0 -14 -14 -19h-7q-9 0 -14 1h-29l-361 -27q-1 0 -7.5 -0.5t-10.5 -1.5q-16 -2 -31.5 -6.5t-31.5 -4.5h-7q-8 2 -10 6t-2 10v6z" />
    <glyph glyph-name="divide" unicode="&#xf7;" horiz-adv-x="490" 
d="M215 67q0 2 2 8v5q0 2 0.5 3t0.5 2q2 4 6 7q2 2 9 5t10 5h9q17 0 17 -16q0 -8 -2.5 -13.5t-5.5 -12.5q-2 -5 -9 -8.5t-14 -3.5q-8 0 -14.5 4.5t-8.5 12.5v2zM405 200l-207 -6h-21q-26 0 -52.5 1t-51.5 6q-8 3 -8 9q0 9 4 11.5t11 2.5h29q45 0 89.5 -1t89.5 -1
q39 0 77 1.5t76 5.5h17h16q15 0 15 -14q0 -9 -5.5 -17t-13.5 -12q-2 0 -3 -1t-3 -1q-8 0 -12.5 6t-9.5 8h-2q-1 0 -1 1q-5 1 -10.5 1h-10.5h-13zM323 310q0 9 2 19t6.5 18.5t11.5 14t17 5.5q8 0 13 -4t5 -12q-2 -6 -6 -16t-9.5 -19t-12.5 -16t-14 -7q-12 0 -13 10v7z" />
    <glyph glyph-name="guillemotleft" unicode="&#xab;" horiz-adv-x="396" 
d="M83 120q0 10 7 18l6 6l182 145q2 1 4 1q8 0 12.5 -1t4.5 -9v-4t-2 -3l-120 -97q-2 -2 -7.5 -6t-7.5 -6q-1 -1 -4.5 -5t-7.5 -8.5t-8.5 -8.5t-6.5 -6q-4 -3 -7.5 -8.5t-3.5 -10.5q0 -1 1 -2q0 -1 1 -2q20 -30 45 -53t54 -43q2 -2 8.5 -6t8.5 -5l1 -2v-3q0 -6 -2 -11t-9 -5
q-8 0 -18 6q-62 36 -107 91q-1 2 -6.5 9t-9.5 11q-3 4 -5.5 8.5t-2.5 9.5zM205 101q-14 17 -14 38v4l1 1l66 51l30 20q2 2 13.5 8.5t15.5 8.5q1 1 7 3.5t8 4.5h3q1 0 2 1h1q3 0 5 -1t4 -1t5.5 -0.5t4.5 -0.5v-1q0 -5 -1.5 -10.5t-6.5 -7.5l-60 -33q-33 -18 -59 -50
q-2 -2 -3 -3.5t-1 -4.5q0 -5 6 -13q5 -8 11 -14l12 -12l66 -57q5 -4 7.5 -7t2.5 -10q0 -4 -1 -6q-1 -4 -7 -8t-11 -4q-3 0 -5.5 3.5t-4.5 5.5l-7 7t-5 6l-49 41q-1 1 -6 5.5t-7 6.5t-5 6t-7 8.5t-7 8.5t-4 6z" />
    <glyph glyph-name="guillemotright" unicode="&#xbb;" horiz-adv-x="446" 
d="M172 -29q0 10 4 13l138 86l30 20q1 1 4.5 4t8 6.5t8.5 7t6 4.5q2 0 2 1v2q0 5 -4.5 7.5t-6.5 5.5q-1 1 -6 4.5l-10 7l-10 7t-6 4.5q-2 2 -11.5 10t-14.5 13q-2 1 -4.5 3t-2.5 4q-2 2 -6.5 6t-9.5 8.5t-9 8.5l-5 5q0 1 -4 5.5t-6 7.5q-5 4 -5 9q0 4 3 9t8 5q13 0 22 -6.5
t18 -16.5q3 -4 12.5 -16t12.5 -16q3 -3 3 -5q2 -2 8 -7.5t7 -6.5q0 -1 2.5 -3t3.5 -3l42 -27q8 -5 13.5 -10.5t10.5 -12.5l1 -3q0 -1 -0.5 -1.5t-0.5 -2.5v-3q0 -1 -2 -3q-2 0 -8.5 -5t-8.5 -7q-5 -3 -16 -10t-13 -9l-120 -70q-2 -2 -11 -7.5t-13 -8.5q-1 -1 -3.5 -3
t-4.5 -4q-1 -2 -6.5 -6t-6.5 -6q-3 -3 -9 -6t-10 -3t-8 1.5t-6 5.5v7zM85 16q0 1 0.5 4.5t0.5 5.5v2q8 8 18 15t21 12q2 1 4.5 3t3.5 2l87 42q1 0 6.5 3t9.5 5l1 1q0 1 0.5 1t0.5 1q-26 26 -48.5 54t-38.5 62q-1 1 -4 8t-4 11l-1 2v2v5q0 14 15 14h3q2 0 4 -2
q9 -20 18 -38.5t21 -35.5q3 -5 7 -10l8 -10q1 -1 3.5 -4t3.5 -4q5 -6 9 -13.5t10 -12.5q6 -4 14 -6q8 -3 16 -8.5t8 -16.5q0 -2 0.5 -4t-1.5 -4q-11 -8 -22 -15t-23 -12l-73 -31q-14 -5 -26 -15t-25 -18q-2 -2 -6.5 -4.5t-7.5 -2.5q-5 0 -9 2.5t-4 7.5v2z" />
    <glyph glyph-name="ellipsis" unicode="&#x2026;" horiz-adv-x="462" 
d="M212 1q0 11 8 26t17 20q1 1 3 1.5t3 1.5q1 0 3 1q2 0 2.5 0.5t1.5 0.5q6 3 13 3t8.5 -6t1.5 -10q0 -14 -9.5 -25.5t-20.5 -17.5q-5 -2 -9.5 -4.5t-9.5 -2.5t-7 2l-2 2l-2 2q-1 1 -1 3v3zM66 6q0 6 2.5 10t4.5 9l2 2q1 1 1 2l10 10q8 7 18 9t20 2q12 0 12 -10
q0 -22 -19.5 -33t-37.5 -11h-6q-7 0 -7 10zM352 8q0 13 8 19l12 12q1 0 3 1q1 1 2 1t2 1q6 5 12.5 5.5t13.5 0.5h7l2 -2t2 -3v-4v-7q0 -2 -1.5 -5t-2.5 -4q-7 -12 -21.5 -19t-28.5 -7q-10 0 -10 11z" />
    <glyph glyph-name="perthousand" unicode="&#x2030;" horiz-adv-x="743" 
d="M112 -18q0 6 4 14q1 2 2.5 7t2.5 6q2 2 5 7t3 6l308 408q1 1 6.5 8t9.5 12q1 2 3.5 4.5l3.5 3.5q4 3 12.5 11.5t10.5 9.5q1 2 9.5 9.5t12.5 11.5q7 6 15 6q12 0 12 -13q0 -5 -1 -6l-28 -30l-126 -142l-132 -174l-92 -135q-4 -5 -5 -11.5t-2.5 -12t-5 -9t-11.5 -3.5
q-7 0 -12 2t-5 10zM507 53q0 7 2 13t4 11q16 34 37.5 62.5t48.5 54.5q0 1 7.5 7t11.5 9q14 12 32 12q13 0 13 -14v-3q0 -3 -3 -6v-1q2 -1 4.5 -0.5t3.5 0.5q5 0 10 0.5t10 0.5h5l2 -1q2 0 7 -2t7 -3q11 -5 16.5 -15.5t5.5 -21.5q0 -23 -15 -42.5t-31 -34.5
q-21 -20 -46.5 -36t-54.5 -23q-8 -2 -15.5 -2.5t-16.5 -0.5q-14 0 -24.5 2t-16.5 17q-4 10 -4 17zM300 59q0 6 0.5 12t2.5 11q2 3 6.5 10.5t6.5 9.5q16 26 36 48.5t42 45.5q2 1 10.5 8.5t12.5 11.5q8 7 16.5 11.5t17.5 4.5q5 0 9.5 -1.5l10.5 -3.5q2 -1 8.5 -2t8.5 -2
t4 -1.5t4 -2.5q8 -5 9 -12.5t1 -15.5v-4q0 -4 -0.5 -7t-1.5 -8l-9 -18t-10 -17q-10 -11 -20.5 -22.5t-20.5 -22.5q-25 -24 -55 -41t-65 -17h-11q-5 0 -8.5 4t-3.5 7q0 1 -0.5 3t-0.5 3v8zM536 55q0 -10 7.5 -13t16.5 -3q20 0 39 11q3 1 8.5 4.5t12 7.5t12 7t7.5 5
q22 14 41.5 33t19.5 47v7q-1 7 -6.5 8.5t-12.5 1.5q-26 0 -42 -22l-6 -6t-7 -2q-11 0 -11 11q0 4 0.5 7t0.5 6t-3 3q-1 0 -1.5 -1t-2.5 -2q-5 -3 -5 -4q-2 -2 -9 -8.5t-9 -8.5q-1 -2 -2 -3l-3 -3q-13 -15 -23 -32t-19 -36q-3 -6 -3 -15zM323 63q0 -6 4 -7t9 -1q14 0 25 7
q3 2 9.5 5.5t7.5 4.5q1 0 11.5 7.5t15.5 10.5l2 1q1 0 1 1q19 17 34.5 34t29.5 38q3 5 6 10.5t3 12.5q0 9 -9 9q-17 0 -27.5 -14.5t-18.5 -26.5q-1 -1 -1 -2t-1 -1h-2h-3q-1 0 -2 1l-2 2q-5 3 -6.5 7t-3.5 9h-1l-2 -1q-3 -3 -9.5 -8.5t-7.5 -5.5q-15 -17 -29 -33t-25 -36
q-8 -10 -8 -24zM148 373q0 5 1.5 10t3.5 9q2 2 3.5 6t2.5 5q6 11 13 21.5t15 21.5q14 18 29.5 33t37.5 24q5 2 12 4.5t12 2.5q8 0 9.5 -4.5t5.5 -10.5q5 -5 10 -7.5t10 -7.5q8 -6 11.5 -17t3.5 -19q0 -11 -5.5 -21.5t-13 -19.5t-17 -17t-16.5 -13q-3 -1 -9.5 -4.5
t-13.5 -7.5t-13.5 -7.5t-9.5 -4.5q-1 -1 -4.5 -3t-5.5 -3q-9 -4 -16.5 -6t-16.5 -2h-9l-2 1q-9 2 -18.5 8.5t-9.5 16.5v6v6zM169 371q0 -4 2.5 -8t6.5 -4q10 0 20 4q32 6 58 24.5t43 44.5q4 8 4 12q0 6 -4.5 13t-9.5 10q-1 1 -4 1q-6 0 -15 -3t-14 -8q-4 -4 -8 -6.5t-6 -7.5
q-2 -1 -3.5 -5t-2.5 -5l-3 -3q-2 -2 -3 -3.5t-2 -2.5q-2 -1 -3 -2.5t-3 -1.5t-5 3q-1 0 -1.5 1t-2.5 2t-3 3h-2q-1 0 -2.5 -1t-3.5 -2q-11 -10 -20 -24.5t-13 -30.5z" />
    <glyph glyph-name="oslash" unicode="&#xf8;" horiz-adv-x="418" 
d="M94 -45q0 14 9.5 24.5t16.5 21.5q2 4 4.5 7.5t2.5 7.5v1q0 1 -1 2l-15 7.5t-13 7.5q-9 5 -15.5 11t-11.5 17v3q-3 13 -3 27q0 28 14 54q1 2 4.5 7t7 11t6.5 11t4 7q17 24 34.5 45t39.5 41q0 1 4 4.5t6 5.5q17 13 34.5 24t36.5 19q1 1 8.5 4t10.5 4q1 1 5 2.5t6 1.5
q1 1 8 2t8 3h2q9 8 12 18.5t7 21.5v2q0 1 1 1q1 1 4 8t4 8q1 2 4.5 13t5.5 13q0 1 1.5 4l2.5 5l2 2h2q1 0 2 1q10 4 15 4h4q5 -5 6 -9t1 -11v-5l-1 -1q-12 -19 -22 -37.5t-18 -39.5q0 -2 -1 -4l-3 -5v-6v-1q24 -10 42 -31q3 -3 5 -11q0 -3 1.5 -9t2.5 -8q1 -5 1 -14
q0 -14 -3 -26t-7 -23q-2 -2 -6.5 -14.5t-6.5 -17.5q-8 -18 -19.5 -32.5t-24.5 -27.5l-2.5 -2.5t-2.5 -1.5q-3 -3 -10 -8.5t-15 -11.5t-14.5 -11.5t-9.5 -8.5q-19 -13 -37 -21q-2 0 -7.5 -2t-12 -4t-12 -4.5t-6.5 -2.5t-3 -1t-3 -1l-7 -3.5t-6 -3.5q-9 -6 -14 -17
q0 -2 -5 -10t-5 -10q-1 -1 -1 -2t-1 -1q-3 -4 -5.5 -7t-2.5 -8v-9v-2q-4 -5 -6 -8.5t-7 -8.5q-5 -3 -9 -3q-2 0 -4 1q-9 3 -14 6.5t-5 14.5zM95 92q0 -5 1 -11t5 -10q6 -7 14 -12.5t19 -5.5t19 7q11 8 19 18.5t13 21.5q1 2 4.5 8.5t7 13.5t7 13t4.5 9l44 71q1 1 3 7.5t4 9.5
q4 9 7.5 18t5.5 18q1 2 3 8q1 3 1 6v1q-6 0 -10 -3q-11 -5 -14.5 -14t-9.5 -19q0 -1 -1 -2h-11l-1 1q-2 2 -3.5 7t-3.5 5q-5 0 -9 -2q-10 -4 -19.5 -9t-17.5 -13q-6 -7 -12.5 -13.5t-11.5 -14.5q-14 -17 -23 -35q-2 -3 -5.5 -10t-7.5 -14.5t-8 -14.5t-6 -10q-2 -8 -4.5 -15
t-2.5 -15zM195 61q0 -2 3 -2h4h4h2q1 0 1 0.5t1 0.5q4 3 15.5 8t13.5 7q14 8 29 18.5t27 22.5q26 24 44.5 54t18.5 68q0 12 -3 23v4q-4 8 -13 15t-17 7h-1h-5l-2 -3q-1 -2 -1.5 -3.5t-2.5 -3.5t-3 -4l-82 -156q0 -1 -1 -1q-1 -1 -2 -1q-1 -1 -2.5 -2t-2.5 -2l-3 -3t-2 -3
q-2 -1 -2 -3v-4q-1 -2 -2.5 -4.5t-1.5 -3.5q-5 -6 -9.5 -13t-4.5 -15v-1z" />
    <glyph glyph-name="yen" unicode="&#xa5;" horiz-adv-x="496" 
d="M184 -10q0 5 1.5 8.5t3.5 8.5l43 134q0 2 1.5 5t1.5 6t-3 4.5t-6 1.5q-2 0 -5 -0.5t-6 -0.5q-4 0 -7 0.5t-6 0.5q-11 0 -21.5 -2t-21.5 -2q-6 0 -14 1.5t-8 10.5q0 6 4.5 10.5t10.5 4.5h12q11 0 23 -1t23 -1q6 0 13.5 0.5t14 3t11.5 7.5t5 13q0 7 -5.5 10.5t-12.5 3.5
q-42 4 -81.5 3.5t-80.5 0.5q-4 1 -4 7v7l2 2l3 3q2 2 5.5 2h6.5h24h25q2 0 11 -0.5t19.5 -0.5t20 -0.5t11.5 -0.5h4q9 0 17.5 0.5t18.5 1.5q3 0 3 2v6l-82 239v2q0 8 5.5 10.5t11.5 2.5q4 0 6.5 -0.5t6.5 -2.5l1 -1q1 -3 3 -12t4.5 -19t4.5 -19t3 -12t3.5 -11t5.5 -17
t5.5 -17t3.5 -11t5 -14t9 -23.5t9 -24t5 -14.5q0 -2 4 -13.5t5 -13.5q0 -4 3 -7q1 -1 2 -4t2 -4q2 -2 2 -4.5t2 -2.5q11 3 20.5 9.5t17.5 12.5q2 2 5.5 5t3.5 4l199 195q2 2 8 2q12 0 18 -9q0 -1 0.5 -1.5t0.5 -1.5v-2q0 -7 -2 -8q-8 -5 -15 -9t-12 -10q-2 0 -6 -3.5
t-6 -5.5q-1 -1 -8 -8.5t-8 -9.5q-1 -1 -4.5 -4t-7.5 -6.5t-7.5 -6.5t-4.5 -3q-4 -5 -14.5 -15.5l-12.5 -12.5q-3 -3 -11 -11.5t-16 -18t-15.5 -18t-10.5 -11.5l-14 -14q-2 -1 -7 -5.5t-11 -9.5t-11.5 -10t-6.5 -6q-5 -5 -11 -10.5t-11 -12.5q1 -1 2 -1h2q2 0 9 -0.5t9 -0.5
t10.5 -1.5t11.5 -1.5q4 0 14.5 -0.5t22.5 -0.5t22.5 -0.5t14.5 -0.5q17 0 37 -5q2 0 3 -1.5t2 -1.5v-4q0 -8 -6.5 -18t-16.5 -10h-3q-1 6 -2.5 10.5t-7.5 6.5q-1 0 -4.5 1t-5.5 1q-1 0 -6 1t-7 1t-4.5 0.5t-3.5 0.5q-2 0 -10 0.5t-17 0.5t-17 0.5t-10 0.5q-6 0 -11.5 0.5
t-10.5 1.5h-6q-2 0 -4 1h-4q-4 0 -8.5 -0.5t-6.5 -4.5q0 -2 -1.5 -5t-1.5 -4q-1 -4 -3 -13t-2 -10v-2q1 -1 3 -1q2 -1 6 -1q2 -1 8.5 -2t7.5 -1q4 -1 15 -2.5t14 -1.5q4 0 15 -1t23 -2.5t23 -2.5t15 -1q2 -1 10 -2t10 -1q13 -2 13 -15q0 -7 -10 -11t-16 -6l-4 -1h-5h-6
q-2 2 -2 6.5t-3 6.5q-1 0 -2 1t-2 1q-5 0 -16 1.5t-23 2.5t-22.5 2.5t-14.5 1.5q-3 1 -17 1.5t-19 0.5h-9h-11q-2 -1 -4 -3.5t-4 -4.5l-23 -73q-1 -3 -4.5 -16t-4.5 -18q-3 -11 -5 -24.5t-4 -25.5q-1 -4 -4 -7.5t-5 -6.5q-4 -2 -14 -2q-16 0 -16 15z" />
    <glyph glyph-name="space.001" horiz-adv-x="129" 
 />
    <glyph glyph-name="dollar" unicode="$" horiz-adv-x="408" 
d="M162 -62q0 16 6 28q2 5 8.5 19.5t8.5 19.5q1 2 1 5v4t-2 2q-3 0 -13.5 1.5t-14.5 1.5q-1 0 -3 0.5t-2 1.5q-3 2 -9.5 3.5t-7.5 1.5l-59 24q-4 2 -8 2.5t-8 2.5q-1 0 -3.5 1t-3.5 3q-8 6 -11 17t-3 21v5q5 9 14 9l5 -2.5t5 -3.5l18 -18q5 -5 12 -9.5t13 -8.5
q18 -12 38 -19t43 -7h7q3 0 4.5 3.5t2.5 5.5l61 198v1q0 3 -3 4t-5 2q-3 1 -11.5 3t-17.5 4.5t-17 4.5t-11 3q-7 2 -13.5 5t-12.5 6t-10.5 7.5t-4.5 12.5t2 13t7 10q14 20 41 30.5t49 15.5q5 1 19.5 3.5t19.5 4.5q7 3 10 10q1 2 3 9.5t3 9.5q0 2 2.5 8.5t2.5 7.5l18 100
q3 13 15 13h4q1 0 7 -2q7 -5 7 -13q0 -3 -1 -5q-2 -5 -7 -20.5t-7 -20.5q0 -2 -2 -8t-4.5 -14t-5 -15.5t-3.5 -11.5q-3 -11 -5 -20.5t-2 -19.5v-4h1q4 -1 16.5 -3.5t15.5 -3.5q13 -2 26.5 -7.5t19.5 -19.5q2 -2 1.5 -4.5t-0.5 -4.5v-5q0 -3 -3.5 -5t-5.5 -2h-1l-2 2
q-15 8 -32 15.5t-35 7.5q-4 0 -8 -2.5t-5 -7.5v-8q0 -2 -1 -6.5t-2 -6.5q-2 -4 -5.5 -15t-3.5 -14q-1 -1 -2.5 -8.5t-3.5 -11.5l-1 -3q0 -3 4 -3q3 -2 9.5 -7t14 -10.5t14 -10t9.5 -6.5q22 -16 33.5 -35.5t11.5 -45.5q0 -18 -8 -34t-20 -30.5t-27 -26t-29 -19.5
q-7 -4 -15.5 -8t-16.5 -6l-55 -13q-5 -2 -6.5 -5t-2.5 -6q0 -1 -1.5 -6t-2.5 -7q0 -1 -0.5 -1.5t-0.5 -1.5t-1 -6t-2 -10.5t-2.5 -10t-1.5 -5.5q-2 -10 -7 -21.5t-17 -11.5q-7 0 -11 3q-4 4 -4 11zM291 240q-4 -2 -6 -8q-1 -2 -3 -10t-3 -10q0 -1 -1.5 -5.5t-3.5 -9.5
t-3.5 -10t-1.5 -6l-1 -4q-1 -3 -3.5 -5t-4.5 -6q-1 -2 -2.5 -8t-2.5 -7l-25 -95q0 -1 -1 -3.5t-1 -3.5v-2q21 0 45.5 8.5t45.5 23t35 34.5t14 44q0 13 -5.5 25t-13.5 21q-14 13 -27 22.5t-31 14.5zM188 309q0 -3 5 -5l4 -2q1 -1 3 -1q2 -1 5 -2t3 -2q3 -1 12 -3.5t11 -3.5
q1 0 6 -1.5t11 -3t11.5 -3t7.5 -2.5h1q4 0 4 2q1 2 3 6.5t2 6.5q1 3 3 9.5t4 14.5t4 14.5t3 9.5v2q0 6 -6 6t-12 -1.5t-11 -3.5q-4 -2 -11 -4t-9 -3q-3 -1 -13 -5t-14 -6q-8 -4 -14.5 -8t-12.5 -10v-1z" />
    <glyph glyph-name="fraction" unicode="&#x2044;" horiz-adv-x="157" 
d="M-108 -40l416 597q0 1 2.5 4.5t4.5 5.5q1 1 4 1q5 0 9 -5.5t4 -10.5t-4 -10q-2 -4 -7.5 -12.5t-6.5 -10.5l-85 -122q-1 0 -3.5 -5t-4.5 -8q-1 -2 -4 -7t-3 -6l-103 -142l-61 -93l-51 -70q-1 -1 -7 -9.5t-8 -13.5q-5 -6 -7 -13.5t-6 -15.5q0 -2 -1.5 -4.5t-2.5 -3.5t-1 -2
q-1 -1 -1 -2v-1q-1 -2 -7 -11t-7 -11q-8 -12 -19 -21.5t-25 -9.5h-5q-3 0 -6.5 4t-3.5 7v1zM11 336q5 2 9 4.5t7 5.5l-2 -3l-15 -15v2v1v3q0 1 1 2z" />
    <glyph glyph-name="ae" unicode="&#xe6;" horiz-adv-x="599" 
d="M237 -68q0 12 7 20q1 1 5.5 5t5.5 6q1 1 3.5 5.5t4.5 6.5q1 2 3.5 6.5l5 9t4.5 8.5t2 5q8 15 15 30t12 32q1 2 2 5.5t1 5.5v3q0 2 -1 3.5t-2 3.5q-5 6 -5 16v6q1 1 2.5 2t2.5 2v1q0 2 -1.5 4t-2.5 4q-3 7 -7 11.5t-9 10.5q-8 5 -21 5q-8 0 -16.5 -1.5t-16.5 -3.5
q-1 -2 -5.5 -3t-6.5 -2q-38 -14 -72.5 -36.5t-62.5 -54.5q0 -1 -4.5 -5.5l-6.5 -6.5q-13 -16 -21 -35q-1 -2 -2.5 -6t-1.5 -5v-5v-6q0 -2 1.5 -3.5t1.5 -2.5q7 -8 17.5 -9.5t20.5 -1.5q28 0 58 9q2 1 8.5 3t14 4.5t14.5 5t11 3.5q1 1 6.5 3t8.5 3q5 2 9.5 4.5t8.5 4.5
q5 5 9 12t11 10h6q12 0 19 -13v-6q0 -8 -8 -14t-14 -10q-17 -8 -34.5 -15t-35.5 -13q-2 0 -8.5 -2t-13.5 -4l-14 -4t-10 -3q-20 -7 -41 -7q-8 0 -18 1.5t-20 4.5t-18.5 8.5t-12.5 13.5q-6 7 -6 17v5q0 1 0.5 5.5t1.5 6.5q2 9 6 16.5t7 14.5q49 75 126 118q19 9 37 16t38 12
q2 0 9.5 1.5t10.5 2.5q2 0 3.5 0.5t2.5 0.5h7h9q1 0 1 -0.5t1 -0.5q18 -6 33 -22q6 -6 9.5 -15t8.5 -15q3 2 5 5.5t4 7.5q5 17 9.5 33.5t6.5 33.5q2 5 2 11v11q0 20 -12 31t-30 15q-6 1 -12 1h-13h-13h-6q-48 -9 -89 -36q-2 0 -6 -3.5t-6 -5.5t-8.5 -6.5t-8.5 -5.5
q-1 -2 -8.5 -7.5t-8.5 -7.5q-1 0 -2 -1.5t-2 -1.5q-2 -1 -3 -0.5t-3 0.5q-6 0 -8.5 4t-2.5 8q0 11 7.5 20t15.5 14q17 12 35 21t37 17l15 5t16 5q25 9 49 9q26 0 50.5 -11t35.5 -36q8 -20 6 -38l1 1q17 23 36 41.5t45 30.5l12 4t14 2h7q2 0 5.5 -1.5t5.5 -2.5q5 -3 12 -11
q4 -5 6.5 -11t5.5 -12q5 -9 7.5 -18.5t4.5 -19.5q2 -9 4 -17.5t3 -18.5q0 -2 1 -7t1 -6v-6v-6q-1 -6 -6 -7l-33 -7q-1 0 -13.5 -3.5t-29 -8.5t-33.5 -10t-27 -8q-4 -2 -16 -5.5t-17 -5.5q-2 -1 -9 -3.5t-9 -4.5q-2 -1 -6 -2.5t-5 -5.5q-3 -15 -6 -29.5t-3 -28.5
q0 -18 6.5 -36.5t24.5 -26.5q9 -4 18.5 -4.5t18.5 -0.5h15q1 0 3.5 1t4.5 2q1 0 6.5 2.5t7.5 3.5q1 1 6.5 2.5t7.5 1.5q19 8 35 17t30 24q0 1 1 2.5t1 2.5l3 3t2 3q1 1 4.5 6.5t4.5 6.5q1 2 8 2h5h1q1 0 1 -0.5t1 -0.5q9 -7 9 -18q0 -7 -7 -14q-10 -9 -19 -17.5t-20 -16.5
q-25 -17 -54 -26.5t-59 -9.5q-22 0 -39.5 5.5t-32.5 20.5q-7 8 -9.5 19t-4.5 19q-1 7 -1.5 14.5t-0.5 14.5h-1l-41 -85q-2 -4 -3 -9.5t-2.5 -11t-4.5 -9t-10 -3.5q-19 0 -19 19zM361 127q0 -1 3.5 -2t4.5 -1q5 0 9 2.5t8 4.5l15 6q2 1 9.5 2.5t9.5 2.5q6 2 13 4.5t12 4.5
l64 22l15 6l1 1v7v6q0 22 -10 47q0 1 -0.5 2t-0.5 2q-4 8 -8.5 15.5t-14.5 7.5q-8 0 -18 -5q-21 -11 -37 -27.5t-33 -33.5q-1 -2 -3 -4l-3 -3t-3.5 -3t-3.5 -3h-2q0 -1 -1 -2.5t-1 -2.5q0 -2 -2.5 -4t-2.5 -3q-6 -12 -11 -24t-9 -25z" />
    <glyph glyph-name="ydieresis" unicode="&#xff;" horiz-adv-x="340" 
d="M19 -134q0 11 6 17q2 2 7 7.5t7 7.5q3 2 4 5.5t3 6.5q5 9 12 18.5t15 18.5q1 2 9 9.5t9 9.5q1 0 2 2t2 3l89 117l4 7v2v3q-1 2 -2 5.5t-2 5.5l-101 209q-2 5 -3.5 7.5t-1.5 7.5q0 6 5 9.5t11 3.5q5 0 8.5 -5t5.5 -8t5.5 -8.5t3.5 -6.5l70 -148q0 -1 3 -6.5t5 -8.5
q7 -15 17 -23q1 -2 5 -2h1q0 1 3 4q3 4 12 17t12 18q5 6 13.5 17.5t9.5 12.5l14 13q1 1 10 13.5t14 18.5q1 1 3.5 5t4.5 6q0 1 1.5 4t2.5 4l86 110q1 2 4.5 6.5t5.5 6.5q7 9 14 9q9 0 17 -5q1 -3 1 -11v-5.5t-1 -4.5l-40 -42l-105 -125l-97 -134q-3 -4 -6.5 -6.5t-6.5 -5.5
q-2 -1 -4 -3.5t-4 -3.5q-1 -1 -2.5 -4t-3.5 -4q-2 -2 -6 -8t-8.5 -12.5t-8.5 -12.5t-5 -9l-61 -81l-16 -22q-1 -1 -1 -2v-2q-1 -2 -5.5 -13t-5.5 -13t-3 -5.5t-3 -5.5q-2 -4 -3.5 -5.5t-3.5 -4.5q-2 -1 -4.5 -1h-4.5q-18 0 -18 20zM310 402q-7 6 -7 19q0 5 3 11
q3 5 6.5 11.5t8.5 9.5t11.5 5.5t11.5 2.5t8 -1t7 -2q2 -5 2 -14q0 -11 -6.5 -20.5t-13.5 -17.5l-7 -7q-2 -1 -4 -1h-4h-5l-2 1q-2 0 -5 1t-4 2zM188 477h8.5t6.5 -3q0 -1 2 -3l3 -3q2 0 2 -4v-4q0 -5 -1.5 -7.5t-3.5 -7.5q0 -1 -2.5 -8t-2.5 -8q-7 -20 -28 -20q-11 0 -17 6
q-2 2 -2 5v16l1 3q3 11 9.5 19.5t15.5 16.5l2 2h7z" />
    <glyph glyph-name="Ydieresis" unicode="&#x178;" horiz-adv-x="284" 
d="M77 14q0 4 2 8q0 2 1.5 6.5t2.5 5.5q1 4 5 14.5t8 22t8 22t6 14.5q1 4 4 12.5t4 11.5q0 4 1 9t2 8q0 2 0.5 4t0.5 5t1 7v83l17 237q0 1 1 8t2 10q0 12 10 12t12 -2q5 -5 6 -9t1 -10q0 -19 -2.5 -37t-4.5 -37q0 -4 -0.5 -13.5t-0.5 -20t-0.5 -19.5t-0.5 -13q-1 -5 -5 -15
q0 -1 -0.5 -2t-0.5 -2v-2l-6 -95v-20q4 0 4 2q2 2 7.5 5.5t6.5 5.5l4 4t4 3l248 262q5 6 9.5 14t11.5 14h6h5q5 -1 11 -5.5t6 -9.5q0 -2 -0.5 -2t-1.5 -2q-4 -6 -10 -10q0 -1 -3 -3.5t-4 -3.5q-2 0 -5.5 -2.5t-4.5 -4.5l-2 -2q-1 -1 -1.5 -1t-1.5 -1l-2 -2l-125 -131
q-7 -7 -16 -10q-2 -3 -2 -6.5t-2 -5.5l-84 -88q-2 -2 -10 -11t-11 -13q-2 -2 -9 -10.5t-9 -11.5q-6 -6 -8 -14l-36 -115q-1 -2 -2 -6t-1 -6t-1.5 -10.5t-2.5 -10.5q-1 -9 -9 -19.5t-18 -10.5q-6 0 -10.5 4.5t-4.5 10.5zM351 572q1 4 3.5 8.5t4.5 7.5l1 2q0 1 1 1q2 2 4.5 5
t3.5 3q2 1 5 2t7 3q4 3 12 3h2l2 -1q1 -1 2 -1q0 -1 1 -1h2h3l1 -2q4 -4 4 -13t-5 -16.5t-10 -14.5l-5 -5t-5 -6q-3 -4 -11 -4q-3 0 -5.5 0.5t-4.5 0.5q-2 1 -8 3q-1 1 -2 3t-2 2q-1 5 -1 15v5zM199 573q0 14 8 25t17 20h1q1 0 2 1l2 2h15l2 -1q12 -3 12 -15v-6l-2 -2
q-1 -1 -1 -2v-1q-5 -15 -10.5 -28t-24.5 -13q-6 0 -11.5 2t-7.5 9q-2 3 -2 9z" />
    <glyph glyph-name="Icircumflex" unicode="&#xce;" horiz-adv-x="312" 
d="M-5 38q0 4 2 8t8 5h46q2 0 9.5 0.5t9.5 0.5q1 0 4.5 0.5t5.5 0.5t5.5 0.5t5.5 0.5h3q1 0 1.5 0.5t1.5 0.5l4 2t4 3l190 385q6 12 9 24v1q0 1 -4 3q-2 0 -10 0.5t-10 0.5h-39q-8 1 -15.5 3.5t-7.5 13.5q0 10 10 14h3h8q14 0 27 -2t28 -2h4l68 5h43q1 -1 2 -1h4
q11 -2 19.5 -6.5t8.5 -17.5q0 -5 -2.5 -11.5t-9.5 -6.5h-6q0 1 -4 3.5t-5 3.5q-8 5 -16.5 6t-18.5 1q-21 0 -36 -4q-3 0 -3 -2q-5 -2 -8 -8l-101 -193q-5 -8 -6.5 -15t-4.5 -15q-6 -13 -13.5 -24t-12.5 -23q-3 -3 -3 -8q-4 -8 -6.5 -18.5t-10.5 -16.5q-10 -21 -19 -42
t-15 -44l1 -1q16 -3 33 -3q10 0 20.5 0.5t21.5 0.5h15q1 0 4 -0.5t4 -0.5t2.5 -0.5t3.5 -0.5h4q8 -2 16 -5t8 -13q0 -17 -19 -17q-8 0 -16 3t-17 4h-32h-24h-18l-113 -8h-32q-1 0 -2 1t-2 1.5t-2 1.5q-3 3 -3 11zM410 616l-6 -3t-6 -2q-2 -2 -6.5 -4t-5.5 -3l-71 -41
q-10 -6 -21 -10.5t-22 -8.5h-2q-8 0 -10 4.5t-2 12.5q0 11 10 13.5t18 6.5q31 14 59 31t59 31q5 2 9 3t9 1h5.5t6.5 -2q3 -3 4.5 -9t2.5 -11q0 -2 1 -10t1 -10q1 -12 9 -24q4 -8 12 -17t8 -17q0 -5 -5 -7h-5q-8 0 -11 2q-10 8 -16 19t-10 23q-1 3 -4.5 15.5t-5.5 16.5h-5z
" />
    <glyph glyph-name="Idieresis" unicode="&#xcf;" horiz-adv-x="312" 
d="M-5 39q0 3 2 7t8 5h46q2 0 9.5 0.5t9.5 0.5q1 0 4.5 0.5t5.5 0.5t5.5 0.5t5.5 0.5h3q1 0 1.5 0.5t1.5 0.5l4 2t4 3l190 385q6 12 9 24v1q0 1 -4 3q-2 0 -10 0.5t-10 0.5h-39q-8 1 -15.5 3.5t-7.5 13.5q0 10 10 14h3h8q14 0 27 -2t28 -2h4l68 5h43q1 -1 2 -1h4
q11 -2 19.5 -6.5t8.5 -17.5q0 -5 -3 -11.5t-9 -6.5h-6q0 1 -4 3.5t-5 3.5q-8 5 -16.5 6t-18.5 1q-21 0 -36 -4q-3 0 -3 -2q-5 -2 -8 -8l-101 -193q-5 -8 -6.5 -15t-4.5 -15q-6 -13 -13.5 -24t-12.5 -23q-3 -3 -3 -8q-4 -8 -6.5 -18.5t-10.5 -16.5q-10 -21 -19 -42t-15 -44
l1 -1q16 -3 33 -3q10 0 20.5 0.5t21.5 0.5h15q1 0 4 -0.5t4 -0.5t2.5 -0.5t3.5 -0.5h4q8 -2 16 -5t8 -13q0 -17 -19 -17q-8 0 -16 3t-17 4h-32h-24h-18l-113 -8h-32q-1 0 -2 1t-2 1.5t-2 1.5q-3 3 -3 12zM403 568q0 1 2.5 5t3.5 6q2 4 5 9t8 7q5 3 10 5.5t11 2.5h4q1 0 2 -1
t2 -1t2.5 -0.5t2.5 -0.5q4 -1 4.5 -6t0.5 -9q0 -10 -4.5 -16.5t-10.5 -14.5q-2 -1 -4.5 -4.5t-4.5 -5.5q-4 -5 -10 -5q-7 0 -16 3q-5 2 -6.5 8.5t-1.5 11.5v6zM253 576v2q0 1 1 1q3 12 10.5 22t16.5 17h6h11q13 -3 13 -17q0 -5 -4 -13q-6 -15 -11 -26.5t-25 -11.5
q-5 0 -10.5 2t-6.5 8l-1 2v1v6v7z" />
    <glyph glyph-name="Igrave" unicode="&#xcc;" horiz-adv-x="312" 
d="M-5 39q0 3 2 7t7 5h47q1 0 8.5 0.5t9.5 0.5t5 0.5t5 0.5t6 0.5t5 0.5t3 0.5t4 0.5l4 2t3 3l191 385q0 1 3 8.5t5 10.5q0 1 0.5 2.5t0.5 2.5v1q0 2 -1.5 2t-2.5 1q-2 0 -10 0.5t-10 0.5h-39q-7 1 -11.5 2t-9.5 6q-2 2 -2 9q0 10 10 14h3h8q14 0 27 -2t27 -2h5l68 5h43
q1 -1 2 -1h3q11 -2 20 -6.5t9 -17.5q0 -5 -3 -11.5t-9 -6.5h-5q-1 1 -5.5 3.5t-4.5 3.5q-8 5 -16.5 6t-18.5 1q-8 0 -15.5 -0.5t-15.5 -1.5l-5 -2q-2 0 -4 -2q-5 -2 -7 -8l-103 -194q-3 -7 -5 -14.5t-4 -14.5q0 -1 -0.5 -1t-0.5 -1l-1 -1q-1 -2 -4 -7.5t-6.5 -12t-6.5 -12
t-4 -7.5q-4 -3 -7 -13q0 -2 -3 -11.5t-4 -11.5q0 -1 -1 -2.5t-1 -2.5t-2 -2t-3 -2q-1 -2 -2 -2t-1 -2q-10 -20 -18.5 -41t-15.5 -44l2 -1q8 -2 16 -2.5t16 -0.5q11 0 21.5 0.5t21.5 0.5h15q1 0 3.5 -0.5t4.5 -0.5q1 0 5 -0.5t5 -0.5q8 -2 16 -5t8 -13q0 -17 -19 -17
q-9 0 -17 3t-16 4h-32h-24h-18l-113 -8h-33q-1 0 -2 1l-3 3q-3 3 -3 12zM328 609q-1 1 -10 8t-13 11q-2 1 -11 8t-11 9q-4 3 -4 8q0 3 1 4t5.5 4.5t5.5 5.5q3 2 6.5 3.5t5.5 1.5q5 0 6 -2l16 -12t15 -14l54 -55q0 -2 1 -3q2 -2 3 -2q8 -6 15 -12t11 -16q1 -1 2 -4t2 -5
q1 -3 1 -7t-5 -6q-3 -4 -11 -4q-6 0 -8.5 2t-6.5 5z" />
    <glyph glyph-name="Acircumflex" unicode="&#xc2;" 
d="M279 -13l11 35l24 99q1 2 2.5 12.5t2.5 15.5q2 11 3 20.5t1 20.5v5q-2 2 -5 2h-3q-1 0 -2 1h-13h-12q-4 0 -14 -1t-21.5 -1.5t-22.5 -1.5t-15 -1q-2 0 -8 -0.5t-13 -0.5t-13 -0.5t-8 -0.5t-9 -0.5t-10 -0.5q-14 -2 -23 -14l-67 -98q-1 -2 -7.5 -10.5t-9.5 -12.5l-4 -4
q-2 -2 -3 -3.5t-2 -2.5q-2 -6 -10 -6q-6 0 -10.5 3t-4.5 11q0 3 2 6.5t4 7.5t7 11t6 8l64 82q1 2 3.5 6t4.5 6q1 2 2 4.5t1 5.5q0 4 -2.5 7t-2.5 9q0 11 10 12.5t18 1.5q4 1 7.5 3.5t5.5 4.5l131 172l10 16t11 15q1 1 5 5.5l8 9t7.5 9t4.5 5.5q7 8 11.5 16t9.5 17q2 3 2 7.5
t1 7.5q1 4 2 6t3 4q4 2 11 2h3q3 0 5 -2.5t4 -4.5q4 -6 6 -13q6 -16 7 -32.5t1 -33.5v-18q0 -2 -0.5 -10t-0.5 -11t-1 -9.5l-2 -13t-2 -11.5t-1 -6l-21 -118q0 -4 3 -6t6 -2h24q0 -1 1 -1h2q10 -5 10 -14q0 -7 -4 -11t-10 -6.5t-12.5 -3t-11.5 -0.5q-3 0 -6 0.5t-6 0.5
q-2 0 -4 -1.5t-2 -3.5l-31 -185q0 -2 -1 -10.5t-1 -10.5q-3 -16 -20 -16q-16 0 -16 17v3zM175 228q0 -6 5 -8t10 -2q3 0 8 1q2 1 8 1.5t8 1.5l114 5l2 2l3 3v2l25 140q0 1 0.5 5.5t0.5 10t0.5 11t0.5 7.5v19v17v5q-1 2 -2 6t-4 4q-2 0 -5 -3q-1 0 -1.5 -1.5t-1.5 -1.5
l-171 -221v-4zM417 601q-23 -6 -43 -17l-79 -45q-2 -2 -7.5 -3.5t-7.5 -3.5q-4 -2 -15 -6t-13 -5q-3 -1 -7 -1q-8 0 -10.5 5t-2.5 12v5q1 4 3.5 6t5.5 4q5 2 11.5 3.5t11.5 3.5h1q1 0 2 1l2 2q5 2 13.5 6.5t10.5 5.5t10 5.5t17.5 10t17.5 10t10 5.5q1 1 7 4t13.5 6.5t15 7.5
t12.5 6q7 3 13.5 5t14.5 2h8t8 -2q6 -8 7 -12q3 -6 3 -15t2 -17q1 -6 2.5 -13.5t5.5 -13.5q0 -1 2 -3.5t3 -3.5q1 -2 6.5 -9t6.5 -8q3 -3 5.5 -7t2.5 -9q0 -6 -6 -8h-7q-7 0 -11 2q-2 1 -2.5 2t-1.5 1q-22 22 -30 48q0 1 -1.5 6l-3 10l-3 10t-1.5 6t-1 1h-1z" />
    <glyph glyph-name="Ecircumflex" unicode="&#xca;" horiz-adv-x="495" 
d="M51 30l1 4q1 3 2.5 8.5t2.5 6.5l56 168l2 6v4q0 7 -1.5 12.5t-1.5 13.5v4q1 4 6.5 4.5t8.5 1.5q7 3 10 11.5t5 14.5q1 1 1.5 5.5t1.5 6.5l46 128q1 1 1 3q0 4 1 5v2v3q0 1 1 2q-1 2 -1 4v5v3v3v2q4 5 15 13t17 8q5 0 8.5 -2.5t8.5 -3.5h26q1 0 7.5 -0.5t8.5 -0.5h3h5
l144 13q1 0 9 0.5t17.5 0.5t19 0.5t14.5 0.5h28h33q1 0 6 -0.5t8 -0.5q6 -1 12.5 -1.5t10.5 -6.5q4 -8 4 -18v-5l-1 -2l-4 -6t-7 -3t-9.5 3.5t-9.5 5.5q-4 3 -11.5 5t-12.5 2h-58l-213 -14h-33l-2 -2q-4 -4 -5 -6l-57 -123q-1 -2 -4 -10t-5 -13q-3 -6 -3 -11q0 -3 3 -6h7
q11 0 21 1t21 3q3 1 10.5 2t16 2.5t16.5 2.5t11 2l123 7h59h4q8 -2 16.5 -7t8.5 -14q0 -8 -7.5 -9t-13.5 -3h-13h-13q-2 0 -7 0.5t-11 1.5t-11 1.5t-6 0.5h-20h-19q-42 -2 -82 -6t-81 -13q-2 0 -11.5 -2t-13.5 -4q-2 -1 -7 -2t-6 -1q-8 -3 -11.5 -10.5t-7.5 -15.5
q-1 -1 -1 -2q-1 -1 -1 -2q-1 -3 -3.5 -9t-2.5 -7q-1 -2 -2.5 -8t-3.5 -13.5t-3.5 -13.5t-2.5 -7q-2 -5 -4 -11t-3 -11q-2 -7 -1.5 -13.5t-1.5 -14.5q-2 -1 -3 -5t-2 -6q0 -2 -3.5 -11t-3.5 -11q-6 -9 -6 -21q0 -1 -0.5 -2.5t1.5 -3.5q0 1 3 -2q1 -1 2 -1h8l307 30h6
t13.5 0.5t15.5 0.5h13h5q11 0 20 -3t9 -18q0 -7 -3.5 -8l-10.5 -3q-9 -3 -19 -3q-5 0 -9.5 1.5t-9.5 3.5h-3h-6h-7q-4 0 -14 -2t-14 -3h-5l-170 -10q-28 -10 -56 -15t-57 -7q-3 0 -13 -1t-14 -1h-11h-9l-2 1q-6 4 -8 9.5t-2 11.5v6zM493 617h-1q-12 -4 -24.5 -9.5
t-23.5 -10.5q-2 -2 -11 -7.5t-20 -11.5t-20.5 -11.5t-12.5 -6.5q-1 -1 -9.5 -5t-12.5 -6q0 -1 -3 -1.5t-4 -2.5q-2 -1 -10 -4t-10 -4q-3 0 -5 -0.5t-6 -0.5q-14 0 -14 18q0 11 13 14.5t21 7.5q7 2 9 4q2 1 7.5 3t7.5 4q4 3 13 8t19.5 10.5t19.5 10.5t13 7q3 2 9.5 5.5t14 7
t14 6.5t8.5 4q6 2 11.5 4t12.5 2q5 0 9 -0.5t8 -2.5q3 -3 6 -11.5t3 -13.5q2 -10 2.5 -20t5.5 -20q3 -8 9 -15t11 -14q3 -4 6 -8.5t3 -9.5q0 -2 -2 -3q0 -3 -5 -3h-5h-6.5t-6.5 2l-2 2q-2 1 -6 4.5t-5 4.5t-2 2.5t-2 2.5q-11 15 -16.5 32t-10.5 35v1z" />
    <glyph glyph-name="Aacute" unicode="&#xc1;" 
d="M278 -14l12 37l24 96q0 2 2 14l3 18q2 10 3.5 20.5t1.5 21.5q0 2 -2.5 3t-4.5 1h-20h-20q-2 0 -10.5 -0.5t-18.5 -1.5t-18 -1.5t-10 -0.5h-8.5t-13.5 -0.5t-13.5 -0.5h-8.5t-9.5 -1t-10.5 -1q-15 -2 -23 -11l-75 -110q-2 -2 -7.5 -9t-7.5 -9t-5.5 -6t-4.5 -5t-6 -1
q-14 0 -14 14v2l2 4l3 6l1 1q0 1 0.5 1t0.5 1q2 4 7.5 11.5t6.5 7.5l64 84q1 1 2 3l2 4q2 2 3.5 5.5t2.5 5.5q-1 0 -1 1v2q-1 1 -3 4.5t-2 4.5v5q0 9 11 12q2 0 7 0.5t7 0.5q8 1 13.5 7t9.5 13l122 158q2 2 7 10t7 10q11 15 23.5 28.5t23.5 30.5q2 5 4 9l4 8q0 1 0.5 1.5
t0.5 1.5q0 2 1 7t1 6q1 3 2.5 5t2.5 4q3 2 11 2q11 0 15.5 -13t6.5 -21q3 -14 4 -26t1 -26v-12q0 -2 -1 -12t-1 -12q0 -4 -1 -10.5t-1.5 -13t-1.5 -12t-1 -6.5l-20 -109q-1 -4 -1 -10q0 -5 2 -6q0 -2 4 -2h24l3 -1q13 -3 13 -15q0 -13 -14.5 -16.5t-24.5 -3.5h-6
q-1 0 -3 0.5t-3 0.5h-1l-4 -4l-32 -190q0 -2 -1 -7t-1 -7q-1 -13 -13 -18q-2 -2 -6 -2q-7 0 -12.5 5t-5.5 12v3zM175 227q0 -5 5.5 -7t10.5 -2q7 0 13 1.5t14 2.5l110 5l5 5l20 113q0 1 1 7t2 13.5t2 14.5t1 10t1 12t1 12v13v12.5t-2 12.5q0 1 -1 4t-4 3h-2l-3 -3l-173 -224
q-1 -2 -1 -5zM287 537q0 5 -1 9.5t-1 9.5q0 8 2 10.5t8 5.5q3 1 7.5 3t6.5 2q5 2 14.5 6t10.5 4l65 20q2 1 8 3t13 4.5t13 5t9 3.5q14 7 34 7q4 0 12 -1t8 -8v-5q0 -11 -4 -13t-14 -4l-122 -41q-1 0 -6 -2t-11.5 -5t-13 -5.5t-10.5 -4.5q-1 -1 -7.5 -3t-7.5 -3
q-2 0 -3.5 -0.5t-3.5 -0.5q-5 0 -6 3z" />
    <glyph glyph-name="Edieresis" unicode="&#xcb;" horiz-adv-x="495" 
d="M51 31q1 4 3 10t2 7l56 168q1 1 2 4.5t1 4.5v2q0 6 -1.5 12t-1.5 13v5q4 5 13 5q5 2 8 6.5t5 9.5q0 1 1 4.5t2 5.5q1 1 2 5.5t2 6.5l45 128q1 3 2 7.5t1 8.5v12v4l2 2l8 8l2 2l3 3q4 2 7.5 4.5t8.5 2.5t8.5 -2.5t8.5 -3.5h26q2 0 8.5 -0.5t7.5 -0.5h5h4l144 13
q1 0 8.5 0.5t17.5 0.5t19.5 0.5t14.5 0.5h28h32q2 0 7 -0.5t8 -0.5q1 0 3.5 -0.5t4.5 -0.5q11 -1 15 -8t4 -17q0 -5 -3 -10.5t-8 -5.5q-6 0 -9 3t-8 5q-6 3 -13 5.5t-14 2.5h-59l-212 -14h-33q0 -1 -1 -1q-1 -1 -2 -1q-1 -2 -2.5 -3t-1.5 -2q-1 0 -1.5 -2.5t-1.5 -4.5
l-58 -126q0 -1 -2.5 -6t-2.5 -7q-1 -2 -2 -4.5t-1 -3.5v-4v-2l3 -4h7h6q4 0 11 1t8 1l71 11l122 7h59h3q2 0 3 -0.5t2 -0.5q8 -2 14 -6.5t6 -13.5v-5l-2 -2q-1 -1 -2 -1q-1 -1 -2 -1t-1 -0.5t-1 -0.5h-1q-7 -2 -12.5 -2h-12.5h-12q-1 0 -6 0.5t-11 1.5t-11 1.5t-7 0.5h-19
h-20q-5 0 -15 -1t-21.5 -1.5t-21.5 -1.5t-14 -1q-2 0 -10 -1.5t-17.5 -2.5t-18.5 -2t-12 -1q-4 -1 -17.5 -3.5t-18.5 -3.5q-2 -1 -13 -4t-16 -4q-8 -2 -11 -5q-1 -1 -3 -3.5t-3 -3.5t-1 -2t-1 -1q-10 -18 -14.5 -37t-10.5 -39q-2 -5 -4.5 -11t-3.5 -12v-12q-2 -13 -6 -23
q-5 -10 -9.5 -21.5t-4.5 -23.5v-4l6 -5l315 31h6t13.5 0.5t15 0.5h12.5h5q11 0 20 -3t9 -17v-8q-2 -2 -8 -3t-8 -2q-4 -1 -7.5 -1.5t-8.5 -0.5t-9.5 1.5t-9.5 3.5h-3h-7h-7q-2 0 -13 -2t-14 -3h-5l-170 -10q-30 -11 -61.5 -16t-63.5 -7q-2 0 -8 -0.5t-8 -0.5h-10h-9
q-7 2 -9.5 9.5t-2.5 12.5v7zM467 555q0 5 1 7q0 1 2 4.5t3 5.5q0 1 1 2l2 2v1q0 1 0.5 1t0.5 1t1 2l6 6q1 1 6.5 3t7.5 4l4 2t3 1h3q4 0 7 -1.5l7 -3.5q3 -6 3 -13q0 -10 -4.5 -17.5t-9.5 -14.5q-4 -4 -7 -7.5t-8 -5.5h-6q-5 0 -7.5 0.5t-6.5 1.5q-3 1 -4.5 3.5t-2.5 4.5
q-2 4 -2 11zM316 562v7q1 5 3 10t4 8q3 6 7 10.5t9 9.5l3 3q1 1 2 1h18q1 0 2.5 -1t3.5 -1q1 -1 2.5 -3t2.5 -2q3 -3 3 -10q0 -5 -2 -8.5t-4 -8.5q-4 -10 -6.5 -16.5t-10.5 -13.5q-4 -3 -8 -3.5t-9 -0.5q-6 0 -9.5 1t-8.5 7q-1 0 -1 2q0 1 -1 1v8z" />
    <glyph glyph-name="Egrave" unicode="&#xc8;" horiz-adv-x="495" 
d="M489 41q-8 -2 -13.5 -3.5t-13.5 -1.5q-6 0 -10 1.5t-9 3.5h-4h-6h-7q-3 0 -14 -2t-13 -3h-7l-169 -10q-29 -11 -60.5 -16t-63.5 -7q-2 0 -8 -0.5t-8 -0.5h-10h-11q-6 2 -8.5 9.5t-2.5 12.5t1 9l2 8l59 175q1 1 2 4.5t1 4.5v2q0 7 -2 13t-2 14q0 6 5.5 6.5t9.5 2.5l2 1
l3 3t2 3q5 7 7 18q1 1 2 5.5t1 6.5l47 128q1 3 2 7.5t1 8.5t-0.5 7t-0.5 6t1 4l9 9l2 2q1 1 2 1.5t2 1.5q3 2 7 4.5t9 2.5t8.5 -2.5t8.5 -3.5h25q2 0 8.5 -0.5t8.5 -0.5h5h4l143 13q1 0 9 0.5t17.5 0.5t19 0.5t14.5 0.5h29h31q1 0 6.5 -0.5t9.5 -0.5q1 -1 3 -1h4
q11 -1 15.5 -8t4.5 -17q0 -5 -3.5 -10.5t-8.5 -5.5t-8.5 3t-7.5 5q-7 3 -13.5 5.5t-14.5 2.5h-58l-213 -14h-32l-3 -2q-2 -2 -3 -2q-1 -1 -2 -1q0 -1 -1 -3t-1 -3l-54 -120q-1 -1 -4.5 -9.5t-5.5 -12.5q0 -2 -1 -4.5t-1 -3.5v-4v-2q0 -1 1 -2l2 -2h7h6q3 0 10.5 1t8.5 1
l71 11l121 7h59h4q2 0 3 -0.5t2 -0.5q8 -2 14 -6.5t6 -13.5q0 -3 -1 -5l-2 -2q-1 -1 -2 -1q-1 -1 -2 -1t-1.5 -0.5t-1.5 -0.5q-6 -2 -12 -2h-12h-12q-2 0 -7 0.5t-10.5 1.5t-11 1.5t-6.5 0.5h-19h-21q-5 0 -15 -1t-21.5 -1.5t-21 -1.5t-13.5 -1q-3 0 -10.5 -1t-16 -2.5
t-16.5 -2.5t-12 -1t-19 -3l-20 -4q-2 -1 -13 -4t-16 -4q-3 -1 -6.5 -2t-5.5 -3q-2 -1 -3 -3q-2 -2 -2 -3l-1 -1l-1 -1q-1 0 -1 -1q-9 -18 -14 -37.5t-10 -39.5q-1 -2 -4 -10t-4 -10v-3q0 -1 -0.5 -2.5t-0.5 -3.5v-5q-1 -13 -6 -25.5t-10 -23.5q-5 -10 -5 -20l1 -4
q1 -1 3 -2.5t3 -1.5h8l308 30h5.5t13 0.5t15.5 0.5h13h4q13 0 21 -3t10 -18zM393 592q-2 2 -11 10.5t-12 12.5q-2 1 -11.5 8t-11.5 7q-5 5 -5 9q0 3 1 4l1 2q2 0 5 2.5t4 4.5q8 6 13 6t7 -1q2 -2 8 -6.5t8 -6.5q2 -3 9.5 -10t8.5 -9l51 -51q2 -2 7.5 -6t7.5 -6q5 -5 9 -11
t7 -14q3 -2 3 -9q0 -5 -6 -8.5t-10 -3.5q-5 0 -9 3.5t-6 7.5z" />
    <glyph glyph-name="Ograve" unicode="&#xd2;" horiz-adv-x="467" 
d="M49 90q0 15 3 27.5t10 26.5q1 3 4.5 10.5t7 15.5t7 15.5t5.5 10.5q2 4 9 17t11 18q1 2 4 7t6 10.5t6 10t4 6.5q27 42 58 81.5t67 74.5q2 2 10.5 9.5t12.5 11.5q13 11 27.5 21t30.5 18q17 9 35.5 15t36.5 6q12 0 19.5 -4.5t16.5 -12.5q1 -2 7.5 -9.5t8.5 -9.5t7 -7.5
t11 -11.5t11.5 -11t7.5 -7q13 -15 18 -33t5 -35q0 -32 -10 -61t-27 -55t-38.5 -49t-45.5 -42q-2 -2 -6.5 -5.5t-10 -7.5t-10 -7t-5.5 -4q-3 -2 -10 -6.5t-15.5 -10t-16 -10.5l-10.5 -7q-2 -2 -7 -5t-11 -6t-11 -6t-8 -4q-33 -19 -71 -32t-77 -13q-19 0 -36 4.5t-30 18.5
q-3 2 -4.5 6t-3.5 8q-2 5 -2.5 11.5t-0.5 11.5zM76 90q0 -12 5 -18.5t12.5 -10t17 -4t19.5 -0.5q19 0 36.5 4t36.5 10q29 11 57 25t55 30q1 1 4.5 4t8 6t8.5 6t6 4q30 23 58 48t50 56q15 20 25 41t14 46v3q0 1 1 3v13q0 20 -7 41q-2 9 -9 16q-12 13 -25 22q-4 2 -15.5 9.5
t-15.5 9.5q-5 3 -10 3t-8.5 -1t-7.5 -1q-7 0 -10.5 5t-8.5 5t-11 -3t-9 -4q-2 -2 -6.5 -4t-5.5 -2q-3 -2 -8.5 -5t-7.5 -5q-4 -3 -17 -12t-18 -13q-4 -3 -6.5 -7t-7.5 -8q-2 -1 -3 -2l-3 -3q-1 0 -8.5 -8t-8.5 -9q-2 -2 -7.5 -6t-6.5 -6q-1 0 -4.5 -4t-4.5 -6
q-28 -28 -53 -64q-2 -2 -6 -8t-9 -13t-9.5 -13.5t-5.5 -8.5q-18 -28 -34 -56.5t-27 -59.5q-4 -10 -7 -22t-3 -23zM406 594q-2 2 -7 6t-7 6q-3 4 -15 13t-15 11q-6 4 -6 10q0 1 2 5q2 1 6.5 4.5t5.5 5.5q6 3 10 3q5 0 7 -1q2 -2 7.5 -6.5t6.5 -5.5q3 -2 9 -8.5t8 -6.5l53 -55
q2 -2 7 -6t7 -6q2 -1 5 -4.5t5 -4.5q0 -2 1 -3t1 -2q1 0 2.5 -3t2.5 -4q2 -4 3 -7t1 -7q0 -5 -6 -8.5t-11 -3.5t-8 3.5t-5 5.5z" />
    <glyph glyph-name="Oacute" unicode="&#xd3;" horiz-adv-x="467" 
d="M49 90q0 14 3.5 26t9.5 25q1 4 5 13t8.5 19t8.5 19t6 12q2 2 6.5 9.5t9.5 16t9.5 16.5t7.5 11q2 3 6.5 10t9.5 15t10 15.5l7 10.5q1 2 6 8.5l10 13l10 13t7 8.5q1 1 5 5.5t9 10.5t10 11.5t8 8.5q1 2 4 5.5t4 4.5q4 4 14 14.5t12 12.5q23 22 52 41q22 15 47 26t51 11
q19 0 33 -14q2 -2 8.5 -9.5t8.5 -9.5l7.5 -7.5l11.5 -11.5l11.5 -11.5t7.5 -8.5q21 -23 23 -55v-14v-17t-2 -16q-3 -18 -9.5 -33.5t-14.5 -31.5t-18.5 -30.5t-22.5 -27.5q-16 -17 -33 -32t-34 -29q-4 -3 -15.5 -11.5t-15.5 -10.5q-2 -2 -9 -6.5t-16 -10.5t-18 -11.5
t-13 -7.5q-2 -2 -11 -6.5t-12 -6.5q-33 -18 -69.5 -30.5t-74.5 -12.5q-31 0 -55 12.5t-24 47.5zM77 84v-2q0 -1 1 -2q3 -12 14.5 -17.5t22.5 -5.5h15q11 0 21 1.5t21 3.5q28 7 53.5 17.5t51.5 24.5q17 10 33 19.5t31 20.5q21 15 40.5 31.5t36.5 34.5q2 3 7.5 9t7.5 8
q23 27 40.5 58.5t17.5 69.5q0 22 -5.5 38t-22.5 32q-1 2 -4.5 4.5t-4.5 2.5q-5 4 -18.5 12.5t-18.5 10.5q-4 2 -9 2q-4 0 -7 -1t-7 -1q-8 0 -11.5 5t-8.5 5q-6 0 -12 -4q-2 0 -6.5 -2t-4.5 -3q-3 -2 -10.5 -6t-9.5 -6q-3 -1 -8.5 -4.5t-11.5 -8t-11.5 -8.5t-7.5 -5
q-5 -5 -9.5 -10.5t-10.5 -9.5q-13 -13 -27 -25t-25 -27q-32 -35 -57.5 -72.5t-48.5 -78.5q-2 -3 -8 -15l-8 -16q-1 -2 -4.5 -11.5t-5.5 -12.5q-5 -12 -8 -24t-3 -25v-7zM303 554q0 3 4 5l2 3q17 8 34 14t35 12q1 0 5.5 1.5t9.5 3t9.5 3t6.5 1.5q1 1 5 2t6 1q1 1 6.5 3
t11.5 5t11.5 5t7.5 3q10 2 18.5 4t19.5 2q8 0 14.5 -1t6.5 -11t-4.5 -13t-14.5 -5l-126 -43q-2 0 -14 -5t-18 -7q-2 -1 -11 -5t-11 -5q-1 -1 -5 -1q-5 0 -6 4t-2 7q-1 0 -1 1v2v2v7v5z" />
    <glyph glyph-name="Ocircumflex" unicode="&#xd4;" horiz-adv-x="467" 
d="M49 90q0 13 3 25t8 23q1 4 5.5 13t9 19.5t8.5 19.5t6 12q1 2 5.5 9t9 14.5t8.5 15t6 10.5q2 2 6.5 9t9.5 15.5t10 16t8 10.5q1 2 5 7t8.5 11t8 11.5t5.5 7.5q19 24 38.5 45.5t40.5 43.5q2 1 11 9t13 10q26 20 57.5 37.5t64.5 17.5q8 0 15 -2t12 -7q2 -2 6 -5t5 -5t8 -10
t9 -10q8 -8 16 -15t15 -16q14 -15 20 -33t6 -38q0 -56 -28.5 -102t-67.5 -83q-2 -2 -11 -10t-11 -10q-3 -2 -8 -6t-11 -8.5t-10.5 -8t-5.5 -4.5q-3 -2 -10 -6t-15 -9.5t-15.5 -10t-10.5 -6.5q-4 -2 -17 -10.5t-17 -10.5q-35 -20 -73 -33t-78 -13q-32 0 -55 12.5t-23 47.5z
M76 90q0 -23 17.5 -28t35.5 -5h14q1 0 3.5 0.5t3.5 0.5q31 6 60 16q1 1 6 2t7 2q40 18 76.5 40t71.5 50q4 2 12.5 9.5t10.5 10.5q2 1 6 5t9 8.5t9.5 9l6.5 6.5q1 2 6.5 8.5t7.5 9.5q20 26 36 55.5t16 64.5q0 23 -8 43t-28 34q-2 1 -7 4t-10.5 6.5t-10.5 6.5t-7 4q-5 4 -12 4
q-4 0 -7 -1t-7 -1q-8 0 -11.5 5t-8.5 5q-3 0 -6 -1t-5 -2q-20 -9 -37 -21t-36 -24q-4 -4 -6.5 -8t-7.5 -7q-1 -1 -3.5 -3t-3.5 -2q-1 -2 -8.5 -9.5l-9.5 -9.5q-10 -9 -20 -19t-20 -21q-2 -3 -7 -9t-10 -12.5t-9 -12t-5 -6.5q-2 -3 -7 -10t-10 -14.5t-10 -14t-6 -9.5
q-2 -3 -6 -10t-8.5 -14.5t-9 -14.5t-6.5 -10q-1 -1 -3 -5.5t-5 -10.5t-6 -11.5t-4 -8.5q-1 -1 -3 -6.5t-3 -7.5q-2 -2 -4 -8.5t-3 -8.5q-4 -10 -7 -21.5t-3 -22.5zM488 608q-12 -4 -23.5 -9.5t-22.5 -11.5q-24 -14 -46 -26.5t-48 -23.5q-4 -1 -7 -2t-8 -1q-8 0 -9.5 3.5
t-1.5 11.5v5q2 4 4.5 6t4.5 4q2 0 9 2t9 3q1 0 8.5 3t10.5 5q2 1 5.5 3t5.5 3l65 36l3 2q1 0 4 1.5t4 1.5q1 1 8 4t8 4q5 2 10.5 4.5t11.5 2.5h7t8 -2q5 -5 6.5 -10.5t2.5 -10.5q2 -11 2.5 -20.5t3.5 -18.5q3 -6 7 -10q1 -2 6.5 -9.5t6.5 -8.5q2 -4 4 -7t2 -6
q0 -5 -3.5 -5.5t-8.5 -0.5q-7 0 -10 1q-7 4 -11 11q-8 9 -12.5 20t-8.5 22q-1 2 -3.5 10.5t-2.5 10.5z" />
    <glyph glyph-name="ring" unicode="&#x2da;" horiz-adv-x="288" 
d="M100 299q0 17 11 33.5t22 28.5l7.5 7.5t7.5 6.5q3 2 9.5 8t8.5 8q5 4 10.5 6t10.5 4q2 1 7 2t6 1q3 1 14 3t15 2h7h9q5 0 13 -5q14 -5 20 -17.5t6 -26.5t-6 -28t-16 -25q-2 -2 -5.5 -5t-3.5 -4q-2 -1 -9 -5.5t-10 -7.5q-17 -11 -36.5 -20t-41.5 -9q-5 0 -9.5 0.5
t-9.5 0.5l-8 4t-7 4q-10 5 -16 14t-6 20zM129 301q0 -9 3 -12l2 -2q1 -1 1 -2h2q9 0 19.5 2t19.5 3q13 3 27 9t26 14.5t19.5 20t7.5 27.5q0 4 -1 6q-3 5 -8 9t-12 4q-8 0 -12.5 -7t-12.5 -7q-5 0 -7.5 2.5t-7.5 2.5q-2 0 -5 -1.5t-4 -3.5t-8.5 -9t-9.5 -9q-5 -4 -9.5 -6.5
t-9.5 -6.5l-5.5 -5.5t-3.5 -5.5q-4 -2 -7.5 -8t-3.5 -10v-5z" />
    <glyph glyph-name="Uacute" unicode="&#xda;" horiz-adv-x="445" 
d="M70 19q0 16 2.5 32.5t6.5 33.5q1 3 2.5 10t2.5 9l149 406q2 2 5.5 11t5.5 14q1 1 2.5 4t2.5 4q1 4 9 4q18 0 18 -14q0 -8 -5 -15l-33 -67l-48 -123l-15 -42q-2 -3 -5.5 -11.5t-7 -17.5t-7.5 -17.5t-5 -12.5q-2 -4 -6.5 -15t-4.5 -13l-28 -93q-1 -1 -1.5 -4t-0.5 -5
q-1 -3 -2.5 -9t-1.5 -8q0 -5 -1 -13t-2 -15.5t-1.5 -13.5t-0.5 -7v-7l2 -1q1 -3 5 -3h3q10 0 18 5t15 10q2 2 6.5 5t6.5 4q3 3 11 10t9 9l6.5 6.5l9.5 9.5t9.5 9t6.5 5q1 3 6 8.5t10.5 11.5t10.5 11.5t7 7.5q2 3 7.5 10.5t11.5 16t11.5 16t8.5 10.5q1 3 6 9.5t10 14
t9.5 14.5t6.5 10t7 11.5t10 18t10 18.5t7 12q1 2 3.5 8t6 12.5t6.5 13t5 9.5q8 17 14.5 34t12.5 35q1 5 4 16.5t7 25t7 25t3 16.5q2 3 5 13t4 12q2 9 8 17t17 8q14 0 14 -14q0 -12 -3 -23.5t-8 -22.5q-1 -2 -3.5 -7.5t-6 -12.5t-6 -13t-3.5 -7q-5 -11 -6.5 -21.5t-3.5 -21.5
l-4.5 -4.5t-3.5 -5.5q-1 -2 -1.5 -4.5t-1.5 -4.5q-1 -3 -3 -5q0 -4 -3.5 -15t-4.5 -15q-2 -5 -5 -17.5t-6 -26t-6 -26t-4 -16.5t-3 -12.5t-5 -18t-5.5 -18t-3.5 -11.5q-1 -2 -1.5 -9.5t-1.5 -9.5q0 -2 -1.5 -7.5t-1.5 -7.5q-1 0 -1 -1v-2q-2 -9 -4 -17t-3 -17l-1 -7
q0 -1 -0.5 -2t-0.5 -2q-1 -2 -1 -3q-4 -12 -5 -22.5t-1 -22.5v-10q0 -2 2 -12.5t2 -12.5v-6v-6l-1 -2q-9 -10 -22 -10q-8 0 -11.5 5t-5.5 13v10v9q0 1 0.5 4t0.5 4q1 5 2.5 13t1.5 10l39 167v3l-68 -99l-39 -50l-64 -69q-14 -17 -33.5 -29t-42.5 -12q-14 0 -23 8.5t-9 25.5z
M317 539q-1 2 -2 8t-1 8v4q0 7 2 9.5t7 5.5q4 1 9 3.5t5 3.5q5 2 15 5.5t11 4.5l65 20l9 3t13.5 5t13.5 5l9 3l16 4t16 2q5 0 11.5 -1t8.5 -7v-6q0 -11 -4.5 -13.5t-14.5 -4.5l-127 -42q-9 -3 -17 -7l-14 -6t-11 -5q-8 -4 -14 -4q-5 0 -6 2z" />
    <glyph glyph-name="Ucircumflex" unicode="&#xdb;" horiz-adv-x="445" 
d="M70 21q0 13 1.5 24.5t3.5 24.5q2 5 4 14.5t3 11.5l149 412l5 10t6 13q1 2 3.5 6.5t3.5 6.5q2 3 9 3q17 0 17 -15q0 -4 -2 -10l-32 -64l-44 -109l-4 -12t-7 -19t-7 -19l-4 -12q-1 -2 -3 -8t-3 -8t-4 -9.5t-6.5 -15.5t-6.5 -15.5t-4 -8.5q-2 -3 -5.5 -11t-4.5 -10l-28 -96
q-1 -1 -1.5 -4t-0.5 -4q-4 -18 -5.5 -35t-3.5 -34v-2q0 -4 4 -5t7 -1q6 0 12.5 2.5t11.5 6.5q40 27 76 68q2 2 6.5 7l9 10t8.5 9.5t5 6.5q29 37 55 75.5t48 81.5q9 14 16.5 30.5t15.5 33.5q6 13 10.5 26t8.5 27q1 5 4.5 17t7.5 25t7 25t4 17q2 2 4.5 11.5t3.5 13.5
q3 8 8.5 16.5t16.5 8.5q5 0 8.5 -1t5.5 -6v-7q0 -14 -3.5 -25.5t-8.5 -23.5q-1 -2 -4 -7.5t-6 -12t-5.5 -12t-3.5 -8.5q-2 -5 -4 -15q0 -2 -1.5 -10.5t-2.5 -10.5q-1 -5 -4 -8t-5 -8q-1 -2 -2.5 -6.5t-1.5 -5.5q-2 -3 -5.5 -15t-4.5 -16q-1 -5 -4 -17l-6.5 -26t-6 -26
t-3.5 -17q-1 -3 -3.5 -11t-5 -17.5t-5 -18t-3.5 -10.5q-2 -11 -4 -20t-4 -20q0 -1 -1 -5t-1.5 -8t-1.5 -7.5t-1 -4.5q-2 -5 -1.5 -8.5t-0.5 -6.5q0 -2 -2.5 -7t-2.5 -7q-2 -9 -3 -18.5t-1 -18.5q0 -12 2 -22.5t2 -22.5q0 -8 -8 -11.5t-14 -3.5q-13 0 -15 9t-2 19v7v10t2 9
l13 62l29 123l-66 -97l-40 -51l-61 -66q-14 -18 -34.5 -32t-45.5 -14q-11 0 -20.5 6t-11.5 18v12zM422 644q-31 -12 -58.5 -32t-58.5 -31h-4q-11 0 -11 13q0 9 11 13q2 1 6.5 2.5t6.5 2.5q1 1 4 2.5t4 1.5q3 1 11 6t17 10.5t17.5 10.5t11.5 7q1 1 5.5 3.5t10 5.5t10.5 5t7 3
q8 4 14 4h5.5t5.5 -2q3 -2 4.5 -5t2.5 -6q2 -10 2 -20.5t4 -19.5l1 -1q1 -1 1 -1.5t1 -1.5q1 -2 2 -3q1 -2 5.5 -8.5t4.5 -8.5q6 -6 6 -12q0 -3 -3 -4t-5 -1h-4.5t-4.5 2q-9 8 -14.5 17.5t-9.5 21.5q-1 1 -3 9.5t-3 10.5q0 1 -0.5 2.5t-0.5 2.5z" />
    <glyph glyph-name="Ugrave" unicode="&#xd9;" horiz-adv-x="445" 
d="M70 10q0 31 8 63q2 4 4 12.5t3 9.5l145 399q3 8 7 15q7 14 10 23q1 1 2 3t3 2h13l2 -1h2q7 -4 7 -14v-2q0 -1 -1 -3.5t-2 -4.5l-33 -68l-46 -116q-1 -3 -4 -10t-6 -15.5t-5.5 -15.5t-3.5 -10q0 -2 -2 -8.5t-4 -8.5q-1 -2 -4 -9t-6.5 -15t-6.5 -15.5t-4 -9.5
q-2 -3 -5.5 -12t-4.5 -11l-29 -96q0 -1 -0.5 -4.5t-1.5 -5.5q-1 -3 -2 -8t-1 -7q0 -3 -0.5 -10t-1.5 -15t-1.5 -15t-1.5 -10v-1q0 -4 4.5 -5.5t6.5 -1.5q6 0 11 3t10 5q42 28 75 66q4 4 14.5 16t14.5 16q3 3 8.5 11t12 16t11.5 15.5t7 9.5q3 3 8.5 11.5t12 17.5t12 17
t7.5 12q2 3 6 10.5t8.5 15.5t8.5 15.5t6 10.5q1 3 4 9t7 13.5t7 13.5t5 9q8 18 15 36.5t14 38.5q1 4 4.5 16t7 25t6.5 24.5t4 16.5q1 3 3.5 12t3.5 12q4 9 9.5 18t16.5 9q14 0 14 -14q0 -26 -12 -48t-21 -45q0 -4 -2 -10q0 -2 -1.5 -10.5t-2.5 -10.5t-1 -4.5t-2 -4.5l-3 -3
q-1 -1 -2 -3q-2 -2 -4 -8.5t-3 -9.5q-1 -4 -5 -17.5t-5 -18.5q-1 -4 -3.5 -14.5t-5.5 -22.5t-5.5 -22.5t-3.5 -14.5t-3.5 -13.5t-5.5 -20t-5.5 -19.5t-3.5 -13q-2 -9 -3.5 -18.5t-3.5 -18.5q-1 -2 -3 -11t-2 -11q-1 -1 -1 -3q-1 -1 -1 -3v-1q-1 -2 -1 -5v-7q0 -1 -2 -5
t-2 -5q-2 -10 -3.5 -19t-1.5 -20t2.5 -21.5t2.5 -21.5q0 -5 -1 -6q-9 -11 -22 -11q-11 0 -14 8.5t-3 18.5v6q0 1 0.5 4t0.5 5v5t1 6l2 8l41 178l-65 -94l-43 -56l-65 -71q-5 -5 -10 -9.5t-11 -9.5q-24 -19 -53 -19q-11 0 -21 5.5t-12 19.5v9zM346 634l-38 32q-6 6 -6 10
q0 2 2 4l6 6t6 4q5 5 10 5t7 -2q3 -2 9 -7.5t8 -7.5q1 0 3 -2.5t3 -2.5l6.5 -6.5l9.5 -9.5l9 -9l5 -5q2 -2 9 -10t9 -10t7.5 -7t7.5 -7q1 -1 6.5 -5.5t6.5 -5.5q10 -9 16 -24q3 -5 3 -10q0 -6 -5.5 -9t-10.5 -3q-10 0 -15 11z" />
    <glyph glyph-name="Iacute" unicode="&#xcd;" horiz-adv-x="312" 
d="M-4 41q1 1 1 3q0 4 1 4l4 2l2 1h48q2 0 8.5 1t9.5 1h9q2 0 6.5 0.5t5.5 0.5t2.5 0.5t3.5 0.5q2 1 4.5 2t3.5 3l192 385q2 6 4.5 12t4.5 12v1q0 2 -1.5 2t-3.5 1q-2 0 -10 0.5t-10 0.5h-39q-9 1 -16 3.5t-7 13.5q0 10 10 14h3h7q14 0 28 -2t28 -2h4l68 5h42q8 0 18.5 -3.5
t14.5 -11.5q3 -3 3 -9q0 -11 -8 -18q-2 -1 -5 -1h-6q-1 1 -5 3.5t-4 3.5q-9 5 -17.5 6t-16.5 1q-21 0 -38 -4q-1 0 -3 -2q-5 -2 -7 -8l-105 -198q0 -2 -2.5 -10.5t-3.5 -11.5q0 -4 -4 -8q0 -2 -3 -7t-6.5 -11t-6.5 -11.5t-4 -7.5q-3 -5 -6 -13q-4 -8 -7 -18.5t-11 -16.5
q-2 -3 -5.5 -12t-7.5 -18.5t-8 -18.5t-5 -13q-1 -2 -4 -11.5t-4 -12.5l2 -1q15 -3 32 -3q11 0 21.5 0.5t21.5 0.5h14q1 0 4 -0.5t5 -0.5q8 -1 17.5 -3t15.5 -9q2 -3 2 -7q0 -8 -6 -12.5t-14 -4.5q-9 0 -16.5 3t-15.5 4h-33h-25h-17l-112 -8h-34q-2 1 -3 2l-3 3q-2 2 -2 6v7z
M266 562q0 2 -0.5 4t1.5 3l3 3q1 2 5 3.5t6 2.5q3 2 10 4.5t9 4.5q4 1 14.5 4.5t13.5 5.5q1 0 8 2t15.5 4.5t15 4.5t8.5 2q21 6 40 15t42 9q10 0 15.5 -1t5.5 -12q0 -10 -4 -12.5t-14 -4.5l-130 -44l-50 -22q-2 -1 -4 -1q-6 0 -7 5q-3 10 -3 20z" />
    <glyph glyph-name="aring" unicode="&#xe5;" horiz-adv-x="349" 
d="M250 -12q0 10 4 18q2 1 6 5l5 5q2 2 3 4.5t3 3.5q1 3 4 7.5t5.5 9.5t5 9t3.5 4q16 31 26 60q2 7 5 14.5t3 15.5t-3 17q-4 16 -13.5 30.5t-28.5 14.5q-12 0 -25 -3t-24 -8q-17 -6 -33 -14.5t-33 -19.5q-28 -19 -54.5 -43.5t-42.5 -56.5l-4 -10t-2 -10q0 -15 14.5 -18.5
t25.5 -3.5h9q1 0 9.5 1t12.5 1h3q1 0 2 1l3 1q3 0 9 2t12 3.5t10.5 3.5t5.5 2q2 0 17.5 5t23.5 8q6 2 14 5.5t13 9.5l4 4q2 2 2.5 3.5t1.5 2.5l5 5l2 2q1 0 1 1h12l2 -1q11 -5 11 -18v-4q0 -3 -4 -7t-7 -6q-13 -8 -27.5 -14.5t-28.5 -11.5q-2 -1 -7 -2.5t-11 -3.5
t-11.5 -3.5t-8.5 -2.5q-2 -2 -12.5 -5t-15.5 -5q-11 -2 -21.5 -4.5t-23.5 -2.5q-18 0 -38 5t-31 22q-7 9 -7 19v1l2 10t3 10v4q5 10 11 20t11 20q32 42 76 75t96 48q2 1 10 2.5t11 2.5q6 2 14 3.5t16 1.5q14 0 24.5 -6.5t18.5 -16.5l2 -2q0 -1 1 -1l1 -1l14 -26q3 0 5.5 7
t4.5 9q5 14 8.5 28.5t5.5 28.5q1 2 2 10t2 10v11q0 6 -3 14q-8 19 -27.5 25.5t-38.5 6.5q-26 0 -52.5 -9.5t-48.5 -24.5q-2 -2 -10.5 -6.5t-11.5 -6.5q-1 -1 -6.5 -5t-7.5 -6q-1 -2 -8.5 -8.5t-9.5 -6.5q-3 -3 -7 -3q-11 0 -11 13q0 10 5.5 17t11.5 12q8 5 15.5 10.5
t15.5 9.5q3 2 11.5 6t10.5 5q15 7 29.5 12.5t30.5 11.5q1 0 10 2t13 3q5 2 10.5 2h10.5q23 0 47 -9t35 -31q6 -11 8 -19.5t2 -19.5v-12q-1 -2 -1 -3v-4q-2 -15 -5.5 -29.5t-8.5 -28.5l-3.5 -10.5t-5.5 -15.5t-6 -14.5t-4 -8.5q-1 -4 -5 -13t-9 -19.5t-9.5 -19.5t-5.5 -13
q-2 -5 -8 -17l-12.5 -25t-12.5 -24.5t-9 -15.5q-3 -6 -3 -10q-2 -8 -4 -18t-13 -10q-7 0 -12.5 4t-6.5 10v6zM267 442q0 14 8 27t17 24l3 3t3 2q17 20 35 37q5 2 12 4.5t12 3.5q2 1 6.5 2.5t5.5 1.5q3 0 14 1t16 2h5q21 0 34 -14t13 -35q0 -17 -8 -32.5t-21 -26.5
q-1 0 -4 -3q-19 -13 -37 -24.5t-39 -16.5q-1 -1 -5 -1h-4h-10h-10q-8 0 -12 3q-13 5 -23.5 16t-10.5 26zM297 443q0 -5 1 -9.5t3 -6.5h4h4q2 0 8.5 1t8.5 1q17 3 35 9t32 15q1 0 3 1.5t3 2.5q11 10 17.5 20.5t6.5 25.5v3q0 4 -3 4q-7 12 -18 12q-8 0 -12.5 -7t-11.5 -7
q-5 0 -7.5 2.5t-7.5 2.5q-2 0 -4.5 -1.5t-4.5 -3.5l-23 -21q-2 -3 -5 -4.5t-6 -3.5q-9 -6 -16 -15.5t-7 -20.5z" />
    </font>
</defs>
</svg>
