<?xml version="1.0" standalone="no"?>
<!DOCTYPE svg PUBLIC "-//W3C//DTD SVG 1.1//EN" "http://www.w3.org/Graphics/SVG/1.1/DTD/svg11.dtd" >
<svg xmlns="http://www.w3.org/2000/svg" xmlns:xlink="http://www.w3.org/1999/xlink" version="1.1">
<metadata>
Created by FontForge 20170731 at Mon Apr  2 15:12:26 2018
 By Aleksey,,,
Pangram Pangram Foundry
</metadata>
<defs>
<font id="NeueMontreal-Bold" horiz-adv-x="0" >
  <font-face 
    font-family="Neue Montreal"
    font-weight="700"
    font-stretch="normal"
    units-per-em="1000"
    panose-1="0 0 8 0 0 0 0 0 0 0"
    ascent="770"
    descent="-230"
    x-height="512"
    cap-height="715"
    bbox="-570 -263 1256 972"
    underline-thickness="50"
    underline-position="-200"
    unicode-range="U+0020-25CA"
  />
<missing-glyph horiz-adv-x="500" 
d="M410 770v-1000h-317v1000h317zM333 703h-165v-33h65v-37h-66v-33h166v33h-66v37h66v33zM267 574h-100v-104h166v34h-66v70zM233 540v-36h-33v36h33zM333 443h-166v-33h66v-37h-66v-33h100v70h66v33zM333 383h-33v-66h-133v-34h166v100zM333 261h-100v-56h34v23h33v-47
h-100v80h-33v-113h166v113zM333 88h-166v-113h166v113zM300 55v-47h-100v47h100zM333 -48h-166v-33h70l-70 -47v-33h166v33h-102l70 47h32v33z" />
    <glyph glyph-name=".notdef" horiz-adv-x="500" 
d="M410 770v-1000h-317v1000h317zM333 703h-165v-33h65v-37h-66v-33h166v33h-66v37h66v33zM267 574h-100v-104h166v34h-66v70zM233 540v-36h-33v36h33zM333 443h-166v-33h66v-37h-66v-33h100v70h66v33zM333 383h-33v-66h-133v-34h166v100zM333 261h-100v-56h34v23h33v-47
h-100v80h-33v-113h166v113zM333 88h-166v-113h166v113zM300 55v-47h-100v47h100zM333 -48h-166v-33h70l-70 -47v-33h166v33h-102l70 47h32v33z" />
    <glyph glyph-name=".null" 
 />
    <glyph glyph-name="nonmarkingreturn" horiz-adv-x="333" 
 />
    <glyph glyph-name="space" unicode=" " horiz-adv-x="170" 
 />
    <glyph glyph-name="exclam" unicode="!" horiz-adv-x="264" 
d="M47 715h170v-156l-45 -325h-80l-45 325v156zM132 -9q-37 0 -61 23.5t-24 61.5t24 61.5t61 23.5q36 0 60.5 -23.5t24.5 -61.5t-24.5 -61.5t-60.5 -23.5z" />
    <glyph glyph-name="quotedbl" unicode="&#x22;" horiz-adv-x="422" 
d="M41 715h140l-20 -269h-100zM241 715h140l-20 -269h-100z" />
    <glyph glyph-name="numbersign" unicode="#" horiz-adv-x="600" 
d="M554 392h-71l-26 -123h71l-25 -120h-72l-32 -149h-120l32 149h-92l-32 -149h-120l32 149h-75l25 120h76l26 123h-76l26 120h76l38 179h120l-38 -179h92l38 179h120l-38 -179h71zM337 269l26 123h-92l-26 -123h92z" />
    <glyph glyph-name="dollar" unicode="$" horiz-adv-x="625" 
d="M595 190q0 -87 -68 -144.5t-186 -61.5v-87h-60v89q-123 9 -194 70.5t-71 168.5h170q0 -83 95 -100v150q-9 2 -29 8q-52 15 -86.5 30t-66.5 39t-47.5 59t-15.5 83q0 91 67.5 146.5t177.5 60.5v59h60v-61q108 -11 174 -70t70 -151h-170q-9 60 -74 80v-135q60 -17 97.5 -32
t77.5 -41t59.5 -66t19.5 -94zM206 507q0 -25 17 -39.5t58 -27.5v123q-75 -5 -75 -56zM341 121q84 5 84 62q0 27 -20.5 43.5t-63.5 30.5v-136z" />
    <glyph glyph-name="percent" unicode="%" horiz-adv-x="868" 
d="M204 306q-89 0 -136.5 57t-47.5 143q0 87 47.5 144t136.5 57q90 0 136.5 -57t46.5 -144t-46.5 -143.5t-136.5 -56.5zM666 691l-363 -691h-100l363 691h100zM204 396q30 0 41.5 25.5t11.5 84.5t-11.5 85t-41.5 26t-42 -26t-12 -85t12 -84.5t42 -25.5zM666 -16
q-89 0 -136.5 57t-47.5 143q0 87 47.5 144t136.5 57q90 0 136.5 -57t46.5 -144t-46.5 -143.5t-136.5 -56.5zM666 74q30 0 41.5 25.5t11.5 84.5t-11.5 85t-41.5 26t-42 -26t-12 -85t12 -84.5t42 -25.5z" />
    <glyph glyph-name="ampersand" unicode="&#x26;" horiz-adv-x="697" 
d="M695 0h-200l-33 40q-85 -56 -193 -56q-119 0 -183 53.5t-64 138.5q0 40 12.5 72t38 56t49.5 39.5t60 33.5q-30 35 -45 56t-27 52t-12 64q0 73 58 127t157 55q94 1 154 -54.5t61 -127.5q1 -58 -35.5 -99t-114.5 -81l98 -113q25 54 34 102h140q-13 -114 -80 -212zM313 594
q-31 0 -48 -16t-17 -39q0 -15 9 -31.5t18.5 -26.5t33.5 -34q69 46 69 92q0 24 -16 39.5t-49 15.5zM289 121q48 0 87 22l-129 157q-55 -39 -55 -92q0 -38 25 -62.5t72 -24.5z" />
    <glyph glyph-name="quotesingle" unicode="'" horiz-adv-x="222" 
d="M41 715h140l-20 -269h-100z" />
    <glyph glyph-name="parenleft" unicode="(" horiz-adv-x="341" 
d="M184 770h140q-97 -221 -97 -453q0 -233 97 -454h-140q-53 85 -90 206.5t-37 247.5q0 130 36.5 248.5t90.5 204.5z" />
    <glyph glyph-name="parenright" unicode=")" horiz-adv-x="341" 
d="M157 770q54 -86 90.5 -204.5t36.5 -248.5q0 -126 -37 -247.5t-90 -206.5h-140q97 221 97 454q0 232 -97 453h140z" />
    <glyph glyph-name="asterisk" unicode="*" horiz-adv-x="436" 
d="M406 542l-112 -29l71 -96l-81 -59l-66 101l-66 -101l-81 59l71 96l-111 29l31 95l107 -44v122h100v-122l106 44z" />
    <glyph glyph-name="plus" unicode="+" horiz-adv-x="566" 
d="M214 260h-174v138h174v181h138v-181h174v-138h-174v-181h-138v181z" />
    <glyph glyph-name="comma" unicode="," horiz-adv-x="244" 
d="M127 -9q-43 0 -69 22.5t-26 62.5q0 39 25 62t64 23q45 0 68 -31.5t23 -88.5q0 -87 -45 -142t-125 -66v70q37 5 61 31t24 57z" />
    <glyph glyph-name="hyphen" unicode="-" horiz-adv-x="335" 
d="M32 321h272v-137h-272v137z" />
    <glyph glyph-name="period" unicode="." horiz-adv-x="234" 
d="M117 -9q-37 0 -61 23.5t-24 61.5t24 61.5t61 23.5q36 0 60.5 -23.5t24.5 -61.5t-24.5 -61.5t-60.5 -23.5z" />
    <glyph glyph-name="slash" unicode="/" horiz-adv-x="419" 
d="M419 715l-277 -715h-130l277 715h130z" />
    <glyph glyph-name="zero" unicode="0" horiz-adv-x="654" 
d="M328 -16q-148 0 -226 102.5t-78 258.5q0 101 32 181t102 130.5t170 50.5t170 -50.5t101.5 -130.5t31.5 -181t-31.5 -181t-101.5 -130t-170 -50zM328 121q72 0 102.5 57.5t30.5 166.5q0 110 -30.5 167.5t-102.5 57.5t-103 -58t-31 -167t31 -166.5t103 -57.5z" />
    <glyph glyph-name="one" unicode="1" horiz-adv-x="406" 
d="M202 691h140v-691h-170v467q-18 -19 -46 -28t-47 -10.5t-53 -1.5v120q92 0 134 40.5t42 103.5z" />
    <glyph glyph-name="two" unicode="2" horiz-adv-x="581" 
d="M192 439h-160q0 126 68.5 197t204.5 71q113 0 181 -56t68 -154q0 -63 -35 -121t-76.5 -92t-100 -78t-81.5 -67v-2h293v-137h-532q0 136 121 237q32 27 87.5 68t82 62.5t49 53.5t22.5 64q0 40 -22 62.5t-62 22.5q-108 0 -108 -131z" />
    <glyph glyph-name="three" unicode="3" horiz-adv-x="598" 
d="M194 479h-160q0 102 72.5 165t202.5 63q102 0 174.5 -51t72.5 -139q0 -99 -100 -151v-2q120 -38 120 -170q0 -99 -73 -154.5t-191 -55.5q-145 0 -221.5 67.5t-76.5 192.5h160q0 -123 126 -123q106 0 106 83q0 92 -127 92h-35v117h31q111 0 111 76q0 81 -90 81
q-44 0 -73 -22.5t-29 -68.5z" />
    <glyph glyph-name="four" unicode="4" horiz-adv-x="623" 
d="M504 0h-170v146h-313v167l313 378h170v-408h102v-137h-102v-146zM334 506l-188 -223h188v223z" />
    <glyph glyph-name="five" unicode="5" horiz-adv-x="603" 
d="M351 469q104 0 166.5 -62.5t62.5 -172.5q0 -120 -74.5 -185t-194.5 -65q-141 0 -217.5 62.5t-80.5 167.5h170q4 -40 35 -66.5t83 -26.5q49 0 79 29.5t30 85.5q0 55 -29 85.5t-83 30.5q-65 0 -105 -50h-160l80 389h437v-137h-321l-26 -132v-2q62 49 148 49z" />
    <glyph glyph-name="six" unicode="6" horiz-adv-x="618" 
d="M195 408q67 63 165 63q106 0 172 -66.5t66 -167.5q0 -115 -73.5 -184t-197.5 -69q-82 0 -142.5 29t-94.5 80t-49.5 111.5t-15.5 131.5q0 182 79.5 276.5t216.5 94.5q99 0 169.5 -53.5t87.5 -137.5h-170q-5 24 -26.5 44t-63.5 20q-62 0 -91.5 -45.5t-31.5 -124.5v-2z
M317 111q55 0 88 33t33 84q0 50 -33 83t-88 33t-88.5 -33t-33.5 -83q0 -51 33.5 -84t88.5 -33z" />
    <glyph glyph-name="seven" unicode="7" horiz-adv-x="545" 
d="M17 691h507v-127q-111 -90 -164 -240.5t-53 -323.5h-180q0 163 61.5 317.5t155.5 234.5v2h-327v137z" />
    <glyph glyph-name="eight" unicode="8" horiz-adv-x="609" 
d="M19 198q0 117 130 174v2q-100 53 -100 146q0 87 73 137t183 50t183 -50t73 -137q0 -92 -100 -146v-2q130 -58 130 -174q0 -102 -81 -158t-205 -56t-205 56t-81 158zM305 419q50 0 78 24.5t28 61.5q0 36 -28 60.5t-78 24.5t-78 -24.5t-28 -60.5q0 -37 28 -61.5t78 -24.5z
M305 111q53 0 84.5 29.5t31.5 73.5q0 42 -31.5 71.5t-84.5 29.5t-84.5 -29.5t-31.5 -71.5q0 -44 31.5 -73.5t84.5 -29.5z" />
    <glyph glyph-name="nine" unicode="9" horiz-adv-x="618" 
d="M424 283q-67 -63 -165 -63q-106 0 -172 66.5t-66 167.5q0 115 73.5 184t197.5 69q82 0 142.5 -29t94.5 -80t49.5 -111.5t15.5 -131.5q0 -182 -79.5 -276.5t-216.5 -94.5q-99 0 -169.5 53.5t-87.5 137.5h170q5 -24 26.5 -44t63.5 -20q62 0 91.5 45.5t31.5 124.5v2z
M302 580q-55 0 -88 -33t-33 -84q0 -50 33 -83t88 -33t88.5 33t33.5 83q0 51 -33.5 84t-88.5 33z" />
    <glyph glyph-name="colon" unicode=":" horiz-adv-x="240" 
d="M120 301q-37 0 -61 23.5t-24 61.5t24 61.5t61 23.5q36 0 60.5 -23.5t24.5 -61.5t-24.5 -61.5t-60.5 -23.5zM120 -9q-37 0 -61 23.5t-24 61.5t24 61.5t61 23.5q36 0 60.5 -23.5t24.5 -61.5t-24.5 -61.5t-60.5 -23.5z" />
    <glyph glyph-name="semicolon" unicode=";" horiz-adv-x="250" 
d="M125 301q-37 0 -61 23.5t-24 61.5t24 61.5t61 23.5q36 0 60.5 -23.5t24.5 -61.5t-24.5 -61.5t-60.5 -23.5zM130 -9q-43 0 -69 22.5t-26 62.5q0 39 25 62t64 23q45 0 68 -31.5t23 -88.5q0 -87 -45 -142t-125 -66v70q37 5 61 31t24 57z" />
    <glyph glyph-name="less" unicode="&#x3c;" horiz-adv-x="519" 
d="M455 62l-412 172v150l412 172v-137l-277 -109v-2l277 -109v-137z" />
    <glyph glyph-name="equal" unicode="=" horiz-adv-x="563" 
d="M51 484h468v-137h-468v137zM51 272h468v-137h-468v137z" />
    <glyph glyph-name="greater" unicode="&#x3e;" horiz-adv-x="502" 
d="M47 62v137l277 109v2l-277 109v137l412 -172v-150z" />
    <glyph glyph-name="question" unicode="?" horiz-adv-x="553" 
d="M184 493h-170q0 104 72 171t207 67q105 0 172 -54t67 -140q0 -58 -27 -97.5t-82 -70.5q-56 -31 -76 -57t-20 -78h-130q0 11 -0.5 34t0 31.5l1.5 25.5t4.5 26t10 21.5t16.5 23t24 21.5t38.5 26.5t37 24t23 25t10.5 36.5q0 27 -20.5 46t-58.5 19q-99 0 -99 -101zM263 -9
q-37 0 -61 23.5t-24 61.5t24 61.5t61 23.5q36 0 60.5 -23.5t24.5 -61.5t-24.5 -61.5t-60.5 -23.5z" />
    <glyph glyph-name="at" unicode="@" horiz-adv-x="909" 
d="M676 79q-52 0 -99 22t-67 59h-2q-33 -77 -118 -77q-68 0 -113 56t-45 156t51.5 161t126.5 61q44 0 68 -17.5t40 -49.5h2l7 60h137l-32 -251q-12 -90 54 -90q93 0 93 151q0 128 -82.5 216.5t-229.5 88.5q-139 0 -230.5 -93.5t-91.5 -228.5q0 -149 82.5 -235t229.5 -86
q98 0 179 32l32 -79q-80 -43 -211 -43q-196 0 -309 112t-113 299q0 173 122.5 292.5t309.5 119.5q99 0 178.5 -32t130 -86.5t77 -124.5t26.5 -149q0 -244 -203 -244zM425 193q82 0 82 122q0 92 -62 92q-35 0 -56.5 -32t-21.5 -90q0 -92 58 -92z" />
    <glyph glyph-name="A" unicode="A" horiz-adv-x="697" 
d="M470 149h-245l-46 -149h-180l259 715h180l258 -715h-180zM266 286h164l-81 264h-2z" />
    <glyph glyph-name="B" unicode="B" horiz-adv-x="671" 
d="M623 535q0 -114 -111 -152v-2q62 -11 100.5 -53t38.5 -117q0 -211 -245 -211h-357v715h347q227 0 227 -180zM229 426h124q43 0 66.5 15t23.5 56t-23.5 56t-66.5 15h-124v-142zM229 316v-169h129q59 0 86 18.5t27 66.5t-27 66t-86 18h-129z" />
    <glyph glyph-name="C" unicode="C" horiz-adv-x="697" 
d="M503 449q-11 64 -44 99.5t-100 35.5q-159 0 -159 -226q0 -227 159 -227q68 0 101 36t43 101h180q-12 -131 -92.5 -207.5t-223.5 -76.5q-165 0 -256 103.5t-91 270.5q0 166 91 269.5t256 103.5q142 0 222.5 -76.5t93.5 -205.5h-180z" />
    <glyph glyph-name="D" unicode="D" horiz-adv-x="705" 
d="M49 0v715h317q150 0 234.5 -93.5t84.5 -264.5q0 -172 -80 -264.5t-229 -92.5h-327zM229 568v-421h119q157 0 157 210q0 211 -157 211h-119z" />
    <glyph glyph-name="E" unicode="E" horiz-adv-x="628" 
d="M229 441h312v-147h-312v-147h368v-147h-548v715h542v-147h-362v-127z" />
    <glyph glyph-name="F" unicode="F" horiz-adv-x="602" 
d="M229 411h287v-147h-287v-264h-180v715h532v-147h-352v-157z" />
    <glyph glyph-name="G" unicode="G" horiz-adv-x="737" 
d="M509 478q-28 106 -145 106q-163 0 -163 -226q0 -227 170 -227q62 0 101.5 33.5t41.5 85.5h-136v130h322v-380h-129l-18 91h-2q-56 -107 -206 -107q-149 0 -236.5 104.5t-87.5 269.5q0 166 91 269.5t255 103.5q140 0 224 -72t98 -181h-180z" />
    <glyph glyph-name="H" unicode="H" horiz-adv-x="703" 
d="M49 715h180v-280h245v280h180v-715h-180v288h-245v-288h-180v715z" />
    <glyph glyph-name="I" unicode="I" horiz-adv-x="279" 
d="M50 715h180v-715h-180v715z" />
    <glyph glyph-name="J" unicode="J" horiz-adv-x="545" 
d="M503 238q0 -56 -11 -99t-37.5 -79.5t-76 -56t-120.5 -19.5t-120.5 19.5t-76 56t-37.5 79.5t-11 99v60h160v-60q0 -54 16.5 -80.5t58.5 -26.5t58.5 26.5t16.5 80.5v477h180v-477z" />
    <glyph glyph-name="K" unicode="K" horiz-adv-x="697" 
d="M49 715h180v-290l249 290h210l-272 -315l282 -400h-210l-187 271l-72 -82v-189h-180v715z" />
    <glyph glyph-name="L" unicode="L" horiz-adv-x="565" 
d="M49 715h180v-568h318v-147h-498v715z" />
    <glyph glyph-name="M" unicode="M" horiz-adv-x="834" 
d="M49 0v715h220l147 -456h2l147 456h220v-715h-170v445h-2l-133 -445h-126l-133 445h-2v-445h-170z" />
    <glyph glyph-name="N" unicode="N" horiz-adv-x="710" 
d="M49 0v715h180l250 -425h2v425h180v-715h-180l-250 425h-2v-425h-180z" />
    <glyph glyph-name="O" unicode="O" horiz-adv-x="748" 
d="M374 -16q-166 0 -260 104t-94 270t94 269.5t260 103.5q165 0 259.5 -104t94.5 -269q0 -166 -94.5 -270t-259.5 -104zM374 131q92 0 133 62t41 165q0 102 -41 164t-133 62t-133 -62t-41 -164q0 -103 41 -165t133 -62z" />
    <glyph glyph-name="P" unicode="P" horiz-adv-x="652" 
d="M49 0v715h347q114 0 178 -58.5t64 -169.5t-64 -169.5t-178 -58.5h-167v-259h-180zM229 568v-162h129q100 0 100 81t-100 81h-129z" />
    <glyph glyph-name="Q" unicode="Q" horiz-adv-x="748" 
d="M728 358q0 -146 -74 -246l73 -73l-97 -97l-81 81q-76 -39 -175 -39q-166 0 -260 104t-94 270t94 269.5t260 103.5q165 0 259.5 -104t94.5 -269zM374 131q34 0 59 9l-88 88l97 97l88 -88q18 53 18 121q0 102 -41 164t-133 62t-133 -62t-41 -164q0 -103 41 -165t133 -62z
" />
    <glyph glyph-name="R" unicode="R" horiz-adv-x="671" 
d="M49 0v715h337q120 0 187.5 -54t67.5 -154q0 -70 -38.5 -115t-106.5 -60v-2q50 -9 80.5 -44t40 -79t13 -87.5t7 -75t14.5 -34.5v-10h-187q-9 8 -11 37t-3.5 64t-8.5 69t-32 56.5t-68 22.5h-112v-249h-180zM229 568v-172h122q110 0 110 86t-110 86h-122z" />
    <glyph glyph-name="S" unicode="S" horiz-adv-x="647" 
d="M350 444q50 -14 81.5 -24t72.5 -30t64 -42.5t39.5 -58t16.5 -79.5q0 -104 -75 -165t-208 -61q-143 0 -234.5 67.5t-91.5 183.5h180q0 -54 40.5 -79t105.5 -25q49 0 76 17t27 45q0 12 -4 21.5t-14.5 18t-19 14t-28.5 12.5t-31.5 10.5t-39.5 11.5t-41 12q-109 32 -170 81.5
t-61 139.5q0 111 76 164t200 53q128 0 213.5 -63.5t89.5 -169.5h-180q-6 40 -38.5 63t-84.5 23q-43 0 -69.5 -14t-26.5 -43q0 -30 29 -46t106 -37z" />
    <glyph glyph-name="T" unicode="T" horiz-adv-x="629" 
d="M225 0v568h-208v147h595v-147h-207v-568h-180z" />
    <glyph glyph-name="U" unicode="U" horiz-adv-x="686" 
d="M642 258q0 -137 -70.5 -205.5t-228.5 -68.5t-228.5 68.5t-70.5 205.5v457h180v-457q0 -68 29 -97.5t90 -29.5t90 29.5t29 97.5v457h180v-457z" />
    <glyph glyph-name="V" unicode="V" horiz-adv-x="651" 
d="M-2 715h191l135 -501h2l136 501h190l-232 -715h-190z" />
    <glyph glyph-name="W" unicode="W" horiz-adv-x="940" 
d="M0 715h180l92 -485h2l111 485h170l111 -485h2l92 485h180l-182 -715h-180l-107 446h-2l-107 -446h-180z" />
    <glyph glyph-name="X" unicode="X" horiz-adv-x="691" 
d="M240 365l-217 350h190l131 -218h2l132 218h190l-217 -348l237 -367h-200l-142 232h-2l-141 -232h-200z" />
    <glyph glyph-name="Y" unicode="Y" horiz-adv-x="663" 
d="M1 715h190l139 -294h2l140 294h190l-241 -451v-264h-180v264z" />
    <glyph glyph-name="Z" unicode="Z" horiz-adv-x="610" 
d="M46 715h527v-147l-327 -419v-2h337v-147h-557v147l327 419v2h-307v147z" />
    <glyph glyph-name="bracketleft" unicode="[" horiz-adv-x="398" 
d="M58 770h307v-137h-137v-633h137v-137h-307v907z" />
    <glyph glyph-name="backslash" unicode="\" horiz-adv-x="437" 
d="M12 715h130l277 -715h-130z" />
    <glyph glyph-name="bracketright" unicode="]" horiz-adv-x="398" 
d="M341 770v-907h-307v137h137v633h-137v137h307z" />
    <glyph glyph-name="asciicircum" unicode="^" horiz-adv-x="466" 
d="M173 715h120l167 -275h-150l-77 135h-1l-76 -135h-150z" />
    <glyph glyph-name="underscore" unicode="_" horiz-adv-x="430" 
d="M-3 -55h436v-137h-436v137z" />
    <glyph glyph-name="grave" unicode="`" horiz-adv-x="619" 
d="M264 720l43 -140h-120l-103 140h180z" />
    <glyph glyph-name="a" unicode="a" horiz-adv-x="553" 
d="M341 370q0 48 -65 48q-84 0 -91 -71h-150q4 80 64 130.5t178 50.5q112 0 168 -50t56 -167v-235q0 -38 30 -38v-38q-43 -16 -93 -16q-92 0 -92 70h-2q-26 -30 -69 -50t-92 -20q-79 0 -123.5 40.5t-44.5 106.5q0 73 49.5 113.5t145.5 59.5q88 17 110 31q21 14 21 35z
M239 94q49 0 75.5 27t26.5 66v62q-29 -11 -82 -23q-84 -19 -84 -72q0 -60 64 -60z" />
    <glyph glyph-name="b" unicode="b" horiz-adv-x="588" 
d="M349 528q102 0 162.5 -73t60.5 -199t-60.5 -199t-162.5 -73q-50 0 -90 21t-58 46h-2v-51h-160v715h160v-254h2q18 25 58 46t90 21zM307 104q50 0 77.5 39t27.5 113t-27.5 113t-77.5 39t-77.5 -39t-27.5 -113t27.5 -113t77.5 -39z" />
    <glyph glyph-name="c" unicode="c" horiz-adv-x="540" 
d="M370 321q-11 87 -91 87q-49 0 -76 -40t-27 -112q0 -73 26.5 -112.5t76.5 -39.5q81 0 91 89h157q-6 -93 -72.5 -151t-174.5 -58q-120 0 -192 75.5t-72 196.5q0 120 71.5 196t188.5 76q109 0 175 -57.5t76 -149.5h-157z" />
    <glyph glyph-name="d" unicode="d" horiz-adv-x="588" 
d="M389 715h160v-715h-160v51h-2q-18 -25 -58 -46t-90 -21q-102 0 -162.5 73t-60.5 199t60.5 199t162.5 73q50 0 90 -21t58 -46h2v254zM281 104q50 0 77.5 39t27.5 113t-27.5 113t-77.5 39t-77.5 -39t-27.5 -113t27.5 -113t77.5 -39z" />
    <glyph glyph-name="e" unicode="e" horiz-adv-x="560" 
d="M286 104q71 0 91 51h159q-22 -80 -84 -125.5t-163 -45.5q-126 0 -199.5 75t-73.5 197q0 119 72 195.5t192 76.5q128 0 196 -85t68 -229h-368q0 -51 32 -80.5t78 -29.5zM280 418q-47 0 -75.5 -27.5t-28.5 -79.5h208q0 52 -28.5 79.5t-75.5 27.5z" />
    <glyph glyph-name="f" unicode="f" horiz-adv-x="349" 
d="M336 594q-31 0 -43.5 -1t-25.5 -6.5t-16.5 -17.5t-3.5 -35v-22h89v-120h-89v-392h-160v392h-76v120h76v35q0 91 33 134t117 43q51 0 99 -10v-120z" />
    <glyph glyph-name="g" unicode="g" horiz-adv-x="572" 
d="M373 512h160v-462q0 -121 -64.5 -174t-187.5 -53q-113 0 -176.5 48t-78.5 118h160q18 -51 91 -51q53 0 74.5 29t21.5 94v30h-2q-50 -67 -140 -67q-97 0 -156 70t-59 182t59 182t156 70q90 0 140 -67h2v51zM273 144q97 0 97 132t-97 132t-97 -132t97 -132z" />
    <glyph glyph-name="h" unicode="h" horiz-adv-x="570" 
d="M360 528q82 0 128.5 -47.5t46.5 -134.5v-346h-160v295q0 57 -19.5 80t-63.5 23q-41 0 -67 -25.5t-26 -76.5v-296h-160v715h160v-277h2q52 90 159 90z" />
    <glyph glyph-name="i" unicode="i" horiz-adv-x="238" 
d="M119 573q-35 0 -57.5 18.5t-22.5 52.5q0 33 22.5 52t57.5 19t57.5 -19t22.5 -52q0 -34 -22.5 -52.5t-57.5 -18.5zM39 512h160v-512h-160v512z" />
    <glyph glyph-name="j" unicode="j" horiz-adv-x="241" 
d="M122 573q-35 0 -57.5 18.5t-22.5 52.5q0 33 22.5 52t57.5 19t57.5 -19t22.5 -52q0 -34 -22.5 -52.5t-57.5 -18.5zM42 512h160v-512q0 -91 -33 -134t-117 -43q-46 0 -99 11v120q56 0 72.5 8.5t16.5 49.5v500z" />
    <glyph glyph-name="k" unicode="k" horiz-adv-x="560" 
d="M39 715h160v-376l150 173h191l-181 -192l202 -320h-190l-121 204l-51 -53v-151h-160v715z" />
    <glyph glyph-name="l" unicode="l" horiz-adv-x="240" 
d="M40 715h160v-715h-160v715z" />
    <glyph glyph-name="m" unicode="m" horiz-adv-x="868" 
d="M669 528q78 0 121 -47.5t43 -134.5v-346h-162v295q0 58 -15.5 80.5t-57.5 22.5q-83 0 -83 -102v-296h-160v295q0 58 -15.5 80.5t-57.5 22.5q-83 0 -83 -102v-296h-160v512h160v-74h2q22 39 64 64.5t96 25.5q49 0 83.5 -24.5t50.5 -65.5h2q38 45 76.5 67.5t95.5 22.5z" />
    <glyph glyph-name="n" unicode="n" horiz-adv-x="570" 
d="M369 528q76 0 121 -48t45 -134v-346h-160v295q0 56 -19.5 79.5t-60.5 23.5q-96 0 -96 -102v-296h-160v512h160v-74h2q52 90 168 90z" />
    <glyph glyph-name="o" unicode="o" horiz-adv-x="579" 
d="M290 -16q126 0 199.5 75.5t73.5 196.5t-73.5 196.5t-199.5 75.5t-200 -75.5t-74 -196.5t74 -196.5t200 -75.5zM290 104q-54 0 -84 39.5t-30 112.5t30 112.5t84 39.5q53 0 83 -39.5t30 -112.5t-30 -112.5t-83 -39.5z" />
    <glyph glyph-name="p" unicode="p" horiz-adv-x="592" 
d="M349 528q102 0 162.5 -73t60.5 -199t-60.5 -199t-162.5 -73q-50 0 -90 21t-58 46h-2v-228h-160v689h160v-51h2q18 25 58 46t90 21zM307 104q50 0 77.5 39t27.5 113t-27.5 113t-77.5 39t-77.5 -39t-27.5 -113t27.5 -113t77.5 -39z" />
    <glyph glyph-name="q" unicode="q" horiz-adv-x="592" 
d="M393 512h160v-689h-160v228h-2q-18 -25 -58 -46t-90 -21q-102 0 -162.5 73t-60.5 199t60.5 199t162.5 73q50 0 90 -21t58 -46h2v51zM285 104q50 0 77.5 39t27.5 113t-27.5 113t-77.5 39t-77.5 -39t-27.5 -113t27.5 -113t77.5 -39z" />
    <glyph glyph-name="r" unicode="r" horiz-adv-x="383" 
d="M326 521q26 0 44 -4v-140h-2q-66 12 -117.5 -25t-51.5 -114v-238h-160v512h160v-84h2q41 93 125 93z" />
    <glyph glyph-name="s" unicode="s" horiz-adv-x="504" 
d="M289 323q35 -8 60.5 -15.5t53.5 -21t46 -31t29.5 -44t11.5 -60.5q0 -81 -58.5 -124t-165.5 -43q-130 0 -192 51t-66 135h150q7 -76 102 -76q70 0 70 44q0 32 -43 47q-15 5 -86 21q-39 8 -66.5 18t-56.5 27.5t-44.5 46t-15.5 66.5q0 72 59.5 118t164.5 46q115 0 172 -49
t61 -124h-150q-8 63 -79 63q-68 0 -68 -41q0 -6 1 -10.5t4 -8.5t6 -7t9.5 -6t11.5 -4.5t15.5 -4t17.5 -4t21.5 -4.5t24.5 -5z" />
    <glyph glyph-name="t" unicode="t" horiz-adv-x="351" 
d="M331 392h-89v-212q0 -41 16.5 -49.5t72.5 -8.5v-120q-53 -11 -99 -11q-84 0 -117 43t-33 134v224h-71v120h71v143h160v-143h89v-120z" />
    <glyph glyph-name="u" unicode="u" horiz-adv-x="570" 
d="M371 512h160v-512h-160v74h-2q-52 -90 -168 -90q-76 0 -121 48t-45 134v346h160v-295q0 -56 19.5 -79.5t60.5 -23.5q96 0 96 102v296z" />
    <glyph glyph-name="v" unicode="v" horiz-adv-x="524" 
d="M-3 512h160l104 -334h2l104 334h160l-177 -512h-176z" />
    <glyph glyph-name="w" unicode="w" horiz-adv-x="783" 
d="M-2 512h160l77 -312h2l84 312h140l84 -312h2l77 312h160l-143 -512h-150l-99 324h-2l-99 -324h-150z" />
    <glyph glyph-name="x" unicode="x" horiz-adv-x="560" 
d="M27 512h170l82 -148h2l82 148h170l-156 -251l176 -261h-180l-92 158h-2l-92 -158h-180l176 261z" />
    <glyph glyph-name="y" unicode="y" horiz-adv-x="529" 
d="M532 512l-174 -522q-33 -97 -75.5 -132t-124.5 -35q-42 0 -89 10v120h2q72 -16 97 21q20 31 -4 100l-167 438h160l116 -336h2l97 336h160z" />
    <glyph glyph-name="z" unicode="z" horiz-adv-x="505" 
d="M24 115l249 275v2h-229v120h429v-115l-249 -275v-2h259v-120h-459v115z" />
    <glyph glyph-name="braceleft" unicode="{" horiz-adv-x="398" 
d="M25 388q41 -1 54.5 12.5t13.5 52.5v123q0 62 15 101t49 59t75 27t106 7h27v-137h-27q-75 0 -75 -93v-113q0 -42 -16.5 -67t-53.5 -40v-2q37 -15 53.5 -40t16.5 -68v-113q0 -97 75 -97h27v-137h-27q-129 0 -187 39.5t-58 158.5v123q0 39 -13.5 52.5t-54.5 13.5v138z" />
    <glyph glyph-name="bar" unicode="|" horiz-adv-x="225" 
d="M58 754h110v-892h-110v892z" />
    <glyph glyph-name="braceright" unicode="}" horiz-adv-x="399" 
d="M374 388v-138q-41 0 -54.5 -13.5t-13.5 -52.5v-123q0 -119 -58 -158.5t-187 -39.5h-27v137h27q75 0 75 97v113q0 43 16.5 68t53.5 40v2q-37 15 -53.5 40t-16.5 67v113q0 93 -75 93h-27v137h27q65 0 106 -7t75 -27t49 -59t15 -101v-123q0 -39 13.5 -52.5t54.5 -12.5z" />
    <glyph glyph-name="asciitilde" unicode="~" horiz-adv-x="443" 
d="M24 239q0 175 119 175q37 0 79.5 -22.5t62.5 -22.5q41 0 41 45h100q0 -175 -119 -175q-37 0 -79.5 22.5t-62.5 22.5q-41 0 -41 -45h-100z" />
    <glyph glyph-name="exclamdown" unicode="&#xa1;" horiz-adv-x="264" 
d="M132 594q36 0 60.5 -23.5t24.5 -61.5t-24.5 -61.5t-60.5 -23.5q-37 0 -61 23.5t-24 61.5t24 61.5t61 23.5zM47 -130v156l45 325h80l45 -325v-156h-170z" />
    <glyph glyph-name="cent" unicode="&#xa2;" horiz-adv-x="544" 
d="M308 107q55 16 62 86h157q-5 -86 -63.5 -143t-155.5 -65v-92h-60v93q-107 10 -169.5 83.5t-62.5 186.5q0 112 63 186.5t169 84.5v67h60v-67q95 -9 152.5 -65t66.5 -141h-157q-8 69 -62 83v-297zM176 256q0 -124 72 -147v294q-72 -23 -72 -147z" />
    <glyph glyph-name="sterling" unicode="&#xa3;" horiz-adv-x="586" 
d="M404 121q23 0 44.5 8.5t31.5 15.5t29 22l59 -121q-44 -34 -75.5 -48t-79.5 -14q-34 0 -61.5 10t-42.5 21.5t-35.5 21.5t-42.5 10q-53 0 -127 -47l-81 123q41 27 66 68t25 85q0 9 -1 13h-85v90h48q-38 66 -38 119q0 38 12.5 71t40 64t81 49.5t127.5 18.5q141 0 207.5 -68
t66.5 -189h-170q0 120 -101 120q-94 0 -94 -83q0 -40 36 -102h149v-90h-110q1 -6 1 -18q0 -45 -19 -73t-60 -57l1 -2q42 20 73 20t65 -19t60 -19z" />
    <glyph glyph-name="currency" unicode="&#xa4;" horiz-adv-x="512" 
d="M460 349q0 -53 -22 -97l60 -60l-85 -85l-59 59q-47 -21 -97 -21q-54 0 -98 22l-60 -60l-85 85l60 60q-21 47 -21 97t21 97l-60 60l85 85l60 -60q44 22 98 22q55 0 97 -21l59 59l85 -85l-59 -59q21 -44 21 -98zM257 235q43 0 63 31t20 83t-20 83t-63 31q-84 0 -84 -114
t84 -114z" />
    <glyph glyph-name="yen" unicode="&#xa5;" horiz-adv-x="646" 
d="M641 686l-212 -380h142v-60h-165v-58h165v-60h-165v-128h-170v128h-165v60h165v58h-165v60h142l-212 380h190l129 -271h2l129 271h190z" />
    <glyph glyph-name="brokenbar" unicode="&#xa6;" horiz-adv-x="225" 
d="M58 754h110v-370h-110v370zM58 245h110v-383h-110v383z" />
    <glyph glyph-name="section" unicode="&#xa7;" horiz-adv-x="625" 
d="M600 268q0 -105 -101 -149q52 -49 52 -122q0 -79 -59 -126.5t-165 -47.5q-118 0 -176 50.5t-62 130.5h160q4 -38 22 -54.5t60 -16.5q60 0 60 48q0 18 -8.5 32.5t-29 28t-36.5 21.5t-47 22q-18 8 -53.5 23.5t-52 23t-43 21.5t-39.5 26t-27.5 28.5t-20 36t-5.5 42.5
q0 105 101 149q-52 49 -52 122q0 79 59 126.5t165 47.5q118 0 176 -50.5t62 -130.5h-160q-4 38 -22 54.5t-60 16.5q-60 0 -60 -48q0 -18 8.5 -32.5t29 -28t36.5 -21.5t47 -22q18 -8 53.5 -23.5t52 -23t43 -21.5t39.5 -26t27.5 -28.5t20 -36t5.5 -42.5zM358 202l30 -15
q52 5 52 42q0 11 -3.5 20.5t-12.5 18t-18 15.5t-26.5 16t-30.5 15.5t-37 18t-41 19.5l-30 15q-52 -5 -52 -42q0 -11 3.5 -20.5t12.5 -18t18 -15.5t26.5 -16t30.5 -15.5t37 -18t41 -19.5z" />
    <glyph glyph-name="dieresis" unicode="&#xa8;" horiz-adv-x="490" 
d="M61 650q0 32 21 54t56 22t55.5 -22t20.5 -54t-20.5 -54t-55.5 -22q-36 0 -56.5 22t-20.5 54zM276 650q0 32 21 54t56 22t55.5 -22t20.5 -54t-20.5 -54t-55.5 -22q-36 0 -56.5 22t-20.5 54z" />
    <glyph glyph-name="copyright" unicode="&#xa9;" horiz-adv-x="817" 
d="M409 -16q-167 0 -268 105t-101 268t101 268.5t268 105.5t267.5 -105.5t100.5 -268.5t-100.5 -268t-267.5 -105zM409 34q143 0 225.5 91t82.5 232q0 142 -82.5 233t-225.5 91t-226 -91t-83 -233q0 -141 83 -232t226 -91zM481 411q-8 72 -71 72q-81 0 -81 -126
q0 -125 81 -125q63 0 71 73h129q-5 -77 -56 -124.5t-139 -47.5q-100 0 -159 62t-59 162t57 162.5t153 62.5q89 0 142 -47.5t61 -123.5h-129z" />
    <glyph glyph-name="guillemotleft" unicode="&#xab;" horiz-adv-x="405" 
d="M30 177v150l154 144v-150l-78 -68v-2l78 -68v-150zM221 177v150l154 144v-150l-78 -68v-2l78 -68v-150z" />
    <glyph glyph-name="logicalnot" unicode="&#xac;" horiz-adv-x="524" 
d="M309 293h-269v137h429v-296h-160v159z" />
    <glyph glyph-name="registered" unicode="&#xae;" horiz-adv-x="531" 
d="M266 247q-101 0 -170.5 69t-69.5 173t69.5 173t170.5 69t170 -69t69 -173t-69 -173t-170 -69zM266 297q83 0 131 52.5t48 140.5t-48 140t-131 52t-131.5 -52.5t-48.5 -139.5q0 -88 48.5 -140.5t131.5 -52.5zM161 360v260h123q43 0 67.5 -19.5t24.5 -55.5q0 -53 -52 -64
v-1q22 -4 34 -22.5t13 -38.5t3 -37t6 -18v-4h-68q-4 4 -4 27.5t-8 43.5t-33 20h-41v-91h-65zM226 567v-63h45q40 0 40 31q0 32 -40 32h-45z" />
    <glyph glyph-name="macron" unicode="&#xaf;" horiz-adv-x="500" 
d="M110 700h286v-100h-286v100z" />
    <glyph glyph-name="degree" unicode="&#xb0;" horiz-adv-x="375" 
d="M188 424q-70 0 -113 45t-43 109t43 108.5t113 44.5t113 -44.5t43 -108.5t-43 -109t-113 -45zM188 504q26 0 46 18.5t20 55.5t-19.5 55t-46.5 18t-46.5 -18t-19.5 -55t20 -55.5t46 -18.5z" />
    <glyph glyph-name="plusminus" unicode="&#xb1;" horiz-adv-x="566" 
d="M40 305v137h174v137h138v-137h174v-137h-174v-137h-138v137h-174zM40 120h486v-120h-486v120z" />
    <glyph glyph-name="acute" unicode="&#xb4;" horiz-adv-x="478" 
d="M214 720h180l-103 -140h-120z" />
    <glyph glyph-name="paragraph" unicode="&#xb6;" horiz-adv-x="603" 
d="M278 335h-42q-101 0 -155 48.5t-54 138.5q0 91 54.5 142t154.5 51h313v-715h-100v625h-71v-625h-100v335z" />
    <glyph glyph-name="periodcentered" unicode="&#xb7;" horiz-adv-x="234" 
d="M117 225q-37 0 -61 23.5t-24 61.5t24 61.5t61 23.5q36 0 60.5 -23.5t24.5 -61.5t-24.5 -61.5t-60.5 -23.5z" />
    <glyph glyph-name="cedilla" unicode="&#xb8;" horiz-adv-x="506" 
d="M284 -10l-38 -42v-2q46 5 79 -12.5t33 -54.5q0 -35 -38 -56t-93 -21q-64 0 -112 29l30 35q32 -15 69 -15q16 0 30 7.5t14 21.5q0 27 -38 27q-16 0 -35 -7l-17 24l57 66h59z" />
    <glyph glyph-name="guillemotright" unicode="&#xbb;" horiz-adv-x="405" 
d="M184 177l-154 -144v150l78 68v2l-78 68v150l154 -144v-150zM375 177l-154 -144v150l78 68v2l-78 68v150l154 -144v-150z" />
    <glyph glyph-name="questiondown" unicode="&#xbf;" horiz-adv-x="547" 
d="M286 596q37 0 61 -23.5t24 -61.5t-24 -61.5t-61 -23.5q-36 0 -60.5 23.5t-24.5 61.5t24.5 61.5t60.5 23.5zM365 94h170q0 -104 -72 -171t-207 -67q-105 0 -172 54t-67 140q0 58 27 97.5t82 70.5q56 31 76 57t20 78h130q0 -11 0.5 -34t0 -31.5l-1.5 -25.5t-4.5 -26
t-10 -21.5t-16.5 -23t-24 -21.5t-38.5 -26.5t-37 -24t-23 -25t-10.5 -36.5q0 -27 20.5 -46t58.5 -19q99 0 99 101z" />
    <glyph glyph-name="Agrave" unicode="&#xc0;" horiz-adv-x="697" 
d="M366 923l43 -140h-120l-103 140h180zM470 149h-245l-46 -149h-180l259 715h180l258 -715h-180zM266 286h164l-81 264h-2z" />
    <glyph glyph-name="Aacute" unicode="&#xc1;" horiz-adv-x="697" 
d="M329 923h180l-103 -140h-120zM470 149h-245l-46 -149h-180l259 715h180l258 -715h-180zM266 286h164l-81 264h-2z" />
    <glyph glyph-name="Acircumflex" unicode="&#xc2;" horiz-adv-x="697" 
d="M163 783l107 140h156l107 -140h-139l-45 69h-2l-45 -69h-139zM470 149h-245l-46 -149h-180l259 715h180l258 -715h-180zM266 286h164l-81 264h-2z" />
    <glyph glyph-name="Atilde" unicode="&#xc3;" horiz-adv-x="697" 
d="M182 797q0 135 88 135q24 0 67 -19t61 -19q33 0 33 38h83q0 -72 -22 -103.5t-66 -31.5q-24 0 -67 18.5t-61 18.5q-33 0 -33 -37h-83zM470 149h-245l-46 -149h-180l259 715h180l258 -715h-180zM266 286h164l-81 264h-2z" />
    <glyph glyph-name="Adieresis" unicode="&#xc4;" horiz-adv-x="697" 
d="M164 853q0 32 21 54t56 22t55.5 -22t20.5 -54t-20.5 -54t-55.5 -22q-36 0 -56.5 22t-20.5 54zM379 853q0 32 21 54t56 22t55.5 -22t20.5 -54t-20.5 -54t-55.5 -22q-36 0 -56.5 22t-20.5 54zM470 149h-245l-46 -149h-180l259 715h180l258 -715h-180zM266 286h164l-81 264
h-2z" />
    <glyph glyph-name="Aring" unicode="&#xc5;" horiz-adv-x="697" 
d="M348 772q-43 0 -72.5 27.5t-29.5 72.5t29.5 72.5t72.5 27.5t72.5 -27.5t29.5 -72.5t-29.5 -72.5t-72.5 -27.5zM348 827q19 0 30.5 12t11.5 33t-11.5 33t-30.5 12q-18 0 -29.5 -12t-11.5 -33t11.5 -33t29.5 -12zM470 149h-245l-46 -149h-180l259 715h180l258 -715h-180z
M266 286h164l-81 264h-2z" />
    <glyph glyph-name="AE" unicode="&#xc6;" horiz-adv-x="1008" 
d="M611 147h368v-147h-548v147h-206l-46 -149h-180l270 717h704v-147h-362v-127h312v-147h-312v-147zM266 284h165v284h-73z" />
    <glyph glyph-name="Ccedilla" unicode="&#xc7;" horiz-adv-x="697" 
d="M359 131q68 0 101 36t43 101h180q-12 -123 -84 -198.5t-200 -84.5l-34 -37v-2q46 5 79 -12.5t33 -54.5q0 -35 -38 -56t-93 -21q-64 0 -112 29l30 35q32 -15 69 -15q16 0 30 7.5t14 21.5q0 27 -38 27q-16 0 -35 -7l-17 24l53 61q-153 9 -236.5 111t-83.5 262
q0 166 91 269.5t256 103.5q142 0 222.5 -76.5t93.5 -205.5h-180q-11 64 -44 99.5t-100 35.5q-159 0 -159 -226q0 -227 159 -227z" />
    <glyph glyph-name="Egrave" unicode="&#xc8;" horiz-adv-x="628" 
d="M341 923l43 -140h-120l-103 140h180zM229 441h312v-147h-312v-147h368v-147h-548v715h542v-147h-362v-127z" />
    <glyph glyph-name="Eacute" unicode="&#xc9;" horiz-adv-x="628" 
d="M304 923h180l-103 -140h-120zM229 441h312v-147h-312v-147h368v-147h-548v715h542v-147h-362v-127z" />
    <glyph glyph-name="Ecircumflex" unicode="&#xca;" horiz-adv-x="628" 
d="M138 783l107 140h156l107 -140h-139l-45 69h-2l-45 -69h-139zM229 441h312v-147h-312v-147h368v-147h-548v715h542v-147h-362v-127z" />
    <glyph glyph-name="Edieresis" unicode="&#xcb;" horiz-adv-x="628" 
d="M139 853q0 32 21 54t56 22t55.5 -22t20.5 -54t-20.5 -54t-55.5 -22q-36 0 -56.5 22t-20.5 54zM354 853q0 32 21 54t56 22t55.5 -22t20.5 -54t-20.5 -54t-55.5 -22q-36 0 -56.5 22t-20.5 54zM229 441h312v-147h-312v-147h368v-147h-548v715h542v-147h-362v-127z" />
    <glyph glyph-name="Igrave" unicode="&#xcc;" horiz-adv-x="279" 
d="M158 923l43 -140h-120l-103 140h180zM50 715h180v-715h-180v715z" />
    <glyph glyph-name="Iacute" unicode="&#xcd;" horiz-adv-x="279" 
d="M121 923h180l-103 -140h-120zM50 715h180v-715h-180v715z" />
    <glyph glyph-name="Icircumflex" unicode="&#xce;" horiz-adv-x="279" 
d="M-45 783l107 140h156l107 -140h-139l-45 69h-2l-45 -69h-139zM50 715h180v-715h-180v715z" />
    <glyph glyph-name="Idieresis" unicode="&#xcf;" horiz-adv-x="279" 
d="M-44 853q0 32 21 54t56 22t55.5 -22t20.5 -54t-20.5 -54t-55.5 -22q-36 0 -56.5 22t-20.5 54zM171 853q0 32 21 54t56 22t55.5 -22t20.5 -54t-20.5 -54t-55.5 -22q-36 0 -56.5 22t-20.5 54zM50 715h180v-715h-180v715z" />
    <glyph glyph-name="Eth" unicode="&#xd0;" horiz-adv-x="714" 
d="M375 715q150 0 234.5 -93.5t84.5 -264.5q0 -172 -80 -264.5t-229 -92.5h-327v325h-55v90h55v300h317zM357 147q157 0 157 210q0 211 -157 211h-119v-153h143v-90h-143v-178h119z" />
    <glyph glyph-name="Ntilde" unicode="&#xd1;" horiz-adv-x="710" 
d="M189 797q0 135 88 135q24 0 67 -19t61 -19q33 0 33 38h83q0 -72 -22 -103.5t-66 -31.5q-24 0 -67 18.5t-61 18.5q-33 0 -33 -37h-83zM49 0v715h180l250 -425h2v425h180v-715h-180l-250 425h-2v-425h-180z" />
    <glyph glyph-name="Ograve" unicode="&#xd2;" horiz-adv-x="748" 
d="M392 923l43 -140h-120l-103 140h180zM374 -16q-166 0 -260 104t-94 270t94 269.5t260 103.5q165 0 259.5 -104t94.5 -269q0 -166 -94.5 -270t-259.5 -104zM374 131q92 0 133 62t41 165q0 102 -41 164t-133 62t-133 -62t-41 -164q0 -103 41 -165t133 -62z" />
    <glyph glyph-name="Oacute" unicode="&#xd3;" horiz-adv-x="748" 
d="M355 923h180l-103 -140h-120zM374 -16q-166 0 -260 104t-94 270t94 269.5t260 103.5q165 0 259.5 -104t94.5 -269q0 -166 -94.5 -270t-259.5 -104zM374 131q92 0 133 62t41 165q0 102 -41 164t-133 62t-133 -62t-41 -164q0 -103 41 -165t133 -62z" />
    <glyph glyph-name="Ocircumflex" unicode="&#xd4;" horiz-adv-x="748" 
d="M189 783l107 140h156l107 -140h-139l-45 69h-2l-45 -69h-139zM374 -16q-166 0 -260 104t-94 270t94 269.5t260 103.5q165 0 259.5 -104t94.5 -269q0 -166 -94.5 -270t-259.5 -104zM374 131q92 0 133 62t41 165q0 102 -41 164t-133 62t-133 -62t-41 -164q0 -103 41 -165
t133 -62z" />
    <glyph glyph-name="Otilde" unicode="&#xd5;" horiz-adv-x="748" 
d="M208 797q0 135 88 135q24 0 67 -19t61 -19q33 0 33 38h83q0 -72 -22 -103.5t-66 -31.5q-24 0 -67 18.5t-61 18.5q-33 0 -33 -37h-83zM374 -16q-166 0 -260 104t-94 270t94 269.5t260 103.5q165 0 259.5 -104t94.5 -269q0 -166 -94.5 -270t-259.5 -104zM374 131
q92 0 133 62t41 165q0 102 -41 164t-133 62t-133 -62t-41 -164q0 -103 41 -165t133 -62z" />
    <glyph glyph-name="Odieresis" unicode="&#xd6;" horiz-adv-x="748" 
d="M190 853q0 32 21 54t56 22t55.5 -22t20.5 -54t-20.5 -54t-55.5 -22q-36 0 -56.5 22t-20.5 54zM405 853q0 32 21 54t56 22t55.5 -22t20.5 -54t-20.5 -54t-55.5 -22q-36 0 -56.5 22t-20.5 54zM374 -16q-166 0 -260 104t-94 270t94 269.5t260 103.5q165 0 259.5 -104
t94.5 -269q0 -166 -94.5 -270t-259.5 -104zM374 131q92 0 133 62t41 165q0 102 -41 164t-133 62t-133 -62t-41 -164q0 -103 41 -165t133 -62z" />
    <glyph glyph-name="multiply" unicode="&#xd7;" horiz-adv-x="566" 
d="M521 472l-144 -143l144 -144l-97 -97l-144 144l-144 -144l-97 97l144 144l-144 143l97 97l144 -144l144 144z" />
    <glyph glyph-name="Oslash" unicode="&#xd8;" horiz-adv-x="752" 
d="M732 673l-74 -74q72 -98 72 -241q0 -166 -94.5 -270t-259.5 -104q-151 0 -244 87l-70 -70l-42 43l72 73q-70 96 -70 241q0 166 94 269.5t260 103.5q149 0 242 -87l71 71zM202 358q0 -66 16 -115l285 286q-44 55 -127 55q-92 0 -133 -62t-41 -164zM550 358q0 68 -17 116
l-286 -287q45 -56 129 -56q92 0 133 62t41 165z" />
    <glyph glyph-name="Ugrave" unicode="&#xd9;" horiz-adv-x="686" 
d="M361 923l43 -140h-120l-103 140h180zM642 258q0 -137 -70.5 -205.5t-228.5 -68.5t-228.5 68.5t-70.5 205.5v457h180v-457q0 -68 29 -97.5t90 -29.5t90 29.5t29 97.5v457h180v-457z" />
    <glyph glyph-name="Uacute" unicode="&#xda;" horiz-adv-x="686" 
d="M324 923h180l-103 -140h-120zM642 258q0 -137 -70.5 -205.5t-228.5 -68.5t-228.5 68.5t-70.5 205.5v457h180v-457q0 -68 29 -97.5t90 -29.5t90 29.5t29 97.5v457h180v-457z" />
    <glyph glyph-name="Ucircumflex" unicode="&#xdb;" horiz-adv-x="686" 
d="M158 783l107 140h156l107 -140h-139l-45 69h-2l-45 -69h-139zM642 258q0 -137 -70.5 -205.5t-228.5 -68.5t-228.5 68.5t-70.5 205.5v457h180v-457q0 -68 29 -97.5t90 -29.5t90 29.5t29 97.5v457h180v-457z" />
    <glyph glyph-name="Udieresis" unicode="&#xdc;" horiz-adv-x="686" 
d="M159 853q0 32 21 54t56 22t55.5 -22t20.5 -54t-20.5 -54t-55.5 -22q-36 0 -56.5 22t-20.5 54zM374 853q0 32 21 54t56 22t55.5 -22t20.5 -54t-20.5 -54t-55.5 -22q-36 0 -56.5 22t-20.5 54zM642 258q0 -137 -70.5 -205.5t-228.5 -68.5t-228.5 68.5t-70.5 205.5v457h180
v-457q0 -68 29 -97.5t90 -29.5t90 29.5t29 97.5v457h180v-457z" />
    <glyph glyph-name="Yacute" unicode="&#xdd;" horiz-adv-x="663" 
d="M313 923h180l-103 -140h-120zM1 715h190l139 -294h2l140 294h190l-241 -451v-264h-180v264z" />
    <glyph glyph-name="Thorn" unicode="&#xde;" horiz-adv-x="650" 
d="M49 0v715h180v-100h167q114 0 178 -58.5t64 -169.5t-64 -169.5t-178 -58.5h-167v-159h-180zM229 468v-162h129q100 0 100 81t-100 81h-129z" />
    <glyph glyph-name="germandbls" unicode="&#xdf;" horiz-adv-x="576" 
d="M199 509v-509h-160v469q0 119 61.5 190.5t182.5 71.5q102 0 169.5 -57.5t67.5 -136.5q0 -104 -90 -141v-2q61 -19 95.5 -76t34.5 -124q0 -98 -62 -154t-151 -56q-53 0 -98 16v120q151 -28 151 104q0 54 -31 86.5t-95 32.5h-25v100h21q41 0 65.5 23.5t24.5 62.5
q0 38 -20.5 60t-56.5 22q-84 0 -84 -102z" />
    <glyph glyph-name="agrave" unicode="&#xe0;" horiz-adv-x="553" 
d="M295 720l43 -140h-120l-103 140h180zM341 370q0 48 -65 48q-84 0 -91 -71h-150q4 80 64 130.5t178 50.5q112 0 168 -50t56 -167v-235q0 -38 30 -38v-38q-43 -16 -93 -16q-92 0 -92 70h-2q-26 -30 -69 -50t-92 -20q-79 0 -123.5 40.5t-44.5 106.5q0 73 49.5 113.5
t145.5 59.5q88 17 110 31q21 14 21 35zM239 94q49 0 75.5 27t26.5 66v62q-29 -11 -82 -23q-84 -19 -84 -72q0 -60 64 -60z" />
    <glyph glyph-name="aacute" unicode="&#xe1;" horiz-adv-x="553" 
d="M258 720h180l-103 -140h-120zM341 370q0 48 -65 48q-84 0 -91 -71h-150q4 80 64 130.5t178 50.5q112 0 168 -50t56 -167v-235q0 -38 30 -38v-38q-43 -16 -93 -16q-92 0 -92 70h-2q-26 -30 -69 -50t-92 -20q-79 0 -123.5 40.5t-44.5 106.5q0 73 49.5 113.5t145.5 59.5
q88 17 110 31q21 14 21 35zM239 94q49 0 75.5 27t26.5 66v62q-29 -11 -82 -23q-84 -19 -84 -72q0 -60 64 -60z" />
    <glyph glyph-name="acircumflex" unicode="&#xe2;" horiz-adv-x="553" 
d="M92 580l107 140h156l107 -140h-139l-45 69h-2l-45 -69h-139zM341 370q0 48 -65 48q-84 0 -91 -71h-150q4 80 64 130.5t178 50.5q112 0 168 -50t56 -167v-235q0 -38 30 -38v-38q-43 -16 -93 -16q-92 0 -92 70h-2q-26 -30 -69 -50t-92 -20q-79 0 -123.5 40.5t-44.5 106.5
q0 73 49.5 113.5t145.5 59.5q88 17 110 31q21 14 21 35zM239 94q49 0 75.5 27t26.5 66v62q-29 -11 -82 -23q-84 -19 -84 -72q0 -60 64 -60z" />
    <glyph glyph-name="atilde" unicode="&#xe3;" horiz-adv-x="553" 
d="M111 594q0 135 88 135q24 0 67 -19t61 -19q33 0 33 38h83q0 -72 -22 -103.5t-66 -31.5q-24 0 -67 18.5t-61 18.5q-33 0 -33 -37h-83zM341 370q0 48 -65 48q-84 0 -91 -71h-150q4 80 64 130.5t178 50.5q112 0 168 -50t56 -167v-235q0 -38 30 -38v-38q-43 -16 -93 -16
q-92 0 -92 70h-2q-26 -30 -69 -50t-92 -20q-79 0 -123.5 40.5t-44.5 106.5q0 73 49.5 113.5t145.5 59.5q88 17 110 31q21 14 21 35zM239 94q49 0 75.5 27t26.5 66v62q-29 -11 -82 -23q-84 -19 -84 -72q0 -60 64 -60z" />
    <glyph glyph-name="adieresis" unicode="&#xe4;" horiz-adv-x="553" 
d="M93 650q0 32 21 54t56 22t55.5 -22t20.5 -54t-20.5 -54t-55.5 -22q-36 0 -56.5 22t-20.5 54zM308 650q0 32 21 54t56 22t55.5 -22t20.5 -54t-20.5 -54t-55.5 -22q-36 0 -56.5 22t-20.5 54zM341 370q0 48 -65 48q-84 0 -91 -71h-150q4 80 64 130.5t178 50.5q112 0 168 -50
t56 -167v-235q0 -38 30 -38v-38q-43 -16 -93 -16q-92 0 -92 70h-2q-26 -30 -69 -50t-92 -20q-79 0 -123.5 40.5t-44.5 106.5q0 73 49.5 113.5t145.5 59.5q88 17 110 31q21 14 21 35zM239 94q49 0 75.5 27t26.5 66v62q-29 -11 -82 -23q-84 -19 -84 -72q0 -60 64 -60z" />
    <glyph glyph-name="aring" unicode="&#xe5;" horiz-adv-x="553" 
d="M277 569q-43 0 -72.5 27.5t-29.5 72.5t29.5 72.5t72.5 27.5t72.5 -27.5t29.5 -72.5t-29.5 -72.5t-72.5 -27.5zM277 624q19 0 30.5 12t11.5 33t-11.5 33t-30.5 12q-18 0 -29.5 -12t-11.5 -33t11.5 -33t29.5 -12zM341 370q0 48 -65 48q-84 0 -91 -71h-150q4 80 64 130.5
t178 50.5q112 0 168 -50t56 -167v-235q0 -38 30 -38v-38q-43 -16 -93 -16q-92 0 -92 70h-2q-26 -30 -69 -50t-92 -20q-79 0 -123.5 40.5t-44.5 106.5q0 73 49.5 113.5t145.5 59.5q88 17 110 31q21 14 21 35zM239 94q49 0 75.5 27t26.5 66v62q-29 -11 -82 -23
q-84 -19 -84 -72q0 -60 64 -60z" />
    <glyph glyph-name="ae" unicode="&#xe6;" horiz-adv-x="886" 
d="M611 104q71 0 91 51h159q-22 -80 -84 -125.5t-163 -45.5q-120 0 -195 70q-79 -70 -216 -70q-93 0 -140.5 40t-47.5 107q0 73 49.5 113.5t145.5 59.5q88 17 110 31q21 14 21 35q0 48 -65 48q-84 0 -91 -71h-150q4 80 64 130.5t178 50.5q114 0 167 -49q68 49 161 49
q128 0 196 -85t68 -229h-368q0 -51 32 -80.5t78 -29.5zM605 418q-47 0 -75.5 -27.5t-28.5 -79.5h208q0 52 -28.5 79.5t-75.5 27.5zM341 187v62q-29 -11 -82 -23q-84 -19 -84 -72q0 -60 64 -60q49 0 75.5 27t26.5 66z" />
    <glyph glyph-name="ccedilla" unicode="&#xe7;" horiz-adv-x="540" 
d="M279 104q81 0 91 89h157q-5 -86 -64 -143.5t-155 -64.5l-34 -37v-2q46 5 79 -12.5t33 -54.5q0 -35 -38 -56t-93 -21q-64 0 -112 29l30 35q32 -15 69 -15q16 0 30 7.5t14 21.5q0 27 -38 27q-16 0 -35 -7l-17 24l53 61q-107 10 -170 84t-63 187q0 120 71.5 196t188.5 76
q109 0 175 -57.5t76 -149.5h-157q-11 87 -91 87q-49 0 -76 -40t-27 -112q0 -73 26.5 -112.5t76.5 -39.5z" />
    <glyph glyph-name="egrave" unicode="&#xe8;" horiz-adv-x="560" 
d="M341 580h-120l-103 140h180zM286 104q71 0 91 51h159q-22 -80 -84 -125.5t-163 -45.5q-126 0 -199.5 75t-73.5 197q0 119 72 195.5t192 76.5q128 0 196 -85t68 -229h-368q0 -51 32 -80.5t78 -29.5zM280 418q-47 0 -75.5 -27.5t-28.5 -79.5h208q0 52 -28.5 79.5
t-75.5 27.5z" />
    <glyph glyph-name="eacute" unicode="&#xe9;" horiz-adv-x="560" 
d="M441 720l-103 -140h-120l43 140h180zM286 104q71 0 91 51h159q-22 -80 -84 -125.5t-163 -45.5q-126 0 -199.5 75t-73.5 197q0 119 72 195.5t192 76.5q128 0 196 -85t68 -229h-368q0 -51 32 -80.5t78 -29.5zM280 418q-47 0 -75.5 -27.5t-28.5 -79.5h208q0 52 -28.5 79.5
t-75.5 27.5z" />
    <glyph glyph-name="ecircumflex" unicode="&#xea;" horiz-adv-x="560" 
d="M279 649l-45 -69h-139l107 140h156l107 -140h-139l-45 69h-2zM286 104q71 0 91 51h159q-22 -80 -84 -125.5t-163 -45.5q-126 0 -199.5 75t-73.5 197q0 119 72 195.5t192 76.5q128 0 196 -85t68 -229h-368q0 -51 32 -80.5t78 -29.5zM280 418q-47 0 -75.5 -27.5
t-28.5 -79.5h208q0 52 -28.5 79.5t-75.5 27.5z" />
    <glyph glyph-name="edieresis" unicode="&#xeb;" horiz-adv-x="560" 
d="M173 574q-36 0 -56.5 22t-20.5 54t21 54t56 22t55.5 -22t20.5 -54t-20.5 -54t-55.5 -22zM388 574q-36 0 -56.5 22t-20.5 54t21 54t56 22t55.5 -22t20.5 -54t-20.5 -54t-55.5 -22zM286 104q71 0 91 51h159q-22 -80 -84 -125.5t-163 -45.5q-126 0 -199.5 75t-73.5 197
q0 119 72 195.5t192 76.5q128 0 196 -85t68 -229h-368q0 -51 32 -80.5t78 -29.5zM280 418q-47 0 -75.5 -27.5t-28.5 -79.5h208q0 52 -28.5 79.5t-75.5 27.5z" />
    <glyph glyph-name="igrave" unicode="&#xec;" horiz-adv-x="220" 
d="M128 720l43 -140h-120l-103 140h180zM30 512h160v-512h-160v512z" />
    <glyph glyph-name="iacute" unicode="&#xed;" horiz-adv-x="220" 
d="M91 720h180l-103 -140h-120zM30 512h160v-512h-160v512z" />
    <glyph glyph-name="icircumflex" unicode="&#xee;" horiz-adv-x="220" 
d="M-75 580l107 140h156l107 -140h-139l-45 69h-2l-45 -69h-139zM30 512h160v-512h-160v512z" />
    <glyph glyph-name="idieresis" unicode="&#xef;" horiz-adv-x="220" 
d="M-74 650q0 32 21 54t56 22t55.5 -22t20.5 -54t-20.5 -54t-55.5 -22q-36 0 -56.5 22t-20.5 54zM141 650q0 32 21 54t56 22t55.5 -22t20.5 -54t-20.5 -54t-55.5 -22q-36 0 -56.5 22t-20.5 54zM30 512h160v-512h-160v512z" />
    <glyph glyph-name="eth" unicode="&#xf0;" horiz-adv-x="579" 
d="M442 630q118 -131 118 -314q0 -53 -9 -100t-30 -90t-52.5 -74t-79 -49.5t-106.5 -18.5q-126 0 -196.5 74t-70.5 199q0 124 66.5 197.5t162.5 73.5q79 0 125 -43v2q-18 56 -66 107l-129 -35l-16 58l92 25q-44 35 -113 73h200q25 -13 53 -36l105 28l16 -58zM283 112
q50 0 78.5 37t28.5 108q0 70 -28.5 107t-78.5 37t-78.5 -37t-28.5 -107q0 -71 28.5 -108t78.5 -37z" />
    <glyph glyph-name="ntilde" unicode="&#xf1;" horiz-adv-x="570" 
d="M267 631q-33 0 -33 -37h-83q0 135 88 135q24 0 67 -19t61 -19q33 0 33 38h83q0 -72 -22 -103.5t-66 -31.5q-24 0 -67 18.5t-61 18.5zM369 528q76 0 121 -48t45 -134v-346h-160v295q0 56 -19.5 79.5t-60.5 23.5q-96 0 -96 -102v-296h-160v512h160v-74h2q52 90 168 90z" />
    <glyph glyph-name="ograve" unicode="&#xf2;" horiz-adv-x="579" 
d="M308 720l43 -140h-120l-103 140h180zM290 -16q126 0 199.5 75.5t73.5 196.5t-73.5 196.5t-199.5 75.5t-200 -75.5t-74 -196.5t74 -196.5t200 -75.5zM290 104q-54 0 -84 39.5t-30 112.5t30 112.5t84 39.5q53 0 83 -39.5t30 -112.5t-30 -112.5t-83 -39.5z" />
    <glyph glyph-name="oacute" unicode="&#xf3;" horiz-adv-x="579" 
d="M271 720h180l-103 -140h-120zM290 -16q126 0 199.5 75.5t73.5 196.5t-73.5 196.5t-199.5 75.5t-200 -75.5t-74 -196.5t74 -196.5t200 -75.5zM290 104q-54 0 -84 39.5t-30 112.5t30 112.5t84 39.5q53 0 83 -39.5t30 -112.5t-30 -112.5t-83 -39.5z" />
    <glyph glyph-name="ocircumflex" unicode="&#xf4;" horiz-adv-x="579" 
d="M105 580l107 140h156l107 -140h-139l-45 69h-2l-45 -69h-139zM290 -16q126 0 199.5 75.5t73.5 196.5t-73.5 196.5t-199.5 75.5t-200 -75.5t-74 -196.5t74 -196.5t200 -75.5zM290 104q-54 0 -84 39.5t-30 112.5t30 112.5t84 39.5q53 0 83 -39.5t30 -112.5t-30 -112.5
t-83 -39.5z" />
    <glyph glyph-name="otilde" unicode="&#xf5;" horiz-adv-x="579" 
d="M124 594q0 135 88 135q24 0 67 -19t61 -19q33 0 33 38h83q0 -72 -22 -103.5t-66 -31.5q-24 0 -67 18.5t-61 18.5q-33 0 -33 -37h-83zM290 -16q126 0 199.5 75.5t73.5 196.5t-73.5 196.5t-199.5 75.5t-200 -75.5t-74 -196.5t74 -196.5t200 -75.5zM290 104q-54 0 -84 39.5
t-30 112.5t30 112.5t84 39.5q53 0 83 -39.5t30 -112.5t-30 -112.5t-83 -39.5z" />
    <glyph glyph-name="odieresis" unicode="&#xf6;" horiz-adv-x="579" 
d="M106 650q0 32 21 54t56 22t55.5 -22t20.5 -54t-20.5 -54t-55.5 -22q-36 0 -56.5 22t-20.5 54zM321 650q0 32 21 54t56 22t55.5 -22t20.5 -54t-20.5 -54t-55.5 -22q-36 0 -56.5 22t-20.5 54zM290 -16q126 0 199.5 75.5t73.5 196.5t-73.5 196.5t-199.5 75.5t-200 -75.5
t-74 -196.5t74 -196.5t200 -75.5zM290 104q-54 0 -84 39.5t-30 112.5t30 112.5t84 39.5q53 0 83 -39.5t30 -112.5t-30 -112.5t-83 -39.5z" />
    <glyph glyph-name="divide" unicode="&#xf7;" horiz-adv-x="566" 
d="M283 451q-37 0 -58.5 19t-21.5 54q0 34 22 53.5t58 19.5t58 -19.5t22 -53.5q0 -35 -22 -54t-58 -19zM40 258v137h486v-137h-486zM283 56q-37 0 -58.5 19t-21.5 54q0 34 22 53.5t58 19.5t58 -19.5t22 -53.5q0 -35 -22 -54t-58 -19z" />
    <glyph glyph-name="oslash" unicode="&#xf8;" horiz-adv-x="579" 
d="M508 431q55 -70 55 -175q0 -121 -73.5 -196.5t-199.5 -75.5q-105 0 -175 53l-50 -50l-42 43l49 49q-56 73 -56 177q0 121 74 196.5t200 75.5q105 0 176 -54l50 50l43 -42zM176 256q0 -35 8 -65l184 184q-30 33 -78 33q-54 0 -84 -39.5t-30 -112.5zM290 104q53 0 83 39.5
t30 112.5q0 36 -7 63l-183 -184q29 -31 77 -31z" />
    <glyph glyph-name="ugrave" unicode="&#xf9;" horiz-adv-x="570" 
d="M344 580h-120l-103 140h180zM371 512h160v-512h-160v74h-2q-52 -90 -168 -90q-76 0 -121 48t-45 134v346h160v-295q0 -56 19.5 -79.5t60.5 -23.5q96 0 96 102v296z" />
    <glyph glyph-name="uacute" unicode="&#xfa;" horiz-adv-x="570" 
d="M444 720l-103 -140h-120l43 140h180zM371 512h160v-512h-160v74h-2q-52 -90 -168 -90q-76 0 -121 48t-45 134v346h160v-295q0 -56 19.5 -79.5t60.5 -23.5q96 0 96 102v296z" />
    <glyph glyph-name="ucircumflex" unicode="&#xfb;" horiz-adv-x="570" 
d="M282 649l-45 -69h-139l107 140h156l107 -140h-139l-45 69h-2zM371 512h160v-512h-160v74h-2q-52 -90 -168 -90q-76 0 -121 48t-45 134v346h160v-295q0 -56 19.5 -79.5t60.5 -23.5q96 0 96 102v296z" />
    <glyph glyph-name="udieresis" unicode="&#xfc;" horiz-adv-x="570" 
d="M176 574q-36 0 -56.5 22t-20.5 54t21 54t56 22t55.5 -22t20.5 -54t-20.5 -54t-55.5 -22zM391 574q-36 0 -56.5 22t-20.5 54t21 54t56 22t55.5 -22t20.5 -54t-20.5 -54t-55.5 -22zM371 512h160v-512h-160v74h-2q-52 -90 -168 -90q-76 0 -121 48t-45 134v346h160v-295
q0 -56 19.5 -79.5t60.5 -23.5q96 0 96 102v296z" />
    <glyph glyph-name="yacute" unicode="&#xfd;" horiz-adv-x="529" 
d="M246 720h180l-103 -140h-120zM532 512l-174 -522q-33 -97 -75.5 -132t-124.5 -35q-42 0 -89 10v120h2q72 -16 97 21q20 31 -4 100l-167 438h160l116 -336h2l97 336h160z" />
    <glyph glyph-name="thorn" unicode="&#xfe;" horiz-adv-x="588" 
d="M349 528q102 0 162.5 -73t60.5 -199t-60.5 -199t-162.5 -73q-111 0 -148 87h-2v-248h-160v892h160v-274h2q37 87 148 87zM307 104q50 0 77.5 39t27.5 113t-27.5 113t-77.5 39t-77.5 -39t-27.5 -113t27.5 -113t77.5 -39z" />
    <glyph glyph-name="ydieresis" unicode="&#xff;" horiz-adv-x="529" 
d="M81 650q0 32 21 54t56 22t55.5 -22t20.5 -54t-20.5 -54t-55.5 -22q-36 0 -56.5 22t-20.5 54zM296 650q0 32 21 54t56 22t55.5 -22t20.5 -54t-20.5 -54t-55.5 -22q-36 0 -56.5 22t-20.5 54zM532 512l-174 -522q-33 -97 -75.5 -132t-124.5 -35q-42 0 -89 10v120h2
q72 -16 97 21q20 31 -4 100l-167 438h160l116 -336h2l97 336h160z" />
    <glyph glyph-name="Amacron" unicode="&#x100;" horiz-adv-x="697" 
d="M205 903h286v-100h-286v100zM470 149h-245l-46 -149h-180l259 715h180l258 -715h-180zM266 286h164l-81 264h-2z" />
    <glyph glyph-name="amacron" unicode="&#x101;" horiz-adv-x="553" 
d="M134 700h286v-100h-286v100zM341 370q0 48 -65 48q-84 0 -91 -71h-150q4 80 64 130.5t178 50.5q112 0 168 -50t56 -167v-235q0 -38 30 -38v-38q-43 -16 -93 -16q-92 0 -92 70h-2q-26 -30 -69 -50t-92 -20q-79 0 -123.5 40.5t-44.5 106.5q0 73 49.5 113.5t145.5 59.5
q88 17 110 31q21 14 21 35zM239 94q49 0 75.5 27t26.5 66v62q-29 -11 -82 -23q-84 -19 -84 -72q0 -60 64 -60z" />
    <glyph glyph-name="Abreve" unicode="&#x102;" horiz-adv-x="697" 
d="M348 777q-69 0 -113.5 40t-46.5 106h92q5 -48 68 -48t68 48h92q-3 -65 -47 -105.5t-113 -40.5zM470 149h-245l-46 -149h-180l259 715h180l258 -715h-180zM266 286h164l-81 264h-2z" />
    <glyph glyph-name="abreve" unicode="&#x103;" horiz-adv-x="553" 
d="M277 574q-69 0 -113.5 40t-46.5 106h92q5 -48 68 -48t68 48h92q-3 -65 -47 -105.5t-113 -40.5zM341 370q0 48 -65 48q-84 0 -91 -71h-150q4 80 64 130.5t178 50.5q112 0 168 -50t56 -167v-235q0 -38 30 -38v-38q-43 -16 -93 -16q-92 0 -92 70h-2q-26 -30 -69 -50t-92 -20
q-79 0 -123.5 40.5t-44.5 106.5q0 73 49.5 113.5t145.5 59.5q88 17 110 31q21 14 21 35zM239 94q49 0 75.5 27t26.5 66v62q-29 -11 -82 -23q-84 -19 -84 -72q0 -60 64 -60z" />
    <glyph glyph-name="Aogonek" unicode="&#x104;" horiz-adv-x="697" 
d="M660 -83q16 0 41 7v-90q-42 -11 -81 -11q-114 0 -114 84q0 60 70 93h-60l-46 149h-245l-46 -149h-180l259 715h180l258 -715h-19q-18 -15 -25.5 -22t-15 -18t-7.5 -21q0 -22 31 -22zM266 286h164l-81 264h-2z" />
    <glyph glyph-name="aogonek" unicode="&#x105;" horiz-adv-x="553" 
d="M514 -83q16 0 41 7v-90q-42 -11 -81 -11q-114 0 -114 84q0 46 47 80q-61 10 -61 67h-2q-26 -30 -69 -50t-92 -20q-79 0 -123.5 40.5t-44.5 106.5q0 73 49.5 113.5t145.5 59.5q88 17 110 31q21 14 21 35q0 48 -65 48q-84 0 -91 -71h-150q4 80 64 130.5t178 50.5
q112 0 168 -50t56 -167v-235q0 -38 30 -38v-38q-18 -15 -25.5 -22t-15 -18t-7.5 -21q0 -22 31 -22zM341 187v62q-29 -11 -82 -23q-84 -19 -84 -72q0 -60 64 -60q49 0 75.5 27t26.5 66z" />
    <glyph glyph-name="Cacute" unicode="&#x106;" horiz-adv-x="697" 
d="M353 923h180l-103 -140h-120zM503 449q-11 64 -44 99.5t-100 35.5q-159 0 -159 -226q0 -227 159 -227q68 0 101 36t43 101h180q-12 -131 -92.5 -207.5t-223.5 -76.5q-165 0 -256 103.5t-91 270.5q0 166 91 269.5t256 103.5q142 0 222.5 -76.5t93.5 -205.5h-180z" />
    <glyph glyph-name="cacute" unicode="&#x107;" horiz-adv-x="540" 
d="M257 720h180l-103 -140h-120zM370 321q-11 87 -91 87q-49 0 -76 -40t-27 -112q0 -73 26.5 -112.5t76.5 -39.5q81 0 91 89h157q-6 -93 -72.5 -151t-174.5 -58q-120 0 -192 75.5t-72 196.5q0 120 71.5 196t188.5 76q109 0 175 -57.5t76 -149.5h-157z" />
    <glyph glyph-name="Cdotaccent" unicode="&#x10a;" horiz-adv-x="697" 
d="M295 853q0 32 21 54t56 22t55.5 -22t20.5 -54t-20.5 -54t-55.5 -22q-36 0 -56.5 22t-20.5 54zM503 449q-11 64 -44 99.5t-100 35.5q-159 0 -159 -226q0 -227 159 -227q68 0 101 36t43 101h180q-12 -131 -92.5 -207.5t-223.5 -76.5q-165 0 -256 103.5t-91 270.5
q0 166 91 269.5t256 103.5q142 0 222.5 -76.5t93.5 -205.5h-180z" />
    <glyph glyph-name="cdotaccent" unicode="&#x10b;" horiz-adv-x="540" 
d="M199 650q0 32 21 54t56 22t55.5 -22t20.5 -54t-20.5 -54t-55.5 -22q-36 0 -56.5 22t-20.5 54zM370 321q-11 87 -91 87q-49 0 -76 -40t-27 -112q0 -73 26.5 -112.5t76.5 -39.5q81 0 91 89h157q-6 -93 -72.5 -151t-174.5 -58q-120 0 -192 75.5t-72 196.5q0 120 71.5 196
t188.5 76q109 0 175 -57.5t76 -149.5h-157z" />
    <glyph glyph-name="Ccaron" unicode="&#x10c;" horiz-adv-x="697" 
d="M187 923h139l45 -69h2l45 69h139l-107 -140h-156zM503 449q-11 64 -44 99.5t-100 35.5q-159 0 -159 -226q0 -227 159 -227q68 0 101 36t43 101h180q-12 -131 -92.5 -207.5t-223.5 -76.5q-165 0 -256 103.5t-91 270.5q0 166 91 269.5t256 103.5q142 0 222.5 -76.5
t93.5 -205.5h-180z" />
    <glyph glyph-name="ccaron" unicode="&#x10d;" horiz-adv-x="540" 
d="M91 720h139l45 -69h2l45 69h139l-107 -140h-156zM370 321q-11 87 -91 87q-49 0 -76 -40t-27 -112q0 -73 26.5 -112.5t76.5 -39.5q81 0 91 89h157q-6 -93 -72.5 -151t-174.5 -58q-120 0 -192 75.5t-72 196.5q0 120 71.5 196t188.5 76q109 0 175 -57.5t76 -149.5h-157z" />
    <glyph glyph-name="Dcaron" unicode="&#x10e;" horiz-adv-x="705" 
d="M132 923h139l45 -69h2l45 69h139l-107 -140h-156zM49 0v715h317q150 0 234.5 -93.5t84.5 -264.5q0 -172 -80 -264.5t-229 -92.5h-327zM229 568v-421h119q157 0 157 210q0 211 -157 211h-119z" />
    <glyph glyph-name="dcaron" unicode="&#x10f;" horiz-adv-x="588" 
d="M670 720q34 0 52.5 -25t18.5 -64q0 -52 -33 -86.5t-99 -40.5v46q66 8 66 48q-32 -7 -53 10.5t-21 45.5q0 27 20 46.5t49 19.5zM389 461v254h160v-715h-160v51h-2q-18 -25 -58 -46t-90 -21q-102 0 -162.5 73t-60.5 199t60.5 199t162.5 73q50 0 90 -21t58 -46h2zM281 104
q50 0 77.5 39t27.5 113t-27.5 113t-77.5 39t-77.5 -39t-27.5 -113t27.5 -113t77.5 -39z" />
    <glyph glyph-name="Dcroat" unicode="&#x110;" horiz-adv-x="714" 
d="M375 715q150 0 234.5 -93.5t84.5 -264.5q0 -172 -80 -264.5t-229 -92.5h-327v325h-55v90h55v300h317zM357 147q157 0 157 210q0 211 -157 211h-119v-153h143v-90h-143v-178h119z" />
    <glyph glyph-name="dcroat" unicode="&#x111;" horiz-adv-x="587" 
d="M599 665v-90h-50v-575h-160v51h-2q-18 -25 -58 -46t-90 -21q-102 0 -162.5 73t-60.5 199t60.5 199t162.5 73q50 0 90 -21t58 -46h2v114h-138v90h138v50h160v-50h50zM281 104q50 0 77.5 39t27.5 113t-27.5 113t-77.5 39t-77.5 -39t-27.5 -113t27.5 -113t77.5 -39z" />
    <glyph glyph-name="Emacron" unicode="&#x112;" horiz-adv-x="628" 
d="M180 903h286v-100h-286v100zM229 441h312v-147h-312v-147h368v-147h-548v715h542v-147h-362v-127z" />
    <glyph glyph-name="emacron" unicode="&#x113;" horiz-adv-x="560" 
d="M423 700v-100h-286v100h286zM286 104q71 0 91 51h159q-22 -80 -84 -125.5t-163 -45.5q-126 0 -199.5 75t-73.5 197q0 119 72 195.5t192 76.5q128 0 196 -85t68 -229h-368q0 -51 32 -80.5t78 -29.5zM280 418q-47 0 -75.5 -27.5t-28.5 -79.5h208q0 52 -28.5 79.5
t-75.5 27.5z" />
    <glyph glyph-name="Edotaccent" unicode="&#x116;" horiz-adv-x="628" 
d="M246 853q0 32 21 54t56 22t55.5 -22t20.5 -54t-20.5 -54t-55.5 -22q-36 0 -56.5 22t-20.5 54zM229 441h312v-147h-312v-147h368v-147h-548v715h542v-147h-362v-127z" />
    <glyph glyph-name="edotaccent" unicode="&#x117;" horiz-adv-x="560" 
d="M280 574q-36 0 -56.5 22t-20.5 54t21 54t56 22t55.5 -22t20.5 -54t-20.5 -54t-55.5 -22zM286 104q71 0 91 51h159q-22 -80 -84 -125.5t-163 -45.5q-126 0 -199.5 75t-73.5 197q0 119 72 195.5t192 76.5q128 0 196 -85t68 -229h-368q0 -51 32 -80.5t78 -29.5zM280 418
q-47 0 -75.5 -27.5t-28.5 -79.5h208q0 52 -28.5 79.5t-75.5 27.5z" />
    <glyph glyph-name="Eogonek" unicode="&#x118;" horiz-adv-x="628" 
d="M576 -83q16 0 41 7v-90q-42 -11 -81 -11q-114 0 -114 84q0 60 70 93h-443v715h542v-147h-362v-127h312v-147h-312v-147h368v-147h-4q-18 -15 -25.5 -22t-15 -18t-7.5 -21q0 -22 31 -22z" />
    <glyph glyph-name="eogonek" unicode="&#x119;" horiz-adv-x="560" 
d="M286 104q71 0 91 51h159q-34 -123 -152 -158q-16 -14 -23 -20.5t-14 -17.5t-7 -20q0 -22 31 -22q17 0 41 7v-90q-42 -11 -81 -11q-114 0 -114 84q0 46 45 78q-114 8 -180 82t-66 189q0 119 72 195.5t192 76.5q128 0 196 -85t68 -229h-368q0 -51 32 -80.5t78 -29.5z
M280 418q-47 0 -75.5 -27.5t-28.5 -79.5h208q0 52 -28.5 79.5t-75.5 27.5z" />
    <glyph glyph-name="Ecaron" unicode="&#x11a;" horiz-adv-x="628" 
d="M138 923h139l45 -69h2l45 69h139l-107 -140h-156zM229 441h312v-147h-312v-147h368v-147h-548v715h542v-147h-362v-127z" />
    <glyph glyph-name="ecaron" unicode="&#x11b;" horiz-adv-x="560" 
d="M358 580h-156l-107 140h139l45 -69h2l45 69h139zM286 104q71 0 91 51h159q-22 -80 -84 -125.5t-163 -45.5q-126 0 -199.5 75t-73.5 197q0 119 72 195.5t192 76.5q128 0 196 -85t68 -229h-368q0 -51 32 -80.5t78 -29.5zM280 418q-47 0 -75.5 -27.5t-28.5 -79.5h208
q0 52 -28.5 79.5t-75.5 27.5z" />
    <glyph glyph-name="Gbreve" unicode="&#x11e;" horiz-adv-x="737" 
d="M366 777q-69 0 -113.5 40t-46.5 106h92q5 -48 68 -48t68 48h92q-3 -65 -47 -105.5t-113 -40.5zM509 478q-28 106 -145 106q-163 0 -163 -226q0 -227 170 -227q62 0 101.5 33.5t41.5 85.5h-136v130h322v-380h-129l-18 91h-2q-56 -107 -206 -107q-149 0 -236.5 104.5
t-87.5 269.5q0 166 91 269.5t255 103.5q140 0 224 -72t98 -181h-180z" />
    <glyph glyph-name="gbreve" unicode="&#x11f;" horiz-adv-x="572" 
d="M265 574q-69 0 -113.5 40t-46.5 106h92q5 -48 68 -48t68 48h92q-3 -65 -47 -105.5t-113 -40.5zM373 512h160v-462q0 -121 -64.5 -174t-187.5 -53q-113 0 -176.5 48t-78.5 118h160q18 -51 91 -51q53 0 74.5 29t21.5 94v30h-2q-50 -67 -140 -67q-97 0 -156 70t-59 182
t59 182t156 70q90 0 140 -67h2v51zM273 144q97 0 97 132t-97 132t-97 -132t97 -132z" />
    <glyph glyph-name="Gdotaccent" unicode="&#x120;" horiz-adv-x="737" 
d="M289 853q0 32 21 54t56 22t55.5 -22t20.5 -54t-20.5 -54t-55.5 -22q-36 0 -56.5 22t-20.5 54zM509 478q-28 106 -145 106q-163 0 -163 -226q0 -227 170 -227q62 0 101.5 33.5t41.5 85.5h-136v130h322v-380h-129l-18 91h-2q-56 -107 -206 -107q-149 0 -236.5 104.5
t-87.5 269.5q0 166 91 269.5t255 103.5q140 0 224 -72t98 -181h-180z" />
    <glyph glyph-name="gdotaccent" unicode="&#x121;" horiz-adv-x="572" 
d="M265 574q-36 0 -56.5 22t-20.5 54t21 54t56 22t55.5 -22t20.5 -54t-20.5 -54t-55.5 -22zM373 512h160v-462q0 -121 -64.5 -174t-187.5 -53q-113 0 -176.5 48t-78.5 118h160q18 -51 91 -51q53 0 74.5 29t21.5 94v30h-2q-50 -67 -140 -67q-97 0 -156 70t-59 182t59 182
t156 70q90 0 140 -67h2v51zM273 144q97 0 97 132t-97 132t-97 -132t97 -132z" />
    <glyph glyph-name="Gcommaaccent" unicode="&#x122;" horiz-adv-x="737" 
d="M509 478q-28 106 -145 106q-163 0 -163 -226q0 -227 170 -227q62 0 101.5 33.5t41.5 85.5h-136v130h322v-380h-129l-18 91h-2q-56 -107 -206 -107q-149 0 -236.5 104.5t-87.5 269.5q0 166 91 269.5t255 103.5q140 0 224 -72t98 -181h-180zM369 -169q-32 -7 -53 10.5
t-21 45.5q0 27 20 46.5t49 19.5q34 0 52.5 -25t18.5 -64q0 -52 -33 -86.5t-99 -40.5v46q66 8 66 48z" />
    <glyph glyph-name="gcommaaccent" unicode="&#x123;" horiz-adv-x="572" 
d="M264 569q-37 0 -58 25.5t-21 63.5q0 52 33 86.5t99 40.5v-46q-66 -8 -66 -48q32 7 53 -10.5t21 -47.5q0 -29 -16 -46.5t-45 -17.5zM373 512h160v-462q0 -121 -64.5 -174t-187.5 -53q-113 0 -176.5 48t-78.5 118h160q18 -51 91 -51q53 0 74.5 29t21.5 94v30h-2
q-50 -67 -140 -67q-97 0 -156 70t-59 182t59 182t156 70q90 0 140 -67h2v51zM273 144q97 0 97 132t-97 132t-97 -132t97 -132z" />
    <glyph glyph-name="Hbar" unicode="&#x126;" horiz-adv-x="714" 
d="M709 616v-90h-54v-526h-180v288h-245v-288h-180v526h-55v90h55v99h180v-99h245v99h180v-99h54zM475 435v91h-245v-91h245z" />
    <glyph glyph-name="hbar" unicode="&#x127;" horiz-adv-x="569" 
d="M359 528q82 0 128.5 -47.5t46.5 -134.5v-346h-160v295q0 57 -19.5 80t-63.5 23q-41 0 -67 -25.5t-26 -76.5v-296h-160v575h-50v90h50v50h160v-50h146v-90h-146v-137h2q52 90 159 90z" />
    <glyph glyph-name="Imacron" unicode="&#x12a;" horiz-adv-x="279" 
d="M-3 903h286v-100h-286v100zM50 715h180v-715h-180v715z" />
    <glyph glyph-name="imacron" unicode="&#x12b;" horiz-adv-x="220" 
d="M-33 700h286v-100h-286v100zM30 512h160v-512h-160v512z" />
    <glyph glyph-name="Iogonek" unicode="&#x12e;" horiz-adv-x="279" 
d="M212 -83q16 0 41 7v-90q-42 -11 -81 -11q-114 0 -114 84q0 60 70 93h-78v715h180v-715h-1q-18 -15 -25.5 -22t-15 -18t-7.5 -21q0 -22 31 -22z" />
    <glyph glyph-name="iogonek" unicode="&#x12f;" horiz-adv-x="220" 
d="M110 574q-36 0 -56.5 22t-20.5 54t21 54t56 22t55.5 -22t20.5 -54t-20.5 -54t-55.5 -22zM173 -83q17 0 41 7v-90q-42 -11 -81 -11q-114 0 -114 84q0 60 70 93h-59v512h160v-512q-18 -15 -25.5 -22t-15 -18t-7.5 -21q0 -22 31 -22z" />
    <glyph glyph-name="Idotaccent" unicode="&#x130;" horiz-adv-x="279" 
d="M63 853q0 32 21 54t56 22t55.5 -22t20.5 -54t-20.5 -54t-55.5 -22q-36 0 -56.5 22t-20.5 54zM50 715h180v-715h-180v715z" />
    <glyph glyph-name="dotlessi" unicode="&#x131;" horiz-adv-x="220" 
d="M30 512h160v-512h-160v512z" />
    <glyph glyph-name="Kcommaaccent" unicode="&#x136;" horiz-adv-x="697" 
d="M49 715h180v-290l249 290h210l-272 -315l282 -400h-210l-187 271l-72 -82v-189h-180v715zM358 -169q-32 -7 -53 10.5t-21 45.5q0 27 20 46.5t49 19.5q34 0 52.5 -25t18.5 -64q0 -52 -33 -86.5t-99 -40.5v46q66 8 66 48z" />
    <glyph glyph-name="kcommaaccent" unicode="&#x137;" horiz-adv-x="560" 
d="M39 715h160v-376l150 173h191l-181 -192l202 -320h-190l-121 204l-51 -53v-151h-160v715zM284 -169q-32 -7 -53 10.5t-21 45.5q0 27 20 46.5t49 19.5q34 0 52.5 -25t18.5 -64q0 -52 -33 -86.5t-99 -40.5v46q66 8 66 48z" />
    <glyph glyph-name="Lacute" unicode="&#x139;" horiz-adv-x="565" 
d="M123 923h180l-103 -140h-120zM49 715h180v-568h318v-147h-498v715z" />
    <glyph glyph-name="lacute" unicode="&#x13a;" horiz-adv-x="240" 
d="M106 910h180l-103 -140h-120zM40 715h160v-715h-160v715z" />
    <glyph glyph-name="Lcommaaccent" unicode="&#x13b;" horiz-adv-x="565" 
d="M49 715h180v-568h318v-147h-498v715zM302 -169q-32 -7 -53 10.5t-21 45.5q0 27 20 46.5t49 19.5q34 0 52.5 -25t18.5 -64q0 -52 -33 -86.5t-99 -40.5v46q66 8 66 48z" />
    <glyph glyph-name="lcommaaccent" unicode="&#x13c;" horiz-adv-x="240" 
d="M40 715h160v-715h-160v715zM124 -169q-32 -7 -53 10.5t-21 45.5q0 27 20 46.5t49 19.5q34 0 52.5 -25t18.5 -64q0 -52 -33 -86.5t-99 -40.5v46q66 8 66 48z" />
    <glyph glyph-name="Lcaron" unicode="&#x13d;" horiz-adv-x="565" 
d="M425 598q-32 -7 -53 10.5t-21 45.5q0 27 20 46.5t49 19.5q34 0 52.5 -25t18.5 -64q0 -52 -33 -86.5t-99 -40.5v46q66 8 66 48zM49 715h180v-568h318v-147h-498v715z" />
    <glyph glyph-name="lcaron" unicode="&#x13e;" horiz-adv-x="240" 
d="M326 598q-32 -7 -53 10.5t-21 45.5q0 27 20 46.5t49 19.5q34 0 52.5 -25t18.5 -64q0 -52 -33 -86.5t-99 -40.5v46q66 8 66 48zM40 715h160v-715h-160v715z" />
    <glyph glyph-name="Lslash" unicode="&#x141;" horiz-adv-x="565" 
d="M229 147h318v-147h-498v215l-60 -44v117l60 44v383h180v-250l180 133v-117l-180 -133v-201z" />
    <glyph glyph-name="lslash" unicode="&#x142;" horiz-adv-x="276" 
d="M280 543v-117l-59 -44v-382h-160v265l-59 -44v117l59 44v333h160v-216z" />
    <glyph glyph-name="Nacute" unicode="&#x143;" horiz-adv-x="710" 
d="M336 923h180l-103 -140h-120zM49 0v715h180l250 -425h2v425h180v-715h-180l-250 425h-2v-425h-180z" />
    <glyph glyph-name="nacute" unicode="&#x144;" horiz-adv-x="570" 
d="M478 720l-103 -140h-120l43 140h180zM369 528q76 0 121 -48t45 -134v-346h-160v295q0 56 -19.5 79.5t-60.5 23.5q-96 0 -96 -102v-296h-160v512h160v-74h2q52 90 168 90z" />
    <glyph glyph-name="Ncommaaccent" unicode="&#x145;" horiz-adv-x="710" 
d="M49 0v715h180l250 -425h2v425h180v-715h-180l-250 425h-2v-425h-180zM359 -169q-32 -7 -53 10.5t-21 45.5q0 27 20 46.5t49 19.5q34 0 52.5 -25t18.5 -64q0 -52 -33 -86.5t-99 -40.5v46q66 8 66 48z" />
    <glyph glyph-name="ncommaaccent" unicode="&#x146;" horiz-adv-x="570" 
d="M369 528q76 0 121 -48t45 -134v-346h-160v295q0 56 -19.5 79.5t-60.5 23.5q-96 0 -96 -102v-296h-160v512h160v-74h2q52 90 168 90zM286 -47q34 0 52.5 -25t18.5 -64q0 -52 -33 -86.5t-99 -40.5v46q66 8 66 48q-32 -7 -53 10.5t-21 45.5q0 27 20 46.5t49 19.5z" />
    <glyph glyph-name="Ncaron" unicode="&#x147;" horiz-adv-x="710" 
d="M170 923h139l45 -69h2l45 69h139l-107 -140h-156zM49 0v715h180l250 -425h2v425h180v-715h-180l-250 425h-2v-425h-180z" />
    <glyph glyph-name="ncaron" unicode="&#x148;" horiz-adv-x="570" 
d="M395 580h-156l-107 140h139l45 -69h2l45 69h139zM369 528q76 0 121 -48t45 -134v-346h-160v295q0 56 -19.5 79.5t-60.5 23.5q-96 0 -96 -102v-296h-160v512h160v-74h2q52 90 168 90z" />
    <glyph glyph-name="Eng" unicode="&#x14a;" horiz-adv-x="710" 
d="M49 0v715h180l250 -425h2v425h180v-669q0 -223 -199 -223q-52 0 -98 10v117q58 0 81 11t36 39l-250 425h-2v-425h-180z" />
    <glyph glyph-name="eng" unicode="&#x14b;" horiz-adv-x="570" 
d="M369 528q76 0 121 -48t45 -134v-358q0 -91 -33 -134t-117 -43q-46 0 -99 11v120q56 0 72.5 8.5t16.5 49.5v295q0 56 -19.5 79.5t-60.5 23.5q-96 0 -96 -102v-296h-160v512h160v-74h2q52 90 168 90z" />
    <glyph glyph-name="Omacron" unicode="&#x14c;" horiz-adv-x="748" 
d="M231 903h286v-100h-286v100zM374 -16q-166 0 -260 104t-94 270t94 269.5t260 103.5q165 0 259.5 -104t94.5 -269q0 -166 -94.5 -270t-259.5 -104zM374 131q92 0 133 62t41 165q0 102 -41 164t-133 62t-133 -62t-41 -164q0 -103 41 -165t133 -62z" />
    <glyph glyph-name="omacron" unicode="&#x14d;" horiz-adv-x="579" 
d="M147 700h286v-100h-286v100zM290 -16q126 0 199.5 75.5t73.5 196.5t-73.5 196.5t-199.5 75.5t-200 -75.5t-74 -196.5t74 -196.5t200 -75.5zM290 104q-54 0 -84 39.5t-30 112.5t30 112.5t84 39.5q53 0 83 -39.5t30 -112.5t-30 -112.5t-83 -39.5z" />
    <glyph glyph-name="Ohungarumlaut" unicode="&#x150;" horiz-adv-x="748" 
d="M242 923h180l-103 -140h-120zM462 923h180l-103 -140h-120zM374 -16q-166 0 -260 104t-94 270t94 269.5t260 103.5q165 0 259.5 -104t94.5 -269q0 -166 -94.5 -270t-259.5 -104zM374 131q92 0 133 62t41 165q0 102 -41 164t-133 62t-133 -62t-41 -164q0 -103 41 -165
t133 -62z" />
    <glyph glyph-name="ohungarumlaut" unicode="&#x151;" horiz-adv-x="579" 
d="M158 720h180l-103 -140h-120zM378 720h180l-103 -140h-120zM290 -16q126 0 199.5 75.5t73.5 196.5t-73.5 196.5t-199.5 75.5t-200 -75.5t-74 -196.5t74 -196.5t200 -75.5zM290 104q-54 0 -84 39.5t-30 112.5t30 112.5t84 39.5q53 0 83 -39.5t30 -112.5t-30 -112.5
t-83 -39.5z" />
    <glyph glyph-name="OE" unicode="&#x152;" horiz-adv-x="1097" 
d="M698 147h368v-147h-548v47q-71 -63 -174 -63q-146 0 -235 105t-89 269q0 163 89 268t235 105q103 0 174 -63v47h542v-147h-362v-127h312v-147h-312v-147zM374 131q96 0 144 92v269q-48 92 -144 92q-92 0 -133 -62t-41 -164q0 -103 41 -165t133 -62z" />
    <glyph glyph-name="oe" unicode="&#x153;" horiz-adv-x="975" 
d="M700 104q71 0 91 51h159q-22 -80 -84 -125.5t-163 -45.5q-132 0 -207 83q-75 -83 -206 -83q-126 0 -200 75.5t-74 196.5t74 196.5t200 75.5q131 0 206 -83q73 83 198 83q128 0 196 -85t68 -229h-368q0 -51 32 -80.5t78 -29.5zM694 418q-47 0 -75.5 -27.5t-28.5 -79.5h208
q0 52 -28.5 79.5t-75.5 27.5zM290 104q53 0 83 39.5t30 112.5t-30 112.5t-83 39.5q-54 0 -84 -39.5t-30 -112.5t30 -112.5t84 -39.5z" />
    <glyph glyph-name="Racute" unicode="&#x154;" horiz-adv-x="671" 
d="M301 923h180l-103 -140h-120zM49 0v715h337q120 0 187.5 -54t67.5 -154q0 -70 -38.5 -115t-106.5 -60v-2q50 -9 80.5 -44t40 -79t13 -87.5t7 -75t14.5 -34.5v-10h-187q-9 8 -11 37t-3.5 64t-8.5 69t-32 56.5t-68 22.5h-112v-249h-180zM229 568v-172h122q110 0 110 86
t-110 86h-122z" />
    <glyph glyph-name="racute" unicode="&#x155;" horiz-adv-x="383" 
d="M366 720l-103 -140h-120l43 140h180zM326 521q26 0 44 -4v-140h-2q-66 12 -117.5 -25t-51.5 -114v-238h-160v512h160v-84h2q41 93 125 93z" />
    <glyph glyph-name="Rcommaaccent" unicode="&#x156;" horiz-adv-x="671" 
d="M49 0v715h337q120 0 187.5 -54t67.5 -154q0 -70 -38.5 -115t-106.5 -60v-2q50 -9 80.5 -44t40 -79t13 -87.5t7 -75t14.5 -34.5v-10h-187q-9 8 -11 37t-3.5 64t-8.5 69t-32 56.5t-68 22.5h-112v-249h-180zM229 568v-172h122q110 0 110 86t-110 86h-122zM354 -169
q-32 -7 -53 10.5t-21 45.5q0 27 20 46.5t49 19.5q34 0 52.5 -25t18.5 -64q0 -52 -33 -86.5t-99 -40.5v46q66 8 66 48z" />
    <glyph glyph-name="rcommaaccent" unicode="&#x157;" horiz-adv-x="383" 
d="M326 521q26 0 44 -4v-140h-2q-66 12 -117.5 -25t-51.5 -114v-238h-160v512h160v-84h2q41 93 125 93zM124 -47q34 0 52.5 -25t18.5 -64q0 -52 -33 -86.5t-99 -40.5v46q66 8 66 48q-32 -7 -53 10.5t-21 45.5q0 27 20 46.5t49 19.5z" />
    <glyph glyph-name="Rcaron" unicode="&#x158;" horiz-adv-x="671" 
d="M135 923h139l45 -69h2l45 69h139l-107 -140h-156zM49 0v715h337q120 0 187.5 -54t67.5 -154q0 -70 -38.5 -115t-106.5 -60v-2q50 -9 80.5 -44t40 -79t13 -87.5t7 -75t14.5 -34.5v-10h-187q-9 8 -11 37t-3.5 64t-8.5 69t-32 56.5t-68 22.5h-112v-249h-180zM229 568v-172
h122q110 0 110 86t-110 86h-122z" />
    <glyph glyph-name="rcaron" unicode="&#x159;" horiz-adv-x="383" 
d="M283 580h-156l-107 140h139l45 -69h2l45 69h139zM201 428q41 93 125 93q26 0 44 -4v-140h-2q-66 12 -117.5 -25t-51.5 -114v-238h-160v512h160v-84h2z" />
    <glyph glyph-name="Sacute" unicode="&#x15a;" horiz-adv-x="647" 
d="M301 923h180l-103 -140h-120zM350 444q50 -14 81.5 -24t72.5 -30t64 -42.5t39.5 -58t16.5 -79.5q0 -104 -75 -165t-208 -61q-143 0 -234.5 67.5t-91.5 183.5h180q0 -54 40.5 -79t105.5 -25q49 0 76 17t27 45q0 12 -4 21.5t-14.5 18t-19 14t-28.5 12.5t-31.5 10.5
t-39.5 11.5t-41 12q-109 32 -170 81.5t-61 139.5q0 111 76 164t200 53q128 0 213.5 -63.5t89.5 -169.5h-180q-6 40 -38.5 63t-84.5 23q-43 0 -69.5 -14t-26.5 -43q0 -30 29 -46t106 -37z" />
    <glyph glyph-name="sacute" unicode="&#x15b;" horiz-adv-x="504" 
d="M230 720h180l-103 -140h-120zM289 323q35 -8 60.5 -15.5t53.5 -21t46 -31t29.5 -44t11.5 -60.5q0 -81 -58.5 -124t-165.5 -43q-130 0 -192 51t-66 135h150q7 -76 102 -76q70 0 70 44q0 32 -43 47q-15 5 -86 21q-39 8 -66.5 18t-56.5 27.5t-44.5 46t-15.5 66.5
q0 72 59.5 118t164.5 46q115 0 172 -49t61 -124h-150q-8 63 -79 63q-68 0 -68 -41q0 -6 1 -10.5t4 -8.5t6 -7t9.5 -6t11.5 -4.5t15.5 -4t17.5 -4t21.5 -4.5t24.5 -5z" />
    <glyph glyph-name="Scedilla" unicode="&#x15e;" horiz-adv-x="647" 
d="M366 -15l-33 -37v-2q46 5 79 -12.5t33 -54.5q0 -35 -38 -56t-93 -21q-64 0 -112 29l30 35q32 -15 69 -15q16 0 30 7.5t14 21.5q0 27 -38 27q-16 0 -35 -7l-17 24l53 61q-130 8 -211.5 74.5t-81.5 175.5h180q0 -54 40.5 -79t105.5 -25q49 0 76 17t27 45q0 12 -4 21.5
t-14.5 18t-19 14t-28.5 12.5t-31.5 10.5t-39.5 11.5t-41 12q-109 32 -170 81.5t-61 139.5q0 111 76 164t200 53q128 0 213.5 -63.5t89.5 -169.5h-180q-6 40 -38.5 63t-84.5 23q-43 0 -69.5 -14t-26.5 -43q0 -30 29 -46t106 -37q50 -14 81.5 -24t72.5 -30t64 -42.5t39.5 -58
t16.5 -79.5q0 -98 -68 -158.5t-190 -66.5z" />
    <glyph glyph-name="scedilla" unicode="&#x15f;" horiz-adv-x="504" 
d="M292 -15l-33 -37v-2q46 5 79 -12.5t33 -54.5q0 -35 -38 -56t-93 -21q-64 0 -112 29l30 35q32 -15 69 -15q16 0 30 7.5t14 21.5q0 27 -38 27q-16 0 -35 -7l-17 24l53 61q-113 6 -167.5 56t-58.5 129h150q7 -76 102 -76q70 0 70 44q0 32 -43 47q-15 5 -86 21
q-39 8 -66.5 18t-56.5 27.5t-44.5 46t-15.5 66.5q0 72 59.5 118t164.5 46q115 0 172 -49t61 -124h-150q-8 63 -79 63q-68 0 -68 -41q0 -6 1 -10.5t4 -8.5t6 -7t9.5 -6t11.5 -4.5t15.5 -4t17.5 -4t21.5 -4.5t24.5 -5q35 -8 60.5 -15.5t53.5 -21t46 -31t29.5 -44t11.5 -60.5
q0 -75 -51.5 -118t-146.5 -48z" />
    <glyph glyph-name="Scaron" unicode="&#x160;" horiz-adv-x="647" 
d="M135 923h139l45 -69h2l45 69h139l-107 -140h-156zM350 444q50 -14 81.5 -24t72.5 -30t64 -42.5t39.5 -58t16.5 -79.5q0 -104 -75 -165t-208 -61q-143 0 -234.5 67.5t-91.5 183.5h180q0 -54 40.5 -79t105.5 -25q49 0 76 17t27 45q0 12 -4 21.5t-14.5 18t-19 14t-28.5 12.5
t-31.5 10.5t-39.5 11.5t-41 12q-109 32 -170 81.5t-61 139.5q0 111 76 164t200 53q128 0 213.5 -63.5t89.5 -169.5h-180q-6 40 -38.5 63t-84.5 23q-43 0 -69.5 -14t-26.5 -43q0 -30 29 -46t106 -37z" />
    <glyph glyph-name="scaron" unicode="&#x161;" horiz-adv-x="504" 
d="M64 720h139l45 -69h2l45 69h139l-107 -140h-156zM289 323q35 -8 60.5 -15.5t53.5 -21t46 -31t29.5 -44t11.5 -60.5q0 -81 -58.5 -124t-165.5 -43q-130 0 -192 51t-66 135h150q7 -76 102 -76q70 0 70 44q0 32 -43 47q-15 5 -86 21q-39 8 -66.5 18t-56.5 27.5t-44.5 46
t-15.5 66.5q0 72 59.5 118t164.5 46q115 0 172 -49t61 -124h-150q-8 63 -79 63q-68 0 -68 -41q0 -6 1 -10.5t4 -8.5t6 -7t9.5 -6t11.5 -4.5t15.5 -4t17.5 -4t21.5 -4.5t24.5 -5z" />
    <glyph glyph-name="uni0162" unicode="&#x162;" horiz-adv-x="629" 
d="M346 0l-38 -42v-2q46 5 79 -12.5t33 -54.5q0 -35 -38 -56t-93 -21q-64 0 -112 29l30 35q32 -15 69 -15q16 0 30 7.5t14 21.5q0 27 -38 27q-16 0 -35 -7l-17 24l57 66h-62v568h-208v147h595v-147h-207v-568h-59z" />
    <glyph glyph-name="uni0163" unicode="&#x163;" horiz-adv-x="351" 
d="M224 -44q46 5 79 -12.5t33 -54.5q0 -35 -38 -56t-93 -21q-64 0 -112 29l30 35q32 -15 69 -15q16 0 30 7.5t14 21.5q0 27 -38 27q-16 0 -35 -7l-17 24l51 59q-64 9 -89.5 51.5t-25.5 123.5v224h-71v120h71v143h160v-143h89v-120h-89v-212q0 -41 16.5 -49.5t72.5 -8.5v-120
q-42 -9 -77 -11l-30 -33v-2z" />
    <glyph glyph-name="Tcaron" unicode="&#x164;" horiz-adv-x="629" 
d="M130 923h139l45 -69h2l45 69h139l-107 -140h-156zM225 0v568h-208v147h595v-147h-207v-568h-180z" />
    <glyph glyph-name="tcaron" unicode="&#x165;" horiz-adv-x="351" 
d="M346 770q34 0 52.5 -25t18.5 -64q0 -52 -33 -86.5t-99 -40.5v46q66 8 66 48q-32 -7 -53 10.5t-21 45.5q0 27 20 46.5t49 19.5zM242 655v-143h89v-120h-89v-212q0 -41 16.5 -49.5t72.5 -8.5v-120q-53 -11 -99 -11q-84 0 -117 43t-33 134v224h-71v120h71v143h160z" />
    <glyph glyph-name="Tbar" unicode="&#x166;" horiz-adv-x="629" 
d="M612 568h-207v-153h134v-90h-134v-325h-180v325h-134v90h134v153h-208v147h595v-147z" />
    <glyph glyph-name="tbar" unicode="&#x167;" horiz-adv-x="351" 
d="M331 392h-89v-68h89v-90h-89v-54q0 -41 16.5 -49.5t72.5 -8.5v-120q-53 -11 -99 -11q-84 0 -117 43t-33 134v66h-71v90h71v68h-71v120h71v143h160v-143h89v-120z" />
    <glyph glyph-name="Umacron" unicode="&#x16a;" horiz-adv-x="686" 
d="M200 903h286v-100h-286v100zM642 258q0 -137 -70.5 -205.5t-228.5 -68.5t-228.5 68.5t-70.5 205.5v457h180v-457q0 -68 29 -97.5t90 -29.5t90 29.5t29 97.5v457h180v-457z" />
    <glyph glyph-name="umacron" unicode="&#x16b;" horiz-adv-x="570" 
d="M426 700v-100h-286v100h286zM371 512h160v-512h-160v74h-2q-52 -90 -168 -90q-76 0 -121 48t-45 134v346h160v-295q0 -56 19.5 -79.5t60.5 -23.5q96 0 96 102v296z" />
    <glyph glyph-name="Uring" unicode="&#x16e;" horiz-adv-x="686" 
d="M343 772q-43 0 -72.5 27.5t-29.5 72.5t29.5 72.5t72.5 27.5t72.5 -27.5t29.5 -72.5t-29.5 -72.5t-72.5 -27.5zM343 827q19 0 30.5 12t11.5 33t-11.5 33t-30.5 12q-18 0 -29.5 -12t-11.5 -33t11.5 -33t29.5 -12zM642 258q0 -137 -70.5 -205.5t-228.5 -68.5t-228.5 68.5
t-70.5 205.5v457h180v-457q0 -68 29 -97.5t90 -29.5t90 29.5t29 97.5v457h180v-457z" />
    <glyph glyph-name="uring" unicode="&#x16f;" horiz-adv-x="570" 
d="M283 569q-43 0 -72.5 27.5t-29.5 72.5t29.5 72.5t72.5 27.5t72.5 -27.5t29.5 -72.5t-29.5 -72.5t-72.5 -27.5zM283 714q-18 0 -29.5 -12t-11.5 -33t11.5 -33t29.5 -12q19 0 30.5 12t11.5 33t-11.5 33t-30.5 12zM371 512h160v-512h-160v74h-2q-52 -90 -168 -90
q-76 0 -121 48t-45 134v346h160v-295q0 -56 19.5 -79.5t60.5 -23.5q96 0 96 102v296z" />
    <glyph glyph-name="Uhungarumlaut" unicode="&#x170;" horiz-adv-x="686" 
d="M211 923h180l-103 -140h-120zM431 923h180l-103 -140h-120zM642 258q0 -137 -70.5 -205.5t-228.5 -68.5t-228.5 68.5t-70.5 205.5v457h180v-457q0 -68 29 -97.5t90 -29.5t90 29.5t29 97.5v457h180v-457z" />
    <glyph glyph-name="uhungarumlaut" unicode="&#x171;" horiz-adv-x="570" 
d="M331 720l-103 -140h-120l43 140h180zM448 580h-120l43 140h180zM371 216v296h160v-512h-160v74h-2q-52 -90 -168 -90q-76 0 -121 48t-45 134v346h160v-295q0 -56 19.5 -79.5t60.5 -23.5q96 0 96 102z" />
    <glyph glyph-name="Uogonek" unicode="&#x172;" horiz-adv-x="686" 
d="M462 715h180v-457q0 -105 -40 -169t-127 -89q-18 -15 -25.5 -22t-15 -18t-7.5 -21q0 -22 31 -22q16 0 41 7v-90q-42 -11 -81 -11q-114 0 -114 84q0 45 43 77h-4q-158 0 -228.5 68.5t-70.5 205.5v457h180v-457q0 -68 29 -97.5t90 -29.5t90 29.5t29 97.5v457z" />
    <glyph glyph-name="uogonek" unicode="&#x173;" horiz-adv-x="570" 
d="M514 -83q16 0 41 7v-90q-42 -11 -81 -11q-114 0 -114 84q0 60 70 93h-59v74h-2q-52 -90 -168 -90q-76 0 -121 48t-45 134v346h160v-295q0 -56 19.5 -79.5t60.5 -23.5q96 0 96 102v296h160v-512q-18 -15 -25.5 -22t-15 -18t-7.5 -21q0 -22 31 -22z" />
    <glyph glyph-name="Wcircumflex" unicode="&#x174;" horiz-adv-x="940" 
d="M285 783l107 140h156l107 -140h-139l-45 69h-2l-45 -69h-139zM0 715h180l92 -485h2l111 485h170l111 -485h2l92 485h180l-182 -715h-180l-107 446h-2l-107 -446h-180z" />
    <glyph glyph-name="wcircumflex" unicode="&#x175;" horiz-adv-x="783" 
d="M206 580l107 140h156l107 -140h-139l-45 69h-2l-45 -69h-139zM-2 512h160l77 -312h2l84 312h140l84 -312h2l77 312h160l-143 -512h-150l-99 324h-2l-99 -324h-150z" />
    <glyph glyph-name="Ycircumflex" unicode="&#x176;" horiz-adv-x="663" 
d="M147 783l107 140h156l107 -140h-139l-45 69h-2l-45 -69h-139zM1 715h190l139 -294h2l140 294h190l-241 -451v-264h-180v264z" />
    <glyph glyph-name="ycircumflex" unicode="&#x177;" horiz-adv-x="529" 
d="M80 580l107 140h156l107 -140h-139l-45 69h-2l-45 -69h-139zM532 512l-174 -522q-33 -97 -75.5 -132t-124.5 -35q-42 0 -89 10v120h2q72 -16 97 21q20 31 -4 100l-167 438h160l116 -336h2l97 336h160z" />
    <glyph glyph-name="Ydieresis" unicode="&#x178;" horiz-adv-x="663" 
d="M148 853q0 32 21 54t56 22t55.5 -22t20.5 -54t-20.5 -54t-55.5 -22q-36 0 -56.5 22t-20.5 54zM363 853q0 32 21 54t56 22t55.5 -22t20.5 -54t-20.5 -54t-55.5 -22q-36 0 -56.5 22t-20.5 54zM1 715h190l139 -294h2l140 294h190l-241 -451v-264h-180v264z" />
    <glyph glyph-name="Zacute" unicode="&#x179;" horiz-adv-x="610" 
d="M296 923h180l-103 -140h-120zM46 715h527v-147l-327 -419v-2h337v-147h-557v147l327 419v2h-307v147z" />
    <glyph glyph-name="zacute" unicode="&#x17a;" horiz-adv-x="505" 
d="M240 720h180l-103 -140h-120zM24 115l249 275v2h-229v120h429v-115l-249 -275v-2h259v-120h-459v115z" />
    <glyph glyph-name="Zdotaccent" unicode="&#x17b;" horiz-adv-x="610" 
d="M238 853q0 32 21 54t56 22t55.5 -22t20.5 -54t-20.5 -54t-55.5 -22q-36 0 -56.5 22t-20.5 54zM46 715h527v-147l-327 -419v-2h337v-147h-557v147l327 419v2h-307v147z" />
    <glyph glyph-name="zdotaccent" unicode="&#x17c;" horiz-adv-x="505" 
d="M182 650q0 32 21 54t56 22t55.5 -22t20.5 -54t-20.5 -54t-55.5 -22q-36 0 -56.5 22t-20.5 54zM24 115l249 275v2h-229v120h429v-115l-249 -275v-2h259v-120h-459v115z" />
    <glyph glyph-name="Zcaron" unicode="&#x17d;" horiz-adv-x="610" 
d="M130 923h139l45 -69h2l45 69h139l-107 -140h-156zM46 715h527v-147l-327 -419v-2h337v-147h-557v147l327 419v2h-307v147z" />
    <glyph glyph-name="zcaron" unicode="&#x17e;" horiz-adv-x="505" 
d="M74 720h139l45 -69h2l45 69h139l-107 -140h-156zM24 115l249 275v2h-229v120h429v-115l-249 -275v-2h259v-120h-459v115z" />
    <glyph glyph-name="Scommaaccent" unicode="&#x218;" horiz-adv-x="647" 
d="M350 444q50 -14 81.5 -24t72.5 -30t64 -42.5t39.5 -58t16.5 -79.5q0 -104 -75 -165t-208 -61q-143 0 -234.5 67.5t-91.5 183.5h180q0 -54 40.5 -79t105.5 -25q49 0 76 17t27 45q0 12 -4 21.5t-14.5 18t-19 14t-28.5 12.5t-31.5 10.5t-39.5 11.5t-41 12q-109 32 -170 81.5
t-61 139.5q0 111 76 164t200 53q128 0 213.5 -63.5t89.5 -169.5h-180q-6 40 -38.5 63t-84.5 23q-43 0 -69.5 -14t-26.5 -43q0 -30 29 -46t106 -37zM344 -169q-32 -7 -53 10.5t-21 45.5q0 27 20 46.5t49 19.5q34 0 52.5 -25t18.5 -64q0 -52 -33 -86.5t-99 -40.5v46
q66 8 66 48z" />
    <glyph glyph-name="scommaaccent" unicode="&#x219;" horiz-adv-x="504" 
d="M289 323q35 -8 60.5 -15.5t53.5 -21t46 -31t29.5 -44t11.5 -60.5q0 -81 -58.5 -124t-165.5 -43q-130 0 -192 51t-66 135h150q7 -76 102 -76q70 0 70 44q0 32 -43 47q-15 5 -86 21q-39 8 -66.5 18t-56.5 27.5t-44.5 46t-15.5 66.5q0 72 59.5 118t164.5 46q115 0 172 -49
t61 -124h-150q-8 63 -79 63q-68 0 -68 -41q0 -6 1 -10.5t4 -8.5t6 -7t9.5 -6t11.5 -4.5t15.5 -4t17.5 -4t21.5 -4.5t24.5 -5zM270 -169q-32 -7 -53 10.5t-21 45.5q0 27 20 46.5t49 19.5q34 0 52.5 -25t18.5 -64q0 -52 -33 -86.5t-99 -40.5v46q66 8 66 48z" />
    <glyph glyph-name="uni021A" unicode="&#x21a;" horiz-adv-x="629" 
d="M225 0v568h-208v147h595v-147h-207v-568h-180zM319 -159q-32 -7 -53 10.5t-21 45.5q0 27 20 46.5t49 19.5q34 0 52.5 -25t18.5 -64q0 -52 -33 -86.5t-99 -40.5v46q66 8 66 48z" />
    <glyph glyph-name="uni021B" unicode="&#x21b;" horiz-adv-x="351" 
d="M331 392h-89v-212q0 -41 16.5 -49.5t72.5 -8.5v-120q-53 -11 -99 -11q-84 0 -117 43t-33 134v224h-71v120h71v143h160v-143h89v-120zM230 -37q34 0 52.5 -25t18.5 -64q0 -52 -33 -86.5t-99 -40.5v46q66 8 66 48q-32 -7 -53 10.5t-21 45.5q0 27 20 46.5t49 19.5z" />
    <glyph glyph-name="circumflex" unicode="&#x2c6;" horiz-adv-x="464" 
d="M65 580l107 140h156l107 -140h-139l-45 69h-2l-45 -69h-139z" />
    <glyph glyph-name="caron" unicode="&#x2c7;" horiz-adv-x="501" 
d="M66 720h139l45 -69h2l45 69h139l-107 -140h-156z" />
    <glyph glyph-name="breve" unicode="&#x2d8;" horiz-adv-x="497" 
d="M268 574q-69 0 -113.5 40t-46.5 106h92q5 -48 68 -48t68 48h92q-3 -65 -47 -105.5t-113 -40.5z" />
    <glyph glyph-name="dotaccent" unicode="&#x2d9;" horiz-adv-x="491" 
d="M169 650q0 32 21 54t56 22t55.5 -22t20.5 -54t-20.5 -54t-55.5 -22q-36 0 -56.5 22t-20.5 54z" />
    <glyph glyph-name="ring" unicode="&#x2da;" horiz-adv-x="500" 
d="M250 569q-43 0 -72.5 27.5t-29.5 72.5t29.5 72.5t72.5 27.5t72.5 -27.5t29.5 -72.5t-29.5 -72.5t-72.5 -27.5zM250 624q19 0 30.5 12t11.5 33t-11.5 33t-30.5 12q-18 0 -29.5 -12t-11.5 -33t11.5 -33t29.5 -12z" />
    <glyph glyph-name="ogonek" unicode="&#x2db;" horiz-adv-x="510" 
d="M235 -177q-114 0 -114 84q0 60 70 93h101q-18 -15 -25.5 -22t-15 -18t-7.5 -21q0 -22 31 -22q17 0 41 7v-90q-42 -11 -81 -11z" />
    <glyph glyph-name="tilde" unicode="&#x2dc;" horiz-adv-x="500" 
d="M84 594q0 135 88 135q24 0 67 -19t61 -19q33 0 33 38h83q0 -72 -22 -103.5t-66 -31.5q-24 0 -67 18.5t-61 18.5q-33 0 -33 -37h-83z" />
    <glyph glyph-name="hungarumlaut" unicode="&#x2dd;" horiz-adv-x="541" 
d="M139 720h180l-103 -140h-120zM359 720h180l-103 -140h-120z" />
    <glyph glyph-name="gravecomb" unicode="&#x300;" 
d="M-73 720l43 -140h-120l-103 140h180z" />
    <glyph glyph-name="acutecomb" unicode="&#x301;" 
d="M-210 720h180l-103 -140h-120z" />
    <glyph glyph-name="uni0302" unicode="&#x302;" 
d="M-400 580l107 140h156l107 -140h-139l-45 69h-2l-45 -69h-139z" />
    <glyph glyph-name="tildecomb" unicode="&#x303;" 
d="M-362 594q0 135 88 135q24 0 67 -19t61 -19q33 0 33 38h83q0 -72 -22 -103.5t-66 -31.5q-24 0 -67 18.5t-61 18.5q-33 0 -33 -37h-83z" />
    <glyph glyph-name="uni0304" unicode="&#x304;" 
d="M-316 700h286v-100h-286v100z" />
    <glyph glyph-name="uni0306" unicode="&#x306;" 
d="M-190 574q-69 0 -113.5 40t-46.5 106h92q5 -48 68 -48t68 48h92q-3 -65 -47 -105.5t-113 -40.5z" />
    <glyph glyph-name="uni0307" unicode="&#x307;" 
d="M-183 650q0 32 21 54t56 22t55.5 -22t20.5 -54t-20.5 -54t-55.5 -22q-36 0 -56.5 22t-20.5 54z" />
    <glyph glyph-name="uni0308" unicode="&#x308;" 
d="M-398 650q0 32 21 54t56 22t55.5 -22t20.5 -54t-20.5 -54t-55.5 -22q-36 0 -56.5 22t-20.5 54zM-183 650q0 32 21 54t56 22t55.5 -22t20.5 -54t-20.5 -54t-55.5 -22q-36 0 -56.5 22t-20.5 54z" />
    <glyph glyph-name="uni030A" unicode="&#x30a;" 
d="M-132 569q-43 0 -72.5 27.5t-29.5 72.5t29.5 72.5t72.5 27.5t72.5 -27.5t29.5 -72.5t-29.5 -72.5t-72.5 -27.5zM-132 624q19 0 30.5 12t11.5 33t-11.5 33t-30.5 12q-18 0 -29.5 -12t-11.5 -33t11.5 -33t29.5 -12z" />
    <glyph glyph-name="uni030B" unicode="&#x30b;" 
d="M-430 720h180l-103 -140h-120zM-210 720h180l-103 -140h-120z" />
    <glyph glyph-name="uni030C" unicode="&#x30c;" 
d="M-400 720h139l45 -69h2l45 69h139l-107 -140h-156z" />
    <glyph glyph-name="uni0312" unicode="&#x312;" 
d="M-104 691q32 7 53 -10.5t21 -47.5q0 -29 -16 -46.5t-45 -17.5q-37 0 -58 25.5t-21 63.5q0 52 33 86.5t99 40.5v-46q-66 -8 -66 -48z" />
    <glyph glyph-name="uni0326" unicode="&#x326;" 
d="M-96 -169q-32 -7 -53 10.5t-21 45.5q0 27 20 46.5t49 19.5q34 0 52.5 -25t18.5 -64q0 -52 -33 -86.5t-99 -40.5v46q66 8 66 48z" />
    <glyph glyph-name="uni0327" unicode="&#x327;" 
d="M-98 -10l-38 -42v-2q46 5 79 -12.5t33 -54.5q0 -35 -38 -56t-93 -21q-64 0 -112 29l30 35q32 -15 69 -15q16 0 30 7.5t14 21.5q0 27 -38 27q-16 0 -35 -7l-17 24l57 66h59z" />
    <glyph glyph-name="uni0328" unicode="&#x328;" 
d="M-111 -177q-114 0 -114 84q0 60 70 93h101q-18 -15 -25.5 -22t-15 -18t-7.5 -21q0 -22 31 -22q17 0 41 7v-90q-42 -11 -81 -11z" />
    <glyph glyph-name="uni0335" unicode="&#x335;" 
d="M-30 415v-90h-448v90h448z" />
    <glyph glyph-name="uni0336" unicode="&#x336;" 
d="M-30 433v-147h-540v147h540z" />
    <glyph glyph-name="uni0337" unicode="&#x337;" 
d="M-566 30l42 -43l494 495l-43 42z" />
    <glyph glyph-name="uni0338" unicode="&#x338;" 
d="M-566 30l42 -43l494 495l-43 42z" />
    <glyph glyph-name="Wgrave" unicode="&#x1e80;" horiz-adv-x="940" 
d="M488 923l43 -140h-120l-103 140h180zM0 715h180l92 -485h2l111 485h170l111 -485h2l92 485h180l-182 -715h-180l-107 446h-2l-107 -446h-180z" />
    <glyph glyph-name="wgrave" unicode="&#x1e81;" horiz-adv-x="783" 
d="M409 720l43 -140h-120l-103 140h180zM-2 512h160l77 -312h2l84 312h140l84 -312h2l77 312h160l-143 -512h-150l-99 324h-2l-99 -324h-150z" />
    <glyph glyph-name="Wacute" unicode="&#x1e82;" horiz-adv-x="940" 
d="M451 923h180l-103 -140h-120zM0 715h180l92 -485h2l111 485h170l111 -485h2l92 485h180l-182 -715h-180l-107 446h-2l-107 -446h-180z" />
    <glyph glyph-name="wacute" unicode="&#x1e83;" horiz-adv-x="783" 
d="M372 720h180l-103 -140h-120zM-2 512h160l77 -312h2l84 312h140l84 -312h2l77 312h160l-143 -512h-150l-99 324h-2l-99 -324h-150z" />
    <glyph glyph-name="Wdieresis" unicode="&#x1e84;" horiz-adv-x="940" 
d="M286 853q0 32 21 54t56 22t55.5 -22t20.5 -54t-20.5 -54t-55.5 -22q-36 0 -56.5 22t-20.5 54zM501 853q0 32 21 54t56 22t55.5 -22t20.5 -54t-20.5 -54t-55.5 -22q-36 0 -56.5 22t-20.5 54zM0 715h180l92 -485h2l111 485h170l111 -485h2l92 485h180l-182 -715h-180
l-107 446h-2l-107 -446h-180z" />
    <glyph glyph-name="wdieresis" unicode="&#x1e85;" horiz-adv-x="783" 
d="M207 650q0 32 21 54t56 22t55.5 -22t20.5 -54t-20.5 -54t-55.5 -22q-36 0 -56.5 22t-20.5 54zM422 650q0 32 21 54t56 22t55.5 -22t20.5 -54t-20.5 -54t-55.5 -22q-36 0 -56.5 22t-20.5 54zM-2 512h160l77 -312h2l84 312h140l84 -312h2l77 312h160l-143 -512h-150
l-99 324h-2l-99 -324h-150z" />
    <glyph glyph-name="Ygrave" unicode="&#x1ef2;" horiz-adv-x="663" 
d="M350 923l43 -140h-120l-103 140h180zM1 715h190l139 -294h2l140 294h190l-241 -451v-264h-180v264z" />
    <glyph glyph-name="ygrave" unicode="&#x1ef3;" horiz-adv-x="529" 
d="M283 720l43 -140h-120l-103 140h180zM532 512l-174 -522q-33 -97 -75.5 -132t-124.5 -35q-42 0 -89 10v120h2q72 -16 97 21q20 31 -4 100l-167 438h160l116 -336h2l97 336h160z" />
    <glyph glyph-name="endash" unicode="&#x2013;" horiz-adv-x="500" 
d="M0 321h500v-137h-500v137z" />
    <glyph glyph-name="emdash" unicode="&#x2014;" horiz-adv-x="1000" 
d="M100 321h800v-137h-800v137z" />
    <glyph glyph-name="quoteleft" unicode="&#x2018;" horiz-adv-x="251" 
d="M119 560q43 0 69 -22.5t26 -62.5q0 -39 -25 -62t-64 -23q-45 0 -68 31.5t-23 88.5q0 87 45 142t125 66v-70q-37 -5 -61 -31t-24 -57z" />
    <glyph glyph-name="quoteright" unicode="&#x2019;" horiz-adv-x="246" 
d="M127 554q-43 0 -69 22.5t-26 62.5q0 39 25 62t64 23q45 0 68 -31.5t23 -88.5q0 -87 -45 -142t-125 -66v70q37 5 61 31t24 57z" />
    <glyph glyph-name="quotesinglbase" unicode="&#x201a;" horiz-adv-x="246" 
d="M127 -9q-43 0 -69 22.5t-26 62.5q0 39 25 62t64 23q45 0 68 -31.5t23 -88.5q0 -87 -45 -142t-125 -66v70q37 5 61 31t24 57z" />
    <glyph glyph-name="quotedblleft" unicode="&#x201c;" horiz-adv-x="466" 
d="M119 560q43 0 69 -22.5t26 -62.5q0 -39 -25 -62t-64 -23q-45 0 -68 31.5t-23 88.5q0 87 45 142t125 66v-70q-37 -5 -61 -31t-24 -57zM339 560q43 0 69 -22.5t26 -62.5q0 -39 -25 -62t-64 -23q-45 0 -68 31.5t-23 88.5q0 87 45 142t125 66v-70q-37 -5 -61 -31t-24 -57z
" />
    <glyph glyph-name="quotedblright" unicode="&#x201d;" horiz-adv-x="466" 
d="M127 554q-43 0 -69 22.5t-26 62.5q0 39 25 62t64 23q45 0 68 -31.5t23 -88.5q0 -87 -45 -142t-125 -66v70q37 5 61 31t24 57zM347 554q-43 0 -69 22.5t-26 62.5q0 39 25 62t64 23q45 0 68 -31.5t23 -88.5q0 -87 -45 -142t-125 -66v70q37 5 61 31t24 57z" />
    <glyph glyph-name="quotedblbase" unicode="&#x201e;" horiz-adv-x="466" 
d="M127 -9q-43 0 -69 22.5t-26 62.5q0 39 25 62t64 23q45 0 68 -31.5t23 -88.5q0 -87 -45 -142t-125 -66v70q37 5 61 31t24 57zM347 -9q-43 0 -69 22.5t-26 62.5q0 39 25 62t64 23q45 0 68 -31.5t23 -88.5q0 -87 -45 -142t-125 -66v70q37 5 61 31t24 57z" />
    <glyph glyph-name="dagger" unicode="&#x2020;" horiz-adv-x="589" 
d="M210 375h-176v137h176v203h170v-203h175v-137h-175v-552h-170v552z" />
    <glyph glyph-name="daggerdbl" unicode="&#x2021;" horiz-adv-x="590" 
d="M210 55h-176v137h176v183h-176v137h176v203h170v-203h175v-137h-175v-183h175v-137h-175v-232h-170v232z" />
    <glyph glyph-name="bullet" unicode="&#x2022;" horiz-adv-x="374" 
d="M187 170q-67 0 -108.5 43.5t-41.5 106.5t41.5 106.5t108.5 43.5t108.5 -43.5t41.5 -106.5t-41.5 -106.5t-108.5 -43.5z" />
    <glyph glyph-name="ellipsis" unicode="&#x2026;" horiz-adv-x="654" 
d="M117 -9q-37 0 -61 23.5t-24 61.5t24 61.5t61 23.5q36 0 60.5 -23.5t24.5 -61.5t-24.5 -61.5t-60.5 -23.5zM327 -9q-37 0 -61 23.5t-24 61.5t24 61.5t61 23.5q36 0 60.5 -23.5t24.5 -61.5t-24.5 -61.5t-60.5 -23.5zM537 -9q-37 0 -61 23.5t-24 61.5t24 61.5t61 23.5
q36 0 60.5 -23.5t24.5 -61.5t-24.5 -61.5t-60.5 -23.5z" />
    <glyph glyph-name="perthousand" unicode="&#x2030;" horiz-adv-x="1275" 
d="M204 306q-89 0 -136.5 57t-47.5 143q0 87 47.5 144t136.5 57q90 0 136.5 -57t46.5 -144t-46.5 -143.5t-136.5 -56.5zM666 691l-363 -691h-100l363 691h100zM204 396q30 0 41.5 25.5t11.5 84.5t-11.5 85t-41.5 26t-42 -26t-12 -85t12 -84.5t42 -25.5zM666 -16
q-89 0 -136.5 57t-47.5 143q0 87 47.5 144t136.5 57q90 0 136.5 -57t46.5 -144t-46.5 -143.5t-136.5 -56.5zM1073 -16q-89 0 -136.5 57t-47.5 143q0 87 47.5 144t136.5 57q90 0 136.5 -57t46.5 -144t-46.5 -143.5t-136.5 -56.5zM666 74q30 0 41.5 25.5t11.5 84.5t-11.5 85
t-41.5 26t-42 -26t-12 -85t12 -84.5t42 -25.5zM1073 74q30 0 41.5 25.5t11.5 84.5t-11.5 85t-41.5 26t-42 -26t-12 -85t12 -84.5t42 -25.5z" />
    <glyph glyph-name="guilsinglleft" unicode="&#x2039;" horiz-adv-x="265" 
d="M44 177v150l170 144v-150l-85 -68v-2l85 -68v-150z" />
    <glyph glyph-name="guilsinglright" unicode="&#x203a;" horiz-adv-x="265" 
d="M221 177l-170 -144v150l85 68v2l-85 68v150l170 -144v-150z" />
    <glyph glyph-name="fraction" unicode="&#x2044;" horiz-adv-x="281" 
d="M352 715h110l-533 -715h-110z" />
    <glyph glyph-name="Euro" unicode="&#x20ac;" horiz-adv-x="686" 
d="M375 121q57 0 82.5 34t28.5 98h170q-5 -124 -74 -196.5t-203 -72.5t-205.5 71.5t-90.5 193.5h-53v60h47q-1 11 -1 34v24h-46v60h51q17 126 89 200t209 74q133 0 202 -72t75 -195h-170q-4 63 -29.5 96.5t-81.5 33.5q-105 0 -124 -137h159v-60h-164v-24q0 -23 1 -34h163
v-60h-158q22 -128 123 -128z" />
    <glyph glyph-name="trademark" unicode="&#x2122;" horiz-adv-x="719" 
d="M109 625h-78v90h246v-90h-78v-185h-90v185zM314 715h121l53 -145h2l54 145h122v-275h-92v175h-2l-51 -175h-65l-50 175h-2v-175h-90v275z" />
    <glyph glyph-name="arrowleft" unicode="&#x2190;" horiz-adv-x="751" 
d="M317 10l-287 310l287 310l77 -79l-160 -171h487v-120h-487l160 -171z" />
    <glyph glyph-name="arrowup" unicode="&#x2191;" horiz-adv-x="680" 
d="M650 404l-79 -77l-171 160v-487h-120v487l-171 -160l-79 77l310 287z" />
    <glyph glyph-name="arrowright" unicode="&#x2192;" horiz-adv-x="751" 
d="M434 10l-77 79l160 171h-487v120h487l-160 171l77 79l287 -310z" />
    <glyph glyph-name="arrowdown" unicode="&#x2193;" horiz-adv-x="680" 
d="M650 247l-310 -287l-310 287l79 77l171 -160v487h120v-487l171 160z" />
    <glyph glyph-name="arrowboth" unicode="&#x2194;" horiz-adv-x="1140" 
d="M823 630l287 -310l-286 -310l-77 79l160 171h-673l160 -171l-77 -80l-287 310l287 311l77 -79l-160 -171h672l-159 171z" />
    <glyph glyph-name="arrowupdn" unicode="&#x2195;" horiz-adv-x="680" 
d="M400 27l171 160l79 -77l-310 -287l-310 287l79 77l171 -160v555l-171 -160l-79 77l310 287l310 -287l-79 -77l-171 160v-555z" />
    <glyph glyph-name="uni2196" unicode="&#x2196;" horiz-adv-x="584" 
d="M6 179l17 422l422 16l-2 -110l-234 -8l345 -344l-85 -85l-344 344l-8 -234z" />
    <glyph glyph-name="uni2197" unicode="&#x2197;" horiz-adv-x="608" 
d="M578 179l-111 1l-8 234l-344 -344l-85 85l345 344l-234 8l-2 110l422 -16z" />
    <glyph glyph-name="uni2198" unicode="&#x2198;" horiz-adv-x="584" 
d="M578 465l-17 -422l-422 -16l2 110l234 8l-345 344l85 85l344 -344l8 234z" />
    <glyph glyph-name="uni2199" unicode="&#x2199;" horiz-adv-x="584" 
d="M6 465l111 -1l8 -234l344 344l85 -85l-345 -344l234 -8l2 -110l-422 16z" />
    <glyph glyph-name="partialdiff" unicode="&#x2202;" horiz-adv-x="580" 
d="M386 408v2q-17 78 -74 123t-152 45v137q103 0 180.5 -31t124 -86.5t69 -126t22.5 -155.5q0 -63 -15.5 -120t-47.5 -105.5t-89.5 -77.5t-134.5 -29q-114 0 -181.5 63t-67.5 170q0 101 65 177.5t156 76.5q96 0 145 -63zM273 111q54 0 83.5 37t29.5 90q0 45 -23.5 75.5
t-69.5 30.5q-53 0 -83 -36.5t-30 -89.5q0 -46 23.5 -76.5t69.5 -30.5z" />
    <glyph glyph-name="emptyset" unicode="&#x2205;" horiz-adv-x="797" 
d="M684 581q83 -99 83 -236q0 -158 -105.5 -259.5t-262.5 -101.5q-134 0 -235 77l-65 -65l-50 50l64 64q-83 97 -83 235q0 158 106 260t263 102q135 0 234 -77l65 65l50 -50zM100 345q0 -106 63 -185l419 419q-78 58 -183 58q-127 0 -213 -82t-86 -210zM399 54
q126 0 212 81.5t86 209.5q0 107 -63 186l-419 -419q78 -58 184 -58z" />
    <glyph glyph-name="product" unicode="&#x220f;" horiz-adv-x="719" 
d="M53 715h613v-815h-170v678h-273v-678h-170v815z" />
    <glyph glyph-name="summation" unicode="&#x2211;" horiz-adv-x="611" 
d="M32 40l252 275v2l-252 259v139h540v-137h-341v-2l223 -222v-70l-230 -245v-2h358v-137h-550v140z" />
    <glyph glyph-name="minus" unicode="&#x2212;" horiz-adv-x="566" 
d="M40 395h486v-137h-486v137z" />
    <glyph glyph-name="radical" unicode="&#x221a;" horiz-adv-x="652" 
d="M14 364h187l96 -262h2l176 613h170l-267 -815h-160l-127 327h-77v137z" />
    <glyph glyph-name="infinity" unicode="&#x221e;" horiz-adv-x="725" 
d="M22 305q0 90 50 138t121 48q98 0 169 -85h2q71 85 168 85q71 0 121 -48t50 -138q0 -89 -50 -137.5t-121 -48.5q-87 0 -168 97h-2q-81 -97 -169 -97q-71 0 -121 48.5t-50 137.5zM200 229q22 0 43.5 12.5t33 25.5t31.5 38q-20 25 -31.5 38t-33 25.5t-43.5 12.5
q-34 0 -51 -22t-17 -54t17 -54t51 -22zM525 229q34 0 51 22t17 54t-17 54t-51 22q-22 0 -43.5 -12.5t-33 -25.5t-31.5 -38q20 -25 31.5 -38t33 -25.5t43.5 -12.5z" />
    <glyph glyph-name="integral" unicode="&#x222b;" horiz-adv-x="366" 
d="M269 0q0 -89 -37.5 -133t-122.5 -44q-66 0 -114 10v120q32 0 46 1.5t30.5 8.5t22 24t5.5 46v531q0 89 37.5 133t122.5 44q66 0 114 -10v-120q-32 0 -46 -1.5t-30.5 -8.5t-22 -24t-5.5 -46v-531z" />
    <glyph glyph-name="approxequal" unicode="&#x2248;" horiz-adv-x="546" 
d="M401 327q-37 0 -121.5 22.5t-104.5 22.5q-41 0 -41 -45h-100q0 175 119 175q37 0 121.5 -22.5t104.5 -22.5q41 0 41 45h100q0 -175 -119 -175zM401 112q-37 0 -121.5 22.5t-104.5 22.5q-41 0 -41 -45h-100q0 175 119 175q37 0 121.5 -22.5t104.5 -22.5q41 0 41 45h100
q0 -175 -119 -175z" />
    <glyph glyph-name="notequal" unicode="&#x2260;" horiz-adv-x="563" 
d="M519 347h-166l-36 -75h202v-137h-267l-36 -77h-100l36 77h-101v137h166l36 75h-202v137h267l37 79h100l-37 -79h101v-137z" />
    <glyph glyph-name="lessequal" unicode="&#x2264;" horiz-adv-x="519" 
d="M455 130l-412 138v150l412 138v-137l-277 -75v-2l277 -75v-137zM455 113v-120h-412v120h412z" />
    <glyph glyph-name="greaterequal" unicode="&#x2265;" horiz-adv-x="502" 
d="M47 130v137l277 75v2l-277 75v137l412 -138v-150zM47 113h412v-120h-412v120z" />
    <glyph glyph-name="lozenge" unicode="&#x25ca;" horiz-adv-x="596" 
d="M16 357l201 358h161l202 -358l-201 -357h-161zM300 137l110 220l-112 221h-2l-110 -221l112 -220h2z" />
    <glyph glyph-name="i.loclTRK" horiz-adv-x="220" 
d="M33 650q0 32 21 54t56 22t55.5 -22t20.5 -54t-20.5 -54t-55.5 -22q-36 0 -56.5 22t-20.5 54zM30 512h160v-512h-160v512z" />
    <glyph glyph-name="logo" horiz-adv-x="938" 
d="M793 344q46 0 80.5 -38t34.5 -96q0 -65 -39 -101t-85 -36q-33 0 -63 19q19 -27 19 -63q0 -46 -36 -85t-101 -39q-58 0 -96 34.5t-38 80.5q0 -46 -38 -80.5t-96 -34.5q-65 0 -101 39t-36 85q0 36 19 63q-30 -19 -63 -19q-46 0 -85 36t-39 101q0 58 34.5 96t80.5 38
q-46 0 -80.5 38t-34.5 96q0 65 39 101t85 36q33 0 63 -19q-19 27 -19 63q0 46 36 85t101 39q58 0 96 -34.5t38 -80.5q0 46 38 80.5t96 34.5q65 0 101 -39t36 -85q0 -36 -19 -63q30 19 63 19q46 0 85 -36t39 -101q0 -58 -34.5 -96t-80.5 -38zM120 473q0 -74 101 -74h123
q39 0 54.5 15.5t15.5 54.5v123q0 101 -74 101q-62 0 -62 -61q0 -31 16 -52h8q29 0 50 -20.5t21 -48.5q0 -29 -21 -50t-50 -21t-49 20t-20 51v8q-21 16 -52 16q-27 0 -44 -17.5t-17 -44.5zM524 592v-123q0 -39 15.5 -54.5t54.5 -15.5h123q101 0 101 74q0 27 -17 44.5
t-44 17.5q-31 0 -52 -16v-8q0 -31 -20 -51t-49 -20t-50 21t-21 50q0 28 21 48.5t50 20.5h8q16 21 16 52q0 61 -62 61q-74 0 -74 -101zM414 96v123q0 39 -15.5 54.5t-54.5 15.5h-123q-101 0 -101 -74q0 -27 17 -44.5t44 -17.5q31 0 52 16v8q0 31 20 51t49 20t50 -21t21 -50
q0 -28 -21 -48.5t-50 -20.5h-8q-16 -21 -16 -52q0 -61 62 -61q74 0 74 101zM757 153q27 0 44 17.5t17 44.5q0 74 -101 74h-123q-39 0 -54.5 -15.5t-15.5 -54.5v-123q0 -101 74 -101q62 0 62 61q0 31 -16 52h-8q-29 0 -50 20.5t-21 48.5q0 29 21 50t50 21t49 -20t20 -51v-8
q21 -16 52 -16z" />
    <glyph glyph-name="logo_petal" horiz-adv-x="474" 
d="M320 563q46 0 85 -36t39 -101q0 -58 -34.5 -96t-80.5 -38h-324v324q0 46 38 80.5t96 34.5q65 0 101 -39t36 -85q0 -36 -19 -63q30 19 63 19zM253 347q101 0 101 74q0 27 -17 44.5t-44 17.5q-31 0 -52 -16v-8q0 -31 -20 -51t-49 -20t-50 21t-21 50q0 28 21 48.5t50 20.5h8
q16 21 16 52q0 61 -62 61q-74 0 -74 -101v-123q0 -39 15.5 -54.5t54.5 -15.5h123z" />
    </font>
</defs>
</svg>
