<?xml version="1.0" standalone="no"?>
<!DOCTYPE svg PUBLIC "-//W3C//DTD SVG 1.1//EN" "http://www.w3.org/Graphics/SVG/1.1/DTD/svg11.dtd" >
<svg xmlns="http://www.w3.org/2000/svg" xmlns:xlink="http://www.w3.org/1999/xlink" version="1.1">
<metadata>
Created by FontForge 20170731 at Mon Apr  2 15:12:33 2018
 By Aleksey,,,
Pangram Pangram Foundry
</metadata>
<defs>
<font id="NeueMontreal-BoldItalic" horiz-adv-x="0" >
  <font-face 
    font-family="Neue Montreal Bold"
    font-weight="700"
    font-style="italic"
    font-stretch="normal"
    units-per-em="1000"
    panose-1="0 0 8 0 0 0 0 0 0 0"
    ascent="770"
    descent="-230"
    x-height="512"
    cap-height="715"
    bbox="-610 -263 1238.79 972"
    underline-thickness="50"
    underline-position="-200"
    slope="-11"
    unicode-range="U+0020-25CA"
  />
<missing-glyph horiz-adv-x="500" 
d="M410 770v-1000h-317v1000h317zM333 703h-165v-33h65v-37h-66v-33h166v33h-66v37h66v33zM267 574h-100v-104h166v34h-66v70zM233 540v-36h-33v36h33zM333 443h-166v-33h66v-37h-66v-33h100v70h66v33zM333 383h-33v-66h-133v-34h166v100zM333 261h-100v-56h34v23h33v-47
h-100v80h-33v-113h166v113zM333 88h-166v-113h166v113zM300 55v-47h-100v47h100zM333 -48h-166v-33h70l-70 -47v-33h166v33h-102l70 47h32v33z" />
    <glyph glyph-name=".notdef" horiz-adv-x="500" 
d="M410 770v-1000h-317v1000h317zM333 703h-165v-33h65v-37h-66v-33h166v33h-66v37h66v33zM267 574h-100v-104h166v34h-66v70zM233 540v-36h-33v36h33zM333 443h-166v-33h66v-37h-66v-33h100v70h66v33zM333 383h-33v-66h-133v-34h166v100zM333 261h-100v-56h34v23h33v-47
h-100v80h-33v-113h166v113zM333 88h-166v-113h166v113zM300 55v-47h-100v47h100zM333 -48h-166v-33h70l-70 -47v-33h166v33h-102l70 47h32v33z" />
    <glyph glyph-name=".null" 
 />
    <glyph glyph-name="nonmarkingreturn" horiz-adv-x="333" 
 />
    <glyph glyph-name="space" unicode=" " horiz-adv-x="170" 
 />
    <glyph glyph-name="exclam" unicode="!" horiz-adv-x="262" 
d="M135 715h170l-29 -156l-109 -325h-80l19 325zM88 -9q-40 0 -62 26t-14 68q7 34 32 55t58 21q40 0 62 -26.5t14 -67.5q-7 -34 -32.5 -55t-57.5 -21z" />
    <glyph glyph-name="quotedbl" unicode="&#x22;" horiz-adv-x="419" 
d="M127 715h140l-73 -269h-100zM327 715h140l-73 -269h-100z" />
    <glyph glyph-name="numbersign" unicode="#" horiz-adv-x="615" 
d="M587 392h-71l-49 -123h70l-48 -120h-72l-61 -149h-122l61 149h-90l-61 -149h-122l61 149h-75l49 120h76l49 123h-76l50 120h76l73 179h122l-73 -179h90l73 179h122l-73 -179h71zM345 269l49 123h-90l-49 -123h90z" />
    <glyph glyph-name="dollar" unicode="$" horiz-adv-x="609" 
d="M572 171q-11 -87 -90 -135t-197 -52l-15 -87h-60l16 89q-101 9 -158 72.5t-65 162.5h168q5 -51 24 -70t53 -27l31 152q-239 62 -203 246q17 85 90.5 129.5t188.5 49.5l16 59h60l-17 -61q103 -10 154 -67t51 -150h-167q3 56 -59 77l-30 -137q56 -19 93.5 -38.5t68 -48.5
t42.5 -69.5t5 -94.5zM245 508q-8 -45 62 -69l27 124q-78 -5 -89 -55zM308 121q84 5 95 56q6 31 -11.5 49t-56.5 32z" />
    <glyph glyph-name="percent" unicode="%" horiz-adv-x="857" 
d="M217 306q-93 0 -132 59.5t-22 149.5q17 84 71.5 138t140.5 54q94 0 132 -59.5t20 -150.5q-16 -83 -70 -137t-140 -54zM745 691l-497 -691h-104l498 691h103zM224 396q32 0 48 25.5t27 83.5q11 61 3 86.5t-35 25.5q-32 0 -48.5 -26t-27.5 -84q-11 -61 -3 -86t36 -25z
M616 -16q-93 0 -131.5 59.5t-21.5 149.5q16 83 70.5 137.5t140.5 54.5q94 0 132 -59.5t20 -150.5q-16 -83 -70 -137t-140 -54zM624 74q32 0 47 25t27 84q12 61 4 86.5t-35 25.5q-32 0 -48.5 -26t-27.5 -84q-22 -111 33 -111z" />
    <glyph glyph-name="ampersand" unicode="&#x26;" horiz-adv-x="689" 
d="M640 0h-196l-23 38q-93 -54 -198 -54q-123 0 -179 56t-39 145q8 38 25.5 68.5t47.5 54.5t56 39.5t68 35.5q-14 23 -16.5 27.5t-13.5 24.5t-13 29t-6 26.5t-3.5 33.5t4.5 34q14 69 78.5 120.5t159.5 52.5q99 1 150.5 -57t37.5 -134q-10 -55 -53 -94t-128 -79l73 -107
q34 38 53 94h142q-32 -114 -121 -212zM386 594q-35 0 -58.5 -18.5t-29.5 -45.5q-3 -18 5.5 -35.5t31.5 -48.5q87 52 97 102q4 20 -6.5 33t-39.5 13zM250 121q48 0 99 24l-93 152q-68 -43 -78 -98q-6 -34 11.5 -56t60.5 -22z" />
    <glyph glyph-name="quotesingle" unicode="'" horiz-adv-x="219" 
d="M129 715h140l-73 -269h-100z" />
    <glyph glyph-name="parenleft" unicode="(" horiz-adv-x="326" 
d="M276 774l143 -8q-143 -228 -188 -458q-45 -234 8 -449l-134 8q-23 55 -37.5 123t-18 157t15.5 179q24 127 83 245.5t128 202.5z" />
    <glyph glyph-name="parenright" unicode=")" horiz-adv-x="333" 
d="M250 766q24 -55 38 -121t17.5 -155.5t-15.5 -181.5q-24 -123 -83.5 -244t-127.5 -205l-144 8q144 226 189 459q45 229 -8 448z" />
    <glyph glyph-name="asterisk" unicode="*" horiz-adv-x="428" 
d="M455 542l-118 -29l54 -96l-89 -59l-46 101l-86 -101l-73 59l88 96l-104 29l48 95l100 -44l24 122h100l-24 -122l113 44z" />
    <glyph glyph-name="plus" unicode="+" horiz-adv-x="564" 
d="M213 260h-174l27 138h174l35 181h138l-35 -181h174l-27 -138h-174l-35 -181h-138z" />
    <glyph glyph-name="comma" unicode="," horiz-adv-x="243" 
d="M80 -5q-44 -3 -67.5 22t-14.5 68q7 36 33 56t61 20q49 0 68 -34.5t7 -94.5q-16 -84 -69 -137t-134 -63l4 72q37 5 69.5 32t42.5 59z" />
    <glyph glyph-name="hyphen" unicode="-" horiz-adv-x="334" 
d="M43 321h272l-27 -137h-272z" />
    <glyph glyph-name="period" unicode="." horiz-adv-x="233" 
d="M74 -9q-40 0 -62 26t-14 68q7 34 32 55t58 21q40 0 62 -26.5t14 -67.5q-7 -34 -32.5 -55t-57.5 -21z" />
    <glyph glyph-name="slash" unicode="/" horiz-adv-x="436" 
d="M524 715l-416 -715h-133l416 715h133z" />
    <glyph glyph-name="zero" unicode="0" horiz-adv-x="646" 
d="M280 -16q-77 0 -132.5 29.5t-82.5 80t-35.5 118t8.5 142.5q30 153 124.5 253t238.5 100q77 0 132.5 -29.5t82 -80.5t35 -118.5t-8.5 -142.5q-30 -153 -124 -252.5t-238 -99.5zM287 121q144 0 188 233q23 99 5 157.5t-86 58.5q-145 0 -189 -234q-23 -99 -4.5 -157
t86.5 -58z" />
    <glyph glyph-name="one" unicode="1" horiz-adv-x="395" 
d="M277 695h140l-135 -695h-170l94 464q-22 -18 -52.5 -27t-45.5 -9.5t-54 -0.5l14 120q92 0 144.5 43t64.5 105z" />
    <glyph glyph-name="two" unicode="2" horiz-adv-x="584" 
d="M598 488q-10 -50 -39 -94.5t-71.5 -80.5t-83.5 -64t-89.5 -59.5t-73.5 -52.5h289l-27 -137l-531 4q15 78 56.5 134t103.5 105q34 23 84.5 54.5t80 50.5t61.5 44t49 49.5t22 52.5q7 35 -12 55.5t-57 20.5q-108 0 -134 -127h-159q25 125 103.5 194.5t211.5 69.5
q117 0 176.5 -58.5t39.5 -160.5z" />
    <glyph glyph-name="three" unicode="3" horiz-adv-x="595" 
d="M238 483h-158q20 101 100 162.5t199 61.5q113 0 179.5 -53.5t48.5 -145.5q-19 -94 -122 -144l-11 -1q118 -40 90 -178q-18 -96 -98.5 -148.5t-194.5 -52.5q-148 0 -214.5 68t-41.5 188h158q-24 -119 103 -119q108 0 122 82q8 47 -18 70t-86 23h-40l23 117h26
q114 0 132 85q7 33 -14.5 52.5t-61.5 19.5q-45 0 -78.5 -22.5t-42.5 -64.5z" />
    <glyph glyph-name="four" unicode="4" horiz-adv-x="622" 
d="M452 0h-170l29 146h-313l30 167l387 378h172l-80 -408h102l-26 -137h-102zM382 498l-221 -215h176z" />
    <glyph glyph-name="five" unicode="5" horiz-adv-x="597" 
d="M606 554h-320l-50 -127q65 42 144 42q107 0 160.5 -70t31.5 -184q-22 -115 -105 -173t-201 -58q-144 0 -211.5 63t-50.5 163h167q-3 -39 23.5 -64t75.5 -25q114 0 136 117q10 51 -12.5 82.5t-78.5 31.5q-74 0 -113 -54h-163l156 393h438z" />
    <glyph glyph-name="six" unicode="6" horiz-adv-x="608" 
d="M387 471q109 0 165 -69.5t36 -173.5q-22 -111 -105.5 -177.5t-203.5 -66.5q-68 0 -118 20t-78 54t-43.5 80t-13.5 98.5t11 108.5q35 179 129.5 270.5t227.5 91.5q102 0 164.5 -54t63.5 -133h-167q0 24 -15 42t-54 18q-64 0 -106 -45.5t-59 -120.5q73 57 166 57zM429 227
q10 48 -16.5 82.5t-83.5 34.5q-54 0 -95 -31.5t-51 -83.5q-10 -49 17 -83.5t84 -34.5q53 0 94 31.5t51 84.5z" />
    <glyph glyph-name="seven" unicode="7" horiz-adv-x="544" 
d="M102 691h506l-21 -130q-128 -90 -212.5 -241t-118.5 -320h-178q32 166 121.5 320t197.5 234h-322z" />
    <glyph glyph-name="eight" unicode="8" horiz-adv-x="603" 
d="M7 207q23 111 157 167l11 2q-94 55 -75 153q16 83 95 130.5t186 47.5q114 0 179.5 -53t48.5 -143q-18 -87 -122 -139l-10 -2q122 -60 99 -181q-13 -66 -60 -113.5t-112.5 -69.5t-143.5 -22q-128 0 -200.5 58.5t-52.5 164.5zM335 419q52 0 83.5 25t38.5 60q8 38 -16.5 62
t-72.5 24q-52 0 -84 -25t-39 -58q-8 -40 16.5 -64t73.5 -24zM275 111q55 0 91.5 30t44.5 72q8 44 -19 73t-78 29q-55 0 -91.5 -30t-43.5 -70q-9 -46 18 -75t78 -29z" />
    <glyph glyph-name="nine" unicode="9" horiz-adv-x="614" 
d="M369 707q68 0 118 -20t78 -54t43.5 -80t13.5 -98.5t-11 -108.5q-35 -179 -129.5 -270.5t-227.5 -91.5q-102 0 -164.5 54t-63.5 133h167q0 -24 15 -42t54 -18q64 0 106 45.5t59 120.5q-73 -57 -166 -57q-109 0 -165 69.5t-36 173.5q22 111 105.5 177.5t203.5 66.5z
M465 462q10 49 -17 83.5t-84 34.5q-53 0 -94 -31.5t-51 -84.5q-10 -48 16.5 -82.5t83.5 -34.5q54 0 95 31.5t51 83.5z" />
    <glyph glyph-name="colon" unicode=":" horiz-adv-x="238" 
d="M137 301q-41 0 -63 26t-14 68q7 34 32 55t58 21q40 0 62 -26.5t15 -67.5q-7 -35 -32.5 -55.5t-57.5 -20.5zM76 -9q-40 0 -62 26t-14 68q7 34 32 55t58 21q40 0 62 -26.5t14 -67.5q-7 -34 -32.5 -55t-57.5 -21z" />
    <glyph glyph-name="semicolon" unicode=";" horiz-adv-x="248" 
d="M142 301q-41 0 -63 26t-14 68q7 34 32 55t58 21q40 0 62 -26.5t15 -67.5q-7 -35 -32.5 -55.5t-57.5 -20.5zM82 -5q-44 -3 -67.5 22t-14.5 68q7 36 33 56t61 20q49 0 68 -34.5t7 -94.5q-16 -84 -69 -137t-134 -63l4 72q37 5 69.5 32t42.5 59z" />
    <glyph glyph-name="less" unicode="&#x3c;" horiz-adv-x="500" 
d="M419 62l-379 172l28 150l446 172l-26 -137l-300 -109l2 -2l254 -109z" />
    <glyph glyph-name="equal" unicode="=" horiz-adv-x="560" 
d="M90 484h468l-26 -137h-468zM49 272h468l-27 -137h-468z" />
    <glyph glyph-name="greater" unicode="&#x3e;" horiz-adv-x="500" 
d="M8 62l25 137l300 109l-2 2l-254 109l26 137l378 -172l-28 -150z" />
    <glyph glyph-name="question" unicode="?" horiz-adv-x="546" 
d="M224 497h-168q8 105 89 169.5t215 64.5q107 0 169.5 -61t50.5 -152q-7 -53 -42 -85.5t-100 -58.5q-64 -25 -86.5 -53.5t-34.5 -82.5h-128q0 31 0.5 45t4.5 37.5t12.5 37.5t25 31.5t41.5 33.5q18 12 57 31t57 35t23 39q5 28 -17 47t-59 19q-45 0 -74 -25t-36 -72zM235 -9
q-40 0 -62 26t-14 68q7 34 32 55t58 21q40 0 62 -26.5t14 -67.5q-7 -34 -32.5 -55t-57.5 -21z" />
    <glyph glyph-name="at" unicode="@" horiz-adv-x="898" 
d="M644 79q-54 0 -99.5 23.5t-58.5 61.5l-4 -8q-45 -73 -124 -73q-71 0 -108 59t-17 162q19 97 79 155t131 58q81 0 102 -71l4 4l19 60h138l-82 -255q-14 -51 -7 -68.5t34 -17.5q49 0 84 40t50 120q24 124 -38.5 210t-205.5 86q-142 0 -256 -96.5t-141 -234.5
q-28 -145 35.5 -228.5t206.5 -83.5q98 0 189 34l27 -83q-84 -41 -214 -41q-199 0 -293 114.5t-57 305.5q33 169 175 286t325 117q81 0 146 -21.5t106.5 -58.5t68 -88t30 -110t-6.5 -123q-46 -235 -238 -235zM395 193q93 0 117 131q9 41 1 62t-37 21q-39 0 -70 -34.5
t-43 -96.5q-17 -83 32 -83z" />
    <glyph glyph-name="A" unicode="A" horiz-adv-x="692" 
d="M450 149h-245l-75 -149h-183l398 715h180l119 -715h-177zM272 286h164l-30 264h-2z" />
    <glyph glyph-name="B" unicode="B" horiz-adv-x="662" 
d="M673 526q-21 -108 -133 -144l-11 -2q60 -11 92.5 -55t17.5 -123q-40 -202 -280 -202h-362l139 715h342q113 0 163.5 -47.5t31.5 -141.5zM260 426h119q95 0 111 80q7 37 -11.5 49.5t-61.5 12.5h-129zM239 316l-33 -169h124q59 0 92.5 21t43.5 73q9 45 -12.5 60t-80.5 15
h-134z" />
    <glyph glyph-name="C" unicode="C" horiz-adv-x="689" 
d="M537 445q2 70 -21.5 104.5t-87.5 34.5q-169 0 -215 -235q-20 -105 3 -161.5t104 -56.5q130 0 180 133h180q-38 -130 -130 -205t-231 -75q-169 0 -242 106t-40 277q31 163 138.5 263.5t268.5 100.5q145 0 213.5 -78t56.5 -208h-177z" />
    <glyph glyph-name="D" unicode="D" horiz-adv-x="697" 
d="M-3 0l139 715h312q151 0 218.5 -96t34.5 -271q-33 -169 -128 -258.5t-244 -89.5h-332zM288 568l-82 -421h114q82 0 133 57.5t71 161.5q20 98 -5.5 150t-106.5 52h-124z" />
    <glyph glyph-name="E" unicode="E" horiz-adv-x="625" 
d="M263 441h312l-29 -147h-312l-28 -147h368l-29 -147h-548l139 715h542l-28 -147h-362z" />
    <glyph glyph-name="F" unicode="F" horiz-adv-x="600" 
d="M257 411h287l-28 -147h-287l-52 -264h-180l139 715h532l-28 -147h-352z" />
    <glyph glyph-name="G" unicode="G" horiz-adv-x="727" 
d="M548 482q-6 102 -116 102q-89 0 -143.5 -62.5t-75.5 -172.5q-42 -218 118 -218q65 0 115 35.5t62 87.5l-137 -4l25 130h322l-74 -380h-128v91l-2 -4q-73 -103 -218 -103q-153 0 -222.5 107t-36.5 276q31 163 138.5 263.5t267.5 100.5q144 0 216.5 -74t65.5 -183z" />
    <glyph glyph-name="H" unicode="H" horiz-adv-x="700" 
d="M136 715h180l-54 -280h245l54 280h180l-139 -715h-180l56 288h-245l-56 -288h-180z" />
    <glyph glyph-name="I" unicode="I" horiz-adv-x="277" 
d="M137 715h180l-139 -715h-180z" />
    <glyph glyph-name="J" unicode="J" horiz-adv-x="541" 
d="M495 234q-11 -56 -29.5 -98t-50.5 -78t-83.5 -55t-120.5 -19q-254 0 -205 258l11 56h160l-12 -64q-12 -51 -3 -77t48 -26q85 0 106 111l92 473h180z" />
    <glyph glyph-name="K" unicode="K" horiz-adv-x="689" 
d="M136 715h180l-58 -290l305 290h214l-335 -315l202 -400h-206l-132 271l-90 -82l-39 -189h-180z" />
    <glyph glyph-name="L" unicode="L" horiz-adv-x="560" 
d="M136 715h180l-110 -568h318l-29 -147h-498z" />
    <glyph glyph-name="M" unicode="M" horiz-adv-x="834" 
d="M-3 0l139 715h219l58 -456h2l236 456h221l-139 -715h-170l87 445h-1l-219 -445h-126l-47 445h-3l-87 -445h-170z" />
    <glyph glyph-name="N" unicode="N" horiz-adv-x="707" 
d="M-3 0l139 715h178l168 -425h4l82 425h180l-139 -715h-178l-167 425h-4l-83 -425h-180z" />
    <glyph glyph-name="O" unicode="O" horiz-adv-x="737" 
d="M326 -16q-170 0 -246 106.5t-43 276.5q31 162 141.5 263t272.5 101q169 0 246 -106.5t44 -275.5q-32 -162 -143 -263.5t-272 -101.5zM335 131q95 0 152 65t78 171q42 217 -122 217q-96 0 -153 -64.5t-77 -170.5q-42 -218 122 -218z" />
    <glyph glyph-name="P" unicode="P" horiz-adv-x="650" 
d="M-3 0l139 715h342q114 0 168.5 -61.5t32.5 -175.5q-21 -107 -93.5 -163t-185.5 -56h-172l-51 -259h-180zM288 568l-32 -162h124q105 0 123 90q7 40 -13 56t-68 16h-134z" />
    <glyph glyph-name="Q" unicode="Q" horiz-adv-x="719" 
d="M680 39l-112 -97l-67 81q-83 -39 -180 -39q-170 0 -246 106.5t-43 276.5q31 162 141.5 263t272.5 101q169 0 246 -106.5t44 -275.5q-29 -146 -117 -238zM330 131q39 0 72 11l-67 86l112 97l70 -80q28 50 43 122q42 217 -122 217q-96 0 -153 -64.5t-77 -170.5
q-42 -218 122 -218z" />
    <glyph glyph-name="R" unicode="R" horiz-adv-x="648" 
d="M-3 0l139 715h332q121 0 179.5 -56.5t38.5 -160.5q-27 -135 -171 -167l-12 -2q41 -7 64.5 -33.5t28 -60.5t4.5 -73t-7 -71.5t-5.5 -55.5t8.5 -26l3 -9l-182 3q-10 11 -4.5 37.5t9.5 62.5t4.5 68.5t-20 55t-63.5 22.5h-117l-49 -249h-180zM288 568l-34 -172h117
q115 0 134 95q7 41 -14.5 59t-75.5 18h-127z" />
    <glyph glyph-name="S" unicode="S" horiz-adv-x="629" 
d="M364 441h1l1 -1h1l1 -1h1h1l1 -1h2q118 -46 159 -77q77 -58 69 -170q-7 -99 -85 -153t-210 -54q-143 0 -224.5 66.5t-81.5 180.5h178q0 -53 39 -76.5t99 -23.5q99 0 106 66q2 17 -3.5 29.5t-22.5 22t-30.5 15t-45 15.5t-49.5 17q-106 38 -157 90.5t-38 146.5
q14 100 94.5 149t200.5 49q128 0 202.5 -62.5t74.5 -166.5h-177q1 39 -28.5 60.5t-79.5 21.5q-102 0 -109 -56q-4 -28 20 -45t90 -42z" />
    <glyph glyph-name="T" unicode="T" horiz-adv-x="624" 
d="M172 0l111 568h-208l28 147h595l-28 -147h-207l-111 -568h-180z" />
    <glyph glyph-name="U" unicode="U" horiz-adv-x="684" 
d="M640 254q-27 -137 -107.5 -203.5t-234.5 -66.5q-161 0 -221 70t-34 208l88 453h180l-89 -461q-14 -68 7 -95.5t78 -27.5q129 0 154 131l88 453h180z" />
    <glyph glyph-name="V" unicode="V" horiz-adv-x="650" 
d="M87 715h188l38 -501h2l233 501h193l-371 -715h-190z" />
    <glyph glyph-name="W" unicode="W" horiz-adv-x="943" 
d="M88 715h178l-2 -485h2l205 485h170l17 -485h2l186 485h182l-321 -715h-180l-20 446h-2l-194 -446h-180z" />
    <glyph glyph-name="X" unicode="X" horiz-adv-x="683" 
d="M257 365l-147 350h186l89 -218l176 218h194l-286 -348l163 -367h-196l-97 232l-188 -232h-204z" />
    <glyph glyph-name="Y" unicode="Y" horiz-adv-x="657" 
d="M88 715h186l82 -294h1l198 294h194l-329 -451l-53 -264h-180l53 264z" />
    <glyph glyph-name="Z" unicode="Z" horiz-adv-x="605" 
d="M132 715h527l-27 -147l-408 -419l-2 -2h337l-29 -147h-557l27 147l408 419l3 2h-307z" />
    <glyph glyph-name="bracketleft" unicode="[" horiz-adv-x="393" 
d="M156 770h307l-27 -137h-137l-123 -633h137l-26 -137h-307z" />
    <glyph glyph-name="backslash" unicode="\" horiz-adv-x="406" 
d="M88 715h127l138 -715h-127z" />
    <glyph glyph-name="bracketright" unicode="]" horiz-adv-x="394" 
d="M438 770l-176 -907h-307l26 137h137l123 633h-137l27 137h307z" />
    <glyph glyph-name="asciicircum" unicode="^" horiz-adv-x="465" 
d="M260 715h120l114 -275h-146l-51 135h-1l-102 -135h-154z" />
    <glyph glyph-name="underscore" unicode="_" horiz-adv-x="430" 
d="M-63 -55h436l-27 -137h-436z" />
    <glyph glyph-name="grave" unicode="`" horiz-adv-x="468" 
d="M349 720l16 -140h-117l-76 140h177z" />
    <glyph glyph-name="a" unicode="a" horiz-adv-x="548" 
d="M509 307l-46 -235q-4 -20 0 -27t18 -7l-8 -40q-28 -14 -80 -14q-92 0 -90 65q-31 -29 -75.5 -47t-89.5 -18q-84 0 -122 44.5t-24 119.5q12 63 65.5 99t150.5 59q98 23 123 37q28 15 32 36q4 19 -9 29t-42 10q-89 0 -112 -75h-149q19 85 84 135t180 50q116 0 166 -52
t28 -169zM327 191l15 61q-24 -14 -82 -26q-99 -21 -108 -73q-4 -27 11 -43t41 -16q51 0 81.5 28t41.5 69z" />
    <glyph glyph-name="b" unicode="b" horiz-adv-x="587" 
d="M391 528q106 0 154.5 -76t23.5 -205q-24 -122 -95 -192.5t-169 -70.5q-53 0 -90 22.5t-51 48.5l-6 -4l-10 -51h-160l139 715h160l-47 -248q23 24 64 42.5t87 18.5zM413 265q27 143 -67 143q-53 0 -92 -41.5t-55 -119.5q-27 -143 67 -143q53 0 92 41.5t55 119.5z" />
    <glyph glyph-name="c" unicode="c" horiz-adv-x="533" 
d="M383 317q6 91 -70 91q-53 0 -89 -42t-51 -119q-13 -68 5 -105.5t65 -37.5q83 0 114 85h156q-24 -92 -98 -148.5t-179 -56.5q-124 0 -183.5 78t-35.5 203q23 117 105 190t196 73q112 0 169.5 -59t49.5 -152h-154z" />
    <glyph glyph-name="d" unicode="d" horiz-adv-x="587" 
d="M478 715h160l-139 -715h-160l8 45q-23 -24 -64 -42.5t-87 -18.5q-106 0 -154.5 76t-23.5 205q24 122 95 192.5t169 70.5q53 0 90 -22.5t51 -48.5l6 4zM388 265q27 143 -67 143q-53 0 -92 -41.5t-55 -119.5q-27 -143 67 -143q53 0 92 41.5t55 119.5z" />
    <glyph glyph-name="e" unicode="e" horiz-adv-x="554" 
d="M253 104q42 0 69 17t31 38h161q-76 -175 -271 -175q-130 0 -191.5 83t-34.5 216q23 114 103 179.5t198 65.5q131 0 186.5 -86.5t27.5 -225.5h-368q-10 -54 17.5 -83t71.5 -29zM312 418q-50 0 -84.5 -29.5t-44.5 -82.5h210q9 57 -13.5 84.5t-67.5 27.5z" />
    <glyph glyph-name="f" unicode="f" horiz-adv-x="348" 
d="M405 594q-56 0 -77.5 -11t-29.5 -53l-3 -18h89l-24 -120h-89l-76 -392h-160l76 392h-76l24 120h76l7 39q18 91 56 132t118 41q51 0 102 -11z" />
    <glyph glyph-name="g" unicode="g" horiz-adv-x="568" 
d="M420 512h160l-91 -466q-24 -122 -90.5 -172.5t-184.5 -50.5q-114 0 -172 48t-69 114h156q20 -47 83 -47q55 0 81.5 30t39.5 97l3 20q-59 -61 -143 -61q-101 0 -149 72.5t-25 188.5q21 108 90 175.5t162 67.5q94 0 133 -71l6 4zM373 285q24 123 -63 123q-110 0 -135 -131
q-12 -61 3.5 -97t59.5 -36q52 0 87 37t48 104z" />
    <glyph glyph-name="h" unicode="h" horiz-adv-x="568" 
d="M401 528q85 0 125 -49.5t24 -136.5l-67 -342h-160l58 299q11 57 -1 78t-52 21q-44 0 -79 -27.5t-45 -78.5l-57 -292h-160l139 715h160l-54 -277l1 4q66 86 168 86z" />
    <glyph glyph-name="i" unicode="i" horiz-adv-x="236" 
d="M189 573q-39 0 -60.5 21t-14.5 59q6 30 28.5 46t53.5 16q39 0 60.5 -21.5t14.5 -58.5q-7 -30 -29 -46t-53 -16zM87 512h160l-100 -512h-160z" />
    <glyph glyph-name="j" unicode="j" horiz-adv-x="244" 
d="M197 573q-39 0 -60.5 21t-14.5 59q6 30 28.5 46t53.5 16q39 0 60.5 -21.5t14.5 -58.5q-7 -30 -29 -46t-53 -16zM95 512h160l-101 -516q-17 -91 -55 -132t-118 -41q-46 0 -102 12l13 119q56 0 77 10.5t29 51.5z" />
    <glyph glyph-name="k" unicode="k" horiz-adv-x="552" 
d="M126 715h160l-75 -376l184 173h195l-221 -192l138 -320h-186l-79 204l-64 -53l-31 -151h-160z" />
    <glyph glyph-name="l" unicode="l" horiz-adv-x="237" 
d="M127 715h160l-139 -715h-160z" />
    <glyph glyph-name="m" unicode="m" horiz-adv-x="866" 
d="M710 528q81 0 117.5 -49t20.5 -137l-67 -342h-162l58 299q12 58 3.5 78.5t-46.5 20.5q-43 0 -73.5 -27t-40.5 -79l-57 -292h-160l58 299q12 58 3.5 78.5t-46.5 20.5q-43 0 -73.5 -27t-40.5 -79l-57 -292h-160l100 512h160l-15 -74l1 4q29 38 73.5 62t95.5 24q52 0 84 -26
t41 -68l1 7q46 44 87 65.5t95 21.5z" />
    <glyph glyph-name="n" unicode="n" horiz-adv-x="568" 
d="M410 528q79 0 117.5 -49.5t22.5 -136.5l-67 -342h-160l58 299q11 56 -1 77.5t-49 21.5q-106 0 -127 -106l-57 -292h-160l100 512h160l-15 -74l1 4q66 86 177 86z" />
    <glyph glyph-name="o" unicode="o" horiz-adv-x="574" 
d="M224 -16q-123 0 -179.5 72.5t-33.5 190.5q24 125 116.5 203t222.5 78q122 0 178.5 -73t33.5 -190q-24 -125 -116 -203t-222 -78zM254 104q49 0 86.5 36.5t56.5 106.5q22 78 1 119.5t-78 41.5q-50 0 -87.5 -36.5t-56.5 -106.5q-22 -78 -1 -119.5t79 -41.5z" />
    <glyph glyph-name="p" unicode="p" horiz-adv-x="587" 
d="M391 528q106 0 154.5 -76t23.5 -205q-24 -122 -95 -192.5t-169 -70.5q-53 0 -90 22.5t-51 48.5l-6 -4l-44 -228h-160l134 689h160l-8 -45q23 24 64 42.5t87 18.5zM413 265q27 143 -67 143q-53 0 -92 -41.5t-55 -119.5q-27 -143 67 -143q53 0 92 41.5t55 119.5z" />
    <glyph glyph-name="q" unicode="q" horiz-adv-x="587" 
d="M439 512h160l-134 -689h-160l42 222q-23 -24 -64 -42.5t-87 -18.5q-106 0 -154.5 76t-23.5 205q24 122 95 192.5t169 70.5q53 0 90 -22.5t51 -48.5l6 4zM388 265q27 143 -67 143q-53 0 -92 -41.5t-55 -119.5q-27 -143 67 -143q53 0 92 41.5t55 119.5z" />
    <glyph glyph-name="r" unicode="r" horiz-adv-x="384" 
d="M366 521q26 0 48 -5l-23 -137q-63 10 -123 -29.5t-75 -115.5l-46 -234h-160l100 512h160l-17 -84l1 4q56 89 135 89z" />
    <glyph glyph-name="s" unicode="s" horiz-adv-x="504" 
d="M291 321q83 -26 129.5 -61.5t46.5 -97.5q0 -90 -63.5 -134t-171.5 -44q-241 0 -241 182h148q-7 -72 89 -72q80 0 80 53q0 8 -2 13.5t-7 10.5t-10.5 8t-16 6.5l-19.5 6.5t-25 7.5t-28 8.5q-77 25 -118.5 57t-41.5 88q0 81 63.5 128t162.5 47q123 0 174.5 -48.5
t51.5 -120.5h-147q2 29 -20 44t-59 15q-67 0 -67 -40q0 -20 15.5 -29.5t62.5 -23.5q9 -3 14 -4z" />
    <glyph glyph-name="t" unicode="t" horiz-adv-x="350" 
d="M356 392h-89l-42 -216q-7 -38 4 -46t58 -8h12l-14 -121q-50 -10 -96 -10q-88 0 -115 45t-9 136l42 220h-71l24 120h71l28 143h160l-28 -143h89z" />
    <glyph glyph-name="u" unicode="u" horiz-adv-x="566" 
d="M417 512h160l-100 -512h-160l15 74l-1 -4q-66 -86 -177 -86q-79 0 -117.5 49.5t-22.5 136.5l67 342h160l-58 -299q-11 -56 1 -77.5t49 -21.5q106 0 127 106z" />
    <glyph glyph-name="v" unicode="v" horiz-adv-x="528" 
d="M49 512h157l39 -334h2l169 334h163l-276 -512h-176z" />
    <glyph glyph-name="w" unicode="w" horiz-adv-x="788" 
d="M50 512h158l16 -312h2l145 312h140l23 -312h2l138 312h162l-243 -512h-149l-36 324h-2l-162 -324h-151z" />
    <glyph glyph-name="x" unicode="x" horiz-adv-x="550" 
d="M72 512h166l53 -148l113 148h174l-207 -251l123 -261h-176l-61 158l-125 -158h-184l229 261z" />
    <glyph glyph-name="y" unicode="y" horiz-adv-x="535" 
d="M584 512l-276 -526q-51 -97 -97.5 -130t-125.5 -33q-43 0 -92 11l19 117q31 -6 58 2t41 29q31 28 22 96l-84 434h157l51 -336h2l162 336h163z" />
    <glyph glyph-name="z" unicode="z" horiz-adv-x="497" 
d="M-9 115l302 275l2 2h-229l24 120h429l-21 -115l-302 -275l-2 -2h259l-24 -120h-459z" />
    <glyph glyph-name="braceleft" unicode="{" horiz-adv-x="394" 
d="M45 388q40 -1 59 14.5t27 54.5l24 123q12 62 34 100.5t59 58t78 25.5t106 6h32l-27 -137h-22q-33 0 -61 -23t-38 -74l-22 -113q-8 -43 -26.5 -66.5t-57.5 -38.5l-11 -2q68 -30 53 -110l-22 -113q-10 -53 4.5 -73t47.5 -20h32l-26 -137h-22q-129 0 -181.5 41.5
t-29.5 160.5l24 123q8 39 -1 50.5t-50 11.5z" />
    <glyph glyph-name="bar" unicode="|" horiz-adv-x="78" 
d="M91 754h110l-174 -892h-110z" />
    <glyph glyph-name="braceright" unicode="}" horiz-adv-x="395" 
d="M391 388l-17 -138q-41 0 -60 -15.5t-27 -54.5l-24 -123q-12 -62 -33.5 -101t-58.5 -59t-78.5 -27t-106.5 -7h-32l26 137h22q34 0 62 24t38 77l22 113q8 44 27 67.5t57 38.5l11 2q-68 30 -53 109l22 113q10 51 -5 70t-48 19h-32l27 137h22q42 0 72.5 -3t59.5 -11t45 -22
t29 -36t12 -53t-7 -73l-24 -123q-7 -39 2 -50.5t50 -10.5z" />
    <glyph glyph-name="asciitilde" unicode="~" horiz-adv-x="452" 
d="M25 243q17 89 51 130t91 41q41 0 79 -22.5t54 -22.5q26 0 41.5 14.5t19.5 34.5l98 -8q-17 -89 -51 -130t-91 -41q-41 0 -79 22.5t-55 22.5q-26 0 -41 -15t-19 -34z" />
    <glyph glyph-name="exclamdown" unicode="&#xa1;" horiz-adv-x="261" 
d="M182 594q40 0 62 -26t14 -68q-7 -34 -32 -55t-57 -21q-40 0 -62.5 26.5t-14.5 67.5q7 35 32 55.5t58 20.5zM-33 -130l30 156l108 325h80l-18 -325l-30 -156h-170z" />
    <glyph glyph-name="cent" unicode="&#xa2;" horiz-adv-x="534" 
d="M536 317h-154q5 75 -46 88l-58 -296q55 16 78 80h156q-23 -88 -91.5 -143.5t-166.5 -60.5l-18 -92h-60l18 93q-104 13 -152 89t-26 190q22 112 99 184.5t185 78.5l13 66h60l-13 -69q91 -11 137 -68t39 -140zM172 247q-23 -120 46 -140l58 295q-79 -26 -104 -155z" />
    <glyph glyph-name="sterling" unicode="&#xa3;" horiz-adv-x="580" 
d="M617 448h-169q12 59 -6 87.5t-72 28.5q-47 0 -75.5 -25.5t-36.5 -66.5q-5 -24 0 -46t15 -33h152l-10 -110h-121q0 -15 -1 -21q-13 -66 -78 -111q24 8 43 8q33 0 71 -19t67 -19q6 0 11.5 1t12 3t11 4t11.5 6t11 6t11.5 7t10 7t10.5 8t10 7l44 -127q-49 -32 -82.5 -45.5
t-78.5 -13.5q-32 0 -58 10t-40 21.5t-33 21.5t-39 10q-57 0 -140 -49l-67 127q50 18 84.5 45t45.5 52q14 31 8 61h-97l18 110h51q-28 54 -16 114q7 36 24.5 67.5t49 61.5t86 47.5t126.5 17.5q144 0 201.5 -69t34.5 -184z" />
    <glyph glyph-name="currency" unicode="&#xa4;" horiz-adv-x="446" 
d="M441 340q-10 -54 -39 -92l49 -56l-98 -85l-47 57q-47 -19 -96 -19q-56 0 -97 24l-74 -62l-72 85l74 64q-13 52 -3 102q10 51 38 92l-48 56l98 85l47 -58q44 20 97 20q58 0 96 -23l74 61l72 -85l-74 -63q14 -46 3 -103zM156 350q-11 -56 2 -85.5t60 -29.5q39 0 67.5 33
t37.5 80q11 56 -2 85.5t-59 29.5q-40 0 -68 -33t-38 -80z" />
    <glyph glyph-name="yen" unicode="&#xa5;" horiz-adv-x="645" 
d="M723 686l-285 -380h140l-12 -60h-165l-11 -58h165l-12 -60h-165l-25 -128h-170l25 128h-165l12 60h165l11 58h-165l12 60h144l-139 380h187l76 -271h2l182 271h193z" />
    <glyph glyph-name="brokenbar" unicode="&#xa6;" horiz-adv-x="51" 
d="M58 754h110l-72 -370h-110zM-41 245h110l-75 -383h-110z" />
    <glyph glyph-name="section" unicode="&#xa7;" horiz-adv-x="624" 
d="M600 259q-21 -100 -129 -145q41 -52 27 -126q-15 -75 -79.5 -120t-166.5 -45q-121 0 -172 52.5t-40 132.5l158 -8q-4 -38 8 -52.5t51 -14.5q32 0 54 15t27 42q4 19 -9 37t-26 27t-48 29q-7 4 -10 6q-14 7 -42 19q-21 9 -31 13.5t-28 13.5t-27 14.5t-23.5 14.5t-21 16.5
t-16 17.5t-13.5 20t-7.5 22t-3 26t3.5 29q19 100 128 145q-41 52 -27 126q15 75 79.5 120t166.5 45q121 0 172 -52.5t40 -132.5l-157 8q3 38 -9 52.5t-51 14.5q-32 0 -54 -15t-27 -42q-8 -37 46 -71q9 -6 47 -28q14 -7 42 -19q51 -23 75 -35.5t53.5 -35.5t38 -51t1.5 -65z
M364 188q67 25 75 66q4 19 -8.5 36t-38 30.5t-45.5 21.5t-48 16l-28 9q-39 -11 -59 -25.5t-25 -39.5q-4 -22 17.5 -43.5t58 -36.5t60 -22.5t41.5 -11.5z" />
    <glyph glyph-name="dieresis" unicode="&#xa8;" horiz-adv-x="489" 
d="M137 659q6 28 27 47.5t53 19.5q39 0 58 -24.5t12 -60.5q-6 -29 -26.5 -48t-52.5 -19q-40 0 -59 24.5t-12 60.5zM352 659q6 28 27 47.5t53 19.5q39 0 58 -24.5t12 -60.5q-6 -29 -26.5 -48t-52.5 -19q-40 0 -59 24.5t-12 60.5z" />
    <glyph glyph-name="copyright" unicode="&#xa9;" horiz-adv-x="796" 
d="M375 -16q-173 0 -264 116.5t-57 295.5q29 147 137 241t269 94q173 0 263.5 -117t56.5 -296q-29 -147 -136.5 -240.5t-268.5 -93.5zM375 34q143 0 233 84t116 218q29 149 -46 247t-217 98q-144 0 -234 -84.5t-116 -218.5q-29 -149 46 -246.5t218 -97.5zM502 415
q4 68 -59 68q-82 0 -107 -135q-11 -55 4.5 -85.5t53.5 -30.5q21 0 36 6t25 18t14.5 21t10.5 24h128q-19 -76 -76 -122t-142 -46q-103 0 -153 64.5t-30 168.5q19 96 84.5 156t157.5 60t139 -48t40 -119h-126z" />
    <glyph glyph-name="guillemotleft" unicode="&#xab;" horiz-adv-x="405" 
d="M16 177l26 150l182 144l-26 -150l-91 -68l-2 -2l63 -68l-26 -150zM207 177l26 150l182 144l-26 -150l-91 -68l-2 -2l63 -68l-26 -150z" />
    <glyph glyph-name="logicalnot" unicode="&#xac;" horiz-adv-x="522" 
d="M314 293h-269l27 137h429l-58 -296h-160z" />
    <glyph glyph-name="registered" unicode="&#xae;" horiz-adv-x="513" 
d="M275 247q-105 0 -168.5 77t-42.5 184q19 100 93 161.5t172 61.5q105 0 168 -77t43 -184q-20 -100 -94 -161.5t-171 -61.5zM275 297q86 0 138 49.5t70 142.5q16 83 -28.5 138t-124.5 55q-86 0 -138.5 -49.5t-70.5 -141.5q-16 -83 29 -138.5t125 -55.5zM177 360l51 260h118
q44 0 66 -22t14 -62q-9 -46 -57 -56l-11 -1q22 -4 30 -22.5t5 -38.5t-3.5 -37t2.5 -18l4 -3l-63 3q-4 4 1 27t1 42t-29 19h-46l-18 -91h-65zM282 567l-12 -63h40q45 0 53 40q2 13 -5 18t-26 5h-50z" />
    <glyph glyph-name="macron" unicode="&#xaf;" horiz-adv-x="496" 
d="M194 700h286l-19 -100h-286z" />
    <glyph glyph-name="degree" unicode="&#xb0;" horiz-adv-x="363" 
d="M222 424q-74 0 -110.5 47.5t-24.5 115.5q12 60 59.5 102t114.5 42q74 0 111 -47.5t24 -114.5q-12 -60 -60 -102.5t-114 -42.5zM227 504q28 0 51 19t30 54q14 74 -52 74q-28 0 -51 -18.5t-30 -53.5q-14 -75 52 -75z" />
    <glyph glyph-name="plusminus" unicode="&#xb1;" horiz-adv-x="564" 
d="M49 305l26 137h174l27 137h138l-27 -137h174l-26 -137h-174l-27 -137h-138l27 137h-174zM13 120h486l-24 -120h-486z" />
    <glyph glyph-name="acute" unicode="&#xb4;" horiz-adv-x="483" 
d="M300 720h183l-130 -140h-123z" />
    <glyph glyph-name="paragraph" unicode="&#xb6;" horiz-adv-x="595" 
d="M287 335h-37q-101 0 -147.5 51t-28.5 145q18 88 79 136t161 48h318l-139 -715h-100l122 625h-71l-122 -625h-100z" />
    <glyph glyph-name="periodcentered" unicode="&#xb7;" horiz-adv-x="232" 
d="M119 225q-41 0 -63 26t-14 68q7 34 32 55t58 21q40 0 62.5 -26.5t14.5 -67.5q-7 -34 -32.5 -55t-57.5 -21z" />
    <glyph glyph-name="cedilla" unicode="&#xb8;" horiz-adv-x="508" 
d="M238 -10l-45 -42l-8 -2q47 5 78.5 -15.5t23.5 -60.5q-6 -31 -44.5 -49.5t-89.5 -18.5q-65 0 -114 31l29 31q26 -13 61 -13q20 0 39.5 10t22.5 28q1 10 -5.5 14t-19.5 4q-18 0 -40 -9l-19 26l68 66h63z" />
    <glyph glyph-name="guillemotright" unicode="&#xbb;" horiz-adv-x="405" 
d="M170 177l-182 -144l26 150l91 68l2 2l-63 68l26 150l126 -144zM361 177l-182 -144l26 150l91 68l2 2l-63 68l26 150l126 -144z" />
    <glyph glyph-name="questiondown" unicode="&#xbf;" horiz-adv-x="549" 
d="M326 596q40 0 62 -26t14 -68q-7 -34 -32 -55t-58 -21q-40 0 -62 26.5t-14 67.5q7 34 32.5 55t57.5 21zM337 90h168q-8 -105 -89 -169.5t-215 -64.5q-107 0 -169.5 61t-50.5 152q7 53 42 85.5t100 58.5q64 25 86.5 53.5t34.5 82.5h128q0 -31 -0.5 -45t-4.5 -37.5
t-12.5 -37.5t-25 -31.5t-41.5 -33.5q-18 -12 -57 -31t-57 -35t-23 -39q-5 -28 17 -47t59 -19q45 0 74 25t36 72z" />
    <glyph glyph-name="Agrave" unicode="&#xc0;" horiz-adv-x="692" 
d="M489 923l16 -140h-117l-75 140h176zM450 149h-245l-75 -149h-183l398 715h180l119 -715h-177zM272 286h164l-30 264h-2z" />
    <glyph glyph-name="Aacute" unicode="&#xc1;" horiz-adv-x="692" 
d="M453 923h184l-131 -140h-123zM450 149h-245l-75 -149h-183l398 715h180l119 -715h-177zM272 286h164l-30 264h-2z" />
    <glyph glyph-name="Acircumflex" unicode="&#xc2;" horiz-adv-x="692" 
d="M258 783l134 140h156l80 -140h-136l-31 69h-2l-59 -69h-142zM450 149h-245l-75 -149h-183l398 715h180l119 -715h-177zM272 286h164l-30 264h-2z" />
    <glyph glyph-name="Atilde" unicode="&#xc3;" horiz-adv-x="692" 
d="M288 801q14 71 38.5 101t64.5 30q28 0 67.5 -19t53.5 -19q22 0 35 13t16 29l82 -8q-15 -72 -39.5 -101.5t-64.5 -29.5q-28 0 -67.5 18.5t-53.5 18.5q-22 0 -34.5 -12.5t-16.5 -28.5zM450 149h-245l-75 -149h-183l398 715h180l119 -715h-177zM272 286h164l-30 264h-2z" />
    <glyph glyph-name="Adieresis" unicode="&#xc4;" horiz-adv-x="692" 
d="M279 862q6 28 27 47.5t53 19.5q39 0 57.5 -24.5t11.5 -60.5q-6 -29 -26.5 -48t-52.5 -19q-40 0 -58.5 24.5t-11.5 60.5zM494 862q6 28 27 47.5t53 19.5q39 0 57.5 -24.5t11.5 -60.5q-6 -29 -26.5 -48t-52.5 -19q-40 0 -58.5 24.5t-11.5 60.5zM450 149h-245l-75 -149h-183
l398 715h180l119 -715h-177zM272 286h164l-30 264h-2z" />
    <glyph glyph-name="Aring" unicode="&#xc5;" horiz-adv-x="692" 
d="M445 772q-47 0 -73.5 30t-17.5 79q8 41 39.5 66t70.5 25q47 0 74 -30.5t17 -78.5q-9 -42 -40 -66.5t-70 -24.5zM446 827q21 0 34.5 12.5t16.5 31.5q4 24 -6.5 35t-27.5 11q-21 0 -34 -12.5t-16 -31.5q-4 -23 6 -34.5t27 -11.5zM450 149h-245l-75 -149h-183l398 715h180
l119 -715h-177zM272 286h164l-30 264h-2z" />
    <glyph glyph-name="AE" unicode="&#xc6;" horiz-adv-x="1007" 
d="M590 147h366l-29 -147h-548l29 147h-203l-75 -149h-183l410 717h703l-28 -147h-360l-25 -127h310l-29 -147h-310zM273 284h161l56 284h-70z" />
    <glyph glyph-name="Ccedilla" unicode="&#xc7;" horiz-adv-x="689" 
d="M714 445h-177q2 70 -21.5 104.5t-87.5 34.5q-169 0 -215 -235q-20 -105 3 -161.5t104 -56.5q130 0 180 133h180q-36 -122 -119.5 -196t-209.5 -83l-44 -37l-8 -2q47 5 78.5 -15.5t23.5 -60.5q-6 -31 -44.5 -49.5t-89.5 -18.5q-65 0 -114 31l29 31q26 -13 61 -13
q20 0 39.5 10t22.5 28q1 10 -5.5 14t-19.5 4q-18 0 -40 -9l-18 26l68 61q-154 10 -219.5 114.5t-33.5 267.5q31 163 138.5 263.5t268.5 100.5q145 0 213.5 -78t56.5 -208z" />
    <glyph glyph-name="Egrave" unicode="&#xc8;" horiz-adv-x="625" 
d="M463 923l16 -140h-117l-75 140h176zM263 441h312l-29 -147h-312l-28 -147h368l-29 -147h-548l139 715h542l-28 -147h-362z" />
    <glyph glyph-name="Eacute" unicode="&#xc9;" horiz-adv-x="625" 
d="M427 923h184l-131 -140h-123zM263 441h312l-29 -147h-312l-28 -147h368l-29 -147h-548l139 715h542l-28 -147h-362z" />
    <glyph glyph-name="Ecircumflex" unicode="&#xca;" horiz-adv-x="625" 
d="M232 783l134 140h156l80 -140h-136l-31 69h-2l-59 -69h-142zM263 441h312l-29 -147h-312l-28 -147h368l-29 -147h-548l139 715h542l-28 -147h-362z" />
    <glyph glyph-name="Edieresis" unicode="&#xcb;" horiz-adv-x="625" 
d="M253 862q6 28 27 47.5t53 19.5q39 0 57.5 -24.5t11.5 -60.5q-6 -29 -26.5 -48t-52.5 -19q-40 0 -58.5 24.5t-11.5 60.5zM468 862q6 28 27 47.5t53 19.5q39 0 57.5 -24.5t11.5 -60.5q-6 -29 -26.5 -48t-52.5 -19q-40 0 -58.5 24.5t-11.5 60.5zM263 441h312l-29 -147h-312
l-28 -147h368l-29 -147h-548l139 715h542l-28 -147h-362z" />
    <glyph glyph-name="Igrave" unicode="&#xcc;" horiz-adv-x="277" 
d="M280 923l16 -140h-117l-75 140h176zM137 715h180l-139 -715h-180z" />
    <glyph glyph-name="Iacute" unicode="&#xcd;" horiz-adv-x="277" 
d="M244 923h184l-131 -140h-123zM137 715h180l-139 -715h-180z" />
    <glyph glyph-name="Icircumflex" unicode="&#xce;" horiz-adv-x="279" 
d="M45 783l134 140h156l80 -140h-136l-31 69h-2l-59 -69h-142zM133 715h180l-139 -715h-180z" />
    <glyph glyph-name="Idieresis" unicode="&#xcf;" horiz-adv-x="277" 
d="M70 862q6 28 27 47.5t53 19.5q39 0 57.5 -24.5t11.5 -60.5q-6 -29 -26.5 -48t-52.5 -19q-40 0 -58.5 24.5t-11.5 60.5zM285 862q6 28 27 47.5t53 19.5q39 0 57.5 -24.5t11.5 -60.5q-6 -29 -26.5 -48t-52.5 -19q-40 0 -58.5 24.5t-11.5 60.5zM137 715h180l-139 -715h-180z
" />
    <glyph glyph-name="Eth" unicode="&#xd0;" horiz-adv-x="707" 
d="M458 715q151 0 218.5 -96t34.5 -271q-33 -169 -128 -258.5t-244 -89.5h-332l63 325h-53l18 90h53l58 300h312zM330 147q82 0 133 57.5t71 161.5q20 98 -5.5 150t-106.5 52h-124l-30 -153h145l-18 -90h-145l-34 -178h114z" />
    <glyph glyph-name="Ntilde" unicode="&#xd1;" horiz-adv-x="707" 
d="M294 801q14 71 38.5 101t64.5 30q28 0 67.5 -19t53.5 -19q22 0 35 13t16 29l82 -8q-15 -72 -39.5 -101.5t-64.5 -29.5q-28 0 -67.5 18.5t-53.5 18.5q-22 0 -34.5 -12.5t-16.5 -28.5zM-3 0l139 715h178l168 -425h4l82 425h180l-139 -715h-178l-167 425h-4l-83 -425h-180z
" />
    <glyph glyph-name="Ograve" unicode="&#xd2;" horiz-adv-x="737" 
d="M511 923l16 -140h-117l-75 140h176zM326 -16q-170 0 -246 106.5t-43 276.5q31 162 141.5 263t272.5 101q169 0 246 -106.5t44 -275.5q-32 -162 -143 -263.5t-272 -101.5zM335 131q95 0 152 65t78 171q42 217 -122 217q-96 0 -153 -64.5t-77 -170.5q-42 -218 122 -218z
" />
    <glyph glyph-name="Oacute" unicode="&#xd3;" horiz-adv-x="737" 
d="M475 923h184l-131 -140h-123zM326 -16q-170 0 -246 106.5t-43 276.5q31 162 141.5 263t272.5 101q169 0 246 -106.5t44 -275.5q-32 -162 -143 -263.5t-272 -101.5zM335 131q95 0 152 65t78 171q42 217 -122 217q-96 0 -153 -64.5t-77 -170.5q-42 -218 122 -218z" />
    <glyph glyph-name="Ocircumflex" unicode="&#xd4;" horiz-adv-x="737" 
d="M280 783l134 140h156l80 -140h-136l-31 69h-2l-59 -69h-142zM326 -16q-170 0 -246 106.5t-43 276.5q31 162 141.5 263t272.5 101q169 0 246 -106.5t44 -275.5q-32 -162 -143 -263.5t-272 -101.5zM335 131q95 0 152 65t78 171q42 217 -122 217q-96 0 -153 -64.5
t-77 -170.5q-42 -218 122 -218z" />
    <glyph glyph-name="Otilde" unicode="&#xd5;" horiz-adv-x="737" 
d="M310 801q14 71 38.5 101t64.5 30q28 0 67.5 -19t53.5 -19q22 0 35 13t16 29l82 -8q-15 -72 -39.5 -101.5t-64.5 -29.5q-28 0 -67.5 18.5t-53.5 18.5q-22 0 -34.5 -12.5t-16.5 -28.5zM326 -16q-170 0 -246 106.5t-43 276.5q31 162 141.5 263t272.5 101q169 0 246 -106.5
t44 -275.5q-32 -162 -143 -263.5t-272 -101.5zM335 131q95 0 152 65t78 171q42 217 -122 217q-96 0 -153 -64.5t-77 -170.5q-42 -218 122 -218z" />
    <glyph glyph-name="Odieresis" unicode="&#xd6;" horiz-adv-x="737" 
d="M301 862q6 28 27 47.5t53 19.5q39 0 57.5 -24.5t11.5 -60.5q-6 -29 -26.5 -48t-52.5 -19q-40 0 -58.5 24.5t-11.5 60.5zM516 862q6 28 27 47.5t53 19.5q39 0 57.5 -24.5t11.5 -60.5q-6 -29 -26.5 -48t-52.5 -19q-40 0 -58.5 24.5t-11.5 60.5zM326 -16q-170 0 -246 106.5
t-43 276.5q31 162 141.5 263t272.5 101q169 0 246 -106.5t44 -275.5q-32 -162 -143 -263.5t-272 -101.5zM335 131q95 0 152 65t78 171q42 217 -122 217q-96 0 -153 -64.5t-77 -170.5q-42 -218 122 -218z" />
    <glyph glyph-name="multiply" unicode="&#xd7;" horiz-adv-x="557" 
d="M558 472l-172 -143l116 -144l-112 -97l-116 144l-172 -144l-82 97l172 144l-116 143l112 97l116 -144l172 144z" />
    <glyph glyph-name="Oslash" unicode="&#xd8;" horiz-adv-x="741" 
d="M808 673l-95 -81q53 -100 25 -243q-32 -162 -143 -263.5t-272 -101.5q-153 0 -228 88l-84 -71l-37 43l86 74q-55 101 -26 249q31 162 141.5 263t272.5 101q155 0 232 -92l90 76zM210 349q-14 -67 -7 -114l349 295q-32 54 -112 54q-96 0 -153 -64.5t-77 -170.5zM562 367
q11 57 8 107l-348 -293q32 -50 110 -50q95 0 152 65t78 171z" />
    <glyph glyph-name="Ugrave" unicode="&#xd9;" horiz-adv-x="684" 
d="M483 923l16 -140h-117l-75 140h176zM640 254q-27 -137 -107.5 -203.5t-234.5 -66.5q-161 0 -221 70t-34 208l88 453h180l-89 -461q-14 -68 7 -95.5t78 -27.5q129 0 154 131l88 453h180z" />
    <glyph glyph-name="Uacute" unicode="&#xda;" horiz-adv-x="684" 
d="M447 923h184l-131 -140h-123zM640 254q-27 -137 -107.5 -203.5t-234.5 -66.5q-161 0 -221 70t-34 208l88 453h180l-89 -461q-14 -68 7 -95.5t78 -27.5q129 0 154 131l88 453h180z" />
    <glyph glyph-name="Ucircumflex" unicode="&#xdb;" horiz-adv-x="684" 
d="M252 783l134 140h156l80 -140h-136l-31 69h-2l-59 -69h-142zM640 254q-27 -137 -107.5 -203.5t-234.5 -66.5q-161 0 -221 70t-34 208l88 453h180l-89 -461q-14 -68 7 -95.5t78 -27.5q129 0 154 131l88 453h180z" />
    <glyph glyph-name="Udieresis" unicode="&#xdc;" horiz-adv-x="684" 
d="M273 862q6 28 27 47.5t53 19.5q39 0 57.5 -24.5t11.5 -60.5q-6 -29 -26.5 -48t-52.5 -19q-40 0 -58.5 24.5t-11.5 60.5zM488 862q6 28 27 47.5t53 19.5q39 0 57.5 -24.5t11.5 -60.5q-6 -29 -26.5 -48t-52.5 -19q-40 0 -58.5 24.5t-11.5 60.5zM640 254
q-27 -137 -107.5 -203.5t-234.5 -66.5q-161 0 -221 70t-34 208l88 453h180l-89 -461q-14 -68 7 -95.5t78 -27.5q129 0 154 131l88 453h180z" />
    <glyph glyph-name="Yacute" unicode="&#xdd;" horiz-adv-x="657" 
d="M434 923h184l-131 -140h-123zM88 715h186l82 -294h1l198 294h194l-329 -451l-53 -264h-180l53 264z" />
    <glyph glyph-name="Thorn" unicode="&#xde;" horiz-adv-x="649" 
d="M-3 0l139 715h180l-19 -100h162q114 0 168.5 -61.5t32.5 -175.5q-21 -107 -94 -163t-186 -56h-172l-31 -159h-180zM268 468l-31 -162h124q105 0 122 90q8 40 -12 56t-69 16h-134z" />
    <glyph glyph-name="germandbls" unicode="&#xdf;" horiz-adv-x="570" 
d="M245 505l-98 -505h-160l92 473q24 119 95.5 188.5t188.5 69.5q106 0 165 -60.5t43 -142.5q-20 -98 -110 -134l-11 -1q58 -20 83 -79t11 -129q-18 -94 -87 -147.5t-155 -53.5q-53 0 -100 18l13 117q150 -29 179 114q21 110 -100 110h-30l19 100h16q41 0 73.5 26.5
t40.5 68.5q7 35 -7 54t-46 19q-94 0 -115 -106z" />
    <glyph glyph-name="agrave" unicode="&#xe0;" horiz-adv-x="548" 
d="M394 580h-117l-76 140h177zM509 307l-46 -235q-4 -20 0 -27t18 -7l-8 -40q-28 -14 -80 -14q-92 0 -90 65q-31 -29 -75.5 -47t-89.5 -18q-84 0 -122 44.5t-24 119.5q12 63 65.5 99t150.5 59q98 23 123 37q28 15 32 36q4 19 -9 29t-42 10q-89 0 -112 -75h-149q19 85 84 135
t180 50q116 0 166 -52t28 -169zM327 191l15 61q-24 -14 -82 -26q-99 -21 -108 -73q-4 -27 11 -43t41 -16q51 0 81.5 28t41.5 69z" />
    <glyph glyph-name="aacute" unicode="&#xe1;" horiz-adv-x="548" 
d="M525 720l-130 -140h-123l70 140h183zM315 528q116 0 166 -52t28 -169l-46 -235q-4 -20 0 -27t18 -7l-8 -40q-28 -14 -80 -14q-92 0 -90 65q-31 -29 -75.5 -47t-89.5 -18q-84 0 -122 44.5t-24 119.5q12 63 65.5 99t150.5 59q98 23 123 37q28 15 32 36q4 19 -9 29t-42 10
q-89 0 -112 -75h-149q19 85 84 135t180 50zM327 191l15 61q-24 -14 -82 -26q-99 -21 -108 -73q-4 -27 11 -43t41 -16q51 0 81.5 28t41.5 69z" />
    <glyph glyph-name="acircumflex" unicode="&#xe2;" horiz-adv-x="548" 
d="M350 648l-61 -68h-143l134 140h156l80 -140h-135zM315 528q116 0 166 -52t28 -169l-46 -235q-4 -20 0 -27t18 -7l-8 -40q-28 -14 -80 -14q-92 0 -90 65q-31 -29 -75.5 -47t-89.5 -18q-84 0 -122 44.5t-24 119.5q12 63 65.5 99t150.5 59q98 23 123 37q28 15 32 36
q4 19 -9 29t-42 10q-89 0 -112 -75h-149q19 85 84 135t180 50zM327 191l15 61q-24 -14 -82 -26q-99 -21 -108 -73q-4 -27 11 -43t41 -16q51 0 81.5 28t41.5 69z" />
    <glyph glyph-name="atilde" unicode="&#xe3;" horiz-adv-x="548" 
d="M309 631q-22 0 -35 -12.5t-16 -28.5l-81 8q13 71 38 101t65 30q28 0 67.5 -19t53.5 -19q42 0 51 42l81 -8q-14 -72 -38.5 -101.5t-64.5 -29.5q-28 0 -67.5 18.5t-53.5 18.5zM315 528q116 0 166 -52t28 -169l-46 -235q-4 -20 0 -27t18 -7l-8 -40q-28 -14 -80 -14
q-92 0 -90 65q-31 -29 -75.5 -47t-89.5 -18q-84 0 -122 44.5t-24 119.5q12 63 65.5 99t150.5 59q98 23 123 37q28 15 32 36q4 19 -9 29t-42 10q-89 0 -112 -75h-149q19 85 84 135t180 50zM327 191l15 61q-24 -14 -82 -26q-99 -21 -108 -73q-4 -27 11 -43t41 -16
q51 0 81.5 28t41.5 69z" />
    <glyph glyph-name="adieresis" unicode="&#xe4;" horiz-adv-x="548" 
d="M238 574q-40 0 -59 24.5t-12 60.5q6 28 27 47.5t53 19.5q39 0 58 -24.5t12 -60.5q-6 -29 -26.5 -48t-52.5 -19zM462 726q39 0 58 -24.5t12 -60.5q-6 -29 -26.5 -48t-52.5 -19q-40 0 -59 24.5t-12 60.5q6 28 27 47.5t53 19.5zM315 528q116 0 166 -52t28 -169l-46 -235
q-4 -20 0 -27t18 -7l-8 -40q-28 -14 -80 -14q-92 0 -90 65q-31 -29 -75.5 -47t-89.5 -18q-84 0 -122 44.5t-24 119.5q12 63 65.5 99t150.5 59q98 23 123 37q28 15 32 36q4 19 -9 29t-42 10q-89 0 -112 -75h-149q19 85 84 135t180 50zM327 191l15 61q-24 -14 -82 -26
q-99 -21 -108 -73q-4 -27 11 -43t41 -16q51 0 81.5 28t41.5 69z" />
    <glyph glyph-name="aring" unicode="&#xe5;" horiz-adv-x="548" 
d="M340 569q-47 0 -73.5 30t-17.5 79q8 41 39.5 66t70.5 25q47 0 73.5 -30.5t17.5 -78.5q-9 -42 -40 -66.5t-70 -24.5zM308 670q-4 -23 6 -34.5t27 -11.5q42 0 51 44q4 24 -6.5 35t-27.5 11q-41 0 -50 -44zM509 307l-46 -235q-4 -20 0 -27t18 -7l-8 -40q-28 -14 -80 -14
q-92 0 -90 65q-31 -29 -75.5 -47t-89.5 -18q-84 0 -122 44.5t-24 119.5q12 63 65.5 99t150.5 59q98 23 123 37q28 15 32 36q4 19 -9 29t-42 10q-89 0 -112 -75h-149q19 85 84 135t180 50q116 0 166 -52t28 -169zM327 191l15 61q-24 -14 -82 -26q-99 -21 -108 -73
q-4 -27 11 -43t41 -16q51 0 81.5 28t41.5 69z" />
    <glyph glyph-name="ae" unicode="&#xe6;" horiz-adv-x="883" 
d="M863 216h-368q-10 -54 17.5 -83t71.5 -29q42 0 69 17t31 38h161q-76 -175 -271 -175q-134 0 -196 89q-74 -89 -223 -89q-90 0 -133.5 44.5t-29.5 119.5q12 63 65.5 99t150.5 59q98 23 123 37q28 15 32 36q4 19 -9 29t-42 10q-89 0 -112 -75h-149q19 85 84 135t180 50
q114 0 162 -47q74 47 172 47q131 0 186.5 -86.5t27.5 -225.5zM643 418q-50 0 -84.5 -29.5t-44.5 -82.5h210q9 57 -13.5 84.5t-67.5 27.5zM204 94q51 0 81.5 28t41.5 69l15 61q-24 -14 -82 -26q-99 -21 -108 -73q-4 -27 11 -43t41 -16z" />
    <glyph glyph-name="ccedilla" unicode="&#xe7;" horiz-adv-x="533" 
d="M537 317h-154q6 91 -70 91q-53 0 -89 -42t-51 -119q-13 -68 5 -105.5t65 -37.5q83 0 114 85h156q-22 -86 -88 -141.5t-161 -62.5l-44 -37l-8 -2q47 5 78.5 -15.5t23.5 -60.5q-6 -31 -44.5 -49.5t-89.5 -18.5q-65 0 -114 31l29 31q26 -13 61 -13q20 0 39.5 10t22.5 28
q1 10 -5.5 14t-19.5 4q-17 0 -40 -9l-18 26l68 62q-108 10 -158.5 86.5t-27.5 192.5q23 117 105 190t196 73q112 0 169.5 -59t49.5 -152z" />
    <glyph glyph-name="egrave" unicode="&#xe8;" horiz-adv-x="554" 
d="M396 580h-117l-76 140h177zM253 104q42 0 69 17t31 38h161q-76 -175 -271 -175q-130 0 -191.5 83t-34.5 216q23 114 103 179.5t198 65.5q131 0 186.5 -86.5t27.5 -225.5h-368q-10 -54 17.5 -83t71.5 -29zM312 418q-50 0 -84.5 -29.5t-44.5 -82.5h210q9 57 -13.5 84.5
t-67.5 27.5z" />
    <glyph glyph-name="eacute" unicode="&#xe9;" horiz-adv-x="554" 
d="M527 720l-130 -140h-123l70 140h183zM253 104q42 0 69 17t31 38h161q-76 -175 -271 -175q-130 0 -191.5 83t-34.5 216q23 114 103 179.5t198 65.5q131 0 186.5 -86.5t27.5 -225.5h-368q-10 -54 17.5 -83t71.5 -29zM312 418q-50 0 -84.5 -29.5t-44.5 -82.5h210
q9 57 -13.5 84.5t-67.5 27.5z" />
    <glyph glyph-name="ecircumflex" unicode="&#xea;" horiz-adv-x="554" 
d="M349 649l-58 -69h-143l134 140h156l80 -140h-135l-32 69h-2zM253 104q42 0 69 17t31 38h161q-76 -175 -271 -175q-130 0 -191.5 83t-34.5 216q23 114 103 179.5t198 65.5q131 0 186.5 -86.5t27.5 -225.5h-368q-10 -54 17.5 -83t71.5 -29zM312 418q-50 0 -84.5 -29.5
t-44.5 -82.5h210q9 57 -13.5 84.5t-67.5 27.5z" />
    <glyph glyph-name="edieresis" unicode="&#xeb;" horiz-adv-x="554" 
d="M240 574q-40 0 -59 24.5t-12 60.5q6 28 27 47.5t53 19.5q39 0 58 -24.5t12 -60.5q-6 -29 -26.5 -48t-52.5 -19zM455 574q-40 0 -59 24.5t-12 60.5q6 28 27 47.5t53 19.5q39 0 58 -24.5t12 -60.5q-6 -29 -26.5 -48t-52.5 -19zM253 104q42 0 69 17t31 38h161
q-76 -175 -271 -175q-130 0 -191.5 83t-34.5 216q23 114 103 179.5t198 65.5q131 0 186.5 -86.5t27.5 -225.5h-368q-10 -54 17.5 -83t71.5 -29zM312 418q-50 0 -84.5 -29.5t-44.5 -82.5h210q9 57 -13.5 84.5t-67.5 27.5z" />
    <glyph glyph-name="igrave" unicode="&#xec;" horiz-adv-x="223" 
d="M207 720l16 -140h-117l-76 140h177zM74 512h160l-100 -512h-160z" />
    <glyph glyph-name="iacute" unicode="&#xed;" horiz-adv-x="229" 
d="M184 720h183l-130 -140h-123zM87 512h160l-100 -512h-160z" />
    <glyph glyph-name="icircumflex" unicode="&#xee;" horiz-adv-x="269" 
d="M3 580l134 140h156l80 -140h-135l-32 69h-2l-58 -69h-143zM102 512h160l-100 -512h-160z" />
    <glyph glyph-name="idieresis" unicode="&#xef;" horiz-adv-x="321" 
d="M53 659q6 28 27 47.5t53 19.5q39 0 58 -24.5t12 -60.5q-6 -29 -26.5 -48t-52.5 -19q-40 0 -59 24.5t-12 60.5zM268 659q6 28 27 47.5t53 19.5q39 0 58 -24.5t12 -60.5q-6 -29 -26.5 -48t-52.5 -19q-40 0 -59 24.5t-12 60.5zM131 512h160l-100 -512h-160z" />
    <glyph glyph-name="eth" unicode="&#xf0;" horiz-adv-x="578" 
d="M508 627q95 -136 59 -320q-27 -138 -109.5 -230.5t-220.5 -92.5q-130 0 -188.5 76.5t-33.5 205.5q23 120 100.5 191t169.5 71q82 0 121 -46l8 9q-7 58 -43 106l-139 -38l-5 58l100 28q-34 33 -98 72l190 -4q21 -11 47 -37l113 31l5 -58zM242 112q54 0 93 40t54 114
q13 67 -6 101t-65 34q-54 0 -93 -39.5t-54 -113.5q-13 -67 6 -101.5t65 -34.5z" />
    <glyph glyph-name="ntilde" unicode="&#xf1;" horiz-adv-x="568" 
d="M349 631q-22 0 -35 -12.5t-16 -28.5l-81 8q13 71 38 101t65 30q28 0 67.5 -19t53.5 -19q42 0 51 42l81 -8q-14 -72 -38.5 -101.5t-64.5 -29.5q-28 0 -67.5 18.5t-53.5 18.5zM410 528q79 0 117.5 -49.5t22.5 -136.5l-67 -342h-160l58 299q11 56 -1 77.5t-49 21.5
q-106 0 -127 -106l-57 -292h-160l100 512h160l-15 -74l1 4q66 86 177 86z" />
    <glyph glyph-name="ograve" unicode="&#xf2;" horiz-adv-x="574" 
d="M390 720l16 -140h-117l-76 140h177zM224 -16q-123 0 -179.5 72.5t-33.5 190.5q24 125 116.5 203t222.5 78q122 0 178.5 -73t33.5 -190q-24 -125 -116 -203t-222 -78zM254 104q49 0 86.5 36.5t56.5 106.5q22 78 1 119.5t-78 41.5q-50 0 -87.5 -36.5t-56.5 -106.5
q-22 -78 -1 -119.5t79 -41.5z" />
    <glyph glyph-name="oacute" unicode="&#xf3;" horiz-adv-x="574" 
d="M354 720h183l-130 -140h-123zM224 -16q-123 0 -179.5 72.5t-33.5 190.5q24 125 116.5 203t222.5 78q122 0 178.5 -73t33.5 -190q-24 -125 -116 -203t-222 -78zM254 104q49 0 86.5 36.5t56.5 106.5q22 78 1 119.5t-78 41.5q-50 0 -87.5 -36.5t-56.5 -106.5
q-22 -78 -1 -119.5t79 -41.5z" />
    <glyph glyph-name="ocircumflex" unicode="&#xf4;" horiz-adv-x="574" 
d="M158 580l134 140h156l80 -140h-135l-32 69h-2l-58 -69h-143zM224 -16q-123 0 -179.5 72.5t-33.5 190.5q24 125 116.5 203t222.5 78q122 0 178.5 -73t33.5 -190q-24 -125 -116 -203t-222 -78zM254 104q49 0 86.5 36.5t56.5 106.5q22 78 1 119.5t-78 41.5
q-50 0 -87.5 -36.5t-56.5 -106.5q-22 -78 -1 -119.5t79 -41.5z" />
    <glyph glyph-name="otilde" unicode="&#xf5;" horiz-adv-x="574" 
d="M189 598q13 71 38 101t65 30q28 0 67.5 -19t53.5 -19q42 0 51 42l81 -8q-14 -72 -38.5 -101.5t-64.5 -29.5q-28 0 -67.5 18.5t-53.5 18.5q-22 0 -35 -12.5t-16 -28.5zM224 -16q-123 0 -179.5 72.5t-33.5 190.5q24 125 116.5 203t222.5 78q122 0 178.5 -73t33.5 -190
q-24 -125 -116 -203t-222 -78zM254 104q49 0 86.5 36.5t56.5 106.5q22 78 1 119.5t-78 41.5q-50 0 -87.5 -36.5t-56.5 -106.5q-22 -78 -1 -119.5t79 -41.5z" />
    <glyph glyph-name="odieresis" unicode="&#xf6;" horiz-adv-x="574" 
d="M179 659q6 28 27 47.5t53 19.5q39 0 58 -24.5t12 -60.5q-6 -29 -26.5 -48t-52.5 -19q-40 0 -59 24.5t-12 60.5zM394 659q6 28 27 47.5t53 19.5q39 0 58 -24.5t12 -60.5q-6 -29 -26.5 -48t-52.5 -19q-40 0 -59 24.5t-12 60.5zM224 -16q-123 0 -179.5 72.5t-33.5 190.5
q24 125 116.5 203t222.5 78q122 0 178.5 -73t33.5 -190q-24 -125 -116 -203t-222 -78zM254 104q49 0 86.5 36.5t56.5 106.5q22 78 1 119.5t-78 41.5q-50 0 -87.5 -36.5t-56.5 -106.5q-22 -78 -1 -119.5t79 -41.5z" />
    <glyph glyph-name="divide" unicode="&#xf7;" horiz-adv-x="564" 
d="M330 451q-40 0 -60.5 22t-13.5 60q6 30 27.5 47t54.5 17q40 0 60.5 -22t13.5 -60q-6 -31 -28 -47.5t-54 -16.5zM39 258l27 137h486l-27 -137h-486zM253 56q-40 0 -60.5 22t-13.5 60q6 30 28 47t55 17q40 0 60.5 -22t13.5 -60q-14 -64 -83 -64z" />
    <glyph glyph-name="oslash" unicode="&#xf8;" horiz-adv-x="572" 
d="M601 482l-58 -49q39 -68 19 -168q-24 -125 -116 -203t-222 -78q-98 0 -156 49l-54 -46l-37 43l55 46q-41 68 -21 171q24 125 116.5 203t222.5 78q101 0 158 -51l55 47zM176 265q-12 -45 -11 -77l225 190q-22 30 -70 30q-50 0 -87.5 -36.5t-56.5 -106.5zM397 247
q12 42 11 72l-223 -188q23 -27 69 -27q49 0 86.5 36.5t56.5 106.5z" />
    <glyph glyph-name="ugrave" unicode="&#xf9;" horiz-adv-x="566" 
d="M394 580h-117l-76 140h177zM417 512h160l-100 -512h-160l15 74l-1 -4q-66 -86 -177 -86q-79 0 -117.5 49.5t-22.5 136.5l67 342h160l-58 -299q-11 -56 1 -77.5t49 -21.5q106 0 127 106z" />
    <glyph glyph-name="uacute" unicode="&#xfa;" horiz-adv-x="566" 
d="M525 720l-130 -140h-123l70 140h183zM417 512h160l-100 -512h-160l15 74l-1 -4q-66 -86 -177 -86q-79 0 -117.5 49.5t-22.5 136.5l67 342h160l-58 -299q-11 -56 1 -77.5t49 -21.5q106 0 127 106z" />
    <glyph glyph-name="ucircumflex" unicode="&#xfb;" horiz-adv-x="566" 
d="M347 649l-58 -69h-143l134 140h156l80 -140h-135l-32 69h-2zM417 512h160l-100 -512h-160l15 74l-1 -4q-66 -86 -177 -86q-79 0 -117.5 49.5t-22.5 136.5l67 342h160l-58 -299q-11 -56 1 -77.5t49 -21.5q106 0 127 106z" />
    <glyph glyph-name="udieresis" unicode="&#xfc;" horiz-adv-x="566" 
d="M238 574q-40 0 -59 24.5t-12 60.5q6 28 27 47.5t53 19.5q39 0 58 -24.5t12 -60.5q-6 -29 -26.5 -48t-52.5 -19zM453 574q-40 0 -59 24.5t-12 60.5q6 28 27 47.5t53 19.5q39 0 58 -24.5t12 -60.5q-6 -29 -26.5 -48t-52.5 -19zM417 512h160l-100 -512h-160l15 74l-1 -4
q-66 -86 -177 -86q-79 0 -117.5 49.5t-22.5 136.5l67 342h160l-58 -299q-11 -56 1 -77.5t49 -21.5q106 0 127 106z" />
    <glyph glyph-name="yacute" unicode="&#xfd;" horiz-adv-x="535" 
d="M333 720h183l-130 -140h-123zM584 512l-276 -526q-51 -97 -97.5 -130t-125.5 -33q-43 0 -92 11l19 117q31 -6 58 2t41 29q31 28 22 96l-84 434h157l51 -336h2l162 336h163z" />
    <glyph glyph-name="thorn" unicode="&#xfe;" horiz-adv-x="584" 
d="M390 528q106 0 154.5 -76t23.5 -205q-24 -122 -95 -192.5t-169 -70.5q-62 0 -95.5 25.5t-42.5 65.5l-5 -4l-48 -248h-160l173 892h160l-53 -274l1 4q51 83 156 83zM265 104q53 0 92 41.5t55 119.5q27 143 -67 143q-53 0 -92 -41.5t-55 -119.5q-27 -143 67 -143z" />
    <glyph glyph-name="ydieresis" unicode="&#xff;" horiz-adv-x="535" 
d="M158 659q6 28 27 47.5t53 19.5q39 0 58 -24.5t12 -60.5q-6 -29 -26.5 -48t-52.5 -19q-40 0 -59 24.5t-12 60.5zM373 659q6 28 27 47.5t53 19.5q39 0 58 -24.5t12 -60.5q-6 -29 -26.5 -48t-52.5 -19q-40 0 -59 24.5t-12 60.5zM584 512l-276 -526q-51 -97 -97.5 -130
t-125.5 -33q-43 0 -92 11l19 117q31 -6 58 2t41 29q31 28 22 96l-84 434h157l51 -336h2l162 336h163z" />
    <glyph glyph-name="Amacron" unicode="&#x100;" horiz-adv-x="692" 
d="M328 903h286l-20 -100h-286zM450 149h-245l-75 -149h-183l398 715h180l119 -715h-177zM272 286h164l-30 264h-2z" />
    <glyph glyph-name="amacron" unicode="&#x101;" horiz-adv-x="548" 
d="M502 700l-19 -100h-286l19 100h286zM509 307l-46 -235q-4 -20 0 -27t18 -7l-8 -40q-28 -14 -80 -14q-92 0 -90 65q-31 -29 -75.5 -47t-89.5 -18q-84 0 -122 44.5t-24 119.5q12 63 65.5 99t150.5 59q98 23 123 37q28 15 32 36q4 19 -9 29t-42 10q-89 0 -112 -75h-149
q19 85 84 135t180 50q116 0 166 -52t28 -169zM327 191l15 61q-24 -14 -82 -26q-99 -21 -108 -73q-4 -27 11 -43t41 -16q51 0 81.5 28t41.5 69z" />
    <glyph glyph-name="Abreve" unicode="&#x102;" horiz-adv-x="692" 
d="M452 777q-72 0 -111.5 42t-28.5 108l89 -8q-2 -22 10 -33t40 -11q35 0 58 14.5t30 37.5l91 -8q-16 -65 -64 -103.5t-114 -38.5zM450 149h-245l-75 -149h-183l398 715h180l119 -715h-177zM272 286h164l-30 264h-2z" />
    <glyph glyph-name="abreve" unicode="&#x103;" horiz-adv-x="548" 
d="M341 574q-72 0 -111.5 42t-29.5 108l90 -8q-2 -22 10 -33t40 -11q35 0 58 14.5t30 37.5l91 -8q-16 -65 -64 -103.5t-114 -38.5zM315 528q116 0 166 -52t28 -169l-46 -235q-4 -20 0 -27t18 -7l-8 -40q-28 -14 -80 -14q-92 0 -90 65q-31 -29 -75.5 -47t-89.5 -18
q-84 0 -122 44.5t-24 119.5q12 63 65.5 99t150.5 59q98 23 123 37q28 15 32 36q4 19 -9 29t-42 10q-89 0 -112 -75h-149q19 85 84 135t180 50zM327 191l15 61q-24 -14 -82 -26q-99 -21 -108 -73q-4 -27 11 -43t41 -16q51 0 81.5 28t41.5 69z" />
    <glyph glyph-name="Aogonek" unicode="&#x104;" horiz-adv-x="692" 
d="M613 -83q18 0 48 8l-8 -92q-42 -10 -78 -10q-60 0 -87 24.5t-19 68.5q11 55 82 86l-84 -2l-17 149h-245l-75 -149h-183l398 715h180l117 -715l5 -3q-46 -33 -52 -67q-1 -7 3 -10t15 -3zM272 286h164l-30 264h-2z" />
    <glyph glyph-name="aogonek" unicode="&#x105;" horiz-adv-x="548" 
d="M434 -57q0 -24 29 -24q18 0 48 8l-8 -92q-42 -10 -78 -10q-60 0 -87.5 24.5t-18.5 68.5q9 41 52 67q-70 8 -68 64q-31 -29 -75.5 -47t-89.5 -18q-84 0 -122 44.5t-24 119.5q12 63 65.5 99t150.5 59q98 23 123 37q28 15 32 36q4 19 -9 29t-42 10q-89 0 -112 -75h-149
q19 85 84 135t180 50q116 0 166 -52t28 -169l-46 -235q-4 -20 0 -27t18 -7l-8 -40q-39 -33 -39 -55zM327 191l15 61q-24 -14 -82 -26q-99 -21 -108 -73q-4 -27 11 -43t41 -16q51 0 81.5 28t41.5 69z" />
    <glyph glyph-name="Cacute" unicode="&#x106;" horiz-adv-x="689" 
d="M473 923h184l-131 -140h-123zM537 445q2 70 -21.5 104.5t-87.5 34.5q-169 0 -215 -235q-20 -105 3 -161.5t104 -56.5q130 0 180 133h180q-38 -130 -130 -205t-231 -75q-169 0 -242 106t-40 277q31 163 138.5 263.5t268.5 100.5q145 0 213.5 -78t56.5 -208h-177z" />
    <glyph glyph-name="cacute" unicode="&#x107;" horiz-adv-x="533" 
d="M342 720h183l-130 -140h-123zM383 317q6 91 -70 91q-53 0 -89 -42t-51 -119q-13 -68 5 -105.5t65 -37.5q83 0 114 85h156q-24 -92 -98 -148.5t-179 -56.5q-124 0 -183.5 78t-35.5 203q23 117 105 190t196 73q112 0 169.5 -59t49.5 -152h-154z" />
    <glyph glyph-name="Cdotaccent" unicode="&#x10a;" horiz-adv-x="689" 
d="M404 862q6 28 27 47.5t53 19.5q39 0 57.5 -24.5t11.5 -60.5q-6 -29 -26.5 -48t-52.5 -19q-40 0 -58.5 24.5t-11.5 60.5zM537 445q2 70 -21.5 104.5t-87.5 34.5q-169 0 -215 -235q-20 -105 3 -161.5t104 -56.5q130 0 180 133h180q-38 -130 -130 -205t-231 -75
q-169 0 -242 106t-40 277q31 163 138.5 263.5t268.5 100.5q145 0 213.5 -78t56.5 -208h-177z" />
    <glyph glyph-name="cdotaccent" unicode="&#x10b;" horiz-adv-x="533" 
d="M272 659q6 28 27 47.5t53 19.5q39 0 58 -24.5t12 -60.5q-6 -29 -26.5 -48t-52.5 -19q-40 0 -59 24.5t-12 60.5zM383 317q6 91 -70 91q-53 0 -89 -42t-51 -119q-13 -68 5 -105.5t65 -37.5q83 0 114 85h156q-24 -92 -98 -148.5t-179 -56.5q-124 0 -183.5 78t-35.5 203
q23 117 105 190t196 73q112 0 169.5 -59t49.5 -152h-154z" />
    <glyph glyph-name="Ccaron" unicode="&#x10c;" horiz-adv-x="689" 
d="M310 923h135l31 -69h2l59 69h143l-135 -140h-156zM537 445q2 70 -21.5 104.5t-87.5 34.5q-169 0 -215 -235q-20 -105 3 -161.5t104 -56.5q130 0 180 133h180q-38 -130 -130 -205t-231 -75q-169 0 -242 106t-40 277q31 163 138.5 263.5t268.5 100.5q145 0 213.5 -78
t56.5 -208h-177z" />
    <glyph glyph-name="ccaron" unicode="&#x10d;" horiz-adv-x="533" 
d="M178 720h135l32 -69h2l58 69h143l-134 -140h-156zM383 317q6 91 -70 91q-53 0 -89 -42t-51 -119q-13 -68 5 -105.5t65 -37.5q83 0 114 85h156q-24 -92 -98 -148.5t-179 -56.5q-124 0 -183.5 78t-35.5 203q23 117 105 190t196 73q112 0 169.5 -59t49.5 -152h-154z" />
    <glyph glyph-name="Dcaron" unicode="&#x10e;" horiz-adv-x="697" 
d="M258 923h135l31 -69h2l59 69h143l-135 -140h-156zM-3 0l139 715h312q151 0 218.5 -96t34.5 -271q-33 -169 -128 -258.5t-244 -89.5h-332zM288 568l-82 -421h114q82 0 133 57.5t71 161.5q20 98 -5.5 150t-106.5 52h-124z" />
    <glyph glyph-name="dcaron" unicode="&#x10f;" horiz-adv-x="621" 
d="M750 720q38 0 54.5 -28t7.5 -70q-21 -106 -149 -118l-2 47q69 9 85 50q-33 -10 -52.5 10t-13.5 52q5 24 25 40.5t45 16.5zM427 461l51 254h160l-139 -715h-160l8 45q-23 -24 -64 -42.5t-87 -18.5q-106 0 -154.5 76t-23.5 205q24 122 95 192.5t169 70.5q53 0 90 -22.5
t51 -48.5zM388 265q27 143 -67 143q-53 0 -92 -41.5t-55 -119.5q-27 -143 67 -143q53 0 92 41.5t55 119.5z" />
    <glyph glyph-name="Dcroat" unicode="&#x110;" horiz-adv-x="707" 
d="M458 715q151 0 218.5 -96t34.5 -271q-33 -169 -128 -258.5t-244 -89.5h-332l63 325h-53l18 90h53l58 300h312zM330 147q82 0 133 57.5t71 161.5q20 98 -5.5 150t-106.5 52h-124l-30 -153h145l-18 -90h-145l-34 -178h114z" />
    <glyph glyph-name="dcroat" unicode="&#x111;" horiz-adv-x="586" 
d="M629 665h50l-18 -90h-50l-112 -575h-160l8 45q-23 -24 -64 -42.5t-87 -18.5q-106 0 -154.5 76t-23.5 205q24 122 95 192.5t169 70.5q53 0 90 -22.5t51 -48.5l6 4l22 114h-138l18 90h138l9 50h160zM388 265q27 143 -67 143q-53 0 -92 -41.5t-55 -119.5q-27 -143 67 -143
q53 0 92 41.5t55 119.5z" />
    <glyph glyph-name="Emacron" unicode="&#x112;" horiz-adv-x="625" 
d="M302 903h286l-20 -100h-286zM263 441h312l-29 -147h-312l-28 -147h368l-29 -147h-548l139 715h542l-28 -147h-362z" />
    <glyph glyph-name="emacron" unicode="&#x113;" horiz-adv-x="554" 
d="M504 700l-19 -100h-286l19 100h286zM253 104q42 0 69 17t31 38h161q-76 -175 -271 -175q-130 0 -191.5 83t-34.5 216q23 114 103 179.5t198 65.5q131 0 186.5 -86.5t27.5 -225.5h-368q-10 -54 17.5 -83t71.5 -29zM312 418q-50 0 -84.5 -29.5t-44.5 -82.5h210
q9 57 -13.5 84.5t-67.5 27.5z" />
    <glyph glyph-name="Edotaccent" unicode="&#x116;" horiz-adv-x="625" 
d="M358 862q6 28 27 47.5t53 19.5q39 0 57.5 -24.5t11.5 -60.5q-6 -29 -26.5 -48t-52.5 -19q-40 0 -58.5 24.5t-11.5 60.5zM263 441h312l-29 -147h-312l-28 -147h368l-29 -147h-548l139 715h542l-28 -147h-362z" />
    <glyph glyph-name="edotaccent" unicode="&#x117;" horiz-adv-x="554" 
d="M345 574q-40 0 -59 24.5t-12 60.5q6 28 27 47.5t53 19.5q39 0 58 -24.5t12 -60.5q-6 -29 -26.5 -48t-52.5 -19zM253 104q42 0 69 17t31 38h161q-76 -175 -271 -175q-130 0 -191.5 83t-34.5 216q23 114 103 179.5t198 65.5q131 0 186.5 -86.5t27.5 -225.5h-368
q-10 -54 17.5 -83t71.5 -29zM312 418q-50 0 -84.5 -29.5t-44.5 -82.5h210q9 57 -13.5 84.5t-67.5 27.5z" />
    <glyph glyph-name="Eogonek" unicode="&#x118;" horiz-adv-x="625" 
d="M528 -83q18 0 48 8l-8 -92q-42 -10 -78 -10q-60 0 -87 24.5t-19 68.5q11 55 82 86l-469 -2l139 715h542l-28 -147h-362l-25 -127h312l-29 -147h-312l-28 -147h368l-29 -147h-2q-47 -34 -47 -62q0 -21 32 -21z" />
    <glyph glyph-name="eogonek" unicode="&#x119;" horiz-adv-x="551" 
d="M17 283q23 114 103 179.5t198 65.5q131 0 186.5 -86.5t27.5 -225.5h-368q-10 -54 17.5 -83t71.5 -29q42 0 69 17t31 38h161q-52 -123 -168 -160q-53 -20 -53 -56q0 -26 29 -26q18 0 48 8l-8 -92q-42 -10 -78 -10q-60 0 -87 24.5t-19 68.5q9 42 54 68q-125 4 -183.5 86.5
t-31.5 212.5zM183 306h210q9 57 -13.5 84.5t-67.5 27.5q-50 0 -84.5 -29.5t-44.5 -82.5z" />
    <glyph glyph-name="Ecaron" unicode="&#x11a;" horiz-adv-x="625" 
d="M264 923h135l31 -69h2l59 69h143l-135 -140h-156zM263 441h312l-29 -147h-312l-28 -147h368l-29 -147h-548l139 715h542l-28 -147h-362z" />
    <glyph glyph-name="ecaron" unicode="&#x11b;" horiz-adv-x="554" 
d="M416 580h-156l-80 140h135l32 -69h2l58 69h143zM253 104q42 0 69 17t31 38h161q-76 -175 -271 -175q-130 0 -191.5 83t-34.5 216q23 114 103 179.5t198 65.5q131 0 186.5 -86.5t27.5 -225.5h-368q-10 -54 17.5 -83t71.5 -29zM312 418q-50 0 -84.5 -29.5t-44.5 -82.5h210
q9 57 -13.5 84.5t-67.5 27.5z" />
    <glyph glyph-name="Gbreve" unicode="&#x11e;" horiz-adv-x="727" 
d="M465 777q-72 0 -111.5 42t-28.5 108l89 -8q-2 -22 10 -33t40 -11q35 0 58 14.5t30 37.5l91 -8q-16 -65 -64 -103.5t-114 -38.5zM548 482q-6 102 -116 102q-89 0 -143.5 -62.5t-75.5 -172.5q-42 -218 118 -218q65 0 115 35.5t62 87.5l-137 -4l25 130h322l-74 -380h-128v91
l-2 -4q-73 -103 -218 -103q-153 0 -222.5 107t-36.5 276q31 163 138.5 263.5t267.5 100.5q144 0 216.5 -74t65.5 -183z" />
    <glyph glyph-name="gbreve" unicode="&#x11f;" horiz-adv-x="568" 
d="M328 574q-72 0 -111.5 42t-29.5 108l90 -8q-2 -22 10 -33t40 -11q35 0 58 14.5t30 37.5l91 -8q-16 -65 -64 -103.5t-114 -38.5zM420 512h160l-91 -466q-24 -122 -90.5 -172.5t-184.5 -50.5q-114 0 -172 48t-69 114h156q20 -47 83 -47q55 0 81.5 30t39.5 97l3 20
q-59 -61 -143 -61q-101 0 -149 72.5t-25 188.5q21 108 90 175.5t162 67.5q94 0 133 -71l6 4zM373 285q24 123 -63 123q-110 0 -135 -131q-12 -61 3.5 -97t59.5 -36q52 0 87 37t48 104z" />
    <glyph glyph-name="Gdotaccent" unicode="&#x120;" horiz-adv-x="727" 
d="M397 862q6 28 27 47.5t53 19.5q39 0 57.5 -24.5t11.5 -60.5q-6 -29 -26.5 -48t-52.5 -19q-40 0 -58.5 24.5t-11.5 60.5zM548 482q-6 102 -116 102q-89 0 -143.5 -62.5t-75.5 -172.5q-42 -218 118 -218q65 0 115 35.5t62 87.5l-137 -4l25 130h322l-74 -380h-128v91l-2 -4
q-73 -103 -218 -103q-153 0 -222.5 107t-36.5 276q31 163 138.5 263.5t267.5 100.5q144 0 216.5 -74t65.5 -183z" />
    <glyph glyph-name="gdotaccent" unicode="&#x121;" horiz-adv-x="568" 
d="M330 574q-40 0 -59 24.5t-12 60.5q6 28 27 47.5t53 19.5q39 0 58 -24.5t12 -60.5q-6 -29 -26.5 -48t-52.5 -19zM420 512h160l-91 -466q-24 -122 -90.5 -172.5t-184.5 -50.5q-114 0 -172 48t-69 114h156q20 -47 83 -47q55 0 81.5 30t39.5 97l3 20q-59 -61 -143 -61
q-101 0 -149 72.5t-25 188.5q21 108 90 175.5t162 67.5q94 0 133 -71l6 4zM373 285q24 123 -63 123q-110 0 -135 -131q-12 -61 3.5 -97t59.5 -36q52 0 87 37t48 104z" />
    <glyph glyph-name="Gcommaaccent" unicode="&#x122;" horiz-adv-x="727" 
d="M548 482q-6 102 -116 102q-89 0 -143.5 -62.5t-75.5 -172.5q-42 -218 118 -218q65 0 115 35.5t62 87.5l-137 -4l25 130h322l-74 -380h-128v91l-2 -4q-73 -103 -218 -103q-153 0 -222.5 107t-36.5 276q31 163 138.5 263.5t267.5 100.5q144 0 216.5 -74t65.5 -183z
M285 -166q-33 -10 -52.5 10t-13.5 52q5 24 25 40.5t45 16.5q38 0 54 -27.5t8 -70.5q-21 -106 -149 -118l-2 47q69 9 85 50z" />
    <glyph glyph-name="gcommaaccent" unicode="&#x123;" horiz-adv-x="568" 
d="M332 569q-41 0 -60 28t-10 70q21 106 149 118l2 -47q-69 -9 -85 -50q33 10 52.5 -10.5t13.5 -53.5q-12 -55 -62 -55zM420 512h160l-91 -466q-24 -122 -90.5 -172.5t-184.5 -50.5q-114 0 -172 48t-69 114h156q20 -47 83 -47q55 0 81.5 30t39.5 97l3 20q-59 -61 -143 -61
q-101 0 -149 72.5t-25 188.5q21 108 90 175.5t162 67.5q94 0 133 -71l6 4zM373 285q24 123 -63 123q-110 0 -135 -131q-12 -61 3.5 -97t59.5 -36q52 0 87 37t48 104z" />
    <glyph glyph-name="Hbar" unicode="&#x126;" horiz-adv-x="703" 
d="M778 616l-18 -90h-56l-102 -526h-180l56 288h-245l-56 -288h-180l102 526h-53l18 90h53l19 99h180l-19 -99h245l19 99h180l-19 -99h56zM507 435l17 91h-245l-17 -91h245z" />
    <glyph glyph-name="hbar" unicode="&#x127;" horiz-adv-x="567" 
d="M400 528q85 0 125 -49.5t24 -136.5l-67 -342h-160l58 299q11 57 -1 78t-52 21q-44 0 -79 -27.5t-45 -78.5l-57 -292h-160l112 575h-48l18 90h48l9 50h160l-9 -50h148l-18 -90h-148l-27 -137l1 4q66 86 168 86z" />
    <glyph glyph-name="Imacron" unicode="&#x12a;" horiz-adv-x="276" 
d="M115 903h286l-20 -100h-286zM133 715h180l-139 -715h-180z" />
    <glyph glyph-name="imacron" unicode="&#x12b;" horiz-adv-x="265" 
d="M75 700h286l-19 -100h-286zM104 512h160l-100 -512h-160z" />
    <glyph glyph-name="Iogonek" unicode="&#x12e;" horiz-adv-x="320" 
d="M155 -83q18 0 48 8l-8 -92q-42 -10 -78 -10q-60 0 -87 24.5t-19 68.5q11 55 82 86l-104 -2l139 715h180l-139 -715h-2q-37 -33 -37 -60q0 -23 25 -23z" />
    <glyph glyph-name="iogonek" unicode="&#x12f;" horiz-adv-x="267" 
d="M165 574q-40 0 -59 24.5t-12 60.5q6 28 27 47.5t53 19.5q39 0 58 -24.5t12 -60.5q-6 -29 -26.5 -48t-52.5 -19zM123 -83q18 0 39 8l-8 -92q-42 -10 -78 -10q-60 0 -87 24.5t-19 68.5q11 55 82 86l-85 -2l100 512h160l-100 -512h-2q-35 -28 -35 -56q0 -27 33 -27z" />
    <glyph glyph-name="Idotaccent" unicode="&#x130;" horiz-adv-x="277" 
d="M175 862q6 28 27 47.5t53 19.5q39 0 57.5 -24.5t11.5 -60.5q-6 -29 -26.5 -48t-52.5 -19q-40 0 -58.5 24.5t-11.5 60.5zM137 715h180l-139 -715h-180z" />
    <glyph glyph-name="dotlessi" unicode="&#x131;" horiz-adv-x="220" 
d="M80 512h160l-100 -512h-160z" />
    <glyph glyph-name="Kcommaaccent" unicode="&#x136;" horiz-adv-x="689" 
d="M136 715h180l-58 -290l305 290h214l-335 -315l202 -400h-206l-132 271l-90 -82l-39 -189h-180zM278 -166q-33 -10 -52.5 10t-13.5 52q5 24 25 40.5t45 16.5q38 0 54 -27.5t8 -70.5q-21 -106 -149 -118l-2 47q69 9 85 50z" />
    <glyph glyph-name="kcommaaccent" unicode="&#x137;" horiz-adv-x="552" 
d="M126 715h160l-75 -376l184 173h195l-221 -192l138 -320h-186l-79 204l-64 -53l-31 -151h-160zM204 -166q-33 -10 -52.5 10t-13.5 52q5 24 25 40.5t45 16.5q38 0 54 -27.5t8 -70.5q-21 -106 -149 -118l-2 47q69 9 85 50z" />
    <glyph glyph-name="Lacute" unicode="&#x139;" horiz-adv-x="560" 
d="M246 923h184l-131 -140h-123zM136 715h180l-110 -568h318l-29 -147h-498z" />
    <glyph glyph-name="lacute" unicode="&#x13a;" horiz-adv-x="253" 
d="M227 910h183l-130 -140h-123zM127 715h160l-139 -715h-160z" />
    <glyph glyph-name="Lcommaaccent" unicode="&#x13b;" horiz-adv-x="560" 
d="M136 715h180l-110 -568h318l-29 -147h-498zM222 -166q-33 -10 -52.5 10t-13.5 52q5 24 25 40.5t45 16.5q38 0 54 -27.5t8 -70.5q-21 -106 -149 -118l-2 47q69 9 85 50z" />
    <glyph glyph-name="lcommaaccent" unicode="&#x13c;" horiz-adv-x="237" 
d="M127 715h160l-139 -715h-160zM44 -166q-33 -10 -52.5 10t-13.5 52q5 24 25 40.5t45 16.5q38 0 54 -27.5t8 -70.5q-21 -106 -149 -118l-2 47q69 9 85 50z" />
    <glyph glyph-name="Lcaron" unicode="&#x13d;" horiz-adv-x="558" 
d="M494 601q-33 -10 -52.5 10t-13.5 52q5 24 25 40.5t45 16.5q38 0 54.5 -28t7.5 -70q-21 -106 -149 -118l-2 47q69 9 85 50zM134 715h180l-110 -568h318l-29 -147h-498z" />
    <glyph glyph-name="lcaron" unicode="&#x13e;" horiz-adv-x="271" 
d="M395 601q-33 -10 -52.5 10t-13.5 52q5 24 25 40.5t45 16.5q38 0 54.5 -28t7.5 -70q-21 -106 -149 -118l-2 47q69 9 85 50zM125 715h160l-139 -715h-160z" />
    <glyph glyph-name="Lslash" unicode="&#x141;" horiz-adv-x="569" 
d="M212 147h318l-29 -147h-498l43 214l-66 -43l20 117l66 43l76 384h180l-50 -251l208 134l-20 -117l-208 -134z" />
    <glyph glyph-name="lslash" unicode="&#x142;" horiz-adv-x="280" 
d="M334 543l-20 -117l-69 -45l-76 -381h-160l53 263l-65 -42l20 117l65 42l66 335h160l-43 -217z" />
    <glyph glyph-name="Nacute" unicode="&#x143;" horiz-adv-x="707" 
d="M459 923h184l-131 -140h-123zM-3 0l139 715h178l168 -425h4l82 425h180l-139 -715h-178l-167 425h-4l-83 -425h-180z" />
    <glyph glyph-name="nacute" unicode="&#x144;" horiz-adv-x="568" 
d="M565 720l-130 -140h-123l70 140h183zM410 528q79 0 117.5 -49.5t22.5 -136.5l-67 -342h-160l58 299q11 56 -1 77.5t-49 21.5q-106 0 -127 -106l-57 -292h-160l100 512h160l-15 -74l1 4q66 86 177 86z" />
    <glyph glyph-name="Ncommaaccent" unicode="&#x145;" horiz-adv-x="707" 
d="M-3 0l139 715h178l168 -425h4l82 425h180l-139 -715h-178l-167 425h-4l-83 -425h-180zM279 -166q-33 -10 -52.5 10t-13.5 52q5 24 25 40.5t45 16.5q38 0 54 -27.5t8 -70.5q-21 -106 -149 -118l-2 47q69 9 85 50z" />
    <glyph glyph-name="ncommaaccent" unicode="&#x146;" horiz-adv-x="568" 
d="M410 528q79 0 117.5 -49.5t22.5 -136.5l-67 -342h-160l58 299q11 56 -1 77.5t-49 21.5q-106 0 -127 -106l-57 -292h-160l100 512h160l-15 -74l1 4q66 86 177 86zM215 -47q38 0 54 -27.5t8 -70.5q-21 -106 -149 -118l-2 47q69 9 85 50q-33 -10 -52.5 10t-13.5 52
q5 24 25 40.5t45 16.5z" />
    <glyph glyph-name="Ncaron" unicode="&#x147;" horiz-adv-x="707" 
d="M296 923h135l31 -69h2l59 69h143l-135 -140h-156zM-3 0l139 715h178l168 -425h4l82 425h180l-139 -715h-178l-167 425h-4l-83 -425h-180z" />
    <glyph glyph-name="ncaron" unicode="&#x148;" horiz-adv-x="568" 
d="M454 580h-156l-80 140h135l32 -69l60 69h143zM410 528q79 0 117.5 -49.5t22.5 -136.5l-67 -342h-160l58 299q11 56 -1 77.5t-49 21.5q-106 0 -127 -106l-57 -292h-160l100 512h160l-15 -74l1 4q66 86 177 86z" />
    <glyph glyph-name="Eng" unicode="&#x14a;" horiz-adv-x="707" 
d="M-3 0l139 715h178l168 -425h4l82 425h180l-131 -673q-42 -219 -231 -219q-54 0 -101 11l13 116q57 0 84 12.5t48 41.5l-166 421h-4l-83 -425h-180z" />
    <glyph glyph-name="eng" unicode="&#x14b;" horiz-adv-x="568" 
d="M478 -16q-23 -93 -59 -133t-115 -40q-45 0 -101 12l13 119q56 0 77 10.5t29 51.5l57 295q11 56 -1 77.5t-49 21.5q-106 0 -127 -106l-57 -292h-160l100 512h160l-15 -74l1 4q66 86 177 86q79 0 117.5 -49.5t22.5 -136.5z" />
    <glyph glyph-name="Omacron" unicode="&#x14c;" horiz-adv-x="737" 
d="M350 903h286l-20 -100h-286zM326 -16q-170 0 -246 106.5t-43 276.5q31 162 141.5 263t272.5 101q169 0 246 -106.5t44 -275.5q-32 -162 -143 -263.5t-272 -101.5zM335 131q95 0 152 65t78 171q42 217 -122 217q-96 0 -153 -64.5t-77 -170.5q-42 -218 122 -218z" />
    <glyph glyph-name="omacron" unicode="&#x14d;" horiz-adv-x="574" 
d="M228 700h286l-19 -100h-286zM224 -16q-123 0 -179.5 72.5t-33.5 190.5q24 125 116.5 203t222.5 78q122 0 178.5 -73t33.5 -190q-24 -125 -116 -203t-222 -78zM254 104q49 0 86.5 36.5t56.5 106.5q22 78 1 119.5t-78 41.5q-50 0 -87.5 -36.5t-56.5 -106.5
q-22 -78 -1 -119.5t79 -41.5z" />
    <glyph glyph-name="Ohungarumlaut" unicode="&#x150;" horiz-adv-x="737" 
d="M360 923h184l-131 -140h-123zM580 923h184l-131 -140h-123zM326 -16q-170 0 -246 106.5t-43 276.5q31 162 141.5 263t272.5 101q169 0 246 -106.5t44 -275.5q-32 -162 -143 -263.5t-272 -101.5zM335 131q95 0 152 65t78 171q42 217 -122 217q-96 0 -153 -64.5t-77 -170.5
q-42 -218 122 -218z" />
    <glyph glyph-name="ohungarumlaut" unicode="&#x151;" horiz-adv-x="574" 
d="M239 720h183l-130 -140h-123zM459 720h183l-130 -140h-123zM224 -16q-123 0 -179.5 72.5t-33.5 190.5q24 125 116.5 203t222.5 78q122 0 178.5 -73t33.5 -190q-24 -125 -116 -203t-222 -78zM254 104q49 0 86.5 36.5t56.5 106.5q22 78 1 119.5t-78 41.5q-50 0 -87.5 -36.5
t-56.5 -106.5q-22 -78 -1 -119.5t79 -41.5z" />
    <glyph glyph-name="OE" unicode="&#x152;" horiz-adv-x="1089" 
d="M670 147h368l-29 -147h-548l12 42q-77 -58 -177 -58q-150 0 -221 107.5t-38 275.5q30 160 136 262t248 102q105 0 166 -64l13 48h542l-28 -147h-362l-25 -127h312l-29 -147h-312zM335 131q100 0 167 93l59 276q-30 84 -118 84q-96 0 -153 -64.5t-77 -170.5
q-42 -218 122 -218z" />
    <glyph glyph-name="oe" unicode="&#x153;" horiz-adv-x="949" 
d="M928 216h-368q-10 -54 17.5 -83t71.5 -29q42 0 69 17t31 38h161q-76 -175 -271 -175q-126 0 -190 81q-92 -81 -224 -81q-123 0 -179.5 72.5t-33.5 190.5q24 125 116.5 203t222.5 78q112 0 169 -62q79 62 194 62q131 0 186.5 -86.5t27.5 -225.5zM708 418
q-50 0 -84.5 -29.5t-44.5 -82.5h210q9 57 -13.5 84.5t-67.5 27.5zM255 104q49 0 86.5 36.5t56.5 106.5q22 78 1 119.5t-78 41.5q-50 0 -87.5 -36.5t-56.5 -106.5q-22 -78 -1 -119.5t79 -41.5z" />
    <glyph glyph-name="Racute" unicode="&#x154;" horiz-adv-x="648" 
d="M424 923h184l-131 -140h-123zM-3 0l139 715h332q121 0 179.5 -56.5t38.5 -160.5q-27 -135 -171 -167l-12 -2q41 -7 64.5 -33.5t28 -60.5t4.5 -73t-7 -71.5t-5.5 -55.5t8.5 -26l3 -9l-182 3q-10 11 -4.5 37.5t9.5 62.5t4.5 68.5t-20 55t-63.5 22.5h-117l-49 -249h-180z
M288 568l-34 -172h117q115 0 134 95q7 41 -14.5 59t-75.5 18h-127z" />
    <glyph glyph-name="racute" unicode="&#x155;" horiz-adv-x="384" 
d="M453 720l-130 -140h-123l70 140h183zM366 521q26 0 48 -5l-23 -137q-63 10 -123 -29.5t-75 -115.5l-46 -234h-160l100 512h160l-17 -84l1 4q56 89 135 89z" />
    <glyph glyph-name="Rcommaaccent" unicode="&#x156;" horiz-adv-x="648" 
d="M-3 0l139 715h332q121 0 179.5 -56.5t38.5 -160.5q-27 -135 -171 -167l-12 -2q41 -7 64.5 -33.5t28 -60.5t4.5 -73t-7 -71.5t-5.5 -55.5t8.5 -26l3 -9l-182 3q-10 11 -4.5 37.5t9.5 62.5t4.5 68.5t-20 55t-63.5 22.5h-117l-49 -249h-180zM288 568l-34 -172h117
q115 0 134 95q7 41 -14.5 59t-75.5 18h-127zM274 -166q-33 -10 -52.5 10t-13.5 52q5 24 25 40.5t45 16.5q38 0 54 -27.5t8 -70.5q-21 -106 -149 -118l-2 47q69 9 85 50z" />
    <glyph glyph-name="rcommaaccent" unicode="&#x157;" horiz-adv-x="384" 
d="M366 521q26 0 48 -5l-23 -137q-63 10 -123 -29.5t-75 -115.5l-46 -234h-160l100 512h160l-17 -84l1 4q56 89 135 89zM53 -47q38 0 54 -27.5t8 -70.5q-21 -106 -149 -118l-2 47q69 9 85 50q-33 -10 -52.5 10t-13.5 52q5 24 25 40.5t45 16.5z" />
    <glyph glyph-name="Rcaron" unicode="&#x158;" horiz-adv-x="648" 
d="M261 923h135l31 -69h2l59 69h143l-135 -140h-156zM-3 0l139 715h332q121 0 179.5 -56.5t38.5 -160.5q-27 -135 -171 -167l-12 -2q41 -7 64.5 -33.5t28 -60.5t4.5 -73t-7 -71.5t-5.5 -55.5t8.5 -26l3 -9l-182 3q-10 11 -4.5 37.5t9.5 62.5t4.5 68.5t-20 55t-63.5 22.5
h-117l-49 -249h-180zM288 568l-34 -172h117q115 0 134 95q7 41 -14.5 59t-75.5 18h-127z" />
    <glyph glyph-name="rcaron" unicode="&#x159;" horiz-adv-x="382" 
d="M345 580h-156l-80 140h135l32 -69h2l58 69h143zM369 521q25 0 48 -5l-23 -137q-63 10 -123 -29.5t-75 -115.5l-46 -234h-160l100 512h160l-17 -84l1 4q56 89 135 89z" />
    <glyph glyph-name="Sacute" unicode="&#x15a;" horiz-adv-x="629" 
d="M414 923h184l-131 -140h-123zM364 441h1l1 -1h1l1 -1h1h1l1 -1h2q118 -46 159 -77q77 -58 69 -170q-7 -99 -85 -153t-210 -54q-143 0 -224.5 66.5t-81.5 180.5h178q0 -53 39 -76.5t99 -23.5q99 0 106 66q2 17 -3.5 29.5t-22.5 22t-30.5 15t-45 15.5t-49.5 17
q-106 38 -157 90.5t-38 146.5q14 100 94.5 149t200.5 49q128 0 202.5 -62.5t74.5 -166.5h-177q1 39 -28.5 60.5t-79.5 21.5q-102 0 -109 -56q-4 -28 20 -45t90 -42z" />
    <glyph glyph-name="sacute" unicode="&#x15b;" horiz-adv-x="504" 
d="M315 720h183l-130 -140h-123zM291 321q83 -26 129.5 -61.5t46.5 -97.5q0 -90 -63.5 -134t-171.5 -44q-241 0 -241 182h148q-7 -72 89 -72q80 0 80 53q0 8 -2 13.5t-7 10.5t-10.5 8t-16 6.5l-19.5 6.5t-25 7.5t-28 8.5q-77 25 -118.5 57t-41.5 88q0 81 63.5 128t162.5 47
q123 0 174.5 -48.5t51.5 -120.5h-147q2 29 -20 44t-59 15q-67 0 -67 -40q0 -20 15.5 -29.5t62.5 -23.5q9 -3 14 -4z" />
    <glyph glyph-name="Scedilla" unicode="&#x15e;" horiz-adv-x="629" 
d="M364 441h1l1 -1h1l1 -1h1h1l1 -1h2q118 -46 159 -77q77 -58 69 -170q-7 -99 -83.5 -152.5t-206.5 -54.5l-43 -36l-8 -2q47 5 78.5 -15.5t23.5 -60.5q-6 -31 -44.5 -49.5t-89.5 -18.5q-65 0 -114 31l29 31q26 -13 61 -13q20 0 39.5 10t22.5 28q1 10 -5.5 14t-19.5 4
q-17 0 -40 -9l-18 26l69 63q-119 13 -185.5 77.5t-66.5 166.5h178q0 -53 39 -76.5t99 -23.5q99 0 106 66q2 17 -3.5 29.5t-22.5 22t-30.5 15t-45 15.5t-49.5 17q-106 38 -157 90.5t-38 146.5q14 100 94.5 149t200.5 49q128 0 202.5 -62.5t74.5 -166.5h-177q1 39 -28.5 60.5
t-79.5 21.5q-102 0 -109 -56q-4 -28 20 -45t90 -42z" />
    <glyph glyph-name="scedilla" unicode="&#x15f;" horiz-adv-x="504" 
d="M291 321q83 -26 129.5 -61.5t46.5 -97.5q0 -87 -59 -131t-161 -47l-42 -36l-8 -2q47 5 78.5 -15.5t23.5 -60.5q-6 -31 -44.5 -49.5t-89.5 -18.5q-65 0 -114 31l29 31q26 -13 61 -13q20 0 39.5 10t22.5 28q1 10 -5.5 14t-19.5 4q-18 0 -40 -9l-18 26l67 62
q-196 17 -196 180h148q-7 -72 89 -72q80 0 80 53q0 8 -2 13.5t-7 10.5t-10.5 8t-16 6.5l-19.5 6.5t-25 7.5t-28 8.5q-77 25 -118.5 57t-41.5 88q0 81 63.5 128t162.5 47q123 0 174.5 -48.5t51.5 -120.5h-147q2 29 -20 44t-59 15q-67 0 -67 -40q0 -20 15.5 -29.5t62.5 -23.5
q9 -3 14 -4z" />
    <glyph glyph-name="Scaron" unicode="&#x160;" horiz-adv-x="629" 
d="M251 923h135l31 -69h2l59 69h143l-135 -140h-156zM364 441h1l1 -1h1l1 -1h1h1l1 -1h2q118 -46 159 -77q77 -58 69 -170q-7 -99 -85 -153t-210 -54q-143 0 -224.5 66.5t-81.5 180.5h178q0 -53 39 -76.5t99 -23.5q99 0 106 66q2 17 -3.5 29.5t-22.5 22t-30.5 15t-45 15.5
t-49.5 17q-106 38 -157 90.5t-38 146.5q14 100 94.5 149t200.5 49q128 0 202.5 -62.5t74.5 -166.5h-177q1 39 -28.5 60.5t-79.5 21.5q-102 0 -109 -56q-4 -28 20 -45t90 -42z" />
    <glyph glyph-name="scaron" unicode="&#x161;" horiz-adv-x="504" 
d="M151 720h135l32 -69h2l58 69h143l-134 -140h-156zM291 321q83 -26 129.5 -61.5t46.5 -97.5q0 -90 -63.5 -134t-171.5 -44q-241 0 -241 182h148q-7 -72 89 -72q80 0 80 53q0 8 -2 13.5t-7 10.5t-10.5 8t-16 6.5l-19.5 6.5t-25 7.5t-28 8.5q-77 25 -118.5 57t-41.5 88
q0 81 63.5 128t162.5 47q123 0 174.5 -48.5t51.5 -120.5h-147q2 29 -20 44t-59 15q-67 0 -67 -40q0 -20 15.5 -29.5t62.5 -23.5q9 -3 14 -4z" />
    <glyph glyph-name="uni0162" unicode="&#x162;" horiz-adv-x="629" 
d="M302 0l-45 -42l-8 -2q47 5 78.5 -15.5t23.5 -60.5q-7 -31 -45 -49.5t-89 -18.5q-65 0 -114 31l29 31q26 -13 61 -13q20 0 39.5 10t22.5 28q1 10 -5.5 14t-19.5 4q-18 0 -40 -9l-19 26l68 66h-64l111 568h-208l28 147h595l-28 -147h-207l-111 -568h-53z" />
    <glyph glyph-name="uni0163" unicode="&#x163;" horiz-adv-x="350" 
d="M164 -44q47 5 78.5 -15.5t23.5 -60.5q-7 -31 -45 -49.5t-89 -18.5q-65 0 -114 31l29 31q26 -13 61 -13q20 0 39.5 10t22.5 28q1 10 -5.5 14t-19.5 4q-17 0 -40 -9l-18 26l67 59q-65 7 -85 52t-4 127l42 220h-71l24 120h71l28 143h160l-28 -143h89l-24 -120h-89l-42 -216
q-7 -38 4 -46t58 -8h12l-14 -121q-37 -8 -72 -9l-42 -34z" />
    <glyph glyph-name="Tcaron" unicode="&#x164;" horiz-adv-x="624" 
d="M255 923h135l31 -69h2l59 69h143l-135 -140h-156zM172 0l111 568h-208l28 147h595l-28 -147h-207l-111 -568h-180z" />
    <glyph glyph-name="tcaron" unicode="&#x165;" horiz-adv-x="369" 
d="M435 770q38 0 54 -27.5t8 -70.5q-21 -106 -150 -118l-1 47q69 9 85 50q-33 -10 -52.5 10t-13.5 52q5 24 25 40.5t45 16.5zM318 655l-28 -143h89l-24 -120h-89l-42 -216q-7 -38 4 -46t58 -8h12l-14 -121q-50 -10 -96 -10q-88 0 -115 45t-9 136l42 220h-71l24 120h71
l28 143h160z" />
    <glyph glyph-name="Tbar" unicode="&#x166;" horiz-adv-x="621" 
d="M670 568h-207l-30 -153h134l-18 -90h-134l-63 -325h-180l63 325h-134l18 90h134l30 153h-208l28 147h595z" />
    <glyph glyph-name="tbar" unicode="&#x167;" horiz-adv-x="349" 
d="M325 234h-90l-12 -58q-7 -38 4 -46t58 -8h12l-14 -121q-50 -10 -96 -10q-88 0 -115 45t-9 136l12 62h-70l17 90h70l13 68h-71l24 120h71l28 143h160l-28 -143h89l-24 -120h-89l-13 -68h90z" />
    <glyph glyph-name="Umacron" unicode="&#x16a;" horiz-adv-x="684" 
d="M322 903h286l-20 -100h-286zM640 254q-27 -137 -107.5 -203.5t-234.5 -66.5q-161 0 -221 70t-34 208l88 453h180l-89 -461q-14 -68 7 -95.5t78 -27.5q129 0 154 131l88 453h180z" />
    <glyph glyph-name="umacron" unicode="&#x16b;" horiz-adv-x="566" 
d="M502 700l-19 -100h-286l19 100h286zM417 512h160l-100 -512h-160l15 74l-1 -4q-66 -86 -177 -86q-79 0 -117.5 49.5t-22.5 136.5l67 342h160l-58 -299q-11 -56 1 -77.5t49 -21.5q106 0 127 106z" />
    <glyph glyph-name="Uring" unicode="&#x16e;" horiz-adv-x="684" 
d="M445 772q-47 0 -73.5 30t-17.5 79q8 41 39.5 66t70.5 25q47 0 74 -30.5t17 -78.5q-9 -42 -40 -66.5t-70 -24.5zM446 827q21 0 34.5 12.5t16.5 31.5q4 24 -6.5 35t-27.5 11q-21 0 -34 -12.5t-16 -31.5q-4 -23 6 -34.5t27 -11.5zM640 254q-27 -137 -107.5 -203.5
t-234.5 -66.5q-161 0 -221 70t-34 208l88 453h180l-89 -461q-14 -68 7 -95.5t78 -27.5q129 0 154 131l88 453h180z" />
    <glyph glyph-name="uring" unicode="&#x16f;" horiz-adv-x="566" 
d="M340 569q-47 0 -73.5 30t-17.5 79q8 41 39.5 66t70.5 25q47 0 73.5 -30.5t17.5 -78.5q-9 -42 -40 -66.5t-70 -24.5zM341 624q42 0 51 44q4 24 -6.5 35t-27.5 11q-41 0 -50 -44q-4 -23 6 -34.5t27 -11.5zM417 512h160l-100 -512h-160l15 74l-1 -4q-66 -86 -177 -86
q-79 0 -117.5 49.5t-22.5 136.5l67 342h160l-58 -299q-11 -56 1 -77.5t49 -21.5q106 0 127 106z" />
    <glyph glyph-name="Uhungarumlaut" unicode="&#x170;" horiz-adv-x="684" 
d="M332 923h184l-131 -140h-123zM552 923h184l-131 -140h-123zM640 254q-27 -137 -107.5 -203.5t-234.5 -66.5q-161 0 -221 70t-34 208l88 453h180l-89 -461q-14 -68 7 -95.5t78 -27.5q129 0 154 131l88 453h180z" />
    <glyph glyph-name="uhungarumlaut" unicode="&#x171;" horiz-adv-x="566" 
d="M410 720l-130 -140h-123l70 140h183zM630 720l-130 -140h-123l70 140h183zM360 220l57 292h160l-100 -512h-160l15 74l-1 -4q-66 -86 -177 -86q-79 0 -117.5 49.5t-22.5 136.5l67 342h160l-58 -299q-11 -56 1 -77.5t49 -21.5q106 0 127 106z" />
    <glyph glyph-name="Uogonek" unicode="&#x172;" horiz-adv-x="684" 
d="M549 715h180l-89 -461q-41 -208 -201 -254q-42 -10 -49 -54q-6 -29 20 -29q18 0 48 8l-8 -92q-42 -10 -78 -10q-60 0 -87 24.5t-19 68.5q9 44 58 71q-7 -3 -26 -3q-161 0 -221 70t-34 208l88 453h180l-89 -461q-14 -68 7 -95.5t78 -27.5q129 0 154 131z" />
    <glyph glyph-name="uogonek" unicode="&#x173;" horiz-adv-x="566" 
d="M467 -83q11 0 41 8l-8 -92q-42 -10 -78 -10q-60 0 -87 24.5t-19 68.5q11 55 82 86l-81 -2l15 74l-1 -4q-66 -86 -177 -86q-79 0 -117.5 49.5t-22.5 136.5l67 342h160l-58 -299q-11 -56 1 -77.5t49 -21.5q106 0 127 106l57 292h160l-100 -512h-2q-39 -29 -39 -57
q0 -26 31 -26z" />
    <glyph glyph-name="Wcircumflex" unicode="&#x174;" horiz-adv-x="943" 
d="M379 783l134 140h156l80 -140h-136l-31 69h-2l-59 -69h-142zM88 715h178l-2 -485h2l205 485h170l17 -485h2l186 485h182l-321 -715h-180l-20 446h-2l-194 -446h-180z" />
    <glyph glyph-name="wcircumflex" unicode="&#x175;" horiz-adv-x="788" 
d="M263 580l134 140h156l80 -140h-135l-32 69h-2l-58 -69h-143zM50 512h158l16 -312h2l145 312h140l23 -312h2l138 312h162l-243 -512h-149l-36 324h-2l-162 -324h-151z" />
    <glyph glyph-name="Ycircumflex" unicode="&#x176;" horiz-adv-x="657" 
d="M239 783l134 140h156l80 -140h-136l-31 69h-2l-59 -69h-142zM88 715h186l82 -294h1l198 294h194l-329 -451l-53 -264h-180l53 264z" />
    <glyph glyph-name="ycircumflex" unicode="&#x177;" horiz-adv-x="535" 
d="M137 580l134 140h156l80 -140h-135l-32 69h-2l-58 -69h-143zM584 512l-276 -526q-51 -97 -97.5 -130t-125.5 -33q-43 0 -92 11l19 117q31 -6 58 2t41 29q31 28 22 96l-84 434h157l51 -336h2l162 336h163z" />
    <glyph glyph-name="Ydieresis" unicode="&#x178;" horiz-adv-x="657" 
d="M260 862q6 28 27 47.5t53 19.5q39 0 57.5 -24.5t11.5 -60.5q-6 -29 -26.5 -48t-52.5 -19q-40 0 -58.5 24.5t-11.5 60.5zM475 862q6 28 27 47.5t53 19.5q39 0 57.5 -24.5t11.5 -60.5q-6 -29 -26.5 -48t-52.5 -19q-40 0 -58.5 24.5t-11.5 60.5zM88 715h186l82 -294h1
l198 294h194l-329 -451l-53 -264h-180l53 264z" />
    <glyph glyph-name="Zacute" unicode="&#x179;" horiz-adv-x="605" 
d="M418 923h184l-131 -140h-123zM132 715h527l-27 -147l-408 -419l-2 -2h337l-29 -147h-557l27 147l408 419l3 2h-307z" />
    <glyph glyph-name="zacute" unicode="&#x17a;" horiz-adv-x="497" 
d="M322 720h183l-130 -140h-123zM-9 115l302 275l2 2h-229l24 120h429l-21 -115l-302 -275l-2 -2h259l-24 -120h-459z" />
    <glyph glyph-name="Zdotaccent" unicode="&#x17b;" horiz-adv-x="605" 
d="M349 862q6 28 27 47.5t53 19.5q39 0 57.5 -24.5t11.5 -60.5q-6 -29 -26.5 -48t-52.5 -19q-40 0 -58.5 24.5t-11.5 60.5zM132 715h527l-27 -147l-408 -419l-2 -2h337l-29 -147h-557l27 147l408 419l3 2h-307z" />
    <glyph glyph-name="zdotaccent" unicode="&#x17c;" horiz-adv-x="497" 
d="M252 659q6 28 27 47.5t53 19.5q39 0 58 -24.5t12 -60.5q-6 -29 -26.5 -48t-52.5 -19q-40 0 -59 24.5t-12 60.5zM-9 115l302 275l2 2h-229l24 120h429l-21 -115l-302 -275l-2 -2h259l-24 -120h-459z" />
    <glyph glyph-name="Zcaron" unicode="&#x17d;" horiz-adv-x="605" 
d="M255 923h135l31 -69h2l59 69h143l-135 -140h-156zM132 715h527l-27 -147l-408 -419l-2 -2h337l-29 -147h-557l27 147l408 419l3 2h-307z" />
    <glyph glyph-name="zcaron" unicode="&#x17e;" horiz-adv-x="497" 
d="M158 720h135l32 -69h2l58 69h143l-134 -140h-156zM-9 115l302 275l2 2h-229l24 120h429l-21 -115l-302 -275l-2 -2h259l-24 -120h-459z" />
    <glyph glyph-name="Scommaaccent" unicode="&#x218;" horiz-adv-x="629" 
d="M364 441h1l1 -1h1l1 -1h1h1l1 -1h2q118 -46 159 -77q77 -58 69 -170q-7 -99 -85 -153t-210 -54q-143 0 -224.5 66.5t-81.5 180.5h178q0 -53 39 -76.5t99 -23.5q99 0 106 66q2 17 -3.5 29.5t-22.5 22t-30.5 15t-45 15.5t-49.5 17q-106 38 -157 90.5t-38 146.5
q14 100 94.5 149t200.5 49q128 0 202.5 -62.5t74.5 -166.5h-177q1 39 -28.5 60.5t-79.5 21.5q-102 0 -109 -56q-4 -28 20 -45t90 -42zM254 -166q-33 -10 -52.5 10t-13.5 52q5 24 25 40.5t45 16.5q38 0 54 -27.5t8 -70.5q-21 -106 -149 -118l-2 47q69 9 85 50z" />
    <glyph glyph-name="scommaaccent" unicode="&#x219;" horiz-adv-x="504" 
d="M291 321q83 -26 129.5 -61.5t46.5 -97.5q0 -90 -63.5 -134t-171.5 -44q-241 0 -241 182h148q-7 -72 89 -72q80 0 80 53q0 8 -2 13.5t-7 10.5t-10.5 8t-16 6.5l-19.5 6.5t-25 7.5t-28 8.5q-77 25 -118.5 57t-41.5 88q0 81 63.5 128t162.5 47q123 0 174.5 -48.5
t51.5 -120.5h-147q2 29 -20 44t-59 15q-67 0 -67 -40q0 -20 15.5 -29.5t62.5 -23.5q9 -3 14 -4zM191 -166q-33 -10 -52.5 10t-13.5 52q5 24 25 40.5t45 16.5q38 0 54 -27.5t8 -70.5q-21 -106 -149 -118l-2 47q69 9 85 50z" />
    <glyph glyph-name="uni021A" unicode="&#x21a;" horiz-adv-x="624" 
d="M172 0l111 568h-208l28 147h595l-28 -147h-207l-111 -568h-180zM240 -156q-33 -10 -52.5 10t-13.5 52q5 24 25 40.5t45 16.5q38 0 54 -27.5t8 -70.5q-21 -106 -150 -118l-1 47q69 9 85 50z" />
    <glyph glyph-name="uni021B" unicode="&#x21b;" horiz-adv-x="350" 
d="M356 392h-89l-42 -216q-7 -38 4 -46t58 -8h12l-14 -121q-50 -10 -96 -10q-88 0 -115 45t-9 136l42 220h-71l24 120h71l28 143h160l-28 -143h89zM162 -37q38 0 54 -27.5t8 -70.5q-21 -106 -150 -118l-1 47q69 9 85 50q-33 -10 -52.5 10t-13.5 52q5 24 25 40.5t45 16.5z
" />
    <glyph glyph-name="circumflex" unicode="&#x2c6;" horiz-adv-x="498" 
d="M121 580l134 140h156l80 -140h-135l-32 69h-2l-58 -69h-143z" />
    <glyph glyph-name="caron" unicode="&#x2c7;" horiz-adv-x="498" 
d="M154 720h135l32 -69h2l58 69h143l-134 -140h-156z" />
    <glyph glyph-name="breve" unicode="&#x2d8;" horiz-adv-x="495" 
d="M334 574q-72 0 -111.5 42t-29.5 108l90 -8q-2 -22 10 -33t40 -11q35 0 58 14.5t30 37.5l91 -8q-16 -65 -64 -103.5t-114 -38.5z" />
    <glyph glyph-name="dotaccent" unicode="&#x2d9;" horiz-adv-x="485" 
d="M243 659q6 28 27 47.5t53 19.5q39 0 58 -24.5t12 -60.5q-6 -29 -26.5 -48t-52.5 -19q-40 0 -59 24.5t-12 60.5z" />
    <glyph glyph-name="ring" unicode="&#x2da;" horiz-adv-x="488" 
d="M315 569q-47 0 -73.5 30t-17.5 79q8 41 39.5 66t70.5 25q47 0 74 -30.5t17 -78.5q-9 -42 -40 -66.5t-70 -24.5zM316 624q21 0 34.5 12.5t16.5 31.5q4 24 -6.5 35t-27.5 11q-21 0 -34 -12.5t-16 -31.5q-4 -23 6 -34.5t27 -11.5z" />
    <glyph glyph-name="ogonek" unicode="&#x2db;" horiz-adv-x="503" 
d="M191 -177q-60 0 -87 24.5t-19 68.5q11 55 82 86l108 -5q-7 -5 -20 -12t-20 -11.5t-15 -11t-11.5 -13t-3.5 -13.5q0 -19 27 -19q15 0 45 8l-8 -92q-42 -10 -78 -10z" />
    <glyph glyph-name="tilde" unicode="&#x2dc;" horiz-adv-x="504" 
d="M152 598q13 71 38 101t65 30q28 0 67.5 -19t53.5 -19q42 0 51 42l81 -8q-14 -72 -38.5 -101.5t-64.5 -29.5q-28 0 -67.5 18.5t-53.5 18.5q-22 0 -35 -12.5t-16 -28.5z" />
    <glyph glyph-name="hungarumlaut" unicode="&#x2dd;" horiz-adv-x="550" 
d="M223 720h183l-130 -140h-123zM443 720h183l-130 -140h-123z" />
    <glyph glyph-name="gravecomb" unicode="&#x300;" 
d="M16 720l16 -140h-117l-76 140h177z" />
    <glyph glyph-name="acutecomb" unicode="&#x301;" 
d="M-121 720h183l-130 -140h-123z" />
    <glyph glyph-name="uni0302" unicode="&#x302;" 
d="M-339 580l134 140h156l80 -140h-135l-32 69h-2l-58 -69h-143z" />
    <glyph glyph-name="tildecomb" unicode="&#x303;" 
d="M-295 598q13 71 38 101t65 30q28 0 67.5 -19t53.5 -19q42 0 51 42l81 -8q-14 -72 -38.5 -101.5t-64.5 -29.5q-28 0 -67.5 18.5t-53.5 18.5q-22 0 -35 -12.5t-16 -28.5z" />
    <glyph glyph-name="uni0304" unicode="&#x304;" 
d="M-230 700h286l-19 -100h-286z" />
    <glyph glyph-name="uni0306" unicode="&#x306;" 
d="M-118 574q-72 0 -111.5 42t-29.5 108l90 -8q-2 -22 10 -33t40 -11q35 0 58 14.5t30 37.5l91 -8q-16 -65 -64 -103.5t-114 -38.5z" />
    <glyph glyph-name="uni0307" unicode="&#x307;" 
d="M-105 659q6 28 27 47.5t53 19.5q39 0 58 -24.5t12 -60.5q-6 -29 -26.5 -48t-52.5 -19q-40 0 -59 24.5t-12 60.5z" />
    <glyph glyph-name="uni0308" unicode="&#x308;" 
d="M-320 659q6 28 27 47.5t53 19.5q39 0 58 -24.5t12 -60.5q-6 -29 -26.5 -48t-52.5 -19q-40 0 -59 24.5t-12 60.5zM-105 659q6 28 27 47.5t53 19.5q39 0 58 -24.5t12 -60.5q-6 -29 -26.5 -48t-52.5 -19q-40 0 -59 24.5t-12 60.5z" />
    <glyph glyph-name="uni030A" unicode="&#x30a;" 
d="M-61 569q-47 0 -73.5 30t-17.5 79q8 41 39.5 66t70.5 25q47 0 74 -30.5t17 -78.5q-9 -42 -40 -66.5t-70 -24.5zM-60 624q21 0 34.5 12.5t16.5 31.5q4 24 -6.5 35t-27.5 11q-21 0 -34 -12.5t-16 -31.5q-4 -23 6 -34.5t27 -11.5z" />
    <glyph glyph-name="uni030B" unicode="&#x30b;" 
d="M-341 720h183l-130 -140h-123zM-121 720h183l-130 -140h-123z" />
    <glyph glyph-name="uni030C" unicode="&#x30c;" 
d="M-308 720h135l32 -69h2l58 69h143l-134 -140h-156z" />
    <glyph glyph-name="uni0312" unicode="&#x312;" 
d="M-24 688q33 10 52.5 -10.5t13.5 -53.5q-12 -55 -62 -55q-41 0 -60 28t-10 70q21 106 149 118l2 -47q-69 -9 -85 -50z" />
    <glyph glyph-name="uni0326" unicode="&#x326;" 
d="M-174 -166q-33 -10 -52.5 10t-13.5 52q5 24 25 40.5t45 16.5q38 0 54 -27.5t8 -70.5q-21 -106 -149 -118l-2 47q69 9 85 50z" />
    <glyph glyph-name="uni0327" unicode="&#x327;" 
d="M-148 -10l-45 -42l-8 -2q47 5 78.5 -15.5t23.5 -60.5q-6 -31 -44.5 -49.5t-89.5 -18.5q-65 0 -114 31l29 31q26 -13 61 -13q20 0 39.5 10t22.5 28q1 10 -5.5 14t-19.5 4q-18 0 -40 -9l-19 26l68 66h63z" />
    <glyph glyph-name="uni0328" unicode="&#x328;" 
d="M-185 -177q-60 0 -87 24.5t-19 68.5q11 55 82 86l108 -5q-7 -5 -20 -12t-20 -11.5t-15 -11t-11.5 -13t-3.5 -13.5q0 -19 27 -19q15 0 45 8l-8 -92q-42 -10 -78 -10z" />
    <glyph glyph-name="uni0335" unicode="&#x335;" 
d="M1 415l-18 -90h-448l18 90h448z" />
    <glyph glyph-name="uni0336" unicode="&#x336;" 
d="M4 433l-28 -147h-540l28 147h540z" />
    <glyph glyph-name="uni0337" unicode="&#x337;" 
d="M-610 30l30 -43l594 495l-31 42z" />
    <glyph glyph-name="uni0338" unicode="&#x338;" 
d="M-610 30l30 -43l594 495l-31 42z" />
    <glyph glyph-name="Wgrave" unicode="&#x1e80;" horiz-adv-x="943" 
d="M610 923l16 -140h-117l-75 140h176zM88 715h178l-2 -485h2l205 485h170l17 -485h2l186 485h182l-321 -715h-180l-20 446h-2l-194 -446h-180z" />
    <glyph glyph-name="wgrave" unicode="&#x1e81;" horiz-adv-x="788" 
d="M495 720l16 -140h-117l-76 140h177zM50 512h158l16 -312h2l145 312h140l23 -312h2l138 312h162l-243 -512h-149l-36 324h-2l-162 -324h-151z" />
    <glyph glyph-name="Wacute" unicode="&#x1e82;" horiz-adv-x="943" 
d="M574 923h184l-131 -140h-123zM88 715h178l-2 -485h2l205 485h170l17 -485h2l186 485h182l-321 -715h-180l-20 446h-2l-194 -446h-180z" />
    <glyph glyph-name="wacute" unicode="&#x1e83;" horiz-adv-x="788" 
d="M459 720h183l-130 -140h-123zM50 512h158l16 -312h2l145 312h140l23 -312h2l138 312h162l-243 -512h-149l-36 324h-2l-162 -324h-151z" />
    <glyph glyph-name="Wdieresis" unicode="&#x1e84;" horiz-adv-x="943" 
d="M400 862q6 28 27 47.5t53 19.5q39 0 57.5 -24.5t11.5 -60.5q-6 -29 -26.5 -48t-52.5 -19q-40 0 -58.5 24.5t-11.5 60.5zM615 862q6 28 27 47.5t53 19.5q39 0 57.5 -24.5t11.5 -60.5q-6 -29 -26.5 -48t-52.5 -19q-40 0 -58.5 24.5t-11.5 60.5zM88 715h178l-2 -485h2
l205 485h170l17 -485h2l186 485h182l-321 -715h-180l-20 446h-2l-194 -446h-180z" />
    <glyph glyph-name="wdieresis" unicode="&#x1e85;" horiz-adv-x="788" 
d="M284 659q6 28 27 47.5t53 19.5q39 0 58 -24.5t12 -60.5q-6 -29 -26.5 -48t-52.5 -19q-40 0 -59 24.5t-12 60.5zM499 659q6 28 27 47.5t53 19.5q39 0 58 -24.5t12 -60.5q-6 -29 -26.5 -48t-52.5 -19q-40 0 -59 24.5t-12 60.5zM50 512h158l16 -312h2l145 312h140l23 -312h2
l138 312h162l-243 -512h-149l-36 324h-2l-162 -324h-151z" />
    <glyph glyph-name="Ygrave" unicode="&#x1ef2;" horiz-adv-x="657" 
d="M470 923l16 -140h-117l-75 140h176zM88 715h186l82 -294h1l198 294h194l-329 -451l-53 -264h-180l53 264z" />
    <glyph glyph-name="ygrave" unicode="&#x1ef3;" horiz-adv-x="535" 
d="M369 720l16 -140h-117l-76 140h177zM584 512l-276 -526q-51 -97 -97.5 -130t-125.5 -33q-43 0 -92 11l19 117q31 -6 58 2t41 29q31 28 22 96l-84 434h157l51 -336h2l162 336h163z" />
    <glyph glyph-name="endash" unicode="&#x2013;" horiz-adv-x="585" 
d="M55 321h500l-27 -137h-500z" />
    <glyph glyph-name="emdash" unicode="&#x2014;" horiz-adv-x="999" 
d="M112 321h800l-27 -137h-800z" />
    <glyph glyph-name="quoteleft" unicode="&#x2018;" horiz-adv-x="245" 
d="M173 556q43 3 66.5 -22t15.5 -68q-7 -36 -33 -56t-61 -20q-49 0 -68 34.5t-8 94.5q17 84 70 137t134 63l-4 -72q-37 -5 -69.5 -32t-42.5 -59z" />
    <glyph glyph-name="quoteright" unicode="&#x2019;" horiz-adv-x="244" 
d="M188 558q-43 -3 -66.5 22t-15.5 68q7 36 33 56t61 20q49 0 68 -34.5t8 -94.5q-17 -84 -70 -137t-134 -63l4 72q37 5 69.5 32t42.5 59z" />
    <glyph glyph-name="quotesinglbase" unicode="&#x201a;" horiz-adv-x="244" 
d="M79 -5q-44 -3 -67.5 22t-14.5 68q7 36 33 56t61 20q49 0 68 -34.5t7 -94.5q-16 -84 -69 -137t-134 -63l4 72q37 5 69.5 32t42.5 59z" />
    <glyph glyph-name="quotedblleft" unicode="&#x201c;" horiz-adv-x="466" 
d="M174 556q43 3 66.5 -22t15.5 -68q-7 -36 -33 -56t-61 -20q-49 0 -68 34.5t-8 94.5q17 84 70 137t134 63l-4 -72q-37 -5 -69.5 -32t-42.5 -59zM394 556q43 3 66.5 -22t15.5 -68q-7 -36 -33 -56t-61 -20q-49 0 -68 34.5t-8 94.5q17 84 70 137t134 63l-4 -72
q-37 -5 -69.5 -32t-42.5 -59z" />
    <glyph glyph-name="quotedblright" unicode="&#x201d;" horiz-adv-x="463" 
d="M187 558q-43 -3 -66.5 22t-15.5 68q7 36 33 56t61 20q49 0 68 -34.5t8 -94.5q-17 -84 -70 -137t-134 -63l4 72q37 5 69.5 32t42.5 59zM407 558q-43 -3 -66.5 22t-15.5 68q7 36 33 56t61 20q49 0 68 -34.5t8 -94.5q-17 -84 -70 -137t-134 -63l4 72q37 5 69.5 32t42.5 59z
" />
    <glyph glyph-name="quotedblbase" unicode="&#x201e;" horiz-adv-x="464" 
d="M79 -5q-44 -3 -67.5 22t-14.5 68q7 36 33 56t61 20q49 0 68 -34.5t7 -94.5q-16 -84 -69 -137t-134 -63l4 72q37 5 69.5 32t42.5 59zM299 -5q-44 -3 -67.5 22t-14.5 68q7 36 33 56t61 20q49 0 68 -34.5t7 -94.5q-16 -84 -69 -137t-134 -63l4 72q37 5 69.5 32t42.5 59z" />
    <glyph glyph-name="dagger" unicode="&#x2020;" horiz-adv-x="588" 
d="M232 375h-176l27 137h176l39 203h170l-39 -203h175l-27 -137h-175l-107 -552h-170z" />
    <glyph glyph-name="daggerdbl" unicode="&#x2021;" horiz-adv-x="586" 
d="M169 55h-176l27 137h176l35 183h-176l27 137h176l39 203h170l-39 -203h175l-27 -137h-175l-35 -183h175l-27 -137h-175l-45 -232h-170z" />
    <glyph glyph-name="bullet" unicode="&#x2022;" horiz-adv-x="363" 
d="M173 170q-71 0 -106.5 46t-22.5 113q12 60 58.5 100.5t109.5 40.5q71 0 106.5 -46t22.5 -113q-12 -60 -58.5 -100.5t-109.5 -40.5z" />
    <glyph glyph-name="ellipsis" unicode="&#x2026;" horiz-adv-x="651" 
d="M73 -9q-40 0 -62 26t-14 68q7 34 32 55t58 21q40 0 62 -26.5t14 -67.5q-7 -34 -32.5 -55t-57.5 -21zM283 -9q-40 0 -62 26t-14 68q7 34 32 55t58 21q40 0 62 -26.5t14 -67.5q-7 -34 -32.5 -55t-57.5 -21zM493 -9q-40 0 -62 26t-14 68q7 34 32 55t58 21q40 0 62 -26.5
t14 -67.5q-7 -34 -32.5 -55t-57.5 -21z" />
    <glyph glyph-name="perthousand" unicode="&#x2030;" horiz-adv-x="1265" 
d="M210 306q-93 0 -132 59.5t-22 149.5q17 84 71.5 138t140.5 54q94 0 132 -59.5t20 -150.5q-16 -83 -70 -137t-140 -54zM738 691l-497 -691h-104l498 691h103zM217 396q32 0 48 25.5t27 83.5q11 61 3 86.5t-35 25.5q-32 0 -48.5 -26t-27.5 -84q-11 -61 -3 -86t36 -25z
M609 -16q-93 0 -131.5 59.5t-21.5 149.5q16 83 70.5 137.5t140.5 54.5q94 0 132 -59.5t20 -150.5q-16 -83 -70 -137t-140 -54zM1023 -16q-93 0 -131.5 59.5t-21.5 149.5q16 83 70.5 137.5t140.5 54.5q94 0 132 -59.5t20 -150.5q-16 -83 -70 -137t-140 -54zM617 74
q32 0 47 25t27 84q12 61 4 86.5t-35 25.5q-32 0 -48.5 -26t-27.5 -84q-22 -111 33 -111zM1031 74q32 0 47 25t27 84q12 61 4 86.5t-35 25.5q-32 0 -48.5 -26t-27.5 -84q-22 -111 33 -111z" />
    <glyph glyph-name="guilsinglleft" unicode="&#x2039;" horiz-adv-x="262" 
d="M28 177l26 150l198 144l-26 -150l-98 -68l-2 -2l70 -68l-26 -150z" />
    <glyph glyph-name="guilsinglright" unicode="&#x203a;" horiz-adv-x="263" 
d="M206 177l-198 -144l26 150l99 68l1 2l-70 68l26 150l142 -144z" />
    <glyph glyph-name="fraction" unicode="&#x2044;" horiz-adv-x="329" 
d="M462 715h114l-672 -715h-114z" />
    <glyph glyph-name="Euro" unicode="&#x20ac;" horiz-adv-x="686" 
d="M349 121q59 0 89.5 33t47.5 95h169q-29 -124 -108.5 -194.5t-210.5 -70.5q-137 0 -197.5 72t-55.5 187h-54l11 70h49q2 19 4 29q3 16 5 21h-46l11 70h51q90 268 342 268q136 0 194 -73t40 -190h-168q16 126 -87 126q-57 0 -92 -34t-59 -97h159l-11 -70h-165
q-6 -16 -8 -27q-3 -14 -3 -23h164l-11 -70h-160q-3 -122 100 -122z" />
    <glyph glyph-name="trademark" unicode="&#x2122;" horiz-adv-x="719" 
d="M180 625h-78l17 90h246l-17 -90h-78l-36 -185h-90zM402 715h120l25 -145h2l82 145h123l-53 -275h-92l34 175h-1l-85 -175h-65l-16 175h-3l-34 -175h-90z" />
    <glyph glyph-name="arrowleft" unicode="&#x2190;" horiz-adv-x="751" 
d="M273 10l-231 310l344 310l65 -79l-191 -171h485l-23 -120h-489l129 -171z" />
    <glyph glyph-name="arrowup" unicode="&#x2191;" horiz-adv-x="680" 
d="M679 404l-91 -77l-141 160l-97 -487h-120l97 487l-201 -160l-67 77l362 287z" />
    <glyph glyph-name="arrowright" unicode="&#x2192;" horiz-adv-x="751" 
d="M390 10l-66 79l192 171h-485l23 120h489l-129 171l89 79l230 -310z" />
    <glyph glyph-name="arrowdown" unicode="&#x2193;" horiz-adv-x="680" 
d="M648 247l-362 -287l-258 287l91 77l141 -160l97 487h120l-97 -487l201 160z" />
    <glyph glyph-name="arrowboth" unicode="&#x2194;" horiz-adv-x="1140" 
d="M892 630l230 -310l-342 -310l-66 79l192 171h-673l129 -171l-89 -80l-231 310l344 311l65 -79l-191 -171h672l-128 171z" />
    <glyph glyph-name="arrowupdn" unicode="&#x2195;" horiz-adv-x="680" 
d="M354 27l200 160l68 -77l-363 -287l-257 287l90 77l142 -160l111 555l-200 -160l-68 77l363 287l257 -287l-90 -77l-142 160z" />
    <glyph glyph-name="uni2196" unicode="&#x2196;" horiz-adv-x="584" 
d="M-9 179l99 422l425 16l-23 -110l-238 -8l280 -344l-98 -85l-278 344l-56 -234z" />
    <glyph glyph-name="uni2197" unicode="&#x2197;" horiz-adv-x="608" 
d="M563 179l-111 1l40 234l-410 -344l-72 85l410 344l-230 8l19 110l419 -16z" />
    <glyph glyph-name="uni2198" unicode="&#x2198;" horiz-adv-x="584" 
d="M619 465l-99 -422l-426 -16l24 110l237 8l-280 344l98 85l279 -344l55 234z" />
    <glyph glyph-name="uni2199" unicode="&#x2199;" horiz-adv-x="584" 
d="M47 465l110 -1l-39 -234l409 344l72 -85l-410 -344l231 -8l-20 -110l-418 16z" />
    <glyph glyph-name="partialdiff" unicode="&#x2202;" horiz-adv-x="582" 
d="M416 404l7 10q-5 164 -190 164l16 137q83 0 146 -21t101.5 -58t61 -88t23.5 -112t-10 -129q-12 -62 -37 -116.5t-65.5 -102.5t-101.5 -76t-136 -28q-117 0 -175.5 65.5t-36.5 176.5q19 97 95.5 171t163.5 74q102 0 138 -67zM240 111q57 0 97.5 39.5t51.5 96.5
q8 42 -7 69.5t-57 27.5q-57 0 -97.5 -39.5t-51.5 -95.5q-8 -42 7 -70t57 -28z" />
    <glyph glyph-name="emptyset" unicode="&#x2205;" horiz-adv-x="797" 
d="M743 578q67 -103 40 -242q-30 -155 -152 -253.5t-275 -98.5q-137 0 -224 80l-80 -68l-44 50l81 67q-67 100 -40 241q30 155 152.5 254t275.5 99q139 0 222 -80l81 68l44 -50zM116 336q-21 -103 23 -180l510 426q-62 55 -166 55q-131 0 -236.5 -84.5t-130.5 -216.5z
M350 54q130 0 235.5 84.5t130.5 215.5q20 105 -23 181l-511 -426q64 -55 168 -55z" />
    <glyph glyph-name="product" unicode="&#x220f;" horiz-adv-x="591" 
d="M87 715h613l-158 -815h-170l132 678h-273l-132 -678h-170z" />
    <glyph glyph-name="summation" unicode="&#x2211;" horiz-adv-x="507" 
d="M-57 40l306 275l2 2l-200 259l25 139h540l-26 -137h-341l-1 -2l178 -222l-10 -70l-277 -245l-3 -2h358l-26 -137h-550z" />
    <glyph glyph-name="minus" unicode="&#x2212;" horiz-adv-x="564" 
d="M65 395h486l-27 -137h-486z" />
    <glyph glyph-name="radical" unicode="&#x221a;" horiz-adv-x="695" 
d="M30 364h185l46 -262h2l295 613h173l-426 -815h-160l-63 327h-79z" />
    <glyph glyph-name="infinity" unicode="&#x221e;" horiz-adv-x="716" 
d="M24 314q17 87 73 132t123 45q101 0 160 -88l2 6q84 82 177 82q75 0 118 -50.5t25 -144.5q-17 -86 -73 -131.5t-123 -45.5q-89 0 -156 100l-2 -6q-98 -94 -181 -94q-74 0 -117.5 51t-25.5 144zM176 229q25 0 51 14.5t40 27t43 41.5q-12 22 -21.5 34.5t-26.5 23.5t-37 11
q-37 0 -62 -25t-32 -60q-6 -28 4.5 -47.5t40.5 -19.5zM501 229q37 0 62 25t32 60q6 28 -4.5 47.5t-40.5 19.5q-25 0 -51 -14.5t-40 -27t-43 -41.5q12 -22 21.5 -34.5t26.5 -23.5t37 -11z" />
    <glyph glyph-name="integral" unicode="&#x222b;" horiz-adv-x="455" 
d="M264 -4q-17 -89 -59 -131t-124 -42q-66 0 -117 11l13 119q30 0 47 2t35 10t28 25.5t16 46.5l103 531q17 89 59 131t124 42q66 0 117 -11l-13 -119q-24 0 -38 -1t-30.5 -5.5t-26 -13.5t-18 -24.5t-12.5 -39.5z" />
    <glyph glyph-name="approxequal" unicode="&#x2248;" horiz-adv-x="550" 
d="M424 327q-40 0 -120 22.5t-97 22.5q-26 0 -42 -15t-19 -34l-98 8q17 89 51 130t91 41q40 0 120 -22.5t97 -22.5q26 0 41.5 14.5t19.5 34.5l98 -8q-17 -89 -51 -130t-91 -41zM382 112q-40 0 -120 22.5t-97 22.5q-26 0 -42 -15t-19 -34l-98 8q17 89 51 130t91 41
q40 0 120 -22.5t97 -22.5q26 0 42 15t19 34l98 -8q-17 -89 -51 -130t-91 -41z" />
    <glyph glyph-name="notequal" unicode="&#x2260;" horiz-adv-x="555" 
d="M527 347h-170l-50 -75h205l-27 -137h-270l-51 -77h-103l51 77h-95l27 137h159l51 75h-195l26 137h261l52 79h103l-52 -79h104z" />
    <glyph glyph-name="lessequal" unicode="&#x2264;" horiz-adv-x="499" 
d="M431 130l-385 138l28 150l439 138l-26 -137l-292 -75l-1 -2l263 -75zM427 113l-23 -120h-412l23 120h412z" />
    <glyph glyph-name="greaterequal" unicode="&#x2265;" horiz-adv-x="499" 
d="M21 130l26 137l291 75l1 2l-262 75l26 137l385 -138l-28 -150zM17 113h412l-23 -120h-412z" />
    <glyph glyph-name="lozenge" unicode="&#x25ca;" horiz-adv-x="596" 
d="M34 357l268 358h161l135 -358l-269 -357h-161zM273 137l155 220l-68 221l-156 -221l67 -220h2z" />
    <glyph glyph-name="i.loclTRK" horiz-adv-x="237" 
d="M115 659q6 28 27 47.5t53 19.5q39 0 58 -24.5t12 -60.5q-6 -29 -26.5 -48t-52.5 -19q-40 0 -59 24.5t-12 60.5zM88 512h160l-100 -512h-160z" />
    <glyph glyph-name="logo" horiz-adv-x="938" 
d="M848 639q50 0 84.5 -38.5t21.5 -107.5q-10 -55 -50 -90t-89 -35q43 0 71 -41t16 -102t-54.5 -94.5t-84.5 -33.5q-13 0 -24 2t-17 4t-15 6t-12 5q0 -2 3.5 -17t3 -22t-2.5 -31q-8 -42 -48.5 -78.5t-101.5 -36.5t-95.5 35.5t-25.5 79.5q-10 -49 -51 -82t-96 -33
q-69 0 -99.5 41.5t-21.5 91.5q6 32 23 49q-21 -14 -50 -14q-50 0 -85 39t-21 107q11 55 51 90t89 35q-43 0 -71 41t-16 102t54 94.5t84 33.5q13 0 24 -2t17 -4t15 -6t12 -5q0 4 -2.5 17t-3 22t2.5 31q8 42 48 78.5t101 36.5t95.5 -35.5t26.5 -79.5q9 49 50 82t96 33
q69 0 99.5 -41.5t21.5 -91.5q-6 -33 -24 -50q20 15 51 15zM485 620q19 97 -45 97q-71 0 -86 -70q-4 -17 1 -47q5 4 15 4q26 0 43.5 -23.5t11.5 -54.5q-4 -25 -25.5 -43.5t-47.5 -18.5q-33 0 -51.5 22.5t-11.5 57.5q1 4 0 1q1 2 2 3q-11 11 -41 11q-31 0 -55 -20t-30 -51
t11.5 -48t71.5 -17h123q76 0 90 74zM867 506q5 23 -6.5 38t-34.5 15q-39 0 -63 -24q-3 1 -3.5 -0.5t-2.5 -8.5q-7 -28 -26.5 -45t-44.5 -17q-33 0 -52 23.5t-13 56.5q4 25 25.5 42.5t47.5 17.5q14 0 16 8q21 16 29 53q11 52 -41 52q-38 0 -66 -25t-39 -80l-24 -123
q-8 -39 2.5 -52.5t49.5 -13.5h123q107 0 123 83zM412 247q8 39 -2.5 52.5t-49.5 13.5h-123q-106 0 -122 -83q-5 -23 6.5 -38t34.5 -15q39 0 64 25q2 -1 2.5 0.5t1.5 7.5q5 27 25.5 44.5t45.5 17.5q33 0 53 -23.5t13 -56.5q-5 -25 -26.5 -42.5t-46.5 -17.5q-17 0 -17 -8
q-24 -21 -29 -53q-10 -52 42 -52q84 0 104 105zM816 248q6 31 -11.5 48t-71.5 17h-123q-75 0 -89 -74l-24 -123q-19 -97 45 -97q70 0 85 70q5 25 0 47q-5 -4 -15 -4q-27 0 -45 23.5t-11 54.5q5 26 26.5 44t46.5 18t53 -72q8 -19 10 -19q1 0 1 4q12 -8 39 -8q31 0 54.5 20
t29.5 51zM693 192v-1v1zM690 187q3 3 3 4v-6l-1 1q-2 0 -2 1z" />
    </font>
</defs>
</svg>
