<?xml version="1.0" standalone="no"?>
<!DOCTYPE svg PUBLIC "-//W3C//DTD SVG 1.1//EN" "http://www.w3.org/Graphics/SVG/1.1/DTD/svg11.dtd" >
<svg xmlns="http://www.w3.org/2000/svg" xmlns:xlink="http://www.w3.org/1999/xlink" version="1.1">
<metadata>
Created by FontForge 20170731 at Mon Apr  2 15:12:33 2018
 By Aleksey,,,
Pangram Pangram Foundry
</metadata>
<defs>
<font id="NeueMontreal-MediumItalic" horiz-adv-x="0" >
  <font-face 
    font-family="Neue Montreal Medium"
    font-weight="500"
    font-style="italic"
    font-stretch="normal"
    units-per-em="1000"
    panose-1="0 0 6 0 0 0 0 0 0 0"
    ascent="773"
    descent="-227"
    x-height="511"
    cap-height="715"
    bbox="-607 -264 1170.72 966"
    underline-thickness="50"
    underline-position="-200"
    slope="-11"
    unicode-range="U+0020-25CA"
  />
<missing-glyph horiz-adv-x="500" 
d="M410 773v-1000h-317v1000h317zM333 706h-165v-33h65v-37h-66v-33h166v33h-66v37h66v33zM267 577h-100v-104h166v34h-66v70zM233 543v-36h-33v36h33zM333 446h-166v-33h66v-37h-66v-33h100v70h66v33zM333 386h-33v-66h-133v-34h166v100zM333 264h-100v-56h34v23h33v-47
h-100v80h-33v-113h166v113zM333 91h-166v-113h166v113zM300 58v-47h-100v47h100zM333 -45h-166v-33h70l-70 -47v-33h166v33h-102l70 47h32v33z" />
    <glyph glyph-name=".notdef" horiz-adv-x="500" 
d="M410 773v-1000h-317v1000h317zM333 706h-165v-33h65v-37h-66v-33h166v33h-66v37h66v33zM267 577h-100v-104h166v34h-66v70zM233 543v-36h-33v36h33zM333 446h-166v-33h66v-37h-66v-33h100v70h66v33zM333 386h-33v-66h-133v-34h166v100zM333 264h-100v-56h34v23h33v-47
h-100v80h-33v-113h166v113zM333 91h-166v-113h166v113zM300 58v-47h-100v47h100zM333 -45h-166v-33h70l-70 -47v-33h166v33h-102l70 47h32v33z" />
    <glyph glyph-name=".null" 
 />
    <glyph glyph-name="nonmarkingreturn" horiz-adv-x="333" 
 />
    <glyph glyph-name="space" unicode=" " horiz-adv-x="190" 
 />
    <glyph glyph-name="exclam" unicode="!" horiz-adv-x="250" 
d="M156 715h116l-36 -189l-92 -326h-60l36 326zM78 -8q-30 0 -46.5 20t-9.5 52q4 26 24 42t45 16q30 0 46.5 -20.5t10.5 -51.5q-5 -26 -25 -42t-45 -16z" />
    <glyph glyph-name="quotedbl" unicode="&#x22;" horiz-adv-x="343" 
d="M128 715h99l-59 -232h-73zM290 715h99l-58 -232h-73z" />
    <glyph glyph-name="numbersign" unicode="#" horiz-adv-x="584" 
d="M570 419h-94l-57 -145h102l-32 -86h-105l-74 -188h-88l74 188h-108l-75 -188h-87l75 188h-90l34 86h91l56 145h-98l33 86h100l73 186h88l-74 -186h108l74 186h88l-74 -186h94zM331 274l57 145h-108l-57 -145h108z" />
    <glyph glyph-name="dollar" unicode="$" horiz-adv-x="574" 
d="M536 150q-14 -79 -89 -120t-179 -45l-13 -76h-60l14 78q-102 11 -159.5 74t-49.5 164h113q-2 -63 25 -96.5t88 -41.5l41 213q-46 19 -79 38t-63 46.5t-41.5 65t-2.5 82.5q15 79 85.5 121.5t175.5 46.5l13 58h60l-14 -62q89 -12 136.5 -69t39.5 -149h-114q7 96 -79 119
l-39 -197q56 -25 88 -43.5t63 -48t40 -68t0 -90.5zM196 526q-7 -36 16.5 -60t75.5 -48l37 183q-115 -6 -129 -75zM286 84q120 7 136 76q9 41 -14.5 68.5t-83.5 53.5z" />
    <glyph glyph-name="percent" unicode="%" horiz-adv-x="828" 
d="M205 308q-84 0 -118 59t-17 147q16 83 68 137.5t132 54.5q84 0 117.5 -58.5t16.5 -147.5q-16 -84 -67.5 -138t-131.5 -54zM720 691l-498 -691h-81l497 691h82zM210 384q82 0 107 126q22 119 -53 119q-82 0 -107 -126q-22 -119 53 -119zM591 -15q-84 0 -118 59t-17 147
q17 84 68.5 138t131.5 54q84 0 117.5 -58.5t16.5 -147.5q-16 -84 -67.5 -138t-131.5 -54zM597 62q81 0 106 126q24 119 -52 119q-83 0 -108 -127q-22 -118 54 -118z" />
    <glyph glyph-name="ampersand" unicode="&#x26;" horiz-adv-x="608" 
d="M567 0h-127l-37 58q-94 -73 -201 -73q-109 0 -159 55t-33 143q13 70 61 116t128 89q-32 53 -45 91.5t-3 86.5q12 66 68 114.5t140 49.5q85 1 127 -53.5t28 -124.5q-11 -55 -54 -95.5t-128 -84.5l99 -153q45 54 63 122h100q-32 -119 -112 -208zM353 631q-39 0 -68 -24
t-35 -55q-9 -47 38 -120q58 32 87.5 60t37.5 67q6 31 -9 51.5t-51 20.5zM215 84q73 0 139 53l-116 186q-105 -63 -120 -144q-8 -40 16.5 -67.5t80.5 -27.5z" />
    <glyph glyph-name="quotesingle" unicode="'" horiz-adv-x="180" 
d="M130 715h99l-59 -232h-73z" />
    <glyph glyph-name="parenleft" unicode="(" horiz-adv-x="304" 
d="M295 762l95 -5q-159 -221 -203 -447q-42 -219 28 -436l-88 5q-28 54 -45 119.5t-21.5 150.5t14.5 175q25 129 84.5 242t135.5 196z" />
    <glyph glyph-name="parenright" unicode=")" horiz-adv-x="310" 
d="M209 757q101 -193 52 -447q-25 -125 -85 -239.5t-135 -196.5l-95 5q158 220 202 445q43 221 -27 438z" />
    <glyph glyph-name="asterisk" unicode="*" horiz-adv-x="385" 
d="M410 575l-107 -31l47 -90l-60 -40l-45 95l-82 -95l-50 40l80 90l-93 31l33 62l93 -35l22 113h69l-22 -113l104 35z" />
    <glyph glyph-name="plus" unicode="+" horiz-adv-x="560" 
d="M234 278h-183l19 98h183l37 189h99l-38 -189h183l-19 -98h-182l-37 -189h-98z" />
    <glyph glyph-name="comma" unicode="," horiz-adv-x="211" 
d="M62 -4q-32 -8 -50 10.5t-11 55.5q5 28 25 44t46 16q35 0 48.5 -27t5.5 -72q-12 -59 -50.5 -106.5t-100.5 -57.5l5 59q28 5 51 27t31 51z" />
    <glyph glyph-name="hyphen" unicode="-" horiz-adv-x="339" 
d="M44 303h269l-20 -98h-269z" />
    <glyph glyph-name="period" unicode="." horiz-adv-x="207" 
d="M58 -8q-30 0 -46.5 20t-10.5 52q5 26 25 42t45 16q30 0 46.5 -20.5t10.5 -51.5q-5 -26 -25 -42t-45 -16z" />
    <glyph glyph-name="slash" unicode="/" horiz-adv-x="405" 
d="M490 715l-416 -715h-98l416 715h98z" />
    <glyph glyph-name="zero" unicode="0" horiz-adv-x="623" 
d="M264 -15q-72 0 -122 29t-72.5 79.5t-28.5 117t11 141.5q30 155 117 254.5t223 99.5q72 0 122.5 -29.5t73 -79.5t28.5 -117t-11 -142q-31 -155 -118 -254t-223 -99zM271 84q88 0 142.5 73.5t78.5 194.5q12 72 12 128.5t-29 91.5t-89 35q-89 0 -143.5 -74t-78.5 -195
q-12 -72 -12 -128.5t29.5 -91t89.5 -34.5z" />
    <glyph glyph-name="one" unicode="1" horiz-adv-x="353" 
d="M266 694h93l-135 -694h-116l99 499q-23 -19 -50.5 -27.5t-43.5 -9.5t-56 -1l9 83q159 0 200 150z" />
    <glyph glyph-name="two" unicode="2" horiz-adv-x="568" 
d="M373 706q102 0 161 -58.5t40 -156.5q-12 -60 -51.5 -109t-92.5 -83t-107 -63.5t-103.5 -64.5t-72.5 -73h350l-19 -98l-502 3q31 163 228 279q17 10 58 32t54.5 30t42 25.5t39.5 28.5t27 28t23.5 35t11.5 39q8 44 -16 75.5t-83 31.5q-138 0 -170 -158h-112
q24 118 97 187.5t197 69.5z" />
    <glyph glyph-name="three" unicode="3" horiz-adv-x="568" 
d="M192 482l-111 4q20 100 92 160t192 60q102 0 165.5 -54t45.5 -144q-20 -98 -128 -143l-7 -1q124 -38 94 -191q-18 -92 -90.5 -140t-185.5 -48q-134 0 -201 68t-44 185l111 -4q-14 -71 21 -110.5t115 -39.5q136 0 158 98q16 68 -17 99.5t-93 31.5h-65l18 92h55
q56 0 94.5 26t48.5 75q9 44 -19.5 72.5t-85.5 28.5q-138 0 -163 -125z" />
    <glyph glyph-name="four" unicode="4" horiz-adv-x="584" 
d="M415 0h-115l31 157h-327l20 108l409 426h117l-85 -436h97l-18 -98h-98zM407 541l-274 -286h216z" />
    <glyph glyph-name="five" unicode="5" horiz-adv-x="558" 
d="M567 593h-310l-71 -181q65 54 161 54q101 0 152.5 -68.5t31.5 -172.5q-21 -111 -104 -175.5t-192 -64.5q-123 0 -183 63t-45 152h114q-4 -51 24 -83.5t94 -32.5q67 0 115 39.5t63 110.5q14 66 -15.5 103t-93.5 37q-93 0 -150 -63h-118l148 380h399z" />
    <glyph glyph-name="six" unicode="6" horiz-adv-x="585" 
d="M585 519h-113q2 43 -20.5 67.5t-72.5 24.5q-156 0 -208 -236q71 82 187 82q105 0 157.5 -66t32.5 -170q-20 -102 -99.5 -169t-190.5 -67q-75 0 -125 27.5t-71.5 76t-25.5 115.5t14 146q34 174 120.5 265t215.5 91q96 0 150 -55t49 -132zM330 362q-68 0 -119 -39.5
t-64 -100.5t18.5 -101.5t98.5 -40.5q66 0 112.5 39.5t59.5 104.5q13 63 -16.5 100.5t-89.5 37.5z" />
    <glyph glyph-name="seven" unicode="7" horiz-adv-x="523" 
d="M100 691h488l-15 -91q-136 -96 -243 -266t-140 -334h-121q32 164 143.5 335t227.5 258h-360z" />
    <glyph glyph-name="eight" unicode="8" horiz-adv-x="584" 
d="M15 202q22 111 158 167l7 2q-88 52 -68 153q16 85 89 133.5t174 48.5q106 0 163 -53t40 -143q-18 -90 -120 -141l-7 -2q120 -58 97 -179q-19 -98 -102 -150.5t-199 -52.5q-120 0 -186 56.5t-46 160.5zM328 411q59 0 95 26t45 72q10 52 -20 78.5t-88 26.5
q-59 0 -95.5 -26.5t-45.5 -71.5q-11 -53 19.5 -79t89.5 -26zM263 80q71 0 116 32.5t56 86.5q12 59 -25 91.5t-107 32.5q-71 0 -116 -32.5t-55 -85.5q-12 -60 24.5 -92.5t106.5 -32.5z" />
    <glyph glyph-name="nine" unicode="9" horiz-adv-x="592" 
d="M362 706q75 0 125 -27.5t71.5 -76t25.5 -115.5t-14 -146q-34 -174 -120.5 -265t-215.5 -91q-96 0 -150 55t-49 132h113q-2 -43 20.5 -67.5t72.5 -24.5q156 0 208 236q-71 -82 -187 -82q-104 0 -157 66t-33 170q21 103 100 169.5t190 66.5zM473 469q13 61 -18.5 101.5
t-98.5 40.5q-66 0 -112.5 -39.5t-59.5 -104.5q-12 -64 17 -101t89 -37q68 0 119 39.5t64 100.5z" />
    <glyph glyph-name="colon" unicode=":" horiz-adv-x="211" 
d="M119 299q-30 0 -46.5 20t-10.5 52q5 26 24.5 41.5t45.5 15.5q30 0 46.5 -20t10.5 -51q-5 -27 -24.5 -42.5t-45.5 -15.5zM60 -8q-31 0 -47.5 20t-9.5 52q5 26 24.5 42t44.5 16q30 0 47 -20.5t10 -51.5q-5 -26 -24.5 -42t-44.5 -16z" />
    <glyph glyph-name="semicolon" unicode=";" horiz-adv-x="215" 
d="M121 299q-30 0 -47 20t-10 52q5 26 24.5 41.5t44.5 15.5q30 0 46.5 -20t11.5 -51q-6 -27 -25.5 -42.5t-44.5 -15.5zM64 -4q-32 -8 -50.5 10.5t-11.5 55.5q6 29 25.5 44.5t45.5 15.5q35 0 49 -27t5 -72q-12 -59 -50.5 -106.5t-100.5 -57.5l5 59q29 5 52 27t31 51z" />
    <glyph glyph-name="less" unicode="&#x3c;" horiz-adv-x="506" 
d="M424 86l-376 170l21 109l442 171l-19 -99l-346 -126v-2l297 -125z" />
    <glyph glyph-name="equal" unicode="=" horiz-adv-x="558" 
d="M87 449h459l-19 -98h-459zM53 273h459l-20 -98h-458z" />
    <glyph glyph-name="greater" unicode="&#x3e;" horiz-adv-x="506" 
d="M18 86l18 98l345 125v2l-296 126l19 99l375 -171l-21 -109z" />
    <glyph glyph-name="question" unicode="?" horiz-adv-x="515" 
d="M172 490h-114q17 110 89.5 175t194.5 65q99 0 157.5 -56.5t43.5 -140.5q-5 -30 -18 -53.5t-37.5 -43.5t-41.5 -31t-52 -31q-57 -32 -84 -67.5t-41 -103.5h-101q12 81 37.5 128t83.5 86q15 10 43.5 26.5t44.5 27t32 30t21 43.5q7 38 -22 62.5t-79 24.5q-129 0 -157 -141z
M196 -8q-30 0 -46.5 20t-10.5 52q5 26 24.5 42t45.5 16q30 0 46.5 -20.5t10.5 -51.5q-5 -26 -25 -42t-45 -16z" />
    <glyph glyph-name="at" unicode="@" horiz-adv-x="875" 
d="M634 79q-49 0 -81.5 22.5t-44.5 61.5l-4 -6q-55 -74 -145 -74q-73 0 -110.5 58t-18.5 156q19 99 82 159.5t138 60.5q50 0 81.5 -24t39.5 -60l3 3l24 74h92l-81 -254q-34 -101 35 -101q48 0 84.5 44.5t52.5 127.5q26 136 -42.5 223t-213.5 87q-150 0 -267.5 -103
t-144.5 -243q-28 -144 44.5 -232.5t215.5 -88.5q103 0 187 32l22 -67q-88 -42 -211 -42q-187 0 -280.5 112.5t-57.5 299.5q33 170 174 289.5t320 119.5q125 0 208.5 -54.5t114 -144t8.5 -199.5q-13 -66 -37.5 -114t-56 -73.5t-64 -37.5t-66.5 -12zM383 166q59 0 98.5 44
t52.5 112q12 55 -7 83.5t-60 28.5q-56 0 -96 -43.5t-54 -112.5q-21 -112 66 -112z" />
    <glyph glyph-name="A" unicode="A" horiz-adv-x="662" 
d="M462 169h-292l-91 -169h-122l401 715h126l122 -715h-119zM222 268h226l-46 338h-2z" />
    <glyph glyph-name="B" unicode="B" horiz-adv-x="647" 
d="M651 528q-20 -106 -135 -143l-7 -2q59 -11 90.5 -57t16.5 -124q-19 -99 -92.5 -150.5t-186.5 -51.5h-328l139 715h304q111 0 163.5 -49.5t35.5 -137.5zM210 419h181q120 0 140 104q19 91 -90 91h-193zM193 330l-45 -229h193q136 0 160 122q10 52 -15 79.5t-81 27.5h-212z
" />
    <glyph glyph-name="C" unicode="C" horiz-adv-x="690" 
d="M595 466q0 162 -156 162q-111 0 -181.5 -79.5t-93.5 -197.5q-12 -52 -8 -99.5t20 -84t53.5 -58.5t91.5 -22q93 0 151.5 50.5t80.5 120.5h118q-36 -124 -129.5 -198.5t-225.5 -74.5q-154 0 -227 106.5t-41 273.5q31 161 141 263t259 102q134 0 203 -75t60 -189h-116z" />
    <glyph glyph-name="D" unicode="D" horiz-adv-x="683" 
d="M9 0l139 715h275q149 0 216.5 -95.5t34.5 -269.5q-33 -169 -132 -259.5t-248 -90.5h-285zM248 614l-100 -513h150q58 0 104 21t76 58.5t49 82.5t30 101q51 250 -153 250h-156z" />
    <glyph glyph-name="E" unicode="E" horiz-adv-x="621" 
d="M210 420h349l-19 -102h-350l-42 -217h408l-20 -101h-527l139 715h517l-19 -101h-398z" />
    <glyph glyph-name="F" unicode="F" horiz-adv-x="586" 
d="M207 406h309l-20 -102h-308l-60 -304h-119l139 715h500l-19 -101h-381z" />
    <glyph glyph-name="G" unicode="G" horiz-adv-x="732" 
d="M600 496q-2 64 -41 98t-111 34q-114 0 -187 -81t-96 -196q-12 -49 -8 -96.5t19 -84.5t53 -60t95 -23q85 0 156 55.5t88 139.5l-203 -3l19 96h322l-73 -375h-81l-6 98l-3 -3q-93 -110 -235 -110q-153 0 -222.5 106t-36.5 274q31 161 141.5 263t265.5 102
q132 0 197.5 -66.5t62.5 -174.5z" />
    <glyph glyph-name="H" unicode="H" horiz-adv-x="695" 
d="M148 715h119l-57 -296h338l57 296h119l-139 -715h-119l62 317h-338l-62 -317h-119z" />
    <glyph glyph-name="I" unicode="I" horiz-adv-x="242" 
d="M150 715h119l-139 -715h-119z" />
    <glyph glyph-name="J" unicode="J" horiz-adv-x="506" 
d="M447 221q-44 -236 -260 -236q-63 0 -105 20.5t-58.5 54.5t-21.5 78t6 90l6 29h113l-8 -36q-16 -60 -1.5 -97t74.5 -37q64 0 94.5 36.5t43.5 104.5l94 487h119z" />
    <glyph glyph-name="K" unicode="K" horiz-adv-x="657" 
d="M148 715h119l-70 -353l393 353h144l-338 -303l214 -412h-137l-168 329l-135 -118l-42 -211h-119z" />
    <glyph glyph-name="L" unicode="L" horiz-adv-x="557" 
d="M148 715h119l-119 -614h357l-20 -101h-476z" />
    <glyph glyph-name="M" unicode="M" horiz-adv-x="829" 
d="M9 0l139 715h154l92 -550h2l307 550h154l-139 -715h-116l106 542h-1l-295 -542h-94l-85 542h-2l-106 -542h-116z" />
    <glyph glyph-name="N" unicode="N" horiz-adv-x="695" 
d="M9 0l139 715h132l218 -537h4l103 537h119l-139 -715h-131l-219 535h-2l-105 -535h-119z" />
    <glyph glyph-name="O" unicode="O" horiz-adv-x="753" 
d="M329 -15q-161 0 -238 106.5t-45 273.5q31 161 144.5 263t270.5 102q162 0 239.5 -106t45.5 -273q-31 -161 -145.5 -263.5t-271.5 -102.5zM337 87q118 0 193.5 79t99.5 199q11 72 2.5 130.5t-54.5 95.5t-123 37q-119 0 -194.5 -78.5t-98.5 -198.5q-11 -72 -2.5 -131
t54.5 -96t123 -37z" />
    <glyph glyph-name="P" unicode="P" horiz-adv-x="615" 
d="M9 0l139 715h301q108 0 163 -55.5t33 -165.5q-21 -106 -92.5 -157t-179.5 -51h-189l-56 -286h-119zM248 614l-44 -226h177q125 0 148 120q10 55 -14 80.5t-84 25.5h-183z" />
    <glyph glyph-name="Q" unicode="Q" horiz-adv-x="742" 
d="M682 27l-81 -70l-71 86q-95 -58 -210 -58q-161 0 -238.5 106.5t-44.5 273.5q30 161 144 263t271 102q162 0 239.5 -106t45.5 -273q-28 -145 -124 -241zM328 87q76 0 137 37l-73 90l81 70l74 -88q54 68 74 169q11 72 2.5 130.5t-54.5 95.5t-124 37q-119 0 -194 -78.5
t-98 -198.5q-11 -72 -2.5 -131t54.5 -96t123 -37z" />
    <glyph glyph-name="R" unicode="R" horiz-adv-x="625" 
d="M9 0l139 715h302q112 0 168 -56.5t37 -155.5q-29 -141 -163 -172l-8 -2q37 -7 58.5 -33.5t25 -61t2.5 -74t-7.5 -72.5t-5.5 -56t8 -26l1 -6l-122 2q-4 8 -3.5 31t8 53.5t8.5 64t-4 61.5t-28 46t-64 18h-179l-54 -276h-119zM248 614l-46 -236h157q68 0 115 26t62 99
q7 35 -0.5 58.5t-28 34.5t-42 14.5t-53.5 3.5h-164z" />
    <glyph glyph-name="S" unicode="S" horiz-adv-x="618" 
d="M349 424q27 -10 44 -17t39.5 -17t37 -18.5t32 -19.5t28 -21.5t22 -24t17 -28.5t9.5 -32.5t4 -38t-4 -43.5q-13 -85 -85.5 -132t-193.5 -47q-137 0 -219.5 68t-72.5 182h117q-5 -69 43 -108.5t139 -39.5q139 0 155 87q10 54 -26 83t-145 70q-40 15 -65 26t-57 31.5
t-48.5 42t-25.5 55.5t-2 74q15 86 90 130t185 44q121 0 190.5 -60.5t61.5 -164.5h-117q4 61 -32.5 92t-109.5 31q-136 0 -150 -75q-4 -26 1 -44t29.5 -34.5t37.5 -22.5t59 -23q2 -1 3.5 -1.5t4 -1.5t4.5 -2z" />
    <glyph glyph-name="T" unicode="T" horiz-adv-x="607" 
d="M194 0l120 614h-229l19 101h576l-20 -101h-228l-119 -614h-119z" />
    <glyph glyph-name="U" unicode="U" horiz-adv-x="665" 
d="M611 241q-49 -256 -326 -256q-146 0 -203.5 70t-33.5 193l90 467h119l-91 -474q-16 -81 15 -117.5t112 -36.5q169 0 200 161l91 467h118z" />
    <glyph glyph-name="V" unicode="V" horiz-adv-x="621" 
d="M90 715h127l65 -587l294 587h130l-383 -715h-128z" />
    <glyph glyph-name="W" unicode="W" horiz-adv-x="917" 
d="M93 715h121l14 -554h2l252 554h122l37 -554h2l230 554h123l-318 -715h-125l-38 560h-2l-255 -560h-126z" />
    <glyph glyph-name="X" unicode="X" horiz-adv-x="618" 
d="M264 365l-155 350h127l110 -264l216 264h130l-292 -348l169 -367h-136l-116 279l-226 -279h-141z" />
    <glyph glyph-name="Y" unicode="Y" horiz-adv-x="621" 
d="M84 715h125l120 -332h1l252 332h129l-339 -431l-56 -284h-119l57 284z" />
    <glyph glyph-name="Z" unicode="Z" horiz-adv-x="608" 
d="M136 715h526l-18 -101l-500 -511l-2 -2h412l-21 -101h-556l19 101l500 511l2 2h-381z" />
    <glyph glyph-name="bracketleft" unicode="[" horiz-adv-x="325" 
d="M167 760h227l-19 -98h-111l-134 -687h111l-19 -98h-226z" />
    <glyph glyph-name="backslash" unicode="\" horiz-adv-x="380" 
d="M93 715h94l138 -715h-94z" />
    <glyph glyph-name="bracketright" unicode="]" horiz-adv-x="327" 
d="M356 760l-172 -883h-226l18 98h111l134 687h-111l19 98h227z" />
    <glyph glyph-name="asciicircum" unicode="^" horiz-adv-x="457" 
d="M268 715h93l119 -275h-106l-76 181h-1l-144 -181h-112z" />
    <glyph glyph-name="underscore" unicode="_" horiz-adv-x="416" 
d="M-66 -76h419l-19 -98h-420z" />
    <glyph glyph-name="grave" unicode="`" horiz-adv-x="469" 
d="M325 723l17 -131h-80l-58 131h121z" />
    <glyph glyph-name="a" unicode="a" horiz-adv-x="521" 
d="M480 343l-48 -244q-6 -29 0.5 -39.5t36.5 -7.5l-10 -49q-25 -12 -56 -12q-79 0 -81 69q-72 -75 -181 -75q-80 0 -118.5 43.5t-24.5 116.5q14 70 68.5 102t167.5 57q40 9 59 14t42 14.5t33 21.5t14 30q5 27 -11.5 42.5t-63.5 15.5q-64 0 -96.5 -22.5t-47.5 -72.5h-101
q41 178 250 178q93 0 139.5 -43t28.5 -139zM346 197l17 74q-23 -17 -110 -35q-72 -15 -107.5 -36t-42.5 -57q-7 -35 12.5 -55t55.5 -20q68 0 114.5 34t60.5 95z" />
    <glyph glyph-name="b" unicode="b" horiz-adv-x="564" 
d="M359 525q102 0 153 -75t27 -202q-24 -121 -99.5 -192t-173.5 -71q-101 0 -145 77l-4 -3l-13 -59h-105l139 715h105l-51 -266l1 3q64 73 166 73zM252 71q69 0 118.5 55t65.5 136q15 76 -10.5 126.5t-89.5 50.5q-67 0 -116 -51.5t-66 -139.5q-16 -83 10 -130t88 -47z" />
    <glyph glyph-name="c" unicode="c" horiz-adv-x="522" 
d="M416 321q4 50 -19 84t-83 34q-75 0 -124 -53.5t-64 -134.5q-15 -76 11 -128t96 -52q64 0 103 35t52 80h105q-24 -89 -96.5 -145t-168.5 -56q-116 0 -172.5 77t-32.5 200q23 118 104 190.5t192 72.5q100 0 153.5 -57.5t45.5 -146.5h-102z" />
    <glyph glyph-name="d" unicode="d" horiz-adv-x="564" 
d="M498 715h106l-139 -715h-106l11 56q-69 -71 -165 -71q-103 0 -154 75.5t-26 201.5q24 121 99.5 192t173.5 71q104 0 145 -78l4 2zM410 262q16 83 -10 130t-88 47q-69 0 -118.5 -54.5t-65.5 -136.5q-15 -76 10.5 -126.5t89.5 -50.5q66 0 115.5 51.5t66.5 139.5z" />
    <glyph glyph-name="e" unicode="e" horiz-adv-x="537" 
d="M235 71q60 0 98.5 28.5t51.5 60.5h109q-34 -81 -102 -128t-161 -47q-121 0 -177.5 80t-31.5 206q25 121 103.5 187.5t191.5 66.5q123 0 173 -80t22 -219h-392q-13 -67 18 -111t97 -44zM312 442q-65 0 -115 -40t-62 -99h288q11 64 -18 101.5t-93 37.5z" />
    <glyph glyph-name="f" unicode="f" horiz-adv-x="311" 
d="M366 629q-54 2 -78.5 -11t-32.5 -55l-10 -52h95l-17 -86h-95l-83 -425h-105l83 425h-73l17 86h73l13 69q15 78 51.5 110t99.5 32q30 0 72 -8z" />
    <glyph glyph-name="g" unicode="g" horiz-adv-x="555" 
d="M451 511h105l-94 -479q-40 -209 -262 -209q-105 0 -161.5 47.5t-56.5 111.5h103q7 -75 112 -75q135 0 163 136l11 58l-1 -2q-66 -74 -165 -74q-101 0 -152 68.5t-28 188.5q23 115 95.5 179t169.5 64q101 0 144 -76l5 2zM229 111q68 0 114 44t62 127q15 78 -11 117.5
t-88 39.5q-70 0 -116.5 -44t-61.5 -119q-14 -72 11.5 -118.5t89.5 -46.5z" />
    <glyph glyph-name="h" unicode="h" horiz-adv-x="538" 
d="M367 525q79 0 120 -45.5t24 -130.5l-68 -349h-106l64 326q10 55 -6.5 82.5t-67.5 27.5q-61 0 -106.5 -35.5t-56.5 -92.5l-61 -308h-105l139 715h105l-52 -270l2 3q65 77 175 77z" />
    <glyph glyph-name="i" unicode="i" horiz-adv-x="216" 
d="M181 597q-26 0 -43 17t-12 46q5 23 23.5 35.5t39.5 12.5q26 0 43 -17t11 -45q-4 -23 -22.5 -36t-39.5 -13zM105 511h105l-100 -511h-105z" />
    <glyph glyph-name="j" unicode="j" horiz-adv-x="215" 
d="M179 597q-26 0 -43 17t-11 46q4 23 22.5 35.5t40.5 12.5q26 0 42.5 -17t11.5 -45q-5 -23 -23 -36t-40 -13zM103 511h106l-105 -538q-14 -75 -43.5 -111t-87.5 -36q-37 0 -83 12l8 79q53 -3 73 8t28 53z" />
    <glyph glyph-name="k" unicode="k" horiz-adv-x="506" 
d="M137 715h105l-80 -409l247 205h131l-231 -190l151 -321h-123l-112 252l-84 -67l-38 -185h-105z" />
    <glyph glyph-name="l" unicode="l" horiz-adv-x="207" 
d="M139 715h106l-139 -715h-106z" />
    <glyph glyph-name="m" unicode="m" horiz-adv-x="814" 
d="M658 525q79 0 112 -46t17 -130l-69 -349h-106l64 326q13 52 1.5 81t-60.5 29q-55 0 -95 -35.5t-51 -92.5l-60 -308h-106l63 326q14 52 2.5 81t-60.5 29q-55 0 -95 -35.5t-51 -92.5l-61 -308h-105l100 511h105l-13 -66l2 3q65 77 162 77q106 0 122 -92l2 6q84 86 180 86z
" />
    <glyph glyph-name="n" unicode="n" horiz-adv-x="538" 
d="M370 525q77 0 117.5 -46t23.5 -130l-68 -349h-106l64 326q10 54 -7 82t-66 28q-63 0 -108 -35.5t-56 -92.5l-61 -308h-105l100 511h105l-13 -66l2 3q65 77 178 77z" />
    <glyph glyph-name="o" unicode="o" horiz-adv-x="556" 
d="M219 -15q-117 0 -170 72.5t-30 190.5q24 124 110 200.5t208 76.5q116 0 169 -72t30 -191q-24 -123 -110 -200t-207 -77zM240 71q70 0 119 48.5t69 128.5q20 85 -8.5 138t-102.5 53q-71 0 -120 -48.5t-69 -128.5q-21 -85 7.5 -138t104.5 -53z" />
    <glyph glyph-name="p" unicode="p" horiz-adv-x="565" 
d="M361 525q101 0 152 -75.5t27 -201.5q-24 -121 -99.5 -192t-172.5 -71q-105 0 -146 79l-5 -3l-45 -235h-106l134 685h105l-12 -60l1 3q69 71 167 71zM252 71q69 0 118.5 55t66.5 136q14 77 -11 127t-90 50q-66 0 -115 -51.5t-66 -139.5q-16 -82 9.5 -129.5t87.5 -47.5z
" />
    <glyph glyph-name="q" unicode="q" horiz-adv-x="565" 
d="M459 511h106l-133 -685h-106l46 235l-1 -2q-65 -74 -168 -74q-101 0 -152 75.5t-26 201.5q24 121 99 192t172 71q104 0 147 -76l4 2zM228 71q66 0 115.5 51.5t66.5 139.5q16 83 -10 130t-88 47q-69 0 -118.5 -54.5t-65.5 -136.5q-15 -76 10.5 -126.5t89.5 -50.5z" />
    <glyph glyph-name="r" unicode="r" horiz-adv-x="355" 
d="M337 523q29 0 48 -4l-16 -98q-74 12 -136.5 -35t-78.5 -128l-51 -258h-105l100 511h105l-19 -96l2 3q64 105 151 105z" />
    <glyph glyph-name="s" unicode="s" horiz-adv-x="484" 
d="M269 306q41 -12 69 -24.5t56 -33t39.5 -50.5t5.5 -70q-9 -72 -66 -107.5t-142 -35.5q-116 0 -175.5 50.5t-59.5 131.5h102q-2 -44 31.5 -71.5t103.5 -27.5q46 0 72 16.5t30 44.5q3 18 -2 31.5t-12.5 22t-26.5 16.5t-32 12.5t-42 12.5t-49.5 16t-46.5 22.5t-41 31.5
t-24 44t-4 59q7 60 61 94t140 34q102 0 154.5 -47t52.5 -114h-100q1 33 -26.5 55.5t-83.5 22.5q-89 0 -95 -49q-2 -19 2.5 -32t22 -23t31 -15t45.5 -14q7 -2 10 -3z" />
    <glyph glyph-name="t" unicode="t" horiz-adv-x="313" 
d="M326 425h-96l-55 -280q-8 -41 9.5 -51t73.5 -7l-11 -87q-32 -7 -71 -7q-67 0 -94.5 35.5t-12.5 113.5l55 283h-74l17 86h74l32 161h105l-31 -161h96z" />
    <glyph glyph-name="u" unicode="u" horiz-adv-x="537" 
d="M433 511h105l-100 -511h-105l13 65l-1 -2q-68 -78 -179 -78q-77 0 -117.5 46t-23.5 130l68 350h106l-64 -327q-21 -109 74 -109q62 0 107 35.5t56 92.5z" />
    <glyph glyph-name="v" unicode="v" horiz-adv-x="482" 
d="M48 511h109l52 -400h1l207 400h112l-280 -511h-119z" />
    <glyph glyph-name="w" unicode="w" horiz-adv-x="751" 
d="M51 511h109l29 -388h2l179 388h103l30 -388h2l179 388h112l-256 -511h-106l-33 390h-2l-185 -390h-106z" />
    <glyph glyph-name="x" unicode="x" horiz-adv-x="516" 
d="M69 511h117l81 -180h2l151 180h121l-222 -250l140 -261h-121l-93 192h-2l-169 -192h-124l242 261z" />
    <glyph glyph-name="y" unicode="y" horiz-adv-x="504" 
d="M549 511l-309 -546q-40 -71 -78.5 -105t-103.5 -34q-35 0 -77 11l13 79l5 -1q68 -10 107 32q21 17 33.5 46t6.5 63l-98 455h111l67 -391h2l207 391h114z" />
    <glyph glyph-name="z" unicode="z" horiz-adv-x="471" 
d="M-11 78l343 345l1 2h-257l17 86h398l-13 -70l-350 -353l-1 -2h292l-17 -86h-427z" />
    <glyph glyph-name="braceleft" unicode="{" horiz-adv-x="326" 
d="M42 368q36 -1 55 22.5t27 65.5l21 113q12 62 30.5 100.5t47.5 58t62 26t85 6.5h25l-19 -98h-19q-77 0 -97 -97l-27 -141q-14 -73 -79 -105l-7 -2q58 -34 44 -110l-27 -138q-11 -55 2.5 -74.5t50.5 -19.5h25l-19 -98h-18q-41 0 -68.5 5t-51 17.5t-32 35t-12 58t8.5 85.5
l22 109q10 38 1.5 60.5t-44.5 22.5z" />
    <glyph glyph-name="bar" unicode="|" horiz-adv-x="59" 
d="M92 747h83l-170 -878h-83z" />
    <glyph glyph-name="braceright" unicode="}" horiz-adv-x="327" 
d="M322 368l-13 -98q-64 0 -81 -89l-21 -110q-12 -62 -30.5 -101t-47.5 -59t-62.5 -27t-85.5 -7h-24l18 98h19q79 0 98 100l27 138q14 75 79 106l7 2q-59 33 -44 109l27 142q10 52 -4 71t-50 19h-25l19 98h19q34 0 58 -3t45.5 -11t34 -22t20 -36t6.5 -53t-9 -73l-22 -112
q-10 -38 -2 -60.5t44 -21.5z" />
    <glyph glyph-name="asciitilde" unicode="~" horiz-adv-x="417" 
d="M35 263q12 64 42.5 98.5t75.5 34.5q37 0 73 -21.5t48 -21.5q23 0 37 15t17 32l79 -7q-13 -64 -43 -98.5t-75 -34.5q-36 0 -72.5 22t-49.5 22q-23 0 -36.5 -15t-17.5 -32z" />
    <glyph glyph-name="exclamdown" unicode="&#xa1;" horiz-adv-x="247" 
d="M179 593q30 0 47 -20t10 -52q-5 -26 -24.5 -42t-44.5 -16q-30 0 -47 20.5t-10 51.5q5 27 24.5 42.5t44.5 15.5zM-11 -130l37 189l91 326h59l-35 -326l-37 -189h-115z" />
    <glyph glyph-name="cent" unicode="&#xa2;" horiz-adv-x="522" 
d="M517 321h-102q4 45 -14.5 78t-66.5 39l-71 -364q51 8 82 41t42 71h105q-22 -84 -89 -139.5t-157 -60.5l-15 -78h-60l16 80q-97 13 -142 88t-23 186q22 110 95 181.5t174 80.5l13 68h60l-13 -69q85 -10 129 -65.5t37 -136.5zM125 251q-13 -67 5.5 -116.5t72.5 -60.5
l70 361q-59 -14 -96.5 -64t-51.5 -120z" />
    <glyph glyph-name="sterling" unicode="&#xa3;" horiz-adv-x="551" 
d="M576 461h-114q26 140 -103 140q-59 0 -96 -31.5t-47 -81.5q-10 -53 12 -115h156l-9 -89h-134q0 -16 -2 -27q-18 -88 -92 -142q40 17 72 17q36 0 76.5 -21.5t67.5 -21.5q46 0 115 48l33 -93q-45 -30 -78 -44.5t-75 -14.5q-49 0 -100 31t-80 31q-32 0 -60 -11t-75 -38
l-48 88q48 24 84 70t49 100q6 12 4 28h-88l17 89h54q-23 74 -11 132q7 34 24 65.5t46.5 62t79.5 49t113 18.5q126 0 178 -66.5t31 -172.5z" />
    <glyph glyph-name="currency" unicode="&#xa4;" horiz-adv-x="418" 
d="M421 339q-12 -61 -50 -106l51 -61l-66 -56l-49 60q-52 -31 -115 -31q-65 0 -107 36l-77 -65l-47 56l77 66q-21 49 -10 115q15 64 51 107l-50 60l64 56l51 -61q52 31 114 31q65 0 106 -35l77 64l49 -55l-79 -66q23 -49 10 -115zM119 342q-22 -121 79 -121q48 0 84.5 34
t47.5 94q12 60 -9 90.5t-69 30.5t-84.5 -34t-48.5 -94z" />
    <glyph glyph-name="yen" unicode="&#xa5;" horiz-adv-x="587" 
d="M661 686l-287 -381h155l-12 -60h-172l-11 -57h172l-12 -60h-172l-25 -128h-115l25 128h-172l12 60h172l11 57h-172l12 60h157l-139 381h124l99 -311h2l219 311h129z" />
    <glyph glyph-name="brokenbar" unicode="&#xa6;" horiz-adv-x="53" 
d="M70 747h82l-70 -363h-83zM-28 245h83l-73 -376h-83z" />
    <glyph glyph-name="section" unicode="&#xa7;" horiz-adv-x="593" 
d="M562 228q-21 -103 -139 -134q35 -55 22 -121t-70.5 -107.5t-152.5 -41.5q-105 0 -149 50t-32 125l104 -6q-1 -22 0 -41.5t20.5 -32t60.5 -12.5q100 0 114 71q3 17 -1.5 32.5t-22.5 32.5t-26 24.5t-37.5 27t-31.5 21.5q-100 58 -113 67q-72 51 -71 115q0 13 3 28
q20 101 140 134q-36 54 -23 121q13 66 71 107.5t152 41.5q105 0 148.5 -50t32.5 -125l-104 6q1 22 0 41.5t-21 32t-61 12.5q-99 0 -113 -71q-2 -12 0 -24t10.5 -23.5t15 -20t22 -20t23 -17t26 -18t23.5 -15.5q101 -59 129 -82q64 -56 51 -128zM355 144q88 20 101 84
q3 17 -4 32t-28 31t-44.5 30t-64.5 39.5t-75 49.5q-86 -17 -97 -84q-3 -17 5 -33.5t30.5 -34t45 -32t63 -39t68.5 -43.5z" />
    <glyph glyph-name="dieresis" unicode="&#xa8;" horiz-adv-x="499" 
d="M186 673q4 22 20.5 37t41.5 15q30 0 43.5 -19.5t8.5 -46.5q-4 -21 -20.5 -35.5t-40.5 -14.5q-30 0 -44 18.5t-9 45.5zM357 673q4 22 20.5 37t40.5 15q30 0 44 -19.5t9 -46.5q-4 -21 -20.5 -35.5t-41.5 -14.5q-30 0 -43.5 18.5t-8.5 45.5z" />
    <glyph glyph-name="copyright" unicode="&#xa9;" horiz-adv-x="791" 
d="M355 -16q-170 0 -254.5 114t-50.5 289q29 151 145 247.5t280 96.5q170 0 254 -114.5t50 -289.5q-29 -151 -144.5 -247t-279.5 -96zM361 27q144 0 242.5 89t125.5 225q28 147 -41.5 247t-210.5 100q-146 0 -248 -89.5t-128 -225.5q-29 -146 44 -246t216 -100zM533 421
q2 29 -16.5 55.5t-68.5 26.5q-120 0 -149 -153q-28 -138 85 -138q92 0 125 83h88q-19 -71 -77 -116.5t-140 -45.5q-100 0 -144.5 63.5t-24.5 167.5q19 97 84.5 157.5t158.5 60.5q85 0 128.5 -46.5t37.5 -114.5h-87z" />
    <glyph glyph-name="guillemotleft" unicode="&#xab;" horiz-adv-x="391" 
d="M19 197l20 110l167 123l-19 -102l-104 -75l-1 -2l74 -75l-18 -102zM208 197l19 110l167 123l-19 -102l-104 -75l-1 -2l74 -75l-18 -102z" />
    <glyph glyph-name="logicalnot" unicode="&#xac;" horiz-adv-x="546" 
d="M370 310h-307l20 98h419l-53 -267h-112z" />
    <glyph glyph-name="registered" unicode="&#xae;" horiz-adv-x="511" 
d="M270 247q-103 0 -165 76.5t-41 182.5q20 102 93 163.5t175 61.5q103 0 165 -76.5t41 -182.5q-20 -102 -93 -163.5t-175 -61.5zM272 290q89 0 147 52t76 144q16 83 -34 142.5t-132 59.5q-89 0 -146.5 -52.5t-75.5 -143.5q-16 -83 34 -142.5t131 -59.5zM184 362l51 258h107
q40 0 60.5 -22t13.5 -59q-9 -47 -55 -58l-8 -1q25 -5 29.5 -33t0 -55t-0.5 -28l3 -2l-49 2q-2 4 -0.5 20t4.5 33t-6.5 31t-33.5 14h-47l-19 -100h-50zM275 577l-13 -72h41q57 0 65 42q2 11 -0.5 17.5t-11 9t-14 3t-19.5 0.5h-48z" />
    <glyph glyph-name="macron" unicode="&#xaf;" horiz-adv-x="495" 
d="M200 700h267l-15 -80h-267z" />
    <glyph glyph-name="degree" unicode="&#xb0;" horiz-adv-x="360" 
d="M219 427q-74 0 -107.5 48t-21.5 111q12 57 58.5 100.5t115.5 43.5q73 0 106 -48t22 -110q-12 -56 -59 -100.5t-114 -44.5zM228 494q37 0 62.5 23t32.5 59q8 42 -11.5 64.5t-57.5 22.5q-37 0 -62.5 -23t-32.5 -58q-8 -42 11.5 -65t57.5 -23z" />
    <glyph glyph-name="plusminus" unicode="&#xb1;" horiz-adv-x="559" 
d="M57 306l19 98h183l31 161h99l-32 -161h183l-19 -98h-182l-32 -161h-99l32 161h-183zM14 86h465l-18 -86h-464z" />
    <glyph glyph-name="acute" unicode="&#xb4;" horiz-adv-x="490" 
d="M327 723h124l-108 -131h-84z" />
    <glyph glyph-name="paragraph" unicode="&#xb6;" horiz-adv-x="560" 
d="M281 335h-42q-96 0 -138 50.5t-24 143.5q18 89 76 137.5t154 48.5h281l-139 -715h-80l124 632h-75l-123 -632h-80z" />
    <glyph glyph-name="periodcentered" unicode="&#xb7;" horiz-adv-x="206" 
d="M108 245q-30 0 -46.5 20t-10.5 52q5 26 24.5 42t44.5 16q30 0 47 -20.5t11 -51.5q-5 -26 -25 -42t-45 -16z" />
    <glyph glyph-name="cedilla" unicode="&#xb8;" horiz-adv-x="503" 
d="M232 -8l-49 -49l-6 -2q39 5 69 -12.5t23 -56.5q-6 -32 -41 -50.5t-79 -18.5q-64 0 -108 31l24 25q32 -13 67 -13q25 0 44 11.5t22 29.5q2 11 -6 15.5t-29 4.5q-24 0 -42 -8l-14 22l69 71h56z" />
    <glyph glyph-name="guillemotright" unicode="&#xbb;" horiz-adv-x="391" 
d="M162 197l-167 -123l18 102l104 75l2 2l-74 75l18 102l118 -123zM350 197l-166 -123l18 102l104 75l2 2l-74 75l17 102l118 -123z" />
    <glyph glyph-name="questiondown" unicode="&#xbf;" horiz-adv-x="518" 
d="M335 593q30 0 46.5 -20t10.5 -52q-5 -26 -24.5 -42t-45.5 -16q-30 0 -46.5 20.5t-10.5 51.5q5 26 25 42t45 16zM359 95h114q-17 -110 -89.5 -175t-194.5 -65q-99 0 -157.5 56.5t-43.5 140.5q5 30 18 53.5t37.5 43.5t41.5 31t52 31q57 32 84 67.5t41 103.5h101
q-12 -81 -37.5 -128t-83.5 -86q-15 -10 -43.5 -26.5t-44.5 -27t-32 -30t-21 -43.5q-7 -38 22 -62.5t79 -24.5q129 0 157 141z" />
    <glyph glyph-name="Agrave" unicode="&#xc0;" horiz-adv-x="662" 
d="M452 928l18 -131h-81l-57 131h120zM462 169h-292l-91 -169h-122l401 715h126l122 -715h-119zM222 268h226l-46 338h-2z" />
    <glyph glyph-name="Aacute" unicode="&#xc1;" horiz-adv-x="662" 
d="M458 928h125l-109 -131h-84zM462 169h-292l-91 -169h-122l401 715h126l122 -715h-119zM222 268h226l-46 338h-2z" />
    <glyph glyph-name="Acircumflex" unicode="&#xc2;" horiz-adv-x="662" 
d="M279 797l122 131h111l72 -131h-97l-37 79h-2l-68 -79h-101zM462 169h-292l-91 -169h-122l401 715h126l122 -715h-119zM222 268h226l-46 338h-2z" />
    <glyph glyph-name="Atilde" unicode="&#xc3;" horiz-adv-x="662" 
d="M293 821q20 104 93 104q28 0 67 -18t49 -18q33 0 41 38l66 -6q-21 -104 -92 -104q-29 0 -68 18t-49 18q-33 0 -41 -38zM462 169h-292l-91 -169h-122l401 715h126l122 -715h-119zM222 268h226l-46 338h-2z" />
    <glyph glyph-name="Adieresis" unicode="&#xc4;" horiz-adv-x="662" 
d="M306 878q5 21 22 36t41 15q30 0 43.5 -18.5t8.5 -46.5q-4 -21 -21 -36t-41 -15q-30 0 -44 19t-9 46zM477 878q5 21 21.5 36t40.5 15q30 0 43.5 -19t8.5 -46q-4 -21 -20.5 -36t-40.5 -15q-30 0 -44 19t-9 46zM462 169h-292l-91 -169h-122l401 715h126l122 -715h-119z
M222 268h226l-46 338h-2z" />
    <glyph glyph-name="Aring" unicode="&#xc5;" horiz-adv-x="662" 
d="M433 783q-41 0 -64 27.5t-15 70.5q7 38 36.5 61.5t65.5 23.5q41 0 65 -28t15 -71q-8 -37 -37.5 -60.5t-65.5 -23.5zM435 828q22 0 37 13.5t18 33.5q4 23 -6.5 34.5t-29.5 11.5q-46 0 -55 -47q-4 -23 6.5 -34.5t29.5 -11.5zM462 169h-292l-91 -169h-122l401 715h126
l122 -715h-119zM222 268h226l-46 338h-2z" />
    <glyph glyph-name="AE" unicode="&#xc6;" horiz-adv-x="991" 
d="M519 101h408l-20 -101h-527l33 169h-241l-91 -170h-122l405 716h672l-20 -101h-397l-38 -194h349l-20 -102h-348zM224 267h208l67 345h-92z" />
    <glyph glyph-name="Ccedilla" unicode="&#xc7;" horiz-adv-x="690" 
d="M439 628q-111 0 -181.5 -79.5t-93.5 -197.5q-12 -52 -8 -99.5t20 -84t53.5 -58.5t91.5 -22q93 0 151.5 50.5t80.5 120.5h118q-35 -118 -121 -191.5t-209 -80.5l-46 -43l-6 -2q40 5 70 -12.5t22 -56.5q-6 -32 -40.5 -50.5t-78.5 -18.5q-66 0 -108 31l24 25q30 -13 67 -13
q25 0 44 11.5t22 29.5q2 11 -6.5 15.5t-29.5 4.5q-22 0 -42 -8l-13 22l66 65q-140 11 -204 116t-34 263q31 161 141 263t259 102q134 0 203 -75t60 -189h-116q0 162 -156 162z" />
    <glyph glyph-name="Egrave" unicode="&#xc8;" horiz-adv-x="621" 
d="M443 928l18 -131h-81l-57 131h120zM210 420h349l-19 -102h-350l-42 -217h408l-20 -101h-527l139 715h517l-19 -101h-398z" />
    <glyph glyph-name="Eacute" unicode="&#xc9;" horiz-adv-x="621" 
d="M449 928h125l-109 -131h-84zM210 420h349l-19 -102h-350l-42 -217h408l-20 -101h-527l139 715h517l-19 -101h-398z" />
    <glyph glyph-name="Ecircumflex" unicode="&#xca;" horiz-adv-x="621" 
d="M270 797l122 131h111l72 -131h-97l-37 79h-2l-68 -79h-101zM210 420h349l-19 -102h-350l-42 -217h408l-20 -101h-527l139 715h517l-19 -101h-398z" />
    <glyph glyph-name="Edieresis" unicode="&#xcb;" horiz-adv-x="621" 
d="M297 878q5 21 22 36t41 15q30 0 43.5 -18.5t8.5 -46.5q-4 -21 -21 -36t-41 -15q-30 0 -44 19t-9 46zM468 878q5 21 21.5 36t40.5 15q30 0 43.5 -19t8.5 -46q-4 -21 -20.5 -36t-40.5 -15q-30 0 -44 19t-9 46zM210 420h349l-19 -102h-350l-42 -217h408l-20 -101h-527
l139 715h517l-19 -101h-398z" />
    <glyph glyph-name="Igrave" unicode="&#xcc;" horiz-adv-x="233" 
d="M232 928l17 -131h-81l-57 131h121zM141 715h119l-139 -715h-119z" />
    <glyph glyph-name="Iacute" unicode="&#xcd;" horiz-adv-x="242" 
d="M247 928h124l-109 -131h-84zM150 715h119l-139 -715h-119z" />
    <glyph glyph-name="Icircumflex" unicode="&#xce;" horiz-adv-x="242" 
d="M66 797l122 131h111l72 -131h-97l-37 79h-2l-68 -79h-101zM149 715h118l-139 -715h-118z" />
    <glyph glyph-name="Idieresis" unicode="&#xcf;" horiz-adv-x="249" 
d="M98 878q5 22 21.5 36.5t40.5 14.5q30 0 43.5 -19t8.5 -46q-4 -21 -20.5 -36t-40.5 -15q-30 0 -44 18.5t-9 46.5zM269 878q4 21 21 36t41 15q30 0 43.5 -19t8.5 -46q-4 -21 -20.5 -36t-40.5 -15q-30 0 -44 19t-9 46zM153 715h119l-139 -715h-119z" />
    <glyph glyph-name="Eth" unicode="&#xd0;" horiz-adv-x="691" 
d="M431 715q149 0 216.5 -95.5t34.5 -269.5q-33 -169 -132 -259.5t-248 -90.5h-285l65 332h-63l15 76h63l59 307h275zM306 101q58 0 104 21t76 58.5t49 82.5t30 101q51 250 -153 250h-156l-40 -206h202l-14 -76h-203l-45 -231h150z" />
    <glyph glyph-name="Ntilde" unicode="&#xd1;" horiz-adv-x="695" 
d="M309 821q20 104 92 104q28 0 67 -18t50 -18q32 0 40 38l66 -6q-20 -104 -92 -104q-29 0 -68 18t-49 18q-17 0 -27 -12t-13 -26zM9 0l139 715h132l218 -537h4l103 537h119l-139 -715h-131l-219 535h-2l-105 -535h-119z" />
    <glyph glyph-name="Ograve" unicode="&#xd2;" horiz-adv-x="753" 
d="M496 928l17 -131h-81l-56 131h120zM329 -15q-161 0 -238 106.5t-45 273.5q31 161 144.5 263t270.5 102q162 0 239.5 -106t45.5 -273q-31 -161 -145.5 -263.5t-271.5 -102.5zM337 87q118 0 193.5 79t99.5 199q11 72 2.5 130.5t-54.5 95.5t-123 37q-119 0 -194.5 -78.5
t-98.5 -198.5q-11 -72 -2.5 -131t54.5 -96t123 -37z" />
    <glyph glyph-name="Oacute" unicode="&#xd3;" horiz-adv-x="753" 
d="M502 928h124l-108 -131h-84zM329 -15q-161 0 -238 106.5t-45 273.5q31 161 144.5 263t270.5 102q162 0 239.5 -106t45.5 -273q-31 -161 -145.5 -263.5t-271.5 -102.5zM337 87q118 0 193.5 79t99.5 199q11 72 2.5 130.5t-54.5 95.5t-123 37q-119 0 -194.5 -78.5
t-98.5 -198.5q-11 -72 -2.5 -131t54.5 -96t123 -37z" />
    <glyph glyph-name="Ocircumflex" unicode="&#xd4;" horiz-adv-x="753" 
d="M323 797l122 131h111l72 -131h-98l-36 79h-2l-69 -79h-100zM329 -15q-161 0 -238 106.5t-45 273.5q31 161 144.5 263t270.5 102q162 0 239.5 -106t45.5 -273q-31 -161 -145.5 -263.5t-271.5 -102.5zM337 87q118 0 193.5 79t99.5 199q11 72 2.5 130.5t-54.5 95.5t-123 37
q-119 0 -194.5 -78.5t-98.5 -198.5q-11 -72 -2.5 -131t54.5 -96t123 -37z" />
    <glyph glyph-name="Otilde" unicode="&#xd5;" horiz-adv-x="753" 
d="M337 821q20 104 92 104q29 0 68 -18t49 -18q32 0 40 38l67 -6q-21 -104 -93 -104q-28 0 -67 18t-50 18q-17 0 -27 -12t-13 -26zM329 -15q-161 0 -238 106.5t-45 273.5q31 161 144.5 263t270.5 102q162 0 239.5 -106t45.5 -273q-31 -161 -145.5 -263.5t-271.5 -102.5z
M337 87q118 0 193.5 79t99.5 199q11 72 2.5 130.5t-54.5 95.5t-123 37q-119 0 -194.5 -78.5t-98.5 -198.5q-11 -72 -2.5 -131t54.5 -96t123 -37z" />
    <glyph glyph-name="Odieresis" unicode="&#xd6;" horiz-adv-x="753" 
d="M350 878q5 22 21.5 36.5t40.5 14.5q30 0 43.5 -19t8.5 -46q-4 -21 -20.5 -36t-40.5 -15q-30 0 -44 19t-9 46zM521 878q4 21 21 36t41 15q30 0 43.5 -19t8.5 -46q-4 -21 -20.5 -36t-40.5 -15q-30 0 -44 19t-9 46zM329 -15q-161 0 -238 106.5t-45 273.5q31 161 144.5 263
t270.5 102q162 0 239.5 -106t45.5 -273q-31 -161 -145.5 -263.5t-271.5 -102.5zM337 87q118 0 193.5 79t99.5 199q11 72 2.5 130.5t-54.5 95.5t-123 37q-119 0 -194.5 -78.5t-98.5 -198.5q-11 -72 -2.5 -131t54.5 -96t123 -37z" />
    <glyph glyph-name="multiply" unicode="&#xd7;" horiz-adv-x="542" 
d="M531 475l-178 -149l120 -148l-81 -70l-120 148l-177 -148l-59 70l178 148l-120 149l80 70l120 -149l178 149z" />
    <glyph glyph-name="Oslash" unicode="&#xd8;" horiz-adv-x="757" 
d="M813 676l-99 -85q52 -99 25 -240q-31 -161 -145.5 -263.5t-271.5 -102.5q-146 0 -223 90l-85 -71l-31 37l87 74q-61 102 -31 250q30 161 144 263t271 102q154 0 231 -98l95 80zM155 351q-18 -94 6 -161l439 369q-47 69 -153 69q-119 0 -194 -78.5t-98 -198.5zM623 365
q16 84 -3 149l-437 -367q47 -60 147 -60q118 0 193.5 79t99.5 199z" />
    <glyph glyph-name="Ugrave" unicode="&#xd9;" horiz-adv-x="665" 
d="M452 928l17 -131h-81l-57 131h121zM611 241q-49 -256 -326 -256q-146 0 -203.5 70t-33.5 193l90 467h119l-91 -474q-16 -81 15 -117.5t112 -36.5q169 0 200 161l91 467h118z" />
    <glyph glyph-name="Uacute" unicode="&#xda;" horiz-adv-x="665" 
d="M458 928h124l-109 -131h-84zM611 241q-49 -256 -326 -256q-146 0 -203.5 70t-33.5 193l90 467h119l-91 -474q-16 -81 15 -117.5t112 -36.5q169 0 200 161l91 467h118z" />
    <glyph glyph-name="Ucircumflex" unicode="&#xdb;" horiz-adv-x="665" 
d="M279 797l121 131h111l72 -131h-97l-36 79h-2l-69 -79h-100zM611 241q-49 -256 -326 -256q-146 0 -203.5 70t-33.5 193l90 467h119l-91 -474q-16 -81 15 -117.5t112 -36.5q169 0 200 161l91 467h118z" />
    <glyph glyph-name="Udieresis" unicode="&#xdc;" horiz-adv-x="665" 
d="M306 878q4 21 21 36t41 15q30 0 43.5 -19t8.5 -46q-4 -21 -20.5 -36t-40.5 -15q-30 0 -44 19t-9 46zM476 878q5 21 22 36t41 15q30 0 43.5 -19t8.5 -46q-4 -21 -21 -36t-41 -15q-30 0 -44 19t-9 46zM611 241q-49 -256 -326 -256q-146 0 -203.5 70t-33.5 193l90 467h119
l-91 -474q-16 -81 15 -117.5t112 -36.5q169 0 200 161l91 467h118z" />
    <glyph glyph-name="Yacute" unicode="&#xdd;" horiz-adv-x="621" 
d="M434 928h124l-108 -131h-85zM84 715h125l120 -332h1l252 332h129l-339 -431l-56 -284h-119l57 284z" />
    <glyph glyph-name="Thorn" unicode="&#xde;" horiz-adv-x="620" 
d="M9 0l139 715h118l-21 -114h182q108 0 162.5 -55t33.5 -166q-21 -105 -93 -156t-180 -51h-189l-34 -173h-118zM225 500l-44 -226h177q125 0 148 120q11 56 -13 81t-85 25h-183z" />
    <glyph glyph-name="germandbls" unicode="&#xdf;" horiz-adv-x="524" 
d="M201 502l-98 -502h-105l99 510q21 104 86.5 162t171.5 58q87 0 138.5 -53t35.5 -135q-20 -101 -134 -147l-7 -1q63 -21 91.5 -74.5t13.5 -132.5q-17 -89 -81.5 -145.5t-145.5 -56.5q-49 0 -102 16l10 84q85 -29 144 11t74 115q15 76 -23 110t-101 34h-31l15 80h22
q52 0 95.5 29t54.5 82q8 41 -10 69.5t-63 28.5q-66 0 -101 -37t-49 -105z" />
    <glyph glyph-name="agrave" unicode="&#xe0;" horiz-adv-x="521" 
d="M364 592h-80l-58 131h121zM480 343l-48 -244q-6 -29 0.5 -39.5t36.5 -7.5l-10 -49q-25 -12 -56 -12q-79 0 -81 69q-72 -75 -181 -75q-80 0 -118.5 43.5t-24.5 116.5q14 70 68.5 102t167.5 57q40 9 59 14t42 14.5t33 21.5t14 30q5 27 -11.5 42.5t-63.5 15.5
q-64 0 -96.5 -22.5t-47.5 -72.5h-101q41 178 250 178q93 0 139.5 -43t28.5 -139zM346 197l17 74q-23 -17 -110 -35q-72 -15 -107.5 -36t-42.5 -57q-7 -35 12.5 -55t55.5 -20q68 0 114.5 34t60.5 95z" />
    <glyph glyph-name="aacute" unicode="&#xe1;" horiz-adv-x="521" 
d="M477 723l-108 -131h-85l69 131h124zM480 343l-48 -244q-6 -29 0.5 -39.5t36.5 -7.5l-10 -49q-25 -12 -56 -12q-79 0 -81 69q-72 -75 -181 -75q-80 0 -118.5 43.5t-24.5 116.5q14 70 68.5 102t167.5 57q40 9 59 14t42 14.5t33 21.5t14 30q5 27 -11.5 42.5t-63.5 15.5
q-64 0 -96.5 -22.5t-47.5 -72.5h-101q41 178 250 178q93 0 139.5 -43t28.5 -139zM346 197l17 74q-23 -17 -110 -35q-72 -15 -107.5 -36t-42.5 -57q-7 -35 12.5 -55t55.5 -20q68 0 114.5 34t60.5 95z" />
    <glyph glyph-name="acircumflex" unicode="&#xe2;" horiz-adv-x="521" 
d="M344 671l-69 -79h-102l122 131h111l72 -131h-96zM480 343l-48 -244q-6 -29 0.5 -39.5t36.5 -7.5l-10 -49q-25 -12 -56 -12q-79 0 -81 69q-72 -75 -181 -75q-80 0 -118.5 43.5t-24.5 116.5q14 70 68.5 102t167.5 57q40 9 59 14t42 14.5t33 21.5t14 30q5 27 -11.5 42.5
t-63.5 15.5q-64 0 -96.5 -22.5t-47.5 -72.5h-101q41 178 250 178q93 0 139.5 -43t28.5 -139zM346 197l17 74q-23 -17 -110 -35q-72 -15 -107.5 -36t-42.5 -57q-7 -35 12.5 -55t55.5 -20q68 0 114.5 34t60.5 95z" />
    <glyph glyph-name="atilde" unicode="&#xe3;" horiz-adv-x="521" 
d="M294 649q-17 0 -27.5 -12.5t-12.5 -26.5l-66 7q19 104 92 104q28 0 67 -18.5t50 -18.5q18 0 27.5 12t12.5 27l66 -7q-21 -104 -92 -104q-28 0 -67 18.5t-50 18.5zM312 525q93 0 139.5 -43t28.5 -139l-48 -244q-6 -29 0.5 -39.5t36.5 -7.5l-10 -49q-25 -12 -56 -12
q-79 0 -81 69q-72 -75 -181 -75q-80 0 -118.5 43.5t-24.5 116.5q14 70 68.5 102t167.5 57q40 9 59 14t42 14.5t33 21.5t14 30q5 27 -11.5 42.5t-63.5 15.5q-64 0 -96.5 -22.5t-47.5 -72.5h-101q41 178 250 178zM346 197l17 74q-23 -17 -110 -35q-72 -15 -107.5 -36
t-42.5 -57q-7 -35 12.5 -55t55.5 -20q68 0 114.5 34t60.5 95z" />
    <glyph glyph-name="adieresis" unicode="&#xe4;" horiz-adv-x="521" 
d="M254 609q-30 0 -44 18.5t-9 45.5q4 22 20.5 37t41.5 15q30 0 43.5 -19.5t8.5 -46.5q-4 -21 -20.5 -35.5t-40.5 -14.5zM433 725q30 0 44.5 -19t8.5 -47q-4 -21 -20.5 -35.5t-41.5 -14.5q-30 0 -43.5 18.5t-8.5 45.5q4 22 20.5 37t40.5 15zM312 525q93 0 139.5 -43
t28.5 -139l-48 -244q-6 -29 0.5 -39.5t36.5 -7.5l-10 -49q-25 -12 -56 -12q-79 0 -81 69q-72 -75 -181 -75q-80 0 -118.5 43.5t-24.5 116.5q14 70 68.5 102t167.5 57q40 9 59 14t42 14.5t33 21.5t14 30q5 27 -11.5 42.5t-63.5 15.5q-64 0 -96.5 -22.5t-47.5 -72.5h-101
q41 178 250 178zM346 197l17 74q-23 -17 -110 -35q-72 -15 -107.5 -36t-42.5 -57q-7 -35 12.5 -55t55.5 -20q68 0 114.5 34t60.5 95z" />
    <glyph glyph-name="aring" unicode="&#xe5;" horiz-adv-x="521" 
d="M328 579q-41 0 -64.5 27.5t-14.5 70.5q7 37 36.5 61t65.5 24q41 0 64.5 -28t15.5 -71q-8 -38 -37.5 -61t-65.5 -23zM294 669q-4 -23 6.5 -34.5t29.5 -11.5q22 0 36.5 13.5t18.5 34.5q4 23 -6.5 34.5t-29.5 11.5q-44 0 -55 -48zM480 343l-48 -244q-6 -29 0.5 -39.5
t36.5 -7.5l-10 -49q-25 -12 -56 -12q-79 0 -81 69q-72 -75 -181 -75q-80 0 -118.5 43.5t-24.5 116.5q14 70 68.5 102t167.5 57q40 9 59 14t42 14.5t33 21.5t14 30q5 27 -11.5 42.5t-63.5 15.5q-64 0 -96.5 -22.5t-47.5 -72.5h-101q41 178 250 178q93 0 139.5 -43t28.5 -139z
M346 197l17 74q-23 -17 -110 -35q-72 -15 -107.5 -36t-42.5 -57q-7 -35 12.5 -55t55.5 -20q68 0 114.5 34t60.5 95z" />
    <glyph glyph-name="ae" unicode="&#xe6;" horiz-adv-x="877" 
d="M853 226h-392q-13 -67 18 -111t97 -44q60 0 98.5 28.5t51.5 60.5h109q-34 -81 -102 -128t-161 -47q-139 0 -192 104q-86 -104 -233 -104q-82 0 -122.5 43.5t-26.5 116.5q14 70 68.5 102t167.5 57q40 9 59 14t42 14.5t33 21.5t14 30q5 27 -11.5 42.5t-63.5 15.5
q-64 0 -96.5 -22.5t-47.5 -72.5h-101q41 178 250 178q119 0 156 -65q77 65 190 65q123 0 173 -80t22 -219zM653 442q-65 0 -115 -40t-62 -99h288q11 64 -18 101.5t-93 37.5zM171 68q68 0 114.5 34t60.5 95l17 74q-23 -17 -110 -35q-72 -15 -107.5 -36t-42.5 -57
q-7 -35 12.5 -55t55.5 -20z" />
    <glyph glyph-name="ccedilla" unicode="&#xe7;" horiz-adv-x="522" 
d="M518 321h-102q4 50 -19 84t-83 34q-75 0 -124 -53.5t-64 -134.5q-15 -76 11 -128t96 -52q64 0 103 35t52 80h105q-23 -85 -91 -140.5t-159 -60.5l-44 -42l-6 -2q39 5 69 -12.5t23 -56.5q-6 -32 -41 -50.5t-79 -18.5q-64 0 -108 31l24 25q32 -13 68 -13q24 0 43 11.5
t23 29.5q1 11 -7 15.5t-29 4.5q-24 0 -42 -8l-14 22l68 66q-98 13 -144 88t-24 187q23 118 104 190.5t192 72.5q100 0 153.5 -57.5t45.5 -146.5z" />
    <glyph glyph-name="egrave" unicode="&#xe8;" horiz-adv-x="537" 
d="M367 592h-80l-57 131h120zM235 71q60 0 98.5 28.5t51.5 60.5h109q-34 -81 -102 -128t-161 -47q-121 0 -177.5 80t-31.5 206q25 121 103.5 187.5t191.5 66.5q123 0 173 -80t22 -219h-392q-13 -67 18 -111t97 -44zM312 442q-65 0 -115 -40t-62 -99h288q11 64 -18 101.5
t-93 37.5z" />
    <glyph glyph-name="eacute" unicode="&#xe9;" horiz-adv-x="537" 
d="M480 723l-107 -131h-85l68 131h124zM235 71q60 0 98.5 28.5t51.5 60.5h109q-34 -81 -102 -128t-161 -47q-121 0 -177.5 80t-31.5 206q25 121 103.5 187.5t191.5 66.5q123 0 173 -80t22 -219h-392q-13 -67 18 -111t97 -44zM312 442q-65 0 -115 -40t-62 -99h288
q11 64 -18 101.5t-93 37.5z" />
    <glyph glyph-name="ecircumflex" unicode="&#xea;" horiz-adv-x="537" 
d="M346 671l-68 -79h-101l121 131h111l72 -131h-96l-37 79h-2zM235 71q60 0 98.5 28.5t51.5 60.5h109q-34 -81 -102 -128t-161 -47q-121 0 -177.5 80t-31.5 206q25 121 103.5 187.5t191.5 66.5q123 0 173 -80t22 -219h-392q-13 -67 18 -111t97 -44zM312 442q-65 0 -115 -40
t-62 -99h288q11 64 -18 101.5t-93 37.5z" />
    <glyph glyph-name="edieresis" unicode="&#xeb;" horiz-adv-x="537" 
d="M257 609q-30 0 -44 18.5t-9 45.5q4 22 20.5 37t41.5 15q30 0 43.5 -19.5t8.5 -46.5q-4 -21 -20.5 -35.5t-40.5 -14.5zM428 609q-30 0 -44 18.5t-9 45.5q4 22 20.5 37t41.5 15q30 0 43.5 -19.5t8.5 -46.5q-4 -21 -20.5 -35.5t-40.5 -14.5zM235 71q60 0 98.5 28.5
t51.5 60.5h109q-34 -81 -102 -128t-161 -47q-121 0 -177.5 80t-31.5 206q25 121 103.5 187.5t191.5 66.5q123 0 173 -80t22 -219h-392q-13 -67 18 -111t97 -44zM312 442q-65 0 -115 -40t-62 -99h288q11 64 -18 101.5t-93 37.5z" />
    <glyph glyph-name="igrave" unicode="&#xec;" horiz-adv-x="201" 
d="M180 723l17 -131h-80l-58 131h121zM96 511h106l-100 -511h-106z" />
    <glyph glyph-name="iacute" unicode="&#xed;" horiz-adv-x="209" 
d="M187 723h124l-107 -131h-85zM98 511h105l-100 -511h-105z" />
    <glyph glyph-name="icircumflex" unicode="&#xee;" horiz-adv-x="234" 
d="M23 592l122 131h111l72 -131h-96l-38 79h-2l-67 -79h-102zM114 511h105l-100 -511h-105z" />
    <glyph glyph-name="idieresis" unicode="&#xef;" horiz-adv-x="256" 
d="M65 673q4 22 20.5 37t40.5 15q30 0 44 -19t9 -47q-4 -21 -20.5 -35.5t-41.5 -14.5q-30 0 -43.5 18.5t-8.5 45.5zM235 673q4 22 20.5 37t41.5 15q30 0 43.5 -19.5t8.5 -46.5q-4 -21 -20.5 -35.5t-40.5 -14.5q-30 0 -44 18.5t-9 45.5zM127 511h106l-100 -511h-106z" />
    <glyph glyph-name="eth" unicode="&#xf0;" horiz-adv-x="560" 
d="M478 622q100 -140 65 -327q-26 -129 -106 -220t-210 -91q-122 0 -175.5 76t-29.5 204q24 121 105.5 192.5t179.5 71.5q48 0 84 -22t53 -57l5 7q-10 74 -66 144l-159 -42l-4 52l123 33q-35 36 -92 73l131 -2q31 -18 60 -50l130 36l5 -52zM231 73q72 0 126 54.5t70 136.5
q15 76 -15 126t-97 50q-71 0 -122.5 -54t-67.5 -136q-15 -77 12 -127t94 -50z" />
    <glyph glyph-name="ntilde" unicode="&#xf1;" horiz-adv-x="538" 
d="M308 649q-17 0 -27.5 -12.5t-12.5 -26.5l-66 7q20 104 92 104q28 0 67 -18.5t50 -18.5q18 0 27.5 12t12.5 27l66 -7q-20 -104 -92 -104q-28 0 -67 18.5t-50 18.5zM370 525q77 0 117.5 -46t23.5 -130l-68 -349h-106l64 326q10 54 -7 82t-66 28q-63 0 -108 -35.5t-56 -92.5
l-61 -308h-105l100 511h105l-13 -66l2 3q65 77 178 77z" />
    <glyph glyph-name="ograve" unicode="&#xf2;" horiz-adv-x="556" 
d="M359 723l17 -131h-80l-58 131h121zM219 -15q-117 0 -170 72.5t-30 190.5q24 124 110 200.5t208 76.5q116 0 169 -72t30 -191q-24 -123 -110 -200t-207 -77zM240 71q70 0 119 48.5t69 128.5q20 85 -8.5 138t-102.5 53q-71 0 -120 -48.5t-69 -128.5q-21 -85 7.5 -138
t104.5 -53z" />
    <glyph glyph-name="oacute" unicode="&#xf3;" horiz-adv-x="556" 
d="M365 723h124l-108 -131h-85zM219 -15q-117 0 -170 72.5t-30 190.5q24 124 110 200.5t208 76.5q116 0 169 -72t30 -191q-24 -123 -110 -200t-207 -77zM240 71q70 0 119 48.5t69 128.5q20 85 -8.5 138t-102.5 53q-71 0 -120 -48.5t-69 -128.5q-21 -85 7.5 -138t104.5 -53z
" />
    <glyph glyph-name="ocircumflex" unicode="&#xf4;" horiz-adv-x="556" 
d="M185 592l122 131h111l72 -131h-96l-38 79h-2l-67 -79h-102zM219 -15q-117 0 -170 72.5t-30 190.5q24 124 110 200.5t208 76.5q116 0 169 -72t30 -191q-24 -123 -110 -200t-207 -77zM240 71q70 0 119 48.5t69 128.5q20 85 -8.5 138t-102.5 53q-71 0 -120 -48.5t-69 -128.5
q-21 -85 7.5 -138t104.5 -53z" />
    <glyph glyph-name="otilde" unicode="&#xf5;" horiz-adv-x="556" 
d="M200 617q19 104 92 104q28 0 67 -18.5t50 -18.5q18 0 27.5 12t12.5 27l66 -7q-21 -104 -92 -104q-28 0 -67 18.5t-50 18.5q-17 0 -27.5 -12.5t-12.5 -26.5zM219 -15q-117 0 -170 72.5t-30 190.5q24 124 110 200.5t208 76.5q116 0 169 -72t30 -191q-24 -123 -110 -200
t-207 -77zM240 71q70 0 119 48.5t69 128.5q20 85 -8.5 138t-102.5 53q-71 0 -120 -48.5t-69 -128.5q-21 -85 7.5 -138t104.5 -53z" />
    <glyph glyph-name="odieresis" unicode="&#xf6;" horiz-adv-x="556" 
d="M213 673q4 22 20.5 37t41.5 15q30 0 43.5 -19.5t8.5 -46.5q-4 -21 -20.5 -35.5t-40.5 -14.5q-30 0 -44 18.5t-9 45.5zM384 673q4 22 20.5 37t40.5 15q30 0 44.5 -19t8.5 -47q-4 -21 -20.5 -35.5t-41.5 -14.5q-30 0 -43.5 18.5t-8.5 45.5zM219 -15q-117 0 -170 72.5
t-30 190.5q24 124 110 200.5t208 76.5q116 0 169 -72t30 -191q-24 -123 -110 -200t-207 -77zM240 71q70 0 119 48.5t69 128.5q20 85 -8.5 138t-102.5 53q-71 0 -120 -48.5t-69 -128.5q-21 -85 7.5 -138t104.5 -53z" />
    <glyph glyph-name="divide" unicode="&#xf7;" horiz-adv-x="560" 
d="M322 441q-34 0 -50 18.5t-10 49.5q11 54 71 54q33 0 49 -18.5t10 -49.5q-9 -54 -70 -54zM51 278l20 98h464l-20 -98h-464zM254 89q-35 0 -51 18.5t-9 49.5q11 54 70 54q34 0 50 -18.5t10 -49.5q-11 -54 -70 -54z" />
    <glyph glyph-name="oslash" unicode="&#xf8;" horiz-adv-x="575" 
d="M598 484l-74 -62q30 -65 12 -160q-24 -123 -110 -200t-207 -77q-97 0 -152 52l-57 -48l-32 38l59 50q-38 67 -18 171q24 124 110 200.5t208 76.5q107 0 160 -62l69 58zM128 262q-16 -67 -3 -112l290 244q-31 45 -98 45q-71 0 -120 -48.5t-69 -128.5zM428 248q14 54 6 98
l-285 -240q32 -35 91 -35q70 0 119 48.5t69 128.5z" />
    <glyph glyph-name="ugrave" unicode="&#xf9;" horiz-adv-x="536" 
d="M360 592h-80l-58 131h121zM431 511h106l-100 -511h-106l14 65l-2 -2q-66 -78 -178 -78q-77 0 -117.5 46t-23.5 130l68 350h105l-63 -327q-22 -109 73 -109q63 0 108 35.5t56 92.5z" />
    <glyph glyph-name="uacute" unicode="&#xfa;" horiz-adv-x="536" 
d="M473 723l-108 -131h-85l69 131h124zM431 511h106l-100 -511h-106l14 65l-2 -2q-66 -78 -178 -78q-77 0 -117.5 46t-23.5 130l68 350h105l-63 -327q-22 -109 73 -109q63 0 108 35.5t56 92.5z" />
    <glyph glyph-name="ucircumflex" unicode="&#xfb;" horiz-adv-x="536" 
d="M338 671l-67 -79h-102l122 131h111l72 -131h-96l-38 79h-2zM431 511h106l-100 -511h-106l14 65l-2 -2q-66 -78 -178 -78q-77 0 -117.5 46t-23.5 130l68 350h105l-63 -327q-22 -109 73 -109q63 0 108 35.5t56 92.5z" />
    <glyph glyph-name="udieresis" unicode="&#xfc;" horiz-adv-x="536" 
d="M250 609q-30 0 -44 18.5t-9 45.5q4 22 20.5 37t41.5 15q30 0 43.5 -19.5t8.5 -46.5q-4 -21 -20.5 -35.5t-40.5 -14.5zM420 609q-30 0 -43.5 18.5t-8.5 45.5q4 22 20.5 37t40.5 15q30 0 44 -19.5t9 -46.5q-4 -21 -20.5 -35.5t-41.5 -14.5zM431 511h106l-100 -511h-106
l14 65l-2 -2q-66 -78 -178 -78q-77 0 -117.5 46t-23.5 130l68 350h105l-63 -327q-22 -109 73 -109q63 0 108 35.5t56 92.5z" />
    <glyph glyph-name="yacute" unicode="&#xfd;" horiz-adv-x="504" 
d="M336 723h124l-108 -131h-85zM549 511l-309 -546q-40 -71 -78.5 -105t-103.5 -34q-35 0 -77 11l13 79l5 -1q68 -10 107 32q21 17 33.5 46t6.5 63l-98 455h111l67 -391h2l207 391h114z" />
    <glyph glyph-name="thorn" unicode="&#xfe;" horiz-adv-x="563" 
d="M359 525q102 0 152.5 -75t26.5 -202q-24 -121 -99.5 -192t-171.5 -71q-110 0 -146 85l-4 -2l-47 -242h-105l172 889h105l-53 -270l2 3q66 77 168 77zM251 71q69 0 118.5 55t65.5 136q15 76 -10.5 126.5t-89.5 50.5q-67 0 -116 -51.5t-66 -139.5q-16 -83 10 -130t88 -47z
" />
    <glyph glyph-name="ydieresis" unicode="&#xff;" horiz-adv-x="504" 
d="M184 673q4 22 20.5 37t40.5 15q30 0 44.5 -19t8.5 -47q-4 -21 -20.5 -35.5t-41.5 -14.5q-30 0 -43.5 18.5t-8.5 45.5zM355 673q4 22 20.5 37t40.5 15q30 0 44 -19.5t9 -46.5q-4 -21 -20.5 -35.5t-41.5 -14.5q-30 0 -43.5 18.5t-8.5 45.5zM549 511l-309 -546
q-40 -71 -78.5 -105t-103.5 -34q-35 0 -77 11l13 79l5 -1q68 -10 107 32q21 17 33.5 46t6.5 63l-98 455h111l67 -391h2l207 391h114z" />
    <glyph glyph-name="Amacron" unicode="&#x100;" horiz-adv-x="662" 
d="M321 904h267l-15 -79h-267zM462 169h-292l-91 -169h-122l401 715h126l122 -715h-119zM222 268h226l-46 338h-2z" />
    <glyph glyph-name="amacron" unicode="&#x101;" horiz-adv-x="521" 
d="M482 700l-15 -80h-267l15 80h267zM480 343l-48 -244q-6 -29 0.5 -39.5t36.5 -7.5l-10 -49q-25 -12 -56 -12q-79 0 -81 69q-72 -75 -181 -75q-80 0 -118.5 43.5t-24.5 116.5q14 70 68.5 102t167.5 57q40 9 59 14t42 14.5t33 21.5t14 30q5 27 -11.5 42.5t-63.5 15.5
q-64 0 -96.5 -22.5t-47.5 -72.5h-101q41 178 250 178q93 0 139.5 -43t28.5 -139zM346 197l17 74q-23 -17 -110 -35q-72 -15 -107.5 -36t-42.5 -57q-7 -35 12.5 -55t55.5 -20q68 0 114.5 34t60.5 95z" />
    <glyph glyph-name="Abreve" unicode="&#x102;" horiz-adv-x="662" 
d="M436 792q-62 0 -95 37t-22 102l68 -7q-4 -32 8 -46t42 -14q69 0 86 67l70 -7q-15 -63 -57.5 -97.5t-99.5 -34.5zM462 169h-292l-91 -169h-122l401 715h126l122 -715h-119zM222 268h226l-46 338h-2z" />
    <glyph glyph-name="abreve" unicode="&#x103;" horiz-adv-x="521" 
d="M330 588q-62 0 -94.5 37t-22.5 102l69 -7q-4 -32 7.5 -46t41.5 -14q68 0 87 67l69 -7q-16 -63 -57.5 -97.5t-99.5 -34.5zM312 525q93 0 139.5 -43t28.5 -139l-48 -244q-6 -29 0.5 -39.5t36.5 -7.5l-10 -49q-25 -12 -56 -12q-79 0 -81 69q-72 -75 -181 -75
q-80 0 -118.5 43.5t-24.5 116.5q14 70 68.5 102t167.5 57q40 9 59 14t42 14.5t33 21.5t14 30q5 27 -11.5 42.5t-63.5 15.5q-64 0 -96.5 -22.5t-47.5 -72.5h-101q41 178 250 178zM346 197l17 74q-23 -17 -110 -35q-72 -15 -107.5 -36t-42.5 -57q-7 -35 12.5 -55t55.5 -20
q68 0 114.5 34t60.5 95z" />
    <glyph glyph-name="Aogonek" unicode="&#x104;" horiz-adv-x="662" 
d="M543 -106q20 0 52 10l-8 -72q-33 -9 -68 -9q-51 0 -74 22.5t-15 61.5q6 31 32 56t57 38l-32 -1l-25 169h-292l-91 -169h-122l401 715h126l121 -715l-12 -2q-68 -48 -74 -83q-3 -11 3.5 -16t20.5 -5zM222 268h226l-46 338h-2z" />
    <glyph glyph-name="aogonek" unicode="&#x105;" horiz-adv-x="521" 
d="M480 343l-48 -244q-6 -29 0.5 -39.5t36.5 -7.5l-10 -49q-75 -50 -75 -84q0 -24 27 -24t52 10l-8 -72q-31 -9 -68 -9q-51 0 -73.5 22.5t-14.5 61.5q5 26 26 49t49 37q-50 10 -52 66q-72 -75 -181 -75q-80 0 -118.5 43.5t-24.5 116.5q14 70 68.5 102t167.5 57q40 9 59 14
t42 14.5t33 21.5t14 30q5 27 -11.5 42.5t-63.5 15.5q-64 0 -96.5 -22.5t-47.5 -72.5h-101q41 178 250 178q93 0 139.5 -43t28.5 -139zM346 197l17 74q-23 -17 -110 -35q-72 -15 -107.5 -36t-42.5 -57q-7 -35 12.5 -55t55.5 -20q68 0 114.5 34t60.5 95z" />
    <glyph glyph-name="Cacute" unicode="&#x106;" horiz-adv-x="690" 
d="M490 928h124l-108 -131h-85zM595 466q0 162 -156 162q-111 0 -181.5 -79.5t-93.5 -197.5q-12 -52 -8 -99.5t20 -84t53.5 -58.5t91.5 -22q93 0 151.5 50.5t80.5 120.5h118q-36 -124 -129.5 -198.5t-225.5 -74.5q-154 0 -227 106.5t-41 273.5q31 161 141 263t259 102
q134 0 203 -75t60 -189h-116z" />
    <glyph glyph-name="cacute" unicode="&#x107;" horiz-adv-x="522" 
d="M352 723h124l-108 -131h-84zM416 321q4 50 -19 84t-83 34q-75 0 -124 -53.5t-64 -134.5q-15 -76 11 -128t96 -52q64 0 103 35t52 80h105q-24 -89 -96.5 -145t-168.5 -56q-116 0 -172.5 77t-32.5 200q23 118 104 190.5t192 72.5q100 0 153.5 -57.5t45.5 -146.5h-102z" />
    <glyph glyph-name="Cdotaccent" unicode="&#x10a;" horiz-adv-x="690" 
d="M422 878q4 21 21 36t41 15q30 0 43.5 -19t8.5 -46q-4 -21 -20.5 -36t-40.5 -15q-30 0 -44 19t-9 46zM595 466q0 162 -156 162q-111 0 -181.5 -79.5t-93.5 -197.5q-12 -52 -8 -99.5t20 -84t53.5 -58.5t91.5 -22q93 0 151.5 50.5t80.5 120.5h118q-36 -124 -129.5 -198.5
t-225.5 -74.5q-154 0 -227 106.5t-41 273.5q31 161 141 263t259 102q134 0 203 -75t60 -189h-116z" />
    <glyph glyph-name="cdotaccent" unicode="&#x10b;" horiz-adv-x="522" 
d="M284 673q4 22 20.5 37t41.5 15q30 0 43.5 -19.5t8.5 -46.5q-4 -21 -20.5 -35.5t-40.5 -14.5q-30 0 -44 18.5t-9 45.5zM416 321q4 50 -19 84t-83 34q-75 0 -124 -53.5t-64 -134.5q-15 -76 11 -128t96 -52q64 0 103 35t52 80h105q-24 -89 -96.5 -145t-168.5 -56
q-116 0 -172.5 77t-32.5 200q23 118 104 190.5t192 72.5q100 0 153.5 -57.5t45.5 -146.5h-102z" />
    <glyph glyph-name="Ccaron" unicode="&#x10c;" horiz-adv-x="690" 
d="M340 928h96l37 -79h2l68 79h102l-123 -131h-111zM595 466q0 162 -156 162q-111 0 -181.5 -79.5t-93.5 -197.5q-12 -52 -8 -99.5t20 -84t53.5 -58.5t91.5 -22q93 0 151.5 50.5t80.5 120.5h118q-36 -124 -129.5 -198.5t-225.5 -74.5q-154 0 -227 106.5t-41 273.5
q31 161 141 263t259 102q134 0 203 -75t60 -189h-116z" />
    <glyph glyph-name="ccaron" unicode="&#x10d;" horiz-adv-x="522" 
d="M202 723h96l37 -79h2l68 79h102l-122 -131h-111zM416 321q4 50 -19 84t-83 34q-75 0 -124 -53.5t-64 -134.5q-15 -76 11 -128t96 -52q64 0 103 35t52 80h105q-24 -89 -96.5 -145t-168.5 -56q-116 0 -172.5 77t-32.5 200q23 118 104 190.5t192 72.5q100 0 153.5 -57.5
t45.5 -146.5h-102z" />
    <glyph glyph-name="Dcaron" unicode="&#x10e;" horiz-adv-x="683" 
d="M257 928h96l37 -79h2l68 79h101l-122 -131h-112zM9 0l139 715h275q149 0 216.5 -95.5t34.5 -269.5q-33 -169 -132 -259.5t-248 -90.5h-285zM248 614l-100 -513h150q58 0 104 21t76 58.5t49 82.5t30 101q51 250 -153 250h-156z" />
    <glyph glyph-name="dcaron" unicode="&#x10f;" horiz-adv-x="603" 
d="M713 720q33 0 47 -26t6 -67q-9 -42 -43.5 -76t-94.5 -40l1 39q26 4 51.5 21t31.5 36q-34 -10 -52.5 9t-12.5 51q5 23 22.5 38t43.5 15zM447 449l52 266h106l-139 -715h-106l12 59l-1 -2q-66 -72 -165 -72q-102 0 -153.5 75.5t-27.5 201.5q24 121 100 192t173 71
q106 0 145 -78zM229 71q66 0 115 51.5t66 139.5q16 82 -9.5 129.5t-87.5 47.5q-69 0 -119 -54.5t-66 -136.5q-14 -76 11.5 -126.5t89.5 -50.5z" />
    <glyph glyph-name="Dcroat" unicode="&#x110;" horiz-adv-x="691" 
d="M431 715q149 0 216.5 -95.5t34.5 -269.5q-33 -169 -132 -259.5t-248 -90.5h-285l65 332h-63l15 76h63l59 307h275zM306 101q58 0 104 21t76 58.5t49 82.5t30 101q51 250 -153 250h-156l-40 -206h202l-14 -76h-203l-45 -231h150z" />
    <glyph glyph-name="dcroat" unicode="&#x111;" horiz-adv-x="570" 
d="M657 658l-16 -76h-62l-113 -582h-106l12 59l-1 -2q-66 -72 -165 -72q-102 0 -153.5 75.5t-27.5 201.5q24 121 100 192t173 71q106 0 145 -78l5 2l25 133h-146l16 76h146l10 57h106l-11 -57h63zM229 71q66 0 115 51.5t66 139.5q16 82 -9.5 129.5t-87.5 47.5
q-69 0 -119 -54.5t-66 -136.5q-14 -76 11.5 -126.5t89.5 -50.5z" />
    <glyph glyph-name="Emacron" unicode="&#x112;" horiz-adv-x="621" 
d="M312 904h267l-15 -79h-267zM210 420h349l-19 -102h-350l-42 -217h408l-20 -101h-527l139 715h517l-19 -101h-398z" />
    <glyph glyph-name="emacron" unicode="&#x113;" horiz-adv-x="537" 
d="M486 700l-15 -80h-267l15 80h267zM235 71q60 0 98.5 28.5t51.5 60.5h109q-34 -81 -102 -128t-161 -47q-121 0 -177.5 80t-31.5 206q25 121 103.5 187.5t191.5 66.5q123 0 173 -80t22 -219h-392q-13 -67 18 -111t97 -44zM312 442q-65 0 -115 -40t-62 -99h288
q11 64 -18 101.5t-93 37.5z" />
    <glyph glyph-name="Edotaccent" unicode="&#x116;" horiz-adv-x="621" 
d="M381 878q5 21 21.5 36t40.5 15q30 0 44 -18.5t8 -46.5q-4 -21 -20.5 -36t-40.5 -15q-30 0 -44 19t-9 46zM210 420h349l-19 -102h-350l-42 -217h408l-20 -101h-527l139 715h517l-19 -101h-398z" />
    <glyph glyph-name="edotaccent" unicode="&#x117;" horiz-adv-x="537" 
d="M341 609q-30 0 -44 18.5t-9 45.5q4 22 20.5 37t41.5 15q30 0 43.5 -19.5t8.5 -46.5q-4 -21 -20.5 -35.5t-40.5 -14.5zM235 71q60 0 98.5 28.5t51.5 60.5h109q-34 -81 -102 -128t-161 -47q-121 0 -177.5 80t-31.5 206q25 121 103.5 187.5t191.5 66.5q123 0 173 -80
t22 -219h-392q-13 -67 18 -111t97 -44zM312 442q-65 0 -115 -40t-62 -99h288q11 64 -18 101.5t-93 37.5z" />
    <glyph glyph-name="Eogonek" unicode="&#x118;" horiz-adv-x="621" 
d="M485 -106q22 0 52 10l-8 -72q-32 -9 -68 -9q-51 0 -74 22.5t-15 61.5q6 31 32 56t57 38l-452 -1l139 715h517l-19 -101h-398l-38 -194h349l-19 -102h-350l-42 -217h408l-19 -101l-8 -1q-69 -50 -72 -81q-2 -13 6 -18.5t22 -5.5z" />
    <glyph glyph-name="eogonek" unicode="&#x119;" horiz-adv-x="536" 
d="M22 271q25 121 103.5 187.5t191.5 66.5q123 0 173 -80t22 -219h-392q-13 -67 18 -111t97 -44q60 0 98.5 28.5t51.5 60.5h109q-53 -127 -174 -162q-70 -46 -73 -79q-2 -13 5.5 -19t21.5 -6q22 0 52 10l-8 -72q-32 -9 -68 -9q-50 0 -73 22.5t-15 61.5q7 46 60 78
q-117 4 -170.5 83t-29.5 203zM135 303h288q11 64 -18 101.5t-93 37.5q-65 0 -115 -40t-62 -99z" />
    <glyph glyph-name="Ecaron" unicode="&#x11a;" horiz-adv-x="621" 
d="M299 928h97l37 -79h2l68 79h101l-123 -131h-111zM210 420h349l-19 -102h-350l-42 -217h408l-20 -101h-527l139 715h517l-19 -101h-398z" />
    <glyph glyph-name="ecaron" unicode="&#x11b;" horiz-adv-x="537" 
d="M389 592h-111l-72 131h96l38 -79h2l67 79h102zM235 71q60 0 98.5 28.5t51.5 60.5h109q-34 -81 -102 -128t-161 -47q-121 0 -177.5 80t-31.5 206q25 121 103.5 187.5t191.5 66.5q123 0 173 -80t22 -219h-392q-13 -67 18 -111t97 -44zM312 442q-65 0 -115 -40t-62 -99h288
q11 64 -18 101.5t-93 37.5z" />
    <glyph glyph-name="Gbreve" unicode="&#x11e;" horiz-adv-x="732" 
d="M464 792q-62 0 -95 37t-22 102l68 -7q-4 -32 8 -46t42 -14q69 0 86 67l70 -7q-15 -63 -57.5 -97.5t-99.5 -34.5zM600 496q-2 64 -41 98t-111 34q-114 0 -187 -81t-96 -196q-12 -49 -8 -96.5t19 -84.5t53 -60t95 -23q85 0 156 55.5t88 139.5l-203 -3l19 96h322l-73 -375
h-81l-6 98l-3 -3q-93 -110 -235 -110q-153 0 -222.5 106t-36.5 274q31 161 141.5 263t265.5 102q132 0 197.5 -66.5t62.5 -174.5z" />
    <glyph glyph-name="gbreve" unicode="&#x11f;" horiz-adv-x="555" 
d="M324 588q-62 0 -94.5 37t-22.5 102l69 -7q-4 -32 7.5 -46t41.5 -14q68 0 87 67l69 -7q-16 -63 -57.5 -97.5t-99.5 -34.5zM451 511h105l-94 -479q-40 -209 -262 -209q-105 0 -161.5 47.5t-56.5 111.5h103q7 -75 112 -75q135 0 163 136l11 58l-1 -2q-66 -74 -165 -74
q-101 0 -152 68.5t-28 188.5q23 115 95.5 179t169.5 64q101 0 144 -76l5 2zM229 111q68 0 114 44t62 127q15 78 -11 117.5t-88 39.5q-70 0 -116.5 -44t-61.5 -119q-14 -72 11.5 -118.5t89.5 -46.5z" />
    <glyph glyph-name="Gdotaccent" unicode="&#x120;" horiz-adv-x="732" 
d="M418 878q5 21 21.5 36t40.5 15q30 0 43.5 -19t8.5 -46q-4 -21 -20.5 -36t-40.5 -15q-30 0 -44 19t-9 46zM600 496q-2 64 -41 98t-111 34q-114 0 -187 -81t-96 -196q-12 -49 -8 -96.5t19 -84.5t53 -60t95 -23q85 0 156 55.5t88 139.5l-203 -3l19 96h322l-73 -375h-81
l-6 98l-3 -3q-93 -110 -235 -110q-153 0 -222.5 106t-36.5 274q31 161 141.5 263t265.5 102q132 0 197.5 -66.5t62.5 -174.5z" />
    <glyph glyph-name="gdotaccent" unicode="&#x121;" horiz-adv-x="555" 
d="M331 609q-30 0 -43.5 18.5t-8.5 45.5q4 22 20.5 37t40.5 15q30 0 44 -19.5t9 -46.5q-4 -21 -20.5 -35.5t-41.5 -14.5zM451 511h105l-94 -479q-40 -209 -262 -209q-105 0 -161.5 47.5t-56.5 111.5h103q7 -75 112 -75q135 0 163 136l11 58l-1 -2q-66 -74 -165 -74
q-101 0 -152 68.5t-28 188.5q23 115 95.5 179t169.5 64q101 0 144 -76l5 2zM229 111q68 0 114 44t62 127q15 78 -11 117.5t-88 39.5q-70 0 -116.5 -44t-61.5 -119q-14 -72 11.5 -118.5t89.5 -46.5z" />
    <glyph glyph-name="Gcommaaccent" unicode="&#x122;" horiz-adv-x="732" 
d="M600 496q-2 64 -41 98t-111 34q-114 0 -187 -81t-96 -196q-12 -49 -8 -96.5t19 -84.5t53 -60t95 -23q85 0 156 55.5t88 139.5l-203 -3l19 96h322l-73 -375h-81l-6 98l-3 -3q-93 -110 -235 -110q-153 0 -222.5 106t-36.5 274q31 161 141.5 263t265.5 102
q132 0 197.5 -66.5t62.5 -174.5zM294 -162q-28 -10 -45.5 6t-11.5 49q4 23 22 37.5t40 14.5q33 0 46 -26t4 -67q-8 -41 -39.5 -74t-89.5 -42l2 44q59 10 72 58z" />
    <glyph glyph-name="gcommaaccent" unicode="&#x123;" horiz-adv-x="555" 
d="M329 570q-34 0 -47.5 26t-5.5 68q9 42 41 77.5t90 44.5l-2 -44q-26 -4 -46 -22t-28 -43q29 10 46.5 -6t10.5 -50q-4 -23 -20.5 -37t-38.5 -14zM451 511h105l-94 -479q-40 -209 -262 -209q-105 0 -161.5 47.5t-56.5 111.5h103q7 -75 112 -75q135 0 163 136l11 58l-1 -2
q-66 -74 -165 -74q-101 0 -152 68.5t-28 188.5q23 115 95.5 179t169.5 64q101 0 144 -76l5 2zM229 111q68 0 114 44t62 127q15 78 -11 117.5t-88 39.5q-70 0 -116.5 -44t-61.5 -119q-14 -72 11.5 -118.5t89.5 -46.5z" />
    <glyph glyph-name="Hbar" unicode="&#x126;" horiz-adv-x="698" 
d="M770 609l-15 -77h-67l-104 -532h-118l62 317h-339l-62 -317h-118l103 532h-63l15 77h63l21 106h118l-20 -106h338l21 106h118l-20 -106h67zM547 419l22 113h-338l-22 -113h338z" />
    <glyph glyph-name="hbar" unicode="&#x127;" horiz-adv-x="542" 
d="M371 525q79 0 120 -45.5t24 -130.5l-68 -349h-106l63 326q22 110 -74 110q-60 0 -106 -35.5t-56 -92.5l-61 -308h-105l113 582h-62l16 76h61l11 57h105l-10 -57h149l-15 -76h-149l-27 -137l1 3q67 77 176 77z" />
    <glyph glyph-name="Imacron" unicode="&#x12a;" horiz-adv-x="271" 
d="M125 904h266l-15 -79h-267zM165 715h119l-139 -715h-119z" />
    <glyph glyph-name="imacron" unicode="&#x12b;" horiz-adv-x="255" 
d="M78 700h267l-15 -80h-267zM126 511h106l-100 -511h-106z" />
    <glyph glyph-name="Iogonek" unicode="&#x12e;" horiz-adv-x="255" 
d="M84 -106q20 0 52 10l-8 -72q-33 -9 -69 -9q-50 0 -73 22.5t-15 61.5q6 31 32 56t57 38l-52 -1l139 715h119l-139 -715h-3q-67 -50 -67 -82q0 -24 27 -24z" />
    <glyph glyph-name="iogonek" unicode="&#x12f;" horiz-adv-x="216" 
d="M167 609q-30 0 -44 18.5t-9 45.5q4 22 20.5 37t41.5 15q30 0 43.5 -19.5t8.5 -46.5q-4 -21 -20.5 -35.5t-40.5 -14.5zM58 -106q25 0 50 10l-8 -72q-33 -9 -69 -9q-50 0 -73 22.5t-15 61.5q6 31 32 56t57 38l-39 -1l100 511h105l-100 -511h-1q-63 -44 -68 -80
q-3 -26 29 -26z" />
    <glyph glyph-name="Idotaccent" unicode="&#x130;" horiz-adv-x="248" 
d="M185 878q4 21 21 36t41 15q30 0 43.5 -19t8.5 -46q-4 -21 -20.5 -36t-40.5 -15q-30 0 -44 19t-9 46zM156 715h119l-139 -715h-119z" />
    <glyph glyph-name="dotlessi" unicode="&#x131;" horiz-adv-x="166" 
d="M80 511h106l-100 -511h-106z" />
    <glyph glyph-name="Kcommaaccent" unicode="&#x136;" horiz-adv-x="657" 
d="M148 715h119l-70 -353l393 353h144l-338 -303l214 -412h-137l-168 329l-135 -118l-42 -211h-119zM280 -162q-28 -10 -45.5 6t-10.5 49q4 23 22 37.5t39 14.5q33 0 46 -26t4 -67q-7 -41 -38.5 -74t-89.5 -42l1 44q59 10 72 58z" />
    <glyph glyph-name="kcommaaccent" unicode="&#x137;" horiz-adv-x="506" 
d="M137 715h105l-80 -409l247 205h131l-231 -190l151 -321h-123l-112 252l-84 -67l-38 -185h-105zM199 -162q-28 -10 -45.5 6t-10.5 49q4 23 22 37.5t39 14.5q33 0 46 -26t4 -67q-7 -41 -38.5 -74t-89.5 -42l1 44q59 10 72 58z" />
    <glyph glyph-name="Lacute" unicode="&#x139;" horiz-adv-x="557" 
d="M246 928h124l-108 -131h-85zM148 715h119l-119 -614h357l-20 -101h-476z" />
    <glyph glyph-name="lacute" unicode="&#x13a;" horiz-adv-x="213" 
d="M229 901h125l-109 -131h-85zM139 715h106l-139 -715h-106z" />
    <glyph glyph-name="Lcommaaccent" unicode="&#x13b;" horiz-adv-x="557" 
d="M148 715h119l-119 -614h357l-20 -101h-476zM223 -162q-28 -10 -45.5 6t-10.5 49q4 23 22 37.5t39 14.5q33 0 46 -26t4 -67q-7 -41 -38.5 -74t-89.5 -42l1 44q59 10 72 58z" />
    <glyph glyph-name="lcommaaccent" unicode="&#x13c;" horiz-adv-x="225" 
d="M147 715h106l-139 -715h-106zM37 -162q-28 -10 -45.5 6t-10.5 49q4 23 22 37.5t39 14.5q33 0 46 -26t4 -67q-7 -41 -38.5 -74t-89.5 -42l1 44q59 10 72 58z" />
    <glyph glyph-name="Lcaron" unicode="&#x13d;" horiz-adv-x="555" 
d="M441 607q-34 -10 -52.5 9t-12.5 51q5 23 22.5 38t43.5 15q33 0 47 -26t6 -67q-9 -42 -44 -76t-94 -40l1 39q26 4 51.5 21t31.5 36zM146 715h119l-119 -614h357l-20 -101h-476z" />
    <glyph glyph-name="lcaron" unicode="&#x13e;" horiz-adv-x="244" 
d="M353 607q-34 -10 -52.5 9t-12.5 51q5 23 22 38t43 15q34 0 48 -26t6 -67q-9 -42 -44 -76t-94 -40l1 39q26 4 51.5 21t31.5 36zM137 715h106l-139 -715h-106z" />
    <glyph glyph-name="Lslash" unicode="&#x141;" horiz-adv-x="565" 
d="M155 101h357l-21 -101h-475l46 232l-74 -47l16 89l74 48l77 393h119l-60 -305l200 128l-16 -90l-200 -128z" />
    <glyph glyph-name="lslash" unicode="&#x142;" horiz-adv-x="253" 
d="M300 515l-15 -90l-81 -51l-74 -374h-106l59 297l-76 -49l15 90l77 49l64 328h106l-50 -252z" />
    <glyph glyph-name="Nacute" unicode="&#x143;" horiz-adv-x="695" 
d="M474 928h124l-108 -131h-85zM9 0l139 715h132l218 -537h4l103 537h119l-139 -715h-131l-219 535h-2l-105 -535h-119z" />
    <glyph glyph-name="nacute" unicode="&#x144;" horiz-adv-x="538" 
d="M491 723l-108 -131h-85l69 131h124zM370 525q77 0 117.5 -46t23.5 -130l-68 -349h-106l64 326q10 54 -7 82t-66 28q-63 0 -108 -35.5t-56 -92.5l-61 -308h-105l100 511h105l-13 -66l2 3q65 77 178 77z" />
    <glyph glyph-name="Ncommaaccent" unicode="&#x145;" horiz-adv-x="695" 
d="M9 0l139 715h132l218 -537h4l103 537h119l-139 -715h-131l-219 535h-2l-105 -535h-119zM274 -162q-29 -10 -46.5 6t-10.5 49q4 23 22 37.5t39 14.5q33 0 46 -25.5t5 -67.5q-8 -41 -39.5 -74t-89.5 -42l1 44q58 10 73 58z" />
    <glyph glyph-name="ncommaaccent" unicode="&#x146;" horiz-adv-x="538" 
d="M370 525q77 0 117.5 -46t23.5 -130l-68 -349h-106l64 326q10 54 -7 82t-66 28q-63 0 -108 -35.5t-56 -92.5l-61 -308h-105l100 511h105l-13 -66l2 3q65 77 178 77zM201 -55q33 0 46.5 -26t4.5 -67q-8 -41 -39.5 -74t-89.5 -42l2 44q57 10 72 58q-28 -10 -45.5 6t-11.5 49
q4 23 22 37.5t39 14.5z" />
    <glyph glyph-name="Ncaron" unicode="&#x147;" horiz-adv-x="695" 
d="M324 928h96l37 -79h2l68 79h102l-123 -131h-111zM9 0l139 715h132l218 -537h4l103 537h119l-139 -715h-131l-219 535h-2l-105 -535h-119z" />
    <glyph glyph-name="ncaron" unicode="&#x148;" horiz-adv-x="538" 
d="M400 592h-112l-71 131h96l37 -79h2l68 79h101zM370 525q77 0 117.5 -46t23.5 -130l-68 -349h-106l64 326q10 54 -7 82t-66 28q-63 0 -108 -35.5t-56 -92.5l-61 -308h-105l100 511h105l-13 -66l2 3q65 77 178 77z" />
    <glyph glyph-name="Eng" unicode="&#x14a;" horiz-adv-x="696" 
d="M9 0l139 715h132l218 -537h4l103 537h119l-136 -704q-38 -189 -214 -189q-39 0 -71 9l9 84q122 -9 148 75l-225 545h-2l-105 -535h-119z" />
    <glyph glyph-name="eng" unicode="&#x14b;" horiz-adv-x="538" 
d="M435 -31q-16 -78 -52 -110t-99 -32q-32 0 -74 8l11 85q53 -2 78 10.5t34 54.5l66 341q10 54 -7 82t-66 28q-63 0 -108 -35.5t-56 -92.5l-61 -308h-105l100 511h105l-13 -66l2 3q65 77 178 77q77 0 117.5 -46t23.5 -130z" />
    <glyph glyph-name="Omacron" unicode="&#x14c;" horiz-adv-x="753" 
d="M365 904h267l-15 -79h-267zM329 -15q-161 0 -238 106.5t-45 273.5q31 161 144.5 263t270.5 102q162 0 239.5 -106t45.5 -273q-31 -161 -145.5 -263.5t-271.5 -102.5zM337 87q118 0 193.5 79t99.5 199q11 72 2.5 130.5t-54.5 95.5t-123 37q-119 0 -194.5 -78.5
t-98.5 -198.5q-11 -72 -2.5 -131t54.5 -96t123 -37z" />
    <glyph glyph-name="omacron" unicode="&#x14d;" horiz-adv-x="556" 
d="M227 700h267l-15 -80h-267zM219 -15q-117 0 -170 72.5t-30 190.5q24 124 110 200.5t208 76.5q116 0 169 -72t30 -191q-24 -123 -110 -200t-207 -77zM240 71q70 0 119 48.5t69 128.5q20 85 -8.5 138t-102.5 53q-71 0 -120 -48.5t-69 -128.5q-21 -85 7.5 -138t104.5 -53z
" />
    <glyph glyph-name="Ohungarumlaut" unicode="&#x150;" horiz-adv-x="753" 
d="M412 928h124l-109 -131h-84zM579 928h124l-109 -131h-84zM329 -15q-161 0 -238 106.5t-45 273.5q31 161 144.5 263t270.5 102q162 0 239.5 -106t45.5 -273q-31 -161 -145.5 -263.5t-271.5 -102.5zM337 87q118 0 193.5 79t99.5 199q11 72 2.5 130.5t-54.5 95.5t-123 37
q-119 0 -194.5 -78.5t-98.5 -198.5q-11 -72 -2.5 -131t54.5 -96t123 -37z" />
    <glyph glyph-name="ohungarumlaut" unicode="&#x151;" horiz-adv-x="556" 
d="M274 723h124l-107 -131h-85zM441 723h124l-107 -131h-85zM219 -15q-117 0 -170 72.5t-30 190.5q24 124 110 200.5t208 76.5q116 0 169 -72t30 -191q-24 -123 -110 -200t-207 -77zM240 71q70 0 119 48.5t69 128.5q20 85 -8.5 138t-102.5 53q-71 0 -120 -48.5t-69 -128.5
q-21 -85 7.5 -138t104.5 -53z" />
    <glyph glyph-name="OE" unicode="&#x152;" horiz-adv-x="1071" 
d="M598 101h408l-20 -101h-527l13 55q-79 -70 -190 -70q-136 0 -200.5 107.5t-32.5 272.5q30 159 132 262t233 103q116 0 170 -75l14 60h517l-19 -101h-398l-38 -194h349l-19 -102h-350zM313 87q107 0 181 99l71 349q-35 93 -135 93q-109 0 -175.5 -78t-89.5 -199
q-12 -53 -9 -101t17.5 -84t50 -57.5t89.5 -21.5z" />
    <glyph glyph-name="oe" unicode="&#x153;" horiz-adv-x="951" 
d="M926 226h-392q-13 -67 18 -111t97 -44q60 0 98.5 28.5t51.5 60.5h109q-34 -81 -102 -128t-161 -47q-137 0 -192 103q-92 -103 -233 -103q-117 0 -170 72.5t-30 190.5q24 124 110 200.5t208 76.5q129 0 179 -88q83 88 214 88q123 0 173 -80t22 -219zM726 442
q-65 0 -115 -40t-62 -99h288q11 64 -18 101.5t-93 37.5zM241 71q70 0 119 48.5t69 128.5q20 85 -8.5 138t-102.5 53q-71 0 -120 -48.5t-69 -128.5q-21 -85 7.5 -138t104.5 -53z" />
    <glyph glyph-name="Racute" unicode="&#x154;" horiz-adv-x="625" 
d="M434 928h124l-108 -131h-84zM9 0l139 715h302q112 0 168 -56.5t37 -155.5q-29 -141 -163 -172l-8 -2q37 -7 58.5 -33.5t25 -61t2.5 -74t-7.5 -72.5t-5.5 -56t8 -26l1 -6l-122 2q-4 8 -3.5 31t8 53.5t8.5 64t-4 61.5t-28 46t-64 18h-179l-54 -276h-119zM248 614l-46 -236
h157q68 0 115 26t62 99q7 35 -0.5 58.5t-28 34.5t-42 14.5t-53.5 3.5h-164z" />
    <glyph glyph-name="racute" unicode="&#x155;" horiz-adv-x="355" 
d="M403 723l-107 -131h-85l69 131h123zM337 523q29 0 48 -4l-16 -98q-74 12 -136.5 -35t-78.5 -128l-51 -258h-105l100 511h105l-19 -96l2 3q64 105 151 105z" />
    <glyph glyph-name="Rcommaaccent" unicode="&#x156;" horiz-adv-x="625" 
d="M9 0l139 715h302q112 0 168 -56.5t37 -155.5q-29 -141 -163 -172l-8 -2q37 -7 58.5 -33.5t25 -61t2.5 -74t-7.5 -72.5t-5.5 -56t8 -26l1 -6l-122 2q-4 8 -3.5 31t8 53.5t8.5 64t-4 61.5t-28 46t-64 18h-179l-54 -276h-119zM248 614l-46 -236h157q68 0 115 26t62 99
q7 35 -0.5 58.5t-28 34.5t-42 14.5t-53.5 3.5h-164zM257 -162q-28 -10 -45.5 6t-10.5 49q4 23 22 37.5t39 14.5q33 0 46 -26t4 -67q-7 -41 -38.5 -74t-89.5 -42l1 44q59 10 72 58z" />
    <glyph glyph-name="rcommaaccent" unicode="&#x157;" horiz-adv-x="362" 
d="M344 523q29 0 48 -4l-16 -98q-74 12 -136.5 -35t-78.5 -128l-51 -258h-105l100 511h105l-19 -96l2 3q64 105 151 105zM41 -55q33 0 46.5 -26t4.5 -67q-8 -41 -39.5 -74t-89.5 -42l2 44q57 10 72 58q-28 -10 -45.5 6t-11.5 49q4 23 22 37.5t39 14.5z" />
    <glyph glyph-name="Rcaron" unicode="&#x158;" horiz-adv-x="625" 
d="M284 928h96l37 -79h2l68 79h102l-123 -131h-111zM9 0l139 715h302q112 0 168 -56.5t37 -155.5q-29 -141 -163 -172l-8 -2q37 -7 58.5 -33.5t25 -61t2.5 -74t-7.5 -72.5t-5.5 -56t8 -26l1 -6l-122 2q-4 8 -3.5 31t8 53.5t8.5 64t-4 61.5t-28 46t-64 18h-179l-54 -276h-119
zM248 614l-46 -236h157q68 0 115 26t62 99q7 35 -0.5 58.5t-28 34.5t-42 14.5t-53.5 3.5h-164z" />
    <glyph glyph-name="rcaron" unicode="&#x159;" horiz-adv-x="349" 
d="M309 592h-111l-72 131h96l38 -79h2l67 79h102zM334 523q29 0 48 -4l-16 -98q-74 12 -136.5 -35t-78.5 -128l-51 -258h-105l100 511h105l-19 -96l2 3q64 105 151 105z" />
    <glyph glyph-name="Sacute" unicode="&#x15a;" horiz-adv-x="618" 
d="M424 928h124l-109 -131h-84zM349 424q27 -10 44 -17t39.5 -17t37 -18.5t32 -19.5t28 -21.5t22 -24t17 -28.5t9.5 -32.5t4 -38t-4 -43.5q-13 -85 -85.5 -132t-193.5 -47q-137 0 -219.5 68t-72.5 182h117q-5 -69 43 -108.5t139 -39.5q139 0 155 87q10 54 -26 83t-145 70
q-40 15 -65 26t-57 31.5t-48.5 42t-25.5 55.5t-2 74q15 86 90 130t185 44q121 0 190.5 -60.5t61.5 -164.5h-117q4 61 -32.5 92t-109.5 31q-136 0 -150 -75q-4 -26 1 -44t29.5 -34.5t37.5 -22.5t59 -23q2 -1 3.5 -1.5t4 -1.5t4.5 -2z" />
    <glyph glyph-name="sacute" unicode="&#x15b;" horiz-adv-x="484" 
d="M324 723h124l-108 -131h-85zM269 306q41 -12 69 -24.5t56 -33t39.5 -50.5t5.5 -70q-9 -72 -66 -107.5t-142 -35.5q-116 0 -175.5 50.5t-59.5 131.5h102q-2 -44 31.5 -71.5t103.5 -27.5q46 0 72 16.5t30 44.5q3 18 -2 31.5t-12.5 22t-26.5 16.5t-32 12.5t-42 12.5
t-49.5 16t-46.5 22.5t-41 31.5t-24 44t-4 59q7 60 61 94t140 34q102 0 154.5 -47t52.5 -114h-100q1 33 -26.5 55.5t-83.5 22.5q-89 0 -95 -49q-2 -19 2.5 -32t22 -23t31 -15t45.5 -14q7 -2 10 -3z" />
    <glyph glyph-name="Scedilla" unicode="&#x15e;" horiz-adv-x="618" 
d="M619 505h-117q4 61 -32.5 92t-109.5 31q-136 0 -150 -75q-4 -26 1 -44t29.5 -34.5t37.5 -22.5t59 -23q2 -1 3.5 -1.5t4 -1.5t4.5 -2q27 -10 44 -17t39.5 -17t37 -18.5t32 -19.5t28 -21.5t22 -24t17 -28.5t9.5 -32.5t4 -38t-4 -43.5q-13 -83 -82 -130t-185 -49l-45 -42
l-6 -2q39 5 69 -12.5t23 -56.5q-6 -32 -41 -50.5t-79 -18.5q-64 0 -108 31l24 25q32 -13 68 -13q24 0 43 11.5t23 29.5q1 11 -7 15.5t-29 4.5q-24 0 -42 -8l-14 22l68 66q-120 10 -190.5 76.5t-60.5 171.5h117q-5 -69 43 -108.5t139 -39.5q139 0 155 87q10 54 -26 83
t-145 70q-40 15 -65 26t-57 31.5t-48.5 42t-25.5 55.5t-2 74q15 86 90 130t185 44q121 0 190.5 -60.5t61.5 -164.5z" />
    <glyph glyph-name="scedilla" unicode="&#x15f;" horiz-adv-x="484" 
d="M269 306q41 -12 69 -24.5t56 -33t39.5 -50.5t5.5 -70q-9 -72 -66 -107.5t-142 -35.5h-10l-47 -42l-6 -2q40 5 70 -12.5t22 -56.5q-6 -32 -40.5 -50.5t-78.5 -18.5q-66 0 -108 31l24 25q30 -13 67 -13q25 0 44 11.5t22 29.5q2 11 -6.5 15.5t-29.5 4.5q-24 0 -42 -8l-13 22
l69 69q-85 13 -128.5 60.5t-43.5 116.5h102q-2 -44 31.5 -71.5t103.5 -27.5q46 0 72 16.5t30 44.5q3 18 -2 31.5t-12.5 22t-26.5 16.5t-32 12.5t-42 12.5t-49.5 16t-46.5 22.5t-41 31.5t-24 44t-4 59q7 60 61 94t140 34q102 0 154.5 -47t52.5 -114h-100q1 33 -26.5 55.5
t-83.5 22.5q-89 0 -95 -49q-2 -19 2.5 -32t22 -23t31 -15t45.5 -14q7 -2 10 -3z" />
    <glyph glyph-name="Scaron" unicode="&#x160;" horiz-adv-x="618" 
d="M273 928h97l37 -79h2l68 79h101l-123 -131h-111zM349 424q27 -10 44 -17t39.5 -17t37 -18.5t32 -19.5t28 -21.5t22 -24t17 -28.5t9.5 -32.5t4 -38t-4 -43.5q-13 -85 -85.5 -132t-193.5 -47q-137 0 -219.5 68t-72.5 182h117q-5 -69 43 -108.5t139 -39.5q139 0 155 87
q10 54 -26 83t-145 70q-40 15 -65 26t-57 31.5t-48.5 42t-25.5 55.5t-2 74q15 86 90 130t185 44q121 0 190.5 -60.5t61.5 -164.5h-117q4 61 -32.5 92t-109.5 31q-136 0 -150 -75q-4 -26 1 -44t29.5 -34.5t37.5 -22.5t59 -23q2 -1 3.5 -1.5t4 -1.5t4.5 -2z" />
    <glyph glyph-name="scaron" unicode="&#x161;" horiz-adv-x="484" 
d="M173 723h97l37 -79h2l68 79h101l-122 -131h-111zM269 306q41 -12 69 -24.5t56 -33t39.5 -50.5t5.5 -70q-9 -72 -66 -107.5t-142 -35.5q-116 0 -175.5 50.5t-59.5 131.5h102q-2 -44 31.5 -71.5t103.5 -27.5q46 0 72 16.5t30 44.5q3 18 -2 31.5t-12.5 22t-26.5 16.5
t-32 12.5t-42 12.5t-49.5 16t-46.5 22.5t-41 31.5t-24 44t-4 59q7 60 61 94t140 34q102 0 154.5 -47t52.5 -114h-100q1 33 -26.5 55.5t-83.5 22.5q-89 0 -95 -49q-2 -19 2.5 -32t22 -23t31 -15t45.5 -14q7 -2 10 -3z" />
    <glyph glyph-name="uni0162" unicode="&#x162;" horiz-adv-x="616" 
d="M290 0l-49 -49l-5 -2q39 5 69 -12.5t22 -56.5q-6 -32 -41 -50.5t-79 -18.5q-65 0 -107 31l25 25q29 -13 67 -13q24 0 43 11.5t23 29.5q1 11 -7.5 15.5t-29.5 4.5q-24 0 -42 -8l-13 22l70 71h-37l120 614h-229l19 101h576l-19 -101h-229l-119 -614h-28z" />
    <glyph glyph-name="uni0163" unicode="&#x163;" horiz-adv-x="313" 
d="M140 -53q39 5 69 -12.5t22 -56.5q-6 -32 -41 -50.5t-78 -18.5q-66 0 -108 31l24 25q33 -14 67 -14q24 0 43 12t23 30q2 11 -6.5 15.5t-29.5 4.5q-24 0 -42 -8l-14 22l72 69q-97 12 -72 146l55 283h-74l17 86h74l32 161h105l-31 -161h96l-17 -86h-96l-55 -280
q-8 -41 9.5 -51t73.5 -7l-11 -87q-25 -5 -54 -7l-49 -44z" />
    <glyph glyph-name="Tcaron" unicode="&#x164;" horiz-adv-x="607" 
d="M279 928h97l37 -79h2l68 79h101l-123 -131h-111zM194 0l120 614h-229l19 101h576l-20 -101h-228l-119 -614h-119z" />
    <glyph glyph-name="tcaron" unicode="&#x165;" horiz-adv-x="339" 
d="M398 770q33 0 47 -26t6 -67q-9 -42 -43.5 -76t-93.5 -40l1 39q25 4 50.5 21t32.5 36q-34 -10 -53 9t-13 51q5 23 22.5 38t43.5 15zM277 672l-31 -161h96l-17 -86h-96l-55 -280q-8 -41 9.5 -51t73.5 -7l-11 -87q-32 -7 -71 -7q-67 0 -94.5 35.5t-12.5 113.5l55 283h-74
l17 86h74l32 161h105z" />
    <glyph glyph-name="Tbar" unicode="&#x166;" horiz-adv-x="602" 
d="M660 614h-228l-40 -206h151l-14 -76h-151l-65 -332h-119l65 332h-151l14 76h151l41 206h-229l19 101h576z" />
    <glyph glyph-name="tbar" unicode="&#x167;" horiz-adv-x="312" 
d="M294 263h-97l-23 -118q-8 -41 9.5 -51t72.5 -7l-10 -87q-32 -7 -71 -7q-67 0 -94.5 35.5t-12.5 113.5l23 121h-72l15 77h72l17 85h-74l17 86h74l31 161h106l-32 -161h97l-17 -86h-97l-16 -85h97z" />
    <glyph glyph-name="Umacron" unicode="&#x16a;" horiz-adv-x="665" 
d="M321 904h267l-16 -79h-267zM611 241q-49 -256 -326 -256q-146 0 -203.5 70t-33.5 193l90 467h119l-91 -474q-16 -81 15 -117.5t112 -36.5q169 0 200 161l91 467h118z" />
    <glyph glyph-name="umacron" unicode="&#x16b;" horiz-adv-x="536" 
d="M478 700l-15 -80h-267l15 80h267zM431 511h106l-100 -511h-106l14 65l-2 -2q-66 -78 -178 -78q-77 0 -117.5 46t-23.5 130l68 350h105l-63 -327q-22 -109 73 -109q63 0 108 35.5t56 92.5z" />
    <glyph glyph-name="Uring" unicode="&#x16e;" horiz-adv-x="665" 
d="M433 783q-41 0 -64 27.5t-15 70.5q7 38 36.5 61.5t65.5 23.5q41 0 65 -28t15 -71q-8 -37 -37.5 -60.5t-65.5 -23.5zM435 828q22 0 37 13.5t18 33.5q4 23 -6.5 34.5t-29.5 11.5q-46 0 -55 -47q-4 -23 6.5 -34.5t29.5 -11.5zM611 241q-49 -256 -326 -256q-146 0 -203.5 70
t-33.5 193l90 467h119l-91 -474q-16 -81 15 -117.5t112 -36.5q169 0 200 161l91 467h118z" />
    <glyph glyph-name="uring" unicode="&#x16f;" horiz-adv-x="536" 
d="M328 579q-41 0 -64.5 27.5t-14.5 70.5q7 37 36.5 61t65.5 24q41 0 64.5 -28t15.5 -71q-8 -38 -37.5 -61t-65.5 -23zM330 623q22 0 36.5 13.5t18.5 34.5q4 23 -6.5 34.5t-29.5 11.5q-44 0 -55 -48q-4 -23 6.5 -34.5t29.5 -11.5zM431 511h106l-100 -511h-106l14 65l-2 -2
q-66 -78 -178 -78q-77 0 -117.5 46t-23.5 130l68 350h105l-63 -327q-22 -109 73 -109q63 0 108 35.5t56 92.5z" />
    <glyph glyph-name="Uhungarumlaut" unicode="&#x170;" horiz-adv-x="665" 
d="M367 928h125l-109 -131h-84zM534 928h124l-108 -131h-84zM611 241q-49 -256 -326 -256q-146 0 -203.5 70t-33.5 193l90 467h119l-91 -474q-16 -81 15 -117.5t112 -36.5q169 0 200 161l91 467h118z" />
    <glyph glyph-name="uhungarumlaut" unicode="&#x171;" horiz-adv-x="536" 
d="M382 723l-107 -131h-85l68 131h124zM549 723l-107 -131h-85l68 131h124zM371 203l60 308h106l-100 -511h-106l14 65l-2 -2q-66 -78 -178 -78q-77 0 -117.5 46t-23.5 130l68 350h105l-63 -327q-22 -109 73 -109q63 0 108 35.5t56 92.5z" />
    <glyph glyph-name="Uogonek" unicode="&#x172;" horiz-adv-x="665" 
d="M584 715h118l-91 -474q-38 -195 -206 -243q-67 -36 -75 -78q-3 -12 4.5 -19t20.5 -7q20 0 52 10l-8 -72q-33 -9 -68 -9q-51 0 -74 22.5t-15 61.5q9 49 66 81q-7 -3 -23 -3q-146 0 -203.5 70t-33.5 193l90 467h119l-91 -474q-16 -81 15 -117.5t112 -36.5q169 0 200 161z
" />
    <glyph glyph-name="uogonek" unicode="&#x173;" horiz-adv-x="537" 
d="M394 -106q19 0 49 10l-8 -72q-31 -9 -68 -9q-51 0 -73.5 22.5t-14.5 61.5q6 31 31.5 56t56.5 38l-36 -1l14 65l-2 -2q-66 -78 -178 -78q-77 0 -117.5 46t-23.5 130l68 350h105l-63 -327q-22 -109 73 -109q63 0 108 35.5t56 92.5l60 308h106l-99 -511h-2q-66 -45 -71 -81
q-3 -25 29 -25z" />
    <glyph glyph-name="Wcircumflex" unicode="&#x174;" horiz-adv-x="917" 
d="M401 797l122 131h111l72 -131h-97l-37 79h-2l-68 -79h-101zM93 715h121l14 -554h2l252 554h122l37 -554h2l230 554h123l-318 -715h-125l-38 560h-2l-255 -560h-126z" />
    <glyph glyph-name="wcircumflex" unicode="&#x175;" horiz-adv-x="751" 
d="M280 592l122 131h111l72 -131h-97l-37 79h-2l-67 -79h-102zM51 511h109l29 -388h2l179 388h103l30 -388h2l179 388h112l-256 -511h-106l-33 390h-2l-185 -390h-106z" />
    <glyph glyph-name="Ycircumflex" unicode="&#x176;" horiz-adv-x="621" 
d="M255 797l121 131h112l71 -131h-97l-36 79h-2l-69 -79h-100zM84 715h125l120 -332h1l252 332h129l-339 -431l-56 -284h-119l57 284z" />
    <glyph glyph-name="ycircumflex" unicode="&#x177;" horiz-adv-x="504" 
d="M156 592l122 131h111l72 -131h-96l-38 79h-2l-67 -79h-102zM549 511l-309 -546q-40 -71 -78.5 -105t-103.5 -34q-35 0 -77 11l13 79l5 -1q68 -10 107 32q21 17 33.5 46t6.5 63l-98 455h111l67 -391h2l207 391h114z" />
    <glyph glyph-name="Ydieresis" unicode="&#x178;" horiz-adv-x="621" 
d="M282 878q4 21 21 36t41 15q30 0 43.5 -19t8.5 -46q-4 -21 -20.5 -36t-40.5 -15q-30 0 -44 19t-9 46zM453 878q4 21 21 36t41 15q30 0 43.5 -19t8.5 -46q-4 -21 -20.5 -36t-40.5 -15q-30 0 -44 19t-9 46zM84 715h125l120 -332h1l252 332h129l-339 -431l-56 -284h-119
l57 284z" />
    <glyph glyph-name="Zacute" unicode="&#x179;" horiz-adv-x="608" 
d="M435 928h124l-108 -131h-85zM136 715h526l-18 -101l-500 -511l-2 -2h412l-21 -101h-556l19 101l500 511l2 2h-381z" />
    <glyph glyph-name="zacute" unicode="&#x17a;" horiz-adv-x="471" 
d="M329 723h124l-107 -131h-85zM-11 78l343 345l1 2h-257l17 86h398l-13 -70l-350 -353l-1 -2h292l-17 -86h-427z" />
    <glyph glyph-name="Zdotaccent" unicode="&#x17b;" horiz-adv-x="608" 
d="M367 878q4 21 21 36t41 15q30 0 43.5 -19t8.5 -46q-4 -21 -20.5 -36t-40.5 -15q-30 0 -44 19t-9 46zM136 715h526l-18 -101l-500 -511l-2 -2h412l-21 -101h-556l19 101l500 511l2 2h-381z" />
    <glyph glyph-name="zdotaccent" unicode="&#x17c;" horiz-adv-x="471" 
d="M262 673q3 22 19.5 37t41.5 15q30 0 43.5 -19.5t8.5 -46.5q-3 -21 -19.5 -35.5t-41.5 -14.5q-30 0 -43.5 18.5t-8.5 45.5zM-11 78l343 345l1 2h-257l17 86h398l-13 -70l-350 -353l-1 -2h292l-17 -86h-427z" />
    <glyph glyph-name="Zcaron" unicode="&#x17d;" horiz-adv-x="608" 
d="M285 928h96l37 -79h2l68 79h102l-123 -131h-111zM136 715h526l-18 -101l-500 -511l-2 -2h412l-21 -101h-556l19 101l500 511l2 2h-381z" />
    <glyph glyph-name="zcaron" unicode="&#x17e;" horiz-adv-x="471" 
d="M179 723h96l38 -79h2l67 79h102l-122 -131h-111zM-11 78l343 345l1 2h-257l17 86h398l-13 -70l-350 -353l-1 -2h292l-17 -86h-427z" />
    <glyph glyph-name="Scommaaccent" unicode="&#x218;" horiz-adv-x="618" 
d="M349 424q27 -10 44 -17t39.5 -17t37 -18.5t32 -19.5t28 -21.5t22 -24t17 -28.5t9.5 -32.5t4 -38t-4 -43.5q-13 -85 -85.5 -132t-193.5 -47q-137 0 -219.5 68t-72.5 182h117q-5 -69 43 -108.5t139 -39.5q139 0 155 87q10 54 -26 83t-145 70q-40 15 -65 26t-57 31.5
t-48.5 42t-25.5 55.5t-2 74q15 86 90 130t185 44q121 0 190.5 -60.5t61.5 -164.5h-117q4 61 -32.5 92t-109.5 31q-136 0 -150 -75q-4 -26 1 -44t29.5 -34.5t37.5 -22.5t59 -23q2 -1 3.5 -1.5t4 -1.5t4.5 -2zM260 -162q-28 -10 -45.5 6t-10.5 49q4 23 22 37.5t39 14.5
q33 0 46 -26t4 -67q-7 -41 -38.5 -74t-89.5 -42l1 44q59 10 72 58z" />
    <glyph glyph-name="scommaaccent" unicode="&#x219;" horiz-adv-x="484" 
d="M269 306q41 -12 69 -24.5t56 -33t39.5 -50.5t5.5 -70q-9 -72 -66 -107.5t-142 -35.5q-116 0 -175.5 50.5t-59.5 131.5h102q-2 -44 31.5 -71.5t103.5 -27.5q46 0 72 16.5t30 44.5q3 18 -2 31.5t-12.5 22t-26.5 16.5t-32 12.5t-42 12.5t-49.5 16t-46.5 22.5t-41 31.5
t-24 44t-4 59q7 60 61 94t140 34q102 0 154.5 -47t52.5 -114h-100q1 33 -26.5 55.5t-83.5 22.5q-89 0 -95 -49q-2 -19 2.5 -32t22 -23t31 -15t45.5 -14q7 -2 10 -3zM169 -162q-29 -10 -46.5 6t-10.5 49q4 23 22 37.5t39 14.5q33 0 46 -25.5t5 -67.5q-8 -41 -39.5 -74
t-89.5 -42l1 44q58 10 73 58z" />
    <glyph glyph-name="uni021A" unicode="&#x21a;" horiz-adv-x="607" 
d="M194 0l120 614h-229l19 101h576l-20 -101h-228l-119 -614h-119zM231 -154q-29 -10 -46 6t-10 49q4 23 21.5 37.5t39.5 14.5q33 0 45.5 -26t4.5 -67t-39.5 -74t-89.5 -42l1 44q60 10 73 58z" />
    <glyph glyph-name="uni021B" unicode="&#x21b;" horiz-adv-x="313" 
d="M326 425h-96l-55 -280q-8 -41 9.5 -51t73.5 -7l-11 -87q-32 -7 -71 -7q-67 0 -94.5 35.5t-12.5 113.5l55 283h-74l17 86h74l32 161h105l-31 -161h96zM144 -49q33 0 46 -26t5 -67q-9 -42 -40.5 -74.5t-89.5 -41.5l3 44q57 10 72 58q-29 -10 -46.5 6t-10.5 49q4 23 22 37.5
t39 14.5z" />
    <glyph glyph-name="circumflex" unicode="&#x2c6;" horiz-adv-x="497" 
d="M157 592l122 131h111l72 -131h-96l-38 79h-2l-67 -79h-102z" />
    <glyph glyph-name="caron" unicode="&#x2c7;" horiz-adv-x="497" 
d="M187 723h96l37 -79h2l68 79h101l-121 -131h-112z" />
    <glyph glyph-name="breve" unicode="&#x2d8;" horiz-adv-x="496" 
d="M320 588q-62 0 -94.5 37t-22.5 102l68 -7q-4 -32 8 -46t42 -14q69 0 86 67l70 -7q-15 -63 -57.5 -97.5t-99.5 -34.5z" />
    <glyph glyph-name="dotaccent" unicode="&#x2d9;" horiz-adv-x="504" 
d="M274 673q4 22 20.5 37t40.5 15q30 0 44 -19.5t9 -46.5q-4 -21 -20.5 -35.5t-41.5 -14.5q-30 0 -43.5 18.5t-8.5 45.5z" />
    <glyph glyph-name="ring" unicode="&#x2da;" horiz-adv-x="495" 
d="M318 579q-41 0 -64.5 27.5t-15.5 70.5q7 37 37 61t65 24q41 0 65 -28t15 -71q-7 -38 -36.5 -61t-65.5 -23zM319 623q23 0 37.5 13.5t17.5 34.5q4 23 -6.5 34.5t-29.5 11.5q-22 0 -36.5 -13.5t-17.5 -34.5q-4 -23 6 -34.5t29 -11.5z" />
    <glyph glyph-name="ogonek" unicode="&#x2db;" horiz-adv-x="498" 
d="M156 -177q-51 0 -74 22.5t-15 61.5q6 31 32 56t57 38l78 -3q-76 -51 -80 -81q-2 -11 5.5 -17t21.5 -6q19 0 51 10l-8 -72q-32 -9 -68 -9z" />
    <glyph glyph-name="tilde" unicode="&#x2dc;" horiz-adv-x="502" 
d="M172 617q19 104 92 104q28 0 67 -18.5t50 -18.5q18 0 27.5 12t12.5 27l66 -7q-21 -104 -92 -104q-29 0 -68 18.5t-49 18.5q-17 0 -27.5 -12.5t-12.5 -26.5z" />
    <glyph glyph-name="hungarumlaut" unicode="&#x2dd;" horiz-adv-x="545" 
d="M251 723h124l-108 -131h-85zM418 723h124l-108 -131h-85z" />
    <glyph glyph-name="gravecomb" unicode="&#x300;" 
d="M17 723l17 -131h-80l-57 131h120z" />
    <glyph glyph-name="acutecomb" unicode="&#x301;" 
d="M-62 723h124l-108 -131h-85z" />
    <glyph glyph-name="uni0302" unicode="&#x302;" 
d="M-271 592l122 131h111l72 -131h-96l-38 79h-2l-67 -79h-102z" />
    <glyph glyph-name="tildecomb" unicode="&#x303;" 
d="M-256 617q20 104 92 104q28 0 67.5 -18.5t49.5 -18.5q18 0 27.5 12t12.5 27l66 -7q-20 -104 -92 -104q-28 0 -67 18.5t-50 18.5q-17 0 -27.5 -12.5t-12.5 -26.5z" />
    <glyph glyph-name="uni0304" unicode="&#x304;" 
d="M-211 700h267l-15 -80h-267z" />
    <glyph glyph-name="uni0306" unicode="&#x306;" 
d="M-96 588q-63 0 -95.5 37t-22.5 102l69 -7q-4 -32 8 -46t42 -14q67 0 86 67l69 -7q-15 -63 -57 -97.5t-99 -34.5z" />
    <glyph glyph-name="uni0307" unicode="&#x307;" 
d="M-66 673q4 22 20.5 37t41.5 15q30 0 43.5 -19.5t8.5 -46.5q-4 -21 -20.5 -35.5t-40.5 -14.5q-30 0 -44 18.5t-9 45.5z" />
    <glyph glyph-name="uni0308" unicode="&#x308;" 
d="M-236 673q4 22 20.5 37t40.5 15q30 0 44 -19.5t9 -46.5q-4 -21 -20.5 -35.5t-41.5 -14.5q-30 0 -43.5 18.5t-8.5 45.5zM-65 673q3 22 19.5 37t41.5 15q30 0 43.5 -19.5t8.5 -46.5q-3 -21 -19.5 -35.5t-41.5 -14.5q-30 0 -43.5 18.5t-8.5 45.5z" />
    <glyph glyph-name="uni030A" unicode="&#x30a;" 
d="M-53 579q-41 0 -64.5 27.5t-15.5 70.5q7 37 37 61t65 24q41 0 65 -28t15 -71q-7 -38 -36.5 -61t-65.5 -23zM-52 623q23 0 37.5 13.5t18.5 34.5q4 23 -7 34.5t-30 11.5q-22 0 -36.5 -13.5t-17.5 -34.5q-4 -23 6 -34.5t29 -11.5z" />
    <glyph glyph-name="uni030B" unicode="&#x30b;" 
d="M-229 723h124l-108 -131h-85zM-62 723h124l-108 -131h-85z" />
    <glyph glyph-name="uni030C" unicode="&#x30c;" 
d="M-242 723h96l37 -79h2l68 79h101l-121 -131h-111z" />
    <glyph glyph-name="uni0312" unicode="&#x312;" 
d="M-1 677q29 10 46.5 -6t10.5 -50q-4 -23 -20.5 -37t-38.5 -14q-34 0 -47.5 26t-5.5 68q9 42 41 77.5t90 44.5l-2 -44q-26 -4 -46 -22t-28 -43z" />
    <glyph glyph-name="uni0326" unicode="&#x326;" 
d="M-164 -162q-28 -10 -45.5 6t-11.5 49q4 23 22 37.5t39 14.5q33 0 46.5 -26t4.5 -67q-8 -41 -39.5 -74t-89.5 -42l2 44q57 10 72 58z" />
    <glyph glyph-name="uni0327" unicode="&#x327;" 
d="M-139 -8l-49 -49l-6 -2q39 5 69 -12.5t23 -56.5q-6 -32 -41 -50.5t-79 -18.5q-64 0 -108 31l24 25q32 -13 67 -13q25 0 44 11.5t22 29.5q2 11 -6 15.5t-29 4.5q-23 0 -43 -8l-13 22l69 71h56z" />
    <glyph glyph-name="uni0328" unicode="&#x328;" 
d="M-177 -177q-51 0 -73.5 22.5t-14.5 61.5q6 31 31.5 56t56.5 38l78 -3q-76 -51 -80 -81q-1 -11 6 -17t21 -6q21 0 51 10l-8 -72q-31 -9 -68 -9z" />
    <glyph glyph-name="uni0335" unicode="&#x335;" 
d="M-1 408l-14 -76h-421l15 76h420z" />
    <glyph glyph-name="uni0336" unicode="&#x336;" 
d="M0 414l-20 -108h-513l21 108h512z" />
    <glyph glyph-name="uni0337" unicode="&#x337;" 
d="M-607 27l27 -37l593 495l-28 37z" />
    <glyph glyph-name="uni0338" unicode="&#x338;" 
d="M-607 27l27 -37l593 495l-28 37z" />
    <glyph glyph-name="Wgrave" unicode="&#x1e80;" horiz-adv-x="917" 
d="M575 928l17 -131h-81l-57 131h121zM93 715h121l14 -554h2l252 554h122l37 -554h2l230 554h123l-318 -715h-125l-38 560h-2l-255 -560h-126z" />
    <glyph glyph-name="wgrave" unicode="&#x1e81;" horiz-adv-x="751" 
d="M454 723l17 -131h-80l-58 131h121zM51 511h109l29 -388h2l179 388h103l30 -388h2l179 388h112l-256 -511h-106l-33 390h-2l-185 -390h-106z" />
    <glyph glyph-name="Wacute" unicode="&#x1e82;" horiz-adv-x="917" 
d="M581 928h124l-109 -131h-84zM93 715h121l14 -554h2l252 554h122l37 -554h2l230 554h123l-318 -715h-125l-38 560h-2l-255 -560h-126z" />
    <glyph glyph-name="wacute" unicode="&#x1e83;" horiz-adv-x="751" 
d="M460 723h124l-108 -131h-85zM51 511h109l29 -388h2l179 388h103l30 -388h2l179 388h112l-256 -511h-106l-33 390h-2l-185 -390h-106z" />
    <glyph glyph-name="Wdieresis" unicode="&#x1e84;" horiz-adv-x="917" 
d="M429 878q4 21 21 36t41 15q30 0 43.5 -19t8.5 -46q-4 -21 -20.5 -36t-40.5 -15q-30 0 -44 19t-9 46zM599 878q5 21 22 36t41 15q30 0 43.5 -19t8.5 -46q-4 -21 -21 -36t-41 -15q-30 0 -44 19t-9 46zM93 715h121l14 -554h2l252 554h122l37 -554h2l230 554h123l-318 -715
h-125l-38 560h-2l-255 -560h-126z" />
    <glyph glyph-name="wdieresis" unicode="&#x1e85;" horiz-adv-x="751" 
d="M308 673q4 22 20.5 37t40.5 15q30 0 44.5 -19t8.5 -47q-4 -21 -20.5 -35.5t-41.5 -14.5q-30 0 -43.5 18.5t-8.5 45.5zM479 673q4 22 20.5 37t40.5 15q30 0 44 -19.5t9 -46.5q-4 -21 -20.5 -35.5t-41.5 -14.5q-30 0 -43.5 18.5t-8.5 45.5zM51 511h109l29 -388h2l179 388
h103l30 -388h2l179 388h112l-256 -511h-106l-33 390h-2l-185 -390h-106z" />
    <glyph glyph-name="Ygrave" unicode="&#x1ef2;" horiz-adv-x="621" 
d="M428 928l17 -131h-81l-56 131h120zM84 715h125l120 -332h1l252 332h129l-339 -431l-56 -284h-119l57 284z" />
    <glyph glyph-name="ygrave" unicode="&#x1ef3;" horiz-adv-x="504" 
d="M330 723l17 -131h-80l-58 131h121zM549 511l-309 -546q-40 -71 -78.5 -105t-103.5 -34q-35 0 -77 11l13 79l5 -1q68 -10 107 32q21 17 33.5 46t6.5 63l-98 455h111l67 -391h2l207 391h114z" />
    <glyph glyph-name="endash" unicode="&#x2013;" horiz-adv-x="592" 
d="M54 303h500l-19 -98h-500z" />
    <glyph glyph-name="emdash" unicode="&#x2014;" horiz-adv-x="1000" 
d="M109 303h800l-20 -99h-800z" />
    <glyph glyph-name="quoteleft" unicode="&#x2018;" horiz-adv-x="210" 
d="M162 582q31 8 49.5 -11t11.5 -55q-6 -29 -25 -44.5t-45 -15.5q-35 0 -49 26.5t-6 71.5q12 60 50.5 107t100.5 57l-5 -58q-28 -5 -51 -27.5t-31 -50.5z" />
    <glyph glyph-name="quoteright" unicode="&#x2019;" horiz-adv-x="207" 
d="M176 597q-32 -8 -50 10.5t-11 55.5q5 28 24.5 44t45.5 16q35 0 49 -26.5t6 -72.5q-12 -59 -51 -106.5t-101 -57.5l6 59q28 5 51 27t31 51z" />
    <glyph glyph-name="quotesinglbase" unicode="&#x201a;" horiz-adv-x="207" 
d="M59 -4q-32 -8 -50 10.5t-11 55.5q5 28 25 44t46 16q35 0 48.5 -27t4.5 -72q-11 -59 -49.5 -106.5t-100.5 -57.5l5 59q28 5 51 27t31 51z" />
    <glyph glyph-name="quotedblleft" unicode="&#x201c;" horiz-adv-x="382" 
d="M164 582q31 8 49.5 -10.5t11.5 -55.5q-6 -29 -25.5 -44.5t-44.5 -15.5q-36 0 -49.5 26.5t-5.5 71.5q11 59 49.5 106.5t101.5 57.5l-5 -58q-28 -5 -51 -27.5t-31 -50.5zM334 582q32 8 50 -10.5t11 -55.5q-6 -29 -25 -44.5t-45 -15.5q-35 0 -49 26.5t-6 71.5
q12 60 50.5 107t100.5 57l-5 -58q-28 -5 -51 -27.5t-31 -50.5z" />
    <glyph glyph-name="quotedblright" unicode="&#x201d;" horiz-adv-x="376" 
d="M174 597q-31 -8 -49.5 10.5t-11.5 55.5q5 28 24.5 44t45.5 16q35 0 49 -26.5t6 -72.5q-12 -59 -50.5 -106.5t-100.5 -57.5l5 59q28 5 51 27t31 51zM344 597q-31 -8 -49 10.5t-11 55.5q5 28 24.5 44t45.5 16q35 0 49 -26.5t6 -72.5q-12 -59 -51 -106.5t-101 -57.5l5 59
q28 5 51 27t31 51z" />
    <glyph glyph-name="quotedblbase" unicode="&#x201e;" horiz-adv-x="378" 
d="M59 -4q-32 -8 -50 10.5t-11 55.5q5 28 25 44t46 16q35 0 48.5 -27t4.5 -72q-11 -59 -49.5 -106.5t-100.5 -57.5l5 59q28 5 51 27t31 51zM230 -4q-32 -8 -50 10.5t-11 55.5q5 28 25 44t46 16q35 0 48.5 -27t5.5 -72q-12 -59 -50.5 -106.5t-100.5 -57.5l5 59q28 5 51 27
t31 51z" />
    <glyph glyph-name="dagger" unicode="&#x2020;" horiz-adv-x="533" 
d="M239 414h-176l19 98h176l39 203h116l-39 -203h175l-20 -98h-175l-114 -591h-116z" />
    <glyph glyph-name="daggerdbl" unicode="&#x2021;" horiz-adv-x="532" 
d="M176 94h-176l20 98h176l42 222h-176l20 98h176l39 203h116l-39 -203h175l-20 -98h-175l-42 -222h175l-20 -98h-175l-52 -271h-116z" />
    <glyph glyph-name="bullet" unicode="&#x2022;" horiz-adv-x="319" 
d="M153 190q-61 0 -91.5 39.5t-18.5 97.5q10 52 51 87.5t96 35.5q61 0 91 -39.5t19 -97.5q-10 -52 -51 -87.5t-96 -35.5z" />
    <glyph glyph-name="ellipsis" unicode="&#x2026;" horiz-adv-x="557" 
d="M57 -8q-31 0 -47.5 20t-9.5 52q5 26 24.5 42t44.5 16q30 0 47 -20.5t10 -51.5q-5 -26 -24.5 -42t-44.5 -16zM233 -8q-31 0 -47.5 20t-9.5 52q5 26 24.5 42t44.5 16q30 0 47 -20.5t10 -51.5q-5 -26 -24.5 -42t-44.5 -16zM409 -8q-31 0 -47.5 20t-9.5 52q5 26 24.5 42
t44.5 16q30 0 47 -20.5t10 -51.5q-5 -26 -24.5 -42t-44.5 -16z" />
    <glyph glyph-name="perthousand" unicode="&#x2030;" horiz-adv-x="1203" 
d="M202 308q-84 0 -118 59t-17 147q16 83 68 137.5t132 54.5q84 0 117.5 -58.5t16.5 -147.5q-16 -84 -67.5 -138t-131.5 -54zM717 691l-498 -691h-81l497 691h82zM207 384q82 0 107 126q22 119 -53 119q-82 0 -107 -126q-22 -119 53 -119zM588 -15q-84 0 -118 59t-17 147
q17 83 69 137.5t131 54.5q84 0 117.5 -58.5t16.5 -147.5q-16 -84 -67.5 -138t-131.5 -54zM966 -15q-84 0 -118 59t-17 147q17 83 69 137.5t131 54.5q84 0 117.5 -58.5t16.5 -147.5q-16 -84 -67.5 -138t-131.5 -54zM594 62q81 0 106 126q24 119 -52 119q-83 0 -108 -127
q-22 -118 54 -118zM972 62q81 0 106 126q24 119 -52 119q-83 0 -108 -127q-22 -118 54 -118z" />
    <glyph glyph-name="guilsinglleft" unicode="&#x2039;" horiz-adv-x="249" 
d="M35 197l20 110l178 123l-19 -102l-112 -75l-1 -2l82 -75l-18 -102z" />
    <glyph glyph-name="guilsinglright" unicode="&#x203a;" horiz-adv-x="251" 
d="M192 197l-177 -123l18 102l113 75v2l-82 75l19 102l129 -123z" />
    <glyph glyph-name="fraction" unicode="&#x2044;" horiz-adv-x="290" 
d="M458 715h85l-672 -715h-85z" />
    <glyph glyph-name="Euro" unicode="&#x20ac;" horiz-adv-x="645" 
d="M325 84q128 0 173 162h115q-33 -123 -108.5 -192t-188.5 -69q-116 0 -173.5 72t-52.5 191h-60l11 63h55q1 11 5 36q0 3 1.5 10.5l2.5 12.5h-53l12 63h59q43 125 124.5 196t194.5 71q115 0 167.5 -69t42.5 -177h-114q8 147 -106 147q-130 0 -194 -168h187l-12 -63h-192
q-1 -5 -4 -16t-4 -17q-3 -24 -3 -26h192l-11 -63h-187q-5 -164 121 -164z" />
    <glyph glyph-name="trademark" unicode="&#x2122;" horiz-adv-x="657" 
d="M190 654h-86l12 61h239l-12 -61h-86l-41 -215h-67zM392 715h93l23 -188l97 188h95l-53 -276h-65l38 198h-1l-99 -198h-57l-20 198h-3l-38 -198h-63z" />
    <glyph glyph-name="arrowleft" unicode="&#x2190;" horiz-adv-x="751" 
d="M252 37l-210 282l315 283l52 -58l-204 -182h537l-17 -86h-539l136 -181z" />
    <glyph glyph-name="arrowup" unicode="&#x2191;" horiz-adv-x="626" 
d="M629 429l-68 -61l-149 170l-106 -538h-86l106 538l-214 -170l-48 61l331 262z" />
    <glyph glyph-name="arrowright" unicode="&#x2192;" horiz-adv-x="751" 
d="M419 37l-53 58l205 181h-537l17 86h539l-137 182l71 58l209 -283z" />
    <glyph glyph-name="arrowdown" unicode="&#x2193;" horiz-adv-x="626" 
d="M589 222l-332 -262l-234 262l69 61l149 -170l106 538h86l-106 -538l213 170z" />
    <glyph glyph-name="arrowboth" unicode="&#x2194;" horiz-adv-x="1140" 
d="M913 602l209 -283l-313 -282l-54 58l205 181h-774l136 -181l-70 -59l-210 283l315 283l52 -58l-204 -182h774l-136 182z" />
    <glyph glyph-name="arrowupdn" unicode="&#x2195;" horiz-adv-x="626" 
d="M300 -24l213 170l50 -61l-332 -262l-234 262l68 61l149 -170l130 657l-213 -170l-49 61l332 262l234 -262l-68 -61l-150 170z" />
    <glyph glyph-name="uni2196" unicode="&#x2196;" horiz-adv-x="586" 
d="M12 215l90 385l389 15l-16 -85l-251 -8l308 -380l-70 -60l-308 380l-57 -249z" />
    <glyph glyph-name="uni2197" unicode="&#x2197;" horiz-adv-x="594" 
d="M556 215l-86 -2l42 249l-453 -380l-51 60l453 380l-246 8l18 85l383 -15z" />
    <glyph glyph-name="uni2198" unicode="&#x2198;" horiz-adv-x="586" 
d="M598 429l-90 -385l-389 -15l16 85l251 8l-308 380l70 60l308 -380l56 249z" />
    <glyph glyph-name="uni2199" unicode="&#x2199;" horiz-adv-x="586" 
d="M54 429l85 2l-41 -249l453 380l51 -60l-453 -380l246 -8l-19 -85l-382 15z" />
    <glyph glyph-name="partialdiff" unicode="&#x2202;" horiz-adv-x="562" 
d="M436 405l4 8q1 99 -53 148.5t-148 55.5l13 98q74 -2 130.5 -24.5t90 -60t53.5 -88.5t20 -109.5t-11 -123.5q-13 -64 -38 -120t-64 -103t-96 -74t-126 -27q-101 0 -150.5 65t-27.5 174q19 99 97 173t172 74q97 0 134 -66zM227 80q67 0 117 50.5t64 121.5q10 52 -12.5 88
t-73.5 36q-65 0 -116 -51t-64 -121q-11 -55 13 -89.5t72 -34.5z" />
    <glyph glyph-name="emptyset" unicode="&#x2205;" horiz-adv-x="797" 
d="M741 583q71 -102 42 -245q-30 -155 -153 -254t-277 -99q-139 0 -227 83l-79 -67l-34 40l78 66q-71 102 -42 245q30 156 153.5 255t277.5 99q140 0 226 -83l79 67l35 -40zM102 338q-21 -114 32 -195l530 443q-68 63 -182 63q-134 0 -243.5 -87.5t-136.5 -223.5zM351 42
q134 0 243 87.5t136 222.5q21 114 -31 196l-531 -443q69 -63 183 -63z" />
    <glyph glyph-name="product" unicode="&#x220f;" horiz-adv-x="560" 
d="M90 715h577l-158 -815h-115l139 717h-346l-140 -717h-115z" />
    <glyph glyph-name="summation" unicode="&#x2211;" horiz-adv-x="474" 
d="M-73 1l331 314l1 2l-210 298l18 100h532l-19 -98h-396l-1 -2l187 -268l-9 -56l-303 -291l-2 -2h414l-19 -98h-542z" />
    <glyph glyph-name="minus" unicode="&#x2212;" horiz-adv-x="560" 
d="M71 381h464l-18 -99h-465z" />
    <glyph glyph-name="radical" unicode="&#x221a;" horiz-adv-x="656" 
d="M31 330h151l41 -289h2l345 674h117l-436 -815h-105l-57 332h-76z" />
    <glyph glyph-name="infinity" unicode="&#x221e;" horiz-adv-x="709" 
d="M31 311q15 84 66 127.5t112 43.5q41 0 75 -18t50 -36.5t36 -48.5l2 5q31 29 53.5 47t61 34.5t76.5 16.5q65 0 102 -48t19 -137q-16 -82 -66.5 -126t-110.5 -44q-30 0 -54 8.5t-45 29.5t-28.5 31t-25.5 38q-3 5 -5 7l-3 -5q-38 -35 -56 -51t-59 -37t-78 -21q-66 0 -103 48
t-19 136zM171 217q10 0 21 3t19 6t20 11l18 12t18.5 15.5t15.5 14.5l16.5 16.5l14.5 14.5q-1 1 -6.5 10t-7 11.5t-7 11t-8.5 11.5t-8.5 10t-9.5 10t-10.5 7.5t-12 6.5t-12.5 3.5t-14 1.5q-38 0 -65 -25t-35 -70q-15 -81 53 -81zM498 217q37 0 64 25t36 70q15 81 -53 81
q-12 0 -23.5 -2.5t-24 -10t-20 -11.5t-22 -17t-18 -16.5l-19.5 -19.5l-16 -16q12 -21 17 -28.5t18.5 -24t28 -23.5t32.5 -7z" />
    <glyph glyph-name="integral" unicode="&#x222b;" horiz-adv-x="458" 
d="M230 -9q-31 -167 -173 -167q-46 0 -86 11l11 91q116 -18 141 105l105 542q33 167 173 167q45 0 87 -11l-12 -91q-116 18 -140 -105z" />
    <glyph glyph-name="approxequal" unicode="&#x2248;" horiz-adv-x="558" 
d="M417 334q-40 0 -116.5 19t-105.5 19q-58 0 -68 -48l-78 6q26 131 135 131q39 0 116 -19t106 -19q57 0 67 48l78 -6q-26 -131 -134 -131zM382 158q-38 0 -115.5 19t-106.5 19q-59 0 -67 -48l-78 7q24 131 134 131q39 0 116 -19.5t106 -19.5q59 0 67 49l79 -7
q-26 -131 -135 -131z" />
    <glyph glyph-name="notequal" unicode="&#x2260;" horiz-adv-x="555" 
d="M524 351h-175l-52 -78h212l-20 -98h-257l-66 -99h-82l66 99h-119l19 98h165l52 78h-202l19 98h249l60 91h81l-60 -91h129z" />
    <glyph glyph-name="lessequal" unicode="&#x2264;" horiz-adv-x="505" 
d="M430 114l-379 156l20 109l439 157l-18 -99l-343 -111l-1 -2l300 -111zM423 84l-17 -86h-409l17 86h409z" />
    <glyph glyph-name="greaterequal" unicode="&#x2265;" horiz-adv-x="505" 
d="M23 114l19 99l342 111l1 2l-300 111l19 99l378 -157l-21 -109zM16 84h409l-17 -86h-409z" />
    <glyph glyph-name="lozenge" unicode="&#x25ca;" horiz-adv-x="562" 
d="M39 358l270 357h113l133 -358l-270 -357h-113zM247 98l192 257l-91 262h-1l-193 -258l91 -261h2z" />
    <glyph glyph-name="i.loclTRK" horiz-adv-x="217" 
d="M129 673q4 22 20.5 37t41.5 15q30 0 43.5 -19.5t8.5 -46.5q-4 -21 -20.5 -35.5t-40.5 -14.5q-30 0 -44 18.5t-9 45.5zM108 511h105l-100 -511h-105z" />
    <glyph glyph-name="logo" horiz-adv-x="911" 
d="M820 615q48 0 82 -38.5t21 -105.5q-11 -55 -49 -84.5t-88 -29.5q46 0 73.5 -34.5t16.5 -92.5q-12 -63 -55.5 -96.5t-87.5 -33.5q-12 0 -23 2t-16.5 4t-14.5 6t-11 5q11 -39 5 -68q-9 -44 -50 -80.5t-104 -36.5q-58 0 -85.5 34.5t-18.5 79.5q-9 -50 -45.5 -82t-91.5 -32
q-67 0 -96.5 41t-20.5 90q7 38 30 56q-24 -19 -61 -19q-48 0 -82 38t-20 106q11 54 49 83.5t88 29.5q-46 0 -73.5 34.5t-16.5 92.5q12 63 55 97t87 34q27 0 66 -18q-9 44 -5 68q8 44 49 81t104 37q58 0 85.5 -34.5t19.5 -80.5q9 50 45 82.5t91 32.5q67 0 97 -41.5t21 -89.5
q-7 -37 -28 -54q22 17 58 17zM369 399q39 0 59 17t28 56l27 136q19 98 -52 98q-35 0 -61 -20t-32 -55q-6 -32 10 -61q6 3 12 3q28 0 44.5 -20.5t10.5 -48.5q-5 -24 -25 -41t-44 -17q-28 0 -42.5 19.5t-12.5 51.5q-1 4 3 9q-20 22 -56 22q-30 0 -56.5 -22.5t-33.5 -56.5
q-6 -32 12 -51t72 -19h137zM849 483q6 28 -8.5 46.5t-40.5 18.5q-41 0 -77 -33q-2 -1 -3 -11q-5 -26 -24.5 -42t-42.5 -16q-30 0 -46 20.5t-11 50.5q4 23 24 39.5t44 16.5q9 0 15 4q34 27 43 68q6 29 -8.5 45t-44.5 16q-85 0 -105 -104l-26 -137q-7 -39 4 -52.5t50 -13.5
h136q104 0 121 84zM413 249q8 39 -3.5 53t-50.5 14h-136q-104 0 -121 -85q-6 -28 8.5 -46.5t40.5 -18.5q41 0 77 33q1 1 3 12q4 25 23.5 41t43.5 16q29 0 45.5 -21t11.5 -50q-4 -23 -24 -39t-44 -16q-11 0 -15 -4q-35 -30 -44 -69q-5 -29 9.5 -45t44.5 -16q37 0 65 24.5
t39 79.5zM802 245q6 33 -11.5 52t-71.5 19h-137q-39 0 -59.5 -17.5t-28.5 -56.5l-26 -136q-19 -98 52 -98q35 0 60.5 20t32.5 55q6 32 -10 61q-4 -2 -13 -2q-27 0 -43 20.5t-11 48.5q5 24 25 40.5t44 16.5t39.5 -27.5t15.5 -43.5q1 -4 -3 -9q22 -22 56 -22q31 0 57 22.5
t32 56.5z" />
    </font>
</defs>
</svg>
