<?xml version="1.0" standalone="no"?>
<!DOCTYPE svg PUBLIC "-//W3C//DTD SVG 1.1//EN" "http://www.w3.org/Graphics/SVG/1.1/DTD/svg11.dtd" >
<svg xmlns="http://www.w3.org/2000/svg" xmlns:xlink="http://www.w3.org/1999/xlink" version="1.1">
<metadata>
Created by FontForge 20170731 at Mon Apr  2 15:12:33 2018
 By Aleksey,,,
Pangram Pangram Foundry
</metadata>
<defs>
<font id="NeueMontreal-LightItalic" horiz-adv-x="0" >
  <font-face 
    font-family="Neue Montreal Light"
    font-weight="300"
    font-style="italic"
    font-stretch="normal"
    units-per-em="1000"
    panose-1="0 0 4 0 0 0 0 0 0 0"
    ascent="772"
    descent="-228"
    x-height="514"
    cap-height="715"
    bbox="-594 -240 1097 943"
    underline-thickness="50"
    underline-position="-200"
    slope="-11"
    unicode-range="U+0020-25CA"
  />
<missing-glyph horiz-adv-x="500" 
d="M410 772v-1000h-317v1000h317zM333 705h-165v-33h65v-37h-66v-33h166v33h-66v37h66v33zM267 576h-100v-104h166v34h-66v70zM233 542v-36h-33v36h33zM333 445h-166v-33h66v-37h-66v-33h100v70h66v33zM333 385h-33v-66h-133v-34h166v100zM333 263h-100v-56h34v23h33v-47
h-100v80h-33v-113h166v113zM333 90h-166v-113h166v113zM300 57v-47h-100v47h100zM333 -46h-166v-33h70l-70 -47v-33h166v33h-102l70 47h32v33z" />
    <glyph glyph-name=".notdef" horiz-adv-x="500" 
d="M410 772v-1000h-317v1000h317zM333 705h-165v-33h65v-37h-66v-33h166v33h-66v37h66v33zM267 576h-100v-104h166v34h-66v70zM233 542v-36h-33v36h33zM333 445h-166v-33h66v-37h-66v-33h100v70h66v33zM333 385h-33v-66h-133v-34h166v100zM333 263h-100v-56h34v23h33v-47
h-100v80h-33v-113h166v113zM333 90h-166v-113h166v113zM300 57v-47h-100v47h100zM333 -46h-166v-33h70l-70 -47v-33h166v33h-102l70 47h32v33z" />
    <glyph glyph-name=".null" 
 />
    <glyph glyph-name="nonmarkingreturn" horiz-adv-x="333" 
 />
    <glyph glyph-name="space" unicode=" " horiz-adv-x="230" 
 />
    <glyph glyph-name="exclam" unicode="!" horiz-adv-x="200" 
d="M156 715h40l-47 -242l-66 -289h-20l46 289zM47 -4q-12 0 -19.5 8t-4.5 22t13.5 22t22.5 8t19.5 -8t4.5 -22t-13.5 -22t-22.5 -8z" />
    <glyph glyph-name="quotedbl" unicode="&#x22;" horiz-adv-x="231" 
d="M124 715h32l-39 -201h-32zM241 715h32l-39 -201h-32z" />
    <glyph glyph-name="numbersign" unicode="#" horiz-adv-x="528" 
d="M528 441h-114l-69 -185h118l-11 -28h-118l-85 -228h-32l85 228h-157l-85 -228h-32l85 228h-93l11 28h93l69 185h-99l10 28h99l81 215h32l-81 -215h157l81 215h32l-81 -215h114zM313 256l69 185h-157l-69 -185h157z" />
    <glyph glyph-name="dollar" unicode="$" horiz-adv-x="570" 
d="M394 684q83 -14 131.5 -66t38.5 -132h-32q6 71 -32.5 115t-110.5 56l-57 -293q215 -94 195 -221q-13 -80 -72 -117t-168 -37q-18 0 -28 1l-14 -75h-32l15 78q-105 14 -165.5 76.5t-56.5 160.5h32q-2 -85 48.5 -140.5t146.5 -68.5l63 324q-1 0 -19 8q-197 85 -170 208
q27 128 231 128q17 0 25 -1l13 69h32zM302 377l55 283q-8 1 -24 1q-174 0 -194 -104q-11 -59 28 -98.5t135 -81.5zM495 147q7 56 -32 97t-137 87l-61 -313q9 -1 27 -1q187 0 203 130z" />
    <glyph glyph-name="percent" unicode="%" horiz-adv-x="715" 
d="M180 321q-69 0 -94.5 51.5t-10.5 132.5q16 80 62 132t115 52t94.5 -52t9.5 -132q-15 -80 -61 -132t-115 -52zM660 685l-542 -685h-35l542 685h35zM186 349q57 0 91 45t47 111t-3.5 111t-73.5 45q-58 0 -92.5 -45t-47.5 -111q-6 -40 -5 -74.5t22.5 -58t61.5 -23.5z
M491 -11q-69 0 -95 52t-10 132q15 80 61 132t115 52t94.5 -51.5t10.5 -132.5q-16 -81 -61.5 -132.5t-114.5 -51.5zM496 17q57 0 91.5 45t47.5 111q12 66 -4.5 111t-73.5 45q-58 0 -92.5 -45t-46.5 -111q-6 -40 -5 -74.5t22 -58t61 -23.5z" />
    <glyph glyph-name="ampersand" unicode="&#x26;" horiz-adv-x="555" 
d="M502 0h-37l-58 102q-108 -113 -235 -113q-89 0 -133 54t-27 143q8 41 30 77t54.5 64t62 47t67.5 39q-25 41 -36 62t-18.5 53.5t-1.5 62.5q10 54 54.5 94.5t115.5 40.5q66 0 97 -40.5t21 -94.5q-11 -58 -56.5 -101.5t-131.5 -87.5l142 -246q51 71 72 152h32
q-26 -97 -89 -178zM202 591q-2 -9 -2 -18v-16t2.5 -17t3.5 -16t6 -17t7 -15t8.5 -16.5t8 -15.5t10 -17t9.5 -16l1 1q28 14 44 22.5t41 24.5t39 31t27.5 37.5t18.5 47.5q9 45 -15.5 76t-75.5 31q-56 0 -90.5 -31t-42.5 -76zM177 17q115 0 216 110l-146 251q-4 6 -6 10
q-38 -19 -64 -35t-56.5 -40.5t-50 -56.5t-26.5 -70q-15 -79 21.5 -124t111.5 -45z" />
    <glyph glyph-name="quotesingle" unicode="'" horiz-adv-x="114" 
d="M128 715h32l-39 -201h-32z" />
    <glyph glyph-name="parenleft" unicode="(" horiz-adv-x="238" 
d="M289 755h32q-80 -101 -132.5 -204.5t-77.5 -233.5q-19 -84 -16 -166t16.5 -142t39.5 -126h-32q-86 202 -40 434q46 238 210 438z" />
    <glyph glyph-name="parenright" unicode=")" horiz-adv-x="243" 
d="M150 755q86 -201 40 -438q-47 -235 -210 -434h-32q165 208 210 434q19 86 16 169t-16.5 143t-39.5 126h32z" />
    <glyph glyph-name="asterisk" unicode="*" horiz-adv-x="340" 
d="M366 608l-116 -40l52 -96l-23 -14l-53 99l-90 -99l-17 14l87 96l-100 40l13 22l100 -39l24 124h27l-24 -124l117 39z" />
    <glyph glyph-name="plus" unicode="+" horiz-adv-x="517" 
d="M254 312h-193l5 28l193 -1l38 203h32l-40 -203l193 1l-5 -28h-193l-39 -203h-32z" />
    <glyph glyph-name="comma" unicode="," horiz-adv-x="122" 
d="M5 -4q-14 -5 -22.5 3t-4.5 26q6 31 35 31q31 0 20 -54q-13 -84 -74 -102l5 28q33 14 41 68z" />
    <glyph glyph-name="hyphen" unicode="-" horiz-adv-x="331" 
d="M33 269h268l-5 -28h-268z" />
    <glyph glyph-name="period" unicode="." horiz-adv-x="139" 
d="M20 -4q-12 0 -19.5 8t-4.5 22t13.5 22t22.5 8t19.5 -8t4.5 -22t-13.5 -22t-22.5 -8z" />
    <glyph glyph-name="slash" unicode="/" horiz-adv-x="357" 
d="M442 715l-430 -715h-33l431 715h32z" />
    <glyph glyph-name="zero" unicode="0" horiz-adv-x="567" 
d="M232 -11q-121 0 -165 100t-14 256t113 256.5t204 100.5q82 0 130 -49t56.5 -128.5t-8.5 -179.5q-30 -156 -112.5 -256t-203.5 -100zM237 17q106 0 178.5 92t100.5 236q28 145 -9 237t-142 92q-106 0 -179 -92.5t-101 -236.5q-28 -145 9.5 -236.5t142.5 -91.5z" />
    <glyph glyph-name="one" unicode="1" horiz-adv-x="282" 
d="M245 691h32l-134 -691h-32l113 583q-48 -70 -164 -70l5 28q74 0 120 39t60 111z" />
    <glyph glyph-name="two" unicode="2" horiz-adv-x="507" 
d="M122 479h-32q18 92 86.5 157.5t171.5 65.5q90 0 140 -56.5t33 -143.5q-11 -59 -48.5 -103.5t-85.5 -70t-105 -54.5t-107.5 -56t-93 -75.5t-61.5 -112.5v-2h408l-5 -28h-443q35 181 253 285q125 59 163 87q77 55 93 136q13 69 -25.5 117.5t-115.5 48.5q-85 0 -147.5 -56.5
t-78.5 -138.5z" />
    <glyph glyph-name="three" unicode="3" horiz-adv-x="515" 
d="M120 494h-32q18 93 80.5 150.5t162.5 57.5q88 0 145 -55.5t41 -136.5q-12 -60 -52 -96.5t-92 -51.5v-2q63 -20 91 -75t14 -121q-18 -85 -81.5 -130t-157.5 -45q-115 0 -179 64t-46 171h32q-17 -90 34.5 -148.5t153.5 -58.5q84 0 141.5 39t70.5 108q16 83 -30 133t-111 50
h-75l6 28h71q64 0 114.5 37t63.5 102q12 62 -29 111t-127 49q-89 0 -142 -52.5t-67 -127.5z" />
    <glyph glyph-name="four" unicode="4" horiz-adv-x="528" 
d="M351 0h-32l35 182h-349l6 28l442 481h32l-93 -481h105l-6 -28h-105zM443 640l-395 -430h312z" />
    <glyph glyph-name="five" unicode="5" horiz-adv-x="487" 
d="M292 441q98 0 143.5 -66t26.5 -162q-20 -105 -91 -164.5t-176 -59.5q-108 0 -153.5 57.5t-32.5 137.5h32q-11 -76 29.5 -121.5t126.5 -45.5t150 48t83 148q19 95 -25.5 147.5t-125.5 52.5q-66 0 -117 -28.5t-77 -62.5h-35l146 369h323l-5 -28h-298l-116 -291v-2
q78 71 192 71z" />
    <glyph glyph-name="six" unicode="6" horiz-adv-x="533" 
d="M69 256q30 91 100 134.5t146 43.5q99 0 147 -61.5t30 -158.5q-19 -98 -92 -161.5t-175 -63.5q-116 0 -161.5 84.5t-15.5 242.5q38 193 120.5 289.5t203.5 96.5q79 0 124 -47.5t35 -128.5h-32q8 68 -28.5 108t-103.5 40q-217 0 -287 -358l-11 -58v-2zM230 17
q88 0 150.5 55t79.5 142q16 85 -24 138.5t-126 53.5q-77 0 -146 -50.5t-88 -152.5q-15 -73 25.5 -129.5t128.5 -56.5z" />
    <glyph glyph-name="seven" unicode="7" horiz-adv-x="481" 
d="M95 691h450l-4 -24q-81 -54 -148.5 -124.5t-111 -138t-77 -145t-51 -137t-29.5 -122.5h-32q16 81 43 160.5t72.5 171t120 178.5t168.5 153v1h-406z" />
    <glyph glyph-name="eight" unicode="8" horiz-adv-x="532" 
d="M19 192q14 68 62 114.5t119 69.5l1 2q-105 46 -85 153q15 79 83 125t158 46t140 -46t35 -125q-20 -106 -143 -153l-1 -2q61 -23 92 -70t17 -114q-18 -94 -99.5 -148.5t-178.5 -54.5t-157.5 54.5t-42.5 148.5zM297 391q76 0 133.5 38t69.5 102q13 67 -29 105t-119 38
t-134 -38t-70 -105q-12 -64 30.5 -102t118.5 -38zM224 17q86 0 156 48.5t85 126.5q15 76 -36 123.5t-137 47.5t-156 -47.5t-85 -123.5q-15 -78 36 -126.5t137 -48.5z" />
    <glyph glyph-name="nine" unicode="9" horiz-adv-x="522" 
d="M327 702q116 0 162 -84.5t15 -242.5q-38 -193 -120.5 -289.5t-203.5 -96.5q-79 0 -124 47.5t-35 128.5h32q-8 -68 28.5 -108t103.5 -40q217 0 287 358l11 56q-21 -61 -64.5 -102t-89 -56.5t-92.5 -15.5q-99 0 -147 61.5t-29 158.5q19 98 92 161.5t174 63.5zM477 488
q14 73 -26.5 129.5t-128.5 56.5t-150 -55t-79 -142q-17 -85 23 -138.5t126 -53.5q77 0 146 50.5t89 152.5z" />
    <glyph glyph-name="colon" unicode=":" horiz-adv-x="145" 
d="M79 300q-12 0 -19.5 8t-4.5 22t13.5 22t22.5 8t19.5 -8t4.5 -22t-13.5 -22t-22.5 -8zM20 -4q-12 0 -19.5 8t-4.5 22t13.5 22t22.5 8t19.5 -8t4.5 -22t-13.5 -22t-22.5 -8z" />
    <glyph glyph-name="semicolon" unicode=";" horiz-adv-x="147" 
d="M82 301q-12 0 -20 8t-5 22t13.5 22t22.5 8t19.5 -8t4.5 -22t-13 -22t-22 -8zM7 -4q-14 -5 -22.5 3t-4.5 26q6 31 35 31q31 0 20 -54q-13 -84 -74 -102l5 28q33 14 41 68z" />
    <glyph glyph-name="less" unicode="&#x3c;" horiz-adv-x="485" 
d="M416 126l-359 165l7 40l424 167l-6 -32l-388 -154l-1 -2l329 -152z" />
    <glyph glyph-name="equal" unicode="=" horiz-adv-x="510" 
d="M74 395h414l-6 -28h-414zM46 254h414l-5 -28h-414z" />
    <glyph glyph-name="greater" unicode="&#x3e;" horiz-adv-x="484" 
d="M23 126l6 32l387 152l1 2l-328 154l6 32l358 -167l-7 -40z" />
    <glyph glyph-name="question" unicode="?" horiz-adv-x="472" 
d="M103 513h-32q18 90 83.5 151.5t165.5 61.5q84 0 137.5 -51.5t39.5 -123.5q-5 -28 -19.5 -51.5t-36 -41t-40 -29t-43 -25t-34.5 -20.5q-50 -35 -71 -76.5t-39 -134.5h-32q19 97 46.5 147t91.5 95q11 8 40 25t46.5 29t35.5 35.5t23 51.5q10 55 -31 98.5t-119 43.5
q-79 0 -137.5 -51.5t-74.5 -133.5zM175 -4q-12 0 -19.5 8t-4.5 22t13.5 22t22.5 8t19.5 -8t4.5 -22t-13.5 -22t-22.5 -8z" />
    <glyph glyph-name="at" unicode="@" horiz-adv-x="847" 
d="M363 84q-77 0 -112 56t-17 148q18 94 84 162t156 68q53 0 84 -31.5t33 -91.5h1l34 114h28l-91 -283q-17 -50 -3.5 -79t57.5 -29q64 0 114 65.5t69 163.5q30 155 -52.5 243.5t-226.5 88.5q-101 0 -196 -46.5t-166.5 -137t-94.5 -206.5q-31 -161 51 -260t242 -99
q95 0 201 45l7 -28q-103 -45 -214 -45q-173 0 -262.5 107t-56.5 280q15 78 51 145.5t85.5 117t108.5 85t122.5 53t126.5 17.5q73 0 135.5 -23.5t107 -67t62.5 -113.5t1 -156q-21 -112 -82 -184.5t-138 -72.5q-50 0 -70.5 29.5t-10.5 74.5q-70 -110 -168 -110zM368 112
q72 0 126 63t73 157q14 74 -14.5 116t-84.5 42q-77 0 -131.5 -61t-70.5 -141q-15 -79 11.5 -127.5t90.5 -48.5z" />
    <glyph glyph-name="A" unicode="A" horiz-adv-x="605" 
d="M467 243h-336l-141 -243h-32l413 715h38l137 -715h-32zM147 271h315l-78 407h-2z" />
    <glyph glyph-name="B" unicode="B" horiz-adv-x="602" 
d="M602 536q-23 -119 -148 -158l-1 -2q66 -15 97 -62t18 -116q-20 -101 -90 -149.5t-172 -48.5h-293l139 715h278q97 0 142.5 -47t29.5 -132zM121 389h268q68 0 118.5 41t62.5 106q14 70 -23.5 110.5t-121.5 40.5h-246zM115 361l-65 -333h258q89 0 150 41.5t78 128.5
q14 74 -27 118.5t-122 44.5h-272z" />
    <glyph glyph-name="C" unicode="C" horiz-adv-x="659" 
d="M643 504q3 84 -51 139t-148 55q-137 0 -235 -95.5t-127 -245.5q-29 -151 31 -245.5t195 -94.5q103 0 184.5 67t111.5 162h32q-36 -114 -128 -185.5t-205 -71.5q-147 0 -216 101t-37 267q32 164 141 266.5t258 102.5q106 0 167 -61.5t59 -160.5h-32z" />
    <glyph glyph-name="D" unicode="D" horiz-adv-x="646" 
d="M12 0l139 715h256q75 0 128 -28.5t77 -77.5t30.5 -114.5t-10.5 -140.5q-31 -158 -126.5 -256t-244.5 -98h-249zM176 687l-129 -659h218q129 0 217.5 87t117.5 239q30 155 -21 244t-178 89h-225z" />
    <glyph glyph-name="E" unicode="E" horiz-adv-x="577" 
d="M121 394h403l-6 -28h-403l-66 -338h448l-5 -28h-480l139 715h470l-5 -28h-438z" />
    <glyph glyph-name="F" unicode="F" horiz-adv-x="549" 
d="M119 387h368l-5 -28h-368l-70 -359h-32l139 715h460l-5 -28h-428z" />
    <glyph glyph-name="G" unicode="G" horiz-adv-x="708" 
d="M659 511q0 83 -56.5 135t-152.5 52q-144 0 -241.5 -98t-126.5 -244q-15 -70 -7 -132t33.5 -108t77.5 -72.5t125 -26.5q122 0 209 84t114 225h-248l6 28h280l-69 -354h-26l33 189h-2q-36 -86 -116 -143t-186 -57q-156 0 -221.5 102.5t-34.5 264.5q31 160 140 265t265 105
q110 0 173.5 -57.5t62.5 -157.5h-32z" />
    <glyph glyph-name="H" unicode="H" horiz-adv-x="648" 
d="M152 715h32l-62 -321h457l62 321h32l-139 -715h-32l71 366h-457l-71 -366h-32z" />
    <glyph glyph-name="I" unicode="I" horiz-adv-x="165" 
d="M155 715h32l-139 -715h-32z" />
    <glyph glyph-name="J" unicode="J" horiz-adv-x="448" 
d="M375 182q-16 -86 -75 -139.5t-149 -53.5t-127.5 53.5t-21.5 139.5l6 29h32l-6 -29q-15 -78 18 -121.5t104 -43.5t121.5 43.5t65.5 121.5l104 533h32z" />
    <glyph glyph-name="K" unicode="K" horiz-adv-x="590" 
d="M152 715h32l-90 -463l537 463h42l-354 -306l234 -409h-39l-222 386l-207 -178l-40 -208h-32z" />
    <glyph glyph-name="L" unicode="L" horiz-adv-x="522" 
d="M152 715h32l-134 -687h410l-5 -28h-442z" />
    <glyph glyph-name="M" unicode="M" horiz-adv-x="791" 
d="M13 0l139 715h47l152 -672h2l415 672h47l-139 -715h-32l130 668h-2l-411 -668h-34l-150 668h-2l-130 -668h-32z" />
    <glyph glyph-name="N" unicode="N" horiz-adv-x="657" 
d="M13 0l139 715h40l326 -670h2l130 670h32l-139 -715h-40l-326 668h-2l-130 -668h-32z" />
    <glyph glyph-name="O" unicode="O" horiz-adv-x="717" 
d="M306 -11q-147 0 -218 103.5t-39 265.5q31 162 142 265t258 103t218 -103t40 -265q-32 -162 -143 -265.5t-258 -103.5zM311 17q128 0 231 95t133 246q29 151 -37 245.5t-194 94.5t-231 -94.5t-132 -245.5q-30 -151 36 -246t194 -95z" />
    <glyph glyph-name="P" unicode="P" horiz-adv-x="564" 
d="M12 0l139 715h254q226 0 187 -203q-41 -203 -266 -203h-222l-60 -309h-32zM178 687l-68 -350h231q88 0 145 43t74 132t-23 132t-128 43h-231z" />
    <glyph glyph-name="Q" unicode="Q" horiz-adv-x="694" 
d="M699 358q-36 -182 -167 -286l74 -92l-26 -22l-76 94q-94 -63 -206 -63q-147 0 -218 103.5t-39 265.5q31 162 142 265t258 103t218 -103t40 -265zM303 17q98 0 183 57l-64 80l26 22l66 -82q120 98 153 264q29 151 -37 245.5t-194 94.5t-231 -94.5t-132 -245.5
q-30 -151 36 -246t194 -95z" />
    <glyph glyph-name="R" unicode="R" horiz-adv-x="585" 
d="M13 0l139 715h280q100 0 148.5 -50t28.5 -150q-15 -76 -66.5 -123.5t-128.5 -61.5v-2q42 -5 67 -30.5t31.5 -60t7.5 -74t-3 -73.5t-3 -57.5t9 -26.5l-1 -6h-35q-5 8 -6.5 34t4.5 61t3 74t-12 71t-39 53.5t-78 21.5h-253l-61 -315h-32zM179 687l-67 -344h229
q91 0 155.5 44.5t80.5 127.5q18 89 -25 130.5t-144 41.5h-229z" />
    <glyph glyph-name="S" unicode="S" horiz-adv-x="570" 
d="M324 389q121 -52 168.5 -101t37.5 -135q-10 -81 -77 -122.5t-183 -41.5q-125 0 -199 62t-62 179h32q-9 -103 52.5 -158t181.5 -55q102 0 160 38t63 102q3 29 0 50.5t-16.5 41t-26.5 32.5t-44.5 30.5t-56 28.5t-74.5 33q-105 45 -149 92.5t-31 122.5q24 138 241 138
q104 0 170.5 -55t55.5 -148h-32q7 85 -47.5 130t-151.5 45q-186 0 -204 -114q-5 -22 -1.5 -41t9 -34t19 -28.5t28 -24t36.5 -21.5t45 -21.5t51 -22.5q3 -1 5 -2z" />
    <glyph glyph-name="T" unicode="T" horiz-adv-x="570" 
d="M213 0l134 687h-255l5 28h542l-5 -28h-255l-134 -687h-32z" />
    <glyph glyph-name="U" unicode="U" horiz-adv-x="623" 
d="M565 248q-50 -259 -307 -259t-207 259l91 467h32l-91 -467q-22 -117 22.5 -174t157.5 -57q226 0 270 231l91 467h32z" />
    <glyph glyph-name="V" unicode="V" horiz-adv-x="580" 
d="M87 715h33l125 -658h1l381 658h33l-413 -715h-25z" />
    <glyph glyph-name="W" unicode="W" horiz-adv-x="864" 
d="M93 715h33l47 -663h1l320 663h40l62 -663h1l305 663h33l-329 -715h-37l-64 663h-2l-322 -663h-37z" />
    <glyph glyph-name="X" unicode="X" horiz-adv-x="554" 
d="M286 365l-174 350h38l158 -320h1l283 320h38l-310 -350l187 -365h-38l-172 335h-1l-301 -335h-38z" />
    <glyph glyph-name="Y" unicode="Y" horiz-adv-x="557" 
d="M81 715h37l166 -387h2l318 387h37l-347 -422l-57 -293h-32l57 293z" />
    <glyph glyph-name="Z" unicode="Z" horiz-adv-x="584" 
d="M137 715h500l-5 -28l-607 -657l-1 -2h488l-5 -28h-528l5 28l606 657l1 2h-459z" />
    <glyph glyph-name="bracketleft" unicode="[" horiz-adv-x="252" 
d="M175 755h142l-6 -28h-110l-158 -816h110l-6 -28h-142z" />
    <glyph glyph-name="backslash" unicode="\" horiz-adv-x="331" 
d="M92 715h32l153 -715h-33z" />
    <glyph glyph-name="bracketright" unicode="]" horiz-adv-x="252" 
d="M271 755l-170 -872h-142l6 28h110l158 816h-110l6 28h142z" />
    <glyph glyph-name="asciicircum" unicode="^" horiz-adv-x="380" 
d="M269 685h-1l-190 -245h-35l214 275h35l108 -275h-34z" />
    <glyph glyph-name="underscore" unicode="_" horiz-adv-x="371" 
d="M-79 -138h379l-5 -28h-379z" />
    <glyph glyph-name="grave" unicode="`" horiz-adv-x="453" 
d="M270 721l45 -124h-29l-57 124h41z" />
    <glyph glyph-name="a" unicode="a" horiz-adv-x="492" 
d="M405 381q11 54 -23.5 84t-102.5 30q-144 0 -177 -126h-30q41 152 212 152q82 0 122.5 -41t23.5 -124l-49 -253q-1 -4 -3.5 -15.5t-3.5 -16.5t-1.5 -15t1.5 -14t6.5 -10.5t12 -8t20 -1.5t29.5 3l-5 -26q-19 -4 -34 -4q-38 0 -51.5 20.5t-4.5 68.5h-2q-38 -48 -93 -71.5
t-113 -23.5q-74 0 -112 40t-25 108q13 62 63.5 95t157.5 51q12 2 39 6t40 6.5t34 9t32 15t22 24.5t15 37zM152 15q74 0 137 47t73 95l29 152q-9 -14 -32.5 -24t-45.5 -14t-65 -11q-13 -2 -20 -3q-85 -14 -135 -41.5t-61 -81.5q-12 -59 19 -89t101 -30z" />
    <glyph glyph-name="b" unicode="b" horiz-adv-x="521" 
d="M327 521q95 0 143.5 -72t25.5 -194q-24 -122 -100.5 -194t-171.5 -72q-70 0 -112 39t-54 100h-2l-25 -128h-30l139 715h30l-65 -336h2q36 64 92.5 103t127.5 39zM222 15q88 0 155 64.5t89 175.5q21 111 -21 175.5t-130 64.5q-78 0 -145.5 -65.5t-88.5 -174.5
q-22 -108 20.5 -174t120.5 -66z" />
    <glyph glyph-name="c" unicode="c" horiz-adv-x="486" 
d="M458 346q0 54 -40 101.5t-119 47.5q-98 0 -161.5 -62t-82.5 -161q-20 -100 27 -178.5t144 -78.5q80 0 131.5 47.5t66.5 105.5h30q-20 -76 -83.5 -127.5t-149.5 -51.5q-106 0 -162 83t-33 203q23 118 97 182t181 64q84 0 134 -54t50 -121h-30z" />
    <glyph glyph-name="d" unicode="d" horiz-adv-x="521" 
d="M529 715h30l-139 -715h-30l25 128h-2q-35 -61 -92 -100t-128 -39q-95 0 -143.5 72t-24.5 194q23 122 99.5 194t171.5 72q71 0 112.5 -39t53.5 -103h2zM205 15q77 0 145 65.5t90 174.5q21 108 -21.5 174t-120.5 66q-88 0 -155 -64.5t-88 -175.5q-22 -111 20 -175.5
t130 -64.5z" />
    <glyph glyph-name="e" unicode="e" horiz-adv-x="499" 
d="M211 15q77 0 130.5 43.5t75.5 95.5h30q-32 -75 -93.5 -120t-147.5 -45q-105 0 -154.5 77.5t-25.5 195.5q25 125 100.5 192t181.5 67q108 0 149 -71.5t18 -189.5h-419l-2 -6q-20 -104 20 -171.5t137 -67.5zM303 495q-91 0 -157 -61t-85 -148h389q10 54 0 100t-48 77.5
t-99 31.5z" />
    <glyph glyph-name="f" unicode="f" horiz-adv-x="255" 
d="M315 690q-35 5 -60 1.5t-43 -29.5t-29 -80l-13 -68h111l-5 -26h-111l-95 -488h-30l95 488h-73l5 26h73l15 76q14 72 45.5 101.5t81.5 29.5q19 0 38 -5z" />
    <glyph glyph-name="g" unicode="g" horiz-adv-x="519" 
d="M486 514h30l-95 -486q-38 -199 -244 -199q-93 0 -144 42t-50 103h30q4 -51 46 -85t123 -34q176 0 210 174l24 125h-2q-33 -56 -91.5 -90.5t-125.5 -34.5q-90 0 -141.5 68t-28.5 188q23 118 98 177t167 59q67 0 112 -34.5t56 -93.5h2zM209 55q74 0 142 57.5t88 162.5
q21 105 -25 162.5t-120 57.5q-85 0 -150.5 -52t-86.5 -158q-21 -108 24 -169t128 -61z" />
    <glyph glyph-name="h" unicode="h" horiz-adv-x="479" 
d="M327 521q64 0 101.5 -40.5t23.5 -112.5l-72 -368h-30l68 348q27 147 -110 147q-79 0 -138.5 -46.5t-69.5 -94.5l-69 -354h-30l139 715h30l-57 -292h2q26 29 47.5 47.5t65.5 34.5t99 16z" />
    <glyph glyph-name="i" unicode="i" horiz-adv-x="155" 
d="M151 637q-9 0 -15.5 6.5t-4.5 17.5q5 24 29 24q10 0 16.5 -6.5t4.5 -17.5t-11 -17.5t-19 -6.5zM112 514h30l-100 -514h-30z" />
    <glyph glyph-name="j" unicode="j" horiz-adv-x="156" 
d="M152 637q-9 0 -15.5 6.5t-4.5 17.5t11 17.5t18 6.5q10 0 16.5 -6.5t4.5 -17.5t-11 -17.5t-19 -6.5zM113 514h30l-113 -579q-9 -49 -27.5 -76.5t-57.5 -27.5q-30 0 -48 9l5 26q42 -15 64 -3.5t33 64.5z" />
    <glyph glyph-name="k" unicode="k" horiz-adv-x="438" 
d="M140 715h30l-94 -483l348 282h42l-244 -197l175 -317h-37l-163 297l-129 -105l-37 -192h-30z" />
    <glyph glyph-name="l" unicode="l" horiz-adv-x="138" 
d="M143 715h30l-139 -715h-30z" />
    <glyph glyph-name="m" unicode="m" horiz-adv-x="768" 
d="M622 521q73 0 101.5 -43t13.5 -122l-69 -356h-30l65 336q16 80 -4 119.5t-84 39.5q-76 0 -131.5 -45.5t-66.5 -101.5l-68 -348h-30l65 336q32 159 -87 159q-74 0 -131.5 -48.5t-66.5 -98.5l-68 -348h-30l100 514h30l-19 -93h2q23 29 42 47t58.5 35.5t87.5 17.5
q58 0 87.5 -28.5t29.5 -80.5h2q41 55 85 82t116 27z" />
    <glyph glyph-name="n" unicode="n" horiz-adv-x="479" 
d="M327 521q64 0 101.5 -40.5t23.5 -112.5l-72 -368h-30l68 348q27 147 -110 147q-79 0 -138.5 -46.5t-69.5 -94.5l-69 -354h-30l100 514h30l-18 -91h2q26 29 47.5 47.5t65.5 34.5t99 16z" />
    <glyph glyph-name="o" unicode="o" horiz-adv-x="520" 
d="M208 -11q-108 0 -157 73t-26 193t100.5 193t185.5 73q109 0 158 -73t26 -193t-100.5 -193t-186.5 -73zM213 15q96 0 163.5 66.5t88.5 173.5t-21 173.5t-138 66.5t-163 -66.5t-88 -173.5t20.5 -173.5t137.5 -66.5z" />
    <glyph glyph-name="p" unicode="p" horiz-adv-x="522" 
d="M327 521q95 0 143.5 -72t25.5 -194q-24 -122 -100.5 -194t-171.5 -72q-70 0 -112 39t-54 100h-2l-57 -294h-30l132 680h30l-26 -135h2q36 64 92.5 103t127.5 39zM222 15q88 0 155 64.5t89 175.5q21 111 -21 175.5t-130 64.5q-78 0 -145.5 -65.5t-88.5 -174.5
q-22 -108 20.5 -174t120.5 -66z" />
    <glyph glyph-name="q" unicode="q" horiz-adv-x="523" 
d="M490 514h30l-132 -680h-30l57 294h-2q-35 -61 -92 -100t-128 -39q-95 0 -143.5 72t-24.5 194q23 122 99.5 194t171.5 72q71 0 112.5 -39t53.5 -103h2zM205 15q77 0 145 65.5t90 174.5q21 108 -21.5 174t-120.5 66q-88 0 -155 -64.5t-88 -175.5q-22 -111 20 -175.5
t130 -64.5z" />
    <glyph glyph-name="r" unicode="r" horiz-adv-x="292" 
d="M289 521q22 0 37 -3l-5 -26h-2q-73 12 -141.5 -39t-84.5 -134l-62 -319h-30l100 514h30l-21 -103h2q27 47 76 78.5t101 31.5z" />
    <glyph glyph-name="s" unicode="s" horiz-adv-x="442" 
d="M227 287q109 -37 146 -77.5t23 -111.5q-10 -51 -60 -80t-119 -29q-94 0 -155 46t-61 125h30q0 -68 54 -106.5t133 -38.5q51 0 96 23t53 63q14 68 -23.5 99t-145.5 68q-28 10 -45 17t-38.5 19.5t-32.5 26t-17 34.5t-2 46q8 55 55 82.5t118 27.5q78 0 129 -42t51 -102h-30
q0 53 -44.5 85.5t-110.5 32.5q-49 0 -91.5 -21.5t-48.5 -69.5q-3 -20 5 -37.5t17 -27t34 -21.5t36 -16t44 -15z" />
    <glyph glyph-name="t" unicode="t" horiz-adv-x="264" 
d="M282 488h-113l-69 -355q-5 -35 -7.5 -62.5t21.5 -40t79 -1.5l-5 -26q-29 -6 -56 -6q-89 0 -64 128l71 363h-75l5 26h75l32 166h30l-32 -166h113z" />
    <glyph glyph-name="u" unicode="u" horiz-adv-x="481" 
d="M446 514h30l-100 -514h-30l18 91h-2q-26 -29 -47.5 -47.5t-65.5 -34.5t-99 -16q-64 0 -101.5 40.5t-23.5 112.5l72 368h30l-68 -348q-27 -147 110 -147q79 0 138.5 46.5t69.5 94.5z" />
    <glyph glyph-name="v" unicode="v" horiz-adv-x="435" 
d="M52 514h31l88 -474h1l273 474h31l-296 -514h-33z" />
    <glyph glyph-name="w" unicode="w" horiz-adv-x="695" 
d="M55 514h31l57 -477h1l229 477h41l44 -477h1l243 477h31l-262 -514h-40l-45 475h-2l-227 -475h-40z" />
    <glyph glyph-name="x" unicode="x" horiz-adv-x="463" 
d="M73 514h37l126 -230h2l216 230h37l-238 -251l155 -263h-38l-140 244h-2l-233 -244h-38l256 263z" />
    <glyph glyph-name="y" unicode="y" horiz-adv-x="443" 
d="M481 514l-305 -531q-49 -85 -80 -118.5t-78 -33.5q-31 0 -58 10l5 26h2q73 -16 102 9q44 37 85 126l-103 512h32l94 -471h1l271 471h32z" />
    <glyph glyph-name="z" unicode="z" horiz-adv-x="439" 
d="M-16 26l428 460v2h-322l5 26h360l-5 -26l-428 -460v-2h348l-5 -26h-386z" />
    <glyph glyph-name="braceleft" unicode="{" horiz-adv-x="264" 
d="M40 333q33 -1 60.5 24.5t37.5 75.5l31 158q16 85 46.5 124.5t95.5 39.5h11l-6 -28h-11q-49 0 -69 -30.5t-39 -124.5l-28 -145q-14 -74 -83 -107v-2q55 -33 41 -108l-27 -140q-19 -92 -10.5 -125.5t57.5 -33.5h11l-6 -28h-11q-45 0 -66 20.5t-20.5 58t9.5 89.5l30 153
q9 50 -9 75.5t-51 25.5z" />
    <glyph glyph-name="bar" unicode="|" horiz-adv-x="13" 
d="M94 744h32l-170 -872h-32z" />
    <glyph glyph-name="braceright" unicode="}" horiz-adv-x="262" 
d="M252 333l-6 -28q-34 0 -61.5 -25.5t-36.5 -75.5l-30 -153q-17 -86 -47.5 -127t-95.5 -41h-11l6 28h11q49 0 69.5 32t39.5 127l27 140q14 75 83 108v2q-55 33 -41 107l28 145q19 92 10 123.5t-58 31.5h-11l6 28h11q65 0 81 -43.5t-3 -120.5l-31 -158q-10 -50 8 -75.5
t52 -24.5z" />
    <glyph glyph-name="asciitilde" unicode="~" horiz-adv-x="385" 
d="M134 353q-42 0 -59 -62h-32q11 42 36.5 66t59.5 24q33 0 74 -32.5t63 -32.5q21 0 36.5 16.5t22.5 44.5h32q-11 -41 -36.5 -65t-59.5 -24q-33 0 -74 32.5t-63 32.5z" />
    <glyph glyph-name="exclamdown" unicode="&#xa1;" horiz-adv-x="196" 
d="M162 589q12 0 19.5 -8t4.5 -22t-13.5 -22t-22.5 -8t-19.5 8t-4.5 22t13.5 22t22.5 8zM-9 -130l47 242l66 289h20l-46 -289l-47 -242h-40z" />
    <glyph glyph-name="cent" unicode="&#xa2;" horiz-adv-x="485" 
d="M458 346q0 50 -35 95.5t-104 52.5l-93 -479q80 0 131.5 47.5t66.5 105.5h30q-20 -76 -83.5 -127.5t-149.5 -51.5l-14 -74h-32l15 76q-92 13 -139 93.5t-25 190.5q22 115 92.5 178.5t173.5 67.5l14 70h32l-14 -71q75 -7 119.5 -59.5t44.5 -114.5h-30zM55 272
q-18 -91 20 -166t120 -89l92 478q-93 -4 -153.5 -66t-78.5 -157z" />
    <glyph glyph-name="sterling" unicode="&#xa3;" horiz-adv-x="507" 
d="M456 74l14 -22q-23 -20 -38 -30.5t-42.5 -21.5t-56.5 -11q-39 0 -89 31t-83 31q-69 0 -152 -51l-14 25q113 81 136 201q6 36 -2 82h-79l5 26h68q-1 3 -5.5 19.5t-5.5 21t-4.5 19.5t-4.5 22.5t-2.5 21t-1 23.5t1.5 22.5t3 24.5q14 71 82.5 129.5t176.5 58.5t153.5 -60.5
t27.5 -151.5h-32q17 86 -25.5 135t-128.5 49q-81 0 -145 -44.5t-79 -122.5q-3 -18 -3.5 -35.5t2.5 -36t6 -31t9 -33.5t8 -31h179l-5 -26h-168q9 -45 1 -82q-20 -105 -104 -175l1 -2q54 30 106 30q41 0 93 -31t79 -31q23 0 44.5 8.5t36 19t37.5 29.5z" />
    <glyph glyph-name="currency" unicode="&#xa4;" horiz-adv-x="352" 
d="M376 344q-16 -77 -67 -128l49 -64l-24 -21l-48 64q-62 -47 -132 -47q-71 0 -114 46l-72 -63l-16 20l73 64q-33 53 -18 129q14 76 67 129l-46 65l23 20l47 -64q63 46 132 46q70 0 113 -46l74 64l16 -20l-74 -65q31 -52 17 -129zM159 176q64 0 117 45t68 123t-20 123
t-99 45q-65 0 -118 -45t-68 -123q-15 -79 20 -123.5t100 -44.5z" />
    <glyph glyph-name="yen" unicode="&#xa5;" horiz-adv-x="519" 
d="M591 686l-311 -396h200l-5 -28h-204l-18 -90h204l-5 -28h-204l-28 -144h-32l28 144h-204l5 28h204l18 90h-204l5 28h200l-156 396h35l145 -370h2l289 370h36z" />
    <glyph glyph-name="brokenbar" unicode="&#xa6;" horiz-adv-x="16" 
d="M75 744h32l-70 -360h-32zM-22 245h32l-73 -373h-32z" />
    <glyph glyph-name="section" unicode="&#xa7;" horiz-adv-x="540" 
d="M509 226q-12 -60 -56 -96.5t-108 -41.5q56 -51 43 -112q-10 -53 -60.5 -87t-137.5 -34q-89 0 -124.5 44.5t-25.5 109.5h32q-18 -126 123 -126q143 0 161 93q4 20 -1 38t-13 30.5t-27.5 28.5t-32.5 24.5t-41 26t-41 25.5q-9 6 -31.5 20t-31 19.5t-26 18.5t-24 20
t-18.5 19.5t-15.5 22.5t-8 24t-4 29.5t3.5 32.5q12 60 56 96.5t108 41.5q-56 51 -43 112q10 53 60.5 87t137.5 34q89 0 124.5 -44.5t25.5 -109.5h-32q18 126 -123 126q-143 0 -161 -93q-4 -20 1 -38t13.5 -30.5t27.5 -28.5t32.5 -25t41 -25.5t40.5 -25.5q9 -6 31.5 -20
t31 -19.5t26 -18.5t24 -20t18.5 -19.5t15.5 -22.5t8 -24t4 -29.5t-3.5 -32.5zM317 111q66 6 107 30.5t53 84.5q1 18 3 30.5t-4 26t-10 22t-15 19.5t-19 18t-22.5 16.5t-25 16t-26.5 16.5t-28 18q-15 10 -47 30.5t-46 30.5q-66 -6 -107 -30.5t-53 -84.5q-1 -18 -3 -30.5
t4 -26t10 -22t15 -19.5t19 -18t22.5 -16.5t25 -16t26.5 -16.5t28 -18q15 -10 47 -30.5t46 -30.5z" />
    <glyph glyph-name="dieresis" unicode="&#xa8;" horiz-adv-x="497" 
d="M217 672q6 32 38 32q15 0 22 -9.5t5 -22.5q-8 -32 -40 -32q-15 0 -21.5 9.5t-3.5 22.5zM372 672q6 32 38 32q15 0 22 -9.5t5 -22.5q-8 -32 -40 -32q-15 0 -21.5 9.5t-3.5 22.5z" />
    <glyph glyph-name="copyright" unicode="&#xa9;" horiz-adv-x="775" 
d="M335 -17q-166 0 -244 105.5t-46 267.5q32 161 150.5 266.5t284.5 105.5q162 0 240.5 -106t47.5 -266q-31 -161 -151 -267t-282 -106zM340 11q149 0 258 97t138 248q30 149 -42.5 246.5t-219.5 97.5q-151 0 -259 -96.5t-138 -247.5q-29 -152 40.5 -248.5t222.5 -96.5z
M574 451q0 47 -32.5 78.5t-92.5 31.5q-78 0 -135.5 -57t-75.5 -148q-17 -90 18 -146.5t114 -56.5q67 0 113 36.5t63 95.5h30q-20 -74 -77 -117t-135 -43q-92 0 -135 64.5t-23 166.5t88.5 167.5t160.5 65.5q75 0 113.5 -38.5t36.5 -99.5h-31z" />
    <glyph glyph-name="guillemotleft" unicode="&#xab;" horiz-adv-x="330" 
d="M30 255l7 40l158 120l-8 -40l-129 -99l-1 -2l91 -99l-8 -40zM166 255l7 40l158 120l-8 -40l-129 -99l-1 -2l91 -99l-8 -40z" />
    <glyph glyph-name="logicalnot" unicode="&#xac;" horiz-adv-x="516" 
d="M425 355h-353l5 28h385l-45 -236h-32z" />
    <glyph glyph-name="registered" unicode="&#xae;" horiz-adv-x="505" 
d="M267 253q-99 0 -161 73.5t-42 175.5q20 104 91 166.5t175 62.5q99 0 161 -74t43 -175q-20 -105 -91.5 -167t-175.5 -62zM268 281q90 0 152.5 53.5t81.5 147.5q18 92 -35 156.5t-137 64.5q-89 0 -152.5 -54t-81.5 -147q-18 -92 35 -156.5t137 -64.5zM216 366h-32l51 259
h109q36 0 54.5 -19t12.5 -52q-10 -51 -72 -65v-1q25 -6 31 -34.5t1.5 -52t6.5 -32.5l-1 -3h-30q-9 6 -9.5 25.5t2.5 38t-5.5 33t-32.5 14.5h-64zM243 505h71q30 0 44.5 11t19.5 36q5 24 -5.5 34.5t-39.5 10.5h-72z" />
    <glyph glyph-name="macron" unicode="&#xaf;" horiz-adv-x="471" 
d="M200 679h228l-5 -26h-228z" />
    <glyph glyph-name="degree" unicode="&#xb0;" horiz-adv-x="365" 
d="M214 429q-71 0 -101 46.5t-19 103.5t59.5 103.5t119.5 46.5t101.5 -46.5t19.5 -103.5t-60 -103.5t-120 -46.5zM220 459q55 0 94 34t50 86q10 52 -16 86t-81 34t-94 -34t-49 -86q-11 -52 15 -86t81 -34z" />
    <glyph glyph-name="plusminus" unicode="&#xb1;" horiz-adv-x="519" 
d="M71 357h192l37 186h32l-37 -186h192l-5 -28h-192l-37 -190h-32l37 190h-192zM7 28h416l-5 -28h-416z" />
    <glyph glyph-name="acute" unicode="&#xb4;" horiz-adv-x="473" 
d="M366 721h41l-105 -124h-29z" />
    <glyph glyph-name="paragraph" unicode="&#xb6;" horiz-adv-x="447" 
d="M259 385h-40q-171 0 -139 165t203 165h189l-139 -715h-32l134 687h-85l-134 -687h-32z" />
    <glyph glyph-name="periodcentered" unicode="&#xb7;" horiz-adv-x="131" 
d="M70 282q-12 0 -19.5 8t-4.5 22t13.5 22t22.5 8t19.5 -8t4.5 -22t-13.5 -22t-22.5 -8z" />
    <glyph glyph-name="cedilla" unicode="&#xb8;" horiz-adv-x="488" 
d="M227 -3l-67 -50l-1 -2q46 9 68.5 -7.5t16.5 -49.5q-7 -33 -36.5 -51t-71.5 -18q-52 0 -89 26l13 17q34 -20 76 -20q69 0 78 44q4 20 -8 29.5t-39 9.5q-25 0 -49 -11l-9 15l86 68h32z" />
    <glyph glyph-name="guillemotright" unicode="&#xbb;" horiz-adv-x="330" 
d="M164 255l-158 -120l8 40l129 99l1 2l-91 99l8 40l110 -120zM300 255l-158 -120l8 40l129 99l1 2l-91 99l8 40l110 -120z" />
    <glyph glyph-name="questiondown" unicode="&#xbf;" horiz-adv-x="476" 
d="M315 588q12 0 19.5 -8t4.5 -22t-13.5 -22t-22.5 -8t-19.5 8t-4.5 22t13.5 22t22.5 8zM387 71h32q-18 -90 -83.5 -151.5t-165.5 -61.5q-84 0 -137.5 51.5t-39.5 123.5q5 28 19.5 51.5t36 41t40 29t43 25t34.5 20.5q50 35 71 76.5t39 134.5h32q-19 -97 -46.5 -147
t-91.5 -95q-11 -8 -40 -25t-46.5 -29t-35.5 -35.5t-23 -51.5q-10 -55 31 -98.5t119 -43.5q79 0 137.5 51.5t74.5 133.5z" />
    <glyph glyph-name="Agrave" unicode="&#xc0;" horiz-adv-x="605" 
d="M362 922l45 -124h-29l-57 124h41zM467 243h-336l-141 -243h-32l413 715h38l137 -715h-32zM147 271h315l-78 407h-2z" />
    <glyph glyph-name="Aacute" unicode="&#xc1;" horiz-adv-x="605" 
d="M484 922h41l-105 -124h-29zM467 243h-336l-141 -243h-32l413 715h38l137 -715h-32zM147 271h315l-78 407h-2z" />
    <glyph glyph-name="Acircumflex" unicode="&#xc2;" horiz-adv-x="605" 
d="M442 927l68 -104h-39l-50 81h-1l-82 -81h-40l107 104h37zM467 243h-336l-141 -243h-32l413 715h38l137 -715h-32zM147 271h315l-78 407h-2z" />
    <glyph glyph-name="Atilde" unicode="&#xc3;" horiz-adv-x="605" 
d="M356 907q30 0 66 -26.5t53 -26.5q32 0 47 53h30q-19 -79 -82 -79q-28 0 -64.5 26.5t-54.5 26.5q-32 0 -47 -53h-30q20 79 82 79zM467 243h-336l-141 -243h-32l413 715h38l137 -715h-32zM147 271h315l-78 407h-2z" />
    <glyph glyph-name="Adieresis" unicode="&#xc4;" horiz-adv-x="605" 
d="M303 873q6 32 38 32q15 0 22 -9.5t5 -22.5q-8 -32 -39 -32q-15 0 -22 9.5t-4 22.5zM458 873q6 32 38 32q15 0 22 -9.5t5 -22.5q-8 -32 -39 -32q-15 0 -22 9.5t-4 22.5zM467 243h-336l-141 -243h-32l413 715h38l137 -715h-32zM147 271h315l-78 407h-2z" />
    <glyph glyph-name="Aring" unicode="&#xc5;" horiz-adv-x="605" 
d="M395 781q-34 0 -53 22.5t-12 57.5t34.5 58.5t61.5 23.5q35 0 54 -23.5t12 -58.5t-34.5 -57.5t-62.5 -22.5zM400 805q26 0 43.5 15.5t22.5 40.5t-7 41t-38 16t-43.5 -15.5t-22.5 -41.5q-5 -25 7 -40.5t38 -15.5zM467 243h-336l-141 -243h-32l413 715h38l137 -715h-32z
M147 271h315l-78 407h-2z" />
    <glyph glyph-name="AE" unicode="&#xc6;" horiz-adv-x="913" 
d="M408 28h423l-5 -28h-455l47 243h-284l-141 -243h-32l413 715h581l-5 -28h-413l-57 -293h378l-6 -28h-378zM150 271h274l81 416h-115z" />
    <glyph glyph-name="Ccedilla" unicode="&#xc7;" horiz-adv-x="659" 
d="M449 726q106 0 167 -61.5t59 -160.5h-32q3 84 -51 139t-148 55q-137 0 -235 -95.5t-127 -245.5q-29 -151 31 -245.5t195 -94.5q103 0 184.5 67t111.5 162h32q-35 -112 -125 -183.5t-201 -73.5l-56 -42l-1 -2q46 9 68.5 -7.5t16.5 -49.5q-7 -33 -36.5 -51t-71.5 -18
q-52 0 -89 26l13 17q34 -20 76 -20q69 0 78 44q4 20 -8 29.5t-39 9.5q-25 0 -49 -11l-9 15l77 61q-136 8 -198.5 108t-31.5 259q32 164 141 266.5t258 102.5z" />
    <glyph glyph-name="Egrave" unicode="&#xc8;" horiz-adv-x="577" 
d="M363 922l45 -124h-29l-57 124h41zM121 394h403l-6 -28h-403l-66 -338h448l-5 -28h-480l139 715h470l-5 -28h-438z" />
    <glyph glyph-name="Eacute" unicode="&#xc9;" horiz-adv-x="577" 
d="M485 922h41l-105 -124h-29zM121 394h403l-6 -28h-403l-66 -338h448l-5 -28h-480l139 715h470l-5 -28h-438z" />
    <glyph glyph-name="Ecircumflex" unicode="&#xca;" horiz-adv-x="577" 
d="M443 927l68 -104h-39l-50 81h-1l-82 -81h-40l107 104h37zM121 394h403l-6 -28h-403l-66 -338h448l-5 -28h-480l139 715h470l-5 -28h-438z" />
    <glyph glyph-name="Edieresis" unicode="&#xcb;" horiz-adv-x="577" 
d="M304 873q6 32 38 32q15 0 22 -9.5t5 -22.5q-8 -32 -39 -32q-15 0 -22 9.5t-4 22.5zM459 873q6 32 38 32q15 0 22 -9.5t5 -22.5q-8 -32 -39 -32q-15 0 -22 9.5t-4 22.5zM121 394h403l-6 -28h-403l-66 -338h448l-5 -28h-480l139 715h470l-5 -28h-438z" />
    <glyph glyph-name="Igrave" unicode="&#xcc;" horiz-adv-x="180" 
d="M158 922l45 -124h-29l-57 124h41zM170 715h32l-139 -715h-32z" />
    <glyph glyph-name="Iacute" unicode="&#xcd;" horiz-adv-x="165" 
d="M265 922h41l-105 -124h-29zM155 715h32l-139 -715h-32z" />
    <glyph glyph-name="Icircumflex" unicode="&#xce;" horiz-adv-x="155" 
d="M220 927l68 -104h-39l-50 81h-1l-82 -81h-40l107 104h37zM152 715h32l-139 -715h-32z" />
    <glyph glyph-name="Idieresis" unicode="&#xcf;" horiz-adv-x="216" 
d="M111 873q6 32 38 32q15 0 22 -9.5t5 -22.5q-8 -32 -39 -32q-15 0 -22 9.5t-4 22.5zM266 873q6 32 38 32q15 0 22 -9.5t5 -22.5q-8 -32 -39 -32q-15 0 -22 9.5t-4 22.5zM180 715h32l-139 -715h-32z" />
    <glyph glyph-name="Eth" unicode="&#xd0;" horiz-adv-x="688" 
d="M449 715q75 0 128 -28.5t77 -77.5t30.5 -114.5t-10.5 -140.5q-31 -158 -126.5 -256t-244.5 -98h-249l69 356h-105l6 28h105l64 331h256zM307 28q129 0 217.5 87t117.5 239q30 155 -21 244t-178 89h-225l-59 -303h227l-6 -28h-227l-64 -328h218z" />
    <glyph glyph-name="Ntilde" unicode="&#xd1;" horiz-adv-x="657" 
d="M383 907q29 0 65 -26.5t54 -26.5q32 0 47 53h30q-19 -79 -82 -79q-28 0 -64.5 26.5t-54.5 26.5q-32 0 -47 -53h-30q20 79 82 79zM13 0l139 715h40l326 -670h2l130 670h32l-139 -715h-40l-326 668h-2l-130 -668h-32z" />
    <glyph glyph-name="Ograve" unicode="&#xd2;" horiz-adv-x="717" 
d="M419 922l45 -124h-29l-57 124h41zM306 -11q-147 0 -218 103.5t-39 265.5q31 162 142 265t258 103t218 -103t40 -265q-32 -162 -143 -265.5t-258 -103.5zM311 17q128 0 231 95t133 246q29 151 -37 245.5t-194 94.5t-231 -94.5t-132 -245.5q-30 -151 36 -246t194 -95z" />
    <glyph glyph-name="Oacute" unicode="&#xd3;" horiz-adv-x="717" 
d="M541 922h41l-105 -124h-29zM306 -11q-147 0 -218 103.5t-39 265.5q31 162 142 265t258 103t218 -103t40 -265q-32 -162 -143 -265.5t-258 -103.5zM311 17q128 0 231 95t133 246q29 151 -37 245.5t-194 94.5t-231 -94.5t-132 -245.5q-30 -151 36 -246t194 -95z" />
    <glyph glyph-name="Ocircumflex" unicode="&#xd4;" horiz-adv-x="717" 
d="M499 927l68 -104h-39l-50 81h-1l-82 -81h-40l107 104h37zM306 -11q-147 0 -218 103.5t-39 265.5q31 162 142 265t258 103t218 -103t40 -265q-32 -162 -143 -265.5t-258 -103.5zM311 17q128 0 231 95t133 246q29 151 -37 245.5t-194 94.5t-231 -94.5t-132 -245.5
q-30 -151 36 -246t194 -95z" />
    <glyph glyph-name="Otilde" unicode="&#xd5;" horiz-adv-x="717" 
d="M413 907q29 0 65 -26.5t54 -26.5q32 0 47 53h30q-19 -79 -82 -79q-28 0 -64.5 26.5t-54.5 26.5q-32 0 -47 -53h-30q20 79 82 79zM306 -11q-147 0 -218 103.5t-39 265.5q31 162 142 265t258 103t218 -103t40 -265q-32 -162 -143 -265.5t-258 -103.5zM311 17q128 0 231 95
t133 246q29 151 -37 245.5t-194 94.5t-231 -94.5t-132 -245.5q-30 -151 36 -246t194 -95z" />
    <glyph glyph-name="Odieresis" unicode="&#xd6;" horiz-adv-x="717" 
d="M360 873q6 32 38 32q15 0 22 -9.5t5 -22.5q-8 -32 -39 -32q-15 0 -22 9.5t-4 22.5zM515 873q6 32 38 32q15 0 22 -9.5t5 -22.5q-8 -32 -39 -32q-15 0 -22 9.5t-4 22.5zM306 -11q-147 0 -218 103.5t-39 265.5q31 162 142 265t258 103t218 -103t40 -265
q-32 -162 -143 -265.5t-258 -103.5zM311 17q128 0 231 95t133 246q29 151 -37 245.5t-194 94.5t-231 -94.5t-132 -245.5q-30 -151 36 -246t194 -95z" />
    <glyph glyph-name="multiply" unicode="&#xd7;" horiz-adv-x="505" 
d="M476 485l-191 -160l129 -160l-25 -21l-129 160l-191 -160l-17 21l191 160l-129 160l25 21l129 -160l191 160z" />
    <glyph glyph-name="Oslash" unicode="&#xd8;" horiz-adv-x="736" 
d="M790 691l-101 -88q54 -99 27 -245q-32 -162 -143 -265.5t-258 -103.5q-145 0 -216 101l-99 -85l-16 21l100 87q-54 100 -26 245q31 162 142 265t258 103q144 0 217 -100l97 85zM90 358q-25 -131 22 -221l535 466q-65 95 -194 95t-231.5 -94.5t-131.5 -245.5zM684 358
q25 131 -22 221l-537 -465q64 -97 195 -97q128 0 231 95t133 246z" />
    <glyph glyph-name="Ugrave" unicode="&#xd9;" horiz-adv-x="623" 
d="M371 922l45 -124h-29l-57 124h41zM565 248q-50 -259 -307 -259t-207 259l91 467h32l-91 -467q-22 -117 22.5 -174t157.5 -57q226 0 270 231l91 467h32z" />
    <glyph glyph-name="Uacute" unicode="&#xda;" horiz-adv-x="623" 
d="M493 922h41l-105 -124h-29zM565 248q-50 -259 -307 -259t-207 259l91 467h32l-91 -467q-22 -117 22.5 -174t157.5 -57q226 0 270 231l91 467h32z" />
    <glyph glyph-name="Ucircumflex" unicode="&#xdb;" horiz-adv-x="623" 
d="M451 927l68 -104h-39l-50 81h-1l-82 -81h-40l107 104h37zM565 248q-50 -259 -307 -259t-207 259l91 467h32l-91 -467q-22 -117 22.5 -174t157.5 -57q226 0 270 231l91 467h32z" />
    <glyph glyph-name="Udieresis" unicode="&#xdc;" horiz-adv-x="623" 
d="M312 873q6 32 38 32q15 0 22 -9.5t5 -22.5q-8 -32 -39 -32q-15 0 -22 9.5t-4 22.5zM467 873q6 32 38 32q15 0 22 -9.5t5 -22.5q-8 -32 -39 -32q-15 0 -22 9.5t-4 22.5zM565 248q-50 -259 -307 -259t-207 259l91 467h32l-91 -467q-22 -117 22.5 -174t157.5 -57
q226 0 270 231l91 467h32z" />
    <glyph glyph-name="Yacute" unicode="&#xdd;" horiz-adv-x="557" 
d="M455 922h41l-105 -124h-29zM81 715h37l166 -387h2l318 387h37l-347 -422l-57 -293h-32l57 293z" />
    <glyph glyph-name="Thorn" unicode="&#xde;" horiz-adv-x="571" 
d="M13 0l139 715h32l-21 -110h222q225 0 186 -203t-265 -203h-222l-39 -199h-32zM157 577l-68 -350h231q88 0 145 43t74 132t-23 132t-128 43h-231z" />
    <glyph glyph-name="germandbls" unicode="&#xdf;" horiz-adv-x="460" 
d="M129 504l-98 -504h-30l102 524q40 202 222 202q71 0 110.5 -42t23.5 -125q-24 -121 -133 -162v-2q137 -44 107 -201q-17 -89 -77.5 -147t-138.5 -58q-53 0 -87 14l5 26q111 -33 180 17t88 148q10 52 -2 91t-39.5 59.5t-58 29.5t-63.5 9h-28l6 26h25q67 0 119 38t67 112
q12 63 -16.5 102t-92.5 39q-84 0 -128 -50t-63 -146z" />
    <glyph glyph-name="agrave" unicode="&#xe0;" horiz-adv-x="492" 
d="M262 721l45 -124h-29l-57 124h41zM405 381q11 56 -21.5 85t-94.5 29q-76 0 -124 -33.5t-63 -92.5h-30q17 64 70.5 108t151.5 44q77 0 115.5 -37t22.5 -121l-51 -260q0 -2 -1 -5q-3 -21 -5.5 -40.5t14 -30t53.5 -2.5l-5 -26q-19 -4 -34 -4q-39 0 -52 20t-4 69h-2
q-75 -95 -206 -95q-74 0 -112.5 37t-26.5 99q14 71 66.5 107t156.5 51q8 1 38.5 5t41 6t33.5 9t33 16t21 25t15 37zM152 15q86 0 142.5 45.5t67.5 96.5l29 152q-14 -22 -53.5 -33t-109.5 -19q-84 -10 -134.5 -38t-61.5 -85q-11 -59 20 -89t100 -30z" />
    <glyph glyph-name="aacute" unicode="&#xe1;" horiz-adv-x="492" 
d="M384 721h41l-105 -124h-29zM405 381q11 56 -21.5 85t-94.5 29q-76 0 -124 -33.5t-63 -92.5h-30q17 64 70.5 108t151.5 44q77 0 115.5 -37t22.5 -121l-51 -260q0 -2 -1 -5q-3 -21 -5.5 -40.5t14 -30t53.5 -2.5l-5 -26q-19 -4 -34 -4q-39 0 -52 20t-4 69h-2
q-75 -95 -206 -95q-74 0 -112.5 37t-26.5 99q14 71 66.5 107t156.5 51q8 1 38.5 5t41 6t33.5 9t33 16t21 25t15 37zM152 15q86 0 142.5 45.5t67.5 96.5l29 152q-14 -22 -53.5 -33t-109.5 -19q-84 -10 -134.5 -38t-61.5 -85q-11 -59 20 -89t100 -30z" />
    <glyph glyph-name="acircumflex" unicode="&#xe2;" horiz-adv-x="492" 
d="M342 726l68 -104h-39l-50 81h-1l-82 -81h-40l107 104h37zM405 381q11 56 -21.5 85t-94.5 29q-76 0 -124 -33.5t-63 -92.5h-30q17 64 70.5 108t151.5 44q77 0 115.5 -37t22.5 -121l-51 -260q0 -2 -1 -5q-3 -21 -5.5 -40.5t14 -30t53.5 -2.5l-5 -26q-19 -4 -34 -4
q-39 0 -52 20t-4 69h-2q-75 -95 -206 -95q-74 0 -112.5 37t-26.5 99q14 71 66.5 107t156.5 51q8 1 38.5 5t41 6t33.5 9t33 16t21 25t15 37zM152 15q86 0 142.5 45.5t67.5 96.5l29 152q-14 -22 -53.5 -33t-109.5 -19q-84 -10 -134.5 -38t-61.5 -85q-11 -59 20 -89t100 -30z
" />
    <glyph glyph-name="atilde" unicode="&#xe3;" horiz-adv-x="492" 
d="M256 706q30 0 66 -26.5t53 -26.5q32 0 47 53h30q-19 -79 -82 -79q-28 0 -64.5 26.5t-54.5 26.5q-32 0 -47 -53h-30q20 79 82 79zM405 381q11 56 -21.5 85t-94.5 29q-76 0 -124 -33.5t-63 -92.5h-30q17 64 70.5 108t151.5 44q77 0 115.5 -37t22.5 -121l-51 -260
q0 -2 -1 -5q-3 -21 -5.5 -40.5t14 -30t53.5 -2.5l-5 -26q-19 -4 -34 -4q-39 0 -52 20t-4 69h-2q-75 -95 -206 -95q-74 0 -112.5 37t-26.5 99q14 71 66.5 107t156.5 51q8 1 38.5 5t41 6t33.5 9t33 16t21 25t15 37zM152 15q86 0 142.5 45.5t67.5 96.5l29 152
q-14 -22 -53.5 -33t-109.5 -19q-84 -10 -134.5 -38t-61.5 -85q-11 -59 20 -89t100 -30z" />
    <glyph glyph-name="adieresis" unicode="&#xe4;" horiz-adv-x="492" 
d="M203 672q6 32 38 32q15 0 22 -9.5t5 -22.5q-8 -32 -40 -32q-15 0 -21.5 9.5t-3.5 22.5zM358 672q6 32 38 32q15 0 22 -9.5t5 -22.5q-8 -32 -40 -32q-15 0 -21.5 9.5t-3.5 22.5zM405 381q11 56 -21.5 85t-94.5 29q-76 0 -124 -33.5t-63 -92.5h-30q17 64 70.5 108t151.5 44
q77 0 115.5 -37t22.5 -121l-51 -260q0 -2 -1 -5q-3 -21 -5.5 -40.5t14 -30t53.5 -2.5l-5 -26q-19 -4 -34 -4q-39 0 -52 20t-4 69h-2q-75 -95 -206 -95q-74 0 -112.5 37t-26.5 99q14 71 66.5 107t156.5 51q8 1 38.5 5t41 6t33.5 9t33 16t21 25t15 37zM152 15q86 0 142.5 45.5
t67.5 96.5l29 152q-14 -22 -53.5 -33t-109.5 -19q-84 -10 -134.5 -38t-61.5 -85q-11 -59 20 -89t100 -30z" />
    <glyph glyph-name="aring" unicode="&#xe5;" horiz-adv-x="492" 
d="M295 580q-34 0 -53 22.5t-12 57.5t34.5 58.5t61.5 23.5q35 0 54 -23.5t12 -58.5t-34.5 -57.5t-62.5 -22.5zM299 604q27 0 44.5 15.5t22.5 40.5t-7 41t-38 16t-43.5 -15.5t-22.5 -41.5t6.5 -41t37.5 -15zM405 381q11 56 -21.5 85t-94.5 29q-76 0 -124 -33.5t-63 -92.5h-30
q17 64 70.5 108t151.5 44q77 0 115.5 -37t22.5 -121l-51 -260q0 -2 -1 -5q-3 -21 -5.5 -40.5t14 -30t53.5 -2.5l-5 -26q-19 -4 -34 -4q-39 0 -52 20t-4 69h-2q-75 -95 -206 -95q-74 0 -112.5 37t-26.5 99q14 71 66.5 107t156.5 51q8 1 38.5 5t41 6t33.5 9t33 16t21 25t15 37
zM152 15q86 0 142.5 45.5t67.5 96.5l29 152q-14 -22 -53.5 -33t-109.5 -19q-84 -10 -134.5 -38t-61.5 -85q-11 -59 20 -89t100 -30z" />
    <glyph glyph-name="ae" unicode="&#xe6;" horiz-adv-x="852" 
d="M413 260l-2 -6q-20 -104 20 -171.5t137 -67.5q77 0 130.5 43.5t75.5 95.5h30q-32 -75 -93.5 -120t-147.5 -45q-72 0 -119 38t-62 103q-82 -141 -243 -141q-74 0 -112 40t-25 108q13 62 63.5 95t157.5 51q12 2 39 6t40.5 6.5t34 9t32 15t22 24.5t14.5 37q11 56 -23 85
t-103 29q-144 0 -177 -126h-30q41 152 212 152q71 0 111.5 -30.5t39.5 -93.5q80 124 230 124q108 0 149 -71.5t18 -189.5h-419zM660 495q-91 0 -157 -61t-85 -148h389q10 54 0 100t-48 77.5t-99 31.5zM152 15q74 0 137 47t73 95l29 152q-9 -14 -32.5 -24t-45.5 -14t-65 -11
q-13 -2 -20 -3q-85 -14 -135 -41.5t-61 -81.5q-12 -59 19 -89t101 -30z" />
    <glyph glyph-name="ccedilla" unicode="&#xe7;" horiz-adv-x="486" 
d="M299 495q-98 0 -161.5 -62t-82.5 -161q-20 -100 27 -178.5t144 -78.5q80 0 131.5 47.5t66.5 105.5h30q-20 -76 -83.5 -127.5t-149.5 -51.5h-3l-57 -42l-1 -2q46 9 68.5 -7.5t16.5 -49.5q-7 -33 -36.5 -51t-71.5 -18q-52 0 -89 26l13 17q34 -20 76 -20q69 0 78 44
q4 20 -8 29.5t-39 9.5q-25 0 -49 -11l-9 15l77 63q-91 14 -136.5 93.5t-24.5 189.5q23 118 97 182t181 64q84 0 134 -54t50 -121h-30q0 54 -40 101.5t-119 47.5z" />
    <glyph glyph-name="egrave" unicode="&#xe8;" horiz-adv-x="499" 
d="M327 597h-29l-57 124h41zM211 15q77 0 130.5 43.5t75.5 95.5h30q-32 -75 -93.5 -120t-147.5 -45q-105 0 -154.5 77.5t-25.5 195.5q25 125 100.5 192t181.5 67q108 0 149 -71.5t18 -189.5h-419l-2 -6q-20 -104 20 -171.5t137 -67.5zM303 495q-91 0 -157 -61t-85 -148h389
q10 54 0 100t-48 77.5t-99 31.5z" />
    <glyph glyph-name="eacute" unicode="&#xe9;" horiz-adv-x="499" 
d="M445 721l-105 -124h-29l93 124h41zM211 15q77 0 130.5 43.5t75.5 95.5h30q-32 -75 -93.5 -120t-147.5 -45q-105 0 -154.5 77.5t-25.5 195.5q25 125 100.5 192t181.5 67q108 0 149 -71.5t18 -189.5h-419l-2 -6q-20 -104 20 -171.5t137 -67.5zM303 495q-91 0 -157 -61
t-85 -148h389q10 54 0 100t-48 77.5t-99 31.5z" />
    <glyph glyph-name="ecircumflex" unicode="&#xea;" horiz-adv-x="499" 
d="M340 703l-82 -81h-40l107 104h37l68 -104h-39l-50 81h-1zM211 15q77 0 130.5 43.5t75.5 95.5h30q-32 -75 -93.5 -120t-147.5 -45q-105 0 -154.5 77.5t-25.5 195.5q25 125 100.5 192t181.5 67q108 0 149 -71.5t18 -189.5h-419l-2 -6q-20 -104 20 -171.5t137 -67.5z
M303 495q-91 0 -157 -61t-85 -148h389q10 54 0 100t-48 77.5t-99 31.5z" />
    <glyph glyph-name="edieresis" unicode="&#xeb;" horiz-adv-x="499" 
d="M248 640q-15 0 -21.5 9.5t-3.5 22.5q6 32 38 32q15 0 22 -9.5t5 -22.5q-8 -32 -40 -32zM403 640q-15 0 -21.5 9.5t-3.5 22.5q6 32 38 32q15 0 22 -9.5t5 -22.5q-8 -32 -40 -32zM211 15q77 0 130.5 43.5t75.5 95.5h30q-32 -75 -93.5 -120t-147.5 -45q-105 0 -154.5 77.5
t-25.5 195.5q25 125 100.5 192t181.5 67q108 0 149 -71.5t18 -189.5h-419l-2 -6q-20 -104 20 -171.5t137 -67.5zM303 495q-91 0 -157 -61t-85 -148h389q10 54 0 100t-48 77.5t-99 31.5z" />
    <glyph glyph-name="igrave" unicode="&#xec;" horiz-adv-x="149" 
d="M103 721l45 -124h-29l-57 124h41zM116 514h30l-100 -514h-30z" />
    <glyph glyph-name="iacute" unicode="&#xed;" horiz-adv-x="162" 
d="M211 721h41l-105 -124h-29zM102 514h30l-100 -514h-30z" />
    <glyph glyph-name="icircumflex" unicode="&#xee;" horiz-adv-x="165" 
d="M187 726l68 -104h-39l-50 81h-1l-82 -81h-40l107 104h37zM120 514h30l-100 -514h-30z" />
    <glyph glyph-name="idieresis" unicode="&#xef;" horiz-adv-x="216" 
d="M72 672q6 32 38 32q15 0 22 -9.5t5 -22.5q-8 -32 -40 -32q-15 0 -21.5 9.5t-3.5 22.5zM227 672q6 32 38 32q15 0 22 -9.5t5 -22.5q-8 -32 -40 -32q-15 0 -21.5 9.5t-3.5 22.5zM144 514h30l-100 -514h-30z" />
    <glyph glyph-name="eth" unicode="&#xf0;" horiz-adv-x="525" 
d="M419 630q118 -154 79 -360q-25 -124 -102 -202t-187 -78q-106 0 -156 77t-28 191q22 115 100 191t182 76q59 0 104 -28.5t64 -78.5q-3 92 -88 204l-170 -43l-2 27l153 39q-39 45 -70 70h43q33 -32 59 -62l169 43l2 -27zM214 16q96 0 163.5 70.5t88.5 178.5
q19 102 -25 168t-139 66q-92 0 -159.5 -69t-87.5 -172q-19 -102 23.5 -172t135.5 -70z" />
    <glyph glyph-name="ntilde" unicode="&#xf1;" horiz-adv-x="479" 
d="M262 680q-32 0 -47 -53h-30q20 79 82 79q29 0 65 -26.5t54 -26.5q32 0 47 53h30q-19 -79 -82 -79q-28 0 -64.5 26.5t-54.5 26.5zM327 521q64 0 101.5 -40.5t23.5 -112.5l-72 -368h-30l68 348q27 147 -110 147q-79 0 -138.5 -46.5t-69.5 -94.5l-69 -354h-30l100 514h30
l-18 -91h2q26 29 47.5 47.5t65.5 34.5t99 16z" />
    <glyph glyph-name="ograve" unicode="&#xf2;" horiz-adv-x="520" 
d="M282 721l45 -124h-29l-57 124h41zM208 -11q-108 0 -157 73t-26 193t100.5 193t185.5 73q109 0 158 -73t26 -193t-100.5 -193t-186.5 -73zM213 15q96 0 163.5 66.5t88.5 173.5t-21 173.5t-138 66.5t-163 -66.5t-88 -173.5t20.5 -173.5t137.5 -66.5z" />
    <glyph glyph-name="oacute" unicode="&#xf3;" horiz-adv-x="520" 
d="M404 721h41l-105 -124h-29zM208 -11q-108 0 -157 73t-26 193t100.5 193t185.5 73q109 0 158 -73t26 -193t-100.5 -193t-186.5 -73zM213 15q96 0 163.5 66.5t88.5 173.5t-21 173.5t-138 66.5t-163 -66.5t-88 -173.5t20.5 -173.5t137.5 -66.5z" />
    <glyph glyph-name="ocircumflex" unicode="&#xf4;" horiz-adv-x="520" 
d="M362 726l68 -104h-39l-50 81h-1l-82 -81h-40l107 104h37zM208 -11q-108 0 -157 73t-26 193t100.5 193t185.5 73q109 0 158 -73t26 -193t-100.5 -193t-186.5 -73zM213 15q96 0 163.5 66.5t88.5 173.5t-21 173.5t-138 66.5t-163 -66.5t-88 -173.5t20.5 -173.5t137.5 -66.5z
" />
    <glyph glyph-name="otilde" unicode="&#xf5;" horiz-adv-x="520" 
d="M276 706q30 0 66 -26.5t53 -26.5q32 0 47 53h30q-19 -79 -82 -79q-28 0 -64.5 26.5t-54.5 26.5q-32 0 -47 -53h-30q20 79 82 79zM208 -11q-108 0 -157 73t-26 193t100.5 193t185.5 73q109 0 158 -73t26 -193t-100.5 -193t-186.5 -73zM213 15q96 0 163.5 66.5t88.5 173.5
t-21 173.5t-138 66.5t-163 -66.5t-88 -173.5t20.5 -173.5t137.5 -66.5z" />
    <glyph glyph-name="odieresis" unicode="&#xf6;" horiz-adv-x="520" 
d="M223 672q6 32 38 32q15 0 22 -9.5t5 -22.5q-8 -32 -40 -32q-15 0 -21.5 9.5t-3.5 22.5zM378 672q6 32 38 32q15 0 22 -9.5t5 -22.5q-8 -32 -40 -32q-15 0 -21.5 9.5t-3.5 22.5zM208 -11q-108 0 -157 73t-26 193t100.5 193t185.5 73q109 0 158 -73t26 -193t-100.5 -193
t-186.5 -73zM213 15q96 0 163.5 66.5t88.5 173.5t-21 173.5t-138 66.5t-163 -66.5t-88 -173.5t20.5 -173.5t137.5 -66.5z" />
    <glyph glyph-name="divide" unicode="&#xf7;" horiz-adv-x="518" 
d="M296 454q-34 0 -28 31t40 31t28 -31t-40 -31zM61 313l5 28h416l-5 -28h-416zM235 138q-34 0 -28 31t40 31t28 -31t-40 -31z" />
    <glyph glyph-name="oslash" unicode="&#xf8;" horiz-adv-x="550" 
d="M572 499l-88 -77q30 -68 11 -167q-23 -120 -100.5 -193t-186.5 -73q-97 0 -148 60l-67 -59l-16 21l68 60q-42 72 -20 184q23 120 100.5 193t185.5 73q110 0 160 -75l84 74zM55 255q-20 -99 14 -163l377 332q-41 71 -140 71q-96 0 -163 -66.5t-88 -173.5zM465 255
q16 82 -6 144l-375 -329q42 -55 129 -55q96 0 163.5 66.5t88.5 173.5z" />
    <glyph glyph-name="ugrave" unicode="&#xf9;" horiz-adv-x="481" 
d="M303 597h-29l-57 124h41zM446 514h30l-100 -514h-30l18 91h-2q-26 -29 -47.5 -47.5t-65.5 -34.5t-99 -16q-64 0 -101.5 40.5t-23.5 112.5l72 368h30l-68 -348q-27 -147 110 -147q79 0 138.5 46.5t69.5 94.5z" />
    <glyph glyph-name="uacute" unicode="&#xfa;" horiz-adv-x="481" 
d="M421 721l-105 -124h-29l93 124h41zM446 514h30l-100 -514h-30l18 91h-2q-26 -29 -47.5 -47.5t-65.5 -34.5t-99 -16q-64 0 -101.5 40.5t-23.5 112.5l72 368h30l-68 -348q-27 -147 110 -147q79 0 138.5 46.5t69.5 94.5z" />
    <glyph glyph-name="ucircumflex" unicode="&#xfb;" horiz-adv-x="481" 
d="M316 703l-82 -81h-40l107 104h37l68 -104h-39l-50 81h-1zM446 514h30l-100 -514h-30l18 91h-2q-26 -29 -47.5 -47.5t-65.5 -34.5t-99 -16q-64 0 -101.5 40.5t-23.5 112.5l72 368h30l-68 -348q-27 -147 110 -147q79 0 138.5 46.5t69.5 94.5z" />
    <glyph glyph-name="udieresis" unicode="&#xfc;" horiz-adv-x="481" 
d="M224 640q-15 0 -21.5 9.5t-3.5 22.5q6 32 38 32q15 0 22 -9.5t5 -22.5q-8 -32 -40 -32zM379 640q-15 0 -21.5 9.5t-3.5 22.5q6 32 38 32q15 0 22 -9.5t5 -22.5q-8 -32 -40 -32zM446 514h30l-100 -514h-30l18 91h-2q-26 -29 -47.5 -47.5t-65.5 -34.5t-99 -16
q-64 0 -101.5 40.5t-23.5 112.5l72 368h30l-68 -348q-27 -147 110 -147q79 0 138.5 46.5t69.5 94.5z" />
    <glyph glyph-name="yacute" unicode="&#xfd;" horiz-adv-x="443" 
d="M360 721h41l-105 -124h-29zM481 514l-305 -531q-49 -85 -80 -118.5t-78 -33.5q-31 0 -58 10l5 26h2q73 -16 102 9q44 37 85 126l-103 512h32l94 -471h1l271 471h32z" />
    <glyph glyph-name="thorn" unicode="&#xfe;" horiz-adv-x="522" 
d="M327 521q95 0 143.5 -72t25.5 -194q-24 -122 -100.5 -194t-171.5 -72q-70 0 -112 39t-54 100h-2l-57 -294h-30l171 881h30l-65 -336h2q36 64 92.5 103t127.5 39zM222 15q88 0 155 64.5t89 175.5q21 111 -21 175.5t-130 64.5q-78 0 -145.5 -65.5t-88.5 -174.5
q-22 -108 20.5 -174t120.5 -66z" />
    <glyph glyph-name="ydieresis" unicode="&#xff;" horiz-adv-x="443" 
d="M179 672q6 32 38 32q15 0 22 -9.5t5 -22.5q-8 -32 -40 -32q-15 0 -21.5 9.5t-3.5 22.5zM334 672q6 32 38 32q15 0 22 -9.5t5 -22.5q-8 -32 -40 -32q-15 0 -21.5 9.5t-3.5 22.5zM481 514l-305 -531q-49 -85 -80 -118.5t-78 -33.5q-31 0 -58 10l5 26h2q73 -16 102 9
q44 37 85 126l-103 512h32l94 -471h1l271 471h32z" />
    <glyph glyph-name="Amacron" unicode="&#x100;" horiz-adv-x="605" 
d="M300 880h228l-5 -26h-228zM467 243h-336l-141 -243h-32l413 715h38l137 -715h-32zM147 271h315l-78 407h-2z" />
    <glyph glyph-name="amacron" unicode="&#x101;" horiz-adv-x="492" 
d="M200 679h228l-5 -26h-228zM405 381q11 56 -21.5 85t-94.5 29q-76 0 -124 -33.5t-63 -92.5h-30q17 64 70.5 108t151.5 44q77 0 115.5 -37t22.5 -121l-51 -260q0 -2 -1 -5q-3 -21 -5.5 -40.5t14 -30t53.5 -2.5l-5 -26q-19 -4 -34 -4q-39 0 -52 20t-4 69h-2
q-75 -95 -206 -95q-74 0 -112.5 37t-26.5 99q14 71 66.5 107t156.5 51q8 1 38.5 5t41 6t33.5 9t33 16t21 25t15 37zM152 15q86 0 142.5 45.5t67.5 96.5l29 152q-14 -22 -53.5 -33t-109.5 -19q-84 -10 -134.5 -38t-61.5 -85q-11 -59 20 -89t100 -30z" />
    <glyph glyph-name="Abreve" unicode="&#x102;" horiz-adv-x="605" 
d="M403 819q-50 0 -75.5 31.5t-19.5 75.5h28q-1 -33 17 -57t55 -24t64.5 24t40.5 57h28q-12 -44 -50 -75.5t-88 -31.5zM467 243h-336l-141 -243h-32l413 715h38l137 -715h-32zM147 271h315l-78 407h-2z" />
    <glyph glyph-name="abreve" unicode="&#x103;" horiz-adv-x="492" 
d="M303 618q-50 0 -75.5 31.5t-19.5 75.5h28q-1 -33 17 -57t55 -24t64.5 24t40.5 57h28q-12 -44 -50 -75.5t-88 -31.5zM405 381q11 56 -21.5 85t-94.5 29q-76 0 -124 -33.5t-63 -92.5h-30q17 64 70.5 108t151.5 44q77 0 115.5 -37t22.5 -121l-51 -260q0 -2 -1 -5
q-3 -21 -5.5 -40.5t14 -30t53.5 -2.5l-5 -26q-19 -4 -34 -4q-39 0 -52 20t-4 69h-2q-75 -95 -206 -95q-74 0 -112.5 37t-26.5 99q14 71 66.5 107t156.5 51q8 1 38.5 5t41 6t33.5 9t33 16t21 25t15 37zM152 15q86 0 142.5 45.5t67.5 96.5l29 152q-14 -22 -53.5 -33
t-109.5 -19q-84 -10 -134.5 -38t-61.5 -85q-11 -59 20 -89t100 -30z" />
    <glyph glyph-name="Aogonek" unicode="&#x104;" horiz-adv-x="605" 
d="M530 -137h3l-4 -24q-24 -11 -56 -11q-45 0 -64 20.5t-13 54.5q6 30 36 55.5t69 42.5h13l-47 242h-336l-141 -243h-32l413 715h38l137 -715h-17q-91 -46 -102 -96q-4 -23 8.5 -37t43.5 -14q28 0 51 10zM147 271h315l-78 407h-2z" />
    <glyph glyph-name="aogonek" unicode="&#x105;" horiz-adv-x="492" 
d="M434 -137h3l-4 -24q-24 -11 -56 -11q-45 0 -64 20.5t-13 54.5q11 54 93 92q-33 3 -43.5 23.5t-2.5 65.5h-2q-75 -95 -206 -95q-74 0 -112.5 37t-26.5 99q14 71 66.5 107t156.5 51q8 1 38.5 5t41 6t33.5 9t33 16t21 25t15 37q11 56 -21.5 85t-94.5 29q-76 0 -124 -33.5
t-63 -92.5h-30q17 64 70.5 108t151.5 44q77 0 115.5 -37t22.5 -121l-51 -260q0 -2 -1 -5q-3 -21 -5.5 -40.5t14 -30t53.5 -2.5l-5 -26q-2 -1 -5 -1.5t-5 -0.5q-87 -45 -96 -93q-4 -23 8.5 -37t43.5 -14q28 0 51 10zM362 157l29 152q-14 -22 -53.5 -33t-109.5 -19
q-84 -10 -134.5 -38t-61.5 -85q-11 -59 20 -89t100 -30q86 0 142.5 45.5t67.5 96.5z" />
    <glyph glyph-name="Cacute" unicode="&#x106;" horiz-adv-x="659" 
d="M542 922h41l-105 -124h-29zM643 504q3 84 -51 139t-148 55q-137 0 -235 -95.5t-127 -245.5q-29 -151 31 -245.5t195 -94.5q103 0 184.5 67t111.5 162h32q-36 -114 -128 -185.5t-205 -71.5q-147 0 -216 101t-37 267q32 164 141 266.5t258 102.5q106 0 167 -61.5t59 -160.5
h-32z" />
    <glyph glyph-name="cacute" unicode="&#x107;" horiz-adv-x="486" 
d="M405 721h41l-105 -124h-29zM458 346q0 54 -40 101.5t-119 47.5q-98 0 -161.5 -62t-82.5 -161q-20 -100 27 -178.5t144 -78.5q80 0 131.5 47.5t66.5 105.5h30q-20 -76 -83.5 -127.5t-149.5 -51.5q-106 0 -162 83t-33 203q23 118 97 182t181 64q84 0 134 -54t50 -121h-30z
" />
    <glyph glyph-name="Cdotaccent" unicode="&#x10a;" horiz-adv-x="659" 
d="M439 873q6 32 38 32q15 0 22 -9.5t5 -22.5q-8 -32 -39 -32q-15 0 -22 9.5t-4 22.5zM643 504q3 84 -51 139t-148 55q-137 0 -235 -95.5t-127 -245.5q-29 -151 31 -245.5t195 -94.5q103 0 184.5 67t111.5 162h32q-36 -114 -128 -185.5t-205 -71.5q-147 0 -216 101t-37 267
q32 164 141 266.5t258 102.5q106 0 167 -61.5t59 -160.5h-32z" />
    <glyph glyph-name="cdotaccent" unicode="&#x10b;" horiz-adv-x="486" 
d="M302 672q6 32 38 32q15 0 22 -9.5t5 -22.5q-8 -32 -40 -32q-15 0 -21.5 9.5t-3.5 22.5zM458 346q0 54 -40 101.5t-119 47.5q-98 0 -161.5 -62t-82.5 -161q-20 -100 27 -178.5t144 -78.5q80 0 131.5 47.5t66.5 105.5h30q-20 -76 -83.5 -127.5t-149.5 -51.5q-106 0 -162 83
t-33 203q23 118 97 182t181 64q84 0 134 -54t50 -121h-30z" />
    <glyph glyph-name="Ccaron" unicode="&#x10c;" horiz-adv-x="659" 
d="M482 822h-37l-67 104h40l50 -81h1l82 81h39zM643 504q3 84 -51 139t-148 55q-137 0 -235 -95.5t-127 -245.5q-29 -151 31 -245.5t195 -94.5q103 0 184.5 67t111.5 162h32q-36 -114 -128 -185.5t-205 -71.5q-147 0 -216 101t-37 267q32 164 141 266.5t258 102.5
q106 0 167 -61.5t59 -160.5h-32z" />
    <glyph glyph-name="ccaron" unicode="&#x10d;" horiz-adv-x="486" 
d="M345 621h-37l-67 104h40l50 -81h1l82 81h39zM458 346q0 54 -40 101.5t-119 47.5q-98 0 -161.5 -62t-82.5 -161q-20 -100 27 -178.5t144 -78.5q80 0 131.5 47.5t66.5 105.5h30q-20 -76 -83.5 -127.5t-149.5 -51.5q-106 0 -162 83t-33 203q23 118 97 182t181 64
q84 0 134 -54t50 -121h-30z" />
    <glyph glyph-name="Dcaron" unicode="&#x10e;" horiz-adv-x="646" 
d="M381 822h-37l-67 104h40l50 -81h1l82 81h39zM12 0l139 715h256q75 0 128 -28.5t77 -77.5t30.5 -114.5t-10.5 -140.5q-31 -158 -126.5 -256t-244.5 -98h-249zM176 687l-129 -659h218q129 0 217.5 87t117.5 239q30 155 -21 244t-178 89h-225z" />
    <glyph glyph-name="dcaron" unicode="&#x10f;" horiz-adv-x="574" 
d="M654 719q31 0 20 -54q-17 -86 -75 -102l6 28q29 13 41 68q-14 -5 -22.5 3t-4.5 26q6 31 35 31zM463 379l65 336h30l-139 -715h-30l25 128h-2q-35 -61 -92 -100t-128 -39q-95 0 -143.5 72t-24.5 194q23 122 99.5 194t171.5 72q71 0 112.5 -39t53.5 -103h2zM204 15
q78 0 145.5 65.5t89.5 174.5q21 108 -21.5 174t-120.5 66q-88 0 -155 -64.5t-88 -175.5q-22 -111 20 -175.5t130 -64.5z" />
    <glyph glyph-name="Dcroat" unicode="&#x110;" horiz-adv-x="688" 
d="M449 715q75 0 128 -28.5t77 -77.5t30.5 -114.5t-10.5 -140.5q-31 -158 -126.5 -256t-244.5 -98h-249l69 356h-105l6 28h105l64 331h256zM307 28q129 0 217.5 87t117.5 239q30 155 -21 244t-178 89h-225l-59 -303h227l-6 -28h-227l-64 -328h218z" />
    <glyph glyph-name="dcroat" unicode="&#x111;" horiz-adv-x="529" 
d="M610 633l-5 -26h-68l-118 -607h-30l25 128h-2q-35 -61 -92 -100t-128 -39q-95 0 -143.5 72t-24.5 194q23 122 99.5 194t171.5 72q71 0 112.5 -39t53.5 -103h2l44 228h-136l5 26h136l16 82h30l-16 -82h68zM204 15q78 0 145.5 65.5t89.5 174.5q21 108 -21.5 174t-120.5 66
q-88 0 -155 -64.5t-88 -175.5q-22 -111 20 -175.5t130 -64.5z" />
    <glyph glyph-name="Emacron" unicode="&#x112;" horiz-adv-x="577" 
d="M301 880h228l-5 -26h-228zM121 394h403l-6 -28h-403l-66 -338h448l-5 -28h-480l139 715h470l-5 -28h-438z" />
    <glyph glyph-name="emacron" unicode="&#x113;" horiz-adv-x="499" 
d="M448 679l-5 -26h-228l5 26h228zM211 15q77 0 130.5 43.5t75.5 95.5h30q-32 -75 -93.5 -120t-147.5 -45q-105 0 -154.5 77.5t-25.5 195.5q25 125 100.5 192t181.5 67q108 0 149 -71.5t18 -189.5h-419l-2 -6q-20 -104 20 -171.5t137 -67.5zM303 495q-91 0 -157 -61
t-85 -148h389q10 54 0 100t-48 77.5t-99 31.5z" />
    <glyph glyph-name="Edotaccent" unicode="&#x116;" horiz-adv-x="577" 
d="M382 873q6 32 38 32q15 0 22 -9.5t5 -22.5q-8 -32 -39 -32q-15 0 -22 9.5t-4 22.5zM121 394h403l-6 -28h-403l-66 -338h448l-5 -28h-480l139 715h470l-5 -28h-438z" />
    <glyph glyph-name="edotaccent" unicode="&#x117;" horiz-adv-x="499" 
d="M326 640q-15 0 -21.5 9.5t-3.5 22.5q6 32 38 32q15 0 22 -9.5t5 -22.5q-8 -32 -40 -32zM211 15q77 0 130.5 43.5t75.5 95.5h30q-32 -75 -93.5 -120t-147.5 -45q-105 0 -154.5 77.5t-25.5 195.5q25 125 100.5 192t181.5 67q108 0 149 -71.5t18 -189.5h-419l-2 -6
q-20 -104 20 -171.5t137 -67.5zM303 495q-91 0 -157 -61t-85 -148h389q10 54 0 100t-48 77.5t-99 31.5z" />
    <glyph glyph-name="Eogonek" unicode="&#x118;" horiz-adv-x="577" 
d="M492 -138h3l-4 -24q-26 -11 -57 -11q-45 0 -63.5 20.5t-12.5 54.5q11 58 105 98h-451l139 715h470l-5 -28h-438l-57 -293h403l-6 -28h-403l-66 -338h448l-5 -28h1q-95 -47 -104 -97q-4 -23 8.5 -37t43.5 -14q28 0 51 10z" />
    <glyph glyph-name="eogonek" unicode="&#x119;" horiz-adv-x="498" 
d="M26 262q25 125 100.5 192t181.5 67q108 0 149 -71.5t18 -189.5h-419l-2 -6q-20 -104 20 -171.5t137 -67.5q77 0 130.5 43.5t75.5 95.5h30q-54 -126 -172 -156q-90 -46 -99 -95q-4 -23 8.5 -37t43.5 -14q28 0 51 10h3l-4 -24q-26 -11 -57 -11q-45 0 -63.5 20.5t-12.5 54.5
q10 49 84 88l-23 -1q-105 0 -154.5 77.5t-25.5 195.5zM61 286h389q10 54 0 100t-48 77.5t-99 31.5q-91 0 -157 -61t-85 -148z" />
    <glyph glyph-name="Ecaron" unicode="&#x11a;" horiz-adv-x="577" 
d="M425 822h-37l-67 104h40l50 -81h1l82 81h39zM121 394h403l-6 -28h-403l-66 -338h448l-5 -28h-480l139 715h470l-5 -28h-438z" />
    <glyph glyph-name="ecaron" unicode="&#x11b;" horiz-adv-x="499" 
d="M344 621h-37l-67 104h40l50 -81h1l82 81h39zM211 15q77 0 130.5 43.5t75.5 95.5h30q-32 -75 -93.5 -120t-147.5 -45q-105 0 -154.5 77.5t-25.5 195.5q25 125 100.5 192t181.5 67q108 0 149 -71.5t18 -189.5h-419l-2 -6q-20 -104 20 -171.5t137 -67.5zM303 495
q-91 0 -157 -61t-85 -148h389q10 54 0 100t-48 77.5t-99 31.5z" />
    <glyph glyph-name="Gbreve" unicode="&#x11e;" horiz-adv-x="708" 
d="M464 819q-50 0 -75.5 31.5t-19.5 75.5h28q-1 -33 17 -57t55 -24t64.5 24t40.5 57h28q-12 -44 -50 -75.5t-88 -31.5zM659 511q0 83 -56.5 135t-152.5 52q-144 0 -241.5 -98t-126.5 -244q-15 -70 -7 -132t33.5 -108t77.5 -72.5t125 -26.5q122 0 209 84t114 225h-248l6 28
h280l-69 -354h-26l33 189h-2q-36 -86 -116 -143t-186 -57q-156 0 -221.5 102.5t-34.5 264.5q31 160 140 265t265 105q110 0 173.5 -57.5t62.5 -157.5h-32z" />
    <glyph glyph-name="gbreve" unicode="&#x11f;" horiz-adv-x="519" 
d="M308 618q-50 0 -75.5 31.5t-19.5 75.5h28q-1 -33 17 -57t55 -24t64.5 24t40.5 57h28q-12 -44 -50 -75.5t-88 -31.5zM486 514h30l-95 -486q-38 -199 -244 -199q-93 0 -144 42t-50 103h30q4 -51 46 -85t123 -34q176 0 210 174l24 125h-2q-33 -56 -91.5 -90.5t-125.5 -34.5
q-90 0 -141.5 68t-28.5 188q23 118 98 177t167 59q67 0 112 -34.5t56 -93.5h2zM209 55q74 0 142 57.5t88 162.5q21 105 -25 162.5t-120 57.5q-85 0 -150.5 -52t-86.5 -158q-21 -108 24 -169t128 -61z" />
    <glyph glyph-name="Gdotaccent" unicode="&#x120;" horiz-adv-x="708" 
d="M442 873q6 32 38 32q15 0 22 -9.5t5 -22.5q-8 -32 -39 -32q-15 0 -22 9.5t-4 22.5zM659 511q0 83 -56.5 135t-152.5 52q-144 0 -241.5 -98t-126.5 -244q-15 -70 -7 -132t33.5 -108t77.5 -72.5t125 -26.5q122 0 209 84t114 225h-248l6 28h280l-69 -354h-26l33 189h-2
q-36 -86 -116 -143t-186 -57q-156 0 -221.5 102.5t-34.5 264.5q31 160 140 265t265 105q110 0 173.5 -57.5t62.5 -157.5h-32z" />
    <glyph glyph-name="gdotaccent" unicode="&#x121;" horiz-adv-x="519" 
d="M311 640q-15 0 -21.5 9.5t-3.5 22.5q6 32 38 32q15 0 22 -9.5t5 -22.5q-8 -32 -40 -32zM486 514h30l-95 -486q-38 -199 -244 -199q-93 0 -144 42t-50 103h30q4 -51 46 -85t123 -34q176 0 210 174l24 125h-2q-33 -56 -91.5 -90.5t-125.5 -34.5q-90 0 -141.5 68t-28.5 188
q23 118 98 177t167 59q67 0 112 -34.5t56 -93.5h2zM209 55q74 0 142 57.5t88 162.5q21 105 -25 162.5t-120 57.5q-85 0 -150.5 -52t-86.5 -158q-21 -108 24 -169t128 -61z" />
    <glyph glyph-name="Gcommaaccent" unicode="&#x122;" horiz-adv-x="708" 
d="M659 511q0 83 -56.5 135t-152.5 52q-144 0 -241.5 -98t-126.5 -244q-15 -70 -7 -132t33.5 -108t77.5 -72.5t125 -26.5q122 0 209 84t114 225h-248l6 28h280l-69 -354h-26l33 189h-2q-36 -86 -116 -143t-186 -57q-156 0 -221.5 102.5t-34.5 264.5q31 160 140 265t265 105
q110 0 173.5 -57.5t62.5 -157.5h-32zM294 -144q-14 -5 -22.5 3t-4.5 26q6 31 35 31q31 0 20 -54q-17 -86 -75 -102l6 28q29 13 41 68z" />
    <glyph glyph-name="gcommaaccent" unicode="&#x123;" horiz-adv-x="519" 
d="M314 606q-31 0 -21 54q17 85 75 102l-5 -28q-33 -14 -41 -68q14 5 22.5 -3t4.5 -26q-6 -31 -35 -31zM486 514h30l-95 -486q-38 -199 -244 -199q-93 0 -144 42t-50 103h30q4 -51 46 -85t123 -34q176 0 210 174l24 125h-2q-33 -56 -91.5 -90.5t-125.5 -34.5
q-90 0 -141.5 68t-28.5 188q23 118 98 177t167 59q67 0 112 -34.5t56 -93.5h2zM209 55q74 0 142 57.5t88 162.5q21 105 -25 162.5t-120 57.5q-85 0 -150.5 -52t-86.5 -158q-21 -108 24 -169t128 -61z" />
    <glyph glyph-name="Hbar" unicode="&#x126;" horiz-adv-x="646" 
d="M721 584l-6 -28h-72l-108 -556h-32l71 366h-457l-71 -366h-32l108 556h-69l6 28h69l25 131h32l-25 -131h457l25 131h32l-25 -131h72zM580 394l31 162h-457l-31 -162h457z" />
    <glyph glyph-name="hbar" unicode="&#x127;" horiz-adv-x="501" 
d="M349 521q64 0 101.5 -40.5t23.5 -112.5l-72 -368h-30l68 348q27 147 -110 147q-79 0 -138.5 -46.5t-69.5 -94.5l-69 -354h-30l118 607h-81l5 26h81l16 82h30l-16 -82h116l-5 -26h-116l-36 -184h2q26 29 47.5 47.5t65.5 34.5t99 16z" />
    <glyph glyph-name="Imacron" unicode="&#x12a;" horiz-adv-x="236" 
d="M119 880h228l-5 -26h-228zM190 715h32l-139 -715h-32z" />
    <glyph glyph-name="imacron" unicode="&#x12b;" horiz-adv-x="208" 
d="M65 679h228l-5 -26h-228zM140 514h30l-100 -514h-30z" />
    <glyph glyph-name="Iogonek" unicode="&#x12e;" horiz-adv-x="177" 
d="M64 -138h3l-4 -24q-26 -11 -57 -11q-45 0 -63.5 20.5t-12.5 54.5q11 58 105 98h-3l139 715h32l-139 -715h1q-95 -47 -104 -97q-4 -23 8.5 -37t43.5 -14q28 0 51 10z" />
    <glyph glyph-name="iogonek" unicode="&#x12f;" horiz-adv-x="149" 
d="M146 640q-15 0 -21.5 9.5t-3.5 22.5q6 32 38 32q15 0 22 -9.5t5 -22.5q-8 -32 -40 -32zM45 -138h3l-4 -24q-26 -11 -57 -11q-45 0 -63.5 20.5t-12.5 54.5q11 58 105 98h-1l100 514h30l-100 -514h1q-95 -47 -104 -97q-4 -23 8.5 -37t43.5 -14q28 0 51 10z" />
    <glyph glyph-name="Idotaccent" unicode="&#x130;" horiz-adv-x="198" 
d="M179 873q6 32 38 32q15 0 22 -9.5t5 -22.5q-8 -32 -39 -32q-15 0 -22 9.5t-4 22.5zM170 715h32l-139 -715h-32z" />
    <glyph glyph-name="dotlessi" unicode="&#x131;" horiz-adv-x="90" 
d="M80 514h30l-100 -514h-30z" />
    <glyph glyph-name="Kcommaaccent" unicode="&#x136;" horiz-adv-x="590" 
d="M152 715h32l-90 -463l537 463h42l-354 -306l234 -409h-39l-222 386l-207 -178l-40 -208h-32zM228 -144q-14 -5 -22.5 3t-4.5 26q6 31 35 31q31 0 20 -54q-17 -86 -75 -102l6 28q29 13 41 68z" />
    <glyph glyph-name="kcommaaccent" unicode="&#x137;" horiz-adv-x="438" 
d="M140 715h30l-94 -483l348 282h42l-244 -197l175 -317h-37l-163 297l-129 -105l-37 -192h-30zM167 -144q-14 -5 -22.5 3t-4.5 26q6 31 35 31q31 0 20 -54q-17 -86 -75 -102l6 28q29 13 41 68z" />
    <glyph glyph-name="Lacute" unicode="&#x139;" horiz-adv-x="522" 
d="M264 922h41l-105 -124h-29zM152 715h32l-134 -687h410l-5 -28h-442z" />
    <glyph glyph-name="lacute" unicode="&#x13a;" horiz-adv-x="161" 
d="M250 922h41l-105 -124h-29zM143 715h30l-139 -715h-30z" />
    <glyph glyph-name="Lcommaaccent" unicode="&#x13b;" horiz-adv-x="522" 
d="M152 715h32l-134 -687h410l-5 -28h-442zM209 -144q-14 -5 -22.5 3t-4.5 26q6 31 35 31q31 0 20 -54q-17 -86 -75 -102l6 28q29 13 41 68z" />
    <glyph glyph-name="lcommaaccent" unicode="&#x13c;" horiz-adv-x="146" 
d="M138 715h30l-139 -715h-30zM-9 -144q-14 -5 -22.5 3t-4.5 26q6 31 35 31q31 0 20 -54q-17 -86 -75 -102l6 28q29 13 41 68z" />
    <glyph glyph-name="Lcaron" unicode="&#x13d;" horiz-adv-x="520" 
d="M390 659q-14 -5 -22.5 3t-4.5 26q6 31 35 31q31 0 20 -54q-17 -86 -75 -102l6 28q29 13 41 68zM152 715h32l-134 -687h410l-5 -28h-442z" />
    <glyph glyph-name="lcaron" unicode="&#x13e;" horiz-adv-x="170" 
d="M244 659q-14 -5 -22.5 3t-4.5 26q6 31 35 31q31 0 20 -54q-17 -86 -75 -102l6 28q29 13 41 68zM141 715h30l-139 -715h-30z" />
    <glyph glyph-name="Lslash" unicode="&#x141;" horiz-adv-x="571" 
d="M99 28h410l-5 -28h-442l56 287l-125 -62l6 34l125 62l77 394h32l-73 -377l281 139l-7 -34l-281 -139z" />
    <glyph glyph-name="lslash" unicode="&#x142;" horiz-adv-x="170" 
d="M212 448l-7 -38l-85 -60l-68 -350h-30l63 325l-81 -58l7 38l82 58l68 352h30l-64 -327z" />
    <glyph glyph-name="Nacute" unicode="&#x143;" horiz-adv-x="657" 
d="M511 922h41l-105 -124h-29zM13 0l139 715h40l326 -670h2l130 670h32l-139 -715h-40l-326 668h-2l-130 -668h-32z" />
    <glyph glyph-name="nacute" unicode="&#x144;" horiz-adv-x="479" 
d="M436 721l-105 -124h-29l93 124h41zM327 521q64 0 101.5 -40.5t23.5 -112.5l-72 -368h-30l68 348q27 147 -110 147q-79 0 -138.5 -46.5t-69.5 -94.5l-69 -354h-30l100 514h30l-18 -91h2q26 29 47.5 47.5t65.5 34.5t99 16z" />
    <glyph glyph-name="Ncommaaccent" unicode="&#x145;" horiz-adv-x="657" 
d="M13 0l139 715h40l326 -670h2l130 670h32l-139 -715h-40l-326 668h-2l-130 -668h-32zM253 -144q-14 -5 -22.5 3t-4.5 26q6 31 35 31q31 0 20 -54q-17 -86 -75 -102l6 28q29 13 41 68z" />
    <glyph glyph-name="ncommaaccent" unicode="&#x146;" horiz-adv-x="479" 
d="M327 521q64 0 101.5 -40.5t23.5 -112.5l-72 -368h-30l68 348q27 147 -110 147q-79 0 -138.5 -46.5t-69.5 -94.5l-69 -354h-30l100 514h30l-18 -91h2q26 29 47.5 47.5t65.5 34.5t99 16zM174 -84q31 0 20 -54q-17 -86 -75 -102l6 28q29 13 41 68q-14 -5 -22.5 3t-4.5 26
q6 31 35 31z" />
    <glyph glyph-name="Ncaron" unicode="&#x147;" horiz-adv-x="657" 
d="M451 822h-37l-67 104h40l50 -81h1l82 81h39zM13 0l139 715h40l326 -670h2l130 670h32l-139 -715h-40l-326 668h-2l-130 -668h-32z" />
    <glyph glyph-name="ncaron" unicode="&#x148;" horiz-adv-x="479" 
d="M335 621h-37l-67 104h40l50 -81h1l82 81h39zM327 521q64 0 101.5 -40.5t23.5 -112.5l-72 -368h-30l68 348q27 147 -110 147q-79 0 -138.5 -46.5t-69.5 -94.5l-69 -354h-30l100 514h30l-18 -91h2q26 29 47.5 47.5t65.5 34.5t99 16z" />
    <glyph glyph-name="Eng" unicode="&#x14a;" horiz-adv-x="657" 
d="M13 0l139 715h40l326 -670h2l130 670h32l-135 -695q-20 -101 -78 -149t-132 -48q-39 0 -69 10l5 26q195 -36 230 141l-326 668h-2l-130 -668h-32z" />
    <glyph glyph-name="eng" unicode="&#x14b;" horiz-adv-x="479" 
d="M418 348q27 147 -110 147q-79 0 -138.5 -46.5t-69.5 -94.5l-69 -354h-30l100 514h30l-18 -91h2q26 29 47.5 47.5t65.5 34.5t99 16q64 0 101.5 -40.5t23.5 -112.5l-83 -413q-12 -61 -35.5 -86t-62.5 -25q-23 0 -41 3l5 26q51 -9 72 6.5t30 64.5z" />
    <glyph glyph-name="Omacron" unicode="&#x14c;" horiz-adv-x="717" 
d="M357 880h228l-5 -26h-228zM306 -11q-147 0 -218 103.5t-39 265.5q31 162 142 265t258 103t218 -103t40 -265q-32 -162 -143 -265.5t-258 -103.5zM311 17q128 0 231 95t133 246q29 151 -37 245.5t-194 94.5t-231 -94.5t-132 -245.5q-30 -151 36 -246t194 -95z" />
    <glyph glyph-name="omacron" unicode="&#x14d;" horiz-adv-x="520" 
d="M220 679h228l-5 -26h-228zM208 -11q-108 0 -157 73t-26 193t100.5 193t185.5 73q109 0 158 -73t26 -193t-100.5 -193t-186.5 -73zM213 15q96 0 163.5 66.5t88.5 173.5t-21 173.5t-138 66.5t-163 -66.5t-88 -173.5t20.5 -173.5t137.5 -66.5z" />
    <glyph glyph-name="Ohungarumlaut" unicode="&#x150;" horiz-adv-x="717" 
d="M472 922h41l-105 -124h-29zM599 922h41l-105 -124h-29zM306 -11q-147 0 -218 103.5t-39 265.5q31 162 142 265t258 103t218 -103t40 -265q-32 -162 -143 -265.5t-258 -103.5zM311 17q128 0 231 95t133 246q29 151 -37 245.5t-194 94.5t-231 -94.5t-132 -245.5
q-30 -151 36 -246t194 -95z" />
    <glyph glyph-name="ohungarumlaut" unicode="&#x151;" horiz-adv-x="520" 
d="M335 721h41l-105 -124h-29zM462 721h41l-105 -124h-29zM208 -11q-108 0 -157 73t-26 193t100.5 193t185.5 73q109 0 158 -73t26 -193t-100.5 -193t-186.5 -73zM213 15q96 0 163.5 66.5t88.5 173.5t-21 173.5t-138 66.5t-163 -66.5t-88 -173.5t20.5 -173.5t137.5 -66.5z
" />
    <glyph glyph-name="OE" unicode="&#x152;" horiz-adv-x="1050" 
d="M564 28h409l-5 -28h-441l35 179q-52 -88 -129 -139t-162 -51q-125 0 -185.5 104t-29.5 265t132 264.5t226 103.5q85 0 142.5 -50.5t74.5 -138.5l35 178h431l-5 -28h-399l-57 -293h364l-6 -28h-364zM276 17q107 0 199.5 95.5t121.5 245.5t-26 245t-162 95t-199.5 -95
t-121.5 -245t26 -245.5t162 -95.5z" />
    <glyph glyph-name="oe" unicode="&#x153;" horiz-adv-x="937" 
d="M501 260l-2 -6q-20 -104 20 -171.5t137 -67.5q77 0 130.5 43.5t75.5 95.5h30q-32 -75 -93.5 -120t-147.5 -45q-80 0 -129 46.5t-57 124.5q-37 -80 -104.5 -125.5t-151.5 -45.5q-108 0 -157 73t-26 193t100.5 193t185.5 73q83 0 132 -43.5t58 -120.5q37 80 102.5 122
t148.5 42q108 0 149 -71.5t18 -189.5h-419zM214 15q96 0 163.5 66.5t88.5 173.5t-21 173.5t-138 66.5t-163 -66.5t-88 -173.5t20.5 -173.5t137.5 -66.5zM748 495q-91 0 -157 -61t-85 -148h389q10 54 0 100t-48 77.5t-99 31.5z" />
    <glyph glyph-name="Racute" unicode="&#x154;" horiz-adv-x="585" 
d="M471 922h41l-105 -124h-29zM13 0l139 715h280q100 0 148.5 -50t28.5 -150q-15 -76 -66.5 -123.5t-128.5 -61.5v-2q42 -5 67 -30.5t31.5 -60t7.5 -74t-3 -73.5t-3 -57.5t9 -26.5l-1 -6h-35q-5 8 -6.5 34t4.5 61t3 74t-12 71t-39 53.5t-78 21.5h-253l-61 -315h-32zM179 687
l-67 -344h229q91 0 155.5 44.5t80.5 127.5q18 89 -25 130.5t-144 41.5h-229z" />
    <glyph glyph-name="racute" unicode="&#x155;" horiz-adv-x="292" 
d="M358 721l-105 -124h-29l93 124h41zM289 521q22 0 37 -3l-5 -26h-2q-73 12 -141.5 -39t-84.5 -134l-62 -319h-30l100 514h30l-21 -100h2q28 45 77 76t100 31z" />
    <glyph glyph-name="Rcommaaccent" unicode="&#x156;" horiz-adv-x="585" 
d="M13 0l139 715h280q100 0 148.5 -50t28.5 -150q-15 -76 -66.5 -123.5t-128.5 -61.5v-2q42 -5 67 -30.5t31.5 -60t7.5 -74t-3 -73.5t-3 -57.5t9 -26.5l-1 -6h-35q-5 8 -6.5 34t4.5 61t3 74t-12 71t-39 53.5t-78 21.5h-253l-61 -315h-32zM179 687l-67 -344h229
q91 0 155.5 44.5t80.5 127.5q18 89 -25 130.5t-144 41.5h-229zM233 -144q-14 -5 -22.5 3t-4.5 26q6 31 35 31q31 0 20 -54q-17 -86 -75 -102l6 28q29 13 41 68z" />
    <glyph glyph-name="rcommaaccent" unicode="&#x157;" horiz-adv-x="287" 
d="M284 521q22 0 37 -3l-5 -26h-2q-73 12 -141.5 -39t-84.5 -134l-62 -319h-30l100 514h30l-21 -100h2q28 45 77 76t100 31zM-4 -84q31 0 20 -54q-17 -86 -75 -102l6 28q29 13 41 68q-14 -5 -22.5 3t-4.5 26q6 31 35 31z" />
    <glyph glyph-name="Rcaron" unicode="&#x158;" horiz-adv-x="585" 
d="M411 822h-37l-67 104h40l50 -81h1l82 81h39zM13 0l139 715h280q100 0 148.5 -50t28.5 -150q-15 -76 -66.5 -123.5t-128.5 -61.5v-2q42 -5 67 -30.5t31.5 -60t7.5 -74t-3 -73.5t-3 -57.5t9 -26.5l-1 -6h-35q-5 8 -6.5 34t4.5 61t3 74t-12 71t-39 53.5t-78 21.5h-253
l-61 -315h-32zM179 687l-67 -344h229q91 0 155.5 44.5t80.5 127.5q18 89 -25 130.5t-144 41.5h-229z" />
    <glyph glyph-name="rcaron" unicode="&#x159;" horiz-adv-x="281" 
d="M246 621h-37l-67 104h40l50 -81h1l82 81h39zM278 521q22 0 37 -3l-5 -26h-2q-73 12 -141.5 -39t-84.5 -134l-62 -319h-30l100 514h30l-21 -100h2q28 45 77 76t100 31z" />
    <glyph glyph-name="Sacute" unicode="&#x15a;" horiz-adv-x="570" 
d="M461 922h41l-105 -124h-29zM324 389q121 -52 168.5 -101t37.5 -135q-10 -81 -77 -122.5t-183 -41.5q-125 0 -199 62t-62 179h32q-9 -103 52.5 -158t181.5 -55q102 0 160 38t63 102q3 29 0 50.5t-16.5 41t-26.5 32.5t-44.5 30.5t-56 28.5t-74.5 33q-105 45 -149 92.5
t-31 122.5q24 138 241 138q104 0 170.5 -55t55.5 -148h-32q7 85 -47.5 130t-151.5 45q-186 0 -204 -114q-5 -22 -1.5 -41t9 -34t19 -28.5t28 -24t36.5 -21.5t45 -21.5t51 -22.5q3 -1 5 -2z" />
    <glyph glyph-name="sacute" unicode="&#x15b;" horiz-adv-x="442" 
d="M365 721h41l-105 -124h-29zM227 287q109 -37 146 -77.5t23 -111.5q-10 -51 -60 -80t-119 -29q-94 0 -155 46t-61 125h30q0 -68 54 -106.5t133 -38.5q51 0 96 23t53 63q14 68 -23.5 99t-145.5 68q-28 10 -45 17t-38.5 19.5t-32.5 26t-17 34.5t-2 46q8 55 55 82.5t118 27.5
q78 0 129 -42t51 -102h-30q0 53 -44.5 85.5t-110.5 32.5q-49 0 -91.5 -21.5t-48.5 -69.5q-3 -20 5 -37.5t17 -27t34 -21.5t36 -16t44 -15z" />
    <glyph glyph-name="Scedilla" unicode="&#x15e;" horiz-adv-x="570" 
d="M341 726q104 0 170.5 -55t55.5 -148h-32q7 85 -47.5 130t-151.5 45q-186 0 -204 -114q-5 -22 -1.5 -41t9 -34t19 -28.5t28 -24t36.5 -21.5t45 -21.5t51 -22.5q3 -1 5 -2q121 -52 168.5 -101t37.5 -135q-10 -81 -77 -122.5t-183 -41.5h-18l-56 -42l-1 -2q46 9 68.5 -7.5
t16.5 -49.5q-7 -33 -36.5 -51t-71.5 -18q-52 0 -89 26l13 17q34 -20 76 -20q69 0 78 44q4 20 -8 29.5t-39 9.5q-25 0 -49 -11l-9 15l76 63q-105 12 -164 72.5t-48 165.5h32q-9 -103 52.5 -158t181.5 -55q102 0 160 38t63 102q3 29 0 50.5t-16.5 41t-26.5 32.5t-44.5 30.5
t-56 28.5t-74.5 33q-105 45 -149 92.5t-31 122.5q24 138 241 138z" />
    <glyph glyph-name="scedilla" unicode="&#x15f;" horiz-adv-x="442" 
d="M227 287q109 -37 146 -77.5t23 -111.5q-10 -51 -60 -80t-119 -29h-16l-55 -42l-1 -2q46 9 68.5 -7.5t16.5 -49.5q-7 -33 -36.5 -51t-71.5 -18q-52 0 -89 26l13 17q34 -20 76 -20q69 0 78 44q4 20 -8 29.5t-39 9.5q-25 0 -49 -11l-9 15l77 63q-77 11 -124 55.5t-47 112.5
h30q0 -68 54 -106.5t133 -38.5q51 0 96 23t53 63q14 68 -23.5 99t-145.5 68q-28 10 -45 17t-38.5 19.5t-32.5 26t-17 34.5t-2 46q8 55 55 82.5t118 27.5q78 0 129 -42t51 -102h-30q0 53 -44.5 85.5t-110.5 32.5q-49 0 -91.5 -21.5t-48.5 -69.5q-3 -20 5 -37.5t17 -27
t34 -21.5t36 -16t44 -15z" />
    <glyph glyph-name="Scaron" unicode="&#x160;" horiz-adv-x="570" 
d="M401 822h-37l-67 104h40l50 -81h1l82 81h39zM324 389q121 -52 168.5 -101t37.5 -135q-10 -81 -77 -122.5t-183 -41.5q-125 0 -199 62t-62 179h32q-9 -103 52.5 -158t181.5 -55q102 0 160 38t63 102q3 29 0 50.5t-16.5 41t-26.5 32.5t-44.5 30.5t-56 28.5t-74.5 33
q-105 45 -149 92.5t-31 122.5q24 138 241 138q104 0 170.5 -55t55.5 -148h-32q7 85 -47.5 130t-151.5 45q-186 0 -204 -114q-5 -22 -1.5 -41t9 -34t19 -28.5t28 -24t36.5 -21.5t45 -21.5t51 -22.5q3 -1 5 -2z" />
    <glyph glyph-name="scaron" unicode="&#x161;" horiz-adv-x="442" 
d="M305 621h-37l-67 104h40l50 -81h1l82 81h39zM227 287q109 -37 146 -77.5t23 -111.5q-10 -51 -60 -80t-119 -29q-94 0 -155 46t-61 125h30q0 -68 54 -106.5t133 -38.5q51 0 96 23t53 63q14 68 -23.5 99t-145.5 68q-28 10 -45 17t-38.5 19.5t-32.5 26t-17 34.5t-2 46
q8 55 55 82.5t118 27.5q78 0 129 -42t51 -102h-30q0 53 -44.5 85.5t-110.5 32.5q-49 0 -91.5 -21.5t-48.5 -69.5q-3 -20 5 -37.5t17 -27t34 -21.5t36 -16t44 -15z" />
    <glyph glyph-name="uni0162" unicode="&#x162;" horiz-adv-x="582" 
d="M254 0l-68 -50v-2q45 9 68 -7.5t17 -49.5q-7 -33 -37 -51t-72 -18q-52 0 -89 26l14 17q32 -20 76 -20q70 0 77 44q4 20 -7.5 29.5t-38.5 9.5q-25 0 -49 -11l-9 15l86 68h3l134 687h-255l5 28h542l-5 -28h-255l-134 -687h-3z" />
    <glyph glyph-name="uni0163" unicode="&#x163;" horiz-adv-x="264" 
d="M282 488h-113l-69 -355q-5 -35 -7.5 -62.5t21.5 -40t79 -1.5l-5 -26q-24 -5 -44 -6l-65 -48v-2q45 9 68 -7.5t17 -49.5q-7 -33 -37 -51t-72 -18q-52 0 -89 26l14 17q32 -20 76 -20q68 0 77 44q4 20 -7.5 29.5t-38.5 9.5q-25 0 -49 -11l-9 15l85 67q-68 12 -46 127l71 363
h-75l5 26h75l32 166h30l-32 -166h113z" />
    <glyph glyph-name="Tcaron" unicode="&#x164;" horiz-adv-x="570" 
d="M402 822h-37l-67 104h40l50 -81h1l82 81h39zM213 0l134 687h-255l5 28h542l-5 -28h-255l-134 -687h-32z" />
    <glyph glyph-name="tcaron" unicode="&#x165;" horiz-adv-x="281" 
d="M307 669q-14 -5 -22.5 3t-4.5 26q6 31 35 31q31 0 20 -54q-17 -86 -75 -102l6 28q29 13 41 68zM207 680l-32 -166h113l-5 -26h-113l-69 -355q-5 -35 -7.5 -62.5t21.5 -40t79 -1.5l-5 -26q-28 -6 -56 -6q-89 0 -64 128l71 363h-75l5 26h75l32 166h30z" />
    <glyph glyph-name="Tbar" unicode="&#x166;" horiz-adv-x="558" 
d="M634 687h-255l-59 -303h193l-6 -28h-193l-69 -356h-32l69 356h-183l6 28h183l59 303h-255l5 28h542z" />
    <glyph glyph-name="tbar" unicode="&#x167;" horiz-adv-x="276" 
d="M261 317h-124l-36 -184q-5 -35 -7.5 -62.5t21.5 -40t79 -1.5l-5 -26q-28 -6 -56 -6q-89 0 -64 128l38 192h-64l5 26h64l28 145h-75l5 26h75l32 166h30l-32 -166h113l-5 -26h-113l-28 -145h124z" />
    <glyph glyph-name="Umacron" unicode="&#x16a;" horiz-adv-x="623" 
d="M309 880h228l-5 -26h-228zM565 248q-50 -259 -307 -259t-207 259l91 467h32l-91 -467q-22 -117 22.5 -174t157.5 -57q226 0 270 231l91 467h32z" />
    <glyph glyph-name="umacron" unicode="&#x16b;" horiz-adv-x="481" 
d="M424 679l-5 -26h-228l5 26h228zM446 514h30l-100 -514h-30l18 91h-2q-26 -29 -47.5 -47.5t-65.5 -34.5t-99 -16q-64 0 -101.5 40.5t-23.5 112.5l72 368h30l-68 -348q-27 -147 110 -147q79 0 138.5 46.5t69.5 94.5z" />
    <glyph glyph-name="Uring" unicode="&#x16e;" horiz-adv-x="623" 
d="M404 781q-34 0 -53 22.5t-12 57.5t34.5 58.5t61.5 23.5q35 0 54 -23.5t12 -58.5t-34.5 -57.5t-62.5 -22.5zM409 805q26 0 43.5 15.5t22.5 40.5t-7 41t-38 16t-43.5 -15.5t-22.5 -41.5q-5 -25 7 -40.5t38 -15.5zM565 248q-50 -259 -307 -259t-207 259l91 467h32l-91 -467
q-22 -117 22.5 -174t157.5 -57q226 0 270 231l91 467h32z" />
    <glyph glyph-name="uring" unicode="&#x16f;" horiz-adv-x="481" 
d="M291 580q-34 0 -53 22.5t-12 57.5t34.5 58.5t61.5 23.5q35 0 54 -23.5t12 -58.5t-34.5 -57.5t-62.5 -22.5zM317 717q-26 0 -43.5 -15.5t-22.5 -41.5t6.5 -41t37.5 -15q27 0 44.5 15.5t22.5 40.5t-7 41t-38 16zM446 514h30l-100 -514h-30l18 91h-2q-26 -29 -47.5 -47.5
t-65.5 -34.5t-99 -16q-64 0 -101.5 40.5t-23.5 112.5l72 368h30l-68 -348q-27 -147 110 -147q79 0 138.5 46.5t69.5 94.5z" />
    <glyph glyph-name="Uhungarumlaut" unicode="&#x170;" horiz-adv-x="623" 
d="M424 922h41l-105 -124h-29zM551 922h41l-105 -124h-29zM565 248q-50 -259 -307 -259t-207 259l91 467h32l-91 -467q-22 -117 22.5 -174t157.5 -57q226 0 270 231l91 467h32z" />
    <glyph glyph-name="uhungarumlaut" unicode="&#x171;" horiz-adv-x="481" 
d="M352 721l-105 -124h-29l93 124h41zM479 721l-105 -124h-29l93 124h41zM446 514h30l-100 -514h-30l18 91h-2q-26 -29 -47.5 -47.5t-65.5 -34.5t-99 -16q-64 0 -101.5 40.5t-23.5 112.5l72 368h30l-68 -348q-27 -147 110 -147q79 0 138.5 46.5t69.5 94.5z" />
    <glyph glyph-name="Uogonek" unicode="&#x172;" horiz-adv-x="621" 
d="M624 715h32l-91 -467q-40 -206 -210 -248h1q-95 -47 -104 -97q-4 -23 8.5 -37t43.5 -14q28 0 51 10h3l-4 -24q-26 -11 -57 -11q-45 0 -63.5 20.5t-12.5 54.5q9 50 87 90q-24 -3 -50 -3q-257 0 -207 259l91 467h32l-91 -467q-22 -117 22.5 -174t157.5 -57q226 0 270 231z
" />
    <glyph glyph-name="uogonek" unicode="&#x173;" horiz-adv-x="481" 
d="M374 -138h3l-4 -24q-26 -11 -57 -11q-45 0 -63.5 20.5t-12.5 54.5q11 58 105 98h1l18 91h-2q-26 -29 -47.5 -47.5t-65.5 -34.5t-99 -16q-64 0 -101.5 40.5t-23.5 112.5l72 368h30l-68 -348q-27 -147 110 -147q79 0 138.5 46.5t69.5 94.5l69 354h30l-100 -514h-1
q-95 -47 -104 -97q-4 -23 8.5 -37t43.5 -14q28 0 51 10z" />
    <glyph glyph-name="Wcircumflex" unicode="&#x174;" horiz-adv-x="864" 
d="M566 927l68 -104h-39l-50 81h-1l-82 -81h-40l107 104h37zM93 715h33l47 -663h1l320 663h40l62 -663h1l305 663h33l-329 -715h-37l-64 663h-2l-322 -663h-37z" />
    <glyph glyph-name="wcircumflex" unicode="&#x175;" horiz-adv-x="695" 
d="M446 726l68 -104h-39l-50 81h-1l-82 -81h-40l107 104h37zM55 514h31l57 -477h1l229 477h41l44 -477h1l243 477h31l-262 -514h-40l-45 475h-2l-227 -475h-40z" />
    <glyph glyph-name="Ycircumflex" unicode="&#x176;" horiz-adv-x="557" 
d="M413 927l68 -104h-39l-50 81h-1l-82 -81h-40l107 104h37zM81 715h37l166 -387h2l318 387h37l-347 -422l-57 -293h-32l57 293z" />
    <glyph glyph-name="ycircumflex" unicode="&#x177;" horiz-adv-x="443" 
d="M318 726l68 -104h-39l-50 81h-1l-82 -81h-40l107 104h37zM481 514l-305 -531q-49 -85 -80 -118.5t-78 -33.5q-31 0 -58 10l5 26h2q73 -16 102 9q44 37 85 126l-103 512h32l94 -471h1l271 471h32z" />
    <glyph glyph-name="Ydieresis" unicode="&#x178;" horiz-adv-x="557" 
d="M274 873q6 32 38 32q15 0 22 -9.5t5 -22.5q-8 -32 -39 -32q-15 0 -22 9.5t-4 22.5zM429 873q6 32 38 32q15 0 22 -9.5t5 -22.5q-8 -32 -39 -32q-15 0 -22 9.5t-4 22.5zM81 715h37l166 -387h2l318 387h37l-347 -422l-57 -293h-32l57 293z" />
    <glyph glyph-name="Zacute" unicode="&#x179;" horiz-adv-x="584" 
d="M486 922h41l-105 -124h-29zM137 715h500l-5 -28l-607 -657l-1 -2h488l-5 -28h-528l5 28l606 657l1 2h-459z" />
    <glyph glyph-name="zacute" unicode="&#x17a;" horiz-adv-x="439" 
d="M366 721h41l-105 -124h-29zM-16 26l428 460v2h-322l5 26h360l-5 -26l-428 -460v-2h348l-5 -26h-386z" />
    <glyph glyph-name="Zdotaccent" unicode="&#x17b;" horiz-adv-x="584" 
d="M383 873q6 32 38 32q15 0 22 -9.5t5 -22.5q-8 -32 -39 -32q-15 0 -22 9.5t-4 22.5zM137 715h500l-5 -28l-607 -657l-1 -2h488l-5 -28h-528l5 28l606 657l1 2h-459z" />
    <glyph glyph-name="zdotaccent" unicode="&#x17c;" horiz-adv-x="439" 
d="M263 672q6 32 38 32q15 0 22 -9.5t5 -22.5q-8 -32 -40 -32q-15 0 -21.5 9.5t-3.5 22.5zM-16 26l428 460v2h-322l5 26h360l-5 -26l-428 -460v-2h348l-5 -26h-386z" />
    <glyph glyph-name="Zcaron" unicode="&#x17d;" horiz-adv-x="584" 
d="M426 822h-37l-67 104h40l50 -81h1l82 81h39zM137 715h500l-5 -28l-607 -657l-1 -2h488l-5 -28h-528l5 28l606 657l1 2h-459z" />
    <glyph glyph-name="zcaron" unicode="&#x17e;" horiz-adv-x="439" 
d="M306 621h-37l-67 104h40l50 -81h1l82 81h39zM-16 26l428 460v2h-322l5 26h360l-5 -26l-428 -460v-2h348l-5 -26h-386z" />
    <glyph glyph-name="Scommaaccent" unicode="&#x218;" horiz-adv-x="570" 
d="M324 389q121 -52 168.5 -101t37.5 -135q-10 -81 -77 -122.5t-183 -41.5q-125 0 -199 62t-62 179h32q-9 -103 52.5 -158t181.5 -55q102 0 160 38t63 102q3 29 0 50.5t-16.5 41t-26.5 32.5t-44.5 30.5t-56 28.5t-74.5 33q-105 45 -149 92.5t-31 122.5q24 138 241 138
q104 0 170.5 -55t55.5 -148h-32q7 85 -47.5 130t-151.5 45q-186 0 -204 -114q-5 -22 -1.5 -41t9 -34t19 -28.5t28 -24t36.5 -21.5t45 -21.5t51 -22.5q3 -1 5 -2zM226 -144q-14 -5 -22.5 3t-4.5 26q6 31 35 31q31 0 20 -54q-17 -86 -75 -102l6 28q29 13 41 68z" />
    <glyph glyph-name="scommaaccent" unicode="&#x219;" horiz-adv-x="442" 
d="M227 287q109 -37 146 -77.5t23 -111.5q-10 -51 -60 -80t-119 -29q-94 0 -155 46t-61 125h30q0 -68 54 -106.5t133 -38.5q51 0 96 23t53 63q14 68 -23.5 99t-145.5 68q-28 10 -45 17t-38.5 19.5t-32.5 26t-17 34.5t-2 46q8 55 55 82.5t118 27.5q78 0 129 -42t51 -102h-30
q0 53 -44.5 85.5t-110.5 32.5q-49 0 -91.5 -21.5t-48.5 -69.5q-3 -20 5 -37.5t17 -27t34 -21.5t36 -16t44 -15zM176 -144q-14 -5 -22.5 3t-4.5 26q6 31 35 31q31 0 20 -54q-17 -86 -75 -102l6 28q29 13 41 68z" />
    <glyph glyph-name="uni021A" unicode="&#x21a;" horiz-adv-x="570" 
d="M213 0l134 687h-255l5 28h542l-5 -28h-255l-134 -687h-32zM205 -141q-15 -5 -23.5 3t-4.5 26q6 31 35 31q31 0 21 -54q-17 -85 -75 -102l5 28q30 13 42 68z" />
    <glyph glyph-name="uni021B" unicode="&#x21b;" horiz-adv-x="264" 
d="M282 488h-113l-69 -355q-5 -35 -7.5 -62.5t21.5 -40t79 -1.5l-5 -26q-29 -6 -56 -6q-89 0 -64 128l71 363h-75l5 26h75l32 166h30l-32 -166h113zM117 -82q31 0 21 -54q-17 -85 -75 -102l5 28q33 14 41 68q-14 -5 -22.5 3t-4.5 26q6 31 35 31z" />
    <glyph glyph-name="circumflex" unicode="&#x2c6;" horiz-adv-x="458" 
d="M334 726l68 -104h-39l-50 81h-1l-82 -81h-40l107 104h37z" />
    <glyph glyph-name="caron" unicode="&#x2c7;" horiz-adv-x="457" 
d="M316 621h-37l-67 104h40l50 -81h1l82 81h39z" />
    <glyph glyph-name="breve" unicode="&#x2d8;" horiz-adv-x="483" 
d="M315 618q-50 0 -75.5 31.5t-19.5 75.5h28q-1 -33 17 -57t55 -24t64.5 24t40.5 57h28q-12 -44 -50 -75.5t-88 -31.5z" />
    <glyph glyph-name="dotaccent" unicode="&#x2d9;" horiz-adv-x="496" 
d="M295 672q6 32 38 32q15 0 22 -9.5t5 -22.5q-8 -32 -40 -32q-15 0 -21.5 9.5t-3.5 22.5z" />
    <glyph glyph-name="ring" unicode="&#x2da;" horiz-adv-x="486" 
d="M303 580q-34 0 -53 22.5t-12 57.5t34.5 58.5t61.5 23.5q35 0 54 -23.5t12 -58.5t-34.5 -57.5t-62.5 -22.5zM307 604q27 0 44.5 15.5t22.5 40.5t-7 41t-38 16t-43.5 -15.5t-22.5 -41.5t6.5 -41t37.5 -15z" />
    <glyph glyph-name="ogonek" unicode="&#x2db;" horiz-adv-x="488" 
d="M202 0q-95 -47 -104 -97q-4 -23 8.5 -37t43.5 -14q28 0 51 10h3l-4 -24q-26 -11 -57 -11q-45 0 -63.5 20.5t-12.5 54.5q11 58 105 98h30z" />
    <glyph glyph-name="tilde" unicode="&#x2dc;" horiz-adv-x="491" 
d="M267 706q29 0 65 -26.5t54 -26.5q32 0 47 53h30q-19 -79 -82 -79q-28 0 -64.5 26.5t-54.5 26.5q-32 0 -47 -53h-30q20 79 82 79z" />
    <glyph glyph-name="hungarumlaut" unicode="&#x2dd;" horiz-adv-x="507" 
d="M299 721h41l-105 -124h-29zM426 721h41l-105 -124h-29z" />
    <glyph glyph-name="gravecomb" unicode="&#x300;" 
d="M-9 721l45 -124h-29l-57 124h41z" />
    <glyph glyph-name="acutecomb" unicode="&#x301;" 
d="M19 721h41l-105 -124h-29z" />
    <glyph glyph-name="uni0302" unicode="&#x302;" 
d="M-121 726l68 -104h-39l-50 81h-1l-82 -81h-40l107 104h37z" />
    <glyph glyph-name="tildecomb" unicode="&#x303;" 
d="M-139 706q29 0 65 -26.5t54 -26.5q32 0 47 53h30q-19 -79 -82 -79q-28 0 -64.5 26.5t-54.5 26.5q-32 0 -47 -53h-30q20 79 82 79z" />
    <glyph glyph-name="uni0304" unicode="&#x304;" 
d="M-176 679h228l-5 -26h-228z" />
    <glyph glyph-name="uni0306" unicode="&#x306;" 
d="M-77 618q-50 0 -75.5 31.5t-19.5 75.5h28q-1 -33 17 -57t55 -24t64.5 24t40.5 57h28q-12 -44 -50 -75.5t-88 -31.5z" />
    <glyph glyph-name="uni0307" unicode="&#x307;" 
d="M-14 672q6 32 38 32q15 0 22 -9.5t5 -22.5q-8 -32 -40 -32q-15 0 -21.5 9.5t-3.5 22.5z" />
    <glyph glyph-name="uni0308" unicode="&#x308;" 
d="M-169 672q6 32 38 32q15 0 22 -9.5t5 -22.5q-8 -32 -40 -32q-15 0 -21.5 9.5t-3.5 22.5zM-14 672q6 32 38 32q15 0 22 -9.5t5 -22.5q-8 -32 -40 -32q-15 0 -21.5 9.5t-3.5 22.5z" />
    <glyph glyph-name="uni030A" unicode="&#x30a;" 
d="M-49 580q-34 0 -53 22.5t-12 57.5t34.5 58.5t61.5 23.5q35 0 54 -23.5t12 -58.5t-34.5 -57.5t-62.5 -22.5zM-45 604q27 0 44.5 15.5t22.5 40.5t-7 41t-38 16t-43.5 -15.5t-22.5 -41.5t6.5 -41t37.5 -15z" />
    <glyph glyph-name="uni030B" unicode="&#x30b;" 
d="M-108 721h41l-105 -124h-29zM19 721h41l-105 -124h-29z" />
    <glyph glyph-name="uni030C" unicode="&#x30c;" 
d="M-47 621h-37l-67 104h40l50 -81h1l82 81h39z" />
    <glyph glyph-name="uni0312" unicode="&#x312;" 
d="M17 666q14 5 22.5 -3t4.5 -26q-6 -31 -35 -31q-31 0 -21 54q17 85 75 102l-5 -28q-33 -14 -41 -68z" />
    <glyph glyph-name="uni0326" unicode="&#x326;" 
d="M-135 -144q-14 -5 -22.5 3t-4.5 26q6 31 35 31q31 0 20 -54q-17 -86 -75 -102l6 28q29 13 41 68z" />
    <glyph glyph-name="uni0327" unicode="&#x327;" 
d="M-119 -3l-67 -50l-1 -2q46 9 68.5 -7.5t16.5 -49.5q-7 -33 -36.5 -51t-71.5 -18q-52 0 -89 26l13 17q34 -20 76 -20q69 0 78 44q4 20 -8 29.5t-39 9.5q-25 0 -49 -11l-9 15l86 68h32z" />
    <glyph glyph-name="uni0328" unicode="&#x328;" 
d="M-109 0q-95 -47 -104 -97q-4 -23 8.5 -37t43.5 -14q28 0 51 10h3l-4 -24q-26 -11 -57 -11q-45 0 -63.5 20.5t-12.5 54.5q11 58 105 98h30z" />
    <glyph glyph-name="uni0335" unicode="&#x335;" 
d="M-5 384l-6 -28h-408l6 28h408z" />
    <glyph glyph-name="uni0336" unicode="&#x336;" 
d="M-7 374l-6 -28h-500l6 28h500z" />
    <glyph glyph-name="uni0337" unicode="&#x337;" 
d="M-594 12l578 509l17 -21l-579 -509z" />
    <glyph glyph-name="uni0338" unicode="&#x338;" 
d="M-594 12l578 509l17 -21l-579 -509z" />
    <glyph glyph-name="Wgrave" unicode="&#x1e80;" horiz-adv-x="864" 
d="M486 922l45 -124h-29l-57 124h41zM93 715h33l47 -663h1l320 663h40l62 -663h1l305 663h33l-329 -715h-37l-64 663h-2l-322 -663h-37z" />
    <glyph glyph-name="wgrave" unicode="&#x1e81;" horiz-adv-x="695" 
d="M366 721l45 -124h-29l-57 124h41zM55 514h31l57 -477h1l229 477h41l44 -477h1l243 477h31l-262 -514h-40l-45 475h-2l-227 -475h-40z" />
    <glyph glyph-name="Wacute" unicode="&#x1e82;" horiz-adv-x="864" 
d="M608 922h41l-105 -124h-29zM93 715h33l47 -663h1l320 663h40l62 -663h1l305 663h33l-329 -715h-37l-64 663h-2l-322 -663h-37z" />
    <glyph glyph-name="wacute" unicode="&#x1e83;" horiz-adv-x="695" 
d="M488 721h41l-105 -124h-29zM55 514h31l57 -477h1l229 477h41l44 -477h1l243 477h31l-262 -514h-40l-45 475h-2l-227 -475h-40z" />
    <glyph glyph-name="Wdieresis" unicode="&#x1e84;" horiz-adv-x="864" 
d="M427 873q6 32 38 32q15 0 22 -9.5t5 -22.5q-8 -32 -39 -32q-15 0 -22 9.5t-4 22.5zM582 873q6 32 38 32q15 0 22 -9.5t5 -22.5q-8 -32 -39 -32q-15 0 -22 9.5t-4 22.5zM93 715h33l47 -663h1l320 663h40l62 -663h1l305 663h33l-329 -715h-37l-64 663h-2l-322 -663h-37z
" />
    <glyph glyph-name="wdieresis" unicode="&#x1e85;" horiz-adv-x="695" 
d="M307 672q6 32 38 32q15 0 22 -9.5t5 -22.5q-8 -32 -40 -32q-15 0 -21.5 9.5t-3.5 22.5zM462 672q6 32 38 32q15 0 22 -9.5t5 -22.5q-8 -32 -40 -32q-15 0 -21.5 9.5t-3.5 22.5zM55 514h31l57 -477h1l229 477h41l44 -477h1l243 477h31l-262 -514h-40l-45 475h-2l-227 -475
h-40z" />
    <glyph glyph-name="Ygrave" unicode="&#x1ef2;" horiz-adv-x="557" 
d="M333 922l45 -124h-29l-57 124h41zM81 715h37l166 -387h2l318 387h37l-347 -422l-57 -293h-32l57 293z" />
    <glyph glyph-name="ygrave" unicode="&#x1ef3;" horiz-adv-x="443" 
d="M238 721l45 -124h-29l-57 124h41zM481 514l-305 -531q-49 -85 -80 -118.5t-78 -33.5q-31 0 -58 10l5 26h2q73 -16 102 9q44 37 85 126l-103 512h32l94 -471h1l271 471h32z" />
    <glyph glyph-name="endash" unicode="&#x2013;" horiz-adv-x="580" 
d="M41 269h500l-5 -28h-500z" />
    <glyph glyph-name="emdash" unicode="&#x2014;" horiz-adv-x="999" 
d="M101 269h800l-5 -28h-800z" />
    <glyph glyph-name="quoteleft" unicode="&#x2018;" horiz-adv-x="130" 
d="M140 623q14 5 22.5 -3t5.5 -26q-3 -14 -13 -22.5t-23 -8.5q-30 0 -20 54q17 85 75 102l-6 -28q-29 -13 -41 -68z" />
    <glyph glyph-name="quoteright" unicode="&#x2019;" horiz-adv-x="128" 
d="M137 659q-14 -5 -22.5 3t-4.5 26q6 31 35 31q31 0 20 -54q-17 -86 -75 -102l6 28q29 13 41 68z" />
    <glyph glyph-name="quotesinglbase" unicode="&#x201a;" horiz-adv-x="137" 
d="M22 -4q-14 -5 -22.5 3t-4.5 26q6 31 35 31q31 0 20 -54q-13 -84 -74 -102l5 28q33 14 41 68z" />
    <glyph glyph-name="quotedblleft" unicode="&#x201c;" horiz-adv-x="256" 
d="M150 623q14 5 22.5 -3t5.5 -26q-3 -14 -13 -22.5t-23 -8.5q-30 0 -20 54q17 85 75 102l-6 -28q-29 -13 -41 -68zM272 623q14 5 22.5 -3t5.5 -26q-3 -14 -13 -22.5t-23 -8.5q-30 0 -20 54q17 85 75 102l-6 -28q-29 -13 -41 -68z" />
    <glyph glyph-name="quotedblright" unicode="&#x201d;" horiz-adv-x="246" 
d="M133 659q-14 -5 -22.5 3t-4.5 26q6 31 35 31q31 0 20 -54q-17 -86 -75 -102l6 28q29 13 41 68zM255 659q-14 -5 -22.5 3t-4.5 26q6 31 35 31q31 0 20 -54q-17 -86 -75 -102l6 28q29 13 41 68z" />
    <glyph glyph-name="quotedblbase" unicode="&#x201e;" horiz-adv-x="259" 
d="M22 -4q-14 -5 -22.5 3t-4.5 26q6 31 35 31q31 0 20 -54q-13 -84 -74 -102l5 28q33 14 41 68zM144 -4q-14 -5 -22.5 3t-4.5 26q6 31 35 31q31 0 20 -54q-13 -84 -74 -102l5 28q33 14 41 68z" />
    <glyph glyph-name="dagger" unicode="&#x2020;" horiz-adv-x="503" 
d="M275 458h-204l6 28h204l44 229h32l-44 -229h203l-6 -28h-203l-123 -635h-32z" />
    <glyph glyph-name="daggerdbl" unicode="&#x2021;" horiz-adv-x="507" 
d="M69 458l6 28h204l44 229h32l-44 -229h203l-6 -28h-203l-57 -292h209l-5 -28h-209l-61 -315h-32l61 315h-200l5 28h200l57 292h-204z" />
    <glyph glyph-name="bullet" unicode="&#x2022;" horiz-adv-x="204" 
d="M100 250q-31 0 -46.5 20.5t-10.5 49.5q6 30 29 50t55 20t47 -20t9 -50q-5 -29 -28.5 -49.5t-54.5 -20.5z" />
    <glyph glyph-name="ellipsis" unicode="&#x2026;" horiz-adv-x="417" 
d="M18 -4q-12 0 -19.5 8t-4.5 22t13.5 22t22.5 8t19.5 -8t4.5 -22t-13.5 -22t-22.5 -8zM158 -4q-12 0 -19.5 8t-4.5 22t13.5 22t22.5 8t19.5 -8t4.5 -22t-13.5 -22t-22.5 -8zM298 -4q-12 0 -19.5 8t-4.5 22t13.5 22t22.5 8t19.5 -8t4.5 -22t-13.5 -22t-22.5 -8z" />
    <glyph glyph-name="perthousand" unicode="&#x2030;" horiz-adv-x="1045" 
d="M179 321q-69 0 -94.5 51.5t-10.5 132.5q16 80 62 132t115 52t94.5 -52t9.5 -132q-15 -80 -61 -132t-115 -52zM659 685l-542 -685h-35l542 685h35zM185 349q57 0 91 45t47 111t-3.5 111t-73.5 45q-58 0 -92.5 -45t-47.5 -111q-6 -40 -5 -74.5t22.5 -58t61.5 -23.5z
M490 -11q-69 0 -95 52t-10 132q15 80 61 132t115 52t94.5 -51.5t10.5 -132.5q-16 -81 -61.5 -132.5t-114.5 -51.5zM824 -11q-69 0 -95 52t-10 132q15 80 61 132t115 52t94.5 -51.5t10.5 -132.5q-16 -81 -61.5 -132.5t-114.5 -51.5zM495 17q57 0 91.5 45t47.5 111
q12 66 -4.5 111t-73.5 45q-58 0 -92.5 -45t-46.5 -111q-6 -40 -5 -74.5t22 -58t61 -23.5zM829 17q57 0 91.5 45t47.5 111q12 66 -4.5 111t-73.5 45q-58 0 -92.5 -45t-46.5 -111q-6 -40 -5 -74.5t22 -58t61 -23.5z" />
    <glyph glyph-name="guilsinglleft" unicode="&#x2039;" horiz-adv-x="239" 
d="M48 251l8 40l161 120l-8 -40l-135 -99v-2l96 -99l-7 -40z" />
    <glyph glyph-name="guilsinglright" unicode="&#x203a;" horiz-adv-x="244" 
d="M192 251l-161 -120l7 40l136 99v2l-97 99l8 40l115 -120z" />
    <glyph glyph-name="fraction" unicode="&#x2044;" horiz-adv-x="198" 
d="M418 715h36l-636 -715h-36z" />
    <glyph glyph-name="Euro" unicode="&#x20ac;" horiz-adv-x="603" 
d="M294 17q89 0 154.5 63.5t88.5 157.5h32q-33 -115 -104.5 -182t-172.5 -67q-103 0 -154 74.5t-41 204.5h-65l6 28h63q1 15 7 47q4 19 11 47h-63l5 28h65q41 130 120.5 204t182.5 74q98 0 145.5 -62t41.5 -155h-32q5 78 -33 133.5t-124 55.5q-91 0 -161.5 -67t-107.5 -183
h246l-5 -28h-248q-7 -28 -11 -47q-6 -32 -7 -47h248l-6 -28h-246q-9 -117 33 -184t132 -67z" />
    <glyph glyph-name="trademark" unicode="&#x2122;" horiz-adv-x="639" 
d="M210 687h-102l5 28h236l-5 -28h-102l-49 -248h-32zM396 715h50l46 -242h1l140 242h50l-54 -276h-32l46 235h-2l-136 -235h-39l-44 235h-2l-46 -235h-32z" />
    <glyph glyph-name="arrowleft" unicode="&#x2190;" horiz-adv-x="751" 
d="M240 51l-198 270l303 270l17 -21l-259 -233h634l-7 -32h-634l169 -233z" />
    <glyph glyph-name="arrowup" unicode="&#x2191;" horiz-adv-x="600" 
d="M606 441l-25 -21l-192 214l-123 -634h-32l123 634l-274 -214l-17 21l318 250z" />
    <glyph glyph-name="arrowright" unicode="&#x2192;" horiz-adv-x="751" 
d="M431 51l-17 21l259 233h-634l7 32h634l-169 233l25 21l197 -270z" />
    <glyph glyph-name="arrowdown" unicode="&#x2193;" horiz-adv-x="600" 
d="M561 210l-319 -250l-221 250l25 21l191 -214l124 634h32l-124 -634l275 214z" />
    <glyph glyph-name="arrowboth" unicode="&#x2194;" horiz-adv-x="1091" 
d="M876 591l197 -270l-302 -270l-17 21l259 233h-917l169 -233l-25 -21l-198 270l303 270l17 -21l-259 -233h917l-169 233z" />
    <glyph glyph-name="arrowupdn" unicode="&#x2195;" horiz-adv-x="600" 
d="M243 -120l274 214l17 -21l-318 -250l-222 250l25 21l192 -214l165 849l-275 -214l-17 21l319 250l221 -250l-25 -21l-191 214z" />
    <glyph glyph-name="uni2196" unicode="&#x2196;" horiz-adv-x="600" 
d="M36 234l85 368l371 14l-3 -31l-321 -14l360 -446l-27 -23l-360 447l-75 -318z" />
    <glyph glyph-name="uni2197" unicode="&#x2197;" horiz-adv-x="574" 
d="M540 234l-32 -3l49 318l-534 -447l-19 23l534 446l-315 14l9 31l365 -14z" />
    <glyph glyph-name="uni2198" unicode="&#x2198;" horiz-adv-x="574" 
d="M574 410l-86 -368l-371 -14l4 31l320 14l-360 446l27 23l361 -447l74 318z" />
    <glyph glyph-name="uni2199" unicode="&#x2199;" horiz-adv-x="600" 
d="M70 410l31 3l-48 -318l533 447l19 -23l-534 -446l316 -14l-10 -31l-365 14z" />
    <glyph glyph-name="partialdiff" unicode="&#x2202;" horiz-adv-x="506" 
d="M301 466q63 0 102 -33.5t48 -89.5q10 61 2.5 118t-30 102.5t-73.5 79t-127 48.5l6 28q316 -56 244 -424q-25 -131 -102.5 -218t-187.5 -87q-89 0 -131 60.5t-24 154.5q22 112 99 186.5t174 74.5zM189 18q49 0 93 23t73 59t48.5 75t26.5 77q15 78 -20 132t-115 54
q-83 0 -149 -66t-86 -166q-15 -79 18.5 -133.5t110.5 -54.5z" />
    <glyph glyph-name="emptyset" unicode="&#x2205;" horiz-adv-x="791" 
d="M732 594q75 -101 46 -249q-30 -158 -153.5 -257t-280.5 -99q-147 0 -232 87l-78 -65l-17 21l78 65q-78 99 -48 248q31 158 154.5 257.5t280.5 99.5q145 0 232 -87l78 66l17 -22zM79 345q-27 -137 41 -227l567 475q-76 81 -210 81q-145 0 -257.5 -92t-140.5 -237zM349 17
q145 0 257 91t140 237q27 135 -41 227l-568 -475q77 -80 212 -80z" />
    <glyph glyph-name="product" unicode="&#x220f;" horiz-adv-x="507" 
d="M93 715h518l-158 -815h-32l153 787h-454l-153 -787h-32z" />
    <glyph glyph-name="summation" unicode="&#x2211;" horiz-adv-x="448" 
d="M110 687l-1 -1l235 -351l-4 -20l-380 -386v-1h467l-5 -28h-505l5 29l389 395v1l-242 361l6 29h500l-5 -28h-460z" />
    <glyph glyph-name="minus" unicode="&#x2212;" horiz-adv-x="517" 
d="M66 340h416l-5 -28h-416z" />
    <glyph glyph-name="radical" unicode="&#x221a;" horiz-adv-x="615" 
d="M32 298h104l70 -354h1l402 771h32l-425 -815h-32l-74 370h-83z" />
    <glyph glyph-name="infinity" unicode="&#x221e;" horiz-adv-x="699" 
d="M36 304q13 69 60 118t119 49q56 0 90.5 -37t58.5 -102q51 69 95 104t98 35q71 0 99 -47.5t14 -119.5q-14 -71 -60 -119t-116 -48q-53 0 -85.5 37t-56.5 102q-54 -71 -99.5 -105t-101.5 -34q-72 0 -100 49.5t-15 117.5zM68 304q-11 -58 9.5 -98.5t78.5 -40.5q49 0 89 33
t95 105q-24 68 -53.5 104t-77.5 36q-58 0 -93.5 -40t-47.5 -99zM551 443q-46 0 -83.5 -33t-92.5 -106q25 -69 51.5 -104t72.5 -35q57 0 92.5 40.5t46.5 98.5q12 61 -8 100t-79 39z" />
    <glyph glyph-name="integral" unicode="&#x222b;" horiz-adv-x="479" 
d="M200 -5q-15 -81 -45 -124t-91 -43q-37 0 -63 10l5 28q47 -11 78 -8t50.5 34.5t34.5 105.5l111 571q15 81 45 124t91 43q37 0 63 -10l-5 -28q-47 11 -78 8t-51 -34.5t-34 -105.5z" />
    <glyph glyph-name="approxequal" unicode="&#x2248;" horiz-adv-x="523" 
d="M388 343q-43 0 -121 23t-104 23q-31 0 -49 -13.5t-26 -43.5h-32q22 85 112 85q39 0 115 -23t110 -23t51.5 12t26.5 44h32q-23 -84 -115 -84zM361 205q-43 0 -121 23t-104 23q-31 0 -48.5 -13t-26.5 -44h-32q24 85 112 85q39 0 115 -23t110 -23t51.5 12.5t26.5 44.5h32
q-22 -85 -115 -85z" />
    <glyph glyph-name="notequal" unicode="&#x2260;" horiz-adv-x="504" 
d="M476 367h-165l-76 -113h219l-5 -28h-233l-84 -125h-33l84 125h-148l5 28h162l76 113h-216l6 28h230l79 117h33l-79 -117h151z" />
    <glyph glyph-name="lessequal" unicode="&#x2264;" horiz-adv-x="487" 
d="M421 159l-6 -32l-357 169l6 32l423 170l-6 -32l-383 -153v-1zM0 0l5 28h390l-5 -28h-390z" />
    <glyph glyph-name="greaterequal" unicode="&#x2265;" horiz-adv-x="487" 
d="M33 159l383 153v1l-323 153l6 32l357 -170l-6 -32l-423 -169zM392 0h-390l5 28h390z" />
    <glyph glyph-name="lozenge" unicode="&#x25ca;" horiz-adv-x="500" 
d="M316 715h38l132 -357l-269 -358h-38l-133 358zM78 358l125 -329h1l250 329l-125 328h-1z" />
    <glyph glyph-name="i.loclTRK" horiz-adv-x="163" 
d="M126 672q6 32 38 32q15 0 22 -9.5t5 -22.5q-8 -32 -40 -32q-15 0 -21.5 9.5t-3.5 22.5zM120 514h30l-100 -514h-30z" />
    <glyph glyph-name="logo" horiz-adv-x="898" 
d="M24 227q12 64 54 96.5t86 32.5q-44 0 -73 32.5t-17 96.5q10 51 49.5 86.5t87.5 35.5q47 0 78 -29q-22 34 -13 83q9 50 48.5 82t100.5 32q55 0 82.5 -36.5t19.5 -78.5q8 42 49.5 78.5t96.5 36.5q61 0 87.5 -32t17.5 -82q-9 -47 -45 -83q43 29 88 29q48 0 74.5 -35.5
t16.5 -86.5q-13 -65 -54.5 -97t-85.5 -32q44 0 73.5 -32.5t16.5 -96.5q-10 -52 -50.5 -87t-87.5 -35q-46 0 -77 29q21 -35 12 -83q-9 -50 -48.5 -82t-100.5 -32q-55 0 -82 36.5t-19 78.5q-8 -42 -50 -78.5t-97 -36.5q-61 0 -87.5 32t-17.5 82q9 48 46 83q-43 -29 -89 -29
q-47 0 -73.5 35t-16.5 87zM104 485q-11 -56 20.5 -85t98.5 -29h163q39 0 57 15.5t26 54.5l34 173q12 63 -12 97t-72 34q-95 0 -114 -91q-7 -31 9.5 -65.5t38.5 -58.5q8 2 12 2q17 0 26.5 -11.5t6.5 -27.5q-3 -17 -17.5 -29t-31.5 -12q-16 0 -25.5 12t-5.5 29q1 4 5 12
q-19 26 -49 49t-61 23q-44 0 -73 -28.5t-36 -63.5zM499 441q-7 -39 5.5 -54.5t51.5 -15.5h163q67 0 109.5 29t53.5 85q7 35 -11 63.5t-62 28.5q-57 0 -138 -72q0 -8 -1 -12q-4 -18 -17.5 -29.5t-29.5 -11.5q-17 0 -26.5 12t-6.5 29q3 16 17.5 27.5t31.5 11.5q4 0 12 -2
q85 68 96 124q9 45 -13.5 68t-66.5 23q-48 0 -85 -34t-49 -97zM54 227q-7 -35 11 -63.5t62 -28.5q57 0 138 72v12q4 18 17.5 29.5t29.5 11.5q17 0 26.5 -12t6.5 -29q-3 -16 -17.5 -27.5t-31.5 -11.5q-3 0 -11 2q-30 -23 -60 -58t-36 -66q-9 -45 13 -68t66 -23q48 0 85.5 34
t49.5 97l33 173q8 39 -4.5 54.5t-51.5 15.5h-163q-67 0 -109.5 -29t-53.5 -85zM433 98q-12 -64 11.5 -97.5t71.5 -33.5q44 0 75 23t40 68q11 56 -48 124q-8 -2 -13 -2q-17 0 -27 11.5t-6 27.5q4 17 18 29t31 12q16 0 25.5 -12t5.5 -29q-2 -8 -4 -12q19 -26 49 -49t61 -23
q44 0 73 28.5t36 63.5q11 56 -20.5 85t-98.5 29h-163q-39 0 -58 -15.5t-26 -54.5z" />
    </font>
</defs>
</svg>
