<?xml version="1.0" standalone="no"?>
<!DOCTYPE svg PUBLIC "-//W3C//DTD SVG 1.1//EN" "http://www.w3.org/Graphics/SVG/1.1/DTD/svg11.dtd" >
<svg xmlns="http://www.w3.org/2000/svg" xmlns:xlink="http://www.w3.org/1999/xlink" version="1.1">
<metadata>
Created by FontForge 20170731 at Wed Dec 10 15:24:15 2008
 By Aleksey,,,
Copyright (c) 2008 by TypeTogether. All rights reserved.
</metadata>
<defs>
<font id="Bree-Regular" horiz-adv-x="535" >
  <font-face 
    font-family="Bree Rg"
    font-weight="400"
    font-stretch="normal"
    units-per-em="1000"
    panose-1="2 0 5 3 0 0 0 2 0 4"
    ascent="720"
    descent="-280"
    x-height="503"
    cap-height="665"
    bbox="-109 -282 1000 918"
    underline-thickness="50"
    underline-position="-200"
    unicode-range="U+000D-FB04"
  />
<missing-glyph horiz-adv-x="500" 
 />
    <glyph glyph-name="ff" unicode="ff" horiz-adv-x="619" 
d="M183 410v-620h-119v740q0 38 6.5 66t24 56.5t56 44t95.5 15.5q73 0 153 -36q45 36 123 36q76 0 139 -35l-29 -80q-48 25 -95 25q-37 0 -53 -20.5t-16 -62.5v-36h148v-93h-148v-620h-119v620h-166zM183 539v-36h166v27q0 42 8 69q-55 23 -96 23q-42 0 -60 -19.5t-18 -63.5
z" />
    <glyph glyph-name="fi" unicode="fi" horiz-adv-x="525" 
d="M183 410v-620h-119v741q0 37 6.5 65.5t24.5 57t56.5 44t96.5 15.5q90 0 182 -45l-29 -79q-77 34 -134 34q-43 0 -63.5 -20t-20.5 -63v-37h282v-503h-119v410h-163z" />
    <glyph glyph-name="fl" unicode="fl" horiz-adv-x="607" 
d="M183 410v-620h-119v741q0 38 6.5 66t24 56.5t56 44t95.5 15.5q106 0 221 -41v-508q0 -47 12 -66t42 -19q26 0 63 16l26 -80q-48 -30 -119 -30q-39 0 -66.5 9.5t-42 22.5t-22.5 35.5t-10 41t-2 45.5v271h-165zM183 540v-37h165v103q-46 17 -87 17q-42 0 -60 -19.5
t-18 -63.5z" />
    <glyph glyph-name="ffi" unicode="ffi" horiz-adv-x="809" 
d="M467 410v-620h-119v620h-165v-620h-119v751q0 38 6.5 66t24 56.5t56 44t95.5 15.5q76 0 154 -37q47 37 132 37q90 0 182 -45l-29 -79q-77 34 -134 34q-43 0 -63.5 -20t-20.5 -63v-47h282v-503h-119v410h-163zM183 550v-47h165v38q0 40 8 67q-50 25 -95 25
q-42 0 -60 -19.5t-18 -63.5z" />
    <glyph glyph-name="ffl" unicode="ffl" horiz-adv-x="892" 
d="M468 410v-620h-119v620h-166v-620h-119v751q0 38 6.5 66t24 56.5t56 44t95.5 15.5q80 0 158 -37q59 37 140 37q95 0 208 -40v-519q0 -47 12 -66t42 -19q26 0 63 16l26 -80q-48 -30 -119 -30q-39 0 -66.5 9.5t-42 22.5t-22.5 35.5t-10 41t-2 45.5v271h-165zM349 503v38
q0 40 9 67q-52 25 -97 25q-44 0 -61 -21.5t-17 -72.5v-36h166zM468 550v-47h165v113q-46 17 -87 17q-78 0 -78 -83z" />
    <glyph glyph-name="tt" unicode="tt" horiz-adv-x="658" 
d="M371 695h119v-192h135v-93h-135v-254q0 -44 16 -61.5t49 -17.5q34 0 68 21l30 -77q-50 -35 -127 -35q-45 0 -76 11.5t-46 25.5t-23 41t-9 42.5t-1 45.5v258h-189v-254q0 -44 16 -61.5t49 -17.5q34 0 68 21l30 -77q-50 -35 -127 -35q-45 0 -76 11.5t-46 25.5t-23 41
t-9 42.5t-1 45.5v543h119v-192h189v192z" />
    <glyph glyph-name=".notdef" horiz-adv-x="500" 
 />
    <glyph glyph-name=".null" horiz-adv-x="0" 
 />
    <glyph glyph-name=".null" horiz-adv-x="0" 
 />
    <glyph glyph-name="nonmarkingreturn" horiz-adv-x="333" 
 />
    <glyph glyph-name="CR" unicode="&#xd;" horiz-adv-x="220" 
 />
    <glyph glyph-name="space" unicode=" " horiz-adv-x="210" 
 />
    <glyph glyph-name="exclam" unicode="!" horiz-adv-x="267" 
d="M79 529v119q0 47 55 47q57 0 57 -49v-117l-20 -349h-71zM65 50q0 27 19 46.5t48 19.5q32 0 51 -18.5t19 -46.5t-18.5 -48t-48.5 -20q-33 0 -51.5 19t-18.5 48z" />
    <glyph glyph-name="quotedbl" unicode="&#x22;" horiz-adv-x="349" 
d="M56 665h93l-10 -230h-73zM199 665h93l-9 -230h-74z" />
    <glyph glyph-name="numbersign" unicode="#" horiz-adv-x="534" 
d="M289 0l13 157h-110l-13 -157h-73l13 157h-101v66h107l14 156h-102v66h107l15 160h73l-15 -160h110l15 160h73l-15 -160h101v-66h-106l-14 -156h101v-66h-107l-13 -157h-73zM212 379l-14 -156h110l14 156h-110z" />
    <glyph glyph-name="dollar" unicode="$" 
d="M29 72l45 89q69 -45 156 -55v185q-42 13 -69 25.5t-54 33t-40.5 51.5t-13.5 72q0 77 49 123.5t128 57.5v93h75v-92q117 -12 197 -92l-65 -76q-70 57 -132 69v-169q42 -15 66 -26t56 -33t47.5 -54t15.5 -75q0 -84 -49 -131t-136 -57v-119h-75v117q-61 4 -117.5 23.5
t-83.5 39.5zM376 192q0 54 -71 79v-166q71 16 71 87zM169 481q0 -28 15.5 -44.5t45.5 -28.5v146q-61 -15 -61 -73z" />
    <glyph glyph-name="percent" unicode="%" horiz-adv-x="801" 
d="M615 351q72 0 113 -45t41 -134q0 -91 -41.5 -138.5t-117.5 -47.5q-75 0 -114.5 46t-39.5 136q0 88 43 135.5t116 47.5zM611 55q70 0 70 114q0 113 -68 113q-70 0 -70 -117q0 -110 68 -110zM193 657q72 0 113 -45t41 -134q0 -91 -41.5 -138.5t-117.5 -47.5
q-75 0 -114.5 46t-39.5 136q0 88 43 135.5t116 47.5zM189 361q70 0 70 114q0 113 -68 113q-70 0 -70 -117q0 -110 68 -110zM293 -9l-79 36l292 626l81 -34z" />
    <glyph glyph-name="ampersand" unicode="&#x26;" horiz-adv-x="803" 
d="M352 82q81 0 137.5 47t73.5 148h185v-91h-98q-74 -198 -306 -198q-80 0 -138 25t-88.5 67.5t-44 89t-13.5 98.5q0 117 68.5 200t191.5 83q71 0 114 -32.5t43 -90.5q0 -54 -33 -90q124 71 170 271l111 -33q-56 -229 -242 -304q-108 -44 -302 -47q9 -72 56 -107.5
t115 -35.5zM303 457q-45 0 -81 -36.5t-44 -113.5q92 4 137 26.5t45 73.5q0 20 -14 35t-43 15z" />
    <glyph glyph-name="quotesingle" unicode="'" horiz-adv-x="205" 
d="M56 665h93l-10 -230h-73z" />
    <glyph glyph-name="parenleft" unicode="(" horiz-adv-x="317" 
d="M69 271q0 227 132 458l95 -44q-109 -215 -109 -409q0 -188 108 -407l-94 -45q-132 224 -132 447z" />
    <glyph glyph-name="parenright" unicode=")" horiz-adv-x="317" 
d="M248 284q0 -227 -132 -458l-95 44q109 215 109 409q0 188 -108 407l94 45q132 -224 132 -447z" />
    <glyph glyph-name="asterisk" unicode="*" horiz-adv-x="412" 
d="M225 541q25 1 51 -10.5t43 -31.5q40 -46 7 -75q-33 -28 -74 19q-13 15 -21.5 42t-5.5 56zM239 575q8 24 28 44.5t44 29.5q58 22 73 -19q14 -41 -43 -63q-52 -17 -102 8zM187 541q3 -29 -5.5 -56t-21.5 -42q-41 -47 -74 -19q-33 29 7 75q17 20 43 31.5t51 10.5zM173 575
q-50 -25 -102 -8q-57 22 -43 63q15 41 73 19q24 -9 44 -29.5t28 -44.5zM206 603q-21 20 -31.5 46.5t-10.5 46.5q0 62 44 62q43 0 43 -62q0 -26 -12.5 -52t-32.5 -41z" />
    <glyph glyph-name="plus" unicode="+" 
d="M216 364v161h102v-161h154v-98h-154v-160h-102v160h-154v98h154z" />
    <glyph glyph-name="comma" unicode="," horiz-adv-x="225" 
d="M190 74l-103 -229l-63 19q18 147 30 199q12 53 51 53q23 0 47 -14t38 -28z" />
    <glyph glyph-name="hyphen" unicode="-" horiz-adv-x="322" 
d="M30 242v92h262v-92h-262z" />
    <glyph glyph-name="period" unicode="." horiz-adv-x="219" 
d="M40 53q0 30 18.5 49t49.5 19q33 0 52 -18.5t19 -48.5t-18.5 -49.5t-49.5 -19.5q-34 0 -52.5 18.5t-18.5 49.5z" />
    <glyph glyph-name="slash" unicode="/" horiz-adv-x="428" 
d="M110 -110l-102 38l306 827l104 -37z" />
    <glyph glyph-name="zero" unicode="0" 
d="M272 657q227 0 227 -329q0 -175 -59 -256.5t-175 -81.5t-173 80.5t-57 253.5q0 167 63 250t174 83zM267 86q54 0 83.5 53t29.5 187q0 129 -28.5 181t-82.5 52q-56 0 -84.5 -55.5t-28.5 -190.5q0 -124 28.5 -175.5t82.5 -51.5z" />
    <glyph glyph-name="one" unicode="1" horiz-adv-x="454" 
d="M87 92h118v422l-131 -68l-44 77l196 121h106l-8 -95v-457h114v-92h-351v92z" />
    <glyph glyph-name="two" unicode="2" horiz-adv-x="513" 
d="M102 479l-66 78q100 100 224 100q91 0 140.5 -48.5t49.5 -129.5q0 -93 -86 -190l-168 -192h283v-97h-444v77l218 251q41 48 56 75t15 65q0 40 -23.5 61t-60.5 21q-61 0 -138 -71z" />
    <glyph glyph-name="three" unicode="3" horiz-adv-x="515" 
d="M89 484l-60 76q39 38 103 67.5t136 29.5q85 0 131 -43t46 -110q0 -91 -79 -147q89 -76 89 -172q0 -82 -56.5 -139t-166.5 -57q-56 0 -112 15t-87 35l35 95q79 -44 160 -44q48 0 77 23.5t29 63.5q0 59 -58 117q-47 -20 -111 -32l-29 88q98 22 142.5 49.5t44.5 80.5
q0 74 -79 74q-35 0 -77 -19.5t-78 -50.5z" />
    <glyph glyph-name="four" unicode="4" horiz-adv-x="536" 
d="M347 436h70v-187h89v-95h-90v-154h-120v155h-266v83l198 421l95 -47l-171 -363h153v44z" />
    <glyph glyph-name="five" unicode="5" horiz-adv-x="507" 
d="M75 308l43 336h329v-99h-241l-20 -151q54 -4 99.5 -17t83.5 -36.5t60 -62.5t22 -90q0 -80 -56.5 -139.5t-170.5 -59.5q-56 0 -113 16.5t-89 36.5l40 92q83 -46 157 -46q55 0 81.5 27t26.5 71q0 122 -252 122z" />
    <glyph glyph-name="six" unicode="6" horiz-adv-x="534" 
d="M380 671l23 -90q-97 -15 -155 -71t-69 -141q63 41 136 41q82 0 128 -52t46 -142q0 -101 -56.5 -164t-161.5 -63q-112 0 -164.5 78t-52.5 209q0 73 16 135t52 117.5t101.5 92.5t156.5 50zM372 211q0 53 -23.5 83.5t-65.5 30.5q-26 0 -59.5 -12t-51.5 -27q-3 -93 21.5 -149
t81.5 -56q43 0 70 34.5t27 95.5z" />
    <glyph glyph-name="seven" unicode="7" horiz-adv-x="467" 
d="M23 545v99h430v-83q-217 -183 -217 -513v-48h-125v56q0 294 190 489h-278z" />
    <glyph glyph-name="eight" unicode="8" 
d="M51 159q0 111 120 182q-99 62 -99 149q0 72 54.5 119.5t144.5 47.5q95 0 141.5 -43.5t46.5 -106.5q0 -80 -93 -160q120 -71 120 -174q0 -79 -56.5 -131.5t-166.5 -52.5q-112 0 -162 50.5t-50 119.5zM360 170q0 71 -105 121q-89 -49 -89 -124q0 -36 25 -61.5t72 -25.5
q46 0 71.5 24t25.5 66zM267 572q-34 0 -57.5 -21.5t-23.5 -53.5q0 -60 90 -107q74 52 74 111q0 33 -23 52t-60 19z" />
    <glyph glyph-name="nine" unicode="9" 
d="M159 -12l-24 93q205 35 226 193q-58 -38 -138 -38q-82 0 -127.5 52t-45.5 142q0 100 57 163.5t163 63.5q112 0 163 -78t51 -209q0 -342 -325 -382zM167 434q0 -52 23 -81.5t65 -29.5q27 0 60.5 11.5t51.5 25.5q5 204 -101 204q-45 0 -72 -34t-27 -96z" />
    <glyph glyph-name="colon" unicode=":" horiz-adv-x="219" 
d="M40 53q0 30 18.5 49t49.5 19q33 0 52 -18.5t19 -48.5t-18.5 -49.5t-49.5 -19.5q-34 0 -52.5 18.5t-18.5 49.5zM40 428q0 30 18.5 49t49.5 19q33 0 52 -18.5t19 -48.5t-18.5 -49.5t-49.5 -19.5q-34 0 -52.5 18.5t-18.5 49.5z" />
    <glyph glyph-name="semicolon" unicode=";" horiz-adv-x="225" 
d="M54 428q0 30 18.5 49t49.5 19q33 0 52 -18.5t19 -48.5t-18.5 -49.5t-49.5 -19.5q-34 0 -52.5 18.5t-18.5 49.5zM190 74l-103 -229l-63 19q18 147 30 199q12 53 51 53q23 0 47 -14t38 -28z" />
    <glyph glyph-name="less" unicode="&#x3c;" 
d="M434 537l40 -89l-273 -126l275 -132l-42 -90l-366 180v78z" />
    <glyph glyph-name="equal" unicode="=" 
d="M470 450v-96h-405v96h405zM470 259v-97h-405v97h405z" />
    <glyph glyph-name="greater" unicode="&#x3e;" 
d="M70 448l40 89l366 -179v-78l-366 -180l-42 90l275 132z" />
    <glyph glyph-name="question" unicode="?" horiz-adv-x="383" 
d="M231 536q0 31 -18 48t-47 17q-42 0 -115 -27l-20 92q80 29 143 29q87 0 128 -40.5t41 -110.5q0 -62 -26.5 -99.5t-80.5 -77.5q-22 -16 -30.5 -23t-15.5 -21t-7 -33v-110h-92q-7 70 -7 105q0 56 16 86.5t61 63.5q3 2 15 11t15 12t12 11t12 13.5t8 14.5t6.5 18.5t1.5 20.5z
M66 50q0 27 19 46.5t48 19.5q32 0 51 -18.5t19 -46.5t-18.5 -48t-48.5 -20q-33 0 -51.5 19t-18.5 48z" />
    <glyph glyph-name="at" unicode="@" horiz-adv-x="953" 
d="M798 284q0 131 -75 208.5t-223 77.5q-164 0 -252.5 -99t-88.5 -255q0 -149 79.5 -241t222.5 -92q89 0 158 31l25 -73q-79 -34 -186 -34q-100 0 -177 33.5t-123 91t-68.5 128.5t-22.5 152q0 206 123 321t316 115q171 0 275 -94.5t104 -266.5q0 -140 -68 -213t-181 -74h-57
l-8 54l-3 1q-39 -58 -118 -58q-163 0 -163 204q0 116 56.5 180t160.5 64q72 0 150 -29v-293l4 -53q140 9 140 214zM555 361q-24 11 -57 11q-113 -1 -113 -168q0 -133 88 -133q82 0 82 96v194z" />
    <glyph glyph-name="A" unicode="A" horiz-adv-x="625" 
d="M130 0h-118l230 665h136l235 -665h-130l-60 176h-234zM306 553l-93 -285h186l-90 285h-3z" />
    <glyph glyph-name="B" unicode="B" horiz-adv-x="580" 
d="M70 665h225q216 0 216 -167q0 -92 -92 -140q59 -15 92.5 -55t33.5 -104q0 -97 -65.5 -148t-190.5 -51h-219v665zM192 303v-209h94q130 0 130 106q0 50 -32.5 76.5t-92.5 26.5h-99zM192 573v-181h74q62 0 91.5 25.5t29.5 67.5q0 50 -29.5 69t-84.5 19h-81z" />
    <glyph glyph-name="C" unicode="C" horiz-adv-x="590" 
d="M348 89q78 0 156 70l63 -80q-97 -91 -226 -91q-139 0 -217.5 87t-78.5 254q0 76 18 136.5t47.5 99t69 64.5t81 37t86.5 11q144 0 228 -124l-87 -63q-67 84 -147 84q-78 0 -124.5 -62.5t-46.5 -174.5q0 -118 44.5 -183t133.5 -65z" />
    <glyph glyph-name="D" unicode="D" horiz-adv-x="644" 
d="M70 0v665h217q147 0 229.5 -78t82.5 -231q0 -95 -25 -165.5t-68.5 -111t-97 -60t-116.5 -19.5h-222zM192 568v-472h102q86 0 134 62t48 180q0 230 -195 230h-89z" />
    <glyph glyph-name="E" unicode="E" horiz-adv-x="509" 
d="M70 0v665h401v-106h-279v-167h239v-106h-239v-180h286v-106h-408z" />
    <glyph glyph-name="F" unicode="F" horiz-adv-x="517" 
d="M70 665h426v-106h-304v-171h252v-106h-252v-282h-122v665z" />
    <glyph glyph-name="G" unicode="G" horiz-adv-x="629" 
d="M572 348v-296q-93 -64 -233 -64q-139 0 -216.5 86.5t-77.5 256.5q0 93 26 162.5t69.5 108t93 57t104.5 18.5q149 0 236 -120l-88 -66q-66 83 -149 83q-78 0 -122.5 -62t-44.5 -173q0 -252 174 -252q69 0 106 24v145h-94v92h216z" />
    <glyph glyph-name="H" unicode="H" horiz-adv-x="668" 
d="M475 665h123v-665h-123v287h-283v-287h-122v665h122v-272h283v272z" />
    <glyph glyph-name="I" unicode="I" horiz-adv-x="266" 
d="M194 0h-122v665h122v-665z" />
    <glyph glyph-name="J" unicode="J" horiz-adv-x="429" 
d="M4 40l51 87q51 -37 111 -37q74 0 74 91v484h122v-426q0 -71 -4 -105q-8 -69 -54.5 -107.5t-127.5 -38.5q-105 0 -172 52z" />
    <glyph glyph-name="K" unicode="K" horiz-adv-x="580" 
d="M559 665l-190 -271l207 -394h-138l-151 296l-96 -129v-167h-121v665h121v-334l238 334h130z" />
    <glyph glyph-name="L" unicode="L" horiz-adv-x="500" 
d="M71 0v665h122v-559h282v-106h-404z" />
    <glyph glyph-name="M" unicode="M" horiz-adv-x="802" 
d="M402 230l171 435h133l36 -665h-116l-25 458h-2l-154 -384h-92l-150 380h-2l-25 -454h-116l38 665h136l166 -435h2z" />
    <glyph glyph-name="N" unicode="N" horiz-adv-x="666" 
d="M475 665h121v-665h-117l-287 469h-2v-469h-120v665h123l280 -462h2v462z" />
    <glyph glyph-name="O" unicode="O" horiz-adv-x="663" 
d="M618 331q0 -168 -77 -255.5t-212 -87.5q-136 0 -210 87t-74 256q0 92 26 161.5t69.5 108.5t94 57.5t105.5 18.5q58 0 106.5 -19t88 -58.5t61.5 -108t22 -160.5zM170 336q0 -247 166 -247q44 0 75.5 20t49 55t25.5 75.5t8 88.5q0 42 -7.5 82t-24 78.5t-50 62t-78.5 23.5
q-57 0 -95.5 -35.5t-53.5 -87t-15 -115.5z" />
    <glyph glyph-name="P" unicode="P" horiz-adv-x="568" 
d="M192 233v-233h-122v665h229q112 0 174.5 -52.5t62.5 -151.5q0 -111 -71 -169.5t-188 -58.5h-85zM192 330h72q146 0 146 119q0 72 -37.5 95.5t-119.5 23.5h-61v-238z" />
    <glyph glyph-name="Q" unicode="Q" horiz-adv-x="659" 
d="M295 317l-21 -70q-94 1 -161.5 51.5t-67.5 147.5q0 103 72.5 167t185.5 64q126 0 208 -79t82 -236q0 -153 -80 -275q75 -69 133.5 -104.5t139.5 -47.5l-24 -94q-156 22 -315 171q-99 -89 -212 -89q-88 0 -129.5 40.5t-41.5 96.5q0 63 48.5 101t124.5 38q92 0 180 -52
q22 36 36.5 92.5t14.5 105.5q0 106 -40 168.5t-128 62.5q-59 0 -98 -35t-39 -94q0 -55 32.5 -85t99.5 -45zM365 72q-62 43 -119 43q-72 0 -72 -52q0 -22 15.5 -37t49.5 -15q69 0 126 61z" />
    <glyph glyph-name="R" unicode="R" horiz-adv-x="595" 
d="M192 262v-262h-122v665h223q116 0 178 -43t62 -141q0 -69 -33.5 -113t-81.5 -63q34 -12 55 -61l110 -244h-130l-96 210q-23 52 -66 52h-99zM192 357h100q55 0 86 29.5t31 85.5q0 60 -34 78t-113 18h-70v-211z" />
    <glyph glyph-name="S" unicode="S" horiz-adv-x="537" 
d="M29 52l45 100q34 -22 86 -40t99 -18q107 0 107 92q0 43 -31.5 63.5t-95.5 37.5q-43 12 -72.5 24.5t-59 34t-44.5 55.5t-15 80q0 90 62.5 143t162.5 53q67 0 127.5 -26t101.5 -68l-65 -81q-86 71 -164 71q-40 0 -69 -19.5t-29 -61.5t31.5 -62.5t101.5 -41.5q33 -10 55 -19
t49.5 -25.5t43.5 -36t27.5 -49.5t11.5 -67q0 -97 -64 -150t-174 -53q-67 0 -132 21t-96 43z" />
    <glyph glyph-name="T" unicode="T" horiz-adv-x="538" 
d="M17 665h504v-106h-194v-559h-121v559h-189v106z" />
    <glyph glyph-name="U" unicode="U" horiz-adv-x="629" 
d="M65 665h121v-448q0 -127 131 -127q57 0 91 31t34 91v453h122v-470q0 -97 -68.5 -152t-182.5 -55q-125 0 -186.5 53.5t-61.5 169.5v454z" />
    <glyph glyph-name="V" unicode="V" horiz-adv-x="592" 
d="M358 0h-127l-221 665h124l160 -518h5l163 518h120z" />
    <glyph glyph-name="W" unicode="W" horiz-adv-x="811" 
d="M515 0l-107 433h-3l-103 -433h-139l-146 665h122l103 -496h4l102 443h124l104 -444h2l96 497h120l-143 -665h-136z" />
    <glyph glyph-name="X" unicode="X" horiz-adv-x="610" 
d="M451 665h139l-210 -313l232 -352h-141l-166 252l-165 -252h-143l235 351l-207 314h143l141 -224z" />
    <glyph glyph-name="Y" unicode="Y" horiz-adv-x="556" 
d="M427 665h129l-218 -411v-254h-122v254l-216 411h135l145 -289h4z" />
    <glyph glyph-name="Z" unicode="Z" horiz-adv-x="505" 
d="M471 584l-305 -489h316v-95h-455v83l302 487h-296v95h438v-81z" />
    <glyph glyph-name="bracketleft" unicode="[" horiz-adv-x="300" 
d="M80 -166v880h210v-81h-100v-718h100v-81h-210z" />
    <glyph glyph-name="backslash" unicode="\" horiz-adv-x="428" 
d="M3 718l103 38l307 -828l-103 -37z" />
    <glyph glyph-name="bracketright" unicode="]" horiz-adv-x="300" 
d="M220 714v-880h-210v81h100v718h-100v81h210z" />
    <glyph glyph-name="asciicircum" unicode="^" horiz-adv-x="553" 
d="M509 301l-101 -16l-130 267l-131 -267l-98 17l187 372h87z" />
    <glyph glyph-name="underscore" unicode="_" horiz-adv-x="500" 
d="M0 -147v73h500v-73h-500z" />
    <glyph glyph-name="grave" unicode="`" horiz-adv-x="500" 
d="M233 796l117 -192l-39 -33q-110 98 -127 115q-27 28 -27 50q0 40 76 60z" />
    <glyph glyph-name="a" unicode="a" horiz-adv-x="537" 
d="M475 483v-387l9 -96h-103l-7 53l-4 1q-46 -67 -137 -67q-101 0 -148.5 65t-47.5 178q0 135 66.5 211.5t193.5 76.5q85 0 178 -35zM357 159v259q-28 13 -75 13q-67 0 -97 -54t-30 -143q0 -162 104 -162q44 0 71 26.5t27 60.5z" />
    <glyph glyph-name="b" unicode="b" horiz-adv-x="534" 
d="M63 28v667h119v-219q45 42 118 42q94 0 146.5 -63t52.5 -179q0 -144 -61 -217.5t-176 -73.5q-52 0 -109.5 12.5t-89.5 30.5zM182 356v-266q38 -20 85 -20q114 0 114 190q0 171 -112 171q-36 0 -61.5 -21t-25.5 -54z" />
    <glyph glyph-name="c" unicode="c" horiz-adv-x="455" 
d="M283 81q56 0 115 43l45 -80q-71 -58 -174 -58q-111 0 -171.5 68t-60.5 195q0 72 21 126.5t55.5 84t73.5 44t81 14.5q119 0 184 -95l-75 -62q-50 62 -107 62q-52 0 -83 -43t-31 -126q0 -81 31.5 -127t95.5 -46z" />
    <glyph glyph-name="d" unicode="d" horiz-adv-x="537" 
d="M279 518q39 0 78 -12v189h118v-597l9 -98h-102l-8 54l-4 1q-47 -70 -136 -70q-56 0 -96 20.5t-61.5 57t-30.5 78t-9 91.5q0 130 64 208t178 78zM357 156v259q-36 16 -75 16q-66 0 -96.5 -53t-30.5 -135q0 -170 103 -170q43 0 71 26t28 57z" />
    <glyph glyph-name="e" unicode="e" horiz-adv-x="462" 
d="M281 518q74 0 116.5 -36.5t42.5 -102.5q0 -44 -21 -77t-51.5 -51t-72 -29t-73 -14.5t-65.5 -3.5q3 -54 34.5 -91t91.5 -37q64 0 126 44l37 -79q-20 -18 -67.5 -37t-108.5 -19q-119 0 -176 68.5t-57 187.5q0 116 65 196.5t179 80.5zM334 374q0 27 -16.5 43t-43.5 16
q-56 0 -87.5 -45t-33.5 -107q24 0 52 4t58.5 13t50.5 29t20 47z" />
    <glyph glyph-name="f" unicode="f" horiz-adv-x="334" 
d="M183 410v-620h-119v741q0 28 3 50t13.5 48t28.5 43.5t50.5 29t77.5 11.5q76 0 139 -35l-29 -80q-48 25 -95 25q-37 0 -53 -20.5t-16 -62.5v-37h148v-93h-148z" />
    <glyph glyph-name="g" unicode="g" horiz-adv-x="536" 
d="M253 -264q-82 0 -125 35.5t-43 98.5q0 103 111 178q-70 10 -115 62.5t-45 152.5q0 123 68.5 189t178.5 66q107 0 194 -37v-381q0 -92 -3 -128q-19 -236 -221 -236zM358 210v209q-35 12 -77 12q-61 0 -93.5 -43.5t-32.5 -116.5q0 -33 3.5 -57.5t13.5 -49.5t33 -38.5
t57 -13.5q41 0 68.5 26.5t27.5 71.5zM194 -111q0 -66 69 -66q55 0 75.5 45.5t20.5 131.5v65q-165 -83 -165 -176z" />
    <glyph glyph-name="h" unicode="h" horiz-adv-x="534" 
d="M179 0h-119v695h119v-234q50 57 135 57q161 0 161 -176v-342h-119v321q0 50 -16 77.5t-61 27.5q-42 0 -71 -30t-29 -69v-327z" />
    <glyph glyph-name="i" unicode="i" horiz-adv-x="244" 
d="M184 0h-119v503h119v-503zM55 647q0 28 19.5 47.5t49.5 19.5t49.5 -19.5t19.5 -47.5q0 -29 -19.5 -47.5t-49.5 -18.5q-31 0 -50 18.5t-19 47.5z" />
    <glyph glyph-name="j" unicode="j" horiz-adv-x="244" 
d="M65 -39v542h119v-537q0 -41 -5.5 -71t-21 -59t-49 -44.5t-84.5 -15.5q-72 0 -128 35l36 83q39 -21 74 -21q30 0 44.5 20t14.5 68zM58 647q0 28 19 47.5t50 19.5q30 0 49.5 -19.5t19.5 -47.5q0 -29 -19.5 -47.5t-50.5 -18.5q-30 0 -49 18.5t-19 47.5z" />
    <glyph glyph-name="k" unicode="k" horiz-adv-x="496" 
d="M473 397q0 -48 -26 -96t-81 -82l117 -219h-134l-93 175q-36 -8 -74 -11v-164h-119v695h119v-288h3q25 48 67.5 79.5t103.5 31.5q50 0 83.5 -30t33.5 -91zM349 379q0 44 -37 44q-46 0 -84.5 -56.5t-44.5 -117.5q77 7 121.5 42t44.5 88z" />
    <glyph glyph-name="l" unicode="l" horiz-adv-x="323" 
d="M63 694h119v-530q0 -47 12 -66t42 -19q26 0 63 16l26 -80q-48 -30 -119 -30q-39 0 -66.5 9.5t-42 22.5t-22.5 35.5t-10 41t-2 45.5v555z" />
    <glyph glyph-name="m" unicode="m" horiz-adv-x="814" 
d="M184 0h-119v416l-9 87h99l10 -63q51 78 145 78q99 0 139 -80q46 80 146 80q77 0 118 -45t41 -132v-341h-119v317q0 52 -15.5 80.5t-60.5 28.5q-40 0 -65 -29t-25 -69v-328h-119v317q0 24 -2.5 40.5t-9.5 33.5t-23 26t-41 9q-41 0 -65.5 -30t-24.5 -72v-324z" />
    <glyph glyph-name="n" unicode="n" horiz-adv-x="538" 
d="M183 0h-119v416l-8 87h100l10 -63q55 78 154 78q76 0 117.5 -43.5t41.5 -130.5v-344h-119v318q0 53 -15.5 80.5t-59.5 27.5t-73 -30.5t-29 -70.5v-325z" />
    <glyph glyph-name="o" unicode="o" horiz-adv-x="520" 
d="M261 73q53 0 78.5 47t25.5 129q0 181 -102 181q-53 0 -79.5 -44.5t-26.5 -119.5q0 -193 104 -193zM36 252q0 74 21.5 128.5t57 83t74 41.5t80.5 13q27 0 51.5 -4t56.5 -19.5t55 -41t39 -74t16 -114.5q0 -138 -65 -209t-169 -71q-103 0 -160 67t-57 200z" />
    <glyph glyph-name="p" unicode="p" horiz-adv-x="534" 
d="M181 14v-224h-119v695q108 33 200 33q235 0 235 -262q0 -130 -56.5 -200.5t-155.5 -70.5q-57 0 -104 29zM377 247q0 176 -137 176q-30 0 -59 -7v-308q38 -25 85 -25q59 0 85 47.5t26 116.5z" />
    <glyph glyph-name="q" unicode="q" horiz-adv-x="533" 
d="M471 481v-691h-119v237h-3q-52 -41 -118 -41q-194 0 -194 252q0 129 66.5 204.5t182.5 75.5q91 0 185 -37zM352 155v264q-27 8 -59 8q-64 0 -100.5 -50.5t-36.5 -126.5q0 -31 1 -52t6.5 -47t16 -41.5t29.5 -26.5t46 -11q43 0 70 26.5t27 56.5z" />
    <glyph glyph-name="r" unicode="r" horiz-adv-x="366" 
d="M184 316v-316h-119v422l-9 81h98l12 -73q16 42 49 65t72 23q46 0 80 -20l-21 -101q-37 20 -71 20q-40 0 -64.5 -28.5t-26.5 -72.5z" />
    <glyph glyph-name="s" unicode="s" horiz-adv-x="419" 
d="M20 36l35 85q75 -48 143 -48q34 0 55 16t21 48q0 31 -21 45.5t-64 27.5q-37 11 -56.5 18.5t-46.5 24t-39.5 43t-12.5 63.5q0 75 53 117t130 42q110 0 181 -71l-57 -70q-62 54 -122 54q-29 0 -49.5 -15t-20.5 -43q0 -22 14 -37t29.5 -21t45.5 -15q35 -11 56 -20t47 -26.5
t38.5 -44.5t12.5 -64q0 -76 -51.5 -118t-137.5 -42q-58 0 -108.5 16.5t-74.5 34.5z" />
    <glyph glyph-name="t" unicode="t" horiz-adv-x="350" 
d="M63 695h119v-192h135v-93h-135v-254q0 -44 16 -61.5t49 -17.5q34 0 68 21l30 -77q-50 -35 -127 -35q-45 0 -76 11.5t-46 25.5t-23 41t-9 42.5t-1 45.5v543z" />
    <glyph glyph-name="u" unicode="u" horiz-adv-x="540" 
d="M358 503h119v-419l8 -84h-102l-7 59h-4q-50 -73 -145 -73q-165 0 -165 176v341h119v-319q0 -52 16 -79t62 -27q40 0 69.5 29.5t29.5 66.5v329z" />
    <glyph glyph-name="v" unicode="v" horiz-adv-x="519" 
d="M326 503h118q33 -116 33 -220q0 -140 -61.5 -218.5t-178.5 -78.5q-89 0 -132 43t-43 135v339h120v-315q0 -37 3 -57t19 -36t46 -16q58 0 84 56.5t26 139.5q0 92 -34 228z" />
    <glyph glyph-name="w" unicode="w" horiz-adv-x="785" 
d="M591 503h117q35 -116 35 -218q0 -141 -54.5 -220t-162.5 -79q-102 0 -135 82q-58 -82 -161 -82q-168 0 -168 174v343h119v-312q0 -37 3.5 -58t19 -38t45.5 -17q39 0 65 28.5t26 67.5v329h119v-311q0 -23 1 -36.5t4.5 -30.5t10 -25.5t19.5 -15t31 -6.5q101 0 101 203
q0 90 -35 222z" />
    <glyph glyph-name="x" unicode="x" horiz-adv-x="471" 
d="M345 503h120l-162 -242l171 -261h-129l-109 173l-111 -173h-128l176 260l-157 243h127l98 -160z" />
    <glyph glyph-name="y" unicode="y" horiz-adv-x="536" 
d="M476 63q0 -86 -8 -139q-14 -91 -69 -140.5t-147 -49.5q-79 0 -120.5 35t-41.5 96q0 97 105 171q-133 19 -133 162v305h119v-284q0 -58 15.5 -85.5t69.5 -27.5q43 0 67.5 23t24.5 65v309h118v-440zM199 -116q0 -64 67 -64q93 0 93 155v84q-77 -37 -118.5 -77t-41.5 -98z
" />
    <glyph glyph-name="z" unicode="z" horiz-adv-x="410" 
d="M114 -94q0 -36 18.5 -59t56.5 -23q47 0 72.5 35.5t25.5 89.5q0 77 -58 115q-55 -29 -85 -71.5t-30 -86.5zM395 503v-75l-216 -221l61 -28q156 -72 156 -217q0 -99 -57.5 -163t-156.5 -64q-86 0 -130.5 42t-44.5 115q0 136 154 218q-21 10 -96 43v72l182 185h-227v93h375z
" />
    <glyph glyph-name="braceleft" unicode="{" horiz-adv-x="315" 
d="M148 281q38 -13 52 -39.5t14 -81.5q0 -23 -5.5 -88t-5.5 -88q0 -39 9.5 -57t40.5 -18q19 0 39 5l10 -76q-42 -9 -79 -9q-61 0 -94.5 34t-33.5 93q0 30 10 170q3 58 -9.5 85.5t-52.5 32.5v74q41 5 53.5 31t10.5 88q-1 28 -4 80.5t-4 61.5q-3 69 30.5 104.5t95.5 35.5
q40 0 80 -10l-10 -74q-28 5 -40 5q-31 0 -40.5 -15.5t-9.5 -54.5q0 -22 4.5 -81t4.5 -82q0 -51 -15 -81t-51 -45z" />
    <glyph glyph-name="bar" unicode="|" horiz-adv-x="274" 
d="M85 -88v835h104v-835h-104z" />
    <glyph glyph-name="braceright" unicode="}" horiz-adv-x="315" 
d="M167 281q-36 15 -51 45t-15 81q0 23 4.5 82t4.5 81q0 39 -9.5 54.5t-40.5 15.5q-12 0 -40 -5l-10 74q40 10 80 10q62 0 95.5 -35.5t30.5 -104.5q0 -9 -3.5 -61.5t-4.5 -80.5q-2 -62 10.5 -88t53.5 -31v-74q-40 -5 -52.5 -32.5t-9.5 -85.5q10 -140 10 -170
q0 -59 -33.5 -93t-94.5 -34q-37 0 -79 9l10 76q20 -5 39 -5q31 0 40.5 18t9.5 57q0 23 -5.5 88t-5.5 88q0 55 14 81.5t52 39.5z" />
    <glyph glyph-name="asciitilde" unicode="~" horiz-adv-x="598" 
d="M405 218q-46 0 -112 36.5t-90 36.5q-41 0 -84 -65l-72 56q63 106 146 106q43 0 108.5 -38t95.5 -38q45 0 81 64l73 -54q-49 -104 -146 -104z" />
    <glyph glyph-name="uni00A0" unicode="&#xa0;" horiz-adv-x="207" 
 />
    <glyph glyph-name="exclamdown" unicode="&#xa1;" horiz-adv-x="267" 
d="M188 -28v-119q0 -47 -55 -47q-57 0 -57 49v117l20 349h71zM202 451q0 -27 -19 -46.5t-48 -19.5q-32 0 -51 18.5t-19 46.5t18.5 48t48.5 20q33 0 51.5 -19t18.5 -48z" />
    <glyph glyph-name="cent" unicode="&#xa2;" 
d="M270 -60v111q-94 11 -144.5 77t-50.5 181q0 123 56 187.5t139 76.5v112h75v-112q92 -16 145 -92l-75 -62q-36 42 -70 55v-329q43 7 91 42l45 -80q-55 -46 -136 -56v-111h-75zM194 314q0 -131 76 -161v321q-76 -28 -76 -160z" />
    <glyph glyph-name="sterling" unicode="&#xa3;" horiz-adv-x="552" 
d="M38 143v84h101l50 234q23 106 74.5 151t133.5 45q88 0 163 -65l-58 -72q-53 43 -103 43q-44 0 -64.5 -26t-33.5 -87l-48 -223h161v-83h-177l-18 -79q-17 -80 -79 -132l1 -2q47 14 77 14q31 0 88.5 -12t93.5 -12q45 0 94 14l-13 -97q-48 -9 -87 -9q-49 0 -130 15.5
t-126 15.5q-69 0 -133 -29v93q38 18 60.5 46.5t34.5 76.5l23 96h-85z" />
    <glyph glyph-name="yen" unicode="&#xa5;" horiz-adv-x="536" 
d="M207 145h-154v76h154v75h-154v76h112l-142 272h124l123 -253h5l121 253h120l-145 -272h110v-76h-153v-75h153v-76h-153v-145h-121v145z" />
    <glyph glyph-name="brokenbar" unicode="&#xa6;" horiz-adv-x="275" 
d="M85 -88v374h105v-374h-105zM85 403v344h105v-344h-105z" />
    <glyph glyph-name="section" unicode="&#xa7;" horiz-adv-x="552" 
d="M52 379l86 15q-2 -59 14.5 -105t42 -73t65.5 -52q3 -2 25.5 -16t27 -17.5t23.5 -16.5t24 -19t19 -19.5t18.5 -24.5t11.5 -26t9.5 -31.5t2.5 -35.5q0 -24 -8 -49t-26.5 -52t-56.5 -44t-90 -17q-81 0 -143 31l26 82q52 -26 105 -26q40 0 62 20t22 51q0 13 -3 24.5
t-11.5 22.5t-15 18.5t-22 18.5t-23.5 16l-28 17.5l-28 17.5q-44 28 -72.5 60.5t-46 91.5t-10.5 138zM483 84l-86 -15q2 59 -14.5 105t-42 73t-65.5 52q-3 2 -25.5 16t-27 17.5t-23.5 16.5t-24 19t-19 19.5t-18.5 24.5t-11.5 26t-9.5 31.5t-2.5 35.5q0 24 8 49t26.5 52
t56.5 44t90 17q81 0 143 -31l-26 -82q-52 26 -105 26q-40 0 -62 -20t-22 -51q0 -13 3 -24.5t11.5 -22.5t15 -18.5t22 -18.5t23.5 -16l28 -17.5l28 -17.5q44 -28 72.5 -60.5t46 -91.5t10.5 -138z" />
    <glyph glyph-name="dieresis" unicode="&#xa8;" horiz-adv-x="500" 
d="M288 666q0 26 17.5 43.5t45.5 17.5q27 0 45 -17.5t18 -43.5q0 -27 -17.5 -44.5t-45.5 -17.5q-29 0 -46 17.5t-17 44.5zM90 666q0 26 17.5 43.5t46.5 17.5q27 0 45 -17.5t18 -43.5q0 -27 -18 -44.5t-46 -17.5t-45.5 17.5t-17.5 44.5z" />
    <glyph glyph-name="copyright" unicode="&#xa9;" horiz-adv-x="814" 
d="M753 332q0 -151 -99 -251.5t-252 -100.5q-157 0 -249.5 96t-92.5 250q0 148 96.5 249t245.5 101q153 0 252 -100t99 -244zM674 329q0 118 -77.5 196.5t-193.5 78.5q-117 0 -190.5 -79.5t-73.5 -198.5q0 -125 73.5 -199.5t190.5 -74.5t194 78.5t77 198.5zM409 198
q45 0 96 42l40 -54q-54 -56 -138 -56q-86 0 -130.5 53.5t-44.5 147.5q0 55 16.5 96t43.5 62t55 31t58 10q95 0 150 -75l-56 -44q-46 50 -96 50q-38 0 -64.5 -30.5t-26.5 -98.5q0 -134 97 -134z" />
    <glyph glyph-name="ordfeminine" unicode="&#xaa;" horiz-adv-x="414" 
d="M358 586v-249l9 -73h-82l-5 39h-4q-38 -47 -93 -47q-69 0 -102 46.5t-33 116.5q0 88 47.5 139.5t134.5 51.5q63 0 128 -24zM266 367v168q-22 8 -46 8q-40 0 -60 -32t-20 -82q0 -107 66 -107q26 0 43 14.5t17 30.5z" />
    <glyph glyph-name="guillemotleft" unicode="&#xab;" horiz-adv-x="530" 
d="M291 408l-125 -145l117 -162l-46 -42q-45 37 -99.5 89.5t-73.5 82.5q-13 19 -13 35q0 20 29 49q68 65 165 138zM495 408l-125 -145l117 -162l-46 -42q-45 37 -99.5 89.5t-73.5 82.5q-13 19 -13 35q0 20 29 49q68 65 165 138z" />
    <glyph glyph-name="logicalnot" unicode="&#xac;" 
d="M385 171v144h-333v97h429v-241h-96z" />
    <glyph glyph-name="uni00AD" unicode="&#xad;" horiz-adv-x="322" 
d="M42 244v93h237v-93h-237z" />
    <glyph glyph-name="registered" unicode="&#xae;" horiz-adv-x="463" 
d="M287 459l36 -81h-50l-31 70q-6 14 -16 14h-19v-84h-45v211h76q70 0 70 -57q0 -42 -34 -58q8 -4 13 -15zM207 498h16q36 0 36 30q0 25 -36 25h-16v-55zM433 483q0 -86 -57 -141.5t-147 -55.5q-91 0 -145 54.5t-54 140.5q0 85 56 140.5t143 55.5q89 0 146.5 -55.5
t57.5 -138.5zM380 481q0 65 -43 107.5t-108 42.5q-66 0 -106 -42t-40 -108t41 -108t105 -42q67 0 109 41t42 109z" />
    <glyph glyph-name="macron" unicode="&#xaf;" horiz-adv-x="500" 
d="M104 619v86h287v-86h-287z" />
    <glyph glyph-name="degree" unicode="&#xb0;" horiz-adv-x="298" 
d="M35 596q0 51 32 84.5t82 33.5q52 0 83 -32.5t31 -79.5q0 -53 -32 -87t-85 -34q-52 0 -81.5 32.5t-29.5 82.5zM97 596q0 -26 13.5 -42.5t38.5 -16.5t38 16.5t13 42.5q0 61 -51 61q-52 0 -52 -61z" />
    <glyph glyph-name="plusminus" unicode="&#xb1;" 
d="M214 364v156h102v-156h154v-98h-154v-134h154v-97h-405v97h149v134h-149v98h149z" />
    <glyph glyph-name="twosuperior" unicode="&#xb2;" horiz-adv-x="377" 
d="M87 623l-44 56q74 58 151 58q60 0 92 -28t32 -72q0 -58 -56 -120l-90 -104h159v-72h-275v58l124 142q44 53 44 82q0 39 -46 39q-38 0 -91 -39z" />
    <glyph glyph-name="threesuperior" unicode="&#xb3;" horiz-adv-x="377" 
d="M92 635l-35 56q75 46 148 46q55 0 84.5 -26.5t29.5 -67.5q0 -52 -42 -87q48 -56 48 -106q0 -48 -36 -81t-107 -33q-72 0 -128 29l24 67q50 -26 103 -26q59 0 59 43q0 20 -30 69q-33 -12 -80 -21l-19 58q39 9 65 18q18 6 28 11t19 16.5t9 27.5q0 37 -46 37q-36 0 -94 -30z
" />
    <glyph glyph-name="acute" unicode="&#xb4;" horiz-adv-x="500" 
d="M148 604l116 192q76 -20 76 -60q0 -20 -27 -49q-11 -12 -126 -116z" />
    <glyph glyph-name="mu" unicode="&#xb5;" horiz-adv-x="584" 
d="M504 503v-400q0 -33 26 -33q14 0 39 12l14 -70q-43 -24 -91 -24q-75 0 -79 81q-16 -37 -51 -60t-78 -23q-70 0 -103 49v-251h-107v719h112v-289q0 -70 22 -107t75 -37q51 0 79 43.5t28 117.5v272h114z" />
    <glyph glyph-name="paragraph" unicode="&#xb6;" horiz-adv-x="527" 
d="M342 62v517h-72v-364q-95 2 -157 56.5t-62 158.5q0 122 66 178.5t175 56.5h165v-584q0 -131 -51 -194t-194 -92l-25 98q88 21 121.5 59t33.5 110z" />
    <glyph glyph-name="periodcentered" unicode="&#xb7;" horiz-adv-x="309" 
d="M85 307q0 30 18.5 49t49.5 19q33 0 52 -18.5t19 -48.5t-18.5 -49.5t-49.5 -19.5q-34 0 -52.5 18.5t-18.5 49.5z" />
    <glyph glyph-name="cedilla" unicode="&#xb8;" horiz-adv-x="500" 
d="M212 3h57l-18 -69q41 -3 65.5 -23.5t24.5 -55.5q0 -50 -35 -73.5t-83 -23.5q-49 0 -90 18l16 54q39 -13 67 -13q50 0 50 35q0 22 -22.5 30t-67.5 8z" />
    <glyph glyph-name="onesuperior" unicode="&#xb9;" horiz-adv-x="377" 
d="M85 411h75v228l-81 -36l-29 57l125 71h79l-6 -69v-251h70v-70h-233v70z" />
    <glyph glyph-name="ordmasculine" unicode="&#xba;" horiz-adv-x="406" 
d="M202 324q67 0 67 108q0 57 -15.5 84.5t-52.5 27.5q-33 0 -49 -27.5t-16 -70.5q0 -122 66 -122zM42 430q0 50 15 87t40.5 56.5t52.5 28.5t56 9q64 0 110.5 -38.5t46.5 -129.5q0 -89 -45 -138t-120 -49q-74 0 -115 46.5t-41 127.5z" />
    <glyph glyph-name="guillemotright" unicode="&#xbb;" horiz-adv-x="530" 
d="M159 263l-124 145l45 45q88 -66 166 -138q29 -29 29 -49q0 -16 -13 -35q-19 -30 -74 -83t-100 -89l-46 42zM363 263l-124 145l45 45q88 -66 166 -138q29 -29 29 -49q0 -16 -13 -35q-19 -30 -74 -83t-100 -89l-46 42z" />
    <glyph glyph-name="onequarter" unicode="&#xbc;" horiz-adv-x="825" 
d="M62 331h75v228l-81 -36l-29 57l125 71h79l-6 -69v-251h70v-70h-233v70zM300 -9l-76 35l292 626l78 -33zM672 258h53v-106h61v-67h-61v-85h-87v87h-162v54l122 262l69 -32l-102 -219h78z" />
    <glyph glyph-name="onehalf" unicode="&#xbd;" horiz-adv-x="825" 
d="M64 331h75v228l-81 -36l-29 57l125 71h79l-6 -69v-251h70v-70h-233v70zM293 -9l-76 35l292 626l78 -33zM540 282l-44 56q74 58 151 58q60 0 92 -28t32 -72q0 -58 -56 -120l-90 -104h159v-72h-275v58l124 142q44 53 44 82q0 39 -46 39q-38 0 -91 -39z" />
    <glyph glyph-name="threequarters" unicode="&#xbe;" horiz-adv-x="825" 
d="M73 555l-35 56q75 46 148 46q55 0 84.5 -26.5t29.5 -67.5q0 -52 -42 -87q48 -56 48 -106q0 -48 -36 -81t-107 -33q-72 0 -128 29l24 67q50 -26 103 -26q59 0 59 43q0 20 -30 69q-33 -12 -80 -21l-19 58q39 9 65 18q18 6 28 11t19 16.5t9 27.5q0 37 -46 37q-36 0 -94 -30z
M310 -9l-76 35l292 626l78 -33zM680 258h53v-106h61v-67h-61v-85h-87v87h-162v54l122 262l69 -32l-102 -219h78z" />
    <glyph glyph-name="questiondown" unicode="&#xbf;" horiz-adv-x="377" 
d="M149 -35q0 -31 18 -48t47 -17q42 0 115 27l20 -92q-80 -29 -143 -29q-87 0 -128 40.5t-41 110.5q0 62 26.5 99.5t80.5 77.5q22 16 30.5 23t15.5 21t7 33v110h92q7 -70 7 -105q0 -56 -16 -86.5t-61 -63.5q-3 -2 -15 -11t-15 -12t-12 -11t-12 -13.5t-8 -14.5t-6.5 -18.5
t-1.5 -20.5zM314 451q0 -27 -19 -46.5t-48 -19.5q-32 0 -51 18.5t-19 46.5t18.5 48t48.5 20q33 0 51.5 -19t18.5 -48z" />
    <glyph glyph-name="Agrave" unicode="&#xc0;" horiz-adv-x="625" 
d="M130 0h-118l230 665h136l235 -665h-130l-60 176h-234zM306 553l-93 -285h186l-90 285h-3zM230 906l162 -157l-30 -41q-131 69 -151 82q-39 24 -39 51q0 31 58 65z" />
    <glyph glyph-name="Aacute" unicode="&#xc1;" horiz-adv-x="625" 
d="M130 0h-118l230 665h136l235 -665h-130l-60 176h-234zM306 553l-93 -285h186l-90 285h-3zM224 750l162 157q58 -34 58 -66q0 -25 -40 -51q-16 -10 -150 -81z" />
    <glyph glyph-name="Acircumflex" unicode="&#xc2;" horiz-adv-x="625" 
d="M130 0h-118l230 665h136l235 -665h-130l-60 176h-234zM306 553l-93 -285h186l-90 285h-3zM187 708l-41 34q59 78 110 124q26 24 49 24q26 0 47 -21q70 -70 114 -126l-41 -35l-120 86z" />
    <glyph glyph-name="Atilde" unicode="&#xc3;" horiz-adv-x="625" 
d="M130 0h-118l230 665h136l235 -665h-130l-60 176h-234zM306 553l-93 -285h186l-90 285h-3zM171 733l-9 76q37 29 84 29q27 0 70 -13t65 -13q28 0 62 18l8 -81q-34 -18 -68 -18q-23 0 -71 11t-67 11q-38 0 -74 -20z" />
    <glyph glyph-name="Adieresis" unicode="&#xc4;" horiz-adv-x="625" 
d="M130 0h-118l230 665h136l235 -665h-130l-60 176h-234zM306 553l-93 -285h186l-90 285h-3zM346 782q0 26 17.5 43.5t45.5 17.5q27 0 45 -17.5t18 -43.5q0 -27 -17.5 -44t-45.5 -17q-29 0 -46 17t-17 44zM143 782q0 26 17.5 43.5t46.5 17.5q27 0 45 -17.5t18 -43.5
q0 -27 -18 -44t-46 -17t-45.5 17t-17.5 44z" />
    <glyph glyph-name="Aring" unicode="&#xc5;" horiz-adv-x="625" 
d="M218 733q0 41 26.5 67t68.5 26q43 0 68 -25.5t25 -62.5q0 -45 -28 -73l235 -665h-130l-60 176h-234l-59 -176h-118l231 665q-25 28 -25 68zM306 553l-93 -285h186l-90 285h-3zM277 733q0 -42 36 -42q17 0 26.5 12t9.5 30q0 41 -36 41t-36 -41z" />
    <glyph glyph-name="AE" unicode="&#xc6;" horiz-adv-x="824" 
d="M483 0l-64 186h-226l-63 -186h-118l230 665h545v-106h-359l60 -167h259v-106h-234l64 -180h216v-106h-310zM306 549l-89 -271h178l-88 271h-1z" />
    <glyph glyph-name="Ccedilla" unicode="&#xc7;" horiz-adv-x="590" 
d="M348 89q78 0 156 70l63 -80q-94 -88 -217 -91l-14 -54q41 -3 65.5 -23.5t24.5 -55.5q0 -50 -35 -73.5t-83 -23.5q-49 0 -90 18l16 54q39 -13 67 -13q50 0 50 35q0 22 -22.5 30t-67.5 8l32 101q-117 15 -182.5 100.5t-65.5 237.5q0 76 18 136.5t47.5 99t69 64.5t81 37
t86.5 11q144 0 228 -124l-87 -63q-67 84 -147 84q-78 0 -124.5 -62.5t-46.5 -174.5q0 -118 44.5 -183t133.5 -65z" />
    <glyph glyph-name="Egrave" unicode="&#xc8;" horiz-adv-x="509" 
d="M70 0v665h401v-106h-279v-167h239v-106h-239v-180h286v-106h-408zM201 906l162 -157l-30 -41q-131 69 -151 82q-39 24 -39 51q0 31 58 65z" />
    <glyph glyph-name="Eacute" unicode="&#xc9;" horiz-adv-x="509" 
d="M70 0v665h401v-106h-279v-167h239v-106h-239v-180h286v-106h-408zM178 750l162 157q58 -34 58 -66q0 -25 -40 -51q-16 -10 -150 -81z" />
    <glyph glyph-name="Ecircumflex" unicode="&#xca;" horiz-adv-x="509" 
d="M70 0v665h401v-106h-279v-167h239v-106h-239v-180h286v-106h-408zM148 708l-41 34q59 78 110 124q26 24 49 24q26 0 47 -21q70 -70 114 -126l-41 -35l-120 86z" />
    <glyph glyph-name="Edieresis" unicode="&#xcb;" horiz-adv-x="509" 
d="M70 0v665h401v-106h-279v-167h239v-106h-239v-180h286v-106h-408zM305 782q0 26 17.5 43.5t45.5 17.5q27 0 45 -17.5t18 -43.5q0 -27 -17.5 -44t-45.5 -17q-29 0 -46 17t-17 44zM102 782q0 26 17.5 43.5t46.5 17.5q27 0 45 -17.5t18 -43.5q0 -27 -18 -44t-46 -17
t-45.5 17t-17.5 44z" />
    <glyph glyph-name="Igrave" unicode="&#xcc;" horiz-adv-x="266" 
d="M194 0h-122v665h122v-665zM61 906l162 -157l-30 -41q-131 69 -151 82q-39 24 -39 51q0 31 58 65z" />
    <glyph glyph-name="Iacute" unicode="&#xcd;" horiz-adv-x="266" 
d="M194 0h-122v665h122v-665zM45 750l162 157q58 -34 58 -66q0 -25 -40 -51q-16 -10 -150 -81z" />
    <glyph glyph-name="Icircumflex" unicode="&#xce;" horiz-adv-x="266" 
d="M194 0h-122v665h122v-665zM15 708l-41 34q59 78 110 124q26 24 49 24q26 0 47 -21q70 -70 114 -126l-41 -35l-120 86z" />
    <glyph glyph-name="Idieresis" unicode="&#xcf;" horiz-adv-x="266" 
d="M194 0h-122v665h122v-665zM172 782q0 26 17.5 43.5t45.5 17.5q27 0 45 -17.5t18 -43.5q0 -27 -17.5 -44t-45.5 -17q-29 0 -46 17t-17 44zM-31 782q0 26 17.5 43.5t46.5 17.5q27 0 45 -17.5t18 -43.5q0 -27 -18 -44t-46 -17t-45.5 17t-17.5 44z" />
    <glyph glyph-name="Eth" unicode="&#xd0;" horiz-adv-x="654" 
d="M10 287v96h70v282h217q147 0 229.5 -78t82.5 -231q0 -95 -25 -165.5t-68.5 -111t-97 -60t-116.5 -19.5h-222v287h-70zM202 568v-185h169v-96h-169v-191h102q86 0 134 62t48 180q0 230 -195 230h-89z" />
    <glyph glyph-name="Ntilde" unicode="&#xd1;" horiz-adv-x="666" 
d="M475 665h121v-665h-117l-287 469h-2v-469h-120v665h123l280 -462h2v462zM197 733l-9 76q37 29 84 29q27 0 70 -13t65 -13q28 0 62 18l8 -81q-34 -18 -68 -18q-23 0 -71 11t-67 11q-38 0 -74 -20z" />
    <glyph glyph-name="Ograve" unicode="&#xd2;" horiz-adv-x="663" 
d="M618 331q0 -168 -77 -255.5t-212 -87.5q-136 0 -210 87t-74 256q0 92 26 161.5t69.5 108.5t94 57.5t105.5 18.5q58 0 106.5 -19t88 -58.5t61.5 -108t22 -160.5zM170 336q0 -247 166 -247q44 0 75.5 20t49 55t25.5 75.5t8 88.5q0 42 -7.5 82t-24 78.5t-50 62t-78.5 23.5
q-57 0 -95.5 -35.5t-53.5 -87t-15 -115.5zM270 906l162 -157l-30 -41q-131 69 -151 82q-39 24 -39 51q0 31 58 65z" />
    <glyph glyph-name="Oacute" unicode="&#xd3;" horiz-adv-x="663" 
d="M618 331q0 -168 -77 -255.5t-212 -87.5q-136 0 -210 87t-74 256q0 92 26 161.5t69.5 108.5t94 57.5t105.5 18.5q58 0 106.5 -19t88 -58.5t61.5 -108t22 -160.5zM170 336q0 -247 166 -247q44 0 75.5 20t49 55t25.5 75.5t8 88.5q0 42 -7.5 82t-24 78.5t-50 62t-78.5 23.5
q-57 0 -95.5 -35.5t-53.5 -87t-15 -115.5zM241 750l162 157q58 -34 58 -66q0 -25 -40 -51q-16 -10 -150 -81z" />
    <glyph glyph-name="Ocircumflex" unicode="&#xd4;" horiz-adv-x="663" 
d="M618 331q0 -168 -77 -255.5t-212 -87.5q-136 0 -210 87t-74 256q0 92 26 161.5t69.5 108.5t94 57.5t105.5 18.5q58 0 106.5 -19t88 -58.5t61.5 -108t22 -160.5zM170 336q0 -247 166 -247q44 0 75.5 20t49 55t25.5 75.5t8 88.5q0 42 -7.5 82t-24 78.5t-50 62t-78.5 23.5
q-57 0 -95.5 -35.5t-53.5 -87t-15 -115.5zM219 708l-41 34q59 78 110 124q26 24 49 24q26 0 47 -21q70 -70 114 -126l-41 -35l-120 86z" />
    <glyph glyph-name="Otilde" unicode="&#xd5;" horiz-adv-x="663" 
d="M618 331q0 -168 -77 -255.5t-212 -87.5q-136 0 -210 87t-74 256q0 92 26 161.5t69.5 108.5t94 57.5t105.5 18.5q58 0 106.5 -19t88 -58.5t61.5 -108t22 -160.5zM170 336q0 -247 166 -247q44 0 75.5 20t49 55t25.5 75.5t8 88.5q0 42 -7.5 82t-24 78.5t-50 62t-78.5 23.5
q-57 0 -95.5 -35.5t-53.5 -87t-15 -115.5zM200 733l-9 76q37 29 84 29q27 0 70 -13t65 -13q28 0 62 18l8 -81q-34 -18 -68 -18q-23 0 -71 11t-67 11q-38 0 -74 -20z" />
    <glyph glyph-name="Odieresis" unicode="&#xd6;" horiz-adv-x="663" 
d="M618 331q0 -168 -77 -255.5t-212 -87.5q-136 0 -210 87t-74 256q0 92 26 161.5t69.5 108.5t94 57.5t105.5 18.5q58 0 106.5 -19t88 -58.5t61.5 -108t22 -160.5zM170 336q0 -247 166 -247q44 0 75.5 20t49 55t25.5 75.5t8 88.5q0 42 -7.5 82t-24 78.5t-50 62t-78.5 23.5
q-57 0 -95.5 -35.5t-53.5 -87t-15 -115.5zM373 782q0 26 17.5 43.5t45.5 17.5q27 0 45 -17.5t18 -43.5q0 -27 -17.5 -44t-45.5 -17q-29 0 -46 17t-17 44zM170 782q0 26 17.5 43.5t46.5 17.5q27 0 45 -17.5t18 -43.5q0 -27 -18 -44t-46 -17t-45.5 17t-17.5 44z" />
    <glyph glyph-name="multiply" unicode="&#xd7;" 
d="M197 314l-114 114l72 72l114 -114l112 112l69 -69l-112 -113l113 -113l-72 -72l-113 113l-113 -113l-70 69z" />
    <glyph glyph-name="Oslash" unicode="&#xd8;" horiz-adv-x="663" 
d="M173 -100l-87 42l53 112q-94 88 -94 277q0 92 26 161.5t69.5 108.5t94 57.5t105.5 18.5q56 0 105 -18l41 86l89 -41l-47 -98q90 -90 90 -275q0 -168 -77 -255.5t-212 -87.5q-58 0 -107 17zM170 336q0 -108 32 -168l188 395q-27 11 -56 11q-57 0 -95.5 -35.5t-53.5 -87
t-15 -115.5zM494 328q0 95 -32 160l-185 -389q24 -10 59 -10q44 0 75.5 20t49 55t25.5 75.5t8 88.5z" />
    <glyph glyph-name="Ugrave" unicode="&#xd9;" horiz-adv-x="629" 
d="M65 665h121v-448q0 -127 131 -127q57 0 91 31t34 91v453h122v-470q0 -97 -68.5 -152t-182.5 -55q-125 0 -186.5 53.5t-61.5 169.5v454zM247 906l162 -157l-30 -41q-131 69 -151 82q-39 24 -39 51q0 31 58 65z" />
    <glyph glyph-name="Uacute" unicode="&#xda;" horiz-adv-x="629" 
d="M65 665h121v-448q0 -127 131 -127q57 0 91 31t34 91v453h122v-470q0 -97 -68.5 -152t-182.5 -55q-125 0 -186.5 53.5t-61.5 169.5v454zM224 750l162 157q58 -34 58 -66q0 -25 -40 -51q-16 -10 -150 -81z" />
    <glyph glyph-name="Ucircumflex" unicode="&#xdb;" horiz-adv-x="629" 
d="M65 665h121v-448q0 -127 131 -127q57 0 91 31t34 91v453h122v-470q0 -97 -68.5 -152t-182.5 -55q-125 0 -186.5 53.5t-61.5 169.5v454zM196 708l-41 34q59 78 110 124q26 24 49 24q26 0 47 -21q70 -70 114 -126l-41 -35l-120 86z" />
    <glyph glyph-name="Udieresis" unicode="&#xdc;" horiz-adv-x="629" 
d="M65 665h121v-448q0 -127 131 -127q57 0 91 31t34 91v453h122v-470q0 -97 -68.5 -152t-182.5 -55q-125 0 -186.5 53.5t-61.5 169.5v454zM355 782q0 26 17.5 43.5t45.5 17.5q27 0 45 -17.5t18 -43.5q0 -27 -17.5 -44t-45.5 -17q-29 0 -46 17t-17 44zM152 782
q0 26 17.5 43.5t46.5 17.5q27 0 45 -17.5t18 -43.5q0 -27 -18 -44t-46 -17t-45.5 17t-17.5 44z" />
    <glyph glyph-name="Yacute" unicode="&#xdd;" horiz-adv-x="556" 
d="M427 665h129l-218 -411v-254h-122v254l-216 411h135l145 -289h4zM185 750l162 157q58 -34 58 -66q0 -25 -40 -51q-16 -10 -150 -81z" />
    <glyph glyph-name="Thorn" unicode="&#xde;" horiz-adv-x="570" 
d="M191 130v-130h-122v665h122v-103h107q112 0 174.5 -52.5t62.5 -151.5q0 -111 -71 -169.5t-188 -58.5h-85zM191 227h72q146 0 146 119q0 72 -37.5 95.5t-119.5 23.5h-61v-238z" />
    <glyph glyph-name="germandbls" unicode="&#xdf;" horiz-adv-x="584" 
d="M377 -15q-83 0 -144 32l29 87q57 -31 109 -31q72 0 72 66q0 26 -17 46t-41 34.5t-48.5 30t-41.5 41t-17 59.5t20 64t44.5 49t44.5 44t20 49q0 67 -109 67q-115 0 -115 -107v-726h-119v720q0 203 240 203q109 0 162.5 -40.5t53.5 -104.5q0 -29 -13.5 -54t-33 -43
t-38.5 -34t-32.5 -33t-13.5 -34q0 -19 17.5 -36.5t43 -33t51 -34t43 -49.5t17.5 -71q0 -77 -51.5 -119t-132.5 -42z" />
    <glyph glyph-name="agrave" unicode="&#xe0;" horiz-adv-x="537" 
d="M475 483v-387l9 -96h-103l-7 53l-4 1q-46 -67 -137 -67q-101 0 -148.5 65t-47.5 178q0 135 66.5 211.5t193.5 76.5q85 0 178 -35zM357 159v259q-28 13 -75 13q-67 0 -97 -54t-30 -143q0 -162 104 -162q44 0 71 26.5t27 60.5zM248 796l117 -192l-39 -33q-110 98 -127 115
q-27 28 -27 50q0 40 76 60z" />
    <glyph glyph-name="aacute" unicode="&#xe1;" horiz-adv-x="537" 
d="M475 483v-387l9 -96h-103l-7 53l-4 1q-46 -67 -137 -67q-101 0 -148.5 65t-47.5 178q0 135 66.5 211.5t193.5 76.5q85 0 178 -35zM357 159v259q-28 13 -75 13q-67 0 -97 -54t-30 -143q0 -162 104 -162q44 0 71 26.5t27 60.5zM210 604l116 192q76 -20 76 -60
q0 -20 -27 -49q-11 -12 -126 -116z" />
    <glyph glyph-name="acircumflex" unicode="&#xe2;" horiz-adv-x="537" 
d="M475 483v-387l9 -96h-103l-7 53l-4 1q-46 -67 -137 -67q-101 0 -148.5 65t-47.5 178q0 135 66.5 211.5t193.5 76.5q85 0 178 -35zM357 159v259q-28 13 -75 13q-67 0 -97 -54t-30 -143q0 -162 104 -162q44 0 71 26.5t27 60.5zM164 582l-41 32q61 90 103 140q27 33 55 33
q17 0 28 -7t27 -25q55 -66 104 -140l-41 -34l-118 104z" />
    <glyph glyph-name="atilde" unicode="&#xe3;" horiz-adv-x="537" 
d="M475 483v-387l9 -96h-103l-7 53l-4 1q-46 -67 -137 -67q-101 0 -148.5 65t-47.5 178q0 135 66.5 211.5t193.5 76.5q85 0 178 -35zM357 159v259q-28 13 -75 13q-67 0 -97 -54t-30 -143q0 -162 104 -162q44 0 71 26.5t27 60.5zM152 622l-9 77q39 29 84 29q27 0 70 -13
t65 -13q31 0 62 18l8 -81q-33 -19 -68 -19q-23 0 -71 11.5t-67 11.5q-36 0 -74 -21z" />
    <glyph glyph-name="adieresis" unicode="&#xe4;" horiz-adv-x="537" 
d="M475 483v-387l9 -96h-103l-7 53l-4 1q-46 -67 -137 -67q-101 0 -148.5 65t-47.5 178q0 135 66.5 211.5t193.5 76.5q85 0 178 -35zM357 159v259q-28 13 -75 13q-67 0 -97 -54t-30 -143q0 -162 104 -162q44 0 71 26.5t27 60.5zM324 666q0 26 17.5 43.5t45.5 17.5
q27 0 45 -17.5t18 -43.5q0 -27 -17.5 -44.5t-45.5 -17.5q-29 0 -46 17.5t-17 44.5zM126 666q0 26 17.5 43.5t46.5 17.5q27 0 45 -17.5t18 -43.5q0 -27 -18 -44.5t-46 -17.5t-45.5 17.5t-17.5 44.5z" />
    <glyph glyph-name="aring" unicode="&#xe5;" horiz-adv-x="537" 
d="M475 483v-387l9 -96h-103l-7 53l-4 1q-46 -67 -137 -67q-101 0 -148.5 65t-47.5 178q0 135 66.5 211.5t193.5 76.5q85 0 178 -35zM357 159v259q-28 13 -75 13q-67 0 -97 -54t-30 -143q0 -162 104 -162q44 0 71 26.5t27 60.5zM190 657q0 41 26.5 67t68.5 26q43 0 68 -25.5
t25 -62.5q0 -43 -26 -70.5t-70 -27.5q-43 0 -67.5 26.5t-24.5 66.5zM249 657q0 -42 36 -42q17 0 26.5 12t9.5 30q0 41 -36 41t-36 -41z" />
    <glyph glyph-name="ae" unicode="&#xe6;" horiz-adv-x="739" 
d="M559 518q74 0 116.5 -36.5t42.5 -102.5q0 -44 -21 -77t-51.5 -51t-72 -29t-73 -14.5t-65.5 -3.5q2 -56 34.5 -92t90.5 -36q62 0 127 44l36 -79q-23 -19 -70 -37.5t-110 -18.5q-102 0 -158 56q-69 -57 -148 -57q-55 0 -95 20t-62 55.5t-32.5 78.5t-10.5 95q0 133 66 209
t189 76q73 0 143 -34q53 34 124 34zM277 432q-62 0 -92 -53.5t-30 -134.5q0 -171 107 -171q49 0 81 32q-28 56 -28 136q0 101 48 170q-46 21 -86 21zM612 374q0 27 -16.5 43t-43.5 16q-56 0 -87.5 -45t-33.5 -107q24 0 52 4t58.5 13t50.5 29t20 47z" />
    <glyph glyph-name="ccedilla" unicode="&#xe7;" horiz-adv-x="455" 
d="M283 81q56 0 115 43l45 -80q-68 -55 -168 -58l-13 -52q41 -3 65.5 -23.5t24.5 -55.5q0 -50 -35 -73.5t-83 -23.5q-49 0 -90 18l16 54q39 -13 67 -13q50 0 50 35q0 22 -22.5 30t-67.5 8l32 100q-88 14 -135 80.5t-47 178.5q0 72 21 126.5t55.5 84t73.5 44t81 14.5
q119 0 184 -95l-75 -62q-50 62 -107 62q-52 0 -83 -43t-31 -126q0 -81 31.5 -127t95.5 -46z" />
    <glyph glyph-name="egrave" unicode="&#xe8;" horiz-adv-x="462" 
d="M281 518q-114 0 -179 -80.5t-65 -196.5q0 -119 57 -187.5t176 -68.5q61 0 108.5 19t67.5 37l-37 79q-62 -44 -126 -44q-60 0 -91.5 37t-34.5 91q34 0 65.5 3.5t73 14.5t72 29t51.5 51t21 77q0 66 -42.5 102.5t-116.5 36.5zM334 374q0 -27 -20 -47t-50.5 -29t-58.5 -13
t-52 -4q2 62 33.5 107t87.5 45q27 0 43.5 -16t16.5 -43zM221 796l117 -192l-39 -33q-110 98 -127 115q-27 28 -27 50q0 40 76 60z" />
    <glyph glyph-name="eacute" unicode="&#xe9;" horiz-adv-x="462" 
d="M281 518q74 0 116.5 -36.5t42.5 -102.5q0 -44 -21 -77t-51.5 -51t-72 -29t-73 -14.5t-65.5 -3.5q3 -54 34.5 -91t91.5 -37q64 0 126 44l37 -79q-20 -18 -67.5 -37t-108.5 -19q-119 0 -176 68.5t-57 187.5q0 116 65 196.5t179 80.5zM334 374q0 27 -16.5 43t-43.5 16
q-56 0 -87.5 -45t-33.5 -107q24 0 52 4t58.5 13t50.5 29t20 47zM175 604l116 192q76 -20 76 -60q0 -20 -27 -49q-11 -12 -126 -116z" />
    <glyph glyph-name="ecircumflex" unicode="&#xea;" horiz-adv-x="462" 
d="M281 518q-114 0 -179 -80.5t-65 -196.5q0 -119 57 -187.5t176 -68.5q61 0 108.5 19t67.5 37l-37 79q-62 -44 -126 -44q-60 0 -91.5 37t-34.5 91q34 0 65.5 3.5t73 14.5t72 29t51.5 51t21 77q0 66 -42.5 102.5t-116.5 36.5zM334 374q0 -27 -20 -47t-50.5 -29t-58.5 -13
t-52 -4q2 62 33.5 107t87.5 45q27 0 43.5 -16t16.5 -43zM147 582l-41 32q61 90 103 140q27 33 55 33q17 0 28 -7t27 -25q55 -66 104 -140l-41 -34l-118 104z" />
    <glyph glyph-name="edieresis" unicode="&#xeb;" horiz-adv-x="462" 
d="M281 518q-114 0 -179 -80.5t-65 -196.5q0 -119 57 -187.5t176 -68.5q61 0 108.5 19t67.5 37l-37 79q-62 -44 -126 -44q-60 0 -91.5 37t-34.5 91q34 0 65.5 3.5t73 14.5t72 29t51.5 51t21 77q0 66 -42.5 102.5t-116.5 36.5zM334 374q0 -27 -20 -47t-50.5 -29t-58.5 -13
t-52 -4q2 62 33.5 107t87.5 45q27 0 43.5 -16t16.5 -43zM298 666q0 26 17.5 43.5t45.5 17.5q27 0 45 -17.5t18 -43.5q0 -27 -17.5 -44.5t-45.5 -17.5q-29 0 -46 17.5t-17 44.5zM100 666q0 26 17.5 43.5t46.5 17.5q27 0 45 -17.5t18 -43.5q0 -27 -18 -44.5t-46 -17.5
t-45.5 17.5t-17.5 44.5z" />
    <glyph glyph-name="igrave" unicode="&#xec;" horiz-adv-x="244" 
d="M184 0h-119v503h119v-503zM95 796l117 -192l-39 -33q-110 98 -127 115q-27 28 -27 50q0 40 76 60z" />
    <glyph glyph-name="iacute" unicode="&#xed;" horiz-adv-x="244" 
d="M184 0h-119v503h119v-503zM42 604l116 192q76 -20 76 -60q0 -20 -27 -49q-11 -12 -126 -116z" />
    <glyph glyph-name="icircumflex" unicode="&#xee;" horiz-adv-x="244" 
d="M184 0h-119v503h119v-503zM8 582l-41 32q61 90 103 140q27 33 55 33q17 0 28 -7t27 -25q55 -66 104 -140l-41 -34l-118 104z" />
    <glyph glyph-name="idieresis" unicode="&#xef;" horiz-adv-x="244" 
d="M184 0h-119v503h119v-503zM161 666q0 26 17.5 43.5t45.5 17.5q27 0 45 -17.5t18 -43.5q0 -27 -17.5 -44.5t-45.5 -17.5q-29 0 -46 17.5t-17 44.5zM-37 666q0 26 17.5 43.5t46.5 17.5q27 0 45 -17.5t18 -43.5q0 -27 -18 -44.5t-46 -17.5t-45.5 17.5t-17.5 44.5z" />
    <glyph glyph-name="eth" unicode="&#xf0;" horiz-adv-x="507" 
d="M202 477l-46 65l66 45q-44 27 -100 37l24 93q100 -13 171 -65l84 57l45 -65l-67 -47q99 -123 99 -321q0 -131 -57 -210.5t-178 -79.5q-109 0 -161 61t-52 162q0 104 54.5 170t148.5 66q65 0 114 -32q-19 70 -62 121zM153 213q0 -63 24.5 -97.5t70.5 -34.5q54 0 80.5 49.5
t26.5 130.5q0 41 -1 55q-45 37 -104 37q-97 0 -97 -140z" />
    <glyph glyph-name="ntilde" unicode="&#xf1;" horiz-adv-x="538" 
d="M183 0h-119v416l-8 87h100l10 -63q55 78 154 78q76 0 117.5 -43.5t41.5 -130.5v-344h-119v318q0 53 -15.5 80.5t-59.5 27.5t-73 -30.5t-29 -70.5v-325zM143 622l-9 77q39 29 84 29q27 0 70 -13t65 -13q31 0 62 18l8 -81q-33 -19 -68 -19q-23 0 -71 11.5t-67 11.5
q-37 0 -74 -21z" />
    <glyph glyph-name="ograve" unicode="&#xf2;" horiz-adv-x="520" 
d="M261 73q-104 0 -104 193q0 75 26.5 119.5t79.5 44.5q102 0 102 -181q0 -82 -25.5 -129t-78.5 -47zM36 252q0 -133 57 -200t160 -67q104 0 169 71t65 209q0 66 -16 114.5t-39 74t-55 41t-56.5 19.5t-51.5 4q-42 0 -80.5 -13t-74 -41.5t-57 -83t-21.5 -128.5zM227 796
l117 -192l-39 -33q-110 98 -127 115q-27 28 -27 50q0 40 76 60z" />
    <glyph glyph-name="oacute" unicode="&#xf3;" horiz-adv-x="520" 
d="M261 73q53 0 78.5 47t25.5 129q0 181 -102 181q-53 0 -79.5 -44.5t-26.5 -119.5q0 -193 104 -193zM36 252q0 74 21.5 128.5t57 83t74 41.5t80.5 13q27 0 51.5 -4t56.5 -19.5t55 -41t39 -74t16 -114.5q0 -138 -65 -209t-169 -71q-103 0 -160 67t-57 200zM189 604l116 192
q76 -20 76 -60q0 -20 -27 -49q-11 -12 -126 -116z" />
    <glyph glyph-name="ocircumflex" unicode="&#xf4;" horiz-adv-x="520" 
d="M261 73q-104 0 -104 193q0 75 26.5 119.5t79.5 44.5q102 0 102 -181q0 -82 -25.5 -129t-78.5 -47zM36 252q0 -133 57 -200t160 -67q104 0 169 71t65 209q0 66 -16 114.5t-39 74t-55 41t-56.5 19.5t-51.5 4q-42 0 -80.5 -13t-74 -41.5t-57 -83t-21.5 -128.5zM147 582
l-41 32q61 90 103 140q27 33 55 33q17 0 28 -7t27 -25q55 -66 104 -140l-41 -34l-118 104z" />
    <glyph glyph-name="otilde" unicode="&#xf5;" horiz-adv-x="520" 
d="M261 73q53 0 78.5 47t25.5 129q0 181 -102 181q-53 0 -79.5 -44.5t-26.5 -119.5q0 -193 104 -193zM36 252q0 74 21.5 128.5t57 83t74 41.5t80.5 13q27 0 51.5 -4t56.5 -19.5t55 -41t39 -74t16 -114.5q0 -138 -65 -209t-169 -71q-103 0 -160 67t-57 200zM129 622l-9 77
q39 29 84 29q27 0 70 -13t65 -13q31 0 62 18l8 -81q-33 -19 -68 -19q-23 0 -71 11.5t-67 11.5q-37 0 -74 -21z" />
    <glyph glyph-name="odieresis" unicode="&#xf6;" horiz-adv-x="520" 
d="M261 73q-104 0 -104 193q0 75 26.5 119.5t79.5 44.5q102 0 102 -181q0 -82 -25.5 -129t-78.5 -47zM36 252q0 -133 57 -200t160 -67q104 0 169 71t65 209q0 66 -16 114.5t-39 74t-55 41t-56.5 19.5t-51.5 4q-42 0 -80.5 -13t-74 -41.5t-57 -83t-21.5 -128.5zM300 666
q0 26 17.5 43.5t45.5 17.5q27 0 45 -17.5t18 -43.5q0 -27 -17.5 -44.5t-45.5 -17.5q-29 0 -46 17.5t-17 44.5zM102 666q0 26 17.5 43.5t46.5 17.5q27 0 45 -17.5t18 -43.5q0 -27 -18 -44.5t-46 -17.5t-45.5 17.5t-17.5 44.5z" />
    <glyph glyph-name="divide" unicode="&#xf7;" 
d="M204 128q0 28 17.5 47.5t46.5 19.5q30 0 48 -18t18 -48t-18 -49.5t-47 -19.5q-31 0 -48 18.5t-17 49.5zM204 505q0 28 17.5 47.5t46.5 19.5q30 0 48 -18t18 -48t-18 -49.5t-47 -19.5q-31 0 -48 18.5t-17 49.5zM470 362v-96h-405v96h405z" />
    <glyph glyph-name="oslash" unicode="&#xf8;" horiz-adv-x="520" 
d="M134 -84l-72 36l43 87q-69 66 -69 213q0 74 21.5 128.5t57 83t74 41.5t80.5 13q45 0 81 -12l36 73l73 -35l-40 -78q68 -65 68 -201q0 -138 -65 -209t-169 -71q-43 0 -79 12zM263 430q-53 0 -79.5 -44.5t-26.5 -119.5q0 -71 11 -111l134 267q-18 8 -39 8zM261 73
q53 0 78.5 47t25.5 129q0 59 -10 98l-134 -266q15 -8 40 -8z" />
    <glyph glyph-name="ugrave" unicode="&#xf9;" horiz-adv-x="540" 
d="M358 503h119v-419l8 -84h-102l-7 59h-4q-50 -73 -145 -73q-165 0 -165 176v341h119v-319q0 -52 16 -79t62 -27q40 0 69.5 29.5t29.5 66.5v329zM222 796l117 -192l-39 -33q-110 98 -127 115q-27 28 -27 50q0 40 76 60z" />
    <glyph glyph-name="uacute" unicode="&#xfa;" horiz-adv-x="540" 
d="M358 503h119v-419l8 -84h-102l-7 59h-4q-50 -73 -145 -73q-165 0 -165 176v341h119v-319q0 -52 16 -79t62 -27q40 0 69.5 29.5t29.5 66.5v329zM194 604l116 192q76 -20 76 -60q0 -20 -27 -49q-11 -12 -126 -116z" />
    <glyph glyph-name="ucircumflex" unicode="&#xfb;" horiz-adv-x="540" 
d="M358 503h119v-419l8 -84h-102l-7 59h-4q-50 -73 -145 -73q-165 0 -165 176v341h119v-319q0 -52 16 -79t62 -27q40 0 69.5 29.5t29.5 66.5v329zM149 582l-41 32q61 90 103 140q27 33 55 33q17 0 28 -7t27 -25q55 -66 104 -140l-41 -34l-118 104z" />
    <glyph glyph-name="udieresis" unicode="&#xfc;" horiz-adv-x="540" 
d="M358 503h119v-419l8 -84h-102l-7 59h-4q-50 -73 -145 -73q-165 0 -165 176v341h119v-319q0 -52 16 -79t62 -27q40 0 69.5 29.5t29.5 66.5v329zM305 666q0 26 17.5 43.5t45.5 17.5q27 0 45 -17.5t18 -43.5q0 -27 -17.5 -44.5t-45.5 -17.5q-29 0 -46 17.5t-17 44.5z
M107 666q0 26 17.5 43.5t46.5 17.5q27 0 45 -17.5t18 -43.5q0 -27 -18 -44.5t-46 -17.5t-45.5 17.5t-17.5 44.5z" />
    <glyph glyph-name="yacute" unicode="&#xfd;" horiz-adv-x="536" 
d="M476 63q0 -86 -8 -139q-14 -91 -69 -140.5t-147 -49.5q-79 0 -120.5 35t-41.5 96q0 97 105 171q-133 19 -133 162v305h119v-284q0 -58 15.5 -85.5t69.5 -27.5q43 0 67.5 23t24.5 65v309h118v-440zM199 -116q0 -64 67 -64q93 0 93 155v84q-77 -37 -118.5 -77t-41.5 -98z
M187 604l116 192q76 -20 76 -60q0 -20 -27 -49q-11 -12 -126 -116z" />
    <glyph glyph-name="thorn" unicode="&#xfe;" horiz-adv-x="530" 
d="M179 13v-223h-119v905h119v-191q58 14 103 14q212 0 212 -262q0 -130 -56 -200t-156 -70q-56 0 -103 27zM375 247q0 55 -8 91.5t-36 62.5t-77 26q-40 0 -75 -11v-307q41 -34 92 -34q49 0 76.5 44.5t27.5 127.5z" />
    <glyph glyph-name="ydieresis" unicode="&#xff;" horiz-adv-x="536" 
d="M476 63q0 -86 -8 -139q-14 -91 -69 -140.5t-147 -49.5q-79 0 -120.5 35t-41.5 96q0 97 105 171q-133 19 -133 162v305h119v-284q0 -58 15.5 -85.5t69.5 -27.5q43 0 67.5 23t24.5 65v309h118v-440zM199 -116q0 -64 67 -64q93 0 93 155v84q-77 -37 -118.5 -77t-41.5 -98z
M306 666q0 26 17.5 43.5t45.5 17.5q27 0 45 -17.5t18 -43.5q0 -27 -17.5 -44.5t-45.5 -17.5q-29 0 -46 17.5t-17 44.5zM108 666q0 26 17.5 43.5t46.5 17.5q27 0 45 -17.5t18 -43.5q0 -27 -18 -44.5t-46 -17.5t-45.5 17.5t-17.5 44.5z" />
    <glyph glyph-name="Amacron" unicode="&#x100;" horiz-adv-x="625" 
d="M130 0h-118l230 665h136l235 -665h-130l-60 176h-234zM306 553l-93 -285h186l-90 285h-3zM165 734v87h287v-87h-287z" />
    <glyph glyph-name="amacron" unicode="&#x101;" horiz-adv-x="537" 
d="M475 483v-387l9 -96h-103l-7 53l-4 1q-46 -67 -137 -67q-101 0 -148.5 65t-47.5 178q0 135 66.5 211.5t193.5 76.5q85 0 178 -35zM357 159v259q-28 13 -75 13q-67 0 -97 -54t-30 -143q0 -162 104 -162q44 0 71 26.5t27 60.5zM135 619v86h287v-86h-287z" />
    <glyph glyph-name="Abreve" unicode="&#x102;" horiz-adv-x="625" 
d="M130 0h-118l230 665h136l235 -665h-130l-60 176h-234zM306 553l-93 -285h186l-90 285h-3zM405 875l73 -30q-43 -125 -173 -125q-69 0 -110.5 35.5t-56.5 88.5l74 31q30 -79 97 -79q37 0 58 18t38 61z" />
    <glyph glyph-name="abreve" unicode="&#x103;" horiz-adv-x="537" 
d="M475 483v-387l9 -96h-103l-7 53l-4 1q-46 -67 -137 -67q-101 0 -148.5 65t-47.5 178q0 135 66.5 211.5t193.5 76.5q85 0 178 -35zM357 159v259q-28 13 -75 13q-67 0 -97 -54t-30 -143q0 -162 104 -162q44 0 71 26.5t27 60.5zM376 751l71 -17q-40 -143 -166 -143
q-70 0 -109.5 40.5t-53.5 102.5l74 17q15 -46 36.5 -65t55.5 -19q31 0 53.5 19t38.5 65z" />
    <glyph glyph-name="Aogonek" unicode="&#x104;" horiz-adv-x="625" 
d="M130 0h-118l230 665h136l235 -665q-40 -24 -66.5 -59t-26.5 -66q0 -40 39 -40q23 0 48 11l24 -74q-42 -21 -98 -21q-61 0 -87 29t-26 69q0 80 78 151h-15l-60 176h-234zM306 553l-93 -285h186l-92 285h-1z" />
    <glyph glyph-name="aogonek" unicode="&#x105;" horiz-adv-x="537" 
d="M475 483v-387l10 -96q-32 -26 -56.5 -61t-24.5 -64q0 -40 39 -40q23 0 48 11l24 -74q-42 -21 -98 -21q-61 0 -87 29t-26 69q0 79 77 151l-7 53l-4 1q-46 -67 -137 -67q-101 0 -148.5 65t-47.5 178q0 135 66.5 211.5t193.5 76.5q85 0 178 -35zM357 159v259q-28 13 -75 13
q-67 0 -97 -54t-30 -143q0 -162 104 -162q44 0 71 26.5t27 60.5z" />
    <glyph glyph-name="Cacute" unicode="&#x106;" horiz-adv-x="590" 
d="M348 89q78 0 156 70l63 -80q-97 -91 -226 -91q-139 0 -217.5 87t-78.5 254q0 76 18 136.5t47.5 99t69 64.5t81 37t86.5 11q144 0 228 -124l-87 -63q-67 84 -147 84q-78 0 -124.5 -62.5t-46.5 -174.5q0 -118 44.5 -183t133.5 -65zM245 750l162 157q58 -34 58 -66
q0 -25 -40 -51q-16 -10 -150 -81z" />
    <glyph glyph-name="cacute" unicode="&#x107;" horiz-adv-x="455" 
d="M283 81q56 0 115 43l45 -80q-71 -58 -174 -58q-111 0 -171.5 68t-60.5 195q0 72 21 126.5t55.5 84t73.5 44t81 14.5q119 0 184 -95l-75 -62q-50 62 -107 62q-52 0 -83 -43t-31 -126q0 -81 31.5 -127t95.5 -46zM187 604l116 192q76 -20 76 -60q0 -20 -27 -49
q-11 -12 -126 -116z" />
    <glyph glyph-name="Ccircumflex" unicode="&#x108;" horiz-adv-x="590" 
d="M348 89q78 0 156 70l63 -80q-97 -91 -226 -91q-139 0 -217.5 87t-78.5 254q0 76 18 136.5t47.5 99t69 64.5t81 37t86.5 11q144 0 228 -124l-87 -63q-67 84 -147 84q-78 0 -124.5 -62.5t-46.5 -174.5q0 -118 44.5 -183t133.5 -65zM218 708l-41 34q59 78 110 124
q26 24 49 24q26 0 47 -21q70 -70 114 -126l-41 -35l-120 86z" />
    <glyph glyph-name="ccircumflex" unicode="&#x109;" horiz-adv-x="455" 
d="M283 81q56 0 115 43l45 -80q-71 -58 -174 -58q-111 0 -171.5 68t-60.5 195q0 72 21 126.5t55.5 84t73.5 44t81 14.5q119 0 184 -95l-75 -62q-50 62 -107 62q-52 0 -83 -43t-31 -126q0 -81 31.5 -127t95.5 -46zM150 583l-41 32q61 90 103 140q27 33 55 33q17 0 28 -7
t27 -25q55 -66 104 -140l-41 -34l-118 104z" />
    <glyph glyph-name="Cdotaccent" unicode="&#x10a;" horiz-adv-x="590" 
d="M348 89q78 0 156 70l63 -80q-97 -91 -226 -91q-139 0 -217.5 87t-78.5 254q0 76 18 136.5t47.5 99t69 64.5t81 37t86.5 11q144 0 228 -124l-87 -63q-67 84 -147 84q-78 0 -124.5 -62.5t-46.5 -174.5q0 -118 44.5 -183t133.5 -65zM262 793q0 28 19.5 47.5t49.5 19.5
t49.5 -19.5t19.5 -47.5q0 -29 -19.5 -47.5t-49.5 -18.5q-31 0 -50 18.5t-19 47.5z" />
    <glyph glyph-name="cdotaccent" unicode="&#x10b;" horiz-adv-x="455" 
d="M283 81q56 0 115 43l45 -80q-71 -58 -174 -58q-111 0 -171.5 68t-60.5 195q0 72 21 126.5t55.5 84t73.5 44t81 14.5q119 0 184 -95l-75 -62q-50 62 -107 62q-52 0 -83 -43t-31 -126q0 -81 31.5 -127t95.5 -46zM192 647q0 28 19.5 47.5t49.5 19.5t49.5 -19.5t19.5 -47.5
q0 -29 -19.5 -47.5t-49.5 -18.5q-31 0 -50 18.5t-19 47.5z" />
    <glyph glyph-name="Ccaron" unicode="&#x10c;" horiz-adv-x="590" 
d="M348 89q78 0 156 70l63 -80q-97 -91 -226 -91q-139 0 -217.5 87t-78.5 254q0 76 18 136.5t47.5 99t69 64.5t81 37t86.5 11q144 0 228 -124l-87 -63q-67 84 -147 84q-78 0 -124.5 -62.5t-46.5 -174.5q0 -118 44.5 -183t133.5 -65zM172 856l41 34l118 -86l120 86l41 -35
q-44 -56 -114 -126q-21 -21 -47 -21q-23 0 -49 24q-51 46 -110 124z" />
    <glyph glyph-name="ccaron" unicode="&#x10d;" horiz-adv-x="455" 
d="M283 81q56 0 115 43l45 -80q-71 -58 -174 -58q-111 0 -171.5 68t-60.5 195q0 72 21 126.5t55.5 84t73.5 44t81 14.5q119 0 184 -95l-75 -62q-50 62 -107 62q-52 0 -83 -43t-31 -126q0 -81 31.5 -127t95.5 -46zM376 786l41 -32q-61 -90 -103 -140q-27 -33 -55 -33
q-17 0 -28 7t-27 25q-55 66 -104 140l41 34l118 -104z" />
    <glyph glyph-name="Dcaron" unicode="&#x10e;" horiz-adv-x="644" 
d="M70 0v665h217q147 0 229.5 -78t82.5 -231q0 -95 -25 -165.5t-68.5 -111t-97 -60t-116.5 -19.5h-222zM192 568v-472h102q86 0 134 62t48 180q0 230 -195 230h-89zM120 856l41 34l118 -86l120 86l41 -35q-44 -56 -114 -126q-21 -21 -47 -21q-23 0 -49 24q-51 46 -110 124z
" />
    <glyph glyph-name="dcaron" unicode="&#x10f;" horiz-adv-x="617" 
d="M279 518q39 0 78 -12v189h118v-597l9 -98h-102l-8 54l-4 1q-47 -70 -136 -70q-56 0 -96 20.5t-61.5 57t-30.5 78t-9 91.5q0 130 64 208t178 78zM357 156v259q-36 16 -75 16q-66 0 -96.5 -53t-30.5 -135q0 -170 103 -170q43 0 71 26t28 57zM553 479v210q30 8 51 8
q48 0 48 -34q0 -14 -4 -36q-12 -65 -47 -157z" />
    <glyph glyph-name="Dcroat" unicode="&#x110;" horiz-adv-x="654" 
d="M10 287v96h70v282h217q147 0 229.5 -78t82.5 -231q0 -95 -25 -165.5t-68.5 -111t-97 -60t-116.5 -19.5h-222v287h-70zM202 568v-185h169v-96h-169v-191h102q86 0 134 62t48 180q0 230 -195 230h-89z" />
    <glyph glyph-name="dcroat" unicode="&#x111;" horiz-adv-x="537" 
d="M196 556v78h161v61h118v-61h56v-78h-56v-458l9 -98h-102l-8 54l-4 1q-47 -70 -136 -70q-56 0 -96 20.5t-61 55.5t-30.5 74.5t-9.5 86.5q0 124 64.5 200.5t177.5 76.5q39 0 78 -12v69h-161zM357 156v240q-36 16 -75 16q-66 0 -96.5 -52t-30.5 -127q0 -160 103 -160
q43 0 71 26t28 57z" />
    <glyph glyph-name="Emacron" unicode="&#x112;" horiz-adv-x="509" 
d="M70 0v665h401v-106h-279v-167h239v-106h-239v-180h286v-106h-408zM119 734v87h287v-87h-287z" />
    <glyph glyph-name="emacron" unicode="&#x113;" horiz-adv-x="462" 
d="M281 518q-114 0 -179 -80.5t-65 -196.5q0 -119 57 -187.5t176 -68.5q61 0 108.5 19t67.5 37l-37 79q-62 -44 -126 -44q-60 0 -91.5 37t-34.5 91q34 0 65.5 3.5t73 14.5t72 29t51.5 51t21 77q0 66 -42.5 102.5t-116.5 36.5zM334 374q0 -27 -20 -47t-50.5 -29t-58.5 -13
t-52 -4q2 62 33.5 107t87.5 45q27 0 43.5 -16t16.5 -43zM121 619v86h287v-86h-287z" />
    <glyph glyph-name="Ebreve" unicode="&#x114;" horiz-adv-x="509" 
d="M70 0v665h401v-106h-279v-167h239v-106h-239v-180h286v-106h-408zM365 875l73 -30q-43 -125 -173 -125q-69 0 -110.5 35.5t-56.5 88.5l74 31q30 -79 97 -79q37 0 58 18t38 61z" />
    <glyph glyph-name="ebreve" unicode="&#x115;" horiz-adv-x="462" 
d="M281 518q-114 0 -179 -80.5t-65 -196.5q0 -119 57 -187.5t176 -68.5q61 0 108.5 19t67.5 37l-37 79q-62 -44 -126 -44q-60 0 -91.5 37t-34.5 91q34 0 65.5 3.5t73 14.5t72 29t51.5 51t21 77q0 66 -42.5 102.5t-116.5 36.5zM334 374q0 -27 -20 -47t-50.5 -29t-58.5 -13
t-52 -4q2 62 33.5 107t87.5 45q27 0 43.5 -16t16.5 -43zM357 751l71 -17q-40 -143 -166 -143q-70 0 -109.5 40.5t-53.5 102.5l74 17q15 -46 36.5 -65t55.5 -19q31 0 53.5 19t38.5 65z" />
    <glyph glyph-name="Edotaccent" unicode="&#x116;" horiz-adv-x="509" 
d="M70 0v665h401v-106h-279v-167h239v-106h-239v-180h286v-106h-408zM202 793q0 28 19.5 47.5t49.5 19.5t49.5 -19.5t19.5 -47.5q0 -29 -19.5 -47.5t-49.5 -18.5q-31 0 -50 18.5t-19 47.5z" />
    <glyph glyph-name="edotaccent" unicode="&#x117;" horiz-adv-x="462" 
d="M281 518q-114 0 -179 -80.5t-65 -196.5q0 -119 57 -187.5t176 -68.5q61 0 108.5 19t67.5 37l-37 79q-62 -44 -126 -44q-60 0 -91.5 37t-34.5 91q34 0 65.5 3.5t73 14.5t72 29t51.5 51t21 77q0 66 -42.5 102.5t-116.5 36.5zM334 374q0 -27 -20 -47t-50.5 -29t-58.5 -13
t-52 -4q2 62 33.5 107t87.5 45q27 0 43.5 -16t16.5 -43zM196 647q0 28 19.5 47.5t49.5 19.5t49.5 -19.5t19.5 -47.5q0 -29 -19.5 -47.5t-49.5 -18.5q-31 0 -50 18.5t-19 47.5z" />
    <glyph glyph-name="Eogonek" unicode="&#x118;" horiz-adv-x="509" 
d="M70 0v665h401v-106h-279v-167h239v-106h-239v-180h286v-106q-52 -23 -82.5 -57.5t-30.5 -67.5q0 -40 39 -40q23 0 48 11l24 -74q-42 -21 -98 -21q-61 0 -87 29t-26 69q0 81 86 151h-281z" />
    <glyph glyph-name="eogonek" unicode="&#x119;" horiz-adv-x="462" 
d="M281 518q74 0 116.5 -36.5t42.5 -102.5q0 -44 -21 -77t-51.5 -51t-72 -29t-73 -14.5t-65.5 -3.5q3 -54 34.5 -91t91.5 -37q64 0 126 44l37 -79q-15 -13 -83 -48q-32 -17 -56 -52t-24 -66q0 -40 39 -40q23 0 48 11l24 -74q-42 -21 -98 -21q-61 0 -87 29t-26 69
q0 71 64 137q-107 7 -158.5 75t-51.5 180q0 116 65 196.5t179 80.5zM334 374q0 27 -16.5 43t-43.5 16q-56 0 -87.5 -45t-33.5 -107q24 0 52 4t58.5 13t50.5 29t20 47z" />
    <glyph glyph-name="Ecaron" unicode="&#x11a;" horiz-adv-x="509" 
d="M70 0v665h401v-106h-279v-167h239v-106h-239v-180h286v-106h-408zM104 856l41 34l118 -86l120 86l41 -35q-44 -56 -114 -126q-21 -21 -47 -21q-23 0 -49 24q-51 46 -110 124z" />
    <glyph glyph-name="ecaron" unicode="&#x11b;" horiz-adv-x="462" 
d="M281 518q-114 0 -179 -80.5t-65 -196.5q0 -119 57 -187.5t176 -68.5q61 0 108.5 19t67.5 37l-37 79q-62 -44 -126 -44q-60 0 -91.5 37t-34.5 91q34 0 65.5 3.5t73 14.5t72 29t51.5 51t21 77q0 66 -42.5 102.5t-116.5 36.5zM334 374q0 -27 -20 -47t-50.5 -29t-58.5 -13
t-52 -4q2 62 33.5 107t87.5 45q27 0 43.5 -16t16.5 -43zM383 786l41 -32q-61 -90 -103 -140q-27 -33 -55 -33q-17 0 -28 7t-27 25q-55 66 -104 140l41 34l118 -104z" />
    <glyph glyph-name="Gcircumflex" unicode="&#x11c;" horiz-adv-x="629" 
d="M572 348v-296q-93 -64 -233 -64q-139 0 -216.5 86.5t-77.5 256.5q0 93 26 162.5t69.5 108t93 57t104.5 18.5q149 0 236 -120l-88 -66q-66 83 -149 83q-78 0 -122.5 -62t-44.5 -173q0 -252 174 -252q69 0 106 24v145h-94v92h216zM218 708l-41 34q59 78 110 124
q26 24 49 24q26 0 47 -21q70 -70 114 -126l-41 -35l-120 86z" />
    <glyph glyph-name="gcircumflex" unicode="&#x11d;" horiz-adv-x="536" 
d="M253 -264q-82 0 -125 35.5t-43 98.5q0 103 111 178q-70 10 -115 62.5t-45 152.5q0 123 68.5 189t178.5 66q107 0 194 -37v-381q0 -92 -3 -128q-19 -236 -221 -236zM358 210v209q-35 12 -77 12q-61 0 -93.5 -43.5t-32.5 -116.5q0 -33 3.5 -57.5t13.5 -49.5t33 -38.5
t57 -13.5q41 0 68.5 26.5t27.5 71.5zM194 -111q0 -66 69 -66q55 0 75.5 45.5t20.5 131.5v65q-165 -83 -165 -176zM159 582l-41 32q61 90 103 140q27 33 55 33q17 0 28 -7t27 -25q55 -66 104 -140l-41 -34l-118 104z" />
    <glyph glyph-name="Gbreve" unicode="&#x11e;" horiz-adv-x="629" 
d="M572 348v-296q-93 -64 -233 -64q-139 0 -216.5 86.5t-77.5 256.5q0 93 26 162.5t69.5 108t93 57t104.5 18.5q149 0 236 -120l-88 -66q-66 83 -149 83q-78 0 -122.5 -62t-44.5 -173q0 -252 174 -252q69 0 106 24v145h-94v92h216zM434 875l73 -30q-43 -125 -173 -125
q-69 0 -110.5 35.5t-56.5 88.5l74 31q30 -79 97 -79q37 0 58 18t38 61z" />
    <glyph glyph-name="gbreve" unicode="&#x11f;" horiz-adv-x="536" 
d="M253 -264q-82 0 -125 35.5t-43 98.5q0 103 111 178q-70 10 -115 62.5t-45 152.5q0 123 68.5 189t178.5 66q107 0 194 -37v-381q0 -92 -3 -128q-19 -236 -221 -236zM358 210v209q-35 12 -77 12q-61 0 -93.5 -43.5t-32.5 -116.5q0 -33 3.5 -57.5t13.5 -49.5t33 -38.5
t57 -13.5q41 0 68.5 26.5t27.5 71.5zM194 -111q0 -66 69 -66q55 0 75.5 45.5t20.5 131.5v65q-165 -83 -165 -176zM375 751l71 -17q-40 -143 -166 -143q-70 0 -109.5 40.5t-53.5 102.5l74 17q15 -46 36.5 -65t55.5 -19q31 0 53.5 19t38.5 65z" />
    <glyph glyph-name="Gdotaccent" unicode="&#x120;" horiz-adv-x="629" 
d="M572 348v-296q-93 -64 -233 -64q-139 0 -216.5 86.5t-77.5 256.5q0 93 26 162.5t69.5 108t93 57t104.5 18.5q149 0 236 -120l-88 -66q-66 83 -149 83q-78 0 -122.5 -62t-44.5 -173q0 -252 174 -252q69 0 106 24v145h-94v92h216zM271 793q0 28 19.5 47.5t49.5 19.5
t49.5 -19.5t19.5 -47.5q0 -29 -19.5 -47.5t-49.5 -18.5q-31 0 -50 18.5t-19 47.5z" />
    <glyph glyph-name="gdotaccent" unicode="&#x121;" horiz-adv-x="536" 
d="M253 -264q-82 0 -125 35.5t-43 98.5q0 103 111 178q-70 10 -115 62.5t-45 152.5q0 123 68.5 189t178.5 66q107 0 194 -37v-381q0 -92 -3 -128q-19 -236 -221 -236zM358 210v209q-35 12 -77 12q-61 0 -93.5 -43.5t-32.5 -116.5q0 -33 3.5 -57.5t13.5 -49.5t33 -38.5
t57 -13.5q41 0 68.5 26.5t27.5 71.5zM194 -111q0 -66 69 -66q55 0 75.5 45.5t20.5 131.5v65q-165 -83 -165 -176zM214 647q0 28 19.5 47.5t49.5 19.5t49.5 -19.5t19.5 -47.5q0 -29 -19.5 -47.5t-49.5 -18.5q-31 0 -50 18.5t-19 47.5z" />
    <glyph glyph-name="Gcommaaccent" unicode="&#x122;" horiz-adv-x="629" 
d="M572 348v-296q-93 -64 -233 -64q-139 0 -216.5 86.5t-77.5 256.5q0 93 26 162.5t69.5 108t93 57t104.5 18.5q149 0 236 -120l-88 -66q-66 83 -149 83q-78 0 -122.5 -62t-44.5 -173q0 -252 174 -252q69 0 106 24v145h-94v92h216zM295 -61l-59 -198l45 -22q70 99 86 128
q16 28 16 47q0 14 -8 23.5t-23.5 13.5t-26.5 5.5t-30 2.5z" />
    <glyph glyph-name="gcommaaccent" unicode="&#x123;" horiz-adv-x="536" 
d="M370 774l-59 -198q-19 1 -30 2.5t-26.5 5.5t-23.5 13.5t-8 23.5q0 19 16 47q16 29 84 129zM253 -264q-82 0 -125 35.5t-43 98.5q0 103 111 178q-70 10 -115 62.5t-45 152.5q0 123 68.5 189t178.5 66q107 0 194 -37v-381q0 -92 -3 -128q-19 -236 -221 -236zM358 210v209
q-35 12 -77 12q-61 0 -93.5 -43.5t-32.5 -116.5q0 -33 3.5 -57.5t13.5 -49.5t33 -38.5t57 -13.5q41 0 68.5 26.5t27.5 71.5zM194 -111q0 -66 69 -66q55 0 75.5 45.5t20.5 131.5v65q-165 -83 -165 -176z" />
    <glyph glyph-name="Hcircumflex" unicode="&#x124;" horiz-adv-x="668" 
d="M475 665h123v-665h-123v287h-283v-287h-122v665h122v-272h283v272zM211 708l-41 34q59 78 110 124q26 24 49 24q26 0 47 -21q70 -70 114 -126l-41 -35l-120 86z" />
    <glyph glyph-name="hcircumflex" unicode="&#x125;" horiz-adv-x="534" 
d="M179 0h-119v695h119v-234q50 57 135 57q161 0 161 -176v-342h-119v321q0 50 -16 77.5t-61 27.5q-42 0 -71 -30t-29 -69v-327zM103 721l-41 34q59 78 110 124q26 24 49 24q26 0 47 -21q70 -70 114 -126l-41 -35l-120 86z" />
    <glyph glyph-name="Hbar" unicode="&#x126;" horiz-adv-x="667" 
d="M474 665h123v-101h62v-77h-62v-487h-123v287h-283v-287h-122v487h-63v77h63v101h122v-101h283v101zM191 393h283v94h-283v-94z" />
    <glyph glyph-name="hbar" unicode="&#x127;" horiz-adv-x="533" 
d="M3 556v78h56v61h119v-61h160v-78h-160v-115q51 58 135 58q161 0 161 -176v-323h-119v302q0 50 -16 77t-61 27q-42 0 -71 -30t-29 -69v-307h-119v556h-56z" />
    <glyph glyph-name="Itilde" unicode="&#x128;" horiz-adv-x="266" 
d="M194 0h-122v665h122v-665zM-1 733l-9 76q37 29 84 29q27 0 70 -13t65 -13q28 0 62 18l8 -81q-34 -18 -68 -18q-23 0 -71 11t-67 11q-38 0 -74 -20z" />
    <glyph glyph-name="itilde" unicode="&#x129;" horiz-adv-x="244" 
d="M184 0h-119v503h119v-503zM-10 622l-9 77q39 29 84 29q27 0 70 -13t65 -13q31 0 62 18l8 -81q-33 -19 -68 -19q-23 0 -71 11.5t-67 11.5q-37 0 -74 -21z" />
    <glyph glyph-name="Imacron" unicode="&#x12a;" horiz-adv-x="266" 
d="M194 0h-122v665h122v-665zM-10 734v87h287v-87h-287z" />
    <glyph glyph-name="imacron" unicode="&#x12b;" horiz-adv-x="244" 
d="M184 0h-119v503h119v-503zM-18 619v86h287v-86h-287z" />
    <glyph glyph-name="Ibreve" unicode="&#x12c;" horiz-adv-x="266" 
d="M194 0h-122v665h122v-665zM231 875l73 -30q-43 -125 -173 -125q-69 0 -110.5 35.5t-56.5 88.5l74 31q30 -79 97 -79q37 0 58 18t38 61z" />
    <glyph glyph-name="ibreve" unicode="&#x12d;" horiz-adv-x="244" 
d="M184 0h-119v503h119v-503zM218 751l71 -17q-40 -143 -166 -143q-70 0 -109.5 40.5t-53.5 102.5l74 17q15 -46 36.5 -65t55.5 -19q31 0 53.5 19t38.5 65z" />
    <glyph glyph-name="Iogonek" unicode="&#x12e;" horiz-adv-x="266" 
d="M194 0q-32 -26 -56 -61.5t-24 -64.5q0 -40 39 -40q23 0 48 11l24 -74q-42 -21 -98 -21q-61 0 -87 29t-26 69q0 80 79 152h-21v665h122v-665z" />
    <glyph glyph-name="iogonek" unicode="&#x12f;" horiz-adv-x="244" 
d="M184 0q-32 -26 -56 -61.5t-24 -64.5q0 -40 39 -40q23 0 48 11l24 -74q-42 -21 -98 -21q-61 0 -87 29t-26 69q0 80 79 152h-18v503h119v-503zM55 647q0 28 19.5 47.5t49.5 19.5t49.5 -19.5t19.5 -47.5q0 -29 -19.5 -47.5t-49.5 -18.5q-31 0 -50 18.5t-19 47.5z" />
    <glyph glyph-name="Idotaccent" unicode="&#x130;" horiz-adv-x="266" 
d="M194 0h-122v665h122v-665zM66 793q0 28 19.5 47.5t49.5 19.5t49.5 -19.5t19.5 -47.5q0 -29 -19.5 -47.5t-49.5 -18.5q-31 0 -50 18.5t-19 47.5z" />
    <glyph glyph-name="dotlessi" unicode="&#x131;" horiz-adv-x="244" 
d="M184 0h-119v503h119v-503z" />
    <glyph glyph-name="IJ" unicode="&#x132;" horiz-adv-x="695" 
d="M194 0h-122v665h122v-665zM270 40l51 87q51 -37 111 -37q74 0 74 91v484h122v-426q0 -71 -4 -105q-8 -69 -54.5 -107.5t-127.5 -38.5q-105 0 -172 52z" />
    <glyph glyph-name="ij" unicode="&#x133;" horiz-adv-x="488" 
d="M184 0h-119v503h119v-503zM55 647q0 28 19.5 47.5t49.5 19.5t49.5 -19.5t19.5 -47.5q0 -29 -19.5 -47.5t-49.5 -18.5q-31 0 -50 18.5t-19 47.5zM309 -39v542h119v-537q0 -41 -5.5 -71t-21 -59t-49 -44.5t-84.5 -15.5q-72 0 -128 35l36 83q39 -21 74 -21q30 0 44.5 20
t14.5 68zM302 647q0 28 19 47.5t50 19.5q30 0 49.5 -19.5t19.5 -47.5q0 -29 -19.5 -47.5t-50.5 -18.5q-30 0 -49 18.5t-19 47.5z" />
    <glyph glyph-name="Jcircumflex" unicode="&#x134;" horiz-adv-x="429" 
d="M4 40l51 87q51 -37 111 -37q74 0 74 91v484h122v-426q0 -71 -4 -105q-8 -69 -54.5 -107.5t-127.5 -38.5q-105 0 -172 52zM174 709l-41 34q59 78 110 124q26 24 49 24q26 0 47 -21q70 -70 114 -126l-41 -35l-120 86z" />
    <glyph glyph-name="jcircumflex" unicode="&#x135;" horiz-adv-x="244" 
d="M65 -39v542h119v-537q0 -41 -5.5 -71t-21 -59t-49 -44.5t-84.5 -15.5q-72 0 -128 35l36 83q39 -21 74 -21q30 0 44.5 20t14.5 68zM3 582l-41 32q61 90 103 140q27 33 55 33q17 0 28 -7t27 -25q55 -66 104 -140l-41 -34l-118 104z" />
    <glyph glyph-name="Kcommaaccent" unicode="&#x136;" horiz-adv-x="580" 
d="M559 665l-190 -271l207 -394h-138l-151 296l-96 -129v-167h-121v665h121v-334l238 334h130zM242 -61l-59 -198l45 -22q70 99 86 128q16 28 16 47q0 14 -8 23.5t-23.5 13.5t-26.5 5.5t-30 2.5z" />
    <glyph glyph-name="kcommaaccent" unicode="&#x137;" horiz-adv-x="496" 
d="M473 397q0 -48 -26 -96t-81 -82l117 -219h-134l-93 175q-36 -8 -74 -11v-164h-119v695h119v-288h3q25 48 67.5 79.5t103.5 31.5q50 0 83.5 -30t33.5 -91zM349 379q0 44 -37 44q-46 0 -84.5 -56.5t-44.5 -117.5q77 7 121.5 42t44.5 88zM211 -61l-59 -198l47 -23
q68 100 84 129q16 28 16 47q0 14 -8 23.5t-23.5 13.5t-26.5 5.5t-30 2.5z" />
    <glyph glyph-name="kgreenlandic" unicode="&#x138;" horiz-adv-x="496" 
d="M349 0l-105 199q-23 -7 -62 -11v-188h-119v503h119v-96h3q31 55 70.5 83t100.5 28q50 0 83.5 -29.5t33.5 -87.5q0 -112 -114 -169l124 -232h-134zM349 383q0 40 -37 40q-43 0 -81.5 -55t-47.5 -100q70 7 118 36.5t48 78.5z" />
    <glyph glyph-name="Lacute" unicode="&#x139;" horiz-adv-x="500" 
d="M71 0v665h122v-559h282v-106h-404zM43 750l162 157q58 -34 58 -66q0 -25 -40 -51q-16 -10 -150 -81z" />
    <glyph glyph-name="lacute" unicode="&#x13a;" horiz-adv-x="323" 
d="M63 694h119v-530q0 -47 12 -66t42 -19q26 0 63 16l26 -80q-48 -30 -119 -30q-39 0 -66.5 9.5t-42 22.5t-22.5 35.5t-10 41t-2 45.5v555zM42 761l162 157q58 -34 58 -66q0 -25 -40 -51q-16 -10 -150 -81z" />
    <glyph glyph-name="Lcommaaccent" unicode="&#x13b;" horiz-adv-x="500" 
d="M71 0v665h122v-559h282v-106h-404zM219 -61l-59 -198l45 -22q70 99 86 128q16 28 16 47q0 14 -8 23.5t-23.5 13.5t-26.5 5.5t-30 2.5z" />
    <glyph glyph-name="lcommaaccent" unicode="&#x13c;" horiz-adv-x="323" 
d="M63 694h119v-530q0 -47 12 -66t42 -19q26 0 63 16l26 -80q-48 -30 -119 -30q-39 0 -66.5 9.5t-42 22.5t-22.5 35.5t-10 41t-2 45.5v555zM147 -61l-59 -198l47 -23q68 100 84 129q16 28 16 47q0 14 -8 23.5t-23.5 13.5t-26.5 5.5t-30 2.5z" />
    <glyph glyph-name="Lcaron" unicode="&#x13d;" horiz-adv-x="500" 
d="M71 0v665h122v-559h282v-106h-404zM338 657v-210l48 -9q35 92 47 157q4 22 4 36q0 34 -48 34q-21 0 -51 -8z" />
    <glyph glyph-name="lcaron" unicode="&#x13e;" horiz-adv-x="331" 
d="M63 694h119v-530q0 -47 12 -66t42 -19q26 0 63 16l26 -80q-48 -30 -119 -30q-39 0 -66.5 9.5t-42 22.5t-22.5 35.5t-10 41t-2 45.5v555zM257 479v210q30 8 51 8q48 0 48 -34q0 -14 -4 -36q-12 -65 -47 -157z" />
    <glyph glyph-name="Ldot" unicode="&#x13f;" horiz-adv-x="500" 
d="M71 0v665h122v-559h282v-106h-404zM314 356q0 28 19.5 47.5t49.5 19.5t49.5 -19.5t19.5 -47.5q0 -29 -19.5 -47.5t-49.5 -18.5q-31 0 -50 18.5t-19 47.5z" />
    <glyph glyph-name="ldot" unicode="&#x140;" horiz-adv-x="405" 
d="M63 694h119v-530q0 -47 12 -66t42 -19q26 0 63 16l26 -80q-48 -30 -119 -30q-39 0 -66.5 9.5t-42 22.5t-22.5 35.5t-10 41t-2 45.5v555zM259 355q0 28 19.5 47.5t49.5 19.5t49.5 -19.5t19.5 -47.5q0 -29 -19.5 -47.5t-49.5 -18.5q-31 0 -50 18.5t-19 47.5z" />
    <glyph glyph-name="Lslash" unicode="&#x141;" horiz-adv-x="500" 
d="M5 203l-43 83l109 59v320h122v-264l185 96l43 -83l-228 -118v-190h282v-106h-404v239z" />
    <glyph glyph-name="lslash" unicode="&#x142;" horiz-adv-x="382" 
d="M114 694h119v-246l88 68l56 -76l-144 -106v-170q0 -47 12 -66t42 -19q26 0 63 16l26 -80q-48 -30 -119 -30q-39 0 -66.5 9.5t-42 23t-22.5 36.5t-10 41.5t-2 45.5v113l-58 -46l-56 76l114 89v321z" />
    <glyph glyph-name="Nacute" unicode="&#x143;" horiz-adv-x="666" 
d="M475 665h121v-665h-117l-287 469h-2v-469h-120v665h123l280 -462h2v462zM245 750l162 157q58 -34 58 -66q0 -25 -40 -51q-16 -10 -150 -81z" />
    <glyph glyph-name="nacute" unicode="&#x144;" horiz-adv-x="538" 
d="M183 0h-119v416l-8 87h100l10 -63q55 78 154 78q76 0 117.5 -43.5t41.5 -130.5v-344h-119v318q0 53 -15.5 80.5t-59.5 27.5t-73 -30.5t-29 -70.5v-325zM196 604l116 192q76 -20 76 -60q0 -20 -27 -49q-11 -12 -126 -116z" />
    <glyph glyph-name="Ncommaaccent" unicode="&#x145;" horiz-adv-x="666" 
d="M475 665h121v-665h-117l-287 469h-2v-469h-120v665h123l280 -462h2v462zM302 -61l-59 -198l45 -22q70 99 86 128q16 28 16 47q0 14 -8 23.5t-23.5 13.5t-26.5 5.5t-30 2.5z" />
    <glyph glyph-name="ncommaaccent" unicode="&#x146;" horiz-adv-x="538" 
d="M183 0h-119v416l-8 87h100l10 -63q55 78 154 78q76 0 117.5 -43.5t41.5 -130.5v-344h-119v318q0 53 -15.5 80.5t-59.5 27.5t-73 -30.5t-29 -70.5v-325zM241 -61l-59 -198l47 -23q68 100 84 129q16 28 16 47q0 14 -8 23.5t-23.5 13.5t-26.5 5.5t-30 2.5z" />
    <glyph glyph-name="Ncaron" unicode="&#x147;" horiz-adv-x="666" 
d="M475 665h121v-665h-117l-287 469h-2v-469h-120v665h123l280 -462h2v462zM170 856l41 34l118 -86l120 86l41 -35q-44 -56 -114 -126q-21 -21 -47 -21q-23 0 -49 24q-51 46 -110 124z" />
    <glyph glyph-name="ncaron" unicode="&#x148;" horiz-adv-x="538" 
d="M183 0h-119v416l-8 87h100l10 -63q55 78 154 78q76 0 117.5 -43.5t41.5 -130.5v-344h-119v318q0 53 -15.5 80.5t-59.5 27.5t-73 -30.5t-29 -70.5v-325zM394 786l41 -32q-61 -90 -103 -140q-27 -33 -55 -33q-17 0 -28 7t-27 25q-55 66 -104 140l41 34l118 -104z" />
    <glyph glyph-name="napostrophe" unicode="&#x149;" horiz-adv-x="538" 
d="M183 0h-119v416l-8 87h100l10 -63q55 78 154 78q76 0 117.5 -43.5t41.5 -130.5v-344h-119v318q0 53 -15.5 80.5t-59.5 27.5t-73 -30.5t-29 -70.5v-325zM-58 503l34 207q22 2 40 2q47 0 47 -33q0 -15 -8 -39q-20 -53 -71 -151z" />
    <glyph glyph-name="Eng" unicode="&#x14a;" horiz-adv-x="662" 
d="M472 665h121v-702q0 -85 -34.5 -132.5t-130.5 -47.5q-45 0 -89.5 13.5t-69.5 31.5l43 85q45 -32 93 -32q38 0 53.5 22t15.5 66v35l-284 465h-2v-469h-121v665h123l281 -462h1v462z" />
    <glyph glyph-name="eng" unicode="&#x14b;" horiz-adv-x="534" 
d="M178 0h-118v416l-9 87h100l10 -63q54 77 154 77q159 0 159 -174v-381q0 -44 -4 -71t-17.5 -56.5t-45.5 -44t-82 -14.5q-79 0 -135 35l32 83q39 -21 77 -21q29 0 42.5 18.5t13.5 66.5v359q0 53 -15.5 80.5t-60.5 27.5q-41 0 -71 -30t-30 -70v-325z" />
    <glyph glyph-name="Omacron" unicode="&#x14c;" horiz-adv-x="663" 
d="M618 331q0 -168 -77 -255.5t-212 -87.5q-136 0 -210 87t-74 256q0 92 26 161.5t69.5 108.5t94 57.5t105.5 18.5q58 0 106.5 -19t88 -58.5t61.5 -108t22 -160.5zM170 336q0 -247 166 -247q44 0 75.5 20t49 55t25.5 75.5t8 88.5q0 42 -7.5 82t-24 78.5t-50 62t-78.5 23.5
q-57 0 -95.5 -35.5t-53.5 -87t-15 -115.5zM191 734v87h287v-87h-287z" />
    <glyph glyph-name="omacron" unicode="&#x14d;" horiz-adv-x="520" 
d="M261 73q-104 0 -104 193q0 75 26.5 119.5t79.5 44.5q102 0 102 -181q0 -82 -25.5 -129t-78.5 -47zM36 252q0 -133 57 -200t160 -67q104 0 169 71t65 209q0 66 -16 114.5t-39 74t-55 41t-56.5 19.5t-51.5 4q-42 0 -80.5 -13t-74 -41.5t-57 -83t-21.5 -128.5zM121 619v86
h287v-86h-287z" />
    <glyph glyph-name="Obreve" unicode="&#x14e;" horiz-adv-x="663" 
d="M618 331q0 -168 -77 -255.5t-212 -87.5q-136 0 -210 87t-74 256q0 92 26 161.5t69.5 108.5t94 57.5t105.5 18.5q58 0 106.5 -19t88 -58.5t61.5 -108t22 -160.5zM170 336q0 -247 166 -247q44 0 75.5 20t49 55t25.5 75.5t8 88.5q0 42 -7.5 82t-24 78.5t-50 62t-78.5 23.5
q-57 0 -95.5 -35.5t-53.5 -87t-15 -115.5zM431 875l73 -30q-43 -125 -173 -125q-69 0 -110.5 35.5t-56.5 88.5l74 31q30 -79 97 -79q37 0 58 18t38 61z" />
    <glyph glyph-name="obreve" unicode="&#x14f;" horiz-adv-x="520" 
d="M261 73q-104 0 -104 193q0 75 26.5 119.5t79.5 44.5q102 0 102 -181q0 -82 -25.5 -129t-78.5 -47zM36 252q0 -133 57 -200t160 -67q104 0 169 71t65 209q0 66 -16 114.5t-39 74t-55 41t-56.5 19.5t-51.5 4q-42 0 -80.5 -13t-74 -41.5t-57 -83t-21.5 -128.5zM357 751
l71 -17q-40 -143 -166 -143q-70 0 -109.5 40.5t-53.5 102.5l74 17q15 -46 36.5 -65t55.5 -19q31 0 53.5 19t38.5 65z" />
    <glyph glyph-name="Ohungarumlaut" unicode="&#x150;" horiz-adv-x="663" 
d="M618 331q0 -168 -77 -255.5t-212 -87.5q-136 0 -210 87t-74 256q0 92 26 161.5t69.5 108.5t94 57.5t105.5 18.5q58 0 106.5 -19t88 -58.5t61.5 -108t22 -160.5zM170 336q0 -247 166 -247q44 0 75.5 20t49 55t25.5 75.5t8 88.5q0 42 -7.5 82t-24 78.5t-50 62t-78.5 23.5
q-57 0 -95.5 -35.5t-53.5 -87t-15 -115.5zM177 744l166 154q56 -37 56 -66q0 -27 -41 -51q-28 -17 -152 -79zM385 744l166 153q56 -34 56 -65q0 -26 -41 -51q-29 -17 -152 -79z" />
    <glyph glyph-name="ohungarumlaut" unicode="&#x151;" horiz-adv-x="520" 
d="M261 73q53 0 78.5 47t25.5 129q0 181 -102 181q-53 0 -79.5 -44.5t-26.5 -119.5q0 -193 104 -193zM36 252q0 74 21.5 128.5t57 83t74 41.5t80.5 13q27 0 51.5 -4t56.5 -19.5t55 -41t39 -74t16 -114.5q0 -138 -65 -209t-169 -71q-103 0 -160 67t-57 200zM119 604l116 192
q76 -21 76 -60q0 -20 -27 -49q-11 -12 -126 -116zM290 604l117 192q76 -20 76 -60q0 -19 -28 -49q-20 -22 -126 -116z" />
    <glyph glyph-name="OE" unicode="&#x152;" horiz-adv-x="877" 
d="M350 676q50 0 99 -11h390v-106h-279v-167h239v-106h-239v-180h286v-106h-397q-58 -14 -112 -14q-139 0 -215.5 88t-76.5 257q0 74 18 134t47.5 98.5t69.5 64.5t82.5 37t87.5 11zM170 336q0 -38 4.5 -71t17 -67t32.5 -57.5t52.5 -38.5t75.5 -15q49 0 86 16v452
q-44 19 -88 19q-91 0 -135.5 -69t-44.5 -169z" />
    <glyph glyph-name="oe" unicode="&#x153;" horiz-adv-x="786" 
d="M605 518q74 0 116.5 -36.5t42.5 -102.5q0 -44 -21 -77t-51.5 -51t-72 -29t-73 -14.5t-65.5 -3.5q3 -54 34.5 -91t91.5 -37q64 0 126 44l37 -79q-20 -18 -67.5 -37t-108.5 -19q-124 0 -178 93q-26 -45 -70.5 -69t-97.5 -24q-100 0 -156 66.5t-56 199.5q0 75 21 129.5
t55.5 83t72 41.5t78.5 13q120 0 165 -98q62 98 177 98zM261 73q104 0 104 176q0 181 -102 181q-53 0 -79.5 -44.5t-26.5 -120.5q0 -192 104 -192zM658 374q0 27 -16.5 43t-43.5 16q-56 0 -87.5 -45t-33.5 -107q24 0 52 4t58.5 13t50.5 29t20 47z" />
    <glyph glyph-name="Racute" unicode="&#x154;" horiz-adv-x="595" 
d="M192 262v-262h-122v665h223q116 0 178 -43t62 -141q0 -69 -33.5 -113t-81.5 -63q34 -12 55 -61l110 -244h-130l-96 210q-23 52 -66 52h-99zM192 357h100q55 0 86 29.5t31 85.5q0 60 -34 78t-113 18h-70v-211zM198 750l162 157q58 -34 58 -66q0 -25 -40 -51
q-16 -10 -150 -81z" />
    <glyph glyph-name="racute" unicode="&#x155;" horiz-adv-x="366" 
d="M184 316v-316h-119v422l-9 81h98l12 -73q16 42 49 65t72 23q46 0 80 -20l-21 -101q-37 20 -71 20q-40 0 -64.5 -28.5t-26.5 -72.5zM148 604l116 192q76 -20 76 -60q0 -20 -27 -49q-11 -12 -126 -116z" />
    <glyph glyph-name="Rcommaaccent" unicode="&#x156;" horiz-adv-x="595" 
d="M192 262v-262h-122v665h223q116 0 178 -43t62 -141q0 -69 -33.5 -113t-81.5 -63q34 -12 55 -61l110 -244h-130l-96 210q-23 52 -66 52h-99zM192 357h100q55 0 86 29.5t31 85.5q0 60 -34 78t-113 18h-70v-211zM259 -61l-59 -198l45 -22q70 99 86 128q16 28 16 47
q0 14 -8 23.5t-23.5 13.5t-26.5 5.5t-30 2.5z" />
    <glyph glyph-name="rcommaaccent" unicode="&#x157;" horiz-adv-x="366" 
d="M184 316v-316h-119v422l-9 81h98l12 -73q16 42 49 65t72 23q46 0 80 -20l-21 -101q-37 20 -71 20q-40 0 -64.5 -28.5t-26.5 -72.5zM99 -61l-59 -198l47 -23q68 100 84 129q16 28 16 47q0 14 -8 23.5t-23.5 13.5t-26.5 5.5t-30 2.5z" />
    <glyph glyph-name="Rcaron" unicode="&#x158;" horiz-adv-x="595" 
d="M192 262v-262h-122v665h223q116 0 178 -43t62 -141q0 -69 -33.5 -113t-81.5 -63q34 -12 55 -61l110 -244h-130l-96 210q-23 52 -66 52h-99zM192 357h100q55 0 86 29.5t31 85.5q0 60 -34 78t-113 18h-70v-211zM106 856l41 34l118 -86l120 86l41 -35q-44 -56 -114 -126
q-21 -21 -47 -21q-23 0 -49 24q-51 46 -110 124z" />
    <glyph glyph-name="rcaron" unicode="&#x159;" horiz-adv-x="366" 
d="M184 316v-316h-119v422l-9 81h98l12 -73q16 42 49 65t72 23q46 0 80 -20l-21 -101q-37 20 -71 20q-40 0 -64.5 -28.5t-26.5 -72.5zM314 786l41 -32q-61 -90 -103 -140q-27 -33 -55 -33q-17 0 -28 7t-27 25q-55 66 -104 140l41 34l118 -104z" />
    <glyph glyph-name="Sacute" unicode="&#x15a;" horiz-adv-x="537" 
d="M29 52l45 100q34 -22 86 -40t99 -18q107 0 107 92q0 43 -31.5 63.5t-95.5 37.5q-43 12 -72.5 24.5t-59 34t-44.5 55.5t-15 80q0 90 62.5 143t162.5 53q67 0 127.5 -26t101.5 -68l-65 -81q-86 71 -164 71q-40 0 -69 -19.5t-29 -61.5t31.5 -62.5t101.5 -41.5q33 -10 55 -19
t49.5 -25.5t43.5 -36t27.5 -49.5t11.5 -67q0 -97 -64 -150t-174 -53q-67 0 -132 21t-96 43zM176 750l162 157q58 -34 58 -66q0 -25 -40 -51q-16 -10 -150 -81z" />
    <glyph glyph-name="sacute" unicode="&#x15b;" horiz-adv-x="419" 
d="M20 36l35 85q75 -48 143 -48q34 0 55 16t21 48q0 31 -21 45.5t-64 27.5q-37 11 -56.5 18.5t-46.5 24t-39.5 43t-12.5 63.5q0 75 53 117t130 42q110 0 181 -71l-57 -70q-62 54 -122 54q-29 0 -49.5 -15t-20.5 -43q0 -22 14 -37t29.5 -21t45.5 -15q35 -11 56 -20t47 -26.5
t38.5 -44.5t12.5 -64q0 -76 -51.5 -118t-137.5 -42q-58 0 -108.5 16.5t-74.5 34.5zM145 604l116 192q76 -20 76 -60q0 -20 -27 -49q-11 -12 -126 -116z" />
    <glyph glyph-name="Scircumflex" unicode="&#x15c;" horiz-adv-x="537" 
d="M29 52l45 100q34 -22 86 -40t99 -18q107 0 107 92q0 43 -31.5 63.5t-95.5 37.5q-43 12 -72.5 24.5t-59 34t-44.5 55.5t-15 80q0 90 62.5 143t162.5 53q67 0 127.5 -26t101.5 -68l-65 -81q-86 71 -164 71q-40 0 -69 -19.5t-29 -61.5t31.5 -62.5t101.5 -41.5q33 -10 55 -19
t49.5 -25.5t43.5 -36t27.5 -49.5t11.5 -67q0 -97 -64 -150t-174 -53q-67 0 -132 21t-96 43zM160 708l-41 34q59 78 110 124q26 24 49 24q26 0 47 -21q70 -70 114 -126l-41 -35l-120 86z" />
    <glyph glyph-name="scircumflex" unicode="&#x15d;" horiz-adv-x="419" 
d="M20 36l35 85q75 -48 143 -48q34 0 55 16t21 48q0 31 -21 45.5t-64 27.5q-37 11 -56.5 18.5t-46.5 24t-39.5 43t-12.5 63.5q0 75 53 117t130 42q110 0 181 -71l-57 -70q-62 54 -122 54q-29 0 -49.5 -15t-20.5 -43q0 -22 14 -37t29.5 -21t45.5 -15q35 -11 56 -20t47 -26.5
t38.5 -44.5t12.5 -64q0 -76 -51.5 -118t-137.5 -42q-58 0 -108.5 16.5t-74.5 34.5zM98 582l-41 32q61 90 103 140q27 33 55 33q17 0 28 -7t27 -25q55 -66 104 -140l-41 -34l-118 104z" />
    <glyph glyph-name="Scedilla" unicode="&#x15e;" horiz-adv-x="537" 
d="M29 52l45 100q34 -22 86 -40t99 -18q107 0 107 92q0 43 -31.5 63.5t-95.5 37.5q-43 12 -72.5 24.5t-59 34t-44.5 55.5t-15 80q0 90 62.5 143t162.5 53q67 0 127.5 -26t101.5 -68l-65 -81q-86 71 -164 71q-40 0 -69 -19.5t-29 -61.5t31.5 -62.5t101.5 -41.5q33 -10 55 -19
t49.5 -25.5t43.5 -36t27.5 -49.5t11.5 -67q0 -89 -54.5 -141t-149.5 -60l-14 -56q41 -3 65.5 -23.5t24.5 -55.5q0 -50 -35 -73.5t-83 -23.5q-49 0 -90 18l16 54q39 -13 67 -13q50 0 50 35q0 22 -22.5 30t-67.5 8l31 99q-61 3 -119 23t-85 40z" />
    <glyph glyph-name="scedilla" unicode="&#x15f;" horiz-adv-x="419" 
d="M20 36l35 85q75 -48 143 -48q34 0 55 16t21 48q0 31 -21 45.5t-64 27.5q-37 11 -56.5 18.5t-46.5 24t-39.5 43t-12.5 63.5q0 75 53 117t130 42q110 0 181 -71l-57 -70q-62 54 -122 54q-29 0 -49.5 -15t-20.5 -43q0 -22 14 -37t29.5 -21t45.5 -15q35 -11 56 -20t47 -26.5
t38.5 -44.5t12.5 -64q0 -67 -40 -107.5t-108 -49.5l-14 -54q41 -3 65.5 -23.5t24.5 -55.5q0 -50 -35 -73.5t-83 -23.5q-49 0 -90 18l16 54q39 -13 67 -13q50 0 50 35q0 22 -22.5 30t-67.5 8l30 96q-54 3 -99 18t-66 32z" />
    <glyph glyph-name="Scaron" unicode="&#x160;" horiz-adv-x="537" 
d="M29 52l45 100q34 -22 86 -40t99 -18q107 0 107 92q0 43 -31.5 63.5t-95.5 37.5q-43 12 -72.5 24.5t-59 34t-44.5 55.5t-15 80q0 90 62.5 143t162.5 53q67 0 127.5 -26t101.5 -68l-65 -81q-86 71 -164 71q-40 0 -69 -19.5t-29 -61.5t31.5 -62.5t101.5 -41.5q33 -10 55 -19
t49.5 -25.5t43.5 -36t27.5 -49.5t11.5 -67q0 -97 -64 -150t-174 -53q-67 0 -132 21t-96 43zM116 856l41 34l118 -86l120 86l41 -35q-44 -56 -114 -126q-21 -21 -47 -21q-23 0 -49 24q-51 46 -110 124z" />
    <glyph glyph-name="scaron" unicode="&#x161;" horiz-adv-x="419" 
d="M20 36l35 85q75 -48 143 -48q34 0 55 16t21 48q0 31 -21 45.5t-64 27.5q-37 11 -56.5 18.5t-46.5 24t-39.5 43t-12.5 63.5q0 75 53 117t130 42q110 0 181 -71l-57 -70q-62 54 -122 54q-29 0 -49.5 -15t-20.5 -43q0 -22 14 -37t29.5 -21t45.5 -15q35 -11 56 -20t47 -26.5
t38.5 -44.5t12.5 -64q0 -76 -51.5 -118t-137.5 -42q-58 0 -108.5 16.5t-74.5 34.5zM337 786l41 -32q-61 -90 -103 -140q-27 -33 -55 -33q-17 0 -28 7t-27 25q-55 66 -104 140l41 34l118 -104z" />
    <glyph glyph-name="uni0162" unicode="&#x162;" horiz-adv-x="538" 
d="M17 665h504v-106h-194v-559h-41l-17 -66q41 -3 65.5 -23.5t24.5 -55.5q0 -50 -35 -73.5t-83 -23.5q-49 0 -90 18l16 54q39 -13 67 -13q50 0 50 35q0 22 -22.5 30t-67.5 8l35 110h-23v559h-189v106z" />
    <glyph glyph-name="uni0163" unicode="&#x163;" horiz-adv-x="350" 
d="M63 695h119v-192h135v-93h-135v-254q0 -44 16 -61.5t49 -17.5q34 0 68 21l30 -77q-44 -31 -113 -34l-13 -53q41 -3 65.5 -23.5t24.5 -55.5q0 -50 -35 -73.5t-83 -23.5q-49 0 -90 18l16 54q39 -13 67 -13q50 0 50 35q0 22 -22.5 30t-67.5 8l31 99q-32 5 -54.5 18t-33.5 27
t-17 39t-6.5 38.5t-0.5 40.5v543z" />
    <glyph glyph-name="Tcaron" unicode="&#x164;" horiz-adv-x="538" 
d="M17 665h504v-106h-194v-559h-121v559h-189v106zM108 856l41 34l118 -86l120 86l41 -35q-44 -56 -114 -126q-21 -21 -47 -21q-23 0 -49 24q-51 46 -110 124z" />
    <glyph glyph-name="tcaron" unicode="&#x165;" horiz-adv-x="350" 
d="M63 695h119v-192h135v-93h-135v-254q0 -44 16 -61.5t49 -17.5q34 0 68 21l30 -77q-50 -35 -127 -35q-45 0 -76 11.5t-46 25.5t-23 41t-9 42.5t-1 45.5v543zM268 577v210q30 8 51 8q48 0 48 -34q0 -14 -4 -36q-12 -65 -47 -157z" />
    <glyph glyph-name="Tbar" unicode="&#x166;" horiz-adv-x="524" 
d="M17 665h503v-106h-193v-207h114v-78h-114v-274h-122v274h-114v78h114v207h-188v106z" />
    <glyph glyph-name="tbar" unicode="&#x167;" horiz-adv-x="350" 
d="M63 695h119v-192h135v-93h-135v-89h135v-93h-135v-72q0 -44 16 -61.5t49 -17.5q34 0 68 21l30 -77q-50 -35 -127 -35q-45 0 -76 11t-46 25t-23 40.5t-9 42.5t-1 47v543z" />
    <glyph glyph-name="Utilde" unicode="&#x168;" horiz-adv-x="629" 
d="M65 665h121v-448q0 -127 131 -127q57 0 91 31t34 91v453h122v-470q0 -97 -68.5 -152t-182.5 -55q-125 0 -186.5 53.5t-61.5 169.5v454zM183 733l-9 76q37 29 84 29q27 0 70 -13t65 -13q28 0 62 18l8 -81q-34 -18 -68 -18q-23 0 -71 11t-67 11q-38 0 -74 -20z" />
    <glyph glyph-name="utilde" unicode="&#x169;" horiz-adv-x="540" 
d="M358 503h119v-419l8 -84h-102l-7 59h-4q-50 -73 -145 -73q-165 0 -165 176v341h119v-319q0 -52 16 -79t62 -27q40 0 69.5 29.5t29.5 66.5v329zM136 622l-9 77q39 29 84 29q27 0 70 -13t65 -13q31 0 62 18l8 -81q-33 -19 -68 -19q-23 0 -71 11.5t-67 11.5q-36 0 -74 -21z
" />
    <glyph glyph-name="Umacron" unicode="&#x16a;" horiz-adv-x="629" 
d="M65 665h121v-448q0 -127 131 -127q57 0 91 31t34 91v453h122v-470q0 -97 -68.5 -152t-182.5 -55q-125 0 -186.5 53.5t-61.5 169.5v454zM173 734v87h287v-87h-287z" />
    <glyph glyph-name="umacron" unicode="&#x16b;" horiz-adv-x="540" 
d="M358 503h119v-419l8 -84h-102l-7 59h-4q-50 -73 -145 -73q-165 0 -165 176v341h119v-319q0 -52 16 -79t62 -27q40 0 69.5 29.5t29.5 66.5v329zM128 619v86h287v-86h-287z" />
    <glyph glyph-name="Ubreve" unicode="&#x16c;" horiz-adv-x="629" 
d="M65 665h121v-448q0 -127 131 -127q57 0 91 31t34 91v453h122v-470q0 -97 -68.5 -152t-182.5 -55q-125 0 -186.5 53.5t-61.5 169.5v454zM416 875l73 -30q-43 -125 -173 -125q-69 0 -110.5 35.5t-56.5 88.5l74 31q30 -79 97 -79q37 0 58 18t38 61z" />
    <glyph glyph-name="ubreve" unicode="&#x16d;" horiz-adv-x="540" 
d="M358 503h119v-419l8 -84h-102l-7 59h-4q-50 -73 -145 -73q-165 0 -165 176v341h119v-319q0 -52 16 -79t62 -27q40 0 69.5 29.5t29.5 66.5v329zM364 751l71 -17q-40 -143 -166 -143q-70 0 -109.5 40.5t-53.5 102.5l74 17q15 -46 36.5 -65t55.5 -19q31 0 53.5 19t38.5 65z
" />
    <glyph glyph-name="Uring" unicode="&#x16e;" horiz-adv-x="629" 
d="M65 665h121v-448q0 -127 131 -127q57 0 91 31t34 91v453h122v-470q0 -97 -68.5 -152t-182.5 -55q-125 0 -186.5 53.5t-61.5 169.5v454zM222 793q0 41 26.5 67t68.5 26q43 0 68 -25.5t25 -62.5q0 -43 -26 -70.5t-70 -27.5q-43 0 -67.5 26.5t-24.5 66.5zM281 793
q0 -42 36 -42q17 0 26.5 12t9.5 30q0 41 -36 41t-36 -41z" />
    <glyph glyph-name="uring" unicode="&#x16f;" horiz-adv-x="540" 
d="M358 503h119v-419l8 -84h-102l-7 59h-4q-50 -73 -145 -73q-165 0 -165 176v341h119v-319q0 -52 16 -79t62 -27q40 0 69.5 29.5t29.5 66.5v329zM181 657q0 41 26.5 67t68.5 26q43 0 68 -25.5t25 -62.5q0 -43 -26 -70.5t-70 -27.5q-43 0 -67.5 26.5t-24.5 66.5zM240 657
q0 -42 36 -42q17 0 26.5 12t9.5 30q0 41 -36 41t-36 -41z" />
    <glyph glyph-name="Uhungarumlaut" unicode="&#x170;" horiz-adv-x="629" 
d="M65 665h121v-448q0 -127 131 -127q57 0 91 31t34 91v453h122v-470q0 -97 -68.5 -152t-182.5 -55q-125 0 -186.5 53.5t-61.5 169.5v454zM132 744l166 154q56 -37 56 -66q0 -27 -41 -51q-29 -17 -152 -79zM340 744l166 153q56 -34 56 -65q0 -26 -41 -51q-28 -17 -152 -79z
" />
    <glyph glyph-name="uhungarumlaut" unicode="&#x171;" horiz-adv-x="540" 
d="M358 503h119v-419l8 -84h-102l-7 59h-4q-50 -73 -145 -73q-165 0 -165 176v341h119v-319q0 -52 16 -79t62 -27q40 0 69.5 29.5t29.5 66.5v329zM118 604l116 192q76 -21 76 -60q0 -20 -27 -49q-11 -12 -126 -116zM289 604l117 192q76 -20 76 -60q0 -19 -28 -49
q-20 -22 -126 -116z" />
    <glyph glyph-name="Uogonek" unicode="&#x172;" horiz-adv-x="629" 
d="M65 665h121v-448q0 -127 131 -127q57 0 91 31t34 91v453h122v-470q0 -124 -138 -194q-35 -17 -61.5 -54t-26.5 -72q0 -40 39 -40q23 0 48 11l24 -74q-42 -21 -98 -21q-61 0 -87 29t-26 69q0 71 66 139q-121 2 -180 55.5t-59 167.5v454z" />
    <glyph glyph-name="uogonek" unicode="&#x173;" horiz-adv-x="540" 
d="M358 503h119v-419l8 -84q-32 -26 -56 -61.5t-24 -64.5q0 -40 39 -40q23 0 48 11l24 -74q-42 -21 -98 -21q-61 0 -87 29t-26 69q0 79 78 152l-7 59h-4q-50 -73 -145 -73q-165 0 -165 176v341h119v-319q0 -52 16 -79t62 -27q40 0 69.5 29.5t29.5 66.5v329z" />
    <glyph glyph-name="Wcircumflex" unicode="&#x174;" horiz-adv-x="811" 
d="M515 0l-107 433h-3l-103 -433h-139l-146 665h122l103 -496h4l102 443h124l104 -444h2l96 497h120l-143 -665h-136zM289 708l-41 34q59 78 110 124q26 24 49 24q26 0 47 -21q70 -70 114 -126l-41 -35l-120 86z" />
    <glyph glyph-name="wcircumflex" unicode="&#x175;" horiz-adv-x="785" 
d="M591 503h117q35 -116 35 -218q0 -141 -54.5 -220t-162.5 -79q-102 0 -135 82q-58 -82 -161 -82q-168 0 -168 174v343h119v-312q0 -37 3.5 -58t19 -38t45.5 -17q39 0 65 28.5t26 67.5v329h119v-311q0 -23 1 -36.5t4.5 -30.5t10 -25.5t19.5 -15t31 -6.5q101 0 101 203
q0 90 -35 222zM284 582l-41 32q61 90 103 140q27 33 55 33q17 0 28 -7t27 -25q55 -66 104 -140l-41 -34l-118 104z" />
    <glyph glyph-name="Ycircumflex" unicode="&#x176;" horiz-adv-x="556" 
d="M556 665h-129l-143 -289h-4l-145 289h-135l216 -411v-254h122v254zM160 708l-41 34q59 78 110 124q26 24 49 24q26 0 47 -21q70 -70 114 -126l-41 -35l-120 86z" />
    <glyph glyph-name="ycircumflex" unicode="&#x177;" horiz-adv-x="536" 
d="M476 63q0 -86 -8 -139q-14 -91 -69 -140.5t-147 -49.5q-79 0 -120.5 35t-41.5 96q0 97 105 171q-133 19 -133 162v305h119v-284q0 -58 15.5 -85.5t69.5 -27.5q43 0 67.5 23t24.5 65v309h118v-440zM199 -116q0 -64 67 -64q93 0 93 155v84q-77 -37 -118.5 -77t-41.5 -98z
M157 582l-41 32q61 90 103 140q27 33 55 33q17 0 28 -7t27 -25q55 -66 104 -140l-41 -34l-118 104z" />
    <glyph glyph-name="Ydieresis" unicode="&#x178;" horiz-adv-x="556" 
d="M556 665h-129l-143 -289h-4l-145 289h-135l216 -411v-254h122v254zM317 782q0 26 17.5 43.5t45.5 17.5q27 0 45 -17.5t18 -43.5q0 -27 -17.5 -44t-45.5 -17q-29 0 -46 17t-17 44zM114 782q0 26 17.5 43.5t46.5 17.5q27 0 45 -17.5t18 -43.5q0 -27 -18 -44t-46 -17
t-45.5 17t-17.5 44z" />
    <glyph glyph-name="Zacute" unicode="&#x179;" horiz-adv-x="505" 
d="M471 584l-305 -489h316v-95h-455v83l302 487h-296v95h438v-81zM176 750l162 157q58 -34 58 -66q0 -25 -40 -51q-16 -10 -150 -81z" />
    <glyph glyph-name="zacute" unicode="&#x17a;" horiz-adv-x="410" 
d="M114 -94q0 -36 18.5 -59t56.5 -23q47 0 72.5 35.5t25.5 89.5q0 77 -58 115q-55 -29 -85 -71.5t-30 -86.5zM395 503v-75l-216 -221l61 -28q156 -72 156 -217q0 -99 -57.5 -163t-156.5 -64q-86 0 -130.5 42t-44.5 115q0 136 154 218q-21 10 -96 43v72l182 185h-227v93h375z
M148 604l116 192q76 -20 76 -60q0 -20 -27 -49q-11 -12 -126 -116z" />
    <glyph glyph-name="Zdotaccent" unicode="&#x17b;" horiz-adv-x="505" 
d="M471 584l-305 -489h316v-95h-455v83l302 487h-296v95h438v-81zM198 793q0 28 19.5 47.5t49.5 19.5t49.5 -19.5t19.5 -47.5q0 -29 -19.5 -47.5t-49.5 -18.5q-31 0 -50 18.5t-19 47.5z" />
    <glyph glyph-name="zdotaccent" unicode="&#x17c;" horiz-adv-x="410" 
d="M114 -94q0 44 30 86.5t85 71.5q58 -38 58 -115q0 -54 -25.5 -89.5t-72.5 -35.5q-38 0 -56.5 23t-18.5 59zM395 428v75h-375v-93h227l-182 -185v-72q75 -33 96 -43q-154 -82 -154 -218q0 -73 44.5 -115t130.5 -42q99 0 156.5 64t57.5 163q0 145 -156 217l-61 28zM153 647
q0 28 19.5 47.5t49.5 19.5t49.5 -19.5t19.5 -47.5q0 -29 -19.5 -47.5t-49.5 -18.5q-31 0 -50 18.5t-19 47.5z" />
    <glyph glyph-name="Zcaron" unicode="&#x17d;" horiz-adv-x="505" 
d="M471 584l-305 -489h316v-95h-455v83l302 487h-296v95h438v-81zM100 856l41 34l118 -86l120 86l41 -35q-44 -56 -114 -126q-21 -21 -47 -21q-23 0 -49 24q-51 46 -110 124z" />
    <glyph glyph-name="zcaron" unicode="&#x17e;" horiz-adv-x="410" 
d="M114 -94q0 44 30 86.5t85 71.5q58 -38 58 -115q0 -54 -25.5 -89.5t-72.5 -35.5q-38 0 -56.5 23t-18.5 59zM395 428v75h-375v-93h227l-182 -185v-72q75 -33 96 -43q-154 -82 -154 -218q0 -73 44.5 -115t130.5 -42q99 0 156.5 64t57.5 163q0 145 -156 217l-61 28zM335 786
l41 -32q-61 -90 -103 -140q-27 -33 -55 -33q-17 0 -28 7t-27 25q-55 66 -104 140l41 34l118 -104z" />
    <glyph glyph-name="longs" unicode="&#x17f;" horiz-adv-x="327" 
d="M179 540v-750h-119v741q0 28 3 50t13.5 48t28 43.5t50.5 29t78 11.5q32 0 72.5 -10.5t66.5 -24.5l-29 -80q-50 25 -95 25q-37 0 -53 -20.5t-16 -62.5z" />
    <glyph glyph-name="florin" unicode="&#x192;" horiz-adv-x="547" 
d="M77 294l15 95h109l13 75q8 47 18.5 77t31 59t57 43t89.5 14q74 0 141 -35l-40 -80q-49 26 -93 26q-35 0 -53.5 -18t-26.5 -58l-19 -103h148l-17 -95h-147l-53 -306q-8 -47 -19 -79t-33 -61.5t-59 -43.5t-90 -14q-74 0 -137 35l40 79q47 -25 93 -25q67 0 80 76l59 339
h-107z" />
    <glyph glyph-name="Scommaaccent" unicode="&#x218;" horiz-adv-x="537" 
d="M29 52l45 100q34 -22 86 -40t99 -18q107 0 107 92q0 43 -31.5 63.5t-95.5 37.5q-43 12 -72.5 24.5t-59 34t-44.5 55.5t-15 80q0 90 62.5 143t162.5 53q67 0 127.5 -26t101.5 -68l-65 -81q-86 71 -164 71q-40 0 -69 -19.5t-29 -61.5t31.5 -62.5t101.5 -41.5q33 -10 55 -19
t49.5 -25.5t43.5 -36t27.5 -49.5t11.5 -67q0 -97 -64 -150t-174 -53q-67 0 -132 21t-96 43zM226 -61l-59 -198l45 -22q70 99 86 128q16 28 16 47q0 14 -8 23.5t-23.5 13.5t-26.5 5.5t-30 2.5z" />
    <glyph glyph-name="scommaaccent" unicode="&#x219;" horiz-adv-x="419" 
d="M20 36l35 85q75 -48 143 -48q34 0 55 16t21 48q0 31 -21 45.5t-64 27.5q-37 11 -56.5 18.5t-46.5 24t-39.5 43t-12.5 63.5q0 75 53 117t130 42q110 0 181 -71l-57 -70q-62 54 -122 54q-29 0 -49.5 -15t-20.5 -43q0 -22 14 -37t29.5 -21t45.5 -15q35 -11 56 -20t47 -26.5
t38.5 -44.5t12.5 -64q0 -76 -51.5 -118t-137.5 -42q-58 0 -108.5 16.5t-74.5 34.5zM181 -61l-59 -198l47 -23q68 100 84 129q16 28 16 47q0 14 -8 23.5t-23.5 13.5t-26.5 5.5t-30 2.5z" />
    <glyph glyph-name="uni021A" unicode="&#x21a;" horiz-adv-x="538" 
d="M17 665h504v-106h-194v-559h-121v559h-189v106zM212 -61l-59 -198l45 -22q70 99 86 128q16 28 16 47q0 14 -8 23.5t-23.5 13.5t-26.5 5.5t-30 2.5z" />
    <glyph glyph-name="uni021B" unicode="&#x21b;" horiz-adv-x="350" 
d="M63 695h119v-192h135v-93h-135v-254q0 -44 16 -61.5t49 -17.5q34 0 68 21l30 -77q-50 -35 -127 -35q-45 0 -76 11.5t-46 25.5t-23 41t-9 42.5t-1 45.5v543zM152 -61l-59 -198l47 -23q68 100 84 129q16 28 16 47q0 14 -8 23.5t-23.5 13.5t-26.5 5.5t-30 2.5z" />
    <glyph glyph-name="dotlessj" unicode="&#x237;" horiz-adv-x="244" 
d="M65 -39v542h119v-537q0 -41 -5.5 -71t-21 -59t-49 -44.5t-84.5 -15.5q-72 0 -128 35l36 83q39 -21 74 -21q30 0 44.5 20t14.5 68z" />
    <glyph glyph-name="apostrophe" unicode="&#x2bc;" horiz-adv-x="252" 
d="M81 503l34 207q22 2 40 2q47 0 47 -33q0 -15 -8 -39q-20 -53 -71 -151z" />
    <glyph glyph-name="circumflex" unicode="&#x2c6;" horiz-adv-x="500" 
d="M131 582l-41 32q61 90 103 140q27 33 55 33q17 0 28 -7t27 -25q55 -66 104 -140l-41 -34l-118 104z" />
    <glyph glyph-name="caron" unicode="&#x2c7;" horiz-adv-x="500" 
d="M363 786l41 -32q-61 -90 -103 -140q-27 -33 -55 -33q-17 0 -28 7t-27 25q-55 66 -104 140l41 34l118 -104z" />
    <glyph glyph-name="uni02C9" unicode="&#x2c9;" horiz-adv-x="500" 
d="M104 619v86h287v-86h-287z" />
    <glyph glyph-name="breve" unicode="&#x2d8;" horiz-adv-x="500" 
d="M345 751l71 -17q-40 -143 -166 -143q-70 0 -109.5 40.5t-53.5 102.5l74 17q15 -46 36.5 -65t55.5 -19q31 0 53.5 19t38.5 65z" />
    <glyph glyph-name="dotaccent" unicode="&#x2d9;" horiz-adv-x="500" 
d="M183 647q0 28 19.5 47.5t49.5 19.5t49.5 -19.5t19.5 -47.5q0 -29 -19.5 -47.5t-49.5 -18.5q-31 0 -50 18.5t-19 47.5z" />
    <glyph glyph-name="ring" unicode="&#x2da;" horiz-adv-x="500" 
d="M155 657q0 41 26.5 67t68.5 26q43 0 68 -25.5t25 -62.5q0 -43 -26 -70.5t-70 -27.5q-43 0 -67.5 26.5t-24.5 66.5zM214 657q0 -42 36 -42q17 0 26.5 12t9.5 30q0 41 -36 41t-36 -41z" />
    <glyph glyph-name="ogonek" unicode="&#x2db;" horiz-adv-x="500" 
d="M212 2l99 -1q-32 -26 -56 -61.5t-24 -64.5q0 -40 39 -40q23 0 48 11l24 -74q-42 -21 -98 -21q-61 0 -87 29t-26 69q0 80 81 153z" />
    <glyph glyph-name="tilde" unicode="&#x2dc;" horiz-adv-x="500" 
d="M112 622l-9 77q39 29 84 29q27 0 70 -13t65 -13q31 0 62 18l8 -81q-33 -19 -68 -19q-23 0 -71 11.5t-67 11.5q-37 0 -74 -21z" />
    <glyph glyph-name="hungarumlaut" unicode="&#x2dd;" horiz-adv-x="500" 
d="M82 604l116 192q76 -21 76 -60q0 -20 -27 -49q-11 -12 -126 -116zM253 604l117 192q76 -20 76 -60q0 -19 -28 -49q-20 -22 -126 -116z" />
    <glyph glyph-name="uni0394" unicode="&#x394;" horiz-adv-x="669" 
d="M653 0h-637l257 657h125zM337 530h-4l-164 -437h331z" />
    <glyph glyph-name="uni03A9" unicode="&#x3a9;" horiz-adv-x="781" 
d="M73 345q0 146 91 229t228 83q147 0 232.5 -76t85.5 -219q0 -80 -33.5 -147.5t-88.5 -108.5h145v-106h-277v86q130 94 130 249q0 110 -53.5 164.5t-139.5 54.5q-84 0 -139 -54.5t-55 -165.5q0 -86 40 -150t100 -99v-85h-284v106h136q-55 38 -86.5 99.5t-31.5 139.5z" />
    <glyph glyph-name="uni03BC" unicode="&#x3bc;" horiz-adv-x="584" 
d="M504 503v-400q0 -33 26 -33q14 0 39 12l14 -70q-43 -24 -91 -24q-75 0 -79 81q-16 -37 -51 -60t-78 -23q-70 0 -103 49v-251h-107v719h112v-289q0 -70 22 -107t75 -37q51 0 79 43.5t28 117.5v272h114z" />
    <glyph glyph-name="pi" unicode="&#x3c0;" horiz-adv-x="630" 
d="M594 410h-77v-289q0 -29 5.5 -39.5t24.5 -10.5q16 0 42 7l16 -71q-40 -20 -96 -20q-105 0 -105 107v316h-168v-410h-113v410h-78v93h549v-93z" />
    <glyph glyph-name="Wgrave" unicode="&#x1e80;" horiz-adv-x="811" 
d="M515 0l-107 433h-3l-103 -433h-139l-146 665h122l103 -496h4l102 443h124l104 -444h2l96 497h120l-143 -665h-136zM338 906l162 -157l-30 -41q-131 69 -151 82q-39 24 -39 51q0 31 58 65z" />
    <glyph glyph-name="wgrave" unicode="&#x1e81;" horiz-adv-x="785" 
d="M591 503h117q35 -116 35 -218q0 -141 -54.5 -220t-162.5 -79q-102 0 -135 82q-58 -82 -161 -82q-168 0 -168 174v343h119v-312q0 -37 3.5 -58t19 -38t45.5 -17q39 0 65 28.5t26 67.5v329h119v-311q0 -23 1 -36.5t4.5 -30.5t10 -25.5t19.5 -15t31 -6.5q101 0 101 203
q0 90 -35 222zM360 796l117 -192l-39 -33q-110 98 -127 115q-27 28 -27 50q0 40 76 60z" />
    <glyph glyph-name="Wacute" unicode="&#x1e82;" horiz-adv-x="811" 
d="M515 0l-107 433h-3l-103 -433h-139l-146 665h122l103 -496h4l102 443h124l104 -444h2l96 497h120l-143 -665h-136zM316 750l162 157q58 -34 58 -66q0 -25 -40 -51q-16 -10 -150 -81z" />
    <glyph glyph-name="wacute" unicode="&#x1e83;" horiz-adv-x="785" 
d="M591 503h117q35 -116 35 -218q0 -141 -54.5 -220t-162.5 -79q-102 0 -135 82q-58 -82 -161 -82q-168 0 -168 174v343h119v-312q0 -37 3.5 -58t19 -38t45.5 -17q39 0 65 28.5t26 67.5v329h119v-311q0 -23 1 -36.5t4.5 -30.5t10 -25.5t19.5 -15t31 -6.5q101 0 101 203
q0 90 -35 222zM312 604l116 192q76 -20 76 -60q0 -20 -27 -49q-11 -12 -126 -116z" />
    <glyph glyph-name="Wdieresis" unicode="&#x1e84;" horiz-adv-x="811" 
d="M515 0l-107 433h-3l-103 -433h-139l-146 665h122l103 -496h4l102 443h124l104 -444h2l96 497h120l-143 -665h-136zM446 782q0 26 17.5 43.5t45.5 17.5q27 0 45 -17.5t18 -43.5q0 -27 -17.5 -44t-45.5 -17q-29 0 -46 17t-17 44zM243 782q0 26 17.5 43.5t46.5 17.5
q27 0 45 -17.5t18 -43.5q0 -27 -18 -44t-46 -17t-45.5 17t-17.5 44z" />
    <glyph glyph-name="wdieresis" unicode="&#x1e85;" horiz-adv-x="785" 
d="M591 503h117q35 -116 35 -218q0 -141 -54.5 -220t-162.5 -79q-102 0 -135 82q-58 -82 -161 -82q-168 0 -168 174v343h119v-312q0 -37 3.5 -58t19 -38t45.5 -17q39 0 65 28.5t26 67.5v329h119v-311q0 -23 1 -36.5t4.5 -30.5t10 -25.5t19.5 -15t31 -6.5q101 0 101 203
q0 90 -35 222zM434 666q0 26 17.5 43.5t45.5 17.5q27 0 45 -17.5t18 -43.5q0 -27 -17.5 -44.5t-45.5 -17.5q-29 0 -46 17.5t-17 44.5zM236 666q0 26 17.5 43.5t46.5 17.5q27 0 45 -17.5t18 -43.5q0 -27 -18 -44.5t-46 -17.5t-45.5 17.5t-17.5 44.5z" />
    <glyph glyph-name="Ygrave" unicode="&#x1ef2;" horiz-adv-x="556" 
d="M556 665h-129l-143 -289h-4l-145 289h-135l216 -411v-254h122v254zM207 906l162 -157l-30 -41q-131 69 -151 82q-39 24 -39 51q0 31 58 65z" />
    <glyph glyph-name="ygrave" unicode="&#x1ef3;" horiz-adv-x="536" 
d="M476 63q0 -86 -8 -139q-14 -91 -69 -140.5t-147 -49.5q-79 0 -120.5 35t-41.5 96q0 97 105 171q-133 19 -133 162v305h119v-284q0 -58 15.5 -85.5t69.5 -27.5q43 0 67.5 23t24.5 65v309h118v-440zM199 -116q0 -64 67 -64q93 0 93 155v84q-77 -37 -118.5 -77t-41.5 -98z
M228 796l117 -192l-39 -33q-110 98 -127 115q-27 28 -27 50q0 40 76 60z" />
    <glyph glyph-name="endash" unicode="&#x2013;" horiz-adv-x="500" 
d="M0 244v83h500v-83h-500z" />
    <glyph glyph-name="emdash" unicode="&#x2014;" horiz-adv-x="1000" 
d="M0 244v83h1000v-83h-1000z" />
    <glyph glyph-name="quoteleft" unicode="&#x2018;" horiz-adv-x="216" 
d="M143 477q-18 -2 -31 -2q-75 0 -75 50q0 57 99 209l65 -24z" />
    <glyph glyph-name="quoteright" unicode="&#x2019;" horiz-adv-x="212" 
d="M86 724q28 3 45 2q64 -4 64 -49q0 -56 -99 -209l-61 20z" />
    <glyph glyph-name="quotesinglbase" unicode="&#x201a;" horiz-adv-x="227" 
d="M192 73l-103 -220l-62 20q18 135 31 185q14 53 48 53q42 0 86 -38z" />
    <glyph glyph-name="quotedblleft" unicode="&#x201c;" horiz-adv-x="379" 
d="M140 477q-18 -2 -31 -2q-75 0 -75 50q0 57 99 209l65 -24zM306 477q-18 -2 -31 -2q-75 0 -75 50q0 57 99 209l65 -24z" />
    <glyph glyph-name="quotedblright" unicode="&#x201d;" horiz-adv-x="378" 
d="M86 724q28 3 45 2q64 -4 64 -49q0 -56 -99 -209l-61 20zM252 724q28 3 45 2q64 -4 64 -49q0 -56 -99 -209l-61 20z" />
    <glyph glyph-name="quotedblbase" unicode="&#x201e;" horiz-adv-x="393" 
d="M192 73l-103 -220l-62 20q18 135 31 185q14 53 48 53q42 0 86 -38zM358 73l-103 -220l-62 20q18 135 31 185q14 53 48 53q42 0 86 -38z" />
    <glyph glyph-name="dagger" unicode="&#x2020;" horiz-adv-x="441" 
d="M221 438q-21 -21 -34 -54t-13 -65v-371q0 -71 44 -119q22 15 35 50.5t13 68.5v371q0 69 -45 119zM219 495q-45 45 -45 105q0 65 46 65t46 -65q0 -20 -12.5 -50t-34.5 -55zM246 466q23 22 53 33t51 11q66 0 66 -47q0 -45 -66 -45q-28 0 -58.5 13t-45.5 35zM195 467
q-16 -21 -46 -35t-59 -14q-65 0 -65 45q0 47 65 47q56 0 105 -43z" />
    <glyph glyph-name="daggerdbl" unicode="&#x2021;" horiz-adv-x="442" 
d="M223 438q-7 -4 -12 -12q-37 -54 -37 -107v-158q0 -71 44 -119q6 4 12 12q36 53 36 107v158q0 72 -43 119zM223 495q-2 1 -5.5 3.5t-4.5 4.5q-39 49 -39 97q0 65 46 65t46 -65q0 -56 -43 -105zM246 466q23 22 53 33t51 11q66 0 66 -47q0 -45 -66 -45q-48 0 -97 38
q-1 1 -3.5 5t-3.5 5zM247 13q23 22 53 33t51 11q66 0 66 -47q0 -45 -66 -45q-49 0 -97 38q-1 1 -3.5 5t-3.5 5zM195 467q-6 -8 -8 -10q-47 -39 -97 -39q-65 0 -65 45q0 47 65 47q56 0 105 -43zM196 14q-6 -8 -8 -10q-47 -39 -97 -39q-65 0 -65 45q0 47 65 47q56 0 105 -43z
M223 -18q-2 -1 -5.5 -3.5t-4.5 -4.5q-38 -48 -38 -97q0 -65 45 -65q47 0 47 65q0 57 -44 105z" />
    <glyph glyph-name="bullet" unicode="&#x2022;" horiz-adv-x="500" 
d="M134 310q0 55 32.5 89t83.5 34t83.5 -34t32.5 -89q0 -56 -32.5 -90t-83.5 -34t-83.5 34t-32.5 90z" />
    <glyph glyph-name="ellipsis" unicode="&#x2026;" horiz-adv-x="787" 
d="M70 53q0 30 18.5 49t49.5 19q33 0 52 -18.5t19 -48.5t-18.5 -49.5t-49.5 -19.5q-34 0 -52.5 18.5t-18.5 49.5zM328 53q0 30 18.5 49t49.5 19q33 0 52 -18.5t19 -48.5t-18.5 -49.5t-49.5 -19.5q-34 0 -52.5 18.5t-18.5 49.5zM578 53q0 30 18.5 49t49.5 19q33 0 52 -18.5
t19 -48.5t-18.5 -49.5t-49.5 -19.5q-34 0 -52.5 18.5t-18.5 49.5z" />
    <glyph glyph-name="perthousand" unicode="&#x2030;" horiz-adv-x="924" 
d="M760 297q62 0 98 -38.5t36 -114.5q0 -77 -37.5 -117.5t-102.5 -40.5q-64 0 -98.5 39.5t-34.5 115.5q0 75 38 115.5t101 40.5zM756 49q60 0 60 94q0 90 -58 90t-58 -95q0 -89 56 -89zM451 297q61 0 97.5 -38.5t36.5 -114.5t-37.5 -117t-102.5 -41q-64 0 -98.5 39.5
t-34.5 115.5q0 75 38 115.5t101 40.5zM447 49q59 0 59 94q0 90 -57 90q-59 0 -59 -95q0 -89 57 -89zM170 657q62 0 98 -38.5t36 -114.5q0 -77 -37.5 -117.5t-102.5 -40.5q-64 0 -98.5 39t-34.5 116q0 74 38.5 115t100.5 41zM166 409q60 0 60 93q0 91 -58 91t-58 -96
q0 -88 56 -88zM119 109l-55 67l441 368l57 -67z" />
    <glyph glyph-name="guilsinglleft" unicode="&#x2039;" horiz-adv-x="326" 
d="M291 408l-125 -145l117 -162l-46 -42q-45 37 -99.5 89.5t-73.5 82.5q-13 19 -13 35q0 20 29 49q68 65 165 138z" />
    <glyph glyph-name="guilsinglright" unicode="&#x203a;" horiz-adv-x="326" 
d="M159 263l-124 145l45 45q88 -66 166 -138q29 -29 29 -49q0 -16 -13 -35q-19 -30 -74 -83t-100 -89l-46 42z" />
    <glyph glyph-name="fraction" unicode="&#x2044;" horiz-adv-x="173" 
d="M-23 -9l-76 35l292 626l78 -33z" />
    <glyph glyph-name="zerosuperior" unicode="&#x2070;" horiz-adv-x="377" 
d="M191 737q157 0 157 -198q0 -203 -162 -203q-158 0 -158 200q0 100 43.5 150.5t119.5 50.5zM188 406q36 0 54.5 30t18.5 102q0 71 -18.5 100.5t-54.5 29.5q-74 0 -74 -137q0 -68 18 -96.5t56 -28.5z" />
    <glyph glyph-name="foursuperior" unicode="&#x2074;" horiz-adv-x="377" 
d="M229 599h53v-106h61v-67h-61v-85h-87v87h-162v54l122 262l69 -32l-102 -219h78z" />
    <glyph glyph-name="fivesuperior" unicode="&#x2075;" horiz-adv-x="377" 
d="M84 528l27 203h207v-68h-148l-11 -77q82 -3 125.5 -31.5t43.5 -90.5q0 -53 -35 -90.5t-115 -37.5q-38 0 -76.5 11.5t-50.5 21.5l27 64q49 -28 97 -28q66 0 66 57q0 18 -9.5 30.5t-22.5 19t-36 10.5t-41.5 5t-47.5 1z" />
    <glyph glyph-name="sixsuperior" unicode="&#x2076;" horiz-adv-x="377" 
d="M252 749l19 -63q-64 -7 -98.5 -38.5t-41.5 -77.5q41 25 87 25q55 0 85.5 -32.5t30.5 -89.5q0 -60 -37 -98.5t-106 -38.5q-71 0 -108.5 47t-37.5 130q0 91 49 157t158 79zM253 466q0 65 -59 65q-36 0 -66 -23q0 -106 65 -106q26 0 43 16t17 48z" />
    <glyph glyph-name="sevensuperior" unicode="&#x2077;" horiz-adv-x="377" 
d="M57 664v67h278v-57q-132 -112 -132 -312v-21h-85v26q0 182 111 297h-172z" />
    <glyph glyph-name="eightsuperior" unicode="&#x2078;" horiz-adv-x="377" 
d="M46 436q0 43 24.5 71t57.5 42q-67 31 -67 91q0 40 35 68.5t95 28.5q67 0 98 -26.5t31 -62.5q0 -55 -61 -96q76 -40 76 -105q0 -46 -35 -78.5t-111 -32.5t-109.5 29t-33.5 71zM250 446q0 39 -61 64q-24 -10 -41.5 -28.5t-17.5 -38.5q0 -19 15 -32t46 -13q28 0 43.5 14
t15.5 34zM189 679q-24 0 -36.5 -11.5t-12.5 -26.5q0 -32 54 -56q18 10 31.5 26.5t13.5 32.5q0 14 -12 24.5t-38 10.5z" />
    <glyph glyph-name="ninesuperior" unicode="&#x2079;" horiz-adv-x="377" 
d="M121 322l-18 65q63 9 98 40t41 74q-41 -23 -86 -23q-55 0 -85.5 33t-30.5 90q0 60 37.5 98t106.5 38q71 0 108 -46.5t37 -130.5q0 -92 -47.5 -157t-160.5 -81zM121 605q0 -63 60 -63q37 0 64 22q0 106 -65 106q-26 0 -42.5 -16t-16.5 -49z" />
    <glyph glyph-name="zeroinferior" unicode="&#x2080;" horiz-adv-x="377" 
d="M191 316q157 0 157 -198q0 -203 -162 -203q-158 0 -158 200q0 100 43.5 150.5t119.5 50.5zM188 -15q36 0 54.5 30t18.5 102q0 71 -18.5 100.5t-54.5 29.5q-74 0 -74 -137q0 -68 18 -96.5t56 -28.5z" />
    <glyph glyph-name="oneinferior" unicode="&#x2081;" horiz-adv-x="377" 
d="M85 -10h75v228l-81 -36l-29 57l125 71h79l-6 -69v-251h70v-70h-233v70z" />
    <glyph glyph-name="twoinferior" unicode="&#x2082;" horiz-adv-x="377" 
d="M87 202l-44 56q74 58 151 58q60 0 92 -28t32 -72q0 -58 -56 -120l-90 -104h159v-72h-275v58l124 142q44 53 44 82q0 39 -46 39q-38 0 -91 -39z" />
    <glyph glyph-name="threeinferior" unicode="&#x2083;" horiz-adv-x="377" 
d="M92 214l-35 56q75 46 148 46q55 0 84.5 -26.5t29.5 -67.5q0 -52 -42 -87q48 -56 48 -106q0 -48 -36 -81t-107 -33q-72 0 -128 29l24 67q50 -26 103 -26q59 0 59 43q0 20 -30 69q-33 -12 -80 -21l-19 58q39 9 65 18q18 6 28 11t19 16.5t9 27.5q0 37 -46 37q-36 0 -94 -30z
" />
    <glyph glyph-name="fourinferior" unicode="&#x2084;" horiz-adv-x="377" 
d="M229 178h53v-106h61v-67h-61v-85h-87v87h-162v54l122 262l69 -32l-102 -219h78z" />
    <glyph glyph-name="fiveinferior" unicode="&#x2085;" horiz-adv-x="377" 
d="M73 107l27 203h207v-68h-148l-11 -77q82 -3 125.5 -31.5t43.5 -90.5q0 -53 -35 -90.5t-115 -37.5q-38 0 -76.5 11.5t-50.5 21.5l27 64q49 -28 97 -28q66 0 66 57q0 18 -9.5 30.5t-22.5 19t-36 10.5t-41.5 5t-47.5 1z" />
    <glyph glyph-name="sixinferior" unicode="&#x2086;" horiz-adv-x="377" 
d="M252 328l19 -63q-64 -7 -98.5 -38.5t-41.5 -77.5q41 25 87 25q55 0 85.5 -32.5t30.5 -89.5q0 -60 -37 -98.5t-106 -38.5q-71 0 -108.5 47t-37.5 130q0 91 49 157t158 79zM253 45q0 65 -59 65q-36 0 -66 -23q0 -106 65 -106q26 0 43 16t17 48z" />
    <glyph glyph-name="seveninferior" unicode="&#x2087;" horiz-adv-x="377" 
d="M57 243v67h278v-57q-132 -112 -132 -312v-21h-85v26q0 182 111 297h-172z" />
    <glyph glyph-name="eightinferior" unicode="&#x2088;" horiz-adv-x="377" 
d="M46 15q0 43 24.5 71t57.5 42q-67 31 -67 91q0 40 35 68.5t95 28.5q67 0 98 -26.5t31 -62.5q0 -55 -61 -96q76 -40 76 -105q0 -46 -35 -78.5t-111 -32.5t-109.5 29t-33.5 71zM250 25q0 39 -61 64q-24 -10 -41.5 -28.5t-17.5 -38.5q0 -19 15 -32t46 -13q28 0 43.5 14
t15.5 34zM189 258q-24 0 -36.5 -11.5t-12.5 -26.5q0 -32 54 -56q18 10 31.5 26.5t13.5 32.5q0 14 -12 24.5t-38 10.5z" />
    <glyph glyph-name="nineinferior" unicode="&#x2089;" horiz-adv-x="377" 
d="M121 -99l-18 65q63 9 98 40t41 74q-41 -23 -86 -23q-55 0 -85.5 33t-30.5 90q0 60 37.5 98t106.5 38q71 0 108 -46.5t37 -130.5q0 -92 -47.5 -157t-160.5 -81zM121 184q0 -63 60 -63q37 0 64 22q0 106 -65 106q-26 0 -42.5 -16t-16.5 -49z" />
    <glyph glyph-name="Euro" unicode="&#x20ac;" 
d="M461 221v82h-435v-82h98q-37 -34 -37 -87q0 -64 48.5 -106t160.5 -42q126 0 229 65l-41 81q-86 -53 -171 -53q-105 0 -105 74q0 32 21.5 50t55.5 18h176zM461 422v-82h-435v82h90q-29 34 -29 78q0 65 50.5 111t155.5 46q130 0 232 -87l-55 -74q-48 35 -86 52t-85 17
q-91 0 -91 -74q0 -69 77 -69h176z" />
    <glyph glyph-name="trademark" unicode="&#x2122;" horiz-adv-x="690" 
d="M15 665h266v-69h-95v-267h-80v267h-91v69zM560 665h80l20 -336h-72l-10 208l-66 -184h-59l-65 183l-11 -207h-71l21 336h82l74 -222z" />
    <glyph glyph-name="Omega" unicode="&#x2126;" horiz-adv-x="781" 
d="M73 345q0 146 91 229t228 83q147 0 232.5 -76t85.5 -219q0 -80 -33.5 -147.5t-88.5 -108.5h145v-106h-277v86q130 94 130 249q0 110 -53.5 164.5t-139.5 54.5q-84 0 -139 -54.5t-55 -165.5q0 -86 40 -150t100 -99v-85h-284v106h136q-55 38 -86.5 99.5t-31.5 139.5z" />
    <glyph glyph-name="onethird" unicode="&#x2153;" horiz-adv-x="825" 
d="M70 331h75v228l-81 -36l-29 57l125 71h79l-6 -69v-251h70v-70h-233v70zM307 -9l-76 35l292 626l78 -33zM551 294l-35 56q75 46 148 46q55 0 84.5 -26.5t29.5 -67.5q0 -52 -42 -87q48 -56 48 -106q0 -48 -36 -81t-107 -33q-72 0 -128 29l24 67q50 -26 103 -26q59 0 59 43
q0 20 -30 69q-33 -12 -80 -21l-19 58q39 9 65 18q18 6 28 11t19 16.5t9 27.5q0 37 -46 37q-36 0 -94 -30z" />
    <glyph glyph-name="twothirds" unicode="&#x2154;" horiz-adv-x="825" 
d="M66 543l-44 56q74 58 151 58q60 0 92 -28t32 -72q0 -58 -56 -120l-90 -104h159v-72h-275v58l124 142q44 53 44 82q0 39 -46 39q-38 0 -91 -39zM318 -9l-76 35l292 626l78 -33zM563 294l-35 56q75 46 148 46q55 0 84.5 -26.5t29.5 -67.5q0 -52 -42 -87q48 -56 48 -106
q0 -48 -36 -81t-107 -33q-72 0 -128 29l24 67q50 -26 103 -26q59 0 59 43q0 20 -30 69q-33 -12 -80 -21l-19 58q39 9 65 18q18 6 28 11t19 16.5t9 27.5q0 37 -46 37q-36 0 -94 -30z" />
    <glyph glyph-name="oneeighth" unicode="&#x215b;" horiz-adv-x="825" 
d="M66 331h75v228l-81 -36l-29 57l125 71h79l-6 -69v-251h70v-70h-233v70zM296 -9l-76 35l292 626l78 -33zM495 95q0 43 24.5 71t57.5 42q-67 31 -67 91q0 40 35 68.5t95 28.5q67 0 98 -26.5t31 -62.5q0 -55 -61 -96q76 -40 76 -105q0 -46 -35 -78.5t-111 -32.5t-109.5 29
t-33.5 71zM699 105q0 39 -61 64q-24 -10 -41.5 -28.5t-17.5 -38.5q0 -19 15 -32t46 -13q28 0 43.5 14t15.5 34zM638 338q-24 0 -36.5 -11.5t-12.5 -26.5q0 -32 54 -56q18 10 31.5 26.5t13.5 32.5q0 14 -12 24.5t-38 10.5z" />
    <glyph glyph-name="threeeighths" unicode="&#x215c;" horiz-adv-x="825" 
d="M69 555l-35 56q75 46 148 46q55 0 84.5 -26.5t29.5 -67.5q0 -52 -42 -87q48 -56 48 -106q0 -48 -36 -81t-107 -33q-72 0 -128 29l24 67q50 -26 103 -26q59 0 59 43q0 20 -30 69q-33 -12 -80 -21l-19 58q39 9 65 18q18 6 28 11t19 16.5t9 27.5q0 37 -46 37q-36 0 -94 -30z
M292 -9l-76 35l292 626l78 -33zM495 95q0 43 24.5 71t57.5 42q-67 31 -67 91q0 40 35 68.5t95 28.5q67 0 98 -26.5t31 -62.5q0 -55 -61 -96q76 -40 76 -105q0 -46 -35 -78.5t-111 -32.5t-109.5 29t-33.5 71zM699 105q0 39 -61 64q-24 -10 -41.5 -28.5t-17.5 -38.5
q0 -19 15 -32t46 -13q28 0 43.5 14t15.5 34zM638 338q-24 0 -36.5 -11.5t-12.5 -26.5q0 -32 54 -56q18 10 31.5 26.5t13.5 32.5q0 14 -12 24.5t-38 10.5z" />
    <glyph glyph-name="fiveeighths" unicode="&#x215d;" horiz-adv-x="825" 
d="M63 448l27 203h207v-68h-148l-11 -77q82 -3 125.5 -31.5t43.5 -90.5q0 -53 -35 -90.5t-115 -37.5q-38 0 -76.5 11.5t-50.5 21.5l27 64q49 -28 97 -28q66 0 66 57q0 18 -9.5 30.5t-22.5 19t-36 10.5t-41.5 5t-47.5 1zM292 -9l-76 35l292 626l78 -33zM497 95q0 43 24.5 71
t57.5 42q-67 31 -67 91q0 40 35 68.5t95 28.5q67 0 98 -26.5t31 -62.5q0 -55 -61 -96q76 -40 76 -105q0 -46 -35 -78.5t-111 -32.5t-109.5 29t-33.5 71zM701 105q0 39 -61 64q-24 -10 -41.5 -28.5t-17.5 -38.5q0 -19 15 -32t46 -13q28 0 43.5 14t15.5 34zM640 338
q-24 0 -36.5 -11.5t-12.5 -26.5q0 -32 54 -56q18 10 31.5 26.5t13.5 32.5q0 14 -12 24.5t-38 10.5z" />
    <glyph glyph-name="seveneighths" unicode="&#x215e;" horiz-adv-x="825" 
d="M48 584v67h278v-57q-132 -112 -132 -312v-21h-85v26q0 182 111 297h-172zM257 -9l-76 35l292 626l78 -33zM481 95q0 43 24.5 71t57.5 42q-67 31 -67 91q0 40 35 68.5t95 28.5q67 0 98 -26.5t31 -62.5q0 -55 -61 -96q76 -40 76 -105q0 -46 -35 -78.5t-111 -32.5t-109.5 29
t-33.5 71zM685 105q0 39 -61 64q-24 -10 -41.5 -28.5t-17.5 -38.5q0 -19 15 -32t46 -13q28 0 43.5 14t15.5 34zM624 338q-24 0 -36.5 -11.5t-12.5 -26.5q0 -32 54 -56q18 10 31.5 26.5t13.5 32.5q0 14 -12 24.5t-38 10.5z" />
    <glyph glyph-name="partialdiff" unicode="&#x2202;" horiz-adv-x="555" 
d="M139 582l24 87q177 -33 253 -133.5t76 -263.5q0 -81 -20 -142.5t-71 -102.5t-130 -41q-111 0 -164 62t-53 159t55 155t147 58q65 0 121 -35q-10 72 -76.5 126t-161.5 71zM377 288q-47 45 -109 45q-46 0 -72 -34t-26 -94q0 -63 26.5 -97t75.5 -34q106 0 106 180
q0 22 -1 34z" />
    <glyph glyph-name="Delta" unicode="&#x2206;" horiz-adv-x="669" 
d="M653 0h-637l257 657h125zM337 530h-4l-164 -437h331z" />
    <glyph glyph-name="product" unicode="&#x220f;" horiz-adv-x="718" 
d="M646 -132h-124v682h-326v-682h-124v789h574v-789z" />
    <glyph glyph-name="summation" unicode="&#x2211;" horiz-adv-x="566" 
d="M553 -132h-526v95l260 301l-251 297v96h496v-107h-334l234 -288l-246 -287h367v-107z" />
    <glyph glyph-name="minus" unicode="&#x2212;" 
d="M470 362v-96h-405v96h405z" />
    <glyph glyph-name="uni2215" unicode="&#x2215;" horiz-adv-x="476" 
d="M138 -117l-103 36l291 825l104 -36z" />
    <glyph glyph-name="uni2219" unicode="&#x2219;" horiz-adv-x="315" 
d="M85 307q0 30 18.5 49t49.5 19q33 0 52 -18.5t19 -48.5t-18.5 -49.5t-49.5 -19.5q-34 0 -52.5 18.5t-18.5 49.5z" />
    <glyph glyph-name="radical" unicode="&#x221a;" horiz-adv-x="667" 
d="M681 731l-262 -745h-113l-141 404l-96 -49l-35 82l200 101l129 -382l200 589h118z" />
    <glyph glyph-name="infinity" unicode="&#x221e;" horiz-adv-x="764" 
d="M723 357q0 -75 -43.5 -119.5t-111.5 -44.5q-99 0 -184 97q-84 -99 -179 -99q-77 0 -120.5 42.5t-43.5 111.5q0 67 46.5 114t119.5 47q56 0 96.5 -25.5t81.5 -81.5q50 56 92 82t97 26q71 0 110 -43.5t39 -106.5zM625 350q0 33 -17 52t-50 19q-29 0 -53.5 -18.5
t-54.5 -55.5q53 -72 109 -72q31 0 48.5 22t17.5 53zM317 345q-48 76 -104 76q-37 0 -56.5 -21t-19.5 -53t19.5 -52t54.5 -20q56 0 106 70z" />
    <glyph glyph-name="integral" unicode="&#x222b;" horiz-adv-x="390" 
d="M355 594q-39 12 -67 12t-39.5 -14t-9.5 -55q1 -15 2.5 -40t1.5 -32l25 -408q0 -6 1.5 -21t2 -28t0.5 -20q2 -64 -31 -104t-100 -40q-62 0 -112 20l16 75q39 -12 65 -12q27 0 37.5 12t9.5 49q0 7 -3 52l-25 434q-3 51 -3 73q0 60 31.5 100t104.5 40q53 0 105 -18z" />
    <glyph glyph-name="approxequal" unicode="&#x2248;" horiz-adv-x="620" 
d="M415 139q-49 0 -114.5 34t-89.5 34q-43 0 -91 -64l-69 56q70 104 149 104q40 0 107 -35t98 -35q47 0 92 63l69 -58q-61 -99 -151 -99zM412 346q-49 0 -114.5 34t-89.5 34q-42 0 -91 -64l-68 56q68 104 149 104q40 0 106.5 -35t98.5 -35q47 0 92 63l69 -58
q-61 -99 -152 -99z" />
    <glyph glyph-name="notequal" unicode="&#x2260;" 
d="M470 259v-97h-200l-28 -105h-100l29 105h-106v97h132l27 95h-159v96h186l29 104h96l-28 -104h122v-96h-148l-26 -95h174z" />
    <glyph glyph-name="lessequal" unicode="&#x2264;" 
d="M463 116v-97h-390v97h390zM467 488l-262 -122l264 -125l-42 -90l-353 171v82l353 173z" />
    <glyph glyph-name="greaterequal" unicode="&#x2265;" 
d="M79 19v97h390v-97h-390zM337 366l-262 122l40 89l353 -173v-82l-353 -171l-42 90z" />
    <glyph glyph-name="lozenge" unicode="&#x25ca;" horiz-adv-x="581" 
d="M532 331l-189 -331h-102l-190 329l191 328h100zM417 331l-126 220l-123 -221l126 -227z" />
    <glyph glyph-name="onefifth" unicode="&#xf500;" horiz-adv-x="825" 
d="M65 331h75v228l-81 -36l-29 57l125 71h79l-6 -69v-251h70v-70h-233v70zM304 -9l-76 35l292 626l78 -33zM537 187l27 203h207v-68h-148l-11 -77q82 -3 125.5 -31.5t43.5 -90.5q0 -53 -35 -90.5t-115 -37.5q-38 0 -76.5 11.5t-50.5 21.5l27 64q49 -28 97 -28q66 0 66 57
q0 18 -9.5 30.5t-22.5 19t-36 10.5t-41.5 5t-47.5 1z" />
    <glyph glyph-name="twofifths" unicode="&#xf501;" horiz-adv-x="825" 
d="M69 543l-44 56q74 58 151 58q60 0 92 -28t32 -72q0 -58 -56 -120l-90 -104h159v-72h-275v58l124 142q44 53 44 82q0 39 -46 39q-38 0 -91 -39zM315 -9l-76 35l292 626l78 -33zM535 187l27 203h207v-68h-148l-11 -77q82 -3 125.5 -31.5t43.5 -90.5q0 -53 -35 -90.5
t-115 -37.5q-38 0 -76.5 11.5t-50.5 21.5l27 64q49 -28 97 -28q66 0 66 57q0 18 -9.5 30.5t-22.5 19t-36 10.5t-41.5 5t-47.5 1z" />
    <glyph glyph-name="threefifths" unicode="&#xf502;" horiz-adv-x="825" 
d="M81 555l-35 56q75 46 148 46q55 0 84.5 -26.5t29.5 -67.5q0 -52 -42 -87q48 -56 48 -106q0 -48 -36 -81t-107 -33q-72 0 -128 29l24 67q50 -26 103 -26q59 0 59 43q0 20 -30 69q-33 -12 -80 -21l-19 58q39 9 65 18q18 6 28 11t19 16.5t9 27.5q0 37 -46 37q-36 0 -94 -30z
M308 -9l-76 35l292 626l78 -33zM534 187l27 203h207v-68h-148l-11 -77q82 -3 125.5 -31.5t43.5 -90.5q0 -53 -35 -90.5t-115 -37.5q-38 0 -76.5 11.5t-50.5 21.5l27 64q49 -28 97 -28q66 0 66 57q0 18 -9.5 30.5t-22.5 19t-36 10.5t-41.5 5t-47.5 1z" />
    <glyph glyph-name="fourfifths" unicode="&#xf503;" horiz-adv-x="825" 
d="M223 519h53v-106h61v-67h-61v-85h-87v87h-162v54l122 262l69 -32l-102 -219h78zM317 -9l-76 35l292 626l78 -33zM536 187l27 203h207v-68h-148l-11 -77q82 -3 125.5 -31.5t43.5 -90.5q0 -53 -35 -90.5t-115 -37.5q-38 0 -76.5 11.5t-50.5 21.5l27 64q49 -28 97 -28
q66 0 66 57q0 18 -9.5 30.5t-22.5 19t-36 10.5t-41.5 5t-47.5 1z" />
    <glyph glyph-name="onesixth" unicode="&#xf504;" horiz-adv-x="825" 
d="M71 331h75v228l-81 -36l-29 57l125 71h79l-6 -69v-251h70v-70h-233v70zM311 -9l-76 35l292 626l78 -33zM707 408l19 -63q-64 -7 -98.5 -38.5t-41.5 -77.5q41 25 87 25q55 0 85.5 -32.5t30.5 -89.5q0 -60 -37 -98.5t-106 -38.5q-71 0 -108.5 47t-37.5 130q0 91 49 157
t158 79zM708 125q0 65 -59 65q-36 0 -66 -23q0 -106 65 -106q26 0 43 16t17 48z" />
    <glyph glyph-name="fivesixths" unicode="&#xf505;" horiz-adv-x="825" 
d="M307 -9l-76 35l292 626l78 -33zM707 408l19 -63q-64 -7 -98.5 -38.5t-41.5 -77.5q41 25 87 25q55 0 85.5 -32.5t30.5 -89.5q0 -60 -37 -98.5t-106 -38.5q-71 0 -108.5 47t-37.5 130q0 91 49 157t158 79zM708 125q0 65 -59 65q-36 0 -66 -23q0 -106 65 -106q26 0 43 16
t17 48zM63 448l27 203h207v-68h-148l-11 -77q82 -3 125.5 -31.5t43.5 -90.5q0 -53 -35 -90.5t-115 -37.5q-38 0 -76.5 11.5t-50.5 21.5l27 64q49 -28 97 -28q66 0 66 57q0 18 -9.5 30.5t-22.5 19t-36 10.5t-41.5 5t-47.5 1z" />
    <glyph glyph-name="oneseventh" unicode="&#xf506;" horiz-adv-x="825" 
d="M66 331h75v228l-81 -36l-29 57l125 71h79l-6 -69v-251h70v-70h-233v70zM299 -9l-76 35l292 626l78 -33zM524 323v67h278v-57q-132 -112 -132 -312v-21h-85v26q0 182 111 297h-172z" />
    <glyph glyph-name="twosevenths" unicode="&#xf507;" horiz-adv-x="825" 
d="M73 543l-44 56q74 58 151 58q60 0 92 -28t32 -72q0 -58 -56 -120l-90 -104h159v-72h-275v58l124 142q44 53 44 82q0 39 -46 39q-38 0 -91 -39zM312 -9l-76 35l292 626l78 -33zM528 323v67h278v-57q-132 -112 -132 -312v-21h-85v26q0 182 111 297h-172z" />
    <glyph glyph-name="threesevenths" unicode="&#xf508;" horiz-adv-x="825" 
d="M69 555l-35 56q75 46 148 46q55 0 84.5 -26.5t29.5 -67.5q0 -52 -42 -87q48 -56 48 -106q0 -48 -36 -81t-107 -33q-72 0 -128 29l24 67q50 -26 103 -26q59 0 59 43q0 20 -30 69q-33 -12 -80 -21l-19 58q39 9 65 18q18 6 28 11t19 16.5t9 27.5q0 37 -46 37q-36 0 -94 -30z
M291 -9l-76 35l292 626l78 -33zM524 323v67h278v-57q-132 -112 -132 -312v-21h-85v26q0 182 111 297h-172z" />
    <glyph glyph-name="foursevenths" unicode="&#xf509;" horiz-adv-x="825" 
d="M220 519h53v-106h61v-67h-61v-85h-87v87h-162v54l122 262l69 -32l-102 -219h78zM309 -9l-76 35l292 626l78 -33zM530 323v67h278v-57q-132 -112 -132 -312v-21h-85v26q0 182 111 297h-172z" />
    <glyph glyph-name="fivesevenths" unicode="&#xf50a;" horiz-adv-x="825" 
d="M70 448l27 203h207v-68h-148l-11 -77q82 -3 125.5 -31.5t43.5 -90.5q0 -53 -35 -90.5t-115 -37.5q-38 0 -76.5 11.5t-50.5 21.5l27 64q49 -28 97 -28q66 0 66 57q0 18 -9.5 30.5t-22.5 19t-36 10.5t-41.5 5t-47.5 1zM294 -9l-76 35l292 626l78 -33zM520 323v67h278v-57
q-132 -112 -132 -312v-21h-85v26q0 182 111 297h-172z" />
    <glyph glyph-name="sixsevenths" unicode="&#xf50b;" horiz-adv-x="825" 
d="M235 669l19 -63q-64 -7 -98.5 -38.5t-41.5 -77.5q41 25 87 25q55 0 85.5 -32.5t30.5 -89.5q0 -60 -37 -98.5t-106 -38.5q-71 0 -108.5 47t-37.5 130q0 91 49 157t158 79zM236 386q0 65 -59 65q-36 0 -66 -23q0 -106 65 -106q26 0 43 16t17 48zM301 -9l-76 35l292 626
l78 -33zM528 323v67h278v-57q-132 -112 -132 -312v-21h-85v26q0 182 111 297h-172z" />
    <glyph glyph-name="oneninth" unicode="&#xf50c;" horiz-adv-x="825" 
d="M61 331h75v228l-81 -36l-29 57l125 71h79l-6 -69v-251h70v-70h-233v70zM292 -9l-76 35l292 626l78 -33zM582 -19l-18 65q63 9 98 40t41 74q-41 -23 -86 -23q-55 0 -85.5 33t-30.5 90q0 60 37.5 98t106.5 38q71 0 108 -46.5t37 -130.5q0 -92 -47.5 -157t-160.5 -81z
M582 264q0 -63 60 -63q37 0 64 22q0 106 -65 106q-26 0 -42.5 -16t-16.5 -49z" />
    <glyph glyph-name="twoninths" unicode="&#xf50d;" horiz-adv-x="825" 
d="M65 543l-44 56q74 58 151 58q60 0 92 -28t32 -72q0 -58 -56 -120l-90 -104h159v-72h-275v58l124 142q44 53 44 82q0 39 -46 39q-38 0 -91 -39zM311 -9l-76 35l292 626l78 -33zM588 -19l-18 65q63 9 98 40t41 74q-41 -23 -86 -23q-55 0 -85.5 33t-30.5 90q0 60 37.5 98
t106.5 38q71 0 108 -46.5t37 -130.5q0 -92 -47.5 -157t-160.5 -81zM588 264q0 -63 60 -63q37 0 64 22q0 106 -65 106q-26 0 -42.5 -16t-16.5 -49z" />
    <glyph glyph-name="fourninths" unicode="&#xf50e;" horiz-adv-x="825" 
d="M220 519h53v-106h61v-67h-61v-85h-87v87h-162v54l122 262l69 -32l-102 -219h78zM305 -9l-76 35l292 626l78 -33zM588 -19l-18 65q63 9 98 40t41 74q-41 -23 -86 -23q-55 0 -85.5 33t-30.5 90q0 60 37.5 98t106.5 38q71 0 108 -46.5t37 -130.5q0 -92 -47.5 -157
t-160.5 -81zM588 264q0 -63 60 -63q37 0 64 22q0 106 -65 106q-26 0 -42.5 -16t-16.5 -49z" />
    <glyph glyph-name="fiveninths" unicode="&#xf50f;" horiz-adv-x="825" 
d="M68 448l27 203h207v-68h-148l-11 -77q82 -3 125.5 -31.5t43.5 -90.5q0 -53 -35 -90.5t-115 -37.5q-38 0 -76.5 11.5t-50.5 21.5l27 64q49 -28 97 -28q66 0 66 57q0 18 -9.5 30.5t-22.5 19t-36 10.5t-41.5 5t-47.5 1zM294 -9l-76 35l292 626l78 -33zM580 -19l-18 65
q63 9 98 40t41 74q-41 -23 -86 -23q-55 0 -85.5 33t-30.5 90q0 60 37.5 98t106.5 38q71 0 108 -46.5t37 -130.5q0 -92 -47.5 -157t-160.5 -81zM580 264q0 -63 60 -63q37 0 64 22q0 106 -65 106q-26 0 -42.5 -16t-16.5 -49z" />
    <glyph glyph-name="sevenninths" unicode="&#xf510;" horiz-adv-x="825" 
d="M50 584v67h278v-57q-132 -112 -132 -312v-21h-85v26q0 182 111 297h-172zM261 -9l-76 35l292 626l78 -33zM569 -19l-18 65q63 9 98 40t41 74q-41 -23 -86 -23q-55 0 -85.5 33t-30.5 90q0 60 37.5 98t106.5 38q71 0 108 -46.5t37 -130.5q0 -92 -47.5 -157t-160.5 -81z
M569 264q0 -63 60 -63q37 0 64 22q0 106 -65 106q-26 0 -42.5 -16t-16.5 -49z" />
    <glyph glyph-name="eightninths" unicode="&#xf511;" horiz-adv-x="825" 
d="M30 356q0 43 24.5 71t57.5 42q-67 31 -67 91q0 40 35 68.5t95 28.5q67 0 98 -26.5t31 -62.5q0 -55 -61 -96q76 -40 76 -105q0 -46 -35 -78.5t-111 -32.5t-109.5 29t-33.5 71zM234 366q0 39 -61 64q-24 -10 -41.5 -28.5t-17.5 -38.5q0 -19 15 -32t46 -13q28 0 43.5 14
t15.5 34zM173 599q-24 0 -36.5 -11.5t-12.5 -26.5q0 -32 54 -56q18 10 31.5 26.5t13.5 32.5q0 14 -12 24.5t-38 10.5zM305 -9l-76 35l292 626l78 -33zM589 -19l-18 65q63 9 98 40t41 74q-41 -23 -86 -23q-55 0 -85.5 33t-30.5 90q0 60 37.5 98t106.5 38q71 0 108 -46.5
t37 -130.5q0 -92 -47.5 -157t-160.5 -81zM589 264q0 -63 60 -63q37 0 64 22q0 106 -65 106q-26 0 -42.5 -16t-16.5 -49z" />
    <glyph glyph-name="zero.tosf" unicode="&#xf81e;" 
d="M270 518q110 0 172 -64t62 -192q0 -133 -64 -205.5t-177 -72.5t-173 71.5t-60 191.5q0 131 66 201t174 70zM265 74q53 0 85.5 46t32.5 140q0 85 -31 126t-85 41q-117 0 -117 -182q0 -81 31 -126t84 -45z" />
    <glyph glyph-name="one.tosf" unicode="&#xf81f;" 
d="M119 92h121v280l-130 -67l-44 78l197 120h106l-8 -94v-317h119v-92h-361v92z" />
    <glyph glyph-name="two.tosf" unicode="&#xf820;" 
d="M108 338l-65 76q102 104 227 104q93 0 142.5 -44t49.5 -118q0 -57 -28 -98t-87 -85l-108 -81h248v-92h-436v71l190 143q53 39 74.5 67.5t21.5 63.5q0 74 -76 74q-68 0 -153 -81z" />
    <glyph glyph-name="three.tosf" unicode="&#xf821;" 
d="M364 219q91 -88 91 -170q0 -98 -91.5 -153t-272.5 -74l-21 91q82 11 136 25t91.5 42t37.5 69q0 55 -62 112q-64 -25 -111 -34l-29 86q99 23 144 52.5t45 81.5q0 70 -79 70q-63 0 -148 -62l-55 78q103 85 225 85q85 0 131 -42.5t46 -107.5q0 -94 -78 -149z" />
    <glyph glyph-name="four.tosf" unicode="&#xf822;" 
d="M349 295h71v-200h90v-95h-90v-157h-120v158h-274v64l196 448l99 -48l-164 -370h150v49z" />
    <glyph glyph-name="five.tosf" unicode="&#xf823;" 
d="M90 179l42 324h324v-93h-229l-19 -138q254 -13 254 -196q0 -109 -97.5 -174.5t-277.5 -81.5l-21 92q135 16 203.5 54t68.5 106q0 119 -248 107z" />
    <glyph glyph-name="six.tosf" unicode="&#xf824;" 
d="M383 671l23 -90q-97 -15 -155 -71t-69 -141q63 41 136 41q82 0 128 -52t46 -142q0 -101 -56.5 -164t-161.5 -63q-112 0 -164.5 78t-52.5 209q0 73 16 135t52 117.5t101.5 92.5t156.5 50zM375 211q0 53 -23.5 83.5t-65.5 30.5q-26 0 -59.5 -12t-51.5 -27q-3 -93 21.5 -149
t81.5 -56q43 0 70 34.5t27 95.5z" />
    <glyph glyph-name="seven.tosf" unicode="&#xf825;" 
d="M55 405v98h433v-83l-290 -578h-124l280 563h-299z" />
    <glyph glyph-name="eight.tosf" unicode="&#xf826;" 
d="M51 159q0 111 120 182q-99 62 -99 149q0 72 54.5 119.5t144.5 47.5q95 0 141.5 -43.5t46.5 -106.5q0 -80 -93 -160q120 -71 120 -174q0 -79 -56.5 -131.5t-166.5 -52.5q-112 0 -162 50.5t-50 119.5zM360 170q0 71 -105 121q-89 -49 -89 -124q0 -36 25 -61.5t72 -25.5
q46 0 71.5 24t25.5 66zM267 572q-34 0 -57.5 -21.5t-23.5 -53.5q0 -60 90 -107q74 52 74 111q0 33 -23 52t-60 19z" />
    <glyph glyph-name="nine.tosf" unicode="&#xf827;" 
d="M160 -151l-24 93q205 35 226 193q-58 -38 -138 -38q-82 0 -127.5 52t-45.5 142q0 100 57 163.5t163 63.5q112 0 163 -78t51 -209q0 -342 -325 -382zM168 295q0 -52 23 -81.5t65 -29.5q27 0 60.5 11.5t51.5 25.5q5 204 -101 204q-45 0 -72 -34t-27 -96z" />
    <glyph glyph-name="hyphen.case" horiz-adv-x="322" 
d="M30 280v92h262v-92h-262z" />
    <glyph glyph-name="zero.num" horiz-adv-x="377" 
d="M191 657q157 0 157 -198q0 -203 -162 -203q-158 0 -158 200q0 100 43.5 150.5t119.5 50.5zM188 326q36 0 54.5 30t18.5 102q0 71 -18.5 100.5t-54.5 29.5q-74 0 -74 -137q0 -68 18 -96.5t56 -28.5z" />
    <glyph glyph-name="one.num" horiz-adv-x="377" 
d="M85 331h75v228l-81 -36l-29 57l125 71h79l-6 -69v-251h70v-70h-233v70z" />
    <glyph glyph-name="two.num" horiz-adv-x="377" 
d="M87 543l-44 56q74 58 151 58q60 0 92 -28t32 -72q0 -58 -56 -120l-90 -104h159v-72h-275v58l124 142q44 53 44 82q0 39 -46 39q-38 0 -91 -39z" />
    <glyph glyph-name="three.num" horiz-adv-x="377" 
d="M92 555l-35 56q75 46 148 46q55 0 84.5 -26.5t29.5 -67.5q0 -52 -42 -87q48 -56 48 -106q0 -48 -36 -81t-107 -33q-72 0 -128 29l24 67q50 -26 103 -26q59 0 59 43q0 20 -30 69q-33 -12 -80 -21l-19 58q39 9 65 18q18 6 28 11t19 16.5t9 27.5q0 37 -46 37q-36 0 -94 -30z
" />
    <glyph glyph-name="four.num" horiz-adv-x="377" 
d="M229 519h53v-106h61v-67h-61v-85h-87v87h-162v54l122 262l69 -32l-102 -219h78z" />
    <glyph glyph-name="five.num" horiz-adv-x="377" 
d="M75 448l27 203h207v-68h-148l-11 -77q82 -3 125.5 -31.5t43.5 -90.5q0 -53 -35 -90.5t-115 -37.5q-38 0 -76.5 11.5t-50.5 21.5l27 64q49 -28 97 -28q66 0 66 57q0 18 -9.5 30.5t-22.5 19t-36 10.5t-41.5 5t-47.5 1z" />
    <glyph glyph-name="six.num" horiz-adv-x="377" 
d="M252 669l19 -63q-64 -7 -98.5 -38.5t-41.5 -77.5q41 25 87 25q55 0 85.5 -32.5t30.5 -89.5q0 -60 -37 -98.5t-106 -38.5q-71 0 -108.5 47t-37.5 130q0 91 49 157t158 79zM253 386q0 65 -59 65q-36 0 -66 -23q0 -106 65 -106q26 0 43 16t17 48z" />
    <glyph glyph-name="seven.num" horiz-adv-x="377" 
d="M57 584v67h278v-57q-132 -112 -132 -312v-21h-85v26q0 182 111 297h-172z" />
    <glyph glyph-name="eight.num" horiz-adv-x="377" 
d="M46 356q0 43 24.5 71t57.5 42q-67 31 -67 91q0 40 35 68.5t95 28.5q67 0 98 -26.5t31 -62.5q0 -55 -61 -96q76 -40 76 -105q0 -46 -35 -78.5t-111 -32.5t-109.5 29t-33.5 71zM250 366q0 39 -61 64q-24 -10 -41.5 -28.5t-17.5 -38.5q0 -19 15 -32t46 -13q28 0 43.5 14
t15.5 34zM189 599q-24 0 -36.5 -11.5t-12.5 -26.5q0 -32 54 -56q18 10 31.5 26.5t13.5 32.5q0 14 -12 24.5t-38 10.5z" />
    <glyph glyph-name="nine.num" horiz-adv-x="377" 
d="M121 242l-18 65q63 9 98 40t41 74q-41 -23 -86 -23q-55 0 -85.5 33t-30.5 90q0 60 37.5 98t106.5 38q71 0 108 -46.5t37 -130.5q0 -92 -47.5 -157t-160.5 -81zM121 525q0 -63 60 -63q37 0 64 22q0 106 -65 106q-26 0 -42.5 -16t-16.5 -49z" />
    <glyph glyph-name="zero.denom" horiz-adv-x="377" 
d="M191 396q157 0 157 -198q0 -203 -162 -203q-158 0 -158 200q0 100 43.5 150.5t119.5 50.5zM188 65q36 0 54.5 30t18.5 102q0 71 -18.5 100.5t-54.5 29.5q-74 0 -74 -137q0 -68 18 -96.5t56 -28.5z" />
    <glyph glyph-name="one.denom" horiz-adv-x="377" 
d="M85 70h75v228l-81 -36l-29 57l125 71h79l-6 -69v-251h70v-70h-233v70z" />
    <glyph glyph-name="two.denom" horiz-adv-x="377" 
d="M87 282l-44 56q74 58 151 58q60 0 92 -28t32 -72q0 -58 -56 -120l-90 -104h159v-72h-275v58l124 142q44 53 44 82q0 39 -46 39q-38 0 -91 -39z" />
    <glyph glyph-name="three.denom" horiz-adv-x="377" 
d="M92 294l-35 56q75 46 148 46q55 0 84.5 -26.5t29.5 -67.5q0 -52 -42 -87q48 -56 48 -106q0 -48 -36 -81t-107 -33q-72 0 -128 29l24 67q50 -26 103 -26q59 0 59 43q0 20 -30 69q-33 -12 -80 -21l-19 58q39 9 65 18q18 6 28 11t19 16.5t9 27.5q0 37 -46 37q-36 0 -94 -30z
" />
    <glyph glyph-name="four.denom" horiz-adv-x="377" 
d="M229 258h53v-106h61v-67h-61v-85h-87v87h-162v54l122 262l69 -32l-102 -219h78z" />
    <glyph glyph-name="five.denom" horiz-adv-x="377" 
d="M79 187l27 203h207v-68h-148l-11 -77q82 -3 125.5 -31.5t43.5 -90.5q0 -53 -35 -90.5t-115 -37.5q-38 0 -76.5 11.5t-50.5 21.5l27 64q49 -28 97 -28q66 0 66 57q0 18 -9.5 30.5t-22.5 19t-36 10.5t-41.5 5t-47.5 1z" />
    <glyph glyph-name="six.denom" horiz-adv-x="377" 
d="M252 408l19 -63q-64 -7 -98.5 -38.5t-41.5 -77.5q41 25 87 25q55 0 85.5 -32.5t30.5 -89.5q0 -60 -37 -98.5t-106 -38.5q-71 0 -108.5 47t-37.5 130q0 91 49 157t158 79zM253 125q0 65 -59 65q-36 0 -66 -23q0 -106 65 -106q26 0 43 16t17 48z" />
    <glyph glyph-name="seven.denom" horiz-adv-x="377" 
d="M57 323v67h278v-57q-132 -112 -132 -312v-21h-85v26q0 182 111 297h-172z" />
    <glyph glyph-name="eight.denom" horiz-adv-x="377" 
d="M46 95q0 43 24.5 71t57.5 42q-67 31 -67 91q0 40 35 68.5t95 28.5q67 0 98 -26.5t31 -62.5q0 -55 -61 -96q76 -40 76 -105q0 -46 -35 -78.5t-111 -32.5t-109.5 29t-33.5 71zM250 105q0 39 -61 64q-24 -10 -41.5 -28.5t-17.5 -38.5q0 -19 15 -32t46 -13q28 0 43.5 14
t15.5 34zM189 338q-24 0 -36.5 -11.5t-12.5 -26.5q0 -32 54 -56q18 10 31.5 26.5t13.5 32.5q0 14 -12 24.5t-38 10.5z" />
    <glyph glyph-name="nine.denom" horiz-adv-x="377" 
d="M121 -19l-18 65q63 9 98 40t41 74q-41 -23 -86 -23q-55 0 -85.5 33t-30.5 90q0 60 37.5 98t106.5 38q71 0 108 -46.5t37 -130.5q0 -92 -47.5 -157t-160.5 -81zM121 264q0 -63 60 -63q37 0 64 22q0 106 -65 106q-26 0 -42.5 -16t-16.5 -49z" />
    <glyph glyph-name="commaaccent" horiz-adv-x="500" 
d="M143 -259l59 198q19 -1 30 -2.5t26.5 -5.5t23.5 -13.5t8 -23.5q0 -19 -16 -47q-16 -29 -84 -129z" />
    <glyph glyph-name="revcommaaccent" horiz-adv-x="500" 
d="M326 773l-59 -199q-26 2 -41.5 4.5t-31.5 13.5t-16 29q0 19 16 47q13 24 84 128z" />
    <glyph glyph-name="tilde.cap" horiz-adv-x="500" 
d="M112 733l-9 76q37 29 84 29q27 0 70 -13t65 -13q28 0 62 18l8 -81q-34 -18 -68 -18q-23 0 -71 11t-67 11q-38 0 -74 -20z" />
    <glyph glyph-name="ring.cap" horiz-adv-x="500" 
d="M155 765q0 41 26.5 67t68.5 26q43 0 68 -25.5t25 -62.5q0 -43 -26 -70.5t-70 -27.5q-43 0 -67.5 26.5t-24.5 66.5zM214 765q0 -42 36 -42q17 0 26.5 12t9.5 30q0 41 -36 41t-36 -41z" />
    <glyph glyph-name="circumflex.cap" horiz-adv-x="500" 
d="M130 708l-41 34q59 78 110 124q26 24 49 24q26 0 47 -21q70 -70 114 -126l-41 -35l-120 86z" />
    <glyph glyph-name="acute.cap" horiz-adv-x="500" 
d="M149 750l162 157q58 -34 58 -66q0 -25 -40 -51q-16 -10 -150 -81z" />
    <glyph glyph-name="grave.cap" horiz-adv-x="500" 
d="M207 906l162 -157l-30 -41q-131 69 -151 82q-39 24 -39 51q0 31 58 65z" />
    <glyph glyph-name="dieresis.cap" horiz-adv-x="500" 
d="M288 782q0 26 17.5 43.5t45.5 17.5q27 0 45 -17.5t18 -43.5q0 -27 -17.5 -44t-45.5 -17q-29 0 -46 17t-17 44zM85 782q0 26 17.5 43.5t46.5 17.5q27 0 45 -17.5t18 -43.5q0 -27 -18 -44t-46 -17t-45.5 17t-17.5 44z" />
    <glyph glyph-name="caron.cap" horiz-adv-x="500" 
d="M89 856l41 34l118 -86l120 86l41 -35q-44 -56 -114 -126q-21 -21 -47 -21q-23 0 -49 24q-51 46 -110 124z" />
    <glyph glyph-name="macron.cap" horiz-adv-x="500" 
d="M104 734v87h287v-87h-287z" />
    <glyph glyph-name="dotaccent.cap" horiz-adv-x="500" 
d="M183 793q0 28 19.5 47.5t49.5 19.5t49.5 -19.5t19.5 -47.5q0 -29 -19.5 -47.5t-49.5 -18.5q-31 0 -50 18.5t-19 47.5z" />
    <glyph glyph-name="cedilla.cap" horiz-adv-x="500" 
d="M212 3h57l-18 -69q41 -3 65.5 -23.5t24.5 -55.5q0 -50 -35 -73.5t-83 -23.5q-49 0 -90 18l16 54q39 -13 67 -13q50 0 50 35q0 22 -22.5 30t-67.5 8z" />
    <glyph glyph-name="hungarumlaut.cap" horiz-adv-x="500" 
d="M56 744l166 154q56 -37 56 -66q0 -27 -41 -51q-29 -17 -152 -79zM264 744l166 153q56 -34 56 -65q0 -26 -41 -51q-28 -17 -152 -79z" />
    <glyph glyph-name="commaaccent.cap" horiz-adv-x="500" 
d="M143 -259l59 198q19 -1 30 -2.5t26.5 -5.5t23.5 -13.5t8 -23.5q0 -19 -16 -47q-16 -29 -86 -128z" />
    <glyph glyph-name="breve.cap" horiz-adv-x="500" 
d="M349 875l73 -30q-43 -125 -173 -125q-69 0 -110.5 35.5t-56.5 88.5l74 31q30 -79 97 -79q37 0 58 18t38 61z" />
    <glyph glyph-name="caron.alt" horiz-adv-x="252" 
d="M85 478v210q30 8 51 8q48 0 48 -34q0 -14 -4 -36q-12 -65 -47 -157z" />
    <glyph glyph-name="ogonek.cap" horiz-adv-x="500" 
d="M212 2l99 -1q-32 -26 -56 -61.5t-24 -64.5q0 -40 39 -40q23 0 48 11l24 -74q-42 -21 -98 -21q-61 0 -87 29t-26 69q0 80 81 153z" />
    <glyph glyph-name="zero.tf" 
d="M272 657q227 0 227 -329q0 -175 -59 -256.5t-175 -81.5t-173 80.5t-57 253.5q0 167 63 250t174 83zM267 86q54 0 83.5 53t29.5 187q0 129 -28.5 181t-82.5 52q-56 0 -84.5 -55.5t-28.5 -190.5q0 -124 28.5 -175.5t82.5 -51.5z" />
    <glyph glyph-name="one.tf" 
d="M126 92h118v422l-131 -68l-44 77l196 121h106l-8 -95v-457h114v-92h-351v92z" />
    <glyph glyph-name="two.tf" 
d="M111 479l-66 78q100 100 224 100q91 0 140.5 -48.5t49.5 -129.5q0 -93 -86 -190l-168 -192h283v-97h-444v77l218 251q41 48 56 75t15 65q0 40 -23.5 61t-60.5 21q-61 0 -138 -71z" />
    <glyph glyph-name="three.tf" 
d="M99 484l-60 76q39 38 103 67.5t136 29.5q85 0 131 -43t46 -110q0 -91 -79 -147q89 -76 89 -172q0 -82 -56.5 -139t-166.5 -57q-56 0 -112 15t-87 35l35 95q79 -44 160 -44q48 0 77 23.5t29 63.5q0 59 -58 117q-47 -20 -111 -32l-29 88q98 22 142.5 49.5t44.5 80.5
q0 74 -79 74q-35 0 -77 -19.5t-78 -50.5z" />
    <glyph glyph-name="four.tf" 
d="M353 436h70v-187h89v-95h-90v-154h-120v155h-266v83l198 421l95 -47l-171 -363h153v44z" />
    <glyph glyph-name="five.tf" 
d="M88 308l43 336h329v-99h-241l-20 -151q54 -4 99.5 -17t83.5 -36.5t60 -62.5t22 -90q0 -80 -56.5 -139.5t-170.5 -59.5q-56 0 -113 16.5t-89 36.5l40 92q83 -46 157 -46q54 0 81 27t27 71q0 122 -252 122z" />
    <glyph glyph-name="six.tf" 
d="M380 671l23 -90q-97 -15 -155 -71t-69 -141q63 41 136 41q82 0 128 -52t46 -142q0 -101 -56.5 -164t-161.5 -63q-112 0 -164.5 78t-52.5 209q0 73 16 135t52 117.5t101.5 92.5t156.5 50zM372 211q0 53 -23.5 83.5t-65.5 30.5q-26 0 -59.5 -12t-51.5 -27q-3 -93 21.5 -149
t81.5 -56q43 0 70 34.5t27 95.5z" />
    <glyph glyph-name="seven.tf" 
d="M70 545v99h430v-83q-217 -183 -217 -513v-48h-125v56q0 294 190 489h-278z" />
    <glyph glyph-name="eight.tf" 
d="M51 159q0 111 120 182q-99 62 -99 149q0 72 54.5 119.5t144.5 47.5q95 0 141.5 -43.5t46.5 -106.5q0 -80 -93 -160q120 -71 120 -174q0 -79 -56.5 -131.5t-166.5 -52.5q-112 0 -162 50.5t-50 119.5zM360 170q0 71 -105 121q-89 -49 -89 -124q0 -36 25 -61.5t72 -25.5
q46 0 71.5 24t25.5 66zM267 572q-34 0 -57.5 -21.5t-23.5 -53.5q0 -60 90 -107q74 52 74 111q0 33 -23 52t-60 19z" />
    <glyph glyph-name="nine.tf" 
d="M155 -12l-24 93q205 35 226 193q-58 -38 -138 -38q-82 0 -127.5 52t-45.5 142q0 100 57 163.5t163 63.5q112 0 163 -78t51 -209q0 -342 -325 -382zM163 434q0 -52 23 -81.5t65 -29.5q27 0 60.5 11.5t51.5 25.5q5 204 -101 204q-45 0 -72 -34t-27 -96z" />
    <glyph glyph-name="dollar.tf" 
d="M25 72l45 89q69 -45 156 -55v185q-42 13 -69 25.5t-54 33t-40.5 51.5t-13.5 72q0 77 49 123.5t128 57.5v93h75v-92q117 -12 197 -92l-65 -76q-70 57 -132 69v-169q42 -15 66 -26t56 -33t47.5 -54t15.5 -75q0 -84 -49 -131t-136 -57v-119h-75v117q-61 4 -117.5 23.5
t-83.5 39.5zM372 192q0 54 -71 79v-166q71 16 71 87zM165 481q0 -28 15.5 -44.5t45.5 -28.5v146q-61 -15 -61 -73z" />
    <glyph glyph-name="Euro.tf" 
d="M469 221v82h-435v-82h98q-37 -34 -37 -87q0 -64 48.5 -106t160.5 -42q126 0 229 65l-41 81q-86 -53 -171 -53q-105 0 -105 74q0 32 21.5 50t55.5 18h176zM469 422v-82h-435v82h90q-29 34 -29 78q0 65 50.5 111t155.5 46q130 0 232 -87l-55 -74q-48 35 -86 52t-85 17
q-91 0 -91 -74q0 -69 77 -69h176z" />
    <glyph glyph-name="cent.tf" 
d="M267 -60v111q-94 11 -144.5 77t-50.5 181q0 123 56 187.5t139 76.5v112h75v-112q92 -16 145 -92l-75 -62q-36 42 -70 55v-329q43 7 91 42l45 -80q-55 -46 -136 -56v-111h-75zM191 314q0 -131 76 -161v321q-76 -28 -76 -160z" />
    <glyph glyph-name="sterling.tf" 
d="M31 143v84h101l50 234q23 106 74.5 151t133.5 45q88 0 163 -65l-58 -72q-53 43 -103 43q-44 0 -64.5 -26t-33.5 -87l-48 -223h161v-83h-177l-18 -79q-17 -80 -79 -132l1 -2q47 14 77 14q31 0 88.5 -12t93.5 -12q45 0 94 14l-13 -97q-48 -9 -87 -9q-49 0 -130 15.5
t-126 15.5q-69 0 -133 -29v93q38 18 60.5 46.5t34.5 76.5l23 96h-85z" />
    <glyph glyph-name="yen.tf" 
d="M217 145h-154v76h154v75h-154v76h112l-142 272h124l123 -253h5l121 253h120l-145 -272h110v-76h-153v-75h153v-76h-153v-145h-121v145z" />
    <glyph glyph-name="florin.tf" horiz-adv-x="484" 
d="M56 294l15 95h109l13 75q8 47 18.5 77t31 59t57 43t89.5 14q74 0 141 -35l-40 -80q-49 26 -93 26q-35 0 -53.5 -18t-26.5 -58l-19 -103h148l-17 -95h-147l-53 -306q-8 -47 -19 -79t-33 -61.5t-59 -43.5t-90 -14q-74 0 -137 35l40 79q47 -25 93 -25q67 0 80 76l59 339
h-107z" />
    <glyph glyph-name="zero.osf" horiz-adv-x="524" 
d="M265 518q110 0 172 -64t62 -192q0 -133 -64 -205.5t-177 -72.5t-173 71.5t-60 191.5q0 131 66 201t174 70zM260 74q53 0 85.5 46t32.5 140q0 85 -31 126t-85 41q-117 0 -117 -182q0 -81 31 -126t84 -45z" />
    <glyph glyph-name="one.osf" horiz-adv-x="466" 
d="M88 92h121v280l-130 -67l-44 78l197 120h106l-8 -94v-317h119v-92h-361v92z" />
    <glyph glyph-name="two.osf" horiz-adv-x="494" 
d="M84 338l-65 76q102 104 227 104q93 0 142.5 -44t49.5 -118q0 -57 -28 -98t-87 -85l-108 -81h248v-92h-436v71l190 143q53 39 74.5 67.5t21.5 63.5q0 74 -76 74q-68 0 -153 -81z" />
    <glyph glyph-name="three.osf" horiz-adv-x="476" 
d="M344 219q91 -88 91 -170q0 -98 -91.5 -153t-272.5 -74l-21 91q82 11 136 25t91.5 42t37.5 69q0 55 -62 112q-64 -25 -111 -34l-29 86q99 23 144 52.5t45 81.5q0 70 -79 70q-63 0 -148 -62l-55 78q103 85 225 85q85 0 131 -42.5t46 -107.5q0 -94 -78 -149z" />
    <glyph glyph-name="four.osf" horiz-adv-x="518" 
d="M352 295h71v-200h90v-95h-90v-157h-120v158h-274v64l196 448l99 -48l-164 -370h150v49z" />
    <glyph glyph-name="five.osf" horiz-adv-x="469" 
d="M59 179l42 324h324v-93h-229l-19 -138q254 -13 254 -196q0 -109 -97.5 -174.5t-277.5 -81.5l-21 92q135 16 203.5 54t68.5 106q0 119 -248 107z" />
    <glyph glyph-name="six.osf" horiz-adv-x="537" 
d="M381 671l23 -90q-97 -15 -155 -71t-69 -141q63 41 136 41q82 0 128 -52t46 -142q0 -101 -56.5 -164t-161.5 -63q-112 0 -164.5 78t-52.5 209q0 73 16 135t52 117.5t101.5 92.5t156.5 50zM373 211q0 53 -23.5 83.5t-65.5 30.5q-26 0 -59.5 -12t-51.5 -27q-3 -93 21.5 -149
t81.5 -56q43 0 70 34.5t27 95.5z" />
    <glyph glyph-name="seven.osf" horiz-adv-x="481" 
d="M23 405v98h433v-83l-290 -578h-124l280 563h-299z" />
    <glyph glyph-name="eight.osf" horiz-adv-x="534" 
d="M49 159q0 111 120 182q-99 62 -99 149q0 72 54.5 119.5t144.5 47.5q95 0 141.5 -43.5t46.5 -106.5q0 -80 -93 -160q120 -71 120 -174q0 -79 -56.5 -131.5t-166.5 -52.5q-112 0 -162 50.5t-50 119.5zM358 170q0 71 -105 121q-89 -49 -89 -124q0 -36 25 -61.5t72 -25.5
q46 0 71.5 24t25.5 66zM265 572q-34 0 -57.5 -21.5t-23.5 -53.5q0 -60 90 -107q74 52 74 111q0 33 -23 52t-60 19z" />
    <glyph glyph-name="nine.osf" horiz-adv-x="529" 
d="M157 -151l-24 93q205 35 226 193q-58 -38 -138 -38q-82 0 -127.5 52t-45.5 142q0 100 57 163.5t163 63.5q112 0 163 -78t51 -209q0 -342 -325 -382zM165 295q0 -52 23 -81.5t65 -29.5q27 0 60.5 11.5t51.5 25.5q5 204 -101 204q-45 0 -72 -34t-27 -96z" />
    <glyph glyph-name="dollar.osf" 
d="M19 72l45 89q69 -45 156 -55v185q-42 13 -69 25.5t-54 33t-40.5 51.5t-13.5 72q0 77 49 123.5t128 57.5v93h75v-92q117 -12 197 -92l-65 -76q-70 57 -132 69v-169q42 -15 66 -26t56 -33t47.5 -54t15.5 -75q0 -84 -49 -131t-136 -57v-119h-75v117q-61 4 -117.5 23.5
t-83.5 39.5zM366 192q0 54 -71 79v-166q71 16 71 87zM159 481q0 -28 15.5 -44.5t45.5 -28.5v146q-61 -15 -61 -73z" />
    <glyph glyph-name="Euro.osf" horiz-adv-x="543" 
d="M469 221v82h-435v-82h98q-37 -34 -37 -87q0 -64 48.5 -106t160.5 -42q126 0 229 65l-41 81q-86 -53 -171 -53q-105 0 -105 74q0 32 21.5 50t55.5 18h176zM469 422v-82h-435v82h90q-29 34 -29 78q0 65 50.5 111t155.5 46q130 0 232 -87l-55 -74q-48 35 -86 52t-85 17
q-91 0 -91 -74q0 -69 77 -69h176z" />
    <glyph glyph-name="cent.osf" 
d="M271 -130v111q-94 11 -144.5 77t-50.5 181q0 123 56 187.5t139 76.5v112h75v-112q92 -16 145 -92l-75 -62q-36 42 -70 55v-329q43 7 91 42l45 -80q-55 -46 -136 -56v-111h-75zM195 244q0 -131 76 -161v321q-76 -28 -76 -160z" />
    <glyph glyph-name="sterling.osf" horiz-adv-x="556" 
d="M74 143v84h101l50 234q23 106 74.5 151t133.5 45q88 0 163 -65l-58 -72q-53 43 -103 43q-44 0 -64.5 -26t-33.5 -87l-48 -223h161v-83h-177l-18 -79q-17 -80 -79 -132l1 -2q47 14 77 14q31 0 88.5 -12t93.5 -12q45 0 94 14l-13 -97q-48 -9 -87 -9q-49 0 -130 15.5
t-126 15.5q-69 0 -133 -29v93q38 18 60.5 46.5t34.5 76.5l23 96h-85z" />
    <glyph glyph-name="yen.osf" horiz-adv-x="517" 
d="M207 145h-154v76h154v75h-154v76h112l-142 272h124l123 -253h5l121 253h120l-145 -272h110v-76h-153v-75h153v-76h-153v-145h-121v145z" />
    <glyph glyph-name="florin.osf" horiz-adv-x="515" 
d="M69 294l15 95h109l13 75q8 47 18.5 77t31 59t57 43t89.5 14q74 0 141 -35l-40 -80q-49 26 -93 26q-35 0 -53.5 -18t-26.5 -58l-19 -103h148l-17 -95h-147l-53 -306q-8 -47 -19 -79t-33 -61.5t-59 -43.5t-90 -14q-74 0 -137 35l40 79q47 -25 93 -25q67 0 80 76l59 339
h-107z" />
    <glyph glyph-name="dollar.tosf" 
d="M16 72l45 89q69 -45 156 -55v185q-42 13 -69 25.5t-54 33t-40.5 51.5t-13.5 72q0 77 49 123.5t128 57.5v93h75v-92q117 -12 197 -92l-65 -76q-70 57 -132 69v-169q42 -15 66 -26t56 -33t47.5 -54t15.5 -75q0 -84 -49 -131t-136 -57v-119h-75v117q-61 4 -117.5 23.5
t-83.5 39.5zM363 192q0 54 -71 79v-166q71 16 71 87zM156 481q0 -28 15.5 -44.5t45.5 -28.5v146q-61 -15 -61 -73z" />
    <glyph glyph-name="Euro.tosf" 
d="M469 221v82h-435v-82h98q-37 -34 -37 -87q0 -64 48.5 -106t160.5 -42q126 0 229 65l-41 81q-86 -53 -171 -53q-105 0 -105 74q0 32 21.5 50t55.5 18h176zM469 422v-82h-435v82h90q-29 34 -29 78q0 65 50.5 111t155.5 46q130 0 232 -87l-55 -74q-48 35 -86 52t-85 17
q-91 0 -91 -74q0 -69 77 -69h176z" />
    <glyph glyph-name="cent.tosf" 
d="M277 -130v111q-94 11 -144.5 77t-50.5 181q0 123 56 187.5t139 76.5v112h75v-112q92 -16 145 -92l-75 -62q-36 42 -70 55v-329q43 7 91 42l45 -80q-55 -46 -136 -56v-111h-75zM201 244q0 -131 76 -161v321q-76 -28 -76 -160z" />
    <glyph glyph-name="sterling.tosf" 
d="M60 143v84h101l50 234q23 106 74.5 151t133.5 45q88 0 163 -65l-58 -72q-53 43 -103 43q-44 0 -64.5 -26t-33.5 -87l-48 -223h161v-83h-177l-18 -79q-17 -80 -79 -132l1 -2q47 14 77 14q31 0 88.5 -12t93.5 -12q45 0 94 14l-13 -97q-48 -9 -87 -9q-49 0 -130 15.5
t-126 15.5q-69 0 -133 -29v93q38 18 60.5 46.5t34.5 76.5l23 96h-85z" />
    <glyph glyph-name="yen.tosf" 
d="M218 145h-154v76h154v75h-154v76h112l-142 272h124l123 -253h5l121 253h120l-145 -272h110v-76h-153v-75h153v-76h-153v-145h-121v145z" />
    <glyph glyph-name="florin.tosf" 
d="M78 294l15 95h109l13 75q8 47 18.5 77t31 59t57 43t89.5 14q74 0 141 -35l-40 -80q-49 26 -93 26q-35 0 -53.5 -18t-26.5 -58l-19 -103h148l-17 -95h-147l-53 -306q-8 -47 -19 -79t-33 -61.5t-59 -43.5t-90 -14q-74 0 -137 35l40 79q47 -25 93 -25q67 0 80 76l59 339
h-107z" />
    <glyph glyph-name="a.alt" horiz-adv-x="512" 
d="M88 394l-26 88q32 13 87.5 24.5t104.5 11.5q95 0 135.5 -41t40.5 -142v-231q0 -35 26 -35q14 0 39 12l14 -69q-41 -24 -91 -24q-66 0 -82 61q-69 -63 -155 -63q-71 0 -108.5 41t-37.5 114q0 165 202 165q38 0 77 -6v40q0 49 -19.5 68.5t-58.5 19.5q-71 0 -148 -34z
M314 120v103q-38 7 -65 7q-47 0 -72.5 -16.5t-25.5 -62.5q0 -78 64 -78q52 0 99 47z" />
    <glyph glyph-name="e.alt" horiz-adv-x="491" 
d="M276 518q85 0 132.5 -49.5t47.5 -131.5q0 -54 -18 -115h-285q2 -68 36 -107t98 -39q67 0 126 44l39 -81q-4 -4 -21.5 -15t-62.5 -25t-94 -14q-119 0 -178.5 69.5t-59.5 192.5q0 116 62.5 193.5t177.5 77.5zM269 433q-53 0 -81.5 -39.5t-33.5 -96.5h187q5 20 5 50
q0 37 -18.5 61.5t-58.5 24.5z" />
    <glyph glyph-name="g.alt" horiz-adv-x="489" 
d="M419 334q0 -82 -53 -125.5t-132 -43.5q-18 0 -38 3l-19 -56l105 -16q54 -8 85.5 -16t63 -24t46 -43t14.5 -66q0 -74 -62 -122.5t-182 -48.5q-216 0 -216 128q0 41 23 70t61 56q-43 14 -43 45q0 13 14 44l31 70q-75 44 -75 149q0 83 52 131.5t135 48.5q67 0 113 -27
l143 19v-95l-89 4l-2 -4q25 -36 25 -81zM273 0l-80 11q-59 -43 -59 -90q0 -66 122 -66q54 0 88 22.5t34 61.5q0 26 -23 40t-82 21zM232 235q35 0 57 27t22 73q0 54 -20.5 83t-58.5 29q-35 0 -56.5 -27t-21.5 -76q0 -109 78 -109z" />
    <glyph glyph-name="k.alt" horiz-adv-x="503" 
d="M181 695v-499h5l181 307h125l-136 -224l132 -279h-126l-85 180l-109 -180h-104v695h117z" />
    <glyph glyph-name="v.alt" horiz-adv-x="501" 
d="M366 503h130l-163 -503h-157l-171 503h135l113 -392h2z" />
    <glyph glyph-name="w.alt" horiz-adv-x="721" 
d="M580 503h129l-126 -503h-139l-83 340h-1l-84 -340h-136l-128 503h133l75 -362h2l89 362h103l90 -363h2z" />
    <glyph glyph-name="y.alt" horiz-adv-x="481" 
d="M352 503h124l-173 -507q-40 -118 -84 -169t-127 -51q-75 0 -135 36l30 87q50 -25 93 -25q31 0 49 15t35 59l23 60l-175 495h127l107 -340h4z" />
    <glyph glyph-name="z.alt" horiz-adv-x="441" 
d="M426 0h-401v76l248 334h-231v93h376v-72l-251 -337h259v-94z" />
    <glyph glyph-name="ae.alt" horiz-adv-x="763" 
d="M218 73q55 0 111 54q-16 45 -17 97q-36 6 -63 6q-47 0 -72.5 -16.5t-25.5 -62.5q0 -78 67 -78zM544 433q-55 0 -85 -41.5t-32 -100.5h191q6 24 6 50q0 40 -20 66t-60 26zM550 518q85 0 131.5 -49.5t46.5 -131.5q0 -58 -19 -115h-281q2 -68 35.5 -107t97.5 -39
q68 0 127 44l38 -81q-4 -4 -21.5 -15t-62.5 -25t-93 -14q-125 0 -185 79q-87 -78 -183 -78q-71 0 -108.5 41t-37.5 114q0 87 51.5 124.5t150.5 37.5q45 0 77 -5v42q0 49 -19 68.5t-59 19.5q-73 0 -152 -35l-22 89q32 13 87.5 24.5t104.5 11.5q110 0 138 -77q62 77 158 77z
" />
    <glyph glyph-name="oe.alt" horiz-adv-x="814" 
d="M599 518q85 0 132.5 -49.5t47.5 -131.5q0 -54 -18 -115h-285q2 -68 36 -107t98 -39q67 0 126 44l39 -81q-4 -4 -21.5 -15t-62.5 -25t-94 -14q-125 0 -178 81q-54 -81 -166 -81q-103 0 -160 67t-57 200q0 74 21.5 128.5t57 83t74 41.5t80.5 13q111 0 160 -80q57 80 170 80
zM261 73q53 0 78.5 47t25.5 129q0 181 -102 181q-53 0 -79.5 -44.5t-26.5 -119.5q0 -193 104 -193zM592 433q-54 0 -82.5 -40t-33.5 -102h187q6 24 6 56q-1 37 -19 61.5t-58 24.5z" />
    <glyph glyph-name="ampersand.alt" horiz-adv-x="704" 
d="M494 369h105q12 -124 -39 -221q49 -41 124 -95l-66 -87q-60 40 -126 94q-74 -74 -206 -74q-120 0 -178 59t-58 144q0 132 122 208q-31 51 -31 110q0 75 50.5 122t139.5 47q120 0 185 -96l-85 -64q-42 66 -100 66q-72 0 -72 -77q0 -101 215 -283q26 61 20 147zM408 130
q-120 102 -181 184q-61 -43 -61 -117q0 -51 31.5 -82.5t91.5 -31.5q77 0 119 47z" />
    <glyph glyph-name="Q.alt" horiz-adv-x="664" 
d="M619 331q0 -131 -47.5 -213t-134.5 -111q20 -6 74.5 -31t89.5 -32q61 -22 105 -13l-12 -96q-35 -2 -73 3q-61 6 -146.5 48.5t-134.5 45.5q-38 3 -77 -5l10 65q-110 17 -169 102.5t-59 236.5q0 92 26 161.5t69.5 108.5t93.5 57.5t106 18.5q123 0 201 -83.5t78 -262.5z
M171 333q0 -47 7 -87.5t24 -79.5t51 -61.5t83 -22.5q57 0 94 38t50 90t13 118q0 43 -7.5 82.5t-24 78t-49.5 62t-78 23.5q-83 0 -123 -70t-40 -171z" />
    <glyph glyph-name="Euro.alt" horiz-adv-x="561" 
d="M40 427h71q12 63 37.5 109.5t61 72t74 37t82.5 11.5q116 0 190 -100l-76 -65q-57 62 -118 62q-103 0 -129 -127h212v-82h-405v82zM40 206v82h405v-82h-210q12 -59 43.5 -88t87.5 -29q65 0 121 47l57 -80q-75 -68 -190 -68q-205 0 -243 218h-71z" />
    <glyph glyph-name="Euro_tf.alt" 
d="M13 427h71q12 63 37.5 109.5t61 72t74 37t82.5 11.5q116 0 190 -100l-76 -65q-57 62 -118 62q-103 0 -129 -127h212v-82h-405v82zM13 206v82h405v-82h-210q12 -59 43.5 -88t87.5 -29q65 0 121 47l57 -80q-75 -68 -190 -68q-205 0 -243 218h-71z" />
    <glyph glyph-name="agrave.alt" horiz-adv-x="512" 
d="M88 394l-26 88q32 13 87.5 24.5t104.5 11.5q95 0 135.5 -41t40.5 -142v-231q0 -35 26 -35q14 0 39 12l14 -69q-41 -24 -91 -24q-66 0 -82 61q-69 -63 -155 -63q-71 0 -108.5 41t-37.5 114q0 165 202 165q38 0 77 -6v40q0 49 -19.5 68.5t-58.5 19.5q-71 0 -148 -34z
M314 120v103q-38 7 -65 7q-47 0 -72.5 -16.5t-25.5 -62.5q0 -78 64 -78q52 0 99 47zM207 796l117 -192l-39 -33q-110 98 -127 115q-27 28 -27 50q0 40 76 60z" />
    <glyph glyph-name="aacute.alt" horiz-adv-x="512" 
d="M88 394l-26 88q32 13 87.5 24.5t104.5 11.5q95 0 135.5 -41t40.5 -142v-231q0 -35 26 -35q14 0 39 12l14 -69q-41 -24 -91 -24q-66 0 -82 61q-69 -63 -155 -63q-71 0 -108.5 41t-37.5 114q0 165 202 165q38 0 77 -6v40q0 49 -19.5 68.5t-58.5 19.5q-71 0 -148 -34z
M314 120v103q-38 7 -65 7q-47 0 -72.5 -16.5t-25.5 -62.5q0 -78 64 -78q52 0 99 47zM160 604l116 192q76 -20 76 -60q0 -20 -27 -49q-11 -12 -126 -116z" />
    <glyph glyph-name="acircumflex.alt" horiz-adv-x="512" 
d="M88 394l-26 88q32 13 87.5 24.5t104.5 11.5q95 0 135.5 -41t40.5 -142v-231q0 -35 26 -35q14 0 39 12l14 -69q-41 -24 -91 -24q-66 0 -82 61q-69 -63 -155 -63q-71 0 -108.5 41t-37.5 114q0 165 202 165q38 0 77 -6v40q0 49 -19.5 68.5t-58.5 19.5q-71 0 -148 -34z
M314 120v103q-38 7 -65 7q-47 0 -72.5 -16.5t-25.5 -62.5q0 -78 64 -78q52 0 99 47zM115 582l-41 32q61 90 103 140q27 33 55 33q17 0 28 -7t27 -25q55 -66 104 -140l-41 -34l-118 104z" />
    <glyph glyph-name="atilde.alt" horiz-adv-x="512" 
d="M88 394l-26 88q32 13 87.5 24.5t104.5 11.5q95 0 135.5 -41t40.5 -142v-231q0 -35 26 -35q14 0 39 12l14 -69q-41 -24 -91 -24q-66 0 -82 61q-69 -63 -155 -63q-71 0 -108.5 41t-37.5 114q0 165 202 165q38 0 77 -6v40q0 49 -19.5 68.5t-58.5 19.5q-71 0 -148 -34z
M314 120v103q-38 7 -65 7q-47 0 -72.5 -16.5t-25.5 -62.5q0 -78 64 -78q52 0 99 47zM92 622l-9 77q39 29 84 29q27 0 70 -13t65 -13q31 0 62 18l8 -81q-33 -19 -68 -19q-23 0 -71 11.5t-67 11.5q-36 0 -74 -21z" />
    <glyph glyph-name="adieresis.alt" horiz-adv-x="512" 
d="M88 394l-26 88q32 13 87.5 24.5t104.5 11.5q95 0 135.5 -41t40.5 -142v-231q0 -35 26 -35q14 0 39 12l14 -69q-41 -24 -91 -24q-66 0 -82 61q-69 -63 -155 -63q-71 0 -108.5 41t-37.5 114q0 165 202 165q38 0 77 -6v40q0 49 -19.5 68.5t-58.5 19.5q-71 0 -148 -34z
M314 120v103q-38 7 -65 7q-47 0 -72.5 -16.5t-25.5 -62.5q0 -78 64 -78q52 0 99 47zM268 666q0 26 17.5 43.5t45.5 17.5q27 0 45 -17.5t18 -43.5q0 -27 -17.5 -44.5t-45.5 -17.5q-29 0 -46 17.5t-17 44.5zM70 666q0 26 17.5 43.5t46.5 17.5q27 0 45 -17.5t18 -43.5
q0 -27 -18 -44.5t-46 -17.5t-45.5 17.5t-17.5 44.5z" />
    <glyph glyph-name="aring.alt" horiz-adv-x="512" 
d="M88 394l-26 88q32 13 87.5 24.5t104.5 11.5q95 0 135.5 -41t40.5 -142v-231q0 -35 26 -35q14 0 39 12l14 -69q-41 -24 -91 -24q-66 0 -82 61q-69 -63 -155 -63q-71 0 -108.5 41t-37.5 114q0 165 202 165q38 0 77 -6v40q0 49 -19.5 68.5t-58.5 19.5q-71 0 -148 -34z
M314 120v103q-38 7 -65 7q-47 0 -72.5 -16.5t-25.5 -62.5q0 -78 64 -78q52 0 99 47zM140 657q0 41 26.5 67t68.5 26q43 0 68 -25.5t25 -62.5q0 -43 -26 -70.5t-70 -27.5q-43 0 -67.5 26.5t-24.5 66.5zM199 657q0 -42 36 -42q17 0 26.5 12t9.5 30q0 41 -36 41t-36 -41z" />
    <glyph glyph-name="egrave.alt" horiz-adv-x="491" 
d="M276 518q-115 0 -177.5 -77.5t-62.5 -193.5q0 -123 59.5 -192.5t178.5 -69.5q49 0 94 14t62.5 25t21.5 15l-39 81q-59 -44 -126 -44q-64 0 -98 39t-36 107h285q18 61 18 115q0 82 -47.5 131.5t-132.5 49.5zM269 433q40 0 58.5 -24.5t18.5 -61.5q0 -30 -5 -50h-187
q5 57 33.5 96.5t81.5 39.5zM233 796l117 -192l-39 -33q-110 98 -127 115q-27 28 -27 50q0 40 76 60z" />
    <glyph glyph-name="eacute.alt" horiz-adv-x="491" 
d="M276 518q85 0 132.5 -49.5t47.5 -131.5q0 -54 -18 -115h-285q2 -68 36 -107t98 -39q67 0 126 44l39 -81q-4 -4 -21.5 -15t-62.5 -25t-94 -14q-119 0 -178.5 69.5t-59.5 192.5q0 116 62.5 193.5t177.5 77.5zM269 433q-53 0 -81.5 -39.5t-33.5 -96.5h187q5 20 5 50
q0 37 -18.5 61.5t-58.5 24.5zM188 604l116 192q76 -20 76 -60q0 -20 -27 -49q-11 -12 -126 -116z" />
    <glyph glyph-name="ecircumflex.alt" horiz-adv-x="491" 
d="M276 518q-115 0 -177.5 -77.5t-62.5 -193.5q0 -123 59.5 -192.5t178.5 -69.5q49 0 94 14t62.5 25t21.5 15l-39 81q-59 -44 -126 -44q-64 0 -98 39t-36 107h285q18 61 18 115q0 82 -47.5 131.5t-132.5 49.5zM269 433q40 0 58.5 -24.5t18.5 -61.5q0 -30 -5 -50h-187
q5 57 33.5 96.5t81.5 39.5zM154 582l-41 32q61 90 103 140q27 33 55 33q17 0 28 -7t27 -25q55 -66 104 -140l-41 -34l-118 104z" />
    <glyph glyph-name="edieresis.alt" horiz-adv-x="491" 
d="M276 518q-115 0 -177.5 -77.5t-62.5 -193.5q0 -123 59.5 -192.5t178.5 -69.5q49 0 94 14t62.5 25t21.5 15l-39 81q-59 -44 -126 -44q-64 0 -98 39t-36 107h285q18 61 18 115q0 82 -47.5 131.5t-132.5 49.5zM269 433q40 0 58.5 -24.5t18.5 -61.5q0 -30 -5 -50h-187
q5 57 33.5 96.5t81.5 39.5zM301 666q0 26 17.5 43.5t45.5 17.5q27 0 45 -17.5t18 -43.5q0 -27 -17.5 -44.5t-45.5 -17.5q-29 0 -46 17.5t-17 44.5zM103 666q0 26 17.5 43.5t46.5 17.5q27 0 45 -17.5t18 -43.5q0 -27 -18 -44.5t-46 -17.5t-45.5 17.5t-17.5 44.5z" />
    <glyph glyph-name="yacute.alt" horiz-adv-x="481" 
d="M352 503h124l-173 -507q-40 -118 -84 -169t-127 -51q-75 0 -135 36l30 87q50 -25 93 -25q31 0 49 15t35 59l23 60l-175 495h127l107 -340h4zM168 604l116 192q76 -20 76 -60q0 -20 -27 -49q-11 -12 -126 -116z" />
    <glyph glyph-name="ydieresis.alt" horiz-adv-x="481" 
d="M352 503h124l-173 -507q-40 -118 -84 -169t-127 -51q-75 0 -135 36l30 87q50 -25 93 -25q31 0 49 15t35 59l23 60l-175 495h127l107 -340h4zM261 666q0 26 17.5 43.5t45.5 17.5q27 0 45 -17.5t18 -43.5q0 -27 -17.5 -44.5t-45.5 -17.5q-29 0 -46 17.5t-17 44.5zM63 666
q0 26 17.5 43.5t46.5 17.5q27 0 45 -17.5t18 -43.5q0 -27 -18 -44.5t-46 -17.5t-45.5 17.5t-17.5 44.5z" />
    <glyph glyph-name="ygrave.alt" horiz-adv-x="481" 
d="M352 503h124l-173 -507q-40 -118 -84 -169t-127 -51q-75 0 -135 36l30 87q50 -25 93 -25q31 0 49 15t35 59l23 60l-175 495h127l107 -340h4zM173 796l117 -192l-39 -33q-110 98 -127 115q-27 28 -27 50q0 40 76 60z" />
    <glyph glyph-name="ycircumflex.alt" horiz-adv-x="481" 
d="M352 503h124l-173 -507q-40 -118 -84 -169t-127 -51q-75 0 -135 36l30 87q50 -25 93 -25q31 0 49 15t35 59l23 60l-175 495h127l107 -340h4zM115 582l-41 32q61 90 103 140q27 33 55 33q17 0 28 -7t27 -25q55 -66 104 -140l-41 -34l-118 104z" />
    <glyph glyph-name="amacron.alt" horiz-adv-x="512" 
d="M88 394l-26 88q32 13 87.5 24.5t104.5 11.5q95 0 135.5 -41t40.5 -142v-231q0 -35 26 -35q14 0 39 12l14 -69q-41 -24 -91 -24q-66 0 -82 61q-69 -63 -155 -63q-71 0 -108.5 41t-37.5 114q0 165 202 165q38 0 77 -6v40q0 49 -19.5 68.5t-58.5 19.5q-71 0 -148 -34z
M314 120v103q-38 7 -65 7q-47 0 -72.5 -16.5t-25.5 -62.5q0 -78 64 -78q52 0 99 47zM94 619v86h287v-86h-287z" />
    <glyph glyph-name="abreve.alt" horiz-adv-x="512" 
d="M88 394l-26 88q32 13 87.5 24.5t104.5 11.5q95 0 135.5 -41t40.5 -142v-231q0 -35 26 -35q14 0 39 12l14 -69q-41 -24 -91 -24q-66 0 -82 61q-69 -63 -155 -63q-71 0 -108.5 41t-37.5 114q0 165 202 165q38 0 77 -6v40q0 49 -19.5 68.5t-58.5 19.5q-71 0 -148 -34z
M314 120v103q-38 7 -65 7q-47 0 -72.5 -16.5t-25.5 -62.5q0 -78 64 -78q52 0 99 47zM331 751l71 -17q-40 -143 -166 -143q-70 0 -109.5 40.5t-53.5 102.5l74 17q15 -46 36.5 -65t55.5 -19q31 0 53.5 19t38.5 65z" />
    <glyph glyph-name="aogonek.alt" horiz-adv-x="512" 
d="M88 394l-26 88q32 13 87.5 24.5t104.5 11.5q95 0 135.5 -41t40.5 -142v-231q0 -35 26 -35q14 0 39 12l14 -69q-44 -31 -72 -68.5t-28 -68.5q0 -40 39 -40q23 0 48 11l24 -74q-42 -21 -98 -21q-61 0 -87 29t-26 69q0 75 73 146q-35 13 -46 54q-69 -63 -155 -63
q-71 0 -108.5 41t-37.5 114q0 165 202 165q38 0 77 -6v40q0 49 -19.5 68.5t-58.5 19.5q-71 0 -148 -34zM314 120v103q-38 7 -65 7q-47 0 -72.5 -16.5t-25.5 -62.5q0 -78 64 -78q52 0 99 47z" />
    <glyph glyph-name="emacron.alt" horiz-adv-x="491" 
d="M276 518q-115 0 -177.5 -77.5t-62.5 -193.5q0 -123 59.5 -192.5t178.5 -69.5q49 0 94 14t62.5 25t21.5 15l-39 81q-59 -44 -126 -44q-64 0 -98 39t-36 107h285q18 61 18 115q0 82 -47.5 131.5t-132.5 49.5zM269 433q40 0 58.5 -24.5t18.5 -61.5q0 -30 -5 -50h-187
q5 57 33.5 96.5t81.5 39.5zM124 619v86h287v-86h-287z" />
    <glyph glyph-name="ebreve.alt" horiz-adv-x="491" 
d="M276 518q-115 0 -177.5 -77.5t-62.5 -193.5q0 -123 59.5 -192.5t178.5 -69.5q49 0 94 14t62.5 25t21.5 15l-39 81q-59 -44 -126 -44q-64 0 -98 39t-36 107h285q18 61 18 115q0 82 -47.5 131.5t-132.5 49.5zM269 433q40 0 58.5 -24.5t18.5 -61.5q0 -30 -5 -50h-187
q5 57 33.5 96.5t81.5 39.5zM365 751l71 -17q-40 -143 -166 -143q-70 0 -109.5 40.5t-53.5 102.5l74 17q15 -46 36.5 -65t55.5 -19q31 0 53.5 19t38.5 65z" />
    <glyph glyph-name="edotaccent.alt" horiz-adv-x="491" 
d="M276 518q-115 0 -177.5 -77.5t-62.5 -193.5q0 -123 59.5 -192.5t178.5 -69.5q49 0 94 14t62.5 25t21.5 15l-39 81q-59 -44 -126 -44q-64 0 -98 39t-36 107h285q18 61 18 115q0 82 -47.5 131.5t-132.5 49.5zM269 433q40 0 58.5 -24.5t18.5 -61.5q0 -30 -5 -50h-187
q5 57 33.5 96.5t81.5 39.5zM202 647q0 28 19.5 47.5t49.5 19.5t49.5 -19.5t19.5 -47.5q0 -29 -19.5 -47.5t-49.5 -18.5q-31 0 -50 18.5t-19 47.5z" />
    <glyph glyph-name="eogonek.alt" horiz-adv-x="491" 
d="M375 -8q-33 -23 -55 -54.5t-22 -62.5q0 -40 39 -40q23 0 48 11l24 -74q-42 -21 -98 -21q-61 0 -87 29t-26 69q0 71 63 136q-113 4 -169 73t-56 189q0 116 62.5 193.5t177.5 77.5q85 0 132.5 -49.5t47.5 -131.5q0 -54 -18 -115h-285q2 -68 36 -107t98 -39q67 0 126 44
l39 -81l-10 -6q-11 -6 -30 -17.5t-37 -23.5zM269 433q-53 0 -81.5 -39.5t-33.5 -96.5h187q5 20 5 50q0 37 -18.5 61.5t-58.5 24.5z" />
    <glyph glyph-name="ecaron.alt" horiz-adv-x="491" 
d="M276 518q-115 0 -177.5 -77.5t-62.5 -193.5q0 -123 59.5 -192.5t178.5 -69.5q49 0 94 14t62.5 25t21.5 15l-39 81q-59 -44 -126 -44q-64 0 -98 39t-36 107h285q18 61 18 115q0 82 -47.5 131.5t-132.5 49.5zM269 433q40 0 58.5 -24.5t18.5 -61.5q0 -30 -5 -50h-187
q5 57 33.5 96.5t81.5 39.5zM383 786l41 -32q-61 -90 -103 -140q-27 -33 -55 -33q-17 0 -28 7t-27 25q-55 66 -104 140l41 34l118 -104z" />
    <glyph glyph-name="gcircumflex.alt" horiz-adv-x="489" 
d="M419 334q0 -82 -53 -125.5t-132 -43.5q-18 0 -38 3l-19 -56l105 -16q54 -8 85.5 -16t63 -24t46 -43t14.5 -66q0 -74 -62 -122.5t-182 -48.5q-216 0 -216 128q0 41 23 70t61 56q-43 14 -43 45q0 13 14 44l31 70q-75 44 -75 149q0 83 52 131.5t135 48.5q67 0 113 -27
l143 19v-95l-89 4l-2 -4q25 -36 25 -81zM273 0l-80 11q-59 -43 -59 -90q0 -66 122 -66q54 0 88 22.5t34 61.5q0 26 -23 40t-82 21zM232 235q35 0 57 27t22 73q0 54 -20.5 83t-58.5 29q-35 0 -56.5 -27t-21.5 -76q0 -109 78 -109zM117 582l-41 32q61 90 103 140q27 33 55 33
q17 0 28 -7t27 -25q55 -66 104 -140l-41 -34l-118 104z" />
    <glyph glyph-name="gbreve.alt" horiz-adv-x="489" 
d="M419 334q0 -82 -53 -125.5t-132 -43.5q-18 0 -38 3l-19 -56l105 -16q54 -8 85.5 -16t63 -24t46 -43t14.5 -66q0 -74 -62 -122.5t-182 -48.5q-216 0 -216 128q0 41 23 70t61 56q-43 14 -43 45q0 13 14 44l31 70q-75 44 -75 149q0 83 52 131.5t135 48.5q67 0 113 -27
l143 19v-95l-89 4l-2 -4q25 -36 25 -81zM273 0l-80 11q-59 -43 -59 -90q0 -66 122 -66q54 0 88 22.5t34 61.5q0 26 -23 40t-82 21zM232 235q35 0 57 27t22 73q0 54 -20.5 83t-58.5 29q-35 0 -56.5 -27t-21.5 -76q0 -109 78 -109zM325 751l71 -17q-40 -143 -166 -143
q-70 0 -109.5 40.5t-53.5 102.5l74 17q15 -46 36.5 -65t55.5 -19q31 0 53.5 19t38.5 65z" />
    <glyph glyph-name="gdotaccent.alt" horiz-adv-x="489" 
d="M419 334q0 -82 -53 -125.5t-132 -43.5q-18 0 -38 3l-19 -56l105 -16q54 -8 85.5 -16t63 -24t46 -43t14.5 -66q0 -74 -62 -122.5t-182 -48.5q-216 0 -216 128q0 41 23 70t61 56q-43 14 -43 45q0 13 14 44l31 70q-75 44 -75 149q0 83 52 131.5t135 48.5q67 0 113 -27
l143 19v-95l-89 4l-2 -4q25 -36 25 -81zM273 0l-80 11q-59 -43 -59 -90q0 -66 122 -66q54 0 88 22.5t34 61.5q0 26 -23 40t-82 21zM232 235q35 0 57 27t22 73q0 54 -20.5 83t-58.5 29q-35 0 -56.5 -27t-21.5 -76q0 -109 78 -109zM161 647q0 28 19.5 47.5t49.5 19.5
t49.5 -19.5t19.5 -47.5q0 -29 -19.5 -47.5t-49.5 -18.5q-31 0 -50 18.5t-19 47.5z" />
    <glyph glyph-name="gcommaaccent.alt" horiz-adv-x="489" 
d="M419 334q0 -82 -53 -125.5t-132 -43.5q-18 0 -38 3l-19 -56l105 -16q54 -8 85.5 -16t63 -24t46 -43t14.5 -66q0 -74 -62 -122.5t-182 -48.5q-216 0 -216 128q0 41 23 70t61 56q-43 14 -43 45q0 13 14 44l31 70q-75 44 -75 149q0 83 52 131.5t135 48.5q67 0 113 -27
l143 19v-95l-89 4l-2 -4q25 -36 25 -81zM273 0l-80 11q-59 -43 -59 -90q0 -66 122 -66q54 0 88 22.5t34 61.5q0 26 -23 40t-82 21zM232 235q35 0 57 27t22 73q0 54 -20.5 83t-58.5 29q-35 0 -56.5 -27t-21.5 -76q0 -109 78 -109zM318 773l-59 -199q-26 2 -41.5 4.5
t-31.5 13.5t-16 29q0 19 16 47q13 24 84 128z" />
    <glyph glyph-name="kcommaaccent.alt" horiz-adv-x="503" 
d="M181 695v-499h5l181 307h125l-136 -224l132 -279h-126l-85 180l-109 -180h-104v695h117zM212 -61l-59 -198l47 -23q68 100 84 129q16 28 16 47q0 14 -8 23.5t-23.5 13.5t-26.5 5.5t-30 2.5z" />
    <glyph glyph-name="wcircumflex.alt" horiz-adv-x="721" 
d="M580 503h129l-126 -503h-139l-83 340h-1l-84 -340h-136l-128 503h133l75 -362h2l89 362h103l90 -363h2zM231 582l-41 32q61 90 103 140q27 33 55 33q17 0 28 -7t27 -25q55 -66 104 -140l-41 -34l-118 104z" />
    <glyph glyph-name="wgrave.alt" horiz-adv-x="721" 
d="M580 503h129l-126 -503h-139l-83 340h-1l-84 -340h-136l-128 503h133l75 -362h2l89 362h103l90 -363h2zM313 796l117 -192l-39 -33q-110 98 -127 115q-27 28 -27 50q0 40 76 60z" />
    <glyph glyph-name="wacute.alt" horiz-adv-x="721" 
d="M580 503h129l-126 -503h-139l-83 340h-1l-84 -340h-136l-128 503h133l75 -362h2l89 362h103l90 -363h2zM258 604l116 192q76 -20 76 -60q0 -20 -27 -49q-11 -12 -126 -116z" />
    <glyph glyph-name="wdieresis.alt" horiz-adv-x="721" 
d="M580 503h129l-126 -503h-139l-83 340h-1l-84 -340h-136l-128 503h133l75 -362h2l89 362h103l90 -363h2zM402 666q0 26 17.5 43.5t45.5 17.5q27 0 45 -17.5t18 -43.5q0 -27 -17.5 -44.5t-45.5 -17.5q-29 0 -46 17.5t-17 44.5zM204 666q0 26 17.5 43.5t46.5 17.5
q27 0 45 -17.5t18 -43.5q0 -27 -18 -44.5t-46 -17.5t-45.5 17.5t-17.5 44.5z" />
    <glyph glyph-name="zacute.alt" horiz-adv-x="441" 
d="M426 0h-401v76l248 334h-231v93h376v-72l-251 -337h259v-94zM168 604l116 192q76 -20 76 -60q0 -20 -27 -49q-11 -12 -126 -116z" />
    <glyph glyph-name="zdotaccent.alt" horiz-adv-x="441" 
d="M426 0h-401v76l248 334h-231v93h376v-72l-251 -337h259v-94zM164 647q0 28 19.5 47.5t49.5 19.5t49.5 -19.5t19.5 -47.5q0 -29 -19.5 -47.5t-49.5 -18.5q-31 0 -50 18.5t-19 47.5z" />
    <glyph glyph-name="zcaron.alt" horiz-adv-x="441" 
d="M426 0h-401v76l248 334h-231v93h376v-72l-251 -337h259v-94zM350 786l41 -32q-61 -90 -103 -140q-27 -33 -55 -33q-17 0 -28 7t-27 25q-55 66 -104 140l41 34l118 -104z" />
    </font>
</defs>
</svg>
