<?xml version="1.0" standalone="no"?>
<!DOCTYPE svg PUBLIC "-//W3C//DTD SVG 1.1//EN" "http://www.w3.org/Graphics/SVG/1.1/DTD/svg11.dtd" >
<svg xmlns="http://www.w3.org/2000/svg" xmlns:xlink="http://www.w3.org/1999/xlink" version="1.1">
<metadata>
Created by FontForge 20170731 at Mon Jan 22 02:24:45 2018
 By Aleksey,,,
Copyright (c) 2017 by Letterhend Studio. All rights reserved.
</metadata>
<defs>
<font id="DearJane" horiz-adv-x="439" >
  <font-face 
    font-family="Dear Jane"
    font-weight="400"
    font-stretch="normal"
    units-per-em="1000"
    panose-1="0 0 0 0 0 0 0 0 0 0"
    ascent="800"
    descent="-200"
    x-height="486"
    cap-height="828"
    bbox="-693.1 -553.818 1929.85 1063.17"
    underline-thickness="50"
    underline-position="-150"
    unicode-range="U+000D-007E"
  />
<missing-glyph 
 />
    <glyph glyph-name=".notdef" 
 />
    <glyph glyph-name=".null" horiz-adv-x="0" 
 />
    <glyph glyph-name="nonmarkingreturn" unicode="&#xd;" 
 />
    <glyph glyph-name="NULL" horiz-adv-x="0" 
 />
    <glyph glyph-name="NULL" horiz-adv-x="0" 
 />
    <glyph glyph-name="space" unicode=" " 
 />
    <glyph glyph-name="exclam" unicode="!" horiz-adv-x="271" 
d="M230 866q5 11 13.5 14t16.5 0.5t14 -10t8 -17.5q3 -20 -1 -42.5t-6 -42.5q-3 -20 -6 -39.5t-8 -39.5q-7 -39 -13.5 -77.5t-14.5 -77.5l-35 -156q-4 -16 -8 -36t-10.5 -39.5t-16.5 -35.5t-26 -23q-7 -2 -13.5 2t-11.5 9q-11 16 -9 37.5t6 40.5q3 19 7.5 37t8.5 36
q10 38 18.5 76.5t16.5 76.5q9 40 17.5 78.5t16.5 78.5l15 74q4 20 8 39.5t13 36.5zM95 151q11 4 22 -4.5t11 -21.5q-1 -26 -22 -43t-44 -20q-8 -1 -13.5 3.5t-8 11.5t-2 15t5.5 13q6 7 12 12l5 5l5 4q6 7 12.5 13.5t16.5 11.5z" />
    <glyph glyph-name="quotedbl" unicode="&#x22;" horiz-adv-x="194" 
d="M-5 688q-3 8 1 15t10.5 10t13.5 1.5t11 -9.5q18 -42 27 -87t-4 -90q-3 -11 -12 -15.5t-18.5 -3.5t-16 7t-5.5 18q4 39 5.5 77.5t-12.5 76.5zM73 756q-3 8 0 13t8.5 7.5t12 1t10.5 -6.5q12 -18 25.5 -41t21 -48.5t6.5 -50t-17 -45.5q-5 -7 -13 -8t-15 2t-12 9.5t-5 14.5
q1 20 4.5 36.5t-0.5 36.5q-4 21 -11 40t-15 39z" />
    <glyph glyph-name="numbersign" unicode="#" horiz-adv-x="608" 
d="M502 460q13 -1 24.5 -2t19.5 -12q5 -6 6 -14.5t-6 -13.5q-11 -10 -22.5 -10.5t-25.5 1.5l-53 4l-48 -87q-5 -7 -8.5 -13.5t-7.5 -13.5q14 0 27.5 -1t27.5 -3q11 -2 16 -11.5t4 -19.5q-2 -11 -9 -17t-18 -7q-20 -2 -41 -1.5t-41 2.5q-8 -14 -17 -27.5t-17 -27.5
q-11 -17 -21.5 -33.5t-21.5 -33.5t-22.5 -35t-26.5 -32q-7 -6 -16.5 -6.5t-17 3.5t-11.5 11.5t0 18.5q8 20 19.5 37t23.5 34q11 16 22 32.5t22 33.5q5 7 9 13.5t8 13.5l-43 2q-23 1 -45 1.5t-45 2.5l-12 -21q-11 -17 -21 -33.5t-20 -33.5q-11 -16 -21.5 -34.5t-29.5 -24.5
q-11 -3 -17.5 3.5t-8.5 16.5q-2 20 11 39t24 35q8 14 17 28.5t18 28.5q-11 2 -20.5 3.5t-18.5 5.5q-11 5 -11.5 17t11.5 16q16 6 34 7t35 1l61 101l14 24l-85 5q-8 0 -12 5.5t-4 11.5t4 11.5t12 5.5q27 1 54.5 2t55.5 1l126 222q4 8 11 9t13 -3t9 -11t-1 -15
q-25 -51 -50.5 -101t-52.5 -101h30t30 -1q20 -1 39 -1.5t39 -2.5q23 44 46 86.5t47 86.5q4 8 12 9.5t15 -1.5t11 -9.5t1 -15.5q-17 -42 -34.5 -81t-37.5 -78zM315 300l32 52l37 65l-52 3l-85 5q-7 -13 -13.5 -25.5t-14.5 -25.5l-20 -36t-21 -36h63z" />
    <glyph glyph-name="dollar" unicode="$" horiz-adv-x="460" 
d="M361 628q37 -9 62 -39q5 -6 4.5 -13t-4.5 -12t-10.5 -7.5t-12.5 1.5q-30 17 -59 18l-46 -108t-45 -108q10 -11 20 -22.5t19 -23.5q15 -20 23.5 -44.5t9 -50.5t-6.5 -51t-23 -45q-29 -36 -70 -45t-83 1q-7 -19 -15.5 -38.5t-23.5 -31.5q-9 -8 -20 -3t-13 17q-2 19 4 39
t14 38q-23 11 -47 26.5t-39 35.5q-7 9 -10.5 21.5t-3 24.5t7 22.5t18.5 16.5q7 4 13.5 -0.5t7.5 -12.5q2 -14 10 -25t18.5 -19.5t22.5 -15.5t23 -13q1 0 1 -0.5t1 -0.5q5 11 9 22l8 22l57 140l-6 10q-26 47 -36 97q-5 25 -6 54t16 50q15 20 39.5 33t45.5 23q34 17 71 20
q12 26 25 50.5t27 48.5q5 8 12 10t13 -0.5t9.5 -9.5t0.5 -16q-8 -22 -15.5 -43.5t-16.5 -42.5zM207 140q21 6 33.5 21t16 34t-0.5 39.5t-16 36.5q-4 6 -8 11.5t-9 10.5l-45 -112l-16 -42q24 -5 45 1zM196 502q1 -21 5.5 -41.5t12.5 -39.5q15 35 30 71t31 71q-24 -10 -48 -26
q-11 -7 -21 -13.5t-10 -21.5z" />
    <glyph glyph-name="percent" unicode="%" horiz-adv-x="508" 
d="M405 724q4 6 11.5 7.5t14 -0.5t10 -8t0.5 -14q-15 -45 -38.5 -86.5t-46.5 -81.5q-47 -80 -100 -161l-106 -158l-54 -81q-14 -20 -28 -39t-34 -33q-6 -5 -13 -4t-12 5.5t-7.5 11t-0.5 13.5q6 23 19.5 43t27.5 40l55 81q26 38 51.5 75t51.5 75q26 39 51.5 78t50.5 78
q24 40 47 80.5t50 78.5zM412 315q15 -13 22.5 -30t10 -36t0.5 -38.5t-6 -36.5q-8 -37 -29 -70t-52 -56q-15 -11 -33.5 -12t-29.5 17q-10 15 -8.5 35.5t3.5 37.5q4 36 12 70.5t19 68.5q-2 2 -4 6q-8 18 2 34t28 22q17 6 34 2.5t31 -14.5zM93 460q-20 6 -30.5 24t-15.5 36
q-9 45 -2.5 91.5t32.5 84.5q5 6 11.5 7.5t12.5 -0.5q21 8 42.5 1t31.5 -32q17 -40 11 -87.5t-28 -84.5q-11 -18 -26.5 -32.5t-38.5 -7.5zM363 122q17 25 26 54.5t7 60.5q-2 11 -6 25t-16 18q-3 1 -9 1q-20 -68 -27 -137q-1 -9 -1.5 -18t-0.5 -18q-1 -3 -0.5 -7t0.5 -9
q3 5 8 8q5 5 10 10.5t9 11.5zM135 629q-1 4 -1.5 9.5t-2 10.5t-4.5 7.5t-9 0.5q-5 -2 -9 -6t-9 -8q-9 -35 -9 -70q1 -13 2.5 -26.5t6.5 -25.5l6 -9q0 2 2 2l6 11q14 23 19.5 50.5t1.5 53.5z" />
    <glyph glyph-name="quotesingle" unicode="'" horiz-adv-x="131" 
d="M20 705q25 -13 38 -40.5t17 -54.5q2 -14 1.5 -29.5t-4 -30.5t-10.5 -28t-19 -21q-8 -5 -15 -4t-12.5 5.5t-8.5 12t-2 15.5q2 11 6 20t6 19q4 17 4 38q-1 21 -8 37.5t-17 34.5q-7 12 2.5 22t21.5 4z" />
    <glyph glyph-name="asterisk" unicode="*" horiz-adv-x="249" 
d="M137 627q7 -3 20 -7.5t24 -11t16.5 -16t-1.5 -21.5q-6 -9 -15.5 -10.5t-21 2t-23 9.5t-20.5 11q0 -20 -2.5 -42t-19.5 -31q-7 -4 -14 -3t-12.5 4.5t-8 10.5t-0.5 15q3 14 4.5 29t3.5 30q-26 -19 -53 -29q-5 -2 -9.5 0t-7 6.5t-2.5 9.5t4 9q10 10 21.5 18.5t23.5 16.5
q-15 10 -29 23q-6 5 -6 10.5t3.5 9.5t9 6t11.5 0l40 -18q2 15 3.5 30t3.5 30q1 10 7.5 15t14 5t13 -5t5.5 -15q0 -11 -0.5 -21.5t-0.5 -21.5q5 3 9.5 6t9.5 7q11 7 23 14.5t26 5.5q5 -1 8.5 -4.5t1.5 -8.5q-5 -13 -13.5 -20t-19.5 -15q-11 -7 -20.5 -13.5t-20.5 -12.5l14 -7
v0z" />
    <glyph glyph-name="plus" unicode="+" horiz-adv-x="452" 
d="M396 428q8 -6 7.5 -17.5t-6.5 -18.5q-8 -8 -18.5 -11.5t-22.5 -4.5t-24 -1t-22 -1l-58 -5q-4 -28 -7.5 -55.5t-6.5 -56.5q-2 -14 -3 -29.5t-3 -31.5t-7 -30t-14 -24q-8 -9 -21 -8t-18 12q-7 13 -8 28t0.5 31t4.5 31.5t5 29.5q3 25 6.5 49.5t7.5 49.5q-17 -1 -33 -2
t-32 -1q-22 -1 -45 -2.5t-43 7.5q-11 5 -10 17t9 17q18 12 42.5 13.5t45.5 3.5q19 2 37.5 4t37.5 4l12 75q5 29 10 60t16 59q3 9 10 13t14 3.5t12.5 -6t5.5 -15.5q2 -30 -2 -61t-8 -60l-8 -63q13 2 25 2.5t25 1.5q11 2 23 2.5t23 1.5q14 1 22 -1t19 -10z" />
    <glyph glyph-name="comma" unicode="," horiz-adv-x="96" 
d="M19 186q-3 20 7 27t24 4t26.5 -14t14.5 -27q3 -28 -36 -73q-6 -7 -12.5 -16.5t-13.5 -17.5t-15.5 -12.5t-19.5 -1.5q-5 2 -7 7t-2 10q1 9 5.5 17t10.5 16l12 16q6 15 8 31.5t-2 33.5z" />
    <glyph glyph-name="hyphen" unicode="-" horiz-adv-x="554" 
d="M464 385q11 0 18.5 -8t9 -18t-2.5 -19t-16 -11q-44 -8 -88 -9t-88 -3q-23 -1 -45.5 -2t-45.5 0q-10 1 -19.5 0.5t-19.5 1.5h-11t-11 2t-8 5.5t-8 5.5q-6 3 -6.5 11.5t5.5 11.5q5 2 8 5.5t8 5.5t11 2t11 1l39 2q22 2 43.5 2t43.5 2q43 2 86 6.5t86 5.5z" />
    <glyph glyph-name="period" unicode="." horiz-adv-x="118" 
d="M70 169q2 -5 1.5 -8.5t-1.5 -6.5q7 -16 3 -28q-3 -10 -16 -17h1q-8 -5 -19.5 -5t-22.5 5q-11 8 -13 22.5t3 28.5q4 8 13.5 15.5t18.5 10.5h-1q11 4 20 -1.5t13 -14.5v-1z" />
    <glyph glyph-name="slash" unicode="/" horiz-adv-x="691" 
d="M645 624q7 3 12.5 1.5t9 -6.5t3.5 -11.5t-5 -12.5q-10 -11 -31 -30.5t-48 -43.5t-56.5 -49.5t-57 -48.5t-49.5 -41.5t-33 -28.5q-34 -29 -68 -59t-66 -60q-34 -30 -66.5 -60.5t-64.5 -61.5l-67 -65q-15 -16 -32 -33.5t-37 -25.5q-8 -3 -15.5 -0.5t-13 8.5t-7.5 14t1 16
q9 23 27.5 39.5t34.5 33.5q17 16 32.5 31.5t31.5 29.5q68 64 136 124q35 29 69.5 59t70.5 58q12 9 34 27.5t50 41t58.5 47t58.5 46t51.5 38t36.5 23.5z" />
    <glyph glyph-name="zero" unicode="0" horiz-adv-x="576" 
d="M440 726q23 -19 36 -43t18.5 -50.5t5 -55t-3.5 -55.5q-14 -105 -51.5 -204t-99.5 -186q-29 -42 -65.5 -81t-84.5 -58t-92.5 -1t-70.5 60q-15 24 -22.5 50.5t-9 54.5t1.5 55.5t9 54.5q23 106 67 201q44 97 108 182l32 40t35 37q-3 6 -2 12.5t9 11.5q21 12 45 15t48 -1
t46.5 -14t40.5 -25zM444 549q4 39 -4 78.5t-43 63.5q-20 14 -42.5 18t-45.5 6q-16 -8 -28.5 -23t-22.5 -28q-32 -39 -60 -81q-54 -85 -90 -178q-16 -42 -28.5 -85.5t-20.5 -88.5q-3 -21 -4.5 -44t1.5 -45t11.5 -42.5t24.5 -36.5q22 -23 45.5 -24.5t47 10t46 33t42 45.5
t34.5 47.5t25 39.5q46 76 75 161t37 174z" />
    <glyph glyph-name="one" unicode="1" horiz-adv-x="187" 
d="M268 749q-4 -25 -11.5 -49.5t-14.5 -47.5l-28 -97l-56 -189q-14 -48 -28 -94.5t-28 -94.5q-8 -24 -15 -48l-14 -48q-4 -11 -7 -21.5t-6 -21.5q-3 -12 -5 -24.5t-8 -23.5q-4 -7 -10.5 -9.5t-13.5 -1.5t-12.5 5.5t-7.5 11.5q-4 11 -3 23.5t4 25t7 24.5t7 23q8 24 15 48
l14 48q15 48 29.5 96.5t28.5 96.5q15 49 30.5 97.5t30.5 98.5q8 24 15 48l14 48q2 4 3 7.5t2 8.5q-25 -17 -54 -26q-7 -2 -12 1t-7 8t-0.5 11t7.5 9q26 15 50.5 32.5t42.5 41.5q6 8 13.5 10t14.5 -1t10.5 -10t2.5 -16z" />
    <glyph glyph-name="two" unicode="2" horiz-adv-x="547" 
d="M501 48q9 -6 11 -17t-1 -20t-11.5 -14t-20.5 0q-27 11 -53.5 22.5t-54.5 21.5q-53 18 -107 27q-111 18 -224 -2q-14 -3 -23.5 4.5t-12.5 18t1.5 21t18.5 14.5q50 14 89.5 47.5t74.5 70.5q36 39 70 79.5t66 83.5q30 39 59.5 81t45.5 90q6 18 9.5 42.5t1 48t-14 42
t-35.5 24.5q-22 6 -44 -1t-40 -18q-9 -5 -19.5 -11t-20 -13.5t-16.5 -16.5t-8 -20q-1 -8 -6.5 -12t-12 -4t-11 4t-4.5 12q1 32 21 54t43 39q25 17 55 29.5t61 9.5t53.5 -19.5t35.5 -41t18 -53.5t2 -57q-8 -63 -39.5 -116.5t-67.5 -102.5q-38 -53 -78.5 -102t-85.5 -97
q-30 -33 -61 -60q26 0 52.5 -1.5t53.5 -6.5q58 -8 119.5 -26.5t110.5 -53.5z" />
    <glyph glyph-name="three" unicode="3" horiz-adv-x="470" 
d="M327 541q-13 -12 -29.5 -27t-19.5 -33q-3 -15 10 -27.5t24 -20.5q30 -26 53 -58.5t35.5 -69t13 -75.5t-14.5 -78q-14 -36 -38 -66t-55 -50t-67.5 -29.5t-75.5 -4.5q-38 5 -73 21.5t-61 45.5q-13 15 -22 33t-7 38q2 18 11 32t27 19q9 2 17.5 -4.5t4.5 -17.5q-5 -13 0 -26
t15.5 -24t23 -20t21.5 -14q27 -14 58 -17t61 6q28 9 50 27.5t36.5 43t20.5 52.5t3 57q-9 64 -53 109q-11 11 -22.5 21t-22.5 20.5t-20 23t-13 27.5q-7 25 -1 45t19.5 36.5t31.5 31.5l36 30t32 31.5t20 36.5q4 11 4 24t-8 24q-9 11 -23.5 14.5t-28.5 4.5q-75 3 -141 -34
q-9 -5 -17 -2t-12 10t-3 15.5t10 14.5q41 26 89 38.5t96 6.5q47 -6 72.5 -37.5t18.5 -79.5q-6 -41 -31.5 -69.5t-54.5 -54.5z" />
    <glyph glyph-name="four" unicode="4" horiz-adv-x="422" 
d="M393 747q4 9 11.5 11t14.5 -1.5t11.5 -10.5t3.5 -16q-9 -46 -22.5 -90.5t-27.5 -89.5t-27.5 -89t-27.5 -89t-28 -89.5t-28 -89.5q-7 -22 -14 -43.5t-13 -44.5q-6 -22 -8.5 -42.5t-3.5 -43.5q-1 -14 -10.5 -22.5t-21 -10.5t-22 3.5t-12.5 20.5q-4 24 -2 47.5t8 47
t13.5 46.5t15.5 45l61 185q2 7 4 13l4 12q-11 -6 -22 -10l-22 -8q-20 -8 -41 -13t-42 -9q-17 -3 -41.5 -8t-47.5 -3.5t-39.5 12t-16.5 38.5q-1 22 10 44.5t19 42.5q8 23 17 45l18 44q8 21 17.5 42t18.5 42q10 23 19.5 46t23.5 44q6 9 14 10.5t15.5 -1.5t12 -10.5t2.5 -17.5
q-5 -20 -12.5 -38.5t-14.5 -36.5l-29 -75l-54 -143l-8 -21q0 -2 -1 -3q6 0 14 2q18 2 35.5 5t34.5 8q36 9 72 21q17 6 33.5 10t33.5 0h1l34 101q16 46 31.5 91.5t35.5 89.5z" />
    <glyph glyph-name="five" unicode="5" horiz-adv-x="421" 
d="M496 704q9 -5 9 -16t-9 -16q-20 -11 -44 -12.5t-47 -0.5t-44.5 3t-44.5 5q-83 11 -160 33q-8 -20 -14 -39t-12 -39q-10 -32 -17.5 -65t-9.5 -65q-1 -23 4.5 -46t19.5 -41q16 -18 37 -24t43 -12q23 -6 43 -17t34 -31t17.5 -43t-0.5 -46q-4 -25 -15.5 -47t-28 -41.5
t-36 -36.5t-37.5 -32q-18 -14 -42 -27t-49.5 -18.5t-49 0.5t-40.5 30q-7 10 0 22t18 11q26 -3 50 -3.5t47 13.5q22 12 41.5 29.5t37.5 34.5q11 11 24 28.5t20 36.5t5 37t-21 32q-17 11 -38 14.5t-41 11.5q-21 8 -38 20t-30 31q-29 42 -28.5 91t12.5 96q11 41 25 80t31 77
q-4 10 0.5 20.5t15.5 13.5q2 2 2 4q3 7 9.5 9t13 0.5t11.5 -6.5t5 -11q73 -15 149 -24q22 -2 44 -3.5t44 -3.5q21 -2 43.5 -4t40.5 -13z" />
    <glyph glyph-name="six" unicode="6" horiz-adv-x="515" 
d="M201 417q25 7 54.5 13t58 5.5t54.5 -11t45 -35.5q15 -20 21 -43.5t5.5 -48t-6 -49t-13.5 -46.5q-19 -48 -50.5 -89t-71.5 -73q-20 -17 -44 -31.5t-49.5 -22t-52 -7t-52.5 12.5q-48 23 -70.5 70t-23.5 97q-1 24 2.5 48.5t8.5 48.5q-10 5 -15 16t1 22q16 25 39 45l12 31
q18 50 41.5 96t52.5 91q57 87 133 160q17 17 38.5 36t44.5 27q22 7 42.5 -0.5t28.5 -29.5q2 -6 -0.5 -11t-7 -7.5t-10.5 -2.5t-10 5q-8 9 -18.5 6t-21 -11.5t-19.5 -18.5t-14 -15q-17 -17 -33 -34t-31 -35q-31 -36 -57 -75t-48 -81q-11 -20 -20.5 -40t-18.5 -40q19 8 38 15
t37 12zM378 254q4 16 5.5 35.5t-2 36.5t-14.5 30.5t-31 18.5q-19 5 -38.5 2.5t-37.5 -7.5q-43 -10 -79 -24q-25 -9 -46.5 -21t-41.5 -26q-11 -38 -19.5 -78t-3.5 -80q1 -17 7.5 -34t17 -31t25.5 -23.5t33 -10.5q21 -2 40.5 5t38 19t34.5 26t30 28q28 29 49.5 62.5t32.5 71.5
z" />
    <glyph glyph-name="seven" unicode="7" horiz-adv-x="328" 
d="M375 598q-28 -52 -58.5 -101.5t-60.5 -100.5l-3 -4q14 -3 23 -15q4 -6 0 -12q-8 -13 -22 -17t-30 -5q-22 -36 -42.5 -72.5t-39.5 -74.5q-13 -25 -24.5 -50.5t-21.5 -51.5q-5 -14 -10 -27.5t-10 -27.5q-5 -15 -9.5 -29.5t-17.5 -24.5t-26.5 -6.5t-19.5 18.5q-6 17 -1 33.5
t10 32.5q8 27 21 55q22 55 51 112q16 29 32 56.5t33 55.5h-72q-9 0 -13.5 5.5t-4.5 12.5t4.5 13t13.5 7q25 3 50 5.5t51 4.5q33 54 67.5 107t66.5 107l26 46t25 46q2 3 4 9q-5 -1 -12.5 -0.5t-9.5 0.5q-14 -2 -29 -2.5t-30 -1.5q-60 -4 -119.5 -2.5t-118.5 18.5
q-9 3 -11.5 9.5t-1 12.5t7.5 10.5t14 2.5q36 -8 73 -10t74.5 -0.5t74.5 4.5l74 6q14 2 29.5 2.5t26.5 -10.5q10 -8 12.5 -20t0.5 -24q-3 -14 -10 -28t-13 -27l-24 -47v0z" />
    <glyph glyph-name="eight" unicode="8" horiz-adv-x="566" 
d="M337 731q23 7 49 10.5t49.5 -1t42.5 -19t29 -41.5q9 -25 8 -52t-4 -52q-6 -60 -22 -113q-10 -32 -23 -65.5t-30 -63.5q8 -17 12 -35.5t3 -38.5q-1 -29 -12 -54t-28.5 -46.5t-39.5 -39.5t-43 -34q-45 -33 -97.5 -55.5t-109.5 -25.5q-26 -1 -53 6t-45 28q-18 20 -22 47
t4 53q8 29 25 54t35 48q17 23 35.5 44.5t38.5 41.5q21 20 43 39t46 36q8 6 16.5 11t17.5 10l-35 21q-23 14 -46.5 28.5t-40.5 35.5q-18 24 -16.5 51.5t18.5 50.5t40.5 40.5t47.5 32.5q26 14 52.5 26.5t54.5 21.5zM300 139q17 13 33.5 27.5t29.5 31t20.5 35.5t6.5 40l-10 -9
q-8 -7 -16 -7t-14 5t-8.5 13t1.5 17q5 11 11 22l12 22q-7 10 -15 19t-16 17l-5 -5q-10 -8 -20.5 -1t-5.5 19q-25 -6 -45.5 -24t-39.5 -35q-23 -21 -45 -43.5t-42 -46.5q-19 -23 -38 -49t-30 -54q-5 -11 -6 -24.5t5 -25.5q6 -11 17 -14.5t23 -4.5q54 -3 104.5 20t92.5 55z
M443 531q6 28 10.5 59.5t-0.5 59.5q-3 14 -10.5 21.5t-18 10t-22.5 2t-23 -3.5q-27 -6 -53 -17t-50 -24q-23 -13 -49.5 -29.5t-39.5 -40.5q-6 -11 -0.5 -21t16 -18.5t23 -15t20.5 -11.5q24 -15 48.5 -29.5t47.5 -31.5q14 -11 28 -23t26 -26l9 18q26 58 38 120z" />
    <glyph glyph-name="nine" unicode="9" horiz-adv-x="438" 
d="M433 666q2 -58 -2.5 -114.5t-13.5 -113.5q-8 -51 -20.5 -99.5t-29.5 -96.5q-15 -43 -33.5 -85t-45.5 -78q-26 -35 -59 -62t-75 -39q-41 -11 -82 -3t-67 44q-6 9 -4.5 17.5t8 14.5t16 7.5t17.5 -2.5q36 -20 75.5 -15t71.5 31q37 29 60.5 70t40.5 84q47 122 65 247
q-18 -22 -36 -38q-24 -21 -52 -38t-58.5 -26.5t-62.5 -9.5t-62 14q-28 13 -48 36.5t-25 53.5q-6 32 2 63.5t24 60.5q27 51 72 89t100 57q28 10 59.5 12.5t57.5 -15.5q23 -15 30 -40.5t-4 -49.5q-3 -8 -10.5 -9.5t-14 1.5t-10.5 9t-1 14q6 14 0 21.5t-17.5 11t-24.5 3
t-21 -2.5q-23 -6 -43.5 -17t-39.5 -25q-33 -23 -58.5 -57.5t-35.5 -74.5q-5 -19 -1.5 -38t19.5 -33q15 -12 33.5 -15.5t37.5 -1.5q43 6 80 33t63 59q51 65 59 146q1 16 11.5 24t22.5 8t22 -8t10 -24z" />
    <glyph glyph-name="colon" unicode=":" horiz-adv-x="241" 
d="M198 412q2 -2 2 -6q3 -25 -24 -41q-1 0 -1.5 -0.5t-1.5 -0.5q5 0 -1 -2q-14 -2 -30 7q-9 7 -12 19q-4 13 9 30q14 11 26 12h1q2 0 4 1q1 0 2.5 -0.5t3.5 -0.5q5 0 5 -5q0 4 1 4q12 -4 17 -20zM92 182q7 -4 12.5 -10t7.5 -15q1 -8 0 -17t-6 -14v2l-7 -9q-3 -5 -7 -9.5
t-20 -12.5q-10 -4 -25 7q-7 4 -15 21q0 -1 0.5 1t0.5 6q-1 5 1 10l4 10q0 1 1 3t1 3q5 10 10.5 16t13.5 9q15 4 28 -2v1z" />
    <glyph glyph-name="semicolon" unicode=";" horiz-adv-x="189" 
d="M46 155q-3 10 2 16.5t12.5 8t15.5 -1.5t11 -13q5 -18 5 -35q0 -30 -13 -59q-4 -9 -11 -20t-16 -19t-20 -12t-23 1q-10 5 -8 18q2 10 7 18t12 16q10 10 15 18h-1q8 15 11 31.5t1 32.5zM108 353q0 1 -0.5 1t-0.5 2q-1 3 -1 11q0 10 6 18t16 12.5t21 1.5q15 -6 20 -23
q2 -14 -4 -24h1q-4 -7 -15 -13q-1 0 -1.5 -0.5t-1.5 -0.5h2q-3 -2 -4.5 -2.5t-4.5 0.5q-6 -2 -9 -2q-10 2 -23 12q2 -2 -1 7z" />
    <glyph glyph-name="less" unicode="&#x3c;" horiz-adv-x="345" 
d="M55 356q7 14 21.5 25t25.5 20q12 12 25 23.5t26 22.5q26 23 51 46.5t53 43.5q11 7 21.5 5t16.5 -9.5t6 -18t-10 -20.5q-22 -22 -46 -41.5t-47 -39.5q-12 -11 -23.5 -20t-22.5 -20l-12 -10t-13 -11q-3 -2 -9 -9t-10 -8q0 -3 1 -5t3 -4l10 -27q5 -14 9.5 -28t8.5 -28
q17 -54 23 -109q0 -8 -4.5 -14t-10.5 -8.5t-12 -0.5t-9 10q-11 31 -20.5 61.5t-20.5 60.5q-5 15 -11 29.5t-12 28.5q-5 14 -10 27t2 28z" />
    <glyph glyph-name="equal" unicode="=" horiz-adv-x="372" 
d="M311 479q14 -1 21.5 -10.5t8 -21t-6.5 -21t-22 -10.5q-34 -2 -68.5 0t-68.5 3q-18 0 -35.5 0.5t-35.5 1.5q-16 1 -31.5 2t-29.5 8q-14 6 -10.5 20t14.5 19q15 7 33 7t35 1q16 1 31.5 1h31.5q33 0 66.5 1t66.5 -1zM278 353q14 -1 21.5 -10.5t8 -21t-6 -20.5t-21.5 -10
q-35 -3 -69 -1t-68 3q-18 0 -35.5 0.5t-35.5 1.5q-16 1 -31.5 2t-29.5 8q-7 3 -9.5 8.5t-1.5 11.5t5 11.5t10 8.5q15 6 33 6t35 1q16 1 31 1h31q33 0 67 1.5t66 -1.5z" />
    <glyph glyph-name="greater" unicode="&#x3e;" horiz-adv-x="314" 
d="M268 390q-3 -16 -15 -30t-21 -25q-9 -14 -19 -28l-20 -28q-20 -27 -39.5 -56t-42.5 -54q-9 -10 -19.5 -10t-18 6t-10 16t4.5 22q17 26 36 50.5t37 49.5q10 13 19 24.5t17 24.5q9 10 20 26q2 3 6.5 11t8.5 10q-1 3 -6 8l-16 24q-8 13 -15.5 25t-14.5 25q-14 24 -25.5 49.5
t-20.5 52.5q-2 7 1 14t8.5 10.5t11.5 3t11 -7.5q17 -28 33.5 -55.5t33.5 -54.5q8 -14 17 -26.5t18 -24.5l16 -24t4 -28z" />
    <glyph glyph-name="question" unicode="?" horiz-adv-x="309" 
d="M364 765q18 -16 29 -37.5t15.5 -45.5t2 -48t-12.5 -46q-11 -26 -29.5 -46t-38.5 -38t-38 -38t-34 -44q-17 -23 -29.5 -48t-23.5 -51q-5 -14 -10 -28.5t-9 -28.5q-5 -16 -8 -30t-13 -27q-9 -11 -24.5 -10t-20.5 16q-8 25 -2 50t16 48q15 46 39 90q24 42 53 78.5t66 68.5
q17 14 33 29.5t24 35.5q7 19 7.5 39t-7.5 38q-8 20 -22.5 32t-32 16t-36.5 -0.5t-35 -16.5q-11 -8 -20.5 2.5t-1.5 21.5q15 18 35.5 29.5t43 14t44.5 -3.5t40 -22zM120 121q10 6 18.5 4t14 -9t5 -16.5t-8.5 -16.5q-11 -11 -25 -20l-28 -18q-8 -5 -16 -3t-12.5 8t-4.5 14
t8 15l24 22t25 20z" />
    <glyph glyph-name="at" unicode="@" horiz-adv-x="540" 
d="M426 683q36 -36 51.5 -83t15 -96.5t-16 -98.5t-41.5 -90q-12 -20 -28 -40.5t-37 -29.5q-23 -11 -42 0.5t-24 36.5q-2 15 -1 31t4 32q-15 -15 -30 -26q-18 -15 -41 -27.5t-46 -9.5t-38 19.5t-20 40.5q-3 24 2.5 48.5t17 47.5t27 43.5t31.5 35.5q18 17 38.5 29.5t45.5 13.5
q22 0 38.5 -11.5t26.5 -30.5q1 -1 1 -3q6 4 13.5 3.5t13.5 -5t8.5 -12.5t-1.5 -17q-9 -26 -16.5 -52.5t-13.5 -53.5q-2 -14 -4.5 -27.5t-5.5 -27.5q0 -3 -2 -14t0 -17h1q1 0 1.5 0.5t1.5 0.5q3 2 5 3t4 3q4 3 7 7t6 7q8 10 14.5 19t12.5 19q24 39 34 81q8 33 6.5 70.5
t-13.5 71.5t-35.5 59.5t-59.5 34.5q-39 10 -71.5 -5t-59.5 -43.5t-47.5 -64t-33.5 -65.5q-17 -38 -32.5 -80t-24 -85.5t-7 -87t20.5 -83.5q16 -33 45.5 -53.5t65.5 -19.5q17 1 33 7t30 16q14 11 28.5 22t25.5 25q6 6 13.5 6.5t12.5 -3.5t7.5 -11t-0.5 -15q-10 -28 -26 -49
t-41 -35q-50 -28 -102 -24q-57 4 -98.5 43.5t-59.5 94.5q-17 54 -14 109.5t18 109.5q16 57 38.5 112.5t53.5 106.5q26 42 63 78t86 50q45 14 88.5 2.5t76.5 -43.5zM282 392q44 44 67 105q-10 -4 -18 5q-11 16 -27.5 14.5t-34.5 -14t-35 -33.5t-29.5 -43.5t-18 -44
t-0.5 -34.5q4 -12 18 -8.5t30 13.5t29.5 22.5t18.5 17.5z" />
    <glyph glyph-name="A" unicode="A" horiz-adv-x="1294" 
d="M1288 378q10 8 21 6t18 -9t8 -17t-9 -18q-66 -54 -145 -83.5t-163 -41.5q-32 -5 -62.5 -6.5t-62.5 -1.5q9 -76 44 -141q19 -35 45 -65t56 -56q8 -8 8.5 -19t-6.5 -19q-7 -10 -17 -11.5t-21 3.5q-46 20 -80 59t-56 84q-20 39 -31 81t-16 85q-46 2 -91 5.5t-91 7.5
q-29 3 -57.5 4.5t-57.5 2.5q-14 -22 -28.5 -43t-29.5 -42q-23 -32 -48.5 -66t-55.5 -64.5t-64 -54.5t-74 -36q-32 -10 -66 -8t-63.5 15t-52.5 36.5t-33 57.5q-14 43 -2.5 83.5t43.5 71.5q35 31 78 49t88 30q66 17 132 23.5t133 5.5q23 35 46.5 68t50.5 65t54.5 64t53.5 64
q55 68 110 134.5t115 129.5q10 10 21.5 10.5t20.5 -5.5t14.5 -16.5t2.5 -23.5q-11 -50 -22 -99t-22 -100q-17 -78 -28.5 -156.5t-7.5 -157.5q54 0 107 5t103.5 18t98.5 35t91 57zM286 30q48 42 84.5 93t71.5 105q-52 -2 -102.5 -8t-101.5 -19q-39 -9 -79 -24.5t-68 -41.5
q-13 -12 -19.5 -22.5t-10.5 -25.5q-1 -4 -1 -13.5t1 -13.5q2 -10 4 -19.5t7 -17.5q14 -25 40 -36t52 -11q35 -1 65.5 15t56.5 39zM645 278q42 -4 84 -7.5t86 -5.5q-2 37 0 74t7 73q8 64 21 126t27 125q-45 -52 -87.5 -104.5t-86.5 -105.5q-32 -38 -64.5 -75t-61.5 -78
l-11 -16z" />
    <glyph glyph-name="B" unicode="B" horiz-adv-x="1140" 
d="M1134 379q8 7 16.5 6t14.5 -6.5t6.5 -14t-6.5 -15.5q-63 -61 -133.5 -109t-157.5 -70q-45 -11 -89.5 -17.5t-89.5 -12.5v-1q-1 -47 -19.5 -90.5t-50.5 -76.5q-37 -38 -85 -56.5t-99 -26.5q-26 -4 -51.5 -1t-45.5 22q-17 17 -23.5 39.5t-2.5 45.5q3 25 16 46.5t31 39.5
t40 32t43 24q43 20 88 30.5t92 17.5q-8 29 -25 54t-40 45q-29 23 -62 36t-66 28q-15 7 -11.5 21.5t15.5 20.5q5 9 15.5 12.5t20.5 -2.5q12 -8 27 -6.5t29 4.5q23 6 45 13t44 16q37 14 72.5 33.5t64.5 46.5q25 22 41 50t15 62t-17.5 63.5t-40.5 52.5q-27 25 -59.5 40.5
t-68 23t-72 7.5t-71.5 -6q-66 -11 -133 -34t-127 -60t-107.5 -87.5t-72.5 -115.5q-4 -10 -12.5 -13t-16.5 -1t-12.5 8.5t-1.5 16.5q28 87 89 151.5t139 109.5q78 44 167.5 71t179.5 24q42 -1 83.5 -11t79 -29.5t68 -48t50.5 -66.5q23 -43 26 -89.5t-17 -91.5
q-17 -38 -47.5 -68t-65.5 -52q-38 -25 -79 -43t-84 -31q18 -13 31 -28q25 -25 42 -55t25 -64q38 5 75 9t74 12q37 7 72 18.5t69 29.5q43 23 81.5 53.5t74.5 63.5zM384 585q6 10 15.5 11.5t17.5 -3t12 -14t-2 -19.5q-75 -131 -116 -277q-10 -37 -18 -74t-13 -75
q-2 -17 -4 -35t-4 -35q-2 -20 -3 -38t-13 -34q-8 -9 -18.5 -6.5t-15.5 10.5q-11 17 -9 38.5t4 39.5q3 37 9 75q7 38 15.5 76t19.5 75q22 75 53 146.5t70 138.5zM596 28q17 22 26.5 48t11.5 54q-23 -4 -45.5 -8.5t-45.5 -10.5q-41 -11 -80.5 -30t-67.5 -53
q-11 -14 -18.5 -32.5t1.5 -35.5q5 -9 14 -12.5t18.5 -3.5t19.5 2t18 4q43 9 81.5 25.5t66.5 52.5z" />
    <glyph glyph-name="C" unicode="C" horiz-adv-x="1035" 
d="M1029 382q9 5 17.5 2.5t13.5 -9.5t5.5 -15.5t-6.5 -15.5q-63 -54 -131 -98.5t-140 -83.5q-74 -39 -149.5 -73t-154.5 -62q-65 -24 -134 -42q-38 -11 -77.5 -18t-78.5 -5q-33 2 -65 13.5t-57.5 31.5t-43.5 48t-24 63t-2.5 70.5t14 70t26 68t32.5 63.5q31 55 70.5 104.5
t84.5 93.5q47 44 98 82t106 70q60 35 126 66t136 41q27 4 61.5 3.5t66 -10.5t53.5 -31t23 -58q0 -18 -5.5 -34t-15 -31t-21 -28.5t-22.5 -25.5q-23 -26 -50 -48.5t-56 -41.5q-8 -5 -14.5 -2.5t-10 8.5t-2.5 13.5t8 12.5q62 42 105 100q8 11 17.5 24.5t14 28t1.5 28t-19 23.5
q-13 8 -29 12t-32.5 4.5t-33 -1.5t-30.5 -5q-37 -8 -72 -20.5t-68 -29.5q-101 -48 -191 -113.5t-162 -152.5q-35 -42 -64.5 -90t-49.5 -100q-11 -26 -19.5 -55t-9.5 -58t7.5 -56.5t32.5 -48.5t52.5 -28t59 -6t61 8t57.5 15q121 33 238 83q120 51 231.5 114.5t221.5 131.5z
" />
    <glyph glyph-name="D" unicode="D" horiz-adv-x="1229" 
d="M1229 382q7 4 14 2t11 -7.5t4.5 -12.5t-5.5 -13q-31 -30 -67 -54.5t-73 -45.5q-79 -44 -163 -74q-39 -14 -79.5 -23.5t-82.5 -13.5q-10 -1 -19 -1h-19q-16 -20 -33.5 -38.5t-37.5 -35.5q-61 -53 -131 -89q-35 -17 -72 -31t-75 -19q-34 -4 -69.5 2.5t-62.5 29.5
q-15 13 -23 30t-9 35.5t4 37t17 33.5q26 35 65.5 56t81.5 32t86 14.5t88 3.5q32 0 63 -1t63 -2q33 44 58 92.5t39 101.5q10 35 14.5 72.5t1 74t-17.5 70t-42 61.5q-53 52 -125 69t-144 7l-41 -66q-51 -85 -94.5 -174t-78.5 -183q-18 -48 -32.5 -96t-28.5 -97l-26 -96
q-7 -24 -13 -49t-20 -47q-8 -12 -23.5 -11t-19.5 17q-7 30 -1.5 60t10.5 60q10 54 27 109q43 148 106.5 287t148.5 267q-118 -34 -216 -101q-28 -19 -54 -42.5t-46 -51t-32.5 -59t-12.5 -67.5q0 -10 -6.5 -15t-14 -5t-14 5t-6.5 15q-3 39 6 75q10 39 30.5 72.5t48 62
t59.5 52.5t65 43q57 33 120 59.5t129 38.5q18 24 36.5 47.5t37.5 46.5q7 9 17.5 8t18 -7t10.5 -15.5t-4 -18.5l-38 -52h18t18 -1q40 -2 80.5 -12t76.5 -28.5t66.5 -45.5t52.5 -62q24 -38 33.5 -82t9 -89t-10.5 -89.5t-25 -84.5q-12 -33 -27.5 -64t-34.5 -60q33 3 65.5 9.5
t64.5 16.5q84 27 157.5 69t147.5 88zM444 7q60 20 112.5 53.5t97.5 78.5q-12 1 -24 1h-24q-39 1 -78.5 0t-78.5 -9q-35 -8 -71.5 -22t-60.5 -42q-19 -21 -14 -41.5t32 -28.5t55 -3.5t54 13.5z" />
    <glyph glyph-name="E" unicode="E" horiz-adv-x="1083" 
d="M1081 380q7 6 14.5 5t12.5 -6t5.5 -12.5t-5.5 -14.5q-70 -81 -159 -145t-183 -116q-83 -46 -171 -82.5t-182 -51.5q-55 -9 -110.5 -11t-111.5 6q-24 3 -49 9t-48 16.5t-43 25.5t-33 37q-14 23 -16.5 48.5t2.5 50.5t16.5 49t25.5 45q55 81 128 142q48 40 102.5 72.5
t114.5 52.5q-29 12 -56 29t-46 43q-23 31 -21 62t19.5 58.5t44.5 50.5t53 38q45 26 93 37.5t100 13.5q22 0 43.5 -1t43.5 -4q17 -2 35 -7.5t31 -18.5q9 -9 11.5 -20.5t1 -23.5t-7 -23.5t-12.5 -20.5q-21 -28 -53 -36.5t-65 -8.5q-10 0 -15 6t-5 13.5t5 14t15 6.5
q13 1 28.5 3.5t28.5 8.5t22.5 16t11.5 27q1 5 1.5 4t-4.5 2q-5 2 -12 3.5t-13 3.5q-30 5 -61.5 4.5t-62.5 -3.5l-12 -2q-1 0 0 0.5t-4 -0.5l-40 -10q-49 -15 -92 -45q-18 -13 -37.5 -30.5t-27.5 -39.5q-4 -11 -2 -20.5t7.5 -18t13.5 -15.5t16 -12q45 -31 100 -43.5
t109 -14.5q10 0 16 -7t7.5 -15t-2.5 -15.5t-14 -9.5q-26 -5 -51.5 -6t-50.5 3q-37 -11 -72 -24.5t-69 -31.5q-84 -45 -155 -113q-15 -15 -34.5 -36.5t-38 -46.5t-32.5 -51.5t-16.5 -51.5t9 -47t43.5 -36q45 -20 96 -24.5t99 -2.5q85 4 168 27q84 24 163 60.5t154 81.5
t146 96t139 104z" />
    <glyph glyph-name="F" unicode="F" horiz-adv-x="812" 
d="M901 829q25 0 54 -2t57 -8t53 -18t42 -33q11 -14 3.5 -27.5t-24.5 -10.5q-29 6 -56.5 16t-56.5 15q-28 5 -56 5.5t-56 -1.5q-109 -5 -216.5 -26t-211.5 -53q12 -12 4 -28q-39 -67 -72.5 -136t-60.5 -141q7 1 13.5 2t13.5 3q34 6 67.5 10.5t68.5 6.5q32 2 66 2.5t66 -9.5
q6 -2 10 -7.5t4 -12t-3.5 -12t-10.5 -6.5q-32 -6 -65.5 -5t-66.5 -1q-64 -1 -127 -12q-14 -2 -27.5 -4.5t-27.5 -5.5q-1 -4 -2 -7t-3 -7q-14 -44 -26.5 -88t-23.5 -89q-5 -23 -9.5 -47t-9.5 -47q-4 -23 -7.5 -46.5t-15.5 -44.5q-7 -12 -21 -10t-18 15q-6 24 -2.5 49t8.5 49
q5 23 9.5 46.5t10.5 46.5q19 84 48 165q-35 -9 -68.5 -20t-66.5 -24q-7 -3 -12.5 0.5t-8 9.5t-1.5 13t8 10q41 19 82.5 34t84.5 27q60 161 148 307q-46 -15 -91 -32.5t-89 -37.5q-48 -22 -91 -49t-78 -67q-8 -9 -17 -8t-15.5 7.5t-8 16t6.5 18.5q40 48 92 81t108 58
q111 51 226.5 87t235.5 57q58 11 116 18.5t117 7.5z" />
    <glyph glyph-name="G" unicode="G" horiz-adv-x="873" 
d="M868 373q6 9 14 10.5t15 -1.5t11.5 -10t3.5 -17q-5 -29 -24.5 -52.5t-41.5 -40.5q-34 -26 -72 -44t-80 -29q-35 -9 -69.5 -16.5t-69.5 -15.5q-11 -20 -23 -40t-25 -40q-27 -43 -56.5 -84.5t-64.5 -77.5q-32 -34 -73.5 -53.5t-88.5 -6.5q-22 6 -39 18.5t-27 30t-13 38.5
t4 43q7 23 21 43t32 37t39 31t41 26q56 33 117 53t124 35q29 54 54 109.5t47 113.5q-48 -41 -98.5 -76.5t-103.5 -68.5q-31 -20 -64.5 -40.5t-69 -37t-72.5 -25t-75 -2.5q-32 5 -57 21.5t-43 40.5t-28.5 53t-12.5 59q-2 33 4 65.5t17 64t26 61.5t30 58q57 104 141.5 187.5
t196.5 127.5q25 10 52.5 16.5t55 8t55 -1.5t53.5 -13q53 -21 84 -65.5t26 -103.5q-5 -53 -31.5 -101t-68.5 -80q-48 -35 -107.5 -45.5t-116.5 6.5q-9 3 -11.5 9.5t-0.5 13.5t7.5 11t14.5 2q56 -14 111.5 2t93.5 60q15 16 27 38t19 45.5t7 48t-10 45.5q-9 20 -25.5 33.5
t-36 21t-41 10t-41.5 1.5q-48 -3 -91.5 -20.5t-82.5 -42.5q-85 -54 -146.5 -132.5t-102.5 -169.5q-11 -23 -20.5 -49t-15 -52t-5 -52.5t11.5 -51.5q8 -20 23 -35.5t35 -22.5q26 -8 53 -3t51 15q26 10 50 24l48 28q27 17 54 33.5t53 33.5q51 35 100 70.5t100 68.5
q15 10 29 -2q8 -2 12.5 -8.5t2.5 -16.5q-17 -71 -42.5 -139t-57.5 -134q14 2 27.5 5t27.5 6q42 9 82.5 23.5t75.5 40.5q20 15 35.5 34.5t29.5 38.5zM390 9q50 62 92 131q-33 -9 -65 -20t-64 -26q-36 -18 -74 -42t-61 -59q-8 -14 -13 -31.5t6 -31.5q9 -12 24 -16.5t29 -3.5
q21 1 39 11t33.5 24.5t29 31.5t24.5 32z" />
    <glyph glyph-name="H" unicode="H" horiz-adv-x="1193" 
d="M1264 965q5 10 14 11t16.5 -3.5t11 -13t-2.5 -18.5q-27 -51 -53 -102.5t-50 -104.5q-68 -150 -120 -304q23 -19 36 -44q9 -19 11 -39t0 -39.5t-7 -39.5t-11 -39q-50 -161 -156 -291q-8 -10 -17.5 -10t-17.5 5.5t-12.5 15t-2.5 19.5q11 58 23.5 115.5t27.5 114.5
q14 50 28 99.5t31 99.5q-23 11 -48.5 15.5t-49.5 8.5q-75 12 -150.5 15.5t-151.5 -0.5h-3q-17 -50 -32.5 -99t-29.5 -100t-26.5 -104t-35.5 -101q-4 -8 -11 -10t-14 0t-12.5 7.5t-5.5 13.5q-2 54 13 109t30 106q13 44 26.5 86.5t27.5 85.5q-57 -6 -112 -16t-110 -24
q-76 -22 -146 -48q-36 -13 -71 -28t-72 -26q-11 -3 -18 1t-9.5 12t-1 16.5t9.5 14.5q38 29 82 48.5t88 35.5q43 16 86.5 28.5t88.5 23.5q52 11 104 19t106 13q35 94 74 185t84 181q6 13 17.5 14.5t21 -4t14 -16.5t-1.5 -24q-39 -81 -74 -164t-66 -168q14 1 28 1h28
q81 0 161 -9q39 -5 78.5 -10.5t77.5 -17.5q7 -2 13.5 -4.5t13.5 -5.5q94 264 230 507zM1055 273q5 21 7.5 43t-5.5 42q-37 -121 -66 -248q20 38 36.5 79t27.5 84z" />
    <glyph glyph-name="I" unicode="I" horiz-adv-x="459" 
d="M433 810q26 -23 31 -55t-2 -67t-20 -69t-23 -59q-32 -78 -66.5 -155t-68.5 -155l-68 -153q-17 -40 -35.5 -79t-42.5 -76q-6 -9 -15 -11t-16.5 1t-12.5 10.5t-2 18.5q11 43 27.5 83t34.5 80l68 153q31 68 61 135t60 135q15 33 28 66t23 68q2 8 5 19t4 23t-0.5 23t-8.5 18
q-8 8 -21.5 5t-22.5 -6q-14 -4 -28 -9l-28 -10q-59 -25 -109 -60q-23 -16 -48.5 -36.5t-47 -45.5t-35 -53.5t-12.5 -59.5q0 -10 -6 -14.5t-13.5 -4.5t-14 5t-7.5 14q-4 41 11 78t41 69t58.5 59t62.5 48q55 38 123 64q16 6 33.5 12.5t35.5 8.5t35 -1.5t32 -16.5z" />
    <glyph glyph-name="J" unicode="J" horiz-adv-x="870" 
d="M860 870q15 5 31 3t27 -16q13 -14 9 -32.5t-24 -24.5q-8 -3 -16.5 -5.5t-16.5 -4.5q-7 -9 -13 -18l-12 -18q-11 -17 -21.5 -33.5t-21.5 -33.5q-22 -35 -41.5 -71t-39.5 -72q-38 -71 -74 -141t-78 -139q38 2 75 7.5t73 18.5q24 9 47 21t45 26q14 8 31 17.5t26 22.5
q5 7 12.5 8t13.5 -2.5t8 -10t-3 -13.5q-12 -17 -24 -32t-28 -29q-23 -19 -48.5 -33t-53.5 -25q-51 -20 -103.5 -26t-106.5 -8q-28 -42 -58 -82t-65 -78q-42 -48 -95 -90q-22 -18 -45 -35t-50 -28q-38 -16 -81.5 -17.5t-81.5 18.5q-21 11 -34 28t-18.5 37.5t-4.5 42.5t7 43
q10 31 29 57t43.5 46t53 35.5t57.5 27.5q63 26 130 35.5t134 13.5q8 1 16 1h16q29 48 56 96t53 96q34 64 67 127.5t71 125.5q8 13 15.5 25.5t15.5 25.5q-59 -19 -116.5 -37t-116.5 -36q-41 -13 -82.5 -24t-79.5 -29q-12 -6 -25.5 -13.5t-24 -17.5t-17 -22.5t-6.5 -27.5
q0 -9 -6 -15t-14 -7t-15.5 3t-9.5 13q-9 45 12.5 76t58 52t78.5 34.5t73 23.5q90 30 178 59.5t178 58.5q7 7 14 12.5t17 9.5zM296 26q44 40 81 84.5t71 92.5q-64 -4 -127 -13.5t-121 -35.5q-24 -11 -49.5 -26t-46 -34.5t-33.5 -44t-13 -54.5q0 -17 6.5 -28t17.5 -17.5t26 -9
t30 -2.5q23 1 44.5 9t41 20.5t37.5 28t35 30.5z" />
    <glyph glyph-name="K" unicode="K" horiz-adv-x="1029" 
d="M1029 375q5 7 13 9t15 -1t11 -9.5t1 -15.5q-17 -46 -43 -85.5t-55 -77.5q-30 -38 -72.5 -79t-91 -68t-100.5 -29.5t-101 37.5q-26 21 -41 49t-24.5 59.5t-16.5 64t-17 61.5t-26.5 52t-47.5 34q-29 11 -60 9t-61 -10l-19 -28q-4 -5 -9 -8l-1 -1q-12 -33 -25 -66t-26 -67
q-16 -40 -32 -79.5t-42 -75.5q-5 -7 -11.5 -8.5t-12.5 1t-9.5 8.5t-1.5 14q5 44 19.5 83.5t29.5 79.5q13 35 25.5 68t26.5 66q45 118 93 237l55 142q4 8 8.5 20t7.5 25t3 25t-6 21q-8 10 -21.5 6t-21.5 -8q-14 -5 -27 -11l-26 -12q-28 -14 -54.5 -30.5t-49.5 -36.5
q-50 -41 -89 -91t-67 -107q-4 -8 -10.5 -8.5t-11.5 2.5t-8 9.5t0 14.5q32 72 79.5 133.5t110.5 109.5q55 42 120 72q15 6 31.5 12t33 6.5t31.5 -5.5t27 -22q17 -23 17 -53.5t-8 -56.5q-10 -38 -25.5 -75t-29.5 -75q-14 -37 -28 -73t-28 -73q25 26 53 47.5t57 41.5
q101 71 210 127.5t223 102.5q59 23 118.5 43t120.5 36q25 7 52 12.5t54 5.5t51.5 -8t45.5 -29q7 -7 6.5 -14.5t-5.5 -13.5t-12.5 -8.5t-15.5 1.5q-25 12 -54 13t-58 -4.5t-58 -14.5t-54 -16q-110 -32 -216 -75.5t-208 -97.5q-50 -26 -97.5 -55t-95.5 -60q-20 -14 -40 -29
t-38 -32q17 2 33 1.5t33 -3.5q38 -8 67.5 -31.5t47.5 -58.5q14 -28 23 -58t17 -60q8 -27 17 -55.5t28 -50.5q16 -18 34 -25.5t37.5 -7t39.5 7.5t39 18q45 27 82 65t70 79q23 30 47 59.5t45 61.5z" />
    <glyph glyph-name="L" unicode="L" horiz-adv-x="1046" 
d="M1047 377q7 7 17 7t17.5 -5.5t10.5 -14t-3 -17.5q2 2 0.5 -1t-1.5 -5l-3 -7l-10 -21q-14 -25 -31 -47.5t-34 -43.5q-20 -25 -41.5 -48.5t-44.5 -45.5t-48 -43t-52.5 -38t-57.5 -29.5t-62 -16.5q-34 -5 -65.5 2t-61.5 24q-41 21 -78 44.5t-80 38.5q-42 14 -85 21t-87 5
q-5 0 -9.5 -0.5t-9.5 -1.5q-15 -21 -31 -41t-35 -37q-16 -15 -34.5 -27.5t-41.5 -15.5q-24 -3 -47 7.5t-34 33.5q-12 28 2 50t39.5 39t54.5 28.5t47 17.5q9 4 18 6.5t19 4.5q48 75 86 153.5t81 156.5q31 56 70.5 116t88.5 109t109 80t133 29q9 0 13 -5.5t4 -12t-4 -12
t-13 -5.5q-35 -2 -63 -14q-32 -14 -57 -34.5t-49 -43.5q-50 -50 -92 -110q-34 -48 -62.5 -99t-54.5 -105q-20 -42 -40 -82.5t-43 -80.5q-5 -8 -9 -15.5t-8 -15.5q41 0 81 -7.5t79 -20.5q45 -16 84.5 -38.5t81.5 -46.5q14 -8 30.5 -15t30.5 -9q11 -2 23.5 -1t24.5 4
q29 7 56.5 22t52.5 34t47.5 41t43.5 44q22 23 42 48t39 48q8 10 15.5 20t15.5 19l14 15l6 6q2 2 3 2q2 2 2 3z" />
    <glyph glyph-name="M" unicode="M" horiz-adv-x="1893" 
d="M1892 383q7 5 15.5 3.5t14.5 -7t7.5 -14t-3.5 -15.5q-34 -48 -84.5 -93.5t-96.5 -81.5q-24 -20 -51 -40.5t-55.5 -38.5t-58.5 -31.5t-59 -19.5q-11 -2 -22.5 -3.5t-23.5 -1.5q-47 0 -88 21t-61 66q-8 17 -10.5 35t-2.5 36q0 14 1.5 29t3.5 29q5 33 12 68.5t16 66.5
q8 30 19 65.5t22 64.5l12 27q10 22 18 43.5t10 43.5q1 11 -2 23.5t-10 21.5l-5 4l-3 1q-6 2 -8 2q-4 0 -2 4q-3 -3 -7 -3h-7.5t-5.5 -1q-1 0 -5 -2q-31 -8 -60 -23.5t-55 -34.5q-37 -26 -71.5 -56t-66.5 -62q-66 -64 -127 -135t-112 -146q-9 -11 -20.5 -12t-21 4.5t-14.5 16
t1 23.5q18 37 37.5 78.5t36 84t29 86t18.5 84.5q2 19 3 39t-1 39v11q0 13 -1.5 26.5t-7.5 21.5q-5 7 -16.5 0.5t-20.5 -12.5l-9 -7l-59 -40q-60 -39 -115.5 -82.5t-106.5 -88.5q-103 -94 -196.5 -205t-172.5 -226q-4 -4 -6 -5l-1 -2q-5 -6 -12.5 -8.5t-14.5 -1t-12 6
t-4 13.5q1 20 6 36.5t11 33.5l4 12l16 46l12 35l28 77q7 20 13.5 39t14.5 39l29 82q18 46 35 94t30 96q5 18 8.5 37.5t3.5 39.5q0 29 -11 52q-7 14 -16 15.5t-23 -3.5q-11 -5 -24 -12t-23 -13h1q-48 -28 -90.5 -65.5t-76 -82.5t-58 -96t-37.5 -106q-2 -9 -10 -11t-16 0
t-13.5 8.5t-3.5 15.5q16 68 48 133t77 119q40 48 90.5 88t104.5 66q16 8 33.5 12.5t36.5 -0.5q15 -5 26 -15.5t19 -23.5q11 -19 15 -40.5t4 -43.5q0 -28 -5 -56q-6 -31 -16.5 -64.5t-21.5 -64.5l-8 -22l-54 -154q-14 -38 -27 -75t-25 -75q27 40 57.5 78t62.5 74
q51 58 107 114.5t116 107.5t121.5 98.5t125.5 83.5q11 6 22 10t25 4q8 0 17.5 -2.5t17.5 -8.5q14 -11 21.5 -25t10.5 -30q5 -20 6 -40t1 -41q0 -23 -1.5 -46t-5.5 -46q-9 -47 -24 -98q28 32 60 63.5t64 60.5q34 32 70 61.5t71 52.5q27 17 58 32.5t65 21.5q33 5 63 -6t46 -43
q13 -29 13 -62q0 -31 -11 -62q-5 -15 -10.5 -29t-11.5 -28q-7 -17 -13 -32.5t-12 -32.5q-11 -34 -20 -67.5t-17 -68.5q-8 -31 -14 -63.5t-4 -64.5q1 -27 13.5 -48t38.5 -31q11 -5 21.5 -6.5t21.5 -1.5q14 0 30 3.5t30 8.5q52 20 99.5 53.5t88.5 68.5q14 12 28.5 25t28.5 26
q29 25 58 51t57 44v-1z" />
    <glyph glyph-name="N" unicode="N" horiz-adv-x="1342" 
d="M1340 386q11 5 21.5 1.5t17 -12t6.5 -19.5t-9 -20q-46 -38 -100.5 -75.5t-105.5 -69.5q-28 -17 -55.5 -31.5t-55.5 -27.5q-29 -13 -61 -23t-65 -8q-24 1 -47.5 9.5t-42 23t-30.5 34.5t-14 46v-1q-3 28 4 55.5t16 51.5q17 48 41 95q19 44 35.5 89.5t15.5 95.5q0 8 -1 17
t-6 14q-4 4 -14 1t-17 -5q-28 -9 -51.5 -20t-44.5 -22h1q-170 -98 -309.5 -232.5t-253.5 -291.5l1 1q-4 -10 -9.5 -20t-11.5 -19q-6 -6 -13.5 -8t-15 -0.5t-12.5 6.5t-5 14q1 16 4 28.5t8 24.5l4 11l5 14l16 49l22 62t22 63l39 111q10 29 19.5 56t20.5 56q10 28 19 57t10 58
q1 14 -1 28t-10 25q-6 9 -14 7.5t-16 -6.5h2q-1 -1 -1.5 -0.5t-1.5 -0.5q-45 -22 -84.5 -55t-71.5 -73t-56 -85.5t-38 -92.5q-3 -8 -11.5 -10.5t-16.5 -0.5t-14 8t-4 15q14 63 45 122t74 107q19 20 42 40t45 36q11 8 24 15.5t27 15.5h-1q14 8 28.5 14.5t31.5 7.5
q17 0 30 -6.5t22.5 -18t15.5 -25.5t8 -28q2 -8 2.5 -18.5t0.5 -19.5q0 -26 -5 -51.5t-12 -49.5q-14 -42 -28.5 -82t-29.5 -82l-31 -89l-21 -60q41 54 84 101t92 95q70 68 156.5 134.5t174.5 115.5q24 13 58.5 28.5t66.5 15.5q21 0 38.5 -9t29.5 -30q10 -17 13.5 -36t3.5 -38
q0 -32 -7.5 -64t-16.5 -58q-8 -20 -16.5 -41.5t-17.5 -41.5q-11 -26 -22.5 -51t-19.5 -51q0 -1 -0.5 -2t-0.5 -2q-4 -12 -7.5 -24.5t-3.5 -25.5q0 -8 2 -16t7 -14q11 -14 30.5 -19t36.5 -3q29 2 54 12.5t48 22.5q23 11 46.5 25t49.5 29q18 11 36.5 23.5t36.5 24.5
q26 17 56.5 36t63.5 36v1z" />
    <glyph glyph-name="O" unicode="O" horiz-adv-x="996" 
d="M991 380q7 6 16 4t15 -8t8 -15t-4 -16q-13 -18 -28 -32.5t-33 -28.5q-33 -24 -71.5 -41.5t-79.5 -28t-83.5 -15t-83.5 -2.5q-45 -45 -97.5 -81t-112.5 -59q-47 -18 -97.5 -25t-100 0t-95 28.5t-80.5 60.5q-33 37 -48 82.5t-16 93t11 95.5t33 90q33 66 87 120.5t122 86.5
q3 5 5.5 10t5.5 10q22 40 55.5 71.5t74 53.5t85.5 32.5t91 8.5t89.5 -18t79.5 -45q38 -32 57.5 -76.5t24.5 -93.5q4 -46 -1.5 -92.5t-19 -92t-34 -88.5t-45.5 -81l-8 -12t-9 -12q5 1 14 1q77 8 145 38t128 77zM490 808q-52 -14 -95.5 -44.5t-70.5 -75.5q-2 -6 -6 -9
q-23 -39 -30 -84q-7 -41 -1 -79.5t23 -73t44 -63t62 -49.5q49 -29 104.5 -45.5t112.5 -20.5q46 55 78 120q17 34 30.5 74t20 81.5t4.5 82.5t-17 79q-15 37 -43.5 62t-64.5 38t-75.5 14.5t-75.5 -7.5zM165 109q40 -21 84 -25.5t88 3t86.5 24.5t79.5 40q37 24 72 54
q-80 14 -156 49.5t-127 98.5q-24 29 -39.5 63t-22.5 70.5t-6 74t10 73.5q-63 -42 -108 -102.5t-65 -132.5q-11 -42 -13 -85.5t12 -85.5q13 -40 40 -70t65 -49z" />
    <glyph glyph-name="P" unicode="P" horiz-adv-x="833" 
d="M728 785q37 -23 61 -58t25 -80q0 -46 -21.5 -87t-50.5 -74q-32 -37 -71.5 -67.5t-81.5 -56.5q-45 -29 -90 -53.5t-93 -46.5q-45 -21 -89.5 -39t-91.5 -35q-16 -57 -28 -113.5t-23 -115.5q-2 -9 -8 -12t-13.5 -2t-13 6.5t-5.5 13.5q0 52 6.5 102.5t18.5 101.5
q-35 -8 -69 -6.5t-67 20.5q-7 4 -8.5 10.5t1 12.5t8 9.5t13.5 1.5q34 -9 69 -4.5t70 15.5q11 35 24 70t28 69q42 97 101 184q13 19 26.5 39t29 37t34.5 30.5t42 20.5q11 3 18 -1.5t9 -13t-1.5 -17t-13.5 -12.5q-19 -8 -34 -22.5t-27 -30.5q-14 -20 -27 -40t-25 -40
q-25 -42 -46.5 -84.5t-40.5 -87.5q-8 -20 -15 -38.5t-13 -38.5q91 34 181 78q39 19 79 40.5t78 46.5t72 53.5t62 63.5q12 15 22.5 32t17 36t7.5 38.5t-5 38.5q-12 36 -45 58t-68 30q-45 11 -90.5 8t-90.5 -12q-83 -15 -157 -45q-77 -31 -145.5 -75.5t-126.5 -102.5
q-7 -7 -15.5 -6t-14 6.5t-6.5 13.5t6 16q73 74 161 127t187 85q93 31 188 38q48 4 96 -2.5t90 -32.5z" />
    <glyph glyph-name="Q" unicode="Q" horiz-adv-x="667" 
d="M627 -65q9 4 18 1.5t14 -9t5.5 -15t-7.5 -16.5q-33 -32 -78.5 -39.5t-88.5 3.5q-42 11 -73.5 38t-52.5 63q-17 28 -28 58.5t-20 62.5q-51 -21 -107 -30q-24 -3 -49 -3t-48 6t-44 18t-36 33q-30 40 -30.5 90.5t14.5 95.5t41 84t60.5 70t76.5 53t88 32q10 2 17 -3t9 -13
t-1.5 -15.5t-13.5 -10.5q-42 -12 -79.5 -34.5t-68.5 -54t-52 -70t-30 -81.5q-4 -18 -4 -37t4.5 -36.5t15 -32t28.5 -23.5q18 -8 37.5 -10t39 0t39 7.5t36.5 11.5q20 6 40 15q-5 14 -9.5 27t-11.5 26q-10 18 -29.5 31.5t-41.5 1.5q-8 -5 -15 -2t-11 9.5t-3 14.5t9 13
q20 12 40.5 12t39 -9t34 -24.5t25.5 -33.5q5 -10 9.5 -20.5t8.5 -21.5q55 32 98 79t70 105q17 37 24.5 78.5t3.5 82.5t-20 79t-44 70q-27 30 -61 47t-71 22t-75 -3t-73 -27q-9 -5 -18 -2.5t-14.5 9.5t-5.5 16t8 17q41 41 96.5 52.5t111.5 0.5q55 -11 100.5 -43.5t76.5 -80.5
q30 -44 43 -94t11 -101.5t-17.5 -101.5t-42.5 -95q-32 -54 -78.5 -97.5t-102.5 -74.5q5 -14 9 -27t9 -27q14 -36 35 -70t57 -53q36 -20 76.5 -15.5t76.5 21.5z" />
    <glyph glyph-name="R" unicode="R" horiz-adv-x="897" 
d="M900 382q14 8 22.5 -0.5t4.5 -23.5q-6 -20 -20.5 -39.5t-27.5 -35.5q-15 -18 -31.5 -35t-33.5 -34q-19 -18 -42 -38t-48.5 -38.5t-53.5 -33t-56.5 -20t-57 -1t-54.5 24.5q-18 14 -30.5 31.5t-22.5 36.5t-18.5 39t-18.5 39q-16 32 -41 55t-57 33h-19q-7 0 -12 5h-5
q-6 0 -9 3q-1 -1 -1 -3q-20 -67 -29 -132q-5 -34 -7.5 -68t-7.5 -68q-1 -7 -6 -10.5t-11 -3.5t-11.5 3.5t-6.5 10.5q-12 69 0.5 142t32.5 139q21 69 53 133t73 123q6 8 14 9t15 -2.5t10 -11t-3 -15.5q-67 -100 -104 -212h13q45 15 90.5 24.5t90.5 23.5t87.5 31t82.5 40
q35 20 67.5 44.5t60.5 53.5q12 12 24.5 27.5t21.5 33t13.5 36t0.5 37.5q-4 21 -17 35.5t-30.5 24.5t-37.5 16.5t-38 9.5q-45 8 -89.5 2t-86.5 -18q-89 -26 -171 -70.5t-155 -100.5q-33 -25 -64.5 -56t-55 -67.5t-35 -78t-3.5 -86.5q2 -10 -3.5 -17t-13.5 -9t-16 1t-10 14
q-13 59 1 111.5t44 98.5t71.5 85.5t85.5 71.5q43 31 87.5 57.5t92.5 49.5t97.5 41t101.5 27q28 4 61.5 5t68 -4t66.5 -16t56.5 -30t40 -46.5t15.5 -65.5q0 -48 -24.5 -90.5t-56.5 -74.5q-34 -34 -72 -62t-80 -51t-86.5 -40.5t-90.5 -31.5q-22 -6 -44 -11.5t-45 -9.5
q26 -19 45 -43q13 -18 23 -41t21 -45t25 -41.5t36 -30.5q19 -10 40 -8t41.5 10.5t39 21.5t33.5 24q37 28 70.5 59.5t65.5 65.5l33 34l14.5 14.5t16.5 12.5z" />
    <glyph glyph-name="S" unicode="S" horiz-adv-x="707" 
d="M703 374q4 8 11 9.5t13.5 -1.5t10.5 -9t1 -14q-13 -33 -42 -57.5t-58 -44.5q-36 -24 -74 -43t-78 -36h-1q16 -23 25 -49t8 -55q-2 -37 -17.5 -70.5t-41.5 -59.5q-27 -28 -61 -46t-70 -31q-35 -12 -71.5 -20.5t-73.5 -10.5q-26 -2 -60.5 2t-63.5 17.5t-45.5 37.5t-7.5 61
q7 28 25 51t41.5 42.5t50 35t49.5 27.5q50 26 101 46t104 40q-12 9 -24.5 17t-25.5 16l-147 92q-30 19 -61 39.5t-57 46t-43.5 56.5t-19.5 70q-2 40 12.5 74t39.5 61.5t57.5 49t65.5 36.5q35 15 73 26.5t77 15.5t77.5 -1t74.5 -23q30 -14 54 -37.5t39.5 -53t19.5 -62
t-7 -65.5q-3 -9 -9.5 -12t-13 -1t-11.5 8t-3 15q8 36 -8 70.5t-42 58.5q-29 27 -67 37t-77 8q-45 -2 -87.5 -15.5t-81.5 -33.5q-35 -18 -65.5 -44t-44.5 -64t-3 -68t34 -54t53.5 -44t57.5 -36l147 -92q23 -14 45 -30t42 -35q2 2 5 2.5t5 1.5q37 14 72.5 30.5t70.5 36.5
q13 7 28 15.5t29 18.5t26 21.5t18 25.5zM429 148q-2 1 -2.5 2t-2.5 3q-66 -26 -131 -51.5t-127 -61.5q-23 -14 -45 -30t-39 -38q-11 -14 -17 -29t8 -26q26 -21 62.5 -22.5t66.5 3.5q36 5 72 15t69 26q32 15 59 37t42 55q14 30 9.5 60.5t-24.5 56.5z" />
    <glyph glyph-name="T" unicode="T" horiz-adv-x="686" 
d="M948 753q7 4 15 2.5t13.5 -7t7 -13.5t-3.5 -15q-14 -21 -34 -33.5t-43.5 -18.5t-48 -7.5t-48.5 -0.5q-42 2 -82 7t-82 10v-2l-14 -51q-7 -27 -14.5 -54t-15.5 -54q-27 -91 -59.5 -179.5t-80.5 -170.5q-42 -72 -97.5 -134.5t-132.5 -96.5q-11 -5 -19.5 -1.5t-13 10.5
t-3 16.5t10.5 16.5q37 28 70 61.5t62 68.5q57 70 96.5 152t70.5 167q17 48 32.5 96t30.5 96l21 67q-48 7 -95 12.5t-95 7.5q-51 2 -102 0t-102 -13q-21 -4 -43.5 -10t-43.5 -15t-39.5 -23t-30.5 -33q-5 -8 -12 -8.5t-13 3t-9 10t2 14.5q12 23 30.5 40t40.5 29t46.5 20.5
t48.5 14.5q51 13 102.5 18t103.5 4t104 -5.5t103 -10.5l25 -3q7 11 16.5 17.5t23.5 5.5q12 -2 19 -11t5 -20l60 -6t60 -5q43 -2 81.5 5t75.5 30z" />
    <glyph glyph-name="U" unicode="U" horiz-adv-x="1154" 
d="M1145 374q7 9 17 10.5t17.5 -2.5t10.5 -13t-3 -19q-35 -63 -81 -115t-102 -97q-23 -19 -48 -36.5t-51 -33.5q-28 -16 -60 -24t-62 7q-28 14 -41 40t-16.5 56.5t0.5 62t9 56.5q6 33 17 64t24 62l17 36q-23 -25 -47 -48t-49 -46q-81 -74 -176 -138q-22 -16 -45 -30.5
t-46 -28.5q-22 -12 -44 -23.5t-46 -18.5q-25 -7 -49.5 -6t-44.5 10.5t-34.5 28t-18.5 46.5q-4 29 2.5 58t15.5 57q9 29 20 56t23 54q23 55 48.5 108t47.5 109q11 28 19.5 55.5t15.5 56.5q1 4 3 10.5t3.5 14t1.5 14t-3 10.5q-5 6 -16.5 1t-17.5 -7q-101 -36 -182 -107.5
t-136 -162.5q-5 -9 -13 -10t-14.5 2.5t-9.5 11t2 16.5q58 105 148.5 184.5t204.5 118.5q25 8 48.5 2.5t33.5 -33.5q8 -26 2.5 -53.5t-12.5 -52.5q-15 -57 -37.5 -110.5t-46.5 -107.5t-46.5 -107.5t-39.5 -110.5q-3 -11 -6 -24t-4 -26.5t2 -26t13 -20.5q15 -13 36.5 -9
t37.5 10q24 9 46 22.5t44 27.5q48 29 91 61q45 32 86.5 66.5t81.5 72.5q83 78 153.5 166.5t130.5 185.5q7 12 19.5 13.5t22 -4.5t14 -17t-3.5 -23q-19 -31 -38 -61t-37 -62q-17 -29 -30 -59.5t-27 -60.5q-24 -53 -50 -102.5t-41 -106.5q-7 -27 -10.5 -55t-1.5 -56
q0 -9 2 -19t5.5 -19t10.5 -15.5t18 -6.5q12 0 25 4.5t25.5 12t24 16t20.5 15.5q45 31 83 66q39 35 75.5 75t68.5 82z" />
    <glyph glyph-name="V" unicode="V" horiz-adv-x="1000" 
d="M1229 797q9 1 14.5 -3t7.5 -10.5t-0.5 -12.5t-11.5 -9q-60 -20 -114.5 -49t-104 -66t-94.5 -79.5t-85 -88.5q-42 -48 -80.5 -96t-76.5 -98q-20 -25 -39.5 -49.5t-39.5 -48.5q-18 -22 -36.5 -44t-40.5 -40q-20 -17 -45 -28t-50.5 -12.5t-49 8t-41.5 33.5q-17 22 -24 49
t-8.5 55.5t1.5 57t7 54.5q9 62 24 122t26 122q2 10 4 22.5t2.5 25t-2 24t-9.5 20.5q-8 10 -19.5 13.5t-24 3t-25 -3.5t-22.5 -6q-46 -14 -86 -41.5t-70.5 -64.5t-51 -81.5t-26.5 -91.5q-1 -9 -7.5 -13.5t-13.5 -4.5t-12.5 4.5t-4.5 13.5q5 56 26.5 108t56.5 95.5t81 75.5
t100 49q25 7 51 9.5t50 -7.5q24 -9 38.5 -28.5t18.5 -44.5q5 -28 1.5 -55.5t-8.5 -54.5q-6 -32 -13.5 -64.5t-14.5 -64.5q-8 -31 -13.5 -62.5t-8.5 -63.5q-2 -28 -2 -56.5t8 -54.5q8 -25 25 -39.5t44 -9.5q29 5 50 24.5t39 39.5q42 48 81 98l78 100t79 99t84 95
q39 40 81.5 76.5t90 66.5t99 51.5t107.5 30.5z" />
    <glyph glyph-name="W" unicode="W" horiz-adv-x="1174" 
d="M1558 767q-48 5 -95 -4t-92 -27t-87 -43t-79 -53q-66 -49 -122.5 -107.5t-108.5 -122.5q-27 -33 -52.5 -67.5t-52 -68.5t-54.5 -66.5t-59 -61.5q-14 -13 -31.5 -27t-36 -23.5t-39 -11t-40.5 10.5q-17 10 -26 26t-14 34.5t-6.5 38t-2.5 36.5q-4 88 14 177l-46 -74
q-29 -48 -57.5 -96t-62.5 -93q-12 -15 -27 -29t-32.5 -23.5t-36.5 -12t-40 4.5q-18 6 -31.5 18.5t-23 28t-15 33.5t-8.5 36q-8 51 -5.5 101.5t10 101.5t18 101t19.5 100l7 48q1 6 2 15.5t-2 14.5q-3 6 -10.5 4t-16 -6.5t-16 -10.5t-11.5 -9q-29 -22 -53 -50.5t-42 -60.5
q-36 -66 -45.5 -140.5t10.5 -146.5q3 -9 -1.5 -15.5t-11.5 -8t-14.5 1t-10.5 11.5q-29 83 -18.5 171.5t54.5 164.5q19 32 43.5 61.5t53.5 52.5q17 13 35 25t39 16q22 3 40 -7t26 -30t6.5 -41t-4.5 -41q-4 -26 -8 -51t-9 -51q-10 -52 -19 -103.5t-12 -104.5q-1 -25 -1 -50
t4 -49q2 -17 7 -33.5t16 -29.5q14 -15 29 -13.5t29 12t25.5 25.5t18.5 26q59 91 115.5 182t119.5 179q7 10 19 10q0 2 2 4q5 11 14.5 12.5t17.5 -3t12.5 -14.5t-0.5 -21q-19 -41 -32.5 -86.5t-20.5 -92t-7.5 -94t7.5 -92.5q2 -9 6 -23.5t16 -16.5q7 -1 15.5 2.5t16 9.5
t14 12t11.5 11q31 28 58.5 59t53.5 64q49 63 96.5 125t102.5 119q54 56 113 105t126 87q34 19 72 37t78.5 29t81.5 13t80 -11q7 -3 10.5 -10t3 -14t-5.5 -12t-14 -4z" />
    <glyph glyph-name="X" unicode="X" horiz-adv-x="1489" 
d="M1489 379q9 7 19 5.5t16.5 -7.5t7.5 -15t-8 -18q-69 -69 -150 -127.5t-172 -97.5q-36 -16 -76.5 -29t-82 -17.5t-81.5 3t-75 31.5q-53 37 -82.5 94.5t-46.5 117.5l-6 21q-45 -54 -88.5 -108.5t-93.5 -105.5q-57 -58 -123.5 -104.5t-144.5 -70.5q-35 -11 -74.5 -16.5
t-79 -3.5t-76 14.5t-65.5 38.5q-7 6 -7 13.5t3.5 13.5t10.5 9.5t15 1.5q42 -11 82 -20t84 -7q42 2 82 14t77 30q75 37 134 93t113 118l134 160q-12 51 -26 101t-37 98q-18 35 -43.5 64t-63.5 46q-33 16 -69.5 16t-67.5 -22q-8 -5 -14.5 -3t-10 8t-2.5 14t8 13q36 27 77.5 30
t80.5 -11t73 -41t56 -60q32 -46 49.5 -98.5t31.5 -106.5q13 14 25 27.5t25 26.5q62 64 127.5 124t137.5 111q31 22 67.5 39.5t74.5 23.5t75.5 -1.5t70.5 -34.5q6 -5 6 -11.5t-4 -11.5t-10.5 -7t-12.5 2q-43 28 -87 24t-86 -25t-80.5 -52.5t-68.5 -58.5q-65 -57 -125 -117
t-117 -126l6 -21q8 -27 17 -56t22 -56.5t30 -52.5t41 -43q31 -24 68.5 -29t76.5 1.5t76 21.5t69 31q78 38 149 88t139 104z" />
    <glyph glyph-name="Y" unicode="Y" horiz-adv-x="998" 
d="M994 380q6 6 12.5 5.5t11.5 -4.5t7 -10.5t-2 -13.5q-23 -43 -57 -73.5t-74.5 -52.5t-85 -37t-88.5 -28q-33 -10 -66 -18.5t-67 -17.5q-10 -15 -20 -29.5t-20 -28.5q-32 -45 -65 -88t-78 -76q-19 -15 -44 -27.5t-52 -18.5t-53.5 -3.5t-48.5 17.5q-23 16 -32.5 41t-5.5 52
q5 28 20.5 49.5t37.5 38.5q23 17 50 30t54 24q57 24 117 42q27 9 54.5 16.5t54.5 15.5q3 4 6 7.5t5 7.5q35 49 68.5 97.5t66.5 98.5q-22 -18 -44 -32q-36 -24 -75.5 -43.5t-80.5 -36.5q-44 -19 -87.5 -31.5t-91.5 -18.5q-45 -5 -89.5 -9t-89.5 4q-37 7 -70 28.5t-53 53.5
q-24 38 -18.5 79t25.5 79q22 42 49.5 82t56 78.5t58 77t56.5 77.5q5 7 12 8t13 -2.5t8.5 -10t-1.5 -14.5q-25 -42 -53.5 -82.5t-57.5 -80.5t-56 -81t-48 -86q-17 -35 -12 -67t35 -58q30 -25 67 -29.5t74 -2.5q40 2 80.5 7t78.5 15q42 11 80.5 28t76.5 36q35 18 68 37.5
t64 44.5q57 47 108 107q48 56 87 117t81 121l15 25q4 7 10.5 8t12 -1.5t8.5 -8.5t0 -13q3 -6 0 -13q-26 -61 -59.5 -117.5t-74.5 -108.5q-42 -69 -84 -137.5t-86 -136.5l-55 -82l50 13q51 14 100.5 29.5t94.5 41.5q32 18 58.5 41.5t52.5 48.5zM430 18q18 21 34.5 42.5
t33.5 44.5l-9 -3q-54 -17 -107.5 -36.5t-102.5 -48.5q-17 -10 -33 -25t-17 -37q-1 -12 4 -18.5t12.5 -10t17 -4t18.5 0.5q46 4 83 33t66 62z" />
    <glyph glyph-name="Z" unicode="Z" horiz-adv-x="807" 
d="M800 373q5 10 14 11t16.5 -3.5t11 -13t-1.5 -18.5q-6 -11 -11.5 -22.5t-14.5 -22.5q-10 -12 -21 -21.5t-24 -18.5q-35 -24 -75.5 -39t-82.5 -25q-11 -3 -21 -5.5t-20 -4.5q-5 -25 -13 -45q-18 -42 -47.5 -75t-66.5 -59q-36 -26 -78.5 -46.5t-87.5 -26.5q-19 -3 -39.5 -2
t-40 7t-36 17.5t-26.5 29.5q-17 32 -6.5 65.5t32.5 58.5q31 35 74.5 51.5t86.5 28.5q48 14 95 24t95 21q-3 20 -13 37t-29 31q-32 24 -72 33.5t-78 17.5q-10 2 -15.5 9t-6 15.5t3 17t11.5 13.5q70 42 136.5 89t129.5 100q10 8 21 17.5t21 20t17 22.5t9 26q3 13 -2.5 24
t-14.5 19.5t-20.5 15t-21.5 11.5q-54 25 -114 23t-117 -18q-61 -17 -117 -47.5t-103 -74.5q-23 -21 -44 -48t-34 -56.5t-15 -61.5t14 -64q4 -9 1 -16t-9 -11t-13.5 -2.5t-12.5 9.5q-24 40 -24 81.5t15.5 80.5t42.5 74t57 62q56 50 122.5 84.5t139.5 50.5q34 7 69.5 10.5
t71 0t69 -14t63.5 -31.5q29 -20 45.5 -50t8.5 -67q-8 -34 -31 -61t-49 -49q-102 -85 -218 -162q34 -9 65.5 -23.5t55.5 -39.5q19 -19 29 -40.5t15 -45.5q40 10 79.5 22t74.5 33q24 13 45 33q8 8 16.5 17t13.5 17zM418 65q29 22 52 49.5t35 61.5l-46 -10l-46 -10
q-26 -5 -50.5 -11.5t-48.5 -14.5q-20 -7 -40.5 -13.5t-38.5 -17.5q-25 -14 -40 -37q-5 -9 -8.5 -19t-2.5 -16q2 -12 13 -19t25.5 -10t29.5 -3t26 2q38 8 73 26.5t67 41.5z" />
    <glyph glyph-name="bracketleft" unicode="[" horiz-adv-x="258" 
d="M331 778q7 -2 10 -7t2 -10.5t-5 -9.5t-11 -4q-15 1 -30.5 1.5t-30.5 2.5l-15 2q-2 0 -3 -1q-2 -5 -3.5 -10.5t-3.5 -10.5l-42 -121q-20 -59 -39.5 -117.5t-37.5 -118.5t-35 -119.5t-32 -119.5l-30 -125l-13 -63l-7 -31q0 -2 -0.5 -3t-0.5 -3q19 -2 38.5 -0.5t37.5 1.5
q12 0 21.5 -6t11.5 -20q2 -11 -6 -23t-20 -12h-67h-32.5t-28.5 11q-12 10 -14 25.5t0 32.5t7 34t8 30q26 123 59 243.5t71 240.5q20 60 41 119t44 118q7 15 13 31t14 31q4 9 9.5 16.5t14.5 12.5q12 6 25 3t25 -6q14 -3 27.5 -6.5t27.5 -7.5z" />
    <glyph glyph-name="backslash" unicode="\" horiz-adv-x="623" 
d="M491 177q19 -23 38 -45t37 -45q17 -20 33.5 -44t16.5 -52q0 -6 -6 -11t-11 -3q-27 7 -46 29t-36 42q-20 23 -38 45.5t-37 43.5q-38 45 -76.5 89t-79.5 86q-39 43 -79 84.5t-82 83.5q-20 19 -39 38t-37 39q-17 18 -32.5 40.5t-18.5 47.5q-1 8 3 13t9.5 7.5t12 1t11.5 -6.5
q9 -10 16 -20.5t15 -20.5q16 -21 35 -37q42 -38 82 -76q41 -40 80 -79.5t78 -80.5q75 -82 151 -169z" />
    <glyph glyph-name="bracketright" unicode="]" horiz-adv-x="362" 
d="M314 836q8 -3 13.5 -12t2.5 -18q-15 -55 -34 -109t-36 -109q-30 -97 -58 -194t-53 -197q-12 -49 -23.5 -97.5t-22.5 -98.5l-4 -22t-6 -21t-11 -17.5t-19 -10.5q-12 -4 -23.5 -0.5t-22.5 8.5l-43 16q-14 5 -17.5 17t1.5 23.5t16 18t25 1.5q11 -3 20.5 -6.5t19.5 -7.5
q2 7 2 14t2 12l12 55q6 28 12.5 55t13.5 55q14 54 27.5 106t28.5 105t31 104.5t33 103.5q16 47 31 93.5t35 91.5q-21 8 -42 18t-37 25q-11 10 -5.5 22t18.5 11q29 -1 58 -13t55 -22z" />
    <glyph glyph-name="asciicircum" unicode="^" horiz-adv-x="309" 
d="M180 725q23 -49 42.5 -99.5t33.5 -102.5q3 -14 -3.5 -23t-16 -12t-20 1t-14.5 17l-26 78t-27 77q-31 -36 -57.5 -75t-51.5 -80q-5 -8 -12 -9t-12.5 2t-8 10t0.5 15q23 57 57 108.5t73 97.5q8 9 22.5 8t19.5 -13z" />
    <glyph glyph-name="underscore" unicode="_" horiz-adv-x="483" 
d="M431 103q13 -1 20 -9.5t7.5 -19t-6 -19.5t-19.5 -9q-53 -2 -104.5 -1t-104.5 -1l-106 -6q-24 -2 -49 -5t-50 1q-8 1 -11 6t-2.5 11.5t4 12.5t9.5 8q23 9 50 11.5t52 4.5l102 9q52 4 104.5 6.5t103.5 -0.5z" />
    <glyph glyph-name="grave" unicode="`" horiz-adv-x="189" 
d="M22 696q30 -17 56.5 -40.5t49.5 -49.5q5 -7 7 -16t-3 -17q-3 -5 -6.5 -7.5t-8.5 -5.5q-6 -2 -13.5 0t-12.5 7l-46 48t-46 49q-5 6 -5 13.5t3.5 13t10 7.5t14.5 -2z" />
    <glyph glyph-name="a" unicode="a" horiz-adv-x="768" 
d="M775 384q10 2 18.5 -2t13 -11.5t4 -17t-8.5 -17.5q-20 -20 -46.5 -33t-51.5 -26q-24 -12 -48.5 -23t-49.5 -22q-50 -21 -100.5 -36.5t-103.5 -23.5q-27 -4 -54.5 -3t-53.5 13q-21 11 -36.5 29.5t-20.5 42.5q-3 16 0 33l-28 -19q-29 -20 -59 -39l-60 -38
q-28 -17 -55.5 -34t-56.5 -32q-26 -14 -55 -17.5t-55 13.5q-28 19 -31 45t8 53t29.5 52t34.5 42q35 37 80 65t95 44t102.5 18.5t102.5 -11.5q9 -3 14 -11q7 8 13.5 15.5t14.5 13.5q5 4 12 5t13 -2t9 -8.5t0 -13.5q-8 -23 -20.5 -43.5t-23.5 -42.5q-8 -16 -17.5 -37t-2.5 -40
q7 -18 24.5 -24t39 -5t42 5.5t33.5 7.5q44 11 85.5 25.5t83.5 32.5q20 9 40 18.5t40 20.5q20 10 41.5 21.5t44.5 16.5zM254 375q-2 2 -2 5q0 1 1 2q-42 2 -82 -3.5t-78 -19.5q-79 -29 -137 -89q-14 -15 -27 -31.5t-23 -35.5q-3 -6 -6 -14.5t3 -14.5t17 -4t18 5
q23 10 45.5 24t44.5 28q23 14 45 28t45 28l89 58z" />
    <glyph glyph-name="b" unicode="b" horiz-adv-x="688" 
d="M685 383q14 6 25.5 -6.5t6.5 -26.5q-12 -33 -40.5 -56t-58.5 -41q-58 -34 -124 -49q-68 -17 -139 -12q-26 2 -50 6q-38 -24 -78 -42q-11 -5 -23.5 -5t-20.5 11q-15 17 -16 37t13 39q13 17 31 25t39 10q9 1 18 0.5t18 -1.5q16 11 30 22.5t28 24.5q4 4 7.5 8t8.5 7l2 2
q-5 5 -10.5 5.5t-12.5 -0.5q-20 -2 -41.5 -9.5t-41.5 -14.5q-36 -12 -70.5 -27t-66.5 -35q-24 -16 -44.5 -34t-40.5 -38l-2 -19q-2 -16 -12 -27.5t-27 -11.5q-14 0 -27.5 11.5t-11.5 27.5q30 231 126 442q20 45 43.5 89t49.5 86q24 39 51 77.5t62 69.5q35 30 78 49t90 9
q23 -5 40 -17t27.5 -29.5t14.5 -38t2 -42.5q-5 -46 -27 -87.5t-48 -78.5q-29 -40 -63.5 -76t-70.5 -69q-59 -54 -125.5 -97t-133.5 -87q-7 -26 -12.5 -51.5t-10.5 -51.5q11 11 23 20t23 18q30 23 63 40t68 31q18 7 40 16.5t44.5 15.5t44.5 6t41 -11q20 -11 31 -32t6 -44
q-4 -17 -15.5 -31t-24.5 -26h12t13 1q73 5 141 37q33 16 64 39q16 13 30.5 23.5t33.5 18.5zM280 821q-64 -90 -112 -189.5t-80 -206.5q54 41 108.5 79.5t103.5 86.5q32 31 62 63.5t56 68.5q22 32 42 68.5t21 75.5q1 15 -3 29.5t-18 22.5q-15 9 -33.5 7t-34.5 -7
q-35 -13 -63 -40.5t-49 -57.5z" />
    <glyph glyph-name="c" unicode="c" horiz-adv-x="640" 
d="M638 385q9 1 16.5 -2t11 -9.5t3 -14.5t-6.5 -15q-16 -19 -36.5 -29.5t-42.5 -21.5q-32 -15 -64.5 -29.5t-64.5 -28.5q-66 -28 -132 -52.5t-135 -41.5q-29 -8 -59 -13.5t-60 -7.5q-23 -2 -47.5 1t-44.5 14q-30 17 -40 51t-6 66q6 53 35.5 95t72.5 72q23 16 48.5 27
t51.5 20q26 8 54.5 16t55.5 3q21 -3 39 -18t19 -39q1 -17 -8 -34t-27 -22q-6 -2 -11 1t-7 8t-0.5 10.5t6.5 8.5q6 4 2.5 12t-6.5 12q-6 7 -16 6.5t-18 -2.5q-51 -12 -98 -32q-44 -20 -80 -53t-47 -82q-2 -9 -3.5 -19t0.5 -19l7 -23l1 -1v-1l4 -4q4 -2 6 -4h1q6 -2 8 -2
q1 -1 6 -1q2 0 5 -1q16 -3 37 -1q14 1 20.5 2l19.5 3t25 5t25 6q29 7 57 15.5t56 18.5q56 19 109.5 41t107.5 46q22 10 43.5 19.5t42.5 20.5q16 8 31.5 14.5t32.5 8.5z" />
    <glyph glyph-name="d" unicode="d" horiz-adv-x="853" 
d="M832 375q11 9 24 10t24 -10q10 -9 10.5 -24t-10.5 -24q-25 -23 -53 -42t-57 -38q-29 -17 -56 -35t-56 -35q-27 -16 -59.5 -28.5t-66 -18t-66.5 0t-61 25.5q-32 22 -47 54t-19 68l-51 -31q-32 -19 -63.5 -36.5t-65.5 -31.5q-24 -11 -55.5 -22.5t-62 -14.5t-58 7t-44.5 42
q-14 28 -7 59t19 58q11 26 27.5 49t37.5 43q44 42 104 63.5t121 12.5q32 -5 54.5 -19.5t40.5 -40.5q3 -4 5.5 -7.5t5.5 -6.5q10 53 26 104t36 100q21 52 48.5 103.5t62.5 97.5t78 84t96 62q13 6 28 11t29.5 6.5t28.5 -3t26 -16.5q19 -19 20.5 -46t-5.5 -50
q-17 -56 -46.5 -108t-63.5 -99q-62 -86 -138 -162.5t-162 -141.5v-2q-1 -6 -1.5 -11.5t-0.5 -11.5q0 -20 3 -39.5t11.5 -35.5t23 -27.5t37.5 -14.5q25 -3 49 2t47 15t45 23t42 26q42 26 84 51.5t81 55.5zM670 857q-41 -29 -73.5 -67t-58.5 -81t-46 -89t-36 -92
q-9 -26 -17.5 -53t-14.5 -55q63 65 125 129t113 139q28 41 51.5 84.5t38.5 91.5q6 18 6 34q0 1 -0.5 1.5t-0.5 1.5q-4 0 -7 -1q-21 -5 -42 -18t-38 -25zM206 271q23 13 44.5 26t43.5 27l34 24q-4 5 -8.5 8.5t-7.5 7.5q-8 8 -14 16.5t-14 16.5q-19 20 -46 23t-52 -1
q-45 -6 -85 -29t-68 -58q-8 -11 -20 -31.5t-18.5 -41.5t-2 -38t29.5 -20q23 -3 48 6t45 18l46 22t45 24z" />
    <glyph glyph-name="e" unicode="e" horiz-adv-x="542" 
d="M547 384q11 4 18 -5.5t2 -19.5q-11 -22 -31.5 -38.5t-39.5 -30.5q-28 -22 -57 -43t-59 -40q-27 -18 -55 -35t-58 -30.5t-61 -23t-63 -11.5q-34 -3 -65.5 7t-55.5 30.5t-39 49.5t-15 65q-1 27 6.5 53.5t17.5 52.5q11 25 24.5 47.5t32.5 42.5q16 16 37.5 28.5t45 18t47 3
t44.5 -17.5q22 -16 27.5 -36.5t0 -41.5t-20 -40t-33.5 -31q-33 -20 -72.5 -20.5t-72.5 17.5q-7 -17 -11.5 -34.5t-4.5 -34.5q0 -16 5 -29t14 -26q2 -5 11 -12q0 -3 5 -5q1 0 2.5 -1.5t2.5 -1.5q6 -4 9 -5q1 -1 2 -1q0 -1 1 -1q5 -2 9 -3t9 -2q2 0 3 -0.5t3 -0.5t4.5 -0.5
t4.5 -0.5h10.5t11.5 1h8.5t8.5 2l22 4q12 3 24 6.5t23 7.5q51 17 96.5 43.5t89.5 55.5l77 54q13 10 26 19t29 14zM174 452q-21 2 -41 -8.5t-34 -24.5q-13 -13 -18 -23t-13 -27q18 -6 37 -8.5t37 0.5t33 12t25 26q12 20 5 35.5t-31 17.5z" />
    <glyph glyph-name="f" unicode="f" horiz-adv-x="478" 
d="M373 230q-41 -19 -84.5 -29t-88.5 -10q-24 0 -49 2.5t-49 8.5q3 -24 5.5 -48.5t4.5 -48.5q4 -63 3.5 -126t-12.5 -126q-4 -20 -10 -41t-16 -40.5t-24 -36t-34 -26.5q-20 -11 -43.5 -11.5t-43.5 12.5q-26 16 -39.5 43.5t-21.5 55.5q-10 36 -12.5 73t0.5 74.5t10.5 74.5
t17.5 73q23 85 57.5 166t73.5 159q39 80 80.5 159.5t89.5 154.5q20 31 44.5 58.5t55.5 48.5q13 9 31.5 20t38 17t38.5 4t33 -18q15 -17 16.5 -37t-4.5 -40t-17 -39t-21 -34q-24 -35 -53 -67t-58 -63q-32 -35 -65.5 -68.5t-68.5 -67.5q-23 -23 -45.5 -44.5t-46.5 -42.5
q12 -8 15 -24q3 -17 6.5 -35.5t5.5 -36.5q7 -2 13.5 -4t13.5 -4q61 -13 126 -4q67 10 122.5 41.5t106.5 74.5q10 8 19 6t15 -9t7.5 -17t-3.5 -19q-24 -38 -61.5 -64.5t-78.5 -44.5zM46 -49q5 70 0.5 139t-13.5 139q-4 1 -8 5q-5 3 -9.5 6.5t-9.5 8.5q-24 -60 -42.5 -121
t-28.5 -124q-5 -26 -8 -54.5t-2.5 -57t6.5 -56t20 -51.5q3 -5 6.5 -9t6.5 -7q3 -1 6 -4h9q2 0 3 1q2 1 4 1q2 1 4.5 2.5t1.5 0.5q0 2 2 2q2 1 5 4.5t3 2.5l7 8q2 4 4 6l1 1q19 35 24.5 75t7.5 82zM331 809q-29 -18 -51 -43t-40.5 -53.5t-34 -59t-31.5 -58.5l-32 -60t-31 -60
l15 16q32 33 64.5 67.5t64.5 69.5q29 32 57.5 64.5t51.5 69.5q3 5 9 14.5t11 20t7 20t-2 15.5q-2 4 -10.5 1.5t-18 -7.5t-18 -10t-11.5 -7z" />
    <glyph glyph-name="g" unicode="g" horiz-adv-x="707" 
d="M704 375q6 7 14.5 9t15.5 -0.5t11 -9t1 -16.5q-11 -32 -31 -57.5t-46.5 -46t-56 -37t-58.5 -29.5q-75 -35 -152 -65.5t-154 -62.5l-26 -11q-14 -51 -28.5 -100t-31.5 -98q-23 -65 -52.5 -125t-71.5 -114q-21 -27 -46.5 -53.5t-54 -48.5t-61 -37t-68.5 -21q-35 -5 -70 0.5
t-63.5 22t-48.5 44t-24 65.5q-4 32 3.5 64t22.5 62t34.5 57.5t39.5 50.5q44 50 97.5 89.5t112 71.5t120.5 58.5t124 51.5q17 51 36 102t42 101l-17 -10q-28 -18 -57 -34.5t-58 -33.5q-25 -13 -51 -26.5t-54 -15.5q-29 -3 -50 14t-24 46q-2 24 6 47.5t22 46t31.5 41.5
t34.5 34q18 16 40.5 32t47.5 28t50.5 18.5t51.5 3.5q32 -3 56 -20.5t35 -44.5q18 31 39 60q6 9 13.5 10t14 -3t9.5 -11.5t-1 -16.5q-18 -42 -36.5 -81.5t-34.5 -81.5q-17 -41 -30.5 -81.5t-26.5 -82.5q0 -2 -0.5 -3t-0.5 -3q66 27 131.5 54t130.5 56q28 12 55.5 26.5
t53.5 31.5t48.5 37.5t40.5 45.5zM117 -31q3 11 6.5 21.5t7.5 21.5q-51 -21 -101.5 -44t-98.5 -50.5t-91.5 -60.5t-80.5 -73q-21 -23 -38.5 -47.5t-30.5 -52.5q-11 -23 -17 -50.5t3 -52.5q8 -24 30 -35t45 -13q60 -3 112 31q52 33 91.5 79.5t69.5 100t52.5 111.5t40.5 114z
M197 347q17 11 34.5 23.5t36.5 22.5q-10 23 -36 32q-24 9 -51 0.5t-49 -19.5q-41 -22 -75.5 -52.5t-55.5 -72.5q-4 -9 -8 -18.5t-5 -20.5q0 -4 1 -5q5 -1 13 3q24 7 47 20.5t45 25.5q26 14 51.5 29.5t51.5 31.5z" />
    <glyph glyph-name="h" unicode="h" horiz-adv-x="797" 
d="M767 381q14 7 25.5 2.5t17 -14t3.5 -22t-14 -21.5q-34 -24 -69.5 -46t-70.5 -43q-39 -24 -81 -45t-88 -29q-18 -3 -39 -3.5t-41.5 4t-38.5 14.5t-30 27q-19 27 -14 59t18 60q9 20 23.5 44t16.5 43q0 2 -0.5 7t0.5 2v2q-2 3 -4 4.5t-7 4.5q-6 4 -8.5 5t-8.5 1
q-18 -1 -38 -8t-39 -17q-27 -14 -52 -31.5t-49 -35.5q-47 -36 -87 -76t-82 -81l-2 -18q-2 -14 -10.5 -24t-24.5 -10q-13 0 -25 10t-10 24q14 108 38 212.5t60 206.5q13 39 28 77.5t33 75.5t40 71.5t50 64.5q26 29 61.5 54.5t74.5 33.5q21 4 42 0t37.5 -15.5t25 -30
t4.5 -42.5q-4 -20 -13 -40t-17 -39q-17 -38 -41 -77q-22 -38 -47 -73.5t-52 -70.5q-48 -61 -103.5 -118t-118.5 -105q-5 -24 -9.5 -48t-9.5 -48l32 36q27 28 55 54.5t58 51.5q19 16 41.5 32.5t47 30.5t50.5 23.5t52 9.5q22 1 43.5 -9.5t34.5 -28.5q17 -24 13 -50.5
t-15 -50.5q-11 -23 -24.5 -46t-17.5 -49q-2 -18 9.5 -26t28 -10.5t35 -1t29.5 4.5q38 10 73 28t68 39.5t65.5 43.5t67.5 40zM192 771q-39 -63 -65 -132t-48 -140l-18 -61q43 44 83.5 89t77.5 95q23 31 43.5 63t39.5 66q10 17 19 35.5t17 36.5q7 15 14.5 31t10.5 32
q1 7 -2 10t-8.5 4t-11.5 0t-10 -2q-16 -5 -30.5 -13.5t-28.5 -18.5q-25 -19 -45.5 -43.5t-37.5 -51.5z" />
    <glyph glyph-name="i" unicode="i" horiz-adv-x="611" 
d="M115 481q-7 -7 -15 -6t-13.5 6.5t-6.5 13.5t6 15q17 17 35.5 28.5t41.5 19.5q7 2 12 -1t7 -8.5t1 -11.5t-7 -10q-16 -11 -31.5 -22t-29.5 -24zM523 271q-29 -14 -57.5 -28t-57.5 -27q-48 -20 -95.5 -38.5t-98.5 -30.5q-41 -10 -83 -14.5t-84 4.5q-23 5 -42.5 17t-34 28.5
t-22 38t-4.5 45.5q2 26 12.5 50.5t26.5 46.5q6 9 14 19t17.5 18.5t20 14.5t22.5 6q13 1 19 -9t4 -21q-2 -13 -11 -22t-17 -19q-14 -18 -24 -36q-9 -17 -15 -38t4 -39q7 -12 19 -19t26.5 -10.5t29.5 -4t28 0.5q36 2 71 11.5t69 20.5q44 15 85 32.5t83 37.5q23 11 45 21.5
t44 21.5q23 11 46 21t48 15q9 1 16.5 -2.5t12 -10t4 -14.5t-7.5 -15q-24 -25 -53.5 -41t-59.5 -31z" />
    <glyph glyph-name="j" unicode="j" horiz-adv-x="430" 
d="M412 373q6 9 15 11.5t16.5 -0.5t11 -10t-0.5 -18q-13 -32 -34 -57t-46.5 -46t-54 -37.5t-57.5 -29.5q-75 -35 -152 -65.5t-154 -62.5l-29 -12q-14 -54 -29.5 -107.5t-35.5 -106.5q-23 -64 -54 -123t-74 -113q-22 -27 -48 -52.5t-55.5 -45.5t-62.5 -33.5t-69 -17.5
q-35 -3 -69 5t-61 27t-44 47.5t-18 66.5q-1 33 8 64.5t24.5 60.5t35.5 55.5t41 49.5q45 49 98 87.5t111.5 70t119.5 57.5t122 50q9 28 18.5 56t20.5 56l22 58t25 57q10 20 21.5 38t28.5 32q8 6 16 5.5t13.5 -6t6.5 -13.5t-6 -16q-17 -20 -26.5 -46t-17.5 -51
q-11 -34 -21 -68t-20 -69q69 28 136.5 55t135.5 58q53 25 105 57.5t87 81.5zM-159 11q-51 -21 -101.5 -44t-98 -50.5t-91.5 -60t-81 -72.5q-43 -46 -69 -100q-11 -22 -17 -47t0 -50q7 -29 29 -41.5t49 -13.5t54.5 6.5t46.5 18.5q54 30 94 78t71 100q32 53 54 109t42 114z
M16 451q-8 -2 -14.5 2t-9.5 10.5t-1.5 13t9.5 11.5q12 7 24.5 12.5t24.5 13.5q13 7 24.5 14t25.5 8q13 0 18.5 -10.5t0.5 -21.5q-7 -14 -20.5 -21t-26.5 -13q-14 -6 -27.5 -11.5t-27.5 -7.5z" />
    <glyph glyph-name="k" unicode="k" horiz-adv-x="823" 
d="M823 384q14 5 24.5 -6.5t6.5 -24.5q-8 -26 -28 -44t-40 -35q-20 -15 -40 -29t-42 -25q-78 -44 -165.5 -62.5t-176.5 -13.5q-42 2 -80 12t-75 29q-26 14 -52.5 32.5t-43.5 44.5q-21 -20 -41.5 -41t-42.5 -41l-4 -23q-3 -14 -17 -21.5t-28 -3.5q-16 4 -21.5 17t-3.5 27
q8 56 21 111t29 109q16 57 34 113t39 112q17 46 36 93t41 93t48 88.5t59 80.5q15 17 33.5 34t39.5 30t44.5 19.5t47.5 1.5q26 -5 41 -19.5t22 -35t6.5 -43.5t-5.5 -44q-23 -90 -68 -173t-102 -155q-52 -67 -115 -125t-135 -104q-6 -23 -11.5 -46t-10.5 -46q32 38 67.5 73
t72.5 67q29 25 62.5 48.5t71.5 33.5q19 5 39 3.5t36 -10.5t24.5 -25.5t4.5 -41.5q-5 -29 -22.5 -50t-41 -36t-51 -25.5t-51.5 -17.5q-16 -5 -32.5 -9.5t-33.5 -7.5q16 -14 34 -23.5t36 -17.5q34 -14 70.5 -19.5t74 -4.5t74.5 7t72 15q76 21 141 61q16 11 31.5 21.5
t29.5 22.5q17 14 31.5 28t35.5 22zM251 849q-45 -79 -78 -163.5t-61 -171.5l-27 -90q60 48 112.5 101t97.5 116q24 34 45.5 70t39.5 74q17 37 32.5 76.5t23.5 80.5q2 14 1.5 31t-15.5 25q-14 7 -32 -0.5t-29 -15.5q-36 -23 -63 -60t-47 -73zM305 418q-24 -13 -44 -27
q-33 -23 -63 -48q28 7 52 15q19 6 37 13t35 17q9 5 12 7t9 8q4 5 10 12t7 15q-2 1 -4 1t-1 0h-9l-1 1h-1q-6 -2 -8 -2q-13 -3 -17 -5z" />
    <glyph glyph-name="l" unicode="l" horiz-adv-x="707" 
d="M707 384q9 3 16 -1t10.5 -10.5t3 -15t-6.5 -14.5q-29 -29 -66 -47.5t-75 -34.5q-35 -15 -71.5 -28.5t-72.5 -25.5q-39 -12 -78.5 -24.5t-79.5 -21.5q-41 -10 -83 -13t-83 8q-32 9 -58.5 28.5t-44.5 46.5q-21 34 -23 72.5t4 76.5q11 74 33.5 144.5t51.5 139.5
q27 63 61 123t76 114q19 24 41 46t50 37q13 7 29.5 13t33 7t31.5 -4.5t27 -19.5q8 -10 13 -23.5t7 -28.5t2 -30t-1 -28q-2 -29 -10 -55t-21 -51q-30 -60 -72 -112.5t-89.5 -101.5t-96.5 -96.5t-93 -95.5q-2 -14 -1.5 -20t1.5 -19q1 -28 16.5 -48.5t38 -33.5t49 -18.5
t50.5 -3.5q33 3 65 11.5t64 18.5q32 9 62.5 18.5t61.5 20.5q28 10 55 21t54 23q29 14 58 29.5t61 26.5zM128 576q-11 -31 -19.5 -62.5t-16.5 -63.5q0 -1 11 9.5t28.5 28t39.5 39t43 43t39 40.5t28 31q28 32 50.5 64.5t41.5 69.5q11 21 19 44t9 46v20t-1.5 26.5t-6 23.5
t-13.5 10q-11 0 -23 -5.5t-23 -13.5t-20.5 -17.5t-16.5 -17.5q-18 -20 -32.5 -41.5t-28.5 -44.5q-32 -55 -59.5 -112t-48.5 -117z" />
    <glyph glyph-name="m" unicode="m" horiz-adv-x="1023" 
d="M1010 375q11 12 23.5 10.5t21.5 -10.5t11 -22t-9 -25q-35 -37 -74.5 -68t-84.5 -54q-77 -39 -166 -57q-47 -10 -96 -13.5t-94 17.5q-42 20 -62.5 58t-12.5 83q4 22 15.5 45t17.5 46q-60 -41 -112.5 -91.5t-94.5 -110.5q-8 -11 -18.5 -13.5t-20 1.5t-15 13.5t-3.5 22.5
q8 44 16 87t16 87q-74 -51 -142 -107.5t-133 -119.5q-7 -7 -15.5 -7.5t-15 4t-10.5 12.5t-2 17q8 45 20 98t29 95q4 10 12.5 13t16.5 1t12.5 -8.5t1.5 -16.5q-8 -24 -16.5 -56.5t-13.5 -57.5q65 63 136 117.5t146 102.5q9 6 17.5 4.5t15 -7t9.5 -13.5t2 -17q-6 -31 -11 -62
l-10 -62q85 94 197 159q14 9 27.5 2t19.5 -21q8 -20 7 -40t-6.5 -39t-13.5 -38t-14 -38q-5 -15 -5 -29t8 -28q10 -14 24 -22t30 -12q19 -5 40 -5t42 3t41.5 8t39.5 10q150 41 256 154z" />
    <glyph glyph-name="n" unicode="n" horiz-adv-x="860" 
d="M852 380q14 9 26 4.5t18.5 -15.5t4.5 -25t-15 -23q-70 -48 -143.5 -91t-154.5 -70q-35 -11 -73.5 -19t-76.5 -10q-36 -2 -70 12.5t-52 46.5q-17 30 -15.5 62.5t9.5 64.5q3 11 6 22.5t7 22.5q2 6 3.5 14t3.5 15l-28 -15q-64 -36 -122 -79.5t-112 -93.5q-12 -11 -25.5 -19
t-31.5 -4q-13 4 -23 13t-14 22q-5 16 0 34t10 34q5 18 10 35.5t10 35.5q2 7 8 10t12 2.5t11 -5.5t5 -12q0 -41 -7 -79q0 -2 -1 -10l-2 -16q23 27 52 50t57 44q27 20 54 39t56 36q14 9 29 18t31 17q14 7 27.5 9.5t28.5 -5.5q18 -9 23.5 -23t4.5 -30.5t-5.5 -33t-7.5 -31.5
q-3 -12 -7 -26.5t-6.5 -29t-1.5 -28.5t9 -26q8 -13 21 -18t27 -5.5t29 2l27 4.5q34 6 67 14.5t65 22.5q65 26 124 62t118 74z" />
    <glyph glyph-name="o" unicode="o" horiz-adv-x="583" 
d="M575 380q9 5 17.5 2.5t13.5 -9t5 -15.5t-7 -16q-32 -35 -74 -56t-87 -34q-92 -27 -189 -21l-58 7q-19 -29 -45.5 -53t-58.5 -34q-19 -6 -38.5 -5.5t-36 8t-28 21.5t-15.5 35t-0.5 43.5t8.5 42.5q4 14 8.5 28t10.5 27q-7 21 -6 46q1 22 10 38.5t23.5 28.5t33.5 18.5
t39 8.5q18 1 40 -1.5t42 -10t35.5 -20.5t21.5 -33q6 -21 3.5 -44.5t-7.5 -43.5q-4 -21 -12 -43q32 -4 63.5 -3.5t60.5 3.5q63 8 118 31.5t109 53.5zM61 411q-8 -13 -6 -25.5t10.5 -23.5t20 -20t21.5 -14q30 -14 61 -23q3 8 5.5 15t4.5 15q4 15 7 32.5t1 33.5q-2 15 -14 19.5
t-25 7.5q-10 2 -22 3t-24 -0.5t-23 -6t-17 -13.5zM121 232q5 5 9 9.5t8 9.5q-31 8 -59 21.5t-48 33.5q-2 -5 -3 -10.5t-2 -11.5q-2 -8 -4 -18t-3 -20t0.5 -20t6.5 -17q8 -12 21.5 -13t27.5 5t26.5 15t19.5 16z" />
    <glyph glyph-name="p" unicode="p" horiz-adv-x="700" 
d="M689 382q10 4 19.5 1.5t14.5 -9t5.5 -16t-6.5 -18.5q-10 -12 -25 -20.5t-29 -16.5t-28.5 -14.5t-28.5 -13.5q-62 -27 -128 -45q-31 -8 -62 -13t-63 -10q-19 -24 -42.5 -43t-52.5 -30q-15 -6 -31 -9.5t-31.5 -3t-30 6t-25.5 18.5q-7 8 -7 16t5 14q1 15 12.5 25t27.5 16
t33 9.5t29 6.5l56 11q19 22 29 47q9 21 12.5 44.5t-0.5 46.5q0 1 -2 7q-2 0 -4 0.5t-4 0.5q-6 2 -13 1.5t-13 -1.5q-22 -3 -47 -16q-53 -29 -94 -79t-75 -99q-73 -105 -128 -218q-22 -47 -39 -91q-2 -10 -4.5 -20t-5.5 -20q-11 -48 -22 -95.5t-22 -95.5q-5 -24 -9.5 -47.5
t-10.5 -46.5q-5 -23 -12 -49t-26 -41q-9 -8 -21.5 -7.5t-18.5 12.5q-14 25 -9.5 56t9.5 58q5 28 11.5 55t12.5 54q23 97 48.5 192t54.5 191q14 48 29 95t32 95q8 24 16.5 47.5t17.5 47.5q9 23 17.5 46.5t22.5 44.5q6 10 14.5 12t16.5 -1.5t13 -12t4 -18.5q-5 -29 -14 -56.5
t-18 -54.5q-8 -26 -15.5 -51.5t-15.5 -51.5l-18 -58q52 85 116 164q23 28 48.5 53t56.5 43q30 18 68.5 27.5t73.5 -2.5q18 -6 28 -19t15 -29t5.5 -34t-1.5 -34q-3 -39 -20 -76q9 2 18 3.5t18 3.5q35 8 69.5 19.5t67.5 25.5q37 16 68 33q14 8 28.5 18.5t29.5 18.5z" />
    <glyph glyph-name="q" unicode="q" horiz-adv-x="714" 
d="M712 378q8 7 17.5 6.5t16 -5.5t9 -14t-2.5 -19q-14 -27 -33.5 -50.5t-43 -44t-49.5 -38.5t-51 -34q-46 -30 -93 -57t-93 -57q-88 -57 -154 -139q-66 -83 -112 -178.5t-86 -192.5q-6 -13 -17.5 -15.5t-23 2.5t-18.5 15.5t-2 23.5q58 162 115 323t116 324q-14 -8 -27 -15
t-24 -12q-48 -23 -104 -34t-108 4q-24 7 -40.5 24t-15.5 43q1 25 14.5 47.5t28.5 40.5q33 38 80.5 65.5t96.5 37.5q42 9 85 -2t69 -48l42 114q4 11 13.5 14.5t18.5 1t14.5 -10t1.5 -18.5q-44 -133 -88 -263.5t-89 -262.5q6 8 12 15.5t12 14.5q35 42 76 77t87 64t93 56.5
t93 56.5q45 30 83 63q21 18 40.5 38t40.5 39zM122 252q22 11 43 23t40 27q11 8 21 18.5t18 21.5q-2 2 -2 3q-16 19 -37 28t-43.5 9.5t-45.5 -6t-43 -16.5q-21 -11 -41.5 -23.5t-37.5 -29.5q-19 -18 -32 -36q-3 -5 -10.5 -17t-4.5 -19q2 -5 11.5 -6.5t14.5 -2.5q23 -3 51 -1
q25 2 50 9t48 18z" />
    <glyph glyph-name="r" unicode="r" horiz-adv-x="608" 
d="M608 381q7 5 14 4t12.5 -5.5t8.5 -11.5t1 -14q-3 -12 -11.5 -26t-18.5 -27.5t-21.5 -25.5t-20.5 -20q-21 -18 -43.5 -34.5t-45.5 -32.5q-21 -15 -44.5 -30.5t-49 -27t-52.5 -15t-54 7.5q-17 7 -30.5 19t-23.5 28t-16.5 33.5t-9.5 35.5q-1 5 -1.5 10.5t-0.5 10.5
q0 1 -0.5 3.5t-0.5 4.5q-1 2 -1 4.5t-1 3.5q0 1 -2 7l-4 6l-4 5q-2 0 -5 3l-8 4l-6 3q-1 1 -4 2t-4 1q-36 13 -74 19t-76 10q-26 4 -50.5 10t-43.5 26t-23 45t5 50q17 47 57 82.5t85 52.5q23 8 48 6t43 -21q16 -17 17.5 -40.5t-3.5 -45.5q-7 -29 -20 -57t-33 -53
q20 -3 39 -7t38 -10q32 -10 59 -29.5t35 -54.5q2 -7 2.5 -14t1.5 -14v-5l2 -10q3 -13 8 -25t13 -22q11 -14 25.5 -15.5t30.5 3.5q20 5 36.5 15.5t32.5 21.5t31.5 22t30.5 22t31.5 25.5t33.5 30.5t33.5 30.5t31.5 25.5zM-26 473q-4 -6 -8.5 -13.5t-7 -15.5t-1.5 -15.5
t8 -13.5q14 -12 33.5 -13t36.5 -3q22 25 36 52q8 17 16.5 39.5t6.5 42.5q-2 10 -8.5 12.5t-14.5 1t-16.5 -6t-14.5 -7.5q-40 -23 -66 -60z" />
    <glyph glyph-name="s" unicode="s" horiz-adv-x="549" 
d="M562 384q7 3 13 0t9 -9t3 -13t-5 -12q-24 -26 -54.5 -43t-64 -30.5t-67.5 -24.5t-66 -23q-23 -9 -45 -19.5t-44 -21.5q4 -23 1 -50q-5 -33 -22.5 -63t-49.5 -45q-19 -8 -39.5 -10t-39.5 9q-17 10 -25 27.5t-6 36.5q1 21 12.5 38.5t27 31.5t34 25t35.5 21q0 1 1 1
q-13 26 -36.5 45.5t-48.5 33.5q-15 9 -32 16t-33.5 15t-30.5 19t-23 28q-9 18 -10 38.5t4.5 40.5t15 39t20.5 34q9 12 24.5 28.5t33.5 28.5t37 15.5t35 -11.5q14 -12 16.5 -30t-2 -37t-13.5 -37.5t-17 -31.5l-2 -4q-5 -8 -12.5 -9t-13.5 2.5t-8.5 10.5t1.5 15q5 12 9.5 24
t6.5 25q3 10 3 22q0 2 -0.5 2.5t-0.5 1.5q-6 -4 -7 -4l-6 -5q-5 -3 -8.5 -6.5l-7.5 -7.5q-7 -7 -13.5 -14.5t-11.5 -16.5q-10 -15 -19.5 -38.5t-3.5 -41.5q3 -8 9.5 -14.5t15 -11t17.5 -8t16 -6.5q45 -19 85.5 -49t63.5 -72q26 14 52.5 25.5t54.5 22.5q26 9 51.5 17t50.5 19
q34 13 64.5 31.5t65.5 29.5zM151 92q14 10 21.5 26.5t8.5 33.5q-4 -2 -12 -8q-6 -4 -14.5 -9.5t-16.5 -11.5t-13 -13.5t-5 -16.5q0 -5 0.5 -7t5.5 -3q7 -1 13.5 2t11.5 7zM112 444q1 0 2 1q1 0 1 -0.5t-1 -0.5h-2z" />
    <glyph glyph-name="t" unicode="t" horiz-adv-x="525" 
d="M521 378q8 7 17 7t15.5 -5t9 -14t-2.5 -18q-20 -36 -48 -67.5t-61 -58.5t-69 -49t-73 -39q-31 -14 -68.5 -29t-76.5 -22t-76 -1t-67 33q-29 26 -38 61t-7 73.5t10.5 77t16.5 70.5q14 60 31.5 118t38.5 115q-45 -2 -90 -4.5t-90 -6.5q-9 -1 -14.5 5t-6.5 13.5t2.5 14.5
t12.5 8q51 8 102.5 13t102.5 9q70 172 165 329q7 11 17.5 12.5t19.5 -3.5t13 -15t-3 -22q-77 -141 -135 -296q11 0 22.5 0.5t22.5 1.5q27 1 55.5 2.5t54.5 -4.5q10 -2 15.5 -10.5t5.5 -18t-5 -17.5t-16 -10q-26 -5 -54 -2.5t-56 2.5q-16 1 -32 1h-32q-20 -60 -36.5 -120
t-30.5 -121q-8 -34 -15.5 -67.5t-9.5 -68.5q-1 -11 -1 -23.5t2.5 -24.5t8.5 -22t17 -16q12 -6 25.5 -7.5t28 0t28 5.5t25.5 7q32 8 61 19t58 25q61 31 110.5 73t99.5 87z" />
    <glyph glyph-name="u" unicode="u" horiz-adv-x="830" 
d="M830 385q10 4 18.5 2t13 -8t5 -14.5t-5.5 -17.5q-14 -18 -34 -34t-39 -30l-13 -9q-21 -14 -43.5 -27.5t-48.5 -26.5q-48 -25 -100 -38.5t-105 -9.5q-21 1 -43 7.5t-40 18t-30.5 28.5t-16.5 41q-3 17 -1.5 34t5.5 33l-18 -14q-32 -29 -71 -57.5t-78 -45.5
q-17 -7 -37.5 -11.5t-39.5 -4.5q-25 0 -47.5 9t-39.5 29q-13 17 -17 41t-3 45v5q1 16 2.5 27.5t5.5 30.5q3 9 10.5 12.5t15 2t13 -8t5.5 -16.5v-23.5t2 -30t5.5 -29t10.5 -20.5q7 -5 16.5 -8t18.5 -3q23 0 47 10.5t41 21.5q30 19 58.5 43t54.5 50l29.5 29.5t22.5 23.5l10 12
v-1q10 12 21.5 23.5t26.5 14.5q13 3 23.5 -5t10.5 -21q1 -13 -5.5 -24.5t-14.5 -21.5q-1 -4 -2.5 -8t-2.5 -8q-2 -8 -4.5 -16.5t-4.5 -16.5q0 -2 -1 -4.5t-1 -4.5q-5 -20 -9.5 -40t-1.5 -39q2 -18 14 -28.5t28.5 -15.5t34.5 -6t32 0q45 3 87 18.5t80 37.5q17 9 35 21.5
t38 25.5q12 7 23 17q14 11 27.5 19t26.5 14z" />
    <glyph glyph-name="v" unicode="v" horiz-adv-x="671" 
d="M666 383q9 5 17.5 2.5t14 -9t5.5 -15.5t-7 -17q-39 -40 -88.5 -65t-104.5 -38q-49 -11 -99 -11q-29 0 -58 4.5t-55 14.5l-25 13q-14 -11 -30 -22t-34 -22q-20 -12 -40.5 -22t-38.5 -16q-21 -7 -44.5 -12.5t-46.5 2.5q-16 6 -27 17t-17.5 25.5t-9.5 30.5t-3 32v16.5
t1 14.5q5 36 19 77t34 71q7 9 17 10t18 -3t12 -13t-1 -20q-14 -31 -24.5 -64t-15.5 -66q-2 -14 -1 -28t6 -27q5 -14 15.5 -14.5t24.5 3.5q36 11 71.5 30t65.5 43q-14 18 -18.5 41t-1.5 49q3 22 12 45t21.5 44.5t28.5 40.5t34 34q14 11 29.5 19.5t32.5 8.5q15 0 30 -9
q17 -10 24.5 -26.5t7.5 -34.5q0 -16 -5 -34q-11 -41 -32.5 -80t-48.5 -73l-12 -16q17 -6 35.5 -8.5t33.5 -3.5q38 -2 74 4t70.5 17.5t68 27t65.5 32.5zM296 458q-11 -17 -20.5 -39t-9.5 -44q0 -10 3 -19q5 5 9 11.5t8 11.5q17 23 31.5 52.5t24.5 57.5q0 1 0.5 1.5t0.5 1.5
q2 5 3.5 11t2.5 11l-4 -3q-15 -12 -27.5 -25.5t-21.5 -27.5z" />
    <glyph glyph-name="w" unicode="w" horiz-adv-x="735" 
d="M734 384q9 3 16 -0.5t10.5 -10t3 -14.5t-6.5 -14q-31 -30 -74 -50t-84 -33q-33 -11 -70.5 -16t-71.5 8q-14 6 -28 16q-21 -29 -46.5 -56.5t-60.5 -40.5t-68.5 1t-50.5 46q-7 13 -10 25.5t-4 25.5l-38 -36q-13 -11 -28.5 -24t-33 -23t-36 -14.5t-36.5 2.5q-21 7 -31.5 22
t-14.5 33.5t-2 38.5t6 38q10 40 26.5 78t38.5 73q6 9 14.5 10t15.5 -3t10 -12t-2 -17q-32 -58 -48 -119q-2 -6 -5.5 -21.5t-4.5 -31t2.5 -27t17.5 -11.5q12 1 27 12.5t24 18.5q23 18 43 37q44 40 78 89q6 9 15.5 11t18 -1t13.5 -11t1 -19q-5 -14 -10 -29.5t-7 -32t0.5 -32.5
t11.5 -29t20.5 -16t23.5 0.5t23 11t20 16.5q15 15 28.5 31.5t26.5 33.5q-8 23 -8 49.5t5.5 53t16 50.5t22.5 42q11 15 24 30.5t31 21.5q16 5 31 0t23 -19q9 -15 8.5 -33.5t-6.5 -36.5t-14.5 -35.5t-15.5 -31.5q-11 -23 -23 -45.5t-26 -43.5q13 -14 34.5 -14t38.5 3
q23 4 44.5 11t42.5 16q27 11 53.5 25.5t55.5 22.5zM453 411q5 8 8.5 16t8.5 16l10 24l10 24q-2 -1 -4 -5q-4 -5 -7.5 -10.5t-6.5 -10.5q-11 -24 -17 -47z" />
    <glyph glyph-name="x" unicode="x" horiz-adv-x="563" 
d="M600 346q-26 -36 -62 -64.5t-72 -52.5q-35 -23 -72.5 -36.5t-78.5 -13.5q-20 0 -38 3q-39 7 -75 27t-65 48q-23 -26 -43 -53t-40 -55q-15 -20 -29 -39.5t-30 -38.5q-6 -8 -15.5 -8t-18 4.5t-13 13t-0.5 17.5q23 58 62 109t83 97q-28 36 -49 74.5t-36 74.5q-4 9 0.5 16
t12 10t16 1.5t12.5 -9.5q35 -67 85 -126q45 44 98 82.5t110 70.5q8 4 15.5 0t12 -11t4.5 -15.5t-6 -14.5q-48 -34 -97 -74.5t-93 -83.5q25 -22 52.5 -37t59.5 -20q30 -5 58 2t54.5 21t51 33t47.5 37q17 14 32 26t31 22q8 6 17 4t15 -8.5t8 -15.5t-4 -17z" />
    <glyph glyph-name="y" unicode="y" horiz-adv-x="695" 
d="M716 356q-11 -32 -31 -57.5t-46.5 -46t-56 -37t-58.5 -29.5q-75 -35 -152 -65.5t-154 -62.5l-26 -11q-14 -51 -28.5 -100t-31.5 -98q-23 -65 -52.5 -125t-71.5 -114q-21 -27 -46.5 -53.5t-54 -48.5t-61 -37t-68.5 -21q-35 -5 -70 0.5t-63.5 22t-48.5 44t-24 65.5
q-4 32 3.5 64t22.5 62t34.5 57.5t39.5 50.5q44 50 97.5 89.5t112 71.5t120.5 58.5t124 51.5q31 91 66 176q-27 -24 -57 -45q-16 -11 -34.5 -21.5t-38.5 -18t-40.5 -9.5t-39.5 4q-18 6 -30.5 19.5t-14.5 33.5q-1 21 7 42.5t16 40.5q17 41 41 77t56 67q8 8 16.5 7t14 -7t7 -15
t-5.5 -17q-30 -35 -52.5 -75.5t-35.5 -85.5q-4 -11 -5 -19q-2 -6 -2 -10q4 -3 11 -3t12 1q21 4 41.5 15.5t37.5 23.5q29 19 55 43t50 49q23 23 43.5 47.5t45.5 44.5l17 24q6 9 13.5 10t14 -3t9.5 -11.5t-1 -16.5l-3 -7q2 -8 0 -13q-5 -14 -12.5 -27t-16.5 -26
q-21 -45 -39 -90q-17 -41 -30.5 -81.5t-26.5 -82.5q0 -2 -0.5 -3t-0.5 -3q66 27 131.5 54t130.5 56q56 25 109 58t89 83q6 8 14.5 10.5t16 0t11.5 -9.5t0 -18zM87 -33q3 11 6.5 21.5t7.5 21.5q-51 -21 -101.5 -44t-98.5 -50.5t-91.5 -60.5t-80.5 -73q-21 -23 -38.5 -47.5
t-30.5 -52.5q-11 -23 -17 -50.5t3 -52.5q8 -24 30 -35t45 -13q60 -3 112 31q52 33 91.5 79.5t69.5 100t52.5 111.5t40.5 114z" />
    <glyph glyph-name="z" unicode="z" horiz-adv-x="603" 
d="M580 377q7 7 16.5 7t17 -4.5t10.5 -12t-1 -15.5q-15 -27 -35 -48t-43.5 -38t-47.5 -30.5t-46 -25.5l-160 -84q-4 -21 -8.5 -41.5t-10.5 -40.5q-32 -103 -96 -191.5t-152 -152.5q-23 -17 -49 -30.5t-53 -21t-55.5 -6t-55.5 16.5q-24 12 -39.5 34t-20.5 48q-5 29 5 57.5
t27 51.5q35 48 84 86t97 73q50 35 101 67t105 62l60 33q2 11 2 22.5v22.5q0 17 -3.5 37.5t-18.5 31.5q-7 6 -16 7q-18 -11 -43 -21q-11 -4 -20 0t-14.5 11.5t-6.5 17.5t4 19q11 18 27 27.5t35 12.5q18 13 30 33q6 9 11 19.5t7 21.5q1 3 0.5 6t0.5 5h-1q-4 -4 -13.5 -5.5
t-14.5 -3.5l-23 -10q-26 -11 -48 -26q-24 -14 -45.5 -31t-41.5 -36q-5 -5 -12.5 -3.5t-13.5 6t-9 11.5t2 13q23 32 54.5 55t64.5 44q17 11 34.5 19t35.5 16q17 8 35.5 9.5t34.5 -12.5q15 -12 19.5 -28.5t3 -33.5t-8.5 -34.5t-15 -30.5l-15 -22q27 -21 41 -56q7 -18 9.5 -37
t1.5 -39l85 44l50 26t49 29q22 15 49.5 33t46.5 36zM-15 -244q73 52 128 125t85 158q4 11 7.5 21.5t6.5 21.5q-85 -48 -165.5 -100.5t-153.5 -116.5q-11 -10 -28.5 -26t-30 -35t-16 -39t12.5 -36q16 -17 36.5 -19t41.5 5t41 18.5t35 22.5z" />
    <glyph glyph-name="braceleft" unicode="{" horiz-adv-x="249" 
d="M380 762q7 -4 9 -11t-0.5 -13.5t-8.5 -9.5t-14 0q-16 7 -31 4t-27.5 -12.5t-23 -23t-17.5 -27.5q-17 -33 -26 -68t-23 -70q-14 -33 -31 -64.5t-38 -60.5q-17 -23 -35.5 -43t-38.5 -40q8 -21 8.5 -44.5t-3.5 -46.5q-5 -35 -10.5 -70t-8.5 -70q-4 -32 -7.5 -67.5t5.5 -67.5
q4 -11 10 -21t17 -16q12 -6 23.5 -6.5t22.5 -11.5q11 -13 7 -30q-6 -21 -22 -26.5t-34 -1t-35 15t-26 20.5q-26 29 -32.5 66t-4.5 75q2 42 7.5 83.5t13.5 83.5q2 13 6 29t6.5 32.5t1 32t-10.5 26.5q-8 10 -6.5 24.5t12.5 21.5q31 21 57 50t47 62.5t37 69.5t28 72
q13 38 28.5 74t47.5 62q26 21 58.5 27.5t61.5 -9.5z" />
    <glyph glyph-name="bar" unicode="|" horiz-adv-x="254" 
d="M202 793q3 9 10.5 11.5t15 0t12 -8.5t2.5 -15q-27 -118 -59.5 -233.5t-64.5 -232.5l-62 -230q-8 -30 -15.5 -60t-15.5 -60l-15 -55q-5 -17 -9 -31.5t-17 -26.5q-10 -8 -23.5 -4t-17.5 16q-5 17 -2 31.5t8 31.5l14 55l32 119q16 58 31.5 115.5t32.5 114.5q33 117 67 232.5
t76 229.5z" />
    <glyph glyph-name="braceright" unicode="}" horiz-adv-x="274" 
d="M224 774q30 -20 40 -54t4 -69q-7 -38 -21.5 -73t-26.5 -70q-12 -34 -19.5 -69.5t-7.5 -71.5q-2 -33 8 -68q2 -10 6 -19t2 -19q-2 -8 -6 -15l-8 -14q-15 -29 -26 -59.5t-21 -61.5t-20.5 -63t-25 -62t-33.5 -56.5t-45 -47.5q-14 -11 -30 -18.5t-33 -10t-33.5 1t-31.5 15.5
q-11 9 -20 25t-11.5 32.5t3.5 31.5t25 21q8 2 16.5 -0.5t11.5 -11.5t6 -22t13 -18t22 0.5t20 12.5q23 18 39.5 43.5t27.5 53.5q24 57 41 116.5t46 114.5q-20 70 -9 143t37 140q7 18 16 36.5t17 37.5t12.5 38t1.5 39q-2 10 -8 21t-15 18t-19.5 8t-20.5 -7q-6 -5 -12 -3.5
t-10.5 6t-5.5 11t4 11.5q21 22 48.5 22t51.5 -16z" />
    <glyph glyph-name="asciitilde" unicode="~" horiz-adv-x="402" 
d="M333 383q7 1 11.5 -4t6.5 -10q6 -14 2 -27.5t-14 -24.5t-22.5 -20t-22.5 -13q-24 -11 -50 -11.5t-50 10.5q-11 5 -21.5 11.5t-21.5 12t-22.5 8.5t-24.5 0q-21 -5 -39.5 -20.5t-28.5 -35.5q-3 -8 -9.5 -9.5t-12.5 1.5t-10 9t-2 14q6 27 19 49t36 37q21 13 46.5 17.5
t48.5 -1.5q13 -3 24.5 -10t23.5 -14t24.5 -11.5t26.5 -2.5q12 2 22 9t19.5 14.5t19 13.5t21.5 8z" />
    </font>
</defs>
</svg>
