<?xml version="1.0" standalone="no"?>
<!DOCTYPE svg PUBLIC "-//W3C//DTD SVG 1.1//EN" "http://www.w3.org/Graphics/SVG/1.1/DTD/svg11.dtd" >
<svg xmlns="http://www.w3.org/2000/svg" xmlns:xlink="http://www.w3.org/1999/xlink" version="1.1">
<metadata>
Created by FontForge 20161013 at Wed Nov 18 05:38:48 1992
 By ,,,
Copyright 1990-1993 Bitstream Inc.  All rights reserved.
</metadata>
<defs>
<font id="AmerTypewriterITCbyBT-Medium" horiz-adv-x="1024" >
  <font-face 
    font-family="AmerType Md BT"
    font-weight="400"
    font-stretch="normal"
    units-per-em="2048"
    panose-1="2 9 5 4 3 5 5 2 3 4"
    ascent="1638"
    descent="-410"
    x-height="995"
    cap-height="1382"
    bbox="-301 -485 2388 1935"
    underline-thickness="115"
    underline-position="-359"
    unicode-range="U+0020-F002"
  />
<missing-glyph horiz-adv-x="1229" 
d="M102 -362v1806h1024v-1806h-1024zM217 -248h795v1577h-795v-1577z" />
    <glyph glyph-name=".notdef" horiz-adv-x="1229" 
d="M102 -362v1806h1024v-1806h-1024zM217 -248h795v1577h-795v-1577z" />
    <glyph glyph-name=".null" horiz-adv-x="0" 
 />
    <glyph glyph-name="nonmarkingreturn" horiz-adv-x="645" 
 />
    <glyph glyph-name="space" unicode=" " horiz-adv-x="645" 
 />
    <glyph glyph-name="exclam" unicode="!" horiz-adv-x="645" 
d="M199 92q0 52 35 87.5t88 35.5q52 0 88 -36.5t36 -88.5q0 -50 -36.5 -86.5t-87.5 -36.5q-52 0 -87.5 36.5t-35.5 88.5zM223 1266v12q0 54 26 84.5t73 30.5q46 0 73 -31t27 -84v-12l-31 -826q-2 -55 -17 -74.5t-52 -19.5t-51.5 19t-16.5 75z" />
    <glyph glyph-name="quotedbl" unicode="&#x22;" horiz-adv-x="590" 
d="M496 1434v-553h-119v553h119zM211 1434v-553h-117v553h117z" />
    <glyph glyph-name="numbersign" unicode="#" horiz-adv-x="1575" 
d="M973 862h-264l-95 -272h263zM922 1456l-166 -471h260l168 471h143l-164 -471h307l-43 -123h-311l-94 -272h330l-43 -123h-332l-166 -469h-145l168 469h-265l-168 -469h-143l166 469h-320l43 123h320l96 272h-342l43 123h344l168 471h146z" />
    <glyph glyph-name="dollar" unicode="$" horiz-adv-x="1290" 
d="M809 207q79 6 126.5 61t47.5 142q0 85 -42.5 133t-131.5 63v-399zM576 659l-1 -469h6q48 -4 72 -4q23 0 46 1.5t48 4.5l1 433q-31 6 -90 18t-82 16zM512 844v332q-60 -13 -94.5 -59.5t-34.5 -117.5q0 -66 30.5 -103t98.5 -52zM575 821q50 -12 148 -30q16 -3 24 -4v409
q-18 3 -36 4.5t-37 1.5q-23 0 -47 -2.5t-51 -7.5zM831 70v-158q0 -48 -9 -63t-34 -15q-24 0 -35.5 18.5t-11.5 59.5v143q-12 0 -37.5 -1t-37.5 -1q-13 0 -35.5 1t-32.5 1v-143q0 -46 -10 -62t-35 -16q-24 0 -34.5 18t-10.5 60v151q-163 25 -253.5 114.5t-90.5 225.5
q0 77 37.5 122.5t99.5 45.5q47 0 78 -28.5t31 -71.5q0 -22 -8.5 -39t-24.5 -29q-12 -7 -35 -16q-29 -10 -29 -25q0 -58 55.5 -104t143.5 -57v477q-142 35 -213.5 109t-71.5 186q0 123 75.5 212t205.5 118v155q0 48 9.5 63t33.5 15q25 0 36 -18.5t11 -59.5v-139q23 2 38 3
t28 1q12 0 28.5 -1t48.5 -3v139q0 46 10 62t35 16q24 0 34.5 -18t10.5 -60v-151q115 -27 184.5 -100.5t69.5 -164.5q0 -51 -27 -82.5t-71 -31.5q-42 0 -67 19.5t-25 51.5q0 30 20.5 56.5t20.5 34.5q0 28 -37.5 57.5t-89.5 36.5v-416q152 -23 236.5 -112.5t84.5 -227.5
q0 -132 -79.5 -227.5t-219.5 -130.5z" />
    <glyph glyph-name="percent" unicode="%" horiz-adv-x="1735" 
d="M1161 383q0 -128 45.5 -201t124.5 -73q80 0 126 73t46 201q0 130 -45 203t-125 73t-126 -73.5t-46 -202.5zM1012 387q0 194 86 305t235 111t235.5 -111.5t86.5 -304.5t-87 -304.5t-237 -111.5q-148 0 -233.5 111.5t-85.5 304.5zM233 963q0 -129 47.5 -203t129.5 -74
t130 74t48 203q0 128 -48 201t-130 73t-129.5 -73t-47.5 -201zM1024 1100q-38 -28 -78 -40.5t-88 -12.5q-36 0 -74.5 18.5t-72.5 52.5q8 -41 12 -79t4 -72q0 -198 -86 -310t-238 -112q-148 0 -233.5 111t-85.5 305t86 304.5t236 110.5q114 0 247 -99q24 -19 37 -28
q78 -54 116.5 -70t78.5 -16q60 0 117.5 30t101.5 85q14 18 38 54q54 85 105 85q27 0 43.5 -10.5t16.5 -26.5q0 -7 -1 -10.5t-4 -8.5l-731 -1373q-14 -28 -29 -35.5t-50 -7.5q-25 0 -39.5 10t-14.5 27q0 4 5 16.5t14 30.5z" />
    <glyph glyph-name="ampersand" unicode="&#x26;" horiz-adv-x="1636" 
d="M412 881q-60 35 -90.5 92t-30.5 133q0 133 83 211t226 78q118 0 188 -60t70 -161q0 -70 -39.5 -113t-103.5 -43q-44 0 -70.5 22t-26.5 60q0 32 21.5 54t52.5 22q9 -1 17.5 -2.5t15.5 -3.5q-11 45 -44 70.5t-83 25.5q-70 0 -113 -50t-43 -133q0 -59 24 -97.5t71 -53.5
q11 -4 37 -9q69 -13 69 -61q0 -56 -104 -67q-26 -3 -39 -4q-109 -14 -171.5 -98t-62.5 -218q0 -159 115.5 -258.5t300.5 -99.5q202 0 326.5 102.5t124.5 267.5q0 105 -57 168.5t-150 63.5q-76 0 -119 -37.5t-43 -103.5q0 -47 24 -76t62 -29h14q-4 11 -6 21.5t-2 21.5
q0 30 18 48t48 18q40 0 59.5 -23t19.5 -72q0 -66 -48.5 -106.5t-129.5 -40.5q-94 0 -153.5 65t-59.5 170q0 130 90.5 208.5t239.5 78.5q50 0 134.5 -9t117.5 -9q149 0 219 56t70 177q0 86 -40.5 132t-115.5 46q-58 0 -92.5 -30t-34.5 -80q0 -6 1.5 -13.5t4.5 -16.5
q6 3 16 10q38 26 62 26q36 0 56 -20.5t20 -57.5q0 -53 -37.5 -84t-103.5 -31q-71 0 -117.5 52.5t-46.5 132.5q0 105 71.5 172t184.5 67q148 0 231.5 -81t83.5 -226q0 -161 -98.5 -253.5t-270.5 -92.5q-21 0 -44 1.5t-47 4.5q64 -38 97 -102.5t33 -151.5q0 -71 -24.5 -141.5
t-71.5 -134.5q-88 -119 -222.5 -178.5t-316.5 -59.5q-263 0 -419 137t-156 365q0 161 92.5 277t235.5 135z" />
    <glyph glyph-name="quotesingle" unicode="'" horiz-adv-x="305" 
d="M211 1434v-553h-117v553h117z" />
    <glyph glyph-name="parenleft" unicode="(" horiz-adv-x="1012" 
d="M315 500q0 -204 76 -382.5t225 -326.5q76 -74 167 -126.5t91 -65.5q0 -11 -9 -17t-25 -6q-33 0 -123.5 43t-173.5 107q-192 143 -286.5 336t-94.5 438t94.5 437.5t286.5 336.5q83 63 173 105t124 42q16 0 25 -5.5t9 -16.5q0 -17 -70 -55.5t-128 -86.5
q-173 -140 -267 -337t-94 -420z" />
    <glyph glyph-name="parenright" unicode=")" horiz-adv-x="1012" 
d="M696 500q0 203 -75.5 380.5t-225.5 325.5q-75 74 -166.5 126.5t-91.5 66.5q0 11 9 16.5t26 5.5q33 0 123.5 -42t173.5 -105q191 -144 286 -336.5t95 -437.5t-95 -438t-286 -336q-84 -64 -174.5 -107t-122.5 -43q-17 0 -26 6t-9 17q0 16 70 54.5t129 86.5
q173 140 266.5 338t93.5 422z" />
    <glyph glyph-name="asterisk" unicode="*" 
d="M578 1020l77 -29q27 -10 81 -19q100 -16 100 -75q0 -31 -23.5 -55.5t-52.5 -24.5q-33 0 -71.5 49t-65.5 70l-64 49l-27 -14l13 -83q5 -38 24 -84.5t19 -53.5q0 -32 -21 -52t-55 -20t-54 18.5t-20 48.5q0 14 19 60.5t24 82.5l11 83l-27 14l-64 -51q-27 -22 -64 -69.5
t-75 -47.5q-29 0 -50.5 25t-21.5 57q1 54 95 69q58 10 86 21l75 31v31l-75 30q-25 10 -51.5 15.5t-47.5 5.5q-37 0 -60.5 20.5t-23.5 51.5t22.5 55t51.5 24q35 0 74.5 -49.5t64.5 -68.5l64 -50l27 15l-13 82q-5 34 -25 80.5t-20 58.5q0 32 22 53t56 21t54 -19t20 -51
q0 -13 -19 -59t-24 -84l-11 -82l25 -17l64 54q25 20 62.5 68t76.5 48q29 0 50 -24.5t21 -57.5q0 -55 -93 -69q-56 -9 -85 -21l-78 -30z" />
    <glyph glyph-name="plus" unicode="+" horiz-adv-x="1706" 
d="M913 1221v-551h539v-117h-539v-553h-118v553h-541v117h541v551h118z" />
    <glyph glyph-name="comma" unicode="," horiz-adv-x="645" 
d="M352 -31h-20q-67 0 -102 29t-35 84q0 57 35 92t94 35q69 0 108 -53.5t39 -149.5q0 -58 -14.5 -111t-44.5 -106q-39 -67 -74 -102t-64 -35q-18 0 -32.5 14t-14.5 31q0 18 62.5 102t62.5 166v4z" />
    <glyph glyph-name="hyphen" unicode="-" horiz-adv-x="674" 
d="M532 586q34 0 49 -17.5t15 -56.5q0 -38 -15.5 -56t-48.5 -18h-364q-33 0 -48.5 17.5t-15.5 56.5t15.5 56.5t48.5 17.5h364z" />
    <glyph glyph-name="period" unicode="." horiz-adv-x="645" 
d="M199 92q0 52 35 87.5t88 35.5q52 0 88 -35.5t36 -87.5q0 -50 -36.5 -86.5t-87.5 -36.5q-53 0 -88 35.5t-35 87.5z" />
    <glyph glyph-name="slash" unicode="/" horiz-adv-x="563" 
d="M422 1298q13 43 27.5 55.5t39.5 12.5q26 0 37 -9t11 -30q0 -11 -8 -35q-5 -13 -7 -21l-446 -1392q-13 -42 -27.5 -54.5t-40.5 -12.5q-25 0 -35 8t-10 28q0 13 8 41q3 10 4 14z" />
    <glyph glyph-name="zero" unicode="0" horiz-adv-x="1290" 
d="M272 676q0 -264 99 -413.5t272 -149.5q174 0 273.5 149.5t99.5 413.5t-98.5 412.5t-272.5 148.5q-173 0 -273 -149.5t-100 -411.5zM1190 676q0 -328 -146.5 -516.5t-400.5 -188.5q-253 0 -399 188.5t-146 516.5t146.5 516t400.5 188q252 0 398.5 -189t146.5 -515z" />
    <glyph glyph-name="one" unicode="1" horiz-adv-x="1290" 
d="M571 268v826q0 79 -23 106t-85 27q-18 0 -51 -4t-50 -4q-40 0 -59.5 16t-19.5 49t23.5 52.5t64.5 19.5q21 0 65.5 -5t67.5 -5q43 0 101.5 5t74.5 5q48 0 61 -14t13 -60q0 -3 -1 -18q-3 -72 -3 -142v-852q0 -78 24.5 -107.5t87.5 -29.5q24 0 64.5 4t56.5 4q42 0 62 -16.5
t20 -52.5q0 -41 -24 -60.5t-72 -19.5q-11 0 -53 4q-141 12 -265 12q-126 0 -264 -13q-35 -3 -45 -3q-41 0 -64.5 17.5t-23.5 47.5q0 40 27 62t75 22q20 0 54 -4t49 -4q63 0 87.5 28t24.5 107z" />
    <glyph glyph-name="two" unicode="2" horiz-adv-x="1290" 
d="M262 269q41 44 96.5 67.5t122.5 23.5q49 0 99 -18t98 -53q14 -11 43 -33q146 -113 215 -113q59 0 94 35.5t35 95.5q0 16 -3 22.5t-9 6.5q-5 0 -29.5 -10t-44.5 -10q-38 0 -61 23.5t-23 62.5q0 46 36 78t89 32q74 0 119 -59t45 -158q0 -124 -76 -206.5t-188 -82.5
q-101 0 -227 89q-21 15 -31 22q-100 67 -157 91t-108 24t-89 -20t-38 -40q1 -2 11 -5q65 -19 65 -83q0 -35 -27 -56.5t-71 -21.5q-66 0 -108 59.5t-42 155.5q0 135 88.5 254t239.5 189q82 37 230 88t204 82q48 26 75.5 75.5t27.5 110.5q0 116 -91.5 188t-240.5 72
q-134 0 -226 -53t-92 -125q1 -17 5 -22.5t16 -6.5q3 0 10.5 2t11.5 2q25 0 43.5 -26t18.5 -64q0 -52 -38 -86t-97 -34q-64 0 -103 45t-39 118q0 165 136 272t352 107q231 0 365 -106.5t134 -288.5q0 -76 -20.5 -136t-63.5 -106q-68 -71 -284 -143l-30 -10
q-303 -102 -383.5 -164.5t-84.5 -152.5z" />
    <glyph glyph-name="three" unicode="3" horiz-adv-x="1290" 
d="M889 1196h-494q-42 0 -64 -25.5t-22 -74.5q0 -23 4 -62t4 -57q0 -42 -17.5 -61t-55.5 -19q-35 0 -52.5 21.5t-17.5 64.5q0 14 5 68.5t5 93.5q0 14 -1 48.5t-1 53.5q0 65 19 83t80 18h731q76 0 102.5 -16t26.5 -56q0 -21 -9.5 -39.5t-37.5 -46.5l-355 -350h27
q192 0 297.5 -101t105.5 -282q0 -229 -149.5 -357.5t-415.5 -128.5q-226 0 -367 111t-141 285q0 95 55.5 157t139.5 62q52 0 85.5 -32.5t33.5 -82.5q0 -35 -23.5 -62.5t-58.5 -33.5q-8 -2 -20 -3q-40 -5 -40 -32q0 -88 98.5 -158.5t239.5 -70.5q182 0 287.5 91t105.5 249
q0 128 -70 195t-206 67q-61 0 -128 -11.5t-73 -11.5q-25 0 -40 13t-15 34q0 15 8 30t25 32z" />
    <glyph glyph-name="four" unicode="4" horiz-adv-x="1290" 
d="M756 240v168h-561q-72 0 -104 19t-32 60q0 43 41 93q3 4 4 5l527 662q60 76 97 98.5t83 22.5q60 0 87.5 -34.5t27.5 -110.5v-672h194q56 0 80.5 -16.5t24.5 -53.5q0 -39 -24.5 -56t-80.5 -17h-194v-170q0 -63 26 -89t86 -26q12 0 45 4t54 4q34 0 54.5 -17t20.5 -44
q0 -31 -21.5 -54.5t-49.5 -23.5q-1 0 -107 8t-213 8t-230 -13q-33 -3 -42 -3q-38 0 -61 17.5t-23 45.5q0 29 20 52.5t43 23.5q24 0 58 -4t43 -4q71 0 99 25.5t28 91.5zM756 551v639l-510 -639h510z" />
    <glyph glyph-name="five" unicode="5" horiz-adv-x="1290" 
d="M330 807q56 59 143.5 90t200.5 31q218 0 347.5 -125.5t129.5 -337.5q0 -223 -150 -358.5t-397 -135.5q-217 0 -359.5 103t-142.5 254q0 77 46.5 125.5t119.5 48.5q48 0 79.5 -32.5t31.5 -82.5q0 -28 -15 -47.5t-45 -30.5q-26 -10 -33 -17t-7 -18q0 -56 91 -107.5
t216 -51.5q181 0 288 93t107 251q0 155 -89.5 240t-252.5 85q-70 0 -132 -19.5t-118 -59.5q-22 -16 -57 -48q-60 -53 -92 -53q-33 0 -51.5 24t-18.5 66q0 6 6.5 85.5t11.5 153.5l19 253q1 20 2 55q3 104 96 105h606q62 0 82.5 -6.5t26.5 -22.5q9 -25 9 -87q1 -26 1 -40
q1 -43 7.5 -91t6.5 -55q0 -20 -18 -35.5t-45 -15.5q-18 0 -32 9t-26 29q-4 8 -5 46t-9 62q-10 33 -36 46t-117 13h-350q-29 0 -40.5 -12t-13.5 -44z" />
    <glyph glyph-name="six" unicode="6" horiz-adv-x="1290" 
d="M305 698q48 90 154 142.5t243 52.5q223 0 352.5 -123.5t129.5 -337.5q0 -208 -142 -335.5t-374 -127.5q-267 0 -409 178.5t-142 514.5q0 333 163.5 525.5t446.5 192.5q183 0 302.5 -81.5t119.5 -202.5q0 -63 -39 -101.5t-102 -38.5q-44 0 -74.5 29.5t-30.5 71.5
q0 34 23.5 63.5t23.5 30.5q0 27 -70.5 59.5t-156.5 32.5q-194 0 -306 -140.5t-112 -385.5v-19zM1014 430q0 151 -88.5 235.5t-247.5 84.5t-246.5 -84t-87.5 -236t87.5 -235.5t246.5 -83.5t247.5 84t88.5 235z" />
    <glyph glyph-name="seven" unicode="7" horiz-adv-x="1290" 
d="M1024 1092q-44 -36 -85 -52t-89 -16q-57 0 -105.5 15t-115.5 57q-25 15 -68 46q-95 68 -147 68q-58 0 -90.5 -36.5t-32.5 -102.5q0 -40 8 -108t8 -95q0 -42 -18.5 -64t-55.5 -22q-44 0 -62.5 20t-18.5 66q0 23 9 94t9 119q0 47 -9 117.5t-9 95.5q0 41 17.5 65.5
t47.5 24.5q24 0 40.5 -18t16.5 -43v-55v-37q25 65 75.5 100t121.5 35q49 0 95 -16.5t118 -65.5q18 -12 51 -37q124 -90 195 -90q32 0 57 10.5t41 30.5q-45 13 -65.5 33t-20.5 51q0 41 29 66.5t76 25.5q63 0 93.5 -47t30.5 -143q0 -104 -52.5 -193t-215.5 -231l-8 -7
q-131 -111 -172 -206q-22 -51 -34.5 -123t-12.5 -148q0 -28 5 -81t5 -78q0 -73 -25 -109.5t-75 -36.5q-62 0 -88.5 41.5t-26.5 139.5q0 169 47 310.5t144 260.5q65 79 188 181q19 16 29 24q3 3 13 11q100 85 132 153z" />
    <glyph glyph-name="eight" unicode="8" horiz-adv-x="1290" 
d="M281 410q0 -131 98.5 -208t265.5 -77t265 77t98 208q0 130 -98 207t-265 77t-265.5 -77t-98.5 -207zM373 1047q0 -89 74 -142t198 -53q125 0 197.5 52.5t72.5 142.5q0 88 -72.5 140t-197.5 52t-198.5 -52.5t-73.5 -139.5zM885 776q149 -38 227 -134t78 -241
q0 -195 -148.5 -312.5t-396.5 -117.5q-249 0 -397 119t-148 318q0 141 78.5 236t224.5 132q-105 32 -155.5 96.5t-50.5 165.5q0 162 116.5 250t331.5 88q214 0 331.5 -89t117.5 -251q0 -99 -51 -162.5t-158 -97.5z" />
    <glyph glyph-name="nine" unicode="9" horiz-adv-x="1290" 
d="M983 647q-49 -91 -153 -141.5t-244 -50.5q-225 0 -353.5 122.5t-128.5 337.5q0 207 142 333t377 126q264 0 406 -173t142 -496q0 -340 -163.5 -537t-442.5 -197q-186 0 -312 85.5t-126 205.5q0 65 38 105.5t99 40.5q49 0 80 -28.5t31 -72.5q0 -43 -42 -84
q-11 -11 -11 -14q0 -30 75 -66.5t170 -36.5q197 0 306.5 141t109.5 394v6zM276 915q0 -151 88.5 -235t247.5 -84t246.5 84t87.5 235q0 152 -87.5 236t-246.5 84t-247.5 -84t-88.5 -236z" />
    <glyph glyph-name="colon" unicode=":" horiz-adv-x="668" 
d="M211 96q0 52 35.5 87.5t87.5 35.5t87.5 -36t35.5 -89q0 -50 -36 -86.5t-87 -36.5q-52 0 -87.5 36.5t-35.5 88.5zM211 758q0 52 35.5 87.5t87.5 35.5t87.5 -36.5t35.5 -88.5q0 -51 -36 -87t-87 -36q-52 0 -87.5 36t-35.5 89z" />
    <glyph glyph-name="semicolon" unicode=";" horiz-adv-x="668" 
d="M360 -31h-20q-66 0 -99.5 28.5t-33.5 84.5q0 58 33.5 92.5t91.5 34.5q70 0 109.5 -54t39.5 -149q0 -56 -15 -109t-46 -108q-39 -67 -74 -102t-63 -35q-19 0 -33 14t-14 31q0 18 62 102t62 166v4zM207 756q0 52 36 87.5t89 35.5q52 0 87.5 -35.5t35.5 -87.5
q0 -51 -36.5 -88t-86.5 -37q-52 0 -88.5 36t-36.5 89z" />
    <glyph glyph-name="less" unicode="&#x3c;" horiz-adv-x="1706" 
d="M1442 1018l-1000 -408l1000 -405v-129l-1178 483v103l1178 483v-127z" />
    <glyph glyph-name="equal" unicode="=" horiz-adv-x="1706" 
d="M1452 477v-117h-1198v117h1198zM1452 860v-117h-1198v117h1198z" />
    <glyph glyph-name="greater" unicode="&#x3e;" horiz-adv-x="1706" 
d="M1442 662v-103l-1178 -483v129l1000 405l-1000 408v127z" />
    <glyph glyph-name="question" unicode="?" horiz-adv-x="1124" 
d="M260 961q10 32 31.5 48.5t54.5 16.5q37 0 60.5 -22.5t23.5 -57.5q0 -62 -46.5 -104.5t-115.5 -42.5q-85 0 -138.5 61.5t-53.5 161.5q0 163 136.5 268t354.5 105q220 0 348.5 -100t128.5 -269q0 -79 -25 -141t-73 -103q-74 -64 -182.5 -115.5t-119.5 -59.5
q-47 -35 -64.5 -66.5t-22.5 -90.5v-7q-7 -107 -76 -107q-36 0 -57 24t-21 66q0 105 32.5 167.5t121.5 121.5q42 27 121.5 71t107.5 66q53 44 74 83t21 91q0 111 -87.5 176.5t-238.5 65.5q-144 0 -239 -68t-95 -168q0 -28 10 -46t29 -25zM625 94q0 -52 -35.5 -87.5
t-87.5 -35.5t-87.5 35.5t-35.5 87.5q0 51 36 87t87 36q52 0 87.5 -35.5t35.5 -87.5z" />
    <glyph glyph-name="at" unicode="@" horiz-adv-x="2048" 
d="M1292 844l58 121h110l-141 -568q-6 -24 -9 -44t-3 -36q0 -44 27.5 -67t82.5 -23q45 0 100 24t103 64q89 76 139.5 196.5t50.5 254.5q0 266 -195.5 428t-518.5 162q-168 0 -312.5 -52t-259.5 -153q-140 -122 -211 -282.5t-71 -354.5q0 -173 60.5 -304t186.5 -230
q101 -81 240 -124.5t295 -43.5q172 0 334.5 48.5t296.5 139.5l45 -66q-147 -109 -313 -165t-347 -56q-191 0 -348 46.5t-276 138.5q-153 117 -228 272t-75 352q0 163 50.5 309t149.5 269q146 176 349.5 267t453.5 91q165 0 311 -43.5t248 -124.5q129 -99 195.5 -230
t66.5 -282q0 -169 -62.5 -308.5t-182.5 -236.5q-69 -55 -148.5 -83.5t-163.5 -28.5q-99 0 -148.5 39t-49.5 116q0 3 1 11t1 12q-51 -87 -127 -132.5t-170 -45.5q-153 0 -233.5 85t-80.5 247q0 230 137 389t332 159q91 0 153.5 -39.5t96.5 -117.5zM1202 473l60 242
q-17 90 -72 140t-135 50q-146 0 -244 -131.5t-98 -327.5q0 -110 51 -169.5t145 -59.5q102 0 183.5 70.5t109.5 185.5z" />
    <glyph glyph-name="A" unicode="A" horiz-adv-x="1464" 
d="M741 1184l-178 -506q-7 -21 -8.5 -28.5t-1.5 -12.5q0 -12 9 -16.5t40 -4.5h262q29 1 38 5.5t9 17.5q0 7 -2 17t-6 22zM526 487q-21 0 -35.5 -15t-25.5 -48l-55 -163q-7 -20 -11 -42t-4 -43q0 -20 19.5 -34.5t48.5 -14.5q22 0 57 4t49 4q43 0 65.5 -18.5t22.5 -53.5
q0 -37 -20.5 -56t-61.5 -19q-13 0 -86 6t-133 6q-113 0 -225 -6t-113 -6q-38 0 -64 21t-26 52q0 30 21 52t47 22q13 0 35 -4t30 -4q71 0 104 27.5t60 101.5l371 997q29 75 59 101t78 26q57 0 87.5 -25t62.5 -110l356 -989q26 -73 59 -101t91 -28q7 0 21 4t20 4q62 0 84 -17
t22 -57q0 -31 -26 -52t-64 -21q-12 0 -54 2q-155 10 -290 10q-56 0 -125 -6t-82 -6q-39 0 -58.5 19t-19.5 56q0 35 22 53.5t62 18.5q13 0 47.5 -4t55.5 -4q26 0 42.5 18t16.5 48q0 16 -3 33.5t-9 33.5l-53 163q-9 28 -29.5 46t-42.5 18h-400z" />
    <glyph glyph-name="B" unicode="B" horiz-adv-x="1417" 
d="M334 272v852q0 62 -26 93.5t-77 31.5q-28 0 -68.5 -6t-51.5 -6q-36 0 -56 18t-20 50q0 39 21 58t65 19q18 0 106 -9t156 -9q73 0 209.5 9t200.5 9q228 0 344 -87t116 -259q0 -111 -59.5 -183.5t-171.5 -96.5q140 -34 215.5 -128.5t75.5 -236.5q0 -189 -137.5 -295
t-384.5 -106q-53 0 -181 9t-202 9q-87 0 -182 -9t-105 -9q-44 0 -65 19t-21 59q0 32 20 49.5t56 17.5q15 0 53 -6t59 -6q61 0 86 32t25 117zM506 258q0 -81 48.5 -108t219.5 -27q179 0 269 69.5t90 206.5q0 147 -98 213t-318 66q-140 0 -175.5 -23.5t-35.5 -101.5v-295z
M506 870q0 -31 33.5 -45t107.5 -14q89 0 150 4.5t105 14.5q73 16 121 78.5t48 142.5q0 105 -82 151.5t-270 46.5q-139 0 -176 -22.5t-37 -87.5v-269z" />
    <glyph glyph-name="C" unicode="C" horiz-adv-x="1319" 
d="M1067 1239v43q0 58 14 79t49 21t51.5 -16.5t16.5 -50.5q0 -7 -2 -33q-12 -137 -12 -268q0 -29 7 -79t7 -73q0 -50 -16 -70t-56 -20q-39 0 -56 25.5t-17 85.5v49q0 143 -94.5 235.5t-241.5 92.5q-201 0 -319.5 -153.5t-118.5 -414.5q0 -273 114.5 -425t319.5 -152
q131 0 219 56t131 169q14 36 22.5 96t12.5 77q5 20 23.5 33t43.5 13q38 0 59 -26.5t21 -75.5q0 -223 -144.5 -354.5t-389.5 -131.5q-291 0 -458 190.5t-167 520.5q0 326 165 519.5t441 193.5q118 0 215.5 -40.5t159.5 -115.5z" />
    <glyph glyph-name="D" unicode="D" horiz-adv-x="1503" 
d="M510 289q0 -117 37 -140.5t188 -23.5q254 0 379 141.5t125 429.5q0 295 -131 425t-428 130q-113 0 -141.5 -23t-28.5 -143v-22v-774zM336 254v866q0 67 -25.5 93t-87.5 26q-20 0 -56.5 -6t-53.5 -6q-34 0 -56 20.5t-22 52.5q0 39 21.5 57.5t66.5 18.5q23 0 72.5 -5
t76.5 -5q3 0 13 -1q51 -3 100 -3q76 0 202.5 7t176.5 7q325 0 490 -173t165 -513q0 -332 -171.5 -516t-481.5 -184q-72 0 -188.5 10t-159.5 10q-62 0 -158.5 -10t-130.5 -10q-48 0 -71 17t-23 52t22 56.5t58 21.5q15 0 52 -6t58 -6q59 0 85 30t26 99z" />
    <glyph glyph-name="E" unicode="E" horiz-adv-x="1436" 
d="M340 266v858q0 62 -26.5 90.5t-84.5 28.5q-21 0 -59 -7t-53 -7q-33 0 -54.5 21t-21.5 53q0 37 22 55t66 18q27 0 122.5 -6t162.5 -6h114h426q108 0 203 11q12 1 14 1q44 0 70.5 -27.5t26.5 -74.5q0 -25 -6.5 -81t-6.5 -87q0 -61 6.5 -136t6.5 -89q0 -40 -18.5 -63
t-49.5 -23q-33 0 -56.5 26t-23.5 64q0 18 5 74.5t5 93.5q0 103 -38.5 139.5t-161.5 36.5h-303q-71 0 -93 -26t-22 -111v-230q0 -46 20 -63t72 -17q138 0 177.5 24t39.5 103q0 14 -2 50.5t-2 58.5q0 35 19 57.5t49 22.5q31 0 47 -31t16 -90q0 -22 -6 -102.5t-6 -139.5
q0 -58 6 -139t6 -102q0 -58 -16.5 -89.5t-46.5 -31.5q-29 0 -48.5 20t-19.5 49q0 25 2 55.5t2 34.5q0 104 -35 129t-190 25q-47 0 -65.5 -17t-18.5 -61v-334q0 -91 23 -116t92 -25h329q121 0 161 37.5t40 142.5q0 37 -6 93t-6 75q0 38 23.5 64t56.5 26q31 0 50 -23.5
t19 -62.5q0 -14 -6 -89t-6 -136q0 -31 6 -87t6 -81q0 -46 -27 -74t-71 -28q-3 0 -14 1q-94 9 -201 9h-578q-111 0 -234 -8q-32 -2 -40 -2q-46 0 -67 18.5t-21 59.5q0 32 20.5 52.5t53.5 20.5q15 0 50.5 -4t55.5 -4q68 0 93.5 28t25.5 105z" />
    <glyph glyph-name="F" unicode="F" horiz-adv-x="1337" 
d="M340 264v860q0 61 -26 88t-85 27q-18 0 -53.5 -5t-52.5 -5q-38 0 -60 19.5t-22 51.5q0 34 26 55t70 21q5 0 30 -1q175 -9 361 -9h426q108 0 203 9q12 1 14 1q44 0 70.5 -27.5t26.5 -74.5q0 -25 -6.5 -81t-6.5 -87q0 -61 6.5 -136t6.5 -89q0 -40 -18.5 -63t-49.5 -23
q-33 0 -56.5 26t-23.5 64q0 18 5 74.5t5 93.5q0 103 -38.5 139.5t-161.5 36.5h-299q-69 0 -91 -23.5t-22 -113.5v-230q0 -38 12.5 -54.5t40.5 -16.5h187q29 0 46 31.5t17 86.5q0 13 -2 48.5t-2 58.5q0 37 18.5 59.5t49.5 22.5t47 -31t16 -90q0 -22 -6 -102.5t-6 -139.5
q0 -58 6 -139t6 -102q0 -58 -16.5 -89.5t-46.5 -31.5q-29 0 -48.5 20t-19.5 49q0 25 2 55.5t2 34.5q0 91 -22 119.5t-86 28.5h-144q-27 0 -39 -17t-12 -55v-360q0 -63 27.5 -91t89.5 -28q22 0 62.5 6t58.5 6q36 0 59 -20.5t23 -52.5q0 -41 -23 -59.5t-72 -18.5
q-36 0 -138.5 8t-168.5 8q-76 0 -179 -8t-128 -8q-47 0 -67.5 18.5t-20.5 59.5q0 32 20.5 52.5t51.5 20.5q9 0 47 -6t65 -6q64 0 89.5 29t25.5 106z" />
    <glyph glyph-name="G" unicode="G" horiz-adv-x="1509" 
d="M1151 174q-67 -99 -179 -151t-261 -52q-291 0 -458 190.5t-167 520.5q0 333 170 524t465 191q136 0 235.5 -39.5t169.5 -120.5v66q0 42 14.5 60.5t47.5 18.5q35 0 51 -18.5t16 -58.5q0 -6 -1 -28q-7 -106 -7 -208q0 -75 7 -156q1 -19 1 -24q0 -40 -17 -59t-54 -19
q-30 0 -45.5 13.5t-26.5 51.5q-2 9 -4.5 62.5t-13.5 93.5q-36 114 -127.5 174t-231.5 60q-212 0 -334 -153.5t-122 -420.5q0 -274 114 -425.5t320 -151.5q189 0 290 95t101 273q0 58 -26 84.5t-83 26.5q-32 0 -75.5 -4t-55.5 -4q-45 0 -65.5 17t-20.5 56q0 34 24.5 50
t74.5 16q23 0 126 -7t185 -7q69 0 145 7t82 7q42 0 64 -17t22 -49q0 -34 -18 -53.5t-49 -19.5q-13 0 -31.5 4t-24.5 4q-59 0 -81.5 -39t-22.5 -158q0 -100 12 -207t12 -114q0 -35 -21 -58.5t-52 -23.5q-40 0 -59 18t-19 56q0 22 1 49t3 57z" />
    <glyph glyph-name="H" unicode="H" horiz-adv-x="1706" 
d="M520 799q61 -1 132 -1.5t208 -0.5q136 0 203 0.5t123 1.5v323q0 67 -23.5 92t-81.5 25q-13 0 -45.5 -4t-50.5 -4q-32 0 -52 21t-20 55t29 54.5t78 20.5q25 0 121 -9t166 -9q75 0 165.5 9t106.5 9q44 0 66 -20t22 -59q0 -33 -21.5 -52.5t-56.5 -19.5q-15 0 -53 4t-59 4
q-58 0 -84.5 -27t-26.5 -88v-874q0 -60 25.5 -89.5t76.5 -29.5q29 0 69.5 5t51.5 5q35 0 56.5 -19.5t21.5 -51.5q0 -40 -21.5 -60t-64.5 -20q-16 0 -107.5 10t-166.5 10q-70 0 -165 -10t-120 -10q-50 0 -79.5 20.5t-29.5 55.5q0 34 20 54.5t52 20.5q18 0 51.5 -5t46.5 -5
q58 0 80.5 24.5t22.5 102.5l-1 389q-84 3 -169.5 4.5t-169.5 1.5t-165 -1.5t-161 -4.5v-399q0 -67 23.5 -92t81.5 -25q13 0 45.5 5t50.5 5q31 0 51.5 -21.5t20.5 -56.5q0 -33 -29.5 -53t-79.5 -20q-25 0 -120 10t-165 10q-75 0 -165.5 -10t-106.5 -10q-44 0 -65 19t-21 59
q0 33 20.5 53t55.5 20q11 0 51.5 -5t69.5 -5q52 0 77 28.5t25 88.5v876q0 59 -24.5 87t-77.5 28q-29 0 -69.5 -4t-51.5 -4q-35 0 -55.5 20t-20.5 54q0 39 21 58t65 19q16 0 106.5 -9t165.5 -9q70 0 165 9t120 9q50 0 79.5 -20t29.5 -53q0 -35 -20.5 -56.5t-51.5 -21.5
q-18 0 -50.5 4t-45.5 4q-59 0 -82 -23.5t-23 -91.5v-325z" />
    <glyph glyph-name="I" unicode="I" horiz-adv-x="901" 
d="M358 1124q0 61 -25 90t-77 29q-28 0 -68.5 -6t-52.5 -6q-34 0 -55 20t-21 54q0 39 21.5 58t64.5 19q5 0 108 -9t202 -9q94 0 194 9t107 9q43 0 64.5 -19t21.5 -58q0 -33 -21.5 -53.5t-56.5 -20.5q-12 0 -52.5 6t-68.5 6q-51 0 -75.5 -29t-24.5 -90v-876q0 -62 24.5 -91.5
t75.5 -29.5q28 0 68.5 7t52.5 7q35 0 56.5 -20.5t21.5 -52.5q0 -40 -21.5 -59t-64.5 -19q-4 0 -104.5 9t-196.5 9q-104 0 -206.5 -9t-103.5 -9q-43 0 -64.5 19t-21.5 59q0 33 21 53t55 20q12 0 52.5 -7t68.5 -7q51 0 76.5 30t25.5 91v876z" />
    <glyph glyph-name="J" unicode="J" horiz-adv-x="1327" 
d="M844 1124q0 62 -26 90.5t-81 28.5q-20 0 -56 -6t-50 -6q-32 0 -52 19.5t-20 52.5q0 41 19.5 60t62.5 19q8 0 105 -9t188 -9t185 9t98 9q42 0 61.5 -19.5t19.5 -59.5q0 -32 -20 -52t-51 -20q-9 0 -46 6t-65 6q-47 0 -70.5 -29.5t-23.5 -89.5v-606q0 -262 -133.5 -406.5
t-376.5 -144.5q-209 0 -337 114t-128 298q0 126 82 214.5t199 88.5q84 0 138 -49t54 -123q0 -54 -29.5 -86.5t-78.5 -32.5q-46 0 -70.5 25.5t-24.5 72.5q0 21 14 44q3 5 3 6t-1.5 2.5t-2.5 1.5q-51 0 -87 -45t-36 -111q0 -114 89.5 -192t223.5 -78q171 0 247.5 96t76.5 313
v598z" />
    <glyph glyph-name="K" unicode="K" horiz-adv-x="1575" 
d="M520 707l527 460q12 11 18 20.5t6 16.5q0 14 -17 23.5t-44 9.5q-9 0 -35.5 -5t-44.5 -5q-37 0 -60.5 20t-23.5 51q0 40 26.5 61t75.5 21q5 0 28 -2q133 -14 271 -14q62 0 140 8t94 8q35 0 59.5 -21.5t24.5 -53.5q0 -37 -24 -57.5t-66 -20.5q-11 0 -36.5 5t-41.5 5
q-28 0 -53.5 -10.5t-53.5 -34.5l-407 -363l422 -575q4 -6 14 -20q73 -103 133 -103q10 0 38.5 5t47.5 5q29 0 50.5 -22.5t21.5 -55.5t-29.5 -53t-79.5 -20q-28 0 -119 10t-153 10q-73 0 -162 -10t-106 -10q-44 0 -65.5 19t-21.5 59q0 32 22 52.5t56 20.5q19 0 54.5 -5
t54.5 -5q39 0 61.5 8.5t22.5 22.5q0 9 -8 24t-31 47l-354 486l-232 -207v-264q0 -67 21 -92t73 -25q14 0 45 5t48 5q25 0 43 -22.5t18 -55.5q0 -34 -25.5 -53.5t-70.5 -19.5q-19 0 -109 10t-162 10q-75 0 -166.5 -10t-107.5 -10q-44 0 -65 19t-21 59q0 33 20.5 53t55.5 20
q11 0 51.5 -5t69.5 -5q52 0 77 28.5t25 88.5v876q0 61 -25.5 87t-85.5 26q-20 0 -56.5 -5t-53.5 -5q-35 0 -56.5 21t-21.5 55q0 39 23.5 58t72.5 19q19 0 105 -8t153 -8q74 0 166 8t109 8q47 0 72.5 -21t25.5 -61q0 -26 -21 -48.5t-47 -22.5q-14 0 -43 5t-45 5
q-52 0 -72 -23.5t-20 -89.5v-417z" />
    <glyph glyph-name="L" unicode="L" horiz-adv-x="1241" 
d="M340 248v876q0 60 -25 88.5t-77 28.5q-29 0 -69.5 -5t-51.5 -5q-35 0 -55.5 20t-20.5 54q0 39 21 58t65 19q16 0 107 -9t165 -9q69 0 169.5 9t131.5 9q56 0 86.5 -19.5t30.5 -53.5q0 -33 -22.5 -55.5t-55.5 -22.5q-17 0 -52 5t-52 5q-65 0 -90 -24.5t-25 -92.5v-850
q0 -91 23 -117t90 -26h237q119 0 160 37.5t41 144.5q0 37 -6 93t-6 75q0 38 23.5 64t56.5 26q31 0 50 -23.5t19 -62.5q0 -14 -6 -89t-6 -136q0 -31 6 -87t6 -81q0 -49 -26 -75.5t-74 -26.5q-3 0 -18 1q-96 9 -195 9h-492q-122 0 -247 -9q-22 -1 -27 -1q-46 0 -67 18.5
t-21 59.5q0 33 21 54t55 21q15 0 53 -6t59 -6q59 0 85 27.5t26 89.5z" />
    <glyph glyph-name="M" unicode="M" horiz-adv-x="1892" 
d="M330 248v874q0 65 -24 89t-87 24q-14 0 -48 -3t-54 -3q-31 0 -50.5 22t-19.5 56t29 53.5t80 19.5q29 0 107.5 -8t127.5 -8q34 0 83.5 8t66.5 8q48 0 77 -29.5t50 -103.5l278 -1020l279 1020q21 76 49 104.5t76 28.5q16 0 66 -8t83 -8q50 0 129 8t109 8q51 0 79.5 -19.5
t28.5 -53.5t-19.5 -56t-49.5 -22q-21 0 -55.5 3t-49.5 3q-62 0 -86 -24t-24 -89v-874q0 -61 25 -89t79 -28q19 0 53 5t49 5q35 0 56.5 -20t21.5 -51q0 -41 -23.5 -60.5t-72.5 -19.5q-17 0 -97 10t-143 10q-69 0 -155 -10t-103 -10q-42 0 -67 21.5t-25 58.5q0 29 19 50t45 21
q13 0 40 -5t42 -5q48 0 68 25t20 92v721q0 55 2 125t6 147h-23l-329 -1126l-2 -6q-35 -119 -101 -119q-72 0 -105 113q-2 7 -3 11l-330 1127h-16q4 -77 6 -147t2 -125v-721q0 -68 19 -92.5t67 -24.5q14 0 42.5 5t41.5 5q25 0 43 -20.5t18 -50.5q0 -37 -25 -58.5t-67 -21.5
q-17 0 -102 10t-154 10q-63 0 -144 -10t-98 -10q-48 0 -71 19.5t-23 60.5q0 32 21 51.5t55 19.5q16 0 50.5 -5t53.5 -5q54 0 78.5 27.5t24.5 89.5z" />
    <glyph glyph-name="N" unicode="N" horiz-adv-x="1669" 
d="M1216 156q-1 14 -3 43q-11 134 -11 207v720q0 69 -23.5 91t-88.5 22q-18 0 -54 -4t-55 -4q-34 0 -59 23t-25 55q0 35 28.5 53t84.5 18q32 0 133.5 -8t169.5 -8q69 0 149 8t92 8q49 0 72 -18t23 -57q0 -33 -20.5 -53.5t-53.5 -20.5q-16 0 -51 4t-54 4q-54 0 -78 -26
t-24 -87v-950q0 -100 -35.5 -143t-118.5 -43q-56 0 -86 20t-73 105l-563 1110q4 -72 6 -137t2 -119v-721q0 -68 25 -92.5t89 -24.5q16 0 51 5t54 5q33 0 55.5 -21t22.5 -52q0 -38 -27.5 -58t-77.5 -20q-18 0 -116 9t-177 9q-78 0 -163.5 -9t-94.5 -9q-47 0 -70.5 19.5
t-23.5 60.5q0 32 21 51.5t55 19.5q16 0 50.5 -5t53.5 -5q53 0 78 28t25 89v874q0 66 -25 91.5t-86 25.5q-14 0 -48 -4t-54 -4q-31 0 -50.5 21t-19.5 55t29 53.5t80 19.5q24 0 100.5 -8t128.5 -8q30 0 75.5 7t61.5 7q46 0 75.5 -23.5t70.5 -107.5z" />
    <glyph glyph-name="O" unicode="O" horiz-adv-x="1425" 
d="M1339 682q0 -329 -168.5 -520t-459.5 -191t-458 190.5t-167 520.5q0 332 167.5 522.5t459.5 190.5q289 0 457.5 -192t168.5 -521zM713 115q198 0 315 153t117 414t-117.5 415t-314.5 154q-198 0 -315 -154t-117 -415t117 -414t315 -153z" />
    <glyph glyph-name="P" unicode="P" horiz-adv-x="1296" 
d="M340 248v876q0 62 -25.5 92.5t-76.5 30.5q-29 0 -69.5 -8t-51.5 -8q-35 0 -55.5 20t-20.5 54q0 39 21 58t65 19q18 0 106.5 -9t155.5 -9q76 0 208 9t189 9q232 0 349.5 -100t117.5 -297q0 -106 -34.5 -181.5t-108.5 -129.5q-61 -46 -142 -65t-251 -19q-35 0 -76.5 1
t-48.5 1q-48 0 -64 -10t-16 -41v-293q0 -68 26 -93.5t91 -25.5q17 0 53 6t53 6q32 0 54 -21.5t22 -53.5q0 -37 -30 -56.5t-87 -19.5q-39 0 -133 9t-147 9q-85 0 -180.5 -9t-106.5 -9q-44 0 -65 19t-21 59q0 32 20.5 52.5t53.5 20.5q19 0 52.5 -6t49.5 -6q66 0 94.5 27.5
t28.5 91.5zM512 786q0 -36 22.5 -47.5t108.5 -11.5q247 0 339.5 56.5t92.5 197.5q0 144 -81.5 205t-276.5 61q-142 0 -173.5 -21t-31.5 -93v-347z" />
    <glyph glyph-name="Q" unicode="Q" horiz-adv-x="1425" 
d="M825 -137v117q-25 -5 -51 -7t-55 -2q-298 0 -465.5 188t-167.5 523q0 332 167.5 522.5t459.5 190.5q289 0 457.5 -192t168.5 -521q0 -247 -98.5 -423.5t-271.5 -242.5v-100q0 -109 26 -149.5t90 -40.5q47 0 75.5 18.5t43.5 60.5q6 16 7.5 54t5.5 58q3 15 18.5 25.5
t36.5 10.5q40 0 58 -25t18 -82q0 -107 -74.5 -177t-190.5 -70q-128 0 -193 66t-65 198zM479 176q-17 35 -26 73t-9 81q0 105 76.5 171t198.5 66q128 0 189 -71t61 -222v-84q77 47 126.5 181t49.5 307q0 266 -116.5 419.5t-317.5 153.5q-197 0 -313.5 -155t-116.5 -418
q0 -188 51.5 -319t146.5 -183zM825 119v112q0 129 -28.5 172t-100.5 43q-65 0 -107 -46.5t-42 -118.5q0 -82 49.5 -130.5t134.5 -48.5q24 0 48 4.5t46 12.5z" />
    <glyph glyph-name="R" unicode="R" horiz-adv-x="1520" 
d="M340 248v876q0 67 -28.5 95t-92.5 28q-17 0 -53.5 -8t-54.5 -8q-30 0 -50 21t-20 53q0 39 21 58t65 19q13 0 106.5 -9t174.5 -9q69 0 202.5 9t198.5 9q215 0 329.5 -90t114.5 -260q0 -142 -77.5 -230.5t-212.5 -101.5q116 -19 163.5 -75t47.5 -176v-199q0 -73 18 -100
t63 -27q53 0 74 40.5t21 162.5v153q0 42 14.5 60t48.5 18q32 0 48 -20.5t16 -61.5v-237q0 -133 -54.5 -190.5t-179.5 -57.5q-130 0 -180.5 58.5t-50.5 215.5v154q0 129 -67 173t-312 44q-78 0 -99.5 -9.5t-21.5 -39.5v-338q0 -68 26 -93.5t91 -25.5q17 0 53 6t53 6
q32 0 54 -21.5t22 -53.5q0 -37 -30 -56.5t-87 -19.5q-39 0 -133 9t-147 9q-85 0 -180.5 -9t-106.5 -9q-44 0 -65 19t-21 59q0 33 20.5 53t55.5 20q15 0 53 -6t59 -6q58 0 84.5 28.5t26.5 90.5zM512 823q0 -34 22 -44.5t111 -10.5q254 0 348 53t94 183t-82.5 186.5
t-277.5 56.5q-151 0 -183 -19.5t-32 -86.5v-318z" />
    <glyph glyph-name="S" unicode="S" horiz-adv-x="1128" 
d="M238 94q2 -17 3 -26t1 -15q0 -42 -18 -62t-58 -20q-32 0 -53 23.5t-21 60.5q0 22 7 90t7 115q0 81 -7 163t-7 83q0 49 20 75.5t56 26.5q39 0 58.5 -28.5t19.5 -87.5v-66q0 -138 94.5 -222.5t249.5 -84.5q144 0 225.5 69t81.5 191q0 101 -53.5 150.5t-276.5 97.5
q-6 1 -16 3q-232 48 -297 93q-71 49 -107 118.5t-36 155.5q0 178 120 288t314 110q91 0 170.5 -27t142.5 -80v10q0 35 16.5 55.5t45.5 20.5q30 0 50.5 -16t20.5 -39q0 -1 -5 -51t-5 -99q0 -119 9 -239q1 -22 1 -27q0 -47 -16 -67.5t-53 -20.5q-26 0 -45.5 13.5t-24.5 33.5
q-8 30 -8 97t-6 104q-13 86 -94.5 138t-204.5 52q-118 0 -185 -61.5t-67 -169.5q0 -95 60.5 -145.5t260.5 -94.5q19 -4 56 -12q220 -46 284 -98q59 -47 88 -113.5t29 -155.5q0 -199 -126 -315.5t-343 -116.5q-110 0 -196.5 30t-161.5 93z" />
    <glyph glyph-name="T" unicode="T" horiz-adv-x="1237" 
d="M528 1092q0 92 -25.5 116.5t-111.5 24.5q-129 0 -172 -37t-43 -143q0 -39 6 -95t6 -73q0 -38 -23.5 -64t-55.5 -26t-51 23.5t-19 62.5q0 14 6 89t6 136q0 31 -6 87t-6 81q0 50 28.5 75t86.5 25q5 0 30 -1q167 -7 344 -7h181q183 0 347 7q23 1 27 1q57 0 85 -24.5
t28 -75.5q0 -25 -7 -81t-7 -87q0 -61 7 -136t7 -89q0 -40 -18 -63t-50 -23q-33 0 -56 26t-23 64q0 17 5 73t5 95q0 106 -43.5 143t-175.5 37q-80 0 -105.5 -24.5t-25.5 -116.5v-826q0 -80 29 -108.5t104 -28.5q18 0 49.5 5t46.5 5q44 0 67 -18t23 -53q0 -41 -23.5 -60.5
t-70.5 -19.5q-32 0 -137 9t-179 9q-62 0 -168 -9t-149 -9q-48 0 -71 19t-23 59q0 32 22 52.5t56 20.5q16 0 53.5 -5t58.5 -5q76 0 103.5 27.5t27.5 109.5v826z" />
    <glyph glyph-name="U" unicode="U" horiz-adv-x="1663" 
d="M1346 627v-101v-69q0 -107 -12 -167t-38 -110q-53 -102 -171 -155.5t-289 -53.5q-137 0 -242 34.5t-166 98.5q-58 61 -83.5 146t-25.5 239v138v497q0 59 -24.5 87t-77.5 28q-28 0 -68.5 -5t-52.5 -5q-34 0 -55 21t-21 55q0 39 21.5 58t64.5 19q16 0 106.5 -9t166.5 -9
q70 0 165.5 9t121.5 9q49 0 77.5 -19.5t28.5 -53.5q0 -36 -19.5 -58t-50.5 -22q-18 0 -51 5t-47 5q-58 0 -81 -24t-23 -91v-661q0 -189 76 -265.5t258 -76.5q178 0 254.5 75.5t76.5 254.5v86v585q0 68 -22.5 92.5t-79.5 24.5q-14 0 -47 -5t-51 -5q-32 0 -52 21.5t-20 56.5
q0 34 29.5 54.5t78.5 20.5q26 0 120.5 -9t164.5 -9q76 0 166.5 9t106.5 9q43 0 65.5 -20t22.5 -59q0 -33 -21.5 -53.5t-56.5 -20.5q-12 0 -52.5 5t-68.5 5q-44 0 -73 -26.5t-29 -65.5q0 -3 1 -10t1 -13z" />
    <glyph glyph-name="V" unicode="V" horiz-adv-x="1530" 
d="M901 111q-33 -85 -63.5 -111.5t-81.5 -26.5q-50 0 -78.5 26.5t-63.5 121.5l-358 989q-26 74 -58.5 101.5t-88.5 27.5q-4 0 -20 -4t-34 -4q-54 0 -74 17.5t-20 56.5q0 31 26.5 53t63.5 22q7 0 113.5 -10t206.5 -10q82 0 166 10t86 10q39 0 59 -20t20 -60q0 -33 -22.5 -51
t-65.5 -18q-14 0 -49 4t-57 4q-29 0 -46.5 -18t-17.5 -47q0 -16 3.5 -33t9.5 -35l307 -905l309 905q7 20 10.5 40t3.5 42q0 21 -19.5 36t-47.5 15q-22 0 -57.5 -4t-49.5 -4q-42 0 -65 18t-23 51q0 39 21.5 59.5t60.5 20.5q2 0 85 -10t165 -10q99 0 206.5 10t115.5 10
q37 0 63.5 -22t26.5 -53q0 -30 -21 -52t-47 -22q-14 0 -38 4t-33 4q-66 0 -98 -27.5t-60 -101.5z" />
    <glyph glyph-name="W" unicode="W" horiz-adv-x="1847" 
d="M434 123l-225 991q-19 84 -38.5 105.5t-59.5 21.5q-6 0 -34.5 -5t-51.5 -5q-31 0 -53.5 23.5t-22.5 56.5q0 30 25.5 50.5t64.5 20.5q6 0 112.5 -8t206.5 -8q61 0 135 8t87 8q40 0 59.5 -18.5t19.5 -56.5q0 -37 -22.5 -56.5t-65.5 -19.5q-10 0 -42.5 5t-55.5 5
q-56 0 -76 -13.5t-20 -49.5q0 -16 2.5 -35t7.5 -43l176 -887l230 1020q18 82 47.5 115.5t83.5 33.5q53 0 81.5 -31t47.5 -118l229 -1020l176 886q5 25 7.5 44t2.5 35q0 36 -19.5 49.5t-76.5 13.5q-22 0 -55 -5t-43 -5q-43 0 -65.5 19.5t-22.5 56.5q0 38 19.5 56.5t60.5 18.5
q12 0 86.5 -8t134.5 -8q101 0 207.5 8t111.5 8q39 0 64.5 -20.5t25.5 -50.5q0 -33 -22.5 -56.5t-52.5 -23.5q-25 0 -53 5t-33 5q-71 0 -96 -116q-2 -8 -3 -11l-225 -991q-21 -93 -49 -124.5t-80 -31.5q-56 0 -86 32t-47 110l-227 1040l-226 -1040q-15 -76 -46.5 -109
t-86.5 -33q-52 0 -80 32.5t-49 123.5z" />
    <glyph glyph-name="X" unicode="X" horiz-adv-x="1579" 
d="M788 856l236 311q2 3 8 11q25 32 25 45q0 10 -15 15t-51 5q-18 0 -49 -5t-43 -5q-27 0 -45 21t-18 53q0 41 19 60t60 19q11 0 85 -10t139 -10q59 0 165.5 10t153.5 10q38 0 64 -22t26 -53q0 -34 -22.5 -56t-57.5 -22q-22 0 -54 5t-44 5q-42 0 -76 -22t-94 -99l-309 -393
l375 -475q2 -3 7 -10q88 -113 157 -113q11 0 43 5t53 5q32 0 55 -21.5t23 -51.5q0 -34 -25.5 -56t-62.5 -22q-34 0 -146.5 9t-191.5 9q-64 0 -143 -9t-93 -9q-40 0 -59 19t-19 61q0 33 19 52t51 19q15 0 47.5 -5t50.5 -5q29 0 47.5 10.5t18.5 26.5q0 12 -8 29t-23 36
l-279 365l-278 -365q-16 -20 -23.5 -35.5t-7.5 -27.5q0 -17 17 -28t43 -11q24 0 58.5 5t45.5 5q32 0 51 -19t19 -52q0 -42 -19 -61t-59 -19q-14 0 -92 9t-142 9q-79 0 -192.5 -9t-147.5 -9q-37 0 -62.5 22t-25.5 56q0 30 23 51.5t55 21.5q21 0 53 -5t43 -5q69 0 157 113
l7 10l377 475l-311 393q-62 79 -94.5 100t-73.5 21q-12 0 -45 -5t-55 -5q-35 0 -57.5 22t-22.5 56q0 31 27 53t65 22q44 0 150 -10t167 -10q65 0 138.5 10t82.5 10q42 0 61 -18.5t19 -58.5q0 -33 -19 -54.5t-46 -21.5q-14 0 -44.5 5t-47.5 5q-28 0 -43 -6t-15 -16
q0 -15 23 -46q4 -5 6 -8z" />
    <glyph glyph-name="Y" unicode="Y" horiz-adv-x="1503" 
d="M838 246q0 -61 25 -90t77 -29q28 0 68.5 6t52.5 6q35 0 56.5 -19.5t21.5 -51.5q0 -40 -21.5 -60t-64.5 -20q-4 0 -105.5 10t-199.5 10q-93 0 -192 -10t-105 -10q-43 0 -64.5 20t-21.5 60q0 32 21 51.5t56 19.5q12 0 52.5 -6t68.5 -6q52 0 76.5 29t24.5 90v274l-398 617
q-38 61 -69.5 80.5t-77.5 19.5l-29.5 -4t-58.5 -4q-27 0 -48.5 23t-21.5 53q0 31 26.5 53t63.5 22q7 0 115.5 -10t210.5 -10t199 18q15 2 18 2q46 0 70 -20.5t24 -59.5q0 -32 -21.5 -51.5t-56.5 -19.5q-12 0 -44 4t-52 4q-39 0 -56.5 -10t-17.5 -33q0 -17 17 -44l6 -9
l289 -479l286 478q3 5 9 14q16 25 16 40q0 23 -17.5 33t-56.5 10q-20 0 -52 -4t-44 -4q-35 0 -56.5 19.5t-21.5 51.5q0 37 23 58.5t63 21.5q1 0 4 -1t6 -1q4 0 18 -2q95 -16 197 -16t209.5 10t114.5 10q38 0 65 -22t27 -53q0 -30 -21.5 -53t-47.5 -23q-30 0 -59 4t-30 4
q-46 0 -77.5 -19.5t-69.5 -80.5l-399 -617v-274z" />
    <glyph glyph-name="Z" unicode="Z" horiz-adv-x="1241" 
d="M815 135q120 0 160.5 36.5t40.5 141.5q0 37 -6 93t-6 75q0 38 24 64t57 26q32 0 50 -23t18 -63q0 -14 -6 -89t-6 -136q0 -31 6 -87t6 -81q0 -49 -27 -74.5t-79 -25.5q-5 0 -21 1q-94 7 -186 7h-402q-78 0 -158 -4t-81 -4q-66 0 -95.5 28t-29.5 89q0 34 15 67.5t48 73.5
l803 979h-471q-121 0 -161 -35.5t-40 -140.5q0 -37 6.5 -93t6.5 -75q0 -38 -24.5 -64t-57.5 -26q-32 0 -51 23.5t-19 62.5q0 14 7 89t7 136q0 31 -7 87t-7 81q0 45 26.5 71.5t71.5 26.5q3 0 16 -1q94 -5 201 -5h351q108 0 216 2h21q66 0 97.5 -24t31.5 -74q0 -46 -72 -133
q-9 -11 -14 -17l-803 -985h543z" />
    <glyph glyph-name="bracketleft" unicode="[" horiz-adv-x="1012" 
d="M426 -180q0 -121 35 -161t129 -40q21 0 64.5 4t66.5 4q74 0 102.5 -13.5t28.5 -45.5q0 -27 -22.5 -40t-69.5 -13q-21 0 -89.5 4t-115.5 4q-36 0 -89 -4t-71 -4q-65 0 -88.5 29.5t-23.5 164.5v1481q0 135 23.5 164.5t88.5 29.5q18 0 71 -5t89 -5q43 0 111.5 5t93.5 5
q46 0 69 -13.5t23 -41.5q0 -32 -27.5 -44.5t-103.5 -12.5q-23 0 -66.5 4t-64.5 4q-93 0 -128.5 -40.5t-35.5 -162.5v-1257z" />
    <glyph glyph-name="backslash" unicode="\" horiz-adv-x="563" 
d="M473 -121l-444 1392q-2 7 -6 18q-9 25 -9 38q0 20 11.5 29.5t35.5 9.5q25 0 39 -12t27 -55l447 -1394q1 -6 6 -20q8 -24 8 -35q0 -20 -11.5 -29t-35.5 -9q-26 0 -40.5 12.5t-27.5 54.5z" />
    <glyph glyph-name="bracketright" unicode="]" horiz-adv-x="1012" 
d="M588 -180v1257q0 121 -36 162t-130 41q-21 0 -64.5 -4t-66.5 -4q-76 0 -103.5 12.5t-27.5 44.5q0 28 23 41.5t69 13.5q24 0 93 -5t112 -5q36 0 90 5t71 5q65 0 88 -28.5t23 -151.5v-14v-1495q0 -123 -23 -151.5t-88 -28.5q-17 0 -71 4t-90 4q-48 0 -116 -4t-89 -4
q-47 0 -69.5 13t-22.5 40q0 32 28.5 45.5t102.5 13.5q23 0 66.5 -4t64.5 -4q94 0 130 40.5t36 160.5z" />
    <glyph glyph-name="asciicircum" unicode="^" horiz-adv-x="2048" 
d="M1104 1458l520 -557h-158l-442 438l-442 -438h-160l520 557h162z" />
    <glyph glyph-name="underscore" unicode="_" 
d="M1024 -365v-118h-1024v118h1024z" />
    <glyph glyph-name="grave" unicode="`" 
d="M690 1251q8 -7 21 -21q57 -56 57 -65t-10.5 -16.5t-24.5 -7.5q-26 0 -103 47q-2 1 -3 2l-190 116q-6 4 -16 10q-97 58 -97 103q0 33 21.5 56.5t51.5 23.5q46 0 125 -80l6 -6z" />
    <glyph glyph-name="a" unicode="a" horiz-adv-x="1133" 
d="M721 360v158q-63 -49 -271 -78h-1q-148 -20 -199 -60t-51 -122q0 -69 53 -113.5t137 -44.5q152 0 242 71t90 189zM745 122q-60 -76 -150 -115.5t-208 -39.5q-164 0 -251 77.5t-87 221.5q0 132 77 200.5t259 94.5q11 2 29 4q297 43 297 170q0 80 -57.5 125t-159.5 45
q-84 0 -146.5 -28t-62.5 -60q0 -7 23.5 -35.5t23.5 -56.5q0 -40 -29.5 -67t-73.5 -27q-56 0 -88 36.5t-32 100.5q0 116 110.5 188t294.5 72q190 0 273 -81.5t83 -268.5v-463q0 -69 14 -92t50 -23q38 0 55 24.5t17 82.5v102q0 44 14 64t45 20q32 0 45.5 -20t13.5 -70v-149
q0 -88 -55 -137.5t-151 -49.5q-80 0 -124.5 40.5t-48.5 114.5z" />
    <glyph glyph-name="b" unicode="b" horiz-adv-x="1176" 
d="M328 551v-129q0 -166 66.5 -243t209.5 -77q157 0 243.5 104t86.5 294q0 182 -85.5 288.5t-230.5 106.5q-135 0 -212.5 -91.5t-77.5 -252.5zM334 66q0 -61 -17.5 -78t-74.5 -17q-37 0 -52.5 16.5t-15.5 59.5v88v967q0 100 -20.5 119.5t-83.5 19.5h-62q-47 0 -69.5 16
t-22.5 50q0 30 20 45.5t60 15.5q17 0 61.5 -5t71.5 -5q33 0 79 5t60 5q41 0 57.5 -21t16.5 -73q0 -34 -3 -130q-1 -28 -1 -42l-10 -234q55 84 133 124t186 40q203 0 328 -146t125 -384q0 -249 -125 -390t-346 -141q-89 0 -163.5 28.5t-131.5 84.5v-18z" />
    <glyph glyph-name="c" unicode="c" horiz-adv-x="1018" 
d="M76 498q0 248 128 390t351 142q180 0 290.5 -83.5t110.5 -217.5q0 -78 -44.5 -124t-120.5 -46q-52 0 -80.5 23.5t-28.5 66.5q0 29 15 53t42 39q5 3 15 6q22 9 22 27q0 48 -61 86.5t-146 38.5q-158 0 -245.5 -109.5t-87.5 -308.5q0 -174 84.5 -279.5t222.5 -105.5
q93 0 154 38.5t100 122.5q9 19 23 60q34 95 85 95q32 0 53 -20.5t21 -51.5q0 -46 -24.5 -108.5t-63.5 -112.5q-60 -75 -149 -113.5t-205 -38.5q-213 0 -337 143t-124 388z" />
    <glyph glyph-name="d" unicode="d" horiz-adv-x="1241" 
d="M848 422v129q0 161 -78 252.5t-213 91.5q-144 0 -229.5 -106.5t-85.5 -288.5q0 -191 85.5 -294.5t241.5 -103.5q144 0 211.5 77t67.5 243zM848 1038v41q0 112 -24.5 140t-96.5 28h-63q-40 0 -58 14t-18 44q0 31 21 48t61 17q4 0 36.5 -3t59.5 -3q71 0 143 5q15 1 19 1
q43 0 58 -16t15 -68v-1034q0 -98 19 -118.5t78 -20.5h53q44 0 65 -16.5t21 -49.5q0 -32 -19.5 -46.5t-62.5 -14.5q-13 0 -58.5 7t-78.5 7q-20 0 -62 -7t-65 -7q-29 0 -39 14t-10 66v18q-57 -55 -132.5 -84t-164.5 -29q-216 0 -342.5 138.5t-126.5 373.5q0 252 122.5 400.5
t329.5 148.5q107 0 184 -39.5t136 -124.5v170z" />
    <glyph glyph-name="e" unicode="e" horiz-adv-x="1049" 
d="M240 479v-6q0 -169 83.5 -271t221.5 -102q84 0 141.5 30t104.5 97q18 27 38 82q31 82 78 82q30 0 50 -20.5t20 -51.5q0 -36 -24 -89.5t-64 -106.5q-62 -80 -147.5 -118t-204.5 -38q-212 0 -336.5 143.5t-124.5 387.5q0 243 124.5 386.5t336.5 143.5q204 0 326 -122.5
t122 -327.5q0 -59 -20 -79t-78 -20h-35h-612zM250 610h565v13q0 122 -76.5 198t-199.5 76q-121 0 -198.5 -77t-90.5 -210z" />
    <glyph glyph-name="f" unicode="f" horiz-adv-x="688" 
d="M252 874q-54 -1 -112.5 -3.5t-63.5 -2.5q-34 0 -50 14t-16 44t21.5 47.5t58.5 17.5q4 0 49 -3t86 -3h27q0 7 -1 20.5t-1 20.5q0 169 86 256.5t252 87.5q115 0 184.5 -50.5t69.5 -133.5q0 -45 -25 -72t-67 -27q-44 0 -69.5 20t-25.5 54q0 12 4.5 33.5t4.5 30.5
q0 14 -19 21t-59 7q-91 0 -138 -55t-47 -162q0 -20 0.5 -30.5t2.5 -20.5q67 0 140 5q17 1 21 1q41 0 63.5 -16.5t22.5 -46.5t-17.5 -45t-53.5 -15q-4 0 -21 1q-78 5 -151 5v-618q0 -94 15 -117.5t62 -23.5q4 0 31 3t49 3q45 0 65.5 -16.5t20.5 -51.5q0 -31 -20 -47t-58 -16
q-7 0 -93 8t-165 8q-67 0 -141 -8t-82 -8q-43 0 -62.5 14.5t-19.5 46.5q0 35 22 52.5t64 17.5q11 0 30.5 -3t27.5 -3q59 0 78.5 21t19.5 120v618z" />
    <glyph glyph-name="g" unicode="g" horiz-adv-x="1081" 
d="M362 696q0 -83 60.5 -136.5t155.5 -53.5q94 0 154.5 53.5t60.5 136.5q0 84 -60.5 137.5t-154.5 53.5q-95 0 -155.5 -54t-60.5 -137zM233 -47q0 -81 89 -127.5t245 -46.5q152 0 243 48t91 126q0 80 -90 128t-244 48q-150 0 -242 -49t-92 -127zM797 963q71 -44 108 -111.5
t37 -153.5q0 -150 -101 -235.5t-278 -85.5q-106 0 -215 47q-28 12 -35 12q-26 0 -45.5 -23.5t-19.5 -56.5q0 -52 43 -81t121 -29q23 0 82 2t94 2q227 0 347 -78.5t120 -226.5q0 -139 -133 -223t-355 -84q-227 0 -358 82.5t-131 224.5q0 71 45 133.5t121 93.5
q-72 29 -108 74.5t-36 107.5q0 68 40 117.5t112 71.5q-21 39 -31 78t-10 77q0 146 99.5 231t271.5 85q24 0 48.5 -2t49.5 -6v6q0 79 63 131.5t158 52.5q92 0 150.5 -51t58.5 -131q0 -49 -25.5 -77t-70.5 -28q-39 0 -60.5 19.5t-21.5 54.5q0 21 15.5 42.5t15.5 23.5
q0 12 -21 23t-49 11q-44 0 -71 -28t-27 -74q0 -3 1 -9t1 -9z" />
    <glyph glyph-name="h" unicode="h" horiz-adv-x="1372" 
d="M250 1038q0 152 -23.5 182.5t-95.5 30.5h-63q-40 0 -57 13t-17 43q0 31 20.5 48t59.5 17q2 0 35.5 -3t66.5 -3q72 0 144 5q13 1 16 1q38 0 51.5 -15.5t13.5 -74.5v-430q66 84 146.5 123t185.5 39q208 0 300.5 -102.5t92.5 -331.5v-324q0 -94 18.5 -117.5t78.5 -23.5
q12 0 29.5 3t23.5 3q42 0 64 -17.5t22 -52.5q0 -33 -18.5 -47t-61.5 -14q-11 0 -84 8t-135 8q-74 0 -154 -8t-86 -8q-35 0 -54 16.5t-19 46.5q0 35 19.5 51.5t59.5 16.5q18 0 42 -3t30 -3q42 0 56 23t14 118v291q0 185 -61 263.5t-201 78.5q-160 0 -234 -110t-74 -349v-174
q0 -95 14 -118t56 -23q6 0 30.5 3t41.5 3q40 0 59 -16.5t19 -51.5q0 -31 -18.5 -47t-53.5 -16q-6 0 -86 8t-154 8q-61 0 -134.5 -8t-84.5 -8q-43 0 -61.5 14t-18.5 47q0 35 21 52.5t63 17.5q11 0 30.5 -3t27.5 -3q59 0 78.5 21t19.5 120v782z" />
    <glyph glyph-name="i" unicode="i" horiz-adv-x="680" 
d="M276 256v408q0 141 -20 175.5t-82 34.5h-74q-37 0 -51 13t-14 45q0 27 20.5 46t50.5 19q6 0 45.5 -3t73.5 -3q57 0 119 5q15 1 18 1q42 0 56 -15t14 -69v-657q0 -92 18.5 -117.5t77.5 -25.5q13 0 30 3t24 3q43 0 64.5 -17t21.5 -51q0 -33 -18.5 -47t-61.5 -14
q-12 0 -84 8t-131 8q-111 0 -225 -13q-25 -3 -31 -3q-44 0 -63 14.5t-19 46.5q0 34 21.5 51t64.5 17q10 0 29 -3t28 -3q61 0 79.5 24.5t18.5 118.5zM215 1194q0 47 32 79t79 32q45 0 75.5 -32t30.5 -79q0 -45 -31 -77t-75 -32q-47 0 -79 31.5t-32 77.5z" />
    <glyph glyph-name="j" unicode="j" horiz-adv-x="680" 
d="M250 1194q0 47 31.5 79t78.5 32q46 0 77.5 -32.5t31.5 -78.5q0 -45 -32 -77t-77 -32q-46 0 -78 31.5t-32 77.5zM319 10v656q0 144 -22.5 178.5t-83.5 34.5h-88q-40 0 -57 13.5t-17 45.5q0 31 17.5 46t52.5 15q3 0 16 -1q65 -5 125 -5q57 0 119 5q14 1 18 1q42 0 56 -16.5
t14 -69.5v-850q0 -122 -13 -186.5t-42 -112.5q-47 -74 -129 -115.5t-183 -41.5q-116 0 -197 60.5t-81 142.5q0 54 29 87t77 33q45 0 71 -26t26 -72q0 -28 -22 -59q-7 -10 -7 -13q0 -11 33.5 -22.5t77.5 -11.5q104 0 157 71.5t53 212.5z" />
    <glyph glyph-name="k" unicode="k" horiz-adv-x="1270" 
d="M258 256v805q0 129 -21.5 157.5t-80.5 28.5h-74q-37 0 -51.5 13t-14.5 45q0 30 19.5 46.5t56.5 16.5q3 0 33 -3t59 -3q68 0 138 5q14 1 18 1q41 0 55.5 -15.5t14.5 -68.5v-758l307 310q15 15 20.5 24.5t5.5 18.5q0 7 -4.5 9.5t-23.5 2.5q-14 0 -43.5 -4t-44.5 -4
q-36 0 -56 16.5t-20 46.5q0 31 20.5 48.5t57.5 17.5q2 0 72 -8.5t139 -8.5q73 0 150 8.5t81 8.5q44 0 63 -14.5t19 -47.5q0 -37 -24.5 -52t-86.5 -15q-7 0 -21 4t-20 4q-33 0 -61 -15t-68 -53l-192 -190l311 -453q26 -38 51.5 -51.5t71.5 -13.5q10 0 26.5 2t24.5 2
q42 0 63 -18.5t21 -53.5q0 -32 -18 -45.5t-62 -13.5q-1 0 -80 9t-157 9q-60 0 -121 -9l-61 -9q-33 0 -47.5 13.5t-14.5 45.5q0 39 18 55.5t66 16.5q19 0 30 -3q4 -1 5 -1q21 0 29 5t8 17q0 4 -7 14q-4 6 -5 8l-263 367l-159 -155v-115q0 -90 15 -115.5t60 -25.5q6 0 20 2
t21 2q33 0 49.5 -16.5t16.5 -49.5q0 -35 -14.5 -50t-47.5 -15l-63 9t-127 9q-80 0 -160 -9t-82 -9q-42 0 -62 15t-20 48q0 34 21.5 51t64.5 17q11 0 30 -2t28 -2q60 0 79 23.5t19 117.5z" />
    <glyph glyph-name="l" unicode="l" horiz-adv-x="680" 
d="M276 256v797q0 133 -21 163.5t-81 30.5h-74q-37 0 -51 13t-14 45q0 30 19.5 46.5t56.5 16.5q1 0 33 -3t61 -3q70 0 140 5q14 1 17 1q41 0 55.5 -15.5t14.5 -68.5v-1028q0 -93 18 -117t78 -24q13 0 30 2t24 2q43 0 64.5 -17t21.5 -51q0 -33 -18.5 -47t-61.5 -14
q-12 0 -84 8t-131 8q-111 0 -225 -13q-25 -3 -31 -3q-44 0 -63 14.5t-19 46.5q0 34 21.5 51t64.5 17q10 0 29 -2t28 -2q61 0 79.5 24t18.5 117z" />
    <glyph glyph-name="m" unicode="m" horiz-adv-x="1919" 
d="M426 256q0 -92 10.5 -116.5t44.5 -24.5q10 0 27 3t24 3q38 0 54 -15.5t16 -52.5q0 -34 -14.5 -48.5t-50.5 -14.5q-8 0 -69 8t-118 8q-74 0 -153 -8t-82 -8q-43 0 -60.5 14t-17.5 47q0 35 21 52.5t63 17.5q11 0 29 -3t26 -3q62 0 80 24t18 117v451q0 112 -20.5 141
t-77.5 29h-63q-40 0 -58 12.5t-18 40.5q0 32 21.5 49.5t60.5 17.5q3 0 32 -3t56 -3q62 0 127 5q14 1 16 1q38 0 52 -15t14 -69v-67q48 83 125 126.5t178 43.5q83 0 152 -36t124 -108q61 75 137.5 109.5t180.5 34.5q186 0 274 -106t88 -330v-324q0 -90 18 -115.5t79 -25.5
q12 0 29.5 3t23.5 3q42 0 64 -17.5t22 -52.5q0 -33 -18.5 -47t-61.5 -14q-17 0 -84 8t-117 8h-20q-34 0 -103.5 -8t-101.5 -8q-35 0 -50.5 15t-15.5 48q0 36 15 52t49 16q12 0 32 -3t27 -3q33 0 44.5 22t11.5 119v217q0 263 -50 340.5t-174 77.5q-129 0 -188 -99t-59 -321
v-215q0 -90 11.5 -115.5t49.5 -25.5q8 0 30 3t36 3q37 0 54 -16.5t17 -51.5q0 -32 -16.5 -47.5t-50.5 -15.5q-11 0 -80.5 8t-128.5 8q-57 0 -124.5 -8t-78.5 -8q-33 0 -49.5 15.5t-16.5 47.5q0 35 17 51.5t53 16.5q12 0 33.5 -3t30.5 -3q36 0 47.5 25.5t11.5 115.5v307
q0 185 -47.5 255.5t-161.5 70.5q-132 0 -195 -99t-63 -307v-227z" />
    <glyph glyph-name="n" unicode="n" horiz-adv-x="1399" 
d="M997 545q0 185 -61.5 264.5t-202.5 79.5q-159 0 -233 -110t-74 -349v-207q0 -63 14.5 -85.5t55.5 -22.5q6 0 30 3t41 3q41 0 60.5 -16.5t19.5 -51.5q0 -31 -18 -47t-54 -16q-6 0 -86.5 8t-154.5 8q-62 0 -135 -8t-84 -8q-43 0 -60.5 14t-17.5 47q0 35 21 52.5t63 17.5
q11 0 29 -3t26 -3q59 0 78.5 21.5t19.5 101.5v495q0 86 -20.5 115t-77.5 29h-63q-40 0 -58 12.5t-18 40.5q0 32 21.5 49.5t60.5 17.5q5 0 34 -3t54 -3q62 0 127 5q14 1 16 1q39 0 52.5 -16t13.5 -68v-75q72 94 152 135t190 41q208 0 301.5 -102t93.5 -332v-324
q0 -99 19 -120t77 -21q13 0 30 3t24 3q42 0 64 -17.5t22 -52.5q0 -32 -19.5 -46.5t-62.5 -14.5q-11 0 -84.5 8t-135.5 8q-73 0 -153 -8t-86 -8q-35 0 -53.5 16t-18.5 47q0 35 19 51.5t59 16.5q17 0 42 -3t32 -3q42 0 55.5 23.5t13.5 113.5v293z" />
    <glyph glyph-name="o" unicode="o" horiz-adv-x="1171" 
d="M238 498q0 -190 90.5 -293t257.5 -103q161 0 253.5 105.5t92.5 290.5q0 187 -92 292t-254 105q-163 0 -255.5 -105.5t-92.5 -291.5zM76 498q0 243 137 385.5t371 142.5q237 0 373.5 -141.5t136.5 -386.5q0 -247 -136.5 -389t-375.5 -142q-232 0 -369 144t-137 387z" />
    <glyph glyph-name="p" unicode="p" horiz-adv-x="1241" 
d="M395 569v-176q0 -139 74.5 -215t210.5 -76q148 0 232.5 106t84.5 292q0 182 -85.5 288.5t-229.5 106.5q-130 0 -208.5 -88.5t-78.5 -237.5zM395 -113q0 -83 17 -111t65 -28q13 0 42 3t46 3q45 0 66.5 -17t21.5 -52q0 -31 -20.5 -47.5t-59.5 -16.5l-96 7t-190 7
q-55 0 -119 -7t-74 -7q-38 0 -54.5 13.5t-16.5 46.5q0 36 19 54.5t56 18.5q11 0 28 -3t24 -3q53 0 70.5 22t17.5 117v807q0 121 -21 152t-78 31h-67q-38 0 -54 13t-16 42q0 31 15 48t42 17q13 0 34 -4t30 -4q61 0 131 4t78 4q40 0 52.5 -15.5t12.5 -68.5v-45q54 84 131 124
t185 40q204 0 328 -147.5t124 -392.5q0 -238 -130 -381.5t-343 -143.5q-88 0 -161.5 29t-135.5 88v-197z" />
    <glyph glyph-name="q" unicode="q" horiz-adv-x="1186" 
d="M850 393v176q0 148 -79.5 237t-209.5 89q-144 0 -229.5 -106.5t-85.5 -288.5q0 -186 84.5 -292t232.5 -106q137 0 212 76t75 215zM1008 -127q0 -98 20.5 -118.5t85.5 -20.5q11 0 31 3t29 3q44 0 68 -18.5t24 -53.5q0 -32 -20 -46.5t-66 -14.5q-13 0 -89.5 8t-140.5 8
q-89 0 -182 -8t-96 -8q-39 0 -59.5 16.5t-20.5 46.5q0 35 22.5 52.5t67.5 17.5q11 0 41.5 -3t50.5 -3q46 0 61 25t15 114v211q-61 -56 -136 -84.5t-163 -28.5q-216 0 -343.5 138.5t-127.5 373.5q0 252 122.5 400.5t329.5 148.5q108 0 185.5 -40t132.5 -124v45q0 56 14 70
t72 14q48 0 60 -11t12 -62v-25v-1026z" />
    <glyph glyph-name="r" unicode="r" horiz-adv-x="1020" 
d="M432 256q0 -89 15.5 -115t64.5 -26q4 0 31 3t51 3q47 0 68.5 -16.5t21.5 -51.5q0 -30 -21.5 -46.5t-60.5 -16.5q-7 0 -96.5 8t-171.5 8q-66 0 -140 -8t-81 -8q-42 0 -59 14t-17 47q0 35 20 52.5t62 17.5q10 0 28 -3t27 -3q61 0 79.5 24t18.5 117v426q0 133 -20 164
t-78 31h-63q-40 0 -57 12.5t-17 40.5q0 32 20.5 49.5t59.5 17.5q5 0 34 -3t54 -3q62 0 125 5q13 1 16 1q39 0 53.5 -16.5t14.5 -67.5l-2 -57q41 83 108.5 125.5t157.5 42.5q125 0 206 -78.5t81 -202.5q0 -88 -43 -138t-117 -50q-53 0 -82 27t-29 75q0 29 15 47.5t46 28.5
q6 2 15 4q37 8 37 47q0 42 -46 79.5t-104 37.5q-122 0 -173.5 -102t-51.5 -361v-182z" />
    <glyph glyph-name="s" unicode="s" horiz-adv-x="1008" 
d="M227 74v-27q0 -40 -17 -61t-50 -21q-34 0 -49 18.5t-15 59.5q0 36 6.5 90t6.5 72q0 42 -6.5 93.5t-6.5 61.5q0 30 20.5 52t49.5 22q33 0 47 -22.5t14 -77.5v-29q0 -95 85 -152t229 -57q110 0 170.5 47t60.5 131q0 34 -19 64t-55 51q-25 15 -123.5 27t-156.5 24
q-152 32 -220.5 101t-68.5 188q0 135 100 215t271 80q81 0 148.5 -22.5t119.5 -67.5q-1 5 -1.5 10.5t-0.5 16.5q0 29 14 46t39 17q22 0 37.5 -19t15.5 -44q0 -3 -1 -15q-11 -98 -11 -217v-57q0 -35 -14.5 -51.5t-44.5 -16.5q-31 0 -43.5 16.5t-12.5 59.5v27
q0 89 -65.5 140.5t-179.5 51.5q-106 0 -166 -44t-60 -122q0 -32 11.5 -57t33.5 -41q49 -39 194 -53q61 -5 96 -11q165 -25 240 -89.5t75 -182.5q0 -149 -108 -241.5t-284 -92.5q-97 0 -176.5 28.5t-128.5 80.5z" />
    <glyph glyph-name="t" unicode="t" horiz-adv-x="795" 
d="M133 995q17 0 24 7t7 24v195q0 27 20 45t52 18t53.5 -18.5t21.5 -44.5v-189q0 -25 5 -31t24 -6h205q37 0 57.5 -17.5t20.5 -49.5q0 -36 -22 -53t-66 -17h-195q-16 0 -22.5 -12.5t-6.5 -44.5v-430q0 -171 30 -218t108 -47q67 0 104 45t37 128q0 17 -2 52t-2 52
q0 47 17.5 71.5t51.5 24.5q46 0 65 -30.5t19 -108.5q0 -181 -78 -277t-227 -96q-148 0 -212 75.5t-64 254.5v504q0 38 -6.5 47.5t-22.5 9.5h-78q-36 0 -52.5 16.5t-16.5 51.5q0 36 17.5 52.5t55.5 16.5h78z" />
    <glyph glyph-name="u" unicode="u" horiz-adv-x="1356" 
d="M233 737q0 94 -13.5 117t-59.5 23h-78q-45 0 -64.5 14.5t-19.5 48.5q0 30 19 44.5t57 14.5q14 0 65 -4t88 -4q21 0 55.5 4t47.5 4q38 0 48.5 -15t10.5 -91v-19v-421q0 -192 61 -271.5t201 -79.5q160 0 233.5 110t73.5 351v174q0 93 -13 116.5t-56 23.5h-72
q-42 0 -60 14.5t-18 48.5q0 31 17.5 45t54.5 14q16 0 64 -4t79 -4q24 0 56 4t41 4q38 0 48.5 -15t10.5 -91v-19v-544q0 -139 19 -175t77 -36h68q36 0 51.5 -13t15.5 -43q0 -33 -19 -51t-54 -18q-14 0 -50 3t-59 3q-25 0 -66.5 -3t-56.5 -3q-37 0 -51 16t-14 70v76
q-75 -96 -154.5 -136t-189.5 -40q-207 0 -300.5 101.5t-93.5 332.5v323z" />
    <glyph glyph-name="v" unicode="v" horiz-adv-x="1135" 
d="M672 47q-14 -36 -40.5 -54t-66.5 -18q-41 0 -65 16.5t-39 55.5l-283 721q-2 5 -5 14q-38 97 -105 97q-3 0 -27 -3.5t-47 -3.5q-40 0 -63 16.5t-23 45.5q0 31 25 49t67 18q20 0 106 -10t152 -10q52 0 113 10t71 10q31 0 49.5 -17t18.5 -46q0 -34 -17 -50t-53 -16
q-9 0 -33.5 3.5t-39.5 3.5q-17 0 -30 -15t-13 -35q0 -7 2 -16.5t6 -19.5l233 -643l232 643q4 10 6 19.5t2 16.5q0 20 -12.5 35t-28.5 15q-15 0 -40 -3.5t-34 -3.5q-35 0 -52 16t-17 50q0 29 18 46t49 17q11 0 71.5 -10t112.5 -10q66 0 152.5 10t105.5 10q43 0 68 -18t25 -49
q0 -29 -23 -45.5t-63 -16.5q-22 0 -46.5 3.5t-27.5 3.5q-68 0 -109 -106l-1 -4z" />
    <glyph glyph-name="w" unicode="w" horiz-adv-x="1683" 
d="M707 881q16 69 43 96t79 27q48 0 74.5 -27.5t42.5 -95.5l182 -764l160 675q3 12 4.5 21t1.5 14q0 20 -14.5 36t-32.5 16t-49 -3.5t-45 -3.5q-48 0 -70 15.5t-22 48.5q0 30 23.5 47.5t64.5 17.5q15 0 89 -10t132 -10q60 0 140.5 10t103.5 10q42 0 67 -17.5t25 -47.5
t-22.5 -47t-61.5 -17q-20 0 -44.5 3.5t-29.5 3.5q-49 0 -72 -21t-40 -90l-138 -528q-4 -17 -11 -45q-56 -218 -159 -218q-67 0 -102 42.5t-68 199.5l-131 623l-133 -623q-33 -159 -67.5 -200.5t-102.5 -41.5q-102 0 -158 217q-7 29 -12 46l-137 528q-19 72 -43 91.5
t-76 19.5q-3 0 -24.5 -3.5t-40.5 -3.5q-41 0 -64.5 17t-23.5 45q0 31 26.5 49t73.5 18q15 0 96 -10t146 -10q58 0 132 10t89 10q41 0 64.5 -17.5t23.5 -47.5q0 -33 -22.5 -48.5t-69.5 -15.5q-14 0 -45 3.5t-49 3.5t-33 -16t-15 -36q1 -5 2.5 -14t4.5 -21l161 -675z" />
    <glyph glyph-name="x" unicode="x" horiz-adv-x="1231" 
d="M606 616l178 213q5 6 9 16t4 15q0 7 -7 10.5t-20 3.5q-1 0 -15.5 -4t-33.5 -4q-29 0 -46.5 17.5t-17.5 46.5q0 34 17 49.5t53 15.5q9 0 64 -8t102 -8q51 0 124 8t95 8q40 0 59 -14.5t19 -46.5t-21.5 -50t-60.5 -18q-7 0 -23 4t-24 4q-36 0 -64.5 -15t-56.5 -50l-244 -297
l281 -334q32 -38 57 -51.5t56 -13.5q7 0 22 4t23 4q36 0 55.5 -17t19.5 -49q0 -33 -17.5 -49t-53.5 -16q-23 0 -87.5 9t-105.5 9q-51 0 -121.5 -9t-91.5 -9q-38 0 -56 15t-18 46q0 36 19.5 53t60.5 17q15 0 37.5 -4t30.5 -4q16 0 23.5 3.5t7.5 12.5q0 7 -4 13t-13 16
l-215 256l-215 -256q-10 -13 -13 -18.5t-3 -10.5q0 -8 8 -12t25 -4q8 0 29.5 4t35.5 4q41 0 60.5 -17t19.5 -53q0 -31 -18 -46t-56 -15q-20 0 -91 9t-122 9q-41 0 -104.5 -9t-85.5 -9q-37 0 -55.5 16.5t-18.5 48.5t20 49t56 17q7 0 22.5 -4t22.5 -4q31 0 55 13t58 52
l280 336l-248 295q-28 35 -56.5 50t-64.5 15q-8 0 -24 -4t-23 -4q-38 0 -60 18t-22 50q0 31 19.5 46t60.5 15q22 0 94 -8t123 -8q48 0 103.5 8t64.5 8q35 0 51.5 -13.5t16.5 -43.5q0 -37 -19 -54.5t-59 -17.5q-9 0 -20.5 4t-14.5 4q-12 0 -19 -3.5t-7 -10.5q0 -5 4 -14
t10 -17z" />
    <glyph glyph-name="y" unicode="y" horiz-adv-x="1124" 
d="M672 47q-84 -225 -202.5 -333.5t-279.5 -108.5q-120 0 -194 60t-74 159q0 61 35.5 99t91.5 38q44 0 72.5 -25.5t28.5 -64.5q0 -44 -45 -85q-11 -11 -11 -13q0 -15 28.5 -27t70.5 -12q57 0 105 21.5t83 62.5q48 55 72 103.5t24 88.5q0 10 -1.5 19t-4.5 18l-268 721
q-3 7 -8 20q-33 91 -97 91q-3 0 -27 -3.5t-44 -3.5q-38 0 -60 17t-22 45q0 31 25 49t69 18q15 0 95.5 -10t146.5 -10q49 0 108.5 10t69.5 10q29 0 46 -17t17 -46q0 -34 -16 -50t-49 -16q-10 0 -33 3.5t-37 3.5q-16 0 -28.5 -15t-12.5 -35q0 -7 2.5 -17.5t5.5 -18.5l221 -609
l216 609q4 10 6 19.5t2 16.5q0 22 -12.5 36t-32.5 14q-12 0 -34 -3.5t-32 -3.5q-34 0 -49.5 16t-15.5 50q0 29 17 46t46 17q10 0 68.5 -10t109.5 -10q62 0 136.5 10t86.5 10q38 0 61 -18t23 -47t-20 -46.5t-55 -17.5q-13 0 -31 3.5t-25 3.5q-61 0 -100 -105l-2 -6z" />
    <glyph glyph-name="z" unicode="z" horiz-adv-x="1022" 
d="M369 862q-81 0 -108.5 -17.5t-27.5 -68.5q0 -18 3.5 -45.5t3.5 -36.5q0 -38 -17.5 -58t-50.5 -20q-30 0 -45.5 20t-15.5 58q0 20 2 59t2 58v61q0 78 17.5 100.5t72.5 22.5q18 0 56.5 -3t57.5 -3h41h357q13 0 47 3t55 3q62 0 91.5 -22t29.5 -68q0 -23 -12 -46t-43 -56
l-635 -658h440q78 0 107.5 22t29.5 77q0 30 -3 70.5t-3 50.5q0 44 17 68t49 24q33 0 47 -22t14 -73q0 -11 -2 -76t-2 -118v-96q0 -42 -24.5 -60t-83.5 -18q-1 0 -27.5 3t-54.5 3h-547q-73 0 -107 23.5t-34 72.5q0 31 11.5 58t35.5 51l630 657h-374z" />
    <glyph glyph-name="braceleft" unicode="{" 
d="M858 1350q-8 0 -23 1t-22 1q-121 0 -164 -47t-43 -197v-242q0 -166 -43.5 -235.5t-154.5 -100.5q111 -30 154.5 -99.5t43.5 -235.5v-242q0 -149 43.5 -195.5t169.5 -46.5h39v-125h-35q-99 0 -159.5 12t-102.5 40q-55 36 -77.5 100t-22.5 213v244q0 152 -55 213t-189 61
q-7 0 -22 -1t-23 -1v127q8 0 23 -1t22 -1q134 0 189 61.5t55 214.5v244q0 153 22.5 215.5t77.5 97.5q42 28 102 40t160 12h35v-127z" />
    <glyph glyph-name="bar" unicode="|" 
d="M575 1565v-2048h-126v2048h126z" />
    <glyph glyph-name="braceright" unicode="}" 
d="M563 1112v-244q0 -152 55.5 -214t190.5 -62q7 0 22 1t23 1v-127q-8 0 -23 1t-22 1q-135 0 -190.5 -62t-55.5 -214v-242q0 -153 -22 -216.5t-76 -99.5q-39 -26 -97.5 -37.5t-160.5 -11.5h-41v125q8 0 23 -1t22 -1q120 0 163.5 47.5t43.5 198.5v240q0 166 43.5 235.5
t154.5 99.5q-111 31 -154.5 100.5t-43.5 235.5v242q0 149 -44 196.5t-169 47.5h-39v125h35q100 0 161 -12.5t103 -39.5q54 -35 76 -98t22 -215z" />
    <glyph glyph-name="asciitilde" unicode="~" horiz-adv-x="1706" 
d="M1530 627q-101 -72 -197.5 -108t-189.5 -36q-43 0 -90.5 9t-100.5 26q-30 10 -87 31q-202 72 -302 72q-83 0 -173.5 -37.5t-211.5 -122.5v133q105 73 202 109t185 36q56 0 116.5 -12.5t174.5 -52.5q14 -5 44 -16q158 -58 245 -58q84 0 174.5 37t210.5 121v-131z" />
    <glyph glyph-name="nonbreakingspace" unicode="&#xa0;" horiz-adv-x="1290" 
 />
    <glyph glyph-name="exclamdown" unicode="&#xa1;" horiz-adv-x="645" 
d="M444 1268q0 -53 -35 -88t-87 -35q-53 0 -88 35t-35 88q0 51 36 88t87 37t86.5 -36.5t35.5 -88.5zM422 94v-12q0 -53 -27 -84t-73 -31q-47 0 -74 31t-27 84v12l33 826q2 56 16.5 75t51.5 19q36 0 50.5 -19t16.5 -75z" />
    <glyph glyph-name="cent" unicode="&#xa2;" horiz-adv-x="1290" 
d="M618 342v688q-119 -24 -179 -113.5t-60 -242.5q0 -137 64.5 -226t174.5 -106zM618 225q-181 13 -285 135.5t-104 325.5q0 201 105.5 325t283.5 132v172q0 31 13.5 45t42.5 14q25 0 38 -15t13 -44v-170q147 -9 237.5 -83t90.5 -183q0 -68 -40.5 -109t-107.5 -41
q-47 0 -73.5 23.5t-26.5 64.5q0 45 40 71.5t40 33.5q0 38 -45 70t-115 40v-686q53 8 96.5 39.5t79.5 87.5q15 24 32 68q28 71 68 71q29 0 48.5 -18.5t19.5 -46.5q0 -112 -102 -210t-242 -108v-172q0 -41 -12 -57t-41 -16q-30 0 -42 15.5t-12 57.5v168z" />
    <glyph glyph-name="sterling" unicode="&#xa3;" horiz-adv-x="1290" 
d="M424 725h-105q-44 0 -95.5 -6t-57.5 -6q-34 0 -53 14.5t-19 40.5q0 30 21.5 45.5t62.5 15.5q18 0 70.5 -6t85.5 -6h55q-28 55 -41.5 105t-13.5 100q0 156 105 256t270 100q142 0 238.5 -82t96.5 -200q0 -70 -33 -111t-89 -41q-45 0 -75 27t-30 65q0 31 18.5 55t53.5 37
q-11 59 -64 96.5t-127 37.5q-89 0 -147.5 -61.5t-58.5 -156.5q0 -46 13.5 -102t41.5 -125h117q84 0 168 11q15 1 18 1q34 0 53 -14.5t19 -40.5q0 -30 -22 -45.5t-62 -15.5q-15 0 -74 6t-102 6h-64q55 -97 79.5 -165t24.5 -122q0 -40 -9 -81t-27 -85q100 -74 171.5 -108.5
t123.5 -34.5q74 0 118.5 50.5t44.5 135.5q0 60 -29.5 104t-78.5 56q-17 -30 -39.5 -45.5t-50.5 -15.5q-41 0 -68 28t-27 70q0 52 42.5 88.5t105.5 36.5q115 0 203 -99t88 -235q0 -144 -92.5 -237t-235.5 -93q-78 0 -165.5 38t-194.5 120q-63 -80 -139.5 -119t-170.5 -39
q-127 0 -203.5 66.5t-76.5 175.5q0 105 70.5 171.5t183.5 66.5q60 0 128 -25.5t156 -81.5q9 25 12 39.5t3 26.5q0 47 -28.5 120.5t-92.5 192.5zM473 211q-78 54 -131 77t-96 23q-54 0 -85.5 -26t-31.5 -70q0 -48 40 -76t110 -28q51 0 98.5 24t95.5 76z" />
    <glyph glyph-name="currency" unicode="&#xa4;" horiz-adv-x="1241" 
d="M936 887q0 129 -91.5 221t-221.5 92t-222 -92t-92 -221q0 -131 91.5 -223.5t222.5 -92.5q129 0 221 93t92 223zM365 1212q60 46 122.5 68.5t133.5 22.5t135.5 -22.5t124.5 -68.5l204 207l72 -73l-205 -205q43 -57 64.5 -121t21.5 -135t-21.5 -135.5t-64.5 -120.5
l205 -205l-72 -74l-204 207q-57 -44 -121.5 -66t-138.5 -22t-136.5 21.5t-119.5 66.5l-207 -207l-72 74l207 205q-44 58 -66 122t-22 134q0 69 22 133.5t66 122.5l-207 205l72 73z" />
    <glyph glyph-name="yen" unicode="&#xa5;" horiz-adv-x="1407" 
d="M772 244q0 -61 26.5 -89t84.5 -28q21 0 59 6t53 6q34 0 55 -20.5t21 -52.5q0 -40 -21 -59t-65 -19q-5 0 -102.5 10t-190.5 10q-87 0 -181.5 -10t-102.5 -10q-44 0 -65 19t-21 59q0 32 21.5 52.5t55.5 20.5q16 0 52.5 -6t58.5 -6q57 0 84 28t27 89v272h-519q-31 0 -44 9.5
t-13 31.5t11 30.5t46 8.5h467l-135 203h-332q-31 0 -44 9.5t-13 31.5t11 30.5t46 8.5h279l-158 245q-40 63 -71 82t-76 19q-2 0 -13 -2q-40 -6 -75 -6q-27 0 -48.5 22.5t-21.5 52.5t27.5 52t64.5 22q11 0 54 -4q155 -16 290 -16q58 0 122 10t71 10q40 0 63 -21t23 -57
q0 -32 -21.5 -51.5t-56.5 -19.5q-12 0 -43 4t-51 4q-35 0 -54.5 -9t-19.5 -24q0 -14 4.5 -27.5t18.5 -36.5l286 -475l289 475q12 22 16.5 36.5t4.5 27.5q0 16 -19 24.5t-53 8.5q-20 0 -52 -4t-44 -4q-35 0 -55.5 19t-20.5 52q0 37 22 57.5t62 20.5q7 0 72 -10t122 -10
q136 0 289 15q45 5 55 5q38 0 64.5 -22t26.5 -52t-20.5 -52.5t-47.5 -22.5q-35 0 -76 6q-10 2 -12 2q-45 0 -75.5 -18.5t-72.5 -82.5l-157 -245h276q33 0 46.5 -9t13.5 -30q0 -23 -12.5 -32t-47.5 -9h-334l-131 -203h465q33 0 46.5 -9t13.5 -30q0 -22 -12.5 -31.5
t-47.5 -9.5h-518v-272z" />
    <glyph glyph-name="brokenbar" unicode="&#xa6;" 
d="M575 408v-758h-126v758h126zM575 1432v-758h-126v758h126z" />
    <glyph glyph-name="section" unicode="&#xa7;" 
d="M745 195q50 -41 75.5 -94t25.5 -117q0 -127 -100 -214t-246 -87q-78 0 -140.5 21.5t-111.5 66.5v-17q0 -37 -17.5 -58.5t-46.5 -21.5q-31 0 -53 16.5t-22 39.5q0 3 1 17q9 87 9 175q0 75 -9 150q-1 14 -1 18q0 37 18 55.5t53 18.5q44 0 63 -25t19 -82q0 -4 -1 -11.5
t-1 -10.5q0 -101 59.5 -161t159.5 -60q85 0 143 44.5t58 108.5q0 99 -179 209q-26 16 -41 25l-175 110q-109 69 -155 137.5t-46 157.5q0 97 45.5 169.5t138.5 123.5q-45 41 -67.5 87.5t-22.5 100.5q0 136 94 222t244 86q53 0 104.5 -20.5t98.5 -59.5v10q0 36 17.5 58
t45.5 22q31 0 52.5 -17.5t21.5 -39.5q0 -4 -1 -18q-9 -85 -9 -173q0 -76 8 -151q2 -16 2 -19q0 -37 -18 -54.5t-56 -17.5q-41 0 -59 25t-18 82v22q0 99 -53 155t-146 56q-71 0 -115.5 -40.5t-44.5 -106.5q0 -54 40 -97.5t177 -121.5l172 -98q99 -57 152 -137t53 -173
q0 -95 -51.5 -171t-143.5 -115zM659 270q56 30 88.5 77.5t32.5 98.5q0 61 -40.5 112.5t-143.5 115.5l-234 147q-63 -32 -94.5 -75t-31.5 -97q0 -55 33.5 -100t152.5 -123z" />
    <glyph glyph-name="dieresis" unicode="&#xa8;" 
d="M592 1303q0 45 33.5 78.5t79.5 33.5t79 -33t33 -79q0 -50 -31.5 -81.5t-80.5 -31.5t-81 32t-32 81zM207 1303q0 45 33.5 78.5t78.5 33.5q47 0 80 -33t33 -79q0 -50 -31.5 -81.5t-81.5 -31.5q-49 0 -80.5 31.5t-31.5 81.5z" />
    <glyph glyph-name="copyright" unicode="&#xa9;" horiz-adv-x="1706" 
d="M1065 911q-15 77 -70.5 120.5t-138.5 43.5q-117 0 -182.5 -92.5t-65.5 -259.5q0 -160 66.5 -252t181.5 -92q87 0 145.5 48.5t73.5 133.5h129q-11 -127 -109 -207t-245 -80q-176 0 -280.5 121t-104.5 326q0 208 107.5 332.5t287.5 124.5q137 0 230 -74.5t104 -192.5h-129z
M1501 725q0 130 -49 249t-139 210q-92 92 -210 140t-251 48q-132 0 -247.5 -47.5t-205.5 -138.5q-93 -95 -142.5 -214t-49.5 -247q0 -127 49 -244t141 -211q93 -92 209.5 -141t245.5 -49t248.5 50t214.5 142q91 90 138.5 205.5t47.5 247.5zM852 1460q151 0 285 -55t239 -160
q102 -102 156.5 -236t54.5 -284q0 -151 -54 -283t-157 -233q-109 -106 -244.5 -162.5t-279.5 -56.5q-146 0 -278 55.5t-238 161.5q-106 105 -161.5 238.5t-55.5 279.5q0 145 56.5 279.5t162.5 242.5q102 104 234 158.5t280 54.5z" />
    <glyph glyph-name="ordfeminine" unicode="&#xaa;" horiz-adv-x="850" 
d="M541 938v111q-26 -20 -65.5 -31t-139.5 -23q-111 -14 -148.5 -42.5t-37.5 -86.5q0 -48 40 -79t103 -31q113 0 180.5 49.5t67.5 132.5zM559 772q-45 -54 -112 -81t-156 -27q-123 0 -188.5 53.5t-65.5 154.5q0 93 58 141t194 66q6 1 19 3q224 29 224 118q0 57 -42 88
t-119 31q-64 0 -111 -19.5t-47 -42.5q0 -4 18.5 -23.5t18.5 -39.5q0 -28 -22.5 -47t-55.5 -19q-42 0 -66 25.5t-24 71.5q0 80 83 130t220 50q143 0 205.5 -57t62.5 -187v-323q0 -50 10.5 -66t36.5 -16q29 0 41.5 17t12.5 58v72q0 29 11 43.5t34 14.5q24 0 34.5 -14t10.5 -48
v-104q0 -62 -41.5 -96.5t-114.5 -34.5q-59 0 -92.5 28t-36.5 80z" />
    <glyph glyph-name="guillemotleft" unicode="&#xab;" horiz-adv-x="1028" 
d="M698 477l150 -192l9 -12q32 -39 32 -62q0 -21 -14 -30t-46 -9q-35 0 -49.5 7t-27.5 23l-232 281q-6 8 -9 15.5t-3 13.5q0 7 3.5 15.5t8.5 15.5l232 278q15 19 29.5 26t47.5 7q31 0 45.5 -10t14.5 -31q0 -23 -32 -62l-9 -12l-150 -190q-8 -10 -13 -20t-5 -17q0 -5 4 -12.5
t14 -22.5zM289 477l151 -192q4 -5 10 -12q31 -39 31 -62q0 -21 -13.5 -30t-45.5 -9q-36 0 -50 6.5t-28 24.5l-231 280q-6 8 -9.5 15.5t-3.5 13.5t3.5 15t8.5 15l232 279q15 19 30 26t48 7q31 0 45 -10t14 -31q0 -23 -31 -62q-6 -7 -10 -12l-152 -191q-7 -8 -11.5 -18.5
t-4.5 -17.5q0 -6 4.5 -15t12.5 -20z" />
    <glyph glyph-name="logicalnot" unicode="&#xac;" horiz-adv-x="1706" 
d="M1452 858v-502h-115v385h-1083v117h1198z" />
    <glyph glyph-name="sfthyphen" unicode="&#xad;" horiz-adv-x="674" 
d="M532 586q34 0 49 -17.5t15 -56.5q0 -38 -15.5 -56t-48.5 -18h-364q-33 0 -48.5 17.5t-15.5 56.5t15.5 56.5t48.5 17.5h364z" />
    <glyph glyph-name="registered" unicode="&#xae;" horiz-adv-x="1706" 
d="M846 1065h-144v-291h148q123 0 175 33t52 108q0 79 -54.5 114.5t-176.5 35.5zM872 1157q178 0 264.5 -57t86.5 -174q0 -89 -53 -148.5t-144 -75.5l188 -385h-157l-176 365h-179v-365h-141v840h311zM1501 721q0 133 -48 251.5t-138 209.5q-94 93 -211.5 141.5t-251.5 48.5
q-132 0 -247 -47t-204 -137q-94 -95 -144 -214t-50 -249q0 -127 49 -244t141 -211q91 -92 208 -141t245 -49q131 0 249.5 48.5t213.5 141.5q91 90 139.5 206t48.5 245zM852 1460q150 0 284 -55.5t240 -161.5q102 -102 156.5 -235.5t54.5 -282.5q0 -151 -54.5 -283
t-158.5 -233q-109 -106 -243.5 -162.5t-278.5 -56.5q-145 0 -278.5 56t-239.5 163q-105 104 -160 237t-55 279q0 147 57 282t164 242q101 103 232 157t280 54z" />
    <glyph glyph-name="macron" unicode="&#xaf;" 
d="M309 1233q-38 0 -51.5 15t-13.5 55t13.5 54.5t51.5 14.5h406q39 0 52 -14.5t13 -54.5q0 -41 -13 -55.5t-52 -14.5h-406z" />
    <glyph glyph-name="degree" unicode="&#xb0;" horiz-adv-x="674" 
d="M539 1171q0 84 -58.5 142.5t-142.5 58.5t-143.5 -58.5t-59.5 -142.5t59.5 -143t143.5 -59t142.5 59t58.5 143zM338 1454q117 0 200 -83t83 -200q0 -116 -83.5 -199t-201.5 -83t-199.5 82t-81.5 200q0 119 82.5 201t200.5 82z" />
    <glyph glyph-name="plusminus" unicode="&#xb1;" horiz-adv-x="1706" 
d="M1452 158v-117h-1198v117h1198zM913 1180v-344h539v-117h-539v-344h-118v344h-541v117h541v344h118z" />
    <glyph glyph-name="twosuperior" unicode="&#xb2;" horiz-adv-x="852" 
d="M172 703q29 27 66 41t79 14q31 0 64 -11t65 -32q10 -7 29 -20q98 -68 143 -68q40 0 62 20.5t22 57.5q0 13 -2 15.5t-6 2.5q-2 0 -18.5 -6t-30.5 -6q-25 0 -40 14t-15 37q0 27 24 46t60 19q48 0 77 -35t29 -94q0 -75 -49.5 -124.5t-124.5 -49.5q-63 0 -144 52
q-18 11 -26 16q-67 40 -104 53.5t-70 13.5q-34 0 -59 -11t-25 -23q0 -2 8 -4q43 -12 43 -50q0 -20 -18.5 -33.5t-46.5 -13.5q-43 0 -70.5 36t-27.5 93q0 81 57.5 152.5t157.5 114.5q53 22 151 52.5t135 49.5q32 15 50 44t18 67q0 69 -60.5 112t-158.5 43q-88 0 -148.5 -32
t-60.5 -74q0 -10 3 -13.5t11 -3.5q1 0 6 1t9 1q16 0 28 -15.5t12 -37.5q0 -32 -25 -53t-65 -21q-41 0 -66.5 27t-25.5 72q0 99 89.5 163t232.5 64q152 0 240.5 -64t88.5 -174q0 -43 -13.5 -79t-41.5 -64q-46 -44 -194 -88l-15 -4q-199 -61 -253 -99t-56 -91z" />
    <glyph glyph-name="threesuperior" unicode="&#xb3;" horiz-adv-x="852" 
d="M586 1257h-326q-27 0 -41 -14.5t-14 -44.5q0 -14 2 -37.5t2 -34.5q0 -24 -11.5 -35.5t-35.5 -11.5q-25 0 -36 12.5t-11 38.5q0 9 3 41.5t3 55.5v61q0 39 12 50.5t51 11.5h484q50 0 68 -10t18 -33q0 -14 -7.5 -25.5t-25.5 -26.5l-234 -211h19q126 0 196 -60t70 -169
q0 -137 -98.5 -214t-274.5 -77q-149 0 -242.5 66t-93.5 170q0 58 37 95.5t93 37.5q34 0 55.5 -19.5t21.5 -50.5q0 -21 -15 -37.5t-38 -19.5q-5 -1 -14 -2q-27 -3 -27 -19q0 -53 65 -96t158 -43q122 0 191 55t69 150q0 77 -46.5 117.5t-135.5 40.5q-41 0 -85 -7.5t-48 -7.5
q-16 0 -26.5 8t-10.5 21q0 7 5.5 16t17.5 21z" />
    <glyph glyph-name="acute" unicode="&#xb4;" 
d="M406 1245l159 168q48 52 76.5 70t56.5 18q31 0 52.5 -22.5t21.5 -55.5q0 -48 -108 -115l-2 -1l-193 -121l-11 -7q-71 -44 -93 -44q-14 0 -24.5 7.5t-10.5 16.5t33 43z" />
    <glyph glyph-name="mu" unicode="&#xb5;" horiz-adv-x="1128" 
d="M362 1069l-126 -595q-8 -33 -11.5 -67t-3.5 -71q0 -109 57 -168t160 -59q125 0 208 101t128 308l121 551h156l-162 -754q-12 -52 -17.5 -84t-5.5 -51q0 -32 18.5 -48.5t53.5 -16.5q9 0 17.5 0.5t17.5 1.5l-27 -125q-21 -5 -44 -7.5t-48 -2.5q-70 0 -104.5 35t-40.5 112
q-41 -70 -117 -108.5t-172 -38.5q-87 0 -152.5 34t-109.5 103l-113 -545h-156l316 1495h157z" />
    <glyph glyph-name="paragraph" unicode="&#xb6;" 
d="M948 1401h-125v-1401h-94v1401h-182v-1401h-96v782q-173 8 -274 102.5t-101 245.5q0 157 107.5 253t285.5 96h479v-78z" />
    <glyph glyph-name="glyph121" unicode="&#xb7;" horiz-adv-x="645" 
d="M199 686q0 52 35 87.5t88 35.5q52 0 88 -36.5t36 -88.5q0 -50 -36.5 -86.5t-87.5 -36.5q-52 0 -87.5 36.5t-35.5 88.5z" />
    <glyph glyph-name="cedilla" unicode="&#xb8;" 
d="M480 0h65v-92q0 -7 4.5 -13t9.5 -6q10 0 24.5 1t18.5 1q89 0 140 -44.5t51 -122.5q0 -83 -60.5 -130t-167.5 -47q-128 0 -220.5 34t-92.5 77q0 25 16.5 41t42.5 16q15 0 90.5 -41t145.5 -41q47 0 76.5 25t29.5 63q0 40 -26.5 64.5t-71.5 24.5q-19 0 -42.5 -4.5
t-27.5 -4.5q-10 1 -18 8.5t-8 16.5q0 3 3 16q16 76 18 158z" />
    <glyph glyph-name="onesuperior" unicode="&#xb9;" horiz-adv-x="852" 
d="M377 702v494q0 48 -15 64t-57 16q-11 0 -33 -2t-32 -2q-28 0 -41 9.5t-13 29.5t15.5 31.5t42.5 11.5q14 0 43.5 -3t44.5 -3q28 0 67 3t50 3q32 0 40.5 -8.5t8.5 -34.5q0 -3 -1 -12q-3 -44 -3 -85v-512q0 -46 16.5 -63.5t58.5 -17.5q15 0 41.5 2t38.5 2q27 0 40 -10.5
t13 -30.5q0 -25 -15 -36t-48 -11q-7 0 -33 1q-95 7 -176 7q-84 0 -175 -7q-23 -1 -30 -1q-27 0 -42 10t-15 28q0 24 18 37t50 13q12 0 34.5 -2t32.5 -2q42 0 58 16.5t16 64.5z" />
    <glyph glyph-name="ordmasculine" unicode="&#xba;" horiz-adv-x="879" 
d="M178 1034q0 -132 68.5 -204t193.5 -72q120 0 189 73.5t69 202.5q0 131 -68.5 205t-189.5 74q-122 0 -192 -74t-70 -205zM57 1034q0 171 102.5 271t278.5 100q178 0 280.5 -99.5t102.5 -271.5t-102.5 -271t-282.5 -99q-173 0 -276 100.5t-103 269.5z" />
    <glyph glyph-name="guillemotright" unicode="&#xbb;" horiz-adv-x="1028" 
d="M745 549l-149 190q-4 5 -13 16q-30 37 -30 58t14 31t45 10q34 0 48.5 -7t29.5 -26l232 -279q5 -6 8.5 -15t3.5 -15t-3 -13.5t-9 -15.5l-232 -280q-13 -17 -27.5 -24t-50.5 -7q-32 0 -45.5 9t-13.5 30t30 58q9 11 13 16l150 193q7 8 11.5 18.5t4.5 17.5q0 6 -4 15t-13 20z
M340 549l-150 191q-3 4 -9 11q-31 39 -31 62q0 21 14 31t45 10q33 0 48 -7t30 -26l231 -278q6 -8 9 -16t3 -15q0 -6 -3 -13.5t-9 -15.5l-231 -280q-15 -18 -29 -24.5t-49 -6.5q-32 0 -45.5 9t-13.5 30q0 23 31 62q6 7 9 11l150 193q8 10 13 20t5 17q0 5 -3.5 12.5
t-14.5 22.5z" />
    <glyph glyph-name="onequarter" unicode="&#xbc;" horiz-adv-x="1968" 
d="M1630 135v92h-352q-44 0 -65 11.5t-21 33.5q0 24 23 49q4 5 5 6l332 371q38 43 61.5 55.5t51.5 12.5q39 0 56.5 -19t17.5 -63v-375h123q35 0 50 -9t15 -30q0 -22 -15.5 -32.5t-49.5 -10.5h-123v-94q0 -35 16 -49t53 -14q9 0 30 2t34 2q21 0 34 -10t13 -25q0 -17 -14 -30
t-31 -13l-67 4t-134 4q-68 0 -144 -6q-22 -2 -28 -2q-24 0 -38.5 9.5t-14.5 25.5t12.5 29.5t28.5 13.5q15 0 35.5 -2t25.5 -2q46 0 63 14t17 51zM1630 309v357l-319 -357h319zM1321 1309l3 4q40 63 81 63q26 0 38.5 -9t12.5 -28q0 -10 -7.5 -26.5t-33.5 -57.5l-768 -1216
l-3 -5q-39 -63 -81 -63q-26 0 -38.5 8.5t-12.5 26.5q0 11 7.5 27t33.5 57zM360 743v463q0 44 -15 59t-54 15q-10 0 -30.5 -2t-31.5 -2q-26 0 -38.5 9t-12.5 28t15 30t40 11q14 0 42 -3t42 -3q28 0 65 3t46 3q29 0 38 -8.5t9 -32.5v-12q-2 -41 -2 -78v-478q0 -45 15 -61
t55 -16q15 0 40.5 3t34.5 3q27 0 40.5 -10t13.5 -29q0 -23 -15.5 -34t-46.5 -11l-66.5 4t-133.5 4q-78 0 -164 -6q-24 -2 -31 -2q-27 0 -41 9.5t-14 27.5q0 22 17 34.5t48 12.5q12 0 33.5 -3t30.5 -3q39 0 55 16t16 59z" />
    <glyph glyph-name="onehalf" unicode="&#xbd;" horiz-adv-x="1968" 
d="M1321 150q25 26 59.5 39.5t77.5 13.5q31 0 62.5 -10.5t62.5 -30.5l33 -22q86 -60 129 -60q37 0 59.5 20t22.5 54q0 8 -2 12t-6 4t-19.5 -6t-27.5 -6q-25 0 -39.5 13.5t-14.5 35.5q0 26 23 43.5t57 17.5q46 0 74.5 -33t28.5 -88q0 -70 -47.5 -115.5t-118.5 -45.5
q-63 0 -143 48q-14 9 -21 13q-61 37 -97.5 50.5t-68.5 13.5t-56 -11t-24 -22q0 -1 7 -3q40 -10 40 -46q0 -20 -16.5 -31.5t-44.5 -11.5q-42 0 -68 33t-26 87q0 76 55.5 142.5t150.5 103.5q54 23 147.5 52t127.5 45q29 13 46 41.5t17 62.5q0 65 -57 105t-152 40
q-85 0 -142.5 -29.5t-57.5 -70.5q0 -8 3.5 -12t10.5 -4q2 0 7 2t7 2q16 0 27.5 -15t11.5 -36q0 -30 -24 -49t-62 -19q-40 0 -65 25.5t-25 66.5q0 92 86 151.5t221 59.5q146 0 231 -59.5t85 -161.5q0 -42 -13.5 -76t-40.5 -59q-43 -42 -191 -84l-7 -2q-191 -57 -241 -92.5
t-52 -85.5zM1321 1309l3 4q40 63 81 63q26 0 38.5 -9t12.5 -28q0 -10 -7.5 -26.5t-33.5 -57.5l-768 -1216l-3 -5q-39 -63 -81 -63q-26 0 -38.5 8.5t-12.5 26.5q0 11 7.5 27t33.5 57zM360 743v463q0 44 -15 59t-54 15q-10 0 -30.5 -2t-31.5 -2q-26 0 -38.5 9t-12.5 28t15 30
t40 11q14 0 42 -3t42 -3q28 0 65 3t46 3q29 0 38 -8.5t9 -32.5v-12q-2 -41 -2 -78v-478q0 -45 15 -61t55 -16q15 0 40.5 3t34.5 3q27 0 40.5 -10t13.5 -29q0 -23 -15.5 -34t-46.5 -11l-66.5 4t-133.5 4q-78 0 -164 -6q-24 -2 -31 -2q-27 0 -41 9.5t-14 27.5q0 22 17 34.5
t48 12.5q12 0 33.5 -3t30.5 -3q39 0 55 16t16 59z" />
    <glyph glyph-name="threequarters" unicode="&#xbe;" horiz-adv-x="1968" 
d="M1630 135v92h-352q-44 0 -65 11.5t-21 33.5q0 24 23 49q4 5 5 6l332 371q38 43 61.5 55.5t51.5 12.5q39 0 56.5 -19t17.5 -63v-375h123q35 0 50 -9t15 -30q0 -22 -15.5 -32.5t-49.5 -10.5h-123v-94q0 -35 16 -49t53 -14q9 0 30 2t34 2q21 0 34 -10t13 -25q0 -17 -14 -30
t-31 -13l-67 4t-134 4q-68 0 -144 -6q-22 -2 -28 -2q-24 0 -38.5 9.5t-14.5 25.5t12.5 29.5t28.5 13.5q15 0 35.5 -2t25.5 -2q46 0 63 14t17 51zM1630 309v357l-319 -357h319zM1321 1309l3 4q40 63 81 63q26 0 38.5 -9t12.5 -28q0 -10 -7.5 -26.5t-33.5 -57.5l-768 -1216
l-3 -5q-39 -63 -81 -63q-26 0 -38.5 8.5t-12.5 26.5q0 11 7.5 27t33.5 57zM559 1264h-309q-28 0 -41.5 -14t-13.5 -42q0 -12 3 -35t3 -32q0 -24 -11.5 -34.5t-35.5 -10.5q-23 0 -33 11.5t-10 37.5q0 8 3 38t3 52q0 8 -1 27.5t-1 29.5q0 36 11.5 46t49.5 10h461q50 0 66 -8.5
t16 -30.5q0 -12 -6 -22.5t-25 -26.5l-223 -195h18q120 0 187 -57t67 -158q0 -128 -94.5 -200t-261.5 -72q-142 0 -231 61.5t-89 159.5q0 54 34 88.5t87 34.5q35 0 55.5 -17.5t20.5 -46.5q0 -19 -14.5 -34.5t-36.5 -20.5q-3 0 -9 -1q-28 -2 -28 -18q0 -48 62 -88.5t149 -40.5
q115 0 181.5 51.5t66.5 139.5q0 72 -44.5 109.5t-129.5 37.5q-39 0 -80.5 -6t-44.5 -6q-17 0 -26 7t-9 20q0 7 5 15t15 17z" />
    <glyph glyph-name="questiondown" unicode="&#xbf;" horiz-adv-x="1124" 
d="M858 403q-9 -32 -30.5 -48.5t-53.5 -16.5q-36 0 -60 23t-24 59q0 62 47 104.5t115 42.5q85 0 137.5 -61.5t52.5 -161.5q0 -163 -136.5 -268t-354.5 -105q-220 0 -348.5 100t-128.5 269q0 79 25 141t73 103q74 64 182.5 114.5t120.5 59.5q47 34 65 66.5t23 90.5q0 3 1 8
q6 105 75 105q36 0 56 -23.5t20 -66.5q0 -105 -32.5 -167.5t-121.5 -121.5q-41 -27 -121 -71t-108 -66q-52 -43 -72 -82t-20 -92q0 -112 86.5 -177t236.5 -65q144 0 240 69t96 169q0 27 -10 44.5t-31 24.5zM494 1270q0 52 35.5 88.5t86.5 36.5q53 0 89 -36.5t36 -88.5
q0 -51 -37 -87t-88 -36q-52 0 -87 35.5t-35 87.5z" />
    <glyph glyph-name="Agrave" unicode="&#xc0;" horiz-adv-x="1464" 
d="M741 1184l-178 -506q-7 -21 -8.5 -28.5t-1.5 -12.5q0 -12 9 -16.5t40 -4.5h262q29 1 38 5.5t9 17.5q0 7 -2 17t-6 22zM526 487q-21 0 -35.5 -15t-25.5 -48l-55 -163q-7 -20 -11 -42t-4 -43q0 -20 19.5 -34.5t48.5 -14.5q22 0 57 4t49 4q43 0 65.5 -18.5t22.5 -53.5
q0 -37 -20.5 -56t-61.5 -19q-13 0 -86 6t-133 6q-113 0 -225 -6t-113 -6q-38 0 -64 21t-26 52q0 30 21 52t47 22q13 0 35 -4t30 -4q71 0 104 27.5t60 101.5l371 997q29 75 59 101t78 26q57 0 87.5 -25t62.5 -110l356 -989q26 -73 59 -101t91 -28q7 0 21 4t20 4q62 0 84 -17
t22 -57q0 -31 -26 -52t-64 -21q-12 0 -54 2q-155 10 -290 10q-56 0 -125 -6t-82 -6q-39 0 -58.5 19t-19.5 56q0 35 22 53.5t62 18.5q13 0 47.5 -4t55.5 -4q26 0 42.5 18t16.5 48q0 16 -3 33.5t-9 33.5l-53 163q-9 28 -29.5 46t-42.5 18h-400zM911 1618q8 -7 21 -21
q57 -56 57 -65t-10.5 -16.5t-24.5 -7.5q-26 0 -103 47q-2 1 -3 2l-190 116q-6 4 -16 10q-97 58 -97 103q0 33 21.5 56.5t51.5 23.5q46 0 125 -80l6 -6z" />
    <glyph glyph-name="Aacute" unicode="&#xc1;" horiz-adv-x="1464" 
d="M741 1184l-178 -506q-7 -21 -8.5 -28.5t-1.5 -12.5q0 -12 9 -16.5t40 -4.5h262q29 1 38 5.5t9 17.5q0 7 -2 17t-6 22zM526 487q-21 0 -35.5 -15t-25.5 -48l-55 -163q-7 -20 -11 -42t-4 -43q0 -20 19.5 -34.5t48.5 -14.5q22 0 57 4t49 4q43 0 65.5 -18.5t22.5 -53.5
q0 -37 -20.5 -56t-61.5 -19q-13 0 -86 6t-133 6q-113 0 -225 -6t-113 -6q-38 0 -64 21t-26 52q0 30 21 52t47 22q13 0 35 -4t30 -4q71 0 104 27.5t60 101.5l371 997q29 75 59 101t78 26q57 0 87.5 -25t62.5 -110l356 -989q26 -73 59 -101t91 -28q7 0 21 4t20 4q62 0 84 -17
t22 -57q0 -31 -26 -52t-64 -21q-12 0 -54 2q-155 10 -290 10q-56 0 -125 -6t-82 -6q-39 0 -58.5 19t-19.5 56q0 35 22 53.5t62 18.5q13 0 47.5 -4t55.5 -4q26 0 42.5 18t16.5 48q0 16 -3 33.5t-9 33.5l-53 163q-9 28 -29.5 46t-42.5 18h-400zM627 1612l159 168
q48 52 76.5 70t56.5 18q31 0 52.5 -22.5t21.5 -55.5q0 -48 -108 -115l-2 -1l-193 -121l-11 -7q-71 -44 -93 -44q-14 0 -24.5 7.5t-10.5 16.5t33 43z" />
    <glyph glyph-name="Acircumflex" unicode="&#xc2;" horiz-adv-x="1464" 
d="M741 1184l-178 -506q-7 -21 -8.5 -28.5t-1.5 -12.5q0 -12 9 -16.5t40 -4.5h262q29 1 38 5.5t9 17.5q0 7 -2 17t-6 22zM526 487q-21 0 -35.5 -15t-25.5 -48l-55 -163q-7 -20 -11 -42t-4 -43q0 -20 19.5 -34.5t48.5 -14.5q22 0 57 4t49 4q43 0 65.5 -18.5t22.5 -53.5
q0 -37 -20.5 -56t-61.5 -19q-13 0 -86 6t-133 6q-113 0 -225 -6t-113 -6q-38 0 -64 21t-26 52q0 30 21 52t47 22q13 0 35 -4t30 -4q71 0 104 27.5t60 101.5l371 997q29 75 59 101t78 26q57 0 87.5 -25t62.5 -110l356 -989q26 -73 59 -101t91 -28q7 0 21 4t20 4q62 0 84 -17
t22 -57q0 -31 -26 -52t-64 -21q-12 0 -54 2q-155 10 -290 10q-56 0 -125 -6t-82 -6q-39 0 -58.5 19t-19.5 56q0 35 22 53.5t62 18.5q13 0 47.5 -4t55.5 -4q26 0 42.5 18t16.5 48q0 16 -3 33.5t-9 33.5l-53 163q-9 28 -29.5 46t-42.5 18h-400zM575 1559q-4 -5 -11 -12
q-44 -50 -85 -50q-13 1 -18.5 5t-6.5 14q0 23 38 76l10 15l123 178q6 9 14 22q29 47 94 47t94 -47q8 -13 14 -22l121 -179q6 -7 15 -20q35 -48 35 -70q-1 -10 -6.5 -14t-18.5 -5q-41 0 -85 50q-7 7 -11 12l-111 113q-15 14 -27 22t-20 8t-20 -8t-27 -22z" />
    <glyph glyph-name="Atilde" unicode="&#xc3;" horiz-adv-x="1464" 
d="M741 1184l-178 -506q-7 -21 -8.5 -28.5t-1.5 -12.5q0 -12 9 -16.5t40 -4.5h262q29 1 38 5.5t9 17.5q0 7 -2 17t-6 22zM526 487q-21 0 -35.5 -15t-25.5 -48l-55 -163q-7 -20 -11 -42t-4 -43q0 -20 19.5 -34.5t48.5 -14.5q22 0 57 4t49 4q43 0 65.5 -18.5t22.5 -53.5
q0 -37 -20.5 -56t-61.5 -19q-13 0 -86 6t-133 6q-113 0 -225 -6t-113 -6q-38 0 -64 21t-26 52q0 30 21 52t47 22q13 0 35 -4t30 -4q71 0 104 27.5t60 101.5l371 997q29 75 59 101t78 26q57 0 87.5 -25t62.5 -110l356 -989q26 -73 59 -101t91 -28q7 0 21 4t20 4q62 0 84 -17
t22 -57q0 -31 -26 -52t-64 -21q-12 0 -54 2q-155 10 -290 10q-56 0 -125 -6t-82 -6q-39 0 -58.5 19t-19.5 56q0 35 22 53.5t62 18.5q13 0 47.5 -4t55.5 -4q26 0 42.5 18t16.5 48q0 16 -3 33.5t-9 33.5l-53 163q-9 28 -29.5 46t-42.5 18h-400zM663 1629q-17 4 -30.5 6
t-22.5 2q-35 0 -53 -10t-33 -37q-3 -6 -7 -15q-11 -26 -32 -26q-15 0 -25 8t-10 20q0 19 15.5 51t46.5 78q24 37 56.5 54.5t76.5 17.5q18 0 34 -2t31 -6l107 -27q11 -3 22.5 -4.5t22.5 -1.5q25 0 43 8t29 23q6 8 13 26q12 31 34 31q14 0 22.5 -9t8.5 -24q0 -17 -18 -57.5
t-44 -75.5q-22 -31 -54.5 -47t-72.5 -16q-14 0 -26.5 1.5t-26.5 4.5z" />
    <glyph glyph-name="Adieresis" unicode="&#xc4;" horiz-adv-x="1464" 
d="M741 1184l-178 -506q-7 -21 -8.5 -28.5t-1.5 -12.5q0 -12 9 -16.5t40 -4.5h262q29 1 38 5.5t9 17.5q0 7 -2 17t-6 22zM526 487q-21 0 -35.5 -15t-25.5 -48l-55 -163q-7 -20 -11 -42t-4 -43q0 -20 19.5 -34.5t48.5 -14.5q22 0 57 4t49 4q43 0 65.5 -18.5t22.5 -53.5
q0 -37 -20.5 -56t-61.5 -19q-13 0 -86 6t-133 6q-113 0 -225 -6t-113 -6q-38 0 -64 21t-26 52q0 30 21 52t47 22q13 0 35 -4t30 -4q71 0 104 27.5t60 101.5l371 997q29 75 59 101t78 26q57 0 87.5 -25t62.5 -110l356 -989q26 -73 59 -101t91 -28q7 0 21 4t20 4q62 0 84 -17
t22 -57q0 -31 -26 -52t-64 -21q-12 0 -54 2q-155 10 -290 10q-56 0 -125 -6t-82 -6q-39 0 -58.5 19t-19.5 56q0 35 22 53.5t62 18.5q13 0 47.5 -4t55.5 -4q26 0 42.5 18t16.5 48q0 16 -3 33.5t-9 33.5l-53 163q-9 28 -29.5 46t-42.5 18h-400zM813 1670q0 45 33.5 78.5
t79.5 33.5t79 -33t33 -79q0 -50 -31.5 -81.5t-80.5 -31.5t-81 32t-32 81zM428 1670q0 45 33.5 78.5t78.5 33.5q47 0 80 -33t33 -79q0 -50 -31.5 -81.5t-81.5 -31.5q-49 0 -80.5 31.5t-31.5 81.5z" />
    <glyph glyph-name="Aring" unicode="&#xc5;" horiz-adv-x="1464" 
d="M596 1688q0 -60 41.5 -102t101.5 -42t101 41.5t41 102.5q0 59 -41 100t-101 41t-101.5 -41t-41.5 -100zM492 1688q0 104 71.5 175.5t175.5 71.5q105 0 176.5 -71.5t71.5 -175.5q0 -105 -71.5 -176.5t-176.5 -71.5q-104 0 -175.5 71.5t-71.5 176.5zM741 1184l-178 -504
q-7 -21 -8.5 -28.5t-1.5 -12.5q0 -13 10 -18t39 -5h262q29 0 38 5.5t9 19.5q0 7 -2 17t-6 22zM526 487q-21 0 -35.5 -15t-25.5 -48l-55 -163q-7 -20 -11 -42t-4 -43t20 -36t48 -15q22 0 57 5t49 5q43 0 65.5 -18.5t22.5 -53.5q0 -37 -20.5 -56t-61.5 -19q-13 0 -86 10
t-133 10q-113 0 -225 -10t-113 -10q-38 0 -64 21t-26 52q0 30 21 52t47 22q13 0 35 -5t30 -5q69 0 103 28t61 103l371 997q29 75 59 101t78 26q57 0 87.5 -25t62.5 -110l356 -989q26 -74 59.5 -102.5t90.5 -28.5q7 0 21 5t20 5q62 0 84 -17t22 -57q0 -31 -26 -52t-64 -21
q-12 0 -54 4q-155 16 -290 16q-56 0 -125 -10t-82 -10q-39 0 -58.5 19t-19.5 56q0 35 22 53.5t62 18.5q13 0 47.5 -5t55.5 -5q26 0 42.5 18.5t16.5 49.5q0 16 -3 33.5t-9 33.5l-53 163q-9 28 -29.5 46t-42.5 18h-400z" />
    <glyph glyph-name="AE" unicode="&#xc6;" horiz-adv-x="2052" 
d="M651 616q-34 0 -60.5 -14t-43.5 -41l-224 -359q-5 -8 -8.5 -17t-3.5 -15q0 -18 15 -27.5t45 -9.5q11 0 38.5 4t45.5 4q49 0 78.5 -21.5t29.5 -56.5q0 -33 -27 -52t-73 -19q-18 0 -106.5 8t-159.5 8q-53 0 -126 -8t-94 -8q-50 0 -71 16.5t-21 57.5q0 35 21.5 55t58.5 20
q10 0 34 -4t38 -4q36 0 64.5 23t78.5 102l594 928q2 3 3 6t1 10q0 22 -21.5 31.5t-70.5 9.5q-12 0 -43 -4t-51 -4q-34 0 -55 20t-21 52q0 37 22 56t64 19q8 0 40 -3q120 -13 226 -13h754q107 0 202 5q13 1 15 1q45 0 70.5 -26t25.5 -72q0 -25 -6 -81t-6 -87q0 -61 6 -136
t6 -89q0 -40 -18 -63t-49 -23q-34 0 -58 26t-24 64q0 18 6 74.5t6 93.5q0 103 -38.5 139.5t-162.5 36.5h-305q-68 0 -90 -23t-22 -114v-312q0 -30 14.5 -40.5t60.5 -10.5h45q134 0 162.5 24t28.5 103q0 20 -3 59.5t-3 57.5q0 36 18 58t49 22q33 0 48.5 -33t15.5 -100
q0 -32 -6 -113t-6 -125q0 -66 6 -141.5t6 -91.5q0 -48 -17 -74.5t-47 -26.5q-27 0 -47 18.5t-20 43.5q0 17 3 41t3 30q0 85 -27.5 110t-152.5 25h-68q-37 0 -50 -11t-13 -42v-289q0 -93 23.5 -117t88.5 -24h332q119 0 160 37.5t41 142.5q0 37 -6.5 93t-6.5 75q0 38 23.5 64
t56.5 26q32 0 51 -23.5t19 -62.5q0 -14 -6 -89t-6 -136q0 -31 6 -87t6 -81q0 -46 -27 -73t-71 -27q-3 0 -15 1q-93 7 -200 7h-578q-109 0 -227 -7q-26 -1 -33 -1q-45 0 -65.5 18.5t-20.5 59.5q0 31 21 51t53 20q10 0 47.5 -4t64.5 -4q49 0 73 28t24 87v338q0 12 -8 21t-17 9
h-332zM1008 768v397q0 22 -6.5 32.5t-20.5 10.5q-8 0 -20 -11t-25 -32l-229 -362q-6 -10 -22.5 -30t-49.5 -56q36 6 71 9t66 3h203q14 0 23.5 11t9.5 28z" />
    <glyph glyph-name="Ccedilla" unicode="&#xc7;" horiz-adv-x="1319" 
d="M1067 1239v43q0 58 14 79t49 21t51.5 -16.5t16.5 -50.5q0 -7 -2 -33q-12 -137 -12 -268q0 -29 7 -79t7 -73q0 -50 -16 -70t-56 -20q-39 0 -56 25.5t-17 85.5v49q0 143 -94.5 235.5t-241.5 92.5q-201 0 -319.5 -153.5t-118.5 -414.5q0 -273 114.5 -425t319.5 -152
q131 0 219 56t131 169q14 36 22.5 96t12.5 77q5 20 23.5 33t43.5 13q38 0 59 -26.5t21 -75.5q0 -223 -144.5 -354.5t-389.5 -131.5q-291 0 -458 190.5t-167 520.5q0 326 165 519.5t441 193.5q118 0 215.5 -40.5t159.5 -115.5zM662 0h65v-92q0 -7 4.5 -13t9.5 -6q10 0 24.5 1
t18.5 1q89 0 140 -44.5t51 -122.5q0 -83 -60.5 -130t-167.5 -47q-128 0 -220.5 34t-92.5 77q0 25 16.5 41t42.5 16q15 0 90.5 -41t145.5 -41q47 0 76.5 25t29.5 63q0 40 -26.5 64.5t-71.5 24.5q-19 0 -42.5 -4.5t-27.5 -4.5q-10 1 -18 8.5t-8 16.5q0 3 3 16q16 76 18 158z
" />
    <glyph glyph-name="Egrave" unicode="&#xc8;" horiz-adv-x="1436" 
d="M340 266v858q0 62 -26.5 90.5t-84.5 28.5q-21 0 -59 -7t-53 -7q-33 0 -54.5 21t-21.5 53q0 37 22 55t66 18q27 0 122.5 -6t162.5 -6h114h426q108 0 203 11q12 1 14 1q44 0 70.5 -27.5t26.5 -74.5q0 -25 -6.5 -81t-6.5 -87q0 -61 6.5 -136t6.5 -89q0 -40 -18.5 -63
t-49.5 -23q-33 0 -56.5 26t-23.5 64q0 18 5 74.5t5 93.5q0 103 -38.5 139.5t-161.5 36.5h-303q-71 0 -93 -26t-22 -111v-230q0 -46 20 -63t72 -17q138 0 177.5 24t39.5 103q0 14 -2 50.5t-2 58.5q0 35 19 57.5t49 22.5q31 0 47 -31t16 -90q0 -22 -6 -102.5t-6 -139.5
q0 -58 6 -139t6 -102q0 -58 -16.5 -89.5t-46.5 -31.5q-29 0 -48.5 20t-19.5 49q0 25 2 55.5t2 34.5q0 104 -35 129t-190 25q-47 0 -65.5 -17t-18.5 -61v-334q0 -91 23 -116t92 -25h329q121 0 161 37.5t40 142.5q0 37 -6 93t-6 75q0 38 23.5 64t56.5 26q31 0 50 -23.5
t19 -62.5q0 -14 -6 -89t-6 -136q0 -31 6 -87t6 -81q0 -46 -27 -74t-71 -28q-3 0 -14 1q-94 9 -201 9h-578q-111 0 -234 -8q-32 -2 -40 -2q-46 0 -67 18.5t-21 59.5q0 32 20.5 52.5t53.5 20.5q15 0 50.5 -4t55.5 -4q68 0 93.5 28t25.5 105zM930 1618q8 -7 21 -21
q57 -56 57 -65t-10.5 -16.5t-24.5 -7.5q-26 0 -103 47q-2 1 -3 2l-190 116q-6 4 -16 10q-97 58 -97 103q0 33 21.5 56.5t51.5 23.5q46 0 125 -80l6 -6z" />
    <glyph glyph-name="Eacute" unicode="&#xc9;" horiz-adv-x="1436" 
d="M340 266v858q0 62 -26.5 90.5t-84.5 28.5q-21 0 -59 -7t-53 -7q-33 0 -54.5 21t-21.5 53q0 37 22 55t66 18q27 0 122.5 -6t162.5 -6h114h426q108 0 203 11q12 1 14 1q44 0 70.5 -27.5t26.5 -74.5q0 -25 -6.5 -81t-6.5 -87q0 -61 6.5 -136t6.5 -89q0 -40 -18.5 -63
t-49.5 -23q-33 0 -56.5 26t-23.5 64q0 18 5 74.5t5 93.5q0 103 -38.5 139.5t-161.5 36.5h-303q-71 0 -93 -26t-22 -111v-230q0 -46 20 -63t72 -17q138 0 177.5 24t39.5 103q0 14 -2 50.5t-2 58.5q0 35 19 57.5t49 22.5q31 0 47 -31t16 -90q0 -22 -6 -102.5t-6 -139.5
q0 -58 6 -139t6 -102q0 -58 -16.5 -89.5t-46.5 -31.5q-29 0 -48.5 20t-19.5 49q0 25 2 55.5t2 34.5q0 104 -35 129t-190 25q-47 0 -65.5 -17t-18.5 -61v-334q0 -91 23 -116t92 -25h329q121 0 161 37.5t40 142.5q0 37 -6 93t-6 75q0 38 23.5 64t56.5 26q31 0 50 -23.5
t19 -62.5q0 -14 -6 -89t-6 -136q0 -31 6 -87t6 -81q0 -46 -27 -74t-71 -28q-3 0 -14 1q-94 9 -201 9h-578q-111 0 -234 -8q-32 -2 -40 -2q-46 0 -67 18.5t-21 59.5q0 32 20.5 52.5t53.5 20.5q15 0 50.5 -4t55.5 -4q68 0 93.5 28t25.5 105zM646 1612l159 168q48 52 76.5 70
t56.5 18q31 0 52.5 -22.5t21.5 -55.5q0 -48 -108 -115l-2 -1l-193 -121l-11 -7q-71 -44 -93 -44q-14 0 -24.5 7.5t-10.5 16.5t33 43z" />
    <glyph glyph-name="Ecircumflex" unicode="&#xca;" horiz-adv-x="1436" 
d="M340 266v858q0 62 -26.5 90.5t-84.5 28.5q-21 0 -59 -7t-53 -7q-33 0 -54.5 21t-21.5 53q0 37 22 55t66 18q27 0 122.5 -6t162.5 -6h114h426q108 0 203 11q12 1 14 1q44 0 70.5 -27.5t26.5 -74.5q0 -25 -6.5 -81t-6.5 -87q0 -61 6.5 -136t6.5 -89q0 -40 -18.5 -63
t-49.5 -23q-33 0 -56.5 26t-23.5 64q0 18 5 74.5t5 93.5q0 103 -38.5 139.5t-161.5 36.5h-303q-71 0 -93 -26t-22 -111v-230q0 -46 20 -63t72 -17q138 0 177.5 24t39.5 103q0 14 -2 50.5t-2 58.5q0 35 19 57.5t49 22.5q31 0 47 -31t16 -90q0 -22 -6 -102.5t-6 -139.5
q0 -58 6 -139t6 -102q0 -58 -16.5 -89.5t-46.5 -31.5q-29 0 -48.5 20t-19.5 49q0 25 2 55.5t2 34.5q0 104 -35 129t-190 25q-47 0 -65.5 -17t-18.5 -61v-334q0 -91 23 -116t92 -25h329q121 0 161 37.5t40 142.5q0 37 -6 93t-6 75q0 38 23.5 64t56.5 26q31 0 50 -23.5
t19 -62.5q0 -14 -6 -89t-6 -136q0 -31 6 -87t6 -81q0 -46 -27 -74t-71 -28q-3 0 -14 1q-94 9 -201 9h-578q-111 0 -234 -8q-32 -2 -40 -2q-46 0 -67 18.5t-21 59.5q0 32 20.5 52.5t53.5 20.5q15 0 50.5 -4t55.5 -4q68 0 93.5 28t25.5 105zM594 1559q-4 -5 -11 -12
q-44 -50 -85 -50q-13 1 -18.5 5t-6.5 14q0 23 38 76l10 15l123 178q6 9 14 22q29 47 94 47t94 -47q8 -13 14 -22l121 -179q6 -7 15 -20q35 -48 35 -70q-1 -10 -6.5 -14t-18.5 -5q-41 0 -85 50q-7 7 -11 12l-111 113q-15 14 -27 22t-20 8t-20 -8t-27 -22z" />
    <glyph glyph-name="Edieresis" unicode="&#xcb;" horiz-adv-x="1436" 
d="M340 266v858q0 62 -26.5 90.5t-84.5 28.5q-21 0 -59 -7t-53 -7q-33 0 -54.5 21t-21.5 53q0 37 22 55t66 18q27 0 122.5 -6t162.5 -6h114h426q108 0 203 11q12 1 14 1q44 0 70.5 -27.5t26.5 -74.5q0 -25 -6.5 -81t-6.5 -87q0 -61 6.5 -136t6.5 -89q0 -40 -18.5 -63
t-49.5 -23q-33 0 -56.5 26t-23.5 64q0 18 5 74.5t5 93.5q0 103 -38.5 139.5t-161.5 36.5h-303q-71 0 -93 -26t-22 -111v-230q0 -46 20 -63t72 -17q138 0 177.5 24t39.5 103q0 14 -2 50.5t-2 58.5q0 35 19 57.5t49 22.5q31 0 47 -31t16 -90q0 -22 -6 -102.5t-6 -139.5
q0 -58 6 -139t6 -102q0 -58 -16.5 -89.5t-46.5 -31.5q-29 0 -48.5 20t-19.5 49q0 25 2 55.5t2 34.5q0 104 -35 129t-190 25q-47 0 -65.5 -17t-18.5 -61v-334q0 -91 23 -116t92 -25h329q121 0 161 37.5t40 142.5q0 37 -6 93t-6 75q0 38 23.5 64t56.5 26q31 0 50 -23.5
t19 -62.5q0 -14 -6 -89t-6 -136q0 -31 6 -87t6 -81q0 -46 -27 -74t-71 -28q-3 0 -14 1q-94 9 -201 9h-578q-111 0 -234 -8q-32 -2 -40 -2q-46 0 -67 18.5t-21 59.5q0 32 20.5 52.5t53.5 20.5q15 0 50.5 -4t55.5 -4q68 0 93.5 28t25.5 105zM832 1670q0 45 33.5 78.5
t79.5 33.5t79 -33t33 -79q0 -50 -31.5 -81.5t-80.5 -31.5t-81 32t-32 81zM447 1670q0 45 33.5 78.5t78.5 33.5q47 0 80 -33t33 -79q0 -50 -31.5 -81.5t-81.5 -31.5q-49 0 -80.5 31.5t-31.5 81.5z" />
    <glyph glyph-name="Igrave" unicode="&#xcc;" horiz-adv-x="901" 
d="M358 1124q0 61 -25 90t-77 29q-28 0 -68.5 -6t-52.5 -6q-34 0 -55 20t-21 54q0 39 21.5 58t64.5 19q5 0 108 -9t202 -9q94 0 194 9t107 9q43 0 64.5 -19t21.5 -58q0 -33 -21.5 -53.5t-56.5 -20.5q-12 0 -52.5 6t-68.5 6q-51 0 -75.5 -29t-24.5 -90v-876q0 -62 24.5 -91.5
t75.5 -29.5q28 0 68.5 7t52.5 7q35 0 56.5 -20.5t21.5 -52.5q0 -40 -21.5 -59t-64.5 -19q-4 0 -104.5 9t-196.5 9q-104 0 -206.5 -9t-103.5 -9q-43 0 -64.5 19t-21.5 59q0 33 21 53t55 20q12 0 52.5 -7t68.5 -7q51 0 76.5 30t25.5 91v876zM629 1618q8 -7 21 -21
q57 -56 57 -65t-10.5 -16.5t-24.5 -7.5q-26 0 -103 47q-2 1 -3 2l-190 116q-6 4 -16 10q-97 58 -97 103q0 33 21.5 56.5t51.5 23.5q46 0 125 -80l6 -6z" />
    <glyph glyph-name="Iacute" unicode="&#xcd;" horiz-adv-x="901" 
d="M358 1124q0 61 -25 90t-77 29q-28 0 -68.5 -6t-52.5 -6q-34 0 -55 20t-21 54q0 39 21.5 58t64.5 19q5 0 108 -9t202 -9q94 0 194 9t107 9q43 0 64.5 -19t21.5 -58q0 -33 -21.5 -53.5t-56.5 -20.5q-12 0 -52.5 6t-68.5 6q-51 0 -75.5 -29t-24.5 -90v-876q0 -62 24.5 -91.5
t75.5 -29.5q28 0 68.5 7t52.5 7q35 0 56.5 -20.5t21.5 -52.5q0 -40 -21.5 -59t-64.5 -19q-4 0 -104.5 9t-196.5 9q-104 0 -206.5 -9t-103.5 -9q-43 0 -64.5 19t-21.5 59q0 33 21 53t55 20q12 0 52.5 -7t68.5 -7q51 0 76.5 30t25.5 91v876zM345 1612l159 168q48 52 76.5 70
t56.5 18q31 0 52.5 -22.5t21.5 -55.5q0 -48 -108 -115l-2 -1l-193 -121l-11 -7q-71 -44 -93 -44q-14 0 -24.5 7.5t-10.5 16.5t33 43z" />
    <glyph glyph-name="Icircumflex" unicode="&#xce;" horiz-adv-x="901" 
d="M358 1124q0 61 -25 90t-77 29q-28 0 -68.5 -6t-52.5 -6q-34 0 -55 20t-21 54q0 39 21.5 58t64.5 19q5 0 108 -9t202 -9q94 0 194 9t107 9q43 0 64.5 -19t21.5 -58q0 -33 -21.5 -53.5t-56.5 -20.5q-12 0 -52.5 6t-68.5 6q-51 0 -75.5 -29t-24.5 -90v-876q0 -62 24.5 -91.5
t75.5 -29.5q28 0 68.5 7t52.5 7q35 0 56.5 -20.5t21.5 -52.5q0 -40 -21.5 -59t-64.5 -19q-4 0 -104.5 9t-196.5 9q-104 0 -206.5 -9t-103.5 -9q-43 0 -64.5 19t-21.5 59q0 33 21 53t55 20q12 0 52.5 -7t68.5 -7q51 0 76.5 30t25.5 91v876zM293 1559q-4 -5 -11 -12
q-44 -50 -85 -50q-13 1 -18.5 5t-6.5 14q0 23 38 76l10 15l123 178q6 9 14 22q29 47 94 47t94 -47q8 -13 14 -22l121 -179q6 -7 15 -20q35 -48 35 -70q-1 -10 -6.5 -14t-18.5 -5q-41 0 -85 50q-7 7 -11 12l-111 113q-15 14 -27 22t-20 8t-20 -8t-27 -22z" />
    <glyph glyph-name="Idieresis" unicode="&#xcf;" horiz-adv-x="901" 
d="M358 1124q0 61 -25 90t-77 29q-28 0 -68.5 -6t-52.5 -6q-34 0 -55 20t-21 54q0 39 21.5 58t64.5 19q5 0 108 -9t202 -9q94 0 194 9t107 9q43 0 64.5 -19t21.5 -58q0 -33 -21.5 -53.5t-56.5 -20.5q-12 0 -52.5 6t-68.5 6q-51 0 -75.5 -29t-24.5 -90v-876q0 -62 24.5 -91.5
t75.5 -29.5q28 0 68.5 7t52.5 7q35 0 56.5 -20.5t21.5 -52.5q0 -40 -21.5 -59t-64.5 -19q-4 0 -104.5 9t-196.5 9q-104 0 -206.5 -9t-103.5 -9q-43 0 -64.5 19t-21.5 59q0 33 21 53t55 20q12 0 52.5 -7t68.5 -7q51 0 76.5 30t25.5 91v876zM531 1670q0 45 33.5 78.5
t79.5 33.5t79 -33t33 -79q0 -50 -31.5 -81.5t-80.5 -31.5t-81 32t-32 81zM146 1670q0 45 33.5 78.5t78.5 33.5q47 0 80 -33t33 -79q0 -50 -31.5 -81.5t-81.5 -31.5q-49 0 -80.5 31.5t-31.5 81.5z" />
    <glyph glyph-name="Eth" unicode="&#xd0;" horiz-adv-x="1511" 
d="M518 289q0 -114 36 -137t191 -23q255 0 379.5 140t124.5 427q0 295 -131 425t-428 130q-114 0 -143 -24t-29 -154v-10v-285h283q35 0 47 -11t12 -40t-13 -41t-46 -12h-283v-385zM346 254v420h-244q-32 0 -44.5 12t-12.5 41t11.5 40t45.5 11h244v342q0 67 -25.5 93
t-87.5 26q-19 0 -56 -6t-54 -6q-34 0 -56 20.5t-22 52.5q0 39 21.5 57.5t66.5 18.5q23 0 71.5 -5t76.5 -5q2 0 13 -1q52 -3 101 -3q76 0 201.5 7t175.5 7q326 0 492 -173t166 -513q0 -332 -172 -516t-482 -184q-72 0 -188.5 10t-159.5 10q-62 0 -158 -10t-131 -10
q-48 0 -71 17t-23 52q0 36 21.5 57t56.5 21q15 0 53 -4t60 -4q59 0 84.5 28.5t25.5 96.5z" />
    <glyph glyph-name="Ntilde" unicode="&#xd1;" horiz-adv-x="1669" 
d="M1216 156q-1 14 -3 43q-11 134 -11 207v720q0 69 -23.5 91t-88.5 22q-18 0 -54 -4t-55 -4q-34 0 -59 23t-25 55q0 35 28.5 53t84.5 18q32 0 133.5 -8t169.5 -8q69 0 149 8t92 8q49 0 72 -18t23 -57q0 -33 -20.5 -53.5t-53.5 -20.5q-16 0 -51 4t-54 4q-54 0 -78 -26
t-24 -87v-950q0 -100 -35.5 -143t-118.5 -43q-56 0 -86 20t-73 105l-563 1110q4 -72 6 -137t2 -119v-721q0 -68 25 -92.5t89 -24.5q16 0 51 5t54 5q33 0 55.5 -21t22.5 -52q0 -38 -27.5 -58t-77.5 -20q-18 0 -116 9t-177 9q-78 0 -163.5 -9t-94.5 -9q-47 0 -70.5 19.5
t-23.5 60.5q0 32 21 51.5t55 19.5q16 0 50.5 -5t53.5 -5q53 0 78 28t25 89v874q0 66 -25 91.5t-86 25.5q-14 0 -48 -4t-54 -4q-31 0 -50.5 21t-19.5 55t29 53.5t80 19.5q24 0 100.5 -8t128.5 -8q30 0 75.5 7t61.5 7q46 0 75.5 -23.5t70.5 -107.5zM766 1629q-17 4 -30.5 6
t-22.5 2q-35 0 -53 -10t-33 -37q-3 -6 -7 -15q-11 -26 -32 -26q-15 0 -25 8t-10 20q0 19 15.5 51t46.5 78q24 37 56.5 54.5t76.5 17.5q18 0 34 -2t31 -6l107 -27q11 -3 22.5 -4.5t22.5 -1.5q25 0 43 8t29 23q6 8 13 26q12 31 34 31q14 0 22.5 -9t8.5 -24q0 -17 -18 -57.5
t-44 -75.5q-22 -31 -54.5 -47t-72.5 -16q-14 0 -26.5 1.5t-26.5 4.5z" />
    <glyph glyph-name="Ograve" unicode="&#xd2;" horiz-adv-x="1425" 
d="M1339 682q0 -329 -168.5 -520t-459.5 -191t-458 190.5t-167 520.5q0 332 167.5 522.5t459.5 190.5q289 0 457.5 -192t168.5 -521zM713 115q198 0 315 153t117 414t-117.5 415t-314.5 154q-198 0 -315 -154t-117 -415t117 -414t315 -153zM891 1618q8 -7 21 -21
q57 -56 57 -65t-10.5 -16.5t-24.5 -7.5q-26 0 -103 47q-2 1 -3 2l-190 116q-6 4 -16 10q-97 58 -97 103q0 33 21.5 56.5t51.5 23.5q46 0 125 -80l6 -6z" />
    <glyph glyph-name="Oacute" unicode="&#xd3;" horiz-adv-x="1425" 
d="M1339 682q0 -329 -168.5 -520t-459.5 -191t-458 190.5t-167 520.5q0 332 167.5 522.5t459.5 190.5q289 0 457.5 -192t168.5 -521zM713 115q198 0 315 153t117 414t-117.5 415t-314.5 154q-198 0 -315 -154t-117 -415t117 -414t315 -153zM607 1612l159 168q48 52 76.5 70
t56.5 18q31 0 52.5 -22.5t21.5 -55.5q0 -48 -108 -115l-2 -1l-193 -121l-11 -7q-71 -44 -93 -44q-14 0 -24.5 7.5t-10.5 16.5t33 43z" />
    <glyph glyph-name="Ocircumflex" unicode="&#xd4;" horiz-adv-x="1425" 
d="M1339 682q0 -329 -168.5 -520t-459.5 -191t-458 190.5t-167 520.5q0 332 167.5 522.5t459.5 190.5q289 0 457.5 -192t168.5 -521zM713 115q198 0 315 153t117 414t-117.5 415t-314.5 154q-198 0 -315 -154t-117 -415t117 -414t315 -153zM555 1559q-4 -5 -11 -12
q-44 -50 -85 -50q-13 1 -18.5 5t-6.5 14q0 23 38 76l10 15l123 178q6 9 14 22q29 47 94 47t94 -47q8 -13 14 -22l121 -179q6 -7 15 -20q35 -48 35 -70q-1 -10 -6.5 -14t-18.5 -5q-41 0 -85 50q-7 7 -11 12l-111 113q-15 14 -27 22t-20 8t-20 -8t-27 -22z" />
    <glyph glyph-name="Otilde" unicode="&#xd5;" horiz-adv-x="1425" 
d="M1339 682q0 -329 -168.5 -520t-459.5 -191t-458 190.5t-167 520.5q0 332 167.5 522.5t459.5 190.5q289 0 457.5 -192t168.5 -521zM713 115q198 0 315 153t117 414t-117.5 415t-314.5 154q-198 0 -315 -154t-117 -415t117 -414t315 -153zM643 1629q-17 4 -30.5 6t-22.5 2
q-35 0 -53 -10t-33 -37q-3 -6 -7 -15q-11 -26 -32 -26q-15 0 -25 8t-10 20q0 19 15.5 51t46.5 78q24 37 56.5 54.5t76.5 17.5q18 0 34 -2t31 -6l107 -27q11 -3 22.5 -4.5t22.5 -1.5q25 0 43 8t29 23q6 8 13 26q12 31 34 31q14 0 22.5 -9t8.5 -24q0 -17 -18 -57.5t-44 -75.5
q-22 -31 -54.5 -47t-72.5 -16q-14 0 -26.5 1.5t-26.5 4.5z" />
    <glyph glyph-name="Odieresis" unicode="&#xd6;" horiz-adv-x="1425" 
d="M1339 682q0 -329 -168.5 -520t-459.5 -191t-458 190.5t-167 520.5q0 332 167.5 522.5t459.5 190.5q289 0 457.5 -192t168.5 -521zM713 115q198 0 315 153t117 414t-117.5 415t-314.5 154q-198 0 -315 -154t-117 -415t117 -414t315 -153zM793 1670q0 45 33.5 78.5
t79.5 33.5t79 -33t33 -79q0 -50 -31.5 -81.5t-80.5 -31.5t-81 32t-32 81zM408 1670q0 45 33.5 78.5t78.5 33.5q47 0 80 -33t33 -79q0 -50 -31.5 -81.5t-81.5 -31.5q-49 0 -80.5 31.5t-31.5 81.5z" />
    <glyph glyph-name="multiply" unicode="&#xd7;" horiz-adv-x="1706" 
d="M858 692l475 477l82 -82l-475 -477l475 -475l-82 -82l-475 475l-477 -475l-80 82l475 475l-475 477l80 82z" />
    <glyph glyph-name="Oslash" unicode="&#xd8;" horiz-adv-x="1425" 
d="M446 217q52 -52 118 -77t149 -25q198 0 315 153t117 414q0 127 -30 231.5t-91 188.5zM377 299l571 877q-45 37 -104 56t-131 19q-200 0 -317 -155t-117 -422q0 -111 23.5 -202t74.5 -173zM1120 1251q109 -99 164 -242.5t55 -326.5q0 -329 -168.5 -520t-459.5 -191
q-112 0 -200 25t-159 76l-100 -160q-12 -20 -26.5 -29.5t-32.5 -9.5q-21 0 -33.5 14.5t-12.5 38.5q0 13 4.5 24.5t14.5 26.5l108 164q-96 106 -142 238t-46 303q0 332 167.5 522.5t459.5 190.5q96 0 177 -20.5t148 -61.5l82 121q14 20 25.5 28t25.5 8q22 0 36 -14t14 -37
q0 -8 -2 -16.5t-5 -14.5z" />
    <glyph glyph-name="Ugrave" unicode="&#xd9;" horiz-adv-x="1663" 
d="M1346 627v-101v-69q0 -107 -12 -167t-38 -110q-53 -102 -171 -155.5t-289 -53.5q-137 0 -242 34.5t-166 98.5q-58 61 -83.5 146t-25.5 239v138v497q0 59 -24.5 87t-77.5 28q-28 0 -68.5 -5t-52.5 -5q-34 0 -55 21t-21 55q0 39 21.5 58t64.5 19q16 0 106.5 -9t166.5 -9
q70 0 165.5 9t121.5 9q49 0 77.5 -19.5t28.5 -53.5q0 -36 -19.5 -58t-50.5 -22q-18 0 -51 5t-47 5q-58 0 -81 -24t-23 -91v-661q0 -189 76 -265.5t258 -76.5q178 0 254.5 75.5t76.5 254.5v86v585q0 68 -22.5 92.5t-79.5 24.5q-14 0 -47 -5t-51 -5q-32 0 -52 21.5t-20 56.5
q0 34 29.5 54.5t78.5 20.5q26 0 120.5 -9t164.5 -9q76 0 166.5 9t106.5 9q43 0 65.5 -20t22.5 -59q0 -33 -21.5 -53.5t-56.5 -20.5q-12 0 -52.5 5t-68.5 5q-44 0 -73 -26.5t-29 -65.5q0 -3 1 -10t1 -13zM1009 1618q8 -7 21 -21q57 -56 57 -65t-10.5 -16.5t-24.5 -7.5
q-26 0 -103 47q-2 1 -3 2l-190 116q-6 4 -16 10q-97 58 -97 103q0 33 21.5 56.5t51.5 23.5q46 0 125 -80l6 -6z" />
    <glyph glyph-name="Uacute" unicode="&#xda;" horiz-adv-x="1663" 
d="M1346 627v-101v-69q0 -107 -12 -167t-38 -110q-53 -102 -171 -155.5t-289 -53.5q-137 0 -242 34.5t-166 98.5q-58 61 -83.5 146t-25.5 239v138v497q0 59 -24.5 87t-77.5 28q-28 0 -68.5 -5t-52.5 -5q-34 0 -55 21t-21 55q0 39 21.5 58t64.5 19q16 0 106.5 -9t166.5 -9
q70 0 165.5 9t121.5 9q49 0 77.5 -19.5t28.5 -53.5q0 -36 -19.5 -58t-50.5 -22q-18 0 -51 5t-47 5q-58 0 -81 -24t-23 -91v-661q0 -189 76 -265.5t258 -76.5q178 0 254.5 75.5t76.5 254.5v86v585q0 68 -22.5 92.5t-79.5 24.5q-14 0 -47 -5t-51 -5q-32 0 -52 21.5t-20 56.5
q0 34 29.5 54.5t78.5 20.5q26 0 120.5 -9t164.5 -9q76 0 166.5 9t106.5 9q43 0 65.5 -20t22.5 -59q0 -33 -21.5 -53.5t-56.5 -20.5q-12 0 -52.5 5t-68.5 5q-44 0 -73 -26.5t-29 -65.5q0 -3 1 -10t1 -13zM725 1612l159 168q48 52 76.5 70t56.5 18q31 0 52.5 -22.5t21.5 -55.5
q0 -48 -108 -115l-2 -1l-193 -121l-11 -7q-71 -44 -93 -44q-14 0 -24.5 7.5t-10.5 16.5t33 43z" />
    <glyph glyph-name="Ucircumflex" unicode="&#xdb;" horiz-adv-x="1663" 
d="M1346 627v-101v-69q0 -107 -12 -167t-38 -110q-53 -102 -171 -155.5t-289 -53.5q-137 0 -242 34.5t-166 98.5q-58 61 -83.5 146t-25.5 239v138v497q0 59 -24.5 87t-77.5 28q-28 0 -68.5 -5t-52.5 -5q-34 0 -55 21t-21 55q0 39 21.5 58t64.5 19q16 0 106.5 -9t166.5 -9
q70 0 165.5 9t121.5 9q49 0 77.5 -19.5t28.5 -53.5q0 -36 -19.5 -58t-50.5 -22q-18 0 -51 5t-47 5q-58 0 -81 -24t-23 -91v-661q0 -189 76 -265.5t258 -76.5q178 0 254.5 75.5t76.5 254.5v86v585q0 68 -22.5 92.5t-79.5 24.5q-14 0 -47 -5t-51 -5q-32 0 -52 21.5t-20 56.5
q0 34 29.5 54.5t78.5 20.5q26 0 120.5 -9t164.5 -9q76 0 166.5 9t106.5 9q43 0 65.5 -20t22.5 -59q0 -33 -21.5 -53.5t-56.5 -20.5q-12 0 -52.5 5t-68.5 5q-44 0 -73 -26.5t-29 -65.5q0 -3 1 -10t1 -13zM673 1559q-4 -5 -11 -12q-44 -50 -85 -50q-13 1 -18.5 5t-6.5 14
q0 23 38 76l10 15l123 178q6 9 14 22q29 47 94 47t94 -47q8 -13 14 -22l121 -179q6 -7 15 -20q35 -48 35 -70q-1 -10 -6.5 -14t-18.5 -5q-41 0 -85 50q-7 7 -11 12l-111 113q-15 14 -27 22t-20 8t-20 -8t-27 -22z" />
    <glyph glyph-name="Udieresis" unicode="&#xdc;" horiz-adv-x="1663" 
d="M1346 627v-101v-69q0 -107 -12 -167t-38 -110q-53 -102 -171 -155.5t-289 -53.5q-137 0 -242 34.5t-166 98.5q-58 61 -83.5 146t-25.5 239v138v497q0 59 -24.5 87t-77.5 28q-28 0 -68.5 -5t-52.5 -5q-34 0 -55 21t-21 55q0 39 21.5 58t64.5 19q16 0 106.5 -9t166.5 -9
q70 0 165.5 9t121.5 9q49 0 77.5 -19.5t28.5 -53.5q0 -36 -19.5 -58t-50.5 -22q-18 0 -51 5t-47 5q-58 0 -81 -24t-23 -91v-661q0 -189 76 -265.5t258 -76.5q178 0 254.5 75.5t76.5 254.5v86v585q0 68 -22.5 92.5t-79.5 24.5q-14 0 -47 -5t-51 -5q-32 0 -52 21.5t-20 56.5
q0 34 29.5 54.5t78.5 20.5q26 0 120.5 -9t164.5 -9q76 0 166.5 9t106.5 9q43 0 65.5 -20t22.5 -59q0 -33 -21.5 -53.5t-56.5 -20.5q-12 0 -52.5 5t-68.5 5q-44 0 -73 -26.5t-29 -65.5q0 -3 1 -10t1 -13zM911 1670q0 45 33.5 78.5t79.5 33.5t79 -33t33 -79q0 -50 -31.5 -81.5
t-80.5 -31.5t-81 32t-32 81zM526 1670q0 45 33.5 78.5t78.5 33.5q47 0 80 -33t33 -79q0 -50 -31.5 -81.5t-81.5 -31.5q-49 0 -80.5 31.5t-31.5 81.5z" />
    <glyph glyph-name="Yacute" unicode="&#xdd;" horiz-adv-x="1503" 
d="M838 246q0 -61 25 -90t77 -29q28 0 68.5 6t52.5 6q35 0 56.5 -19.5t21.5 -51.5q0 -40 -21.5 -60t-64.5 -20q-4 0 -105.5 10t-199.5 10q-93 0 -192 -10t-105 -10q-43 0 -64.5 20t-21.5 60q0 32 21 51.5t56 19.5q12 0 52.5 -6t68.5 -6q52 0 76.5 29t24.5 90v274l-398 617
q-38 61 -69.5 80.5t-77.5 19.5l-29.5 -4t-58.5 -4q-27 0 -48.5 23t-21.5 53q0 31 26.5 53t63.5 22q7 0 115.5 -10t210.5 -10t199 18q15 2 18 2q46 0 70 -20.5t24 -59.5q0 -32 -21.5 -51.5t-56.5 -19.5q-12 0 -44 4t-52 4q-39 0 -56.5 -10t-17.5 -33q0 -17 17 -44l6 -9
l289 -479l286 478q3 5 9 14q16 25 16 40q0 23 -17.5 33t-56.5 10q-20 0 -52 -4t-44 -4q-35 0 -56.5 19.5t-21.5 51.5q0 37 23 58.5t63 21.5q1 0 4 -1t6 -1q4 0 18 -2q95 -16 197 -16t209.5 10t114.5 10q38 0 65 -22t27 -53q0 -30 -21.5 -53t-47.5 -23q-30 0 -59 4t-30 4
q-46 0 -77.5 -19.5t-69.5 -80.5l-399 -617v-274zM646 1612l159 168q48 52 76.5 70t56.5 18q31 0 52.5 -22.5t21.5 -55.5q0 -48 -108 -115l-2 -1l-193 -121l-11 -7q-71 -44 -93 -44q-14 0 -24.5 7.5t-10.5 16.5t33 43z" />
    <glyph glyph-name="Thorn" unicode="&#xde;" horiz-adv-x="1296" 
d="M512 526q0 -35 24 -46t107 -11q245 0 338.5 54.5t93.5 189.5q0 134 -80 195t-260 61q-156 0 -189.5 -21.5t-33.5 -91.5v-330zM340 244v880q0 63 -26.5 91t-84.5 28q-20 0 -57.5 -6t-54.5 -6q-34 0 -55 20.5t-21 53.5q0 39 21 58t65 19q7 0 107.5 -9t193.5 -9q92 0 191 9
t106 9q44 0 65 -18.5t21 -58.5q0 -33 -20.5 -53.5t-53.5 -20.5q-15 0 -52 6t-58 6q-57 0 -86 -21t-29 -63v-31q0 -20 14.5 -29t46.5 -9q8 0 82 5t142 5q224 0 340 -98t116 -287q0 -196 -127.5 -291.5t-388.5 -95.5q-40 0 -88.5 3t-56.5 3q-46 0 -63 -11t-17 -40v-35
q0 -66 25.5 -90.5t91.5 -24.5q14 0 50 5t56 5q32 0 54 -21.5t22 -53.5q0 -37 -30.5 -57.5t-86.5 -20.5q-39 0 -133 10t-147 10q-87 0 -182 -10t-105 -10q-44 0 -65 19.5t-21 60.5q0 31 20 52t50 21q20 0 55 -5t51 -5q66 0 94.5 26t28.5 85z" />
    <glyph glyph-name="germandbls" unicode="&#xdf;" horiz-adv-x="1294" 
d="M414 162q0 -110 -26.5 -141t-106.5 -31q-13 0 -34 5t-30 5q-25 0 -66 -5t-57 -5q-37 0 -54 13.5t-17 43.5q0 33 21 49.5t65 16.5h55q57 0 77.5 19.5t20.5 74.5v657h-41q-29 0 -63.5 -3t-40.5 -3q-38 0 -54 13.5t-16 43.5t20 48t52 18q3 0 18 -1q58 -5 109 -5h28
q17 189 128.5 292t299.5 103q161 0 254 -71.5t93 -194.5q0 -61 -27 -110.5t-88 -100.5q-21 -18 -59 -44q-58 -40 -58 -61q0 -37 99 -94q67 -38 104 -65q90 -65 133 -141t43 -169q0 -155 -93.5 -251.5t-244.5 -96.5q-88 0 -174 47q-18 11 -22 11t-31.5 -27t-57.5 -27
q-25 0 -42 18.5t-17 45.5q0 2 1 17q9 104 9 218q0 46 -8 94q-2 12 -2 15q0 37 18 57.5t50 20.5q34 0 49.5 -20t15.5 -64v-58q0 -100 50 -155t141 -55q87 0 141.5 55.5t54.5 144.5q0 118 -167 230q-35 23 -53 36q-120 83 -151.5 123.5t-31.5 85.5q0 37 20.5 68.5t77.5 75.5
q13 10 38 28q112 82 112 146q0 63 -50 102t-133 39q-143 0 -212.5 -106.5t-69.5 -327.5v-647z" />
    <glyph glyph-name="agrave" unicode="&#xe0;" horiz-adv-x="1133" 
d="M721 360v158q-63 -49 -271 -78h-1q-148 -20 -199 -60t-51 -122q0 -69 53 -113.5t137 -44.5q152 0 242 71t90 189zM745 122q-60 -76 -150 -115.5t-208 -39.5q-164 0 -251 77.5t-87 221.5q0 132 77 200.5t259 94.5q11 2 29 4q297 43 297 170q0 80 -57.5 125t-159.5 45
q-84 0 -146.5 -28t-62.5 -60q0 -7 23.5 -35.5t23.5 -56.5q0 -40 -29.5 -67t-73.5 -27q-56 0 -88 36.5t-32 100.5q0 116 110.5 188t294.5 72q190 0 273 -81.5t83 -268.5v-463q0 -69 14 -92t50 -23q38 0 55 24.5t17 82.5v102q0 44 14 64t45 20q32 0 45.5 -20t13.5 -70v-149
q0 -88 -55 -137.5t-151 -49.5q-80 0 -124.5 40.5t-48.5 114.5zM678 1251q8 -7 21 -21q57 -56 57 -65t-10.5 -16.5t-24.5 -7.5q-26 0 -103 47q-2 1 -3 2l-190 116q-6 4 -16 10q-97 58 -97 103q0 33 21.5 56.5t51.5 23.5q46 0 125 -80l6 -6z" />
    <glyph glyph-name="aacute" unicode="&#xe1;" horiz-adv-x="1133" 
d="M721 360v158q-63 -49 -271 -78h-1q-148 -20 -199 -60t-51 -122q0 -69 53 -113.5t137 -44.5q152 0 242 71t90 189zM745 122q-60 -76 -150 -115.5t-208 -39.5q-164 0 -251 77.5t-87 221.5q0 132 77 200.5t259 94.5q11 2 29 4q297 43 297 170q0 80 -57.5 125t-159.5 45
q-84 0 -146.5 -28t-62.5 -60q0 -7 23.5 -35.5t23.5 -56.5q0 -40 -29.5 -67t-73.5 -27q-56 0 -88 36.5t-32 100.5q0 116 110.5 188t294.5 72q190 0 273 -81.5t83 -268.5v-463q0 -69 14 -92t50 -23q38 0 55 24.5t17 82.5v102q0 44 14 64t45 20q32 0 45.5 -20t13.5 -70v-149
q0 -88 -55 -137.5t-151 -49.5q-80 0 -124.5 40.5t-48.5 114.5zM394 1245l159 168q48 52 76.5 70t56.5 18q31 0 52.5 -22.5t21.5 -55.5q0 -48 -108 -115l-2 -1l-193 -121l-11 -7q-71 -44 -93 -44q-14 0 -24.5 7.5t-10.5 16.5t33 43z" />
    <glyph glyph-name="acircumflex" unicode="&#xe2;" horiz-adv-x="1133" 
d="M721 360v158q-63 -49 -271 -78h-1q-148 -20 -199 -60t-51 -122q0 -69 53 -113.5t137 -44.5q152 0 242 71t90 189zM745 122q-60 -76 -150 -115.5t-208 -39.5q-164 0 -251 77.5t-87 221.5q0 132 77 200.5t259 94.5q11 2 29 4q297 43 297 170q0 80 -57.5 125t-159.5 45
q-84 0 -146.5 -28t-62.5 -60q0 -7 23.5 -35.5t23.5 -56.5q0 -40 -29.5 -67t-73.5 -27q-56 0 -88 36.5t-32 100.5q0 116 110.5 188t294.5 72q190 0 273 -81.5t83 -268.5v-463q0 -69 14 -92t50 -23q38 0 55 24.5t17 82.5v102q0 44 14 64t45 20q32 0 45.5 -20t13.5 -70v-149
q0 -88 -55 -137.5t-151 -49.5q-80 0 -124.5 40.5t-48.5 114.5zM342 1192q-4 -5 -11 -12q-44 -50 -85 -50q-13 1 -18.5 5t-6.5 14q0 23 38 76l10 15l123 178q6 9 14 22q29 47 94 47t94 -47q8 -13 14 -22l121 -179q6 -7 15 -20q35 -48 35 -70q-1 -10 -6.5 -14t-18.5 -5
q-41 0 -85 50q-7 7 -11 12l-111 113q-15 14 -27 22t-20 8t-20 -8t-27 -22z" />
    <glyph glyph-name="atilde" unicode="&#xe3;" horiz-adv-x="1133" 
d="M721 360v158q-63 -49 -271 -78h-1q-148 -20 -199 -60t-51 -122q0 -69 53 -113.5t137 -44.5q152 0 242 71t90 189zM745 122q-60 -76 -150 -115.5t-208 -39.5q-164 0 -251 77.5t-87 221.5q0 132 77 200.5t259 94.5q11 2 29 4q297 43 297 170q0 80 -57.5 125t-159.5 45
q-84 0 -146.5 -28t-62.5 -60q0 -7 23.5 -35.5t23.5 -56.5q0 -40 -29.5 -67t-73.5 -27q-56 0 -88 36.5t-32 100.5q0 116 110.5 188t294.5 72q190 0 273 -81.5t83 -268.5v-463q0 -69 14 -92t50 -23q38 0 55 24.5t17 82.5v102q0 44 14 64t45 20q32 0 45.5 -20t13.5 -70v-149
q0 -88 -55 -137.5t-151 -49.5q-80 0 -124.5 40.5t-48.5 114.5zM430 1262q-17 4 -30.5 6t-22.5 2q-35 0 -53 -10t-33 -37q-3 -6 -7 -15q-11 -26 -32 -26q-15 0 -25 8t-10 20q0 19 15.5 51t46.5 78q24 37 56.5 54.5t76.5 17.5q18 0 34 -2t31 -6l107 -27q11 -3 22.5 -4.5
t22.5 -1.5q25 0 43 8t29 23q6 8 13 26q12 31 34 31q14 0 22.5 -9t8.5 -24q0 -17 -18 -57.5t-44 -75.5q-22 -31 -54.5 -47t-72.5 -16q-14 0 -26.5 1.5t-26.5 4.5z" />
    <glyph glyph-name="adieresis" unicode="&#xe4;" horiz-adv-x="1133" 
d="M721 360v158q-63 -49 -271 -78h-1q-148 -20 -199 -60t-51 -122q0 -69 53 -113.5t137 -44.5q152 0 242 71t90 189zM745 122q-60 -76 -150 -115.5t-208 -39.5q-164 0 -251 77.5t-87 221.5q0 132 77 200.5t259 94.5q11 2 29 4q297 43 297 170q0 80 -57.5 125t-159.5 45
q-84 0 -146.5 -28t-62.5 -60q0 -7 23.5 -35.5t23.5 -56.5q0 -40 -29.5 -67t-73.5 -27q-56 0 -88 36.5t-32 100.5q0 116 110.5 188t294.5 72q190 0 273 -81.5t83 -268.5v-463q0 -69 14 -92t50 -23q38 0 55 24.5t17 82.5v102q0 44 14 64t45 20q32 0 45.5 -20t13.5 -70v-149
q0 -88 -55 -137.5t-151 -49.5q-80 0 -124.5 40.5t-48.5 114.5zM580 1303q0 45 33.5 78.5t79.5 33.5t79 -33t33 -79q0 -50 -31.5 -81.5t-80.5 -31.5t-81 32t-32 81zM195 1303q0 45 33.5 78.5t78.5 33.5q47 0 80 -33t33 -79q0 -50 -31.5 -81.5t-81.5 -31.5q-49 0 -80.5 31.5
t-31.5 81.5z" />
    <glyph glyph-name="aring" unicode="&#xe5;" horiz-adv-x="1133" 
d="M371 1341q0 -60 40.5 -101.5t100.5 -41.5t100.5 41.5t40.5 101.5t-40.5 101t-100.5 41t-100.5 -41t-40.5 -101zM264 1341q0 105 72 176.5t176 71.5t176 -71.5t72 -176.5q0 -104 -72 -175.5t-176 -71.5t-176 71.5t-72 175.5zM721 360v158q-63 -49 -271 -78h-1
q-148 -20 -199 -60t-51 -122q0 -69 53 -113.5t137 -44.5q152 0 242 71t90 189zM745 122q-60 -76 -150 -115.5t-208 -39.5q-164 0 -251 77.5t-87 221.5q0 132 77 200.5t259 94.5q11 2 29 4q297 43 297 170q0 80 -57.5 125t-159.5 45q-84 0 -146.5 -28t-62.5 -60
q0 -7 23.5 -35.5t23.5 -56.5q0 -40 -29.5 -67t-73.5 -27q-56 0 -88 36.5t-32 100.5q0 116 110.5 188t294.5 72q190 0 273 -81.5t83 -268.5v-463q0 -69 14 -92t50 -23q38 0 55 24.5t17 82.5v102q0 44 14 64t45 20q32 0 45.5 -20t13.5 -70v-149q0 -88 -55 -137.5t-151 -49.5
q-80 0 -124.5 40.5t-48.5 114.5z" />
    <glyph glyph-name="ae" unicode="&#xe6;" horiz-adv-x="1677" 
d="M735 471q-18 4 -42 6t-56 2q-222 0 -328 -53t-106 -164q0 -74 53.5 -120t140.5 -46q154 0 246 72t92 192v111zM1462 608v15q0 122 -76.5 198t-199.5 76q-121 0 -198 -77t-91 -212h565zM803 166q-74 -97 -183 -148t-243 -51q-151 0 -237.5 79.5t-86.5 217.5
q0 171 137.5 257.5t409.5 86.5h84h51q1 9 1.5 20.5t0.5 33.5q0 126 -60 185.5t-188 59.5q-81 0 -140.5 -28.5t-59.5 -61.5q0 -7 23.5 -35.5t23.5 -56.5q0 -40 -29 -67t-74 -27q-59 0 -90.5 34t-31.5 99q0 116 107 189t282 73q136 0 227 -52.5t115 -144.5q49 97 135.5 147
t204.5 50q199 0 317.5 -121t118.5 -327q0 -63 -21 -81t-92 -18h-614v-12q0 -168 80.5 -269.5t212.5 -101.5q90 0 154.5 43t103.5 129q6 14 17 40q37 87 77 87q35 0 54.5 -18.5t19.5 -52.5q0 -47 -21.5 -98t-62.5 -101q-66 -81 -152.5 -119.5t-204.5 -38.5q-129 0 -218 48
t-148 151z" />
    <glyph glyph-name="ccedilla" unicode="&#xe7;" horiz-adv-x="1018" 
d="M76 498q0 248 128 390t351 142q180 0 290.5 -83.5t110.5 -217.5q0 -78 -44.5 -124t-120.5 -46q-52 0 -80.5 23.5t-28.5 66.5q0 29 15 53t42 39q5 3 15 6q22 9 22 27q0 48 -61 86.5t-146 38.5q-158 0 -245.5 -109.5t-87.5 -308.5q0 -174 84.5 -279.5t222.5 -105.5
q93 0 154 38.5t100 122.5q9 19 23 60q34 95 85 95q32 0 53 -20.5t21 -51.5q0 -46 -24.5 -108.5t-63.5 -112.5q-60 -75 -149 -113.5t-205 -38.5q-213 0 -337 143t-124 388zM503 0h65v-92q0 -7 4.5 -13t9.5 -6q10 0 24.5 1t18.5 1q89 0 140 -44.5t51 -122.5q0 -83 -60.5 -130
t-167.5 -47q-128 0 -220.5 34t-92.5 77q0 25 16.5 41t42.5 16q15 0 90.5 -41t145.5 -41q47 0 76.5 25t29.5 63q0 40 -26.5 64.5t-71.5 24.5q-19 0 -42.5 -4.5t-27.5 -4.5q-10 1 -18 8.5t-8 16.5q0 3 3 16q16 76 18 158z" />
    <glyph glyph-name="egrave" unicode="&#xe8;" horiz-adv-x="1049" 
d="M240 479v-6q0 -169 83.5 -271t221.5 -102q84 0 141.5 30t104.5 97q18 27 38 82q31 82 78 82q30 0 50 -20.5t20 -51.5q0 -36 -24 -89.5t-64 -106.5q-62 -80 -147.5 -118t-204.5 -38q-212 0 -336.5 143.5t-124.5 387.5q0 243 124.5 386.5t336.5 143.5q204 0 326 -122.5
t122 -327.5q0 -59 -20 -79t-78 -20h-35h-612zM250 610h565v13q0 122 -76.5 198t-199.5 76q-121 0 -198.5 -77t-90.5 -210zM717 1251q8 -7 21 -21q57 -56 57 -65t-10.5 -16.5t-24.5 -7.5q-26 0 -103 47q-2 1 -3 2l-190 116q-6 4 -16 10q-97 58 -97 103q0 33 21.5 56.5
t51.5 23.5q46 0 125 -80l6 -6z" />
    <glyph glyph-name="eacute" unicode="&#xe9;" horiz-adv-x="1049" 
d="M240 479v-6q0 -169 83.5 -271t221.5 -102q84 0 141.5 30t104.5 97q18 27 38 82q31 82 78 82q30 0 50 -20.5t20 -51.5q0 -36 -24 -89.5t-64 -106.5q-62 -80 -147.5 -118t-204.5 -38q-212 0 -336.5 143.5t-124.5 387.5q0 243 124.5 386.5t336.5 143.5q204 0 326 -122.5
t122 -327.5q0 -59 -20 -79t-78 -20h-35h-612zM250 610h565v13q0 122 -76.5 198t-199.5 76q-121 0 -198.5 -77t-90.5 -210zM433 1245l159 168q48 52 76.5 70t56.5 18q31 0 52.5 -22.5t21.5 -55.5q0 -48 -108 -115l-2 -1l-193 -121l-11 -7q-71 -44 -93 -44q-14 0 -24.5 7.5
t-10.5 16.5t33 43z" />
    <glyph glyph-name="ecircumflex" unicode="&#xea;" horiz-adv-x="1049" 
d="M240 479v-6q0 -169 83.5 -271t221.5 -102q84 0 141.5 30t104.5 97q18 27 38 82q31 82 78 82q30 0 50 -20.5t20 -51.5q0 -36 -24 -89.5t-64 -106.5q-62 -80 -147.5 -118t-204.5 -38q-212 0 -336.5 143.5t-124.5 387.5q0 243 124.5 386.5t336.5 143.5q204 0 326 -122.5
t122 -327.5q0 -59 -20 -79t-78 -20h-35h-612zM250 610h565v13q0 122 -76.5 198t-199.5 76q-121 0 -198.5 -77t-90.5 -210zM381 1192q-4 -5 -11 -12q-44 -50 -85 -50q-13 1 -18.5 5t-6.5 14q0 23 38 76l10 15l123 178q6 9 14 22q29 47 94 47t94 -47q8 -13 14 -22l121 -179
q6 -7 15 -20q35 -48 35 -70q-1 -10 -6.5 -14t-18.5 -5q-41 0 -85 50q-7 7 -11 12l-111 113q-15 14 -27 22t-20 8t-20 -8t-27 -22z" />
    <glyph glyph-name="edieresis" unicode="&#xeb;" horiz-adv-x="1049" 
d="M240 479v-6q0 -169 83.5 -271t221.5 -102q84 0 141.5 30t104.5 97q18 27 38 82q31 82 78 82q30 0 50 -20.5t20 -51.5q0 -36 -24 -89.5t-64 -106.5q-62 -80 -147.5 -118t-204.5 -38q-212 0 -336.5 143.5t-124.5 387.5q0 243 124.5 386.5t336.5 143.5q204 0 326 -122.5
t122 -327.5q0 -59 -20 -79t-78 -20h-35h-612zM250 610h565v13q0 122 -76.5 198t-199.5 76q-121 0 -198.5 -77t-90.5 -210zM619 1303q0 45 33.5 78.5t79.5 33.5t79 -33t33 -79q0 -50 -31.5 -81.5t-80.5 -31.5t-81 32t-32 81zM234 1303q0 45 33.5 78.5t78.5 33.5q47 0 80 -33
t33 -79q0 -50 -31.5 -81.5t-81.5 -31.5q-49 0 -80.5 31.5t-31.5 81.5z" />
    <glyph glyph-name="igrave" unicode="&#xec;" horiz-adv-x="680" 
d="M276 256v408q0 141 -20 175.5t-82 34.5h-74q-37 0 -51 13t-14 45q0 27 20.5 46t50.5 19q6 0 45.5 -3t73.5 -3q57 0 119 5q15 1 18 1q42 0 56 -15t14 -69v-657q0 -91 18 -116t78 -25q13 0 30 2t24 2q43 0 64.5 -17t21.5 -51q0 -33 -18.5 -47t-61.5 -14q-12 0 -84 8t-131 8
q-111 0 -225 -13q-25 -3 -31 -3q-44 0 -63 14.5t-19 46.5q0 34 21.5 51t64.5 17q10 0 29 -2t28 -2q61 0 79.5 24t18.5 117zM473 1251q8 -7 21 -21q57 -56 57 -65t-10.5 -16.5t-24.5 -7.5q-26 0 -103 47q-2 1 -3 2l-190 116q-6 4 -16 10q-97 58 -97 103q0 33 21.5 56.5
t51.5 23.5q46 0 125 -80l6 -6z" />
    <glyph glyph-name="iacute" unicode="&#xed;" horiz-adv-x="680" 
d="M276 256v408q0 141 -20 175.5t-82 34.5h-74q-37 0 -51 13t-14 45q0 27 20.5 46t50.5 19q6 0 45.5 -3t73.5 -3q57 0 119 5q15 1 18 1q42 0 56 -15t14 -69v-657q0 -91 18 -116t78 -25q13 0 30 2t24 2q43 0 64.5 -17t21.5 -51q0 -33 -18.5 -47t-61.5 -14q-12 0 -84 8t-131 8
q-111 0 -225 -13q-25 -3 -31 -3q-44 0 -63 14.5t-19 46.5q0 34 21.5 51t64.5 17q10 0 29 -2t28 -2q61 0 79.5 24t18.5 117zM189 1245l159 168q48 52 76.5 70t56.5 18q31 0 52.5 -22.5t21.5 -55.5q0 -48 -108 -115l-2 -1l-193 -121l-11 -7q-71 -44 -93 -44q-14 0 -24.5 7.5
t-10.5 16.5t33 43z" />
    <glyph glyph-name="icircumflex" unicode="&#xee;" horiz-adv-x="680" 
d="M276 256v408q0 141 -20 175.5t-82 34.5h-74q-37 0 -51 13t-14 45q0 27 20.5 46t50.5 19q6 0 45.5 -3t73.5 -3q57 0 119 5q15 1 18 1q42 0 56 -15t14 -69v-657q0 -91 18 -116t78 -25q13 0 30 2t24 2q43 0 64.5 -17t21.5 -51q0 -33 -18.5 -47t-61.5 -14q-12 0 -84 8t-131 8
q-111 0 -225 -13q-25 -3 -31 -3q-44 0 -63 14.5t-19 46.5q0 34 21.5 51t64.5 17q10 0 29 -2t28 -2q61 0 79.5 24t18.5 117zM137 1192q-4 -5 -11 -12q-44 -50 -85 -50q-13 1 -18.5 5t-6.5 14q0 23 38 76l10 15l123 178q6 9 14 22q29 47 94 47t94 -47q8 -13 14 -22l121 -179
q6 -7 15 -20q35 -48 35 -70q-1 -10 -6.5 -14t-18.5 -5q-41 0 -85 50q-7 7 -11 12l-111 113q-15 14 -27 22t-20 8t-20 -8t-27 -22z" />
    <glyph glyph-name="idieresis" unicode="&#xef;" horiz-adv-x="680" 
d="M276 256v408q0 141 -20 175.5t-82 34.5h-74q-37 0 -51 13t-14 45q0 27 20.5 46t50.5 19q6 0 45.5 -3t73.5 -3q57 0 119 5q15 1 18 1q42 0 56 -15t14 -69v-657q0 -91 18 -116t78 -25q13 0 30 2t24 2q43 0 64.5 -17t21.5 -51q0 -33 -18.5 -47t-61.5 -14q-12 0 -84 8t-131 8
q-111 0 -225 -13q-25 -3 -31 -3q-44 0 -63 14.5t-19 46.5q0 34 21.5 51t64.5 17q10 0 29 -2t28 -2q61 0 79.5 24t18.5 117zM375 1303q0 45 33.5 78.5t79.5 33.5t79 -33t33 -79q0 -50 -31.5 -81.5t-80.5 -31.5t-81 32t-32 81zM-10 1303q0 45 33.5 78.5t78.5 33.5q47 0 80 -33
t33 -79q0 -50 -31.5 -81.5t-81.5 -31.5q-49 0 -80.5 31.5t-31.5 81.5z" />
    <glyph glyph-name="eth" unicode="&#xf0;" horiz-adv-x="1171" 
d="M238 473q0 -176 90 -273.5t252 -97.5q166 0 259 97.5t93 273.5q0 163 -92 255.5t-254 92.5q-163 0 -255.5 -92.5t-92.5 -255.5zM819 911q-42 66 -90 122.5t-102 105.5q-73 -32 -179.5 -85t-130.5 -53q-20 0 -33.5 14t-13.5 34q0 48 137 96q86 30 140 53q-34 21 -88 52
q-101 57 -101 93q0 25 17 39.5t45 14.5q43 0 112 -34t164 -101q42 18 108 50q103 50 132 50q20 0 33.5 -15t13.5 -36q0 -38 -127 -81q-55 -19 -88 -32q159 -154 242.5 -339t83.5 -382q0 -237 -136.5 -373.5t-375.5 -136.5q-233 0 -369.5 138t-136.5 372q0 219 137 348
t371 129q74 0 132 -10.5t103 -32.5z" />
    <glyph glyph-name="ntilde" unicode="&#xf1;" horiz-adv-x="1399" 
d="M997 545q0 185 -61.5 264.5t-202.5 79.5q-159 0 -233 -110t-74 -349v-207q0 -63 14.5 -85.5t55.5 -22.5q6 0 30 3t41 3q41 0 60.5 -16.5t19.5 -51.5q0 -31 -18 -47t-54 -16q-6 0 -86.5 8t-154.5 8q-62 0 -135 -8t-84 -8q-43 0 -60.5 14t-17.5 47q0 35 21 52.5t63 17.5
q11 0 29 -3t26 -3q59 0 78.5 21.5t19.5 101.5v495q0 86 -20.5 115t-77.5 29h-63q-40 0 -58 12.5t-18 40.5q0 32 21.5 49.5t60.5 17.5q5 0 34 -3t54 -3q62 0 127 5q14 1 16 1q39 0 52.5 -16t13.5 -68v-75q72 94 152 135t190 41q208 0 301.5 -102t93.5 -332v-324
q0 -99 19 -120t77 -21q13 0 30 3t24 3q42 0 64 -17.5t22 -52.5q0 -32 -19.5 -46.5t-62.5 -14.5q-11 0 -84.5 8t-135.5 8q-73 0 -153 -8t-86 -8q-35 0 -53.5 16t-18.5 47q0 35 19 51.5t59 16.5q17 0 42 -3t32 -3q42 0 55.5 23.5t13.5 113.5v293zM630 1262q-17 4 -30.5 6
t-22.5 2q-35 0 -53 -10t-33 -37q-3 -6 -7 -15q-11 -26 -32 -26q-15 0 -25 8t-10 20q0 19 15.5 51t46.5 78q24 37 56.5 54.5t76.5 17.5q18 0 34 -2t31 -6l107 -27q11 -3 22.5 -4.5t22.5 -1.5q25 0 43 8t29 23q6 8 13 26q12 31 34 31q14 0 22.5 -9t8.5 -24q0 -17 -18 -57.5
t-44 -75.5q-22 -31 -54.5 -47t-72.5 -16q-14 0 -26.5 1.5t-26.5 4.5z" />
    <glyph glyph-name="ograve" unicode="&#xf2;" horiz-adv-x="1171" 
d="M238 498q0 -190 90.5 -293t257.5 -103q161 0 253.5 105.5t92.5 290.5q0 187 -92 292t-254 105q-163 0 -255.5 -105.5t-92.5 -291.5zM76 498q0 243 137 385.5t371 142.5q237 0 373.5 -141.5t136.5 -386.5q0 -247 -136.5 -389t-375.5 -142q-232 0 -369 144t-137 387z
M764 1251q8 -7 21 -21q57 -56 57 -65t-10.5 -16.5t-24.5 -7.5q-26 0 -103 47q-2 1 -3 2l-190 116q-6 4 -16 10q-97 58 -97 103q0 33 21.5 56.5t51.5 23.5q46 0 125 -80l6 -6z" />
    <glyph glyph-name="oacute" unicode="&#xf3;" horiz-adv-x="1171" 
d="M238 498q0 -190 90.5 -293t257.5 -103q161 0 253.5 105.5t92.5 290.5q0 187 -92 292t-254 105q-163 0 -255.5 -105.5t-92.5 -291.5zM76 498q0 243 137 385.5t371 142.5q237 0 373.5 -141.5t136.5 -386.5q0 -247 -136.5 -389t-375.5 -142q-232 0 -369 144t-137 387z
M480 1245l159 168q48 52 76.5 70t56.5 18q31 0 52.5 -22.5t21.5 -55.5q0 -48 -108 -115l-2 -1l-193 -121l-11 -7q-71 -44 -93 -44q-14 0 -24.5 7.5t-10.5 16.5t33 43z" />
    <glyph glyph-name="ocircumflex" unicode="&#xf4;" horiz-adv-x="1171" 
d="M238 498q0 -190 90.5 -293t257.5 -103q161 0 253.5 105.5t92.5 290.5q0 187 -92 292t-254 105q-163 0 -255.5 -105.5t-92.5 -291.5zM76 498q0 243 137 385.5t371 142.5q237 0 373.5 -141.5t136.5 -386.5q0 -247 -136.5 -389t-375.5 -142q-232 0 -369 144t-137 387z
M428 1192q-4 -5 -11 -12q-44 -50 -85 -50q-13 1 -18.5 5t-6.5 14q0 23 38 76l10 15l123 178q6 9 14 22q29 47 94 47t94 -47q8 -13 14 -22l121 -179q6 -7 15 -20q35 -48 35 -70q-1 -10 -6.5 -14t-18.5 -5q-41 0 -85 50q-7 7 -11 12l-111 113q-15 14 -27 22t-20 8t-20 -8
t-27 -22z" />
    <glyph glyph-name="otilde" unicode="&#xf5;" horiz-adv-x="1171" 
d="M238 498q0 -190 90.5 -293t257.5 -103q161 0 253.5 105.5t92.5 290.5q0 187 -92 292t-254 105q-163 0 -255.5 -105.5t-92.5 -291.5zM76 498q0 243 137 385.5t371 142.5q237 0 373.5 -141.5t136.5 -386.5q0 -247 -136.5 -389t-375.5 -142q-232 0 -369 144t-137 387z
M516 1262q-17 4 -30.5 6t-22.5 2q-35 0 -53 -10t-33 -37q-3 -6 -7 -15q-11 -26 -32 -26q-15 0 -25 8t-10 20q0 19 15.5 51t46.5 78q24 37 56.5 54.5t76.5 17.5q18 0 34 -2t31 -6l107 -27q11 -3 22.5 -4.5t22.5 -1.5q25 0 43 8t29 23q6 8 13 26q12 31 34 31q14 0 22.5 -9
t8.5 -24q0 -17 -18 -57.5t-44 -75.5q-22 -31 -54.5 -47t-72.5 -16q-14 0 -26.5 1.5t-26.5 4.5z" />
    <glyph glyph-name="odieresis" unicode="&#xf6;" horiz-adv-x="1171" 
d="M238 498q0 -190 90.5 -293t257.5 -103q161 0 253.5 105.5t92.5 290.5q0 187 -92 292t-254 105q-163 0 -255.5 -105.5t-92.5 -291.5zM76 498q0 243 137 385.5t371 142.5q237 0 373.5 -141.5t136.5 -386.5q0 -247 -136.5 -389t-375.5 -142q-232 0 -369 144t-137 387z
M666 1303q0 45 33.5 78.5t79.5 33.5t79 -33t33 -79q0 -50 -31.5 -81.5t-80.5 -31.5t-81 32t-32 81zM281 1303q0 45 33.5 78.5t78.5 33.5q47 0 80 -33t33 -79q0 -50 -31.5 -81.5t-81.5 -31.5q-49 0 -80.5 31.5t-31.5 81.5z" />
    <glyph glyph-name="divide" unicode="&#xf7;" horiz-adv-x="1706" 
d="M854 365q47 0 81 -34t34 -81t-33.5 -81t-81.5 -34t-81.5 33.5t-33.5 81.5t34 81.5t81 33.5zM1452 670v-117h-1198v117h1198zM854 1085q48 0 81.5 -33.5t33.5 -80.5q0 -48 -33.5 -81.5t-81.5 -33.5q-49 0 -82 33.5t-33 81.5q0 47 34 80.5t81 33.5z" />
    <glyph glyph-name="oslash" unicode="&#xf8;" horiz-adv-x="1171" 
d="M324 213l446 633q-29 22 -81 35.5t-111 13.5q-159 0 -250.5 -106t-91.5 -289q0 -94 21.5 -164.5t66.5 -122.5zM844 784l-451 -632q35 -26 81.5 -39t105.5 -13q166 0 259 105t93 293q0 92 -22.5 164t-65.5 122zM238 88q-77 68 -119.5 175t-42.5 235q0 243 137 385.5
t371 142.5q79 0 144.5 -15t125.5 -46l82 114q15 23 28 31t31 8t29.5 -12.5t11.5 -32.5q0 -8 -5 -18.5t-17 -28.5l-82 -119q82 -72 123 -178t41 -244q0 -230 -137 -374t-357 -144q-102 0 -172 15.5t-115 48.5l-84 -115q-16 -24 -28 -31.5t-29 -7.5q-18 0 -30.5 13t-12.5 32
q0 8 5 18.5t18 28.5z" />
    <glyph glyph-name="ugrave" unicode="&#xf9;" horiz-adv-x="1356" 
d="M233 737q0 94 -13.5 117t-59.5 23h-78q-45 0 -64.5 14.5t-19.5 48.5q0 30 19 44.5t57 14.5q14 0 65 -4t88 -4q21 0 55.5 4t47.5 4q38 0 48.5 -15t10.5 -91v-19v-421q0 -192 61 -271.5t201 -79.5q160 0 233.5 110t73.5 351v174q0 93 -13 116.5t-56 23.5h-72
q-42 0 -60 14.5t-18 48.5q0 31 17.5 45t54.5 14q16 0 64 -4t79 -4q24 0 56 4t41 4q38 0 48.5 -15t10.5 -91v-19v-544q0 -139 19 -175t77 -36h68q36 0 51.5 -13t15.5 -43q0 -33 -19 -51t-54 -18q-14 0 -50 3t-59 3q-25 0 -66.5 -3t-56.5 -3q-37 0 -51 16t-14 70v76
q-75 -96 -154.5 -136t-189.5 -40q-207 0 -300.5 101.5t-93.5 332.5v323zM823 1251q8 -7 21 -21q57 -56 57 -65t-10.5 -16.5t-24.5 -7.5q-26 0 -103 47q-2 1 -3 2l-190 116q-6 4 -16 10q-97 58 -97 103q0 33 21.5 56.5t51.5 23.5q46 0 125 -80l6 -6z" />
    <glyph glyph-name="uacute" unicode="&#xfa;" horiz-adv-x="1356" 
d="M233 737q0 94 -13.5 117t-59.5 23h-78q-45 0 -64.5 14.5t-19.5 48.5q0 30 19 44.5t57 14.5q14 0 65 -4t88 -4q21 0 55.5 4t47.5 4q38 0 48.5 -15t10.5 -91v-19v-421q0 -192 61 -271.5t201 -79.5q160 0 233.5 110t73.5 351v174q0 93 -13 116.5t-56 23.5h-72
q-42 0 -60 14.5t-18 48.5q0 31 17.5 45t54.5 14q16 0 64 -4t79 -4q24 0 56 4t41 4q38 0 48.5 -15t10.5 -91v-19v-544q0 -139 19 -175t77 -36h68q36 0 51.5 -13t15.5 -43q0 -33 -19 -51t-54 -18q-14 0 -50 3t-59 3q-25 0 -66.5 -3t-56.5 -3q-37 0 -51 16t-14 70v76
q-75 -96 -154.5 -136t-189.5 -40q-207 0 -300.5 101.5t-93.5 332.5v323zM539 1245l159 168q48 52 76.5 70t56.5 18q31 0 52.5 -22.5t21.5 -55.5q0 -48 -108 -115l-2 -1l-193 -121l-11 -7q-71 -44 -93 -44q-14 0 -24.5 7.5t-10.5 16.5t33 43z" />
    <glyph glyph-name="ucircumflex" unicode="&#xfb;" horiz-adv-x="1356" 
d="M233 737q0 94 -13.5 117t-59.5 23h-78q-45 0 -64.5 14.5t-19.5 48.5q0 30 19 44.5t57 14.5q14 0 65 -4t88 -4q21 0 55.5 4t47.5 4q38 0 48.5 -15t10.5 -91v-19v-421q0 -192 61 -271.5t201 -79.5q160 0 233.5 110t73.5 351v174q0 93 -13 116.5t-56 23.5h-72
q-42 0 -60 14.5t-18 48.5q0 31 17.5 45t54.5 14q16 0 64 -4t79 -4q24 0 56 4t41 4q38 0 48.5 -15t10.5 -91v-19v-544q0 -139 19 -175t77 -36h68q36 0 51.5 -13t15.5 -43q0 -33 -19 -51t-54 -18q-14 0 -50 3t-59 3q-25 0 -66.5 -3t-56.5 -3q-37 0 -51 16t-14 70v76
q-75 -96 -154.5 -136t-189.5 -40q-207 0 -300.5 101.5t-93.5 332.5v323zM487 1192q-4 -5 -11 -12q-44 -50 -85 -50q-13 1 -18.5 5t-6.5 14q0 23 38 76l10 15l123 178q6 9 14 22q29 47 94 47t94 -47q8 -13 14 -22l121 -179q6 -7 15 -20q35 -48 35 -70q-1 -10 -6.5 -14
t-18.5 -5q-41 0 -85 50q-7 7 -11 12l-111 113q-15 14 -27 22t-20 8t-20 -8t-27 -22z" />
    <glyph glyph-name="udieresis" unicode="&#xfc;" horiz-adv-x="1356" 
d="M233 737q0 94 -13.5 117t-59.5 23h-78q-45 0 -64.5 14.5t-19.5 48.5q0 30 19 44.5t57 14.5q14 0 65 -4t88 -4q21 0 55.5 4t47.5 4q38 0 48.5 -15t10.5 -91v-19v-421q0 -192 61 -271.5t201 -79.5q160 0 233.5 110t73.5 351v174q0 93 -13 116.5t-56 23.5h-72
q-42 0 -60 14.5t-18 48.5q0 31 17.5 45t54.5 14q16 0 64 -4t79 -4q24 0 56 4t41 4q38 0 48.5 -15t10.5 -91v-19v-544q0 -139 19 -175t77 -36h68q36 0 51.5 -13t15.5 -43q0 -33 -19 -51t-54 -18q-14 0 -50 3t-59 3q-25 0 -66.5 -3t-56.5 -3q-37 0 -51 16t-14 70v76
q-75 -96 -154.5 -136t-189.5 -40q-207 0 -300.5 101.5t-93.5 332.5v323zM725 1303q0 45 33.5 78.5t79.5 33.5t79 -33t33 -79q0 -50 -31.5 -81.5t-80.5 -31.5t-81 32t-32 81zM340 1303q0 45 33.5 78.5t78.5 33.5q47 0 80 -33t33 -79q0 -50 -31.5 -81.5t-81.5 -31.5
q-49 0 -80.5 31.5t-31.5 81.5z" />
    <glyph glyph-name="yacute" unicode="&#xfd;" horiz-adv-x="1124" 
d="M672 47q-84 -225 -202.5 -333.5t-279.5 -108.5q-120 0 -194 60t-74 159q0 61 35.5 99t91.5 38q44 0 72.5 -25.5t28.5 -64.5q0 -44 -45 -85q-11 -11 -11 -13q0 -15 28.5 -27t70.5 -12q57 0 105 21.5t83 62.5q48 55 72 103.5t24 88.5q0 10 -1.5 19t-4.5 18l-268 721
q-3 7 -8 20q-33 91 -97 91q-3 0 -27 -3.5t-44 -3.5q-38 0 -60 17t-22 45q0 31 25 49t69 18q15 0 95.5 -10t146.5 -10q49 0 108.5 10t69.5 10q29 0 46 -17t17 -46q0 -34 -16 -50t-49 -16q-10 0 -33 3.5t-37 3.5q-16 0 -28.5 -15t-12.5 -35q0 -7 2.5 -17.5t5.5 -18.5l221 -609
l216 609q4 10 6 19.5t2 16.5q0 22 -12.5 36t-32.5 14q-12 0 -34 -3.5t-32 -3.5q-34 0 -49.5 16t-15.5 50q0 29 17 46t46 17q10 0 68.5 -10t109.5 -10q62 0 136.5 10t86.5 10q38 0 61 -18t23 -47t-20 -46.5t-55 -17.5q-13 0 -31 3.5t-25 3.5q-61 0 -100 -105l-2 -6zM457 1245
l159 168q48 52 76.5 70t56.5 18q31 0 52.5 -22.5t21.5 -55.5q0 -48 -108 -115l-2 -1l-193 -121l-11 -7q-71 -44 -93 -44q-14 0 -24.5 7.5t-10.5 16.5t33 43z" />
    <glyph glyph-name="thorn" unicode="&#xfe;" horiz-adv-x="1241" 
d="M391 569v-176q0 -139 75.5 -215t213.5 -76q148 0 232.5 106t84.5 292q0 182 -85.5 288.5t-229.5 106.5q-131 0 -211 -89t-80 -237zM238 -113v1180q0 121 -21 150.5t-80 29.5h-69q-37 0 -51.5 12t-14.5 41q0 35 18 51.5t56 16.5q3 0 34.5 -3t59.5 -3q71 0 145 5q15 1 19 1
q38 0 52.5 -18t14.5 -66v-416q50 84 126 124t186 40q202 0 327 -146.5t125 -383.5q0 -244 -129 -389.5t-344 -145.5q-89 0 -161.5 29t-129.5 88v-197q0 -90 15.5 -114.5t66.5 -24.5q6 0 33.5 3t48.5 3q45 0 66.5 -17t21.5 -52q0 -31 -20.5 -47.5t-59.5 -16.5q-4 0 -95 8.5
t-177 8.5q-63 0 -132 -8.5t-75 -8.5q-38 0 -54.5 13.5t-16.5 46.5q0 35 19.5 54t55.5 19q11 0 28 -3t24 -3q53 0 70.5 22t17.5 117z" />
    <glyph glyph-name="ydieresis" unicode="&#xff;" horiz-adv-x="1124" 
d="M672 47q-84 -225 -202.5 -333.5t-279.5 -108.5q-120 0 -194 60t-74 159q0 61 35.5 99t91.5 38q44 0 72.5 -25.5t28.5 -64.5q0 -44 -45 -85q-11 -11 -11 -13q0 -15 28.5 -27t70.5 -12q57 0 105 21.5t83 62.5q48 55 72 103.5t24 88.5q0 10 -1.5 19t-4.5 18l-268 721
q-3 7 -8 20q-33 91 -97 91q-3 0 -27 -3.5t-44 -3.5q-38 0 -60 17t-22 45q0 31 25 49t69 18q15 0 95.5 -10t146.5 -10q49 0 108.5 10t69.5 10q29 0 46 -17t17 -46q0 -34 -16 -50t-49 -16q-10 0 -33 3.5t-37 3.5q-16 0 -28.5 -15t-12.5 -35q0 -7 2.5 -17.5t5.5 -18.5l221 -609
l216 609q4 10 6 19.5t2 16.5q0 22 -12.5 36t-32.5 14q-12 0 -34 -3.5t-32 -3.5q-34 0 -49.5 16t-15.5 50q0 29 17 46t46 17q10 0 68.5 -10t109.5 -10q62 0 136.5 10t86.5 10q38 0 61 -18t23 -47t-20 -46.5t-55 -17.5q-13 0 -31 3.5t-25 3.5q-61 0 -100 -105l-2 -6zM643 1303
q0 45 33.5 78.5t79.5 33.5t79 -33t33 -79q0 -50 -31.5 -81.5t-80.5 -31.5t-81 32t-32 81zM258 1303q0 45 33.5 78.5t78.5 33.5q47 0 80 -33t33 -79q0 -50 -31.5 -81.5t-81.5 -31.5q-49 0 -80.5 31.5t-31.5 81.5z" />
    <glyph glyph-name="Cacute" unicode="&#x106;" horiz-adv-x="1319" 
d="M1067 1239v43q0 58 14 79t49 21t51.5 -16.5t16.5 -50.5q0 -7 -2 -33q-12 -137 -12 -268q0 -29 7 -79t7 -73q0 -50 -16 -70t-56 -20q-39 0 -56 25.5t-17 85.5v49q0 143 -94.5 235.5t-241.5 92.5q-201 0 -319.5 -153.5t-118.5 -414.5q0 -273 114.5 -425t319.5 -152
q131 0 219 56t131 169q14 36 22.5 96t12.5 77q5 20 23.5 33t43.5 13q38 0 59 -26.5t21 -75.5q0 -223 -144.5 -354.5t-389.5 -131.5q-291 0 -458 190.5t-167 520.5q0 326 165 519.5t441 193.5q118 0 215.5 -40.5t159.5 -115.5zM588 1612l159 168q48 52 76.5 70t56.5 18
q31 0 52.5 -22.5t21.5 -55.5q0 -48 -108 -115l-2 -1l-193 -121l-11 -7q-71 -44 -93 -44q-14 0 -24.5 7.5t-10.5 16.5t33 43z" />
    <glyph glyph-name="cacute" unicode="&#x107;" horiz-adv-x="1018" 
d="M76 498q0 248 128 390t351 142q180 0 290.5 -83.5t110.5 -217.5q0 -78 -44.5 -124t-120.5 -46q-52 0 -80.5 23.5t-28.5 66.5q0 29 15 53t42 39q5 3 15 6q22 9 22 27q0 48 -61 86.5t-146 38.5q-158 0 -245.5 -109.5t-87.5 -308.5q0 -174 84.5 -279.5t222.5 -105.5
q93 0 154 38.5t100 122.5q9 19 23 60q34 95 85 95q32 0 53 -20.5t21 -51.5q0 -46 -24.5 -108.5t-63.5 -112.5q-60 -75 -149 -113.5t-205 -38.5q-213 0 -337 143t-124 388zM435 1245l159 168q48 52 76.5 70t56.5 18q31 0 52.5 -22.5t21.5 -55.5q0 -48 -108 -115l-2 -1
l-193 -121l-11 -7q-71 -44 -93 -44q-14 0 -24.5 7.5t-10.5 16.5t33 43z" />
    <glyph glyph-name="Ccaron" unicode="&#x10c;" horiz-adv-x="1319" 
d="M1067 1239v43q0 58 14 79t49 21t51.5 -16.5t16.5 -50.5q0 -7 -2 -33q-12 -137 -12 -268q0 -29 7 -79t7 -73q0 -50 -16 -70t-56 -20q-39 0 -56 25.5t-17 85.5v49q0 143 -94.5 235.5t-241.5 92.5q-201 0 -319.5 -153.5t-118.5 -414.5q0 -273 114.5 -425t319.5 -152
q131 0 219 56t131 169q14 36 22.5 96t12.5 77q5 20 23.5 33t43.5 13q38 0 59 -26.5t21 -75.5q0 -223 -144.5 -354.5t-389.5 -131.5q-291 0 -458 190.5t-167 520.5q0 326 165 519.5t441 193.5q118 0 215.5 -40.5t159.5 -115.5zM536 1797l111 -113q15 -15 27 -23t20 -8t20 8
t27 23l111 113q3 3 11 12q44 49 85 49q12 0 18.5 -5.5t6.5 -15.5q0 -20 -32 -63q-11 -15 -18 -25l-120 -179q-6 -9 -15 -24q-29 -46 -94 -46t-94 46q-9 15 -15 24l-122 179q-5 7 -14 19q-34 47 -34 69q0 10 6.5 15.5t18.5 5.5q41 0 85 -49q8 -9 11 -12z" />
    <glyph glyph-name="ccaron" unicode="&#x10d;" horiz-adv-x="1018" 
d="M76 498q0 248 128 390t351 142q180 0 290.5 -83.5t110.5 -217.5q0 -78 -44.5 -124t-120.5 -46q-52 0 -80.5 23.5t-28.5 66.5q0 29 15 53t42 39q5 3 15 6q22 9 22 27q0 48 -61 86.5t-146 38.5q-158 0 -245.5 -109.5t-87.5 -308.5q0 -174 84.5 -279.5t222.5 -105.5
q93 0 154 38.5t100 122.5q9 19 23 60q34 95 85 95q32 0 53 -20.5t21 -51.5q0 -46 -24.5 -108.5t-63.5 -112.5q-60 -75 -149 -113.5t-205 -38.5q-213 0 -337 143t-124 388zM383 1430l111 -113q15 -15 27 -23t20 -8t20 8t27 23l111 113q3 3 11 12q44 49 85 49q12 0 18.5 -5.5
t6.5 -15.5q0 -20 -32 -63q-11 -15 -18 -25l-120 -179q-6 -9 -15 -24q-29 -46 -94 -46t-94 46q-9 15 -15 24l-122 179q-5 7 -14 19q-34 47 -34 69q0 10 6.5 15.5t18.5 5.5q41 0 85 -49q8 -9 11 -12z" />
    <glyph glyph-name="dcroat" unicode="&#x111;" horiz-adv-x="1251" 
d="M846 807v254h-291q-23 0 -34 10.5t-11 32.5q0 20 12.5 31.5t34.5 11.5h288q-2 56 -28.5 79t-89.5 23h-63q-40 0 -58 13.5t-18 42.5q0 31 21 48t61 17q2 0 34 -3t62 -3q68 0 141 5q16 1 21 1q42 0 57.5 -16t15.5 -68v-139h195q23 0 34 -10.5t11 -32.5q0 -21 -12.5 -32
t-34.5 -11h-193v-809q0 -97 19.5 -118t77.5 -21h53q44 0 65 -16.5t21 -49.5q0 -32 -19.5 -46.5t-62.5 -14.5q-13 0 -58.5 7t-78.5 7q-22 0 -64.5 -7t-62.5 -7q-26 0 -35.5 12t-9.5 68v18q-58 -55 -135.5 -84t-165.5 -29q-210 0 -337.5 132.5t-127.5 351.5q0 232 123.5 375
t324.5 143q107 0 183 -39.5t135 -126.5zM846 422v70q0 161 -77.5 252.5t-211.5 91.5q-138 0 -225.5 -101.5t-87.5 -263.5q0 -171 87 -270t238 -99q144 0 210.5 76.5t66.5 243.5z" />
    <glyph glyph-name="Gbreve" unicode="&#x11e;" horiz-adv-x="1509" 
d="M1151 174q-67 -99 -179 -151t-261 -52q-291 0 -458 190.5t-167 520.5q0 333 170 524t465 191q136 0 235.5 -39.5t169.5 -120.5v66q0 42 14.5 60.5t47.5 18.5q35 0 51 -18.5t16 -58.5q0 -6 -1 -28q-7 -106 -7 -208q0 -75 7 -156q1 -19 1 -24q0 -40 -17 -59t-54 -19
q-30 0 -45.5 13.5t-26.5 51.5q-2 9 -4.5 62.5t-13.5 93.5q-36 114 -127.5 174t-231.5 60q-212 0 -334 -153.5t-122 -420.5q0 -274 114 -425.5t320 -151.5q189 0 290 95t101 273q0 58 -26 84.5t-83 26.5q-32 0 -75.5 -4t-55.5 -4q-45 0 -65.5 17t-20.5 56q0 34 24.5 50
t74.5 16q23 0 126 -7t185 -7q69 0 145 7t82 7q42 0 64 -17t22 -49q0 -34 -18 -53.5t-49 -19.5q-13 0 -31.5 4t-24.5 4q-59 0 -81.5 -39t-22.5 -158q0 -100 12 -207t12 -114q0 -35 -21 -58.5t-52 -23.5q-40 0 -59 18t-19 56q0 22 1 49t3 57zM756 1688q69 0 114.5 12t71.5 37
q15 14 34.5 50t37.5 36q15 0 25 -12.5t10 -32.5q0 -87 -87.5 -161t-205.5 -74t-205.5 74t-87.5 161q0 20 10 32.5t25 12.5q19 0 37 -35q9 -17 14 -24q28 -41 75.5 -58.5t131.5 -17.5z" />
    <glyph glyph-name="gbreve" unicode="&#x11f;" horiz-adv-x="1081" 
d="M362 696q0 -83 60.5 -136.5t155.5 -53.5q94 0 154.5 53.5t60.5 136.5q0 84 -60.5 137.5t-154.5 53.5q-95 0 -155.5 -54t-60.5 -137zM233 -47q0 -81 89 -127.5t245 -46.5q152 0 243 48t91 126q0 80 -90 128t-244 48q-150 0 -242 -49t-92 -127zM797 963q71 -44 108 -111.5
t37 -153.5q0 -150 -101 -235.5t-278 -85.5q-106 0 -215 47q-28 12 -35 12q-26 0 -45.5 -23.5t-19.5 -56.5q0 -52 43 -81t121 -29q23 0 82 2t94 2q227 0 347 -78.5t120 -226.5q0 -139 -133 -223t-355 -84q-227 0 -358 82.5t-131 224.5q0 71 45 133.5t121 93.5
q-72 29 -108 74.5t-36 107.5q0 68 40 117.5t112 71.5q-21 39 -31 78t-10 77q0 146 99.5 231t271.5 85q24 0 48.5 -2t49.5 -6v6q0 79 63 131.5t158 52.5q92 0 150.5 -51t58.5 -131q0 -49 -25.5 -77t-70.5 -28q-39 0 -60.5 19.5t-21.5 54.5q0 21 15.5 42.5t15.5 23.5
q0 12 -21 23t-49 11q-44 0 -71 -28t-27 -74q0 -3 1 -9t1 -9zM541 1321q69 0 114.5 12t71.5 37q15 14 34.5 50t37.5 36q15 0 25 -12.5t10 -32.5q0 -87 -87.5 -161t-205.5 -74t-205.5 74t-87.5 161q0 20 10 32.5t25 12.5q19 0 37 -35q9 -17 14 -24q28 -41 75.5 -58.5
t131.5 -17.5z" />
    <glyph glyph-name="Idotaccent" unicode="&#x130;" horiz-adv-x="901" 
d="M358 1124q0 61 -25 90t-77 29q-28 0 -68.5 -6t-52.5 -6q-34 0 -55 20t-21 54q0 39 21.5 58t64.5 19q5 0 108 -9t202 -9q94 0 194 9t107 9q43 0 64.5 -19t21.5 -58q0 -33 -21.5 -53.5t-56.5 -20.5q-12 0 -52.5 6t-68.5 6q-51 0 -75.5 -29t-24.5 -90v-876q0 -62 24.5 -91.5
t75.5 -29.5q28 0 68.5 7t52.5 7q35 0 56.5 -20.5t21.5 -52.5q0 -40 -21.5 -59t-64.5 -19q-4 0 -104.5 9t-196.5 9q-104 0 -206.5 -9t-103.5 -9q-43 0 -64.5 19t-21.5 59q0 33 21 53t55 20q12 0 52.5 -7t68.5 -7q51 0 76.5 30t25.5 91v876zM328 1667q0 50 37 87.5t86 37.5
q51 0 88 -37t37 -88q0 -53 -35.5 -87.5t-89.5 -34.5t-88.5 34.5t-34.5 87.5z" />
    <glyph glyph-name="dotlessi" unicode="&#x131;" horiz-adv-x="680" 
d="M276 256v408q0 141 -20 175.5t-82 34.5h-74q-37 0 -51 13t-14 45q0 27 20.5 46t50.5 19q6 0 45.5 -3t73.5 -3q57 0 119 5q15 1 18 1q42 0 56 -15t14 -69v-657q0 -91 18 -116t78 -25q13 0 30 2t24 2q43 0 64.5 -17t21.5 -51q0 -33 -18.5 -47t-61.5 -14q-12 0 -84 8t-131 8
q-111 0 -225 -13q-25 -3 -31 -3q-44 0 -63 14.5t-19 46.5q0 34 21.5 51t64.5 17q10 0 29 -2t28 -2q61 0 79.5 24t18.5 117z" />
    <glyph glyph-name="Lslash" unicode="&#x141;" horiz-adv-x="1251" 
d="M350 248v348l-264 -164q-17 -10 -23.5 -13t-11.5 -3q-19 0 -36 20.5t-17 42.5q0 11 6 19t29 22l317 193v411q0 59 -24.5 87t-77.5 28q-29 0 -69.5 -4t-51.5 -4q-35 0 -56.5 20.5t-21.5 53.5q0 39 21.5 58t64.5 19q16 0 108 -9t167 -9q68 0 167.5 9t131.5 9
q55 0 85.5 -19.5t30.5 -53.5t-21.5 -56t-53.5 -22q-18 0 -54 4t-53 4q-64 0 -88.5 -23.5t-24.5 -91.5v-321l263 164q10 6 20 10t16 4q19 0 35.5 -19.5t16.5 -41.5q0 -12 -6 -20t-27 -21l-318 -195v-410q0 -91 23 -117t90 -26h238q119 0 159.5 37.5t40.5 144.5q0 37 -6 93
t-6 75q0 38 23.5 64t56.5 26q32 0 51 -23.5t19 -62.5q0 -14 -6.5 -89t-6.5 -136q0 -31 6.5 -87t6.5 -81q0 -48 -27 -75t-76 -27q-3 0 -18 1q-94 9 -193 9h-493q-123 0 -247 -9q-23 -1 -28 -1q-46 0 -67 18.5t-21 59.5q0 32 21.5 52.5t56.5 20.5q15 0 52 -5t59 -5q58 0 85 28
t27 89z" />
    <glyph glyph-name="lslash" unicode="&#x142;" horiz-adv-x="690" 
d="M285 256v336l-202 -140q-12 -9 -21 -13.5t-15 -4.5q-19 0 -32 14t-13 33q0 12 7 21t28 22l248 170v373q0 121 -21 150.5t-80 29.5q-20 0 -44.5 -2t-28.5 -2q-36 0 -51 14t-15 48q0 31 19 47t55 16q1 0 33 -3t61 -3q70 0 142 5q14 1 18 1q40 0 54.5 -15.5t14.5 -68.5v-500
l203 138q14 10 22 14t13 4q19 0 32 -13t13 -32q0 -12 -7 -21.5t-26 -21.5l-250 -170v-426q0 -93 18.5 -117t78.5 -24q12 0 29.5 2t23.5 2q43 0 64.5 -17t21.5 -51q0 -33 -18.5 -47t-61.5 -14q-12 0 -84 8t-131 8q-111 0 -227 -13q-25 -3 -31 -3q-43 0 -61.5 14t-18.5 47
q0 34 21.5 51t64.5 17q11 0 28.5 -2t26.5 -2q62 0 80.5 24t18.5 117z" />
    <glyph glyph-name="OE" unicode="&#x152;" horiz-adv-x="2048" 
d="M1061 0q-53 0 -174 -10t-191 -10q-290 0 -453 186.5t-163 519.5q0 321 168.5 513t449.5 192q62 0 198 -12.5t210 -12.5h508q107 0 202 5q13 1 15 1q45 0 70.5 -26t25.5 -72q0 -25 -6 -81t-6 -87q0 -61 6 -136t6 -89q0 -39 -19 -62.5t-50 -23.5q-33 0 -56.5 26t-23.5 64
q0 18 6 74.5t6 93.5q0 103 -38.5 139.5t-162.5 36.5h-305q-69 0 -91 -24.5t-22 -112.5v-230q0 -46 15.5 -61t54.5 -15q176 0 209 25t33 111q0 22 -3 57.5t-3 48.5q0 31 19 50.5t48 19.5q31 0 47.5 -31.5t16.5 -91.5q0 -22 -7.5 -102.5t-7.5 -137.5q0 -58 7.5 -138.5
t7.5 -102.5q0 -61 -17 -91t-51 -30q-28 0 -45.5 22t-17.5 58q0 2 3 16t3 31q0 105 -15.5 139.5t-52.5 34.5q-4 0 -21 1q-88 7 -169 7q-29 0 -41.5 -15.5t-12.5 -58.5v-334q0 -92 23.5 -115.5t89.5 -23.5h330q119 0 160 36.5t41 141.5q0 37 -6.5 93t-6.5 75q0 38 24.5 64
t57.5 26q31 0 49.5 -23t18.5 -63q0 -14 -6.5 -89t-6.5 -136q0 -31 6.5 -87t6.5 -81q0 -46 -26 -73t-71 -27q-2 0 -15 1q-94 7 -202 7h-577zM997 293v651q0 171 -68 243.5t-227 72.5q-201 0 -314.5 -153.5t-113.5 -424.5q0 -287 116.5 -431.5t348.5 -144.5q128 0 193 47.5
t65 139.5z" />
    <glyph glyph-name="oe" unicode="&#x153;" horiz-adv-x="1896" 
d="M238 498q0 -190 91.5 -294t258.5 -104q160 0 252 106.5t92 291.5q0 187 -91 292t-253 105q-163 0 -256.5 -106t-93.5 -291zM1006 823q61 100 160 152.5t227 52.5q198 0 318 -123t120 -327q0 -62 -21 -81.5t-84 -19.5h-639v-6q0 -169 84 -270t222 -101q95 0 159 41
t103 125l18 42q37 87 78 87q35 0 53.5 -18.5t18.5 -52.5q0 -47 -21.5 -98t-62.5 -101q-64 -81 -151 -119.5t-206 -38.5q-130 0 -224 51t-152 154q-66 -104 -171 -154.5t-253 -50.5q-233 0 -369.5 143.5t-136.5 387.5t137.5 387t372.5 143q142 0 244 -50t176 -155zM1663 610
v13q0 122 -76.5 197t-200.5 75q-120 0 -197.5 -76t-90.5 -209h565z" />
    <glyph glyph-name="Scedilla" unicode="&#x15e;" horiz-adv-x="1128" 
d="M238 94q2 -17 3 -26t1 -15q0 -42 -18 -62t-58 -20q-32 0 -53 23.5t-21 60.5q0 22 7 90t7 115q0 81 -7 163t-7 83q0 49 20 75.5t56 26.5q39 0 58.5 -28.5t19.5 -87.5v-66q0 -138 94.5 -222.5t249.5 -84.5q144 0 225.5 69t81.5 191q0 101 -53.5 150.5t-276.5 97.5
q-6 1 -16 3q-232 48 -297 93q-71 49 -107 118.5t-36 155.5q0 178 120 288t314 110q91 0 170.5 -27t142.5 -80v10q0 35 16.5 55.5t45.5 20.5q30 0 50.5 -16t20.5 -39q0 -1 -5 -51t-5 -99q0 -119 9 -239q1 -22 1 -27q0 -47 -16 -67.5t-53 -20.5q-26 0 -45.5 13.5t-24.5 33.5
q-8 30 -8 97t-6 104q-13 86 -94.5 138t-204.5 52q-118 0 -185 -61.5t-67 -169.5q0 -95 60.5 -145.5t260.5 -94.5q19 -4 56 -12q220 -46 284 -98q59 -47 88 -113.5t29 -155.5q0 -199 -126 -315.5t-343 -116.5q-110 0 -196.5 30t-161.5 93zM533 0h65v-92q0 -7 4.5 -13t9.5 -6
q10 0 24.5 1t18.5 1q89 0 140 -44.5t51 -122.5q0 -83 -60.5 -130t-167.5 -47q-128 0 -220.5 34t-92.5 77q0 25 16.5 41t42.5 16q15 0 90.5 -41t145.5 -41q47 0 76.5 25t29.5 63q0 40 -26.5 64.5t-71.5 24.5q-19 0 -42.5 -4.5t-27.5 -4.5q-10 1 -18 8.5t-8 16.5q0 3 3 16
q16 76 18 158z" />
    <glyph glyph-name="scedilla" unicode="&#x15f;" horiz-adv-x="1008" 
d="M227 74v-27q0 -40 -17 -61t-50 -21q-34 0 -49 18.5t-15 59.5q0 36 6.5 90t6.5 72q0 42 -6.5 93.5t-6.5 61.5q0 30 20.5 52t49.5 22q33 0 47 -22.5t14 -77.5v-29q0 -95 85 -152t229 -57q110 0 170.5 47t60.5 131q0 34 -19 64t-55 51q-25 15 -123.5 27t-156.5 24
q-152 32 -220.5 101t-68.5 188q0 135 100 215t271 80q81 0 148.5 -22.5t119.5 -67.5q-1 5 -1.5 10.5t-0.5 16.5q0 29 14 46t39 17q22 0 37.5 -19t15.5 -44q0 -3 -1 -15q-11 -98 -11 -217v-57q0 -35 -14.5 -51.5t-44.5 -16.5q-31 0 -43.5 16.5t-12.5 59.5v27
q0 89 -65.5 140.5t-179.5 51.5q-106 0 -166 -44t-60 -122q0 -32 11.5 -57t33.5 -41q49 -39 194 -53q61 -5 96 -11q165 -25 240 -89.5t75 -182.5q0 -149 -108 -241.5t-284 -92.5q-97 0 -176.5 28.5t-128.5 80.5zM472 0h65v-92q0 -7 4.5 -13t9.5 -6q10 0 24.5 1t18.5 1
q89 0 140 -44.5t51 -122.5q0 -83 -60.5 -130t-167.5 -47q-128 0 -220.5 34t-92.5 77q0 25 16.5 41t42.5 16q15 0 90.5 -41t145.5 -41q47 0 76.5 25t29.5 63q0 40 -26.5 64.5t-71.5 24.5q-19 0 -42.5 -4.5t-27.5 -4.5q-10 1 -18 8.5t-8 16.5q0 3 3 16q16 76 18 158z" />
    <glyph glyph-name="Scaron" unicode="&#x160;" horiz-adv-x="1128" 
d="M238 94q2 -17 3 -26t1 -15q0 -42 -18 -62t-58 -20q-32 0 -53 23.5t-21 60.5q0 22 7 90t7 115q0 81 -7 163t-7 83q0 49 20 75.5t56 26.5q39 0 58.5 -28.5t19.5 -87.5v-66q0 -138 94.5 -222.5t249.5 -84.5q144 0 225.5 69t81.5 191q0 101 -53.5 150.5t-276.5 97.5
q-6 1 -16 3q-232 48 -297 93q-71 49 -107 118.5t-36 155.5q0 178 120 288t314 110q91 0 170.5 -27t142.5 -80v10q0 35 16.5 55.5t45.5 20.5q30 0 50.5 -16t20.5 -39q0 -1 -5 -51t-5 -99q0 -119 9 -239q1 -22 1 -27q0 -47 -16 -67.5t-53 -20.5q-26 0 -45.5 13.5t-24.5 33.5
q-8 30 -8 97t-6 104q-13 86 -94.5 138t-204.5 52q-118 0 -185 -61.5t-67 -169.5q0 -95 60.5 -145.5t260.5 -94.5q19 -4 56 -12q220 -46 284 -98q59 -47 88 -113.5t29 -155.5q0 -199 -126 -315.5t-343 -116.5q-110 0 -196.5 30t-161.5 93zM407 1797l111 -113q15 -15 27 -23
t20 -8t20 8t27 23l111 113q3 3 11 12q44 49 85 49q12 0 18.5 -5.5t6.5 -15.5q0 -20 -32 -63q-11 -15 -18 -25l-120 -179q-6 -9 -15 -24q-29 -46 -94 -46t-94 46q-9 15 -15 24l-122 179q-5 7 -14 19q-34 47 -34 69q0 10 6.5 15.5t18.5 5.5q41 0 85 -49q8 -9 11 -12z" />
    <glyph glyph-name="scaron" unicode="&#x161;" horiz-adv-x="1008" 
d="M227 74v-27q0 -40 -17 -61t-50 -21q-34 0 -49 18.5t-15 59.5q0 36 6.5 90t6.5 72q0 42 -6.5 93.5t-6.5 61.5q0 30 20.5 52t49.5 22q33 0 47 -22.5t14 -77.5v-29q0 -95 85 -152t229 -57q110 0 170.5 47t60.5 131q0 34 -19 64t-55 51q-25 15 -123.5 27t-156.5 24
q-152 32 -220.5 101t-68.5 188q0 135 100 215t271 80q81 0 148.5 -22.5t119.5 -67.5q-1 5 -1.5 10.5t-0.5 16.5q0 29 14 46t39 17q22 0 37.5 -19t15.5 -44q0 -3 -1 -15q-11 -98 -11 -217v-57q0 -35 -14.5 -51.5t-44.5 -16.5q-31 0 -43.5 16.5t-12.5 59.5v27
q0 89 -65.5 140.5t-179.5 51.5q-106 0 -166 -44t-60 -122q0 -32 11.5 -57t33.5 -41q49 -39 194 -53q61 -5 96 -11q165 -25 240 -89.5t75 -182.5q0 -149 -108 -241.5t-284 -92.5q-97 0 -176.5 28.5t-128.5 80.5zM346 1430l111 -113q15 -15 27 -23t20 -8t20 8t27 23l111 113
q3 3 11 12q44 49 85 49q12 0 18.5 -5.5t6.5 -15.5q0 -20 -32 -63q-11 -15 -18 -25l-120 -179q-6 -9 -15 -24q-29 -46 -94 -46t-94 46q-9 15 -15 24l-122 179q-5 7 -14 19q-34 47 -34 69q0 10 6.5 15.5t18.5 5.5q41 0 85 -49q8 -9 11 -12z" />
    <glyph glyph-name="Ydieresis" unicode="&#x178;" horiz-adv-x="1503" 
d="M838 246q0 -61 25 -90t77 -29q28 0 68.5 6t52.5 6q35 0 56.5 -19.5t21.5 -51.5q0 -40 -21.5 -60t-64.5 -20q-4 0 -105.5 10t-199.5 10q-93 0 -192 -10t-105 -10q-43 0 -64.5 20t-21.5 60q0 32 21 51.5t56 19.5q12 0 52.5 -6t68.5 -6q52 0 76.5 29t24.5 90v274l-398 617
q-38 61 -69.5 80.5t-77.5 19.5l-29.5 -4t-58.5 -4q-27 0 -48.5 23t-21.5 53q0 31 26.5 53t63.5 22q7 0 115.5 -10t210.5 -10t199 18q15 2 18 2q46 0 70 -20.5t24 -59.5q0 -32 -21.5 -51.5t-56.5 -19.5q-12 0 -44 4t-52 4q-39 0 -56.5 -10t-17.5 -33q0 -17 17 -44l6 -9
l289 -479l286 478q3 5 9 14q16 25 16 40q0 23 -17.5 33t-56.5 10q-20 0 -52 -4t-44 -4q-35 0 -56.5 19.5t-21.5 51.5q0 37 23 58.5t63 21.5q1 0 4 -1t6 -1q4 0 18 -2q95 -16 197 -16t209.5 10t114.5 10q38 0 65 -22t27 -53q0 -30 -21.5 -53t-47.5 -23q-30 0 -59 4t-30 4
q-46 0 -77.5 -19.5t-69.5 -80.5l-399 -617v-274zM832 1670q0 45 33.5 78.5t79.5 33.5t79 -33t33 -79q0 -50 -31.5 -81.5t-80.5 -31.5t-81 32t-32 81zM447 1670q0 45 33.5 78.5t78.5 33.5q47 0 80 -33t33 -79q0 -50 -31.5 -81.5t-81.5 -31.5q-49 0 -80.5 31.5t-31.5 81.5z
" />
    <glyph glyph-name="Zcaron" unicode="&#x17d;" horiz-adv-x="1241" 
d="M815 135q120 0 160.5 36.5t40.5 141.5q0 37 -6 93t-6 75q0 38 24 64t57 26q32 0 50 -23t18 -63q0 -14 -6 -89t-6 -136q0 -31 6 -87t6 -81q0 -49 -27 -74.5t-79 -25.5q-5 0 -21 1q-94 7 -186 7h-402q-78 0 -158 -4t-81 -4q-66 0 -95.5 28t-29.5 89q0 34 15 67.5t48 73.5
l803 979h-471q-121 0 -161 -35.5t-40 -140.5q0 -37 6.5 -93t6.5 -75q0 -38 -24.5 -64t-57.5 -26q-32 0 -51 23.5t-19 62.5q0 14 7 89t7 136q0 31 -7 87t-7 81q0 45 26.5 71.5t71.5 26.5q3 0 16 -1q94 -5 201 -5h351q108 0 216 2h21q66 0 97.5 -24t31.5 -74q0 -46 -72 -133
q-9 -11 -14 -17l-803 -985h543zM463 1797l111 -113q15 -15 27 -23t20 -8t20 8t27 23l111 113q3 3 11 12q44 49 85 49q12 0 18.5 -5.5t6.5 -15.5q0 -20 -32 -63q-11 -15 -18 -25l-120 -179q-6 -9 -15 -24q-29 -46 -94 -46t-94 46q-9 15 -15 24l-122 179q-5 7 -14 19
q-34 47 -34 69q0 10 6.5 15.5t18.5 5.5q41 0 85 -49q8 -9 11 -12z" />
    <glyph glyph-name="zcaron" unicode="&#x17e;" horiz-adv-x="1022" 
d="M369 862q-81 0 -108.5 -17.5t-27.5 -68.5q0 -18 3.5 -45.5t3.5 -36.5q0 -38 -17.5 -58t-50.5 -20q-30 0 -45.5 20t-15.5 58q0 20 2 59t2 58v61q0 78 17.5 100.5t72.5 22.5q18 0 56.5 -3t57.5 -3h41h357q13 0 47 3t55 3q62 0 91.5 -22t29.5 -68q0 -23 -12 -46t-43 -56
l-635 -658h440q78 0 107.5 22t29.5 77q0 30 -3 70.5t-3 50.5q0 44 17 68t49 24q33 0 47 -22t14 -73q0 -11 -2 -76t-2 -118v-96q0 -42 -24.5 -60t-83.5 -18q-1 0 -27.5 3t-54.5 3h-547q-73 0 -107 23.5t-34 72.5q0 31 11.5 58t35.5 51l630 657h-374zM354 1430l111 -113
q15 -15 27 -23t20 -8t20 8t27 23l111 113q3 3 11 12q44 49 85 49q12 0 18.5 -5.5t6.5 -15.5q0 -20 -32 -63q-11 -15 -18 -25l-120 -179q-6 -9 -15 -24q-29 -46 -94 -46t-94 46q-9 15 -15 24l-122 179q-5 7 -14 19q-34 47 -34 69q0 10 6.5 15.5t18.5 5.5q41 0 85 -49
q8 -9 11 -12z" />
    <glyph glyph-name="florin" unicode="&#x192;" horiz-adv-x="1290" 
d="M590 856q31 271 121.5 395.5t255.5 124.5q113 0 181.5 -52.5t68.5 -137.5q0 -42 -27.5 -69t-69.5 -27q-35 0 -60.5 23.5t-25.5 53.5q0 8 4 21t4 20q0 26 -21 39t-63 13q-86 0 -136 -98t-70 -306q49 0 108.5 10.5t69.5 10.5q47 0 67.5 -17.5t20.5 -56.5q0 -32 -23 -50
t-65 -18q-17 0 -71.5 8.5t-94.5 8.5h-27l-32 -293q-3 -19 -7 -56q-49 -415 -100 -546q-38 -101 -119 -158t-186 -57q-103 0 -174.5 56.5t-71.5 133.5q0 52 28.5 82.5t78.5 30.5q36 0 63 -28t27 -67q0 -17 -8.5 -37t-8.5 -24q0 -11 20 -19t50 -8q161 0 210 433l3 26l59 531
h-18q-46 0 -108 -8.5t-78 -8.5q-25 0 -43.5 22t-18.5 50q0 32 24 51t64 19q20 0 75 -10.5t93 -10.5h31z" />
    <glyph glyph-name="circumflex" unicode="&#x2c6;" 
d="M354 1192q-4 -5 -11 -12q-44 -50 -85 -50q-13 1 -18.5 5t-6.5 14q0 23 38 76l10 15l123 178q6 9 14 22q29 47 94 47t94 -47q8 -13 14 -22l121 -179q6 -7 15 -20q35 -48 35 -70q-1 -10 -6.5 -14t-18.5 -5q-41 0 -85 50q-7 7 -11 12l-111 113q-15 14 -27 22t-20 8t-20 -8
t-27 -22z" />
    <glyph glyph-name="caron" unicode="&#x2c7;" 
d="M354 1430l111 -113q15 -15 27 -23t20 -8t20 8t27 23l111 113q3 3 11 12q44 49 85 49q12 0 18.5 -5.5t6.5 -15.5q0 -20 -32 -63q-11 -15 -18 -25l-120 -179q-6 -9 -15 -24q-29 -46 -94 -46t-94 46q-9 15 -15 24l-122 179q-5 7 -14 19q-34 47 -34 69q0 10 6.5 15.5
t18.5 5.5q41 0 85 -49q8 -9 11 -12z" />
    <glyph glyph-name="breve" unicode="&#x2d8;" 
d="M512 1321q69 0 114.5 12t71.5 37q15 14 34.5 50t37.5 36q15 0 25 -12.5t10 -32.5q0 -87 -87.5 -161t-205.5 -74t-205.5 74t-87.5 161q0 20 10 32.5t25 12.5q19 0 37 -35q9 -17 14 -24q28 -41 75.5 -58.5t131.5 -17.5z" />
    <glyph glyph-name="dotaccent" unicode="&#x2d9;" 
d="M389 1300q0 50 37 87.5t86 37.5q51 0 88 -37t37 -88q0 -53 -35.5 -87.5t-89.5 -34.5t-88.5 34.5t-34.5 87.5z" />
    <glyph glyph-name="ring" unicode="&#x2da;" 
d="M371 1366q0 -60 40.5 -101.5t100.5 -41.5t100.5 41.5t40.5 101.5t-40.5 100.5t-100.5 40.5t-100.5 -40.5t-40.5 -100.5zM264 1366q0 104 72 176t176 72t176 -72t72 -176t-72 -176t-176 -72t-176 72t-72 176z" />
    <glyph glyph-name="ogonek" unicode="&#x2db;" 
d="M631 35q-84 -65 -129 -131.5t-45 -124.5q0 -59 24 -92t66 -33q51 0 91 37t42 37q10 -1 15 -6.5t5 -16.5q0 -38 -71.5 -96t-147.5 -58q-71 0 -114 42t-43 112q0 84 64 165t196 165h47z" />
    <glyph glyph-name="tilde" unicode="&#x2dc;" 
d="M442 1262q-17 4 -30.5 6t-22.5 2q-35 0 -53 -10t-33 -37q-3 -6 -7 -15q-11 -26 -32 -26q-15 0 -25 8t-10 20q0 19 15.5 51t46.5 78q24 37 56.5 54.5t76.5 17.5q18 0 34 -2t31 -6l107 -27q11 -3 22.5 -4.5t22.5 -1.5q25 0 43 8t29 23q6 8 13 26q12 31 34 31q14 0 22.5 -9
t8.5 -24q0 -17 -18 -57.5t-44 -75.5q-22 -31 -54.5 -47t-72.5 -16q-14 0 -26.5 1.5t-26.5 4.5z" />
    <glyph glyph-name="hungarumlaut" unicode="&#x2dd;" 
d="M676 1178q-26 -24 -41.5 -31.5t-34.5 -7.5q-9 0 -14.5 3.5t-5.5 8.5t3 11.5t11 19.5l147 239q24 39 47.5 57.5t51.5 18.5q31 0 51 -21t20 -55q0 -21 -15.5 -44.5t-47.5 -51.5zM420 1178l-9 -9q-29 -30 -59 -30q-11 0 -15.5 3.5t-4.5 10.5q0 3 2 9t8 20l113 229
q20 44 43.5 65t52.5 21q28 0 50 -21.5t22 -50.5q0 -19 -12 -39.5t-44 -54.5z" />
    <glyph glyph-name="Omega" unicode="&#x3a9;" horiz-adv-x="1573" 
d="M1473 156v-156h-590v150q193 111 296 279t103 374q0 251 -137 405t-359 154q-221 0 -359 -155t-138 -404q0 -205 103 -373.5t298 -279.5v-150h-590v156h332q-164 133 -242.5 285t-78.5 335q0 329 188.5 533t486.5 204q299 0 487.5 -202.5t188.5 -530.5
q0 -186 -78.5 -338.5t-242.5 -285.5h332z" />
    <glyph glyph-name="pi" unicode="&#x3c0;" horiz-adv-x="1186" 
d="M1139 930h-185l-110 -516q-14 -66 -21.5 -114.5t-7.5 -74.5q0 -57 24 -81.5t81 -24.5q21 0 46 2.5t52 7.5l-29 -129l-5 -1q-64 -15 -99 -15q-110 0 -168 51.5t-58 150.5q0 48 11.5 121t44.5 230l84 393h-348l-197 -930h-158l197 930h-39q-55 0 -84.5 -31t-40.5 -100h-145
q26 153 94 211.5t223 58.5h866z" />
    <glyph glyph-name="endash" unicode="&#x2013;" 
d="M0 569h1024v-114h-1024v114z" />
    <glyph glyph-name="emdash" unicode="&#x2014;" horiz-adv-x="2048" 
d="M0 455v114h2048v-114h-2048z" />
    <glyph glyph-name="quoteleft" unicode="&#x2018;" horiz-adv-x="645" 
d="M305 1071h21q66 0 100.5 -28.5t34.5 -84.5q0 -57 -34.5 -92t-92.5 -35q-70 0 -110 54t-40 149q0 56 15.5 109t46.5 106q46 79 84 118.5t67 39.5q20 0 34.5 -13.5t14.5 -31.5q0 -25 -46 -81q-27 -34 -42 -54q-27 -41 -40 -76t-13 -68v-12z" />
    <glyph glyph-name="quoteright" unicode="&#x2019;" horiz-adv-x="645" 
d="M358 1153h-20q-66 0 -100.5 28.5t-34.5 84.5q0 57 35.5 93t93.5 36q69 0 108 -54.5t39 -150.5q0 -56 -15 -109t-46 -106q-47 -80 -84 -119t-66 -39q-20 0 -34.5 13.5t-14.5 31.5q0 26 46 82q27 33 42 53q27 40 39 74.5t12 67.5v14z" />
    <glyph glyph-name="quotesinglbase" unicode="&#x201a;" horiz-adv-x="645" 
d="M348 -31h-20q-66 0 -100.5 29t-34.5 84q0 57 34.5 92t91.5 35q71 0 110.5 -54t39.5 -149q0 -56 -15.5 -110t-45.5 -107q-47 -78 -85 -118t-67 -40q-20 0 -34.5 13.5t-14.5 31.5q0 26 47 83q28 34 43 55q26 39 38.5 73.5t12.5 67.5v14z" />
    <glyph glyph-name="quotedblleft" unicode="&#x201c;" horiz-adv-x="1006" 
d="M680 1071h20q67 0 101.5 -28.5t34.5 -84.5q0 -57 -35.5 -92t-93.5 -35q-70 0 -109 53.5t-39 149.5q0 56 15 109t47 106q46 80 83 119t66 39q20 0 34.5 -13.5t14.5 -31.5q0 -25 -46 -81q-27 -34 -42 -54q-26 -40 -38.5 -74t-12.5 -68v-14zM293 1071h20q66 0 101 -28.5
t35 -84.5q0 -57 -35 -92t-92 -35q-71 0 -110.5 54t-39.5 149q0 56 15 109t46 106q47 79 85 118.5t67 39.5q20 0 34.5 -13.5t14.5 -31.5q0 -24 -46 -79q-28 -34 -44 -56q-26 -40 -38.5 -74t-12.5 -68v-14z" />
    <glyph glyph-name="quotedblright" unicode="&#x201d;" horiz-adv-x="1006" 
d="M733 1153h-20q-66 0 -100.5 28.5t-34.5 84.5q0 58 34.5 93.5t92.5 35.5q69 0 109 -54.5t40 -150.5q0 -56 -15 -109t-46 -106q-46 -78 -84.5 -118t-67.5 -40q-20 0 -34.5 13.5t-14.5 31.5q0 26 46 80q29 34 44 55q26 40 38.5 74.5t12.5 67.5v14zM346 1153h-20
q-66 0 -101 28.5t-35 84.5q0 57 36 93t93 36q70 0 109 -54.5t39 -150.5q0 -58 -14.5 -111t-44.5 -104q-47 -78 -85 -118t-67 -40q-20 0 -34.5 13.5t-14.5 31.5q0 26 46 82q27 33 42 53q26 40 38.5 74.5t12.5 67.5v14z" />
    <glyph glyph-name="quotedblbase" unicode="&#x201e;" horiz-adv-x="1006" 
d="M725 -31h-20q-67 0 -101.5 29t-34.5 84q0 57 35.5 92t93.5 35q70 0 109 -53.5t39 -149.5q0 -58 -15 -112t-45 -105q-46 -78 -84 -118t-67 -40q-20 0 -34.5 13.5t-14.5 31.5q0 27 47 85q27 33 41 53q26 39 38.5 73.5t12.5 67.5v14zM340 -31h-21q-66 0 -100.5 29t-34.5 84
q0 57 35 92t92 35q71 0 110.5 -54t39.5 -149q0 -56 -15.5 -110t-46.5 -107q-46 -78 -84 -118t-67 -40q-20 0 -34.5 13.5t-14.5 31.5q0 26 47 83q28 34 43 55q26 39 38.5 73.5t12.5 67.5v14z" />
    <glyph glyph-name="dagger" unicode="&#x2020;" 
d="M512 -360q-55 0 -73.5 29t-18.5 118q0 23 10 261t10 454q0 135 -2 198t-8 84q-6 23 -32.5 33t-78.5 10q-101 0 -132 -14.5t-31 -56.5q0 -6 3 -23.5t3 -30.5q0 -16 -17 -29.5t-39 -13.5q-21 0 -34 18.5t-13 49.5q0 13 5.5 60.5t5.5 82.5q0 38 -5.5 87.5t-5.5 60.5
q0 30 13.5 48.5t33.5 18.5q23 0 39.5 -13.5t16.5 -31.5q0 -12 -3 -29t-3 -22q0 -41 34.5 -56t137.5 -15q62 0 85 20.5t23 79.5q0 37 -8 131t-8 151q0 55 19.5 75t72.5 20t72.5 -20t19.5 -75q0 -57 -9 -151t-9 -131q0 -58 23.5 -79t86.5 -21q102 0 136 15t34 56q0 5 -3 22
t-3 29q0 18 16.5 31.5t38.5 13.5q21 0 35.5 -19t14.5 -48q0 -11 -5.5 -60.5t-5.5 -87.5q0 -35 5.5 -82.5t5.5 -60.5q0 -30 -14 -49t-36 -19q-21 0 -38 13.5t-17 29.5q0 13 3 30.5t3 23.5q0 42 -30.5 56.5t-130.5 14.5q-53 0 -80 -10t-33 -33q-5 -17 -6.5 -65.5t-1.5 -216.5
q0 -216 10 -454.5t10 -260.5q0 -89 -18.5 -118t-73.5 -29z" />
    <glyph glyph-name="daggerdbl" unicode="&#x2021;" 
d="M586 326q0 -46 21 -58t91 -12q106 0 135 13.5t29 52.5q0 6 -2 24t-2 29q0 16 17.5 28.5t39.5 12.5q23 0 36.5 -17t13.5 -47q0 -10 -5.5 -56.5t-5.5 -82.5t5.5 -82.5t5.5 -56.5q0 -29 -14 -46.5t-36 -17.5t-39.5 12.5t-17.5 28.5q0 13 2 30.5t2 20.5q0 39 -34 53.5
t-140 14.5q-68 0 -90.5 -20.5t-22.5 -92.5q0 -33 9.5 -137.5t9.5 -175.5q0 -57 -18.5 -80.5t-63.5 -23.5t-64.5 24t-19.5 80q0 71 9 175.5t9 137.5q0 72 -22 92.5t-90 20.5q-106 0 -140 -14.5t-34 -53.5q0 -3 3 -20.5t3 -30.5q0 -16 -17.5 -28.5t-39.5 -12.5t-36 17.5
t-14 46.5q0 10 5.5 56.5t5.5 82.5t-5.5 82.5t-5.5 56.5q0 30 13.5 47t36.5 17q22 0 39.5 -12.5t17.5 -28.5q0 -11 -3 -29t-3 -24q0 -39 29 -52.5t135 -13.5q70 0 91 12t21 58v456q0 46 -21 58t-91 12q-106 0 -135 -13.5t-29 -52.5q0 -6 3 -24t3 -29q0 -16 -17.5 -28.5
t-39.5 -12.5q-23 0 -36.5 18t-13.5 48q0 10 5.5 55.5t5.5 81.5t-5.5 83.5t-5.5 57.5q0 28 13.5 45t36.5 17q22 0 39.5 -12t17.5 -27q0 -13 -3 -30.5t-3 -20.5q0 -40 35 -55t139 -15q64 0 88 20t24 74q0 33 -9 123.5t-9 149.5q0 48 19.5 69t64.5 21t63.5 -20.5t18.5 -69.5
q0 -59 -9.5 -149.5t-9.5 -123.5q0 -54 24.5 -74t88.5 -20q103 0 138.5 15t35.5 55q0 3 -2 20.5t-2 30.5q0 15 17.5 27t39.5 12q23 0 36.5 -17t13.5 -45q0 -10 -5.5 -57.5t-5.5 -83.5t5.5 -81.5t5.5 -55.5q0 -30 -13.5 -48t-36.5 -18q-22 0 -39.5 12.5t-17.5 28.5q0 11 2 29
t2 24q0 39 -29 52.5t-135 13.5q-70 0 -91 -12t-21 -58v-456z" />
    <glyph glyph-name="bullet" unicode="&#x2022;" horiz-adv-x="1208" 
d="M307 762q0 123 87 209t210 86q122 0 208.5 -86.5t86.5 -208.5t-87.5 -209.5t-209.5 -87.5q-123 0 -209 87t-86 210z" />
    <glyph glyph-name="ellipsis" unicode="&#x2026;" horiz-adv-x="2048" 
d="M217 92q0 52 35 87.5t88 35.5q52 0 88 -35.5t36 -87.5q0 -50 -36.5 -86.5t-87.5 -36.5q-53 0 -88 35.5t-35 87.5zM899 92q0 52 35 87.5t88 35.5q52 0 88 -35.5t36 -87.5q0 -50 -36.5 -86.5t-87.5 -36.5q-53 0 -88 35.5t-35 87.5zM1583 92q0 52 35 87.5t88 35.5
q52 0 88 -35.5t36 -87.5q0 -50 -36.5 -86.5t-87.5 -36.5q-53 0 -88 35.5t-35 87.5z" />
    <glyph glyph-name="perthousand" unicode="&#x2030;" horiz-adv-x="2470" 
d="M1161 383q0 -128 45.5 -201t124.5 -73q80 0 126 73t46 201q0 130 -45 203t-125 73t-126 -73.5t-46 -202.5zM1012 387q0 194 86 305t235 111t235.5 -111.5t86.5 -304.5t-87 -304.5t-237 -111.5q-148 0 -233.5 111.5t-85.5 304.5zM1745 387q0 194 86 305t235 111
t235.5 -111.5t86.5 -304.5q0 -194 -86 -305t-236 -111q-148 0 -234.5 111.5t-86.5 304.5zM1894 383q0 -128 46.5 -201t125.5 -73q80 0 126 73t46 201q0 129 -45.5 202.5t-126.5 73.5q-80 0 -126 -73.5t-46 -202.5zM233 963q0 -129 47.5 -203t129.5 -74t130 74t48 203
q0 128 -48 201t-130 73t-129.5 -73t-47.5 -201zM1024 1100q-38 -28 -78 -40.5t-88 -12.5q-36 0 -74.5 18.5t-72.5 52.5q8 -41 12 -79t4 -72q0 -198 -86 -310t-238 -112q-148 0 -233.5 111t-85.5 305t86 304.5t236 110.5q114 0 247 -99q24 -19 37 -28q78 -54 116.5 -70
t78.5 -16q60 0 117.5 30t101.5 85q14 18 38 54q54 85 105 85q27 0 43.5 -10.5t16.5 -26.5q0 -7 -1 -10.5t-4 -8.5l-731 -1373q-14 -28 -29 -35.5t-50 -7.5q-25 0 -39.5 10t-14.5 27q0 4 5 16.5t14 30.5z" />
    <glyph glyph-name="guilsinglleft" unicode="&#x2039;" horiz-adv-x="621" 
d="M289 477l151 -192q4 -5 10 -12q31 -39 31 -62q0 -21 -13.5 -30t-45.5 -9q-36 0 -50 6.5t-28 24.5l-231 280q-6 8 -9.5 15.5t-3.5 13.5t3.5 15t8.5 15l232 279q15 19 30 26t48 7q31 0 45 -10t14 -31q0 -23 -31 -62q-6 -7 -10 -12l-152 -191q-7 -8 -11.5 -18.5t-4.5 -17.5
q0 -6 4.5 -15t12.5 -20z" />
    <glyph glyph-name="guilsinglright" unicode="&#x203a;" horiz-adv-x="621" 
d="M338 549l-150 191l-12 15q-31 37 -31 58t14.5 31t45.5 10q34 0 49.5 -7t30.5 -26l229 -278q7 -8 10.5 -16.5t3.5 -14.5t-3.5 -13t-10.5 -16l-230 -281q-14 -17 -28 -23.5t-51 -6.5q-32 0 -46 9t-14 30t31 58l12 15l150 193q8 10 12 19.5t4 17.5q0 6 -4 15t-12 20z" />
    <glyph glyph-name="franc" unicode="&#x20a3;" horiz-adv-x="2357" 
d="M340 264v860q0 61 -26 88t-85 27q-18 0 -53.5 -5t-52.5 -5q-38 0 -60 19.5t-22 51.5q0 34 26 55t70 21q5 0 30 -1q175 -9 361 -9h426q108 0 203 9q12 1 14 1q44 0 70.5 -27.5t26.5 -74.5q0 -25 -6.5 -81t-6.5 -87q0 -61 6.5 -136t6.5 -89q0 -40 -18.5 -63t-49.5 -23
q-33 0 -56.5 26t-23.5 64q0 18 5 74.5t5 93.5q0 103 -38.5 139.5t-161.5 36.5h-299q-69 0 -91 -23.5t-22 -113.5v-230q0 -38 12.5 -54.5t40.5 -16.5h187q29 0 46 31.5t17 86.5q0 13 -2 48.5t-2 58.5q0 37 18.5 59.5t49.5 22.5t47 -31t16 -90q0 -22 -6 -102.5t-6 -139.5
q0 -58 6 -139t6 -102q0 -58 -16.5 -89.5t-46.5 -31.5q-29 0 -48.5 20t-19.5 49q0 25 2 55.5t2 34.5q0 91 -22 119.5t-86 28.5h-144q-27 0 -39 -17t-12 -55v-360q0 -63 27.5 -91t89.5 -28q22 0 62.5 6t58.5 6q36 0 59 -20.5t23 -52.5q0 -41 -23 -59.5t-72 -18.5
q-36 0 -138.5 8t-168.5 8q-76 0 -179 -8t-128 -8q-47 0 -67.5 18.5t-20.5 59.5q0 32 20.5 52.5t51.5 20.5q9 0 47 -6t65 -6q64 0 89.5 29t25.5 106zM1769 256q0 -89 15.5 -115t64.5 -26q4 0 31 3t51 3q47 0 68.5 -16.5t21.5 -51.5q0 -30 -21.5 -46.5t-60.5 -16.5
q-7 0 -96.5 8t-171.5 8q-66 0 -140 -8t-81 -8q-42 0 -59 14t-17 47q0 35 20 52.5t62 17.5q10 0 28 -3t27 -3q61 0 79.5 24t18.5 117v426q0 133 -20 164t-78 31h-63q-40 0 -57 12.5t-17 40.5q0 32 20.5 49.5t59.5 17.5q5 0 34 -3t54 -3q62 0 125 5q13 1 16 1q39 0 53.5 -16.5
t14.5 -67.5l-2 -57q41 83 108.5 125.5t157.5 42.5q125 0 206 -78.5t81 -202.5q0 -88 -43 -138t-117 -50q-53 0 -82 27t-29 75q0 29 15 47.5t46 28.5q6 2 15 4q37 8 37 47q0 42 -46 79.5t-104 37.5q-122 0 -173.5 -102t-51.5 -361v-182z" />
    <glyph glyph-name="trademark" unicode="&#x2122;" horiz-adv-x="1706" 
d="M948 1456l160 -405l149 405h132v-534h-82v458l-172 -458h-54l-180 458v-458h-82v534h129zM694 1456v-67h-172v-467h-94v467h-174v67h440z" />
    <glyph glyph-name="partialdiff" unicode="&#x2202;" horiz-adv-x="1044" 
d="M754 604q13 81 19.5 161.5t6.5 158.5q0 140 -39.5 216.5t-111.5 76.5q-53 0 -117 -63.5t-109 -63.5q-29 0 -51 21.5t-22 51.5q0 59 68 105.5t163 46.5q171 0 273 -152.5t102 -412.5q0 -335 -139 -555t-344 -220q-147 0 -241.5 106.5t-94.5 272.5q0 189 108.5 316
t266.5 127q99 0 162.5 -47t99.5 -146zM709 483q0 117 -45 180.5t-127 63.5q-113 0 -184.5 -127.5t-71.5 -333.5q0 -117 44 -178t128 -61q111 0 183.5 128t72.5 328z" />
    <glyph glyph-name="Delta" unicode="&#x2206;" horiz-adv-x="1356" 
d="M1122 158l-444 1138l-445 -1138h889zM780 1473l586 -1473h-1374l586 1473h202z" />
    <glyph glyph-name="product" unicode="&#x220f;" horiz-adv-x="1528" 
d="M160 1473h1208v-1866h-201v1693h-809v-1693h-198v1866z" />
    <glyph glyph-name="summation" unicode="&#x2211;" horiz-adv-x="1346" 
d="M51 1473h1239v-166h-989l690 -744l-719 -792h1035v-164h-1289v139l738 813l-705 758v156z" />
    <glyph glyph-name="minus" unicode="&#x2212;" horiz-adv-x="1706" 
d="M1452 670v-119h-1198v119h1198z" />
    <glyph glyph-name="fraction" unicode="&#x2215;" horiz-adv-x="342" 
d="M508 1309l3 4q39 63 81 63q26 0 38.5 -9t12.5 -28q0 -10 -7.5 -26.5t-33.5 -57.5l-768 -1216l-3 -5q-39 -63 -81 -63q-27 0 -39 8.5t-12 26.5q0 11 7.5 27t33.5 57z" />
    <glyph glyph-name="periodcentered" unicode="&#x2219;" horiz-adv-x="645" 
d="M199 686q0 52 35 87.5t88 35.5q52 0 88 -36.5t36 -88.5q0 -50 -36.5 -86.5t-87.5 -36.5q-52 0 -87.5 36.5t-35.5 88.5z" />
    <glyph glyph-name="radical" unicode="&#x221a;" horiz-adv-x="1288" 
d="M1288 1647v-82h-119l-594 -1606h-53l-323 893l-119 -43l-23 68l262 92l265 -729l522 1407h182z" />
    <glyph glyph-name="infinity" unicode="&#x221e;" horiz-adv-x="1706" 
d="M905 559q51 -95 119 -141.5t156 -46.5q102 0 168.5 71t66.5 181q0 108 -61 179.5t-152 71.5q-85 0 -153.5 -72.5t-143.5 -242.5zM803 666q-51 95 -119 142.5t-154 47.5q-105 0 -171 -71t-66 -183q0 -108 61 -179t152 -71q85 0 152 69t145 245zM840 727q67 138 146 204
t175 66q134 0 226 -108.5t92 -272.5q0 -171 -82 -277t-213 -106q-96 0 -169 60t-149 201q-71 -138 -148 -201.5t-173 -63.5q-134 0 -226 109t-92 272q0 172 82.5 277.5t214.5 105.5q97 0 172 -63t144 -203z" />
    <glyph glyph-name="integral" unicode="&#x222b;" horiz-adv-x="1020" 
d="M301 -268q103 0 116 664q3 141 5 216q12 503 102 719.5t281 216.5q76 0 122 -39t46 -104q0 -48 -31 -77.5t-82 -29.5q-53 0 -85 35t-32 92q0 8 -6 15.5t-14 7.5q-105 0 -119 -634q-3 -157 -6 -245q-10 -308 -31.5 -461t-62.5 -247q-49 -114 -123 -173t-168 -59
q-73 0 -119.5 38t-46.5 97q0 53 31.5 84t83.5 31q47 0 79.5 -29t32.5 -67q0 -24 7.5 -37.5t19.5 -13.5z" />
    <glyph glyph-name="approxequal" unicode="&#x2248;" horiz-adv-x="1706" 
d="M1530 453q-107 -75 -202 -110.5t-187 -35.5q-98 0 -288 69.5t-290 69.5q-82 0 -169.5 -35.5t-215.5 -123.5v131q106 73 202 109t185 36q111 0 301.5 -68.5t276.5 -68.5q85 0 173.5 35.5t213.5 122.5v-131zM1530 803q-104 -73 -200 -108.5t-187 -35.5q-100 0 -290 69
t-290 69q-83 0 -171.5 -36t-213.5 -122v131q106 73 202 109t185 36q111 0 300.5 -68.5t277.5 -68.5q87 0 175 35t212 121v-131z" />
    <glyph glyph-name="notequal" unicode="&#x2260;" horiz-adv-x="1706" 
d="M1298 1110l-196 -250h350v-115h-424l-211 -270h635v-115h-709l-251 -319l-89 70l197 249h-346v115h420l211 270h-631v115h704l252 320z" />
    <glyph glyph-name="lessequal" unicode="&#x2264;" horiz-adv-x="1706" 
d="M1444 150v-117h-1182v117h1182zM1444 1067l-977 -324l977 -323v-125l-1182 399v101l1182 397v-125z" />
    <glyph glyph-name="greaterequal" unicode="&#x2265;" horiz-adv-x="1706" 
d="M1444 150v-117h-1182v117h1182zM1444 795v-101l-1182 -399v125l979 323l-979 324v125z" />
    <glyph glyph-name="lozenge" unicode="&#x25ca;" horiz-adv-x="1012" 
d="M506 1409l-385 -817l385 -825l385 825zM506 1653l500 -1061l-500 -1069l-500 1069z" />
    <glyph glyph-name="apple" unicode="&#xf000;" horiz-adv-x="1618" 
d="M836 1216q-1 6 -1.5 14t-0.5 23q0 124 95 229.5t236 131.5q1 -10 1.5 -23t0.5 -39q0 -131 -103.5 -234.5t-203.5 -103.5h-8q-3 0 -7.5 1t-8.5 1zM1505 403q-114 -247 -205 -342.5t-204 -95.5q-50 0 -131.5 33t-122.5 33q-45 0 -131 -33t-127 -33q-64 0 -128.5 44
t-129.5 132q-102 140 -157.5 295.5t-55.5 300.5q0 219 125 356.5t323 137.5q68 0 155 -34t124 -34q34 0 121.5 35t152.5 35q110 0 198 -40t161 -124q-102 -65 -151.5 -145.5t-49.5 -182.5q0 -113 60 -200t173 -138z" />
    <glyph glyph-name="fi" unicode="&#xf001;" horiz-adv-x="1327" 
d="M879 1194q0 47 30.5 79t77.5 32q46 0 78.5 -32.5t32.5 -78.5q0 -44 -33 -75.5t-78 -31.5q-46 0 -77 30.5t-31 76.5zM924 256v408q0 141 -20.5 175.5t-82.5 34.5h-73q-39 0 -53.5 13t-14.5 45q0 27 21 45t53 18q5 0 44.5 -4t73.5 -4q58 0 120 7q14 1 18 1q42 0 55.5 -14.5
t13.5 -67.5v-657q0 -91 18 -116t79 -25q12 0 29.5 3t23.5 3q42 0 64 -17.5t22 -52.5q0 -33 -18.5 -47t-61.5 -14q-12 0 -84 8t-131 8q-111 0 -225 -13q-25 -3 -31 -3q-43 0 -62.5 14.5t-19.5 46.5q0 35 22 52.5t64 17.5q10 0 29 -3t28 -3q62 0 80.5 24t18.5 117zM252 874
q-54 -1 -112.5 -3.5t-63.5 -2.5q-34 0 -50 14t-16 44q0 31 22 50t58 19q4 0 49 -4t86 -4h27q0 6 -1 19t-1 20q0 169 86 256.5t252 87.5q115 0 184.5 -50.5t69.5 -133.5q0 -45 -25 -72t-67 -27q-44 0 -69.5 20t-25.5 54q0 12 4.5 33.5t4.5 30.5q0 14 -19 21t-59 7
q-91 0 -138 -55t-47 -162q0 -20 0.5 -30t2.5 -19q67 0 140 7q17 1 21 1q39 0 60.5 -17.5t21.5 -49.5q0 -31 -16 -45.5t-51 -14.5q-4 0 -21 1q-78 5 -151 5v-618q0 -94 15 -117.5t62 -23.5q4 0 31 3t49 3q46 0 67 -16.5t21 -51.5q0 -30 -20.5 -46.5t-59.5 -16.5q-7 0 -93 8
t-165 8q-67 0 -141 -8t-82 -8q-43 0 -62.5 14.5t-19.5 46.5q0 35 22 52.5t64 17.5q11 0 30.5 -3t27.5 -3q59 0 78.5 21t19.5 120v618z" />
    <glyph glyph-name="fl" unicode="&#xf002;" horiz-adv-x="1325" 
d="M252 874q-54 -1 -112.5 -3.5t-63.5 -2.5q-34 0 -50 14t-16 44q0 31 22 50t58 19q4 0 49 -5t86 -5h27q0 7 -1 21.5t-1 21.5q0 163 82.5 251.5t234.5 88.5q17 0 97 -4t143 -4t130 4t69 4q42 0 56.5 -14.5t14.5 -69.5v-1028q0 -92 18 -115.5t79 -23.5q12 0 30.5 2t24.5 2
q42 0 63 -17.5t21 -52.5q0 -33 -18.5 -47t-61.5 -14q-12 0 -84 8t-131 8q-111 0 -225 -13q-25 -3 -31 -3q-43 0 -61.5 14t-18.5 47q0 35 21 52.5t63 17.5q10 0 29 -2t28 -2q62 0 80.5 23.5t18.5 115.5v813q0 116 -19.5 146t-70.5 32q5 -15 7.5 -30t2.5 -31q0 -45 -25 -72
t-67 -27q-44 0 -69.5 20t-25.5 54q0 12 4.5 33.5t4.5 30.5q0 14 -19 21t-59 7q-91 0 -138 -55t-47 -162q0 -20 0.5 -30.5t2.5 -20.5q67 0 139 8q18 2 22 2q39 0 60.5 -17.5t21.5 -49.5q0 -31 -16 -45.5t-51 -14.5q-4 0 -21 1q-78 5 -151 5v-618q0 -93 14.5 -116t62.5 -23
q4 0 31 2t49 2q46 0 67 -16.5t21 -51.5q0 -30 -20.5 -46.5t-59.5 -16.5q-7 0 -93 8t-165 8q-67 0 -141 -8t-82 -8q-43 0 -62.5 14.5t-19.5 46.5q0 35 22 52.5t64 17.5q11 0 30.5 -2t27.5 -2q60 0 79 20.5t19 118.5v618z" />
    </font>
</defs>
</svg>
