<?xml version="1.0" standalone="no"?>
<!DOCTYPE svg PUBLIC "-//W3C//DTD SVG 1.1//EN" "http://www.w3.org/Graphics/SVG/1.1/DTD/svg11.dtd" >
<svg xmlns="http://www.w3.org/2000/svg" xmlns:xlink="http://www.w3.org/1999/xlink" version="1.1">
<metadata>
Created by FontForge 20170731 at Mon Sep 12 00:43:35 2016
 By Aleksey,,,
Copyright (c) 2016. Arca Majora 3 is a trademark of Alfredo Marco Pradil. All rights reserved.
</metadata>
<defs>
<font id="ArcaMajora3-Bold" horiz-adv-x="0" >
  <font-face 
    font-family="Arca Majora 3 Bold"
    font-weight="700"
    font-stretch="normal"
    units-per-em="1000"
    panose-1="0 0 8 0 0 0 0 0 0 0"
    ascent="770"
    descent="-230"
    x-height="504"
    cap-height="770"
    bbox="-673 -297 1188 1257"
    underline-thickness="90"
    underline-position="-280"
    unicode-range="U+000D-F8FF"
  />
<missing-glyph horiz-adv-x="576" 
d="M72 770h432v-770h-432v770zM92 750v-730h392v730h-392z" />
    <glyph glyph-name=".notdef" horiz-adv-x="576" 
d="M72 770h432v-770h-432v770zM92 750v-730h392v730h-392z" />
    <glyph glyph-name=".null" 
 />
    <glyph glyph-name="nonmarkingreturn" horiz-adv-x="333" 
 />
    <glyph glyph-name="NULL" horiz-adv-x="20" 
 />
    <glyph glyph-name="NULL" horiz-adv-x="20" 
 />
    <glyph glyph-name="CR" unicode="&#xd;" horiz-adv-x="90" 
 />
    <glyph glyph-name="space" unicode=" " horiz-adv-x="280" 
 />
    <glyph glyph-name="exclam" unicode="!" horiz-adv-x="367" 
d="M113 247v523h140v-523h-140zM183 -10q-40 0 -68 27.5t-28 68.5q0 39 28 68t68 29q42 0 69.5 -29t27.5 -68q0 -41 -27.5 -68.5t-69.5 -27.5z" />
    <glyph glyph-name="quotedbl" unicode="&#x22;" horiz-adv-x="537" 
d="M94 423v347h120v-347h-120zM324 423v347h120v-347h-120z" />
    <glyph glyph-name="numbersign" unicode="#" horiz-adv-x="715" 
d="M143 0l21 155h-101l14 98h101l25 180h-101l14 98h100l22 155h107l-22 -155h121l22 155h107l-22 -155h101l-13 -98h-101l-25 -180h100l-12 -98h-102l-21 -155h-107l21 155h-121l-21 -155h-107zM285 253h121l25 180h-121z" />
    <glyph glyph-name="dollar" unicode="$" horiz-adv-x="546" 
d="M514 226q0 -92 -53.5 -154.5t-139.5 -77.5v-70h-130v79q-61 19 -105 62.5t-61 101.5l118 53q13 -47 47.5 -74t80.5 -27q50 0 81.5 31t31.5 78q0 31 -17.5 55t-45.5 40.5t-62 32t-68 34t-62 41.5t-45.5 60.5t-17.5 84.5q0 69 34 118t91 71v81h130v-70q59 -11 102.5 -48
t61.5 -92l-117 -54q-8 36 -31.5 56t-57.5 20q-37 0 -60.5 -22t-23.5 -56q0 -37 33 -64.5t79.5 -48.5t93.5 -47t80 -75.5t33 -118.5z" />
    <glyph glyph-name="percent" unicode="%" horiz-adv-x="749" 
d="M180 460q-64 0 -109.5 47t-45.5 113t45 113t110 47q64 0 109.5 -47t45.5 -113t-45 -113t-110 -47zM60 -1l483 771h144l-483 -771h-144zM180 561q27 0 43 17.5t16 41.5q0 25 -16.5 42t-42.5 17t-42.5 -17.5t-16.5 -41.5q0 -25 17 -42t42 -17zM569 -10q-66 0 -111 47
t-45 113t45 113t111 47t110.5 -47.5t44.5 -112.5t-45 -112.5t-110 -47.5zM569 91q25 0 42 17t17 42t-17 42t-42 17q-27 0 -43.5 -17.5t-16.5 -41.5q0 -25 17 -42t43 -17z" />
    <glyph glyph-name="ampersand" unicode="&#x26;" horiz-adv-x="659" 
d="M604 -3l-105 106l-28 -29q-72 -74 -176 -74t-176.5 73.5t-72.5 179.5t73 180l29 30q-36 53 -36 115q0 79 53.5 132t129.5 53q73 0 126 -51.5t53 -125.5q0 -66 -43 -114l-83 80q12 15 12 34q0 26 -20.5 42.5t-46.5 16.5q-28 0 -47.5 -20t-19.5 -49t20 -49l253 -257
l107 108l82 -83l-107 -108l105 -107zM295 118q55 0 95 42q14 12 27 27l-188 191q-37 -37 -52.5 -62.5t-15.5 -62.5q0 -57 39 -96t95 -39z" />
    <glyph glyph-name="quotesingle" unicode="'" horiz-adv-x="307" 
d="M94 423v347h120v-347h-120z" />
    <glyph glyph-name="parenleft" unicode="(" horiz-adv-x="398" 
d="M355 -122q-91 0 -157.5 75t-97 188t-30.5 244q0 132 30.5 244.5t97 187.5t157.5 75v-122q-49 0 -84.5 -57t-52 -142.5t-16.5 -185.5t16.5 -185.5t52 -142.5t84.5 -57v-122z" />
    <glyph glyph-name="parenright" unicode=")" horiz-adv-x="398" 
d="M40 -122v122q49 0 84.5 57t52 142.5t16.5 185.5t-16.5 185.5t-52 142.5t-84.5 57v122q91 0 157.5 -75t97 -187.5t30.5 -244.5q0 -131 -30.5 -244t-97 -188t-157.5 -75z" />
    <glyph glyph-name="asterisk" unicode="*" horiz-adv-x="448" 
d="M167 482l-64 37l83 113l-139 -15v73l139 -15l-83 113l64 37l57 -127l56 127l65 -37l-84 -113l140 15v-73l-140 15l84 -113l-65 -37l-56 127z" />
    <glyph glyph-name="plus" unicode="+" horiz-adv-x="723" 
d="M303 129v199h-213v114h213v200h116v-200h214v-114h-214v-199h-116z" />
    <glyph glyph-name="comma" unicode="," horiz-adv-x="224" 
d="M56 -136v297h153l-70 -297h-83z" />
    <glyph glyph-name="hyphen" unicode="-" horiz-adv-x="582" 
d="M87 206v114h408v-114h-408z" />
    <glyph glyph-name="period" unicode="." horiz-adv-x="303" 
d="M151 -10q-40 0 -68 27.5t-28 68.5q0 39 28 68t68 29q42 0 69.5 -29t27.5 -68q0 -41 -27.5 -68.5t-69.5 -27.5z" />
    <glyph glyph-name="slash" unicode="/" horiz-adv-x="531" 
d="M-21 -200l415 1000h144l-415 -1000h-144z" />
    <glyph glyph-name="zero" unicode="0" horiz-adv-x="590" 
d="M295 -12q-85 0 -146.5 56.5t-90.5 146t-29 199.5q0 172 69.5 281t196.5 109t196.5 -109t69.5 -281q0 -110 -29 -199.5t-90.5 -146t-146.5 -56.5zM295 117q71 0 103.5 78.5t32.5 194.5q0 72 -12 128t-44 94.5t-80 38.5t-80 -38.5t-44 -94.5t-12 -128q0 -116 32.5 -194.5
t103.5 -78.5z" />
    <glyph glyph-name="one" unicode="1" horiz-adv-x="590" 
d="M230 0v641h-133v129h264v-770h-131z" />
    <glyph glyph-name="two" unicode="2" horiz-adv-x="590" 
d="M10 0l352 467q22 29 22 68q0 47 -32.5 79t-79.5 32t-79.5 -32t-32.5 -79h-130q0 100 71.5 171t170.5 71t170.5 -71t71.5 -171q0 -82 -49 -147l-195 -258h249v-130h-509z" />
    <glyph glyph-name="three" unicode="3" horiz-adv-x="590" 
d="M444 435q93 -75 93 -193q0 -105 -74 -178.5t-178 -73.5t-178 73.5t-74 178.5h130q0 -51 36 -86.5t86 -35.5t86 35.5t36 86.5q0 49 -36 84.5t-86 35.5h-21v128h21q33 1 56.5 24.5t23.5 56.5t-23 56t-57 23q-33 0 -56.5 -23t-23.5 -56l-130 2q0 86 61.5 146.5t148.5 60.5
t148.5 -60.5t61.5 -146.5q0 -79 -51 -138z" />
    <glyph glyph-name="four" unicode="4" horiz-adv-x="590" 
d="M481 264h109v-129h-109v-135h-130v135h-323v142l296 493h157v-506zM155 264h196v337z" />
    <glyph glyph-name="five" unicode="5" horiz-adv-x="590" 
d="M302 495q105 0 179 -74t74 -179q0 -106 -74 -180t-179 -74q-81 0 -146 45.5t-92 119.5l122 49q13 -36 44.5 -58t71.5 -22q51 0 87 36t36 88q0 51 -36 87t-87 36q-55 0 -92 -40l-100 79l61 362h344v-129h-237l-23 -150q20 4 47 4z" />
    <glyph glyph-name="six" unicode="6" horiz-adv-x="590" 
d="M294 -12q-107 0 -178 76t-71 182q0 77 61 175l219 349h149l-166 -266q105 -6 171 -81t66 -179q0 -105 -73 -180.5t-178 -75.5zM295 118q52 0 88 37.5t36 90.5t-36 90.5t-88 37.5t-88 -37.5t-36 -90.5t36 -90.5t88 -37.5z" />
    <glyph glyph-name="seven" unicode="7" horiz-adv-x="590" 
d="M67 0l324 641h-341v129h546l-381 -770h-148z" />
    <glyph glyph-name="eight" unicode="8" horiz-adv-x="590" 
d="M453 435q94 -75 94 -193q0 -105 -74 -178.5t-178 -73.5t-178 73.5t-74 178.5q0 118 94 193q-52 58 -52 138q0 86 61.5 146.5t148.5 60.5t148.5 -60.5t61.5 -146.5q0 -80 -52 -138zM295 650q-33 0 -56.5 -23t-23.5 -56q0 -34 23.5 -57t56.5 -23t56.5 23t23.5 57
q0 33 -23 56t-57 23zM295 120q50 0 86 35.5t36 86.5q0 49 -36 84.5t-86 35.5t-86 -35.5t-36 -84.5q0 -51 36 -86.5t86 -35.5z" />
    <glyph glyph-name="nine" unicode="9" horiz-adv-x="590" 
d="M116 0l166 266q-104 6 -170.5 81.5t-66.5 179.5q0 105 72.5 180t178.5 75q102 0 175.5 -73.5t73.5 -171.5q0 -90 -61 -188l-219 -349h-149zM295 396q52 0 88 37.5t36 90.5t-36 90.5t-88 37.5t-88 -37.5t-36 -90.5t36 -90.5t88 -37.5z" />
    <glyph glyph-name="colon" unicode=":" horiz-adv-x="373" 
d="M186 413q-40 0 -68 27.5t-28 68.5q0 39 28 68t68 29q42 0 69.5 -29t27.5 -68q0 -41 -27.5 -68.5t-69.5 -27.5zM186 -10q-40 0 -68 27.5t-28 68.5q0 39 28 68t68 29q42 0 69.5 -29t27.5 -68q0 -41 -27.5 -68.5t-69.5 -27.5z" />
    <glyph glyph-name="semicolon" unicode=";" horiz-adv-x="368" 
d="M176 413q-40 0 -68 27.5t-28 68.5q0 39 28 68t68 29q42 0 69.5 -29t27.5 -68q0 -41 -27.5 -68.5t-69.5 -27.5zM100 -136v297h153l-50 -297h-103z" />
    <glyph glyph-name="less" unicode="&#x3c;" horiz-adv-x="560" 
d="M473 136l-386 205v89l386 188v-129l-216 -106l216 -114v-133z" />
    <glyph glyph-name="equal" unicode="=" horiz-adv-x="588" 
d="M90 454v114h408v-114h-408zM90 204v114h408v-114h-408z" />
    <glyph glyph-name="greater" unicode="&#x3e;" horiz-adv-x="560" 
d="M87 136v133l216 114l-216 106v129l386 -188v-89z" />
    <glyph glyph-name="question" unicode="?" horiz-adv-x="518" 
d="M192 246v69q0 42 14 75.5t34.5 55.5t41 42t34.5 43.5t14 50.5q0 37 -19.5 57.5t-50.5 20.5q-38 0 -57 -30t-19 -77h-129q0 100 54.5 163.5t147.5 63.5q88 0 145.5 -54.5t57.5 -133.5q0 -44 -14 -79.5t-34.5 -58.5t-41 -44t-34.5 -48t-14 -58v-58h-130zM257 -10
q-40 0 -68 27.5t-28 68.5q0 39 28 68t68 29q42 0 69.5 -29t27.5 -68q0 -41 -27.5 -68.5t-69.5 -27.5z" />
    <glyph glyph-name="at" unicode="@" horiz-adv-x="899" 
d="M674 476q-10 -50 -45 -223q-13 -60 -7 -82t32 -22q43 0 70.5 47t27.5 122q0 122 -77.5 194t-208.5 72q-136 0 -222.5 -88t-86.5 -227q0 -138 87 -223t227 -85q149 0 250 85l58 -78q-128 -105 -315 -105q-184 0 -301 114t-117 293q0 174 121.5 292.5t299.5 118.5
q171 0 278.5 -98.5t107.5 -256.5q0 -122 -60 -197.5t-157 -75.5q-79 0 -103 61q-50 -60 -128 -60q-74 0 -119.5 51t-45.5 134q0 105 64.5 178.5t158.5 73.5q71 0 108 -45l7 30h96zM535 299q1 99 -72 99q-47 0 -80 -47t-33 -115q0 -41 18.5 -64.5t51.5 -23.5q55 0 83.5 46.5
t31.5 104.5z" />
    <glyph glyph-name="A" unicode="A" horiz-adv-x="702" 
d="M554 0l-57 140h-292l-57 -140h-147l350 790l350 -790h-147zM255 262h192l-96 234z" />
    <glyph glyph-name="B" unicode="B" horiz-adv-x="635" 
d="M72 0v770h263q93 0 159 -65.5t66 -159.5q0 -77 -54 -134q52 -27 80.5 -77t28.5 -109q0 -93 -66 -159t-159 -66h-318zM202 446h133q39 0 67 27.5t28 68.5t-27.5 69.5t-67.5 28.5h-133v-194zM202 130h188q39 0 67 28.5t28 69.5q0 40 -27.5 68t-67.5 28h-188v-194z" />
    <glyph glyph-name="C" unicode="C" horiz-adv-x="675" 
d="M446 -10q-167 0 -283.5 115.5t-116.5 280.5t117 279.5t283 114.5q94 0 179 -45v-161q-83 74 -181 74q-111 0 -188.5 -76t-77.5 -187q0 -110 76.5 -186.5t188.5 -76.5q56 0 97.5 18t84.5 57v-162q-85 -45 -179 -45z" />
    <glyph glyph-name="D" unicode="D" horiz-adv-x="727" 
d="M72 0v770h224q160 0 272.5 -112.5t112.5 -272.5t-112.5 -272.5t-272.5 -112.5h-224zM202 130h94q107 0 181 74t74 181q0 106 -74 180.5t-181 74.5h-94v-510z" />
    <glyph glyph-name="E" unicode="E" horiz-adv-x="599" 
d="M72 0v770h480v-130h-350v-190h310v-130h-310v-190h350v-130h-480z" />
    <glyph glyph-name="F" unicode="F" horiz-adv-x="578" 
d="M72 0v770h480v-130h-350v-190h310v-130h-310v-320h-130z" />
    <glyph glyph-name="G" unicode="G" horiz-adv-x="780" 
d="M445 -10q-166 0 -282.5 115t-116.5 280t116.5 280t281.5 115q156 0 274 -112l-93 -93q-76 73 -181 73q-111 0 -188.5 -76t-77.5 -187q0 -110 77 -186.5t188 -76.5q87 0 156 51v147h-156v130h277v-356q-126 -104 -275 -104z" />
    <glyph glyph-name="H" unicode="H" horiz-adv-x="685" 
d="M72 0v770h130v-320h281v320h130v-770h-130v320h-281v-320h-130z" />
    <glyph glyph-name="I" unicode="I" horiz-adv-x="274" 
d="M72 0v770h130v-770h-130z" />
    <glyph glyph-name="J" unicode="J" horiz-adv-x="542" 
d="M259 -10q-95 0 -157 56.5t-62 142.5v105h130v-105q0 -32 25 -52t64 -20t64 20t25 52v581h130v-581q0 -86 -62 -142.5t-157 -56.5z" />
    <glyph glyph-name="K" unicode="K" horiz-adv-x="620" 
d="M620 0h-157l-261 407v-407h-130v770h130v-340l255 340h158l-269 -351z" />
    <glyph glyph-name="L" unicode="L" horiz-adv-x="503" 
d="M72 0v770h130v-640h290v-130h-420z" />
    <glyph glyph-name="M" unicode="M" horiz-adv-x="876" 
d="M72 0v790l366 -506l366 506v-790h-129v395l-237 -327l-236 327v-395h-130z" />
    <glyph glyph-name="N" unicode="N" horiz-adv-x="737" 
d="M665 -22l-463 495v-473h-130v790l463 -495v475h130v-792z" />
    <glyph glyph-name="O" unicode="O" horiz-adv-x="882" 
d="M441 -10q-165 0 -280 116.5t-115 278.5q0 165 116.5 280t278.5 115q165 0 280 -116.5t115 -278.5q0 -165 -116.5 -280t-278.5 -115zM441 120q109 0 187 77.5t78 187.5q0 109 -77.5 187t-187.5 78q-109 0 -187 -77.5t-78 -187.5q0 -109 77.5 -187t187.5 -78z" />
    <glyph glyph-name="P" unicode="P" horiz-adv-x="612" 
d="M72 0v770h287q104 0 173 -65t69 -177q0 -113 -69 -178t-173 -65h-157v-285h-130zM202 415h157q48 0 80 30t32 83q0 52 -32 82t-80 30h-157v-225z" />
    <glyph glyph-name="Q" unicode="Q" horiz-adv-x="882" 
d="M836 385q0 -149 -96 -258.5t-238 -131.5v-120h-122v120q-144 22 -239 133t-95 257q0 165 116.5 280t278.5 115q165 0 280 -116.5t115 -278.5zM502 127q88 21 146 92.5t58 165.5q0 109 -77.5 187t-187.5 78q-109 0 -187 -77.5t-78 -187.5q0 -93 57.5 -165t146.5 -93v127
h122v-127z" />
    <glyph glyph-name="R" unicode="R" horiz-adv-x="645" 
d="M625 0h-150l-158 285h-115v-285h-130v770h287q102 0 172 -68t70 -174q0 -81 -41.5 -141t-109.5 -86zM202 640v-225h147q55 0 88.5 29.5t33.5 83.5q0 53 -33.5 82.5t-88.5 29.5h-147z" />
    <glyph glyph-name="S" unicode="S" horiz-adv-x="546" 
d="M275 -10q-89 0 -157.5 49.5t-92.5 127.5l118 53q13 -47 47.5 -74t80.5 -27q50 0 81.5 31t31.5 78q0 31 -17.5 55t-45.5 40.5t-62 32t-68 34t-62 41.5t-45.5 60.5t-17.5 84.5q0 93 60 148.5t150 55.5q74 0 130.5 -39.5t78.5 -104.5l-117 -54q-8 36 -31.5 56t-57.5 20
q-37 0 -60.5 -22t-23.5 -56q0 -37 33 -64.5t79.5 -48.5t93.5 -47t80 -75.5t33 -118.5q0 -105 -68 -170.5t-171 -65.5z" />
    <glyph glyph-name="T" unicode="T" horiz-adv-x="563" 
d="M216 0v640h-198v130h525v-130h-197v-640h-130z" />
    <glyph glyph-name="U" unicode="U" horiz-adv-x="680" 
d="M64 770h130v-504q0 -62 42 -104t104 -42t104 42t42 104v504h130v-504q0 -115 -80.5 -195.5t-195.5 -80.5t-195.5 80.5t-80.5 195.5v504z" />
    <glyph glyph-name="V" unicode="V" horiz-adv-x="702" 
d="M351 -20l-350 790h154l196 -490l196 490h154z" />
    <glyph glyph-name="W" unicode="W" horiz-adv-x="993" 
d="M992 770l-350 -790l-145 328l-146 -328l-350 790h144l211 -501l77 183l-141 318h134l71 -167l70 167h134l-141 -318l77 -183l211 501h144z" />
    <glyph glyph-name="X" unicode="X" horiz-adv-x="654" 
d="M660 770l-241 -389l238 -381h-154l-176 282l-176 -282h-154l238 381l-241 389h154l179 -289l179 289h154z" />
    <glyph glyph-name="Y" unicode="Y" horiz-adv-x="592" 
d="M231 0v367l-237 403h161l141 -277l142 277h160l-237 -403v-367h-130z" />
    <glyph glyph-name="Z" unicode="Z" horiz-adv-x="679" 
d="M37 0l377 640h-359v130h586l-377 -640h377v-130h-604z" />
    <glyph glyph-name="bracketleft" unicode="[" horiz-adv-x="417" 
d="M70 -119l-3 1008h267v-119h-138l3 -770h138v-119h-267z" />
    <glyph glyph-name="backslash" unicode="\" horiz-adv-x="531" 
d="M394 -200l-415 1000h144l415 -1000h-144z" />
    <glyph glyph-name="bracketright" unicode="]" horiz-adv-x="419" 
d="M347 -119h-267v119h138l3 770h-138v119h267z" />
    <glyph glyph-name="asciicircum" unicode="^" horiz-adv-x="537" 
d="M27 274l188 496h89l205 -496h-133l-114 306l-106 -306h-129z" />
    <glyph glyph-name="underscore" unicode="_" horiz-adv-x="732" 
d="M87 0v115h558v-115h-558z" />
    <glyph glyph-name="grave" unicode="`" horiz-adv-x="313" 
d="M165 577l-130 117l113 80l130 -197h-113z" />
    <glyph glyph-name="a" unicode="a" horiz-adv-x="647" 
d="M284 -10q-103 0 -176 76.5t-73 186.5q0 109 73.5 186t175.5 77q105 0 164 -69v57h130v-504h-121l-3 65q-61 -75 -170 -75zM309 108q60 0 101.5 42.5t41.5 102.5t-41.5 102t-101.5 42q-61 0 -102.5 -42t-41.5 -102t42 -102.5t102 -42.5z" />
    <glyph glyph-name="b" unicode="b" horiz-adv-x="645" 
d="M358 -10q-106 0 -167 75l-3 -65h-121v770h130v-323q59 69 161 69q106 0 179 -76.5t73 -186.5t-73 -186.5t-179 -76.5zM336 105q61 0 102.5 43t41.5 105t-41.5 104.5t-102.5 42.5q-60 0 -102 -42.5t-42 -104.5t42 -105t102 -43z" />
    <glyph glyph-name="c" unicode="c" horiz-adv-x="459" 
d="M302 -10q-113 0 -190 76t-77 186t77 186t190 76q57 0 107 -22v-145q-41 49 -107 49q-61 0 -101.5 -41.5t-40.5 -102.5q0 -60 40.5 -101.5t101.5 -41.5q66 0 107 48v-145q-50 -22 -107 -22z" />
    <glyph glyph-name="d" unicode="d" horiz-adv-x="645" 
d="M287 -10q-106 0 -179 76.5t-73 186.5t73 186.5t179 76.5q103 0 161 -69v323h130v-770h-121l-3 65q-61 -75 -167 -75zM309 105q60 0 102 43t42 105t-42 104.5t-102 42.5q-61 0 -102.5 -42.5t-41.5 -104.5t41.5 -105t102.5 -43z" />
    <glyph glyph-name="e" unicode="e" horiz-adv-x="595" 
d="M560 257l-1 -28h-397q7 -61 46.5 -97.5t95.5 -36.5q87 0 129 73l104 -43q-31 -63 -92 -99t-140 -36q-118 0 -194 75.5t-76 186.5q0 110 75.5 186t190.5 76q110 0 184 -71.5t75 -185.5zM302 411q-91 0 -127 -83h247q-34 83 -120 83z" />
    <glyph glyph-name="f" unicode="f" horiz-adv-x="369" 
d="M99 0v399h-85v105h85v99q0 81 47 129t126 48q60 0 80 -16v-119q-24 19 -59 19q-29 0 -47 -21t-18 -55v-84h126v-105h-126v-399h-129z" />
    <glyph glyph-name="g" unicode="g" horiz-adv-x="650" 
d="M304 -240q-71 0 -138.5 32t-108.5 92l82 82q28 -43 71 -66.5t90 -23.5q65 0 107.5 42.5t42.5 111.5v30q-57 -65 -157 -65q-110 0 -184 74t-74 183q0 110 74 186t181 76q102 0 160 -68v58h131v-474q0 -121 -78.5 -195.5t-198.5 -74.5zM309 107q60 0 102.5 42.5t42.5 102.5
q0 61 -42.5 103t-102.5 42q-61 0 -102.5 -42t-41.5 -103q0 -60 42 -102.5t102 -42.5z" />
    <glyph glyph-name="h" unicode="h" horiz-adv-x="566" 
d="M67 0v770h129v-312q56 56 132 56q78 0 131 -54.5t53 -133.5v-326h-130v312q0 37 -25.5 61.5t-63.5 24.5q-41 0 -68.5 -25t-28.5 -62v-311h-129z" />
    <glyph glyph-name="i" unicode="i" horiz-adv-x="265" 
d="M132 593q-31 0 -53.5 22t-22.5 53t22.5 53t53.5 22q32 0 54 -22t22 -53t-22 -53t-54 -22zM68 0v504h128v-504h-128z" />
    <glyph glyph-name="j" unicode="j" horiz-adv-x="265" 
d="M133 593q-32 0 -54.5 22t-22.5 53t22.5 53t54.5 22q31 0 53 -22t22 -53t-22 -53t-53 -22zM-52 -230v116h55q29 0 47 21t18 55v542h129v-557q0 -81 -47 -129t-126 -48h-76z" />
    <glyph glyph-name="k" unicode="k" horiz-adv-x="553" 
d="M548 504l-203 -220l203 -284h-167l-184 274v-274h-130v770h130v-478l184 212h167z" />
    <glyph glyph-name="l" unicode="l" horiz-adv-x="265" 
d="M67 0v770h129v-770h-129z" />
    <glyph glyph-name="m" unicode="m" horiz-adv-x="853" 
d="M67 0v504h130v-50q49 60 122 60q88 0 144 -79q53 79 150 79q80 0 133 -56t53 -139v-319h-130v309q0 38 -24 63.5t-60 25.5q-39 0 -63 -27.5t-24 -67.5v-303h-130v309q0 38 -24 63.5t-62 25.5t-61.5 -27.5t-23.5 -67.5v-303h-130z" />
    <glyph glyph-name="n" unicode="n" horiz-adv-x="566" 
d="M67 0v504h129v-46q56 56 135 56q76 0 128.5 -54.5t52.5 -133.5v-326h-130v310q0 39 -26 64.5t-65 25.5q-40 0 -67 -26t-28 -64v-310h-129z" />
    <glyph glyph-name="o" unicode="o" horiz-adv-x="603" 
d="M302 -10q-113 0 -190 76t-77 186t77 186t190 76q112 0 189 -76t77 -186t-77 -186t-189 -76zM302 110q58 0 99 41.5t41 100.5t-41 100t-99 41q-60 0 -101.5 -41t-41.5 -100t41.5 -100.5t101.5 -41.5z" />
    <glyph glyph-name="p" unicode="p" horiz-adv-x="640" 
d="M67 -230v734h130v-54q64 64 160 64q102 0 175 -76.5t73 -185.5t-73 -185.5t-175 -76.5q-96 0 -160 64v-284h-130zM333 108q59 0 101 42t42 102t-42 102t-101 42t-101.5 -42t-42.5 -102t42.5 -102t101.5 -42z" />
    <glyph glyph-name="q" unicode="q" horiz-adv-x="642" 
d="M443 -230v284q-64 -64 -160 -64q-102 0 -175 76.5t-73 185.5t73 185.5t175 76.5q96 0 160 -64v54h130v-734h-130zM307 108q59 0 101.5 42t42.5 102t-42.5 102t-101.5 42t-101 -42t-42 -102t42 -102t101 -42z" />
    <glyph glyph-name="r" unicode="r" horiz-adv-x="380" 
d="M350 386q-66 13 -110 -24t-44 -139v-223h-129v504h129v-71q48 81 136 81q12 0 18 -1v-127z" />
    <glyph glyph-name="s" unicode="s" horiz-adv-x="443" 
d="M226 -10q-62 0 -113.5 21t-84.5 54l73 89q56 -58 121 -58q29 0 46.5 13.5t17.5 34.5q0 6 -1.5 11t-4.5 9t-6.5 7.5t-10 7t-11.5 6t-14.5 6t-15.5 5.5l-18 6t-19 7q-70 25 -107 58t-37 93q0 73 53.5 113.5t131.5 40.5q108 0 173 -72l-76 -77q-49 49 -101 49
q-24 0 -38.5 -12t-14.5 -31q0 -22 20 -34t67 -27q5 -1 8 -2q34 -11 56.5 -22t46.5 -29t36 -45.5t12 -63.5q0 -75 -52 -116.5t-137 -41.5z" />
    <glyph glyph-name="t" unicode="t" horiz-adv-x="369" 
d="M120 0v399h-99v105h99v181h130v-181h98v-105h-98v-399h-130z" />
    <glyph glyph-name="u" unicode="u" horiz-adv-x="547" 
d="M273 -10q-102 0 -160 54t-58 145v315h130v-314q0 -42 24.5 -64.5t63.5 -22.5q40 0 64.5 22.5t24.5 64.5v314h130v-315q0 -92 -58 -145.5t-161 -53.5z" />
    <glyph glyph-name="v" unicode="v" horiz-adv-x="518" 
d="M259 -20l-264 524h139l125 -284l125 284h139z" />
    <glyph glyph-name="w" unicode="w" horiz-adv-x="791" 
d="M796 504l-240 -524l-160 354l-161 -354l-240 524h141l109 -263l101 263h99l101 -263l109 263h141z" />
    <glyph glyph-name="x" unicode="x" horiz-adv-x="581" 
d="M0 0l212 252l-212 252h156l133 -165l135 165h155l-212 -252l212 -252h-156l-133 164l-133 -164h-157z" />
    <glyph glyph-name="y" unicode="y" horiz-adv-x="543" 
d="M403 504h138l-294 -734h-134l93 236l-204 498h142l130 -346z" />
    <glyph glyph-name="z" unicode="z" horiz-adv-x="508" 
d="M22 0l253 399h-238v105h441l-254 -399h252v-105h-454z" />
    <glyph glyph-name="braceleft" unicode="{" horiz-adv-x="382" 
d="M246 -121q-57 0 -93.5 46t-36.5 109v192q0 64 -11 85t-64 45v92q48 22 61.5 47t13.5 83v158q0 65 37 110t93 45h83v-121q-50 0 -66 -7.5t-16 -36.5v-161q0 -107 -82 -163q82 -56 82 -163v-195q0 -30 16 -37t66 -7v-121h-83z" />
    <glyph glyph-name="bar" unicode="|" horiz-adv-x="343" 
d="M111 -177v977h120v-977h-120z" />
    <glyph glyph-name="braceright" unicode="}" horiz-adv-x="353" 
d="M107 -121h-83v121q50 0 66 7t16 37v195q0 107 82 163q-82 56 -82 163v161q0 29 -16 36.5t-66 7.5v121h83q56 0 93 -45t37 -110v-158q0 -58 13.5 -83t61.5 -47v-92q-53 -24 -64 -45t-11 -85v-192q0 -63 -36.5 -109t-93.5 -46z" />
    <glyph glyph-name="asciitilde" unicode="~" horiz-adv-x="624" 
d="M142 279l-110 46q82 166 177 166q34 0 100 -43.5t94 -43.5q56 0 82 94l107 -45q-43 -90 -83.5 -128.5t-91.5 -38.5q-31 0 -61 13t-102 58q-69 44 -112 -78z" />
    <glyph glyph-name="DEL" horiz-adv-x="90" 
 />
    <glyph glyph-name="uni00A0" unicode="&#xa0;" horiz-adv-x="90" 
 />
    <glyph glyph-name="dieresis" unicode="&#xa8;" horiz-adv-x="409" 
d="M104 606q-28 0 -48.5 20t-20.5 49q0 28 20.5 48t48.5 20t48 -20t20 -48t-20 -48.5t-48 -20.5zM306 606q-28 0 -48.5 20t-20.5 49q0 28 20.5 48t48.5 20t48 -20t20 -48t-20 -48.5t-48 -20.5z" />
    <glyph glyph-name="copyright" unicode="&#xa9;" horiz-adv-x="848" 
d="M424 0q-159 0 -268.5 109.5t-109.5 268.5t109.5 268.5t268.5 109.5t268.5 -109.5t109.5 -268.5t-109.5 -268.5t-268.5 -109.5zM424 67q129 0 220 90.5t91 220.5q0 129 -90.5 220t-220.5 91q-129 0 -220 -90.5t-91 -220.5q0 -129 90.5 -220t220.5 -91zM445 142
q-93 0 -162.5 70.5t-69.5 166.5q0 92 65 162t157 70q70 0 119 -26v-95q-44 43 -107 43q-67 0 -112 -46t-45 -109q0 -64 45.5 -109.5t111.5 -45.5q63 0 107 43v-95q-55 -29 -109 -29z" />
    <glyph glyph-name="registered" unicode="&#xae;" horiz-adv-x="638" 
d="M319 234q-59 0 -106 22q-49 20 -87 58q-35 35 -59 86q-21 51 -21 107t21 107q24 51 59 86q38 38 87 58q47 22 106 22t106 -22q49 -20 87 -58q35 -35 59 -86q21 -51 21 -107t-21 -107q-24 -51 -59 -86q-38 -38 -87 -58q-47 -22 -106 -22zM319 294q45 0 83 16q36 15 67 46
q33 33 46 68q17 35 17 83q0 46 -17 83q-14 36 -46 68q-31 31 -67 46q-38 16 -83 16t-84 -16q-36 -16 -66 -46q-32 -32 -46 -68q-17 -37 -17 -83q0 -48 17 -83q13 -35 46 -68q30 -30 66 -46q39 -16 84 -16zM234 362v285h112q35 0 59 -25q24 -24 24 -59q0 -27 -17 -50
q-16 -22 -44 -30l63 -121h-56l-59 118h-34v-118h-48zM282 528h64q12 0 25 10q10 13 10 25q0 15 -10 25q-11 11 -25 11h-64v-71z" />
    <glyph glyph-name="macron" unicode="&#xaf;" horiz-adv-x="388" 
d="M35 595v104h318v-104h-318z" />
    <glyph glyph-name="acute" unicode="&#xb4;" horiz-adv-x="313" 
d="M35 577l130 197l113 -80l-130 -117h-113z" />
    <glyph glyph-name="cedilla" unicode="&#xb8;" horiz-adv-x="285" 
d="M153 -43q44 -6 70.5 -36t26.5 -74q0 -48 -31 -79.5t-83 -31.5q-63 0 -101 42l44 59q22 -34 56 -34q18 0 30.5 12t12.5 32q0 22 -13 33.5t-31 11.5q-25 0 -37 -16l-46 46l62 86h85z" />
    <glyph glyph-name="Agrave" unicode="&#xc0;" horiz-adv-x="702" 
d="M407 843h-113l-110 87l93 80zM554 0l-57 140h-292l-57 -140h-147l350 790l350 -790h-147zM255 262h192l-96 234z" />
    <glyph glyph-name="Aacute" unicode="&#xc1;" horiz-adv-x="702" 
d="M527 954l-130 -107h-113l150 187zM554 0l-57 140h-292l-57 -140h-147l350 790l350 -790h-147zM255 262h192l-96 234z" />
    <glyph glyph-name="Acircumflex" unicode="&#xc2;" horiz-adv-x="702" 
d="M351 941l-68 -82h-104l110 157h124l110 -157h-104zM554 0l-57 140h-292l-57 -140h-147l350 790l350 -790h-147zM255 262h192l-96 234z" />
    <glyph glyph-name="Atilde" unicode="&#xc3;" horiz-adv-x="702" 
d="M278 883q-39 0 -52 -67l-94 39q33 132 136 132q34 0 60.5 -16.5t49 -32.5t45.5 -16q51 0 56 71l91 -37q-33 -134 -139 -134q-35 0 -63.5 15t-50 30.5t-39.5 15.5zM554 0l-57 140h-292l-57 -140h-147l350 790l350 -790h-147zM255 262h192l-96 234z" />
    <glyph glyph-name="Adieresis" unicode="&#xc4;" horiz-adv-x="702" 
d="M250 826q-28 0 -48.5 20t-20.5 49q0 28 20.5 48t48.5 20t48 -20t20 -48t-20 -48.5t-48 -20.5zM452 826q-28 0 -48.5 20t-20.5 49q0 28 20.5 48t48.5 20t48 -20t20 -48t-20 -48.5t-48 -20.5zM554 0l-57 140h-292l-57 -140h-147l350 790l350 -790h-147zM255 262h192
l-96 234z" />
    <glyph glyph-name="Aring" unicode="&#xc5;" horiz-adv-x="702" 
d="M554 0l-57 140h-292l-57 -140h-147l316 713q-54 11 -89 54t-35 100q0 65 45.5 111.5t112.5 46.5q65 0 111.5 -45.5t46.5 -112.5q0 -57 -35 -100t-89 -54l316 -713h-147zM276 867q0 -31 21.5 -53t53.5 -22q31 0 53 21.5t22 53.5q0 31 -21.5 53t-53.5 22q-31 0 -53 -21.5
t-22 -53.5zM255 262h192l-96 234z" />
    <glyph glyph-name="AE" unicode="&#xc6;" horiz-adv-x="986" 
d="M939 640h-345v-195h305v-120h-305v-195h345v-130h-480v170h-233l-73 -170h-152l350 770h588v-130zM274 280h185v385h-19z" />
    <glyph glyph-name="Ccedilla" unicode="&#xc7;" horiz-adv-x="675" 
d="M444 648q-111 0 -188.5 -76t-77.5 -187q0 -110 76.5 -186.5t188.5 -76.5q56 0 97.5 18t84.5 57v-162q-72 -37 -142 -43l-31 -35q44 -6 70.5 -36t26.5 -74q0 -48 -31 -79.5t-83 -31.5q-63 0 -101 42l44 59q22 -34 56 -34q18 0 30.5 12t12.5 32q0 22 -13 33.5t-31 11.5
q-25 0 -37 -16l-46 46l51 70q-151 17 -253 129t-102 265q0 165 117 279.5t283 114.5q94 0 179 -45v-161q-83 74 -181 74z" />
    <glyph glyph-name="Egrave" unicode="&#xc8;" horiz-adv-x="599" 
d="M255 843l-110 87l93 80l130 -167h-113zM72 0v770h480v-130h-350v-190h310v-130h-310v-190h350v-130h-480z" />
    <glyph glyph-name="Eacute" unicode="&#xc9;" horiz-adv-x="599" 
d="M245 847l150 187l93 -80l-130 -107h-113zM72 0v770h480v-130h-350v-190h310v-130h-310v-190h350v-130h-480z" />
    <glyph glyph-name="Ecircumflex" unicode="&#xca;" horiz-adv-x="599" 
d="M140 859l110 157h124l110 -157h-104l-68 82l-68 -82h-104zM72 0v770h480v-130h-350v-190h310v-130h-310v-190h350v-130h-480z" />
    <glyph glyph-name="Edieresis" unicode="&#xcb;" horiz-adv-x="599" 
d="M211 826q-29 0 -49 20t-20 49q0 28 20.5 48t48.5 20t48 -20t20 -48t-20 -48.5t-48 -20.5zM413 826q-29 0 -49 20t-20 49q0 28 20.5 48t48.5 20t48 -20t20 -48t-20 -48.5t-48 -20.5zM72 0v770h480v-130h-350v-190h310v-130h-310v-190h350v-130h-480z" />
    <glyph glyph-name="Igrave" unicode="&#xcc;" horiz-adv-x="274" 
d="M80 843l-110 87l93 80l130 -167h-113zM72 0v770h130v-770h-130z" />
    <glyph glyph-name="Iacute" unicode="&#xcd;" horiz-adv-x="274" 
d="M70 847l150 187l93 -80l-130 -107h-113zM72 0v770h130v-770h-130z" />
    <glyph glyph-name="Icircumflex" unicode="&#xce;" horiz-adv-x="274" 
d="M-35 859l110 157h124l110 -157h-104l-68 82l-68 -82h-104zM72 0v770h130v-770h-130z" />
    <glyph glyph-name="Idieresis" unicode="&#xcf;" horiz-adv-x="274" 
d="M36 826q-28 0 -48.5 20t-20.5 49q0 28 20.5 48t48.5 20t48 -20t20 -48t-20 -48.5t-48 -20.5zM238 826q-28 0 -48.5 20t-20.5 49q0 28 20.5 48t48.5 20t48 -20t20 -48t-20 -48.5t-48 -20.5zM72 0v770h130v-770h-130z" />
    <glyph glyph-name="Eth" unicode="&#xd0;" horiz-adv-x="727" 
d="M296 770q160 0 272.5 -112.5t112.5 -272.5t-112.5 -272.5t-272.5 -112.5h-224v338h-77v94h77v338h224zM296 130q107 0 181 74t74 181q0 106 -74 180.5t-181 74.5h-94v-208h201v-94h-201v-208h94z" />
    <glyph glyph-name="Ntilde" unicode="&#xd1;" horiz-adv-x="737" 
d="M244 816l-94 39q33 132 136 132q34 0 60.5 -16.5t49 -32.5t45.5 -16q51 0 56 71l91 -37q-33 -134 -139 -134q-35 0 -63.5 15t-50 30.5t-39.5 15.5q-39 0 -52 -67zM665 -22l-463 495v-473h-130v790l463 -495v475h130v-792z" />
    <glyph glyph-name="Ograve" unicode="&#xd2;" horiz-adv-x="882" 
d="M384 843l-110 87l93 80l130 -167h-113zM441 -10q-165 0 -280 116.5t-115 278.5q0 165 116.5 280t278.5 115q165 0 280 -116.5t115 -278.5q0 -165 -116.5 -280t-278.5 -115zM441 120q109 0 187 77.5t78 187.5q0 109 -77.5 187t-187.5 78q-109 0 -187 -77.5t-78 -187.5
q0 -109 77.5 -187t187.5 -78z" />
    <glyph glyph-name="Oacute" unicode="&#xd3;" horiz-adv-x="882" 
d="M374 847l150 187l93 -80l-130 -107h-113zM441 -10q-165 0 -280 116.5t-115 278.5q0 165 116.5 280t278.5 115q165 0 280 -116.5t115 -278.5q0 -165 -116.5 -280t-278.5 -115zM441 120q109 0 187 77.5t78 187.5q0 109 -77.5 187t-187.5 78q-109 0 -187 -77.5t-78 -187.5
q0 -109 77.5 -187t187.5 -78z" />
    <glyph glyph-name="Ocircumflex" unicode="&#xd4;" horiz-adv-x="882" 
d="M269 859l110 157h124l110 -157h-104l-68 82l-68 -82h-104zM441 -10q-165 0 -280 116.5t-115 278.5q0 165 116.5 280t278.5 115q165 0 280 -116.5t115 -278.5q0 -165 -116.5 -280t-278.5 -115zM441 120q109 0 187 77.5t78 187.5q0 109 -77.5 187t-187.5 78
q-109 0 -187 -77.5t-78 -187.5q0 -109 77.5 -187t187.5 -78z" />
    <glyph glyph-name="Otilde" unicode="&#xd5;" horiz-adv-x="882" 
d="M316 816l-94 39q33 132 136 132q34 0 60.5 -16.5t49 -32.5t45.5 -16q51 0 56 71l91 -37q-33 -134 -139 -134q-35 0 -63.5 15t-50 30.5t-39.5 15.5q-39 0 -52 -67zM441 -10q-165 0 -280 116.5t-115 278.5q0 165 116.5 280t278.5 115q165 0 280 -116.5t115 -278.5
q0 -165 -116.5 -280t-278.5 -115zM441 120q109 0 187 77.5t78 187.5q0 109 -77.5 187t-187.5 78q-109 0 -187 -77.5t-78 -187.5q0 -109 77.5 -187t187.5 -78z" />
    <glyph glyph-name="Odieresis" unicode="&#xd6;" horiz-adv-x="882" 
d="M340 826q-28 0 -48.5 20t-20.5 49q0 28 20.5 48t48.5 20t48 -20t20 -48t-20 -48.5t-48 -20.5zM542 826q-28 0 -48.5 20t-20.5 49q0 28 20.5 48t48.5 20t48 -20t20 -48t-20 -48.5t-48 -20.5zM441 -10q-165 0 -280 116.5t-115 278.5q0 165 116.5 280t278.5 115
q165 0 280 -116.5t115 -278.5q0 -165 -116.5 -280t-278.5 -115zM441 120q109 0 187 77.5t78 187.5q0 109 -77.5 187t-187.5 78q-109 0 -187 -77.5t-78 -187.5q0 -109 77.5 -187t187.5 -78z" />
    <glyph glyph-name="multiply" unicode="&#xd7;" horiz-adv-x="644" 
d="M171 154l-81 81l151 150l-141 142l82 82l141 -141l151 151l80 -81l-150 -151l141 -141l-83 -82l-141 141z" />
    <glyph glyph-name="Oslash" unicode="&#xd8;" horiz-adv-x="882" 
d="M757 623q79 -106 79 -238q0 -165 -116.5 -280t-278.5 -115q-132 0 -238 79l-58 -58l-78 78l58 58q-79 106 -79 238q0 165 116.5 280t278.5 115q132 0 238 -79l58 58l78 -78zM176 385q0 -79 43 -144l366 366q-65 43 -144 43q-109 0 -187 -77.5t-78 -187.5zM441 120
q109 0 187 77.5t78 187.5q0 79 -43 144l-366 -366q65 -43 144 -43z" />
    <glyph glyph-name="Ugrave" unicode="&#xd9;" horiz-adv-x="680" 
d="M283 843l-110 87l93 80l130 -167h-113zM64 770h130v-504q0 -62 42 -104t104 -42t104 42t42 104v504h130v-504q0 -115 -80.5 -195.5t-195.5 -80.5t-195.5 80.5t-80.5 195.5v504z" />
    <glyph glyph-name="Uacute" unicode="&#xda;" horiz-adv-x="680" 
d="M273 847l150 187l93 -80l-130 -107h-113zM64 770h130v-504q0 -62 42 -104t104 -42t104 42t42 104v504h130v-504q0 -115 -80.5 -195.5t-195.5 -80.5t-195.5 80.5t-80.5 195.5v504z" />
    <glyph glyph-name="Ucircumflex" unicode="&#xdb;" horiz-adv-x="680" 
d="M168 859l110 157h124l110 -157h-104l-68 82l-68 -82h-104zM64 770h130v-504q0 -62 42 -104t104 -42t104 42t42 104v504h130v-504q0 -115 -80.5 -195.5t-195.5 -80.5t-195.5 80.5t-80.5 195.5v504z" />
    <glyph glyph-name="Udieresis" unicode="&#xdc;" horiz-adv-x="680" 
d="M239 826q-29 0 -49 20t-20 49q0 28 20.5 48t48.5 20t48 -20t20 -48t-20 -48.5t-48 -20.5zM441 826q-29 0 -49 20t-20 49q0 28 20.5 48t48.5 20t48 -20t20 -48t-20 -48.5t-48 -20.5zM64 770h130v-504q0 -62 42 -104t104 -42t104 42t42 104v504h130v-504
q0 -115 -80.5 -195.5t-195.5 -80.5t-195.5 80.5t-80.5 195.5v504z" />
    <glyph glyph-name="Yacute" unicode="&#xdd;" horiz-adv-x="592" 
d="M229 847l150 187l93 -80l-130 -107h-113zM231 0v367l-237 403h161l141 -277l142 277h160l-237 -403v-367h-130z" />
    <glyph glyph-name="Thorn" unicode="&#xde;" horiz-adv-x="644" 
d="M390 630q93 0 159 -65.5t66 -159.5q0 -93 -65.5 -159t-159.5 -66h-173v-180h-130v770h130v-140h173zM390 310q39 0 67 27.5t28 67.5q0 39 -27.5 67t-67.5 28h-173v-190h173z" />
    <glyph glyph-name="germandbls" unicode="&#xdf;" horiz-adv-x="577" 
d="M72 -1v596q0 90 57 137.5t145 47.5q86 0 140.5 -46t54.5 -130q0 -87 -60 -127q148 -56 148 -237q0 -120 -60 -183t-166 -63q-33 0 -67 6v128q32 -6 57 -6q53 0 78.5 29.5t25.5 93.5q0 162 -161 162v116q44 0 63.5 23.5t19.5 54.5q0 32 -19.5 49.5t-48.5 17.5
q-34 0 -54.5 -22t-20.5 -51v-596h-132z" />
    <glyph glyph-name="agrave" unicode="&#xe0;" horiz-adv-x="647" 
d="M275 577l-130 117l113 80l130 -197h-113zM284 -10q-103 0 -176 76.5t-73 186.5q0 109 73.5 186t175.5 77q105 0 164 -69v57h130v-504h-121l-3 65q-61 -75 -170 -75zM309 108q60 0 101.5 42.5t41.5 102.5t-41.5 102t-101.5 42q-61 0 -102.5 -42t-41.5 -102t42 -102.5
t102 -42.5z" />
    <glyph glyph-name="aacute" unicode="&#xe1;" horiz-adv-x="647" 
d="M265 581l130 197l113 -80l-130 -117h-113zM284 -10q-103 0 -176 76.5t-73 186.5q0 109 73.5 186t175.5 77q105 0 164 -69v57h130v-504h-121l-3 65q-61 -75 -170 -75zM309 108q60 0 101.5 42.5t41.5 102.5t-41.5 102t-101.5 42q-61 0 -102.5 -42t-41.5 -102t42 -102.5
t102 -42.5z" />
    <glyph glyph-name="acircumflex" unicode="&#xe2;" horiz-adv-x="647" 
d="M160 573l110 197h124l110 -197h-104l-68 122l-68 -122h-104zM284 -10q-103 0 -176 76.5t-73 186.5q0 109 73.5 186t175.5 77q105 0 164 -69v57h130v-504h-121l-3 65q-61 -75 -170 -75zM309 108q60 0 101.5 42.5t41.5 102.5t-41.5 102t-101.5 42q-61 0 -102.5 -42
t-41.5 -102t42 -102.5t102 -42.5z" />
    <glyph glyph-name="atilde" unicode="&#xe3;" horiz-adv-x="647" 
d="M207 560l-94 39q33 132 136 132q34 0 60.5 -16.5t49 -32.5t45.5 -16q51 0 56 71l91 -37q-33 -134 -139 -134q-35 0 -63.5 15t-50 30.5t-39.5 15.5q-39 0 -52 -67zM284 -10q-103 0 -176 76.5t-73 186.5q0 109 73.5 186t175.5 77q105 0 164 -69v57h130v-504h-121l-3 65
q-61 -75 -170 -75zM309 108q60 0 101.5 42.5t41.5 102.5t-41.5 102t-101.5 42q-61 0 -102.5 -42t-41.5 -102t42 -102.5t102 -42.5z" />
    <glyph glyph-name="adieresis" unicode="&#xe4;" horiz-adv-x="647" 
d="M231 610q-29 0 -49 20t-20 49q0 28 20.5 48t48.5 20t48 -20t20 -48t-20 -48.5t-48 -20.5zM433 610q-29 0 -49 20t-20 49q0 28 20.5 48t48.5 20t48 -20t20 -48t-20 -48.5t-48 -20.5zM284 -10q-103 0 -176 76.5t-73 186.5q0 109 73.5 186t175.5 77q105 0 164 -69v57h130
v-504h-121l-3 65q-61 -75 -170 -75zM309 108q60 0 101.5 42.5t41.5 102.5t-41.5 102t-101.5 42q-61 0 -102.5 -42t-41.5 -102t42 -102.5t102 -42.5z" />
    <glyph glyph-name="aring" unicode="&#xe5;" horiz-adv-x="647" 
d="M332 554q-65 0 -111.5 45.5t-46.5 112.5q0 65 45.5 111.5t112.5 46.5q65 0 111.5 -45.5t46.5 -112.5q0 -66 -46 -112t-112 -46zM332 637q31 0 53 21.5t22 53.5q0 31 -21.5 53t-53.5 22q-31 0 -53 -21.5t-22 -53.5q0 -31 21.5 -53t53.5 -22zM284 -10q-103 0 -176 76.5
t-73 186.5q0 109 73.5 186t175.5 77q105 0 164 -69v57h130v-504h-121l-3 65q-61 -75 -170 -75zM309 108q60 0 101.5 42.5t41.5 102.5t-41.5 102t-101.5 42q-61 0 -102.5 -42t-41.5 -102t42 -102.5t102 -42.5z" />
    <glyph glyph-name="ae" unicode="&#xe6;" horiz-adv-x="916" 
d="M881 257l-1 -28h-397q7 -61 46.5 -97.5t95.5 -36.5q87 0 129 73l104 -43q-31 -63 -92 -99t-140 -36q-135 0 -212 95q-70 -95 -182 -95q-85 0 -141 44.5t-56 125.5q0 79 61 156h259v8q0 82 -101 82h-158v98h160q124 0 182 -60q73 70 184 70q110 0 184 -71.5t75 -185.5z
M623 411q-91 0 -127 -83h247q-34 83 -120 83zM238 90q74 0 117 74v65h-166q-24 -25 -24 -64q0 -75 73 -75z" />
    <glyph glyph-name="ccedilla" unicode="&#xe7;" horiz-adv-x="459" 
d="M302 396q-61 0 -101.5 -41.5t-40.5 -102.5q0 -60 40.5 -101.5t101.5 -41.5q66 0 107 48v-145q-40 -18 -88 -21l-30 -34q44 -6 70.5 -36t26.5 -74q0 -48 -31 -79.5t-83 -31.5q-63 0 -101 42l44 59q22 -34 56 -34q18 0 30.5 12t12.5 32q0 22 -13 33.5t-31 11.5
q-25 0 -37 -16l-46 46l53 74q-91 20 -149 91t-58 165q0 110 77 186t190 76q57 0 107 -22v-145q-41 49 -107 49z" />
    <glyph glyph-name="egrave" unicode="&#xe8;" horiz-adv-x="595" 
d="M347 577h-113l-130 117l113 80zM560 257l-1 -28h-397q7 -61 46.5 -97.5t95.5 -36.5q87 0 129 73l104 -43q-31 -63 -92 -99t-140 -36q-118 0 -194 75.5t-76 186.5q0 110 75.5 186t190.5 76q110 0 184 -71.5t75 -185.5zM302 411q-91 0 -127 -83h247q-34 83 -120 83z" />
    <glyph glyph-name="eacute" unicode="&#xe9;" horiz-adv-x="595" 
d="M467 698l-130 -117h-113l130 197zM560 257l-1 -28h-397q7 -61 46.5 -97.5t95.5 -36.5q87 0 129 73l104 -43q-31 -63 -92 -99t-140 -36q-118 0 -194 75.5t-76 186.5q0 110 75.5 186t190.5 76q110 0 184 -71.5t75 -185.5zM302 411q-91 0 -127 -83h247q-34 83 -120 83z" />
    <glyph glyph-name="ecircumflex" unicode="&#xea;" horiz-adv-x="595" 
d="M291 695l-68 -122h-104l110 197h124l110 -197h-104zM560 257l-1 -28h-397q7 -61 46.5 -97.5t95.5 -36.5q87 0 129 73l104 -43q-31 -63 -92 -99t-140 -36q-118 0 -194 75.5t-76 186.5q0 110 75.5 186t190.5 76q110 0 184 -71.5t75 -185.5zM302 411q-91 0 -127 -83h247
q-34 83 -120 83z" />
    <glyph glyph-name="edieresis" unicode="&#xeb;" horiz-adv-x="595" 
d="M190 610q-28 0 -48.5 20t-20.5 49q0 28 20.5 48t48.5 20t48 -20t20 -48t-20 -48.5t-48 -20.5zM392 610q-28 0 -48.5 20t-20.5 49q0 28 20.5 48t48.5 20t48 -20t20 -48t-20 -48.5t-48 -20.5zM560 257l-1 -28h-397q7 -61 46.5 -97.5t95.5 -36.5q87 0 129 73l104 -43
q-31 -63 -92 -99t-140 -36q-118 0 -194 75.5t-76 186.5q0 110 75.5 186t190.5 76q110 0 184 -71.5t75 -185.5zM302 411q-91 0 -127 -83h247q-34 83 -120 83z" />
    <glyph glyph-name="igrave" unicode="&#xec;" horiz-adv-x="264" 
d="M75 577l-130 117l113 80l130 -197h-113zM67 0v504h128v-504h-128z" />
    <glyph glyph-name="iacute" unicode="&#xed;" horiz-adv-x="264" 
d="M65 581l130 197l113 -80l-130 -117h-113zM67 0v504h128v-504h-128z" />
    <glyph glyph-name="icircumflex" unicode="&#xee;" horiz-adv-x="264" 
d="M-40 573l110 197h124l110 -197h-104l-68 122l-68 -122h-104zM67 0v504h128v-504h-128z" />
    <glyph glyph-name="idieresis" unicode="&#xef;" horiz-adv-x="264" 
d="M31 610q-29 0 -49 20t-20 49q0 28 20.5 48t48.5 20t48 -20t20 -48t-20 -48.5t-48 -20.5zM233 610q-29 0 -49 20t-20 49q0 28 20.5 48t48.5 20t48 -20t20 -48t-20 -48.5t-48 -20.5zM67 0v504h128v-504h-128z" />
    <glyph glyph-name="eth" unicode="&#xf0;" horiz-adv-x="589" 
d="M479 421q61 -98 61 -175q0 -106 -71 -182t-178 -76q-105 0 -178 75.5t-73 180.5q0 104 66 179t171 81l-45 71l-83 -30l-35 93l65 24l-68 108h149l40 -64l71 26l35 -93l-52 -19zM290 118q52 0 88 37.5t36 90.5t-36 90.5t-88 37.5t-88 -37.5t-36 -90.5t36 -90.5t88 -37.5z
" />
    <glyph glyph-name="ntilde" unicode="&#xf1;" horiz-adv-x="566" 
d="M156 560l-94 39q33 132 136 132q34 0 60.5 -16.5t49 -32.5t45.5 -16q51 0 56 71l91 -37q-33 -134 -139 -134q-35 0 -63.5 15t-50 30.5t-39.5 15.5q-39 0 -52 -67zM67 0v504h129v-46q56 56 135 56q76 0 128.5 -54.5t52.5 -133.5v-326h-130v310q0 39 -26 64.5t-65 25.5
q-40 0 -67 -26t-28 -64v-310h-129z" />
    <glyph glyph-name="ograve" unicode="&#xf2;" horiz-adv-x="603" 
d="M245 577l-130 117l113 80l130 -197h-113zM302 -10q-113 0 -190 76t-77 186t77 186t190 76q112 0 189 -76t77 -186t-77 -186t-189 -76zM302 110q58 0 99 41.5t41 100.5t-41 100t-99 41q-60 0 -101.5 -41t-41.5 -100t41.5 -100.5t101.5 -41.5z" />
    <glyph glyph-name="oacute" unicode="&#xf3;" horiz-adv-x="603" 
d="M235 581l130 197l113 -80l-130 -117h-113zM302 -10q-113 0 -190 76t-77 186t77 186t190 76q112 0 189 -76t77 -186t-77 -186t-189 -76zM302 110q58 0 99 41.5t41 100.5t-41 100t-99 41q-60 0 -101.5 -41t-41.5 -100t41.5 -100.5t101.5 -41.5z" />
    <glyph glyph-name="ocircumflex" unicode="&#xf4;" horiz-adv-x="603" 
d="M130 573l110 197h124l110 -197h-104l-68 122l-68 -122h-104zM302 -10q-113 0 -190 76t-77 186t77 186t190 76q112 0 189 -76t77 -186t-77 -186t-189 -76zM302 110q58 0 99 41.5t41 100.5t-41 100t-99 41q-60 0 -101.5 -41t-41.5 -100t41.5 -100.5t101.5 -41.5z" />
    <glyph glyph-name="otilde" unicode="&#xf5;" horiz-adv-x="603" 
d="M177 560l-94 39q33 132 136 132q34 0 60.5 -16.5t49 -32.5t45.5 -16q51 0 56 71l91 -37q-33 -134 -139 -134q-35 0 -63.5 15t-50 30.5t-39.5 15.5q-39 0 -52 -67zM302 -10q-113 0 -190 76t-77 186t77 186t190 76q112 0 189 -76t77 -186t-77 -186t-189 -76zM302 110
q58 0 99 41.5t41 100.5t-41 100t-99 41q-60 0 -101.5 -41t-41.5 -100t41.5 -100.5t101.5 -41.5z" />
    <glyph glyph-name="odieresis" unicode="&#xf6;" horiz-adv-x="603" 
d="M201 610q-29 0 -49 20t-20 49q0 28 20.5 48t48.5 20t48 -20t20 -48t-20 -48.5t-48 -20.5zM403 610q-29 0 -49 20t-20 49q0 28 20.5 48t48.5 20t48 -20t20 -48t-20 -48.5t-48 -20.5zM302 -10q-113 0 -190 76t-77 186t77 186t190 76q112 0 189 -76t77 -186t-77 -186
t-189 -76zM302 110q58 0 99 41.5t41 100.5t-41 100t-99 41q-60 0 -101.5 -41t-41.5 -100t41.5 -100.5t101.5 -41.5z" />
    <glyph glyph-name="divide" unicode="&#xf7;" horiz-adv-x="588" 
d="M294 487q-40 0 -68 27.5t-28 68.5q0 39 28 68t68 29q42 0 69.5 -29t27.5 -68q0 -41 -27.5 -68.5t-69.5 -27.5zM90 328v114h408v-114h-408zM294 87q-40 0 -68 27.5t-28 68.5q0 39 28 68t68 29q42 0 69.5 -29t27.5 -68q0 -41 -27.5 -68.5t-69.5 -27.5z" />
    <glyph glyph-name="oslash" unicode="&#xf8;" horiz-adv-x="603" 
d="M577 469l-60 -60q51 -70 51 -157q0 -110 -77 -186t-189 -76q-87 0 -156 48l-61 -61l-57 57l60 60q-53 67 -53 158q0 110 77 186t190 76q88 0 156 -49l62 62zM159 252q0 -39 18 -69l192 193q-31 17 -67 17q-60 0 -101.5 -41t-41.5 -100zM442 252q0 34 -16 66l-192 -192
q32 -16 68 -16q58 0 99 41.5t41 100.5z" />
    <glyph glyph-name="ugrave" unicode="&#xf9;" horiz-adv-x="547" 
d="M217 577l-130 117l113 80l130 -197h-113zM273 -10q-102 0 -160 54t-58 145v315h130v-314q0 -42 24.5 -64.5t63.5 -22.5q40 0 64.5 22.5t24.5 64.5v314h130v-315q0 -92 -58 -145.5t-161 -53.5z" />
    <glyph glyph-name="uacute" unicode="&#xfa;" horiz-adv-x="547" 
d="M207 581l130 197l113 -80l-130 -117h-113zM273 -10q-102 0 -160 54t-58 145v315h130v-314q0 -42 24.5 -64.5t63.5 -22.5q40 0 64.5 22.5t24.5 64.5v314h130v-315q0 -92 -58 -145.5t-161 -53.5z" />
    <glyph glyph-name="ucircumflex" unicode="&#xfb;" horiz-adv-x="547" 
d="M102 573l110 197h124l110 -197h-104l-68 122l-68 -122h-104zM273 -10q-102 0 -160 54t-58 145v315h130v-314q0 -42 24.5 -64.5t63.5 -22.5q40 0 64.5 22.5t24.5 64.5v314h130v-315q0 -92 -58 -145.5t-161 -53.5z" />
    <glyph glyph-name="udieresis" unicode="&#xfc;" horiz-adv-x="547" 
d="M173 610q-29 0 -49 20t-20 49q0 28 20.5 48t48.5 20t48 -20t20 -48t-20 -48.5t-48 -20.5zM375 610q-29 0 -49 20t-20 49q0 28 20.5 48t48.5 20t48 -20t20 -48t-20 -48.5t-48 -20.5zM273 -10q-102 0 -160 54t-58 145v315h130v-314q0 -42 24.5 -64.5t63.5 -22.5
q40 0 64.5 22.5t24.5 64.5v314h130v-315q0 -92 -58 -145.5t-161 -53.5z" />
    <glyph glyph-name="yacute" unicode="&#xfd;" horiz-adv-x="543" 
d="M450 698l-130 -117h-113l130 197zM403 504h138l-294 -734h-134l93 236l-204 498h142l130 -346z" />
    <glyph glyph-name="thorn" unicode="&#xfe;" horiz-adv-x="653" 
d="M80 -230v1000h130v-320q64 64 160 64q102 0 175 -76.5t73 -185.5t-73 -185.5t-175 -76.5q-96 0 -160 64v-284h-130zM346 108q59 0 101 42t42 102t-42 102t-101 42t-101.5 -42t-42.5 -102t42.5 -102t101.5 -42z" />
    <glyph glyph-name="ydieresis" unicode="&#xff;" horiz-adv-x="543" 
d="M173 610q-29 0 -49 20t-20 49q0 28 20.5 48t48.5 20t48 -20t20 -48t-20 -48.5t-48 -20.5zM375 610q-29 0 -49 20t-20 49q0 28 20.5 48t48.5 20t48 -20t20 -48t-20 -48.5t-48 -20.5zM403 504h138l-294 -734h-134l93 236l-204 498h142l130 -346z" />
    <glyph glyph-name="Amacron" unicode="&#x100;" horiz-adv-x="702" 
d="M510 939v-104h-318v104h318zM554 0l-57 140h-292l-57 -140h-147l350 790l350 -790h-147zM255 262h192l-96 234z" />
    <glyph glyph-name="amacron" unicode="&#x101;" horiz-adv-x="647" 
d="M173 599v104h318v-104h-318zM284 -10q-103 0 -176 76.5t-73 186.5q0 109 73.5 186t175.5 77q105 0 164 -69v57h130v-504h-121l-3 65q-61 -75 -170 -75zM309 108q60 0 101.5 42.5t41.5 102.5t-41.5 102t-101.5 42q-61 0 -102.5 -42t-41.5 -102t42 -102.5t102 -42.5z" />
    <glyph glyph-name="Abreve" unicode="&#x102;" horiz-adv-x="702" 
d="M358 818q-79 0 -131.5 50.5t-52.5 126.5v25h99v-25q0 -32 22.5 -55t54.5 -23t55 23t23 55v25h99v-25q0 -73 -50 -125t-119 -52zM554 0l-57 140h-292l-57 -140h-147l350 790l350 -790h-147zM255 262h192l-96 234z" />
    <glyph glyph-name="abreve" unicode="&#x103;" horiz-adv-x="647" 
d="M339 572q-79 0 -131.5 50.5t-52.5 126.5v25h99v-25q0 -32 22.5 -55t54.5 -23t55 23t23 55v25h99v-25q0 -73 -50 -125t-119 -52zM284 -10q-103 0 -176 76.5t-73 186.5q0 109 73.5 186t175.5 77q105 0 164 -69v57h130v-504h-121l-3 65q-61 -75 -170 -75zM309 108
q60 0 101.5 42.5t41.5 102.5t-41.5 102t-101.5 42q-61 0 -102.5 -42t-41.5 -102t42 -102.5t102 -42.5z" />
    <glyph glyph-name="Aogonek" unicode="&#x104;" horiz-adv-x="702" 
d="M684 -106l63 -71q-48 -57 -118 -57q-50 0 -85.5 32t-35.5 85q0 74 67 117h-21l-57 140h-292l-57 -140h-147l350 790l350 -790q-56 -6 -83.5 -32.5t-27.5 -59.5q0 -21 11 -32t28 -11q30 0 55 29zM255 262h192l-96 234z" />
    <glyph glyph-name="aogonek" unicode="&#x105;" horiz-adv-x="647" 
d="M561 -106l63 -71q-48 -57 -118 -57q-50 0 -85.5 32t-35.5 85q0 77 72 120l-3 62q-61 -75 -170 -75q-103 0 -176 76.5t-73 186.5q0 109 73.5 186t175.5 77q105 0 164 -69v57h130v-504q-56 -6 -83.5 -32.5t-27.5 -59.5q0 -21 11 -32t28 -11q30 0 55 29zM309 108
q60 0 101.5 42.5t41.5 102.5t-41.5 102t-101.5 42q-61 0 -102.5 -42t-41.5 -102t42 -102.5t102 -42.5z" />
    <glyph glyph-name="Cacute" unicode="&#x106;" horiz-adv-x="675" 
d="M357 847l150 187l93 -80l-130 -107h-113zM446 -10q-167 0 -283.5 115.5t-116.5 280.5t117 279.5t283 114.5q94 0 179 -45v-161q-83 74 -181 74q-111 0 -188.5 -76t-77.5 -187q0 -110 76.5 -186.5t188.5 -76.5q56 0 97.5 18t84.5 57v-162q-85 -45 -179 -45z" />
    <glyph glyph-name="cacute" unicode="&#x107;" horiz-adv-x="459" 
d="M215 581l130 197l113 -80l-130 -117h-113zM302 -10q-113 0 -190 76t-77 186t77 186t190 76q57 0 107 -22v-145q-41 49 -107 49q-61 0 -101.5 -41.5t-40.5 -102.5q0 -60 40.5 -101.5t101.5 -41.5q66 0 107 48v-145q-50 -22 -107 -22z" />
    <glyph glyph-name="Cdotaccent" unicode="&#x10a;" horiz-adv-x="675" 
d="M424 822q-28 0 -48.5 20t-20.5 49q0 28 20.5 48t48.5 20t48 -20t20 -48t-20 -48.5t-48 -20.5zM446 -10q-167 0 -283.5 115.5t-116.5 280.5t117 279.5t283 114.5q94 0 179 -45v-161q-83 74 -181 74q-111 0 -188.5 -76t-77.5 -187q0 -110 76.5 -186.5t188.5 -76.5
q56 0 97.5 18t84.5 57v-162q-85 -45 -179 -45z" />
    <glyph glyph-name="cdotaccent" unicode="&#x10b;" horiz-adv-x="459" 
d="M282 606q-28 0 -48.5 20t-20.5 49q0 28 20.5 48t48.5 20t48 -20t20 -48t-20 -48.5t-48 -20.5zM302 -10q-113 0 -190 76t-77 186t77 186t190 76q57 0 107 -22v-145q-41 49 -107 49q-61 0 -101.5 -41.5t-40.5 -102.5q0 -60 40.5 -101.5t101.5 -41.5q66 0 107 48v-145
q-50 -22 -107 -22z" />
    <glyph glyph-name="Ccaron" unicode="&#x10c;" horiz-adv-x="675" 
d="M362 849l-110 167h104l68 -92l68 92h104l-110 -167h-124zM446 -10q-167 0 -283.5 115.5t-116.5 280.5t117 279.5t283 114.5q94 0 179 -45v-161q-83 74 -181 74q-111 0 -188.5 -76t-77.5 -187q0 -110 76.5 -186.5t188.5 -76.5q56 0 97.5 18t84.5 57v-162q-85 -45 -179 -45
z" />
    <glyph glyph-name="ccaron" unicode="&#x10d;" horiz-adv-x="459" 
d="M220 573l-110 197h104l68 -122l68 122h104l-110 -197h-124zM302 -10q-113 0 -190 76t-77 186t77 186t190 76q57 0 107 -22v-145q-41 49 -107 49q-61 0 -101.5 -41.5t-40.5 -102.5q0 -60 40.5 -101.5t101.5 -41.5q66 0 107 48v-145q-50 -22 -107 -22z" />
    <glyph glyph-name="Dcaron" unicode="&#x10e;" horiz-adv-x="727" 
d="M280 849l-110 167h104l68 -92l68 92h104l-110 -167h-124zM72 0v770h224q160 0 272.5 -112.5t112.5 -272.5t-112.5 -272.5t-272.5 -112.5h-224zM202 130h94q107 0 181 74t74 181q0 106 -74 180.5t-181 74.5h-94v-510z" />
    <glyph glyph-name="dcaron" unicode="&#x10f;" horiz-adv-x="736" 
d="M287 -10q-106 0 -179 76.5t-73 186.5t73 186.5t179 76.5q103 0 161 -69v323h130v-770h-121l-3 65q-61 -75 -167 -75zM701 473h-83l30 297h153zM309 105q60 0 102 43t42 105t-42 104.5t-102 42.5q-61 0 -102.5 -42.5t-41.5 -104.5t41.5 -105t102.5 -43z" />
    <glyph glyph-name="Dcroat" unicode="&#x110;" horiz-adv-x="727" 
d="M296 770q160 0 272.5 -112.5t112.5 -272.5t-112.5 -272.5t-272.5 -112.5h-224v338h-77v94h77v338h224zM296 130q107 0 181 74t74 181q0 106 -74 180.5t-181 74.5h-94v-208h201v-94h-201v-208h94z" />
    <glyph glyph-name="dcroat" unicode="&#x111;" horiz-adv-x="645" 
d="M625 692v-94h-47v-598h-121l-3 65q-61 -75 -167 -75t-179 76.5t-73 186.5t73 186.5t179 76.5q103 0 161 -69v151h-231v94h231v78h130v-78h47zM309 105q60 0 102 43t42 105t-42 104.5t-102 42.5q-61 0 -102.5 -42.5t-41.5 -104.5t41.5 -105t102.5 -43z" />
    <glyph glyph-name="Emacron" unicode="&#x112;" horiz-adv-x="599" 
d="M153 835v104h318v-104h-318zM72 0v770h480v-130h-350v-190h310v-130h-310v-190h350v-130h-480z" />
    <glyph glyph-name="emacron" unicode="&#x113;" horiz-adv-x="595" 
d="M450 703v-104h-318v104h318zM560 257l-1 -28h-397q7 -61 46.5 -97.5t95.5 -36.5q87 0 129 73l104 -43q-31 -63 -92 -99t-140 -36q-118 0 -194 75.5t-76 186.5q0 110 75.5 186t190.5 76q110 0 184 -71.5t75 -185.5zM302 411q-91 0 -127 -83h247q-34 83 -120 83z" />
    <glyph glyph-name="Edotaccent" unicode="&#x116;" horiz-adv-x="599" 
d="M312 822q-28 0 -48.5 20t-20.5 49q0 28 20.5 48t48.5 20t48 -20t20 -48t-20 -48.5t-48 -20.5zM72 0v770h480v-130h-350v-190h310v-130h-310v-190h350v-130h-480z" />
    <glyph glyph-name="edotaccent" unicode="&#x117;" horiz-adv-x="595" 
d="M291 606q-29 0 -49 20t-20 49q0 28 20.5 48t48.5 20t48 -20t20 -48t-20 -48.5t-48 -20.5zM560 257l-1 -28h-397q7 -61 46.5 -97.5t95.5 -36.5q87 0 129 73l104 -43q-31 -63 -92 -99t-140 -36q-118 0 -194 75.5t-76 186.5q0 110 75.5 186t190.5 76q110 0 184 -71.5
t75 -185.5zM302 411q-91 0 -127 -83h247q-34 83 -120 83z" />
    <glyph glyph-name="Eogonek" unicode="&#x118;" horiz-adv-x="599" 
d="M535 -106l63 -71q-48 -57 -118 -57q-50 0 -85.5 32t-35.5 85q0 74 67 117h-354v770h480v-130h-350v-190h310v-130h-310v-190h350v-130q-56 -6 -83.5 -32.5t-27.5 -59.5q0 -21 11 -32t28 -11q30 0 55 29z" />
    <glyph glyph-name="eogonek" unicode="&#x119;" horiz-adv-x="595" 
d="M560 257l-1 -28h-397q7 -61 46.5 -97.5t95.5 -36.5q87 0 129 73l104 -43q-31 -63 -92 -99t-140 -36h-6q-45 -27 -45 -72q0 -21 11 -32t28 -11q30 0 55 29l63 -71q-48 -57 -118 -57q-50 0 -85.5 32t-35.5 85q0 66 53 107q-86 24 -138 93t-52 159q0 110 75.5 186t190.5 76
q110 0 184 -71.5t75 -185.5zM302 411q-91 0 -127 -83h247q-34 83 -120 83z" />
    <glyph glyph-name="Ecaron" unicode="&#x11a;" horiz-adv-x="599" 
d="M250 849l-110 167h104l68 -92l68 92h104l-110 -167h-124zM72 0v770h480v-130h-350v-190h310v-130h-310v-190h350v-130h-480z" />
    <glyph glyph-name="ecaron" unicode="&#x11b;" horiz-adv-x="595" 
d="M353 573h-124l-110 197h104l68 -122l68 122h104zM560 257l-1 -28h-397q7 -61 46.5 -97.5t95.5 -36.5q87 0 129 73l104 -43q-31 -63 -92 -99t-140 -36q-118 0 -194 75.5t-76 186.5q0 110 75.5 186t190.5 76q110 0 184 -71.5t75 -185.5zM302 411q-91 0 -127 -83h247
q-34 83 -120 83z" />
    <glyph glyph-name="Gbreve" unicode="&#x11e;" horiz-adv-x="780" 
d="M418 818q-79 0 -131.5 50.5t-52.5 126.5v25h99v-25q0 -32 22.5 -55t54.5 -23t55 23t23 55v25h99v-25q0 -73 -50 -125t-119 -52zM445 -10q-166 0 -282.5 115t-116.5 280t116.5 280t281.5 115q156 0 274 -112l-93 -93q-76 73 -181 73q-111 0 -188.5 -76t-77.5 -187
q0 -110 77 -186.5t188 -76.5q87 0 156 51v147h-156v130h277v-356q-126 -104 -275 -104z" />
    <glyph glyph-name="gbreve" unicode="&#x11f;" horiz-adv-x="650" 
d="M335 572q-79 0 -131.5 50.5t-52.5 126.5v25h99v-25q0 -32 22.5 -55t54.5 -23t55 23t23 55v25h99v-25q0 -73 -50 -125t-119 -52zM304 -240q-71 0 -138.5 32t-108.5 92l82 82q28 -43 71 -66.5t90 -23.5q65 0 107.5 42.5t42.5 111.5v30q-57 -65 -157 -65q-110 0 -184 74
t-74 183q0 110 74 186t181 76q102 0 160 -68v58h131v-474q0 -121 -78.5 -195.5t-198.5 -74.5zM309 107q60 0 102.5 42.5t42.5 102.5q0 61 -42.5 103t-102.5 42q-61 0 -102.5 -42t-41.5 -103q0 -60 42 -102.5t102 -42.5z" />
    <glyph glyph-name="Gdotaccent" unicode="&#x120;" horiz-adv-x="780" 
d="M411 822q-29 0 -49 20t-20 49q0 28 20.5 48t48.5 20t48 -20t20 -48t-20 -48.5t-48 -20.5zM445 -10q-166 0 -282.5 115t-116.5 280t116.5 280t281.5 115q156 0 274 -112l-93 -93q-76 73 -181 73q-111 0 -188.5 -76t-77.5 -187q0 -110 77 -186.5t188 -76.5q87 0 156 51v147
h-156v130h277v-356q-126 -104 -275 -104z" />
    <glyph glyph-name="gdotaccent" unicode="&#x121;" horiz-adv-x="650" 
d="M328 606q-28 0 -48.5 20t-20.5 49q0 28 20.5 48t48.5 20t48 -20t20 -48t-20 -48.5t-48 -20.5zM304 -240q-71 0 -138.5 32t-108.5 92l82 82q28 -43 71 -66.5t90 -23.5q65 0 107.5 42.5t42.5 111.5v30q-57 -65 -157 -65q-110 0 -184 74t-74 183q0 110 74 186t181 76
q102 0 160 -68v58h131v-474q0 -121 -78.5 -195.5t-198.5 -74.5zM309 107q60 0 102.5 42.5t42.5 102.5q0 61 -42.5 103t-102.5 42q-61 0 -102.5 -42t-41.5 -103q0 -60 42 -102.5t102 -42.5z" />
    <glyph glyph-name="Gcommaaccent" unicode="&#x122;" horiz-adv-x="780" 
d="M445 -10q-166 0 -282.5 115t-116.5 280t116.5 280t281.5 115q156 0 274 -112l-93 -93q-76 73 -181 73q-111 0 -188.5 -76t-77.5 -187q0 -110 77 -186.5t188 -76.5q87 0 156 51v147h-156v130h277v-356q-126 -104 -275 -104zM379 -297l30 227h133l-110 -227h-53z" />
    <glyph glyph-name="gcommaaccent" unicode="&#x123;" horiz-adv-x="650" 
d="M251 589l80 247h73v-247h-153zM304 -240q-71 0 -138.5 32t-108.5 92l82 82q28 -43 71 -66.5t90 -23.5q65 0 107.5 42.5t42.5 111.5v30q-57 -65 -157 -65q-110 0 -184 74t-74 183q0 110 74 186t181 76q102 0 160 -68v58h131v-474q0 -121 -78.5 -195.5t-198.5 -74.5z
M309 107q60 0 102.5 42.5t42.5 102.5q0 61 -42.5 103t-102.5 42q-61 0 -102.5 -42t-41.5 -103q0 -60 42 -102.5t102 -42.5z" />
    <glyph glyph-name="Hbar" unicode="&#x126;" horiz-adv-x="685" 
d="M662 675v-104h-49v-571h-130v320h-281v-320h-130v571h-48v104h48v95h130v-95h281v95h130v-95h49zM483 450v121h-281v-121h281z" />
    <glyph glyph-name="hbar" unicode="&#x127;" horiz-adv-x="566" 
d="M328 514q78 0 131 -54.5t53 -133.5v-326h-130v312q0 37 -25.5 61.5t-63.5 24.5q-41 0 -68.5 -25t-28.5 -62v-311h-129v602h-65v94h65v74h129v-74h214v-94h-214v-144q56 56 132 56z" />
    <glyph glyph-name="Itilde" unicode="&#x128;" horiz-adv-x="274" 
d="M12 816l-94 39q33 132 136 132q34 0 60.5 -16.5t49 -32.5t45.5 -16q51 0 56 71l91 -37q-33 -134 -139 -134q-35 0 -63.5 15t-50 30.5t-39.5 15.5q-39 0 -52 -67zM72 0v770h130v-770h-130z" />
    <glyph glyph-name="itilde" unicode="&#x129;" horiz-adv-x="264" 
d="M7 560l-94 39q33 132 136 132q34 0 60.5 -16.5t49 -32.5t45.5 -16q51 0 56 71l91 -37q-33 -134 -139 -134q-35 0 -63.5 15t-50 30.5t-39.5 15.5q-39 0 -52 -67zM67 0v504h128v-504h-128z" />
    <glyph glyph-name="Imacron" unicode="&#x12a;" horiz-adv-x="274" 
d="M-22 835v104h318v-104h-318zM72 0v770h130v-770h-130z" />
    <glyph glyph-name="imacron" unicode="&#x12b;" horiz-adv-x="264" 
d="M-27 599v104h318v-104h-318zM67 0v504h128v-504h-128z" />
    <glyph glyph-name="Iogonek" unicode="&#x12e;" horiz-adv-x="274" 
d="M185 -106l63 -71q-48 -57 -118 -57q-50 0 -85.5 32t-35.5 85q0 74 67 117h-4v770h130v-770q-56 -6 -83.5 -32.5t-27.5 -59.5q0 -21 11 -32t28 -11q30 0 55 29z" />
    <glyph glyph-name="iogonek" unicode="&#x12f;" horiz-adv-x="264" 
d="M132 606q-28 0 -48.5 20t-20.5 49q0 28 20.5 48t48.5 20t48 -20t20 -48t-20 -48.5t-48 -20.5zM178 -106l63 -71q-48 -57 -118 -57q-50 0 -85.5 32t-35.5 85q0 74 67 117h-2v504h128v-504q-56 -6 -83.5 -32.5t-27.5 -59.5q0 -21 11 -32t28 -11q30 0 55 29z" />
    <glyph glyph-name="Idotaccent" unicode="&#x130;" horiz-adv-x="274" 
d="M137 822q-29 0 -49 20t-20 49q0 28 20.5 48t48.5 20t48 -20t20 -48t-20 -48.5t-48 -20.5zM72 0v770h130v-770h-130z" />
    <glyph glyph-name="dotlessi" unicode="&#x131;" horiz-adv-x="264" 
d="M67 0v504h128v-504h-128z" />
    <glyph glyph-name="Kcommaaccent" unicode="&#x136;" horiz-adv-x="620" 
d="M346 419l274 -419h-157l-261 407v-407h-130v770h130v-340l255 340h158zM194 -297l30 227h133l-110 -227h-53z" />
    <glyph glyph-name="kcommaaccent" unicode="&#x137;" horiz-adv-x="553" 
d="M548 504l-203 -220l203 -284h-167l-184 274v-274h-130v770h130v-478l184 212h167zM175 -297l30 227h133l-110 -227h-53z" />
    <glyph glyph-name="Lacute" unicode="&#x139;" horiz-adv-x="503" 
d="M70 847l150 187l93 -80l-130 -107h-113zM72 0v770h130v-640h290v-130h-420z" />
    <glyph glyph-name="lacute" unicode="&#x13a;" horiz-adv-x="265" 
d="M65 847l130 197l113 -80l-130 -117h-113zM67 0v770h129v-770h-129z" />
    <glyph glyph-name="Lcommaaccent" unicode="&#x13b;" horiz-adv-x="503" 
d="M72 0v770h130v-640h290v-130h-420zM185 -297l30 227h133l-110 -227h-53z" />
    <glyph glyph-name="lcommaaccent" unicode="&#x13c;" horiz-adv-x="265" 
d="M67 0v770h129v-770h-129zM35 -297l30 227h133l-110 -227h-53z" />
    <glyph glyph-name="Lcaron" unicode="&#x13d;" horiz-adv-x="504" 
d="M72 0v770h130v-640h290v-130h-420zM351 473v297h133l-50 -297h-83z" />
    <glyph glyph-name="lcaron" unicode="&#x13e;" horiz-adv-x="379" 
d="M67 0v770h129v-770h-129zM344 473h-83l30 297h153z" />
    <glyph glyph-name="Lslash" unicode="&#x141;" horiz-adv-x="503" 
d="M202 130h290v-130h-420v305l-37 -14l-35 93l72 26v360h130v-312l55 20l35 -93l-90 -33v-222z" />
    <glyph glyph-name="lslash" unicode="&#x142;" horiz-adv-x="265" 
d="M278 400l-82 -30v-370h-129v323l-46 -17l-35 93l81 30v341h129v-294l47 17z" />
    <glyph glyph-name="Nacute" unicode="&#x143;" horiz-adv-x="737" 
d="M302 847l150 187l93 -80l-130 -107h-113zM665 -22l-463 495v-473h-130v790l463 -495v475h130v-792z" />
    <glyph glyph-name="nacute" unicode="&#x144;" horiz-adv-x="566" 
d="M214 581l130 197l113 -80l-130 -117h-113zM67 0v504h129v-46q56 56 135 56q76 0 128.5 -54.5t52.5 -133.5v-326h-130v310q0 39 -26 64.5t-65 25.5q-40 0 -67 -26t-28 -64v-310h-129z" />
    <glyph glyph-name="Ncommaaccent" unicode="&#x145;" horiz-adv-x="737" 
d="M665 -22l-463 495v-473h-130v790l463 -495v475h130v-792zM272 -297l30 227h133l-110 -227h-53z" />
    <glyph glyph-name="ncommaaccent" unicode="&#x146;" horiz-adv-x="566" 
d="M67 0v504h129v-46q56 56 135 56q76 0 128.5 -54.5t52.5 -133.5v-326h-130v310q0 39 -26 64.5t-65 25.5q-40 0 -67 -26t-28 -64v-310h-129zM184 -297l30 227h133l-110 -227h-53z" />
    <glyph glyph-name="Ncaron" unicode="&#x147;" horiz-adv-x="737" 
d="M307 849l-110 167h104l68 -92l68 92h104l-110 -167h-124zM665 -22l-463 495v-473h-130v790l463 -495v475h130v-792z" />
    <glyph glyph-name="ncaron" unicode="&#x148;" horiz-adv-x="566" 
d="M219 573l-110 197h104l68 -122l68 122h104l-110 -197h-124zM67 0v504h129v-46q56 56 135 56q76 0 128.5 -54.5t52.5 -133.5v-326h-130v310q0 39 -26 64.5t-65 25.5q-40 0 -67 -26t-28 -64v-310h-129z" />
    <glyph glyph-name="Eng" unicode="&#x14a;" horiz-adv-x="737" 
d="M535 770h130v-803q0 -71 -42.5 -104t-114.5 -33h-80v90h53q27 0 43 18.5t16 51.5v122l-338 361v-473h-130v790l463 -495v475z" />
    <glyph glyph-name="eng" unicode="&#x14b;" horiz-adv-x="580" 
d="M331 514q76 0 128.5 -54.5t52.5 -133.5v-373q0 -34 -9.5 -60t-28.5 -41t-36 -24t-42.5 -12.5t-37 -4t-30.5 -0.5h-44v85h41q17 0 28 5.5t17 12t8.5 21.5t3 25t0.5 32v8v310q0 39 -26 64.5t-65 25.5q-40 0 -67 -26t-28 -64v-310h-129v504h129v-46q56 56 135 56z" />
    <glyph glyph-name="Omacron" unicode="&#x14c;" horiz-adv-x="882" 
d="M282 835v104h318v-104h-318zM441 -10q-165 0 -280 116.5t-115 278.5q0 165 116.5 280t278.5 115q165 0 280 -116.5t115 -278.5q0 -165 -116.5 -280t-278.5 -115zM441 120q109 0 187 77.5t78 187.5q0 109 -77.5 187t-187.5 78q-109 0 -187 -77.5t-78 -187.5
q0 -109 77.5 -187t187.5 -78z" />
    <glyph glyph-name="omacron" unicode="&#x14d;" horiz-adv-x="603" 
d="M143 599v104h318v-104h-318zM302 -10q-113 0 -190 76t-77 186t77 186t190 76q112 0 189 -76t77 -186t-77 -186t-189 -76zM302 110q58 0 99 41.5t41 100.5t-41 100t-99 41q-60 0 -101.5 -41t-41.5 -100t41.5 -100.5t101.5 -41.5z" />
    <glyph glyph-name="Ohungarumlaut" unicode="&#x150;" horiz-adv-x="882" 
d="M357 843h-113l150 187l93 -80zM577 843h-113l150 187l93 -80zM441 -10q-165 0 -280 116.5t-115 278.5q0 165 116.5 280t278.5 115q165 0 280 -116.5t115 -278.5q0 -165 -116.5 -280t-278.5 -115zM441 120q109 0 187 77.5t78 187.5q0 109 -77.5 187t-187.5 78
q-109 0 -187 -77.5t-78 -187.5q0 -109 77.5 -187t187.5 -78z" />
    <glyph glyph-name="ohungarumlaut" unicode="&#x151;" horiz-adv-x="603" 
d="M218 577h-113l130 197l113 -80zM438 577h-113l130 197l113 -80zM302 -10q-113 0 -190 76t-77 186t77 186t190 76q112 0 189 -76t77 -186t-77 -186t-189 -76zM302 110q58 0 99 41.5t41 100.5t-41 100t-99 41q-60 0 -101.5 -41t-41.5 -100t41.5 -100.5t101.5 -41.5z" />
    <glyph glyph-name="OE" unicode="&#x152;" horiz-adv-x="1235" 
d="M1188 640h-350v-190h310v-130h-310v-190h350v-130h-480v94q-114 -104 -267 -104q-165 0 -280 116.5t-115 278.5q0 165 116.5 280t278.5 115q153 0 267 -104v94h480v-130zM441 120q109 0 187 77.5t78 187.5q0 109 -77.5 187t-187.5 78q-109 0 -187 -77.5t-78 -187.5
q0 -109 77.5 -187t187.5 -78z" />
    <glyph glyph-name="oe" unicode="&#x153;" horiz-adv-x="1002" 
d="M967 257l-1 -28h-397q7 -61 46.5 -97.5t95.5 -36.5q87 0 129 73l104 -43q-31 -63 -92 -99t-140 -36q-129 0 -208 90q-79 -90 -202 -90q-113 0 -190 76t-77 186t77 186t190 76q123 0 202 -90q79 90 204 90q110 0 184 -71.5t75 -185.5zM709 411q-91 0 -127 -83h247
q-34 83 -120 83zM302 110q58 0 99 41.5t41 100.5t-41 100t-99 41q-60 0 -101.5 -41t-41.5 -100t41.5 -100.5t101.5 -41.5z" />
    <glyph glyph-name="Racute" unicode="&#x154;" horiz-adv-x="645" 
d="M490 954l-130 -107h-113l150 187zM625 0h-150l-158 285h-115v-285h-130v770h287q102 0 172 -68t70 -174q0 -81 -41.5 -141t-109.5 -86zM202 640v-225h147q55 0 88.5 29.5t33.5 83.5q0 53 -33.5 82.5t-88.5 29.5h-147z" />
    <glyph glyph-name="racute" unicode="&#x155;" horiz-adv-x="380" 
d="M126 581l130 197l113 -80l-130 -117h-113zM350 386q-66 13 -110 -24t-44 -139v-223h-129v504h129v-71q48 81 136 81q12 0 18 -1v-127z" />
    <glyph glyph-name="Rcommaaccent" unicode="&#x156;" horiz-adv-x="645" 
d="M450 301l175 -301h-150l-158 285h-115v-285h-130v770h287q102 0 172 -68t70 -174q0 -81 -41.5 -141t-109.5 -86zM202 640v-225h147q55 0 88.5 29.5t33.5 83.5q0 53 -33.5 82.5t-88.5 29.5h-147zM242 -297l30 227h133l-110 -227h-53z" />
    <glyph glyph-name="rcommaaccent" unicode="&#x157;" horiz-adv-x="380" 
d="M350 386q-66 13 -110 -24t-44 -139v-223h-129v504h129v-71q48 81 136 81q12 0 18 -1v-127zM35 -297l30 227h133l-110 -227h-53z" />
    <glyph glyph-name="Rcaron" unicode="&#x158;" horiz-adv-x="645" 
d="M376 849h-124l-110 167h104l68 -92l68 92h104zM625 0h-150l-158 285h-115v-285h-130v770h287q102 0 172 -68t70 -174q0 -81 -41.5 -141t-109.5 -86zM202 640v-225h147q55 0 88.5 29.5t33.5 83.5q0 53 -33.5 82.5t-88.5 29.5h-147z" />
    <glyph glyph-name="rcaron" unicode="&#x159;" horiz-adv-x="380" 
d="M131 573l-110 197h104l68 -122l68 122h104l-110 -197h-124zM350 386q-66 13 -110 -24t-44 -139v-223h-129v504h129v-71q48 81 136 81q12 0 18 -1v-127z" />
    <glyph glyph-name="Sacute" unicode="&#x15a;" horiz-adv-x="546" 
d="M206 847l150 187l93 -80l-130 -107h-113zM275 -10q-89 0 -157.5 49.5t-92.5 127.5l118 53q13 -47 47.5 -74t80.5 -27q50 0 81.5 31t31.5 78q0 31 -17.5 55t-45.5 40.5t-62 32t-68 34t-62 41.5t-45.5 60.5t-17.5 84.5q0 93 60 148.5t150 55.5q74 0 130.5 -39.5
t78.5 -104.5l-117 -54q-8 36 -31.5 56t-57.5 20q-37 0 -60.5 -22t-23.5 -56q0 -37 33 -64.5t79.5 -48.5t93.5 -47t80 -75.5t33 -118.5q0 -105 -68 -170.5t-171 -65.5z" />
    <glyph glyph-name="sacute" unicode="&#x15b;" horiz-adv-x="443" 
d="M151 581l130 197l113 -80l-130 -117h-113zM226 -10q-62 0 -113.5 21t-84.5 54l73 89q56 -58 121 -58q29 0 46.5 13.5t17.5 34.5q0 6 -1.5 11t-4.5 9t-6.5 7.5t-10 7t-11.5 6t-14.5 6t-15.5 5.5l-18 6t-19 7q-70 25 -107 58t-37 93q0 73 53.5 113.5t131.5 40.5
q108 0 173 -72l-76 -77q-49 49 -101 49q-24 0 -38.5 -12t-14.5 -31q0 -22 20 -34t67 -27q5 -1 8 -2q34 -11 56.5 -22t46.5 -29t36 -45.5t12 -63.5q0 -75 -52 -116.5t-137 -41.5z" />
    <glyph glyph-name="Scedilla" unicode="&#x15e;" horiz-adv-x="546" 
d="M514 226q0 -94 -56 -157.5t-144 -75.5l-32 -36q44 -6 70.5 -36t26.5 -74q0 -48 -31 -79.5t-83 -31.5q-63 0 -101 42l44 59q22 -34 56 -34q18 0 30.5 12t12.5 32q0 22 -13 33.5t-31 11.5q-25 0 -37 -16l-46 46l51 71q-75 12 -130.5 59t-75.5 115l118 53q13 -47 47.5 -74
t80.5 -27q50 0 81.5 31t31.5 78q0 31 -17.5 55t-45.5 40.5t-62 32t-68 34t-62 41.5t-45.5 60.5t-17.5 84.5q0 93 60 148.5t150 55.5q74 0 130.5 -39.5t78.5 -104.5l-117 -54q-8 36 -31.5 56t-57.5 20q-37 0 -60.5 -22t-23.5 -56q0 -37 33 -64.5t79.5 -48.5t93.5 -47
t80 -75.5t33 -118.5z" />
    <glyph glyph-name="scedilla" unicode="&#x15f;" horiz-adv-x="443" 
d="M415 148q0 -67 -42.5 -107.5t-114.5 -48.5l-31 -35q44 -6 70.5 -36t26.5 -74q0 -48 -31 -79.5t-83 -31.5q-63 0 -101 42l44 59q22 -34 56 -34q18 0 30.5 12t12.5 32q0 22 -13 33.5t-31 11.5q-25 0 -37 -16l-46 46l52 72q-92 14 -149 71l73 89q56 -58 121 -58
q29 0 46.5 13.5t17.5 34.5q0 6 -1.5 11t-4.5 9t-6.5 7.5t-10 7t-11.5 6t-14.5 6t-15.5 5.5l-18 6t-19 7q-70 25 -107 58t-37 93q0 73 53.5 113.5t131.5 40.5q108 0 173 -72l-76 -77q-49 49 -101 49q-24 0 -38.5 -12t-14.5 -31q0 -22 20 -34t67 -27q5 -1 8 -2
q34 -11 56.5 -22t46.5 -29t36 -45.5t12 -63.5z" />
    <glyph glyph-name="Scaron" unicode="&#x160;" horiz-adv-x="546" 
d="M211 849l-110 167h104l68 -92l68 92h104l-110 -167h-124zM275 -10q-89 0 -157.5 49.5t-92.5 127.5l118 53q13 -47 47.5 -74t80.5 -27q50 0 81.5 31t31.5 78q0 31 -17.5 55t-45.5 40.5t-62 32t-68 34t-62 41.5t-45.5 60.5t-17.5 84.5q0 93 60 148.5t150 55.5
q74 0 130.5 -39.5t78.5 -104.5l-117 -54q-8 36 -31.5 56t-57.5 20q-37 0 -60.5 -22t-23.5 -56q0 -37 33 -64.5t79.5 -48.5t93.5 -47t80 -75.5t33 -118.5q0 -105 -68 -170.5t-171 -65.5z" />
    <glyph glyph-name="scaron" unicode="&#x161;" horiz-adv-x="443" 
d="M156 573l-110 197h104l68 -122l68 122h104l-110 -197h-124zM226 -10q-62 0 -113.5 21t-84.5 54l73 89q56 -58 121 -58q29 0 46.5 13.5t17.5 34.5q0 6 -1.5 11t-4.5 9t-6.5 7.5t-10 7t-11.5 6t-14.5 6t-15.5 5.5l-18 6t-19 7q-70 25 -107 58t-37 93q0 73 53.5 113.5
t131.5 40.5q108 0 173 -72l-76 -77q-49 49 -101 49q-24 0 -38.5 -12t-14.5 -31q0 -22 20 -34t67 -27q5 -1 8 -2q34 -11 56.5 -22t46.5 -29t36 -45.5t12 -63.5q0 -75 -52 -116.5t-137 -41.5z" />
    <glyph glyph-name="uni0162" unicode="&#x162;" horiz-adv-x="563" 
d="M346 0h-18l-38 -43q44 -6 70.5 -36t26.5 -74q0 -48 -31 -79.5t-83 -31.5q-63 0 -101 42l44 59q22 -34 56 -34q18 0 30.5 12t12.5 32q0 22 -13 33.5t-31 11.5q-25 0 -37 -16l-46 46l56 78h-28v640h-198v130h525v-130h-197v-640z" />
    <glyph glyph-name="uni0163" unicode="&#x163;" horiz-adv-x="369" 
d="M250 0h-18l-38 -43q44 -6 70.5 -36t26.5 -74q0 -48 -31 -79.5t-83 -31.5q-63 0 -101 42l44 59q22 -34 56 -34q18 0 30.5 12t12.5 32q0 22 -13 33.5t-31 11.5q-25 0 -37 -16l-46 46l56 78h-28v399h-99v105h99v181h130v-181h98v-105h-98v-399z" />
    <glyph glyph-name="Tcaron" unicode="&#x164;" horiz-adv-x="563" 
d="M219 849l-110 167h104l68 -92l68 92h104l-110 -167h-124zM216 0v640h-198v130h525v-130h-197v-640h-130z" />
    <glyph glyph-name="tcaron" unicode="&#x165;" horiz-adv-x="362" 
d="M389 559h-83l30 297h153zM120 0v399h-99v105h99v181h130v-181h98v-105h-98v-399h-130z" />
    <glyph glyph-name="Tbar" unicode="&#x166;" horiz-adv-x="563" 
d="M543 640h-197v-208h139v-94h-139v-338h-130v338h-139v94h139v208h-198v130h525v-130z" />
    <glyph glyph-name="tbar" unicode="&#x167;" horiz-adv-x="369" 
d="M348 399h-98v-100h96v-94h-96v-205h-130v205h-96v94h96v100h-99v105h99v181h130v-181h98v-105z" />
    <glyph glyph-name="utilde" unicode="&#x169;" horiz-adv-x="547" 
d="M149 560l-94 39q33 132 136 132q34 0 60.5 -16.5t49 -32.5t45.5 -16q51 0 56 71l91 -37q-33 -134 -139 -134q-35 0 -63.5 15t-50 30.5t-39.5 15.5q-39 0 -52 -67zM273 -10q-102 0 -160 54t-58 145v315h130v-314q0 -42 24.5 -64.5t63.5 -22.5q40 0 64.5 22.5t24.5 64.5
v314h130v-315q0 -92 -58 -145.5t-161 -53.5z" />
    <glyph glyph-name="Umacron" unicode="&#x16a;" horiz-adv-x="680" 
d="M181 835v104h318v-104h-318zM64 770h130v-504q0 -62 42 -104t104 -42t104 42t42 104v504h130v-504q0 -115 -80.5 -195.5t-195.5 -80.5t-195.5 80.5t-80.5 195.5v504z" />
    <glyph glyph-name="umacron" unicode="&#x16b;" horiz-adv-x="547" 
d="M115 599v104h318v-104h-318zM273 -10q-102 0 -160 54t-58 145v315h130v-314q0 -42 24.5 -64.5t63.5 -22.5q40 0 64.5 22.5t24.5 64.5v314h130v-315q0 -92 -58 -145.5t-161 -53.5z" />
    <glyph glyph-name="Uring" unicode="&#x16e;" horiz-adv-x="680" 
d="M340 740q-65 0 -111.5 45.5t-46.5 112.5q0 65 45.5 111.5t112.5 46.5q65 0 111.5 -45.5t46.5 -112.5q0 -66 -46 -112t-112 -46zM340 823q31 0 53 21.5t22 53.5q0 31 -21.5 53t-53.5 22q-31 0 -53 -21.5t-22 -53.5q0 -31 21.5 -53t53.5 -22zM64 770h130v-504
q0 -62 42 -104t104 -42t104 42t42 104v504h130v-504q0 -115 -80.5 -195.5t-195.5 -80.5t-195.5 80.5t-80.5 195.5v504z" />
    <glyph glyph-name="uring" unicode="&#x16f;" horiz-adv-x="547" 
d="M274 554q-65 0 -111.5 45.5t-46.5 112.5q0 65 45.5 111.5t112.5 46.5q65 0 111.5 -45.5t46.5 -112.5q0 -66 -46 -112t-112 -46zM274 637q31 0 53 21.5t22 53.5q0 31 -21.5 53t-53.5 22q-31 0 -53 -21.5t-22 -53.5q0 -31 21.5 -53t53.5 -22zM273 -10q-102 0 -160 54
t-58 145v315h130v-314q0 -42 24.5 -64.5t63.5 -22.5q40 0 64.5 22.5t24.5 64.5v314h130v-315q0 -92 -58 -145.5t-161 -53.5z" />
    <glyph glyph-name="Uhungarumlaut" unicode="&#x170;" horiz-adv-x="680" 
d="M256 843h-113l150 187l93 -80zM476 843h-113l150 187l93 -80zM64 770h130v-504q0 -62 42 -104t104 -42t104 42t42 104v504h130v-504q0 -115 -80.5 -195.5t-195.5 -80.5t-195.5 80.5t-80.5 195.5v504z" />
    <glyph glyph-name="uhungarumlaut" unicode="&#x171;" horiz-adv-x="547" 
d="M190 577h-113l130 197l113 -80zM410 577h-113l130 197l113 -80zM273 -10q-102 0 -160 54t-58 145v315h130v-314q0 -42 24.5 -64.5t63.5 -22.5q40 0 64.5 22.5t24.5 64.5v314h130v-315q0 -92 -58 -145.5t-161 -53.5z" />
    <glyph glyph-name="Uogonek" unicode="&#x172;" horiz-adv-x="680" 
d="M486 770h130v-504q0 -86 -47.5 -155.5t-124.5 -100.5q-26 -11 -59 -16q-52 -27 -52 -76q0 -21 11 -32t28 -11q30 0 55 29l63 -71q-48 -57 -118 -57q-50 0 -85.5 32t-35.5 85q0 59 45 100q-100 16 -166 93t-66 180v504h130v-504q0 -62 42 -104t104 -42t104 42t42 104v504z
" />
    <glyph glyph-name="uogonek" unicode="&#x173;" horiz-adv-x="547" 
d="M362 504h130v-315q0 -84 -49.5 -136.5t-137.5 -61.5q-36 -11 -53.5 -34t-17.5 -49q0 -21 11 -32t28 -11q30 0 55 29l63 -71q-48 -57 -118 -57q-50 0 -85.5 32t-35.5 85q0 69 60 113q-75 15 -116 65.5t-41 127.5v315h130v-314q0 -42 24.5 -64.5t63.5 -22.5q40 0 64.5 22.5
t24.5 64.5v314z" />
    <glyph glyph-name="Wcircumflex" unicode="&#x174;" horiz-adv-x="993" 
d="M498 941l-68 -82h-104l110 157h124l110 -157h-104zM992 770l-350 -790l-145 328l-146 -328l-350 790h144l211 -501l77 183l-141 318h134l71 -167l70 167h134l-141 -318l77 -183l211 501h144z" />
    <glyph glyph-name="wcircumflex" unicode="&#x175;" horiz-adv-x="791" 
d="M224 573l110 197h124l110 -197h-104l-68 122l-68 -122h-104zM796 504l-240 -524l-160 354l-161 -354l-240 524h141l109 -263l101 263h99l101 -263l109 263h141z" />
    <glyph glyph-name="Ycircumflex" unicode="&#x176;" horiz-adv-x="592" 
d="M124 859l110 157h124l110 -157h-104l-68 82l-68 -82h-104zM231 0v367l-237 403h161l141 -277l142 277h160l-237 -403v-367h-130z" />
    <glyph glyph-name="ycircumflex" unicode="&#x177;" horiz-adv-x="543" 
d="M274 695l-68 -122h-104l110 197h124l110 -197h-104zM403 504h138l-294 -734h-134l93 236l-204 498h142l130 -346z" />
    <glyph glyph-name="Ydieresis" unicode="&#x178;" horiz-adv-x="592" 
d="M195 826q-29 0 -49 20t-20 49q0 28 20.5 48t48.5 20t48 -20t20 -48t-20 -48.5t-48 -20.5zM397 826q-29 0 -49 20t-20 49q0 28 20.5 48t48.5 20t48 -20t20 -48t-20 -48.5t-48 -20.5zM231 0v367l-237 403h161l141 -277l142 277h160l-237 -403v-367h-130z" />
    <glyph glyph-name="Zacute" unicode="&#x179;" horiz-adv-x="679" 
d="M272 847l150 187l93 -80l-130 -107h-113zM37 0l377 640h-359v130h586l-377 -640h377v-130h-604z" />
    <glyph glyph-name="zacute" unicode="&#x17a;" horiz-adv-x="508" 
d="M187 581l130 197l113 -80l-130 -117h-113zM22 0l253 399h-238v105h441l-254 -399h252v-105h-454z" />
    <glyph glyph-name="Zdotaccent" unicode="&#x17b;" horiz-adv-x="679" 
d="M339 822q-29 0 -49 20t-20 49q0 28 20.5 48t48.5 20t48 -20t20 -48t-20 -48.5t-48 -20.5zM37 0l377 640h-359v130h586l-377 -640h377v-130h-604z" />
    <glyph glyph-name="zdotaccent" unicode="&#x17c;" horiz-adv-x="508" 
d="M254 606q-28 0 -48.5 20t-20.5 49q0 28 20.5 48t48.5 20t48 -20t20 -48t-20 -48.5t-48 -20.5zM22 0l253 399h-238v105h441l-254 -399h252v-105h-454z" />
    <glyph glyph-name="Zcaron" unicode="&#x17d;" horiz-adv-x="679" 
d="M277 849l-110 167h104l68 -92l68 92h104l-110 -167h-124zM37 0l377 640h-359v130h586l-377 -640h377v-130h-604z" />
    <glyph glyph-name="zcaron" unicode="&#x17e;" horiz-adv-x="508" 
d="M192 573l-110 197h104l68 -122l68 122h104l-110 -197h-124zM22 0l253 399h-238v105h441l-254 -399h252v-105h-454z" />
    <glyph glyph-name="uni01CD" unicode="&#x1cd;" horiz-adv-x="702" 
d="M413 849h-124l-110 167h104l68 -92l68 92h104zM554 0l-57 140h-292l-57 -140h-147l350 790l350 -790h-147zM255 262h192l-96 234z" />
    <glyph glyph-name="uni01CE" unicode="&#x1ce;" horiz-adv-x="647" 
d="M270 573l-110 197h104l68 -122l68 122h104l-110 -197h-124zM284 -10q-103 0 -176 76.5t-73 186.5q0 109 73.5 186t175.5 77q105 0 164 -69v57h130v-504h-121l-3 65q-61 -75 -170 -75zM309 108q60 0 101.5 42.5t41.5 102.5t-41.5 102t-101.5 42q-61 0 -102.5 -42
t-41.5 -102t42 -102.5t102 -42.5z" />
    <glyph glyph-name="uni01CF" unicode="&#x1cf;" horiz-adv-x="274" 
d="M75 849l-110 167h104l68 -92l68 92h104l-110 -167h-124zM72 0v770h130v-770h-130z" />
    <glyph glyph-name="uni01D0" unicode="&#x1d0;" horiz-adv-x="264" 
d="M70 573l-110 197h104l68 -122l68 122h104l-110 -197h-124zM67 0v504h128v-504h-128z" />
    <glyph glyph-name="uni01D1" unicode="&#x1d1;" horiz-adv-x="882" 
d="M379 849l-110 167h104l68 -92l68 92h104l-110 -167h-124zM441 -10q-165 0 -280 116.5t-115 278.5q0 165 116.5 280t278.5 115q165 0 280 -116.5t115 -278.5q0 -165 -116.5 -280t-278.5 -115zM441 120q109 0 187 77.5t78 187.5q0 109 -77.5 187t-187.5 78
q-109 0 -187 -77.5t-78 -187.5q0 -109 77.5 -187t187.5 -78z" />
    <glyph glyph-name="uni01D2" unicode="&#x1d2;" horiz-adv-x="603" 
d="M240 573l-110 197h104l68 -122l68 122h104l-110 -197h-124zM302 -10q-113 0 -190 76t-77 186t77 186t190 76q112 0 189 -76t77 -186t-77 -186t-189 -76zM302 110q58 0 99 41.5t41 100.5t-41 100t-99 41q-60 0 -101.5 -41t-41.5 -100t41.5 -100.5t101.5 -41.5z" />
    <glyph glyph-name="uni01D3" unicode="&#x1d3;" horiz-adv-x="680" 
d="M278 849l-110 167h104l68 -92l68 92h104l-110 -167h-124zM64 770h130v-504q0 -62 42 -104t104 -42t104 42t42 104v504h130v-504q0 -115 -80.5 -195.5t-195.5 -80.5t-195.5 80.5t-80.5 195.5v504z" />
    <glyph glyph-name="uni01D4" unicode="&#x1d4;" horiz-adv-x="547" 
d="M212 573l-110 197h104l68 -122l68 122h104l-110 -197h-124zM273 -10q-102 0 -160 54t-58 145v315h130v-314q0 -42 24.5 -64.5t63.5 -22.5q40 0 64.5 22.5t24.5 64.5v314h130v-315q0 -92 -58 -145.5t-161 -53.5z" />
    <glyph glyph-name="uni01D5" unicode="&#x1d5;" horiz-adv-x="680" 
d="M181 1018v104h318v-104h-318zM239 826q-29 0 -49 20t-20 49q0 28 20.5 48t48.5 20t48 -20t20 -48t-20 -48.5t-48 -20.5zM441 826q-29 0 -49 20t-20 49q0 28 20.5 48t48.5 20t48 -20t20 -48t-20 -48.5t-48 -20.5zM64 770h130v-504q0 -62 42 -104t104 -42t104 42t42 104
v504h130v-504q0 -115 -80.5 -195.5t-195.5 -80.5t-195.5 80.5t-80.5 195.5v504z" />
    <glyph glyph-name="uni01D6" unicode="&#x1d6;" horiz-adv-x="547" 
d="M115 842v104h318v-104h-318zM173 610q-29 0 -49 20t-20 49q0 28 20.5 48t48.5 20t48 -20t20 -48t-20 -48.5t-48 -20.5zM375 610q-29 0 -49 20t-20 49q0 28 20.5 48t48.5 20t48 -20t20 -48t-20 -48.5t-48 -20.5zM273 -10q-102 0 -160 54t-58 145v315h130v-314
q0 -42 24.5 -64.5t63.5 -22.5q40 0 64.5 22.5t24.5 64.5v314h130v-315q0 -92 -58 -145.5t-161 -53.5z" />
    <glyph glyph-name="uni01D7" unicode="&#x1d7;" horiz-adv-x="680" 
d="M273 1030l150 187l93 -80l-130 -107h-113zM239 826q-29 0 -49 20t-20 49q0 28 20.5 48t48.5 20t48 -20t20 -48t-20 -48.5t-48 -20.5zM441 826q-29 0 -49 20t-20 49q0 28 20.5 48t48.5 20t48 -20t20 -48t-20 -48.5t-48 -20.5zM64 770h130v-504q0 -62 42 -104t104 -42
t104 42t42 104v504h130v-504q0 -115 -80.5 -195.5t-195.5 -80.5t-195.5 80.5t-80.5 195.5v504z" />
    <glyph glyph-name="uni01D8" unicode="&#x1d8;" horiz-adv-x="547" 
d="M207 824l130 197l113 -80l-130 -117h-113zM173 610q-29 0 -49 20t-20 49q0 28 20.5 48t48.5 20t48 -20t20 -48t-20 -48.5t-48 -20.5zM375 610q-29 0 -49 20t-20 49q0 28 20.5 48t48.5 20t48 -20t20 -48t-20 -48.5t-48 -20.5zM273 -10q-102 0 -160 54t-58 145v315h130
v-314q0 -42 24.5 -64.5t63.5 -22.5q40 0 64.5 22.5t24.5 64.5v314h130v-315q0 -92 -58 -145.5t-161 -53.5z" />
    <glyph glyph-name="uni01D9" unicode="&#x1d9;" horiz-adv-x="680" 
d="M278 1032l-110 167h104l68 -92l68 92h104l-110 -167h-124zM239 826q-29 0 -49 20t-20 49q0 28 20.5 48t48.5 20t48 -20t20 -48t-20 -48.5t-48 -20.5zM441 826q-29 0 -49 20t-20 49q0 28 20.5 48t48.5 20t48 -20t20 -48t-20 -48.5t-48 -20.5zM64 770h130v-504
q0 -62 42 -104t104 -42t104 42t42 104v504h130v-504q0 -115 -80.5 -195.5t-195.5 -80.5t-195.5 80.5t-80.5 195.5v504z" />
    <glyph glyph-name="uni01DA" unicode="&#x1da;" horiz-adv-x="547" 
d="M212 816l-110 197h104l68 -122l68 122h104l-110 -197h-124zM173 610q-29 0 -49 20t-20 49q0 28 20.5 48t48.5 20t48 -20t20 -48t-20 -48.5t-48 -20.5zM375 610q-29 0 -49 20t-20 49q0 28 20.5 48t48.5 20t48 -20t20 -48t-20 -48.5t-48 -20.5zM273 -10q-102 0 -160 54
t-58 145v315h130v-314q0 -42 24.5 -64.5t63.5 -22.5q40 0 64.5 22.5t24.5 64.5v314h130v-315q0 -92 -58 -145.5t-161 -53.5z" />
    <glyph glyph-name="uni01DB" unicode="&#x1db;" horiz-adv-x="680" 
d="M283 1026l-110 87l93 80l130 -167h-113zM239 826q-29 0 -49 20t-20 49q0 28 20.5 48t48.5 20t48 -20t20 -48t-20 -48.5t-48 -20.5zM441 826q-29 0 -49 20t-20 49q0 28 20.5 48t48.5 20t48 -20t20 -48t-20 -48.5t-48 -20.5zM64 770h130v-504q0 -62 42 -104t104 -42t104 42
t42 104v504h130v-504q0 -115 -80.5 -195.5t-195.5 -80.5t-195.5 80.5t-80.5 195.5v504z" />
    <glyph glyph-name="uni01DC" unicode="&#x1dc;" horiz-adv-x="547" 
d="M217 820l-130 117l113 80l130 -197h-113zM173 610q-29 0 -49 20t-20 49q0 28 20.5 48t48.5 20t48 -20t20 -48t-20 -48.5t-48 -20.5zM375 610q-29 0 -49 20t-20 49q0 28 20.5 48t48.5 20t48 -20t20 -48t-20 -48.5t-48 -20.5zM273 -10q-102 0 -160 54t-58 145v315h130v-314
q0 -42 24.5 -64.5t63.5 -22.5q40 0 64.5 22.5t24.5 64.5v314h130v-315q0 -92 -58 -145.5t-161 -53.5z" />
    <glyph glyph-name="Oslashacute" unicode="&#x1fe;" horiz-adv-x="882" 
d="M617 954l-130 -107h-113l150 187zM757 623q79 -106 79 -238q0 -165 -116.5 -280t-278.5 -115q-132 0 -238 79l-58 -58l-78 78l58 58q-79 106 -79 238q0 165 116.5 280t278.5 115q132 0 238 -79l58 58l78 -78zM176 385q0 -79 43 -144l366 366q-65 43 -144 43
q-109 0 -187 -77.5t-78 -187.5zM441 120q109 0 187 77.5t78 187.5q0 79 -43 144l-366 -366q65 -43 144 -43z" />
    <glyph glyph-name="oslashacute" unicode="&#x1ff;" horiz-adv-x="603" 
d="M478 698l-130 -117h-113l130 197zM577 469l-60 -60q51 -70 51 -157q0 -110 -77 -186t-189 -76q-87 0 -156 48l-61 -61l-57 57l60 60q-53 67 -53 158q0 110 77 186t190 76q88 0 156 -49l62 62zM159 252q0 -39 18 -69l192 193q-31 17 -67 17q-60 0 -101.5 -41t-41.5 -100z
M442 252q0 34 -16 66l-192 -192q32 -16 68 -16q58 0 99 41.5t41 100.5z" />
    <glyph glyph-name="Scommaaccent" unicode="&#x218;" horiz-adv-x="546" 
d="M275 -10q-89 0 -157.5 49.5t-92.5 127.5l118 53q13 -47 47.5 -74t80.5 -27q50 0 81.5 31t31.5 78q0 31 -17.5 55t-45.5 40.5t-62 32t-68 34t-62 41.5t-45.5 60.5t-17.5 84.5q0 93 60 148.5t150 55.5q74 0 130.5 -39.5t78.5 -104.5l-117 -54q-8 36 -31.5 56t-57.5 20
q-37 0 -60.5 -22t-23.5 -56q0 -37 33 -64.5t79.5 -48.5t93.5 -47t80 -75.5t33 -118.5q0 -105 -68 -170.5t-171 -65.5zM176 -297l30 227h133l-110 -227h-53z" />
    <glyph glyph-name="scommaaccent" unicode="&#x219;" horiz-adv-x="443" 
d="M226 -10q-62 0 -113.5 21t-84.5 54l73 89q56 -58 121 -58q29 0 46.5 13.5t17.5 34.5q0 6 -1.5 11t-4.5 9t-6.5 7.5t-10 7t-11.5 6t-14.5 6t-15.5 5.5l-18 6t-19 7q-70 25 -107 58t-37 93q0 73 53.5 113.5t131.5 40.5q108 0 173 -72l-76 -77q-49 49 -101 49
q-24 0 -38.5 -12t-14.5 -31q0 -22 20 -34t67 -27q5 -1 8 -2q34 -11 56.5 -22t46.5 -29t36 -45.5t12 -63.5q0 -75 -52 -116.5t-137 -41.5zM121 -297l30 227h133l-110 -227h-53z" />
    <glyph glyph-name="uni021A" unicode="&#x21a;" horiz-adv-x="563" 
d="M216 0v640h-198v130h525v-130h-197v-640h-130zM184 -297l30 227h133l-110 -227h-53z" />
    <glyph glyph-name="uni021B" unicode="&#x21b;" horiz-adv-x="369" 
d="M120 0v399h-99v105h99v181h130v-181h98v-105h-98v-399h-130zM88 -297l30 227h133l-110 -227h-53z" />
    <glyph glyph-name="circumflex" unicode="&#x2c6;" horiz-adv-x="414" 
d="M35 573l110 197h124l110 -197h-104l-68 122l-68 -122h-104z" />
    <glyph glyph-name="caron" unicode="&#x2c7;" horiz-adv-x="414" 
d="M145 573l-110 197h104l68 -122l68 122h104l-110 -197h-124z" />
    <glyph glyph-name="breve" unicode="&#x2d8;" horiz-adv-x="423" 
d="M219 568q-79 0 -131.5 50.5t-52.5 126.5v25h99v-25q0 -32 22.5 -55t54.5 -23t55 23t23 55v25h99v-25q0 -73 -50 -125t-119 -52z" />
    <glyph glyph-name="dotaccent" unicode="&#x2d9;" horiz-adv-x="207" 
d="M104 606q-28 0 -48.5 20t-20.5 49q0 28 20.5 48t48.5 20t48 -20t20 -48t-20 -48.5t-48 -20.5z" />
    <glyph glyph-name="ring" unicode="&#x2da;" horiz-adv-x="386" 
d="M193 550q-65 0 -111.5 45.5t-46.5 112.5q0 65 45.5 111.5t112.5 46.5q65 0 111.5 -45.5t46.5 -112.5q0 -66 -46 -112t-112 -46zM193 633q31 0 53 21.5t22 53.5q0 31 -21.5 53t-53.5 22q-31 0 -53 -21.5t-22 -53.5q0 -31 21.5 -53t53.5 -22z" />
    <glyph glyph-name="ogonek" unicode="&#x2db;" horiz-adv-x="322" 
d="M48 -117q0 50 34 89.5t101 56.5l58 -29q-56 -6 -83.5 -32.5t-27.5 -59.5q0 -21 11 -32t28 -11q30 0 55 29l63 -71q-48 -57 -118 -57q-50 0 -85.5 32t-35.5 85z" />
    <glyph glyph-name="tilde" unicode="&#x2dc;" horiz-adv-x="508" 
d="M129 560l-94 39q33 132 136 132q34 0 60.5 -16.5t49 -32.5t45.5 -16q51 0 56 71l91 -37q-33 -134 -139 -134q-35 0 -63.5 15t-50 30.5t-39.5 15.5q-39 0 -52 -67z" />
    <glyph glyph-name="hungarumlaut" unicode="&#x2dd;" horiz-adv-x="533" 
d="M148 577h-113l130 197l113 -80zM368 577h-113l130 197l113 -80z" />
    <glyph glyph-name="gravecomb" unicode="&#x300;" 
d="M-148 577l-130 117l113 80l130 -197h-113z" />
    <glyph glyph-name="acutecomb" unicode="&#x301;" 
d="M-278 577l130 197l113 -80l-130 -117h-113z" />
    <glyph glyph-name="uni0302" unicode="&#x302;" 
d="M-379 573l110 197h124l110 -197h-104l-68 122l-68 -122h-104z" />
    <glyph glyph-name="tildecomb" unicode="&#x303;" 
d="M-379 560l-94 39q33 132 136 132q34 0 60.5 -16.5t49 -32.5t45.5 -16q51 0 56 71l91 -37q-33 -134 -139 -134q-35 0 -63.5 15t-50 30.5t-39.5 15.5q-39 0 -52 -67z" />
    <glyph glyph-name="uni0304" unicode="&#x304;" 
d="M-353 595v104h318v-104h-318z" />
    <glyph glyph-name="uni0306" unicode="&#x306;" 
d="M-204 568q-79 0 -131.5 50.5t-52.5 126.5v25h99v-25q0 -32 22.5 -55t54.5 -23t55 23t23 55v25h99v-25q0 -73 -50 -125t-119 -52z" />
    <glyph glyph-name="uni0307" unicode="&#x307;" 
d="M-103 606q-29 0 -49 20t-20 49q0 28 20.5 48t48.5 20t48 -20t20 -48t-20 -48.5t-48 -20.5z" />
    <glyph glyph-name="uni0308" unicode="&#x308;" 
d="M-305 606q-29 0 -49 20t-20 49q0 28 20.5 48t48.5 20t48 -20t20 -48t-20 -48.5t-48 -20.5zM-103 606q-29 0 -49 20t-20 49q0 28 20.5 48t48.5 20t48 -20t20 -48t-20 -48.5t-48 -20.5z" />
    <glyph glyph-name="uni030A" unicode="&#x30a;" 
d="M-193 550q-65 0 -111.5 45.5t-46.5 112.5q0 65 45.5 111.5t112.5 46.5q65 0 111.5 -45.5t46.5 -112.5q0 -66 -46 -112t-112 -46zM-193 633q31 0 53 21.5t22 53.5q0 31 -21.5 53t-53.5 22q-31 0 -53 -21.5t-22 -53.5q0 -31 21.5 -53t53.5 -22z" />
    <glyph glyph-name="uni030B" unicode="&#x30b;" 
d="M-385 577h-113l130 197l113 -80zM-165 577h-113l130 197l113 -80z" />
    <glyph glyph-name="uni030C" unicode="&#x30c;" 
d="M-269 573l-110 197h104l68 -122l68 122h104l-110 -197h-124z" />
    <glyph glyph-name="uni0312" unicode="&#x312;" 
d="M-183 585l80 247h73v-247h-153z" />
    <glyph glyph-name="uni0326" unicode="&#x326;" 
d="M-198 -297l30 227h133l-110 -227h-53z" />
    <glyph glyph-name="uni0327" unicode="&#x327;" 
d="M-132 -43q44 -6 70.5 -36t26.5 -74q0 -48 -31 -79.5t-83 -31.5q-63 0 -101 42l44 59q22 -34 56 -34q18 0 30.5 12t12.5 32q0 22 -13 33.5t-31 11.5q-25 0 -37 -16l-46 46l62 86h85z" />
    <glyph glyph-name="uni0328" unicode="&#x328;" 
d="M-274 -117q0 50 34 89.5t101 56.5l58 -29q-56 -6 -83.5 -32.5t-27.5 -59.5q0 -21 11 -32t28 -11q30 0 55 29l63 -71q-48 -57 -118 -57q-50 0 -85.5 32t-35.5 85z" />
    <glyph glyph-name="uni0335" unicode="&#x335;" 
d="M-443 338v94h408v-94h-408z" />
    <glyph glyph-name="uni0336" unicode="&#x336;" 
d="M-673 333v104h638v-104h-638z" />
    <glyph glyph-name="uni1E3E" unicode="&#x1e3e;" horiz-adv-x="876" 
d="M371 847l150 187l93 -80l-130 -107h-113zM72 0v790l366 -506l366 506v-790h-129v395l-237 -327l-236 327v-395h-130z" />
    <glyph glyph-name="uni1E3F" unicode="&#x1e3f;" horiz-adv-x="853" 
d="M358 581l130 197l113 -80l-130 -117h-113zM67 0v504h130v-50q49 60 122 60q88 0 144 -79q53 79 150 79q80 0 133 -56t53 -139v-319h-130v309q0 38 -24 63.5t-60 25.5q-39 0 -63 -27.5t-24 -67.5v-303h-130v309q0 38 -24 63.5t-62 25.5t-61.5 -27.5t-23.5 -67.5v-303h-130
z" />
    <glyph glyph-name="uni1E44" unicode="&#x1e44;" horiz-adv-x="737" 
d="M369 822q-29 0 -49 20t-20 49q0 28 20.5 48t48.5 20t48 -20t20 -48t-20 -48.5t-48 -20.5zM665 -22l-463 495v-473h-130v790l463 -495v475h130v-792z" />
    <glyph glyph-name="uni1E45" unicode="&#x1e45;" horiz-adv-x="566" 
d="M281 606q-29 0 -49 20t-20 49q0 28 20.5 48t48.5 20t48 -20t20 -48t-20 -48.5t-48 -20.5zM67 0v504h129v-46q56 56 135 56q76 0 128.5 -54.5t52.5 -133.5v-326h-130v310q0 39 -26 64.5t-65 25.5q-40 0 -67 -26t-28 -64v-310h-129z" />
    <glyph glyph-name="uni1E4C" unicode="&#x1e4c;" horiz-adv-x="882" 
d="M374 1070l150 187l93 -80l-130 -107h-113zM316 816l-94 39q33 132 136 132q34 0 60.5 -16.5t49 -32.5t45.5 -16q51 0 56 71l91 -37q-33 -134 -139 -134q-35 0 -63.5 15t-50 30.5t-39.5 15.5q-39 0 -52 -67zM441 -10q-165 0 -280 116.5t-115 278.5q0 165 116.5 280
t278.5 115q165 0 280 -116.5t115 -278.5q0 -165 -116.5 -280t-278.5 -115zM441 120q109 0 187 77.5t78 187.5q0 109 -77.5 187t-187.5 78q-109 0 -187 -77.5t-78 -187.5q0 -109 77.5 -187t187.5 -78z" />
    <glyph glyph-name="uni1E4D" unicode="&#x1e4d;" horiz-adv-x="603" 
d="M235 814l130 197l113 -80l-130 -117h-113zM177 560l-94 39q33 132 136 132q34 0 60.5 -16.5t49 -32.5t45.5 -16q51 0 56 71l91 -37q-33 -134 -139 -134q-35 0 -63.5 15t-50 30.5t-39.5 15.5q-39 0 -52 -67zM302 -10q-113 0 -190 76t-77 186t77 186t190 76q112 0 189 -76
t77 -186t-77 -186t-189 -76zM302 110q58 0 99 41.5t41 100.5t-41 100t-99 41q-60 0 -101.5 -41t-41.5 -100t41.5 -100.5t101.5 -41.5z" />
    <glyph glyph-name="Wgrave" unicode="&#x1e80;" horiz-adv-x="993" 
d="M554 843h-113l-110 87l93 80zM992 770l-350 -790l-145 328l-146 -328l-350 790h144l211 -501l77 183l-141 318h134l71 -167l70 167h134l-141 -318l77 -183l211 501h144z" />
    <glyph glyph-name="wgrave" unicode="&#x1e81;" horiz-adv-x="791" 
d="M339 577l-130 117l113 80l130 -197h-113zM796 504l-240 -524l-160 354l-161 -354l-240 524h141l109 -263l101 263h99l101 -263l109 263h141z" />
    <glyph glyph-name="Wacute" unicode="&#x1e82;" horiz-adv-x="993" 
d="M674 954l-130 -107h-113l150 187zM992 770l-350 -790l-145 328l-146 -328l-350 790h144l211 -501l77 183l-141 318h134l71 -167l70 167h134l-141 -318l77 -183l211 501h144z" />
    <glyph glyph-name="wacute" unicode="&#x1e83;" horiz-adv-x="791" 
d="M329 581l130 197l113 -80l-130 -117h-113zM796 504l-240 -524l-160 354l-161 -354l-240 524h141l109 -263l101 263h99l101 -263l109 263h141z" />
    <glyph glyph-name="Wdieresis" unicode="&#x1e84;" horiz-adv-x="993" 
d="M397 826q-29 0 -49 20t-20 49q0 28 20.5 48t48.5 20t48 -20t20 -48t-20 -48.5t-48 -20.5zM599 826q-29 0 -49 20t-20 49q0 28 20.5 48t48.5 20t48 -20t20 -48t-20 -48.5t-48 -20.5zM992 770l-350 -790l-145 328l-146 -328l-350 790h144l211 -501l77 183l-141 318h134
l71 -167l70 167h134l-141 -318l77 -183l211 501h144z" />
    <glyph glyph-name="wdieresis" unicode="&#x1e85;" horiz-adv-x="791" 
d="M295 610q-29 0 -49 20t-20 49q0 28 20.5 48t48.5 20t48 -20t20 -48t-20 -48.5t-48 -20.5zM497 610q-29 0 -49 20t-20 49q0 28 20.5 48t48.5 20t48 -20t20 -48t-20 -48.5t-48 -20.5zM796 504l-240 -524l-160 354l-161 -354l-240 524h141l109 -263l101 263h99l101 -263
l109 263h141z" />
    <glyph glyph-name="uni1EBC" unicode="&#x1ebc;" horiz-adv-x="599" 
d="M187 816l-94 39q33 132 136 132q34 0 60.5 -16.5t49 -32.5t45.5 -16q51 0 56 71l91 -37q-33 -134 -139 -134q-35 0 -63.5 15t-50 30.5t-39.5 15.5q-39 0 -52 -67zM72 0v770h480v-130h-350v-190h310v-130h-310v-190h350v-130h-480z" />
    <glyph glyph-name="uni1EBD" unicode="&#x1ebd;" horiz-adv-x="595" 
d="M218 627q-39 0 -52 -67l-94 39q33 132 136 132q34 0 60.5 -16.5t49 -32.5t45.5 -16q51 0 56 71l91 -37q-33 -134 -139 -134q-35 0 -63.5 15t-50 30.5t-39.5 15.5zM560 257l-1 -28h-397q7 -61 46.5 -97.5t95.5 -36.5q87 0 129 73l104 -43q-31 -63 -92 -99t-140 -36
q-118 0 -194 75.5t-76 186.5q0 110 75.5 186t190.5 76q110 0 184 -71.5t75 -185.5zM302 411q-91 0 -127 -83h247q-34 83 -120 83z" />
    <glyph glyph-name="Ygrave" unicode="&#x1ef2;" horiz-adv-x="592" 
d="M239 843l-110 87l93 80l130 -167h-113zM231 0v367l-237 403h161l141 -277l142 277h160l-237 -403v-367h-130z" />
    <glyph glyph-name="ygrave" unicode="&#x1ef3;" horiz-adv-x="543" 
d="M330 577h-113l-130 117l113 80zM403 504h138l-294 -734h-134l93 236l-204 498h142l130 -346z" />
    <glyph glyph-name="endash" unicode="&#x2013;" horiz-adv-x="712" 
d="M87 190v130h538v-130h-538z" />
    <glyph glyph-name="emdash" unicode="&#x2014;" horiz-adv-x="1000" 
d="M0 190v130h1000v-130h-1000z" />
    <glyph glyph-name="quoteleft" unicode="&#x2018;" horiz-adv-x="249" 
d="M129 473l-100 297h153l30 -297h-83z" />
    <glyph glyph-name="quoteright" unicode="&#x2019;" horiz-adv-x="272" 
d="M130 473h-83l30 297h153z" />
    <glyph glyph-name="quotesinglbase" unicode="&#x201a;" horiz-adv-x="254" 
d="M56 -196l30 297h153l-110 -297h-73z" />
    <glyph glyph-name="quotedblleft" unicode="&#x201c;" horiz-adv-x="469" 
d="M129 473l-100 297h153l30 -297h-83zM349 473l-100 297h153l30 -297h-83z" />
    <glyph glyph-name="quotedblright" unicode="&#x201d;" horiz-adv-x="492" 
d="M47 473l30 297h153l-100 -297h-83zM267 473l30 297h153l-100 -297h-83z" />
    <glyph glyph-name="quotedblbase" unicode="&#x201e;" horiz-adv-x="474" 
d="M56 -196l30 297h153l-110 -297h-73zM276 -196l30 297h153l-110 -297h-73z" />
    <glyph glyph-name="bullet" unicode="&#x2022;" horiz-adv-x="472" 
d="M234 255q-55 0 -91 36t-36 92t38.5 93t90.5 37q54 0 91.5 -37.5t37.5 -92.5q0 -54 -38 -91t-93 -37z" />
    <glyph glyph-name="ellipsis" unicode="&#x2026;" horiz-adv-x="1033" 
d="M151 -10q-40 0 -68 27.5t-28 68.5q0 39 28 68t68 29q42 0 69.5 -29t27.5 -68q0 -41 -27.5 -68.5t-69.5 -27.5zM484 -10q-40 0 -68 27.5t-28 68.5q0 39 28 68t68 29q42 0 69.5 -29t27.5 -68q0 -41 -27.5 -68.5t-69.5 -27.5zM817 -10q-40 0 -68 27.5t-28 68.5q0 39 28 68
t68 29q42 0 69.5 -29t27.5 -68q0 -41 -27.5 -68.5t-69.5 -27.5z" />
    <glyph glyph-name="perthousand" unicode="&#x2030;" horiz-adv-x="1094" 
d="M180 460q-64 0 -109.5 47t-45.5 113t45 113t110 47q64 0 109.5 -47t45.5 -113t-45 -113t-110 -47zM60 -1l483 771h144l-483 -771h-144zM180 561q27 0 43 17.5t16 41.5q0 25 -16.5 42t-42.5 17t-42.5 -17.5t-16.5 -41.5q0 -25 17 -42t42 -17zM569 -10q-66 0 -111 47
t-45 113t45 113t111 47t110.5 -47.5t44.5 -112.5t-45 -112.5t-110 -47.5zM914 -10q-66 0 -111 47t-45 113t45 113t111 47t110.5 -47.5t44.5 -112.5t-45 -112.5t-110 -47.5zM569 91q25 0 42 17t17 42t-17 42t-42 17q-27 0 -43.5 -17.5t-16.5 -41.5q0 -25 17 -42t43 -17z
M914 91q25 0 42 17t17 42t-17 42t-42 17q-27 0 -43.5 -17.5t-16.5 -41.5q0 -25 17 -42t43 -17z" />
    <glyph glyph-name="fraction" unicode="&#x2044;" horiz-adv-x="219" 
d="M-170 -200l415 1000h144l-415 -1000h-144z" />
    <glyph glyph-name="trademark" unicode="&#x2122;" horiz-adv-x="640" 
d="M274 457v333l139 -192l140 192v-333h-69v139l-71 -93l-70 92v-138h-69zM106 457v244h-69v69h207v-69h-69v-244h-69z" />
    <glyph glyph-name="minus" unicode="&#x2212;" horiz-adv-x="588" 
d="M90 328v114h408v-114h-408z" />
    <glyph glyph-name="uniF8FF" unicode="&#xf8ff;" horiz-adv-x="852" 
d="M426 0q-157 0 -268.5 111.5t-111.5 268.5t111.5 268.5t268.5 111.5q158 0 269 -111t111 -269q0 -157 -111.5 -268.5t-268.5 -111.5zM426 36q142 0 243 101t101 243t-101 243t-243 101t-243 -101t-101 -243t101 -243t243 -101zM625 217q-7 0 -12 6l-145 144q-12 14 0 26
l145 145q13 12 25 0q13 -13 0 -26l-132 -132l132 -132q12 -12 0 -25q-4 -6 -13 -6zM227 217q-7 0 -12.5 5.5t-5.5 12.5v290q0 7 5.5 12.5t12.5 5.5t12.5 -5.5t5.5 -12.5v-290q0 -7 -5.5 -12.5t-12.5 -5.5zM426 217q-8 0 -13 5.5t-5 12.5v290q0 7 5 12.5t13 5.5t13 -5.5
t5 -12.5v-290q0 -7 -5 -12.5t-13 -5.5zM281 362q-7 0 -12.5 5t-5.5 13t5.5 13t12.5 5h91q8 0 13 -5t5 -13t-5 -13t-13 -5h-91z" />
    <glyph glyph-name="i.loclTRK" horiz-adv-x="264" 
d="M132 606q-28 0 -48.5 20t-20.5 49q0 28 20.5 48t48.5 20t48 -20t20 -48t-20 -48.5t-48 -20.5zM67 0v504h128v-504h-128z" />
    <glyph glyph-name="a.ss01" horiz-adv-x="537" 
d="M253 504q114 0 172 -43.5t58 -142.5v-318h-118l-4 60h-5q-18 -30 -56.5 -50t-88.5 -20q-72 0 -126.5 40.5t-54.5 121.5q0 32 11 66t41 98h274v8q0 41 -26 57.5t-77 16.5h-171v106h171zM246 90q71 0 110 74v65h-171q-22 -48 -22 -73q0 -34 24 -50t59 -16z" />
    <glyph glyph-name="aacute.ss01" horiz-adv-x="537" 
d="M445 698l-130 -117h-113l130 197zM253 504q114 0 172 -43.5t58 -142.5v-318h-118l-4 60h-5q-18 -30 -56.5 -50t-88.5 -20q-72 0 -126.5 40.5t-54.5 121.5q0 32 11 66t41 98h274v8q0 41 -26 57.5t-77 16.5h-171v106h171zM246 90q71 0 110 74v65h-171q-22 -48 -22 -73
q0 -34 24 -50t59 -16z" />
    <glyph glyph-name="abreve.ss01" horiz-adv-x="537" 
d="M276 572q-79 0 -131.5 50.5t-52.5 126.5v25h99v-25q0 -32 22.5 -55t54.5 -23t55 23t23 55v25h99v-25q0 -73 -50 -125t-119 -52zM253 504q114 0 172 -43.5t58 -142.5v-318h-118l-4 60h-5q-18 -30 -56.5 -50t-88.5 -20q-72 0 -126.5 40.5t-54.5 121.5q0 32 11 66t41 98h274
v8q0 41 -26 57.5t-77 16.5h-171v106h171zM246 90q71 0 110 74v65h-171q-22 -48 -22 -73q0 -34 24 -50t59 -16z" />
    <glyph glyph-name="uni01CE.ss01" horiz-adv-x="537" 
d="M331 573h-124l-110 197h104l68 -122l68 122h104zM253 504q114 0 172 -43.5t58 -142.5v-318h-118l-4 60h-5q-18 -30 -56.5 -50t-88.5 -20q-72 0 -126.5 40.5t-54.5 121.5q0 32 11 66t41 98h274v8q0 41 -26 57.5t-77 16.5h-171v106h171zM246 90q71 0 110 74v65h-171
q-22 -48 -22 -73q0 -34 24 -50t59 -16z" />
    <glyph glyph-name="acircumflex.ss01" horiz-adv-x="537" 
d="M269 695l-68 -122h-104l110 197h124l110 -197h-104zM253 504q114 0 172 -43.5t58 -142.5v-318h-118l-4 60h-5q-18 -30 -56.5 -50t-88.5 -20q-72 0 -126.5 40.5t-54.5 121.5q0 32 11 66t41 98h274v8q0 41 -26 57.5t-77 16.5h-171v106h171zM246 90q71 0 110 74v65h-171
q-22 -48 -22 -73q0 -34 24 -50t59 -16z" />
    <glyph glyph-name="adieresis.ss01" horiz-adv-x="537" 
d="M168 610q-28 0 -48.5 20t-20.5 49q0 28 20.5 48t48.5 20t48 -20t20 -48t-20 -48.5t-48 -20.5zM370 610q-28 0 -48.5 20t-20.5 49q0 28 20.5 48t48.5 20t48 -20t20 -48t-20 -48.5t-48 -20.5zM253 504q114 0 172 -43.5t58 -142.5v-318h-118l-4 60h-5q-18 -30 -56.5 -50
t-88.5 -20q-72 0 -126.5 40.5t-54.5 121.5q0 32 11 66t41 98h274v8q0 41 -26 57.5t-77 16.5h-171v106h171zM246 90q71 0 110 74v65h-171q-22 -48 -22 -73q0 -34 24 -50t59 -16z" />
    <glyph glyph-name="agrave.ss01" horiz-adv-x="537" 
d="M325 577h-113l-130 117l113 80zM253 504q114 0 172 -43.5t58 -142.5v-318h-118l-4 60h-5q-18 -30 -56.5 -50t-88.5 -20q-72 0 -126.5 40.5t-54.5 121.5q0 32 11 66t41 98h274v8q0 41 -26 57.5t-77 16.5h-171v106h171zM246 90q71 0 110 74v65h-171q-22 -48 -22 -73
q0 -34 24 -50t59 -16z" />
    <glyph glyph-name="amacron.ss01" horiz-adv-x="537" 
d="M428 703v-104h-318v104h318zM253 504q114 0 172 -43.5t58 -142.5v-318h-118l-4 60h-5q-18 -30 -56.5 -50t-88.5 -20q-72 0 -126.5 40.5t-54.5 121.5q0 32 11 66t41 98h274v8q0 41 -26 57.5t-77 16.5h-171v106h171zM246 90q71 0 110 74v65h-171q-22 -48 -22 -73
q0 -34 24 -50t59 -16z" />
    <glyph glyph-name="aogonek.ss01" horiz-adv-x="537" 
d="M466 -106l63 -71q-48 -57 -118 -57q-50 0 -85.5 32t-35.5 85q0 78 75 122l-4 55h-5q-18 -30 -56.5 -50t-88.5 -20q-72 0 -126.5 40.5t-54.5 121.5q0 32 11 66t41 98h274v8q0 41 -26 57.5t-77 16.5h-171v106h171q114 0 172 -43.5t58 -142.5v-318q-56 -6 -83.5 -32.5
t-27.5 -59.5q0 -21 11 -32t28 -11q30 0 55 29zM246 90q71 0 110 74v65h-171q-22 -48 -22 -73q0 -34 24 -50t59 -16z" />
    <glyph glyph-name="aring.ss01" horiz-adv-x="537" 
d="M269 554q-65 0 -111.5 45.5t-46.5 112.5q0 65 45.5 111.5t112.5 46.5q65 0 111.5 -45.5t46.5 -112.5q0 -66 -46 -112t-112 -46zM269 787q-31 0 -53 -21.5t-22 -53.5q0 -31 21.5 -53t53.5 -22q31 0 53 21.5t22 53.5q0 31 -21.5 53t-53.5 22zM253 504q114 0 172 -43.5
t58 -142.5v-318h-118l-4 60h-5q-18 -30 -56.5 -50t-88.5 -20q-72 0 -126.5 40.5t-54.5 121.5q0 32 11 66t41 98h274v8q0 41 -26 57.5t-77 16.5h-171v106h171zM246 90q71 0 110 74v65h-171q-22 -48 -22 -73q0 -34 24 -50t59 -16z" />
    <glyph glyph-name="atilde.ss01" horiz-adv-x="537" 
d="M196 627q-39 0 -52 -67l-94 39q33 132 136 132q34 0 60.5 -16.5t49 -32.5t45.5 -16q51 0 56 71l91 -37q-33 -134 -139 -134q-35 0 -63.5 15t-50 30.5t-39.5 15.5zM253 504q114 0 172 -43.5t58 -142.5v-318h-118l-4 60h-5q-18 -30 -56.5 -50t-88.5 -20q-72 0 -126.5 40.5
t-54.5 121.5q0 32 11 66t41 98h274v8q0 41 -26 57.5t-77 16.5h-171v106h171zM246 90q71 0 110 74v65h-171q-22 -48 -22 -73q0 -34 24 -50t59 -16z" />
    <glyph glyph-name="emdash.case" horiz-adv-x="1000" 
d="M0 320v130h1000v-130h-1000z" />
    <glyph glyph-name="endash.case" horiz-adv-x="712" 
d="M87 320v130h538v-130h-538z" />
    <glyph glyph-name="uni0308.case" 
d="M-305 826q-29 0 -49 20t-20 49q0 28 20.5 48t48.5 20t48 -20t20 -48t-20 -48.5t-48 -20.5zM-103 826q-29 0 -49 20t-20 49q0 28 20.5 48t48.5 20t48 -20t20 -48t-20 -48.5t-48 -20.5z" />
    <glyph glyph-name="uni0307.case" 
d="M-103 822q-29 0 -49 20t-20 49q0 28 20.5 48t48.5 20t48 -20t20 -48t-20 -48.5t-48 -20.5z" />
    <glyph glyph-name="gravecomb.case" 
d="M-148 843l-110 87l93 80l130 -167h-113z" />
    <glyph glyph-name="acutecomb.case" 
d="M-278 847l150 187l93 -80l-130 -107h-113z" />
    <glyph glyph-name="uni030B.case" 
d="M-385 843h-113l150 187l93 -80zM-165 843h-113l150 187l93 -80z" />
    <glyph glyph-name="uni0302.case" 
d="M-379 859l110 157h124l110 -157h-104l-68 82l-68 -82h-104z" />
    <glyph glyph-name="uni030C.case" 
d="M-269 849l-110 167h104l68 -92l68 92h104l-110 -167h-124z" />
    <glyph glyph-name="uni0306.case" 
d="M-204 818q-79 0 -131.5 50.5t-52.5 126.5v25h99v-25q0 -32 22.5 -55t54.5 -23t55 23t23 55v25h99v-25q0 -73 -50 -125t-119 -52z" />
    <glyph glyph-name="uni030A.case" 
d="M-193 740q-65 0 -111.5 45.5t-46.5 112.5q0 65 45.5 111.5t112.5 46.5q65 0 111.5 -45.5t46.5 -112.5q0 -66 -46 -112t-112 -46zM-193 823q31 0 53 21.5t22 53.5q0 31 -21.5 53t-53.5 22q-31 0 -53 -21.5t-22 -53.5q0 -31 21.5 -53t53.5 -22z" />
    <glyph glyph-name="tildecomb.case" 
d="M-379 816l-94 39q33 132 136 132q34 0 60.5 -16.5t49 -32.5t45.5 -16q51 0 56 71l91 -37q-33 -134 -139 -134q-35 0 -63.5 15t-50 30.5t-39.5 15.5q-39 0 -52 -67z" />
    <glyph glyph-name="uni0304.case" 
d="M-353 835v104h318v-104h-318z" />
    </font>
</defs>
</svg>
