<?xml version="1.0" standalone="no"?>
<!DOCTYPE svg PUBLIC "-//W3C//DTD SVG 1.1//EN" "http://www.w3.org/Graphics/SVG/1.1/DTD/svg11.dtd" >
<svg xmlns="http://www.w3.org/2000/svg" xmlns:xlink="http://www.w3.org/1999/xlink" version="1.1">
<metadata>
Created by FontForge 20161013 at Tue Mar 12 13:02:21 2013
 By ,,,
Copyright (c) 1999, Design: Cornel Windlin &#38; Gilles Gavillet, published by www.lineto.com. All rights reserved.
</metadata>
<defs>
<font id="GravurCondensed-Bold" horiz-adv-x="527" >
  <font-face 
    font-family="Gravur Condensed Bold"
    font-weight="400"
    font-stretch="normal"
    units-per-em="1000"
    panose-1="0 0 0 0 0 0 0 0 0 0"
    ascent="750"
    descent="-250"
    x-height="482"
    cap-height="697"
    bbox="-25 -216 947 897"
    underline-thickness="95"
    underline-position="-283"
    unicode-range="U+0020-FB02"
  />
<missing-glyph horiz-adv-x="1000" 
 />
    <glyph glyph-name=".notdef" horiz-adv-x="1000" 
 />
    <glyph glyph-name=".null" horiz-adv-x="0" 
 />
    <glyph glyph-name="nonmarkingreturn" horiz-adv-x="333" 
 />
    <glyph glyph-name="space" unicode=" " horiz-adv-x="290" 
 />
    <glyph glyph-name="exclam" unicode="!" horiz-adv-x="248" 
d="M172 251q0 -23 -14 -35.5t-34 -12.5t-34 12.5t-14 35.5v398q0 23 14 35.5t34 12.5t34 -12.5t14 -35.5v-398zM172 42q0 -23 -14 -35.5t-33 -12.5q-20 0 -34.5 12.5t-14.5 35.5v22q0 23 14 35.5t34 12.5t34 -12.5t14 -35.5v-22z" />
    <glyph glyph-name="quotedbl" unicode="&#x22;" horiz-adv-x="363" 
d="M164 532q0 -23 -14 -36t-34 -13t-34 13t-14 36v117q0 23 14 35.5t34 12.5t34 -12.5t14 -35.5v-117zM296 532q0 -23 -14 -36t-34 -13t-34 13t-14 36v117q0 23 14.5 35.5t33.5 12.5q20 0 34 -12.5t14 -35.5v-117z" />
    <glyph glyph-name="numbersign" unicode="#" horiz-adv-x="703" 
d="M665 450q0 -21 -13.5 -34.5t-34.5 -13.5h-114l-18 -102h98q21 0 34.5 -13.5t13.5 -34.5t-14 -34t-35 -13h-114l-30 -171q-3 -18 -15.5 -29t-30.5 -11q-21 0 -34.5 13t-13.5 34q0 7 1 10l27 154h-102l-30 -171q-7 -40 -43 -40q-21 0 -35.5 13.5t-14.5 34.5q0 6 1 9l26 154
h-88q-21 0 -34.5 13t-13.5 34t13 34.5t35 13.5h107l18 102h-90q-21 0 -35 13.5t-14 34.5t14 34t35 13h107l28 160q7 40 47 40q20 0 33.5 -13.5t13.5 -33.5q0 -2 -0.5 -5t-0.5 -5l-25 -143h100l28 160q7 40 47 40q20 0 33.5 -13.5t13.5 -33.5q0 -2 -0.5 -5t-0.5 -5l-25 -143
h97q21 0 34.5 -13t13.5 -34zM407 402h-101l-18 -102h101z" />
    <glyph glyph-name="dollar" unicode="$" horiz-adv-x="489" 
d="M446 180q0 -72 -44 -121.5t-115 -61.5v-31q0 -23 -13 -35.5t-30 -12.5t-30 12.5t-13 35.5v31q-70 12 -114.5 63t-44.5 129q0 23 14 35.5t34 12.5t34 -12.5t14 -35.5q0 -46 27.5 -73t71.5 -27h10q45 0 74 24.5t29 66.5q0 38 -31 69t-75.5 53.5t-89 47t-75.5 63.5t-31 89
v18q0 67 45 114t108 59v31q0 23 13 36t30 13t30 -13t13 -36v-30q62 -10 103.5 -49t45.5 -101v-6q0 -20 -13 -32.5t-33 -12.5q-40 0 -50 44q-7 38 -29 51.5t-64 13.5h-9q-35 0 -64.5 -21t-29.5 -56v-20q0 -26 31 -50t75.5 -47t89 -51t75.5 -74t31 -103z" />
    <glyph glyph-name="percent" unicode="%" horiz-adv-x="730" 
d="M292 444q0 -51 -34.5 -87t-85.5 -36t-86 36t-35 87v128q0 51 35 88t86 37t85.5 -37t34.5 -88v-128zM539 649q0 -7 -4 -19l-251 -606q-13 -30 -43 -30q-22 0 -36.5 14t-14.5 34q0 11 4 19l251 606q13 30 43 30q22 0 36.5 -14t14.5 -34zM197 444v128q0 13 -7.5 21.5
t-17.5 8.5t-17.5 -8.5t-7.5 -21.5v-128q0 -13 7.5 -20.5t17.5 -7.5t17.5 7.5t7.5 20.5zM679 117q0 -51 -34.5 -87t-85.5 -36t-86 36t-35 87v129q0 50 35 87t86 37t85.5 -37t34.5 -87v-129zM584 117v129q0 12 -8 20.5t-17 8.5t-17 -8.5t-8 -20.5v-129q0 -12 8 -20t17 -8
q10 0 17.5 8t7.5 20z" />
    <glyph glyph-name="ampersand" unicode="&#x26;" horiz-adv-x="565" 
d="M317 513q0 14 -13.5 27.5t-38.5 13.5h-8q-20 0 -32.5 -11.5t-12.5 -33.5q0 -20 37 -80q68 48 68 84zM327 124l-113 182q-29 -22 -42.5 -34t-26 -32.5t-12.5 -43.5q0 -42 31 -74.5t73 -32.5h10q37 0 80 35zM544 46q0 -21 -14 -36.5t-38 -15.5q-56 0 -103 50
q-69 -50 -143 -50h-10q-84 0 -141 55t-57 138q0 48 20 87t44 59.5t67 49.5q-2 4 -13.5 23t-15.5 27t-11.5 24t-10 29.5t-2.5 28.5q0 72 43 103t98 31h8q56 0 102 -33.5t46 -102.5q0 -50 -30.5 -87.5t-84.5 -75.5l94 -152l15 26q17 28 45 28q20 0 34.5 -13.5t14.5 -34.5
q0 -10 -5 -23q-10 -28 -36 -65q19 -22 35 -22q23 0 36 -14t13 -34z" />
    <glyph glyph-name="quotesingle" unicode="'" horiz-adv-x="231" 
d="M164 525q0 -24 -13.5 -37t-32.5 -13q-20 0 -35 13.5t-15 36.5v122q0 23 15 36.5t35 13.5q19 0 32.5 -13t13.5 -37v-122z" />
    <glyph glyph-name="parenleft" unicode="(" horiz-adv-x="310" 
d="M271 -32q15 -19 13.5 -37.5t-14.5 -32.5q-14 -13 -30 -14t-34 15q-61 65 -99.5 180t-38.5 247q0 130 37.5 243.5t97.5 179.5q20 22 45 13.5t31.5 -32.5t-10.5 -49q-46 -50 -78.5 -146.5t-32.5 -208.5q0 -114 33 -210.5t80 -147.5z" />
    <glyph glyph-name="parenright" unicode=")" horiz-adv-x="310" 
d="M243 326q0 -132 -39 -247t-100 -180q-20 -22 -45 -13t-31 33.5t11 48.5q47 50 80 146.5t33 211.5q0 112 -32 208.5t-78 146.5q-20 22 -11.5 49t31.5 33t45 -14q60 -66 98 -180t38 -243z" />
    <glyph glyph-name="asterisk" unicode="*" horiz-adv-x="427" 
d="M391 488q-13 -25 -40 -22l-70 7l41 -56q16 -21 2 -45q-9 -17 -28 -23.5t-37 2.5q-11 6 -17 18l-28 65l-29 -64q-8 -21 -28.5 -24.5t-35.5 7.5q-17 9 -22.5 26t6.5 37l41 57l-70 -7q-14 -2 -25 5q-16 9 -20 30t5 36q13 25 40 22l70 -8l-41 57q-16 21 -2 46q9 16 28 22
t37 -3q12 -7 17 -18l29 -65l29 65q9 20 29 24t34 -6q17 -10 23.5 -27t-6.5 -37l-42 -58l70 8q12 1 25 -6q16 -10 20 -29.5t-5 -35.5z" />
    <glyph glyph-name="plus" unicode="+" horiz-adv-x="468" 
d="M430 267q0 -19 -13 -33t-36 -14h-99v-101q0 -22 -14.5 -34.5t-34.5 -12.5q-19 0 -33 12.5t-14 34.5v101h-100q-23 0 -35.5 14t-12.5 33t12.5 33.5t35.5 14.5h100v101q0 23 14 35.5t34 12.5t34 -12.5t14 -35.5v-101h99q23 0 36 -14.5t13 -33.5z" />
    <glyph glyph-name="comma" unicode="," horiz-adv-x="211" 
d="M156 35q0 -53 -12.5 -85t-46.5 -68l-14 -15q-15 -16 -34 -16t-34 15t-15 34q0 16 14 32l14 15q20 22 26 36.5t6 52.5v31q0 22 14 34.5t33 12.5q20 0 34.5 -12.5t14.5 -35.5v-31z" />
    <glyph glyph-name="hyphen" unicode="-" horiz-adv-x="383" 
d="M345 267q0 -20 -12 -34t-35 -14h-212q-23 0 -35.5 14.5t-12.5 33.5t12.5 33t35.5 14h212q23 0 35 -14t12 -33z" />
    <glyph glyph-name="period" unicode="." horiz-adv-x="181" 
d="M138 42q0 -23 -14 -35.5t-34 -12.5t-34 12.5t-14 35.5v22q0 23 14 35.5t34 12.5t34 -12.5t14 -35.5v-22z" />
    <glyph glyph-name="slash" unicode="/" horiz-adv-x="393" 
d="M390 714q0 -10 -4 -21l-305 -776q-13 -33 -44 -33q-22 0 -36.5 15t-14.5 36q0 10 4 21l304 776q13 33 44 33q22 0 37 -15t15 -36z" />
    <glyph glyph-name="zero" unicode="0" horiz-adv-x="459" 
d="M403 158q0 -69 -49 -116.5t-119 -47.5h-10q-70 0 -119 47.5t-49 116.5v376q0 69 49 116t119 47h10q70 0 119 -47t49 -116v-376zM307 158v376q0 30 -21 49t-51 19h-10q-30 0 -51 -19t-21 -49v-376q0 -29 21 -49t51 -20h10q30 0 51 20t21 49z" />
    <glyph glyph-name="one" unicode="1" horiz-adv-x="441" 
d="M315 42q0 -23 -14.5 -35.5t-33.5 -12.5t-33.5 12.5t-14.5 35.5v509l-39 -55q-14 -21 -38 -21q-20 0 -35.5 14.5t-15.5 33.5q0 15 10 29l89 121q18 24 48 24h38q18 0 28.5 -14t10.5 -34v-607z" />
    <glyph glyph-name="two" unicode="2" horiz-adv-x="463" 
d="M417 48q0 -20 -12.5 -34t-35.5 -14h-272q-23 0 -36.5 18.5t-13.5 41.5q0 19 8 31l236 378q14 23 14 53v12q0 29 -21 48.5t-52 19.5h-6q-30 0 -51 -19.5t-21 -48.5v-7q0 -23 -14.5 -36t-33.5 -13t-33.5 13t-14.5 36v7q0 69 49 116t119 47h6q70 0 119.5 -45.5t49.5 -117.5
v-17q0 -47 -32 -100l-197 -322h197q23 0 35.5 -14t12.5 -33z" />
    <glyph glyph-name="three" unicode="3" horiz-adv-x="460" 
d="M406 162q0 -70 -49 -119t-122 -49h-10q-73 0 -122 47t-49 111q0 23 14 35.5t34 12.5t34 -12.5t14 -35.5q0 -26 22.5 -44.5t52.5 -18.5h10q30 0 52.5 22t22.5 51v65q0 61 -21.5 78.5t-77.5 17.5q-24 0 -37.5 14.5t-13.5 33.5t13.5 33t37.5 14t38 2t30 10t23.5 27.5
t7.5 50.5v23q0 33 -22 52t-53 19q-32 0 -54 -14.5t-22 -44.5q0 -23 -14.5 -36t-33.5 -13t-33.5 13t-14.5 36q0 73 51 113.5t121 40.5t120.5 -44t50.5 -122v-23q0 -90 -46 -138q46 -48 46 -143v-65z" />
    <glyph glyph-name="four" unicode="4" horiz-adv-x="467" 
d="M433 193q0 -19 -12.5 -33.5t-35.5 -14.5h-34v-103q0 -23 -14 -35.5t-33 -12.5q-20 0 -34.5 12.5t-14.5 35.5v103h-169q-24 0 -37.5 16.5t-13.5 38.5q0 14 5 24l192 444q12 29 42 29q22 0 36 -14t14 -34q0 -13 -4 -20l-169 -389h104v69q0 23 14.5 35.5t33.5 12.5
t33.5 -12.5t14.5 -35.5v-69h34q23 0 35.5 -14t12.5 -33z" />
    <glyph glyph-name="five" unicode="5" horiz-adv-x="458" 
d="M399 162q0 -70 -49 -119t-119 -49h-10q-71 0 -116.5 47t-45.5 121q0 23 14.5 35.5t33.5 12.5t33.5 -12.5t14.5 -35.5q0 -33 18.5 -53t47.5 -20h10q30 0 51 21.5t21 51.5v152q0 30 -21 51.5t-51 21.5h-10q-46 0 -68 -41q-10 -19 -41 -19q-20 0 -33.5 12t-13.5 37v267
q0 19 14.5 33.5t33.5 14.5h217q23 0 35.5 -14t12.5 -33q0 -20 -12.5 -34t-35.5 -14h-169v-131q19 17 60 17h10q71 0 119.5 -46.5t48.5 -120.5v-153z" />
    <glyph glyph-name="six" unicode="6" horiz-adv-x="459" 
d="M403 555q0 -21 -14 -33t-33 -12q-18 0 -31.5 10.5t-17.5 30.5q-4 24 -24 37.5t-48 13.5h-10q-29 0 -50.5 -22t-21.5 -51v-102q28 23 72 23h10q70 0 118.5 -49t48.5 -119v-120q0 -70 -48.5 -119t-118.5 -49h-10q-70 0 -119 49t-49 119v367q0 69 49 118.5t119 49.5h10
q44 0 78.5 -15.5t53 -39t27.5 -46t9 -41.5zM306 162v120q0 30 -20.5 51.5t-50.5 21.5h-10q-30 0 -51 -21.5t-21 -51.5v-120q0 -30 21 -51.5t51 -21.5h10q30 0 50.5 21.5t20.5 51.5z" />
    <glyph glyph-name="seven" unicode="7" horiz-adv-x="460" 
d="M406 638q0 -12 -3 -22l-180 -588q-10 -34 -45 -34q-22 0 -36 14t-14 34q0 10 2 15l164 539h-144v-32q0 -23 -14 -35.5t-34 -12.5t-34 12.5t-14 35.5v79q0 19 14.5 33.5t33.5 14.5h248q26 0 41 -15t15 -38z" />
    <glyph glyph-name="eight" unicode="8" horiz-adv-x="459" 
d="M403 162q0 -70 -49 -119t-119 -49h-10q-70 0 -119 49t-49 119v87q0 66 54 120q-54 52 -54 119v42q0 70 49 118.5t119 48.5h10q70 0 119 -48.5t49 -118.5v-42q0 -69 -52 -119q52 -52 52 -120v-87zM307 488v42q0 29 -21 50.5t-51 21.5h-10q-30 0 -51 -21.5t-21 -50.5v-42
q0 -30 21 -50.5t51 -20.5h10q30 0 51 20.5t21 50.5zM307 161v88q0 30 -21 51.5t-51 21.5h-10q-30 0 -51 -21.5t-21 -51.5v-88q0 -29 21 -50.5t51 -21.5h10q30 0 51 21.5t21 50.5z" />
    <glyph glyph-name="nine" unicode="9" horiz-adv-x="459" 
d="M307 414v116q0 30 -21 51t-51 21h-10q-30 0 -51 -21t-21 -51v-116q0 -30 21 -51t51 -21h10q30 0 51 21t21 51zM403 162q0 -69 -49 -118.5t-119 -49.5h-10q-74 0 -121 50t-47 98q0 21 14.5 34t34.5 13q17 0 30 -10.5t17 -29.5q5 -25 25.5 -42.5t46.5 -17.5h10
q29 0 50.5 22t21.5 51v107q-26 -22 -72 -22h-10q-70 0 -119 48.5t-49 118.5v115q0 70 49 119t119 49h10q70 0 119 -49t49 -119v-367z" />
    <glyph glyph-name="colon" unicode=":" horiz-adv-x="181" 
d="M138 308q0 -22 -14.5 -34.5t-33.5 -12.5t-33.5 12.5t-14.5 34.5v23q0 23 14 35.5t34 12.5t34 -12.5t14 -35.5v-23zM138 42q0 -23 -14 -35.5t-34 -12.5t-34 12.5t-14 35.5v22q0 23 14 35.5t34 12.5t34 -12.5t14 -35.5v-22z" />
    <glyph glyph-name="semicolon" unicode=";" horiz-adv-x="211" 
d="M156 308q0 -22 -14 -34.5t-33 -12.5t-33.5 12.5t-14.5 34.5v23q0 23 14.5 35.5t33.5 12.5t33 -12.5t14 -35.5v-23zM156 35q0 -53 -12.5 -85t-46.5 -68l-14 -15q-15 -16 -34 -16t-34 15t-15 34q0 16 14 32l14 15q20 22 26 36.5t6 52.5v31q0 22 14 34.5t33 12.5
q20 0 34.5 -12.5t14.5 -35.5v-31z" />
    <glyph glyph-name="less" unicode="&#x3c;" horiz-adv-x="311" 
d="M260 38q0 -19 -13.5 -31.5t-38.5 -12.5q-18 0 -36 21l-152 183q-16 21 -16 43t16 43l152 186q15 18 36 18t36.5 -15t15.5 -35q0 -18 -11 -30l-137 -167l136 -168q12 -15 12 -35z" />
    <glyph glyph-name="equal" unicode="=" horiz-adv-x="468" 
d="M430 337q0 -19 -12.5 -33t-34.5 -14h-298q-23 0 -35 13.5t-12 33.5t12 34t35 14h298q22 0 34.5 -14.5t12.5 -33.5zM430 197q0 -19 -12.5 -33.5t-34.5 -14.5h-298q-23 0 -35 14t-12 34q0 19 12 33t35 14h298q22 0 34.5 -14t12.5 -33z" />
    <glyph glyph-name="greater" unicode="&#x3e;" horiz-adv-x="349" 
d="M307 241q0 -24 -16 -43l-152 -183q-18 -21 -36 -21q-25 0 -38.5 12.5t-13.5 31.5q0 20 12 35l136 168l-137 167q-11 14 -11 30q0 20 15.5 35t36.5 15t36 -18l152 -186q16 -19 16 -43z" />
    <glyph glyph-name="question" unicode="?" horiz-adv-x="401" 
d="M359 496q0 -36 -13 -63.5t-31.5 -43.5t-37 -30.5t-31.5 -34.5t-13 -45v-47q0 -23 -14.5 -35.5t-33.5 -12.5q-20 0 -34.5 12.5t-14.5 35.5v47q0 17 2 31t4 24t9 22l10.5 18t15 18t16.5 16.5t21.5 19t23.5 20.5q24 19 24 53v30q0 29 -20.5 49.5t-50.5 20.5h-6
q-30 0 -50.5 -19.5t-20.5 -46.5v-3q0 -23 -14 -35.5t-34 -12.5t-34.5 12.5t-14.5 35.5v3q0 65 47.5 113.5t120.5 48.5h6q74 0 121 -48t47 -118v-35zM233 42q0 -23 -14.5 -35.5t-33.5 -12.5t-33 12.5t-14 35.5v22q0 23 14 35.5t33 12.5t33.5 -12.5t14.5 -35.5v-22z" />
    <glyph glyph-name="at" unicode="@" horiz-adv-x="807" 
d="M743 139q0 -66 -36 -105.5t-90 -39.5h-23q-51 0 -87 41q-46 -41 -110 -41h-9q-67 0 -116 43.5t-49 116.5q0 52 31.5 85t70 43t84 20t59.5 19v5q0 29 -19.5 48t-46.5 19h-7q-49 0 -66 -39q-13 -29 -41 -29q-19 0 -34.5 14t-15.5 34q0 11 4 20q23 50 64.5 72.5t88.5 22.5h7
q68 0 114.5 -46.5t46.5 -111.5v-181q0 -23 7.5 -37.5t14.5 -18.5t12 -4h19q32 0 32 50v182q0 92 -65 157t-157 65h-46q-92 0 -157 -65t-65 -157v-164q0 -92 65 -157t157 -65h46q45 0 85 17q9 4 20 4q20 0 33 -14.5t13 -34.5q0 -35 -47.5 -51t-103.5 -16h-46
q-131 0 -224 92.5t-93 224.5v164q0 131 93 224t224 93h46q131 0 224 -93t93 -224v-182zM468 159v60q-16 -4 -41.5 -8.5t-41.5 -8t-32.5 -9.5t-25 -15.5t-8.5 -24.5v-1q0 -28 18 -45.5t51 -17.5h9q29 0 50 20.5t21 49.5z" />
    <glyph glyph-name="A" unicode="A" horiz-adv-x="545" 
d="M519 40q0 -20 -13.5 -33t-35.5 -13q-34 0 -46 35l-41 132h-222l-40 -132q-10 -35 -47 -35q-21 0 -35 13t-14 32q0 6 2 16l190 604q6 18 21.5 28t33.5 10q43 0 55 -38l190 -604q2 -10 2 -15zM353 256l-81 265l-81 -265h162z" />
    <glyph glyph-name="B" unicode="B" horiz-adv-x="519" 
d="M468 195q0 -81 -57 -138t-138 -57h-149q-19 0 -33.5 14.5t-14.5 33.5v595q0 19 14.5 33.5t33.5 14.5h149q81 0 134 -53t53 -133q0 -97 -71 -147q35 -26 57 -68t22 -86v-9zM364 505q0 41 -25 66t-66 25h-101v-193h101q39 0 65.5 29t25.5 73zM372 195v9q0 43 -29.5 73.5
t-69.5 30.5h-101v-213h101q41 0 70 29.5t29 70.5z" />
    <glyph glyph-name="C" unicode="C" horiz-adv-x="495" 
d="M461 161q0 -71 -59 -119t-135 -48h-9q-81 0 -138 55.5t-57 136.5v320q0 81 57 136t138 55h9q76 0 135 -48.5t59 -118.5v-3q0 -23 -13 -37.5t-36 -14.5q-37 0 -47 41q-7 38 -33.5 62t-64.5 24h-9q-41 0 -70 -27.5t-29 -67.5v-322q0 -41 29 -68.5t70 -27.5h9q38 0 64.5 24
t33.5 62q10 41 47 41q23 0 36 -14.5t13 -37.5v-3z" />
    <glyph glyph-name="D" unicode="D" horiz-adv-x="540" 
d="M476 195q0 -86 -56 -140.5t-139 -54.5h-157q-19 0 -33.5 14.5t-14.5 33.5v595q0 19 14.5 33.5t33.5 14.5h157q83 0 139 -54.5t56 -140.5v-301zM380 195v301q0 41 -29 70.5t-70 29.5h-109v-501h109q40 0 69.5 29.5t29.5 70.5z" />
    <glyph glyph-name="E" unicode="E" horiz-adv-x="502" 
d="M476 47q0 -19 -12.5 -33t-35.5 -14h-304q-19 0 -33.5 14.5t-14.5 33.5v595q0 19 14.5 33.5t33.5 14.5h304q23 0 35.5 -14.5t12.5 -33.5t-12.5 -33t-35.5 -14h-256v-193h174q23 0 35.5 -14t12.5 -33q0 -20 -12.5 -34t-35.5 -14h-174v-213h256q23 0 35.5 -14t12.5 -34z" />
    <glyph glyph-name="F" unicode="F" horiz-adv-x="476" 
d="M476 643q0 -19 -12.5 -33t-35.5 -14h-256v-193h174q23 0 35.5 -14t12.5 -33q0 -20 -12.5 -34t-35.5 -14h-174v-266q0 -23 -14 -35.5t-34 -12.5t-34 12.5t-14 35.5v601q0 19 14.5 33.5t33.5 14.5h304q23 0 35.5 -14.5t12.5 -33.5z" />
    <glyph glyph-name="G" unicode="G" 
d="M463 189q0 -81 -57 -138t-138 -57h-10q-81 0 -138 55.5t-57 136.5v320q0 80 57 135.5t138 55.5h10q77 0 132 -45.5t62 -111.5v-5q0 -21 -14 -33t-33 -12q-17 0 -30.5 11t-16.5 32q-4 32 -32.5 50.5t-67.5 18.5h-10q-41 0 -70 -28t-29 -68v-320q0 -41 29 -69t70 -28h10
q40 0 69.5 29.5t29.5 70.5v103h-81q-23 0 -35.5 14t-12.5 34q0 19 12.5 33t35.5 14h128q20 0 34.5 -14.5t14.5 -33.5v-150z" />
    <glyph glyph-name="H" unicode="H" horiz-adv-x="552" 
d="M476 42q0 -23 -14 -35.5t-34 -12.5t-34 12.5t-14 35.5v266h-208v-266q0 -23 -14 -35.5t-34 -12.5t-34 12.5t-14 35.5v607q0 23 14 35.5t34 12.5t34 -12.5t14 -35.5v-246h208v246q0 23 14 35.5t34 12.5t34 -12.5t14 -35.5v-607z" />
    <glyph glyph-name="I" unicode="I" horiz-adv-x="265" 
d="M181 42q0 -23 -14.5 -35.5t-33.5 -12.5t-33.5 12.5t-14.5 35.5v607q0 23 14.5 35.5t33.5 12.5t33.5 -12.5t14.5 -35.5v-607z" />
    <glyph glyph-name="J" unicode="J" horiz-adv-x="470" 
d="M394 189q0 -81 -57 -138t-138 -57h-9q-69 0 -122 40.5t-67 107.5q-1 4 -1 12q0 20 14.5 33.5t34.5 13.5q35 0 47 -38q23 -74 94 -74h9q41 0 70 29.5t29 70.5v460q0 23 14 35.5t34 12.5t34 -12.5t14 -35.5v-460z" />
    <glyph glyph-name="K" unicode="K" horiz-adv-x="502" 
d="M476 41q0 -19 -14.5 -33t-35.5 -14q-29 0 -42 27l-141 291l-71 -103v-167q0 -23 -14 -35.5t-34 -12.5t-34 12.5t-14 35.5v607q0 23 14 35.5t34 12.5t34 -12.5t14 -35.5v-269l201 296q14 21 38 21q21 0 35.5 -14t14.5 -34q0 -15 -8 -27l-148 -218l166 -341q5 -12 5 -22z
" />
    <glyph glyph-name="L" unicode="L" horiz-adv-x="466" 
d="M440 47q0 -19 -12.5 -33t-35.5 -14h-268q-19 0 -33.5 14.5t-14.5 33.5v601q0 23 14 35.5t34 12.5q19 0 33 -12.5t14 -35.5v-554h221q23 0 35.5 -14t12.5 -34z" />
    <glyph glyph-name="M" unicode="M" horiz-adv-x="664" 
d="M588 42q0 -23 -14 -35.5t-34 -12.5t-34 12.5t-14 35.5v424l-108 -250q-14 -30 -51 -30q-35 0 -49 30l-112 250v-424q0 -23 -14 -35.5t-34 -12.5t-34 12.5t-14 35.5v607q0 19 14.5 33.5t33.5 14.5h12q37 0 49 -28l148 -330l146 330q12 28 49 28h12q19 0 33.5 -14.5
t14.5 -33.5v-607z" />
    <glyph glyph-name="N" unicode="N" horiz-adv-x="552" 
d="M476 42q0 -19 -14.5 -33.5t-33.5 -14.5h-11q-36 0 -54 41l-191 431v-424q0 -23 -14 -35.5t-33 -12.5q-20 0 -34.5 12.5t-14.5 35.5v605q0 20 14 35t37 15h11q36 0 51 -35l191 -431v418q0 23 14 35.5t33 12.5q20 0 34.5 -12.5t14.5 -35.5v-607z" />
    <glyph glyph-name="O" unicode="O" 
d="M463 186q0 -81 -57 -136.5t-138 -55.5h-10q-81 0 -138 55.5t-57 136.5v320q0 81 57.5 136t138.5 55h9q81 0 138 -55t57 -136v-320zM367 186v320q0 41 -29 68.5t-70 27.5h-10q-41 0 -70 -28t-29 -68v-320q0 -41 29 -69t70 -28h10q41 0 70 28t29 69z" />
    <glyph glyph-name="P" unicode="P" horiz-adv-x="495" 
d="M474 497q0 -82 -54 -138.5t-134 -56.5h-114v-260q0 -23 -14 -35.5t-34 -12.5t-34 12.5t-14 35.5v601q0 19 14.5 33.5t33.5 14.5h162q80 0 134 -56t54 -138zM378 497q0 41 -26 70t-66 29h-114v-199h114q40 0 66 29t26 71z" />
    <glyph glyph-name="Q" unicode="Q" 
d="M367 188v315q0 41 -29 70t-70 29h-10q-40 0 -69.5 -29t-29.5 -70v-315q0 -40 29.5 -69.5t69.5 -29.5h10q9 0 25 4l-10 10q-15 15 -15 33q0 20 15 35t35 15q19 0 34 -15l11 -11q4 18 4 28zM463 189q0 -56 -28 -101l11 -12q15 -15 15 -33q0 -19 -15 -34t-35 -15
q-19 0 -34 15l-11 11q-47 -26 -98 -26h-10q-80 0 -137.5 57.5t-57.5 137.5v313q0 81 57.5 138t137.5 57h10q81 0 138 -57t57 -138v-313z" />
    <glyph glyph-name="R" unicode="R" horiz-adv-x="524" 
d="M482 487q0 -64 -35 -114.5t-92 -70.5l114 -239q5 -12 5 -21q0 -20 -14.5 -34t-36.5 -14q-28 0 -41 27l-129 272h-81v-251q0 -23 -14 -35.5t-33 -12.5q-20 0 -34.5 12.5t-14.5 35.5v601q0 19 14.5 33.5t33.5 14.5h163q81 0 138 -57t57 -138v-9zM386 487v9q0 41 -28 70.5
t-68 29.5h-118v-208h119q40 0 67.5 29t27.5 70z" />
    <glyph glyph-name="S" unicode="S" horiz-adv-x="489" 
d="M446 180q0 -83 -57 -134.5t-142 -51.5h-10q-82 0 -138.5 53t-56.5 142q0 23 14 35.5t34 12.5t34 -12.5t14 -35.5q0 -46 27.5 -73t71.5 -27h10q45 0 74 24.5t29 66.5q0 38 -31 69t-75.5 53.5t-89 47t-75.5 63.5t-31 89v18q0 77 58.5 127t131.5 50h9q76 0 130 -40t59 -113
v-6q0 -20 -13 -32.5t-33 -12.5q-40 0 -50 44q-7 38 -29 51.5t-64 13.5h-9q-35 0 -64.5 -21t-29.5 -56v-20q0 -26 31 -50t75.5 -47t89 -51t75.5 -74t31 -103z" />
    <glyph glyph-name="T" unicode="T" horiz-adv-x="407" 
d="M395 643q0 -19 -12.5 -33t-35.5 -14h-95v-554q0 -23 -14 -35.5t-34 -12.5t-34 12.5t-14 35.5v554h-95q-23 0 -35.5 14t-12.5 33t12.5 33.5t35.5 14.5h286q23 0 35.5 -14.5t12.5 -33.5z" />
    <glyph glyph-name="U" unicode="U" horiz-adv-x="552" 
d="M476 189q0 -80 -57 -137.5t-138 -57.5h-10q-80 0 -137.5 57.5t-57.5 137.5v460q0 23 14 35.5t34 12.5t34 -12.5t14 -35.5v-460q0 -41 29.5 -70t70.5 -29h9q41 0 70 29t29 70v460q0 23 14 35.5t34 12.5t34 -12.5t14 -35.5v-460z" />
    <glyph glyph-name="V" unicode="V" horiz-adv-x="474" 
d="M440 650q0 -8 -1 -13l-146 -601q-11 -42 -56 -42t-56 42l-146 601q-1 5 -1 13q0 20 14 33.5t36 13.5q36 0 45 -37l108 -460l108 460q9 37 45 37q22 0 36 -13.5t14 -33.5z" />
    <glyph glyph-name="W" unicode="W" horiz-adv-x="762" 
d="M728 650q0 -7 -1 -11l-129 -604q-9 -41 -56 -41q-20 0 -36.5 10.5t-20.5 29.5l-104 449l-104 -449q-4 -19 -20 -29.5t-36 -10.5t-36.5 11t-20.5 30l-129 604q-1 4 -1 11q0 20 14 33.5t35 13.5q37 0 46 -38l94 -437l104 435q4 19 19.5 29.5t34.5 10.5q44 0 54 -40
l104 -435l94 437q7 38 46 38q21 0 35 -13.5t14 -33.5z" />
    <glyph glyph-name="X" unicode="X" horiz-adv-x="495" 
d="M452 41q0 -19 -14.5 -33t-35.5 -14q-28 0 -42 27l-113 227l-113 -227q-13 -27 -42 -27q-21 0 -35.5 14t-14.5 33q0 11 6 23l145 292l-134 271q-6 12 -6 23q0 19 14.5 33t35.5 14q29 0 42 -27l102 -205l102 205q14 27 42 27q21 0 35.5 -14t14.5 -33q0 -11 -6 -23
l-134 -271l145 -292q6 -12 6 -23z" />
    <glyph glyph-name="Y" unicode="Y" horiz-adv-x="474" 
d="M440 649q0 -7 -4 -19l-151 -363v-225q0 -23 -14.5 -35.5t-33.5 -12.5t-33.5 12.5t-14.5 35.5v225l-151 363q-4 8 -4 19q0 20 14 34t36 14q30 0 43 -30l110 -265l110 265q13 30 43 30q22 0 36 -14t14 -34z" />
    <glyph glyph-name="Z" unicode="Z" horiz-adv-x="458" 
d="M424 48q0 -20 -12.5 -34t-35.5 -14h-289q-24 0 -38.5 16.5t-14.5 38.5q0 13 6 25l254 516h-201q-23 0 -35.5 14t-12.5 34q0 19 12.5 33t35.5 14h271q26 0 40.5 -14t14.5 -35q0 -13 -9 -33l-253 -514h219q23 0 35.5 -14t12.5 -33z" />
    <glyph glyph-name="bracketleft" unicode="[" horiz-adv-x="295" 
d="M252 -70q0 -20 -12.5 -34t-35.5 -14h-76q-19 0 -33.5 14t-14.5 33v720q0 19 14.5 33.5t33.5 14.5h76q23 0 35.5 -14.5t12.5 -33.5t-12.5 -33t-35.5 -14h-28v-625h28q23 0 35.5 -14t12.5 -33z" />
    <glyph glyph-name="backslash" unicode="\" horiz-adv-x="393" 
d="M390 -65q0 -21 -15 -36t-37 -15q-31 0 -43 33l-305 776q-4 11 -4 21q0 21 14.5 36t36.5 15q32 0 45 -33l304 -776q4 -11 4 -21z" />
    <glyph glyph-name="bracketright" unicode="]" horiz-adv-x="295" 
d="M214 -71q0 -19 -14.5 -33t-33.5 -14h-76q-23 0 -35.5 14t-12.5 34q0 19 12.5 33t35.5 14h28v625h-28q-23 0 -35.5 14t-12.5 33t12.5 33.5t35.5 14.5h76q19 0 33.5 -14.5t14.5 -33.5v-720z" />
    <glyph glyph-name="asciicircum" unicode="^" horiz-adv-x="494" 
d="M494 470q0 -20 -15 -34t-34 -14q-21 0 -34 15l-164 185l-162 -183q-14 -17 -36 -17q-19 0 -34 14t-15 34q0 17 13 31l190 212q19 21 44 21t43 -19l190 -212q14 -15 14 -33z" />
    <glyph glyph-name="underscore" unicode="_" horiz-adv-x="544" 
d="M506 47q0 -19 -12 -33t-35 -14h-373q-23 0 -35.5 14t-12.5 33q0 20 12.5 34t35.5 14h373q23 0 35 -14t12 -34z" />
    <glyph glyph-name="grave" unicode="`" horiz-adv-x="427" 
d="M335 581q0 -20 -13 -35t-33 -15q-9 0 -21 5l-149 70q-28 13 -28 42q0 19 13 33.5t32 15.5q10 0 22 -5l149 -69q28 -13 28 -42z" />
    <glyph glyph-name="a" unicode="a" horiz-adv-x="466" 
d="M285 159v63q-15 -4 -41.5 -8.5t-42 -8.5t-33 -11t-25.5 -19t-8 -29q0 -25 19 -41t52 -16h9q29 0 49.5 20.5t20.5 49.5zM436 41q0 -19 -12 -33t-33 -14q-45 0 -75 37q-47 -37 -101 -37h-9q-68 0 -116 38.5t-48 111.5v5q0 34 13 60t30.5 40.5t45.5 26t49 16t51 9.5t41 8
q13 3 13 19q0 29 -18.5 47t-46.5 18h-7q-48 0 -65 -39q-12 -29 -42 -29q-19 0 -34.5 13.5t-15.5 33.5q0 10 4 21q23 50 64.5 72.5t88.5 22.5h7q64 0 112.5 -42t48.5 -109v-221q0 -24 16 -27q39 -9 39 -48z" />
    <glyph glyph-name="b" unicode="b" horiz-adv-x="471" 
d="M416 159q0 -68 -48.5 -116.5t-117.5 -48.5h-7q-46 0 -71 26q-10 -26 -48 -26q-19 0 -33.5 13t-14.5 35v607q0 23 14 35.5t34 12.5t34 -12.5t14 -35.5v-187q29 26 71 26h7q69 0 117.5 -48t48.5 -117v-164zM320 159v164q0 29 -20.5 49.5t-49.5 20.5h-8q-29 0 -49.5 -20.5
t-20.5 -49.5v-164q0 -28 20.5 -49t49.5 -21h8q29 0 49.5 20.5t20.5 49.5z" />
    <glyph glyph-name="c" unicode="c" horiz-adv-x="437" 
d="M395 154q0 -68 -48.5 -114t-117.5 -46h-8q-69 0 -117.5 47t-48.5 115v170q0 68 48.5 115t117.5 47h8q69 0 117.5 -46t48.5 -114q0 -23 -14.5 -35.5t-33.5 -12.5t-33.5 12.5t-14.5 35.5q0 28 -20 46.5t-50 18.5h-8q-29 0 -49.5 -19.5t-20.5 -47.5v-170q0 -28 20.5 -47.5
t49.5 -19.5h8q30 0 50 18.5t20 46.5q0 23 14.5 35.5t33.5 12.5t33.5 -12.5t14.5 -35.5z" />
    <glyph glyph-name="d" unicode="d" horiz-adv-x="471" 
d="M299 159v164q0 29 -20.5 49.5t-49.5 20.5h-8q-29 0 -49.5 -20.5t-20.5 -49.5v-164q0 -29 20.5 -49.5t49.5 -20.5h8q29 0 49.5 21t20.5 49zM395 42q0 -22 -14.5 -35t-33.5 -13q-38 0 -48 26q-25 -26 -71 -26h-7q-69 0 -117.5 48.5t-48.5 116.5v164q0 69 48.5 117t117.5 48
h7q42 0 71 -26v187q0 23 14.5 35.5t33.5 12.5t33.5 -12.5t14.5 -35.5v-607z" />
    <glyph glyph-name="e" unicode="e" horiz-adv-x="442" 
d="M395 240q0 -19 -14.5 -33.5t-33.5 -14.5h-196v-36q0 -28 20.5 -47.5t49.5 -19.5h8q23 0 38 11t20.5 23.5t17 23.5t29.5 11q20 0 35 -12t15 -31q0 -9 -5 -22q-49 -99 -150 -99h-8q-69 0 -117.5 47t-48.5 115v170q0 68 49 115t117 47h8q70 0 118 -47t48 -118v-83zM299 281
v42q0 30 -20.5 50t-47.5 20h-9q-29 0 -50 -19.5t-21 -47.5v-45h148z" />
    <glyph glyph-name="f" unicode="f" horiz-adv-x="297" 
d="M276 650q0 -20 -12 -34t-35 -14q-18 0 -28.5 -12.5t-10.5 -30.5v-74h34q23 0 35 -13.5t12 -33.5t-12 -34t-35 -14h-34v-348q0 -23 -14 -35.5t-34 -12.5t-34 12.5t-14 35.5v348h-9q-23 0 -35 14t-12 34t12 33.5t35 13.5h9v75q0 59 35.5 98t99.5 39q23 0 35 -13.5t12 -33.5
z" />
    <glyph glyph-name="g" unicode="g" horiz-adv-x="463" 
d="M304 158v166q0 29 -20 49t-49 20h-9q-29 0 -49 -20.5t-20 -49.5v-164q0 -29 20 -49.5t49 -20.5h9q29 0 49 20t20 49zM400 -51q0 -68 -48.5 -116.5t-116.5 -48.5h-9q-56 0 -105.5 29t-66.5 83q-3 9 -3 16q0 20 15 33t35 13t31 -12.5t16 -27t24.5 -27t53.5 -12.5h9
q29 0 49 20.5t20 49.5v71q-22 -26 -69 -26h-9q-68 0 -116.5 48.5t-48.5 116.5v164q0 68 48.5 116.5t116.5 48.5h9q43 0 69 -26q14 26 49 26q19 0 33 -12.5t14 -35.5v-491z" />
    <glyph glyph-name="h" unicode="h" horiz-adv-x="467" 
d="M416 42q0 -23 -14 -35.5t-34 -12.5t-34 12.5t-14 35.5v282q0 33 -21 51t-50 18h-3q-34 0 -54 -21t-20 -54v-276q0 -23 -14 -35.5t-34 -12.5t-34 12.5t-14 35.5v607q0 23 14 35.5t34 12.5t34 -12.5t14 -35.5v-187q29 26 70 26h12q70 0 116 -47.5t46 -116.5v-282z" />
    <glyph glyph-name="i" unicode="i" horiz-adv-x="240" 
d="M168 628q0 -22 -14.5 -34.5t-33.5 -12.5t-33 12.5t-14 34.5v21q0 23 14 35.5t33 12.5q20 0 34 -12.5t14 -35.5v-21zM168 42q0 -23 -14.5 -35.5t-33.5 -12.5q-20 0 -34 12.5t-14 35.5v398q0 23 14 35.5t34 12.5q19 0 33.5 -12.5t14.5 -35.5v-398z" />
    <glyph glyph-name="j" unicode="j" horiz-adv-x="248" 
d="M176 628q0 -23 -14.5 -35.5t-33.5 -12.5q-20 0 -34 12.5t-14 35.5v21q0 23 14 35t34 12q19 0 33.5 -12.5t14.5 -34.5v-21zM176 -88q0 -69 -25.5 -98.5t-83.5 -29.5h-15q-23 0 -35.5 14t-12.5 34t12.5 34t35.5 14q16 0 22 7.5t6 24.5v528q0 23 14 35.5t34 12.5
q19 0 33.5 -12.5t14.5 -35.5v-528z" />
    <glyph glyph-name="k" unicode="k" horiz-adv-x="455" 
d="M425 41q0 -19 -14.5 -33t-35.5 -14q-26 0 -40 25l-114 200l-49 -54v-123q0 -23 -14.5 -35.5t-34.5 -12.5q-19 0 -33 12.5t-14 35.5v607q0 23 14 35.5t33 12.5q20 0 34.5 -12.5t14.5 -35.5v-344l155 167q16 16 35 16q20 0 34 -15t14 -34q0 -18 -13 -32l-108 -115l129 -226
q7 -11 7 -25z" />
    <glyph glyph-name="l" unicode="l" horiz-adv-x="290" 
d="M256 45q0 -21 -13.5 -34.5t-34.5 -13.5q-65 0 -100.5 36t-35.5 101v515q0 21 13.5 34.5t34.5 13.5q20 0 34 -13.5t14 -33.5v-516q0 -17 11.5 -29.5t28.5 -12.5q21 0 34.5 -13t13.5 -34z" />
    <glyph glyph-name="m" unicode="m" horiz-adv-x="708" 
d="M653 42q0 -23 -14.5 -35.5t-34.5 -12.5q-19 0 -33 12.5t-14 35.5v281q0 29 -21 49.5t-50 20.5h-9q-29 0 -50 -20.5t-21 -49.5v-279q0 -23 -14.5 -36.5t-33.5 -13.5t-33.5 13.5t-14.5 36.5v279q0 29 -21 49.5t-50 20.5h-9q-29 0 -50 -20.5t-21 -49.5v-281
q0 -23 -14.5 -35.5t-33.5 -12.5t-33.5 12.5t-14.5 35.5v398q0 23 14.5 35.5t33.5 12.5q33 0 48 -26q24 26 71 26h9q70 0 119 -49q49 49 119 49h9q82 0 124.5 -43t42.5 -119v-284z" />
    <glyph glyph-name="n" unicode="n" horiz-adv-x="458" 
d="M403 42q0 -23 -14.5 -35.5t-33.5 -12.5t-33.5 12.5t-14.5 35.5v281q0 29 -20 49.5t-49 20.5h-9q-29 0 -49.5 -20.5t-20.5 -49.5v-281q0 -23 -14.5 -35.5t-33.5 -12.5t-33.5 12.5t-14.5 35.5v398q0 23 14.5 35.5t33.5 12.5q33 0 48 -26q28 26 70 26h9q72 0 118.5 -47.5
t46.5 -117.5v-281z" />
    <glyph glyph-name="o" unicode="o" horiz-adv-x="448" 
d="M394 156q0 -68 -48.5 -115t-117.5 -47h-8q-69 0 -117.5 47t-48.5 115v170q0 68 48.5 115t117.5 47h8q69 0 117.5 -47t48.5 -115v-170zM298 156v170q0 28 -20.5 47.5t-49.5 19.5h-8q-29 0 -49.5 -19.5t-20.5 -47.5v-170q0 -28 20.5 -47.5t49.5 -19.5h8q29 0 49.5 19.5
t20.5 47.5z" />
    <glyph glyph-name="p" unicode="p" horiz-adv-x="471" 
d="M320 159v164q0 29 -20.5 49.5t-49.5 20.5h-8q-29 0 -49.5 -21t-20.5 -49v-164q0 -29 20.5 -49.5t49.5 -20.5h8q29 0 49.5 20.5t20.5 49.5zM416 159q0 -69 -48.5 -117t-117.5 -48h-7q-42 0 -71 26v-188q0 -23 -14 -35.5t-34 -12.5t-34 12.5t-14 35.5v608q0 22 14.5 35
t33.5 13q38 0 48 -26q25 26 71 26h7q69 0 117.5 -48.5t48.5 -116.5v-164z" />
    <glyph glyph-name="q" unicode="q" horiz-adv-x="471" 
d="M395 -168q0 -23 -14.5 -35.5t-33.5 -12.5t-33.5 12.5t-14.5 35.5v188q-29 -26 -71 -26h-7q-69 0 -117.5 48t-48.5 117v164q0 68 48.5 116.5t117.5 48.5h7q46 0 71 -26q10 26 48 26q19 0 33.5 -13t14.5 -35v-608zM299 159v164q0 28 -20.5 49t-49.5 21h-8
q-29 0 -49.5 -20.5t-20.5 -49.5v-164q0 -29 20.5 -49.5t49.5 -20.5h8q29 0 49.5 20.5t20.5 49.5z" />
    <glyph glyph-name="r" unicode="r" horiz-adv-x="345" 
d="M328 398q0 -19 -16 -30t-35 -11q-21 0 -32 18t-39 18q-51 0 -51 -45v-304q0 -23 -14.5 -36.5t-34.5 -13.5q-19 0 -33 13.5t-14 36.5v396q0 23 14 35.5t34 12.5q37 0 48 -20q15 20 49 20q100 0 122 -78q2 -8 2 -12z" />
    <glyph glyph-name="s" unicode="s" horiz-adv-x="432" 
d="M394 144q0 -53 -29 -88.5t-66.5 -48.5t-78.5 -13h-17q-49 0 -94 28.5t-66 74.5q-5 10 -5 22q0 20 15 33t34 13q20 0 35 -19t33.5 -38t47.5 -19h17q78 0 78 55q0 13 -5 23.5t-9.5 16t-18 11t-18 7t-23 5.5t-20.5 4q-31 6 -54.5 14t-48.5 22t-39 37t-14 54v17q0 45 30.5 77
t68 44t73.5 12h4q63 0 109 -28.5t46 -57.5q0 -18 -13.5 -31t-32.5 -13q-16 0 -45 17.5t-64 17.5h-4q-32 0 -54 -12t-22 -29v-10q0 -16 18.5 -26.5t46.5 -15t60 -14.5t60 -23.5t46.5 -44t18.5 -74.5z" />
    <glyph glyph-name="t" unicode="t" horiz-adv-x="316" 
d="M282 45q0 -19 -12.5 -33.5t-35.5 -14.5q-57 0 -96.5 40t-39.5 97v256h-16q-23 0 -35.5 14t-12.5 34q0 19 12.5 33t35.5 14h16v164q0 23 14 35.5t33 12.5q20 0 34.5 -12.5t14.5 -35.5v-164h35q23 0 35.5 -14t12.5 -33q0 -20 -12.5 -34t-35.5 -14h-35v-256q0 -14 11.5 -28
t28.5 -14q23 0 35.5 -14t12.5 -33z" />
    <glyph glyph-name="u" unicode="u" horiz-adv-x="454" 
d="M395 42q0 -23 -14.5 -35.5t-33.5 -12.5q-33 0 -48 26q-28 -26 -70 -26h-9q-72 0 -118.5 47.5t-46.5 117.5v281q0 23 14.5 35.5t33.5 12.5t33.5 -12.5t14.5 -35.5v-281q0 -29 20 -49.5t49 -20.5h9q29 0 49.5 20.5t20.5 49.5v281q0 23 14.5 35.5t33.5 12.5t33.5 -12.5
t14.5 -35.5v-398z" />
    <glyph glyph-name="v" unicode="v" horiz-adv-x="432" 
d="M398 441q0 -5 -2 -15l-132 -401q-5 -15 -18 -23t-27 -8h-6q-35 0 -45 31l-132 401q-2 5 -2 15q0 20 14 33.5t35 13.5q33 0 44 -33l89 -274l89 274q10 33 44 33q21 0 35 -13.5t14 -33.5z" />
    <glyph glyph-name="w" unicode="w" horiz-adv-x="660" 
d="M626 441q0 -10 -2 -15l-116 -401q-4 -15 -17.5 -23t-27.5 -8h-4q-36 0 -45 31l-84 263l-86 -263q-10 -31 -45 -31h-3q-36 0 -45 31l-115 401q-2 5 -2 15q0 20 14 33.5t35 13.5q34 0 44 -33l77 -258l81 258q9 33 45 33h4q34 0 45 -33l80 -258l74 258q10 33 44 33
q21 0 35 -13.5t14 -33.5z" />
    <glyph glyph-name="x" unicode="x" horiz-adv-x="428" 
d="M390 41q0 -19 -14 -33t-35 -14q-24 0 -39 23l-88 141l-88 -141q-15 -23 -39 -23q-21 0 -35 14t-14 33q0 15 7 26l113 181l-104 166q-7 10 -7 26q0 19 14 33.5t35 14.5q23 0 39 -24l79 -126l79 126q16 24 39 24q21 0 35 -14.5t14 -33.5q0 -16 -7 -26l-104 -166l113 -181
q7 -11 7 -26z" />
    <glyph glyph-name="y" unicode="y" horiz-adv-x="415" 
d="M386 442q0 -1 -3 -16l-176 -542q-33 -100 -123 -100q-54 0 -54 48q0 47 51 47q26 0 43 47l44 130l-128 368q-3 9 -3 18q0 20 13.5 33t35.5 13q32 0 44 -32l86 -245l77 244q10 33 44 33q21 0 35 -13.5t14 -32.5z" />
    <glyph glyph-name="z" unicode="z" horiz-adv-x="399" 
d="M365 48q0 -20 -12 -34t-35 -14h-234q-20 0 -35 15t-15 38q0 20 12 39l186 295h-146q-23 0 -35.5 14.5t-12.5 33.5t12.5 33t35.5 14h223q19 0 34.5 -14t15.5 -33q0 -26 -15 -51l-179 -289h153q23 0 35 -13.5t12 -33.5z" />
    <glyph glyph-name="braceleft" unicode="{" horiz-adv-x="371" 
d="M328 -60q0 -18 -12.5 -32t-38.5 -14q-74 0 -104 34.5t-30 85.5v229q0 15 -17 35q-7 7 -17 16.5t-13.5 13t-8 10t-6 12.5t-1.5 15q0 11 3.5 19t7 12.5t15.5 15t20 18.5q17 17 17 37v190q0 51 30 85.5t104 34.5q26 0 38.5 -14t12.5 -32q0 -20 -12.5 -34.5t-36.5 -14.5
q-19 0 -30 -14.5t-11 -38.5v-174q0 -49 -48 -90q48 -39 48 -90v-213q0 -24 11 -38.5t30 -14.5q24 0 36.5 -14.5t12.5 -34.5z" />
    <glyph glyph-name="bar" unicode="|" horiz-adv-x="282" 
d="M189 -108q0 -23 -14 -36t-33 -13q-20 0 -34.5 13t-14.5 36v827q0 23 14 36t34 13t34 -13t14 -36v-827z" />
    <glyph glyph-name="braceright" unicode="}" horiz-adv-x="371" 
d="M290 345q0 -11 -3.5 -19.5t-7 -12.5t-16 -15.5t-19.5 -19.5q-17 -17 -17 -35v-229q0 -51 -30 -85.5t-104 -34.5q-26 0 -38.5 14t-12.5 32q0 20 12.5 34.5t36.5 14.5q19 0 30 14.5t11 38.5v213q0 51 48 90q-48 41 -48 90v174q0 24 -11 38.5t-30 14.5q-24 0 -36.5 14.5
t-12.5 34.5q0 18 12.5 32t38.5 14q74 0 104 -34.5t30 -85.5v-190q0 -20 17 -37q8 -8 20 -18.5t15.5 -15t7 -12.5t3.5 -19z" />
    <glyph glyph-name="asciitilde" unicode="~" horiz-adv-x="439" 
d="M383 659q0 -25 -29 -46.5t-82 -21.5q-23 0 -59 12.5t-55 12.5q-11 0 -32.5 -12.5t-28.5 -12.5q-17 0 -28.5 12.5t-11.5 29.5q0 28 30.5 46t68.5 18q26 0 64.5 -13t53.5 -13q14 0 35.5 13t33.5 13q17 0 28.5 -11.5t11.5 -26.5z" />
    <glyph glyph-name="exclamdown" unicode="&#xa1;" horiz-adv-x="248" 
d="M172 627q0 -23 -14 -35.5t-34 -12.5t-34 12.5t-14 35.5v22q0 23 14 35.5t33 12.5q20 0 34.5 -12.5t14.5 -35.5v-22zM172 42q0 -23 -14 -35.5t-34 -12.5t-34 12.5t-14 35.5v433q0 23 14 35.5t34 12.5t34 -12.5t14 -35.5v-433z" />
    <glyph glyph-name="cent" unicode="&#xa2;" horiz-adv-x="437" 
d="M395 154q0 -57 -35.5 -100t-90.5 -55v-33q0 -23 -13 -35.5t-30 -12.5t-30 12.5t-13 35.5v32q-56 13 -92 56.5t-36 101.5v170q0 58 36 101.5t92 56.5v31q0 23 13 36t30 13t30 -13t13 -36v-31q55 -13 90.5 -56t35.5 -100q0 -23 -14.5 -35.5t-33.5 -12.5t-33.5 12.5
t-14.5 35.5q0 28 -20 46.5t-50 18.5h-8q-29 0 -49.5 -19.5t-20.5 -47.5v-170q0 -28 20.5 -47.5t49.5 -19.5h8q30 0 50 18.5t20 46.5q0 23 14.5 35.5t33.5 12.5t33.5 -12.5t14.5 -35.5z" />
    <glyph glyph-name="sterling" unicode="&#xa3;" horiz-adv-x="519" 
d="M511 143q0 -71 -52 -107t-124 -36h-264q-25 0 -39.5 13t-14.5 31q0 35 40 51q88 35 88 115q0 35 -17 83h-63q-23 0 -35.5 14t-12.5 33q0 20 12.5 34t35.5 14h26q-34 85 -34 129v13q0 69 46 118t122 49h15q69 0 121 -39.5t52 -112.5q0 -23 -15 -36t-34 -13t-33 12.5
t-14 35.5q0 25 -21.5 41.5t-55.5 16.5h-15q-34 0 -53 -19.5t-19 -52.5v-12q0 -39 38 -130h90q23 0 36 -14t13 -34q0 -19 -13 -33t-36 -14h-51q12 -36 12 -74q0 -76 -45 -124h141q10 0 20.5 1.5t24.5 6t23 15t9 25.5q0 23 14 36t34 13t34 -13t14 -36z" />
    <glyph glyph-name="yen" unicode="&#xa5;" horiz-adv-x="491" 
d="M448 650q0 -11 -4 -20l-130 -313h57q21 0 32 -12.5t11 -30.5t-11 -30.5t-32 -12.5h-78v-24h78q21 0 32 -12.5t11 -30.5t-11 -30.5t-32 -12.5h-78v-79q0 -23 -14.5 -35.5t-33.5 -12.5t-33.5 12.5t-14.5 35.5v79h-77q-21 0 -32 12.5t-11 30.5t11 30.5t32 12.5h77v24h-77
q-21 0 -32 12.5t-11 30.5t11 30.5t32 12.5h56l-130 313q-4 9 -4 20q0 20 14 33.5t36 13.5q32 0 43 -30l110 -265l110 265q13 30 43 30q22 0 36 -13.5t14 -33.5z" />
    <glyph glyph-name="brokenbar" unicode="&#xa6;" horiz-adv-x="240" 
d="M168 452q0 -23 -14 -35.5t-34 -12.5t-34 12.5t-14 35.5v197q0 23 14 35.5t34 12.5t34 -12.5t14 -35.5v-197zM168 42q0 -23 -14 -35.5t-34 -12.5t-34 12.5t-14 35.5v196q0 23 14 36t34 13t34 -13t14 -36v-196z" />
    <glyph glyph-name="section" unicode="&#xa7;" horiz-adv-x="482" 
d="M322 245q0 21 -13 32l-98 83q-8 -3 -18 -7.5t-23.5 -20t-13.5 -33.5t16 -33l94 -81q56 25 56 60zM423 249q0 -81 -80 -128q65 -58 65 -134q0 -77 -51.5 -118.5t-122.5 -41.5q-68 0 -119 38.5t-51 104.5q0 24 15 37t35 13t34.5 -12t15.5 -34q2 -20 23 -36t48 -16
q30 0 51.5 17t21.5 48q0 33 -29 59l-168 146q-52 44 -52 104q0 91 84 131q-29 27 -43 54t-14 67q0 21 7 43.5t22.5 48t49.5 41.5t80 16q71 0 111.5 -40t40.5 -85q0 -24 -13.5 -39.5t-36.5 -15.5q-19 0 -34 11.5t-15 33.5q0 40 -56 40q-57 0 -57 -54q0 -41 41 -76l148 -122
q49 -40 49 -101z" />
    <glyph glyph-name="dieresis" unicode="&#xa8;" horiz-adv-x="431" 
d="M175 628q0 -22 -14.5 -34.5t-33.5 -12.5t-33 12.5t-14 34.5v21q0 23 14 35.5t33 12.5q20 0 34 -12.5t14 -35.5v-21zM350 628q0 -22 -14 -34.5t-33 -12.5t-33.5 12.5t-14.5 34.5v21q0 23 14.5 35.5t33.5 12.5t33 -12.5t14 -35.5v-21z" />
    <glyph glyph-name="copyright" unicode="&#xa9;" horiz-adv-x="858" 
d="M799 345q0 -154 -108.5 -262t-261.5 -108q-154 0 -262 108t-108 262t108 262.5t262 108.5q153 0 261.5 -108.5t108.5 -262.5zM718 345q0 119 -85 204.5t-204 85.5q-120 0 -204.5 -85t-84.5 -205t84 -204.5t205 -84.5q119 0 204 84.5t85 204.5zM560 235q0 -46 -38.5 -80.5
t-86.5 -34.5h-5q-52 0 -88 36.5t-36 88.5v197q0 52 36 88.5t88 36.5h5q48 0 86.5 -34.5t38.5 -80.5q0 -17 -12 -27.5t-28 -10.5q-32 0 -38 34q-5 38 -47 38h-5q-20 0 -32 -12t-12 -32v-197q0 -20 12.5 -32.5t31.5 -12.5h5q18 0 31.5 10.5t15.5 27.5q6 34 38 34q16 0 28 -10
t12 -27z" />
    <glyph glyph-name="ordfeminine" unicode="&#xaa;" horiz-adv-x="326" 
d="M183 493v31q-9 -3 -22.5 -5.5t-22 -4t-17 -4.5t-12.5 -8t-4 -13q0 -32 36 -32h6q15 0 25.5 10.5t10.5 25.5zM288 416q0 -27 -33 -27q-22 0 -44 24q-24 -24 -64 -24h-6q-43 0 -73 26t-30 76q0 40 25.5 59t71.5 28l37 7q13 2 13 12q0 13 -10 22.5t-25 9.5h-4q-23 0 -35 -20
t-29 -20q-14 0 -25 9.5t-11 23.5q0 26 29 50.5t71 24.5h4q41 0 71 -29.5t30 -70.5v-128q0 -9 18.5 -19t18.5 -29v-5z" />
    <glyph glyph-name="guillemotleft" unicode="&#xab;" horiz-adv-x="587" 
d="M294 101q0 -22 -14 -36t-35 -14t-37 18l-150 148q-16 16 -16 43t16 43l150 148q16 18 37 18q22 0 35.5 -14t13.5 -36q0 -18 -19 -37l-123 -122l123 -122q19 -19 19 -37zM523 101q0 -22 -12 -36q-14 -14 -37 -14q-18 0 -36 18l-150 148q-16 16 -16 43t16 43l150 148
q18 18 36 18q23 0 36 -13.5t13 -36.5q0 -21 -18 -37l-123 -122l123 -122q18 -16 18 -37z" />
    <glyph glyph-name="logicalnot" unicode="&#xac;" horiz-adv-x="406" 
d="M351 259q0 -23 -14.5 -35.5t-33.5 -12.5t-33.5 12.5t-14.5 35.5v45h-160q-23 0 -35.5 14t-12.5 33t12.5 33.5t35.5 14.5h208q19 0 33.5 -14.5t14.5 -34.5v-91z" />
    <glyph glyph-name="registered" unicode="&#xae;" horiz-adv-x="858" 
d="M799 345q0 -154 -108.5 -262t-261.5 -108q-154 0 -262 108t-108 262t108 262.5t262 108.5q153 0 261.5 -108.5t108.5 -262.5zM718 345q0 119 -85 204.5t-204 85.5q-120 0 -204.5 -85t-84.5 -205t84 -204.5t205 -84.5q119 0 204 84.5t85 204.5zM575 435q0 -75 -73 -114
l67 -145q4 -8 4 -18q0 -16 -11 -27t-29 -11q-24 0 -34 22l-75 163h-32v-146q0 -19 -11.5 -29t-28.5 -10t-28.5 10t-11.5 29v369q0 15 10.5 27t25.5 12h99q53 0 90.5 -37t37.5 -89v-6zM495 434v5q0 21 -15.5 34t-34.5 13h-53v-100h55q20 0 34 14t14 34z" />
    <glyph glyph-name="macron" unicode="&#xaf;" horiz-adv-x="443" 
d="M397 649q0 -19 -12.5 -33t-35.5 -14h-253q-23 0 -36 14t-13 34q0 19 12.5 33t35.5 14h253q23 0 36 -14t13 -34z" />
    <glyph glyph-name="degree" unicode="&#xb0;" horiz-adv-x="344" 
d="M300 575q0 -53 -38 -90.5t-90 -37.5t-90 37.5t-38 90.5t38 90.5t90 37.5t90 -37.5t38 -90.5zM222 575q0 21 -15 36t-35 15q-21 0 -35.5 -15t-14.5 -36q0 -20 14.5 -35t35.5 -15q20 0 35 15t15 35z" />
    <glyph glyph-name="plusminus" unicode="&#xb1;" horiz-adv-x="480" 
d="M421 312q0 -19 -12.5 -33t-34.5 -14h-85v-85q0 -23 -14.5 -35.5t-34.5 -12.5q-19 0 -33 12.5t-14 35.5v85h-88q-22 0 -34 14t-12 34q0 19 12 33t34 14h88v87q0 22 14.5 34.5t33.5 12.5t33.5 -12.5t14.5 -34.5v-87h85q22 0 34.5 -14.5t12.5 -33.5zM399 47q0 -19 -12.5 -33
t-35.5 -14h-224q-23 0 -35.5 14t-12.5 33q0 20 12.5 34t35.5 14h224q23 0 35.5 -14t12.5 -34z" />
    <glyph glyph-name="twosuperior" unicode="&#xb2;" horiz-adv-x="373" 
d="M309 330q0 -20 -13 -34t-36 -14h-147q-22 0 -36 17.5t-14 38.5q0 14 8 27l124 187q7 10 7 27v6q0 17 -21 17q-22 0 -22 -17v-6q0 -23 -14.5 -35.5t-33.5 -12.5t-33.5 12.5t-14.5 35.5v6q0 47 33.5 79.5t79.5 32.5h8q46 0 80 -32.5t34 -79.5v-7q0 -29 -20 -60l-87 -141h69
q23 0 36 -14t13 -33z" />
    <glyph glyph-name="threesuperior" unicode="&#xb3;" horiz-adv-x="362" 
d="M298 393q0 -48 -32.5 -79.5t-79.5 -31.5h-10q-48 0 -80.5 30.5t-32.5 80.5q0 23 14 36t34 13t34 -13t14 -36q0 -7 5 -11.5t12 -4.5h10q16 0 16 16v27q0 18 -4 23.5t-20 5.5h-8q-24 0 -37 13.5t-13 31.5t13 31t37 13q22 0 27 4t5 22v21q0 17 -19 17t-19 -16
q0 -18 -14 -28.5t-34 -10.5t-34 10.5t-14 28.5q0 111 116 111q48 0 81 -27t33 -85v-13q0 -43 -22 -74q9 -14 12 -20.5t6.5 -21.5t3.5 -35v-28z" />
    <glyph glyph-name="acute" unicode="&#xb4;" horiz-adv-x="429" 
d="M342 647q0 -28 -27 -41l-161 -76q-12 -5 -22 -5q-20 0 -33 15t-13 34q0 29 28 42l160 76q12 5 22 5q20 0 33 -15t13 -35z" />
    <glyph glyph-name="paragraph" unicode="&#xb6;" horiz-adv-x="520" 
d="M457 -40q0 -20 -13 -31t-31 -11q-17 0 -29.5 11t-12.5 31v649h-63v-649q0 -20 -12.5 -31t-30.5 -11q-17 0 -29.5 11t-12.5 31v348q-88 0 -147 55.5t-59 137.5q0 79 57.5 134.5t138.5 55.5h200q17 0 30.5 -13t13.5 -29v-689zM223 391v218q-52 0 -86.5 -31t-34.5 -77
q0 -48 34.5 -79t86.5 -31z" />
    <glyph glyph-name="periodcentered" unicode="&#xb7;" horiz-adv-x="181" 
d="M138 339q0 -23 -14 -35.5t-34 -12.5t-34 12.5t-14 35.5v22q0 23 14 35.5t34 12.5t34 -12.5t14 -35.5v-22z" />
    <glyph glyph-name="cedilla" unicode="&#xb8;" horiz-adv-x="418" 
d="M303 -107q0 -37 -26.5 -63.5t-63.5 -26.5h-10q-33 0 -60.5 23t-27.5 54q0 17 11.5 27t27.5 10q17 0 24.5 -9.5t11.5 -19t13 -9.5h10q6 0 10 4.5t4 9.5v10q0 15 -14 15h-4q-16 0 -27 11t-11 27v95q0 18 11.5 28t26.5 10t26.5 -10t11.5 -28v-64q25 -10 40.5 -33t15.5 -51
v-10z" />
    <glyph glyph-name="onesuperior" unicode="&#xb9;" horiz-adv-x="307" 
d="M243 331q0 -23 -14.5 -36t-33.5 -13t-33.5 13t-14.5 36v204q-17 -17 -39 -17q-18 0 -31.5 12.5t-13.5 29.5t14 34l71 83q18 20 47 20q24 0 36 -13.5t12 -34.5v-318z" />
    <glyph glyph-name="ordmasculine" unicode="&#xba;" horiz-adv-x="290" 
d="M252 494q0 -43 -30.5 -74t-73.5 -31h-6q-43 0 -73.5 31t-30.5 74v98q0 43 30.5 73.5t73.5 30.5h6q43 0 73.5 -30.5t30.5 -73.5v-98zM184 494v98q0 15 -10.5 26t-25.5 11h-6q-15 0 -25.5 -11t-10.5 -26v-98q0 -15 10.5 -26t25.5 -11h6q15 0 25.5 11t10.5 26z" />
    <glyph glyph-name="guillemotright" unicode="&#xbb;" horiz-adv-x="587" 
d="M315 260q0 -26 -16 -43l-150 -148q-18 -18 -36 -18q-23 0 -37 14q-13 16 -13 36q0 19 18 37l124 122l-124 122q-18 18 -18 37q0 23 13.5 36.5t36.5 13.5q18 0 36 -18l150 -148q16 -17 16 -43zM544 260q0 -27 -15 -43l-150 -148q-18 -18 -37 -18q-21 0 -35 14
q-14 13 -14 36q0 20 19 37l122 122l-122 122q-19 17 -19 37q0 22 13.5 36t35.5 14q19 0 37 -18l150 -148q15 -16 15 -43z" />
    <glyph glyph-name="onequarter" unicode="&#xbc;" horiz-adv-x="853" 
d="M243 331q0 -23 -14.5 -36t-33.5 -13t-33.5 13t-14.5 36v204q-17 -17 -39 -17q-19 0 -32 12.5t-13 29.5q0 18 13 34l72 83q18 20 47 20q24 0 36 -13.5t12 -34.5v-318zM639 647q0 -15 -7 -26l-361 -602q-14 -25 -42 -25q-22 0 -37 14.5t-15 35.5q0 12 8 26l361 602
q15 25 42 25q22 0 36.5 -14.5t14.5 -35.5zM789 123q0 -19 -12.5 -33.5t-35.5 -14.5h-13v-33q0 -23 -14 -35.5t-33 -12.5t-33.5 12.5t-14.5 35.5v33h-112q-20 0 -35 16.5t-15 36.5q0 12 6 23l133 231q16 27 44 27q19 0 34 -13t15 -32q0 -14 -7 -25l-96 -169h33v15
q0 23 14.5 35.5t34.5 12.5q19 0 32.5 -12.5t13.5 -35.5v-15h13q23 0 35.5 -14t12.5 -33z" />
    <glyph glyph-name="onehalf" unicode="&#xbd;" horiz-adv-x="841" 
d="M244 331q0 -23 -14.5 -36t-33.5 -13t-33.5 13t-14.5 36v204q-17 -17 -39 -17q-19 0 -32.5 12.5t-13.5 29.5t14 34l71 83q18 20 47 20q24 0 36.5 -13.5t12.5 -34.5v-318zM624 647q0 -15 -7 -26l-362 -602q-14 -25 -41 -25q-22 0 -37 14.5t-15 34.5q0 13 8 27l361 602
q15 25 41 25q22 0 37 -14.5t15 -35.5zM777 48q0 -20 -13 -34t-36 -14h-147q-21 0 -35 17t-14 38q0 14 8 27l123 187q7 10 7 27v7q0 17 -21 17q-22 0 -22 -17v-6q0 -23 -14 -35.5t-33 -12.5q-20 0 -34 12.5t-14 35.5v6q0 46 33 79t79 33h9q46 0 79.5 -33t33.5 -80v-7
q0 -12 -8.5 -31t-19.5 -37.5t-35 -57.5t-44 -74h69q23 0 36 -14t13 -33z" />
    <glyph glyph-name="threequarters" unicode="&#xbe;" horiz-adv-x="893" 
d="M669 648q0 -15 -8 -27l-361 -602q-14 -25 -41 -25q-22 0 -37 14.5t-15 35.5q0 13 7 26l362 602q15 25 41 25q22 0 37 -14.5t15 -34.5zM298 393q0 -48 -32.5 -79.5t-79.5 -31.5h-10q-48 0 -80.5 30.5t-32.5 80.5q0 23 14 36t34 13t34 -13t14 -36q0 -7 5 -11.5t12 -4.5h10
q16 0 16 16v27q0 18 -4 23.5t-20 5.5h-8q-24 0 -37 13.5t-13 31.5t13 31t37 13q22 0 27 4t5 22v21q0 17 -19 17t-19 -16q0 -18 -14 -28.5t-34 -10.5t-34 10.5t-14 28.5q0 111 116 111q48 0 81 -27t33 -85v-13q0 -43 -22 -74q9 -14 12 -20.5t6.5 -21.5t3.5 -35v-28zM829 123
q0 -20 -13 -34t-36 -14h-13v-33q0 -23 -14 -35.5t-33 -12.5t-33 12.5t-14 35.5v33h-112q-21 0 -35.5 16.5t-14.5 36.5q0 12 6 23l133 231q16 27 43 27q19 0 34 -13t15 -32q0 -12 -7 -25l-95 -169h33v15q0 23 14.5 35.5t33.5 12.5t32.5 -12.5t13.5 -35.5v-15h13q23 0 36 -14
t13 -33z" />
    <glyph glyph-name="questiondown" unicode="&#xbf;" horiz-adv-x="401" 
d="M263 627q0 -23 -14 -35.5t-33 -12.5q-20 0 -34 12.5t-14 35.5v22q0 23 14 35.5t34 12.5q19 0 33 -12.5t14 -35.5v-22zM384 156q0 -65 -47.5 -113.5t-120.5 -48.5h-6q-74 0 -121 48t-47 118v35q0 36 13 63.5t31.5 43.5t37 30.5t31.5 34.5t13 45v47q0 23 14 35.5t34 12.5
t34.5 -12.5t14.5 -35.5v-47q0 -17 -2 -31t-3.5 -24t-9.5 -22.5t-10 -17.5t-15 -18l-16.5 -16.5t-22 -19.5t-23.5 -20l-3 -3q-3 -2 -5 -4t-5.5 -7t-5.5 -10t-3.5 -12.5t-1.5 -16.5v-30q0 -29 20.5 -49.5t50.5 -20.5h6q30 0 50.5 19.5t20.5 46.5v3q0 23 14.5 35.5t33.5 12.5
q20 0 34.5 -12.5t14.5 -35.5v-3z" />
    <glyph glyph-name="Agrave" unicode="&#xc0;" horiz-adv-x="545" 
d="M394 780q0 -20 -13 -35t-33 -15q-9 0 -21 5l-149 70q-28 14 -28 42q0 19 13 34t32 16q8 0 22 -6l149 -69q28 -13 28 -42zM519 40q0 -20 -13.5 -33t-35.5 -13q-34 0 -46 35l-41 132h-222l-40 -132q-10 -35 -47 -35q-21 0 -35 13t-14 32q0 6 2 16l190 604q6 18 21.5 28
t33.5 10q43 0 55 -38l190 -604q2 -10 2 -15zM353 256l-81 265l-81 -265h162z" />
    <glyph glyph-name="Aacute" unicode="&#xc1;" horiz-adv-x="545" 
d="M400 847q0 -28 -27 -41l-161 -76q-12 -5 -22 -5q-20 0 -33 15t-13 34q0 29 28 42l160 76q12 5 22 5q20 0 33 -15t13 -35zM519 40q0 -20 -13.5 -33t-35.5 -13q-34 0 -46 35l-41 132h-222l-40 -132q-10 -35 -47 -35q-21 0 -35 13t-14 32q0 6 2 16l190 604q6 18 21.5 28
t33.5 10q43 0 55 -38l190 -604q2 -10 2 -15zM353 256l-81 265l-81 -265h162z" />
    <glyph glyph-name="Acircumflex" unicode="&#xc2;" horiz-adv-x="545" 
d="M424 787q0 -19 -15 -34.5t-35 -15.5q-12 0 -29 10l-76 50l-68 -50q-13 -10 -29 -10q-21 0 -36.5 16t-15.5 36t19 34l85 60q20 14 45 14t47 -15l88 -59q20 -12 20 -36zM519 40q0 -20 -13.5 -33t-35.5 -13q-34 0 -46 35l-41 132h-222l-40 -132q-10 -35 -47 -35
q-21 0 -35 13t-14 32q0 6 2 16l190 604q6 18 21.5 28t33.5 10q43 0 55 -38l190 -604q2 -10 2 -15zM353 256l-81 265l-81 -265h162z" />
    <glyph glyph-name="Atilde" unicode="&#xc3;" horiz-adv-x="545" 
d="M436 834q0 -25 -29 -46.5t-83 -21.5q-22 0 -58 12.5t-55 12.5q-12 0 -33.5 -12.5t-28.5 -12.5q-17 0 -28.5 13t-11.5 29q0 28 31 46t69 18q25 0 63.5 -13t53.5 -13q14 0 36 13t34 13q17 0 28.5 -11.5t11.5 -26.5zM519 40q0 -20 -13.5 -33t-35.5 -13q-34 0 -46 35l-41 132
h-222l-40 -132q-10 -35 -47 -35q-21 0 -35 13t-14 32q0 6 2 16l190 604q6 18 21.5 28t33.5 10q43 0 55 -38l190 -604q2 -10 2 -15zM353 256l-81 265l-81 -265h162z" />
    <glyph glyph-name="Adieresis" unicode="&#xc4;" horiz-adv-x="545" 
d="M405 827q0 -22 -14 -34.5t-33 -12.5t-33.5 12.5t-14.5 34.5v21q0 23 14.5 36t33.5 13t33 -13t14 -36v-21zM230 827q0 -22 -14.5 -34.5t-33.5 -12.5t-33 12.5t-14 34.5v21q0 23 14 35.5t33 12.5q20 0 34 -12.5t14 -35.5v-21zM519 40q0 -20 -13.5 -33t-35.5 -13
q-34 0 -46 35l-41 132h-222l-40 -132q-10 -35 -47 -35q-21 0 -35 13t-14 32q0 6 2 16l190 604q6 18 21.5 28t33.5 10q43 0 55 -38l190 -604q2 -10 2 -15zM353 256l-81 265l-81 -265h162z" />
    <glyph glyph-name="Aring" unicode="&#xc5;" horiz-adv-x="545" 
d="M365 804q0 -38 -27.5 -65.5t-65.5 -27.5t-65.5 27.5t-27.5 65.5t27.5 65.5t65.5 27.5t65.5 -27.5t27.5 -65.5zM301 803q0 13 -8.5 22t-20.5 9q-11 0 -19.5 -9t-8.5 -22q0 -11 8.5 -19.5t19.5 -8.5q12 0 20.5 8.5t8.5 19.5zM519 40q0 -20 -13.5 -33t-35.5 -13
q-34 0 -46 35l-41 132h-222l-40 -132q-10 -35 -47 -35q-21 0 -35 13t-14 32q0 6 2 16l190 604q6 18 21.5 28t33.5 10q43 0 55 -38l190 -604q2 -10 2 -15zM353 256l-81 265l-81 -265h162z" />
    <glyph glyph-name="AE" unicode="&#xc6;" horiz-adv-x="739" 
d="M350 271v325h-55l-102 -325h157zM713 48q0 -20 -12.5 -34t-35.5 -14h-266q-19 0 -34 14.5t-15 33.5v128h-186l-45 -148q-10 -34 -44 -34q-21 0 -35.5 14t-14.5 34q0 5 2 15l188 600q4 11 19.5 22.5t27.5 11.5h403q23 0 35.5 -14t12.5 -33q0 -20 -12.5 -34t-35.5 -14h-218
v-193h136q23 0 36 -14t13 -33q0 -20 -13 -34t-36 -14h-136v-213h218q23 0 35.5 -14t12.5 -33z" />
    <glyph glyph-name="Ccedilla" unicode="&#xc7;" horiz-adv-x="495" 
d="M249 -197h-10q-33 0 -60.5 23t-27.5 54q0 17 11.5 27t27.5 10q17 0 24.5 -9.5t11.5 -19t13 -9.5h10q6 0 10 4.5t4 9.5v10q0 15 -14 15h-4q-16 0 -27 11t-11 27v44q-63 17 -103.5 68t-40.5 118v320q0 81 57 136t138 55h9q76 0 135 -48.5t59 -118.5v-3q0 -23 -13 -37.5
t-36 -14.5q-37 0 -47 41q-7 38 -33.5 62t-64.5 24h-9q-41 0 -70 -27.5t-29 -67.5v-322q0 -41 29 -68.5t70 -27.5h9q38 0 64.5 24t33.5 62q10 41 47 41q23 0 36 -14.5t13 -37.5v-3q0 -67 -53.5 -114t-124.5 -52v-8q25 -10 40.5 -33t15.5 -51v-10q0 -37 -26.5 -63.5
t-63.5 -26.5z" />
    <glyph glyph-name="Egrave" unicode="&#xc8;" horiz-adv-x="502" 
d="M394 780q0 -20 -13 -35t-33 -15q-9 0 -21 5l-149 70q-28 14 -28 42q0 19 13 34t32 16q8 0 22 -6l149 -69q28 -13 28 -42zM476 47q0 -19 -12.5 -33t-35.5 -14h-304q-19 0 -33.5 14.5t-14.5 33.5v595q0 19 14.5 33.5t33.5 14.5h304q23 0 35.5 -14.5t12.5 -33.5t-12.5 -33
t-35.5 -14h-256v-193h174q23 0 35.5 -14t12.5 -33q0 -20 -12.5 -34t-35.5 -14h-174v-213h256q23 0 35.5 -14t12.5 -34z" />
    <glyph glyph-name="Eacute" unicode="&#xc9;" horiz-adv-x="502" 
d="M393 847q0 -28 -27 -41l-161 -76q-12 -5 -22 -5q-20 0 -33 15t-13 34q0 29 28 42l160 76q12 5 22 5q20 0 33 -15t13 -35zM476 47q0 -19 -12.5 -33t-35.5 -14h-304q-19 0 -33.5 14.5t-14.5 33.5v595q0 19 14.5 33.5t33.5 14.5h304q23 0 35.5 -14.5t12.5 -33.5t-12.5 -33
t-35.5 -14h-256v-193h174q23 0 35.5 -14t12.5 -33q0 -20 -12.5 -34t-35.5 -14h-174v-213h256q23 0 35.5 -14t12.5 -34z" />
    <glyph glyph-name="Ecircumflex" unicode="&#xca;" horiz-adv-x="502" 
d="M427 786q0 -19 -15 -34.5t-35 -15.5q-13 0 -29 10l-76 50l-68 -50q-15 -10 -29 -10q-21 0 -36.5 16t-15.5 36q0 21 19 34l85 60q23 15 45 15q23 0 47 -16l88 -59q20 -13 20 -36zM476 47q0 -19 -12.5 -33t-35.5 -14h-304q-19 0 -33.5 14.5t-14.5 33.5v595q0 19 14.5 33.5
t33.5 14.5h304q23 0 35.5 -14.5t12.5 -33.5t-12.5 -33t-35.5 -14h-256v-193h174q23 0 35.5 -14t12.5 -33q0 -20 -12.5 -34t-35.5 -14h-174v-213h256q23 0 35.5 -14t12.5 -34z" />
    <glyph glyph-name="Edieresis" unicode="&#xcb;" horiz-adv-x="502" 
d="M415 827q0 -22 -14 -34.5t-33 -12.5t-33.5 12.5t-14.5 34.5v21q0 23 14.5 36t33.5 13t33 -13t14 -36v-21zM240 827q0 -22 -14.5 -34.5t-33.5 -12.5t-33 12.5t-14 34.5v21q0 23 14 35.5t33 12.5q20 0 34 -12.5t14 -35.5v-21zM476 47q0 -19 -12.5 -33t-35.5 -14h-304
q-19 0 -33.5 14.5t-14.5 33.5v595q0 19 14.5 33.5t33.5 14.5h304q23 0 35.5 -14.5t12.5 -33.5t-12.5 -33t-35.5 -14h-256v-193h174q23 0 35.5 -14t12.5 -33q0 -20 -12.5 -34t-35.5 -14h-174v-213h256q23 0 35.5 -14t12.5 -34z" />
    <glyph glyph-name="Igrave" unicode="&#xcc;" horiz-adv-x="288" 
d="M266 780q0 -20 -13 -35t-33 -15q-9 0 -21 5l-149 70q-28 14 -28 42q0 19 13 34t32 16q8 0 22 -6l149 -69q28 -13 28 -42zM192 42q0 -23 -14 -35.5t-34 -12.5t-34 12.5t-14 35.5v607q0 23 14 35.5t34 12.5t34 -12.5t14 -35.5v-607z" />
    <glyph glyph-name="Iacute" unicode="&#xcd;" horiz-adv-x="290" 
d="M273 847q0 -28 -27 -41l-161 -76q-12 -5 -22 -5q-20 0 -33 15t-13 34q0 29 28 42l160 76q12 5 22 5q20 0 33 -15t13 -35zM193 42q0 -23 -14.5 -35.5t-33.5 -12.5q-20 0 -34 12.5t-14 35.5v607q0 23 14 35.5t34 12.5q19 0 33.5 -12.5t14.5 -35.5v-607z" />
    <glyph glyph-name="Icircumflex" unicode="&#xce;" horiz-adv-x="297" 
d="M301 786q0 -19 -15 -34.5t-35 -15.5q-13 0 -29 10l-76 50l-68 -50q-15 -10 -29 -10q-21 0 -36.5 16t-15.5 36q0 21 19 34l85 60q22 15 45 15q21 0 47 -16l88 -59q20 -13 20 -36zM197 42q0 -23 -14.5 -35.5t-33.5 -12.5t-33.5 12.5t-14.5 35.5v607q0 23 14.5 35.5
t33.5 12.5t33.5 -12.5t14.5 -35.5v-607z" />
    <glyph glyph-name="Idieresis" unicode="&#xcf;" horiz-adv-x="292" 
d="M281 827q0 -22 -14 -34.5t-33 -12.5t-33.5 12.5t-14.5 34.5v21q0 23 14.5 36t33.5 13t33 -13t14 -36v-21zM106 827q0 -22 -14.5 -34.5t-33.5 -12.5t-33 12.5t-14 34.5v21q0 23 14 35.5t33 12.5q20 0 34 -12.5t14 -35.5v-21zM194 42q0 -23 -14 -35.5t-34 -12.5t-34 12.5
t-14 35.5v607q0 23 14 35.5t34 12.5t34 -12.5t14 -35.5v-607z" />
    <glyph glyph-name="Eth" unicode="&#xd0;" horiz-adv-x="595" 
d="M535 195q0 -81 -57 -138t-138 -57h-156q-19 0 -34 14.5t-15 33.5v286h-23q-23 0 -36 14t-13 34q0 19 13 33t36 14h23v214q0 19 15 33.5t34 14.5h156q81 0 138 -57t57 -138v-301zM439 195v301q0 41 -29 70.5t-70 29.5h-109v-167h79q23 0 35.5 -14t12.5 -33
q0 -20 -12.5 -34t-35.5 -14h-79v-239h109q41 0 70 29.5t29 70.5z" />
    <glyph glyph-name="Ntilde" unicode="&#xd1;" horiz-adv-x="552" 
d="M437 834q0 -25 -29 -46.5t-83 -21.5q-22 0 -58 12.5t-55 12.5q-12 0 -33.5 -12.5t-28.5 -12.5q-17 0 -28.5 13t-11.5 29q0 28 31 46t69 18q25 0 63.5 -13t53.5 -13q14 0 36 13t34 13q17 0 28.5 -11.5t11.5 -26.5zM476 42q0 -19 -14.5 -33.5t-33.5 -14.5h-11q-36 0 -54 41
l-191 431v-424q0 -23 -14 -35.5t-33 -12.5q-20 0 -34.5 12.5t-14.5 35.5v605q0 20 14 35t37 15h11q36 0 51 -35l191 -431v418q0 23 14 35.5t33 12.5q20 0 34.5 -12.5t14.5 -35.5v-607z" />
    <glyph glyph-name="Ograve" unicode="&#xd2;" 
d="M385 780q0 -20 -13 -35t-33 -15q-9 0 -21 5l-149 70q-28 14 -28 42q0 19 13 34t32 16q8 0 22 -6l149 -69q28 -13 28 -42zM463 186q0 -81 -57 -136.5t-138 -55.5h-10q-81 0 -138 55.5t-57 136.5v320q0 81 57.5 136t138.5 55h9q81 0 138 -55t57 -136v-320zM367 186v320
q0 41 -29 68.5t-70 27.5h-10q-41 0 -70 -28t-29 -68v-320q0 -41 29 -69t70 -28h10q41 0 70 28t29 69z" />
    <glyph glyph-name="Oacute" unicode="&#xd3;" 
d="M391 847q0 -28 -27 -41l-161 -76q-10 -5 -22 -5q-20 0 -33 15t-13 34q0 29 28 42l160 76q12 5 22 5q20 0 33 -15t13 -35zM463 186q0 -81 -57 -136.5t-138 -55.5h-10q-81 0 -138 55.5t-57 136.5v320q0 81 57.5 136t138.5 55h9q81 0 138 -55t57 -136v-320zM367 186v320
q0 41 -29 68.5t-70 27.5h-10q-41 0 -70 -28t-29 -68v-320q0 -41 29 -69t70 -28h10q41 0 70 28t29 69z" />
    <glyph glyph-name="Ocircumflex" unicode="&#xd4;" 
d="M415 787q0 -19 -15 -34.5t-35 -15.5q-12 0 -29 10l-76 50l-68 -50q-13 -10 -29 -10q-21 0 -36.5 16t-15.5 36t19 34l85 60q20 14 45 14q24 0 47 -15l88 -59q20 -12 20 -36zM463 186q0 -81 -57 -136.5t-138 -55.5h-10q-81 0 -138 55.5t-57 136.5v320q0 81 57.5 136
t138.5 55h9q81 0 138 -55t57 -136v-320zM367 186v320q0 41 -29 68.5t-70 27.5h-10q-41 0 -70 -28t-29 -68v-320q0 -41 29 -69t70 -28h10q41 0 70 28t29 69z" />
    <glyph glyph-name="Otilde" unicode="&#xd5;" 
d="M427 834q0 -25 -29 -46.5t-83 -21.5q-22 0 -58 12.5t-55 12.5q-12 0 -33.5 -12.5t-28.5 -12.5q-17 0 -28.5 13t-11.5 29q0 28 31 46t69 18q25 0 63.5 -13t53.5 -13q14 0 36 13t34 13q17 0 28.5 -11.5t11.5 -26.5zM463 186q0 -81 -57 -136.5t-138 -55.5h-10
q-81 0 -138 55.5t-57 136.5v320q0 81 57.5 136t138.5 55h9q81 0 138 -55t57 -136v-320zM367 186v320q0 41 -29 68.5t-70 27.5h-10q-41 0 -70 -28t-29 -68v-320q0 -41 29 -69t70 -28h10q41 0 70 28t29 69z" />
    <glyph glyph-name="Odieresis" unicode="&#xd6;" 
d="M398 827q0 -22 -14 -34.5t-33 -12.5t-33.5 12.5t-14.5 34.5v21q0 23 14.5 36t33.5 13t33 -13t14 -36v-21zM223 827q0 -22 -14.5 -34.5t-33.5 -12.5t-33 12.5t-14 34.5v21q0 23 14 35.5t33 12.5t33.5 -12.5t14.5 -35.5v-21zM463 186q0 -81 -57 -136.5t-138 -55.5h-10
q-81 0 -138 55.5t-57 136.5v320q0 81 57.5 136t138.5 55h9q81 0 138 -55t57 -136v-320zM367 186v320q0 41 -29 68.5t-70 27.5h-10q-41 0 -70 -28t-29 -68v-320q0 -41 29 -69t70 -28h10q41 0 70 28t29 69z" />
    <glyph glyph-name="multiply" unicode="&#xd7;" horiz-adv-x="491" 
d="M445 118q0 -20 -14.5 -34.5t-34.5 -14.5t-34 14l-116 116l-116 -116q-14 -14 -34 -14t-34.5 14.5t-14.5 34.5q0 19 15 34l116 116l-116 116q-15 15 -15 34q0 20 14.5 34.5t34.5 14.5t34 -14l116 -116l116 116q14 14 34 14t34.5 -14.5t14.5 -34.5t-14 -34l-116 -116
l116 -116q14 -14 14 -34z" />
    <glyph glyph-name="Oslash" unicode="&#xd8;" horiz-adv-x="565" 
d="M345 582q-27 20 -59 20h-9q-41 0 -70.5 -29.5t-29.5 -70.5v-253zM385 189v250l-167 -330q26 -20 59 -20h9q41 0 70 29.5t29 70.5zM501 681q0 -14 -6 -24l-34 -68q20 -40 20 -87v-313q0 -80 -57 -137.5t-138 -57.5h-9q-55 0 -102 29l-17 -34q-13 -27 -43 -27q-20 0 -36 14
t-16 34q0 10 6 24l34 67q-19 37 -21 88l-1 313q0 81 57.5 138t138.5 57h9q55 0 103 -29l17 34q14 27 43 27q20 0 36 -14t16 -34z" />
    <glyph glyph-name="Ugrave" unicode="&#xd9;" horiz-adv-x="552" 
d="M398 780q0 -20 -13 -35t-33 -15q-9 0 -21 5l-149 70q-28 14 -28 42q0 19 13 34t32 16q8 0 22 -6l149 -69q28 -13 28 -42zM476 189q0 -80 -57 -137.5t-138 -57.5h-10q-80 0 -137.5 57.5t-57.5 137.5v460q0 23 14 35.5t34 12.5t34 -12.5t14 -35.5v-460q0 -41 29.5 -70
t70.5 -29h9q41 0 70 29t29 70v460q0 23 14 35.5t34 12.5t34 -12.5t14 -35.5v-460z" />
    <glyph glyph-name="Uacute" unicode="&#xda;" horiz-adv-x="552" 
d="M404 847q0 -28 -27 -41l-161 -76q-12 -5 -22 -5q-20 0 -33 15t-13 34q0 29 28 42l160 76q12 5 22 5q20 0 33 -15t13 -35zM476 189q0 -80 -57 -137.5t-138 -57.5h-10q-80 0 -137.5 57.5t-57.5 137.5v460q0 23 14 35.5t34 12.5t34 -12.5t14 -35.5v-460q0 -41 29.5 -70
t70.5 -29h9q41 0 70 29t29 70v460q0 23 14 35.5t34 12.5t34 -12.5t14 -35.5v-460z" />
    <glyph glyph-name="Ucircumflex" unicode="&#xdb;" horiz-adv-x="552" 
d="M428 786q0 -19 -15 -34.5t-35 -15.5q-13 0 -29 10l-76 50l-68 -50q-15 -10 -29 -10q-21 0 -36.5 16t-15.5 36q0 21 19 34l85 60q23 15 45 15q23 0 47 -16l88 -59q20 -13 20 -36zM476 189q0 -80 -57 -137.5t-138 -57.5h-10q-80 0 -137.5 57.5t-57.5 137.5v460
q0 23 14 35.5t34 12.5t34 -12.5t14 -35.5v-460q0 -41 29.5 -70t70.5 -29h9q41 0 70 29t29 70v460q0 23 14 35.5t34 12.5t34 -12.5t14 -35.5v-460z" />
    <glyph glyph-name="Udieresis" unicode="&#xdc;" horiz-adv-x="552" 
d="M411 827q0 -22 -14 -34.5t-33 -12.5t-33.5 12.5t-14.5 34.5v21q0 23 14.5 36t33.5 13t33 -13t14 -36v-21zM236 827q0 -22 -14.5 -34.5t-33.5 -12.5t-33 12.5t-14 34.5v21q0 23 14 35.5t33 12.5q20 0 34 -12.5t14 -35.5v-21zM476 189q0 -80 -57 -137.5t-138 -57.5h-10
q-80 0 -137.5 57.5t-57.5 137.5v460q0 23 14 35.5t34 12.5t34 -12.5t14 -35.5v-460q0 -41 29.5 -70t70.5 -29h9q41 0 70 29t29 70v460q0 23 14 35.5t34 12.5t34 -12.5t14 -35.5v-460z" />
    <glyph glyph-name="Yacute" unicode="&#xdd;" horiz-adv-x="474" 
d="M365 847q0 -28 -27 -41l-161 -76q-12 -5 -22 -5q-20 0 -33 15t-13 34q0 29 28 42l160 76q12 5 22 5q20 0 33 -15t13 -35zM440 649q0 -7 -4 -19l-151 -363v-225q0 -23 -14.5 -35.5t-33.5 -12.5t-33.5 12.5t-14.5 35.5v225l-151 363q-4 8 -4 19q0 20 14 34t36 14
q30 0 43 -30l110 -265l110 265q13 30 43 30q22 0 36 -14t14 -34z" />
    <glyph glyph-name="Thorn" unicode="&#xde;" horiz-adv-x="475" 
d="M424 293q0 -69 -49 -117.5t-118 -48.5h-81v-85q0 -23 -14 -35.5t-34 -12.5t-34 12.5t-14 35.5v607q0 23 14 35.5t34 12.5t34 -12.5t14 -35.5v-85h81q69 0 118 -48.5t49 -118.5v-104zM328 293v104q0 29 -21 50.5t-50 21.5h-81v-247h81q29 0 50 21t21 50z" />
    <glyph glyph-name="germandbls" unicode="&#xdf;" horiz-adv-x="510" 
d="M468 190q0 -78 -46.5 -137t-118.5 -59q-23 0 -35.5 14t-12.5 34q0 19 12.5 33t35.5 14q20 0 44.5 29t24.5 71v60q0 42 -11 65.5t-27 30t-32.5 9.5t-27.5 12t-11 29v7q0 19 12.5 32t35.5 13q26 0 39.5 20t13.5 38q0 45 -25 71t-66 26h-10q-40 0 -65.5 -26.5t-25.5 -68.5
v-519q0 -23 -14 -35.5t-34 -12.5t-34 12.5t-14 35.5v520q0 80 53 134.5t134 54.5h10q81 0 134 -56t53 -137q0 -19 -11 -50.5t-33 -56.5q52 -46 52 -148v-59z" />
    <glyph glyph-name="agrave" unicode="&#xe0;" horiz-adv-x="466" 
d="M349 581q0 -20 -13 -35t-33 -15q-9 0 -21 5l-149 70q-28 13 -28 42q0 19 13 33.5t32 15.5q10 0 22 -5l149 -69q28 -13 28 -42zM285 159v63q-15 -4 -41.5 -8.5t-42 -8.5t-33 -11t-25.5 -19t-8 -29q0 -25 19 -41t52 -16h9q29 0 49.5 20.5t20.5 49.5zM436 41q0 -19 -12 -33
t-33 -14q-45 0 -75 37q-47 -37 -101 -37h-9q-68 0 -116 38.5t-48 111.5v5q0 34 13 60t30.5 40.5t45.5 26t49 16t51 9.5t41 8q13 3 13 19q0 29 -18.5 47t-46.5 18h-7q-48 0 -65 -39q-12 -29 -42 -29q-19 0 -34.5 13.5t-15.5 33.5q0 10 4 21q23 50 64.5 72.5t88.5 22.5h7
q64 0 112.5 -42t48.5 -109v-221q0 -24 16 -27q39 -9 39 -48z" />
    <glyph glyph-name="aacute" unicode="&#xe1;" horiz-adv-x="466" 
d="M344 647q0 -28 -27 -41l-161 -76q-12 -5 -22 -5q-20 0 -33 15t-13 34q0 29 28 42l160 76q12 5 22 5q20 0 33 -15t13 -35zM285 159v63q-15 -4 -41.5 -8.5t-42 -8.5t-33 -11t-25.5 -19t-8 -29q0 -25 19 -41t52 -16h9q29 0 49.5 20.5t20.5 49.5zM436 41q0 -19 -12 -33
t-33 -14q-45 0 -75 37q-47 -37 -101 -37h-9q-68 0 -116 38.5t-48 111.5v5q0 34 13 60t30.5 40.5t45.5 26t49 16t51 9.5t41 8q13 3 13 19q0 29 -18.5 47t-46.5 18h-7q-48 0 -65 -39q-12 -29 -42 -29q-19 0 -34.5 13.5t-15.5 33.5q0 10 4 21q23 50 64.5 72.5t88.5 22.5h7
q64 0 112.5 -42t48.5 -109v-221q0 -24 16 -27q39 -9 39 -48z" />
    <glyph glyph-name="acircumflex" unicode="&#xe2;" horiz-adv-x="466" 
d="M371 587q0 -19 -15 -34.5t-35 -15.5q-13 0 -29 10l-76 50l-68 -50q-13 -10 -29 -10q-21 0 -36.5 16t-15.5 36t19 34l85 60q20 14 45 14q24 0 47 -15l88 -59q20 -13 20 -36zM285 159v63q-15 -4 -41.5 -8.5t-42 -8.5t-33 -11t-25.5 -19t-8 -29q0 -25 19 -41t52 -16h9
q29 0 49.5 20.5t20.5 49.5zM436 41q0 -19 -12 -33t-33 -14q-45 0 -75 37q-47 -37 -101 -37h-9q-68 0 -116 38.5t-48 111.5v5q0 34 13 60t30.5 40.5t45.5 26t49 16t51 9.5t41 8q13 3 13 19q0 29 -18.5 47t-46.5 18h-7q-48 0 -65 -39q-12 -29 -42 -29q-19 0 -34.5 13.5
t-15.5 33.5q0 10 4 21q23 50 64.5 72.5t88.5 22.5h7q64 0 112.5 -42t48.5 -109v-221q0 -24 16 -27q39 -9 39 -48z" />
    <glyph glyph-name="atilde" unicode="&#xe3;" horiz-adv-x="466" 
d="M382 659q0 -25 -29 -46.5t-83 -21.5q-22 0 -58 12.5t-55 12.5q-12 0 -33.5 -12.5t-28.5 -12.5q-17 0 -28.5 13t-11.5 29q0 28 31 46t69 18q25 0 63.5 -13t53.5 -13q14 0 36 13t34 13q17 0 28.5 -11.5t11.5 -26.5zM285 159v63q-15 -4 -41.5 -8.5t-42 -8.5t-33 -11
t-25.5 -19t-8 -29q0 -25 19 -41t52 -16h9q29 0 49.5 20.5t20.5 49.5zM436 41q0 -19 -12 -33t-33 -14q-45 0 -75 37q-47 -37 -101 -37h-9q-68 0 -116 38.5t-48 111.5v5q0 34 13 60t30.5 40.5t45.5 26t49 16t51 9.5t41 8q13 3 13 19q0 29 -18.5 47t-46.5 18h-7q-48 0 -65 -39
q-12 -29 -42 -29q-19 0 -34.5 13.5t-15.5 33.5q0 10 4 21q23 50 64.5 72.5t88.5 22.5h7q64 0 112.5 -42t48.5 -109v-221q0 -24 16 -27q39 -9 39 -48z" />
    <glyph glyph-name="adieresis" unicode="&#xe4;" horiz-adv-x="466" 
d="M183 628q0 -22 -14.5 -34.5t-33.5 -12.5t-33 12.5t-14 34.5v21q0 23 14 35.5t33 12.5t33.5 -12.5t14.5 -35.5v-21zM358 628q0 -22 -14 -34.5t-33 -12.5t-33.5 12.5t-14.5 34.5v21q0 23 14.5 35.5t33.5 12.5t33 -12.5t14 -35.5v-21zM285 159v63q-15 -4 -41.5 -8.5
t-42 -8.5t-33 -11t-25.5 -19t-8 -29q0 -25 19 -41t52 -16h9q29 0 49.5 20.5t20.5 49.5zM436 41q0 -19 -12 -33t-33 -14q-45 0 -75 37q-47 -37 -101 -37h-9q-68 0 -116 38.5t-48 111.5v5q0 34 13 60t30.5 40.5t45.5 26t49 16t51 9.5t41 8q13 3 13 19q0 29 -18.5 47t-46.5 18
h-7q-48 0 -65 -39q-12 -29 -42 -29q-19 0 -34.5 13.5t-15.5 33.5q0 10 4 21q23 50 64.5 72.5t88.5 22.5h7q64 0 112.5 -42t48.5 -109v-221q0 -24 16 -27q39 -9 39 -48z" />
    <glyph glyph-name="aring" unicode="&#xe5;" horiz-adv-x="466" 
d="M310 604q0 -38 -27.5 -65.5t-65.5 -27.5t-65.5 27.5t-27.5 65.5t27.5 65.5t65.5 27.5t65.5 -27.5t27.5 -65.5zM246 603q0 13 -8.5 22t-20.5 9t-20.5 -9t-8.5 -22q0 -11 8.5 -20t20.5 -9q11 0 20 9t9 20zM285 159v63q-15 -4 -41.5 -8.5t-42 -8.5t-33 -11t-25.5 -19t-8 -29
q0 -25 19 -41t52 -16h9q29 0 49.5 20.5t20.5 49.5zM436 41q0 -19 -12 -33t-33 -14q-45 0 -75 37q-47 -37 -101 -37h-9q-68 0 -116 38.5t-48 111.5v5q0 34 13 60t30.5 40.5t45.5 26t49 16t51 9.5t41 8q13 3 13 19q0 29 -18.5 47t-46.5 18h-7q-48 0 -65 -39q-12 -29 -42 -29
q-19 0 -34.5 13.5t-15.5 33.5q0 10 4 21q23 50 64.5 72.5t88.5 22.5h7q64 0 112.5 -42t48.5 -109v-221q0 -24 16 -27q39 -9 39 -48z" />
    <glyph glyph-name="ae" unicode="&#xe6;" horiz-adv-x="659" 
d="M369 281h148v42q0 30 -20.5 50t-47.5 20h-10q-28 0 -49 -19.5t-21 -46.5v-46zM203 89q29 0 49.5 20.5t20.5 49.5v63q-15 -4 -40.5 -9t-41.5 -8.5t-33 -10t-25 -17t-8 -25.5q0 -28 18 -45.5t51 -17.5h9zM613 323v-83q0 -19 -14.5 -33.5t-33.5 -14.5h-196v-36
q0 -28 20 -47.5t49 -19.5h9q31 0 56 34.5t48 34.5q20 0 35.5 -12.5t15.5 -31.5q0 -11 -5 -21q-48 -99 -150 -99h-9q-68 0 -117 49q-47 -49 -118 -49h-9q-68 0 -116 38.5t-48 111.5v5q0 34 13 60t30.5 40.5t45.5 26t49 16t51 9.5t41 8q13 3 13 19q0 29 -18.5 47t-46.5 18h-7
q-49 0 -65 -39q-13 -29 -42 -29q-19 0 -34.5 13.5t-15.5 33.5q0 13 4 21q22 50 64 72.5t89 22.5h7q68 0 116 -45q47 45 113 45q74 0 125 -46.5t51 -118.5z" />
    <glyph glyph-name="ccedilla" unicode="&#xe7;" horiz-adv-x="436" 
d="M219 -197h-10q-33 0 -60.5 23t-27.5 54q0 17 11.5 27t27.5 10q17 0 24.5 -9.5t11.5 -19t13 -9.5h10q6 0 10 4.5t4 9.5v10q0 15 -14 15h-4q-16 0 -27 11t-11 27v42q-55 13 -91 56.5t-36 101.5v170q0 68 48.5 115t117.5 47h8q69 0 117.5 -46t48.5 -114q0 -23 -14 -35.5
t-34 -12.5t-34 12.5t-14 35.5q0 28 -20 46.5t-50 18.5h-8q-29 0 -49.5 -19.5t-20.5 -47.5v-170q0 -28 20.5 -47.5t49.5 -19.5h8q30 0 50 18.5t20 46.5q0 23 14 35.5t34 12.5t34 -12.5t14 -35.5q0 -60 -39 -104t-98 -54v-9q25 -10 40.5 -33t15.5 -51v-10q0 -37 -26.5 -63.5
t-63.5 -26.5z" />
    <glyph glyph-name="egrave" unicode="&#xe8;" horiz-adv-x="433" 
d="M352 581q0 -20 -13 -35t-33 -15q-9 0 -21 5l-149 70q-28 13 -28 42q0 19 13 33.5t32 15.5q10 0 22 -5l149 -69q28 -13 28 -42zM391 240q0 -19 -14.5 -33.5t-33.5 -14.5h-196v-36q0 -28 20.5 -47.5t49.5 -19.5h8q23 0 38 11t20.5 23.5t17 23.5t29.5 11q20 0 35 -12t15 -31
q0 -9 -5 -22q-49 -99 -150 -99h-8q-69 0 -117.5 47t-48.5 115v170q0 68 49 115t117 47h8q70 0 118 -47t48 -118v-83zM295 281v42q0 30 -20.5 50t-47.5 20h-9q-29 0 -50 -19.5t-21 -47.5v-45h148z" />
    <glyph glyph-name="eacute" unicode="&#xe9;" horiz-adv-x="433" 
d="M348 647q0 -28 -27 -41l-161 -76q-12 -5 -22 -5q-20 0 -33 15t-13 34q0 29 28 42l160 76q12 5 22 5q20 0 33 -15t13 -35zM391 240q0 -19 -14.5 -33.5t-33.5 -14.5h-196v-36q0 -28 20.5 -47.5t49.5 -19.5h8q23 0 38 11t20.5 23.5t17 23.5t29.5 11q20 0 35 -12t15 -31
q0 -9 -5 -22q-49 -99 -150 -99h-8q-69 0 -117.5 47t-48.5 115v170q0 68 49 115t117 47h8q70 0 118 -47t48 -118v-83zM295 281v42q0 30 -20.5 50t-47.5 20h-9q-29 0 -50 -19.5t-21 -47.5v-45h148z" />
    <glyph glyph-name="ecircumflex" unicode="&#xea;" horiz-adv-x="433" 
d="M375 587q0 -19 -15 -34.5t-35 -15.5q-13 0 -29 10l-76 50l-68 -50q-13 -10 -29 -10q-21 0 -36.5 16t-15.5 36t19 34l85 60q20 14 45 14q24 0 47 -15l88 -59q20 -13 20 -36zM391 240q0 -19 -14.5 -33.5t-33.5 -14.5h-196v-36q0 -28 20.5 -47.5t49.5 -19.5h8q23 0 38 11
t20.5 23.5t17 23.5t29.5 11q20 0 35 -12t15 -31q0 -9 -5 -22q-49 -99 -150 -99h-8q-69 0 -117.5 47t-48.5 115v170q0 68 49 115t117 47h8q70 0 118 -47t48 -118v-83zM295 281v42q0 30 -20.5 50t-47.5 20h-9q-29 0 -50 -19.5t-21 -47.5v-45h148z" />
    <glyph glyph-name="edieresis" unicode="&#xeb;" horiz-adv-x="433" 
d="M183 628q0 -22 -14.5 -34.5t-33.5 -12.5t-33 12.5t-14 34.5v21q0 23 14 35.5t33 12.5t33.5 -12.5t14.5 -35.5v-21zM358 628q0 -22 -14 -34.5t-33 -12.5t-33.5 12.5t-14.5 34.5v21q0 23 14.5 35.5t33.5 12.5t33 -12.5t14 -35.5v-21zM391 240q0 -19 -14.5 -33.5
t-33.5 -14.5h-196v-36q0 -28 20.5 -47.5t49.5 -19.5h8q23 0 38 11t20.5 23.5t17 23.5t29.5 11q20 0 35 -12t15 -31q0 -9 -5 -22q-49 -99 -150 -99h-8q-69 0 -117.5 47t-48.5 115v170q0 68 49 115t117 47h8q70 0 118 -47t48 -118v-83zM295 281v42q0 30 -20.5 50t-47.5 20h-9
q-29 0 -50 -19.5t-21 -47.5v-45h148z" />
    <glyph glyph-name="igrave" unicode="&#xec;" horiz-adv-x="263" 
d="M253 581q0 -20 -13 -35t-33 -15q-9 0 -21 5l-149 70q-28 13 -28 42q0 19 13 33.5t32 15.5q10 0 22 -5l149 -69q28 -13 28 -42zM179 42q0 -23 -14.5 -35.5t-33.5 -12.5t-33.5 12.5t-14.5 35.5v398q0 23 14.5 35.5t33.5 12.5t33.5 -12.5t14.5 -35.5v-398z" />
    <glyph glyph-name="iacute" unicode="&#xed;" horiz-adv-x="264" 
d="M260 647q0 -28 -27 -41l-161 -76q-12 -5 -22 -5q-20 0 -33 15t-13 34q0 29 28 42l160 76q12 5 22 5q20 0 33 -15t13 -35zM180 42q0 -23 -14.5 -35.5t-33.5 -12.5q-20 0 -34 12.5t-14 35.5v398q0 23 14 35.5t34 12.5q19 0 33.5 -12.5t14.5 -35.5v-398z" />
    <glyph glyph-name="icircumflex" unicode="&#xee;" horiz-adv-x="272" 
d="M288 587q0 -19 -15 -34.5t-35 -15.5q-13 0 -29 10l-76 50l-68 -50q-13 -10 -29 -10q-21 0 -36.5 16t-15.5 36t19 34l85 60q20 14 45 14t47 -15l88 -59q20 -13 20 -36zM184 42q0 -23 -14.5 -35.5t-33.5 -12.5t-33.5 12.5t-14.5 35.5v398q0 23 14.5 35.5t33.5 12.5
t33.5 -12.5t14.5 -35.5v-398z" />
    <glyph glyph-name="idieresis" unicode="&#xef;" horiz-adv-x="267" 
d="M93 628q0 -22 -14.5 -34.5t-33.5 -12.5t-33 12.5t-14 34.5v21q0 23 14 35.5t33 12.5t33.5 -12.5t14.5 -35.5v-21zM268 628q0 -22 -14 -34.5t-33 -12.5t-33.5 12.5t-14.5 34.5v21q0 23 14.5 35.5t33.5 12.5t33 -12.5t14 -35.5v-21zM181 42q0 -23 -14.5 -35.5t-33.5 -12.5
t-33.5 12.5t-14.5 35.5v398q0 23 14.5 35.5t33.5 12.5t33.5 -12.5t14.5 -35.5v-398z" />
    <glyph glyph-name="eth" unicode="&#xf0;" horiz-adv-x="494" 
d="M447 648q0 -24 -22 -39l-33 -23q16 -34 16 -79v-344q0 -70 -48.5 -119.5t-118.5 -49.5h-11q-71 0 -119 46.5t-48 122.5v111q0 72 46.5 119.5t120.5 47.5h11q41 0 71 -19v81q0 6 -1 10.5t-3 6.5l-1 2l-39 -29q-13 -10 -29 -10q-20 0 -34 15t-14 35q0 24 20 38l31 21
l-64 17q-36 10 -36 41q0 18 12.5 32.5t31.5 14.5q17 0 51 -11.5t60 -22t26 -9.5l44 32q15 11 32 11q20 0 34 -15t14 -34zM312 163v111q0 29 -21 50.5t-50 21.5h-11q-29 0 -50 -21.5t-21 -50.5v-111q0 -30 21 -52t50 -22h11q29 0 50 22t21 52z" />
    <glyph glyph-name="ntilde" unicode="&#xf1;" horiz-adv-x="458" 
d="M392 659q0 -25 -29 -46.5t-83 -21.5q-22 0 -58 12.5t-56 12.5q-11 0 -32.5 -12.5t-28.5 -12.5q-17 0 -28.5 12.5t-11.5 29.5q0 28 31 46t69 18q25 0 63.5 -13t53.5 -13q14 0 36 13t34 13q17 0 28.5 -11.5t11.5 -26.5zM403 42q0 -23 -14.5 -35.5t-33.5 -12.5t-33.5 12.5
t-14.5 35.5v281q0 29 -20 49.5t-49 20.5h-9q-29 0 -49.5 -20.5t-20.5 -49.5v-281q0 -23 -14.5 -35.5t-33.5 -12.5t-33.5 12.5t-14.5 35.5v398q0 23 14.5 35.5t33.5 12.5q33 0 48 -26q28 26 70 26h9q72 0 118.5 -47.5t46.5 -117.5v-281z" />
    <glyph glyph-name="ograve" unicode="&#xf2;" horiz-adv-x="448" 
d="M346 581q0 -20 -13 -35t-33 -15q-9 0 -21 5l-149 70q-28 13 -28 42q0 19 13 33.5t32 15.5q10 0 22 -5l149 -69q28 -13 28 -42zM394 156q0 -68 -48.5 -115t-117.5 -47h-8q-69 0 -117.5 47t-48.5 115v170q0 68 48.5 115t117.5 47h8q69 0 117.5 -47t48.5 -115v-170zM298 156
v170q0 28 -20.5 47.5t-49.5 19.5h-8q-29 0 -49.5 -19.5t-20.5 -47.5v-170q0 -28 20.5 -47.5t49.5 -19.5h8q29 0 49.5 19.5t20.5 47.5z" />
    <glyph glyph-name="oacute" unicode="&#xf3;" horiz-adv-x="448" 
d="M352 647q0 -28 -27 -41l-161 -76q-12 -5 -22 -5q-20 0 -33 15t-13 34q0 29 28 42l160 76q12 5 22 5q20 0 33 -15t13 -35zM394 156q0 -68 -48.5 -115t-117.5 -47h-8q-69 0 -117.5 47t-48.5 115v170q0 68 48.5 115t117.5 47h8q69 0 117.5 -47t48.5 -115v-170zM298 156v170
q0 28 -20.5 47.5t-49.5 19.5h-8q-29 0 -49.5 -19.5t-20.5 -47.5v-170q0 -28 20.5 -47.5t49.5 -19.5h8q29 0 49.5 19.5t20.5 47.5z" />
    <glyph glyph-name="ocircumflex" unicode="&#xf4;" horiz-adv-x="448" 
d="M376 587q0 -19 -15 -34.5t-35 -15.5q-13 0 -29 10l-76 50l-68 -50q-13 -10 -29 -10q-21 0 -36.5 16t-15.5 36t19 34l85 60q20 14 45 14t47 -15l88 -59q20 -13 20 -36zM394 156q0 -68 -48.5 -115t-117.5 -47h-8q-69 0 -117.5 47t-48.5 115v170q0 68 48.5 115t117.5 47h8
q69 0 117.5 -47t48.5 -115v-170zM298 156v170q0 28 -20.5 47.5t-49.5 19.5h-8q-29 0 -49.5 -19.5t-20.5 -47.5v-170q0 -28 20.5 -47.5t49.5 -19.5h8q29 0 49.5 19.5t20.5 47.5z" />
    <glyph glyph-name="otilde" unicode="&#xf5;" horiz-adv-x="448" 
d="M388 659q0 -25 -29 -46.5t-83 -21.5q-22 0 -58 12.5t-55 12.5q-12 0 -33.5 -12.5t-28.5 -12.5q-17 0 -28.5 13t-11.5 29q0 28 31 46t69 18q25 0 63.5 -13t53.5 -13q14 0 36 13t34 13q17 0 28.5 -11.5t11.5 -26.5zM394 156q0 -68 -48.5 -115t-117.5 -47h-8
q-69 0 -117.5 47t-48.5 115v170q0 68 48.5 115t117.5 47h8q69 0 117.5 -47t48.5 -115v-170zM298 156v170q0 28 -20.5 47.5t-49.5 19.5h-8q-29 0 -49.5 -19.5t-20.5 -47.5v-170q0 -28 20.5 -47.5t49.5 -19.5h8q29 0 49.5 19.5t20.5 47.5z" />
    <glyph glyph-name="odieresis" unicode="&#xf6;" horiz-adv-x="448" 
d="M184 628q0 -22 -14.5 -34.5t-33.5 -12.5t-33 12.5t-14 34.5v21q0 23 14 35.5t33 12.5t33.5 -12.5t14.5 -35.5v-21zM359 628q0 -22 -14 -34.5t-33 -12.5t-33.5 12.5t-14.5 34.5v21q0 23 14 35.5t34 12.5q19 0 33 -12.5t14 -35.5v-21zM394 156q0 -68 -48.5 -115t-117.5 -47
h-8q-69 0 -117.5 47t-48.5 115v170q0 68 48.5 115t117.5 47h8q69 0 117.5 -47t48.5 -115v-170zM298 156v170q0 28 -20.5 47.5t-49.5 19.5h-8q-29 0 -49.5 -19.5t-20.5 -47.5v-170q0 -28 20.5 -47.5t49.5 -19.5h8q29 0 49.5 19.5t20.5 47.5z" />
    <glyph glyph-name="divide" unicode="&#xf7;" horiz-adv-x="432" 
d="M266 445q0 -23 -14.5 -35.5t-33.5 -12.5t-33 12.5t-14 35.5v22q0 23 14 35.5t33 12.5t33.5 -12.5t14.5 -35.5v-22zM396 267q0 -19 -12.5 -33t-35.5 -14h-264q-23 0 -35.5 14t-12.5 33t12.5 33.5t35.5 14.5h264q23 0 35.5 -14.5t12.5 -33.5zM266 69q0 -23 -14.5 -35.5
t-33.5 -12.5t-33 12.5t-14 35.5v22q0 23 14 35.5t33 12.5t33.5 -12.5t14.5 -35.5v-22z" />
    <glyph glyph-name="oslash" unicode="&#xf8;" horiz-adv-x="472" 
d="M269 386q-16 7 -30 7h-8q-29 0 -49.5 -20.5t-20.5 -49.5v-114zM309 159v111l-107 -175q14 -6 29 -6h8q29 0 49.5 20.5t20.5 49.5zM418 460q0 -14 -8 -26l-23 -37q18 -36 18 -74v-164q0 -68 -48.5 -116.5t-117.5 -48.5h-8q-43 0 -79 19l-9 -15q-14 -23 -39 -23
q-19 0 -34.5 14t-15.5 33q0 12 8 26l21 35q-18 38 -18 76v164q0 68 48.5 116.5t117.5 48.5h8q43 0 80 -20l10 16q15 23 39 23q20 0 35 -13.5t15 -33.5z" />
    <glyph glyph-name="ugrave" unicode="&#xf9;" horiz-adv-x="454" 
d="M349 581q0 -20 -13 -35t-33 -15q-9 0 -21 5l-149 70q-28 13 -28 42q0 19 13 33.5t32 15.5q12 0 22 -5l149 -69q28 -13 28 -42zM395 42q0 -23 -14.5 -35.5t-33.5 -12.5q-33 0 -48 26q-28 -26 -70 -26h-9q-72 0 -118.5 47.5t-46.5 117.5v281q0 23 14.5 35.5t33.5 12.5
t33.5 -12.5t14.5 -35.5v-281q0 -29 20 -49.5t49 -20.5h9q29 0 49.5 20.5t20.5 49.5v281q0 23 14.5 35.5t33.5 12.5t33.5 -12.5t14.5 -35.5v-398z" />
    <glyph glyph-name="uacute" unicode="&#xfa;" horiz-adv-x="454" 
d="M355 647q0 -29 -27 -41l-161 -76q-10 -5 -22 -5q-20 0 -33 15t-13 34q0 29 28 42l160 76q12 5 22 5q20 0 33 -15t13 -35zM395 42q0 -23 -14.5 -35.5t-33.5 -12.5q-33 0 -48 26q-28 -26 -70 -26h-9q-72 0 -118.5 47.5t-46.5 117.5v281q0 23 14.5 35.5t33.5 12.5
t33.5 -12.5t14.5 -35.5v-281q0 -29 20 -49.5t49 -20.5h9q29 0 49.5 20.5t20.5 49.5v281q0 23 14.5 35.5t33.5 12.5t33.5 -12.5t14.5 -35.5v-398z" />
    <glyph glyph-name="ucircumflex" unicode="&#xfb;" horiz-adv-x="454" 
d="M376 587q0 -19 -15 -34.5t-35 -15.5q-13 0 -29 10l-76 50l-68 -50q-13 -10 -29 -10q-21 0 -36.5 16t-15.5 36t19 34l85 60q20 14 45 14t47 -15l88 -59q20 -13 20 -36zM395 42q0 -23 -14.5 -35.5t-33.5 -12.5q-33 0 -48 26q-28 -26 -70 -26h-9q-72 0 -118.5 47.5
t-46.5 117.5v281q0 23 14.5 35.5t33.5 12.5t33.5 -12.5t14.5 -35.5v-281q0 -29 20 -49.5t49 -20.5h9q29 0 49.5 20.5t20.5 49.5v281q0 23 14.5 35.5t33.5 12.5t33.5 -12.5t14.5 -35.5v-398z" />
    <glyph glyph-name="udieresis" unicode="&#xfc;" horiz-adv-x="454" 
d="M184 628q0 -22 -14.5 -34.5t-33.5 -12.5t-33 12.5t-14 34.5v21q0 23 14 35.5t33 12.5t33.5 -12.5t14.5 -35.5v-21zM359 628q0 -22 -14 -34.5t-33 -12.5t-33.5 12.5t-14.5 34.5v21q0 23 14 35.5t34 12.5q19 0 33 -12.5t14 -35.5v-21zM395 42q0 -23 -14.5 -35.5
t-33.5 -12.5q-33 0 -48 26q-28 -26 -70 -26h-9q-72 0 -118.5 47.5t-46.5 117.5v281q0 23 14.5 35.5t33.5 12.5t33.5 -12.5t14.5 -35.5v-281q0 -29 20 -49.5t49 -20.5h9q29 0 49.5 20.5t20.5 49.5v281q0 23 14.5 35.5t33.5 12.5t33.5 -12.5t14.5 -35.5v-398z" />
    <glyph glyph-name="yacute" unicode="&#xfd;" horiz-adv-x="415" 
d="M336 647q0 -28 -27 -41l-161 -76q-12 -5 -22 -5q-20 0 -33 15t-13 34q0 29 28 42l160 76q10 5 22 5q20 0 33 -15t13 -35zM386 442q0 -1 -3 -16l-176 -542q-33 -100 -123 -100q-54 0 -54 48q0 47 51 47q26 0 43 47l44 130l-128 368q-3 9 -3 18q0 20 13.5 33t35.5 13
q32 0 44 -32l86 -245l77 244q10 33 44 33q21 0 35 -13.5t14 -32.5z" />
    <glyph glyph-name="thorn" unicode="&#xfe;" horiz-adv-x="475" 
d="M328 160v162q0 29 -21 50t-50 21h-9q-30 0 -51 -19.5t-21 -49.5v-164q0 -29 21 -50t51 -21h9q29 0 50 21t21 50zM424 162q0 -70 -49 -119t-118 -49h-9q-43 0 -72 26v-187q0 -23 -14 -36t-33 -13q-20 0 -34.5 13t-14.5 36v816q0 23 14.5 35.5t34.5 12.5q19 0 33 -12.5
t14 -35.5v-187q30 26 72 26h9q69 0 118 -48.5t49 -118.5v-159z" />
    <glyph glyph-name="ydieresis" unicode="&#xff;" horiz-adv-x="415" 
d="M168 628q0 -22 -14.5 -34.5t-33.5 -12.5t-33 12.5t-14 34.5v21q0 23 14 35.5t33 12.5q20 0 34 -12.5t14 -35.5v-21zM343 628q0 -22 -14 -34.5t-33 -12.5t-33.5 12.5t-14.5 34.5v21q0 23 14 35.5t34 12.5q19 0 33 -12.5t14 -35.5v-21zM386 442q0 -1 -3 -16l-176 -542
q-33 -100 -123 -100q-54 0 -54 48q0 47 51 47q26 0 43 47l44 130l-128 368q-3 9 -3 18q0 20 13.5 33t35.5 13q32 0 44 -32l86 -245l77 244q10 33 44 33q21 0 35 -13.5t14 -32.5z" />
    <glyph glyph-name="dotlessi" unicode="&#x131;" horiz-adv-x="240" 
d="M168 42q0 -23 -14.5 -35.5t-33.5 -12.5q-20 0 -34 12.5t-14 35.5v398q0 23 14 35.5t34 12.5q19 0 33.5 -12.5t14.5 -35.5v-398z" />
    <glyph glyph-name="Lslash" unicode="&#x141;" horiz-adv-x="490" 
d="M490 47q0 -19 -12.5 -33t-35.5 -14h-264q-20 0 -34 14t-14 34v178l-15 -8q-14 -8 -26 -8q-19 0 -33 15.5t-14 35.5q0 26 24 40l64 37v311q0 23 14 35.5t34 12.5t34 -12.5t14 -35.5v-254l133 79q13 7 26 7q20 0 34 -15.5t14 -34.5q0 -25 -25 -40l-182 -108v-188h216
q23 0 35.5 -14t12.5 -34z" />
    <glyph glyph-name="lslash" unicode="&#x142;" horiz-adv-x="412" 
d="M374 446q0 -25 -23 -39l-101 -62v-303q0 -23 -14 -35.5t-34 -12.5t-34 12.5t-14 35.5v243l-42 -26q-14 -9 -26 -9q-20 0 -34 15.5t-14 35.5q0 25 23 39l93 58v251q0 23 14 35.5t34 12.5t34 -12.5t14 -35.5v-191l50 31q14 8 26 8q20 0 34 -15.5t14 -35.5z" />
    <glyph glyph-name="OE" unicode="&#x152;" horiz-adv-x="793" 
d="M367 177v334q0 37 -30 64t-69 27h-9q-41 0 -70.5 -29.5t-29.5 -70.5v-313q0 -41 29.5 -70.5t70.5 -29.5h9q39 0 69 26t30 62zM767 41q0 -19 -12.5 -33t-35.5 -14h-304q-14 0 -26 12t-12 25q-52 -37 -109 -37h-9q-82 0 -139 55t-57 138v315q0 83 55.5 139t140.5 56h9
q59 0 109 -37q0 11 10.5 24t27.5 13h304q23 0 35.5 -14.5t12.5 -33.5t-12.5 -33t-35.5 -14h-256v-199h174q23 0 35.5 -14t12.5 -33q0 -20 -12.5 -34t-35.5 -14h-174v-219h256q23 0 35.5 -14.5t12.5 -33.5z" />
    <glyph glyph-name="oe" unicode="&#x153;" horiz-adv-x="685" 
d="M298 159v164q0 29 -20.5 49.5t-49.5 20.5h-8q-29 0 -49.5 -20.5t-20.5 -49.5v-164q0 -29 20.5 -49.5t49.5 -20.5h8q29 0 49.5 20.5t20.5 49.5zM542 281v42q0 30 -20.5 50t-47.5 20h-10q-29 0 -49.5 -20.5t-20.5 -49.5v-42h148zM638 240q0 -19 -14.5 -33.5t-33.5 -14.5
h-196v-33q0 -29 20 -49.5t49 -20.5h9q20 0 35 11t22 23.5t19 23.5t28 11q20 0 35.5 -12t15.5 -31q0 -12 -5 -22q-48 -99 -150 -99h-9q-65 0 -117 54q-52 -54 -118 -54h-8q-69 0 -117.5 48.5t-48.5 116.5v164q0 69 48.5 117t117.5 48h8q65 0 118 -53q51 53 116 53
q74 0 125 -46.5t51 -118.5v-83z" />
    <glyph glyph-name="Scaron" unicode="&#x160;" horiz-adv-x="489" 
d="M396 845q0 -21 -19 -34l-85 -60q-22 -15 -45 -15q-25 0 -47 15l-88 59q-20 13 -20 36q0 19 15 35t35 16q13 0 29 -10l76 -51l68 50q14 11 29 11q21 0 36.5 -16t15.5 -36zM446 180q0 -83 -57 -134.5t-142 -51.5h-10q-82 0 -138.5 53t-56.5 142q0 23 14 35.5t34 12.5
t34 -12.5t14 -35.5q0 -46 27.5 -73t71.5 -27h10q45 0 74 24.5t29 66.5q0 38 -31 69t-75.5 53.5t-89 47t-75.5 63.5t-31 89v18q0 77 58.5 127t131.5 50h9q76 0 130 -40t59 -113v-6q0 -20 -13 -32.5t-33 -12.5q-40 0 -50 44q-7 38 -29 51.5t-64 13.5h-9q-35 0 -64.5 -21
t-29.5 -56v-20q0 -26 31 -50t75.5 -47t89 -51t75.5 -74t31 -103z" />
    <glyph glyph-name="scaron" unicode="&#x161;" horiz-adv-x="432" 
d="M368 645q0 -20 -19 -34l-85 -60q-20 -14 -45 -14t-47 15l-88 59q-20 13 -20 36q0 19 15 34.5t35 15.5q13 0 29 -10l76 -50l68 50q13 10 29 10q21 0 36.5 -16t15.5 -36zM394 144q0 -53 -29 -88.5t-66.5 -48.5t-78.5 -13h-17q-49 0 -94 28.5t-66 74.5q-5 10 -5 22
q0 20 15 33t34 13q20 0 35 -19t33.5 -38t47.5 -19h17q78 0 78 55q0 13 -5 23.5t-9.5 16t-18 11t-18 7t-23 5.5t-20.5 4q-31 6 -54.5 14t-48.5 22t-39 37t-14 54v17q0 45 30.5 77t68 44t73.5 12h4q63 0 109 -28.5t46 -57.5q0 -18 -13.5 -31t-32.5 -13q-16 0 -45 17.5
t-64 17.5h-4q-32 0 -54 -12t-22 -29v-10q0 -16 18.5 -26.5t46.5 -15t60 -14.5t60 -23.5t46.5 -44t18.5 -74.5z" />
    <glyph glyph-name="Ydieresis" unicode="&#x178;" horiz-adv-x="474" 
d="M372 827q0 -22 -14 -34.5t-33 -12.5t-33.5 12.5t-14.5 34.5v21q0 23 14.5 36t33.5 13t33 -13t14 -36v-21zM197 827q0 -22 -14.5 -34.5t-33.5 -12.5t-33 12.5t-14 34.5v21q0 23 14 35.5t33 12.5t33.5 -12.5t14.5 -35.5v-21zM440 649q0 -7 -4 -19l-151 -363v-225
q0 -23 -14.5 -35.5t-33.5 -12.5t-33.5 12.5t-14.5 35.5v225l-151 363q-4 8 -4 19q0 20 14 34t36 14q30 0 43 -30l110 -265l110 265q13 30 43 30q22 0 36 -14t14 -34z" />
    <glyph glyph-name="Zcaron" unicode="&#x17d;" horiz-adv-x="458" 
d="M381 845q0 -21 -19 -34l-85 -60q-23 -15 -45 -15q-25 0 -47 15l-88 59q-20 12 -20 36q0 19 15 35t35 16q13 0 29 -10l76 -51l68 50q14 11 29 11q21 0 36.5 -16t15.5 -36zM424 48q0 -20 -12.5 -34t-35.5 -14h-289q-24 0 -38.5 16.5t-14.5 38.5q0 13 6 25l254 516h-201
q-23 0 -35.5 14t-12.5 34q0 19 12.5 33t35.5 14h271q26 0 40.5 -14t14.5 -35q0 -13 -9 -33l-253 -514h219q23 0 35.5 -14t12.5 -33z" />
    <glyph glyph-name="zcaron" unicode="&#x17e;" horiz-adv-x="399" 
d="M351 645q0 -21 -19 -34l-85 -60q-20 -14 -45 -14q-24 0 -47 15l-88 59q-20 13 -20 36q0 19 15 34.5t35 15.5q13 0 29 -10l76 -50l68 50q14 10 29 10q21 0 36.5 -16t15.5 -36zM365 48q0 -20 -12 -34t-35 -14h-234q-20 0 -35 15t-15 38q0 20 12 39l186 295h-146
q-23 0 -35.5 14.5t-12.5 33.5t12.5 33t35.5 14h223q19 0 34.5 -14t15.5 -33q0 -26 -15 -51l-179 -289h153q23 0 35 -13.5t12 -33.5z" />
    <glyph glyph-name="florin" unicode="&#x192;" horiz-adv-x="373" 
d="M373 649q0 -19 -12.5 -33t-35.5 -14q-47 0 -57 -52l-12 -62h26q23 0 35.5 -14t12.5 -34q0 -19 -12.5 -33t-35.5 -14h-43l-64 -365q-10 -55 -53 -92.5t-99 -37.5q-23 0 -35.5 14t-12.5 34t12.5 34t35.5 14q21 0 37 15t20 36l61 348q-23 0 -35.5 14t-12.5 33q0 20 12.5 34
t35.5 14h17l15 78q11 59 49 95t103 36q23 0 35.5 -14.5t12.5 -33.5z" />
    <glyph glyph-name="circumflex" unicode="&#x2c6;" horiz-adv-x="436" 
d="M370 587q0 -19 -15 -34.5t-35 -15.5q-15 0 -29 10l-76 50l-68 -50q-13 -10 -29 -10q-21 0 -36.5 16t-15.5 36q0 21 19 34l85 60q20 14 45 14t47 -15l88 -59q20 -14 20 -36z" />
    <glyph glyph-name="caron" unicode="&#x2c7;" horiz-adv-x="436" 
d="M370 645q0 -22 -19 -35l-85 -59q-20 -14 -45 -14q-26 0 -47 14l-88 59q-20 14 -20 36q0 20 15 35.5t35 15.5q12 0 29 -10l76 -51l68 51q13 10 29 10q21 0 36.5 -16t15.5 -36z" />
    <glyph glyph-name="breve" unicode="&#x2d8;" horiz-adv-x="427" 
d="M338 649q0 -50 -35.5 -85.5t-85.5 -35.5h-6q-50 0 -85.5 35.5t-35.5 85.5q0 23 14 35.5t33 12.5t34 -13t15 -35q0 -11 7.5 -18.5t17.5 -7.5h6q11 0 19 8t8 18q0 23 14 35.5t33 12.5t33 -12.5t14 -35.5z" />
    <glyph glyph-name="dotaccent" unicode="&#x2d9;" horiz-adv-x="404" 
d="M250 627q0 -23 -14 -35.5t-34 -12.5t-34 12.5t-14 35.5v22q0 23 14 35.5t34 12.5t34 -12.5t14 -35.5v-22z" />
    <glyph glyph-name="ring" unicode="&#x2da;" horiz-adv-x="418" 
d="M302 630q0 -38 -27.5 -65.5t-65.5 -27.5t-65.5 27.5t-27.5 65.5t27.5 65.5t65.5 27.5t65.5 -27.5t27.5 -65.5zM238 629q0 13 -8.5 22t-20.5 9t-20.5 -9t-8.5 -22q0 -11 8.5 -19.5t20.5 -8.5q11 0 20 8.5t9 19.5z" />
    <glyph glyph-name="ogonek" unicode="&#x2db;" horiz-adv-x="420" 
d="M311 -66q0 -37 -34 -59t-73 -22t-67 28t-28 67v14q0 47 49.5 81.5t98.5 34.5q17 0 29 -13t12 -30q0 -33 -37 -41q-19 -4 -42.5 -14t-23.5 -22q0 -21 17 -21q10 0 26.5 18t32.5 18q17 0 28.5 -11.5t11.5 -27.5z" />
    <glyph glyph-name="tilde" unicode="&#x2dc;" horiz-adv-x="448" 
d="M416 652q0 -29 -34 -54.5t-97 -25.5q-26 0 -69 15t-65 15q-13 0 -38 -15t-34 -15q-20 0 -33.5 15t-13.5 35q0 33 36 54t81 21q30 0 75 -15t63 -15q16 0 42 15t40 15q20 0 33.5 -13.5t13.5 -31.5z" />
    <glyph glyph-name="hungarumlaut" unicode="&#x2dd;" horiz-adv-x="443" 
d="M222 649q0 -66 -23.5 -99.5t-86.5 -58.5q-9 -3 -18 -3q-21 0 -34 14.5t-13 34.5q0 28 32 43q33 15 40 25.5t7 43.5q0 23 14 35.5t34 12.5t34 -12.5t14 -35.5zM395 649q0 -66 -23 -99.5t-86 -58.5q-9 -3 -19 -3q-20 0 -33.5 15t-13.5 34q0 28 33 43q32 15 39 25.5t7 43.5
q0 23 14.5 35.5t34.5 12.5q19 0 33 -12.5t14 -35.5z" />
    <glyph glyph-name="Delta" unicode="&#x394;" horiz-adv-x="661" 
d="M652 53q0 -22 -11.5 -37.5t-30.5 -15.5h-559q-20 0 -31.5 15.5t-11.5 37.5q0 14 6 26l269 549q12 26 47 26q36 0 48 -26l270 -549q4 -8 4 -26zM551 83l-221 452l-220 -452h441z" />
    <glyph glyph-name="Omega" unicode="&#x3a9;" horiz-adv-x="733" 
d="M684 48q0 -20 -12.5 -34t-35.5 -14h-177q-19 0 -34 14.5t-15 33.5v72q0 40 36 63q1 0 10.5 5.5t14.5 9t16.5 11t19 14t18.5 17.5t18.5 21.5t16 25t13 29t8 33t3.5 38.5q0 90 -63.5 152.5t-153.5 62.5t-154 -62.5t-64 -152.5q0 -22 3.5 -42t11 -36.5t15 -30.5t19 -26.5
t20.5 -21t21.5 -17.5t18.5 -13t16.5 -10t11.5 -7q37 -23 37 -63v-72q0 -19 -14.5 -33.5t-33.5 -14.5h-177q-23 0 -36 14.5t-13 33.5t12.5 33t35.5 14h129v19q-79 39 -126 111.5t-47 161.5q0 129 91.5 219.5t221.5 90.5t222 -90.5t92 -219.5q0 -90 -47 -162t-126 -111v-19
h128q23 0 36 -14t13 -33z" />
    <glyph glyph-name="mu" unicode="&#x3bc;" horiz-adv-x="458" 
d="M399 42q0 -23 -14.5 -35.5t-33.5 -12.5q-27 0 -39 30q-30 -30 -79 -30h-7q-42 0 -71 30v-192q0 -23 -14.5 -35.5t-33.5 -12.5t-33.5 12.5t-14.5 35.5v608q0 23 14.5 35.5t33.5 12.5t33.5 -12.5t14.5 -35.5v-281q0 -29 20 -49.5t49 -20.5h9q29 0 49.5 20.5t20.5 49.5v281
q0 23 14.5 35.5t33.5 12.5t33.5 -12.5t14.5 -35.5v-398z" />
    <glyph glyph-name="pi" unicode="&#x3c0;" horiz-adv-x="558" 
d="M524 435q0 -19 -13.5 -33.5t-36.5 -14.5h-54v-253q0 -23 10.5 -35t23.5 -15t23.5 -14.5t10.5 -32.5q0 -43 -51 -43q-56 0 -84.5 41t-28.5 99v253h-90v-343q0 -23 -14.5 -36.5t-33.5 -13.5t-33.5 13.5t-14.5 36.5v343h-54q-23 0 -36.5 14.5t-13.5 33.5t13.5 33t36.5 14
h390q23 0 36.5 -14t13.5 -33z" />
    <glyph glyph-name="endash" unicode="&#x2013;" horiz-adv-x="456" 
d="M418 267q0 -19 -12 -33.5t-33 -14.5h-289q-22 0 -34 14t-12 34q0 19 12 33t34 14h289q21 0 33 -14t12 -33z" />
    <glyph glyph-name="emdash" unicode="&#x2014;" horiz-adv-x="586" 
d="M565 267q0 -20 -12 -34t-34 -14h-452q-22 0 -34 14t-12 34q0 19 12 33t34 14h452q22 0 34 -14t12 -33z" />
    <glyph glyph-name="quoteleft" unicode="&#x2018;" horiz-adv-x="168" 
d="M147 654q0 -15 -9 -29q-1 -2 -5 -8.5t-5 -8.5l-3.5 -7t-3 -7.5t-2 -8t-2 -10.5t-1 -11.5t-0.5 -14.5v-28q0 -21 -15 -33.5t-34 -12.5t-32.5 12.5t-13.5 34.5v23q0 63 23 107.5t55 44.5q19 0 33.5 -12t14.5 -31z" />
    <glyph glyph-name="quoteright" unicode="&#x2019;" horiz-adv-x="168" 
d="M147 628q0 -64 -23 -108.5t-55 -44.5q-19 0 -33.5 12t-14.5 31q0 12 9 29q8 12 9 14l5.5 11t5 14t1.5 14.5t1 22.5v28q0 22 15 34t34 12t32.5 -12.5t13.5 -34.5v-22z" />
    <glyph glyph-name="quotesinglbase" unicode="&#x201a;" horiz-adv-x="236" 
d="M181 20q0 -64 -23 -108.5t-55 -44.5q-19 0 -33.5 12t-14.5 31q0 12 9 29q8 12 9 14l5.5 11t5 14t1.5 14.5t1 22.5v43q0 22 15 34t34 12t32.5 -12.5t13.5 -34.5v-37z" />
    <glyph glyph-name="quotedblleft" unicode="&#x201c;" horiz-adv-x="323" 
d="M151 654q0 -15 -9 -29q-8 -12 -9 -14l-5.5 -11t-5 -14t-1.5 -14.5t-1 -22.5v-28q0 -21 -15 -33.5t-34 -12.5t-32.5 12.5t-13.5 34.5v23q0 62 23.5 107t55.5 45q19 0 33 -12t14 -31zM297 654q0 -15 -9 -29q-8 -12 -9 -14l-5.5 -11t-5 -14t-1.5 -14.5t-1 -22.5v-28
q0 -21 -15 -33.5t-34 -12.5t-32.5 12.5t-13.5 34.5v23q0 63 23 107.5t55 44.5q19 0 33.5 -12t14.5 -31z" />
    <glyph glyph-name="quotedblright" unicode="&#x201d;" horiz-adv-x="323" 
d="M151 628q0 -64 -23 -108.5t-55 -44.5q-19 0 -33.5 12t-14.5 31q0 15 9 29q8 12 9 14l5.5 11t5 14t1.5 14.5t1 22.5v28q0 22 15 34t34 12t32.5 -12.5t13.5 -34.5v-22zM297 628q0 -63 -23 -108t-56 -45q-19 0 -33 12t-14 31q0 15 9 29q8 12 9 14l5.5 11t5 14t1.5 14.5
t1 22.5v28q0 22 15 34t34 12t32.5 -12.5t13.5 -34.5v-22z" />
    <glyph glyph-name="quotedblbase" unicode="&#x201e;" horiz-adv-x="386" 
d="M180 20q0 -64 -23 -108.5t-55 -44.5q-19 0 -33 12t-14 31q0 16 8 29q8 12 9 14l5.5 11t5 14t1.5 14.5t1 22.5v43q0 22 15 34t34 12t32.5 -12.5t13.5 -34.5v-37zM331 20q0 -64 -22.5 -108.5t-55.5 -44.5q-19 0 -33 12t-14 31q0 15 9 29q10 16 13 22.5t5.5 19.5t2.5 34v43
q0 22 15.5 34t34.5 12q18 0 31.5 -12.5t13.5 -34.5v-37z" />
    <glyph glyph-name="dagger" unicode="&#x2020;" horiz-adv-x="457" 
d="M414 440q0 -19 -12.5 -33t-35.5 -14h-90v-352q0 -23 -14 -35t-34 -12t-34 12t-14 35v352h-90q-23 0 -35.5 14t-12.5 33q0 20 12.5 34t35.5 14h90v162q0 22 14.5 34.5t33.5 12.5t33.5 -12.5t14.5 -34.5v-162h90q23 0 35.5 -14t12.5 -34z" />
    <glyph glyph-name="daggerdbl" unicode="&#x2021;" horiz-adv-x="457" 
d="M414 225q0 -19 -12.5 -33t-35.5 -14h-85v-136q0 -23 -14.5 -35.5t-33.5 -12.5t-33.5 12.5t-14.5 35.5v136h-95q-23 0 -35.5 14t-12.5 33t12.5 33.5t35.5 14.5h95v145h-95q-23 0 -35.5 14t-12.5 34q0 19 12.5 33t35.5 14h95v136q0 23 14.5 35.5t33.5 12.5t33.5 -12.5
t14.5 -35.5v-136h85q23 0 35.5 -14t12.5 -33q0 -20 -12.5 -34t-35.5 -14h-85v-145h85q23 0 35.5 -14.5t12.5 -33.5z" />
    <glyph glyph-name="bullet" unicode="&#x2022;" horiz-adv-x="318" 
d="M263 331q0 -44 -30.5 -75t-73.5 -31t-73.5 30.5t-30.5 74.5q0 43 30.5 74t73.5 31t73.5 -30.5t30.5 -73.5z" />
    <glyph glyph-name="ellipsis" unicode="&#x2026;" horiz-adv-x="530" 
d="M133 42q0 -23 -14.5 -35.5t-33.5 -12.5t-33 12.5t-14 35.5v22q0 23 14 35.5t33 12.5t33.5 -12.5t14.5 -35.5v-22zM313 42q0 -23 -14.5 -35.5t-33.5 -12.5t-33.5 12.5t-14.5 35.5v22q0 23 14.5 35.5t33.5 12.5t33.5 -12.5t14.5 -35.5v-22zM492 42q0 -23 -14 -35.5
t-33 -12.5t-33.5 12.5t-14.5 35.5v22q0 23 14.5 35.5t33.5 12.5t33 -12.5t14 -35.5v-22z" />
    <glyph glyph-name="perthousand" unicode="&#x2030;" horiz-adv-x="993" 
d="M288 444q0 -51 -34.5 -87t-85.5 -36t-86 36t-35 87v128q0 51 35 88t86 37t85.5 -37t34.5 -88v-128zM534 650q0 -6 -4 -20l-251 -606q-13 -30 -43 -30q-21 0 -35.5 14t-14.5 33q0 6 4 20l251 606q11 30 43 30q22 0 36 -14t14 -33zM193 444v128q0 13 -7.5 21.5t-17.5 8.5
t-17.5 -8.5t-7.5 -21.5v-128q0 -13 7.5 -20.5t17.5 -7.5t17.5 7.5t7.5 20.5zM675 117q0 -51 -34.5 -87t-85.5 -36t-86 36t-35 87v129q0 50 35 87t86 37t85.5 -37t34.5 -87v-129zM947 117q0 -51 -34 -87t-86 -36q-51 0 -86 36t-35 87v129q0 50 35 87t86 37t85.5 -36.5
t34.5 -87.5v-129zM580 117v129q0 12 -8 20.5t-17 8.5t-17 -8.5t-8 -20.5v-129q0 -12 7.5 -20t17.5 -8t17.5 8t7.5 20zM852 117v129q0 12 -8 20.5t-17 8.5t-17 -8.5t-8 -20.5v-129q0 -12 8 -20t17 -8q10 0 17.5 8t7.5 20z" />
    <glyph glyph-name="guilsinglleft" unicode="&#x2039;" horiz-adv-x="357" 
d="M294 101q0 -22 -14 -36t-35 -14t-37 18l-150 148q-16 16 -16 43t16 43l150 148q16 18 37 18q22 0 35.5 -14t13.5 -36q0 -18 -19 -37l-123 -122l123 -122q19 -19 19 -37z" />
    <glyph glyph-name="guilsinglright" unicode="&#x203a;" horiz-adv-x="357" 
d="M315 260q0 -26 -16 -43l-150 -148q-18 -18 -36 -18q-23 0 -37 14q-13 16 -13 36q0 19 18 37l124 122l-124 122q-18 18 -18 37q0 23 13.5 36.5t36.5 13.5q18 0 36 -18l150 -148q16 -17 16 -43z" />
    <glyph glyph-name="fraction" unicode="&#x2044;" horiz-adv-x="399" 
d="M369 649q0 -11 -4 -19l-246 -606q-11 -30 -44 -30q-21 0 -35.5 14t-14.5 34q0 7 4 19l246 606q13 30 44 30q21 0 35.5 -14t14.5 -34z" />
    <glyph glyph-name="Euro" unicode="&#x20ac;" horiz-adv-x="580" 
d="M538 161q0 -70 -59.5 -118.5t-134.5 -48.5h-9q-81 0 -138 57t-57 138v38h-54q-23 0 -35.5 14t-12.5 33q0 20 12.5 34t35.5 14h54v40h-54q-23 0 -35.5 14t-12.5 33t12.5 33.5t35.5 14.5h54v49q0 81 57 136t138 55h9q75 0 134.5 -48.5t59.5 -118.5v-3q0 -23 -13 -37.5
t-36 -14.5q-39 0 -47 41q-8 38 -34 62t-64 24h-9q-41 0 -70 -29t-29 -70v-46h103q23 0 35.5 -14.5t12.5 -33.5t-12.5 -33t-35.5 -14h-103v-40h103q23 0 35.5 -14t12.5 -34q0 -19 -12.5 -33t-35.5 -14h-103v-42q0 -41 29 -68.5t70 -27.5h9q38 0 64 24t34 62q8 41 47 41
q23 0 36 -14.5t13 -37.5v-3z" />
    <glyph glyph-name="trademark" unicode="&#x2122;" horiz-adv-x="647" 
d="M268 655q0 -16 -11.5 -28.5t-31.5 -12.5h-42v-194q0 -20 -11.5 -31.5t-28.5 -11.5q-16 0 -28.5 12t-12.5 31v194h-42q-20 0 -31.5 12.5t-11.5 28.5q0 17 11.5 29.5t31.5 12.5h165q21 0 32 -12.5t11 -29.5zM605 421q0 -21 -11.5 -32.5t-29.5 -11.5q-40 0 -40 44v101
l-39 -56q-10 -14 -26 -14t-25 14l-38 62v-107q0 -44 -40 -44q-18 0 -29.5 11.5t-11.5 32.5v236q0 17 10.5 28.5t27.5 11.5h7q29 0 43 -24l58 -102l55 102q14 24 43 24h7q17 0 28 -11.5t11 -28.5v-236z" />
    <glyph glyph-name="partialdiff" unicode="&#x2202;" horiz-adv-x="465" 
d="M389 157q0 -70 -47.5 -119.5t-114.5 -49.5h-11q-67 0 -114 49.5t-47 119.5v119q0 70 47 119t114 49h11q36 0 67 -14v75q0 21 -7 35.5t-23.5 24t-27 14t-35.5 10.5t-31 8q-34 10 -34 46q0 19 12.5 33.5t32.5 14.5q6 0 14 -2q44 -11 72 -21.5t59.5 -31t47 -53.5t15.5 -78
v-348zM294 157v119q0 29 -19.5 49.5t-47.5 20.5h-11q-28 0 -47 -20.5t-19 -49.5v-119q0 -29 19.5 -50t46.5 -21h11q28 0 47.5 21t19.5 50z" />
    <glyph glyph-name="product" unicode="&#x220f;" horiz-adv-x="683" 
d="M599 -166q0 -23 -14 -36.5t-33 -13.5t-33.5 13.5t-14.5 36.5v762h-323v-762q0 -23 -14.5 -36.5t-33.5 -13.5t-33.5 13.5t-14.5 36.5v807q0 20 15 35t35 15h414q20 0 35 -15t15 -35v-807z" />
    <glyph glyph-name="summation" unicode="&#x2211;" horiz-adv-x="548" 
d="M539 -158q0 -21 -13.5 -36.5t-36.5 -15.5h-415q-25 0 -39 16.5t-14 39.5q0 18 9 33l228 361l-228 362q-9 15 -9 33q0 23 14 39.5t39 16.5h415q23 0 36.5 -14.5t13.5 -33.5t-13.5 -33t-36.5 -14h-353l207 -326q11 -16 11 -30q0 -12 -11 -29l-198 -316h344q23 0 36.5 -16
t13.5 -37z" />
    <glyph glyph-name="minus" unicode="&#x2212;" horiz-adv-x="580" 
d="M529 268q0 -20 -12.5 -34t-35.5 -14h-382q-23 0 -35.5 14t-12.5 34q0 19 12.5 33t35.5 14h382q23 0 35.5 -14t12.5 -33z" />
    <glyph glyph-name="radical" unicode="&#x221a;" horiz-adv-x="454" 
d="M446 649q0 -2 -3 -17l-209 -605q-13 -33 -47 -33h-5q-33 0 -46 31l-101 237q-5 10 -5 21q0 20 15.5 33.5t35.5 13.5q30 0 43 -30l56 -136l172 499q12 34 44 34q21 0 35.5 -14t14.5 -34z" />
    <glyph glyph-name="infinity" unicode="&#x221e;" horiz-adv-x="711" 
d="M652 233q0 -57 -37 -99.5t-101 -42.5q-74 0 -159 73q-83 -73 -158 -73q-63 0 -100.5 42.5t-37.5 99.5t37.5 99t100.5 42q77 0 158 -72q86 72 159 72q64 0 101 -42t37 -99zM288 233q-52 48 -91 48q-17 0 -28.5 -12.5t-11.5 -35.5t11.5 -35.5t28.5 -12.5q39 0 91 48z
M555 233q0 24 -11.5 36t-29.5 12q-37 0 -91 -48q54 -48 91 -48q18 0 29.5 12t11.5 36z" />
    <glyph glyph-name="integral" unicode="&#x222b;" horiz-adv-x="371" 
d="M320 650q0 -20 -13 -34t-37 -14q-45 0 -45 -49v-625q0 -69 -28.5 -106.5t-108.5 -37.5q-24 0 -37 13.5t-13 33.5t13 34t37 14q41 0 41 49v625q0 144 141 144q24 0 37 -13.5t13 -33.5z" />
    <glyph glyph-name="approxequal" unicode="&#x2248;" horiz-adv-x="494" 
d="M439 317q0 -29 -34 -52.5t-97 -23.5q-26 0 -69 15t-65 15q-13 0 -38 -15t-34 -15q-20 0 -33.5 15.5t-13.5 35.5q0 33 36.5 53.5t80.5 20.5q30 0 75 -15t63 -15q16 0 42 13.5t40 13.5q20 0 33.5 -13.5t13.5 -32.5zM439 170q0 -29 -33.5 -52t-97.5 -23q-26 0 -69 15t-65 15
q-12 0 -37.5 -15t-34.5 -15q-20 0 -33.5 15t-13.5 35q0 33 36.5 54t80.5 21q30 0 75 -15t63 -15q16 0 42 13t40 13q20 0 33.5 -13.5t13.5 -32.5z" />
    <glyph glyph-name="notequal" unicode="&#x2260;" horiz-adv-x="510" 
d="M451 269q0 -19 -12.5 -33t-34.5 -14h-168l-39 -60q-14 -23 -40 -23q-19 0 -34.5 15t-15.5 34q0 13 9 27l5 7h-15q-23 0 -35 13.5t-12 33.5t12 34t35 14h77l29 46h-106q-23 0 -35 13.5t-12 33.5t12 34t35 14h168l41 63q16 23 39 23q20 0 35 -14t15 -34q0 -17 -8 -27
l-8 -11h16q22 0 34.5 -14.5t12.5 -33.5t-12.5 -33t-34.5 -14h-77l-30 -46h107q22 0 34.5 -14.5t12.5 -33.5z" />
    <glyph glyph-name="lessequal" unicode="&#x2264;" horiz-adv-x="438" 
d="M357 202q0 -19 -14.5 -35t-34.5 -16q-14 0 -27 9l-185 121q-21 13 -21 42q0 28 21 41l185 121q13 9 27 9q20 0 34.5 -15.5t14.5 -35.5q0 -24 -23 -38l-134 -82l134 -83q23 -14 23 -38zM379 47q0 -19 -12.5 -33t-35.5 -14h-224q-23 0 -35.5 14t-12.5 33q0 20 12.5 34
t35.5 14h224q23 0 35.5 -14t12.5 -34z" />
    <glyph glyph-name="greaterequal" unicode="&#x2265;" horiz-adv-x="438" 
d="M363 323q0 -27 -21 -42l-185 -121q-15 -9 -27 -9q-20 0 -34.5 16t-14.5 35q0 24 23 38l134 83l-134 82q-23 14 -23 38q0 20 14.5 35.5t34.5 15.5q12 0 27 -9l185 -121q21 -15 21 -41zM379 47q0 -19 -12.5 -33t-35.5 -14h-224q-23 0 -35.5 14t-12.5 33q0 20 12.5 34
t35.5 14h224q23 0 35.5 -14t12.5 -34z" />
    <glyph glyph-name="lozenge" unicode="&#x25ca;" horiz-adv-x="549" 
d="M523 362q0 -24 -13 -37l-199 -200q-12 -12 -37 -12q-23 0 -35 12l-203 201q-11 9 -11 36q0 24 11 35l203 202q12 12 35 12q25 0 37 -12l199 -201q13 -13 13 -36zM430 362l-156 155l-156 -155l156 -155z" />
    <glyph glyph-name="fi" unicode="&#xfb01;" horiz-adv-x="548" 
d="M476 42q0 -23 -14.5 -35.5t-34.5 -12.5q-19 0 -33 12.5t-14 35.5v348h-189v-348q0 -23 -14.5 -35.5t-33.5 -12.5t-33.5 12.5t-14.5 35.5v348h-9q-23 0 -35.5 14t-12.5 34q0 19 12.5 33t35.5 14h9v75q0 59 35.5 98t99.5 39q22 0 34.5 -14.5t12.5 -33.5t-12.5 -33
t-34.5 -14q-18 0 -28.5 -12.5t-10.5 -30.5v-74h238q20 0 33.5 -14t13.5 -34v-395zM476 628q0 -22 -14.5 -34.5t-33.5 -12.5t-33.5 12.5t-14.5 34.5v21q0 23 14 35.5t34 12.5t34 -12.5t14 -35.5v-21z" />
    <glyph glyph-name="fl" unicode="&#xfb02;" horiz-adv-x="606" 
d="M572 45q0 -19 -12.5 -33.5t-34.5 -14.5q-62 0 -99.5 33.5t-37.5 103.5v468h-159q-18 0 -28.5 -12.5t-10.5 -30.5v-74h34q23 0 35 -14t12 -34q0 -19 -12 -33t-35 -14h-34v-348q0 -23 -14 -35.5t-34 -12.5q-19 0 -33 12.5t-14 35.5v348h-10q-22 0 -34.5 14.5t-12.5 33.5
t12.5 33t34.5 14h10v75q0 60 35 98.5t99 38.5h207q19 0 33.5 -12.5t14.5 -34.5v-516q0 -18 11.5 -30t29.5 -12q22 0 34.5 -14t12.5 -33z" />
    <glyph glyph-name="DC2" horiz-adv-x="0" 
 />
    <glyph glyph-name="RS" horiz-adv-x="612" 
d="M553 241q0 -23 -19 -42l-185 -190q-15 -15 -33 -15q-20 0 -34.5 15t-14.5 34q0 18 15 33l118 117h-293q-19 0 -33.5 14.5t-14.5 33.5v199q0 23 14 35t34 12q19 0 33.5 -12.5t14.5 -34.5v-152h245l-118 118q-15 15 -15 33q0 19 14.5 34t34.5 15q18 0 33 -15l185 -190
q19 -19 19 -42z" />
    <glyph glyph-name="US" horiz-adv-x="612" 
d="M553 241q0 -23 -19 -42l-185 -190q-14 -15 -33 -15q-21 0 -35 14.5t-14 34.5q0 18 15 33l118 117h-292q-23 0 -36 14t-13 34q0 19 13 33t36 14h292l-118 118q-15 15 -15 33q0 20 14 34.5t35 14.5q19 0 33 -15l185 -190q19 -19 19 -42z" />
    <glyph glyph-name="nbspace" horiz-adv-x="290" 
 />
    <glyph glyph-name="apple" horiz-adv-x="461" 
d="M407 641q0 -18 -8 -30l-123 -208q36 0 63 -14t41 -35.5t20 -42t6 -38.5v-107q0 -70 -49 -121t-118 -51h-18q-69 0 -118.5 49t-49.5 119q0 23 14.5 35.5t33.5 12.5t33.5 -12.5t14.5 -35.5q0 -29 21.5 -51t50.5 -22h18q29 0 50 23.5t21 53.5v69q0 26 -5.5 42.5t-16 23.5
t-20 9.5t-22.5 2.5h-28q-24 0 -39 13t-15 34q0 15 10 34l117 202h-128v-41q0 -23 -14.5 -35.5t-33.5 -12.5t-33.5 12.5t-14.5 35.5v89q0 19 14.5 33t34.5 14h241q23 0 36.5 -15t13.5 -35z" />
  </font>
</defs>
</svg>
