<?xml version="1.0" standalone="no"?>
<!DOCTYPE svg PUBLIC "-//W3C//DTD SVG 1.1//EN" "http://www.w3.org/Graphics/SVG/1.1/DTD/svg11.dtd" >
<svg xmlns="http://www.w3.org/2000/svg" xmlns:xlink="http://www.w3.org/1999/xlink" version="1.1">
<metadata>
Created by FontForge 20170731 at Thu Apr  4 18:06:34 2013
 By Aleksey,,,
Copyright (c) 2010 by Jonathan Hill. All rights reserved.
</metadata>
<defs>
<font id="Lintel-Regular" horiz-adv-x="516" >
  <font-face 
    font-family="Lintel"
    font-weight="400"
    font-stretch="normal"
    units-per-em="1000"
    panose-1="0 0 5 0 0 0 0 0 0 0"
    ascent="750"
    descent="-250"
    x-height="501"
    cap-height="700"
    bbox="-82 -219 1043 1032"
    underline-thickness="50"
    underline-position="-200"
    unicode-range="U+0020-FB02"
  />
<missing-glyph horiz-adv-x="500" 
d="M0 0v700h500v-700h-500zM250 395l170 255h-340zM280 350l170 -255v510zM80 50h340l-170 255zM50 605v-510l170 255z" />
    <glyph glyph-name="fi" unicode="fi" horiz-adv-x="494" 
d="M73 0v545q0 53 21 91t58 56.5t86 18.5q18 0 37 -2t33 -5t29.5 -7.5t23.5 -7t17.5 -6.5l9.5 -4v-48q-62 27 -138 27q-20 0 -37 -4.5t-36 -15.5t-30 -36.5t-11 -63.5v-37h289v-501h-63v451h-226v-451h-63z" />
    <glyph glyph-name="fl" unicode="fl" horiz-adv-x="490" 
d="M73 0v545q0 79 45 122.5t120 43.5q49 0 95.5 -11.5t69.5 -23.5l22 -12v-664h-63v633q-61 25 -121 25q-17 0 -32.5 -4.5t-33.5 -16t-28.5 -37.5t-10.5 -62v-37h132v-50h-132v-451h-63z" />
    <glyph glyph-name="f_f" unicode="ff" horiz-adv-x="584" 
d="M359 501v44q0 45 14 78t37.5 51.5t51 27.5t58.5 9q21 0 43 -4v-52q-27 4 -42 3q-43 -2 -71 -30.5t-28 -87.5v-39h132v-50h-132v-451h-63v451h-223v-451h-63v545q0 45 14 78t37.5 51.5t51 27.5t58.5 9q22 0 43 -4v-52q-27 4 -42 3q-43 -2 -71 -31t-28 -87v-39h223z" />
    <glyph glyph-name="f_f_i" unicode="ffi" horiz-adv-x="780" 
d="M359 501v44q0 79 45.5 122.5t119.5 43.5q16 0 32 -1.5t30 -4t26 -5.5t23 -6.5t18 -6t14 -5.5t8 -3v-48q-62 27 -139 27q-20 0 -37 -4.5t-36 -16t-30 -37t-11 -63.5v-36h289v-501h-63v451h-226v-451h-63v451h-223v-451h-63v545q0 45 14 78t37.5 51.5t51 27.5t59.5 9
q21 0 42 -4v-52q-27 4 -42 3q-44 -2 -71.5 -31t-27.5 -88v-38h223z" />
    <glyph glyph-name="f_f_j" unicode="ffj" horiz-adv-x="780" 
d="M359 501v44q0 53 21.5 91t58 56.5t85.5 18.5q19 0 38 -2t33 -5t29 -7.5t23 -7t18 -6.5l10 -4v-48q-62 27 -139 27q-15 0 -28.5 -2t-30 -9.5t-28 -20t-19.5 -35t-8 -53.5v-37h289v-561q0 -52 -28.5 -87.5t-80.5 -47.5q-11 -3 -35 -5l-2 52q17 1 30 6q53 19 53 91v502h-226
v-451h-63v451h-223v-451h-63v545q0 45 14 78t37.5 51.5t51 27.5t58.5 9q22 0 43 -4v-52q-27 4 -42 3q-43 -2 -71 -31t-28 -88v-38h223z" />
    <glyph glyph-name="f_f_l" unicode="ffl" horiz-adv-x="776" 
d="M359 501v44q0 79 45.5 122.5t119.5 43.5q49 0 96 -11.5t69 -23.5l22 -11v-665h-63v633q-61 25 -121 25q-16 0 -32 -4.5t-33.5 -16t-28.5 -37t-11 -61.5v-38h132v-50h-132v-451h-63v451h-223v-451h-63v545q0 45 14 78t37.5 51.5t51 27.5t58.5 9q22 0 43 -4v-52
q-27 4 -42 3q-43 -2 -71 -31t-28 -88v-38h223z" />
    <glyph glyph-name=".notdef" horiz-adv-x="500" 
d="M0 0v700h500v-700h-500zM250 395l170 255h-340zM280 350l170 -255v510zM80 50h340l-170 255zM50 605v-510l170 255z" />
    <glyph glyph-name=".null" horiz-adv-x="0" 
 />
    <glyph glyph-name="nonmarkingreturn" horiz-adv-x="333" 
 />
    <glyph glyph-name="space" unicode=" " horiz-adv-x="300" 
 />
    <glyph glyph-name="exclam" unicode="!" horiz-adv-x="158" 
d="M108 149h-51l-12 551h76zM82.5 73q15.5 0 27 -11.5t11.5 -27t-11.5 -26.5t-27 -11t-26.5 11t-11 26.5t11 27t26.5 11.5z" />
    <glyph glyph-name="quotedbl" unicode="&#x22;" horiz-adv-x="277" 
d="M91 490h-42l-12 228h65zM235 490h-41l-12 228h65z" />
    <glyph glyph-name="numbersign" unicode="#" horiz-adv-x="680" 
d="M517 467h131v-59h-144l-35 -146h165v-59h-179l-47 -203h-60l48 203h-173l-47 -203h-60l48 203h-125v59h138l35 146h-159v59h173l54 233h60l-54 -233h172l54 233h60zM272 408l-35 -146h172l35 146h-172z" />
    <glyph glyph-name="dollar" unicode="$" horiz-adv-x="579" 
d="M315 780v-72q58 -3 104 -25t74 -63t29 -97h-63q-1 63 -48.5 96t-119.5 33t-118.5 -33t-46.5 -91q0 -18 5.5 -32.5t17 -26.5t25.5 -21.5t36 -18.5t42.5 -16t49.5 -15q55 -16 93.5 -33t71.5 -41t49.5 -57t16.5 -76q0 -86 -53.5 -140.5t-164.5 -60.5v-70h-51v70
q-101 6 -159 63.5t-59 135.5h62q2 -59 48.5 -99.5t133.5 -40.5q90 0 134.5 38t44.5 104q0 16 -3.5 29.5t-12.5 25t-17 20.5t-24.5 18t-27 14.5t-33 13.5t-34 11.5t-36.5 12.5q-43 13 -70 23t-58 26.5t-49 34.5t-30 44.5t-12 58.5q0 82 56 131t146 55v71h51z" />
    <glyph glyph-name="percent" unicode="%" horiz-adv-x="738" 
d="M199 711q41 0 76 -20.5t55.5 -55.5t20.5 -76q0 -63 -44.5 -107.5t-107.5 -44.5q-64 0 -108 44t-44 108q0 63 44.5 107.5t107.5 44.5zM139 0h-68l529 700h68zM199 664q-29 0 -53 -14t-38 -38t-14 -53q0 -44 30.5 -74.5t74.5 -30.5t74.5 31t30.5 74q0 21 -8.5 40.5
t-22.5 33.5t-33.5 22.5t-40.5 8.5zM539 291q62 0 107 -44.5t45 -107.5q0 -41 -20.5 -76.5t-55.5 -55.5t-76 -20q-64 0 -108 44t-44 108q0 63 44 107.5t108 44.5zM539 244q-44 0 -74.5 -30.5t-30.5 -74.5t30.5 -74t74.5 -30q43 0 73.5 30.5t30.5 73.5q0 44 -30.5 74.5
t-73.5 30.5z" />
    <glyph glyph-name="ampersand" unicode="&#x26;" horiz-adv-x="654" 
d="M221 378l-61 71q-42 51 -42 108q0 66 45.5 113t121.5 47q50 0 88 -23t57 -58.5t19 -77.5q0 -73 -64 -122l-83 -64l160 -186l105 105l40 -42l-107 -107l105 -121l-44 -37l-102 118l-40 -40q-69 -73 -176 -73q-84 1 -134 47t-50 132q0 43 21.5 80.5t55.5 63.5zM270 410
l75 58q47 35 47 90q0 44 -29 76t-78 32q-50 0 -78.5 -32t-28.5 -77q0 -40 30 -76zM254 340l-85 -66q-52 -40 -52 -106q0 -59 37.5 -92t91.5 -33q82 0 138 62l39 39z" />
    <glyph glyph-name="quotesingle" unicode="'" horiz-adv-x="135" 
d="M91 490h-42l-12 228h65z" />
    <glyph glyph-name="parenleft" unicode="(" horiz-adv-x="213" 
d="M152 750l28 -52q-16 -9 -25.5 -16t-22 -19.5t-19.5 -26.5t-11.5 -36t-4.5 -48v-470q0 -34 6 -59t20 -42t26 -26t32 -21l-29 -53q-59 33 -87 78.5t-28 129.5v453q0 84 28 129.5t87 78.5z" />
    <glyph glyph-name="parenright" unicode=")" horiz-adv-x="213" 
d="M41 698l27 52q39 -21 63 -45t38 -64.5t14 -97.5v-454q0 -84 -28 -129.5t-87 -78.5l-28 53q20 12 32 21t25.5 26t20 42t6.5 59v469q0 27 -5 48.5t-12 35.5t-19 27t-22 20t-25 16z" />
    <glyph glyph-name="asterisk" unicode="*" horiz-adv-x="403" 
d="M226 567l126 49l16 -46l-128 -42l82 -104l-40 -29l-76 108l-74 -109l-40 28l78 105l-127 42l16 46l122 -49l-2 134h49z" />
    <glyph glyph-name="plus" unicode="+" horiz-adv-x="459" 
d="M258 336h151v-57h-151v-151h-57v151h-151v57h151v151h57v-151z" />
    <glyph glyph-name="comma" unicode="," horiz-adv-x="145" 
d="M35 -57l21 62q-16 11 -16 30q0 15 11 26t26.5 11t27 -11t11.5 -26q0 -10 -5 -18l-35 -74h-41z" />
    <glyph glyph-name="hyphen" unicode="-" horiz-adv-x="440" 
d="M404 280h-361v59h361v-59z" />
    <glyph glyph-name="period" unicode="." horiz-adv-x="143" 
d="M74.5 72q15.5 0 27 -11t11.5 -26.5t-11.5 -26.5t-27 -11t-26.5 11t-11 26.5t11 26.5t26.5 11z" />
    <glyph glyph-name="slash" unicode="/" horiz-adv-x="379" 
d="M103 0h-63l243 700h63z" />
    <glyph glyph-name="zero" unicode="0" horiz-adv-x="575" 
d="M69 192v308q0 105 59.5 160t160.5 55q69 0 118.5 -27t74.5 -75t25 -114v-307q0 -54 -19.5 -95t-52 -63.5t-69.5 -33.5t-77 -11q-41 0 -78 11t-70 33.5t-52.5 63.5t-19.5 95zM444 194v304q0 37 -10 66.5t-29.5 50t-48.5 31t-67 10.5q-75 0 -116 -39t-41 -118v-305
q0 -39 13.5 -68.5t36.5 -45.5t49.5 -24t56.5 -8q31 0 57.5 7.5t49 24t36 46t13.5 68.5z" />
    <glyph glyph-name="one" unicode="1" horiz-adv-x="330" 
d="M241 0h-60v601q-22 -25 -55 -42q-37 -17 -76 -21l-16 59q46 7 83 30q47 27 70 73h54v-700z" />
    <glyph glyph-name="two" unicode="2" horiz-adv-x="474" 
d="M113 549l-61 18q47 143 197 143q53 0 94.5 -24t64.5 -65.5t23 -92.5q0 -79 -54 -147l-241 -322h295v-59h-385v47l274 362q48 63 48 121q0 52 -33.5 87t-85.5 35q-59 0 -90 -27.5t-46 -75.5z" />
    <glyph glyph-name="three" unicode="3" horiz-adv-x="515" 
d="M118 575l-56 23q19 46 64 79t107 33q79 0 132 -51t53 -132q0 -53 -28 -92t-69 -58q53 -19 90 -67.5t37 -112.5q0 -94 -61.5 -151.5t-154.5 -57.5q-64 0 -113 28.5t-76 70.5l49 32q22 -33 59 -52.5t81 -19.5q66 0 109 43t43 108q0 62 -47 106.5t-110 44.5h-54v53h54
q52 0 90.5 35t38.5 88q0 54 -35 90t-88 36q-42 0 -72 -22t-43 -54z" />
    <glyph glyph-name="four" unicode="4" horiz-adv-x="509" 
d="M402 241h62v-56h-62v-185h-62v185h-304v56l300 459h66v-459zM101 241h239v360z" />
    <glyph glyph-name="five" unicode="5" horiz-adv-x="519" 
d="M404 641h-232l-23 -211h92q92 -1 156 -64t64 -154q0 -61 -28.5 -112.5t-81 -81.5t-117.5 -30q-62 0 -113 30t-77 72l49 31q20 -33 59.5 -53.5t81.5 -20.5q72 0 117.5 48.5t46.5 114.5q-1 65 -46 113.5t-117 48.5h-149l37 328h281v-59z" />
    <glyph glyph-name="six" unicode="6" horiz-adv-x="575" 
d="M71 209v254q0 45 15 87.5t44 79t79 58.5t114 22q104 0 176 -61l-39 -45q-54 47 -138 47q-51 0 -90 -17.5t-60 -46t-31 -59t-10 -61.5v-134q28 51 73 74t93 23q93 0 157 -64t64 -156.5t-65.5 -157t-158.5 -64.5t-158 64.5t-65 156.5zM294 371q-46 0 -82 -21.5t-56.5 -58
t-21.5 -82.5q0 -68 46 -115t114.5 -47t114.5 47t46 115.5t-46 115t-115 46.5z" />
    <glyph glyph-name="seven" unicode="7" horiz-adv-x="482" 
d="M443 654l-335 -654h-63l327 640h-336v60h407v-46z" />
    <glyph glyph-name="eight" unicode="8" horiz-adv-x="567" 
d="M285 710q38 0 72.5 -13.5t59 -37t39 -58t14.5 -74.5q0 -36 -14 -67t-35.5 -51t-47.5 -32q53 -19 89.5 -67.5t36.5 -112.5q0 -94 -61 -151.5t-154 -57.5t-155 57.5t-62 151.5q0 65 37 114t91 67q-40 19 -68 58.5t-28 90.5q0 81 53 132t133 51zM285 651q-54 0 -89 -36
t-35 -90q0 -51 37.5 -86t85.5 -35q50 0 87 34.5t37 86.5q0 54 -35 90t-88 36zM284 347q-64 0 -108.5 -43t-44.5 -106q0 -65 44 -108t109 -43q43 0 78 19.5t54.5 54t19.5 77.5q0 62 -45.5 105.5t-106.5 43.5z" />
    <glyph glyph-name="nine" unicode="9" horiz-adv-x="575" 
d="M443 231v135q-27 -52 -72 -75t-93 -23q-93 0 -157 64.5t-64 156.5t65 156.5t158.5 64.5t158 -64.5t64.5 -156.5v-254q0 -36 -8.5 -70.5t-28.5 -66.5t-48.5 -56.5t-71.5 -39t-94 -14.5q-104 0 -176 61l39 45q54 -47 138 -47q51 0 90 17.5t59.5 46t30.5 59t10 61.5z
M280.5 651q-68.5 0 -114.5 -47t-46 -115.5t46 -115t115 -46.5t113.5 46t45.5 116q0 68 -45.5 115t-114 47z" />
    <glyph glyph-name="colon" unicode=":" horiz-adv-x="142" 
d="M74.5 437q15.5 0 26.5 -11t11 -26q0 -8 -3 -15t-8 -12t-12 -8t-14 -3q-16 0 -27 11t-11 26.5t11 26.5t26.5 11zM74.5 72q15.5 0 26.5 -11t11 -26.5t-11 -26.5t-26.5 -11t-26.5 11t-11 26.5t11 26.5t26.5 11z" />
    <glyph glyph-name="semicolon" unicode=";" horiz-adv-x="145" 
d="M77.5 437q15.5 0 26.5 -11t11 -26q0 -8 -3 -15t-8 -12t-12 -8t-14 -3q-16 0 -27 11t-11 26.5t11 26.5t26.5 11zM35 -57l21 62q-16 11 -16 30q0 15 11 26t27 11q10 0 18.5 -5t13.5 -13.5t5 -18.5t-4 -18l-35 -74h-41z" />
    <glyph glyph-name="less" unicode="&#x3c;" horiz-adv-x="417" 
d="M367 610l-251 -251l251 -252l-33 -33l-284 285l284 284z" />
    <glyph glyph-name="equal" unicode="=" horiz-adv-x="459" 
d="M409 354h-359v57h359v-57zM409 174h-359v57h359v-57z" />
    <glyph glyph-name="greater" unicode="&#x3e;" horiz-adv-x="417" 
d="M367 359l-284 -285l-33 33l251 252l-251 251l33 33z" />
    <glyph glyph-name="question" unicode="?" horiz-adv-x="461" 
d="M105 521h-62q0 36 11.5 69t34 60t60.5 43t86 16q86 0 138 -55.5t52 -129.5q0 -61 -41 -119q-17 -23 -44 -50.5t-42.5 -44t-27.5 -46t-12 -67.5v-49h-62v55q0 39 13 71t29 51t46 51t48 57q32 44 32 91q0 54 -35 91t-94 37q-57 0 -93.5 -35t-36.5 -96zM227.5 72
q15.5 0 26.5 -11t11 -26.5t-11 -26.5t-26.5 -11t-26.5 11t-11 26.5t11 26.5t26.5 11z" />
    <glyph glyph-name="at" unicode="@" horiz-adv-x="741" 
d="M58 143v305q0 131 85 199.5t230 68.5q148 0 229 -72.5t81 -196.5v-107q0 -55 -18 -99t-49.5 -72.5t-70 -46.5t-83.5 -26l-3 39q-44 -24 -102 -24q-62 0 -103 30.5t-41 96.5v130q0 67 41 97.5t103 30.5q53 0 102 -20l1 20h42v-332q125 46 125 176v107q0 69 -28.5 117.5
t-85.5 75t-140 26.5q-124 0 -191.5 -54.5t-67.5 -163.5v-305q0 -54 22 -95t59.5 -63.5t81.5 -33.5t95 -11q45 0 88 9v-51q-44 -9 -88 -9q-46 0 -88.5 8t-84 27t-72.5 47.5t-50 72.5t-19 99zM451 173v263q-41 18 -92 18q-95 0 -95 -89v-128q0 -28 13 -47.5t35 -28t51 -8.5
q48 0 88 20z" />
    <glyph glyph-name="A" unicode="A" horiz-adv-x="604" 
d="M572 0h-68l-81 241h-243l-81 -241h-68l240 700h61zM196 299h211l-105 313z" />
    <glyph glyph-name="B" unicode="B" horiz-adv-x="607" 
d="M89 700h263q84 0 132 -51.5t48 -126.5q0 -129 -92 -170q52 -17 81 -61.5t29 -101.5q0 -91 -47 -140t-135 -49h-279v700zM155 380h183q63 0 96 34.5t33 100.5q0 54 -34 90t-94 36h-184v-261zM155 320v-261h200q63 0 96.5 34t33.5 101q0 54 -34 90t-94 36h-202z" />
    <glyph glyph-name="C" unicode="C" horiz-adv-x="562" 
d="M72 224v258q0 114 65.5 174.5t174.5 60.5q49 0 89 -13.5t68.5 -37.5t45.5 -59l-48 -24q-44 75 -150 75q-82 0 -131 -45t-49 -132v-257q0 -86 49 -131t131 -45q106 0 150 75l48 -24q-13 -26 -32.5 -46t-44.5 -34.5t-57 -22t-69 -7.5q-109 0 -174.5 60.5t-65.5 174.5z" />
    <glyph glyph-name="D" unicode="D" horiz-adv-x="637" 
d="M89 700h233q117 0 179.5 -65t62.5 -169v-257q0 -58 -18 -100t-50 -65t-70 -33.5t-85 -10.5h-252v700zM155 641v-582h186q75 0 116.5 33.5t41.5 116.5v257q0 81 -45 128t-132 47h-167z" />
    <glyph glyph-name="E" unicode="E" horiz-adv-x="571" 
d="M519 641h-364v-262h337v-59h-337v-261h370v-59h-436v700h430v-59z" />
    <glyph glyph-name="F" unicode="F" horiz-adv-x="558" 
d="M512 641h-357v-262h324v-59h-324v-320h-66v700h423v-59z" />
    <glyph glyph-name="G" unicode="G" horiz-adv-x="633" 
d="M72 212v269q0 115 65.5 175.5t175.5 60.5q74 0 126.5 -29t78.5 -80l-52 -25q-46 75 -151 75q-84 0 -131 -44t-47 -133v-269q0 -35 10.5 -64t27 -47t39.5 -30.5t47.5 -17.5t50.5 -5q34 0 63.5 8.5t54.5 27t39.5 51.5t14.5 77v104h-132v56h197v-372h-51l-2 87
q-26 -50 -77.5 -74t-112.5 -24q-43 0 -83 12.5t-74.5 38t-55.5 70t-21 102.5z" />
    <glyph glyph-name="H" unicode="H" horiz-adv-x="657" 
d="M568 0h-65v320h-348v-320h-66v700h66v-321h348v321h65v-700z" />
    <glyph glyph-name="I" unicode="I" horiz-adv-x="244" 
d="M155 0h-66v700h66v-700z" />
    <glyph glyph-name="J" unicode="J" horiz-adv-x="335" 
d="M286 700v-493q0 -105 -59.5 -160.5t-159.5 -55.5q-14 0 -28 1v59q54 -4 93.5 11t63.5 51.5t24 93.5v493h66z" />
    <glyph glyph-name="K" unicode="K" horiz-adv-x="598" 
d="M278 408l289 -408h-80l-251 356l-81 -98v-258h-66v700h66v-342l282 342h83z" />
    <glyph glyph-name="L" unicode="L" horiz-adv-x="481" 
d="M155 59h293v-59h-359v700h66v-641z" />
    <glyph glyph-name="M" unicode="M" horiz-adv-x="746" 
d="M660 0h-64v547l-198 -521h-50l-196 521v-547h-64v700h65l221 -577l220 577h66v-700z" />
    <glyph glyph-name="N" unicode="N" horiz-adv-x="629" 
d="M544 0h-67l-327 569v-569h-66v700h65l330 -576v576h65v-700z" />
    <glyph glyph-name="O" unicode="O" horiz-adv-x="623" 
d="M72 211v269q0 115 65.5 175t175.5 60q57 0 102 -16.5t74.5 -47.5t45.5 -74.5t16 -97.5v-268q0 -60 -21.5 -105t-57 -69.5t-75.5 -36.5t-85 -12q-44 0 -84 12t-76.5 36.5t-58 69.5t-21.5 105zM486 211v268q0 85 -44.5 131t-128 46t-130 -43.5t-46.5 -132.5v-269
q0 -44 15.5 -77t41 -51.5t55.5 -27t63 -8.5q34 0 64 8.5t55 27t40 51.5t15 77z" />
    <glyph glyph-name="P" unicode="P" horiz-adv-x="606" 
d="M89 700h259q61 0 107 -27t68 -70t22 -95q0 -97 -52 -149.5t-147 -52.5h-191v-306h-66v700zM155 641v-276h190q67 0 102 36.5t35 106.5q0 57 -35.5 95t-99.5 38h-192z" />
    <glyph glyph-name="Q" unicode="Q" horiz-adv-x="623" 
d="M551 479v-268q0 -94 -53 -151l53 -57l-35 -30l-53 57q-62 -42 -151 -42q-44 0 -84 12t-76.5 36.5t-58 69.5t-21.5 105v269q0 115 65.5 175t175.5 60q57 0 102 -16.5t74.5 -47.5t45.5 -74.5t16 -97.5zM357 212l98 -105q31 40 31 104v268q0 85 -44.5 131t-128 46
t-130 -43.5t-46.5 -132.5v-269q0 -44 15.5 -77t41 -51.5t55.5 -27t63 -8.5q65 0 109 28l-99 107z" />
    <glyph glyph-name="R" unicode="R" horiz-adv-x="615" 
d="M89 700h259q92 0 144.5 -55t52.5 -135q0 -85 -41 -134.5t-119 -58.5h-33l202 -317h-77l-193 309h-129v-309h-66v700zM155 641v-273h190q45 0 75.5 16t46 47.5t15.5 78.5q0 56 -35.5 93.5t-99.5 37.5h-192z" />
    <glyph glyph-name="S" unicode="S" horiz-adv-x="579" 
d="M46 189h62q2 -59 48.5 -99.5t133.5 -40.5q90 0 134.5 38t44.5 104q0 18 -6 33.5t-13.5 27t-24 23t-28.5 18t-36.5 16t-37.5 13.5t-42 14q-30 9 -50.5 16t-45 17.5t-41 20.5t-33.5 24t-26.5 29.5t-16 36t-6.5 43.5q0 89 63.5 138.5t165.5 49.5q101 0 165 -49.5t66 -138.5
h-63q-1 63 -48.5 96t-119.5 33t-118.5 -33t-46.5 -91q0 -15 4.5 -28t12 -23.5t20 -20t26 -17t33 -15t37.5 -13.5t43 -13q55 -16 93.5 -33t71.5 -41t49.5 -57t16.5 -76q0 -90 -59 -146t-182 -56q-113 0 -179 58t-67 142z" />
    <glyph glyph-name="T" unicode="T" horiz-adv-x="530" 
d="M483 641h-192v-641h-65v641h-186v59h443v-59z" />
    <glyph glyph-name="U" unicode="U" horiz-adv-x="627" 
d="M554 701v-489q0 -59 -21.5 -104.5t-57 -70t-75.5 -36.5t-85 -12q-44 0 -84.5 12t-76.5 36.5t-57.5 70t-21.5 104.5v489h65v-489q0 -44 15 -77t41 -51.5t55.5 -27t63.5 -8.5t63.5 8.5t55 27t40 51.5t14.5 77v489h66z" />
    <glyph glyph-name="V" unicode="V" horiz-adv-x="578" 
d="M324 0h-91l-216 700h67l194 -628l194 628h67z" />
    <glyph glyph-name="W" unicode="W" horiz-adv-x="811" 
d="M610 0h-82l-121 550l-122 -550h-82l-172 700h69l144 -615l131 615h63l131 -615l142 615h69z" />
    <glyph glyph-name="X" unicode="X" horiz-adv-x="615" 
d="M352 363l231 -363h-77l-199 311l-197 -311h-79l233 363l-215 337h76l182 -292l182 292h78z" />
    <glyph glyph-name="Y" unicode="Y" horiz-adv-x="580" 
d="M322 337v-337h-65v335l-226 365h76l182 -300l182 300h78z" />
    <glyph glyph-name="Z" unicode="Z" horiz-adv-x="586" 
d="M534 656l-400 -597h405v-59h-493v44l400 597h-377v59h465v-44z" />
    <glyph glyph-name="bracketleft" unicode="[" horiz-adv-x="280" 
d="M248 692h-146v-747h146v-59h-208v864h208v-58z" />
    <glyph glyph-name="backslash" unicode="\" horiz-adv-x="379" 
d="M346 0h-63l-243 700h63z" />
    <glyph glyph-name="bracketright" unicode="]" horiz-adv-x="280" 
d="M248 -114h-208v59h145v747h-145v58h208v-864z" />
    <glyph glyph-name="asciicircum" unicode="^" horiz-adv-x="408" 
d="M359 552l-32 -31l-121 120l-124 -120l-32 33l156 151z" />
    <glyph glyph-name="underscore" unicode="_" horiz-adv-x="450" 
d="M414 -104h-371v53h371v-53z" />
    <glyph glyph-name="grave" unicode="`" horiz-adv-x="182" 
d="M148 583h-45l-74 117h67z" />
    <glyph glyph-name="a" unicode="a" horiz-adv-x="505" 
d="M109 427l-33 35q58 47 154 47q55 0 94.5 -12.5t61.5 -31t35 -48t16.5 -56t3.5 -62.5v-301h-51l-1 26q-63 -35 -143 -35q-43 1 -77.5 10.5t-63 29t-44.5 53.5t-16 81q0 169 214 169q46 0 119 -10q-1 30 -6.5 51t-21 41.5t-47 31t-79.5 10.5q-69 0 -115 -29zM378 70v206
q-67 9 -110 9q-36 0 -64 -5.5t-51.5 -18.5t-36 -38t-12.5 -60q0 -123 151 -123q68 0 123 30z" />
    <glyph glyph-name="b" unicode="b" horiz-adv-x="509" 
d="M132 700v-219q68 28 138 28q37 0 69 -8.5t59.5 -27.5t43 -53.5t15.5 -81.5v-177q0 -46 -16.5 -80t-44.5 -52.5t-61 -27.5t-71 -9q-82 0 -143 34l-1 -26h-51v700h63zM394 160v174q0 125 -134 125q-71 0 -128 -26v-362q56 -28 124 -28q62 0 100 29t38 88z" />
    <glyph glyph-name="c" unicode="c" horiz-adv-x="446" 
d="M52 194v112q0 66 25 112.5t68.5 69t101.5 22.5q90 0 151 -62l-47 -25q-47 34 -104 34q-59 0 -95.5 -38t-36.5 -113v-112q0 -75 36.5 -113t95.5 -38q57 0 104 35l47 -25q-61 -62 -151 -62q-58 0 -101.5 22.5t-68.5 69t-25 111.5z" />
    <glyph glyph-name="d" unicode="d" horiz-adv-x="509" 
d="M440 0h-51l-1 26q-61 -34 -143 -34q-38 0 -71.5 9t-61.5 28t-44 52.5t-16 79.5v177q0 47 16 81.5t43 53.5t59 27.5t69 8.5q70 0 138 -28v219h63v-700zM377 71v362q-57 26 -128 26q-134 0 -134 -125v-174q0 -59 38.5 -88t100.5 -29q68 0 123 28z" />
    <glyph glyph-name="e" unicode="e" horiz-adv-x="477" 
d="M52 152v177q0 85 52 133t143 48q89 0 136 -47.5t47 -131.5v-102h-316v-83q0 -107 121 -107q78 0 137 40l35 -31q-72 -59 -176 -59q-86 0 -132.5 43.5t-46.5 119.5zM371 273v60q0 66 -36.5 96t-89.5 30q-55 0 -92.5 -31t-37.5 -97v-58h256z" />
    <glyph glyph-name="f" unicode="f" horiz-adv-x="299" 
d="M73 0v545q0 45 14 78t37.5 51.5t51 27.5t58.5 9q22 0 43 -4v-52q-27 4 -42 3q-28 -2 -49.5 -13.5t-35.5 -39t-14 -67.5v-37h132v-50h-132v-451h-63z" />
    <glyph glyph-name="g" unicode="g" horiz-adv-x="509" 
d="M52 169v171q0 46 16.5 80t45 52.5t61 27.5t70.5 9q81 0 143 -35l1 26h51v-536q0 -54 -22.5 -91.5t-60 -54t-87.5 -16.5q-95 0 -177 52l26 37q66 -39 135 -39q59 0 90.5 25t32.5 82v69q-59 -28 -140 -28q-39 0 -71 9t-58 28t-41 52.5t-15 79.5zM377 74v356q-55 28 -123 28
q-41 0 -71 -12t-49 -39t-19 -66v-168q0 -125 134 -125q71 0 128 26z" />
    <glyph glyph-name="h" unicode="h" horiz-adv-x="526" 
d="M137 700v-220q60 29 135 29q38 0 70.5 -8.5t60 -27.5t43.5 -53t16 -80v-340h-63v337q0 63 -36.5 92.5t-98.5 29.5q-68 0 -127 -28v-431h-63v700h63z" />
    <glyph glyph-name="i" unicode="i" horiz-adv-x="214" 
d="M110 710q16 0 25.5 -10t9.5 -25t-9.5 -25.5t-25.5 -10.5q-15 0 -25.5 10t-10.5 26t10.5 25.5t25.5 9.5zM141 0h-63v501h63v-501z" />
    <glyph glyph-name="j" unicode="j" horiz-adv-x="211" 
d="M107 710q15 0 25 -10t10 -25t-9.5 -25.5t-25.5 -10.5t-26 10t-10 26t10.5 25.5t25.5 9.5zM138 501v-561q0 -48 -26 -81.5t-71 -48.5q-24 -9 -47 -10l-3 52q23 3 41 11q43 22 43 86v552h63z" />
    <glyph glyph-name="k" unicode="k" horiz-adv-x="499" 
d="M137 277l236 231h79l-199 -202l227 -306h-72l-193 263l-78 -72v-191h-63v700h63v-423z" />
    <glyph glyph-name="l" unicode="l" horiz-adv-x="201" 
d="M137 0h-63v700h63v-700z" />
    <glyph glyph-name="m" unicode="m" horiz-adv-x="776" 
d="M120 501l1 -25q65 33 137 33q44 0 80.5 -13.5t56.5 -38.5q29 17 51.5 27.5t49.5 17.5t55 7q70 0 115.5 -44t45.5 -125v-340h-63v335q0 62 -28.5 92.5t-79.5 30.5q-27 0 -50.5 -7t-75.5 -32q9 -19 9 -89v-330h-62v358q0 100 -112 100q-65 0 -118 -27v-431h-63v501h51z" />
    <glyph glyph-name="n" unicode="n" horiz-adv-x="521" 
d="M120 501l1 -26q64 34 144 34q39 0 72 -9t60.5 -28t43.5 -53t16 -79v-340h-63v337q0 62 -37.5 92t-99.5 30q-69 0 -125 -28v-431h-63v501h51z" />
    <glyph glyph-name="o" unicode="o" horiz-adv-x="495" 
d="M52 188v124q0 96 51 147.5t146 51.5q93 0 143.5 -53.5t50.5 -145.5v-124q0 -39 -11 -73t-33 -62.5t-60.5 -45t-89.5 -16.5q-41 0 -74.5 11t-56 29.5t-37.5 44t-22 53.5t-7 59zM380 188v124q0 27 -5.5 50t-16.5 41t-26.5 30.5t-36.5 19t-46 6.5q-134 0 -134 -147v-124
q0 -62 33.5 -103.5t100.5 -41.5q66 0 98.5 41t32.5 104z" />
    <glyph glyph-name="p" unicode="p" horiz-adv-x="514" 
d="M125 500l1 -26q62 35 143 35q30 0 57.5 -5.5t52.5 -18t43 -31.5t29 -48.5t11 -65.5v-177q0 -38 -10.5 -68t-28 -49.5t-42 -32t-50.5 -17.5t-55 -5q-71 0 -139 28v-221h-63v702h51zM399 166v175q0 58 -38 87.5t-100 29.5q-68 0 -124 -28v-362q58 -26 128 -26
q134 0 134 124z" />
    <glyph glyph-name="q" unicode="q" horiz-adv-x="509" 
d="M52 163v177q0 46 16.5 79.5t45 52.5t61 28t70.5 9q81 0 143 -35l1 26h51v-702h-63v221q-68 -28 -138 -28q-38 0 -69.5 9t-59 27.5t-43 53.5t-15.5 82zM377 68v362q-55 28 -123 28q-62 0 -100.5 -29.5t-38.5 -87.5v-175q0 -124 134 -124q71 0 128 26z" />
    <glyph glyph-name="r" unicode="r" horiz-adv-x="352" 
d="M120 504l2 -73q44 80 153 80q33 0 57 -7l-3 -53q-38 10 -66 7q-32 -1 -56.5 -10.5t-41 -28t-25 -45.5t-8.5 -62v-312h-63v504h51z" />
    <glyph glyph-name="s" unicode="s" horiz-adv-x="456" 
d="M40 133h62q3 -40 35 -66.5t92 -26.5q54 0 87 26t33 67q0 18 -8 33t-18 24.5t-30.5 18.5t-35 13.5t-41.5 12.5q-31 8 -50 14.5t-42.5 18t-37 24.5t-23 33.5t-9.5 46.5q0 59 43 99.5t131 40.5t131 -40t43 -100h-60q0 35 -28 61t-85.5 26t-85 -26t-27.5 -61
q0 -34 30.5 -52.5t91.5 -35.5q41 -11 68.5 -21.5t53.5 -27.5t39 -42.5t13 -59.5q0 -41 -19.5 -73t-61 -52.5t-98.5 -20.5q-91 0 -140.5 41.5t-52.5 104.5z" />
    <glyph glyph-name="t" unicode="t" horiz-adv-x="342" 
d="M136 501h132v-53h-132v-250q0 -121 95 -148q29 -9 69 -7v-53q-40 -2 -76 6q-45 9 -78 31.5t-53 64t-20 97.5v433h63v-121z" />
    <glyph glyph-name="u" unicode="u" 
d="M452 0h-51l-1 26q-63 -34 -143 -34q-39 0 -72 9t-61 28t-44 53t-16 79v340h63v-337q0 -62 37.5 -92t100.5 -30q68 0 124 28v431h63v-501z" />
    <glyph glyph-name="v" unicode="v" horiz-adv-x="459" 
d="M263 0h-67l-177 501h64l146 -424l147 424h64z" />
    <glyph glyph-name="w" unicode="w" horiz-adv-x="702" 
d="M520 0h-63l-106 375l-106 -375h-62l-164 501h66l127 -413l112 413h53l112 -413l128 413h66z" />
    <glyph glyph-name="x" unicode="x" horiz-adv-x="418" 
d="M251 250l146 -250h-68l-118 204l-123 -204h-69l154 251l-147 250h69l117 -208l117 208h68z" />
    <glyph glyph-name="y" unicode="y" horiz-adv-x="521" 
d="M452 501v-537q0 -41 -13 -72.5t-36 -51t-53.5 -29t-67.5 -9.5q-97 0 -176 52l25 37q67 -39 136 -39q121 0 122 107v69q-58 -28 -140 -28q-39 0 -71 9t-58 28t-41 52.5t-15 79.5v332h63v-328q0 -125 134 -125q71 0 128 26v427h63z" />
    <glyph glyph-name="z" unicode="z" horiz-adv-x="439" 
d="M390 460l-272 -407h278v-53h-356v41l272 407h-253v53h331v-41z" />
    <glyph glyph-name="braceleft" unicode="{" horiz-adv-x="304" 
d="M114 420v143q0 71 26.5 110.5t75.5 61.5q15 7 35 14l5 -51q-17 -6 -29 -14q-54 -34 -54 -122v-142q0 -50 -66 -106q66 -55 66 -106v-137q0 -91 58 -125q12 -7 26 -12l-6 -52q-21 7 -32 13q-51 22 -78 61t-27 112v140q0 31 -31 57q-15 14 -33 27v42q21 16 37 32
q27 23 27 54z" />
    <glyph glyph-name="bar" unicode="|" horiz-adv-x="159" 
d="M109 -50h-59v750h59v-750z" />
    <glyph glyph-name="braceright" unicode="}" horiz-adv-x="304" 
d="M44 698l5 51q20 -7 35 -15q49 -21 76 -60.5t27 -110.5v-143q0 -31 26 -54q16 -16 38 -32v-42q-19 -13 -34 -27q-30 -26 -30 -57v-140q0 -73 -27.5 -112t-78.5 -61q-11 -6 -32 -13l-6 52q14 5 27 12q57 34 57 125v137q0 51 67 106q-67 56 -67 106v142q0 88 -54 121
q-12 8 -29 15z" />
    <glyph glyph-name="asciitilde" unicode="~" horiz-adv-x="504" 
d="M71 255l-32 36q47 57 121 57q38 0 110 -25q57 -20 92 -20q42 0 72 32l32 -38q-42 -43 -104 -43q-38 0 -107 23q-63 22 -95 22q-53 0 -89 -44z" />
    <glyph glyph-name="exclamdown" unicode="&#xa1;" horiz-adv-x="158" 
d="M82.5 501q15.5 0 26.5 -11.5t11 -26.5t-11 -26.5t-26.5 -11.5t-26.5 11.5t-11 26.5t11 26.5t26.5 11.5zM119 -202h-72l13 551h47z" />
    <glyph glyph-name="cent" unicode="&#xa2;" horiz-adv-x="446" 
d="M273 560v-52q71 -9 125 -60l-47 -25q-47 34 -104 34q-59 0 -95.5 -38t-36.5 -113v-112q0 -75 36.5 -113t95.5 -38q57 0 104 35l47 -25q-27 -25 -58 -40.5t-67 -19.5v-51h-50v50q-78 7 -124.5 59t-46.5 143v112q0 92 46.5 144t124.5 58v52h50z" />
    <glyph glyph-name="sterling" unicode="&#xa3;" horiz-adv-x="599" 
d="M97 367h60q-30 93 -30 139q0 58 25.5 104t72 72.5t106.5 26.5q51 0 88.5 -18t55.5 -47l-42 -30q-32 36 -99 36q-65 0 -104 -42.5t-39 -103.5q0 -36 32 -137h142v-37h-130q18 -59 18 -112q0 -43 -22.5 -88t-55.5 -71h159q103 0 158 72l62 -31q-70 -100 -212 -100h-259v48
q40 21 74.5 68t34.5 98q0 14 -1.5 27.5t-4.5 27.5t-5.5 21.5t-6.5 22t-5 17.5h-72v37z" />
    <glyph glyph-name="yen" unicode="&#xa5;" horiz-adv-x="580" 
d="M343 374h117v-38h-138v-74h138v-38h-138v-224h-65v224h-137v38h137v74h-137v38h114l-203 326h76l182 -300l182 300h78z" />
    <glyph glyph-name="brokenbar" unicode="&#xa6;" horiz-adv-x="159" 
d="M109 390h-59v310h59v-310zM109 -50h-59v310h59v-310z" />
    <glyph glyph-name="section" unicode="&#xa7;" horiz-adv-x="490" 
d="M42 43h57q1 -48 39 -81.5t110 -33.5q75 0 111.5 31.5t36.5 85.5q0 17 -5 31t-18 25.5t-23.5 19.5t-33.5 16.5t-35.5 13t-40.5 13.5q-35 11 -57.5 19.5t-48.5 22t-41 28.5t-25 37t-10 49q0 84 73 125q-73 42 -73 110q0 74 53 115t138 41q84 0 137.5 -41t54.5 -116h-57
q0 34 -18.5 58t-48 35t-68.5 11t-69 -11.5t-47 -34t-17 -53.5q0 -39 33.5 -61t110.5 -44q92 -26 142.5 -66t50.5 -109q0 -77 -53 -123q53 -43 53 -111q0 -74 -51 -122.5t-152 -48.5q-94 0 -150 49.5t-58 119.5zM189 415q-34 -11 -53.5 -34t-19.5 -56q0 -39 32 -60t106 -44
q62 -20 93 -36q49 30 49 94q0 20 -9 36.5t-20.5 27.5t-35.5 22t-40 16.5t-47 15.5q-32 10 -55 18z" />
    <glyph glyph-name="dieresis" unicode="&#xa8;" horiz-adv-x="320" 
d="M72 667q9 0 16.5 -4.5t12 -12t4.5 -16.5t-4.5 -17t-12 -12.5t-16.5 -4.5q-14 0 -23.5 10t-9.5 24q0 9 4.5 16.5t12 12t16.5 4.5zM249 667q9 0 16.5 -4.5t12 -12t4.5 -16.5t-4.5 -17t-12 -12.5t-16.5 -4.5q-14 0 -23.5 10t-9.5 24q0 9 4.5 16.5t12 12t16.5 4.5z" />
    <glyph glyph-name="copyright" unicode="&#xa9;" horiz-adv-x="810" 
d="M406 705q96 0 177.5 -47t129 -128.5t47.5 -178.5q0 -101 -50.5 -184t-131.5 -128t-172 -45q-93 0 -174 45t-131.5 127.5t-50.5 184.5q0 75 29 141.5t78 112.5t114 73t135 27zM406 658q-82 0 -152.5 -38.5t-113.5 -110t-43 -158.5q0 -89 44 -161t114 -110.5t151 -38.5
q59 0 114.5 23t98.5 63.5t69 99t26 124.5q0 128 -90 217.5t-218 89.5zM552 286h41q-16 -66 -66 -108.5t-118 -42.5q-91 0 -145 60.5t-54 153.5q0 89 54 152t143 63q46 0 85.5 -19.5t65.5 -53t34 -75.5h-40q-3 12 -9 26t-18 29t-28 26.5t-39 19.5t-50 8q-75 0 -117 -52.5
t-42 -121.5q0 -32 9 -62t26.5 -56.5t50 -42.5t74.5 -16q59 0 98 36.5t45 75.5z" />
    <glyph glyph-name="ordfeminine" unicode="&#xaa;" horiz-adv-x="336" 
d="M87 600l-24 29q34 30 97 30q42 0 69.5 -10.5t40.5 -31t17 -41.5t4 -50v-177h-37l-1 13q-38 -18 -83 -18q-126 3 -126 104t133 101q29 0 71 -5q-3 36 -21 55.5t-68 19.5q-46 0 -72 -19zM249 400v111q-53 6 -66 6q-95 0 -95 -67t88 -67q38 0 73 17z" />
    <glyph glyph-name="guillemotleft" unicode="&#xab;" horiz-adv-x="563" 
d="M280 427l-160 -159l160 -158l-41 -42l-199 200l199 199zM527 427l-160 -159l161 -158l-40 -42l-200 200l200 199z" />
    <glyph glyph-name="logicalnot" unicode="&#xac;" horiz-adv-x="833" 
 />
    <glyph glyph-name="registered" unicode="&#xae;" horiz-adv-x="811" 
d="M407 706q96 0 177 -45.5t129 -127t48 -181.5t-48 -182t-129 -128t-177 -46q-70 0 -135.5 27t-114 73.5t-77.5 113.5t-29 142q0 100 48 181.5t129.5 127t178.5 45.5zM407 659q-129 0 -219.5 -87.5t-90.5 -219.5q0 -88 43.5 -159.5t114 -110.5t152.5 -39q83 0 153.5 39.5
t112.5 111t42 158.5t-42 158t-112.5 110t-153.5 39zM271 563h168q37 0 67.5 -15t48 -42.5t17.5 -62.5q0 -51 -29.5 -80t-72.5 -35l112 -174h-44l-109 170h-117v-170h-41v409zM312 527v-168h126q14 0 28.5 3.5t30 11.5t25.5 26t10 43q0 44 -29.5 64t-68.5 20h-122z" />
    <glyph glyph-name="macron" unicode="&#xaf;" horiz-adv-x="321" 
d="M278 618h-236v38h236v-38z" />
    <glyph glyph-name="degree" unicode="&#xb0;" horiz-adv-x="406" 
d="M203 721q66 0 112.5 -46.5t46.5 -111.5q0 -67 -46.5 -113t-112.5 -46t-112.5 46t-46.5 113q0 43 21 79.5t58 57.5t80 21zM203 671q-47 0 -77.5 -33t-30.5 -75.5t30.5 -75t77.5 -32.5q32 0 57 15.5t38 40t13 52t-13 52t-38 40.5t-57 16z" />
    <glyph glyph-name="plusminus" unicode="&#xb1;" horiz-adv-x="459" 
d="M258 383h151v-57h-151v-151h-57v151h-151v57h151v151h57v-151zM409 0h-359v57h359v-57z" />
    <glyph glyph-name="twosuperior" unicode="&#xb2;" horiz-adv-x="298" 
d="M82 602l-48 12q30 91 122 91q49 0 80.5 -32t31.5 -80q0 -49 -33 -89l-136 -180h169v-46h-237v36l163 213q25 33 25 67q0 28 -17.5 47t-45.5 19q-57 0 -74 -58z" />
    <glyph glyph-name="threesuperior" unicode="&#xb3;" horiz-adv-x="325" 
d="M90 620l-44 18q13 32 41.5 52t64.5 20q47 0 79 -31t32 -80q0 -57 -49 -84q34 -16 52.5 -45.5t18.5 -65.5q0 -56 -37 -92t-96 -36q-37 0 -67.5 17t-49.5 46l39 25q25 -41 77 -41q37 0 61.5 23.5t24.5 61.5q0 35 -25.5 59.5t-59.5 24.5h-37v42h35q27 0 46 18t19 45
q0 28 -18 47t-46 19q-11 0 -20.5 -3t-17 -8.5t-14 -13.5t-9.5 -18z" />
    <glyph glyph-name="acute" unicode="&#xb4;" horiz-adv-x="182" 
d="M91 583h-45l52 117h67z" />
    <glyph glyph-name="paragraph" unicode="&#xb6;" horiz-adv-x="623" 
d="M578 -165h-59v856h-102v-856h-59v540h-130q-83 0 -133.5 51t-50.5 140q0 83 53.5 133.5t145.5 50.5h335v-915z" />
    <glyph glyph-name="periodcentered" unicode="&#xb7;" horiz-adv-x="100" 
d="M54.5 357q15.5 0 26.5 -11t11 -26.5t-11 -26.5t-26.5 -11t-26.5 11t-11 26.5t11 26.5t26.5 11z" />
    <glyph glyph-name="cedilla" unicode="&#xb8;" horiz-adv-x="316" 
d="M183 8l-44 -61q20 8 43 8q37 0 64 -20t27 -60q0 -34 -20 -56t-47 -30t-61 -8q-43 0 -103 24l15 32q39 -22 88 -22q16 0 30.5 3.5t26 10.5t18.5 18.5t7 26.5q0 22 -15.5 35t-39.5 13q-37 0 -77 -19l-14 15l65 90h37z" />
    <glyph glyph-name="onesuperior" unicode="&#xb9;" horiz-adv-x="198" 
d="M156 279h-48v343q-14 -13 -33 -21q-23 -9 -43 -10l-12 47q26 3 52 18q30 16 42 44h42v-421z" />
    <glyph glyph-name="ordmasculine" unicode="&#xba;" horiz-adv-x="328" 
d="M44 466v71q0 57 31 90t90 33q58 0 88.5 -34t30.5 -89v-71q0 -52 -29.5 -87t-90.5 -35q-60 0 -90 35.5t-30 86.5zM239 464v75q0 24 -8.5 41.5t-25.5 28t-40 10.5q-37 0 -56 -21t-19 -59v-74q0 -13 2.5 -24.5t8.5 -21.5t14.5 -17.5t21 -12t27.5 -4.5q38 0 56.5 23t18.5 56z
" />
    <glyph glyph-name="guillemotright" unicode="&#xbb;" horiz-adv-x="563" 
d="M282 268l-199 -200l-40 42l160 158l-159 159l39 40zM531 268l-200 -200l-40 42l159 158l-159 159l40 40z" />
    <glyph glyph-name="onequarter" unicode="&#xbc;" horiz-adv-x="709" 
d="M180 279h-48v343q-14 -13 -32 -21q-23 -9 -43 -10l-13 47q25 3 50 17q32 16 44 45h42v-421zM235 0h-58l243 700h58zM629 153h36v-45h-36v-108h-49v108h-178v40l179 273h48v-268zM454 153h128v196z" />
    <glyph glyph-name="onehalf" unicode="&#xbd;" horiz-adv-x="729" 
d="M180 279h-48v343q-14 -13 -33 -21q-23 -9 -42 -10l-13 47q24 3 48 16q34 17 46 46h42v-421zM238 0h-58l243 700h58zM499 324l-48 12q30 91 122 91q49 0 80.5 -32.5t31.5 -79.5q0 -50 -33 -90l-136 -180h169v-45h-237v35l163 214q26 32 26 67q0 28 -17.5 47t-46.5 19
q-57 0 -74 -58z" />
    <glyph glyph-name="threequarters" unicode="&#xbe;" horiz-adv-x="790" 
d="M99 620l-44 18q13 32 41.5 52t65.5 20q46 0 78 -31t32 -80q0 -57 -49 -84q34 -16 53 -45.5t19 -65.5q0 -55 -38.5 -91.5t-95.5 -36.5q-37 0 -67.5 17t-49.5 46l39 25q25 -41 77 -41q25 0 44.5 10.5t30.5 30t11 44.5q0 35 -25.5 59.5t-59.5 24.5h-37v42h35q27 0 46.5 18
t19.5 45q0 28 -18.5 47t-46.5 19q-14 0 -26 -5.5t-21 -15t-14 -22.5zM316 0h-57l243 700h57zM711 153h35v-45h-35v-108h-49v108h-178v40l179 273h48v-268zM535 153h128v196z" />
    <glyph glyph-name="questiondown" unicode="&#xbf;" horiz-adv-x="461" 
d="M241 509q7 0 14 -3t12 -8t8 -12t3 -15q0 -15 -11 -26t-26.5 -11t-26.5 11t-11 26.5t11 26.5t27 11zM272 358v-55q0 -39 -13 -71t-29 -51t-46 -51t-48 -57q-32 -44 -32 -91q0 -54 35 -91t94 -37q57 0 93.5 35t36.5 96h62q0 -29 -7 -55.5t-22 -51t-37 -42.5t-54.5 -28.5
t-71.5 -10.5q-86 0 -138 55.5t-52 129.5q0 61 41 119q15 20 35.5 41.5t35 36t28 33t20.5 42.5t7 55v49h62z" />
    <glyph glyph-name="Agrave" unicode="&#xc0;" horiz-adv-x="604" 
d="M342 784h-45l-74 116h67zM572 0h-68l-81 241h-243l-81 -241h-68l240 700h61zM196 299h211l-105 313z" />
    <glyph glyph-name="Aacute" unicode="&#xc1;" horiz-adv-x="604" 
d="M325 784h-45l52 117h67zM572 0h-68l-81 241h-243l-81 -241h-68l240 700h61zM196 299h211l-105 313z" />
    <glyph glyph-name="Acircumflex" unicode="&#xc2;" horiz-adv-x="604" 
d="M465 771h-60l-100 106l-104 -106h-59l131 137h64zM572 0h-68l-81 241h-243l-81 -241h-68l240 700h61zM196 299h211l-105 313z" />
    <glyph glyph-name="Atilde" unicode="&#xc3;" horiz-adv-x="604" 
d="M163 804l-25 34q51 54 102 54q26 0 69.5 -21t64.5 -21q33 0 68 36l24 -34q-46 -43 -91 -43q-26 0 -70 20t-67 20q-35 0 -75 -45zM572 0h-68l-81 241h-243l-81 -241h-68l240 700h61zM196 299h211l-105 313z" />
    <glyph glyph-name="Adieresis" unicode="&#xc4;" horiz-adv-x="604" 
d="M216 866q14 0 23 -9.5t9 -23.5t-9.5 -24t-22.5 -10q-9 0 -17 4.5t-12.5 12.5t-4.5 17q0 14 10 23.5t24 9.5zM393 866q13 0 22.5 -9.5t9.5 -23.5t-9.5 -24t-22.5 -10q-9 0 -17 4.5t-12.5 12.5t-4.5 17q0 14 10 23.5t24 9.5zM572 0h-68l-81 241h-243l-81 -241h-68l240 700
h61zM196 299h211l-105 313z" />
    <glyph glyph-name="Aring" unicode="&#xc5;" horiz-adv-x="604" 
d="M302.5 950q46.5 0 81 -34.5t34.5 -81.5q0 -31 -15.5 -57.5t-42.5 -42.5t-58 -16q-47 0 -81.5 34.5t-34.5 81.5t35 81.5t81.5 34.5zM302 912q-33 0 -55.5 -22.5t-22.5 -55.5t22.5 -56t55.5 -23q22 0 40 10.5t28 28.5t10 40q0 33 -22.5 55.5t-55.5 22.5zM572 0h-68l-81 241
h-243l-81 -241h-68l240 700h61zM196 299h211l-105 313z" />
    <glyph glyph-name="AE" unicode="&#xc6;" horiz-adv-x="771" 
d="M724 641h-364v-262h332v-59h-326v-261h358v-59h-418l-2 241h-124l-81 -241h-68l240 700h453v-59zM196 299h104l-3 299z" />
    <glyph glyph-name="Ccedilla" unicode="&#xc7;" horiz-adv-x="562" 
d="M72 224v258q0 114 65.5 174.5t174.5 60.5q49 0 89 -13.5t68.5 -37.5t45.5 -59l-48 -24q-44 75 -150 75q-82 0 -131 -45t-49 -132v-257q0 -86 49 -131t131 -45q106 0 150 75l48 -24q-52 -98 -182 -107q-11 -2 -25 -2q-8 0 -17 1l-30 -41q21 7 42 7q39 0 65.5 -19.5
t26.5 -59.5q0 -34 -20 -56t-47.5 -30t-60.5 -8q-40 0 -103 23l15 33q35 -21 84 -23q36 0 61 15t25 44q0 23 -16 36t-42 13q-32 0 -74 -20l-14 16l53 73q-85 14 -134.5 73t-49.5 157z" />
    <glyph glyph-name="Egrave" unicode="&#xc8;" horiz-adv-x="571" 
d="M348 784h-45l-74 116h67zM519 641h-364v-262h337v-59h-337v-261h370v-59h-436v700h430v-59z" />
    <glyph glyph-name="Eacute" unicode="&#xc9;" horiz-adv-x="571" 
d="M322 784h-46l53 117h67zM519 641h-364v-262h337v-59h-337v-261h370v-59h-436v700h430v-59z" />
    <glyph glyph-name="Ecircumflex" unicode="&#xca;" horiz-adv-x="571" 
d="M442 771h-60l-100 106l-103 -106h-60l132 137h64zM519 641h-364v-262h337v-59h-337v-261h370v-59h-436v700h430v-59z" />
    <glyph glyph-name="Edieresis" unicode="&#xcb;" horiz-adv-x="571" 
d="M194 866q8 0 15.5 -4.5t12 -12t4.5 -16.5t-4.5 -17t-12 -12.5t-16.5 -4.5q-14 0 -23.5 10t-9.5 24q0 9 4.5 16.5t12 12t17.5 4.5zM370 866q9 0 16.5 -4.5t12 -12t4.5 -16.5t-4.5 -17t-12 -12.5t-16.5 -4.5q-14 0 -23.5 10t-9.5 24q0 9 4.5 16.5t12 12t16.5 4.5zM519 641
h-364v-262h337v-59h-337v-261h370v-59h-436v700h430v-59z" />
    <glyph glyph-name="Igrave" unicode="&#xcc;" horiz-adv-x="244" 
d="M174 784h-45l-74 116h67zM155 0h-66v700h66v-700z" />
    <glyph glyph-name="Iacute" unicode="&#xcd;" horiz-adv-x="244" 
d="M124 784h-46l53 117h67zM155 0h-66v700h66v-700z" />
    <glyph glyph-name="Icircumflex" unicode="&#xce;" horiz-adv-x="244" 
d="M285 771h-60l-100 106l-103 -106h-60l131 137h64zM155 0h-66v700h66v-700z" />
    <glyph glyph-name="Idieresis" unicode="&#xcf;" horiz-adv-x="244" 
d="M36 866q9 0 16.5 -4.5t11.5 -12t4 -16.5t-4 -17t-11.5 -12.5t-16.5 -4.5q-14 0 -24 10t-10 24t10 23.5t24 9.5zM213 866q9 0 16.5 -4.5t11.5 -12t4 -16.5t-4 -17t-11.5 -12.5t-16.5 -4.5q-14 0 -24 10t-10 24q0 9 4.5 16.5t12.5 12t17 4.5zM155 0h-66v700h66v-700z" />
    <glyph glyph-name="Eth" unicode="&#xd0;" horiz-adv-x="651" 
d="M104 700h232q117 0 180 -65t63 -169v-257q0 -47 -12.5 -83.5t-33 -60t-49.5 -38.5t-60.5 -21t-68.5 -6h-251v320h-94v59h94v321zM169 641v-262h166v-59h-166v-261h186q75 0 116.5 33.5t41.5 116.5v257q0 81 -45 128t-132 47h-167z" />
    <glyph glyph-name="Ntilde" unicode="&#xd1;" horiz-adv-x="629" 
d="M174 804l-25 34q51 54 102 54q26 0 69 -21t65 -21q33 0 68 36l24 -34q-47 -43 -91 -43q-26 0 -70 20t-67 20q-36 0 -75 -45zM544 0h-67l-327 569v-569h-66v700h65l330 -576v576h65v-700z" />
    <glyph glyph-name="Ograve" unicode="&#xd2;" horiz-adv-x="623" 
d="M363 784h-46l-73 116h66zM72 211v269q0 115 65.5 175t175.5 60q76 0 129.5 -29t81 -82t27.5 -125v-268q0 -60 -21.5 -105t-57 -69.5t-75.5 -36.5t-85 -12q-44 0 -84 12t-76.5 36.5t-58 69.5t-21.5 105zM486 211v268q0 85 -44.5 131t-128 46t-130 -43.5t-46.5 -132.5v-269
q0 -36 10.5 -64.5t27 -47t39.5 -30.5t47.5 -17t50.5 -5q34 0 64 8.5t55 27t40 51.5t15 77z" />
    <glyph glyph-name="Oacute" unicode="&#xd3;" horiz-adv-x="623" 
d="M315 782h-45l52 117h67zM72 211v269q0 115 65.5 175t175.5 60q76 0 129.5 -29t81 -82t27.5 -125v-268q0 -60 -21.5 -105t-57 -69.5t-75.5 -36.5t-85 -12q-44 0 -84 12t-76.5 36.5t-58 69.5t-21.5 105zM486 211v268q0 85 -44.5 131t-128 46t-130 -43.5t-46.5 -132.5v-269
q0 -36 10.5 -64.5t27 -47t39.5 -30.5t47.5 -17t50.5 -5q34 0 64 8.5t55 27t40 51.5t15 77z" />
    <glyph glyph-name="Ocircumflex" unicode="&#xd4;" horiz-adv-x="623" 
d="M474 771h-60l-100 106l-104 -106h-59l131 137h64zM72 211v269q0 115 65.5 175t175.5 60q76 0 129.5 -29t81 -82t27.5 -125v-268q0 -48 -14.5 -87t-37.5 -64t-54.5 -41.5t-64.5 -23.5t-68 -7q-44 0 -84 12t-76.5 36.5t-58 69.5t-21.5 105zM486 211v268q0 85 -44.5 131
t-128 46t-130 -43.5t-46.5 -132.5v-269q0 -44 15.5 -77t41 -51.5t55.5 -27t63 -8.5q34 0 64 8.5t55 27t40 51.5t15 77z" />
    <glyph glyph-name="Otilde" unicode="&#xd5;" horiz-adv-x="623" 
d="M172 804l-24 34q51 54 101 54q27 0 70 -21t65 -21q32 0 67 36l24 -34q-46 -43 -90 -43q-27 0 -71 20t-66 20q-36 0 -76 -45zM72 211v269q0 115 65.5 175t175.5 60q57 0 102 -16.5t74.5 -47.5t45.5 -74.5t16 -97.5v-268q0 -60 -21.5 -105t-57 -69.5t-75.5 -36.5t-85 -12
q-44 0 -84 12t-76.5 36.5t-58 69.5t-21.5 105zM486 211v268q0 85 -44.5 131t-128 46t-130 -43.5t-46.5 -132.5v-269q0 -44 15.5 -77t41 -51.5t55.5 -27t63 -8.5q34 0 64 8.5t55 27t40 51.5t15 77z" />
    <glyph glyph-name="Odieresis" unicode="&#xd6;" horiz-adv-x="623" 
d="M225 866q14 0 23 -9.5t9 -23.5t-9.5 -24t-22.5 -10q-9 0 -17 4.5t-12.5 12.5t-4.5 17q0 14 10 23.5t24 9.5zM402 866q14 0 23 -9.5t9 -23.5t-9.5 -24t-22.5 -10q-9 0 -17 4.5t-12.5 12.5t-4.5 17q0 14 10 23.5t24 9.5zM72 211v269q0 115 65.5 175t175.5 60
q57 0 102 -16.5t74.5 -47.5t45.5 -74.5t16 -97.5v-268q0 -60 -21.5 -105t-57 -69.5t-75.5 -36.5t-85 -12q-44 0 -84 12t-76.5 36.5t-58 69.5t-21.5 105zM486 211v268q0 85 -44.5 131t-128 46t-130 -43.5t-46.5 -132.5v-269q0 -44 15.5 -77t41 -51.5t55.5 -27t63 -8.5
q34 0 64 8.5t55 27t40 51.5t15 77z" />
    <glyph glyph-name="multiply" unicode="&#xd7;" horiz-adv-x="396" 
d="M352 432l-115 -115l115 -115l-40 -38l-115 114l-114 -114l-39 39l115 114l-115 114l39 40l114 -115l115 115z" />
    <glyph glyph-name="Oslash" unicode="&#xd8;" horiz-adv-x="623" 
d="M482 750l-25 -72q94 -61 94 -199v-268q0 -60 -21.5 -105t-57 -69.5t-75.5 -36.5t-85 -12q-47 0 -90 13l-18 -51h-63l26 76q-95 58 -95 185v269q0 115 65.5 175t175.5 60q49 0 89 -12l17 47h63zM137 480v-269q0 -82 51 -125l195 560q-31 10 -70 10q-83 0 -129.5 -43.5
t-46.5 -132.5zM486 211v268q0 91 -51 137l-194 -558q33 -11 71 -11q34 0 64 8.5t55 27t40 51.5t15 77z" />
    <glyph glyph-name="Ugrave" unicode="&#xd9;" horiz-adv-x="627" 
d="M361 784h-45l-74 116h67zM554 701v-489q0 -59 -21.5 -104.5t-57 -70t-75.5 -36.5t-85 -12q-44 0 -84.5 12t-76.5 36.5t-57.5 70t-21.5 104.5v489h65v-489q0 -35 10 -64t27 -47t40 -30.5t47.5 -17.5t50.5 -5q34 0 63.5 8.5t55 27t40 51.5t14.5 77v489h66z" />
    <glyph glyph-name="Uacute" unicode="&#xda;" horiz-adv-x="627" 
d="M313 782h-45l52 117h67zM554 701v-489q0 -48 -14.5 -87t-37.5 -63.5t-54.5 -41.5t-64.5 -24t-68 -7q-44 0 -84.5 12t-76.5 36.5t-57.5 70t-21.5 104.5v489h65v-489q0 -44 15 -77t41 -51.5t55.5 -27t63.5 -8.5t63.5 8.5t55 27t40 51.5t14.5 77v489h66z" />
    <glyph glyph-name="Ucircumflex" unicode="&#xdb;" horiz-adv-x="627" 
d="M475 771h-60l-100 106l-104 -106h-59l131 137h64zM554 701v-489q0 -59 -21.5 -104.5t-57 -70t-75.5 -36.5t-85 -12q-44 0 -84.5 12t-76.5 36.5t-57.5 70t-21.5 104.5v489h65v-489q0 -44 15 -77t41 -51.5t55.5 -27t63.5 -8.5t63.5 8.5t55 27t40 51.5t14.5 77v489h66z" />
    <glyph glyph-name="Udieresis" unicode="&#xdc;" horiz-adv-x="627" 
d="M226 866q9 0 16.5 -4.5t11.5 -12t4 -16.5t-4 -17t-11.5 -12.5t-16.5 -4.5q-14 0 -24 10t-10 24q0 9 4.5 16.5t12.5 12t17 4.5zM403 866q9 0 16.5 -4.5t11.5 -12t4 -16.5t-4 -17t-11.5 -12.5t-16.5 -4.5q-14 0 -24 10t-10 24q0 9 4.5 16.5t12.5 12t17 4.5zM554 701v-489
q0 -59 -21.5 -104.5t-57 -70t-75.5 -36.5t-85 -12q-44 0 -84.5 12t-76.5 36.5t-57.5 70t-21.5 104.5v489h65v-489q0 -44 15 -77t41 -51.5t55.5 -27t63.5 -8.5t63.5 8.5t55 27t40 51.5t14.5 77v489h66z" />
    <glyph glyph-name="Yacute" unicode="&#xdd;" horiz-adv-x="580" 
d="M290 782h-45l52 117h67zM322 337v-337h-65v335l-226 365h76l182 -300l182 300h78z" />
    <glyph glyph-name="Thorn" unicode="&#xde;" horiz-adv-x="606" 
d="M155 554h193q92 0 144.5 -55.5t52.5 -136.5q0 -97 -52 -149.5t-147 -52.5h-191v-160h-66v700h66v-146zM155 495v-276h190q67 0 102 36.5t35 106.5q0 57 -35.5 95t-99.5 38h-192z" />
    <glyph glyph-name="germandbls" unicode="&#xdf;" horiz-adv-x="570" 
d="M86 0v525q0 84 53 134t148 50q48 0 86 -12.5t62.5 -35.5t37 -54.5t12.5 -70.5q0 -36 -14.5 -66.5t-34 -47.5t-42.5 -26q49 -16 87.5 -64t38.5 -118q0 -90 -60.5 -152t-155.5 -62h-102v59h102q66 0 108.5 43t42.5 112q0 43 -20.5 78t-54 54.5t-72.5 20.5h-10v57h9
q45 2 79 34t34 81q0 111 -134 111q-65 0 -100 -34t-35 -88v-528h-65z" />
    <glyph glyph-name="agrave" unicode="&#xe0;" horiz-adv-x="505" 
d="M311 583h-45l-74 117h67zM109 427l-33 35q58 47 154 47q55 0 94.5 -12.5t61.5 -31t35 -48t16.5 -56t3.5 -62.5v-301h-51l-1 26q-63 -35 -143 -35q-43 1 -77.5 10.5t-63 29t-44.5 53.5t-16 81q0 169 214 169q46 0 119 -10q-1 30 -6.5 51t-21 41.5t-47 31t-79.5 10.5
q-69 0 -115 -29zM378 70v206q-67 9 -110 9q-36 0 -64 -5.5t-51.5 -18.5t-36 -38t-12.5 -60q0 -123 151 -123q68 0 123 30z" />
    <glyph glyph-name="aacute" unicode="&#xe1;" horiz-adv-x="505" 
d="M262 583h-45l52 117h67zM109 427l-33 35q58 47 154 47q55 0 94.5 -12.5t61.5 -31t35 -48t16.5 -56t3.5 -62.5v-301h-51l-1 26q-63 -35 -143 -35q-43 1 -77.5 10.5t-63 29t-44.5 53.5t-16 81q0 169 214 169q46 0 119 -10q-1 30 -6.5 51t-21 41.5t-47 31t-79.5 10.5
q-69 0 -115 -29zM378 70v206q-67 9 -110 9q-36 0 -64 -5.5t-51.5 -18.5t-36 -38t-12.5 -60q0 -123 151 -123q68 0 123 30z" />
    <glyph glyph-name="acircumflex" unicode="&#xe2;" horiz-adv-x="505" 
d="M420 572h-60l-100 106l-103 -106h-60l131 137h65zM109 427l-33 35q58 47 154 47q55 0 94.5 -12.5t61.5 -31t35 -48t16.5 -56t3.5 -62.5v-301h-51l-1 26q-63 -35 -143 -35q-43 1 -77.5 10.5t-63 29t-44.5 53.5t-16 81q0 169 214 169q46 0 119 -10q-1 30 -6.5 51t-21 41.5
t-47 31t-79.5 10.5q-69 0 -115 -29zM378 70v206q-67 9 -110 9q-36 0 -64 -5.5t-51.5 -18.5t-36 -38t-12.5 -60q0 -123 151 -123q68 0 123 30z" />
    <glyph glyph-name="atilde" unicode="&#xe3;" horiz-adv-x="505" 
d="M118 605l-24 34q51 54 101 54q27 0 70 -21t65 -21q33 0 68 36l24 -34q-47 -43 -91 -43q-27 0 -70.5 20t-66.5 20q-36 0 -76 -45zM109 427l-33 35q58 47 154 47q55 0 94.5 -12.5t61.5 -31t35 -48t16.5 -56t3.5 -62.5v-301h-51l-1 26q-63 -35 -143 -35q-43 1 -77.5 10.5
t-63 29t-44.5 53.5t-16 81q0 169 214 169q46 0 119 -10q-1 30 -6.5 51t-21 41.5t-47 31t-79.5 10.5q-69 0 -115 -29zM378 70v206q-67 9 -110 9q-36 0 -63.5 -5.5t-51.5 -18.5t-36.5 -38t-12.5 -60q0 -122 151 -122q68 0 123 29z" />
    <glyph glyph-name="adieresis" unicode="&#xe4;" horiz-adv-x="505" 
d="M171 667q14 0 23.5 -9.5t9.5 -23.5q0 -7 -2.5 -13t-7 -10.5t-10.5 -7.5t-13 -3q-14 0 -23.5 10t-9.5 24t9.5 23.5t23.5 9.5zM348 667q14 0 23.5 -9.5t9.5 -23.5t-9.5 -24t-23.5 -10t-23.5 10t-9.5 24t9.5 23.5t23.5 9.5zM109 427l-33 35q58 47 154 47q55 0 94.5 -12.5
t61.5 -31t35 -48t16.5 -56t3.5 -62.5v-301h-51l-1 26q-63 -35 -143 -35q-34 1 -62.5 6.5t-54.5 18.5t-44.5 32.5t-29 49t-10.5 67.5q0 169 214 169q46 0 119 -10q-1 30 -6.5 51t-21 41.5t-47 31t-79.5 10.5q-69 0 -115 -29zM378 70v206q-67 9 -110 9q-36 0 -64 -5.5
t-51.5 -18.5t-36 -38t-12.5 -60q0 -122 151 -122q68 0 123 29z" />
    <glyph glyph-name="aring" unicode="&#xe5;" horiz-adv-x="505" 
d="M258 772q47 0 81.5 -34.5t34.5 -81.5q0 -46 -34.5 -80.5t-81.5 -34.5t-81.5 34.5t-34.5 80.5q0 47 34.5 81.5t81.5 34.5zM258 734q-33 0 -56 -22.5t-23 -55.5t23 -56t56 -23q32 0 55 23t23 56t-23 55.5t-55 22.5zM109 427l-33 35q58 47 154 47q55 0 94.5 -12.5t61.5 -31
t35 -48t16.5 -56t3.5 -62.5v-301h-51l-1 26q-63 -35 -143 -35q-34 1 -62.5 6.5t-54.5 18.5t-44.5 32.5t-29 49t-10.5 67.5q0 169 214 169q46 0 119 -10q-1 30 -6.5 51t-21 41.5t-47 31t-79.5 10.5q-69 0 -115 -29zM378 70v206q-67 9 -110 9q-36 0 -64 -5.5t-51.5 -18.5
t-36 -38t-12.5 -60q0 -122 151 -122q68 0 123 29z" />
    <glyph glyph-name="ae" unicode="&#xe6;" horiz-adv-x="821" 
d="M109 427l-33 35q58 47 154 47q148 0 188 -92q20 45 65 69t107 24q89 0 136 -47.5t47 -131.5v-102h-316v-84q0 -52 33.5 -79.5t87.5 -27.5q70 0 138 42l34 -32q-34 -28 -78 -43t-99 -16q-92 0 -132 53v-44h-51l-1 26q-62 -35 -143 -35q-42 0 -77 9t-63.5 29t-44.5 54.5
t-16 81.5q0 169 214 169q46 0 119 -10v6q-1 22 -4.5 39t-13.5 34.5t-26.5 29t-44 18.5t-65.5 7q-69 0 -115 -29zM714 273v60q0 34 -11 59.5t-29.5 39.5t-39.5 20.5t-45 6.5q-56 0 -93.5 -31t-37.5 -97v-58h256zM378 70v206q-67 9 -110 9q-28 0 -51.5 -3t-45 -11.5t-36 -22
t-23 -35.5t-8.5 -50q0 -122 151 -122q68 0 123 29z" />
    <glyph glyph-name="ccedilla" unicode="&#xe7;" horiz-adv-x="446" 
d="M52 194v112q0 98 53 151t142 53q90 0 151 -62l-47 -25q-47 34 -104 34q-59 0 -95.5 -38t-36.5 -113v-112q0 -75 36.5 -113t95.5 -38q57 0 104 35l47 -25q-56 -47 -122 -57q-21 -5 -42 -5l-29 -40q19 8 38 8q6 0 11 -1q36 -1 60.5 -21t24.5 -58q0 -34 -20.5 -56t-47.5 -30
t-60 -8q-41 0 -103 23l14 33q38 -21 85 -23q36 0 61 15t25 44q0 23 -16 36t-42 13q-32 0 -75 -19l-13 15l53 73q-69 13 -108.5 64t-39.5 135z" />
    <glyph glyph-name="egrave" unicode="&#xe8;" horiz-adv-x="477" 
d="M298 583h-45l-74 117h67zM52 152v177q0 85 52 133t143 48q89 0 136 -47.5t47 -131.5v-102h-316v-83q0 -107 121 -107q78 0 137 40l35 -31q-72 -59 -176 -59q-86 0 -132.5 43.5t-46.5 119.5zM371 273v60q0 66 -36.5 96t-89.5 30q-55 0 -92.5 -31t-37.5 -97v-58h256z" />
    <glyph glyph-name="eacute" unicode="&#xe9;" horiz-adv-x="477" 
d="M241 583h-45l52 117h67zM52 152v177q0 85 52 133t143 48q89 0 136 -47.5t47 -131.5v-102h-316v-83q0 -107 121 -107q78 0 137 40l35 -31q-72 -59 -176 -59q-86 0 -132.5 43.5t-46.5 119.5zM371 273v60q0 66 -36.5 96t-89.5 30q-55 0 -92.5 -31t-37.5 -97v-58h256z" />
    <glyph glyph-name="ecircumflex" unicode="&#xea;" horiz-adv-x="477" 
d="M403 572h-60l-100 106l-103 -106h-60l132 137h64zM52 152v177q0 57 24 98t67.5 62t103 21t101 -22t62 -62t20.5 -95v-102h-316v-83q0 -107 121 -107q78 0 137 40l35 -31q-72 -59 -176 -59q-86 0 -132.5 43.5t-46.5 119.5zM371 273v60q0 66 -36.5 96t-89.5 30
q-55 0 -92.5 -31t-37.5 -97v-58h256z" />
    <glyph glyph-name="edieresis" unicode="&#xeb;" horiz-adv-x="477" 
d="M154 667q9 0 16.5 -4.5t12 -12t4.5 -16.5t-4.5 -17t-12 -12.5t-16.5 -4.5q-14 0 -23.5 10t-9.5 24q0 6 2.5 12.5t7 11t11 7t12.5 2.5zM331 667q9 0 16.5 -4.5t12 -12t4.5 -16.5t-4.5 -17t-12 -12.5t-16.5 -4.5q-14 0 -23.5 10t-9.5 24q0 9 4.5 16.5t12 12t16.5 4.5z
M52 152v177q0 57 24 98t67.5 62t103 21t101 -22t62 -62t20.5 -95v-102h-316v-83q0 -107 121 -107q78 0 137 40l35 -31q-72 -59 -176 -59q-86 0 -132.5 43.5t-46.5 119.5zM371 273v60q0 66 -36.5 96t-89.5 30q-55 0 -92.5 -31t-37.5 -97v-58h256z" />
    <glyph glyph-name="igrave" unicode="&#xec;" horiz-adv-x="154" 
d="M130 583h-45l-74 117h67zM110 0h-63v501h63v-501z" />
    <glyph glyph-name="iacute" unicode="&#xed;" horiz-adv-x="156" 
d="M76 583h-46l53 117h67zM110 0h-63v501h63v-501z" />
    <glyph glyph-name="icircumflex" unicode="&#xee;" horiz-adv-x="154" 
d="M241 572h-60l-100 106l-103 -106h-60l132 137h64zM110 0h-63v501h63v-501z" />
    <glyph glyph-name="idieresis" unicode="&#xef;" horiz-adv-x="154" 
d="M-8 667q14 0 23.5 -9.5t9.5 -23.5t-9.5 -24t-23.5 -10q-7 0 -13.5 3t-11 7.5t-7 10.5t-2.5 13q0 14 10 23.5t24 9.5zM170 667q8 0 15.5 -4.5t12 -12t4.5 -16.5t-4.5 -17t-12 -12.5t-16.5 -4.5q-14 0 -23.5 10t-9.5 24q0 9 4.5 16.5t12 12t17.5 4.5zM110 0h-63v501h63
v-501z" />
    <glyph glyph-name="eth" unicode="&#xf0;" horiz-adv-x="575" 
d="M484 688l-52 -51q36 -36 53.5 -83.5t17.5 -96.5v-248q0 -92 -64.5 -156.5t-158 -64.5t-158.5 64.5t-65 156.5q0 89 64 151t157 62q48 0 93 -23t72 -73v134q0 78 -50 129l-56 -57l-26 26l54 54q-45 33 -112 33q-84 0 -138 -47l-39 44q72 61 176 61q89 0 151 -44l56 55z
M281 367q-46 0 -83 -21t-57.5 -57.5t-20.5 -80.5q0 -68 46 -114.5t115 -46.5q45 0 81.5 21.5t57 58t20.5 81.5q-1 70 -46.5 114.5t-112.5 44.5z" />
    <glyph glyph-name="ntilde" unicode="&#xf1;" horiz-adv-x="521" 
d="M124 605l-25 34q51 54 102 54q26 0 69.5 -21t64.5 -21q33 0 68 36l24 -34q-46 -43 -91 -43q-26 0 -70 20t-67 20q-36 0 -75 -45zM120 501l1 -26q64 34 144 34q39 0 72 -9t60.5 -28t43.5 -53t16 -79v-340h-63v337q0 62 -37.5 92t-99.5 30q-69 0 -125 -28v-431h-63v501h51z
" />
    <glyph glyph-name="ograve" unicode="&#xf2;" horiz-adv-x="495" 
d="M305 583h-45l-74 117h67zM52 188v124q0 96 51 147.5t146 51.5q93 0 143.5 -53.5t50.5 -145.5v-124q0 -39 -11 -73t-33 -62.5t-60.5 -45t-89.5 -16.5q-41 0 -74.5 11t-56 29.5t-37.5 44t-22 53.5t-7 59zM380 188v124q0 27 -5.5 50t-16.5 41t-26.5 30.5t-36.5 19t-46 6.5
q-134 0 -134 -147v-124q0 -62 33.5 -103.5t100.5 -41.5q66 0 98.5 41t32.5 104z" />
    <glyph glyph-name="oacute" unicode="&#xf3;" horiz-adv-x="495" 
d="M254 583h-46l52 117h67zM52 188v124q0 96 51 147.5t146 51.5q93 0 143.5 -53.5t50.5 -145.5v-124q0 -39 -11 -73t-33 -62.5t-60.5 -45t-89.5 -16.5q-41 0 -74.5 11t-56 29.5t-37.5 44t-22 53.5t-7 59zM380 188v124q0 27 -5.5 50t-16.5 41t-26.5 30.5t-36.5 19t-46 6.5
q-134 0 -134 -147v-124q0 -62 33.5 -103.5t100.5 -41.5q66 0 98.5 41t32.5 104z" />
    <glyph glyph-name="ocircumflex" unicode="&#xf4;" horiz-adv-x="495" 
d="M410 572h-60l-100 106l-103 -106h-60l132 137h64zM52 188v124q0 64 22.5 108.5t67 67.5t107.5 23q93 0 143.5 -53.5t50.5 -145.5v-124q0 -39 -11 -73t-33 -62.5t-60.5 -45t-89.5 -16.5q-41 0 -74.5 11t-56 29.5t-37.5 44t-22 53.5t-7 59zM380 188v124q0 69 -34.5 108
t-96.5 39q-134 0 -134 -147v-124q0 -62 33.5 -103.5t100.5 -41.5q66 0 98.5 41t32.5 104z" />
    <glyph glyph-name="otilde" unicode="&#xf5;" horiz-adv-x="495" 
d="M109 605l-25 34q51 54 101 54q27 0 70 -21t65 -21q33 0 68 36l24 -34q-47 -43 -91 -43q-26 0 -70 20t-67 20q-36 0 -75 -45zM52 188v124q0 96 51 147.5t146 51.5q93 0 143.5 -53.5t50.5 -145.5v-124q0 -31 -6.5 -59t-21.5 -53.5t-37 -44t-55 -29.5t-74 -11t-74.5 11
t-56 29.5t-37.5 44t-22 53.5t-7 59zM380 188v124q0 46 -15 78.5t-45 50.5t-71 18q-134 0 -134 -147v-124q0 -62 33.5 -103.5t100.5 -41.5q66 0 98.5 41t32.5 104z" />
    <glyph glyph-name="odieresis" unicode="&#xf6;" horiz-adv-x="495" 
d="M162 667q9 0 16 -4.5t11.5 -12t4.5 -16.5t-4.5 -17t-12 -12.5t-16.5 -4.5q-13 0 -23 10t-10 24q0 9 4.5 16.5t12 12t17.5 4.5zM339 667q8 0 15.5 -4.5t12 -12t4.5 -16.5t-4.5 -17t-12 -12.5t-16.5 -4.5q-14 0 -23.5 10t-9.5 24q0 9 4.5 16.5t12 12t17.5 4.5zM52 188v124
q0 64 22.5 108.5t67 67.5t107.5 23q93 0 143.5 -53.5t50.5 -145.5v-124q0 -39 -11 -73t-33 -62.5t-60.5 -45t-89.5 -16.5q-41 0 -74.5 11t-56 29.5t-37.5 44t-22 53.5t-7 59zM380 188v124q0 69 -34.5 108t-96.5 39q-134 0 -134 -147v-124q0 -62 33.5 -103.5t100.5 -41.5
q66 0 98.5 41t32.5 104z" />
    <glyph glyph-name="divide" unicode="&#xf7;" horiz-adv-x="463" 
d="M231.5 535q16.5 0 28.5 -12t12 -28.5t-12 -28.5t-29 -12q-8 0 -15.5 3t-13 8.5t-8.5 13t-3 15.5q0 17 12 29t28.5 12zM413 279h-363v57h363v-57zM231 161q17 0 29 -12t12 -28.5t-12 -28.5t-28.5 -12t-28.5 12t-12 29q0 11 5.5 20t14.5 14.5t20 5.5z" />
    <glyph glyph-name="oslash" unicode="&#xf8;" horiz-adv-x="495" 
d="M375 551l-22 -63q90 -49 90 -176v-124q0 -31 -6.5 -59t-21.5 -53.5t-37 -44t-55 -29.5t-74 -11q-36 0 -66 8l-17 -49h-46l23 66q-46 25 -68.5 71t-22.5 101v124q0 96 51 147.5t146 51.5q34 0 63 -7l17 47h46zM115 312v-124q0 -78 47 -117l132 381q-20 7 -45 7
q-134 0 -134 -147zM380 188v124q0 81 -47 120l-132 -382q22 -7 48 -7q66 0 98.5 41t32.5 104z" />
    <glyph glyph-name="ugrave" unicode="&#xf9;" 
d="M317 583h-45l-74 117h67zM452 0h-51l-1 26q-63 -34 -143 -34q-39 0 -72 9t-61 28t-44 53t-16 79v340h63v-337q0 -62 37.5 -92t100.5 -30q68 0 124 28v431h63v-501z" />
    <glyph glyph-name="uacute" unicode="&#xfa;" 
d="M260 583h-45l52 117h67zM452 0h-51l-1 26q-63 -34 -143 -34q-39 0 -72 9t-61 28t-44 53t-16 79v340h63v-337q0 -62 37.5 -92t100.5 -30q68 0 124 28v431h63v-501z" />
    <glyph glyph-name="ucircumflex" unicode="&#xfb;" 
d="M422 572h-60l-100 106l-103 -106h-60l131 137h64zM452 0h-51l-1 26q-63 -34 -143 -34q-39 0 -72 9t-61 28t-44 53t-16 79v340h63v-337q0 -62 37.5 -92t100.5 -30q68 0 124 28v431h63v-501z" />
    <glyph glyph-name="udieresis" unicode="&#xfc;" 
d="M173 667q9 0 16.5 -4.5t12 -12t4.5 -16.5t-4.5 -17t-12 -12.5t-16.5 -4.5q-14 0 -23.5 10t-9.5 24q0 9 4.5 16.5t12 12t16.5 4.5zM350 667q9 0 16.5 -4.5t12 -12t4.5 -16.5t-4.5 -17t-12 -12.5t-16.5 -4.5q-14 0 -23.5 10t-9.5 24q0 9 4.5 16.5t12 12t16.5 4.5zM452 0
h-51l-1 26q-63 -34 -143 -34q-39 0 -72 9t-61 28t-44 53t-16 79v340h63v-337q0 -62 37.5 -92t100.5 -30q68 0 124 28v431h63v-501z" />
    <glyph glyph-name="yacute" unicode="&#xfd;" horiz-adv-x="521" 
d="M263 583h-45l52 117h67zM452 501v-537q0 -41 -13 -72.5t-36 -51t-53.5 -29t-67.5 -9.5q-97 0 -176 52l25 37q67 -39 136 -39q121 0 122 107v69q-58 -28 -140 -28q-39 0 -71 9t-58 28t-41 52.5t-15 79.5v332h63v-328q0 -125 134 -125q71 0 128 26v427h63z" />
    <glyph glyph-name="thorn" unicode="&#xfe;" horiz-adv-x="529" 
d="M141 699v-219q68 29 138 29q30 0 56 -5.5t50.5 -18t42 -31.5t28 -49t10.5 -68v-176q0 -37 -11 -66.5t-29 -48.5t-43 -31.5t-51.5 -17.5t-55.5 -5q-77 0 -135 29v-196h-63v874h63zM403 164v169q0 125 -134 125q-71 0 -128 -26v-362q56 -28 124 -28q63 0 100.5 30t37.5 92z
" />
    <glyph glyph-name="ydieresis" unicode="&#xff;" horiz-adv-x="521" 
d="M176 667q14 0 23.5 -9.5t9.5 -23.5t-9.5 -24t-23.5 -10t-23.5 10t-9.5 24t9.5 23.5t23.5 9.5zM353 667q14 0 23 -9.5t9 -23.5t-9.5 -24t-22.5 -10q-14 0 -24 10t-10 24t10 23.5t24 9.5zM452 501v-537q0 -41 -13 -72.5t-36 -51t-53.5 -29t-67.5 -9.5q-97 0 -176 52l25 37
q67 -39 136 -39q121 0 122 107v69q-58 -28 -140 -28q-39 0 -71 9t-58 28t-41 52.5t-15 79.5v332h63v-328q0 -125 134 -125q71 0 128 26v427h63z" />
    <glyph glyph-name="Amacron" unicode="&#x100;" horiz-adv-x="604" 
d="M420 812h-236v38h236v-38zM572 0h-68l-81 241h-243l-81 -241h-68l240 700h61zM196 299h211l-105 313z" />
    <glyph glyph-name="amacron" unicode="&#x101;" horiz-adv-x="505" 
d="M375 610h-235v38h235v-38zM109 427l-33 35q58 47 154 47q55 0 94.5 -12.5t61.5 -31t35 -48t16.5 -56t3.5 -62.5v-301h-51l-1 26q-63 -35 -143 -35q-34 1 -62.5 6.5t-54.5 18.5t-44.5 32.5t-29 49t-10.5 67.5q0 169 214 169q46 0 119 -10q-1 30 -6.5 51t-21 41.5t-47 31
t-79.5 10.5q-69 0 -115 -29zM378 70v206q-67 9 -110 9q-36 0 -64 -5.5t-51.5 -18.5t-36 -38t-12.5 -60q0 -122 151 -122q68 0 123 29z" />
    <glyph glyph-name="Abreve" unicode="&#x102;" horiz-adv-x="604" 
d="M397 904h36q0 -55 -38 -91.5t-92.5 -36.5t-92.5 36.5t-38 91.5h35q2 -37 28.5 -63.5t66.5 -26.5t67 26.5t28 63.5zM572 0h-68l-81 241h-243l-81 -241h-68l240 700h61zM196 299h211l-105 313z" />
    <glyph glyph-name="abreve" unicode="&#x103;" horiz-adv-x="505" 
d="M353 705h35q0 -55 -38 -91.5t-92.5 -36.5t-92.5 36.5t-38 91.5h36q1 -37 28 -63.5t67 -26.5q26 0 47.5 12.5t34 33t13.5 44.5zM109 427l-33 35q58 47 154 47q55 0 94.5 -12.5t61.5 -31t35 -48t16.5 -56t3.5 -62.5v-301h-51l-1 26q-63 -35 -143 -35q-43 1 -77.5 10.5
t-63 29t-44.5 53.5t-16 81q0 169 214 169q46 0 119 -10q-1 30 -6.5 51t-21 41.5t-47 31t-79.5 10.5q-69 0 -115 -29zM378 70v206q-67 9 -110 9q-28 0 -51.5 -3t-45 -11.5t-36 -22t-23 -35.5t-8.5 -50q0 -122 151 -122q68 0 123 29z" />
    <glyph glyph-name="Aogonek" unicode="&#x104;" horiz-adv-x="648" 
d="M572 0l-33 -5q-70 -55 -70 -105q0 -27 16 -41.5t41 -14.5q47 0 76 43l29 -13q-19 -31 -49 -48t-66 -17q-37 0 -65 21.5t-28 65.5q0 59 81 114l-81 240h-243l-81 -240h-68l240 700h61zM196 299h211l-105 313z" />
    <glyph glyph-name="aogonek" unicode="&#x105;" horiz-adv-x="505" 
d="M109 427l-33 35q58 47 154 47q55 0 94.5 -12.5t61.5 -31t35 -48t16.5 -56t3.5 -62.5v-301l-16 -4q-66 -55 -66 -105q0 -29 16.5 -43t43.5 -14q43 0 72 43l30 -13q-19 -31 -49 -48t-66 -17q-23 0 -43.5 8t-35 28t-14.5 50q0 61 77 115l-1 26q-63 -35 -143 -35
q-43 1 -77.5 10.5t-63 29t-44.5 53.5t-16 81q0 169 214 169q46 0 119 -10q-1 30 -6.5 51t-21 41.5t-47 31t-79.5 10.5q-69 0 -115 -29zM378 70v206q-67 9 -110 9q-36 0 -64 -5.5t-51.5 -18.5t-36 -38t-12.5 -60q0 -122 151 -122q68 0 123 29z" />
    <glyph glyph-name="Cacute" unicode="&#x106;" horiz-adv-x="562" 
d="M300 784h-46l52 117h67zM72 224v258q0 114 65.5 174.5t174.5 60.5q73 0 125 -29t78 -81l-48 -24q-44 75 -150 75q-82 0 -131 -45t-49 -132v-257q0 -86 49 -131t131 -45q106 0 150 75l48 -24q-26 -52 -78 -81t-125 -29q-109 0 -174.5 60.5t-65.5 174.5z" />
    <glyph glyph-name="cacute" unicode="&#x107;" horiz-adv-x="446" 
d="M224 583h-46l53 117h67zM52 194v112q0 98 53 151t142 53q90 0 151 -62l-47 -25q-47 34 -104 34q-59 0 -95.5 -38t-36.5 -113v-112q0 -75 36.5 -113t95.5 -38q57 0 104 35l47 -25q-61 -62 -151 -62q-89 0 -142 52.5t-53 150.5z" />
    <glyph glyph-name="Cdotaccent" unicode="&#x10a;" horiz-adv-x="562" 
d="M301 866q14 0 23.5 -9.5t9.5 -23.5q0 -7 -3 -13t-7 -10.5t-10 -7.5t-13 -3q-14 0 -24 10t-10 24t10 23.5t24 9.5zM72 224v258q0 114 65.5 174.5t174.5 60.5q49 0 89 -13.5t68.5 -37.5t45.5 -59l-48 -24q-44 75 -150 75q-82 0 -131 -45t-49 -132v-257q0 -86 49 -131
t131 -45q106 0 150 75l48 -24q-26 -52 -78 -81t-125 -29q-109 0 -174.5 60.5t-65.5 174.5z" />
    <glyph glyph-name="cdotaccent" unicode="&#x10b;" horiz-adv-x="446" 
d="M224 667q14 0 23 -9.5t9 -23.5t-9.5 -24t-22.5 -10q-9 0 -17 4.5t-12.5 12.5t-4.5 17q0 14 10 23.5t24 9.5zM52 194v112q0 66 25 112.5t68.5 69t101.5 22.5q90 0 151 -62l-47 -25q-47 34 -104 34q-59 0 -95.5 -38t-36.5 -113v-112q0 -75 36.5 -113t95.5 -38q57 0 104 35
l47 -25q-61 -62 -151 -62q-58 0 -101.5 22.5t-68.5 69t-25 111.5z" />
    <glyph glyph-name="Ccaron" unicode="&#x10c;" horiz-adv-x="562" 
d="M314 774h-65l-131 137h60l103 -107l100 107h60zM72 224v258q0 114 65.5 174.5t174.5 60.5q49 0 89 -13.5t68.5 -37.5t45.5 -59l-48 -24q-44 75 -150 75q-82 0 -131 -45t-49 -132v-257q0 -86 49 -131t131 -45q106 0 150 75l48 -24q-26 -52 -78 -81t-125 -29
q-109 0 -174.5 60.5t-65.5 174.5z" />
    <glyph glyph-name="ccaron" unicode="&#x10d;" horiz-adv-x="446" 
d="M258 575h-64l-132 137h60l103 -107l100 107h60zM52 194v112q0 66 25 112.5t68.5 69t101.5 22.5q90 0 151 -62l-47 -25q-47 34 -104 34q-59 0 -95.5 -38t-36.5 -113v-112q0 -75 36.5 -113t95.5 -38q57 0 104 35l47 -25q-61 -62 -151 -62q-58 0 -101.5 22.5t-68.5 69
t-25 111.5z" />
    <glyph glyph-name="Dcaron" unicode="&#x10e;" horiz-adv-x="637" 
d="M353 774h-65l-131 137h60l103 -107l100 107h60zM89 700h233q117 0 179.5 -65t62.5 -169v-257q0 -58 -18 -100t-50 -65t-70 -33.5t-85 -10.5h-252v700zM155 641v-582h186q75 0 116.5 33.5t41.5 116.5v257q0 81 -45 128t-132 47h-167z" />
    <glyph glyph-name="dcaron" unicode="&#x10f;" horiz-adv-x="593" 
d="M512 645l21 61q-16 11 -16 30q0 15 11.5 26.5t26.5 11.5t26.5 -11.5t11.5 -26.5q0 -9 -5 -17l-34 -74h-42zM440 0h-51l-1 26q-61 -34 -143 -34q-38 0 -71.5 9t-61.5 28t-44 52.5t-16 79.5v177q0 47 16 81.5t43 53.5t59 27.5t69 8.5q70 0 138 -28v219h63v-700zM377 71v362
q-57 26 -128 26q-134 0 -134 -125v-174q0 -59 38.5 -88t99.5 -29q69 0 124 28z" />
    <glyph glyph-name="Dcroat" unicode="&#x110;" horiz-adv-x="646" 
d="M102 700h233q117 0 179.5 -65t62.5 -169v-257q0 -58 -18 -100t-50 -65t-70.5 -33.5t-84.5 -10.5h-252v331h-91v38h91v331zM167 641v-272h169v-38h-169v-272h187q75 0 116.5 33.5t41.5 116.5v257q0 81 -45 128t-132 47h-168z" />
    <glyph glyph-name="dcroat" unicode="&#x111;" horiz-adv-x="527" 
d="M440 623h59v-38h-59v-585h-51l-1 26q-61 -34 -143 -34q-38 0 -71.5 9t-61.5 28t-44 52.5t-16 79.5v177q0 47 16 81.5t43 53.5t59 27.5t69 8.5q70 0 138 -28v104h-134v38h134v77h63v-77zM377 71v362q-57 26 -128 26q-134 0 -134 -125v-174q0 -59 38.5 -88t99.5 -29
q69 0 124 28z" />
    <glyph glyph-name="Emacron" unicode="&#x112;" horiz-adv-x="571" 
d="M425 812h-236v38h236v-38zM519 641h-365v-262h338v-59h-338v-261h370v-59h-435v700h430v-59z" />
    <glyph glyph-name="emacron" unicode="&#x113;" horiz-adv-x="477" 
d="M358 618h-235v38h235v-38zM52 152v177q0 85 52 133t143 48q89 0 136 -47.5t47 -131.5v-102h-316v-83q0 -107 121 -107q78 0 137 40l35 -31q-72 -59 -176 -59q-86 0 -132.5 43.5t-46.5 119.5zM371 273v60q0 66 -36.5 96t-89.5 30q-55 0 -92.5 -31t-37.5 -97v-58h256z" />
    <glyph glyph-name="Edotaccent" unicode="&#x116;" horiz-adv-x="571" 
d="M290 865q14 0 23.5 -9.5t9.5 -23.5q0 -13 -9.5 -23t-23.5 -10q-9 0 -17 4.5t-12.5 12t-4.5 16.5q0 14 10 23.5t24 9.5zM519 641h-364v-262h337v-59h-337v-261h370v-59h-436v700h430v-59z" />
    <glyph glyph-name="edotaccent" unicode="&#x117;" horiz-adv-x="477" 
d="M242 667q8 0 15.5 -4.5t12 -12t4.5 -16.5t-4.5 -17t-12 -12.5t-16.5 -4.5q-14 0 -23.5 10t-9.5 24q0 9 4.5 16.5t12 12t17.5 4.5zM52 152v177q0 57 24 98t67.5 62t103 21t101 -22t62 -62t20.5 -95v-102h-316v-83q0 -107 121 -107q78 0 137 40l35 -31q-72 -59 -176 -59
q-86 0 -132.5 43.5t-46.5 119.5zM371 273v60q0 66 -36.5 96t-89.5 30q-55 0 -92.5 -31t-37.5 -97v-58h256z" />
    <glyph glyph-name="Eogonek" unicode="&#x118;" horiz-adv-x="603" 
d="M519 641h-364v-261h337v-59h-337v-261h370v-59h-90q-2 -2 -17 -15.5t-28 -26.5t-24.5 -33t-11.5 -37q0 -28 16 -42.5t41 -15.5q46 0 75 44l29 -14q-18 -30 -48.5 -47t-65.5 -17q-37 0 -65 21t-28 65q0 9 2 17.5t6 17t9 16.5t11 15.5t11.5 13.5t12.5 13t11 10.5t9.5 8.5
t6.5 6h-297v699h429v-59z" />
    <glyph glyph-name="eogonek" unicode="&#x119;" horiz-adv-x="477" 
d="M52 152v176q0 57 24 98t67.5 62.5t103 21.5t101 -22.5t62 -62t20.5 -94.5v-102h-316v-83q0 -107 121 -107q78 0 137 40l35 -32q-37 -29 -83 -44q-69 -56 -69 -105q0 -28 16 -42.5t41 -14.5q46 0 75 43l29 -13q-18 -31 -48 -48t-66 -17q-37 0 -65 21.5t-28 65.5
q0 48 56 98q-14 -1 -27 -1q-59 0 -100.5 19t-63.5 55.5t-22 87.5zM371 273v60q0 66 -36.5 95.5t-89.5 29.5q-55 0 -92.5 -30.5t-37.5 -96.5v-58h256z" />
    <glyph glyph-name="Ecaron" unicode="&#x11a;" horiz-adv-x="571" 
d="M314 774h-64l-131 137h59l104 -107l100 107h59zM519 641h-364v-262h337v-59h-337v-261h370v-59h-436v700h430v-59z" />
    <glyph glyph-name="ecaron" unicode="&#x11b;" horiz-adv-x="477" 
d="M275 575h-64l-131 137h59l104 -107l100 107h59zM52 152v177q0 85 52 133t143 48q89 0 136 -47.5t47 -131.5v-102h-316v-83q0 -107 121 -107q78 0 137 40l35 -31q-72 -59 -176 -59q-86 0 -132.5 43.5t-46.5 119.5zM371 273v60q0 34 -11 59.5t-29.5 39.5t-39.5 20.5
t-46 6.5q-55 0 -92.5 -31t-37.5 -97v-58h256z" />
    <glyph glyph-name="Gbreve" unicode="&#x11e;" horiz-adv-x="633" 
d="M412 904h35q0 -55 -37.5 -91.5t-92.5 -36.5q-36 0 -65.5 16.5t-47 46t-17.5 65.5h35q2 -37 28.5 -63.5t66.5 -26.5t67 26.5t28 63.5zM72 212v269q0 115 65.5 175.5t175.5 60.5q74 0 126.5 -29t78.5 -80l-52 -25q-46 75 -151 75q-84 0 -131 -44t-47 -133v-269
q0 -35 10.5 -64t27 -47t39.5 -30.5t47.5 -17.5t50.5 -5q34 0 63.5 8.5t54.5 27t39.5 51.5t14.5 77v104h-132v56h197v-372h-51l-2 87q-26 -50 -77.5 -74t-112.5 -24q-43 0 -83 12.5t-74.5 38t-55.5 70t-21 102.5z" />
    <glyph glyph-name="gbreve" unicode="&#x11f;" horiz-adv-x="509" 
d="M350 705h35q0 -55 -37.5 -91.5t-92.5 -36.5t-92.5 36.5t-37.5 91.5h35q1 -37 28 -63.5t67 -26.5q26 0 48 12.5t34 33t13 44.5zM52 169v171q0 46 16.5 80t45 52.5t61 27.5t70.5 9q81 0 143 -35l1 26h51v-536q0 -54 -22.5 -91.5t-60 -54t-87.5 -16.5q-95 0 -177 52l26 37
q66 -39 135 -39q59 0 90.5 25t32.5 82v69q-59 -28 -140 -28q-39 0 -71 9t-58 28t-41 52.5t-15 79.5zM377 74v356q-55 28 -123 28q-62 0 -100.5 -29.5t-38.5 -87.5v-168q0 -125 134 -125q71 0 128 26z" />
    <glyph glyph-name="Gdotaccent" unicode="&#x120;" horiz-adv-x="633" 
d="M306 867q13 0 22.5 -9.5t9.5 -23.5t-9.5 -23.5t-22.5 -9.5q-14 0 -24 10t-10 23q0 14 10 23.5t24 9.5zM72 212v269q0 115 65.5 175.5t175.5 60.5q74 0 126.5 -29t78.5 -80l-52 -25q-46 75 -151 75q-84 0 -131 -44t-47 -133v-269q0 -44 15.5 -77t41 -51.5t55.5 -27
t63 -8.5q34 0 63.5 8.5t54.5 27t39.5 51.5t14.5 77v104h-132v56h197v-372h-51l-2 87q-26 -50 -77.5 -74t-112.5 -24q-43 0 -83 12.5t-74.5 38t-55.5 70t-21 102.5z" />
    <glyph glyph-name="gdotaccent" unicode="&#x121;" horiz-adv-x="509" 
d="M256 667q13 0 22.5 -9.5t9.5 -23.5t-9.5 -24t-23.5 -10t-23.5 10t-9.5 24t9.5 23.5t24.5 9.5zM52 169v171q0 46 16.5 80t45 52.5t61 27.5t70.5 9q81 0 143 -35l1 26h51v-536q0 -54 -22.5 -91.5t-60 -54t-87.5 -16.5q-95 0 -177 52l26 37q66 -39 135 -39q59 0 90.5 25
t32.5 82v69q-59 -28 -140 -28q-39 0 -71 9t-58 28t-41 52.5t-15 79.5zM377 74v356q-55 28 -123 28q-41 0 -71 -12t-49 -39t-19 -66v-168q0 -125 134 -125q71 0 128 26z" />
    <glyph glyph-name="Gcommaaccent" unicode="&#x122;" horiz-adv-x="633" 
d="M72 212v269q0 115 65.5 175.5t175.5 60.5q74 0 126.5 -29t78.5 -80l-52 -25q-46 75 -151 75q-84 0 -131 -44t-47 -133v-269q0 -35 10.5 -64t27 -47t39.5 -30.5t47.5 -17.5t50.5 -5q34 0 63.5 8.5t54.5 27t39.5 51.5t14.5 77v104h-132v56h197v-372h-51l-2 87
q-26 -50 -77.5 -74t-112.5 -24q-43 0 -83 12.5t-74.5 38t-55.5 70t-21 102.5zM275 -198l17 47q-13 10 -13 23q0 11 8.5 19t19.5 8t19 -8t8 -19q0 -6 -3 -12l-27 -58h-29z" />
    <glyph glyph-name="gcommaaccent" unicode="&#x123;" horiz-adv-x="509" 
d="M296 700l-17 -47q12 -9 12 -23q0 -11 -8 -19t-19 -8t-19.5 8t-8.5 19q0 6 4 13l26 57h30zM52 169v171q0 46 16.5 80t45 52.5t61.5 27.5t70 9q81 0 143 -35l1 26h51v-536q0 -41 -13 -72.5t-36 -51t-53.5 -29t-67.5 -9.5q-95 0 -177 52l26 37q66 -39 135 -39q59 0 90.5 25
t32.5 82v69q-59 -28 -140 -28q-82 0 -133.5 40.5t-51.5 128.5zM377 74v356q-55 28 -123 28q-62 0 -100.5 -29.5t-38.5 -87.5v-168q0 -125 134 -125q71 0 128 26z" />
    <glyph glyph-name="Hbar" unicode="&#x126;" horiz-adv-x="680" 
d="M579 545h60v-38h-60v-507h-65v320h-348v-320h-65v507h-59v38h59v155h65v-155h348v155h65v-155zM166 507v-128h348v128h-348z" />
    <glyph glyph-name="hbar" unicode="&#x127;" horiz-adv-x="542" 
d="M153 618h191v-38h-191v-100q60 30 135 30q38 0 70.5 -9t60 -28t43.5 -53t16 -80v-340h-63v337q0 63 -36.5 92.5t-98.5 29.5q-68 0 -127 -28v-431h-63v580h-74v38h74v82h63v-82z" />
    <glyph glyph-name="Imacron" unicode="&#x12a;" horiz-adv-x="244" 
d="M240 817h-236v38h236v-38zM155 0h-66v700h66v-700z" />
    <glyph glyph-name="imacron" unicode="&#x12b;" horiz-adv-x="154" 
d="M195 610h-236v38h236v-38zM110 0h-63v501h63v-501z" />
    <glyph glyph-name="Iogonek" unicode="&#x12e;" horiz-adv-x="244" 
d="M155 700v-700q-78 -60 -78 -110q0 -28 16 -42.5t42 -15.5q45 0 75 44l29 -14q-19 -30 -49 -47t-65 -17q-37 0 -65.5 21.5t-28.5 64.5q0 59 76 112l-18 4v700h66z" />
    <glyph glyph-name="iogonek" unicode="&#x12f;" horiz-adv-x="154" 
d="M79 667q13 0 22.5 -9.5t9.5 -23.5q0 -9 -4 -17t-11.5 -12.5t-16.5 -4.5t-17 4.5t-12.5 12.5t-4.5 17t4.5 16.5t12.5 12t17 4.5zM110 500v-500q-78 -60 -78 -110q0 -28 16.5 -43t40.5 -15q46 0 76 44l29 -14q-19 -30 -49 -47t-66 -17q-23 0 -43 7.5t-35 28t-15 50.5
q0 59 76 112l-15 4v500h63z" />
    <glyph glyph-name="Idotaccent" unicode="&#x130;" horiz-adv-x="244" 
d="M123 867q13 0 22.5 -9.5t9.5 -23.5q0 -13 -9.5 -23t-22.5 -10q-10 0 -17.5 4.5t-12 12t-4.5 16.5q0 10 4.5 17.5t12.5 11.5t17 4zM155 0h-66v700h66v-700z" />
    <glyph glyph-name="dotlessi" unicode="&#x131;" horiz-adv-x="154" 
d="M110 0h-63v501h63v-501z" />
    <glyph glyph-name="IJ" unicode="&#x132;" horiz-adv-x="579" 
d="M155 0h-66v700h66v-700zM529 700v-493q0 -105 -59.5 -160.5t-159.5 -55.5q-13 0 -28 1v59q83 -5 132.5 33.5t49.5 122.5v493h65z" />
    <glyph glyph-name="ij" unicode="&#x133;" horiz-adv-x="425" 
d="M321 710q16 0 25.5 -10t9.5 -25t-9.5 -25.5t-25.5 -10.5t-26 10t-10 26t10.5 25.5t25.5 9.5zM110 710q16 0 25.5 -10t9.5 -25t-9.5 -25.5t-25.5 -10.5q-15 0 -25.5 10t-10.5 26t10.5 25.5t25.5 9.5zM352 501v-561q0 -48 -25.5 -81.5t-70.5 -48.5q-25 -9 -48 -10l-2 52
q22 3 40 11q43 22 43 86v552h63zM141 0h-63v501h63v-501z" />
    <glyph glyph-name="Kcommaaccent" unicode="&#x136;" horiz-adv-x="598" 
d="M278 408l289 -408h-80l-251 356l-81 -98v-258h-66v700h66v-342l282 342h83zM264 -198l16 47q-12 10 -12 23q0 11 8 19t19.5 8t19.5 -8t8 -19q0 -6 -3 -12l-27 -58h-29z" />
    <glyph glyph-name="kcommaaccent" unicode="&#x137;" horiz-adv-x="499" 
d="M137 277l236 231h79l-199 -202l227 -306h-72l-193 263l-78 -72v-191h-63v700h63v-423zM224 -198l17 47q-13 10 -13 23q0 11 8.5 19t19.5 8t19 -8t8 -19q0 -6 -3 -12l-27 -58h-29z" />
    <glyph glyph-name="Lacute" unicode="&#x139;" horiz-adv-x="481" 
d="M156 784h-46l52 117h67zM155 59h293v-59h-359v700h66v-641z" />
    <glyph glyph-name="lacute" unicode="&#x13a;" horiz-adv-x="201" 
d="M131 782h-45l52 117h67zM137 0h-63v700h63v-700z" />
    <glyph glyph-name="Lcommaaccent" unicode="&#x13b;" horiz-adv-x="481" 
d="M155 59h293v-59h-359v700h66v-641zM227 -198l17 47q-12 10 -12 23q0 11 8 19t19 8t19.5 -8t8.5 -19q0 -6 -4 -12l-26 -58h-30z" />
    <glyph glyph-name="lcommaaccent" unicode="&#x13c;" horiz-adv-x="201" 
d="M137 0h-63v700h63v-700zM74 -198l17 47q-12 10 -12 23q0 11 8 19t19.5 8t19.5 -8t8 -19q0 -6 -3 -12l-27 -58h-30z" />
    <glyph glyph-name="Lcaron" unicode="&#x13d;" horiz-adv-x="481" 
d="M306 645l21 61q-16 11 -16 30q0 15 11 26.5t26.5 11.5t27 -11.5t11.5 -26.5q0 -9 -5 -17l-35 -74h-41zM155 59h293v-59h-359v700h66v-641z" />
    <glyph glyph-name="lcaron" unicode="&#x13e;" horiz-adv-x="290" 
d="M210 645l20 61q-15 11 -15 30q0 15 11 26.5t26.5 11.5t26.5 -11.5t11 -26.5q0 -9 -4 -17l-35 -74h-41zM137 0h-63v700h63v-700z" />
    <glyph glyph-name="Ldot" unicode="&#x13f;" horiz-adv-x="481" 
d="M155 59h293v-59h-359v700h66v-641zM313 420q15 0 26.5 -11t11.5 -26.5t-11.5 -26.5t-26.5 -11t-26.5 11t-11.5 26.5t11.5 26.5t26.5 11z" />
    <glyph glyph-name="ldot" unicode="&#x140;" horiz-adv-x="312" 
d="M137 0h-63v700h63v-700zM250 369q15 0 26.5 -11t11.5 -26.5t-11.5 -26.5t-26.5 -11t-26.5 11t-11.5 26.5t11.5 26.5t26.5 11z" />
    <glyph glyph-name="Lslash" unicode="&#x141;" horiz-adv-x="526" 
d="M199 402l137 62l24 -53l-161 -72v-280h294v-59h-359v310l-102 -46l-22 53l124 56v327h65v-298z" />
    <glyph glyph-name="lslash" unicode="&#x142;" horiz-adv-x="356" 
d="M193 402l135 62l25 -53l-160 -72v-339h-66v310l-102 -46l-22 53l124 56v327h66v-298z" />
    <glyph glyph-name="Nacute" unicode="&#x143;" horiz-adv-x="629" 
d="M321 782h-46l53 117h66zM544 0h-67l-327 569v-569h-66v700h65l330 -576v576h65v-700z" />
    <glyph glyph-name="nacute" unicode="&#x144;" horiz-adv-x="521" 
d="M263 583h-45l52 117h67zM120 501l1 -26q64 34 144 34q39 0 72 -9t60.5 -28t43.5 -53t16 -79v-340h-63v337q0 62 -37.5 92t-99.5 30q-69 0 -125 -28v-431h-63v501h51z" />
    <glyph glyph-name="Ncommaaccent" unicode="&#x145;" horiz-adv-x="629" 
d="M544 0h-67l-327 569v-569h-66v700h65l330 -576v576h65v-700zM269 -198l17 47q-12 10 -12 23q0 11 8 19t19 8t19.5 -8t8.5 -19q0 -6 -3 -12l-27 -58h-30z" />
    <glyph glyph-name="ncommaaccent" unicode="&#x146;" horiz-adv-x="521" 
d="M120 501l1 -26q64 34 144 34q39 0 72 -9t60.5 -28t43.5 -53t16 -79v-340h-63v337q0 62 -37.5 92t-99.5 30q-69 0 -125 -28v-431h-63v501h51zM227 -198l17 47q-12 10 -12 23q0 11 8 19t19 8t19.5 -8t8.5 -19q0 -6 -4 -12l-26 -58h-30z" />
    <glyph glyph-name="Ncaron" unicode="&#x147;" horiz-adv-x="629" 
d="M347 774h-64l-131 137h59l104 -107l100 107h60zM544 0h-67l-327 569v-569h-66v700h65l330 -576v576h65v-700z" />
    <glyph glyph-name="ncaron" unicode="&#x148;" horiz-adv-x="521" 
d="M297 575h-64l-131 137h60l103 -107l100 107h60zM120 501l1 -26q64 34 144 34q39 0 72 -9t60.5 -28t43.5 -53t16 -79v-340h-63v337q0 62 -37.5 92t-99.5 30q-69 0 -125 -28v-431h-63v501h51z" />
    <glyph glyph-name="Eng" unicode="&#x14a;" horiz-adv-x="629" 
d="M544 700v-768q0 -45 -23.5 -77t-63.5 -48q-28 -12 -57 -15l-2 52q29 3 47 15q34 23 36 71v62l-331 577v-569h-66v700h65l330 -576v576h65z" />
    <glyph glyph-name="eng" unicode="&#x14b;" horiz-adv-x="523" 
d="M120 501l1 -26q64 34 144 34q39 0 72 -9t60.5 -28t43.5 -53t16 -79v-408q0 -47 -25 -80t-68 -48q-26 -11 -51 -12l-2 52q25 3 42 12q41 23 41 85v396q0 62 -37.5 92t-99.5 30q-69 0 -125 -28v-431h-63v501h51z" />
    <glyph glyph-name="Omacron" unicode="&#x14c;" horiz-adv-x="623" 
d="M429 812h-235v38h235v-38zM72 211v269q0 115 65.5 175t175.5 60q76 0 129.5 -29t81 -82t27.5 -125v-268q0 -60 -21.5 -105t-57 -69.5t-75.5 -36.5t-85 -12q-44 0 -84 12t-76.5 36.5t-58 69.5t-21.5 105zM486 211v268q0 85 -44.5 131t-128 46t-130 -43.5t-46.5 -132.5
v-269q0 -36 10.5 -64.5t27 -47t39.5 -30.5t47.5 -17t50.5 -5q34 0 64 8.5t55 27t40 51.5t15 77z" />
    <glyph glyph-name="omacron" unicode="&#x14d;" horiz-adv-x="495" 
d="M366 610h-236v38h236v-38zM52 188v124q0 64 22.5 108.5t67 67.5t107.5 23q93 0 143.5 -53.5t50.5 -145.5v-124q0 -39 -11 -73t-33 -62.5t-60.5 -45t-89.5 -16.5q-41 0 -74.5 11t-56 29.5t-37.5 44t-22 53.5t-7 59zM380 188v124q0 69 -34.5 108t-96.5 39q-134 0 -134 -147
v-124q0 -62 33.5 -103.5t100.5 -41.5q66 0 98.5 41t32.5 104z" />
    <glyph glyph-name="Ohungarumlaut" unicode="&#x150;" horiz-adv-x="623" 
d="M265 783h-43l50 118h63zM387 783h-43l50 118h63zM72 211v269q0 115 65.5 175t175.5 60q57 0 102 -16.5t74.5 -47.5t45.5 -74.5t16 -97.5v-268q0 -60 -21.5 -105t-57 -69.5t-75.5 -36.5t-85 -12q-44 0 -84 12t-76.5 36.5t-58 69.5t-21.5 105zM486 211v268q0 85 -44.5 131
t-128 46t-130 -43.5t-46.5 -132.5v-269q0 -44 15.5 -77t41 -51.5t55.5 -27t63 -8.5q34 0 64 8.5t55 27t40 51.5t15 77z" />
    <glyph glyph-name="ohungarumlaut" unicode="&#x151;" horiz-adv-x="495" 
d="M199 583h-43l49 117h64zM321 583h-44l50 117h64zM52 188v124q0 96 51 147.5t146 51.5q93 0 143.5 -53.5t50.5 -145.5v-124q0 -39 -11 -73t-33 -62.5t-60.5 -45t-89.5 -16.5t-90 16.5t-61.5 45t-34 62.5t-11.5 73zM380 188v124q0 27 -5.5 50t-16.5 41t-26.5 30.5t-36.5 19
t-46 6.5q-134 0 -134 -147v-124q0 -62 33.5 -103.5t100.5 -41.5q66 0 98.5 41t32.5 104z" />
    <glyph glyph-name="OE" unicode="&#x152;" horiz-adv-x="950" 
d="M47 212v269q0 115 65 175.5t176 60.5q131 0 184 -95v78h434v-59h-369v-262h337v-59h-337v-261h369v-59h-434v79q-19 -31 -50 -52t-64.5 -29.5t-70.5 -8.5q-44 0 -84.5 12t-76.5 36.5t-57.5 70t-21.5 104.5zM460 204v277q0 41 -11 74t-32.5 56t-54 35t-74.5 12
q-83 0 -129.5 -44t-46.5 -133v-269q0 -44 15 -77t41 -51.5t56 -27t63 -8.5q45 0 82.5 15t64 52t26.5 89z" />
    <glyph glyph-name="oe" unicode="&#x153;" horiz-adv-x="805" 
d="M52 187v125q0 95 50.5 147t146.5 52q65 0 106 -26.5t55 -69.5q12 42 54.5 68t109.5 26q89 0 136.5 -47.5t47.5 -131.5v-101h-317v-85q0 -52 34 -79.5t88 -27.5q70 0 137 42l34 -32q-71 -58 -177 -58q-64 0 -103 24t-47 65q-15 -37 -54 -62.5t-104 -25.5q-51 0 -90 16.5
t-61.5 45t-34 63t-11.5 72.5zM380 182v130q0 68 -34.5 107t-96.5 39q-134 0 -134 -146v-125q0 -62 33.5 -103t100.5 -41q65 0 98 40.5t33 98.5zM698 273v59q0 67 -36 96.5t-89 29.5q-36 0 -63.5 -11.5t-47 -41.5t-19.5 -75v-57h255z" />
    <glyph glyph-name="Racute" unicode="&#x154;" horiz-adv-x="615" 
d="M308 782h-46l53 117h67zM89 700h259q92 0 144.5 -55t52.5 -135q0 -85 -41 -134.5t-119 -58.5h-33l202 -317h-77l-193 309h-129v-309h-66v700zM155 641v-273h190q45 0 75.5 16t46 47.5t15.5 78.5q0 56 -35.5 93.5t-99.5 37.5h-192z" />
    <glyph glyph-name="racute" unicode="&#x155;" horiz-adv-x="352" 
d="M177 583h-46l53 117h66zM120 504l2 -73q44 80 153 80q33 0 57 -7l-3 -53q-38 10 -66 7q-32 -1 -56.5 -10.5t-41 -28t-25 -45.5t-8.5 -62v-312h-63v504h51z" />
    <glyph glyph-name="Rcommaaccent" unicode="&#x156;" horiz-adv-x="615" 
d="M89 700h259q92 0 144.5 -55t52.5 -135q0 -85 -41 -134t-118 -57l-34 -2l202 -317h-77l-193 309h-129v-309h-66v700zM155 641v-272h190q45 0 75.5 15.5t46 47.5t15.5 78q0 56 -35.5 93.5t-99.5 37.5h-192zM268 -198l16 47q-12 10 -12 23q0 11 8.5 19t19.5 8t19 -8t8 -19
q0 -6 -3 -12l-27 -58h-29z" />
    <glyph glyph-name="rcommaaccent" unicode="&#x157;" horiz-adv-x="352" 
d="M120 504l2 -73q44 80 153 80q33 0 57 -7l-3 -53q-38 10 -66 7q-32 -1 -56.5 -10.5t-41 -28t-25 -45.5t-8.5 -62v-312h-63v504h51zM68 -198l16 47q-12 10 -12 23q0 11 8 19t19 8q8 0 14 -3.5t10 -10t4 -13.5q0 -6 -3 -12l-27 -58h-29z" />
    <glyph glyph-name="Rcaron" unicode="&#x158;" horiz-adv-x="615" 
d="M342 774h-65l-131 137h60l103 -107l100 107h60zM89 700h259q92 0 144.5 -55t52.5 -135q0 -85 -41 -134.5t-119 -58.5h-33l202 -317h-77l-193 309h-129v-309h-66v700zM155 641v-273h190q45 0 75.5 16t46 47.5t15.5 78.5q0 56 -35.5 93.5t-99.5 37.5h-192z" />
    <glyph glyph-name="rcaron" unicode="&#x159;" horiz-adv-x="352" 
d="M210 575h-64l-131 137h60l103 -107l100 107h60zM120 504l2 -73q44 80 153 80q33 0 57 -7l-3 -53q-38 10 -66 7q-64 -2 -97.5 -39t-33.5 -107v-312h-63v504h51z" />
    <glyph glyph-name="Sacute" unicode="&#x15a;" horiz-adv-x="579" 
d="M290 782h-46l53 117h67zM46 189h62q2 -59 48.5 -99.5t133.5 -40.5q90 0 134.5 38t44.5 104q0 18 -6 33.5t-13.5 27t-24 23t-28.5 18t-36.5 16t-37.5 13.5t-42 13q-43 14 -70 24t-58 26.5t-49 34.5t-30 44.5t-12 58.5q0 89 63.5 138.5t165.5 49.5q101 0 165 -49.5
t66 -138.5h-63q-1 63 -48.5 96t-119.5 33t-118.5 -33t-46.5 -91q0 -18 5.5 -32.5t17 -26.5t25.5 -21.5t36 -18.5t42.5 -16t49.5 -15q55 -16 93.5 -33t71.5 -41t49.5 -57t16.5 -76q0 -90 -59 -146t-182 -56q-113 0 -179 58t-67 142z" />
    <glyph glyph-name="sacute" unicode="&#x15b;" horiz-adv-x="456" 
d="M229 583h-46l53 117h67zM40 133h62q3 -40 35 -66.5t92 -26.5q54 0 87 26t33 67q0 18 -8 33t-18 24.5t-30.5 18.5t-35 13.5t-41.5 12.5q-31 8 -50 14.5t-42.5 18t-37 24.5t-23 33.5t-9.5 46.5q0 59 43 99.5t131 40.5t131 -40t43 -100h-60q0 16 -6.5 30.5t-19 27.5
t-35.5 21t-52 8q-58 0 -85.5 -26t-27.5 -61q0 -34 30.5 -52.5t91.5 -35.5q41 -11 68.5 -21.5t53.5 -27.5t39 -42.5t13 -59.5q0 -41 -19.5 -73t-61 -52.5t-98.5 -20.5q-91 0 -140.5 41.5t-52.5 104.5z" />
    <glyph glyph-name="Scedilla" unicode="&#x15e;" horiz-adv-x="579" 
d="M46 189h62q2 -59 48.5 -99.5t133.5 -40.5q91 0 135 38t44 104q0 18 -6 33.5t-13.5 27t-24 23t-28.5 18t-36.5 16t-37.5 13.5t-42 14q-43 13 -70 23t-58 26.5t-49 34.5t-30 44.5t-12 58.5q0 59 30 102t81 64.5t118 21.5q101 0 165 -49.5t66 -138.5h-63q-1 63 -48.5 96
t-119.5 33t-118.5 -33t-46.5 -91q0 -21 8.5 -38t22.5 -29.5t38.5 -24t48 -20t58.5 -18.5q55 -16 93.5 -33t71.5 -41t49.5 -57t16.5 -76q0 -89 -57.5 -145t-177.5 -57l-27 -38q23 8 46 7q37 0 62 -20t25 -60q0 -26 -11 -45t-30 -29t-40.5 -14.5t-46.5 -4.5q-40 0 -103 23
l15 33q39 -23 88 -23q16 0 30.5 3.5t26.5 10.5t19 19t7 26q0 23 -16.5 36t-42.5 13q-31 0 -74 -20l-13 15l50 69q-101 7 -158.5 64t-58.5 135z" />
    <glyph glyph-name="scedilla" unicode="&#x15f;" horiz-adv-x="456" 
d="M40 133h62q3 -40 35 -66.5t92 -26.5q54 0 87 26t33 67q0 18 -8 33t-18 24.5t-30.5 18.5t-35 13.5t-41.5 12.5q-25 7 -41.5 12t-37.5 13.5t-34 18.5t-25.5 23t-18 30.5t-5.5 39.5q0 59 43 99.5t131 40.5t131 -40t43 -100h-60q0 16 -6.5 30.5t-19 27.5t-35.5 21t-52 8
q-58 0 -85.5 -26t-27.5 -61q0 -34 30.5 -52.5t91.5 -35.5q41 -11 68.5 -21.5t53.5 -27.5t39 -42.5t13 -59.5q0 -49 -30.5 -86.5t-86.5 -50.5q-20 -7 -57 -9l-28 -38q20 8 42 8q39 0 65.5 -20t26.5 -60q0 -34 -20.5 -56t-47.5 -30t-60 -8q-41 0 -103 23l14 33q38 -21 85 -23
q36 0 61 15t25 44q0 23 -16 36t-42 13q-32 0 -75 -19l-13 15l50 69q-77 6 -118 46.5t-44 97.5z" />
    <glyph glyph-name="Scaron" unicode="&#x160;" horiz-adv-x="579" 
d="M324 774h-64l-132 137h60l103 -107l100 107h60zM46 189h62q2 -59 48.5 -99.5t133.5 -40.5q90 0 134.5 38t44.5 104q0 18 -6 33.5t-13.5 27t-24 23t-28.5 18t-36.5 16t-37.5 13.5t-42 13q-43 14 -70 24t-58 26.5t-49 34.5t-30 44.5t-12 58.5q0 89 63.5 138.5t165.5 49.5
q101 0 165 -49.5t66 -138.5h-63q-1 63 -48.5 96t-119.5 33t-118.5 -33t-46.5 -91q0 -18 5.5 -32.5t17 -26.5t25.5 -21.5t36 -18.5t42.5 -16t49.5 -15q55 -16 93.5 -33t71.5 -41t49.5 -57t16.5 -76q0 -90 -59 -146t-182 -56q-113 0 -179 58t-67 142z" />
    <glyph glyph-name="scaron" unicode="&#x161;" horiz-adv-x="456" 
d="M263 575h-64l-132 137h60l103 -107l100 107h60zM40 133h62q3 -40 35 -66.5t92 -26.5q54 0 87 26t33 67q0 18 -8 33t-18 24.5t-30.5 18.5t-35 13.5t-41.5 12.5q-31 8 -50 14.5t-42.5 18t-37 24.5t-23 33.5t-9.5 46.5q0 59 43 99.5t131 40.5t131 -40t43 -100h-60
q0 16 -6.5 30.5t-19 27.5t-35.5 21t-52 8q-58 0 -85.5 -26t-27.5 -61q0 -34 30.5 -52.5t91.5 -35.5q41 -11 68.5 -21.5t53.5 -27.5t39 -42.5t13 -59.5q0 -41 -19.5 -73t-61 -52.5t-98.5 -20.5q-91 0 -140.5 41.5t-52.5 104.5z" />
    <glyph glyph-name="Tcedilla" unicode="&#x162;" horiz-adv-x="530" 
d="M483 641h-192v-641l-18 -4l-31 -43q23 8 42 8q39 0 65.5 -20t26.5 -60q0 -34 -20.5 -56t-47.5 -30t-60 -8q-41 0 -103 23l14 33q38 -21 85 -23q36 0 61 15t25 44q0 23 -16 36t-42 13q-32 0 -75 -19l-13 15l53 73l-11 3v641h-186v59h443v-59z" />
    <glyph glyph-name="tcedilla" unicode="&#x163;" horiz-adv-x="342" 
d="M136 501h132v-53h-132v-250q0 -121 95 -148q29 -9 69 -7v-53q-40 -2 -76 6q-21 5 -40 13l-30 -42q20 8 43 8q38 0 64.5 -20t26.5 -60q0 -34 -20 -56t-47 -30t-61 -8q-43 0 -103 24l15 32q39 -22 88 -22q34 0 58 15t24 43q0 23 -16 36.5t-42 13.5q-32 0 -74 -20l-14 15
l60 82q-83 50 -83 169v433h63v-121z" />
    <glyph glyph-name="Tcaron" unicode="&#x164;" horiz-adv-x="530" 
d="M299 774h-64l-131 137h59l104 -107l100 107h60zM483 641h-192v-641h-65v641h-186v59h443v-59z" />
    <glyph glyph-name="tcaron" unicode="&#x165;" horiz-adv-x="342" 
d="M208 645l21 61q-16 11 -16 30q0 15 11.5 26.5t26.5 11.5t26.5 -11.5t11.5 -26.5q0 -9 -5 -17l-34 -74h-42zM136 501h132v-53h-132v-250q0 -121 95 -148q29 -9 69 -7v-53q-40 -2 -76 6q-69 14 -110 62t-41 131v433h63v-121z" />
    <glyph glyph-name="Tbar" unicode="&#x166;" horiz-adv-x="530" 
d="M483 641h-192v-262h100v-38h-100v-341h-65v341h-94v38h94v262h-186v59h443v-59z" />
    <glyph glyph-name="tbar" unicode="&#x167;" horiz-adv-x="342" 
d="M136 501h132v-53h-132v-100h132v-45h-132v-105q0 -118 90 -147q31 -10 74 -8v-53q-47 -2 -82 8q-66 15 -105.5 62.5t-39.5 128.5v433h63v-121z" />
    <glyph glyph-name="Umacron" unicode="&#x16a;" horiz-adv-x="652" 
d="M444 812h-235v38h235v-38zM554 701v-489q0 -59 -21.5 -104.5t-57 -70t-75.5 -36.5t-85 -12q-44 0 -84.5 12t-76.5 36.5t-57.5 70t-21.5 104.5v489h65v-489q0 -44 15 -77t41 -51.5t55.5 -27t63.5 -8.5t63.5 8.5t55 27t40 51.5t14.5 77v489h66z" />
    <glyph glyph-name="umacron" unicode="&#x16b;" 
d="M376 610h-235v38h235v-38zM452 0h-51l-1 26q-63 -34 -143 -34q-39 0 -72 9t-61 28t-44 53t-16 79v340h63v-337q0 -62 37.5 -92t100.5 -30q68 0 124 28v431h63v-501z" />
    <glyph glyph-name="Uring" unicode="&#x16e;" horiz-adv-x="627" 
d="M312.5 950q46.5 0 81 -34.5t34.5 -81.5q0 -31 -15.5 -57.5t-42.5 -42.5t-57.5 -16t-57.5 16t-43 42.5t-16 57.5q0 47 35 81.5t81.5 34.5zM312 912q-33 0 -55.5 -22.5t-22.5 -55.5t22.5 -56t55.5 -23q16 0 30.5 6t25 16.5t16.5 25.5t6 31q0 33 -22.5 55.5t-55.5 22.5z
M554 701v-489q0 -59 -21.5 -104.5t-57 -70t-75.5 -36.5t-85 -12q-44 0 -84.5 12t-76.5 36.5t-57.5 70t-21.5 104.5v489h65v-489q0 -35 10 -64t27 -47t40 -30.5t47.5 -17.5t50.5 -5q34 0 63.5 8.5t55 27t40 51.5t14.5 77v489h66z" />
    <glyph glyph-name="uring" unicode="&#x16f;" 
d="M260 751q47 0 81.5 -34.5t34.5 -81.5t-34.5 -81.5t-81.5 -34.5t-81.5 34.5t-34.5 81.5t34.5 81.5t81.5 34.5zM260 713q-33 0 -56 -22.5t-23 -55.5t23 -56t56 -23q21 0 39 10.5t28.5 28.5t10.5 40q0 33 -23 55.5t-55 22.5zM452 0h-51l-1 26q-63 -34 -143 -34q-39 0 -72 9
t-61 28t-44 53t-16 79v340h63v-337q0 -62 37.5 -92t100.5 -30q68 0 124 28v431h63v-501z" />
    <glyph glyph-name="Uhungarumlaut" unicode="&#x170;" horiz-adv-x="652" 
d="M281 783h-43l50 118h63zM403 783h-43l50 118h63zM554 701v-489q0 -59 -21.5 -104.5t-57 -70t-75.5 -36.5t-85 -12q-44 0 -84.5 12t-76.5 36.5t-57.5 70t-21.5 104.5v489h65v-489q0 -44 15 -77t41 -51.5t55.5 -27t63.5 -8.5t63.5 8.5t55 27t40 51.5t14.5 77v489h66z" />
    <glyph glyph-name="uhungarumlaut" unicode="&#x171;" 
d="M210 583h-43l50 117h63zM332 583h-43l50 117h63zM452 0h-51l-1 26q-63 -34 -143 -34q-39 0 -72 9t-61 28t-44 53t-16 79v340h63v-337q0 -62 37.5 -92t100.5 -30q68 0 124 28v431h63v-501z" />
    <glyph glyph-name="Uogonek" unicode="&#x172;" horiz-adv-x="652" 
d="M568 701v-489q0 -49 -15 -88.5t-41 -64t-55.5 -39t-64.5 -20.5q-76 -60 -76 -110q0 -28 16.5 -43t40.5 -15q46 0 76 44l29 -14q-19 -30 -49 -47t-65 -17q-24 0 -44 7.5t-35 28t-15 50.5q0 52 64 105q-37 0 -75 8q-74 17 -122 70t-48 145v489h66v-489q0 -44 15 -77
t40.5 -51.5t55.5 -27t64 -8.5t63.5 8.5t54.5 27t40 51.5t15 77v489h65z" />
    <glyph glyph-name="uogonek" unicode="&#x173;" 
d="M452 -2l-16 -4q-66 -55 -66 -105q0 -29 17 -43t43 -14q44 0 73 43l29 -13q-13 -20 -30.5 -35t-39 -22.5t-45.5 -7.5q-23 0 -43 8t-35 28t-15 50q0 61 77 115l-1 28q-63 -34 -143 -34q-39 0 -72 9t-61 28t-44 53t-16 79v340h63v-337q0 -62 37.5 -92t100.5 -30q68 0 124 28
v431h63v-503z" />
    <glyph glyph-name="Wcircumflex" unicode="&#x174;" horiz-adv-x="811" 
d="M568 771h-60l-100 106l-103 -106h-60l132 137h64zM610 0h-82l-121 550l-122 -550h-82l-172 700h69l144 -615l131 615h63l131 -615l142 615h69z" />
    <glyph glyph-name="wcircumflex" unicode="&#x175;" horiz-adv-x="702" 
d="M514 572h-60l-100 106l-104 -106h-59l131 137h64zM520 0h-63l-106 375l-106 -375h-62l-164 501h66l127 -413l112 413h53l112 -413l128 413h66z" />
    <glyph glyph-name="Ycircumflex" unicode="&#x176;" horiz-adv-x="580" 
d="M452 771h-60l-100 106l-103 -106h-60l132 137h64zM322 337v-337h-65v335l-226 365h76l182 -300l182 300h78z" />
    <glyph glyph-name="ycircumflex" unicode="&#x177;" horiz-adv-x="521" 
d="M425 572h-60l-100 106l-103 -106h-60l131 137h64zM452 501v-537q0 -54 -22.5 -91.5t-60 -54t-87.5 -16.5q-97 0 -176 52l25 37q67 -39 136 -39q121 0 122 107v69q-58 -28 -140 -28t-133.5 40.5t-51.5 128.5v332h63v-328q0 -125 134 -125q71 0 128 26v427h63z" />
    <glyph glyph-name="Ydieresis" unicode="&#x178;" horiz-adv-x="580" 
d="M204 866q8 0 15.5 -4.5t12 -12t4.5 -16.5t-4.5 -17t-12 -12.5t-16.5 -4.5q-14 0 -23.5 10t-9.5 24q0 9 4.5 16.5t12 12t17.5 4.5zM381 866q8 0 15.5 -4.5t12 -12t4.5 -16.5t-4.5 -17t-12 -12.5t-16.5 -4.5q-14 0 -23.5 10t-9.5 24q0 9 4.5 16.5t12 12t17.5 4.5zM322 337
v-337h-65v335l-226 365h76l182 -300l182 300h78z" />
    <glyph glyph-name="Zacute" unicode="&#x179;" horiz-adv-x="586" 
d="M312 782h-46l53 117h67zM534 656l-400 -597h405v-59h-493v44l400 597h-377v59h465v-44z" />
    <glyph glyph-name="zacute" unicode="&#x17a;" horiz-adv-x="439" 
d="M230 583h-45l52 117h67zM390 460l-272 -407h278v-53h-356v41l272 407h-253v53h331v-41z" />
    <glyph glyph-name="Zdotaccent" unicode="&#x17b;" horiz-adv-x="586" 
d="M304 867q14 0 23 -9.5t9 -23.5t-9.5 -23.5t-22.5 -9.5q-9 0 -17 4.5t-12.5 12t-4.5 16.5q0 14 10 23.5t24 9.5zM534 656l-400 -597h405v-59h-493v44l400 597h-377v59h465v-44z" />
    <glyph glyph-name="zdotaccent" unicode="&#x17c;" horiz-adv-x="439" 
d="M218 671q8 0 15.5 -4.5t12 -12t4.5 -16.5q0 -14 -9.5 -23.5t-23.5 -9.5t-23.5 9.5t-9.5 23.5t9.5 23.5t24.5 9.5zM390 460l-272 -407h278v-53h-356v41l272 407h-253v53h331v-41z" />
    <glyph glyph-name="Zcaron" unicode="&#x17d;" horiz-adv-x="586" 
d="M329 774h-64l-131 137h59l103 -107l100 107h60zM534 656l-400 -597h405v-59h-493v44l400 597h-377v59h465v-44z" />
    <glyph glyph-name="zcaron" unicode="&#x17e;" horiz-adv-x="439" 
d="M258 575h-64l-131 137h59l104 -107l100 107h60zM390 460l-272 -407h278v-53h-356v41l272 407h-253v53h331v-41z" />
    <glyph glyph-name="florin" unicode="&#x192;" horiz-adv-x="377" 
d="M140 -27v572q0 45 14 78t37.5 51.5t51 27.5t58.5 9q22 0 43 -4v-52q-27 4 -42 3q-44 -2 -71.5 -31t-27.5 -88v-90h132v-51h-132v-434q0 -45 -16 -78.5t-39.5 -51t-54.5 -25.5q-26 -11 -60 -11v52q31 0 52 11q55 25 55 112z" />
    <glyph glyph-name="Acaron" unicode="&#x1cd;" horiz-adv-x="604" 
d="M337 774h-64l-132 137h60l103 -107l100 107h60zM572 0h-68l-81 241h-243l-81 -241h-68l240 700h61zM196 299h211l-105 313z" />
    <glyph glyph-name="acaron" unicode="&#x1ce;" horiz-adv-x="505" 
d="M292 575h-64l-131 137h59l103 -107l100 107h60zM109 427l-33 35q58 47 154 47q55 0 94.5 -12.5t61.5 -31t35 -48t16.5 -56t3.5 -62.5v-301h-51l-1 26q-63 -35 -143 -35q-43 1 -77.5 10.5t-63 29t-44.5 53.5t-16 81q0 169 214 169q46 0 119 -10q-1 30 -6.5 51t-21 41.5
t-47 31t-79.5 10.5q-69 0 -115 -29zM378 70v206q-67 9 -110 9q-23 0 -43 -2t-39 -7.5t-33.5 -15t-25.5 -22.5t-17 -32t-6 -43q0 -123 151 -123q68 0 123 30z" />
    <glyph glyph-name="Icaron" unicode="&#x1cf;" horiz-adv-x="244" 
d="M157 774h-64l-132 137h60l103 -107l100 107h60zM155 0h-66v700h66v-700z" />
    <glyph glyph-name="icaron" unicode="&#x1d0;" horiz-adv-x="154" 
d="M113 575h-64l-131 137h60l103 -107l100 107h60zM110 0h-63v501h63v-501z" />
    <glyph glyph-name="Ocaron" unicode="&#x1d1;" horiz-adv-x="623" 
d="M346 774h-64l-132 137h60l103 -107l100 107h60zM72 211v269q0 115 65.5 175t175.5 60q57 0 102 -16.5t74.5 -47.5t45.5 -74.5t16 -97.5v-268q0 -60 -21.5 -105t-57 -69.5t-75.5 -36.5t-85 -12q-44 0 -84 12t-76.5 36.5t-58 69.5t-21.5 105zM486 211v268q0 85 -44.5 131
t-128 46t-130 -43.5t-46.5 -132.5v-269q0 -44 15.5 -77t41 -51.5t55.5 -27t63 -8.5q34 0 64 8.5t55 27t40 51.5t15 77z" />
    <glyph glyph-name="ocaron" unicode="&#x1d2;" horiz-adv-x="495" 
d="M282 575h-64l-131 137h59l104 -107l100 107h60zM52 188v124q0 64 22.5 108.5t67 67.5t107.5 23q93 0 143.5 -53.5t50.5 -145.5v-124q0 -39 -11 -73t-33 -62.5t-60.5 -45t-89.5 -16.5q-41 0 -74.5 11t-56 29.5t-37.5 44t-22 53.5t-7 59zM380 188v124q0 69 -34.5 108
t-96.5 39q-134 0 -134 -147v-124q0 -62 33.5 -103.5t100.5 -41.5q66 0 98.5 41t32.5 104z" />
    <glyph glyph-name="Ucaron" unicode="&#x1d3;" horiz-adv-x="627" 
d="M347 774h-64l-132 137h60l103 -107l100 107h60zM554 701v-489q0 -48 -14.5 -87t-37.5 -63.5t-54.5 -41.5t-64.5 -24t-68 -7q-44 0 -84.5 12t-76.5 36.5t-57.5 70t-21.5 104.5v489h65v-489q0 -44 15 -77t41 -51.5t55.5 -27t63.5 -8.5t63.5 8.5t55 27t40 51.5t14.5 77v489
h66z" />
    <glyph glyph-name="ucaron" unicode="&#x1d4;" 
d="M294 575h-64l-131 137h59l103 -107l100 107h60zM452 0h-51l-1 26q-63 -34 -143 -34q-39 0 -72 9t-61 28t-44 53t-16 79v340h63v-337q0 -62 37.5 -92t100.5 -30q68 0 124 28v431h63v-501z" />
    <glyph glyph-name="Udieresismacron" unicode="&#x1d5;" horiz-adv-x="652" 
d="M447 902h-236v38h236v-38zM241 846q9 0 16.5 -4.5t12 -12t4.5 -16.5t-4.5 -16.5t-12 -12t-16.5 -4.5q-14 0 -23.5 9.5t-9.5 23.5q0 9 4.5 16.5t12 12t16.5 4.5zM418 846q9 0 16.5 -4.5t12 -12t4.5 -16.5t-4.5 -16.5t-12 -12t-16.5 -4.5q-14 0 -24 9.5t-10 23.5
q0 9 4.5 16.5t12.5 12t17 4.5zM554 701v-489q0 -59 -21.5 -104.5t-57 -70t-75.5 -36.5t-85 -12q-44 0 -84.5 12t-76.5 36.5t-57.5 70t-21.5 104.5v489h65v-489q0 -44 15 -77t41 -51.5t55.5 -27t63.5 -8.5t63.5 8.5t55 27t40 51.5t14.5 77v489h66z" />
    <glyph glyph-name="udieresismacron" unicode="&#x1d6;" 
d="M377 726h-235v38h235v-38zM170 668q14 0 23.5 -9.5t9.5 -23.5t-9.5 -23.5t-23.5 -9.5t-23.5 9.5t-9.5 23.5t9.5 23.5t23.5 9.5zM347 668q14 0 23 -9.5t9 -23.5t-9.5 -23.5t-22.5 -9.5q-14 0 -24 9.5t-10 23.5t10 23.5t24 9.5zM452 0h-51l-1 26q-63 -34 -143 -34
q-39 0 -72 9t-61 28t-44 53t-16 79v340h63v-337q0 -62 37.5 -92t100.5 -30q68 0 124 28v431h63v-501z" />
    <glyph glyph-name="Udieresisacute" unicode="&#x1d7;" horiz-adv-x="652" 
d="M351 885h-45l52 117h67zM241 846q14 0 23.5 -9.5t9.5 -23.5q0 -7 -3 -13t-7 -10.5t-10 -7t-13 -2.5q-14 0 -23.5 9.5t-9.5 23.5t9.5 23.5t23.5 9.5zM418 846q14 0 23.5 -9.5t9.5 -23.5q0 -7 -3 -13t-7 -10.5t-10 -7t-13 -2.5q-14 0 -24 9.5t-10 23.5t10 23.5t24 9.5z
M554 701v-489q0 -59 -21.5 -104t-57 -70t-75.5 -37t-85 -12q-44 0 -84.5 12t-76.5 36.5t-57.5 70t-21.5 104.5v489h65v-489q0 -44 15 -77t41 -51.5t55.5 -27t63.5 -8.5t63.5 8.5t55 27t40 51.5t14.5 77v489h66z" />
    <glyph glyph-name="udieresisacute" unicode="&#x1d8;" 
d="M271 726h-46l53 117h67zM173 667q14 0 23.5 -9.5t9.5 -23.5t-9.5 -24t-23.5 -10t-23.5 10t-9.5 24t9.5 23.5t23.5 9.5zM350 667q14 0 23.5 -9.5t9.5 -23.5t-9.5 -24t-23.5 -10t-23.5 10t-9.5 24t9.5 23.5t23.5 9.5zM452 0h-51l-1 26q-63 -34 -143 -34q-39 0 -72 9t-61 28
t-44 53t-16 79v340h63v-337q0 -62 37.5 -92t100.5 -30q68 0 124 28v431h63v-501z" />
    <glyph glyph-name="Udieresiscaron" unicode="&#x1d9;" horiz-adv-x="627" 
d="M347 895h-64l-132 137h60l103 -106l100 106h60zM226 855q14 0 23 -9.5t9 -23.5q0 -7 -2.5 -13t-6.5 -10.5t-10 -7t-13 -2.5q-14 0 -24 9.5t-10 23.5t10 23.5t24 9.5zM403 855q14 0 23 -9.5t9 -23.5t-9.5 -23.5t-22.5 -9.5q-14 0 -24 9.5t-10 23.5t10 23.5t24 9.5z
M554 701v-489q0 -59 -21.5 -104.5t-57 -70t-75.5 -36.5t-85 -12q-44 0 -84.5 12t-76.5 36.5t-57.5 70t-21.5 104.5v489h65v-489q0 -35 10 -64t27 -47t40 -30.5t47.5 -17.5t50.5 -5q34 0 63.5 8.5t55 27t40 51.5t14.5 77v489h66z" />
    <glyph glyph-name="udieresiscaron" unicode="&#x1da;" 
d="M294 710h-64l-131 138h59l103 -107l100 107h60zM173 667q9 0 16.5 -4.5t12 -12t4.5 -16.5t-4.5 -17t-12 -12.5t-16.5 -4.5q-14 0 -23.5 10t-9.5 24q0 9 4.5 16.5t12 12t16.5 4.5zM350 667q9 0 16.5 -4.5t12 -12t4.5 -16.5t-4.5 -17t-12 -12.5t-16.5 -4.5q-14 0 -23.5 10
t-9.5 24q0 9 4.5 16.5t12 12t16.5 4.5zM452 0h-51l-1 26q-63 -34 -143 -34q-39 0 -72 9t-61 28t-44 53t-16 79v340h63v-337q0 -62 37.5 -92t100.5 -30q68 0 124 28v431h63v-501z" />
    <glyph glyph-name="Udieresisgrave" unicode="&#x1db;" horiz-adv-x="652" 
d="M369 885h-46l-74 117h67zM241 846q14 0 23.5 -9.5t9.5 -23.5q0 -6 -2 -11t-5 -9t-7 -7t-9 -4.5t-10 -1.5q-14 0 -23.5 9.5t-9.5 23.5t9.5 23.5t23.5 9.5zM418 846q14 0 23 -9.5t9 -23.5q0 -7 -2.5 -13t-6.5 -10.5t-10 -7t-13 -2.5q-14 0 -24 9.5t-10 23.5t10 23.5t24 9.5
zM554 701v-489q0 -59 -21.5 -104t-57 -70t-75.5 -37t-85 -12q-44 0 -84.5 12t-76.5 36.5t-57.5 70t-21.5 104.5v489h65v-489q0 -44 15 -77t41 -51.5t55.5 -27t63.5 -8.5t63.5 8.5t55 27t40 51.5t14.5 77v489h66z" />
    <glyph glyph-name="udieresisgrave" unicode="&#x1dc;" 
d="M307 726h-45l-74 117h67zM170 668q14 0 23.5 -9.5t9.5 -23.5t-9.5 -23.5t-23.5 -9.5q-9 0 -17 4t-12 12t-4 17q0 14 9.5 23.5t23.5 9.5zM347 668q14 0 23 -9.5t9 -23.5t-9.5 -23.5t-22.5 -9.5q-9 0 -17 4t-12.5 12t-4.5 17q0 14 10 23.5t24 9.5zM452 0h-51l-1 26
q-63 -34 -143 -34q-39 0 -72 9t-61 28t-44 53t-16 79v340h63v-337q0 -62 37.5 -92t100.5 -30q68 0 124 28v431h63v-501z" />
    <glyph glyph-name="Scommaaccent" unicode="&#x218;" horiz-adv-x="590" 
d="M46 189h62q2 -59 48.5 -99.5t133.5 -40.5q90 0 134.5 38t44.5 104q0 18 -6 33.5t-13.5 27t-24 23t-28.5 18t-36.5 16t-37.5 13.5t-42 14q-43 13 -70 23t-58 26.5t-49 34.5t-30 44.5t-12 58.5q0 89 63.5 138.5t165.5 49.5q101 0 165 -49.5t66 -138.5h-63q-1 63 -48.5 96
t-119.5 33t-118.5 -33t-46.5 -91q0 -21 8.5 -38t22.5 -29.5t38.5 -24.5t48 -20t59.5 -19q54 -15 93 -32t71.5 -41t49 -57t16.5 -76q0 -90 -59 -146t-182 -56q-113 0 -179 58t-67 142zM260 -198l16 47q-12 10 -12 23q0 11 8 19t19.5 8t19.5 -8t8 -19q0 -6 -3 -12l-27 -58h-29
z" />
    <glyph glyph-name="scommaaccent" unicode="&#x219;" horiz-adv-x="456" 
d="M40 133h62q3 -40 35 -66.5t92 -26.5q36 0 63.5 12t42 33t14.5 48q0 18 -8 33t-18 24.5t-30.5 18.5t-35 13.5t-40.5 12.5q-26 7 -42 12t-37 13.5t-34.5 18t-25.5 23t-18 31t-6 39.5q0 59 43 99.5t131 40.5t131 -40t43 -100h-60q0 35 -28 61t-85.5 26t-85 -26t-27.5 -61
q0 -34 30.5 -52.5t91.5 -35.5q41 -11 68.5 -21.5t53.5 -27.5t39 -42.5t13 -59.5q0 -41 -19.5 -73t-61 -52.5t-98.5 -20.5q-91 0 -140.5 41.5t-52.5 104.5zM197 -198l16 47q-12 10 -12 23q0 11 8 19t19.5 8t19.5 -8t8 -19q0 -6 -3 -12l-27 -58h-29z" />
    <glyph glyph-name="uni021A" unicode="&#x21a;" horiz-adv-x="523" 
d="M483 641h-192v-641h-65v641h-186v59h443v-59zM226 -198l17 47q-12 10 -12 23q0 11 8 19t19 8t19.5 -8t8.5 -19q0 -6 -4 -12l-26 -58h-30z" />
    <glyph glyph-name="uni021B" unicode="&#x21b;" horiz-adv-x="342" 
d="M136 501h132v-53h-132v-250q0 -121 95 -148q29 -9 69 -7v-53q-40 -2 -76 6q-69 14 -110 62t-41 131v433h63v-121zM149 -198l17 47q-12 10 -12 23q0 11 8 19t19.5 8t19.5 -8t8 -19q0 -6 -3 -12l-27 -58h-30z" />
    <glyph glyph-name="circumflex" unicode="&#x2c6;" horiz-adv-x="390" 
d="M357 572h-60l-100 106l-103 -106h-60l132 137h64z" />
    <glyph glyph-name="caron" unicode="&#x2c7;" horiz-adv-x="390" 
d="M229 575h-64l-131 137h59l104 -107l100 107h60z" />
    <glyph glyph-name="breve" unicode="&#x2d8;" horiz-adv-x="326" 
d="M258 705h35q0 -55 -37.5 -91.5t-92.5 -36.5t-92.5 36.5t-37.5 91.5h35q1 -37 28 -63.5t67 -26.5t67 26.5t28 63.5z" />
    <glyph glyph-name="dotaccent" unicode="&#x2d9;" horiz-adv-x="130" 
d="M66 667q13 0 22.5 -9.5t9.5 -23.5q0 -9 -4 -17t-11.5 -12.5t-17 -4.5t-17 4.5t-12 12.5t-4.5 17q0 14 10 23.5t24 9.5z" />
    <glyph glyph-name="ring" unicode="&#x2da;" horiz-adv-x="326" 
d="M163 751q47 0 81.5 -34.5t34.5 -81.5t-34.5 -81.5t-81.5 -34.5t-81.5 34.5t-34.5 81.5t34.5 81.5t81.5 34.5zM163 713q-33 0 -56 -22.5t-23 -55.5q0 -22 10.5 -40t28.5 -28.5t40 -10.5q33 0 55.5 23t22.5 56t-22.5 55.5t-55.5 22.5z" />
    <glyph glyph-name="ogonek" unicode="&#x2db;" horiz-adv-x="289" 
d="M127 0h46q-84 -63 -84 -116q0 -28 16 -43t41 -15q46 0 75 44l29 -13q-12 -20 -29.5 -35t-39.5 -23t-45 -8q-37 0 -65 22t-28 65q0 58 84 122z" />
    <glyph glyph-name="tilde" unicode="&#x2dc;" horiz-adv-x="421" 
d="M71 605l-24 34q51 54 101 54q27 0 70 -21t65 -21q32 0 67 36l24 -34q-46 -43 -90 -43q-27 0 -71 20t-66 20q-36 0 -76 -45z" />
    <glyph glyph-name="hungarumlaut" unicode="&#x2dd;" horiz-adv-x="290" 
d="M71 583h-43l50 117h63zM193 583h-43l49 117h64z" />
    <glyph glyph-name="Delta" unicode="&#x394;" horiz-adv-x="833" 
 />
    <glyph glyph-name="Omega" unicode="&#x3a9;" horiz-adv-x="833" 
 />
    <glyph glyph-name="mu" unicode="&#x3bc;" horiz-adv-x="833" 
 />
    <glyph glyph-name="pi" unicode="&#x3c0;" horiz-adv-x="127" 
 />
    <glyph glyph-name="uni0410" unicode="&#x410;" horiz-adv-x="604" 
d="M572 0h-68l-81 241h-243l-81 -241h-68l240 700h61zM196 299h211l-105 313z" />
    <glyph glyph-name="uni0411" unicode="&#x411;" horiz-adv-x="607" 
d="M503 640h-348v-252h213q88 0 135 -49.5t47 -145t-47 -144.5t-135 -49h-279v700h414v-60zM155 329v-270h200q32 0 56 8.5t40.5 25.5t25 42.5t8.5 58.5q0 66 -33 100.5t-97 34.5h-200z" />
    <glyph glyph-name="uni0412" unicode="&#x412;" horiz-adv-x="607" 
d="M89 700h263q84 0 132 -51.5t48 -126.5q0 -129 -92 -170q52 -17 81 -61.5t29 -101.5q0 -91 -47 -140t-135 -49h-279v700zM155 641v-261h183q63 0 96 34.5t33 100.5q0 54 -34 90t-94 36h-184zM155 320v-261h200q63 0 96.5 34t33.5 101q0 54 -34 90t-94 36h-202z" />
    <glyph glyph-name="uni0413" unicode="&#x413;" horiz-adv-x="517" 
d="M503 640h-348v-640h-66v700h414v-60z" />
    <glyph glyph-name="uni0414" unicode="&#x414;" horiz-adv-x="705" 
d="M582 58h83v-211h-61v154h-503v-154h-61v211h62q61 44 61 138v505h419v-643zM228 642v-446q0 -87 -46 -138h335v584h-289z" />
    <glyph glyph-name="uni0415" unicode="&#x415;" horiz-adv-x="571" 
d="M519 641h-364v-262h337v-59h-337v-261h370v-59h-436v700h430v-59z" />
    <glyph glyph-name="uni0416" unicode="&#x416;" horiz-adv-x="948" 
d="M578 367l339 -367h-80l-330 363v-363h-66v363l-330 -363h-80l339 367l-287 333h77l281 -334v334h66v-334l281 334h77z" />
    <glyph glyph-name="uni0417" unicode="&#x417;" horiz-adv-x="515" 
d="M118 575l-56 23q19 46 64 79t107 33q79 0 132 -51t53 -132q0 -53 -28 -92t-69 -58q53 -19 90 -67.5t37 -112.5q0 -94 -61.5 -151.5t-154.5 -57.5q-64 0 -113 28.5t-76 70.5l49 32q22 -33 59 -52.5t81 -19.5q66 0 109 43t43 108q0 62 -47 106.5t-110 44.5h-54v53h54
q52 0 90.5 35t38.5 88q0 54 -35 90t-88 36q-42 0 -72 -22t-43 -54z" />
    <glyph glyph-name="uni0418" unicode="&#x418;" horiz-adv-x="629" 
d="M544 0h-65v569l-327 -569h-68v700h66v-576l330 576h64v-700z" />
    <glyph glyph-name="uni0419" unicode="&#x419;" horiz-adv-x="629" 
d="M410 912h35q0 -54 -37.5 -91t-92.5 -37t-92.5 37t-37.5 91h35q2 -36 28.5 -62.5t66.5 -26.5t67 26.5t28 62.5zM544 0h-65v569l-327 -569h-68v700h66v-576l330 576h64v-700z" />
    <glyph glyph-name="uni041A" unicode="&#x41a;" horiz-adv-x="606" 
d="M226 367l339 -367h-80l-330 363v-363h-66v700h66v-334l281 334h77z" />
    <glyph glyph-name="uni041B" unicode="&#x41b;" horiz-adv-x="662" 
d="M580 0h-66v641h-289v-465q0 -95 -52 -140.5t-136 -45.5v57q53 0 88 30.5t35 97.5v525h420v-700z" />
    <glyph glyph-name="uni041C" unicode="&#x41c;" horiz-adv-x="746" 
d="M660 0h-64v547l-198 -521h-50l-196 521v-547h-64v700h65l221 -577l220 577h66v-700z" />
    <glyph glyph-name="uni041D" unicode="&#x41d;" horiz-adv-x="657" 
d="M568 0h-65v320h-348v-320h-66v700h66v-321h348v321h65v-700z" />
    <glyph glyph-name="uni041E" unicode="&#x41e;" horiz-adv-x="623" 
d="M72 211v269q0 115 65.5 175t175.5 60q57 0 102 -16.5t74.5 -47.5t45.5 -74.5t16 -97.5v-268q0 -60 -21.5 -105t-57 -69.5t-75.5 -36.5t-85 -12q-44 0 -84 12t-76.5 36.5t-58 69.5t-21.5 105zM486 211v268q0 85 -44.5 131t-128 46t-130 -43.5t-46.5 -132.5v-269
q0 -44 15.5 -77t41 -51.5t55.5 -27t63 -8.5q34 0 64 8.5t55 27t40 51.5t15 77z" />
    <glyph glyph-name="uni041F" unicode="&#x41f;" horiz-adv-x="657" 
d="M568 0h-65v641h-348v-641h-66v700h479v-700z" />
    <glyph glyph-name="uni0420" unicode="&#x420;" horiz-adv-x="606" 
d="M89 700h259q61 0 107 -27t68 -70t22 -95q0 -97 -52 -149.5t-147 -52.5h-191v-306h-66v700zM155 641v-276h190q67 0 102 36.5t35 106.5q0 57 -35.5 95t-99.5 38h-192z" />
    <glyph glyph-name="uni0421" unicode="&#x421;" horiz-adv-x="562" 
d="M72 224v258q0 114 65.5 174.5t174.5 60.5q49 0 89 -13.5t68.5 -37.5t45.5 -59l-48 -24q-44 75 -150 75q-82 0 -131 -45t-49 -132v-257q0 -86 49 -131t131 -45q106 0 150 75l48 -24q-13 -26 -32.5 -46t-44.5 -34.5t-57 -22t-69 -7.5q-109 0 -174.5 60.5t-65.5 174.5z" />
    <glyph glyph-name="uni0422" unicode="&#x422;" horiz-adv-x="530" 
d="M483 641h-192v-641h-65v641h-186v59h443v-59z" />
    <glyph glyph-name="uni0423" unicode="&#x423;" horiz-adv-x="627" 
d="M570 700l-256 -597q-49 -117 -150 -117h-66v59h56q39 0 66 22.5t45 67.5l29 68l-229 497h68l192 -423l178 423h67z" />
    <glyph glyph-name="uni0424" unicode="&#x424;" horiz-adv-x="756" 
d="M411 630h31q55 0 97 -13t76 -44t52 -87t18 -136t-18 -136.5t-52 -87t-76 -43.5t-97 -13h-31v-70h-66v70h-31q-56 0 -98 13.5t-76 44t-51.5 86.5t-17.5 136t18 136.5t52.5 87t76.5 43.5t97 13h30v70h66v-70zM345 571h-30q-36 0 -63 -6.5t-49.5 -22t-36.5 -40.5t-22 -63
t-8 -89t8 -89t22 -63t36.5 -40.5t49.5 -22t63 -6.5h30v442zM411 129h31q44 0 75.5 10.5t55.5 35t35.5 68t11.5 107.5t-11.5 107.5t-35 68t-55.5 35t-76 10.5h-31v-442z" />
    <glyph glyph-name="uni0425" unicode="&#x425;" horiz-adv-x="615" 
d="M352 363l231 -363h-77l-199 311l-197 -311h-79l233 363l-215 337h76l182 -292l182 292h78z" />
    <glyph glyph-name="uni0426" unicode="&#x426;" horiz-adv-x="691" 
d="M568 57h84v-210h-61v152h-502v701h65v-642h348v642h66v-643z" />
    <glyph glyph-name="uni0427" unicode="&#x427;" horiz-adv-x="618" 
d="M134 700v-251q0 -57 29 -83t86 -26q53 0 215 30v330h65v-700h-65v311q-2 -1 -45 -8t-69.5 -11t-62.5 -8.5t-55 -4.5q-76 0 -120 40t-44 116v265h66z" />
    <glyph glyph-name="uni0428" unicode="&#x428;" horiz-adv-x="951" 
d="M862 0h-772v700h65v-641h288v641h65v-641h289v641h65v-700z" />
    <glyph glyph-name="uni0429" unicode="&#x429;" horiz-adv-x="986" 
d="M862 58h84v-211h-61v153h-795v700h65v-641h288v641h65v-641h289v641h65v-642z" />
    <glyph glyph-name="uni042A" unicode="&#x42a;" horiz-adv-x="660" 
d="M218 388h214q88 0 135 -49.5t47 -145t-47 -144.5t-135 -49h-279v642h-150v58h215v-312zM218 329v-270h201q63 0 96.5 34t33.5 100.5t-33.5 101t-96.5 34.5h-201z" />
    <glyph glyph-name="uni042B" unicode="&#x42b;" horiz-adv-x="811" 
d="M155 388h213q88 0 135 -49.5t47 -145t-47 -144.5t-135 -49h-279v700h66v-312zM722 0h-65v700h65v-700zM155 329v-270h200q63 0 96.5 34t33.5 101q0 44 -15 74t-44 45.5t-71 15.5h-200z" />
    <glyph glyph-name="uni042C" unicode="&#x42c;" horiz-adv-x="597" 
d="M155 388h213q88 0 135 -49.5t47 -145t-47 -144.5t-135 -49h-279v700h66v-312zM155 329v-270h200q64 0 97 34t33 100.5t-33 101t-97 34.5h-200z" />
    <glyph glyph-name="uni042D" unicode="&#x42d;" horiz-adv-x="562" 
d="M95 582l-49 25q27 52 79 80.5t125 28.5q53 0 97 -15t76 -43.5t49.5 -73.5t17.5 -103v-257q0 -115 -65.5 -175t-174.5 -60q-73 0 -125 28.5t-79 80.5l49 25q44 -75 150 -75q82 0 130.5 44.5t48.5 131.5v102h-263v53h263v102q0 44 -13 78t-37 55t-56.5 32t-72.5 11
q-106 0 -150 -75z" />
    <glyph glyph-name="uni042E" unicode="&#x42e;" horiz-adv-x="864" 
d="M313 379v100q0 114 65 174.5t176 60.5q57 0 102 -17t74.5 -48t45.5 -74.5t16 -96.5v-269q0 -59 -21.5 -104t-57 -70t-75.5 -37t-85 -12q-44 0 -84.5 12t-76.5 36.5t-57.5 70t-21.5 104.5v111h-159v-320h-65v700h65v-321h159zM726 209v269q0 56 -19 95.5t-58 60.5t-95 21
q-55 0 -93.5 -18.5t-60.5 -58.5t-22 -99v-270q0 -44 15 -77t41 -51t55.5 -27t63.5 -9t63.5 8.5t55 27t40 51.5t14.5 77z" />
    <glyph glyph-name="uni042F" unicode="&#x42f;" horiz-adv-x="602" 
d="M513 0h-66v309h-129l-193 -309h-77l202 317l-34 2q-77 8 -118 57t-41 134q0 80 52.5 135t144.5 55h259v-700zM447 641h-192q-64 0 -99.5 -37.5t-35.5 -93.5q0 -70 35 -106t102 -36h190v273z" />
    <glyph glyph-name="uni0430" unicode="&#x430;" horiz-adv-x="505" 
d="M109 427l-33 35q58 47 154 47q55 0 94.5 -12.5t61.5 -31t35 -48t16.5 -56t3.5 -62.5v-301h-51l-1 26q-63 -35 -143 -35q-43 1 -77.5 10.5t-63 29t-44.5 53.5t-16 81q0 169 214 169q46 0 119 -10q-1 30 -6.5 51t-21 41.5t-47 31t-79.5 10.5q-69 0 -115 -29zM378 70v206
q-67 9 -110 9q-36 0 -64 -5.5t-51.5 -18.5t-36 -38t-12.5 -60q0 -123 151 -123q68 0 123 30z" />
    <glyph glyph-name="uni0431" unicode="&#x431;" horiz-adv-x="564" 
d="M415 700v-54q-51 -3 -74.5 -5t-62.5 -7.5t-64 -15.5t-44 -26q-33 -25 -48 -62t-17 -108q43 78 152 78q59 0 101 -25t63.5 -69.5t21.5 -104.5v-115q0 -31 -6.5 -58.5t-21.5 -53.5t-37 -44.5t-55 -29.5t-74 -11q-51 0 -90 16.5t-61.5 45t-34 62.5t-11.5 73v133
q0 148 13 210t63 104q18 16 46 28t50 18t65.5 11t60 6t65.5 4zM380 186v115q0 46 -15 78.5t-45 50t-71 17.5q-134 0 -134 -146v-115q0 -62 33.5 -103t100.5 -41q66 0 98.5 41t32.5 103z" />
    <glyph glyph-name="uni0432" unicode="&#x432;" horiz-adv-x="508" 
d="M73 500h213q25 0 49.5 -6t48 -20t38 -40t14.5 -62q0 -25 -8 -46.5t-18.5 -33t-21.5 -20t-18 -11.5l-8 -3q2 0 5 -1t11.5 -5.5t16.5 -10t17.5 -15.5t16.5 -22t12 -29.5t5 -38.5q0 -37 -15 -65.5t-38.5 -43t-47.5 -21t-48 -6.5h-224v500zM136 279h142q45 0 71 22t26 64
q0 41 -26 62.5t-71 21.5h-142v-170zM136 51h149q15 0 30 3.5t32 12.5t27.5 28.5t10.5 47.5q0 27 -11 46.5t-27.5 29t-31.5 13t-30 3.5h-149v-184z" />
    <glyph glyph-name="uni0433" unicode="&#x433;" horiz-adv-x="421" 
d="M385 450h-249v-450h-63v501h312v-51z" />
    <glyph glyph-name="uni0434" unicode="&#x434;" horiz-adv-x="586" 
d="M487 52h69v-173h-58v122h-409v-122h-58v174q22 0 34.5 1t24 5t21.5 13q27 23 27 70v359h349v-449zM201 450v-305q0 -60 -34 -93h257v398h-223z" />
    <glyph glyph-name="uni0435" unicode="&#x435;" horiz-adv-x="477" 
d="M52 152v177q0 85 52 133t143 48q89 0 136 -47.5t47 -131.5v-102h-316v-84q0 -52 33.5 -79.5t87.5 -27.5q70 0 138 42l34 -32q-34 -28 -78 -43t-99 -16q-57 0 -97 20t-60.5 56.5t-20.5 86.5zM371 273v60q0 34 -11 59.5t-29.5 39.5t-39.5 20.5t-46 6.5q-55 0 -92.5 -31
t-37.5 -97v-58h256z" />
    <glyph glyph-name="uni0436" unicode="&#x436;" horiz-adv-x="778" 
d="M420 262l241 239h74l-248 -239l268 -261h-76l-259 257v-258h-61v258l-260 -257h-75l268 261l-249 239h74l242 -239v241h61v-241z" />
    <glyph glyph-name="uni0437" unicode="&#x437;" horiz-adv-x="454" 
d="M100 424l-47 25q61 62 156 62q50 0 90.5 -12.5t68 -43.5t27.5 -76q0 -13 -2.5 -25.5t-6.5 -22.5t-9 -18t-12 -15t-12 -12.5t-12.5 -10t-11 -7t-9 -5l-5.5 -2.5l5.5 -2.5t9 -4.5l10.5 -6t12.5 -8t13 -10t12.5 -12.5t10.5 -15.5t9 -19t6 -22t2.5 -25q0 -37 -20 -66
t-52 -45.5t-67.5 -25t-70.5 -8.5q-97 0 -149 50l45 26q45 -23 101 -24q22 0 46 5t48.5 15t40 30t15.5 47q0 34 -19 56.5t-44 30.5t-54 8h-79v44h79q49 0 77.5 24.5t28.5 66.5t-33.5 65.5t-93.5 23.5q-58 0 -105 -35z" />
    <glyph glyph-name="uni0438" unicode="&#x438;" horiz-adv-x="522" 
d="M450 0h-60v388l-254 -388h-63v501h60v-388l254 388h63v-501z" />
    <glyph glyph-name="uni0439" unicode="&#x439;" horiz-adv-x="522" 
d="M361 708h35q0 -55 -37.5 -92t-92.5 -37t-92.5 37t-37.5 92h35q1 -37 28 -63.5t67 -26.5q39 0 66 26.5t29 63.5zM450 0h-60v388l-254 -388h-63v501h60v-388l254 388h63v-501z" />
    <glyph glyph-name="uni043A" unicode="&#x43a;" horiz-adv-x="492" 
d="M133 262l242 238h74l-249 -239l269 -261h-76l-260 257v-257h-60v502h60v-240z" />
    <glyph glyph-name="uni043B" unicode="&#x43b;" horiz-adv-x="557" 
d="M484 0h-63v450h-223v-313q0 -78 -49 -117q-42 -31 -104 -31v55q40 0 63 19q28 23 28 71v367h348v-501z" />
    <glyph glyph-name="uni043C" unicode="&#x43c;" horiz-adv-x="611" 
d="M539 0h-60v378l-147 -378h-52l-147 378v-378h-60v503h63l170 -437l170 437h63v-503z" />
    <glyph glyph-name="uni043D" unicode="&#x43d;" horiz-adv-x="522" 
d="M450 0h-63v226h-251v-226h-63v503h63v-226h251v226h63v-503z" />
    <glyph glyph-name="uni043E" unicode="&#x43e;" horiz-adv-x="495" 
d="M52 188v124q0 96 51 147.5t146 51.5q93 0 143.5 -53.5t50.5 -145.5v-124q0 -39 -11 -73t-33 -62.5t-60.5 -45t-89.5 -16.5q-41 0 -74.5 11t-56 29.5t-37.5 44t-22 53.5t-7 59zM380 188v124q0 27 -5.5 50t-16.5 41t-26.5 30.5t-36.5 19t-46 6.5q-134 0 -134 -147v-124
q0 -62 33.5 -103.5t100.5 -41.5q66 0 98.5 41t32.5 104z" />
    <glyph glyph-name="uni043F" unicode="&#x43f;" horiz-adv-x="522" 
d="M450 0h-63v450h-251v-450h-63v501h377v-501z" />
    <glyph glyph-name="uni0440" unicode="&#x440;" horiz-adv-x="514" 
d="M125 500l1 -26q62 35 143 35q30 0 57.5 -5.5t52.5 -18t43 -31.5t29 -48.5t11 -65.5v-177q0 -38 -10.5 -68t-28 -49.5t-42 -32t-50.5 -17.5t-55 -5q-71 0 -139 28v-221h-63v702h51zM399 166v175q0 58 -38 87.5t-100 29.5q-68 0 -124 -28v-362q58 -26 128 -26
q134 0 134 124z" />
    <glyph glyph-name="uni0441" unicode="&#x441;" horiz-adv-x="446" 
d="M52 194v112q0 66 25 112.5t68.5 69t101.5 22.5q90 0 151 -62l-47 -25q-47 34 -104 34q-59 0 -95.5 -38t-36.5 -113v-112q0 -75 36.5 -113t95.5 -38q57 0 104 35l47 -25q-61 -62 -151 -62q-58 0 -101.5 22.5t-68.5 69t-25 111.5z" />
    <glyph glyph-name="uni0442" unicode="&#x442;" horiz-adv-x="455" 
d="M415 449h-156v-449h-63v449h-155v52h374v-52z" />
    <glyph glyph-name="uni0443" unicode="&#x443;" horiz-adv-x="521" 
d="M452 501v-537q0 -80 -46 -121t-123 -41q-98 1 -177 52l25 38q74 -42 140 -42q53 0 85 27.5t33 81.5v69q-58 -28 -140 -28q-39 0 -71 9t-58 28t-41 52.5t-15 79.5v332h63v-328q0 -125 134 -125q71 0 128 26v427h63z" />
    <glyph glyph-name="uni0444" unicode="&#x444;" horiz-adv-x="661" 
d="M362 507h18q52 0 91.5 -12.5t71.5 -40.5t49 -78t17 -120q0 -140 -54.5 -201t-173.5 -61h-19v-196h-63v196h-20q-81 0 -131.5 29t-73 85.5t-22.5 146.5q0 71 17 121t48.5 78t71 40.5t91.5 12.5h19v194h63v-194zM299 454h-18q-36 0 -63.5 -8.5t-52 -29t-37.5 -61
t-13 -100.5q0 -112 39 -160t126 -48h19v407zM362 47h17q86 1 126.5 47t40.5 161q0 59 -13 99.5t-37.5 61.5t-52 29t-63.5 9h-18v-407z" />
    <glyph glyph-name="uni0445" unicode="&#x445;" horiz-adv-x="418" 
d="M251 250l146 -250h-68l-118 204l-123 -204h-69l154 251l-147 250h69l117 -208l117 208h68z" />
    <glyph glyph-name="uni0446" unicode="&#x446;" horiz-adv-x="549" 
d="M450 52h69v-172h-59v121h-387v500h63v-449h251v449h63v-449z" />
    <glyph glyph-name="uni0447" unicode="&#x447;" horiz-adv-x="497" 
d="M117 503v-164q0 -91 93 -91q46 0 151 21v234h63v-503h-63v213q-109 -22 -170 -22q-41 0 -71.5 14.5t-48 45t-17.5 74.5v178h63z" />
    <glyph glyph-name="uni0448" unicode="&#x448;" horiz-adv-x="754" 
d="M681 0h-608v501h63v-450h210v450h62v-450h210v450h63v-501z" />
    <glyph glyph-name="uni0449" unicode="&#x449;" horiz-adv-x="780" 
d="M681 51h69v-172h-58v121h-619v501h63v-450h210v450h62v-450h210v450h63v-450z" />
    <glyph glyph-name="uni044A" unicode="&#x44a;" horiz-adv-x="542" 
d="M187 293h154q25 0 50.5 -8t50.5 -24t40 -46t15 -69t-15 -69t-39.5 -46t-49.5 -23.5t-49 -7.5h-220v445h-120v55h183v-207zM187 241v-190h145q16 0 32 4t33 13.5t28 29.5t11 48t-11 48t-28 29.5t-33 13.5t-32 4h-145z" />
    <glyph glyph-name="uni044B" unicode="&#x44b;" horiz-adv-x="647" 
d="M136 293h153q25 0 51 -8t50.5 -24t40 -46t15.5 -69t-15.5 -69t-40 -46t-49.5 -23.5t-49 -7.5h-219v500h63v-207zM574 0h-63v500h63v-500zM136 241v-190h144q16 0 32 4t33.5 13.5t28.5 29.5t11 48t-11 48t-28.5 29.5t-33.5 13.5t-32 4h-144z" />
    <glyph glyph-name="uni044C" unicode="&#x44c;" horiz-adv-x="490" 
d="M136 293h153q25 0 51 -8t50.5 -24t40 -46t15.5 -69t-15.5 -69t-40 -46t-49.5 -23.5t-49 -7.5h-219v500h63v-207zM136 241v-190h144q16 0 32 4t33.5 13.5t28.5 29.5t11 48t-11 48t-28.5 29.5t-33.5 13.5t-32 4h-144z" />
    <glyph glyph-name="uni044D" unicode="&#x44d;" horiz-adv-x="451" 
d="M98 432l-46 26q61 59 149 59q89 0 142 -52.5t53 -150.5v-121q0 -195 -206 -195q-83 0 -140 48l45 26q46 -21 95 -21q70 0 106.5 30.5t36.5 108.5v46h-184v43h184v38q0 37 -10 65.5t-28 46t-41.5 26.5t-52.5 9q-55 0 -103 -32z" />
    <glyph glyph-name="uni044E" unicode="&#x44e;" horiz-adv-x="682" 
d="M240 276v43q2 92 53 142t144 50t143.5 -53.5t50.5 -145.5v-124q0 -31 -6.5 -59t-21.5 -53.5t-37 -44t-55 -29.5t-74 -11q-50 0 -88 16t-61 43t-35 60t-13 71v44h-104v-225h-63v502h63v-226h104zM568 188v124q0 69 -34.5 107.5t-96.5 38.5q-134 0 -134 -146v-124
q0 -62 33.5 -103.5t100.5 -41.5q66 0 98.5 41t32.5 104z" />
    <glyph glyph-name="uni044F" unicode="&#x44f;" horiz-adv-x="515" 
d="M442 0h-63v208h-124l-129 -208h-67l139 218l-7 1q-20 5 -37.5 12.5t-38.5 22t-33.5 40.5t-12.5 60q0 39 15.5 69t40 46t49.5 23.5t49 7.5h219v-500zM379 449h-144q-16 0 -32 -4t-33.5 -13.5t-28 -29.5t-10.5 -48t10.5 -48t28 -29.5t33.5 -13.5t32 -4h144v190z" />
    <glyph glyph-name="Wgrave" unicode="&#x1e80;" horiz-adv-x="811" 
d="M435 783h-46l-74 117h67zM610 0h-82l-121 550l-122 -550h-82l-172 700h69l144 -615l131 615h63l131 -615l142 615h69z" />
    <glyph glyph-name="wgrave" unicode="&#x1e81;" horiz-adv-x="702" 
d="M387 583h-46l-73 117h67zM520 0h-63l-106 375l-106 -375h-62l-164 501h66l127 -413l112 413h53l112 -413l128 413h66z" />
    <glyph glyph-name="Wacute" unicode="&#x1e82;" horiz-adv-x="811" 
d="M431 782h-45l52 116h67zM610 0h-82l-121 550l-122 -550h-82l-172 700h69l144 -615l131 615h63l131 -615l142 615h69z" />
    <glyph glyph-name="wacute" unicode="&#x1e83;" horiz-adv-x="702" 
d="M369 583h-46l53 117h67zM520 0h-63l-106 375l-106 -375h-62l-164 501h66l127 -413l112 413h53l112 -413l128 413h66z" />
    <glyph glyph-name="Wdieresis" unicode="&#x1e84;" horiz-adv-x="811" 
d="M320 866q8 0 15.5 -4.5t12 -12t4.5 -16.5t-4.5 -17t-12 -12.5t-16.5 -4.5q-14 0 -23.5 10t-9.5 24q0 9 4.5 16.5t12 12t17.5 4.5zM496 866q9 0 16.5 -4.5t12 -12t4.5 -16.5t-4.5 -17t-12 -12.5t-16.5 -4.5q-14 0 -23.5 10t-9.5 24q0 9 4.5 16.5t12 12t16.5 4.5zM610 0
h-82l-121 550l-122 -550h-82l-172 700h69l144 -615l131 615h63l131 -615l142 615h69z" />
    <glyph glyph-name="wdieresis" unicode="&#x1e85;" horiz-adv-x="702" 
d="M265 667q14 0 23 -9.5t9 -23.5t-9.5 -24t-22.5 -10q-9 0 -17 4.5t-12.5 12.5t-4.5 17q0 14 10 23.5t24 9.5zM442 667q13 0 22.5 -9.5t9.5 -23.5t-9.5 -24t-22.5 -10q-9 0 -17 4.5t-12.5 12.5t-4.5 17q0 14 10 23.5t24 9.5zM520 0h-63l-106 375l-106 -375h-62l-164 501h66
l127 -413l112 413h53l112 -413l128 413h66z" />
    <glyph glyph-name="Ygrave" unicode="&#x1ef2;" horiz-adv-x="580" 
d="M336 784h-45l-74 116h67zM322 337v-337h-65v335l-226 365h76l182 -300l182 300h78z" />
    <glyph glyph-name="ygrave" unicode="&#x1ef3;" horiz-adv-x="521" 
d="M320 583h-45l-74 117h67zM452 501v-537q0 -41 -13 -72.5t-36 -51t-53.5 -29t-67.5 -9.5q-97 0 -176 52l25 37q67 -39 136 -39q121 0 122 107v69q-58 -28 -140 -28q-39 0 -71 9t-58 28t-41 52.5t-15 79.5v332h63v-328q0 -125 134 -125q71 0 128 26v427h63z" />
    <glyph glyph-name="endash" unicode="&#x2013;" horiz-adv-x="530" 
d="M494 247h-451v59h451v-59z" />
    <glyph glyph-name="emdash" unicode="&#x2014;" horiz-adv-x="698" 
d="M663 247h-620v59h620v-59z" />
    <glyph glyph-name="quoteleft" unicode="&#x2018;" horiz-adv-x="137" 
d="M121 774l-21 -62q15 -11 15 -30q0 -15 -11 -26t-26.5 -11t-26.5 11t-11 26q0 10 4 18l35 74h42z" />
    <glyph glyph-name="quoteright" unicode="&#x2019;" horiz-adv-x="151" 
d="M37 645l21 61q-15 11 -15 30q0 15 11 26.5t26.5 11.5t26.5 -11.5t11 -26.5q0 -9 -4 -17l-35 -74h-42z" />
    <glyph glyph-name="quotesinglbase" unicode="&#x201a;" horiz-adv-x="145" 
d="M35 -57l21 62q-16 11 -16 30q0 15 11 26t26.5 11t27 -11t11.5 -26q0 -10 -5 -18l-35 -74h-41z" />
    <glyph glyph-name="quotedblleft" unicode="&#x201c;" horiz-adv-x="262" 
d="M121 774l-21 -62q15 -11 15 -30q0 -15 -11 -26t-26.5 -11t-26.5 11t-11 26q0 10 4 18l35 74h42zM232 774l-21 -62q16 -11 16 -30q0 -15 -11 -26t-26.5 -11t-26.5 11t-11 26q0 10 4 18l35 74h41z" />
    <glyph glyph-name="quotedblright" unicode="&#x201d;" horiz-adv-x="262" 
d="M37 645l21 61q-15 11 -15 30q0 15 11 26.5t26.5 11.5t26.5 -11.5t11 -26.5q0 -9 -4 -17l-35 -74h-42zM149 645l21 61q-16 11 -16 30q0 15 11 26.5t26.5 11.5t26.5 -11.5t11 -26.5q0 -9 -4 -17l-35 -74h-41z" />
    <glyph glyph-name="quotedblbase" unicode="&#x201e;" horiz-adv-x="257" 
d="M35 -57l21 62q-16 11 -16 30q0 15 11 26t26.5 11t27 -11t11.5 -26q0 -10 -5 -18l-35 -74h-41zM146 -57l21 62q-15 11 -15 30q0 15 11 26t26.5 11t26.5 -11t11 -26q0 -10 -4 -18l-35 -74h-42z" />
    <glyph glyph-name="dagger" unicode="&#x2020;" horiz-adv-x="459" 
d="M261 403h148v-58h-148v-395h-62v395h-149v58h149v297h62v-297z" />
    <glyph glyph-name="daggerdbl" unicode="&#x2021;" horiz-adv-x="459" 
d="M260 529h149v-57h-149v-288h149v-58h-149v-176h-62v176h-148v58h148v288h-148v57h148v171h62v-171z" />
    <glyph glyph-name="bullet" unicode="&#x2022;" horiz-adv-x="303" 
d="M154 431q46 0 78.5 -32.5t32.5 -78.5t-32.5 -78.5t-78.5 -32.5t-78.5 32.5t-32.5 78.5t32.5 78.5t78.5 32.5z" />
    <glyph glyph-name="ellipsis" unicode="&#x2026;" horiz-adv-x="541" 
d="M74.5 72q15.5 0 27 -11t11.5 -26.5t-11.5 -26.5t-27 -11t-26.5 11t-11 26.5t11 26.5t26.5 11zM274 72q15 0 26.5 -11t11.5 -26.5t-11.5 -26.5t-26.5 -11t-26.5 11t-11.5 26.5t11.5 26.5t26.5 11zM473.5 72q15.5 0 26.5 -11t11 -26q0 -10 -5 -19t-13.5 -14t-18.5 -5
q-16 0 -27 11t-11 26.5t11 26.5t26.5 11z" />
    <glyph glyph-name="perthousand" unicode="&#x2030;" horiz-adv-x="1076" 
d="M199 711q63 0 108 -44.5t45 -107.5q0 -62 -45 -106.5t-108 -45.5q-63 0 -107.5 44t-44.5 108q0 63 44.5 107.5t107.5 44.5zM139 0h-68l529 700h68zM199 664q-28 0 -52.5 -14t-38 -38t-13.5 -53q0 -44 30.5 -74t73.5 -30q44 0 74.5 30.5t30.5 73.5t-30.5 74t-74.5 31z
M891 291q62 0 107 -44.5t45 -107.5t-44.5 -107.5t-107.5 -44.5q-64 0 -108 44.5t-44 107.5t44 107.5t108 44.5zM539 291q41 0 76 -20.5t55.5 -55.5t20.5 -76q0 -31 -12 -59.5t-32.5 -48.5t-48.5 -32t-59 -12q-64 0 -108 44t-44 108q0 63 44.5 107.5t107.5 44.5zM891 244
q-44 0 -74.5 -30.5t-30.5 -74.5q0 -43 30.5 -73.5t74.5 -30.5q43 0 74 30.5t31 73.5q0 44 -31 74.5t-74 30.5zM539 244q-44 0 -74.5 -30.5t-30.5 -74.5t30.5 -74t74.5 -30q43 0 74 30.5t31 73.5q0 44 -31 74.5t-74 30.5z" />
    <glyph glyph-name="guilsinglleft" unicode="&#x2039;" horiz-adv-x="315" 
d="M280 427l-160 -159l160 -158l-41 -42l-199 200l199 199z" />
    <glyph glyph-name="guilsinglright" unicode="&#x203a;" horiz-adv-x="315" 
d="M282 268l-199 -200l-40 42l159 158l-159 159l40 40z" />
    <glyph glyph-name="fraction" unicode="&#x2044;" horiz-adv-x="380" 
d="M97 0h-57l243 700h57z" />
    <glyph glyph-name="Euro" unicode="&#x20ac;" horiz-adv-x="601" 
d="M122 426v79q0 55 19.5 96.5t52 65.5t71.5 36t82 12q70 0 125 -30t79 -89l-50 -23q-19 42 -59.5 62.5t-89.5 20.5q-31 0 -59 -8t-52.5 -25t-39 -47.5t-14.5 -71.5v-78h215v-38h-215v-74h215v-38h-215v-76q0 -40 15 -70.5t39 -47.5t52 -25.5t59 -8.5q49 0 89.5 20.5
t59.5 63.5l50 -23q-24 -59 -79 -89.5t-125 -30.5q-28 0 -55 5t-52.5 16t-46.5 28t-37 40t-25 54t-9 68v76h-57v38h57v74h-57v38h57z" />
    <glyph glyph-name="trademark" unicode="&#x2122;" horiz-adv-x="718" 
d="M298 657h-108v-363h-49v363h-104v43h261v-43zM680 294h-47v286l-102 -270h-36l-101 271v-287h-48v406h47l121 -317l120 317h46v-406z" />
    <glyph glyph-name="oneeighth" unicode="&#x215b;" horiz-adv-x="736" 
d="M180 279h-48v343q-14 -13 -32 -21q-23 -9 -43 -10l-13 47q24 3 49 16q33 17 45 46h42v-421zM238 0h-58l243 700h58zM562 427q32 0 57.5 -14t40.5 -39.5t15 -57.5q0 -57 -53 -89q14 -7 27.5 -17.5t28 -35t14.5 -54.5q0 -56 -38 -91.5t-92 -35.5q-56 0 -94 35t-38 92
q0 23 8 43t20.5 33t22.5 20t20 12q-52 32 -52 88q0 47 32.5 79t80.5 32zM562 383q-29 0 -47.5 -20.5t-18.5 -48.5q0 -26 20 -45.5t46 -19.5t46 18.5t20 46.5q0 29 -18.5 49t-47.5 20zM562 204q-38 0 -61.5 -25.5t-23.5 -56.5q0 -15 5.5 -29.5t16 -26.5t27 -19.5t36.5 -7.5
q38 0 60.5 25t22.5 58q0 31 -24 56.5t-59 25.5z" />
    <glyph glyph-name="threeeighths" unicode="&#x215c;" horiz-adv-x="809" 
d="M99 620l-44 18q13 32 41.5 52t65.5 20q46 0 78 -31t32 -80q0 -57 -49 -84q34 -16 53 -45.5t19 -65.5q0 -55 -38.5 -91.5t-95.5 -36.5q-37 0 -67.5 17t-49.5 46l39 25q25 -41 77 -41q25 0 44.5 10.5t30.5 30t11 44.5q0 35 -25.5 59.5t-59.5 24.5h-37v42h35q27 0 46.5 18
t19.5 45q0 28 -18.5 47t-46.5 19q-14 0 -26 -5.5t-21 -15t-14 -22.5zM318 0h-58l243 700h58zM635 427q49 0 81 -31t32 -80q0 -57 -53 -89q14 -7 27.5 -17.5t28 -35t14.5 -54.5q0 -56 -37.5 -91.5t-92.5 -35.5q-36 0 -66 15t-48 44.5t-18 67.5q0 23 8 43t20.5 33t22.5 20
t20 12q-52 32 -52 88q0 47 32.5 79t80.5 32zM635 383q-29 0 -47.5 -20.5t-18.5 -48.5q0 -26 20 -45.5t46 -19.5t46 18.5t20 46.5q0 29 -18 49t-48 20zM635 204q-19 0 -35.5 -7.5t-27 -19.5t-16.5 -26.5t-6 -28.5q0 -32 23 -57.5t62 -25.5q26 0 45.5 12.5t29 31t9.5 39.5
q0 31 -24.5 56.5t-59.5 25.5z" />
    <glyph glyph-name="fiveeighths" unicode="&#x215d;" horiz-adv-x="809" 
d="M256 655h-137l-13 -112h51q53 -1 93 -37t40 -96q0 -65 -43 -101.5t-97 -36.5q-39 0 -70.5 19.5t-45.5 43.5l39 24q11 -18 32.5 -30t44.5 -12q40 0 65.5 28t25.5 63q0 36 -25 63t-65 27h-94l22 202h177v-45zM317 0h-57l243 700h57zM635 427q49 0 81 -31t32 -80
q0 -57 -53 -89q14 -7 27.5 -17.5t28 -35t14.5 -54.5q0 -37 -17.5 -66.5t-47.5 -45t-65 -15.5q-55 0 -93.5 35t-38.5 92q0 23 8 43t20.5 33t22.5 20t20 12q-52 32 -52 88q0 47 32.5 79t80.5 32zM635 383q-19 0 -34.5 -10t-23.5 -25.5t-8 -33.5q0 -26 20 -45.5t46 -19.5
t46 18.5t20 46.5q0 19 -8 34.5t-23 25t-35 9.5zM635 204q-37 0 -61 -25.5t-24 -56.5q0 -32 23 -57.5t61.5 -25.5t61.5 25t23 58q0 31 -24.5 56.5t-59.5 25.5z" />
    <glyph glyph-name="seveneighths" unicode="&#x215e;" horiz-adv-x="710" 
d="M281 665l-193 -377h-51l187 366h-192v46h249v-35zM216 0h-58l243 700h58zM537 427q48 0 80 -31t32 -80q0 -57 -53 -89q15 -7 28 -17.5t28 -35t15 -54.5q0 -56 -38 -91.5t-93 -35.5q-36 0 -65.5 15t-47.5 44.5t-18 67.5q0 23 7.5 43t20.5 33t23 20t20 12q-53 32 -53 88
q0 47 32.5 79t81.5 32zM537 383q-29 0 -48 -20.5t-19 -48.5q0 -26 20.5 -45.5t45.5 -19.5q17 0 32 8t24.5 23.5t9.5 33.5q0 19 -8 34.5t-23 25t-34 9.5zM536 204q-37 0 -61 -25.5t-24 -56.5q0 -32 23.5 -57.5t61.5 -25.5q26 0 45.5 12.5t29 31t9.5 39.5q0 20 -10.5 38.5
t-30.5 31t-43 12.5z" />
    <glyph glyph-name="partialdiff" unicode="&#x2202;" horiz-adv-x="833" 
 />
    <glyph glyph-name="product" unicode="&#x220f;" horiz-adv-x="833" 
 />
    <glyph glyph-name="summation" unicode="&#x2211;" horiz-adv-x="833" 
 />
    <glyph glyph-name="minus" unicode="&#x2212;" horiz-adv-x="459" 
d="M409 282h-359v58h359v-58z" />
    <glyph glyph-name="radical" unicode="&#x221a;" horiz-adv-x="833" 
 />
    <glyph glyph-name="infinity" unicode="&#x221e;" horiz-adv-x="833" 
 />
    <glyph glyph-name="integral" unicode="&#x222b;" horiz-adv-x="833" 
 />
    <glyph glyph-name="approxequal" unicode="&#x2248;" horiz-adv-x="504" 
d="M71 330l-32 37q47 56 121 56q38 0 105 -23q62 -22 97 -22q43 0 72 32l32 -38q-41 -43 -104 -43q-37 0 -111 25q-59 20 -91 20q-53 0 -89 -44zM71 147l-32 36q47 57 121 57q36 0 106 -24q59 -21 96 -21q43 0 72 32l32 -38q-42 -43 -104 -43q-38 0 -110 24q-60 21 -92 21
q-53 0 -89 -44z" />
    <glyph glyph-name="notequal" unicode="&#x2260;" horiz-adv-x="459" 
d="M303 411h106v-57h-126l-42 -123h168v-57h-188l-66 -190h-63l66 190h-108v57h128l42 123h-170v57h190l64 184h63z" />
    <glyph glyph-name="lessequal" unicode="&#x2264;" horiz-adv-x="443" 
d="M368 653l-251 -251l251 -252l-33 -33l-284 285l284 284zM393 0h-343v52h343v-52z" />
    <glyph glyph-name="greaterequal" unicode="&#x2265;" horiz-adv-x="443" 
d="M393 402l-284 -285l-33 33l251 252l-251 251l33 33zM393 0h-343v52h343v-52z" />
    <glyph glyph-name="lozenge" unicode="&#x25ca;" horiz-adv-x="833" 
 />
    <glyph glyph-name="uniF8FF" unicode="&#xf8ff;" horiz-adv-x="0" 
 />
    <glyph glyph-name="a.ss01" horiz-adv-x="509" 
d="M440 0h-51l-1 26q-61 -34 -143 -34q-38 0 -71.5 9t-61.5 28t-44 52.5t-16 79.5v177q0 46 15.5 81t42.5 54t59 27.5t69 8.5q76 0 150 -33l1 25h51v-501zM377 71v362q-57 26 -128 26q-134 0 -134 -125v-174q0 -59 38.5 -88t100.5 -29q68 0 123 28z" />
    <glyph glyph-name="e.ss01" horiz-adv-x="477" 
d="M52 152v177q0 85 52 133t143 48q85 0 134.5 -45t49.5 -119q0 -40 -14.5 -70t-39.5 -47t-55.5 -25t-66.5 -8q-72 0 -141 27v-77q0 -107 121 -107q78 0 137 40l35 -31q-72 -59 -176 -59q-86 0 -132.5 43.5t-46.5 119.5zM115 336v-65q60 -30 134 -30q26 0 47 5.5t39 17
t28 32.5t10 50q0 53 -33 82.5t-93 29.5q-40 0 -70 -13.5t-46 -41.5t-16 -67z" />
    <glyph glyph-name="T_h" horiz-adv-x="1024" 
d="M636 700v-220q59 29 134 29q38 0 70.5 -8.5t60 -27.5t43.5 -53t16 -80v-340h-63v337q0 42 -18 70t-47.5 40t-69.5 12q-68 0 -126 -28v-431h-63v641h-282v-641h-65v641h-186v59h596z" />
    <glyph glyph-name="c_h" horiz-adv-x="972" 
d="M52 194v112q0 49 13.5 87t37.5 61.5t54.5 36.5t66.5 16q11 1 23 1q37 0 75 -10q-17 29 -17 63q0 53 39 98q49 58 126 58q65 0 114 -47v-190q59 29 134 29q38 0 70.5 -8.5t60 -27.5t43.5 -53t16 -80v-340h-63v337q0 63 -36.5 92.5t-98.5 29.5q-68 0 -126 -28v-431h-63v650
q-25 13 -54 13q-51 0 -82 -35q-30 -33 -30 -79q0 -18 7 -37t14 -31t22 -33l-47 -25q-47 34 -104 34q-59 0 -95.5 -38t-36.5 -113v-112q0 -75 36.5 -113t95.5 -38q57 0 104 35l47 -25q-61 -62 -151 -62q-58 0 -101.5 22.5t-68.5 69t-25 111.5z" />
    <glyph glyph-name="c_t" horiz-adv-x="787" 
d="M51 194v113q0 95 49.5 146.5t133.5 55.5q42 1 87 -11q-18 30 -18 64q0 61 50 109q47 46 116 46q61 0 113 -47v-169h132v-53h-132v-250q0 -125 101 -150q27 -7 64 -5v-53q-38 -2 -69 4q-73 13 -116 61t-43 134v461q-24 13 -52 13q-46 0 -78 -30q-36 -34 -36 -84
q0 -9 2 -19t4 -16.5t8 -17.5t8.5 -15t11 -17t9.5 -16l-46 -25q-48 34 -104 34q-60 0 -96 -38t-36 -112v-113q0 -74 36 -112t96 -38q56 0 104 34l46 -25q-60 -62 -150 -62q-58 0 -101.5 22.5t-68.5 69t-25 111.5z" />
    <glyph glyph-name="f_b" horiz-adv-x="801" 
d="M73 0v545q0 79 45 122.5t120 43.5q49 0 95.5 -11.5t69.5 -23.5l22 -12v-183q68 28 138 28q37 0 68.5 -8.5t59 -27.5t43 -53.5t15.5 -81.5v-177q0 -46 -16 -80t-44.5 -52.5t-61.5 -27.5t-71 -9q-82 0 -142 34l-2 -26h-50v633q-61 25 -121 25q-16 0 -32 -4.5t-33.5 -16
t-28.5 -37t-11 -61.5v-38h132v-50h-132v-451h-63zM686 160v174q0 125 -133 125q-71 0 -128 -26v-362q55 -28 123 -28q62 0 100 29t38 88z" />
    <glyph glyph-name="f_h" horiz-adv-x="814" 
d="M73 0v545q0 53 21 91t58 56.5t86 18.5t95.5 -11.5t69.5 -23.5l22 -12v-184q59 29 134 29q38 0 70.5 -8.5t60 -27.5t43.5 -53t16 -80v-340h-63v337q0 42 -18 70t-47.5 40t-69.5 12q-68 0 -126 -28v-431h-63v633q-61 25 -121 25q-16 0 -32 -4.5t-33.5 -16t-28.5 -37
t-11 -61.5v-38h132v-50h-132v-451h-63z" />
    <glyph glyph-name="f_i" horiz-adv-x="494" 
d="M73 0v545q0 53 21 91t58 56.5t86 18.5q18 0 37 -2t33 -5t29.5 -7.5t23.5 -7t17.5 -6.5l9.5 -4v-48q-62 27 -138 27q-20 0 -37 -4.5t-36 -15.5t-30 -37t-11 -63v-37h289v-501h-63v451h-226v-451h-63z" />
    <glyph glyph-name="f_j" horiz-adv-x="494" 
d="M73 0v545q0 79 45 122.5t120 43.5q18 0 37 -2t33 -5t29.5 -7.5t23.5 -7t17.5 -6.5l9.5 -4v-48q-62 27 -138 27q-20 0 -36.5 -4t-35.5 -15.5t-30.5 -36.5t-11.5 -62v-39h289v-561q0 -48 -25.5 -81t-69.5 -48q-23 -10 -49 -11l-3 52q26 3 43 12q41 23 41 85v502h-226v-451
h-63z" />
    <glyph glyph-name="f_k" horiz-adv-x="787" 
d="M74 0v545q0 53 21.5 91t58.5 56.5t85 18.5q49 0 96 -11.5t69 -23.5l22 -12v-387l236 231h78l-198 -202l226 -306h-71l-194 263l-77 -72v-191h-63v633q-61 25 -121 25q-16 0 -31.5 -4.5t-33.5 -16t-29 -36.5t-11 -62v-38h133v-50h-133v-451h-63z" />
    <glyph glyph-name="f_l" horiz-adv-x="490" 
d="M73 0v545q0 53 21 91t58 56.5t86 18.5t95.5 -11.5t69.5 -23.5l22 -12v-664h-63v633q-61 25 -121 25q-16 0 -32 -4.5t-33.5 -16t-28.5 -37t-11 -61.5v-38h132v-50h-132v-451h-63z" />
    <glyph glyph-name="s_p" horiz-adv-x="971" 
d="M39 133h61q4 -40 36 -66.5t92 -26.5q36 0 63.5 12t42 33t14.5 48q0 15 -4.5 27.5t-15 22.5t-20.5 17t-28 14t-30 11t-35 10q-30 8 -49 14t-43 18t-37.5 25t-23 33.5t-9.5 46.5q0 58 41 98.5t126 40.5q32 0 63 -7q-13 28 -13 60q0 61 45 104.5t109 43.5q66 0 112.5 -47
t47.5 -112v-78q60 34 142 34q38 0 71.5 -9t61.5 -28t44 -53t16 -79v-177q0 -47 -15.5 -82t-43 -53.5t-59 -27.5t-68.5 -9q-71 0 -139 28v-221h-63v755q0 44 -32 75t-75 31q-44 0 -75.5 -31.5t-31.5 -75.5t32 -73q52 -38 52 -107h-61q0 35 -27.5 61t-85 26t-85.5 -26t-27 -61
q0 -34 30.5 -52.5t91.5 -35.5q41 -11 68.5 -21.5t53.5 -27.5t39 -42.5t13 -59.5q0 -63 -47 -104.5t-132 -41.5q-92 0 -141 41.5t-52 104.5zM856 166v175q0 58 -38 87.5t-100 29.5q-68 0 -124 -28v-362q57 -26 128 -26q134 0 134 124z" />
    <glyph glyph-name="s_t" horiz-adv-x="761" 
d="M42 134h61q4 -40 35.5 -67t91.5 -27q55 0 88 26.5t33 66.5q0 19 -8 33.5t-18.5 24t-31 18.5t-35 14t-41.5 12q-30 9 -49 15t-43 17.5t-37.5 24.5t-23 33.5t-9.5 46.5q0 58 42 98.5t127 40.5q29 0 67 -7q-14 27 -14 58q0 58 45 105q49 50 120 50q10 0 19 -1t17.5 -3
t15 -4.5t14.5 -6.5t12.5 -6.5t11.5 -7t9.5 -6.5t8 -6.5t6.5 -4.5v-170h132v-52h-132v-250q0 -129 107 -152q25 -6 57 -4v-53q-32 -2 -63 3q-75 11 -119.5 60t-44.5 137v461q-25 13 -53 13q-44 0 -75 -30q-38 -33 -38 -84q0 -46 31 -76q46 -39 46 -102h-61q0 16 -6 31t-19 28
t-35.5 21t-52.5 8t-52.5 -8t-35 -21t-19 -28t-6.5 -31q0 -34 30.5 -52.5t92.5 -35.5q40 -11 67.5 -21.5t54 -27.5t39.5 -42.5t13 -59.5q0 -62 -47 -104t-133 -42q-91 0 -140.5 41.5t-51.5 105.5z" />
    <glyph glyph-name="zero.lf" horiz-adv-x="575" 
d="M69 192v308q0 105 59.5 160t160.5 55q69 0 118.5 -27t74.5 -75t25 -114v-307q0 -54 -19.5 -95t-52 -63.5t-69.5 -33.5t-77 -11q-41 0 -78 11t-70 33.5t-52.5 63.5t-19.5 95zM444 194v304q0 37 -10 66.5t-29.5 50t-48.5 31t-67 10.5q-75 0 -116 -39t-41 -118v-305
q0 -39 13.5 -68.5t36.5 -45.5t49.5 -24t56.5 -8q31 0 57.5 7.5t49 24t36 46t13.5 68.5z" />
    <glyph glyph-name="one.lf" horiz-adv-x="330" 
d="M241 0h-60v601q-22 -25 -56 -42q-36 -17 -75 -21l-16 59q47 7 85 30q46 28 68 73h54v-700z" />
    <glyph glyph-name="two.lf" horiz-adv-x="474" 
d="M113 549l-61 18q47 143 197 143q53 0 94.5 -24t64.5 -65.5t23 -92.5q0 -79 -54 -147l-241 -322h295v-59h-385v47l274 362q48 63 48 121q0 52 -33.5 87t-85.5 35q-59 0 -90 -27.5t-46 -75.5z" />
    <glyph glyph-name="three.lf" horiz-adv-x="515" 
d="M118 575l-56 23q19 46 64 79t107 33q79 0 132 -51t53 -132q0 -53 -28 -92t-69 -58q53 -19 90 -67.5t37 -112.5q0 -94 -61.5 -151.5t-154.5 -57.5q-64 0 -113 28.5t-76 70.5l49 32q22 -33 59 -52.5t81 -19.5q66 0 109 43t43 108q0 62 -47 106.5t-110 44.5h-54v53h54
q52 0 90.5 35t38.5 88q0 54 -35 90t-88 36q-42 0 -72 -22t-43 -54z" />
    <glyph glyph-name="four.lf" horiz-adv-x="509" 
d="M402 241h62v-56h-62v-185h-62v185h-304v56l300 459h66v-459zM101 241h239v360z" />
    <glyph glyph-name="five.lf" horiz-adv-x="519" 
d="M404 641h-232l-23 -211h92q92 -1 156 -64t64 -154q0 -61 -28.5 -112.5t-81 -81.5t-117.5 -30q-62 0 -113 30t-77 72l49 31q20 -33 59.5 -53.5t81.5 -20.5q72 0 117.5 48.5t46.5 114.5q-1 65 -46 113.5t-117 48.5h-149l37 328h281v-59z" />
    <glyph glyph-name="six.lf" horiz-adv-x="600" 
d="M71 209v254q0 45 15 87.5t44 79t79 58.5t114 22q104 0 176 -61l-39 -45q-54 47 -138 47q-51 0 -90 -17.5t-60 -46t-31 -59t-10 -61.5v-134q28 51 73 74t93 23q93 0 157 -64t64 -156.5t-65.5 -157t-158.5 -64.5t-158 64.5t-65 156.5zM294 371q-46 0 -82 -21.5t-56.5 -58
t-21.5 -82.5q0 -68 46 -115t114.5 -47t114.5 47t46 115.5t-46 115t-115 46.5z" />
    <glyph glyph-name="seven.lf" horiz-adv-x="503" 
d="M443 654l-335 -654h-63l327 640h-336v60h407v-46z" />
    <glyph glyph-name="eight.lf" horiz-adv-x="567" 
d="M285 710q38 0 72.5 -13.5t59 -37t39 -58t14.5 -74.5q0 -36 -14 -67t-35.5 -51t-47.5 -32q53 -19 89.5 -67.5t36.5 -112.5q0 -94 -61 -151.5t-154 -57.5t-155 57.5t-62 151.5q0 65 37 114t91 67q-40 19 -68 58.5t-28 90.5q0 81 53 132t133 51zM285 651q-54 0 -89 -36
t-35 -90q0 -51 37.5 -86t85.5 -35q50 0 87 34.5t37 86.5q0 54 -35 90t-88 36zM284 347q-64 0 -108.5 -43t-44.5 -106q0 -65 44 -108t109 -43q43 0 78 19.5t54.5 54t19.5 77.5q0 62 -45.5 105.5t-106.5 43.5z" />
    <glyph glyph-name="nine.lf" horiz-adv-x="575" 
d="M443 231v135q-27 -52 -72 -75t-93 -23q-93 0 -157 64.5t-64 156.5t65 156.5t158.5 64.5t158 -64.5t64.5 -156.5v-254q0 -36 -8.5 -70.5t-28.5 -66.5t-48.5 -56.5t-71.5 -39t-94 -14.5q-104 0 -176 61l39 45q54 -47 138 -47q51 0 90 17.5t59.5 46t30.5 59t10 61.5z
M280.5 651q-68.5 0 -114.5 -47t-46 -115.5t46 -115t115 -46.5t113.5 46t45.5 116q0 68 -45.5 115t-114 47z" />
    <glyph glyph-name="zero.osf" horiz-adv-x="575" 
d="M69 192v102q0 70 28 119t77 72.5t115 23.5q104 0 161 -58t57 -158v-101q0 -54 -19.5 -95t-52 -63.5t-69.5 -33.5t-77 -11q-41 0 -78 11t-70 33.5t-52.5 63.5t-19.5 95zM444 194v98q0 75 -40 116.5t-115 41.5t-116 -39t-41 -118v-99q0 -39 13.5 -68.5t36.5 -45.5t49.5 -24
t56.5 -8q31 0 57.5 7.5t49 24t36 46t13.5 68.5z" />
    <glyph glyph-name="one.osf" horiz-adv-x="458" 
d="M274 56h112v-56h-289v56h119v351q-22 -23 -54 -40q-34 -15 -68 -20l-14 53q43 8 76 28q46 27 68 71h50v-443z" />
    <glyph glyph-name="two.osf" horiz-adv-x="472" 
d="M113 356l-61 17q48 136 195 136q77 0 129.5 -48.5t52.5 -124.5q0 -40 -27 -83.5t-80 -79.5l-166 -116h273v-57h-385v46l218 146q47 32 75.5 71t28.5 71q0 51 -33 84.5t-85 33.5q-104 0 -135 -96z" />
    <glyph glyph-name="three.osf" horiz-adv-x="515" 
d="M118 374l-56 22q19 47 64 80t107 33q79 0 132 -51.5t53 -131.5q0 -36 -14 -67t-35.5 -51t-47.5 -32q53 -20 90 -68t37 -112q0 -94 -61 -151.5t-155 -57.5q-43 0 -82 14.5t-64.5 36t-42.5 48.5l49 33q22 -34 59 -53.5t81 -19.5q65 0 108.5 43t43.5 108q0 62 -47 106.5
t-110 44.5h-54v53h54q25 0 48.5 9t41.5 25t28.5 39.5t10.5 49.5q0 54 -35 90t-88 36q-42 0 -72 -22t-43 -54z" />
    <glyph glyph-name="four.osf" horiz-adv-x="509" 
d="M402 42h62v-57h-62v-184h-62v184h-304v57l300 459h66v-459zM101 42h239v359z" />
    <glyph glyph-name="five.osf" horiz-adv-x="519" 
d="M404 442h-232l-23 -211h92q92 -1 156 -64t64 -154q0 -61 -28.5 -112t-81 -81t-117.5 -30q-62 0 -113.5 29.5t-76.5 71.5l49 32q13 -22 35.5 -38.5t50 -26t55.5 -9.5q48 0 86 23.5t58 60t20 78.5q-1 65 -46 113.5t-117 48.5h-149l37 329h281v-60z" />
    <glyph glyph-name="six.osf" horiz-adv-x="600" 
d="M71 209v254q0 45 15 87.5t44 79t79 58.5t114 22q104 0 176 -61l-39 -45q-54 47 -138 47q-51 0 -90 -17.5t-60 -46t-31 -59t-10 -61.5v-134q28 51 73 74t93 23q93 0 157 -64t64 -156.5t-65.5 -157t-158.5 -64.5t-158 64.5t-65 156.5zM294 371q-46 0 -82 -21.5t-56.5 -58
t-21.5 -82.5q0 -68 46 -115t114.5 -47t114.5 47t46 115.5t-46 115t-115 46.5z" />
    <glyph glyph-name="seven.osf" horiz-adv-x="503" 
d="M443 455l-335 -654h-63l327 640h-336v60h407v-46z" />
    <glyph glyph-name="eight.osf" horiz-adv-x="567" 
d="M285 710q38 0 72.5 -13.5t59 -37t39 -58t14.5 -74.5q0 -36 -14 -67t-35.5 -51t-47.5 -32q53 -19 89.5 -67.5t36.5 -112.5q0 -94 -61 -151.5t-154 -57.5t-155 57.5t-62 151.5q0 65 37 114t91 67q-40 19 -68 58.5t-28 90.5q0 81 53 132t133 51zM285 651q-54 0 -89 -36
t-35 -90q0 -51 37.5 -86t85.5 -35q50 0 87 34.5t37 86.5q0 54 -35 90t-88 36zM284 347q-64 0 -108.5 -43t-44.5 -106q0 -65 44 -108t109 -43q43 0 78 19.5t54.5 54t19.5 77.5q0 62 -45.5 105.5t-106.5 43.5z" />
    <glyph glyph-name="nine.osf" horiz-adv-x="575" 
d="M443 30v134q-27 -51 -72 -74t-93 -23q-61 0 -112 29t-80 79.5t-29 111t30 111.5t81 80.5t113 29.5q93 0 157.5 -64.5t64.5 -156.5v-254q0 -45 -14.5 -87.5t-43.5 -78.5t-79 -58t-114 -22q-105 0 -176 61l39 44q54 -46 138 -46q51 0 90 17.5t59.5 45.5t30.5 58.5t10 62.5z
M280.5 449q-68.5 0 -114.5 -47t-46 -115q0 -45 20.5 -82t57.5 -58.5t83 -21.5q69 0 113.5 46t45.5 116q0 68 -45.5 115t-114 47z" />
    <glyph glyph-name="zero.tf" horiz-adv-x="575" 
d="M69 192v308q0 105 59.5 160t160.5 55q69 0 118.5 -27t74.5 -75t25 -114v-307q0 -54 -19.5 -95t-52 -63.5t-69.5 -33.5t-77 -11q-41 0 -78 11t-70 33.5t-52.5 63.5t-19.5 95zM444 194v304q0 37 -10 66.5t-29.5 50t-48.5 31t-67 10.5q-75 0 -116 -39t-41 -118v-305
q0 -39 13.5 -68.5t36.5 -45.5t49.5 -24t56.5 -8q31 0 57.5 7.5t49 24t36 46t13.5 68.5z" />
    <glyph glyph-name="one.tf" horiz-adv-x="561" 
d="M320 58h118v-58h-303v58h125v551q-23 -25 -57 -43q-36 -16 -74 -21l-16 60q46 7 82 29q48 27 71 74h54v-650z" />
    <glyph glyph-name="two.tf" horiz-adv-x="566" 
d="M113 549l-61 18q47 143 197 143q53 0 94.5 -24t64.5 -65.5t23 -92.5q0 -79 -54 -147l-241 -322h295v-59h-385v47l274 362q48 63 48 121q0 52 -33.5 87t-85.5 35q-59 0 -90 -27.5t-46 -75.5z" />
    <glyph glyph-name="three.tf" horiz-adv-x="564" 
d="M118 575l-56 23q19 46 64 79t107 33q79 0 132 -51t53 -132q0 -53 -28 -92t-69 -58q53 -19 90 -67.5t37 -112.5q0 -94 -61.5 -151.5t-154.5 -57.5q-64 0 -113 28.5t-76 70.5l49 32q22 -33 59 -52.5t81 -19.5q66 0 109 43t43 108q0 62 -47 106.5t-110 44.5h-54v53h54
q52 0 90.5 35t38.5 88q0 54 -35 90t-88 36q-42 0 -72 -22t-43 -54z" />
    <glyph glyph-name="four.tf" horiz-adv-x="570" 
d="M402 241h62v-56h-62v-185h-62v185h-304v56l300 459h66v-459zM101 241h239v360z" />
    <glyph glyph-name="five.tf" horiz-adv-x="570" 
d="M404 641h-232l-23 -211h92q92 -1 156 -64t64 -154q0 -61 -28.5 -112.5t-81 -81.5t-117.5 -30q-62 0 -113 30t-77 72l49 31q20 -33 59.5 -53.5t81.5 -20.5q72 0 117.5 48.5t46.5 114.5q-1 65 -46 113.5t-117 48.5h-149l37 328h281v-59z" />
    <glyph glyph-name="six.tf" horiz-adv-x="585" 
d="M71 209v254q0 45 15 87.5t44 79t79 58.5t114 22q104 0 176 -61l-39 -45q-54 47 -138 47q-51 0 -90 -17.5t-60 -46t-31 -59t-10 -61.5v-134q28 51 73 74t93 23q93 0 157 -64t64 -156.5t-65.5 -157t-158.5 -64.5t-158 64.5t-65 156.5zM294 371q-46 0 -82 -21.5t-56.5 -58
t-21.5 -82.5q0 -68 46 -115t114.5 -47t114.5 47t46 115.5t-46 115t-115 46.5z" />
    <glyph glyph-name="seven.tf" horiz-adv-x="558" 
d="M443 654l-335 -654h-63l327 640h-336v60h407v-46z" />
    <glyph glyph-name="eight.tf" horiz-adv-x="571" 
d="M285 710q38 0 72.5 -13.5t59 -37t39 -58t14.5 -74.5q0 -36 -14 -67t-35.5 -51t-47.5 -32q53 -19 89.5 -67.5t36.5 -112.5q0 -94 -61 -151.5t-154 -57.5t-155 57.5t-62 151.5q0 65 37 114t91 67q-40 19 -68 58.5t-28 90.5q0 81 53 132t133 51zM285 651q-54 0 -89 -36
t-35 -90q0 -51 37.5 -86t85.5 -35q50 0 87 34.5t37 86.5q0 54 -35 90t-88 36zM284 347q-64 0 -108.5 -43t-44.5 -106q0 -65 44 -108t109 -43q43 0 78 19.5t54.5 54t19.5 77.5q0 62 -45.5 105.5t-106.5 43.5z" />
    <glyph glyph-name="nine.tf" horiz-adv-x="585" 
d="M443 231v135q-27 -52 -72 -75t-93 -23q-93 0 -157 64.5t-64 156.5t65 156.5t158.5 64.5t158 -64.5t64.5 -156.5v-254q0 -36 -8.5 -70.5t-28.5 -66.5t-48.5 -56.5t-71.5 -39t-94 -14.5q-104 0 -176 61l39 45q54 -47 138 -47q51 0 90 17.5t59.5 46t30.5 59t10 61.5z
M280.5 651q-68.5 0 -114.5 -47t-46 -115.5t46 -115t115 -46.5t113.5 46t45.5 116q0 68 -45.5 115t-114 47z" />
    <glyph glyph-name="zero.tosf" horiz-adv-x="575" 
d="M69 192v102q0 70 28 119t77 72.5t116 23.5q103 0 160 -58t57 -158v-101q0 -36 -9 -67t-25 -53t-37 -38.5t-45.5 -26t-50 -14t-51.5 -4.5q-41 0 -78 11t-70 33.5t-52.5 63.5t-19.5 95zM444 194v98q0 75 -39.5 116.5t-115 41.5t-116.5 -39t-41 -118v-99q0 -39 13.5 -68.5
t36.5 -45.5t49.5 -24t57.5 -8q30 0 56.5 7.5t49 24t36 46t13.5 68.5z" />
    <glyph glyph-name="one.tosf" horiz-adv-x="546" 
d="M314 56h112v-56h-289v56h119v351q-22 -23 -54 -39q-34 -16 -68 -21l-14 53q42 8 76 28q46 26 68 71h50v-443z" />
    <glyph glyph-name="two.tosf" horiz-adv-x="586" 
d="M160 356l-61 17q47 136 195 136q77 0 129.5 -48.5t52.5 -124.5q0 -40 -27 -83.5t-80 -79.5l-166 -116h272v-57h-385v46l219 146q46 32 75 71t29 71q0 51 -33 84.5t-86 33.5q-104 0 -134 -96z" />
    <glyph glyph-name="three.tosf" horiz-adv-x="564" 
d="M151 373l-56 24q19 46 64 79t107 33q52 0 94 -23t66.5 -65t24.5 -95t-28 -92.5t-69 -57.5q53 -19 89.5 -67.5t36.5 -112.5q0 -94 -61 -151.5t-154 -57.5q-64 0 -113 28.5t-76 70.5l49 33q22 -34 59 -53.5t81 -19.5q43 0 78 19.5t54.5 54.5t19.5 77q0 62 -47 106t-110 44
h-55v53h55q52 0 90.5 35.5t38.5 87.5q0 55 -35 91t-88 36q-17 0 -33 -4t-28.5 -11.5t-23 -17.5t-18 -21t-12.5 -23z" />
    <glyph glyph-name="four.tosf" horiz-adv-x="570" 
d="M436 42h61v-57h-61v-184h-63v184h-304v57l301 459h66v-459zM135 42h238v359z" />
    <glyph glyph-name="five.tosf" horiz-adv-x="570" 
d="M434 442h-233l-23 -211h92q92 -1 156 -64t64 -154q0 -94 -64 -158.5t-163 -64.5q-62 0 -113 29.5t-77 71.5l49 32q14 -22 36.5 -38.5t49.5 -26t55 -9.5q72 0 118 48.5t46 113.5q0 42 -19 78.5t-57 60t-87 23.5h-148l36 329h282v-60z" />
    <glyph glyph-name="six.tosf" horiz-adv-x="586" 
d="M79 209v254q0 45 14.5 87.5t43.5 79t79 58.5t114 22q104 0 176 -61l-39 -45q-54 47 -138 47q-51 0 -90 -17.5t-59.5 -46t-31 -59t-10.5 -61.5v-134q28 51 73 74t93 23q93 0 157 -64t64 -156.5t-65 -157t-158.5 -64.5t-158 64.5t-64.5 156.5zM301 371q-46 0 -82 -21.5
t-56 -58t-21 -82.5q0 -68 45.5 -115t114 -47t114.5 47t46 115.5t-46 115t-115 46.5z" />
    <glyph glyph-name="seven.tosf" horiz-adv-x="558" 
d="M493 455l-335 -654h-63l327 640h-336v60h407v-46z" />
    <glyph glyph-name="eight.tosf" horiz-adv-x="571" 
d="M283 710q80 0 133 -51t53 -132q0 -36 -14.5 -67t-35.5 -51t-48 -32q53 -19 90 -67.5t37 -112.5q0 -94 -61 -151.5t-154 -57.5t-155 57.5t-62 151.5q0 65 36.5 114t91.5 67q-41 19 -69 58.5t-28 90.5q0 81 53.5 132t132.5 51zM283 651q-53 0 -88.5 -36t-35.5 -90
q0 -51 38 -86t86 -35q49 0 86 34.5t37 86.5q0 54 -34.5 90t-88.5 36zM283 347q-21 0 -41 -5.5t-37 -15t-31 -23t-24 -30t-15.5 -36t-5.5 -39.5q0 -43 20.5 -77.5t55.5 -54t78 -19.5q65 0 108.5 43t43.5 108q0 62 -46 105.5t-106 43.5z" />
    <glyph glyph-name="nine.tosf" horiz-adv-x="586" 
d="M456 30v134q-28 -51 -73 -74t-93 -23q-93 0 -157 64t-64 156t65 156.5t158.5 64.5t158 -64.5t64.5 -156.5v-254q0 -45 -14.5 -87.5t-43.5 -78.5t-79 -58t-114 -22q-105 0 -176 61l39 44q55 -46 138 -46q51 0 90 17.5t60 45.5t31 58.5t10 62.5zM293 449q-69 0 -115 -47
t-46 -115t46 -115t115 -47q46 0 82 21.5t56.5 58t21.5 82.5q0 27 -8 51.5t-22.5 44.5t-34 35t-44 23t-51.5 8z" />
    <glyph glyph-name="zero.dnom" horiz-adv-x="361" 
d="M44 128v165q0 39 14 68t45.5 47.5t77.5 18.5q68 0 101.5 -38.5t33.5 -95.5v-166q0 -59 -34.5 -96.5t-102.5 -37.5q-67 0 -101 38.5t-34 96.5zM266 125v170q0 37 -21 62t-64 25t-65 -24t-22 -63v-169q0 -38 21 -63t64 -25q44 0 65.5 24t21.5 63z" />
    <glyph glyph-name="one.dnom" horiz-adv-x="200" 
d="M156 0h-48v343q-14 -13 -32 -21q-23 -9 -44 -10l-12 47q24 3 49 17q33 16 45 45h42v-421z" />
    <glyph glyph-name="two.dnom" horiz-adv-x="298" 
d="M82 324l-48 12q30 91 122 91q49 0 80.5 -32t31.5 -80q0 -50 -33 -90l-136 -180h169v-45h-237v35l163 214q25 32 25 67q0 28 -17.5 47t-45.5 19q-57 0 -74 -58z" />
    <glyph glyph-name="three.dnom" horiz-adv-x="322" 
d="M90 337l-44 18q13 33 42 52.5t65 19.5q46 0 78.5 -31t32.5 -80q0 -56 -49 -84q33 -16 52 -45t19 -65q0 -56 -38.5 -92.5t-95.5 -36.5q-36 0 -66.5 17t-49.5 46l39 25q25 -41 77 -41q37 0 61 24t24 61q0 36 -25 60t-60 24h-36v42h35q27 0 46 18t19 46t-18.5 46.5
t-45.5 18.5q-22 0 -38 -11.5t-24 -31.5z" />
    <glyph glyph-name="four.dnom" horiz-adv-x="315" 
d="M250 153h35v-45h-35v-108h-50v108h-177v40l179 273h48v-268zM74 153h128v196z" />
    <glyph glyph-name="five.dnom" horiz-adv-x="323" 
d="M256 376h-137l-13 -112h51q52 0 92.5 -36t40.5 -97q0 -65 -43 -101.5t-97 -36.5q-39 0 -70.5 19.5t-45.5 43.5l39 25q11 -19 32.5 -30.5t44.5 -11.5q40 0 65.5 27.5t25.5 63.5q0 35 -25 62t-65 27h-94l22 202h177v-45z" />
    <glyph glyph-name="six.dnom" horiz-adv-x="352" 
d="M44 127v147q0 43 18.5 77t54 54t81.5 20q64 0 107 -37l-29 -34q-30 25 -79 25q-47 0 -76.5 -28.5t-29.5 -72.5v-65q36 47 91.5 47t96 -38.5t40.5 -94.5q0 -57 -40.5 -96.5t-97 -39.5t-97 39.5t-40.5 96.5zM181 215q-39 0 -63.5 -26t-24.5 -63t24.5 -63.5t63.5 -26.5
q20 0 36.5 7.5t28 20t18 28.5t6.5 34q0 37 -24.5 63t-64.5 26z" />
    <glyph glyph-name="seven.dnom" horiz-adv-x="310" 
d="M281 377l-193 -377h-51l187 366h-192v46h249v-35z" />
    <glyph glyph-name="eight.dnom" horiz-adv-x="336" 
d="M169 427q32 0 57.5 -14t40.5 -39.5t15 -57.5q0 -57 -53 -89q14 -7 27.5 -17.5t28 -35t14.5 -54.5q0 -56 -38 -91.5t-92 -35.5q-56 0 -94 35t-38 92q0 23 8 43t20.5 33t22.5 20t20 12q-52 32 -52 88q0 47 32.5 79t80.5 32zM169 383q-29 0 -47.5 -20.5t-18.5 -48.5
q0 -26 20 -45.5t46 -19.5q12 0 24 5t21.5 13.5t15 20.5t5.5 26q0 29 -18.5 49t-47.5 20zM169 204q-25 0 -45 -12.5t-30 -31.5t-10 -38q0 -32 23 -57.5t61.5 -25.5t61 25t22.5 58q0 31 -24 56.5t-59 25.5z" />
    <glyph glyph-name="nine.dnom" horiz-adv-x="352" 
d="M262 141v64q-37 -47 -92.5 -47t-95.5 38.5t-40 94.5q0 58 40 97t96.5 39t97 -39t40.5 -97v-147q0 -65 -42 -108t-112 -43q-63 0 -107 38l29 34q30 -26 79 -26q47 0 76.5 29t30.5 73zM171 382q-39 0 -64 -26.5t-25 -63t24.5 -63t64.5 -26.5t64 26.5t24 63t-24.5 63
t-63.5 26.5z" />
    <glyph glyph-name="zero.numr" horiz-adv-x="361" 
d="M44 410v166q0 59 34.5 96.5t102.5 37.5t102 -38.5t33 -96.5v-166q0 -59 -34.5 -96t-102.5 -37q-67 0 -101 38t-34 96zM266 408v169q0 24 -8 43t-27.5 31.5t-49.5 12.5q-29 0 -49 -11.5t-29 -30.5t-9 -45v-169q0 -37 21 -62t64 -25q44 0 65.5 23.5t21.5 63.5z" />
    <glyph glyph-name="one.numr" horiz-adv-x="200" 
d="M156 279h-48v343q-14 -13 -32 -21q-23 -9 -44 -10l-12 47q26 3 51 18q31 16 43 44h42v-421z" />
    <glyph glyph-name="two.numr" horiz-adv-x="298" 
d="M82 602l-48 12q30 91 122 91q49 0 80.5 -32t31.5 -80q0 -49 -33 -89l-136 -180h169v-46h-237v36l163 213q25 33 25 67q0 28 -17.5 47t-45.5 19q-57 0 -74 -58z" />
    <glyph glyph-name="three.numr" horiz-adv-x="322" 
d="M90 620l-44 18q13 32 41.5 52t64.5 20q47 0 79 -31t32 -80q0 -57 -49 -84q34 -16 52.5 -45.5t18.5 -65.5q0 -55 -38 -91.5t-95 -36.5q-37 0 -67.5 17t-49.5 46l39 25q25 -41 77 -41q37 0 61.5 23.5t24.5 61.5q0 35 -25.5 59.5t-59.5 24.5h-37v42h35q27 0 46 18t19 45
q0 28 -18 47t-46 19q-11 0 -20.5 -3t-17 -8.5t-14 -13.5t-9.5 -18z" />
    <glyph glyph-name="four.numr" horiz-adv-x="315" 
d="M250 432h35v-45h-35v-108h-50v108h-177v40l179 273h48v-268zM74 432h128v196z" />
    <glyph glyph-name="five.numr" horiz-adv-x="323" 
d="M256 655h-137l-13 -112h51q52 0 92.5 -36t40.5 -97q0 -65 -43 -101.5t-97 -36.5q-39 0 -70.5 19.5t-45.5 43.5l39 24q11 -18 32.5 -30t44.5 -12q40 0 65.5 28t25.5 63q0 36 -25 63t-65 27h-94l22 202h177v-45z" />
    <glyph glyph-name="six.numr" horiz-adv-x="352" 
d="M44 411v147q0 65 42 108t112 43q64 0 107 -37l-29 -34q-30 25 -79 25q-47 0 -76.5 -28.5t-29.5 -72.5v-65q36 47 92 47q36 0 67 -17t50 -48t19 -68q0 -57 -40.5 -96.5t-97 -39.5t-97 39.5t-40.5 96.5zM181 499q-39 0 -63.5 -26t-24.5 -63t24.5 -63.5t63.5 -26.5t64 26.5
t25 63.5t-24.5 63t-64.5 26z" />
    <glyph glyph-name="seven.numr" horiz-adv-x="310" 
d="M281 665l-193 -377h-51l187 366h-192v46h249v-35z" />
    <glyph glyph-name="eight.numr" horiz-adv-x="336" 
d="M169 709q48 0 80.5 -31.5t32.5 -79.5q0 -58 -53 -89q14 -7 27.5 -17.5t28 -35t14.5 -54.5q0 -37 -17.5 -66.5t-47.5 -45t-65 -15.5q-56 0 -94 35t-38 92q0 23 8 43t20.5 33t22.5 20t20 12q-52 32 -52 88q0 31 14.5 56.5t40.5 40t58 14.5zM169 665q-29 0 -47.5 -21
t-18.5 -48q0 -13 5.5 -25t14.5 -21t21 -14t25 -5q16 0 31.5 8t25 23.5t9.5 33.5q0 29 -18.5 49t-47.5 20zM169 486q-25 0 -45 -13t-30 -31.5t-10 -37.5q0 -32 23 -58t61.5 -26t61 25.5t22.5 58.5q0 31 -24 56.5t-59 25.5z" />
    <glyph glyph-name="nine.numr" horiz-adv-x="352" 
d="M262 423v64q-37 -47 -92.5 -47t-95.5 38.5t-40 94.5q0 57 40 96.5t97 39.5q37 0 68.5 -17.5t50 -49t18.5 -69.5v-147q0 -65 -42 -108t-112 -43q-64 0 -107 37l29 34q30 -25 79 -25q48 0 77 29t30 73zM171 664q-39 0 -64 -26.5t-25 -63.5t24.5 -63t64.5 -26t64 26t24 63
q0 24 -10.5 44t-31 33t-46.5 13z" />
    </font>
</defs>
</svg>
