<?xml version="1.0" standalone="no"?>
<!DOCTYPE svg PUBLIC "-//W3C//DTD SVG 1.1//EN" "http://www.w3.org/Graphics/SVG/1.1/DTD/svg11.dtd" >
<svg xmlns="http://www.w3.org/2000/svg" xmlns:xlink="http://www.w3.org/1999/xlink" version="1.1">
<metadata>
Created by FontForge 20170731 at Tue Mar 20 16:14:17 2012
 By Aleksey,,,
Copyright (c) 2011 by deFharo.com. All rights reserved.
</metadata>
<defs>
<font id="Fabada" horiz-adv-x="710" >
  <font-face 
    font-family="Fabada"
    font-weight="400"
    font-stretch="normal"
    units-per-em="1000"
    panose-1="2 15 5 5 0 0 0 2 0 3"
    ascent="800"
    descent="-200"
    x-height="536"
    cap-height="788"
    bbox="-147 -273 1670 1046.38"
    underline-thickness="50"
    underline-position="-200"
    unicode-range="U+0020-FB06"
  />
<missing-glyph horiz-adv-x="282" 
 />
    <glyph glyph-name="fi" unicode="fi" horiz-adv-x="654" 
d="M433 223v272q0 17 12 29t29 12t29 -12t12 -29v-267q0 -50 26.5 -97t69.5 -75q19 -11 19 -35q0 -16 -11.5 -28.5t-28.5 -12.5q-25 0 -56.5 30t-53.5 64q-46 72 -47 149zM433 672q0 16 10.5 28t30.5 12t30.5 -12t10.5 -28t-10.5 -27.5t-30.5 -11.5t-30.5 11.5t-10.5 27.5z
M43 537h37q13 0 22.5 8.5t11.5 21.5q10 105 88 173t188 68q17 0 29 -12t12 -29t-12.5 -29t-29.5 -12q-51 0 -91 -19.5t-60 -47t-29.5 -50.5t-9.5 -37t10.5 -24.5t24.5 -10.5h145q14 0 24.5 -10.5t10.5 -24.5t-10.5 -24.5t-24.5 -10.5h-150q-14 0 -24.5 -10.5t-10.5 -24.5
v-391q0 -17 -12 -29t-29 -12t-29 12t-12 29v391q0 14 -10.5 24.5t-24.5 10.5h-34q-14 0 -24.5 10.5t-10.5 24.5t10.5 24.5t24.5 10.5z" />
    <glyph glyph-name="fl" unicode="fl" horiz-adv-x="804" 
d="M122 41v391q0 14 -10 25q-10 10 -25 10h-36q-14 0 -25 10q-10 11 -10 25t10 25q11 10 25 10h38q15 0 26 12q9 12 12 29q17 109 100 173q75 57 173 57q17 0 29 -12t12 -29t-12 -29q-11 -12 -29 -12q-66 0 -117 -35q-49 -34 -72 -109q-5 -17 5 -30q10 -15 26 -15h147
q14 0 25 -10q10 -11 10 -25t-10 -25q-11 -10 -25 -10h-150q-14 0 -25 -10q-10 -11 -10 -25v-391q0 -17 -12 -29q-10 -12 -29 -12q-17 0 -29 12t-12 29zM477 268v498q0 17 12 29t29 12t29 -12t12 -29v-498q0 -100 57.5 -153t138.5 -53q17 0 29 -12t12 -29t-12 -29t-29 -12
q-112 0 -195 75.5t-83 212.5z" />
    <glyph glyph-name="s_t" unicode="st" horiz-adv-x="970" 
d="M729 431v-163q0 -100 57 -153t139 -53q17 0 29 -12t12 -29t-12 -29t-29 -12q-112 0 -195 75.5t-83 212.5v163q0 15 -10.5 25t-24.5 10h-132h-183q-126 0 -126 -61q0 -65 132 -65q209 0 209 -167q0 -193 -221 -193q-169 0 -240 135q-5 15 -5 21q0 17 11.5 28.5t29.5 11.5
q12 0 20.5 -5.5t20 -21t12.5 -16.5q63 -74 152 -74q138 0 138 109q0 92 -136 92q-206 0 -206 145q0 151 210 150h349v212q0 17 12 29t29 12t29 -12t12 -29v-176q0 -14 10.5 -24.5t24.5 -10.5h123q16 0 28 -16t10 -34t-12.5 -29t-25.5 -11h-123q-14 0 -24.5 -10t-10.5 -25z
" />
    <glyph glyph-name=".notdef" horiz-adv-x="282" 
 />
    <glyph glyph-name=".null" horiz-adv-x="0" 
 />
    <glyph glyph-name="nonmarkingreturn" horiz-adv-x="333" 
 />
    <glyph glyph-name="space" unicode=" " horiz-adv-x="364" 
 />
    <glyph glyph-name="exclam" unicode="!" horiz-adv-x="262" 
d="M90 39q0 17 12 28t29 11t29 -11t12 -28t-12 -28t-29 -11t-29 11t-12 28zM166 773v-500q0 -14 -10.5 -24.5t-24.5 -10.5t-24.5 10.5t-10.5 24.5v500q0 14 10.5 24.5t24.5 10.5t24.5 -10.5t10.5 -24.5z" />
    <glyph glyph-name="quotedbl" unicode="&#x22;" horiz-adv-x="272" 
d="M47 629q-15 135 -15 146q0 14 10.5 23t25.5 9q14 0 24 -9t10 -24l-15 -145q-1 -20 -20 -20t-20 20zM171 629q-15 135 -15 146q0 14 10.5 23t25.5 9q14 0 24 -9t10 -24l-15 -145q-1 -20 -20 -20t-20 20z" />
    <glyph glyph-name="numbersign" unicode="#" horiz-adv-x="679" 
d="M398 340h-116q-13 0 -13 -12v-116q0 -13 13 -13h116q12 0 12 13v116q0 12 -12 12zM505 422h70q17 0 29 -12t12 -29t-12 -29t-29 -12h-70q-13 0 -13 -12v-116q0 -13 13 -13h70q17 0 29 -12t12 -29t-12 -29t-29 -12h-70q-13 0 -13 -12v-64q0 -17 -12 -29t-29 -12t-29 12
t-12 29v64q0 12 -12 12h-116q-13 0 -13 -12v-64q0 -17 -12 -29t-29 -12t-29 12t-12 29v64q0 12 -12 12h-71q-17 0 -29 12t-12 29t12 29t29 12h71q12 0 12 13v116q0 12 -12 12h-71q-17 0 -29 12t-12 29t12 29t29 12h71q12 0 12 13v62q0 17 12 29t29 12t29 -12t12 -29v-62
q0 -13 13 -13h116q12 0 12 13v62q0 17 12 29t29 12t29 -12t12 -29v-62q0 -13 13 -13z" />
    <glyph glyph-name="dollar" unicode="$" horiz-adv-x="563" 
d="M247 552v28q0 14 10 24.5t25 10.5q14 0 24.5 -10.5t10.5 -24.5v-24q7 0 23 -2.5t48.5 -13t58.5 -27.5q39 -25 36 -51q-3 -23 -24 -31q-19 -7 -48 8q-40 23 -64 29q-37 9 -70 6q-40 -4 -71 -19t-34 -44q-5 -53 92 -66q81 -8 125 -20q41 -11 69 -33q65 -48 53 -137
q-4 -44 -23 -75q-25 -42 -70.5 -67.5t-100.5 -30.5v-24q0 -14 -10.5 -24.5t-24.5 -10.5q-15 0 -25 10.5t-10 24.5v27q-62 10 -116 45t-79 87q-13 23 1.5 42.5t39.5 17.5q14 -2 25.5 -16t31.5 -36.5t50 -38.5q89 -46 171 -6q37 13 52 56t-4 70q-8 18 -32 32t-92 23
q-64 7 -93 16q-22 7 -46 18q-21 11 -35 26q-34 38 -32 90.5t40 88.5q42 40 118 52z" />
    <glyph glyph-name="percent" unicode="%" horiz-adv-x="570" 
d="M49 443v-60q0 -32 20 -52.5t48 -20.5q30 0 49.5 20.5t19.5 52.5v60q0 32 -19.5 52.5t-49.5 20.5q-28 0 -48 -20.5t-20 -52.5zM117 268q-46 0 -77.5 33.5t-31.5 81.5v60q0 48 31.5 81t77.5 33t78 -33t32 -81v-60q0 -48 -32 -81.5t-78 -33.5zM329 157v-60q0 -32 20 -52.5
t48 -20.5q30 0 49.5 20.5t19.5 52.5v60q0 32 -19.5 52.5t-49.5 20.5q-28 0 -48 -20.5t-20 -52.5zM397 -18q-46 0 -77.5 33.5t-31.5 81.5v60q0 48 31.5 81t77.5 33t78 -33t32 -81v-60q0 -48 -32 -81.5t-78 -33.5zM146 90l156 369q5 12 18 12q2 0 8 -2q17 -7 10 -25l-157 -370
q-3 -11 -17 -11q-6 0 -8 1q-12 4 -12 18q0 5 2 8z" />
    <glyph glyph-name="ampersand" unicode="&#x26;" horiz-adv-x="848" 
d="M646 325v-57q0 -137 -83 -212.5t-195 -75.5t-195 75.5t-83 212.5v252q0 137 82.5 212t195.5 75q68 0 121 -26q24 -11 24 -37q0 -17 -12 -29t-29 -12q-8 0 -17 4q-41 18 -87 18q-82 0 -139 -52.5t-57 -152.5v-43q0 -17 12 -29t29 -12h86q17 0 29 -12t12 -29t-12 -29
t-29 -12h-86q-17 0 -29 -12t-12 -29v-45q0 -101 57 -153.5t139 -52.5t139 52.5t57 152.5v58q0 15 -10.5 25t-24.5 10h-44q-14 0 -24.5 10.5t-10.5 24.5q0 15 10.5 25t24.5 10h44q14 0 24.5 10.5t10.5 24.5v49q0 17 12 29t29 12t29 -12t12 -29v-49q0 -14 10.5 -24.5
t24.5 -10.5h100q14 0 24.5 -10t10.5 -25q0 -14 -10.5 -24.5t-24.5 -10.5h-100q-14 0 -24.5 -10t-10.5 -25z" />
    <glyph glyph-name="quotesingle" unicode="'" horiz-adv-x="134" 
d="M47 629q-15 135 -15 146q0 14 10.5 23t25.5 9q14 0 24 -9t10 -24l-15 -145q-1 -20 -20 -20t-20 20z" />
    <glyph glyph-name="parenleft" unicode="(" horiz-adv-x="472" 
d="M63 84v371q0 129 82 211q38 36 79 56q7 4 19 4q17 0 28.5 -11.5t11.5 -28.5q0 -26 -23 -37q-27 -14 -60 -47q-51 -56 -51 -147v-371q0 -91 51 -146q32 -34 60 -48q23 -12 23 -37q0 -17 -11.5 -28.5t-28.5 -11.5q-11 0 -19 4q-42 20 -79 57q-82 82 -82 210z" />
    <glyph glyph-name="parenright" unicode=")" horiz-adv-x="472" 
d="M409 454v-371q0 -128 -82 -210q-37 -37 -79 -57q-8 -4 -19 -4q-17 0 -28.5 11.5t-11.5 28.5q0 25 23 37q28 13 63 48q48 57 48 146v371q0 91 -51 147q-33 33 -60 47q-23 11 -23 37q0 17 11.5 28.5t28.5 11.5q12 0 19 -4q41 -20 79 -56q82 -82 82 -211z" />
    <glyph glyph-name="asterisk" unicode="*" horiz-adv-x="452" 
d="M137 600l-90 52q-15 9 -15 27q0 11 5 19q11 18 30 18q8 0 15 -4l90 -52q6 -4 12.5 0.5t6.5 10.5v104q0 14 10 23t25 9t25 -9t10 -23v-104q0 -6 6 -11t13 0l90 52q7 4 15 4q19 0 30 -18q5 -13 5 -19q0 -18 -15 -27l-90 -52q-7 -4 -7 -11t7 -11l90 -52q15 -9 15 -27
q0 -6 -5 -19q-11 -18 -30 -18q-8 0 -15 4l-90 52q-5 3 -12 -0.5t-7 -10.5v-104q0 -14 -10 -23t-25 -9t-25 9t-10 23v104q0 5 -7 9.5t-12 1.5l-90 -52q-7 -4 -15 -4q-20 0 -30 18q-5 10 -5 19q0 18 15 27l90 52q6 3 6 11q0 7 -6 11z" />
    <glyph glyph-name="plus" unicode="+" horiz-adv-x="658" 
d="M329 27q-14 0 -24.5 10.5t-10.5 24.5v128q0 17 -12 29t-29 12h-128q-14 0 -24.5 10.5t-10.5 24.5q0 15 10.5 25t24.5 10h128q17 0 29 12t12 29v128q0 15 10.5 25t24.5 10q15 0 25 -10t10 -25v-128q0 -17 12 -29t29 -12h128q15 0 25 -10t10 -25q0 -14 -10 -24.5t-25 -10.5
h-128q-17 0 -29 -12t-12 -29v-128q0 -14 -10 -24.5t-25 -10.5z" />
    <glyph glyph-name="comma" unicode="," horiz-adv-x="219" 
d="M90 32v19q0 18 12.5 28t28.5 10q17 0 29 -11t12 -30q0 -61 -24 -120t-68 -100q-10 -10 -25 -10t-25.5 10t-10.5 25q0 11 11 24q60 67 60 155z" />
    <glyph glyph-name="hyphen" unicode="-" horiz-adv-x="436" 
d="M332 226h-228q-17 0 -29 12t-12 29t12 29t29 12h228q17 0 29 -12t12 -29t-12 -29t-29 -12z" />
    <glyph glyph-name="period" unicode="." horiz-adv-x="201" 
d="M90 39q0 16 10.5 27.5t30.5 11.5t30.5 -11.5t10.5 -27.5t-10.5 -27.5t-30.5 -11.5t-30.5 11.5t-10.5 27.5z" />
    <glyph glyph-name="slash" unicode="/" horiz-adv-x="418" 
d="M35 -125l280 660q8 21 32 21q7 0 14 -3q30 -13 18 -45l-280 -661q-8 -21 -32 -21q-6 0 -14 3q-21 8 -21 32q0 7 3 14z" />
    <glyph glyph-name="zero" unicode="0" horiz-adv-x="564" 
d="M145 328v-121q0 -62 40 -104t97 -42t97 42t40 104v121q0 62 -40 104t-97 42t-97 -42t-40 -104zM282 -21q-92 0 -155.5 66.5t-63.5 161.5v121q0 95 63.5 161.5t155.5 66.5t155.5 -66.5t63.5 -161.5v-121q0 -95 -63.5 -161.5t-155.5 -66.5z" />
    <glyph glyph-name="one" unicode="1" horiz-adv-x="326" 
d="M263 514v-493q0 -17 -12 -29t-29 -12t-29 12t-12 29v424q-54 -20 -107 -20q-17 0 -29.5 12t-12.5 29t12 29t29 12q72 0 123 39q10 9 26 9q17 0 29 -12t12 -29z" />
    <glyph glyph-name="two" unicode="2" horiz-adv-x="558" 
d="M177 209h95q66 0 103.5 37t37.5 87q0 68 -42 104t-99 36q-45 0 -74.5 -21t-55.5 -63q-16 -25 -39 -25q-16 0 -28 11.5t-12 28.5q0 8 3 17q20 57 79.5 95.5t126.5 38.5q95 0 159 -62.5t64 -159.5q0 -88 -63 -147t-160 -59h-98q-12 0 -20.5 -9.5t-8.5 -21.5t10 -22t22 -10
h276q19 0 30 -12.5t11 -29.5q0 -16 -10.5 -28t-30.5 -12h-276q-46 0 -79.5 33.5t-33.5 80.5q0 46 33.5 79.5t79.5 33.5z" />
    <glyph glyph-name="three" unicode="3" horiz-adv-x="444" 
d="M326 334q-2 -2 1 -4q54 -60 54 -139q0 -84 -59.5 -147.5t-150.5 -63.5q-74 0 -122 39q-17 14 -17 33q0 16 11.5 28.5t29.5 12.5q7 0 37.5 -15.5t60.5 -15.5q52 0 90 36.5t38 89.5q0 101 -108 124q-10 1 -10 12q0 12 10 12q29 0 49.5 20.5t20.5 49.5t-21 49t-50 20
q-12 0 -28.5 -6.5t-25.5 -6.5q-17 0 -29 12t-12 29q0 23 22 36q31 18 73 18q65 0 109 -46t44 -108q0 -33 -17 -69z" />
    <glyph glyph-name="four" unicode="4" horiz-adv-x="530" 
d="M373 514l-225 -346h173q17 0 17 17v112q0 17 11.5 29t28.5 12t29 -12t12 -29v-112q0 -17 17 -17h21q17 0 29 -12t12 -29t-12 -29t-29 -12h-21q-7 0 -12 -5t-5 -12v-28q0 -17 -12 -29t-29 -12t-29 12t-12 29v28q0 17 -17 17h-247q-16 0 -28.5 12t-12.5 29q0 12 7 22
l265 410q12 18 35 18q11 0 22 -6q18 -12 18 -35q0 -12 -6 -22z" />
    <glyph glyph-name="five" unicode="5" horiz-adv-x="558" 
d="M94 554h359q20 0 30.5 -12t10.5 -28q0 -17 -11 -29.5t-30 -12.5h-302q-6 0 -6 -6v-52q0 -6 6 -6h121q90 0 156.5 -58.5t66.5 -146.5q0 -97 -64 -159.5t-159 -62.5q-68 0 -127 38t-79 96q-3 9 -3 17q0 17 12 28.5t28 11.5q25 1 39 -25q24 -44 53.5 -64t76.5 -20
q57 0 99 36t42 104q0 50 -37.5 87t-103.5 37h-178q-13 0 -22 8.5t-9 21.5v167q0 12 9 21t22 9z" />
    <glyph glyph-name="six" unicode="6" horiz-adv-x="634" 
d="M506 178q0 45 -43.5 80t-119.5 35q-70 0 -121.5 -35t-51.5 -80q0 -47 54 -81t119 -34q79 0 121 37.5t42 77.5zM588 178q0 -82 -70 -139.5t-174 -57.5q-144 0 -223 102q-58 76 -58 185q0 137 83 212.5t195 75.5q66 0 120 -25q25 -12 25 -38q0 -17 -12 -29t-29 -12
q-10 0 -18 4q-40 18 -86 18q-75 0 -130.5 -45t-64.5 -131q71 77 188 77q114 0 184 -56.5t70 -140.5z" />
    <glyph glyph-name="seven" unicode="7" horiz-adv-x="477" 
d="M261 217v53q0 100 -57 152.5t-139 52.5q-17 0 -29 12t-12 29q0 18 12 29.5t30 11.5q70 0 131 -29.5t103.5 -96.5t42.5 -161v-40q0 -7 2.5 -10t7.5 -2l71 7q21 0 21 -26q0 -19 -21 -24l-70 -9q-11 -2 -11 -12v-133q0 -16 -12 -28.5t-29 -12.5t-29 12t-12 29v120
q0 7 -2.5 10t-7.5 2l-40 -4q-11 -1 -20 6t-9 20q0 20 22 24l46 6q11 1 11 12z" />
    <glyph glyph-name="eight" unicode="8" horiz-adv-x="566" 
d="M145 191q0 -53 40 -91.5t98 -38.5q57 0 97.5 39t40.5 91q0 47 -31 82.5t-80 45.5q-7 1 -7 8t6 8q24 8 37.5 27t13.5 42q0 32 -21 53t-56 21t-56 -21t-21 -53q0 -23 13 -42t37 -27q6 -1 6 -8t-6 -8q-49 -9 -80 -44.5t-31 -83.5zM135 348q-10 19 -10 55q0 65 43.5 109
t114.5 44q69 0 113.5 -44t44.5 -109q0 -34 -10 -55q72 -64 72 -157q0 -89 -64.5 -150.5t-155.5 -61.5t-155.5 61.5t-64.5 150.5q0 93 72 157z" />
    <glyph glyph-name="nine" unicode="9" horiz-adv-x="634" 
d="M128 359q0 -44 43 -79.5t120 -35.5q68 0 120.5 36t52.5 79q0 46 -54.5 80.5t-118.5 34.5q-79 0 -121 -37.5t-42 -77.5zM46 359q0 82 70 139.5t174 57.5q144 0 223 -102q58 -76 58 -185q0 -137 -83 -212.5t-195 -75.5q-66 0 -120 25q-25 12 -25 38q0 17 12 29t29 12
q9 0 18 -4q41 -18 86 -18q75 0 130.5 45t64.5 131q-25 -28 -73 -52.5t-115 -24.5q-114 0 -184 56.5t-70 140.5z" />
    <glyph glyph-name="colon" unicode=":" horiz-adv-x="250" 
d="M154 43q0 18 11.5 30.5t33.5 12.5t33.5 -12.5t11.5 -30.5q0 -17 -11.5 -30t-33.5 -13t-33.5 12.5t-11.5 30.5zM154 396q0 18 11.5 30.5t33.5 12.5t33.5 -12.5t11.5 -30.5q0 -17 -11.5 -30t-33.5 -13t-33.5 12.5t-11.5 30.5z" />
    <glyph glyph-name="semicolon" unicode=";" horiz-adv-x="212" 
d="M90 32v19q0 18 12.5 28t28.5 10q17 0 29 -11t12 -30q0 -61 -24 -120t-68 -100q-10 -10 -25 -10t-25.5 10t-10.5 25q0 11 11 24q60 67 60 155zM154 396q0 18 11.5 30.5t33.5 12.5t33.5 -12.5t11.5 -30.5q0 -17 -11.5 -30t-33.5 -13t-33.5 12.5t-11.5 30.5z" />
    <glyph glyph-name="less" unicode="&#x3c;" horiz-adv-x="579" 
d="M440 71l-388 165q-20 9 -20 32t20 32l388 164q6 3 15 3q22 0 31 -20q3 -8 3 -14q0 -22 -21 -33l-312 -132l312 -132q21 -8 21 -32q0 -8 -3 -14q-8 -19 -32 -21q-6 0 -14 2z" />
    <glyph glyph-name="equal" unicode="=" horiz-adv-x="550" 
d="M419 321h-288q-17 0 -29 12t-12 29t12 29t29 12h288q17 0 29 -12t12 -29t-12 -29t-29 -12zM419 135h-288q-17 0 -29 12t-12 29t12 29t29 12h288q17 0 29 -12t12 -29t-12 -29t-29 -12z" />
    <glyph glyph-name="greater" unicode="&#x3e;" horiz-adv-x="579" 
d="M527 236l-388 -165q-8 -2 -14 -2q-24 2 -32 21q-3 6 -3 14q0 24 21 32l312 132l-312 132q-21 11 -21 33q0 7 3 14q9 20 31 20q9 0 15 -3l388 -164q20 -9 20 -32t-20 -32z" />
    <glyph glyph-name="question" unicode="?" horiz-adv-x="530" 
d="M262 -232q0 -16 -10.5 -27.5t-30.5 -11.5t-30.5 11.5t-10.5 27.5t10.5 27.5t30.5 11.5t30.5 -11.5t10.5 -27.5zM221 474q-17 0 -29 12t-12 29t12 29t29 12q92 0 155.5 -66.5t63.5 -161.5v-103q0 -79 -45 -139.5t-116 -81.5q-17 -3 -17 -20v-73q0 -17 -12 -29t-29 -12
t-29 12t-12 29v127q0 17 12 29t30 12q56 0 96 42t40 104v103q0 62 -40.5 104t-96.5 42z" />
    <glyph glyph-name="at" unicode="@" horiz-adv-x="1088" 
d="M789 73q3 -3 7 -4q1 -1 4 -1q61 0 96.5 45.5t35.5 130.5v26q0 168 -132 283q-108 95 -254 95q-206 0 -328 -180q-63 -94 -63 -210q0 -192 152 -309q103 -80 239 -80q109 0 218 67q7 4 14 4q14 0 24.5 -13.5t10.5 -28.5q0 -49 -164 -93q-47 -12 -90 -12h-25
q-178 0 -313 129q-144 137 -144 340q0 200 162 345q130 118 297 118h18q209 0 353 -174q104 -127 104 -291q0 -199 -135 -253q-38 -15 -84 -15q-30 0 -57 18t-43 18q-2 0 -55 -23.5t-101 -23.5q-99 0 -173.5 72.5t-74.5 185.5q0 110 71 185t177 75q42 0 79 -11
q22 -7 47 -20.5t33 -13.5h4q8 0 21 15t28 15q16 0 27 -10t11 -29v-365q0 -6 3 -7zM708 239q0 89 -50.5 138.5t-119.5 49.5t-120.5 -50t-51.5 -138q0 -89 50.5 -138t120.5 -49q69 0 120 49.5t51 137.5z" />
    <glyph glyph-name="A" unicode="A" 
d="M159 331v-290q0 -17 -12 -29t-29 -12t-29 12t-12 29v479q0 137 83 212.5t195 75.5t195 -75.5t83 -212.5v-479q0 -17 -12 -29t-29 -12t-29 12t-12 29v290q0 10 -7 17t-18 7h-343q-10 0 -17 -7t-7 -17zM551 462v57q0 102 -57 154.5t-139 52.5t-139 -52.5t-57 -153.5v-58
q0 -11 7 -18t17 -7h343q25 0 25 25z" />
    <glyph glyph-name="B" unicode="B" horiz-adv-x="662" 
d="M196 90h177q71 0 107.5 39.5t36.5 97.5q-8 136 -154 136h-167q-10 0 -17 -7t-7 -17v-225q0 -10 7 -17t17 -7zM90 49v707q0 17 12 29t29 12h167q122 0 189 -74t67 -174q0 -73 -36 -134q-2 -2 -2 -7q0 -6 5 -11q78 -75 78 -170q0 -88 -59.5 -153.5t-166.5 -65.5h-242
q-17 0 -29 12t-12 29zM196 445h177q30 0 57 -6q4 0 6 2q36 47 36 108q0 69 -44.5 117.5t-129.5 48.5h-102q-10 0 -17 -7t-7 -18v-220q0 -11 7 -18t17 -7z" />
    <glyph glyph-name="C" unicode="C" horiz-adv-x="681" 
d="M624 12q-81 -32 -161 -32q-75 0 -145.5 26t-128 75.5t-92 130.5t-34.5 182t34.5 182t92 130t128 75t145.5 26q17 0 29 -12t12 -29t-12 -29t-29 -12q-61 0 -117 -20t-101.5 -59.5t-72.5 -104.5t-27 -147q0 -160 94.5 -246t223.5 -86q69 0 129 25q8 3 16 3q17 0 29 -12
t12 -29q0 -27 -25 -37z" />
    <glyph glyph-name="D" unicode="D" horiz-adv-x="716" 
d="M131 799h114q100 0 179.5 -34.5t128.5 -91t74.5 -126t25.5 -143.5q0 -75 -25.5 -144t-74.5 -125.5t-128.5 -90.5t-179.5 -34h-114q-17 0 -29 12t-12 29v707q0 17 12 29t29 12zM245 717h-52q-9 0 -15 -6.5t-6 -14.5v-584q0 -8 6 -14t14 -6h53q81 0 145 26.5t102.5 71
t58.5 99t20 115.5q0 60 -20 115t-58.5 100t-102.5 71.5t-145 26.5z" />
    <glyph glyph-name="E" unicode="E" horiz-adv-x="532" 
d="M77 268v252q0 137 82.5 212t195.5 75q68 0 121 -26q24 -11 24 -37q0 -17 -12 -29t-29 -12q-9 0 -17 4q-40 18 -87 18q-82 0 -139 -52.5t-57 -152.5v-43q0 -17 12 -29t29 -12h156q17 0 29 -12t12 -29t-12 -29t-29 -12h-156q-17 0 -29 -12t-12 -29v-45q0 -101 57 -153.5
t139 -52.5q45 0 86 18q8 4 18 4q17 0 29 -12t12 -29q0 -26 -25 -38q-53 -25 -120 -25q-112 0 -195 75.5t-83 212.5z" />
    <glyph glyph-name="F" unicode="F" horiz-adv-x="562" 
d="M207 445h228q17 0 29 -12t12 -29t-12 -29t-29 -12h-228q-14 0 -24.5 -10t-10.5 -25v-286q0 -17 -12 -29t-29 -12t-29 12t-12 29v714q0 17 12 29t29 12h366q17 0 29 -12t12 -29t-12 -29t-29 -12h-290q-14 0 -24.5 -10.5t-10.5 -24.5v-200q0 -14 10.5 -24.5t24.5 -10.5z
" />
    <glyph glyph-name="G" unicode="G" horiz-adv-x="895" 
d="M752 355h-208q-17 0 -29 12t-12 29t12 29t29 12h278q17 0 29 -12t12 -29q0 -102 -34.5 -183.5t-92.5 -131t-127.5 -75t-145.5 -25.5q-75 0 -145.5 26t-128 75t-92 130.5t-34.5 182.5t34.5 182t91.5 130t127.5 75t146.5 26q17 0 29 -12t12 -29t-12 -29t-29 -12
q-62 0 -117.5 -20.5t-101 -59.5t-72.5 -104t-27 -147t27 -147.5t72.5 -104.5t101.5 -59.5t117 -20.5q113 0 201 66.5t111 192.5q6 33 -23 33z" />
    <glyph glyph-name="H" unicode="H" horiz-adv-x="736" 
d="M564 458v309q0 17 12 29t29 12t29 -12t12 -29v-726q0 -17 -12 -29t-29 -12t-29 12t-12 29v294q0 8 -6 14t-15 6h-351q-8 0 -14 -6t-6 -14v-294q0 -17 -12 -29t-29 -12t-29 12t-12 29v726q0 17 12 29t29 12t29 -12t12 -29v-309q0 -8 6 -14.5t14 -6.5h351q9 0 15 6.5
t6 14.5z" />
    <glyph glyph-name="I" unicode="I" horiz-adv-x="262" 
d="M90 41v726q0 17 12 29t29 12t29 -12t12 -29v-726q0 -17 -12 -29t-29 -12t-29 12t-12 29z" />
    <glyph glyph-name="J" unicode="J" horiz-adv-x="428" 
d="M351 767v-498q0 -137 -83 -212.5t-195 -75.5q-17 0 -29 12t-12 29t12 29t29 12q81 0 138.5 53t57.5 153v498q0 17 12 29t29 12t29 -12t12 -29z" />
    <glyph glyph-name="K" unicode="K" horiz-adv-x="709" 
d="M446 539q88 -24 144 -94.5t56 -182.5v-221q0 -17 -12 -29t-29 -12t-29 12t-12 29v221q0 100 -57 152.5t-139 52.5t-139 -52.5t-57 -152.5v-221q0 -17 -12 -29t-29 -12t-29 12t-12 29v725q0 17 12 29t29 12t29 -12t12 -29v-242q0 -10 7 -17.5t18 -7.5q5 0 13 5
q38 22 84 36q14 3 24 16l169 235q12 17 34 17q13 0 23 -7q18 -12 18 -33q0 -13 -8 -24l-121 -167q-5 -8 -5 -15q0 -18 18 -23z" />
    <glyph glyph-name="L" unicode="L" horiz-adv-x="408" 
d="M77 269v498q0 17 12 29t29 12t29 -12t12 -29v-498q0 -100 57.5 -153t138.5 -53q17 0 29 -12t12 -29t-12 -29t-29 -12q-112 0 -195 75.5t-83 212.5z" />
    <glyph glyph-name="M" unicode="M" horiz-adv-x="1184" 
d="M159 520v-479q0 -17 -12 -29t-29 -12t-29 12t-12 29v479q0 137 83 212.5t195 75.5q72 0 135.5 -32.5t101.5 -94.5q38 62 101.5 94.5t135.5 32.5q112 0 195 -75.5t83 -212.5v-479q0 -17 -12 -29t-29 -12t-29 12t-12 29v479q0 101 -57 153.5t-139 52.5t-139 -52.5
t-57 -153.5v-165q0 -17 -12 -29t-29 -12t-29 12t-12 29v166q0 100 -57 152.5t-139 52.5t-139 -52.5t-57 -153.5z" />
    <glyph glyph-name="N" unicode="N" 
d="M159 521v-480q0 -17 -12 -29t-29 -12t-29 12t-12 29v479q0 137 83 212.5t195 75.5q113 0 195.5 -75t82.5 -212v-480q0 -17 -12 -29t-29 -12t-29 12t-12 29v478q0 102 -57 154.5t-139 52.5t-139 -52.5t-57 -152.5z" />
    <glyph glyph-name="O" unicode="O" horiz-adv-x="919" 
d="M142 393q0 -82 27 -147t72.5 -104t101.5 -59.5t117 -20.5t116.5 20.5t101 59.5t72.5 104t27 147t-27 147.5t-72 104.5t-100.5 59.5t-117.5 20.5t-117.5 -20.5t-101 -59.5t-72.5 -104.5t-27 -147.5zM460 -20q-75 0 -145.5 26t-128 75t-92 130t-34.5 182t34.5 182.5
t91.5 130.5t127.5 75t146.5 26t146 -26t127 -75t91.5 -130.5t34.5 -182.5t-34.5 -182t-92 -130t-127.5 -75t-145 -26z" />
    <glyph glyph-name="P" unicode="P" horiz-adv-x="692" 
d="M90 41v715q0 17 12 29t29 12h237q112 0 195 -75.5t83 -212.5t-83 -212t-195 -75q-80 0 -150 40q-10 7 -22 7q-24 0 -24 -29v-199q0 -17 -12 -29t-29 -12t-29 12t-12 29zM368 715h-176q-20 -2 -20 -21v-185q0 -100 57 -152.5t139 -52.5t139 52.5t57 152.5t-57 153t-139 53
z" />
    <glyph glyph-name="Q" unicode="Q" horiz-adv-x="922" 
d="M59 394q0 101 34.5 182t91.5 130t127.5 75t146.5 26q75 0 145.5 -26t128 -75t92 -130t34.5 -182q0 -129 -56 -225q-5 -13 -5 -18q0 -3 2 -11q12 -39 12 -80q0 -61 -41 -61q-18 0 -30 12t-12 32v36q-111 -99 -270 -99q-75 0 -145.5 26t-128 75t-92 130.5t-34.5 182.5z
M459 725q-62 0 -117.5 -20.5t-101 -59.5t-72.5 -104t-27 -147t27 -147.5t72.5 -104.5t101.5 -59.5t117 -20.5q142 0 229 91q6 6 6 17t-15.5 28.5t-17.5 23.5q-3 7 -3 14q0 16 12 28t29 12q23 0 49 -34q29 66 29 152q0 82 -27.5 147t-73 104t-101 59.5t-116.5 20.5z" />
    <glyph glyph-name="R" unicode="R" horiz-adv-x="709" 
d="M368 715h-176q-8 0 -14 -6t-6 -14v-185q0 -100 57 -153t139 -53t139 53t57 153t-57 152.5t-139 52.5zM453 223q12 -57 55.5 -96t104.5 -56q14 -2 23.5 -14t9.5 -26q0 -17 -12.5 -29t-27.5 -12q-54 0 -122 51q-82 60 -108 152q-7 28 -38 31q-57 5 -120 39q-12 6 -22 6
q-24 0 -24 -28v-200q0 -17 -12 -29t-29 -12t-29 12t-12 29v715q0 17 12 29t29 12h237q124 0 201 -81t77 -206q0 -97 -47.5 -170t-136.5 -102q-10 -3 -9 -15z" />
    <glyph glyph-name="S" unicode="S" horiz-adv-x="633" 
d="M374 681q-25 45 -75 45q-35 0 -60 -25t-25 -60t25 -60t60 -25q120 0 204 -84t84 -204q0 -119 -84 -203t-204 -84q-87 0 -159.5 48t-104.5 126q-3 7 -3 16q0 17 12 29t29 12q26 0 38 -25q24 -55 75 -89.5t113 -34.5q86 0 146 60t60 145q0 86 -60 146t-146 60
q-69 0 -118 49t-49 118t49 118t118 49q47 0 86 -23.5t61 -63.5q5 -13 5 -20q0 -17 -12 -29t-29 -12q-24 0 -36 21z" />
    <glyph glyph-name="T" unicode="T" horiz-adv-x="508" 
d="M295 680v-639q0 -17 -12 -29t-29 -12t-29 12t-12 29v639q0 14 -10.5 24.5t-24.5 10.5h-129q-17 0 -29 12t-12 29t12 29t29 12h410q17 0 29 -12t12 -29t-12 -29t-29 -12h-129q-14 0 -24.5 -10.5t-10.5 -24.5z" />
    <glyph glyph-name="U" unicode="U" 
d="M551 268v499q0 17 12 29t29 12t29 -12t12 -29v-499q0 -137 -83 -212t-195 -75q-113 0 -195.5 75t-82.5 212v499q0 17 12 29t29 12t29 -12t12 -29v-497q0 -102 57 -154.5t139 -52.5t139 52.5t57 152.5z" />
    <glyph glyph-name="V" unicode="V" horiz-adv-x="760" 
d="M342 25l-307 725q-3 8 -3 16q0 18 11 29.5t29 11.5q27 0 38 -25l269 -636l271 637q10 25 37 25q18 0 29.5 -12.5t11.5 -28.5q0 -9 -3 -16l-308 -726q-10 -25 -38 -25q-27 0 -37 25z" />
    <glyph glyph-name="W" unicode="W" horiz-adv-x="947" 
d="M348 25l-309 724q-7 16 -0.5 31.5t22.5 22.5t31.5 0.5t22.5 -22.5l277 -650l37 87q6 14 0 27l-62 147q-6 14 -0.5 27t18.5 19q14 6 27.5 0.5t18.5 -19.5l42 -98l42 98q6 14 19.5 19.5t26.5 -0.5q31 -13 19 -46l-63 -147q-6 -13 0 -27l38 -87l278 651q7 16 22.5 22.5
t31.5 -0.5t22 -22.5t-1 -31.5l-309 -725q-7 -16 -22.5 -22.5t-31.5 0.5q-14 7 -22 24l-50 116l-49 -116q-8 -17 -23 -24t-30.5 -0.5t-22.5 22.5z" />
    <glyph glyph-name="X" unicode="X" horiz-adv-x="812" 
d="M327 429l-291 310q-12 12 -12 28q0 17 12.5 29t29.5 12t29 -13l285 -303q11 -11 25 -11q15 0 26 11l283 302q12 13 29 13t29.5 -12t12.5 -29t-11 -28l-290 -309q-10 -10 -10 -25q0 -12 10 -23l293 -312q11 -11 11 -27q0 -17 -12.5 -29.5t-29.5 -12.5q-16 0 -29 13
l-286 304q-11 11 -26 11q-16 0 -25 -11l-285 -304q-13 -13 -29 -13q-17 0 -29.5 12t-12.5 29q0 16 12 28l291 312q9 9 9 23t-9 25z" />
    <glyph glyph-name="Y" unicode="Y" horiz-adv-x="648" 
d="M520 643v123q0 17 12 29t29 12t29 -12t12 -29v-123q0 -115 -59.5 -186.5t-149.5 -92.5q-28 -7 -28 -36v-287q0 -17 -12 -29t-29 -12t-29 12t-12 29v287q0 29 -28 36q-91 22 -150 93t-59 186v123q0 17 12 29t29 12t29 -12t12 -29v-121q0 -102 57 -154.5t139 -52.5
t139 52.5t57 152.5z" />
    <glyph glyph-name="Z" unicode="Z" horiz-adv-x="633" 
d="M561 11h-495q-13 0 -23.5 9.5t-10.5 25.5q0 11 6 20l449 651h-414q-17 0 -28.5 12t-11.5 29t11.5 28t28.5 11h487q11 0 20 -6q15 -11 15 -29q0 -11 -6 -20l-449 -651h421q17 0 28.5 -11t11.5 -29q0 -17 -11.5 -28.5t-28.5 -11.5z" />
    <glyph glyph-name="bracketleft" unicode="[" horiz-adv-x="563" 
d="M184 -137h157q17 0 29.5 -12t12.5 -29t-12.5 -29t-29.5 -12h-209q-17 0 -29.5 12t-12.5 29v809q0 17 12 28t30 11h209q17 0 29.5 -12t12.5 -29t-12.5 -29t-29.5 -12h-157q-12 0 -12 -11v-702q0 -12 12 -12z" />
    <glyph glyph-name="backslash" unicode="\" horiz-adv-x="418" 
d="M103 535l280 -660q3 -7 3 -14q0 -24 -21 -32q-7 -3 -14 -3q-24 0 -32 21l-280 661q-12 32 18 45q7 3 14 3q24 0 32 -21z" />
    <glyph glyph-name="bracketright" unicode="]" horiz-adv-x="563" 
d="M379 588h-157q-17 0 -29.5 12t-12.5 29t12.5 29t29.5 12h209q17 0 29.5 -12t12.5 -29v-809q0 -17 -12 -28t-30 -11h-209q-17 0 -29.5 12t-12.5 29t12.5 29t29.5 12h157q12 0 12 11v702q0 12 -12 12z" />
    <glyph glyph-name="asciicircum" unicode="^" horiz-adv-x="429" 
d="M206 685l-87 -79q-8 -8 -20 -8q-14 0 -25 11t-11 27t15 27l124 72q4 3 12 3t13 -3l124 -72q15 -11 15 -27t-11 -27t-26 -11q-11 0 -19 8l-87 79q-5 3 -9 3q-5 0 -8 -3z" />
    <glyph glyph-name="underscore" unicode="_" horiz-adv-x="634" 
d="M561 -82h-488q-17 0 -29 12t-12 29t12 29t29 12h488q17 0 29 -12t12 -29t-12 -29t-29 -12z" />
    <glyph glyph-name="grave" unicode="`" horiz-adv-x="251" 
d="M161 625l-142 39q-19 6 -19 31q0 13 10 24.5t24 11.5q5 0 11 -3l130 -66q13 -7 13 -18q0 -17 -20 -20q-6 -1 -7 1z" />
    <glyph glyph-name="a" unicode="a" horiz-adv-x="725" 
d="M158 361q-16 -38 -16 -92q0 -101 57 -153.5t139 -52.5t135 49q61 58 61 157q0 52 -17 92q-23 56 -71.5 84.5t-107.5 28.5q-60 0 -107.5 -28.5t-72.5 -84.5zM534 480v16q0 17 12 29t29 12t29 -12t12 -29v-267q0 -44 19 -88t52 -65q8 -5 13 -13q9 -14 5.5 -30.5
t-16.5 -25.5q-23 -16 -46 0q-41 28 -62 68q-13 23 -26 5q-80 -99 -217 -99q-112 0 -195 75.5t-83 212.5t82.5 212t195.5 75q117 0 196 -76z" />
    <glyph glyph-name="b" unicode="b" horiz-adv-x="665" 
d="M77 268v498q0 17 12 29t29 12t29 -12t12 -29v-286q78 75 196 75q53 0 102 -18t89 -52t63.5 -90.5t23.5 -126.5q0 -137 -83 -212.5t-195 -75.5t-195 75.5t-83 212.5zM159 270q0 -103 57.5 -155.5t138.5 -52.5q82 0 139 53t57 153t-57 152.5t-139 52.5q-81 0 -138.5 -52
t-57.5 -151z" />
    <glyph glyph-name="c" unicode="c" horiz-adv-x="529" 
d="M462 530q24 -10 24 -37q0 -17 -12 -29t-29 -12q-9 0 -17 4q-40 18 -87 18q-82 0 -139 -52.5t-57 -152.5q0 -101 57 -153.5t139 -52.5q45 0 86 18q8 4 18 4q17 0 29 -12t12 -29q0 -26 -25 -38q-53 -25 -120 -25q-112 0 -195 75.5t-83 212.5t82.5 212t195.5 75
q68 0 121 -26z" />
    <glyph glyph-name="d" unicode="d" horiz-adv-x="665" 
d="M588 766v-498q0 -137 -83 -212.5t-195 -75.5t-195 75.5t-83 212.5q0 70 23.5 126.5t63.5 90.5t89 52t102 18q118 0 196 -75v286q0 17 12 29t29 12t29 -12t12 -29zM506 270q0 99 -57.5 151t-138.5 52q-82 0 -139 -52.5t-57 -152.5t57 -153t139 -53q81 0 138.5 52.5
t57.5 155.5z" />
    <glyph glyph-name="e" unicode="e" horiz-adv-x="645" 
d="M340 473q-65 0 -119 -34t-54 -81q0 -43 52.5 -79t120.5 -36q76 0 119.5 35.5t43.5 79.5q0 40 -42 77.5t-121 37.5zM60 268q0 109 58 185q80 102 223 102q104 0 174 -57.5t70 -139.5q0 -84 -70 -140.5t-184 -56.5q-67 0 -115 24.5t-73 52.5q9 -86 64.5 -131t130.5 -45
q46 0 86 18q9 4 18 4q17 0 29 -12t12 -29q0 -26 -25 -38q-54 -25 -120 -25q-112 0 -195 75.5t-83 212.5z" />
    <glyph glyph-name="f" unicode="f" horiz-adv-x="449" 
d="M122 41v391q0 14 -10 25q-10 10 -25 10h-36q-14 0 -25 10q-10 11 -10 25t10 25q11 10 25 10h38q15 0 26 12q9 12 12 29q17 109 100 173q75 57 173 57q17 0 29 -12t12 -29t-12 -29q-11 -12 -29 -12q-66 0 -117 -35q-49 -34 -72 -109q-5 -17 5 -30q10 -15 26 -15h147
q14 0 25 -10q10 -11 10 -25t-10 -25q-11 -10 -25 -10h-150q-14 0 -25 -10q-10 -11 -10 -25v-391q0 -17 -12 -29q-10 -12 -29 -12q-17 0 -29 12t-12 29z" />
    <glyph glyph-name="g" unicode="g" horiz-adv-x="709" 
d="M341 -19q-112 0 -195 75.5t-83 212.5t82.5 212t195.5 75q53 0 102 -18t89 -52t63.5 -90.5t23.5 -126.5v-252q0 -137 -83 -212.5t-195 -75.5q-17 0 -29 12t-12 29t12 29t29 12q82 0 139 53t57 153v40q-79 -76 -196 -76zM341 63q82 0 139 52.5t57 153.5q0 100 -57 152.5
t-139 52.5t-139 -52.5t-57 -152.5q0 -101 57.5 -153.5t138.5 -52.5z" />
    <glyph glyph-name="h" unicode="h" horiz-adv-x="723" 
d="M172 767v-236q0 -10 7 -17.5t18 -7.5q5 0 13 5q68 45 158 45q112 0 195 -75t83 -212v-228q0 -17 -12 -29t-29 -12t-29 12t-12 29v228q0 100 -57 152.5t-139 52.5t-139 -52.5t-57 -152.5v-228q0 -17 -12 -29t-29 -12t-29 12t-12 29v726q0 17 12 29t29 12t29 -12t12 -29z
" />
    <glyph glyph-name="i" unicode="i" horiz-adv-x="306" 
d="M77 223v273q0 17 12 29t29 12t29 -12t12 -29v-268q0 -50 26.5 -97t69.5 -75q19 -12 19 -35q0 -16 -11.5 -28.5t-28.5 -12.5q-25 0 -56.5 30t-53.5 64q-47 74 -47 149zM77 671q0 16 10.5 28t30.5 12t30.5 -12t10.5 -28t-10.5 -27.5t-30.5 -11.5t-30.5 11.5t-10.5 27.5z
" />
    <glyph glyph-name="j" unicode="j" horiz-adv-x="262" 
d="M90 673q0 16 10.5 27.5t30.5 11.5t30.5 -11.5t10.5 -27.5t-10.5 -27.5t-30.5 -11.5t-30.5 11.5t-10.5 27.5zM172 496v-478q0 -137 -83 -212.5t-195 -75.5q-17 0 -29 12t-12 29t12 29t29 12q82 0 139 53t57 153v478q0 17 12 29t29 12t29 -12t12 -29z" />
    <glyph glyph-name="k" unicode="k" horiz-adv-x="704" 
d="M446 371q88 -24 144 -94.5t56 -182.5v-53q0 -17 -12 -29t-29 -12t-29 12t-12 29v53q0 100 -57 152.5t-139 52.5t-139 -52.5t-57 -152.5v-53q0 -17 -12 -29t-29 -12t-29 12t-12 29v726q0 17 12 29t29 12t29 -12t12 -29v-411q0 -10 7 -17.5t18 -7.5q5 0 13 5q38 22 84 36
q14 3 24 16l105 152q12 17 34 17q17 0 29 -12t12 -28q0 -13 -8 -24l-57 -84q-5 -8 -5 -15q0 -18 18 -23z" />
    <glyph glyph-name="l" unicode="l" horiz-adv-x="428" 
d="M77 268v498q0 17 12 29t29 12t29 -12t12 -29v-498q0 -100 57.5 -153t138.5 -53q17 0 29 -12t12 -29t-12 -29t-29 -12q-112 0 -195 75.5t-83 212.5z" />
    <glyph glyph-name="m" unicode="m" horiz-adv-x="1185" 
d="M593 0q-17 0 -29 12t-12 29v228q0 100 -58 152.5t-139 52.5t-138.5 -52.5t-57.5 -152.5v-228q0 -17 -12 -29t-29 -12t-29 12t-12 29v228q0 137 83 212t195 75q72 0 136 -32.5t102 -94.5q37 62 101 94.5t136 32.5q112 0 195 -75t83 -212v-228q0 -17 -12 -29t-29 -12
t-29 12t-12 29v228q0 100 -57.5 152.5t-138.5 52.5q-82 0 -139 -52.5t-57 -152.5v-228q0 -17 -12 -29t-29 -12z" />
    <glyph glyph-name="n" unicode="n" 
d="M633 268v-227q0 -17 -12 -29t-29 -12t-28.5 12t-11.5 29v227q0 100 -58 153t-139 53t-138.5 -53t-57.5 -153v-227q0 -17 -12 -29t-29 -12t-29 12t-12 29v227q0 137 83 212.5t195 75.5t195 -75.5t83 -212.5z" />
    <glyph glyph-name="o" unicode="o" horiz-adv-x="676" 
d="M338 -20q-112 0 -195 75.5t-83 212.5t82.5 212t195.5 75q53 0 102 -18t89 -52t63.5 -90.5t23.5 -126.5q0 -137 -83 -212.5t-195 -75.5zM338 62q82 0 139 53t57 153t-57 152.5t-139 52.5t-139 -52.5t-57 -152.5t57.5 -153t138.5 -53z" />
    <glyph glyph-name="p" unicode="p" horiz-adv-x="665" 
d="M77 -222v489q0 137 83 212.5t195 75.5t195 -75.5t83 -212.5q0 -70 -23.5 -126.5t-63.5 -90.5t-89 -52t-102 -18q-118 0 -196 75v-277q0 -17 -12 -29t-29 -12t-29 12t-12 29zM159 265q0 -99 57.5 -151t138.5 -52q82 0 139 52.5t57 152.5t-57 153t-139 53
q-81 0 -138.5 -52.5t-57.5 -155.5z" />
    <glyph glyph-name="q" unicode="q" horiz-adv-x="665" 
d="M588 267v-489q0 -17 -12 -29t-29 -12t-29 12t-12 29v277q-78 -75 -196 -75q-53 0 -102 18t-89 52t-63.5 90.5t-23.5 126.5q0 137 83 212.5t195 75.5t195 -75.5t83 -212.5zM506 265q0 103 -57.5 155.5t-138.5 52.5q-82 0 -139 -53t-57 -153t57 -152.5t139 -52.5
q81 0 138.5 52t57.5 151z" />
    <glyph glyph-name="r" unicode="r" horiz-adv-x="524" 
d="M159 269v-228q0 -17 -12 -29t-29 -12t-29 12t-12 29v228q0 137 82.5 212t195.5 75q68 0 122 -25q23 -12 23 -37q0 -17 -12 -29t-29 -12q-9 0 -17 3q-40 18 -87 18q-82 0 -139 -52.5t-57 -152.5z" />
    <glyph glyph-name="s" unicode="s" horiz-adv-x="575" 
d="M454 508q26 -18 26 -38t-11 -30.5t-29 -10.5q-16 0 -30 9q-59 38 -113 38q-126 0 -126 -71q0 -65 132 -65q209 0 209 -167q0 -193 -221 -193q-169 0 -240 135q-5 15 -5 21q0 17 11.5 28.5t29.5 11.5q12 0 20.5 -5.5t20 -21t12.5 -16.5q63 -74 152 -74q138 0 138 109
q0 92 -136 92q-206 0 -206 145q0 151 210 150q90 -2 156 -47z" />
    <glyph glyph-name="t" unicode="t" horiz-adv-x="463" 
d="M194 431v-163q0 -100 57 -153t139 -53q17 0 29 -12t12 -29t-12 -29t-29 -12q-112 0 -195 75.5t-83 212.5v163q0 15 -10.5 25t-24.5 10h-34q-14 0 -24.5 10.5t-10.5 24.5q0 15 10.5 25t24.5 10h34q14 0 24.5 10.5t10.5 24.5v196q0 17 12 29t29 12t29 -12t12 -29v-196
q0 -14 10.5 -24.5t24.5 -10.5h123q14 0 24.5 -10t10.5 -25q0 -14 -10.5 -24.5t-24.5 -10.5h-123q-14 0 -24.5 -10t-10.5 -25z" />
    <glyph glyph-name="u" unicode="u" 
d="M633 496v-228q0 -137 -83 -212.5t-195 -75.5t-195 75.5t-83 212.5v228q0 17 12 29t29 12t29 -12t12 -29v-228q0 -100 57.5 -153t138.5 -53t139 53t58 153v228q0 17 11.5 29t28.5 12t29 -12t12 -29z" />
    <glyph glyph-name="v" unicode="v" horiz-adv-x="531" 
d="M228 24l-193 455q-3 8 -3 16q0 27 24 38q7 3 16 3q27 0 38 -25l156 -366l155 366q11 25 38 25q9 0 16 -3q24 -11 24 -37q0 -9 -3 -17l-193 -455q-11 -24 -37 -24q-28 0 -38 24z" />
    <glyph glyph-name="w" unicode="w" horiz-adv-x="1185" 
d="M593 397q17 0 29 -12t12 -29v-88q0 -100 57 -152.5t139 -52.5q81 0 138.5 52.5t57.5 152.5v228q0 17 12 29t29 12t29 -12t12 -29v-228q0 -137 -83 -212t-195 -75q-72 0 -136 32.5t-101 94.5q-38 -62 -102 -94.5t-136 -32.5q-112 0 -195 75t-83 212v228q0 17 12 29t29 12
t29 -12t12 -29v-228q0 -100 57.5 -152.5t138.5 -52.5t139 52.5t58 152.5v88q0 17 12 29t29 12z" />
    <glyph glyph-name="x" unicode="x" horiz-adv-x="584" 
d="M317 347l165 177q13 13 30 13t28.5 -12t11.5 -28q0 -18 -11 -29l-171 -183q-6 -7 -6 -17t6 -16l171 -183q11 -11 11 -29q0 -16 -11.5 -28t-28.5 -12q-18 0 -30 14l-165 176q-7 7 -18 7t-18 -7l-164 -176q-12 -14 -30 -14q-17 0 -29 12t-12 28q0 17 12 29l170 183
q7 7 7 16q0 10 -7 17l-170 183q-12 12 -12 29t12 28.5t29 11.5t30 -13l164 -177q8 -8 18 -8t18 8z" />
    <glyph glyph-name="y" unicode="y" horiz-adv-x="723" 
d="M551 274v223q0 17 12 29t29 12t29 -12t12 -29v-480q0 -137 -83 -212t-195 -75q-68 0 -121 26q-24 10 -24 37q0 17 12 29t29 12q10 0 17 -4q40 -18 87 -18q82 0 139 52.5t57 152.5v46q-79 -76 -196 -76q-113 0 -195.5 75t-82.5 212v223q0 17 12 29t29 12t29 -12t12 -29
v-221q0 -102 57 -154.5t139 -52.5t139 52.5t57 152.5z" />
    <glyph glyph-name="z" unicode="z" horiz-adv-x="564" 
d="M64 496q0 17 11.5 28.5t28.5 11.5h364q15 0 26 -10q7 -5 11 -15q3 -6 3 -15q0 -15 -10 -25q-245 -283 -320 -369q-20 -23 11 -23h303q17 0 28.5 -11.5t11.5 -28.5t-11.5 -28.5t-28.5 -11.5h-421q-14 0 -25 11q-14 11 -14 29q0 16 10 26q21 24 139.5 161.5t179.5 207.5
q19 22 -10 22h-247q-17 0 -28.5 11.5t-11.5 28.5z" />
    <glyph glyph-name="braceleft" unicode="{" horiz-adv-x="430" 
d="M109 228h-25q-18 0 -28 12t-10 29t10 29.5t28 12.5h25q11 0 11 11v133q0 127 82 209q61 61 97 61q17 0 28 -11.5t11 -27.5q0 -24 -22 -36q-33 -16 -61 -48q-52 -57 -52 -147v-372q0 -90 51 -146q29 -32 62 -49q22 -10 22 -35q0 -17 -11 -28t-28 -11q-10 0 -18 4
q-43 20 -79 56q-82 82 -82 209v133q0 12 -11 12z" />
    <glyph glyph-name="bar" unicode="|" horiz-adv-x="430" 
d="M250 814v-842q0 -14 -10.5 -24.5t-24.5 -10.5t-24.5 10.5t-10.5 24.5v842q0 14 10.5 24.5t24.5 10.5t24.5 -10.5t10.5 -24.5z" />
    <glyph glyph-name="braceright" unicode="}" horiz-adv-x="430" 
d="M346 227h-25q-11 0 -11 -12v-133q0 -127 -82 -209q-36 -36 -79 -56q-8 -4 -18 -4q-17 0 -28 11t-11 28q0 25 22 35q33 17 62 49q51 56 51 146v372q0 90 -52 147q-28 32 -61 48q-22 12 -22 36q0 16 11 27.5t28 11.5q36 0 97 -61q82 -82 82 -209v-133q0 -11 11 -11h25
q18 0 28 -12.5t10 -29.5t-10 -29t-28 -12z" />
    <glyph glyph-name="asciitilde" unicode="~" horiz-adv-x="403" 
d="M220 4l-69 39q-11 6 -19 6q-29 0 -34 -32q-2 -13 -11.5 -21.5t-22.5 -8.5q-14 0 -23 9.5t-9 22.5q0 39 30.5 67t69.5 28q29 0 51 -13l69 -39q10 -6 19 -6q29 0 34 32q2 13 11.5 21.5t22.5 8.5q14 0 23 -9.5t9 -22.5q0 -39 -30.5 -67t-69.5 -28q-29 0 -51 13zM220 4
l-69 39q-11 6 -19 6q-29 0 -34 -32q-2 -13 -11.5 -21.5t-22.5 -8.5q-14 0 -23 9.5t-9 22.5q0 39 30.5 67t69.5 28q29 0 51 -13l69 -39q10 -6 19 -6q29 0 34 32q2 13 11.5 21.5t22.5 8.5q14 0 23 -9.5t9 -22.5q0 -39 -30.5 -67t-69.5 -28q-29 0 -51 13z" />
    <glyph glyph-name="exclamdown" unicode="&#xa1;" horiz-adv-x="262" 
d="M90 507q0 17 12 28t29 11t29 -11t12 -28t-12 -28t-29 -11t-29 11t-12 28zM166 272v-500q0 -14 -10.5 -24.5t-24.5 -10.5t-24.5 10.5t-10.5 24.5v500q0 14 10.5 24.5t24.5 10.5t24.5 -10.5t10.5 -24.5z" />
    <glyph glyph-name="cent" unicode="&#xa2;" horiz-adv-x="532" 
d="M302 565v27q0 14 10.5 24.5t24.5 10.5t24.5 -10.5t10.5 -24.5v-26q0 -11 11 -13q37 -4 78 -22q25 -10 25 -38q0 -17 -12 -29t-29 -12q-9 0 -17 4q-40 18 -87 18q-82 0 -139 -52.5t-57 -152.5t57 -153t139 -53q49 0 87 19q8 3 17 3q17 0 29 -12t12 -29q0 -26 -24 -37
q-42 -17 -79 -23q-11 -2 -11 -12v-26q0 -14 -10.5 -24.5t-24.5 -10.5t-24.5 10.5t-10.5 24.5v27q0 11 -10 12q-97 15 -163 89t-66 195q0 122 65.5 195t163.5 88q10 1 10 13z" />
    <glyph glyph-name="sterling" unicode="&#xa3;" horiz-adv-x="474" 
d="M406 57q-57 -57 -146 -57h-182q-15 0 -22.5 9.5t-7.5 22.5t8 22.5t22 9.5h61q41 0 70.5 28.5t29.5 68.5q0 52 -44 86q-10 7 -22 7h-95q-14 0 -22 9.5t-8 22.5t7.5 22.5t22.5 9.5h20q3 0 3 3q-22 37 -22 80v11q4 62 49 104.5t107 42.5h9q45 0 81.5 -26t53.5 -68
q2 -8 2 -11q0 -13 -9 -22t-23 -9q-16 0 -26 19q-29 57 -82 57h-4q-37 0 -65.5 -25.5t-30.5 -63.5q0 -54 19 -73t33 -19h139q15 0 22.5 -9.5t7.5 -22.5t-8 -22.5t-22 -9.5h-54q-2 0 -2 -3q23 -44 23 -84q0 -52 -33 -98q-1 -1 -1 -3t4 -2q52 0 89 34q18 17 28 32q10 16 16 22
q8 8 20 8t20 -8t8 -18q0 -17 -13 -37q-8 -15 -31 -40z" />
    <glyph glyph-name="currency" unicode="&#xa4;" horiz-adv-x="648" 
d="M324 473q-82 0 -139 -52.5t-57 -152.5t57 -153t139 -53t139 53t57 153t-57 152.5t-139 52.5zM92 455l-38 38q-8 8 -8 18t8 18q7 7 18 7q10 0 17 -7l36 -36q4 -4 9 -4q4 0 9 3q75 63 181 63q96 0 172 -55q3 -3 8 -3t9 4l27 28q7 7 18 7t18 -7t7 -18t-7 -18l-28 -27
q-4 -4 -4 -10q1 -2 2 -6q56 -75 56 -182q0 -110 -56 -182q0 -2 -1 -5q-1 -1 -1 -2q0 -5 4 -9l28 -28q7 -7 7 -17q0 -11 -7 -18q-8 -8 -18 -8t-18 8l-27 28q-5 3 -9 3l-8 -2q-73 -56 -172 -56q-106 0 -181 63q-4 4 -9 4t-9 -4l-36 -36q-8 -8 -17 -8q-10 0 -18 8t-8 18
q0 9 8 17l39 39q4 4 4 9q-1 2 -2 6q-49 71 -49 172t49 171l2 6q0 5 -5 10z" />
    <glyph glyph-name="yen" unicode="&#xa5;" horiz-adv-x="463" 
d="M266 163v-148q0 -15 -10 -25t-25 -10q-14 0 -24 10t-10 25v152q0 7 -4 11q-3 3 -7 13q-1 4 -6 4h-103q-25 0 -25 25q0 11 7 18.5t18 7.5h69q6 0 9 4.5t1 9.5l-16 36q-2 6 -9 6h-54q-25 0 -25 25q0 11 7 18.5t18 7.5h22q6 0 9 4.5t1 9.5l-60 138q-3 7 -3 15q0 14 10 24.5
t25 10.5q21 0 31 -19l112 -259q3 -7 8 -7q6 0 9 7l110 257q9 21 31 21q14 0 24.5 -10.5t10.5 -24.5q0 -8 -4 -15l-58 -138q-2 -5 1 -9.5t8 -4.5h21q11 0 18.5 -7.5t7.5 -18.5t-7.5 -18t-18.5 -7h-51q-8 0 -10 -6l-15 -36q-2 -5 1 -9.5t8 -4.5h67q11 0 18.5 -7.5t7.5 -18.5
t-7.5 -18t-18.5 -7h-100q-5 0 -6 -4q-1 -3 -4 -7.5t-4 -6.5q-5 -8 -5 -14z" />
    <glyph glyph-name="brokenbar" unicode="&#xa6;" horiz-adv-x="250" 
d="M160 754v-405q0 -14 -10.5 -24.5t-24.5 -10.5t-24.5 10.5t-10.5 24.5v405q0 14 10.5 24.5t24.5 10.5t24.5 -10.5t10.5 -24.5zM160 179v-405q0 -14 -10.5 -24.5t-24.5 -10.5t-24.5 10.5t-10.5 24.5v405q0 14 10.5 24.5t24.5 10.5t24.5 -10.5t10.5 -24.5z" />
    <glyph glyph-name="section" unicode="&#xa7;" horiz-adv-x="458" 
d="M202 360q-45 7 -66 23q-36 29 -36 72q0 44 41 71.5t95 27.5q68 0 114 -40q8 -5 8 -16q0 -13 -11 -22q-7 -6 -18 -6t-15 4t-12 10q-25 18 -68 18q-30 0 -51.5 -12t-21.5 -35q0 -37 77 -46q29 -2 50.5 -7t44.5 -15.5t35.5 -31t12.5 -50.5q0 -35 -23 -62t-60 -40
q68 -23 68 -90q0 -50 -44 -81.5t-103 -31.5q-91 0 -138 70q-4 7 -4 15q0 9 6 17q9 11 22 11q9 0 17 -8l6 -9q15 -20 37 -32q23 -14 61 -14q36 0 60 15t24 46q0 23 -24 36t-54 17t-63.5 10.5t-47.5 16.5q-37 28 -37 72q0 40 34 66.5t84 30.5zM134 273q-15 -22 28 -36
q24 -7 53 -7q39 0 69.5 13.5t36.5 39.5q5 22 -12.5 33t-49.5 11q-38 0 -75 -14.5t-50 -39.5z" />
    <glyph glyph-name="dieresis" unicode="&#xa8;" horiz-adv-x="242" 
d="M0 677q0 16 10.5 27.5t30.5 11.5t30.5 -11.5t10.5 -27.5t-10.5 -27.5t-30.5 -11.5t-30.5 11.5t-10.5 27.5zM160 677q0 16 10.5 27.5t30.5 11.5t30.5 -11.5t10.5 -27.5t-10.5 -27.5t-30.5 -11.5t-30.5 11.5t-10.5 27.5z" />
    <glyph glyph-name="copyright" unicode="&#xa9;" horiz-adv-x="682" 
d="M341 31q93 0 160 61t67 176t-67 175.5t-160 60.5q-94 0 -160.5 -60.5t-66.5 -175.5t67 -176t160 -61zM63 268q0 137 82.5 212t195.5 75q112 0 195 -75t83 -212t-83 -212.5t-195 -75.5t-195 75.5t-83 212.5zM398 157q8 2 11 2q10 0 17 -7t7 -17q0 -14 -14 -22
q-35 -15 -72 -15q-66 0 -115 44t-49 126t48.5 125.5t115.5 43.5q38 0 71 -15q15 -8 15 -22q0 -10 -7 -17t-17 -7h-1q-2 1 -4.5 1.5t-4.5 0.5q-28 11 -52 11q-48 0 -81.5 -31t-33.5 -90q0 -60 33.5 -91t81.5 -31q24 0 51 11z" />
    <glyph glyph-name="ordfeminine" unicode="&#xaa;" horiz-adv-x="341" 
d="M49 459q-8 -17 -8 -46q0 -51 28.5 -77t69.5 -26q40 0 67 24q31 29 31 79q0 27 -9 46q-23 56 -89 56t-90 -56zM237 518v8q0 9 6 15t14 6q9 0 15 -6t6 -15v-133q0 -54 35 -77q1 0 7 -6q10 -17 -6 -28q-11 -8 -23 0q-20 14 -31 34q-6 12 -13 2q-40 -50 -108 -50
q-56 0 -97.5 38t-41.5 107q0 68 41 105.5t98 37.5q59 0 98 -38z" />
    <glyph glyph-name="guillemotleft" unicode="&#xab;" horiz-adv-x="361" 
d="M115 386l-53 -104q-10 -16 0 -32l53 -104q6 -14 0.5 -27.5t-20.5 -18.5t-28 0.5t-17 19.5l-38 139q-1 7 0 14l38 138q4 14 17.5 20t27.5 1q15 -5 20.5 -18.5t-0.5 -27.5zM258 386l-53 -104q-10 -16 0 -32l53 -104q6 -14 0.5 -27.5t-20.5 -18.5t-28 0.5t-17 19.5l-38 139
q-1 7 0 14l38 138q4 14 17.5 20t27.5 1q15 -5 20.5 -18.5t-0.5 -27.5z" />
    <glyph glyph-name="logicalnot" unicode="&#xac;" horiz-adv-x="777" 
d="M605 231h-480q-14 0 -24.5 10t-10.5 25q0 14 10.5 24.5t24.5 10.5h527q14 0 24.5 -10.5t10.5 -24.5v-187q0 -14 -10.5 -24.5t-24.5 -10.5t-24.5 10.5t-10.5 24.5v139q0 13 -12 13z" />
    <glyph glyph-name="uni00AD" unicode="&#xad;" horiz-adv-x="436" 
d="M332 226h-228q-17 0 -29 12t-12 29t12 29t29 12h228q17 0 29 -12t12 -29t-12 -29t-29 -12z" />
    <glyph glyph-name="registered" unicode="&#xae;" horiz-adv-x="326" 
d="M163 401q49 0 84.5 32.5t35.5 93.5q0 60 -35.5 92.5t-84.5 32.5t-85 -32.5t-36 -92.5q0 -61 36 -93.5t85 -32.5zM24 527q0 68 41 105.5t98 37.5q56 0 97.5 -37.5t41.5 -105.5q0 -70 -41.5 -107t-97.5 -37t-97.5 37t-41.5 107zM166 596h-38q-5 0 -5 -4v-40q0 -22 13 -33.5
t30 -11.5t29.5 11.5t12.5 33.5t-12.5 33t-29.5 11zM184 490q4 -16 18 -25q4 -3 11.5 -6t9.5 -4q3 -1 3 -6q-1 -2 -2 -6q-3 -4 -8 -4q-17 6 -25 11q-18 13 -23 33q-1 5 -9 7q-9 1 -25 8l-5 2q-6 0 -6 -6v-42q0 -9 -8 -9q-9 0 -9 9v153q0 9 9 9h51q27 0 43.5 -17.5t16.5 -44.5
q0 -46 -40 -59z" />
    <glyph glyph-name="macron" unicode="&#xaf;" horiz-adv-x="407" 
d="M46 671q0 15 10.5 25t24.5 10h245q15 0 25 -10t10 -25q0 -14 -10 -24.5t-25 -10.5h-245q-14 0 -24.5 10.5t-10.5 24.5z" />
    <glyph glyph-name="degree" unicode="&#xb0;" horiz-adv-x="310" 
d="M139 393q-56 0 -97.5 37.5t-41.5 106.5q0 68 41 105.5t98 37.5t98 -37.5t41 -105.5q0 -69 -41.5 -106.5t-97.5 -37.5zM139 434q41 0 69.5 26.5t28.5 76.5t-28.5 76t-69.5 26t-69.5 -26t-28.5 -76t29 -76.5t69 -26.5z" />
    <glyph glyph-name="plusminus" unicode="&#xb1;" horiz-adv-x="508" 
d="M90 24q0 11 7 18t17 7h280q10 0 17 -7t7 -18q0 -10 -7 -17t-17 -7h-280q-10 0 -17 7t-7 17zM254 114q-10 0 -17 7t-7 17v88q0 12 -8 20t-20 8h-87q-10 0 -17 7t-7 17t7 17t17 7h87q12 0 20 8t8 20v88q0 10 7 16.5t17 6.5t17 -6.5t7 -16.5v-88q0 -12 8 -20t20 -8h88
q10 0 17 -7t7 -17t-7 -17t-17 -7h-88q-12 0 -20 -8t-8 -20v-88q0 -10 -7 -17t-17 -7z" />
    <glyph glyph-name="twosuperior" unicode="&#xb2;" horiz-adv-x="264" 
d="M73 509h48q33 0 51.5 18.5t18.5 43.5q0 34 -21 52t-49 18q-40 0 -65 -42q-9 -12 -20 -12q-8 0 -14 5.5t-6 14.5q0 2 2 8q10 28 39.5 47.5t63.5 19.5q48 0 79.5 -31.5t31.5 -79.5q0 -44 -31.5 -73.5t-79.5 -29.5h-49q-6 0 -10.5 -5t-4.5 -10q0 -6 5 -11t11 -5h138
q10 0 15.5 -6.5t5.5 -14.5q0 -20 -21 -20h-138q-23 0 -39.5 16.5t-16.5 40.5q0 23 16.5 39.5t39.5 16.5z" />
    <glyph glyph-name="threesuperior" unicode="&#xb3;" horiz-adv-x="222" 
d="M163 569v-2q27 -31 27 -70q0 -42 -29.5 -73.5t-75.5 -31.5q-36 0 -61 19q-8 8 -8 17q0 8 5.5 14t14.5 6q4 0 19 -7.5t30 -7.5q26 0 45 18t19 45q0 51 -54 62q-5 0 -5 6t5 6q15 0 25 10t10 25q0 14 -10.5 24t-24.5 10q-6 0 -14.5 -3t-12.5 -3q-9 0 -15 6t-6 14q0 12 11 18
q16 9 37 9q32 0 54 -23t22 -54q0 -16 -8 -34z" />
    <glyph glyph-name="acute" unicode="&#xb4;" horiz-adv-x="369" 
d="M193 663l129 64q6 3 13 3q13 0 23.5 -11t10.5 -26q0 -26 -23 -32l-139 -35q-12 -3 -19.5 2.5t-7.5 15.5q0 13 13 19z" />
    <glyph glyph-name="mu" unicode="&#xb5;" horiz-adv-x="736" 
d="M569 23q-9 14 -23 14q-6 0 -14 -5q-69 -50 -164 -50q-100 0 -173 56q-8 6 -15.5 3t-7.5 -13v-248q0 -17 -12 -29t-29 -12t-29 12t-12 29v717q0 17 12 29t29 12t29 -12t12 -29v-228q0 -100 57 -152.5t139 -52.5q81 0 138.5 52.5t57.5 151.5v229q0 17 12 29t29 12t29 -12
t12 -29v-455q0 -17 -12 -29t-29 -12q-26 0 -36 22z" />
    <glyph glyph-name="paragraph" unicode="&#xb6;" horiz-adv-x="567" 
d="M433 730q9 -22 9 -40v-591q0 -42 -28 -70.5t-70 -28.5t-69.5 28.5t-27.5 70.5v332q0 5 -4 5q-74 0 -127 51t-53 125t54 125t130 51h230q11 0 19 -7.5t8 -18.5t-8 -18.5t-19 -7.5h-43q-2 -2 -1 -6zM386 99v591q0 18 -12 30.5t-30 12.5t-30 -12.5t-12 -30.5v-591
q0 -18 12 -31t30 -13t30 13t12 31z" />
    <glyph glyph-name="periodcentered" unicode="&#xb7;" horiz-adv-x="262" 
d="M148 266q0 16 10.5 27.5t30.5 11.5t30.5 -11.5t10.5 -27.5t-10.5 -27.5t-30.5 -11.5t-30.5 11.5t-10.5 27.5z" />
    <glyph glyph-name="cedilla" unicode="&#xb8;" horiz-adv-x="292" 
d="M174 5v-104q0 -7 9 -12q46 -24 46 -75q0 -34 -25 -59.5t-62 -25.5q-25 0 -52 17t-27 42q0 12 8.5 20.5t20.5 8.5t25 -15t25 -13q24 1 27 25q0 12 -9 19t-19.5 9.5t-19.5 11t-9 21.5v130q0 13 9 22t22 9t22 -9t9 -22z" />
    <glyph glyph-name="onesuperior" unicode="&#xb9;" horiz-adv-x="164" 
d="M132 648v-247q0 -8 -6 -14t-14 -6q-9 0 -15 6t-6 14v212q-30 -10 -54 -10q-8 0 -14.5 6t-6.5 15q0 8 6 14t15 6q36 0 62 20q4 4 13 4q8 0 14 -6t6 -14z" />
    <glyph glyph-name="ordmasculine" unicode="&#xba;" horiz-adv-x="342" 
d="M171 270q-56 0 -97.5 37.5t-41.5 106.5q0 68 41 105.5t98 37.5t98 -37.5t41 -105.5q0 -69 -41.5 -106.5t-97.5 -37.5zM171 311q41 0 69.5 26.5t28.5 76.5t-28.5 76t-69.5 26t-69.5 -26t-28.5 -76t29 -76.5t69 -26.5z" />
    <glyph glyph-name="guillemotright" unicode="&#xbb;" horiz-adv-x="359" 
d="M150 282l-53 104q-6 14 -0.5 27.5t20.5 18.5q14 5 27.5 -1t17.5 -20l38 -138q1 -7 0 -14l-38 -139q-4 -14 -17 -19.5t-28 -0.5t-20.5 18.5t0.5 27.5l53 104q10 16 0 32zM291 282l-53 104q-6 14 -0.5 27.5t20.5 18.5q14 5 27.5 -1t17.5 -20l38 -138q1 -7 0 -14l-38 -139
q-4 -14 -17 -19.5t-28 -0.5t-20.5 18.5t0.5 27.5l53 104q10 16 0 32z" />
    <glyph glyph-name="onequarter" unicode="&#xbc;" horiz-adv-x="508" 
d="M134 132l140 329q5 11 16 11q3 0 7 -2q16 -6 9 -22l-140 -330q-3 -11 -16 -11q-1 0 -7 2q-10 3 -10 16q0 4 1 7zM382 258l-112 -173h86q9 0 9 9v56q0 8 5.5 14t14.5 6q8 0 14 -6t6 -14v-56q0 -9 9 -9h10q9 0 15 -6t6 -14q0 -9 -6 -15t-15 -6h-10q-9 0 -9 -8v-14
q0 -9 -6 -15t-14 -6q-9 0 -15 6t-6 15v14q0 8 -8 8h-124q-8 0 -14 6t-6 15q0 5 3 11l133 205q6 9 17 9q7 0 11 -3q9 -6 9 -18q0 -5 -3 -11zM116 515v-247q0 -9 -6 -15t-14 -6q-9 0 -15 6t-6 15v212q-30 -10 -54 -10q-8 0 -14.5 6t-6.5 15q0 8 6 14t15 6q36 0 62 20q4 4 13 4
q8 0 14 -6t6 -14z" />
    <glyph glyph-name="onehalf" unicode="&#xbd;" horiz-adv-x="502" 
d="M116 515v-247q0 -9 -6 -15t-14 -6q-9 0 -15 6t-6 15v212q-30 -10 -54 -10q-8 0 -14.5 6t-6.5 15q0 8 6 14t15 6q36 0 62 20q4 4 13 4q8 0 14 -6t6 -14zM117 132l140 329q5 11 16 11q3 0 7 -2q16 -6 9 -22l-140 -330q-3 -11 -16 -11q-1 0 -7 2q-10 3 -10 16q0 4 1 7z
M280 114h48q33 0 51.5 18.5t18.5 43.5q0 34 -21 52t-49 18q-39 0 -65 -42q-9 -13 -20 -13q-8 0 -14 6t-6 14q0 3 2 9q10 28 39.5 47.5t63.5 19.5q48 0 79.5 -31.5t31.5 -79.5q0 -44 -31.5 -73.5t-79.5 -29.5h-49q-6 0 -10.5 -5t-4.5 -11t5 -11t11 -5h138q21 0 21 -21
q0 -20 -21 -20h-138q-23 0 -39.5 17t-16.5 40t16.5 40t39.5 17z" />
    <glyph glyph-name="threequarters" unicode="&#xbe;" horiz-adv-x="552" 
d="M178 132l140 329q5 11 16 11q3 0 7 -2q16 -6 9 -22l-140 -330q-3 -11 -16 -11q-1 0 -7 2q-10 3 -10 16q0 4 1 7zM148 444q0 -2 1 -2q27 -30 27 -70q0 -42 -30 -74t-76 -32q-38 0 -61 20q-9 6 -9 16q0 9 6 15t15 6q4 0 19 -8t30 -8q27 0 46 18t19 45q0 51 -55 63
q-5 0 -5 6t5 6q15 0 25.5 10t10.5 25t-10.5 25t-25.5 10q-6 0 -14.5 -3.5t-12.5 -3.5q-9 0 -15 6t-6 15q0 11 11 18q17 9 37 9q33 0 55 -23t22 -54q0 -19 -9 -35zM426 258l-112 -173h86q9 0 9 9v56q0 8 5.5 14t14.5 6q8 0 14 -6t6 -14v-56q0 -9 9 -9h10q9 0 15 -6t6 -14
q0 -9 -6 -15t-15 -6h-10q-9 0 -9 -8v-14q0 -9 -6 -15t-14 -6q-9 0 -15 6t-6 15v14q0 8 -8 8h-124q-8 0 -14 6t-6 15q0 5 3 11l133 205q6 9 17 9q7 0 11 -3q9 -6 9 -18q0 -5 -3 -11z" />
    <glyph glyph-name="questiondown" unicode="&#xbf;" horiz-adv-x="533" 
d="M255 768q0 16 10.5 27.5t30.5 11.5t30.5 -11.5t10.5 -27.5t-10.5 -27.5t-30.5 -11.5t-30.5 11.5t-10.5 27.5zM296 62q17 0 29 -12t12 -29t-12 -29t-29 -12q-92 0 -155.5 66.5t-63.5 161.5v103q0 79 45 139.5t116 81.5q17 3 17 20v73q0 17 12 29t29 12t29 -12t12 -29v-127
q0 -17 -12 -29t-30 -12q-56 0 -96 -42t-40 -104v-103q0 -62 40.5 -104t96.5 -42z" />
    <glyph glyph-name="Agrave" unicode="&#xc0;" 
d="M159 331v-290q0 -17 -12 -29t-29 -12t-29 12t-12 29v479q0 137 83 212.5t195 75.5t195 -75.5t83 -212.5v-479q0 -17 -12 -29t-29 -12t-29 12t-12 29v290q0 10 -7 17t-18 7h-343q-10 0 -17 -7t-7 -17zM551 462v57q0 102 -57 154.5t-139 52.5t-139 -52.5t-57 -153.5v-58
q0 -11 7 -18t17 -7h343q25 0 25 25zM307 852l-142 39q-19 6 -19 31q0 13 10 24.5t24 11.5q5 0 11 -3l130 -66q13 -7 13 -18q0 -17 -20 -20q-6 -1 -7 1z" />
    <glyph glyph-name="Aacute" unicode="&#xc1;" 
d="M159 331v-290q0 -17 -12 -29t-29 -12t-29 12t-12 29v479q0 137 83 212.5t195 75.5t195 -75.5t83 -212.5v-479q0 -17 -12 -29t-29 -12t-29 12t-12 29v290q0 10 -7 17t-18 7h-343q-10 0 -17 -7t-7 -17zM551 462v57q0 102 -57 154.5t-139 52.5t-139 -52.5t-57 -153.5v-58
q0 -11 7 -18t17 -7h343q25 0 25 25zM363 889l129 64q6 3 13 3q13 0 23.5 -11t10.5 -26q0 -26 -23 -32l-139 -35q-12 -3 -19.5 2.5t-7.5 15.5q0 13 13 19z" />
    <glyph glyph-name="Acircumflex" unicode="&#xc2;" 
d="M159 331v-290q0 -17 -12 -29t-29 -12t-29 12t-12 29v479q0 137 83 212.5t195 75.5t195 -75.5t83 -212.5v-479q0 -17 -12 -29t-29 -12t-29 12t-12 29v290q0 10 -7 17t-18 7h-343q-10 0 -17 -7t-7 -17zM551 462v57q0 102 -57 154.5t-139 52.5t-139 -52.5t-57 -153.5v-58
q0 -11 7 -18t17 -7h343q25 0 25 25zM460 852q-44 27 -104 27q-57 0 -105 -27q-5 -3 -12 -3q-25 0 -25 25q0 11 9 20q62 55 133 55q62 0 132 -55q10 -7 10 -20q0 -25 -25 -25q-7 0 -13 3z" />
    <glyph glyph-name="Atilde" unicode="&#xc3;" 
d="M159 331v-290q0 -17 -12 -29t-29 -12t-29 12t-12 29v479q0 137 83 212.5t195 75.5t195 -75.5t83 -212.5v-479q0 -17 -12 -29t-29 -12t-29 12t-12 29v290q0 10 -7 17t-18 7h-343q-10 0 -17 -7t-7 -17zM551 462v57q0 102 -57 154.5t-139 52.5t-139 -52.5t-57 -153.5v-58
q0 -11 7 -18t17 -7h343q25 0 25 25zM374 864l-69 39q-11 6 -19 6q-29 0 -34 -32q-2 -13 -11.5 -21.5t-22.5 -8.5q-14 0 -23 9.5t-9 22.5q0 39 30.5 67t69.5 28q29 0 51 -13l69 -39q10 -6 19 -6q29 0 34 32q2 13 11.5 21.5t22.5 8.5q14 0 23 -9.5t9 -22.5q0 -39 -30.5 -67
t-69.5 -28q-29 0 -51 13zM374 864l-69 39q-11 6 -19 6q-29 0 -34 -32q-2 -13 -11.5 -21.5t-22.5 -8.5q-14 0 -23 9.5t-9 22.5q0 39 30.5 67t69.5 28q29 0 51 -13l69 -39q10 -6 19 -6q29 0 34 32q2 13 11.5 21.5t22.5 8.5q14 0 23 -9.5t9 -22.5q0 -39 -30.5 -67t-69.5 -28
q-29 0 -51 13z" />
    <glyph glyph-name="Adieresis" unicode="&#xc4;" 
d="M159 331v-290q0 -17 -12 -29t-29 -12t-29 12t-12 29v479q0 137 83 212.5t195 75.5t195 -75.5t83 -212.5v-479q0 -17 -12 -29t-29 -12t-29 12t-12 29v290q0 10 -7 17t-18 7h-343q-10 0 -17 -7t-7 -17zM551 462v57q0 102 -57 154.5t-139 52.5t-139 -52.5t-57 -153.5v-58
q0 -11 7 -18t17 -7h343q25 0 25 25zM234 888q0 16 10.5 27.5t30.5 11.5t30.5 -11.5t10.5 -27.5t-10.5 -27.5t-30.5 -11.5t-30.5 11.5t-10.5 27.5zM394 888q0 16 10.5 27.5t30.5 11.5t30.5 -11.5t10.5 -27.5t-10.5 -27.5t-30.5 -11.5t-30.5 11.5t-10.5 27.5z" />
    <glyph glyph-name="Aring" unicode="&#xc5;" 
d="M159 331v-290q0 -17 -12 -29t-29 -12t-29 12t-12 29v479q0 137 83 212.5t195 75.5t195 -75.5t83 -212.5v-479q0 -17 -12 -29t-29 -12t-29 12t-12 29v290q0 10 -7 17t-18 7h-343q-10 0 -17 -7t-7 -17zM551 462v57q0 102 -57 154.5t-139 52.5t-139 -52.5t-57 -153.5v-58
q0 -11 7 -18t17 -7h343q25 0 25 25zM354 849q-43 0 -68 27t-25 63t25 63t68 27q45 0 69.5 -27t24.5 -63t-24.5 -63t-69.5 -27zM288 939q0 -26 16.5 -44.5t49.5 -18.5t50.5 18.5t17.5 44.5t-17.5 44.5t-50.5 18.5t-49.5 -18.5t-16.5 -44.5z" />
    <glyph glyph-name="AE" unicode="&#xc6;" horiz-adv-x="1020" 
d="M159 331v-290q0 -17 -12 -29t-29 -12t-29 12t-12 29v479q0 137 83 212.5t195 75.5q72 0 135.5 -32.5t101.5 -95.5q38 63 101.5 95.5t135.5 32.5q68 0 121 -26q24 -10 24 -37q0 -17 -12 -29t-29 -12q-9 0 -17 4q-40 18 -87 18q-82 0 -139 -52.5t-57 -152.5v-43
q0 -17 12 -29t29 -12h156q17 0 29 -12t12 -29t-12 -29t-29 -12h-156q-17 0 -29 -12t-12 -29v-45q0 -101 57 -153.5t139 -52.5q47 0 87 18q8 4 17 4q17 0 29 -12t12 -29q0 -26 -25 -38q-53 -25 -120 -25q-117 0 -196 76v-16q0 -17 -12 -29t-29 -12t-29 12t-12 29v290
q0 10 -7 17t-18 7h-343q-10 0 -17 -7t-7 -17zM551 462v57q0 102 -57 154.5t-139 52.5t-139 -52.5t-57 -152.5v-59q0 -11 7 -18t17 -7h343q25 0 25 25z" />
    <glyph glyph-name="Ccedilla" unicode="&#xc7;" horiz-adv-x="681" 
d="M624 12q-81 -32 -161 -32q-75 0 -145.5 26t-128 75.5t-92 130.5t-34.5 182t34.5 182t92 130t128 75t145.5 26q17 0 29 -12t12 -29t-12 -29t-29 -12q-61 0 -117 -20t-101.5 -59.5t-72.5 -104.5t-27 -147q0 -160 94.5 -246t223.5 -86q69 0 129 25q8 3 16 3q17 0 29 -12
t12 -29q0 -27 -25 -37zM494 4v-104q0 -8 9 -12q46 -24 46 -75q0 -34 -25 -59.5t-62 -25.5q-25 0 -52 17t-27 42q0 12 8.5 20.5t20.5 8.5t25 -15t25 -13q24 1 27 25q0 12 -9 19t-19.5 9.5t-19.5 11t-9 21.5v130q0 13 9 22t22 9t22 -9t9 -22z" />
    <glyph glyph-name="Egrave" unicode="&#xc8;" horiz-adv-x="532" 
d="M77 268v252q0 137 82.5 212t195.5 75q68 0 121 -26q24 -11 24 -37q0 -17 -12 -29t-29 -12q-9 0 -17 4q-40 18 -87 18q-82 0 -139 -52.5t-57 -152.5v-43q0 -17 12 -29t29 -12h156q17 0 29 -12t12 -29t-12 -29t-29 -12h-156q-17 0 -29 -12t-12 -29v-45q0 -101 57 -153.5
t139 -52.5q45 0 86 18q8 4 18 4q17 0 29 -12t12 -29q0 -26 -25 -38q-53 -25 -120 -25q-112 0 -195 75.5t-83 212.5zM310 852l-142 39q-19 6 -19 31q0 13 10 24.5t24 11.5q5 0 11 -3l130 -66q13 -7 13 -18q0 -17 -20 -20q-6 -1 -7 1z" />
    <glyph glyph-name="Eacute" unicode="&#xc9;" horiz-adv-x="532" 
d="M77 268v252q0 137 82.5 212t195.5 75q68 0 121 -26q24 -11 24 -37q0 -17 -12 -29t-29 -12q-9 0 -17 4q-40 18 -87 18q-82 0 -139 -52.5t-57 -152.5v-43q0 -17 12 -29t29 -12h156q17 0 29 -12t12 -29t-12 -29t-29 -12h-156q-17 0 -29 -12t-12 -29v-45q0 -101 57 -153.5
t139 -52.5q45 0 86 18q8 4 18 4q17 0 29 -12t12 -29q0 -26 -25 -38q-53 -25 -120 -25q-112 0 -195 75.5t-83 212.5zM323 889l129 64q6 3 13 3q13 0 23.5 -11t10.5 -26q0 -26 -23 -32l-139 -35q-12 -3 -19.5 2.5t-7.5 15.5q0 13 13 19z" />
    <glyph glyph-name="Ecircumflex" unicode="&#xca;" horiz-adv-x="532" 
d="M77 268v252q0 137 82.5 212t195.5 75q68 0 121 -26q24 -11 24 -37q0 -17 -12 -29t-29 -12q-9 0 -17 4q-40 18 -87 18q-82 0 -139 -52.5t-57 -152.5v-43q0 -17 12 -29t29 -12h156q17 0 29 -12t12 -29t-12 -29t-29 -12h-156q-17 0 -29 -12t-12 -29v-45q0 -101 57 -153.5
t139 -52.5q45 0 86 18q8 4 18 4q17 0 29 -12t12 -29q0 -26 -25 -38q-53 -25 -120 -25q-112 0 -195 75.5t-83 212.5zM451 851q-44 27 -104 27q-57 0 -105 -27q-4 -3 -12 -3q-25 0 -25 25q0 11 9 20q62 55 133 55q62 0 132 -55q10 -7 10 -20q0 -25 -25 -25q-7 0 -13 3z" />
    <glyph glyph-name="Edieresis" unicode="&#xcb;" horiz-adv-x="532" 
d="M77 268v252q0 137 82.5 212t195.5 75q68 0 121 -26q24 -11 24 -37q0 -17 -12 -29t-29 -12q-9 0 -17 4q-40 18 -87 18q-82 0 -139 -52.5t-57 -152.5v-43q0 -17 12 -29t29 -12h156q17 0 29 -12t12 -29t-12 -29t-29 -12h-156q-17 0 -29 -12t-12 -29v-45q0 -101 57 -153.5
t139 -52.5q45 0 86 18q8 4 18 4q17 0 29 -12t12 -29q0 -26 -25 -38q-53 -25 -120 -25q-112 0 -195 75.5t-83 212.5zM215 887q0 16 10.5 27.5t30.5 11.5t30.5 -11.5t10.5 -27.5t-10.5 -27.5t-30.5 -11.5t-30.5 11.5t-10.5 27.5zM375 887q0 16 10.5 27.5t30.5 11.5t30.5 -11.5
t10.5 -27.5t-10.5 -27.5t-30.5 -11.5t-30.5 11.5t-10.5 27.5z" />
    <glyph glyph-name="Igrave" unicode="&#xcc;" horiz-adv-x="262" 
d="M90 41v726q0 17 12 29t29 12t29 -12t12 -29v-726q0 -17 -12 -29t-29 -12t-29 12t-12 29zM117 852l-142 39q-19 6 -19 31q0 13 10 24.5t24 11.5q5 0 11 -3l130 -66q13 -7 13 -18q0 -17 -20 -20q-6 -1 -7 1z" />
    <glyph glyph-name="Iacute" unicode="&#xcd;" horiz-adv-x="262" 
d="M90 41v726q0 17 12 29t29 12t29 -12t12 -29v-726q0 -17 -12 -29t-29 -12t-29 12t-12 29zM123 889l129 64q6 3 13 3q13 0 23.5 -11t10.5 -26q0 -26 -23 -32l-139 -35q-12 -3 -19.5 2.5t-7.5 15.5q0 13 13 19z" />
    <glyph glyph-name="Icircumflex" unicode="&#xce;" horiz-adv-x="262" 
d="M90 41v726q0 17 12 29t29 12t29 -12t12 -29v-726q0 -17 -12 -29t-29 -12t-29 12t-12 29zM234 852q-44 27 -104 27q-57 0 -105 -27q-5 -3 -12 -3q-25 0 -25 25q0 11 9 20q62 55 133 55q62 0 132 -55q10 -7 10 -20q0 -25 -25 -25q-7 0 -13 3z" />
    <glyph glyph-name="Idieresis" unicode="&#xcf;" horiz-adv-x="262" 
d="M90 41v726q0 17 12 29t29 12t29 -12t12 -29v-726q0 -17 -12 -29t-29 -12t-29 12t-12 29zM10 888q0 16 10.5 27.5t30.5 11.5t30.5 -11.5t10.5 -27.5t-10.5 -27.5t-30.5 -11.5t-30.5 11.5t-10.5 27.5zM170 888q0 16 10.5 27.5t30.5 11.5t30.5 -11.5t10.5 -27.5t-10.5 -27.5
t-30.5 -11.5t-30.5 11.5t-10.5 27.5z" />
    <glyph glyph-name="Eth" unicode="&#xd0;" horiz-adv-x="743" 
d="M159 789h114q100 0 179.5 -34.5t128 -91t74 -126t25.5 -143.5q0 -75 -25.5 -144t-74 -125.5t-128 -90.5t-179.5 -34h-114q-17 0 -29 12t-12 29v294q0 10 -7 17t-18 7h-26q-14 0 -24.5 10.5t-10.5 24.5q0 15 10.5 25t24.5 10h26q25 0 25 25v294q0 17 12 29t29 12zM273 707
h-53q-8 0 -14 -6.5t-6 -14.5v-232q0 -11 7 -18t17 -7h107q14 0 24.5 -10t10.5 -25q0 -14 -10.5 -24.5t-24.5 -10.5h-107q-11 0 -17.5 -7t-6.5 -17v-233q0 -8 6 -14t14 -6h53q107 0 182.5 46t109 115t33.5 151q0 60 -20 115t-58.5 100t-102 71.5t-144.5 26.5z" />
    <glyph glyph-name="Ntilde" unicode="&#xd1;" 
d="M159 521v-480q0 -17 -12 -29t-29 -12t-29 12t-12 29v479q0 137 83 212.5t195 75.5q113 0 195.5 -75t82.5 -212v-480q0 -17 -12 -29t-29 -12t-29 12t-12 29v478q0 102 -57 154.5t-139 52.5t-139 -52.5t-57 -152.5zM376 866l-69 39q-11 6 -19 6q-29 0 -34 -32
q-2 -13 -11.5 -21.5t-22.5 -8.5q-14 0 -23 9.5t-9 22.5q0 39 30.5 67t69.5 28q29 0 51 -13l69 -39q10 -6 19 -6q29 0 34 32q2 13 11.5 21.5t22.5 8.5q14 0 23 -9.5t9 -22.5q0 -39 -30.5 -67t-69.5 -28q-29 0 -51 13zM376 866l-69 39q-11 6 -19 6q-29 0 -34 -32
q-2 -13 -11.5 -21.5t-22.5 -8.5q-14 0 -23 9.5t-9 22.5q0 39 30.5 67t69.5 28q29 0 51 -13l69 -39q10 -6 19 -6q29 0 34 32q2 13 11.5 21.5t22.5 8.5q14 0 23 -9.5t9 -22.5q0 -39 -30.5 -67t-69.5 -28q-29 0 -51 13z" />
    <glyph glyph-name="Ograve" unicode="&#xd2;" horiz-adv-x="919" 
d="M142 393q0 -82 27 -147t72.5 -104t101.5 -59.5t117 -20.5t116.5 20.5t101 59.5t72.5 104t27 147t-27 147.5t-72 104.5t-100.5 59.5t-117.5 20.5t-117.5 -20.5t-101 -59.5t-72.5 -104.5t-27 -147.5zM460 -20q-75 0 -145.5 26t-128 75t-92 130t-34.5 182t34.5 182.5
t91.5 130.5t127.5 75t146.5 26t146 -26t127 -75t91.5 -130.5t34.5 -182.5t-34.5 -182t-92 -130t-127.5 -75t-145 -26zM428 852l-142 39q-19 6 -19 31q0 13 10 24.5t24 11.5q5 0 11 -3l130 -66q13 -7 13 -18q0 -17 -20 -20q-6 -1 -7 1z" />
    <glyph glyph-name="Oacute" unicode="&#xd3;" horiz-adv-x="919" 
d="M142 393q0 -82 27 -147t72.5 -104t101.5 -59.5t117 -20.5t116.5 20.5t101 59.5t72.5 104t27 147t-27 147.5t-72 104.5t-100.5 59.5t-117.5 20.5t-117.5 -20.5t-101 -59.5t-72.5 -104.5t-27 -147.5zM460 -20q-75 0 -145.5 26t-128 75t-92 130t-34.5 182t34.5 182.5
t91.5 130.5t127.5 75t146.5 26t146 -26t127 -75t91.5 -130.5t34.5 -182.5t-34.5 -182t-92 -130t-127.5 -75t-145 -26zM473 888l129 64q6 3 13 3q13 0 23.5 -11t10.5 -26q0 -26 -23 -32l-139 -35q-12 -3 -19.5 2.5t-7.5 15.5q0 13 13 19z" />
    <glyph glyph-name="Ocircumflex" unicode="&#xd4;" horiz-adv-x="919" 
d="M142 393q0 -82 27 -147t72.5 -104t101.5 -59.5t117 -20.5t116.5 20.5t101 59.5t72.5 104t27 147t-27 147.5t-72 104.5t-100.5 59.5t-117.5 20.5t-117.5 -20.5t-101 -59.5t-72.5 -104.5t-27 -147.5zM460 -20q-75 0 -145.5 26t-128 75t-92 130t-34.5 182t34.5 182.5
t91.5 130.5t127.5 75t146.5 26t146 -26t127 -75t91.5 -130.5t34.5 -182.5t-34.5 -182t-92 -130t-127.5 -75t-145 -26zM565 851q-44 27 -104 27q-57 0 -105 -27q-4 -3 -12 -3q-25 0 -25 25q0 11 9 20q62 55 133 55q62 0 132 -55q10 -7 10 -20q0 -25 -25 -25q-7 0 -13 3z" />
    <glyph glyph-name="Otilde" unicode="&#xd5;" horiz-adv-x="919" 
d="M142 393q0 -82 27 -147t72.5 -104t101.5 -59.5t117 -20.5t116.5 20.5t101 59.5t72.5 104t27 147t-27 147.5t-72 104.5t-100.5 59.5t-117.5 20.5t-117.5 -20.5t-101 -59.5t-72.5 -104.5t-27 -147.5zM460 -20q-75 0 -145.5 26t-128 75t-92 130t-34.5 182t34.5 182.5
t91.5 130.5t127.5 75t146.5 26t146 -26t127 -75t91.5 -130.5t34.5 -182.5t-34.5 -182t-92 -130t-127.5 -75t-145 -26zM482 866l-69 39q-11 6 -19 6q-29 0 -34 -32q-2 -13 -11.5 -21.5t-22.5 -8.5q-14 0 -23 9.5t-9 22.5q0 39 30.5 67t69.5 28q29 0 51 -13l69 -39
q11 -6 19 -6q29 0 34 32q2 13 11.5 21.5t22.5 8.5q14 0 23 -9.5t9 -22.5q0 -39 -30.5 -67t-69.5 -28q-29 0 -51 13zM482 866l-69 39q-11 6 -19 6q-29 0 -34 -32q-2 -13 -11.5 -21.5t-22.5 -8.5q-14 0 -23 9.5t-9 22.5q0 39 30.5 67t69.5 28q29 0 51 -13l69 -39q11 -6 19 -6
q29 0 34 32q2 13 11.5 21.5t22.5 8.5q14 0 23 -9.5t9 -22.5q0 -39 -30.5 -67t-69.5 -28q-29 0 -51 13z" />
    <glyph glyph-name="Odieresis" unicode="&#xd6;" horiz-adv-x="919" 
d="M142 393q0 -82 27 -147t72.5 -104t101.5 -59.5t117 -20.5t116.5 20.5t101 59.5t72.5 104t27 147t-27 147.5t-72 104.5t-100.5 59.5t-117.5 20.5t-117.5 -20.5t-101 -59.5t-72.5 -104.5t-27 -147.5zM460 -20q-75 0 -145.5 26t-128 75t-92 130t-34.5 182t34.5 182.5
t91.5 130.5t127.5 75t146.5 26t146 -26t127 -75t91.5 -130.5t34.5 -182.5t-34.5 -182t-92 -130t-127.5 -75t-145 -26zM337 888q0 16 10.5 27.5t30.5 11.5t30.5 -11.5t10.5 -27.5t-10.5 -27.5t-30.5 -11.5t-30.5 11.5t-10.5 27.5zM497 888q0 16 10.5 27.5t30.5 11.5
t30.5 -11.5t10.5 -27.5t-10.5 -27.5t-30.5 -11.5t-30.5 11.5t-10.5 27.5z" />
    <glyph glyph-name="multiply" unicode="&#xd7;" horiz-adv-x="539" 
d="M439 103q-10 -10 -25 -10t-25 10l-91 91q-12 12 -29 12t-29 -12l-90 -91q-10 -10 -25 -10t-25 10t-10 25t10 25l91 90q12 12 12 29t-12 29l-91 91q-10 10 -10 25q0 14 10 24.5t25 10.5t25 -10l90 -91q12 -12 29 -12t29 12l91 91q10 10 25 10q14 0 24.5 -10.5t10.5 -24.5
q0 -15 -10 -25l-91 -91q-12 -12 -12 -29t12 -29q4 -4 23.5 -23t30.5 -30l37 -37q10 -10 10 -25t-10 -25z" />
    <glyph glyph-name="Oslash" unicode="&#xd8;" horiz-adv-x="926" 
d="M280 115q82 -53 183 -53q129 0 223.5 86t94.5 246q0 102 -44 180q-5 9 -16 9q-12 0 -18 -8l-426 -425q-6 -6 -6 -16q0 -13 9 -19zM463 725q-62 0 -117.5 -20.5t-101 -59.5t-72.5 -104t-27 -147q0 -105 43 -181q4 -9 16 -9q11 0 19 8l425 425q7 7 7 17q0 12 -10 18
q-82 53 -182 53zM63 394q0 101 34.5 182t91.5 130t127.5 75t146.5 26q137 0 245 -78q8 -6 16 -6q11 0 18 7l45 45q12 12 29 12t29 -12t12 -29t-12 -29l-48 -47q-7 -7 -7 -18q0 -6 3 -12q70 -104 70 -246q0 -101 -34.5 -182.5t-92 -130.5t-128 -75t-145.5 -26q-137 0 -245 78
q-8 6 -17 6q-10 0 -17 -7l-45 -45q-12 -12 -29 -12t-29 12t-12 29q0 9 3.5 16t8 11.5l19.5 19.5t28 29q8 8 8 18q0 8 -4 12q-69 103 -69 247z" />
    <glyph glyph-name="Ugrave" unicode="&#xd9;" 
d="M551 268v499q0 17 12 29t29 12t29 -12t12 -29v-499q0 -137 -83 -212t-195 -75q-113 0 -195.5 75t-82.5 212v499q0 17 12 29t29 12t29 -12t12 -29v-497q0 -102 57 -154.5t139 -52.5t139 52.5t57 152.5zM351 852l-142 39q-19 6 -19 31q0 13 10 24.5t24 11.5q5 0 11 -3
l130 -66q13 -7 13 -18q0 -17 -20 -20q-6 -1 -7 1z" />
    <glyph glyph-name="Uacute" unicode="&#xda;" 
d="M551 268v499q0 17 12 29t29 12t29 -12t12 -29v-499q0 -137 -83 -212t-195 -75q-113 0 -195.5 75t-82.5 212v499q0 17 12 29t29 12t29 -12t12 -29v-497q0 -102 57 -154.5t139 -52.5t139 52.5t57 152.5zM355 889l129 64q6 3 13 3q13 0 23.5 -11t10.5 -26q0 -26 -23 -32
l-139 -35q-12 -3 -19.5 2.5t-7.5 15.5q0 13 13 19z" />
    <glyph glyph-name="Ucircumflex" unicode="&#xdb;" 
d="M551 268v499q0 17 12 29t29 12t29 -12t12 -29v-499q0 -137 -83 -212t-195 -75q-113 0 -195.5 75t-82.5 212v499q0 17 12 29t29 12t29 -12t12 -29v-497q0 -102 57 -154.5t139 -52.5t139 52.5t57 152.5zM460 852q-44 27 -104 27q-57 0 -105 -27q-5 -3 -12 -3q-25 0 -25 25
q0 11 9 20q62 55 133 55q62 0 132 -55q10 -7 10 -20q0 -25 -25 -25q-7 0 -13 3z" />
    <glyph glyph-name="Udieresis" unicode="&#xdc;" 
d="M551 268v499q0 17 12 29t29 12t29 -12t12 -29v-499q0 -137 -83 -212t-195 -75q-113 0 -195.5 75t-82.5 212v499q0 17 12 29t29 12t29 -12t12 -29v-497q0 -102 57 -154.5t139 -52.5t139 52.5t57 152.5zM235 888q0 16 10.5 27.5t30.5 11.5t30.5 -11.5t10.5 -27.5
t-10.5 -27.5t-30.5 -11.5t-30.5 11.5t-10.5 27.5zM395 888q0 16 10.5 27.5t30.5 11.5t30.5 -11.5t10.5 -27.5t-10.5 -27.5t-30.5 -11.5t-30.5 11.5t-10.5 27.5z" />
    <glyph glyph-name="Yacute" unicode="&#xdd;" horiz-adv-x="648" 
d="M520 643v123q0 17 12 29t29 12t29 -12t12 -29v-123q0 -115 -59.5 -186.5t-149.5 -92.5q-28 -7 -28 -36v-287q0 -17 -12 -29t-29 -12t-29 12t-12 29v287q0 29 -28 36q-91 22 -150 93t-59 186v123q0 17 12 29t29 12t29 -12t12 -29v-121q0 -102 57 -154.5t139 -52.5
t139 52.5t57 152.5zM318 888l129 64q6 3 13 3q13 0 23.5 -11t10.5 -26q0 -26 -23 -32l-139 -35q-12 -3 -19.5 2.5t-7.5 15.5q0 13 13 19z" />
    <glyph glyph-name="Thorn" unicode="&#xde;" horiz-adv-x="549" 
d="M90 46v697q0 19 12 32.5t29 13.5t29 -13.5t12 -32.5v-105q0 -11 7 -18t17 -7h62q94 0 161 -63.5t67 -155.5t-67 -155.5t-161 -63.5h-62q-10 0 -17 -7t-7 -17v-105q0 -20 -12 -33t-29 -13t-29 13t-12 33zM172 507v-225q0 -11 7 -18t17 -7h62q62 0 104 40t42 97t-42 97
t-104 40h-62q-10 0 -17 -7t-7 -17z" />
    <glyph glyph-name="germandbls" unicode="&#xdf;" horiz-adv-x="594" 
d="M77 -221v491q0 118 77 202t187 84q65 0 108.5 -45.5t43.5 -106.5q0 -33 -17 -69v-3l1 -2q54 -57 54 -139q0 -85 -59 -148t-151 -63q-45 0 -91.5 20.5t-46.5 52.5q0 16 11 28t29 12q7 0 38 -15.5t60 -15.5q53 0 90.5 37t37.5 89q0 102 -108 124q-9 1 -9 12q0 12 9 12
q29 0 49.5 20.5t20.5 49.5q0 30 -20 50.5t-50 20.5q-75 0 -128.5 -62t-53.5 -145v-491q0 -17 -12 -29t-29 -12t-29 12t-12 29z" />
    <glyph glyph-name="agrave" unicode="&#xe0;" horiz-adv-x="706" 
d="M158 361q-16 -38 -16 -92q0 -101 57 -153.5t139 -52.5t135 49q61 58 61 157q0 52 -17 92q-23 56 -71.5 84.5t-107.5 28.5q-60 0 -107.5 -28.5t-72.5 -84.5zM534 480v16q0 17 12 29t29 12t29 -12t12 -29v-267q0 -44 19 -88t52 -65q8 -5 13 -13q9 -14 5.5 -30.5
t-16.5 -25.5q-23 -16 -46 0q-41 28 -62 68q-13 23 -26 5q-80 -99 -217 -99q-112 0 -195 75.5t-83 212.5t82.5 212t195.5 75q117 0 196 -76zM342 625l-142 39q-19 6 -19 31q0 13 10 24.5t24 11.5q5 0 11 -3l130 -66q13 -7 13 -18q0 -17 -20 -20q-6 -1 -7 1z" />
    <glyph glyph-name="aacute" unicode="&#xe1;" horiz-adv-x="706" 
d="M158 361q-16 -38 -16 -92q0 -101 57 -153.5t139 -52.5t135 49q61 58 61 157q0 52 -17 92q-23 56 -71.5 84.5t-107.5 28.5q-60 0 -107.5 -28.5t-72.5 -84.5zM534 480v16q0 17 12 29t29 12t29 -12t12 -29v-267q0 -44 19 -88t52 -65q8 -5 13 -13q9 -14 5.5 -30.5
t-16.5 -25.5q-23 -16 -46 0q-41 28 -62 68q-13 23 -26 5q-80 -99 -217 -99q-112 0 -195 75.5t-83 212.5t82.5 212t195.5 75q117 0 196 -76zM327 663l129 64q6 3 13 3q13 0 23.5 -11t10.5 -26q0 -26 -23 -32l-139 -35q-12 -3 -19.5 2.5t-7.5 15.5q0 13 13 19z" />
    <glyph glyph-name="acircumflex" unicode="&#xe2;" horiz-adv-x="706" 
d="M158 361q-16 -38 -16 -92q0 -101 57 -153.5t139 -52.5t135 49q61 58 61 157q0 52 -17 92q-23 56 -71.5 84.5t-107.5 28.5q-60 0 -107.5 -28.5t-72.5 -84.5zM534 480v16q0 17 12 29t29 12t29 -12t12 -29v-267q0 -44 19 -88t52 -65q8 -5 13 -13q9 -14 5.5 -30.5
t-16.5 -25.5q-23 -16 -46 0q-41 28 -62 68q-13 23 -26 5q-80 -99 -217 -99q-112 0 -195 75.5t-83 212.5t82.5 212t195.5 75q117 0 196 -76zM445 630q-44 27 -104 27q-57 0 -105 -27q-4 -3 -12 -3q-25 0 -25 25q0 11 9 20q62 55 133 55q62 0 132 -55q10 -7 10 -20
q0 -25 -25 -25q-7 0 -13 3z" />
    <glyph glyph-name="atilde" unicode="&#xe3;" horiz-adv-x="706" 
d="M158 361q-16 -38 -16 -92q0 -101 57 -153.5t139 -52.5t135 49q61 58 61 157q0 52 -17 92q-23 56 -71.5 84.5t-107.5 28.5q-60 0 -107.5 -28.5t-72.5 -84.5zM534 480v16q0 17 12 29t29 12t29 -12t12 -29v-267q0 -44 19 -88t52 -65q8 -5 13 -13q9 -14 5.5 -30.5
t-16.5 -25.5q-23 -16 -46 0q-41 28 -62 68q-13 23 -26 5q-80 -99 -217 -99q-112 0 -195 75.5t-83 212.5t82.5 212t195.5 75q117 0 196 -76zM382 629l-69 39q-10 6 -19 6q-29 0 -34 -32q-2 -13 -11.5 -21.5t-22.5 -8.5q-14 0 -23 9.5t-9 22.5q0 39 30.5 67t69.5 28
q29 0 51 -13l69 -39q10 -6 19 -6q29 0 34 32q2 13 11.5 21.5t22.5 8.5q14 0 23 -9.5t9 -22.5q0 -39 -30.5 -67t-69.5 -28q-29 0 -51 13zM382 629l-69 39q-10 6 -19 6q-29 0 -34 -32q-2 -13 -11.5 -21.5t-22.5 -8.5q-14 0 -23 9.5t-9 22.5q0 39 30.5 67t69.5 28q29 0 51 -13
l69 -39q10 -6 19 -6q29 0 34 32q2 13 11.5 21.5t22.5 8.5q14 0 23 -9.5t9 -22.5q0 -39 -30.5 -67t-69.5 -28q-29 0 -51 13z" />
    <glyph glyph-name="adieresis" unicode="&#xe4;" horiz-adv-x="706" 
d="M158 361q-16 -38 -16 -92q0 -101 57 -153.5t139 -52.5t135 49q61 58 61 157q0 52 -17 92q-23 56 -71.5 84.5t-107.5 28.5q-60 0 -107.5 -28.5t-72.5 -84.5zM534 480v16q0 17 12 29t29 12t29 -12t12 -29v-267q0 -44 19 -88t52 -65q8 -5 13 -13q9 -14 5.5 -30.5
t-16.5 -25.5q-23 -16 -46 0q-41 28 -62 68q-13 23 -26 5q-80 -99 -217 -99q-112 0 -195 75.5t-83 212.5t82.5 212t195.5 75q117 0 196 -76zM215 677q0 16 10.5 27.5t30.5 11.5t30.5 -11.5t10.5 -27.5t-10.5 -27.5t-30.5 -11.5t-30.5 11.5t-10.5 27.5zM375 677
q0 16 10.5 27.5t30.5 11.5t30.5 -11.5t10.5 -27.5t-10.5 -27.5t-30.5 -11.5t-30.5 11.5t-10.5 27.5z" />
    <glyph glyph-name="aring" unicode="&#xe5;" horiz-adv-x="706" 
d="M158 361q-16 -38 -16 -92q0 -101 57 -153.5t139 -52.5t135 49q61 58 61 157q0 52 -17 92q-23 56 -71.5 84.5t-107.5 28.5q-60 0 -107.5 -28.5t-72.5 -84.5zM534 480v16q0 17 12 29t29 12t29 -12t12 -29v-267q0 -44 19 -88t52 -65q8 -5 13 -13q9 -14 5.5 -30.5
t-16.5 -25.5q-23 -16 -46 0q-41 28 -62 68q-13 23 -26 5q-80 -99 -217 -99q-112 0 -195 75.5t-83 212.5t82.5 212t195.5 75q117 0 196 -76zM336 587q-43 0 -68 27t-25 63t25 63t68 27q45 0 69.5 -27t24.5 -63t-24.5 -63t-69.5 -27zM270 677q0 -26 16.5 -44.5t49.5 -18.5
t50.5 18.5t17.5 44.5t-17.5 44.5t-50.5 18.5t-49.5 -18.5t-16.5 -44.5z" />
    <glyph glyph-name="ae" unicode="&#xe6;" horiz-adv-x="824" 
d="M359 246h-107q-52 0 -79.5 -23t-27.5 -61q2 -45 29 -71q35 -29 77 -29q54 0 87 35.5t33 92.5v49q0 7 -12 7zM453 345v-49q0 -7 12 -7h107q52 0 79.5 23t27.5 61q-2 45 -29 71q-35 29 -77 29q-54 0 -87 -35.5t-33 -92.5zM371 341v4q0 63 -29 95.5t-84 32.5q-67 0 -133 -48
q-11 -8 -21 -8q-17 0 -29 12t-12 29q0 14 11 28q74 69 184 69q104 0 157 -76q57 76 158 76q74 0 131 -50t57 -132q0 -78 -55 -122t-134 -44h-107q-12 0 -12 -13v-4q0 -63 29.5 -95.5t83.5 -32.5q67 0 133 48q11 8 21 8q17 0 29 -12t12 -29q0 -14 -11 -28q-74 -69 -184 -69
q-104 0 -157 76q-57 -76 -158 -76q-74 0 -131 50t-57 132q0 78 55 122t134 44h107q12 0 12 13z" />
    <glyph glyph-name="ccedilla" unicode="&#xe7;" horiz-adv-x="532" 
d="M428 82q7 4 17 4q17 0 29 -12t12 -29q0 -27 -24 -37q-53 -26 -121 -26q-13 0 -37 2q-5 2 -5 -4q0 -38 30 -50q61 -23 61 -96q0 -49 -30 -76.5t-70 -27.5q-23 0 -44 9q-14 8 -14 23q0 25 25 25l10 -2q15 -5 23 -5q22 0 36 13t14 41q0 37 -29 49q-62 27 -62 97v6
q0 10 -8 13q-79 28 -128.5 97t-49.5 174q0 137 82.5 212t195.5 75q67 0 120 -25q25 -12 25 -38q0 -17 -12 -29t-29 -12q-10 0 -17 4q-40 18 -87 18q-82 0 -139 -52.5t-57 -152.5q0 -101 57 -153.5t139 -52.5q47 0 87 18z" />
    <glyph glyph-name="egrave" unicode="&#xe8;" horiz-adv-x="651" 
d="M312 473q-65 0 -119 -34t-54 -81q0 -43 52.5 -79t120.5 -36q76 0 119.5 35.5t43.5 79.5q0 40 -42 77.5t-121 37.5zM32 268q0 109 58 185q80 102 223 102q104 0 174 -57.5t70 -139.5q0 -84 -70 -140.5t-184 -56.5q-67 0 -115 24.5t-73 52.5q9 -86 64.5 -131t130.5 -45
q46 0 86 18q9 4 18 4q17 0 29 -12t12 -29q0 -26 -25 -38q-54 -25 -120 -25q-112 0 -195 75.5t-83 212.5zM327 625l-142 39q-19 6 -19 31q0 13 10 24.5t24 11.5q5 0 11 -3l130 -66q13 -7 13 -18q0 -17 -20 -20q-6 -1 -7 1z" />
    <glyph glyph-name="eacute" unicode="&#xe9;" horiz-adv-x="651" 
d="M312 473q-65 0 -119 -34t-54 -81q0 -43 52.5 -79t120.5 -36q76 0 119.5 35.5t43.5 79.5q0 40 -42 77.5t-121 37.5zM32 268q0 109 58 185q80 102 223 102q104 0 174 -57.5t70 -139.5q0 -84 -70 -140.5t-184 -56.5q-67 0 -115 24.5t-73 52.5q9 -86 64.5 -131t130.5 -45
q46 0 86 18q9 4 18 4q17 0 29 -12t12 -29q0 -26 -25 -38q-54 -25 -120 -25q-112 0 -195 75.5t-83 212.5zM340 663l129 64q6 3 13 3q13 0 23.5 -11t10.5 -26q0 -26 -23 -32l-139 -35q-12 -3 -19.5 2.5t-7.5 15.5q0 13 13 19z" />
    <glyph glyph-name="ecircumflex" unicode="&#xea;" horiz-adv-x="651" 
d="M312 473q-65 0 -119 -34t-54 -81q0 -43 52.5 -79t120.5 -36q76 0 119.5 35.5t43.5 79.5q0 40 -42 77.5t-121 37.5zM32 268q0 109 58 185q80 102 223 102q104 0 174 -57.5t70 -139.5q0 -84 -70 -140.5t-184 -56.5q-67 0 -115 24.5t-73 52.5q9 -86 64.5 -131t130.5 -45
q46 0 86 18q9 4 18 4q17 0 29 -12t12 -29q0 -26 -25 -38q-54 -25 -120 -25q-112 0 -195 75.5t-83 212.5zM452 639q-44 27 -104 27q-57 0 -105 -27q-5 -3 -12 -3q-25 0 -25 25q0 11 9 20q62 55 133 55q62 0 132 -55q10 -7 10 -20q0 -25 -25 -25q-7 0 -13 3z" />
    <glyph glyph-name="edieresis" unicode="&#xeb;" horiz-adv-x="651" 
d="M312 473q-65 0 -119 -34t-54 -81q0 -43 52.5 -79t120.5 -36q76 0 119.5 35.5t43.5 79.5q0 40 -42 77.5t-121 37.5zM32 268q0 109 58 185q80 102 223 102q104 0 174 -57.5t70 -139.5q0 -84 -70 -140.5t-184 -56.5q-67 0 -115 24.5t-73 52.5q9 -86 64.5 -131t130.5 -45
q46 0 86 18q9 4 18 4q17 0 29 -12t12 -29q0 -26 -25 -38q-54 -25 -120 -25q-112 0 -195 75.5t-83 212.5zM225 677q0 16 10.5 27.5t30.5 11.5t30.5 -11.5t10.5 -27.5t-10.5 -27.5t-30.5 -11.5t-30.5 11.5t-10.5 27.5zM385 677q0 16 10.5 27.5t30.5 11.5t30.5 -11.5
t10.5 -27.5t-10.5 -27.5t-30.5 -11.5t-30.5 11.5t-10.5 27.5z" />
    <glyph glyph-name="igrave" unicode="&#xec;" horiz-adv-x="306" 
d="M77 223v273q0 17 12 29t29 12t29 -12t12 -29v-268q0 -50 26.5 -97t69.5 -75q19 -12 19 -35q0 -16 -11.5 -28.5t-28.5 -12.5q-25 0 -56.5 30t-53.5 64q-47 74 -47 149zM97 625l-142 39q-19 6 -19 31q0 13 10 24.5t24 11.5q5 0 11 -3l130 -66q13 -7 13 -18q0 -17 -20 -20
q-6 -1 -7 1z" />
    <glyph glyph-name="iacute" unicode="&#xed;" horiz-adv-x="306" 
d="M77 223v273q0 17 12 29t29 12t29 -12t12 -29v-268q0 -50 26.5 -97t69.5 -75q19 -12 19 -35q0 -16 -11.5 -28.5t-28.5 -12.5q-25 0 -56.5 30t-53.5 64q-47 74 -47 149zM123 663l129 64q6 3 13 3q13 0 23.5 -11t10.5 -26q0 -26 -23 -32l-139 -35q-12 -3 -19.5 2.5
t-7.5 15.5q0 13 13 19z" />
    <glyph glyph-name="icircumflex" unicode="&#xee;" horiz-adv-x="306" 
d="M77 223v273q0 17 12 29t29 12t29 -12t12 -29v-268q0 -50 26.5 -97t69.5 -75q19 -12 19 -35q0 -16 -11.5 -28.5t-28.5 -12.5q-25 0 -56.5 30t-53.5 64q-47 74 -47 149zM228 639q-44 27 -104 27q-57 0 -105 -27q-5 -3 -12 -3q-25 0 -25 25q0 11 9 20q62 55 133 55
q62 0 132 -55q10 -7 10 -20q0 -25 -25 -25q-7 0 -13 3z" />
    <glyph glyph-name="idieresis" unicode="&#xef;" horiz-adv-x="306" 
d="M77 223v273q0 17 12 29t29 12t29 -12t12 -29v-268q0 -50 26.5 -97t69.5 -75q19 -12 19 -35q0 -16 -11.5 -28.5t-28.5 -12.5q-25 0 -56.5 30t-53.5 64q-47 74 -47 149zM3 677q0 16 10.5 27.5t30.5 11.5t30.5 -11.5t10.5 -27.5t-10.5 -27.5t-30.5 -11.5t-30.5 11.5
t-10.5 27.5zM163 677q0 16 10.5 27.5t30.5 11.5t30.5 -11.5t10.5 -27.5t-10.5 -27.5t-30.5 -11.5t-30.5 11.5t-10.5 27.5z" />
    <glyph glyph-name="eth" unicode="&#xf0;" horiz-adv-x="696" 
d="M341 474q-82 0 -139 -52.5t-57 -152.5t57 -153t139 -53t139 53t57 153t-57 152.5t-139 52.5zM485 665q-15 -18 -28 -29q-7 -7 -18 -7q-10 0 -17 7q-8 8 -8 17q0 6 3.5 12t6.5 9.5t10.5 10.5t8.5 8q-46 33 -114 33h-13l-6 -1q-5 0 -11 3q-28 10 -28 39q0 15 10 26.5
t27 13.5q18 2 29 2q90 0 168 -54l27 27q7 7 18 7q10 0 17 -7q8 -8 8 -16q0 -14 -28 -40l-4 -4q76 -74 76 -182v-271q0 -125 -77 -206.5t-201 -81.5t-201 81.5t-77 206.5t77 206t201 81q69 0 136 -32q6 -3 18.5 -12t18.5 -12q8 -4 12 -4q11 0 11 24v17q0 76 -52 128z" />
    <glyph glyph-name="ntilde" unicode="&#xf1;" horiz-adv-x="723" 
d="M633 268v-227q0 -17 -12 -29t-29 -12t-28.5 12t-11.5 29v227q0 100 -58 153t-139 53t-138.5 -53t-57.5 -153v-227q0 -17 -12 -29t-29 -12t-29 12t-12 29v227q0 137 83 212.5t195 75.5t195 -75.5t83 -212.5zM383 629l-69 39q-10 6 -19 6q-29 0 -34 -32q-2 -13 -11.5 -21.5
t-22.5 -8.5q-14 0 -23 9.5t-9 22.5q0 39 30.5 67t69.5 28q29 0 51 -13l69 -39q10 -6 19 -6q29 0 34 32q2 13 11.5 21.5t22.5 8.5q14 0 23 -9.5t9 -22.5q0 -39 -30.5 -67t-69.5 -28q-29 0 -51 13zM383 629l-69 39q-10 6 -19 6q-29 0 -34 -32q-2 -13 -11.5 -21.5t-22.5 -8.5
q-14 0 -23 9.5t-9 22.5q0 39 30.5 67t69.5 28q29 0 51 -13l69 -39q10 -6 19 -6q29 0 34 32q2 13 11.5 21.5t22.5 8.5q14 0 23 -9.5t9 -22.5q0 -39 -30.5 -67t-69.5 -28q-29 0 -51 13z" />
    <glyph glyph-name="ograve" unicode="&#xf2;" horiz-adv-x="676" 
d="M338 -20q-112 0 -195 75.5t-83 212.5t82.5 212t195.5 75q53 0 102 -18t89 -52t63.5 -90.5t23.5 -126.5q0 -137 -83 -212.5t-195 -75.5zM338 62q82 0 139 53t57 153t-57 152.5t-139 52.5t-139 -52.5t-57 -152.5t57.5 -153t138.5 -53zM327 625l-142 39q-19 6 -19 31
q0 13 10 24.5t24 11.5q5 0 11 -3l130 -66q13 -7 13 -18q0 -17 -20 -20q-6 -1 -7 1z" />
    <glyph glyph-name="oacute" unicode="&#xf3;" horiz-adv-x="676" 
d="M338 -20q-112 0 -195 75.5t-83 212.5t82.5 212t195.5 75q53 0 102 -18t89 -52t63.5 -90.5t23.5 -126.5q0 -137 -83 -212.5t-195 -75.5zM338 62q82 0 139 53t57 153t-57 152.5t-139 52.5t-139 -52.5t-57 -152.5t57.5 -153t138.5 -53zM335 662l129 64q6 3 13 3
q13 0 23.5 -11t10.5 -26q0 -26 -23 -32l-139 -35q-12 -3 -19.5 2.5t-7.5 15.5q0 13 13 19z" />
    <glyph glyph-name="ocircumflex" unicode="&#xf4;" horiz-adv-x="676" 
d="M338 -20q-112 0 -195 75.5t-83 212.5t82.5 212t195.5 75q53 0 102 -18t89 -52t63.5 -90.5t23.5 -126.5q0 -137 -83 -212.5t-195 -75.5zM338 62q82 0 139 53t57 153t-57 152.5t-139 52.5t-139 -52.5t-57 -152.5t57.5 -153t138.5 -53zM443 631q-44 27 -104 27
q-57 0 -105 -27q-4 -3 -12 -3q-25 0 -25 25q0 11 9 20q62 55 133 55q62 0 132 -55q10 -7 10 -20q0 -25 -25 -25q-7 0 -13 3z" />
    <glyph glyph-name="otilde" unicode="&#xf5;" horiz-adv-x="676" 
d="M338 -20q-112 0 -195 75.5t-83 212.5t82.5 212t195.5 75q53 0 102 -18t89 -52t63.5 -90.5t23.5 -126.5q0 -137 -83 -212.5t-195 -75.5zM338 62q82 0 139 53t57 153t-57 152.5t-139 52.5t-139 -52.5t-57 -152.5t57.5 -153t138.5 -53zM369 629l-69 39q-10 6 -19 6
q-29 0 -34 -32q-2 -13 -11.5 -21.5t-22.5 -8.5q-14 0 -23 9.5t-9 22.5q0 39 30.5 67t69.5 28q29 0 51 -13l69 -39q10 -6 19 -6q29 0 34 32q2 13 11.5 21.5t22.5 8.5q14 0 23 -9.5t9 -22.5q0 -39 -30.5 -67t-69.5 -28q-29 0 -51 13zM369 629l-69 39q-10 6 -19 6
q-29 0 -34 -32q-2 -13 -11.5 -21.5t-22.5 -8.5q-14 0 -23 9.5t-9 22.5q0 39 30.5 67t69.5 28q29 0 51 -13l69 -39q10 -6 19 -6q29 0 34 32q2 13 11.5 21.5t22.5 8.5q14 0 23 -9.5t9 -22.5q0 -39 -30.5 -67t-69.5 -28q-29 0 -51 13z" />
    <glyph glyph-name="odieresis" unicode="&#xf6;" horiz-adv-x="676" 
d="M338 -20q-112 0 -195 75.5t-83 212.5t82.5 212t195.5 75q53 0 102 -18t89 -52t63.5 -90.5t23.5 -126.5q0 -137 -83 -212.5t-195 -75.5zM338 62q82 0 139 53t57 153t-57 152.5t-139 52.5t-139 -52.5t-57 -152.5t57.5 -153t138.5 -53zM217 677q0 16 10.5 27.5t30.5 11.5
t30.5 -11.5t10.5 -27.5t-10.5 -27.5t-30.5 -11.5t-30.5 11.5t-10.5 27.5zM377 677q0 16 10.5 27.5t30.5 11.5t30.5 -11.5t10.5 -27.5t-10.5 -27.5t-30.5 -11.5t-30.5 11.5t-10.5 27.5z" />
    <glyph glyph-name="divide" unicode="&#xf7;" horiz-adv-x="625" 
d="M265 135q0 16 10.5 27.5t30.5 11.5t30.5 -11.5t10.5 -27.5t-10.5 -27.5t-30.5 -11.5t-30.5 11.5t-10.5 27.5zM265 397q0 16 10.5 27.5t30.5 11.5t30.5 -11.5t10.5 -27.5t-10.5 -27.5t-30.5 -11.5t-30.5 11.5t-10.5 27.5zM500 234h-375q-14 0 -24.5 10.5t-10.5 24.5
t10.5 24.5t24.5 10.5h375q14 0 24.5 -10.5t10.5 -24.5t-10.5 -24.5t-24.5 -10.5z" />
    <glyph glyph-name="oslash" unicode="&#xf8;" horiz-adv-x="676" 
d="M60 268q0 137 82.5 212t195.5 75q96 0 169 -54q3 -3 7 -3q6 0 10 4l22 22q10 10 25 10q14 0 24 -10.5t10 -24.5q0 -15 -10 -24l-23 -24q-4 -4 -4 -9q0 -4 2 -6q46 -72 46 -168q0 -137 -83 -212.5t-195 -75.5q-96 0 -168 53q-4 3 -9 3t-8 -4l-23 -23q-10 -10 -25 -10
t-25 10t-10 25v6.5t1.5 5.5l2.5 5t4.5 5.5l6 6l9 9l11.5 11.5q4 4 4 9q-1 2 -2 6q-47 71 -47 170zM225 94q46 -32 113 -32q82 0 139 52.5t57 153.5q0 63 -26 110q-2 2 -4 2q-3 0 -4 -1l-276 -276q-2 -2 -2 -4q0 -3 3 -5zM338 473q-82 0 -139 -52.5t-57 -152.5q0 -65 26 -112
q2 -3 5 -3q2 0 4 2l276 276q1 1 1 4t-2 5q-47 33 -114 33z" />
    <glyph glyph-name="ugrave" unicode="&#xf9;" horiz-adv-x="723" 
d="M633 496v-228q0 -137 -83 -212.5t-195 -75.5t-195 75.5t-83 212.5v228q0 17 12 29t29 12t29 -12t12 -29v-228q0 -100 57.5 -153t138.5 -53t139 53t58 153v228q0 17 11.5 29t28.5 12t29 -12t12 -29zM338 625l-142 39q-19 6 -19 31q0 13 10 24.5t24 11.5q5 0 11 -3l130 -66
q13 -7 13 -18q0 -17 -20 -20q-6 -1 -7 1z" />
    <glyph glyph-name="uacute" unicode="&#xfa;" horiz-adv-x="723" 
d="M633 496v-228q0 -137 -83 -212.5t-195 -75.5t-195 75.5t-83 212.5v228q0 17 12 29t29 12t29 -12t12 -29v-228q0 -100 57.5 -153t138.5 -53t139 53t58 153v228q0 17 11.5 29t28.5 12t29 -12t12 -29zM346 662l129 64q6 3 13 3q13 0 23.5 -11t10.5 -26q0 -26 -23 -32
l-139 -35q-12 -3 -19.5 2.5t-7.5 15.5q0 13 13 19z" />
    <glyph glyph-name="ucircumflex" unicode="&#xfb;" horiz-adv-x="723" 
d="M633 496v-228q0 -137 -83 -212.5t-195 -75.5t-195 75.5t-83 212.5v228q0 17 12 29t29 12t29 -12t12 -29v-228q0 -100 57.5 -153t138.5 -53t139 53t58 153v228q0 17 11.5 29t28.5 12t29 -12t12 -29zM462 631q-44 27 -104 27q-57 0 -105 -27q-5 -3 -12 -3q-25 0 -25 25
q0 11 9 20q62 55 133 55q62 0 132 -55q10 -7 10 -20q0 -25 -25 -25q-7 0 -13 3z" />
    <glyph glyph-name="udieresis" unicode="&#xfc;" horiz-adv-x="723" 
d="M633 496v-228q0 -137 -83 -212.5t-195 -75.5t-195 75.5t-83 212.5v228q0 17 12 29t29 12t29 -12t12 -29v-228q0 -100 57.5 -153t138.5 -53t139 53t58 153v228q0 17 11.5 29t28.5 12t29 -12t12 -29zM234 677q0 16 10.5 27.5t30.5 11.5t30.5 -11.5t10.5 -27.5t-10.5 -27.5
t-30.5 -11.5t-30.5 11.5t-10.5 27.5zM394 677q0 16 10.5 27.5t30.5 11.5t30.5 -11.5t10.5 -27.5t-10.5 -27.5t-30.5 -11.5t-30.5 11.5t-10.5 27.5z" />
    <glyph glyph-name="yacute" unicode="&#xfd;" horiz-adv-x="533" 
d="M551 274v223q0 17 12 29t29 12t29 -12t12 -29v-480q0 -137 -83 -212t-195 -75q-68 0 -121 26q-24 10 -24 37q0 17 12 29t29 12q10 0 17 -4q40 -18 87 -18q82 0 139 52.5t57 152.5v46q-79 -76 -196 -76q-113 0 -195.5 75t-82.5 212v223q0 17 12 29t29 12t29 -12t12 -29
v-221q0 -102 57 -154.5t139 -52.5t139 52.5t57 152.5zM287 663l129 64q6 3 13 3q13 0 23.5 -11t10.5 -26q0 -26 -23 -32l-139 -35q-12 -3 -19.5 2.5t-7.5 15.5q0 13 13 19z" />
    <glyph glyph-name="thorn" unicode="&#xfe;" horiz-adv-x="592" 
d="M90 -221v973q0 17 12 29t29 12t29 -12t12 -29v-218q0 -13 13 -13q2 0 8 2q53 33 117 33q92 0 155.5 -66.5t63.5 -161.5v-121q0 -94 -63.5 -161t-155.5 -67q-65 0 -117 34q-6 2 -8 2q-13 0 -13 -13v-223q0 -17 -12 -29t-29 -12t-29 12t-12 29zM172 335v-135
q0 -59 41.5 -99t96.5 -40q56 0 96.5 42t40.5 104v121q0 62 -40.5 104.5t-96.5 42.5q-55 0 -95.5 -40t-42.5 -100z" />
    <glyph glyph-name="ydieresis" unicode="&#xff;" horiz-adv-x="533" 
d="M551 274v223q0 17 12 29t29 12t29 -12t12 -29v-480q0 -137 -83 -212t-195 -75q-68 0 -121 26q-24 10 -24 37q0 17 12 29t29 12q10 0 17 -4q40 -18 87 -18q82 0 139 52.5t57 152.5v46q-79 -76 -196 -76q-113 0 -195.5 75t-82.5 212v223q0 17 12 29t29 12t29 -12t12 -29
v-221q0 -102 57 -154.5t139 -52.5t139 52.5t57 152.5zM156 677q0 16 10.5 27.5t30.5 11.5t30.5 -11.5t10.5 -27.5t-10.5 -27.5t-30.5 -11.5t-30.5 11.5t-10.5 27.5zM316 677q0 16 10.5 27.5t30.5 11.5t30.5 -11.5t10.5 -27.5t-10.5 -27.5t-30.5 -11.5t-30.5 11.5t-10.5 27.5
z" />
    <glyph glyph-name="Amacron" unicode="&#x100;" 
d="M159 331v-290q0 -17 -12 -29t-29 -12t-29 12t-12 29v479q0 137 83 212.5t195 75.5t195 -75.5t83 -212.5v-479q0 -17 -12 -29t-29 -12t-29 12t-12 29v290q0 10 -7 17t-18 7h-343q-10 0 -17 -7t-7 -17zM551 462v57q0 102 -57 154.5t-139 52.5t-139 -52.5t-57 -153.5v-58
q0 -11 7 -18t17 -7h343q25 0 25 25zM197 885q0 15 10.5 25t24.5 10h245q15 0 25 -10t10 -25q0 -14 -10 -24.5t-25 -10.5h-245q-14 0 -24.5 10.5t-10.5 24.5z" />
    <glyph glyph-name="amacron" unicode="&#x101;" horiz-adv-x="706" 
d="M158 361q-16 -38 -16 -92q0 -101 57 -153.5t139 -52.5t135 49q61 58 61 157q0 52 -17 92q-23 56 -71.5 84.5t-107.5 28.5q-60 0 -107.5 -28.5t-72.5 -84.5zM534 480v16q0 17 12 29t29 12t29 -12t12 -29v-267q0 -44 19 -88t52 -65q8 -5 13 -13q9 -14 5.5 -30.5
t-16.5 -25.5q-23 -16 -46 0q-41 28 -62 68q-13 23 -26 5q-80 -99 -217 -99q-112 0 -195 75.5t-83 212.5t82.5 212t195.5 75q117 0 196 -76zM194 677q0 15 10.5 25t24.5 10h245q15 0 25 -10t10 -25q0 -14 -10 -24.5t-25 -10.5h-245q-14 0 -24.5 10.5t-10.5 24.5z" />
    <glyph glyph-name="Abreve" unicode="&#x102;" 
d="M159 331v-290q0 -17 -12 -29t-29 -12t-29 12t-12 29v479q0 137 83 212.5t195 75.5t195 -75.5t83 -212.5v-479q0 -17 -12 -29t-29 -12t-29 12t-12 29v290q0 10 -7 17t-18 7h-343q-10 0 -17 -7t-7 -17zM551 462v57q0 102 -57 154.5t-139 52.5t-139 -52.5t-57 -153.5v-58
q0 -11 7 -18t17 -7h343q25 0 25 25zM229 957l107 -54q8 -5 16 -5t16 5l107 54q6 3 13 3q15 0 25.5 -10t10.5 -27q0 -27 -23 -33l-142 -39q-7 -1 -14 0l-141 39q-24 6 -24 33q0 17 10.5 27t25.5 10q7 0 13 -3z" />
    <glyph glyph-name="abreve" unicode="&#x103;" horiz-adv-x="706" 
d="M158 361q-16 -38 -16 -92q0 -101 57 -153.5t139 -52.5t135 49q61 58 61 157q0 52 -17 92q-23 56 -71.5 84.5t-107.5 28.5q-60 0 -107.5 -28.5t-72.5 -84.5zM534 480v16q0 17 12 29t29 12t29 -12t12 -29v-267q0 -44 19 -88t52 -65q8 -5 13 -13q9 -14 5.5 -30.5
t-16.5 -25.5q-23 -16 -46 0q-41 28 -62 68q-13 23 -26 5q-80 -99 -217 -99q-112 0 -195 75.5t-83 212.5t82.5 212t195.5 75q117 0 196 -76zM224 729l107 -54q8 -5 16 -5t16 5l107 54q6 3 13 3q15 0 25.5 -10t10.5 -27q0 -27 -23 -33l-142 -39q-7 -1 -14 0l-141 39
q-24 6 -24 33q0 17 10.5 27t25.5 10q7 0 13 -3z" />
    <glyph glyph-name="Aogonek" unicode="&#x104;" 
d="M571 60v103q0 13 9 22t22 9t22 -9t9 -22v-129q0 -26 -28 -32t-28 -29q0 -12 6 -18q7 -7 20 -7q16 0 25 14q8 14 25 14q12 0 20.5 -8.5t8.5 -20.5q0 -11 -4 -15q-27 -44 -75 -44q-38 0 -62 26q-25 25 -25 59q0 51 46 75q9 4 9 12zM159 331v-290q0 -17 -12 -29t-29 -12
t-29 12t-12 29v479q0 137 83 212.5t195 75.5t195 -75.5t83 -212.5v-479q0 -17 -12 -29t-29 -12t-29 12t-12 29v290q0 10 -7 17t-18 7h-343q-10 0 -17 -7t-7 -17zM551 462v57q0 102 -57 154.5t-139 52.5t-139 -52.5t-57 -153.5v-58q0 -11 7 -18t17 -7h343q25 0 25 25z" />
    <glyph glyph-name="aogonek" unicode="&#x105;" horiz-adv-x="706" 
d="M560 60v103q0 13 9 22t22 9t22 -9t9 -22v-129q0 -26 -28 -32t-28 -29q0 -12 6 -18q7 -7 20 -7q16 0 25 14q8 14 25 14q12 0 20.5 -8.5t8.5 -20.5q0 -11 -4 -15q-27 -44 -75 -44q-38 0 -62 26q-25 25 -25 59q0 51 46 75q9 4 9 12zM158 361q-16 -38 -16 -92
q0 -101 57 -153.5t139 -52.5t135 49q61 58 61 157q0 52 -17 92q-23 56 -71.5 84.5t-107.5 28.5q-60 0 -107.5 -28.5t-72.5 -84.5zM534 480v16q0 17 12 29t29 12t29 -12t12 -29v-267q0 -44 19 -88t52 -65q8 -5 13 -13q9 -14 5.5 -30.5t-16.5 -25.5q-23 -16 -46 0
q-41 28 -62 68q-13 23 -26 5q-80 -99 -217 -99q-112 0 -195 75.5t-83 212.5t82.5 212t195.5 75q117 0 196 -76z" />
    <glyph glyph-name="Cacute" unicode="&#x106;" horiz-adv-x="681" 
d="M624 12q-81 -32 -161 -32q-75 0 -145.5 26t-128 75.5t-92 130.5t-34.5 182t34.5 182t92 130t128 75t145.5 26q17 0 29 -12t12 -29t-12 -29t-29 -12q-61 0 -117 -20t-101.5 -59.5t-72.5 -104.5t-27 -147q0 -160 94.5 -246t223.5 -86q69 0 129 25q8 3 16 3q17 0 29 -12
t12 -29q0 -27 -25 -37zM448 889l129 64q6 3 13 3q13 0 23.5 -11t10.5 -26q0 -26 -23 -32l-139 -35q-12 -3 -19.5 2.5t-7.5 15.5q0 13 13 19z" />
    <glyph glyph-name="cacute" unicode="&#x107;" horiz-adv-x="529" 
d="M462 530q24 -10 24 -37q0 -17 -12 -29t-29 -12q-9 0 -17 4q-40 18 -87 18q-82 0 -139 -52.5t-57 -152.5q0 -101 57 -153.5t139 -52.5q45 0 86 18q8 4 18 4q17 0 29 -12t12 -29q0 -26 -25 -38q-53 -25 -120 -25q-112 0 -195 75.5t-83 212.5t82.5 212t195.5 75
q68 0 121 -26zM302 663l129 64q6 3 13 3q13 0 23.5 -11t10.5 -26q0 -26 -23 -32l-139 -35q-12 -3 -19.5 2.5t-7.5 15.5q0 13 13 19z" />
    <glyph glyph-name="Ccircumflex" unicode="&#x108;" horiz-adv-x="681" 
d="M624 12q-81 -32 -161 -32q-75 0 -145.5 26t-128 75.5t-92 130.5t-34.5 182t34.5 182t92 130t128 75t145.5 26q17 0 29 -12t12 -29t-12 -29t-29 -12q-61 0 -117 -20t-101.5 -59.5t-72.5 -104.5t-27 -147q0 -160 94.5 -246t223.5 -86q69 0 129 25q8 3 16 3q17 0 29 -12
t12 -29q0 -27 -25 -37zM549 851q-44 27 -104 27q-57 0 -105 -27q-4 -3 -12 -3q-25 0 -25 25q0 11 9 20q62 55 133 55q62 0 132 -55q10 -7 10 -20q0 -25 -25 -25q-7 0 -13 3z" />
    <glyph glyph-name="ccircumflex" unicode="&#x109;" horiz-adv-x="529" 
d="M462 530q24 -10 24 -37q0 -17 -12 -29t-29 -12q-9 0 -17 4q-40 18 -87 18q-82 0 -139 -52.5t-57 -152.5q0 -101 57 -153.5t139 -52.5q45 0 86 18q8 4 18 4q17 0 29 -12t12 -29q0 -26 -25 -38q-53 -25 -120 -25q-112 0 -195 75.5t-83 212.5t82.5 212t195.5 75
q68 0 121 -26zM452 631q-44 27 -104 27q-57 0 -105 -27q-5 -3 -12 -3q-25 0 -25 25q0 11 9 20q62 55 133 55q62 0 132 -55q10 -7 10 -20q0 -25 -25 -25q-7 0 -13 3z" />
    <glyph glyph-name="Cdotaccent" unicode="&#x10a;" horiz-adv-x="681" 
d="M624 12q-81 -32 -161 -32q-75 0 -145.5 26t-128 75.5t-92 130.5t-34.5 182t34.5 182t92 130t128 75t145.5 26q17 0 29 -12t12 -29t-12 -29t-29 -12q-61 0 -117 -20t-101.5 -59.5t-72.5 -104.5t-27 -147q0 -160 94.5 -246t223.5 -86q69 0 129 25q8 3 16 3q17 0 29 -12
t12 -29q0 -27 -25 -37zM420 888q0 16 10.5 27.5t30.5 11.5t30.5 -11.5t10.5 -27.5t-10.5 -27.5t-30.5 -11.5t-30.5 11.5t-10.5 27.5z" />
    <glyph glyph-name="cdotaccent" unicode="&#x10b;" horiz-adv-x="529" 
d="M462 530q24 -10 24 -37q0 -17 -12 -29t-29 -12q-9 0 -17 4q-40 18 -87 18q-82 0 -139 -52.5t-57 -152.5q0 -101 57 -153.5t139 -52.5q45 0 86 18q8 4 18 4q17 0 29 -12t12 -29q0 -26 -25 -38q-53 -25 -120 -25q-112 0 -195 75.5t-83 212.5t82.5 212t195.5 75
q68 0 121 -26zM302 677q0 16 10.5 27.5t30.5 11.5t30.5 -11.5t10.5 -27.5t-10.5 -27.5t-30.5 -11.5t-30.5 11.5t-10.5 27.5z" />
    <glyph glyph-name="Ccaron" unicode="&#x10c;" horiz-adv-x="681" 
d="M624 12q-81 -32 -161 -32q-75 0 -145.5 26t-128 75.5t-92 130.5t-34.5 182t34.5 182t92 130t128 75t145.5 26q17 0 29 -12t12 -29t-12 -29t-29 -12q-61 0 -117 -20t-101.5 -59.5t-72.5 -104.5t-27 -147q0 -160 94.5 -246t223.5 -86q69 0 129 25q8 3 16 3q17 0 29 -12
t12 -29q0 -27 -25 -37zM569 946q6 3 13 3q25 0 25 -25q0 -13 -10 -20q-70 -55 -132 -55q-63 0 -133 55q-9 9 -9 20q0 25 25 25q8 0 12 -3q48 -27 105 -27q62 0 104 27z" />
    <glyph glyph-name="ccaron" unicode="&#x10d;" horiz-adv-x="529" 
d="M462 530q24 -10 24 -37q0 -17 -12 -29t-29 -12q-9 0 -17 4q-40 18 -87 18q-82 0 -139 -52.5t-57 -152.5q0 -101 57 -153.5t139 -52.5q45 0 86 18q8 4 18 4q17 0 29 -12t12 -29q0 -26 -25 -38q-53 -25 -120 -25q-112 0 -195 75.5t-83 212.5t82.5 212t195.5 75
q68 0 121 -26zM442 724q6 3 13 3q25 0 25 -25q0 -13 -10 -20q-70 -55 -132 -55q-63 0 -133 55q-9 9 -9 20q0 25 25 25q7 0 12 -3q48 -27 105 -27q62 0 104 27z" />
    <glyph glyph-name="Dcaron" unicode="&#x10e;" horiz-adv-x="716" 
d="M131 799h114q100 0 179.5 -34.5t128.5 -91t74.5 -126t25.5 -143.5q0 -75 -25.5 -144t-74.5 -125.5t-128.5 -90.5t-179.5 -34h-114q-17 0 -29 12t-12 29v707q0 17 12 29t29 12zM245 717h-52q-9 0 -15 -6.5t-6 -14.5v-584q0 -8 6 -14t14 -6h53q81 0 145 26.5t102.5 71
t58.5 99t20 115.5q0 60 -20 115t-58.5 100t-102.5 71.5t-145 26.5zM343 946q6 3 13 3q25 0 25 -25q0 -13 -10 -20q-70 -55 -132 -55q-63 0 -133 55q-9 9 -9 20q0 25 25 25q8 0 12 -3q48 -27 105 -27q62 0 104 27z" />
    <glyph glyph-name="dcaron" unicode="&#x10f;" horiz-adv-x="709" 
d="M619 766v-498q0 -137 -83 -212.5t-195 -75.5t-195 75.5t-83 212.5q0 70 23.5 126.5t63.5 90.5t89 52t102 18q118 0 196 -75v286q0 17 12 29t29 12t29 -12t12 -29zM537 270q0 99 -57.5 151t-138.5 52q-82 0 -139 -52.5t-57 -152.5t57 -153t139 -53q81 0 138.5 52.5
t57.5 155.5zM723 771l-31 -144q-5 -18 -22 -17t-17 22v145q0 15 11.5 23.5t26.5 6.5q16 -2 25.5 -12t6.5 -24z" />
    <glyph glyph-name="Dcroat" unicode="&#x110;" horiz-adv-x="739" 
d="M157 799h114q100 0 179.5 -34.5t128.5 -91t74.5 -126t25.5 -143.5q0 -75 -25.5 -144t-74.5 -125.5t-128.5 -90.5t-179.5 -34h-114q-17 0 -29 12t-12 29v707q0 17 12 29t29 12zM271 717h-52q-9 0 -15 -6.5t-6 -14.5v-584q0 -8 6 -14t14 -6h53q81 0 145 26.5t102.5 71
t58.5 99t20 115.5q0 60 -20 115t-58.5 100t-102.5 71.5t-145 26.5zM32 399q0 15 10.5 25t24.5 10h245q15 0 25 -10t10 -25q0 -14 -10 -24.5t-25 -10.5h-245q-14 0 -24.5 10.5t-10.5 24.5z" />
    <glyph glyph-name="dcroat" unicode="&#x111;" horiz-adv-x="709" 
d="M619 766v-498q0 -137 -83 -212.5t-195 -75.5t-195 75.5t-83 212.5q0 70 23.5 126.5t63.5 90.5t89 52t102 18q118 0 196 -75v286q0 17 12 29t29 12t29 -12t12 -29zM537 270q0 99 -57.5 151t-138.5 52q-82 0 -139 -52.5t-57 -152.5t57 -153t139 -53q81 0 138.5 52.5
t57.5 155.5zM456 226h-228q-17 0 -29 12t-12 29t12 29t29 12h228q17 0 29 -12t12 -29t-12 -29t-29 -12z" />
    <glyph glyph-name="Emacron" unicode="&#x112;" horiz-adv-x="532" 
d="M77 268v252q0 137 82.5 212t195.5 75q68 0 121 -26q24 -11 24 -37q0 -17 -12 -29t-29 -12q-9 0 -17 4q-40 18 -87 18q-82 0 -139 -52.5t-57 -152.5v-43q0 -17 12 -29t29 -12h156q17 0 29 -12t12 -29t-12 -29t-29 -12h-156q-17 0 -29 -12t-12 -29v-45q0 -101 57 -153.5
t139 -52.5q45 0 86 18q8 4 18 4q17 0 29 -12t12 -29q0 -26 -25 -38q-53 -25 -120 -25q-112 0 -195 75.5t-83 212.5zM179 885q0 15 10.5 25t24.5 10h245q15 0 25 -10t10 -25q0 -14 -10 -24.5t-25 -10.5h-245q-14 0 -24.5 10.5t-10.5 24.5z" />
    <glyph glyph-name="emacron" unicode="&#x113;" horiz-adv-x="651" 
d="M312 473q-65 0 -119 -34t-54 -81q0 -43 52.5 -79t120.5 -36q76 0 119.5 35.5t43.5 79.5q0 40 -42 77.5t-121 37.5zM32 268q0 109 58 185q80 102 223 102q104 0 174 -57.5t70 -139.5q0 -84 -70 -140.5t-184 -56.5q-67 0 -115 24.5t-73 52.5q9 -86 64.5 -131t130.5 -45
q46 0 86 18q9 4 18 4q17 0 29 -12t12 -29q0 -26 -25 -38q-54 -25 -120 -25q-112 0 -195 75.5t-83 212.5zM158 677q0 15 10.5 25t24.5 10h245q15 0 25 -10t10 -25q0 -14 -10 -24.5t-25 -10.5h-245q-14 0 -24.5 10.5t-10.5 24.5z" />
    <glyph glyph-name="Ebreve" unicode="&#x114;" horiz-adv-x="574" 
d="M77 268v252q0 137 82.5 212t195.5 75q68 0 121 -26q24 -11 24 -37q0 -17 -12 -29t-29 -12q-9 0 -17 4q-40 18 -87 18q-82 0 -139 -52.5t-57 -152.5v-43q0 -17 12 -29t29 -12h156q17 0 29 -12t12 -29t-12 -29t-29 -12h-156q-17 0 -29 -12t-12 -29v-45q0 -101 57 -153.5
t139 -52.5q45 0 86 18q8 4 18 4q17 0 29 -12t12 -29q0 -26 -25 -38q-53 -25 -120 -25q-112 0 -195 75.5t-83 212.5zM247 957l107 -54q8 -5 16 -5t16 5l107 54q6 3 13 3q15 0 25.5 -10t10.5 -27q0 -27 -23 -33l-142 -39q-7 -1 -14 0l-141 39q-24 6 -24 33q0 17 10.5 27
t25.5 10q7 0 13 -3z" />
    <glyph glyph-name="ebreve" unicode="&#x115;" horiz-adv-x="651" 
d="M312 473q-65 0 -119 -34t-54 -81q0 -43 52.5 -79t120.5 -36q76 0 119.5 35.5t43.5 79.5q0 40 -42 77.5t-121 37.5zM32 268q0 109 58 185q80 102 223 102q104 0 174 -57.5t70 -139.5q0 -84 -70 -140.5t-184 -56.5q-67 0 -115 24.5t-73 52.5q9 -86 64.5 -131t130.5 -45
q46 0 86 18q9 4 18 4q17 0 29 -12t12 -29q0 -26 -25 -38q-54 -25 -120 -25q-112 0 -195 75.5t-83 212.5zM215 730l107 -54q8 -5 16 -5t16 5l107 54q6 3 13 3q15 0 25.5 -10t10.5 -27q0 -27 -23 -33l-142 -39q-7 -1 -14 0l-141 39q-24 6 -24 33q0 17 10.5 27t25.5 10
q7 0 13 -3z" />
    <glyph glyph-name="Edotaccent" unicode="&#x116;" horiz-adv-x="532" 
d="M77 268v252q0 137 82.5 212t195.5 75q68 0 121 -26q24 -11 24 -37q0 -17 -12 -29t-29 -12q-9 0 -17 4q-40 18 -87 18q-82 0 -139 -52.5t-57 -152.5v-43q0 -17 12 -29t29 -12h156q17 0 29 -12t12 -29t-12 -29t-29 -12h-156q-17 0 -29 -12t-12 -29v-45q0 -101 57 -153.5
t139 -52.5q45 0 86 18q8 4 18 4q17 0 29 -12t12 -29q0 -26 -25 -38q-53 -25 -120 -25q-112 0 -195 75.5t-83 212.5zM306 888q0 16 10.5 27.5t30.5 11.5t30.5 -11.5t10.5 -27.5t-10.5 -27.5t-30.5 -11.5t-30.5 11.5t-10.5 27.5z" />
    <glyph glyph-name="edotaccent" unicode="&#x117;" horiz-adv-x="651" 
d="M312 473q-65 0 -119 -34t-54 -81q0 -43 52.5 -79t120.5 -36q76 0 119.5 35.5t43.5 79.5q0 40 -42 77.5t-121 37.5zM32 268q0 109 58 185q80 102 223 102q104 0 174 -57.5t70 -139.5q0 -84 -70 -140.5t-184 -56.5q-67 0 -115 24.5t-73 52.5q9 -86 64.5 -131t130.5 -45
q46 0 86 18q9 4 18 4q17 0 29 -12t12 -29q0 -26 -25 -38q-54 -25 -120 -25q-112 0 -195 75.5t-83 212.5zM300 676q0 16 10.5 27.5t30.5 11.5t30.5 -11.5t10.5 -27.5t-10.5 -27.5t-30.5 -11.5t-30.5 11.5t-10.5 27.5z" />
    <glyph glyph-name="Eogonek" unicode="&#x118;" horiz-adv-x="532" 
d="M438 56q18 18 31 18q18 4 27 -16q11 -31 -24 -55q-28 -6 -28 -29q0 -12 6 -18q7 -7 20 -7q16 0 25 14q8 14 25 14q12 0 20.5 -8.5t8.5 -20.5q0 -11 -4 -15q-27 -44 -75 -44q-38 0 -62 26q-25 25 -25 59q0 51 46 75q9 5 9 7zM77 268v252q0 137 82.5 212t195.5 75
q68 0 121 -26q24 -11 24 -37q0 -17 -12 -29t-29 -12q-9 0 -17 4q-40 18 -87 18q-82 0 -139 -52.5t-57 -152.5v-43q0 -17 12 -29t29 -12h156q17 0 29 -12t12 -29t-12 -29t-29 -12h-156q-17 0 -29 -12t-12 -29v-45q0 -101 57 -153.5t139 -52.5q45 0 86 18q8 4 18 4
q17 0 29 -12t12 -29q0 -26 -25 -38q-53 -25 -120 -25q-112 0 -195 75.5t-83 212.5z" />
    <glyph glyph-name="eogonek" unicode="&#x119;" horiz-adv-x="621" 
d="M421 53q14 0 22.5 -9.5t4.5 -27.5q-3 -19 -28 -28q-24 -9 -24 -35q-2 -11 6.5 -20t21.5 -7.5t23 16.5q8 14 25 14q12 0 20.5 -8.5t8.5 -20.5q0 -11 -4 -15q-27 -44 -75 -44q-38 0 -62 26q-25 25 -25 59q0 51 46 75q10 5 40 25zM340 473q-65 0 -119 -34t-54 -81
q0 -43 52.5 -79t120.5 -36q76 0 119.5 35.5t43.5 79.5q0 40 -42 77.5t-121 37.5zM60 268q0 109 58 185q80 102 223 102q104 0 174 -57.5t70 -139.5q0 -84 -70 -140.5t-184 -56.5q-67 0 -115 24.5t-73 52.5q9 -86 64.5 -131t130.5 -45q46 0 86 18q9 4 18 4q17 0 29 -12
t12 -29q0 -26 -25 -38q-54 -25 -120 -25q-112 0 -195 75.5t-83 212.5z" />
    <glyph glyph-name="Ecaron" unicode="&#x11a;" horiz-adv-x="532" 
d="M77 268v252q0 137 82.5 212t195.5 75q68 0 121 -26q24 -11 24 -37q0 -17 -12 -29t-29 -12q-9 0 -17 4q-40 18 -87 18q-82 0 -139 -52.5t-57 -152.5v-43q0 -17 12 -29t29 -12h156q17 0 29 -12t12 -29t-12 -29t-29 -12h-156q-17 0 -29 -12t-12 -29v-45q0 -101 57 -153.5
t139 -52.5q45 0 86 18q8 4 18 4q17 0 29 -12t12 -29q0 -26 -25 -38q-53 -25 -120 -25q-112 0 -195 75.5t-83 212.5zM460 946q6 3 13 3q25 0 25 -25q0 -13 -10 -20q-70 -55 -132 -55q-63 0 -133 55q-9 9 -9 20q0 25 25 25q7 0 12 -3q48 -27 105 -27q62 0 104 27z" />
    <glyph glyph-name="ecaron" unicode="&#x11b;" horiz-adv-x="651" 
d="M312 473q-65 0 -119 -34t-54 -81q0 -43 52.5 -79t120.5 -36q76 0 119.5 35.5t43.5 79.5q0 40 -42 77.5t-121 37.5zM32 268q0 109 58 185q80 102 223 102q104 0 174 -57.5t70 -139.5q0 -84 -70 -140.5t-184 -56.5q-67 0 -115 24.5t-73 52.5q9 -86 64.5 -131t130.5 -45
q46 0 86 18q9 4 18 4q17 0 29 -12t12 -29q0 -26 -25 -38q-54 -25 -120 -25q-112 0 -195 75.5t-83 212.5zM442 724q6 3 13 3q25 0 25 -25q0 -13 -10 -20q-70 -55 -132 -55q-63 0 -133 55q-9 9 -9 20q0 25 25 25q7 0 12 -3q48 -27 105 -27q62 0 104 27z" />
    <glyph glyph-name="Gcircumflex" unicode="&#x11c;" horiz-adv-x="895" 
d="M752 355h-208q-17 0 -29 12t-12 29t12 29t29 12h278q17 0 29 -12t12 -29q0 -102 -34.5 -183.5t-92.5 -131t-127.5 -75t-145.5 -25.5q-75 0 -145.5 26t-128 75t-92 130.5t-34.5 182.5t34.5 182t91.5 130t127.5 75t146.5 26q17 0 29 -12t12 -29t-12 -29t-29 -12
q-62 0 -117.5 -20.5t-101 -59.5t-72.5 -104t-27 -147t27 -147.5t72.5 -104.5t101.5 -59.5t117 -20.5q113 0 201 66.5t111 192.5q6 33 -23 33zM570 852q-44 27 -104 27q-57 0 -105 -27q-5 -3 -12 -3q-25 0 -25 25q0 11 9 20q62 55 133 55q62 0 132 -55q10 -7 10 -20
q0 -25 -25 -25q-7 0 -13 3z" />
    <glyph glyph-name="gcircumflex" unicode="&#x11d;" horiz-adv-x="709" 
d="M341 -19q-112 0 -195 75.5t-83 212.5t82.5 212t195.5 75q53 0 102 -18t89 -52t63.5 -90.5t23.5 -126.5v-252q0 -137 -83 -212.5t-195 -75.5q-17 0 -29 12t-12 29t12 29t29 12q82 0 139 53t57 153v40q-79 -76 -196 -76zM341 63q82 0 139 52.5t57 153.5q0 100 -57 152.5
t-139 52.5t-139 -52.5t-57 -152.5q0 -101 57.5 -153.5t138.5 -52.5zM449 630q-44 27 -104 27q-57 0 -105 -27q-4 -3 -12 -3q-25 0 -25 25q0 11 9 20q62 55 133 55q62 0 132 -55q10 -7 10 -20q0 -25 -25 -25q-7 0 -13 3z" />
    <glyph glyph-name="Gbreve" unicode="&#x11e;" horiz-adv-x="895" 
d="M752 355h-208q-17 0 -29 12t-12 29t12 29t29 12h278q17 0 29 -12t12 -29q0 -102 -34.5 -183.5t-92.5 -131t-127.5 -75t-145.5 -25.5q-75 0 -145.5 26t-128 75t-92 130.5t-34.5 182.5t34.5 182t91.5 130t127.5 75t146.5 26q17 0 29 -12t12 -29t-12 -29t-29 -12
q-62 0 -117.5 -20.5t-101 -59.5t-72.5 -104t-27 -147t27 -147.5t72.5 -104.5t101.5 -59.5t117 -20.5q113 0 201 66.5t111 192.5q6 33 -23 33zM349 957l107 -54q8 -5 16 -5t16 5l107 54q6 3 13 3q15 0 25.5 -10t10.5 -27q0 -27 -23 -33l-142 -39q-7 -1 -14 0l-141 39
q-24 6 -24 33q0 17 10.5 27t25.5 10q7 0 13 -3z" />
    <glyph glyph-name="gbreve" unicode="&#x11f;" horiz-adv-x="709" 
d="M341 -19q-112 0 -195 75.5t-83 212.5t82.5 212t195.5 75q53 0 102 -18t89 -52t63.5 -90.5t23.5 -126.5v-252q0 -137 -83 -212.5t-195 -75.5q-17 0 -29 12t-12 29t12 29t29 12q82 0 139 53t57 153v40q-79 -76 -196 -76zM341 63q82 0 139 52.5t57 153.5q0 100 -57 152.5
t-139 52.5t-139 -52.5t-57 -152.5q0 -101 57.5 -153.5t138.5 -52.5zM242 728l107 -54q8 -5 16 -5t16 5l107 54q6 3 13 3q15 0 25.5 -10t10.5 -27q0 -27 -23 -33l-142 -39q-7 -1 -14 0l-141 39q-24 6 -24 33q0 17 10.5 27t25.5 10q7 0 13 -3z" />
    <glyph glyph-name="Gdotaccent" unicode="&#x120;" horiz-adv-x="895" 
d="M752 355h-208q-17 0 -29 12t-12 29t12 29t29 12h278q17 0 29 -12t12 -29q0 -102 -34.5 -183.5t-92.5 -131t-127.5 -75t-145.5 -25.5q-75 0 -145.5 26t-128 75t-92 130.5t-34.5 182.5t34.5 182t91.5 130t127.5 75t146.5 26q17 0 29 -12t12 -29t-12 -29t-29 -12
q-62 0 -117.5 -20.5t-101 -59.5t-72.5 -104t-27 -147t27 -147.5t72.5 -104.5t101.5 -59.5t117 -20.5q113 0 201 66.5t111 192.5q6 33 -23 33zM426 888q0 16 10.5 27.5t30.5 11.5t30.5 -11.5t10.5 -27.5t-10.5 -27.5t-30.5 -11.5t-30.5 11.5t-10.5 27.5z" />
    <glyph glyph-name="gdotaccent" unicode="&#x121;" horiz-adv-x="709" 
d="M341 -19q-112 0 -195 75.5t-83 212.5t82.5 212t195.5 75q53 0 102 -18t89 -52t63.5 -90.5t23.5 -126.5v-252q0 -137 -83 -212.5t-195 -75.5q-17 0 -29 12t-12 29t12 29t29 12q82 0 139 53t57 153v40q-79 -76 -196 -76zM341 63q82 0 139 52.5t57 153.5q0 100 -57 152.5
t-139 52.5t-139 -52.5t-57 -152.5q0 -101 57.5 -153.5t138.5 -52.5zM313 676q0 16 10.5 27.5t30.5 11.5t30.5 -11.5t10.5 -27.5t-10.5 -27.5t-30.5 -11.5t-30.5 11.5t-10.5 27.5z" />
    <glyph glyph-name="Gcommaaccent" unicode="&#x122;" horiz-adv-x="895" 
d="M752 355h-208q-17 0 -29 12t-12 29t12 29t29 12h278q17 0 29 -12t12 -29q0 -102 -34.5 -183.5t-92.5 -131t-127.5 -75t-145.5 -25.5q-75 0 -145.5 26t-128 75t-92 130.5t-34.5 182.5t34.5 182t91.5 130t127.5 75t146.5 26q17 0 29 -12t12 -29t-12 -29t-29 -12
q-62 0 -117.5 -20.5t-101 -59.5t-72.5 -104t-27 -147t27 -147.5t72.5 -104.5t101.5 -59.5t117 -20.5q113 0 201 66.5t111 192.5q6 33 -23 33zM508 -103l-30 -141q-5 -20 -22 -18q-18 3 -18 22v144q0 15 12 24t27 7t24.5 -13t6.5 -25z" />
    <glyph glyph-name="gcommaaccent" unicode="&#x123;" horiz-adv-x="709" 
d="M341 -19q-112 0 -195 75.5t-83 212.5t82.5 212t195.5 75q53 0 102 -18t89 -52t63.5 -90.5t23.5 -126.5v-252q0 -137 -83 -212.5t-195 -75.5q-17 0 -29 12t-12 29t12 29t29 12q82 0 139 53t57 153v40q-79 -76 -196 -76zM341 63q82 0 139 52.5t57 153.5q0 100 -57 152.5
t-139 52.5t-139 -52.5t-57 -152.5q0 -101 57.5 -153.5t138.5 -52.5zM322 663l31 144q5 18 22 17t17 -22v-145q0 -15 -11.5 -23.5t-26.5 -6.5q-16 2 -25.5 12t-6.5 24z" />
    <glyph glyph-name="Hcircumflex" unicode="&#x124;" horiz-adv-x="736" 
d="M564 458v309q0 17 12 29t29 12t29 -12t12 -29v-726q0 -17 -12 -29t-29 -12t-29 12t-12 29v294q0 8 -6 14t-15 6h-351q-8 0 -14 -6t-6 -14v-294q0 -17 -12 -29t-29 -12t-29 12t-12 29v726q0 17 12 29t29 12t29 -12t12 -29v-309q0 -8 6 -14.5t14 -6.5h351q9 0 15 6.5
t6 14.5zM473 852q-44 27 -104 27q-57 0 -105 -27q-4 -3 -12 -3q-25 0 -25 25q0 11 9 20q62 55 133 55q62 0 132 -55q10 -7 10 -20q0 -25 -25 -25q-7 0 -13 3z" />
    <glyph glyph-name="hcircumflex" unicode="&#x125;" horiz-adv-x="723" 
d="M172 767v-236q0 -10 7 -17.5t18 -7.5q5 0 13 5q68 45 158 45q112 0 195 -75t83 -212v-228q0 -17 -12 -29t-29 -12t-29 12t-12 29v228q0 100 -57 152.5t-139 52.5t-139 -52.5t-57 -152.5v-228q0 -17 -12 -29t-29 -12t-29 12t-12 29v726q0 17 12 29t29 12t29 -12t12 -29z
M474 630q-44 27 -104 27q-57 0 -105 -27q-5 -3 -12 -3q-25 0 -25 25q0 11 9 20q62 55 133 55q62 0 132 -55q10 -7 10 -20q0 -25 -25 -25q-7 0 -13 3z" />
    <glyph glyph-name="Hbar" unicode="&#x126;" horiz-adv-x="736" 
d="M564 458v309q0 17 12 29t29 12t29 -12t12 -29v-726q0 -17 -12 -29t-29 -12t-29 12t-12 29v294q0 8 -6 14t-15 6h-351q-8 0 -14 -6t-6 -14v-294q0 -17 -12 -29t-29 -12t-29 12t-12 29v726q0 17 12 29t29 12t29 -12t12 -29v-309q0 -8 6 -14.5t14 -6.5h351q9 0 15 6.5
t6 14.5zM210 642q0 15 10.5 25t24.5 10h245q15 0 25 -10t10 -25q0 -14 -10 -24.5t-25 -10.5h-245q-14 0 -24.5 10.5t-10.5 24.5z" />
    <glyph glyph-name="hbar" unicode="&#x127;" horiz-adv-x="743" 
d="M172 767v-236q0 -10 7 -17.5t18 -7.5q5 0 13 5q68 45 158 45q112 0 195 -75t83 -212v-228q0 -17 -12 -29t-29 -12t-29 12t-12 29v228q0 100 -57 152.5t-139 52.5t-139 -52.5t-57 -152.5v-228q0 -17 -12 -29t-29 -12t-29 12t-12 29v726q0 17 12 29t29 12t29 -12t12 -29z
M31 678q0 15 10.5 25t24.5 10h245q15 0 25 -10t10 -25q0 -14 -10 -24.5t-25 -10.5h-245q-14 0 -24.5 10.5t-10.5 24.5z" />
    <glyph glyph-name="Itilde" unicode="&#x128;" horiz-adv-x="262" 
d="M90 41v726q0 17 12 29t29 12t29 -12t12 -29v-726q0 -17 -12 -29t-29 -12t-29 12t-12 29zM150 860l-69 39q-10 6 -19 6q-29 0 -34 -32q-2 -13 -11.5 -21.5t-22.5 -8.5q-14 0 -23 9.5t-9 22.5q0 39 30.5 67t69.5 28q29 0 51 -13l69 -39q10 -6 19 -6q29 0 34 32
q2 13 11.5 21.5t22.5 8.5q14 0 23 -9.5t9 -22.5q0 -39 -30.5 -67t-69.5 -28q-29 0 -51 13zM150 860l-69 39q-10 6 -19 6q-29 0 -34 -32q-2 -13 -11.5 -21.5t-22.5 -8.5q-14 0 -23 9.5t-9 22.5q0 39 30.5 67t69.5 28q29 0 51 -13l69 -39q10 -6 19 -6q29 0 34 32
q2 13 11.5 21.5t22.5 8.5q14 0 23 -9.5t9 -22.5q0 -39 -30.5 -67t-69.5 -28q-29 0 -51 13z" />
    <glyph glyph-name="itilde" unicode="&#x129;" horiz-adv-x="306" 
d="M77 223v273q0 17 12 29t29 12t29 -12t12 -29v-268q0 -50 26.5 -97t69.5 -75q19 -12 19 -35q0 -16 -11.5 -28.5t-28.5 -12.5q-25 0 -56.5 30t-53.5 64q-47 74 -47 149zM134 629l-69 39q-11 6 -19 6q-29 0 -34 -32q-2 -13 -11.5 -21.5t-22.5 -8.5q-14 0 -23 9.5t-9 22.5
q0 39 30.5 67t69.5 28q29 0 51 -13l69 -39q11 -6 19 -6q29 0 34 32q2 13 11.5 21.5t22.5 8.5q14 0 23 -9.5t9 -22.5q0 -39 -30.5 -67t-69.5 -28q-29 0 -51 13zM134 629l-69 39q-11 6 -19 6q-29 0 -34 -32q-2 -13 -11.5 -21.5t-22.5 -8.5q-14 0 -23 9.5t-9 22.5q0 39 30.5 67
t69.5 28q29 0 51 -13l69 -39q11 -6 19 -6q29 0 34 32q2 13 11.5 21.5t22.5 8.5q14 0 23 -9.5t9 -22.5q0 -39 -30.5 -67t-69.5 -28q-29 0 -51 13z" />
    <glyph glyph-name="Imacron" unicode="&#x12a;" horiz-adv-x="262" 
d="M90 41v726q0 17 12 29t29 12t29 -12t12 -29v-726q0 -17 -12 -29t-29 -12t-29 12t-12 29zM-27 885q0 15 10.5 25t24.5 10h245q15 0 25 -10t10 -25q0 -14 -10 -24.5t-25 -10.5h-245q-14 0 -24.5 10.5t-10.5 24.5z" />
    <glyph glyph-name="imacron" unicode="&#x12b;" horiz-adv-x="306" 
d="M77 223v273q0 17 12 29t29 12t29 -12t12 -29v-268q0 -50 26.5 -97t69.5 -75q19 -12 19 -35q0 -16 -11.5 -28.5t-28.5 -12.5q-25 0 -56.5 30t-53.5 64q-47 74 -47 149zM-34 677q0 15 10.5 25t24.5 10h245q15 0 25 -10t10 -25q0 -14 -10 -24.5t-25 -10.5h-245
q-14 0 -24.5 10.5t-10.5 24.5z" />
    <glyph glyph-name="Ibreve" unicode="&#x12c;" horiz-adv-x="262" 
d="M90 41v726q0 17 12 29t29 12t29 -12t12 -29v-726q0 -17 -12 -29t-29 -12t-29 12t-12 29zM4 958l107 -54q8 -5 16 -5t16 5l107 54q6 3 13 3q15 0 25.5 -10t10.5 -27q0 -27 -23 -33l-142 -39q-7 -1 -14 0l-141 39q-24 6 -24 33q0 17 10.5 27t25.5 10q7 0 13 -3z" />
    <glyph glyph-name="ibreve" unicode="&#x12d;" horiz-adv-x="306" 
d="M77 223v273q0 17 12 29t29 12t29 -12t12 -29v-268q0 -50 26.5 -97t69.5 -75q19 -12 19 -35q0 -16 -11.5 -28.5t-28.5 -12.5q-25 0 -56.5 30t-53.5 64q-47 74 -47 149zM-6 729l107 -54q8 -5 16 -5t16 5l107 54q6 3 13 3q15 0 25.5 -10t10.5 -27q0 -27 -23 -33l-142 -39
q-7 -1 -14 0l-141 39q-24 6 -24 33q0 17 10.5 27t25.5 10q7 0 13 -3z" />
    <glyph glyph-name="Iogonek" unicode="&#x12e;" horiz-adv-x="262" 
d="M110 60v103q0 13 9 22t22 9t22 -9t9 -22v-129q0 -26 -28 -32t-28 -29q0 -12 6 -18q7 -7 20 -7q16 0 25 14q8 14 25 14q12 0 20.5 -8.5t8.5 -20.5q0 -11 -4 -15q-27 -44 -75 -44q-38 0 -62 26q-25 25 -25 59q0 51 46 75q9 4 9 12zM90 41v726q0 17 12 29t29 12t29 -12
t12 -29v-726q0 -17 -12 -29t-29 -12t-29 12t-12 29z" />
    <glyph glyph-name="iogonek" unicode="&#x12f;" horiz-adv-x="306" 
d="M207 39q18 18 31 18t22 -9t9 -22v-13q0 -26 -28 -32t-28 -29q0 -12 6 -18q7 -7 20 -7q16 0 25 14q8 14 25 14q12 0 20.5 -8.5t8.5 -20.5q0 -11 -4 -15q-27 -44 -75 -44q-38 0 -62 26q-25 25 -25 59q0 51 46 75q9 5 9 12zM77 223v273q0 17 12 29t29 12t29 -12t12 -29v-268
q0 -50 26.5 -97t69.5 -75q19 -12 19 -35q0 -16 -11.5 -28.5t-28.5 -12.5q-25 0 -56.5 30t-53.5 64q-47 74 -47 149zM77 671q0 16 10.5 28t30.5 12t30.5 -12t10.5 -28t-10.5 -27.5t-30.5 -11.5t-30.5 11.5t-10.5 27.5z" />
    <glyph glyph-name="Idotaccent" unicode="&#x130;" horiz-adv-x="262" 
d="M90 41v726q0 17 12 29t29 12t29 -12t12 -29v-726q0 -17 -12 -29t-29 -12t-29 12t-12 29zM90 888q0 16 10.5 27.5t30.5 11.5t30.5 -11.5t10.5 -27.5t-10.5 -27.5t-30.5 -11.5t-30.5 11.5t-10.5 27.5z" />
    <glyph glyph-name="dotlessi" unicode="&#x131;" horiz-adv-x="306" 
d="M77 223v273q0 17 12 29t29 12t29 -12t12 -29v-268q0 -50 26.5 -97t69.5 -75q19 -12 19 -35q0 -16 -11.5 -28.5t-28.5 -12.5q-25 0 -56.5 30t-53.5 64q-47 74 -47 149z" />
    <glyph glyph-name="IJ" unicode="&#x132;" horiz-adv-x="714" 
d="M90 41v726q0 17 12 29t29 12t29 -12t12 -29v-726q0 -17 -12 -29t-29 -12t-29 12t-12 29zM557 767v-498q0 -137 -83 -212.5t-195 -75.5q-17 0 -29 12t-12 29t12 29t29 12q81 0 138.5 53t57.5 153v498q0 17 12 29t29 12t29 -12t12 -29z" />
    <glyph glyph-name="ij" unicode="&#x133;" horiz-adv-x="532" 
d="M77 223v273q0 17 12 29t29 12t29 -12t12 -29v-268q0 -50 26.5 -97t69.5 -75q19 -12 19 -35q0 -16 -11.5 -28.5t-28.5 -12.5q-25 0 -56.5 30t-53.5 64q-47 74 -47 149zM77 671q0 16 10.5 28t30.5 12t30.5 -12t10.5 -28t-10.5 -27.5t-30.5 -11.5t-30.5 11.5t-10.5 27.5z
M373 673q0 16 10.5 27.5t30.5 11.5t30.5 -11.5t10.5 -27.5t-10.5 -27.5t-30.5 -11.5t-30.5 11.5t-10.5 27.5zM455 496v-478q0 -137 -83 -212.5t-195 -75.5q-17 0 -29 12t-12 29t12 29t29 12q82 0 139 53t57 153v478q0 17 12 29t29 12t29 -12t12 -29z" />
    <glyph glyph-name="Jcircumflex" unicode="&#x134;" horiz-adv-x="508" 
d="M351 767v-498q0 -137 -83 -212.5t-195 -75.5q-17 0 -29 12t-12 29t12 29t29 12q81 0 138.5 53t57.5 153v498q0 17 12 29t29 12t29 -12t12 -29zM495 870q-44 27 -104 27q-57 0 -105 -27q-4 -3 -12 -3q-25 0 -25 25q0 11 9 20q62 55 133 55q62 0 132 -55q10 -7 10 -20
q0 -25 -25 -25q-7 0 -13 3z" />
    <glyph glyph-name="jcircumflex" unicode="&#x135;" horiz-adv-x="319" 
d="M216 496v-478q0 -137 -83 -212.5t-195 -75.5q-17 0 -29 12t-12 29t12 29t29 12q82 0 139 53t57 153v478q0 17 12 29t29 12t29 -12t12 -29zM280 631q-44 27 -104 27q-57 0 -105 -27q-5 -3 -12 -3q-25 0 -25 25q0 11 9 20q62 55 133 55q62 0 132 -55q10 -7 10 -20
q0 -25 -25 -25q-7 0 -13 3z" />
    <glyph glyph-name="Kcommaaccent" unicode="&#x136;" horiz-adv-x="709" 
d="M446 539q88 -24 144 -94.5t56 -182.5v-221q0 -17 -12 -29t-29 -12t-29 12t-12 29v221q0 100 -57 152.5t-139 52.5t-139 -52.5t-57 -152.5v-221q0 -17 -12 -29t-29 -12t-29 12t-12 29v725q0 17 12 29t29 12t29 -12t12 -29v-242q0 -10 7 -17.5t18 -7.5q5 0 13 5
q38 22 84 36q14 3 24 16l169 235q12 17 34 17q13 0 23 -7q18 -12 18 -33q0 -13 -8 -24l-121 -167q-5 -8 -5 -15q0 -18 18 -23zM397 -103l-30 -141q-5 -20 -22 -18q-18 3 -18 22v144q0 15 12 24t27 7t24.5 -13t6.5 -25z" />
    <glyph glyph-name="kcommaaccent" unicode="&#x137;" horiz-adv-x="704" 
d="M446 371q88 -24 144 -94.5t56 -182.5v-53q0 -17 -12 -29t-29 -12t-29 12t-12 29v53q0 100 -57 152.5t-139 52.5t-139 -52.5t-57 -152.5v-53q0 -17 -12 -29t-29 -12t-29 12t-12 29v726q0 17 12 29t29 12t29 -12t12 -29v-411q0 -10 7 -17.5t18 -7.5q5 0 13 5q38 22 84 36
q14 3 24 16l105 152q12 17 34 17q17 0 29 -12t12 -28q0 -13 -8 -24l-57 -84q-5 -8 -5 -15q0 -18 18 -23zM385 -101l-30 -141q-5 -20 -22 -18q-18 3 -18 22v144q0 15 12 24t27 7t24.5 -13t6.5 -25z" />
    <glyph glyph-name="kgreenlandic" unicode="&#x138;" horiz-adv-x="704" 
d="M446 371q88 -24 144 -94.5t56 -182.5v-53q0 -17 -12 -29t-29 -12t-29 12t-12 29v53q0 100 -57 152.5t-139 52.5t-139 -52.5t-57 -152.5v-53q0 -17 -12 -29t-29 -12t-29 12t-12 29v456q0 17 12 29t29 12t29 -12t12 -29v-141q0 -10 7 -17.5t18 -7.5q5 0 13 5q38 22 84 36
q14 3 24 16l90 132q12 17 34 17q17 0 29 -12t12 -28q0 -13 -8 -24l-42 -64q-5 -8 -5 -15q0 -18 18 -23z" />
    <glyph glyph-name="Lacute" unicode="&#x139;" horiz-adv-x="508" 
d="M77 269v498q0 17 12 29t29 12t29 -12t12 -29v-498q0 -100 57.5 -153t138.5 -53q17 0 29 -12t12 -29t-12 -29t-29 -12q-112 0 -195 75.5t-83 212.5zM119 896l129 64q6 3 13 3q13 0 23.5 -11t10.5 -26q0 -26 -23 -32l-139 -35q-12 -3 -19.5 2.5t-7.5 15.5q0 13 13 19z" />
    <glyph glyph-name="lacute" unicode="&#x13a;" horiz-adv-x="428" 
d="M77 268v498q0 17 12 29t29 12t29 -12t12 -29v-498q0 -100 57.5 -153t138.5 -53q17 0 29 -12t12 -29t-12 -29t-29 -12q-112 0 -195 75.5t-83 212.5zM112 889l129 64q6 3 13 3q13 0 23.5 -11t10.5 -26q0 -26 -23 -32l-139 -35q-12 -3 -19.5 2.5t-7.5 15.5q0 13 13 19z" />
    <glyph glyph-name="Lcommaaccent" unicode="&#x13b;" horiz-adv-x="508" 
d="M77 269v498q0 17 12 29t29 12t29 -12t12 -29v-498q0 -100 57.5 -153t138.5 -53q17 0 29 -12t12 -29t-12 -29t-29 -12q-112 0 -195 75.5t-83 212.5zM382 -104l-30 -141q-5 -20 -22 -18q-18 3 -18 22v144q0 15 12 24t27 7t24.5 -13t6.5 -25z" />
    <glyph glyph-name="lcommaaccent" unicode="&#x13c;" horiz-adv-x="428" 
d="M77 268v498q0 17 12 29t29 12t29 -12t12 -29v-498q0 -100 57.5 -153t138.5 -53q17 0 29 -12t12 -29t-12 -29t-29 -12q-112 0 -195 75.5t-83 212.5zM378 -101l-30 -141q-5 -20 -22 -18q-18 3 -18 22v144q0 15 12 24t27 7t24.5 -13t6.5 -25z" />
    <glyph glyph-name="Lcaron" unicode="&#x13d;" horiz-adv-x="508" 
d="M77 269v498q0 17 12 29t29 12t29 -12t12 -29v-498q0 -100 57.5 -153t138.5 -53q17 0 29 -12t12 -29t-12 -29t-29 -12q-112 0 -195 75.5t-83 212.5zM168 1010l-31 -144q-5 -18 -22 -17t-17 22v145q0 15 11.5 23.5t26.5 6.5q16 -2 25.5 -12t6.5 -24z" />
    <glyph glyph-name="lcaron" unicode="&#x13e;" horiz-adv-x="428" 
d="M77 268v498q0 17 12 29t29 12t29 -12t12 -29v-498q0 -100 57.5 -153t138.5 -53q17 0 29 -12t12 -29t-12 -29t-29 -12q-112 0 -195 75.5t-83 212.5zM391 771l-31 -144q-5 -18 -22 -17t-17 22v145q0 15 11.5 23.5t26.5 6.5q16 -2 25.5 -12t6.5 -24z" />
    <glyph glyph-name="Ldot" unicode="&#x13f;" horiz-adv-x="508" 
d="M77 269v498q0 17 12 29t29 12t29 -12t12 -29v-498q0 -100 57.5 -153t138.5 -53q17 0 29 -12t12 -29t-12 -29t-29 -12q-112 0 -195 75.5t-83 212.5zM365 266q0 16 10.5 27.5t30.5 11.5t30.5 -11.5t10.5 -27.5t-10.5 -27.5t-30.5 -11.5t-30.5 11.5t-10.5 27.5z" />
    <glyph glyph-name="ldot" unicode="&#x140;" horiz-adv-x="429" 
d="M77 268v498q0 17 12 29t29 12t29 -12t12 -29v-498q0 -100 57.5 -153t138.5 -53q17 0 29 -12t12 -29t-12 -29t-29 -12q-112 0 -195 75.5t-83 212.5zM373 269q0 16 10.5 27.5t30.5 11.5t30.5 -11.5t10.5 -27.5t-10.5 -27.5t-30.5 -11.5t-30.5 11.5t-10.5 27.5z" />
    <glyph glyph-name="Lslash" unicode="&#x141;" horiz-adv-x="589" 
d="M158 268v176q0 4 -3 5.5t-6 -0.5l-83 -55q-9 -6 -19 -6q-14 0 -24.5 10t-10.5 25q0 19 15 29l115 78q16 10 16 29v199q0 17 12 29t29 12t29 -12t12 -29v-152q0 -6 6 -6q2 0 3 1l90 60q8 5 19 5q15 0 25 -9.5t10 -24.5q0 -18 -15 -29l-123 -83q-15 -9 -15 -29v-223
q0 -100 57 -152.5t139 -52.5q46 0 87 18q7 4 17 4q17 0 29 -12t12 -29q0 -33 -47.5 -48t-97.5 -15q-112 0 -195 75t-83 212z" />
    <glyph glyph-name="lslash" unicode="&#x142;" horiz-adv-x="511" 
d="M221 528v-277q0 -84 61 -136.5t141 -52.5q3 0 9 0.5t10 0.5q21 0 33 -11.5t12 -29.5q0 -26 -17 -34t-46 -8q-111 0 -198 74.5t-87 193.5v225l-72 -48q-9 -6 -20 -6q-15 0 -25 9.5t-10 24.5q0 20 16 30l111 74v209q0 17 12 29t29 12t29 -12t12 -29v-153l76 51q9 6 19 6
q14 0 24.5 -10.5t10.5 -24.5q0 -19 -15 -29z" />
    <glyph glyph-name="Nacute" unicode="&#x143;" 
d="M159 521v-480q0 -17 -12 -29t-29 -12t-29 12t-12 29v479q0 137 83 212.5t195 75.5q113 0 195.5 -75t82.5 -212v-480q0 -17 -12 -29t-29 -12t-29 12t-12 29v478q0 102 -57 154.5t-139 52.5t-139 -52.5t-57 -152.5zM351 889l129 64q6 3 13 3q13 0 23.5 -11t10.5 -26
q0 -26 -23 -32l-139 -35q-12 -3 -19.5 2.5t-7.5 15.5q0 13 13 19z" />
    <glyph glyph-name="nacute" unicode="&#x144;" horiz-adv-x="723" 
d="M633 268v-227q0 -17 -12 -29t-29 -12t-28.5 12t-11.5 29v227q0 100 -58 153t-139 53t-138.5 -53t-57.5 -153v-227q0 -17 -12 -29t-29 -12t-29 12t-12 29v227q0 137 83 212.5t195 75.5t195 -75.5t83 -212.5zM399 663l129 64q6 3 13 3q13 0 23.5 -11t10.5 -26
q0 -26 -23 -32l-139 -35q-12 -3 -19.5 2.5t-7.5 15.5q0 13 13 19z" />
    <glyph glyph-name="Ncommaaccent" unicode="&#x145;" 
d="M159 521v-480q0 -17 -12 -29t-29 -12t-29 12t-12 29v479q0 137 83 212.5t195 75.5q113 0 195.5 -75t82.5 -212v-480q0 -17 -12 -29t-29 -12t-29 12t-12 29v478q0 102 -57 154.5t-139 52.5t-139 -52.5t-57 -152.5zM388 -101l-30 -141q-5 -20 -22 -18q-18 3 -18 22v144
q0 15 12 24t27 7t24.5 -13t6.5 -25z" />
    <glyph glyph-name="ncommaaccent" unicode="&#x146;" horiz-adv-x="723" 
d="M633 268v-227q0 -17 -12 -29t-29 -12t-28.5 12t-11.5 29v227q0 100 -58 153t-139 53t-138.5 -53t-57.5 -153v-227q0 -17 -12 -29t-29 -12t-29 12t-12 29v227q0 137 83 212.5t195 75.5t195 -75.5t83 -212.5zM434 -103l-30 -141q-5 -20 -22 -18q-18 3 -18 22v144
q0 15 12 24t27 7t24.5 -13t6.5 -25z" />
    <glyph glyph-name="Ncaron" unicode="&#x147;" 
d="M159 521v-480q0 -17 -12 -29t-29 -12t-29 12t-12 29v479q0 137 83 212.5t195 75.5q113 0 195.5 -75t82.5 -212v-480q0 -17 -12 -29t-29 -12t-29 12t-12 29v478q0 102 -57 154.5t-139 52.5t-139 -52.5t-57 -152.5zM459 946q6 3 13 3q25 0 25 -25q0 -13 -10 -20
q-70 -55 -132 -55q-63 0 -133 55q-9 9 -9 20q0 25 25 25q8 0 12 -3q48 -27 105 -27q62 0 104 27z" />
    <glyph glyph-name="ncaron" unicode="&#x148;" horiz-adv-x="723" 
d="M633 268v-227q0 -17 -12 -29t-29 -12t-28.5 12t-11.5 29v227q0 100 -58 153t-139 53t-138.5 -53t-57.5 -153v-227q0 -17 -12 -29t-29 -12t-29 12t-12 29v227q0 137 83 212.5t195 75.5t195 -75.5t83 -212.5zM471 724q6 3 13 3q25 0 25 -25q0 -13 -10 -20q-70 -55 -132 -55
q-63 0 -133 55q-9 9 -9 20q0 25 25 25q8 0 12 -3q48 -27 105 -27q62 0 104 27z" />
    <glyph glyph-name="napostrophe" unicode="&#x149;" horiz-adv-x="724" 
d="M633 268v-227q0 -17 -12 -29t-29 -12t-28.5 12t-11.5 29v227q0 100 -58 153t-139 53t-138.5 -53t-57.5 -153v-227q0 -17 -12 -29t-29 -12t-29 12t-12 29v227q0 137 83 212.5t195 75.5t195 -75.5t83 -212.5zM644 737l-30 -141q-5 -20 -22 -18q-18 3 -18 22v144q0 15 12 24
t27 7t24.5 -13t6.5 -25z" />
    <glyph glyph-name="Eng" unicode="&#x14a;" horiz-adv-x="723" 
d="M159 521v-480q0 -17 -12 -29t-29 -12t-29 12t-12 29v480q0 137 83 212t195 75q108 0 189.5 -70t87.5 -197q1 -1 1 -6v-538q0 -118 -87 -193t-199 -75q-62 0 -62 42q0 18 12 29.5t33 11.5q99 -1 157 50q64 54 64 138v520q0 101 -57 153.5t-139 52.5t-139 -52.5t-57 -152.5
z" />
    <glyph glyph-name="eng" unicode="&#x14b;" horiz-adv-x="716" 
d="M167 514q8 -14 22 -14q7 0 15 5q74 50 164 50q113 0 195.5 -75t82.5 -212v-271q0 -118 -87 -193t-199 -75q-62 0 -62 42q0 18 12 29.5t33 11.5q99 -1 157 50q64 54 64 138v267q0 101 -57 153.5t-139 52.5q-80 0 -138 -52.5t-58 -151.5v-229q0 -17 -12 -29t-29 -12t-29 12
t-12 29v455q0 17 12 29t29 12q26 0 36 -22z" />
    <glyph glyph-name="Omacron" unicode="&#x14c;" horiz-adv-x="919" 
d="M142 393q0 -82 27 -147t72.5 -104t101.5 -59.5t117 -20.5t116.5 20.5t101 59.5t72.5 104t27 147t-27 147.5t-72 104.5t-100.5 59.5t-117.5 20.5t-117.5 -20.5t-101 -59.5t-72.5 -104.5t-27 -147.5zM460 -20q-75 0 -145.5 26t-128 75t-92 130t-34.5 182t34.5 182.5
t91.5 130.5t127.5 75t146.5 26t146 -26t127 -75t91.5 -130.5t34.5 -182.5t-34.5 -182t-92 -130t-127.5 -75t-145 -26zM302 885q0 15 10.5 25t24.5 10h245q15 0 25 -10t10 -25q0 -14 -10 -24.5t-25 -10.5h-245q-14 0 -24.5 10.5t-10.5 24.5z" />
    <glyph glyph-name="omacron" unicode="&#x14d;" horiz-adv-x="676" 
d="M338 -20q-112 0 -195 75.5t-83 212.5t82.5 212t195.5 75q53 0 102 -18t89 -52t63.5 -90.5t23.5 -126.5q0 -137 -83 -212.5t-195 -75.5zM338 62q82 0 139 53t57 153t-57 152.5t-139 52.5t-139 -52.5t-57 -152.5t57.5 -153t138.5 -53zM184 676q0 15 10.5 25t24.5 10h245
q15 0 25 -10t10 -25q0 -14 -10 -24.5t-25 -10.5h-245q-14 0 -24.5 10.5t-10.5 24.5z" />
    <glyph glyph-name="Obreve" unicode="&#x14e;" horiz-adv-x="919" 
d="M142 393q0 -82 27 -147t72.5 -104t101.5 -59.5t117 -20.5t116.5 20.5t101 59.5t72.5 104t27 147t-27 147.5t-72 104.5t-100.5 59.5t-117.5 20.5t-117.5 -20.5t-101 -59.5t-72.5 -104.5t-27 -147.5zM460 -20q-75 0 -145.5 26t-128 75t-92 130t-34.5 182t34.5 182.5
t91.5 130.5t127.5 75t146.5 26t146 -26t127 -75t91.5 -130.5t34.5 -182.5t-34.5 -182t-92 -130t-127.5 -75t-145 -26zM346 957l107 -54q8 -5 16 -5t16 5l107 54q6 3 13 3q15 0 25.5 -10t10.5 -27q0 -27 -23 -33l-142 -39q-7 -1 -14 0l-141 39q-24 6 -24 33q0 17 10.5 27
t25.5 10q7 0 13 -3z" />
    <glyph glyph-name="obreve" unicode="&#x14f;" horiz-adv-x="676" 
d="M338 -20q-112 0 -195 75.5t-83 212.5t82.5 212t195.5 75q53 0 102 -18t89 -52t63.5 -90.5t23.5 -126.5q0 -137 -83 -212.5t-195 -75.5zM338 62q82 0 139 53t57 153t-57 152.5t-139 52.5t-139 -52.5t-57 -152.5t57.5 -153t138.5 -53zM211 729l107 -54q8 -5 16 -5t16 5
l107 54q6 3 13 3q15 0 25.5 -10t10.5 -27q0 -27 -23 -33l-142 -39q-7 -1 -14 0l-141 39q-24 6 -24 33q0 17 10.5 27t25.5 10q7 0 13 -3z" />
    <glyph glyph-name="Ohungarumlaut" unicode="&#x150;" horiz-adv-x="919" 
d="M142 393q0 -82 27 -147t72.5 -104t101.5 -59.5t117 -20.5t116.5 20.5t101 59.5t72.5 104t27 147t-27 147.5t-72 104.5t-100.5 59.5t-117.5 20.5t-117.5 -20.5t-101 -59.5t-72.5 -104.5t-27 -147.5zM460 -20q-75 0 -145.5 26t-128 75t-92 130t-34.5 182t34.5 182.5
t91.5 130.5t127.5 75t146.5 26t146 -26t127 -75t91.5 -130.5t34.5 -182.5t-34.5 -182t-92 -130t-127.5 -75t-145 -26zM407 993q10 28 43 28q20 0 27.5 -8.5t-2.5 -30.5l-81 -123q-6 -9 -14 -9q-12 0 -12 12q0 9 39 131zM542 993q10 28 43 28q20 0 27.5 -8.5t-2.5 -30.5
l-81 -123q-6 -9 -14 -9q-12 0 -12 12q0 9 39 131z" />
    <glyph glyph-name="ohungarumlaut" unicode="&#x151;" horiz-adv-x="676" 
d="M338 -20q-112 0 -195 75.5t-83 212.5t82.5 212t195.5 75q53 0 102 -18t89 -52t63.5 -90.5t23.5 -126.5q0 -137 -83 -212.5t-195 -75.5zM338 62q82 0 139 53t57 153t-57 152.5t-139 52.5t-139 -52.5t-57 -152.5t57.5 -153t138.5 -53zM281 733q10 28 43 28q20 0 27.5 -8.5
t-2.5 -30.5l-81 -123q-6 -9 -14 -9q-12 0 -12 12q0 9 39 131zM416 733q10 28 43 28q20 0 27.5 -8.5t-2.5 -30.5l-81 -123q-6 -9 -14 -9q-12 0 -12 12q0 9 39 131z" />
    <glyph glyph-name="OE" unicode="&#x152;" horiz-adv-x="1013" 
d="M545 268v252q0 84 38 155q3 5 3 11q0 15 -17 23q-47 16 -106 16q-62 0 -117.5 -20.5t-101 -59.5t-72.5 -104t-27 -147t27 -147.5t72.5 -104.5t101.5 -59.5t117 -20.5q59 0 106 16q17 8 17 24q0 5 -3 10q-38 68 -38 156zM823 354h-155q-17 0 -29 -12t-12 -29v-45
q0 -101 57 -153.5t139 -52.5q42 0 86 18q9 4 17 4q17 0 29 -12t12 -29q0 -27 -24 -38q-51 -25 -120 -25q-83 0 -150 40q-8 5 -15 5q-5 0 -11 -3q-92 -42 -184 -42q-75 0 -145.5 26t-128 75t-92 130.5t-34.5 182.5t34.5 182t92 130t128 75t145.5 26q92 0 184 -42q6 -3 11 -3
q7 0 15 5q64 40 150 40q61 0 121 -26q23 -11 23 -37q0 -17 -12 -29t-29 -12q-8 0 -17 4q-44 18 -86 18q-82 0 -139 -52.5t-57 -152.5v-43q0 -17 12 -29t29 -12h155q17 0 29 -12t12 -29t-12 -29t-29 -12z" />
    <glyph glyph-name="oe" unicode="&#x153;" horiz-adv-x="973" 
d="M341 474q-82 0 -139 -52.5t-57 -153.5q0 -100 57 -152.5t139 -52.5q78 0 137 52t59 143v20q0 95 -58 145.5t-138 50.5zM63 268q0 137 83 212.5t195 75.5q136 0 220 -103q25 49 71 77t106 28q78 0 133.5 -52t55.5 -130t-55 -122t-134 -44h-100q-15 0 -11 -13
q19 -61 74 -98t119 -37q4 0 10 0.5t10 0.5q20 0 32 -11.5t12 -29.5q0 -42 -62 -42q-74 0 -139.5 33.5t-104.5 95.5q-38 -63 -102 -95.5t-135 -32.5q-112 0 -195 75t-83 212zM734 477q-32 0 -55 -12.5t-33.5 -31t-14.5 -32t-4 -23.5v-62q0 -11 7 -18t17 -7h97q8 0 21 3
t31.5 11t31 27t12.5 46q0 51 -35.5 75t-74.5 24z" />
    <glyph glyph-name="Racute" unicode="&#x154;" horiz-adv-x="709" 
d="M368 715h-176q-8 0 -14 -6t-6 -14v-185q0 -100 57 -153t139 -53t139 53t57 153t-57 152.5t-139 52.5zM453 223q12 -57 55.5 -96t104.5 -56q14 -2 23.5 -14t9.5 -26q0 -17 -12.5 -29t-27.5 -12q-54 0 -122 51q-82 60 -108 152q-7 28 -38 31q-57 5 -120 39q-12 6 -22 6
q-24 0 -24 -28v-200q0 -17 -12 -29t-29 -12t-29 12t-12 29v715q0 17 12 29t29 12h237q124 0 201 -81t77 -206q0 -97 -47.5 -170t-136.5 -102q-10 -3 -9 -15zM333 890l129 64q6 3 13 3q13 0 23.5 -11t10.5 -26q0 -26 -23 -32l-139 -35q-12 -3 -19.5 2.5t-7.5 15.5q0 13 13 19
z" />
    <glyph glyph-name="racute" unicode="&#x155;" horiz-adv-x="524" 
d="M159 269v-228q0 -17 -12 -29t-29 -12t-29 12t-12 29v228q0 137 82.5 212t195.5 75q68 0 122 -25q23 -12 23 -37q0 -17 -12 -29t-29 -12q-9 0 -17 3q-40 18 -87 18q-82 0 -139 -52.5t-57 -152.5zM328 663l129 64q6 3 13 3q13 0 23.5 -11t10.5 -26q0 -26 -23 -32l-139 -35
q-12 -3 -19.5 2.5t-7.5 15.5q0 13 13 19z" />
    <glyph glyph-name="Rcommaaccent" unicode="&#x156;" horiz-adv-x="709" 
d="M368 715h-176q-8 0 -14 -6t-6 -14v-185q0 -100 57 -153t139 -53t139 53t57 153t-57 152.5t-139 52.5zM453 223q12 -57 55.5 -96t104.5 -56q14 -2 23.5 -14t9.5 -26q0 -17 -12.5 -29t-27.5 -12q-54 0 -122 51q-82 60 -108 152q-7 28 -38 31q-57 5 -120 39q-12 6 -22 6
q-24 0 -24 -28v-200q0 -17 -12 -29t-29 -12t-29 12t-12 29v715q0 17 12 29t29 12h237q124 0 201 -81t77 -206q0 -97 -47.5 -170t-136.5 -102q-10 -3 -9 -15zM319 -101l-30 -141q-5 -20 -22 -18q-18 3 -18 22v144q0 15 12 24t27 7t24.5 -13t6.5 -25z" />
    <glyph glyph-name="rcommaaccent" unicode="&#x157;" horiz-adv-x="524" 
d="M159 269v-228q0 -17 -12 -29t-29 -12t-29 12t-12 29v228q0 137 82.5 212t195.5 75q68 0 122 -25q23 -12 23 -37q0 -17 -12 -29t-29 -12q-9 0 -17 3q-40 18 -87 18q-82 0 -139 -52.5t-57 -152.5zM390 -101l-30 -141q-5 -20 -22 -18q-18 3 -18 22v144q0 15 12 24t27 7
t24.5 -13t6.5 -25z" />
    <glyph glyph-name="Rcaron" unicode="&#x158;" horiz-adv-x="709" 
d="M368 715h-176q-8 0 -14 -6t-6 -14v-185q0 -100 57 -153t139 -53t139 53t57 153t-57 152.5t-139 52.5zM453 223q12 -57 55.5 -96t104.5 -56q14 -2 23.5 -14t9.5 -26q0 -17 -12.5 -29t-27.5 -12q-54 0 -122 51q-82 60 -108 152q-7 28 -38 31q-57 5 -120 39q-12 6 -22 6
q-24 0 -24 -28v-200q0 -17 -12 -29t-29 -12t-29 12t-12 29v715q0 17 12 29t29 12h237q124 0 201 -81t77 -206q0 -97 -47.5 -170t-136.5 -102q-10 -3 -9 -15zM433 946q6 3 13 3q25 0 25 -25q0 -13 -10 -20q-70 -55 -132 -55q-63 0 -133 55q-9 9 -9 20q0 25 25 25q8 0 12 -3
q48 -27 105 -27q62 0 104 27z" />
    <glyph glyph-name="rcaron" unicode="&#x159;" horiz-adv-x="524" 
d="M159 269v-228q0 -17 -12 -29t-29 -12t-29 12t-12 29v228q0 137 82.5 212t195.5 75q68 0 122 -25q23 -12 23 -37q0 -17 -12 -29t-29 -12q-9 0 -17 3q-40 18 -87 18q-82 0 -139 -52.5t-57 -152.5zM458 724q6 3 13 3q25 0 25 -25q0 -13 -10 -20q-70 -55 -132 -55
q-63 0 -133 55q-9 9 -9 20q0 25 25 25q7 0 12 -3q48 -27 105 -27q62 0 104 27z" />
    <glyph glyph-name="Sacute" unicode="&#x15a;" horiz-adv-x="633" 
d="M374 681q-25 45 -75 45q-35 0 -60 -25t-25 -60t25 -60t60 -25q120 0 204 -84t84 -204q0 -119 -84 -203t-204 -84q-87 0 -159.5 48t-104.5 126q-3 7 -3 16q0 17 12 29t29 12q26 0 38 -25q24 -55 75 -89.5t113 -34.5q86 0 146 60t60 145q0 86 -60 146t-146 60
q-69 0 -118 49t-49 118t49 118t118 49q47 0 86 -23.5t61 -63.5q5 -13 5 -20q0 -17 -12 -29t-29 -12q-24 0 -36 21zM297 889l129 64q6 3 13 3q13 0 23.5 -11t10.5 -26q0 -26 -23 -32l-139 -35q-12 -3 -19.5 2.5t-7.5 15.5q0 13 13 19z" />
    <glyph glyph-name="sacute" unicode="&#x15b;" horiz-adv-x="575" 
d="M454 508q26 -18 26 -38t-11 -30.5t-29 -10.5q-16 0 -30 9q-59 38 -113 38q-126 0 -126 -71q0 -65 132 -65q209 0 209 -167q0 -193 -221 -193q-169 0 -240 135q-5 15 -5 21q0 17 11.5 28.5t29.5 11.5q12 0 20.5 -5.5t20 -21t12.5 -16.5q63 -74 152 -74q138 0 138 109
q0 92 -136 92q-206 0 -206 145q0 151 210 150q90 -2 156 -47zM285 663l129 64q6 3 13 3q13 0 23.5 -11t10.5 -26q0 -26 -23 -32l-139 -35q-12 -3 -19.5 2.5t-7.5 15.5q0 13 13 19z" />
    <glyph glyph-name="Scircumflex" unicode="&#x15c;" horiz-adv-x="633" 
d="M374 681q-25 45 -75 45q-35 0 -60 -25t-25 -60t25 -60t60 -25q120 0 204 -84t84 -204q0 -119 -84 -203t-204 -84q-87 0 -159.5 48t-104.5 126q-3 7 -3 16q0 17 12 29t29 12q26 0 38 -25q24 -55 75 -89.5t113 -34.5q86 0 146 60t60 145q0 86 -60 146t-146 60
q-69 0 -118 49t-49 118t49 118t118 49q47 0 86 -23.5t61 -63.5q5 -13 5 -20q0 -17 -12 -29t-29 -12q-24 0 -36 21zM402 852q-44 27 -104 27q-57 0 -105 -27q-5 -3 -12 -3q-25 0 -25 25q0 11 9 20q62 55 133 55q62 0 132 -55q10 -7 10 -20q0 -25 -25 -25q-7 0 -13 3z" />
    <glyph glyph-name="scircumflex" unicode="&#x15d;" horiz-adv-x="575" 
d="M454 508q26 -18 26 -38t-11 -30.5t-29 -10.5q-16 0 -30 9q-59 38 -113 38q-126 0 -126 -71q0 -65 132 -65q209 0 209 -167q0 -193 -221 -193q-169 0 -240 135q-5 15 -5 21q0 17 11.5 28.5t29.5 11.5q12 0 20.5 -5.5t20 -21t12.5 -16.5q63 -74 152 -74q138 0 138 109
q0 92 -136 92q-206 0 -206 145q0 151 210 150q90 -2 156 -47zM389 632q-44 27 -104 27q-57 0 -105 -27q-4 -3 -12 -3q-25 0 -25 25q0 11 9 20q62 55 133 55q62 0 132 -55q10 -7 10 -20q0 -25 -25 -25q-7 0 -13 3z" />
    <glyph glyph-name="Scedilla" unicode="&#x15e;" horiz-adv-x="633" 
d="M374 681q-25 45 -75 45q-35 0 -60 -25t-25 -60t25 -60t60 -25q120 0 204 -84t84 -204q0 -119 -84 -203t-204 -84q-87 0 -159.5 48t-104.5 126q-3 7 -3 16q0 17 12 29t29 12q26 0 38 -25q24 -55 75 -89.5t113 -34.5q86 0 146 60t60 145q0 86 -60 146t-146 60
q-69 0 -118 49t-49 118t49 118t118 49q47 0 86 -23.5t61 -63.5q5 -13 5 -20q0 -17 -12 -29t-29 -12q-24 0 -36 21zM325 5v-104q0 -7 9 -12q46 -24 46 -75q0 -34 -25 -59.5t-62 -25.5q-25 0 -52 17t-27 42q0 12 8.5 20.5t20.5 8.5t25 -15t25 -13q24 1 27 25q0 12 -9 19
t-19.5 9.5t-19.5 11t-9 21.5v130q0 13 9 22t22 9t22 -9t9 -22z" />
    <glyph glyph-name="scedilla" unicode="&#x15f;" horiz-adv-x="575" 
d="M454 508q26 -18 26 -38t-11 -30.5t-29 -10.5q-16 0 -30 9q-59 38 -113 38q-126 0 -126 -71q0 -65 132 -65q209 0 209 -167q0 -193 -221 -193q-169 0 -240 135q-5 15 -5 21q0 17 11.5 28.5t29.5 11.5q12 0 20.5 -5.5t20 -21t12.5 -16.5q63 -74 152 -74q138 0 138 109
q0 92 -136 92q-206 0 -206 145q0 151 210 150q90 -2 156 -47zM327 5v-104q0 -7 9 -12q46 -24 46 -75q0 -34 -25 -59.5t-62 -25.5q-25 0 -52 17t-27 42q0 12 8.5 20.5t20.5 8.5t25 -15t25 -13q24 1 27 25q0 12 -9 19t-19.5 9.5t-19.5 11t-9 21.5v130q0 13 9 22t22 9t22 -9
t9 -22z" />
    <glyph glyph-name="Scaron" unicode="&#x160;" horiz-adv-x="633" 
d="M374 681q-25 45 -75 45q-35 0 -60 -25t-25 -60t25 -60t60 -25q120 0 204 -84t84 -204q0 -119 -84 -203t-204 -84q-87 0 -159.5 48t-104.5 126q-3 7 -3 16q0 17 12 29t29 12q26 0 38 -25q24 -55 75 -89.5t113 -34.5q86 0 146 60t60 145q0 86 -60 146t-146 60
q-69 0 -118 49t-49 118t49 118t118 49q47 0 86 -23.5t61 -63.5q5 -13 5 -20q0 -17 -12 -29t-29 -12q-24 0 -36 21zM401 946q6 3 13 3q25 0 25 -25q0 -13 -10 -20q-70 -55 -132 -55q-63 0 -133 55q-9 9 -9 20q0 25 25 25q8 0 12 -3q48 -27 105 -27q62 0 104 27z" />
    <glyph glyph-name="scaron" unicode="&#x161;" horiz-adv-x="575" 
d="M454 508q26 -18 26 -38t-11 -30.5t-29 -10.5q-16 0 -30 9q-59 38 -113 38q-126 0 -126 -71q0 -65 132 -65q209 0 209 -167q0 -193 -221 -193q-169 0 -240 135q-5 15 -5 21q0 17 11.5 28.5t29.5 11.5q12 0 20.5 -5.5t20 -21t12.5 -16.5q63 -74 152 -74q138 0 138 109
q0 92 -136 92q-206 0 -206 145q0 151 210 150q90 -2 156 -47zM389 724q6 3 13 3q25 0 25 -25q0 -13 -10 -20q-70 -55 -132 -55q-63 0 -133 55q-9 9 -9 20q0 25 25 25q8 0 12 -3q48 -27 105 -27q62 0 104 27z" />
    <glyph glyph-name="Tcommaaccent" unicode="&#x162;" horiz-adv-x="508" 
d="M295 680v-639q0 -17 -12 -29t-29 -12t-29 12t-12 29v639q0 14 -10.5 24.5t-24.5 10.5h-129q-17 0 -29 12t-12 29t12 29t29 12h410q17 0 29 -12t12 -29t-12 -29t-29 -12h-129q-14 0 -24.5 -10.5t-10.5 -24.5zM293 -101l-30 -141q-5 -20 -22 -18q-18 3 -18 22v144
q0 15 12 24t27 7t24.5 -13t6.5 -25z" />
    <glyph glyph-name="tcommaaccent" unicode="&#x163;" horiz-adv-x="463" 
d="M194 431v-163q0 -100 57 -153t139 -53q17 0 29 -12t12 -29t-12 -29t-29 -12q-112 0 -195 75.5t-83 212.5v163q0 15 -10.5 25t-24.5 10h-34q-14 0 -24.5 10.5t-10.5 24.5q0 15 10.5 25t24.5 10h34q14 0 24.5 10.5t10.5 24.5v196q0 17 12 29t29 12t29 -12t12 -29v-196
q0 -14 10.5 -24.5t24.5 -10.5h123q14 0 24.5 -10t10.5 -25q0 -14 -10.5 -24.5t-24.5 -10.5h-123q-14 0 -24.5 -10t-10.5 -25zM387 -101l-30 -141q-5 -20 -22 -18q-18 3 -18 22v144q0 15 12 24t27 7t24.5 -13t6.5 -25z" />
    <glyph glyph-name="Tcaron" unicode="&#x164;" horiz-adv-x="508" 
d="M295 680v-639q0 -17 -12 -29t-29 -12t-29 12t-12 29v639q0 14 -10.5 24.5t-24.5 10.5h-129q-17 0 -29 12t-12 29t12 29t29 12h410q17 0 29 -12t12 -29t-12 -29t-29 -12h-129q-14 0 -24.5 -10.5t-10.5 -24.5zM359 946q6 3 13 3q25 0 25 -25q0 -13 -10 -20
q-70 -55 -132 -55q-63 0 -133 55q-9 9 -9 20q0 25 25 25q8 0 12 -3q48 -27 105 -27q62 0 104 27z" />
    <glyph glyph-name="tcaron" unicode="&#x165;" horiz-adv-x="463" 
d="M194 431v-163q0 -100 57 -153t139 -53q17 0 29 -12t12 -29t-12 -29t-29 -12q-112 0 -195 75.5t-83 212.5v163q0 15 -10.5 25t-24.5 10h-34q-14 0 -24.5 10.5t-10.5 24.5q0 15 10.5 25t24.5 10h34q14 0 24.5 10.5t10.5 24.5v196q0 17 12 29t29 12t29 -12t12 -29v-196
q0 -14 10.5 -24.5t24.5 -10.5h123q14 0 24.5 -10t10.5 -25q0 -14 -10.5 -24.5t-24.5 -10.5h-123q-14 0 -24.5 -10t-10.5 -25zM418 769l-31 -144q-5 -18 -22 -17t-17 22v145q0 15 11.5 23.5t26.5 6.5q16 -2 25.5 -12t6.5 -24z" />
    <glyph glyph-name="Tbar" unicode="&#x166;" horiz-adv-x="508" 
d="M295 680v-639q0 -17 -12 -29t-29 -12t-29 12t-12 29v639q0 14 -10.5 24.5t-24.5 10.5h-129q-17 0 -29 12t-12 29t12 29t29 12h410q17 0 29 -12t12 -29t-12 -29t-29 -12h-129q-14 0 -24.5 -10.5t-10.5 -24.5zM96 503q0 15 10.5 25t24.5 10h245q15 0 25 -10t10 -25
q0 -14 -10 -24.5t-25 -10.5h-245q-14 0 -24.5 10.5t-10.5 24.5z" />
    <glyph glyph-name="tbar" unicode="&#x167;" horiz-adv-x="463" 
d="M194 431v-163q0 -100 57 -153t139 -53q17 0 29 -12t12 -29t-12 -29t-29 -12q-112 0 -195 75.5t-83 212.5v163q0 15 -10.5 25t-24.5 10h-34q-14 0 -24.5 10.5t-10.5 24.5q0 15 10.5 25t24.5 10h34q14 0 24.5 10.5t10.5 24.5v196q0 17 12 29t29 12t29 -12t12 -29v-196
q0 -14 10.5 -24.5t24.5 -10.5h123q14 0 24.5 -10t10.5 -25q0 -14 -10.5 -24.5t-24.5 -10.5h-123q-14 0 -24.5 -10t-10.5 -25zM28 304q0 15 10.5 25t24.5 10h245q15 0 25 -10t10 -25q0 -14 -10 -24.5t-25 -10.5h-245q-14 0 -24.5 10.5t-10.5 24.5z" />
    <glyph glyph-name="Utilde" unicode="&#x168;" 
d="M551 268v499q0 17 12 29t29 12t29 -12t12 -29v-499q0 -137 -83 -212t-195 -75q-113 0 -195.5 75t-82.5 212v499q0 17 12 29t29 12t29 -12t12 -29v-497q0 -102 57 -154.5t139 -52.5t139 52.5t57 152.5zM386 865l-69 39q-11 6 -19 6q-29 0 -34 -32q-2 -13 -11.5 -21.5
t-22.5 -8.5q-14 0 -23 9.5t-9 22.5q0 39 30.5 67t69.5 28q29 0 51 -13l69 -39q11 -6 19 -6q29 0 34 32q2 13 11.5 21.5t22.5 8.5q14 0 23 -9.5t9 -22.5q0 -39 -30.5 -67t-69.5 -28q-29 0 -51 13zM386 865l-69 39q-11 6 -19 6q-29 0 -34 -32q-2 -13 -11.5 -21.5t-22.5 -8.5
q-14 0 -23 9.5t-9 22.5q0 39 30.5 67t69.5 28q29 0 51 -13l69 -39q11 -6 19 -6q29 0 34 32q2 13 11.5 21.5t22.5 8.5q14 0 23 -9.5t9 -22.5q0 -39 -30.5 -67t-69.5 -28q-29 0 -51 13z" />
    <glyph glyph-name="utilde" unicode="&#x169;" horiz-adv-x="723" 
d="M633 496v-228q0 -137 -83 -212.5t-195 -75.5t-195 75.5t-83 212.5v228q0 17 12 29t29 12t29 -12t12 -29v-228q0 -100 57.5 -153t138.5 -53t139 53t58 153v228q0 17 11.5 29t28.5 12t29 -12t12 -29zM368 629l-69 39q-10 6 -19 6q-29 0 -34 -32q-2 -13 -11.5 -21.5
t-22.5 -8.5q-14 0 -23 9.5t-9 22.5q0 39 30.5 67t69.5 28q29 0 51 -13l69 -39q10 -6 19 -6q29 0 34 32q2 13 11.5 21.5t22.5 8.5q14 0 23 -9.5t9 -22.5q0 -39 -30.5 -67t-69.5 -28q-29 0 -51 13zM368 629l-69 39q-10 6 -19 6q-29 0 -34 -32q-2 -13 -11.5 -21.5t-22.5 -8.5
q-14 0 -23 9.5t-9 22.5q0 39 30.5 67t69.5 28q29 0 51 -13l69 -39q10 -6 19 -6q29 0 34 32q2 13 11.5 21.5t22.5 8.5q14 0 23 -9.5t9 -22.5q0 -39 -30.5 -67t-69.5 -28q-29 0 -51 13z" />
    <glyph glyph-name="Umacron" unicode="&#x16a;" 
d="M551 268v499q0 17 12 29t29 12t29 -12t12 -29v-499q0 -137 -83 -212t-195 -75q-113 0 -195.5 75t-82.5 212v499q0 17 12 29t29 12t29 -12t12 -29v-497q0 -102 57 -154.5t139 -52.5t139 52.5t57 152.5zM197 885q0 15 10.5 25t24.5 10h245q15 0 25 -10t10 -25
q0 -14 -10 -24.5t-25 -10.5h-245q-14 0 -24.5 10.5t-10.5 24.5z" />
    <glyph glyph-name="umacron" unicode="&#x16b;" horiz-adv-x="723" 
d="M633 496v-228q0 -137 -83 -212.5t-195 -75.5t-195 75.5t-83 212.5v228q0 17 12 29t29 12t29 -12t12 -29v-228q0 -100 57.5 -153t138.5 -53t139 53t58 153v228q0 17 11.5 29t28.5 12t29 -12t12 -29zM207 677q0 15 10.5 25t24.5 10h245q15 0 25 -10t10 -25q0 -14 -10 -24.5
t-25 -10.5h-245q-14 0 -24.5 10.5t-10.5 24.5z" />
    <glyph glyph-name="Ubreve" unicode="&#x16c;" 
d="M551 268v499q0 17 12 29t29 12t29 -12t12 -29v-499q0 -137 -83 -212t-195 -75q-113 0 -195.5 75t-82.5 212v499q0 17 12 29t29 12t29 -12t12 -29v-497q0 -102 57 -154.5t139 -52.5t139 52.5t57 152.5zM233 955l107 -54q8 -5 16 -5t16 5l107 54q6 3 13 3q15 0 25.5 -10
t10.5 -27q0 -27 -23 -33l-142 -39q-7 -1 -14 0l-141 39q-24 6 -24 33q0 17 10.5 27t25.5 10q7 0 13 -3z" />
    <glyph glyph-name="ubreve" unicode="&#x16d;" horiz-adv-x="723" 
d="M633 496v-228q0 -137 -83 -212.5t-195 -75.5t-195 75.5t-83 212.5v228q0 17 12 29t29 12t29 -12t12 -29v-228q0 -100 57.5 -153t138.5 -53t139 53t58 153v228q0 17 11.5 29t28.5 12t29 -12t12 -29zM227 729l107 -54q8 -5 16 -5t16 5l107 54q6 3 13 3q15 0 25.5 -10
t10.5 -27q0 -27 -23 -33l-142 -39q-7 -1 -14 0l-141 39q-24 6 -24 33q0 17 10.5 27t25.5 10q7 0 13 -3z" />
    <glyph glyph-name="Uring" unicode="&#x16e;" 
d="M551 268v499q0 17 12 29t29 12t29 -12t12 -29v-499q0 -137 -83 -212t-195 -75q-113 0 -195.5 75t-82.5 212v499q0 17 12 29t29 12t29 -12t12 -29v-497q0 -102 57 -154.5t139 -52.5t139 52.5t57 152.5zM354 849q-43 0 -68 27t-25 63t25 63t68 27q45 0 69.5 -27t24.5 -63
t-24.5 -63t-69.5 -27zM288 939q0 -26 16.5 -44.5t49.5 -18.5t50.5 18.5t17.5 44.5t-17.5 44.5t-50.5 18.5t-49.5 -18.5t-16.5 -44.5z" />
    <glyph glyph-name="uring" unicode="&#x16f;" horiz-adv-x="723" 
d="M633 496v-228q0 -137 -83 -212.5t-195 -75.5t-195 75.5t-83 212.5v228q0 17 12 29t29 12t29 -12t12 -29v-228q0 -100 57.5 -153t138.5 -53t139 53t58 153v228q0 17 11.5 29t28.5 12t29 -12t12 -29zM364 587q-43 0 -68 27t-25 63t25 63t68 27q45 0 69.5 -27t24.5 -63
t-24.5 -63t-69.5 -27zM298 677q0 -26 16.5 -44.5t49.5 -18.5t50.5 18.5t17.5 44.5t-17.5 44.5t-50.5 18.5t-49.5 -18.5t-16.5 -44.5z" />
    <glyph glyph-name="Uhungarumlaut" unicode="&#x170;" 
d="M551 268v499q0 17 12 29t29 12t29 -12t12 -29v-499q0 -137 -83 -212t-195 -75q-113 0 -195.5 75t-82.5 212v499q0 17 12 29t29 12t29 -12t12 -29v-497q0 -102 57 -154.5t139 -52.5t139 52.5t57 152.5zM316 993q10 28 43 28q20 0 27.5 -8.5t-2.5 -30.5l-81 -123
q-6 -9 -14 -9q-12 0 -12 12q0 9 39 131zM451 993q10 28 43 28q20 0 27.5 -8.5t-2.5 -30.5l-81 -123q-6 -9 -14 -9q-12 0 -12 12q0 9 39 131z" />
    <glyph glyph-name="uhungarumlaut" unicode="&#x171;" horiz-adv-x="723" 
d="M633 496v-228q0 -137 -83 -212.5t-195 -75.5t-195 75.5t-83 212.5v228q0 17 12 29t29 12t29 -12t12 -29v-228q0 -100 57.5 -153t138.5 -53t139 53t58 153v228q0 17 11.5 29t28.5 12t29 -12t12 -29zM300 730q10 28 43 28q20 0 27.5 -8.5t-2.5 -30.5l-81 -123q-6 -9 -14 -9
q-12 0 -12 12q0 9 39 131zM435 730q10 28 43 28q20 0 27.5 -8.5t-2.5 -30.5l-81 -123q-6 -9 -14 -9q-12 0 -12 12q0 9 39 131z" />
    <glyph glyph-name="Uogonek" unicode="&#x172;" 
d="M571 152v253q0 13 9 22t22 9t22 -9t9 -22v-279q0 -26 -28 -32t-28 -29q0 -12 6 -18q7 -7 20 -7q16 0 25 14q8 14 25 14q12 0 20.5 -8.5t8.5 -20.5q0 -11 -4 -15q-27 -44 -75 -44q-38 0 -62 26q-25 25 -25 59q0 51 46 75q9 4 9 12zM551 268v499q0 17 12 29t29 12t29 -12
t12 -29v-499q0 -137 -83 -212t-195 -75q-113 0 -195.5 75t-82.5 212v499q0 17 12 29t29 12t29 -12t12 -29v-497q0 -102 57 -154.5t139 -52.5t139 52.5t57 152.5z" />
    <glyph glyph-name="uogonek" unicode="&#x173;" horiz-adv-x="723" 
d="M571 59v103q0 13 9 22t22 9t22 -9t9 -22v-129q0 -26 -28 -32t-28 -29q0 -12 6 -18q7 -7 20 -7q16 0 25 14q8 14 25 14q12 0 20.5 -8.5t8.5 -20.5q0 -11 -4 -15q-27 -44 -75 -44q-38 0 -62 26q-25 25 -25 59q0 51 46 75q9 5 9 12zM633 496v-228q0 -137 -83 -212.5
t-195 -75.5t-195 75.5t-83 212.5v228q0 17 12 29t29 12t29 -12t12 -29v-228q0 -100 57.5 -153t138.5 -53t139 53t58 153v228q0 17 11.5 29t28.5 12t29 -12t12 -29z" />
    <glyph glyph-name="Wcircumflex" unicode="&#x174;" horiz-adv-x="1184" 
d="M348 25l-309 724q-7 16 -0.5 31.5t22.5 22.5t31.5 0.5t22.5 -22.5l277 -650l37 87q6 14 0 27l-62 147q-6 14 -0.5 27t18.5 19q14 6 27.5 0.5t18.5 -19.5l42 -98l42 98q6 14 19.5 19.5t26.5 -0.5q31 -13 19 -46l-63 -147q-6 -13 0 -27l38 -87l278 651q7 16 22.5 22.5
t31.5 -0.5t22 -22.5t-1 -31.5l-309 -725q-7 -16 -22.5 -22.5t-31.5 0.5q-14 7 -22 24l-50 116l-49 -116q-8 -17 -23 -24t-30.5 -0.5t-22.5 22.5zM697 852q-44 27 -104 27q-57 0 -105 -27q-4 -3 -12 -3q-25 0 -25 25q0 11 9 20q62 55 133 55q62 0 132 -55q10 -7 10 -20
q0 -25 -25 -25q-7 0 -13 3z" />
    <glyph glyph-name="wcircumflex" unicode="&#x175;" horiz-adv-x="745" 
d="M593 397q17 0 29 -12t12 -29v-88q0 -100 57 -152.5t139 -52.5q81 0 138.5 52.5t57.5 152.5v228q0 17 12 29t29 12t29 -12t12 -29v-228q0 -137 -83 -212t-195 -75q-72 0 -136 32.5t-101 94.5q-38 -62 -102 -94.5t-136 -32.5q-112 0 -195 75t-83 212v228q0 17 12 29t29 12
t29 -12t12 -29v-228q0 -100 57.5 -152.5t138.5 -52.5t139 52.5t58 152.5v88q0 17 12 29t29 12zM478 632q-44 27 -104 27q-57 0 -105 -27q-5 -3 -12 -3q-25 0 -25 25q0 11 9 20q62 55 133 55q62 0 132 -55q10 -7 10 -20q0 -25 -25 -25q-7 0 -13 3z" />
    <glyph glyph-name="Ycircumflex" unicode="&#x176;" horiz-adv-x="648" 
d="M520 643v123q0 17 12 29t29 12t29 -12t12 -29v-123q0 -115 -59.5 -186.5t-149.5 -92.5q-28 -7 -28 -36v-287q0 -17 -12 -29t-29 -12t-29 12t-12 29v287q0 29 -28 36q-91 22 -150 93t-59 186v123q0 17 12 29t29 12t29 -12t12 -29v-121q0 -102 57 -154.5t139 -52.5
t139 52.5t57 152.5zM429 852q-44 27 -104 27q-57 0 -105 -27q-4 -3 -12 -3q-25 0 -25 25q0 11 9 20q62 55 133 55q62 0 132 -55q10 -7 10 -20q0 -25 -25 -25q-7 0 -13 3z" />
    <glyph glyph-name="ycircumflex" unicode="&#x177;" horiz-adv-x="533" 
d="M551 274v223q0 17 12 29t29 12t29 -12t12 -29v-480q0 -137 -83 -212t-195 -75q-68 0 -121 26q-24 10 -24 37q0 17 12 29t29 12q10 0 17 -4q40 -18 87 -18q82 0 139 52.5t57 152.5v46q-79 -76 -196 -76q-113 0 -195.5 75t-82.5 212v223q0 17 12 29t29 12t29 -12t12 -29
v-221q0 -102 57 -154.5t139 -52.5t139 52.5t57 152.5zM382 631q-44 27 -104 27q-57 0 -105 -27q-5 -3 -12 -3q-25 0 -25 25q0 11 9 20q62 55 133 55q62 0 132 -55q10 -7 10 -20q0 -25 -25 -25q-7 0 -13 3z" />
    <glyph glyph-name="Ydieresis" unicode="&#x178;" horiz-adv-x="648" 
d="M520 643v123q0 17 12 29t29 12t29 -12t12 -29v-123q0 -115 -59.5 -186.5t-149.5 -92.5q-28 -7 -28 -36v-287q0 -17 -12 -29t-29 -12t-29 12t-12 29v287q0 29 -28 36q-91 22 -150 93t-59 186v123q0 17 12 29t29 12t29 -12t12 -29v-121q0 -102 57 -154.5t139 -52.5
t139 52.5t57 152.5zM203 895q0 16 10.5 27.5t30.5 11.5t30.5 -11.5t10.5 -27.5t-10.5 -27.5t-30.5 -11.5t-30.5 11.5t-10.5 27.5zM363 895q0 16 10.5 27.5t30.5 11.5t30.5 -11.5t10.5 -27.5t-10.5 -27.5t-30.5 -11.5t-30.5 11.5t-10.5 27.5z" />
    <glyph glyph-name="Zacute" unicode="&#x179;" horiz-adv-x="633" 
d="M561 11h-495q-13 0 -23.5 9.5t-10.5 25.5q0 11 6 20l449 651h-414q-17 0 -28.5 12t-11.5 29t11.5 28t28.5 11h487q11 0 20 -6q15 -11 15 -29q0 -11 -6 -20l-449 -651h421q17 0 28.5 -11t11.5 -29q0 -17 -11.5 -28.5t-28.5 -11.5zM279 889l129 64q6 3 13 3q13 0 23.5 -11
t10.5 -26q0 -26 -23 -32l-139 -35q-12 -3 -19.5 2.5t-7.5 15.5q0 13 13 19z" />
    <glyph glyph-name="zacute" unicode="&#x17a;" horiz-adv-x="564" 
d="M64 496q0 17 11.5 28.5t28.5 11.5h364q15 0 26 -10q7 -5 11 -15q3 -6 3 -15q0 -15 -10 -25q-245 -283 -320 -369q-20 -23 11 -23h303q17 0 28.5 -11.5t11.5 -28.5t-11.5 -28.5t-28.5 -11.5h-421q-14 0 -25 11q-14 11 -14 29q0 16 10 26q21 24 139.5 161.5t179.5 207.5
q19 22 -10 22h-247q-17 0 -28.5 11.5t-11.5 28.5zM275 663l129 64q6 3 13 3q13 0 23.5 -11t10.5 -26q0 -26 -23 -32l-139 -35q-12 -3 -19.5 2.5t-7.5 15.5q0 13 13 19z" />
    <glyph glyph-name="Zdotaccent" unicode="&#x17b;" horiz-adv-x="633" 
d="M561 11h-495q-13 0 -23.5 9.5t-10.5 25.5q0 11 6 20l449 651h-414q-17 0 -28.5 12t-11.5 29t11.5 28t28.5 11h487q11 0 20 -6q15 -11 15 -29q0 -11 -6 -20l-449 -651h421q17 0 28.5 -11t11.5 -29q0 -17 -11.5 -28.5t-28.5 -11.5zM275 889q0 16 10.5 27.5t30.5 11.5
t30.5 -11.5t10.5 -27.5t-10.5 -27.5t-30.5 -11.5t-30.5 11.5t-10.5 27.5z" />
    <glyph glyph-name="zdotaccent" unicode="&#x17c;" horiz-adv-x="564" 
d="M64 496q0 17 11.5 28.5t28.5 11.5h364q15 0 26 -10q7 -5 11 -15q3 -6 3 -15q0 -15 -10 -25q-245 -283 -320 -369q-20 -23 11 -23h303q17 0 28.5 -11.5t11.5 -28.5t-11.5 -28.5t-28.5 -11.5h-421q-14 0 -25 11q-14 11 -14 29q0 16 10 26q21 24 139.5 161.5t179.5 207.5
q19 22 -10 22h-247q-17 0 -28.5 11.5t-11.5 28.5zM240 677q0 16 10.5 27.5t30.5 11.5t30.5 -11.5t10.5 -27.5t-10.5 -27.5t-30.5 -11.5t-30.5 11.5t-10.5 27.5z" />
    <glyph glyph-name="Zcaron" unicode="&#x17d;" horiz-adv-x="633" 
d="M561 11h-495q-13 0 -23.5 9.5t-10.5 25.5q0 11 6 20l449 651h-414q-17 0 -28.5 12t-11.5 29t11.5 28t28.5 11h487q11 0 20 -6q15 -11 15 -29q0 -11 -6 -20l-449 -651h421q17 0 28.5 -11t11.5 -29q0 -17 -11.5 -28.5t-28.5 -11.5zM421 953q6 3 13 3q25 0 25 -25
q0 -13 -10 -20q-70 -55 -132 -55q-63 0 -133 55q-9 9 -9 20q0 25 25 25q8 0 12 -3q48 -27 105 -27q62 0 104 27z" />
    <glyph glyph-name="zcaron" unicode="&#x17e;" horiz-adv-x="564" 
d="M64 496q0 17 11.5 28.5t28.5 11.5h364q15 0 26 -10q7 -5 11 -15q3 -6 3 -15q0 -15 -10 -25q-245 -283 -320 -369q-20 -23 11 -23h303q17 0 28.5 -11.5t11.5 -28.5t-11.5 -28.5t-28.5 -11.5h-421q-14 0 -25 11q-14 11 -14 29q0 16 10 26q21 24 139.5 161.5t179.5 207.5
q19 22 -10 22h-247q-17 0 -28.5 11.5t-11.5 28.5zM386 724q6 3 13 3q25 0 25 -25q0 -13 -10 -20q-70 -55 -132 -55q-63 0 -133 55q-9 9 -9 20q0 25 25 25q7 0 12 -3q48 -27 105 -27q62 0 104 27z" />
    <glyph glyph-name="longs" unicode="&#x17f;" horiz-adv-x="459" 
d="M140 -23v435q0 14 -10.5 24.5t-24.5 10.5h-36q-15 0 -25 10t-10 25t10 25t25 10h38q31 0 38 41q17 109 100 173q75 57 173 57q16 0 29 -12q12 -13 12 -29q0 -17 -12 -30q-14 -11 -29 -11q-64 0 -117 -35q-56 -38 -72 -109q-1 -4 -1 -9q0 -12 6 -21q8 -15 26 -15h147
q15 0 25 -10t10 -25t-10 -25t-25 -10h-150q-15 0 -25 -10t-10 -25v-440q0 -76 -48 -149q-33 -52 -86 -87q-10 -7 -23 -7q-12 0 -22 7q-19 13 -19 34q0 22 19 35q38 24 62 62q34 50 35 110z" />
    <glyph glyph-name="florin" unicode="&#x192;" horiz-adv-x="545" 
d="M137 -39l24 196q6 47 -11 62t-69 15q-14 0 -22.5 9t-8.5 23q0 17 12 28t28 11h21q30 0 44.5 8t27.5 39q39 91 116.5 148t169.5 57q63 0 64 -40q0 -22 -13.5 -33t-32.5 -11q-3 0 -13 1t-16 1q-53 0 -100 -27.5t-72 -70.5q-13 -22 -13 -37q0 -36 52 -36h121q30 0 30 -29
q0 -17 -11.5 -29t-27.5 -12h-120q-39 0 -54 -15.5t-20 -61.5l-24 -197q-21 -144 -158 -224q-10 -7 -23 -7q-18 0 -28 10.5t-10 27.5q0 15 10 24q10 7 64 55q54 47 63 115z" />
    <glyph glyph-name="h_v" unicode="&#x195;" horiz-adv-x="1197" 
d="M172 767v-236q0 -10 7 -17t18 -7q9 0 13 4q79 45 158 45q113 0 188.5 -69.5t89.5 -190.5l3 -48q5 -86 56 -136t137 -50q90 0 143 57t53 148v230q0 19 12 29.5t29 10.5q16 0 28.5 -10.5t12.5 -29.5v-230q0 -125 -77 -206t-201 -81q-112 0 -191.5 72t-85.5 192v41
q-6 86 -59 137.5t-138 51.5q-90 0 -143 -57t-53 -148v-228q0 -17 -12 -29t-29 -12t-29 12t-12 29v726q0 19 12 29.5t29 10.5q16 0 28.5 -10.5t12.5 -29.5z" />
    <glyph glyph-name="AEacute" unicode="&#x1fc;" horiz-adv-x="1003" 
d="M160 331v-290q0 -17 -12 -29t-29 -12t-29 12t-12 29v479q0 137 83 212.5t195 75.5q72 0 135.5 -32.5t101.5 -95.5q38 63 101.5 95.5t135.5 32.5q68 0 121 -26q24 -10 24 -37q0 -17 -12 -29t-29 -12q-9 0 -17 4q-41 18 -87 18q-82 0 -139 -52.5t-57 -152.5v-43
q0 -17 12 -29t29 -12h156q17 0 29 -12t12 -29t-12 -29t-29 -12h-156q-17 0 -29 -12t-12 -29v-45q0 -101 57 -153.5t139 -52.5q46 0 87 18q8 4 17 4q17 0 29 -12t12 -29q0 -26 -25 -38q-53 -25 -120 -25q-117 0 -196 76v-16q0 -17 -12 -29t-29 -12t-29 12t-12 29v290
q0 10 -7 17t-18 7h-343q-10 0 -17 -7t-7 -17zM552 462v57q0 102 -57 154.5t-139 52.5t-139 -52.5t-57 -152.5v-59q0 -11 7 -18t17 -7h343q25 0 25 25zM371 888l129 64q6 3 13 3q13 0 23.5 -11t10.5 -26q0 -26 -23 -32l-139 -35q-12 -3 -19.5 2.5t-7.5 15.5q0 13 13 19z" />
    <glyph glyph-name="aeacute" unicode="&#x1fd;" horiz-adv-x="967" 
d="M359 246h-107q-52 0 -79.5 -23t-27.5 -61q2 -45 29 -71q35 -29 77 -29q54 0 87 35.5t33 92.5v49q0 7 -12 7zM453 345v-49q0 -7 12 -7h107q52 0 79.5 23t27.5 61q-2 45 -29 71q-35 29 -77 29q-54 0 -87 -35.5t-33 -92.5zM371 341v4q0 63 -29 95.5t-84 32.5q-67 0 -133 -48
q-11 -8 -21 -8q-17 0 -29 12t-12 29q0 14 11 28q74 69 184 69q104 0 157 -76q57 76 158 76q74 0 131 -50t57 -132q0 -78 -55 -122t-134 -44h-107q-12 0 -12 -13v-4q0 -63 29.5 -95.5t83.5 -32.5q67 0 133 48q11 8 21 8q17 0 29 -12t12 -29q0 -14 -11 -28q-74 -69 -184 -69
q-104 0 -157 76q-57 -76 -158 -76q-74 0 -131 50t-57 132q0 78 55 122t134 44h107q12 0 12 13zM339 663l129 64q6 3 13 3q13 0 23.5 -11t10.5 -26q0 -26 -23 -32l-139 -35q-12 -3 -19.5 2.5t-7.5 15.5q0 13 13 19z" />
    <glyph glyph-name="Oslashacute" unicode="&#x1fe;" horiz-adv-x="916" 
d="M280 115q82 -53 183 -53q129 0 223.5 86t94.5 246q0 102 -44 180q-5 9 -16 9q-12 0 -18 -8l-426 -425q-6 -6 -6 -16q0 -13 9 -19zM463 725q-62 0 -117.5 -20.5t-101 -59.5t-72.5 -104t-27 -147q0 -105 43 -181q4 -9 16 -9q11 0 19 8l425 425q7 7 7 17q0 12 -10 18
q-82 53 -182 53zM63 394q0 101 34.5 182t91.5 130t127.5 75t146.5 26q137 0 245 -78q8 -6 16 -6q11 0 18 7l45 45q12 12 29 12t29 -12t12 -29t-12 -29l-48 -47q-7 -7 -7 -18q0 -6 3 -12q70 -104 70 -246q0 -101 -34.5 -182.5t-92 -130.5t-128 -75t-145.5 -26q-137 0 -245 78
q-8 6 -17 6q-10 0 -17 -7l-45 -45q-12 -12 -29 -12t-29 12t-12 29q0 9 3.5 16t8 11.5l19.5 19.5t28 29q8 8 8 18q0 8 -4 12q-69 103 -69 247zM452 889l129 64q6 3 13 3q13 0 23.5 -11t10.5 -26q0 -26 -23 -32l-139 -35q-12 -3 -19.5 2.5t-7.5 15.5q0 13 13 19z" />
    <glyph glyph-name="oslashacute" unicode="&#x1ff;" horiz-adv-x="672" 
d="M229 90q46 -28 107 -28q82 0 139 52.5t57 153.5q0 60 -23 104q-3 5 -8 5q-6 0 -10 -4l-264 -264q-3 -3 -3 -8q0 -8 5 -11zM336 473q-82 0 -139 -52.5t-57 -152.5q0 -62 22 -105q2 -5 9 -5q6 0 10 4l264 264q3 3 3 8q0 7 -5 10q-47 29 -107 29zM58 268q0 137 82.5 212
t195.5 75q87 0 160 -47q8 -5 16 -5q10 0 17 7l15 15q10 10 25 10t25 -10t10 -24q0 -15 -10 -25l-17 -17q-8 -8 -8 -19q0 -6 3 -11q42 -67 42 -161q0 -137 -83 -212.5t-195 -75.5q-90 0 -160 47q-8 5 -16 5q-10 0 -17 -7l-16 -16q-10 -10 -24 -10q-15 0 -25 10q-11 11 -11 25
t11 25l17 17q8 8 8 19q0 6 -3 11q-42 67 -42 162zM333 663l129 64q6 3 13 3q13 0 23.5 -11t10.5 -26q0 -26 -23 -32l-139 -35q-12 -3 -19.5 2.5t-7.5 15.5q0 13 13 19z" />
    <glyph glyph-name="Scommaaccent" unicode="&#x218;" horiz-adv-x="633" 
d="M374 681q-25 45 -75 45q-35 0 -60 -25t-25 -60t25 -60t60 -25q120 0 204 -84t84 -204q0 -119 -84 -203t-204 -84q-87 0 -159.5 48t-104.5 126q-3 7 -3 16q0 17 12 29t29 12q26 0 38 -25q24 -55 75 -89.5t113 -34.5q86 0 146 60t60 145q0 86 -60 146t-146 60
q-69 0 -118 49t-49 118t49 118t118 49q47 0 86 -23.5t61 -63.5q5 -13 5 -20q0 -17 -12 -29t-29 -12q-24 0 -36 21zM335 -101l-30 -141q-5 -20 -22 -18q-18 3 -18 22v144q0 15 12 24t27 7t24.5 -13t6.5 -25z" />
    <glyph glyph-name="scommaaccent" unicode="&#x219;" horiz-adv-x="575" 
d="M454 508q26 -18 26 -38t-11 -30.5t-29 -10.5q-16 0 -30 9q-59 38 -113 38q-126 0 -126 -71q0 -65 132 -65q209 0 209 -167q0 -193 -221 -193q-169 0 -240 135q-5 15 -5 21q0 17 11.5 28.5t29.5 11.5q12 0 20.5 -5.5t20 -21t12.5 -16.5q63 -74 152 -74q138 0 138 109
q0 92 -136 92q-206 0 -206 145q0 151 210 150q90 -2 156 -47zM329 -101l-30 -141q-5 -20 -22 -18q-18 3 -18 22v144q0 15 12 24t27 7t24.5 -13t6.5 -25z" />
    <glyph glyph-name="schwa" unicode="&#x259;" horiz-adv-x="529" 
d="M104 80q40 -18 87 -18q60 0 109 29.5t72 87.5q8 25 -3.5 39t-30.5 14h-147q-15 0 -25 10.5t-10 24.5q0 15 10 25t25 10h148q18 0 29.5 14t3.5 39q-23 58 -71.5 88t-109.5 30q-47 0 -87 -18q-7 -4 -17 -4q-17 0 -29 12t-12 29q0 26 25 38q53 25 120 25q113 0 195.5 -75
t82.5 -212t-83 -212.5t-195 -75.5q-68 0 -121 26q-24 10 -24 37q0 17 12 29t29 12q10 0 17 -4z" />
    <glyph glyph-name="apostrophe" unicode="&#x2bc;" horiz-adv-x="144" 
d="M78 751l-30 -141q-5 -20 -22 -18q-18 3 -18 22v144q0 15 12 24t27 7t24.5 -13t6.5 -25z" />
    <glyph glyph-name="circumflex" unicode="&#x2c6;" horiz-adv-x="348" 
d="M278 639q-44 27 -104 27q-57 0 -105 -27q-5 -3 -12 -3q-25 0 -25 25q0 11 9 20q62 55 133 55q62 0 132 -55q10 -7 10 -20q0 -25 -25 -25q-7 0 -13 3z" />
    <glyph glyph-name="caron" unicode="&#x2c7;" horiz-adv-x="348" 
d="M278 724q6 3 13 3q25 0 25 -25q0 -13 -10 -20q-70 -55 -132 -55q-63 0 -133 55q-9 9 -9 20q0 25 25 25q7 0 12 -3q48 -27 105 -27q62 0 104 27z" />
    <glyph glyph-name="breve" unicode="&#x2d8;" horiz-adv-x="408" 
d="M81 727l107 -54q8 -5 16 -5t16 5l107 54q6 3 13 3q15 0 25.5 -10t10.5 -27q0 -27 -23 -33l-142 -39q-7 -1 -14 0l-141 39q-24 6 -24 33q0 17 10.5 27t25.5 10q7 0 13 -3z" />
    <glyph glyph-name="dotaccent" unicode="&#x2d9;" horiz-adv-x="146" 
d="M32 709q0 16 10.5 27.5t30.5 11.5t30.5 -11.5t10.5 -27.5t-10.5 -27.5t-30.5 -11.5t-30.5 11.5t-10.5 27.5z" />
    <glyph glyph-name="ring" unicode="&#x2da;" horiz-adv-x="341" 
d="M170 587q-43 0 -68 27t-25 63t25 63t68 27q45 0 69.5 -27t24.5 -63t-24.5 -63t-69.5 -27zM104 677q0 -26 16.5 -44.5t49.5 -18.5t50.5 18.5t17.5 44.5t-17.5 44.5t-50.5 18.5t-49.5 -18.5t-16.5 -44.5z" />
    <glyph glyph-name="ogonek" unicode="&#x2db;" horiz-adv-x="217" 
d="M106 59v103q0 13 9 22t22 9t22 -9t9 -22v-129q0 -26 -28 -32t-28 -29q0 -12 6 -18q7 -7 20 -7q16 0 25 14q8 14 25 14q12 0 20.5 -8.5t8.5 -20.5q0 -11 -4 -15q-27 -44 -75 -44q-38 0 -62 26q-25 25 -25 59q0 51 46 75q9 5 9 12z" />
    <glyph glyph-name="tilde" unicode="&#x2dc;" horiz-adv-x="699" 
d="M368 629l-69 39q-10 6 -19 6q-29 0 -34 -32q-2 -13 -11.5 -21.5t-22.5 -8.5q-14 0 -23 9.5t-9 22.5q0 39 30.5 67t69.5 28q29 0 51 -13l69 -39q10 -6 19 -6q29 0 34 32q2 13 11.5 21.5t22.5 8.5q14 0 23 -9.5t9 -22.5q0 -39 -30.5 -67t-69.5 -28q-29 0 -51 13zM368 629
l-69 39q-10 6 -19 6q-29 0 -34 -32q-2 -13 -11.5 -21.5t-22.5 -8.5q-14 0 -23 9.5t-9 22.5q0 39 30.5 67t69.5 28q29 0 51 -13l69 -39q10 -6 19 -6q29 0 34 32q2 13 11.5 21.5t22.5 8.5q14 0 23 -9.5t9 -22.5q0 -39 -30.5 -67t-69.5 -28q-29 0 -51 13z" />
    <glyph glyph-name="hungarumlaut" unicode="&#x2dd;" horiz-adv-x="350" 
d="M71 814q10 28 43 28q20 0 27.5 -8.5t-2.5 -30.5l-81 -123q-6 -9 -14 -9q-12 0 -12 12q0 9 39 131zM206 814q10 28 43 28q20 0 27.5 -8.5t-2.5 -30.5l-81 -123q-6 -9 -14 -9q-12 0 -12 12q0 9 39 131z" />
    <glyph glyph-name="uni037E" unicode="&#x37e;" horiz-adv-x="214" 
d="M90 32v19q0 18 12.5 28t28.5 10q17 0 29 -11t12 -30q0 -61 -24 -120t-68 -100q-10 -10 -25 -10t-25.5 10t-10.5 25q0 11 11 24q60 67 60 155zM90 396q0 16 10.5 27.5t30.5 11.5t30.5 -11.5t10.5 -27.5t-10.5 -27.5t-30.5 -11.5t-30.5 11.5t-10.5 27.5z" />
    <glyph glyph-name="tonos" unicode="&#x384;" horiz-adv-x="136" 
d="M-15 658l89 113q4 7 10 9q12 6 26 0.5t21 -20.5q13 -23 -7 -38l-111 -91q-21 -16 -33 5q-5 11 5 22z" />
    <glyph glyph-name="dieresistonos" unicode="&#x385;" horiz-adv-x="433" 
d="M32 670q0 16 10.5 27.5t30.5 11.5t30.5 -11.5t10.5 -27.5t-10.5 -27.5t-30.5 -11.5t-30.5 11.5t-10.5 27.5zM319 670q0 16 10.5 27.5t30.5 11.5t30.5 -11.5t10.5 -27.5t-10.5 -27.5t-30.5 -11.5t-30.5 11.5t-10.5 27.5zM163 686l89 113q4 7 10 9q12 6 26 0.5t21 -20.5
q13 -23 -7 -38l-111 -91q-21 -16 -33 5q-5 11 5 22z" />
    <glyph glyph-name="Alphatonos" unicode="&#x386;" 
d="M159 244v-203q0 -17 -12 -29t-29 -12t-29 12t-12 29v479q0 137 83 212.5t195 75.5t195 -75.5t83 -212.5v-479q0 -17 -12 -29t-29 -12t-29 12t-12 29v203q0 10 -7 17t-18 7h-343q-10 0 -17 -7t-7 -17zM551 375v144q0 102 -57 154.5t-139 52.5t-139 -52.5t-57 -153.5v-145
q0 -25 24 -25h343q25 0 25 25zM350 885l89 113q4 7 10 9q12 6 26 0.5t21 -20.5q13 -23 -7 -38l-111 -91q-21 -16 -33 5q-5 11 5 22z" />
    <glyph glyph-name="anoteleia" unicode="&#x387;" horiz-adv-x="262" 
d="M90 242v50q0 16 16 16h50q16 0 16 -16v-50q0 -16 -16 -16h-50q-16 0 -16 16z" />
    <glyph glyph-name="Epsilontonos" unicode="&#x388;" horiz-adv-x="607" 
d="M491 -236q-25 -1 -36 19.5t-1 41.5t36 21q33 0 55.5 23t22.5 55t-23 55.5t-55 23.5q-8 0 -30 -6q-21 -9 -48 -14q-63 -12 -130 9t-111 67q-83 86 -83 210v248q0 124 83 210q56 59 147 76.5t163 -24.5q30 -17 23.5 -47t-41.5 -28q-5 0 -46 14q-26 8 -52 8
q-87 0 -138.5 -62.5t-51.5 -150.5q0 -83 83 -83h32q17 0 30 -10t13 -26q0 -18 -12.5 -27.5t-30.5 -9.5h-32q-83 0 -83 -88q0 -85 52 -146q52 -62 138 -62q30 -2 52 7q51 17 73 17q66 0 113.5 -47t47.5 -114t-46.5 -112.5t-113.5 -47.5zM336 885l89 113q4 7 10 9q12 6 26 0.5
t21 -20.5q13 -23 -7 -38l-111 -91q-21 -16 -33 5q-5 11 5 22z" />
    <glyph glyph-name="Etatonos" unicode="&#x389;" horiz-adv-x="736" 
d="M564 371v377q0 17 12 29t29 12t29 -12t12 -29v-707q0 -17 -12 -29t-29 -12t-29 12t-12 29v207q0 8 -6 14t-15 6h-351q-8 0 -14 -6t-6 -14v-207q0 -17 -12 -29t-29 -12t-29 12t-12 29v707q0 17 12 29t29 12t29 -12t12 -29v-377q0 -8 6 -14.5t14 -6.5h351q9 0 15 6.5
t6 14.5zM349 885l89 113q4 7 10 9q12 6 26 0.5t21 -20.5q13 -23 -7 -38l-111 -91q-21 -16 -33 5q-5 11 5 22z" />
    <glyph glyph-name="Iotatonos" unicode="&#x38a;" horiz-adv-x="262" 
d="M90 269v498q0 17 12 29t29 12t29 -12t12 -29v-726q0 -17 -12 -29t-29 -12t-29 12t-12 29v228zM117 886l89 113q4 7 10 9q12 6 26 0.5t21 -20.5q13 -23 -7 -38l-111 -91q-21 -16 -33 5q-5 11 5 22z" />
    <glyph glyph-name="Omicrontonos" unicode="&#x38c;" horiz-adv-x="592" 
d="M159 581v-373q0 -62 40 -104t97 -42t97 42t40 104v373q0 63 -40 105t-97 42t-97 -42t-40 -105zM296 -20q-92 0 -155.5 66.5t-63.5 161.5v373q0 94 62.5 161t154.5 67q93 0 157 -67.5t64 -160.5v-373q0 -95 -63.5 -161.5t-155.5 -66.5zM299 886l89 113q4 7 10 9
q12 6 26 0.5t21 -20.5q13 -23 -7 -38l-111 -91q-21 -16 -33 5q-5 11 5 22z" />
    <glyph glyph-name="Upsilontonos" unicode="&#x38e;" horiz-adv-x="534" 
d="M226 295l-191 437q-3 8 -3 16q0 16 12 28.5t29 12.5q27 0 38 -24l145 -332q3 -8 11 -8q7 0 12 8l145 331q10 24 37 24q18 0 29.5 -12t11.5 -28q0 -10 -3 -17l-191 -436v-253q0 -17 -12 -29t-29 -12t-29 12t-12 29v253zM248 885l89 113q4 7 10 9q12 6 26 0.5t21 -20.5
q13 -23 -7 -38l-111 -91q-21 -16 -33 5q-5 11 5 22z" />
    <glyph glyph-name="Omegatonos" unicode="&#x38f;" horiz-adv-x="902" 
d="M63 42q0 17 12.5 30t29.5 13h100q-141 114 -142 315v4q0 97 32.5 175.5t87 127t122 74t142.5 25.5t144 -26t124.5 -75t88.5 -127.5t33 -175.5q0 -202 -132 -317h92q17 0 29.5 -13t12.5 -30t-12.5 -29.5t-29.5 -12.5h-245q-17 0 -29.5 12.5t-12.5 29.5q0 30 30 41
q94 31 153.5 112t59.5 205q0 153 -90 239.5t-213 86.5t-213 -87t-90 -241q0 -125 60.5 -206t154.5 -109q29 -11 29 -41q0 -17 -12 -29.5t-30 -12.5h-244q-17 0 -29.5 12.5t-12.5 29.5zM24 684l89 113q4 7 10 9q12 6 26 0.5t21 -20.5q13 -23 -7 -38l-111 -91q-21 -16 -33 5
q-5 11 5 22z" />
    <glyph glyph-name="iotadieresistonos" unicode="&#x390;" horiz-adv-x="485" 
d="M158 268v229q0 17 12 29t29 12t29 -12t12 -29v-229q0 -100 57.5 -153t138.5 -53q17 0 29 -12t12 -29t-12 -29t-29 -12q-112 0 -195 75.5t-83 212.5zM50 676q0 16 10.5 27.5t30.5 11.5t30.5 -11.5t10.5 -27.5t-10.5 -27.5t-30.5 -11.5t-30.5 11.5t-10.5 27.5zM337 676
q0 16 10.5 27.5t30.5 11.5t30.5 -11.5t10.5 -27.5t-10.5 -27.5t-30.5 -11.5t-30.5 11.5t-10.5 27.5zM181 692l89 113q4 7 10 9q12 6 26 0.5t21 -20.5q13 -23 -7 -38l-111 -91q-21 -16 -33 5q-5 11 5 22z" />
    <glyph glyph-name="Alpha" unicode="&#x391;" 
d="M159 244v-203q0 -17 -12 -29t-29 -12t-29 12t-12 29v479q0 137 83 212.5t195 75.5t195 -75.5t83 -212.5v-479q0 -17 -12 -29t-29 -12t-29 12t-12 29v203q0 10 -7 17t-18 7h-343q-10 0 -17 -7t-7 -17zM551 375v144q0 102 -57 154.5t-139 52.5t-139 -52.5t-57 -153.5v-145
q0 -25 24 -25h343q25 0 25 25z" />
    <glyph glyph-name="Beta" unicode="&#x392;" horiz-adv-x="662" 
d="M373 355h-177q-10 0 -17 -7t-7 -17v-225q0 -10 7 -17t17 -7h177q71 0 107.5 39.5t36.5 97.5q0 57 -37 96.5t-107 39.5zM90 41v707q0 17 12 29t29 12h167q122 0 189 -74t67 -174q0 -72 -36 -134q-2 -2 -2 -7q0 -6 5 -11q78 -65 78 -170q0 -88 -59.5 -153.5t-166.5 -65.5
h-242q-17 0 -29 12t-12 29zM298 707h-102q-10 0 -17 -7t-7 -18v-220q0 -11 7 -18t17 -7h177q30 0 57 -6q4 0 6 2q36 47 36 108q0 69 -44.5 117.5t-129.5 48.5z" />
    <glyph glyph-name="Gamma" unicode="&#x393;" horiz-adv-x="558" 
d="M117 789h400q17 0 29 -12t12 -29t-12 -29t-29 -12h-324q-14 0 -24.5 -10.5t-10.5 -24.5v-443q0 -48 27.5 -97t69.5 -75q19 -13 19 -35q0 -16 -12 -28.5t-29 -12.5q-24 0 -56.5 31t-52.5 63q-47 74 -47 150v523q0 17 11.5 29t28.5 12z" />
    <glyph glyph-name="Delta" unicode="&#x394;" horiz-adv-x="794" 
d="M747 0h-700q-23 0 -23 21q0 11 4 18l350 730q7 16 19 16q10 0 19 -16l349 -730q5 -12 5 -18q0 -21 -23 -21zM212 93h370q32 0 32 30q0 10 -5 23l-185 392q-10 22 -28 22q-17 0 -26 -22q-30 -64 -92.5 -196t-92.5 -196q-6 -14 -6 -23q0 -30 33 -30z" />
    <glyph glyph-name="Delta" unicode="&#x2206;" horiz-adv-x="794" 
d="M747 0h-700q-23 0 -23 21q0 11 4 18l350 730q7 16 19 16q10 0 19 -16l349 -730q5 -12 5 -18q0 -21 -23 -21zM212 93h370q32 0 32 30q0 10 -5 23l-185 392q-10 22 -28 22q-17 0 -26 -22q-30 -64 -92.5 -196t-92.5 -196q-6 -14 -6 -23q0 -30 33 -30z" />
    <glyph glyph-name="Epsilon" unicode="&#x395;" horiz-adv-x="607" 
d="M491 -236q-25 -1 -36 19.5t-1 41.5t36 21q33 0 55.5 23t22.5 55t-23 55.5t-55 23.5q-8 0 -30 -6q-21 -9 -48 -14q-63 -12 -130 9t-111 67q-83 86 -83 210v248q0 124 83 210q56 59 147 76.5t163 -24.5q30 -17 23.5 -47t-41.5 -28q-5 0 -46 14q-26 8 -52 8
q-87 0 -138.5 -62.5t-51.5 -150.5q0 -83 83 -83h32q17 0 30 -10t13 -26q0 -18 -12.5 -27.5t-30.5 -9.5h-32q-83 0 -83 -88q0 -85 52 -146q52 -62 138 -62q30 -2 52 7q51 17 73 17q66 0 113.5 -47t47.5 -114t-46.5 -112.5t-113.5 -47.5z" />
    <glyph glyph-name="Zeta" unicode="&#x396;" horiz-adv-x="635" 
d="M520 -1h-457q-13 0 -22 9t-9 26q0 11 6 20l449 651h-414q-17 0 -28.5 11.5t-11.5 27.5q0 18 11.5 29.5t28.5 11.5h487q15 0 25 -10t10 -25q0 -11 -6 -20l-449 -651h420q43 0 43 -52q0 -112 -76 -200t-195 -88q-74 0 -74 43q0 18 12 29.5t28 11.5l33 -2q77 0 128.5 52.5
t60.5 125.5z" />
    <glyph glyph-name="Eta" unicode="&#x397;" horiz-adv-x="736" 
d="M564 371v377q0 17 12 29t29 12t29 -12t12 -29v-707q0 -17 -12 -29t-29 -12t-29 12t-12 29v207q0 8 -6 14t-15 6h-351q-8 0 -14 -6t-6 -14v-207q0 -17 -12 -29t-29 -12t-29 12t-12 29v707q0 17 12 29t29 12t29 -12t12 -29v-377q0 -8 6 -14.5t14 -6.5h351q9 0 15 6.5
t6 14.5z" />
    <glyph glyph-name="Theta" unicode="&#x398;" horiz-adv-x="920" 
d="M460 725q-62 0 -117.5 -20.5t-101 -59.5t-72.5 -104t-27 -147t27 -147.5t72.5 -104.5t101.5 -59.5t117 -20.5q129 0 223.5 86t94.5 246q0 82 -27.5 147t-73 104t-101 59.5t-116.5 20.5zM60 394q0 101 34.5 182t91.5 130t127.5 75t146.5 26q75 0 145.5 -26t128 -75
t92 -130t34.5 -182t-34.5 -182.5t-92 -130.5t-128 -75t-145.5 -26t-145.5 26t-128 75t-92 130.5t-34.5 182.5zM302 395q0 15 10.5 25t24.5 10h245q15 0 25 -10t10 -25q0 -14 -10 -24.5t-25 -10.5h-245q-14 0 -24.5 10.5t-10.5 24.5z" />
    <glyph glyph-name="Iota" unicode="&#x399;" horiz-adv-x="262" 
d="M90 269v498q0 17 12 29t29 12t29 -12t12 -29v-726q0 -17 -12 -29t-29 -12t-29 12t-12 29v228z" />
    <glyph glyph-name="Kappa" unicode="&#x39a;" horiz-adv-x="527" 
d="M191 620l286 -560q4 -7 4 -19q0 -16 -11.5 -28.5t-28.5 -12.5q-27 0 -37 22l-232 455v-436q0 -17 -12 -29t-29 -12t-29 12t-12 29v707q0 17 12 29t29 12t29 -12t12 -29v-20q82 80 203 80q63 0 63 -41q0 -18 -12.5 -30t-32.5 -12q-7 1 -19 1q-56 0 -107 -28t-76 -78z" />
    <glyph glyph-name="Lambda" unicode="&#x39b;" horiz-adv-x="744" 
d="M27 57l307 705q12 26 38 26q30 0 38 -26l307 -705q3 -8 3 -17q0 -16 -11.5 -28t-29.5 -12q-27 0 -37 24l-258 594q-5 8 -12 8q-8 0 -11 -8l-258 -594q-11 -24 -38 -24q-17 0 -29 12.5t-12 28.5q0 9 3 16z" />
    <glyph glyph-name="Mu" unicode="&#x39c;" horiz-adv-x="1184" 
d="M159 520v-479q0 -17 -12 -29t-29 -12t-29 12t-12 29v479q0 137 83 212.5t195 75.5q72 0 135.5 -32.5t101.5 -94.5q38 62 101.5 94.5t135.5 32.5q112 0 195 -75.5t83 -212.5v-479q0 -17 -12 -29t-29 -12t-29 12t-12 29v479q0 101 -57 153.5t-139 52.5t-139 -52.5
t-57 -153.5v-212q0 -17 -12 -29t-29 -12t-29 12t-12 29v213q0 100 -57 152.5t-139 52.5t-139 -52.5t-57 -153.5z" />
    <glyph glyph-name="Nu" unicode="&#x39d;" horiz-adv-x="746" 
d="M353 808q74 0 135 -34.5t98 -95.5q19 30 51.5 61t57.5 31q19 0 31 -12t12 -30q0 -12 -9.5 -21.5t-22 -17.5t-30 -26.5t-30.5 -43.5q-16 -36 -16 -79v-501q0 -39 -44 -39q-43 0 -43 39v485q0 83 -55 143.5t-135 60.5q-81 0 -135 -61t-54 -146v-482q0 -39 -46 -39
q-41 0 -41 39v482q0 120 80 203.5t196 83.5z" />
    <glyph glyph-name="Xi" unicode="&#x39e;" horiz-adv-x="633" 
d="M146 430h342q14 0 24.5 -10.5t10.5 -24.5q0 -15 -10.5 -25t-24.5 -10h-342q-14 0 -24.5 10t-10.5 25q0 14 10.5 24.5t24.5 10.5zM534 707h-434q-17 0 -29 12t-12 29t12 29t29 12h434q17 0 29 -12t12 -29t-12 -29t-29 -12zM546 0h-459q-17 0 -29 12t-12 29t12 29t29 12
h459q17 0 29 -12t12 -29t-12 -29t-29 -12z" />
    <glyph glyph-name="Omicron" unicode="&#x39f;" horiz-adv-x="592" 
d="M159 581v-373q0 -62 40 -104t97 -42t97 42t40 104v373q0 63 -40 105t-97 42t-97 -42t-40 -105zM296 -20q-92 0 -155.5 66.5t-63.5 161.5v373q0 94 62.5 161t154.5 67q93 0 157 -67.5t64 -160.5v-373q0 -95 -63.5 -161.5t-155.5 -66.5z" />
    <glyph glyph-name="Pi" unicode="&#x3a0;" horiz-adv-x="608" 
d="M474 0q-18 0 -30.5 12.5t-12.5 30.5v634q0 10 -7 17t-18 7h-205q-10 0 -17 -7t-7 -17v-634q0 -18 -12.5 -30.5t-30.5 -12.5q-19 0 -31.5 12.5t-12.5 30.5v702q0 18 12.5 30.5t30.5 12.5h341q18 0 31 -12.5t13 -30.5v-702q0 -18 -13 -30.5t-31 -12.5z" />
    <glyph glyph-name="Rho" unicode="&#x3a1;" horiz-adv-x="692" 
d="M90 41v707q0 17 12 29t29 12h237q112 0 195 -75.5t83 -212.5t-83 -212t-195 -75q-80 0 -150 40q-10 7 -22 7q-24 0 -24 -29v-191q0 -17 -12 -29t-29 -12t-29 12t-12 29zM368 707h-176q-20 -2 -20 -21v-185q0 -100 57 -152.5t139 -52.5t139 52.5t57 152.5t-57 153t-139 53
z" />
    <glyph glyph-name="Sigma" unicode="&#x3a3;" horiz-adv-x="513" 
d="M96 788h332q18 0 30.5 -12.5t12.5 -30.5t-12.5 -31t-30.5 -13h-233q-13 0 -13 -12q0 -1 1 -2q1 -3 1 -5l139 -231q6 -10 6 -22q0 -8 -5 -21l-154 -303l-2 -6q0 -12 13 -12h256q18 0 31 -13t13 -31t-13 -30.5t-31 -12.5h-347q-19 0 -31.5 13t-12.5 30q0 7 5 20l175 344
q5 13 5 18q0 11 -6 22l-166 275q-6 10 -6 23q0 18 11.5 30.5t31.5 12.5z" />
    <glyph glyph-name="Tau" unicode="&#x3a4;" horiz-adv-x="508" 
d="M295 672v-631q0 -17 -12 -29t-29 -12t-29 12t-12 29v631q0 14 -10.5 24.5t-24.5 10.5h-129q-17 0 -29 12t-12 29t12 29t29 12h410q17 0 29 -12t12 -29t-12 -29t-29 -12h-129q-14 0 -24.5 -10.5t-10.5 -24.5z" />
    <glyph glyph-name="Upsilon" unicode="&#x3a5;" horiz-adv-x="534" 
d="M226 295l-191 437q-3 8 -3 16q0 16 12 28.5t29 12.5q27 0 38 -24l145 -332q3 -8 11 -8q7 0 12 8l145 331q10 24 37 24q18 0 29.5 -12t11.5 -28q0 -10 -3 -17l-191 -436v-253q0 -17 -12 -29t-29 -12t-29 12t-12 29v253z" />
    <glyph glyph-name="Phi" unicode="&#x3a6;" horiz-adv-x="920" 
d="M520 66q111 20 184.5 103t73.5 223q0 141 -73.5 224t-184.5 103q-11 2 -18 -5.5t-7 -18.5v-606q0 -10 7 -17.5t18 -5.5zM400 719q-112 -20 -185 -103t-73 -224q0 -140 73.5 -223t184.5 -103q9 -2 17 5.5t8 17.5v606q0 11 -7.5 18.5t-17.5 5.5zM60 392q0 180 99 285
t245 125q21 5 21 25v6q0 14 10 24.5t25 10.5q14 0 24.5 -10.5t10.5 -24.5v-6q0 -21 21 -25q68 -9 128.5 -39t109.5 -79t77.5 -124.5t28.5 -167.5q0 -178 -100 -284t-244 -126q-21 -2 -21 -24v-6q0 -14 -10.5 -24.5t-24.5 -10.5q-15 0 -25 10.5t-10 24.5v6q0 9 -6 16t-15 8
q-144 20 -244 126t-100 284z" />
    <glyph glyph-name="Chi" unicode="&#x3a7;" horiz-adv-x="883" 
d="M702 52l-229 246q-10 12 -34 14q-20 0 -34 -14l-265 -285q-13 -13 -29 -13q-17 0 -29.5 12.5t-12.5 29.5q0 13 11 27l270 290q13 16 13 35q0 23 -13 36l-236 252q-25 26 -72 43q-26 9 -26 36q0 23 12.5 35t28.5 12q7 0 15 -3q64 -26 102 -66l231 -248q11 -14 34 -14
q20 0 34 14l266 285q12 13 30 13q17 0 29 -12t12 -28q0 -15 -11 -29l-270 -290q-12 -12 -14 -36q0 -18 14 -35l235 -254q23 -23 54 -39q2 -1 7.5 -3.5t9 -4.5t9 -5t9 -6.5t7.5 -8t5.5 -10.5t1.5 -12q0 -17 -12.5 -27t-28.5 -10q-30 0 -65 23t-59 50z" />
    <glyph glyph-name="Psi" unicode="&#x3a8;" horiz-adv-x="681" 
d="M535 586q0 43 1 63t10 51t28 57q1 1 9 12.5t10.5 14.5t9.5 10.5t13 10t13 2.5q17 0 30 -11t14 -30q0 -14 -11 -28q-31 -41 -38 -66.5t-7 -78.5v-56q0 -100 -59.5 -179t-154.5 -101q-22 -5 -22 -25v-191q0 -17 -12 -29t-29 -12t-29 12t-12 29v191q0 21 -22 25
q-95 21 -154 100.5t-59 179.5v50q0 60 -6.5 85t-38.5 66q-11 14 -11 27q0 17 12.5 29.5t29.5 12.5q16 0 30 -15q41 -44 53.5 -90.5t12.5 -116.5v-46q0 -67 37.5 -122.5t100.5 -75.5q15 -1 15 11v299q0 19 12 29.5t29 10.5q16 0 28.5 -10.5t12.5 -29.5v-299q0 -12 16 -11
q62 20 100 75q17 26 28 58q10 30 10 112z" />
    <glyph glyph-name="Omega" unicode="&#x3a9;" horiz-adv-x="902" 
d="M63 42q0 17 12.5 30t29.5 13h100q-141 114 -142 315v4q0 97 32.5 175.5t87 127t122 74t142.5 25.5t144 -26t124.5 -75t88.5 -127.5t33 -175.5q0 -202 -132 -317h92q17 0 29.5 -13t12.5 -30t-12.5 -29.5t-29.5 -12.5h-245q-17 0 -29.5 12.5t-12.5 29.5q0 30 30 41
q94 31 153.5 112t59.5 205q0 153 -90 239.5t-213 86.5t-213 -87t-90 -241q0 -125 60.5 -206t154.5 -109q29 -11 29 -41q0 -17 -12 -29.5t-30 -12.5h-244q-17 0 -29.5 12.5t-12.5 29.5z" />
    <glyph glyph-name="Omega" unicode="&#x2126;" horiz-adv-x="902" 
d="M63 42q0 17 12.5 30t29.5 13h100q-141 114 -142 315v4q0 97 32.5 175.5t87 127t122 74t142.5 25.5t144 -26t124.5 -75t88.5 -127.5t33 -175.5q0 -202 -132 -317h92q17 0 29.5 -13t12.5 -30t-12.5 -29.5t-29.5 -12.5h-245q-17 0 -29.5 12.5t-12.5 29.5q0 30 30 41
q94 31 153.5 112t59.5 205q0 153 -90 239.5t-213 86.5t-213 -87t-90 -241q0 -125 60.5 -206t154.5 -109q29 -11 29 -41q0 -17 -12 -29.5t-30 -12.5h-244q-17 0 -29.5 12.5t-12.5 29.5z" />
    <glyph glyph-name="Iotadieresis" unicode="&#x3aa;" horiz-adv-x="262" 
d="M90 269v498q0 17 12 29t29 12t29 -12t12 -29v-726q0 -17 -12 -29t-29 -12t-29 12t-12 29v228zM10 947q0 16 10.5 27.5t30.5 11.5t30.5 -11.5t10.5 -27.5t-10.5 -27.5t-30.5 -11.5t-30.5 11.5t-10.5 27.5zM170 947q0 16 10.5 27.5t30.5 11.5t30.5 -11.5t10.5 -27.5
t-10.5 -27.5t-30.5 -11.5t-30.5 11.5t-10.5 27.5z" />
    <glyph glyph-name="Upsilondieresis" unicode="&#x3ab;" horiz-adv-x="534" 
d="M226 295l-191 437q-3 8 -3 16q0 16 12 28.5t29 12.5q27 0 38 -24l145 -332q3 -8 11 -8q7 0 12 8l145 331q10 24 37 24q18 0 29.5 -12t11.5 -28q0 -10 -3 -17l-191 -436v-253q0 -17 -12 -29t-29 -12t-29 12t-12 29v253zM146 888q0 16 10.5 27.5t30.5 11.5t30.5 -11.5
t10.5 -27.5t-10.5 -27.5t-30.5 -11.5t-30.5 11.5t-10.5 27.5zM306 888q0 16 10.5 27.5t30.5 11.5t30.5 -11.5t10.5 -27.5t-10.5 -27.5t-30.5 -11.5t-30.5 11.5t-10.5 27.5z" />
    <glyph glyph-name="alphatonos" unicode="&#x3ac;" horiz-adv-x="724" 
d="M534 267q0 100 -58 154t-138 54q-79 0 -137.5 -55.5t-58.5 -152.5t58.5 -152t137.5 -55q81 0 138.5 54t57.5 153zM610 196q-1 -9 -1 -21q0 -39 13 -65t46 -65q16 -15 7.5 -37.5t-28.5 -28.5t-41 13q-13 13 -44 57q-12 22 -25 9q-79 -79 -199 -79q-53 0 -102 18t-89 52.5
t-63.5 91t-23.5 126.5q0 136 82.5 213t195.5 77q122 0 199 -81q9 -9 18.5 -0.5t27.5 37.5q31 43 53 43q17 0 29 -12t12 -29q0 -15 -9 -25q-47 -57 -56 -95q-3 -23 -2.5 -36t3.5 -43.5t3 -48.5q0 -25 -6 -71zM319 632l89 113q4 7 10 9q12 6 26 0.5t21 -20.5q13 -23 -7 -38
l-111 -91q-21 -16 -33 5q-5 11 5 22z" />
    <glyph glyph-name="epsilontonos" unicode="&#x3ad;" horiz-adv-x="529" 
d="M425 80q7 4 17 4q17 0 29 -12t12 -29q0 -27 -24 -37q-53 -26 -121 -26q-112 0 -195 75.5t-83 212.5t82.5 212t195.5 75q67 0 120 -25q25 -12 25 -38q0 -17 -12 -29t-29 -12q-10 0 -17 4q-41 18 -87 18q-61 0 -109.5 -30t-71.5 -88q-8 -25 3.5 -39t29.5 -14h148
q15 0 25 -10t10 -25q0 -14 -10 -24.5t-25 -10.5h-147q-19 0 -30.5 -14t-3.5 -39q23 -58 72 -87.5t109 -29.5q46 0 87 18zM322 663l129 64q6 3 13 3q13 0 23.5 -11t10.5 -26q0 -26 -23 -32l-139 -35q-12 -3 -19.5 2.5t-7.5 15.5q0 13 13 19z" />
    <glyph glyph-name="etatonos" unicode="&#x3ae;" horiz-adv-x="716" 
d="M167 515q8 -14 22 -14q7 0 15 5q74 50 164 50q113 0 195.5 -75t82.5 -212v-491q0 -17 -12 -29t-29 -12t-29 12t-12 29v490q0 101 -57 153.5t-139 52.5q-81 0 -138.5 -52.5t-57.5 -151.5v-229q0 -17 -12 -29t-29 -12t-29 12t-12 29v455q0 17 12 29t29 12q26 0 36 -22z
M338 627l89 113q4 7 10 9q12 6 26 0.5t21 -20.5q13 -23 -7 -38l-111 -91q-21 -16 -33 5q-5 11 5 22z" />
    <glyph glyph-name="iotatonos" unicode="&#x3af;" horiz-adv-x="440" 
d="M65 268v229q0 17 12 29t29 12t29 -12t12 -29v-229q0 -100 57.5 -153t138.5 -53q17 0 29 -12t12 -29t-12 -29t-29 -12q-112 0 -195 75.5t-83 212.5zM95 658l89 113q4 7 10 9q12 6 26 0.5t21 -20.5q13 -23 -7 -38l-111 -91q-21 -16 -33 5q-5 11 5 22z" />
    <glyph glyph-name="upsilondieresistonos" unicode="&#x3b0;" horiz-adv-x="707" 
d="M172 496v-228q0 -97 61 -151t134 -54q79 0 137 55t58 149q0 83 -48 141q-9 11 -9 26q0 17 11.5 29t28.5 12q20 0 32 -14q67 -79 67 -194q0 -125 -82.5 -206t-192.5 -81q-44 0 -86 15q-32 10 -59.5 27.5t-35.5 17.5q-3 0 -5.5 -1t-4 -2t-3.5 -4l-3 -4.5t-3.5 -5.5t-3.5 -5
q-11 -18 -34 -18q-17 0 -29 12t-12 29v455q0 17 12 29t29 12t29 -12t12 -29zM190 678q0 16 10.5 27.5t30.5 11.5t30.5 -11.5t10.5 -27.5t-10.5 -27.5t-30.5 -11.5t-30.5 11.5t-10.5 27.5zM477 678q0 16 10.5 27.5t30.5 11.5t30.5 -11.5t10.5 -27.5t-10.5 -27.5t-30.5 -11.5
t-30.5 11.5t-10.5 27.5zM321 694l89 113q4 7 10 9q12 6 26 0.5t21 -20.5q13 -23 -7 -38l-111 -91q-21 -16 -33 5q-5 11 5 22z" />
    <glyph glyph-name="alpha" unicode="&#x3b1;" 
d="M534 267q0 100 -58 154t-138 54q-79 0 -137.5 -55.5t-58.5 -152.5t58.5 -152t137.5 -55q81 0 138.5 54t57.5 153zM610 196q-1 -9 -1 -21q0 -39 13 -65t46 -65q16 -15 7.5 -37.5t-28.5 -28.5t-41 13q-13 13 -44 57q-12 22 -25 9q-79 -79 -199 -79q-53 0 -102 18t-89 52.5
t-63.5 91t-23.5 126.5q0 136 82.5 213t195.5 77q122 0 199 -81q9 -9 18.5 -0.5t27.5 37.5q31 43 53 43q17 0 29 -12t12 -29q0 -15 -9 -25q-47 -57 -56 -95q-3 -23 -2.5 -36t3.5 -43.5t3 -48.5q0 -25 -6 -71z" />
    <glyph glyph-name="beta" unicode="&#x3b2;" horiz-adv-x="591" 
d="M77 -221v491q0 118 77 202t187 84q65 0 108.5 -45.5t43.5 -106.5q0 -33 -17 -69v-3l1 -2q54 -57 54 -139q0 -85 -59 -148t-151 -63q-45 0 -91.5 20.5t-46.5 52.5q0 16 11 28t29 12q7 0 38 -15.5t60 -15.5q53 0 90.5 37t37.5 89q0 102 -108 124q-9 1 -9 12q0 12 9 12
q29 0 49.5 20.5t20.5 49.5q0 30 -20 50.5t-50 20.5q-75 0 -128.5 -62t-53.5 -145v-491q0 -17 -12 -29t-29 -12t-29 12t-12 29z" />
    <glyph glyph-name="gamma" unicode="&#x3b3;" horiz-adv-x="553" 
d="M234 -26q0 9 -2 23q-6 28 -14 44l-190 438q-4 7 -4 18q0 17 12 29t29 12q25 0 36 -23l162 -373q3 -7 10 -7t10 7l159 371q10 25 38 25q17 0 29 -12t12 -29q0 -10 -5 -18l-188 -438q-12 -31 -12 -62q0 -50 26.5 -97t69.5 -75q19 -12 19 -35q0 -16 -11.5 -28.5t-28.5 -12.5
q-25 0 -56.5 30t-53.5 64q-46 72 -47 149z" />
    <glyph glyph-name="delta" unicode="&#x3b4;" horiz-adv-x="679" 
d="M534 269q0 99 -58 153t-138 54q-79 0 -137.5 -55t-58.5 -152t58.5 -152t137.5 -55q81 0 138.5 53.5t57.5 153.5zM616 269q0 -136 -82.5 -212.5t-195.5 -76.5q-114 0 -196 75.5t-82 213.5q0 119 64.5 193t160.5 91q20 5 20 25l-1 6q-2 18 -2 27q0 64 45 109t109 45
q52 0 89 -28q18 -14 18 -34q0 -17 -12 -29t-29 -12q-13 0 -24 8q-19 13 -42 13q-30 0 -51 -21t-21 -51q0 -49 44 -67q83 -27 135.5 -98t52.5 -177z" />
    <glyph glyph-name="epsilon" unicode="&#x3b5;" horiz-adv-x="529" 
d="M425 80q7 4 17 4q17 0 29 -12t12 -29q0 -27 -24 -37q-53 -26 -121 -26q-112 0 -195 75.5t-83 212.5t82.5 212t195.5 75q67 0 120 -25q25 -12 25 -38q0 -17 -12 -29t-29 -12q-10 0 -17 4q-41 18 -87 18q-61 0 -109.5 -30t-71.5 -88q-8 -25 3.5 -39t29.5 -14h148
q15 0 25 -10t10 -25q0 -14 -10 -24.5t-25 -10.5h-147q-19 0 -30.5 -14t-3.5 -39q23 -58 72 -87.5t109 -29.5q46 0 87 18z" />
    <glyph glyph-name="zeta" unicode="&#x3b6;" horiz-adv-x="589" 
d="M501 471l-320 -368q-3 -3 -3 -8q0 -13 12 -13h192q72 0 123.5 -52t51.5 -124q0 -73 -50 -123.5t-125 -52.5q-19 2 -29.5 13.5t-10.5 26.5t10.5 26.5t29.5 13.5q41 3 67.5 29t26.5 67q0 39 -27.5 67t-66.5 28h-314q-16 0 -26 11.5t-10 27.5q0 18 11 29l320 368
q19 21 -10 21h-246q-17 0 -28.5 11.5t-11.5 28.5t11.5 28.5t28.5 11.5h368q17 0 27 -11t10 -29q0 -15 -11 -27z" />
    <glyph glyph-name="eta" unicode="&#x3b7;" horiz-adv-x="716" 
d="M167 515q8 -14 22 -14q7 0 15 5q74 50 164 50q113 0 195.5 -75t82.5 -212v-491q0 -17 -12 -29t-29 -12t-29 12t-12 29v490q0 101 -57 153.5t-139 52.5q-81 0 -138.5 -52.5t-57.5 -151.5v-229q0 -17 -12 -29t-29 -12t-29 12t-12 29v455q0 17 12 29t29 12q26 0 36 -22z" />
    <glyph glyph-name="theta" unicode="&#x3b8;" horiz-adv-x="592" 
d="M296 -20q-92 0 -155.5 66.5t-63.5 161.5v121q0 95 63.5 161.5t155.5 66.5t155.5 -66.5t63.5 -161.5v-121q0 -95 -63.5 -161.5t-155.5 -66.5zM433 306v23q0 62 -40 104t-97 42t-97 -42t-40 -104v-23q0 -12 12 -12h250q12 0 12 12zM159 231v-23q0 -62 40 -104t97 -42t97 42
t40 104v23q0 13 -12 13h-250q-12 0 -12 -13z" />
    <glyph glyph-name="iota" unicode="&#x3b9;" horiz-adv-x="428" 
d="M77 268v229q0 17 12 29t29 12t29 -12t12 -29v-229q0 -100 57.5 -153t138.5 -53q17 0 29 -12t12 -29t-12 -29t-29 -12q-112 0 -195 75.5t-83 212.5z" />
    <glyph glyph-name="kappa" unicode="&#x3ba;" horiz-adv-x="692" 
d="M446 339q88 -24 144 -94.5t56 -182.5v-21q0 -17 -12 -29t-29 -12t-29 12t-12 29v21q0 100 -57 152.5t-139 52.5t-139 -52.5t-57 -152.5v-21q0 -17 -12 -29t-29 -12t-29 12t-12 29v456q0 17 12 29t29 12t29 -12t12 -29v-173q0 -10 7 -17.5t18 -7.5q5 0 13 5q38 22 84 36
q14 3 24 16l112 165q12 17 34 17q17 0 29 -12t12 -28q0 -13 -8 -24l-64 -97q-5 -8 -5 -15q0 -18 18 -23z" />
    <glyph glyph-name="lambda" unicode="&#x3bb;" horiz-adv-x="610" 
d="M499 25l-159 371q-3 7 -10 7t-10 -7l-161 -373q-12 -23 -37 -23q-17 0 -29 12t-12 29q0 10 4 18l190 438q11 23 6 38l-35 80q-26 60 -77 86q-51 29 -104 24q-53 -3 -96 -24q-7 -4 -20 -4q-16 0 -27 11t-13 29q0 23 21 36q110 53 215 25q40 -10 71 -28q69 -39 104 -119
l254 -592q4 -8 4 -18q0 -17 -12 -29t-29 -12q-26 0 -38 25z" />
    <glyph glyph-name="uni03BC" unicode="&#x3bc;" horiz-adv-x="734" 
d="M562 271v225q0 17 12 29t29 12t29 -12t12 -29v-454q0 -20 -12.5 -30.5t-31.5 -10.5q-23 0 -35 14q-1 1 -4.5 5.5t-5.5 6t-5.5 3.5t-7.5 2q-10 0 -37.5 -15.5t-51.5 -23.5q-41 -12 -88 -12q-99 0 -171 60q-4 4 -9 4q-13 0 -13 -14v-252q0 -17 -12 -29t-29 -12t-29 12
t-12 29v717q0 17 11.5 29t28.5 12t29 -12.5t12 -29.5v-224q0 -98 59.5 -153t135.5 -55q78 0 137 53.5t59 154.5z" />
    <glyph glyph-name="nu" unicode="&#x3bd;" horiz-adv-x="561" 
d="M291 141l159 371q10 25 38 25q17 0 29 -12t12 -29q0 -10 -5 -18l-188 -438q-18 -40 -56 -40q-35 0 -54 40l-190 438q-11 11 0 35t37 24q25 0 36 -23l162 -373q3 -7 10 -7t10 7z" />
    <glyph glyph-name="xi" unicode="&#x3be;" horiz-adv-x="622" 
d="M480 -236q-25 -1 -36 19.5t-1 41.5t36 21q33 0 55.5 23t22.5 55t-23 55.5t-55 23.5q-8 0 -30 -6q-21 -9 -48 -14q-63 -12 -130 9t-111 67q-83 86 -83 210v248q0 124 83 210q56 59 147 76.5t163 -24.5q30 -17 23.5 -47t-41.5 -28q-5 0 -46 14q-26 8 -52 8
q-87 0 -138.5 -62.5t-51.5 -150.5q0 -83 83 -83h32q17 0 30 -10t13 -26q0 -18 -12.5 -27.5t-30.5 -9.5h-32q-83 0 -83 -88q0 -85 52 -146q52 -62 138 -62q30 -2 52 7q51 17 73 17q66 0 113.5 -47t47.5 -114t-46.5 -112.5t-113.5 -47.5z" />
    <glyph glyph-name="omicron" unicode="&#x3bf;" horiz-adv-x="676" 
d="M60 268q0 137 82.5 212t195.5 75q112 0 195 -75t83 -212t-83 -212.5t-195 -75.5t-195 75.5t-83 212.5zM338 473q-82 0 -139 -52.5t-57 -152.5q0 -101 57 -153.5t139 -52.5t139 52.5t57 153.5q0 100 -57 152.5t-139 52.5z" />
    <glyph glyph-name="pi" unicode="&#x3c0;" horiz-adv-x="715" 
d="M448 427v-155q0 -88 53.5 -148t135.5 -60h16q54 0 54 -42q0 -40 -70 -40h-4q-118 0 -195 85.5t-77 204.5v155q0 10 -7 17t-17 7h-131q-11 0 -18 -7t-7 -17v-383q0 -21 -12.5 -32t-31.5 -11q-18 0 -30.5 11t-12.5 32v402q0 5 -7 6q-20 2 -30.5 13.5t-10.5 27.5q0 18 12 31
t31 13h434q20 0 31 -13t11 -30q0 -18 -11 -30.5t-31 -12.5h-50q-11 0 -18 -7t-7 -17z" />
    <glyph glyph-name="rho" unicode="&#x3c1;" horiz-adv-x="696" 
d="M355 475q-82 0 -139 -52.5t-57 -152.5q0 -101 57 -153.5t139 -52.5t139 52.5t57 153.5q0 100 -57 152.5t-139 52.5zM77 -220v490q0 137 82.5 212t195.5 75q112 0 195 -75t83 -212t-83 -212.5t-195 -75.5q-98 0 -173 57q-6 3 -11 3q-12 0 -12 -13v-249q0 -17 -12 -29
t-29 -12t-29 12t-12 29z" />
    <glyph glyph-name="sigma.alt" unicode="&#x3c2;" horiz-adv-x="590" 
d="M478 -95l6 1q22 0 36.5 15.5t14.5 35.5q0 23 -14.5 40t-38.5 17q-16 0 -57.5 -15.5t-65.5 -15.5q-8 -1 -23 -1q-121 0 -198.5 83.5t-77.5 208.5t82.5 204t194.5 79q54 0 91 -15t37 -43q0 -17 -11 -29t-31 -12q-9 0 -34.5 9.5t-49.5 9.5q-79 0 -138 -56.5t-59 -147.5
q0 -83 51.5 -147t136.5 -64q26 0 49.5 6t46 15t31.5 11q16 2 24 2q56 0 95.5 -39.5t39.5 -95.5q0 -53 -35.5 -95t-88.5 -42q-47 0 -47 40q0 14 9.5 26t23.5 15z" />
    <glyph glyph-name="sigma" unicode="&#x3c3;" horiz-adv-x="679" 
d="M338 473q-82 0 -139 -52.5t-57 -152.5q0 -101 57 -153.5t139 -52.5t139 52.5t57 153.5q0 100 -57 152.5t-139 52.5zM60 268q0 137 82.5 212t195.5 75h237q17 0 29 -12t12 -29t-12 -29t-29 -12h-21q-4 0 -6 -3.5t0 -5.5q68 -78 68 -196q0 -137 -83 -212.5t-195 -75.5
t-195 75.5t-83 212.5z" />
    <glyph glyph-name="tau" unicode="&#x3c4;" horiz-adv-x="385" 
d="M24 504q0 15 10.5 25t24.5 10h245q15 0 25 -10t10 -25q0 -14 -10 -24.5t-25 -10.5h-61q-10 0 -17 -7t-7 -18v-216q0 -50 26.5 -97t69.5 -75q19 -12 19 -35q0 -16 -11.5 -28.5t-28.5 -12.5q-25 0 -56.5 30t-53.5 64q-47 74 -47 149v221q0 25 -25 25h-53q-14 0 -24.5 10.5
t-10.5 24.5z" />
    <glyph glyph-name="upsilon" unicode="&#x3c5;" horiz-adv-x="707" 
d="M172 496v-228q0 -97 61 -151t134 -54q79 0 137 55t58 149q0 83 -48 141q-9 11 -9 26q0 17 11.5 29t28.5 12q20 0 32 -14q67 -79 67 -194q0 -125 -82.5 -206t-192.5 -81q-44 0 -86 15q-32 10 -59.5 27.5t-35.5 17.5q-3 0 -5.5 -1t-4 -2t-3.5 -4l-3 -4.5t-3.5 -5.5t-3.5 -5
q-11 -18 -34 -18q-17 0 -29 12t-12 29v455q0 17 12 29t29 12t29 -12t12 -29z" />
    <glyph glyph-name="phi" unicode="&#x3c6;" horiz-adv-x="682" 
d="M619 268q0 -116 -61.5 -189.5t-155.5 -92.5q-23 -5 -29 -27q-29 -92 -119 -153q-11 -6 -22 -6q-18 0 -30.5 12t-12.5 30q0 14 14.5 26t38.5 34t41 55q1 1 1 8q0 19 -17 24q-88 22 -146 93.5t-58 185.5q0 117 62 190.5t155 92.5q23 5 29 27q29 92 120 153q9 6 21 6
q19 0 31.5 -12t12.5 -30q0 -14 -15 -26t-39.5 -34t-40.5 -55l-2 -8q0 -20 18 -24q89 -23 146.5 -95.5t57.5 -184.5zM284 467q-60 -17 -99.5 -69t-39.5 -130t39 -129.5t99 -68.5l3 -1q11 0 11 13v373q0 12 -13 12zM537 268q0 80 -39 131t-100 69q-13 0 -13 -12v-375
q0 -12 10 -12q57 0 99.5 61t42.5 138z" />
    <glyph glyph-name="chi" unicode="&#x3c7;" horiz-adv-x="628" 
d="M439 77l-97 103q-11 14 -34 14q-20 0 -34 -14l-156 -167q-13 -13 -29 -13q-17 0 -29.5 12.5t-12.5 29.5q0 13 11 27l161 172q13 16 13 35q0 23 -13 36l-97 103q-25 26 -72 43q-26 9 -26 36q0 22 12.5 34.5t28.5 12.5q7 0 15 -3q64 -26 102 -66l92 -99q14 -14 34 -14
t34 14l156 166q12 13 30 13q17 0 29 -12t12 -28q0 -15 -11 -29l-160 -171q-12 -12 -14 -36q0 -18 14 -35l103 -111q23 -23 54 -39q2 -1 7.5 -3.5t9 -4.5t9 -5t9 -6.5t7.5 -8t5.5 -10.5t1.5 -12q-1 -17 -13.5 -27t-27.5 -10q-30 0 -65 23t-59 50z" />
    <glyph glyph-name="psi" unicode="&#x3c8;" horiz-adv-x="713" 
d="M551 269v71q1 70 16 106q7 19 23 41q1 1 9 12.5t10.5 14.5t9.5 10.5t13 10t13 2.5q17 0 30 -11t14 -30q0 -14 -11 -28q-28 -36 -40 -71q-3 -10 -5 -33v-97q0 -100 -59.5 -179t-154.5 -101q-22 -5 -22 -25v-183q0 -17 -12 -29t-29 -12t-29 12t-12 29v183q0 21 -22 25
q-95 21 -154 100.5t-59 179.5q0 83 -1 96q0 17 -5 35q-7 30 -39 70q-11 14 -11 27q0 17 12.5 29.5t29.5 12.5q16 0 30 -15q41 -45 55 -97q8 -26 9 -52q2 -36 2 -104q0 -67 37.5 -122.5t100.5 -75.5q1 -1 4 -1q11 0 11 12v148q0 19 12 29.5t29 10.5q16 0 28.5 -10.5
t12.5 -29.5v-148q0 -12 12 -12q3 0 4 1q62 20 100 75.5t38 122.5z" />
    <glyph glyph-name="omega" unicode="&#x3c9;" horiz-adv-x="682" 
d="M577 0h-176q-15 0 -25 10.5t-10 24.5q0 13 8 22.5t20 11.5q62 15 102.5 66.5t40.5 133.5q0 100 -57 152.5t-139 52.5t-139 -52.5t-57 -152.5q0 -81 40.5 -133.5t101.5 -66.5q13 -2 21 -11.5t8 -22.5q0 -14 -10 -24.5t-25 -10.5h-176q-14 0 -24.5 10.5t-10.5 24.5
t10.5 24.5t24.5 10.5h14q7 0 7 6q0 2 -1 3q-62 75 -62 190q0 137 82.5 212t195.5 75q112 0 195 -75t83 -212q0 -115 -62 -190q-1 -1 -1 -3q0 -6 7 -6h14q14 0 24.5 -10.5t10.5 -24.5t-10.5 -24.5t-24.5 -10.5z" />
    <glyph glyph-name="iotadieresis" unicode="&#x3ca;" horiz-adv-x="392" 
d="M65 268v229q0 17 12 29t29 12t29 -12t12 -29v-229q0 -100 57.5 -153t138.5 -53q17 0 29 -12t12 -29t-12 -29t-29 -12q-112 0 -195 75.5t-83 212.5zM-13 677q0 16 10.5 27.5t30.5 11.5t30.5 -11.5t10.5 -27.5t-10.5 -27.5t-30.5 -11.5t-30.5 11.5t-10.5 27.5zM147 677
q0 16 10.5 27.5t30.5 11.5t30.5 -11.5t10.5 -27.5t-10.5 -27.5t-30.5 -11.5t-30.5 11.5t-10.5 27.5z" />
    <glyph glyph-name="upsilondieresis" unicode="&#x3cb;" horiz-adv-x="707" 
d="M172 496v-228q0 -97 61 -151t134 -54q79 0 137 55t58 149q0 83 -48 141q-9 11 -9 26q0 17 11.5 29t28.5 12q20 0 32 -14q67 -79 67 -194q0 -125 -82.5 -206t-192.5 -81q-44 0 -86 15q-32 10 -59.5 27.5t-35.5 17.5q-3 0 -5.5 -1t-4 -2t-3.5 -4l-3 -4.5t-3.5 -5.5t-3.5 -5
q-11 -18 -34 -18q-17 0 -29 12t-12 29v455q0 17 12 29t29 12t29 -12t12 -29zM232 677q0 16 10.5 27.5t30.5 11.5t30.5 -11.5t10.5 -27.5t-10.5 -27.5t-30.5 -11.5t-30.5 11.5t-10.5 27.5zM392 677q0 16 10.5 27.5t30.5 11.5t30.5 -11.5t10.5 -27.5t-10.5 -27.5t-30.5 -11.5
t-30.5 11.5t-10.5 27.5z" />
    <glyph glyph-name="omicrontonos" unicode="&#x3cc;" horiz-adv-x="676" 
d="M60 268q0 137 82.5 212t195.5 75q112 0 195 -75t83 -212t-83 -212.5t-195 -75.5t-195 75.5t-83 212.5zM338 473q-82 0 -139 -52.5t-57 -152.5q0 -101 57 -153.5t139 -52.5t139 52.5t57 153.5q0 100 -57 152.5t-139 52.5zM68 630l89 113q4 7 10 9q12 6 26 0.5t21 -20.5
q13 -23 -7 -38l-111 -91q-21 -16 -33 5q-5 11 5 22z" />
    <glyph glyph-name="upsilontonos" unicode="&#x3cd;" horiz-adv-x="707" 
d="M172 496v-228q0 -97 61 -151t134 -54q79 0 137 55t58 149q0 83 -48 141q-9 11 -9 26q0 17 11.5 29t28.5 12q20 0 32 -14q67 -79 67 -194q0 -125 -82.5 -206t-192.5 -81q-44 0 -86 15q-32 10 -59.5 27.5t-35.5 17.5q-3 0 -5.5 -1t-4 -2t-3.5 -4l-3 -4.5t-3.5 -5.5t-3.5 -5
q-11 -18 -34 -18q-17 0 -29 12t-12 29v455q0 17 12 29t29 12t29 -12t12 -29zM323 633l89 113q4 7 10 9q12 6 26 0.5t21 -20.5q13 -23 -7 -38l-111 -91q-21 -16 -33 5q-5 11 5 22z" />
    <glyph glyph-name="omegatonos" unicode="&#x3ce;" horiz-adv-x="682" 
d="M577 0h-176q-15 0 -25 10.5t-10 24.5q0 13 8 22.5t20 11.5q62 15 102.5 66.5t40.5 133.5q0 100 -57 152.5t-139 52.5t-139 -52.5t-57 -152.5q0 -81 40.5 -133.5t101.5 -66.5q13 -2 21 -11.5t8 -22.5q0 -14 -10 -24.5t-25 -10.5h-176q-14 0 -24.5 10.5t-10.5 24.5
t10.5 24.5t24.5 10.5h14q7 0 7 6q0 2 -1 3q-62 75 -62 190q0 137 82.5 212t195.5 75q112 0 195 -75t83 -212q0 -115 -62 -190q-1 -1 -1 -3q0 -6 7 -6h14q14 0 24.5 -10.5t10.5 -24.5t-10.5 -24.5t-24.5 -10.5zM325 632l89 113q4 7 10 9q12 6 26 0.5t21 -20.5q13 -23 -7 -38
l-111 -91q-21 -16 -33 5q-5 11 5 22z" />
    <glyph glyph-name="stigma" unicode="&#x3db;" horiz-adv-x="573" 
d="M371 -120l6 -1q10 -2 23 -2q15 0 28.5 17t13.5 38q0 24 -16.5 39t-47.5 15q-10 0 -30.5 -1.5t-31.5 -1.5q-28 0 -78 15q-31 10 -67 36t-60 60q-51 73 -51 164q0 138 90 221q38 37 88 57t94 20q78 0 135 -28.5t60 -64.5q0 -16 -10.5 -27.5t-28.5 -11.5q-15 0 -32 13
t-45 26t-69 13q-78 0 -138.5 -58t-60.5 -158q0 -78 48 -137t140 -59q13 0 33.5 1.5t29.5 1.5q55 0 93 -41t38 -93q0 -55 -39.5 -97.5t-92.5 -42.5q-23 0 -45.5 11t-22.5 34q0 18 13 30t33 12z" />
    <glyph glyph-name="uni03F0" unicode="&#x3f0;" horiz-adv-x="628" 
d="M439 77l-97 103q-11 14 -34 14q-20 0 -34 -14l-156 -167q-13 -13 -29 -13q-17 0 -29.5 12.5t-12.5 29.5q0 13 11 27l161 172q13 16 13 35q0 23 -13 36l-97 103q-25 26 -72 43q-26 9 -26 36q0 22 12.5 34.5t28.5 12.5q7 0 15 -3q64 -26 102 -66l92 -99q14 -14 34 -14
t34 14l156 166q12 13 30 13q17 0 29 -12t12 -28q0 -15 -11 -29l-160 -171q-12 -12 -14 -36q0 -18 14 -35l103 -111q23 -23 54 -39q2 -1 7.5 -3.5t9 -4.5t9 -5t9 -6.5t7.5 -8t5.5 -10.5t1.5 -12q-1 -17 -13.5 -27t-27.5 -10q-30 0 -65 23t-59 50z" />
    <glyph glyph-name="afii10051" unicode="&#x402;" horiz-adv-x="826" 
d="M275 680v-181q6 -8 17 -8q7 0 15 5q73 50 164 50q113 0 195.5 -75t82.5 -212v-261q0 -90 -54 -157.5t-135 -94.5q-62 -21 -123 -15q-25 3 -34 28q-5 16 2 31t24 21q3 2 17 2q42 -4 88 11q58 19 95.5 66t37.5 111v257q0 101 -57 153.5t-139 52.5q-81 0 -138.5 -52.5
t-57.5 -151.5v-219q0 -17 -12 -29t-29 -12t-29 12t-12 29v639q0 15 -10.5 25t-24.5 10h-109q-17 0 -29 12t-12 29t12 29t29 12h370q17 0 29 -12t12 -29t-12 -29t-29 -12h-109q-14 0 -24.5 -10t-10.5 -25z" />
    <glyph glyph-name="afii10053" unicode="&#x404;" horiz-adv-x="529" 
d="M425 80q7 4 17 4q17 0 29 -12t12 -29q0 -27 -24 -37q-53 -26 -121 -26q-112 0 -195 75.5t-83 212.5t82.5 212t195.5 75q67 0 120 -25q25 -12 25 -38q0 -17 -12 -29t-29 -12q-10 0 -17 4q-41 18 -87 18q-61 0 -109.5 -30t-71.5 -88q-8 -25 3.5 -39t29.5 -14h148
q15 0 25 -10t10 -25q0 -14 -10 -24.5t-25 -10.5h-147q-19 0 -30.5 -14t-3.5 -39q23 -58 72 -87.5t109 -29.5q46 0 87 18z" />
    <glyph glyph-name="afii10057" unicode="&#x408;" horiz-adv-x="508" 
d="M431 767v-499q0 -137 -83 -212t-195 -75q-68 0 -121 26q-24 11 -24 37q0 17 12 29t29 12q10 0 17 -4q32 -18 87 -18q82 0 139 52.5t57 152.5v499q0 17 12 29t29 12t29 -12t12 -29z" />
    <glyph glyph-name="afii10060" unicode="&#x40b;" horiz-adv-x="738" 
d="M194 502v-140q6 -8 17 -8q7 0 15 5q73 50 164 50q113 0 195.5 -75t82.5 -212v-125q0 -68 -32 -123.5t-84 -91.5q-90 -63 -195 -52q-26 3 -35 28q-5 16 2 31t24 21q3 2 17 2q117 -7 182 76q39 47 39 112v121q0 101 -57 153.5t-139 52.5q-81 0 -138.5 -52.5t-57.5 -151.5
v-82q0 -17 -12 -29t-29 -12t-29 12t-12 29v461q0 15 -10.5 25t-24.5 10h-34q-14 0 -24.5 10.5t-10.5 24.5q0 15 10.5 25t24.5 10h34q14 0 24.5 10.5t10.5 24.5v126q0 17 12 29t29 12t29 -12t12 -29v-126q0 -14 10.5 -24.5t24.5 -10.5h123q14 0 24.5 -10t10.5 -25
q0 -14 -10.5 -24.5t-24.5 -10.5h-123q-14 0 -24.5 -10t-10.5 -25z" />
    <glyph glyph-name="afii10019" unicode="&#x412;" horiz-adv-x="662" 
d="M196 90h177q71 0 107.5 39.5t36.5 97.5q-8 136 -154 136h-167q-10 0 -17 -7t-7 -17v-225q0 -10 7 -17t17 -7zM90 49v707q0 17 12 29t29 12h167q122 0 189 -74t67 -174q0 -73 -36 -134q-2 -2 -2 -7q0 -6 5 -11q78 -75 78 -170q0 -88 -59.5 -153.5t-166.5 -65.5h-242
q-17 0 -29 12t-12 29zM196 445h177q30 0 57 -6q4 0 6 2q36 47 36 108q0 69 -44.5 117.5t-129.5 48.5h-102q-10 0 -17 -7t-7 -18v-220q0 -11 7 -18t17 -7z" />
    <glyph glyph-name="afii10020" unicode="&#x413;" horiz-adv-x="642" 
d="M177 686v-643q0 -27 -21.5 -37t-43.5 1t-22 36v709q0 33 26 42q7 3 16 3h456q27 0 37 -21.5t-1 -43.5t-36 -22h-387q-10 0 -17 -7t-7 -17z" />
    <glyph glyph-name="afii10025" unicode="&#x417;" horiz-adv-x="532" 
d="M455 520v-252q0 -137 -83 -212.5t-195 -75.5q-67 0 -120 25q-25 12 -25 38q0 17 12 29t29 12q10 0 18 -4q41 -18 86 -18q82 0 139 52.5t57 153.5v45q0 17 -12 29t-29 12h-156q-17 0 -29 12t-12 29t12 29t29 12h156q17 0 29 12t12 29v43q0 100 -57 152.5t-139 52.5
q-47 0 -87 -18q-8 -4 -17 -4q-17 0 -29 12t-12 29q0 26 24 37q53 26 121 26q113 0 195.5 -75t82.5 -212z" />
    <glyph glyph-name="El" unicode="&#x41b;" horiz-adv-x="665" 
d="M230 683v-440q0 -68 -38 -133.5t-96 -102.5q-10 -7 -23 -7q-17 0 -29 12.5t-12 28.5q0 23 19 35q44 27 69.5 73.5t27.5 98.5v501q0 17 12 29t29 12h345q17 0 29 -12t12 -29v-707q0 -17 -12 -29t-29 -12t-29 12t-12 29v641q0 11 -7 18t-17 7h-215q-10 0 -17 -7t-7 -18z
" />
    <glyph glyph-name="afii10031" unicode="&#x41d;" horiz-adv-x="736" 
d="M564 458v309q0 17 12 29t29 12t29 -12t12 -29v-726q0 -17 -12 -29t-29 -12t-29 12t-12 29v294q0 8 -6 14t-15 6h-351q-8 0 -14 -6t-6 -14v-294q0 -17 -12 -29t-29 -12t-29 12t-12 29v726q0 17 12 29t29 12t29 -12t12 -29v-309q0 -8 6 -14.5t14 -6.5h351q9 0 15 6.5
t6 14.5z" />
    <glyph glyph-name="afii10032" unicode="&#x41e;" 
d="M551 287v254q0 100 -57 152.5t-139 52.5t-139 -52.5t-57 -152.5v-254q0 -100 57 -152.5t139 -52.5t139 52.5t57 152.5zM77 287v254q0 137 83 212t195 75q113 0 195.5 -75t82.5 -212v-254q0 -137 -82.5 -212t-195.5 -75q-112 0 -195 75t-83 212z" />
    <glyph glyph-name="afii10033" unicode="&#x41f;" horiz-adv-x="608" 
d="M474 0q-18 0 -30.5 12.5t-12.5 30.5v634q0 10 -7 17t-18 7h-205q-10 0 -17 -7t-7 -17v-634q0 -18 -13 -30.5t-31 -12.5t-30.5 12.5t-12.5 30.5v702q0 18 12.5 30.5t30.5 12.5h341q18 0 31 -12.5t13 -30.5v-702q0 -18 -13 -30.5t-31 -12.5z" />
    <glyph glyph-name="afii10034" unicode="&#x420;" horiz-adv-x="696" 
d="M77 41v479q0 137 83 212.5t195 75.5t195 -75.5t83 -212.5q0 -70 -23.5 -126.5t-63.5 -90.5t-89 -52t-102 -18q-118 0 -196 75v-267q0 -17 -12 -29t-29 -12t-29 12t-12 29zM159 518q0 -99 57.5 -151t138.5 -52q82 0 139 52.5t57 152.5t-57 153t-139 53q-81 0 -138.5 -53
t-57.5 -155z" />
    <glyph glyph-name="afii10035" unicode="&#x421;" horiz-adv-x="442" 
d="M355 -19q-112 0 -195 75t-83 212v254q0 137 83 212t195 75q17 0 29 -12t12 -29t-12 -29t-29 -12q-82 0 -139 -52.5t-57 -152.5v-254q0 -100 57 -152.5t139 -52.5q17 0 29 -12t12 -29t-12 -29t-29 -12z" />
    <glyph glyph-name="afii10036" unicode="&#x422;" horiz-adv-x="508" 
d="M295 672v-631q0 -17 -12 -29t-29 -12t-29 12t-12 29v631q0 14 -10.5 24.5t-24.5 10.5h-129q-17 0 -29 12t-12 29t12 29t29 12h410q17 0 29 -12t12 -29t-12 -29t-29 -12h-129q-14 0 -24.5 -10.5t-10.5 -24.5z" />
    <glyph glyph-name="afii10037" unicode="&#x423;" horiz-adv-x="561" 
d="M318 224q-1 -77 -47 -149q-21 -33 -53.5 -63.5t-56.5 -30.5q-17 0 -28.5 12.5t-11.5 28.5q0 23 19 35q43 28 69.5 75t26.5 97q3 47 -11 82l-188 438q-5 8 -5 18q0 17 12 29t29 12q28 0 38 -25l159 -371q3 -7 10 -7t10 7l162 373q11 23 36 23q17 0 29 -12t12 -29
q0 -11 -4 -18l-190 -438q-4 -7 -6.5 -19t-4.5 -27t-3 -19q-2 -14 -3 -22z" />
    <glyph glyph-name="afii10039" unicode="&#x425;" horiz-adv-x="883" 
d="M702 52l-229 246q-10 12 -34 14q-20 0 -34 -14l-265 -285q-13 -13 -29 -13q-17 0 -29.5 12.5t-12.5 29.5q0 13 11 27l270 290q13 16 13 35q0 23 -13 36l-236 252q-25 26 -72 43q-26 9 -26 36q0 23 12.5 35t28.5 12q7 0 15 -3q64 -26 102 -66l231 -248q11 -14 34 -14
q20 0 34 14l266 285q12 13 30 13q17 0 29 -12t12 -28q0 -15 -11 -29l-270 -290q-12 -12 -14 -36q0 -18 14 -35l235 -254q23 -23 54 -39q2 -1 7.5 -3.5t9 -4.5t9 -5t9 -6.5t7.5 -8t5.5 -10.5t1.5 -12q0 -17 -12.5 -27t-28.5 -10q-30 0 -65 23t-59 50z" />
    <glyph glyph-name="afii10042" unicode="&#x428;" horiz-adv-x="949" 
d="M474 808q18 0 31 -12.5t13 -30.5v-658q2 -7 7 -13q7 -7 17 -7h205q11 0 18 7t7 17v654q0 18 12.5 30.5t30.5 12.5t31 -12.5t13 -30.5v-722q0 -18 -13 -30.5t-31 -12.5h-682q-18 0 -30.5 12.5t-12.5 30.5v722q0 18 12.5 30.5t30.5 12.5t31 -12.5t13 -30.5v-654
q0 -10 7 -17t17 -7h205q11 0 18 7t7 17v654q0 18 12.5 30.5t30.5 12.5z" />
    <glyph glyph-name="afii10043" unicode="&#x429;" horiz-adv-x="949" 
d="M474 808q18 0 31 -12.5t13 -30.5v-658q2 -7 7 -13q7 -7 17 -7h205q11 0 18 7t7 17v654q0 18 12.5 30.5t30.5 12.5t31 -12.5t13 -30.5v-722q0 -18 -13 -30.5t-31 -12.5h-682q-18 0 -30.5 12.5t-12.5 30.5v722q0 18 12.5 30.5t30.5 12.5t31 -12.5t13 -30.5v-654
q0 -10 7 -17t17 -7h205q11 0 18 7t7 17v654q0 18 12.5 30.5t30.5 12.5zM775 -123v256q2 18 14 29.5t29 11.5t29 -12t12 -29v-256q0 -17 -12 -29t-29 -12t-29 11.5t-14 29.5z" />
    <glyph glyph-name="afii10047" unicode="&#x42d;" horiz-adv-x="529" 
d="M104 80q40 -18 87 -18q60 0 109 29.5t72 87.5q8 25 -3.5 39t-30.5 14h-147q-15 0 -25 10.5t-10 24.5q0 15 10 25t25 10h148q18 0 29.5 14t3.5 39q-23 58 -71.5 88t-109.5 30q-47 0 -87 -18q-7 -4 -17 -4q-17 0 -29 12t-12 29q0 26 25 38q53 25 120 25q113 0 195.5 -75
t82.5 -212t-83 -212.5t-195 -75.5q-68 0 -121 26q-24 10 -24 37q0 17 12 29t29 12q10 0 17 -4z" />
    <glyph glyph-name="afii10049" unicode="&#x42f;" horiz-adv-x="692" 
d="M139 279q5 5 5 10q0 6 -4 9q-94 81 -94 223q0 137 82.5 212t195.5 75q90 0 164 -50q8 -5 15 -5q14 0 22 14q10 22 36 22q17 0 29 -12t12 -29v-707q0 -17 -12 -29t-29 -12t-29 12t-12 29v229q0 18 -20 18q-8 -2 -12 -5q-69 -50 -164 -50q-37 0 -73 9q-4 1 -9 2h-3
q-10 0 -19 -6q-55 -34 -80 -105q-12 -35 -12 -69q0 -12 1 -19q0 -14 -2 -17q-10 -28 -39 -28q-1 0 -2.5 0.5t-4.5 1t-6 0.5q-25 9 -28 34q-1 9 -1 26q0 53 16 97q25 71 77 120zM324 726q-82 0 -139 -52.5t-57 -152.5q0 -101 57 -153.5t139 -52.5t139 52.5t57 153.5
q0 100 -57 152.5t-139 52.5z" />
    <glyph glyph-name="afii10065" unicode="&#x430;" horiz-adv-x="693" 
d="M616 521v-252q0 -137 -83 -212.5t-195 -75.5t-195 75.5t-83 212.5t82.5 212t195.5 75q117 0 196 -76v41q0 100 -57 152.5t-139 52.5q-46 0 -87 -18q-7 -4 -17 -4q-17 0 -29 12t-12 29q0 26 24 37q60 26 121 26q112 0 195 -75t83 -212zM338 63q82 0 139 52.5t57 153.5
q0 100 -57 152.5t-139 52.5t-139 -52.5t-57 -152.5q0 -101 57 -153.5t139 -52.5z" />
    <glyph glyph-name="afii10068" unicode="&#x433;" horiz-adv-x="502" 
d="M177 426v-385q0 -27 -21.5 -37t-43.5 1t-22 36v451q0 33 26 42q7 3 16 3h296q27 0 37 -21.5t-1 -43.5t-36 -22h-227q-10 0 -17 -7t-7 -17z" />
    <glyph glyph-name="afii10070" unicode="&#x435;" horiz-adv-x="662" 
d="M618 224q-7 -36 -41 -36h-422q20 -62 74.5 -94.5t116.5 -32.5q12 0 34 4t32 4q17 0 28.5 -12t11.5 -27q0 -52 -107 -52q-117 0 -199.5 77.5t-82.5 196.5q0 142 83 222t194 80q53 0 103 -18t90 -51.5t64.5 -87t24.5 -118.5q0 -30 -4 -55zM159 271h369q12 0 12 11
q0 82 -59.5 137t-136.5 53q-74 0 -128.5 -46t-66.5 -128q-1 -3 -1 -11q0 -16 11 -16z" />
    <glyph glyph-name="afii10073" unicode="&#x437;" horiz-adv-x="529" 
d="M104 80q40 -18 87 -18q60 0 109 29.5t72 87.5q8 25 -3.5 39t-30.5 14h-147q-15 0 -25 10.5t-10 24.5q0 15 10 25t25 10h148q18 0 29.5 14t3.5 39q-23 58 -71.5 88t-109.5 30q-47 0 -87 -18q-7 -4 -17 -4q-17 0 -29 12t-12 29q0 26 25 38q53 25 120 25q113 0 195.5 -75
t82.5 -212t-83 -212.5t-195 -75.5q-68 0 -121 26q-24 10 -24 37q0 17 12 29t29 12q10 0 17 -4z" />
    <glyph glyph-name="afii10079" unicode="&#x43d;" horiz-adv-x="736" 
d="M564 330v167q0 17 12 29t29 12t29 -12t12 -29v-456q0 -17 -12 -29t-29 -12t-29 12t-12 29v166q0 8 -6 14t-15 6h-351q-8 0 -14 -6t-6 -14v-166q0 -17 -12 -29t-29 -12t-29 12t-12 29v456q0 17 12 29t29 12t29 -12t12 -29v-167q0 -8 6 -14.5t14 -6.5h351q9 0 15 6.5
t6 14.5z" />
    <glyph glyph-name="afii10080" unicode="&#x43e;" horiz-adv-x="564" 
d="M145 328v-121q0 -62 40 -104t97 -42t97 42t40 104v121q0 62 -40 104t-97 42t-97 -42t-40 -104zM282 -21q-92 0 -155.5 66.5t-63.5 161.5v121q0 95 63.5 161.5t155.5 66.5t155.5 -66.5t63.5 -161.5v-121q0 -95 -63.5 -161.5t-155.5 -66.5z" />
    <glyph glyph-name="afii10081" unicode="&#x43f;" horiz-adv-x="608" 
d="M474 22q-18 0 -30.5 12.5t-12.5 30.5v359q0 10 -7 17t-18 7h-205q-10 0 -17 -7t-7 -17v-359q0 -18 -13 -30.5t-31 -12.5t-30.5 12.5t-12.5 30.5v427q0 18 12.5 30.5t30.5 12.5h341q18 0 31 -12.5t13 -30.5v-427q0 -18 -13 -30.5t-31 -12.5z" />
    <glyph glyph-name="afii10082" unicode="&#x440;" horiz-adv-x="696" 
d="M77 -222v489q0 137 83 212.5t195 75.5t195 -75.5t83 -212.5q0 -70 -23.5 -126.5t-63.5 -90.5t-89 -52t-102 -18q-118 0 -196 75v-277q0 -17 -12 -29t-29 -12t-29 12t-12 29zM159 265q0 -99 57.5 -151t138.5 -52q82 0 139 52.5t57 152.5t-57 153t-139 53
q-81 0 -138.5 -52.5t-57.5 -155.5z" />
    <glyph glyph-name="afii10084" unicode="&#x442;" horiz-adv-x="510" 
d="M295 420v-380q0 -17 -12 -29t-29 -12t-29 12t-12 29v380q0 14 -10.5 24.5t-24.5 10.5h-129q-17 0 -29 12t-12 29t12 29t29 12h410q17 0 29 -12t12 -29t-12 -29t-29 -12h-129q-14 0 -24.5 -10.5t-10.5 -24.5z" />
    <glyph glyph-name="afii10085" unicode="&#x443;" horiz-adv-x="533" 
d="M267 145l156 366q10 25 37 25q8 0 16 -3q25 -11 25 -38q0 -8 -3 -16l-243 -571q-38 -90 -106 -135t-147 -45q-74 0 -115 24q-24 15 -24 38q0 8 3 16q11 25 38 25q8 0 15 -3q44 -18 84 -18q121 0 177 130l36 84q4 9 4 16t-4 16l-180 423q-3 8 -3 16q0 27 25 38q7 3 16 3
q27 0 38 -25z" />
    <glyph glyph-name="afii10087" unicode="&#x445;" horiz-adv-x="628" 
d="M439 77l-97 103q-11 14 -34 14q-20 0 -34 -14l-156 -167q-13 -13 -29 -13q-17 0 -29.5 12.5t-12.5 29.5q0 13 11 27l161 172q13 16 13 35q0 23 -13 36l-97 103q-25 26 -72 43q-26 9 -26 36q0 22 12.5 34.5t28.5 12.5q7 0 15 -3q64 -26 102 -66l92 -99q14 -14 34 -14
t34 14l156 166q12 13 30 13q17 0 29 -12t12 -28q0 -15 -11 -29l-160 -171q-12 -12 -14 -36q0 -18 14 -35l103 -111q23 -23 54 -39q2 -1 7.5 -3.5t9 -4.5t9 -5t9 -6.5t7.5 -8t5.5 -10.5t1.5 -12q-1 -17 -13.5 -27t-27.5 -10q-30 0 -65 23t-59 50z" />
    <glyph glyph-name="afii10089" unicode="&#x447;" horiz-adv-x="724" 
d="M77 327v168q0 17 12 29t29 12t29 -12t12 -29v-227q0 -100 57.5 -153t138.5 -53q82 0 139 53t57 153v227q0 17 12 29t29 12t29 -12t13 -29v-718q0 -17 -12 -29t-29 -12t-29 12t-12 29v280q-81 -77 -197 -77q-112 0 -195 75.5t-83 212.5v59z" />
    <glyph glyph-name="afii10094" unicode="&#x44c;" horiz-adv-x="696" 
d="M77 268v498q0 17 12 29t29 12t29 -12t12 -29v-286q78 75 196 75q53 0 102 -18t89 -52t63.5 -90.5t23.5 -126.5q0 -137 -83 -212.5t-195 -75.5t-195 75.5t-83 212.5zM159 270q0 -103 57.5 -155.5t138.5 -52.5q82 0 139 53t57 153t-57 152.5t-139 52.5q-81 0 -138.5 -52
t-57.5 -151z" />
    <glyph glyph-name="afii10095" unicode="&#x44d;" horiz-adv-x="529" 
d="M104 80q40 -18 87 -18q60 0 109 29.5t72 87.5q8 25 -3.5 39t-30.5 14h-147q-15 0 -25 10.5t-10 24.5q0 15 10 25t25 10h148q18 0 29.5 14t3.5 39q-23 58 -71.5 88t-109.5 30q-47 0 -87 -18q-7 -4 -17 -4q-17 0 -29 12t-12 29q0 26 25 38q53 25 120 25q113 0 195.5 -75
t82.5 -212t-83 -212.5t-195 -75.5q-68 0 -121 26q-24 10 -24 37q0 17 12 29t29 12q10 0 17 -4z" />
    <glyph glyph-name="afii10097" unicode="&#x44f;" horiz-adv-x="709" 
d="M517 707h-176q-82 0 -139 -52.5t-57 -152.5t57 -153t139 -53t139 53t57 153v185q0 8 -6 14t-14 6zM256 215q0 11 -9 15q-89 29 -136.5 102t-47.5 170q0 125 77 206t201 81h237q17 0 29 -12t12 -29v-707q0 -17 -12 -29t-29 -12t-29 12t-12 29v192q0 28 -24 28
q-10 0 -22 -6q-63 -34 -120 -39q-31 -3 -38 -31q-26 -92 -108 -152q-68 -51 -122 -51q-15 0 -27.5 12t-12.5 29q0 14 9.5 26t23.5 14q61 17 104.5 56t55.5 96z" />
    <glyph glyph-name="afii10071" unicode="&#x451;" horiz-adv-x="662" 
d="M616 268q0 -15 -10 -27.5t-25 -14.5l-400 -63q-9 -1 -9 -11q0 -1 2 -7q55 -84 164 -84q46 0 87 18q7 4 17 4q17 0 29 -12t12 -29q0 -33 -46.5 -48t-98.5 -15q-112 0 -195 75.5t-83 212.5t82.5 212t195.5 75q111 0 194.5 -75t83.5 -211zM156 242l364 58q10 1 10 13
q-15 79 -68 119t-124 40q-82 0 -139 -52.5t-57 -152.5v-14q2 -11 14 -11zM216 677q0 16 10.5 27.5t30.5 11.5t30.5 -11.5t10.5 -27.5t-10.5 -27.5t-30.5 -11.5t-30.5 11.5t-10.5 27.5zM376 677q0 16 10.5 27.5t30.5 11.5t30.5 -11.5t10.5 -27.5t-10.5 -27.5t-30.5 -11.5
t-30.5 11.5t-10.5 27.5z" />
    <glyph glyph-name="afii10099" unicode="&#x452;" horiz-adv-x="722" 
d="M171 767v-236q0 -10 7 -17.5t18 -7.5q5 0 13 5q68 45 158 45q112 0 195 -75t83 -212v-228q0 -17 -12 -29t-29 -12t-29 12t-12 29v228q0 100 -57 152.5t-139 52.5t-139 -52.5t-57 -152.5v-228q0 -17 -12 -29t-29 -12t-29 12t-12 29v726q0 17 12 29t29 12t29 -12t12 -29z
M32 677q0 15 10.5 25t24.5 10h245q15 0 25 -10t10 -25q0 -14 -10 -24.5t-25 -10.5h-245q-14 0 -24.5 10.5t-10.5 24.5z" />
    <glyph glyph-name="afii10100" unicode="&#x453;" horiz-adv-x="502" 
d="M288 663l129 64q6 3 13 3q13 0 23.5 -11t10.5 -26q0 -26 -23 -32l-139 -35q-12 -3 -19.5 2.5t-7.5 15.5q0 13 13 19zM177 426v-385q0 -27 -21.5 -37t-43.5 1t-22 36v451q0 33 26 42q7 3 16 3h296q27 0 37 -21.5t-1 -43.5t-36 -22h-227q-10 0 -17 -7t-7 -17z" />
    <glyph glyph-name="afii10101" unicode="&#x454;" horiz-adv-x="529" 
d="M425 80q7 4 17 4q17 0 29 -12t12 -29q0 -27 -24 -37q-53 -26 -121 -26q-112 0 -195 75.5t-83 212.5t82.5 212t195.5 75q67 0 120 -25q25 -12 25 -38q0 -17 -12 -29t-29 -12q-10 0 -17 4q-41 18 -87 18q-61 0 -109.5 -30t-71.5 -88q-8 -25 3.5 -39t29.5 -14h148
q15 0 25 -10t10 -25q0 -14 -10 -24.5t-25 -10.5h-147q-19 0 -30.5 -14t-3.5 -39q23 -58 72 -87.5t109 -29.5q46 0 87 18z" />
    <glyph glyph-name="afii10102" unicode="&#x455;" horiz-adv-x="575" 
d="M454 508q26 -18 26 -38t-11 -30.5t-29 -10.5q-16 0 -30 9q-59 38 -113 38q-126 0 -126 -71q0 -65 132 -65q209 0 209 -167q0 -193 -221 -193q-169 0 -240 135q-5 15 -5 21q0 17 11.5 28.5t29.5 11.5q12 0 20.5 -5.5t20 -21t12.5 -16.5q63 -74 152 -74q138 0 138 109
q0 92 -136 92q-206 0 -206 145q0 151 210 150q90 -2 156 -47z" />
    <glyph glyph-name="afii10108" unicode="&#x45b;" horiz-adv-x="1051" 
d="M295 672v-631q0 -17 -12 -29t-29 -12t-29 12t-12 29v631q0 14 -10.5 24.5t-24.5 10.5h-129q-17 0 -29 12t-12 29t12 29t29 12h413q16 0 27 -11.5t11 -29.5v-217q0 -10 7 -17.5t18 -7.5q5 0 13 5q68 45 158 45q112 0 195 -75t83 -212v-228q0 -17 -12 -29t-29 -12t-29 12
t-12 29v228q0 100 -57 152.5t-139 52.5t-139 -52.5t-57 -152.5v-228q0 -17 -12 -29t-29 -12t-29 12t-12 29v641q0 25 -25 25h-63q-14 0 -24.5 -10.5t-10.5 -24.5z" />
    <glyph glyph-name="afii10846" unicode="&#x4d9;" horiz-adv-x="635" 
d="M173 530q53 26 121 26q112 0 195 -75.5t83 -212.5t-82.5 -212t-195.5 -75q-65 0 -123.5 27t-99.5 80q-8 11 -8 25q0 16 12 28l312 312q-43 21 -93 21q-46 0 -87 -18q-7 -4 -17 -4q-17 0 -29 12t-12 29q0 27 24 37zM294 63q82 0 139 52.5t57 152.5q0 80 -40 133l-289 -290
q52 -48 133 -48z" />
    <glyph glyph-name="Wgrave" unicode="&#x1e80;" horiz-adv-x="1184" 
d="M348 25l-309 724q-7 16 -0.5 31.5t22.5 22.5t31.5 0.5t22.5 -22.5l277 -650l37 87q6 14 0 27l-62 147q-6 14 -0.5 27t18.5 19q14 6 27.5 0.5t18.5 -19.5l42 -98l42 98q6 14 19.5 19.5t26.5 -0.5q31 -13 19 -46l-63 -147q-6 -13 0 -27l38 -87l278 651q7 16 22.5 22.5
t31.5 -0.5t22 -22.5t-1 -31.5l-309 -725q-7 -16 -22.5 -22.5t-31.5 0.5q-14 7 -22 24l-50 116l-49 -116q-8 -17 -23 -24t-30.5 -0.5t-22.5 22.5zM557 852l-142 39q-19 6 -19 31q0 13 10 24.5t24 11.5q5 0 11 -3l130 -66q13 -7 13 -18q0 -17 -20 -20q-6 -1 -7 1z" />
    <glyph glyph-name="wgrave" unicode="&#x1e81;" horiz-adv-x="745" 
d="M593 397q17 0 29 -12t12 -29v-88q0 -100 57 -152.5t139 -52.5q81 0 138.5 52.5t57.5 152.5v228q0 17 12 29t29 12t29 -12t12 -29v-228q0 -137 -83 -212t-195 -75q-72 0 -136 32.5t-101 94.5q-38 -62 -102 -94.5t-136 -32.5q-112 0 -195 75t-83 212v228q0 17 12 29t29 12
t29 -12t12 -29v-228q0 -100 57.5 -152.5t138.5 -52.5t139 52.5t58 152.5v88q0 17 12 29t29 12zM340 625l-142 39q-19 6 -19 31q0 13 10 24.5t24 11.5q5 0 11 -3l130 -66q13 -7 13 -18q0 -17 -20 -20q-6 -1 -7 1z" />
    <glyph glyph-name="Wacute" unicode="&#x1e82;" horiz-adv-x="1184" 
d="M348 25l-309 724q-7 16 -0.5 31.5t22.5 22.5t31.5 0.5t22.5 -22.5l277 -650l37 87q6 14 0 27l-62 147q-6 14 -0.5 27t18.5 19q14 6 27.5 0.5t18.5 -19.5l42 -98l42 98q6 14 19.5 19.5t26.5 -0.5q31 -13 19 -46l-63 -147q-6 -13 0 -27l38 -87l278 651q7 16 22.5 22.5
t31.5 -0.5t22 -22.5t-1 -31.5l-309 -725q-7 -16 -22.5 -22.5t-31.5 0.5q-14 7 -22 24l-50 116l-49 -116q-8 -17 -23 -24t-30.5 -0.5t-22.5 22.5zM579 889l129 64q6 3 13 3q13 0 23.5 -11t10.5 -26q0 -26 -23 -32l-139 -35q-12 -3 -19.5 2.5t-7.5 15.5q0 13 13 19z" />
    <glyph glyph-name="wacute" unicode="&#x1e83;" horiz-adv-x="745" 
d="M593 397q17 0 29 -12t12 -29v-88q0 -100 57 -152.5t139 -52.5q81 0 138.5 52.5t57.5 152.5v228q0 17 12 29t29 12t29 -12t12 -29v-228q0 -137 -83 -212t-195 -75q-72 0 -136 32.5t-101 94.5q-38 -62 -102 -94.5t-136 -32.5q-112 0 -195 75t-83 212v228q0 17 12 29t29 12
t29 -12t12 -29v-228q0 -100 57.5 -152.5t138.5 -52.5t139 52.5t58 152.5v88q0 17 12 29t29 12zM365 663l129 64q6 3 13 3q13 0 23.5 -11t10.5 -26q0 -26 -23 -32l-139 -35q-12 -3 -19.5 2.5t-7.5 15.5q0 13 13 19z" />
    </font>
</defs>
</svg>
