<?xml version="1.0" standalone="no"?>
<!DOCTYPE svg PUBLIC "-//W3C//DTD SVG 1.1//EN" "http://www.w3.org/Graphics/SVG/1.1/DTD/svg11.dtd" >
<svg xmlns="http://www.w3.org/2000/svg" xmlns:xlink="http://www.w3.org/1999/xlink" version="1.1">
<metadata>
Created by FontForge 20170731 at Tue Mar 27 05:07:46 2012
 By Aleksey,,,
Nirmal Biswas
</metadata>
<defs>
<font id="Aero" horiz-adv-x="690" >
  <font-face 
    font-family="Aero"
    font-weight="500"
    font-style="italic"
    font-stretch="normal"
    units-per-em="1000"
    panose-1="2 0 6 3 9 0 0 9 0 4"
    ascent="800"
    descent="-200"
    x-height="552"
    cap-height="690"
    bbox="-147 -172 1075 909"
    underline-thickness="20"
    underline-position="-153"
    slope="-11"
    unicode-range="U+000D-FB02"
  />
<missing-glyph horiz-adv-x="1000" 
 />
    <glyph glyph-name=".notdef" horiz-adv-x="1000" 
 />
    <glyph glyph-name=".null" horiz-adv-x="0" 
 />
    <glyph glyph-name="nonmarkingreturn" unicode="&#xd;" 
 />
    <glyph glyph-name="NULL" horiz-adv-x="0" 
 />
    <glyph glyph-name="NULL" horiz-adv-x="0" 
 />
    <glyph glyph-name="space" unicode=" " horiz-adv-x="193" 
 />
    <glyph glyph-name="exclam" unicode="!" horiz-adv-x="259" 
d="M250 216h-173l100 474h173zM204 0h-173l24 115h173z" />
    <glyph glyph-name="quotedbl" unicode="&#x22;" horiz-adv-x="361" 
d="M268 466h-86l42 201h115zM110 466h-86l42 201h114z" />
    <glyph glyph-name="numbersign" unicode="#" horiz-adv-x="634" 
d="M616 402h-115l-24 -115h115l-25 -115h-115l-36 -172h-115l36 172h-115l-36 -172h-115l36 172h-115l25 115h115l24 115h-115l25 115h115l36 173h115l-36 -173h115l36 173h115l-36 -173h115zM271 402l-24 -115h115l24 115h-115z" />
    <glyph glyph-name="dollar" unicode="$" 
d="M612 690q49 0 72.5 -29.5t12.5 -78.5l-19 -93h-230l24 114h-144l-46 -215h266q49 0 72.5 -29.5t12.5 -78.5l-36 -172q-11 -49 -47 -78.5t-84 -29.5h-151l-12 -57h-86l12 57h-151q-49 0 -72 29.5t-13 78.5l19 93h230l-24 -115h144l46 216h-266q-49 0 -72.5 29.5
t-12.5 78.5l36 172q11 49 47 78.5t84 29.5h151l12 57h86l-12 -57h151z" />
    <glyph glyph-name="percent" unicode="%" 
d="M299 414h-241l58 276h241zM142 0h-94l506 690h94zM574 0h-242l58 276h242zM201 655l-44 -207h58l44 207h-58zM475 241l-44 -207h58l44 207h-58z" />
    <glyph glyph-name="ampersand" unicode="&#x26;" 
d="M93 0q-49 0 -72 29.5t-13 78.5l35 172q5 20 21.5 38t36.5 27q-16 8 -25.5 26t-4.5 38l37 173q10 49 46 78.5t85 29.5h381l-19 -87h-259l-46 -215h144l22 101h115l-22 -101h115l-18 -86h-115l-93 -436h-115l29 134h-265zM278 302l-46 -216h144l46 216h-144z" />
    <glyph glyph-name="quotesingle" unicode="'" horiz-adv-x="171" 
d="M133 466h-86l42 201h115z" />
    <glyph glyph-name="parenleft" unicode="(" horiz-adv-x="404" 
d="M428 603h-86l-140 -655h86l-18 -86h-208q-49 0 -72.5 29.5t-12.5 78.5l130 612q11 49 46.5 78.5t84.5 29.5h208z" />
    <glyph glyph-name="parenright" unicode=")" horiz-adv-x="404" 
d="M293 -30q-11 -48 -46.5 -78t-83.5 -30h-209l18 86h87l140 655h-87l18 87h209q48 0 71.5 -30t12.5 -78z" />
    <glyph glyph-name="asterisk" unicode="*" horiz-adv-x="480" 
d="M443 467h-139l44 -121l-83 -42l-43 119l-95 -119l-65 42l95 121h-138l18 85h139l-44 120l83 43l43 -120l95 120l65 -43l-96 -120h139z" />
    <glyph glyph-name="plus" unicode="+" horiz-adv-x="618" 
d="M562 218h-216l-47 -218h-114l47 218h-216l24 115h216l47 219h114l-47 -219h216z" />
    <glyph glyph-name="comma" unicode="," horiz-adv-x="260" 
d="M212 0l-7 -13t-15.5 -28.5t-16 -29t-8.5 -15.5h-86l47 86h-87l24 115h173z" />
    <glyph glyph-name="hyphen" unicode="-" horiz-adv-x="385" 
d="M349 216h-331l18 86h331z" />
    <glyph glyph-name="period" unicode="." horiz-adv-x="259" 
d="M204 0h-173l24 115h173z" />
    <glyph glyph-name="slash" unicode="/" horiz-adv-x="319" 
d="M6 -138h-94l401 828h94z" />
    <glyph glyph-name="zero" unicode="0" 
d="M597 108q-11 -49 -47 -78.5t-84 -29.5h-388q-49 0 -72.5 29.5t-12.5 78.5l100 474q11 49 47 78.5t84 29.5h388q49 0 72.5 -29.5t12.5 -78.5zM328 603l-110 -517h144l110 517h-144z" />
    <glyph glyph-name="one" unicode="1" horiz-adv-x="388" 
d="M272 0h-230l128 603h-86l18 87h316z" />
    <glyph glyph-name="two" unicode="2" 
d="M218 86h374l-18 -86h-604l41 194q11 49 47 78.5t84 29.5h266l64 301h-144l-24 -114h-230l19 93q11 49 47 78.5t84 29.5h388q49 0 72.5 -29.5t12.5 -78.5l-54 -258q-11 -49 -47 -78.5t-84 -29.5h-266z" />
    <glyph glyph-name="three" unicode="3" 
d="M230 144l-12 -58h144l46 216h-144l18 86h144l46 215h-144l-24 -114h-230l19 93q11 49 47 78.5t84 29.5h388q49 0 72.5 -29.5t12.5 -78.5l-36 -173q-5 -20 -21.5 -38t-36.5 -26q16 -9 25.5 -27t4.5 -38l-36 -172q-11 -49 -47 -78.5t-84 -29.5h-388q-49 0 -72 29.5
t-13 78.5l7 36h230z" />
    <glyph glyph-name="four" unicode="4" 
d="M316 690l-82 -388h144l82 388h230l-146 -690h-230l46 216h-266q-49 0 -72.5 29.5t-12.5 78.5l77 366h230z" />
    <glyph glyph-name="five" unicode="5" 
d="M597 108q-11 -49 -47 -78.5t-84 -29.5h-388q-49 0 -72 29.5t-13 78.5l7 36h230l-12 -58h144l46 216h-374l82 388h573l-19 -87h-198h-144l-46 -215h266q49 0 72.5 -29.5t12.5 -78.5z" />
    <glyph glyph-name="six" unicode="6" 
d="M597 108q-11 -49 -47 -78.5t-84 -29.5h-388q-49 0 -72.5 29.5t-12.5 78.5l100 474q11 49 47 78.5t84 29.5h388q49 0 72.5 -29.5t12.5 -78.5l-19 -93h-230l24 114h-144l-46 -215h374zM264 302l-46 -216h144l46 216h-144z" />
    <glyph glyph-name="seven" unicode="7" 
d="M574 0h-230l128 603h-144l-24 -114h-230l19 93q11 49 47 78.5t84 29.5h496z" />
    <glyph glyph-name="eight" unicode="8" 
d="M597 108q-11 -49 -47 -78.5t-84 -29.5h-388q-49 0 -72.5 29.5t-12.5 78.5l36 172q5 20 21 38t36 27q-16 8 -25 26t-4 38l36 173q11 49 47 78.5t84 29.5h388q49 0 72.5 -29.5t12.5 -78.5l-36 -173q-5 -20 -21.5 -38t-36.5 -26q16 -9 25.5 -27t4.5 -38zM328 603l-46 -215
h144l46 215h-144zM264 302l-46 -216h144l46 216h-144z" />
    <glyph glyph-name="nine" unicode="9" 
d="M328 603l-64 -301h144l64 301h-144zM93 582q11 49 47 78.5t84 29.5h388q49 0 72.5 -29.5t12.5 -78.5l-100 -474q-11 -49 -47 -78.5t-84 -29.5h-388q-49 0 -72 29.5t-13 78.5l7 36h230l-12 -58h144l28 130h-266q-49 0 -72.5 29.5t-12.5 78.5z" />
    <glyph glyph-name="colon" unicode=":" horiz-adv-x="259" 
d="M268 303h-173l25 115h173zM204 0h-173l24 115h173z" />
    <glyph glyph-name="semicolon" unicode=";" horiz-adv-x="259" 
d="M268 303h-173l25 115h173zM204 0l-7 -13t-15.5 -28.5t-16.5 -29t-9 -15.5h-86l48 86h-87l24 115h173z" />
    <glyph glyph-name="less" unicode="&#x3c;" horiz-adv-x="473" 
d="M478 403l-361 -155l295 -156l-20 -92l-373 206l18 85l461 205z" />
    <glyph glyph-name="equal" unicode="=" horiz-adv-x="547" 
d="M530 330h-489l25 115h489zM481 101h-489l25 115h489z" />
    <glyph glyph-name="greater" unicode="&#x3e;" horiz-adv-x="474" 
d="M437 206l-461 -206l20 92l361 156l-295 155l20 93l373 -205z" />
    <glyph glyph-name="question" unicode="?" 
d="M358 0h-172l24 115h172zM250 302h158l64 301h-144l-24 -114h-230l19 93q11 49 47 78.5t84 29.5h388q49 0 72.5 -29.5t12.5 -78.5l-54 -258q-11 -49 -47 -78.5t-84 -29.5h-280z" />
    <glyph glyph-name="at" unicode="@" horiz-adv-x="622" 
d="M604 337q-6 -31 -23.5 -64.5t-42 -63.5t-55 -53t-62.5 -33q-12 -4 -22 -4h-232q-25 0 -36.5 15.5t-6.5 39.5l31 143q5 24 23 39t42 15h152l11 48h-139l10 48h219q24 0 35.5 -15t6.5 -39l-44 -208q31 26 51.5 60.5t28.5 71.5q10 48 2 86t-31.5 64t-60 40t-83.5 14
q-51 0 -99.5 -20t-89 -54.5t-69 -80t-39.5 -96.5t-1.5 -96t35 -79.5t66 -54.5t91.5 -20q61 0 120 26.5t101 80.5h61q-54 -78 -130.5 -119t-162.5 -41q-62 0 -111 24.5t-80.5 66t-42.5 96.5t2 116t48 116t83.5 96t107.5 65.5t121 24.5q57 0 102.5 -18t74.5 -51t39.5 -80
t-1.5 -106zM290 322l-33 -155h72l33 155h-72z" />
    <glyph glyph-name="A" unicode="A" 
d="M574 0h-230l46 216h-144l-46 -216h-230l123 582q11 49 47 78.5t84 29.5h388q49 0 72.5 -29.5t12.5 -78.5zM328 603l-64 -301h144l64 301h-144z" />
    <glyph glyph-name="B" unicode="B" 
d="M661 409q-5 -20 -21.5 -38t-36.5 -26q16 -9 25.5 -27t4.5 -38l-36 -172q-11 -49 -47 -78.5t-84 -29.5h-496l146 690h496q49 0 72.5 -29.5t12.5 -78.5zM328 603l-46 -215h144l46 215h-144zM264 302l-46 -216h144l46 216h-144z" />
    <glyph glyph-name="C" unicode="C" horiz-adv-x="560" 
d="M78 0q-49 0 -72.5 29.5t-12.5 78.5l100 474q11 49 47 78.5t84 29.5h381l-18 -87h-259l-116 -517h265l-18 -86h-381z" />
    <glyph glyph-name="D" unicode="D" 
d="M597 108q-11 -49 -47 -78.5t-84 -29.5h-496l146 690h496q49 0 72.5 -29.5t12.5 -78.5zM328 603l-110 -517h144l110 517h-144z" />
    <glyph glyph-name="E" unicode="E" horiz-adv-x="560" 
d="M78 0q-49 0 -72.5 29.5t-12.5 78.5l100 474q11 49 47 78.5t84 29.5h381l-18 -87h-259l-46 -215h201l-18 -86h-201l-46 -216h259l-18 -86h-381z" />
    <glyph glyph-name="F" unicode="F" horiz-adv-x="560" 
d="M587 603h-259l-46 -215h201l-18 -86h-201l-64 -302h-230l123 582q11 49 47 78.5t84 29.5h381z" />
    <glyph glyph-name="G" unicode="G" 
d="M78 0q-49 0 -72.5 29.5t-12.5 78.5l100 474q11 49 47 78.5t84 29.5h388q49 0 72.5 -29.5t12.5 -78.5l-19 -93h-230l24 114h-144l-110 -517h144l31 144h-87l18 86h317l-44 -208q-11 -49 -47 -78.5t-84 -29.5h-388z" />
    <glyph glyph-name="H" unicode="H" 
d="M574 0h-230l46 216h-144l-46 -216h-230l146 690h230l-82 -388h144l82 388h230z" />
    <glyph glyph-name="I" unicode="I" horiz-adv-x="315" 
d="M199 0h-230l146 690h230z" />
    <glyph glyph-name="J" unicode="J" 
d="M597 108q-11 -49 -47 -78.5t-84 -29.5h-388q-49 4 -72.5 31.5t-12.5 76.5l26 122h230l-31 -144h144l128 604h230z" />
    <glyph glyph-name="K" unicode="K" horiz-adv-x="674" 
d="M444 393l130 -393h-230l-70 211l-38 -41l-36 -170h-230l146 690h230l-81 -384l357 384h98z" />
    <glyph glyph-name="L" unicode="L" horiz-adv-x="562" 
d="M459 0h-489l146 690h230l-128 -604h259z" />
    <glyph glyph-name="M" unicode="M" horiz-adv-x="805" 
d="M683 0h-229l85 400l-231 -400h-94l-66 400l-85 -400h-86l146 690h208l63 -377l218 377h217z" />
    <glyph glyph-name="N" unicode="N" horiz-adv-x="704" 
d="M588 0h-230l-66 433l-92 -433h-230l146 690h230l66 -434l92 434h230z" />
    <glyph glyph-name="O" unicode="O" 
d="M597 108q-11 -49 -47 -78.5t-84 -29.5h-388q-49 0 -72.5 29.5t-12.5 78.5l100 474q11 49 47 78.5t84 29.5h388q49 0 72.5 -29.5t12.5 -78.5zM328 603l-110 -517h144l110 517h-144z" />
    <glyph glyph-name="P" unicode="P" 
d="M642 323q-11 -49 -47 -78.5t-84 -29.5l-265 1l-46 -216h-230l146 690h496q49 0 72.5 -29.5t12.5 -78.5zM328 603l-64 -301h144l64 301h-144z" />
    <glyph glyph-name="Q" unicode="Q" horiz-adv-x="747" 
d="M63 0q-49 0 -72.5 29.5t-12.5 78.5l101 474q11 48 46.5 78t83.5 30h388q49 0 72.5 -29.5t12.5 -78.5l-105 -496h86l-18 -86h-582zM314 603l-110 -517h143l110 517h-143z" />
    <glyph glyph-name="R" unicode="R" 
d="M328 603l-64 -301h143l64 301h-143zM574 0h-230l-33 216h-65l-46 -216h-230l146 690h496q49 0 72 -29.5t12 -78.5l-54 -258q-9 -42 -36.5 -69.5t-65.5 -35.5z" />
    <glyph glyph-name="S" unicode="S" 
d="M548 388q49 0 72.5 -29.5t12.5 -78.5l-36 -172q-11 -49 -47 -78.5t-84 -29.5h-388q-49 0 -72 29.5t-13 78.5l19 93h230l-24 -115h144l46 216h-266q-49 0 -72.5 29.5t-12.5 78.5l36 172q11 49 47 78.5t84 29.5h388q49 0 72.5 -29.5t12.5 -78.5l-19 -93h-230l24 114h-144
l-46 -215h266z" />
    <glyph glyph-name="T" unicode="T" horiz-adv-x="632" 
d="M658 603h-172l-128 -603h-230l128 603h-172l18 87h574z" />
    <glyph glyph-name="U" unicode="U" 
d="M597 108q-11 -49 -47 -78.5t-84 -29.5h-388q-49 0 -72.5 29.5t-12.5 78.5l123 582h230l-128 -604h144l128 604h230z" />
    <glyph glyph-name="V" unicode="V" horiz-adv-x="661" 
d="M372 0h-229l-41 690h230l29 -517l250 517h94z" />
    <glyph glyph-name="W" unicode="W" horiz-adv-x="1027" 
d="M742 0h-230l-15 265l-128 -265h-230l-41 690h230l30 -518l129 266l-15 252h230l30 -518l250 518h93z" />
    <glyph glyph-name="X" unicode="X" horiz-adv-x="675" 
d="M433 382l126 -382h-230l-71 217l-202 -217h-100l276 296l-130 394h230l75 -228l212 228h101z" />
    <glyph glyph-name="Y" unicode="Y" horiz-adv-x="661" 
d="M418 216l-46 -216h-229l46 216l-87 474h230l65 -356l215 356h93z" />
    <glyph glyph-name="Z" unicode="Z" horiz-adv-x="546" 
d="M572 603l-368 -517h258l-18 -86h-488l18 86l368 517h-258l18 87h488z" />
    <glyph glyph-name="bracketleft" unicode="[" horiz-adv-x="404" 
d="M429 603h-86l-140 -655h86l-18 -86h-316l176 828h316z" />
    <glyph glyph-name="backslash" unicode="\" horiz-adv-x="246" 
d="M100 -138l-49 828h93l50 -828h-94z" />
    <glyph glyph-name="bracketright" unicode="]" horiz-adv-x="374" 
d="M257 -138h-316l18 86h86l140 655h-86l18 87h316z" />
    <glyph glyph-name="asciicircum" unicode="^" horiz-adv-x="286" 
d="M160 602l-19 46l-39 -46h-86l96 115h86l48 -115h-86z" />
    <glyph glyph-name="underscore" unicode="_" horiz-adv-x="489" 
d="M480 -172h-489l18 86h489z" />
    <glyph glyph-name="grave" unicode="`" horiz-adv-x="528" 
d="M59 298q48 0 84.5 29t46.5 79l4 20h-186l16 76h187l25 111h-212l16 77h503l-16 -76h-80l-24 -112h80l-16 -76h-81l-21 -96q-12 -49 -47.5 -78.5t-83.5 -29.5l73 -222h-230l-72 222l17 76h17z" />
    <glyph glyph-name="a" unicode="a" horiz-adv-x="626" 
d="M508 0h-431q-49 0 -72.5 29.5t-12.5 78.5l43 205q8 38 37 62t67 24h242l17 77h-222l16 76h348q38 0 56.5 -24t10.5 -62zM250 322l-53 -246h115l53 246h-115z" />
    <glyph glyph-name="b" unicode="b" horiz-adv-x="626" 
d="M284 476l-85 -400h115l85 400h-115zM329 690l-29 -138h241q38 0 57 -24t11 -62l-76 -358q-11 -49 -47 -78.5t-84 -29.5h-433l146 690h214z" />
    <glyph glyph-name="c" unicode="c" horiz-adv-x="491" 
d="M67 466q8 38 37.5 62t67.5 24h334l-16 -76h-207l-86 -400h207l-16 -76h-312q-49 0 -72.5 29.5t-12.5 78.5z" />
    <glyph glyph-name="d" unicode="d" horiz-adv-x="626" 
d="M510 0h-433q-49 0 -72.5 29.5t-12.5 78.5l77 358q8 38 37 62t67 24h242l29 138h212zM284 476l-85 -400h115l85 400h-115z" />
    <glyph glyph-name="e" unicode="e" horiz-adv-x="626" 
d="M283 476l-53 -246h115l53 246h-115zM67 466q8 38 37.5 62t67.5 24h368q38 0 56.5 -24t10.5 -62l-66 -314h-327l-17 -76h327l-16 -76h-432q-49 0 -72.5 29.5t-12.5 78.5z" />
    <glyph glyph-name="f" unicode="f" horiz-adv-x="550" 
d="M594 614h-207l-13 -62h161l-16 -76h-161l-101 -476h-212l101 476h-104l16 76h104q5 25 11.5 49.5t18.5 44t32 32t53 12.5h333z" />
    <glyph glyph-name="g" unicode="g" horiz-adv-x="626" 
d="M282 476l-85 -400h115l85 400h-115zM63 -62h220l13 62h-220q-49 0 -72.5 29.5t-12.5 78.5l76 358q8 38 37 62t67 24h454l-123 -582q-11 -49 -47 -78.5t-84 -29.5h-325z" />
    <glyph glyph-name="h" unicode="h" horiz-adv-x="626" 
d="M510 0h-212l101 476h-115l-101 -476h-213l146 690h213l-29 -138h241q38 0 57 -24t11 -62z" />
    <glyph glyph-name="i" unicode="i" horiz-adv-x="299" 
d="M313 614h-213l16 76h213zM183 0h-213l117 552h213z" />
    <glyph glyph-name="j" unicode="j" horiz-adv-x="299" 
d="M328 614h-213l16 76h213zM191 -30q-11 -49 -47 -78.5t-84 -29.5h-207l16 76h102l131 614h213z" />
    <glyph glyph-name="k" unicode="k" horiz-adv-x="619" 
d="M393 340l113 -340h-213l-58 178l-24 -23l-33 -155h-212l146 690h212l-88 -416l273 278h92z" />
    <glyph glyph-name="l" unicode="l" horiz-adv-x="299" 
d="M183 0h-213l146 690h213z" />
    <glyph glyph-name="m" unicode="m" horiz-adv-x="954" 
d="M852 0h-213l102 476h-115l-102 -476h-212l102 476h-115l-102 -476h-213l118 552h782q38 0 56.5 -24t10.5 -62z" />
    <glyph glyph-name="n" unicode="n" horiz-adv-x="626" 
d="M524 0h-212l102 476h-115l-102 -476h-213l118 552h454q38 0 56.5 -24t10.5 -62z" />
    <glyph glyph-name="o" unicode="o" horiz-adv-x="626" 
d="M282 476l-86 -400h115l86 400h-115zM66 466q8 38 37.5 62t67.5 24h368q38 0 56.5 -24t10.5 -62l-75 -358q-11 -49 -47 -78.5t-84 -29.5h-325q-49 0 -72.5 29.5t-12.5 78.5z" />
    <glyph glyph-name="p" unicode="p" horiz-adv-x="626" 
d="M564 108q-10 -49 -46.5 -78.5t-84.5 -29.5h-221l-29 -138h-213l146 690h454q39 0 57.5 -24t10.5 -62zM313 476l-85 -400h115l85 400h-115z" />
    <glyph glyph-name="q" unicode="q" horiz-adv-x="626" 
d="M283 476l-85 -400h115l85 400h-115zM68 466q8 38 37 62t67 24h454l-146 -690h-212l29 138h-220q-49 0 -72.5 29.5t-12.5 78.5z" />
    <glyph glyph-name="r" unicode="r" horiz-adv-x="491" 
d="M506 476h-207l-102 -476h-213l99 466q8 38 37.5 62t67.5 24h334z" />
    <glyph glyph-name="s" unicode="s" horiz-adv-x="626" 
d="M488 315q38 0 56.5 -24t10.5 -62l-25 -121q-10 -49 -46.5 -78.5t-84.5 -29.5h-325q-49 0 -72.5 29.5t-12.5 78.5l12 53h213l-19 -85h115l35 163h-220q-49 0 -72.5 29.5t-12.5 78.5l25 119q8 38 37.5 62t67.5 24h368q38 0 56.5 -24t10.5 -62l-16 -75h-212l19 85h-115
l-35 -161h242z" />
    <glyph glyph-name="t" unicode="t" horiz-adv-x="471" 
d="M146 0q-49 0 -72.5 29.5t-12.5 78.5l78 368h-103l16 76h103l29 138h213l-29 -138h104l-16 -76h-104l-85 -400h104l-16 -76h-209z" />
    <glyph glyph-name="u" unicode="u" horiz-adv-x="626" 
d="M299 552l-102 -476h115l102 476h212l-94 -444q-11 -49 -47 -78.5t-84 -29.5h-325q-49 0 -72.5 29.5t-12.5 78.5l95 444h213z" />
    <glyph glyph-name="v" unicode="v" horiz-adv-x="568" 
d="M331 0h-213l-31 552h213l21 -382l186 382h92z" />
    <glyph glyph-name="w" unicode="w" horiz-adv-x="868" 
d="M631 0h-213l-9 159l-77 -159h-213l-31 552h212l22 -382l77 159l-12 223h212l22 -382l185 382h92z" />
    <glyph glyph-name="x" unicode="x" horiz-adv-x="580" 
d="M381 306l100 -306h-212l-52 161l-151 -161h-96l221 237l-103 315h212l56 -170l158 170h97z" />
    <glyph glyph-name="y" unicode="y" horiz-adv-x="626" 
d="M64 -62h220l13 62h-221q-49 0 -72.5 29.5t-12.5 78.5l95 444h213l-101 -476h115l101 476h212l-123 -582q-11 -49 -47 -78.5t-84 -29.5h-325z" />
    <glyph glyph-name="z" unicode="z" horiz-adv-x="478" 
d="M493 483l-295 -414h207l-15 -69h-420l15 69l295 414h-207l15 69h420z" />
    <glyph glyph-name="braceleft" unicode="{" horiz-adv-x="445" 
d="M472 603h-86l-56 -262q-5 -20 -21 -38t-36 -27q16 -9 25 -27t4 -38l-56 -263h86l-18 -86h-208q-49 0 -72.5 29.5t-12.5 78.5l42 198q5 20 -4 38t-25 27l18 86q20 9 36 27t21 38l42 198q11 49 46.5 78.5t84.5 29.5h208z" />
    <glyph glyph-name="bar" unicode="|" horiz-adv-x="259" 
d="M175 -138h-144l176 828h144z" />
    <glyph glyph-name="braceright" unicode="}" horiz-adv-x="445" 
d="M383 384q-5 -20 4 -38t25 -27l-18 -86q-20 -9 -36 -27t-21 -38l-42 -198q-11 -49 -46.5 -78.5t-84.5 -29.5h-208l18 86h86l56 263q5 20 21 38t36 27q-17 9 -25.5 27t-3.5 38l56 262h-86l18 87h208q49 0 72.5 -29.5t12.5 -78.5z" />
    <glyph glyph-name="asciitilde" unicode="~" horiz-adv-x="428" 
d="M403 313q-32 -34 -59 -51.5t-71 -17.5q-24 0 -41 7.5t-31.5 16.5t-28.5 16.5t-30 7.5q-26 0 -40.5 -12t-32.5 -31l-43 38q32 34 59 51.5t71 17.5q23 0 40.5 -7.5t32.5 -16.5t29 -16.5t29 -7.5q26 0 40 11.5t33 31.5l43 -38v0z" />
    <glyph glyph-name="nonbreakingspace" unicode="&#xa0;" horiz-adv-x="193" 
 />
    <glyph glyph-name="exclamdown" unicode="&#xa1;" horiz-adv-x="259" 
d="M265 437h-173l24 115h173zM143 -138h-173l100 474h173z" />
    <glyph glyph-name="cent" unicode="&#xa2;" horiz-adv-x="415" 
d="M87 67q-49 0 -72.5 29.5t-12.5 78.5l61 288q7 33 26 48.5t43 21t50 4.5t49 -1l14 68h65l-14 -68h140l-14 -64h-176l-72 -340h176l-14 -65h-140l-14 -67h-65l14 67h-44z" />
    <glyph glyph-name="sterling" unicode="&#xa3;" 
d="M678 489h-230l24 114h-144l-46 -215h144l-18 -86h-144l-46 -216l144 -1l12 59h230l-30 -144h-661l18 86h57l46 216h-57l18 86h57l41 194q11 49 47 78.5t84 29.5h388q49 0 72.5 -29.5t12.5 -78.5z" />
    <glyph glyph-name="currency" unicode="&#xa4;" horiz-adv-x="580" 
d="M523 464q17 -33 21 -68.5t-5 -76.5q-8 -41 -26.5 -75.5t-47.5 -68.5l45 -55l-73 -59l-48 54q-74 -45 -151 -45q-42 0 -74 12t-61 36l-71 -57l-47 59l70 59q-30 62 -13 140q8 39 27 75t49 68l-47 61l73 62l48 -62q38 22 74.5 34t77.5 12q79 0 131 -45l74 61l47 -62z
M433 319q6 29 0.5 55t-20.5 45.5t-38.5 31t-52.5 11.5q-30 0 -58.5 -11.5t-52 -31t-40.5 -45.5t-23 -55q-6 -30 -0.5 -55.5t21 -45t39.5 -30.5t53 -11t57.5 11t51.5 30.5t40 45.5t23 55z" />
    <glyph glyph-name="yen" unicode="&#xa5;" horiz-adv-x="661" 
d="M537 216h187l-19 -87h-187l-27 -129h-229l27 129h-187l19 87h187l-86 474h230l64 -356l216 356h93z" />
    <glyph glyph-name="brokenbar" unicode="&#xa6;" horiz-adv-x="228" 
d="M195 319h-144l79 371h144zM98 -138h-144l79 371h144z" />
    <glyph glyph-name="section" unicode="&#xa7;" horiz-adv-x="530" 
d="M358 548l16 74h-100l-30 -141h286l-102 -481h-472l30 140h186l-16 -74h100l30 141h-286l86 406q8 34 32.5 55t58.5 21h322q32 0 45 -13.5t14.5 -34.5t-4 -46t-10.5 -47h-186zM230 415l-30 -141h100l30 141h-100z" />
    <glyph glyph-name="dieresis" unicode="&#xa8;" horiz-adv-x="330" 
d="M293 603h-115l18 87h115zM135 603h-115l18 87h115z" />
    <glyph glyph-name="copyright" unicode="&#xa9;" horiz-adv-x="659" 
d="M631 288q-13 -62 -48.5 -117t-85.5 -96t-110 -65t-122 -24t-112 24t-82 65t-44 96t1 117t48.5 116.5t85 95.5t109.5 64.5t122 23.5t112 -23.5t82 -64t44.5 -95.5t-0.5 -117zM578 288q11 52 1 97t-36.5 78.5t-68 52.5t-92.5 19t-100.5 -19.5t-90 -53t-69.5 -78.5t-40 -96
t-1.5 -96.5t36 -79.5t67.5 -53.5t92 -19.5q52 0 101.5 19.5t90.5 53t70 79t40 97.5zM238 400q5 24 22.5 38.5t41.5 14.5h186l-9 -42h-127l-54 -254h127l-9 -42h-184q-25 0 -36.5 15t-6.5 40z" />
    <glyph glyph-name="ordfeminine" unicode="&#xaa;" horiz-adv-x="303" 
d="M254 303h-244l30 141q3 17 16.5 28t30.5 11h109l7 34h-100l7 34h157q17 0 26 -10.5t5 -27.5zM241 237h-245l7 35h245zM136 448l-23 -111h52l23 111h-52z" />
    <glyph glyph-name="guillemotleft" unicode="&#xab;" horiz-adv-x="647" 
d="M493 275l70 -190h-200l-70 190l150 190h200zM243 275l70 -190h-200l-70 190l150 190h200z" />
    <glyph glyph-name="logicalnot" unicode="&#xac;" horiz-adv-x="458" 
d="M412 129h-86l18 87h-316l18 86h402z" />
    <glyph glyph-name="registered" unicode="&#xae;" horiz-adv-x="659" 
d="M631 288q-13 -62 -48.5 -117t-85.5 -96t-110 -65t-122 -24t-112 24t-82 65t-44 96t1 117t48.5 116.5t85 95.5t109.5 64.5t122 23.5t112 -23.5t82 -64t44.5 -95.5t-0.5 -117zM578 288q11 52 1 97t-36.5 78.5t-68 52.5t-92.5 19t-100.5 -19.5t-90 -53t-69.5 -78.5t-40 -96
t-1.5 -96.5t36 -79.5t67.5 -53.5t92 -19.5q52 0 101.5 19.5t90.5 53t70 79t40 97.5zM323 414l-31 -148h71l31 148h-71zM444 118h-113l-17 105h-32l-22 -105h-112l72 338h243q23 0 34.5 -15t6.5 -38l-32 -150q-3 -14 -12.5 -22t-23.5 -8h-9z" />
    <glyph glyph-name="macron" unicode="&#xaf;" horiz-adv-x="374" 
d="M336 603h-316l18 87h316z" />
    <glyph glyph-name="degree" unicode="&#xb0;" horiz-adv-x="231" 
d="M209 690q-4 -20 -15 -37t-26 -29.5t-34 -20t-38 -7.5q-39 0 -60.5 27.5t-13.5 66.5q4 19 15 36t26.5 30t34 20t38.5 7q39 0 60 -27t13 -66zM157 690q4 17 -5.5 29t-26.5 12t-31.5 -12t-18.5 -29t5.5 -29t26.5 -12t31.5 12t18.5 29z" />
    <glyph glyph-name="plusminus" unicode="&#xb1;" horiz-adv-x="631" 
d="M576 216h-215l-28 -130h215l-18 -86h-546l18 86h216l28 130h-216l24 114h216l46 216h115l-46 -216h215z" />
    <glyph glyph-name="acute" unicode="&#xb4;" horiz-adv-x="230" 
d="M113 602h-86l90 86h86z" />
    <glyph glyph-name="mu" unicode="&#xb5;" horiz-adv-x="626" 
d="M562 108q-11 -49 -47 -78.5t-84 -29.5h-219l-29 -138h-213l146 690h213l-101 -476h115l101 476h212z" />
    <glyph glyph-name="paragraph" unicode="&#xb6;" horiz-adv-x="718" 
d="M745 603h-58l-64 -301h58l-18 -86h-58l-46 -216h-230l46 216h-373l77 366q11 49 46 78.5t84 29.5h554zM314 603l-64 -301h143l64 301h-143z" />
    <glyph glyph-name="periodcentered" unicode="&#xb7;" horiz-adv-x="172" 
d="M135 230h-115l18 86h115z" />
    <glyph glyph-name="cedilla" unicode="&#xb8;" horiz-adv-x="194" 
d="M172 -83q-3 -15 -13 -26t-23.5 -18t-28 -10.5t-27.5 -3.5q-20 0 -37.5 5.5t-34.5 12.5l18 27q12 -4 23.5 -8t25.5 -4q11 0 22.5 5t14.5 18q2 12 -6.5 16t-18.5 4q-9 0 -22 -5l-13 14l46 56h35l-31 -39q9 3 19 3q22 0 39 -11t12 -36z" />
    <glyph glyph-name="ordmasculine" unicode="&#xba;" horiz-adv-x="302" 
d="M253 303h-243l44 210q4 17 17 28t30 11h165q17 0 26 -11t5 -28zM240 237h-244l7 35h244zM150 517l-38 -179h52l38 179h-52z" />
    <glyph glyph-name="guillemotright" unicode="&#xbb;" horiz-adv-x="647" 
d="M453 85h-200l150 190l-70 190h200l70 -190zM203 85h-200l150 190l-70 190h200l70 -190z" />
    <glyph glyph-name="questiondown" unicode="&#xbf;" 
d="M480 437h-172l24 115h172zM597 -30q-11 -49 -47 -78.5t-84 -29.5h-388q-49 0 -72.5 29.5t-12.5 78.5l77 366h388l-18 -86h-158l-64 -302h144l24 115h230z" />
    <glyph glyph-name="Agrave" unicode="&#xc0;" 
d="M404 744l-54 86h86l54 -86h-86zM574 0h-230l46 216h-144l-46 -216h-230l123 582q11 49 47 78.5t84 29.5h388q49 0 72.5 -29.5t12.5 -78.5zM328 603l-64 -301h144l64 301h-144z" />
    <glyph glyph-name="Aacute" unicode="&#xc1;" 
d="M454 744h-86l90 86h86zM574 0h-230l46 216h-144l-46 -216h-230l123 582q11 49 47 78.5t84 29.5h388q49 0 72.5 -29.5t12.5 -78.5zM328 603l-64 -301h144l64 301h-144z" />
    <glyph glyph-name="Acircumflex" unicode="&#xc2;" 
d="M458 746l-22 34l-36 -34h-86l91 86h86l53 -86h-86zM574 0h-230l46 216h-144l-46 -216h-230l123 582q11 49 47 78.5t84 29.5h388q49 0 72.5 -29.5t12.5 -78.5zM328 603l-64 -301h144l64 301h-144z" />
    <glyph glyph-name="Atilde" unicode="&#xc3;" 
d="M614 845q-7 -22 -18.5 -43t-28 -37.5t-37 -26.5t-45.5 -10q-19 0 -33.5 5t-27.5 11t-24.5 11t-24.5 5t-25 -8.5t-17 -21.5h-65q7 22 18.5 42.5t28 37t37 26.5t44.5 10q19 0 34 -5t28 -11t24.5 -11t24.5 -5q14 0 25.5 9t16.5 22h65zM574 0h-230l46 216h-144l-46 -216h-230
l123 582q11 49 47 78.5t84 29.5h388q49 0 72.5 -29.5t12.5 -78.5zM328 603l-64 -301h144l64 301h-144z" />
    <glyph glyph-name="Adieresis" unicode="&#xc4;" 
d="M565 740h-115l18 86h115zM407 740h-115l18 86h115zM574 0h-230l46 216h-144l-46 -216h-230l123 582q11 49 47 78.5t84 29.5h388q49 0 72.5 -29.5t12.5 -78.5zM328 603l-64 -301h144l64 301h-144z" />
    <glyph glyph-name="Aring" unicode="&#xc5;" 
d="M534 824q-4 -18 -14 -33.5t-24.5 -27t-31.5 -18t-34 -6.5q-18 0 -32 6.5t-23 18t-12.5 27t0.5 33.5t14 33.5t24 27t30.5 18t34.5 6.5q35 0 55 -25t13 -60zM574 0h-230l46 216h-144l-46 -216h-230l123 582q11 49 47 78.5t84 29.5h388q49 0 72.5 -29.5t12.5 -78.5zM486 824
q3 16 -6 26.5t-24 10.5q-16 0 -29 -11t-16 -26q-4 -15 5 -26t24 -11q16 0 29 10.5t17 26.5zM328 603l-64 -301h144l64 301h-144z" />
    <glyph glyph-name="AE" unicode="&#xc6;" horiz-adv-x="932" 
d="M959 603h-258l-46 -215h201l-18 -86h-201l-46 -216h258l-18 -86h-488l46 216h-144l-46 -216h-230l123 582q11 49 47 78.5t84 29.5h754zM327 603l-64 -301h144l64 301h-144z" />
    <glyph glyph-name="Ccedilla" unicode="&#xc7;" horiz-adv-x="560" 
d="M266 -83q-3 -15 -13 -26t-23.5 -18t-28 -10.5t-27.5 -3.5q-20 0 -37.5 5.5t-34.5 12.5l17 27l24 -8t26 -4q11 0 22.5 5t14.5 18q2 12 -6.5 16t-18.5 4t-22 -5l-13 14l46 56h35l-32 -39q10 3 20 3q22 0 39 -11t12 -36zM78 0q-49 0 -72.5 29.5t-12.5 78.5l100 474
q11 49 47 78.5t84 29.5h381l-18 -87h-259l-116 -517h265l-18 -86h-381z" />
    <glyph glyph-name="Egrave" unicode="&#xc8;" horiz-adv-x="560" 
d="M346 744l-53 86h86l54 -86h-87zM78 0q-49 0 -72.5 29.5t-12.5 78.5l100 474q11 49 47 78.5t84 29.5h381l-18 -87h-259l-46 -215h201l-18 -86h-201l-46 -216h259l-18 -86h-381z" />
    <glyph glyph-name="Eacute" unicode="&#xc9;" horiz-adv-x="560" 
d="M438 744h-86l90 86h86zM78 0q-49 0 -72.5 29.5t-12.5 78.5l100 474q11 49 47 78.5t84 29.5h381l-18 -87h-259l-46 -215h201l-18 -86h-201l-46 -216h259l-18 -86h-381z" />
    <glyph glyph-name="Ecircumflex" unicode="&#xca;" horiz-adv-x="560" 
d="M386 746l-22 34l-35 -34h-87l91 86h86l53 -86h-86zM78 0q-49 0 -72.5 29.5t-12.5 78.5l100 474q11 49 47 78.5t84 29.5h381l-18 -87h-259l-46 -215h201l-18 -86h-201l-46 -216h259l-18 -86h-381z" />
    <glyph glyph-name="Edieresis" unicode="&#xcb;" horiz-adv-x="560" 
d="M508 740h-115l18 86h115zM350 740h-115l18 86h115zM78 0q-49 0 -72.5 29.5t-12.5 78.5l100 474q11 49 47 78.5t84 29.5h381l-18 -87h-259l-46 -215h201l-18 -86h-201l-46 -216h259l-18 -86h-381z" />
    <glyph glyph-name="Igrave" unicode="&#xcc;" horiz-adv-x="315" 
d="M216 744l-53 86h86l54 -86h-87zM199 0h-230l146 690h230z" />
    <glyph glyph-name="Iacute" unicode="&#xcd;" horiz-adv-x="315" 
d="M275 744h-86l90 86h86zM199 0h-230l146 690h230z" />
    <glyph glyph-name="Icircumflex" unicode="&#xce;" horiz-adv-x="315" 
d="M270 746l-21 34l-36 -34h-86l91 86h86l53 -86h-87zM199 0h-230l146 690h230z" />
    <glyph glyph-name="Idieresis" unicode="&#xcf;" horiz-adv-x="315" 
d="M378 740h-115l18 86h115zM220 740h-115l18 86h115zM199 0h-230l146 690h230z" />
    <glyph glyph-name="Eth" unicode="&#xd0;" 
d="M597 108q-11 -49 -47 -78.5t-84 -29.5h-496l62 295h-72l19 86h72l65 309h496q49 0 72.5 -29.5t12.5 -78.5zM328 603l-47 -222h72l-19 -86h-72l-44 -209h144l110 517h-144z" />
    <glyph glyph-name="Ntilde" unicode="&#xd1;" horiz-adv-x="704" 
d="M598 845q-7 -22 -18.5 -43t-28 -37.5t-37.5 -26.5t-45 -10q-20 0 -34.5 5t-27 11t-24 11t-24.5 5q-14 0 -26 -8.5t-17 -21.5h-65q7 22 18.5 42.5t28 37t37.5 26.5t45 10q19 0 34 -5t27.5 -11t24 -11t24.5 -5q14 0 26 9t17 22h65zM571 0h-230l-66 433l-92 -433h-230
l147 690h230l66 -434l92 434h230z" />
    <glyph glyph-name="Ograve" unicode="&#xd2;" 
d="M404 744l-54 86h86l54 -86h-86zM597 108q-11 -49 -47 -78.5t-84 -29.5h-388q-49 0 -72.5 29.5t-12.5 78.5l100 474q11 49 47 78.5t84 29.5h388q49 0 72.5 -29.5t12.5 -78.5zM328 603l-110 -517h144l110 517h-144z" />
    <glyph glyph-name="Oacute" unicode="&#xd3;" 
d="M441 744h-86l90 86h86zM597 108q-11 -49 -47 -78.5t-84 -29.5h-388q-49 0 -72.5 29.5t-12.5 78.5l100 474q11 49 47 78.5t84 29.5h388q49 0 72.5 -29.5t12.5 -78.5zM328 603l-110 -517h144l110 517h-144z" />
    <glyph glyph-name="Ocircumflex" unicode="&#xd4;" 
d="M458 746l-22 34l-36 -34h-86l91 86h86l53 -86h-86zM597 108q-11 -49 -47 -78.5t-84 -29.5h-388q-49 0 -72.5 29.5t-12.5 78.5l100 474q11 49 47 78.5t84 29.5h388q49 0 72.5 -29.5t12.5 -78.5zM328 603l-110 -517h144l110 517h-144z" />
    <glyph glyph-name="Otilde" unicode="&#xd5;" 
d="M598 845q-7 -22 -18.5 -43t-28 -37.5t-37.5 -26.5t-45 -10q-20 0 -34.5 5t-27 11t-24 11t-24.5 5q-14 0 -26 -8.5t-17 -21.5h-65q7 22 18.5 42.5t28 37t37.5 26.5t45 10q19 0 34 -5t27.5 -11t24 -11t24.5 -5q14 0 26 9t17 22h65zM311 603l-110 -517h144l110 517h-144z
M580 108q-11 -49 -47 -78.5t-84 -29.5h-388q-49 0 -72.5 29.5t-12.5 78.5l100 474q11 49 47 78.5t84 29.5h388q49 0 72.5 -29.5t12.5 -78.5z" />
    <glyph glyph-name="Odieresis" unicode="&#xd6;" 
d="M565 740h-115l18 86h115zM407 740h-115l18 86h115zM328 603l-110 -517h144l110 517h-144zM597 108q-11 -49 -47 -78.5t-84 -29.5h-388q-49 0 -72.5 29.5t-12.5 78.5l100 474q11 49 47 78.5t84 29.5h388q49 0 72.5 -29.5t12.5 -78.5z" />
    <glyph glyph-name="multiply" unicode="&#xd7;" horiz-adv-x="501" 
d="M311 223l128 -161l-74 -63l-127 162l-196 -162l-48 62l195 162l-127 164l76 60l126 -162l196 162l49 -62z" />
    <glyph glyph-name="Oslash" unicode="&#xd8;" 
d="M328 603l-62 -290l186 196l20 94h-144zM238 180l-20 -94h144l62 290zM597 108q-11 -49 -47 -78.5t-84 -29.5h-388q-49 0 -72.5 29.5t-12.5 78.5l100 474q11 49 47 78.5t84 29.5h388q49 0 72.5 -29.5t12.5 -78.5z" />
    <glyph glyph-name="Ugrave" unicode="&#xd9;" 
d="M404 744l-54 86h86l54 -86h-86zM597 108q-11 -49 -47 -78.5t-84 -29.5h-388q-49 0 -72.5 29.5t-12.5 78.5l123 582h230l-128 -604h144l128 604h230z" />
    <glyph glyph-name="Uacute" unicode="&#xda;" 
d="M456 744h-87l90 86h87zM597 108q-11 -49 -47 -78.5t-84 -29.5h-388q-49 0 -72.5 29.5t-12.5 78.5l123 582h230l-128 -604h144l128 604h230z" />
    <glyph glyph-name="Ucircumflex" unicode="&#xdb;" 
d="M458 746l-22 34l-36 -34h-86l91 86h86l53 -86h-86zM597 108q-11 -49 -47 -78.5t-84 -29.5h-388q-49 0 -72.5 29.5t-12.5 78.5l123 582h230l-128 -604h144l128 604h230z" />
    <glyph glyph-name="Udieresis" unicode="&#xdc;" 
d="M565 740h-115l18 86h115zM407 740h-115l18 86h115zM597 108q-11 -49 -47 -78.5t-84 -29.5h-388q-49 0 -72.5 29.5t-12.5 78.5l123 582h230l-128 -604h144l128 604h230z" />
    <glyph glyph-name="Yacute" unicode="&#xdd;" horiz-adv-x="661" 
d="M426 744h-86l90 86h86zM403 216l-46 -216h-229l46 216l-87 474h230l65 -356l215 356h93z" />
    <glyph glyph-name="Thorn" unicode="&#xde;" 
d="M598 115h-374l-24 -115h-230l146 690h230l-21 -101h266q49 0 72.5 -29.5t12.5 -78.5zM307 503l-65 -302h144l65 302h-144z" />
    <glyph glyph-name="germandbls" unicode="&#xdf;" 
d="M675 409q-4 -20 -20.5 -38t-36.5 -26q16 -9 25.5 -27t4.5 -38l-37 -172q-10 -49 -46 -78.5t-85 -29.5h-209l19 86h87l46 216h-144l-94 -440h-230l153 720q11 49 46.5 78.5t84.5 29.5h388q49 0 72.5 -29.5t12.5 -78.5zM343 603l-46 -215h144l46 215h-144z" />
    <glyph glyph-name="agrave" unicode="&#xe0;" horiz-adv-x="626" 
d="M347 603l-54 87h87l54 -87h-87zM266 322l-53 -246h115l53 246h-115zM524 0h-431q-49 0 -72.5 29.5t-12.5 78.5l43 205q8 38 37 62t67 24h242l17 77h-222l16 76h348q38 0 56.5 -24t10.5 -62z" />
    <glyph glyph-name="aacute" unicode="&#xe1;" horiz-adv-x="626" 
d="M428 603h-86l89 87h87zM266 322l-53 -246h115l53 246h-115zM524 0h-431q-49 0 -72.5 29.5t-12.5 78.5l43 205q8 38 37 62t67 24h242l17 77h-222l16 76h348q38 0 56.5 -24t10.5 -62z" />
    <glyph glyph-name="acircumflex" unicode="&#xe2;" horiz-adv-x="626" 
d="M410 602l-20 34l-37 -34h-86l90 86h87l52 -86h-86zM266 322l-53 -246h115l53 246h-115zM524 0h-431q-49 0 -72.5 29.5t-12.5 78.5l43 205q8 38 37 62t67 24h242l17 77h-222l16 76h348q38 0 56.5 -24t10.5 -62z" />
    <glyph glyph-name="atilde" unicode="&#xe3;" horiz-adv-x="626" 
d="M566 707q-7 -22 -19 -43t-28.5 -37.5t-37 -26.5t-44.5 -10q-20 0 -34.5 5t-27.5 11t-24.5 11t-24.5 5q-14 0 -25.5 -8.5t-16.5 -21.5h-66q7 22 19 42.5t28.5 37t37 26.5t44.5 10q19 0 34 -5t28 -11t24.5 -11t24.5 -5q14 0 25.5 9t17.5 22h65zM266 322l-53 -246h115
l53 246h-115zM524 0h-431q-49 0 -72.5 29.5t-12.5 78.5l43 205q8 38 37 62t67 24h242l17 77h-222l16 76h348q38 0 56.5 -24t10.5 -62z" />
    <glyph glyph-name="adieresis" unicode="&#xe4;" horiz-adv-x="626" 
d="M518 603h-115l18 87h115zM360 603h-115l18 87h115zM266 322l-53 -246h115l53 246h-115zM524 0h-431q-49 0 -72.5 29.5t-12.5 78.5l43 205q8 38 37 62t67 24h242l17 77h-222l16 76h348q38 0 56.5 -24t10.5 -62z" />
    <glyph glyph-name="aring" unicode="&#xe5;" horiz-adv-x="626" 
d="M487 689q-4 -18 -14 -33.5t-24.5 -27t-31.5 -18t-34 -6.5q-18 0 -32 6.5t-23 18t-12.5 27t0.5 33.5t14 33.5t24 27t30.5 18t34.5 6.5q35 0 55 -25t13 -60zM439 689q3 16 -6 26.5t-24 10.5q-16 0 -29 -11t-16 -26q-4 -15 5 -26t24 -11q16 0 29 10.5t17 26.5zM266 322
l-53 -246h115l53 246h-115zM524 0h-431q-49 0 -72.5 29.5t-12.5 78.5l43 205q8 38 37 62t67 24h242l17 77h-222l16 76h348q38 0 56.5 -24t10.5 -62z" />
    <glyph glyph-name="ae" unicode="&#xe6;" horiz-adv-x="954" 
d="M626 476l-86 -400h115l86 400h-115zM266 322l-53 -246h115l53 246h-115zM51 313q8 38 37 62t67 24h242l17 77h-222l16 76h676q38 0 56.5 -24t10.5 -62l-75 -358q-11 -49 -47 -78.5t-84 -29.5h-654q-49 0 -72.5 29.5t-12.5 78.5z" />
    <glyph glyph-name="ccedilla" unicode="&#xe7;" horiz-adv-x="491" 
d="M238 -83q-3 -15 -13.5 -26t-24 -18t-28.5 -10.5t-28 -3.5q-20 0 -37 5.5t-34 12.5l18 27q12 -4 23.5 -8t25.5 -4q11 0 22.5 5t13.5 18q3 12 -6 16t-18 4q-10 0 -22 -5l-13 14l46 56h35l-32 -39q10 3 21 3q21 0 38.5 -11.5t12.5 -35.5zM83 466q8 38 37.5 62t67.5 24h334
l-16 -76h-207l-86 -400h207l-16 -76h-312q-49 0 -72.5 29.5t-12.5 78.5z" />
    <glyph glyph-name="egrave" unicode="&#xe8;" horiz-adv-x="626" 
d="M347 603l-54 87h87l54 -87h-87zM300 476l-53 -246h115l53 246h-115zM84 466q8 38 37.5 62t67.5 24h368q38 0 56.5 -24t10.5 -62l-66 -314h-327l-17 -76h327l-16 -76h-432q-49 0 -72.5 29.5t-12.5 78.5z" />
    <glyph glyph-name="eacute" unicode="&#xe9;" horiz-adv-x="626" 
d="M428 603h-86l89 87h87zM300 476l-53 -246h115l53 246h-115zM84 466q8 38 37.5 62t67.5 24h368q38 0 56.5 -24t10.5 -62l-66 -314h-327l-17 -76h327l-16 -76h-432q-49 0 -72.5 29.5t-12.5 78.5z" />
    <glyph glyph-name="ecircumflex" unicode="&#xea;" horiz-adv-x="626" 
d="M410 602l-20 34l-37 -34h-86l90 86h87l52 -86h-86zM300 476l-53 -246h115l53 246h-115zM84 466q8 38 37.5 62t67.5 24h368q38 0 56.5 -24t10.5 -62l-66 -314h-327l-17 -76h327l-16 -76h-432q-49 0 -72.5 29.5t-12.5 78.5z" />
    <glyph glyph-name="edieresis" unicode="&#xeb;" horiz-adv-x="626" 
d="M518 603h-115l18 87h115zM360 603h-115l18 87h115zM300 476l-53 -246h115l53 246h-115zM84 466q8 38 37.5 62t67.5 24h368q38 0 56.5 -24t10.5 -62l-66 -314h-327l-17 -76h327l-16 -76h-432q-49 0 -72.5 29.5t-12.5 78.5z" />
    <glyph glyph-name="igrave" unicode="&#xec;" horiz-adv-x="299" 
d="M174 603l-54 87h87l53 -87h-86zM183 0h-213l117 552h213z" />
    <glyph glyph-name="iacute" unicode="&#xed;" horiz-adv-x="299" 
d="M232 603h-86l89 87h87zM183 0h-213l117 552h213z" />
    <glyph glyph-name="icircumflex" unicode="&#xee;" horiz-adv-x="299" 
d="M232 602l-21 34l-36 -34h-86l90 86h86l54 -86h-87zM183 0h-213l117 552h213z" />
    <glyph glyph-name="idieresis" unicode="&#xef;" horiz-adv-x="299" 
d="M339 603h-115l18 87h115zM181 603h-115l18 87h115zM182 0h-212l117 552h212z" />
    <glyph glyph-name="eth" unicode="&#xf0;" horiz-adv-x="626" 
d="M268 476l-85 -400h115l85 400h-115zM53 466q8 38 37.5 62t67.5 24h241l-29 138h213l58 20l14 -80l-56 -20l13 -58l-117 -552h-434q-49 0 -72.5 29.5t-12.5 78.5z" />
    <glyph glyph-name="ntilde" unicode="&#xf1;" horiz-adv-x="626" 
d="M549 707q-7 -22 -19 -43t-28 -37.5t-36.5 -26.5t-45.5 -10q-20 0 -34.5 5t-27.5 11t-24.5 11t-24.5 5q-14 0 -25 -8.5t-16 -21.5h-66q7 22 18.5 42.5t28 37t37 26.5t44.5 10q19 0 34 -5t28 -11t24.5 -11t24.5 -5q14 0 25.5 9t17.5 22h65zM508 0h-212l101 476h-115
l-101 -476h-213l117 552h454q38 0 57 -24t11 -62z" />
    <glyph glyph-name="ograve" unicode="&#xf2;" horiz-adv-x="626" 
d="M342 603l-54 87h86l54 -87h-86zM299 476l-86 -400h115l86 400h-115zM83 466q8 38 37.5 62t67.5 24h368q38 0 56.5 -24t10.5 -62l-75 -358q-11 -49 -47 -78.5t-84 -29.5h-325q-49 0 -72.5 29.5t-12.5 78.5z" />
    <glyph glyph-name="oacute" unicode="&#xf3;" horiz-adv-x="626" 
d="M428 603h-86l89 87h87zM299 476l-86 -400h115l86 400h-115zM83 466q8 38 37.5 62t67.5 24h368q38 0 56.5 -24t10.5 -62l-75 -358q-11 -49 -47 -78.5t-84 -29.5h-325q-49 0 -72.5 29.5t-12.5 78.5z" />
    <glyph glyph-name="ocircumflex" unicode="&#xf4;" horiz-adv-x="626" 
d="M410 602l-20 34l-37 -34h-86l90 86h87l52 -86h-86zM299 476l-86 -400h115l86 400h-115zM83 466q8 38 37.5 62t67.5 24h368q38 0 56.5 -24t10.5 -62l-75 -358q-11 -49 -47 -78.5t-84 -29.5h-325q-49 0 -72.5 29.5t-12.5 78.5z" />
    <glyph glyph-name="otilde" unicode="&#xf5;" horiz-adv-x="626" 
d="M549 707q-7 -22 -19 -43t-28 -37.5t-36.5 -26.5t-45.5 -10q-20 0 -34.5 5t-27.5 11t-24.5 11t-24.5 5q-14 0 -25 -8.5t-16 -21.5h-66q7 22 18.5 42.5t28 37t37 26.5t44.5 10q19 0 34 -5t28 -11t24.5 -11t24.5 -5q14 0 25.5 9t17.5 22h65zM299 476l-86 -400h115l86 400
h-115zM83 466q8 38 37.5 62t67.5 24h368q38 0 56.5 -24t10.5 -62l-75 -358q-11 -49 -47 -78.5t-84 -29.5h-325q-49 0 -72.5 29.5t-12.5 78.5z" />
    <glyph glyph-name="odieresis" unicode="&#xf6;" horiz-adv-x="626" 
d="M518 603h-115l18 87h115zM360 603h-115l18 87h115zM299 476l-86 -400h115l86 400h-115zM83 466q8 38 37.5 62t67.5 24h368q38 0 56.5 -24t10.5 -62l-75 -358q-11 -49 -47 -78.5t-84 -29.5h-325q-49 0 -72.5 29.5t-12.5 78.5z" />
    <glyph glyph-name="divide" unicode="&#xf7;" horiz-adv-x="489" 
d="M370 402h-172l24 115h172zM451 216h-431l18 86h431zM284 0h-172l24 115h172z" />
    <glyph glyph-name="oslash" unicode="&#xf8;" horiz-adv-x="626" 
d="M300 483l-48 -226l145 139l18 87h-115zM230 156l-18 -87h115l48 226zM83 466q8 38 37.5 62t67.5 24h368q38 0 56.5 -24t10.5 -62l-75 -358q-11 -49 -47 -78.5t-84 -29.5h-325q-49 0 -72.5 29.5t-12.5 78.5z" />
    <glyph glyph-name="ugrave" unicode="&#xf9;" horiz-adv-x="626" 
d="M344 603l-53 87h86l54 -87h-87zM315 552l-102 -476h115l102 476h212l-94 -444q-11 -49 -47 -78.5t-84 -29.5h-325q-49 0 -72.5 29.5t-12.5 78.5l95 444h213z" />
    <glyph glyph-name="uacute" unicode="&#xfa;" horiz-adv-x="626" 
d="M428 603h-86l89 87h87zM315 552l-102 -476h115l102 476h212l-94 -444q-11 -49 -47 -78.5t-84 -29.5h-325q-49 0 -72.5 29.5t-12.5 78.5l95 444h213z" />
    <glyph glyph-name="ucircumflex" unicode="&#xfb;" horiz-adv-x="626" 
d="M410 602l-20 34l-37 -34h-86l90 86h87l52 -86h-86zM315 552l-102 -476h115l102 476h212l-94 -444q-11 -49 -47 -78.5t-84 -29.5h-325q-49 0 -72.5 29.5t-12.5 78.5l95 444h213z" />
    <glyph glyph-name="udieresis" unicode="&#xfc;" horiz-adv-x="626" 
d="M518 603h-115l18 87h115zM360 603h-115l18 87h115zM315 552l-102 -476h115l102 476h212l-94 -444q-11 -49 -47 -78.5t-84 -29.5h-325q-49 0 -72.5 29.5t-12.5 78.5l95 444h213z" />
    <glyph glyph-name="yacute" unicode="&#xfd;" horiz-adv-x="626" 
d="M428 603h-86l89 87h87zM80 -62h220l13 62h-221q-49 0 -72.5 29.5t-12.5 78.5l95 444h213l-101 -476h115l101 476h212l-123 -582q-11 -49 -47 -78.5t-84 -29.5h-325z" />
    <glyph glyph-name="thorn" unicode="&#xfe;" horiz-adv-x="626" 
d="M524 0h-327l-29 -138h-213l176 828h213l-29 -138h241q38 0 56.5 -24t10.5 -62zM299 476l-86 -400h115l86 400h-115z" />
    <glyph glyph-name="ydieresis" unicode="&#xff;" horiz-adv-x="626" 
d="M532 603h-115l19 87h115zM374 603h-115l19 87h115zM94 -62h220l13 62h-221q-49 0 -72.5 29.5t-12.5 78.5l95 444h213l-101 -476h115l101 476h212l-123 -582q-11 -49 -47 -78.5t-84 -29.5h-325z" />
    <glyph glyph-name="dotlessi" unicode="&#x131;" horiz-adv-x="299" 
d="M197 0h-213l118 552h213z" />
    <glyph glyph-name="Lslash" unicode="&#x141;" horiz-adv-x="575" 
d="M459 0h-489l57 269l-62 -12v84l81 16l70 333h230l-60 -284l62 13v-85l-81 -16l-49 -232h259z" />
    <glyph glyph-name="lslash" unicode="&#x142;" horiz-adv-x="361" 
d="M348 334l-99 -20l-66 -314h-213l57 269l-62 -12v84l81 16l70 333h213l-61 -288l80 17v-85z" />
    <glyph glyph-name="OE" unicode="&#x152;" horiz-adv-x="932" 
d="M328 603l-110 -517h144l110 517h-144zM78 0q-49 0 -72.5 29.5t-12.5 78.5l100 474q11 49 47 78.5t84 29.5h754l-18 -87h-258l-46 -215h201l-18 -86h-201l-46 -216h258l-18 -86h-754z" />
    <glyph glyph-name="oe" unicode="&#x153;" horiz-adv-x="932" 
d="M88 0q-49 0 -72.5 29.5t-12.5 78.5l77 358q8 38 37.5 62t67.5 24h696q38 0 56.5 -24t10.5 -62l-66 -314h-328l-17 -76h328l-16 -76h-761zM623 476l-53 -246h115l53 246h-115zM296 476l-86 -400h115l86 400h-115z" />
    <glyph glyph-name="Scaron" unicode="&#x160;" 
d="M439 744h-86l90 86h86zM532 388q49 0 72.5 -29.5t12.5 -78.5l-36 -172q-11 -49 -47 -78.5t-84 -29.5h-388q-49 0 -72 29.5t-13 78.5l19 93h230l-24 -115h144l46 216h-266q-49 0 -72.5 29.5t-12.5 78.5l36 172q11 49 47 78.5t84 29.5h388q49 0 72.5 -29.5t12.5 -78.5
l-19 -93h-230l24 114h-144l-46 -215h266z" />
    <glyph glyph-name="scaron" unicode="&#x161;" horiz-adv-x="626" 
d="M413 603h-86l89 87h87zM491 315q38 0 56.5 -24t10.5 -62l-25 -121q-10 -49 -46.5 -78.5t-84.5 -29.5h-325q-49 0 -72.5 29.5t-12.5 78.5l12 53h213l-19 -85h115l35 163h-220q-49 0 -72.5 29.5t-12.5 78.5l25 119q8 38 37.5 62t67.5 24h368q38 0 56.5 -24t10.5 -62
l-16 -75h-212l19 85h-115l-35 -161h242z" />
    <glyph glyph-name="Ydieresis" unicode="&#x178;" horiz-adv-x="661" 
d="M553 740h-115l18 86h115zM395 740h-115l18 86h115zM419 216l-46 -216h-230l46 216l-87 474h230l65 -356l215 356h94z" />
    <glyph glyph-name="Zcaron" unicode="&#x17d;" horiz-adv-x="575" 
d="M400 741h-86l-54 87h87l21 -35l36 35h86zM572 603l-369 -517h259l-18 -86h-489l18 86l369 517h-259l19 87h489z" />
    <glyph glyph-name="zcaron" unicode="&#x17e;" horiz-adv-x="478" 
d="M337 602h-86l-54 86h86l22 -34l36 34h86zM480 483l-295 -414h207l-15 -69h-420l15 69l295 414h-207l14 69h420z" />
    <glyph glyph-name="florin" unicode="&#x192;" horiz-adv-x="563" 
d="M265 -30q-11 -49 -47 -78.5t-84 -29.5h-208l16 76h104l115 538h-104l16 76h104q5 25 11.5 49.5t18.5 44t32 32t53 12.5h333l-16 -76h-207l-13 -62h161l-16 -76h-161z" />
    <glyph glyph-name="circumflex" unicode="&#x2c6;" horiz-adv-x="286" 
d="M163 602l-22 34l-36 -34h-86l90 86h86l54 -86h-86z" />
    <glyph glyph-name="caron" unicode="&#x2c7;" horiz-adv-x="365" 
d="M351 714q-19 -71 -67.5 -100.5t-115.5 -29.5q-33 0 -59 7t-43 22.5t-23.5 40.5t-0.5 60h67q0 -17 6 -27.5t16.5 -16t24 -7.5t29.5 -2q15 0 30 2t27.5 7.5t23 16t18.5 27.5h67v0z" />
    <glyph glyph-name="breve" unicode="&#x2d8;" horiz-adv-x="376" 
d="M351 716q-17 -70 -64 -98.5t-112 -28.5q-33 0 -58.5 7t-42 22t-23.5 39t-1 59h66q0 -17 5.5 -27.5t15.5 -16t24 -7.5t29 -2q31 0 56.5 9.5t39.5 43.5h65v0z" />
    <glyph glyph-name="dotaccent" unicode="&#x2d9;" horiz-adv-x="172" 
d="M135 603h-115l18 87h115z" />
    <glyph glyph-name="ring" unicode="&#x2da;" horiz-adv-x="231" 
d="M201 690q-4 -18 -14 -33.5t-24 -27t-30.5 -18.5t-34.5 -7q-36 0 -56 25t-12 61q4 18 14 33.5t24 27t31 18t35 6.5q35 0 54.5 -25t12.5 -60zM153 690q3 15 -5.5 26t-23.5 11t-29 -11t-17 -26q-3 -16 5.5 -27t24.5 -11q15 0 28.5 11.5t16.5 26.5z" />
    <glyph glyph-name="ogonek" unicode="&#x2db;" horiz-adv-x="194" 
d="M176 5q-14 -5 -30 -12t-30 -16.5t-25 -22t-14 -28.5q-3 -14 3 -22.5t20 -8.5t32 9.5t31 16.5l8 -23q-25 -14 -52 -26.5t-53 -12.5q-27 0 -44 14.5t-11 43.5q5 25 24.5 42.5t44 28t51 16.5t46.5 9z" />
    <glyph glyph-name="tilde" unicode="&#x2dc;" horiz-adv-x="381" 
d="M364 707q-7 -22 -19 -43t-28.5 -37.5t-37 -26.5t-45.5 -10q-19 0 -33.5 5t-27 11t-24.5 11t-25 5q-14 0 -25 -8.5t-17 -21.5h-65q7 22 18.5 42.5t28 37t37.5 26.5t45 10q19 0 34 -5t27.5 -11t24 -11t25.5 -5t25 9t16 22h66v0z" />
    <glyph glyph-name="hungarumlaut" unicode="&#x2dd;" horiz-adv-x="374" 
d="M264 602h-86l90 86h86zM106 602h-86l90 86h86z" />
    <glyph glyph-name="endash" unicode="&#x2013;" horiz-adv-x="458" 
d="M421 216h-402l18 86h402z" />
    <glyph glyph-name="emdash" unicode="&#x2014;" horiz-adv-x="575" 
d="M537 216h-517l18 86h517z" />
    <glyph glyph-name="quoteleft" unicode="&#x2018;" horiz-adv-x="259" 
d="M194 466h-173l24 114l7 13t15.5 28.5t16 29.5t8.5 16h86l-46 -87h86z" />
    <glyph glyph-name="quoteright" unicode="&#x2019;" horiz-adv-x="259" 
d="M212 552l-7 -13t-15.5 -28.5t-16 -29t-8.5 -15.5h-86l47 86h-87l24 115h173z" />
    <glyph glyph-name="quotesinglbase" unicode="&#x201a;" horiz-adv-x="230" 
d="M198 0l-7 -13t-15.5 -28.5t-16 -29t-8.5 -15.5h-86l47 86h-86l24 115h172z" />
    <glyph glyph-name="quotedblleft" unicode="&#x201c;" horiz-adv-x="474" 
d="M410 466h-172l24 114l7 13t15 28.5t15.5 29.5t8.5 16h87l-47 -87h86zM195 466h-173l24 114l7 13t15.5 28.5t16 29.5t8.5 16h86l-47 -87h87z" />
    <glyph glyph-name="quotedblright" unicode="&#x201d;" horiz-adv-x="474" 
d="M427 552l-7 -13t-15 -28.5t-15.5 -29t-8.5 -15.5h-87l47 86h-86l24 115h172zM212 552l-7 -13t-15.5 -28.5t-16 -29t-8.5 -15.5h-86l47 86h-87l24 115h173z" />
    <glyph glyph-name="quotedblbase" unicode="&#x201e;" horiz-adv-x="444" 
d="M413 0l-7 -13t-15.5 -28.5t-16 -29t-8.5 -15.5h-86l47 86h-86l24 115h172zM197 0l-7 -13t-15 -28.5t-15.5 -29t-8.5 -15.5h-87l47 86h-86l24 115h172z" />
    <glyph glyph-name="dagger" unicode="&#x2020;" horiz-adv-x="458" 
d="M457 402h-129l-115 -540h-144l115 540h-129l18 87h129l43 201h144l-43 -201h129z" />
    <glyph glyph-name="daggerdbl" unicode="&#x2021;" horiz-adv-x="458" 
d="M457 402h-129l-46 -215h129l-18 -86h-129l-51 -239h-144l51 239h-129l18 86h129l46 215h-129l18 87h129l43 201h144l-43 -201h129z" />
    <glyph glyph-name="bullet" unicode="&#x2022;" horiz-adv-x="286" 
d="M259 274q-5 -24 -18.5 -45t-33 -37t-42.5 -25t-47 -9t-43 9t-31 25t-17 37t0 45t19 45t33 36.5t42 24.5t47 9t43 -9t31.5 -24.5t17 -36.5t-0.5 -45z" />
    <glyph glyph-name="ellipsis" unicode="&#x2026;" horiz-adv-x="691" 
d="M650 0h-173l24 115h173zM420 0h-173l24 115h173zM190 0h-173l24 115h173z" />
    <glyph glyph-name="perthousand" unicode="&#x2030;" horiz-adv-x="958" 
d="M857 0h-241l58 276h241zM284 414h-241l58 276h241zM126 0h-93l506 690h94zM558 0h-241l58 276h241zM759 241l-44 -207h57l44 207h-57zM186 655l-44 -207h57l44 207h-57zM460 241l-44 -207h58l44 207h-58z" />
    <glyph glyph-name="guilsinglleft" unicode="&#x2039;" horiz-adv-x="396" 
d="M243 275l70 -190h-200l-70 190l150 190h200z" />
    <glyph glyph-name="guilsinglright" unicode="&#x203a;" horiz-adv-x="396" 
d="M203 85h-200l150 190l-70 190h200l70 -190z" />
    <glyph glyph-name="fraction" unicode="&#x2044;" horiz-adv-x="510" 
d="M50 0h-94l506 690h94z" />
    <glyph glyph-name="trademark" unicode="&#x2122;" horiz-adv-x="603" 
d="M545 413h-91l36 173l-100 -173h-37l-26 160l-34 -160h-35l58 276h83l26 -151l87 151h91zM275 654h-69l-51 -241h-92l51 241h-69l7 35h230z" />
    <glyph glyph-name="partialdiff" unicode="&#x2202;" horiz-adv-x="626" 
d="M77 0q-49 0 -72.5 29.5t-12.5 78.5l77 358q8 38 37 62t67 24h242l-29 138h213l28 -138l-117 -552h-433zM284 476l-85 -400h115l85 400h-115z" />
    <glyph glyph-name="minus" unicode="&#x2212;" horiz-adv-x="385" 
d="M376 216h-330l18 86h330z" />
    <glyph glyph-name="integral" unicode="&#x222b;" horiz-adv-x="409" 
d="M-129 -62h104l142 665q8 39 36.5 63t67.5 24h233l-16 -76h-107l-137 -644q-11 -49 -47 -78.5t-84 -29.5h-208z" />
    <glyph glyph-name="notequal" unicode="&#x2260;" horiz-adv-x="631" 
d="M526 445h71l-25 -115h-153l-106 -114h235l-24 -115h-317l-93 -101h-101l94 101h-72l24 115h154l106 114h-236l25 115h317l92 100h101z" />
    <glyph glyph-name="lessequal" unicode="&#x2264;" horiz-adv-x="427" 
d="M433 419l-290 -115l241 -115l-16 -79l-335 159l15 69l402 159zM344 0h-368l16 74h368z" />
    <glyph glyph-name="greaterequal" unicode="&#x2265;" horiz-adv-x="427" 
d="M401 269l-401 -159l16 79l292 115l-243 115l17 78l334 -159zM344 0h-368l16 74h368z" />
    <glyph glyph-name="fi" unicode="&#xfb01;" horiz-adv-x="749" 
d="M631 0h-213l101 476h-161l-101 -476h-212l101 476h-104l16 76h104q5 25 11.5 49.5t18.5 44t32 32t53 12.5h333l-16 -76h-207l-13 -62h374z" />
    <glyph glyph-name="fl" unicode="&#xfb02;" horiz-adv-x="793" 
d="M677 0h-213l130 614h-207l-13 -62h161l-16 -76h-161l-101 -476h-212l101 476h-104l16 76h104q5 25 11.5 49.5t18.5 44t32 32t53 12.5h546z" />
  </font>
</defs>
</svg>
