<?xml version="1.0" standalone="no"?>
<!DOCTYPE svg PUBLIC "-//W3C//DTD SVG 1.1//EN" "http://www.w3.org/Graphics/SVG/1.1/DTD/svg11.dtd" >
<svg xmlns="http://www.w3.org/2000/svg" xmlns:xlink="http://www.w3.org/1999/xlink" version="1.1">
<metadata>
Created by FontForge 20170731 at Tue Nov  4 13:57:56 2014
 By Aleksey,,,
Copyright (c) 2013 by Agencia Africa (Crystian Cruz &#38; Marina Chaccur). All rights reserved.
</metadata>
<defs>
<font id="UOLtext-Light" horiz-adv-x="1139" >
  <font-face 
    font-family="UOLtext Light"
    font-weight="300"
    font-stretch="normal"
    units-per-em="2048"
    panose-1="2 11 3 4 4 2 2 4 2 4"
    ascent="1547"
    descent="-501"
    x-height="1062"
    cap-height="1466"
    bbox="-427 -434 2055 1897"
    underline-thickness="150"
    underline-position="-442"
    unicode-range="U+000D-FB02"
  />
<missing-glyph horiz-adv-x="1229" 
 />
    <glyph glyph-name=".notdef" horiz-adv-x="1229" 
 />
    <glyph glyph-name=".null" horiz-adv-x="569" 
 />
    <glyph glyph-name=".null" horiz-adv-x="569" 
 />
    <glyph glyph-name="nonmarkingreturn" unicode="&#xd;" horiz-adv-x="569" 
 />
    <glyph glyph-name="space" unicode=" " horiz-adv-x="569" 
 />
    <glyph glyph-name="exclam" unicode="!" horiz-adv-x="682" 
d="M291 344l-30 1122h153l-27 -1122h-96zM246 79q0 49 20.5 69.5t68.5 20.5t69 -20.5t21 -69.5q0 -48 -21 -68.5t-69 -20.5t-68.5 20.5t-20.5 68.5z" />
    <glyph glyph-name="quotedbl" unicode="&#x22;" horiz-adv-x="569" 
d="M116 994l-41 475h151l-40 -475h-70zM385 994l-41 475h151l-40 -475h-70z" />
    <glyph glyph-name="numbersign" unicode="#" 
d="M897 1492h111l-95 -468h177l1 -103h-199l-82 -393l280 1l1 -102h-302l-93 -453h-107l92 453h-358l-92 -453h-107l92 453h-171v101h191l82 393h-273v102h294l93 469h109l-94 -469l357 1zM344 528h357l82 393h-357z" />
    <glyph glyph-name="dollar" unicode="$" 
d="M172 212q43 -20 79.5 -41t76 -38.5t85.5 -29.5t108 -15v605l-57 14q-97 22 -163 57t-106.5 84t-58 113t-17.5 145q0 83 28.5 151.5t81 118.5t127 80t165.5 35v110h84v-111q58 -5 114 -19t105 -32.5t87 -38.5t59 -37l-63 -113q-31 24 -67.5 45t-76 38.5t-80 29.5t-78.5 17
v-579q129 -32 211 -73t129.5 -92t65 -112t17.5 -133q0 -74 -17.5 -145.5t-65 -128.5t-129.5 -95t-211 -46v-189h-84v188q-66 1 -123 12t-107.5 28t-95 38.5t-83.5 44.5zM903 387q0 61 -19 105t-56.5 77t-93.5 57.5t-129 45.5v-583q95 7 153.5 37t90.5 72.5t43 92t11 96.5z
M248 1113q0 -51 11 -95.5t41.5 -81.5t83.5 -66.5t137 -49.5v561q-67 -6 -118 -29t-85.5 -59t-52 -82t-17.5 -98z" />
    <glyph glyph-name="percent" unicode="%" horiz-adv-x="1821" 
d="M428 -52l849 1543h118l-856 -1543h-111zM141 1097q0 195 71.5 293.5t220.5 98.5q143 0 217 -98.5t74 -293.5q0 -189 -74 -284t-218 -95q-148 0 -219.5 95t-71.5 284zM250 1097q0 -157 43.5 -230.5t138.5 -73.5t139 74.5t44 230.5q0 167 -45 241.5t-137 74.5
q-94 0 -138.5 -75.5t-44.5 -241.5zM1089 327q0 195 72 293.5t221 98.5q143 0 217 -98.5t74 -293.5q0 -189 -74 -284t-218 -95q-148 0 -220 95t-72 284zM1198 327q0 -157 44 -230.5t139 -73.5t139 74.5t44 230.5q0 167 -45 241.5t-137 74.5q-93 0 -138.5 -75.5t-45.5 -241.5z
" />
    <glyph glyph-name="ampersand" unicode="&#x26;" horiz-adv-x="1366" 
d="M837 1177q-23 104 -77.5 154t-144.5 50q-97 0 -146 -49t-49 -143q0 -36 8 -68.5t25 -66.5t43.5 -70t62.5 -79l471 -556q39 94 58.5 187t26.5 189q34 -3 58 -6.5t56 -7.5q-14 -122 -41.5 -235t-82.5 -216l175 -208l-95 -85l-155 181q-54 -47 -103.5 -80t-99.5 -53.5
t-101.5 -30.5t-109.5 -10q-116 -1 -207.5 26.5t-155 82.5t-97.5 136t-34 187q0 64 17.5 126.5t55.5 120.5t97 109t142 91q-31 40 -57 75t-45.5 72t-30.5 80.5t-11 101.5q0 59 18.5 114.5t57.5 99t101 70t149 26.5q72 0 128 -20.5t98.5 -57.5t71 -87t45.5 -109zM487 784
q-62 -44 -106.5 -87.5t-73 -89.5t-42 -96t-13.5 -106q0 -76 28 -135t79 -100t122 -62.5t156 -21.5q48 0 90 8.5t81 26.5t76 45t76 65z" />
    <glyph glyph-name="quotesingle" unicode="'" horiz-adv-x="455" 
d="M193 991l-41 475h151l-40 -475h-70z" />
    <glyph glyph-name="parenleft" unicode="(" horiz-adv-x="682" 
d="M162 510q0 129 19 243.5t52 213t70.5 181.5t78 150t66.5 103t57 71l57 -49q-43 -64 -91 -155.5t-89 -204t-70 -248.5t-29 -301q0 -143 28.5 -272t69 -242t78 -191.5t98.5 -172.5l-55 -45q-57 74 -111 151.5t-105.5 194t-87.5 258.5t-36 315z" />
    <glyph glyph-name="parenright" unicode=")" horiz-adv-x="682" 
d="M520 510q0 -173 -36 -315t-87.5 -258.5t-105.5 -194t-111 -151.5l-55 45q61 94 98.5 172.5t78 191.5t69 242t28.5 272q0 165 -29 301t-70 248.5t-89 204t-91 155.5l57 49q31 -35 57 -71t66.5 -103t78 -150t70.5 -181.5t52 -213t19 -243.5z" />
    <glyph glyph-name="asterisk" unicode="*" horiz-adv-x="797" 
d="M88 1214l34 102l253 -112l-27 276h103l-32 -277l261 113l34 -102l-277 -57l194 -208l-87 -61l-147 239l-139 -238l-85 60l187 208z" />
    <glyph glyph-name="plus" unicode="+" horiz-adv-x="1352" 
d="M726 774h483v-102h-483v-483h-102v483h-474v102h474v476h102v-476z" />
    <glyph glyph-name="comma" unicode="," horiz-adv-x="569" 
d="M196 79q0 49 20.5 69.5t68.5 20.5t67.5 -20.5t21.5 -69.5q1 -63 -9 -109.5t-31.5 -82t-54.5 -63.5t-78 -53l-26 43q68 40 98.5 85t30.5 91h-19q-48 0 -68.5 20.5t-20.5 68.5z" />
    <glyph glyph-name="hyphen" unicode="-" horiz-adv-x="682" 
d="M77 473v112h527v-112h-527z" />
    <glyph glyph-name="period" unicode="." horiz-adv-x="569" 
d="M196 79q0 49 20.5 69.5t68.5 20.5t69 -20.5t21 -69.5q0 -48 -21 -68.5t-69 -20.5t-68.5 20.5t-20.5 68.5z" />
    <glyph glyph-name="slash" unicode="/" horiz-adv-x="569" 
d="M8 -21l468 1507h100l-467 -1507h-101z" />
    <glyph glyph-name="zero" unicode="0" 
d="M110 711q0 183 22.5 325t75.5 239t141 147.5t219 50.5q126 0 213 -50.5t141 -147.5t78 -239t24 -325q0 -106 -8.5 -202t-28.5 -178t-53.5 -148t-84.5 -112.5t-121 -71.5t-162 -25q-133 0 -220.5 55.5t-140 153.5t-74 233.5t-21.5 294.5zM240 711q0 -165 18.5 -284
t58.5 -195.5t101.5 -113t147.5 -36.5q83 0 145 36.5t103 113.5t61.5 196t20.5 285q0 189 -21.5 314.5t-63.5 200.5t-103 106t-139 31q-80 0 -141.5 -31t-103 -106t-63 -201t-21.5 -316z" />
    <glyph glyph-name="one" unicode="1" 
d="M213 112h329v1207l-358 -241l-53 81l444 313h95v-1360h301v-112h-758v112z" />
    <glyph glyph-name="two" unicode="2" 
d="M873 1072q0 57 -11.5 110.5t-45 95t-94.5 66t-159 24.5q-35 0 -79.5 -8.5t-93.5 -23t-100.5 -34t-100.5 -40.5l-34 109q47 18 99.5 35t107 29.5t110 20.5t109.5 8q121 0 201.5 -30t129 -83t69 -124.5t20.5 -153.5q0 -47 -11 -93.5t-37 -97t-70.5 -106.5t-110.5 -122
l-552 -537l803 1v-118h-909v150l539 531q61 62 103.5 113t68 97t37 89.5t11.5 91.5z" />
    <glyph glyph-name="three" unicode="3" 
d="M558 80q98 0 164.5 26t107 74t58 116.5t17.5 154.5q0 88 -19.5 152t-60.5 106t-106.5 62t-156.5 20q-63 0 -109 -5t-90 -21l-48 94l552 475h-653v112h769v-139l-488 -423q15 2 25.5 3t19.5 1.5t19.5 0.5h26.5q120 0 205 -31t138.5 -88t78.5 -138.5t25 -181.5
q0 -105 -26 -192.5t-81.5 -150.5t-142 -98t-207.5 -35q-54 0 -113 8t-118 21.5t-115 32.5t-104 41l45 115q112 -53 212.5 -82.5t174.5 -29.5z" />
    <glyph glyph-name="four" unicode="4" 
d="M823 1456l-645 -978h536v324l59 126h69v-450h201v-109h-201v-369h-128v369h-645v137l604 950h150z" />
    <glyph glyph-name="five" unicode="5" 
d="M576 -26q-54 0 -113 8t-118 21.5t-115 32.5t-104 41l45 115q112 -53 212.5 -82.5t174.5 -29.5q102 0 158 27.5t98.5 74t61.5 115t19 154.5q0 83 -16.5 145.5t-52 104.5t-84 63.5t-136.5 23.5q-175 -5 -334 -130l-91 53v735h732v-109h-604v-548l209 98q49 12 134 6.5
t152.5 -34.5t117 -84.5t75.5 -137t26 -187.5q0 -105 -27.5 -191t-85 -147t-145.5 -103.5t-189 -34.5z" />
    <glyph glyph-name="six" unicode="6" 
d="M590 1367q-102 0 -169 -43t-107 -118t-58 -176t-22 -216q33 20 72 39t84.5 34t97.5 24.5t112 9.5q97 0 174 -26.5t130.5 -81t82 -138.5t28.5 -198q0 -104 -25.5 -194t-79 -156.5t-135.5 -104.5t-195 -38q-122 0 -211 36.5t-147.5 121t-87 222.5t-28.5 340q0 198 28.5 343
t86.5 239.5t145.5 140t205.5 45.5q116 0 209.5 -22t176.5 -50l-37 -107q-81 35 -161 54.5t-170 19.5zM576 90q81 0 139.5 28t96.5 78t56.5 119t18.5 150q0 93 -21.5 159t-59.5 107t-92 60t-118 19q-110 0 -198 -26t-166 -72v-12q0 -175 22 -292t65.5 -187.5t107.5 -100.5
t149 -30z" />
    <glyph glyph-name="seven" unicode="7" 
d="M123 1447h909v-95l-615 -1352h-139l630 1335h-785v112z" />
    <glyph glyph-name="eight" unicode="8" 
d="M100 411q0 87 24.5 151.5t65.5 109.5t94.5 72t111.5 41q-60 21 -108 47t-81.5 63.5t-51.5 88t-18 119.5q0 78 31.5 145.5t89 117t138 78t178.5 28.5q96 0 170.5 -28.5t125.5 -78t77.5 -117t26.5 -145.5q0 -69 -22.5 -119t-58.5 -85t-80.5 -57.5t-88.5 -37.5
q87 -26 146.5 -59.5t96 -80.5t52.5 -109.5t16 -144.5q0 -109 -31.5 -190.5t-91.5 -136t-145.5 -81.5t-193.5 -27q-111 0 -199 27t-148.5 81.5t-93 136.5t-32.5 191zM230 411q0 -79 24 -140t68.5 -103t107.5 -63.5t142 -21.5q77 0 138.5 23.5t105 66.5t66.5 103.5t23 134.5
q0 87 -18 139.5t-61 87t-116 57.5t-182 51q-70 -21 -125.5 -46.5t-93.5 -63t-58.5 -91.5t-20.5 -134zM844 1103q0 68 -20 117.5t-56 81.5t-86 47t-110 15q-64 0 -119.5 -17.5t-97 -51t-65 -82.5t-23.5 -113q0 -54 18.5 -94.5t58.5 -71.5t104 -54.5t155 -44.5q42 14 84.5 33
t77.5 49t57 75t22 111z" />
    <glyph glyph-name="nine" unicode="9" 
d="M546 89q102 0 171 43t112 118t63.5 176t24.5 216q-33 -20 -74.5 -39t-89.5 -34t-102.5 -24.5t-114.5 -9.5q-97 0 -176.5 26.5t-135.5 81t-87 138.5t-31 198q0 104 28 194t84 156.5t140.5 104.5t197.5 38q122 0 213.5 -36.5t153 -121t92 -222.5t30.5 -340q0 -198 -31 -343
t-92 -239.5t-150.5 -140t-207.5 -45.5q-117 0 -217 22t-184 50l37 107q81 -35 168.5 -54.5t177.5 -19.5zM560 1366q-81 0 -142 -28t-102 -78t-61.5 -119t-20.5 -150q0 -93 23.5 -159t65 -107t97 -60t120.5 -19q110 0 205.5 26t173.5 72v12q0 175 -24.5 292t-70.5 187.5
t-112.5 100.5t-151.5 30z" />
    <glyph glyph-name="colon" unicode=":" horiz-adv-x="569" 
d="M196 79q0 49 20.5 69.5t68.5 20.5t69 -20.5t21 -69.5q0 -48 -21 -68.5t-69 -20.5t-68.5 20.5t-20.5 68.5zM196 980q0 49 20.5 69.5t68.5 20.5t69 -20.5t21 -69.5q0 -48 -21 -68.5t-69 -20.5t-68.5 20.5t-20.5 68.5z" />
    <glyph glyph-name="semicolon" unicode=";" horiz-adv-x="569" 
d="M197 981q0 48 20 68t68 20q49 0 69.5 -20t20.5 -68q0 -50 -20.5 -70t-69.5 -20q-48 0 -68 20t-20 70zM197 80q0 48 20 69t68 21q49 0 68.5 -21t21.5 -69q0 -63 -10 -110t-31.5 -83t-54.5 -64t-78 -52l-27 43q69 42 99 86.5t30 89.5h-18q-48 0 -68 20t-20 70z" />
    <glyph glyph-name="less" unicode="&#x3c;" horiz-adv-x="1352" 
d="M158 651v134l1047 434v-124l-953 -379l953 -383v-119z" />
    <glyph glyph-name="equal" unicode="=" horiz-adv-x="1352" 
d="M146 435v112h1059v-112h-1059zM146 888v112h1059v-112h-1059z" />
    <glyph glyph-name="greater" unicode="&#x3e;" horiz-adv-x="1352" 
d="M158 214v119l953 383l-953 379v124l1047 -434v-134z" />
    <glyph glyph-name="question" unicode="?" horiz-adv-x="1024" 
d="M415 79q0 49 20.5 69.5t68.5 20.5t69 -20.5t21 -69.5q0 -48 -21 -68.5t-69 -20.5t-68.5 20.5t-20.5 68.5zM556 1380q-45 0 -97.5 -11.5t-104.5 -28.5t-100.5 -38t-85.5 -40l-53 106q37 26 90.5 48.5t114.5 39t125.5 26t123.5 9.5q190 0 296.5 -89t106.5 -249
q5 -80 -25 -147t-94 -137.5t-114 -114.5q-53 -52 -86 -90.5t-52 -75t-28 -80t-9 -108.5v-40h-130v36q0 79 11.5 133t41 102.5t76 97t105.5 111.5q53 51 83.5 85t51 66.5t30.5 62.5t14 82q-2 67 -21.5 110.5t-51.5 71.5t-86 45t-132 17z" />
    <glyph glyph-name="at" unicode="@" horiz-adv-x="1638" 
d="M346 285q0 87 28 148t81 99.5t130.5 56.5t175.5 18q70 0 155 -10t186 -30v82q0 162 -68 239t-221 77q-84 0 -173 -18.5t-186 -50.5l-32 109q42 15 90 27.5t99 21.5t103.5 14t103.5 5q108 0 185.5 -25t127.5 -75.5t73.5 -128t23.5 -182.5l-1 -376q0 -65 1 -107t10.5 -66
t32 -33t64.5 -9q59 0 98 36.5t61.5 105t31.5 167t9 223.5q0 104 -13.5 202.5t-44 185.5t-81.5 159.5t-126 125t-176.5 82t-233.5 29.5q-141 0 -251 -31.5t-194 -88t-142.5 -135t-95 -173.5t-53.5 -203.5t-17 -223.5q0 -224 50.5 -380.5t151 -255.5t250 -144t346.5 -45
q91 0 180 9.5t172 27t157 42t134 54.5l39 -94q-64 -30 -137 -54.5t-157.5 -42.5t-181 -27.5t-206.5 -9.5q-131 0 -249 18.5t-219 61.5t-183 113t-139.5 172t-88.5 239.5t-31 315.5q0 221 55.5 397.5t165 299.5t272 189t376.5 66q146 0 260.5 -32t201 -89.5t147.5 -138.5
t99 -178.5t55.5 -209.5t17.5 -231q0 -144 -11.5 -259.5t-48 -195.5t-104 -123t-179.5 -43q-51 0 -82.5 11t-52 33t-34 55t-27.5 76l-172 -154q-37 -11 -94.5 -20.5t-129.5 -9.5q-88 0 -155.5 17t-114 54.5t-70.5 96.5t-24 142zM1102 474q-85 12 -165.5 22t-163.5 10
q-149 0 -219 -52.5t-70 -166.5q0 -110 62.5 -161t187.5 -51q60 0 112.5 14.5t97.5 38.5t84 54t74 61v231z" />
    <glyph glyph-name="A" unicode="A" horiz-adv-x="1366" 
d="M585 1466h161l606 -1466h-138l-171 409h-736l-160 -409h-138zM347 521h654l-337 847z" />
    <glyph glyph-name="B" unicode="B" horiz-adv-x="1366" 
d="M176 1466h566q112 0 192.5 -21t132 -65.5t75.5 -113t24 -163.5q0 -54 -10.5 -102.5t-33 -89t-59 -72.5t-87.5 -53q138 -31 199.5 -120t61.5 -237q0 -111 -24.5 -192t-79 -133.5t-140.5 -78t-209 -25.5h-608v1466zM757 112q95 0 161.5 16.5t108 54t60 99t18.5 151.5
q0 74 -21 128.5t-70 90t-128.5 52.5t-197.5 17h-382v-609h451zM710 833q88 0 150 15.5t101.5 48t57.5 82.5t18 119q0 75 -18 124t-57 78.5t-101 41.5t-151 12h-404v-521h404z" />
    <glyph glyph-name="C" unicode="C" horiz-adv-x="1479" 
d="M131 739q0 385 161 568.5t482 183.5q104 0 186.5 -22.5t146 -60.5t109 -88.5t74.5 -107t42.5 -115.5t13.5 -114l-126 -16q-8 105 -46 183t-98 129.5t-138 77.5t-166 26q-117 0 -211.5 -36t-161 -113.5t-102.5 -198.5t-36 -290q0 -159 32.5 -282t97 -207t160 -127.5
t221.5 -43.5q78 0 147.5 20.5t129 52.5t108 70t83.5 74l77 -99q-38 -35 -94.5 -75.5t-127 -74.5t-153.5 -56.5t-174 -22.5q-179 0 -300.5 57t-196.5 158.5t-107.5 242t-32.5 307.5z" />
    <glyph glyph-name="D" unicode="D" horiz-adv-x="1479" 
d="M196 0v1466h451q187 0 320.5 -33t218.5 -114.5t124.5 -219t39.5 -345.5q0 -205 -31.5 -348.5t-111 -233.5t-215.5 -131t-345 -41h-451zM638 113q108 0 193 11.5t149.5 39t109.5 74.5t73.5 117.5t41.5 168t13 226.5q0 170 -27 285.5t-93 186t-178 101t-281 30.5h-313
v-1240h312z" />
    <glyph glyph-name="E" unicode="E" horiz-adv-x="1251" 
d="M187 0v1466h930v-113h-800v-556h710v-112h-710v-572h832v-112z" />
    <glyph glyph-name="F" unicode="F" 
d="M194 0v1466h847v-113h-717v-566h615v-112h-615v-675h-130z" />
    <glyph glyph-name="G" unicode="G" horiz-adv-x="1593" 
d="M820 1491q109 0 196.5 -22.5t155.5 -60.5t117.5 -86.5t81 -100t46.5 -103t15 -93.5l-126 -19q-8 64 -45.5 131t-101 121.5t-150 89.5t-191.5 35q-129 0 -231 -35t-172.5 -111.5t-108 -198t-37.5 -295.5q0 -183 40 -309t115.5 -204t183 -112.5t242.5 -34.5
q80 0 152.5 11.5t134 29.5t110.5 41t81 47v371h-444v112h574v-531q-74 -54 -167 -95q-40 -18 -88 -35t-103 -30.5t-117 -21.5t-130 -8q-168 0 -300.5 43t-224.5 135.5t-140.5 236.5t-48.5 345q0 175 39 315t121.5 238t211.5 151t309 53z" />
    <glyph glyph-name="H" unicode="H" horiz-adv-x="1479" 
d="M188 0v1466h130v-617h841v617h130v-1466h-130v737h-841v-737h-130z" />
    <glyph glyph-name="I" unicode="I" horiz-adv-x="569" 
d="M218 0v1466h131v-1466h-131z" />
    <glyph glyph-name="J" unicode="J" horiz-adv-x="1024" 
d="M208 339q0 -63 21.5 -111t55.5 -80.5t76.5 -49t84.5 -16.5q63 0 111.5 16.5t81.5 54t50 98t17 148.5v1067h130v-1019q0 -142 -26 -233.5t-75.5 -145t-122.5 -74t-166 -20.5q-86 0 -151.5 30.5t-110.5 80t-68 112t-23 125.5z" />
    <glyph glyph-name="K" unicode="K" horiz-adv-x="1366" 
d="M179 0v1466h130v-821l831 821h177l-624 -603l652 -863h-174l-564 780l-298 -270v-510h-130z" />
    <glyph glyph-name="L" unicode="L" 
d="M183 1466h130v-1354h738v-112h-868v1466z" />
    <glyph glyph-name="M" unicode="M" horiz-adv-x="1706" 
d="M182 1466h203l471 -1020l484 1020h183v-1466h-128v1330l-499 -1059h-88l-498 1065v-1336h-128v1466z" />
    <glyph glyph-name="N" unicode="N" horiz-adv-x="1479" 
d="M181 1466h120l870 -1250v1250h125v-1466h-120l-870 1240v-1240h-125v1466z" />
    <glyph glyph-name="O" unicode="O" horiz-adv-x="1593" 
d="M129 720q0 380 169.5 576t508.5 196q153 0 275.5 -45.5t209 -138.5t133 -235t46.5 -335q0 -169 -36.5 -309t-117 -241t-209.5 -157t-315 -56q-158 0 -281 46t-208.5 139t-130 232.5t-44.5 327.5zM259 711q0 -158 37 -276t106.5 -196.5t168.5 -117.5t222 -39
q280 0 414 166t134 488q0 156 -34 276.5t-101.5 203t-167 125.5t-230.5 43q-281 0 -415 -166t-134 -507z" />
    <glyph glyph-name="P" unicode="P" horiz-adv-x="1251" 
d="M184 1466h421q149 0 254.5 -27t172.5 -85t98 -149t31 -219q0 -103 -28 -188t-89 -146t-156.5 -94.5t-231.5 -33.5h-342v-524h-130v1466zM623 636q115 0 193 28t126 75t68.5 110t20.5 132q0 99 -23 167.5t-74.5 112t-133.5 63t-200 19.5h-286v-707h309z" />
    <glyph glyph-name="Q" unicode="Q" horiz-adv-x="1593" 
d="M129 720q0 380 169.5 576t508.5 196q153 0 275.5 -45.5t209 -138.5t133 -235t46.5 -335q0 -181 -39.5 -326t-130.5 -245l217 -172l-65 -87l-232 188q-77 -54 -185 -87.5t-243 -33.5q-158 0 -281 46t-208.5 139t-130 232.5t-44.5 327.5zM875 378l60 80l269 -214
q70 81 103.5 203t33.5 289q0 156 -34 276.5t-101.5 203t-167 125.5t-230.5 43q-281 0 -415 -166t-134 -507q0 -158 37 -276t106.5 -196.5t168.5 -117.5t222 -39q100 0 185 25t147 67z" />
    <glyph glyph-name="R" unicode="R" horiz-adv-x="1366" 
d="M194 1466h457q149 0 259 -20t183 -69t108.5 -133t35.5 -211q0 -190 -83 -296.5t-254 -141.5l450 -595h-161l-418 579q-17 -1 -34 -1.5t-35 -0.5h-378v-577h-130v1466zM669 689q115 0 197.5 17t136 57t79 104.5t25.5 160.5q0 99 -27.5 162t-84.5 99.5t-144 50.5t-205 14
h-322v-665h345z" />
    <glyph glyph-name="S" unicode="S" horiz-adv-x="1251" 
d="M177 251q43 -24 100.5 -51t125 -50.5t144 -39t158.5 -15.5q90 0 150.5 23t96.5 63.5t51 95.5t15 120q0 73 -22 123.5t-70 85t-125 57t-187 39.5q-142 22 -233 51t-143.5 74t-73 110.5t-20.5 158.5q0 81 26 151.5t79.5 122.5t135 82t193.5 30q84 0 159 -14.5t138.5 -36
t115.5 -45.5t91 -43l-49 -115q-50 25 -105 50.5t-112.5 45.5t-117 33t-117.5 13q-77 0 -133.5 -21t-94.5 -57t-56.5 -85t-18.5 -104q0 -42 5 -75t20 -60t43 -49t75 -40t115 -34t162 -31q133 -21 220.5 -53.5t139 -79.5t72 -111t20.5 -149q0 -107 -24 -188.5t-78 -137
t-141.5 -83.5t-214.5 -28q-85 0 -164 11.5t-150.5 31t-136 46t-119.5 55.5z" />
    <glyph glyph-name="T" unicode="T" 
d="M504 0v1352h-446v112h1024v-112h-452v-1352h-126z" />
    <glyph glyph-name="U" unicode="U" horiz-adv-x="1479" 
d="M181 1466h130v-838q0 -147 21 -250.5t69.5 -169t127.5 -96t195 -30.5q130 0 215.5 30.5t135 96.5t69.5 170t20 251v836h130v-861q0 -165 -30 -284t-97.5 -196.5t-176.5 -114t-267 -36.5q-149 0 -252 36t-167.5 112.5t-93.5 195.5t-29 285v863z" />
    <glyph glyph-name="V" unicode="V" horiz-adv-x="1251" 
d="M16 1466h136l466 -1339l484 1339h131l-543 -1466h-142z" />
    <glyph glyph-name="W" unicode="W" horiz-adv-x="1821" 
d="M29 1466h131l324 -1266l355 1266h150l344 -1260l339 1260h120l-405 -1466h-107l-372 1311l-361 -1311h-127z" />
    <glyph glyph-name="X" unicode="X" horiz-adv-x="1251" 
d="M236 1466l404 -596l422 596h140l-494 -699l533 -767h-159l-457 657l-460 -657h-153l550 759l-472 707h146z" />
    <glyph glyph-name="Y" unicode="Y" horiz-adv-x="1251" 
d="M550 621l-533 845h149l461 -729l459 729h142l-548 -845v-621h-130v621z" />
    <glyph glyph-name="Z" unicode="Z" horiz-adv-x="1251" 
d="M60 0v125l933 1228l-839 1v112h990v-112l-943 -1242h967v-112h-1108z" />
    <glyph glyph-name="bracketleft" unicode="[" horiz-adv-x="682" 
d="M161 -407v1873h462v-93h-347v-1686h347v-94h-462z" />
    <glyph glyph-name="backslash" unicode="\" horiz-adv-x="569" 
d="M465 -21l-467 1507h100l468 -1507h-101z" />
    <glyph glyph-name="bracketright" unicode="]" horiz-adv-x="682" 
d="M61 -407v94h347v1685h-347v94h462v-1873h-462z" />
    <glyph glyph-name="asciicircum" unicode="^" horiz-adv-x="1352" 
d="M403 691l-107 46l328 755h102l335 -755l-104 -46l-283 688z" />
    <glyph glyph-name="underscore" unicode="_" horiz-adv-x="1024" 
d="M-1 -389v92h1024v-92h-1024z" />
    <glyph glyph-name="grave" unicode="`" horiz-adv-x="682" 
d="M369 1193l-220 273h161l119 -234z" />
    <glyph glyph-name="a" unicode="a" 
d="M496 -23q-197 0 -293.5 77.5t-96.5 247.5q0 81 32 140t89 97.5t135.5 57t171.5 18.5q53 0 103 -6t92.5 -13.5t75 -15t51.5 -11.5v83q0 91 -17.5 154.5t-54.5 102.5t-93 56.5t-132 17.5q-45 0 -91.5 -7t-94 -19t-95 -26.5t-93.5 -29.5l-30 109q49 13 100.5 26.5t105 24.5
t108 18t108.5 7q93 0 159.5 -20.5t111.5 -56.5t71.5 -85.5t40.5 -107.5t18 -123t4 -131v-314l30 -248h-106l-50 158v4l-193 -162q-19 -5 -37 -9.5t-38 -7.5t-42.5 -4.5t-49.5 -1.5zM234 302q0 -65 19 -108t55 -69t88 -37t118 -11q39 0 88 19.5t96.5 47t89.5 57t68 48.5v231
q-78 18 -157.5 23.5t-158.5 5.5q-158 0 -232 -48t-74 -159z" />
    <glyph glyph-name="b" unicode="b" horiz-adv-x="1251" 
d="M165 1467h124v-569l215 156q19 6 46 12t54.5 10.5t52 7.5t38.5 3q249 -5 356 -143t107 -423q-15 -547 -490 -547q-79 0 -151.5 24.5t-127.5 67.5t-88 101q-14 25 -22 50l-43 -216h-71v1466zM289 486q0 -104 32 -180.5t85 -126.5t123 -74.5t145 -24.5q87 0 153 30
t110.5 87t66.5 139t22 186q2 261 -88.5 358t-248.5 99q-24 0 -52 -2.5t-62 -12.5t-74.5 -28t-87.5 -47l-124 -77v-326z" />
    <glyph glyph-name="c" unicode="c" 
d="M866 729q0 50 -17.5 96t-53.5 81t-91.5 56t-130.5 21q-93 0 -158.5 -34.5t-107 -95t-60.5 -143t-19 -178.5q0 -123 25.5 -208t72.5 -138t114 -77t150 -24q52 0 98.5 10t87 27t76.5 39t67 45l63 -95q-37 -28 -77.5 -52t-87.5 -42t-103 -28.5t-124 -10.5q-240 0 -365 135
t-125 419q0 147 34 251t96.5 170t150 96.5t194.5 30.5q196 0 301.5 -88.5t117.5 -244.5z" />
    <glyph glyph-name="d" unicode="d" horiz-adv-x="1251" 
d="M602 -23q-61 0 -122 11t-117 36t-105 66t-85 101.5t-56.5 142t-20.5 187.5q0 146 34.5 253.5t99.5 178t158.5 105t211.5 34.5q54 0 108.5 -9.5t102.5 -25t87.5 -35.5t65.5 -42v486h126v-1466h-102l-23 144l-201 -144q-19 -5 -36.5 -9.5t-36 -7.5t-40.5 -4.5t-49 -1.5z
M224 523q0 -124 35 -209.5t90.5 -138t125.5 -75.5t140 -23q40 0 90 16.5t99 40.5t91.5 50.5t68.5 46.5v649q-23 20 -59.5 39t-79.5 34t-87.5 24t-81.5 9q-100 0 -180 -19t-136 -70.5t-86 -141.5t-30 -232z" />
    <glyph glyph-name="e" unicode="e" 
d="M102 529q0 147 33.5 252.5t96.5 174t152.5 100.5t200.5 32q119 0 205.5 -35.5t142 -104t82 -169.5t26.5 -231v-81h-813q10 -194 104.5 -290t284.5 -96q87 0 178 24t171 69l37 -102q-30 -17 -72 -34.5t-91.5 -31.5t-105 -23t-113.5 -9q-126 0 -222.5 32t-162.5 99.5
t-100 172.5t-34 251zM906 563q0 95 -16.5 172.5t-54.5 132t-99 84t-151 29.5q-88 0 -153.5 -33.5t-110 -90.5t-68 -133t-26.5 -161h679z" />
    <glyph glyph-name="f" unicode="f" horiz-adv-x="569" 
d="M33 972v90h168v138q0 85 19 140.5t52 88.5t77 46t94 13q38 0 68 -5.5t52 -11.5q26 -7 46 -16l-20 -101q-20 8 -40 15q-18 6 -39.5 11t-44.5 5q-40 0 -66.5 -7t-42.5 -27t-23 -55.5t-7 -93.5v-140h215v-90h-215v-972h-125v972h-168z" />
    <glyph glyph-name="g" unicode="g" horiz-adv-x="1251" 
d="M224 538q0 -142 30 -232t86 -141.5t136 -70.5t180 -19q37 0 81.5 9t87.5 24t79.5 34t59.5 39v649q-17 13 -42 29.5t-55 33.5t-63 33.5t-66.5 29t-65 20.5t-57.5 8q-70 0 -140 -23t-125.5 -75.5t-90.5 -138t-35 -209.5zM1090 95q0 -67 -9 -131.5t-31 -123t-57.5 -108
t-88 -86t-124.5 -57t-165 -20.5q-51 0 -111.5 3t-122.5 12t-123.5 25.5t-113.5 43.5l42 104q49 -24 103.5 -40t109 -25.5t105.5 -13.5t93 -4q76 0 143 17.5t117 56.5t78.5 102t28.5 155v76q-26 -22 -65.5 -42t-87.5 -35.5t-102.5 -25t-108.5 -9.5q-118 0 -211.5 34.5
t-158.5 105t-99.5 178t-34.5 253.5q0 106 20.5 187.5t56.5 142t85 101.5t105 66t117 36t122 11q27 0 49 -1.5t40.5 -4.5t36 -7.5t36.5 -9.5l201 -144l23 144h102v-966z" />
    <glyph glyph-name="h" unicode="h" 
d="M164 0v1465h126v-568l213 167q37 10 74.5 16.5t92.5 6.5q91 0 152 -24.5t97.5 -70.5t52 -110.5t15.5 -145.5v-736h-126v746q0 57 -10.5 102t-35.5 75.5t-66 47t-102 16.5q-41 0 -92.5 -20.5t-102 -48.5t-94.5 -58t-68 -49v-811h-126z" />
    <glyph glyph-name="i" unicode="i" horiz-adv-x="455" 
d="M164 0v1062h124v-1062h-124zM135 1371q0 49 20.5 69.5t68.5 20.5t69 -20.5t21 -69.5q0 -48 -21 -68.5t-69 -20.5t-68.5 20.5t-20.5 68.5z" />
    <glyph glyph-name="j" unicode="j" horiz-adv-x="455" 
d="M135 1371q0 49 20.5 69.5t68.5 20.5t69 -20.5t21 -69.5q0 -48 -21 -68.5t-69 -20.5t-68.5 20.5t-20.5 68.5zM289 -106q0 -85 -19 -144.5t-52 -96.5t-77 -53.5t-93 -16.5q-29 0 -51 1t-37 3q-18 2 -31 5l20 104q10 -2 21 -4q19 -3 56 -3q28 0 53.5 10t44.5 33.5t30 62.5
t11 97v1169h124v-1167z" />
    <glyph glyph-name="k" unicode="k" horiz-adv-x="1024" 
d="M164 0v1465h126v-907l509 504h160l-412 -397l458 -665h-158l-379 588l-178 -152v-436h-126z" />
    <glyph glyph-name="l" unicode="l" horiz-adv-x="455" 
d="M166 0v1465h120v-1465h-120z" />
    <glyph glyph-name="m" unicode="m" horiz-adv-x="1706" 
d="M164 0v1061h126v-164l143 167q37 10 74.5 16.5t92.5 6.5q68 0 119 -14t87 -40t59.5 -64t35.5 -86l158 181q37 10 74.5 16.5t92.5 6.5q91 0 152 -24.5t97.5 -70.5t52 -110.5t15.5 -145.5v-736h-126v746q0 57 -10.5 102t-35.5 75.5t-66 47t-102 16.5q-40 0 -81 -20t-79 -48
t-71.5 -58t-58.5 -50q2 -18 3 -36.5t1 -38.5v-736h-126v746q0 57 -10.5 102t-35.5 75.5t-66 47t-102 16.5q-41 0 -81.5 -20.5t-78 -48.5t-70.5 -58t-57 -49v-811h-126z" />
    <glyph glyph-name="n" unicode="n" 
d="M164 0v1061h126v-164l213 167q37 10 74.5 16.5t92.5 6.5q91 0 152 -24.5t97.5 -70.5t52 -110.5t15.5 -145.5v-736h-126v746q0 57 -10.5 102t-35.5 75.5t-66 47t-102 16.5q-41 0 -92.5 -20.5t-102 -48.5t-94.5 -58t-68 -49v-811h-126z" />
    <glyph glyph-name="o" unicode="o" 
d="M568 988q-173 0 -258.5 -115.5t-85.5 -341.5q0 -223 86 -341.5t258 -118.5t258.5 118.5t86.5 341.5q0 226 -86 341.5t-259 115.5zM568 -26q-233 0 -352.5 137.5t-119.5 419.5q0 280 119.5 417t352.5 137q232 0 352.5 -137t120.5 -417q0 -282 -120.5 -419.5t-352.5 -137.5
z" />
    <glyph glyph-name="p" unicode="p" horiz-adv-x="1251" 
d="M651 1084q61 0 122 -11t117 -36t105 -66t85 -101.5t56.5 -142t20.5 -187.5q0 -146 -34.5 -253.5t-99.5 -178t-158.5 -105t-211.5 -34.5q-54 0 -108.5 9.5t-102.5 25t-88 35.5t-65 42v-486h-126v1466h102l23 -144l201 144q19 5 36.5 9.5t36 7.5t40.5 4.5t49 1.5zM1029 538
q0 124 -35 209.5t-90.5 138t-125.5 75.5t-140 23q-27 0 -58 -8t-64.5 -20.5t-66.5 -29t-63 -33.5t-55 -33.5t-42 -29.5v-649q22 -20 59 -39t80 -34t87 -24t82 -9q100 0 180 19t136 70.5t86 141.5t30 232z" />
    <glyph glyph-name="q" unicode="q" horiz-adv-x="1251" 
d="M1090 -405h-124v569l-215 -156q-19 -6 -46 -12t-54.5 -10.5t-52 -7.5t-38.5 -3q-249 5 -356 148t-107 438q15 527 490 527q79 0 151.5 -24.5t127.5 -67.5t88 -102q13 -24 21 -50l44 217h71v-1466zM966 576q0 104 -32 180.5t-85 126.5t-123 74.5t-145 24.5
q-176 0 -264.5 -106.5t-87.5 -315.5q-2 -271 88.5 -373t248.5 -104q24 0 52 2.5t62 12.5t74.5 28t87.5 47l124 77v326z" />
    <glyph glyph-name="r" unicode="r" horiz-adv-x="682" 
d="M163 0v1062h96l28 -146l195 138q38 11 81.5 14.5t98.5 3.5l-16 -124q-58 8 -112 -2.5t-101 -29.5t-84 -42.5t-60 -42.5v-831h-126z" />
    <glyph glyph-name="s" unicode="s" horiz-adv-x="1024" 
d="M532 81q73 0 122.5 13t79.5 37.5t42.5 60.5t12.5 82q0 47 -11.5 81t-44.5 58.5t-91.5 42.5t-152.5 33q-101 16 -171.5 41.5t-115 63t-65 88.5t-20.5 119q0 64 22.5 116.5t67.5 90t113.5 58t160.5 20.5q52 0 105.5 -7t104.5 -20.5t97.5 -32t85.5 -42.5l-44 -94
q-40 15 -81 31.5t-84 30t-88.5 22t-94.5 8.5q-126 0 -185 -48t-59 -131q0 -36 15 -67.5t50.5 -57.5t94.5 -46.5t147 -36.5q93 -17 163 -42t116.5 -61.5t70.5 -86t25 -115.5q1 -75 -20.5 -133.5t-68.5 -98.5t-120.5 -61t-175.5 -21q-53 0 -110.5 7t-114.5 20t-111 31t-99 41
l50 109q45 -21 92 -40t95.5 -33.5t97.5 -22.5t97 -7z" />
    <glyph glyph-name="t" unicode="t" horiz-adv-x="569" 
d="M140 1322l124 41v-301h249v-105h-249v-657q0 -55 7.5 -94t24.5 -64t44.5 -36.5t68.5 -11.5q23 0 41.5 1.5t32.5 3.5q16 3 29 6l21 -102q-12 -5 -31 -9q-17 -3 -43.5 -5.5t-67.5 -2.5q-72 0 -120.5 25.5t-77.5 70t-41 104.5t-12 129v1007z" />
    <glyph glyph-name="u" unicode="u" 
d="M155 1062h126v-562q0 -126 16 -208t50 -130.5t86.5 -67.5t126.5 -19q80 0 135 19.5t89.5 68t49.5 131.5t15 209v559h126v-584q0 -143 -27.5 -239.5t-80 -155t-129.5 -84t-178 -25.5q-113 0 -190.5 25.5t-125 84t-68.5 155t-21 239.5v584z" />
    <glyph glyph-name="v" unicode="v" horiz-adv-x="1024" 
d="M33 1062h136l344 -933l352 933h128l-419 -1062h-121z" />
    <glyph glyph-name="w" unicode="w" horiz-adv-x="1479" 
d="M671 1062h140l244 -937l279 937h122l-342 -1062h-140l-239 918l-236 -918h-144l-340 1062h125l285 -933z" />
    <glyph glyph-name="x" unicode="x" horiz-adv-x="1024" 
d="M212 1062l300 -417l310 417h149l-397 -503l423 -559h-152l-337 466l-335 -466h-150l420 553l-386 509h155z" />
    <glyph glyph-name="y" unicode="y" horiz-adv-x="1024" 
d="M124 -302q11 -2 24.5 -3t27.5 -1q53 0 91.5 6.5t68 27.5t53 60t47.5 104l31 88l-425 1082h133l349 -937l352 937h121l-477 -1243q-30 -82 -68 -129.5t-82 -72t-94.5 -31.5t-104.5 -7q-19 0 -34 2.5t-32 5.5z" />
    <glyph glyph-name="z" unicode="z" horiz-adv-x="1024" 
d="M63 0v142l732 810h-666v110h794v-120l-743 -832h764v-110h-881z" />
    <glyph glyph-name="braceleft" unicode="{" horiz-adv-x="682" 
d="M604 -429h-60q-75 0 -125 17.5t-81 54.5t-44 94t-13 137v401l-212 193v124l212 181v465q0 69 13 117t44 77.5t81 43t125 13.5h60v-95h-34q-51 0 -85.5 -7.5t-55 -27t-29 -54.5t-8.5 -90v-487l-256 -197l255 -216v-440q0 -65 6.5 -105.5t27 -63.5t57 -31.5t96.5 -8.5h26
v-95z" />
    <glyph glyph-name="bar" unicode="|" horiz-adv-x="455" 
d="M173 1466h108v-1871h-108v1871z" />
    <glyph glyph-name="braceright" unicode="}" horiz-adv-x="682" 
d="M79 -334h26q60 0 96.5 8.5t57 31.5t27 63.5t6.5 105.5v440l255 216l-256 197v487q0 55 -8.5 90t-29 54.5t-55 27t-85.5 7.5h-34v95h60q75 0 125 -13.5t81 -43t44 -77.5t13 -117v-465l212 -181v-124l-212 -193v-401q0 -80 -13 -137t-44 -94t-81 -54.5t-125 -17.5h-60v95z
" />
    <glyph glyph-name="asciitilde" unicode="~" horiz-adv-x="1352" 
d="M191 705q18 15 46.5 33t65.5 34.5t81 27.5t93 11q65 0 115.5 -15t98.5 -32h-1q44 -16 87.5 -28.5t96.5 -12.5q65 0 115 18.5t95 50.5l54 -79q-51 -46 -119.5 -75t-148.5 -29q-63 0 -109.5 14.5t-88.5 31.5q-46 18 -93 32.5t-108 14.5q-36 0 -68.5 -7.5t-60 -19t-51 -25.5
t-42.5 -27z" />
    <glyph glyph-name="uni00A0" unicode="&#xa0;" horiz-adv-x="569" 
 />
    <glyph glyph-name="exclamdown" unicode="&#xa1;" horiz-adv-x="682" 
d="M386 717l29 -1122h-152l27 1122h96zM431 982q0 -49 -20.5 -69.5t-68.5 -20.5t-69 20.5t-21 69.5q0 48 21 68.5t69 20.5t68.5 -20.5t20.5 -68.5z" />
    <glyph glyph-name="cent" unicode="&#xa2;" 
d="M258 -384l119 396q-137 50 -207 179t-70 341q0 147 34 251t96.5 170t150 96.5t194.5 30.5q63 0 121 -11l110 366h100l-118 -392q95 -38 146.5 -113.5t59.5 -182.5l-128 -18q0 63 -27 117.5t-83 89.5l-254 -844q20 -4 42.5 -5.5t45.5 -1.5q52 0 98.5 10t87 27t76.5 39
t67 45l63 -95q-37 -28 -77.5 -52t-87.5 -42t-103 -28.5t-124 -10.5q-67 0 -120 10l-111 -372h-101zM228 532q0 -85 12.5 -152t35.5 -117.5t57 -85.5t77 -56l257 852q-21 5 -44.5 7.5t-49.5 2.5q-93 0 -158.5 -34.5t-107 -95t-60.5 -143t-19 -178.5z" />
    <glyph glyph-name="sterling" unicode="&#xa3;" 
d="M42 122q40 32 77 70.5t65.5 88t46 111t17.5 139.5q0 42 -3 80.5t-10 74.5q0 2 -2.5 10t-4.5 16h-169v97h152q-4 17 -8.5 38.5t-9 44t-8.5 44t-7 38.5q-6 35 -9 72.5t-3 75.5q0 80 27.5 148t83 117.5t139 77t195.5 27.5t188 -29t124.5 -76.5t73.5 -108.5t35 -125
q-40 -7 -71.5 -11t-68.5 -9q-5 44 -21.5 90.5t-49.5 84.5t-85 62.5t-129 24.5q-141 0 -215 -69.5t-74 -196.5q0 -26 3 -57t7.5 -64t10 -67t10.5 -66l6 -35l2 -31h376v-97h-356q8 -54 12.5 -95t4.5 -71q0 -65 -18.5 -124.5t-48.5 -111.5t-66.5 -95.5t-72.5 -75.5
q46 12 76.5 19.5t54 11t44 4.5t46.5 1q28 0 59 -3.5t62 -9t60.5 -12t53.5 -12.5q51 -12 102 -22t108 -10q59 0 103 10t80 21l39 -124q-35 -14 -92.5 -26.5t-124.5 -12.5q-52 0 -106.5 12.5t-110.5 27.5q-60 16 -121.5 29.5t-118.5 13.5q-90 0 -160 -22.5t-119 -48.5z" />
    <glyph glyph-name="currency" unicode="&#xa4;" 
d="M166 725q0 71 17 130.5t49 117.5l-124 124l82 86l130 -124q58 34 119 51.5t127 17.5q23 0 51 -1.5t60 -8.5t66.5 -21.5t71.5 -39.5l125 124l83 -83l-125 -125q20 -34 33 -62.5t21 -57t11.5 -59.5t3.5 -69q0 -72 -18 -132.5t-53 -118.5l128 -121l-84 -84l-125 124
q-60 -35 -120.5 -51t-128.5 -16q-139 0 -252 67l-124 -124l-82 85l124 123q-37 60 -51.5 121.5t-14.5 126.5zM281 727q0 -149 74.5 -228.5t212.5 -79.5t208.5 79.5t70.5 228.5q0 150 -70.5 230t-208.5 80t-212.5 -80t-74.5 -230z" />
    <glyph glyph-name="yen" unicode="&#xa5;" 
d="M632 343v-343h-127v343h-413v92h413v192h-413v92h365l-452 747h140l424 -739l423 739h146l-457 -747h357v-92h-406v-192h406v-92h-406z" />
    <glyph glyph-name="brokenbar" unicode="&#xa6;" horiz-adv-x="455" 
d="M278 1492v-789h-103v789h103zM278 358v-790h-103v790h103z" />
    <glyph glyph-name="section" unicode="&#xa7;" 
d="M297 -82q9 -54 27.5 -98t50.5 -75t80.5 -47.5t118.5 -16.5q65 0 111 11.5t75 35t42.5 59.5t13.5 86q0 44 -17.5 82t-64.5 81.5t-128.5 99.5t-208.5 136q-72 46 -127.5 85t-93 80t-56.5 90t-19 117q0 101 54.5 167t170.5 112l-53 64q-37 45 -56.5 103t-19.5 116
q0 65 24 117.5t70 90t112 57.5t150 20q87 0 153.5 -21t114 -61t76 -96.5t39.5 -127.5l-135 -23q-5 53 -20.5 94.5t-45 69.5t-74.5 42.5t-109 14.5q-102 0 -160.5 -42.5t-58.5 -136.5q0 -45 15.5 -81.5t58.5 -77.5t119.5 -93t199.5 -127q76 -47 132.5 -84t93.5 -75.5t55 -84
t18 -109.5q0 -105 -56 -174t-177 -119q44 -35 75.5 -64.5t51.5 -63t29 -75t9 -99.5q0 -72 -22.5 -129.5t-69 -97t-118 -60.5t-170.5 -21q-192 0 -291 82t-121 242zM397 877q-41 -22 -73 -42t-54.5 -43t-34.5 -51.5t-12 -67.5q0 -53 13 -90t41.5 -68.5t73 -62t108.5 -68.5
l265 -162q40 27 72 50t54 47t33.5 51t11.5 61q0 31 -7 57t-26 52t-53.5 56t-90 69.5t-134.5 90.5t-187 121z" />
    <glyph glyph-name="dieresis" unicode="&#xa8;" horiz-adv-x="682" 
d="M86 1391q0 49 20.5 69.5t68.5 20.5t69 -20.5t21 -69.5q0 -48 -21 -68.5t-69 -20.5t-68.5 20.5t-20.5 68.5zM416 1391q0 49 20.5 69.5t68.5 20.5t69 -20.5t21 -69.5q0 -48 -21 -68.5t-69 -20.5t-68.5 20.5t-20.5 68.5z" />
    <glyph glyph-name="copyright" unicode="&#xa9;" horiz-adv-x="1638" 
d="M1020 898q-6 40 -21 72.5t-40 55.5t-61 35.5t-84 12.5q-72 0 -122.5 -22t-82 -65t-46 -106.5t-14.5 -147.5q0 -94 17.5 -158.5t51.5 -104.5t83.5 -57.5t114.5 -17.5q78 0 137.5 26.5t95.5 63.5l44 -68q-22 -24 -55 -42t-70.5 -30t-77 -18t-74.5 -5q-89 3 -156.5 27.5
t-113 74.5t-68.5 127t-23 184q0 111 26 188.5t73.5 126t113 70.5t145.5 22q67 0 117.5 -17t86.5 -47.5t58 -73t32 -93.5zM62 736q0 171 53 310.5t151 238.5t237 153t310 54t311 -54t239.5 -153t154 -238.5t54.5 -310.5t-54.5 -312t-154 -241.5t-239.5 -156t-311 -55.5
t-310 55.5t-237 156t-151 241.5t-53 312zM146 736q0 -155 46.5 -282.5t133 -218t210.5 -140.5t280 -50q155 0 279.5 50t212 140.5t134.5 218t47 282.5t-47 281t-134.5 215.5t-212 138t-279.5 48.5q-156 0 -280 -48.5t-210.5 -138t-133 -215.5t-46.5 -281z" />
    <glyph glyph-name="ordfeminine" unicode="&#xaa;" horiz-adv-x="684" 
d="M291 739q-140 0 -207.5 54t-67.5 174q0 57 22.5 98t62.5 67t95.5 38.5t120.5 12.5q63 0 119 -10.5t99 -20.5v53q0 62 -12 102.5t-36.5 64.5t-62.5 33.5t-90 9.5q-62 0 -129.5 -18.5t-132.5 -38.5l-23 83q78 21 152 37.5t146 16.5q99 0 155.5 -29.5t85.5 -79t36.5 -114.5
t7.5 -135v-207l20 -177h-80l-35 110l-129 -110q-26 -8 -51.5 -11t-65.5 -3zM112 967q0 -44 13 -73t38 -46.5t60 -25t80 -7.5q27 0 60 13t65 31.5t60.5 38.5t46.5 34v151q-52 13 -106 16t-108 3q-107 0 -158 -30t-51 -105z" />
    <glyph glyph-name="guillemotleft" unicode="&#xab;" 
d="M960 120l-61 -43l-309 448l312 462l68 -43l-251 -419zM536 120l-61 -43l-309 448l312 462l68 -43l-251 -419z" />
    <glyph glyph-name="logicalnot" unicode="&#xac;" horiz-adv-x="1352" 
d="M1212 449h-120v456h-952v124h1072v-580z" />
    <glyph glyph-name="registered" unicode="&#xae;" horiz-adv-x="1638" 
d="M63 736q0 171 53 310.5t151 238.5t237 153t310 54t311 -54t239.5 -153t154 -238.5t54.5 -310.5t-54.5 -312t-154 -241.5t-239.5 -156t-311 -55.5t-310 55.5t-237 156t-151 241.5t-53 312zM147 736q0 -155 46.5 -282.5t133 -218t210.5 -140.5t280 -50q155 0 279.5 50
t212 140.5t134.5 218t47 282.5t-47 281t-134.5 215.5t-212 138t-279.5 48.5q-156 0 -280 -48.5t-210.5 -138t-133 -215.5t-46.5 -281zM500 1122h323q80 0 137 -12t93 -40t53 -74.5t17 -115.5q0 -60 -22 -105.5t-61 -74.5q-15 -11 -44.5 -22.5t-72.5 -22.5l237 -326h-106
l-200 314h-271v-314h-83v793zM787 713q72 0 120 7t77.5 26t42 51t12.5 83t-11.5 85.5t-39.5 55.5t-74.5 30t-116.5 9h-214v-347h204z" />
    <glyph glyph-name="macron" unicode="&#xaf;" horiz-adv-x="682" 
d="M1 1586v93h681v-93h-681z" />
    <glyph glyph-name="degree" unicode="&#xb0;" horiz-adv-x="819" 
d="M151 1215q0 60 18.5 109t52.5 84t81 54t103 19t103 -19t81 -54t53 -84t19 -109t-19 -108.5t-53 -83.5t-81 -54t-103 -19t-103 19t-81 54t-52.5 83.5t-18.5 108.5zM219 1216q0 -96 49.5 -148t138.5 -52t138.5 52t49.5 148t-49.5 148t-138.5 52t-138.5 -52t-49.5 -148z" />
    <glyph glyph-name="plusminus" unicode="&#xb1;" horiz-adv-x="1352" 
d="M726 774h483v-102h-483v-483h-102v483h-474v102h474v476h102v-476zM150 0v102h1059v-102h-1059z" />
    <glyph glyph-name="twosuperior" unicode="&#xb2;" horiz-adv-x="682" 
d="M60 664v103q104 91 178.5 156t125.5 111.5t81 78t46.5 55.5t21.5 44t5 43q0 77 -40 109.5t-112 32.5q-64 0 -129 -22t-128 -51l-39 87q66 32 143.5 53t160.5 21q64 0 110.5 -17.5t76.5 -48t44.5 -71.5t16.5 -88q1 -29 -4 -53t-21.5 -51t-47 -60.5t-81 -80t-124 -110.5
t-174.5 -152h459v-89h-569z" />
    <glyph glyph-name="threesuperior" unicode="&#xb3;" horiz-adv-x="682" 
d="M109 818q50 -31 102.5 -51t122.5 -20q94 0 142.5 38t48.5 124q0 37 -14 67.5t-39 52t-59.5 33t-74.5 11.5t-73.5 -7.5t-57.5 -16.5l-47 82l332 248h-390v87h469v-105l-293 -220q72 9 125 6t79 -10q34 -8 61 -29t46 -51.5t29 -68.5t10 -80q0 -51 -17.5 -96t-53.5 -78
t-90.5 -52.5t-127.5 -19.5q-79 0 -152 20.5t-124 49.5z" />
    <glyph glyph-name="acute" unicode="&#xb4;" horiz-adv-x="682" 
d="M256 1232l119 234h161l-220 -273z" />
    <glyph glyph-name="mu" unicode="&#xb5;" 
d="M164 1062h133v-558q0 -95 17 -170t53 -127.5t91 -80.5t132 -28q57 0 99 16t72 44t49 67t30 85.5t15 98t4 105.5v548h124v-1062h-118v171q-32 -42 -61.5 -78.5t-61 -62.5t-66 -41t-75.5 -15q-57 0 -99.5 14t-78 39.5t-65.5 62t-61 82.5v-579h-133v1469z" />
    <glyph glyph-name="paragraph" unicode="&#xb6;" horiz-adv-x="1331" 
d="M562 -409v1072q-29 0 -59.5 2t-59 5t-53 6.5t-42.5 8.5h2q-57 16 -102.5 46t-77.5 76t-49 108.5t-17 142.5q0 108 35 185t98 126.5t150.5 73t192.5 23.5h675v-111h-184v-1764h-118v1764h-278v-1764h-113z" />
    <glyph glyph-name="periodcentered" unicode="&#xb7;" horiz-adv-x="569" 
d="M194 721q0 51 20.5 72t71.5 21t72.5 -21t21.5 -72t-21.5 -72t-72.5 -21t-71.5 21t-20.5 72z" />
    <glyph glyph-name="cedilla" unicode="&#xb8;" horiz-adv-x="682" 
d="M149 -310q26 -3 46 -4t43 -1q85 0 120 19.5t35 66.5q0 48 -43 65.5t-127 19.5l57 167h83l-41 -131q39 -1 74.5 -9t62.5 -25.5t43.5 -46.5t16.5 -72q0 -77 -62.5 -108.5t-191.5 -31.5q-35 0 -65 1.5t-65 5.5z" />
    <glyph glyph-name="onesuperior" unicode="&#xb9;" horiz-adv-x="682" 
d="M99 746h203v649l-208 -158l-52 80l246 168h123v-739h194v-82h-506v82z" />
    <glyph glyph-name="ordmasculine" unicode="&#xba;" horiz-adv-x="684" 
d="M343 1413q-230 0 -230 -298q0 -149 57.5 -225t172.5 -76q113 0 170 76t57 225q0 298 -227 298zM343 741q-160 0 -241.5 90.5t-81.5 283.5q0 190 81.5 281t241.5 91q157 0 239 -91t82 -281q0 -193 -82 -283.5t-239 -90.5z" />
    <glyph glyph-name="guillemotright" unicode="&#xbb;" 
d="M425 525l-251 419l68 43l312 -462l-309 -448l-61 43zM849 525l-251 419l68 43l312 -462l-309 -448l-61 43z" />
    <glyph glyph-name="onequarter" unicode="&#xbc;" horiz-adv-x="1708" 
d="M125 746h203v649l-208 -158l-52 80l246 168h113v-739h194v-82h-496v82zM257 -57l1101 1548h116l-1101 -1548h-116zM1463 758l-407 -533h324v150l43 95h48v-245h129v-78h-129v-182h-91v182h-405v94l387 517h101z" />
    <glyph glyph-name="onehalf" unicode="&#xbd;" horiz-adv-x="1708" 
d="M1035 -33v103q104 91 178.5 156t125.5 111.5t81 78t46.5 55.5t21.5 44t5 43q0 77 -40 109.5t-112 32.5q-64 0 -129 -22t-128 -51l-39 87q66 32 143.5 53t160.5 21q64 0 110.5 -17.5t76.5 -48t44.5 -71.5t16.5 -88q1 -29 -4 -53t-21.5 -51t-47 -60.5t-81 -80t-124 -110.5
t-174.5 -152h459v-89h-569zM125 746h203v649l-208 -158l-52 80l246 168h113v-739h194v-82h-496v82zM245 -57l1101 1548h116l-1101 -1548h-116z" />
    <glyph glyph-name="threequarters" unicode="&#xbe;" horiz-adv-x="1708" 
d="M187 818q50 -31 102.5 -51t122.5 -20q94 0 142.5 38t48.5 124q0 37 -14 67.5t-39 52t-59.5 33t-74.5 11.5t-73.5 -7.5t-57.5 -16.5l-47 82l332 248h-390v87h469v-105l-293 -220q72 9 125 6t79 -10q34 -8 61 -29t46 -51.5t29 -68.5t10 -80q0 -51 -17.5 -96t-53.5 -78
t-90.5 -52.5t-127.5 -19.5q-79 0 -152 20.5t-124 49.5zM1463 758l-407 -533h324v150l43 95h48v-245h129v-78h-129v-182h-91v182h-405v94l387 517h101zM260 -57l1101 1548h116l-1101 -1548h-116z" />
    <glyph glyph-name="questiondown" unicode="&#xbf;" horiz-adv-x="1024" 
d="M610 978q0 -49 -20.5 -69.5t-68.5 -20.5t-69 20.5t-21 69.5q0 48 21 68.5t69 20.5t68.5 -20.5t20.5 -68.5zM469 -323q45 0 97.5 11.5t104.5 28.5t100.5 38t85.5 40l53 -106q-37 -26 -90.5 -48.5t-114.5 -39t-125.5 -26t-123.5 -9.5q-190 0 -296.5 89t-106.5 249
q-5 80 25 147t94 137.5t114 114.5q53 52 86 90.5t52 75t28 80t9 108.5v40h130v-36q0 -79 -11.5 -133t-41 -102.5t-76 -97t-105.5 -111.5q-53 -51 -83.5 -85t-51 -66.5t-30.5 -62.5t-14 -82q2 -67 21.5 -110.5t51.5 -71.5t86 -45t132 -17z" />
    <glyph glyph-name="Agrave" unicode="&#xc0;" horiz-adv-x="1366" 
d="M585 1466h161l606 -1466h-138l-171 409h-736l-160 -409h-138zM347 521h654l-337 847zM661 1562l-220 273h161l119 -234z" />
    <glyph glyph-name="Aacute" unicode="&#xc1;" horiz-adv-x="1366" 
d="M585 1466h161l606 -1466h-138l-171 409h-736l-160 -409h-138zM347 521h654l-337 847zM658 1601l119 234h161l-220 -273z" />
    <glyph glyph-name="Acircumflex" unicode="&#xc2;" horiz-adv-x="1366" 
d="M585 1466h161l606 -1466h-138l-171 409h-736l-160 -409h-138zM347 521h654l-337 847zM417 1598l201 242h86l207 -247l-89 -44l-157 211l-161 -209z" />
    <glyph glyph-name="Atilde" unicode="&#xc3;" horiz-adv-x="1366" 
d="M585 1466h161l606 -1466h-138l-171 409h-736l-160 -409h-138zM347 521h654l-337 847zM560 1677q-51 0 -83.5 -14.5t-58.5 -32.5l-59 88q26 20 70.5 39t106.5 19q42 0 76 -10t66 -21q29 -11 59 -21t65 -7q19 1 33.5 4t27 8t24.5 12t27 17l56 -83q-17 -14 -32 -25
t-31.5 -18.5t-35.5 -12t-43 -4.5q-39 0 -71.5 10t-61.5 21t-61.5 21t-73.5 10z" />
    <glyph glyph-name="Adieresis" unicode="&#xc4;" horiz-adv-x="1366" 
d="M585 1466h161l606 -1466h-138l-171 409h-736l-160 -409h-138zM347 521h654l-337 847zM408 1760q0 49 20.5 69.5t68.5 20.5t69 -20.5t21 -69.5q0 -48 -21 -68.5t-69 -20.5t-68.5 20.5t-20.5 68.5zM738 1760q0 49 20.5 69.5t68.5 20.5t69 -20.5t21 -69.5q0 -48 -21 -68.5
t-69 -20.5t-68.5 20.5t-20.5 68.5z" />
    <glyph glyph-name="Aring" unicode="&#xc5;" horiz-adv-x="1366" 
d="M585 1466h161l606 -1466h-138l-171 409h-736l-160 -409h-138zM347 521h654l-337 847zM490 1702q0 39 13 71.5t36 56t54.5 36t68.5 12.5t69 -12.5t54.5 -36t35.5 -56t13 -71.5t-13 -71.5t-35.5 -55t-54.5 -35t-69 -12.5t-68.5 12.5t-54.5 35t-36 55t-13 71.5zM547 1705
q0 -60 30 -89.5t85 -29.5q54 0 84 29.5t30 89.5t-30 89.5t-84 29.5q-55 0 -85 -29.5t-30 -89.5z" />
    <glyph glyph-name="AE" unicode="&#xc6;" horiz-adv-x="2048" 
d="M172 2h-145l703 1465h1157v-119h-736v-545h616v-118h-616v-564h734v-119h-876v404h-643zM1009 1338h-196l-397 -828h593v828z" />
    <glyph glyph-name="Ccedilla" unicode="&#xc7;" horiz-adv-x="1479" 
d="M563 -310q26 -3 46 -4t43 -1q85 0 120 19.5t35 66.5q0 48 -43 65.5t-127 19.5l41 122q-121 11 -211 53q-121 57 -196 158.5t-107.5 242t-32.5 307.5q0 385 161 568.5t482 183.5q104 0 186.5 -22.5t146 -60.5t109 -88.5t74.5 -107t42.5 -115.5t13.5 -114l-126 -16
q-8 105 -46 183t-98 129.5t-138 77.5t-166 26q-117 0 -211.5 -36t-161 -113.5t-102.5 -198.5t-36 -290q0 -159 32.5 -282t97 -207t160 -127.5t221.5 -43.5q78 0 147.5 20.5t129 52.5t108 70t83.5 74l77 -99q-38 -35 -94.5 -75.5t-127 -74.5t-153.5 -56.5t-174 -22.5h-7
l-25 -82q39 -1 74.5 -9t62.5 -25.5t43.5 -46.5t16.5 -72q0 -77 -62.5 -108.5t-191.5 -31.5q-35 0 -65 1.5t-65 5.5z" />
    <glyph glyph-name="Egrave" unicode="&#xc8;" horiz-adv-x="1251" 
d="M187 0v1466h930v-113h-800v-556h710v-112h-710v-572h832v-112zM654 1562l-220 273h161l119 -234z" />
    <glyph glyph-name="Eacute" unicode="&#xc9;" horiz-adv-x="1251" 
d="M187 0v1466h930v-113h-800v-556h710v-112h-710v-572h832v-112zM561 1601l119 234h161l-220 -273z" />
    <glyph glyph-name="Ecircumflex" unicode="&#xca;" horiz-adv-x="1251" 
d="M187 0v1466h930v-113h-800v-556h710v-112h-710v-572h832v-112zM400 1598l201 242h86l207 -247l-89 -44l-157 211l-161 -209z" />
    <glyph glyph-name="Edieresis" unicode="&#xcb;" horiz-adv-x="1251" 
d="M187 0v1466h930v-113h-800v-556h710v-112h-710v-572h832v-112zM391 1760q0 49 20.5 69.5t68.5 20.5t69 -20.5t21 -69.5q0 -48 -21 -68.5t-69 -20.5t-68.5 20.5t-20.5 68.5zM721 1760q0 49 20.5 69.5t68.5 20.5t69 -20.5t21 -69.5q0 -48 -21 -68.5t-69 -20.5t-68.5 20.5
t-20.5 68.5z" />
    <glyph glyph-name="Igrave" unicode="&#xcc;" horiz-adv-x="569" 
d="M218 0v1466h131v-1466h-131zM294 1562l-220 273h161l119 -234z" />
    <glyph glyph-name="Iacute" unicode="&#xcd;" horiz-adv-x="569" 
d="M218 0v1466h131v-1466h-131zM221 1601l119 234h161l-220 -273z" />
    <glyph glyph-name="Icircumflex" unicode="&#xce;" horiz-adv-x="569" 
d="M218 0v1466h131v-1466h-131zM38 1598l201 242h86l207 -247l-89 -44l-157 211l-161 -209z" />
    <glyph glyph-name="Idieresis" unicode="&#xcf;" horiz-adv-x="569" 
d="M218 0v1466h131v-1466h-131zM31 1760q0 49 20.5 69.5t68.5 20.5t69 -20.5t21 -69.5q0 -48 -21 -68.5t-69 -20.5t-68.5 20.5t-20.5 68.5zM361 1760q0 49 20.5 69.5t68.5 20.5t69 -20.5t21 -69.5q0 -48 -21 -68.5t-69 -20.5t-68.5 20.5t-20.5 68.5z" />
    <glyph glyph-name="Eth" unicode="&#xd0;" horiz-adv-x="1479" 
d="M184 0v695h-180v87h180v684h471q187 0 320.5 -33t218.5 -114.5t124.5 -219t39.5 -345.5q0 -205 -31.5 -348.5t-111 -233.5t-215.5 -131t-345 -41h-471zM646 113q108 0 193 11.5t149.5 39t109.5 74.5t73.5 117.5t41.5 168t13 226.5q0 170 -27 285.5t-93 186t-178 101
t-281 30.5h-333v-571h406v-87h-406v-582h332z" />
    <glyph glyph-name="Ntilde" unicode="&#xd1;" horiz-adv-x="1479" 
d="M181 1466h120l870 -1250v1250h125v-1466h-120l-870 1240v-1240h-125v1466zM637 1677q-51 0 -83.5 -14.5t-58.5 -32.5l-59 88q26 20 70.5 39t106.5 19q42 0 76 -10t66 -21q29 -11 59 -21t65 -7q19 1 33.5 4t27 8t24.5 12t27 17l56 -83q-17 -14 -32 -25t-31.5 -18.5
t-35.5 -12t-43 -4.5q-39 0 -71.5 10t-61.5 21t-61.5 21t-73.5 10z" />
    <glyph glyph-name="Ograve" unicode="&#xd2;" horiz-adv-x="1593" 
d="M129 720q0 380 169.5 576t508.5 196q153 0 275.5 -45.5t209 -138.5t133 -235t46.5 -335q0 -169 -36.5 -309t-117 -241t-209.5 -157t-315 -56q-158 0 -281 46t-208.5 139t-130 232.5t-44.5 327.5zM259 711q0 -158 37 -276t106.5 -196.5t168.5 -117.5t222 -39
q280 0 414 166t134 488q0 156 -34 276.5t-101.5 203t-167 125.5t-230.5 43q-281 0 -415 -166t-134 -507zM806 1562l-220 273h161l119 -234z" />
    <glyph glyph-name="Oacute" unicode="&#xd3;" horiz-adv-x="1593" 
d="M129 720q0 380 169.5 576t508.5 196q153 0 275.5 -45.5t209 -138.5t133 -235t46.5 -335q0 -169 -36.5 -309t-117 -241t-209.5 -157t-315 -56q-158 0 -281 46t-208.5 139t-130 232.5t-44.5 327.5zM259 711q0 -158 37 -276t106.5 -196.5t168.5 -117.5t222 -39
q280 0 414 166t134 488q0 156 -34 276.5t-101.5 203t-167 125.5t-230.5 43q-281 0 -415 -166t-134 -507zM733 1601l119 234h161l-220 -273z" />
    <glyph glyph-name="Ocircumflex" unicode="&#xd4;" horiz-adv-x="1593" 
d="M129 720q0 380 169.5 576t508.5 196q153 0 275.5 -45.5t209 -138.5t133 -235t46.5 -335q0 -169 -36.5 -309t-117 -241t-209.5 -157t-315 -56q-158 0 -281 46t-208.5 139t-130 232.5t-44.5 327.5zM259 711q0 -158 37 -276t106.5 -196.5t168.5 -117.5t222 -39
q280 0 414 166t134 488q0 156 -34 276.5t-101.5 203t-167 125.5t-230.5 43q-281 0 -415 -166t-134 -507zM552 1598l201 242h86l207 -247l-89 -44l-157 211l-161 -209z" />
    <glyph glyph-name="Otilde" unicode="&#xd5;" horiz-adv-x="1593" 
d="M129 720q0 380 169.5 576t508.5 196q153 0 275.5 -45.5t209 -138.5t133 -235t46.5 -335q0 -169 -36.5 -309t-117 -241t-209.5 -157t-315 -56q-158 0 -281 46t-208.5 139t-130 232.5t-44.5 327.5zM259 711q0 -158 37 -276t106.5 -196.5t168.5 -117.5t222 -39
q280 0 414 166t134 488q0 156 -34 276.5t-101.5 203t-167 125.5t-230.5 43q-281 0 -415 -166t-134 -507zM695 1677q-51 0 -83.5 -14.5t-58.5 -32.5l-59 88q26 20 70.5 39t106.5 19q42 0 76 -10t66 -21q29 -11 59 -21t65 -7q19 1 33.5 4t27 8t24.5 12t27 17l56 -83
q-17 -14 -32 -25t-31.5 -18.5t-35.5 -12t-43 -4.5q-39 0 -71.5 10t-61.5 21t-61.5 21t-73.5 10z" />
    <glyph glyph-name="Odieresis" unicode="&#xd6;" horiz-adv-x="1593" 
d="M129 720q0 380 169.5 576t508.5 196q153 0 275.5 -45.5t209 -138.5t133 -235t46.5 -335q0 -169 -36.5 -309t-117 -241t-209.5 -157t-315 -56q-158 0 -281 46t-208.5 139t-130 232.5t-44.5 327.5zM259 711q0 -158 37 -276t106.5 -196.5t168.5 -117.5t222 -39
q280 0 414 166t134 488q0 156 -34 276.5t-101.5 203t-167 125.5t-230.5 43q-281 0 -415 -166t-134 -507zM543 1760q0 49 20.5 69.5t68.5 20.5t69 -20.5t21 -69.5q0 -48 -21 -68.5t-69 -20.5t-68.5 20.5t-20.5 68.5zM873 1760q0 49 20.5 69.5t68.5 20.5t69 -20.5t21 -69.5
q0 -48 -21 -68.5t-69 -20.5t-68.5 20.5t-20.5 68.5z" />
    <glyph glyph-name="multiply" unicode="&#xd7;" horiz-adv-x="1352" 
d="M222 342l377 377l-376 374l78 79l374 -377l377 379l77 -75l-387 -371l390 -382l-80 -85l-386 392l-367 -388z" />
    <glyph glyph-name="Oslash" unicode="&#xd8;" horiz-adv-x="1593" 
d="M97 15l172 192q-87 118 -124 247.5t-37 265.5q0 381 177 577t530 196q66 0 125 -12t113 -34t103.5 -53.5t96.5 -71.5l173 190l79 -68l-174 -197q84 -116 118 -246t34 -263q0 -169 -34 -309.5t-113.5 -241.5t-210.5 -157t-324 -56q-76 0 -148 13.5t-134 37.5
q-42 17 -89 46t-90 64l-169 -190zM252 710q0 -111 22 -215.5t76 -195.5l833 938q-77 70 -163 106.5t-201 36.5q-143 0 -249.5 -39.5t-177 -121.5t-105.5 -208.5t-35 -300.5zM578 121q98 -35 223 -35q147 0 250 40t168 121t95 203t30 286q0 126 -21 227t-72 192l-834 -933
q40 -35 81 -61.5t80 -39.5z" />
    <glyph glyph-name="Ugrave" unicode="&#xd9;" horiz-adv-x="1479" 
d="M181 1466h130v-838q0 -147 21 -250.5t69.5 -169t127.5 -96t195 -30.5q130 0 215.5 30.5t135 96.5t69.5 170t20 251v836h130v-861q0 -165 -30 -284t-97.5 -196.5t-176.5 -114t-267 -36.5q-149 0 -252 36t-167.5 112.5t-93.5 195.5t-29 285v863zM748 1562l-220 273h161
l119 -234z" />
    <glyph glyph-name="Uacute" unicode="&#xda;" horiz-adv-x="1479" 
d="M181 1466h130v-838q0 -147 21 -250.5t69.5 -169t127.5 -96t195 -30.5q130 0 215.5 30.5t135 96.5t69.5 170t20 251v836h130v-861q0 -165 -30 -284t-97.5 -196.5t-176.5 -114t-267 -36.5q-149 0 -252 36t-167.5 112.5t-93.5 195.5t-29 285v863zM675 1601l119 234h161
l-220 -273z" />
    <glyph glyph-name="Ucircumflex" unicode="&#xdb;" horiz-adv-x="1479" 
d="M181 1466h130v-838q0 -147 21 -250.5t69.5 -169t127.5 -96t195 -30.5q130 0 215.5 30.5t135 96.5t69.5 170t20 251v836h130v-861q0 -165 -30 -284t-97.5 -196.5t-176.5 -114t-267 -36.5q-149 0 -252 36t-167.5 112.5t-93.5 195.5t-29 285v863zM494 1598l201 242h86
l207 -247l-89 -44l-157 211l-161 -209z" />
    <glyph glyph-name="Udieresis" unicode="&#xdc;" horiz-adv-x="1479" 
d="M181 1466h130v-838q0 -147 21 -250.5t69.5 -169t127.5 -96t195 -30.5q130 0 215.5 30.5t135 96.5t69.5 170t20 251v836h130v-861q0 -165 -30 -284t-97.5 -196.5t-176.5 -114t-267 -36.5q-149 0 -252 36t-167.5 112.5t-93.5 195.5t-29 285v863zM485 1760q0 49 20.5 69.5
t68.5 20.5t69 -20.5t21 -69.5q0 -48 -21 -68.5t-69 -20.5t-68.5 20.5t-20.5 68.5zM815 1760q0 49 20.5 69.5t68.5 20.5t69 -20.5t21 -69.5q0 -48 -21 -68.5t-69 -20.5t-68.5 20.5t-20.5 68.5z" />
    <glyph glyph-name="Yacute" unicode="&#xdd;" horiz-adv-x="1251" 
d="M550 621l-533 845h149l461 -729l459 729h142l-548 -845v-621h-130v621zM561 1601l119 234h161l-220 -273z" />
    <glyph glyph-name="Thorn" unicode="&#xde;" horiz-adv-x="1251" 
d="M182 1466h134v-320h369q110 0 198 -17t149.5 -62t94 -124.5t32.5 -205.5q0 -116 -29.5 -195.5t-88.5 -128t-147.5 -70t-206.5 -21.5h-371v-322h-134v1466zM672 440q181 0 264 75t83 222q0 85 -20 141t-62.5 89.5t-108 47t-156.5 13.5h-356v-588h356z" />
    <glyph glyph-name="germandbls" unicode="&#xdf;" horiz-adv-x="1024" 
d="M106 0v1066q0 109 21 190t64.5 134t111 79t161.5 26q107 0 171.5 -29t99 -81t45.5 -124.5t11 -159.5q0 -59 -12.5 -103t-36.5 -78.5t-59.5 -61t-81.5 -48.5q123 -20 197 -58.5t113 -90t51 -113t12 -128.5q0 -130 -23.5 -215.5t-69.5 -136.5t-112.5 -71.5t-151.5 -20.5
t-156 12.5t-137 34.5l28 118q54 -19 117 -32.5t122 -13.5q72 0 123 15.5t82.5 53t46 100t14.5 156.5q0 85 -20 145t-64 98.5t-114.5 56t-171.5 17.5h-76v107q82 0 133.5 18.5t80 51.5t38.5 79.5t10 103.5q0 81 -9 135t-32.5 86.5t-64 46t-103.5 13.5q-66 0 -110.5 -18.5
t-71.5 -58t-38.5 -102.5t-11.5 -153v-1046h-126z" />
    <glyph glyph-name="agrave" unicode="&#xe0;" 
d="M496 -23q-197 0 -293.5 77.5t-96.5 247.5q0 81 32 140t89 97.5t135.5 57t171.5 18.5q53 0 103 -6t92.5 -13.5t75 -15t51.5 -11.5v83q0 91 -17.5 154.5t-54.5 102.5t-93 56.5t-132 17.5q-45 0 -91.5 -7t-94 -19t-95 -26.5t-93.5 -29.5l-30 109q49 13 100.5 26.5t105 24.5
t108 18t108.5 7q93 0 159.5 -20.5t111.5 -56.5t71.5 -85.5t40.5 -107.5t18 -123t4 -131v-314l30 -248h-106l-50 158v4l-193 -162q-19 -5 -37 -9.5t-38 -7.5t-42.5 -4.5t-49.5 -1.5zM234 302q0 -65 19 -108t55 -69t88 -37t118 -11q39 0 88 19.5t96.5 47t89.5 57t68 48.5v231
q-78 18 -157.5 23.5t-158.5 5.5q-158 0 -232 -48t-74 -159zM578 1193l-220 273h161l119 -234z" />
    <glyph glyph-name="aacute" unicode="&#xe1;" 
d="M496 -23q-197 0 -293.5 77.5t-96.5 247.5q0 81 32 140t89 97.5t135.5 57t171.5 18.5q53 0 103 -6t92.5 -13.5t75 -15t51.5 -11.5v83q0 91 -17.5 154.5t-54.5 102.5t-93 56.5t-132 17.5q-45 0 -91.5 -7t-94 -19t-95 -26.5t-93.5 -29.5l-30 109q49 13 100.5 26.5t105 24.5
t108 18t108.5 7q93 0 159.5 -20.5t111.5 -56.5t71.5 -85.5t40.5 -107.5t18 -123t4 -131v-314l30 -248h-106l-50 158v4l-193 -162q-19 -5 -37 -9.5t-38 -7.5t-42.5 -4.5t-49.5 -1.5zM234 302q0 -65 19 -108t55 -69t88 -37t118 -11q39 0 88 19.5t96.5 47t89.5 57t68 48.5v231
q-78 18 -157.5 23.5t-158.5 5.5q-158 0 -232 -48t-74 -159zM505 1232l119 234h161l-220 -273z" />
    <glyph glyph-name="acircumflex" unicode="&#xe2;" 
d="M496 -23q-197 0 -293.5 77.5t-96.5 247.5q0 81 32 140t89 97.5t135.5 57t171.5 18.5q53 0 103 -6t92.5 -13.5t75 -15t51.5 -11.5v83q0 91 -17.5 154.5t-54.5 102.5t-93 56.5t-132 17.5q-45 0 -91.5 -7t-94 -19t-95 -26.5t-93.5 -29.5l-30 109q49 13 100.5 26.5t105 24.5
t108 18t108.5 7q93 0 159.5 -20.5t111.5 -56.5t71.5 -85.5t40.5 -107.5t18 -123t4 -131v-314l30 -248h-106l-50 158v4l-193 -162q-19 -5 -37 -9.5t-38 -7.5t-42.5 -4.5t-49.5 -1.5zM234 302q0 -65 19 -108t55 -69t88 -37t118 -11q39 0 88 19.5t96.5 47t89.5 57t68 48.5v231
q-78 18 -157.5 23.5t-158.5 5.5q-158 0 -232 -48t-74 -159zM324 1229l201 242h86l207 -247l-89 -44l-157 211l-161 -209z" />
    <glyph glyph-name="atilde" unicode="&#xe3;" 
d="M496 -23q-197 0 -293.5 77.5t-96.5 247.5q0 81 32 140t89 97.5t135.5 57t171.5 18.5q53 0 103 -6t92.5 -13.5t75 -15t51.5 -11.5v83q0 91 -17.5 154.5t-54.5 102.5t-93 56.5t-132 17.5q-45 0 -91.5 -7t-94 -19t-95 -26.5t-93.5 -29.5l-30 109q49 13 100.5 26.5t105 24.5
t108 18t108.5 7q93 0 159.5 -20.5t111.5 -56.5t71.5 -85.5t40.5 -107.5t18 -123t4 -131v-314l30 -248h-106l-50 158v4l-193 -162q-19 -5 -37 -9.5t-38 -7.5t-42.5 -4.5t-49.5 -1.5zM234 302q0 -65 19 -108t55 -69t88 -37t118 -11q39 0 88 19.5t96.5 47t89.5 57t68 48.5v231
q-78 18 -157.5 23.5t-158.5 5.5q-158 0 -232 -48t-74 -159zM447 1308q-51 0 -83.5 -14.5t-58.5 -32.5l-59 88q26 20 70.5 39t106.5 19q42 0 76 -10t66 -21q29 -11 59 -21t65 -7q19 1 33.5 4t27 8t24.5 12t27 17l56 -83q-17 -14 -32 -25t-31.5 -18.5t-35.5 -12t-43 -4.5
q-39 0 -71.5 10t-61.5 21t-61.5 21t-73.5 10z" />
    <glyph glyph-name="adieresis" unicode="&#xe4;" 
d="M496 -23q-197 0 -293.5 77.5t-96.5 247.5q0 81 32 140t89 97.5t135.5 57t171.5 18.5q53 0 103 -6t92.5 -13.5t75 -15t51.5 -11.5v83q0 91 -17.5 154.5t-54.5 102.5t-93 56.5t-132 17.5q-45 0 -91.5 -7t-94 -19t-95 -26.5t-93.5 -29.5l-30 109q49 13 100.5 26.5t105 24.5
t108 18t108.5 7q93 0 159.5 -20.5t111.5 -56.5t71.5 -85.5t40.5 -107.5t18 -123t4 -131v-314l30 -248h-106l-50 158v4l-193 -162q-19 -5 -37 -9.5t-38 -7.5t-42.5 -4.5t-49.5 -1.5zM234 302q0 -65 19 -108t55 -69t88 -37t118 -11q39 0 88 19.5t96.5 47t89.5 57t68 48.5v231
q-78 18 -157.5 23.5t-158.5 5.5q-158 0 -232 -48t-74 -159zM315 1391q0 49 20.5 69.5t68.5 20.5t69 -20.5t21 -69.5q0 -48 -21 -68.5t-69 -20.5t-68.5 20.5t-20.5 68.5zM645 1391q0 49 20.5 69.5t68.5 20.5t69 -20.5t21 -69.5q0 -48 -21 -68.5t-69 -20.5t-68.5 20.5
t-20.5 68.5z" />
    <glyph glyph-name="aring" unicode="&#xe5;" 
d="M496 -23q-197 0 -293.5 77.5t-96.5 247.5q0 81 32 140t89 97.5t135.5 57t171.5 18.5q53 0 103 -6t92.5 -13.5t75 -15t51.5 -11.5v83q0 91 -17.5 154.5t-54.5 102.5t-93 56.5t-132 17.5q-45 0 -91.5 -7t-94 -19t-95 -26.5t-93.5 -29.5l-30 109q49 13 100.5 26.5t105 24.5
t108 18t108.5 7q93 0 159.5 -20.5t111.5 -56.5t71.5 -85.5t40.5 -107.5t18 -123t4 -131v-314l30 -248h-106l-50 158v4l-193 -162q-19 -5 -37 -9.5t-38 -7.5t-42.5 -4.5t-49.5 -1.5zM234 302q0 -65 19 -108t55 -69t88 -37t118 -11q39 0 88 19.5t96.5 47t89.5 57t68 48.5v231
q-78 18 -157.5 23.5t-158.5 5.5q-158 0 -232 -48t-74 -159zM397 1333q0 39 13 71.5t36 56t54.5 36t68.5 12.5t69 -12.5t54.5 -36t35.5 -56t13 -71.5t-13 -71.5t-35.5 -55t-54.5 -35t-69 -12.5t-68.5 12.5t-54.5 35t-36 55t-13 71.5zM454 1336q0 -60 30 -89.5t85 -29.5
q54 0 84 29.5t30 89.5t-30 89.5t-84 29.5q-55 0 -85 -29.5t-30 -89.5z" />
    <glyph glyph-name="ae" unicode="&#xe6;" horiz-adv-x="1821" 
d="M461 -23q-197 0 -291 77.5t-94 247.5q0 81 31 140t87.5 97.5t134 57t170.5 18.5q53 0 102 -3.5t90.5 -8.5t73.5 -10t51 -9v68q0 77 -17 139.5t-52.5 106.5t-91 68t-131.5 24q-45 0 -89.5 -7.5t-91 -19.5t-95.5 -26.5t-102 -28.5l-26 103q49 13 100.5 26.5t105 24
t108 17.5t108.5 7q79 0 138.5 -15t102.5 -41.5t71.5 -64t46.5 -82.5q51 106 144 155.5t232 49.5q119 0 203 -35.5t137 -104t77 -169.5t24 -231v-81h-773q5 -97 27 -171t65 -124t110 -75.5t162 -25.5q172 0 343 74l28 -103q-66 -26 -158.5 -47t-208.5 -21q-163 0 -265 53
t-154 168l-226 -195q-38 -11 -95 -17t-112 -6zM204 302q0 -65 18.5 -108t53.5 -69t86 -37t117 -11q39 0 87 16.5t95 40.5t88 50t67 45v280h-311q-79 0 -136 -11.5t-93.5 -36.5t-54 -64.5t-17.5 -94.5zM1583 563q0 95 -14 174t-49 135.5t-94 87.5t-149 31q-88 0 -150 -35
t-101.5 -94t-59 -136.5t-22.5 -162.5h639z" />
    <glyph glyph-name="ccedilla" unicode="&#xe7;" 
d="M397 -310q26 -3 46 -4t43 -1q85 0 120 19.5t35 66.5q0 48 -43 65.5t-127 19.5l43 126q-185 18 -289 131q-125 135 -125 419q0 147 34 251t96.5 170t150 96.5t194.5 30.5q196 0 301.5 -88.5t117.5 -244.5l-128 -18q0 50 -17.5 96t-53.5 81t-91.5 56t-130.5 21
q-93 0 -158.5 -34.5t-107 -95t-60.5 -143t-19 -178.5q0 -123 25.5 -208t72.5 -138t114 -77t150 -24q52 0 98.5 10t87 27t76.5 39t67 45l63 -95q-37 -28 -77.5 -52t-87.5 -42t-103 -28q-53 -10 -117 -11l-27 -86q39 -1 74.5 -9t62.5 -25.5t43.5 -46.5t16.5 -72
q0 -77 -62.5 -108.5t-191.5 -31.5q-35 0 -65 1.5t-65 5.5z" />
    <glyph glyph-name="egrave" unicode="&#xe8;" 
d="M102 529q0 147 33.5 252.5t96.5 174t152.5 100.5t200.5 32q119 0 205.5 -35.5t142 -104t82 -169.5t26.5 -231v-81h-813q10 -194 104.5 -290t284.5 -96q87 0 178 24t171 69l37 -102q-30 -17 -72 -34.5t-91.5 -31.5t-105 -23t-113.5 -9q-126 0 -222.5 32t-162.5 99.5
t-100 172.5t-34 251zM906 563q0 95 -16.5 172.5t-54.5 132t-99 84t-151 29.5q-88 0 -153.5 -33.5t-110 -90.5t-68 -133t-26.5 -161h679zM578 1193l-220 273h161l119 -234z" />
    <glyph glyph-name="eacute" unicode="&#xe9;" 
d="M102 529q0 147 33.5 252.5t96.5 174t152.5 100.5t200.5 32q119 0 205.5 -35.5t142 -104t82 -169.5t26.5 -231v-81h-813q10 -194 104.5 -290t284.5 -96q87 0 178 24t171 69l37 -102q-30 -17 -72 -34.5t-91.5 -31.5t-105 -23t-113.5 -9q-126 0 -222.5 32t-162.5 99.5
t-100 172.5t-34 251zM906 563q0 95 -16.5 172.5t-54.5 132t-99 84t-151 29.5q-88 0 -153.5 -33.5t-110 -90.5t-68 -133t-26.5 -161h679zM505 1232l119 234h161l-220 -273z" />
    <glyph glyph-name="ecircumflex" unicode="&#xea;" 
d="M102 529q0 147 33.5 252.5t96.5 174t152.5 100.5t200.5 32q119 0 205.5 -35.5t142 -104t82 -169.5t26.5 -231v-81h-813q10 -194 104.5 -290t284.5 -96q87 0 178 24t171 69l37 -102q-30 -17 -72 -34.5t-91.5 -31.5t-105 -23t-113.5 -9q-126 0 -222.5 32t-162.5 99.5
t-100 172.5t-34 251zM906 563q0 95 -16.5 172.5t-54.5 132t-99 84t-151 29.5q-88 0 -153.5 -33.5t-110 -90.5t-68 -133t-26.5 -161h679zM344 1229l201 242h86l207 -247l-89 -44l-157 211l-161 -209z" />
    <glyph glyph-name="edieresis" unicode="&#xeb;" 
d="M102 529q0 147 33.5 252.5t96.5 174t152.5 100.5t200.5 32q119 0 205.5 -35.5t142 -104t82 -169.5t26.5 -231v-81h-813q10 -194 104.5 -290t284.5 -96q87 0 178 24t171 69l37 -102q-30 -17 -72 -34.5t-91.5 -31.5t-105 -23t-113.5 -9q-126 0 -222.5 32t-162.5 99.5
t-100 172.5t-34 251zM906 563q0 95 -16.5 172.5t-54.5 132t-99 84t-151 29.5q-88 0 -153.5 -33.5t-110 -90.5t-68 -133t-26.5 -161h679zM315 1391q0 49 20.5 69.5t68.5 20.5t69 -20.5t21 -69.5q0 -48 -21 -68.5t-69 -20.5t-68.5 20.5t-20.5 68.5zM645 1391q0 49 20.5 69.5
t68.5 20.5t69 -20.5t21 -69.5q0 -48 -21 -68.5t-69 -20.5t-68.5 20.5t-20.5 68.5z" />
    <glyph glyph-name="igrave" unicode="&#xec;" horiz-adv-x="455" 
d="M161 0v1062h130v-1062h-130zM236 1193l-220 273h161l119 -234z" />
    <glyph glyph-name="iacute" unicode="&#xed;" horiz-adv-x="455" 
d="M161 0v1062h130v-1062h-130zM163 1232l119 234h161l-220 -273z" />
    <glyph glyph-name="icircumflex" unicode="&#xee;" horiz-adv-x="455" 
d="M161 0v1062h130v-1062h-130zM-18 1229l201 242h86l207 -247l-89 -44l-157 211l-161 -209z" />
    <glyph glyph-name="idieresis" unicode="&#xef;" horiz-adv-x="455" 
d="M161 0v1062h130v-1062h-130zM-27 1391q0 49 20.5 69.5t68.5 20.5t69 -20.5t21 -69.5q0 -48 -21 -68.5t-69 -20.5t-68.5 20.5t-20.5 68.5zM303 1391q0 49 20.5 69.5t68.5 20.5t69 -20.5t21 -69.5q0 -48 -21 -68.5t-69 -20.5t-68.5 20.5t-20.5 68.5z" />
    <glyph glyph-name="eth" unicode="&#xf0;" 
d="M306 1196l220 106q-28 32 -68.5 64t-88.5 64l56 78q31 -23 58 -42t51.5 -37.5t46.5 -38t44 -42.5l222 108l35 -68l-201 -96q40 -41 76 -82t64 -77q47 -63 87.5 -132.5t70 -146t46 -160t16.5 -174.5q0 -139 -35 -241.5t-98 -170t-150.5 -100.5t-193.5 -33
q-105 0 -190.5 33t-145.5 100.5t-93 170t-33 241.5q0 141 30.5 243t86 168.5t133 98t170.5 31.5q66 0 130.5 -20.5t134.5 -68.5l-45 78q-18 27 -34 52t-33.5 49.5t-38 48.5t-47.5 49l-250 -119zM822 866q-36 18 -66.5 36t-61.5 33t-65 24t-77 9q-72 0 -130.5 -25.5
t-100.5 -79.5t-65 -139t-23 -204q0 -112 23.5 -195.5t68 -138.5t108 -82t143.5 -27q57 0 117 23t109.5 75.5t81 137t31.5 207.5q0 40 -6.5 78.5t-16 74.5t-21 70t-21.5 67l-24 56h-4z" />
    <glyph glyph-name="ntilde" unicode="&#xf1;" 
d="M164 0v1061h126v-164l213 167q37 10 74.5 16.5t92.5 6.5q91 0 152 -24.5t97.5 -70.5t52 -110.5t15.5 -145.5v-736h-126v746q0 57 -10.5 102t-35.5 75.5t-66 47t-102 16.5q-41 0 -92.5 -20.5t-102 -48.5t-94.5 -58t-68 -49v-811h-126zM467 1308q-51 0 -83.5 -14.5
t-58.5 -32.5l-59 88q26 20 70.5 39t106.5 19q42 0 76 -10t66 -21q29 -11 59 -21t65 -7q19 1 33.5 4t27 8t24.5 12t27 17l56 -83q-17 -14 -32 -25t-31.5 -18.5t-35.5 -12t-43 -4.5q-39 0 -71.5 10t-61.5 21t-61.5 21t-73.5 10z" />
    <glyph glyph-name="ograve" unicode="&#xf2;" 
d="M568 988q-173 0 -258.5 -115.5t-85.5 -341.5q0 -223 86 -341.5t258 -118.5t258.5 118.5t86.5 341.5q0 226 -86 341.5t-259 115.5zM568 -26q-233 0 -352.5 137.5t-119.5 419.5q0 280 119.5 417t352.5 137q232 0 352.5 -137t120.5 -417q0 -282 -120.5 -419.5t-352.5 -137.5
zM578 1193l-220 273h161l119 -234z" />
    <glyph glyph-name="oacute" unicode="&#xf3;" 
d="M568 988q-173 0 -258.5 -115.5t-85.5 -341.5q0 -223 86 -341.5t258 -118.5t258.5 118.5t86.5 341.5q0 226 -86 341.5t-259 115.5zM568 -26q-233 0 -352.5 137.5t-119.5 419.5q0 280 119.5 417t352.5 137q232 0 352.5 -137t120.5 -417q0 -282 -120.5 -419.5t-352.5 -137.5
zM505 1232l119 234h161l-220 -273z" />
    <glyph glyph-name="ocircumflex" unicode="&#xf4;" 
d="M568 988q-173 0 -258.5 -115.5t-85.5 -341.5q0 -223 86 -341.5t258 -118.5t258.5 118.5t86.5 341.5q0 226 -86 341.5t-259 115.5zM568 -26q-233 0 -352.5 137.5t-119.5 419.5q0 280 119.5 417t352.5 137q232 0 352.5 -137t120.5 -417q0 -282 -120.5 -419.5t-352.5 -137.5
zM324 1229l201 242h86l207 -247l-89 -44l-157 211l-161 -209z" />
    <glyph glyph-name="otilde" unicode="&#xf5;" 
d="M568 988q-173 0 -258.5 -115.5t-85.5 -341.5q0 -223 86 -341.5t258 -118.5t258.5 118.5t86.5 341.5q0 226 -86 341.5t-259 115.5zM568 -26q-233 0 -352.5 137.5t-119.5 419.5q0 280 119.5 417t352.5 137q232 0 352.5 -137t120.5 -417q0 -282 -120.5 -419.5t-352.5 -137.5
zM467 1308q-51 0 -83.5 -14.5t-58.5 -32.5l-59 88q26 20 70.5 39t106.5 19q42 0 76 -10t66 -21q29 -11 59 -21t65 -7q19 1 33.5 4t27 8t24.5 12t27 17l56 -83q-17 -14 -32 -25t-31.5 -18.5t-35.5 -12t-43 -4.5q-39 0 -71.5 10t-61.5 21t-61.5 21t-73.5 10z" />
    <glyph glyph-name="odieresis" unicode="&#xf6;" 
d="M568 988q-173 0 -258.5 -115.5t-85.5 -341.5q0 -223 86 -341.5t258 -118.5t258.5 118.5t86.5 341.5q0 226 -86 341.5t-259 115.5zM568 -26q-233 0 -352.5 137.5t-119.5 419.5q0 280 119.5 417t352.5 137q232 0 352.5 -137t120.5 -417q0 -282 -120.5 -419.5t-352.5 -137.5
zM315 1391q0 49 20.5 69.5t68.5 20.5t69 -20.5t21 -69.5q0 -48 -21 -68.5t-69 -20.5t-68.5 20.5t-20.5 68.5zM645 1391q0 49 20.5 69.5t68.5 20.5t69 -20.5t21 -69.5q0 -48 -21 -68.5t-69 -20.5t-68.5 20.5t-20.5 68.5z" />
    <glyph glyph-name="divide" unicode="&#xf7;" horiz-adv-x="1352" 
d="M587 1019q0 49 20.5 69.5t68.5 20.5t69 -20.5t21 -69.5q0 -48 -21 -68.5t-69 -20.5t-68.5 20.5t-20.5 68.5zM587 420q0 49 20.5 69.5t68.5 20.5t69 -20.5t21 -69.5q0 -48 -21 -68.5t-69 -20.5t-68.5 20.5t-20.5 68.5zM146 666v112h1059v-112h-1059z" />
    <glyph glyph-name="oslash" unicode="&#xf8;" 
d="M101 -26l110 144q-112 137 -112 413q0 558 467 558q196 0 311 -100l99 130l62 -53l-106 -138q102 -138 102 -397q0 -282 -118 -419.5t-350 -137.5q-187 0 -299 88l-101 -132zM566 992q-172 0 -255.5 -118t-83.5 -343q0 -195 63 -309l515 673q-85 97 -239 97zM906 531
q0 181 -54 292l-513 -668q84 -84 227 -84q172 0 256 118.5t84 341.5z" />
    <glyph glyph-name="ugrave" unicode="&#xf9;" 
d="M155 1062h126v-562q0 -126 16 -208t50 -130.5t86.5 -67.5t126.5 -19q80 0 135 19.5t89.5 68t49.5 131.5t15 209v559h126v-584q0 -143 -27.5 -239.5t-80 -155t-129.5 -84t-178 -25.5q-113 0 -190.5 25.5t-125 84t-68.5 155t-21 239.5v584zM578 1193l-220 273h161l119 -234
z" />
    <glyph glyph-name="uacute" unicode="&#xfa;" 
d="M155 1062h126v-562q0 -126 16 -208t50 -130.5t86.5 -67.5t126.5 -19q80 0 135 19.5t89.5 68t49.5 131.5t15 209v559h126v-584q0 -143 -27.5 -239.5t-80 -155t-129.5 -84t-178 -25.5q-113 0 -190.5 25.5t-125 84t-68.5 155t-21 239.5v584zM505 1232l119 234h161l-220 -273
z" />
    <glyph glyph-name="ucircumflex" unicode="&#xfb;" 
d="M155 1062h126v-562q0 -126 16 -208t50 -130.5t86.5 -67.5t126.5 -19q80 0 135 19.5t89.5 68t49.5 131.5t15 209v559h126v-584q0 -143 -27.5 -239.5t-80 -155t-129.5 -84t-178 -25.5q-113 0 -190.5 25.5t-125 84t-68.5 155t-21 239.5v584zM314 1229l201 242h86l207 -247
l-89 -44l-157 211l-161 -209z" />
    <glyph glyph-name="udieresis" unicode="&#xfc;" 
d="M155 1062h126v-562q0 -126 16 -208t50 -130.5t86.5 -67.5t126.5 -19q80 0 135 19.5t89.5 68t49.5 131.5t15 209v559h126v-584q0 -143 -27.5 -239.5t-80 -155t-129.5 -84t-178 -25.5q-113 0 -190.5 25.5t-125 84t-68.5 155t-21 239.5v584zM305 1391q0 49 20.5 69.5
t68.5 20.5t69 -20.5t21 -69.5q0 -48 -21 -68.5t-69 -20.5t-68.5 20.5t-20.5 68.5zM635 1391q0 49 20.5 69.5t68.5 20.5t69 -20.5t21 -69.5q0 -48 -21 -68.5t-69 -20.5t-68.5 20.5t-20.5 68.5z" />
    <glyph glyph-name="yacute" unicode="&#xfd;" horiz-adv-x="1024" 
d="M124 -302q11 -2 24.5 -3t27.5 -1q53 0 91.5 6.5t68 27.5t53 60t47.5 104l31 88l-425 1082h133l349 -937l352 937h121l-477 -1243q-30 -82 -68 -129.5t-82 -72t-94.5 -31.5t-104.5 -7q-19 0 -34 2.5t-32 5.5zM448 1232l119 234h161l-220 -273z" />
    <glyph glyph-name="thorn" unicode="&#xfe;" horiz-adv-x="1251" 
d="M1145 531q0 -143 -31 -246t-87.5 -169.5t-136.5 -98.5t-178 -32q-54 0 -111 7.5t-112 21.5t-106 33.5t-93 43.5v-500h-128v1876h128v-527q37 22 92.5 46t114.5 44.5t116 33.5t99 13q113 0 194.5 -25t134.5 -87t78.5 -167.5t25.5 -266.5zM326 160q25 -11 67.5 -22.5
t92.5 -21t104.5 -15.5t104.5 -6q79 0 137 20.5t96 70t56.5 133.5t18.5 211q0 129 -18.5 213t-56 133.5t-95 69.5t-134.5 20q-54 0 -98.5 -6t-92.5 -20q-18 -5 -47.5 -15.5t-61 -23t-61 -25.5t-48.5 -22v-677z" />
    <glyph glyph-name="ydieresis" unicode="&#xff;" horiz-adv-x="1024" 
d="M124 -302q11 -2 24.5 -3t27.5 -1q53 0 91.5 6.5t68 27.5t53 60t47.5 104l31 88l-425 1082h133l349 -937l352 937h121l-477 -1243q-30 -82 -68 -129.5t-82 -72t-94.5 -31.5t-104.5 -7q-19 0 -34 2.5t-32 5.5zM268 1391q0 49 20.5 69.5t68.5 20.5t69 -20.5t21 -69.5
q0 -48 -21 -68.5t-69 -20.5t-68.5 20.5t-20.5 68.5zM598 1391q0 49 20.5 69.5t68.5 20.5t69 -20.5t21 -69.5q0 -48 -21 -68.5t-69 -20.5t-68.5 20.5t-20.5 68.5z" />
    <glyph glyph-name="dotlessi" unicode="&#x131;" horiz-adv-x="455" 
d="M161 0v1062h130v-1062h-130z" />
    <glyph glyph-name="OE" unicode="&#x152;" horiz-adv-x="2048" 
d="M131 720q0 190 35 334.5t108 241.5t184.5 146.5t264.5 49.5q73 0 135 -18t113.5 -51t92.5 -79t72 -102v224h802v-113h-690v-556h570v-112h-570v-572h722v-112l-834 -1v228q-31 -56 -72.5 -102.5t-94.5 -80t-117.5 -52t-142.5 -18.5q-289 0 -433.5 185t-144.5 560z
M261 711q0 -123 25.5 -236.5t80 -201t139 -139.5t203.5 -52q123 0 205 48.5t131.5 135.5t70.5 207t21 263q0 144 -21.5 263t-70 204.5t-127.5 133t-194 47.5q-122 0 -209.5 -47.5t-144 -135.5t-83 -212t-26.5 -278z" />
    <glyph glyph-name="oe" unicode="&#x153;" horiz-adv-x="1933" 
d="M573 -26q-233 0 -350 137.5t-117 419.5q0 558 467 558q300 0 408 -233q54 121 155.5 176.5t248.5 55.5q119 0 203 -35.5t137 -104t77 -169.5t24 -231v-81h-775q5 -97 27 -171t66 -124t111 -75.5t162 -25.5q172 0 343 74l28 -103q-66 -26 -158.5 -47t-208.5 -21
q-167 0 -275.5 55.5t-163.5 175.5q-107 -231 -409 -231zM573 992q-172 0 -255.5 -118t-83.5 -343q0 -223 83.5 -341.5t255.5 -118.5t256 118.5t84 341.5q0 225 -84 343t-256 118zM1691 563q0 95 -14 174t-49 135.5t-94 87.5t-149 31q-88 0 -150 -35t-102 -94t-60 -136.5
t-23 -162.5h641z" />
    <glyph glyph-name="Scaron" unicode="&#x160;" horiz-adv-x="1251" 
d="M177 251q43 -24 100.5 -51t125 -50.5t144 -39t158.5 -15.5q90 0 150.5 23t96.5 63.5t51 95.5t15 120q0 73 -22 123.5t-70 85t-125 57t-187 39.5q-142 22 -233 51t-143.5 74t-73 110.5t-20.5 158.5q0 81 26 151.5t79.5 122.5t135 82t193.5 30q84 0 159 -14.5t138.5 -36
t115.5 -45.5t91 -43l-49 -115q-50 25 -105 50.5t-112.5 45.5t-117 33t-117.5 13q-77 0 -133.5 -21t-94.5 -57t-56.5 -85t-18.5 -104q0 -42 5 -75t20 -60t43 -49t75 -40t115 -34t162 -31q133 -21 220.5 -53.5t139 -79.5t72 -111t20.5 -149q0 -107 -24 -188.5t-78 -137
t-141.5 -83.5t-214.5 -28q-85 0 -164 11.5t-150.5 31t-136 46t-119.5 55.5zM472 1858l161 -209l157 211l89 -44l-207 -247h-86l-201 242z" />
    <glyph glyph-name="scaron" unicode="&#x161;" horiz-adv-x="1024" 
d="M532 81q73 0 122.5 13t79.5 37.5t42.5 60.5t12.5 82q0 47 -11.5 81t-44.5 58.5t-91.5 42.5t-152.5 33q-101 16 -171.5 41.5t-115 63t-65 88.5t-20.5 119q0 64 22.5 116.5t67.5 90t113.5 58t160.5 20.5q52 0 105.5 -7t104.5 -20.5t97.5 -32t85.5 -42.5l-44 -94
q-40 15 -81 31.5t-84 30t-88.5 22t-94.5 8.5q-126 0 -185 -48t-59 -131q0 -36 15 -67.5t50.5 -57.5t94.5 -46.5t147 -36.5q93 -17 163 -42t116.5 -61.5t70.5 -86t25 -115.5q1 -75 -20.5 -133.5t-68.5 -98.5t-120.5 -61t-175.5 -21q-53 0 -110.5 7t-114.5 20t-111 31t-99 41
l50 109q45 -21 92 -40t95.5 -33.5t97.5 -22.5t97 -7zM359 1489l161 -209l157 211l89 -44l-207 -247h-86l-201 242z" />
    <glyph glyph-name="Ydieresis" unicode="&#x178;" horiz-adv-x="1251" 
d="M550 621l-533 845h149l461 -729l459 729h142l-548 -845v-621h-130v621zM371 1760q0 49 20.5 69.5t68.5 20.5t69 -20.5t21 -69.5q0 -48 -21 -68.5t-69 -20.5t-68.5 20.5t-20.5 68.5zM701 1760q0 49 20.5 69.5t68.5 20.5t69 -20.5t21 -69.5q0 -48 -21 -68.5t-69 -20.5
t-68.5 20.5t-20.5 68.5z" />
    <glyph glyph-name="Zcaron" unicode="&#x17d;" horiz-adv-x="1251" 
d="M60 0v125l933 1228l-839 1v112h990v-112l-943 -1242h967v-112h-1108zM472 1895l161 -209l157 211l89 -44l-207 -247h-86l-201 242z" />
    <glyph glyph-name="zcaron" unicode="&#x17e;" horiz-adv-x="1024" 
d="M63 0v142l732 810h-666v110h794v-120l-743 -832h764v-110h-881zM359 1489l161 -209l157 211l89 -44l-207 -247h-86l-201 242z" />
    <glyph glyph-name="florin" unicode="&#x192;" 
d="M89 -308q34 -5 71.5 -9t80.5 -4q64 0 93 30t40 97l197 1148h-207l15 86h208l34 178q12 72 29 123.5t45.5 84.5t71 48.5t107.5 15.5q24 0 51 -2.5t53 -6.5t50 -8t41 -8q-7 -32 -13 -56t-12 -53q-32 8 -71.5 14.5t-73.5 6.5q-37 0 -62 -10t-42 -31t-28 -55t-20 -82
l-31 -159h207l-17 -86h-206l-203 -1149q-12 -65 -28 -110t-42.5 -73t-65.5 -40.5t-98 -12.5q-48 0 -100.5 5t-93.5 10z" />
    <glyph glyph-name="circumflex" unicode="&#x2c6;" horiz-adv-x="682" 
d="M95 1229l201 242h86l207 -247l-89 -44l-157 211l-161 -209z" />
    <glyph glyph-name="caron" unicode="&#x2c7;" horiz-adv-x="682" 
d="M187 1489l161 -209l157 211l89 -44l-207 -247h-86l-201 242z" />
    <glyph glyph-name="breve" unicode="&#x2d8;" horiz-adv-x="682" 
d="M147 1464q0 -36 15 -65t41.5 -50t62 -32.5t76.5 -11.5q48 0 83.5 12.5t58.5 34t36 50.5t16 62h82q0 -45 -20.5 -88.5t-56.5 -77.5t-86 -55t-109 -21q-68 0 -120.5 18t-88 50t-53.5 76.5t-18 97.5h81z" />
    <glyph glyph-name="dotaccent" unicode="&#x2d9;" horiz-adv-x="682" 
d="M252 1306q0 49 20.5 69.5t68.5 20.5t69 -20.5t21 -69.5q0 -48 -21 -68.5t-69 -20.5t-68.5 20.5t-20.5 68.5z" />
    <glyph glyph-name="ring" unicode="&#x2da;" horiz-adv-x="682" 
d="M168 1333q0 39 13 71.5t36 56t54.5 36t68.5 12.5t69 -12.5t54.5 -36t35.5 -56t13 -71.5t-13 -71.5t-35.5 -55t-54.5 -35t-69 -12.5t-68.5 12.5t-54.5 35t-36 55t-13 71.5zM225 1336q0 -60 30 -89.5t85 -29.5q54 0 84 29.5t30 89.5t-30 89.5t-84 29.5q-55 0 -85 -29.5
t-30 -89.5z" />
    <glyph glyph-name="ogonek" unicode="&#x2db;" horiz-adv-x="682" 
d="M326 24q-19 -43 -28.5 -87.5t-9.5 -76.5q0 -42 13 -74t36 -54t53 -33t65 -11q45 0 82.5 10.5t63.5 21.5v-69q-15 -8 -37.5 -17.5t-48.5 -18.5t-55.5 -15t-59.5 -6q-42 0 -78 13t-62 39t-41 64.5t-16 88.5q0 20 1.5 46t6.5 55t14 60.5t23 63.5h78z" />
    <glyph glyph-name="tilde" unicode="&#x2dc;" horiz-adv-x="682" 
d="M238 1308q-51 0 -83.5 -14.5t-58.5 -32.5l-59 88q26 20 70.5 39t106.5 19q42 0 76 -10t66 -21q29 -11 59 -21t65 -7q19 1 33.5 4t27 8t24.5 12t27 17l56 -83q-17 -14 -32 -25t-31.5 -18.5t-35.5 -12t-43 -4.5q-39 0 -71.5 10t-61.5 21t-61.5 21t-73.5 10z" />
    <glyph glyph-name="hungarumlaut" unicode="&#x2dd;" horiz-adv-x="682" 
d="M163 1234l103 236h171l-179 -236h-95zM459 1234l107 236h169l-174 -236h-102z" />
    <glyph glyph-name="pi" unicode="&#x3c0;" horiz-adv-x="1348" 
d="M85 1062h1158v-119h-223v-943h-141v943h-425v-943h-140v943h-229v119z" />
    <glyph glyph-name="endash" unicode="&#x2013;" horiz-adv-x="1024" 
d="M-5 473v102h1039v-102h-1039z" />
    <glyph glyph-name="emdash" unicode="&#x2014;" horiz-adv-x="2048" 
d="M-5 473v102h2060v-102h-2060z" />
    <glyph glyph-name="quoteleft" unicode="&#x2018;" horiz-adv-x="455" 
d="M315 1108q0 -49 -20.5 -69.5t-68.5 -20.5t-67.5 20.5t-21.5 69.5q-2 63 8.5 113t32 89t54.5 69.5t78 56.5l26 -43q-34 -20 -57 -44.5t-37.5 -50.5t-20.5 -52t-6 -49h11q48 0 68.5 -20.5t20.5 -68.5z" />
    <glyph glyph-name="quoteright" unicode="&#x2019;" horiz-adv-x="455" 
d="M139 1357q0 49 20.5 69.5t68.5 20.5t67.5 -20.5t21.5 -69.5q1 -63 -9 -113t-31.5 -89t-54.5 -70t-78 -56l-26 43q34 20 57 44.5t37 50.5t20.5 52t6.5 49h-11q-48 0 -68.5 20.5t-20.5 68.5z" />
    <glyph glyph-name="quotesinglbase" unicode="&#x201a;" horiz-adv-x="455" 
d="M141 79q0 49 20.5 69.5t68.5 20.5t67.5 -20.5t21.5 -69.5q1 -63 -9 -109.5t-31.5 -82t-54.5 -63.5t-78 -53l-26 43q68 40 98.5 85t30.5 91h-19q-48 0 -68.5 20.5t-20.5 68.5z" />
    <glyph glyph-name="quotedblleft" unicode="&#x201c;" horiz-adv-x="797" 
d="M310 1108q0 -49 -20.5 -69.5t-68.5 -20.5t-67.5 20.5t-21.5 69.5q-2 63 8.5 113t32 89t54.5 69.5t78 56.5l26 -43q-34 -20 -57 -44.5t-37.5 -50.5t-20.5 -52t-6 -49h11q48 0 68.5 -20.5t20.5 -68.5zM656 1108q0 -49 -20.5 -69.5t-68.5 -20.5t-67.5 20.5t-21.5 69.5
q-2 63 8.5 113t32 89t54.5 69.5t78 56.5l26 -43q-34 -20 -57 -44.5t-37.5 -50.5t-20.5 -52t-6 -49h11q48 0 68.5 -20.5t20.5 -68.5z" />
    <glyph glyph-name="quotedblright" unicode="&#x201d;" horiz-adv-x="797" 
d="M139 1357q0 49 20.5 69.5t68.5 20.5t67.5 -20.5t21.5 -69.5q1 -63 -9 -113t-31.5 -89t-54.5 -70t-78 -56l-26 43q34 20 57 44.5t37 50.5t20.5 52t6.5 49h-11q-48 0 -68.5 20.5t-20.5 68.5zM486 1357q0 49 20.5 69.5t68.5 20.5t67.5 -20.5t21.5 -69.5q1 -63 -9 -113
t-31.5 -89t-54.5 -70t-78 -56l-26 43q34 20 57 44.5t37 50.5t20.5 52t6.5 49h-11q-48 0 -68.5 20.5t-20.5 68.5z" />
    <glyph glyph-name="quotedblbase" unicode="&#x201e;" horiz-adv-x="797" 
d="M146 79q0 49 20.5 69.5t68.5 20.5t67.5 -20.5t21.5 -69.5q1 -63 -9 -109.5t-31.5 -82t-54.5 -63.5t-78 -53l-26 43q68 40 98.5 85t30.5 91h-19q-48 0 -68.5 20.5t-20.5 68.5zM486 79q0 49 20.5 69.5t68.5 20.5t67.5 -20.5t21.5 -69.5q1 -63 -9 -109.5t-31.5 -82
t-54.5 -63.5t-78 -53l-26 43q68 40 98.5 85t30.5 91h-19q-48 0 -68.5 20.5t-20.5 68.5z" />
    <glyph glyph-name="dagger" unicode="&#x2020;" 
d="M504 1433h130v-443l419 16v-113l-419 11v-1253h-130v1252l-409 -10v114l409 -17v443z" />
    <glyph glyph-name="daggerdbl" unicode="&#x2021;" 
d="M634 152l419 10v-113l-419 8v-406h-130v405l-409 -7v114l409 -11v792l-409 -11v114l409 -10v396h130v-396l419 9v-113l-419 12v-793z" />
    <glyph glyph-name="bullet" unicode="&#x2022;" horiz-adv-x="1024" 
d="M305 717q0 47 14.5 85t41.5 65t65 42t85 15t85 -15t65 -42t42 -65t15 -85t-15 -85t-42 -65t-65 -41.5t-85 -14.5t-85 14.5t-65 41.5t-41.5 65t-14.5 85z" />
    <glyph glyph-name="ellipsis" unicode="&#x2026;" horiz-adv-x="2048" 
d="M252 79q0 49 20.5 69.5t68.5 20.5t69 -20.5t21 -69.5q0 -48 -21 -68.5t-69 -20.5t-68.5 20.5t-20.5 68.5zM933 79q0 49 20.5 69.5t68.5 20.5t69 -20.5t21 -69.5q0 -48 -21 -68.5t-69 -20.5t-68.5 20.5t-20.5 68.5zM1615 79q0 49 20.5 69.5t68.5 20.5t69 -20.5t21 -69.5
q0 -48 -21 -68.5t-69 -20.5t-68.5 20.5t-20.5 68.5z" />
    <glyph glyph-name="perthousand" unicode="&#x2030;" horiz-adv-x="2048" 
d="M328 -52l620 1543h98l-617 -1543h-101zM42 1097q0 193 67 287.5t215 94.5q142 0 211.5 -94.5t69.5 -287.5q0 -188 -69.5 -278.5t-212.5 -90.5q-147 0 -214 90.5t-67 278.5zM151 1097q0 -78 9 -133.5t29.5 -91.5t53.5 -52.5t80 -16.5q94 0 133.5 70t39.5 225
q0 84 -9.5 142t-30.5 94.5t-53.5 53t-78.5 16.5q-47 0 -80 -17t-53.5 -53.5t-30 -95t-9.5 -141.5zM768 327q0 193 67.5 287.5t215.5 94.5q142 0 211.5 -94.5t69.5 -287.5q0 -188 -69.5 -278.5t-212.5 -90.5q-147 0 -214.5 90.5t-67.5 278.5zM877 327q0 -78 9.5 -133.5
t30 -91.5t53.5 -52.5t80 -16.5q94 0 133.5 70t39.5 225q0 84 -9.5 142t-30.5 94.5t-53.5 53t-78.5 16.5q-47 0 -80 -17t-54 -53.5t-30.5 -95t-9.5 -141.5zM1443 327q0 193 67.5 287.5t215.5 94.5q142 0 211.5 -94.5t69.5 -287.5q0 -188 -69.5 -278.5t-212.5 -90.5
q-147 0 -214.5 90.5t-67.5 278.5zM1552 327q0 -78 9.5 -133.5t30 -91.5t53.5 -52.5t80 -16.5q94 0 133.5 70t39.5 225q0 84 -9.5 142t-30.5 94.5t-53.5 53t-78.5 16.5q-47 0 -80 -17t-54 -53.5t-30.5 -95t-9.5 -141.5z" />
    <glyph glyph-name="guilsinglleft" unicode="&#x2039;" horiz-adv-x="797" 
d="M573 120l-61 -43l-309 448l312 462l68 -43l-251 -419z" />
    <glyph glyph-name="guilsinglright" unicode="&#x203a;" horiz-adv-x="797" 
d="M464 525l-251 419l68 43l312 -462l-309 -448l-61 43z" />
    <glyph glyph-name="fraction" unicode="&#x2044;" horiz-adv-x="342" 
d="M-427 -57l1101 1548h101l-1101 -1548h-101z" />
    <glyph glyph-name="Euro" unicode="&#x20ac;" 
d="M1080 22q-59 -20 -137 -34t-177 -14q-138 0 -242.5 28t-179.5 83t-122.5 136t-71.5 186q-6 25 -11 62.5t-10 82.5h-139l11 82h121q0 10 -0.5 24t-1 28.5t-0.5 28v24.5v23t0.5 26.5t1 26t0.5 21.5h-132l11 83h128q36 259 155 390q166 183 493 183q100 0 179 -18.5
t145 -47.5l-41 -111q-59 29 -128 47t-155 18q-95 0 -172.5 -19.5t-136.5 -61t-101 -107t-66 -157.5q-6 -23 -11.5 -52.5t-11.5 -63.5h699q-3 -26 -6 -43t-6 -40h-693q0 -8 -0.5 -20t-1 -25t-0.5 -25v-21v-26.5t0.5 -30t1 -30t0.5 -24.5h659l-11 -82h-643q1 -11 3.5 -26
t5 -30.5t5 -29.5t4.5 -24q21 -96 59 -162t96 -107t136.5 -59.5t179.5 -18.5q38 0 76.5 4t74.5 11t68.5 16t58.5 18z" />
    <glyph glyph-name="trademark" unicode="&#x2122;" horiz-adv-x="1925" 
d="M942 1466h133l228 -551l221 551h128v-812h-75v743l-236 -531h-87l-236 540v-752h-76v812zM477 1391h-271v75h631v-75h-273v-737h-87v737z" />
    <glyph glyph-name="Ohm" unicode="&#x2126;" horiz-adv-x="1460" 
d="M71 0v118l429 -9l-78 49q-54 35 -112 91t-106 135.5t-78.5 184t-30.5 235.5q0 153 42.5 281.5t125 221.5t203 145t275.5 52t270.5 -52.5t192 -146t114 -223.5t37.5 -285q0 -121 -30.5 -220t-80 -178t-111.5 -138.5t-125 -99.5l-78 -54l436 8v-115h-528v134q68 35 139 92
t129 139t95 189.5t37 243.5q0 131 -33 238.5t-96.5 184.5t-156 119t-211.5 42q-125 0 -221 -44.5t-161 -122t-98 -183t-33 -227.5q0 -139 32.5 -248t86 -191t122 -138.5t140.5 -89.5v-138h-538z" />
    <glyph glyph-name="partialdiff" unicode="&#x2202;" horiz-adv-x="1186" 
d="M118 327q0 122 52 216.5t138.5 162.5t197.5 111.5t229 63.5q22 3 51 6t60.5 4.5t63.5 3t60 1.5q-1 60 -3 109t-6 84q-8 70 -28.5 128.5t-51.5 101t-71.5 66t-86.5 23.5q-45 0 -86 -17t-76 -46t-62.5 -68.5t-45.5 -85.5l-94 41q22 49 59.5 96t85.5 83.5t104.5 58.5
t116.5 22q91 0 154 -45t101.5 -125t55.5 -190t17 -240q0 -119 -23.5 -233t-67 -215.5t-103.5 -187t-133.5 -147.5t-157.5 -97t-174 -35q-69 0 -120.5 26t-86 72.5t-52 110.5t-17.5 141zM657 790q-93 -31 -167.5 -79.5t-127 -109.5t-80.5 -131.5t-28 -145.5q0 -57 10 -103.5
t32 -80t56.5 -52t83.5 -18.5q60 0 119 23.5t112.5 65.5t101 100t85.5 126t64 144.5t38 155.5q5 29 8 65.5t5 82.5q-42 -1 -85.5 -4.5t-84 -8.5t-77.5 -12.5t-65 -17.5z" />
    <glyph glyph-name="glyph231" unicode="&#x2206;" horiz-adv-x="1253" 
d="M1226 0h-1200l628 1387zM990 82l-399 967l-440 -967h839z" />
    <glyph glyph-name="product" unicode="&#x220f;" horiz-adv-x="1479" 
d="M183 1492h1115v-1923h-137v1803h-839v-1803h-139v1923z" />
    <glyph glyph-name="summation" unicode="&#x2211;" horiz-adv-x="1298" 
d="M91 1494h1123v-115h-985l642 -827l-674 -874h1027v-112h-1150v147l646 830l-629 816v135z" />
    <glyph glyph-name="minus" unicode="&#x2212;" horiz-adv-x="0" 
 />
    <glyph glyph-name="radical" unicode="&#x221a;" horiz-adv-x="1061" 
d="M1000 1869h74l-309 -1947l-5 -1l-496 1023l-196 -92l-31 66l298 149l405 -824z" />
    <glyph glyph-name="infinity" unicode="&#x221e;" horiz-adv-x="1612" 
d="M107 677q0 140 76.5 213.5t219.5 73.5q85 0 150.5 -38.5t127.5 -113.5l73 -85l67 100v-1q25 39 58.5 77t76 68t95.5 48t118 18q66 0 126.5 -20t106 -64.5t72.5 -116t27 -175.5q0 -178 -78 -273t-239 -95q-54 0 -101 13.5t-89 38t-81 60t-79 80.5q-9 10 -21 25t-24 31
t-23.5 32t-20.5 28l-73 -86q-25 -33 -53 -60.5t-62.5 -47t-76 -30t-93.5 -10.5q-137 0 -208.5 79.5t-71.5 230.5zM882 561q37 -47 71.5 -82.5t70 -60.5t75 -37.5t86.5 -12.5q62 0 105 20t70 57.5t39 92t12 122.5q0 151 -56.5 225.5t-191.5 74.5q-51 0 -92 -12.5t-75 -36.5
t-63.5 -57.5t-59.5 -75.5q-14 -22 -35.5 -51t-41.5 -55q22 -26 45 -57t40 -54h1zM626 739q-32 39 -60.5 67.5t-55.5 47t-54 27.5t-58 9q-97 0 -150 -51.5t-53 -167.5q0 -115 53.5 -171t144.5 -56q77 0 137 35t115 97l61 73z" />
    <glyph glyph-name="integral" unicode="&#x222b;" horiz-adv-x="1010" 
d="M320 -219q-29 0 -50.5 9.5t-35 25t-20 36t-6.5 41.5q0 49 24.5 78t62.5 29q25 0 41 -10t28.5 -22t24 -22t27.5 -10q23 0 31 15t8 46q0 64 -7 153.5t-15.5 207t-15.5 264t-7 326.5q0 232 8 404.5t32.5 285.5t70.5 169t122 56q55 0 90 -30.5t35 -78.5q0 -45 -25 -73.5
t-65 -28.5q-20 0 -35 8.5t-28.5 19t-27 19.5t-29.5 9q-18 0 -28 -14t-10 -46q0 -76 7 -167.5t16 -203.5t16 -246.5t7 -294.5q0 -226 -5.5 -403.5t-29.5 -300t-73.5 -187t-137.5 -64.5z" />
    <glyph glyph-name="approxequal" unicode="&#x2248;" horiz-adv-x="1352" 
d="M196 809q18 15 46.5 33t65.5 34.5t81 27.5t93 11q65 0 115.5 -15t98.5 -32h-1q44 -16 87.5 -28.5t96.5 -12.5q65 0 115 18.5t95 50.5l49 -69q-51 -46 -119.5 -75t-148.5 -29q-63 0 -109.5 14.5t-88.5 31.5q-46 18 -93 32.5t-108 14.5q-36 0 -68.5 -7.5t-60 -19t-51 -25.5
t-42.5 -27zM212 369q18 15 46.5 33t65.5 34.5t81 27.5t93 11q65 0 115.5 -15t98.5 -32h-1q44 -16 87.5 -28.5t96.5 -12.5q65 0 115 18.5t95 50.5l49 -69q-51 -46 -119.5 -75t-148.5 -29q-63 0 -109.5 14.5t-88.5 31.5q-46 18 -93 32.5t-108 14.5q-36 0 -68.5 -7.5t-60 -19
t-51 -25.5t-42.5 -27z" />
    <glyph glyph-name="notequal" unicode="&#x2260;" horiz-adv-x="1352" 
d="M303 -27l204 466h-287v124h341l143 321h-484v124h537l207 464h95l-203 -464h288v-124h-343l-141 -321h484v-124h-536l-207 -466h-98z" />
    <glyph glyph-name="lessequal" unicode="&#x2264;" horiz-adv-x="1352" 
d="M232 132v102h889v-102h-889zM234 781v134l887 390v-124l-803 -335l803 -343v-119z" />
    <glyph glyph-name="greaterequal" unicode="&#x2265;" horiz-adv-x="1352" 
d="M234 132v102h889v-102h-889zM234 384v119l803 343l-803 335v124l887 -390v-134z" />
    <glyph glyph-name="lozenge" unicode="&#x25ca;" horiz-adv-x="1153" 
d="M616 1422l418 -713l-418 -709h-111l-391 709l391 713h111zM921 709l-359 625l-340 -625l339 -635z" />
    <glyph glyph-name="fi" unicode="&#xfb01;" horiz-adv-x="1024" 
d="M33 972v90h168v138q0 85 19 140.5t52 88.5t77 46t94 13q38 0 68 -5.5t52 -11.5q26 -7 46 -16l-20 -101q-20 8 -40 15q-18 6 -39.5 11t-44.5 5q-40 0 -66.5 -7t-42.5 -27t-23 -55.5t-7 -93.5v-140h215v-90h-215v-972h-125v972h-168zM736 0v1062h124v-1062h-124zM707 1371
q0 49 20.5 69.5t68.5 20.5t69 -20.5t21 -69.5q0 -48 -21 -68.5t-69 -20.5t-68.5 20.5t-20.5 68.5z" />
    <glyph glyph-name="fl" unicode="&#xfb02;" horiz-adv-x="1024" 
d="M33 972v90h168v138q0 85 19 140.5t52 88.5t77 46t94 13q38 0 68 -5.5t52 -11.5q26 -7 46 -16l-20 -101q-20 8 -40 15q-18 6 -39.5 11t-44.5 5q-40 0 -66.5 -7t-42.5 -27t-23 -55.5t-7 -93.5v-140h215v-90h-215v-972h-125v972h-168zM736 0v1465h120v-1465h-120z" />
    <glyph glyph-name="Delta" horiz-adv-x="1253" 
d="M1226 0h-1200l628 1387zM990 82l-399 967l-440 -967h839z" />
    <glyph glyph-name="Omega" horiz-adv-x="1460" 
d="M71 0v118l429 -9l-78 49q-54 35 -112 91t-106 135.5t-78.5 184t-30.5 235.5q0 153 42.5 281.5t125 221.5t203 145t275.5 52t270.5 -52.5t192 -146t114 -223.5t37.5 -285q0 -121 -30.5 -220t-80 -178t-111.5 -138.5t-125 -99.5l-78 -54l436 8v-115h-528v134q68 35 139 92
t129 139t95 189.5t37 243.5q0 131 -33 238.5t-96.5 184.5t-156 119t-211.5 42q-125 0 -221 -44.5t-161 -122t-98 -183t-33 -227.5q0 -139 32.5 -248t86 -191t122 -138.5t140.5 -89.5v-138h-538z" />
    </font>
</defs>
</svg>
