<?xml version="1.0" standalone="no"?>
<!DOCTYPE svg PUBLIC "-//W3C//DTD SVG 1.1//EN" "http://www.w3.org/Graphics/SVG/1.1/DTD/svg11.dtd" >
<svg xmlns="http://www.w3.org/2000/svg" xmlns:xlink="http://www.w3.org/1999/xlink" version="1.1">
<metadata>
Created by FontForge 20161013 at Sun Mar 26 11:09:34 2017
 By ,,,
Copyright (c) 2015 by Studio Kmzero. All rights reserved.
</metadata>
<defs>
<font id="CocoGothic-Light" horiz-adv-x="0" >
  <font-face 
    font-family="Coco Gothic Light"
    font-weight="300"
    font-stretch="normal"
    units-per-em="1000"
    panose-1="2 0 5 6 0 0 0 2 0 4"
    ascent="800"
    descent="-200"
    x-height="489"
    cap-height="742"
    bbox="-470 -324 1259 1101"
    underline-thickness="50"
    underline-position="-150"
    unicode-range="U+000D-FB04"
  />
<missing-glyph horiz-adv-x="313" 
d="M349 38q-33 -9 -68 -9q-54 0 -100.5 20.5t-80 55t-53 80.5t-19.5 97q0 54 20.5 100.5t55 80.5t80.5 53.5t97 19.5q55 0 101.5 -21t80 -56t52.5 -81t19 -96q0 -46 -14.5 -85.5t-39.5 -71t-58.5 -53.5t-72.5 -34zM342 506q-27 9 -61 9q-50 0 -92.5 -19t-73.5 -51t-48.5 -74
t-17.5 -89t18 -89.5t49 -74.5t73.5 -51t91.5 -19q48 0 90.5 18.5t74 50t50 74t18.5 91.5q0 43 -13.5 79.5t-37 65.5t-55 49t-66.5 30zM141 125h281q-29 -24 -64.5 -38.5t-76.5 -14.5t-76 14.5t-64 38.5zM397 415l-273 -274q-25 29 -38.5 64.5t-13.5 76.5q0 38 12 71.5
t35 61.5h278zM420 438h-280q29 26 64.5 40t76.5 14t76.5 -14.5t62.5 -39.5zM490 282q0 -38 -12 -72t-35 -62h-279l273 275q53 -67 53 -141z" />
    <glyph glyph-name="ff" unicode="ff" horiz-adv-x="618" 
d="M486 491h89q20 0 20 -20v-13q0 -21 -20 -21h-89v-419q0 -9 -6 -14t-15 -5h-18q-20 0 -20 19v419h-62h-2h-185v-419q0 -9 -6.5 -14t-14.5 -5h-19q-19 0 -19 19v419h-62q-20 0 -20 21v13q0 20 20 20h62v95q0 75 41 117t113 42q21 0 21 -22v-17q0 -8 -5.5 -13.5t-13.5 -5.5
q-45 0 -71 -26t-26 -77v-93h184h3h62v95q0 75 41 117t114 42q20 0 20 -22v-17q0 -8 -5.5 -13.5t-13.5 -5.5q-45 0 -71 -26t-26 -77v-93z" />
    <glyph glyph-name="fi" unicode="fi" horiz-adv-x="515" 
d="M384 18v419h-219v-419q0 -9 -6.5 -14t-14.5 -5h-19q-19 0 -19 19v419h-62q-20 0 -20 21v13q0 20 20 20h62v95q0 75 41 117t113 42q21 0 21 -22v-17q0 -8 -5.5 -13.5t-13.5 -5.5q-45 0 -71 -26t-26 -77v-93h259q18 0 18 -19v-454q0 -18 -18 -18h-21q-19 0 -19 18zM366 632
q0 20 13.5 33.5t33.5 13.5t33 -13.5t13 -33.5q0 -19 -13 -32.5t-33 -13.5t-33.5 13.5t-13.5 32.5z" />
    <glyph glyph-name="ffi" unicode="ffi" horiz-adv-x="805" 
d="M693 18v419h-129h-2h-89v-419q0 -9 -6 -14t-15 -5h-18q-20 0 -20 19v419h-62h-2h-185v-419q0 -9 -6.5 -14t-14.5 -5h-19q-19 0 -19 19v419h-62q-20 0 -20 21v13q0 20 20 20h62v95q0 75 41 117t113 42q21 0 21 -22v-17q0 -8 -5.5 -13.5t-13.5 -5.5q-45 0 -71 -26t-26 -77
v-93h249v95q0 75 41 117t114 42q20 0 20 -22v-17q0 -8 -5.5 -13.5t-13.5 -5.5q-45 0 -71 -26t-26 -77v-93h258q14 0 18 -10q2 -6 2 -9v-14v-2v-438q0 -18 -19 -18h-20q-19 0 -19 18zM675 632q0 20 13.5 33.5t32.5 13.5q20 0 33.5 -13.5t13.5 -33.5q0 -19 -13.5 -32.5
t-33.5 -13.5q-19 0 -32.5 13.5t-13.5 32.5z" />
    <glyph glyph-name=".notdef" horiz-adv-x="313" 
d="M349 38q-33 -9 -68 -9q-54 0 -100.5 20.5t-80 55t-53 80.5t-19.5 97q0 54 20.5 100.5t55 80.5t80.5 53.5t97 19.5q55 0 101.5 -21t80 -56t52.5 -81t19 -96q0 -46 -14.5 -85.5t-39.5 -71t-58.5 -53.5t-72.5 -34zM342 506q-27 9 -61 9q-50 0 -92.5 -19t-73.5 -51t-48.5 -74
t-17.5 -89t18 -89.5t49 -74.5t73.5 -51t91.5 -19q48 0 90.5 18.5t74 50t50 74t18.5 91.5q0 43 -13.5 79.5t-37 65.5t-55 49t-66.5 30zM141 125h281q-29 -24 -64.5 -38.5t-76.5 -14.5t-76 14.5t-64 38.5zM397 415l-273 -274q-25 29 -38.5 64.5t-13.5 76.5q0 38 12 71.5
t35 61.5h278zM420 438h-280q29 26 64.5 40t76.5 14t76.5 -14.5t62.5 -39.5zM490 282q0 -38 -12 -72t-35 -62h-279l273 275q53 -67 53 -141z" />
    <glyph glyph-name=".null" 
 />
    <glyph glyph-name=".null" 
 />
    <glyph glyph-name="nonmarkingreturn" unicode="&#xd;" horiz-adv-x="250" 
 />
    <glyph glyph-name="space" unicode=" " horiz-adv-x="313" 
 />
    <glyph glyph-name="exclam" unicode="!" horiz-adv-x="218" 
d="M80 214v511q0 7 4.5 12t12.5 5h26q15 0 15 -17v-510q0 -18 -14 -18h-31q-13 0 -13 17zM63 36q0 19 13.5 32.5t32.5 13.5q20 0 33.5 -13.5t13.5 -32.5q0 -20 -13.5 -33t-33.5 -13q-19 0 -32.5 13t-13.5 33z" />
    <glyph glyph-name="quotedbl" unicode="&#x22;" horiz-adv-x="416" 
d="M80 565v159q0 18 19 18h21q18 0 18 -18v-159q0 -11 -5 -15t-14 -4h-20q-19 0 -19 19zM210 565v159q0 18 18 18h21q18 0 18 -18v-159q0 -11 -5 -15t-13 -4h-21q-18 0 -18 19z" />
    <glyph glyph-name="numbersign" unicode="#" horiz-adv-x="517" 
d="M180 473l-15 -198h136l16 198h-137zM321 531l15 197q2 14 15 14h33q15 0 13 -14l-15 -197h67q13 0 13 -13l-3 -31q-2 -14 -14 -14h-67l-16 -198h67q13 0 13 -13l-3 -30q0 -6 -4.5 -10.5t-9.5 -4.5h-68l-15 -203q-1 -14 -16 -14h-32q-14 0 -13 14l16 203h-137l-15 -203
q-3 -14 -17 -14h-31q-14 0 -13 14l15 203h-63q-15 0 -15 15l3 30q1 13 17 13h63l15 198h-63q-15 0 -15 14l3 31q2 13 16 13h63l16 197q2 14 15 14h32q6 0 10.5 -3.5t3.5 -10.5l-16 -197h137z" />
    <glyph glyph-name="dollar" unicode="$" horiz-adv-x="641" 
d="M59 107q-5 6 -8 13t5 15l19 18q6 6 13 3.5t13 -10.5q38 -43 90.5 -70t129.5 -27q45 0 84 9t67.5 28.5t45 50t16.5 72.5q0 39 -22 64.5t-55 41.5t-70.5 25t-68.5 16q-126 26 -187.5 72.5t-61.5 127.5q0 86 59.5 136t163.5 59v64q0 15 14 15h24q14 0 14 -15v-63
q66 -2 120 -21.5t97 -65.5q12 -12 0 -26l-17 -18q-7 -8 -14.5 -4t-15.5 11q-18 16 -35 27.5t-36.5 19.5t-43.5 12t-56 5q-36 1 -73 -4.5t-67.5 -21.5t-50 -43t-19.5 -69q0 -33 17 -56t45 -39.5t65 -27.5t77 -20q45 -10 92 -23t85 -35t62 -56t24 -87q0 -52 -19.5 -92
t-54 -67.5t-81.5 -42.5t-101 -18v-69q0 -16 -14 -16h-24q-14 0 -14 16v70q-72 5 -129 33t-104 83z" />
    <glyph glyph-name="percent" unicode="%" horiz-adv-x="857" 
d="M49 573q0 40 15 75t41.5 61t61.5 41t75 15t75 -15t61 -41t41 -61t15 -75t-15 -75t-41 -61.5t-61 -41.5t-75 -15t-75 15t-61.5 41.5t-41.5 61.5t-15 75zM93 573q0 -31 11.5 -58.5t31.5 -47.5t47.5 -31.5t58.5 -11.5t58 11.5t46.5 31.5t31 47.5t11.5 58.5t-11.5 58
t-31 46.5t-46.5 31t-58 11.5t-58.5 -11.5t-47.5 -31t-31.5 -46.5t-11.5 -58zM424 183q0 40 15 75t41 61.5t61 41.5t75 15t75 -15t61.5 -41.5t41.5 -61.5t15 -75t-15 -75t-41.5 -61t-61.5 -41t-75 -15t-75 15t-61 41t-41 61t-15 75zM468 183q0 -31 11.5 -58t31 -47t47 -31.5
t58.5 -11.5q32 0 58.5 11.5t46.5 31.5t31 47t11 58q0 32 -11 59t-31 46.5t-46.5 31t-58.5 11.5q-31 0 -58.5 -11.5t-47 -31t-31 -46.5t-11.5 -59zM172 21l435 704q6 10 11.5 13.5t16.5 3.5h24q11 0 12.5 -6.5t-4.5 -15.5l-438 -705q-5 -7 -8.5 -11t-12.5 -4h-29q-20 0 -7 21
z" />
    <glyph glyph-name="ampersand" unicode="&#x26;" horiz-adv-x="838" 
d="M320 273q30 16 64 22.5t70 -3.5l164 -44q21 -6 42 -3.5t39 13t32 27.5t21 38q9 20 24 14l22 -9q10 -4 10 -9.5t-3 -16.5q-10 -32 -30.5 -56.5t-48 -39.5t-60 -19t-65.5 5l-51 13q-4 -45 -25.5 -84.5t-54.5 -69.5t-75.5 -47t-89.5 -17q-50 0 -93.5 17t-76 47t-51.5 72
t-19 92q0 70 35 123.5t95 82.5q-35 23 -56.5 59t-21.5 84q0 39 15 71.5t40.5 56t60 36.5t72.5 13q39 0 73 -13t59.5 -36.5t40 -56t14.5 -71.5q0 -9 -2 -15.5t-13 -6.5h-24q-12 0 -15 6t-3 16q0 57 -36.5 89.5t-93.5 32.5q-28 0 -52 -8.5t-42 -24.5t-28 -38.5t-10 -50.5
q0 -56 36.5 -85.5t90.5 -32.5h5q10 0 16 -2.5t6 -13.5v-21q0 -12 -6 -15t-16 -3q-38 0 -71.5 -13t-58.5 -36t-39.5 -55.5t-14.5 -70.5t14.5 -70t39.5 -55t58.5 -35.5t71.5 -12.5q37 0 70.5 14t59 38.5t41.5 57t18 69.5l-55 14q-30 8 -50 3.5t-40 -14.5q-9 -5 -17.5 -6
t-13.5 8l-11 19q-4 7 -0.5 14.5t13.5 12.5z" />
    <glyph glyph-name="quotesingle" unicode="'" horiz-adv-x="264" 
d="M81 565v159q0 18 18 18h21q18 0 18 -18v-159q0 -11 -5 -15t-13 -4h-21q-18 0 -18 19z" />
    <glyph glyph-name="parenleft" unicode="(" horiz-adv-x="248" 
d="M57 373q0 76 11.5 146t31 132t45.5 116.5t54 98.5q10 13 22 4l22 -18q6 -5 6 -10t-3 -9q-25 -39 -49 -91t-42.5 -112t-29.5 -125t-11 -131q0 -73 11 -141t29.5 -127.5t42 -110.5t48.5 -90q3 -4 3.5 -9.5t-6.5 -10.5l-22 -16q-14 -7 -22 4q-27 45 -52.5 97.5t-45 114
t-31.5 133.5t-12 155z" />
    <glyph glyph-name="parenright" unicode=")" horiz-adv-x="248" 
d="M199 373q0 -83 -12 -155t-32 -133.5t-45.5 -114t-52.5 -97.5q-5 -7 -10.5 -7t-10.5 3l-23 16q-6 5 -6 10.5t3 9.5q26 39 49.5 90t41.5 110.5t29 127.5t11 141q0 66 -11 131t-29.5 125t-42 112t-48.5 91q-3 4 -3 9t6 10l22 18q12 8 21 -4q29 -44 54.5 -98.5t45.5 -116.5
t31.5 -132t11.5 -146z" />
    <glyph glyph-name="asterisk" unicode="*" horiz-adv-x="491" 
d="M63 338v22q0 14 16 14l127 -3l-63 101q-3 5 -2.5 11t7.5 11l19 10q12 8 21 -6l53 -98l54 99q7 13 20 5l19 -10q5 -3 6.5 -9.5t-1.5 -11.5l-65 -104l126 5q16 0 16 -15l-1 -22q0 -6 -4.5 -10.5t-10.5 -3.5l-120 5l68 -111q7 -12 -5 -20l-19 -11q-5 -3 -11 -1.5t-9 7.5
l-62 119l-66 -121q-3 -5 -8 -8t-13 2l-18 11q-7 4 -8 10t2 11l69 111l-121 -4q-16 -2 -16 15z" />
    <glyph glyph-name="plus" unicode="+" horiz-adv-x="450" 
d="M235 134h-29q-15 0 -15 17v137h-133q-16 0 -16 14v30q0 15 16 15h133v132q0 6 3.5 10.5t11.5 4.5h29q6 0 10.5 -4.5t4.5 -11.5v-131h136q16 0 16 -15v-30q0 -6 -5 -10t-11 -4h-136v-137q0 -7 -3.5 -12t-11.5 -5z" />
    <glyph glyph-name="comma" unicode="," horiz-adv-x="264" 
d="M64 35q0 20 14 34t34 14q23 0 35.5 -16t12.5 -41t-4 -43t-9.5 -30t-11 -18t-8.5 -9q-3 -4 -7.5 -6t-9.5 2l-16 13q-5 5 -3 9.5t4 6.5q4 8 8.5 14.5t4.5 15.5v6q-18 3 -31 15.5t-13 32.5z" />
    <glyph glyph-name="hyphen" unicode="-" horiz-adv-x="517" 
d="M99 304h320q19 0 19 -18v-21q0 -19 -19 -19h-320q-19 0 -19 19v21q0 18 19 18z" />
    <glyph glyph-name="period" unicode="." horiz-adv-x="264" 
d="M61 36q0 19 13 32.5t33 13.5t33 -13.5t13 -32.5q0 -20 -13 -33.5t-33 -13.5t-33 13.5t-13 33.5z" />
    <glyph glyph-name="slash" unicode="/" horiz-adv-x="418" 
d="M94 12q-3 -8 -7 -10t-8 -2h-29q-6 0 -12 4.5t-1 15.5l273 710q3 8 7.5 10t8.5 2h33q7 0 12 -5t1 -15z" />
    <glyph glyph-name="zero" unicode="0" horiz-adv-x="1236" 
d="M1210 533v-286h-1174v286h445q0 15 3 29q2 13 8 26t14 25q7 12 18 21q18 19 44 30q14 6 28 9q13 2 27 2q16 0 30 -3t26 -9q14 -6 26 -14q11 -8 20 -17q18 -18 30 -46q10 -26 10 -53h445zM503 582q-11 -23 -11 -49q0 -28 11 -51q5 -11 12 -22t15 -20q9 -9 20 -16
q10 -7 22 -12q23 -11 51 -11q14 0 27 2q12 2 24 7q12 6 22 13q10 6 19 16q9 9 16 20q7 10 13 21q11 25 11 53q0 11 -2 23q-2 11 -7 21q-6 20 -20 37q-7 8 -15 15t-16 12l-18 10l-20 8q-7 2 -15 3q-9 1 -19 1q-14 0 -27 -2q-13 -3 -25 -9q-24 -9 -42 -28q-8 -9 -14 -20z
M144 337q3 5 3 9v5q-1 2 -3 5q0 1 -2 3l-3 3l-2 4q-2 1 -5 1l-4 2q-3 1 -5 1h-26v-75h8v28h18q2 0 5 1q2 0 4 1q5 2 7 4q1 2 3 4zM200 370h-46v-75h46v9h-35v23h29v10h-29v22h35v11zM273 295l-23 32q1 1 3 1q1 0 2 2q4 2 5 5q1 1 2 3q1 1 2 3v6v5q0 2 -1 4q-2 4 -5 7
q-2 4 -7 4q-1 1 -3 2q-3 1 -5 1h-27v-75h11v31h11l20 -27q1 -2 3 -3q1 -1 2 -1h3h7zM324 308q0 2 1 4v4q0 6 -2 10t-6 7q-1 0 -1 1q-1 1 -3 2v0q-1 0 -3 1h-1q-1 0 -1 2q-3 0 -4 1q-3 0 -4 1l-3 1q-4 1 -4 2q-3 2 -3 3v4v4q1 0 2 1t1 2l2 1h2q2 1 3 1h2h1q1 -1 2 -1
q4 0 4 -2q1 -1 2 -1h2q4 0 7 2l2 1q0 1 -1 2l-2 2q-2 1 -3 2t-3 2q-1 0 -2 1q-1 0 -3 2q-3 0 -3 1h-3h-4q-3 -1 -5 -1l-3 -3q-2 -1 -4 -1q-1 -2 -2 -3q-2 -2 -3 -4t-1 -3q-1 -2 -1 -5v-4q0 -2 2 -4q1 -2 3 -3q1 -2 1 -3l4 -2q2 -2 4 -2l4 -2q1 -1 3 -2q1 -1 3 -1h2
q3 -1 4 -1l1 -1l2 -1q0 -1 1 -3q1 -1 1 -2v-4v-1q0 -2 -1 -3l-1 -2q0 -1 -2 -2q-1 -2 -2 -2q-2 -1 -3 -2h-2h-3h-3h-3l-2 2q-2 0 -2 2l-1 1q-3 2 -6 2h-2q-1 0 -2 -1l-3 -1q0 -2 1 -2q0 -2 2 -3q0 -1 1 -2l1 -1h1q4 -4 9 -5q4 -1 9 -1h5q2 0 4 1t5 2q2 1 3 3q3 1 5 3z
M409 322q1 3 1 5v5q0 6 -1 10q0 3 -1 5q-2 2 -3 5q-2 3 -6 7q-2 2 -4 3t-5 4q-1 0 -3 1t-5 3q-3 0 -5 1h-5h-5q-3 -1 -5 -1q-3 -2 -5 -3t-4 -1q-2 -3 -4 -4t-4 -3l-3 -3q-2 -2 -3 -4q-2 -3 -2 -5q-1 -2 -2 -5q-1 -4 -1 -10q0 -4 1 -7l2 -8q1 -3 3 -6t5 -7l6 -4q3 -2 7 -2
q6 -3 14 -3h5h5q5 2 8 4q7 3 9 5q3 4 6 9q1 2 3 5zM487 370h-10v-58v3l-1 1l-36 51q-2 0 -4 3h-2h-2h-7v-75h10v61l1 -1v-2l43 -58h8v75zM571 295l-33 75h-11l-32 -75h6q3 0 4 1l2 2l2 1l4 13h39l5 -13q1 -2 3 -3q0 -1 4 -1h7zM620 304h-32v66h-11v-75h43v9zM722 370h-10
v-45v-5q0 -2 -1 -4q-1 -4 -5 -6l-2 -2q-2 -1 -3 -3q-3 -1 -4 -1h-4q-5 0 -7 1q-3 2 -5 3t-2 2q-1 1 -2 3l-3 3v4q-1 2 -1 5v45h-10v-45v-5q0 -3 1 -4q0 -4 2 -7q2 -5 6 -7q1 -1 3 -2q1 -1 3 -2q1 -1 3 -1q2 -1 3 -2q3 0 5 -1q1 -1 4 -1q2 0 4 1q1 1 4 1l4 2q1 0 3 1l6 4
q2 2 3 4q0 1 1 3l3 3q1 2 1 4v9v45zM780 308q3 4 3 8q0 6 -2 10t-6 7q-3 2 -3 3h-2q-2 0 -3 1h-1q-2 0 -3 2h-1q-1 0 -2 1q-1 0 -2 1l-3 1q-4 1 -4 2q-2 1 -2 2q-1 1 -2 1v2q-1 0 -1 2t2 4l3 3q1 0 2 1h2q0 1 5 1h1q1 -1 2 -1q1 -1 4 -2q4 -1 5 -1q3 0 4 2l3 1l-2 2l-2 2
q0 1 -1 2q-2 1 -3 2q-2 0 -3 1q-1 0 -3 2q-2 0 -3 1h-2h-5q-2 -1 -4 -1q-2 -2 -4 -3t-3 -1l-3 -3q-1 -2 -3 -4q0 -2 -1 -3q-1 -2 -1 -5t1 -4q1 -2 1 -4q2 -4 5 -6l4 -2q1 -2 2 -2q3 -1 5 -2q1 -1 3 -2t3 -1h2q1 -1 3 -1q1 0 2 -1t3 -1q1 -1 1 -3q1 -1 1 -2v-4v-1q0 -2 -1 -3
q-1 -3 -4 -4q-2 -2 -3 -2l-2 -2h-2h-3h-3h-3q-2 1 -5 4v1q-3 2 -6 2h-1q-2 0 -3 -1l-3 -1l1 -1q0 -1 1 -1q0 -1 1 -1v-2h1v-2q2 -1 3 -1q3 -4 8 -5q4 -1 9 -1h5q2 0 5 1l4 2q2 1 4 3l3 3zM841 370h-46v-75h46v9h-36v23h30v10h-30v22h36v11zM960 322v5v5v6v4q-2 5 -5 10
q-2 3 -6 7q-1 2 -3 3t-4 4q-2 0 -4 1q-3 1 -5 3q-3 0 -5 1h-5h-5q-3 -1 -5 -1q-6 -3 -10 -4q-2 -3 -3 -4q-2 -1 -4 -3l-3 -3l-4 -4q-1 -3 -2 -5t-1 -5q-2 -4 -2 -10q0 -4 1 -7l2 -8q3 -7 9 -13q2 -2 5 -4t7 -2q6 -3 15 -3h5h5q2 1 5 2l4 2q2 2 4 3t3 2q4 4 6 9zM1038 370
h-11v-58v3q-1 1 -2 1l-36 51v1q-1 0 -2 2h-2h-3h-8v-75h12v59l1 -1l42 -58h9v75zM1099 304h-32v66h-11v-75h43v9zM1159 370h-9q-2 0 -4 -2q-4 -2 -4 -4l-17 -23l-1 -1h-1l-1 1l-18 23q-1 2 -3 4t-5 2h-8l27 -37l1 -1q0 -1 1 -1v-1v-1q0 -1 1 -1v-1v-32h11v32v1v2q1 0 1 2v1
h1zM942 352l4 -4q2 -3 3 -5q0 -3 1 -5v-6q0 -6 -1 -11q-1 -3 -3 -5t-4 -3q-2 -2 -4 -3l-4 -4q-6 -2 -11 -2q-3 0 -6 1q-3 0 -5 1q-3 2 -5 4q-2 1 -4 3q-2 1 -3 3q-2 2 -2 5q-2 3 -2 6q-1 2 -1 5q0 5 3 11q0 2 2 5q1 2 3 4l4 4q2 1 5 2q4 2 11 2h5l6 -2l4 -2zM253 343
q0 -1 -2 -4q-1 0 -1 -1q-1 -1 -3 -1q-1 -1 -4 -1h-16v23h16q2 0 4 -1h3l1 -2l2 -4q1 -1 1 -5zM391 352l4 -4q2 -3 3 -5q1 -3 2 -5v-6v-5l-2 -6t-3 -5t-4 -3q-1 -2 -3 -3q-2 -2 -5 -4q-2 -1 -5 -1q-3 -1 -6 -1q-6 0 -11 2l-4 4q-3 1 -5 3l-3 3q-2 2 -3 5l-2 6q-1 2 -1 5
q0 5 3 11q1 2 3 5q2 2 3 4q2 2 5 4l4 2l6 2h5q6 0 11 -2q3 -1 5 -2zM532 358q0 -2 1 -3v-2l14 -31h-29l14 31v2v3zM132 356l2 -2q0 -2 1 -3q1 -2 1 -5v-2q0 -2 -1 -3t-1 -2q-1 -2 -2 -2l-4 -4h-5h-18v26h18q3 0 5 -1q1 0 3 -1zM580 422q-9 4 -18 10q-10 5 -17 12h157
q-8 -7 -17 -12q-9 -6 -19 -10q-10 -3 -21 -6t-22 -3q-12 0 -22 3zM557 457l154 155q14 -19 22 -39t8 -40q0 -11 -1 -21q-2 -11 -6 -21q-4 -9 -9 -17q-5 -9 -11 -17h-157zM534 453q-13 17 -22 36q-3 10 -5 21t-2 23q0 10 2 20t5 20q3 9 8 18q5 8 12 16h156zM666 642
q10 -4 19 -10t16 -11h-158q18 14 37 21q19 9 43 9zM38 171q-2 2 -2 4l-2 4q-1 3 -1 5q-1 2 -1 5t2 8q1 2 2 5q0 2 2 3l2 5q0 1 3 3q0 1 3 3q2 1 3 2q3 2 5 3l4 1q1 0 4 1h5h7q3 -1 7 -3q4 -1 7 -3l4 -4q-1 -1 -2 -1v-2h-1h-1h-2h-3q-2 1 -4 3q-2 1 -4 1h-3h-5h-5h-4l-6 -3
q-2 -2 -4 -3q-2 -3 -3 -5q-2 -2 -3 -4q-2 -3 -2 -6v-4q0 -4 1 -7l2 -4v-4q1 -1 3 -2q1 -1 2 -3q2 -1 3 -2q1 -2 3 -2q1 -1 3 -2t4 -1q1 -1 3 -1h3h5q2 0 4 1q2 0 5 1l4 2v14h-6h-1l-1 1l-1 2l-2 1v1q-1 0 -1 1v1v1h19v-26l-2 -2l-3 -3q-3 -1 -6 -1q-3 -1 -7 -1h-7h-5h-4
q-3 1 -4 2l-5 3q-1 0 -3 2q-3 1 -3 3q-3 1 -3 3zM117 214v-22h27v-7h-27v-23h33v-8h-41v68h41v-8h-33zM180 154v60h-22v8h52v-8h-23v-60h-7zM260 214v-24h29v-6h-29v-30h-8v68h41v-8h-33zM313 222v-42q0 -2 1 -3q1 -2 2 -3q1 -3 3 -4l2 -4q0 -1 2 -2l2 -2q3 -1 5 -1h4h4
q1 0 2 1q3 1 5 2q1 1 3 2q0 2 2 4q1 1 2 4q2 2 2 6v42h7v-42v-5q-1 -2 -2 -5t-2 -5l-4 -4t-4 -3q-2 -2 -4 -3q-6 -1 -11 -1q-6 0 -12 1l-3 3q-3 1 -5 3q-3 3 -5 9q-1 3 -2 5t-1 5v42h7zM383 222v-60h30v-8h-38v68h8zM428 222v-60h32v-8h-39v68h7zM522 154l-30 68h4q2 0 4 -1
q1 -1 2 -1l1 -2l21 -51v-2q1 -1 1 -3v3l1 1v1q3 7 6 13l6 12q2 8 5 14l6 12q0 2 1 2t1 1q1 1 2 1h2h4q-4 -8 -7 -16q-4 -9 -9 -17q-3 -10 -6 -18q-4 -8 -8 -17h-7zM572 214v-22h28v-7h-28v-23h33v-8h-41v68h41v-8h-33zM655 186q-1 -1 -5 -2l23 -30h-5q-1 0 -2 1h-2l-2 2
q-1 0 -2 2l-19 25h-12v-30h-7v68h25h3q1 0 3 -1q4 -1 7 -4q1 -2 2 -3l2 -4q1 -1 1 -3v-3v-4q0 -2 -1 -3q0 -2 -1 -4t-2 -3l-2 -2zM647 190q2 0 3 2q1 0 2 1h2l2 3q0 1 1 2q0 1 1 2v4v1q-1 1 -1 3l-1 2q-1 0 -2 2q-1 0 -2 1q-1 0 -2 1h-3h-18v-24h18zM709 164q1 1 2 4
q1 1 2 3v3q0 3 -1 5q-1 0 -1 2l-2 2t-4 2q-2 0 -3 1l-3 1q-2 0 -4 1t-2 2q-5 0 -7 3q-2 0 -2 2q-1 2 -2 3v7v5q0 1 1 3q0 3 4 5l3 3q1 0 4 1q2 0 3 1h4h3q1 -1 2 -1h2l3 -2q1 0 2 -1t1 -2q2 -1 3 -2q0 -1 1 -1l-2 -1q-1 -1 -4 -1h-3q-2 1 -2 2h-1h-1h-1h-1h-1h-1h-4
q-4 0 -4 -1q-3 -3 -3 -4q-2 0 -2 -4q0 -3 2 -3q0 -2 1 -3t3 -1l1 -1q2 -2 3 -2t4 -2h2q1 0 1 -1h2q1 0 2 -2h1h1v0h2l1 -1l3 -3q1 -2 3 -3q1 -5 1 -9v-5q0 -2 -3 -4q0 -3 -4 -6q-1 -1 -3 -2l-4 -2q-2 -1 -4 -1h-5q-5 0 -8 1q-4 1 -7 4q-1 0 -2 1l-2 2v2l-1 1l1 1l1 1h2h1h2
l2 -2q2 -1 3 -2t3 -1q0 -1 2 -1h3q4 0 5 1zM744 222v-68h-8v68h8zM771 164q-6 4 -9 10q-2 7 -2 15v4v4q3 5 4 8q3 4 7 8q3 3 6 5q2 2 5 3q2 0 4 1q2 0 4 1h5h5q2 -1 5 -1q2 -1 4 -1q2 -1 4 -3l3 -2q1 -2 3 -3l3 -3l3 -5q1 -3 3 -8l2 -4v-4q0 -4 -1 -7q-1 -4 -3 -8
q-1 -3 -2 -5q-2 -3 -5 -5q-3 -3 -5 -4l-6 -4q-5 -2 -13 -2q-4 0 -7 1q-4 0 -6 1zM771 199q-2 -3 -3 -6t-1 -4q0 -2 1 -4v-3q1 -4 4 -8q0 -1 1 -2t2 -3l3 -2q1 -2 4 -2q1 -1 3 -2q1 -1 2 -1q2 -1 4 -1h4h4q2 0 3 1q1 0 3 1l4 2q1 0 3 2l2 2q1 2 2 3l2 2l2 4l1 4q0 1 1 3v4v4
q-1 3 -3 6q0 2 -2 4t-3 5q-2 1 -4 3q-2 1 -5 3h-4h-6h-6h-5q-2 -2 -4 -3q-3 -2 -5 -3q-1 -3 -2 -5zM850 154h-8v68h6h3q1 0 2 -2l35 -50q1 0 1 -2l1 -1v55h8v-68h-7l-40 56v2h-1v-58zM955 214v-24h28v-6h-28v-30h-7v68h41v-8h-34zM1032 186q-4 -1 -6 -2l22 -30h-6q-2 0 -4 1
v2q-1 0 -2 2l-19 25h-12v-30h-8v68h25h3q2 0 4 -1l4 -2l2 -2q1 -2 2 -3q1 -2 3 -4q0 -1 1 -3v-3v-4q-1 -2 -1 -3l-2 -4q-1 -2 -1 -3zM1026 192q1 0 2 1h1q3 4 3 5q1 2 1 6q0 1 -1 4q0 1 -3 4q-1 0 -1 1l-2 1h-4h-17v-24h17zM1114 164q-2 -3 -5 -4l-6 -4q-3 -1 -6 -1
q-3 -1 -7 -1t-7 1q-4 0 -7 1q-6 2 -11 8q-2 2 -4 5q-2 2 -3 5l-2 8q-2 3 -2 7q0 1 1 4q0 2 1 4t2 5q0 2 1 3q2 3 4 5q1 1 2 3q2 1 4 3l4 2q2 2 4 3q2 0 4 1q3 0 5 1h4h5q2 -1 4 -1l5 -1l3 -3l4 -2l3 -3q1 -2 3 -3q1 -2 2 -5q3 -3 4 -8l2 -4v-4v-7q-1 -4 -3 -8q-1 -3 -3 -5z
M1090 161h4q2 0 4 1q1 0 3 1l2 2q1 0 3 2l4 2l2 3q0 1 1 2l2 4v4q1 1 1 3v4v4q-1 3 -1 6l-2 4q-2 2 -3 5q-3 1 -5 3q-3 1 -5 3h-5h-5h-5h-6q-3 -2 -4 -3q-2 -2 -4 -3q-3 -3 -4 -5l-2 -4q-1 -3 -1 -6v-4v-7q0 -3 1 -4q0 -2 2 -4q0 -1 2 -2q1 -1 2 -3l3 -2q1 -2 2 -2
q1 -1 3 -2q1 -1 4 -1q1 -1 3 -1h4zM1201 221q1 1 2 1h1h6v-68h-7v56l-1 -1v-1q-2 -4 -3 -8q-1 -5 -3 -8t-3 -6l-4 -7q-1 -4 -2 -7l-2 -6q-2 -3 -3 -5q-2 -3 -3 -7h-7q-5 6 -7 13q-3 7 -6 13q-2 7 -5 14q-4 7 -6 14v1l-2 1v-56h-8v68h7q3 0 4 -1l1 -1v-2l24 -53q0 -1 1 -1v-2
q0 1 1 2v2q0 2 2 4l21 48q0 2 1 2zM36 128h77v-10v-2v-2q0 -2 -1 -3l-2 -2l-52 -71h1v1h2h1h51v-18h-81v6q0 5 1 6q0 1 2 4q1 1 1 2t1 2l2 2l1 3l46 63h-50v19zM127 128h68v-19h-49v-24h39v-20h-39v-26h49v-18h-68v107zM279 109h-29v-88h-21v88h-31v19h81v-19zM328 128
l46 -107h-12q-4 0 -8 2q-2 1 -2 3q-1 2 -3 4l-6 14h-49l-5 -14l-1 -2q-1 -1 -2 -1v-2q-1 -1 -3 -2h-2q-1 -1 -2 -1q0 -1 -1 -1h-2h-12l46 107h18zM334 63l-13 33v2q-1 0 -1 1q0 2 -1 3v-3q0 -1 -1 -1q-1 -1 -1 -2l-13 -33h30zM378 128h68v-19h-49v-27h40v-19h-40v-42h-19
v107zM553 101q2 -3 3 -6t3 -6q1 -4 1 -7v-7v-8q0 -4 -1 -7q-2 -3 -3 -6q-1 -4 -3 -7q-2 -2 -4 -5l-4 -6q-4 -2 -6 -4q-2 -3 -5 -4q-3 -3 -6 -4q-4 -1 -7 -2q-4 -1 -7 -1q-4 -1 -8 -1q-5 0 -10 2q-6 1 -11 2q-6 3 -9 6q-4 3 -9 6q-7 8 -10 17q-3 6 -4 11t-1 11q0 3 1 7
q0 3 1 7q2 8 6 12q2 4 4 7q1 2 3 5q4 2 7 4q2 2 5 4t6 3t7 3q3 0 7 1h7h8q3 -1 7 -1q3 -2 7 -3q3 -1 6 -3t5 -4t6 -4q2 -3 4 -5zM539 62l2 6v7q0 6 -2 12q-2 5 -4 8q-2 2 -5 4l-4 4q-3 2 -6 3q-6 3 -14 3t-14 -3q-2 -1 -4 -3l-6 -4t-4 -4q-2 -3 -4 -8q-2 -2 -2 -5v-7v-7
q0 -3 2 -6l4 -7q1 -3 4 -5l6 -4l4 -4q4 -1 7 -2t7 -1t7 1t7 2l6 4l4 4q3 2 5 5zM649 128h19v-107h-18l-50 72q-1 0 -1 1l-1 1q-1 2 -1 3q-2 0 -2 2v1l-2 1v-81h-19v107h17h4q2 -1 2 -2l3 -1l2 -2q5 -8 11 -15q5 -8 10 -17l12 -14q5 -8 12 -15q0 -2 1 -3v-3q0 -1 1 -2v-2v76z
M678 128h81v-19h-32v-88h-19v88h-30v19zM825 73q1 -2 3 -4l2 -4q0 -2 1 -4q1 -3 1 -7q0 -6 -3 -13l-4 -6q-2 -3 -4 -5q-4 -2 -6 -4t-6 -3t-7 -2q-4 -1 -7 -1q-4 0 -7 1q-4 1 -9 2q-3 1 -5 3q-3 2 -7 6q-2 1 -3 3q-1 1 -2 3q-2 1 -2 6l1 1l1 1q1 0 1 1h1t2 1h1h5h2q1 0 1 -1
q3 0 5 -1q2 -2 4 -3t3 -2q1 0 3 -1t5 -1q1 0 3 1q1 0 3 1q3 1 6 3l4 4q1 2 2 3t1 3q0 4 -3 6q-2 3 -4 3l-3 3h-3q-3 1 -8 4q-2 0 -4 1q-3 0 -5 2q-4 1 -6 3q-2 1 -4 3q-3 2 -4 4q-2 2 -3 4q-3 6 -3 12q0 9 3 13q1 3 3 5t5 4q2 2 5 3l6 3q2 0 5 1h7h4q2 -1 5 -1l4 -2
q1 -1 4 -2q1 -1 3 -2l4 -4l3 -2l2 -4l-4 -2l-2 -2q-2 -1 -2 -2h-4h-2h-2h-1q-3 0 -3 1l-4 2q-1 0 -1 1h-1h-3h-6h-2q-1 -1 -3 -2q-1 -1 -2 -4q-1 -1 -1 -4t1 -3l2 -2v-3h4q1 -1 2 -1l6 -2q2 -1 3 -2l5 -1q2 -2 5 -2q2 -1 5 -4zM857 39q3 0 3 -3q1 0 1 -1v-3q0 -3 -1 -5
q0 -2 -3 -4q-2 0 -3 -2h-2q-1 -1 -3 -1q-1 0 -2 1h-2l-2 2h-2q-1 1 -1 2l-2 2q-1 2 -1 5v3q0 1 1 1q1 2 2 3h1q3 3 4 3l2 2h2h3l2 -2zM898 99q-4 -4 -8 -12q-1 -2 -2 -5q-1 -4 -1 -7q0 -4 1 -7l2 -6l4 -7q1 -3 4 -5q2 -2 5 -4q2 -2 6 -4q4 -1 7 -2t7 -1q3 0 5 1t5 1q2 1 5 3
q2 1 4 3q2 0 4 1h3h3q2 0 3 -1q3 -1 5 -3l3 -5q-3 -4 -8 -7q-3 -2 -5 -3q-2 -2 -5 -3q-3 -2 -5 -2l-6 -2t-5 -1q-3 -1 -6 -1q-7 0 -12 2l-10 2q-10 5 -17 12q-8 8 -12 17q-1 6 -2 11q-2 5 -2 11q0 3 1 7q0 3 1 7l2 6q1 3 3 6q3 4 5 7q1 2 4 5l6 4q2 2 6 4q2 2 5 3t8 3
q2 0 6 1h8h6q2 0 5 -1l6 -2q2 -1 5 -2t5 -2q2 -2 5 -4q5 -4 8 -8l-3 -4l-2 -2q-1 -1 -3 -2h-3h-3h-3q-2 0 -4 1l-4 4q-3 1 -5 2q-3 1 -5 1h-5q-8 0 -14 -3q-4 -1 -6 -3zM1072 101q1 -3 3 -6l2 -6q1 -4 1 -7v-7v-8q0 -4 -1 -7l-2 -6q-2 -4 -3 -7q-4 -5 -8 -11q-4 -2 -7 -4
q-3 -3 -5 -4q-3 -3 -6 -4l-8 -2q-3 -1 -6 -1q-4 -1 -8 -1q-10 0 -21 4l-8 6q-5 3 -8 6q-4 4 -7 8t-5 9q-2 6 -3 11t-1 11q0 3 1 7v7q1 3 3 6t3 6q2 4 4 7l5 5q2 2 5 4l6 4q2 2 6 3q3 1 6 3q4 0 8 1h6h8q3 -1 6 -1q4 -2 8 -3q3 -1 6 -3q2 -2 5 -4t7 -4q1 -3 4 -5zM1057 62
q2 5 2 13v7q-1 3 -2 5q-2 5 -3 8l-4 4q-5 5 -12 7q-3 2 -6 3h-8q-7 0 -13 -3q-3 -1 -5 -3l-6 -4l-4 -4q-2 -3 -4 -8q-1 -2 -1 -5q-1 -4 -1 -7q0 -4 1 -7q0 -3 1 -6q4 -8 8 -12l6 -4q2 -2 5 -4q3 -1 7 -2t6 -1q4 0 8 1l6 2q3 2 7 4q3 2 5 4zM1188 127l1 1h2h19v-107h-19v78
v-2l-2 -3v-3q0 -1 -1 -2q-3 -9 -7 -17q-4 -9 -7 -17l-6 -16q-4 -9 -7 -18h-19l-27 68q-1 1 -1 5q-1 2 -1 3q-1 0 -1 1v-77h-20v107h19h3l1 -1q2 -1 3 -1l1 -1l3 -2l2 -2q1 -1 1 -2q2 -8 6 -15q3 -8 6 -17q3 -8 7 -16l6 -16v-1v-2v-2q2 0 2 -2v2v2q0 1 1 2v1l4 8l22 56
q0 1 1 2v2q1 1 3 2h1q1 1 2 1z" />
    <glyph glyph-name="one" unicode="1" horiz-adv-x="1236" 
d="M1210 533v-286h-1174v286h445q0 15 3 29q2 13 8 26t14 25q7 12 18 21q18 19 44 30q14 6 28 9q13 2 27 2q16 0 30 -3t26 -9q14 -6 26 -14q11 -8 20 -17q18 -18 30 -46q10 -26 10 -53h445zM503 582q-11 -23 -11 -49q0 -28 11 -51q5 -11 12 -22t15 -20q9 -9 20 -16
q10 -7 22 -12q23 -11 51 -11q14 0 27 2q12 2 24 7q12 6 22 13q10 6 19 16q9 9 16 20q7 10 13 21q11 25 11 53q0 11 -2 23q-2 11 -7 21q-6 20 -20 37q-7 8 -15 15t-16 12l-18 10l-20 8q-7 2 -15 3q-9 1 -19 1q-14 0 -27 -2q-13 -3 -25 -9q-24 -9 -42 -28q-8 -9 -14 -20z
M144 337q3 5 3 9v5q-1 2 -3 5q0 1 -2 3l-3 3l-2 4q-2 1 -5 1l-4 2q-3 1 -5 1h-26v-75h8v28h18q2 0 5 1q2 0 4 1q5 2 7 4q1 2 3 4zM200 370h-46v-75h46v9h-35v23h29v10h-29v22h35v11zM273 295l-23 32q1 1 3 1q1 0 2 2q4 2 5 5q1 1 2 3q1 1 2 3v6v5q0 2 -1 4q-2 4 -5 7
q-2 4 -7 4q-1 1 -3 2q-3 1 -5 1h-27v-75h11v31h11l20 -27q1 -2 3 -3q1 -1 2 -1h3h7zM324 308q0 2 1 4v4q0 6 -2 10t-6 7q-1 0 -1 1q-1 1 -3 2v0q-1 0 -3 1h-1q-1 0 -1 2q-3 0 -4 1q-3 0 -4 1l-3 1q-4 1 -4 2q-3 2 -3 3v4v4q1 0 2 1t1 2l2 1h2q2 1 3 1h2h1q1 -1 2 -1
q4 0 4 -2q1 -1 2 -1h2q4 0 7 2l2 1q0 1 -1 2l-2 2q-2 1 -3 2t-3 2q-1 0 -2 1q-1 0 -3 2q-3 0 -3 1h-3h-4q-3 -1 -5 -1l-3 -3q-2 -1 -4 -1q-1 -2 -2 -3q-2 -2 -3 -4t-1 -3q-1 -2 -1 -5v-4q0 -2 2 -4q1 -2 3 -3q1 -2 1 -3l4 -2q2 -2 4 -2l4 -2q1 -1 3 -2q1 -1 3 -1h2
q3 -1 4 -1l1 -1l2 -1q0 -1 1 -3q1 -1 1 -2v-4v-1q0 -2 -1 -3l-1 -2q0 -1 -2 -2q-1 -2 -2 -2q-2 -1 -3 -2h-2h-3h-3h-3l-2 2q-2 0 -2 2l-1 1q-3 2 -6 2h-2q-1 0 -2 -1l-3 -1q0 -2 1 -2q0 -2 2 -3q0 -1 1 -2l1 -1h1q4 -4 9 -5q4 -1 9 -1h5q2 0 4 1t5 2q2 1 3 3q3 1 5 3z
M409 322q1 3 1 5v5q0 6 -1 10q0 3 -1 5q-2 2 -3 5q-2 3 -6 7q-2 2 -4 3t-5 4q-1 0 -3 1t-5 3q-3 0 -5 1h-5h-5q-3 -1 -5 -1q-3 -2 -5 -3t-4 -1q-2 -3 -4 -4t-4 -3l-3 -3q-2 -2 -3 -4q-2 -3 -2 -5q-1 -2 -2 -5q-1 -4 -1 -10q0 -4 1 -7l2 -8q1 -3 3 -6t5 -7l6 -4q3 -2 7 -2
q6 -3 14 -3h5h5q5 2 8 4q7 3 9 5q3 4 6 9q1 2 3 5zM487 370h-10v-58v3l-1 1l-36 51q-2 0 -4 3h-2h-2h-7v-75h10v61l1 -1v-2l43 -58h8v75zM571 295l-33 75h-11l-32 -75h6q3 0 4 1l2 2l2 1l4 13h39l5 -13q1 -2 3 -3q0 -1 4 -1h7zM620 304h-32v66h-11v-75h43v9zM722 370h-10
v-45v-5q0 -2 -1 -4q-1 -4 -5 -6l-2 -2q-2 -1 -3 -3q-3 -1 -4 -1h-4q-5 0 -7 1q-3 2 -5 3t-2 2q-1 1 -2 3l-3 3v4q-1 2 -1 5v45h-10v-45v-5q0 -3 1 -4q0 -4 2 -7q2 -5 6 -7q1 -1 3 -2q1 -1 3 -2q1 -1 3 -1q2 -1 3 -2q3 0 5 -1q1 -1 4 -1q2 0 4 1q1 1 4 1l4 2q1 0 3 1l6 4
q2 2 3 4q0 1 1 3l3 3q1 2 1 4v9v45zM780 308q3 4 3 8q0 6 -2 10t-6 7q-3 2 -3 3h-2q-2 0 -3 1h-1q-2 0 -3 2h-1q-1 0 -2 1q-1 0 -2 1l-3 1q-4 1 -4 2q-2 1 -2 2q-1 1 -2 1v2q-1 0 -1 2t2 4l3 3q1 0 2 1h2q0 1 5 1h1q1 -1 2 -1q1 -1 4 -2q4 -1 5 -1q3 0 4 2l3 1l-2 2l-2 2
q0 1 -1 2q-2 1 -3 2q-2 0 -3 1q-1 0 -3 2q-2 0 -3 1h-2h-5q-2 -1 -4 -1q-2 -2 -4 -3t-3 -1l-3 -3q-1 -2 -3 -4q0 -2 -1 -3q-1 -2 -1 -5t1 -4q1 -2 1 -4q2 -4 5 -6l4 -2q1 -2 2 -2q3 -1 5 -2q1 -1 3 -2t3 -1h2q1 -1 3 -1q1 0 2 -1t3 -1q1 -1 1 -3q1 -1 1 -2v-4v-1q0 -2 -1 -3
q-1 -3 -4 -4q-2 -2 -3 -2l-2 -2h-2h-3h-3h-3q-2 1 -5 4v1q-3 2 -6 2h-1q-2 0 -3 -1l-3 -1l1 -1q0 -1 1 -1q0 -1 1 -1v-2h1v-2q2 -1 3 -1q3 -4 8 -5q4 -1 9 -1h5q2 0 5 1l4 2q2 1 4 3l3 3zM841 370h-46v-75h46v9h-36v23h30v10h-30v22h36v11zM960 322v5v5v6v4q-2 5 -5 10
q-2 3 -6 7q-1 2 -3 3t-4 4q-2 0 -4 1q-3 1 -5 3q-3 0 -5 1h-5h-5q-3 -1 -5 -1q-6 -3 -10 -4q-2 -3 -3 -4q-2 -1 -4 -3l-3 -3l-4 -4q-1 -3 -2 -5t-1 -5q-2 -4 -2 -10q0 -4 1 -7l2 -8q3 -7 9 -13q2 -2 5 -4t7 -2q6 -3 15 -3h5h5q2 1 5 2l4 2q2 2 4 3t3 2q4 4 6 9zM1038 370
h-11v-58v3q-1 1 -2 1l-36 51v1q-1 0 -2 2h-2h-3h-8v-75h12v59l1 -1l42 -58h9v75zM1099 304h-32v66h-11v-75h43v9zM1159 370h-9q-2 0 -4 -2q-4 -2 -4 -4l-17 -23l-1 -1h-1l-1 1l-18 23q-1 2 -3 4t-5 2h-8l27 -37l1 -1q0 -1 1 -1v-1v-1q0 -1 1 -1v-1v-32h11v32v1v2q1 0 1 2v1
h1zM942 352l4 -4q2 -3 3 -5q0 -3 1 -5v-6q0 -6 -1 -11q-1 -3 -3 -5t-4 -3q-2 -2 -4 -3l-4 -4q-6 -2 -11 -2q-3 0 -6 1q-3 0 -5 1q-3 2 -5 4q-2 1 -4 3q-2 1 -3 3q-2 2 -2 5q-2 3 -2 6q-1 2 -1 5q0 5 3 11q0 2 2 5q1 2 3 4l4 4q2 1 5 2q4 2 11 2h5l6 -2l4 -2zM253 343
q0 -1 -2 -4q-1 0 -1 -1q-1 -1 -3 -1q-1 -1 -4 -1h-16v23h16q2 0 4 -1h3l1 -2l2 -4q1 -1 1 -5zM391 352l4 -4q2 -3 3 -5q1 -3 2 -5v-6v-5l-2 -6t-3 -5t-4 -3q-1 -2 -3 -3q-2 -2 -5 -4q-2 -1 -5 -1q-3 -1 -6 -1q-6 0 -11 2l-4 4q-3 1 -5 3l-3 3q-2 2 -3 5l-2 6q-1 2 -1 5
q0 5 3 11q1 2 3 5q2 2 3 4q2 2 5 4l4 2l6 2h5q6 0 11 -2q3 -1 5 -2zM532 358q0 -2 1 -3v-2l14 -31h-29l14 31v2v3zM132 356l2 -2q0 -2 1 -3q1 -2 1 -5v-2q0 -2 -1 -3t-1 -2q-1 -2 -2 -2l-4 -4h-5h-18v26h18q3 0 5 -1q1 0 3 -1zM580 422q-9 4 -18 10q-10 5 -17 12h157
q-8 -7 -17 -12q-9 -6 -19 -10q-10 -3 -21 -6t-22 -3q-12 0 -22 3zM557 457l154 155q14 -19 22 -39t8 -40q0 -11 -1 -21q-2 -11 -6 -21q-4 -9 -9 -17q-5 -9 -11 -17h-157zM534 453q-13 17 -22 36q-3 10 -5 21t-2 23q0 10 2 20t5 20q3 9 8 18q5 8 12 16h156zM666 642
q10 -4 19 -10t16 -11h-158q18 14 37 21q19 9 43 9zM38 171q-2 2 -2 4l-2 4q-1 3 -1 5q-1 2 -1 5t2 8q1 2 2 5q0 2 2 3l2 5q0 1 3 3q0 1 3 3q2 1 3 2q3 2 5 3l4 1q1 0 4 1h5h7q3 -1 7 -3q4 -1 7 -3l4 -4q-1 -1 -2 -1v-2h-1h-1h-2h-3q-2 1 -4 3q-2 1 -4 1h-3h-5h-5h-4l-6 -3
q-2 -2 -4 -3q-2 -3 -3 -5q-2 -2 -3 -4q-2 -3 -2 -6v-4q0 -4 1 -7l2 -4v-4q1 -1 3 -2q1 -1 2 -3q2 -1 3 -2q1 -2 3 -2q1 -1 3 -2t4 -1q1 -1 3 -1h3h5q2 0 4 1q2 0 5 1l4 2v14h-6h-1l-1 1l-1 2l-2 1v1q-1 0 -1 1v1v1h19v-26l-2 -2l-3 -3q-3 -1 -6 -1q-3 -1 -7 -1h-7h-5h-4
q-3 1 -4 2l-5 3q-1 0 -3 2q-3 1 -3 3q-3 1 -3 3zM117 214v-22h27v-7h-27v-23h33v-8h-41v68h41v-8h-33zM180 154v60h-22v8h52v-8h-23v-60h-7zM260 214v-24h29v-6h-29v-30h-8v68h41v-8h-33zM313 222v-42q0 -2 1 -3q1 -2 2 -3q1 -3 3 -4l2 -4q0 -1 2 -2l2 -2q3 -1 5 -1h4h4
q1 0 2 1q3 1 5 2q1 1 3 2q0 2 2 4q1 1 2 4q2 2 2 6v42h7v-42v-5q-1 -2 -2 -5t-2 -5l-4 -4t-4 -3q-2 -2 -4 -3q-6 -1 -11 -1q-6 0 -12 1l-3 3q-3 1 -5 3q-3 3 -5 9q-1 3 -2 5t-1 5v42h7zM383 222v-60h30v-8h-38v68h8zM428 222v-60h32v-8h-39v68h7zM522 154l-30 68h4q2 0 4 -1
q1 -1 2 -1l1 -2l21 -51v-2q1 -1 1 -3v3l1 1v1q3 7 6 13l6 12q2 8 5 14l6 12q0 2 1 2t1 1q1 1 2 1h2h4q-4 -8 -7 -16q-4 -9 -9 -17q-3 -10 -6 -18q-4 -8 -8 -17h-7zM572 214v-22h28v-7h-28v-23h33v-8h-41v68h41v-8h-33zM655 186q-1 -1 -5 -2l23 -30h-5q-1 0 -2 1h-2l-2 2
q-1 0 -2 2l-19 25h-12v-30h-7v68h25h3q1 0 3 -1q4 -1 7 -4q1 -2 2 -3l2 -4q1 -1 1 -3v-3v-4q0 -2 -1 -3q0 -2 -1 -4t-2 -3l-2 -2zM647 190q2 0 3 2q1 0 2 1h2l2 3q0 1 1 2q0 1 1 2v4v1q-1 1 -1 3l-1 2q-1 0 -2 2q-1 0 -2 1q-1 0 -2 1h-3h-18v-24h18zM709 164q1 1 2 4
q1 1 2 3v3q0 3 -1 5q-1 0 -1 2l-2 2t-4 2q-2 0 -3 1l-3 1q-2 0 -4 1t-2 2q-5 0 -7 3q-2 0 -2 2q-1 2 -2 3v7v5q0 1 1 3q0 3 4 5l3 3q1 0 4 1q2 0 3 1h4h3q1 -1 2 -1h2l3 -2q1 0 2 -1t1 -2q2 -1 3 -2q0 -1 1 -1l-2 -1q-1 -1 -4 -1h-3q-2 1 -2 2h-1h-1h-1h-1h-1h-1h-4
q-4 0 -4 -1q-3 -3 -3 -4q-2 0 -2 -4q0 -3 2 -3q0 -2 1 -3t3 -1l1 -1q2 -2 3 -2t4 -2h2q1 0 1 -1h2q1 0 2 -2h1h1v0h2l1 -1l3 -3q1 -2 3 -3q1 -5 1 -9v-5q0 -2 -3 -4q0 -3 -4 -6q-1 -1 -3 -2l-4 -2q-2 -1 -4 -1h-5q-5 0 -8 1q-4 1 -7 4q-1 0 -2 1l-2 2v2l-1 1l1 1l1 1h2h1h2
l2 -2q2 -1 3 -2t3 -1q0 -1 2 -1h3q4 0 5 1zM744 222v-68h-8v68h8zM771 164q-6 4 -9 10q-2 7 -2 15v4v4q3 5 4 8q3 4 7 8q3 3 6 5q2 2 5 3q2 0 4 1q2 0 4 1h5h5q2 -1 5 -1q2 -1 4 -1q2 -1 4 -3l3 -2q1 -2 3 -3l3 -3l3 -5q1 -3 3 -8l2 -4v-4q0 -4 -1 -7q-1 -4 -3 -8
q-1 -3 -2 -5q-2 -3 -5 -5q-3 -3 -5 -4l-6 -4q-5 -2 -13 -2q-4 0 -7 1q-4 0 -6 1zM771 199q-2 -3 -3 -6t-1 -4q0 -2 1 -4v-3q1 -4 4 -8q0 -1 1 -2t2 -3l3 -2q1 -2 4 -2q1 -1 3 -2q1 -1 2 -1q2 -1 4 -1h4h4q2 0 3 1q1 0 3 1l4 2q1 0 3 2l2 2q1 2 2 3l2 2l2 4l1 4q0 1 1 3v4v4
q-1 3 -3 6q0 2 -2 4t-3 5q-2 1 -4 3q-2 1 -5 3h-4h-6h-6h-5q-2 -2 -4 -3q-3 -2 -5 -3q-1 -3 -2 -5zM850 154h-8v68h6h3q1 0 2 -2l35 -50q1 0 1 -2l1 -1v55h8v-68h-7l-40 56v2h-1v-58zM955 214v-24h28v-6h-28v-30h-7v68h41v-8h-34zM1032 186q-4 -1 -6 -2l22 -30h-6q-2 0 -4 1
v2q-1 0 -2 2l-19 25h-12v-30h-8v68h25h3q2 0 4 -1l4 -2l2 -2q1 -2 2 -3q1 -2 3 -4q0 -1 1 -3v-3v-4q-1 -2 -1 -3l-2 -4q-1 -2 -1 -3zM1026 192q1 0 2 1h1q3 4 3 5q1 2 1 6q0 1 -1 4q0 1 -3 4q-1 0 -1 1l-2 1h-4h-17v-24h17zM1114 164q-2 -3 -5 -4l-6 -4q-3 -1 -6 -1
q-3 -1 -7 -1t-7 1q-4 0 -7 1q-6 2 -11 8q-2 2 -4 5q-2 2 -3 5l-2 8q-2 3 -2 7q0 1 1 4q0 2 1 4t2 5q0 2 1 3q2 3 4 5q1 1 2 3q2 1 4 3l4 2q2 2 4 3q2 0 4 1q3 0 5 1h4h5q2 -1 4 -1l5 -1l3 -3l4 -2l3 -3q1 -2 3 -3q1 -2 2 -5q3 -3 4 -8l2 -4v-4v-7q-1 -4 -3 -8q-1 -3 -3 -5z
M1090 161h4q2 0 4 1q1 0 3 1l2 2q1 0 3 2l4 2l2 3q0 1 1 2l2 4v4q1 1 1 3v4v4q-1 3 -1 6l-2 4q-2 2 -3 5q-3 1 -5 3q-3 1 -5 3h-5h-5h-5h-6q-3 -2 -4 -3q-2 -2 -4 -3q-3 -3 -4 -5l-2 -4q-1 -3 -1 -6v-4v-7q0 -3 1 -4q0 -2 2 -4q0 -1 2 -2q1 -1 2 -3l3 -2q1 -2 2 -2
q1 -1 3 -2q1 -1 4 -1q1 -1 3 -1h4zM1201 221q1 1 2 1h1h6v-68h-7v56l-1 -1v-1q-2 -4 -3 -8q-1 -5 -3 -8t-3 -6l-4 -7q-1 -4 -2 -7l-2 -6q-2 -3 -3 -5q-2 -3 -3 -7h-7q-5 6 -7 13q-3 7 -6 13q-2 7 -5 14q-4 7 -6 14v1l-2 1v-56h-8v68h7q3 0 4 -1l1 -1v-2l24 -53q0 -1 1 -1v-2
q0 1 1 2v2q0 2 2 4l21 48q0 2 1 2zM36 128h77v-10v-2v-2q0 -2 -1 -3l-2 -2l-52 -71h1v1h2h1h51v-18h-81v6q0 5 1 6q0 1 2 4q1 1 1 2t1 2l2 2l1 3l46 63h-50v19zM127 128h68v-19h-49v-24h39v-20h-39v-26h49v-18h-68v107zM279 109h-29v-88h-21v88h-31v19h81v-19zM328 128
l46 -107h-12q-4 0 -8 2q-2 1 -2 3q-1 2 -3 4l-6 14h-49l-5 -14l-1 -2q-1 -1 -2 -1v-2q-1 -1 -3 -2h-2q-1 -1 -2 -1q0 -1 -1 -1h-2h-12l46 107h18zM334 63l-13 33v2q-1 0 -1 1q0 2 -1 3v-3q0 -1 -1 -1q-1 -1 -1 -2l-13 -33h30zM378 128h68v-19h-49v-27h40v-19h-40v-42h-19
v107zM553 101q2 -3 3 -6t3 -6q1 -4 1 -7v-7v-8q0 -4 -1 -7q-2 -3 -3 -6q-1 -4 -3 -7q-2 -2 -4 -5l-4 -6q-4 -2 -6 -4q-2 -3 -5 -4q-3 -3 -6 -4q-4 -1 -7 -2q-4 -1 -7 -1q-4 -1 -8 -1q-5 0 -10 2q-6 1 -11 2q-6 3 -9 6q-4 3 -9 6q-7 8 -10 17q-3 6 -4 11t-1 11q0 3 1 7
q0 3 1 7q2 8 6 12q2 4 4 7q1 2 3 5q4 2 7 4q2 2 5 4t6 3t7 3q3 0 7 1h7h8q3 -1 7 -1q3 -2 7 -3q3 -1 6 -3t5 -4t6 -4q2 -3 4 -5zM539 62l2 6v7q0 6 -2 12q-2 5 -4 8q-2 2 -5 4l-4 4q-3 2 -6 3q-6 3 -14 3t-14 -3q-2 -1 -4 -3l-6 -4t-4 -4q-2 -3 -4 -8q-2 -2 -2 -5v-7v-7
q0 -3 2 -6l4 -7q1 -3 4 -5l6 -4l4 -4q4 -1 7 -2t7 -1t7 1t7 2l6 4l4 4q3 2 5 5zM649 128h19v-107h-18l-50 72q-1 0 -1 1l-1 1q-1 2 -1 3q-2 0 -2 2v1l-2 1v-81h-19v107h17h4q2 -1 2 -2l3 -1l2 -2q5 -8 11 -15q5 -8 10 -17l12 -14q5 -8 12 -15q0 -2 1 -3v-3q0 -1 1 -2v-2v76z
M678 128h81v-19h-32v-88h-19v88h-30v19zM825 73q1 -2 3 -4l2 -4q0 -2 1 -4q1 -3 1 -7q0 -6 -3 -13l-4 -6q-2 -3 -4 -5q-4 -2 -6 -4t-6 -3t-7 -2q-4 -1 -7 -1q-4 0 -7 1q-4 1 -9 2q-3 1 -5 3q-3 2 -7 6q-2 1 -3 3q-1 1 -2 3q-2 1 -2 6l1 1l1 1q1 0 1 1h1t2 1h1h5h2q1 0 1 -1
q3 0 5 -1q2 -2 4 -3t3 -2q1 0 3 -1t5 -1q1 0 3 1q1 0 3 1q3 1 6 3l4 4q1 2 2 3t1 3q0 4 -3 6q-2 3 -4 3l-3 3h-3q-3 1 -8 4q-2 0 -4 1q-3 0 -5 2q-4 1 -6 3q-2 1 -4 3q-3 2 -4 4q-2 2 -3 4q-3 6 -3 12q0 9 3 13q1 3 3 5t5 4q2 2 5 3l6 3q2 0 5 1h7h4q2 -1 5 -1l4 -2
q1 -1 4 -2q1 -1 3 -2l4 -4l3 -2l2 -4l-4 -2l-2 -2q-2 -1 -2 -2h-4h-2h-2h-1q-3 0 -3 1l-4 2q-1 0 -1 1h-1h-3h-6h-2q-1 -1 -3 -2q-1 -1 -2 -4q-1 -1 -1 -4t1 -3l2 -2v-3h4q1 -1 2 -1l6 -2q2 -1 3 -2l5 -1q2 -2 5 -2q2 -1 5 -4zM857 39q3 0 3 -3q1 0 1 -1v-3q0 -3 -1 -5
q0 -2 -3 -4q-2 0 -3 -2h-2q-1 -1 -3 -1q-1 0 -2 1h-2l-2 2h-2q-1 1 -1 2l-2 2q-1 2 -1 5v3q0 1 1 1q1 2 2 3h1q3 3 4 3l2 2h2h3l2 -2zM898 99q-4 -4 -8 -12q-1 -2 -2 -5q-1 -4 -1 -7q0 -4 1 -7l2 -6l4 -7q1 -3 4 -5q2 -2 5 -4q2 -2 6 -4q4 -1 7 -2t7 -1q3 0 5 1t5 1q2 1 5 3
q2 1 4 3q2 0 4 1h3h3q2 0 3 -1q3 -1 5 -3l3 -5q-3 -4 -8 -7q-3 -2 -5 -3q-2 -2 -5 -3q-3 -2 -5 -2l-6 -2t-5 -1q-3 -1 -6 -1q-7 0 -12 2l-10 2q-10 5 -17 12q-8 8 -12 17q-1 6 -2 11q-2 5 -2 11q0 3 1 7q0 3 1 7l2 6q1 3 3 6q3 4 5 7q1 2 4 5l6 4q2 2 6 4q2 2 5 3t8 3
q2 0 6 1h8h6q2 0 5 -1l6 -2q2 -1 5 -2t5 -2q2 -2 5 -4q5 -4 8 -8l-3 -4l-2 -2q-1 -1 -3 -2h-3h-3h-3q-2 0 -4 1l-4 4q-3 1 -5 2q-3 1 -5 1h-5q-8 0 -14 -3q-4 -1 -6 -3zM1072 101q1 -3 3 -6l2 -6q1 -4 1 -7v-7v-8q0 -4 -1 -7l-2 -6q-2 -4 -3 -7q-4 -5 -8 -11q-4 -2 -7 -4
q-3 -3 -5 -4q-3 -3 -6 -4l-8 -2q-3 -1 -6 -1q-4 -1 -8 -1q-10 0 -21 4l-8 6q-5 3 -8 6q-4 4 -7 8t-5 9q-2 6 -3 11t-1 11q0 3 1 7v7q1 3 3 6t3 6q2 4 4 7l5 5q2 2 5 4l6 4q2 2 6 3q3 1 6 3q4 0 8 1h6h8q3 -1 6 -1q4 -2 8 -3q3 -1 6 -3q2 -2 5 -4t7 -4q1 -3 4 -5zM1057 62
q2 5 2 13v7q-1 3 -2 5q-2 5 -3 8l-4 4q-5 5 -12 7q-3 2 -6 3h-8q-7 0 -13 -3q-3 -1 -5 -3l-6 -4l-4 -4q-2 -3 -4 -8q-1 -2 -1 -5q-1 -4 -1 -7q0 -4 1 -7q0 -3 1 -6q4 -8 8 -12l6 -4q2 -2 5 -4q3 -1 7 -2t6 -1q4 0 8 1l6 2q3 2 7 4q3 2 5 4zM1188 127l1 1h2h19v-107h-19v78
v-2l-2 -3v-3q0 -1 -1 -2q-3 -9 -7 -17q-4 -9 -7 -17l-6 -16q-4 -9 -7 -18h-19l-27 68q-1 1 -1 5q-1 2 -1 3q-1 0 -1 1v-77h-20v107h19h3l1 -1q2 -1 3 -1l1 -1l3 -2l2 -2q1 -1 1 -2q2 -8 6 -15q3 -8 6 -17q3 -8 7 -16l6 -16v-1v-2v-2q2 0 2 -2v2v2q0 1 1 2v1l4 8l22 56
q0 1 1 2v2q1 1 3 2h1q1 1 2 1z" />
    <glyph glyph-name="two" unicode="2" horiz-adv-x="1236" 
d="M1210 533v-286h-1174v286h445q0 15 3 29q2 13 8 26t14 25q7 12 18 21q18 19 44 30q14 6 28 9q13 2 27 2q16 0 30 -3t26 -9q14 -6 26 -14q11 -8 20 -17q18 -18 30 -46q10 -26 10 -53h445zM503 582q-11 -23 -11 -49q0 -28 11 -51q5 -11 12 -22t15 -20q9 -9 20 -16
q10 -7 22 -12q23 -11 51 -11q14 0 27 2q12 2 24 7q12 6 22 13q10 6 19 16q9 9 16 20q7 10 13 21q11 25 11 53q0 11 -2 23q-2 11 -7 21q-6 20 -20 37q-7 8 -15 15t-16 12l-18 10l-20 8q-7 2 -15 3q-9 1 -19 1q-14 0 -27 -2q-13 -3 -25 -9q-24 -9 -42 -28q-8 -9 -14 -20z
M144 337q3 5 3 9v5q-1 2 -3 5q0 1 -2 3l-3 3l-2 4q-2 1 -5 1l-4 2q-3 1 -5 1h-26v-75h8v28h18q2 0 5 1q2 0 4 1q5 2 7 4q1 2 3 4zM200 370h-46v-75h46v9h-35v23h29v10h-29v22h35v11zM273 295l-23 32q1 1 3 1q1 0 2 2q4 2 5 5q1 1 2 3q1 1 2 3v6v5q0 2 -1 4q-2 4 -5 7
q-2 4 -7 4q-1 1 -3 2q-3 1 -5 1h-27v-75h11v31h11l20 -27q1 -2 3 -3q1 -1 2 -1h3h7zM324 308q0 2 1 4v4q0 6 -2 10t-6 7q-1 0 -1 1q-1 1 -3 2v0q-1 0 -3 1h-1q-1 0 -1 2q-3 0 -4 1q-3 0 -4 1l-3 1q-4 1 -4 2q-3 2 -3 3v4v4q1 0 2 1t1 2l2 1h2q2 1 3 1h2h1q1 -1 2 -1
q4 0 4 -2q1 -1 2 -1h2q4 0 7 2l2 1q0 1 -1 2l-2 2q-2 1 -3 2t-3 2q-1 0 -2 1q-1 0 -3 2q-3 0 -3 1h-3h-4q-3 -1 -5 -1l-3 -3q-2 -1 -4 -1q-1 -2 -2 -3q-2 -2 -3 -4t-1 -3q-1 -2 -1 -5v-4q0 -2 2 -4q1 -2 3 -3q1 -2 1 -3l4 -2q2 -2 4 -2l4 -2q1 -1 3 -2q1 -1 3 -1h2
q3 -1 4 -1l1 -1l2 -1q0 -1 1 -3q1 -1 1 -2v-4v-1q0 -2 -1 -3l-1 -2q0 -1 -2 -2q-1 -2 -2 -2q-2 -1 -3 -2h-2h-3h-3h-3l-2 2q-2 0 -2 2l-1 1q-3 2 -6 2h-2q-1 0 -2 -1l-3 -1q0 -2 1 -2q0 -2 2 -3q0 -1 1 -2l1 -1h1q4 -4 9 -5q4 -1 9 -1h5q2 0 4 1t5 2q2 1 3 3q3 1 5 3z
M409 322q1 3 1 5v5q0 6 -1 10q0 3 -1 5q-2 2 -3 5q-2 3 -6 7q-2 2 -4 3t-5 4q-1 0 -3 1t-5 3q-3 0 -5 1h-5h-5q-3 -1 -5 -1q-3 -2 -5 -3t-4 -1q-2 -3 -4 -4t-4 -3l-3 -3q-2 -2 -3 -4q-2 -3 -2 -5q-1 -2 -2 -5q-1 -4 -1 -10q0 -4 1 -7l2 -8q1 -3 3 -6t5 -7l6 -4q3 -2 7 -2
q6 -3 14 -3h5h5q5 2 8 4q7 3 9 5q3 4 6 9q1 2 3 5zM487 370h-10v-58v3l-1 1l-36 51q-2 0 -4 3h-2h-2h-7v-75h10v61l1 -1v-2l43 -58h8v75zM571 295l-33 75h-11l-32 -75h6q3 0 4 1l2 2l2 1l4 13h39l5 -13q1 -2 3 -3q0 -1 4 -1h7zM620 304h-32v66h-11v-75h43v9zM722 370h-10
v-45v-5q0 -2 -1 -4q-1 -4 -5 -6l-2 -2q-2 -1 -3 -3q-3 -1 -4 -1h-4q-5 0 -7 1q-3 2 -5 3t-2 2q-1 1 -2 3l-3 3v4q-1 2 -1 5v45h-10v-45v-5q0 -3 1 -4q0 -4 2 -7q2 -5 6 -7q1 -1 3 -2q1 -1 3 -2q1 -1 3 -1q2 -1 3 -2q3 0 5 -1q1 -1 4 -1q2 0 4 1q1 1 4 1l4 2q1 0 3 1l6 4
q2 2 3 4q0 1 1 3l3 3q1 2 1 4v9v45zM780 308q3 4 3 8q0 6 -2 10t-6 7q-3 2 -3 3h-2q-2 0 -3 1h-1q-2 0 -3 2h-1q-1 0 -2 1q-1 0 -2 1l-3 1q-4 1 -4 2q-2 1 -2 2q-1 1 -2 1v2q-1 0 -1 2t2 4l3 3q1 0 2 1h2q0 1 5 1h1q1 -1 2 -1q1 -1 4 -2q4 -1 5 -1q3 0 4 2l3 1l-2 2l-2 2
q0 1 -1 2q-2 1 -3 2q-2 0 -3 1q-1 0 -3 2q-2 0 -3 1h-2h-5q-2 -1 -4 -1q-2 -2 -4 -3t-3 -1l-3 -3q-1 -2 -3 -4q0 -2 -1 -3q-1 -2 -1 -5t1 -4q1 -2 1 -4q2 -4 5 -6l4 -2q1 -2 2 -2q3 -1 5 -2q1 -1 3 -2t3 -1h2q1 -1 3 -1q1 0 2 -1t3 -1q1 -1 1 -3q1 -1 1 -2v-4v-1q0 -2 -1 -3
q-1 -3 -4 -4q-2 -2 -3 -2l-2 -2h-2h-3h-3h-3q-2 1 -5 4v1q-3 2 -6 2h-1q-2 0 -3 -1l-3 -1l1 -1q0 -1 1 -1q0 -1 1 -1v-2h1v-2q2 -1 3 -1q3 -4 8 -5q4 -1 9 -1h5q2 0 5 1l4 2q2 1 4 3l3 3zM841 370h-46v-75h46v9h-36v23h30v10h-30v22h36v11zM960 322v5v5v6v4q-2 5 -5 10
q-2 3 -6 7q-1 2 -3 3t-4 4q-2 0 -4 1q-3 1 -5 3q-3 0 -5 1h-5h-5q-3 -1 -5 -1q-6 -3 -10 -4q-2 -3 -3 -4q-2 -1 -4 -3l-3 -3l-4 -4q-1 -3 -2 -5t-1 -5q-2 -4 -2 -10q0 -4 1 -7l2 -8q3 -7 9 -13q2 -2 5 -4t7 -2q6 -3 15 -3h5h5q2 1 5 2l4 2q2 2 4 3t3 2q4 4 6 9zM1038 370
h-11v-58v3q-1 1 -2 1l-36 51v1q-1 0 -2 2h-2h-3h-8v-75h12v59l1 -1l42 -58h9v75zM1099 304h-32v66h-11v-75h43v9zM1159 370h-9q-2 0 -4 -2q-4 -2 -4 -4l-17 -23l-1 -1h-1l-1 1l-18 23q-1 2 -3 4t-5 2h-8l27 -37l1 -1q0 -1 1 -1v-1v-1q0 -1 1 -1v-1v-32h11v32v1v2q1 0 1 2v1
h1zM942 352l4 -4q2 -3 3 -5q0 -3 1 -5v-6q0 -6 -1 -11q-1 -3 -3 -5t-4 -3q-2 -2 -4 -3l-4 -4q-6 -2 -11 -2q-3 0 -6 1q-3 0 -5 1q-3 2 -5 4q-2 1 -4 3q-2 1 -3 3q-2 2 -2 5q-2 3 -2 6q-1 2 -1 5q0 5 3 11q0 2 2 5q1 2 3 4l4 4q2 1 5 2q4 2 11 2h5l6 -2l4 -2zM253 343
q0 -1 -2 -4q-1 0 -1 -1q-1 -1 -3 -1q-1 -1 -4 -1h-16v23h16q2 0 4 -1h3l1 -2l2 -4q1 -1 1 -5zM391 352l4 -4q2 -3 3 -5q1 -3 2 -5v-6v-5l-2 -6t-3 -5t-4 -3q-1 -2 -3 -3q-2 -2 -5 -4q-2 -1 -5 -1q-3 -1 -6 -1q-6 0 -11 2l-4 4q-3 1 -5 3l-3 3q-2 2 -3 5l-2 6q-1 2 -1 5
q0 5 3 11q1 2 3 5q2 2 3 4q2 2 5 4l4 2l6 2h5q6 0 11 -2q3 -1 5 -2zM532 358q0 -2 1 -3v-2l14 -31h-29l14 31v2v3zM132 356l2 -2q0 -2 1 -3q1 -2 1 -5v-2q0 -2 -1 -3t-1 -2q-1 -2 -2 -2l-4 -4h-5h-18v26h18q3 0 5 -1q1 0 3 -1zM580 422q-9 4 -18 10q-10 5 -17 12h157
q-8 -7 -17 -12q-9 -6 -19 -10q-10 -3 -21 -6t-22 -3q-12 0 -22 3zM557 457l154 155q14 -19 22 -39t8 -40q0 -11 -1 -21q-2 -11 -6 -21q-4 -9 -9 -17q-5 -9 -11 -17h-157zM534 453q-13 17 -22 36q-3 10 -5 21t-2 23q0 10 2 20t5 20q3 9 8 18q5 8 12 16h156zM666 642
q10 -4 19 -10t16 -11h-158q18 14 37 21q19 9 43 9zM38 171q-2 2 -2 4l-2 4q-1 3 -1 5q-1 2 -1 5t2 8q1 2 2 5q0 2 2 3l2 5q0 1 3 3q0 1 3 3q2 1 3 2q3 2 5 3l4 1q1 0 4 1h5h7q3 -1 7 -3q4 -1 7 -3l4 -4q-1 -1 -2 -1v-2h-1h-1h-2h-3q-2 1 -4 3q-2 1 -4 1h-3h-5h-5h-4l-6 -3
q-2 -2 -4 -3q-2 -3 -3 -5q-2 -2 -3 -4q-2 -3 -2 -6v-4q0 -4 1 -7l2 -4v-4q1 -1 3 -2q1 -1 2 -3q2 -1 3 -2q1 -2 3 -2q1 -1 3 -2t4 -1q1 -1 3 -1h3h5q2 0 4 1q2 0 5 1l4 2v14h-6h-1l-1 1l-1 2l-2 1v1q-1 0 -1 1v1v1h19v-26l-2 -2l-3 -3q-3 -1 -6 -1q-3 -1 -7 -1h-7h-5h-4
q-3 1 -4 2l-5 3q-1 0 -3 2q-3 1 -3 3q-3 1 -3 3zM117 214v-22h27v-7h-27v-23h33v-8h-41v68h41v-8h-33zM180 154v60h-22v8h52v-8h-23v-60h-7zM260 214v-24h29v-6h-29v-30h-8v68h41v-8h-33zM313 222v-42q0 -2 1 -3q1 -2 2 -3q1 -3 3 -4l2 -4q0 -1 2 -2l2 -2q3 -1 5 -1h4h4
q1 0 2 1q3 1 5 2q1 1 3 2q0 2 2 4q1 1 2 4q2 2 2 6v42h7v-42v-5q-1 -2 -2 -5t-2 -5l-4 -4t-4 -3q-2 -2 -4 -3q-6 -1 -11 -1q-6 0 -12 1l-3 3q-3 1 -5 3q-3 3 -5 9q-1 3 -2 5t-1 5v42h7zM383 222v-60h30v-8h-38v68h8zM428 222v-60h32v-8h-39v68h7zM522 154l-30 68h4q2 0 4 -1
q1 -1 2 -1l1 -2l21 -51v-2q1 -1 1 -3v3l1 1v1q3 7 6 13l6 12q2 8 5 14l6 12q0 2 1 2t1 1q1 1 2 1h2h4q-4 -8 -7 -16q-4 -9 -9 -17q-3 -10 -6 -18q-4 -8 -8 -17h-7zM572 214v-22h28v-7h-28v-23h33v-8h-41v68h41v-8h-33zM655 186q-1 -1 -5 -2l23 -30h-5q-1 0 -2 1h-2l-2 2
q-1 0 -2 2l-19 25h-12v-30h-7v68h25h3q1 0 3 -1q4 -1 7 -4q1 -2 2 -3l2 -4q1 -1 1 -3v-3v-4q0 -2 -1 -3q0 -2 -1 -4t-2 -3l-2 -2zM647 190q2 0 3 2q1 0 2 1h2l2 3q0 1 1 2q0 1 1 2v4v1q-1 1 -1 3l-1 2q-1 0 -2 2q-1 0 -2 1q-1 0 -2 1h-3h-18v-24h18zM709 164q1 1 2 4
q1 1 2 3v3q0 3 -1 5q-1 0 -1 2l-2 2t-4 2q-2 0 -3 1l-3 1q-2 0 -4 1t-2 2q-5 0 -7 3q-2 0 -2 2q-1 2 -2 3v7v5q0 1 1 3q0 3 4 5l3 3q1 0 4 1q2 0 3 1h4h3q1 -1 2 -1h2l3 -2q1 0 2 -1t1 -2q2 -1 3 -2q0 -1 1 -1l-2 -1q-1 -1 -4 -1h-3q-2 1 -2 2h-1h-1h-1h-1h-1h-1h-4
q-4 0 -4 -1q-3 -3 -3 -4q-2 0 -2 -4q0 -3 2 -3q0 -2 1 -3t3 -1l1 -1q2 -2 3 -2t4 -2h2q1 0 1 -1h2q1 0 2 -2h1h1v0h2l1 -1l3 -3q1 -2 3 -3q1 -5 1 -9v-5q0 -2 -3 -4q0 -3 -4 -6q-1 -1 -3 -2l-4 -2q-2 -1 -4 -1h-5q-5 0 -8 1q-4 1 -7 4q-1 0 -2 1l-2 2v2l-1 1l1 1l1 1h2h1h2
l2 -2q2 -1 3 -2t3 -1q0 -1 2 -1h3q4 0 5 1zM744 222v-68h-8v68h8zM771 164q-6 4 -9 10q-2 7 -2 15v4v4q3 5 4 8q3 4 7 8q3 3 6 5q2 2 5 3q2 0 4 1q2 0 4 1h5h5q2 -1 5 -1q2 -1 4 -1q2 -1 4 -3l3 -2q1 -2 3 -3l3 -3l3 -5q1 -3 3 -8l2 -4v-4q0 -4 -1 -7q-1 -4 -3 -8
q-1 -3 -2 -5q-2 -3 -5 -5q-3 -3 -5 -4l-6 -4q-5 -2 -13 -2q-4 0 -7 1q-4 0 -6 1zM771 199q-2 -3 -3 -6t-1 -4q0 -2 1 -4v-3q1 -4 4 -8q0 -1 1 -2t2 -3l3 -2q1 -2 4 -2q1 -1 3 -2q1 -1 2 -1q2 -1 4 -1h4h4q2 0 3 1q1 0 3 1l4 2q1 0 3 2l2 2q1 2 2 3l2 2l2 4l1 4q0 1 1 3v4v4
q-1 3 -3 6q0 2 -2 4t-3 5q-2 1 -4 3q-2 1 -5 3h-4h-6h-6h-5q-2 -2 -4 -3q-3 -2 -5 -3q-1 -3 -2 -5zM850 154h-8v68h6h3q1 0 2 -2l35 -50q1 0 1 -2l1 -1v55h8v-68h-7l-40 56v2h-1v-58zM955 214v-24h28v-6h-28v-30h-7v68h41v-8h-34zM1032 186q-4 -1 -6 -2l22 -30h-6q-2 0 -4 1
v2q-1 0 -2 2l-19 25h-12v-30h-8v68h25h3q2 0 4 -1l4 -2l2 -2q1 -2 2 -3q1 -2 3 -4q0 -1 1 -3v-3v-4q-1 -2 -1 -3l-2 -4q-1 -2 -1 -3zM1026 192q1 0 2 1h1q3 4 3 5q1 2 1 6q0 1 -1 4q0 1 -3 4q-1 0 -1 1l-2 1h-4h-17v-24h17zM1114 164q-2 -3 -5 -4l-6 -4q-3 -1 -6 -1
q-3 -1 -7 -1t-7 1q-4 0 -7 1q-6 2 -11 8q-2 2 -4 5q-2 2 -3 5l-2 8q-2 3 -2 7q0 1 1 4q0 2 1 4t2 5q0 2 1 3q2 3 4 5q1 1 2 3q2 1 4 3l4 2q2 2 4 3q2 0 4 1q3 0 5 1h4h5q2 -1 4 -1l5 -1l3 -3l4 -2l3 -3q1 -2 3 -3q1 -2 2 -5q3 -3 4 -8l2 -4v-4v-7q-1 -4 -3 -8q-1 -3 -3 -5z
M1090 161h4q2 0 4 1q1 0 3 1l2 2q1 0 3 2l4 2l2 3q0 1 1 2l2 4v4q1 1 1 3v4v4q-1 3 -1 6l-2 4q-2 2 -3 5q-3 1 -5 3q-3 1 -5 3h-5h-5h-5h-6q-3 -2 -4 -3q-2 -2 -4 -3q-3 -3 -4 -5l-2 -4q-1 -3 -1 -6v-4v-7q0 -3 1 -4q0 -2 2 -4q0 -1 2 -2q1 -1 2 -3l3 -2q1 -2 2 -2
q1 -1 3 -2q1 -1 4 -1q1 -1 3 -1h4zM1201 221q1 1 2 1h1h6v-68h-7v56l-1 -1v-1q-2 -4 -3 -8q-1 -5 -3 -8t-3 -6l-4 -7q-1 -4 -2 -7l-2 -6q-2 -3 -3 -5q-2 -3 -3 -7h-7q-5 6 -7 13q-3 7 -6 13q-2 7 -5 14q-4 7 -6 14v1l-2 1v-56h-8v68h7q3 0 4 -1l1 -1v-2l24 -53q0 -1 1 -1v-2
q0 1 1 2v2q0 2 2 4l21 48q0 2 1 2zM36 128h77v-10v-2v-2q0 -2 -1 -3l-2 -2l-52 -71h1v1h2h1h51v-18h-81v6q0 5 1 6q0 1 2 4q1 1 1 2t1 2l2 2l1 3l46 63h-50v19zM127 128h68v-19h-49v-24h39v-20h-39v-26h49v-18h-68v107zM279 109h-29v-88h-21v88h-31v19h81v-19zM328 128
l46 -107h-12q-4 0 -8 2q-2 1 -2 3q-1 2 -3 4l-6 14h-49l-5 -14l-1 -2q-1 -1 -2 -1v-2q-1 -1 -3 -2h-2q-1 -1 -2 -1q0 -1 -1 -1h-2h-12l46 107h18zM334 63l-13 33v2q-1 0 -1 1q0 2 -1 3v-3q0 -1 -1 -1q-1 -1 -1 -2l-13 -33h30zM378 128h68v-19h-49v-27h40v-19h-40v-42h-19
v107zM553 101q2 -3 3 -6t3 -6q1 -4 1 -7v-7v-8q0 -4 -1 -7q-2 -3 -3 -6q-1 -4 -3 -7q-2 -2 -4 -5l-4 -6q-4 -2 -6 -4q-2 -3 -5 -4q-3 -3 -6 -4q-4 -1 -7 -2q-4 -1 -7 -1q-4 -1 -8 -1q-5 0 -10 2q-6 1 -11 2q-6 3 -9 6q-4 3 -9 6q-7 8 -10 17q-3 6 -4 11t-1 11q0 3 1 7
q0 3 1 7q2 8 6 12q2 4 4 7q1 2 3 5q4 2 7 4q2 2 5 4t6 3t7 3q3 0 7 1h7h8q3 -1 7 -1q3 -2 7 -3q3 -1 6 -3t5 -4t6 -4q2 -3 4 -5zM539 62l2 6v7q0 6 -2 12q-2 5 -4 8q-2 2 -5 4l-4 4q-3 2 -6 3q-6 3 -14 3t-14 -3q-2 -1 -4 -3l-6 -4t-4 -4q-2 -3 -4 -8q-2 -2 -2 -5v-7v-7
q0 -3 2 -6l4 -7q1 -3 4 -5l6 -4l4 -4q4 -1 7 -2t7 -1t7 1t7 2l6 4l4 4q3 2 5 5zM649 128h19v-107h-18l-50 72q-1 0 -1 1l-1 1q-1 2 -1 3q-2 0 -2 2v1l-2 1v-81h-19v107h17h4q2 -1 2 -2l3 -1l2 -2q5 -8 11 -15q5 -8 10 -17l12 -14q5 -8 12 -15q0 -2 1 -3v-3q0 -1 1 -2v-2v76z
M678 128h81v-19h-32v-88h-19v88h-30v19zM825 73q1 -2 3 -4l2 -4q0 -2 1 -4q1 -3 1 -7q0 -6 -3 -13l-4 -6q-2 -3 -4 -5q-4 -2 -6 -4t-6 -3t-7 -2q-4 -1 -7 -1q-4 0 -7 1q-4 1 -9 2q-3 1 -5 3q-3 2 -7 6q-2 1 -3 3q-1 1 -2 3q-2 1 -2 6l1 1l1 1q1 0 1 1h1t2 1h1h5h2q1 0 1 -1
q3 0 5 -1q2 -2 4 -3t3 -2q1 0 3 -1t5 -1q1 0 3 1q1 0 3 1q3 1 6 3l4 4q1 2 2 3t1 3q0 4 -3 6q-2 3 -4 3l-3 3h-3q-3 1 -8 4q-2 0 -4 1q-3 0 -5 2q-4 1 -6 3q-2 1 -4 3q-3 2 -4 4q-2 2 -3 4q-3 6 -3 12q0 9 3 13q1 3 3 5t5 4q2 2 5 3l6 3q2 0 5 1h7h4q2 -1 5 -1l4 -2
q1 -1 4 -2q1 -1 3 -2l4 -4l3 -2l2 -4l-4 -2l-2 -2q-2 -1 -2 -2h-4h-2h-2h-1q-3 0 -3 1l-4 2q-1 0 -1 1h-1h-3h-6h-2q-1 -1 -3 -2q-1 -1 -2 -4q-1 -1 -1 -4t1 -3l2 -2v-3h4q1 -1 2 -1l6 -2q2 -1 3 -2l5 -1q2 -2 5 -2q2 -1 5 -4zM857 39q3 0 3 -3q1 0 1 -1v-3q0 -3 -1 -5
q0 -2 -3 -4q-2 0 -3 -2h-2q-1 -1 -3 -1q-1 0 -2 1h-2l-2 2h-2q-1 1 -1 2l-2 2q-1 2 -1 5v3q0 1 1 1q1 2 2 3h1q3 3 4 3l2 2h2h3l2 -2zM898 99q-4 -4 -8 -12q-1 -2 -2 -5q-1 -4 -1 -7q0 -4 1 -7l2 -6l4 -7q1 -3 4 -5q2 -2 5 -4q2 -2 6 -4q4 -1 7 -2t7 -1q3 0 5 1t5 1q2 1 5 3
q2 1 4 3q2 0 4 1h3h3q2 0 3 -1q3 -1 5 -3l3 -5q-3 -4 -8 -7q-3 -2 -5 -3q-2 -2 -5 -3q-3 -2 -5 -2l-6 -2t-5 -1q-3 -1 -6 -1q-7 0 -12 2l-10 2q-10 5 -17 12q-8 8 -12 17q-1 6 -2 11q-2 5 -2 11q0 3 1 7q0 3 1 7l2 6q1 3 3 6q3 4 5 7q1 2 4 5l6 4q2 2 6 4q2 2 5 3t8 3
q2 0 6 1h8h6q2 0 5 -1l6 -2q2 -1 5 -2t5 -2q2 -2 5 -4q5 -4 8 -8l-3 -4l-2 -2q-1 -1 -3 -2h-3h-3h-3q-2 0 -4 1l-4 4q-3 1 -5 2q-3 1 -5 1h-5q-8 0 -14 -3q-4 -1 -6 -3zM1072 101q1 -3 3 -6l2 -6q1 -4 1 -7v-7v-8q0 -4 -1 -7l-2 -6q-2 -4 -3 -7q-4 -5 -8 -11q-4 -2 -7 -4
q-3 -3 -5 -4q-3 -3 -6 -4l-8 -2q-3 -1 -6 -1q-4 -1 -8 -1q-10 0 -21 4l-8 6q-5 3 -8 6q-4 4 -7 8t-5 9q-2 6 -3 11t-1 11q0 3 1 7v7q1 3 3 6t3 6q2 4 4 7l5 5q2 2 5 4l6 4q2 2 6 3q3 1 6 3q4 0 8 1h6h8q3 -1 6 -1q4 -2 8 -3q3 -1 6 -3q2 -2 5 -4t7 -4q1 -3 4 -5zM1057 62
q2 5 2 13v7q-1 3 -2 5q-2 5 -3 8l-4 4q-5 5 -12 7q-3 2 -6 3h-8q-7 0 -13 -3q-3 -1 -5 -3l-6 -4l-4 -4q-2 -3 -4 -8q-1 -2 -1 -5q-1 -4 -1 -7q0 -4 1 -7q0 -3 1 -6q4 -8 8 -12l6 -4q2 -2 5 -4q3 -1 7 -2t6 -1q4 0 8 1l6 2q3 2 7 4q3 2 5 4zM1188 127l1 1h2h19v-107h-19v78
v-2l-2 -3v-3q0 -1 -1 -2q-3 -9 -7 -17q-4 -9 -7 -17l-6 -16q-4 -9 -7 -18h-19l-27 68q-1 1 -1 5q-1 2 -1 3q-1 0 -1 1v-77h-20v107h19h3l1 -1q2 -1 3 -1l1 -1l3 -2l2 -2q1 -1 1 -2q2 -8 6 -15q3 -8 6 -17q3 -8 7 -16l6 -16v-1v-2v-2q2 0 2 -2v2v2q0 1 1 2v1l4 8l22 56
q0 1 1 2v2q1 1 3 2h1q1 1 2 1z" />
    <glyph glyph-name="three" unicode="3" horiz-adv-x="1236" 
d="M1210 533v-286h-1174v286h445q0 15 3 29q2 13 8 26t14 25q7 12 18 21q18 19 44 30q14 6 28 9q13 2 27 2q16 0 30 -3t26 -9q14 -6 26 -14q11 -8 20 -17q18 -18 30 -46q10 -26 10 -53h445zM503 582q-11 -23 -11 -49q0 -28 11 -51q5 -11 12 -22t15 -20q9 -9 20 -16
q10 -7 22 -12q23 -11 51 -11q14 0 27 2q12 2 24 7q12 6 22 13q10 6 19 16q9 9 16 20q7 10 13 21q11 25 11 53q0 11 -2 23q-2 11 -7 21q-6 20 -20 37q-7 8 -15 15t-16 12l-18 10l-20 8q-7 2 -15 3q-9 1 -19 1q-14 0 -27 -2q-13 -3 -25 -9q-24 -9 -42 -28q-8 -9 -14 -20z
M144 337q3 5 3 9v5q-1 2 -3 5q0 1 -2 3l-3 3l-2 4q-2 1 -5 1l-4 2q-3 1 -5 1h-26v-75h8v28h18q2 0 5 1q2 0 4 1q5 2 7 4q1 2 3 4zM200 370h-46v-75h46v9h-35v23h29v10h-29v22h35v11zM273 295l-23 32q1 1 3 1q1 0 2 2q4 2 5 5q1 1 2 3q1 1 2 3v6v5q0 2 -1 4q-2 4 -5 7
q-2 4 -7 4q-1 1 -3 2q-3 1 -5 1h-27v-75h11v31h11l20 -27q1 -2 3 -3q1 -1 2 -1h3h7zM324 308q0 2 1 4v4q0 6 -2 10t-6 7q-1 0 -1 1q-1 1 -3 2v0q-1 0 -3 1h-1q-1 0 -1 2q-3 0 -4 1q-3 0 -4 1l-3 1q-4 1 -4 2q-3 2 -3 3v4v4q1 0 2 1t1 2l2 1h2q2 1 3 1h2h1q1 -1 2 -1
q4 0 4 -2q1 -1 2 -1h2q4 0 7 2l2 1q0 1 -1 2l-2 2q-2 1 -3 2t-3 2q-1 0 -2 1q-1 0 -3 2q-3 0 -3 1h-3h-4q-3 -1 -5 -1l-3 -3q-2 -1 -4 -1q-1 -2 -2 -3q-2 -2 -3 -4t-1 -3q-1 -2 -1 -5v-4q0 -2 2 -4q1 -2 3 -3q1 -2 1 -3l4 -2q2 -2 4 -2l4 -2q1 -1 3 -2q1 -1 3 -1h2
q3 -1 4 -1l1 -1l2 -1q0 -1 1 -3q1 -1 1 -2v-4v-1q0 -2 -1 -3l-1 -2q0 -1 -2 -2q-1 -2 -2 -2q-2 -1 -3 -2h-2h-3h-3h-3l-2 2q-2 0 -2 2l-1 1q-3 2 -6 2h-2q-1 0 -2 -1l-3 -1q0 -2 1 -2q0 -2 2 -3q0 -1 1 -2l1 -1h1q4 -4 9 -5q4 -1 9 -1h5q2 0 4 1t5 2q2 1 3 3q3 1 5 3z
M409 322q1 3 1 5v5q0 6 -1 10q0 3 -1 5q-2 2 -3 5q-2 3 -6 7q-2 2 -4 3t-5 4q-1 0 -3 1t-5 3q-3 0 -5 1h-5h-5q-3 -1 -5 -1q-3 -2 -5 -3t-4 -1q-2 -3 -4 -4t-4 -3l-3 -3q-2 -2 -3 -4q-2 -3 -2 -5q-1 -2 -2 -5q-1 -4 -1 -10q0 -4 1 -7l2 -8q1 -3 3 -6t5 -7l6 -4q3 -2 7 -2
q6 -3 14 -3h5h5q5 2 8 4q7 3 9 5q3 4 6 9q1 2 3 5zM487 370h-10v-58v3l-1 1l-36 51q-2 0 -4 3h-2h-2h-7v-75h10v61l1 -1v-2l43 -58h8v75zM571 295l-33 75h-11l-32 -75h6q3 0 4 1l2 2l2 1l4 13h39l5 -13q1 -2 3 -3q0 -1 4 -1h7zM620 304h-32v66h-11v-75h43v9zM722 370h-10
v-45v-5q0 -2 -1 -4q-1 -4 -5 -6l-2 -2q-2 -1 -3 -3q-3 -1 -4 -1h-4q-5 0 -7 1q-3 2 -5 3t-2 2q-1 1 -2 3l-3 3v4q-1 2 -1 5v45h-10v-45v-5q0 -3 1 -4q0 -4 2 -7q2 -5 6 -7q1 -1 3 -2q1 -1 3 -2q1 -1 3 -1q2 -1 3 -2q3 0 5 -1q1 -1 4 -1q2 0 4 1q1 1 4 1l4 2q1 0 3 1l6 4
q2 2 3 4q0 1 1 3l3 3q1 2 1 4v9v45zM780 308q3 4 3 8q0 6 -2 10t-6 7q-3 2 -3 3h-2q-2 0 -3 1h-1q-2 0 -3 2h-1q-1 0 -2 1q-1 0 -2 1l-3 1q-4 1 -4 2q-2 1 -2 2q-1 1 -2 1v2q-1 0 -1 2t2 4l3 3q1 0 2 1h2q0 1 5 1h1q1 -1 2 -1q1 -1 4 -2q4 -1 5 -1q3 0 4 2l3 1l-2 2l-2 2
q0 1 -1 2q-2 1 -3 2q-2 0 -3 1q-1 0 -3 2q-2 0 -3 1h-2h-5q-2 -1 -4 -1q-2 -2 -4 -3t-3 -1l-3 -3q-1 -2 -3 -4q0 -2 -1 -3q-1 -2 -1 -5t1 -4q1 -2 1 -4q2 -4 5 -6l4 -2q1 -2 2 -2q3 -1 5 -2q1 -1 3 -2t3 -1h2q1 -1 3 -1q1 0 2 -1t3 -1q1 -1 1 -3q1 -1 1 -2v-4v-1q0 -2 -1 -3
q-1 -3 -4 -4q-2 -2 -3 -2l-2 -2h-2h-3h-3h-3q-2 1 -5 4v1q-3 2 -6 2h-1q-2 0 -3 -1l-3 -1l1 -1q0 -1 1 -1q0 -1 1 -1v-2h1v-2q2 -1 3 -1q3 -4 8 -5q4 -1 9 -1h5q2 0 5 1l4 2q2 1 4 3l3 3zM841 370h-46v-75h46v9h-36v23h30v10h-30v22h36v11zM960 322v5v5v6v4q-2 5 -5 10
q-2 3 -6 7q-1 2 -3 3t-4 4q-2 0 -4 1q-3 1 -5 3q-3 0 -5 1h-5h-5q-3 -1 -5 -1q-6 -3 -10 -4q-2 -3 -3 -4q-2 -1 -4 -3l-3 -3l-4 -4q-1 -3 -2 -5t-1 -5q-2 -4 -2 -10q0 -4 1 -7l2 -8q3 -7 9 -13q2 -2 5 -4t7 -2q6 -3 15 -3h5h5q2 1 5 2l4 2q2 2 4 3t3 2q4 4 6 9zM1038 370
h-11v-58v3q-1 1 -2 1l-36 51v1q-1 0 -2 2h-2h-3h-8v-75h12v59l1 -1l42 -58h9v75zM1099 304h-32v66h-11v-75h43v9zM1159 370h-9q-2 0 -4 -2q-4 -2 -4 -4l-17 -23l-1 -1h-1l-1 1l-18 23q-1 2 -3 4t-5 2h-8l27 -37l1 -1q0 -1 1 -1v-1v-1q0 -1 1 -1v-1v-32h11v32v1v2q1 0 1 2v1
h1zM942 352l4 -4q2 -3 3 -5q0 -3 1 -5v-6q0 -6 -1 -11q-1 -3 -3 -5t-4 -3q-2 -2 -4 -3l-4 -4q-6 -2 -11 -2q-3 0 -6 1q-3 0 -5 1q-3 2 -5 4q-2 1 -4 3q-2 1 -3 3q-2 2 -2 5q-2 3 -2 6q-1 2 -1 5q0 5 3 11q0 2 2 5q1 2 3 4l4 4q2 1 5 2q4 2 11 2h5l6 -2l4 -2zM253 343
q0 -1 -2 -4q-1 0 -1 -1q-1 -1 -3 -1q-1 -1 -4 -1h-16v23h16q2 0 4 -1h3l1 -2l2 -4q1 -1 1 -5zM391 352l4 -4q2 -3 3 -5q1 -3 2 -5v-6v-5l-2 -6t-3 -5t-4 -3q-1 -2 -3 -3q-2 -2 -5 -4q-2 -1 -5 -1q-3 -1 -6 -1q-6 0 -11 2l-4 4q-3 1 -5 3l-3 3q-2 2 -3 5l-2 6q-1 2 -1 5
q0 5 3 11q1 2 3 5q2 2 3 4q2 2 5 4l4 2l6 2h5q6 0 11 -2q3 -1 5 -2zM532 358q0 -2 1 -3v-2l14 -31h-29l14 31v2v3zM132 356l2 -2q0 -2 1 -3q1 -2 1 -5v-2q0 -2 -1 -3t-1 -2q-1 -2 -2 -2l-4 -4h-5h-18v26h18q3 0 5 -1q1 0 3 -1zM580 422q-9 4 -18 10q-10 5 -17 12h157
q-8 -7 -17 -12q-9 -6 -19 -10q-10 -3 -21 -6t-22 -3q-12 0 -22 3zM557 457l154 155q14 -19 22 -39t8 -40q0 -11 -1 -21q-2 -11 -6 -21q-4 -9 -9 -17q-5 -9 -11 -17h-157zM534 453q-13 17 -22 36q-3 10 -5 21t-2 23q0 10 2 20t5 20q3 9 8 18q5 8 12 16h156zM666 642
q10 -4 19 -10t16 -11h-158q18 14 37 21q19 9 43 9zM38 171q-2 2 -2 4l-2 4q-1 3 -1 5q-1 2 -1 5t2 8q1 2 2 5q0 2 2 3l2 5q0 1 3 3q0 1 3 3q2 1 3 2q3 2 5 3l4 1q1 0 4 1h5h7q3 -1 7 -3q4 -1 7 -3l4 -4q-1 -1 -2 -1v-2h-1h-1h-2h-3q-2 1 -4 3q-2 1 -4 1h-3h-5h-5h-4l-6 -3
q-2 -2 -4 -3q-2 -3 -3 -5q-2 -2 -3 -4q-2 -3 -2 -6v-4q0 -4 1 -7l2 -4v-4q1 -1 3 -2q1 -1 2 -3q2 -1 3 -2q1 -2 3 -2q1 -1 3 -2t4 -1q1 -1 3 -1h3h5q2 0 4 1q2 0 5 1l4 2v14h-6h-1l-1 1l-1 2l-2 1v1q-1 0 -1 1v1v1h19v-26l-2 -2l-3 -3q-3 -1 -6 -1q-3 -1 -7 -1h-7h-5h-4
q-3 1 -4 2l-5 3q-1 0 -3 2q-3 1 -3 3q-3 1 -3 3zM117 214v-22h27v-7h-27v-23h33v-8h-41v68h41v-8h-33zM180 154v60h-22v8h52v-8h-23v-60h-7zM260 214v-24h29v-6h-29v-30h-8v68h41v-8h-33zM313 222v-42q0 -2 1 -3q1 -2 2 -3q1 -3 3 -4l2 -4q0 -1 2 -2l2 -2q3 -1 5 -1h4h4
q1 0 2 1q3 1 5 2q1 1 3 2q0 2 2 4q1 1 2 4q2 2 2 6v42h7v-42v-5q-1 -2 -2 -5t-2 -5l-4 -4t-4 -3q-2 -2 -4 -3q-6 -1 -11 -1q-6 0 -12 1l-3 3q-3 1 -5 3q-3 3 -5 9q-1 3 -2 5t-1 5v42h7zM383 222v-60h30v-8h-38v68h8zM428 222v-60h32v-8h-39v68h7zM522 154l-30 68h4q2 0 4 -1
q1 -1 2 -1l1 -2l21 -51v-2q1 -1 1 -3v3l1 1v1q3 7 6 13l6 12q2 8 5 14l6 12q0 2 1 2t1 1q1 1 2 1h2h4q-4 -8 -7 -16q-4 -9 -9 -17q-3 -10 -6 -18q-4 -8 -8 -17h-7zM572 214v-22h28v-7h-28v-23h33v-8h-41v68h41v-8h-33zM655 186q-1 -1 -5 -2l23 -30h-5q-1 0 -2 1h-2l-2 2
q-1 0 -2 2l-19 25h-12v-30h-7v68h25h3q1 0 3 -1q4 -1 7 -4q1 -2 2 -3l2 -4q1 -1 1 -3v-3v-4q0 -2 -1 -3q0 -2 -1 -4t-2 -3l-2 -2zM647 190q2 0 3 2q1 0 2 1h2l2 3q0 1 1 2q0 1 1 2v4v1q-1 1 -1 3l-1 2q-1 0 -2 2q-1 0 -2 1q-1 0 -2 1h-3h-18v-24h18zM709 164q1 1 2 4
q1 1 2 3v3q0 3 -1 5q-1 0 -1 2l-2 2t-4 2q-2 0 -3 1l-3 1q-2 0 -4 1t-2 2q-5 0 -7 3q-2 0 -2 2q-1 2 -2 3v7v5q0 1 1 3q0 3 4 5l3 3q1 0 4 1q2 0 3 1h4h3q1 -1 2 -1h2l3 -2q1 0 2 -1t1 -2q2 -1 3 -2q0 -1 1 -1l-2 -1q-1 -1 -4 -1h-3q-2 1 -2 2h-1h-1h-1h-1h-1h-1h-4
q-4 0 -4 -1q-3 -3 -3 -4q-2 0 -2 -4q0 -3 2 -3q0 -2 1 -3t3 -1l1 -1q2 -2 3 -2t4 -2h2q1 0 1 -1h2q1 0 2 -2h1h1v0h2l1 -1l3 -3q1 -2 3 -3q1 -5 1 -9v-5q0 -2 -3 -4q0 -3 -4 -6q-1 -1 -3 -2l-4 -2q-2 -1 -4 -1h-5q-5 0 -8 1q-4 1 -7 4q-1 0 -2 1l-2 2v2l-1 1l1 1l1 1h2h1h2
l2 -2q2 -1 3 -2t3 -1q0 -1 2 -1h3q4 0 5 1zM744 222v-68h-8v68h8zM771 164q-6 4 -9 10q-2 7 -2 15v4v4q3 5 4 8q3 4 7 8q3 3 6 5q2 2 5 3q2 0 4 1q2 0 4 1h5h5q2 -1 5 -1q2 -1 4 -1q2 -1 4 -3l3 -2q1 -2 3 -3l3 -3l3 -5q1 -3 3 -8l2 -4v-4q0 -4 -1 -7q-1 -4 -3 -8
q-1 -3 -2 -5q-2 -3 -5 -5q-3 -3 -5 -4l-6 -4q-5 -2 -13 -2q-4 0 -7 1q-4 0 -6 1zM771 199q-2 -3 -3 -6t-1 -4q0 -2 1 -4v-3q1 -4 4 -8q0 -1 1 -2t2 -3l3 -2q1 -2 4 -2q1 -1 3 -2q1 -1 2 -1q2 -1 4 -1h4h4q2 0 3 1q1 0 3 1l4 2q1 0 3 2l2 2q1 2 2 3l2 2l2 4l1 4q0 1 1 3v4v4
q-1 3 -3 6q0 2 -2 4t-3 5q-2 1 -4 3q-2 1 -5 3h-4h-6h-6h-5q-2 -2 -4 -3q-3 -2 -5 -3q-1 -3 -2 -5zM850 154h-8v68h6h3q1 0 2 -2l35 -50q1 0 1 -2l1 -1v55h8v-68h-7l-40 56v2h-1v-58zM955 214v-24h28v-6h-28v-30h-7v68h41v-8h-34zM1032 186q-4 -1 -6 -2l22 -30h-6q-2 0 -4 1
v2q-1 0 -2 2l-19 25h-12v-30h-8v68h25h3q2 0 4 -1l4 -2l2 -2q1 -2 2 -3q1 -2 3 -4q0 -1 1 -3v-3v-4q-1 -2 -1 -3l-2 -4q-1 -2 -1 -3zM1026 192q1 0 2 1h1q3 4 3 5q1 2 1 6q0 1 -1 4q0 1 -3 4q-1 0 -1 1l-2 1h-4h-17v-24h17zM1114 164q-2 -3 -5 -4l-6 -4q-3 -1 -6 -1
q-3 -1 -7 -1t-7 1q-4 0 -7 1q-6 2 -11 8q-2 2 -4 5q-2 2 -3 5l-2 8q-2 3 -2 7q0 1 1 4q0 2 1 4t2 5q0 2 1 3q2 3 4 5q1 1 2 3q2 1 4 3l4 2q2 2 4 3q2 0 4 1q3 0 5 1h4h5q2 -1 4 -1l5 -1l3 -3l4 -2l3 -3q1 -2 3 -3q1 -2 2 -5q3 -3 4 -8l2 -4v-4v-7q-1 -4 -3 -8q-1 -3 -3 -5z
M1090 161h4q2 0 4 1q1 0 3 1l2 2q1 0 3 2l4 2l2 3q0 1 1 2l2 4v4q1 1 1 3v4v4q-1 3 -1 6l-2 4q-2 2 -3 5q-3 1 -5 3q-3 1 -5 3h-5h-5h-5h-6q-3 -2 -4 -3q-2 -2 -4 -3q-3 -3 -4 -5l-2 -4q-1 -3 -1 -6v-4v-7q0 -3 1 -4q0 -2 2 -4q0 -1 2 -2q1 -1 2 -3l3 -2q1 -2 2 -2
q1 -1 3 -2q1 -1 4 -1q1 -1 3 -1h4zM1201 221q1 1 2 1h1h6v-68h-7v56l-1 -1v-1q-2 -4 -3 -8q-1 -5 -3 -8t-3 -6l-4 -7q-1 -4 -2 -7l-2 -6q-2 -3 -3 -5q-2 -3 -3 -7h-7q-5 6 -7 13q-3 7 -6 13q-2 7 -5 14q-4 7 -6 14v1l-2 1v-56h-8v68h7q3 0 4 -1l1 -1v-2l24 -53q0 -1 1 -1v-2
q0 1 1 2v2q0 2 2 4l21 48q0 2 1 2zM36 128h77v-10v-2v-2q0 -2 -1 -3l-2 -2l-52 -71h1v1h2h1h51v-18h-81v6q0 5 1 6q0 1 2 4q1 1 1 2t1 2l2 2l1 3l46 63h-50v19zM127 128h68v-19h-49v-24h39v-20h-39v-26h49v-18h-68v107zM279 109h-29v-88h-21v88h-31v19h81v-19zM328 128
l46 -107h-12q-4 0 -8 2q-2 1 -2 3q-1 2 -3 4l-6 14h-49l-5 -14l-1 -2q-1 -1 -2 -1v-2q-1 -1 -3 -2h-2q-1 -1 -2 -1q0 -1 -1 -1h-2h-12l46 107h18zM334 63l-13 33v2q-1 0 -1 1q0 2 -1 3v-3q0 -1 -1 -1q-1 -1 -1 -2l-13 -33h30zM378 128h68v-19h-49v-27h40v-19h-40v-42h-19
v107zM553 101q2 -3 3 -6t3 -6q1 -4 1 -7v-7v-8q0 -4 -1 -7q-2 -3 -3 -6q-1 -4 -3 -7q-2 -2 -4 -5l-4 -6q-4 -2 -6 -4q-2 -3 -5 -4q-3 -3 -6 -4q-4 -1 -7 -2q-4 -1 -7 -1q-4 -1 -8 -1q-5 0 -10 2q-6 1 -11 2q-6 3 -9 6q-4 3 -9 6q-7 8 -10 17q-3 6 -4 11t-1 11q0 3 1 7
q0 3 1 7q2 8 6 12q2 4 4 7q1 2 3 5q4 2 7 4q2 2 5 4t6 3t7 3q3 0 7 1h7h8q3 -1 7 -1q3 -2 7 -3q3 -1 6 -3t5 -4t6 -4q2 -3 4 -5zM539 62l2 6v7q0 6 -2 12q-2 5 -4 8q-2 2 -5 4l-4 4q-3 2 -6 3q-6 3 -14 3t-14 -3q-2 -1 -4 -3l-6 -4t-4 -4q-2 -3 -4 -8q-2 -2 -2 -5v-7v-7
q0 -3 2 -6l4 -7q1 -3 4 -5l6 -4l4 -4q4 -1 7 -2t7 -1t7 1t7 2l6 4l4 4q3 2 5 5zM649 128h19v-107h-18l-50 72q-1 0 -1 1l-1 1q-1 2 -1 3q-2 0 -2 2v1l-2 1v-81h-19v107h17h4q2 -1 2 -2l3 -1l2 -2q5 -8 11 -15q5 -8 10 -17l12 -14q5 -8 12 -15q0 -2 1 -3v-3q0 -1 1 -2v-2v76z
M678 128h81v-19h-32v-88h-19v88h-30v19zM825 73q1 -2 3 -4l2 -4q0 -2 1 -4q1 -3 1 -7q0 -6 -3 -13l-4 -6q-2 -3 -4 -5q-4 -2 -6 -4t-6 -3t-7 -2q-4 -1 -7 -1q-4 0 -7 1q-4 1 -9 2q-3 1 -5 3q-3 2 -7 6q-2 1 -3 3q-1 1 -2 3q-2 1 -2 6l1 1l1 1q1 0 1 1h1t2 1h1h5h2q1 0 1 -1
q3 0 5 -1q2 -2 4 -3t3 -2q1 0 3 -1t5 -1q1 0 3 1q1 0 3 1q3 1 6 3l4 4q1 2 2 3t1 3q0 4 -3 6q-2 3 -4 3l-3 3h-3q-3 1 -8 4q-2 0 -4 1q-3 0 -5 2q-4 1 -6 3q-2 1 -4 3q-3 2 -4 4q-2 2 -3 4q-3 6 -3 12q0 9 3 13q1 3 3 5t5 4q2 2 5 3l6 3q2 0 5 1h7h4q2 -1 5 -1l4 -2
q1 -1 4 -2q1 -1 3 -2l4 -4l3 -2l2 -4l-4 -2l-2 -2q-2 -1 -2 -2h-4h-2h-2h-1q-3 0 -3 1l-4 2q-1 0 -1 1h-1h-3h-6h-2q-1 -1 -3 -2q-1 -1 -2 -4q-1 -1 -1 -4t1 -3l2 -2v-3h4q1 -1 2 -1l6 -2q2 -1 3 -2l5 -1q2 -2 5 -2q2 -1 5 -4zM857 39q3 0 3 -3q1 0 1 -1v-3q0 -3 -1 -5
q0 -2 -3 -4q-2 0 -3 -2h-2q-1 -1 -3 -1q-1 0 -2 1h-2l-2 2h-2q-1 1 -1 2l-2 2q-1 2 -1 5v3q0 1 1 1q1 2 2 3h1q3 3 4 3l2 2h2h3l2 -2zM898 99q-4 -4 -8 -12q-1 -2 -2 -5q-1 -4 -1 -7q0 -4 1 -7l2 -6l4 -7q1 -3 4 -5q2 -2 5 -4q2 -2 6 -4q4 -1 7 -2t7 -1q3 0 5 1t5 1q2 1 5 3
q2 1 4 3q2 0 4 1h3h3q2 0 3 -1q3 -1 5 -3l3 -5q-3 -4 -8 -7q-3 -2 -5 -3q-2 -2 -5 -3q-3 -2 -5 -2l-6 -2t-5 -1q-3 -1 -6 -1q-7 0 -12 2l-10 2q-10 5 -17 12q-8 8 -12 17q-1 6 -2 11q-2 5 -2 11q0 3 1 7q0 3 1 7l2 6q1 3 3 6q3 4 5 7q1 2 4 5l6 4q2 2 6 4q2 2 5 3t8 3
q2 0 6 1h8h6q2 0 5 -1l6 -2q2 -1 5 -2t5 -2q2 -2 5 -4q5 -4 8 -8l-3 -4l-2 -2q-1 -1 -3 -2h-3h-3h-3q-2 0 -4 1l-4 4q-3 1 -5 2q-3 1 -5 1h-5q-8 0 -14 -3q-4 -1 -6 -3zM1072 101q1 -3 3 -6l2 -6q1 -4 1 -7v-7v-8q0 -4 -1 -7l-2 -6q-2 -4 -3 -7q-4 -5 -8 -11q-4 -2 -7 -4
q-3 -3 -5 -4q-3 -3 -6 -4l-8 -2q-3 -1 -6 -1q-4 -1 -8 -1q-10 0 -21 4l-8 6q-5 3 -8 6q-4 4 -7 8t-5 9q-2 6 -3 11t-1 11q0 3 1 7v7q1 3 3 6t3 6q2 4 4 7l5 5q2 2 5 4l6 4q2 2 6 3q3 1 6 3q4 0 8 1h6h8q3 -1 6 -1q4 -2 8 -3q3 -1 6 -3q2 -2 5 -4t7 -4q1 -3 4 -5zM1057 62
q2 5 2 13v7q-1 3 -2 5q-2 5 -3 8l-4 4q-5 5 -12 7q-3 2 -6 3h-8q-7 0 -13 -3q-3 -1 -5 -3l-6 -4l-4 -4q-2 -3 -4 -8q-1 -2 -1 -5q-1 -4 -1 -7q0 -4 1 -7q0 -3 1 -6q4 -8 8 -12l6 -4q2 -2 5 -4q3 -1 7 -2t6 -1q4 0 8 1l6 2q3 2 7 4q3 2 5 4zM1188 127l1 1h2h19v-107h-19v78
v-2l-2 -3v-3q0 -1 -1 -2q-3 -9 -7 -17q-4 -9 -7 -17l-6 -16q-4 -9 -7 -18h-19l-27 68q-1 1 -1 5q-1 2 -1 3q-1 0 -1 1v-77h-20v107h19h3l1 -1q2 -1 3 -1l1 -1l3 -2l2 -2q1 -1 1 -2q2 -8 6 -15q3 -8 6 -17q3 -8 7 -16l6 -16v-1v-2v-2q2 0 2 -2v2v2q0 1 1 2v1l4 8l22 56
q0 1 1 2v2q1 1 3 2h1q1 1 2 1z" />
    <glyph glyph-name="four" unicode="4" horiz-adv-x="1236" 
d="M1210 533v-286h-1174v286h445q0 15 3 29q2 13 8 26t14 25q7 12 18 21q18 19 44 30q14 6 28 9q13 2 27 2q16 0 30 -3t26 -9q14 -6 26 -14q11 -8 20 -17q18 -18 30 -46q10 -26 10 -53h445zM503 582q-11 -23 -11 -49q0 -28 11 -51q5 -11 12 -22t15 -20q9 -9 20 -16
q10 -7 22 -12q23 -11 51 -11q14 0 27 2q12 2 24 7q12 6 22 13q10 6 19 16q9 9 16 20q7 10 13 21q11 25 11 53q0 11 -2 23q-2 11 -7 21q-6 20 -20 37q-7 8 -15 15t-16 12l-18 10l-20 8q-7 2 -15 3q-9 1 -19 1q-14 0 -27 -2q-13 -3 -25 -9q-24 -9 -42 -28q-8 -9 -14 -20z
M144 337q3 5 3 9v5q-1 2 -3 5q0 1 -2 3l-3 3l-2 4q-2 1 -5 1l-4 2q-3 1 -5 1h-26v-75h8v28h18q2 0 5 1q2 0 4 1q5 2 7 4q1 2 3 4zM200 370h-46v-75h46v9h-35v23h29v10h-29v22h35v11zM273 295l-23 32q1 1 3 1q1 0 2 2q4 2 5 5q1 1 2 3q1 1 2 3v6v5q0 2 -1 4q-2 4 -5 7
q-2 4 -7 4q-1 1 -3 2q-3 1 -5 1h-27v-75h11v31h11l20 -27q1 -2 3 -3q1 -1 2 -1h3h7zM324 308q0 2 1 4v4q0 6 -2 10t-6 7q-1 0 -1 1q-1 1 -3 2v0q-1 0 -3 1h-1q-1 0 -1 2q-3 0 -4 1q-3 0 -4 1l-3 1q-4 1 -4 2q-3 2 -3 3v4v4q1 0 2 1t1 2l2 1h2q2 1 3 1h2h1q1 -1 2 -1
q4 0 4 -2q1 -1 2 -1h2q4 0 7 2l2 1q0 1 -1 2l-2 2q-2 1 -3 2t-3 2q-1 0 -2 1q-1 0 -3 2q-3 0 -3 1h-3h-4q-3 -1 -5 -1l-3 -3q-2 -1 -4 -1q-1 -2 -2 -3q-2 -2 -3 -4t-1 -3q-1 -2 -1 -5v-4q0 -2 2 -4q1 -2 3 -3q1 -2 1 -3l4 -2q2 -2 4 -2l4 -2q1 -1 3 -2q1 -1 3 -1h2
q3 -1 4 -1l1 -1l2 -1q0 -1 1 -3q1 -1 1 -2v-4v-1q0 -2 -1 -3l-1 -2q0 -1 -2 -2q-1 -2 -2 -2q-2 -1 -3 -2h-2h-3h-3h-3l-2 2q-2 0 -2 2l-1 1q-3 2 -6 2h-2q-1 0 -2 -1l-3 -1q0 -2 1 -2q0 -2 2 -3q0 -1 1 -2l1 -1h1q4 -4 9 -5q4 -1 9 -1h5q2 0 4 1t5 2q2 1 3 3q3 1 5 3z
M409 322q1 3 1 5v5q0 6 -1 10q0 3 -1 5q-2 2 -3 5q-2 3 -6 7q-2 2 -4 3t-5 4q-1 0 -3 1t-5 3q-3 0 -5 1h-5h-5q-3 -1 -5 -1q-3 -2 -5 -3t-4 -1q-2 -3 -4 -4t-4 -3l-3 -3q-2 -2 -3 -4q-2 -3 -2 -5q-1 -2 -2 -5q-1 -4 -1 -10q0 -4 1 -7l2 -8q1 -3 3 -6t5 -7l6 -4q3 -2 7 -2
q6 -3 14 -3h5h5q5 2 8 4q7 3 9 5q3 4 6 9q1 2 3 5zM487 370h-10v-58v3l-1 1l-36 51q-2 0 -4 3h-2h-2h-7v-75h10v61l1 -1v-2l43 -58h8v75zM571 295l-33 75h-11l-32 -75h6q3 0 4 1l2 2l2 1l4 13h39l5 -13q1 -2 3 -3q0 -1 4 -1h7zM620 304h-32v66h-11v-75h43v9zM722 370h-10
v-45v-5q0 -2 -1 -4q-1 -4 -5 -6l-2 -2q-2 -1 -3 -3q-3 -1 -4 -1h-4q-5 0 -7 1q-3 2 -5 3t-2 2q-1 1 -2 3l-3 3v4q-1 2 -1 5v45h-10v-45v-5q0 -3 1 -4q0 -4 2 -7q2 -5 6 -7q1 -1 3 -2q1 -1 3 -2q1 -1 3 -1q2 -1 3 -2q3 0 5 -1q1 -1 4 -1q2 0 4 1q1 1 4 1l4 2q1 0 3 1l6 4
q2 2 3 4q0 1 1 3l3 3q1 2 1 4v9v45zM780 308q3 4 3 8q0 6 -2 10t-6 7q-3 2 -3 3h-2q-2 0 -3 1h-1q-2 0 -3 2h-1q-1 0 -2 1q-1 0 -2 1l-3 1q-4 1 -4 2q-2 1 -2 2q-1 1 -2 1v2q-1 0 -1 2t2 4l3 3q1 0 2 1h2q0 1 5 1h1q1 -1 2 -1q1 -1 4 -2q4 -1 5 -1q3 0 4 2l3 1l-2 2l-2 2
q0 1 -1 2q-2 1 -3 2q-2 0 -3 1q-1 0 -3 2q-2 0 -3 1h-2h-5q-2 -1 -4 -1q-2 -2 -4 -3t-3 -1l-3 -3q-1 -2 -3 -4q0 -2 -1 -3q-1 -2 -1 -5t1 -4q1 -2 1 -4q2 -4 5 -6l4 -2q1 -2 2 -2q3 -1 5 -2q1 -1 3 -2t3 -1h2q1 -1 3 -1q1 0 2 -1t3 -1q1 -1 1 -3q1 -1 1 -2v-4v-1q0 -2 -1 -3
q-1 -3 -4 -4q-2 -2 -3 -2l-2 -2h-2h-3h-3h-3q-2 1 -5 4v1q-3 2 -6 2h-1q-2 0 -3 -1l-3 -1l1 -1q0 -1 1 -1q0 -1 1 -1v-2h1v-2q2 -1 3 -1q3 -4 8 -5q4 -1 9 -1h5q2 0 5 1l4 2q2 1 4 3l3 3zM841 370h-46v-75h46v9h-36v23h30v10h-30v22h36v11zM960 322v5v5v6v4q-2 5 -5 10
q-2 3 -6 7q-1 2 -3 3t-4 4q-2 0 -4 1q-3 1 -5 3q-3 0 -5 1h-5h-5q-3 -1 -5 -1q-6 -3 -10 -4q-2 -3 -3 -4q-2 -1 -4 -3l-3 -3l-4 -4q-1 -3 -2 -5t-1 -5q-2 -4 -2 -10q0 -4 1 -7l2 -8q3 -7 9 -13q2 -2 5 -4t7 -2q6 -3 15 -3h5h5q2 1 5 2l4 2q2 2 4 3t3 2q4 4 6 9zM1038 370
h-11v-58v3q-1 1 -2 1l-36 51v1q-1 0 -2 2h-2h-3h-8v-75h12v59l1 -1l42 -58h9v75zM1099 304h-32v66h-11v-75h43v9zM1159 370h-9q-2 0 -4 -2q-4 -2 -4 -4l-17 -23l-1 -1h-1l-1 1l-18 23q-1 2 -3 4t-5 2h-8l27 -37l1 -1q0 -1 1 -1v-1v-1q0 -1 1 -1v-1v-32h11v32v1v2q1 0 1 2v1
h1zM942 352l4 -4q2 -3 3 -5q0 -3 1 -5v-6q0 -6 -1 -11q-1 -3 -3 -5t-4 -3q-2 -2 -4 -3l-4 -4q-6 -2 -11 -2q-3 0 -6 1q-3 0 -5 1q-3 2 -5 4q-2 1 -4 3q-2 1 -3 3q-2 2 -2 5q-2 3 -2 6q-1 2 -1 5q0 5 3 11q0 2 2 5q1 2 3 4l4 4q2 1 5 2q4 2 11 2h5l6 -2l4 -2zM253 343
q0 -1 -2 -4q-1 0 -1 -1q-1 -1 -3 -1q-1 -1 -4 -1h-16v23h16q2 0 4 -1h3l1 -2l2 -4q1 -1 1 -5zM391 352l4 -4q2 -3 3 -5q1 -3 2 -5v-6v-5l-2 -6t-3 -5t-4 -3q-1 -2 -3 -3q-2 -2 -5 -4q-2 -1 -5 -1q-3 -1 -6 -1q-6 0 -11 2l-4 4q-3 1 -5 3l-3 3q-2 2 -3 5l-2 6q-1 2 -1 5
q0 5 3 11q1 2 3 5q2 2 3 4q2 2 5 4l4 2l6 2h5q6 0 11 -2q3 -1 5 -2zM532 358q0 -2 1 -3v-2l14 -31h-29l14 31v2v3zM132 356l2 -2q0 -2 1 -3q1 -2 1 -5v-2q0 -2 -1 -3t-1 -2q-1 -2 -2 -2l-4 -4h-5h-18v26h18q3 0 5 -1q1 0 3 -1zM580 422q-9 4 -18 10q-10 5 -17 12h157
q-8 -7 -17 -12q-9 -6 -19 -10q-10 -3 -21 -6t-22 -3q-12 0 -22 3zM557 457l154 155q14 -19 22 -39t8 -40q0 -11 -1 -21q-2 -11 -6 -21q-4 -9 -9 -17q-5 -9 -11 -17h-157zM534 453q-13 17 -22 36q-3 10 -5 21t-2 23q0 10 2 20t5 20q3 9 8 18q5 8 12 16h156zM666 642
q10 -4 19 -10t16 -11h-158q18 14 37 21q19 9 43 9zM38 171q-2 2 -2 4l-2 4q-1 3 -1 5q-1 2 -1 5t2 8q1 2 2 5q0 2 2 3l2 5q0 1 3 3q0 1 3 3q2 1 3 2q3 2 5 3l4 1q1 0 4 1h5h7q3 -1 7 -3q4 -1 7 -3l4 -4q-1 -1 -2 -1v-2h-1h-1h-2h-3q-2 1 -4 3q-2 1 -4 1h-3h-5h-5h-4l-6 -3
q-2 -2 -4 -3q-2 -3 -3 -5q-2 -2 -3 -4q-2 -3 -2 -6v-4q0 -4 1 -7l2 -4v-4q1 -1 3 -2q1 -1 2 -3q2 -1 3 -2q1 -2 3 -2q1 -1 3 -2t4 -1q1 -1 3 -1h3h5q2 0 4 1q2 0 5 1l4 2v14h-6h-1l-1 1l-1 2l-2 1v1q-1 0 -1 1v1v1h19v-26l-2 -2l-3 -3q-3 -1 -6 -1q-3 -1 -7 -1h-7h-5h-4
q-3 1 -4 2l-5 3q-1 0 -3 2q-3 1 -3 3q-3 1 -3 3zM117 214v-22h27v-7h-27v-23h33v-8h-41v68h41v-8h-33zM180 154v60h-22v8h52v-8h-23v-60h-7zM260 214v-24h29v-6h-29v-30h-8v68h41v-8h-33zM313 222v-42q0 -2 1 -3q1 -2 2 -3q1 -3 3 -4l2 -4q0 -1 2 -2l2 -2q3 -1 5 -1h4h4
q1 0 2 1q3 1 5 2q1 1 3 2q0 2 2 4q1 1 2 4q2 2 2 6v42h7v-42v-5q-1 -2 -2 -5t-2 -5l-4 -4t-4 -3q-2 -2 -4 -3q-6 -1 -11 -1q-6 0 -12 1l-3 3q-3 1 -5 3q-3 3 -5 9q-1 3 -2 5t-1 5v42h7zM383 222v-60h30v-8h-38v68h8zM428 222v-60h32v-8h-39v68h7zM522 154l-30 68h4q2 0 4 -1
q1 -1 2 -1l1 -2l21 -51v-2q1 -1 1 -3v3l1 1v1q3 7 6 13l6 12q2 8 5 14l6 12q0 2 1 2t1 1q1 1 2 1h2h4q-4 -8 -7 -16q-4 -9 -9 -17q-3 -10 -6 -18q-4 -8 -8 -17h-7zM572 214v-22h28v-7h-28v-23h33v-8h-41v68h41v-8h-33zM655 186q-1 -1 -5 -2l23 -30h-5q-1 0 -2 1h-2l-2 2
q-1 0 -2 2l-19 25h-12v-30h-7v68h25h3q1 0 3 -1q4 -1 7 -4q1 -2 2 -3l2 -4q1 -1 1 -3v-3v-4q0 -2 -1 -3q0 -2 -1 -4t-2 -3l-2 -2zM647 190q2 0 3 2q1 0 2 1h2l2 3q0 1 1 2q0 1 1 2v4v1q-1 1 -1 3l-1 2q-1 0 -2 2q-1 0 -2 1q-1 0 -2 1h-3h-18v-24h18zM709 164q1 1 2 4
q1 1 2 3v3q0 3 -1 5q-1 0 -1 2l-2 2t-4 2q-2 0 -3 1l-3 1q-2 0 -4 1t-2 2q-5 0 -7 3q-2 0 -2 2q-1 2 -2 3v7v5q0 1 1 3q0 3 4 5l3 3q1 0 4 1q2 0 3 1h4h3q1 -1 2 -1h2l3 -2q1 0 2 -1t1 -2q2 -1 3 -2q0 -1 1 -1l-2 -1q-1 -1 -4 -1h-3q-2 1 -2 2h-1h-1h-1h-1h-1h-1h-4
q-4 0 -4 -1q-3 -3 -3 -4q-2 0 -2 -4q0 -3 2 -3q0 -2 1 -3t3 -1l1 -1q2 -2 3 -2t4 -2h2q1 0 1 -1h2q1 0 2 -2h1h1v0h2l1 -1l3 -3q1 -2 3 -3q1 -5 1 -9v-5q0 -2 -3 -4q0 -3 -4 -6q-1 -1 -3 -2l-4 -2q-2 -1 -4 -1h-5q-5 0 -8 1q-4 1 -7 4q-1 0 -2 1l-2 2v2l-1 1l1 1l1 1h2h1h2
l2 -2q2 -1 3 -2t3 -1q0 -1 2 -1h3q4 0 5 1zM744 222v-68h-8v68h8zM771 164q-6 4 -9 10q-2 7 -2 15v4v4q3 5 4 8q3 4 7 8q3 3 6 5q2 2 5 3q2 0 4 1q2 0 4 1h5h5q2 -1 5 -1q2 -1 4 -1q2 -1 4 -3l3 -2q1 -2 3 -3l3 -3l3 -5q1 -3 3 -8l2 -4v-4q0 -4 -1 -7q-1 -4 -3 -8
q-1 -3 -2 -5q-2 -3 -5 -5q-3 -3 -5 -4l-6 -4q-5 -2 -13 -2q-4 0 -7 1q-4 0 -6 1zM771 199q-2 -3 -3 -6t-1 -4q0 -2 1 -4v-3q1 -4 4 -8q0 -1 1 -2t2 -3l3 -2q1 -2 4 -2q1 -1 3 -2q1 -1 2 -1q2 -1 4 -1h4h4q2 0 3 1q1 0 3 1l4 2q1 0 3 2l2 2q1 2 2 3l2 2l2 4l1 4q0 1 1 3v4v4
q-1 3 -3 6q0 2 -2 4t-3 5q-2 1 -4 3q-2 1 -5 3h-4h-6h-6h-5q-2 -2 -4 -3q-3 -2 -5 -3q-1 -3 -2 -5zM850 154h-8v68h6h3q1 0 2 -2l35 -50q1 0 1 -2l1 -1v55h8v-68h-7l-40 56v2h-1v-58zM955 214v-24h28v-6h-28v-30h-7v68h41v-8h-34zM1032 186q-4 -1 -6 -2l22 -30h-6q-2 0 -4 1
v2q-1 0 -2 2l-19 25h-12v-30h-8v68h25h3q2 0 4 -1l4 -2l2 -2q1 -2 2 -3q1 -2 3 -4q0 -1 1 -3v-3v-4q-1 -2 -1 -3l-2 -4q-1 -2 -1 -3zM1026 192q1 0 2 1h1q3 4 3 5q1 2 1 6q0 1 -1 4q0 1 -3 4q-1 0 -1 1l-2 1h-4h-17v-24h17zM1114 164q-2 -3 -5 -4l-6 -4q-3 -1 -6 -1
q-3 -1 -7 -1t-7 1q-4 0 -7 1q-6 2 -11 8q-2 2 -4 5q-2 2 -3 5l-2 8q-2 3 -2 7q0 1 1 4q0 2 1 4t2 5q0 2 1 3q2 3 4 5q1 1 2 3q2 1 4 3l4 2q2 2 4 3q2 0 4 1q3 0 5 1h4h5q2 -1 4 -1l5 -1l3 -3l4 -2l3 -3q1 -2 3 -3q1 -2 2 -5q3 -3 4 -8l2 -4v-4v-7q-1 -4 -3 -8q-1 -3 -3 -5z
M1090 161h4q2 0 4 1q1 0 3 1l2 2q1 0 3 2l4 2l2 3q0 1 1 2l2 4v4q1 1 1 3v4v4q-1 3 -1 6l-2 4q-2 2 -3 5q-3 1 -5 3q-3 1 -5 3h-5h-5h-5h-6q-3 -2 -4 -3q-2 -2 -4 -3q-3 -3 -4 -5l-2 -4q-1 -3 -1 -6v-4v-7q0 -3 1 -4q0 -2 2 -4q0 -1 2 -2q1 -1 2 -3l3 -2q1 -2 2 -2
q1 -1 3 -2q1 -1 4 -1q1 -1 3 -1h4zM1201 221q1 1 2 1h1h6v-68h-7v56l-1 -1v-1q-2 -4 -3 -8q-1 -5 -3 -8t-3 -6l-4 -7q-1 -4 -2 -7l-2 -6q-2 -3 -3 -5q-2 -3 -3 -7h-7q-5 6 -7 13q-3 7 -6 13q-2 7 -5 14q-4 7 -6 14v1l-2 1v-56h-8v68h7q3 0 4 -1l1 -1v-2l24 -53q0 -1 1 -1v-2
q0 1 1 2v2q0 2 2 4l21 48q0 2 1 2zM36 128h77v-10v-2v-2q0 -2 -1 -3l-2 -2l-52 -71h1v1h2h1h51v-18h-81v6q0 5 1 6q0 1 2 4q1 1 1 2t1 2l2 2l1 3l46 63h-50v19zM127 128h68v-19h-49v-24h39v-20h-39v-26h49v-18h-68v107zM279 109h-29v-88h-21v88h-31v19h81v-19zM328 128
l46 -107h-12q-4 0 -8 2q-2 1 -2 3q-1 2 -3 4l-6 14h-49l-5 -14l-1 -2q-1 -1 -2 -1v-2q-1 -1 -3 -2h-2q-1 -1 -2 -1q0 -1 -1 -1h-2h-12l46 107h18zM334 63l-13 33v2q-1 0 -1 1q0 2 -1 3v-3q0 -1 -1 -1q-1 -1 -1 -2l-13 -33h30zM378 128h68v-19h-49v-27h40v-19h-40v-42h-19
v107zM553 101q2 -3 3 -6t3 -6q1 -4 1 -7v-7v-8q0 -4 -1 -7q-2 -3 -3 -6q-1 -4 -3 -7q-2 -2 -4 -5l-4 -6q-4 -2 -6 -4q-2 -3 -5 -4q-3 -3 -6 -4q-4 -1 -7 -2q-4 -1 -7 -1q-4 -1 -8 -1q-5 0 -10 2q-6 1 -11 2q-6 3 -9 6q-4 3 -9 6q-7 8 -10 17q-3 6 -4 11t-1 11q0 3 1 7
q0 3 1 7q2 8 6 12q2 4 4 7q1 2 3 5q4 2 7 4q2 2 5 4t6 3t7 3q3 0 7 1h7h8q3 -1 7 -1q3 -2 7 -3q3 -1 6 -3t5 -4t6 -4q2 -3 4 -5zM539 62l2 6v7q0 6 -2 12q-2 5 -4 8q-2 2 -5 4l-4 4q-3 2 -6 3q-6 3 -14 3t-14 -3q-2 -1 -4 -3l-6 -4t-4 -4q-2 -3 -4 -8q-2 -2 -2 -5v-7v-7
q0 -3 2 -6l4 -7q1 -3 4 -5l6 -4l4 -4q4 -1 7 -2t7 -1t7 1t7 2l6 4l4 4q3 2 5 5zM649 128h19v-107h-18l-50 72q-1 0 -1 1l-1 1q-1 2 -1 3q-2 0 -2 2v1l-2 1v-81h-19v107h17h4q2 -1 2 -2l3 -1l2 -2q5 -8 11 -15q5 -8 10 -17l12 -14q5 -8 12 -15q0 -2 1 -3v-3q0 -1 1 -2v-2v76z
M678 128h81v-19h-32v-88h-19v88h-30v19zM825 73q1 -2 3 -4l2 -4q0 -2 1 -4q1 -3 1 -7q0 -6 -3 -13l-4 -6q-2 -3 -4 -5q-4 -2 -6 -4t-6 -3t-7 -2q-4 -1 -7 -1q-4 0 -7 1q-4 1 -9 2q-3 1 -5 3q-3 2 -7 6q-2 1 -3 3q-1 1 -2 3q-2 1 -2 6l1 1l1 1q1 0 1 1h1t2 1h1h5h2q1 0 1 -1
q3 0 5 -1q2 -2 4 -3t3 -2q1 0 3 -1t5 -1q1 0 3 1q1 0 3 1q3 1 6 3l4 4q1 2 2 3t1 3q0 4 -3 6q-2 3 -4 3l-3 3h-3q-3 1 -8 4q-2 0 -4 1q-3 0 -5 2q-4 1 -6 3q-2 1 -4 3q-3 2 -4 4q-2 2 -3 4q-3 6 -3 12q0 9 3 13q1 3 3 5t5 4q2 2 5 3l6 3q2 0 5 1h7h4q2 -1 5 -1l4 -2
q1 -1 4 -2q1 -1 3 -2l4 -4l3 -2l2 -4l-4 -2l-2 -2q-2 -1 -2 -2h-4h-2h-2h-1q-3 0 -3 1l-4 2q-1 0 -1 1h-1h-3h-6h-2q-1 -1 -3 -2q-1 -1 -2 -4q-1 -1 -1 -4t1 -3l2 -2v-3h4q1 -1 2 -1l6 -2q2 -1 3 -2l5 -1q2 -2 5 -2q2 -1 5 -4zM857 39q3 0 3 -3q1 0 1 -1v-3q0 -3 -1 -5
q0 -2 -3 -4q-2 0 -3 -2h-2q-1 -1 -3 -1q-1 0 -2 1h-2l-2 2h-2q-1 1 -1 2l-2 2q-1 2 -1 5v3q0 1 1 1q1 2 2 3h1q3 3 4 3l2 2h2h3l2 -2zM898 99q-4 -4 -8 -12q-1 -2 -2 -5q-1 -4 -1 -7q0 -4 1 -7l2 -6l4 -7q1 -3 4 -5q2 -2 5 -4q2 -2 6 -4q4 -1 7 -2t7 -1q3 0 5 1t5 1q2 1 5 3
q2 1 4 3q2 0 4 1h3h3q2 0 3 -1q3 -1 5 -3l3 -5q-3 -4 -8 -7q-3 -2 -5 -3q-2 -2 -5 -3q-3 -2 -5 -2l-6 -2t-5 -1q-3 -1 -6 -1q-7 0 -12 2l-10 2q-10 5 -17 12q-8 8 -12 17q-1 6 -2 11q-2 5 -2 11q0 3 1 7q0 3 1 7l2 6q1 3 3 6q3 4 5 7q1 2 4 5l6 4q2 2 6 4q2 2 5 3t8 3
q2 0 6 1h8h6q2 0 5 -1l6 -2q2 -1 5 -2t5 -2q2 -2 5 -4q5 -4 8 -8l-3 -4l-2 -2q-1 -1 -3 -2h-3h-3h-3q-2 0 -4 1l-4 4q-3 1 -5 2q-3 1 -5 1h-5q-8 0 -14 -3q-4 -1 -6 -3zM1072 101q1 -3 3 -6l2 -6q1 -4 1 -7v-7v-8q0 -4 -1 -7l-2 -6q-2 -4 -3 -7q-4 -5 -8 -11q-4 -2 -7 -4
q-3 -3 -5 -4q-3 -3 -6 -4l-8 -2q-3 -1 -6 -1q-4 -1 -8 -1q-10 0 -21 4l-8 6q-5 3 -8 6q-4 4 -7 8t-5 9q-2 6 -3 11t-1 11q0 3 1 7v7q1 3 3 6t3 6q2 4 4 7l5 5q2 2 5 4l6 4q2 2 6 3q3 1 6 3q4 0 8 1h6h8q3 -1 6 -1q4 -2 8 -3q3 -1 6 -3q2 -2 5 -4t7 -4q1 -3 4 -5zM1057 62
q2 5 2 13v7q-1 3 -2 5q-2 5 -3 8l-4 4q-5 5 -12 7q-3 2 -6 3h-8q-7 0 -13 -3q-3 -1 -5 -3l-6 -4l-4 -4q-2 -3 -4 -8q-1 -2 -1 -5q-1 -4 -1 -7q0 -4 1 -7q0 -3 1 -6q4 -8 8 -12l6 -4q2 -2 5 -4q3 -1 7 -2t6 -1q4 0 8 1l6 2q3 2 7 4q3 2 5 4zM1188 127l1 1h2h19v-107h-19v78
v-2l-2 -3v-3q0 -1 -1 -2q-3 -9 -7 -17q-4 -9 -7 -17l-6 -16q-4 -9 -7 -18h-19l-27 68q-1 1 -1 5q-1 2 -1 3q-1 0 -1 1v-77h-20v107h19h3l1 -1q2 -1 3 -1l1 -1l3 -2l2 -2q1 -1 1 -2q2 -8 6 -15q3 -8 6 -17q3 -8 7 -16l6 -16v-1v-2v-2q2 0 2 -2v2v2q0 1 1 2v1l4 8l22 56
q0 1 1 2v2q1 1 3 2h1q1 1 2 1z" />
    <glyph glyph-name="five" unicode="5" horiz-adv-x="1236" 
d="M1210 533v-286h-1174v286h445q0 15 3 29q2 13 8 26t14 25q7 12 18 21q18 19 44 30q14 6 28 9q13 2 27 2q16 0 30 -3t26 -9q14 -6 26 -14q11 -8 20 -17q18 -18 30 -46q10 -26 10 -53h445zM503 582q-11 -23 -11 -49q0 -28 11 -51q5 -11 12 -22t15 -20q9 -9 20 -16
q10 -7 22 -12q23 -11 51 -11q14 0 27 2q12 2 24 7q12 6 22 13q10 6 19 16q9 9 16 20q7 10 13 21q11 25 11 53q0 11 -2 23q-2 11 -7 21q-6 20 -20 37q-7 8 -15 15t-16 12l-18 10l-20 8q-7 2 -15 3q-9 1 -19 1q-14 0 -27 -2q-13 -3 -25 -9q-24 -9 -42 -28q-8 -9 -14 -20z
M144 337q3 5 3 9v5q-1 2 -3 5q0 1 -2 3l-3 3l-2 4q-2 1 -5 1l-4 2q-3 1 -5 1h-26v-75h8v28h18q2 0 5 1q2 0 4 1q5 2 7 4q1 2 3 4zM200 370h-46v-75h46v9h-35v23h29v10h-29v22h35v11zM273 295l-23 32q1 1 3 1q1 0 2 2q4 2 5 5q1 1 2 3q1 1 2 3v6v5q0 2 -1 4q-2 4 -5 7
q-2 4 -7 4q-1 1 -3 2q-3 1 -5 1h-27v-75h11v31h11l20 -27q1 -2 3 -3q1 -1 2 -1h3h7zM324 308q0 2 1 4v4q0 6 -2 10t-6 7q-1 0 -1 1q-1 1 -3 2v0q-1 0 -3 1h-1q-1 0 -1 2q-3 0 -4 1q-3 0 -4 1l-3 1q-4 1 -4 2q-3 2 -3 3v4v4q1 0 2 1t1 2l2 1h2q2 1 3 1h2h1q1 -1 2 -1
q4 0 4 -2q1 -1 2 -1h2q4 0 7 2l2 1q0 1 -1 2l-2 2q-2 1 -3 2t-3 2q-1 0 -2 1q-1 0 -3 2q-3 0 -3 1h-3h-4q-3 -1 -5 -1l-3 -3q-2 -1 -4 -1q-1 -2 -2 -3q-2 -2 -3 -4t-1 -3q-1 -2 -1 -5v-4q0 -2 2 -4q1 -2 3 -3q1 -2 1 -3l4 -2q2 -2 4 -2l4 -2q1 -1 3 -2q1 -1 3 -1h2
q3 -1 4 -1l1 -1l2 -1q0 -1 1 -3q1 -1 1 -2v-4v-1q0 -2 -1 -3l-1 -2q0 -1 -2 -2q-1 -2 -2 -2q-2 -1 -3 -2h-2h-3h-3h-3l-2 2q-2 0 -2 2l-1 1q-3 2 -6 2h-2q-1 0 -2 -1l-3 -1q0 -2 1 -2q0 -2 2 -3q0 -1 1 -2l1 -1h1q4 -4 9 -5q4 -1 9 -1h5q2 0 4 1t5 2q2 1 3 3q3 1 5 3z
M409 322q1 3 1 5v5q0 6 -1 10q0 3 -1 5q-2 2 -3 5q-2 3 -6 7q-2 2 -4 3t-5 4q-1 0 -3 1t-5 3q-3 0 -5 1h-5h-5q-3 -1 -5 -1q-3 -2 -5 -3t-4 -1q-2 -3 -4 -4t-4 -3l-3 -3q-2 -2 -3 -4q-2 -3 -2 -5q-1 -2 -2 -5q-1 -4 -1 -10q0 -4 1 -7l2 -8q1 -3 3 -6t5 -7l6 -4q3 -2 7 -2
q6 -3 14 -3h5h5q5 2 8 4q7 3 9 5q3 4 6 9q1 2 3 5zM487 370h-10v-58v3l-1 1l-36 51q-2 0 -4 3h-2h-2h-7v-75h10v61l1 -1v-2l43 -58h8v75zM571 295l-33 75h-11l-32 -75h6q3 0 4 1l2 2l2 1l4 13h39l5 -13q1 -2 3 -3q0 -1 4 -1h7zM620 304h-32v66h-11v-75h43v9zM722 370h-10
v-45v-5q0 -2 -1 -4q-1 -4 -5 -6l-2 -2q-2 -1 -3 -3q-3 -1 -4 -1h-4q-5 0 -7 1q-3 2 -5 3t-2 2q-1 1 -2 3l-3 3v4q-1 2 -1 5v45h-10v-45v-5q0 -3 1 -4q0 -4 2 -7q2 -5 6 -7q1 -1 3 -2q1 -1 3 -2q1 -1 3 -1q2 -1 3 -2q3 0 5 -1q1 -1 4 -1q2 0 4 1q1 1 4 1l4 2q1 0 3 1l6 4
q2 2 3 4q0 1 1 3l3 3q1 2 1 4v9v45zM780 308q3 4 3 8q0 6 -2 10t-6 7q-3 2 -3 3h-2q-2 0 -3 1h-1q-2 0 -3 2h-1q-1 0 -2 1q-1 0 -2 1l-3 1q-4 1 -4 2q-2 1 -2 2q-1 1 -2 1v2q-1 0 -1 2t2 4l3 3q1 0 2 1h2q0 1 5 1h1q1 -1 2 -1q1 -1 4 -2q4 -1 5 -1q3 0 4 2l3 1l-2 2l-2 2
q0 1 -1 2q-2 1 -3 2q-2 0 -3 1q-1 0 -3 2q-2 0 -3 1h-2h-5q-2 -1 -4 -1q-2 -2 -4 -3t-3 -1l-3 -3q-1 -2 -3 -4q0 -2 -1 -3q-1 -2 -1 -5t1 -4q1 -2 1 -4q2 -4 5 -6l4 -2q1 -2 2 -2q3 -1 5 -2q1 -1 3 -2t3 -1h2q1 -1 3 -1q1 0 2 -1t3 -1q1 -1 1 -3q1 -1 1 -2v-4v-1q0 -2 -1 -3
q-1 -3 -4 -4q-2 -2 -3 -2l-2 -2h-2h-3h-3h-3q-2 1 -5 4v1q-3 2 -6 2h-1q-2 0 -3 -1l-3 -1l1 -1q0 -1 1 -1q0 -1 1 -1v-2h1v-2q2 -1 3 -1q3 -4 8 -5q4 -1 9 -1h5q2 0 5 1l4 2q2 1 4 3l3 3zM841 370h-46v-75h46v9h-36v23h30v10h-30v22h36v11zM960 322v5v5v6v4q-2 5 -5 10
q-2 3 -6 7q-1 2 -3 3t-4 4q-2 0 -4 1q-3 1 -5 3q-3 0 -5 1h-5h-5q-3 -1 -5 -1q-6 -3 -10 -4q-2 -3 -3 -4q-2 -1 -4 -3l-3 -3l-4 -4q-1 -3 -2 -5t-1 -5q-2 -4 -2 -10q0 -4 1 -7l2 -8q3 -7 9 -13q2 -2 5 -4t7 -2q6 -3 15 -3h5h5q2 1 5 2l4 2q2 2 4 3t3 2q4 4 6 9zM1038 370
h-11v-58v3q-1 1 -2 1l-36 51v1q-1 0 -2 2h-2h-3h-8v-75h12v59l1 -1l42 -58h9v75zM1099 304h-32v66h-11v-75h43v9zM1159 370h-9q-2 0 -4 -2q-4 -2 -4 -4l-17 -23l-1 -1h-1l-1 1l-18 23q-1 2 -3 4t-5 2h-8l27 -37l1 -1q0 -1 1 -1v-1v-1q0 -1 1 -1v-1v-32h11v32v1v2q1 0 1 2v1
h1zM942 352l4 -4q2 -3 3 -5q0 -3 1 -5v-6q0 -6 -1 -11q-1 -3 -3 -5t-4 -3q-2 -2 -4 -3l-4 -4q-6 -2 -11 -2q-3 0 -6 1q-3 0 -5 1q-3 2 -5 4q-2 1 -4 3q-2 1 -3 3q-2 2 -2 5q-2 3 -2 6q-1 2 -1 5q0 5 3 11q0 2 2 5q1 2 3 4l4 4q2 1 5 2q4 2 11 2h5l6 -2l4 -2zM253 343
q0 -1 -2 -4q-1 0 -1 -1q-1 -1 -3 -1q-1 -1 -4 -1h-16v23h16q2 0 4 -1h3l1 -2l2 -4q1 -1 1 -5zM391 352l4 -4q2 -3 3 -5q1 -3 2 -5v-6v-5l-2 -6t-3 -5t-4 -3q-1 -2 -3 -3q-2 -2 -5 -4q-2 -1 -5 -1q-3 -1 -6 -1q-6 0 -11 2l-4 4q-3 1 -5 3l-3 3q-2 2 -3 5l-2 6q-1 2 -1 5
q0 5 3 11q1 2 3 5q2 2 3 4q2 2 5 4l4 2l6 2h5q6 0 11 -2q3 -1 5 -2zM532 358q0 -2 1 -3v-2l14 -31h-29l14 31v2v3zM132 356l2 -2q0 -2 1 -3q1 -2 1 -5v-2q0 -2 -1 -3t-1 -2q-1 -2 -2 -2l-4 -4h-5h-18v26h18q3 0 5 -1q1 0 3 -1zM580 422q-9 4 -18 10q-10 5 -17 12h157
q-8 -7 -17 -12q-9 -6 -19 -10q-10 -3 -21 -6t-22 -3q-12 0 -22 3zM557 457l154 155q14 -19 22 -39t8 -40q0 -11 -1 -21q-2 -11 -6 -21q-4 -9 -9 -17q-5 -9 -11 -17h-157zM534 453q-13 17 -22 36q-3 10 -5 21t-2 23q0 10 2 20t5 20q3 9 8 18q5 8 12 16h156zM666 642
q10 -4 19 -10t16 -11h-158q18 14 37 21q19 9 43 9zM38 171q-2 2 -2 4l-2 4q-1 3 -1 5q-1 2 -1 5t2 8q1 2 2 5q0 2 2 3l2 5q0 1 3 3q0 1 3 3q2 1 3 2q3 2 5 3l4 1q1 0 4 1h5h7q3 -1 7 -3q4 -1 7 -3l4 -4q-1 -1 -2 -1v-2h-1h-1h-2h-3q-2 1 -4 3q-2 1 -4 1h-3h-5h-5h-4l-6 -3
q-2 -2 -4 -3q-2 -3 -3 -5q-2 -2 -3 -4q-2 -3 -2 -6v-4q0 -4 1 -7l2 -4v-4q1 -1 3 -2q1 -1 2 -3q2 -1 3 -2q1 -2 3 -2q1 -1 3 -2t4 -1q1 -1 3 -1h3h5q2 0 4 1q2 0 5 1l4 2v14h-6h-1l-1 1l-1 2l-2 1v1q-1 0 -1 1v1v1h19v-26l-2 -2l-3 -3q-3 -1 -6 -1q-3 -1 -7 -1h-7h-5h-4
q-3 1 -4 2l-5 3q-1 0 -3 2q-3 1 -3 3q-3 1 -3 3zM117 214v-22h27v-7h-27v-23h33v-8h-41v68h41v-8h-33zM180 154v60h-22v8h52v-8h-23v-60h-7zM260 214v-24h29v-6h-29v-30h-8v68h41v-8h-33zM313 222v-42q0 -2 1 -3q1 -2 2 -3q1 -3 3 -4l2 -4q0 -1 2 -2l2 -2q3 -1 5 -1h4h4
q1 0 2 1q3 1 5 2q1 1 3 2q0 2 2 4q1 1 2 4q2 2 2 6v42h7v-42v-5q-1 -2 -2 -5t-2 -5l-4 -4t-4 -3q-2 -2 -4 -3q-6 -1 -11 -1q-6 0 -12 1l-3 3q-3 1 -5 3q-3 3 -5 9q-1 3 -2 5t-1 5v42h7zM383 222v-60h30v-8h-38v68h8zM428 222v-60h32v-8h-39v68h7zM522 154l-30 68h4q2 0 4 -1
q1 -1 2 -1l1 -2l21 -51v-2q1 -1 1 -3v3l1 1v1q3 7 6 13l6 12q2 8 5 14l6 12q0 2 1 2t1 1q1 1 2 1h2h4q-4 -8 -7 -16q-4 -9 -9 -17q-3 -10 -6 -18q-4 -8 -8 -17h-7zM572 214v-22h28v-7h-28v-23h33v-8h-41v68h41v-8h-33zM655 186q-1 -1 -5 -2l23 -30h-5q-1 0 -2 1h-2l-2 2
q-1 0 -2 2l-19 25h-12v-30h-7v68h25h3q1 0 3 -1q4 -1 7 -4q1 -2 2 -3l2 -4q1 -1 1 -3v-3v-4q0 -2 -1 -3q0 -2 -1 -4t-2 -3l-2 -2zM647 190q2 0 3 2q1 0 2 1h2l2 3q0 1 1 2q0 1 1 2v4v1q-1 1 -1 3l-1 2q-1 0 -2 2q-1 0 -2 1q-1 0 -2 1h-3h-18v-24h18zM709 164q1 1 2 4
q1 1 2 3v3q0 3 -1 5q-1 0 -1 2l-2 2t-4 2q-2 0 -3 1l-3 1q-2 0 -4 1t-2 2q-5 0 -7 3q-2 0 -2 2q-1 2 -2 3v7v5q0 1 1 3q0 3 4 5l3 3q1 0 4 1q2 0 3 1h4h3q1 -1 2 -1h2l3 -2q1 0 2 -1t1 -2q2 -1 3 -2q0 -1 1 -1l-2 -1q-1 -1 -4 -1h-3q-2 1 -2 2h-1h-1h-1h-1h-1h-1h-4
q-4 0 -4 -1q-3 -3 -3 -4q-2 0 -2 -4q0 -3 2 -3q0 -2 1 -3t3 -1l1 -1q2 -2 3 -2t4 -2h2q1 0 1 -1h2q1 0 2 -2h1h1v0h2l1 -1l3 -3q1 -2 3 -3q1 -5 1 -9v-5q0 -2 -3 -4q0 -3 -4 -6q-1 -1 -3 -2l-4 -2q-2 -1 -4 -1h-5q-5 0 -8 1q-4 1 -7 4q-1 0 -2 1l-2 2v2l-1 1l1 1l1 1h2h1h2
l2 -2q2 -1 3 -2t3 -1q0 -1 2 -1h3q4 0 5 1zM744 222v-68h-8v68h8zM771 164q-6 4 -9 10q-2 7 -2 15v4v4q3 5 4 8q3 4 7 8q3 3 6 5q2 2 5 3q2 0 4 1q2 0 4 1h5h5q2 -1 5 -1q2 -1 4 -1q2 -1 4 -3l3 -2q1 -2 3 -3l3 -3l3 -5q1 -3 3 -8l2 -4v-4q0 -4 -1 -7q-1 -4 -3 -8
q-1 -3 -2 -5q-2 -3 -5 -5q-3 -3 -5 -4l-6 -4q-5 -2 -13 -2q-4 0 -7 1q-4 0 -6 1zM771 199q-2 -3 -3 -6t-1 -4q0 -2 1 -4v-3q1 -4 4 -8q0 -1 1 -2t2 -3l3 -2q1 -2 4 -2q1 -1 3 -2q1 -1 2 -1q2 -1 4 -1h4h4q2 0 3 1q1 0 3 1l4 2q1 0 3 2l2 2q1 2 2 3l2 2l2 4l1 4q0 1 1 3v4v4
q-1 3 -3 6q0 2 -2 4t-3 5q-2 1 -4 3q-2 1 -5 3h-4h-6h-6h-5q-2 -2 -4 -3q-3 -2 -5 -3q-1 -3 -2 -5zM850 154h-8v68h6h3q1 0 2 -2l35 -50q1 0 1 -2l1 -1v55h8v-68h-7l-40 56v2h-1v-58zM955 214v-24h28v-6h-28v-30h-7v68h41v-8h-34zM1032 186q-4 -1 -6 -2l22 -30h-6q-2 0 -4 1
v2q-1 0 -2 2l-19 25h-12v-30h-8v68h25h3q2 0 4 -1l4 -2l2 -2q1 -2 2 -3q1 -2 3 -4q0 -1 1 -3v-3v-4q-1 -2 -1 -3l-2 -4q-1 -2 -1 -3zM1026 192q1 0 2 1h1q3 4 3 5q1 2 1 6q0 1 -1 4q0 1 -3 4q-1 0 -1 1l-2 1h-4h-17v-24h17zM1114 164q-2 -3 -5 -4l-6 -4q-3 -1 -6 -1
q-3 -1 -7 -1t-7 1q-4 0 -7 1q-6 2 -11 8q-2 2 -4 5q-2 2 -3 5l-2 8q-2 3 -2 7q0 1 1 4q0 2 1 4t2 5q0 2 1 3q2 3 4 5q1 1 2 3q2 1 4 3l4 2q2 2 4 3q2 0 4 1q3 0 5 1h4h5q2 -1 4 -1l5 -1l3 -3l4 -2l3 -3q1 -2 3 -3q1 -2 2 -5q3 -3 4 -8l2 -4v-4v-7q-1 -4 -3 -8q-1 -3 -3 -5z
M1090 161h4q2 0 4 1q1 0 3 1l2 2q1 0 3 2l4 2l2 3q0 1 1 2l2 4v4q1 1 1 3v4v4q-1 3 -1 6l-2 4q-2 2 -3 5q-3 1 -5 3q-3 1 -5 3h-5h-5h-5h-6q-3 -2 -4 -3q-2 -2 -4 -3q-3 -3 -4 -5l-2 -4q-1 -3 -1 -6v-4v-7q0 -3 1 -4q0 -2 2 -4q0 -1 2 -2q1 -1 2 -3l3 -2q1 -2 2 -2
q1 -1 3 -2q1 -1 4 -1q1 -1 3 -1h4zM1201 221q1 1 2 1h1h6v-68h-7v56l-1 -1v-1q-2 -4 -3 -8q-1 -5 -3 -8t-3 -6l-4 -7q-1 -4 -2 -7l-2 -6q-2 -3 -3 -5q-2 -3 -3 -7h-7q-5 6 -7 13q-3 7 -6 13q-2 7 -5 14q-4 7 -6 14v1l-2 1v-56h-8v68h7q3 0 4 -1l1 -1v-2l24 -53q0 -1 1 -1v-2
q0 1 1 2v2q0 2 2 4l21 48q0 2 1 2zM36 128h77v-10v-2v-2q0 -2 -1 -3l-2 -2l-52 -71h1v1h2h1h51v-18h-81v6q0 5 1 6q0 1 2 4q1 1 1 2t1 2l2 2l1 3l46 63h-50v19zM127 128h68v-19h-49v-24h39v-20h-39v-26h49v-18h-68v107zM279 109h-29v-88h-21v88h-31v19h81v-19zM328 128
l46 -107h-12q-4 0 -8 2q-2 1 -2 3q-1 2 -3 4l-6 14h-49l-5 -14l-1 -2q-1 -1 -2 -1v-2q-1 -1 -3 -2h-2q-1 -1 -2 -1q0 -1 -1 -1h-2h-12l46 107h18zM334 63l-13 33v2q-1 0 -1 1q0 2 -1 3v-3q0 -1 -1 -1q-1 -1 -1 -2l-13 -33h30zM378 128h68v-19h-49v-27h40v-19h-40v-42h-19
v107zM553 101q2 -3 3 -6t3 -6q1 -4 1 -7v-7v-8q0 -4 -1 -7q-2 -3 -3 -6q-1 -4 -3 -7q-2 -2 -4 -5l-4 -6q-4 -2 -6 -4q-2 -3 -5 -4q-3 -3 -6 -4q-4 -1 -7 -2q-4 -1 -7 -1q-4 -1 -8 -1q-5 0 -10 2q-6 1 -11 2q-6 3 -9 6q-4 3 -9 6q-7 8 -10 17q-3 6 -4 11t-1 11q0 3 1 7
q0 3 1 7q2 8 6 12q2 4 4 7q1 2 3 5q4 2 7 4q2 2 5 4t6 3t7 3q3 0 7 1h7h8q3 -1 7 -1q3 -2 7 -3q3 -1 6 -3t5 -4t6 -4q2 -3 4 -5zM539 62l2 6v7q0 6 -2 12q-2 5 -4 8q-2 2 -5 4l-4 4q-3 2 -6 3q-6 3 -14 3t-14 -3q-2 -1 -4 -3l-6 -4t-4 -4q-2 -3 -4 -8q-2 -2 -2 -5v-7v-7
q0 -3 2 -6l4 -7q1 -3 4 -5l6 -4l4 -4q4 -1 7 -2t7 -1t7 1t7 2l6 4l4 4q3 2 5 5zM649 128h19v-107h-18l-50 72q-1 0 -1 1l-1 1q-1 2 -1 3q-2 0 -2 2v1l-2 1v-81h-19v107h17h4q2 -1 2 -2l3 -1l2 -2q5 -8 11 -15q5 -8 10 -17l12 -14q5 -8 12 -15q0 -2 1 -3v-3q0 -1 1 -2v-2v76z
M678 128h81v-19h-32v-88h-19v88h-30v19zM825 73q1 -2 3 -4l2 -4q0 -2 1 -4q1 -3 1 -7q0 -6 -3 -13l-4 -6q-2 -3 -4 -5q-4 -2 -6 -4t-6 -3t-7 -2q-4 -1 -7 -1q-4 0 -7 1q-4 1 -9 2q-3 1 -5 3q-3 2 -7 6q-2 1 -3 3q-1 1 -2 3q-2 1 -2 6l1 1l1 1q1 0 1 1h1t2 1h1h5h2q1 0 1 -1
q3 0 5 -1q2 -2 4 -3t3 -2q1 0 3 -1t5 -1q1 0 3 1q1 0 3 1q3 1 6 3l4 4q1 2 2 3t1 3q0 4 -3 6q-2 3 -4 3l-3 3h-3q-3 1 -8 4q-2 0 -4 1q-3 0 -5 2q-4 1 -6 3q-2 1 -4 3q-3 2 -4 4q-2 2 -3 4q-3 6 -3 12q0 9 3 13q1 3 3 5t5 4q2 2 5 3l6 3q2 0 5 1h7h4q2 -1 5 -1l4 -2
q1 -1 4 -2q1 -1 3 -2l4 -4l3 -2l2 -4l-4 -2l-2 -2q-2 -1 -2 -2h-4h-2h-2h-1q-3 0 -3 1l-4 2q-1 0 -1 1h-1h-3h-6h-2q-1 -1 -3 -2q-1 -1 -2 -4q-1 -1 -1 -4t1 -3l2 -2v-3h4q1 -1 2 -1l6 -2q2 -1 3 -2l5 -1q2 -2 5 -2q2 -1 5 -4zM857 39q3 0 3 -3q1 0 1 -1v-3q0 -3 -1 -5
q0 -2 -3 -4q-2 0 -3 -2h-2q-1 -1 -3 -1q-1 0 -2 1h-2l-2 2h-2q-1 1 -1 2l-2 2q-1 2 -1 5v3q0 1 1 1q1 2 2 3h1q3 3 4 3l2 2h2h3l2 -2zM898 99q-4 -4 -8 -12q-1 -2 -2 -5q-1 -4 -1 -7q0 -4 1 -7l2 -6l4 -7q1 -3 4 -5q2 -2 5 -4q2 -2 6 -4q4 -1 7 -2t7 -1q3 0 5 1t5 1q2 1 5 3
q2 1 4 3q2 0 4 1h3h3q2 0 3 -1q3 -1 5 -3l3 -5q-3 -4 -8 -7q-3 -2 -5 -3q-2 -2 -5 -3q-3 -2 -5 -2l-6 -2t-5 -1q-3 -1 -6 -1q-7 0 -12 2l-10 2q-10 5 -17 12q-8 8 -12 17q-1 6 -2 11q-2 5 -2 11q0 3 1 7q0 3 1 7l2 6q1 3 3 6q3 4 5 7q1 2 4 5l6 4q2 2 6 4q2 2 5 3t8 3
q2 0 6 1h8h6q2 0 5 -1l6 -2q2 -1 5 -2t5 -2q2 -2 5 -4q5 -4 8 -8l-3 -4l-2 -2q-1 -1 -3 -2h-3h-3h-3q-2 0 -4 1l-4 4q-3 1 -5 2q-3 1 -5 1h-5q-8 0 -14 -3q-4 -1 -6 -3zM1072 101q1 -3 3 -6l2 -6q1 -4 1 -7v-7v-8q0 -4 -1 -7l-2 -6q-2 -4 -3 -7q-4 -5 -8 -11q-4 -2 -7 -4
q-3 -3 -5 -4q-3 -3 -6 -4l-8 -2q-3 -1 -6 -1q-4 -1 -8 -1q-10 0 -21 4l-8 6q-5 3 -8 6q-4 4 -7 8t-5 9q-2 6 -3 11t-1 11q0 3 1 7v7q1 3 3 6t3 6q2 4 4 7l5 5q2 2 5 4l6 4q2 2 6 3q3 1 6 3q4 0 8 1h6h8q3 -1 6 -1q4 -2 8 -3q3 -1 6 -3q2 -2 5 -4t7 -4q1 -3 4 -5zM1057 62
q2 5 2 13v7q-1 3 -2 5q-2 5 -3 8l-4 4q-5 5 -12 7q-3 2 -6 3h-8q-7 0 -13 -3q-3 -1 -5 -3l-6 -4l-4 -4q-2 -3 -4 -8q-1 -2 -1 -5q-1 -4 -1 -7q0 -4 1 -7q0 -3 1 -6q4 -8 8 -12l6 -4q2 -2 5 -4q3 -1 7 -2t6 -1q4 0 8 1l6 2q3 2 7 4q3 2 5 4zM1188 127l1 1h2h19v-107h-19v78
v-2l-2 -3v-3q0 -1 -1 -2q-3 -9 -7 -17q-4 -9 -7 -17l-6 -16q-4 -9 -7 -18h-19l-27 68q-1 1 -1 5q-1 2 -1 3q-1 0 -1 1v-77h-20v107h19h3l1 -1q2 -1 3 -1l1 -1l3 -2l2 -2q1 -1 1 -2q2 -8 6 -15q3 -8 6 -17q3 -8 7 -16l6 -16v-1v-2v-2q2 0 2 -2v2v2q0 1 1 2v1l4 8l22 56
q0 1 1 2v2q1 1 3 2h1q1 1 2 1z" />
    <glyph glyph-name="six" unicode="6" horiz-adv-x="1236" 
d="M1210 533v-286h-1174v286h445q0 15 3 29q2 13 8 26t14 25q7 12 18 21q18 19 44 30q14 6 28 9q13 2 27 2q16 0 30 -3t26 -9q14 -6 26 -14q11 -8 20 -17q18 -18 30 -46q10 -26 10 -53h445zM503 582q-11 -23 -11 -49q0 -28 11 -51q5 -11 12 -22t15 -20q9 -9 20 -16
q10 -7 22 -12q23 -11 51 -11q14 0 27 2q12 2 24 7q12 6 22 13q10 6 19 16q9 9 16 20q7 10 13 21q11 25 11 53q0 11 -2 23q-2 11 -7 21q-6 20 -20 37q-7 8 -15 15t-16 12l-18 10l-20 8q-7 2 -15 3q-9 1 -19 1q-14 0 -27 -2q-13 -3 -25 -9q-24 -9 -42 -28q-8 -9 -14 -20z
M144 337q3 5 3 9v5q-1 2 -3 5q0 1 -2 3l-3 3l-2 4q-2 1 -5 1l-4 2q-3 1 -5 1h-26v-75h8v28h18q2 0 5 1q2 0 4 1q5 2 7 4q1 2 3 4zM200 370h-46v-75h46v9h-35v23h29v10h-29v22h35v11zM273 295l-23 32q1 1 3 1q1 0 2 2q4 2 5 5q1 1 2 3q1 1 2 3v6v5q0 2 -1 4q-2 4 -5 7
q-2 4 -7 4q-1 1 -3 2q-3 1 -5 1h-27v-75h11v31h11l20 -27q1 -2 3 -3q1 -1 2 -1h3h7zM324 308q0 2 1 4v4q0 6 -2 10t-6 7q-1 0 -1 1q-1 1 -3 2v0q-1 0 -3 1h-1q-1 0 -1 2q-3 0 -4 1q-3 0 -4 1l-3 1q-4 1 -4 2q-3 2 -3 3v4v4q1 0 2 1t1 2l2 1h2q2 1 3 1h2h1q1 -1 2 -1
q4 0 4 -2q1 -1 2 -1h2q4 0 7 2l2 1q0 1 -1 2l-2 2q-2 1 -3 2t-3 2q-1 0 -2 1q-1 0 -3 2q-3 0 -3 1h-3h-4q-3 -1 -5 -1l-3 -3q-2 -1 -4 -1q-1 -2 -2 -3q-2 -2 -3 -4t-1 -3q-1 -2 -1 -5v-4q0 -2 2 -4q1 -2 3 -3q1 -2 1 -3l4 -2q2 -2 4 -2l4 -2q1 -1 3 -2q1 -1 3 -1h2
q3 -1 4 -1l1 -1l2 -1q0 -1 1 -3q1 -1 1 -2v-4v-1q0 -2 -1 -3l-1 -2q0 -1 -2 -2q-1 -2 -2 -2q-2 -1 -3 -2h-2h-3h-3h-3l-2 2q-2 0 -2 2l-1 1q-3 2 -6 2h-2q-1 0 -2 -1l-3 -1q0 -2 1 -2q0 -2 2 -3q0 -1 1 -2l1 -1h1q4 -4 9 -5q4 -1 9 -1h5q2 0 4 1t5 2q2 1 3 3q3 1 5 3z
M409 322q1 3 1 5v5q0 6 -1 10q0 3 -1 5q-2 2 -3 5q-2 3 -6 7q-2 2 -4 3t-5 4q-1 0 -3 1t-5 3q-3 0 -5 1h-5h-5q-3 -1 -5 -1q-3 -2 -5 -3t-4 -1q-2 -3 -4 -4t-4 -3l-3 -3q-2 -2 -3 -4q-2 -3 -2 -5q-1 -2 -2 -5q-1 -4 -1 -10q0 -4 1 -7l2 -8q1 -3 3 -6t5 -7l6 -4q3 -2 7 -2
q6 -3 14 -3h5h5q5 2 8 4q7 3 9 5q3 4 6 9q1 2 3 5zM487 370h-10v-58v3l-1 1l-36 51q-2 0 -4 3h-2h-2h-7v-75h10v61l1 -1v-2l43 -58h8v75zM571 295l-33 75h-11l-32 -75h6q3 0 4 1l2 2l2 1l4 13h39l5 -13q1 -2 3 -3q0 -1 4 -1h7zM620 304h-32v66h-11v-75h43v9zM722 370h-10
v-45v-5q0 -2 -1 -4q-1 -4 -5 -6l-2 -2q-2 -1 -3 -3q-3 -1 -4 -1h-4q-5 0 -7 1q-3 2 -5 3t-2 2q-1 1 -2 3l-3 3v4q-1 2 -1 5v45h-10v-45v-5q0 -3 1 -4q0 -4 2 -7q2 -5 6 -7q1 -1 3 -2q1 -1 3 -2q1 -1 3 -1q2 -1 3 -2q3 0 5 -1q1 -1 4 -1q2 0 4 1q1 1 4 1l4 2q1 0 3 1l6 4
q2 2 3 4q0 1 1 3l3 3q1 2 1 4v9v45zM780 308q3 4 3 8q0 6 -2 10t-6 7q-3 2 -3 3h-2q-2 0 -3 1h-1q-2 0 -3 2h-1q-1 0 -2 1q-1 0 -2 1l-3 1q-4 1 -4 2q-2 1 -2 2q-1 1 -2 1v2q-1 0 -1 2t2 4l3 3q1 0 2 1h2q0 1 5 1h1q1 -1 2 -1q1 -1 4 -2q4 -1 5 -1q3 0 4 2l3 1l-2 2l-2 2
q0 1 -1 2q-2 1 -3 2q-2 0 -3 1q-1 0 -3 2q-2 0 -3 1h-2h-5q-2 -1 -4 -1q-2 -2 -4 -3t-3 -1l-3 -3q-1 -2 -3 -4q0 -2 -1 -3q-1 -2 -1 -5t1 -4q1 -2 1 -4q2 -4 5 -6l4 -2q1 -2 2 -2q3 -1 5 -2q1 -1 3 -2t3 -1h2q1 -1 3 -1q1 0 2 -1t3 -1q1 -1 1 -3q1 -1 1 -2v-4v-1q0 -2 -1 -3
q-1 -3 -4 -4q-2 -2 -3 -2l-2 -2h-2h-3h-3h-3q-2 1 -5 4v1q-3 2 -6 2h-1q-2 0 -3 -1l-3 -1l1 -1q0 -1 1 -1q0 -1 1 -1v-2h1v-2q2 -1 3 -1q3 -4 8 -5q4 -1 9 -1h5q2 0 5 1l4 2q2 1 4 3l3 3zM841 370h-46v-75h46v9h-36v23h30v10h-30v22h36v11zM960 322v5v5v6v4q-2 5 -5 10
q-2 3 -6 7q-1 2 -3 3t-4 4q-2 0 -4 1q-3 1 -5 3q-3 0 -5 1h-5h-5q-3 -1 -5 -1q-6 -3 -10 -4q-2 -3 -3 -4q-2 -1 -4 -3l-3 -3l-4 -4q-1 -3 -2 -5t-1 -5q-2 -4 -2 -10q0 -4 1 -7l2 -8q3 -7 9 -13q2 -2 5 -4t7 -2q6 -3 15 -3h5h5q2 1 5 2l4 2q2 2 4 3t3 2q4 4 6 9zM1038 370
h-11v-58v3q-1 1 -2 1l-36 51v1q-1 0 -2 2h-2h-3h-8v-75h12v59l1 -1l42 -58h9v75zM1099 304h-32v66h-11v-75h43v9zM1159 370h-9q-2 0 -4 -2q-4 -2 -4 -4l-17 -23l-1 -1h-1l-1 1l-18 23q-1 2 -3 4t-5 2h-8l27 -37l1 -1q0 -1 1 -1v-1v-1q0 -1 1 -1v-1v-32h11v32v1v2q1 0 1 2v1
h1zM942 352l4 -4q2 -3 3 -5q0 -3 1 -5v-6q0 -6 -1 -11q-1 -3 -3 -5t-4 -3q-2 -2 -4 -3l-4 -4q-6 -2 -11 -2q-3 0 -6 1q-3 0 -5 1q-3 2 -5 4q-2 1 -4 3q-2 1 -3 3q-2 2 -2 5q-2 3 -2 6q-1 2 -1 5q0 5 3 11q0 2 2 5q1 2 3 4l4 4q2 1 5 2q4 2 11 2h5l6 -2l4 -2zM253 343
q0 -1 -2 -4q-1 0 -1 -1q-1 -1 -3 -1q-1 -1 -4 -1h-16v23h16q2 0 4 -1h3l1 -2l2 -4q1 -1 1 -5zM391 352l4 -4q2 -3 3 -5q1 -3 2 -5v-6v-5l-2 -6t-3 -5t-4 -3q-1 -2 -3 -3q-2 -2 -5 -4q-2 -1 -5 -1q-3 -1 -6 -1q-6 0 -11 2l-4 4q-3 1 -5 3l-3 3q-2 2 -3 5l-2 6q-1 2 -1 5
q0 5 3 11q1 2 3 5q2 2 3 4q2 2 5 4l4 2l6 2h5q6 0 11 -2q3 -1 5 -2zM532 358q0 -2 1 -3v-2l14 -31h-29l14 31v2v3zM132 356l2 -2q0 -2 1 -3q1 -2 1 -5v-2q0 -2 -1 -3t-1 -2q-1 -2 -2 -2l-4 -4h-5h-18v26h18q3 0 5 -1q1 0 3 -1zM580 422q-9 4 -18 10q-10 5 -17 12h157
q-8 -7 -17 -12q-9 -6 -19 -10q-10 -3 -21 -6t-22 -3q-12 0 -22 3zM557 457l154 155q14 -19 22 -39t8 -40q0 -11 -1 -21q-2 -11 -6 -21q-4 -9 -9 -17q-5 -9 -11 -17h-157zM534 453q-13 17 -22 36q-3 10 -5 21t-2 23q0 10 2 20t5 20q3 9 8 18q5 8 12 16h156zM666 642
q10 -4 19 -10t16 -11h-158q18 14 37 21q19 9 43 9zM38 171q-2 2 -2 4l-2 4q-1 3 -1 5q-1 2 -1 5t2 8q1 2 2 5q0 2 2 3l2 5q0 1 3 3q0 1 3 3q2 1 3 2q3 2 5 3l4 1q1 0 4 1h5h7q3 -1 7 -3q4 -1 7 -3l4 -4q-1 -1 -2 -1v-2h-1h-1h-2h-3q-2 1 -4 3q-2 1 -4 1h-3h-5h-5h-4l-6 -3
q-2 -2 -4 -3q-2 -3 -3 -5q-2 -2 -3 -4q-2 -3 -2 -6v-4q0 -4 1 -7l2 -4v-4q1 -1 3 -2q1 -1 2 -3q2 -1 3 -2q1 -2 3 -2q1 -1 3 -2t4 -1q1 -1 3 -1h3h5q2 0 4 1q2 0 5 1l4 2v14h-6h-1l-1 1l-1 2l-2 1v1q-1 0 -1 1v1v1h19v-26l-2 -2l-3 -3q-3 -1 -6 -1q-3 -1 -7 -1h-7h-5h-4
q-3 1 -4 2l-5 3q-1 0 -3 2q-3 1 -3 3q-3 1 -3 3zM117 214v-22h27v-7h-27v-23h33v-8h-41v68h41v-8h-33zM180 154v60h-22v8h52v-8h-23v-60h-7zM260 214v-24h29v-6h-29v-30h-8v68h41v-8h-33zM313 222v-42q0 -2 1 -3q1 -2 2 -3q1 -3 3 -4l2 -4q0 -1 2 -2l2 -2q3 -1 5 -1h4h4
q1 0 2 1q3 1 5 2q1 1 3 2q0 2 2 4q1 1 2 4q2 2 2 6v42h7v-42v-5q-1 -2 -2 -5t-2 -5l-4 -4t-4 -3q-2 -2 -4 -3q-6 -1 -11 -1q-6 0 -12 1l-3 3q-3 1 -5 3q-3 3 -5 9q-1 3 -2 5t-1 5v42h7zM383 222v-60h30v-8h-38v68h8zM428 222v-60h32v-8h-39v68h7zM522 154l-30 68h4q2 0 4 -1
q1 -1 2 -1l1 -2l21 -51v-2q1 -1 1 -3v3l1 1v1q3 7 6 13l6 12q2 8 5 14l6 12q0 2 1 2t1 1q1 1 2 1h2h4q-4 -8 -7 -16q-4 -9 -9 -17q-3 -10 -6 -18q-4 -8 -8 -17h-7zM572 214v-22h28v-7h-28v-23h33v-8h-41v68h41v-8h-33zM655 186q-1 -1 -5 -2l23 -30h-5q-1 0 -2 1h-2l-2 2
q-1 0 -2 2l-19 25h-12v-30h-7v68h25h3q1 0 3 -1q4 -1 7 -4q1 -2 2 -3l2 -4q1 -1 1 -3v-3v-4q0 -2 -1 -3q0 -2 -1 -4t-2 -3l-2 -2zM647 190q2 0 3 2q1 0 2 1h2l2 3q0 1 1 2q0 1 1 2v4v1q-1 1 -1 3l-1 2q-1 0 -2 2q-1 0 -2 1q-1 0 -2 1h-3h-18v-24h18zM709 164q1 1 2 4
q1 1 2 3v3q0 3 -1 5q-1 0 -1 2l-2 2t-4 2q-2 0 -3 1l-3 1q-2 0 -4 1t-2 2q-5 0 -7 3q-2 0 -2 2q-1 2 -2 3v7v5q0 1 1 3q0 3 4 5l3 3q1 0 4 1q2 0 3 1h4h3q1 -1 2 -1h2l3 -2q1 0 2 -1t1 -2q2 -1 3 -2q0 -1 1 -1l-2 -1q-1 -1 -4 -1h-3q-2 1 -2 2h-1h-1h-1h-1h-1h-1h-4
q-4 0 -4 -1q-3 -3 -3 -4q-2 0 -2 -4q0 -3 2 -3q0 -2 1 -3t3 -1l1 -1q2 -2 3 -2t4 -2h2q1 0 1 -1h2q1 0 2 -2h1h1v0h2l1 -1l3 -3q1 -2 3 -3q1 -5 1 -9v-5q0 -2 -3 -4q0 -3 -4 -6q-1 -1 -3 -2l-4 -2q-2 -1 -4 -1h-5q-5 0 -8 1q-4 1 -7 4q-1 0 -2 1l-2 2v2l-1 1l1 1l1 1h2h1h2
l2 -2q2 -1 3 -2t3 -1q0 -1 2 -1h3q4 0 5 1zM744 222v-68h-8v68h8zM771 164q-6 4 -9 10q-2 7 -2 15v4v4q3 5 4 8q3 4 7 8q3 3 6 5q2 2 5 3q2 0 4 1q2 0 4 1h5h5q2 -1 5 -1q2 -1 4 -1q2 -1 4 -3l3 -2q1 -2 3 -3l3 -3l3 -5q1 -3 3 -8l2 -4v-4q0 -4 -1 -7q-1 -4 -3 -8
q-1 -3 -2 -5q-2 -3 -5 -5q-3 -3 -5 -4l-6 -4q-5 -2 -13 -2q-4 0 -7 1q-4 0 -6 1zM771 199q-2 -3 -3 -6t-1 -4q0 -2 1 -4v-3q1 -4 4 -8q0 -1 1 -2t2 -3l3 -2q1 -2 4 -2q1 -1 3 -2q1 -1 2 -1q2 -1 4 -1h4h4q2 0 3 1q1 0 3 1l4 2q1 0 3 2l2 2q1 2 2 3l2 2l2 4l1 4q0 1 1 3v4v4
q-1 3 -3 6q0 2 -2 4t-3 5q-2 1 -4 3q-2 1 -5 3h-4h-6h-6h-5q-2 -2 -4 -3q-3 -2 -5 -3q-1 -3 -2 -5zM850 154h-8v68h6h3q1 0 2 -2l35 -50q1 0 1 -2l1 -1v55h8v-68h-7l-40 56v2h-1v-58zM955 214v-24h28v-6h-28v-30h-7v68h41v-8h-34zM1032 186q-4 -1 -6 -2l22 -30h-6q-2 0 -4 1
v2q-1 0 -2 2l-19 25h-12v-30h-8v68h25h3q2 0 4 -1l4 -2l2 -2q1 -2 2 -3q1 -2 3 -4q0 -1 1 -3v-3v-4q-1 -2 -1 -3l-2 -4q-1 -2 -1 -3zM1026 192q1 0 2 1h1q3 4 3 5q1 2 1 6q0 1 -1 4q0 1 -3 4q-1 0 -1 1l-2 1h-4h-17v-24h17zM1114 164q-2 -3 -5 -4l-6 -4q-3 -1 -6 -1
q-3 -1 -7 -1t-7 1q-4 0 -7 1q-6 2 -11 8q-2 2 -4 5q-2 2 -3 5l-2 8q-2 3 -2 7q0 1 1 4q0 2 1 4t2 5q0 2 1 3q2 3 4 5q1 1 2 3q2 1 4 3l4 2q2 2 4 3q2 0 4 1q3 0 5 1h4h5q2 -1 4 -1l5 -1l3 -3l4 -2l3 -3q1 -2 3 -3q1 -2 2 -5q3 -3 4 -8l2 -4v-4v-7q-1 -4 -3 -8q-1 -3 -3 -5z
M1090 161h4q2 0 4 1q1 0 3 1l2 2q1 0 3 2l4 2l2 3q0 1 1 2l2 4v4q1 1 1 3v4v4q-1 3 -1 6l-2 4q-2 2 -3 5q-3 1 -5 3q-3 1 -5 3h-5h-5h-5h-6q-3 -2 -4 -3q-2 -2 -4 -3q-3 -3 -4 -5l-2 -4q-1 -3 -1 -6v-4v-7q0 -3 1 -4q0 -2 2 -4q0 -1 2 -2q1 -1 2 -3l3 -2q1 -2 2 -2
q1 -1 3 -2q1 -1 4 -1q1 -1 3 -1h4zM1201 221q1 1 2 1h1h6v-68h-7v56l-1 -1v-1q-2 -4 -3 -8q-1 -5 -3 -8t-3 -6l-4 -7q-1 -4 -2 -7l-2 -6q-2 -3 -3 -5q-2 -3 -3 -7h-7q-5 6 -7 13q-3 7 -6 13q-2 7 -5 14q-4 7 -6 14v1l-2 1v-56h-8v68h7q3 0 4 -1l1 -1v-2l24 -53q0 -1 1 -1v-2
q0 1 1 2v2q0 2 2 4l21 48q0 2 1 2zM36 128h77v-10v-2v-2q0 -2 -1 -3l-2 -2l-52 -71h1v1h2h1h51v-18h-81v6q0 5 1 6q0 1 2 4q1 1 1 2t1 2l2 2l1 3l46 63h-50v19zM127 128h68v-19h-49v-24h39v-20h-39v-26h49v-18h-68v107zM279 109h-29v-88h-21v88h-31v19h81v-19zM328 128
l46 -107h-12q-4 0 -8 2q-2 1 -2 3q-1 2 -3 4l-6 14h-49l-5 -14l-1 -2q-1 -1 -2 -1v-2q-1 -1 -3 -2h-2q-1 -1 -2 -1q0 -1 -1 -1h-2h-12l46 107h18zM334 63l-13 33v2q-1 0 -1 1q0 2 -1 3v-3q0 -1 -1 -1q-1 -1 -1 -2l-13 -33h30zM378 128h68v-19h-49v-27h40v-19h-40v-42h-19
v107zM553 101q2 -3 3 -6t3 -6q1 -4 1 -7v-7v-8q0 -4 -1 -7q-2 -3 -3 -6q-1 -4 -3 -7q-2 -2 -4 -5l-4 -6q-4 -2 -6 -4q-2 -3 -5 -4q-3 -3 -6 -4q-4 -1 -7 -2q-4 -1 -7 -1q-4 -1 -8 -1q-5 0 -10 2q-6 1 -11 2q-6 3 -9 6q-4 3 -9 6q-7 8 -10 17q-3 6 -4 11t-1 11q0 3 1 7
q0 3 1 7q2 8 6 12q2 4 4 7q1 2 3 5q4 2 7 4q2 2 5 4t6 3t7 3q3 0 7 1h7h8q3 -1 7 -1q3 -2 7 -3q3 -1 6 -3t5 -4t6 -4q2 -3 4 -5zM539 62l2 6v7q0 6 -2 12q-2 5 -4 8q-2 2 -5 4l-4 4q-3 2 -6 3q-6 3 -14 3t-14 -3q-2 -1 -4 -3l-6 -4t-4 -4q-2 -3 -4 -8q-2 -2 -2 -5v-7v-7
q0 -3 2 -6l4 -7q1 -3 4 -5l6 -4l4 -4q4 -1 7 -2t7 -1t7 1t7 2l6 4l4 4q3 2 5 5zM649 128h19v-107h-18l-50 72q-1 0 -1 1l-1 1q-1 2 -1 3q-2 0 -2 2v1l-2 1v-81h-19v107h17h4q2 -1 2 -2l3 -1l2 -2q5 -8 11 -15q5 -8 10 -17l12 -14q5 -8 12 -15q0 -2 1 -3v-3q0 -1 1 -2v-2v76z
M678 128h81v-19h-32v-88h-19v88h-30v19zM825 73q1 -2 3 -4l2 -4q0 -2 1 -4q1 -3 1 -7q0 -6 -3 -13l-4 -6q-2 -3 -4 -5q-4 -2 -6 -4t-6 -3t-7 -2q-4 -1 -7 -1q-4 0 -7 1q-4 1 -9 2q-3 1 -5 3q-3 2 -7 6q-2 1 -3 3q-1 1 -2 3q-2 1 -2 6l1 1l1 1q1 0 1 1h1t2 1h1h5h2q1 0 1 -1
q3 0 5 -1q2 -2 4 -3t3 -2q1 0 3 -1t5 -1q1 0 3 1q1 0 3 1q3 1 6 3l4 4q1 2 2 3t1 3q0 4 -3 6q-2 3 -4 3l-3 3h-3q-3 1 -8 4q-2 0 -4 1q-3 0 -5 2q-4 1 -6 3q-2 1 -4 3q-3 2 -4 4q-2 2 -3 4q-3 6 -3 12q0 9 3 13q1 3 3 5t5 4q2 2 5 3l6 3q2 0 5 1h7h4q2 -1 5 -1l4 -2
q1 -1 4 -2q1 -1 3 -2l4 -4l3 -2l2 -4l-4 -2l-2 -2q-2 -1 -2 -2h-4h-2h-2h-1q-3 0 -3 1l-4 2q-1 0 -1 1h-1h-3h-6h-2q-1 -1 -3 -2q-1 -1 -2 -4q-1 -1 -1 -4t1 -3l2 -2v-3h4q1 -1 2 -1l6 -2q2 -1 3 -2l5 -1q2 -2 5 -2q2 -1 5 -4zM857 39q3 0 3 -3q1 0 1 -1v-3q0 -3 -1 -5
q0 -2 -3 -4q-2 0 -3 -2h-2q-1 -1 -3 -1q-1 0 -2 1h-2l-2 2h-2q-1 1 -1 2l-2 2q-1 2 -1 5v3q0 1 1 1q1 2 2 3h1q3 3 4 3l2 2h2h3l2 -2zM898 99q-4 -4 -8 -12q-1 -2 -2 -5q-1 -4 -1 -7q0 -4 1 -7l2 -6l4 -7q1 -3 4 -5q2 -2 5 -4q2 -2 6 -4q4 -1 7 -2t7 -1q3 0 5 1t5 1q2 1 5 3
q2 1 4 3q2 0 4 1h3h3q2 0 3 -1q3 -1 5 -3l3 -5q-3 -4 -8 -7q-3 -2 -5 -3q-2 -2 -5 -3q-3 -2 -5 -2l-6 -2t-5 -1q-3 -1 -6 -1q-7 0 -12 2l-10 2q-10 5 -17 12q-8 8 -12 17q-1 6 -2 11q-2 5 -2 11q0 3 1 7q0 3 1 7l2 6q1 3 3 6q3 4 5 7q1 2 4 5l6 4q2 2 6 4q2 2 5 3t8 3
q2 0 6 1h8h6q2 0 5 -1l6 -2q2 -1 5 -2t5 -2q2 -2 5 -4q5 -4 8 -8l-3 -4l-2 -2q-1 -1 -3 -2h-3h-3h-3q-2 0 -4 1l-4 4q-3 1 -5 2q-3 1 -5 1h-5q-8 0 -14 -3q-4 -1 -6 -3zM1072 101q1 -3 3 -6l2 -6q1 -4 1 -7v-7v-8q0 -4 -1 -7l-2 -6q-2 -4 -3 -7q-4 -5 -8 -11q-4 -2 -7 -4
q-3 -3 -5 -4q-3 -3 -6 -4l-8 -2q-3 -1 -6 -1q-4 -1 -8 -1q-10 0 -21 4l-8 6q-5 3 -8 6q-4 4 -7 8t-5 9q-2 6 -3 11t-1 11q0 3 1 7v7q1 3 3 6t3 6q2 4 4 7l5 5q2 2 5 4l6 4q2 2 6 3q3 1 6 3q4 0 8 1h6h8q3 -1 6 -1q4 -2 8 -3q3 -1 6 -3q2 -2 5 -4t7 -4q1 -3 4 -5zM1057 62
q2 5 2 13v7q-1 3 -2 5q-2 5 -3 8l-4 4q-5 5 -12 7q-3 2 -6 3h-8q-7 0 -13 -3q-3 -1 -5 -3l-6 -4l-4 -4q-2 -3 -4 -8q-1 -2 -1 -5q-1 -4 -1 -7q0 -4 1 -7q0 -3 1 -6q4 -8 8 -12l6 -4q2 -2 5 -4q3 -1 7 -2t6 -1q4 0 8 1l6 2q3 2 7 4q3 2 5 4zM1188 127l1 1h2h19v-107h-19v78
v-2l-2 -3v-3q0 -1 -1 -2q-3 -9 -7 -17q-4 -9 -7 -17l-6 -16q-4 -9 -7 -18h-19l-27 68q-1 1 -1 5q-1 2 -1 3q-1 0 -1 1v-77h-20v107h19h3l1 -1q2 -1 3 -1l1 -1l3 -2l2 -2q1 -1 1 -2q2 -8 6 -15q3 -8 6 -17q3 -8 7 -16l6 -16v-1v-2v-2q2 0 2 -2v2v2q0 1 1 2v1l4 8l22 56
q0 1 1 2v2q1 1 3 2h1q1 1 2 1z" />
    <glyph glyph-name="seven" unicode="7" horiz-adv-x="1236" 
d="M1210 533v-286h-1174v286h445q0 15 3 29q2 13 8 26t14 25q7 12 18 21q18 19 44 30q14 6 28 9q13 2 27 2q16 0 30 -3t26 -9q14 -6 26 -14q11 -8 20 -17q18 -18 30 -46q10 -26 10 -53h445zM503 582q-11 -23 -11 -49q0 -28 11 -51q5 -11 12 -22t15 -20q9 -9 20 -16
q10 -7 22 -12q23 -11 51 -11q14 0 27 2q12 2 24 7q12 6 22 13q10 6 19 16q9 9 16 20q7 10 13 21q11 25 11 53q0 11 -2 23q-2 11 -7 21q-6 20 -20 37q-7 8 -15 15t-16 12l-18 10l-20 8q-7 2 -15 3q-9 1 -19 1q-14 0 -27 -2q-13 -3 -25 -9q-24 -9 -42 -28q-8 -9 -14 -20z
M144 337q3 5 3 9v5q-1 2 -3 5q0 1 -2 3l-3 3l-2 4q-2 1 -5 1l-4 2q-3 1 -5 1h-26v-75h8v28h18q2 0 5 1q2 0 4 1q5 2 7 4q1 2 3 4zM200 370h-46v-75h46v9h-35v23h29v10h-29v22h35v11zM273 295l-23 32q1 1 3 1q1 0 2 2q4 2 5 5q1 1 2 3q1 1 2 3v6v5q0 2 -1 4q-2 4 -5 7
q-2 4 -7 4q-1 1 -3 2q-3 1 -5 1h-27v-75h11v31h11l20 -27q1 -2 3 -3q1 -1 2 -1h3h7zM324 308q0 2 1 4v4q0 6 -2 10t-6 7q-1 0 -1 1q-1 1 -3 2v0q-1 0 -3 1h-1q-1 0 -1 2q-3 0 -4 1q-3 0 -4 1l-3 1q-4 1 -4 2q-3 2 -3 3v4v4q1 0 2 1t1 2l2 1h2q2 1 3 1h2h1q1 -1 2 -1
q4 0 4 -2q1 -1 2 -1h2q4 0 7 2l2 1q0 1 -1 2l-2 2q-2 1 -3 2t-3 2q-1 0 -2 1q-1 0 -3 2q-3 0 -3 1h-3h-4q-3 -1 -5 -1l-3 -3q-2 -1 -4 -1q-1 -2 -2 -3q-2 -2 -3 -4t-1 -3q-1 -2 -1 -5v-4q0 -2 2 -4q1 -2 3 -3q1 -2 1 -3l4 -2q2 -2 4 -2l4 -2q1 -1 3 -2q1 -1 3 -1h2
q3 -1 4 -1l1 -1l2 -1q0 -1 1 -3q1 -1 1 -2v-4v-1q0 -2 -1 -3l-1 -2q0 -1 -2 -2q-1 -2 -2 -2q-2 -1 -3 -2h-2h-3h-3h-3l-2 2q-2 0 -2 2l-1 1q-3 2 -6 2h-2q-1 0 -2 -1l-3 -1q0 -2 1 -2q0 -2 2 -3q0 -1 1 -2l1 -1h1q4 -4 9 -5q4 -1 9 -1h5q2 0 4 1t5 2q2 1 3 3q3 1 5 3z
M409 322q1 3 1 5v5q0 6 -1 10q0 3 -1 5q-2 2 -3 5q-2 3 -6 7q-2 2 -4 3t-5 4q-1 0 -3 1t-5 3q-3 0 -5 1h-5h-5q-3 -1 -5 -1q-3 -2 -5 -3t-4 -1q-2 -3 -4 -4t-4 -3l-3 -3q-2 -2 -3 -4q-2 -3 -2 -5q-1 -2 -2 -5q-1 -4 -1 -10q0 -4 1 -7l2 -8q1 -3 3 -6t5 -7l6 -4q3 -2 7 -2
q6 -3 14 -3h5h5q5 2 8 4q7 3 9 5q3 4 6 9q1 2 3 5zM487 370h-10v-58v3l-1 1l-36 51q-2 0 -4 3h-2h-2h-7v-75h10v61l1 -1v-2l43 -58h8v75zM571 295l-33 75h-11l-32 -75h6q3 0 4 1l2 2l2 1l4 13h39l5 -13q1 -2 3 -3q0 -1 4 -1h7zM620 304h-32v66h-11v-75h43v9zM722 370h-10
v-45v-5q0 -2 -1 -4q-1 -4 -5 -6l-2 -2q-2 -1 -3 -3q-3 -1 -4 -1h-4q-5 0 -7 1q-3 2 -5 3t-2 2q-1 1 -2 3l-3 3v4q-1 2 -1 5v45h-10v-45v-5q0 -3 1 -4q0 -4 2 -7q2 -5 6 -7q1 -1 3 -2q1 -1 3 -2q1 -1 3 -1q2 -1 3 -2q3 0 5 -1q1 -1 4 -1q2 0 4 1q1 1 4 1l4 2q1 0 3 1l6 4
q2 2 3 4q0 1 1 3l3 3q1 2 1 4v9v45zM780 308q3 4 3 8q0 6 -2 10t-6 7q-3 2 -3 3h-2q-2 0 -3 1h-1q-2 0 -3 2h-1q-1 0 -2 1q-1 0 -2 1l-3 1q-4 1 -4 2q-2 1 -2 2q-1 1 -2 1v2q-1 0 -1 2t2 4l3 3q1 0 2 1h2q0 1 5 1h1q1 -1 2 -1q1 -1 4 -2q4 -1 5 -1q3 0 4 2l3 1l-2 2l-2 2
q0 1 -1 2q-2 1 -3 2q-2 0 -3 1q-1 0 -3 2q-2 0 -3 1h-2h-5q-2 -1 -4 -1q-2 -2 -4 -3t-3 -1l-3 -3q-1 -2 -3 -4q0 -2 -1 -3q-1 -2 -1 -5t1 -4q1 -2 1 -4q2 -4 5 -6l4 -2q1 -2 2 -2q3 -1 5 -2q1 -1 3 -2t3 -1h2q1 -1 3 -1q1 0 2 -1t3 -1q1 -1 1 -3q1 -1 1 -2v-4v-1q0 -2 -1 -3
q-1 -3 -4 -4q-2 -2 -3 -2l-2 -2h-2h-3h-3h-3q-2 1 -5 4v1q-3 2 -6 2h-1q-2 0 -3 -1l-3 -1l1 -1q0 -1 1 -1q0 -1 1 -1v-2h1v-2q2 -1 3 -1q3 -4 8 -5q4 -1 9 -1h5q2 0 5 1l4 2q2 1 4 3l3 3zM841 370h-46v-75h46v9h-36v23h30v10h-30v22h36v11zM960 322v5v5v6v4q-2 5 -5 10
q-2 3 -6 7q-1 2 -3 3t-4 4q-2 0 -4 1q-3 1 -5 3q-3 0 -5 1h-5h-5q-3 -1 -5 -1q-6 -3 -10 -4q-2 -3 -3 -4q-2 -1 -4 -3l-3 -3l-4 -4q-1 -3 -2 -5t-1 -5q-2 -4 -2 -10q0 -4 1 -7l2 -8q3 -7 9 -13q2 -2 5 -4t7 -2q6 -3 15 -3h5h5q2 1 5 2l4 2q2 2 4 3t3 2q4 4 6 9zM1038 370
h-11v-58v3q-1 1 -2 1l-36 51v1q-1 0 -2 2h-2h-3h-8v-75h12v59l1 -1l42 -58h9v75zM1099 304h-32v66h-11v-75h43v9zM1159 370h-9q-2 0 -4 -2q-4 -2 -4 -4l-17 -23l-1 -1h-1l-1 1l-18 23q-1 2 -3 4t-5 2h-8l27 -37l1 -1q0 -1 1 -1v-1v-1q0 -1 1 -1v-1v-32h11v32v1v2q1 0 1 2v1
h1zM942 352l4 -4q2 -3 3 -5q0 -3 1 -5v-6q0 -6 -1 -11q-1 -3 -3 -5t-4 -3q-2 -2 -4 -3l-4 -4q-6 -2 -11 -2q-3 0 -6 1q-3 0 -5 1q-3 2 -5 4q-2 1 -4 3q-2 1 -3 3q-2 2 -2 5q-2 3 -2 6q-1 2 -1 5q0 5 3 11q0 2 2 5q1 2 3 4l4 4q2 1 5 2q4 2 11 2h5l6 -2l4 -2zM253 343
q0 -1 -2 -4q-1 0 -1 -1q-1 -1 -3 -1q-1 -1 -4 -1h-16v23h16q2 0 4 -1h3l1 -2l2 -4q1 -1 1 -5zM391 352l4 -4q2 -3 3 -5q1 -3 2 -5v-6v-5l-2 -6t-3 -5t-4 -3q-1 -2 -3 -3q-2 -2 -5 -4q-2 -1 -5 -1q-3 -1 -6 -1q-6 0 -11 2l-4 4q-3 1 -5 3l-3 3q-2 2 -3 5l-2 6q-1 2 -1 5
q0 5 3 11q1 2 3 5q2 2 3 4q2 2 5 4l4 2l6 2h5q6 0 11 -2q3 -1 5 -2zM532 358q0 -2 1 -3v-2l14 -31h-29l14 31v2v3zM132 356l2 -2q0 -2 1 -3q1 -2 1 -5v-2q0 -2 -1 -3t-1 -2q-1 -2 -2 -2l-4 -4h-5h-18v26h18q3 0 5 -1q1 0 3 -1zM580 422q-9 4 -18 10q-10 5 -17 12h157
q-8 -7 -17 -12q-9 -6 -19 -10q-10 -3 -21 -6t-22 -3q-12 0 -22 3zM557 457l154 155q14 -19 22 -39t8 -40q0 -11 -1 -21q-2 -11 -6 -21q-4 -9 -9 -17q-5 -9 -11 -17h-157zM534 453q-13 17 -22 36q-3 10 -5 21t-2 23q0 10 2 20t5 20q3 9 8 18q5 8 12 16h156zM666 642
q10 -4 19 -10t16 -11h-158q18 14 37 21q19 9 43 9zM38 171q-2 2 -2 4l-2 4q-1 3 -1 5q-1 2 -1 5t2 8q1 2 2 5q0 2 2 3l2 5q0 1 3 3q0 1 3 3q2 1 3 2q3 2 5 3l4 1q1 0 4 1h5h7q3 -1 7 -3q4 -1 7 -3l4 -4q-1 -1 -2 -1v-2h-1h-1h-2h-3q-2 1 -4 3q-2 1 -4 1h-3h-5h-5h-4l-6 -3
q-2 -2 -4 -3q-2 -3 -3 -5q-2 -2 -3 -4q-2 -3 -2 -6v-4q0 -4 1 -7l2 -4v-4q1 -1 3 -2q1 -1 2 -3q2 -1 3 -2q1 -2 3 -2q1 -1 3 -2t4 -1q1 -1 3 -1h3h5q2 0 4 1q2 0 5 1l4 2v14h-6h-1l-1 1l-1 2l-2 1v1q-1 0 -1 1v1v1h19v-26l-2 -2l-3 -3q-3 -1 -6 -1q-3 -1 -7 -1h-7h-5h-4
q-3 1 -4 2l-5 3q-1 0 -3 2q-3 1 -3 3q-3 1 -3 3zM117 214v-22h27v-7h-27v-23h33v-8h-41v68h41v-8h-33zM180 154v60h-22v8h52v-8h-23v-60h-7zM260 214v-24h29v-6h-29v-30h-8v68h41v-8h-33zM313 222v-42q0 -2 1 -3q1 -2 2 -3q1 -3 3 -4l2 -4q0 -1 2 -2l2 -2q3 -1 5 -1h4h4
q1 0 2 1q3 1 5 2q1 1 3 2q0 2 2 4q1 1 2 4q2 2 2 6v42h7v-42v-5q-1 -2 -2 -5t-2 -5l-4 -4t-4 -3q-2 -2 -4 -3q-6 -1 -11 -1q-6 0 -12 1l-3 3q-3 1 -5 3q-3 3 -5 9q-1 3 -2 5t-1 5v42h7zM383 222v-60h30v-8h-38v68h8zM428 222v-60h32v-8h-39v68h7zM522 154l-30 68h4q2 0 4 -1
q1 -1 2 -1l1 -2l21 -51v-2q1 -1 1 -3v3l1 1v1q3 7 6 13l6 12q2 8 5 14l6 12q0 2 1 2t1 1q1 1 2 1h2h4q-4 -8 -7 -16q-4 -9 -9 -17q-3 -10 -6 -18q-4 -8 -8 -17h-7zM572 214v-22h28v-7h-28v-23h33v-8h-41v68h41v-8h-33zM655 186q-1 -1 -5 -2l23 -30h-5q-1 0 -2 1h-2l-2 2
q-1 0 -2 2l-19 25h-12v-30h-7v68h25h3q1 0 3 -1q4 -1 7 -4q1 -2 2 -3l2 -4q1 -1 1 -3v-3v-4q0 -2 -1 -3q0 -2 -1 -4t-2 -3l-2 -2zM647 190q2 0 3 2q1 0 2 1h2l2 3q0 1 1 2q0 1 1 2v4v1q-1 1 -1 3l-1 2q-1 0 -2 2q-1 0 -2 1q-1 0 -2 1h-3h-18v-24h18zM709 164q1 1 2 4
q1 1 2 3v3q0 3 -1 5q-1 0 -1 2l-2 2t-4 2q-2 0 -3 1l-3 1q-2 0 -4 1t-2 2q-5 0 -7 3q-2 0 -2 2q-1 2 -2 3v7v5q0 1 1 3q0 3 4 5l3 3q1 0 4 1q2 0 3 1h4h3q1 -1 2 -1h2l3 -2q1 0 2 -1t1 -2q2 -1 3 -2q0 -1 1 -1l-2 -1q-1 -1 -4 -1h-3q-2 1 -2 2h-1h-1h-1h-1h-1h-1h-4
q-4 0 -4 -1q-3 -3 -3 -4q-2 0 -2 -4q0 -3 2 -3q0 -2 1 -3t3 -1l1 -1q2 -2 3 -2t4 -2h2q1 0 1 -1h2q1 0 2 -2h1h1v0h2l1 -1l3 -3q1 -2 3 -3q1 -5 1 -9v-5q0 -2 -3 -4q0 -3 -4 -6q-1 -1 -3 -2l-4 -2q-2 -1 -4 -1h-5q-5 0 -8 1q-4 1 -7 4q-1 0 -2 1l-2 2v2l-1 1l1 1l1 1h2h1h2
l2 -2q2 -1 3 -2t3 -1q0 -1 2 -1h3q4 0 5 1zM744 222v-68h-8v68h8zM771 164q-6 4 -9 10q-2 7 -2 15v4v4q3 5 4 8q3 4 7 8q3 3 6 5q2 2 5 3q2 0 4 1q2 0 4 1h5h5q2 -1 5 -1q2 -1 4 -1q2 -1 4 -3l3 -2q1 -2 3 -3l3 -3l3 -5q1 -3 3 -8l2 -4v-4q0 -4 -1 -7q-1 -4 -3 -8
q-1 -3 -2 -5q-2 -3 -5 -5q-3 -3 -5 -4l-6 -4q-5 -2 -13 -2q-4 0 -7 1q-4 0 -6 1zM771 199q-2 -3 -3 -6t-1 -4q0 -2 1 -4v-3q1 -4 4 -8q0 -1 1 -2t2 -3l3 -2q1 -2 4 -2q1 -1 3 -2q1 -1 2 -1q2 -1 4 -1h4h4q2 0 3 1q1 0 3 1l4 2q1 0 3 2l2 2q1 2 2 3l2 2l2 4l1 4q0 1 1 3v4v4
q-1 3 -3 6q0 2 -2 4t-3 5q-2 1 -4 3q-2 1 -5 3h-4h-6h-6h-5q-2 -2 -4 -3q-3 -2 -5 -3q-1 -3 -2 -5zM850 154h-8v68h6h3q1 0 2 -2l35 -50q1 0 1 -2l1 -1v55h8v-68h-7l-40 56v2h-1v-58zM955 214v-24h28v-6h-28v-30h-7v68h41v-8h-34zM1032 186q-4 -1 -6 -2l22 -30h-6q-2 0 -4 1
v2q-1 0 -2 2l-19 25h-12v-30h-8v68h25h3q2 0 4 -1l4 -2l2 -2q1 -2 2 -3q1 -2 3 -4q0 -1 1 -3v-3v-4q-1 -2 -1 -3l-2 -4q-1 -2 -1 -3zM1026 192q1 0 2 1h1q3 4 3 5q1 2 1 6q0 1 -1 4q0 1 -3 4q-1 0 -1 1l-2 1h-4h-17v-24h17zM1114 164q-2 -3 -5 -4l-6 -4q-3 -1 -6 -1
q-3 -1 -7 -1t-7 1q-4 0 -7 1q-6 2 -11 8q-2 2 -4 5q-2 2 -3 5l-2 8q-2 3 -2 7q0 1 1 4q0 2 1 4t2 5q0 2 1 3q2 3 4 5q1 1 2 3q2 1 4 3l4 2q2 2 4 3q2 0 4 1q3 0 5 1h4h5q2 -1 4 -1l5 -1l3 -3l4 -2l3 -3q1 -2 3 -3q1 -2 2 -5q3 -3 4 -8l2 -4v-4v-7q-1 -4 -3 -8q-1 -3 -3 -5z
M1090 161h4q2 0 4 1q1 0 3 1l2 2q1 0 3 2l4 2l2 3q0 1 1 2l2 4v4q1 1 1 3v4v4q-1 3 -1 6l-2 4q-2 2 -3 5q-3 1 -5 3q-3 1 -5 3h-5h-5h-5h-6q-3 -2 -4 -3q-2 -2 -4 -3q-3 -3 -4 -5l-2 -4q-1 -3 -1 -6v-4v-7q0 -3 1 -4q0 -2 2 -4q0 -1 2 -2q1 -1 2 -3l3 -2q1 -2 2 -2
q1 -1 3 -2q1 -1 4 -1q1 -1 3 -1h4zM1201 221q1 1 2 1h1h6v-68h-7v56l-1 -1v-1q-2 -4 -3 -8q-1 -5 -3 -8t-3 -6l-4 -7q-1 -4 -2 -7l-2 -6q-2 -3 -3 -5q-2 -3 -3 -7h-7q-5 6 -7 13q-3 7 -6 13q-2 7 -5 14q-4 7 -6 14v1l-2 1v-56h-8v68h7q3 0 4 -1l1 -1v-2l24 -53q0 -1 1 -1v-2
q0 1 1 2v2q0 2 2 4l21 48q0 2 1 2zM36 128h77v-10v-2v-2q0 -2 -1 -3l-2 -2l-52 -71h1v1h2h1h51v-18h-81v6q0 5 1 6q0 1 2 4q1 1 1 2t1 2l2 2l1 3l46 63h-50v19zM127 128h68v-19h-49v-24h39v-20h-39v-26h49v-18h-68v107zM279 109h-29v-88h-21v88h-31v19h81v-19zM328 128
l46 -107h-12q-4 0 -8 2q-2 1 -2 3q-1 2 -3 4l-6 14h-49l-5 -14l-1 -2q-1 -1 -2 -1v-2q-1 -1 -3 -2h-2q-1 -1 -2 -1q0 -1 -1 -1h-2h-12l46 107h18zM334 63l-13 33v2q-1 0 -1 1q0 2 -1 3v-3q0 -1 -1 -1q-1 -1 -1 -2l-13 -33h30zM378 128h68v-19h-49v-27h40v-19h-40v-42h-19
v107zM553 101q2 -3 3 -6t3 -6q1 -4 1 -7v-7v-8q0 -4 -1 -7q-2 -3 -3 -6q-1 -4 -3 -7q-2 -2 -4 -5l-4 -6q-4 -2 -6 -4q-2 -3 -5 -4q-3 -3 -6 -4q-4 -1 -7 -2q-4 -1 -7 -1q-4 -1 -8 -1q-5 0 -10 2q-6 1 -11 2q-6 3 -9 6q-4 3 -9 6q-7 8 -10 17q-3 6 -4 11t-1 11q0 3 1 7
q0 3 1 7q2 8 6 12q2 4 4 7q1 2 3 5q4 2 7 4q2 2 5 4t6 3t7 3q3 0 7 1h7h8q3 -1 7 -1q3 -2 7 -3q3 -1 6 -3t5 -4t6 -4q2 -3 4 -5zM539 62l2 6v7q0 6 -2 12q-2 5 -4 8q-2 2 -5 4l-4 4q-3 2 -6 3q-6 3 -14 3t-14 -3q-2 -1 -4 -3l-6 -4t-4 -4q-2 -3 -4 -8q-2 -2 -2 -5v-7v-7
q0 -3 2 -6l4 -7q1 -3 4 -5l6 -4l4 -4q4 -1 7 -2t7 -1t7 1t7 2l6 4l4 4q3 2 5 5zM649 128h19v-107h-18l-50 72q-1 0 -1 1l-1 1q-1 2 -1 3q-2 0 -2 2v1l-2 1v-81h-19v107h17h4q2 -1 2 -2l3 -1l2 -2q5 -8 11 -15q5 -8 10 -17l12 -14q5 -8 12 -15q0 -2 1 -3v-3q0 -1 1 -2v-2v76z
M678 128h81v-19h-32v-88h-19v88h-30v19zM825 73q1 -2 3 -4l2 -4q0 -2 1 -4q1 -3 1 -7q0 -6 -3 -13l-4 -6q-2 -3 -4 -5q-4 -2 -6 -4t-6 -3t-7 -2q-4 -1 -7 -1q-4 0 -7 1q-4 1 -9 2q-3 1 -5 3q-3 2 -7 6q-2 1 -3 3q-1 1 -2 3q-2 1 -2 6l1 1l1 1q1 0 1 1h1t2 1h1h5h2q1 0 1 -1
q3 0 5 -1q2 -2 4 -3t3 -2q1 0 3 -1t5 -1q1 0 3 1q1 0 3 1q3 1 6 3l4 4q1 2 2 3t1 3q0 4 -3 6q-2 3 -4 3l-3 3h-3q-3 1 -8 4q-2 0 -4 1q-3 0 -5 2q-4 1 -6 3q-2 1 -4 3q-3 2 -4 4q-2 2 -3 4q-3 6 -3 12q0 9 3 13q1 3 3 5t5 4q2 2 5 3l6 3q2 0 5 1h7h4q2 -1 5 -1l4 -2
q1 -1 4 -2q1 -1 3 -2l4 -4l3 -2l2 -4l-4 -2l-2 -2q-2 -1 -2 -2h-4h-2h-2h-1q-3 0 -3 1l-4 2q-1 0 -1 1h-1h-3h-6h-2q-1 -1 -3 -2q-1 -1 -2 -4q-1 -1 -1 -4t1 -3l2 -2v-3h4q1 -1 2 -1l6 -2q2 -1 3 -2l5 -1q2 -2 5 -2q2 -1 5 -4zM857 39q3 0 3 -3q1 0 1 -1v-3q0 -3 -1 -5
q0 -2 -3 -4q-2 0 -3 -2h-2q-1 -1 -3 -1q-1 0 -2 1h-2l-2 2h-2q-1 1 -1 2l-2 2q-1 2 -1 5v3q0 1 1 1q1 2 2 3h1q3 3 4 3l2 2h2h3l2 -2zM898 99q-4 -4 -8 -12q-1 -2 -2 -5q-1 -4 -1 -7q0 -4 1 -7l2 -6l4 -7q1 -3 4 -5q2 -2 5 -4q2 -2 6 -4q4 -1 7 -2t7 -1q3 0 5 1t5 1q2 1 5 3
q2 1 4 3q2 0 4 1h3h3q2 0 3 -1q3 -1 5 -3l3 -5q-3 -4 -8 -7q-3 -2 -5 -3q-2 -2 -5 -3q-3 -2 -5 -2l-6 -2t-5 -1q-3 -1 -6 -1q-7 0 -12 2l-10 2q-10 5 -17 12q-8 8 -12 17q-1 6 -2 11q-2 5 -2 11q0 3 1 7q0 3 1 7l2 6q1 3 3 6q3 4 5 7q1 2 4 5l6 4q2 2 6 4q2 2 5 3t8 3
q2 0 6 1h8h6q2 0 5 -1l6 -2q2 -1 5 -2t5 -2q2 -2 5 -4q5 -4 8 -8l-3 -4l-2 -2q-1 -1 -3 -2h-3h-3h-3q-2 0 -4 1l-4 4q-3 1 -5 2q-3 1 -5 1h-5q-8 0 -14 -3q-4 -1 -6 -3zM1072 101q1 -3 3 -6l2 -6q1 -4 1 -7v-7v-8q0 -4 -1 -7l-2 -6q-2 -4 -3 -7q-4 -5 -8 -11q-4 -2 -7 -4
q-3 -3 -5 -4q-3 -3 -6 -4l-8 -2q-3 -1 -6 -1q-4 -1 -8 -1q-10 0 -21 4l-8 6q-5 3 -8 6q-4 4 -7 8t-5 9q-2 6 -3 11t-1 11q0 3 1 7v7q1 3 3 6t3 6q2 4 4 7l5 5q2 2 5 4l6 4q2 2 6 3q3 1 6 3q4 0 8 1h6h8q3 -1 6 -1q4 -2 8 -3q3 -1 6 -3q2 -2 5 -4t7 -4q1 -3 4 -5zM1057 62
q2 5 2 13v7q-1 3 -2 5q-2 5 -3 8l-4 4q-5 5 -12 7q-3 2 -6 3h-8q-7 0 -13 -3q-3 -1 -5 -3l-6 -4l-4 -4q-2 -3 -4 -8q-1 -2 -1 -5q-1 -4 -1 -7q0 -4 1 -7q0 -3 1 -6q4 -8 8 -12l6 -4q2 -2 5 -4q3 -1 7 -2t6 -1q4 0 8 1l6 2q3 2 7 4q3 2 5 4zM1188 127l1 1h2h19v-107h-19v78
v-2l-2 -3v-3q0 -1 -1 -2q-3 -9 -7 -17q-4 -9 -7 -17l-6 -16q-4 -9 -7 -18h-19l-27 68q-1 1 -1 5q-1 2 -1 3q-1 0 -1 1v-77h-20v107h19h3l1 -1q2 -1 3 -1l1 -1l3 -2l2 -2q1 -1 1 -2q2 -8 6 -15q3 -8 6 -17q3 -8 7 -16l6 -16v-1v-2v-2q2 0 2 -2v2v2q0 1 1 2v1l4 8l22 56
q0 1 1 2v2q1 1 3 2h1q1 1 2 1z" />
    <glyph glyph-name="eight" unicode="8" horiz-adv-x="1236" 
d="M1210 533v-286h-1174v286h445q0 15 3 29q2 13 8 26t14 25q7 12 18 21q18 19 44 30q14 6 28 9q13 2 27 2q16 0 30 -3t26 -9q14 -6 26 -14q11 -8 20 -17q18 -18 30 -46q10 -26 10 -53h445zM503 582q-11 -23 -11 -49q0 -28 11 -51q5 -11 12 -22t15 -20q9 -9 20 -16
q10 -7 22 -12q23 -11 51 -11q14 0 27 2q12 2 24 7q12 6 22 13q10 6 19 16q9 9 16 20q7 10 13 21q11 25 11 53q0 11 -2 23q-2 11 -7 21q-6 20 -20 37q-7 8 -15 15t-16 12l-18 10l-20 8q-7 2 -15 3q-9 1 -19 1q-14 0 -27 -2q-13 -3 -25 -9q-24 -9 -42 -28q-8 -9 -14 -20z
M144 337q3 5 3 9v5q-1 2 -3 5q0 1 -2 3l-3 3l-2 4q-2 1 -5 1l-4 2q-3 1 -5 1h-26v-75h8v28h18q2 0 5 1q2 0 4 1q5 2 7 4q1 2 3 4zM200 370h-46v-75h46v9h-35v23h29v10h-29v22h35v11zM273 295l-23 32q1 1 3 1q1 0 2 2q4 2 5 5q1 1 2 3q1 1 2 3v6v5q0 2 -1 4q-2 4 -5 7
q-2 4 -7 4q-1 1 -3 2q-3 1 -5 1h-27v-75h11v31h11l20 -27q1 -2 3 -3q1 -1 2 -1h3h7zM324 308q0 2 1 4v4q0 6 -2 10t-6 7q-1 0 -1 1q-1 1 -3 2v0q-1 0 -3 1h-1q-1 0 -1 2q-3 0 -4 1q-3 0 -4 1l-3 1q-4 1 -4 2q-3 2 -3 3v4v4q1 0 2 1t1 2l2 1h2q2 1 3 1h2h1q1 -1 2 -1
q4 0 4 -2q1 -1 2 -1h2q4 0 7 2l2 1q0 1 -1 2l-2 2q-2 1 -3 2t-3 2q-1 0 -2 1q-1 0 -3 2q-3 0 -3 1h-3h-4q-3 -1 -5 -1l-3 -3q-2 -1 -4 -1q-1 -2 -2 -3q-2 -2 -3 -4t-1 -3q-1 -2 -1 -5v-4q0 -2 2 -4q1 -2 3 -3q1 -2 1 -3l4 -2q2 -2 4 -2l4 -2q1 -1 3 -2q1 -1 3 -1h2
q3 -1 4 -1l1 -1l2 -1q0 -1 1 -3q1 -1 1 -2v-4v-1q0 -2 -1 -3l-1 -2q0 -1 -2 -2q-1 -2 -2 -2q-2 -1 -3 -2h-2h-3h-3h-3l-2 2q-2 0 -2 2l-1 1q-3 2 -6 2h-2q-1 0 -2 -1l-3 -1q0 -2 1 -2q0 -2 2 -3q0 -1 1 -2l1 -1h1q4 -4 9 -5q4 -1 9 -1h5q2 0 4 1t5 2q2 1 3 3q3 1 5 3z
M409 322q1 3 1 5v5q0 6 -1 10q0 3 -1 5q-2 2 -3 5q-2 3 -6 7q-2 2 -4 3t-5 4q-1 0 -3 1t-5 3q-3 0 -5 1h-5h-5q-3 -1 -5 -1q-3 -2 -5 -3t-4 -1q-2 -3 -4 -4t-4 -3l-3 -3q-2 -2 -3 -4q-2 -3 -2 -5q-1 -2 -2 -5q-1 -4 -1 -10q0 -4 1 -7l2 -8q1 -3 3 -6t5 -7l6 -4q3 -2 7 -2
q6 -3 14 -3h5h5q5 2 8 4q7 3 9 5q3 4 6 9q1 2 3 5zM487 370h-10v-58v3l-1 1l-36 51q-2 0 -4 3h-2h-2h-7v-75h10v61l1 -1v-2l43 -58h8v75zM571 295l-33 75h-11l-32 -75h6q3 0 4 1l2 2l2 1l4 13h39l5 -13q1 -2 3 -3q0 -1 4 -1h7zM620 304h-32v66h-11v-75h43v9zM722 370h-10
v-45v-5q0 -2 -1 -4q-1 -4 -5 -6l-2 -2q-2 -1 -3 -3q-3 -1 -4 -1h-4q-5 0 -7 1q-3 2 -5 3t-2 2q-1 1 -2 3l-3 3v4q-1 2 -1 5v45h-10v-45v-5q0 -3 1 -4q0 -4 2 -7q2 -5 6 -7q1 -1 3 -2q1 -1 3 -2q1 -1 3 -1q2 -1 3 -2q3 0 5 -1q1 -1 4 -1q2 0 4 1q1 1 4 1l4 2q1 0 3 1l6 4
q2 2 3 4q0 1 1 3l3 3q1 2 1 4v9v45zM780 308q3 4 3 8q0 6 -2 10t-6 7q-3 2 -3 3h-2q-2 0 -3 1h-1q-2 0 -3 2h-1q-1 0 -2 1q-1 0 -2 1l-3 1q-4 1 -4 2q-2 1 -2 2q-1 1 -2 1v2q-1 0 -1 2t2 4l3 3q1 0 2 1h2q0 1 5 1h1q1 -1 2 -1q1 -1 4 -2q4 -1 5 -1q3 0 4 2l3 1l-2 2l-2 2
q0 1 -1 2q-2 1 -3 2q-2 0 -3 1q-1 0 -3 2q-2 0 -3 1h-2h-5q-2 -1 -4 -1q-2 -2 -4 -3t-3 -1l-3 -3q-1 -2 -3 -4q0 -2 -1 -3q-1 -2 -1 -5t1 -4q1 -2 1 -4q2 -4 5 -6l4 -2q1 -2 2 -2q3 -1 5 -2q1 -1 3 -2t3 -1h2q1 -1 3 -1q1 0 2 -1t3 -1q1 -1 1 -3q1 -1 1 -2v-4v-1q0 -2 -1 -3
q-1 -3 -4 -4q-2 -2 -3 -2l-2 -2h-2h-3h-3h-3q-2 1 -5 4v1q-3 2 -6 2h-1q-2 0 -3 -1l-3 -1l1 -1q0 -1 1 -1q0 -1 1 -1v-2h1v-2q2 -1 3 -1q3 -4 8 -5q4 -1 9 -1h5q2 0 5 1l4 2q2 1 4 3l3 3zM841 370h-46v-75h46v9h-36v23h30v10h-30v22h36v11zM960 322v5v5v6v4q-2 5 -5 10
q-2 3 -6 7q-1 2 -3 3t-4 4q-2 0 -4 1q-3 1 -5 3q-3 0 -5 1h-5h-5q-3 -1 -5 -1q-6 -3 -10 -4q-2 -3 -3 -4q-2 -1 -4 -3l-3 -3l-4 -4q-1 -3 -2 -5t-1 -5q-2 -4 -2 -10q0 -4 1 -7l2 -8q3 -7 9 -13q2 -2 5 -4t7 -2q6 -3 15 -3h5h5q2 1 5 2l4 2q2 2 4 3t3 2q4 4 6 9zM1038 370
h-11v-58v3q-1 1 -2 1l-36 51v1q-1 0 -2 2h-2h-3h-8v-75h12v59l1 -1l42 -58h9v75zM1099 304h-32v66h-11v-75h43v9zM1159 370h-9q-2 0 -4 -2q-4 -2 -4 -4l-17 -23l-1 -1h-1l-1 1l-18 23q-1 2 -3 4t-5 2h-8l27 -37l1 -1q0 -1 1 -1v-1v-1q0 -1 1 -1v-1v-32h11v32v1v2q1 0 1 2v1
h1zM942 352l4 -4q2 -3 3 -5q0 -3 1 -5v-6q0 -6 -1 -11q-1 -3 -3 -5t-4 -3q-2 -2 -4 -3l-4 -4q-6 -2 -11 -2q-3 0 -6 1q-3 0 -5 1q-3 2 -5 4q-2 1 -4 3q-2 1 -3 3q-2 2 -2 5q-2 3 -2 6q-1 2 -1 5q0 5 3 11q0 2 2 5q1 2 3 4l4 4q2 1 5 2q4 2 11 2h5l6 -2l4 -2zM253 343
q0 -1 -2 -4q-1 0 -1 -1q-1 -1 -3 -1q-1 -1 -4 -1h-16v23h16q2 0 4 -1h3l1 -2l2 -4q1 -1 1 -5zM391 352l4 -4q2 -3 3 -5q1 -3 2 -5v-6v-5l-2 -6t-3 -5t-4 -3q-1 -2 -3 -3q-2 -2 -5 -4q-2 -1 -5 -1q-3 -1 -6 -1q-6 0 -11 2l-4 4q-3 1 -5 3l-3 3q-2 2 -3 5l-2 6q-1 2 -1 5
q0 5 3 11q1 2 3 5q2 2 3 4q2 2 5 4l4 2l6 2h5q6 0 11 -2q3 -1 5 -2zM532 358q0 -2 1 -3v-2l14 -31h-29l14 31v2v3zM132 356l2 -2q0 -2 1 -3q1 -2 1 -5v-2q0 -2 -1 -3t-1 -2q-1 -2 -2 -2l-4 -4h-5h-18v26h18q3 0 5 -1q1 0 3 -1zM580 422q-9 4 -18 10q-10 5 -17 12h157
q-8 -7 -17 -12q-9 -6 -19 -10q-10 -3 -21 -6t-22 -3q-12 0 -22 3zM557 457l154 155q14 -19 22 -39t8 -40q0 -11 -1 -21q-2 -11 -6 -21q-4 -9 -9 -17q-5 -9 -11 -17h-157zM534 453q-13 17 -22 36q-3 10 -5 21t-2 23q0 10 2 20t5 20q3 9 8 18q5 8 12 16h156zM666 642
q10 -4 19 -10t16 -11h-158q18 14 37 21q19 9 43 9zM38 171q-2 2 -2 4l-2 4q-1 3 -1 5q-1 2 -1 5t2 8q1 2 2 5q0 2 2 3l2 5q0 1 3 3q0 1 3 3q2 1 3 2q3 2 5 3l4 1q1 0 4 1h5h7q3 -1 7 -3q4 -1 7 -3l4 -4q-1 -1 -2 -1v-2h-1h-1h-2h-3q-2 1 -4 3q-2 1 -4 1h-3h-5h-5h-4l-6 -3
q-2 -2 -4 -3q-2 -3 -3 -5q-2 -2 -3 -4q-2 -3 -2 -6v-4q0 -4 1 -7l2 -4v-4q1 -1 3 -2q1 -1 2 -3q2 -1 3 -2q1 -2 3 -2q1 -1 3 -2t4 -1q1 -1 3 -1h3h5q2 0 4 1q2 0 5 1l4 2v14h-6h-1l-1 1l-1 2l-2 1v1q-1 0 -1 1v1v1h19v-26l-2 -2l-3 -3q-3 -1 -6 -1q-3 -1 -7 -1h-7h-5h-4
q-3 1 -4 2l-5 3q-1 0 -3 2q-3 1 -3 3q-3 1 -3 3zM117 214v-22h27v-7h-27v-23h33v-8h-41v68h41v-8h-33zM180 154v60h-22v8h52v-8h-23v-60h-7zM260 214v-24h29v-6h-29v-30h-8v68h41v-8h-33zM313 222v-42q0 -2 1 -3q1 -2 2 -3q1 -3 3 -4l2 -4q0 -1 2 -2l2 -2q3 -1 5 -1h4h4
q1 0 2 1q3 1 5 2q1 1 3 2q0 2 2 4q1 1 2 4q2 2 2 6v42h7v-42v-5q-1 -2 -2 -5t-2 -5l-4 -4t-4 -3q-2 -2 -4 -3q-6 -1 -11 -1q-6 0 -12 1l-3 3q-3 1 -5 3q-3 3 -5 9q-1 3 -2 5t-1 5v42h7zM383 222v-60h30v-8h-38v68h8zM428 222v-60h32v-8h-39v68h7zM522 154l-30 68h4q2 0 4 -1
q1 -1 2 -1l1 -2l21 -51v-2q1 -1 1 -3v3l1 1v1q3 7 6 13l6 12q2 8 5 14l6 12q0 2 1 2t1 1q1 1 2 1h2h4q-4 -8 -7 -16q-4 -9 -9 -17q-3 -10 -6 -18q-4 -8 -8 -17h-7zM572 214v-22h28v-7h-28v-23h33v-8h-41v68h41v-8h-33zM655 186q-1 -1 -5 -2l23 -30h-5q-1 0 -2 1h-2l-2 2
q-1 0 -2 2l-19 25h-12v-30h-7v68h25h3q1 0 3 -1q4 -1 7 -4q1 -2 2 -3l2 -4q1 -1 1 -3v-3v-4q0 -2 -1 -3q0 -2 -1 -4t-2 -3l-2 -2zM647 190q2 0 3 2q1 0 2 1h2l2 3q0 1 1 2q0 1 1 2v4v1q-1 1 -1 3l-1 2q-1 0 -2 2q-1 0 -2 1q-1 0 -2 1h-3h-18v-24h18zM709 164q1 1 2 4
q1 1 2 3v3q0 3 -1 5q-1 0 -1 2l-2 2t-4 2q-2 0 -3 1l-3 1q-2 0 -4 1t-2 2q-5 0 -7 3q-2 0 -2 2q-1 2 -2 3v7v5q0 1 1 3q0 3 4 5l3 3q1 0 4 1q2 0 3 1h4h3q1 -1 2 -1h2l3 -2q1 0 2 -1t1 -2q2 -1 3 -2q0 -1 1 -1l-2 -1q-1 -1 -4 -1h-3q-2 1 -2 2h-1h-1h-1h-1h-1h-1h-4
q-4 0 -4 -1q-3 -3 -3 -4q-2 0 -2 -4q0 -3 2 -3q0 -2 1 -3t3 -1l1 -1q2 -2 3 -2t4 -2h2q1 0 1 -1h2q1 0 2 -2h1h1v0h2l1 -1l3 -3q1 -2 3 -3q1 -5 1 -9v-5q0 -2 -3 -4q0 -3 -4 -6q-1 -1 -3 -2l-4 -2q-2 -1 -4 -1h-5q-5 0 -8 1q-4 1 -7 4q-1 0 -2 1l-2 2v2l-1 1l1 1l1 1h2h1h2
l2 -2q2 -1 3 -2t3 -1q0 -1 2 -1h3q4 0 5 1zM744 222v-68h-8v68h8zM771 164q-6 4 -9 10q-2 7 -2 15v4v4q3 5 4 8q3 4 7 8q3 3 6 5q2 2 5 3q2 0 4 1q2 0 4 1h5h5q2 -1 5 -1q2 -1 4 -1q2 -1 4 -3l3 -2q1 -2 3 -3l3 -3l3 -5q1 -3 3 -8l2 -4v-4q0 -4 -1 -7q-1 -4 -3 -8
q-1 -3 -2 -5q-2 -3 -5 -5q-3 -3 -5 -4l-6 -4q-5 -2 -13 -2q-4 0 -7 1q-4 0 -6 1zM771 199q-2 -3 -3 -6t-1 -4q0 -2 1 -4v-3q1 -4 4 -8q0 -1 1 -2t2 -3l3 -2q1 -2 4 -2q1 -1 3 -2q1 -1 2 -1q2 -1 4 -1h4h4q2 0 3 1q1 0 3 1l4 2q1 0 3 2l2 2q1 2 2 3l2 2l2 4l1 4q0 1 1 3v4v4
q-1 3 -3 6q0 2 -2 4t-3 5q-2 1 -4 3q-2 1 -5 3h-4h-6h-6h-5q-2 -2 -4 -3q-3 -2 -5 -3q-1 -3 -2 -5zM850 154h-8v68h6h3q1 0 2 -2l35 -50q1 0 1 -2l1 -1v55h8v-68h-7l-40 56v2h-1v-58zM955 214v-24h28v-6h-28v-30h-7v68h41v-8h-34zM1032 186q-4 -1 -6 -2l22 -30h-6q-2 0 -4 1
v2q-1 0 -2 2l-19 25h-12v-30h-8v68h25h3q2 0 4 -1l4 -2l2 -2q1 -2 2 -3q1 -2 3 -4q0 -1 1 -3v-3v-4q-1 -2 -1 -3l-2 -4q-1 -2 -1 -3zM1026 192q1 0 2 1h1q3 4 3 5q1 2 1 6q0 1 -1 4q0 1 -3 4q-1 0 -1 1l-2 1h-4h-17v-24h17zM1114 164q-2 -3 -5 -4l-6 -4q-3 -1 -6 -1
q-3 -1 -7 -1t-7 1q-4 0 -7 1q-6 2 -11 8q-2 2 -4 5q-2 2 -3 5l-2 8q-2 3 -2 7q0 1 1 4q0 2 1 4t2 5q0 2 1 3q2 3 4 5q1 1 2 3q2 1 4 3l4 2q2 2 4 3q2 0 4 1q3 0 5 1h4h5q2 -1 4 -1l5 -1l3 -3l4 -2l3 -3q1 -2 3 -3q1 -2 2 -5q3 -3 4 -8l2 -4v-4v-7q-1 -4 -3 -8q-1 -3 -3 -5z
M1090 161h4q2 0 4 1q1 0 3 1l2 2q1 0 3 2l4 2l2 3q0 1 1 2l2 4v4q1 1 1 3v4v4q-1 3 -1 6l-2 4q-2 2 -3 5q-3 1 -5 3q-3 1 -5 3h-5h-5h-5h-6q-3 -2 -4 -3q-2 -2 -4 -3q-3 -3 -4 -5l-2 -4q-1 -3 -1 -6v-4v-7q0 -3 1 -4q0 -2 2 -4q0 -1 2 -2q1 -1 2 -3l3 -2q1 -2 2 -2
q1 -1 3 -2q1 -1 4 -1q1 -1 3 -1h4zM1201 221q1 1 2 1h1h6v-68h-7v56l-1 -1v-1q-2 -4 -3 -8q-1 -5 -3 -8t-3 -6l-4 -7q-1 -4 -2 -7l-2 -6q-2 -3 -3 -5q-2 -3 -3 -7h-7q-5 6 -7 13q-3 7 -6 13q-2 7 -5 14q-4 7 -6 14v1l-2 1v-56h-8v68h7q3 0 4 -1l1 -1v-2l24 -53q0 -1 1 -1v-2
q0 1 1 2v2q0 2 2 4l21 48q0 2 1 2zM36 128h77v-10v-2v-2q0 -2 -1 -3l-2 -2l-52 -71h1v1h2h1h51v-18h-81v6q0 5 1 6q0 1 2 4q1 1 1 2t1 2l2 2l1 3l46 63h-50v19zM127 128h68v-19h-49v-24h39v-20h-39v-26h49v-18h-68v107zM279 109h-29v-88h-21v88h-31v19h81v-19zM328 128
l46 -107h-12q-4 0 -8 2q-2 1 -2 3q-1 2 -3 4l-6 14h-49l-5 -14l-1 -2q-1 -1 -2 -1v-2q-1 -1 -3 -2h-2q-1 -1 -2 -1q0 -1 -1 -1h-2h-12l46 107h18zM334 63l-13 33v2q-1 0 -1 1q0 2 -1 3v-3q0 -1 -1 -1q-1 -1 -1 -2l-13 -33h30zM378 128h68v-19h-49v-27h40v-19h-40v-42h-19
v107zM553 101q2 -3 3 -6t3 -6q1 -4 1 -7v-7v-8q0 -4 -1 -7q-2 -3 -3 -6q-1 -4 -3 -7q-2 -2 -4 -5l-4 -6q-4 -2 -6 -4q-2 -3 -5 -4q-3 -3 -6 -4q-4 -1 -7 -2q-4 -1 -7 -1q-4 -1 -8 -1q-5 0 -10 2q-6 1 -11 2q-6 3 -9 6q-4 3 -9 6q-7 8 -10 17q-3 6 -4 11t-1 11q0 3 1 7
q0 3 1 7q2 8 6 12q2 4 4 7q1 2 3 5q4 2 7 4q2 2 5 4t6 3t7 3q3 0 7 1h7h8q3 -1 7 -1q3 -2 7 -3q3 -1 6 -3t5 -4t6 -4q2 -3 4 -5zM539 62l2 6v7q0 6 -2 12q-2 5 -4 8q-2 2 -5 4l-4 4q-3 2 -6 3q-6 3 -14 3t-14 -3q-2 -1 -4 -3l-6 -4t-4 -4q-2 -3 -4 -8q-2 -2 -2 -5v-7v-7
q0 -3 2 -6l4 -7q1 -3 4 -5l6 -4l4 -4q4 -1 7 -2t7 -1t7 1t7 2l6 4l4 4q3 2 5 5zM649 128h19v-107h-18l-50 72q-1 0 -1 1l-1 1q-1 2 -1 3q-2 0 -2 2v1l-2 1v-81h-19v107h17h4q2 -1 2 -2l3 -1l2 -2q5 -8 11 -15q5 -8 10 -17l12 -14q5 -8 12 -15q0 -2 1 -3v-3q0 -1 1 -2v-2v76z
M678 128h81v-19h-32v-88h-19v88h-30v19zM825 73q1 -2 3 -4l2 -4q0 -2 1 -4q1 -3 1 -7q0 -6 -3 -13l-4 -6q-2 -3 -4 -5q-4 -2 -6 -4t-6 -3t-7 -2q-4 -1 -7 -1q-4 0 -7 1q-4 1 -9 2q-3 1 -5 3q-3 2 -7 6q-2 1 -3 3q-1 1 -2 3q-2 1 -2 6l1 1l1 1q1 0 1 1h1t2 1h1h5h2q1 0 1 -1
q3 0 5 -1q2 -2 4 -3t3 -2q1 0 3 -1t5 -1q1 0 3 1q1 0 3 1q3 1 6 3l4 4q1 2 2 3t1 3q0 4 -3 6q-2 3 -4 3l-3 3h-3q-3 1 -8 4q-2 0 -4 1q-3 0 -5 2q-4 1 -6 3q-2 1 -4 3q-3 2 -4 4q-2 2 -3 4q-3 6 -3 12q0 9 3 13q1 3 3 5t5 4q2 2 5 3l6 3q2 0 5 1h7h4q2 -1 5 -1l4 -2
q1 -1 4 -2q1 -1 3 -2l4 -4l3 -2l2 -4l-4 -2l-2 -2q-2 -1 -2 -2h-4h-2h-2h-1q-3 0 -3 1l-4 2q-1 0 -1 1h-1h-3h-6h-2q-1 -1 -3 -2q-1 -1 -2 -4q-1 -1 -1 -4t1 -3l2 -2v-3h4q1 -1 2 -1l6 -2q2 -1 3 -2l5 -1q2 -2 5 -2q2 -1 5 -4zM857 39q3 0 3 -3q1 0 1 -1v-3q0 -3 -1 -5
q0 -2 -3 -4q-2 0 -3 -2h-2q-1 -1 -3 -1q-1 0 -2 1h-2l-2 2h-2q-1 1 -1 2l-2 2q-1 2 -1 5v3q0 1 1 1q1 2 2 3h1q3 3 4 3l2 2h2h3l2 -2zM898 99q-4 -4 -8 -12q-1 -2 -2 -5q-1 -4 -1 -7q0 -4 1 -7l2 -6l4 -7q1 -3 4 -5q2 -2 5 -4q2 -2 6 -4q4 -1 7 -2t7 -1q3 0 5 1t5 1q2 1 5 3
q2 1 4 3q2 0 4 1h3h3q2 0 3 -1q3 -1 5 -3l3 -5q-3 -4 -8 -7q-3 -2 -5 -3q-2 -2 -5 -3q-3 -2 -5 -2l-6 -2t-5 -1q-3 -1 -6 -1q-7 0 -12 2l-10 2q-10 5 -17 12q-8 8 -12 17q-1 6 -2 11q-2 5 -2 11q0 3 1 7q0 3 1 7l2 6q1 3 3 6q3 4 5 7q1 2 4 5l6 4q2 2 6 4q2 2 5 3t8 3
q2 0 6 1h8h6q2 0 5 -1l6 -2q2 -1 5 -2t5 -2q2 -2 5 -4q5 -4 8 -8l-3 -4l-2 -2q-1 -1 -3 -2h-3h-3h-3q-2 0 -4 1l-4 4q-3 1 -5 2q-3 1 -5 1h-5q-8 0 -14 -3q-4 -1 -6 -3zM1072 101q1 -3 3 -6l2 -6q1 -4 1 -7v-7v-8q0 -4 -1 -7l-2 -6q-2 -4 -3 -7q-4 -5 -8 -11q-4 -2 -7 -4
q-3 -3 -5 -4q-3 -3 -6 -4l-8 -2q-3 -1 -6 -1q-4 -1 -8 -1q-10 0 -21 4l-8 6q-5 3 -8 6q-4 4 -7 8t-5 9q-2 6 -3 11t-1 11q0 3 1 7v7q1 3 3 6t3 6q2 4 4 7l5 5q2 2 5 4l6 4q2 2 6 3q3 1 6 3q4 0 8 1h6h8q3 -1 6 -1q4 -2 8 -3q3 -1 6 -3q2 -2 5 -4t7 -4q1 -3 4 -5zM1057 62
q2 5 2 13v7q-1 3 -2 5q-2 5 -3 8l-4 4q-5 5 -12 7q-3 2 -6 3h-8q-7 0 -13 -3q-3 -1 -5 -3l-6 -4l-4 -4q-2 -3 -4 -8q-1 -2 -1 -5q-1 -4 -1 -7q0 -4 1 -7q0 -3 1 -6q4 -8 8 -12l6 -4q2 -2 5 -4q3 -1 7 -2t6 -1q4 0 8 1l6 2q3 2 7 4q3 2 5 4zM1188 127l1 1h2h19v-107h-19v78
v-2l-2 -3v-3q0 -1 -1 -2q-3 -9 -7 -17q-4 -9 -7 -17l-6 -16q-4 -9 -7 -18h-19l-27 68q-1 1 -1 5q-1 2 -1 3q-1 0 -1 1v-77h-20v107h19h3l1 -1q2 -1 3 -1l1 -1l3 -2l2 -2q1 -1 1 -2q2 -8 6 -15q3 -8 6 -17q3 -8 7 -16l6 -16v-1v-2v-2q2 0 2 -2v2v2q0 1 1 2v1l4 8l22 56
q0 1 1 2v2q1 1 3 2h1q1 1 2 1z" />
    <glyph glyph-name="nine" unicode="9" horiz-adv-x="1236" 
d="M1210 533v-286h-1174v286h445q0 15 3 29q2 13 8 26t14 25q7 12 18 21q18 19 44 30q14 6 28 9q13 2 27 2q16 0 30 -3t26 -9q14 -6 26 -14q11 -8 20 -17q18 -18 30 -46q10 -26 10 -53h445zM503 582q-11 -23 -11 -49q0 -28 11 -51q5 -11 12 -22t15 -20q9 -9 20 -16
q10 -7 22 -12q23 -11 51 -11q14 0 27 2q12 2 24 7q12 6 22 13q10 6 19 16q9 9 16 20q7 10 13 21q11 25 11 53q0 11 -2 23q-2 11 -7 21q-6 20 -20 37q-7 8 -15 15t-16 12l-18 10l-20 8q-7 2 -15 3q-9 1 -19 1q-14 0 -27 -2q-13 -3 -25 -9q-24 -9 -42 -28q-8 -9 -14 -20z
M144 337q3 5 3 9v5q-1 2 -3 5q0 1 -2 3l-3 3l-2 4q-2 1 -5 1l-4 2q-3 1 -5 1h-26v-75h8v28h18q2 0 5 1q2 0 4 1q5 2 7 4q1 2 3 4zM200 370h-46v-75h46v9h-35v23h29v10h-29v22h35v11zM273 295l-23 32q1 1 3 1q1 0 2 2q4 2 5 5q1 1 2 3q1 1 2 3v6v5q0 2 -1 4q-2 4 -5 7
q-2 4 -7 4q-1 1 -3 2q-3 1 -5 1h-27v-75h11v31h11l20 -27q1 -2 3 -3q1 -1 2 -1h3h7zM324 308q0 2 1 4v4q0 6 -2 10t-6 7q-1 0 -1 1q-1 1 -3 2v0q-1 0 -3 1h-1q-1 0 -1 2q-3 0 -4 1q-3 0 -4 1l-3 1q-4 1 -4 2q-3 2 -3 3v4v4q1 0 2 1t1 2l2 1h2q2 1 3 1h2h1q1 -1 2 -1
q4 0 4 -2q1 -1 2 -1h2q4 0 7 2l2 1q0 1 -1 2l-2 2q-2 1 -3 2t-3 2q-1 0 -2 1q-1 0 -3 2q-3 0 -3 1h-3h-4q-3 -1 -5 -1l-3 -3q-2 -1 -4 -1q-1 -2 -2 -3q-2 -2 -3 -4t-1 -3q-1 -2 -1 -5v-4q0 -2 2 -4q1 -2 3 -3q1 -2 1 -3l4 -2q2 -2 4 -2l4 -2q1 -1 3 -2q1 -1 3 -1h2
q3 -1 4 -1l1 -1l2 -1q0 -1 1 -3q1 -1 1 -2v-4v-1q0 -2 -1 -3l-1 -2q0 -1 -2 -2q-1 -2 -2 -2q-2 -1 -3 -2h-2h-3h-3h-3l-2 2q-2 0 -2 2l-1 1q-3 2 -6 2h-2q-1 0 -2 -1l-3 -1q0 -2 1 -2q0 -2 2 -3q0 -1 1 -2l1 -1h1q4 -4 9 -5q4 -1 9 -1h5q2 0 4 1t5 2q2 1 3 3q3 1 5 3z
M409 322q1 3 1 5v5q0 6 -1 10q0 3 -1 5q-2 2 -3 5q-2 3 -6 7q-2 2 -4 3t-5 4q-1 0 -3 1t-5 3q-3 0 -5 1h-5h-5q-3 -1 -5 -1q-3 -2 -5 -3t-4 -1q-2 -3 -4 -4t-4 -3l-3 -3q-2 -2 -3 -4q-2 -3 -2 -5q-1 -2 -2 -5q-1 -4 -1 -10q0 -4 1 -7l2 -8q1 -3 3 -6t5 -7l6 -4q3 -2 7 -2
q6 -3 14 -3h5h5q5 2 8 4q7 3 9 5q3 4 6 9q1 2 3 5zM487 370h-10v-58v3l-1 1l-36 51q-2 0 -4 3h-2h-2h-7v-75h10v61l1 -1v-2l43 -58h8v75zM571 295l-33 75h-11l-32 -75h6q3 0 4 1l2 2l2 1l4 13h39l5 -13q1 -2 3 -3q0 -1 4 -1h7zM620 304h-32v66h-11v-75h43v9zM722 370h-10
v-45v-5q0 -2 -1 -4q-1 -4 -5 -6l-2 -2q-2 -1 -3 -3q-3 -1 -4 -1h-4q-5 0 -7 1q-3 2 -5 3t-2 2q-1 1 -2 3l-3 3v4q-1 2 -1 5v45h-10v-45v-5q0 -3 1 -4q0 -4 2 -7q2 -5 6 -7q1 -1 3 -2q1 -1 3 -2q1 -1 3 -1q2 -1 3 -2q3 0 5 -1q1 -1 4 -1q2 0 4 1q1 1 4 1l4 2q1 0 3 1l6 4
q2 2 3 4q0 1 1 3l3 3q1 2 1 4v9v45zM780 308q3 4 3 8q0 6 -2 10t-6 7q-3 2 -3 3h-2q-2 0 -3 1h-1q-2 0 -3 2h-1q-1 0 -2 1q-1 0 -2 1l-3 1q-4 1 -4 2q-2 1 -2 2q-1 1 -2 1v2q-1 0 -1 2t2 4l3 3q1 0 2 1h2q0 1 5 1h1q1 -1 2 -1q1 -1 4 -2q4 -1 5 -1q3 0 4 2l3 1l-2 2l-2 2
q0 1 -1 2q-2 1 -3 2q-2 0 -3 1q-1 0 -3 2q-2 0 -3 1h-2h-5q-2 -1 -4 -1q-2 -2 -4 -3t-3 -1l-3 -3q-1 -2 -3 -4q0 -2 -1 -3q-1 -2 -1 -5t1 -4q1 -2 1 -4q2 -4 5 -6l4 -2q1 -2 2 -2q3 -1 5 -2q1 -1 3 -2t3 -1h2q1 -1 3 -1q1 0 2 -1t3 -1q1 -1 1 -3q1 -1 1 -2v-4v-1q0 -2 -1 -3
q-1 -3 -4 -4q-2 -2 -3 -2l-2 -2h-2h-3h-3h-3q-2 1 -5 4v1q-3 2 -6 2h-1q-2 0 -3 -1l-3 -1l1 -1q0 -1 1 -1q0 -1 1 -1v-2h1v-2q2 -1 3 -1q3 -4 8 -5q4 -1 9 -1h5q2 0 5 1l4 2q2 1 4 3l3 3zM841 370h-46v-75h46v9h-36v23h30v10h-30v22h36v11zM960 322v5v5v6v4q-2 5 -5 10
q-2 3 -6 7q-1 2 -3 3t-4 4q-2 0 -4 1q-3 1 -5 3q-3 0 -5 1h-5h-5q-3 -1 -5 -1q-6 -3 -10 -4q-2 -3 -3 -4q-2 -1 -4 -3l-3 -3l-4 -4q-1 -3 -2 -5t-1 -5q-2 -4 -2 -10q0 -4 1 -7l2 -8q3 -7 9 -13q2 -2 5 -4t7 -2q6 -3 15 -3h5h5q2 1 5 2l4 2q2 2 4 3t3 2q4 4 6 9zM1038 370
h-11v-58v3q-1 1 -2 1l-36 51v1q-1 0 -2 2h-2h-3h-8v-75h12v59l1 -1l42 -58h9v75zM1099 304h-32v66h-11v-75h43v9zM1159 370h-9q-2 0 -4 -2q-4 -2 -4 -4l-17 -23l-1 -1h-1l-1 1l-18 23q-1 2 -3 4t-5 2h-8l27 -37l1 -1q0 -1 1 -1v-1v-1q0 -1 1 -1v-1v-32h11v32v1v2q1 0 1 2v1
h1zM942 352l4 -4q2 -3 3 -5q0 -3 1 -5v-6q0 -6 -1 -11q-1 -3 -3 -5t-4 -3q-2 -2 -4 -3l-4 -4q-6 -2 -11 -2q-3 0 -6 1q-3 0 -5 1q-3 2 -5 4q-2 1 -4 3q-2 1 -3 3q-2 2 -2 5q-2 3 -2 6q-1 2 -1 5q0 5 3 11q0 2 2 5q1 2 3 4l4 4q2 1 5 2q4 2 11 2h5l6 -2l4 -2zM253 343
q0 -1 -2 -4q-1 0 -1 -1q-1 -1 -3 -1q-1 -1 -4 -1h-16v23h16q2 0 4 -1h3l1 -2l2 -4q1 -1 1 -5zM391 352l4 -4q2 -3 3 -5q1 -3 2 -5v-6v-5l-2 -6t-3 -5t-4 -3q-1 -2 -3 -3q-2 -2 -5 -4q-2 -1 -5 -1q-3 -1 -6 -1q-6 0 -11 2l-4 4q-3 1 -5 3l-3 3q-2 2 -3 5l-2 6q-1 2 -1 5
q0 5 3 11q1 2 3 5q2 2 3 4q2 2 5 4l4 2l6 2h5q6 0 11 -2q3 -1 5 -2zM532 358q0 -2 1 -3v-2l14 -31h-29l14 31v2v3zM132 356l2 -2q0 -2 1 -3q1 -2 1 -5v-2q0 -2 -1 -3t-1 -2q-1 -2 -2 -2l-4 -4h-5h-18v26h18q3 0 5 -1q1 0 3 -1zM580 422q-9 4 -18 10q-10 5 -17 12h157
q-8 -7 -17 -12q-9 -6 -19 -10q-10 -3 -21 -6t-22 -3q-12 0 -22 3zM557 457l154 155q14 -19 22 -39t8 -40q0 -11 -1 -21q-2 -11 -6 -21q-4 -9 -9 -17q-5 -9 -11 -17h-157zM534 453q-13 17 -22 36q-3 10 -5 21t-2 23q0 10 2 20t5 20q3 9 8 18q5 8 12 16h156zM666 642
q10 -4 19 -10t16 -11h-158q18 14 37 21q19 9 43 9zM38 171q-2 2 -2 4l-2 4q-1 3 -1 5q-1 2 -1 5t2 8q1 2 2 5q0 2 2 3l2 5q0 1 3 3q0 1 3 3q2 1 3 2q3 2 5 3l4 1q1 0 4 1h5h7q3 -1 7 -3q4 -1 7 -3l4 -4q-1 -1 -2 -1v-2h-1h-1h-2h-3q-2 1 -4 3q-2 1 -4 1h-3h-5h-5h-4l-6 -3
q-2 -2 -4 -3q-2 -3 -3 -5q-2 -2 -3 -4q-2 -3 -2 -6v-4q0 -4 1 -7l2 -4v-4q1 -1 3 -2q1 -1 2 -3q2 -1 3 -2q1 -2 3 -2q1 -1 3 -2t4 -1q1 -1 3 -1h3h5q2 0 4 1q2 0 5 1l4 2v14h-6h-1l-1 1l-1 2l-2 1v1q-1 0 -1 1v1v1h19v-26l-2 -2l-3 -3q-3 -1 -6 -1q-3 -1 -7 -1h-7h-5h-4
q-3 1 -4 2l-5 3q-1 0 -3 2q-3 1 -3 3q-3 1 -3 3zM117 214v-22h27v-7h-27v-23h33v-8h-41v68h41v-8h-33zM180 154v60h-22v8h52v-8h-23v-60h-7zM260 214v-24h29v-6h-29v-30h-8v68h41v-8h-33zM313 222v-42q0 -2 1 -3q1 -2 2 -3q1 -3 3 -4l2 -4q0 -1 2 -2l2 -2q3 -1 5 -1h4h4
q1 0 2 1q3 1 5 2q1 1 3 2q0 2 2 4q1 1 2 4q2 2 2 6v42h7v-42v-5q-1 -2 -2 -5t-2 -5l-4 -4t-4 -3q-2 -2 -4 -3q-6 -1 -11 -1q-6 0 -12 1l-3 3q-3 1 -5 3q-3 3 -5 9q-1 3 -2 5t-1 5v42h7zM383 222v-60h30v-8h-38v68h8zM428 222v-60h32v-8h-39v68h7zM522 154l-30 68h4q2 0 4 -1
q1 -1 2 -1l1 -2l21 -51v-2q1 -1 1 -3v3l1 1v1q3 7 6 13l6 12q2 8 5 14l6 12q0 2 1 2t1 1q1 1 2 1h2h4q-4 -8 -7 -16q-4 -9 -9 -17q-3 -10 -6 -18q-4 -8 -8 -17h-7zM572 214v-22h28v-7h-28v-23h33v-8h-41v68h41v-8h-33zM655 186q-1 -1 -5 -2l23 -30h-5q-1 0 -2 1h-2l-2 2
q-1 0 -2 2l-19 25h-12v-30h-7v68h25h3q1 0 3 -1q4 -1 7 -4q1 -2 2 -3l2 -4q1 -1 1 -3v-3v-4q0 -2 -1 -3q0 -2 -1 -4t-2 -3l-2 -2zM647 190q2 0 3 2q1 0 2 1h2l2 3q0 1 1 2q0 1 1 2v4v1q-1 1 -1 3l-1 2q-1 0 -2 2q-1 0 -2 1q-1 0 -2 1h-3h-18v-24h18zM709 164q1 1 2 4
q1 1 2 3v3q0 3 -1 5q-1 0 -1 2l-2 2t-4 2q-2 0 -3 1l-3 1q-2 0 -4 1t-2 2q-5 0 -7 3q-2 0 -2 2q-1 2 -2 3v7v5q0 1 1 3q0 3 4 5l3 3q1 0 4 1q2 0 3 1h4h3q1 -1 2 -1h2l3 -2q1 0 2 -1t1 -2q2 -1 3 -2q0 -1 1 -1l-2 -1q-1 -1 -4 -1h-3q-2 1 -2 2h-1h-1h-1h-1h-1h-1h-4
q-4 0 -4 -1q-3 -3 -3 -4q-2 0 -2 -4q0 -3 2 -3q0 -2 1 -3t3 -1l1 -1q2 -2 3 -2t4 -2h2q1 0 1 -1h2q1 0 2 -2h1h1v0h2l1 -1l3 -3q1 -2 3 -3q1 -5 1 -9v-5q0 -2 -3 -4q0 -3 -4 -6q-1 -1 -3 -2l-4 -2q-2 -1 -4 -1h-5q-5 0 -8 1q-4 1 -7 4q-1 0 -2 1l-2 2v2l-1 1l1 1l1 1h2h1h2
l2 -2q2 -1 3 -2t3 -1q0 -1 2 -1h3q4 0 5 1zM744 222v-68h-8v68h8zM771 164q-6 4 -9 10q-2 7 -2 15v4v4q3 5 4 8q3 4 7 8q3 3 6 5q2 2 5 3q2 0 4 1q2 0 4 1h5h5q2 -1 5 -1q2 -1 4 -1q2 -1 4 -3l3 -2q1 -2 3 -3l3 -3l3 -5q1 -3 3 -8l2 -4v-4q0 -4 -1 -7q-1 -4 -3 -8
q-1 -3 -2 -5q-2 -3 -5 -5q-3 -3 -5 -4l-6 -4q-5 -2 -13 -2q-4 0 -7 1q-4 0 -6 1zM771 199q-2 -3 -3 -6t-1 -4q0 -2 1 -4v-3q1 -4 4 -8q0 -1 1 -2t2 -3l3 -2q1 -2 4 -2q1 -1 3 -2q1 -1 2 -1q2 -1 4 -1h4h4q2 0 3 1q1 0 3 1l4 2q1 0 3 2l2 2q1 2 2 3l2 2l2 4l1 4q0 1 1 3v4v4
q-1 3 -3 6q0 2 -2 4t-3 5q-2 1 -4 3q-2 1 -5 3h-4h-6h-6h-5q-2 -2 -4 -3q-3 -2 -5 -3q-1 -3 -2 -5zM850 154h-8v68h6h3q1 0 2 -2l35 -50q1 0 1 -2l1 -1v55h8v-68h-7l-40 56v2h-1v-58zM955 214v-24h28v-6h-28v-30h-7v68h41v-8h-34zM1032 186q-4 -1 -6 -2l22 -30h-6q-2 0 -4 1
v2q-1 0 -2 2l-19 25h-12v-30h-8v68h25h3q2 0 4 -1l4 -2l2 -2q1 -2 2 -3q1 -2 3 -4q0 -1 1 -3v-3v-4q-1 -2 -1 -3l-2 -4q-1 -2 -1 -3zM1026 192q1 0 2 1h1q3 4 3 5q1 2 1 6q0 1 -1 4q0 1 -3 4q-1 0 -1 1l-2 1h-4h-17v-24h17zM1114 164q-2 -3 -5 -4l-6 -4q-3 -1 -6 -1
q-3 -1 -7 -1t-7 1q-4 0 -7 1q-6 2 -11 8q-2 2 -4 5q-2 2 -3 5l-2 8q-2 3 -2 7q0 1 1 4q0 2 1 4t2 5q0 2 1 3q2 3 4 5q1 1 2 3q2 1 4 3l4 2q2 2 4 3q2 0 4 1q3 0 5 1h4h5q2 -1 4 -1l5 -1l3 -3l4 -2l3 -3q1 -2 3 -3q1 -2 2 -5q3 -3 4 -8l2 -4v-4v-7q-1 -4 -3 -8q-1 -3 -3 -5z
M1090 161h4q2 0 4 1q1 0 3 1l2 2q1 0 3 2l4 2l2 3q0 1 1 2l2 4v4q1 1 1 3v4v4q-1 3 -1 6l-2 4q-2 2 -3 5q-3 1 -5 3q-3 1 -5 3h-5h-5h-5h-6q-3 -2 -4 -3q-2 -2 -4 -3q-3 -3 -4 -5l-2 -4q-1 -3 -1 -6v-4v-7q0 -3 1 -4q0 -2 2 -4q0 -1 2 -2q1 -1 2 -3l3 -2q1 -2 2 -2
q1 -1 3 -2q1 -1 4 -1q1 -1 3 -1h4zM1201 221q1 1 2 1h1h6v-68h-7v56l-1 -1v-1q-2 -4 -3 -8q-1 -5 -3 -8t-3 -6l-4 -7q-1 -4 -2 -7l-2 -6q-2 -3 -3 -5q-2 -3 -3 -7h-7q-5 6 -7 13q-3 7 -6 13q-2 7 -5 14q-4 7 -6 14v1l-2 1v-56h-8v68h7q3 0 4 -1l1 -1v-2l24 -53q0 -1 1 -1v-2
q0 1 1 2v2q0 2 2 4l21 48q0 2 1 2zM36 128h77v-10v-2v-2q0 -2 -1 -3l-2 -2l-52 -71h1v1h2h1h51v-18h-81v6q0 5 1 6q0 1 2 4q1 1 1 2t1 2l2 2l1 3l46 63h-50v19zM127 128h68v-19h-49v-24h39v-20h-39v-26h49v-18h-68v107zM279 109h-29v-88h-21v88h-31v19h81v-19zM328 128
l46 -107h-12q-4 0 -8 2q-2 1 -2 3q-1 2 -3 4l-6 14h-49l-5 -14l-1 -2q-1 -1 -2 -1v-2q-1 -1 -3 -2h-2q-1 -1 -2 -1q0 -1 -1 -1h-2h-12l46 107h18zM334 63l-13 33v2q-1 0 -1 1q0 2 -1 3v-3q0 -1 -1 -1q-1 -1 -1 -2l-13 -33h30zM378 128h68v-19h-49v-27h40v-19h-40v-42h-19
v107zM553 101q2 -3 3 -6t3 -6q1 -4 1 -7v-7v-8q0 -4 -1 -7q-2 -3 -3 -6q-1 -4 -3 -7q-2 -2 -4 -5l-4 -6q-4 -2 -6 -4q-2 -3 -5 -4q-3 -3 -6 -4q-4 -1 -7 -2q-4 -1 -7 -1q-4 -1 -8 -1q-5 0 -10 2q-6 1 -11 2q-6 3 -9 6q-4 3 -9 6q-7 8 -10 17q-3 6 -4 11t-1 11q0 3 1 7
q0 3 1 7q2 8 6 12q2 4 4 7q1 2 3 5q4 2 7 4q2 2 5 4t6 3t7 3q3 0 7 1h7h8q3 -1 7 -1q3 -2 7 -3q3 -1 6 -3t5 -4t6 -4q2 -3 4 -5zM539 62l2 6v7q0 6 -2 12q-2 5 -4 8q-2 2 -5 4l-4 4q-3 2 -6 3q-6 3 -14 3t-14 -3q-2 -1 -4 -3l-6 -4t-4 -4q-2 -3 -4 -8q-2 -2 -2 -5v-7v-7
q0 -3 2 -6l4 -7q1 -3 4 -5l6 -4l4 -4q4 -1 7 -2t7 -1t7 1t7 2l6 4l4 4q3 2 5 5zM649 128h19v-107h-18l-50 72q-1 0 -1 1l-1 1q-1 2 -1 3q-2 0 -2 2v1l-2 1v-81h-19v107h17h4q2 -1 2 -2l3 -1l2 -2q5 -8 11 -15q5 -8 10 -17l12 -14q5 -8 12 -15q0 -2 1 -3v-3q0 -1 1 -2v-2v76z
M678 128h81v-19h-32v-88h-19v88h-30v19zM825 73q1 -2 3 -4l2 -4q0 -2 1 -4q1 -3 1 -7q0 -6 -3 -13l-4 -6q-2 -3 -4 -5q-4 -2 -6 -4t-6 -3t-7 -2q-4 -1 -7 -1q-4 0 -7 1q-4 1 -9 2q-3 1 -5 3q-3 2 -7 6q-2 1 -3 3q-1 1 -2 3q-2 1 -2 6l1 1l1 1q1 0 1 1h1t2 1h1h5h2q1 0 1 -1
q3 0 5 -1q2 -2 4 -3t3 -2q1 0 3 -1t5 -1q1 0 3 1q1 0 3 1q3 1 6 3l4 4q1 2 2 3t1 3q0 4 -3 6q-2 3 -4 3l-3 3h-3q-3 1 -8 4q-2 0 -4 1q-3 0 -5 2q-4 1 -6 3q-2 1 -4 3q-3 2 -4 4q-2 2 -3 4q-3 6 -3 12q0 9 3 13q1 3 3 5t5 4q2 2 5 3l6 3q2 0 5 1h7h4q2 -1 5 -1l4 -2
q1 -1 4 -2q1 -1 3 -2l4 -4l3 -2l2 -4l-4 -2l-2 -2q-2 -1 -2 -2h-4h-2h-2h-1q-3 0 -3 1l-4 2q-1 0 -1 1h-1h-3h-6h-2q-1 -1 -3 -2q-1 -1 -2 -4q-1 -1 -1 -4t1 -3l2 -2v-3h4q1 -1 2 -1l6 -2q2 -1 3 -2l5 -1q2 -2 5 -2q2 -1 5 -4zM857 39q3 0 3 -3q1 0 1 -1v-3q0 -3 -1 -5
q0 -2 -3 -4q-2 0 -3 -2h-2q-1 -1 -3 -1q-1 0 -2 1h-2l-2 2h-2q-1 1 -1 2l-2 2q-1 2 -1 5v3q0 1 1 1q1 2 2 3h1q3 3 4 3l2 2h2h3l2 -2zM898 99q-4 -4 -8 -12q-1 -2 -2 -5q-1 -4 -1 -7q0 -4 1 -7l2 -6l4 -7q1 -3 4 -5q2 -2 5 -4q2 -2 6 -4q4 -1 7 -2t7 -1q3 0 5 1t5 1q2 1 5 3
q2 1 4 3q2 0 4 1h3h3q2 0 3 -1q3 -1 5 -3l3 -5q-3 -4 -8 -7q-3 -2 -5 -3q-2 -2 -5 -3q-3 -2 -5 -2l-6 -2t-5 -1q-3 -1 -6 -1q-7 0 -12 2l-10 2q-10 5 -17 12q-8 8 -12 17q-1 6 -2 11q-2 5 -2 11q0 3 1 7q0 3 1 7l2 6q1 3 3 6q3 4 5 7q1 2 4 5l6 4q2 2 6 4q2 2 5 3t8 3
q2 0 6 1h8h6q2 0 5 -1l6 -2q2 -1 5 -2t5 -2q2 -2 5 -4q5 -4 8 -8l-3 -4l-2 -2q-1 -1 -3 -2h-3h-3h-3q-2 0 -4 1l-4 4q-3 1 -5 2q-3 1 -5 1h-5q-8 0 -14 -3q-4 -1 -6 -3zM1072 101q1 -3 3 -6l2 -6q1 -4 1 -7v-7v-8q0 -4 -1 -7l-2 -6q-2 -4 -3 -7q-4 -5 -8 -11q-4 -2 -7 -4
q-3 -3 -5 -4q-3 -3 -6 -4l-8 -2q-3 -1 -6 -1q-4 -1 -8 -1q-10 0 -21 4l-8 6q-5 3 -8 6q-4 4 -7 8t-5 9q-2 6 -3 11t-1 11q0 3 1 7v7q1 3 3 6t3 6q2 4 4 7l5 5q2 2 5 4l6 4q2 2 6 3q3 1 6 3q4 0 8 1h6h8q3 -1 6 -1q4 -2 8 -3q3 -1 6 -3q2 -2 5 -4t7 -4q1 -3 4 -5zM1057 62
q2 5 2 13v7q-1 3 -2 5q-2 5 -3 8l-4 4q-5 5 -12 7q-3 2 -6 3h-8q-7 0 -13 -3q-3 -1 -5 -3l-6 -4l-4 -4q-2 -3 -4 -8q-1 -2 -1 -5q-1 -4 -1 -7q0 -4 1 -7q0 -3 1 -6q4 -8 8 -12l6 -4q2 -2 5 -4q3 -1 7 -2t6 -1q4 0 8 1l6 2q3 2 7 4q3 2 5 4zM1188 127l1 1h2h19v-107h-19v78
v-2l-2 -3v-3q0 -1 -1 -2q-3 -9 -7 -17q-4 -9 -7 -17l-6 -16q-4 -9 -7 -18h-19l-27 68q-1 1 -1 5q-1 2 -1 3q-1 0 -1 1v-77h-20v107h19h3l1 -1q2 -1 3 -1l1 -1l3 -2l2 -2q1 -1 1 -2q2 -8 6 -15q3 -8 6 -17q3 -8 7 -16l6 -16v-1v-2v-2q2 0 2 -2v2v2q0 1 1 2v1l4 8l22 56
q0 1 1 2v2q1 1 3 2h1q1 1 2 1z" />
    <glyph glyph-name="colon" unicode=":" horiz-adv-x="218" 
d="M60 35q0 20 13.5 33.5t32.5 13.5q20 0 33.5 -13.5t13.5 -33.5q0 -19 -13.5 -32.5t-33.5 -13.5q-19 0 -32.5 13.5t-13.5 32.5zM60 451q0 20 13.5 33.5t32.5 13.5q20 0 33.5 -13.5t13.5 -33.5q0 -19 -13.5 -32.5t-33.5 -13.5q-19 0 -32.5 13.5t-13.5 32.5z" />
    <glyph glyph-name="semicolon" unicode=";" horiz-adv-x="220" 
d="M58 451q0 20 13.5 33.5t33.5 13.5t33 -13.5t13 -33.5q0 -19 -13 -32.5t-33 -13.5t-33.5 13.5t-13.5 32.5zM58 35q0 20 14 34t34 14q23 0 35.5 -16t12.5 -41t-4 -43t-9.5 -30t-11 -18t-8.5 -9q-3 -4 -7.5 -6t-9.5 2l-16 13q-5 5 -3 9.5t4 6.5q4 8 8.5 14.5t4.5 15.5v6
q-18 3 -31 15.5t-13 32.5z" />
    <glyph glyph-name="less" unicode="&#x3c;" horiz-adv-x="419" 
d="M53 276q0 3 5 8l226 227q5 5 11 6t11 -4l26 -22q11 -9 -3 -21l-192 -194l192 -193q13 -12 3 -22l-26 -22q-5 -5 -11 -3.5t-11 6.5l-226 226q-5 5 -5 8z" />
    <glyph glyph-name="equal" unicode="=" horiz-adv-x="517" 
d="M413 193h-324q-16 0 -16 16v30q0 17 16 17h324q17 0 17 -16v-30q0 -7 -4.5 -12t-12.5 -5zM413 338h-324q-16 0 -16 15v31q0 16 16 16h324q17 0 17 -15v-31q0 -16 -17 -16z" />
    <glyph glyph-name="greater" unicode="&#x3e;" horiz-adv-x="419" 
d="M358 276q0 -3 -5 -8l-226 -226q-5 -5 -11 -6.5t-11 3.5l-26 22q-10 10 3 22l192 193l-192 194q-14 12 -3 21l26 22q5 5 11 4t11 -6l226 -227q5 -5 5 -8z" />
    <glyph glyph-name="question" unicode="?" horiz-adv-x="574" 
d="M296 258v-90q0 -10 -5 -14t-12 -4h-31q-5 0 -9.5 4.5t-4.5 13.5v105q0 25 14.5 48.5t35 43t41.5 34.5t33 23q47 29 75 65t28 97q0 36 -16 63.5t-41.5 47t-58.5 29.5t-67 10q-39 0 -73 -14t-59 -38.5t-39.5 -57t-14.5 -70.5q0 -15 -14 -15h-32q-12 0 -12 15q0 52 19 95.5
t52.5 75t78 49.5t95.5 18t95 -17.5t75.5 -46t49.5 -66t18 -78.5q0 -37 -7 -65t-20.5 -51t-34.5 -42t-50 -37q-18 -11 -37 -24.5t-35 -29.5t-26.5 -35t-10.5 -42zM218 36q0 19 13 32.5t33 13.5t33 -13.5t13 -32.5q0 -20 -13 -33.5t-33 -13.5t-33 13.5t-13 33.5z" />
    <glyph glyph-name="at" unicode="@" horiz-adv-x="1236" 
d="M1210 533v-286h-1174v286h445q0 15 3 29q2 13 8 26t14 25q7 12 18 21q18 19 44 30q14 6 28 9q13 2 27 2q16 0 30 -3t26 -9q14 -6 26 -14q11 -8 20 -17q18 -18 30 -46q10 -26 10 -53h445zM503 582q-11 -23 -11 -49q0 -28 11 -51q5 -11 12 -22t15 -20q9 -9 20 -16
q10 -7 22 -12q23 -11 51 -11q14 0 27 2q12 2 24 7q12 6 22 13q10 6 19 16q9 9 16 20q7 10 13 21q11 25 11 53q0 11 -2 23q-2 11 -7 21q-6 20 -20 37q-7 8 -15 15t-16 12l-18 10l-20 8q-7 2 -15 3q-9 1 -19 1q-14 0 -27 -2q-13 -3 -25 -9q-24 -9 -42 -28q-8 -9 -14 -20z
M144 337q3 5 3 9v5q-1 2 -3 5q0 1 -2 3l-3 3l-2 4q-2 1 -5 1l-4 2q-3 1 -5 1h-26v-75h8v28h18q2 0 5 1q2 0 4 1q5 2 7 4q1 2 3 4zM200 370h-46v-75h46v9h-35v23h29v10h-29v22h35v11zM273 295l-23 32q1 1 3 1q1 0 2 2q4 2 5 5q1 1 2 3q1 1 2 3v6v5q0 2 -1 4q-2 4 -5 7
q-2 4 -7 4q-1 1 -3 2q-3 1 -5 1h-27v-75h11v31h11l20 -27q1 -2 3 -3q1 -1 2 -1h3h7zM324 308q0 2 1 4v4q0 6 -2 10t-6 7q-1 0 -1 1q-1 1 -3 2v0q-1 0 -3 1h-1q-1 0 -1 2q-3 0 -4 1q-3 0 -4 1l-3 1q-4 1 -4 2q-3 2 -3 3v4v4q1 0 2 1t1 2l2 1h2q2 1 3 1h2h1q1 -1 2 -1
q4 0 4 -2q1 -1 2 -1h2q4 0 7 2l2 1q0 1 -1 2l-2 2q-2 1 -3 2t-3 2q-1 0 -2 1q-1 0 -3 2q-3 0 -3 1h-3h-4q-3 -1 -5 -1l-3 -3q-2 -1 -4 -1q-1 -2 -2 -3q-2 -2 -3 -4t-1 -3q-1 -2 -1 -5v-4q0 -2 2 -4q1 -2 3 -3q1 -2 1 -3l4 -2q2 -2 4 -2l4 -2q1 -1 3 -2q1 -1 3 -1h2
q3 -1 4 -1l1 -1l2 -1q0 -1 1 -3q1 -1 1 -2v-4v-1q0 -2 -1 -3l-1 -2q0 -1 -2 -2q-1 -2 -2 -2q-2 -1 -3 -2h-2h-3h-3h-3l-2 2q-2 0 -2 2l-1 1q-3 2 -6 2h-2q-1 0 -2 -1l-3 -1q0 -2 1 -2q0 -2 2 -3q0 -1 1 -2l1 -1h1q4 -4 9 -5q4 -1 9 -1h5q2 0 4 1t5 2q2 1 3 3q3 1 5 3z
M409 322q1 3 1 5v5q0 6 -1 10q0 3 -1 5q-2 2 -3 5q-2 3 -6 7q-2 2 -4 3t-5 4q-1 0 -3 1t-5 3q-3 0 -5 1h-5h-5q-3 -1 -5 -1q-3 -2 -5 -3t-4 -1q-2 -3 -4 -4t-4 -3l-3 -3q-2 -2 -3 -4q-2 -3 -2 -5q-1 -2 -2 -5q-1 -4 -1 -10q0 -4 1 -7l2 -8q1 -3 3 -6t5 -7l6 -4q3 -2 7 -2
q6 -3 14 -3h5h5q5 2 8 4q7 3 9 5q3 4 6 9q1 2 3 5zM487 370h-10v-58v3l-1 1l-36 51q-2 0 -4 3h-2h-2h-7v-75h10v61l1 -1v-2l43 -58h8v75zM571 295l-33 75h-11l-32 -75h6q3 0 4 1l2 2l2 1l4 13h39l5 -13q1 -2 3 -3q0 -1 4 -1h7zM620 304h-32v66h-11v-75h43v9zM722 370h-10
v-45v-5q0 -2 -1 -4q-1 -4 -5 -6l-2 -2q-2 -1 -3 -3q-3 -1 -4 -1h-4q-5 0 -7 1q-3 2 -5 3t-2 2q-1 1 -2 3l-3 3v4q-1 2 -1 5v45h-10v-45v-5q0 -3 1 -4q0 -4 2 -7q2 -5 6 -7q1 -1 3 -2q1 -1 3 -2q1 -1 3 -1q2 -1 3 -2q3 0 5 -1q1 -1 4 -1q2 0 4 1q1 1 4 1l4 2q1 0 3 1l6 4
q2 2 3 4q0 1 1 3l3 3q1 2 1 4v9v45zM780 308q3 4 3 8q0 6 -2 10t-6 7q-3 2 -3 3h-2q-2 0 -3 1h-1q-2 0 -3 2h-1q-1 0 -2 1q-1 0 -2 1l-3 1q-4 1 -4 2q-2 1 -2 2q-1 1 -2 1v2q-1 0 -1 2t2 4l3 3q1 0 2 1h2q0 1 5 1h1q1 -1 2 -1q1 -1 4 -2q4 -1 5 -1q3 0 4 2l3 1l-2 2l-2 2
q0 1 -1 2q-2 1 -3 2q-2 0 -3 1q-1 0 -3 2q-2 0 -3 1h-2h-5q-2 -1 -4 -1q-2 -2 -4 -3t-3 -1l-3 -3q-1 -2 -3 -4q0 -2 -1 -3q-1 -2 -1 -5t1 -4q1 -2 1 -4q2 -4 5 -6l4 -2q1 -2 2 -2q3 -1 5 -2q1 -1 3 -2t3 -1h2q1 -1 3 -1q1 0 2 -1t3 -1q1 -1 1 -3q1 -1 1 -2v-4v-1q0 -2 -1 -3
q-1 -3 -4 -4q-2 -2 -3 -2l-2 -2h-2h-3h-3h-3q-2 1 -5 4v1q-3 2 -6 2h-1q-2 0 -3 -1l-3 -1l1 -1q0 -1 1 -1q0 -1 1 -1v-2h1v-2q2 -1 3 -1q3 -4 8 -5q4 -1 9 -1h5q2 0 5 1l4 2q2 1 4 3l3 3zM841 370h-46v-75h46v9h-36v23h30v10h-30v22h36v11zM960 322v5v5v6v4q-2 5 -5 10
q-2 3 -6 7q-1 2 -3 3t-4 4q-2 0 -4 1q-3 1 -5 3q-3 0 -5 1h-5h-5q-3 -1 -5 -1q-6 -3 -10 -4q-2 -3 -3 -4q-2 -1 -4 -3l-3 -3l-4 -4q-1 -3 -2 -5t-1 -5q-2 -4 -2 -10q0 -4 1 -7l2 -8q3 -7 9 -13q2 -2 5 -4t7 -2q6 -3 15 -3h5h5q2 1 5 2l4 2q2 2 4 3t3 2q4 4 6 9zM1038 370
h-11v-58v3q-1 1 -2 1l-36 51v1q-1 0 -2 2h-2h-3h-8v-75h12v59l1 -1l42 -58h9v75zM1099 304h-32v66h-11v-75h43v9zM1159 370h-9q-2 0 -4 -2q-4 -2 -4 -4l-17 -23l-1 -1h-1l-1 1l-18 23q-1 2 -3 4t-5 2h-8l27 -37l1 -1q0 -1 1 -1v-1v-1q0 -1 1 -1v-1v-32h11v32v1v2q1 0 1 2v1
h1zM942 352l4 -4q2 -3 3 -5q0 -3 1 -5v-6q0 -6 -1 -11q-1 -3 -3 -5t-4 -3q-2 -2 -4 -3l-4 -4q-6 -2 -11 -2q-3 0 -6 1q-3 0 -5 1q-3 2 -5 4q-2 1 -4 3q-2 1 -3 3q-2 2 -2 5q-2 3 -2 6q-1 2 -1 5q0 5 3 11q0 2 2 5q1 2 3 4l4 4q2 1 5 2q4 2 11 2h5l6 -2l4 -2zM253 343
q0 -1 -2 -4q-1 0 -1 -1q-1 -1 -3 -1q-1 -1 -4 -1h-16v23h16q2 0 4 -1h3l1 -2l2 -4q1 -1 1 -5zM391 352l4 -4q2 -3 3 -5q1 -3 2 -5v-6v-5l-2 -6t-3 -5t-4 -3q-1 -2 -3 -3q-2 -2 -5 -4q-2 -1 -5 -1q-3 -1 -6 -1q-6 0 -11 2l-4 4q-3 1 -5 3l-3 3q-2 2 -3 5l-2 6q-1 2 -1 5
q0 5 3 11q1 2 3 5q2 2 3 4q2 2 5 4l4 2l6 2h5q6 0 11 -2q3 -1 5 -2zM532 358q0 -2 1 -3v-2l14 -31h-29l14 31v2v3zM132 356l2 -2q0 -2 1 -3q1 -2 1 -5v-2q0 -2 -1 -3t-1 -2q-1 -2 -2 -2l-4 -4h-5h-18v26h18q3 0 5 -1q1 0 3 -1zM580 422q-9 4 -18 10q-10 5 -17 12h157
q-8 -7 -17 -12q-9 -6 -19 -10q-10 -3 -21 -6t-22 -3q-12 0 -22 3zM557 457l154 155q14 -19 22 -39t8 -40q0 -11 -1 -21q-2 -11 -6 -21q-4 -9 -9 -17q-5 -9 -11 -17h-157zM534 453q-13 17 -22 36q-3 10 -5 21t-2 23q0 10 2 20t5 20q3 9 8 18q5 8 12 16h156zM666 642
q10 -4 19 -10t16 -11h-158q18 14 37 21q19 9 43 9zM38 171q-2 2 -2 4l-2 4q-1 3 -1 5q-1 2 -1 5t2 8q1 2 2 5q0 2 2 3l2 5q0 1 3 3q0 1 3 3q2 1 3 2q3 2 5 3l4 1q1 0 4 1h5h7q3 -1 7 -3q4 -1 7 -3l4 -4q-1 -1 -2 -1v-2h-1h-1h-2h-3q-2 1 -4 3q-2 1 -4 1h-3h-5h-5h-4l-6 -3
q-2 -2 -4 -3q-2 -3 -3 -5q-2 -2 -3 -4q-2 -3 -2 -6v-4q0 -4 1 -7l2 -4v-4q1 -1 3 -2q1 -1 2 -3q2 -1 3 -2q1 -2 3 -2q1 -1 3 -2t4 -1q1 -1 3 -1h3h5q2 0 4 1q2 0 5 1l4 2v14h-6h-1l-1 1l-1 2l-2 1v1q-1 0 -1 1v1v1h19v-26l-2 -2l-3 -3q-3 -1 -6 -1q-3 -1 -7 -1h-7h-5h-4
q-3 1 -4 2l-5 3q-1 0 -3 2q-3 1 -3 3q-3 1 -3 3zM117 214v-22h27v-7h-27v-23h33v-8h-41v68h41v-8h-33zM180 154v60h-22v8h52v-8h-23v-60h-7zM260 214v-24h29v-6h-29v-30h-8v68h41v-8h-33zM313 222v-42q0 -2 1 -3q1 -2 2 -3q1 -3 3 -4l2 -4q0 -1 2 -2l2 -2q3 -1 5 -1h4h4
q1 0 2 1q3 1 5 2q1 1 3 2q0 2 2 4q1 1 2 4q2 2 2 6v42h7v-42v-5q-1 -2 -2 -5t-2 -5l-4 -4t-4 -3q-2 -2 -4 -3q-6 -1 -11 -1q-6 0 -12 1l-3 3q-3 1 -5 3q-3 3 -5 9q-1 3 -2 5t-1 5v42h7zM383 222v-60h30v-8h-38v68h8zM428 222v-60h32v-8h-39v68h7zM522 154l-30 68h4q2 0 4 -1
q1 -1 2 -1l1 -2l21 -51v-2q1 -1 1 -3v3l1 1v1q3 7 6 13l6 12q2 8 5 14l6 12q0 2 1 2t1 1q1 1 2 1h2h4q-4 -8 -7 -16q-4 -9 -9 -17q-3 -10 -6 -18q-4 -8 -8 -17h-7zM572 214v-22h28v-7h-28v-23h33v-8h-41v68h41v-8h-33zM655 186q-1 -1 -5 -2l23 -30h-5q-1 0 -2 1h-2l-2 2
q-1 0 -2 2l-19 25h-12v-30h-7v68h25h3q1 0 3 -1q4 -1 7 -4q1 -2 2 -3l2 -4q1 -1 1 -3v-3v-4q0 -2 -1 -3q0 -2 -1 -4t-2 -3l-2 -2zM647 190q2 0 3 2q1 0 2 1h2l2 3q0 1 1 2q0 1 1 2v4v1q-1 1 -1 3l-1 2q-1 0 -2 2q-1 0 -2 1q-1 0 -2 1h-3h-18v-24h18zM709 164q1 1 2 4
q1 1 2 3v3q0 3 -1 5q-1 0 -1 2l-2 2t-4 2q-2 0 -3 1l-3 1q-2 0 -4 1t-2 2q-5 0 -7 3q-2 0 -2 2q-1 2 -2 3v7v5q0 1 1 3q0 3 4 5l3 3q1 0 4 1q2 0 3 1h4h3q1 -1 2 -1h2l3 -2q1 0 2 -1t1 -2q2 -1 3 -2q0 -1 1 -1l-2 -1q-1 -1 -4 -1h-3q-2 1 -2 2h-1h-1h-1h-1h-1h-1h-4
q-4 0 -4 -1q-3 -3 -3 -4q-2 0 -2 -4q0 -3 2 -3q0 -2 1 -3t3 -1l1 -1q2 -2 3 -2t4 -2h2q1 0 1 -1h2q1 0 2 -2h1h1v0h2l1 -1l3 -3q1 -2 3 -3q1 -5 1 -9v-5q0 -2 -3 -4q0 -3 -4 -6q-1 -1 -3 -2l-4 -2q-2 -1 -4 -1h-5q-5 0 -8 1q-4 1 -7 4q-1 0 -2 1l-2 2v2l-1 1l1 1l1 1h2h1h2
l2 -2q2 -1 3 -2t3 -1q0 -1 2 -1h3q4 0 5 1zM744 222v-68h-8v68h8zM771 164q-6 4 -9 10q-2 7 -2 15v4v4q3 5 4 8q3 4 7 8q3 3 6 5q2 2 5 3q2 0 4 1q2 0 4 1h5h5q2 -1 5 -1q2 -1 4 -1q2 -1 4 -3l3 -2q1 -2 3 -3l3 -3l3 -5q1 -3 3 -8l2 -4v-4q0 -4 -1 -7q-1 -4 -3 -8
q-1 -3 -2 -5q-2 -3 -5 -5q-3 -3 -5 -4l-6 -4q-5 -2 -13 -2q-4 0 -7 1q-4 0 -6 1zM771 199q-2 -3 -3 -6t-1 -4q0 -2 1 -4v-3q1 -4 4 -8q0 -1 1 -2t2 -3l3 -2q1 -2 4 -2q1 -1 3 -2q1 -1 2 -1q2 -1 4 -1h4h4q2 0 3 1q1 0 3 1l4 2q1 0 3 2l2 2q1 2 2 3l2 2l2 4l1 4q0 1 1 3v4v4
q-1 3 -3 6q0 2 -2 4t-3 5q-2 1 -4 3q-2 1 -5 3h-4h-6h-6h-5q-2 -2 -4 -3q-3 -2 -5 -3q-1 -3 -2 -5zM850 154h-8v68h6h3q1 0 2 -2l35 -50q1 0 1 -2l1 -1v55h8v-68h-7l-40 56v2h-1v-58zM955 214v-24h28v-6h-28v-30h-7v68h41v-8h-34zM1032 186q-4 -1 -6 -2l22 -30h-6q-2 0 -4 1
v2q-1 0 -2 2l-19 25h-12v-30h-8v68h25h3q2 0 4 -1l4 -2l2 -2q1 -2 2 -3q1 -2 3 -4q0 -1 1 -3v-3v-4q-1 -2 -1 -3l-2 -4q-1 -2 -1 -3zM1026 192q1 0 2 1h1q3 4 3 5q1 2 1 6q0 1 -1 4q0 1 -3 4q-1 0 -1 1l-2 1h-4h-17v-24h17zM1114 164q-2 -3 -5 -4l-6 -4q-3 -1 -6 -1
q-3 -1 -7 -1t-7 1q-4 0 -7 1q-6 2 -11 8q-2 2 -4 5q-2 2 -3 5l-2 8q-2 3 -2 7q0 1 1 4q0 2 1 4t2 5q0 2 1 3q2 3 4 5q1 1 2 3q2 1 4 3l4 2q2 2 4 3q2 0 4 1q3 0 5 1h4h5q2 -1 4 -1l5 -1l3 -3l4 -2l3 -3q1 -2 3 -3q1 -2 2 -5q3 -3 4 -8l2 -4v-4v-7q-1 -4 -3 -8q-1 -3 -3 -5z
M1090 161h4q2 0 4 1q1 0 3 1l2 2q1 0 3 2l4 2l2 3q0 1 1 2l2 4v4q1 1 1 3v4v4q-1 3 -1 6l-2 4q-2 2 -3 5q-3 1 -5 3q-3 1 -5 3h-5h-5h-5h-6q-3 -2 -4 -3q-2 -2 -4 -3q-3 -3 -4 -5l-2 -4q-1 -3 -1 -6v-4v-7q0 -3 1 -4q0 -2 2 -4q0 -1 2 -2q1 -1 2 -3l3 -2q1 -2 2 -2
q1 -1 3 -2q1 -1 4 -1q1 -1 3 -1h4zM1201 221q1 1 2 1h1h6v-68h-7v56l-1 -1v-1q-2 -4 -3 -8q-1 -5 -3 -8t-3 -6l-4 -7q-1 -4 -2 -7l-2 -6q-2 -3 -3 -5q-2 -3 -3 -7h-7q-5 6 -7 13q-3 7 -6 13q-2 7 -5 14q-4 7 -6 14v1l-2 1v-56h-8v68h7q3 0 4 -1l1 -1v-2l24 -53q0 -1 1 -1v-2
q0 1 1 2v2q0 2 2 4l21 48q0 2 1 2zM36 128h77v-10v-2v-2q0 -2 -1 -3l-2 -2l-52 -71h1v1h2h1h51v-18h-81v6q0 5 1 6q0 1 2 4q1 1 1 2t1 2l2 2l1 3l46 63h-50v19zM127 128h68v-19h-49v-24h39v-20h-39v-26h49v-18h-68v107zM279 109h-29v-88h-21v88h-31v19h81v-19zM328 128
l46 -107h-12q-4 0 -8 2q-2 1 -2 3q-1 2 -3 4l-6 14h-49l-5 -14l-1 -2q-1 -1 -2 -1v-2q-1 -1 -3 -2h-2q-1 -1 -2 -1q0 -1 -1 -1h-2h-12l46 107h18zM334 63l-13 33v2q-1 0 -1 1q0 2 -1 3v-3q0 -1 -1 -1q-1 -1 -1 -2l-13 -33h30zM378 128h68v-19h-49v-27h40v-19h-40v-42h-19
v107zM553 101q2 -3 3 -6t3 -6q1 -4 1 -7v-7v-8q0 -4 -1 -7q-2 -3 -3 -6q-1 -4 -3 -7q-2 -2 -4 -5l-4 -6q-4 -2 -6 -4q-2 -3 -5 -4q-3 -3 -6 -4q-4 -1 -7 -2q-4 -1 -7 -1q-4 -1 -8 -1q-5 0 -10 2q-6 1 -11 2q-6 3 -9 6q-4 3 -9 6q-7 8 -10 17q-3 6 -4 11t-1 11q0 3 1 7
q0 3 1 7q2 8 6 12q2 4 4 7q1 2 3 5q4 2 7 4q2 2 5 4t6 3t7 3q3 0 7 1h7h8q3 -1 7 -1q3 -2 7 -3q3 -1 6 -3t5 -4t6 -4q2 -3 4 -5zM539 62l2 6v7q0 6 -2 12q-2 5 -4 8q-2 2 -5 4l-4 4q-3 2 -6 3q-6 3 -14 3t-14 -3q-2 -1 -4 -3l-6 -4t-4 -4q-2 -3 -4 -8q-2 -2 -2 -5v-7v-7
q0 -3 2 -6l4 -7q1 -3 4 -5l6 -4l4 -4q4 -1 7 -2t7 -1t7 1t7 2l6 4l4 4q3 2 5 5zM649 128h19v-107h-18l-50 72q-1 0 -1 1l-1 1q-1 2 -1 3q-2 0 -2 2v1l-2 1v-81h-19v107h17h4q2 -1 2 -2l3 -1l2 -2q5 -8 11 -15q5 -8 10 -17l12 -14q5 -8 12 -15q0 -2 1 -3v-3q0 -1 1 -2v-2v76z
M678 128h81v-19h-32v-88h-19v88h-30v19zM825 73q1 -2 3 -4l2 -4q0 -2 1 -4q1 -3 1 -7q0 -6 -3 -13l-4 -6q-2 -3 -4 -5q-4 -2 -6 -4t-6 -3t-7 -2q-4 -1 -7 -1q-4 0 -7 1q-4 1 -9 2q-3 1 -5 3q-3 2 -7 6q-2 1 -3 3q-1 1 -2 3q-2 1 -2 6l1 1l1 1q1 0 1 1h1t2 1h1h5h2q1 0 1 -1
q3 0 5 -1q2 -2 4 -3t3 -2q1 0 3 -1t5 -1q1 0 3 1q1 0 3 1q3 1 6 3l4 4q1 2 2 3t1 3q0 4 -3 6q-2 3 -4 3l-3 3h-3q-3 1 -8 4q-2 0 -4 1q-3 0 -5 2q-4 1 -6 3q-2 1 -4 3q-3 2 -4 4q-2 2 -3 4q-3 6 -3 12q0 9 3 13q1 3 3 5t5 4q2 2 5 3l6 3q2 0 5 1h7h4q2 -1 5 -1l4 -2
q1 -1 4 -2q1 -1 3 -2l4 -4l3 -2l2 -4l-4 -2l-2 -2q-2 -1 -2 -2h-4h-2h-2h-1q-3 0 -3 1l-4 2q-1 0 -1 1h-1h-3h-6h-2q-1 -1 -3 -2q-1 -1 -2 -4q-1 -1 -1 -4t1 -3l2 -2v-3h4q1 -1 2 -1l6 -2q2 -1 3 -2l5 -1q2 -2 5 -2q2 -1 5 -4zM857 39q3 0 3 -3q1 0 1 -1v-3q0 -3 -1 -5
q0 -2 -3 -4q-2 0 -3 -2h-2q-1 -1 -3 -1q-1 0 -2 1h-2l-2 2h-2q-1 1 -1 2l-2 2q-1 2 -1 5v3q0 1 1 1q1 2 2 3h1q3 3 4 3l2 2h2h3l2 -2zM898 99q-4 -4 -8 -12q-1 -2 -2 -5q-1 -4 -1 -7q0 -4 1 -7l2 -6l4 -7q1 -3 4 -5q2 -2 5 -4q2 -2 6 -4q4 -1 7 -2t7 -1q3 0 5 1t5 1q2 1 5 3
q2 1 4 3q2 0 4 1h3h3q2 0 3 -1q3 -1 5 -3l3 -5q-3 -4 -8 -7q-3 -2 -5 -3q-2 -2 -5 -3q-3 -2 -5 -2l-6 -2t-5 -1q-3 -1 -6 -1q-7 0 -12 2l-10 2q-10 5 -17 12q-8 8 -12 17q-1 6 -2 11q-2 5 -2 11q0 3 1 7q0 3 1 7l2 6q1 3 3 6q3 4 5 7q1 2 4 5l6 4q2 2 6 4q2 2 5 3t8 3
q2 0 6 1h8h6q2 0 5 -1l6 -2q2 -1 5 -2t5 -2q2 -2 5 -4q5 -4 8 -8l-3 -4l-2 -2q-1 -1 -3 -2h-3h-3h-3q-2 0 -4 1l-4 4q-3 1 -5 2q-3 1 -5 1h-5q-8 0 -14 -3q-4 -1 -6 -3zM1072 101q1 -3 3 -6l2 -6q1 -4 1 -7v-7v-8q0 -4 -1 -7l-2 -6q-2 -4 -3 -7q-4 -5 -8 -11q-4 -2 -7 -4
q-3 -3 -5 -4q-3 -3 -6 -4l-8 -2q-3 -1 -6 -1q-4 -1 -8 -1q-10 0 -21 4l-8 6q-5 3 -8 6q-4 4 -7 8t-5 9q-2 6 -3 11t-1 11q0 3 1 7v7q1 3 3 6t3 6q2 4 4 7l5 5q2 2 5 4l6 4q2 2 6 3q3 1 6 3q4 0 8 1h6h8q3 -1 6 -1q4 -2 8 -3q3 -1 6 -3q2 -2 5 -4t7 -4q1 -3 4 -5zM1057 62
q2 5 2 13v7q-1 3 -2 5q-2 5 -3 8l-4 4q-5 5 -12 7q-3 2 -6 3h-8q-7 0 -13 -3q-3 -1 -5 -3l-6 -4l-4 -4q-2 -3 -4 -8q-1 -2 -1 -5q-1 -4 -1 -7q0 -4 1 -7q0 -3 1 -6q4 -8 8 -12l6 -4q2 -2 5 -4q3 -1 7 -2t6 -1q4 0 8 1l6 2q3 2 7 4q3 2 5 4zM1188 127l1 1h2h19v-107h-19v78
v-2l-2 -3v-3q0 -1 -1 -2q-3 -9 -7 -17q-4 -9 -7 -17l-6 -16q-4 -9 -7 -18h-19l-27 68q-1 1 -1 5q-1 2 -1 3q-1 0 -1 1v-77h-20v107h19h3l1 -1q2 -1 3 -1l1 -1l3 -2l2 -2q1 -1 1 -2q2 -8 6 -15q3 -8 6 -17q3 -8 7 -16l6 -16v-1v-2v-2q2 0 2 -2v2v2q0 1 1 2v1l4 8l22 56
q0 1 1 2v2q1 1 3 2h1q1 1 2 1z" />
    <glyph glyph-name="A" unicode="A" horiz-adv-x="716" 
d="M384 729l292 -708q5 -11 0 -16.5t-13 -5.5h-30q-10 0 -15 13l-71 173h-383l-71 -172q-5 -14 -15 -14h-31q-7 0 -12 5.5t0 16.5l296 708q5 13 17 13h19q12 0 17 -13zM356 649l-168 -407h335z" />
    <glyph glyph-name="B" unicode="B" horiz-adv-x="678" 
d="M97 742h294q41 0 76.5 -14.5t62 -40t42 -60t15.5 -75.5q0 -51 -24 -91.5t-62 -66.5q27 -11 50 -30.5t39.5 -44.5t25.5 -54.5t9 -60.5q0 -40 -15 -77t-41.5 -65t-62.5 -44.5t-77 -17.5h-333q-15 0 -15 14v709q0 19 16 19zM567 204q0 29 -11.5 56.5t-30.5 48.5t-44.5 34
t-54.5 13h-288v-299h291q29 0 54 12t43.5 32t29.5 46.5t11 56.5zM529 552q0 29 -10.5 53.5t-29.5 42t-44 27.5t-55 10h-252v-272h252q29 0 54.5 10.5t44.5 29.5t29.5 44t10.5 55z" />
    <glyph glyph-name="C" unicode="C" horiz-adv-x="705" 
d="M625 117q6 5 13 5.5t12 -6.5l15 -23q5 -8 3 -12.5t-9 -9.5q-46 -38 -104.5 -60t-127.5 -22q-79 0 -149 30t-122 82t-82 122t-30 149q0 80 30 149t82 120.5t122 81t149 29.5q69 0 127.5 -22t106.5 -60q10 -8 9 -14.5t-2 -8.5l-17 -22q-2 -2 -8.5 -5t-15.5 4
q-42 32 -91.5 52t-106.5 20q-67 0 -126 -25.5t-103.5 -70t-70.5 -103.5t-26 -125q0 -67 25.5 -126.5t70 -104t103.5 -70.5t125 -26q57 0 107.5 20t90.5 52z" />
    <glyph glyph-name="D" unicode="D" horiz-adv-x="745" 
d="M81 17v706q0 19 16 19h236q77 0 144.5 -29t117.5 -79.5t79 -118t29 -145.5q0 -77 -29.5 -144.5t-80 -117.5t-118.5 -79t-146 -29h-232q-16 0 -16 17zM138 56h194q66 0 123.5 25.5t100 69t66.5 101t24 121.5q0 68 -25.5 125t-68.5 98.5t-100.5 65t-122.5 23.5h-191v-629z
" />
    <glyph glyph-name="E" unicode="E" horiz-adv-x="642" 
d="M81 16v710q0 16 16 16h486q17 0 17 -14v-27q0 -16 -17 -16h-445v-268h357q19 0 19 -16v-26q0 -16 -19 -16h-357v-302h452q17 0 17 -13v-30q0 -14 -17 -14h-493q-16 0 -16 16z" />
    <glyph glyph-name="F" unicode="F" horiz-adv-x="627" 
d="M81 16v710q0 16 15 16h485q15 0 15 -16v-24q0 -17 -15 -17h-444v-301h356q15 0 15 -16v-27q0 -14 -15 -14h-356v-311q0 -16 -16 -16h-25q-15 0 -15 16z" />
    <glyph glyph-name="G" unicode="G" horiz-adv-x="726" 
d="M426 48q51 0 102 17.5t83 43.5v202q0 17 17 17h26q16 0 16 -17v-219q0 -13 -8 -18q-48 -37 -107.5 -60t-127.5 -23q-81 0 -151 29.5t-121.5 81t-81 121t-29.5 148.5q0 80 30 149t82 120.5t121.5 81t148.5 29.5q69 0 126.5 -22t106.5 -61q10 -8 8.5 -14t-3.5 -8l-16 -22
q-2 -2 -8.5 -5.5t-15.5 3.5q-42 31 -91 51t-106 20q-67 0 -126.5 -25.5t-103.5 -69t-69.5 -102t-25.5 -125.5q0 -66 25.5 -125t69.5 -103t103 -69.5t126 -25.5z" />
    <glyph glyph-name="H" unicode="H" horiz-adv-x="773" 
d="M626 17v334h-488v-334q0 -17 -15 -17h-26q-16 0 -16 17v707q0 8 4 13t12 5h26q15 0 15 -17v-317h488v316q0 8 4 13t12 5h26q16 0 16 -17v-708q0 -17 -17 -17h-25q-16 0 -16 17z" />
    <glyph glyph-name="I" unicode="I" horiz-adv-x="218" 
d="M80 18v706q0 18 19 18h20q19 0 19 -18v-706q0 -18 -19 -18h-20q-19 0 -19 18z" />
    <glyph glyph-name="J" unicode="J" horiz-adv-x="400" 
d="M256 166v559q0 18 15 18h26q16 0 16 -19v-491v-39.5t-1 -39.5q-1 -34 -13.5 -64t-34.5 -52t-52 -34.5t-67 -12.5q-35 0 -67 11.5t-57 36.5q-4 4 -10.5 12.5t1.5 16.5l21 21q7 7 13 4t11 -8q11 -10 33 -23.5t51 -13.5q28 0 49.5 10.5t36 27t22 37.5t7.5 43z" />
    <glyph glyph-name="K" unicode="K" horiz-adv-x="734" 
d="M612 719l-269 -285l348 -412q7 -8 2.5 -15t-12.5 -7h-41q-9 0 -20 12l-315 381l-164 -174v-202q0 -17 -15 -17h-27q-16 0 -16 17v708q0 17 16 17h26q16 0 16 -17v-421l402 427q7 8 11.5 9.5t8.5 1.5h40q9 0 12.5 -8t-3.5 -15z" />
    <glyph glyph-name="L" unicode="L" horiz-adv-x="574" 
d="M81 16v709q0 17 15 17h27q15 0 15 -17v-668h397q18 0 18 -15v-26q0 -16 -18 -16h-439q-15 0 -15 16z" />
    <glyph glyph-name="M" unicode="M" horiz-adv-x="883" 
d="M420 65l-253 571l-55 -620q-1 -16 -17 -16h-31q-8 0 -10 5t-1 13l68 709q2 15 18 15h34q8 0 12 -10l264 -590l260 588q5 12 14 12h37q16 0 17 -15l67 -710q2 -17 -14 -17h-27q-16 0 -17 15l-56 619l-253 -569q-3 -6 -7 -8t-7 -2h-28q-3 0 -7.5 2t-7.5 8z" />
    <glyph glyph-name="N" unicode="N" horiz-adv-x="771" 
d="M643 103v623q0 17 17 17h24q17 0 17 -16v-713q0 -14 -16 -14h-26q-6 0 -10.5 3t-7.5 7l-503 636v-628q0 -18 -18 -18h-21q-18 0 -18 18v706q0 18 16 18h32q6 0 9 -5z" />
    <glyph glyph-name="O" unicode="O" horiz-adv-x="853" 
d="M44 370q0 79 30 148.5t81.5 121.5t121 82t148.5 30q78 0 147.5 -30t121 -82t81.5 -121.5t30 -148.5t-30 -148t-81.5 -120.5t-121 -81.5t-148.5 -30t-148 30t-120.5 81.5t-81.5 120.5t-30 148zM102 371q0 -67 25.5 -125.5t69 -102t102.5 -69t126 -25.5q66 0 125 25.5
t102.5 69t69 102t25.5 125.5q0 66 -25.5 125t-69 102.5t-102.5 69t-125 25.5q-67 0 -126 -25.5t-102.5 -69t-69 -102.5t-25.5 -125z" />
    <glyph glyph-name="P" unicode="P" horiz-adv-x="606" 
d="M81 17v705q0 10 3.5 15t14.5 5h242q48 0 90 -18t73.5 -49.5t49.5 -73.5t18 -90t-18 -90t-49.5 -73.5t-73.5 -49.5t-89 -18h-204v-263q0 -9 -3 -13t-12 -4h-26q-11 0 -13.5 4t-2.5 13zM515 511q0 36 -13.5 68t-37.5 56t-55.5 38t-67.5 14h-203v-352h203q36 0 67.5 14
t55.5 38t37.5 56t13.5 68z" />
    <glyph glyph-name="Q" unicode="Q" horiz-adv-x="853" 
d="M44 370q0 79 30 148.5t81.5 121.5t120.5 82t148 30t148.5 -30t121 -82t81.5 -121.5t30 -148.5q0 -75 -27.5 -141.5t-75 -117.5t-111.5 -82.5t-138 -36.5v-116q0 -19 -19 -19h-20q-18 0 -18 19v116q-74 5 -138.5 36.5t-112 82.5t-74.5 117.5t-27 141.5zM102 371
q0 -67 25.5 -125.5t69 -102t102 -69t125.5 -25.5t125.5 25.5t102 69t69 102t25.5 125.5q0 66 -25.5 125t-69 102.5t-102 69t-125.5 25.5t-125.5 -25.5t-102 -69t-69 -102.5t-25.5 -125z" />
    <glyph glyph-name="R" unicode="R" horiz-adv-x="671" 
d="M385 742q48 0 90.5 -18.5t73.5 -50t49 -74t18 -90.5q0 -71 -38 -128t-99 -84l126 -278q4 -7 1 -13t-12 -6h-35q-8 0 -13 9l-123 273q-10 -2 -20 -3.5t-23 -1.5h-244v-259q0 -18 -18 -18h-21q-18 0 -18 18v707q0 17 18 17h288zM368 334q38 0 72.5 12t61 34.5t42 55
t15.5 73.5q0 36 -13.5 68t-37.5 56t-56 38t-69 14h-247v-351h232z" />
    <glyph glyph-name="S" unicode="S" horiz-adv-x="641" 
d="M59 107q-5 6 -8 13t5 15l20 17q7 5 13.5 2.5t12.5 -9.5q38 -44 90 -72t129 -28q41 0 80 9.5t69 30t48.5 51.5t18.5 73q0 39 -22.5 65t-56 42.5t-71.5 25.5t-69 15q-124 28 -188 73t-64 126q0 90 69 142.5t191 52.5q69 0 129 -23t106 -68q5 -5 5.5 -12.5t-5.5 -13.5
l-17 -19q-8 -5 -15 -2t-15 10q-37 31 -77 50.5t-104 20.5q-36 1 -73 -5t-67 -22t-49 -43.5t-19 -69.5q0 -33 18 -56t48 -39.5t68 -27.5t78 -20q45 -10 91 -23.5t83 -35t60.5 -55.5t23.5 -87q0 -55 -22.5 -96.5t-60.5 -69t-87.5 -41t-103.5 -13.5q-81 0 -146 28.5t-116 88.5z
" />
    <glyph glyph-name="T" unicode="T" horiz-adv-x="611" 
d="M39 742h523q8 0 14 -4.5t6 -13.5v-22q0 -18 -20 -18h-232v-666q0 -18 -18 -18h-21q-18 0 -18 18v666h-234q-18 0 -18 20v20q0 18 18 18z" />
    <glyph glyph-name="U" unicode="U" horiz-adv-x="752" 
d="M128 724v-427q0 -53 18.5 -99t51 -80.5t77.5 -54t99 -19.5q55 0 100.5 19.5t78 54t50.5 80.5t18 99v427q0 18 19 18h19q8 0 14 -5t6 -13v-434q0 -66 -24 -121t-65.5 -95.5t-97 -63t-118.5 -22.5t-118.5 24t-96.5 65t-65 96.5t-24 118.5v432q0 8 4.5 13t12.5 5h22
q8 0 13.5 -5t5.5 -13z" />
    <glyph glyph-name="V" unicode="V" horiz-adv-x="673" 
d="M660 720l-295 -707q-5 -13 -17 -13h-19q-12 0 -17 13l-294 707q-5 11 0.5 16.5t12.5 5.5h31q9 0 15 -14l263 -636l261 637q3 8 7.5 10.5t8.5 2.5h30q7 0 12.5 -5.5t0.5 -16.5z" />
    <glyph glyph-name="W" unicode="W" horiz-adv-x="1023" 
d="M666 13l-150 357l-149 -357q-3 -8 -7.5 -10.5t-8.5 -2.5h-21q-4 0 -9 2.5t-8 10.5l-294 709q-5 10 0.5 15.5t12.5 5.5h31q10 0 15 -13l266 -641l261 641q4 8 8 10.5t8 2.5h31q7 0 11 -5.5t0 -15.5l-116 -280l149 -355l263 643q3 8 7 10.5t8 2.5h29q7 0 12.5 -5.5
t1.5 -15.5l-296 -709q-3 -8 -8 -10.5t-9 -2.5h-21q-4 0 -8.5 2.5t-8.5 10.5z" />
    <glyph glyph-name="X" unicode="X" horiz-adv-x="597" 
d="M570 720l-238 -350l235 -348q7 -10 1.5 -16t-12.5 -6h-31q-4 0 -8.5 1.5t-8.5 8.5l-210 310l-209 -310q-5 -8 -8.5 -9t-7.5 -1h-32q-7 0 -12 6t1 17l235 346l-237 351q-6 10 -1.5 16t11.5 6h33q9 0 16 -10l212 -313l212 313q4 7 8 8.5t8 1.5h32q6 0 12 -6t-1 -16z" />
    <glyph glyph-name="Y" unicode="Y" horiz-adv-x="553" 
d="M252 328l-242 394q-6 9 -1 14.5t12 5.5h34q4 0 7.5 -1.5t8.5 -8.5l208 -348l212 347q4 7 7.5 9t7.5 2h31q7 0 11.5 -4t-1.5 -14l-238 -396v-310q0 -18 -14 -18h-30q-8 0 -10.5 5t-2.5 13v310z" />
    <glyph glyph-name="Z" unicode="Z" horiz-adv-x="639" 
d="M68 742h521q15 0 15 -15v-25q0 -4 -4 -9l-488 -636h472q17 0 17 -14v-28q0 -15 -17 -15h-537q-15 0 -15 15v24q0 7 4 11l490 634h-458q-18 0 -18 15v28q0 15 18 15z" />
    <glyph glyph-name="bracketleft" unicode="[" horiz-adv-x="248" 
d="M69 -112v960q0 16 15 16h136q15 0 15 -15v-29q0 -6 -4 -10.5t-11 -4.5h-94v-876h94q15 0 15 -15v-29q0 -5 -4 -9.5t-11 -4.5h-136q-15 0 -15 17z" />
    <glyph glyph-name="backslash" unicode="\" horiz-adv-x="465" 
d="M319 12l-277 710q-4 10 0 15t11 5h33q4 0 8 -2t7 -10l273 -710q5 -11 -1 -15.5t-12 -4.5h-27q-4 0 -8 2t-7 10z" />
    <glyph glyph-name="bracketright" unicode="]" horiz-adv-x="248" 
d="M166 -112q0 -17 -15 -17h-136q-7 0 -11 4.5t-4 9.5v29q0 15 15 15h94v876h-94q-7 0 -11 4.5t-4 10.5v29q0 15 15 15h136q15 0 15 -16v-960z" />
    <glyph glyph-name="asciicircum" unicode="^" horiz-adv-x="488" 
d="M259 819l144 -147q7 -6 10 -12.5t-5 -14.5l-17 -16q-8 -8 -14.5 -5t-14.5 11l-119 122l-119 -121q-8 -8 -15 -10.5t-15 5.5l-14 12q-13 14 4 30l143 146q17 16 32 0z" />
    <glyph glyph-name="underscore" unicode="_" horiz-adv-x="602" 
d="M65 -53v32q0 15 16 15h441q6 0 10.5 -3.5t4.5 -11.5v-32q0 -6 -4.5 -10t-10.5 -4h-441q-16 0 -16 14z" />
    <glyph glyph-name="grave" unicode="`" horiz-adv-x="258" 
d="M123 601l-51 119q-5 10 -1 16t12 6h25q5 0 8.5 -2.5t8.5 -10.5l52 -121q9 -20 -8 -20h-28q-5 0 -9 2t-9 11z" />
    <glyph glyph-name="a" unicode="a" horiz-adv-x="594" 
d="M519 469v-453q0 -16 -17 -16h-24q-11 0 -13.5 4t-2.5 14v88q-18 -56 -67 -87t-115 -31q-51 0 -95 20t-76 54.5t-50.5 81t-18.5 99.5t18 100t50.5 82t76.5 55t95 20q33 0 63 -8.5t54 -24t41 -36.5t24 -47l2 85q1 10 4 15t14 5h21q16 0 16 -20zM462 243q0 41 -13.5 77.5
t-37.5 64t-57.5 43.5t-73.5 16t-74 -16t-58.5 -43.5t-38 -64t-13.5 -77.5t14 -77t38.5 -63t58 -43t73.5 -16t73.5 15.5t57.5 42.5t37.5 63t13.5 78z" />
    <glyph glyph-name="b" unicode="b" horiz-adv-x="593" 
d="M81 20v704q0 9 3.5 13.5t14.5 4.5h21q11 0 14.5 -4.5t3.5 -13.5v-340q23 48 68.5 82t114.5 34q49 0 92 -20t74.5 -54.5t50 -81.5t18.5 -100t-18.5 -99.5t-50 -81t-74.5 -54.5t-92 -20q-44 0 -75.5 10.5t-53 25.5t-34.5 31t-20 27v-63q0 -20 -19 -20h-20q-11 0 -14.5 5
t-3.5 15zM135 244q0 -41 14.5 -77.5t39.5 -63.5t58 -43t70 -16t70 16t57.5 43t39 63.5t14.5 77.5t-14.5 77.5t-39 63.5t-57.5 43t-70 16t-70 -16t-58 -43t-39.5 -63.5t-14.5 -77.5z" />
    <glyph glyph-name="c" unicode="c" horiz-adv-x="511" 
d="M437 386q-26 22 -61 40t-80 18q-41 0 -78 -14.5t-64.5 -40.5t-44 -62.5t-16.5 -80.5q0 -46 16.5 -83t44 -63t64.5 -40.5t78 -14.5q34 0 72 15t70 44q5 5 10 3t7 -4l17 -25q2 -2 3 -6t-5 -10q-35 -35 -83.5 -54t-93.5 -18q-49 1 -95 20.5t-81.5 53.5t-56.5 80.5t-21 101.5
q0 53 20 99.5t55 80.5t82 53.5t101 19.5q26 0 50.5 -6.5t47 -17t42 -23t34.5 -25.5q11 -9 3 -19l-20 -22q-2 -4 -7 -3.5t-10 3.5z" />
    <glyph glyph-name="d" unicode="d" horiz-adv-x="579" 
d="M513 722v-701q0 -10 -3.5 -15.5t-14.5 -5.5h-21q-19 0 -19 21v62q-6 -11 -19 -27t-34.5 -31t-53 -25.5t-75.5 -10.5q-49 0 -92 20t-74.5 54.5t-50 81t-18.5 99.5t18.5 100t50 81.5t74.5 54.5t92 20q69 0 114 -34t68 -82v338q0 20 19 20h21q11 0 14.5 -5.5t3.5 -14.5z
M459 244q0 41 -14.5 77.5t-39.5 63.5t-58 43t-70 16t-70 -16t-57.5 -43t-39 -63.5t-14.5 -77.5t14.5 -77.5t39 -63.5t57.5 -43t70 -16t70 16t58 43t39.5 63.5t14.5 77.5z" />
    <glyph glyph-name="e" unicode="e" horiz-adv-x="532" 
d="M284 -11q-50 0 -94 20t-76.5 55t-51 81.5t-18.5 98.5q0 53 18.5 99.5t50.5 81.5t75 55t92 20q47 0 88.5 -19.5t72.5 -53t49.5 -78.5t18.5 -96q0 -18 -11 -24t-28 -6h-368q2 -37 17 -69.5t39.5 -56.5t56.5 -38t68 -15h2q42 0 79.5 17t64.5 45q7 7 14 7t12 -5l12 -17
q7 -8 6 -14t-13 -17q-36 -32 -80 -51.5t-96 -19.5zM278 443q-33 0 -62 -12.5t-52 -34.5t-38.5 -52t-21.5 -66h348q-4 35 -20 65.5t-39.5 52.5t-53 34.5t-61.5 12.5z" />
    <glyph glyph-name="f" unicode="f" horiz-adv-x="324" 
d="M172 491h89q19 0 19 -20v-13q0 -21 -19 -21h-89v-418q0 -9 -6.5 -14t-14.5 -5h-19q-18 0 -18 19v418h-63q-20 0 -20 21v13q0 20 20 20h63v95q0 75 40.5 117t112.5 42q21 0 21 -22v-17q0 -8 -5.5 -13.5t-13.5 -5.5q-45 0 -71 -26t-26 -77v-93z" />
    <glyph glyph-name="g" unicode="g" horiz-adv-x="596" 
d="M524 469v-396q0 -67 -17.5 -118t-49 -85t-75.5 -51t-98 -17q-39 0 -70 9.5t-60 25.5q-12 7 -12 14q0 2 3 7t7 10.5t7 10t4 6.5q6 10 15 6t21 -9q19 -9 40.5 -15t41.5 -6q35 0 68.5 12t59 36t41 59.5t15.5 81.5v50q-20 -54 -71 -83t-114 -29q-51 0 -95 20t-76 54.5
t-50.5 81t-18.5 99.5t18 100t50.5 82t76.5 55t95 20q33 0 63.5 -8.5t55.5 -24t43 -36.5t25 -47l2 85q2 20 20 20h17q18 0 18 -20zM467 243q0 41 -14 77.5t-39 64t-59.5 43.5t-74.5 16t-74 -16t-58.5 -43.5t-38 -64t-13.5 -77.5t14 -77t38.5 -63t58 -43t73.5 -16t74 15.5
t59 42.5t39.5 63t14.5 78z" />
    <glyph glyph-name="h" unicode="h" horiz-adv-x="566" 
d="M438 18v277q0 30 -10 56.5t-28.5 46.5t-44 32t-56.5 12q-30 0 -59 -11t-51.5 -30.5t-36.5 -46t-14 -56.5v-280q0 -18 -18 -18h-21q-18 0 -18 18v705q0 19 16 19h24q17 0 17 -19v-306q25 36 68.5 59.5t94.5 23.5q45 0 81 -17t61 -46.5t38.5 -68.5t13.5 -84v-266
q0 -18 -17 -18h-23q-17 0 -17 18z" />
    <glyph glyph-name="i" unicode="i" horiz-adv-x="217" 
d="M80 18v453q0 18 19 18h20q19 0 19 -18v-453q0 -18 -19 -18h-20q-19 0 -19 18zM62 632q0 20 13.5 33.5t32.5 13.5q20 0 33.5 -13.5t13.5 -33.5q0 -19 -13.5 -32.5t-33.5 -13.5q-19 0 -32.5 13.5t-13.5 32.5z" />
    <glyph glyph-name="j" unicode="j" horiz-adv-x="213" 
d="M61 -22v491q0 20 18 20h22q11 0 14.5 -5.5t3.5 -14.5v-492q0 -32 -12 -60t-32 -49t-48 -33.5t-59 -12.5q-23 0 -23 15v24q0 9 6.5 13t14.5 4h1q42 1 68 30t26 70zM43 632q0 20 13.5 33.5t33.5 13.5t33 -13.5t13 -33.5q0 -19 -13 -32.5t-33 -13.5t-33.5 13.5t-13.5 32.5z
" />
    <glyph glyph-name="k" unicode="k" horiz-adv-x="523" 
d="M138 269l217 211q4 4 8.5 6.5t14.5 2.5h38q11 0 12 -7.5t-5 -13.5l-161 -155l246 -289q8 -11 4 -17.5t-13 -6.5h-37q-7 0 -12 4.5t-10 9.5l-219 258l-83 -80v-174q0 -18 -19 -18h-20q-18 0 -18 18v705q0 19 16 19h25q16 0 16 -19v-454z" />
    <glyph glyph-name="l" unicode="l" horiz-adv-x="217" 
d="M80 18v706q0 18 19 18h21q18 0 18 -18l-1 -706q0 -18 -18 -18h-21q-18 0 -18 18z" />
    <glyph glyph-name="m" unicode="m" horiz-adv-x="844" 
d="M138 308v-290q0 -18 -18 -18h-20q-19 0 -19 18v455q0 16 15 16h28q5 0 9.5 -3.5t4.5 -11.5l1 -53q22 32 55.5 53.5t79.5 21.5q57 0 99.5 -29t62.5 -74q22 47 61.5 75.5t95.5 28.5q46 0 80 -17.5t56.5 -44.5t33.5 -60.5t11 -66.5v-288q0 -20 -20 -20h-18q-20 0 -20 19v290
q0 27 -9.5 51t-26 42t-39.5 28t-50 10q-33 0 -58 -12.5t-42 -34t-26 -50t-9 -59.5v-264q0 -20 -19 -20h-20q-19 0 -19 19v292q0 27 -10 50.5t-27.5 41t-40.5 27.5t-50 10t-51 -10.5t-42 -28.5t-28.5 -42t-10.5 -51z" />
    <glyph glyph-name="n" unicode="n" horiz-adv-x="566" 
d="M138 299v-281q0 -9 -3 -13.5t-12 -4.5h-26q-10 0 -13 4.5t-3 13.5v458q0 13 15 13h28q8 0 10.5 -4.5t2.5 -9.5l2 -62q25 37 66.5 62t92.5 25q43 0 80 -16t64 -44.5t42.5 -68.5t15.5 -87v-264q0 -20 -16 -20h-26q-11 0 -13.5 4.5t-2.5 14.5v276q0 31 -12 58t-32.5 47
t-47.5 31.5t-58 11.5q-30 0 -58 -11t-49 -30.5t-34 -46t-13 -56.5z" />
    <glyph glyph-name="o" unicode="o" horiz-adv-x="583" 
d="M44 244q0 53 19 99.5t52 81.5t78 55t98 20t98.5 -20t78.5 -55t52 -81.5t19 -99.5t-19 -99.5t-52 -81.5t-78.5 -55t-98.5 -20t-98 20t-78 55t-52 81.5t-19 99.5zM101 244q0 -41 14.5 -77.5t40 -63.5t60.5 -43t76 -16t76 16t60.5 43t40 63.5t14.5 77.5t-14.5 77.5t-40 63.5
t-60.5 43t-76 16t-76 -16t-60.5 -43t-40 -63.5t-14.5 -77.5z" />
    <glyph glyph-name="p" unicode="p" horiz-adv-x="591" 
d="M81 -177v651q0 15 17 15h24q15 0 15 -14l1 -65q7 11 20 27t34.5 31t53 25.5t75.5 10.5q49 0 92 -20t74.5 -54.5t50 -81t18.5 -99.5t-18.5 -100t-50 -81.5t-74.5 -54.5t-92 -20q-69 0 -114.5 34t-68.5 82v-286q0 -7 -2 -11.5t-12 -4.5h-31q-8 0 -10 4t-2 12zM135 249
q0 -41 14.5 -77.5t39.5 -63.5t58 -43t70 -16t70 16t57.5 43t39 63.5t14.5 77.5t-14.5 77.5t-39 63.5t-57.5 43t-70 16t-70 -16t-58 -43t-39.5 -63.5t-14.5 -77.5z" />
    <glyph glyph-name="q" unicode="q" horiz-adv-x="585" 
d="M519 -177q0 -8 -2 -12t-10 -4h-31q-10 0 -12 4.5t-2 11.5v286q-23 -48 -68.5 -82t-114.5 -34q-49 0 -92 20t-74.5 54.5t-50 81.5t-18.5 100t18.5 99.5t50 81t74.5 54.5t92 20q44 0 75.5 -10.5t53 -25.5t34.5 -31t20 -27l1 65q0 14 15 14h24q17 0 17 -15v-651zM465 249
q0 41 -14.5 77.5t-39.5 63.5t-58 43t-70 16t-70 -16t-57.5 -43t-39 -63.5t-14.5 -77.5t14.5 -77.5t39 -63.5t57.5 -43t70 -16t70 16t58 43t39.5 63.5t14.5 77.5z" />
    <glyph glyph-name="r" unicode="r" horiz-adv-x="381" 
d="M81 17v449q0 23 16 23h25q9 0 11.5 -5.5t3.5 -13.5l1 -55q14 37 48.5 59.5t82.5 22.5q22 0 49.5 -8t44.5 -20q5 -5 10 -12.5t0 -15.5l-15 -22q-5 -6 -11.5 -5.5t-9.5 2.5q-14 9 -33 16.5t-39 7.5q-28 0 -51 -13t-40 -34t-26.5 -48.5t-9.5 -56.5v-270q0 -18 -18 -18h-21
q-18 0 -18 17z" />
    <glyph glyph-name="s" unicode="s" horiz-adv-x="425" 
d="M312 389q-16 26 -42.5 42t-60.5 16q-42 0 -69.5 -22.5t-27.5 -59.5q0 -18 9 -31t23 -23t30.5 -16t31.5 -10q173 -44 173 -154q0 -34 -14 -60.5t-38 -44.5t-55 -27.5t-66 -9.5q-57 0 -102.5 26t-63.5 76q-5 18 11 24l19 9q16 6 23 -10l3 -5q8 -16 21 -28t28.5 -20
t31.5 -12.5t29 -4.5q18 0 38 5t37.5 15.5t29 27t11.5 38.5q0 21 -11.5 37t-29 28t-39.5 19.5t-43 12.5q-28 7 -54 19t-45.5 29t-31.5 39.5t-12 50.5q0 61 42 98.5t111 37.5q51 0 91 -20.5t66 -67.5q4 -7 3 -13.5t-9 -11.5l-18 -11q-13 -9 -23 1q-2 2 -3.5 4.5t-3.5 6.5z" />
    <glyph glyph-name="t" unicode="t" horiz-adv-x="328" 
d="M233 51h19q8 0 14.5 -2t6.5 -13v-26q0 -10 -7 -12.5t-17 -2.5h-15q-25 0 -47 5.5t-38.5 20.5t-25.5 41t-9 67v307h-69q-10 0 -14.5 3.5t-4.5 14.5v18q0 11 4.5 14.5t14.5 3.5h69v148q0 15 17 17l25 4q10 2 13 -5t3 -16v-148h87q20 0 20 -19v-16q0 -19 -20 -19h-87v-293
q0 -53 15 -71t46 -21z" />
    <glyph glyph-name="u" unicode="u" horiz-adv-x="568" 
d="M60 194v279q0 16 15 16h25q11 0 14.5 -5t3.5 -15v-277q0 -31 12 -57.5t33 -46t48.5 -31t58.5 -11.5q30 0 57.5 11.5t48.5 31.5t33 46.5t12 57.5v278q0 18 18 18h21q19 0 19 -18v-453q0 -18 -19 -18h-16q-17 0 -19 18l-4 58q-26 -38 -65 -63t-91 -25q-42 0 -79.5 16
t-65.5 44t-44 65.5t-16 80.5z" />
    <glyph glyph-name="v" unicode="v" horiz-adv-x="491" 
d="M246 93l162 389q4 7 14 7h32q8 0 12 -4t-2 -18l-190 -453q-6 -14 -20 -14h-15q-15 0 -21 14l-190 453q-5 14 -1.5 18t12.5 4h32q10 0 13 -7z" />
    <glyph glyph-name="w" unicode="w" horiz-adv-x="773" 
d="M520 93l162 389q3 7 13 7h32q19 0 13 -17l-192 -458q-3 -8 -6.5 -11t-11.5 -3h-20q-8 0 -11.5 3t-6.5 11l-108 257l-107 -257q-3 -8 -6.5 -11t-11.5 -3h-19q-9 0 -12.5 3t-6.5 11l-190 453q-8 22 11 22h32q9 0 14 -9l161 -387l162 389q4 7 14 7h34q17 0 10 -17l-54 -127z
" />
    <glyph glyph-name="x" unicode="x" horiz-adv-x="422" 
d="M211 213l-133 -198q-3 -5 -8.5 -10t-17.5 -5h-29q-9 0 -9.5 6.5t1.5 9.5l164 243l-140 210q-5 8 -3 14t11 6h25q10 0 14.5 -3t8.5 -9l116 -170l118 173q4 6 7 7.5t8 1.5h37q8 0 10 -3.5t0 -6.5l-148 -220l164 -245q2 -2 1 -8t-10 -6h-33q-10 0 -20 14z" />
    <glyph glyph-name="y" unicode="y" horiz-adv-x="501" 
d="M466 471l-274 -650q-4 -8 -7 -11t-12 -3h-29q-7 0 -12 4.5t0 15.5l79 187l-190 456q-2 6 0 12.5t12 6.5h27q9 0 12.5 -2.5t5.5 -6.5l167 -398l160 393q5 14 16 14h34q11 0 12.5 -5.5t-1.5 -12.5z" />
    <glyph glyph-name="z" unicode="z" horiz-adv-x="449" 
d="M409 0h-370q-11 0 -17.5 3t-6.5 13v23q0 3 0.5 7t3.5 8l325 378h-314q-13 0 -13 12v34q0 11 10 11h378q7 0 12 -4t5 -12v-24q0 -12 -7 -19l-319 -373h314q13 0 13 -13v-31q0 -13 -14 -13z" />
    <glyph glyph-name="braceleft" unicode="{" horiz-adv-x="300" 
d="M279 863q10 0 16 -3t6 -14v-21q0 -17 -22 -17t-40.5 -10t-32.5 -26.5t-22 -37.5t-8 -43v-250q0 -17 -10.5 -38.5t-33.5 -37.5q21 -14 32.5 -34t11.5 -40v-254q0 -23 8 -44.5t22 -38t32.5 -26.5t40.5 -10q10 0 16 -3t6 -14v-20q0 -17 -22 -17q-34 0 -63 14t-50.5 37.5
t-34 55t-12.5 66.5v232q0 12 -6 23.5t-16 21.5t-21.5 16t-23.5 6h-11q-22 0 -22 17v24q0 11 6.5 14t15.5 3h9q29 0 49 20.5t20 49.5v227q0 35 12.5 66t34 54.5t50.5 37.5t63 14z" />
    <glyph glyph-name="bar" unicode="|" horiz-adv-x="251" 
d="M81 -205v962q0 9 5.5 15.5t16.5 6.5h12q9 0 16 -6t7 -16v-962q0 -23 -23 -23h-12q-22 0 -22 23z" />
    <glyph glyph-name="braceright" unicode="}" horiz-adv-x="300" 
d="M8 863q34 0 63.5 -14t51 -37.5t34 -54.5t12.5 -66v-227q0 -29 20 -49.5t49 -20.5h9q9 0 15.5 -3t6.5 -14v-24q0 -17 -22 -17h-11q-12 0 -23.5 -6t-21.5 -16t-16 -21.5t-6 -23.5v-232q0 -35 -12.5 -66.5t-34 -55t-51 -37.5t-63.5 -14q-22 0 -22 17v20q0 11 6.5 14t15.5 3
q22 0 41 10t32.5 26.5t21.5 38t8 44.5v254q0 20 12 40t32 34q-22 16 -33 37.5t-11 38.5v250q0 22 -8 43t-21.5 37.5t-32.5 26.5t-41 10t-22 17v21q0 11 6.5 14t15.5 3z" />
    <glyph glyph-name="asciitilde" unicode="~" horiz-adv-x="503" 
d="M120 237q-8 -10 -17.5 -10t-17.5 8l-9 10q-10 8 -8.5 14.5t9.5 16.5q26 31 52 47t58 16q21 0 40.5 -9t38.5 -20.5t37 -20.5t36 -9q20 0 34.5 13t25.5 27q20 23 36 8l12 -13q9 -8 7.5 -15t-7.5 -15q-47 -67 -113 -67q-21 0 -40 9.5t-36.5 20.5t-35 20.5t-35.5 9.5
q-25 0 -38.5 -12t-28.5 -29z" />
    <glyph glyph-name="exclamdown" unicode="&#xa1;" horiz-adv-x="218" 
d="M80 272q0 17 13 17h31q13 0 13 -18v-510q0 -17 -15 -17h-26q-8 0 -12 5t-4 12v511zM63 450q0 20 13 33t33 13t33 -13t13 -33q0 -19 -13 -32.5t-33 -13.5t-33 13.5t-13 32.5z" />
    <glyph glyph-name="cent" unicode="&#xa2;" horiz-adv-x="496" 
d="M437 386q-26 22 -61 40t-80 18q-41 0 -78 -14.5t-64.5 -40.5t-44 -62.5t-16.5 -80.5q0 -46 16.5 -83t44 -63t64.5 -40.5t78 -14.5q34 0 72 15t70 44q5 5 10 3t7 -4l17 -25q2 -2 3 -6t-5 -10q-33 -32 -77 -50.5t-86 -21.5v-72q0 -23 -23 -23h-12q-22 0 -22 23v76
q-43 9 -81.5 31t-67 55t-45.5 75t-17 91q0 47 16 89t44 75t67 55t84 30v69q0 9 5.5 15.5t16.5 6.5h12q9 0 16 -6t7 -16v-65q49 -3 92 -25.5t72 -46.5q11 -9 3 -19l-20 -22q-2 -4 -7 -3.5t-10 3.5z" />
    <glyph glyph-name="sterling" unicode="&#xa3;" horiz-adv-x="600" 
d="M147 498v-123h162q16 0 16 -15v-24q0 -13 -16 -13h-162v-268h395q8 0 13 -3.5t5 -11.5v-24q0 -8 -5 -12t-13 -4h-437q-16 0 -16 16v307h-28q-6 0 -11 3t-5 11v23q0 15 16 15h28v129q0 51 23 96t60 78.5t85 52.5t97 19q44 0 90 -16t77 -39q6 -5 13 -11.5t1 -15.5l-14 -23
q-5 -7 -12 -6t-12 6q-20 17 -56.5 33t-85.5 16q-40 0 -78 -14.5t-66.5 -41t-46 -62.5t-17.5 -78z" />
    <glyph glyph-name="currency" unicode="&#xa4;" horiz-adv-x="539" 
d="M68 274q0 31 9 58.5t26 50.5l-36 37q-10 10 -1 21l21 18q9 10 21 0l34 -36q23 17 51 27t59 10q59 0 108 -33l32 32q12 10 22 0l20 -18q9 -11 -1 -21l-32 -33q39 -48 39 -113q0 -32 -10 -60t-28 -52l29 -28q12 -11 1 -22l-20 -19q-5 -6 -11 -4.5t-11 5.5l-29 29
q-48 -34 -109 -34q-31 0 -59.5 10t-51.5 27l-31 -32q-5 -4 -10.5 -5.5t-11.5 4.5l-20 19q-10 10 2 22l32 33q-34 46 -34 107zM118 274q0 -27 10.5 -51.5t28.5 -43t42.5 -29.5t52.5 -11t53 11t43.5 29.5t29.5 43t11 51.5q0 28 -11 53t-29.5 43.5t-43.5 29.5t-53 11t-52.5 -11
t-42.5 -29.5t-28.5 -43.5t-10.5 -53z" />
    <glyph glyph-name="yen" unicode="&#xa5;" horiz-adv-x="563" 
d="M104 307v24q0 15 16 15h121l-220 375q-5 9 -1.5 15.5t9.5 6.5h41q5 0 8 -2t8 -9l196 -345l209 345q5 7 8 9t7 2h43q6 0 9 -6.5t-2 -15.5l-234 -375h131q14 0 14 -16v-24q0 -5 -4 -10t-11 -5h-138v-69h139q14 0 14 -15v-25q0 -5 -4 -9.5t-11 -4.5h-138v-150q0 -18 -16 -18
h-33q-15 0 -15 18v150h-130q-16 0 -16 15v24q0 15 16 15h130v69h-130q-16 0 -16 16z" />
    <glyph glyph-name="brokenbar" unicode="&#xa6;" horiz-adv-x="248" 
d="M81 358v384q0 8 4.5 13t13.5 5h21q8 0 13.5 -5t5.5 -13v-384q0 -18 -19 -18h-21q-18 0 -18 18zM81 -194v386q0 19 18 19h21q8 0 13.5 -5.5t5.5 -13.5v-386q0 -18 -19 -18h-21q-18 0 -18 18z" />
    <glyph glyph-name="section" unicode="&#xa7;" horiz-adv-x="554" 
d="M477 658q1 -2 2 -6.5t-5 -9.5l-22 -17q-8 -6 -15 -1.5t-12 9.5q-62 71 -145 71q-22 0 -46.5 -7t-44.5 -20.5t-33 -33.5t-13 -46q0 -19 10 -32t30 -23.5t49.5 -20t68.5 -21.5q85 -25 122.5 -58.5t37.5 -84.5q0 -40 -21.5 -71t-62.5 -52q37 -19 60.5 -45t23.5 -68
q0 -37 -15.5 -68t-42.5 -53t-63 -34t-78 -12q-59 0 -108 25.5t-83 65.5q-5 6 -6 13t6 13l19 16q8 8 16.5 3.5t13.5 -9.5q32 -34 65 -52.5t81 -18.5q23 0 47 7t44 20.5t33 33.5t13 46q0 20 -10.5 34.5t-30.5 25t-49.5 19.5t-67.5 19q-49 13 -81 29t-51 34t-26.5 38t-7.5 41
q0 39 23.5 70t62.5 51q-37 20 -59.5 47.5t-22.5 67.5q0 38 15.5 68.5t42.5 52.5t63.5 34t78.5 12q27 0 55.5 -7t54.5 -20t48.5 -32t35.5 -43zM261 446q-61 0 -91 -27.5t-30 -59.5q0 -6 2.5 -21t16.5 -30.5t43 -27t81 -11.5q31 0 53.5 7.5t37 19.5t21.5 27.5t7 31.5
q0 21 -11 38t-30.5 29t-45 18t-54.5 6z" />
    <glyph glyph-name="dieresis" unicode="&#xa8;" horiz-adv-x="442" 
d="M76 624q0 18 13 31t31 13q19 0 31.5 -13t12.5 -31t-12.5 -30.5t-31.5 -12.5q-18 0 -31 12.5t-13 30.5zM258 625q0 18 13 30.5t31 12.5t30.5 -12.5t12.5 -30.5t-12.5 -31t-30.5 -13t-31 13t-13 31z" />
    <glyph glyph-name="copyright" unicode="&#xa9;" horiz-adv-x="878" 
d="M50 371q0 79 30 148.5t82 121.5t122 82t149 30q78 0 147.5 -30t121.5 -82t82.5 -121.5t30.5 -148.5t-30 -148.5t-82 -121.5t-121.5 -82t-148.5 -30t-149 30t-122 82t-82 121.5t-30 148.5zM99 370q0 -69 26.5 -129.5t72 -105.5t106 -71t128.5 -26q69 0 130 27t106.5 72.5
t72 106.5t26.5 128q0 69 -27 129.5t-72.5 105.5t-105.5 71t-127 26q-70 0 -131.5 -27t-107 -73t-71.5 -106.5t-26 -127.5zM572 551q7 -5 8 -11t-1 -10l-11 -19q-3 -5 -9 -6t-15 5q-25 17 -51 26t-54 9q-36 0 -68 -14t-55.5 -38t-37.5 -55.5t-14 -66.5q0 -36 13.5 -67.5
t37 -55t55 -37.5t68.5 -15q26 0 54.5 8.5t52.5 27.5q13 9 20 -2l11 -17q3 -5 2.5 -11t-5.5 -11q-27 -23 -62.5 -35t-74.5 -12q-46 0 -87 18t-72 48.5t-48.5 72t-17.5 88.5t17.5 88t48.5 72t72 48.5t88 17.5q78 0 135 -46z" />
    <glyph glyph-name="ordfeminine" unicode="&#xaa;" horiz-adv-x="515" 
d="M366 676l6 52q0 14 14 14h26q5 0 9.5 -4t4.5 -10v-330q0 -12 -10 -12l-2 -2h-37q-14 0 -14 14v45q-17 -31 -49.5 -48.5t-75.5 -17.5q-39 0 -72.5 14.5t-59 40t-40 59t-14.5 72.5t14.5 72.5t40 59t59 40t72.5 14.5q45 0 77.5 -19.5t50.5 -53.5zM112 563q0 -26 10 -49
t27.5 -40t40.5 -26.5t48 -9.5q26 0 48.5 9.5t39 26t26.5 38.5t11 48v3q0 26 -10 48.5t-27 39.5t-39.5 27t-48.5 10q-25 0 -48 -10t-40.5 -27t-27.5 -39.5t-10 -48.5z" />
    <glyph glyph-name="guillemotleft" unicode="&#xab;" horiz-adv-x="689" 
d="M71 286q0 3 4 7l264 262q5 5 11 6t11 -3l17 -17q5 -5 5 -12t-5 -12l-235 -231l235 -232q12 -12 0 -24l-17 -17q-5 -4 -11 -3t-11 6l-264 261q-4 5 -4 9zM296 286q0 3 4 7l264 262q5 5 11.5 6t10.5 -3l17 -17q5 -5 5 -12t-5 -12l-235 -231l235 -232q12 -12 0 -24l-17 -17
q-4 -4 -10.5 -3t-11.5 6l-264 261q-4 5 -4 9z" />
    <glyph glyph-name="logicalnot" unicode="&#xac;" horiz-adv-x="581" 
d="M466 370v-171q0 -9 -5.5 -15.5t-16.5 -6.5h-12q-9 0 -16 5.5t-7 16.5v136h-273q-23 0 -23 23v12q0 22 23 22h308q9 0 15.5 -5.5t6.5 -16.5z" />
    <glyph glyph-name="uni00AD" unicode="&#xad;" horiz-adv-x="528" 
d="M121 297h308q9 0 15.5 -5.5t6.5 -16.5v-12q0 -9 -6 -16t-16 -7h-308q-23 0 -23 23v12q0 22 23 22z" />
    <glyph glyph-name="registered" unicode="&#xae;" horiz-adv-x="878" 
d="M56 373q0 79 29 148.5t80 121t119.5 81.5t147.5 30t148.5 -30t121 -81.5t81.5 -121t30 -148.5t-30 -148.5t-81.5 -121.5t-121 -82t-148.5 -30t-147.5 30t-119.5 82t-80 121.5t-29 148.5zM112 371q0 -68 24 -127t66.5 -103t101 -69t126.5 -25t127.5 25t104.5 69t71 103
t26 127q0 69 -26 128.5t-71 102.5t-104.5 67.5t-127.5 24.5q-66 0 -124 -25t-101 -68.5t-68 -102.5t-25 -127zM542 171l-66 133q-5 -1 -16 -1h-123v-129q0 -7 -4.5 -10.5t-9.5 -3.5h-27q-13 0 -13 14v406q0 8 9 8h171q28 0 53 -11.5t44 -30.5t30 -44.5t11 -52.5
q0 -43 -21 -76.5t-54 -51.5l68 -139q3 -6 -0.5 -12.5t-11.5 -6.5h-27q-3 0 -7 1.5t-6 6.5zM447 536h-110v-177h110q42 0 70.5 24.5t28.5 66.5t-28.5 64t-70.5 22z" />
    <glyph glyph-name="macron" unicode="&#xaf;" horiz-adv-x="487" 
d="M66 645h296q17 0 17 -16v-19q0 -7 -4 -12t-13 -5h-296q-16 0 -16 17v19q0 16 16 16z" />
    <glyph glyph-name="degree" unicode="&#xb0;" horiz-adv-x="325" 
d="M171 637q24 0 45.5 -9.5t37.5 -25.5t25 -37.5t9 -45.5q0 -25 -9.5 -46.5t-25 -37.5t-37 -25t-45.5 -9t-45.5 9t-37.5 25t-25.5 37.5t-9.5 46.5q0 24 9 45.5t25 37.5t37.5 25.5t46.5 9.5zM171 599q-35 0 -57.5 -23.5t-22.5 -56.5q0 -34 22.5 -56.5t57.5 -22.5
q33 0 56 22.5t23 56.5q0 33 -23 56.5t-56 23.5z" />
    <glyph glyph-name="plusminus" unicode="&#xb1;" horiz-adv-x="497" 
d="M405 0h-321q-19 0 -19 18v21q0 19 19 19h321q19 0 19 -19v-21q0 -18 -19 -18zM258 138h-29q-15 0 -15 17v137h-133q-16 0 -16 14v30q0 15 16 15h133v132q0 6 3.5 10.5t11.5 4.5h29q6 0 10.5 -4.5t4.5 -11.5v-131h136q16 0 16 -15v-30q0 -6 -5 -10t-11 -4h-136v-137
q0 -7 -3.5 -12t-11.5 -5z" />
    <glyph glyph-name="twosuperior" unicode="&#xb2;" horiz-adv-x="418" 
d="M303 335h-251q-13 0 -13 13v26q0 2 -0.5 3.5t1.5 3.5l186 183q17 17 22.5 29.5t5.5 29.5q0 31 -24 52.5t-58 21.5q-33 0 -56.5 -23t-23.5 -55q0 -17 -3 -20.5t-13 -3.5h-26q-5 0 -8 2t-3 10v12q0 28 10.5 51.5t29 40.5t42.5 26.5t51 9.5q28 0 53 -8.5t43.5 -24.5
t29.5 -39t11 -51q0 -27 -10.5 -49.5t-26.5 -38.5l-153 -149h184q13 0 13 -12v-27q0 -13 -13 -13z" />
    <glyph glyph-name="threesuperior" unicode="&#xb3;" horiz-adv-x="378" 
d="M23 459q0 12 11 12h29q11 0 11 -12q0 -32 23.5 -55t55.5 -23t55.5 23t23.5 55t-23.5 56t-55.5 24q-12 0 -12 11v27q0 12 12 12q22 1 38 16t16 38t-15.5 38.5t-38.5 15.5t-38 -15.5t-15 -38.5q0 -12 -11 -12h-31q-10 0 -10 12q0 22 8.5 41t22.5 33.5t33 22.5t41 8t41 -8
t33 -22.5t22 -33.5t8 -41q0 -46 -32 -76q26 -17 42 -45.5t16 -62.5q0 -27 -10 -50.5t-28 -41.5t-41.5 -28t-50.5 -10t-50.5 10t-41.5 28t-28 41.5t-10 50.5z" />
    <glyph glyph-name="acute" unicode="&#xb4;" horiz-adv-x="248" 
d="M212 723l-55 -122q-5 -9 -8.5 -11t-8.5 -2h-30q-7 0 -9 5t3 14l52 122q4 8 8 10.5t9 2.5h33q15 0 6 -19z" />
    <glyph glyph-name="mu" unicode="&#xb5;" horiz-adv-x="584" 
d="M288 -9q-49 0 -86.5 23t-62.5 58v-246q0 -19 -19 -19h-20q-19 0 -19 19v645q0 18 19 18h21q18 0 18 -18v-278q1 -31 13 -57.5t32 -46.5t47 -31.5t57 -11.5h2q31 0 58.5 11.5t48 31.5t33 46.5t13.5 57.5v279q0 18 19 18h20q20 0 20 -18v-453q0 -15 -9 -17t-36 -2
q-12 0 -12 11l-2 66q-25 -36 -65 -61t-90 -25z" />
    <glyph glyph-name="paragraph" unicode="&#xb6;" horiz-adv-x="668" 
d="M642 742q15 0 15 -15v-26q0 -16 -15 -16h-110v-670q0 -15 -15 -15h-27q-15 0 -15 15v670h-136v-670q0 -15 -16 -15h-26q-16 0 -16 15v296q-28 0 -57 6q-40 5 -74.5 23t-60 46t-40 64t-14.5 76q0 45 17 84t46.5 68.5t68.5 46.5t83 17h392z" />
    <glyph glyph-name="glyph120" unicode="&#xb7;" horiz-adv-x="227" 
d="M55 277q0 20 13.5 33t32.5 13q20 0 33.5 -13t13.5 -33t-13.5 -33t-33.5 -13q-19 0 -32.5 13t-13.5 33z" />
    <glyph glyph-name="cedilla" unicode="&#xb8;" horiz-adv-x="278" 
d="M73 -46v72h47q0 -3 0.5 -9.5t0.5 -13.5v-13.5v-8.5q0 -19 2.5 -26t11.5 -10q29 -10 50 -31.5t21 -59.5q0 -26 -25 -55t-83 -41q-5 -1 -9 0t-6 6l-5 24q-3 11 11 15q22 4 44 18t22 36q0 21 -15 34.5t-35 18.5q-18 5 -25 16.5t-7 27.5z" />
    <glyph glyph-name="onesuperior" unicode="&#xb9;" horiz-adv-x="234" 
d="M94 743h30q13 0 13 -12v-384q0 -12 -13 -12h-28q-12 0 -12 12v338l-34 -16q-15 -6 -15 6v32q0 9 10 14z" />
    <glyph glyph-name="ordmasculine" unicode="&#xba;" horiz-adv-x="487" 
d="M59 569q0 38 14.5 71.5t39.5 58.5t58.5 39.5t72.5 14.5q38 0 71.5 -14.5t58.5 -39.5t39.5 -58.5t14.5 -71.5q0 -41 -15 -75t-40.5 -58.5t-58.5 -38t-70 -13.5q-39 0 -72.5 14.5t-58.5 39.5t-39.5 58.5t-14.5 72.5zM110 569q0 -28 10.5 -52t28.5 -42t42.5 -28.5
t51.5 -10.5q28 0 52 10.5t42 28.5t28 42t10 52q0 27 -10 51t-28 42t-42 28.5t-52 10.5q-27 0 -51.5 -10.5t-42.5 -28.5t-28.5 -42t-10.5 -51z" />
    <glyph glyph-name="guillemotright" unicode="&#xbb;" horiz-adv-x="689" 
d="M625 286q0 -4 -4 -9l-264 -261q-5 -5 -11 -6t-11 3l-17 17q-12 12 0 24l235 232l-235 231q-5 5 -5 12t5 12l17 17q5 4 11 3t11 -6l264 -262q4 -4 4 -7zM400 286q0 -4 -4 -9l-264 -261q-5 -5 -11.5 -6t-10.5 3l-17 17q-12 12 0 24l235 232l-235 231q-5 5 -5 12t5 12l17 17
q4 4 10.5 3t11.5 -6l264 -262q4 -4 4 -7z" />
    <glyph glyph-name="onequarter" unicode="&#xbc;" horiz-adv-x="742" 
d="M523 67h-180q-14 0 -15 10.5t5 18.5q46 73 91.5 146t91.5 146q4 5 7.5 12t11.5 7h28q13 0 13 -17v-270h33q15 0 15 -14v-25q0 -14 -15 -14h-33v-54q0 -14 -14 -14h-25q-14 0 -14 14v54zM405 120h118v184q-30 -46 -59 -92t-59 -92zM114 743h29q13 0 13 -12v-384
q0 -12 -12 -12h-28q-13 0 -13 12v338l-34 -16q-6 -2 -7 -2q-7 0 -7 8v32q0 10 10 14zM77 21l373 699q8 14 15 18t19 4h15q18 0 18 -8q-1 -3 -2 -7.5t-5 -10.5l-377 -701q-9 -15 -26 -15h-21q-13 0 -13 8q0 5 4 13z" />
    <glyph glyph-name="onehalf" unicode="&#xbd;" horiz-adv-x="742" 
d="M119 743h16q12 0 12 -13v-382q0 -14 -14 -14h-17q-14 0 -14 14v347l-26 -12q-6 -3 -11.5 -0.5t-7.5 8.5l-1 13q-1 5 0.5 10t8.5 9l41 18q8 2 13 2zM672 0h-253q-7 0 -11 5.5t-4 10.5v10q0 10 8 18l184 178q17 17 26 32t9 35q0 38 -27.5 60t-64.5 22q-42 0 -66 -27
t-24 -65q0 -10 -6.5 -12.5t-8.5 -2.5h-13q-5 0 -9.5 3.5t-4.5 11.5q0 26 8.5 49.5t26 42.5t42 30t55.5 11q27 0 52 -8.5t43.5 -24.5t29.5 -38.5t11 -50.5q0 -30 -10.5 -51.5t-24.5 -35.5l-172 -162h203q6 0 10.5 -3t4.5 -10v-14q0 -5 -4 -9.5t-10 -4.5zM116 18l384 715
q3 8 14 8h30q11 0 13 -5t-1 -12l-386 -716q-3 -6 -7 -7t-7 -1h-31q-8 0 -10.5 5.5t1.5 12.5z" />
    <glyph glyph-name="threequarters" unicode="&#xbe;" horiz-adv-x="766" 
d="M13 467q0 13 10 13h30q11 0 11 -12q0 -32 23 -55.5t55 -23.5t56 23.5t24 55.5t-24 55.5t-56 23.5q-12 0 -12 12v26q0 12 13 12q22 1 38 16.5t16 37.5q0 23 -16 39t-39 16t-38 -16t-15 -39q0 -12 -11 -12h-30q-10 0 -10 13q0 21 8 40.5t22.5 33.5t33.5 22.5t40 8.5
q22 0 41 -8.5t33.5 -22.5t22.5 -33.5t8 -40.5q0 -23 -9 -42.5t-24 -33.5q26 -17 42 -45.5t16 -63.5q0 -27 -10 -50.5t-28 -41t-41.5 -27.5t-50.5 -10t-50.5 10t-41 27.5t-27.5 41t-10 50.5zM544 68h-181q-14 0 -15 10.5t6 18.5q46 73 91.5 146t90.5 146q5 5 8.5 12t11.5 7
h28q12 0 12 -17v-270h34q14 0 14 -14v-25q0 -14 -14 -14h-34v-54q0 -14 -14 -14h-24q-14 0 -14 14v54zM425 121h119v184q-31 -46 -59.5 -92t-59.5 -92zM131 21l373 699q8 14 15 18t19 4h15q18 0 18 -8q-1 -3 -2 -7.5t-5 -10.5l-377 -701q-9 -15 -26 -15h-21q-13 0 -13 8
q0 5 4 13z" />
    <glyph glyph-name="questiondown" unicode="&#xbf;" horiz-adv-x="534" 
d="M261 295v91q0 9 5 13.5t11 4.5h31q14 0 14 -18v-105q0 -25 -14.5 -49t-34.5 -43.5t-41 -34.5t-34 -23q-46 -29 -74 -64.5t-28 -96.5q0 -36 16 -64t41.5 -47.5t58 -29.5t66.5 -10q39 0 73 14t59.5 38.5t40 57.5t14.5 70q0 8 2.5 11.5t10.5 3.5h33q12 0 12 -14
q0 -52 -19 -96t-52.5 -75.5t-78 -49t-95.5 -17.5q-52 0 -95.5 17t-75 46t-49.5 66.5t-18 78.5q0 73 27.5 116t84.5 79q18 11 37 24t35 29.5t26.5 35.5t10.5 41zM339 518q0 -20 -13.5 -33.5t-32.5 -13.5q-20 0 -33.5 13.5t-13.5 33.5q0 19 13.5 32.5t33.5 13.5
q19 0 32.5 -13.5t13.5 -32.5z" />
    <glyph glyph-name="Agrave" unicode="&#xc0;" horiz-adv-x="716" 
d="M384 729l292 -708q5 -11 0 -16.5t-13 -5.5h-30q-10 0 -15 13l-71 173h-383l-71 -172q-5 -14 -15 -14h-31q-7 0 -12 5.5t0 16.5l296 708q5 13 17 13h19q12 0 17 -13zM356 649l-168 -407h335zM325 852l-51 119q-5 10 -1 16t12 6h25q5 0 8.5 -2.5t8.5 -10.5l52 -121
q9 -20 -8 -20h-28q-5 0 -9 2t-9 11z" />
    <glyph glyph-name="Aacute" unicode="&#xc1;" horiz-adv-x="716" 
d="M384 729l292 -708q5 -11 0 -16.5t-13 -5.5h-30q-10 0 -15 13l-71 173h-383l-71 -172q-5 -14 -15 -14h-31q-7 0 -12 5.5t0 16.5l296 708q5 13 17 13h19q12 0 17 -13zM356 649l-168 -407h335zM465 974l-55 -122q-5 -9 -8.5 -11t-8.5 -2h-30q-7 0 -9 5t3 14l52 122
q4 8 8 10.5t9 2.5h33q15 0 6 -19z" />
    <glyph glyph-name="Acircumflex" unicode="&#xc2;" horiz-adv-x="716" 
d="M384 729l292 -708q5 -11 0 -16.5t-13 -5.5h-30q-10 0 -15 13l-71 173h-383l-71 -172q-5 -14 -15 -14h-31q-7 0 -12 5.5t0 16.5l296 708q5 13 17 13h19q12 0 17 -13zM356 649l-168 -407h335zM224 891l114 112q11 14 24 1l114 -113q12 -11 1 -22l-15 -14q-6 -7 -12 -5
t-11 7l-89 88l-90 -90q-11 -11 -23 -1l-15 16q-9 10 2 21z" />
    <glyph glyph-name="Atilde" unicode="&#xc3;" horiz-adv-x="716" 
d="M384 729l292 -708q5 -11 0 -16.5t-13 -5.5h-30q-10 0 -15 13l-71 173h-383l-71 -172q-5 -14 -15 -14h-31q-7 0 -12 5.5t0 16.5l296 708q5 13 17 13h19q12 0 17 -13zM356 649l-168 -407h335zM257 855q-6 -8 -13 -7.5t-13 6.5l-7 7q-8 7 -7 11.5t8 12.5q19 23 38.5 35.5
t44.5 12.5q16 0 31 -7t29 -15.5t28 -15.5t27 -7q15 0 26 10t20 20q13 17 27 7l9 -10q7 -6 6 -12t-6 -11q-37 -51 -86 -51q-16 0 -30 7t-27.5 16t-26.5 16t-27 7q-19 0 -29 -9t-22 -23z" />
    <glyph glyph-name="Adieresis" unicode="&#xc4;" horiz-adv-x="716" 
d="M384 729l292 -708q5 -11 0 -16.5t-13 -5.5h-30q-10 0 -15 13l-71 173h-383l-71 -172q-5 -14 -15 -14h-31q-7 0 -12 5.5t0 16.5l296 708q5 13 17 13h19q12 0 17 -13zM356 649l-168 -407h335zM229 875q0 18 13 31t31 13q19 0 31.5 -13t12.5 -31t-12.5 -30.5t-31.5 -12.5
q-18 0 -31 12.5t-13 30.5zM411 876q0 18 13 30.5t31 12.5t30.5 -12.5t12.5 -30.5t-12.5 -31t-30.5 -13t-31 13t-13 31z" />
    <glyph glyph-name="Aring" unicode="&#xc5;" horiz-adv-x="716" 
d="M384 729l292 -708q5 -11 0 -16.5t-13 -5.5h-30q-10 0 -15 13l-71 173h-383l-71 -172q-5 -14 -15 -14h-31q-7 0 -12 5.5t0 16.5l296 708q5 13 17 13h19q12 0 17 -13zM356 649l-168 -407h335zM364 1012q38 0 65.5 -27.5t27.5 -65.5q0 -39 -27.5 -65.5t-65.5 -26.5
q-39 0 -66 26.5t-27 65.5q0 38 27 65.5t66 27.5zM310 919q0 -23 15.5 -38t38.5 -15t38 15t15 38t-15 38t-38 15t-38.5 -15t-15.5 -38z" />
    <glyph glyph-name="AE" unicode="&#xc6;" horiz-adv-x="1151" 
d="M596 16v169h-375l-133 -175q-5 -7 -8.5 -8.5t-8.5 -1.5h-35q-9 0 -12 8t4 17l568 710q6 8 16 8h466q17 0 17 -16v-28q0 -16 -17 -16h-429v-280h345q19 0 19 -16v-23q0 -16 -19 -16h-345v-288h439q8 0 13 -4.5t5 -12.5v-27q0 -8 -5 -12t-13 -4h-476q-16 0 -16 16zM265 244
h331v403z" />
    <glyph glyph-name="Ccedilla" unicode="&#xc7;" horiz-adv-x="705" 
d="M625 117q6 5 13 5.5t12 -6.5l15 -23q5 -8 3 -12.5t-9 -9.5q-46 -38 -104.5 -60t-127.5 -22q-79 0 -149 30t-122 82t-82 122t-30 149q0 80 30 149t82 120.5t122 81t149 29.5q69 0 127.5 -22t106.5 -60q10 -8 9 -14.5t-2 -8.5l-17 -22q-2 -2 -8.5 -5t-15.5 4
q-42 32 -91.5 52t-106.5 20q-67 0 -126 -25.5t-103.5 -70t-70.5 -103.5t-26 -125q0 -67 25.5 -126.5t70 -104t103.5 -70.5t125 -26q57 0 107.5 20t90.5 52zM393 -46v72h47q0 -3 0.5 -9.5t0.5 -13.5v-13.5v-8.5q0 -19 2.5 -26t11.5 -10q29 -10 50 -31.5t21 -59.5
q0 -26 -25 -55t-83 -41q-5 -1 -9 0t-6 6l-5 24q-3 11 11 15q22 4 44 18t22 36q0 21 -15 34.5t-35 18.5q-18 5 -25 16.5t-7 27.5z" />
    <glyph glyph-name="Egrave" unicode="&#xc8;" horiz-adv-x="642" 
d="M81 16v710q0 16 16 16h486q17 0 17 -14v-27q0 -16 -17 -16h-445v-268h357q19 0 19 -16v-26q0 -16 -19 -16h-357v-302h452q17 0 17 -13v-30q0 -14 -17 -14h-493q-16 0 -16 16zM322 852l-51 119q-5 10 -1 16t12 6h25q5 0 8.5 -2.5t8.5 -10.5l52 -121q9 -20 -8 -20h-28
q-5 0 -9 2t-9 11z" />
    <glyph glyph-name="Eacute" unicode="&#xc9;" horiz-adv-x="642" 
d="M81 16v710q0 16 16 16h486q17 0 17 -14v-27q0 -16 -17 -16h-445v-268h357q19 0 19 -16v-26q0 -16 -19 -16h-357v-302h452q17 0 17 -13v-30q0 -14 -17 -14h-493q-16 0 -16 16zM435 974l-55 -122q-5 -9 -8.5 -11t-8.5 -2h-30q-7 0 -9 5t3 14l52 122q4 8 8 10.5t9 2.5h33
q15 0 6 -19z" />
    <glyph glyph-name="Ecircumflex" unicode="&#xca;" horiz-adv-x="642" 
d="M81 16v710q0 16 16 16h486q17 0 17 -14v-27q0 -16 -17 -16h-445v-268h357q19 0 19 -16v-26q0 -16 -19 -16h-357v-302h452q17 0 17 -13v-30q0 -14 -17 -14h-493q-16 0 -16 16zM225 891l114 112q11 14 24 1l114 -113q12 -11 1 -22l-15 -14q-6 -7 -12 -5t-11 7l-89 88
l-90 -90q-11 -11 -23 -1l-15 16q-9 10 2 21z" />
    <glyph glyph-name="Edieresis" unicode="&#xcb;" horiz-adv-x="642" 
d="M81 16v710q0 16 16 16h486q17 0 17 -14v-27q0 -16 -17 -16h-445v-268h357q19 0 19 -16v-26q0 -16 -19 -16h-357v-302h452q17 0 17 -13v-30q0 -14 -17 -14h-493q-16 0 -16 16zM212 885q0 18 13 31t31 13q19 0 31.5 -13t12.5 -31t-12.5 -30.5t-31.5 -12.5q-18 0 -31 12.5
t-13 30.5zM394 886q0 18 13 30.5t31 12.5t30.5 -12.5t12.5 -30.5t-12.5 -31t-30.5 -13t-31 13t-13 31z" />
    <glyph glyph-name="Igrave" unicode="&#xcc;" horiz-adv-x="218" 
d="M80 18v706q0 18 19 18h20q19 0 19 -18v-706q0 -18 -19 -18h-20q-19 0 -19 18zM78 852l-51 119q-5 10 -1 16t12 6h25q5 0 8.5 -2.5t8.5 -10.5l52 -121q9 -20 -8 -20h-28q-5 0 -9 2t-9 11z" />
    <glyph glyph-name="Iacute" unicode="&#xcd;" horiz-adv-x="218" 
d="M80 18v706q0 18 19 18h20q19 0 19 -18v-706q0 -18 -19 -18h-20q-19 0 -19 18zM195 974l-55 -122q-5 -9 -8.5 -11t-8.5 -2h-30q-7 0 -9 5t3 14l52 122q4 8 8 10.5t9 2.5h33q15 0 6 -19z" />
    <glyph glyph-name="Icircumflex" unicode="&#xce;" horiz-adv-x="218" 
d="M80 18v706q0 18 19 18h20q19 0 19 -18v-706q0 -18 -19 -18h-20q-19 0 -19 18zM-16 891l114 112q11 14 24 1l114 -113q12 -11 1 -22l-15 -14q-6 -7 -12 -5t-11 7l-89 88l-90 -90q-11 -11 -23 -1l-15 16q-9 10 2 21z" />
    <glyph glyph-name="Idieresis" unicode="&#xcf;" horiz-adv-x="218" 
d="M80 18v706q0 18 19 18h20q19 0 19 -18v-706q0 -18 -19 -18h-20q-19 0 -19 18zM-26 875q0 18 13 31t31 13q19 0 31.5 -13t12.5 -31t-12.5 -30.5t-31.5 -12.5q-18 0 -31 12.5t-13 30.5zM156 876q0 18 13 30.5t31 12.5t30.5 -12.5t12.5 -30.5t-12.5 -31t-30.5 -13t-31 13
t-13 31z" />
    <glyph glyph-name="Eth" unicode="&#xd0;" horiz-adv-x="740" 
d="M31 394h212q8 0 13.5 -4.5t5.5 -14.5v-15q0 -8 -5.5 -14t-13.5 -6h-212q-20 0 -20 20v15q0 19 20 19zM79 17v706q0 19 16 19h236q77 0 144.5 -29t117.5 -79.5t79 -118t29 -145.5q0 -77 -29.5 -144.5t-80 -117.5t-118.5 -79t-146 -29h-232q-16 0 -16 17zM136 56h194
q66 0 123.5 25.5t100 69t66.5 101t24 121.5q0 68 -25.5 125t-68.5 98.5t-100.5 65t-122.5 23.5h-191v-629z" />
    <glyph glyph-name="Ntilde" unicode="&#xd1;" horiz-adv-x="771" 
d="M643 103v623q0 17 17 17h24q17 0 17 -16v-713q0 -14 -16 -14h-26q-6 0 -10.5 3t-7.5 7l-503 636v-628q0 -18 -18 -18h-21q-18 0 -18 18v706q0 18 16 18h32q6 0 9 -5zM284 855q-6 -8 -13 -7.5t-13 6.5l-7 7q-8 7 -7 11.5t8 12.5q19 23 38.5 35.5t44.5 12.5q16 0 31 -7
t29 -15.5t28 -15.5t27 -7q15 0 26 10t20 20q13 17 27 7l9 -10q7 -6 6 -12t-6 -11q-37 -51 -86 -51q-16 0 -30 7t-27.5 16t-26.5 16t-27 7q-19 0 -29 -9t-22 -23z" />
    <glyph glyph-name="Ograve" unicode="&#xd2;" horiz-adv-x="853" 
d="M44 370q0 79 30 148.5t81.5 121.5t121 82t148.5 30q78 0 147.5 -30t121 -82t81.5 -121.5t30 -148.5t-30 -148t-81.5 -120.5t-121 -81.5t-148.5 -30t-148 30t-120.5 81.5t-81.5 120.5t-30 148zM102 371q0 -67 25.5 -125.5t69 -102t102.5 -69t126 -25.5q66 0 125 25.5
t102.5 69t69 102t25.5 125.5q0 66 -25.5 125t-69 102.5t-102.5 69t-125 25.5q-67 0 -126 -25.5t-102.5 -69t-69 -102.5t-25.5 -125zM396 852l-51 119q-5 10 -1 16t12 6h25q5 0 8.5 -2.5t8.5 -10.5l52 -121q9 -20 -8 -20h-28q-5 0 -9 2t-9 11z" />
    <glyph glyph-name="Oacute" unicode="&#xd3;" horiz-adv-x="853" 
d="M44 370q0 79 30 148.5t81.5 121.5t121 82t148.5 30q78 0 147.5 -30t121 -82t81.5 -121.5t30 -148.5t-30 -148t-81.5 -120.5t-121 -81.5t-148.5 -30t-148 30t-120.5 81.5t-81.5 120.5t-30 148zM102 371q0 -67 25.5 -125.5t69 -102t102.5 -69t126 -25.5q66 0 125 25.5
t102.5 69t69 102t25.5 125.5q0 66 -25.5 125t-69 102.5t-102.5 69t-125 25.5q-67 0 -126 -25.5t-102.5 -69t-69 -102.5t-25.5 -125zM526 974l-55 -122q-5 -9 -8.5 -11t-8.5 -2h-30q-7 0 -9 5t3 14l52 122q4 8 8 10.5t9 2.5h33q15 0 6 -19z" />
    <glyph glyph-name="Ocircumflex" unicode="&#xd4;" horiz-adv-x="853" 
d="M44 370q0 79 30 148.5t81.5 121.5t121 82t148.5 30q78 0 147.5 -30t121 -82t81.5 -121.5t30 -148.5t-30 -148t-81.5 -120.5t-121 -81.5t-148.5 -30t-148 30t-120.5 81.5t-81.5 120.5t-30 148zM102 371q0 -67 25.5 -125.5t69 -102t102.5 -69t126 -25.5q66 0 125 25.5
t102.5 69t69 102t25.5 125.5q0 66 -25.5 125t-69 102.5t-102.5 69t-125 25.5q-67 0 -126 -25.5t-102.5 -69t-69 -102.5t-25.5 -125zM286 891l114 112q11 14 24 1l114 -113q12 -11 1 -22l-15 -14q-6 -7 -12 -5t-11 7l-89 88l-90 -90q-11 -11 -23 -1l-15 16q-9 10 2 21z" />
    <glyph glyph-name="Otilde" unicode="&#xd5;" horiz-adv-x="853" 
d="M44 370q0 79 30 148.5t81.5 121.5t121 82t148.5 30q78 0 147.5 -30t121 -82t81.5 -121.5t30 -148.5t-30 -148t-81.5 -120.5t-121 -81.5t-148.5 -30t-148 30t-120.5 81.5t-81.5 120.5t-30 148zM102 371q0 -67 25.5 -125.5t69 -102t102.5 -69t126 -25.5q66 0 125 25.5
t102.5 69t69 102t25.5 125.5q0 66 -25.5 125t-69 102.5t-102.5 69t-125 25.5q-67 0 -126 -25.5t-102.5 -69t-69 -102.5t-25.5 -125zM319 855q-6 -8 -13 -7.5t-13 6.5l-7 7q-8 7 -7 11.5t8 12.5q19 23 38.5 35.5t44.5 12.5q16 0 31 -7t29 -15.5t28 -15.5t27 -7q15 0 26 10
t20 20q13 17 27 7l9 -10q7 -6 6 -12t-6 -11q-37 -51 -86 -51q-16 0 -30 7t-27.5 16t-26.5 16t-27 7q-19 0 -29 -9t-22 -23z" />
    <glyph glyph-name="Odieresis" unicode="&#xd6;" horiz-adv-x="853" 
d="M44 370q0 79 30 148.5t81.5 121.5t121 82t148.5 30q78 0 147.5 -30t121 -82t81.5 -121.5t30 -148.5t-30 -148t-81.5 -120.5t-121 -81.5t-148.5 -30t-148 30t-120.5 81.5t-81.5 120.5t-30 148zM102 371q0 -67 25.5 -125.5t69 -102t102.5 -69t126 -25.5q66 0 125 25.5
t102.5 69t69 102t25.5 125.5q0 66 -25.5 125t-69 102.5t-102.5 69t-125 25.5q-67 0 -126 -25.5t-102.5 -69t-69 -102.5t-25.5 -125zM291 875q0 18 13 31t31 13q19 0 31.5 -13t12.5 -31t-12.5 -30.5t-31.5 -12.5q-18 0 -31 12.5t-13 30.5zM473 876q0 18 13 30.5t31 12.5
t30.5 -12.5t12.5 -30.5t-12.5 -31t-30.5 -13t-31 13t-13 31z" />
    <glyph glyph-name="multiply" unicode="&#xd7;" horiz-adv-x="446" 
d="M104 172l-19 19q-11 11 1 23l105 104l-104 103q-5 5 -6 11t5 11l17 18q11 11 23 -2l103 -103l106 105q4 5 10 5.5t11 -4.5l19 -19q9 -11 -1 -21l-106 -105l106 -106q4 -5 4.5 -10.5t-4.5 -10.5l-18 -18q-4 -4 -10 -3.5t-10 4.5l-106 106l-104 -105q-5 -5 -11 -6t-11 4z
" />
    <glyph glyph-name="Oslash" unicode="&#xd8;" horiz-adv-x="851" 
d="M235 -47l28 73q-49 23 -89 58t-69 79.5t-45 97t-16 109.5q0 79 30 148.5t81.5 121.5t121 82t148.5 30q57 0 111 -17l24 59q6 14 12 18t19 4h14q20 0 20 -10q-1 -3 -1.5 -7t-2.5 -9l-31 -76q48 -23 87.5 -58.5t68 -80t44 -96.5t15.5 -109q0 -79 -30 -148t-81.5 -120.5
t-121 -81.5t-148.5 -30q-29 0 -55.5 4t-52.5 12l-24 -59q-6 -15 -24 -15h-21q-14 0 -14 10q0 3 2 11zM102 371q0 -67 25.5 -125.5t69 -102t102.5 -69t126 -25.5q66 0 125 25.5t102.5 69t69 102t25.5 125.5q0 66 -25.5 125t-69 102.5t-102.5 69t-125 25.5q-67 0 -126 -25.5
t-102.5 -69t-69 -102.5t-25.5 -125z" />
    <glyph glyph-name="Ugrave" unicode="&#xd9;" horiz-adv-x="752" 
d="M128 724v-427q0 -53 18.5 -99t51 -80.5t77.5 -54t99 -19.5q55 0 100.5 19.5t78 54t50.5 80.5t18 99v427q0 18 19 18h19q8 0 14 -5t6 -13v-434q0 -66 -24 -121t-65.5 -95.5t-97 -63t-118.5 -22.5t-118.5 24t-96.5 65t-65 96.5t-24 118.5v432q0 8 4.5 13t12.5 5h22
q8 0 13.5 -5t5.5 -13zM376 852l-51 119q-5 10 -1 16t12 6h25q5 0 8.5 -2.5t8.5 -10.5l52 -121q9 -20 -8 -20h-28q-5 0 -9 2t-9 11z" />
    <glyph glyph-name="Uacute" unicode="&#xda;" horiz-adv-x="752" 
d="M128 724v-427q0 -53 18.5 -99t51 -80.5t77.5 -54t99 -19.5q55 0 100.5 19.5t78 54t50.5 80.5t18 99v427q0 18 19 18h19q8 0 14 -5t6 -13v-434q0 -66 -24 -121t-65.5 -95.5t-97 -63t-118.5 -22.5t-118.5 24t-96.5 65t-65 96.5t-24 118.5v432q0 8 4.5 13t12.5 5h22
q8 0 13.5 -5t5.5 -13zM477 974l-55 -122q-5 -9 -8.5 -11t-8.5 -2h-30q-7 0 -9 5t3 14l52 122q4 8 8 10.5t9 2.5h33q15 0 6 -19z" />
    <glyph glyph-name="Ucircumflex" unicode="&#xdb;" horiz-adv-x="752" 
d="M128 724v-427q0 -53 18.5 -99t51 -80.5t77.5 -54t99 -19.5q55 0 100.5 19.5t78 54t50.5 80.5t18 99v427q0 18 19 18h19q8 0 14 -5t6 -13v-434q0 -66 -24 -121t-65.5 -95.5t-97 -63t-118.5 -22.5t-118.5 24t-96.5 65t-65 96.5t-24 118.5v432q0 8 4.5 13t12.5 5h22
q8 0 13.5 -5t5.5 -13zM253 891l114 112q11 14 24 1l114 -113q12 -11 1 -22l-15 -14q-6 -7 -12 -5t-11 7l-89 88l-90 -90q-11 -11 -23 -1l-15 16q-9 10 2 21z" />
    <glyph glyph-name="Udieresis" unicode="&#xdc;" horiz-adv-x="752" 
d="M128 724v-427q0 -53 18.5 -99t51 -80.5t77.5 -54t99 -19.5q55 0 100.5 19.5t78 54t50.5 80.5t18 99v427q0 18 19 18h19q8 0 14 -5t6 -13v-434q0 -66 -24 -121t-65.5 -95.5t-97 -63t-118.5 -22.5t-118.5 24t-96.5 65t-65 96.5t-24 118.5v432q0 8 4.5 13t12.5 5h22
q8 0 13.5 -5t5.5 -13zM240 875q0 18 13 31t31 13q19 0 31.5 -13t12.5 -31t-12.5 -30.5t-31.5 -12.5q-18 0 -31 12.5t-13 30.5zM422 876q0 18 13 30.5t31 12.5t30.5 -12.5t12.5 -30.5t-12.5 -31t-30.5 -13t-31 13t-13 31z" />
    <glyph glyph-name="Yacute" unicode="&#xdd;" horiz-adv-x="553" 
d="M252 328l-242 394q-6 9 -1 14.5t12 5.5h34q4 0 7.5 -1.5t8.5 -8.5l208 -348l212 347q4 7 7.5 9t7.5 2h31q7 0 11.5 -4t-1.5 -14l-238 -396v-310q0 -18 -14 -18h-30q-8 0 -10.5 5t-2.5 13v310zM371 974l-55 -122q-5 -9 -8.5 -11t-8.5 -2h-30q-7 0 -9 5t3 14l52 122
q4 8 8 10.5t9 2.5h33q15 0 6 -19z" />
    <glyph glyph-name="Thorn" unicode="&#xde;" horiz-adv-x="627" 
d="M81 18v707q0 18 18 18h21q18 0 18 -18v-114h202q48 0 90.5 -18.5t73.5 -50t49 -73.5t18 -89t-18 -89t-49 -73.5t-73 -49.5t-90 -18h-202v-132q0 -18 -19 -18h-21q-18 0 -18 18zM139 207h201q36 0 67.5 13.5t55 37t37 55t13.5 67.5t-13.5 67.5t-36.5 55t-55 37.5t-68 14
h-201v-347z" />
    <glyph glyph-name="germandbls" unicode="&#xdf;" horiz-adv-x="576" 
d="M275 -29q-16 0 -16 14v34q0 4 3.5 8.5t15.5 4.5q43 0 79.5 13.5t63 37.5t41.5 58t15 75q0 38 -11.5 70t-35.5 55t-61.5 36t-90.5 13q-9 0 -14 5t-5 11v27q0 6 4.5 11t15.5 5q48 0 76 13t43 32t19.5 40.5t4.5 37.5q0 30 -11.5 54t-31.5 40t-46.5 24.5t-55.5 8.5
q-33 0 -58.5 -12.5t-43.5 -34.5t-27 -52.5t-9 -66.5v-707q0 -17 -16 -17h-28q-11 0 -13 6t-2 11v717q0 49 15 88.5t41 67.5t63 43.5t80 15.5q46 0 83.5 -15t64 -40.5t41 -59t14.5 -70.5q0 -47 -19 -85t-51 -62q29 -12 52.5 -33.5t40.5 -49t26.5 -60.5t9.5 -69q0 -48 -17 -92
t-50.5 -77.5t-83.5 -53.5t-115 -20z" />
    <glyph glyph-name="agrave" unicode="&#xe0;" horiz-adv-x="594" 
d="M519 469v-453q0 -16 -17 -16h-24q-11 0 -13.5 4t-2.5 14v88q-18 -56 -67 -87t-115 -31q-51 0 -95 20t-76 54.5t-50.5 81t-18.5 99.5t18 100t50.5 82t76.5 55t95 20q33 0 63 -8.5t54 -24t41 -36.5t24 -47l2 85q1 10 4 15t14 5h21q16 0 16 -20zM462 243q0 41 -13.5 77.5
t-37.5 64t-57.5 43.5t-73.5 16t-74 -16t-58.5 -43.5t-38 -64t-13.5 -77.5t14 -77t38.5 -63t58 -43t73.5 -16t73.5 15.5t57.5 42.5t37.5 63t13.5 78zM260 601l-51 119q-5 10 -1 16t12 6h25q5 0 8.5 -2.5t8.5 -10.5l52 -121q9 -20 -8 -20h-28q-5 0 -9 2t-9 11z" />
    <glyph glyph-name="aacute" unicode="&#xe1;" horiz-adv-x="594" 
d="M519 469v-453q0 -16 -17 -16h-24q-11 0 -13.5 4t-2.5 14v88q-18 -56 -67 -87t-115 -31q-51 0 -95 20t-76 54.5t-50.5 81t-18.5 99.5t18 100t50.5 82t76.5 55t95 20q33 0 63 -8.5t54 -24t41 -36.5t24 -47l2 85q1 10 4 15t14 5h21q16 0 16 -20zM462 243q0 41 -13.5 77.5
t-37.5 64t-57.5 43.5t-73.5 16t-74 -16t-58.5 -43.5t-38 -64t-13.5 -77.5t14 -77t38.5 -63t58 -43t73.5 -16t73.5 15.5t57.5 42.5t37.5 63t13.5 78zM375 723l-55 -122q-5 -9 -8.5 -11t-8.5 -2h-30q-7 0 -9 5t3 14l52 122q4 8 8 10.5t9 2.5h33q15 0 6 -19z" />
    <glyph glyph-name="acircumflex" unicode="&#xe2;" horiz-adv-x="594" 
d="M519 469v-453q0 -16 -17 -16h-24q-11 0 -13.5 4t-2.5 14v88q-18 -56 -67 -87t-115 -31q-51 0 -95 20t-76 54.5t-50.5 81t-18.5 99.5t18 100t50.5 82t76.5 55t95 20q33 0 63 -8.5t54 -24t41 -36.5t24 -47l2 85q1 10 4 15t14 5h21q16 0 16 -20zM462 243q0 41 -13.5 77.5
t-37.5 64t-57.5 43.5t-73.5 16t-74 -16t-58.5 -43.5t-38 -64t-13.5 -77.5t14 -77t38.5 -63t58 -43t73.5 -16t73.5 15.5t57.5 42.5t37.5 63t13.5 78zM142 640l114 112q11 14 24 1l114 -113q12 -11 1 -22l-15 -14q-6 -7 -12 -5t-11 7l-89 88l-90 -90q-11 -11 -23 -1l-15 16
q-9 10 2 21z" />
    <glyph glyph-name="atilde" unicode="&#xe3;" horiz-adv-x="594" 
d="M519 469v-453q0 -16 -17 -16h-24q-11 0 -13.5 4t-2.5 14v88q-18 -56 -67 -87t-115 -31q-51 0 -95 20t-76 54.5t-50.5 81t-18.5 99.5t18 100t50.5 82t76.5 55t95 20q33 0 63 -8.5t54 -24t41 -36.5t24 -47l2 85q1 10 4 15t14 5h21q16 0 16 -20zM462 243q0 41 -13.5 77.5
t-37.5 64t-57.5 43.5t-73.5 16t-74 -16t-58.5 -43.5t-38 -64t-13.5 -77.5t14 -77t38.5 -63t58 -43t73.5 -16t73.5 15.5t57.5 42.5t37.5 63t13.5 78zM178 604q-6 -8 -13 -7.5t-13 6.5l-7 7q-8 7 -7 11.5t8 12.5q19 23 38.5 35.5t44.5 12.5q16 0 31 -7t29 -15.5t28 -15.5
t27 -7q15 0 26 10t20 20q13 17 27 7l9 -10q7 -6 6 -12t-6 -11q-37 -51 -86 -51q-16 0 -30 7t-27.5 16t-26.5 16t-27 7q-19 0 -29 -9t-22 -23z" />
    <glyph glyph-name="adieresis" unicode="&#xe4;" horiz-adv-x="594" 
d="M519 469v-453q0 -16 -17 -16h-24q-11 0 -13.5 4t-2.5 14v88q-18 -56 -67 -87t-115 -31q-51 0 -95 20t-76 54.5t-50.5 81t-18.5 99.5t18 100t50.5 82t76.5 55t95 20q33 0 63 -8.5t54 -24t41 -36.5t24 -47l2 85q1 10 4 15t14 5h21q16 0 16 -20zM462 243q0 41 -13.5 77.5
t-37.5 64t-57.5 43.5t-73.5 16t-74 -16t-58.5 -43.5t-38 -64t-13.5 -77.5t14 -77t38.5 -63t58 -43t73.5 -16t73.5 15.5t57.5 42.5t37.5 63t13.5 78zM138 624q0 18 13 31t31 13q19 0 31.5 -13t12.5 -31t-12.5 -30.5t-31.5 -12.5q-18 0 -31 12.5t-13 30.5zM320 625
q0 18 13 30.5t31 12.5t30.5 -12.5t12.5 -30.5t-12.5 -31t-30.5 -13t-31 13t-13 31z" />
    <glyph glyph-name="aring" unicode="&#xe5;" horiz-adv-x="594" 
d="M519 469v-453q0 -16 -17 -16h-24q-11 0 -13.5 4t-2.5 14v88q-18 -56 -67 -87t-115 -31q-51 0 -95 20t-76 54.5t-50.5 81t-18.5 99.5t18 100t50.5 82t76.5 55t95 20q33 0 63 -8.5t54 -24t41 -36.5t24 -47l2 85q1 10 4 15t14 5h21q16 0 16 -20zM462 243q0 41 -13.5 77.5
t-37.5 64t-57.5 43.5t-73.5 16t-74 -16t-58.5 -43.5t-38 -64t-13.5 -77.5t14 -77t38.5 -63t58 -43t73.5 -16t73.5 15.5t57.5 42.5t37.5 63t13.5 78zM282 761q38 0 65.5 -27.5t27.5 -65.5q0 -39 -27.5 -65.5t-65.5 -26.5q-39 0 -66 26.5t-27 65.5q0 38 27 65.5t66 27.5z
M228 668q0 -23 15.5 -38t38.5 -15t38 15t15 38t-15 38t-38 15t-38.5 -15t-15.5 -38z" />
    <glyph glyph-name="ae" unicode="&#xe6;" horiz-adv-x="967" 
d="M461 243q0 41 -13.5 77.5t-37.5 64t-57.5 43.5t-73.5 16t-74 -16t-58.5 -43.5t-38 -64t-13.5 -77.5t14 -77t38.5 -63t58 -43t73.5 -16t73.5 15.5t57.5 42.5t37.5 63t13.5 78zM701 -11q-56 1 -103 25.5t-80 65.5v-64q0 -16 -17 -16h-24q-11 0 -13.5 4t-2.5 14v88
q-18 -56 -67 -87t-115 -31q-51 0 -95 20t-76 54.5t-50.5 81t-18.5 99.5t18 100t50.5 82t76.5 55t95 20q33 0 63 -8.5t54 -24t41 -36.5t24 -47l2 85q1 10 4 15t14 5h21q16 0 16 -20v-58q33 41 79 65t100 24q47 0 88.5 -19.5t72.5 -53t49.5 -78.5t18.5 -96q0 -18 -11 -24
t-28 -6h-368q2 -37 17 -69.5t39.5 -56.5t56.5 -38t68 -15h2q42 0 79.5 17t64.5 45q7 7 14 7t12 -5l12 -17q7 -8 6 -14t-13 -17q-36 -32 -80 -51.5t-96 -19.5zM695 443q-33 0 -62 -12.5t-52 -34.5t-38.5 -52t-21.5 -66h348q-4 35 -20 65.5t-39.5 52.5t-53 34.5t-61.5 12.5z
" />
    <glyph glyph-name="ccedilla" unicode="&#xe7;" horiz-adv-x="511" 
d="M437 386q-26 22 -61 40t-80 18q-41 0 -78 -14.5t-64.5 -40.5t-44 -62.5t-16.5 -80.5q0 -46 16.5 -83t44 -63t64.5 -40.5t78 -14.5q34 0 72 15t70 44q5 5 10 3t7 -4l17 -25q2 -2 3 -6t-5 -10q-35 -35 -83.5 -54t-93.5 -18q-49 1 -95 20.5t-81.5 53.5t-56.5 80.5t-21 101.5
q0 53 20 99.5t55 80.5t82 53.5t101 19.5q26 0 50.5 -6.5t47 -17t42 -23t34.5 -25.5q11 -9 3 -19l-20 -22q-2 -4 -7 -3.5t-10 3.5zM261 -46v72h47q0 -3 0.5 -9.5t0.5 -13.5v-13.5v-8.5q0 -19 2.5 -26t11.5 -10q29 -10 50 -31.5t21 -59.5q0 -26 -25 -55t-83 -41q-5 -1 -9 0
t-6 6l-5 24q-3 11 11 15q22 4 44 18t22 36q0 21 -15 34.5t-35 18.5q-18 5 -25 16.5t-7 27.5z" />
    <glyph glyph-name="egrave" unicode="&#xe8;" horiz-adv-x="532" 
d="M284 -11q-50 0 -94 20t-76.5 55t-51 81.5t-18.5 98.5q0 53 18.5 99.5t50.5 81.5t75 55t92 20q47 0 88.5 -19.5t72.5 -53t49.5 -78.5t18.5 -96q0 -18 -11 -24t-28 -6h-368q2 -37 17 -69.5t39.5 -56.5t56.5 -38t68 -15h2q42 0 79.5 17t64.5 45q7 7 14 7t12 -5l12 -17
q7 -8 6 -14t-13 -17q-36 -32 -80 -51.5t-96 -19.5zM278 443q-33 0 -62 -12.5t-52 -34.5t-38.5 -52t-21.5 -66h348q-4 35 -20 65.5t-39.5 52.5t-53 34.5t-61.5 12.5zM262 601l-51 119q-5 10 -1 16t12 6h25q5 0 8.5 -2.5t8.5 -10.5l52 -121q9 -20 -8 -20h-28q-5 0 -9 2t-9 11z
" />
    <glyph glyph-name="eacute" unicode="&#xe9;" horiz-adv-x="532" 
d="M284 -11q-50 0 -94 20t-76.5 55t-51 81.5t-18.5 98.5q0 53 18.5 99.5t50.5 81.5t75 55t92 20q47 0 88.5 -19.5t72.5 -53t49.5 -78.5t18.5 -96q0 -18 -11 -24t-28 -6h-368q2 -37 17 -69.5t39.5 -56.5t56.5 -38t68 -15h2q42 0 79.5 17t64.5 45q7 7 14 7t12 -5l12 -17
q7 -8 6 -14t-13 -17q-36 -32 -80 -51.5t-96 -19.5zM278 443q-33 0 -62 -12.5t-52 -34.5t-38.5 -52t-21.5 -66h348q-4 35 -20 65.5t-39.5 52.5t-53 34.5t-61.5 12.5zM388 723l-55 -122q-5 -9 -8.5 -11t-8.5 -2h-30q-7 0 -9 5t3 14l52 122q4 8 8 10.5t9 2.5h33q15 0 6 -19z
" />
    <glyph glyph-name="ecircumflex" unicode="&#xea;" horiz-adv-x="532" 
d="M284 -11q-50 0 -94 20t-76.5 55t-51 81.5t-18.5 98.5q0 53 18.5 99.5t50.5 81.5t75 55t92 20q47 0 88.5 -19.5t72.5 -53t49.5 -78.5t18.5 -96q0 -18 -11 -24t-28 -6h-368q2 -37 17 -69.5t39.5 -56.5t56.5 -38t68 -15h2q42 0 79.5 17t64.5 45q7 7 14 7t12 -5l12 -17
q7 -8 6 -14t-13 -17q-36 -32 -80 -51.5t-96 -19.5zM278 443q-33 0 -62 -12.5t-52 -34.5t-38.5 -52t-21.5 -66h348q-4 35 -20 65.5t-39.5 52.5t-53 34.5t-61.5 12.5zM146 640l114 112q11 14 24 1l114 -113q12 -11 1 -22l-15 -14q-6 -7 -12 -5t-11 7l-89 88l-90 -90
q-11 -11 -23 -1l-15 16q-9 10 2 21z" />
    <glyph glyph-name="edieresis" unicode="&#xeb;" horiz-adv-x="532" 
d="M284 -11q-50 0 -94 20t-76.5 55t-51 81.5t-18.5 98.5q0 53 18.5 99.5t50.5 81.5t75 55t92 20q47 0 88.5 -19.5t72.5 -53t49.5 -78.5t18.5 -96q0 -18 -11 -24t-28 -6h-368q2 -37 17 -69.5t39.5 -56.5t56.5 -38t68 -15h2q42 0 79.5 17t64.5 45q7 7 14 7t12 -5l12 -17
q7 -8 6 -14t-13 -17q-36 -32 -80 -51.5t-96 -19.5zM278 443q-33 0 -62 -12.5t-52 -34.5t-38.5 -52t-21.5 -66h348q-4 35 -20 65.5t-39.5 52.5t-53 34.5t-61.5 12.5zM151 624q0 18 13 31t31 13q19 0 31.5 -13t12.5 -31t-12.5 -30.5t-31.5 -12.5q-18 0 -31 12.5t-13 30.5z
M333 625q0 18 13 30.5t31 12.5t30.5 -12.5t12.5 -30.5t-12.5 -31t-30.5 -13t-31 13t-13 31z" />
    <glyph glyph-name="igrave" unicode="&#xec;" horiz-adv-x="217" 
d="M80 18v453q0 19 19 19h20q19 0 19 -19v-453q0 -18 -18 -18h-21q-19 0 -19 18zM80 601l-51 119q-5 10 -1 16t12 6h25q5 0 8.5 -2.5t8.5 -10.5l52 -121q9 -20 -8 -20h-28q-5 0 -9 2t-9 11z" />
    <glyph glyph-name="iacute" unicode="&#xed;" horiz-adv-x="217" 
d="M80 18v453q0 19 19 19h20q19 0 19 -19v-453q0 -18 -18 -18h-21q-19 0 -19 18zM192 723l-55 -122q-5 -9 -8.5 -11t-8.5 -2h-30q-7 0 -9 5t3 14l52 122q4 8 8 10.5t9 2.5h33q15 0 6 -19z" />
    <glyph glyph-name="icircumflex" unicode="&#xee;" horiz-adv-x="217" 
d="M80 18v453q0 19 19 19h20q19 0 19 -19v-453q0 -18 -18 -18h-21q-19 0 -19 18zM-18 640l114 112q11 14 24 1l114 -113q12 -11 1 -22l-15 -14q-6 -7 -12 -5t-11 7l-89 88l-90 -90q-11 -11 -23 -1l-15 16q-9 10 2 21z" />
    <glyph glyph-name="idieresis" unicode="&#xef;" horiz-adv-x="217" 
d="M80 18v453q0 19 19 19h20q19 0 19 -19v-453q0 -18 -18 -18h-21q-19 0 -19 18zM-27 624q0 18 13 31t31 13q19 0 31.5 -13t12.5 -31t-12.5 -30.5t-31.5 -12.5q-18 0 -31 12.5t-13 30.5zM155 625q0 18 13 30.5t31 12.5t30.5 -12.5t12.5 -30.5t-12.5 -31t-30.5 -13t-31 13
t-13 31z" />
    <glyph glyph-name="eth" unicode="&#xf0;" horiz-adv-x="574" 
d="M555 248q0 -53 -20 -100t-54.5 -82t-81 -55t-99.5 -20t-100 20t-81.5 55t-54.5 82t-20 100t20 99.5t54.5 81.5t81.5 55t100 20q24 0 47 -4.5t44 -12.5l-79 136l-64 -37q-17 -11 -27 7l-6 9q-9 16 8 27l64 37l-31 53q-5 9 -5 16q0 5 3.5 7.5t14.5 2.5h20q12 0 18 -5.5
t13 -16.5l16 -28l67 39q7 4 14 2.5t12 -9.5l5 -9q5 -7 3.5 -15t-9.5 -12l-67 -40l150 -259q21 -31 32.5 -67.5t11.5 -76.5zM499 248q0 41 -16 77.5t-43 63.5t-63.5 43t-77.5 16t-77.5 -16t-63.5 -43t-43 -63.5t-16 -77.5t16 -77.5t43 -64t63.5 -43.5t77.5 -16t77.5 16
t63.5 43.5t43 64t16 77.5z" />
    <glyph glyph-name="ntilde" unicode="&#xf1;" horiz-adv-x="566" 
d="M138 299v-281q0 -9 -3 -13.5t-12 -4.5h-26q-10 0 -13 4.5t-3 13.5v458q0 13 15 13h28q8 0 10.5 -4.5t2.5 -9.5l2 -62q25 37 66.5 62t92.5 25q43 0 80 -16t64 -44.5t42.5 -68.5t15.5 -87v-264q0 -20 -16 -20h-26q-11 0 -13.5 4.5t-2.5 14.5v276q0 31 -12 58t-32.5 47
t-47.5 31.5t-58 11.5q-30 0 -58 -11t-49 -30.5t-34 -46t-13 -56.5zM174 604q-6 -8 -13 -7.5t-13 6.5l-7 7q-8 7 -7 11.5t8 12.5q19 23 38.5 35.5t44.5 12.5q16 0 31 -7t29 -15.5t28 -15.5t27 -7q15 0 26 10t20 20q13 17 27 7l9 -10q7 -6 6 -12t-6 -11q-37 -51 -86 -51
q-16 0 -30 7t-27.5 16t-26.5 16t-27 7q-19 0 -29 -9t-22 -23z" />
    <glyph glyph-name="ograve" unicode="&#xf2;" horiz-adv-x="583" 
d="M44 244q0 53 19 99.5t52 81.5t78 55t98 20t98.5 -20t78.5 -55t52 -81.5t19 -99.5t-19 -99.5t-52 -81.5t-78.5 -55t-98.5 -20t-98 20t-78 55t-52 81.5t-19 99.5zM101 244q0 -41 14.5 -77.5t40 -63.5t60.5 -43t76 -16t76 16t60.5 43t40 63.5t14.5 77.5t-14.5 77.5t-40 63.5
t-60.5 43t-76 16t-76 -16t-60.5 -43t-40 -63.5t-14.5 -77.5zM283 601l-51 119q-5 10 -1 16t12 6h25q5 0 8.5 -2.5t8.5 -10.5l52 -121q9 -20 -8 -20h-28q-5 0 -9 2t-9 11z" />
    </font>
</defs>
</svg>
