<?xml version="1.0" standalone="no"?>
<!DOCTYPE svg PUBLIC "-//W3C//DTD SVG 1.1//EN" "http://www.w3.org/Graphics/SVG/1.1/DTD/svg11.dtd" >
<svg xmlns="http://www.w3.org/2000/svg" xmlns:xlink="http://www.w3.org/1999/xlink" version="1.1">
<metadata>
Created by FontForge 20161013 at Thu May 17 19:59:58 2007
 By ,,,
Copyright  1997, 2001, Berthold LLC. All rights reserved. Akzidenz-Grotesk is a trademark of Berthold Types Limited.
</metadata>
<defs>
<font id="AkzidenzGroteskBQ-Bold" horiz-adv-x="604" >
  <font-face 
    font-family="Akzidenz-Grotesk BQ"
    font-weight="700"
    font-stretch="normal"
    units-per-em="1000"
    panose-1="0 0 0 0 0 0 0 0 0 0"
    ascent="800"
    descent="-200"
    x-height="522"
    cap-height="706"
    bbox="-79 -231 1221 927"
    underline-thickness="110"
    underline-position="-396"
    unicode-range="U+0020-2122"
  />
<missing-glyph horiz-adv-x="500" 
 />
    <glyph glyph-name=".notdef" horiz-adv-x="500" 
 />
    <glyph glyph-name=".null" horiz-adv-x="0" 
 />
    <glyph glyph-name="nonmarkingreturn" horiz-adv-x="333" 
 />
    <glyph glyph-name="space" unicode=" " horiz-adv-x="292" 
 />
    <glyph glyph-name="exclam" unicode="!" horiz-adv-x="292" 
d="M250 502l-48 -259h-67l-45 252v211h160v-204zM250 0h-160v170h160v-170z" />
    <glyph glyph-name="quotedbl" unicode="&#x22;" horiz-adv-x="318" 
d="M292 743l-33 -304h-37l-33 304h103zM130 743l-33 -304h-37l-33 304h103z" />
    <glyph glyph-name="numbersign" unicode="#" horiz-adv-x="667" 
d="M624 405h-109l-12 -95h98v-124h-116l-26 -186h-126l27 186h-99l-26 -186h-124l25 186h-94v124h112l13 95h-100v124h117l25 177h124l-25 -177h100l24 177h125l-24 -177h91v-124zM391 405h-100l-13 -95h99z" />
    <glyph glyph-name="dollar" unicode="$" horiz-adv-x="667" 
d="M623 217q0 -34 -12 -70q-28 -90 -119 -131q-40 -17 -116 -26v-120h-80v120q-35 4 -56 7q-100 16 -171 57q-19 11 -43 28l92 104q89 -47 140 -56q12 -2 38 -4v154q-86 17 -121 30q-120 47 -120 164q0 150 146 200q15 5 31 8.5t26 4.5t22.5 2.5t14.5 1.5v114h81v-115
q38 -4 56 -8q74 -16 167 -73l-88 -102q-36 18 -59 27.5t-34.5 12.5t-41.5 9v-133q71 -17 102 -27q93 -30 125 -94q20 -38 20 -85zM296 437l-1 120q-50 -7 -69 -33q-11 -16 -11 -32q0 -13 6 -23q7 -12 23.5 -18.5t51.5 -13.5zM463 204q0 14 -7 26q-14 24 -80 35v-137l8 2
q8 1 15.5 3t17 6t18.5 10.5t15 14.5q13 17 13 40z" />
    <glyph glyph-name="percent" unicode="%" horiz-adv-x="875" 
d="M847 221q0 -22 -2 -47t-20 -76t-51 -77q-34 -27 -88 -27q-33 0 -59.5 12.5t-42.5 30t-28 44t-17 46.5t-8 45.5t-3 32.5v16q0 80 22.5 133.5t57.5 77.5q36 23 83 22q73 0 116 -65q40 -61 40 -168zM665 679l-376 -721l-79 42l375 721zM345 456q0 -22 -2 -47t-19.5 -76.5
t-50.5 -76.5q-35 -28 -90 -28q-62 0 -101 43q-55 62 -55 187v16t2 30t6.5 42.5t14.5 43t23.5 43.5t36.5 32.5t52 20.5q50 10 93 -14q90 -50 90 -216zM745 222q0 52 -10 94q-12 41 -35 49q-11 3 -17 2q-30 -3 -43 -50q-10 -40 -10 -101q0 -42 8 -80q7 -36 28 -50q10 -7 23 -7
q33 0 47 52q9 39 9 91zM243 456q0 52 -10 94q-12 41 -35 49q-11 3 -17 2q-29 -3 -42 -50q-10 -40 -10 -101q0 -47 7 -80q7 -36 28 -50q10 -7 24 -7q32 0 46 52q9 39 9 91z" />
    <glyph glyph-name="ampersand" unicode="&#x26;" horiz-adv-x="688" 
d="M662 0h-80q-51 0 -82 15q-15 8 -41 32q-28 -16 -42 -23q-68 -31 -146 -31q-95 0 -159 48q-83 61 -83 171q0 46 19.5 87t37.5 60t38 33q19 15 78 42q-46 75 -46 121q0 27 8 51q11 35 36 58.5t55.5 32t47.5 11t34 2.5q110 0 154 -80q18 -33 18 -73q0 -74 -65 -126
q-16 -13 -43 -27q-16 -8 -24 -11q46 -70 57 -85l39 -54q23 50 35 104l125 -46q-20 -60 -32.5 -87.5t-43.5 -80.5q2 -2 4.5 -5t3.5 -5q28 -27 97 -21v-113zM383 560q0 21 -14 32t-35 11q-20 0 -35 -11t-15 -31q0 -11 4.5 -23.5t9 -20t20.5 -32.5q43 23 56 46q9 15 9 29z
M385 146l-121 185l-24 -16q-58 -39 -58 -98q0 -13 5 -30q5 -15 13.5 -29.5t32 -30t54.5 -15.5q38 0 98 34z" />
    <glyph glyph-name="quotesingle" unicode="'" horiz-adv-x="156" 
d="M130 743l-33 -304h-37l-33 304h103z" />
    <glyph glyph-name="parenleft" unicode="(" horiz-adv-x="335" 
d="M344 -95l-54 -70q-5 4 -13.5 10.5t-11.5 8.5q-70 57 -115 112q-119 146 -119 346q0 196 116 351q55 74 138 138l58 -60q-47 -54 -67 -83q-97 -139 -97 -334q0 -132 42.5 -240t122.5 -179z" />
    <glyph glyph-name="parenright" unicode=")" horiz-adv-x="336" 
d="M307 323q0 -197 -117 -352q-51 -67 -138 -137l-58 60q47 53 68 83q96 140 96 334q0 132 -42.5 240.5t-121.5 178.5l54 70q3 -2 24 -19q72 -57 115 -112q120 -149 120 -346z" />
    <glyph glyph-name="asterisk" unicode="*" horiz-adv-x="411" 
d="M394 534l-99 -34l61 -78l-85 -67l-66 85l-61 -85l-87 64l57 79l-98 29l31 104l101 -30v105h108v-105l103 35z" />
    <glyph glyph-name="plus" unicode="+" horiz-adv-x="724" 
d="M632 259h-187v-204h-166v204h-187v130h187v201h166v-201h187v-130z" />
    <glyph glyph-name="comma" unicode="," horiz-adv-x="250" 
d="M205 31q0 -88 -36.5 -134.5t-122.5 -69.5v71q33 12 44.5 36t15.5 66h-61v168h160v-137z" />
    <glyph glyph-name="hyphen" unicode="-" horiz-adv-x="376" 
d="M337 237h-299v143h299v-143z" />
    <glyph glyph-name="period" unicode="." horiz-adv-x="250" 
d="M203 0h-158v167h158v-167z" />
    <glyph glyph-name="slash" unicode="/" horiz-adv-x="479" 
d="M462 706l-304 -706h-142l304 706h142z" />
    <glyph glyph-name="zero" unicode="0" horiz-adv-x="562" 
d="M521 335q0 -199 -93 -291q-61 -59 -153 -59q-86 0 -144 56q-91 89 -91 303q0 152 59 244q14 22 44 52q55 46 130 48q72 4 126 -33q26 -17 42 -37q80 -95 80 -283zM371 334q0 117 -24 175q-25 57 -71 55q-15 -1 -28 -9q-30 -18 -46 -81q-14 -58 -14 -163q0 -66 13 -118
q21 -84 80 -84q29 0 47 20q43 48 43 205z" />
    <glyph glyph-name="one" unicode="1" horiz-adv-x="562" 
d="M393 0h-162v495q-24 -10 -37 -13q-32 -8 -106 -8l1 103l36 3q49 4 90 31q25 18 36 33q6 8 20 34h122v-678z" />
    <glyph glyph-name="two" unicode="2" horiz-adv-x="562" 
d="M502 0h-465v118q14 11 39 30.5t35 27.5q41 34 83 71q70 60 104 110t34 123q0 31 -6 51q-16 43 -63 43q-20 0 -39 -10q-35 -21 -35 -85q0 -18 4 -52l-161 9q-4 113 48 178q62 76 190 76q144 0 201 -95q29 -48 29 -112q0 -105 -81 -200q-57 -67 -181 -159l264 4v-128z" />
    <glyph glyph-name="three" unicode="3" horiz-adv-x="562" 
d="M519 202q-1 -56 -29 -104t-76 -75q-37 -22 -84 -29q-29 -6 -68 -6q-101 0 -163 54q-40 35 -57 91q-11 37 -11 95l156 13q0 -3 -0.5 -11t-0.5 -11q0 -62 34 -89q21 -18 49 -18q18 0 35 6q55 21 55 95q0 33 -20 59t-72 27q-21 0 -32 -1l1 115q39 0 45 1q62 11 62 78
q0 20 -6 35q-18 42 -66 42q-37 0 -55 -28q-14 -22 -14 -70l-158 14q7 71 38 117q61 88 199 88q139 0 193 -85q28 -42 28 -97q0 -74 -50 -117q-9 -8 -23 -15.5t-25.5 -13t-12.5 -5.5q35 -7 53 -18q36 -20 55.5 -56.5t19.5 -80.5z" />
    <glyph glyph-name="four" unicode="4" horiz-adv-x="562" 
d="M534 157h-90v-157h-158v156h-275l2 122l280 400h151v-411h90v-110zM293 527q-30 -60 -101 -162q-11 -16 -33 -49t-33 -49h161v100q0 1 6 160z" />
    <glyph glyph-name="five" unicode="5" horiz-adv-x="562" 
d="M515 235q0 -61 -24 -114q-11 -23 -27 -44t-43 -43t-68.5 -35t-92.5 -13q-23 0 -48 4.5t-61 18t-66 46t-45 81.5q-11 35 -11 77l158 6q0 -83 46 -104q15 -7 35 -7q34 0 57 26q26 31 26 100q0 60 -25 88.5t-61 28.5q-40 0 -60 -30q-7 -10 -11 -23l-138 23l41 355h389
l-9 -128h-256l-17 -123q1 1 8 6t11 7q39 22 89 22q38 0 74 -13q34 -13 60 -36.5t38.5 -47.5t20 -52.5t9 -44.5t1.5 -31z" />
    <glyph glyph-name="six" unicode="6" horiz-adv-x="562" 
d="M528 228q0 -88 -44 -148q-21 -31 -52 -51q-60 -40 -147 -40q-72 0 -127 36q-116 77 -116 298q0 147 38 231q14 30 38 60q67 77 188 77q97 0 153 -59q21 -23 39 -62q9 -21 17 -63l-161 -17q0 46 -21 65q-17 15 -41 15q-17 0 -34 -9q-31 -16 -45 -64q-16 -53 -18 -141
q13 24 27 37q47 42 120 42q74 0 126 -50q60 -57 60 -157zM375 217q0 77 -48 97q-23 8 -38 7q-31 -3 -53 -28t-22 -77q0 -66 33 -93q19 -16 46 -16q21 0 40 11q42 24 42 99z" />
    <glyph glyph-name="seven" unicode="7" horiz-adv-x="562" 
d="M513 555q-59 -71 -99 -136q-56 -93 -92 -209q-31 -99 -44 -210h-186q27 118 59 202q62 159 154 282q16 21 52 63h-323v131h479v-123z" />
    <glyph glyph-name="eight" unicode="8" horiz-adv-x="562" 
d="M519 192q0 -48 -16 -83q-21 -48 -77 -84t-147 -36q-107 0 -172 53q-24 20 -46 59t-22 93q0 91 76 141q12 8 45 21q-21 13 -30 20q-63 51 -63 133q0 40 19 79q51 102 195 102q43 0 80 -11q20 -6 38.5 -16t41 -29.5t36.5 -53t14 -76.5q0 -77 -51 -120q-15 -12 -45 -28
q54 -21 82 -49q42 -45 42 -115zM344 484q0 10 -1 18.5t-6 28.5t-20.5 31.5t-39.5 9.5q-31 -2 -46 -24.5t-15 -54.5q0 -15 4 -32q12 -54 61 -54q26 0 44.5 18t18.5 59zM357 208q0 47 -21 69.5t-49 25.5q-19 1 -39 -7q-47 -21 -47 -89q0 -27 7 -47q20 -51 70 -51q24 0 43 11
q36 22 36 88z" />
    <glyph glyph-name="nine" unicode="9" horiz-adv-x="562" 
d="M518 355q0 -152 -40 -237q-22 -44 -55 -74q-63 -57 -168 -57q-140 0 -191 117q-11 24 -18 69l160 16q0 -46 22 -65q16 -15 40 -15q18 0 34 8q31 17 45 64q15 47 19 141q-5 -10 -13 -20q-48 -59 -134 -59q-60 1 -107 35t-67 90q-13 39 -13 83q0 93 50 155q17 23 46 43
q60 40 147 40q73 0 127 -36q116 -77 116 -298zM346 462q0 66 -33 93q-19 16 -46 16q-21 0 -40 -11q-42 -23 -42 -98q0 -77 48 -97q17 -8 38 -7q31 2 53 27t22 77z" />
    <glyph glyph-name="colon" unicode=":" horiz-adv-x="292" 
d="M246 354h-160v168h160v-168zM246 0h-160v170h160v-170z" />
    <glyph glyph-name="semicolon" unicode=";" horiz-adv-x="292" 
d="M246 354h-160v170h160v-170zM246 12q0 -23 -9 -54q-16 -57 -53.5 -86t-98.5 -43v69q25 9 38.5 24.5t17.5 31.5t6 46h-61v171h160v-159z" />
    <glyph glyph-name="less" unicode="&#x3c;" horiz-adv-x="724" 
d="M578 195l-1 -163l-465 226v151l465 222v-155l-314 -137z" />
    <glyph glyph-name="equal" unicode="=" horiz-adv-x="724" 
d="M625 352h-525v132h525v-132zM625 136h-525v131h525v-131z" />
    <glyph glyph-name="greater" unicode="&#x3e;" horiz-adv-x="724" 
d="M607 253l-465 -222v156l314 137l-315 144l1 163l465 -226v-152z" />
    <glyph glyph-name="question" unicode="?" 
d="M585 533q0 -56 -30 -100q-19 -27 -74 -67q-22 -16 -68 -48q-38 -28 -49 -41q-8 -11 -13 -34l-127 1q0 41 9 65q10 25 32.5 46.5t56.5 44.5t46 33q48 36 48 84q0 15 -3 27q-17 63 -90 63q-63 0 -96 -47q-12 -17 -20 -41q-3 -14 -3 -31l-143 47q23 57 32 72q70 113 243 113
q62 0 110 -15q42 -12 71 -34t43 -47.5t19.5 -47.5t5.5 -43zM368 0h-158v170h158v-170z" />
    <glyph glyph-name="at" unicode="@" horiz-adv-x="851" 
d="M798 421q0 -139 -72 -246.5t-165 -107.5q-76 0 -92 68q-53 -68 -125 -68q-64 0 -101.5 45.5t-37.5 122.5q0 116 65 202t152 86q27 0 48 -9q30 -11 57 -51l10 40h90l-33 -159q-28 -136 -28 -165q0 -28 21 -28q18 0 43 27q38 41 61 106.5t23 133.5q0 99 -60 157t-163 58
q-148 0 -258 -117.5t-110 -275.5q0 -130 82 -207.5t219 -77.5q178 0 327 146l46 -62q-68 -62 -121 -94q-117 -69 -252 -69q-82 0 -157 28.5t-128 78.5q-98 95 -98 254q0 129 61 239t166.5 173.5t229.5 63.5q135 0 217.5 -80.5t82.5 -211.5zM494 346v4q0 38 -18.5 61
t-48.5 23q-46 0 -82.5 -58.5t-36.5 -133.5q0 -40 17 -63t47 -23q45 0 80 53q18 25 30 64.5t12 72.5z" />
    <glyph glyph-name="A" unicode="A" horiz-adv-x="708" 
d="M705 0h-188l-35 113h-260l-35 -113h-188l262 706h184zM442 240l-92 298l-87 -298h179z" />
    <glyph glyph-name="B" unicode="B" horiz-adv-x="708" 
d="M674 197q0 -97 -84 -153q-65 -44 -194 -44h-328v706h290q38 0 56 -1q69 -3 118 -18t81 -58q34 -44 34 -104q0 -103 -92 -145q-21 -9 -59 -17q10 -1 28 -5q100 -18 134 -88q16 -32 16 -73zM474 504q0 50 -46 65q-15 5 -40 5h-152v-147h133q19 0 40 3q47 8 59 41q6 15 6 33
zM495 213q0 62 -49 79q-18 7 -57 7h-153v-171h123q48 0 74 6.5t43 24.5q19 21 19 54z" />
    <glyph glyph-name="C" unicode="C" horiz-adv-x="702" 
d="M682 160q-30 -46 -46 -65q-22 -25 -50.5 -47.5t-86.5 -45.5t-121 -23q-76 0 -144 30q-65 29 -108 79t-60 106.5t-22 91.5t-5 68q0 148 86 252q98 122 256 122q72 0 137.5 -28.5t111.5 -81.5q20 -23 49 -73l-139 -69q-12 25 -23 39q-9 13 -22.5 26.5t-43 27.5t-62.5 14
q-63 0 -107 -42q-67 -62 -67 -183q0 -26 3 -48q15 -119 93 -163q32 -20 78 -20q33 0 59.5 10t45 29t26.5 30t19 30q2 3 3 5z" />
    <glyph glyph-name="D" unicode="D" horiz-adv-x="729" 
d="M699 359q0 -162 -81 -256q-61 -69 -161 -92q-48 -11 -113 -11h-277v706h225q43 0 64 -1q154 -10 234 -76q31 -23 56 -64q53 -83 53 -206zM522 353q0 95 -40 146q-30 36 -69 48q-30 10 -97 10h-71v-415h54q108 0 158 37q65 49 65 174z" />
    <glyph glyph-name="E" unicode="E" horiz-adv-x="646" 
d="M622 0h-554v706h522v-136h-346v-129h323v-134h-323v-168h378v-139z" />
    <glyph glyph-name="F" unicode="F" horiz-adv-x="625" 
d="M609 571h-366v-149h337v-136h-337v-286h-176v706h542v-135z" />
    <glyph glyph-name="G" unicode="G" horiz-adv-x="750" 
d="M704 0h-138v65q-28 -25 -43 -35q-69 -46 -165 -46q-73 0 -136 30q-91 44 -136.5 136.5t-45.5 202.5q0 30 5 63t20 86t53.5 102t95.5 81q77 45 174 45q143 0 250 -95q27 -24 61 -68l-134 -81q-21 36 -45 56q-47 43 -119 43q-58 0 -97 -25q-88 -57 -88 -202q0 -114 49 -174
q16 -20 51 -39q41 -19 85 -19q34 0 61 9q56 20 78 65q8 16 15 58h-158v134h307v-392z" />
    <glyph glyph-name="H" unicode="H" horiz-adv-x="750" 
d="M681 0h-177v301h-258v-301h-178v706h179v-255h257v255h177v-706z" />
    <glyph glyph-name="I" unicode="I" horiz-adv-x="313" 
d="M243 0h-176v706h176v-706z" />
    <glyph glyph-name="J" unicode="J" horiz-adv-x="396" 
d="M331 197v-17.5v-19t-0.5 -17t-1.5 -18.5t-3 -16.5t-4.5 -18t-6.5 -15.5t-9.5 -16t-12.5 -14q-21 -21 -50 -31.5t-50.5 -12t-58.5 -1.5h-118v143h30q78 0 95 19q13 14 13 44v500h177v-509z" />
    <glyph glyph-name="K" unicode="K" horiz-adv-x="708" 
d="M732 0h-199l-188 320l-109 -113v-207h-168v706h168v-288l264 288h213l-250 -262z" />
    <glyph glyph-name="L" unicode="L" horiz-adv-x="542" 
d="M520 0h-452v706h176v-557h276v-149z" />
    <glyph glyph-name="M" unicode="M" horiz-adv-x="917" 
d="M848 0h-170l14 568l-157 -568h-153l-156 568l14 -568h-172v706h258l133 -494l131 494h258v-706z" />
    <glyph glyph-name="N" unicode="N" horiz-adv-x="729" 
d="M660 0h-173l-256 437l6 -437h-170v706h173l258 -443l-7 443h169v-706z" />
    <glyph glyph-name="O" unicode="O" horiz-adv-x="792" 
d="M749 348q0 -83 -35 -163t-99 -132q-91 -74 -222 -74q-153 0 -250 101q-101 106 -101 276q0 130 67 228q98 144 282 144q157 0 252 -98q50 -51 78 -129t28 -153zM572 336q4 111 -45 178q-27 36 -68 53q-32 13 -68 13q-42 0 -79 -20q-50 -28 -73 -83.5t-23 -118.5
q0 -116 59 -179q48 -51 119 -51q72 0 122 53q52 56 56 155z" />
    <glyph glyph-name="P" unicode="P" horiz-adv-x="688" 
d="M672 472q0 -80 -42 -140q-45 -63 -108.5 -82t-159.5 -19h-118v-231h-177v706h350q121 0 184 -55q20 -17 32 -35q39 -60 39 -144zM497 473q0 37 -19 64q-13 18 -36 27t-39.5 10.5t-45.5 1.5h-113v-214h107q44 0 60 3q88 14 86 108z" />
    <glyph glyph-name="Q" unicode="Q" horiz-adv-x="792" 
d="M817 61l-52 -126q-40 7 -63 15q-44 15 -130 79q-55 -27 -91.5 -38t-86.5 -11q-91 0 -169 39q-50 25 -86 64.5t-54 76t-28.5 80.5t-12.5 68t-2 48q0 156 94 261q98 110 258 110q138 0 235 -84q59 -51 90 -127t31 -158q0 -97 -37 -175q-11 -23 -33 -59q23 -20 33 -27
q37 -26 104 -36zM575 355q0 48 -13.5 89.5t-27.5 61.5q-30 45 -73.5 59.5t-76.5 11.5q-54 -3 -92 -33q-38 -29 -56 -81t-18 -107q0 -135 79 -195q44 -33 102 -33q38 0 73 17q36 18 59 50t31.5 68.5t10.5 55.5t2 36z" />
    <glyph glyph-name="R" unicode="R" horiz-adv-x="708" 
d="M690 0h-194l-141 252h-110v-252h-178v706h318q40 0 60 -1q144 -9 199 -110q28 -53 28 -118q0 -91 -55 -144q-14 -14 -33 -26q-21 -11 -57 -25zM496 481q0 94 -102 94h-150v-192h146q27 0 47 7q59 20 59 91z" />
    <glyph glyph-name="S" unicode="S" horiz-adv-x="688" 
d="M652 229q0 -58 -28 -110q-61 -111 -222 -130q-38 -5 -71 -5q-161 0 -266 85q-21 18 -56 59l134 84q26 -26 31 -30q71 -59 173 -59q32 0 55 7q8 2 22.5 7.5t33.5 24.5t19 43q0 13 -5 24t-15.5 18t-20.5 12t-28 9t-29 5.5t-31 4l-28 3.5q-52 6 -100 18q-91 23 -133 74
q-20 23 -30 52q-9 30 -9 62q0 22 4 49q12 67 61 113q78 74 220 74q130 0 233 -70q25 -17 78 -63l-130 -93q-59 58 -119 77q-45 10 -66 10q-50 0 -77.5 -23.5t-27.5 -51.5q0 -22 15 -37q7 -8 15.5 -13t22 -8t23.5 -4.5t32 -4.5t36 -5q52 -8 118 -23q116 -23 152 -109
q14 -36 14 -76z" />
    <glyph glyph-name="T" unicode="T" horiz-adv-x="562" 
d="M552 567h-183v-567h-178v567h-184v139h545v-139z" />
    <glyph glyph-name="U" unicode="U" horiz-adv-x="729" 
d="M665 312q0 -97 -19 -152q-20 -57 -61.5 -96t-90 -54.5t-78.5 -20.5t-55 -5q-27 0 -57 3.5t-83 24.5t-89 57q-46 46 -58 102t-12 141v394h178v-440q0 -49 6.5 -71t26.5 -38q35 -27 94 -27q57 0 87 26q15 14 23 34t9.5 35.5t1.5 41.5v439h177v-394z" />
    <glyph glyph-name="V" unicode="V" horiz-adv-x="667" 
d="M666 706l-245 -706h-180l-242 706h188l146 -502l145 502h188z" />
    <glyph glyph-name="W" unicode="W" horiz-adv-x="979" 
d="M977 706l-179 -706h-182l-127 452l-128 -452h-182l-179 706h177l104 -486l128 486h157l132 -486l103 486h176z" />
    <glyph glyph-name="X" unicode="X" horiz-adv-x="771" 
d="M769 0h-203l-181 267l-183 -267h-202l273 383l-235 323h209l136 -213l138 213h205l-233 -323z" />
    <glyph glyph-name="Y" unicode="Y" horiz-adv-x="708" 
d="M708 706l-267 -372v-334h-174v329l-265 377h202l152 -239l151 239h201z" />
    <glyph glyph-name="Z" unicode="Z" horiz-adv-x="625" 
d="M608 568l-385 -429h383v-139h-601v133l391 436h-358v137h570v-138z" />
    <glyph glyph-name="bracketleft" unicode="[" horiz-adv-x="292" 
d="M275 -144h-224v923h224v-84h-91v-755h91v-84z" />
    <glyph glyph-name="backslash" unicode="\" horiz-adv-x="479" 
d="M462 0h-142l-304 706h142z" />
    <glyph glyph-name="bracketright" unicode="]" horiz-adv-x="292" 
d="M241 -144h-224v84h91v755h-91v84h224v-923z" />
    <glyph glyph-name="asciicircum" unicode="^" horiz-adv-x="724" 
d="M651 281h-165l-118 281l-121 -281h-174l214 425h156z" />
    <glyph glyph-name="underscore" unicode="_" horiz-adv-x="498" 
d="M508 -231h-520v110h520v-110z" />
    <glyph glyph-name="grave" unicode="`" horiz-adv-x="271" 
d="M265 587h-101l-158 133h185z" />
    <glyph glyph-name="a" unicode="a" horiz-adv-x="583" 
d="M526 0h-151v47q-18 -13 -32 -22q-57 -39 -128 -39q-112 0 -154 86q-17 34 -17 73q0 33 13 61t33 46t34 27t27 15q43 19 209 49v29q0 63 -59 63q-56 0 -74 -38q-4 -9 -7 -23h-154v8q1 7 1.5 9.5t1.5 10.5t2.5 12t3.5 12t5 13.5t7 12.5t9.5 14t11.5 13q41 40 118 53
q30 4 67 4q164 0 207 -92q11 -26 11 -58v-305q0 -59 15 -81zM360 250l-99 -33q-12 -4 -18 -7q-48 -20 -48 -58q0 -12 6 -24q17 -29 53 -29q30 0 59 21q30 21 38.5 52t8.5 78z" />
    <glyph glyph-name="b" unicode="b" horiz-adv-x="625" 
d="M590 271q0 -98 -32 -162q-9 -18 -22 -35.5t-36.5 -39t-59 -35t-77.5 -13.5q-72 0 -122 39q-14 11 -30 30l1 -55h-143v706h150v-232q17 18 28 26q49 37 121 37q79 0 139 -52q83 -71 83 -214zM440 267q0 35 -9 71q-4 15 -8 25t-15 27.5t-31.5 26.5t-48.5 7
q-113 -6 -113 -159q0 -73 23 -113q9 -18 30 -33q28 -19 62 -19q54 0 82 44q28 41 28 123z" />
    <glyph glyph-name="c" unicode="c" horiz-adv-x="539" 
d="M524 123q-22 -33 -36 -50q-77 -90 -196 -90q-63 0 -122 29q-137 67 -137 245q0 72 26 132q21 48 54 80.5t69.5 45.5t62 17.5t50.5 4.5q127 0 203 -96q7 -10 20 -30l-114 -65q-4 12 -17 30q-35 43 -85 43q-32 0 -56 -18t-37.5 -52.5t-15.5 -53.5t-2 -33q0 -37 12.5 -74.5
t37.5 -57.5q31 -25 66 -25q54 1 86 47q9 15 15 31z" />
    <glyph glyph-name="d" unicode="d" 
d="M536 0h-140l-1 49q-18 -18 -30 -27q-49 -36 -111 -36q-112 3 -174 92q-49 71 -49 180q0 166 99 239q50 39 119 39q71 0 137 -53v223h150v-706zM390 261q0 81 -26 120q-29 46 -82 39q-43 -6 -68 -44q-27 -40 -27 -115q0 -80 29 -123q26 -38 70 -38q30 0 54 19
q50 40 50 142z" />
    <glyph glyph-name="e" unicode="e" horiz-adv-x="583" 
d="M562 229h-373q0 -22 2 -31q9 -46 40 -72.5t77 -26.5q26 0 50 9q9 3 18 8.5t15.5 10.5t13.5 12t11 12.5t8.5 13t7 11.5t5.5 10l3 6l116 -60q-25 -37 -44 -59q-83 -92 -216 -92q-50 0 -94 14q-84 26 -127 95t-43 161q0 127 67 204q74 83 201 83q136 0 204 -95
q10 -13 17.5 -27.5t13.5 -29.5t10 -28.5t7 -29t5 -26.5t3 -24.5t1 -20.5t0.5 -17t0.5 -11zM403 325q-8 72 -57 93q-21 10 -47 10q-28 0 -50.5 -13t-31.5 -25t-15 -25q-7 -16 -12 -40h213z" />
    <glyph glyph-name="f" unicode="f" horiz-adv-x="354" 
d="M347 416h-102v-416h-153v416h-82v94h82v65q0 47 17 78q18 34 57.5 49t82.5 15q38 0 92 -9v-116q-65 0 -75 -4q-16 -6 -19 -22q-3 -9 -3 -56h103v-94z" />
    <glyph glyph-name="g" unicode="g" 
d="M537 21q0 -14 -2 -42q-9 -82 -72 -123q-67 -43 -185 -43q-123 0 -190 56q-14 12 -23 25q-26 38 -26 106h159q3 -39 20 -57q24 -28 75 -28q46 0 69 21q23 20 23 76l-1 57q-25 -17 -35 -22q-49 -23 -102 -23q-28 0 -55.5 6.5t-57 24t-52 44.5t-37 73t-14.5 104q0 95 39 155
t88 82q41 18 95 18q62 0 110 -32q12 -8 29 -25v48h145v-501zM384 277q0 68 -17 98q-26 43 -86 41q-26 0 -47 -14q-44 -31 -44 -126q0 -14 2 -38q11 -97 96 -97q39 0 61 20q35 32 35 116z" />
    <glyph glyph-name="h" unicode="h" 
d="M537 0h-153v273q0 31 -0.5 45t-9 38t-26.5 36q-19 13 -43 13q-25 0 -46 -14q-23 -16 -30 -44t-7 -87v-260h-154v706h154l1 -239q23 23 30 28q53 41 118 41q80 0 127 -52q17 -19 25 -42q14 -36 14 -99v-343z" />
    <glyph glyph-name="i" unicode="i" horiz-adv-x="292" 
d="M222 587h-153v119h153v-119zM222 0h-153v522h153v-522z" />
    <glyph glyph-name="j" unicode="j" horiz-adv-x="292" 
d="M221 588h-152v118h152v-118zM221 6q0 -20 -2 -56q-6 -69 -42.5 -98.5t-106.5 -29.5q-22 0 -70 2l1 122q52 -3 62 18q6 11 6 55v503h152v-516z" />
    <glyph glyph-name="k" unicode="k" horiz-adv-x="583" 
d="M595 0h-178l-134 225l-66 -63v-162h-150v706h151v-363l169 179h185l-180 -186z" />
    <glyph glyph-name="l" unicode="l" horiz-adv-x="292" 
d="M222 0h-153v706h153v-706z" />
    <glyph glyph-name="m" unicode="m" horiz-adv-x="896" 
d="M828 0h-153v274q0 85 -14 107q-18 30 -58 30q-47 0 -68 -37q-11 -19 -11 -90v-284h-153v310q0 38 -6.5 57t-23.5 30q-19 13 -45 13q-27 0 -44 -13q-33 -25 -33 -99v-298h-152v522h152l1 -54q14 17 26 27q51 41 121 41q64 0 104 -25q16 -10 42 -36q22 18 37 28
q54 33 118 33q90 0 134 -57q17 -22 21.5 -49t4.5 -90v-340z" />
    <glyph glyph-name="n" unicode="n" 
d="M535 0h-154v295q0 58 -6 75q-16 42 -70 42q-33 0 -52 -16q-18 -14 -23.5 -38.5t-5.5 -75.5v-282h-154v521h156v-45q20 20 24 23q49 36 123 36q54 0 93 -21q43 -23 56 -60.5t13 -96.5v-357z" />
    <glyph glyph-name="o" unicode="o" horiz-adv-x="625" 
d="M593 261q0 -139 -92 -216q-73 -61 -189 -61q-23 0 -50 3.5t-74.5 21.5t-80.5 50q-75 73 -75 203q0 113 61 186q83 99 240 89q100 -5 164 -56q47 -39 71.5 -97t24.5 -123zM437 256q0 102 -55 140q-28 20 -76 20q-33 0 -58 -15q-24 -14 -42.5 -49.5t-18.5 -88.5
q0 -62 27 -105q34 -51 100 -51q60 0 91.5 43t31.5 106z" />
    <glyph glyph-name="p" unicode="p" 
d="M575 262q-1 -104 -48 -178q-35 -53 -82 -75q-40 -19 -97 -19q-38 0 -63.5 10t-64.5 34v-215h-156v703h137l1 -51q13 17 22 23q48 40 124 40q95 0 157 -66q70 -74 70 -206zM427 264q0 85 -36 128q-19 23 -46 30q-10 3 -22 3q-46 0 -78 -42.5t-32 -122.5q0 -77 27 -117
q13 -18 30 -28q20 -14 49 -14q53 0 83 54q25 46 25 109z" />
    <glyph glyph-name="q" unicode="q" 
d="M536 -180h-154l-1 217q-18 -14 -28 -20q-48 -28 -106 -28q-59 0 -109 32t-77 86q-15 32 -22 65q-8 34 -8 83q0 116 53 192q30 42 75.5 65.5t97.5 23.5q43 0 73 -13.5t66 -45.5v45h140v-702zM393 266q0 72 -25.5 112.5t-65.5 46.5q-54 7 -90 -43q-29 -43 -29 -119
q0 -31 9 -67q31 -93 96 -93q45 0 75 42.5t30 120.5z" />
    <glyph glyph-name="r" unicode="r" horiz-adv-x="375" 
d="M367 392l-51 -8q-40 -8 -48 -11q-29 -10 -38.5 -28.5t-9.5 -50.5v-294h-153v522h149v-54q32 27 61 39q38 16 90 21v-136z" />
    <glyph glyph-name="s" unicode="s" horiz-adv-x="521" 
d="M497 169q0 -51 -25 -87q-32 -48 -93.5 -72t-127.5 -24q-107 0 -191 52q-24 15 -62 49l98 88q18 -18 28 -25q59 -47 124 -47q17 0 38 5q54 12 54 47q-1 22 -22 31t-68 16q-8 1 -13 2q-82 14 -124 35t-62 60q-16 32 -16 65q0 40 22 78q22 39 71 68t128 29q101 0 189 -50
q24 -14 43 -28l-95 -88q-18 14 -28 20q-53 32 -103 32q-28 0 -49 -9q-24 -11 -24 -31q0 -15 14 -25q7 -4 19.5 -8t30 -7t20.5 -4l69 -15q155 -34 155 -157z" />
    <glyph glyph-name="t" unicode="t" horiz-adv-x="354" 
d="M341 415h-102v-234q0 -35 4 -42q9 -17 36 -17q9 0 27 0.5t27 0.5v-119q-40 -8 -81 -8q-22 0 -32 1q-65 5 -95 32q-19 16 -27.5 42.5t-9.5 42t-1 51.5v251h-76v94h76v163h152v-164h102v-94z" />
    <glyph glyph-name="u" unicode="u" 
d="M534 0h-154v49q-15 -16 -23 -23q-52 -41 -129 -41q-70 0 -111 32q-9 7 -16 15.5t-12 16t-9 19t-6.5 19t-4.5 21.5t-3 20t-1.5 22t-0.5 20.5v21.5v19v311h155v-325q0 -30 5 -46.5t24 -28.5q22 -12 45 -12q33 0 54.5 14.5t27.5 32.5q6 16 6 40v325h153v-522z" />
    <glyph glyph-name="v" unicode="v" horiz-adv-x="500" 
d="M499 522l-169 -522h-161l-170 522h163l93 -354l86 354h158z" />
    <glyph glyph-name="w" unicode="w" horiz-adv-x="792" 
d="M790 522l-156 -522h-167l-77 348l-78 -348h-169l-143 522h162l73 -365l79 365h164l72 -368l81 368h159z" />
    <glyph glyph-name="x" unicode="x" horiz-adv-x="521" 
d="M520 0h-164l-99 162l-87 -162h-170l177 283l-158 239h174l69 -133l74 133h165l-158 -244z" />
    <glyph glyph-name="y" unicode="y" horiz-adv-x="500" 
d="M500 522l-184 -564q-22 -66 -51 -98q-23 -24 -47.5 -32t-61.5 -8h-111v123h70q25 0 36.5 11t11.5 27t-11 50q-10 32 -15 49l-137 442h164l86 -374l86 374h164z" />
    <glyph glyph-name="z" unicode="z" horiz-adv-x="542" 
d="M511 0h-477v115l282 289h-252v118h447v-118l-278 -285h278v-119z" />
    <glyph glyph-name="braceleft" unicode="{" horiz-adv-x="317" 
d="M305 -148h-64q-50 0 -73.5 7t-41.5 28q-15 17 -22 43q-7 31 -7 83v155q0 54 -10 72q-16 28 -76 34v87q37 2 56 14q18 10 24 29t6 63v154q0 56 7 83q7 26 22 43q19 20 42.5 27.5t71.5 7.5h64v-84h-16q-28 0 -41 -16q-9 -9 -12 -21q-4 -21 -4 -71v-139q0 -62 -17 -89
t-66 -46q31 -9 48 -24q20 -17 27.5 -41t7.5 -69v-138q0 -52 5 -71q10 -38 57 -38h12v-83z" />
    <glyph glyph-name="bar" unicode="|" horiz-adv-x="256" 
d="M194 -143h-133v922h133v-922z" />
    <glyph glyph-name="braceright" unicode="}" horiz-adv-x="317" 
d="M306 273q-37 -4 -57 -15q-17 -10 -23.5 -29t-6.5 -62l1 -155q0 -56 -7 -82q-6 -25 -23 -44q-18 -20 -41.5 -27.5t-71.5 -7.5h-65v84h16q29 0 42 16q8 9 11 22q4 15 4 70v139q0 62 17 89t66 46q-27 8 -47 24q-20 17 -28 41t-8 69v138q0 56 -4 71q-11 38 -57 38h-12v84
l64 -1q51 -1 73.5 -7.5t40.5 -27.5q17 -18 23 -43q7 -26 7 -83l-1 -155q0 -53 11 -72q16 -29 76 -34v-86z" />
    <glyph glyph-name="asciitilde" unicode="~" horiz-adv-x="724" 
d="M654 306q-38 -47 -73 -70q-45 -29 -92 -29q-42 0 -121 38l-35 17q-63 30 -104 30q-18 0 -33 -6q-34 -13 -70 -61l-9 -12l-47 132q30 41 54 61q45 39 105 39q41 0 121 -36l57 -26q55 -25 79 -25q35 0 66 23q21 15 56 55z" />
    <glyph glyph-name="exclamdown" unicode="&#xa1;" horiz-adv-x="292" 
d="M200 538h-159v168h159v-168zM200 0h-159v205l47 260h67l45 -253v-212z" />
    <glyph glyph-name="cent" unicode="&#xa2;" horiz-adv-x="542" 
d="M530 123q-12 -20 -20.5 -31.5t-27 -33t-43.5 -37t-56 -25.5q-11 -3 -40 -9v-119h-76v117q-101 11 -155 65t-71 121q-9 35 -9 80q-1 102 42 169t112 96q33 13 81 17v112h77v-113q69 -11 109.5 -43t72.5 -78l-114 -66q-19 34 -33 47t-35 19v-302q23 6 39 21.5t33 51.5z
M267 113v298q-34 -14 -55.5 -56t-20.5 -99q1 -78 42 -119q14 -14 34 -24z" />
    <glyph glyph-name="sterling" unicode="&#xa3;" horiz-adv-x="688" 
d="M660 226q-2 -45 -5 -72t-16 -65.5t-37 -61.5q-33 -33 -86 -33q-29 0 -62 13t-50 23.5t-54 35.5q-9 -13 -27 -30q-58 -51 -149 -51q-27 0 -50 5q-108 27 -108 117q0 23 9 44q15 33 54 57.5t103 24.5q24 0 63 -5q-20 40 -42 71h-145v98h77q-6 8 -8 12q-28 48 -28 102
q0 89 82 141q68 44 199 44q135 0 195 -62q52 -53 52 -167l-153 -11q0 36 -9 63q-19 54 -94 54q-69 0 -93 -41q-11 -16 -11 -40q0 -18 8 -37t14.5 -28.5t21.5 -29.5h156v-98h-90q26 -49 26 -96q0 -12 -4 -43q3 -2 9 -6.5t9 -6.5q29 -23 48 -23q27 0 39 28q8 21 11 85z
M248 134q-45 18 -67 18q-27 0 -41.5 -13t-14.5 -28q1 -18 14.5 -28.5t32.5 -10.5q39 2 61 31q15 21 15 31z" />
    <glyph glyph-name="currency" unicode="&#xa4;" horiz-adv-x="687" 
d="M659 570l-80 -79q45 -75 45 -152q0 -81 -46 -153l80 -81l-84 -83l-80 81q-75 -45 -151 -45q-80 0 -152 46l-80 -80l-83 83l81 80q-47 66 -47 151q0 82 46 153l-78 79l83 83l78 -78q67 45 154 45q77 0 150 -45l80 79zM469 337q0 56 -36 94t-89 38t-89.5 -37.5t-36.5 -92.5
t36.5 -92t90.5 -37q52 0 88 37t36 90z" />
    <glyph glyph-name="yen" unicode="&#xa5;" horiz-adv-x="708" 
d="M708 692l-173 -236h85v-108h-164l-15 -21v-48h179v-108h-179v-171h-174v171h-180v108h180v43l-19 26h-161v108h84l-169 236h202l152 -236l151 236h201z" />
    <glyph glyph-name="brokenbar" unicode="&#xa6;" horiz-adv-x="256" 
d="M194 376h-134v402h134v-402zM194 -144h-134v401h134v-401z" />
    <glyph glyph-name="section" unicode="&#xa7;" 
d="M587 255q0 -89 -98 -162q34 -46 34 -85q0 -30 -17 -62q-25 -44 -71.5 -66.5t-100.5 -22.5q-132 0 -281 92l97 80q91 -60 171 -60q19 0 37 7.5t18 24.5q0 19 -36.5 39t-88.5 41.5t-104.5 48t-89 70t-36.5 96.5q0 91 101 153q-38 44 -38 89q0 48 30 86q52 66 166 66
q71 0 133 -21.5t139 -64.5l-97 -79q-102 53 -168 53q-54 0 -54 -29q0 -6 2 -11t6.5 -9.5l7.5 -7.5t10.5 -7t10.5 -5.5t11.5 -5t9.5 -3.5q60 -28 91 -42q99 -46 133 -71q72 -55 72 -132zM448 229q0 16 -9 30t-29 27t-31.5 20t-39 19t-29.5 13q-36 17 -106 53q-45 -28 -45 -69
q0 -28 25 -51q16 -15 115 -59q51 -23 108 -56q41 39 41 73z" />
    <glyph glyph-name="dieresis" unicode="&#xa8;" horiz-adv-x="271" 
d="M340 597h-158v124h158v-124zM88 597h-157v124h157v-124z" />
    <glyph glyph-name="copyright" unicode="&#xa9;" horiz-adv-x="823" 
d="M768 361q0 -155 -102 -259t-255 -104q-148 0 -251.5 104t-103.5 252t104 252t252 104q146 0 251 -102.5t105 -246.5zM719 347q0 136 -88 228.5t-219 92.5q-127 0 -217 -92t-90 -223q0 -130 89 -221.5t217 -91.5q126 0 217 91t91 216zM586 200l-29 -29q-51 -51 -140 -51
q-96 0 -156.5 66t-60.5 170q0 102 61 167.5t156 65.5q53 0 91.5 -18.5t77.5 -61.5l-69 -80q-27 31 -48 42t-52 11q-46 0 -74 -34.5t-28 -91.5q0 -56 28 -90t74 -34q28 0 48.5 11t48.5 40z" />
    <glyph glyph-name="ordfeminine" unicode="&#xaa;" horiz-adv-x="333" 
d="M296 432h-85q-1 7 -1 17v7q-38 -29 -78 -29q-50 0 -72.5 26.5t-22.5 57.5q0 34 24 58q7 7 16.5 13t16.5 9.5t19.5 6.5t17.5 4t18.5 3.5t15.5 2.5q12 2 25 5t16 4v7q0 34 -36 34q-32 0 -37 -32h-85q0 22 9 40q25 50 109 50q83 0 111 -44q9 -14 9 -38v-174q0 -14 10 -28z
M205 562q-9 -2 -25.5 -7t-24.5 -8q-34 -11 -34 -32q0 -9 6.5 -17t21.5 -8q56 0 56 72z" />
    <glyph glyph-name="guillemotleft" unicode="&#xab;" horiz-adv-x="417" 
d="M378 100l-158 130v125l158 134v-138l-68 -57l68 -57v-137zM192 100l-160 131v124l160 134v-138l-65 -57l65 -57v-137z" />
    <glyph glyph-name="logicalnot" unicode="&#xac;" horiz-adv-x="724" 
d="M634 24h-166v232h-400v134h566v-366z" />
    <glyph glyph-name="registered" unicode="&#xae;" horiz-adv-x="823" 
d="M768 361q0 -155 -102 -259t-255 -104q-148 0 -251.5 104t-103.5 252t104 252t252 104q146 0 251 -102.5t105 -246.5zM719 347q0 136 -88 228.5t-219 92.5q-127 0 -217 -92t-90 -223q0 -130 89 -221.5t217 -91.5q126 0 217 91t91 216zM597 134h-118l-60 161h-52v-161h-107
v446h133q101 0 140 -25q59 -37 59 -119q0 -44 -18 -73t-59 -50zM480 436q0 53 -59 53h-55v-108h56q32 0 45 12.5t13 42.5z" />
    <glyph glyph-name="macron" unicode="&#xaf;" horiz-adv-x="271" 
d="M340 597h-409v101h409v-101z" />
    <glyph glyph-name="degree" unicode="&#xb0;" horiz-adv-x="354" 
d="M349 582q0 -70 -50.5 -121t-121.5 -51t-121.5 51t-50.5 121q0 72 50 122.5t122 50.5t122 -50.5t50 -122.5zM249 582q0 30 -21 50.5t-51 20.5t-51 -20.5t-21 -50.5q0 -29 21.5 -50.5t50.5 -21.5t50.5 21.5t21.5 50.5z" />
    <glyph glyph-name="plusminus" unicode="&#xb1;" horiz-adv-x="724" 
d="M632 375h-187v-191h-167v191h-186v130h187v184h166v-184h187v-130zM632 0h-540v132h540v-132z" />
    <glyph glyph-name="twosuperior" unicode="&#xb2;" horiz-adv-x="375" 
d="M336 235h-308v82q129 100 161 142t32 89q0 21 -10.5 38t-32.5 18q-24 1 -36 -18.5t-12 -42.5q0 -5 1 -12.5t2 -12.5l1 -6l-110 6q0 170 149 170q45 0 78.5 -14t50 -37.5t24 -47t7.5 -47.5q0 -64 -40.5 -112t-120.5 -107h164v-88z" />
    <glyph glyph-name="threesuperior" unicode="&#xb3;" horiz-adv-x="375" 
d="M348 369q0 -56 -41.5 -99t-129.5 -42q-155 4 -155 146v16l107 8q-2 -14 -2 -20q0 -32 17 -48.5t37 -16.5q26 0 41.5 17t15.5 42q0 24 -15.5 41.5t-51.5 17.5h-14v80q12 -2 20 -2q9 0 18.5 2.5t20.5 14t11 31.5q0 26 -15.5 37t-30.5 11q-43 0 -43 -55v-10l-107 10
q4 22 8 37.5t15 36.5t27 33.5t44 21.5t65 9q71 0 107 -34.5t36 -81.5q0 -53 -35 -82q-5 -4 -13 -8t-13 -6l-6 -3q30 -10 36 -14q46 -31 46 -90z" />
    <glyph glyph-name="acute" unicode="&#xb4;" horiz-adv-x="271" 
d="M263 719l-153 -133h-102l73 133h182z" />
    <glyph glyph-name="mu" unicode="&#xb5;" horiz-adv-x="587" 
d="M576 0q-36 -12 -86 -12q-42 0 -67 18t-40 60q-14 -41 -35 -58t-56 -17q-59 0 -87 58l3 -265h-153v737h153v-234q0 -81 7 -113q14 -59 72 -59q55 0 70 59q4 19 6 41q3 30 3 92v214h153v-351q0 -30 7 -42.5t24 -12.5q10 0 26 7v-122z" />
    <glyph glyph-name="paragraph" unicode="&#xb6;" horiz-adv-x="639" 
d="M547 623h-36v-790h-88v790h-113v-790h-89v468q-29 7 -43 13q-52 21 -82 69.5t-30 112.5q0 97 63 155q23 23 56 37q44 18 123 18h239v-83z" />
    <glyph glyph-name="periodcentered" unicode="&#xb7;" horiz-adv-x="235" 
d="M198 206h-161v167h161v-167z" />
    <glyph glyph-name="cedilla" unicode="&#xb8;" horiz-adv-x="271" 
d="M234 -115h-1q0 -19 -7 -33q-12 -24 -37 -36.5t-52 -12.5q-43 0 -77 29q-4 3 -23 22l28 23q26 -32 54 -32q14 0 25 9t11 23q0 20 -17 30t-38 10q-7 0 -28 -4l-13 18l33 60h47l-22 -45q19 3 40 3q40 0 58.5 -20t18.5 -44z" />
    <glyph glyph-name="onesuperior" unicode="&#xb9;" horiz-adv-x="375" 
d="M265 235h-110v317q-39 -12 -93 -12h-14v73q57 1 85 15t47 49h85v-442z" />
    <glyph glyph-name="ordmasculine" unicode="&#xba;" horiz-adv-x="354" 
d="M321 571q0 -68 -39 -108t-107 -40q-22 0 -43.5 5.5t-46.5 20t-40 46t-15 76.5q0 65 37.5 104.5t103.5 40.5q55 2 91 -23q59 -39 59 -122zM237 569q0 39 -17 59t-43 20q-20 0 -32 -7q-31 -18 -31 -75q1 -31 16.5 -53.5t48.5 -21.5q58 1 58 78z" />
    <glyph glyph-name="guillemotright" unicode="&#xbb;" horiz-adv-x="417" 
d="M382 231l-159 -135v138l64 58l-64 57v136l159 -131v-123zM195 231l-159 -135v138l68 58l-68 57v136l159 -129v-125z" />
    <glyph glyph-name="onequarter" unicode="&#xbc;" horiz-adv-x="875" 
d="M858 98h-59v-98h-106v98h-182v84l185 259h104v-265h58v-78zM665 679l-376 -721l-79 42l375 721zM265 235h-110v317q-39 -12 -93 -12h-14v73q57 1 85 15t47 49h85v-442zM693 176v150q-44 -74 -99 -150h99z" />
    <glyph glyph-name="onehalf" unicode="&#xbd;" horiz-adv-x="875" 
d="M835 0h-307v82q130 101 160 141q33 43 33 89q0 21 -10.5 38t-32.5 18q-25 1 -37 -18.5t-12 -41.5t5 -32l-111 6q0 170 150 170q45 0 78.5 -14t50 -37.5t24 -46.5t7.5 -47q0 -64 -40.5 -112t-121.5 -107h164v-88zM641 679l-376 -721l-79 42l375 721zM265 235h-110v317
q-39 -12 -93 -12h-14v73q57 1 85 15t47 49h85v-442z" />
    <glyph glyph-name="threequarters" unicode="&#xbe;" horiz-adv-x="875" 
d="M858 98h-59v-98h-106v98h-182v84l185 259h104v-265h58v-78zM694 679l-376 -721l-79 42l375 721zM348 369q0 -56 -41.5 -99t-129.5 -42q-155 4 -155 146v16l107 8q-2 -14 -2 -20q0 -32 17 -48.5t37 -16.5q26 0 41.5 17t15.5 42q0 24 -15.5 41.5t-51.5 17.5h-14v80
q12 -2 20 -2q9 0 18.5 2.5t20.5 14t11 31.5q0 26 -15.5 37t-30.5 11q-43 0 -43 -55v-10l-107 10q4 22 8 37.5t15 36.5t27 33.5t44 21.5t65 9q71 0 107 -34.5t36 -81.5q0 -53 -35 -82q-5 -4 -13 -8t-13 -6l-6 -3q30 -10 36 -14q46 -31 46 -90zM693 176v150q-44 -74 -99 -150
h99z" />
    <glyph glyph-name="questiondown" unicode="&#xbf;" 
d="M394 539h-158v167h158v-167zM543 174q-23 -57 -32 -72q-70 -113 -243 -113q-62 0 -110 15q-42 12 -71 34t-43 47.5t-19.5 47.5t-5.5 43q0 56 30 100q19 27 74 67q22 16 68 48q38 28 49 41q8 11 13 34l127 -1q0 -41 -9 -65q-10 -25 -32.5 -46.5t-56.5 -44.5t-46 -33
q-48 -36 -49 -84q0 -11 4 -27q17 -63 90 -63q63 0 96 47q12 17 20 41q3 14 3 31z" />
    <glyph glyph-name="Agrave" unicode="&#xc0;" horiz-adv-x="708" 
d="M415 782h-101l-146 116h184zM705 0h-188l-35 113h-260l-35 -113h-188l262 706h184zM442 240l-92 298l-87 -298h179z" />
    <glyph glyph-name="Aacute" unicode="&#xc1;" horiz-adv-x="708" 
d="M536 897l-145 -115h-96l61 115h180zM705 0h-188l-35 113h-260l-35 -113h-188l262 706h184zM442 240l-92 298l-87 -298h179z" />
    <glyph glyph-name="Acircumflex" unicode="&#xc2;" horiz-adv-x="708" 
d="M510 779h-117l-40 51l-38 -51h-116l90 115h133zM705 0h-188l-35 113h-260l-35 -113h-188l262 706h184zM442 240l-92 298l-87 -298h179z" />
    <glyph glyph-name="Atilde" unicode="&#xc3;" horiz-adv-x="708" 
d="M538 898q-3 -26 -6.5 -41.5t-13.5 -36t-27 -33.5q-24 -18 -51 -18q-29 0 -92 28q-40 19 -61 19q-28 0 -36 -42h-68q1 9 5 32q9 53 47 78q25 17 53 17q30 0 82 -23q41 -19 59 -19q7 0 13 2.5t10 6.5t7.5 9t5 9t3.5 8l1 4h69zM705 0h-188l-35 113h-260l-35 -113h-188
l262 706h184zM442 240l-92 298l-87 -298h179z" />
    <glyph glyph-name="Adieresis" unicode="&#xc4;" horiz-adv-x="708" 
d="M542 778h-161v117h161v-117zM320 778h-160v117h160v-117zM705 0h-188l-35 113h-260l-35 -113h-188l262 706h184zM442 240l-92 298l-87 -298h179z" />
    <glyph glyph-name="Aring" unicode="&#xc5;" horiz-adv-x="708" 
d="M447 829q0 -40 -29 -69t-69 -29t-69 29t-29 69t29 69t69 29t69 -29t29 -69zM705 0h-188l-35 113h-260l-35 -113h-188l262 706h184zM389 830q0 16 -11.5 27.5t-27.5 11.5q-17 -1 -28 -12.5t-11 -27.5q0 -18 12 -27q8 -11 27 -11q16 0 27.5 11.5t11.5 27.5zM442 240
l-92 298l-87 -298h179z" />
    <glyph glyph-name="AE" unicode="&#xc6;" horiz-adv-x="1125" 
d="M1106 0h-571v171h-247l-95 -171h-198l417 706h660v-134h-361v-131h337v-135h-336v-168h394v-138zM535 301v316l-176 -316h176z" />
    <glyph glyph-name="Ccedilla" unicode="&#xc7;" horiz-adv-x="702" 
d="M682 161q-32 -50 -54 -74q-52 -55 -118.5 -81.5t-130.5 -26.5h-9l-15 -33q22 3 39 3q40 0 58 -19.5t18 -45.5q0 -37 -30.5 -59t-65.5 -22q-55 0 -99 51l28 23q29 -32 53 -32q15 0 25.5 8.5t10.5 23.5q0 17 -15.5 28.5t-41.5 11.5q-16 -2 -26 -4l-12 18l28 52
q-75 15 -120 41q-41 24 -72 57t-48 71t-27.5 68t-14 66t-4 44t-0.5 23q0 107 43 188q17 33 40.5 62.5t59.5 59t87.5 47.5t111.5 18q156 0 252 -115q24 -27 46 -68l-139 -70q-14 29 -23 41q-50 67 -128 67q-62 0 -103.5 -39t-56 -87t-14.5 -99q0 -113 50 -172t124 -59
q32 0 57.5 9.5t44 28t28.5 31.5t23 35z" />
    <glyph glyph-name="Egrave" unicode="&#xc8;" horiz-adv-x="646" 
d="M410 782h-101l-146 116h183zM622 0h-554v706h522v-136h-346v-129h323v-134h-323v-168h378v-139z" />
    <glyph glyph-name="Eacute" unicode="&#xc9;" horiz-adv-x="646" 
d="M494 897l-144 -115h-97l61 115h180zM622 0h-554v706h522v-136h-346v-129h323v-134h-323v-168h378v-139z" />
    <glyph glyph-name="Ecircumflex" unicode="&#xca;" horiz-adv-x="646" 
d="M478 779h-116l-40 51l-38 -51h-116l89 115h133zM622 0h-554v706h522v-136h-346v-129h323v-134h-323v-168h378v-139z" />
    <glyph glyph-name="Edieresis" unicode="&#xcb;" horiz-adv-x="646" 
d="M514 782h-161v116h161v-116zM291 781h-160v117h160v-117zM622 0h-554v706h522v-136h-346v-129h323v-134h-323v-168h378v-139z" />
    <glyph glyph-name="Igrave" unicode="&#xcc;" horiz-adv-x="313" 
d="M217 782h-101l-146 116h184zM243 0h-176v706h176v-706z" />
    <glyph glyph-name="Iacute" unicode="&#xcd;" horiz-adv-x="313" 
d="M338 897l-144 -115h-97l61 115h180zM243 0h-176v706h176v-706z" />
    <glyph glyph-name="Icircumflex" unicode="&#xce;" horiz-adv-x="313" 
d="M312 779h-117l-40 51l-38 -51h-116l90 115h133zM243 0h-176v706h176v-706z" />
    <glyph glyph-name="Idieresis" unicode="&#xcf;" horiz-adv-x="313" 
d="M347 782h-160v116h160v-116zM125 781h-161v117h161v-117zM243 0h-176v706h176v-706z" />
    <glyph glyph-name="Eth" unicode="&#xd0;" horiz-adv-x="729" 
d="M699 353q-1 -57 -13 -107.5t-37.5 -98.5t-73.5 -83.5t-115 -51.5q-49 -12 -116 -12h-277v341h-67v79h67v286h225q44 0 74 -1.5t77 -10t81.5 -24t70.5 -46t60 -73.5q45 -81 44 -198zM522 355q0 142 -95 187q-32 15 -95 15h-87v-137h174v-79h-174v-199h53q116 0 165 42
q59 50 59 171z" />
    <glyph glyph-name="Ntilde" unicode="&#xd1;" horiz-adv-x="729" 
d="M548 898q-3 -28 -6 -42.5t-13.5 -35t-27.5 -33.5q-23 -18 -50 -18q-33 0 -93 28q-43 19 -60 19q-29 0 -37 -42h-68q1 5 2.5 16t2.5 16q14 56 47 78q25 17 53 17q32 0 82 -23q41 -19 59 -19q30 0 40 39h69zM660 0h-173l-256 437l6 -437h-170v706h173l258 -443l-7 443h169
v-706z" />
    <glyph glyph-name="Ograve" unicode="&#xd2;" horiz-adv-x="792" 
d="M462 782h-101l-146 116h184zM749 348q0 -83 -35 -163t-99 -132q-91 -74 -222 -74q-153 0 -250 101q-101 106 -101 276q0 130 67 228q98 144 282 144q157 0 252 -98q50 -51 78 -129t28 -153zM572 336q4 111 -45 178q-27 36 -68 53q-32 13 -68 13q-42 0 -79 -20
q-50 -28 -73 -83.5t-23 -118.5q0 -116 59 -179q48 -51 119 -51q72 0 122 53q52 56 56 155z" />
    <glyph glyph-name="Oacute" unicode="&#xd3;" horiz-adv-x="792" 
d="M572 897l-144 -115h-97l61 115h180zM749 348q0 -83 -35 -163t-99 -132q-91 -74 -222 -74q-153 0 -250 101q-101 106 -101 276q0 130 67 228q98 144 282 144q157 0 252 -98q50 -51 78 -129t28 -153zM572 336q4 111 -45 178q-27 36 -68 53q-32 13 -68 13q-42 0 -79 -20
q-50 -28 -73 -83.5t-23 -118.5q0 -116 59 -179q48 -51 119 -51q72 0 122 53q52 56 56 155z" />
    <glyph glyph-name="Ocircumflex" unicode="&#xd4;" horiz-adv-x="792" 
d="M551 779h-116l-40 51l-39 -51h-115l89 115h133zM749 348q0 -83 -35 -163t-99 -132q-91 -74 -222 -74q-153 0 -250 101q-101 106 -101 276q0 130 67 228q98 144 282 144q157 0 252 -98q50 -51 78 -129t28 -153zM572 336q4 111 -45 178q-27 36 -68 53q-32 13 -68 13
q-42 0 -79 -20q-50 -28 -73 -83.5t-23 -118.5q0 -116 59 -179q48 -51 119 -51q72 0 122 53q52 56 56 155z" />
    <glyph glyph-name="Otilde" unicode="&#xd5;" horiz-adv-x="792" 
d="M579 898q-4 -39 -13 -65.5t-34 -45.5q-22 -18 -50 -18q-33 0 -93 28q-43 19 -60 19q-29 0 -37 -42h-67q2 20 5 32q9 52 46 78q25 17 53 17q32 0 82 -23q41 -19 59 -19q30 0 40 39h69zM749 348q0 -83 -35 -163t-99 -132q-91 -74 -222 -74q-153 0 -250 101
q-101 106 -101 276q0 130 67 228q98 144 282 144q157 0 252 -98q50 -51 78 -129t28 -153zM572 336q4 111 -45 178q-27 36 -68 53q-32 13 -68 13q-42 0 -79 -20q-50 -28 -73 -83.5t-23 -118.5q0 -116 59 -179q48 -51 119 -51q72 0 122 53q52 56 56 155z" />
    <glyph glyph-name="Odieresis" unicode="&#xd6;" horiz-adv-x="792" 
d="M588 780h-162v116h162v-116zM365 780h-160v116h160v-116zM749 348q0 -83 -35 -163t-99 -132q-91 -74 -222 -74q-153 0 -250 101q-101 106 -101 276q0 130 67 228q98 144 282 144q157 0 252 -98q50 -51 78 -129t28 -153zM572 336q4 111 -45 178q-27 36 -68 53
q-32 13 -68 13q-42 0 -79 -20q-50 -28 -73 -83.5t-23 -118.5q0 -116 59 -179q48 -51 119 -51q72 0 122 53q52 56 56 155z" />
    <glyph glyph-name="multiply" unicode="&#xd7;" horiz-adv-x="724" 
d="M616 198l-114 -120l-148 141l-129 -135l-94 90l129 135l-146 139l115 120l145 -139l129 136l95 -90l-130 -135z" />
    <glyph glyph-name="Oslash" unicode="&#xd8;" horiz-adv-x="771" 
d="M772 649l-94 -86q3 -5 8.5 -16t8.5 -16q36 -74 36 -175q0 -131 -60 -223q-20 -31 -50 -60q-52 -51 -113 -73q-57 -20 -125 -20q-44 0 -80 9q-80 19 -159 90l-93 -85l-54 60l97 88l-21 39q-35 75 -35 174q0 53 13 105q24 100 96 172q55 55 126 78q53 17 120 17
q98 0 177 -52q26 -16 59 -48l89 81zM513 524q-15 16 -23 23q-46 39 -101 39q-70 0 -118 -48q-62 -64 -62 -182q0 -41 11 -99zM565 347q0 40 -15 100l-290 -264q1 -1 4.5 -5t7.5 -8t9 -8q47 -38 113 -38q73 0 124 66q47 63 47 157z" />
    <glyph glyph-name="Ugrave" unicode="&#xd9;" horiz-adv-x="729" 
d="M436 782h-101l-146 116h184zM665 312q0 -97 -19 -152q-20 -57 -61.5 -96t-90 -54.5t-78.5 -20.5t-55 -5q-27 0 -57 3.5t-83 24.5t-89 57q-46 46 -58 102t-12 141v394h178v-440q0 -49 6.5 -71t26.5 -38q35 -27 94 -27q57 0 87 26q15 14 23 34t9.5 35.5t1.5 41.5v439h177
v-394z" />
    <glyph glyph-name="Uacute" unicode="&#xda;" horiz-adv-x="729" 
d="M536 897l-145 -115h-96l61 115h180zM665 312q0 -97 -19 -152q-20 -57 -61.5 -96t-90 -54.5t-78.5 -20.5t-55 -5q-27 0 -57 3.5t-83 24.5t-89 57q-46 46 -58 102t-12 141v394h178v-440q0 -49 6.5 -71t26.5 -38q35 -27 94 -27q57 0 87 26q15 14 23 34t9.5 35.5t1.5 41.5
v439h177v-394z" />
    <glyph glyph-name="Ucircumflex" unicode="&#xdb;" horiz-adv-x="729" 
d="M520 779h-117l-39 51l-39 -51h-115l89 115h133zM665 312q0 -97 -19 -152q-20 -57 -61.5 -96t-90 -54.5t-78.5 -20.5t-55 -5q-27 0 -57 3.5t-83 24.5t-89 57q-46 46 -58 102t-12 141v394h178v-440q0 -49 6.5 -71t26.5 -38q35 -27 94 -27q57 0 87 26q15 14 23 34t9.5 35.5
t1.5 41.5v439h177v-394z" />
    <glyph glyph-name="Udieresis" unicode="&#xdc;" horiz-adv-x="729" 
d="M555 780h-161v117h161v-117zM333 780h-161v117h161v-117zM665 312q0 -97 -19 -152q-20 -57 -61.5 -96t-90 -54.5t-78.5 -20.5t-55 -5q-27 0 -57 3.5t-83 24.5t-89 57q-46 46 -58 102t-12 141v394h178v-440q0 -49 6.5 -71t26.5 -38q35 -27 94 -27q57 0 87 26q15 14 23 34
t9.5 35.5t1.5 41.5v439h177v-394z" />
    <glyph glyph-name="Yacute" unicode="&#xdd;" horiz-adv-x="708" 
d="M526 897l-145 -115h-96l60 115h181zM708 706l-267 -372v-334h-174v329l-265 377h202l152 -239l151 239h201z" />
    <glyph glyph-name="Thorn" unicode="&#xde;" horiz-adv-x="688" 
d="M672 366q-1 -90 -49 -148q-21 -26 -48.5 -44t-51.5 -26.5t-58 -13.5t-52.5 -5.5t-50.5 -0.5h-118v-128h-177v706h177v-103h125q119 0 169 -18q39 -14 67 -39.5t42 -57t19.5 -61.5t5.5 -61zM497 370q0 40 -19 64q-18 24 -45 31.5t-76 7.5h-113v-214h107q34 0 55 3t44.5 13
t35 33.5t11.5 61.5z" />
    <glyph glyph-name="germandbls" unicode="&#xdf;" 
d="M572 228q0 -82 -32 -146q-49 -93 -158 -93q-34 0 -74 10q-5 1 -13 3.5t-10 3.5v114q30 -15 51 -15q30 0 50 15.5t26.5 41t8 37t1.5 24.5q0 73 -31 109q-13 17 -30 24q-18 8 -61 8h-27v92h26q19 0 39 5q47 12 47 75q0 54 -38 73q-17 9 -42 9q-49 0 -72 -41q-5 -9 -8 -17.5
t-4 -26t-1 -24.5v-37v-472h-153v469q0 62 14 108q42 144 220 144q89 0 144 -33q28 -17 47 -44q35 -47 35 -107q0 -75 -51 -107q-7 -4 -39 -15q27 -2 42 -8q68 -25 87 -109q6 -26 6 -70z" />
    <glyph glyph-name="agrave" unicode="&#xe0;" horiz-adv-x="583" 
d="M379 587h-102l-157 133h184zM526 0h-151v47q-18 -13 -32 -22q-57 -39 -128 -39q-112 0 -154 86q-17 34 -17 73q0 33 13 61t33 46t34 27t27 15q43 19 209 49v29q0 63 -59 63q-56 0 -74 -38q-4 -9 -7 -23h-154v8q1 7 1.5 9.5t1.5 10.5t2.5 12t3.5 12t5 13.5t7 12.5t9.5 14
t11.5 13q41 40 118 53q30 4 67 4q164 0 207 -92q11 -26 11 -58v-305q0 -59 15 -81zM360 250l-99 -33q-12 -4 -18 -7q-48 -20 -48 -58q0 -12 6 -24q17 -29 53 -29q30 0 59 21q30 21 38.5 52t8.5 78z" />
    <glyph glyph-name="aacute" unicode="&#xe1;" horiz-adv-x="583" 
d="M499 719l-154 -133h-102l73 133h183zM526 0h-151v47q-18 -13 -32 -22q-57 -39 -128 -39q-112 0 -154 86q-17 34 -17 73q0 33 13 61t33 46t34 27t27 15q43 19 209 49v29q0 63 -59 63q-56 0 -74 -38q-4 -9 -7 -23h-154v8q1 7 1.5 9.5t1.5 10.5t2.5 12t3.5 12t5 13.5t7 12.5
t9.5 14t11.5 13q41 40 118 53q30 4 67 4q164 0 207 -92q11 -26 11 -58v-305q0 -59 15 -81zM360 250l-99 -33q-12 -4 -18 -7q-48 -20 -48 -58q0 -12 6 -24q17 -29 53 -29q30 0 59 21q30 21 38.5 52t8.5 78z" />
    <glyph glyph-name="acircumflex" unicode="&#xe2;" horiz-adv-x="583" 
d="M459 589h-118l-48 62l-47 -63h-117l101 132h126zM526 0h-151v47q-18 -13 -32 -22q-57 -39 -128 -39q-112 0 -154 86q-17 34 -17 73q0 33 13 61t33 46t34 27t27 15q43 19 209 49v29q0 63 -59 63q-56 0 -74 -38q-4 -9 -7 -23h-154v8q1 7 1.5 9.5t1.5 10.5t2.5 12t3.5 12
t5 13.5t7 12.5t9.5 14t11.5 13q41 40 118 53q30 4 67 4q164 0 207 -92q11 -26 11 -58v-305q0 -59 15 -81zM360 250l-99 -33q-12 -4 -18 -7q-48 -20 -48 -58q0 -12 6 -24q17 -29 53 -29q30 0 59 21q30 21 38.5 52t8.5 78z" />
    <glyph glyph-name="atilde" unicode="&#xe3;" horiz-adv-x="583" 
d="M466 720q-4 -27 -7 -44q-8 -43 -27.5 -69t-59.5 -25q-32 0 -84 24q-47 22 -66 22q-10 0 -20 -6q-13 -9 -19 -40h-72q7 75 32 108.5t69 33.5q33 0 71 -19q54 -26 74 -26q24 0 34 21q4 7 5 20h70zM526 0h-151v47q-18 -13 -32 -22q-57 -39 -128 -39q-112 0 -154 86
q-17 34 -17 73q0 33 13 61t33 46t34 27t27 15q43 19 209 49v29q0 63 -59 63q-56 0 -74 -38q-4 -9 -7 -23h-154v8q1 7 1.5 9.5t1.5 10.5t2.5 12t3.5 12t5 13.5t7 12.5t9.5 14t11.5 13q41 40 118 53q30 4 67 4q164 0 207 -92q11 -26 11 -58v-305q0 -59 15 -81zM360 250
l-99 -33q-12 -4 -18 -7q-48 -20 -48 -58q0 -12 6 -24q17 -29 53 -29q30 0 59 21q30 21 38.5 52t8.5 78z" />
    <glyph glyph-name="adieresis" unicode="&#xe4;" horiz-adv-x="583" 
d="M510 596h-157v124h157v-124zM259 596h-157v124h157v-124zM526 0h-151v47q-18 -13 -32 -22q-57 -39 -128 -39q-112 0 -154 86q-17 34 -17 73q0 33 13 61t33 46t34 27t27 15q43 19 209 49v29q0 63 -59 63q-56 0 -74 -38q-4 -9 -7 -23h-154v8q1 7 1.5 9.5t1.5 10.5t2.5 12
t3.5 12t5 13.5t7 12.5t9.5 14t11.5 13q41 40 118 53q30 4 67 4q164 0 207 -92q11 -26 11 -58v-305q0 -59 15 -81zM360 250l-99 -33q-12 -4 -18 -7q-48 -20 -48 -58q0 -12 6 -24q17 -29 53 -29q30 0 59 21q30 21 38.5 52t8.5 78z" />
    <glyph glyph-name="aring" unicode="&#xe5;" horiz-adv-x="583" 
d="M405 652q0 -41 -29 -69.5t-70 -28.5t-70 29q-28 28 -28 70q0 41 29 69.5t69 28.5q41 0 70 -29t29 -70zM526 0h-151v47q-18 -13 -32 -22q-57 -39 -128 -39q-112 0 -154 86q-17 34 -17 73q0 33 13 61t33 46t34 27t27 15q43 19 209 49v29q0 63 -59 63q-56 0 -74 -38
q-4 -9 -7 -23h-154v8q1 7 1.5 9.5t1.5 10.5t2.5 12t3.5 12t5 13.5t7 12.5t9.5 14t11.5 13q41 40 118 53q30 4 67 4q164 0 207 -92q11 -26 11 -58v-305q0 -59 15 -81zM346 653q0 16 -12 27.5t-28 11.5q-17 0 -28 -12t-11 -28q0 -17 11 -28t28 -11t29 12t11 28zM360 250
l-99 -33q-12 -4 -18 -7q-48 -20 -48 -58q0 -12 6 -24q17 -29 53 -29q30 0 59 21q30 21 38.5 52t8.5 78z" />
    <glyph glyph-name="ae" unicode="&#xe6;" horiz-adv-x="875" 
d="M854 134q-30 -45 -36 -52q-37 -44 -92 -69t-114 -25q-82 0 -150 46q-2 2 -8 6t-8 6q-8 7 -22 21q-30 -26 -47 -36q-69 -44 -158 -44q-22 0 -46.5 3.5t-65 25.5t-61.5 59q-21 39 -21 81q0 41 20 78q19 36 56.5 59t108.5 35q6 1 60 8t81 15q0 44 -15 60q-19 21 -61 21
q-36 0 -52 -13q-7 -4 -14 -17q-4 -6 -6 -27h-157q4 28 7 43t12.5 34t26.5 35q53 51 157 51q30 0 58 -4q39 -6 63.5 -16t65.5 -35q26 20 43 29q54 27 119 27q67 0 119 -27q24 -12 39 -27q59 -50 83 -136q8 -29 14 -112h-349q4 -35 10 -50q12 -33 42 -55.5t65 -22.5
q15 0 28.5 4t24.5 11t19.5 14.5t16 17.5l12 16t8.5 14l5 9zM693 332q-17 98 -92 97q-28 0 -49 -14.5t-29.5 -27.5t-12.5 -26q-2 -6 -6 -29h189zM349 259q-24 -10 -37 -13q-6 -2 -30 -7t-37.5 -9.5t-31.5 -13t-27 -22.5t-9 -33q0 -57 67 -57q33 0 60 21q29 23 37.5 55.5
t7.5 78.5z" />
    <glyph glyph-name="ccedilla" unicode="&#xe7;" horiz-adv-x="539" 
d="M524 123q-25 -40 -49 -64q-75 -76 -183 -76q-2 0 -6.5 0.5t-6.5 0.5l-18 -38q22 3 40 3q39 0 57 -20t18 -45q-1 -28 -25.5 -54.5t-70.5 -26.5q-55 0 -99 51l28 23q29 -32 54 -32q18 0 26.5 10.5t8.5 21.5q0 17 -15.5 28.5t-41.5 11.5q-18 -2 -26 -4l-12 18l32 58
q-37 7 -70 25t-64 48t-49.5 80.5t-18.5 114.5q0 123 69 201.5t193 78.5q148 0 223 -126l-114 -65q-11 22 -18 31q-34 42 -83 42q-40 0 -66.5 -28t-35.5 -59.5t-10 -64.5t8 -67.5t37 -64.5t70 -30q15 0 31 4t38 23t33 51z" />
    <glyph glyph-name="egrave" unicode="&#xe8;" horiz-adv-x="583" 
d="M358 587h-102l-157 133h184zM562 229h-373q0 -22 2 -31q9 -46 40 -72.5t77 -26.5q26 0 50 9q9 3 18 8.5t15.5 10.5t13.5 12t11 12.5t8.5 13t7 11.5t5.5 10l3 6l116 -60q-25 -37 -44 -59q-83 -92 -216 -92q-50 0 -94 14q-84 26 -127 95t-43 161q0 127 67 204q74 83 201 83
q136 0 204 -95q10 -13 17.5 -27.5t13.5 -29.5t10 -28.5t7 -29t5 -26.5t3 -24.5t1 -20.5t0.5 -17t0.5 -11zM403 325q-8 72 -57 93q-21 10 -47 10q-28 0 -50.5 -13t-31.5 -25t-15 -25q-7 -16 -12 -40h213z" />
    <glyph glyph-name="eacute" unicode="&#xe9;" horiz-adv-x="583" 
d="M483 719l-154 -133h-101l73 133h182zM562 229h-373q0 -22 2 -31q9 -46 40 -72.5t77 -26.5q26 0 50 9q9 3 18 8.5t15.5 10.5t13.5 12t11 12.5t8.5 13t7 11.5t5.5 10l3 6l116 -60q-25 -37 -44 -59q-83 -92 -216 -92q-50 0 -94 14q-84 26 -127 95t-43 161q0 127 67 204
q74 83 201 83q136 0 204 -95q10 -13 17.5 -27.5t13.5 -29.5t10 -28.5t7 -29t5 -26.5t3 -24.5t1 -20.5t0.5 -17t0.5 -11zM403 325q-8 72 -57 93q-21 10 -47 10q-28 0 -50.5 -13t-31.5 -25t-15 -25q-7 -16 -12 -40h213z" />
    <glyph glyph-name="ecircumflex" unicode="&#xea;" horiz-adv-x="583" 
d="M459 589h-118l-48 62l-47 -63h-117l101 132h126zM562 229h-373q0 -22 2 -31q9 -46 40 -72.5t77 -26.5q26 0 50 9q9 3 18 8.5t15.5 10.5t13.5 12t11 12.5t8.5 13t7 11.5t5.5 10l3 6l116 -60q-25 -37 -44 -59q-83 -92 -216 -92q-50 0 -94 14q-84 26 -127 95t-43 161
q0 127 67 204q74 83 201 83q136 0 204 -95q10 -13 17.5 -27.5t13.5 -29.5t10 -28.5t7 -29t5 -26.5t3 -24.5t1 -20.5t0.5 -17t0.5 -11zM403 325q-8 72 -57 93q-21 10 -47 10q-28 0 -50.5 -13t-31.5 -25t-15 -25q-7 -16 -12 -40h213z" />
    <glyph glyph-name="edieresis" unicode="&#xeb;" horiz-adv-x="583" 
d="M496 597h-158v124h158v-124zM244 597h-157v124h157v-124zM562 229h-373q0 -22 2 -31q9 -46 40 -72.5t77 -26.5q26 0 50 9q9 3 18 8.5t15.5 10.5t13.5 12t11 12.5t8.5 13t7 11.5t5.5 10l3 6l116 -60q-25 -37 -44 -59q-83 -92 -216 -92q-50 0 -94 14q-84 26 -127 95
t-43 161q0 127 67 204q74 83 201 83q136 0 204 -95q10 -13 17.5 -27.5t13.5 -29.5t10 -28.5t7 -29t5 -26.5t3 -24.5t1 -20.5t0.5 -17t0.5 -11zM403 325q-8 72 -57 93q-21 10 -47 10q-28 0 -50.5 -13t-31.5 -25t-15 -25q-7 -16 -12 -40h213z" />
    <glyph glyph-name="igrave" unicode="&#xec;" horiz-adv-x="292" 
d="M212 587h-101l-158 133h184zM221 0h-152v522h152v-522z" />
    <glyph glyph-name="iacute" unicode="&#xed;" horiz-adv-x="292" 
d="M337 719l-153 -133h-102l73 133h182zM221 0h-152v522h152v-522z" />
    <glyph glyph-name="icircumflex" unicode="&#xee;" horiz-adv-x="292" 
d="M314 589h-119l-48 62l-46 -63h-118l101 132h127zM221 0h-152v522h152v-522z" />
    <glyph glyph-name="idieresis" unicode="&#xef;" horiz-adv-x="292" 
d="M350 597h-157v124h157v-124zM98 597h-157v124h157v-124zM221 0h-152v522h152v-522z" />
    <glyph glyph-name="eth" unicode="&#xf0;" horiz-adv-x="625" 
d="M593 267q0 -92 -37.5 -155.5t-96.5 -95.5q-62 -32 -147 -32q-173 0 -246 133q-35 62 -35 143q0 98 43.5 162.5t109.5 94.5q48 21 99 21q69 0 114 -49q-29 62 -66 106l-156 -43l-18 51l135 37q-25 25 -41 40l120 47q42 -42 46 -47l4 -5l92 25l22 -49l-76 -21
q134 -168 134 -363zM437 257q0 80 -33.5 119.5t-87.5 39.5q-43 0 -70 -17q-59 -37 -59 -136q0 -77 36.5 -117t87.5 -40q64 0 95 44.5t31 106.5z" />
    <glyph glyph-name="ntilde" unicode="&#xf1;" 
d="M476 720q-6 -42 -6 -44q-8 -43 -28 -69t-60 -25q-32 0 -83 24q-48 22 -67 22q-11 0 -19 -6q-14 -9 -20 -40h-71q7 75 31.5 108.5t69.5 33.5q32 0 70 -19q54 -26 75 -26q23 0 34 21l5 20h69zM535 0h-154v295q0 58 -6 75q-16 42 -70 42q-33 0 -52 -16q-18 -14 -23.5 -38.5
t-5.5 -75.5v-282h-154v521h156v-45q20 20 24 23q49 36 123 36q54 0 93 -21q43 -23 56 -60.5t13 -96.5v-357z" />
    <glyph glyph-name="ograve" unicode="&#xf2;" horiz-adv-x="625" 
d="M379 587h-102l-157 133h184zM593 261q0 -139 -92 -216q-73 -61 -189 -61q-23 0 -50 3.5t-74.5 21.5t-80.5 50q-75 73 -75 203q0 113 61 186q83 99 240 89q100 -5 164 -56q47 -39 71.5 -97t24.5 -123zM437 256q0 102 -55 140q-28 20 -76 20q-33 0 -58 -15
q-24 -14 -42.5 -49.5t-18.5 -88.5q0 -62 27 -105q34 -51 100 -51q60 0 91.5 43t31.5 106z" />
    <glyph glyph-name="oacute" unicode="&#xf3;" horiz-adv-x="625" 
d="M504 719l-154 -133h-102l73 133h183zM593 261q0 -139 -92 -216q-73 -61 -189 -61q-23 0 -50 3.5t-74.5 21.5t-80.5 50q-75 73 -75 203q0 113 61 186q83 99 240 89q100 -5 164 -56q47 -39 71.5 -97t24.5 -123zM437 256q0 102 -55 140q-28 20 -76 20q-33 0 -58 -15
q-24 -14 -42.5 -49.5t-18.5 -88.5q0 -62 27 -105q34 -51 100 -51q60 0 91.5 43t31.5 106z" />
    <glyph glyph-name="ocircumflex" unicode="&#xf4;" horiz-adv-x="625" 
d="M480 589h-118l-48 62l-47 -63h-118l102 132h126zM593 261q0 -139 -92 -216q-73 -61 -189 -61q-23 0 -50 3.5t-74.5 21.5t-80.5 50q-75 73 -75 203q0 113 61 186q83 99 240 89q100 -5 164 -56q47 -39 71.5 -97t24.5 -123zM437 256q0 102 -55 140q-28 20 -76 20
q-33 0 -58 -15q-24 -14 -42.5 -49.5t-18.5 -88.5q0 -62 27 -105q34 -51 100 -51q60 0 91.5 43t31.5 106z" />
    <glyph glyph-name="otilde" unicode="&#xf5;" horiz-adv-x="625" 
d="M486 720q-1 -21 -6 -44q-8 -43 -27.5 -69t-59.5 -25q-32 0 -84 24q-47 22 -67 22q-11 0 -19 -6q-13 -8 -19 -40h-72q7 75 31.5 108.5t69.5 33.5q32 0 70 -19q54 -26 75 -26q24 0 34 21q4 7 5 20h69zM593 261q0 -139 -92 -216q-73 -61 -189 -61q-23 0 -50 3.5t-74.5 21.5
t-80.5 50q-75 73 -75 203q0 113 61 186q83 99 240 89q100 -5 164 -56q47 -39 71.5 -97t24.5 -123zM437 256q0 102 -55 140q-28 20 -76 20q-33 0 -58 -15q-24 -14 -42.5 -49.5t-18.5 -88.5q0 -62 27 -105q34 -51 100 -51q60 0 91.5 43t31.5 106z" />
    <glyph glyph-name="odieresis" unicode="&#xf6;" horiz-adv-x="625" 
d="M519 595h-158v124h158v-124zM267 595h-157v124h157v-124zM593 261q0 -139 -92 -216q-73 -61 -189 -61q-23 0 -50 3.5t-74.5 21.5t-80.5 50q-75 73 -75 203q0 113 61 186q83 99 240 89q100 -5 164 -56q47 -39 71.5 -97t24.5 -123zM437 256q0 102 -55 140q-28 20 -76 20
q-33 0 -58 -15q-24 -14 -42.5 -49.5t-18.5 -88.5q0 -62 27 -105q34 -51 100 -51q60 0 91.5 43t31.5 106z" />
    <glyph glyph-name="divide" unicode="&#xf7;" horiz-adv-x="724" 
d="M437 446h-151v156h151v-156zM644 254h-565v139h565v-139zM436 45h-150v155h150v-155z" />
    <glyph glyph-name="oslash" unicode="&#xf8;" horiz-adv-x="625" 
d="M611 495l-74 -68q3 -4 8.5 -12t7.5 -12q39 -67 39 -147q0 -108 -64 -180q-31 -35 -85 -62.5t-131 -27.5q-85 0 -146 38q-13 8 -39 29l-76 -69l-41 46l75 69q-16 24 -19 29q-33 58 -33 138q0 110 63 185q29 34 81.5 60t128.5 26q88 0 156 -40q5 -3 34 -24l75 68zM399 385
q-1 1 -5 4t-8.5 7t-9.5 7q-27 18 -66 18q-54 0 -89 -36q-39 -39 -39 -122q0 -36 10 -68zM439 265q0 32 -9 65l-206 -189q35 -37 89 -37q66 1 96 47t30 114z" />
    <glyph glyph-name="ugrave" unicode="&#xf9;" 
d="M368 587h-101l-158 133h185zM534 0h-154v49q-15 -16 -23 -23q-52 -41 -129 -41q-70 0 -111 32q-9 7 -16 15.5t-12 16t-9 19t-6.5 19t-4.5 21.5t-3 20t-1.5 22t-0.5 20.5v21.5v19v311h155v-325q0 -30 5 -46.5t24 -28.5q22 -12 45 -12q33 0 54.5 14.5t27.5 32.5q6 16 6 40
v325h153v-522z" />
    <glyph glyph-name="uacute" unicode="&#xfa;" 
d="M493 719l-153 -133h-102l73 133h182zM534 0h-154v49q-15 -16 -23 -23q-52 -41 -129 -41q-70 0 -111 32q-9 7 -16 15.5t-12 16t-9 19t-6.5 19t-4.5 21.5t-3 20t-1.5 22t-0.5 20.5v21.5v19v311h155v-325q0 -30 5 -46.5t24 -28.5q22 -12 45 -12q33 0 54.5 14.5t27.5 32.5
q6 16 6 40v325h153v-522z" />
    <glyph glyph-name="ucircumflex" unicode="&#xfb;" 
d="M470 589h-118l-49 62l-46 -63h-118l101 132h127zM534 0h-154v49q-15 -16 -23 -23q-52 -41 -129 -41q-70 0 -111 32q-9 7 -16 15.5t-12 16t-9 19t-6.5 19t-4.5 21.5t-3 20t-1.5 22t-0.5 20.5v21.5v19v311h155v-325q0 -30 5 -46.5t24 -28.5q22 -12 45 -12q33 0 54.5 14.5
t27.5 32.5q6 16 6 40v325h153v-522z" />
    <glyph glyph-name="udieresis" unicode="&#xfc;" 
d="M505 596h-157v125h157v-125zM254 596h-157v125h157v-125zM534 0h-154v49q-15 -16 -23 -23q-52 -41 -129 -41q-70 0 -111 32q-9 7 -16 15.5t-12 16t-9 19t-6.5 19t-4.5 21.5t-3 20t-1.5 22t-0.5 20.5v21.5v19v311h155v-325q0 -30 5 -46.5t24 -28.5q22 -12 45 -12
q33 0 54.5 14.5t27.5 32.5q6 16 6 40v325h153v-522z" />
    <glyph glyph-name="yacute" unicode="&#xfd;" horiz-adv-x="500" 
d="M441 719l-153 -133h-102l73 133h182zM500 522l-184 -564q-14 -43 -27 -65q-27 -45 -57.5 -59t-75.5 -14h-111v123h54q64 0 64 38q0 15 -26 99l-137 442h164l86 -374l86 374h164z" />
    <glyph glyph-name="thorn" unicode="&#xfe;" 
d="M575 260q0 -49 -12.5 -94.5t-38 -86t-71 -65t-104.5 -24.5q-36 0 -62.5 9.5t-66.5 34.5v-215h-156v887h150v-227q54 56 129 56q61 0 107.5 -24.5t73 -65t39 -87.5t12.5 -98zM427 264q0 57 -19.5 101.5t-62.5 56.5q-11 3 -22 3q-50 0 -80 -44.5t-30 -120.5t28 -117.5
t78 -41.5q32 0 54.5 17.5t33.5 45t15.5 52.5t4.5 48z" />
    <glyph glyph-name="ydieresis" unicode="&#xff;" horiz-adv-x="500" 
d="M454 597h-157v124h157v-124zM203 597h-158v124h158v-124zM500 522l-184 -564q-22 -66 -51 -98q-23 -24 -47.5 -32t-61.5 -8h-111v123h70q25 0 36.5 11t11.5 27t-11 50q-10 32 -15 49l-137 442h164l86 -374l86 374h164z" />
    <glyph glyph-name="OE" unicode="&#x152;" horiz-adv-x="1104" 
d="M1082 0h-568v15q-82 -29 -154 -29q-122 0 -207 77q-111 102 -111 291q0 47 6 85q12 67 38 119q36 73 102 115q77 51 178 51q77 0 149 -36v18h533v-137h-356v-130h334v-136h-334v-163h390v-140zM516 155v397q-6 6 -28 18q-35 17 -85 17q-32 0 -65 -11q-118 -43 -118 -221
q0 -122 53 -178t127 -56q51 0 116 34z" />
    <glyph glyph-name="oe" unicode="&#x153;" horiz-adv-x="938" 
d="M920 230h-373q3 -26 9 -42q17 -49 61 -71q24 -11 56 -11q73 0 109 54q7 11 16 33l119 -62q-23 -38 -38 -56q-77 -90 -212 -90q-90 0 -161 51l-33 27q-22 -22 -32 -29q-66 -47 -155 -47q-29 0 -59 6.5t-66 25.5t-64 48t-46.5 79.5t-18.5 115.5q0 117 63 190q73 84 197 84
q79 0 140 -38q8 -5 17 -12t17 -13l7 -6q25 24 60 41q57 29 128 29q91 -1 153 -49.5t88 -135.5q13 -47 18 -122zM761 325q-6 39 -25 62q-30 35 -83 35q-60 0 -86 -45q-14 -24 -18 -52h212zM401 263q0 108 -51 141q-22 15 -59 14q-31 -1 -50 -14q-25 -17 -39 -53t-16 -54.5
t-2 -32.5q0 -18 3 -38q8 -63 39 -91q29 -26 71 -26q21 0 35 7q29 13 49.5 51t19.5 96z" />
    <glyph glyph-name="Scaron" unicode="&#x160;" horiz-adv-x="688" 
d="M499 898l-88 -115h-133l-90 115h117l40 -51l39 51h115zM652 230q0 -62 -31 -115q-76 -131 -290 -131q-163 0 -268 88q-23 19 -54 56l134 85q20 -23 37 -36q71 -54 167 -54q55 0 92 23.5t38 56.5t-36 54q-18 10 -47.5 14.5t-76.5 10t-86 14.5q-183 42 -183 191
q0 64 25.5 111.5t68.5 73.5t90.5 38.5t99.5 12.5q55 0 103.5 -11.5t87.5 -33.5t64.5 -41t56.5 -47l-129 -93q-26 24 -45.5 39t-59 31.5t-80.5 16.5q-48 0 -77 -22t-29 -52q0 -20 10 -32q9 -13 24.5 -20t26.5 -9t34 -5q7 -1 19 -2.5t19 -2.5q92 -15 132 -25q163 -41 163 -184
z" />
    <glyph glyph-name="scaron" unicode="&#x161;" horiz-adv-x="521" 
d="M426 720l-102 -131h-125l-104 131h119l48 -63l46 63h118zM497 169q0 -52 -26.5 -90.5t-68 -57.5t-82.5 -27.5t-78 -7.5q-82 2 -138 29t-106 72l97 88q18 -18 34 -29q58 -43 119 -43q38 0 65 14t27 38q0 12 -13 25q-8 8 -29 13t-56.5 10.5t-56.5 10.5q-20 5 -28.5 7
t-36 14t-42.5 26t-29 41.5t-14 61.5q0 67 57 120.5t162 54.5q122 0 234 -78l-95 -88q-64 52 -130 52q-71 0 -74 -38q-1 -12 14 -27q6 -5 27.5 -10t55.5 -11.5t55 -12.5q72 -19 114 -54t42 -103z" />
    <glyph glyph-name="Ydieresis" unicode="&#x178;" horiz-adv-x="708" 
d="M545 782h-160v116h160v-116zM323 781h-161v117h161v-117zM708 706l-267 -372v-334h-174v329l-265 377h202l152 -239l151 239h201z" />
    <glyph glyph-name="florin" unicode="&#x192;" horiz-adv-x="333" 
d="M369 679l-11 -102h-49q-26 0 -41 -11.5t-18 -48.5l-3 -30h91l-10 -93h-92l-37 -347q-1 -10 -3.5 -34t-3.5 -33t-4 -28t-5 -27.5t-6.5 -23t-9.5 -22t-12 -17.5t-16 -17.5t-20 -13.5q-37 -21 -95 -21q-38 0 -103 15l11 102q11 -1 32 -1q33 0 47.5 6.5t23.5 28.5q6 16 12 86
l34 347h-71l9 93h73l10 73q7 36 14 52q38 81 147 81q36 0 106 -14z" />
    <glyph glyph-name="circumflex" unicode="&#x2c6;" horiz-adv-x="271" 
d="M301 589h-118l-49 62l-46 -63h-118l101 132h127z" />
    <glyph glyph-name="tilde" unicode="&#x2dc;" horiz-adv-x="271" 
d="M313 720q-1 -8 -3 -22.5t-3 -21.5q-9 -43 -28.5 -69t-59.5 -25q-34 0 -83 24q-50 22 -67 22q-11 0 -19 -6q-20 -13 -20 -40h-72q7 75 31.5 108.5t69.5 33.5q32 0 70 -19q54 -26 75 -26q23 0 35 21q0 2 4 20h70z" />
    <glyph glyph-name="endash" unicode="&#x2013;" horiz-adv-x="626" 
d="M588 237h-550v143h550v-143z" />
    <glyph glyph-name="emdash" unicode="&#x2014;" horiz-adv-x="918" 
d="M880 237h-842v143h842v-143z" />
    <glyph glyph-name="quoteleft" unicode="&#x2018;" horiz-adv-x="250" 
d="M205 372h-159v156q0 73 43 123t116 61v-69q-34 -14 -46 -37.5t-16 -65.5h62v-168z" />
    <glyph glyph-name="quoteright" unicode="&#x2019;" horiz-adv-x="250" 
d="M204 562q0 -113 -77 -165q-39 -26 -82 -29v71q38 11 50.5 35.5t13.5 67.5h-64v164h159v-144z" />
    <glyph glyph-name="quotesinglbase" unicode="&#x201a;" horiz-adv-x="250" 
d="M205 31q0 -88 -36.5 -134.5t-122.5 -69.5v71q33 12 44.5 36t15.5 66h-61v168h160v-137z" />
    <glyph glyph-name="quotedblleft" unicode="&#x201c;" horiz-adv-x="479" 
d="M434 371h-158v148q0 80 40 131.5t118 62.5v-71q-37 -11 -49.5 -35.5t-13.5 -68.5h63v-167zM204 371h-158v148q0 80 40 131.5t118 62.5v-71q-37 -11 -49.5 -35.5t-13.5 -68.5h63v-167z" />
    <glyph glyph-name="quotedblright" unicode="&#x201d;" horiz-adv-x="479" 
d="M434 558q0 -113 -76 -164q-41 -26 -82 -29v71q38 12 50 36t13 67h-63v167h158v-148zM204 558q0 -112 -77 -164q-39 -26 -81 -29v71q38 12 50 36t13 67h-63v167h158v-148z" />
    <glyph glyph-name="quotedblbase" unicode="&#x201e;" horiz-adv-x="479" 
d="M434 19q0 -79 -40.5 -131t-117.5 -63v71q38 12 50 36t13 68h-63v167h158v-148zM204 19q0 -80 -40 -130.5t-118 -63.5v71q37 13 49.5 37t13.5 67h-63v167h158v-148z" />
    <glyph glyph-name="dagger" unicode="&#x2020;" horiz-adv-x="583" 
d="M543 348h-185v-467h-135v467h-184v127h184v234h135v-234h185v-127z" />
    <glyph glyph-name="daggerdbl" unicode="&#x2021;" horiz-adv-x="583" 
d="M517 415h-162v-232h161v-123h-160v-180h-131v181h-158v122h158v233h-158v121h159v169h130v-169h161v-122z" />
    <glyph glyph-name="bullet" unicode="&#x2022;" horiz-adv-x="333" 
d="M291 226h-249v248h249v-248z" />
    <glyph glyph-name="ellipsis" unicode="&#x2026;" horiz-adv-x="1000" 
d="M897 0h-127v126h127v-126zM564 0h-128v126h128v-126zM230 0h-128v126h128v-126z" />
    <glyph glyph-name="perthousand" unicode="&#x2030;" horiz-adv-x="1250" 
d="M1221 221q0 -142 -72 -199q-35 -28 -88 -28q-33 0 -59.5 12.5t-42.5 30t-28 44t-17 46.5t-8 45.5t-3 32.5v16q0 80 22.5 133t57.5 77q36 23 83 23q73 0 116 -65q39 -60 39 -168zM847 221q0 -141 -73 -199q-35 -28 -88 -28q-33 0 -59.5 12.5t-42.5 30t-28 44t-17 46.5
t-8 45.5t-3 32.5v16q0 80 22.5 133t57.5 77q38 24 83 23q73 0 116 -64q40 -61 40 -169zM665 679l-376 -721l-79 42l375 721zM345 456q0 -22 -2 -47t-19.5 -76.5t-50.5 -76.5q-35 -28 -90 -28q-62 0 -101 43q-55 62 -55 187v16t2 30t6.5 42.5t14.5 43t23.5 43.5t36.5 32.5
t52 20.5q50 10 93 -14q90 -50 90 -216zM1120 222q0 52 -10 94q-11 40 -35 48q-14 3 -17 3q-29 -3 -42 -50q-11 -44 -11 -101q0 -42 8 -80q7 -35 28 -49q12 -8 23 -8q33 0 47 52q9 39 9 91zM745 222q0 52 -10 94q-12 41 -35 49q-11 3 -17 2q-29 -3 -42 -50q-11 -44 -11 -101
q0 -42 8 -80q7 -36 28 -50q10 -7 23 -7q33 0 47 52q9 39 9 91zM243 456q0 52 -10 94q-12 41 -35 49q-11 3 -17 2q-29 -3 -42 -50q-10 -40 -10 -101q0 -47 7 -80q7 -36 28 -50q10 -7 24 -7q32 0 46 52q9 39 9 91z" />
    <glyph glyph-name="guilsinglleft" unicode="&#x2039;" horiz-adv-x="229" 
d="M191 100l-159 130v125l158 134v-138l-67 -57l68 -57v-137z" />
    <glyph glyph-name="guilsinglright" unicode="&#x203a;" horiz-adv-x="229" 
d="M195 231l-159 -135v138l64 58l-64 57v136l159 -131v-123z" />
    <glyph glyph-name="Euro" unicode="&#x20ac;" horiz-adv-x="709" 
d="M675 625l-60 -143q-66 76 -158 76q-128 0 -169 -127h310l-26 -73h-297v-7q0 -21 1 -32h284l-27 -72l-246 -1q41 -130 189 -130q47 0 94 23.5t75 60.5v-177q-82 -43 -199 -43q-278 0 -337 266l-75 1l27 72h38q-1 5 -1 16q0 7 2 23h-66l27 73h49q28 130 119 199.5t226 69.5
q69 0 118 -16.5t102 -58.5z" />
    <glyph glyph-name="trademark" unicode="&#x2122;" horiz-adv-x="736" 
d="M679 374h-81l1 253l-65 -253h-69l-68 257l4 -257h-82l1 332h126l54 -212l53 212h125zM282 638h-91v-264h-86v264h-94v68h271v-68z" />
    </font>
</defs>
</svg>
