<?xml version="1.0" standalone="no"?>
<!DOCTYPE svg PUBLIC "-//W3C//DTD SVG 1.1//EN" "http://www.w3.org/Graphics/SVG/1.1/DTD/svg11.dtd" >
<svg xmlns="http://www.w3.org/2000/svg" xmlns:xlink="http://www.w3.org/1999/xlink" version="1.1">
<metadata>
Created by FontForge 20161013 at Thu May 17 20:00:02 2007
 By ,,,
Copyright  1997, 2001, Berthold LLC. All rights reserved. Akzidenz-Grotesk is a trademark of Berthold Types Limited.
</metadata>
<defs>
<font id="AkzidenzGroteskBQ-Reg" horiz-adv-x="521" >
  <font-face 
    font-family="Akzidenz-Grotesk BQ"
    font-weight="500"
    font-stretch="normal"
    units-per-em="1000"
    panose-1="0 0 0 0 0 0 0 0 0 0"
    ascent="800"
    descent="-200"
    x-height="471"
    cap-height="706"
    bbox="-37 -233 1227.01 943"
    underline-thickness="75"
    underline-position="-324"
    unicode-range="U+0020-2122"
  />
<missing-glyph horiz-adv-x="500" 
 />
    <glyph glyph-name=".notdef" horiz-adv-x="500" 
 />
    <glyph glyph-name=".null" horiz-adv-x="0" 
 />
    <glyph glyph-name="nonmarkingreturn" horiz-adv-x="333" 
 />
    <glyph glyph-name="space" unicode=" " horiz-adv-x="271" 
 />
    <glyph glyph-name="exclam" unicode="!" horiz-adv-x="271" 
d="M194 418l-24 -271h-31l-24 282v277h79v-288zM194 0h-79v90h79v-90z" />
    <glyph glyph-name="quotedbl" unicode="&#x22;" horiz-adv-x="347" 
d="M302 743l-28 -294h-31l-29 294h88zM133 743l-28 -294h-32l-29 294h89z" />
    <glyph glyph-name="numbersign" unicode="#" horiz-adv-x="667" 
d="M625 414h-148l-16 -108h139v-77h-150l-33 -229h-79l33 229h-111l-33 -229h-81l35 229h-139v77h149l16 108h-142v77h152l31 214h80l-31 -214h110l32 214h78l-30 -214h138v-77zM397 414h-111l-16 -108h112z" />
    <glyph glyph-name="dollar" unicode="$" horiz-adv-x="625" 
d="M600 185q0 -50 -26.5 -93t-71.5 -70q-67 -40 -136 -40h-12v-119h-67v119q-97 14 -158 55q-84 57 -109 167l102 11q11 -54 42.5 -88t60.5 -47q21 -11 62 -19v253q-1 0 -13.5 4t-27 9t-32.5 12t-36.5 16.5t-32.5 19.5q-81 58 -81 146q0 46 23 85q51 91 197 110h3v110h67
l1 -110q10 -3 40 -10q57 -14 103 -50q33 -26 52 -55q19 -27 32 -74l-93 -9q-22 72 -83 105q-24 12 -52 16l1 -236q68 -20 112 -41q134 -65 133 -177zM287 422v220q-31 -3 -53 -12q-31 -13 -50 -39t-19 -59q0 -26 12 -47q22 -36 110 -63zM496 172q0 44 -33 71.5t-109 51.5
l1 -237q8 0 22 2q69 8 101 55q18 25 18 57z" />
    <glyph glyph-name="percent" unicode="%" horiz-adv-x="896" 
d="M849 213q0 -21 -2 -45t-20 -73.5t-51 -74.5q-38 -29 -89 -29q-80 0 -125 67q-39 59 -39 160q0 115 47 173.5t115 58.5q67 0 116 -60.5t48 -176.5zM620 656l-317 -685l-55 26l318 685zM353 450q0 -125 -62 -185q-41 -41 -101 -41q-64 0 -106 47q-58 65 -58 181
q0 54 17.5 109t52.5 87q42 35 93 35q35 0 69 -19q95 -53 95 -214zM784 213q1 90 -28 137q-26 41 -72 41q-46 -2 -69 -40q-29 -45 -28 -131q0 -83 28 -128q26 -44 73 -44q40 0 64 33q30 40 32 132zM288 450q0 85 -24 127q-27 49 -76 49q-38 0 -64 -34q-32 -41 -32 -136
q0 -91 29 -136q25 -38 69 -38t71 39q27 40 27 129z" />
    <glyph glyph-name="ampersand" unicode="&#x26;" horiz-adv-x="604" 
d="M593 -4q-21 -4 -38 -4q-83 0 -146 72q-21 -18 -40 -30q-66 -43 -138 -43q-44 0 -84 19q-40 18 -74.5 60.5t-34.5 114.5q0 75 51 137q20 23 39 37q12 9 37.5 23.5t37.5 23.5q-2 4 -7 18t-7 19t-6 17t-5.5 18.5t-3.5 17t-3 20.5t-1 20q0 70 44.5 117.5t113.5 47.5
q61 0 103 -40t42 -101q0 -29 -11 -57q-20 -47 -85 -96q-11 -8 -57 -34q19 -42 61 -113q31 -52 39 -65q30 57 47 130h77q-14 -95 -76 -197q37 -52 97 -52q9 0 28 3v-83zM394 570q0 15 -6 31q-16 39 -61 39q-17 0 -34 -9q-43 -23 -43 -78q2 -47 33 -110q57 25 84 59t27 68z
M362 121q-3 4 -70 115q-44 75 -56 101q-28 -13 -46 -26q-67 -49 -67 -116q0 -23 9 -45q31 -81 115 -81q60 1 115 52z" />
    <glyph glyph-name="quotesingle" unicode="'" horiz-adv-x="177" 
d="M133 743l-28 -294h-32l-29 294h89z" />
    <glyph glyph-name="parenleft" unicode="(" horiz-adv-x="315" 
d="M319 -117l-32 -46q-6 4 -13 10t-9 8q-63 50 -113 118q-48 65 -74 136q-38 100 -38 212q0 181 94 325q27 40 62 77q36 37 88 75l33 -40q-56 -51 -85 -91q-99 -135 -99 -339q0 -137 50 -257t136 -188z" />
    <glyph glyph-name="parenright" unicode=")" horiz-adv-x="319" 
d="M283 317q0 -107 -38 -212q-40 -108 -119 -190q-32 -34 -88 -75l-33 39q35 32 51 49.5t34 42.5q100 136 100 340q0 138 -50 257.5t-136 186.5l33 46q6 -4 13 -10t9 -8q61 -48 112 -118q50 -69 75 -136q37 -97 37 -212z" />
    <glyph glyph-name="asterisk" unicode="*" horiz-adv-x="349" 
d="M323 583l-104 -37l63 -83l-48 -37l-66 85l-59 -85l-50 36l59 85l-100 28l17 57l102 -27v103h62v-105l103 34z" />
    <glyph glyph-name="plus" unicode="+" horiz-adv-x="724" 
d="M631 262h-225v-229h-88v229h-224v78h224v228h88v-228h225v-78z" />
    <glyph glyph-name="comma" unicode="," horiz-adv-x="229" 
d="M162 49q0 -113 -41 -205h-47q33 95 33 156h-44v109h99v-60z" />
    <glyph glyph-name="hyphen" unicode="-" horiz-adv-x="370" 
d="M325 262h-280v76h280v-76z" />
    <glyph glyph-name="period" unicode="." horiz-adv-x="229" 
d="M163 0h-99v113h99v-113z" />
    <glyph glyph-name="slash" unicode="/" horiz-adv-x="333" 
d="M321 702l-231 -702h-77l233 702h75z" />
    <glyph glyph-name="zero" unicode="0" horiz-adv-x="583" 
d="M535 336q0 -206 -110 -296q-56 -46 -134 -46q-61 0 -110 30q-57 35 -94.5 111.5t-37.5 196.5q0 203 105 297q58 51 136 51q59 0 110 -31q58 -35 97 -113t38 -200zM445 336q0 142 -53 214q-38 51 -99 51q-54 0 -90 -36q-21 -19 -37 -55q-28 -65 -28 -174q0 -139 50 -209
q38 -56 105 -55q38 0 66 18q47 31 66.5 102.5t19.5 143.5z" />
    <glyph glyph-name="one" unicode="1" horiz-adv-x="583" 
d="M357 0h-94v493h-145v62q114 0 151 59q17 26 21 60h67v-674z" />
    <glyph glyph-name="two" unicode="2" horiz-adv-x="583" 
d="M520 0h-441l1 86q14 7 42 23q78 50 166 133q61 56 96 110.5t35 120.5q0 60 -33.5 94.5t-93.5 34.5q-69 0 -101 -41q-8 -11 -18 -36q-8 -27 -8 -56q0 -32 12 -80h-88q-12 41 -12 80q0 102 63 159q59 52 155 52q86 0 145 -50q72 -60 72 -163q0 -105 -91 -207
q-32 -37 -76 -74q-40 -35 -79 -63q-23 -16 -69 -46h323v-77z" />
    <glyph glyph-name="three" unicode="3" horiz-adv-x="583" 
d="M529 188q0 -77 -52 -129q-63 -65 -184 -65q-19 0 -37.5 1.5t-54 10.5t-62.5 24.5t-53.5 48t-37.5 76.5q-7 27 -8 68h90q6 -52 12 -70q29 -79 146 -79q14 0 26.5 1t36.5 7.5t40.5 18t30 36t13.5 58.5q0 42 -23 70q-33 43 -131 43q-30 0 -60 -3l1 81q108 -9 154 22
q43 29 43 84q0 34 -18 60q-37 54 -118 54q-73 0 -108 -56q-19 -32 -23 -102l-89 4q4 59 13 89q12 37 34 64.5t44.5 41.5t50.5 22t45 9.5t34 1.5q53 0 100 -16q38 -13 64.5 -36t38.5 -49.5t17 -47t5 -39.5q0 -65 -32 -103q-14 -18 -50 -40q23 -10 41 -24q61 -50 61 -137z" />
    <glyph glyph-name="four" unicode="4" horiz-adv-x="583" 
d="M532 162h-98v-162h-87v162h-305v81l322 431h70v-436h98v-76zM351 540l-218 -302h214z" />
    <glyph glyph-name="five" unicode="5" horiz-adv-x="583" 
d="M525 236q0 -75 -39 -138.5t-107 -88.5q-40 -15 -92 -15q-53 0 -95.5 15.5t-68.5 41t-40.5 48.5t-23.5 47q-8 25 -12 64l89 6q2 -23 14 -53q24 -61 77 -82q25 -10 57 -10q34 0 61 12q35 15 61 53t26 103q0 34 -7 56q-8 30 -29.5 54t-49.5 35q-30 10 -60 10q-46 0 -77 -21
q-8 -4 -19 -15q-25 -24 -37 -51h-81l22 367h383v-79h-315l-9 -177q66 55 149 54q51 0 92 -18q62 -28 96.5 -88t34.5 -130z" />
    <glyph glyph-name="six" unicode="6" horiz-adv-x="583" 
d="M527 228q0 -48 -16 -91q-25 -67 -80 -105t-128 -38q-120 0 -187 100q-54 80 -54 235q0 115 32 199q14 38 41 73q43 51 95 67q36 12 74 12q41 0 80 -14q54 -20 81.5 -58.5t43.5 -101.5l-87 -12q-14 79 -71 102q-21 8 -46 8q-51 0 -87 -29q-31 -27 -50 -81
q-15 -43 -20 -131l8 10q8 10 13 15q57 57 146 57q47 0 86 -17q20 -9 38.5 -22.5t40 -36.5t34.5 -60t13 -81zM439 222q0 23 -8 50q-9 29 -30.5 52t-49.5 33q-22 7 -49 7q-32 0 -55 -10q-40 -16 -62.5 -53t-22.5 -81q0 -29 10 -57q5 -13 14 -26t24 -28.5t40 -25t55 -9.5
q28 0 55 11q39 17 59.5 55t19.5 82z" />
    <glyph glyph-name="seven" unicode="7" horiz-adv-x="583" 
d="M509 577q0 -9 -1 -17t-2 -13t-5.5 -14t-6.5 -13.5t-11 -19t-13 -22.5l-35 -61q-32 -58 -57 -109q-13 -27 -37 -81q-26 -60 -36 -91q-11 -32 -19 -72q-8 -32 -12 -64h-106q23 179 204 461l30 47q22 35 27.5 48.5t5.5 37.5h-267v-128h-72v208h413v-97z" />
    <glyph glyph-name="eight" unicode="8" horiz-adv-x="583" 
d="M533 203q0 -57 -25 -101q-60 -108 -216 -108q-144 0 -207 96q-33 51 -33 111q0 79 51 130q11 11 41 31q-75 50 -75 139q0 57 30 102q56 77 194 77q136 0 189 -74q32 -43 32 -105q0 -75 -50 -120q-12 -10 -26 -19q19 -12 30 -20.5t29 -28t27 -47t9 -63.5zM424 502
q0 50 -38 77q-34 24 -98 24q-80 0 -113 -44q-17 -23 -17 -56q0 -29 14 -53q29 -53 120 -53q92 0 120 55q12 22 12 50zM440 204q0 53 -36 84q-38 34 -115 34q-78 0 -112 -36.5t-34 -83.5q0 -40 20 -69q40 -57 131 -57q75 0 114 41q35 37 32 87z" />
    <glyph glyph-name="nine" unicode="9" horiz-adv-x="583" 
d="M525 343q0 -177 -76 -272q-29 -36 -59 -52q-46 -25 -115 -25q-37 0 -63 8q-74 23 -114 95q-14 24 -25 65l87 16q4 -31 25 -62q32 -46 96 -46q54 0 92 36q33 32 49.5 88.5t16.5 109.5q-67 -86 -167 -86q-98 0 -159 63.5t-61 162.5q0 103 62 168q63 65 166 65q97 0 158 -58
q87 -83 87 -276zM430 432q0 34 -8 61q-16 51 -53 80t-90 29q-47 0 -80 -25q-58 -42 -58 -138q0 -37 11 -61q12 -30 44 -55t86 -25q32 0 58 10q32 11 60 40t30 84z" />
    <glyph glyph-name="colon" unicode=":" horiz-adv-x="271" 
d="M205 377h-99v112h99v-112zM205 0h-99v113h99v-113z" />
    <glyph glyph-name="semicolon" unicode=";" horiz-adv-x="271" 
d="M206 380h-99v110h99v-110zM206 50q0 -102 -25 -171q-2 -6 -7 -17t-7 -17h-45q25 78 25 155h-40v111h99v-61z" />
    <glyph glyph-name="less" unicode="&#x3c;" horiz-adv-x="724" 
d="M579 23l-465 234v89l465 235v-88l-384 -190l384 -189v-91z" />
    <glyph glyph-name="equal" unicode="=" horiz-adv-x="724" 
d="M625 350h-526v78h526v-78zM625 163h-526v77h526v-77z" />
    <glyph glyph-name="greater" unicode="&#x3e;" horiz-adv-x="724" 
d="M609 256l-465 -235v89l384 189l-384 189v91l465 -233v-90z" />
    <glyph glyph-name="question" unicode="?" horiz-adv-x="562" 
d="M526 496q0 -69 -32.5 -111.5t-69.5 -60.5q-34 -16 -88 -22v-152h-79l1 236h27q62 0 98 19q23 12 37 31q23 30 23 71q0 38 -19 68q-15 23 -49 42.5t-82 19.5q-68 0 -102 -43q-33 -39 -33 -107v-16h-87q0 104 49 162q65 79 176 79q88 0 155 -55q75 -62 75 -161zM340 0h-89
v97h89v-97z" />
    <glyph glyph-name="at" unicode="@" horiz-adv-x="896" 
d="M827 424q0 -74 -23 -146q-25 -77 -81.5 -142.5t-126.5 -65.5q-39 0 -61.5 23.5t-21.5 62.5q-65 -85 -144 -85q-64 0 -97 47.5t-33 114.5q0 71 30.5 142t85.5 109q46 33 95 33q40 0 70 -22.5t45 -61.5l15 62h68l-33 -150q-28 -126 -28 -172q0 -43 31 -43t65 41
q41 48 63.5 115.5t22.5 134.5q0 111 -66 174t-178 63q-110 0 -203 -60t-145 -157t-52 -206q0 -141 92 -222.5t235 -81.5q184 0 335 146l33 -41q-160 -160 -367 -160q-90 0 -174 35q-103 44 -156.5 127t-53.5 196q0 126 60 236t166.5 176t233.5 66q133 0 215.5 -77.5
t82.5 -210.5zM540 357q0 40 -22.5 68.5t-61.5 28.5q-31 0 -63 -26q-36 -31 -55.5 -84.5t-19.5 -105.5q0 -43 20 -73t60 -30q51 0 85.5 46.5t48.5 104.5q8 37 8 71z" />
    <glyph glyph-name="A" unicode="A" horiz-adv-x="646" 
d="M634 0h-99l-77 216h-269l-79 -216h-100l269 706h98zM430 295l-103 295l-108 -295h211z" />
    <glyph glyph-name="B" unicode="B" horiz-adv-x="688" 
d="M640 195q-1 -83 -43 -126t-92 -57q-39 -12 -136 -12h-16h-276v706h332q93 0 152 -51q58 -49 58 -130q0 -71 -48 -118q-18 -17 -38 -27q-9 -4 -22 -8q34 -10 56 -25q73 -49 73 -152zM520 520q0 58 -44 85q-20 12 -40.5 15t-68.5 3h-201v-214h148q103 0 129 7q28 6 52.5 31
t24.5 73zM543 202q0 30 -9 51q-24 56 -85 70q-27 6 -110 6h-173v-246h209q64 0 85 6q18 3 36 14q47 29 47 99z" />
    <glyph glyph-name="C" unicode="C" horiz-adv-x="764" 
d="M742 256q-5 -27 -17 -56q-9 -22 -23 -46t-39.5 -56t-66 -59t-89.5 -41q-53 -16 -113 -16q-142 0 -234 85q-111 104 -111 286q0 167 95.5 269t261.5 102q170 0 260 -105q37 -44 62 -111l-95 -19q-14 40 -32 66q-67 94 -196 94q-55 0 -103 -20q-42 -18 -72 -49.5t-44.5 -61
t-22.5 -67t-9 -55.5t-1 -38q0 -116 44 -184.5t106 -94.5q46 -18 103 -18q40 0 72 9t69.5 34.5t63.5 73.5q18 35 29 90z" />
    <glyph glyph-name="D" unicode="D" horiz-adv-x="708" 
d="M658 352q0 -70 -12 -121q-6 -26 -16.5 -51t-32.5 -60t-62 -64t-92 -43q-41 -12 -118 -12q-12 0 -34.5 -0.5t-33.5 -0.5h-179v706h280q112 0 190 -66q110 -94 110 -288zM562 353q0 129 -55 197q-18 21 -35 33q-29 21 -60 29q-36 11 -126 11h-111v-541h167q102 0 159 66
q61 69 61 205z" />
    <glyph glyph-name="E" unicode="E" horiz-adv-x="604" 
d="M577 0h-498v706h486v-83h-396v-218h344v-82h-344v-241h408v-82z" />
    <glyph glyph-name="F" unicode="F" horiz-adv-x="542" 
d="M531 622h-359v-208h334v-82h-334v-332h-94v706h453v-84z" />
    <glyph glyph-name="G" unicode="G" horiz-adv-x="812" 
d="M741 0h-82v99q-22 -29 -28 -35q-82 -82 -230 -82q-89 0 -161 34q-31 15 -60.5 38.5t-60.5 62t-50 97.5t-19 130q0 160 96 268q102 112 268 112q71 0 130 -21q104 -35 168 -131q15 -22 29 -53l-98 -25q-17 48 -45 79q-64 73 -181 73q-120 0 -191 -81q-72 -82 -72 -210
q0 -113 55 -191q73 -100 206 -100q89 0 156 46q91 63 88 184h-246v79h328v-373z" />
    <glyph glyph-name="H" unicode="H" horiz-adv-x="729" 
d="M651 0h-95v323h-384v-323h-93v706h93v-300h384v300h95v-706z" />
    <glyph glyph-name="I" unicode="I" horiz-adv-x="229" 
d="M162 0h-95v706h95v-706z" />
    <glyph glyph-name="J" unicode="J" horiz-adv-x="375" 
d="M297 187q0 -36 -1.5 -54t-10 -43t-26.5 -46q-53 -62 -154 -62q-44 0 -96 10v103l12 -6q28 -14 71 -14q21 0 31 2q43 7 62 35q11 16 13.5 39.5t2.5 76.5v478h96v-519z" />
    <glyph glyph-name="K" unicode="K" horiz-adv-x="625" 
d="M624 0h-115l-248 348l-100 -102v-246h-94v706h94v-345l335 345h116l-286 -292z" />
    <glyph glyph-name="L" unicode="L" 
d="M504 0h-436v706h94v-622h342v-84z" />
    <glyph glyph-name="M" unicode="M" horiz-adv-x="812" 
d="M746 0h-94l13 592l-223 -592h-73l-219 583l10 -583h-92v706h122l216 -579l218 579h122v-706z" />
    <glyph glyph-name="N" unicode="N" horiz-adv-x="708" 
d="M630 0h-85l-387 574l9 -574h-89v706h89l382 -566l-4 566h85v-706z" />
    <glyph glyph-name="O" unicode="O" horiz-adv-x="812" 
d="M762 359q0 -146 -74 -246q-98 -131 -284 -131q-147 0 -243 90q-110 103 -110 282q0 160 88 259q49 54 120 82.5t148 28.5q75 0 140 -25q106 -41 160.5 -132t54.5 -208zM660 359q0 121 -55 196q-68 93 -198 93q-134 -1 -200 -97q-54 -78 -54 -198q0 -110 47 -187
q21 -32 45 -53q31 -27 68 -41q43 -16 96 -16q60 0 107 21q60 28 102.5 97t41.5 185z" />
    <glyph glyph-name="P" unicode="P" horiz-adv-x="625" 
d="M614 507q0 -71 -35.5 -126t-101.5 -73q-32 -9 -106 -9h-204v-299h-91v706h305q36 0 54.5 -1t45.5 -8t49 -21q84 -53 84 -169zM521 509q0 27 -7 47q-18 49 -72 64q-21 5 -57 5h-218v-242h197q55 0 76 5q41 11 61 44t20 77z" />
    <glyph glyph-name="Q" unicode="Q" horiz-adv-x="812" 
d="M806 34l-60 -70l-112 95q-104 -77 -231 -77q-136 0 -230 77q-126 104 -126 294q0 28 4 57t16 76t44 93t79 80q91 65 218 65q137 0 230 -75q124 -103 124 -299q0 -120 -65 -222zM661 353q0 118 -54 196q-71 102 -202 102q-107 0 -178 -74q-77 -82 -77 -221q0 -163 98 -244
q64 -54 160 -54q117 0 187 83q66 80 66 212z" />
    <glyph glyph-name="R" unicode="R" horiz-adv-x="667" 
d="M657 0h-112l-193 300h-182v-300h-92v706h263h67q119 -5 174 -71q43 -52 43 -135q0 -123 -94 -171q-28 -15 -72 -23zM532 500q0 74 -56 108q-17 10 -42 15t-36 5h-45h-183v-249h188q38 0 57.5 1.5t48.5 12.5t46 34q22 30 22 73z" />
    <glyph glyph-name="S" unicode="S" horiz-adv-x="667" 
d="M618 203q0 -87 -59 -145q-78 -76 -223 -76q-117 0 -193 49q-33 21 -57 53q-41 55 -49 142l101 13q4 -81 48 -127q54 -56 155 -56q37 0 65 8q111 30 111 133q0 51 -36 80q-28 22 -98 37l-61 13q-109 23 -155 49q-96 52 -96 152q0 82 67 138q70 58 189 58q120 0 189 -53
q37 -28 57 -63q22 -38 33 -101l-95 -6q-2 23 -7 42q-13 45 -54.5 76.5t-120.5 31.5q-98 0 -137 -47q-24 -27 -24 -64q0 -29 17 -52q4 -5 9 -10t9.5 -9t12.5 -8t12 -6.5t13.5 -6t13 -4.5t14.5 -4t13 -3.5l14 -3.5l12 -3l78 -19q23 -5 55 -14q108 -25 151 -96q26 -44 26 -98z
" />
    <glyph glyph-name="T" unicode="T" horiz-adv-x="542" 
d="M528 624h-211v-624h-94v624h-212v82h517v-82z" />
    <glyph glyph-name="U" unicode="U" horiz-adv-x="688" 
d="M611 255q0 -54 -6 -82q-17 -93 -103 -148q-69 -43 -164 -43q-66 0 -115 19q-48 18 -84.5 56t-52.5 87q-10 34 -10 125v437h94v-424q0 -62 3 -82q8 -61 46 -97q24 -23 59 -34q25 -7 61 -7q62 0 105 28q33 21 49.5 56t19.5 63t3 75v422h95v-451z" />
    <glyph glyph-name="V" unicode="V" horiz-adv-x="604" 
d="M592 706l-249 -706h-93l-239 706h100l187 -590l194 590h100z" />
    <glyph glyph-name="W" unicode="W" horiz-adv-x="1021" 
d="M1003 706l-216 -706h-92l-186 585l-180 -585h-94l-217 706h99l167 -585l179 585h92l186 -585l165 585h97z" />
    <glyph glyph-name="X" unicode="X" horiz-adv-x="625" 
d="M605 0h-111l-183 287l-181 -287h-109l235 370l-222 336h112l165 -254l158 254h111l-216 -336z" />
    <glyph glyph-name="Y" unicode="Y" horiz-adv-x="625" 
d="M611 706l-254 -383v-323h-95v323l-248 383h111l186 -299l188 299h112z" />
    <glyph glyph-name="Z" unicode="Z" horiz-adv-x="604" 
d="M571 0h-553v92l436 528h-401v86h508v-88l-434 -533h444v-85z" />
    <glyph glyph-name="bracketleft" unicode="[" horiz-adv-x="277" 
d="M252 -144h-184v923h184v-59h-104v-805h104v-59z" />
    <glyph glyph-name="backslash" unicode="\" horiz-adv-x="333" 
d="M321 0h-75l-233 702h77z" />
    <glyph glyph-name="bracketright" unicode="]" horiz-adv-x="276" 
d="M207 -143h-184v59h104v805h-104v58h184v-922z" />
    <glyph glyph-name="asciicircum" unicode="^" horiz-adv-x="724" 
d="M611 287h-91l-156 339l-157 -339h-94l204 419h91z" />
    <glyph glyph-name="underscore" unicode="_" horiz-adv-x="500" 
d="M510 -214h-520v75h520v-75z" />
    <glyph glyph-name="grave" unicode="`" horiz-adv-x="271" 
d="M201 521h-48l-83 144h89z" />
    <glyph glyph-name="a" unicode="a" horiz-adv-x="500" 
d="M486 3q-27 -9 -51 -9q-32 0 -50 12q-8 6 -16 18q-11 15 -16 40q-71 -77 -161 -77q-35 0 -65 10q-43 15 -69 47.5t-26 77.5q0 62 51 102q59 44 191 53l72 5q0 26 -1 39q-1 18 -4 31.5t-12.5 32.5t-31.5 29.5t-56 10.5q-78 0 -97 -57q-5 -15 -5 -42l-83 5q0 19 8 46
q15 44 56 76.5t117 32.5q36 0 74 -10q81 -21 105 -88q10 -28 10 -101v-154q0 -21 1 -31q3 -36 35 -36q6 0 24 4v-67zM347 193q0 5 -0.5 14t-0.5 14v9q-143 -23 -168 -34q-58 -23 -58 -72q0 -29 22.5 -49.5t66.5 -20.5q20 0 40.5 5t44 18.5t38.5 43.5t15 72z" />
    <glyph glyph-name="b" unicode="b" horiz-adv-x="562" 
d="M524 236q0 -106 -51 -173q-31 -41 -74 -60q-41 -18 -93 -18q-59 0 -108 28q-32 19 -53 48v-61h-80v706h80v-300q12 18 22 27q53 53 140 53q98 0 159 -71q58 -69 58 -179zM439 239q0 62 -22 101q-43 73 -124 73q-64 0 -104 -43q-45 -47 -46 -136q0 -64 22 -104
q39 -77 128 -77q45 0 76 21q70 47 70 165z" />
    <glyph glyph-name="c" unicode="c" 
d="M494 170q-15 -92 -79 -143q-54 -42 -142 -42q-51 0 -89 14q-56 20 -100.5 76.5t-44.5 156.5q1 102 44 160.5t99 79.5q38 14 86 14q84 0 133.5 -35t70.5 -81q9 -18 13 -42l-88 -8q-10 39 -20 55q-34 53 -108 53q-61 0 -101.5 -45.5t-40.5 -145.5q0 -104 54 -156
q37 -34 94 -34q35 0 60 12q35 16 50.5 45t22.5 74z" />
    <glyph glyph-name="d" unicode="d" horiz-adv-x="562" 
d="M497 0h-80v60q-64 -75 -161 -75q-101 0 -159 71q-58 69 -58 181q0 101 48 165q61 84 168 84q75 0 134 -47q15 -12 28 -30v297h80v-706zM419 236q0 36 -6 61q-12 52 -49.5 83.5t-89.5 32.5q-69 0 -109 -49q-40 -48 -40 -130q0 -79 36 -127q40 -51 111 -51q45 0 76 20
q72 45 71 160z" />
    <glyph glyph-name="e" unicode="e" 
d="M483 144q-19 -47 -31 -66q-62 -93 -182 -93q-56 0 -99 19q-54 23 -93 80t-39 156q0 101 53 165q67 81 175 81q38 0 74 -13q83 -29 119 -112q23 -55 23 -140h-358q-1 -104 68 -152q36 -24 85 -24q48 0 79 29q14 11 26 31q6 10 19 50zM396 279q-2 29 -7 46q-12 44 -47 71.5
t-81 27.5q-60 0 -94 -41.5t-40 -103.5h269z" />
    <glyph glyph-name="f" unicode="f" horiz-adv-x="271" 
d="M271 695l-1 -63q-15 5 -43 5q-37 0 -51 -27q-9 -16 -9 -57v-82h89v-66h-89v-405h-78v405h-78v66h78v41q0 94 12 124q25 65 112 65q26 0 58 -6z" />
    <glyph glyph-name="g" unicode="g" horiz-adv-x="562" 
d="M497 25q0 -85 -11 -122q-28 -93 -126 -121q-44 -11 -82 -11q-39 0 -79 11q-118 32 -136 164h90q0 -39 20 -65q33 -45 110 -45q81 0 111 48q13 21 17 49t3 81l-1 54q-61 -83 -154 -83q-56 0 -99 23q-48 26 -83.5 80.5t-35.5 144.5q0 106 49 171q63 82 170 82q30 0 64 -12
q49 -19 90 -67v64h83v-446zM417 242q0 40 -10 72q-16 48 -54 74.5t-87 25.5q-33 0 -61 -14q-34 -17 -58 -58t-24 -107q0 -104 59 -150q36 -28 90 -28t90 31q55 49 55 154z" />
    <glyph glyph-name="h" unicode="h" 
d="M458 0h-81v249q0 80 -9 105q-22 62 -95 62q-70 0 -105 -59q-22 -39 -22 -128v-229h-80v706h80l1 -282q58 62 142 62q76 0 120 -40q11 -11 20 -24q14 -21 21 -49.5t7.5 -44t0.5 -55.5v-273z" />
    <glyph glyph-name="i" unicode="i" horiz-adv-x="208" 
d="M146 614h-77v92h77v-92zM146 0h-77v471h77v-471z" />
    <glyph glyph-name="j" unicode="j" horiz-adv-x="208" 
d="M143 613h-78v93h78v-93zM143 -104q0 -68 -25 -95q-28 -30 -89 -30q-18 0 -52 4v71q28 -3 36 -3q22 0 36 10q11 8 13.5 20.5t2.5 44.5v553h78v-575z" />
    <glyph glyph-name="k" unicode="k" horiz-adv-x="458" 
d="M472 0h-100l-169 226l-57 -60v-166h-81v706h81v-435l188 200h98l-175 -186z" />
    <glyph glyph-name="l" unicode="l" horiz-adv-x="208" 
d="M143 0h-76v706h76v-706z" />
    <glyph glyph-name="m" unicode="m" horiz-adv-x="771" 
d="M707 0h-79v276q0 4 0.5 19.5t0 21t-1.5 19t-4 20.5t-7.5 16.5t-12.5 16.5t-18 12q-20 10 -43 10q-36 -1 -69.5 -23t-43.5 -55q-6 -18 -6 -68v-265h-78v265q0 5 0.5 22.5t0 25t-2 22.5t-5.5 23.5t-11 19t-18 17.5q-20 15 -51 15q-16 0 -29 -4q-26 -7 -50.5 -25t-32.5 -41
q-7 -18 -7 -60v-280h-75v471h75l1 -63q12 15 30 31q53 47 111 47q61 0 98 -44q9 -10 29 -43l16 16q72 72 142 71q64 0 109 -52q16 -19 23.5 -45.5t8 -41.5t0.5 -52v-295z" />
    <glyph glyph-name="n" unicode="n" 
d="M455 0h-79v300q0 63 -36 90q-28 21 -71 21q-52 0 -88 -35q-19 -19 -28 -43q-9 -22 -9 -65v-268h-80v471h80v-69q11 19 25 33q48 51 123 51q16 0 35 -3.5t49.5 -19t49.5 -42.5q14 -20 21 -46.5t7.5 -41t0.5 -52.5v-281z" />
    <glyph glyph-name="o" unicode="o" horiz-adv-x="542" 
d="M502 235q0 -102 -55 -171q-66 -79 -175 -79q-103 0 -163 62q-69 69 -69 186q0 101 54 171q64 82 181 82q52 0 94 -18q53 -22 93.5 -79.5t39.5 -153.5zM416 236q5 66 -24 120q-12 22 -29 36q-35 30 -86 30q-43 0 -73.5 -18.5t-45 -40.5t-22 -54.5t-8.5 -47t-1 -31.5
q0 -20 4 -48q3 -18 9 -36t20.5 -42.5t43.5 -39.5t68 -15q73 0 112 59q32 48 32 128z" />
    <glyph glyph-name="p" unicode="p" horiz-adv-x="562" 
d="M523 234q0 -104 -51 -170q-62 -79 -170 -79q-82 0 -136 46q-10 8 -23 24v-279h-78v695h78l1 -67q22 25 40 39q55 43 127 43q51 0 99 -27q46 -25 79.5 -80t33.5 -145zM441 237q0 46 -12 79q-8 21 -20.5 40t-45 38t-75.5 17q-42 -2 -74 -23q-71 -47 -71 -161q0 -74 37 -123
q20 -25 49 -37q26 -12 62 -12q77 0 115 54q35 49 35 128z" />
    <glyph glyph-name="q" unicode="q" horiz-adv-x="562" 
d="M497 -225h-81v281q-14 -18 -27 -27q-54 -44 -135 -44q-84 0 -139 48q-75 65 -75 196q0 117 56 184q18 23 47 41q51 32 112 32q80 0 135 -53q15 -15 26 -32v70h81v-696zM422 219q0 87 -38 138q-19 26 -48 41q-24 12 -62 13q-52 0 -86 -24q-61 -44 -61 -153q0 -107 54 -152
q38 -32 93 -32q41 0 74 18q74 38 74 151z" />
    <glyph glyph-name="r" unicode="r" horiz-adv-x="313" 
d="M306 391q-36 5 -59 0q-35 -6 -60.5 -29t-34.5 -57q-7 -24 -7 -87v-218h-80v471h80v-86q17 33 44 54q48 38 117 38v-86z" />
    <glyph glyph-name="s" unicode="s" horiz-adv-x="479" 
d="M447 134q0 -39 -21 -71q-51 -78 -178 -78q-86 0 -140 34q-19 12 -34 30q-32 39 -43 103l91 13q0 -55 26 -83q33 -36 105 -36q58 0 88 27q22 20 22 52q0 20 -9 35q-16 26 -89 40l-46 9q-75 15 -111 37q-57 34 -57 100q0 43 25 77q48 63 158 63q66 0 110 -25t66 -58
q18 -28 25 -72l-86 -10q-1 32 -7 44q-11 23 -42 41.5t-77 18.5q-45 0 -69 -21.5t-24 -47.5q0 -12 7 -25q10 -17 35 -27.5t72 -21.5l46 -11q4 -1 43 -12q114 -35 114 -125z" />
    <glyph glyph-name="t" unicode="t" horiz-adv-x="292" 
d="M259 0q-48 -8 -76 -8q-61 0 -80 29q-6 9 -8.5 21.5t-2.5 20.5v36v306h-76v66h76v149h82v-149h85v-66h-85v-270q0 -55 6 -66q8 -14 29 -14q20 0 50 11v-66z" />
    <glyph glyph-name="u" unicode="u" 
d="M454 0h-78l-1 72q-8 -12 -20 -24q-60 -60 -140 -60q-88 0 -126 62q-5 8 -9 17.5t-6.5 17t-4 19t-2.5 17t-1.5 19.5t-0.5 17.5v19.5v18v276h79v-268q0 -72 11 -95q23 -45 86 -45q75 0 112 54q23 34 23 118v236h78v-471z" />
    <glyph glyph-name="v" unicode="v" horiz-adv-x="437" 
d="M426 471l-170 -471h-72l-172 471h83l125 -361l124 361h82z" />
    <glyph glyph-name="w" unicode="w" horiz-adv-x="729" 
d="M719 471l-173 -471h-70l-113 351l-115 -351h-73l-164 471h86l118 -350l116 350h70l111 -350l123 350h84z" />
    <glyph glyph-name="x" unicode="x" horiz-adv-x="396" 
d="M387 0h-90l-100 168l-98 -168h-90l146 239l-139 232h92l94 -162l95 162h90l-142 -232z" />
    <glyph glyph-name="y" unicode="y" horiz-adv-x="437" 
d="M425 471l-198 -557q-21 -57 -30 -74q-20 -40 -46 -56.5t-71 -16.5q-35 0 -71 10v72q29 -8 51 -8q29 0 44 10q26 17 50 88l20 58l-160 474h85l118 -374l125 374h83z" />
    <glyph glyph-name="z" unicode="z" horiz-adv-x="417" 
d="M389 0h-376v66l271 336h-245v69h344v-64l-274 -341h280v-66z" />
    <glyph glyph-name="braceleft" unicode="{" horiz-adv-x="281" 
d="M268 -148h-38q-70 0 -99 35q-17 20 -23 44q-6 26 -6 83v6v161q0 55 -10 73q-16 28 -75 34v60q37 2 56 14q17 10 23 29t6 63v161v6q0 57 6 83q18 75 122 78l38 1v-58h-17q-36 0 -52 -16q-9 -11 -12 -22q-4 -15 -4 -71v-164q0 -62 -16.5 -89t-65.5 -46q30 -9 47 -24
q20 -18 27.5 -41.5t7.5 -68.5v-165q0 -55 4 -70q10 -38 65 -38h16v-58z" />
    <glyph glyph-name="bar" unicode="|" horiz-adv-x="236" 
d="M157 -143h-80v922h80v-922z" />
    <glyph glyph-name="braceright" unicode="}" horiz-adv-x="281" 
d="M263 287q-37 -4 -56 -15q-17 -10 -23 -28.5t-6 -62.5l1 -162v-5q0 -52 -7 -84q-19 -78 -121 -78h-39v58h17q37 0 52 16q9 9 12 22q5 17 5 70l-1 164q-1 62 16 89t66 47q-28 7 -47 24q-20 17 -27.5 41t-7.5 69l1 164q0 52 -5 71q-10 37 -65 37h-16v58h38q71 0 99 -35
q17 -21 23 -43q7 -32 7 -84v-5l-1 -162q0 -52 10 -72q16 -29 75 -34v-60z" />
    <glyph glyph-name="asciitilde" unicode="~" horiz-adv-x="724" 
d="M651 315q-39 -48 -72 -70q-47 -30 -93 -30q-28 0 -66 15q-22 8 -54 23l-35 17q-65 31 -104 31q-18 0 -33 -6q-16 -6 -28.5 -18t-40.5 -44l-6 -7l-45 61q26 37 53 61q45 40 105 40q41 0 133 -41l45 -20q55 -25 79 -25q35 0 66 23q20 14 51 50z" />
    <glyph glyph-name="exclamdown" unicode="&#xa1;" horiz-adv-x="271" 
d="M156 616h-79v90h79v-90zM156 0h-79v288l24 271h31l24 -282v-277z" />
    <glyph glyph-name="cent" unicode="&#xa2;" horiz-adv-x="500" 
d="M484 172q-27 -128 -124 -168q-26 -11 -69 -16v-103h-60v103q-80 16 -121 51q-43 38 -62.5 92.5t-19.5 105.5q0 65 29 126.5t96 94.5q27 14 79 23v96h59v-95q25 -4 44.5 -10t48 -21.5t52 -47.5t38.5 -79l-90 -8q-8 78 -93 101v-364q99 17 105 127zM231 54v365
q-28 -9 -33 -12q-85 -44 -85 -170q0 -121 74 -166q29 -17 44 -17z" />
    <glyph glyph-name="sterling" unicode="&#xa3;" horiz-adv-x="667" 
d="M653 172q-4 -53 -29.5 -100.5t-69.5 -69.5q-28 -14 -69 -14q-49 0 -104 19q-16 6 -44 19t-38 17q-4 -3 -11 -8.5t-13 -10t-12 -8.5q-47 -31 -105 -31q-18 0 -36 5q-42 11 -59 36.5t-17 50.5q0 24 13 44q28 43 96 43q47 0 100 -18q3 14 2 22q-2 28 -17 65q-11 24 -27 48
h-177v65l131 1q-61 99 -61 167q0 69 46 122q33 38 83 59.5t78.5 25t54.5 3.5q87 0 150 -42q36 -24 65.5 -68.5t31.5 -114.5l-105 -10q3 23 -1 46q-8 43 -42 80t-106 37q-32 0 -58 -9q-89 -29 -89 -120q0 -26 8 -52t15.5 -40t27.5 -44t26 -41h209v-65h-173q2 -5 6.5 -19
t6 -19t4 -15t3.5 -19.5t1 -20.5q0 -33 -11 -76q7 -4 13 -8q13 -8 47.5 -20.5t63.5 -12.5q46 0 72 30.5t27 76.5zM227 77q-12 5 -36 11q-12 6 -34 6q-20 0 -28 -12q-4 -4 -4 -12q0 -9 8.5 -16.5t23.5 -7.5q35 0 70 31z" />
    <glyph glyph-name="currency" unicode="&#xa4;" horiz-adv-x="663" 
d="M618 569l-75 -75q51 -76 51 -155q0 -82 -52 -156l75 -76l-56 -55l-75 76q-45 -30 -77.5 -41t-77.5 -11q-46 0 -79.5 11.5t-75.5 40.5l-76 -74l-55 55l76 74q-52 73 -52 157q0 81 52 155l-74 74l55 55l74 -74q72 52 156 52q90 0 155 -52l75 75zM508 338q0 77 -50 128.5
t-126 51.5q-75 0 -126 -51t-51 -127q0 -77 51.5 -128t128.5 -51q73 0 123 51t50 126z" />
    <glyph glyph-name="yen" unicode="&#xa5;" horiz-adv-x="625" 
d="M611 677l-171 -247h112v-72h-159l-38 -52h197v-72h-195v-234h-94v234h-194v72h194l-32 51h-162v71h113l-168 249h112l185 -287l189 287h111z" />
    <glyph glyph-name="brokenbar" unicode="&#xa6;" horiz-adv-x="252" 
d="M167 383h-82v402h82v-402zM167 -137h-82v401h82v-401z" />
    <glyph glyph-name="section" unicode="&#xa7;" horiz-adv-x="625" 
d="M589 297q0 -48 -25.5 -90.5t-68.5 -66.5q50 -45 50 -100q0 -32 -18 -65q-26 -49 -76.5 -73t-110.5 -24q-101 0 -261 81l40 74q48 -34 108 -55t116 -21q40 0 71.5 17t31.5 54v3q0 15 -4.5 26.5t-16.5 20t-20 13t-27 12t-24 9.5q-3 1 -51.5 22t-69 31t-59 30t-63 38.5
t-39.5 37.5q-35 43 -35 100q0 46 26.5 87.5t68.5 65.5q-42 42 -42 89q0 49 32.5 87.5t81.5 55.5q42 15 87 15h6q82 0 189 -48q6 -3 25 -12t29 -13l-40 -71q-41 24 -66 36t-63.5 23.5t-75.5 11.5q-24 0 -48 -6t-45 -22.5t-21 -41.5q0 -16 5.5 -27.5t21 -21.5t22 -13t28.5 -11
q2 -1 3.5 -1.5t3.5 -1.5q135 -51 172 -69q71 -34 111.5 -76.5t40.5 -109.5zM502 288q0 26 -17 51q-11 16 -29.5 31t-45 28.5t-44.5 21.5t-50 20t-41 16l-64 26q-32 -11 -57.5 -40.5t-25.5 -60.5q0 -42 38 -73q16 -14 52.5 -33.5t66 -33t76 -34t54.5 -24.5q35 13 61 41.5
t26 63.5z" />
    <glyph glyph-name="dieresis" unicode="&#xa8;" horiz-adv-x="271" 
d="M278 541h-89v103h89v-103zM80 541h-87v103h87v-103z" />
    <glyph glyph-name="copyright" unicode="&#xa9;" horiz-adv-x="840" 
d="M776 360q0 -155 -102 -259t-255 -104q-148 0 -251.5 104t-103.5 252q0 149 104 252.5t253 103.5q146 0 250.5 -103t104.5 -246zM740 346q0 140 -92 234.5t-228 94.5q-133 0 -226.5 -94.5t-93.5 -228.5t93 -227.5t227 -93.5q130 0 225 93.5t95 221.5zM620 276
q-45 -157 -197 -157q-94 0 -151.5 62.5t-57.5 163.5q0 106 61 173.5t158 67.5q71 0 115 -33t68 -105l-67 -19q-21 52 -46.5 72t-70.5 20q-66 0 -105 -46.5t-39 -125.5q0 -75 37 -119t99 -44q50 0 80.5 25t47.5 79z" />
    <glyph glyph-name="ordfeminine" unicode="&#xaa;" horiz-adv-x="313" 
d="M298 429q-12 -5 -27 -6q-40 -1 -57 37q-39 -42 -96 -41q-36 0 -62 20.5t-26 58.5q0 28 12.5 47t39 29t55.5 14.5t74 7.5v11q0 34 -11 52t-45 18q-57 0 -57 -53v-6l-55 4l1 7q1 7 3.5 16.5t5.5 16.5q25 56 101 56q80 0 101 -59q6 -14 6 -40v-109q0 -40 22 -40q8 0 15 5
v-46zM211 543v17l-21 -3q-76 -11 -91 -28q-11 -12 -11 -26q-1 -21 14 -31t35 -10q29 1 51.5 19t22.5 62z" />
    <glyph glyph-name="guillemotleft" unicode="&#xab;" horiz-adv-x="396" 
d="M334 141l-134 113v83l134 116v-89l-80 -71l80 -66v-86zM177 137l-135 113v85l135 117v-91l-78 -68l78 -67v-89z" />
    <glyph glyph-name="logicalnot" unicode="&#xac;" horiz-adv-x="724" 
d="M636 6h-89v255h-477v80h566v-335z" />
    <glyph glyph-name="registered" unicode="&#xae;" horiz-adv-x="840" 
d="M776 360q0 -155 -102 -259t-255 -104q-148 0 -251.5 104t-103.5 252q0 149 104 252.5t253 103.5q146 0 250.5 -103t104.5 -246zM740 346q0 140 -92 234.5t-228 94.5q-133 0 -226 -94.5t-93 -228.5t93 -227.5t226 -93.5q130 0 225 93.5t95 221.5zM576 128h-77l-95 189h-54
v-189h-69v450h130q83 0 121 -31t38 -98q0 -100 -96 -126zM500 448q0 37 -23 53t-76 16h-50v-139h57q48 0 70 16.5t22 53.5z" />
    <glyph glyph-name="macron" unicode="&#xaf;" horiz-adv-x="271" 
d="M278 541h-285v68h285v-68z" />
    <glyph glyph-name="degree" unicode="&#xb0;" horiz-adv-x="354" 
d="M338 594q0 -67 -47 -114.5t-114 -47.5t-114 47.5t-47 114.5t47 114t114 47q68 0 114.5 -46.5t46.5 -114.5zM256 596q0 33 -23 56t-56 23t-56 -23t-23 -56q0 -32 23.5 -55.5t55.5 -23.5q33 0 56 23t23 56z" />
    <glyph glyph-name="plusminus" unicode="&#xb1;" horiz-adv-x="724" 
d="M631 355h-225v-219h-88v219h-224v78h224v217h88v-217h225v-78zM630 0h-536l-1 79h537v-79z" />
    <glyph glyph-name="twosuperior" unicode="&#xb2;" horiz-adv-x="375" 
d="M341 233h-297v61l10 6q51 31 105.5 76.5t81.5 87.5q29 44 29 82q0 36 -23 57.5t-58 22.5q-41 1 -61.5 -23.5t-20.5 -63.5q0 -16 8 -52h-65q-6 26 -6 53q0 64 38.5 102.5t103.5 40.5q64 2 107 -35.5t43 -102.5q0 -123 -204 -256h209v-56z" />
    <glyph glyph-name="threesuperior" unicode="&#xb3;" horiz-adv-x="375" 
d="M351 357q0 -53 -40 -93.5t-123 -39.5q-118 3 -154 86q-13 31 -13 66h67q0 -96 103 -94q10 0 20.5 1.5t29 8t29.5 23.5t11 43q0 71 -85 71h-43v59h33h11t20 3.5t25 9.5t19 20t9 33q0 35 -25.5 53.5t-58.5 18.5q-72 0 -84 -75q-2 -14 -2 -29l-65 1q0 42 10 69q34 91 140 91
q61 0 106.5 -33.5t45.5 -96.5q0 -69 -72 -91q29 -7 41 -15q45 -28 45 -90z" />
    <glyph glyph-name="acute" unicode="&#xb4;" horiz-adv-x="271" 
d="M199 666l-86 -144h-41l41 144h86z" />
    <glyph glyph-name="mu" unicode="&#xb5;" horiz-adv-x="564" 
d="M530 -2q-28 -7 -43 -7q-41 0 -61.5 18.5t-26.5 61.5q-23 -44 -51.5 -63t-74.5 -19q-68 0 -109 59l4 -264h-82v686h80v-236q0 -102 22 -134q28 -44 86 -44q68 0 98 68q17 38 17 130l1 216h79v-347q0 -40 7 -54t26 -14q12 0 28 7v-64z" />
    <glyph glyph-name="paragraph" unicode="&#xb6;" horiz-adv-x="642" 
d="M525 652h-33v-819h-57v819h-146v-819h-57v490q-28 4 -46 11q-51 19 -80.5 66t-29.5 109q0 88 55 141q31 30 69.5 43t99.5 13h225v-54z" />
    <glyph glyph-name="periodcentered" unicode="&#xb7;" horiz-adv-x="200" 
d="M151 228h-102v124h102v-124z" />
    <glyph glyph-name="cedilla" unicode="&#xb8;" horiz-adv-x="271" 
d="M203 -117q0 -21 -13 -41q-28 -41 -114 -45l1 23q9 -3 23 1q28 7 28 35q0 13 -6 19q-5 8 -13.5 13t-22 9.5t-18.5 6.5l73 112l29 -7l-29 -52q5 -3 15.5 -8.5t15.5 -8.5q31 -23 31 -57z" />
    <glyph glyph-name="onesuperior" unicode="&#xb9;" horiz-adv-x="375" 
d="M233 233h-67v327h-86v45q45 3 70 18.5t33 60.5h50v-451z" />
    <glyph glyph-name="ordmasculine" unicode="&#xba;" horiz-adv-x="333" 
d="M307 565q0 -64 -37.5 -106t-101.5 -42q-64 -1 -102 40t-40 104q0 28 7 52q9 34 28.5 57t42.5 31.5t37 11.5t27 3q65 0 102 -44.5t37 -106.5zM250 567q0 42 -20.5 72.5t-63.5 31.5q-36 0 -59.5 -26t-23.5 -80q0 -18 5 -40q17 -62 77 -64q37 -1 61 24.5t24 81.5z" />
    <glyph glyph-name="guillemotright" unicode="&#xbb;" horiz-adv-x="396" 
d="M353 253l-135 -117v90l79 69l-79 66v89l135 -113v-84zM196 250l-134 -116v90l80 70l-80 67v85l134 -113v-83z" />
    <glyph glyph-name="onequarter" unicode="&#xbc;" horiz-adv-x="875" 
d="M853 109h-65v-109h-63v109h-203v58l214 283h53v-285h64v-56zM620 656l-317 -685l-55 26l318 685zM233 233h-67v327h-86v45q45 3 70 18.5t33 60.5h50v-451zM728 356l-139 -191h137z" />
    <glyph glyph-name="onehalf" unicode="&#xbd;" horiz-adv-x="875" 
d="M841 0h-297v61l11 6q61 33 110 78.5t72 78.5q33 48 33 90q0 11 -3.5 22.5t-11.5 25t-25 22.5t-41 10q-41 1 -61.5 -23.5t-20.5 -64.5q0 -16 8 -51h-65q-6 26 -6 52q0 65 38.5 103t103.5 40q63 2 106 -35.5t43 -102.5q0 -124 -203 -255h209v-57zM596 656l-317 -685l-55 26
l318 685zM233 233h-67v327h-86v45q45 3 70 18.5t33 60.5h50v-451z" />
    <glyph glyph-name="threequarters" unicode="&#xbe;" horiz-adv-x="875" 
d="M853 109h-65v-109h-63v109h-203v58l214 283h53v-285h64v-56zM663 656l-317 -685l-55 26l318 685zM351 357q0 -53 -40 -93.5t-123 -39.5q-118 3 -154 86q-13 31 -13 66h67q0 -96 103 -94q10 0 20.5 1.5t29 8t29.5 23.5t11 43q0 71 -85 71h-43v59h33h11t20 3.5t25 9.5
t19 20t9 33q0 35 -25.5 53.5t-58.5 18.5q-72 0 -84 -75q-2 -14 -2 -29l-65 1q0 42 10 69q34 91 140 91q61 0 106.5 -33.5t45.5 -96.5q0 -69 -72 -91q29 -7 41 -15q45 -28 45 -90zM728 356l-139 -191h137z" />
    <glyph glyph-name="questiondown" unicode="&#xbf;" horiz-adv-x="562" 
d="M311 609h-89v97h89v-97zM492 232q0 -103 -53 -165q-65 -73 -171 -73q-95 0 -163 61t-68 155q0 54 27 101t75 71q37 19 88 22v152h78v-236h-32q-56 0 -94 -19q-23 -11 -36 -30q-24 -29 -24 -71q0 -35 16 -63q15 -26 49 -47t86 -21q43 0 74 17q61 35 61 129q0 3 -0.5 9
t-0.5 9z" />
    <glyph glyph-name="Agrave" unicode="&#xc0;" horiz-adv-x="646" 
d="M365 771h-60l-87 124h100zM634 0h-99l-77 216h-269l-79 -216h-100l269 706h98zM430 295l-103 295l-108 -295h211z" />
    <glyph glyph-name="Aacute" unicode="&#xc1;" horiz-adv-x="646" 
d="M428 895l-87 -124h-60l48 124h99zM634 0h-99l-77 216h-269l-79 -216h-100l269 706h98zM430 295l-103 295l-108 -295h211z" />
    <glyph glyph-name="Acircumflex" unicode="&#xc2;" horiz-adv-x="646" 
d="M461 771h-77l-62 74l-59 -74h-75l101 124h65zM634 0h-99l-77 216h-269l-79 -216h-100l269 706h98zM430 295l-103 295l-108 -295h211z" />
    <glyph glyph-name="Atilde" unicode="&#xc3;" horiz-adv-x="646" 
d="M469 882q-3 -20 -11 -41q-20 -61 -72 -60q-22 0 -83 24q-29 12 -45 12q-8 0 -11 -1q-17 -6 -21 -30h-49q10 62 41 85q19 14 47 14q15 0 30 -4.5t33 -12.5t29 -11q12 -6 32 -6q11 0 16 4q9 6 17 27h47zM634 0h-99l-77 216h-269l-79 -216h-100l269 706h98zM430 295
l-103 295l-108 -295h211z" />
    <glyph glyph-name="Adieresis" unicode="&#xc4;" horiz-adv-x="646" 
d="M467 781h-87v102h87v-102zM271 781h-87v102h87v-102zM634 0h-99l-77 216h-269l-79 -216h-100l269 706h98zM430 295l-103 295l-108 -295h211z" />
    <glyph glyph-name="Aring" unicode="&#xc5;" horiz-adv-x="646" 
d="M423 848q0 -39 -28.5 -67t-67.5 -28q-40 0 -67.5 28t-27.5 68q0 39 28 66.5t68 27.5q39 0 67 -27.5t28 -67.5zM634 0h-99l-77 216h-269l-79 -216h-100l269 706h98zM378 849q0 21 -15 35.5t-36 14.5t-35.5 -15t-14.5 -36t15 -35.5t36 -14.5q20 0 35 15t15 36zM430 295
l-103 295l-108 -295h211z" />
    <glyph glyph-name="AE" unicode="&#xc6;" horiz-adv-x="1042" 
d="M1014 0h-500v232h-252l-154 -232h-110l483 706h521v-83h-395v-231h319v-79h-319v-231h407v-82zM514 313v302l-197 -302h197z" />
    <glyph glyph-name="Ccedilla" unicode="&#xc7;" horiz-adv-x="764" 
d="M742 256q-16 -80 -73 -150.5t-139 -100.5q-37 -14 -109 -20l-16 -28q2 -2 14.5 -8.5t21.5 -13t17.5 -20.5t8.5 -32q0 -38 -34 -62t-93 -24v23q2 -1 7 -1q22 0 34 12t11 26q-1 18 -14.5 27.5t-45.5 19.5l52 79q-103 11 -143 30q-81 36 -136.5 123.5t-55.5 218.5
q1 166 96.5 267.5t261.5 101.5q135 0 214 -62.5t107 -153.5l-95 -20q-18 51 -39 76q-68 85 -188 85q-46 0 -88 -15t-80.5 -46.5t-61.5 -91.5t-23 -141q0 -55 14 -105.5t42.5 -94t79 -69.5t116.5 -26q93 0 156 55t79 153z" />
    <glyph glyph-name="Egrave" unicode="&#xc8;" horiz-adv-x="604" 
d="M354 771h-59l-87 124h99zM577 0h-498v706h486v-83h-396v-218h344v-82h-344v-241h408v-82z" />
    <glyph glyph-name="Eacute" unicode="&#xc9;" horiz-adv-x="604" 
d="M417 895l-87 -124h-60l48 124h99zM577 0h-498v706h486v-83h-396v-218h344v-82h-344v-241h408v-82z" />
    <glyph glyph-name="Ecircumflex" unicode="&#xca;" horiz-adv-x="604" 
d="M456 771h-77l-62 74l-59 -74h-75l101 124h65zM577 0h-498v706h486v-83h-396v-218h344v-82h-344v-241h408v-82z" />
    <glyph glyph-name="Edieresis" unicode="&#xcb;" horiz-adv-x="604" 
d="M460 781h-88v102h88v-102zM263 781h-87v102h87v-102zM577 0h-498v706h486v-83h-396v-218h344v-82h-344v-241h408v-82z" />
    <glyph glyph-name="Igrave" unicode="&#xcc;" horiz-adv-x="229" 
d="M156 771h-59l-87 124h99zM162 0h-95v706h95v-706z" />
    <glyph glyph-name="Iacute" unicode="&#xcd;" horiz-adv-x="229" 
d="M219 895l-86 -124h-60l48 124h98zM162 0h-95v706h95v-706z" />
    <glyph glyph-name="Icircumflex" unicode="&#xce;" horiz-adv-x="229" 
d="M253 771h-77l-62 74l-59 -74h-75l101 124h65zM162 0h-95v706h95v-706z" />
    <glyph glyph-name="Idieresis" unicode="&#xcf;" horiz-adv-x="229" 
d="M256 781h-87v102h87v-102zM60 781h-87v102h87v-102zM162 0h-95v706h95v-706z" />
    <glyph glyph-name="Eth" unicode="&#xd0;" horiz-adv-x="708" 
d="M658 347v-26t-4 -43.5t-11.5 -59.5t-24.5 -61.5t-40.5 -62.5t-62 -50t-86.5 -35q-37 -8 -107 -8q-12 0 -32.5 -0.5t-32.5 -0.5h-179v341h-65v60h65v305h248q88 0 133 -15q91 -31 145.5 -117t53.5 -227zM562 349q0 222 -153 264q-39 10 -108 10h-126v-222h168v-60h-168
v-259h125q90 0 132 17q61 24 95 87.5t35 162.5z" />
    <glyph glyph-name="Ntilde" unicode="&#xd1;" horiz-adv-x="708" 
d="M500 882q-3 -24 -10 -41q-25 -61 -73 -60q-21 0 -83 24q-29 12 -45 12q-6 0 -10 -1q-18 -8 -22 -30h-48q9 62 40 85q19 14 47 14q15 0 30 -4.5t33.5 -12.5t28.5 -11q18 -6 33 -6q10 0 15 4q10 6 17 27h47zM630 0h-85l-387 574l9 -574h-89v706h89l382 -566l-4 566h85v-706
z" />
    <glyph glyph-name="Ograve" unicode="&#xd2;" horiz-adv-x="812" 
d="M448 771h-59l-87 124h99zM762 359q0 -146 -74 -246q-98 -131 -284 -131q-147 0 -243 90q-110 103 -110 282q0 160 88 259q49 54 120 82.5t148 28.5q75 0 140 -25q106 -41 160.5 -132t54.5 -208zM660 359q0 121 -55 196q-68 93 -198 93q-134 -1 -200 -97q-54 -78 -54 -198
q0 -110 47 -187q21 -32 45 -53q31 -27 68 -41q43 -16 96 -16q60 0 107 21q60 28 102.5 97t41.5 185z" />
    <glyph glyph-name="Oacute" unicode="&#xd3;" horiz-adv-x="812" 
d="M511 895l-87 -124h-60l48 124h99zM762 359q0 -146 -74 -246q-98 -131 -284 -131q-147 0 -243 90q-110 103 -110 282q0 160 88 259q49 54 120 82.5t148 28.5q75 0 140 -25q106 -41 160.5 -132t54.5 -208zM660 359q0 121 -55 196q-68 93 -198 93q-134 -1 -200 -97
q-54 -78 -54 -198q0 -110 47 -187q21 -32 45 -53q31 -27 68 -41q43 -16 96 -16q60 0 107 21q60 28 102.5 97t41.5 185z" />
    <glyph glyph-name="Ocircumflex" unicode="&#xd4;" horiz-adv-x="812" 
d="M545 771h-77l-62 74l-60 -74h-74l100 124h65zM762 359q0 -146 -74 -246q-98 -131 -284 -131q-147 0 -243 90q-110 103 -110 282q0 160 88 259q49 54 120 82.5t148 28.5q75 0 140 -25q106 -41 160.5 -132t54.5 -208zM660 359q0 121 -55 196q-68 93 -198 93
q-134 -1 -200 -97q-54 -78 -54 -198q0 -110 47 -187q21 -32 45 -53q31 -27 68 -41q43 -16 96 -16q60 0 107 21q60 28 102.5 97t41.5 185z" />
    <glyph glyph-name="Otilde" unicode="&#xd5;" horiz-adv-x="812" 
d="M552 882q-3 -24 -10 -41q-25 -61 -73 -60q-22 0 -82 24q-31 12 -46 12q-6 0 -10 -1q-18 -8 -22 -30h-48q9 62 40 85q19 14 47 14q15 0 30 -4.5t33.5 -12.5t28.5 -11q18 -6 33 -6q10 0 15 4q10 6 17 27h47zM762 359q0 -146 -74 -246q-98 -131 -284 -131q-147 0 -243 90
q-110 103 -110 282q0 160 88 259q49 54 120 82.5t148 28.5q75 0 140 -25q106 -41 160.5 -132t54.5 -208zM660 359q0 121 -55 196q-68 93 -198 93q-134 -1 -200 -97q-54 -78 -54 -198q0 -110 47 -187q21 -32 45 -53q31 -27 68 -41q43 -16 96 -16q60 0 107 21q60 28 102.5 97
t41.5 185z" />
    <glyph glyph-name="Odieresis" unicode="&#xd6;" horiz-adv-x="812" 
d="M552 781h-87v102h87v-102zM356 781h-87v102h87v-102zM762 359q0 -146 -74 -246q-98 -131 -284 -131q-147 0 -243 90q-110 103 -110 282q0 160 88 259q49 54 120 82.5t148 28.5q75 0 140 -25q106 -41 160.5 -132t54.5 -208zM660 359q0 121 -55 196q-68 93 -198 93
q-134 -1 -200 -97q-54 -78 -54 -198q0 -110 47 -187q21 -32 45 -53q31 -27 68 -41q43 -16 96 -16q60 0 107 21q60 28 102.5 97t41.5 185z" />
    <glyph glyph-name="multiply" unicode="&#xd7;" horiz-adv-x="724" 
d="M576 146l-61 -62l-163 159l-158 -160l-56 55l158 160l-164 161l62 62l163 -160l157 160l56 -55l-157 -160z" />
    <glyph glyph-name="Oslash" unicode="&#xd8;" horiz-adv-x="812" 
d="M763 355q0 -78 -30 -154q-43 -106 -130.5 -162.5t-203.5 -56.5q-72 0 -126 21t-112 68l-65 -62l-49 50l69 66q-66 114 -66 228q0 33 5 68.5t29.5 96t67.5 105.5q94 101 252 101q39 0 82 -8q80 -17 160 -82l69 65l48 -51l-70 -68q70 -102 70 -225zM580 571q-70 78 -179 78
q-114 0 -181 -82q-66 -80 -66 -217q0 -82 32 -157zM659 341q0 93 -38 171l-397 -381q76 -75 182 -75q99 0 167 63q86 81 86 222z" />
    <glyph glyph-name="Ugrave" unicode="&#xd9;" horiz-adv-x="688" 
d="M386 771h-60l-87 124h99zM611 255q0 -54 -6 -82q-17 -93 -103 -148q-69 -43 -164 -43q-66 0 -115 19q-48 18 -84.5 56t-52.5 87q-10 34 -10 125v437h94v-424q0 -62 3 -82q8 -61 46 -97q24 -23 59 -34q25 -7 61 -7q62 0 105 28q33 21 49.5 56t19.5 63t3 75v422h95v-451z
" />
    <glyph glyph-name="Uacute" unicode="&#xda;" horiz-adv-x="688" 
d="M449 895l-87 -124h-60l48 124h99zM611 255q0 -54 -6 -82q-17 -93 -103 -148q-69 -43 -164 -43q-66 0 -115 19q-48 18 -84.5 56t-52.5 87q-10 34 -10 125v437h94v-424q0 -62 3 -82q8 -61 46 -97q24 -23 59 -34q25 -7 61 -7q62 0 105 28q33 21 49.5 56t19.5 63t3 75v422h95
v-451z" />
    <glyph glyph-name="Ucircumflex" unicode="&#xdb;" horiz-adv-x="688" 
d="M482 771h-77l-62 74l-59 -74h-75l101 124h65zM611 255q0 -54 -6 -82q-17 -93 -103 -148q-69 -43 -164 -43q-66 0 -115 19q-48 18 -84.5 56t-52.5 87q-10 34 -10 125v437h94v-424q0 -62 3 -82q8 -61 46 -97q24 -23 59 -34q25 -7 61 -7q62 0 105 28q33 21 49.5 56t19.5 63
t3 75v422h95v-451z" />
    <glyph glyph-name="Udieresis" unicode="&#xdc;" horiz-adv-x="688" 
d="M485 781h-87v102h87v-102zM288 781h-87v102h87v-102zM611 255q0 -54 -6 -82q-17 -93 -103 -148q-69 -43 -164 -43q-66 0 -115 19q-48 18 -84.5 56t-52.5 87q-10 34 -10 125v437h94v-424q0 -62 3 -82q8 -61 46 -97q24 -23 59 -34q25 -7 61 -7q62 0 105 28q33 21 49.5 56
t19.5 63t3 75v422h95v-451z" />
    <glyph glyph-name="Yacute" unicode="&#xdd;" horiz-adv-x="625" 
d="M417 895l-87 -124h-60l48 124h99zM611 706l-254 -383v-323h-95v323l-248 383h111l186 -299l188 299h112z" />
    <glyph glyph-name="Thorn" unicode="&#xde;" horiz-adv-x="625" 
d="M614 379q1 -64 -31.5 -121t-100.5 -78q-32 -10 -99 -10h-216v-170h-91v706h91v-129h230q58 0 93 -11q64 -21 93.5 -73.5t30.5 -113.5zM521 379q2 116 -136 116h-218v-242h197h15h16t15.5 0.5t17 2t15.5 4t16.5 6.5t15 9t15 13t12.5 17q19 29 19 74z" />
    <glyph glyph-name="germandbls" unicode="&#xdf;" horiz-adv-x="542" 
d="M503 232q0 -157 -97 -213q-52 -30 -120 -30q-42 0 -94 15v84q59 -21 99 -21q67 0 101 46q30 41 30 111q0 64 -34 104q-27 31 -68 43t-120 12l1 79q100 -10 142 32q27 27 27 66q0 44 -32 67.5t-77 22.5q-46 0 -73 -19q-23 -15 -33.5 -42.5t-11 -42t-0.5 -54.5v-492h-79
v497q0 38 1 57t8.5 49t23.5 52q49 69 162 69q79 0 128 -35q63 -45 63 -126q0 -67 -43 -108q-18 -18 -47 -30q34 -5 60.5 -20t41.5 -36t22.5 -37t11.5 -31q7 -29 7 -69z" />
    <glyph glyph-name="agrave" unicode="&#xe0;" horiz-adv-x="500" 
d="M279 521h-47l-83 144h89zM486 3q-27 -9 -51 -9q-32 0 -50 12q-8 6 -16 18q-11 15 -16 40q-71 -77 -161 -77q-35 0 -65 10q-43 15 -69 47.5t-26 77.5q0 62 51 102q59 44 191 53l72 5q0 26 -1 39q-1 18 -4 31.5t-12.5 32.5t-31.5 29.5t-56 10.5q-78 0 -97 -57
q-5 -15 -5 -42l-83 5q0 19 8 46q15 44 56 76.5t117 32.5q36 0 74 -10q81 -21 105 -88q10 -28 10 -101v-154q0 -21 1 -31q3 -36 35 -36q6 0 24 4v-67zM347 193q0 5 -0.5 14t-0.5 14v9q-143 -23 -168 -34q-58 -23 -58 -72q0 -29 22.5 -49.5t66.5 -20.5q20 0 40.5 5t44 18.5
t38.5 43.5t15 72z" />
    <glyph glyph-name="aacute" unicode="&#xe1;" horiz-adv-x="500" 
d="M354 666l-86 -144h-41l41 144h86zM486 3q-27 -9 -51 -9q-32 0 -50 12q-8 6 -16 18q-11 15 -16 40q-71 -77 -161 -77q-35 0 -65 10q-43 15 -69 47.5t-26 77.5q0 62 51 102q59 44 191 53l72 5q0 26 -1 39q-1 18 -4 31.5t-12.5 32.5t-31.5 29.5t-56 10.5q-78 0 -97 -57
q-5 -15 -5 -42l-83 5q0 19 8 46q15 44 56 76.5t117 32.5q36 0 74 -10q81 -21 105 -88q10 -28 10 -101v-154q0 -21 1 -31q3 -36 35 -36q6 0 24 4v-67zM347 193q0 5 -0.5 14t-0.5 14v9q-143 -23 -168 -34q-58 -23 -58 -72q0 -29 22.5 -49.5t66.5 -20.5q20 0 40.5 5t44 18.5
t38.5 43.5t15 72z" />
    <glyph glyph-name="acircumflex" unicode="&#xe2;" horiz-adv-x="500" 
d="M386 523h-75l-61 95l-59 -95h-70l94 151h67zM486 3q-27 -9 -51 -9q-32 0 -50 12q-8 6 -16 18q-11 15 -16 40q-71 -77 -161 -77q-35 0 -65 10q-43 15 -69 47.5t-26 77.5q0 62 51 102q59 44 191 53l72 5q0 26 -1 39q-1 18 -4 31.5t-12.5 32.5t-31.5 29.5t-56 10.5
q-78 0 -97 -57q-5 -15 -5 -42l-83 5q0 19 8 46q15 44 56 76.5t117 32.5q36 0 74 -10q81 -21 105 -88q10 -28 10 -101v-154q0 -21 1 -31q3 -36 35 -36q6 0 24 4v-67zM347 193q0 5 -0.5 14t-0.5 14v9q-143 -23 -168 -34q-58 -23 -58 -72q0 -29 22.5 -49.5t66.5 -20.5
q20 0 40.5 5t44 18.5t38.5 43.5t15 72z" />
    <glyph glyph-name="atilde" unicode="&#xe3;" horiz-adv-x="500" 
d="M396 635v-3q-1 -4 -2 -9t-3 -11.5t-4.5 -13.5t-6 -15t-8 -14.5t-10.5 -13t-13 -11t-16.5 -7t-19.5 -2.5q-21 0 -87 25q-27 10 -40 10q-28 0 -33 -31h-49q1 9 4 20.5t11.5 32t27 33.5t44.5 13q22 0 88 -25l6 -3q6 -2 15 -4t16 -2q28 0 32 31h48zM486 3q-27 -9 -51 -9
q-32 0 -50 12q-8 6 -16 18q-11 15 -16 40q-71 -77 -161 -77q-35 0 -65 10q-43 15 -69 47.5t-26 77.5q0 62 51 102q59 44 191 53l72 5q0 26 -1 39q-1 18 -4 31.5t-12.5 32.5t-31.5 29.5t-56 10.5q-78 0 -97 -57q-5 -15 -5 -42l-83 5q0 19 8 46q15 44 56 76.5t117 32.5
q36 0 74 -10q81 -21 105 -88q10 -28 10 -101v-154q0 -21 1 -31q3 -36 35 -36q6 0 24 4v-67zM347 193q0 5 -0.5 14t-0.5 14v9q-143 -23 -168 -34q-58 -23 -58 -72q0 -29 22.5 -49.5t66.5 -20.5q20 0 40.5 5t44 18.5t38.5 43.5t15 72z" />
    <glyph glyph-name="adieresis" unicode="&#xe4;" horiz-adv-x="500" 
d="M390 541h-89v103h89v-103zM192 541h-87v103h87v-103zM486 3q-27 -9 -51 -9q-32 0 -50 12q-8 6 -16 18q-11 15 -16 40q-71 -77 -161 -77q-35 0 -65 10q-43 15 -69 47.5t-26 77.5q0 62 51 102q59 44 191 53l72 5q0 26 -1 39q-1 18 -4 31.5t-12.5 32.5t-31.5 29.5t-56 10.5
q-78 0 -97 -57q-5 -15 -5 -42l-83 5q0 19 8 46q15 44 56 76.5t117 32.5q36 0 74 -10q81 -21 105 -88q10 -28 10 -101v-154q0 -21 1 -31q3 -36 35 -36q6 0 24 4v-67zM347 193q0 5 -0.5 14t-0.5 14v9q-143 -23 -168 -34q-58 -23 -58 -72q0 -29 22.5 -49.5t66.5 -20.5
q20 0 40.5 5t44 18.5t38.5 43.5t15 72z" />
    <glyph glyph-name="aring" unicode="&#xe5;" horiz-adv-x="500" 
d="M341 608q0 -39 -28 -67t-67 -28t-66.5 28t-27.5 67t27.5 67t66.5 28q40 -1 67.5 -28.5t27.5 -66.5zM486 3q-27 -9 -51 -9q-32 0 -50 12q-8 6 -16 18q-11 15 -16 40q-71 -77 -161 -77q-35 0 -65 10q-43 15 -69 47.5t-26 77.5q0 62 51 102q59 44 191 53l72 5q0 26 -1 39
q-1 18 -4 31.5t-12.5 32.5t-31.5 29.5t-56 10.5q-78 0 -97 -57q-5 -15 -5 -42l-83 5q0 19 8 46q15 44 56 76.5t117 32.5q36 0 74 -10q81 -21 105 -88q10 -28 10 -101v-154q0 -21 1 -31q3 -36 35 -36q6 0 24 4v-67zM297 609q0 20 -15 35.5t-36 15.5t-36 -15.5t-15 -36.5
t14.5 -36t36.5 -15q21 0 36 15.5t15 36.5zM347 193q0 5 -0.5 14t-0.5 14v9q-143 -23 -168 -34q-58 -23 -58 -72q0 -29 22.5 -49.5t66.5 -20.5q20 0 40.5 5t44 18.5t38.5 43.5t15 72z" />
    <glyph glyph-name="ae" unicode="&#xe6;" horiz-adv-x="812" 
d="M779 214h-342q0 -73 34 -117q36 -47 101 -47q38 0 66.5 20.5t42.5 57.5q4 13 6 22l84 -13q-14 -54 -55 -93q-62 -59 -154 -59q-121 0 -177 99q-77 -99 -191 -99q-32 0 -62 9q-45 13 -72 45t-27 79q0 44 25 78.5t66 52.5q10 5 21.5 8.5t21 5.5t25 4t24.5 2.5t30 1t31.5 1
t38 0.5h41.5q0 40 -5 59q-10 42 -39 68t-71 26q-26 0 -48 -10q-50 -25 -53 -85l-84 6q5 41 20 68q18 32 58.5 57t104.5 25q79 0 127 -44q17 -15 32 -40q15 22 32 37q50 47 130 47q98 0 159 -77q60 -73 59 -195zM694 272q-4 63 -36 101q-39 47 -96 47q-62 0 -99 -56
q-27 -40 -27 -92h258zM357 214h-47q-57 0 -100 -9q-50 -10 -75 -38q-19 -19 -19 -46t23.5 -50t70.5 -23q62 0 102 42q43 45 45 124z" />
    <glyph glyph-name="ccedilla" unicode="&#xe7;" 
d="M494 170q-13 -76 -53 -117t-86 -56q-23 -6 -62 -10l-18 -30l15 -8q15 -8 23 -14t16.5 -20.5t8.5 -31.5q0 -38 -34 -62t-93 -24v23q2 -1 7 -1q22 0 34 12t11 26q-1 12 -9 20.5t-14.5 12t-20.5 8.5t-16 6l53 82q-62 6 -90 20q-57 27 -93 88t-34 148q2 92 43.5 151t103.5 81
q36 12 86 12q106 -2 167 -68q24 -25 39 -62q6 -15 7 -28l-88 -9q-7 35 -18 52q-35 57 -106 57q-65 2 -105 -44.5t-41 -143.5q-1 -98 41 -145.5t107 -47.5q33 0 57.5 11t37.5 24.5t22 36t11 32.5t5 27z" />
    <glyph glyph-name="egrave" unicode="&#xe8;" 
d="M295 521h-48l-82 144h89zM483 144q-19 -47 -31 -66q-62 -93 -182 -93q-56 0 -99 19q-54 23 -93 80t-39 156q0 101 53 165q67 81 175 81q38 0 74 -13q83 -29 119 -112q23 -55 23 -140h-358q-1 -104 68 -152q36 -24 85 -24q48 0 79 29q14 11 26 31q6 10 19 50zM396 279
q-2 29 -7 46q-12 44 -47 71.5t-81 27.5q-60 0 -94 -41.5t-40 -103.5h269z" />
    <glyph glyph-name="eacute" unicode="&#xe9;" 
d="M365 666l-86 -144h-42l42 144h86zM483 144q-19 -47 -31 -66q-62 -93 -182 -93q-56 0 -99 19q-54 23 -93 80t-39 156q0 101 53 165q67 81 175 81q38 0 74 -13q83 -29 119 -112q23 -55 23 -140h-358q-1 -104 68 -152q36 -24 85 -24q48 0 79 29q14 11 26 31q6 10 19 50z
M396 279q-2 29 -7 46q-12 44 -47 71.5t-81 27.5q-60 0 -94 -41.5t-40 -103.5h269z" />
    <glyph glyph-name="ecircumflex" unicode="&#xea;" 
d="M397 523h-76l-61 95l-59 -95h-70l94 151h68zM483 144q-19 -47 -31 -66q-62 -93 -182 -93q-56 0 -99 19q-54 23 -93 80t-39 156q0 101 53 165q67 81 175 81q38 0 74 -13q83 -29 119 -112q23 -55 23 -140h-358q-1 -104 68 -152q36 -24 85 -24q48 0 79 29q14 11 26 31
q6 10 19 50zM396 279q-2 29 -7 46q-12 44 -47 71.5t-81 27.5q-60 0 -94 -41.5t-40 -103.5h269z" />
    <glyph glyph-name="edieresis" unicode="&#xeb;" 
d="M415 541h-89v103h89v-103zM217 541h-87v103h87v-103zM483 144q-19 -47 -31 -66q-62 -93 -182 -93q-56 0 -99 19q-54 23 -93 80t-39 156q0 101 53 165q67 81 175 81q38 0 74 -13q83 -29 119 -112q23 -55 23 -140h-358q-1 -104 68 -152q36 -24 85 -24q48 0 79 29
q14 11 26 31q6 10 19 50zM396 279q-2 29 -7 46q-12 44 -47 71.5t-81 27.5q-60 0 -94 -41.5t-40 -103.5h269z" />
    <glyph glyph-name="igrave" unicode="&#xec;" horiz-adv-x="208" 
d="M139 521h-48l-82 144h88zM144 0h-77v471h77v-471z" />
    <glyph glyph-name="iacute" unicode="&#xed;" horiz-adv-x="208" 
d="M203 666l-86 -144h-41l41 144h86zM144 0h-77v471h77v-471z" />
    <glyph glyph-name="icircumflex" unicode="&#xee;" horiz-adv-x="208" 
d="M240 523h-75l-61 95l-59 -95h-70l94 151h68zM144 0h-77v471h77v-471z" />
    <glyph glyph-name="idieresis" unicode="&#xef;" horiz-adv-x="208" 
d="M248 541h-88v103h88v-103zM50 541h-87v103h87v-103zM144 0h-77v471h77v-471z" />
    <glyph glyph-name="eth" unicode="&#xf0;" horiz-adv-x="542" 
d="M502 257q0 -63 -12 -103q-8 -30 -22.5 -57t-39.5 -53.5t-65.5 -42.5t-90.5 -16q-61 0 -106.5 21t-68.5 50t-37 67.5t-17 63.5t-3 48q0 69 23 121q31 69 88 100.5t121 29.5q73 -1 129 -57q-29 100 -60 143l-178 -58l-18 45l165 55q-13 17 -71 75l62 29q21 -19 75 -83
l85 29l19 -47l-74 -24q96 -155 96 -336zM416 236v7q0 94 -41 137.5t-104 41.5q-41 -1 -70.5 -18.5t-44.5 -46.5t-22 -58.5t-7 -63.5v-11.5t1.5 -22t5 -31t9.5 -32.5t17 -33.5t26 -27.5t37 -21t49 -7q64 0 104 45.5t40 141.5z" />
    <glyph glyph-name="ntilde" unicode="&#xf1;" 
d="M406 635q0 -3 -1.5 -12t-7 -25t-14 -29.5t-24.5 -23.5t-36 -10t-86 25q-29 10 -41 10q-23 0 -33 -31h-49q20 100 88 99q11 0 23.5 -2.5t21 -6t22 -9t20.5 -7.5q18 -9 38 -9q4 0 8 1t6.5 2.5l5 3t4 4t3 4.5t2.5 5l1.5 4.5t0.5 3.5l1 3h47zM455 0h-79v300q0 63 -36 90
q-28 21 -71 21q-52 0 -88 -35q-19 -19 -28 -43q-9 -22 -9 -65v-268h-80v471h80v-69q11 19 25 33q48 51 123 51q16 0 35 -3.5t49.5 -19t49.5 -42.5q14 -20 21 -46.5t7.5 -41t0.5 -52.5v-281z" />
    <glyph glyph-name="ograve" unicode="&#xf2;" horiz-adv-x="542" 
d="M305 521h-47l-83 144h89zM502 235q0 -102 -55 -171q-66 -79 -175 -79q-103 0 -163 62q-69 69 -69 186q0 101 54 171q64 82 181 82q52 0 94 -18q53 -22 93.5 -79.5t39.5 -153.5zM416 236q5 66 -24 120q-12 22 -29 36q-35 30 -86 30q-43 0 -73.5 -18.5t-45 -40.5t-22 -54.5
t-8.5 -47t-1 -31.5q0 -20 4 -48q3 -18 9 -36t20.5 -42.5t43.5 -39.5t68 -15q73 0 112 59q32 48 32 128z" />
    <glyph glyph-name="oacute" unicode="&#xf3;" horiz-adv-x="542" 
d="M370 666l-86 -144h-41l41 144h86zM502 235q0 -102 -55 -171q-66 -79 -175 -79q-103 0 -163 62q-69 69 -69 186q0 101 54 171q64 82 181 82q52 0 94 -18q53 -22 93.5 -79.5t39.5 -153.5zM416 236q5 66 -24 120q-12 22 -29 36q-35 30 -86 30q-43 0 -73.5 -18.5t-45 -40.5
t-22 -54.5t-8.5 -47t-1 -31.5q0 -20 4 -48q3 -18 9 -36t20.5 -42.5t43.5 -39.5t68 -15q73 0 112 59q32 48 32 128z" />
    <glyph glyph-name="ocircumflex" unicode="&#xf4;" horiz-adv-x="542" 
d="M407 523h-75l-61 95l-59 -95h-70l94 151h67zM502 235q0 -102 -55 -171q-66 -79 -175 -79q-103 0 -163 62q-69 69 -69 186q0 101 54 171q64 82 181 82q52 0 94 -18q53 -22 93.5 -79.5t39.5 -153.5zM416 236q5 66 -24 120q-12 22 -29 36q-35 30 -86 30q-43 0 -73.5 -18.5
t-45 -40.5t-22 -54.5t-8.5 -47t-1 -31.5q0 -20 4 -48q3 -18 9 -36t20.5 -42.5t43.5 -39.5t68 -15q73 0 112 59q32 48 32 128z" />
    <glyph glyph-name="otilde" unicode="&#xf5;" horiz-adv-x="542" 
d="M417 635l-1 -3q0 -4 -1 -9t-3 -11.5t-4.5 -13.5t-6 -15t-8 -14.5t-10.5 -13t-13 -11t-16.5 -7t-19.5 -2.5q-21 0 -87 25q-29 10 -41 10q-23 0 -33 -31h-48q1 9 4 20.5t11.5 32t27 33.5t44.5 13q11 0 23.5 -2.5t21 -6t22 -9t20.5 -7.5q18 -9 38 -9q28 0 32 31h48zM502 235
q0 -102 -55 -171q-66 -79 -175 -79q-103 0 -163 62q-69 69 -69 186q0 101 54 171q64 82 181 82q52 0 94 -18q53 -22 93.5 -79.5t39.5 -153.5zM416 236q5 66 -24 120q-12 22 -29 36q-35 30 -86 30q-43 0 -73.5 -18.5t-45 -40.5t-22 -54.5t-8.5 -47t-1 -31.5q0 -20 4 -48
q3 -18 9 -36t20.5 -42.5t43.5 -39.5t68 -15q73 0 112 59q32 48 32 128z" />
    <glyph glyph-name="odieresis" unicode="&#xf6;" horiz-adv-x="542" 
d="M418 541h-88v103h88v-103zM220 541h-87v103h87v-103zM502 235q0 -140 -98 -210q-54 -40 -132 -40q-99 0 -158 57q-74 72 -74 191q0 99 53 170q64 83 182 83q52 0 94 -18q53 -22 93.5 -79.5t39.5 -153.5zM416 236q5 64 -22 117q-13 24 -31 39q-35 30 -87 30
q-42 0 -72.5 -18.5t-44.5 -40.5t-22 -54.5t-9 -47.5t-1 -31q2 -73 28 -117q37 -65 115 -64q75 0 114 59q32 48 32 128z" />
    <glyph glyph-name="divide" unicode="&#xf7;" horiz-adv-x="724" 
d="M407 409h-89v110h89v-110zM645 260h-566v81h566v-81zM407 82h-89v110h89v-110z" />
    <glyph glyph-name="oslash" unicode="&#xf8;" horiz-adv-x="542" 
d="M506 432l-46 -46q13 -18 18 -31q25 -53 25 -121q0 -51 -15 -95q-8 -23 -21.5 -45t-38.5 -49t-66 -43.5t-92 -16.5q-96 0 -157 64l-40 -40l-35 36l43 42q-40 65 -40 146q0 60 20 109q27 66 84 105t128 39q85 0 154 -61l44 43zM373 372q-47 50 -104 50q-39 0 -71 -21
q-73 -46 -73 -159q0 -51 17 -94zM421 230q0 59 -20 98l-232 -225q10 -14 14 -18q40 -37 93 -36q39 0 70 20q75 48 75 161z" />
    <glyph glyph-name="ugrave" unicode="&#xf9;" 
d="M295 521h-48l-82 144h89zM454 0h-78l-1 72q-8 -12 -20 -24q-60 -60 -140 -60q-88 0 -126 62q-5 8 -9 17.5t-6.5 17t-4 19t-2.5 17t-1.5 19.5t-0.5 17.5v19.5v18v276h79v-268q0 -72 11 -95q23 -45 86 -45q75 0 112 54q23 34 23 118v236h78v-471z" />
    <glyph glyph-name="uacute" unicode="&#xfa;" 
d="M360 666l-86 -144h-42l42 144h86zM454 0h-78l-1 72q-8 -12 -20 -24q-60 -60 -140 -60q-88 0 -126 62q-5 8 -9 17.5t-6.5 17t-4 19t-2.5 17t-1.5 19.5t-0.5 17.5v19.5v18v276h79v-268q0 -72 11 -95q23 -45 86 -45q75 0 112 54q23 34 23 118v236h78v-471z" />
    <glyph glyph-name="ucircumflex" unicode="&#xfb;" 
d="M397 523h-76l-61 95l-59 -95h-70l94 151h68zM454 0h-78l-1 72q-8 -12 -20 -24q-60 -60 -140 -60q-88 0 -126 62q-5 8 -9 17.5t-6.5 17t-4 19t-2.5 17t-1.5 19.5t-0.5 17.5v19.5v18v276h79v-268q0 -72 11 -95q23 -45 86 -45q75 0 112 54q23 34 23 118v236h78v-471z" />
    <glyph glyph-name="udieresis" unicode="&#xfc;" 
d="M401 541h-89v103h89v-103zM203 541h-87v103h87v-103zM454 0h-78l-1 72q-8 -12 -20 -24q-60 -60 -140 -60q-88 0 -126 62q-5 8 -9 17.5t-6.5 17t-4 19t-2.5 17t-1.5 19.5t-0.5 17.5v19.5v18v276h79v-268q0 -72 11 -95q23 -45 86 -45q75 0 112 54q23 34 23 118v236h78v-471
z" />
    <glyph glyph-name="yacute" unicode="&#xfd;" horiz-adv-x="437" 
d="M323 666l-86 -144h-41l41 144h86zM425 471l-198 -557q-31 -87 -60.5 -117t-84.5 -30q-37 0 -66 8l-7 2v72q24 -8 49 -8q38 -1 57 18.5t33 62.5q2 6 26 75l-160 474h85l118 -374l125 374h83z" />
    <glyph glyph-name="thorn" unicode="&#xfe;" horiz-adv-x="562" 
d="M523 233q-1 -106 -58.5 -177.5t-165.5 -70.5q-100 1 -156 70v-279h-78v930h78v-303q62 77 162 83q70 2 124 -39q95 -70 94 -214zM441 233q1 75 -37 128t-115 50q-43 -2 -76 -24q-70 -46 -70 -162q1 -73 39.5 -122t113.5 -48q45 1 76 20q31 20 50 61t19 97z" />
    <glyph glyph-name="ydieresis" unicode="&#xff;" horiz-adv-x="437" 
d="M363 541h-89v103h89v-103zM165 541h-87v103h87v-103zM425 471l-198 -557q-21 -57 -30 -74q-20 -40 -46 -56.5t-71 -16.5q-35 0 -71 10v72q29 -8 51 -8q29 0 44 10q26 17 50 88l20 58l-160 474h85l118 -374l125 374h83z" />
    <glyph glyph-name="OE" unicode="&#x152;" horiz-adv-x="1146" 
d="M1119 0h-501v82q-92 -100 -232 -100q-136 0 -225 88q-111 108 -111 286q0 151 86 254q95 114 260 114q140 0 222 -92v74h490v-84h-400v-219h323v-82h-323v-239h411v-82zM618 356q0 130 -47 201q-62 94 -180 94q-104 0 -170 -76q-71 -84 -71 -223q0 -116 54 -194
q68 -98 184 -98q115 0 179 92q49 72 51 204z" />
    <glyph glyph-name="oe" unicode="&#x153;" horiz-adv-x="875" 
d="M838 214h-355q0 -63 34 -109q43 -57 112 -56q50 0 84 35q17 18 26 37q3 6 5.5 12.5t4 12t2.5 6.5l81 -11q-19 -58 -64 -100q-59 -56 -145 -56q-103 0 -164 72q-3 3 -10 12t-7 10q-62 -94 -174 -94q-60 0 -112 28q-47 26 -81 79.5t-33 142.5q0 92 40 152q65 99 189 99
q104 0 171 -87q63 87 172 87q108 0 169 -81q55 -74 55 -191zM750 275q-3 31 -13 56q-35 91 -121 91q-28 0 -52 -12q-37 -18 -57 -55t-24 -81zM403 233q0 110 -58 158q-31 28 -80 28q-28 0 -57 -13q-34 -18 -57.5 -61t-23.5 -112q0 -114 66 -159q31 -22 72 -22q33 0 62 16
q34 18 53 59.5t21 63.5t2 42z" />
    <glyph glyph-name="Scaron" unicode="&#x160;" horiz-adv-x="667" 
d="M468 895l-101 -124h-65l-106 124h76l62 -77l59 77h75zM618 197q-2 -91 -74 -153t-206 -62q-222 0 -283 158q-18 48 -18 86l101 13q0 -29 9 -57.5t29.5 -58t62 -48t99.5 -19.5q70 -1 124 33t55 107q0 25 -8.5 44t-19.5 30.5t-32 21t-35.5 13.5t-38.5 9l-60 13
q-31 7 -45 10t-45.5 12.5t-48.5 18t-41.5 24t-37 32.5t-23 42t-11.5 55q-2 69 43.5 121.5t120.5 71.5q35 10 97 10q177 -1 245 -123q8 -14 13.5 -30.5t8 -26.5t5 -23t2.5 -14l-95 -7q-4 40 -12 58q-39 93 -169 93q-77 0 -120 -30.5t-42 -80.5q0 -13 3 -25t10 -21t12 -16
t17 -13.5t18 -10.5t21.5 -8.5t19.5 -6t21 -5.5t18 -4l77 -19q10 -3 27 -7t27 -6q22 -6 38.5 -11.5t46 -21.5t48 -36t33 -54.5t13.5 -77.5z" />
    <glyph glyph-name="scaron" unicode="&#x161;" horiz-adv-x="479" 
d="M366 673l-96 -151h-67l-102 151h74l61 -96l59 96h71zM447 134q0 -61 -52.5 -105t-146.5 -44q-136 0 -189 86q-22 35 -28 81l91 14v-9q0 -27 8 -47.5t22 -31.5t27 -18.5t31 -10t25 -3t17 -0.5q55 0 83 21.5t28 57.5q0 35 -21.5 49.5t-76.5 25.5l-45 9q-27 5 -44 9.5
t-43.5 15.5t-42.5 24.5t-28 37t-11 52.5q1 58 47.5 98t135.5 40q63 0 109.5 -25t69.5 -62q17 -29 22 -68l-86 -11q0 28 -6 43q-12 26 -43.5 44t-75.5 18q-43 0 -69 -21.5t-25 -49.5q1 -29 29 -43.5t85 -28.5l45 -11q34 -8 55 -15.5t48 -23t41 -40t14 -58.5z" />
    <glyph glyph-name="Ydieresis" unicode="&#x178;" horiz-adv-x="625" 
d="M454 781h-87v102h87v-102zM258 781h-87v102h87v-102zM611 706l-254 -383v-323h-95v323l-248 383h111l186 -299l188 299h112z" />
    <glyph glyph-name="florin" unicode="&#x192;" horiz-adv-x="437" 
d="M437 704l-14 -60q-15 5 -36 5q-10 0 -18.5 -4t-13 -8.5t-9 -15t-5.5 -15t-4 -17.5t-3 -14l-25 -104h85l-15 -62h-84l-130 -541q-14 -58 -41.5 -77.5t-67.5 -19.5q-24 0 -60 12l15 59q18 -7 31 -7q15 0 25 5t16 17.5t8 18.5t6 24l120 509h-72l15 62h72l34 132q10 37 16 49
q27 62 99 62q29 0 56 -10z" />
    <glyph glyph-name="circumflex" unicode="&#x2c6;" horiz-adv-x="271" 
d="M268 523h-75l-61 95l-59 -95h-70l94 151h67z" />
    <glyph glyph-name="tilde" unicode="&#x2dc;" horiz-adv-x="271" 
d="M282 635h-1q0 -9 -4.5 -29t-25 -45.5t-52.5 -25.5q-22 0 -86 25q-29 10 -41 10q-17 0 -25 -11.5t-8 -19.5h-49q0 7 3.5 20.5t11 32.5t26.5 32.5t45 13.5q14 0 28 -3.5t34 -11.5t27 -10q0 -1 5.5 -3t14.5 -4t16 -2q12 0 20 6.5t10 13t2 11.5h49z" />
    <glyph glyph-name="endash" unicode="&#x2013;" horiz-adv-x="600" 
d="M555 262h-510v76h510v-76z" />
    <glyph glyph-name="emdash" unicode="&#x2014;" horiz-adv-x="895" 
d="M850 262h-805v76h805v-76z" />
    <glyph glyph-name="quoteleft" unicode="&#x2018;" horiz-adv-x="229" 
d="M162 440h-99v51q0 64 8.5 106t33.5 109h47q-26 -76 -33 -157h43v-109z" />
    <glyph glyph-name="quoteright" unicode="&#x2019;" horiz-adv-x="229" 
d="M162 654q0 -119 -41 -214h-47q33 95 33 156h-44v110h99v-52z" />
    <glyph glyph-name="quotesinglbase" unicode="&#x201a;" horiz-adv-x="229" 
d="M162 49q0 -113 -41 -205h-47q33 95 33 156h-44v109h99v-60z" />
    <glyph glyph-name="quotedblleft" unicode="&#x201c;" horiz-adv-x="375" 
d="M311 440h-99v57q0 113 42 209h46q-30 -70 -32 -157h43v-109zM162 440h-99v57q0 113 42 209h47q-33 -91 -33 -157h43v-109z" />
    <glyph glyph-name="quotedblright" unicode="&#x201d;" horiz-adv-x="375" 
d="M311 639q0 -87 -30 -170q-2 -5 -6 -14.5t-6 -14.5h-46q24 70 32 156h-43v110h99v-67zM162 645q0 -113 -41 -205h-47q33 95 33 156h-44v110h99v-61z" />
    <glyph glyph-name="quotedblbase" unicode="&#x201e;" horiz-adv-x="375" 
d="M311 42q0 -84 -30 -169q-2 -5 -6 -14.5t-6 -14.5h-46q25 76 32 156h-43v109h99v-67zM162 49q0 -113 -41 -205h-47q33 95 33 156h-44v109h99v-60z" />
    <glyph glyph-name="dagger" unicode="&#x2020;" horiz-adv-x="458" 
d="M441 421h-170v-421h-80v421h-171v79h171v206h80v-206h170v-79z" />
    <glyph glyph-name="daggerdbl" unicode="&#x2021;" horiz-adv-x="458" 
d="M441 181h-170v-181h-80v181h-172v79h172v161h-171v79h171v206h80v-206h170v-79h-170v-161h170v-79z" />
    <glyph glyph-name="bullet" unicode="&#x2022;" horiz-adv-x="333" 
d="M281 241h-228v227h228v-227z" />
    <glyph glyph-name="ellipsis" unicode="&#x2026;" horiz-adv-x="1000" 
d="M881 0h-95v93h95v-93zM547 0h-95v93h95v-93zM213 0h-94v93h94v-93z" />
    <glyph glyph-name="perthousand" unicode="&#x2030;" horiz-adv-x="1250" 
d="M1227 220q-1 -111 -47 -169.5t-117 -59.5q-40 0 -68 15q-44 23 -70.5 76.5t-26.5 130.5q0 144 75 205q39 32 90 32q40 0 72 -19q93 -56 92 -211zM849 213q-2 -62 -17 -107q-38 -113 -143 -115q-75 -1 -120 55.5t-46 166.5q-3 162 92 218q33 19 68 19q73 1 120 -63
t46 -174zM620 656l-317 -685l-55 26l318 685zM353 450q0 -61 -16 -109q-41 -117 -147 -117q-34 0 -64 15q-55 28 -77.5 90t-22.5 120q-1 60 22 125t79 94q30 15 61 15q72 1 119 -61.5t46 -171.5zM1160 219q0 170 -96 173q-41 1 -67 -35q-33 -43 -33 -136q0 -25 3 -49
q6 -59 32 -91t64 -32q31 0 52.5 19t30 50.5t11.5 54.5t3 46zM784 213q0 49 -9 88q-21 90 -91 90q-51 -1 -75 -49.5t-22 -128.5q1 -75 26.5 -120t74.5 -45q47 0 71 45t25 120zM288 450q0 49 -7 82q-10 49 -35 71t-56 23q-23 0 -45 -14q-55 -36 -53 -161q1 -78 25 -124t74 -45
q27 0 47 15q50 37 50 153z" />
    <glyph glyph-name="guilsinglleft" unicode="&#x2039;" horiz-adv-x="250" 
d="M182 141l-134 113v83l134 116v-89l-80 -71l80 -66v-86z" />
    <glyph glyph-name="guilsinglright" unicode="&#x203a;" horiz-adv-x="250" 
d="M202 250l-134 -116v90l80 70l-80 67v85l134 -113v-83z" />
    <glyph glyph-name="Euro" unicode="&#x20ac;" horiz-adv-x="700" 
d="M678 649l-32 -91q-71 91 -194 91q-202 0 -245 -209h399l-22 -62h-384v-20q0 -5 0.5 -14.5t0.5 -14.5h366l-22 -62h-337q18 -99 81.5 -152.5t163.5 -53.5q66 0 125.5 25.5t98.5 75.5v-106q-93 -74 -236 -74q-139 0 -228 74t-111 211h-79l23 62h50q0 33 2 49h-75l23 62h59
q26 137 112 210.5t225 73.5q76 0 131.5 -16t104.5 -59z" />
    <glyph glyph-name="trademark" unicode="&#x2122;" horiz-adv-x="694" 
d="M621 374h-54l2 261l-78 -261h-54l-75 257l1 -257h-56v332h78l82 -265l79 265h75v-332zM273 657h-95v-283h-59v283h-96v49h250v-49z" />
    </font>
</defs>
</svg>
