<?xml version="1.0" standalone="no"?>
<!DOCTYPE svg PUBLIC "-//W3C//DTD SVG 1.1//EN" "http://www.w3.org/Graphics/SVG/1.1/DTD/svg11.dtd" >
<svg xmlns="http://www.w3.org/2000/svg" xmlns:xlink="http://www.w3.org/1999/xlink" version="1.1">
<metadata>
Created by FontForge 20160407 at Fri Nov 11 15:20:47 2016
 By Jimmy Wärting
Copyright (c) 2005-2006 by Joshua Darden, Inc. All rights reserved.
</metadata>
<defs>
<font id="Omnes-Medium" horiz-adv-x="500" >
  <font-face 
    font-family="Omnes"
    font-weight="500"
    font-stretch="normal"
    units-per-em="1000"
    panose-1="2 0 5 6 4 0 0 2 0 4"
    ascent="800"
    descent="-200"
    x-height="481"
    cap-height="651"
    bbox="-82 -230.193 1067 894"
    underline-thickness="20"
    underline-position="-143"
    stemh="83"
    stemv="100"
    unicode-range="U+0020-FB02"
  />
<missing-glyph 
 />
    <glyph glyph-name="fi" unicode="fi" horiz-adv-x="582" 
d="M463 -4c-26 0 -45 11 -45 47v395c0 36 19 48 44 48h11c26 0 44 -11 44 -48v-395c0 -36 -18 -47 -44 -47h-10zM99 400h-38c-31 0 -43 13 -43 38v7c0 24 12 36 43 36h38v36c0 121 56 177 153 177c73 0 107 -31 107 -65c0 -28 -21 -45 -23 -43c-14 14 -42 28 -72 28
c-49 0 -70 -30 -70 -98v-35h101c31 0 43 -13 43 -37v-7c0 -24 -12 -37 -43 -37h-98v-357c0 -36 -17 -47 -44 -47h-10c-26 0 -44 11 -44 47v357zM468 584c-37 0 -59 20 -59 55c0 36 22 56 59 56c38 0 59 -20 59 -56s-22 -55 -59 -55z" />
    <glyph glyph-name="fl" unicode="fl" horiz-adv-x="582" 
d="M463 -4c-26 0 -45 11 -45 47v633c0 3 17 11 36 11c31 0 63 -16 63 -85v-559c0 -36 -18 -47 -44 -47h-10zM99 400h-38c-31 0 -43 13 -43 38v7c0 24 12 36 43 36h38v36c0 121 56 177 153 177c73 0 107 -31 107 -65c0 -28 -21 -45 -23 -43c-14 14 -42 28 -72 28
c-49 0 -70 -30 -70 -98v-35h101c31 0 43 -13 43 -37v-7c0 -24 -12 -37 -43 -37h-98v-357c0 -36 -17 -47 -44 -47h-10c-26 0 -44 11 -44 47v357z" />
    <glyph glyph-name=".notdef" 
 />
    <glyph glyph-name="space" unicode=" " horiz-adv-x="170" 
 />
    <glyph glyph-name="exclam" unicode="!" horiz-adv-x="260" 
d="M124 188c-15 0 -20 12 -24 34l-30 370c-5 42 15 61 47 61h25c34 0 54 -19 48 -61l-30 -370c-3 -22 -8 -34 -25 -34h-11zM123 -7c-35 0 -54 19 -54 54v12c0 35 19 55 54 55h13c37 0 55 -20 55 -55v-12c0 -35 -18 -54 -55 -54h-13z" />
    <glyph glyph-name="quotedbl" unicode="&#x22;" horiz-adv-x="389" 
d="M271 375c-16 0 -21 10 -24 31l-24 182c-5 47 13 64 55 64s60 -17 54 -64l-23 -182c-3 -21 -9 -31 -25 -31h-13zM104 375c-16 0 -21 10 -24 31l-24 182c-6 47 12 64 54 64c43 0 61 -17 55 -64l-24 -182c-3 -21 -8 -31 -24 -31h-13z" />
    <glyph glyph-name="numbersign" unicode="#" horiz-adv-x="663" 
d="M437 163l-51 -166c-1 -2 -7 -4 -14 -4c-19 0 -47 14 -47 53c0 9 3 23 7 38l25 79h-149l-51 -166c0 -2 -6 -4 -13 -4c-19 0 -48 14 -48 53c0 9 3 23 8 38l24 79h-76c-28 0 -43 11 -43 34v10c0 24 15 35 43 35h100l50 163c1 0 -75 0 -75 0c-28 0 -43 11 -43 35v9
c0 24 15 35 43 35h100l51 166c0 2 6 4 13 4c19 0 48 -14 48 -53c0 -9 -3 -22 -8 -38c0 0 -24 -79 -25 -79h150l50 166c1 2 7 4 14 4c18 0 47 -14 47 -53c0 -9 -3 -22 -8 -38l-24 -79h76c29 0 43 -11 43 -34v-10c0 -24 -14 -35 -43 -35h-100l-50 -163h75c28 0 43 -11 43 -34
v-10c0 -24 -15 -35 -43 -35h-99zM382 240l51 167h-152l-51 -167h152z" />
    <glyph glyph-name="dollar" unicode="$" horiz-adv-x="550" 
d="M230 -6c-121 13 -195 77 -195 126c0 35 42 57 45 53c30 -44 85 -82 154 -93v211c-89 22 -183 61 -183 180c0 94 74 164 181 180v49c0 34 13 47 40 47h7c28 0 40 -13 40 -47v-47c114 -10 180 -67 180 -112c0 -36 -44 -58 -46 -55c-29 41 -80 73 -139 82v-203
c95 -23 198 -62 198 -185c0 -99 -77 -172 -195 -186v-49c0 -34 -13 -48 -41 -48h-6c-28 0 -40 13 -40 48v49zM237 566c-53 -12 -88 -47 -88 -93c0 -50 34 -72 88 -89v182zM311 80c61 10 100 47 100 96c0 54 -43 78 -100 96v-192z" />
    <glyph glyph-name="percent" unicode="%" horiz-adv-x="735" 
d="M184 344c-89 0 -155 65 -155 151v9c0 86 67 153 156 153c90 0 156 -65 156 -151v-9c0 -86 -68 -153 -157 -153zM122 -9c-4 -5 -46 9 -46 37c0 18 7 30 29 53l503 579c4 4 46 -7 46 -37c0 -14 -8 -31 -28 -54zM550 -6c-90 0 -156 65 -156 151v9c0 86 68 153 157 153
s155 -65 155 -151v-9c0 -86 -67 -153 -156 -153zM185 407c46 0 79 35 79 86v15c0 51 -34 87 -80 87s-79 -35 -79 -87v-15c0 -50 34 -86 80 -86zM551 57c45 0 79 35 79 86v15c0 51 -34 87 -80 87s-79 -35 -79 -87v-15c0 -50 34 -86 80 -86z" />
    <glyph glyph-name="ampersand" unicode="&#x26;" horiz-adv-x="667" 
d="M271 394c82 23 119 56 119 109c0 47 -35 83 -84 83c-57 0 -87 -39 -87 -87c0 -42 19 -72 52 -105zM425 145l-194 175c-67 -22 -114 -61 -114 -130c0 -79 60 -125 145 -125c65 0 121 32 163 80zM325 350l151 -136c22 40 36 82 49 131c12 42 30 56 57 56
c30 0 45 -24 44 -28c-18 -81 -49 -154 -90 -214l136 -122c3 -2 -11 -42 -55 -42c-17 0 -40 4 -65 30l-69 66c-60 -66 -137 -104 -228 -104c-140 0 -234 70 -234 195c0 95 62 155 163 186c-33 35 -58 78 -58 131c0 90 73 161 181 161c98 0 168 -64 168 -152
c0 -76 -54 -129 -150 -158z" />
    <glyph glyph-name="quoteright" unicode="&#x2019;" horiz-adv-x="216" 
d="M74 421c-14 -18 -59 -7 -50 22l53 170c10 32 17 47 52 47h9c25 0 42 -16 42 -47v-4c0 -20 -8 -41 -23 -61z" />
    <glyph glyph-name="parenleft" unicode="(" horiz-adv-x="375" 
d="M324 -198c-124 0 -281 168 -281 425c0 249 157 425 281 425c29 0 46 -13 46 -40c0 -16 -12 -33 -15 -35c-134 -30 -211 -180 -211 -349c0 -175 77 -321 211 -352c3 -1 15 -18 15 -34c0 -27 -17 -40 -46 -40z" />
    <glyph glyph-name="parenright" unicode=")" horiz-adv-x="375" 
d="M51 -198c-29 0 -46 13 -46 40c0 16 12 33 15 34c134 31 211 177 211 352c0 169 -77 319 -211 349c-3 2 -15 19 -15 35c0 27 17 40 46 40c124 0 281 -176 281 -425c0 -257 -157 -425 -281 -425z" />
    <glyph glyph-name="asterisk" unicode="*" horiz-adv-x="392" 
d="M159 531l8 97c3 26 12 31 29 31h4c16 0 26 -5 29 -31c0 0 7 -96 7 -97l96 24c24 4 34 -3 39 -18l1 -4c5 -18 3 -27 -20 -37l-92 -38l53 -85c13 -22 7 -33 -6 -42l-3 -2c-12 -9 -24 -11 -41 8l-66 77l-65 -77c-18 -19 -28 -17 -42 -8l-3 2c-14 8 -18 20 -6 42l52 85
l-90 38c-23 10 -25 19 -20 37l1 4c5 16 14 22 38 18z" />
    <glyph glyph-name="plus" unicode="+" horiz-adv-x="538" 
d="M227 224h-145c-32 0 -43 14 -43 37v6c0 23 11 37 43 37h145v148c0 31 15 43 38 43h8c22 0 38 -12 38 -43v-148h145c32 0 43 -14 43 -37v-6c0 -23 -11 -37 -43 -37h-145v-157c0 -31 -16 -43 -38 -43h-8c-23 0 -38 12 -38 43v157z" />
    <glyph glyph-name="comma" unicode="," horiz-adv-x="222" 
d="M63 -122c-13 -17 -58 -7 -50 23l54 170c9 31 17 47 51 47h9c25 0 42 -16 42 -47v-5c0 -17 -4 -35 -23 -60z" />
    <glyph glyph-name="hyphen" unicode="-" horiz-adv-x="393" 
d="M84 198c-28 0 -43 15 -43 38v14c0 23 15 39 43 39h225c29 0 43 -16 43 -39v-14c0 -23 -14 -38 -43 -38h-225z" />
    <glyph glyph-name="period" unicode="." horiz-adv-x="222" 
d="M104 -7c-35 0 -54 19 -54 54v12c0 35 18 55 54 55h13c37 0 55 -20 55 -55v-12c0 -35 -19 -54 -55 -54h-13z" />
    <glyph glyph-name="slash" unicode="/" horiz-adv-x="339" 
d="M60 -202c-22 0 -56 6 -56 46c0 9 3 24 8 40l238 766c0 1 9 4 20 4c21 0 55 -5 55 -46c0 -9 -3 -23 -8 -40l-237 -766c0 -2 -10 -4 -20 -4z" />
    <glyph glyph-name="zero" unicode="0" horiz-adv-x="635" 
d="M317 -13c-168 0 -269 116 -269 303v66c0 187 103 304 269 304c168 0 270 -116 270 -303v-65c0 -187 -103 -305 -270 -305zM317 74c107 0 167 77 167 213v72c0 136 -62 216 -167 216s-165 -78 -165 -214v-73c0 -136 61 -214 165 -214z" />
    <glyph glyph-name="one" unicode="1" horiz-adv-x="366" 
d="M167 506c-17 -17 -41 -27 -67 -27c-47 0 -80 28 -80 69c0 34 26 53 29 51c15 -14 33 -23 59 -23c43 0 76 33 81 76h35c30 0 45 -16 45 -47v-563c0 -31 -15 -47 -45 -47h-13c-29 0 -44 16 -44 47v464z" />
    <glyph glyph-name="two" unicode="2" horiz-adv-x="535" 
d="M134 88h328c34 0 49 -14 49 -40v-6c0 -27 -15 -42 -49 -42h-360c-45 0 -64 15 -64 56v25c0 133 103 192 200 240c85 42 161 74 161 144c0 67 -49 107 -132 107c-95 0 -140 -58 -158 -124c0 -3 -68 -4 -68 50c0 67 80 162 233 162c141 0 226 -73 226 -193
c0 -116 -92 -162 -190 -207c-96 -43 -173 -82 -176 -172z" />
    <glyph glyph-name="three" unicode="3" horiz-adv-x="546" 
d="M379 348c82 -28 126 -86 126 -167c0 -121 -93 -194 -251 -194c-157 0 -238 87 -238 145c0 53 59 57 60 53c25 -74 92 -114 178 -114c92 0 150 44 150 114c0 75 -51 114 -148 114h-46c-36 0 -49 15 -49 37v6c0 27 16 37 47 37h60c79 0 121 37 121 98
c0 62 -51 100 -136 100c-83 0 -134 -43 -158 -98c-2 -5 -60 3 -60 51c0 55 86 130 219 130c149 0 235 -64 235 -175c0 -70 -37 -116 -110 -137z" />
    <glyph glyph-name="four" unicode="4" horiz-adv-x="594" 
d="M127 255h238v313zM458 257h71c31 0 45 -13 45 -40v-5c0 -27 -14 -39 -45 -39h-71v-131c0 -31 -14 -47 -44 -47h-11c-26 0 -42 20 -42 47v131c-124 0 -270 0 -265 0c-39 0 -63 20 -63 48v22c0 22 10 38 29 64l231 299c26 36 39 46 88 46c56 0 77 -19 77 -67v-328z" />
    <glyph glyph-name="five" unicode="5" horiz-adv-x="538" 
d="M143 374c38 18 82 29 133 29c140 0 232 -79 232 -204c0 -129 -96 -212 -251 -212c-141 0 -231 73 -231 128c0 35 46 56 49 51c36 -59 99 -96 182 -96c95 0 155 50 155 128s-54 125 -146 125c-70 0 -116 -18 -151 -44c-43 3 -63 24 -63 64v246c0 35 20 58 53 58h325
c32 0 48 -14 48 -42v-5c0 -27 -16 -41 -48 -41h-287v-185z" />
    <glyph glyph-name="six" unicode="6" horiz-adv-x="587" 
d="M151 337c41 39 109 71 183 71c132 0 219 -74 219 -195v-5c0 -128 -100 -221 -240 -221c-172 0 -265 121 -265 300v66c0 191 105 307 272 307c136 0 206 -64 206 -115c0 -39 -50 -53 -52 -50c-30 46 -76 80 -149 80c-112 0 -175 -77 -175 -218zM152 257
c5 -118 61 -188 157 -188c85 0 145 53 145 131v6c0 80 -51 125 -142 125c-62 0 -122 -32 -160 -74z" />
    <glyph glyph-name="seven" unicode="7" horiz-adv-x="530" 
d="M109 34l288 521h-329c-30 0 -46 14 -46 42v7c0 28 16 43 46 43c0 0 382 0 378 0c54 0 64 -23 64 -49v-8c0 -22 -15 -48 -30 -75l-261 -484c-15 -28 -34 -36 -53 -36c-34 0 -62 32 -57 39z" />
    <glyph glyph-name="eight" unicode="8" horiz-adv-x="583" 
d="M292 67c100 0 152 43 152 113c0 69 -57 115 -153 115c-97 0 -153 -45 -153 -115c0 -66 57 -113 154 -113zM292 369c86 0 135 39 135 104c0 64 -49 108 -136 108c-90 0 -136 -42 -136 -108c0 -62 51 -104 137 -104zM168 333c-76 25 -112 77 -112 146c0 107 93 181 236 181
c145 0 233 -70 233 -179c0 -69 -36 -121 -110 -147c87 -27 130 -85 130 -162c0 -108 -101 -184 -254 -184c-158 0 -254 72 -254 184c0 75 45 133 131 161z" />
    <glyph glyph-name="nine" unicode="9" horiz-adv-x="587" 
d="M437 303c-41 -39 -108 -71 -183 -71c-133 0 -219 73 -219 195v4c0 128 100 228 240 228c164 0 264 -111 264 -298v-69c0 -201 -98 -305 -277 -305c-136 0 -205 61 -205 110c0 38 41 55 43 52c35 -46 85 -78 158 -78c121 0 180 68 180 217zM436 383
c-4 122 -59 195 -158 195c-84 0 -144 -61 -144 -139v-5c0 -80 50 -125 141 -125c62 0 123 32 161 74z" />
    <glyph glyph-name="colon" unicode=":" horiz-adv-x="246" 
d="M116 318c-35 0 -54 19 -54 54v12c0 35 18 54 54 54h13c37 0 55 -19 55 -54v-12c0 -35 -19 -54 -55 -54h-13zM116 -7c-35 0 -54 19 -54 54v12c0 35 18 55 54 55h13c37 0 55 -20 55 -55v-12c0 -35 -19 -54 -55 -54h-13z" />
    <glyph glyph-name="semicolon" unicode=";" horiz-adv-x="246" 
d="M116 318c-35 0 -54 19 -54 54v12c0 35 18 54 54 54h13c37 0 55 -19 55 -54v-12c0 -35 -19 -54 -55 -54h-13zM75 -122c-13 -17 -58 -7 -50 23l54 170c9 31 17 47 51 47h9c25 0 42 -16 42 -47v-5c0 -17 -4 -35 -23 -60z" />
    <glyph glyph-name="less" unicode="&#x3c;" horiz-adv-x="464" 
d="M370 382l-227 -117l227 -117c40 -21 50 -43 49 -63c-2 -28 -23 -48 -28 -46l-317 170c-18 10 -30 22 -30 55s12 45 30 55l317 171c4 1 26 -20 28 -46c1 -20 -9 -42 -49 -62z" />
    <glyph glyph-name="equal" unicode="=" horiz-adv-x="538" 
d="M94 334c-32 0 -43 16 -43 39v9c0 22 11 39 43 39h350c32 0 43 -17 43 -39v-9c0 -23 -11 -39 -43 -39h-350zM94 100c-32 0 -43 17 -43 39v10c0 22 11 39 43 39h350c32 0 43 -17 43 -39v-10c0 -22 -11 -39 -43 -39h-350z" />
    <glyph glyph-name="greater" unicode="&#x3e;" horiz-adv-x="463" 
d="M320 265l-227 117c-39 20 -50 42 -49 62c2 26 24 47 29 46l316 -171c18 -10 30 -22 30 -55s-12 -45 -30 -55l-316 -170c-6 -2 -27 18 -29 46c-1 20 10 42 49 63z" />
    <glyph glyph-name="question" unicode="?" horiz-adv-x="479" 
d="M215 185c-25 0 -43 11 -42 34c6 185 182 158 182 262c0 57 -41 94 -113 94c-95 0 -133 -65 -142 -127c-1 -3 -70 -1 -70 53c0 60 66 158 214 158c130 0 209 -71 209 -170c0 -164 -193 -141 -197 -282c-2 -15 -18 -22 -41 -22zM210 -7c-35 0 -54 19 -54 54v12
c0 35 19 55 54 55h14c36 0 55 -20 55 -55v-12c0 -35 -19 -54 -55 -54h-14z" />
    <glyph glyph-name="at" unicode="@" horiz-adv-x="743" 
d="M436 302v50c-13 29 -38 50 -74 50c-46 0 -76 -34 -76 -85c0 -52 31 -86 75 -86c41 0 75 28 75 71zM437 419c6 37 26 47 48 47c17 0 28 -8 28 -11v-157c0 -51 16 -78 58 -78c50 0 77 55 77 139c0 146 -101 248 -272 248c-163 0 -277 -118 -277 -284
c0 -164 118 -283 285 -283c66 0 126 21 164 49c11 8 21 13 34 13c21 0 35 -32 31 -36c-48 -43 -132 -79 -229 -79c-204 0 -340 136 -340 336c0 197 137 337 332 337c203 0 327 -121 327 -300c0 -126 -54 -196 -152 -196c-55 0 -95 25 -107 65c-20 -40 -56 -64 -103 -64
c-79 0 -134 64 -134 152c0 90 57 151 136 151c41 0 75 -22 94 -49z" />
    <glyph glyph-name="A" unicode="A" horiz-adv-x="630" 
d="M208 273h209l-104 274zM442 190h-259l-57 -148c-13 -36 -35 -47 -57 -47c-30 0 -59 22 -56 31l230 594c8 21 24 33 71 33c48 0 63 -12 71 -33l232 -594c3 -8 -26 -31 -57 -31c-23 0 -47 11 -61 48z" />
    <glyph glyph-name="B" unicode="B" horiz-adv-x="618" 
d="M124 0c-33 0 -55 23 -55 58v531c0 35 22 58 55 58h213c141 0 218 -59 218 -168c0 -70 -40 -117 -114 -139c96 -22 140 -83 140 -159c0 -121 -77 -181 -246 -181h-211zM171 365h158c76 0 119 40 119 102c0 64 -37 97 -121 97h-156v-199zM171 83h162c104 0 142 31 142 106
c0 68 -43 102 -139 102c4 0 -165 0 -165 0v-208z" />
    <glyph glyph-name="C" unicode="C" horiz-adv-x="657" 
d="M370 -13c-192 0 -326 138 -326 335c0 198 135 338 329 338c162 0 244 -92 244 -137c0 -48 -58 -60 -60 -56c-37 65 -110 100 -183 100c-131 0 -223 -99 -223 -243c0 -143 95 -244 225 -244c87 0 160 43 187 113c2 5 64 -7 64 -55s-85 -151 -257 -151z" />
    <glyph glyph-name="D" unicode="D" horiz-adv-x="677" 
d="M126 0c-32 0 -57 26 -57 57v532c0 35 24 58 55 58h158c220 0 351 -120 351 -322s-134 -325 -356 -325h-151zM171 89h108c158 0 250 86 250 235c0 147 -93 234 -249 234h-109v-469z" />
    <glyph glyph-name="E" unicode="E" horiz-adv-x="587" 
d="M124 0c-33 0 -55 22 -55 57v532c0 35 22 58 55 58h375c32 0 48 -16 48 -43v-6c0 -28 -16 -43 -48 -43h-327v-181h253c33 0 48 -14 48 -41v-3c0 -28 -16 -43 -48 -43h-253v-196h333c32 0 47 -14 47 -41v-5c0 -29 -15 -45 -47 -45h-381z" />
    <glyph glyph-name="F" unicode="F" horiz-adv-x="543" 
d="M112 -4c-28 0 -43 19 -43 54v539c0 35 22 58 55 58h349c32 0 48 -15 48 -42v-6c0 -28 -16 -43 -48 -43h-302v-206h224c33 0 48 -15 48 -41v-4c0 -28 -16 -42 -48 -42h-222v-220c0 -31 -15 -47 -45 -47h-16z" />
    <glyph glyph-name="G" unicode="G" horiz-adv-x="712" 
d="M565 91c-40 -64 -115 -103 -215 -103c-187 0 -306 141 -306 334c0 198 136 338 332 338c157 0 245 -84 245 -134c0 -47 -53 -57 -56 -53c-40 64 -115 98 -187 98c-134 0 -228 -102 -228 -250c0 -145 83 -250 220 -250c104 0 181 59 194 144v42h-152c-35 0 -52 11 -52 39
v5c0 29 17 40 52 40h188c37 0 55 -23 55 -59v-276c0 -3 -15 -10 -34 -10c-30 0 -56 15 -56 83v12z" />
    <glyph glyph-name="H" unicode="H" horiz-adv-x="685" 
d="M112 -4c-28 0 -43 16 -43 47v561c0 31 15 47 43 47h15c30 0 45 -16 45 -47v-235h341v235c0 31 15 47 43 47h15c30 0 45 -16 45 -47v-561c0 -31 -15 -47 -45 -47h-15c-28 0 -43 16 -43 47v236h-341v-236c0 -31 -15 -47 -45 -47h-15z" />
    <glyph glyph-name="I" unicode="I" horiz-adv-x="259" 
d="M122 -4c-29 0 -44 16 -44 47v561c0 31 15 47 44 47h14c30 0 45 -16 45 -47v-561c0 -31 -15 -47 -45 -47h-14z" />
    <glyph glyph-name="J" unicode="J" horiz-adv-x="464" 
d="M195 -13c-104 0 -172 55 -172 104c0 39 45 60 47 56c23 -42 64 -71 117 -71c79 0 111 40 111 143v385c0 31 15 47 44 47h15c29 0 44 -16 44 -47v-386c0 -157 -67 -231 -206 -231z" />
    <glyph glyph-name="K" unicode="K" horiz-adv-x="582" 
d="M172 314v-271c0 -31 -15 -47 -45 -47h-15c-28 0 -43 16 -43 47v561c0 31 15 47 43 47h15c30 0 45 -16 45 -47v-260l259 274c22 27 39 33 57 33c44 0 58 -42 56 -46l-258 -274l265 -290c4 -5 -14 -45 -59 -45c-22 0 -39 8 -56 29z" />
    <glyph glyph-name="L" unicode="L" horiz-adv-x="528" 
d="M124 0c-33 0 -55 22 -55 57v547c0 32 15 47 43 47h15c30 0 45 -15 45 -47v-511h281c31 0 48 -15 48 -44v-4c0 -29 -17 -45 -48 -45h-329z" />
    <glyph glyph-name="M" unicode="M" horiz-adv-x="749" 
d="M109 -4c-28 0 -40 16 -40 47v551c0 35 23 57 59 57h27c40 0 51 -15 67 -52l153 -345l154 345c16 38 28 52 66 52h25c37 0 61 -22 61 -57v-551c0 -31 -13 -47 -43 -47h-14c-29 0 -41 16 -41 47v475l-143 -322c-11 -26 -22 -44 -66 -44c-45 0 -54 18 -66 44l-141 319v-472
c0 -31 -12 -47 -42 -47h-16z" />
    <glyph glyph-name="N" unicode="N" horiz-adv-x="682" 
d="M111 -4c-29 0 -42 16 -42 47v550c0 35 17 58 49 58h17c31 0 43 -13 62 -39l320 -454v446c0 31 13 47 43 47h12c28 0 42 -16 42 -47v-550c0 -36 -18 -58 -48 -58h-8c-31 0 -39 9 -55 31l-337 477v-461c0 -31 -14 -47 -44 -47h-11z" />
    <glyph glyph-name="O" unicode="O" horiz-adv-x="741" 
d="M370 -13c-193 0 -327 138 -327 335c0 198 137 338 328 338c193 0 327 -138 327 -336s-136 -337 -328 -337zM371 78c131 0 223 100 223 244s-93 247 -224 247s-223 -100 -223 -245c0 -144 93 -246 224 -246z" />
    <glyph glyph-name="P" unicode="P" horiz-adv-x="569" 
d="M171 316h118c99 0 150 43 150 123c0 81 -51 123 -149 123h-119v-246zM172 233v-190c0 -28 -15 -47 -45 -47h-15c-28 0 -43 16 -43 47v546c0 35 22 58 55 58h167c160 0 251 -73 251 -206c0 -136 -88 -208 -255 -208h-115z" />
    <glyph glyph-name="Q" unicode="Q" horiz-adv-x="741" 
d="M495 112l-103 105c-18 19 -24 48 -6 64l7 6c19 18 44 10 62 -10l101 -104c26 40 40 90 40 149c0 143 -93 247 -225 247s-224 -102 -224 -245c0 -144 94 -246 225 -246c47 0 89 12 123 34zM624 107c0 1 77 -79 77 -79c3 -4 -19 -41 -59 -41c-18 0 -39 10 -60 33l-24 25
c-53 -37 -117 -58 -188 -58c-192 0 -327 137 -327 335s137 338 329 338s326 -138 326 -336c0 -83 -27 -159 -74 -217z" />
    <glyph glyph-name="R" unicode="R" horiz-adv-x="589" 
d="M170 334h136c95 0 140 44 140 114c0 75 -48 114 -143 114h-133v-228zM357 263l189 -225c5 -6 -17 -42 -60 -42c-27 0 -45 11 -67 40l-177 217h-71v-210c0 -28 -15 -47 -45 -47h-14c-28 0 -43 19 -43 53v540c0 35 22 58 55 58h184c158 0 242 -66 242 -194
c0 -110 -67 -180 -193 -190z" />
    <glyph glyph-name="S" unicode="S" horiz-adv-x="554" 
d="M275 -13c-156 0 -243 76 -243 129c0 34 44 59 47 55c37 -54 106 -99 195 -99c90 0 141 37 141 101c0 73 -76 90 -162 110c-100 23 -204 58 -204 189c0 110 95 188 233 188c144 0 222 -68 222 -115c0 -37 -46 -60 -48 -57c-34 49 -98 87 -173 87c-81 0 -134 -39 -134 -99
c0 -71 63 -82 153 -103c110 -25 216 -68 216 -193c0 -119 -92 -193 -243 -193z" />
    <glyph glyph-name="T" unicode="T" horiz-adv-x="593" 
d="M245 555h-177c-31 0 -48 16 -48 44v5c0 28 17 43 48 43h458c31 0 47 -15 47 -43v-5c0 -28 -16 -44 -47 -44h-177v-512c0 -31 -16 -47 -46 -47h-14c-29 0 -44 16 -44 47v512z" />
    <glyph glyph-name="U" unicode="U" horiz-adv-x="650" 
d="M324 -12c-172 0 -263 95 -263 275v341c0 31 16 47 44 47h14c30 0 45 -16 45 -47v-338c0 -123 54 -187 161 -187c109 0 161 62 161 188v337c0 32 15 47 44 47h16c29 0 43 -15 43 -47v-339c0 -180 -93 -277 -265 -277z" />
    <glyph glyph-name="V" unicode="V" horiz-adv-x="620" 
d="M312 111l176 493c12 35 35 47 57 47c32 0 63 -24 60 -33l-231 -585c-11 -27 -26 -39 -64 -39c-37 0 -51 11 -63 39l-232 585c-4 9 28 33 61 33c26 0 49 -14 60 -47z" />
    <glyph glyph-name="W" unicode="W" horiz-adv-x="925" 
d="M269 -7c-44 0 -63 10 -70 41l-151 588c-1 5 21 29 61 29c27 0 50 -16 60 -60l105 -476l123 407c8 31 28 47 68 47s58 -16 68 -47l121 -405l107 475c9 42 28 59 57 59c38 0 60 -24 58 -29l-149 -588c-7 -30 -26 -41 -70 -41c-40 0 -58 12 -67 42l-125 418l-131 -418
c-8 -30 -25 -42 -65 -42z" />
    <glyph glyph-name="X" unicode="X" horiz-adv-x="606" 
d="M147 617l158 -230l164 231c16 25 35 35 53 35c35 0 63 -36 58 -43l-211 -286l211 -284c5 -7 -22 -43 -60 -43c-20 0 -42 10 -57 34l-163 234l-166 -235c-17 -27 -35 -35 -53 -35c-35 0 -63 36 -58 43l213 287l-207 283c-5 7 23 43 61 43c21 0 42 -10 57 -34z" />
    <glyph glyph-name="Y" unicode="Y" horiz-adv-x="573" 
d="M338 266v-223c0 -31 -15 -47 -45 -47h-14c-29 0 -44 16 -44 47v223l-229 343c-3 7 16 42 65 42c19 0 37 -12 50 -36l166 -264l166 264c16 26 34 36 51 36c45 0 66 -36 62 -42z" />
    <glyph glyph-name="Z" unicode="Z" horiz-adv-x="609" 
d="M115 0c-48 0 -67 23 -67 49v9c0 30 10 45 43 86l339 413h-333c-30 0 -46 13 -46 42v6c0 28 16 42 46 42h391c48 0 66 -22 66 -48v-9c0 -30 -16 -52 -42 -83l-342 -417h353c30 0 46 -13 46 -42v-6c0 -28 -16 -42 -46 -42h-408z" />
    <glyph glyph-name="bracketleft" unicode="[" horiz-adv-x="345" 
d="M125 -198c-33 0 -55 23 -55 58v732c0 35 22 58 55 58h154c34 0 47 -12 47 -38v-7c0 -27 -13 -39 -47 -39h-116v-680h116c35 0 48 -12 48 -38v-6c0 -27 -13 -40 -48 -40h-154z" />
    <glyph glyph-name="backslash" unicode="\" horiz-adv-x="339" 
d="M279 -202c-11 0 -20 2 -20 4l-238 766c-5 17 -8 31 -8 40c0 41 34 46 56 46c10 0 20 -3 20 -4l237 -766c5 -16 8 -31 8 -40c0 -40 -34 -46 -55 -46z" />
    <glyph glyph-name="bracketright" unicode="]" horiz-adv-x="345" 
d="M66 -198c-35 0 -48 13 -48 40v6c0 26 13 38 48 38h116v680h-115c-35 0 -48 12 -48 39v7c0 26 13 38 48 38h153c33 0 55 -23 55 -58v-732c0 -35 -22 -58 -55 -58h-154z" />
    <glyph glyph-name="asciicircum" unicode="^" 
d="M249 551c-50 -75 -79 -107 -107 -107c-19 0 -32 13 -32 32c0 54 120 145 140 149c20 -4 139 -95 139 -149c0 -19 -12 -32 -31 -32c-28 0 -58 32 -109 107z" />
    <glyph glyph-name="underscore" unicode="_" horiz-adv-x="479" 
d="M56 -82c-28 0 -43 14 -43 38v5c0 24 15 39 43 39h367c28 0 43 -15 43 -39v-5c0 -24 -15 -38 -43 -38h-367z" />
    <glyph glyph-name="quoteleft" unicode="&#x2018;" horiz-adv-x="216" 
d="M79 412c-25 0 -43 16 -43 47v4c0 17 5 35 24 61l82 127c14 18 59 8 50 -22l-52 -170c-10 -31 -18 -47 -52 -47h-9z" />
    <glyph glyph-name="a" unicode="a" horiz-adv-x="523" 
d="M221 60c86 0 148 54 148 130v37l-27 -1c-140 -5 -212 -31 -212 -96c0 -43 34 -70 91 -70zM369 289v10c0 73 -42 113 -119 113c-73 0 -116 -38 -138 -82c0 -1 -61 0 -61 48c0 46 70 115 206 115s210 -70 210 -192v-295c0 -5 -18 -11 -36 -11c-35 0 -60 19 -61 78
c-36 -52 -99 -84 -173 -84c-103 0 -164 55 -164 137c0 111 106 159 323 163h13z" />
    <glyph glyph-name="b" unicode="b" horiz-adv-x="585" 
d="M159 311v-101c0 -81 68 -141 148 -141c90 0 150 69 150 171c0 100 -62 171 -148 171c-73 0 -125 -39 -150 -100zM159 72v-29c0 -36 -18 -47 -43 -47h-11c-26 0 -44 11 -44 47v633c0 3 16 11 36 11c30 0 63 -16 63 -85v-195c38 54 94 86 168 86c129 0 225 -99 225 -252
c0 -151 -95 -254 -228 -254c-80 0 -140 39 -166 85z" />
    <glyph glyph-name="c" unicode="c" horiz-adv-x="516" 
d="M282 -13c-145 0 -250 106 -250 254c0 146 106 252 250 252c143 0 206 -88 206 -133c0 -41 -56 -49 -59 -44c-22 53 -63 94 -145 94c-90 0 -158 -71 -158 -169c0 -99 67 -171 158 -171c81 0 123 41 145 94c3 5 59 -2 59 -45c0 -44 -64 -132 -206 -132z" />
    <glyph glyph-name="d" unicode="d" horiz-adv-x="585" 
d="M426 210v102c-25 61 -74 99 -148 99c-90 0 -150 -68 -150 -171c0 -100 62 -171 148 -171c80 0 150 59 150 141zM425 414v262c0 3 17 11 36 11c31 0 63 -16 63 -85v-559c0 -36 -18 -47 -44 -47h-10c-26 0 -44 11 -44 47v37c-37 -58 -93 -93 -169 -93
c-129 0 -225 101 -225 253s95 253 228 253c78 0 137 -36 165 -79z" />
    <glyph glyph-name="e" unicode="e" horiz-adv-x="540" 
d="M125 281h288c-5 83 -56 137 -136 137c-79 0 -140 -57 -152 -137zM125 214c7 -88 72 -149 163 -149c84 0 126 37 151 80c2 2 52 -7 52 -49s-74 -109 -205 -109c-152 0 -254 101 -254 251c0 146 104 255 246 255c139 0 231 -98 231 -242v-8c0 -21 -7 -29 -30 -29h-354z" />
    <glyph glyph-name="f" unicode="f" horiz-adv-x="353" 
d="M108 400h-56c-32 0 -44 13 -44 38v7c0 24 12 36 44 36h56v36c0 121 57 177 153 177c74 0 108 -31 108 -65c0 -28 -22 -45 -24 -43c-14 14 -42 28 -72 28c-48 0 -69 -30 -69 -98v-35h81c32 0 44 -13 44 -37v-7c0 -24 -12 -37 -44 -37h-79v-357c0 -36 -17 -47 -43 -47h-10
c-26 0 -45 11 -45 47v357z" />
    <glyph glyph-name="g" unicode="g" horiz-adv-x="489" 
d="M243 10c-81 -5 -150 -34 -150 -85c0 -43 49 -67 144 -67c97 0 154 27 154 75c0 49 -77 59 -148 77zM240 204c66 0 112 44 112 109c0 64 -46 109 -114 109c-65 0 -111 -44 -111 -109s47 -109 113 -109zM354 464l26 46c16 26 32 38 57 38c37 0 54 -40 51 -42l-81 -84
c26 -30 41 -67 41 -108c0 -101 -86 -175 -208 -175c-6 0 -12 0 -18 1c-4 -6 -5 -12 -5 -18c0 -31 46 -34 130 -55c68 -18 140 -52 140 -131c0 -91 -93 -147 -252 -147c-162 0 -237 43 -237 133c0 70 66 117 154 132c-12 10 -20 25 -20 45s11 39 27 52
c-77 25 -126 85 -126 160c0 101 87 182 206 182c43 0 82 -11 115 -29z" />
    <glyph glyph-name="h" unicode="h" horiz-adv-x="561" 
d="M160 405c32 51 84 88 159 88c127 0 186 -88 186 -208v-242c0 -36 -19 -47 -44 -47h-11c-26 0 -44 11 -44 47v231c0 83 -42 132 -111 132c-82 0 -135 -54 -135 -141v-222c0 -36 -19 -47 -44 -47h-11c-26 0 -44 11 -44 47v633c0 3 16 11 36 11c30 0 63 -16 63 -85v-197z
" />
    <glyph glyph-name="i" unicode="i" horiz-adv-x="230" 
d="M115 584c-37 0 -59 20 -59 55c0 36 22 56 60 56c37 0 58 -20 58 -56s-21 -55 -59 -55zM110 -4c-26 0 -45 11 -45 47v395c0 36 19 48 45 48h10c26 0 44 -11 44 -48v-395c0 -36 -18 -47 -44 -47h-10z" />
    <glyph glyph-name="j" unicode="j" horiz-adv-x="230" 
d="M115 584c-37 0 -59 20 -59 55c0 36 22 56 60 56c37 0 58 -20 58 -56s-21 -55 -59 -55zM20 -200c-64 0 -102 28 -102 64c0 27 21 48 23 46c14 -14 36 -28 64 -28c43 0 60 23 60 77v479c0 36 19 48 45 48h10c26 0 44 -11 44 -48v-485c0 -98 -50 -153 -144 -153z" />
    <glyph glyph-name="k" unicode="k" horiz-adv-x="474" 
d="M160 235v-192c0 -36 -19 -47 -44 -47h-11c-26 0 -44 11 -44 47v633c0 3 16 11 36 11c30 0 63 -16 63 -85v-336l167 186c20 25 41 34 59 34c35 0 55 -34 51 -39l-175 -193l202 -219c3 -5 -19 -40 -54 -40c-19 0 -38 8 -59 34z" />
    <glyph glyph-name="l" unicode="l" horiz-adv-x="230" 
d="M110 -4c-26 0 -45 11 -45 47v633c0 3 17 11 36 11c31 0 63 -16 63 -85v-559c0 -36 -18 -47 -44 -47h-10z" />
    <glyph glyph-name="m" unicode="m" horiz-adv-x="869" 
d="M159 411c33 48 83 82 149 82c78 0 132 -37 157 -101c33 56 87 101 167 101c122 0 181 -74 181 -198v-252c0 -36 -18 -47 -44 -47h-10c-27 0 -45 11 -45 47v240c0 81 -35 123 -106 123c-51 0 -97 -32 -122 -80v-283c0 -36 -18 -47 -44 -47h-10c-26 0 -45 11 -45 47v236
c0 85 -35 127 -106 127c-50 0 -97 -32 -121 -80v-283c0 -36 -19 -47 -44 -47h-11c-26 0 -44 11 -44 47v432c0 3 16 11 36 11c28 0 58 -14 62 -75z" />
    <glyph glyph-name="n" unicode="n" horiz-adv-x="561" 
d="M159 408c33 50 87 85 160 85c127 0 186 -87 186 -206v-244c0 -36 -19 -47 -44 -47h-11c-26 0 -44 11 -44 47v232c0 81 -41 131 -111 131c-63 0 -111 -34 -135 -84v-279c0 -36 -19 -47 -44 -47h-11c-26 0 -44 11 -44 47v432c0 3 16 11 36 11c29 0 59 -15 62 -78z" />
    <glyph glyph-name="o" unicode="o" horiz-adv-x="568" 
d="M284 -13c-149 0 -252 105 -252 254c0 147 104 252 253 252c147 0 251 -106 251 -254c0 -147 -104 -252 -252 -252zM284 68c92 0 160 73 160 171c0 100 -67 173 -160 173c-92 0 -161 -72 -161 -171s69 -173 161 -173z" />
    <glyph glyph-name="p" unicode="p" horiz-adv-x="585" 
d="M159 311c0 1 0 -101 0 -101c0 -81 68 -141 148 -141c90 0 150 69 150 171c0 100 -62 171 -148 171c-73 0 -125 -39 -150 -100zM160 77v-226c0 -36 -19 -47 -44 -47h-11c-26 0 -44 11 -44 47v624c0 3 16 11 36 11c30 0 61 -16 62 -83c38 56 93 90 169 90
c129 0 225 -99 225 -252c0 -151 -95 -254 -228 -254c-79 0 -138 43 -165 90z" />
    <glyph glyph-name="q" unicode="q" horiz-adv-x="585" 
d="M426 211v100c-25 61 -74 100 -148 100c-90 0 -150 -68 -150 -171c0 -100 62 -171 148 -171c80 0 150 61 150 142zM426 412c4 60 34 74 62 74c20 0 36 -8 36 -11v-624c0 -36 -18 -47 -44 -47h-11c-25 0 -44 11 -44 47v227c-37 -57 -93 -91 -168 -91
c-129 0 -225 101 -225 253s95 253 228 253c80 0 139 -37 166 -81z" />
    <glyph glyph-name="r" unicode="r" horiz-adv-x="372" 
d="M159 402c21 59 61 91 122 91c50 0 79 -24 79 -64c0 -38 -28 -53 -30 -51c-15 12 -34 21 -61 21c-78 0 -109 -76 -109 -187v-169c0 -36 -19 -47 -44 -47h-11c-26 0 -44 11 -44 47v432c0 3 16 11 36 11c30 0 61 -16 62 -84z" />
    <glyph glyph-name="s" unicode="s" horiz-adv-x="464" 
d="M229 -12c-134 0 -203 56 -203 102c0 31 36 47 39 45c32 -41 86 -72 162 -72c68 0 106 25 106 65c0 49 -45 58 -124 75c-71 15 -169 37 -169 139c0 90 75 151 192 151c123 0 185 -52 185 -97c0 -31 -38 -49 -40 -46c-30 40 -80 68 -141 68c-68 0 -104 -26 -104 -66
c0 -44 42 -54 120 -71c74 -16 177 -38 177 -142c0 -92 -76 -151 -200 -151z" />
    <glyph glyph-name="t" unicode="t" horiz-adv-x="371" 
d="M97 400h-35c-31 0 -43 13 -43 37v7c0 24 12 37 43 37h35v74c0 34 17 47 44 47h10c26 0 43 -10 43 -47v-74h109c31 0 42 -12 42 -36v-7c0 -25 -12 -38 -43 -38h-109v-243c0 -60 17 -89 64 -89c31 0 53 14 68 34c3 3 28 -11 28 -42c0 -37 -41 -73 -112 -73
c-99 0 -144 55 -144 159v254z" />
    <glyph glyph-name="u" unicode="u" horiz-adv-x="561" 
d="M402 72c-33 -49 -86 -84 -160 -84c-127 0 -185 86 -185 206v244c0 36 18 48 43 48h11c26 0 44 -11 44 -48v-232c0 -83 42 -132 115 -132c60 0 107 34 132 85v279c0 36 18 48 43 48h11c26 0 44 -11 44 -48v-431c0 -3 -16 -11 -35 -11c-30 0 -60 15 -63 76z" />
    <glyph glyph-name="v" unicode="v" horiz-adv-x="499" 
d="M128 427l122 -338l124 338c17 47 36 59 61 59c31 0 53 -24 51 -29l-175 -432c-9 -22 -29 -31 -61 -31c-34 0 -51 7 -60 29l-177 434c-2 6 20 29 52 29c28 0 46 -12 63 -59z" />
    <glyph glyph-name="w" unicode="w" horiz-adv-x="710" 
d="M201 -6c-36 0 -54 8 -61 32l-120 431c-2 6 30 29 59 29c21 0 44 -12 52 -53l75 -337l92 291c7 24 24 35 61 35c36 0 53 -11 60 -35l89 -289l74 335c7 41 31 53 51 53c29 0 58 -24 57 -29l-119 -431c-6 -24 -24 -32 -60 -32c-41 0 -52 8 -61 35l-93 291l-96 -291
c-9 -26 -21 -35 -60 -35z" />
    <glyph glyph-name="x" unicode="x" horiz-adv-x="489" 
d="M242 188l-104 -151c-17 -27 -37 -42 -62 -42c-35 0 -58 33 -54 37l159 208l-157 210c-3 5 18 36 53 36c27 0 45 -14 62 -41l107 -153l105 153c19 30 41 41 61 41c36 0 58 -32 55 -36l-159 -210l156 -208c3 -5 -17 -37 -54 -37c-27 0 -45 15 -61 41c0 0 -107 153 -107 152
z" />
    <glyph glyph-name="y" unicode="y" horiz-adv-x="498" 
d="M199 -195c-28 0 -54 22 -52 27l80 195c-22 2 -34 8 -42 28l-172 402c-2 6 20 29 52 29c28 0 47 -13 63 -56l130 -332l115 330c14 44 36 58 62 58c27 0 54 -22 52 -27l-227 -599c-16 -43 -38 -55 -61 -55z" />
    <glyph glyph-name="z" unicode="z" horiz-adv-x="482" 
d="M76 0c-30 0 -41 18 -41 38c0 4 0 12 0 8c0 21 8 31 28 54l252 302h-235c-30 0 -43 11 -43 36v7c0 24 13 36 43 36h321c31 0 41 -17 41 -37v-6c0 -19 -7 -29 -27 -52l-257 -306h249c30 0 43 -12 43 -37v-6c0 -25 -13 -37 -43 -37h-331z" />
    <glyph glyph-name="braceleft" unicode="{" horiz-adv-x="433" 
d="M369 -199c-97 0 -219 96 -232 316l-55 30c-46 24 -58 34 -58 80s14 57 58 80l55 30c14 220 136 316 233 316c28 0 46 -16 46 -43c0 -17 -12 -33 -15 -34c-125 -23 -165 -117 -170 -285l-119 -64l118 -64c6 -168 45 -262 170 -285c4 -1 16 -17 16 -34
c0 -27 -19 -43 -47 -43z" />
    <glyph glyph-name="bar" unicode="|" horiz-adv-x="256" 
d="M123 -198c-26 0 -45 11 -45 48v756c0 36 19 47 45 47h10c26 0 44 -11 44 -47v-756c0 -36 -18 -48 -44 -48h-10z" />
    <glyph glyph-name="braceright" unicode="}" horiz-adv-x="433" 
d="M63 -199c-28 0 -46 16 -46 43c0 17 12 33 15 34c125 23 165 117 170 285l118 64l-118 64c-6 168 -45 262 -170 285c-4 1 -16 17 -16 34c0 27 18 43 46 43c97 0 220 -96 233 -316l56 -30c43 -23 58 -34 58 -80s-13 -56 -58 -80l-55 -30c-13 -220 -136 -316 -233 -316z" />
    <glyph glyph-name="asciitilde" unicode="~" horiz-adv-x="499" 
d="M131 165c-22 0 -35 14 -35 35c0 51 34 96 78 96c36 0 91 -27 144 -75c11 35 29 69 51 69s35 -14 35 -36c0 -50 -35 -95 -78 -95c-37 0 -92 26 -144 75c-12 -35 -29 -69 -51 -69z" />
    <glyph glyph-name="exclamdown" unicode="&#xa1;" horiz-adv-x="260" 
d="M124 534c-37 0 -55 19 -55 54v12c0 35 19 54 55 54h13c35 0 54 -19 54 -54v-12c0 -35 -18 -54 -54 -54h-13zM118 -6c-34 0 -54 20 -48 61l30 371c4 21 9 33 25 33h11c16 0 20 -12 24 -33l30 -371c6 -41 -14 -61 -47 -61h-25z" />
    <glyph glyph-name="cent" unicode="&#xa2;" horiz-adv-x="535" 
d="M249 29c-130 19 -211 111 -211 253c0 134 86 233 210 254v76c0 34 14 48 41 48h5c27 0 40 -13 40 -48v-74c113 -10 169 -73 169 -115c0 -40 -50 -55 -53 -50c-27 49 -62 76 -120 83v-348c60 7 101 38 126 92c3 4 55 -7 55 -47c0 -48 -61 -116 -176 -127c0 1 0 -78 0 -78
c0 -34 -14 -47 -41 -47h-5c-27 0 -40 13 -40 47v81zM253 453c-72 -17 -119 -78 -119 -171c0 -90 47 -149 119 -168v339z" />
    <glyph glyph-name="sterling" unicode="&#xa3;" horiz-adv-x="579" 
d="M229 257l-31 -171h298c31 0 46 -13 46 -40v-6c0 -27 -15 -40 -46 -40h-434c-31 0 -46 12 -46 40v7c0 26 15 39 46 39h42l31 171h-62c-25 0 -40 12 -40 35v9c0 23 16 36 40 36h77l24 133c22 121 89 190 203 190c117 0 175 -71 175 -131c0 -55 -61 -54 -62 -51
c-13 61 -48 98 -110 98c-69 0 -100 -36 -114 -116l-22 -123h150c25 0 40 -13 40 -36v-9c0 -23 -15 -35 -40 -35h-165z" />
    <glyph glyph-name="fraction" unicode="&#x2044;" horiz-adv-x="651" 
d="M76 -8c-5 -6 -48 5 -48 34c0 18 7 30 28 53l516 581c5 6 48 -4 48 -35c0 -13 -8 -30 -28 -53z" />
    <glyph glyph-name="yen" unicode="&#xa5;" horiz-adv-x="589" 
d="M248 255h-152c-30 0 -41 13 -41 33v8c0 20 11 33 41 33h122l-176 279c-4 7 17 44 63 44c21 0 38 -12 50 -36l140 -255l143 254c15 27 32 37 51 37c40 0 61 -38 57 -44l-175 -279h121c30 0 41 -13 41 -33v-8c0 -20 -11 -33 -41 -33h-151v-68h151c30 0 41 -13 41 -33v-8
c0 -20 -11 -33 -41 -33h-151v-71c0 -31 -12 -47 -42 -47h-11c-28 0 -40 16 -40 47v71h-152c-30 0 -41 13 -41 33v8c0 20 11 33 41 33h152v68z" />
    <glyph glyph-name="florin" unicode="&#x192;" horiz-adv-x="413" 
d="M115 351h-45c-32 0 -44 13 -44 37v7c0 24 12 37 44 37h60l11 61c20 112 77 166 162 166c68 0 109 -30 109 -68c0 -32 -32 -54 -33 -51c-12 17 -36 34 -69 34c-41 0 -62 -29 -74 -95l-9 -47h98c31 0 43 -13 43 -38v-7c0 -24 -12 -36 -43 -36h-109l-52 -284
c-10 -56 -36 -75 -65 -75c-27 0 -46 13 -45 17z" />
    <glyph glyph-name="section" unicode="&#xa7;" horiz-adv-x="542" 
d="M142 367c-51 23 -86 58 -86 126c0 99 93 166 219 166c149 0 207 -71 207 -112c0 -34 -40 -54 -43 -51c-38 52 -89 84 -161 84c-68 0 -123 -27 -123 -77c0 -52 57 -72 151 -93c94 -23 202 -50 202 -159c0 -63 -40 -107 -105 -130c50 -21 87 -56 87 -127
c0 -98 -90 -164 -229 -164c-160 0 -229 73 -229 123c0 32 40 53 42 50c36 -57 101 -93 187 -93c83 0 131 28 131 76c0 58 -57 69 -150 90c-95 22 -207 50 -207 161c0 64 40 108 107 130zM315 147c61 8 103 49 103 90c0 63 -74 79 -164 98c-8 2 -15 3 -23 5
c-64 -9 -107 -50 -107 -89c0 -65 77 -80 167 -99c8 -2 16 -4 24 -5z" />
    <glyph glyph-name="currency" unicode="&#xa4;" horiz-adv-x="628" 
d="M120 366h-50c-29 0 -40 12 -40 32v8c0 19 11 31 40 31h58c28 137 125 222 258 222c130 0 207 -72 207 -126c0 -40 -50 -55 -53 -51c-35 59 -80 92 -156 92c-77 0 -135 -52 -157 -137h191c29 0 39 -12 39 -31v-8c0 -20 -10 -32 -39 -32h-201v-12v-60v-9h201
c29 0 39 -13 39 -32v-8c0 -19 -10 -32 -39 -32h-191c22 -86 81 -140 162 -140c77 0 121 37 153 100c3 5 54 -11 54 -52c0 -52 -74 -134 -206 -134c-140 0 -236 84 -262 226h-58c-29 0 -40 13 -40 32v8c0 19 11 32 40 32h50v13v52v16z" />
    <glyph glyph-name="quotesingle" unicode="'" horiz-adv-x="222" 
d="M104 375c-16 0 -21 10 -24 31l-24 182c-6 47 12 64 54 64c43 0 61 -17 55 -64l-24 -182c-3 -21 -8 -31 -24 -31h-13z" />
    <glyph glyph-name="quotedblleft" unicode="&#x201c;" horiz-adv-x="391" 
d="M253 412c-24 0 -42 16 -42 47v4c0 20 9 41 24 61l82 127c15 18 58 7 50 -22l-53 -170c-9 -32 -17 -47 -52 -47h-9zM78 412c-24 0 -42 16 -42 47v4c0 20 9 40 24 61l82 127c15 18 59 7 50 -22l-53 -170c-9 -32 -17 -47 -51 -47h-10z" />
    <glyph glyph-name="guillemotleft" unicode="&#xab;" horiz-adv-x="519" 
d="M437 72c-64 0 -191 156 -191 172c0 15 127 172 191 172h2c22 0 36 -16 36 -35v-3c0 -32 -76 -87 -147 -135c72 -47 147 -102 147 -133v-4c0 -18 -14 -34 -36 -34h-2zM214 89c-58 0 -174 141 -174 155s116 155 174 155h2c19 0 32 -15 32 -32v-2c0 -29 -67 -79 -131 -122
c64 -42 131 -92 131 -121v-1c0 -18 -13 -32 -32 -32h-2z" />
    <glyph glyph-name="guilsinglleft" unicode="&#x2039;" horiz-adv-x="315" 
d="M124 244c71 -48 147 -102 147 -134v-4c0 -18 -14 -34 -36 -34h-2c-64 0 -193 156 -193 172c0 15 129 172 193 172h2c22 0 36 -16 36 -35v-3c0 -32 -76 -87 -147 -134z" />
    <glyph glyph-name="guilsinglright" unicode="&#x203a;" horiz-adv-x="315" 
d="M192 244c-72 47 -147 102 -147 134v3c0 19 13 35 35 35h1c65 0 194 -157 194 -172c0 -16 -129 -172 -194 -172h-1c-22 0 -35 16 -35 34v4c0 32 75 86 147 134z" />
    <glyph glyph-name="endash" unicode="&#x2013;" horiz-adv-x="539" 
d="M84 201c-31 0 -43 15 -43 38v9c0 22 12 38 43 38h369c31 0 43 -16 43 -38v-9c0 -23 -12 -38 -43 -38h-369z" />
    <glyph glyph-name="dagger" unicode="&#x2020;" horiz-adv-x="518" 
d="M234 422l-27 179c-7 40 11 54 52 54c42 0 59 -14 52 -54l-27 -179l155 26c39 7 54 -15 54 -52c0 -36 -15 -59 -54 -51c0 0 -155 26 -156 26c22 -29 30 -63 28 -94l-14 -407c-2 -21 -9 -29 -29 -29h-17c-21 0 -28 8 -30 29l-14 407c-2 31 6 65 28 94l-156 -26
c-39 -8 -54 15 -54 51c0 39 13 60 54 52z" />
    <glyph glyph-name="daggerdbl" unicode="&#x2021;" horiz-adv-x="518" 
d="M234 426l-27 175c-7 40 11 54 52 54c42 0 59 -14 52 -54l-27 -175l155 26c39 7 54 -15 54 -52c0 -36 -15 -59 -54 -51l-159 27c25 -29 33 -63 31 -95c0 0 -5 -137 -5 -138l133 24c39 8 54 -15 54 -51c0 -37 -15 -59 -54 -52l-135 24l-7 -218c-2 -21 -9 -29 -29 -29h-17
c-21 0 -28 8 -30 29l-7 218l-135 -24c-41 -8 -54 13 -54 52c0 36 15 59 54 51l133 -24c0 1 -5 138 -5 138c-2 32 7 66 31 95l-159 -27c-39 -8 -54 15 -54 51c0 39 13 60 54 52z" />
    <glyph glyph-name="periodcentered" unicode="&#xb7;" horiz-adv-x="232" 
d="M109 183c-35 0 -54 19 -54 54v12c0 35 18 55 54 55h13c37 0 55 -20 55 -55v-12c0 -35 -19 -54 -55 -54h-13z" />
    <glyph glyph-name="paragraph" unicode="&#xb6;" horiz-adv-x="620" 
d="M506 -5c-22 0 -33 12 -33 36v585c0 24 11 36 33 36h11c23 0 35 -12 35 -36v-585c0 -24 -12 -36 -35 -36h-11zM372 -5c-23 0 -34 15 -34 36v254h-75c-152 0 -235 61 -235 180c0 120 78 185 231 185h113c26 0 44 -18 44 -44v-575c0 -24 -11 -36 -33 -36h-11z" />
    <glyph glyph-name="bullet" unicode="&#x2022;" horiz-adv-x="334" 
d="M167 129c-64 0 -113 50 -113 114s49 116 113 116s114 -52 114 -116c0 -63 -51 -114 -114 -114z" />
    <glyph glyph-name="quotesinglbase" unicode="&#x201a;" horiz-adv-x="216" 
d="M66 -120c-14 -18 -59 -7 -50 22l53 170c10 32 17 47 52 47h9c25 0 42 -16 42 -47v-4c0 -20 -8 -41 -23 -61z" />
    <glyph glyph-name="quotedblbase" unicode="&#x201e;" horiz-adv-x="391" 
d="M241 -120c-14 -18 -60 -7 -51 22l54 170c10 32 16 47 51 47h10c24 0 41 -16 41 -47v-4c0 -20 -8 -40 -23 -61zM65 -120c-13 -18 -58 -7 -50 22l54 170c9 32 17 47 51 47h9c25 0 42 -16 42 -47v-4c0 -20 -8 -41 -23 -61z" />
    <glyph glyph-name="quotedblright" unicode="&#x201d;" horiz-adv-x="391" 
d="M249 421c-14 -18 -60 -7 -51 22l54 170c10 32 16 47 51 47h10c24 0 41 -16 41 -47v-4c0 -20 -8 -40 -23 -61zM73 421c-13 -18 -58 -7 -50 22l54 170c9 32 17 47 51 47h9c25 0 42 -16 42 -47v-4c0 -20 -8 -41 -23 -61z" />
    <glyph glyph-name="guillemotright" unicode="&#xbb;" horiz-adv-x="519" 
d="M303 89c-20 0 -32 15 -32 32v2c0 29 67 79 130 122c-63 42 -130 92 -130 121v1c0 18 12 32 32 32h1c59 0 175 -141 175 -155s-116 -155 -175 -155h-1zM80 72c-23 0 -36 16 -36 35v3c0 32 76 87 147 135c-72 47 -147 102 -147 133v4c0 19 13 34 36 34h1
c65 0 191 -156 191 -172c0 -15 -126 -172 -191 -172h-1z" />
    <glyph glyph-name="ellipsis" unicode="&#x2026;" horiz-adv-x="667" 
d="M548 -7c-35 0 -54 19 -54 54v12c0 35 19 55 54 55h13c37 0 56 -20 56 -55v-12c0 -35 -19 -54 -56 -54h-13zM326 -7c-35 0 -54 19 -54 54v12c0 35 19 55 54 55h13c37 0 55 -20 55 -55v-12c0 -35 -18 -54 -55 -54h-13zM104 -7c-35 0 -54 19 -54 54v12c0 35 18 55 54 55h13
c37 0 55 -20 55 -55v-12c0 -35 -19 -54 -55 -54h-13z" />
    <glyph glyph-name="perthousand" unicode="&#x2030;" horiz-adv-x="1096" 
d="M184 344c-89 0 -155 65 -155 151v9c0 86 67 153 156 153c90 0 156 -65 156 -151v-9c0 -86 -68 -153 -157 -153zM122 -9c-4 -5 -46 9 -46 37c0 18 7 30 29 53l503 579c4 4 46 -7 46 -37c0 -14 -8 -31 -28 -54zM911 -6c-90 0 -156 65 -156 151v9c0 86 68 153 157 153
c90 0 155 -65 155 -151v-9c0 -86 -67 -153 -156 -153zM550 -6c-90 0 -156 65 -156 151v9c0 86 68 153 157 153s155 -65 155 -151v-9c0 -86 -67 -153 -156 -153zM185 407c46 0 79 35 79 86v15c0 51 -34 87 -80 87s-79 -35 -79 -87v-15c0 -50 34 -86 80 -86zM912 57
c46 0 79 35 79 86v15c0 51 -34 87 -80 87s-79 -35 -79 -87v-15c0 -50 34 -86 80 -86zM551 57c45 0 79 35 79 86v15c0 51 -34 87 -80 87s-79 -35 -79 -87v-15c0 -50 34 -86 80 -86z" />
    <glyph glyph-name="questiondown" unicode="&#xbf;" horiz-adv-x="479" 
d="M255 534c-36 0 -55 19 -55 54v12c0 35 19 54 55 54h14c35 0 54 -19 54 -54v-12c0 -35 -19 -54 -54 -54h-14zM234 -12c-129 0 -208 71 -208 171c0 163 193 140 197 282c2 14 17 21 41 21c25 0 43 -10 42 -33c-6 -185 -182 -159 -182 -263c0 -57 41 -93 113 -93
c95 0 133 64 142 126c1 4 70 1 70 -53c0 -59 -66 -158 -215 -158z" />
    <glyph glyph-name="grave" unicode="`" 
d="M153 609c-28 17 -43 39 -43 61c0 23 21 39 45 39c15 0 32 -5 48 -17c65 -43 126 -129 121 -137c-6 -9 -99 7 -171 54z" />
    <glyph glyph-name="acute" unicode="&#xb4;" 
d="M176 555c-6 8 56 94 120 137c17 11 33 17 48 17c25 0 45 -16 45 -39c0 -22 -14 -44 -42 -61c-72 -47 -165 -63 -171 -54z" />
    <glyph glyph-name="circumflex" unicode="&#x2c6;" 
d="M249 654c-50 -75 -79 -107 -107 -107c-19 0 -32 13 -32 32c0 54 120 145 140 149c20 -4 139 -95 139 -149c0 -19 -12 -32 -31 -32c-28 0 -58 32 -109 107z" />
    <glyph glyph-name="tilde" unicode="&#x2dc;" 
d="M131 552c-22 0 -35 14 -35 35c0 51 34 96 78 96c36 0 91 -27 144 -75c11 35 29 69 51 69s35 -14 35 -36c0 -50 -35 -95 -78 -95c-37 0 -92 26 -144 75c-12 -35 -29 -69 -51 -69z" />
    <glyph glyph-name="macron" unicode="&#xaf;" 
d="M143 562c-32 0 -50 13 -50 39v6c0 24 19 37 50 37h214c32 0 50 -13 50 -37v-6c0 -26 -18 -39 -50 -39h-214z" />
    <glyph glyph-name="breve" unicode="&#x2d8;" 
d="M250 546c-66 0 -152 66 -152 111c0 22 14 38 38 38c25 0 75 -49 116 -91c37 42 87 91 112 91c24 0 38 -16 38 -38c0 -48 -89 -111 -152 -111z" />
    <glyph glyph-name="dotaccent" unicode="&#x2d9;" 
d="M250 547c-41 0 -66 26 -66 62s26 63 67 63c40 0 65 -27 65 -63s-25 -62 -66 -62z" />
    <glyph glyph-name="dieresis" unicode="&#xa8;" 
d="M343 546c-38 0 -61 22 -61 59c0 38 23 60 59 60s60 -22 60 -60c0 -37 -24 -59 -58 -59zM159 546c-36 0 -60 22 -60 59c0 38 24 60 58 60c38 0 61 -22 61 -60c0 -37 -23 -59 -59 -59z" />
    <glyph glyph-name="ring" unicode="&#x2da;" 
d="M249 546c-71 0 -120 51 -120 119s51 120 121 120c71 0 120 -51 120 -120c0 -67 -51 -119 -121 -119zM249 600c36 0 62 28 62 65c0 38 -27 67 -62 67s-61 -29 -61 -67c0 -36 27 -65 61 -65z" />
    <glyph glyph-name="cedilla" unicode="&#xb8;" 
d="M203 -224c-16 -13 -60 -5 -50 19l53 118c11 25 18 39 53 39h9c26 0 46 -13 46 -35v-5c0 -13 -12 -26 -32 -46z" />
    <glyph glyph-name="hungarumlaut" unicode="&#x2dd;" 
d="M280 555c-6 8 56 94 120 137c17 11 33 17 48 17c25 0 45 -16 45 -39c0 -22 -14 -44 -42 -61c-72 -47 -165 -63 -171 -54zM83 555c-6 8 55 94 120 137c17 11 33 17 48 17c25 0 45 -16 45 -39c0 -22 -14 -44 -42 -61c-72 -47 -165 -63 -171 -54z" />
    <glyph glyph-name="ogonek" unicode="&#x2db;" 
d="M295 -201c-35 0 -41 15 -53 39l-80 162h59l97 -115c18 -21 31 -33 31 -48c0 1 0 -3 0 -4c0 -22 -19 -34 -45 -34h-9z" />
    <glyph glyph-name="caron" unicode="&#x2c7;" 
d="M250 606c51 76 80 108 108 108c19 0 31 -14 31 -33c0 -53 -119 -145 -139 -149c-20 4 -139 96 -139 149c0 19 12 33 31 33c28 0 58 -32 108 -108z" />
    <glyph glyph-name="emdash" unicode="&#x2014;" horiz-adv-x="705" 
d="M84 201c-31 0 -43 15 -43 38v9c0 22 12 38 43 38h537c31 0 43 -16 43 -38v-9c0 -23 -12 -38 -43 -38h-537z" />
    <glyph glyph-name="AE" unicode="&#xc6;" horiz-adv-x="858" 
d="M208 273h209l-104 274zM442 190h-259l-57 -148c-14 -36 -35 -47 -57 -47c-30 0 -59 22 -56 31l226 582c8 23 25 39 66 39h465c32 0 48 -16 48 -43v-6c0 -28 -16 -43 -48 -43h-364c1 0 70 -180 70 -180h220c33 0 48 -15 48 -41v-5c0 -28 -16 -42 -48 -42h-184l76 -196h188
c32 0 47 -14 47 -41v-5c0 -29 -15 -45 -47 -45h-204c-44 0 -63 12 -78 52z" />
    <glyph glyph-name="ordfeminine" unicode="&#xaa;" horiz-adv-x="435" 
d="M172 255c-88 0 -141 42 -141 108c0 78 52 123 266 134c0 59 -29 93 -94 93c-54 0 -86 -31 -105 -64c-1 -2 -52 1 -52 38c0 38 51 96 163 96c119 0 173 -61 173 -163v-228c0 -4 -15 -9 -31 -9c-26 0 -48 12 -51 58c-27 -39 -76 -63 -128 -63zM204 -7c-32 0 -49 17 -49 49
v10c0 32 16 49 49 49h11c34 0 50 -17 50 -49v-10c0 -32 -17 -49 -50 -49h-11zM194 317c59 0 104 41 104 85v45c-153 -10 -184 -37 -184 -78c0 -32 30 -52 80 -52z" />
    <glyph glyph-name="Lslash" unicode="&#x141;" horiz-adv-x="548" 
d="M208 256v-164h273c31 0 48 -15 48 -44v-4c0 -29 -17 -44 -48 -44h-321c-33 0 -55 22 -55 57v168l-71 -22c-5 -2 -20 20 -20 42c0 23 11 41 59 56l32 10v293c0 32 15 47 43 47h15c30 0 45 -15 45 -47v-262l182 56c6 1 20 -20 20 -42c0 -23 -13 -42 -59 -56z" />
    <glyph glyph-name="Oslash" unicode="&#xd8;" horiz-adv-x="741" 
d="M184 174l319 354c-36 26 -81 41 -133 41c-139 0 -228 -104 -228 -245c0 -57 15 -109 42 -150zM555 476c0 0 -319 -355 -319 -356c36 -26 83 -42 136 -42c138 0 228 104 228 244c0 59 -16 112 -45 154zM623 547c48 -59 75 -136 75 -223c0 -191 -134 -337 -328 -337
c-78 0 -146 23 -199 63c0 1 -84 -93 -84 -93c-5 -5 -45 13 -45 42c0 13 6 28 24 49l50 55c-46 58 -72 134 -72 219c0 191 134 338 328 338c76 0 143 -22 196 -61l76 85c4 5 44 -13 44 -42c0 -13 -5 -28 -23 -49z" />
    <glyph glyph-name="OE" unicode="&#x152;" horiz-adv-x="1031" 
d="M370 -13c-193 0 -327 138 -327 335c0 198 137 338 328 338c35 0 67 -5 97 -13h475c32 0 48 -16 48 -43v-6c0 -28 -16 -43 -48 -43h-337c49 -42 81 -104 87 -181h176c33 0 48 -14 48 -41v-3c0 -28 -16 -43 -48 -43h-175c-4 -82 -36 -150 -89 -196h344c32 0 47 -14 47 -41
v-5c0 -29 -15 -45 -47 -45h-481c-30 -8 -64 -13 -98 -13zM371 78c131 0 223 100 223 244s-93 247 -224 247s-223 -100 -223 -245c0 -144 93 -246 224 -246z" />
    <glyph glyph-name="ordmasculine" unicode="&#xba;" horiz-adv-x="478" 
d="M239 254c-117 0 -201 87 -201 202c0 113 88 204 202 204c116 0 200 -88 200 -203c0 -114 -87 -203 -201 -203zM232 -7c-32 0 -49 17 -49 49v10c0 32 17 49 49 49h11c34 0 50 -17 50 -49v-10c0 -32 -16 -49 -50 -49h-11zM240 326c69 0 120 56 120 131
c0 74 -52 131 -120 131c-70 0 -122 -57 -122 -131c0 -73 53 -131 122 -131z" />
    <glyph glyph-name="ae" unicode="&#xe6;" horiz-adv-x="867" 
d="M453 281h287c-5 83 -56 137 -135 137c-80 0 -140 -57 -152 -137zM221 60c86 0 148 54 148 130v37l-27 -1c-140 -5 -212 -31 -212 -96c0 -43 34 -70 91 -70zM369 289v10c0 73 -42 114 -119 114c-73 0 -116 -39 -138 -83c0 -1 -61 0 -61 48c0 46 69 115 201 115
c84 0 142 -32 172 -88c40 56 103 88 181 88c139 0 232 -98 232 -242v-8c-1 -21 -8 -29 -30 -29h-355c7 -88 72 -149 163 -149c84 0 126 37 152 80c1 2 51 -7 51 -49s-73 -109 -205 -109c-103 0 -175 43 -212 117c-34 -68 -110 -115 -203 -115c-103 0 -165 55 -165 137
c0 111 106 159 323 163h13z" />
    <glyph glyph-name="dotlessi" unicode="&#x131;" horiz-adv-x="230" 
d="M110 -4c-26 0 -45 11 -45 47v395c0 36 19 48 45 48h10c26 0 44 -11 44 -48v-395c0 -36 -18 -47 -44 -47h-10z" />
    <glyph glyph-name="lslash" unicode="&#x142;" horiz-adv-x="336" 
d="M215 264v-222c0 -36 -18 -47 -44 -47h-10c-27 0 -45 11 -45 47v191c0 1 -83 -25 -83 -25c-5 -1 -20 23 -20 43c0 21 11 39 58 54c0 0 45 14 45 13v358c0 3 17 11 36 11c31 0 63 -16 63 -85v-253l89 27c5 2 20 -23 20 -43c0 -21 -12 -40 -59 -54z" />
    <glyph glyph-name="oslash" unicode="&#xf8;" horiz-adv-x="568" 
d="M74 -46c-4 -4 -43 11 -43 37c0 12 6 26 23 45l38 42c-34 43 -54 99 -54 161c0 142 109 254 250 254c54 0 102 -17 142 -44l69 77c4 4 43 -11 43 -37c0 -11 -6 -26 -22 -44l-39 -42c35 -44 55 -100 55 -162c0 -142 -109 -254 -250 -254c-54 0 -102 16 -142 44zM157 141
l219 241c-25 19 -56 30 -89 30c-92 0 -159 -73 -159 -172c0 -37 11 -71 29 -99zM287 68c92 0 159 74 159 172c0 37 -10 72 -29 100l-219 -241c25 -19 55 -31 89 -31z" />
    <glyph glyph-name="oe" unicode="&#x153;" horiz-adv-x="952" 
d="M537 281h288c-5 83 -56 137 -136 137c-79 0 -140 -57 -152 -137zM284 68c92 0 160 73 160 171c0 100 -67 173 -160 173c-92 0 -161 -72 -161 -171s69 -173 161 -173zM485 95c-41 -66 -112 -108 -201 -108c-149 0 -252 105 -252 254c0 147 104 252 253 252
c90 0 162 -43 203 -111c41 69 113 111 202 111c139 0 231 -98 231 -242v-8c0 -21 -7 -29 -30 -29h-354c7 -88 72 -149 163 -149c84 0 126 37 151 80c2 2 52 -7 52 -49s-74 -109 -205 -109c-98 0 -172 39 -213 108z" />
    <glyph glyph-name="germandbls" unicode="&#xdf;" horiz-adv-x="552" 
d="M347 384c130 -36 180 -112 180 -210c0 -105 -82 -187 -187 -187c-92 0 -138 38 -138 77c0 28 27 49 30 47c21 -24 46 -43 97 -43c55 0 102 48 102 106c0 60 -28 112 -135 140c-41 12 -59 28 -59 63c0 27 21 50 21 50c89 -1 136 26 136 93c0 58 -43 93 -111 93
c-79 0 -123 -45 -123 -146c0 3 0 -425 0 -425c0 -33 -18 -47 -45 -47h-10c-26 0 -44 14 -44 47v420c0 156 80 232 223 232c125 0 205 -65 205 -163c0 -86 -47 -134 -142 -147z" />
    <glyph glyph-name="Eth" unicode="&#xd0;" horiz-adv-x="721" 
d="M207 364h175c29 0 40 -15 40 -35v-9c0 -21 -11 -36 -40 -36h-175v-193h116c160 0 251 85 251 233c0 146 -92 232 -250 232h-117v-192zM105 284h-53c-29 0 -39 15 -39 36v9c0 20 10 35 39 35h53v225c0 35 24 58 55 58c0 0 163 0 162 0c219 0 355 -122 355 -322
c0 -201 -139 -325 -360 -325c1 0 -155 0 -155 0c-32 0 -57 26 -57 57v227z" />
    <glyph glyph-name="eth" unicode="&#xf0;" horiz-adv-x="580" 
d="M440 285c-22 41 -84 82 -150 82c-100 0 -155 -54 -155 -147c0 -96 59 -152 148 -152c100 0 157 79 157 184v33zM323 558l-114 -63c-25 -14 -43 -8 -52 11l-2 5c-10 19 -6 35 20 50l75 40c-45 20 -95 32 -149 35c-8 1 1 66 73 66c53 0 115 -17 172 -51l105 57
c26 14 41 6 52 -12l3 -3c12 -18 6 -36 -21 -50c0 0 -75 -40 -76 -40c75 -69 132 -174 132 -320c0 -186 -105 -296 -259 -296c-146 0 -244 87 -244 232c0 134 95 224 235 224c75 0 138 -38 168 -81c-15 84 -58 150 -118 196z" />
    <glyph glyph-name="Scaron" unicode="&#x160;" horiz-adv-x="554" 
d="M275 -13c-156 0 -243 76 -243 129c0 34 44 59 47 55c37 -54 106 -99 195 -99c90 0 141 37 141 101c0 73 -76 90 -162 110c-100 23 -204 58 -204 189c0 110 95 188 233 188c144 0 222 -68 222 -115c0 -37 -46 -60 -48 -57c-34 49 -98 87 -173 87c-81 0 -134 -39 -134 -99
c0 -71 63 -82 153 -103c110 -25 216 -68 216 -193c0 -119 -92 -193 -243 -193zM282 772c51 76 80 108 108 108c19 0 31 -14 31 -33c0 -53 -119 -145 -139 -149c-20 4 -139 96 -139 149c0 19 12 33 31 33c28 0 58 -32 108 -108z" />
    <glyph glyph-name="scaron" unicode="&#x161;" horiz-adv-x="464" 
d="M229 -12c-134 0 -203 56 -203 102c0 31 36 47 39 45c32 -41 86 -72 162 -72c68 0 106 25 106 65c0 49 -45 58 -124 75c-71 15 -169 37 -169 139c0 90 75 151 192 151c123 0 185 -52 185 -97c0 -31 -38 -49 -40 -46c-30 40 -80 68 -141 68c-68 0 -104 -26 -104 -66
c0 -44 42 -54 120 -71c74 -16 177 -38 177 -142c0 -92 -76 -151 -200 -151zM226 606c51 76 80 108 108 108c19 0 31 -14 31 -33c0 -53 -119 -145 -139 -149c-20 4 -139 96 -139 149c0 19 12 33 31 33c28 0 58 -32 108 -108z" />
    <glyph glyph-name="Yacute" unicode="&#xdd;" horiz-adv-x="573" 
d="M338 266v-223c0 -31 -15 -47 -45 -47h-14c-29 0 -44 16 -44 47v223l-229 343c-3 7 16 42 65 42c19 0 37 -12 50 -36l166 -264l166 264c16 26 34 36 51 36c45 0 66 -36 62 -42zM222 713c-6 8 56 94 120 137c17 11 33 17 48 17c25 0 45 -16 45 -39c0 -22 -14 -44 -42 -61
c-72 -47 -165 -63 -171 -54z" />
    <glyph glyph-name="yacute" unicode="&#xfd;" horiz-adv-x="498" 
d="M199 -195c-28 0 -54 22 -52 27l80 195c-22 2 -34 8 -42 28l-172 402c-2 6 20 29 52 29c28 0 47 -13 63 -56l130 -332l115 330c14 44 36 58 62 58c27 0 54 -22 52 -27l-227 -599c-16 -43 -38 -55 -61 -55zM193 547c-6 8 56 94 120 137c17 11 33 17 48 17
c25 0 45 -16 45 -39c0 -22 -14 -44 -42 -61c-72 -47 -165 -63 -171 -54z" />
    <glyph glyph-name="Thorn" unicode="&#xde;" horiz-adv-x="575" 
d="M172 531h118c161 0 251 -73 251 -204c0 -134 -87 -206 -255 -206h-114v-78c0 -31 -15 -47 -45 -47h-15c-28 0 -43 16 -43 47v561c0 31 15 47 43 47h15c30 0 45 -16 45 -47v-73zM172 204h117c100 0 150 43 150 121c0 80 -50 121 -148 121h-119v-242z" />
    <glyph glyph-name="thorn" unicode="&#xfe;" horiz-adv-x="593" 
d="M160 314v-121c9 -72 73 -124 147 -124c90 0 150 69 150 171c0 100 -62 171 -148 171c-72 0 -123 -38 -149 -97zM160 71v-220c0 -36 -19 -47 -44 -47h-11c-26 0 -44 11 -44 47v825c0 3 16 11 36 11c30 0 63 -16 63 -85v-200c39 56 95 91 168 91c129 0 225 -99 225 -252
s-94 -254 -228 -254c-77 0 -136 39 -165 84z" />
    <glyph glyph-name="Zcaron" unicode="&#x17d;" horiz-adv-x="609" 
d="M115 0c-48 0 -67 23 -67 49v9c0 30 10 45 43 86l339 413h-333c-30 0 -46 13 -46 42v6c0 28 16 42 46 42h391c48 0 66 -22 66 -48v-9c0 -30 -16 -52 -42 -83l-342 -417h353c30 0 46 -13 46 -42v-6c0 -28 -16 -42 -46 -42h-408zM297 772c51 76 80 108 108 108
c19 0 31 -14 31 -33c0 -53 -119 -145 -139 -149c-20 4 -139 96 -139 149c0 19 12 33 31 33c28 0 58 -32 108 -108z" />
    <glyph glyph-name="zcaron" unicode="&#x17e;" horiz-adv-x="482" 
d="M76 0c-30 0 -41 18 -41 38c0 4 0 12 0 8c0 21 8 31 28 54l252 302h-235c-30 0 -43 11 -43 36v7c0 24 13 36 43 36h321c31 0 41 -17 41 -37v-6c0 -19 -7 -29 -27 -52l-257 -306h249c30 0 43 -12 43 -37v-6c0 -25 -13 -37 -43 -37h-331zM235 606c51 76 80 108 108 108
c19 0 31 -14 31 -33c0 -53 -119 -145 -139 -149c-20 4 -139 96 -139 149c0 19 12 33 31 33c28 0 58 -32 108 -108z" />
    <glyph glyph-name="multiply" unicode="&#xd7;" horiz-adv-x="546" 
d="M101 77l-6 6c-16 15 -18 35 4 57l120 122l-120 120c-22 22 -19 43 -4 58l6 6c15 16 36 19 58 -5l116 -122l115 122c23 24 44 21 59 5l5 -6c16 -15 19 -36 -3 -58l-120 -120l120 -122c22 -22 19 -42 3 -57l-6 -6c-14 -15 -35 -19 -58 5l-115 122l-116 -122
c-22 -24 -43 -20 -58 -5z" />
    <glyph glyph-name="Adieresis" unicode="&#xc4;" horiz-adv-x="630" 
d="M208 273h209l-104 274zM442 190h-259l-57 -148c-13 -36 -35 -47 -57 -47c-30 0 -59 22 -56 31l230 594c8 21 24 33 71 33c48 0 63 -12 71 -33l232 -594c3 -8 -26 -31 -57 -31c-23 0 -47 11 -61 48zM410 712c-38 0 -61 22 -61 59c0 38 23 60 59 60s60 -22 60 -60
c0 -37 -24 -59 -58 -59zM226 712c-36 0 -60 22 -60 59c0 38 24 60 58 60c38 0 61 -22 61 -60c0 -37 -23 -59 -59 -59z" />
    <glyph glyph-name="Aring" unicode="&#xc5;" horiz-adv-x="630" 
d="M314 655c35 0 61 28 61 65c0 38 -27 67 -61 67c-35 0 -62 -29 -62 -67c0 -36 28 -65 62 -65zM442 190h-259l-57 -148c-13 -36 -35 -47 -57 -47c-30 0 -59 22 -56 31l230 594c0 1 1 2 3 3c-33 20 -52 54 -52 97c0 68 51 120 121 120s120 -51 120 -120
c0 -42 -20 -77 -54 -97c2 -1 3 -2 3 -3l233 -594c3 -8 -26 -31 -57 -31c-23 0 -47 11 -61 48zM208 273h209l-104 276z" />
    <glyph glyph-name="Ccedilla" unicode="&#xc7;" horiz-adv-x="657" 
d="M370 -13c-192 0 -326 138 -326 335c0 198 135 338 329 338c162 0 244 -92 244 -137c0 -48 -58 -60 -60 -56c-37 65 -110 100 -183 100c-131 0 -223 -99 -223 -243c0 -143 95 -244 225 -244c87 0 160 43 187 113c2 5 64 -7 64 -55s-85 -151 -257 -151zM307 -224
c-16 -13 -60 -5 -50 19l53 118c11 25 18 39 53 39h9c26 0 46 -13 46 -35v-5c0 -13 -12 -26 -32 -46z" />
    <glyph glyph-name="Eacute" unicode="&#xc9;" horiz-adv-x="587" 
d="M124 0c-33 0 -55 22 -55 57v532c0 35 22 58 55 58h375c32 0 48 -16 48 -43v-6c0 -28 -16 -43 -48 -43h-327v-181h253c33 0 48 -14 48 -41v-3c0 -28 -16 -43 -48 -43h-253v-196h333c32 0 47 -14 47 -41v-5c0 -29 -15 -45 -47 -45h-381zM226 721c-6 8 56 94 120 137
c17 11 33 17 48 17c25 0 45 -16 45 -39c0 -22 -14 -44 -42 -61c-72 -47 -165 -63 -171 -54z" />
    <glyph glyph-name="Ntilde" unicode="&#xd1;" horiz-adv-x="682" 
d="M111 -4c-29 0 -42 16 -42 47v550c0 35 17 58 49 58h17c31 0 43 -13 62 -39l320 -454v446c0 31 13 47 43 47h12c28 0 42 -16 42 -47v-550c0 -36 -18 -58 -48 -58h-8c-31 0 -39 9 -55 31l-337 477v-461c0 -31 -14 -47 -44 -47h-11zM223 718c-22 0 -35 14 -35 35
c0 51 34 96 78 96c36 0 91 -27 144 -75c11 35 29 69 51 69s35 -14 35 -36c0 -50 -35 -95 -78 -95c-37 0 -92 26 -144 75c-12 -35 -29 -69 -51 -69z" />
    <glyph glyph-name="Odieresis" unicode="&#xd6;" horiz-adv-x="741" 
d="M370 -13c-193 0 -327 138 -327 335c0 198 137 338 328 338c193 0 327 -138 327 -336s-136 -337 -328 -337zM371 78c131 0 223 100 223 244s-93 247 -224 247s-223 -100 -223 -245c0 -144 93 -246 224 -246zM464 712c-38 0 -61 22 -61 59c0 38 23 60 59 60s60 -22 60 -60
c0 -37 -24 -59 -58 -59zM280 712c-36 0 -60 22 -60 59c0 38 24 60 58 60c38 0 61 -22 61 -60c0 -37 -23 -59 -59 -59z" />
    <glyph glyph-name="Udieresis" unicode="&#xdc;" horiz-adv-x="650" 
d="M324 -12c-172 0 -263 95 -263 275v341c0 31 16 47 44 47h14c30 0 45 -16 45 -47v-338c0 -123 54 -187 161 -187c109 0 161 62 161 188v337c0 32 15 47 44 47h16c29 0 43 -15 43 -47v-339c0 -180 -93 -277 -265 -277zM417 712c-38 0 -61 22 -61 59c0 38 23 60 59 60
s60 -22 60 -60c0 -37 -24 -59 -58 -59zM233 712c-36 0 -60 22 -60 59c0 38 24 60 58 60c38 0 61 -22 61 -60c0 -37 -23 -59 -59 -59z" />
    <glyph glyph-name="aacute" unicode="&#xe1;" horiz-adv-x="523" 
d="M221 60c86 0 148 54 148 130v37l-27 -1c-140 -5 -212 -31 -212 -96c0 -43 34 -70 91 -70zM369 289v10c0 73 -42 113 -119 113c-73 0 -116 -38 -138 -82c0 -1 -61 0 -61 48c0 46 70 115 206 115s210 -70 210 -192v-295c0 -5 -18 -11 -36 -11c-35 0 -60 19 -61 78
c-36 -52 -99 -84 -173 -84c-103 0 -164 55 -164 137c0 111 106 159 323 163h13zM186 555c-6 8 56 94 120 137c17 11 33 17 48 17c25 0 45 -16 45 -39c0 -22 -14 -44 -42 -61c-72 -47 -165 -63 -171 -54z" />
    <glyph glyph-name="agrave" unicode="&#xe0;" horiz-adv-x="523" 
d="M221 60c86 0 148 54 148 130v37l-27 -1c-140 -5 -212 -31 -212 -96c0 -43 34 -70 91 -70zM369 289v10c0 73 -42 113 -119 113c-73 0 -116 -38 -138 -82c0 -1 -61 0 -61 48c0 46 70 115 206 115s210 -70 210 -192v-295c0 -5 -18 -11 -36 -11c-35 0 -60 19 -61 78
c-36 -52 -99 -84 -173 -84c-103 0 -164 55 -164 137c0 111 106 159 323 163h13zM167 609c-28 17 -43 39 -43 61c0 23 21 39 45 39c15 0 32 -5 48 -17c65 -43 126 -129 121 -137c-6 -9 -99 7 -171 54z" />
    <glyph glyph-name="acircumflex" unicode="&#xe2;" horiz-adv-x="523" 
d="M221 60c86 0 148 54 148 130v37l-27 -1c-140 -5 -212 -31 -212 -96c0 -43 34 -70 91 -70zM369 289v10c0 73 -42 113 -119 113c-73 0 -116 -38 -138 -82c0 -1 -61 0 -61 48c0 46 70 115 206 115s210 -70 210 -192v-295c0 -5 -18 -11 -36 -11c-35 0 -60 19 -61 78
c-36 -52 -99 -84 -173 -84c-103 0 -164 55 -164 137c0 111 106 159 323 163h13zM261 654c-50 -75 -79 -107 -107 -107c-19 0 -32 13 -32 32c0 54 120 145 140 149c20 -4 139 -95 139 -149c0 -19 -12 -32 -31 -32c-28 0 -58 32 -109 107z" />
    <glyph glyph-name="adieresis" unicode="&#xe4;" horiz-adv-x="523" 
d="M221 60c86 0 148 54 148 130v37l-27 -1c-140 -5 -212 -31 -212 -96c0 -43 34 -70 91 -70zM369 289v10c0 73 -42 113 -119 113c-73 0 -116 -38 -138 -82c0 -1 -61 0 -61 48c0 46 70 115 206 115s210 -70 210 -192v-295c0 -5 -18 -11 -36 -11c-35 0 -60 19 -61 78
c-36 -52 -99 -84 -173 -84c-103 0 -164 55 -164 137c0 111 106 159 323 163h13zM353 546c-38 0 -61 22 -61 59c0 38 23 60 59 60s60 -22 60 -60c0 -37 -24 -59 -58 -59zM169 546c-36 0 -60 22 -60 59c0 38 24 60 58 60c38 0 61 -22 61 -60c0 -37 -23 -59 -59 -59z" />
    <glyph glyph-name="atilde" unicode="&#xe3;" horiz-adv-x="523" 
d="M221 60c86 0 148 54 148 130v37l-27 -1c-140 -5 -212 -31 -212 -96c0 -43 34 -70 91 -70zM369 289v10c0 73 -42 113 -119 113c-73 0 -116 -38 -138 -82c0 -1 -61 0 -61 48c0 46 70 115 206 115s210 -70 210 -192v-295c0 -5 -18 -11 -36 -11c-35 0 -60 19 -61 78
c-36 -52 -99 -84 -173 -84c-103 0 -164 55 -164 137c0 111 106 159 323 163h13zM142 552c-22 0 -35 14 -35 35c0 51 34 96 78 96c36 0 91 -27 144 -75c11 35 29 69 51 69s35 -14 35 -36c0 -50 -35 -95 -78 -95c-37 0 -92 26 -144 75c-12 -35 -29 -69 -51 -69z" />
    <glyph glyph-name="aring" unicode="&#xe5;" horiz-adv-x="523" 
d="M221 60c86 0 148 54 148 130v37l-27 -1c-140 -5 -212 -31 -212 -96c0 -43 34 -70 91 -70zM369 289v10c0 73 -42 113 -119 113c-73 0 -116 -38 -138 -82c0 -1 -61 0 -61 48c0 46 70 115 206 115s210 -70 210 -192v-295c0 -5 -18 -11 -36 -11c-35 0 -60 19 -61 78
c-36 -52 -99 -84 -173 -84c-103 0 -164 55 -164 137c0 111 106 159 323 163h13zM259 546c-71 0 -120 51 -120 119s51 120 121 120c71 0 120 -51 120 -120c0 -67 -51 -119 -121 -119zM259 600c36 0 62 28 62 65c0 38 -27 67 -62 67s-61 -29 -61 -67c0 -36 27 -65 61 -65z" />
    <glyph glyph-name="ccedilla" unicode="&#xe7;" horiz-adv-x="516" 
d="M282 -13c-145 0 -250 106 -250 254c0 146 106 252 250 252c143 0 206 -88 206 -133c0 -41 -56 -49 -59 -44c-22 53 -63 94 -145 94c-90 0 -158 -71 -158 -169c0 -99 67 -171 158 -171c81 0 123 41 145 94c3 5 59 -2 59 -45c0 -44 -64 -132 -206 -132zM228 -224
c-16 -13 -60 -5 -50 19l53 118c11 25 18 39 53 39h9c26 0 46 -13 46 -35v-5c0 -13 -12 -26 -32 -46z" />
    <glyph glyph-name="eacute" unicode="&#xe9;" horiz-adv-x="540" 
d="M125 281h288c-5 83 -56 137 -136 137c-79 0 -140 -57 -152 -137zM125 214c7 -88 72 -149 163 -149c84 0 126 37 151 80c2 2 52 -7 52 -49s-74 -109 -205 -109c-152 0 -254 101 -254 251c0 146 104 255 246 255c139 0 231 -98 231 -242v-8c0 -21 -7 -29 -30 -29h-354z
M202 555c-6 8 56 94 120 137c17 11 33 17 48 17c25 0 45 -16 45 -39c0 -22 -14 -44 -42 -61c-72 -47 -165 -63 -171 -54z" />
    <glyph glyph-name="egrave" unicode="&#xe8;" horiz-adv-x="540" 
d="M125 281h288c-5 83 -56 137 -136 137c-79 0 -140 -57 -152 -137zM125 214c7 -88 72 -149 163 -149c84 0 126 37 151 80c2 2 52 -7 52 -49s-74 -109 -205 -109c-152 0 -254 101 -254 251c0 146 104 255 246 255c139 0 231 -98 231 -242v-8c0 -21 -7 -29 -30 -29h-354z
M169 609c-28 17 -43 39 -43 61c0 23 21 39 45 39c15 0 32 -5 48 -17c65 -43 126 -129 121 -137c-6 -9 -99 7 -171 54z" />
    <glyph glyph-name="ecircumflex" unicode="&#xea;" horiz-adv-x="540" 
d="M125 281h288c-5 83 -56 137 -136 137c-79 0 -140 -57 -152 -137zM125 214c7 -88 72 -149 163 -149c84 0 126 37 151 80c2 2 52 -7 52 -49s-74 -109 -205 -109c-152 0 -254 101 -254 251c0 146 104 255 246 255c139 0 231 -98 231 -242v-8c0 -21 -7 -29 -30 -29h-354z
M277 654c-50 -75 -79 -107 -107 -107c-19 0 -32 13 -32 32c0 54 120 145 140 149c20 -4 139 -95 139 -149c0 -19 -12 -32 -31 -32c-28 0 -58 32 -109 107z" />
    <glyph glyph-name="edieresis" unicode="&#xeb;" horiz-adv-x="540" 
d="M125 281h288c-5 83 -56 137 -136 137c-79 0 -140 -57 -152 -137zM125 214c7 -88 72 -149 163 -149c84 0 126 37 151 80c2 2 52 -7 52 -49s-74 -109 -205 -109c-152 0 -254 101 -254 251c0 146 104 255 246 255c139 0 231 -98 231 -242v-8c0 -21 -7 -29 -30 -29h-354z
M371 546c-38 0 -61 22 -61 59c0 38 23 60 59 60s60 -22 60 -60c0 -37 -24 -59 -58 -59zM187 546c-36 0 -60 22 -60 59c0 38 24 60 58 60c38 0 61 -22 61 -60c0 -37 -23 -59 -59 -59z" />
    <glyph glyph-name="iacute" unicode="&#xed;" horiz-adv-x="230" 
d="M110 -4c-26 0 -45 11 -45 47v395c0 36 19 48 45 48h10c26 0 44 -11 44 -48v-395c0 -36 -18 -47 -44 -47h-10zM71 555c-6 8 56 94 120 137c17 11 33 17 48 17c25 0 45 -16 45 -39c0 -22 -14 -44 -42 -61c-72 -47 -165 -63 -171 -54z" />
    <glyph glyph-name="igrave" unicode="&#xec;" horiz-adv-x="230" 
d="M110 -4c-26 0 -45 11 -45 47v395c0 36 19 48 45 48h10c26 0 44 -11 44 -48v-395c0 -36 -18 -47 -44 -47h-10zM108 609c-28 17 -43 39 -43 61c0 23 21 39 45 39c15 0 32 -5 48 -17c65 -43 126 -129 121 -137c-6 -9 -99 7 -171 54z" />
    <glyph glyph-name="icircumflex" unicode="&#xee;" horiz-adv-x="230" 
d="M110 -4c-26 0 -45 11 -45 47v395c0 36 19 48 45 48h10c26 0 44 -11 44 -48v-395c0 -36 -18 -47 -44 -47h-10zM204 654c-50 -75 -79 -107 -107 -107c-19 0 -32 13 -32 32c0 54 120 145 140 149c20 -4 139 -95 139 -149c0 -19 -12 -32 -31 -32c-28 0 -58 32 -109 107z" />
    <glyph glyph-name="idieresis" unicode="&#xef;" horiz-adv-x="230" 
d="M110 -4c-26 0 -45 11 -45 47v395c0 36 19 48 45 48h10c26 0 44 -11 44 -48v-395c0 -36 -18 -47 -44 -47h-10zM309 546c-38 0 -61 22 -61 59c0 38 23 60 59 60s60 -22 60 -60c0 -37 -24 -59 -58 -59zM125 546c-36 0 -60 22 -60 59c0 38 24 60 58 60c38 0 61 -22 61 -60
c0 -37 -23 -59 -59 -59z" />
    <glyph glyph-name="ntilde" unicode="&#xf1;" horiz-adv-x="561" 
d="M159 408c33 50 87 85 160 85c127 0 186 -87 186 -206v-244c0 -36 -19 -47 -44 -47h-11c-26 0 -44 11 -44 47v232c0 81 -41 131 -111 131c-63 0 -111 -34 -135 -84v-279c0 -36 -19 -47 -44 -47h-11c-26 0 -44 11 -44 47v432c0 3 16 11 36 11c29 0 59 -15 62 -78zM159 552
c-22 0 -35 14 -35 35c0 51 34 96 78 96c36 0 91 -27 144 -75c11 35 29 69 51 69s35 -14 35 -36c0 -50 -35 -95 -78 -95c-37 0 -92 26 -144 75c-12 -35 -29 -69 -51 -69z" />
    <glyph glyph-name="oacute" unicode="&#xf3;" horiz-adv-x="568" 
d="M284 -13c-149 0 -252 105 -252 254c0 147 104 252 253 252c147 0 251 -106 251 -254c0 -147 -104 -252 -252 -252zM284 68c92 0 160 73 160 171c0 100 -67 173 -160 173c-92 0 -161 -72 -161 -171s69 -173 161 -173zM229 555c-6 8 56 94 120 137c17 11 33 17 48 17
c25 0 45 -16 45 -39c0 -22 -14 -44 -42 -61c-72 -47 -165 -63 -171 -54z" />
    <glyph glyph-name="ograve" unicode="&#xf2;" horiz-adv-x="568" 
d="M284 -13c-149 0 -252 105 -252 254c0 147 104 252 253 252c147 0 251 -106 251 -254c0 -147 -104 -252 -252 -252zM284 68c92 0 160 73 160 171c0 100 -67 173 -160 173c-92 0 -161 -72 -161 -171s69 -173 161 -173zM174 609c-28 17 -43 39 -43 61c0 23 21 39 45 39
c15 0 32 -5 48 -17c65 -43 126 -129 121 -137c-6 -9 -99 7 -171 54z" />
    <glyph glyph-name="ocircumflex" unicode="&#xf4;" horiz-adv-x="568" 
d="M284 -13c-149 0 -252 105 -252 254c0 147 104 252 253 252c147 0 251 -106 251 -254c0 -147 -104 -252 -252 -252zM284 68c92 0 160 73 160 171c0 100 -67 173 -160 173c-92 0 -161 -72 -161 -171s69 -173 161 -173zM286 654c-50 -75 -79 -107 -107 -107
c-19 0 -32 13 -32 32c0 54 120 145 140 149c20 -4 139 -95 139 -149c0 -19 -12 -32 -31 -32c-28 0 -58 32 -109 107z" />
    <glyph glyph-name="odieresis" unicode="&#xf6;" horiz-adv-x="568" 
d="M284 -13c-149 0 -252 105 -252 254c0 147 104 252 253 252c147 0 251 -106 251 -254c0 -147 -104 -252 -252 -252zM284 68c92 0 160 73 160 171c0 100 -67 173 -160 173c-92 0 -161 -72 -161 -171s69 -173 161 -173zM380 546c-38 0 -61 22 -61 59c0 38 23 60 59 60
s60 -22 60 -60c0 -37 -24 -59 -58 -59zM196 546c-36 0 -60 22 -60 59c0 38 24 60 58 60c38 0 61 -22 61 -60c0 -37 -23 -59 -59 -59z" />
    <glyph glyph-name="otilde" unicode="&#xf5;" horiz-adv-x="568" 
d="M284 -13c-149 0 -252 105 -252 254c0 147 104 252 253 252c147 0 251 -106 251 -254c0 -147 -104 -252 -252 -252zM284 68c92 0 160 73 160 171c0 100 -67 173 -160 173c-92 0 -161 -72 -161 -171s69 -173 161 -173zM169 552c-22 0 -35 14 -35 35c0 51 34 96 78 96
c36 0 91 -27 144 -75c11 35 29 69 51 69s35 -14 35 -36c0 -50 -35 -95 -78 -95c-37 0 -92 26 -144 75c-12 -35 -29 -69 -51 -69z" />
    <glyph glyph-name="uacute" unicode="&#xfa;" horiz-adv-x="561" 
d="M402 72c-33 -49 -86 -84 -160 -84c-127 0 -185 86 -185 206v244c0 36 18 48 43 48h11c26 0 44 -11 44 -48v-232c0 -83 42 -132 115 -132c60 0 107 34 132 85v279c0 36 18 48 43 48h11c26 0 44 -11 44 -48v-431c0 -3 -16 -11 -35 -11c-30 0 -60 15 -63 76zM230 555
c-6 8 56 94 120 137c17 11 33 17 48 17c25 0 45 -16 45 -39c0 -22 -14 -44 -42 -61c-72 -47 -165 -63 -171 -54z" />
    <glyph glyph-name="ugrave" unicode="&#xf9;" horiz-adv-x="561" 
d="M402 72c-33 -49 -86 -84 -160 -84c-127 0 -185 86 -185 206v244c0 36 18 48 43 48h11c26 0 44 -11 44 -48v-232c0 -83 42 -132 115 -132c60 0 107 34 132 85v279c0 36 18 48 43 48h11c26 0 44 -11 44 -48v-431c0 -3 -16 -11 -35 -11c-30 0 -60 15 -63 76zM167 609
c-28 17 -43 39 -43 61c0 23 21 39 45 39c15 0 32 -5 48 -17c65 -43 126 -129 121 -137c-6 -9 -99 7 -171 54z" />
    <glyph glyph-name="ucircumflex" unicode="&#xfb;" horiz-adv-x="561" 
d="M402 72c-33 -49 -86 -84 -160 -84c-127 0 -185 86 -185 206v244c0 36 18 48 43 48h11c26 0 44 -11 44 -48v-232c0 -83 42 -132 115 -132c60 0 107 34 132 85v279c0 36 18 48 43 48h11c26 0 44 -11 44 -48v-431c0 -3 -16 -11 -35 -11c-30 0 -60 15 -63 76zM281 654
c-50 -75 -79 -107 -107 -107c-19 0 -32 13 -32 32c0 54 120 145 140 149c20 -4 139 -95 139 -149c0 -19 -12 -32 -31 -32c-28 0 -58 32 -109 107z" />
    <glyph glyph-name="udieresis" unicode="&#xfc;" horiz-adv-x="561" 
d="M402 72c-33 -49 -86 -84 -160 -84c-127 0 -185 86 -185 206v244c0 36 18 48 43 48h11c26 0 44 -11 44 -48v-232c0 -83 42 -132 115 -132c60 0 107 34 132 85v279c0 36 18 48 43 48h11c26 0 44 -11 44 -48v-431c0 -3 -16 -11 -35 -11c-30 0 -60 15 -63 76zM376 546
c-38 0 -61 22 -61 59c0 38 23 60 59 60s60 -22 60 -60c0 -37 -24 -59 -58 -59zM192 546c-36 0 -60 22 -60 59c0 38 24 60 58 60c38 0 61 -22 61 -60c0 -37 -23 -59 -59 -59z" />
    <glyph glyph-name="degree" unicode="&#xb0;" horiz-adv-x="399" 
d="M198 343c-90 0 -155 64 -155 154v9c0 90 68 155 158 155s155 -64 155 -154v-9c0 -90 -68 -155 -158 -155zM201 406c48 0 85 37 85 90v11c0 53 -39 91 -87 91c-49 0 -86 -37 -86 -90v-11c0 -53 40 -91 88 -91z" />
    <glyph glyph-name="registered" unicode="&#xae;" horiz-adv-x="752" 
d="M317 334h71c42 0 65 20 65 52c0 36 -24 52 -68 52h-68v-104zM376 -13c-194 0 -331 140 -331 335c0 194 141 338 332 338c194 0 330 -140 330 -335c0 -194 -140 -338 -331 -338zM377 41c161 0 271 115 271 282c0 163 -115 283 -273 283c-161 0 -271 -115 -271 -282
c0 -163 115 -283 273 -283zM435 285l89 -108c3 -5 -17 -29 -42 -29c-14 0 -34 7 -48 28l-76 100c1 0 -40 0 -40 0v-92c0 -22 -11 -35 -32 -35h-11c-21 0 -32 16 -32 42v266c0 27 15 42 40 42h106c90 0 139 -36 139 -110c0 -56 -33 -94 -93 -104z" />
    <glyph glyph-name="copyright" unicode="&#xa9;" horiz-adv-x="752" 
d="M376 -13c-194 0 -331 140 -331 335c0 194 141 338 332 338c194 0 330 -140 330 -335c0 -194 -140 -338 -331 -338zM377 41c161 0 271 115 271 282c0 163 -115 283 -273 283c-161 0 -271 -115 -271 -282c0 -163 115 -283 273 -283zM385 142c-105 0 -180 74 -180 180
c0 103 78 180 179 180c56 0 96 -22 115 -41c13 -13 19 -25 19 -40c0 -27 -38 -42 -40 -38c-20 33 -51 50 -93 50c-56 0 -103 -47 -103 -110c0 -65 47 -111 106 -111c45 0 76 21 93 54c2 4 41 -10 41 -39c0 -13 -8 -28 -23 -44c-19 -20 -59 -41 -114 -41z" />
    <glyph glyph-name="trademark" unicode="&#x2122;" horiz-adv-x="683" 
d="M363 336c-19 0 -27 12 -27 32v249c0 22 10 34 30 34h27c21 0 28 -7 34 -23l60 -147l60 147c7 18 16 23 33 23h26c20 0 30 -12 30 -34v-249c0 -20 -7 -32 -27 -32h-9c-18 0 -27 12 -27 32v189l-55 -141c-3 -9 -5 -16 -32 -16s-27 6 -31 16l-56 140v-188
c0 -20 -6 -32 -25 -32h-11zM120 588h-72c-20 0 -31 10 -31 29v3c0 19 11 28 31 28h211c20 0 30 -9 30 -28v-3c0 -19 -10 -29 -30 -29h-72v-220c0 -20 -10 -32 -30 -32h-9c-18 0 -28 12 -28 32v220z" />
    <glyph glyph-name="infinity" unicode="&#x221e;" horiz-adv-x="430" 
d="M165 560h-90c-31 0 -48 13 -48 41v5c0 29 17 41 48 41h280c32 0 48 -12 48 -41v-5c0 -28 -16 -41 -48 -41h-87v-473h87c32 0 48 -13 48 -42v-5c0 -28 -16 -40 -48 -40h-280c-31 0 -48 12 -48 40v5c0 29 17 42 48 42h90v473z" />
    <glyph glyph-name="plusminus" unicode="&#xb1;" horiz-adv-x="410" 
d="M267 87h77c31 0 47 -13 47 -42v-5c0 -28 -16 -40 -47 -40h-262c-31 0 -47 12 -47 40v5c0 29 16 42 47 42h88v424c-18 -19 -43 -32 -72 -32c-47 0 -80 28 -80 69c0 34 26 53 29 51c15 -14 33 -23 59 -23c43 0 76 33 81 76h35c30 0 45 -16 45 -47v-518z" />
    <glyph glyph-name="lessequal" unicode="&#x2264;" horiz-adv-x="230" 
d="M115 584c-37 0 -59 20 -59 55c0 36 22 56 60 56c37 0 58 -20 58 -56s-21 -55 -59 -55zM110 -196c-26 0 -45 11 -45 47v587c0 36 19 48 45 48h10c26 0 44 -11 44 -48v-587c0 -36 -18 -47 -44 -47h-10z" />
    <glyph glyph-name="mu" unicode="&#xb5;" horiz-adv-x="585" 
d="M426 210v102c-25 61 -74 99 -148 99c-90 0 -150 -68 -150 -171c0 -100 62 -171 148 -171c80 0 150 59 150 141zM426 413c4 59 34 73 62 73c20 0 36 -8 36 -11v-433c0 -36 -18 -47 -44 -47h-11c-25 0 -44 11 -44 47v36c-37 -57 -93 -91 -168 -91c-129 0 -225 101 -225 253
s95 253 228 253c79 0 139 -36 166 -80z" />
    <glyph glyph-name="mu" unicode="&#x3bc;" horiz-adv-x="585" 
d="M426 210v102c-25 61 -74 99 -148 99c-90 0 -150 -68 -150 -171c0 -100 62 -171 148 -171c80 0 150 59 150 141zM426 413c4 59 34 73 62 73c20 0 36 -8 36 -11v-433c0 -36 -18 -47 -44 -47h-11c-25 0 -44 11 -44 47v36c-37 -57 -93 -91 -168 -91c-129 0 -225 101 -225 253
s95 253 228 253c79 0 139 -36 166 -80z" />
    <glyph glyph-name="partialdiff" unicode="&#x2202;" horiz-adv-x="585" 
d="M426 318c-26 58 -76 94 -148 94c-90 0 -150 -68 -150 -162c0 -98 58 -162 148 -162c80 0 150 57 150 137v93zM427 417c5 56 33 69 61 69c19 0 36 -8 36 -11v-440c0 -158 -85 -234 -244 -234c-141 0 -216 71 -216 120c0 39 43 56 46 51c30 -50 81 -87 167 -87
c100 0 148 49 148 148v63c-38 -55 -94 -87 -169 -87c-133 0 -224 93 -224 241c0 141 98 243 228 243c78 0 138 -34 167 -76z" />
    <glyph glyph-name="summation" unicode="&#x2211;" horiz-adv-x="588" 
d="M357 254v155c0 30 14 47 42 47h11c29 0 42 -17 42 -47v-152h71c31 0 46 -13 46 -40v-4c0 -27 -15 -40 -46 -40h-71v-131c0 -31 -14 -47 -43 -47h-11c-28 0 -41 16 -41 47v131h-258c-47 0 -66 21 -66 49v13c0 29 12 46 41 94l167 277c20 38 41 47 63 47
c31 0 54 -27 51 -31l-223 -368h225z" />
    <glyph glyph-name="product" unicode="&#x220f;" horiz-adv-x="650" 
d="M481 99c-37 -64 -107 -111 -200 -111c-152 0 -221 76 -221 243v374c0 30 16 47 45 47h13c31 0 46 -16 46 -47c0 0 0 -370 0 -368c0 -116 41 -161 138 -161c79 0 151 56 176 121v408c0 31 15 47 44 47h14c30 0 46 -16 46 -47v-599c0 -3 -17 -11 -37 -11
c-31 0 -64 17 -64 95v9z" />
    <glyph glyph-name="pi" unicode="&#x3c0;" horiz-adv-x="752" 
d="M376 -13c-194 0 -331 140 -331 335c0 194 141 338 332 338c194 0 330 -140 330 -335c0 -194 -140 -338 -331 -338zM377 41c161 0 271 115 271 282c0 163 -115 283 -273 283c-161 0 -271 -115 -271 -282c0 -163 115 -283 273 -283zM329 309h64c44 0 67 23 67 60
s-24 59 -70 59h-61v-119zM331 250v-78c0 -21 -12 -34 -33 -34h-11c-20 0 -32 12 -32 34v273c0 26 16 42 40 42h95c92 0 143 -41 143 -117c0 -77 -49 -120 -139 -120h-63z" />
    <glyph glyph-name="integral" unicode="&#x222b;" horiz-adv-x="597" 
d="M247 251c-132 19 -200 114 -200 281v73c0 31 16 47 44 47h14c30 0 45 -16 45 -47v-74c0 -131 49 -196 149 -196c101 0 149 63 149 197v73c0 32 16 47 45 47h13c30 0 44 -15 44 -47v-71c0 -169 -68 -264 -200 -283v-209c0 -31 -15 -47 -45 -47h-15c-28 0 -43 16 -43 47
v209z" />
    <glyph glyph-name="Omega" unicode="&#x3a9;" horiz-adv-x="561" 
d="M402 89c-33 -49 -86 -84 -160 -84c-127 0 -185 87 -185 206v227c0 36 18 48 43 48h11c26 0 44 -11 44 -48v-212c0 -83 37 -137 115 -137c59 0 107 35 132 85v226c0 70 31 86 62 86c19 0 36 -8 36 -11v-454c0 -147 -80 -220 -237 -220c-141 0 -207 73 -207 120
c0 35 42 56 45 51c33 -55 70 -86 158 -86c97 0 143 40 143 141v62z" />
    <glyph glyph-name="Omega" unicode="&#x2126;" horiz-adv-x="561" 
d="M402 89c-33 -49 -86 -84 -160 -84c-127 0 -185 87 -185 206v227c0 36 18 48 43 48h11c26 0 44 -11 44 -48v-212c0 -83 37 -137 115 -137c59 0 107 35 132 85v226c0 70 31 86 62 86c19 0 36 -8 36 -11v-454c0 -147 -80 -220 -237 -220c-141 0 -207 73 -207 120
c0 35 42 56 45 51c33 -55 70 -86 158 -86c97 0 143 40 143 141v62z" />
    <glyph glyph-name="logicalnot" unicode="&#xac;" horiz-adv-x="717" 
d="M569 248h-184c-32 0 -48 11 -48 39v5c0 30 16 40 48 40h252c30 0 36 -13 36 -43v-11c0 -170 -122 -291 -296 -291c-201 0 -333 138 -333 335c0 198 136 338 332 338c157 0 244 -84 244 -134c0 -40 -52 -59 -55 -55c-39 64 -115 100 -187 100c-133 0 -228 -101 -228 -250
c0 -147 94 -248 225 -248c104 0 187 62 194 175z" />
    <glyph glyph-name="radical" unicode="&#x221a;" horiz-adv-x="722" 
d="M361 350c17 67 62 140 162 140h4c93 0 156 -71 156 -167v-6c0 -163 -209 -238 -322 -327c-113 89 -322 164 -322 327v6c0 96 63 167 156 167h4c100 0 145 -73 162 -140z" />
    <glyph glyph-name="Delta" unicode="&#x394;" horiz-adv-x="540" 
d="M125 281h288c-5 83 -56 137 -136 137c-79 0 -140 -57 -152 -137zM125 214c7 -88 72 -149 163 -149c84 0 126 37 151 80c2 2 52 -7 52 -49s-74 -109 -205 -109c-152 0 -254 101 -254 251c0 146 104 255 246 255c139 0 231 -98 231 -242v-8c0 -21 -7 -29 -30 -29h-354z" />
    <glyph glyph-name="Delta" unicode="&#x2206;" horiz-adv-x="540" 
d="M125 281h288c-5 83 -56 137 -136 137c-79 0 -140 -57 -152 -137zM125 214c7 -88 72 -149 163 -149c84 0 126 37 151 80c2 2 52 -7 52 -49s-74 -109 -205 -109c-152 0 -254 101 -254 251c0 146 104 255 246 255c139 0 231 -98 231 -242v-8c0 -21 -7 -29 -30 -29h-354z" />
    <glyph glyph-name="Agrave" unicode="&#xc0;" horiz-adv-x="630" 
d="M208 273h209l-104 274zM442 190h-259l-57 -148c-13 -36 -35 -47 -57 -47c-30 0 -59 22 -56 31l230 594c8 21 24 33 71 33c48 0 63 -12 71 -33l232 -594c3 -8 -26 -31 -57 -31c-23 0 -47 11 -61 48zM196 775c-28 17 -43 39 -43 61c0 23 21 39 45 39c15 0 32 -5 48 -17
c65 -43 126 -129 121 -137c-6 -9 -99 7 -171 54z" />
    <glyph glyph-name="Atilde" unicode="&#xc3;" horiz-adv-x="630" 
d="M208 273h209l-104 274zM442 190h-259l-57 -148c-13 -36 -35 -47 -57 -47c-30 0 -59 22 -56 31l230 594c8 21 24 33 71 33c48 0 63 -12 71 -33l232 -594c3 -8 -26 -31 -57 -31c-23 0 -47 11 -61 48zM203 718c-22 0 -35 14 -35 35c0 51 34 96 78 96c36 0 91 -27 144 -75
c11 35 29 69 51 69s35 -14 35 -36c0 -50 -35 -95 -78 -95c-37 0 -92 26 -144 75c-12 -35 -29 -69 -51 -69z" />
    <glyph glyph-name="Otilde" unicode="&#xd5;" horiz-adv-x="741" 
d="M370 -13c-193 0 -327 138 -327 335c0 198 137 338 328 338c193 0 327 -138 327 -336s-136 -337 -328 -337zM371 78c131 0 223 100 223 244s-93 247 -224 247s-223 -100 -223 -245c0 -144 93 -246 224 -246zM253 718c-22 0 -35 14 -35 35c0 51 34 96 78 96
c36 0 91 -27 144 -75c11 35 29 69 51 69s35 -14 35 -36c0 -50 -35 -95 -78 -95c-37 0 -92 26 -144 75c-12 -35 -29 -69 -51 -69z" />
    <glyph glyph-name="ydieresis" unicode="&#xff;" horiz-adv-x="498" 
d="M199 -195c-28 0 -54 22 -52 27l80 195c-22 2 -34 8 -42 28l-172 402c-2 6 20 29 52 29c28 0 47 -13 63 -56l130 -332l115 330c14 44 36 58 62 58c27 0 54 -22 52 -27l-227 -599c-16 -43 -38 -55 -61 -55zM347 546c-38 0 -61 22 -61 59c0 38 23 60 59 60s60 -22 60 -60
c0 -37 -24 -59 -58 -59zM163 546c-36 0 -60 22 -60 59c0 38 24 60 58 60c38 0 61 -22 61 -60c0 -37 -23 -59 -59 -59z" />
    <glyph glyph-name="Ydieresis" unicode="&#x178;" horiz-adv-x="573" 
d="M338 266v-223c0 -31 -15 -47 -45 -47h-14c-29 0 -44 16 -44 47v223l-229 343c-3 7 16 42 65 42c19 0 37 -12 50 -36l166 -264l166 264c16 26 34 36 51 36c45 0 66 -36 62 -42zM381 712c-38 0 -61 22 -61 59c0 38 23 60 59 60s60 -22 60 -60c0 -37 -24 -59 -58 -59z
M197 712c-36 0 -60 22 -60 59c0 38 24 60 58 60c38 0 61 -22 61 -60c0 -37 -23 -59 -59 -59z" />
    <glyph glyph-name="Euro" unicode="&#x20ac;" horiz-adv-x="628" 
d="M120 366h-50c-29 0 -40 12 -40 32v8c0 19 11 31 40 31h58c28 137 125 222 258 222c130 0 207 -72 207 -126c0 -40 -50 -55 -53 -51c-35 59 -80 92 -156 92c-77 0 -135 -52 -157 -137h191c29 0 39 -12 39 -31v-8c0 -20 -10 -32 -39 -32h-201v-12v-60v-9h201
c29 0 39 -13 39 -32v-8c0 -19 -10 -32 -39 -32h-191c22 -86 81 -140 162 -140c77 0 121 37 153 100c3 5 54 -11 54 -52c0 -52 -74 -134 -206 -134c-140 0 -236 84 -262 226h-58c-29 0 -40 13 -40 32v8c0 19 11 32 40 32h50v13v52v16z" />
    <glyph glyph-name="Acircumflex" unicode="&#xc2;" horiz-adv-x="630" 
d="M208 273h209l-104 274zM442 190h-259l-57 -148c-13 -36 -35 -47 -57 -47c-30 0 -59 22 -56 31l230 594c8 21 24 33 71 33c48 0 63 -12 71 -33l232 -594c3 -8 -26 -31 -57 -31c-23 0 -47 11 -61 48zM316 820c-50 -75 -79 -107 -107 -107c-19 0 -32 13 -32 32
c0 54 120 145 140 149c20 -4 139 -95 139 -149c0 -19 -12 -32 -31 -32c-28 0 -58 32 -109 107z" />
    <glyph glyph-name="Ecircumflex" unicode="&#xca;" horiz-adv-x="587" 
d="M124 0c-33 0 -55 22 -55 57v532c0 35 22 58 55 58h375c32 0 48 -16 48 -43v-6c0 -28 -16 -43 -48 -43h-327v-181h253c33 0 48 -14 48 -41v-3c0 -28 -16 -43 -48 -43h-253v-196h333c32 0 47 -14 47 -41v-5c0 -29 -15 -45 -47 -45h-381zM308 820
c-50 -75 -79 -107 -107 -107c-19 0 -32 13 -32 32c0 54 120 145 140 149c20 -4 139 -95 139 -149c0 -19 -12 -32 -31 -32c-28 0 -58 32 -109 107z" />
    <glyph glyph-name="Aacute" unicode="&#xc1;" horiz-adv-x="630" 
d="M208 273h209l-104 274zM442 190h-259l-57 -148c-13 -36 -35 -47 -57 -47c-30 0 -59 22 -56 31l230 594c8 21 24 33 71 33c48 0 63 -12 71 -33l232 -594c3 -8 -26 -31 -57 -31c-23 0 -47 11 -61 48zM259 721c-6 8 56 94 120 137c17 11 33 17 48 17c25 0 45 -16 45 -39
c0 -22 -14 -44 -42 -61c-72 -47 -165 -63 -171 -54z" />
    <glyph glyph-name="Edieresis" unicode="&#xcb;" horiz-adv-x="587" 
d="M124 0c-33 0 -55 22 -55 57v532c0 35 22 58 55 58h375c32 0 48 -16 48 -43v-6c0 -28 -16 -43 -48 -43h-327v-181h253c33 0 48 -14 48 -41v-3c0 -28 -16 -43 -48 -43h-253v-196h333c32 0 47 -14 47 -41v-5c0 -29 -15 -45 -47 -45h-381zM402 712c-38 0 -61 22 -61 59
c0 38 23 60 59 60s60 -22 60 -60c0 -37 -24 -59 -58 -59zM218 712c-36 0 -60 22 -60 59c0 38 24 60 58 60c38 0 61 -22 61 -60c0 -37 -23 -59 -59 -59z" />
    <glyph glyph-name="Egrave" unicode="&#xc8;" horiz-adv-x="587" 
d="M124 0c-33 0 -55 22 -55 57v532c0 35 22 58 55 58h375c32 0 48 -16 48 -43v-6c0 -28 -16 -43 -48 -43h-327v-181h253c33 0 48 -14 48 -41v-3c0 -28 -16 -43 -48 -43h-253v-196h333c32 0 47 -14 47 -41v-5c0 -29 -15 -45 -47 -45h-381zM216 775c-28 17 -43 39 -43 61
c0 23 21 39 45 39c15 0 32 -5 48 -17c65 -43 126 -129 121 -137c-6 -9 -99 7 -171 54z" />
    <glyph glyph-name="Iacute" unicode="&#xcd;" horiz-adv-x="259" 
d="M122 -4c-29 0 -44 16 -44 47v561c0 31 15 47 44 47h14c30 0 45 -16 45 -47v-561c0 -31 -15 -47 -45 -47h-14zM84 721c-6 8 56 94 120 137c17 11 33 17 48 17c25 0 45 -16 45 -39c0 -22 -14 -44 -42 -61c-72 -47 -165 -63 -171 -54z" />
    <glyph glyph-name="Icircumflex" unicode="&#xce;" horiz-adv-x="259" 
d="M122 -4c-29 0 -44 16 -44 47v561c0 31 15 47 44 47h14c30 0 45 -16 45 -47v-561c0 -31 -15 -47 -45 -47h-14zM217 820c-50 -75 -79 -107 -107 -107c-19 0 -32 13 -32 32c0 54 120 145 140 149c20 -4 139 -95 139 -149c0 -19 -12 -32 -31 -32c-28 0 -58 32 -109 107z" />
    <glyph glyph-name="Idieresis" unicode="&#xcf;" horiz-adv-x="259" 
d="M122 -4c-29 0 -44 16 -44 47v561c0 31 15 47 44 47h14c30 0 45 -16 45 -47v-561c0 -31 -15 -47 -45 -47h-14zM322 712c-38 0 -61 22 -61 59c0 38 23 60 59 60s60 -22 60 -60c0 -37 -24 -59 -58 -59zM138 712c-36 0 -60 22 -60 59c0 38 24 60 58 60c38 0 61 -22 61 -60
c0 -37 -23 -59 -59 -59z" />
    <glyph glyph-name="Igrave" unicode="&#xcc;" horiz-adv-x="259" 
d="M122 -4c-29 0 -44 16 -44 47v561c0 31 15 47 44 47h14c30 0 45 -16 45 -47v-561c0 -31 -15 -47 -45 -47h-14zM121 775c-28 17 -43 39 -43 61c0 23 21 39 45 39c15 0 32 -5 48 -17c65 -43 126 -129 121 -137c-6 -9 -99 7 -171 54z" />
    <glyph glyph-name="Oacute" unicode="&#xd3;" horiz-adv-x="741" 
d="M370 -13c-193 0 -327 138 -327 335c0 198 137 338 328 338c193 0 327 -138 327 -336s-136 -337 -328 -337zM371 78c131 0 223 100 223 244s-93 247 -224 247s-223 -100 -223 -245c0 -144 93 -246 224 -246zM309 721c-6 8 56 94 120 137c17 11 33 17 48 17
c25 0 45 -16 45 -39c0 -22 -14 -44 -42 -61c-72 -47 -165 -63 -171 -54z" />
    <glyph glyph-name="Ocircumflex" unicode="&#xd4;" horiz-adv-x="741" 
d="M370 -13c-193 0 -327 138 -327 335c0 198 137 338 328 338c193 0 327 -138 327 -336s-136 -337 -328 -337zM371 78c131 0 223 100 223 244s-93 247 -224 247s-223 -100 -223 -245c0 -144 93 -246 224 -246zM370 820c-50 -75 -79 -107 -107 -107c-19 0 -32 13 -32 32
c0 54 120 145 140 149c20 -4 139 -95 139 -149c0 -19 -12 -32 -31 -32c-28 0 -58 32 -109 107z" />
    <glyph glyph-name="apple" horiz-adv-x="758" 
d="M343 -98l-51 124l-123 -52c-36 -14 -65 15 -51 51l51 124l-123 50c-36 15 -36 57 0 72l123 51l-51 123c-14 36 15 66 51 51l123 -51l51 124c15 35 57 35 72 0l51 -124l123 51c36 15 65 -15 51 -51l-51 -123l123 -51c36 -15 36 -57 0 -72l-123 -50l51 -124
c14 -36 -15 -65 -51 -51l-123 52l-51 -124c-15 -36 -57 -36 -72 0zM379 -12l42 100c6 11 20 18 32 13l101 -40l-41 100c-4 13 2 26 14 32l99 42l-99 42c-12 6 -18 20 -14 32l41 101l-101 -41c-13 -4 -26 2 -32 14l-42 99l-42 -99c-6 -12 -19 -18 -32 -14l-101 41l41 -101
c4 -12 -2 -26 -13 -32l-100 -42l100 -42c11 -6 17 -19 13 -32l-41 -100l101 40c13 5 26 -2 32 -13z" />
    <glyph glyph-name="Ograve" unicode="&#xd2;" horiz-adv-x="741" 
d="M370 -13c-193 0 -327 138 -327 335c0 198 137 338 328 338c193 0 327 -138 327 -336s-136 -337 -328 -337zM371 78c131 0 223 100 223 244s-93 247 -224 247s-223 -100 -223 -245c0 -144 93 -246 224 -246zM258 775c-28 17 -43 39 -43 61c0 23 21 39 45 39
c15 0 32 -5 48 -17c65 -43 126 -129 121 -137c-6 -9 -99 7 -171 54z" />
    <glyph glyph-name="Uacute" unicode="&#xda;" horiz-adv-x="650" 
d="M324 -12c-172 0 -263 95 -263 275v341c0 31 16 47 44 47h14c30 0 45 -16 45 -47v-338c0 -123 54 -187 161 -187c109 0 161 62 161 188v337c0 32 15 47 44 47h16c29 0 43 -15 43 -47v-339c0 -180 -93 -277 -265 -277zM266 713c-6 8 56 94 120 137c17 11 33 17 48 17
c25 0 45 -16 45 -39c0 -22 -14 -44 -42 -61c-72 -47 -165 -63 -171 -54z" />
    <glyph glyph-name="Ucircumflex" unicode="&#xdb;" horiz-adv-x="650" 
d="M324 -12c-172 0 -263 95 -263 275v341c0 31 16 47 44 47h14c30 0 45 -16 45 -47v-338c0 -123 54 -187 161 -187c109 0 161 62 161 188v337c0 32 15 47 44 47h16c29 0 43 -15 43 -47v-339c0 -180 -93 -277 -265 -277zM323 820c-50 -75 -79 -107 -107 -107
c-19 0 -32 13 -32 32c0 54 120 145 140 149c20 -4 139 -95 139 -149c0 -19 -12 -32 -31 -32c-28 0 -58 32 -109 107z" />
    <glyph glyph-name="Ugrave" unicode="&#xd9;" horiz-adv-x="650" 
d="M324 -12c-172 0 -263 95 -263 275v341c0 31 16 47 44 47h14c30 0 45 -16 45 -47v-338c0 -123 54 -187 161 -187c109 0 161 62 161 188v337c0 32 15 47 44 47h16c29 0 43 -15 43 -47v-339c0 -180 -93 -277 -265 -277zM219 767c-28 17 -43 39 -43 61c0 23 21 39 45 39
c15 0 32 -5 48 -17c65 -43 126 -129 121 -137c-6 -9 -99 7 -171 54z" />
    <glyph glyph-name="nbspace" unicode="&#xa0;" horiz-adv-x="170" 
 />
  </font>
</defs>
</svg>
