<?xml version="1.0" standalone="no"?>
<!DOCTYPE svg PUBLIC "-//W3C//DTD SVG 1.1//EN" "http://www.w3.org/Graphics/SVG/1.1/DTD/svg11.dtd" >
<svg xmlns="http://www.w3.org/2000/svg" xmlns:xlink="http://www.w3.org/1999/xlink" version="1.1">
<metadata>
Created by FontForge 20170731 at Tue Jun 18 21:14:14 2013
 By Aleksey,,,
Copyright - Frederic RICH 2013 - This font is free for personal use. For a commercial use, please contact me : contact@fthafm.com
</metadata>
<defs>
<font id="PeachMilk" horiz-adv-x="378" >
  <font-face 
    font-family="Peach Milk"
    font-weight="400"
    font-stretch="normal"
    units-per-em="1000"
    panose-1="0 0 0 0 0 0 0 0 0 0"
    ascent="800"
    descent="-200"
    x-height="702"
    cap-height="692"
    bbox="-48 -206.333 630 922"
    underline-thickness="50"
    underline-position="-150"
    unicode-range="U+0020-20AC"
  />
<missing-glyph horiz-adv-x="250" 
 />
    <glyph glyph-name=".notdef" horiz-adv-x="250" 
 />
    <glyph glyph-name=".null" horiz-adv-x="0" 
 />
    <glyph glyph-name="nonmarkingreturn" horiz-adv-x="333" 
 />
    <glyph glyph-name="space" unicode=" " horiz-adv-x="250" 
 />
    <glyph glyph-name="exclam" unicode="!" horiz-adv-x="165" 
d="M142 747l-19 -588h-81v577zM123 90v-99l-93 8q2 25 3 45l2 46h88z" />
    <glyph glyph-name="quotedbl" unicode="&#x22;" horiz-adv-x="320" 
d="M204 620q8 11 13 22.5t8 21.5q3 11 4 23l-47 2l1 99h103l-3 -100q-2 -23 -6 -43q-4 -18 -11.5 -36.5t-20.5 -32.5zM72 607q8 11 12.5 22.5t6.5 21.5q3 11 4 23l-47 1l-2 99l103 3v-101q-1 -23 -5 -43q-4 -18 -10.5 -36.5t-19.5 -32.5z" />
    <glyph glyph-name="numbersign" unicode="#" horiz-adv-x="652" 
d="M127 -56q0 1 2.5 11.5t5.5 27.5t6.5 38.5t7.5 44.5l20 120l-138 2l-8 100l156 4l19 167l-175 2l10 100l173 -6q1 52 3 93q1 18 2 34.5t2 30t2 21.5t2 8q2 0 18 0.5t35 1.5q22 1 49 3l-10 -186l104 -2l25 188h90q-5 -52 -9 -92q-2 -17 -3.5 -33.5t-2.5 -29.5t-1.5 -21
l-0.5 -8q1 0 18.5 -1t38.5 -2q25 -2 56 -3l-7 -104l-121 6l-16 -171l121 -7l-7 -89l-125 -6l-21 -236l-87 -2l6 231h-106l-38 -229q-28 -3 -49 -5q-18 -2 -33 -2.5t-14 1.5zM393 293l5 160h-97l-17 -152z" />
    <glyph glyph-name="dollar" unicode="$" horiz-adv-x="372" 
d="M248 705q17 1 32.5 1.5t26.5 1.5q13 1 23 1l2 -116l-146 5q-17 -2 -29 -9q-11 -6 -20 -18t-9 -33q-1 -21 -1 -41t-1 -36q-1 -18 -1 -34q-1 -13 3 -24q4 -9 13 -17t27 -10q21 -2 40.5 -2.5t33.5 -0.5q17 0 32 1q19 1 35 -9q14 -8 25 -28t11 -61t-0.5 -76.5t-1.5 -62.5
q-1 -32 -1 -58q-2 -19 -13 -34q-9 -13 -26.5 -24.5t-49.5 -14.5l-11 -1l3 -93l-95 -4l2 96l-120 -2l-12 95l159 -10q22 2 40 8q15 5 28 16.5t15 31.5t1.5 36t-0.5 27q-1 13 -1 24q-1 15 -6 27q-5 10 -13.5 18.5t-25.5 8.5t-33.5 0.5t-29.5 2.5q-16 1 -29 3q-26 6 -45 21
q-17 13 -31 36.5t-12 62.5q1 39 1.5 74t-0.5 62q-1 32 -2 59q-1 26 7 47q7 17 23 32t50 16q10 0 19.5 0.5t20.5 0.5v108h94z" />
    <glyph glyph-name="percent" unicode="%" horiz-adv-x="314" 
d="M104 624q-1 0 0 14t2 31q1 20 3 46l-93 8v-99h88zM12 -46q-1 -1 6 33.5t20 91t29.5 129.5t34.5 149q41 179 94 407l84 9l-190 -845q-20 8 -37 14q-14 5 -26.5 9.5t-14.5 2.5zM198 87l-2 -46q-1 -20 -3 -45l93 -8v99h-88z" />
    <glyph glyph-name="ampersand" unicode="&#x26;" horiz-adv-x="501" 
d="M100 382q-21 29 -37 59q-14 26 -25.5 55.5t-11.5 56.5t4 52t12.5 46t21.5 35.5t30 20.5q11 4 32 7t45 2t48.5 -7t44 -19.5t31 -36t9.5 -57.5q-3 -52 -12 -88t-19.5 -58.5t-20 -34t-14.5 -15.5q17 -26 33.5 -55.5t30.5 -55.5q16 -31 32 -61l53 100l82 -49l-86 -133
l94 -102l-56 -65l-101 82q-17 -18 -41 -31q-21 -11 -52 -20.5t-73 -9.5t-72.5 20.5t-49.5 50.5t-26 63.5t-2 59.5t16.5 55t26 55.5t29 47.5t24.5 30zM157 630q-13 -3 -23.5 -18.5t-12.5 -38t6.5 -48.5t34.5 -50q38 36 48 66t4 50.5t-23 31t-34 7.5zM175 107q19 0 44.5 13.5
t44.5 25.5q-8 25 -19.5 46.5t-24.5 40.5t-26 37t-24 36q-2 2 -9 -10.5t-15.5 -33.5t-16 -46t-8.5 -47t4.5 -34.5t14 -18.5t18 -7.5t17.5 -1.5z" />
    <glyph glyph-name="quotesingle" unicode="'" horiz-adv-x="190" 
d="M72 607q8 11 12.5 22.5t6.5 21.5q3 11 4 23l-47 1l-2 99l103 3v-101q-1 -23 -5 -43q-4 -18 -10.5 -36.5t-19.5 -32.5z" />
    <glyph glyph-name="parenleft" unicode="(" horiz-adv-x="292" 
d="M200 -129q-34 13 -65.5 35t-56.5 48t-41 52t-18 46q-1 4 -3 33t-4.5 73t-4.5 98.5t-2.5 110t1.5 107.5t7 91q4 29 13 54.5t22 47.5t27.5 40t29.5 33q34 34 76 59l44 -69q-18 -12 -34 -30t-29 -39.5t-23 -45t-16 -44.5q-4 -14 -7 -46.5t-5 -75.5t-2.5 -91.5t0 -94.5
t1.5 -85.5t4 -63.5q4 -37 25 -69t44 -55q27 -27 61 -50z" />
    <glyph glyph-name="parenright" unicode=")" horiz-adv-x="292" 
d="M4 -60q34 23 61 50q23 23 44 55t25 69q3 24 4 63.5t1.5 85.5t0 94.5t-2.5 91.5t-5 75.5t-7 46.5q-6 21 -16 44.5t-23 45t-29 39.5t-34 30l44 69q42 -25 76 -59q29 -29 56.5 -72.5t35.5 -102.5q5 -39 8 -86.5t4 -97t0 -98.5t-3.5 -90.5t-6 -73.5t-8.5 -47
q-7 -23 -23.5 -52.5t-40.5 -58.5t-53.5 -53t-63.5 -37z" />
    <glyph glyph-name="asterisk" unicode="*" horiz-adv-x="484" 
d="M267 793l23 -98l103 34l37 -85l-90 -39l48 -106l-77 -48l-63 108l-42 -121l-95 21l29 106l-107 34l23 104l109 -19l-2 103z" />
    <glyph glyph-name="plus" unicode="+" horiz-adv-x="446" 
d="M273 563q1 0 1 -14t0.5 -34.5t1 -44.5t0.5 -44.5t-0.5 -34.5l-0.5 -14q-1 0 20 -1.5t47 -2.5q30 -2 69 -4v-104l-138 -8l-8 -167l-104 2l2 158l-150 17l-5 102l163 4l10 196z" />
    <glyph glyph-name="comma" unicode="," horiz-adv-x="190" 
d="M67 -71q8 11 12.5 22.5t6.5 21.5q3 11 4 23l-47 1l-2 99l103 3v-101q-1 -23 -5 -43q-4 -18 -10.5 -36.5t-19.5 -32.5z" />
    <glyph glyph-name="hyphen" unicode="-" horiz-adv-x="400" 
d="M367 405l-6 -119l-348 -6l2 109z" />
    <glyph glyph-name="period" unicode="." horiz-adv-x="165" 
d="M123 90v-99l-93 8q2 25 3 45l2 46h88z" />
    <glyph glyph-name="slash" unicode="/" horiz-adv-x="277" 
d="M-23 -48q-1 -1 6 33.5t20 91t29.5 129.5t34.5 149q41 179 94 407l84 9l-190 -845q-20 8 -37 14q-14 5 -26.5 9.5t-14.5 2.5z" />
    <glyph glyph-name="zero" unicode="0" horiz-adv-x="392" 
d="M33 603q1 27 10 48q8 18 25 33.5t49 16.5t60.5 1t50.5 -1q26 -1 47 -2q24 -4 43 -15q16 -10 29.5 -29.5t13.5 -53.5v-48t-0.5 -71t-1 -85t-0.5 -89q-1 -104 -2 -225q0 -16 -5.5 -31t-15 -27t-23 -19.5t-29.5 -7.5q-20 -1 -49 -0.5t-57 1.5q-33 1 -67 1q-48 8 -64.5 39.5
t-14.5 77.5zM131 116q0 -7 3 -13q2 -5 6.5 -9.5t12.5 -5.5t21.5 -1t27.5 1q16 1 34 2q8 -1 15 2q6 2 10.5 8t6.5 18q0 6 0.5 29t0.5 57.5t-0.5 76t-1.5 84.5q-2 100 -4 223q-2 6 -5 11q-2 4 -6.5 7.5t-10.5 3.5h-50q-18 0 -37 1q-17 -3 -26 -12t-7 -28z" />
    <glyph glyph-name="one" unicode="1" horiz-adv-x="292" 
d="M116 549l-42 -30l-61 88l101 88l96 3v-703l-101 -7z" />
    <glyph glyph-name="two" unicode="2" horiz-adv-x="356" 
d="M311 100l-9 -106q-82 0 -147 1h-54.5t-47.5 0.5t-34 0.5h-13l-0.5 9.5t-1 25.5t-0.5 36.5v41.5v114q-2 40 10 72q10 27 35.5 48t75.5 18q7 -1 16 -1h39q11 0 17 5.5t9 13.5q4 8 4 19q-1 41 -1 76v96q0 10 -6 15.5t-13 9.5q-8 4 -18 6h-14q-16 0 -35 3q-11 1 -16 -4
t-7 -12q-3 -8 -3 -18l-2 -66l-87 -1q1 1 1 17t-1 36q-1 23 -2 51q-2 26 4 46q5 17 18.5 32t42.5 16q28 1 55 -0.5t48 -3.5q25 -3 47 -5q21 -3 39 -14q15 -9 27.5 -27t12.5 -50v-70.5t-0.5 -78t-1.5 -66.5t-4 -36q-2 -7 -7.5 -21t-15.5 -28.5t-24.5 -24.5t-35.5 -9
q-23 1 -36 1t-21 -1q-9 -1 -12 -2q-11 -4 -19 -9t-13.5 -13t-5.5 -20v-33.5t1 -40.5q1 -24 2 -50z" />
    <glyph glyph-name="three" unicode="3" horiz-adv-x="363" 
d="M-2 596q0 29 8 52q7 20 22.5 36t46.5 17q61 2 95 0q19 -1 34 -2q29 -3 52 -14q20 -10 35 -28.5t13 -53.5t-3.5 -71.5t-2.5 -67.5t-2 -52.5t-2 -25.5q-2 -4 -4.5 -13t-10.5 -18.5t-24.5 -19t-45.5 -14.5q31 0 51.5 -13.5t31.5 -30.5q13 -19 20 -43q0 -19 1 -42
q1 -20 1 -47.5v-60.5q-1 -34 -16 -51t-34 -25q-22 -9 -49 -9q-18 0 -40 1q-19 0 -45 0.5t-55 0.5q-30 0 -45 14t-21 31q-7 20 -7 46v98l77 1q0 -16 1 -30q1 -12 2.5 -25t4.5 -21q5 -15 18 -20q5 -3 12 -3q15 0 30 -1q12 -1 25.5 -1.5t23.5 0.5q10 0 16 5t9 10q4 6 5 14
q0 8 -1 20q-1 11 -2 27t-3 39t-16.5 35t-31.5 17q-19 6 -44 7l-1 118q35 5 57.5 13t30.5 22q4 7 5 27.5t1 44v45v30.5t-3.5 14.5t-8.5 9.5t-13 6q-15 2 -28 4q-11 2 -23 3t-20 3q-8 1 -13 -3.5t-9 -9.5q-4 -6 -7 -15l-3 -74l-89 3z" />
    <glyph glyph-name="four" unicode="4" horiz-adv-x="394" 
d="M190 709l-88 -382q27 1 49 2q18 1 33.5 1.5t15.5 1.5v10t0.5 25.5t1 35t0.5 40.5l2 110l86 8l4 -227l67 -2l-4 -107h-61l-19 -225l-85 4l6 221q-53 -1 -93 -1h-33.5h-29.5t-21 0.5l-8 0.5q0 1 -1.5 14.5t-3.5 30.5q-2 19 -4 43l79 392z" />
    <glyph glyph-name="five" unicode="5" horiz-adv-x="364" 
d="M113 394h12t27 -1t34 -2t32 -3q24 -3 42.5 -17t31 -30.5t19 -31.5t7.5 -20q0 -3 1 -11t2 -25.5t0.5 -46.5t-2.5 -75q-2 -47 -22.5 -74t-42.5 -41q-27 -17 -60 -22l-177 -13l-4 100q32 1 61 3q25 1 50.5 2t40.5 2t23.5 9t13.5 17q5 11 7 24q1 13 1 29v31.5t-1 37.5
t-11.5 30.5t-22.5 16.5q-15 6 -33 9l-132 6l5 403l292 -6l-4 -92q-56 -1 -98 -2q-18 0 -35 -0.5t-30 -1t-19.5 -0.5t-4.5 0q1 0 1 -15t-0.5 -37.5t-1 -49t-1 -49t-1 -38t-0.5 -16.5z" />
    <glyph glyph-name="six" unicode="6" horiz-adv-x="361" 
d="M296 603l-143 5h-14.5t-19 -4t-16 -13.5t-5.5 -29.5q1 -21 2 -51t2 -57q1 -32 2 -65l105 -4q29 -3 52 -15q20 -11 36 -32.5t14 -59.5t-3 -74t-1 -65q-1 -33 0 -63q0 -18 -10 -33q-8 -13 -27 -24.5t-55 -15.5t-59 -4.5t-37 0.5q-16 1 -23 4q-20 6 -36 20
q-14 11 -25.5 31.5t-13.5 52.5l-13 484q-2 30 5 54q6 20 21 37.5t45 19.5t67.5 1.5t71.5 -1.5q40 -1 80 -3zM112 125q2 -8 6 -14q3 -5 8 -10t13 -5q7 -1 14 -0.5t12 0.5h12q12 1 22 7q8 5 15 15t7 29v119q-2 9 -6 16q-4 6 -11 12t-19 8q-25 4 -40 2.5t-37 -2.5z" />
    <glyph glyph-name="seven" unicode="7" horiz-adv-x="330" 
d="M7 703l12 0.5t32 1t46.5 1t53.5 1.5q63 1 145 3l3 -114l-194 -599l-98 49l199 555l-194 3q-1 27 -2 49q-1 18 -1.5 33.5t-1.5 16.5z" />
    <glyph glyph-name="eight" unicode="8" horiz-adv-x="359" 
d="M73 350q-14 7 -26 18q-11 9 -21.5 23t-15.5 34t-6 53.5t1 65.5q2 38 5 80q4 21 14 38q8 14 22 26t37 13q22 1 49 1h50q27 0 54 -1q19 -7 35 -18q13 -10 24 -26.5t12 -41.5t1 -60.5v-67.5q0 -38 -1 -78q-3 -14 -9 -25q-5 -11 -15.5 -21t-28.5 -15q19 0 31 -11t19 -24.5
t9.5 -25l2.5 -11.5v-19.5v-48v-61v-60.5q-1 -28 -13.5 -44.5t-27.5 -24.5q-18 -11 -40 -14q-15 -1 -35 -2q-17 -1 -42.5 -1.5t-58.5 0.5q-33 0 -51.5 12t-26.5 26q-10 17 -11 38q-1 32 -2 65q-1 27 -1.5 58t0.5 54q0 23 10.5 41t22.5 30q14 14 33 25zM92 438q1 -18 34 -26
q20 -5 39.5 -3t34.5 8q5 2 9 5.5t7 8.5t5 12q1 2 1.5 22.5t1.5 46t1.5 49t0.5 32.5q0 8 -5.5 14t-12.5 10q-8 4 -18 7q-11 2 -22 3q-20 2 -37 0q-8 -1 -14 -6t-9.5 -10.5t-6 -10.5t-2.5 -7t-1.5 -24.5t-3 -50t-2 -51.5t-0.5 -29zM101 132q-1 -10 2 -17q2 -7 6.5 -12t12.5 -5
h21.5t26.5 0.5t23.5 1t12.5 0.5q5 1 16 9.5t11 22.5v24.5t-0.5 37t-1 35t-0.5 17.5q-1 5 -8 16t-18 19q-5 3 -15.5 4.5t-22.5 2t-22.5 -0.5t-14.5 -3q-8 -5 -17 -17.5t-11 -20.5q-2 -6 -2.5 -18.5t0 -28t1 -33.5t0.5 -34z" />
    <glyph glyph-name="nine" unicode="9" horiz-adv-x="352" 
d="M89 202q-1 -13 -1 -26v-23.5t1 -22.5q1 -11 6 -17.5t11 -10.5q7 -4 16 -7h63q16 0 24.5 8t12.5 18q4 11 5 26l-2 187q-25 0 -51 -1q-23 -1 -50 -1.5t-52 0.5q-26 0 -39.5 11t-19.5 25q-7 16 -8 36v214q0 26 11 42t25 25q16 11 36 16q18 0 41 1q20 0 46 0.5t58 0.5
q31 0 47 -16.5t23 -36.5q8 -23 7 -52q3 -111 6 -208q1 -41 2 -83.5t2 -81t2 -70.5t1 -51q0 -40 -12.5 -60.5t-28.5 -30.5q-18 -11 -41 -13h-136q-32 0 -49.5 13.5t-25.5 30.5q-10 19 -12 45l-4 118zM219 571q0 12 -3.5 18.5t-8.5 10.5t-12 5h-71q-10 0 -15 -5.5t-7 -11.5
q-3 -7 -4 -16q0 -23 -1 -44q-1 -18 -1.5 -37t0.5 -33q0 -14 5.5 -21t11.5 -10q7 -4 17 -3l90 -1z" />
    <glyph glyph-name="colon" unicode=":" horiz-adv-x="165" 
d="M38 448v99l93 -8q-2 -26 -3 -46q-1 -17 -2 -31t0 -14h-88zM123 90v-99l-93 8q2 25 3 45l2 46h88z" />
    <glyph glyph-name="semicolon" unicode=";" horiz-adv-x="165" 
d="M38 448v99l93 -8q-2 -26 -3 -46q-1 -17 -2 -31t0 -14h-88zM67 -71q8 11 12.5 22.5t6.5 21.5q3 11 4 23l-47 1l-2 99l103 3v-101q-1 -23 -5 -43q-4 -18 -10.5 -36.5t-19.5 -32.5z" />
    <glyph glyph-name="equal" unicode="=" horiz-adv-x="465" 
d="M42 152l6 119l348 6l-2 -109zM402 544l-6 -119l-348 -6l2 109z" />
    <glyph glyph-name="question" unicode="?" horiz-adv-x="404" 
d="M47 497l-19 115q-8 32 -4 58q3 23 17.5 44t51.5 27q72 12 121.5 6.5t66.5 -10.5q9 -3 23 -11t27.5 -21.5t23.5 -33t9 -45.5t-3 -67.5t-5 -82t-6 -73t-6 -40.5q-1 -2 -4.5 -12t-10 -22t-17.5 -22t-26 -13q-16 -3 -25 -4.5t-14 -3.5q-6 -2 -8 -3q-10 -4 -17 -10
q-6 -5 -10.5 -13.5t-2.5 -19.5q2 -12 2.5 -24t1.5 -23l2 -24l-98 -4v94q0 25 7 45q6 17 20.5 33.5t41.5 21.5q13 2 22.5 4.5t15.5 4.5l12 3q9 4 15 11q5 6 9.5 15.5t4.5 23.5q0 12 0.5 40.5t2 59t2 55.5t0.5 31q-1 9 -8 21.5t-26 11.5q-10 -1 -22.5 -0.5t-24.5 0.5h-28
q-17 1 -24 -9.5t-8 -26.5q-1 -14 -0.5 -31.5t2.5 -33.5q2 -18 4 -38zM125 89l-2 -46q-1 -20 -3 -45l93 -8v99h-88z" />
    <glyph glyph-name="at" unicode="@" horiz-adv-x="574" 
d="M423 619q-1 13 -6.5 22t-13.5 15q-9 7 -19 12q-48 -1 -88 -1h-69t-50 1t-26 -6.5t-15.5 -17.5t-8 -19.5t-2.5 -12.5v-27t0.5 -68t1.5 -95t2.5 -109.5t3.5 -111.5t4 -100.5t5 -76t6 -38.5q12 -29 27 -42.5t28 -13.5q81 1 164.5 1.5t168.5 0.5l4 -94q-76 -2 -146 -3
q-30 -1 -61 -1.5t-60.5 -1t-56 -0.5h-45.5q-39 0 -63.5 20.5t-38.5 48.5t-19 56t-6 42q-1 9 -2.5 48.5t-3.5 96.5t-4.5 124.5t-4.5 133.5t-2.5 123t0.5 94q2 55 22 85t45 44q28 17 65 19h49q26 0 65 0.5t94 1.5t85.5 -20t44.5 -46q17 -30 20 -68q2 -129 4 -238
q1 -47 1 -93.5v-87v-71.5t-1 -46q-2 -30 -13.5 -49t-26 -29.5t-27.5 -14.5t-18 -4q-6 -1 -19 -1q-11 -1 -32 -1t-56 -1t-56.5 13.5t-32.5 32.5q-14 21 -19 48q-3 22 -6 48q-2 22 -5 51t-4 61q-2 32 13 49.5t33 25.5q21 10 48 11l134 6z" />
    <glyph glyph-name="A" unicode="A" 
d="M87 699h45h52t50 -1t40 -2l83 -696h-86q-3 24 -7.5 59.5t-9 72.5t-9.5 71t-11 54l-86 13q-14 -57 -19.5 -126.5t-16.5 -143.5h-86z" />
    <glyph glyph-name="B" unicode="B" horiz-adv-x="403" 
d="M235 703q30 1 54 -9q20 -8 38 -27t22 -55q3 -37 3.5 -69.5t-0.5 -57.5q-1 -29 -3 -54q-6 -17 -17 -30q-10 -11 -27.5 -21.5t-43.5 -12.5q-27 -2 -46 -2.5t-32 -0.5q-15 0 -25 1l127 -28q25 -4 44 -15q17 -9 30.5 -24.5t11.5 -41.5t-4.5 -62t-5.5 -69q-4 -39 -7 -79
q-2 -11 -10 -20q-7 -8 -21 -15t-39 -8q-26 -2 -64 -3.5t-75 -3.5q-43 -2 -89 -4q-14 194 -15.5 365.5t5.5 335.5q47 7 95.5 9.5t93.5 0.5z" />
    <glyph glyph-name="C" unicode="C" 
d="M335 593l-165 -20q-13 -1 -24 -9q-9 -7 -17 -21t-10 -40q-1 -17 -1.5 -50.5t-0.5 -74t0.5 -84t1.5 -80t3.5 -62t5.5 -31.5q5 -8 9.5 -14.5t11.5 -11t18.5 -7t29.5 -2.5t44.5 2t50.5 4q28 3 58 7l6 -84l-176 -16q-136 -12 -148 118l12 477q1 15 10 29q8 11 24 23t45 19
t63 13t65 11t55 8t34 3z" />
    <glyph glyph-name="D" unicode="D" horiz-adv-x="383" 
d="M37 2l11 703l212 -13q26 -7 46 -25q17 -15 31 -41.5t13 -68.5q0 -21 -1.5 -54t-3 -72t-3 -82t-3.5 -85q-4 -98 -10 -208q-6 -17 -18 -30q-11 -11 -30 -20t-48 -8z" />
    <glyph glyph-name="E" unicode="E" horiz-adv-x="365" 
d="M35 700q75 4 157 2t157 -2v-75h-225q-2 -25 -0.5 -71t3.5 -93.5t5 -86t4 -49.5h188v-75l-188 -25v-12q0 -29 4.5 -69t5.5 -69h203v-75h-300z" />
    <glyph glyph-name="F" unicode="F" horiz-adv-x="353" 
d="M50 -2l-15 699l317 6l-4 -94l-219 -6l8 -259l130 -8l-2 -71l-124 -4l7 -251z" />
    <glyph glyph-name="G" unicode="G" horiz-adv-x="376" 
d="M96 0q-21 4 -33 14.5t-18.5 26.5t-8.5 37.5t-2 46.5v313q0 9 0.5 36t2 57.5t4 57.5t5.5 36q5 14 24.5 25t47.5 19t60.5 14t63 10t55 5.5t37.5 1.5v-100q-9 0 -34.5 -3.5t-53.5 -7.5t-53 -8.5t-34 -5.5q-19 -3 -28.5 -17t-9.5 -33q-5 -47 -9 -97.5t-5 -102.5t2 -102.5
t12 -97.5q4 -24 20.5 -35t37 -12.5t42.5 5t38 17.5v138q-5 7 -14 10.5t-20.5 6t-22.5 4t-18 4.5q0 4 1 15t2.5 22.5t3.5 22t5 15.5q14 2 34 1.5t40 -2.5t37.5 -6t26.5 -8q0 -10 1 -33t2 -53t3 -63t3 -63t2 -53.5t1 -32.5v-12q-27 -5 -58.5 -9.5t-64.5 -7t-66 -2t-61 5.5z
" />
    <glyph glyph-name="H" unicode="H" horiz-adv-x="380" 
d="M53 -2q1 1 0.5 31t-2 79t-3.5 111.5t-4 127t-4 127t-3.5 111t-1.5 78t1 29.5q2 0 15 -0.5t27 -0.5q17 -1 37 -1l19 -338l106 -6l30 359h72l-2 -695l-83 -2l-21 256l-94 6l-6 -266q-25 -3 -43 -5q-16 -2 -29 -2.5t-11 1.5z" />
    <glyph glyph-name="I" unicode="I" horiz-adv-x="186" 
d="M32 0q2 172 4.5 345t8.5 356h101v-701h-114z" />
    <glyph glyph-name="J" unicode="J" horiz-adv-x="335" 
d="M272 699q10 -118 17 -224q3 -45 5.5 -93t4 -92.5t2 -83t-1.5 -66.5q-4 -56 -26.5 -85.5t-48.5 -42.5q-30 -16 -67 -16l-152 10l-4 86q12 1 29 1q14 0 36 -1t51 -6t44.5 6.5t23.5 26.5q9 18 10 42l-13 536z" />
    <glyph glyph-name="K" unicode="K" horiz-adv-x="384" 
d="M122 713l4 -300l181 294l57 -69l-180 -288l165 -292l-79 -62l-138 302l-2 -304h-88l-8 703z" />
    <glyph glyph-name="L" unicode="L" horiz-adv-x="341" 
d="M35 0q-2 169 2.5 343.5t9.5 357.5h90v-611h199q1 -8 2 -19t1.5 -23.5t0.5 -25v-22.5h-305z" />
    <glyph glyph-name="M" unicode="M" horiz-adv-x="557" 
d="M40 0l-6 690l90 13l171 -334l123 334h81l27 -709l-91 6l-7 457l-106 -221h-65l-123 250l-12 -486h-82z" />
    <glyph glyph-name="N" unicode="N" horiz-adv-x="403" 
d="M41 0l-9 699l94 -4l138 -457l10 475l98 -12l-14 -709l-102 4l-128 417l15 -415z" />
    <glyph glyph-name="O" unicode="O" horiz-adv-x="392" 
d="M33 603q1 27 10 48q8 18 25 33.5t49 16.5t60.5 1t50.5 -1q26 -1 47 -2q24 -4 43 -15q16 -10 29.5 -29.5t13.5 -53.5v-48t-0.5 -71t-1 -85t-0.5 -89q-1 -104 -2 -225q0 -16 -5.5 -31t-15 -27t-23 -19.5t-29.5 -7.5q-20 -1 -49 -0.5t-57 1.5q-33 1 -67 1q-48 8 -64.5 39.5
t-14.5 77.5z" />
    <glyph glyph-name="P" unicode="P" horiz-adv-x="339" 
d="M25 699q24 3 54.5 6t63 4t64 -2t57.5 -13.5t43 -29.5t20 -49q12 -115 0 -229q-3 -31 -25.5 -54t-52 -38t-61.5 -22.5t-55 -6.5v-265h-84z" />
    <glyph glyph-name="Q" unicode="Q" horiz-adv-x="402" 
d="M375 -108l-63 -40l-81 137l-113 5q-29 -1 -44.5 18t-22 42.5t-7 42.5t-0.5 18t-0.5 18.5t-2 51.5t-3 73.5t-2.5 84.5q-4 101 -7 231q-4 35 2 63q5 24 22 44t53 20h175q21 -3 39 -14q15 -10 27.5 -30.5t13.5 -57.5q0 -18 0.5 -49t1.5 -68.5t1.5 -79.5t0.5 -83
q1 -96 2 -206q3 -24 -3 -45.5t-15 -37.5q-11 -18 -24 -34z" />
    <glyph glyph-name="R" unicode="R" horiz-adv-x="359" 
d="M327 391q0 -22 -8 -41.5t-21 -36t-30 -30t-36 -23.5q11 -27 24 -58t26.5 -63l27 -64t25.5 -61q-4 -4 -14 -8t-22 -7.5t-23 -7t-16 -5.5l-123 263v-249h-83q0 35 -2.5 91t-5.5 122t-6.5 137t-6 136.5t-3.5 120.5t1 89q15 1 38 1.5t48 1t49.5 0.5h41.5q18 0 38.5 -6.5
t38.5 -18.5t30 -30t12 -40v-213z" />
    <glyph glyph-name="S" unicode="S" horiz-adv-x="372" 
d="M32 2l-12 95l159 -10q22 2 40 8q15 5 28 16.5t15 31.5t1.5 36t-0.5 27q-1 13 -1 24q-1 15 -6 27q-5 10 -13.5 18.5t-25.5 8.5t-33.5 0.5t-29.5 2.5q-16 1 -29 3q-26 6 -45 21q-17 13 -31 36.5t-12 62.5q1 39 1.5 74t-0.5 62q-1 32 -2 59q-1 26 7 47q7 17 23 32t50 16
q33 1 70.5 2t69.5 3l74 4l2 -116l-146 5q-17 -2 -29 -9q-11 -6 -20 -18t-9 -33q-1 -21 -1 -41t-1 -36q-1 -18 -1 -34q-1 -13 3 -24q4 -9 13 -17t27 -10q21 -2 40.5 -2.5t33.5 -0.5q17 0 32 1q19 1 35 -9q14 -8 25 -28t11 -61t-0.5 -76.5t-1.5 -62.5q-1 -32 -1 -58
q-2 -20 -13 -36q-9 -14 -26.5 -25t-49.5 -12z" />
    <glyph glyph-name="T" unicode="T" horiz-adv-x="374" 
d="M11 601v21v30t0.5 30.5t1.5 21.5l349 -6q1 -14 2 -27q1 -11 2 -23.5t1 -21.5v-13h-147q0 -157 6 -311t6 -303h-98v602h-123z" />
    <glyph glyph-name="U" unicode="U" horiz-adv-x="382" 
d="M43 699q-3 1 11 2.5t31 3.5q20 2 48 4q0 -147 1 -267v-101t0.5 -92t0.5 -71v-38q0 -18 1.5 -29t7.5 -17.5t18.5 -8.5t33.5 -2t32 9t16 20q5 13 6 30l8 567l86 4q1 -147 3 -271q1 -53 1.5 -106t1.5 -99.5t1.5 -82.5t0.5 -54q1 -36 -14 -56.5t-34 -31.5q-22 -12 -50 -16
q-13 0 -33 1q-17 1 -43.5 1t-63.5 2q-35 1 -51 17.5t-21.5 36.5t-5 38.5t0.5 23.5q4 163 6 291q1 54 1.5 106.5t0.5 93.5t-0.5 66.5t-1.5 25.5z" />
    <glyph glyph-name="V" unicode="V" horiz-adv-x="366" 
d="M19 684l80 25l64 -538l42 272q8 51 15.5 99.5t14 86.5t11 61t5.5 23q2 -1 18.5 -3.5t36.5 -5.5q23 -4 51 -7l-131 -699l-146 -4z" />
    <glyph glyph-name="W" unicode="W" horiz-adv-x="574" 
d="M110 705l46 -526l94 524l102 -2l52 -515l42 531q26 -1 47 -1q18 -1 33.5 -1h19.5q1 0 -1.5 -31t-8 -81.5t-13.5 -115t-16 -131.5q-19 -158 -45 -358l-129 6l-42 424l-69 -426l-141 2l-59 691z" />
    <glyph glyph-name="X" unicode="X" horiz-adv-x="365" 
d="M24 690l84 19l58 -304l90 294l93 -11l-104 -350l75 -332l-79 -6l-63 250l-70 -250l-84 17l65 317z" />
    <glyph glyph-name="Y" unicode="Y" horiz-adv-x="324" 
d="M8 697l79 14l70 -241l82 229l80 -9l-60 -194q-11 -36 -22 -71t-19 -63t-13 -45l-5 -17v-13.5t-0.5 -35.5t-0.5 -49.5v-55.5q-1 -67 -1 -152l-82 1l-6 321z" />
    <glyph glyph-name="Z" unicode="Z" horiz-adv-x="358" 
d="M30 703l302 -6l2 -92l-211 -513l211 8v-104l-313 2l2 108l213 495q-58 0 -103 1q-20 0 -38.5 0.5t-32.5 1t-23 1l-9 0.5v98z" />
    <glyph glyph-name="bracketleft" unicode="[" horiz-adv-x="279" 
d="M225 697l-108 -1l-11 -717l134 -8l-2 -94l-223 -4l-5 920l217 16z" />
    <glyph glyph-name="backslash" unicode="\" horiz-adv-x="277" 
d="M244 -48q-2 2 -14.5 -2.5t-26.5 -9.5q-17 -6 -37 -14l-190 845l84 -9q53 -228 94 -407q18 -76 34.5 -149t29 -129.5t20 -91t6.5 -33.5z" />
    <glyph glyph-name="bracketright" unicode="]" horiz-adv-x="279" 
d="M23 809l217 -16l-5 -920l-223 4l-2 94l134 8l-11 717l-108 1z" />
    <glyph glyph-name="underscore" unicode="_" horiz-adv-x="567" 
d="M523 -6l-6 -119h-492l2 109z" />
    <glyph glyph-name="a" unicode="a" 
d="M87 699h45h52t50 -1t40 -2l83 -696h-86q-3 24 -7.5 59.5t-9 72.5t-9.5 71t-11 54l-86 13q-14 -57 -19.5 -126.5t-16.5 -143.5h-86z" />
    <glyph glyph-name="b" unicode="b" horiz-adv-x="403" 
d="M235 703q30 1 54 -9q20 -8 38 -27t22 -55q3 -37 3.5 -69.5t-0.5 -57.5q-1 -29 -3 -54q-6 -17 -17 -30q-10 -11 -27.5 -21.5t-43.5 -12.5q-27 -2 -46 -2.5t-32 -0.5q-15 0 -25 1l127 -28q25 -4 44 -15q17 -9 30.5 -24.5t11.5 -41.5t-4.5 -62t-5.5 -69q-4 -39 -7 -79
q-2 -11 -10 -20q-7 -8 -21 -15t-39 -8q-26 -2 -64 -3.5t-75 -3.5q-43 -2 -89 -4q-14 194 -15.5 365.5t5.5 335.5q47 7 95.5 9.5t93.5 0.5z" />
    <glyph glyph-name="c" unicode="c" 
d="M335 593l-165 -20q-13 -1 -24 -9q-9 -7 -17 -21t-10 -40q-1 -17 -1.5 -50.5t-0.5 -74t0.5 -84t1.5 -80t3.5 -62t5.5 -31.5q5 -8 9.5 -14.5t11.5 -11t18.5 -7t29.5 -2.5t44.5 2t50.5 4q28 3 58 7l6 -84l-176 -16q-136 -12 -148 118l12 477q1 15 10 29q8 11 24 23t45 19
t63 13t65 11t55 8t34 3z" />
    <glyph glyph-name="d" unicode="d" horiz-adv-x="383" 
d="M37 2l11 703l212 -13q26 -7 46 -25q17 -15 31 -41.5t13 -68.5q0 -21 -1.5 -54t-3 -72t-3 -82t-3.5 -85q-4 -98 -10 -208q-6 -17 -18 -30q-11 -11 -30 -20t-48 -8z" />
    <glyph glyph-name="e" unicode="e" horiz-adv-x="365" 
d="M35 700q75 4 157 2t157 -2v-75h-225q-2 -25 -0.5 -71t3.5 -93.5t5 -86t4 -49.5h188v-75l-188 -25v-12q0 -29 4.5 -69t5.5 -69h203v-75h-300z" />
    <glyph glyph-name="f" unicode="f" horiz-adv-x="353" 
d="M50 -2l-15 699l317 6l-4 -94l-219 -6l8 -259l130 -8l-2 -71l-124 -4l7 -251z" />
    <glyph glyph-name="g" unicode="g" horiz-adv-x="376" 
d="M96 0q-21 4 -33 14.5t-18.5 26.5t-8.5 37.5t-2 46.5v313q0 9 0.5 36t2 57.5t4 57.5t5.5 36q5 14 24.5 25t47.5 19t60.5 14t63 10t55 5.5t37.5 1.5v-100q-9 0 -34.5 -3.5t-53.5 -7.5t-53 -8.5t-34 -5.5q-19 -3 -28.5 -17t-9.5 -33q-5 -47 -9 -97.5t-5 -102.5t2 -102.5
t12 -97.5q4 -24 20.5 -35t37 -12.5t42.5 5t38 17.5v138q-5 7 -14 10.5t-20.5 6t-22.5 4t-18 4.5q0 4 1 15t2.5 22.5t3.5 22t5 15.5q14 2 34 1.5t40 -2.5t37.5 -6t26.5 -8q0 -10 1 -33t2 -53t3 -63t3 -63t2 -53.5t1 -32.5v-12q-27 -5 -58.5 -9.5t-64.5 -7t-66 -2t-61 5.5z
" />
    <glyph glyph-name="h" unicode="h" horiz-adv-x="380" 
d="M53 -2q1 1 0.5 31t-2 79t-3.5 111.5t-4 127t-4 127t-3.5 111t-1.5 78t1 29.5q2 0 15 -0.5t27 -0.5q17 -1 37 -1l19 -338l106 -6l30 359h72l-2 -695l-83 -2l-21 256l-94 6l-6 -266q-25 -3 -43 -5q-16 -2 -29 -2.5t-11 1.5z" />
    <glyph glyph-name="i" unicode="i" horiz-adv-x="186" 
d="M32 0q2 172 4.5 345t8.5 356h101v-701h-114z" />
    <glyph glyph-name="j" unicode="j" horiz-adv-x="335" 
d="M272 699q10 -118 17 -224q3 -45 5.5 -93t4 -92.5t2 -83t-1.5 -66.5q-4 -56 -26.5 -85.5t-48.5 -42.5q-30 -16 -67 -16l-152 10l-4 86q12 1 29 1q14 0 36 -1t51 -6t44.5 6.5t23.5 26.5q9 18 10 42l-13 536z" />
    <glyph glyph-name="k" unicode="k" horiz-adv-x="384" 
d="M122 713l4 -300l181 294l57 -69l-180 -288l165 -292l-79 -62l-138 302l-2 -304h-88l-8 703z" />
    <glyph glyph-name="l" unicode="l" horiz-adv-x="341" 
d="M35 0q-2 169 2.5 343.5t9.5 357.5h90v-611h199q1 -8 2 -19t1.5 -23.5t0.5 -25v-22.5h-305z" />
    <glyph glyph-name="m" unicode="m" horiz-adv-x="557" 
d="M40 0l-6 690l90 13l171 -334l123 334h81l27 -709l-91 6l-7 457l-106 -221h-65l-123 250l-12 -486h-82z" />
    <glyph glyph-name="n" unicode="n" horiz-adv-x="403" 
d="M41 0l-9 699l94 -4l138 -457l10 475l98 -12l-14 -709l-102 4l-128 417l15 -415z" />
    <glyph glyph-name="o" unicode="o" horiz-adv-x="392" 
d="M33 603q1 27 10 48q8 18 25 33.5t49 16.5t60.5 1t50.5 -1q26 -1 47 -2q24 -4 43 -15q16 -10 29.5 -29.5t13.5 -53.5v-48t-0.5 -71t-1 -85t-0.5 -89q-1 -104 -2 -225q0 -16 -5.5 -31t-15 -27t-23 -19.5t-29.5 -7.5q-20 -1 -49 -0.5t-57 1.5q-33 1 -67 1q-48 8 -64.5 39.5
t-14.5 77.5z" />
    <glyph glyph-name="p" unicode="p" horiz-adv-x="339" 
d="M25 699q24 3 54.5 6t63 4t64 -2t57.5 -13.5t43 -29.5t20 -49q12 -115 0 -229q-3 -31 -25.5 -54t-52 -38t-61.5 -22.5t-55 -6.5v-265h-84z" />
    <glyph glyph-name="q" unicode="q" horiz-adv-x="402" 
d="M375 -108l-63 -40l-81 137l-113 5q-29 -1 -44.5 18t-22 42.5t-7 42.5t-0.5 18t-0.5 18.5t-2 51.5t-3 73.5t-2.5 84.5q-4 101 -7 231q-4 35 2 63q5 24 22 44t53 20h175q21 -3 39 -14q15 -10 27.5 -30.5t13.5 -57.5q0 -18 0.5 -49t1.5 -68.5t1.5 -79.5t0.5 -83
q1 -96 2 -206q3 -24 -3 -45.5t-15 -37.5q-11 -18 -24 -34z" />
    <glyph glyph-name="r" unicode="r" horiz-adv-x="359" 
d="M327 391q0 -22 -8 -41.5t-21 -36t-30 -30t-36 -23.5q11 -27 24 -58t26.5 -63l27 -64t25.5 -61q-4 -4 -14 -8t-22 -7.5t-23 -7t-16 -5.5l-123 263v-249h-83q0 35 -2.5 91t-5.5 122t-6.5 137t-6 136.5t-3.5 120.5t1 89q15 1 38 1.5t48 1t49.5 0.5h41.5q18 0 38.5 -6.5
t38.5 -18.5t30 -30t12 -40v-213z" />
    <glyph glyph-name="s" unicode="s" horiz-adv-x="372" 
d="M32 2l-12 95l159 -10q22 2 40 8q15 5 28 16.5t15 31.5t1.5 36t-0.5 27q-1 13 -1 24q-1 15 -6 27q-5 10 -13.5 18.5t-25.5 8.5t-33.5 0.5t-29.5 2.5q-16 1 -29 3q-26 6 -45 21q-17 13 -31 36.5t-12 62.5q1 39 1.5 74t-0.5 62q-1 32 -2 59q-1 26 7 47q7 17 23 32t50 16
q33 1 70.5 2t69.5 3l74 4l2 -116l-146 5q-17 -2 -29 -9q-11 -6 -20 -18t-9 -33q-1 -21 -1 -41t-1 -36q-1 -18 -1 -34q-1 -13 3 -24q4 -9 13 -17t27 -10q21 -2 40.5 -2.5t33.5 -0.5q17 0 32 1q19 1 35 -9q14 -8 25 -28t11 -61t-0.5 -76.5t-1.5 -62.5q-1 -32 -1 -58
q-2 -20 -13 -36q-9 -14 -26.5 -25t-49.5 -12z" />
    <glyph glyph-name="t" unicode="t" horiz-adv-x="374" 
d="M11 601v21v30t0.5 30.5t1.5 21.5l349 -6q1 -14 2 -27q1 -11 2 -23.5t1 -21.5v-13h-147q0 -157 6 -311t6 -303h-98v602h-123z" />
    <glyph glyph-name="u" unicode="u" horiz-adv-x="382" 
d="M43 699q-3 1 11 2.5t31 3.5q20 2 48 4q0 -147 1 -267v-101t0.5 -92t0.5 -71v-38q0 -18 1.5 -29t7.5 -17.5t18.5 -8.5t33.5 -2t32 9t16 20q5 13 6 30l8 567l86 4q1 -147 3 -271q1 -53 1.5 -106t1.5 -99.5t1.5 -82.5t0.5 -54q1 -36 -14 -56.5t-34 -31.5q-22 -12 -50 -16
q-13 0 -33 1q-17 1 -43.5 1t-63.5 2q-35 1 -51 17.5t-21.5 36.5t-5 38.5t0.5 23.5q4 163 6 291q1 54 1.5 106.5t0.5 93.5t-0.5 66.5t-1.5 25.5z" />
    <glyph glyph-name="v" unicode="v" horiz-adv-x="366" 
d="M19 684l80 25l64 -538l42 272q8 51 15.5 99.5t14 86.5t11 61t5.5 23q2 -1 18.5 -3.5t36.5 -5.5q23 -4 51 -7l-131 -699l-146 -4z" />
    <glyph glyph-name="w" unicode="w" horiz-adv-x="574" 
d="M110 705l46 -526l94 524l102 -2l52 -515l42 531q26 -1 47 -1q18 -1 33.5 -1h19.5q1 0 -1.5 -31t-8 -81.5t-13.5 -115t-16 -131.5q-19 -158 -45 -358l-129 6l-42 424l-69 -426l-141 2l-59 691z" />
    <glyph glyph-name="x" unicode="x" horiz-adv-x="365" 
d="M24 690l84 19l58 -304l90 294l93 -11l-104 -350l75 -332l-79 -6l-63 250l-70 -250l-84 17l65 317z" />
    <glyph glyph-name="y" unicode="y" horiz-adv-x="324" 
d="M8 697l79 14l70 -241l82 229l80 -9l-60 -194q-11 -36 -22 -71t-19 -63t-13 -45l-5 -17v-13.5t-0.5 -35.5t-0.5 -49.5v-55.5q-1 -67 -1 -152l-82 1l-6 321z" />
    <glyph glyph-name="z" unicode="z" horiz-adv-x="358" 
d="M30 703l302 -6l2 -92l-211 -513l211 8v-104l-313 2l2 108l213 495q-58 0 -103 1q-20 0 -38.5 0.5t-32.5 1t-23 1l-9 0.5v98z" />
    <glyph glyph-name="braceleft" unicode="{" horiz-adv-x="333" 
d="M146 368q13 -3 20 -12t11 -20q4 -12 5 -27q-1 -32 -1 -68q0 -31 0.5 -69.5t2.5 -79.5t21 -66.5t41 -40.5q26 -18 58 -26l-12 -90q-37 1 -65.5 11.5t-50 26t-37 35.5t-25.5 41q-25 48 -30 109q-1 37 -1 71q-1 29 -1 59t-2 49q-2 18 -11.5 29.5t-20.5 18.5q-13 8 -28 11
l3 83q16 0 26 10t15 23q6 14 9 33q0 -1 1 8q1 8 1.5 26.5t0.5 56.5q0 57 20 99.5t51.5 70.5t69.5 42.5t73 16.5l2 -88q-42 -2 -64 -22t-32 -44q-12 -28 -13 -63q-1 -23 -1 -46q0 -20 -0.5 -42.5t1.5 -41.5q1 -19 -4 -34.5t-13 -26.5q-9 -13 -20 -23z" />
    <glyph glyph-name="braceright" unicode="}" horiz-adv-x="333" 
d="M178 300q-13 2 -20 11.5t-11 20.5q-4 12 -5 27q1 32 1 68q0 31 -0.5 69t-2.5 80q-2 41 -21 66.5t-41 40.5q-26 18 -58 26l12 90q37 -1 65 -11.5t49.5 -26t36.5 -35.5t26 -41q24 -48 31 -109q-1 -37 0 -71q0 -29 1 -59.5t3 -48.5q2 -19 11 -30t20 -18q12 -8 29 -11l-3 -83
q-17 0 -26.5 -10.5t-14.5 -22.5q-6 -15 -9 -33q-1 1 -2 -8q-1 -8 -1 -26.5v-56.5q0 -57 -20 -99.5t-51.5 -70.5t-69.5 -42.5t-73 -16.5l-2 88q42 2 63.5 22t32.5 44q11 28 13 63q1 23 1 46v42.5t-1 41.5q-2 19 3.5 34.5t13.5 26.5q9 13 20 23z" />
    <glyph glyph-name="exclamdown" unicode="&#xa1;" horiz-adv-x="165" 
d="M30 -9l19 588h81v-577zM49 648v99l93 -8q-2 -26 -3 -46q-1 -17 -2 -31t0 -14h-88z" />
    <glyph glyph-name="sterling" unicode="&#xa3;" horiz-adv-x="400" 
d="M317 699q-2 1 -1 -15.5t3 -36.5q2 -24 6 -53l-32 -4q-14 -2 -29.5 -3t-29.5 -3t-23.5 -8.5t-15.5 -13.5q-7 -9 -11 -18l-3 -127l84 -10v-98h-90l13 -198l187 -5v-110h-367l-6 108l77 4l-2 199l-69 -3l-4 111h82q-1 27 0 53q0 23 1 48.5t3 46.5q1 21 8.5 38.5t18 31.5
t22 23.5t22.5 15.5q10 6 36.5 10.5t53.5 8t47 5.5t19 3z" />
    <glyph glyph-name="yen" unicode="&#xa5;" horiz-adv-x="324" 
d="M200 252q0 -16 -0.5 -33.5t-0.5 -37.5l107 2l-2 -78l-105 -4q-1 -22 -1 -41.5v-33.5v-32l-82 1l-2 102l-94 -3l5 84l87 1l-1 71l-90 -1l2 78l83 3l-98 367l79 14l70 -241l82 229l80 -9q-23 -75 -44 -143q-9 -29 -18.5 -59.5t-18 -59t-16 -53t-12.5 -41.5l97 4l-5 -84z
" />
    <glyph glyph-name="questiondown" unicode="&#xbf;" horiz-adv-x="404" 
d="M340 242l19 -115q8 -33 4 -59q-3 -23 -17.5 -43.5t-51.5 -26.5q-72 -12 -121.5 -6.5t-66.5 10.5q-9 3 -23 11t-27.5 21.5t-23.5 33t-9 45.5t3 67.5t5 82t6 73t6 40.5q1 2 4.5 12t10 22t17.5 22t26 13q15 2 24.5 4t14.5 4q6 2 8 3q9 4 16 10q6 5 11 13t3 20q-2 11 -3 23.5
t-2 23.5q-1 12 -1 24l98 4v-94q-1 -25 -8 -45q-6 -17 -20 -33.5t-41 -21.5q-14 -3 -23 -5t-15 -4l-12 -3q-9 -5 -15 -12q-5 -6 -10 -15t-4 -23q0 -12 -0.5 -40.5t-2 -59t-2 -55.5t-0.5 -31q0 -5 2 -10.5t5.5 -11t10 -8.5t16.5 -3h47h28q17 -1 24 9.5t8 26.5q1 14 0.5 31.5
t-2.5 33.5q-2 18 -4 38zM174 650v99l93 -8q-2 -26 -3 -46q-1 -17 -2 -31t0 -14h-88z" />
    <glyph glyph-name="Agrave" unicode="&#xc0;" 
d="M87 699h45h52t50 -1t40 -2l83 -696h-86q-3 24 -7.5 59.5t-9 72.5t-9.5 71t-11 54l-86 13q-14 -57 -19.5 -126.5t-16.5 -143.5h-86zM121 912l159 -104l-15 -62l-164 49z" />
    <glyph glyph-name="Aacute" unicode="&#xc1;" 
d="M26 0h86q11 74 16.5 143.5t19.5 126.5l86 -13q6 -20 11 -54t9.5 -71t9 -72.5t7.5 -59.5h86l-83 696q-16 1 -40 2t-50 1h-52h-45zM122 746l-18 51l123 112l55 -93z" />
    <glyph glyph-name="Acircumflex" unicode="&#xc2;" 
d="M26 0h86q11 74 16.5 143.5t19.5 126.5l86 -13q6 -20 11 -54t9.5 -71t9 -72.5t7.5 -59.5h86l-83 696q-16 1 -40 2t-50 1h-52h-45zM175 921l155 -105l-24 -71l-114 71l-99 -71l-51 56z" />
    <glyph glyph-name="Atilde" unicode="&#xc3;" 
d="M87 699h45h52t50 -1t40 -2l83 -696h-86q-3 24 -7.5 59.5t-9 72.5t-9.5 71t-11 54l-86 13q-14 -57 -19.5 -126.5t-16.5 -143.5h-86zM27 787q0 1 8.5 13t20.5 26.5t26.5 27t27.5 13.5t27 -4.5t27.5 -13t25 -15t19.5 -11.5q7 -4 18.5 -8.5t23 -3t22 13t16.5 40.5l47 -32
q-6 -33 -23.5 -50.5t-38 -25t-39.5 -8t-28 1.5t-20 9.5t-22 16t-21 14t-16 4.5q-7 -2 -14.5 -8.5t-14.5 -13.5l-16 -18z" />
    <glyph glyph-name="Adieresis" unicode="&#xc4;" 
d="M87 699h45h52t50 -1t40 -2l83 -696h-86q-3 24 -7.5 59.5t-9 72.5t-9.5 71t-11 54l-86 13q-14 -57 -19.5 -126.5t-16.5 -143.5h-86zM157 839l-3 -96l-86 3l2 93h87zM279 849l10 -106l-88 -2l-5 98z" />
    <glyph glyph-name="Aring" unicode="&#xc5;" 
d="M87 699h45h52t50 -1t40 -2l83 -696h-86q-3 24 -7.5 59.5t-9 72.5t-9.5 71t-11 54l-86 13q-14 -57 -19.5 -126.5t-16.5 -143.5h-86zM99 922q-1 0 7 -0.5t21 -0.5h30h35q42 0 96 1l-6 -177q-50 -2 -90 -3q-34 -1 -62 -1.5t-29 -0.5l-0.5 13.5t-0.5 34v44v44v33.5t-1 13z
M169 859v-9v-20t-0.5 -20l-0.5 -9l8.5 0.5t19 1.5t19 1.5t7.5 0.5q-2 0 -1.5 7.5t0.5 16.5q0 11 1 25q-16 1 -27 2q-10 1 -18.5 2t-7.5 1z" />
    <glyph glyph-name="AE" unicode="&#xc6;" horiz-adv-x="588" 
d="M87 699q120 4 241 3.5t243 -2.5v-75h-225q-2 -25 -0.5 -71t3.5 -93.5t5 -86t4 -49.5h188v-75l-188 -25v-12q0 -29 4.5 -69t5.5 -69h203v-75h-300q-3 24 -7.5 59.5t-9 72.5t-9.5 71t-11 54l-86 13q-14 -57 -19.5 -126.5t-16.5 -143.5h-86z" />
    <glyph glyph-name="Ccedilla" unicode="&#xc7;" 
d="M245 4l5 -55q16 -6 27 -16q10 -8 16 -22t1 -34t-14.5 -35t-21.5 -25t-24.5 -15.5t-24.5 -6.5q-12 -2 -22.5 -1t-18.5 2q-10 1 -18 3l-4 60h17h13.5t10.5 1q7 1 15.5 6.5t10.5 19.5q1 7 -4 10.5t-11 5.5q-7 2 -17 2l-1 95q-136 -12 -148 118l12 477q1 15 10 29q8 11 24 23
t45 19t63 13t65 11t55 8t34 3l-5 -107l-165 -20q-13 -1 -24 -9q-9 -7 -17 -21t-10 -40q-1 -17 -1.5 -50.5t-0.5 -74t0.5 -84t1.5 -80t3.5 -62t5.5 -31.5q5 -8 9.5 -14.5t11.5 -11t18.5 -7t29.5 -2.5t44.5 2t50.5 4q28 3 58 7l6 -84z" />
    <glyph glyph-name="Egrave" unicode="&#xc8;" horiz-adv-x="365" 
d="M35 700q75 4 157 2t157 -2v-75h-225q-2 -25 -0.5 -71t3.5 -93.5t5 -86t4 -49.5h188v-75l-188 -25v-12q0 -29 4.5 -69t5.5 -69h203v-75h-300zM121 912l159 -104l-15 -62l-164 49z" />
    <glyph glyph-name="Eacute" unicode="&#xc9;" horiz-adv-x="365" 
d="M49 0h300v75h-203q-1 29 -5.5 69t-4.5 69v12l188 25v75h-188q-1 11 -4 49.5t-5 86t-3.5 93.5t0.5 71h225v75q-75 0 -157 2t-157 -2zM122 746l-18 51l123 112l55 -93z" />
    <glyph glyph-name="Ecircumflex" unicode="&#xca;" horiz-adv-x="365" 
d="M49 0h300v75h-203q-1 29 -5.5 69t-4.5 69v12l188 25v75h-188q-1 11 -4 49.5t-5 86t-3.5 93.5t0.5 71h225v75q-75 0 -157 2t-157 -2zM175 921l155 -105l-24 -71l-114 71l-99 -71l-51 56z" />
    <glyph glyph-name="Edieresis" unicode="&#xcb;" horiz-adv-x="365" 
d="M35 700q75 4 157 2t157 -2v-75h-225q-2 -25 -0.5 -71t3.5 -93.5t5 -86t4 -49.5h188v-75l-188 -25v-12q0 -29 4.5 -69t5.5 -69h203v-75h-300zM157 839l-3 -96l-86 3l2 93h87zM279 849l10 -106l-88 -2l-5 98z" />
    <glyph glyph-name="Igrave" unicode="&#xcc;" horiz-adv-x="186" 
d="M32 0q2 172 4.5 345t8.5 356h101v-701h-114zM26 913l159 -104l-15 -62l-164 49z" />
    <glyph glyph-name="Iacute" unicode="&#xcd;" horiz-adv-x="186" 
d="M146 0v701h-101q-6 -183 -8.5 -356t-4.5 -345h114zM31 743l-18 51l123 112l55 -93z" />
    <glyph glyph-name="Icircumflex" unicode="&#xce;" horiz-adv-x="186" 
d="M146 0v701h-101q-6 -183 -8.5 -356t-4.5 -345h114zM85 918l155 -105l-24 -71l-114 71l-99 -71l-51 56z" />
    <glyph glyph-name="Idieresis" unicode="&#xcf;" horiz-adv-x="186" 
d="M32 0q2 172 4.5 345t8.5 356h101v-701h-114zM68 853l-3 -96l-86 3l2 93h87zM190 863l10 -106l-88 -2l-5 98z" />
    <glyph glyph-name="Eth" unicode="&#xd0;" horiz-adv-x="430" 
d="M89 2l6 323l-92 -4l1 107l92 -1l4 278l212 -13q26 -7 46 -25q17 -15 31 -41.5t13 -68.5q0 -21 -1.5 -54t-3 -72t-3 -82t-3.5 -85q-4 -98 -10 -208q-6 -17 -18 -30q-11 -11 -30 -20t-48 -8z" />
    <glyph glyph-name="Ntilde" unicode="&#xd1;" horiz-adv-x="403" 
d="M41 0l-9 699l94 -4l138 -457l10 475l98 -12l-14 -709l-102 4l-128 417l15 -415zM27 787q0 1 8.5 13t20.5 26.5t26.5 27t27.5 13.5t27 -4.5t27.5 -13t25 -15t19.5 -11.5q7 -4 18.5 -8.5t23 -3t22 13t16.5 40.5l47 -32q-6 -33 -23.5 -50.5t-38 -25t-39.5 -8t-28 1.5
t-20 9.5t-22 16t-21 14t-16 4.5q-7 -2 -14.5 -8.5t-14.5 -13.5l-16 -18z" />
    <glyph glyph-name="Ograve" unicode="&#xd2;" horiz-adv-x="392" 
d="M33 603q1 27 10 48q8 18 25 33.5t49 16.5t60.5 1t50.5 -1q26 -1 47 -2q24 -4 43 -15q16 -10 29.5 -29.5t13.5 -53.5v-48t-0.5 -71t-1 -85t-0.5 -89q-1 -104 -2 -225q0 -16 -5.5 -31t-15 -27t-23 -19.5t-29.5 -7.5q-20 -1 -49 -0.5t-57 1.5q-33 1 -67 1q-48 8 -64.5 39.5
t-14.5 77.5zM121 912l159 -104l-15 -62l-164 49z" />
    <glyph glyph-name="Oacute" unicode="&#xd3;" horiz-adv-x="392" 
d="M33 603q1 27 10 48q8 18 25 33.5t49 16.5t60.5 1t50.5 -1q26 -1 47 -2q24 -4 43 -15q16 -10 29.5 -29.5t13.5 -53.5v-48t-0.5 -71t-1 -85t-0.5 -89q-1 -104 -2 -225q0 -16 -5.5 -31t-15 -27t-23 -19.5t-29.5 -7.5q-20 -1 -49 -0.5t-57 1.5q-33 1 -67 1q-48 8 -64.5 39.5
t-14.5 77.5zM122 746l-18 51l123 112l55 -93z" />
    <glyph glyph-name="Ocircumflex" unicode="&#xd4;" horiz-adv-x="392" 
d="M33 603q1 27 10 48q8 18 25 33.5t49 16.5t60.5 1t50.5 -1q26 -1 47 -2q24 -4 43 -15q16 -10 29.5 -29.5t13.5 -53.5v-48t-0.5 -71t-1 -85t-0.5 -89q-1 -104 -2 -225q0 -16 -5.5 -31t-15 -27t-23 -19.5t-29.5 -7.5q-20 -1 -49 -0.5t-57 1.5q-33 1 -67 1q-48 8 -64.5 39.5
t-14.5 77.5zM175 921l155 -105l-24 -71l-114 71l-99 -71l-51 56z" />
    <glyph glyph-name="Otilde" unicode="&#xd5;" horiz-adv-x="392" 
d="M33 603q1 27 10 48q8 18 25 33.5t49 16.5t60.5 1t50.5 -1q26 -1 47 -2q24 -4 43 -15q16 -10 29.5 -29.5t13.5 -53.5v-48t-0.5 -71t-1 -85t-0.5 -89q-1 -104 -2 -225q0 -16 -5.5 -31t-15 -27t-23 -19.5t-29.5 -7.5q-20 -1 -49 -0.5t-57 1.5q-33 1 -67 1q-48 8 -64.5 39.5
t-14.5 77.5zM27 787q0 1 8.5 13t20.5 26.5t26.5 27t27.5 13.5t27 -4.5t27.5 -13t25 -15t19.5 -11.5q7 -4 18.5 -8.5t23 -3t22 13t16.5 40.5l47 -32q-6 -33 -23.5 -50.5t-38 -25t-39.5 -8t-28 1.5t-20 9.5t-22 16t-21 14t-16 4.5q-7 -2 -14.5 -8.5t-14.5 -13.5l-16 -18z" />
    <glyph glyph-name="Odieresis" unicode="&#xd6;" horiz-adv-x="392" 
d="M33 603q1 27 10 48q8 18 25 33.5t49 16.5t60.5 1t50.5 -1q26 -1 47 -2q24 -4 43 -15q16 -10 29.5 -29.5t13.5 -53.5v-48t-0.5 -71t-1 -85t-0.5 -89q-1 -104 -2 -225q0 -16 -5.5 -31t-15 -27t-23 -19.5t-29.5 -7.5q-20 -1 -49 -0.5t-57 1.5q-33 1 -67 1q-48 8 -64.5 39.5
t-14.5 77.5zM157 839l-3 -96l-86 3l2 93h87zM279 849l10 -106l-88 -2l-5 98z" />
    <glyph glyph-name="Oslash" unicode="&#xd8;" horiz-adv-x="392" 
d="M353 643q8 -19 8 -42v-48t-0.5 -71t-1 -85t-0.5 -89q-1 -104 -2 -225q0 -16 -5.5 -31t-15 -27t-23 -19.5t-29.5 -7.5q-20 -1 -49 -0.5t-57 1.5q-33 1 -67 1q-19 3 -32 9l-48 -64l-64 42l69 80q-2 11 -3.5 23.5t-0.5 26.5l1 486q1 27 10 48q8 18 25 33.5t49 16.5t60.5 1
t50.5 -1q26 -1 47 -2q3 0 7 -1q3 -1 7.5 -2t9.5 -3l37 71l64 -40z" />
    <glyph glyph-name="Ugrave" unicode="&#xd9;" horiz-adv-x="382" 
d="M43 699q-3 1 11 2.5t31 3.5q20 2 48 4q0 -147 1 -267v-101t0.5 -92t0.5 -71v-38q0 -18 1.5 -29t7.5 -17.5t18.5 -8.5t33.5 -2t32 9t16 20q5 13 6 30l8 567l86 4q1 -147 3 -271q1 -53 1.5 -106t1.5 -99.5t1.5 -82.5t0.5 -54q1 -36 -14 -56.5t-34 -31.5q-22 -12 -50 -16
q-13 0 -33 1q-17 1 -43.5 1t-63.5 2q-35 1 -51 17.5t-21.5 36.5t-5 38.5t0.5 23.5q4 163 6 291q1 54 1.5 106.5t0.5 93.5t-0.5 66.5t-1.5 25.5zM121 912l159 -104l-15 -62l-164 49z" />
    <glyph glyph-name="Uacute" unicode="&#xda;" horiz-adv-x="382" 
d="M43 699q1 0 1.5 -25.5t0.5 -66.5t-0.5 -93.5t-1.5 -106.5q-2 -128 -6 -291q0 -5 -0.5 -23.5t5 -38.5t21.5 -36.5t51 -17.5q37 -2 63.5 -2t43.5 -1q20 -1 33 -1q28 4 50 16q19 11 34 31.5t14 56.5q0 18 -0.5 54t-1.5 82.5t-1.5 99.5t-1.5 106q-2 124 -3 271l-86 -4
l-8 -567q-1 -17 -6 -30q-5 -11 -16 -20t-32 -9t-33.5 2t-18.5 8.5t-7.5 17.5t-1.5 29v38t-0.5 71t-0.5 92v101q-1 120 -1 267q-28 -2 -48 -4q-17 -2 -31 -3.5t-11 -2.5zM122 746l-18 51l123 112l55 -93z" />
    <glyph glyph-name="Ucircumflex" unicode="&#xdb;" horiz-adv-x="382" 
d="M43 699q1 0 1.5 -25.5t0.5 -66.5t-0.5 -93.5t-1.5 -106.5q-2 -128 -6 -291q0 -5 -0.5 -23.5t5 -38.5t21.5 -36.5t51 -17.5q37 -2 63.5 -2t43.5 -1q20 -1 33 -1q28 4 50 16q19 11 34 31.5t14 56.5q0 18 -0.5 54t-1.5 82.5t-1.5 99.5t-1.5 106q-2 124 -3 271l-86 -4
l-8 -567q-1 -17 -6 -30q-5 -11 -16 -20t-32 -9t-33.5 2t-18.5 8.5t-7.5 17.5t-1.5 29v38t-0.5 71t-0.5 92v101q-1 120 -1 267q-28 -2 -48 -4q-17 -2 -31 -3.5t-11 -2.5zM175 921l155 -105l-24 -71l-114 71l-99 -71l-51 56z" />
    <glyph glyph-name="Udieresis" unicode="&#xdc;" horiz-adv-x="382" 
d="M43 699q-3 1 11 2.5t31 3.5q20 2 48 4q0 -147 1 -267v-101t0.5 -92t0.5 -71v-38q0 -18 1.5 -29t7.5 -17.5t18.5 -8.5t33.5 -2t32 9t16 20q5 13 6 30l8 567l86 4q1 -147 3 -271q1 -53 1.5 -106t1.5 -99.5t1.5 -82.5t0.5 -54q1 -36 -14 -56.5t-34 -31.5q-22 -12 -50 -16
q-13 0 -33 1q-17 1 -43.5 1t-63.5 2q-35 1 -51 17.5t-21.5 36.5t-5 38.5t0.5 23.5q4 163 6 291q1 54 1.5 106.5t0.5 93.5t-0.5 66.5t-1.5 25.5zM157 839l-3 -96l-86 3l2 93h87zM279 849l10 -106l-88 -2l-5 98z" />
    <glyph glyph-name="Yacute" unicode="&#xdd;" horiz-adv-x="324" 
d="M8 697l79 14l70 -241l82 229l80 -9l-60 -194q-11 -36 -22 -71t-19 -63t-13 -45l-5 -17v-13.5t-0.5 -35.5t-0.5 -49.5v-55.5q-1 -67 -1 -152l-82 1l-6 321zM122 746l-18 51l123 112l55 -93z" />
    <glyph glyph-name="Thorn" unicode="&#xde;" horiz-adv-x="339" 
d="M25 699l89 4l5 -137q36 3 71.5 2t64.5 -10.5t48 -29.5t23 -55q12 -115 0 -229q-3 -31 -25.5 -54t-52 -38t-61.5 -22.5t-55 -6.5l1 -123h-84z" />
    <glyph glyph-name="agrave" unicode="&#xe0;" 
d="M87 699h45h52t50 -1t40 -2l83 -696h-86q-3 24 -7.5 59.5t-9 72.5t-9.5 71t-11 54l-86 13q-14 -57 -19.5 -126.5t-16.5 -143.5h-86zM121 912l159 -104l-15 -62l-164 49z" />
    <glyph glyph-name="aacute" unicode="&#xe1;" 
d="M26 0h86q11 74 16.5 143.5t19.5 126.5l86 -13q6 -20 11 -54t9.5 -71t9 -72.5t7.5 -59.5h86l-83 696q-16 1 -40 2t-50 1h-52h-45zM122 746l-18 51l123 112l55 -93z" />
    <glyph glyph-name="acircumflex" unicode="&#xe2;" 
d="M26 0h86q11 74 16.5 143.5t19.5 126.5l86 -13q6 -20 11 -54t9.5 -71t9 -72.5t7.5 -59.5h86l-83 696q-16 1 -40 2t-50 1h-52h-45zM175 921l155 -105l-24 -71l-114 71l-99 -71l-51 56z" />
    <glyph glyph-name="atilde" unicode="&#xe3;" 
d="M87 699h45h52t50 -1t40 -2l83 -696h-86q-3 24 -7.5 59.5t-9 72.5t-9.5 71t-11 54l-86 13q-14 -57 -19.5 -126.5t-16.5 -143.5h-86zM27 787q0 1 8.5 13t20.5 26.5t26.5 27t27.5 13.5t27 -4.5t27.5 -13t25 -15t19.5 -11.5q7 -4 18.5 -8.5t23 -3t22 13t16.5 40.5l47 -32
q-6 -33 -23.5 -50.5t-38 -25t-39.5 -8t-28 1.5t-20 9.5t-22 16t-21 14t-16 4.5q-7 -2 -14.5 -8.5t-14.5 -13.5l-16 -18z" />
    <glyph glyph-name="adieresis" unicode="&#xe4;" 
d="M87 699h45h52t50 -1t40 -2l83 -696h-86q-3 24 -7.5 59.5t-9 72.5t-9.5 71t-11 54l-86 13q-14 -57 -19.5 -126.5t-16.5 -143.5h-86zM157 839l-3 -96l-86 3l2 93h87zM279 849l10 -106l-88 -2l-5 98z" />
    <glyph glyph-name="aring" unicode="&#xe5;" 
d="M87 699h45h52t50 -1t40 -2l83 -696h-86q-3 24 -7.5 59.5t-9 72.5t-9.5 71t-11 54l-86 13q-14 -57 -19.5 -126.5t-16.5 -143.5h-86zM99 922q-1 0 7 -0.5t21 -0.5h30h35q42 0 96 1l-6 -177q-50 -2 -90 -3q-34 -1 -62 -1.5t-29 -0.5l-0.5 13.5t-0.5 34v44v44v33.5t-1 13z
M169 859v-9v-20t-0.5 -20l-0.5 -9l8.5 0.5t19 1.5t19 1.5t7.5 0.5q-2 0 -1.5 7.5t0.5 16.5q0 11 1 25q-16 1 -27 2q-10 1 -18.5 2t-7.5 1z" />
    <glyph glyph-name="ae" unicode="&#xe6;" horiz-adv-x="588" 
d="M87 699q120 4 241 3.5t243 -2.5v-75h-225q-2 -25 -0.5 -71t3.5 -93.5t5 -86t4 -49.5h188v-75l-188 -25v-12q0 -29 4.5 -69t5.5 -69h203v-75h-300q-3 24 -7.5 59.5t-9 72.5t-9.5 71t-11 54l-86 13q-14 -57 -19.5 -126.5t-16.5 -143.5h-86z" />
    <glyph glyph-name="ccedilla" unicode="&#xe7;" 
d="M245 4l5 -55q16 -6 27 -16q10 -8 16 -22t1 -34t-14.5 -35t-21.5 -25t-24.5 -15.5t-24.5 -6.5q-12 -2 -22.5 -1t-18.5 2q-10 1 -18 3l-4 60h17h13.5t10.5 1q7 1 15.5 6.5t10.5 19.5q1 7 -4 10.5t-11 5.5q-7 2 -17 2l-1 95q-136 -12 -148 118l12 477q1 15 10 29q8 11 24 23
t45 19t63 13t65 11t55 8t34 3l-5 -107l-165 -20q-13 -1 -24 -9q-9 -7 -17 -21t-10 -40q-1 -17 -1.5 -50.5t-0.5 -74t0.5 -84t1.5 -80t3.5 -62t5.5 -31.5q5 -8 9.5 -14.5t11.5 -11t18.5 -7t29.5 -2.5t44.5 2t50.5 4q28 3 58 7l6 -84z" />
    <glyph glyph-name="egrave" unicode="&#xe8;" horiz-adv-x="365" 
d="M35 700q75 4 157 2t157 -2v-75h-225q-2 -25 -0.5 -71t3.5 -93.5t5 -86t4 -49.5h188v-75l-188 -25v-12q0 -29 4.5 -69t5.5 -69h203v-75h-300zM121 912l159 -104l-15 -62l-164 49z" />
    <glyph glyph-name="eacute" unicode="&#xe9;" horiz-adv-x="365" 
d="M49 0h300v75h-203q-1 29 -5.5 69t-4.5 69v12l188 25v75h-188q-1 11 -4 49.5t-5 86t-3.5 93.5t0.5 71h225v75q-75 0 -157 2t-157 -2zM122 746l-18 51l123 112l55 -93z" />
    <glyph glyph-name="ecircumflex" unicode="&#xea;" horiz-adv-x="365" 
d="M49 0h300v75h-203q-1 29 -5.5 69t-4.5 69v12l188 25v75h-188q-1 11 -4 49.5t-5 86t-3.5 93.5t0.5 71h225v75q-75 0 -157 2t-157 -2zM175 921l155 -105l-24 -71l-114 71l-99 -71l-51 56z" />
    <glyph glyph-name="edieresis" unicode="&#xeb;" horiz-adv-x="365" 
d="M35 700q75 4 157 2t157 -2v-75h-225q-2 -25 -0.5 -71t3.5 -93.5t5 -86t4 -49.5h188v-75l-188 -25v-12q0 -29 4.5 -69t5.5 -69h203v-75h-300zM157 839l-3 -96l-86 3l2 93h87zM279 849l10 -106l-88 -2l-5 98z" />
    <glyph glyph-name="igrave" unicode="&#xec;" horiz-adv-x="186" 
d="M32 0q2 172 4.5 345t8.5 356h101v-701h-114zM26 913l159 -104l-15 -62l-164 49z" />
    <glyph glyph-name="iacute" unicode="&#xed;" horiz-adv-x="186" 
d="M146 0v701h-101q-6 -183 -8.5 -356t-4.5 -345h114zM31 743l-18 51l123 112l55 -93z" />
    <glyph glyph-name="icircumflex" unicode="&#xee;" horiz-adv-x="186" 
d="M146 0v701h-101q-6 -183 -8.5 -356t-4.5 -345h114zM85 918l155 -105l-24 -71l-114 71l-99 -71l-51 56z" />
    <glyph glyph-name="idieresis" unicode="&#xef;" horiz-adv-x="186" 
d="M32 0q2 172 4.5 345t8.5 356h101v-701h-114zM68 853l-3 -96l-86 3l2 93h87zM190 863l10 -106l-88 -2l-5 98z" />
    <glyph glyph-name="eth" unicode="&#xf0;" horiz-adv-x="430" 
d="M89 2l6 323l-92 -4l1 107l92 -1l4 278l212 -13q26 -7 46 -25q17 -15 31 -41.5t13 -68.5q0 -21 -1.5 -54t-3 -72t-3 -82t-3.5 -85q-4 -98 -10 -208q-6 -17 -18 -30q-11 -11 -30 -20t-48 -8z" />
    <glyph glyph-name="ntilde" unicode="&#xf1;" horiz-adv-x="403" 
d="M41 0l-9 699l94 -4l138 -457l10 475l98 -12l-14 -709l-102 4l-128 417l15 -415zM27 787q0 1 8.5 13t20.5 26.5t26.5 27t27.5 13.5t27 -4.5t27.5 -13t25 -15t19.5 -11.5q7 -4 18.5 -8.5t23 -3t22 13t16.5 40.5l47 -32q-6 -33 -23.5 -50.5t-38 -25t-39.5 -8t-28 1.5
t-20 9.5t-22 16t-21 14t-16 4.5q-7 -2 -14.5 -8.5t-14.5 -13.5l-16 -18z" />
    <glyph glyph-name="ograve" unicode="&#xf2;" horiz-adv-x="392" 
d="M33 603q1 27 10 48q8 18 25 33.5t49 16.5t60.5 1t50.5 -1q26 -1 47 -2q24 -4 43 -15q16 -10 29.5 -29.5t13.5 -53.5v-48t-0.5 -71t-1 -85t-0.5 -89q-1 -104 -2 -225q0 -16 -5.5 -31t-15 -27t-23 -19.5t-29.5 -7.5q-20 -1 -49 -0.5t-57 1.5q-33 1 -67 1q-48 8 -64.5 39.5
t-14.5 77.5zM121 912l159 -104l-15 -62l-164 49z" />
    <glyph glyph-name="oacute" unicode="&#xf3;" horiz-adv-x="392" 
d="M33 603q1 27 10 48q8 18 25 33.5t49 16.5t60.5 1t50.5 -1q26 -1 47 -2q24 -4 43 -15q16 -10 29.5 -29.5t13.5 -53.5v-48t-0.5 -71t-1 -85t-0.5 -89q-1 -104 -2 -225q0 -16 -5.5 -31t-15 -27t-23 -19.5t-29.5 -7.5q-20 -1 -49 -0.5t-57 1.5q-33 1 -67 1q-48 8 -64.5 39.5
t-14.5 77.5zM122 746l-18 51l123 112l55 -93z" />
    <glyph glyph-name="ocircumflex" unicode="&#xf4;" horiz-adv-x="392" 
d="M33 603q1 27 10 48q8 18 25 33.5t49 16.5t60.5 1t50.5 -1q26 -1 47 -2q24 -4 43 -15q16 -10 29.5 -29.5t13.5 -53.5v-48t-0.5 -71t-1 -85t-0.5 -89q-1 -104 -2 -225q0 -16 -5.5 -31t-15 -27t-23 -19.5t-29.5 -7.5q-20 -1 -49 -0.5t-57 1.5q-33 1 -67 1q-48 8 -64.5 39.5
t-14.5 77.5zM175 921l155 -105l-24 -71l-114 71l-99 -71l-51 56z" />
    <glyph glyph-name="otilde" unicode="&#xf5;" horiz-adv-x="392" 
d="M33 603q1 27 10 48q8 18 25 33.5t49 16.5t60.5 1t50.5 -1q26 -1 47 -2q24 -4 43 -15q16 -10 29.5 -29.5t13.5 -53.5v-48t-0.5 -71t-1 -85t-0.5 -89q-1 -104 -2 -225q0 -16 -5.5 -31t-15 -27t-23 -19.5t-29.5 -7.5q-20 -1 -49 -0.5t-57 1.5q-33 1 -67 1q-48 8 -64.5 39.5
t-14.5 77.5zM27 787q0 1 8.5 13t20.5 26.5t26.5 27t27.5 13.5t27 -4.5t27.5 -13t25 -15t19.5 -11.5q7 -4 18.5 -8.5t23 -3t22 13t16.5 40.5l47 -32q-6 -33 -23.5 -50.5t-38 -25t-39.5 -8t-28 1.5t-20 9.5t-22 16t-21 14t-16 4.5q-7 -2 -14.5 -8.5t-14.5 -13.5l-16 -18z" />
    <glyph glyph-name="odieresis" unicode="&#xf6;" horiz-adv-x="392" 
d="M33 603q1 27 10 48q8 18 25 33.5t49 16.5t60.5 1t50.5 -1q26 -1 47 -2q24 -4 43 -15q16 -10 29.5 -29.5t13.5 -53.5v-48t-0.5 -71t-1 -85t-0.5 -89q-1 -104 -2 -225q0 -16 -5.5 -31t-15 -27t-23 -19.5t-29.5 -7.5q-20 -1 -49 -0.5t-57 1.5q-33 1 -67 1q-48 8 -64.5 39.5
t-14.5 77.5zM157 839l-3 -96l-86 3l2 93h87zM279 849l10 -106l-88 -2l-5 98z" />
    <glyph glyph-name="oslash" unicode="&#xf8;" horiz-adv-x="392" 
d="M353 643q8 -19 8 -42v-48t-0.5 -71t-1 -85t-0.5 -89q-1 -104 -2 -225q0 -16 -5.5 -31t-15 -27t-23 -19.5t-29.5 -7.5q-20 -1 -49 -0.5t-57 1.5q-33 1 -67 1q-19 3 -32 9l-48 -64l-64 42l69 80q-2 11 -3.5 23.5t-0.5 26.5l1 486q1 27 10 48q8 18 25 33.5t49 16.5t60.5 1
t50.5 -1q26 -1 47 -2q3 0 7 -1q3 -1 7.5 -2t9.5 -3l37 71l64 -40z" />
    <glyph glyph-name="ugrave" unicode="&#xf9;" horiz-adv-x="382" 
d="M43 699q-3 1 11 2.5t31 3.5q20 2 48 4q0 -147 1 -267v-101t0.5 -92t0.5 -71v-38q0 -18 1.5 -29t7.5 -17.5t18.5 -8.5t33.5 -2t32 9t16 20q5 13 6 30l8 567l86 4q1 -147 3 -271q1 -53 1.5 -106t1.5 -99.5t1.5 -82.5t0.5 -54q1 -36 -14 -56.5t-34 -31.5q-22 -12 -50 -16
q-13 0 -33 1q-17 1 -43.5 1t-63.5 2q-35 1 -51 17.5t-21.5 36.5t-5 38.5t0.5 23.5q4 163 6 291q1 54 1.5 106.5t0.5 93.5t-0.5 66.5t-1.5 25.5zM121 912l159 -104l-15 -62l-164 49z" />
    <glyph glyph-name="uacute" unicode="&#xfa;" horiz-adv-x="382" 
d="M43 699q1 0 1.5 -25.5t0.5 -66.5t-0.5 -93.5t-1.5 -106.5q-2 -128 -6 -291q0 -5 -0.5 -23.5t5 -38.5t21.5 -36.5t51 -17.5q37 -2 63.5 -2t43.5 -1q20 -1 33 -1q28 4 50 16q19 11 34 31.5t14 56.5q0 18 -0.5 54t-1.5 82.5t-1.5 99.5t-1.5 106q-2 124 -3 271l-86 -4
l-8 -567q-1 -17 -6 -30q-5 -11 -16 -20t-32 -9t-33.5 2t-18.5 8.5t-7.5 17.5t-1.5 29v38t-0.5 71t-0.5 92v101q-1 120 -1 267q-28 -2 -48 -4q-17 -2 -31 -3.5t-11 -2.5zM122 746l-18 51l123 112l55 -93z" />
    <glyph glyph-name="ucircumflex" unicode="&#xfb;" horiz-adv-x="382" 
d="M43 699q1 0 1.5 -25.5t0.5 -66.5t-0.5 -93.5t-1.5 -106.5q-2 -128 -6 -291q0 -5 -0.5 -23.5t5 -38.5t21.5 -36.5t51 -17.5q37 -2 63.5 -2t43.5 -1q20 -1 33 -1q28 4 50 16q19 11 34 31.5t14 56.5q0 18 -0.5 54t-1.5 82.5t-1.5 99.5t-1.5 106q-2 124 -3 271l-86 -4
l-8 -567q-1 -17 -6 -30q-5 -11 -16 -20t-32 -9t-33.5 2t-18.5 8.5t-7.5 17.5t-1.5 29v38t-0.5 71t-0.5 92v101q-1 120 -1 267q-28 -2 -48 -4q-17 -2 -31 -3.5t-11 -2.5zM175 921l155 -105l-24 -71l-114 71l-99 -71l-51 56z" />
    <glyph glyph-name="udieresis" unicode="&#xfc;" horiz-adv-x="382" 
d="M43 699q-3 1 11 2.5t31 3.5q20 2 48 4q0 -147 1 -267v-101t0.5 -92t0.5 -71v-38q0 -18 1.5 -29t7.5 -17.5t18.5 -8.5t33.5 -2t32 9t16 20q5 13 6 30l8 567l86 4q1 -147 3 -271q1 -53 1.5 -106t1.5 -99.5t1.5 -82.5t0.5 -54q1 -36 -14 -56.5t-34 -31.5q-22 -12 -50 -16
q-13 0 -33 1q-17 1 -43.5 1t-63.5 2q-35 1 -51 17.5t-21.5 36.5t-5 38.5t0.5 23.5q4 163 6 291q1 54 1.5 106.5t0.5 93.5t-0.5 66.5t-1.5 25.5zM157 839l-3 -96l-86 3l2 93h87zM279 849l10 -106l-88 -2l-5 98z" />
    <glyph glyph-name="yacute" unicode="&#xfd;" horiz-adv-x="324" 
d="M8 697l79 14l70 -241l82 229l80 -9l-60 -194q-11 -36 -22 -71t-19 -63t-13 -45l-5 -17v-13.5t-0.5 -35.5t-0.5 -49.5v-55.5q-1 -67 -1 -152l-82 1l-6 321zM122 746l-18 51l123 112l55 -93z" />
    <glyph glyph-name="thorn" unicode="&#xfe;" horiz-adv-x="339" 
d="M25 699l89 4l5 -137q36 3 71.5 2t64.5 -10.5t48 -29.5t23 -55q12 -115 0 -229q-3 -31 -25.5 -54t-52 -38t-61.5 -22.5t-55 -6.5l1 -123h-84z" />
    <glyph glyph-name="ydieresis" unicode="&#xff;" horiz-adv-x="324" 
d="M8 697l79 14l70 -241l82 229l80 -9l-60 -194q-11 -36 -22 -71t-19 -63t-13 -45l-5 -17v-13.5t-0.5 -35.5t-0.5 -49.5v-55.5q-1 -67 -1 -152l-82 1l-6 321zM157 839l-3 -96l-86 3l2 93h87zM279 849l10 -106l-88 -2l-5 98z" />
    <glyph glyph-name="Amacron" unicode="&#x100;" 
d="M87 699h45h52t50 -1t40 -2l83 -696h-86q-3 24 -7.5 59.5t-9 72.5t-9.5 71t-11 54l-86 13q-14 -57 -19.5 -126.5t-16.5 -143.5h-86zM50 831l245 6v-94l-244 1z" />
    <glyph glyph-name="amacron" unicode="&#x101;" 
d="M87 699h45h52t50 -1t40 -2l83 -696h-86q-3 24 -7.5 59.5t-9 72.5t-9.5 71t-11 54l-86 13q-14 -57 -19.5 -126.5t-16.5 -143.5h-86zM50 831l245 6v-94l-244 1z" />
    <glyph glyph-name="Abreve" unicode="&#x102;" 
d="M26 0h86q11 74 16.5 143.5t19.5 126.5l86 -13q6 -20 11 -54t9.5 -71t9 -72.5t7.5 -59.5h86l-83 696q-16 1 -40 2t-50 1h-52h-45zM175 745l-155 105l24 71l114 -71l99 71l51 -56z" />
    <glyph glyph-name="abreve" unicode="&#x103;" 
d="M26 0h86q11 74 16.5 143.5t19.5 126.5l86 -13q6 -20 11 -54t9.5 -71t9 -72.5t7.5 -59.5h86l-83 696q-16 1 -40 2t-50 1h-52h-45zM175 745l-155 105l24 71l114 -71l99 71l51 -56z" />
    <glyph glyph-name="Aogonek" unicode="&#x104;" 
d="M329 -131q-20 2 -37 12.5t-29 25.5t-19 31.5t-7 30.5q-1 14 4 26.5t10 23.5q6 12 15 23q-3 26 -6.5 57t-8 60.5t-9 55t-8.5 42.5l-86 13q-14 -57 -19.5 -126.5t-16.5 -143.5h-86l61 699h45h52t50 -1t40 -2l80 -670q-8 -3 -14 -8q-5 -5 -10.5 -12.5t-7.5 -19.5
q-2 -13 3 -21t12 -13q8 -6 19 -10z" />
    <glyph glyph-name="aogonek" unicode="&#x105;" 
d="M329 -131q-20 2 -37 12.5t-29 25.5t-19 31.5t-7 30.5q-1 14 4 26.5t10 23.5q6 12 15 23q-3 26 -6.5 57t-8 60.5t-9 55t-8.5 42.5l-86 13q-14 -57 -19.5 -126.5t-16.5 -143.5h-86l61 699h45h52t50 -1t40 -2l80 -670q-8 -3 -14 -8q-5 -5 -10.5 -12.5t-7.5 -19.5
q-2 -13 3 -21t12 -13q8 -6 19 -10z" />
    <glyph glyph-name="Cacute" unicode="&#x106;" 
d="M335 593l-165 -20q-13 -1 -24 -9q-9 -7 -17 -21t-10 -40q-1 -17 -1.5 -50.5t-0.5 -74t0.5 -84t1.5 -80t3.5 -62t5.5 -31.5q5 -8 9.5 -14.5t11.5 -11t18.5 -7t29.5 -2.5t44.5 2t50.5 4q28 3 58 7l6 -84l-176 -16q-136 -12 -148 118l12 477q1 15 10 29q8 11 24 23t45 19
t63 13t65 11t55 8t34 3zM129 722l-18 51l123 112l55 -93z" />
    <glyph glyph-name="cacute" unicode="&#x107;" 
d="M335 593l-165 -20q-13 -1 -24 -9q-9 -7 -17 -21t-10 -40q-1 -17 -1.5 -50.5t-0.5 -74t0.5 -84t1.5 -80t3.5 -62t5.5 -31.5q5 -8 9.5 -14.5t11.5 -11t18.5 -7t29.5 -2.5t44.5 2t50.5 4q28 3 58 7l6 -84l-176 -16q-136 -12 -148 118l12 477q1 15 10 29q8 11 24 23t45 19
t63 13t65 11t55 8t34 3zM129 722l-18 51l123 112l55 -93z" />
    <glyph glyph-name="Ccircumflex" unicode="&#x108;" 
d="M335 593l-165 -20q-13 -1 -24 -9q-9 -7 -17 -21t-10 -40q-1 -17 -1.5 -50.5t-0.5 -74t0.5 -84t1.5 -80t3.5 -62t5.5 -31.5q5 -8 9.5 -14.5t11.5 -11t18.5 -7t29.5 -2.5t44.5 2t50.5 4q28 3 58 7l6 -84l-176 -16q-136 -12 -148 118l12 477q1 15 10 29q8 11 24 23t45 19
t63 13t65 11t55 8t34 3zM181 913l155 -105l-24 -71l-114 71l-99 -71l-51 56z" />
    <glyph glyph-name="ccircumflex" unicode="&#x109;" 
d="M335 593l-165 -20q-13 -1 -24 -9q-9 -7 -17 -21t-10 -40q-1 -17 -1.5 -50.5t-0.5 -74t0.5 -84t1.5 -80t3.5 -62t5.5 -31.5q5 -8 9.5 -14.5t11.5 -11t18.5 -7t29.5 -2.5t44.5 2t50.5 4q28 3 58 7l6 -84l-176 -16q-136 -12 -148 118l12 477q1 15 10 29q8 11 24 23t45 19
t63 13t65 11t55 8t34 3zM181 913l155 -105l-24 -71l-114 71l-99 -71l-51 56z" />
    <glyph glyph-name="Cdotaccent" unicode="&#x10a;" 
d="M335 593l-165 -20q-13 -1 -24 -9q-9 -7 -17 -21t-10 -40q-1 -17 -1.5 -50.5t-0.5 -74t0.5 -84t1.5 -80t3.5 -62t5.5 -31.5q5 -8 9.5 -14.5t11.5 -11t18.5 -7t29.5 -2.5t44.5 2t50.5 4q28 3 58 7l6 -84l-176 -16q-136 -12 -148 118l12 477q1 15 10 29q8 11 24 23t45 19
t63 13t65 11t55 8t34 3zM140 782q0 23 16 39.5t39 16.5t39.5 -16.5t16.5 -39.5t-16.5 -39t-39.5 -16t-39 16t-16 39z" />
    <glyph glyph-name="cdotaccent" unicode="&#x10b;" 
d="M335 593l-165 -20q-13 -1 -24 -9q-9 -7 -17 -21t-10 -40q-1 -17 -1.5 -50.5t-0.5 -74t0.5 -84t1.5 -80t3.5 -62t5.5 -31.5q5 -8 9.5 -14.5t11.5 -11t18.5 -7t29.5 -2.5t44.5 2t50.5 4q28 3 58 7l6 -84l-176 -16q-136 -12 -148 118l12 477q1 15 10 29q8 11 24 23t45 19
t63 13t65 11t55 8t34 3zM140 782q0 23 16 39.5t39 16.5t39.5 -16.5t16.5 -39.5t-16.5 -39t-39.5 -16t-39 16t-16 39z" />
    <glyph glyph-name="Ccaron" unicode="&#x10c;" 
d="M335 593l-165 -20q-13 -1 -24 -9q-9 -7 -17 -21t-10 -40q-1 -17 -1.5 -50.5t-0.5 -74t0.5 -84t1.5 -80t3.5 -62t5.5 -31.5q5 -8 9.5 -14.5t11.5 -11t18.5 -7t29.5 -2.5t44.5 2t50.5 4q28 3 58 7l6 -84l-176 -16q-136 -12 -148 118l12 477q1 15 10 29q8 11 24 23t45 19
t63 13t65 11t55 8t34 3zM190 715l-155 105l24 71l114 -71l99 71l51 -56z" />
    <glyph glyph-name="ccaron" unicode="&#x10d;" 
d="M335 593l-165 -20q-13 -1 -24 -9q-9 -7 -17 -21t-10 -40q-1 -17 -1.5 -50.5t-0.5 -74t0.5 -84t1.5 -80t3.5 -62t5.5 -31.5q5 -8 9.5 -14.5t11.5 -11t18.5 -7t29.5 -2.5t44.5 2t50.5 4q28 3 58 7l6 -84l-176 -16q-136 -12 -148 118l12 477q1 15 10 29q8 11 24 23t45 19
t63 13t65 11t55 8t34 3zM190 715l-155 105l24 71l114 -71l99 71l51 -56z" />
    <glyph glyph-name="Dcaron" unicode="&#x10e;" horiz-adv-x="383" 
d="M37 2l11 703l212 -13q26 -7 46 -25q17 -15 31 -41.5t13 -68.5q0 -21 -1.5 -54t-3 -72t-3 -82t-3.5 -85q-4 -98 -10 -208q-6 -17 -18 -30q-11 -11 -30 -20t-48 -8zM175 745l-155 105l24 71l114 -71l99 71l51 -56z" />
    <glyph glyph-name="dcaron" unicode="&#x10f;" horiz-adv-x="383" 
d="M37 2l11 703l212 -13q26 -7 46 -25q17 -15 31 -41.5t13 -68.5q0 -21 -1.5 -54t-3 -72t-3 -82t-3.5 -85q-4 -98 -10 -208q-6 -17 -18 -30q-11 -11 -30 -20t-48 -8zM175 745l-155 105l24 71l114 -71l99 71l51 -56z" />
    <glyph glyph-name="Dcroat" unicode="&#x110;" horiz-adv-x="430" 
d="M89 2l6 323l-92 -4l1 107l92 -1l4 278l212 -13q26 -7 46 -25q17 -15 31 -41.5t13 -68.5q0 -21 -1.5 -54t-3 -72t-3 -82t-3.5 -85q-4 -98 -10 -208q-6 -17 -18 -30q-11 -11 -30 -20t-48 -8z" />
    <glyph glyph-name="dcroat" unicode="&#x111;" horiz-adv-x="430" 
d="M89 2l6 323l-92 -4l1 107l92 -1l4 278l212 -13q26 -7 46 -25q17 -15 31 -41.5t13 -68.5q0 -21 -1.5 -54t-3 -72t-3 -82t-3.5 -85q-4 -98 -10 -208q-6 -17 -18 -30q-11 -11 -30 -20t-48 -8z" />
    <glyph glyph-name="Emacron" unicode="&#x112;" horiz-adv-x="365" 
d="M35 700q75 4 157 2t157 -2v-75h-225q-2 -25 -0.5 -71t3.5 -93.5t5 -86t4 -49.5h188v-75l-188 -25v-12q0 -29 4.5 -69t5.5 -69h203v-75h-300zM70 831l245 6v-94l-244 1z" />
    <glyph glyph-name="emacron" unicode="&#x113;" horiz-adv-x="365" 
d="M35 700q75 4 157 2t157 -2v-75h-225q-2 -25 -0.5 -71t3.5 -93.5t5 -86t4 -49.5h188v-75l-188 -25v-12q0 -29 4.5 -69t5.5 -69h203v-75h-300zM70 831l245 6v-94l-244 1z" />
    <glyph glyph-name="Edotaccent" unicode="&#x116;" horiz-adv-x="365" 
d="M35 700q75 4 157 2t157 -2v-75h-225q-2 -25 -0.5 -71t3.5 -93.5t5 -86t4 -49.5h188v-75l-188 -25v-12q0 -29 4.5 -69t5.5 -69h203v-75h-300zM135 795q0 23 16 39.5t39 16.5t39.5 -16.5t16.5 -39.5t-16.5 -39t-39.5 -16t-39 16t-16 39z" />
    <glyph glyph-name="edotaccent" unicode="&#x117;" horiz-adv-x="365" 
d="M35 700q75 4 157 2t157 -2v-75h-225q-2 -25 -0.5 -71t3.5 -93.5t5 -86t4 -49.5h188v-75l-188 -25v-12q0 -29 4.5 -69t5.5 -69h203v-75h-300zM135 795q0 23 16 39.5t39 16.5t39.5 -16.5t16.5 -39.5t-16.5 -39t-39.5 -16t-39 16t-16 39z" />
    <glyph glyph-name="Eogonek" unicode="&#x118;" horiz-adv-x="365" 
d="M349 0q-8 -3 -14 -8q-5 -5 -10.5 -12.5t-7.5 -19.5q-2 -13 3 -21t12 -13q8 -6 19 -10l-27 -73q-20 2 -37 12.5t-29 25.5t-19 31.5t-7 30.5q-1 17 5.5 31.5t13.5 25.5h-202l-14 700q75 4 157 2t157 -2v-75h-225q-2 -25 -0.5 -71t3.5 -93.5t5 -86t4 -49.5h188v-75l-188 -25
v-12q0 -29 4.5 -69t5.5 -69h203v-75z" />
    <glyph glyph-name="eogonek" unicode="&#x119;" horiz-adv-x="365" 
d="M349 0q-8 -3 -14 -8q-5 -5 -10.5 -12.5t-7.5 -19.5q-2 -13 3 -21t12 -13q8 -6 19 -10l-27 -73q-20 2 -37 12.5t-29 25.5t-19 31.5t-7 30.5q-1 17 5.5 31.5t13.5 25.5h-202l-14 700q75 4 157 2t157 -2v-75h-225q-2 -25 -0.5 -71t3.5 -93.5t5 -86t4 -49.5h188v-75l-188 -25
v-12q0 -29 4.5 -69t5.5 -69h203v-75z" />
    <glyph glyph-name="Ecaron" unicode="&#x11a;" horiz-adv-x="365" 
d="M49 0h300v75h-203q-1 29 -5.5 69t-4.5 69v12l188 25v75h-188q-1 11 -4 49.5t-5 86t-3.5 93.5t0.5 71h225v75q-75 0 -157 2t-157 -2zM175 745l-155 105l24 71l114 -71l99 71l51 -56z" />
    <glyph glyph-name="ecaron" unicode="&#x11b;" horiz-adv-x="365" 
d="M49 0h300v75h-203q-1 29 -5.5 69t-4.5 69v12l188 25v75h-188q-1 11 -4 49.5t-5 86t-3.5 93.5t0.5 71h225v75q-75 0 -157 2t-157 -2zM175 745l-155 105l24 71l114 -71l99 71l51 -56z" />
    <glyph glyph-name="Gcircumflex" unicode="&#x11c;" horiz-adv-x="376" 
d="M96 0q28 -5 61 -5.5t66 2t64.5 7t58.5 9.5v12q0 9 -1 32.5t-2 53.5t-3 63t-3 63t-2 53t-1 33q-9 4 -26.5 8t-37.5 6t-40 2.5t-34 -1.5q-3 -5 -5 -15.5t-3.5 -22t-2.5 -22.5t-1 -15q7 -3 18 -4.5t22.5 -4t20.5 -6t14 -10.5v-138q-16 -11 -38 -17.5t-42.5 -5t-37 12.5
t-20.5 35q-9 47 -12 97.5t-2 102.5t5 102.5t9 97.5q0 19 9.5 33t28.5 17q9 1 34 5.5t53 8.5t53.5 7.5t34.5 3.5v100q-13 0 -37.5 -1.5t-55 -5.5t-63 -10t-60.5 -14t-47.5 -19t-24.5 -25q-3 -9 -5.5 -36t-4 -57.5t-2 -57.5t-0.5 -36v-313q0 -25 2 -46.5t8.5 -37.5t18.5 -26.5
t33 -14.5zM166 910l155 -105l-24 -71l-114 71l-99 -71l-51 56z" />
    <glyph glyph-name="gcircumflex" unicode="&#x11d;" horiz-adv-x="376" 
d="M96 0q28 -5 61 -5.5t66 2t64.5 7t58.5 9.5v12q0 9 -1 32.5t-2 53.5t-3 63t-3 63t-2 53t-1 33q-9 4 -26.5 8t-37.5 6t-40 2.5t-34 -1.5q-3 -5 -5 -15.5t-3.5 -22t-2.5 -22.5t-1 -15q7 -3 18 -4.5t22.5 -4t20.5 -6t14 -10.5v-138q-16 -11 -38 -17.5t-42.5 -5t-37 12.5
t-20.5 35q-9 47 -12 97.5t-2 102.5t5 102.5t9 97.5q0 19 9.5 33t28.5 17q9 1 34 5.5t53 8.5t53.5 7.5t34.5 3.5v100q-13 0 -37.5 -1.5t-55 -5.5t-63 -10t-60.5 -14t-47.5 -19t-24.5 -25q-3 -9 -5.5 -36t-4 -57.5t-2 -57.5t-0.5 -36v-313q0 -25 2 -46.5t8.5 -37.5t18.5 -26.5
t33 -14.5zM166 910l155 -105l-24 -71l-114 71l-99 -71l-51 56z" />
    <glyph glyph-name="Gbreve" unicode="&#x11e;" horiz-adv-x="376" 
d="M96 0q28 -5 61 -5.5t66 2t64.5 7t58.5 9.5v12q0 9 -1 32.5t-2 53.5t-3 63t-3 63t-2 53t-1 33q-9 4 -26.5 8t-37.5 6t-40 2.5t-34 -1.5q-3 -5 -5 -15.5t-3.5 -22t-2.5 -22.5t-1 -15q7 -3 18 -4.5t22.5 -4t20.5 -6t14 -10.5v-138q-16 -11 -38 -17.5t-42.5 -5t-37 12.5
t-20.5 35q-9 47 -12 97.5t-2 102.5t5 102.5t9 97.5q0 19 9.5 33t28.5 17q9 1 34 5.5t53 8.5t53.5 7.5t34.5 3.5v100q-13 0 -37.5 -1.5t-55 -5.5t-63 -10t-60.5 -14t-47.5 -19t-24.5 -25q-3 -9 -5.5 -36t-4 -57.5t-2 -57.5t-0.5 -36v-313q0 -25 2 -46.5t8.5 -37.5t18.5 -26.5
t33 -14.5zM185 729l-155 105l24 71l114 -71l99 71l51 -56z" />
    <glyph glyph-name="gbreve" unicode="&#x11f;" horiz-adv-x="376" 
d="M96 0q28 -5 61 -5.5t66 2t64.5 7t58.5 9.5v12q0 9 -1 32.5t-2 53.5t-3 63t-3 63t-2 53t-1 33q-9 4 -26.5 8t-37.5 6t-40 2.5t-34 -1.5q-3 -5 -5 -15.5t-3.5 -22t-2.5 -22.5t-1 -15q7 -3 18 -4.5t22.5 -4t20.5 -6t14 -10.5v-138q-16 -11 -38 -17.5t-42.5 -5t-37 12.5
t-20.5 35q-9 47 -12 97.5t-2 102.5t5 102.5t9 97.5q0 19 9.5 33t28.5 17q9 1 34 5.5t53 8.5t53.5 7.5t34.5 3.5v100q-13 0 -37.5 -1.5t-55 -5.5t-63 -10t-60.5 -14t-47.5 -19t-24.5 -25q-3 -9 -5.5 -36t-4 -57.5t-2 -57.5t-0.5 -36v-313q0 -25 2 -46.5t8.5 -37.5t18.5 -26.5
t33 -14.5zM185 729l-155 105l24 71l114 -71l99 71l51 -56z" />
    <glyph glyph-name="Gdotaccent" unicode="&#x120;" horiz-adv-x="376" 
d="M96 0q-21 4 -33 14.5t-18.5 26.5t-8.5 37.5t-2 46.5v313q0 9 0.5 36t2 57.5t4 57.5t5.5 36q5 14 24.5 25t47.5 19t60.5 14t63 10t55 5.5t37.5 1.5v-100q-9 0 -34.5 -3.5t-53.5 -7.5t-53 -8.5t-34 -5.5q-19 -3 -28.5 -17t-9.5 -33q-5 -47 -9 -97.5t-5 -102.5t2 -102.5
t12 -97.5q4 -24 20.5 -35t37 -12.5t42.5 5t38 17.5v138q-5 7 -14 10.5t-20.5 6t-22.5 4t-18 4.5q0 4 1 15t2.5 22.5t3.5 22t5 15.5q14 2 34 1.5t40 -2.5t37.5 -6t26.5 -8q0 -10 1 -33t2 -53t3 -63t3 -63t2 -53.5t1 -32.5v-12q-27 -5 -58.5 -9.5t-64.5 -7t-66 -2t-61 5.5z
M140 782q0 23 16 39.5t39 16.5t39.5 -16.5t16.5 -39.5t-16.5 -39t-39.5 -16t-39 16t-16 39z" />
    <glyph glyph-name="gdotaccent" unicode="&#x121;" horiz-adv-x="376" 
d="M96 0q-21 4 -33 14.5t-18.5 26.5t-8.5 37.5t-2 46.5v313q0 9 0.5 36t2 57.5t4 57.5t5.5 36q5 14 24.5 25t47.5 19t60.5 14t63 10t55 5.5t37.5 1.5v-100q-9 0 -34.5 -3.5t-53.5 -7.5t-53 -8.5t-34 -5.5q-19 -3 -28.5 -17t-9.5 -33q-5 -47 -9 -97.5t-5 -102.5t2 -102.5
t12 -97.5q4 -24 20.5 -35t37 -12.5t42.5 5t38 17.5v138q-5 7 -14 10.5t-20.5 6t-22.5 4t-18 4.5q0 4 1 15t2.5 22.5t3.5 22t5 15.5q14 2 34 1.5t40 -2.5t37.5 -6t26.5 -8q0 -10 1 -33t2 -53t3 -63t3 -63t2 -53.5t1 -32.5v-12q-27 -5 -58.5 -9.5t-64.5 -7t-66 -2t-61 5.5z
M140 782q0 23 16 39.5t39 16.5t39.5 -16.5t16.5 -39.5t-16.5 -39t-39.5 -16t-39 16t-16 39z" />
    <glyph glyph-name="Gcommaaccent" unicode="&#x122;" horiz-adv-x="376" 
d="M96 0q-21 4 -33 14.5t-18.5 26.5t-8.5 37.5t-2 46.5v313q0 9 0.5 36t2 57.5t4 57.5t5.5 36q5 14 24.5 25t47.5 19t60.5 14t63 10t55 5.5t37.5 1.5v-100q-9 0 -34.5 -3.5t-53.5 -7.5t-53 -8.5t-34 -5.5q-19 -3 -28.5 -17t-9.5 -33q-5 -47 -9 -97.5t-5 -102.5t2 -102.5
t12 -97.5q4 -24 20.5 -35t37 -12.5t42.5 5t38 17.5v138q-5 7 -14 10.5t-20.5 6t-22.5 4t-18 4.5q0 4 1 15t2.5 22.5t3.5 22t5 15.5q14 2 34 1.5t40 -2.5t37.5 -6t26.5 -8q0 -10 1 -33t2 -53t3 -63t3 -63t2 -53.5t1 -32.5v-12q-27 -5 -58.5 -9.5t-64.5 -7t-66 -2t-61 5.5z
M117 -154q11 25 20 49q8 20 14 43t7 40l92 -16q-2 -28 -7 -54q-5 -23 -12.5 -48t-21.5 -45z" />
    <glyph glyph-name="gcommaaccent" unicode="&#x123;" horiz-adv-x="376" 
d="M96 0q-21 4 -33 14.5t-18.5 26.5t-8.5 37.5t-2 46.5v313q0 9 0.5 36t2 57.5t4 57.5t5.5 36q5 14 24.5 25t47.5 19t60.5 14t63 10t55 5.5t37.5 1.5v-100q-9 0 -34.5 -3.5t-53.5 -7.5t-53 -8.5t-34 -5.5q-19 -3 -28.5 -17t-9.5 -33q-5 -47 -9 -97.5t-5 -102.5t2 -102.5
t12 -97.5q4 -24 20.5 -35t37 -12.5t42.5 5t38 17.5v138q-5 7 -14 10.5t-20.5 6t-22.5 4t-18 4.5q0 4 1 15t2.5 22.5t3.5 22t5 15.5q14 2 34 1.5t40 -2.5t37.5 -6t26.5 -8q0 -10 1 -33t2 -53t3 -63t3 -63t2 -53.5t1 -32.5v-12q-27 -5 -58.5 -9.5t-64.5 -7t-66 -2t-61 5.5z
M117 -154q11 25 20 49q8 20 14 43t7 40l92 -16q-2 -28 -7 -54q-5 -23 -12.5 -48t-21.5 -45z" />
    <glyph glyph-name="Hcircumflex" unicode="&#x124;" horiz-adv-x="380" 
d="M53 -2q1 1 0.5 31t-2 79t-3.5 111.5t-4 127t-4 127t-3.5 111t-1.5 78t1 29.5q2 0 15 -0.5t27 -0.5q17 -1 37 -1l19 -338l106 -6l30 359h72l-2 -695l-83 -2l-21 256l-94 6l-6 -266q-25 -3 -43 -5q-16 -2 -29 -2.5t-11 1.5zM175 921l155 -105l-24 -71l-114 71l-99 -71
l-51 56z" />
    <glyph glyph-name="hcircumflex" unicode="&#x125;" horiz-adv-x="380" 
d="M53 -2q1 1 0.5 31t-2 79t-3.5 111.5t-4 127t-4 127t-3.5 111t-1.5 78t1 29.5q2 0 15 -0.5t27 -0.5q17 -1 37 -1l19 -338l106 -6l30 359h72l-2 -695l-83 -2l-21 256l-94 6l-6 -266q-25 -3 -43 -5q-16 -2 -29 -2.5t-11 1.5zM175 921l155 -105l-24 -71l-114 71l-99 -71
l-51 56z" />
    <glyph glyph-name="Hbar" unicode="&#x126;" horiz-adv-x="520" 
d="M10 568l83 3q-2 54 -2.5 87t1.5 33t15 -0.5t27 -0.5q17 -1 37 -1l6 -114l138 7l11 122h72l-1 -119l100 5l5 -82l-105 -7l-1 -492l-83 -2l-21 256l-94 6l-6 -266q-25 -3 -43 -5q-16 -2 -29 -2.5t-11 1.5v22t-1 59t-3 85.5t-3.5 102t-3.5 109t-3 106.5l-86 -5zM190 351
l106 -6l12 150l-126 -8z" />
    <glyph glyph-name="hbar" unicode="&#x127;" horiz-adv-x="520" 
d="M10 568l83 3q-2 54 -2.5 87t1.5 33t15 -0.5t27 -0.5q17 -1 37 -1l6 -114l138 7l11 122h72l-1 -119l100 5l5 -82l-105 -7l-1 -492l-83 -2l-21 256l-94 6l-6 -266q-25 -3 -43 -5q-16 -2 -29 -2.5t-11 1.5v22t-1 59t-3 85.5t-3.5 102t-3.5 109t-3 106.5l-86 -5zM190 351
l106 -6l12 150l-126 -8z" />
    <glyph glyph-name="imacron" unicode="&#x12b;" horiz-adv-x="186" 
d="M32 0q2 172 4.5 345t8.5 356h101v-701h-114zM-37 830l245 6v-94l-244 1z" />
    <glyph glyph-name="Iogonek" unicode="&#x12e;" horiz-adv-x="186" 
d="M146 0q-8 -3 -14 -8q-5 -5 -10.5 -12.5t-7.5 -19.5q-2 -13 3 -21t12 -13q8 -6 19 -10l-27 -73q-20 2 -37 12.5t-29 25.5t-19 31.5t-7 30.5q-1 16 5.5 31t12.5 26h-15q2 172 4.5 345t8.5 356h101v-701z" />
    <glyph glyph-name="iogonek" unicode="&#x12f;" horiz-adv-x="186" 
d="M146 0q-8 -3 -14 -8q-5 -5 -10.5 -12.5t-7.5 -19.5q-2 -13 3 -21t12 -13q8 -6 19 -10l-27 -73q-20 2 -37 12.5t-29 25.5t-19 31.5t-7 30.5q-1 16 5.5 31t12.5 26h-15q2 172 4.5 345t8.5 356h101v-701z" />
    <glyph glyph-name="Idotaccent" unicode="&#x130;" horiz-adv-x="186" 
d="M32 0q2 172 4.5 345t8.5 356h101v-701h-114zM37 800q0 23 16 39.5t39 16.5t39.5 -16.5t16.5 -39.5t-16.5 -39t-39.5 -16t-39 16t-16 39z" />
    <glyph glyph-name="dotlessi" unicode="&#x131;" horiz-adv-x="186" 
d="M32 0q2 172 4.5 345t8.5 356h101v-701h-114z" />
    <glyph glyph-name="Jcircumflex" unicode="&#x134;" horiz-adv-x="335" 
d="M182 697l13 -536q-1 -24 -10 -42q-8 -15 -23.5 -26.5t-44.5 -6.5t-51 6t-36 1q-17 0 -29 -1l4 -86l152 -10q37 0 67 16q26 13 48.5 42.5t26.5 85.5q2 28 1.5 66.5t-2 83t-4 92.5t-5.5 93q-7 106 -17 224zM204 909l155 -105l-24 -71l-114 71l-99 -71l-51 56z" />
    <glyph glyph-name="jcircumflex" unicode="&#x135;" horiz-adv-x="335" 
d="M182 697l13 -536q-1 -24 -10 -42q-8 -15 -23.5 -26.5t-44.5 -6.5t-51 6t-36 1q-17 0 -29 -1l4 -86l152 -10q37 0 67 16q26 13 48.5 42.5t26.5 85.5q2 28 1.5 66.5t-2 83t-4 92.5t-5.5 93q-7 106 -17 224zM204 909l155 -105l-24 -71l-114 71l-99 -71l-51 56z" />
    <glyph glyph-name="Kcommaaccent" unicode="&#x136;" horiz-adv-x="384" 
d="M122 713l4 -300l181 294l57 -69l-180 -288l165 -292l-79 -62l-138 302l-2 -304h-88l-8 703zM117 -154q11 25 20 49q8 20 14 43t7 40l92 -16q-2 -28 -7 -54q-5 -23 -12.5 -48t-21.5 -45z" />
    <glyph glyph-name="kcommaaccent" unicode="&#x137;" horiz-adv-x="384" 
d="M122 713l4 -300l181 294l57 -69l-180 -288l165 -292l-79 -62l-138 302l-2 -304h-88l-8 703zM117 -154q11 25 20 49q8 20 14 43t7 40l92 -16q-2 -28 -7 -54q-5 -23 -12.5 -48t-21.5 -45z" />
    <glyph glyph-name="Lacute" unicode="&#x139;" horiz-adv-x="341" 
d="M340 0v22.5t-0.5 25t-1.5 23.5t-2 19h-199v611h-90q-5 -183 -9.5 -357.5t-2.5 -343.5h305zM46 741l-18 51l123 112l55 -93z" />
    <glyph glyph-name="lacute" unicode="&#x13a;" horiz-adv-x="341" 
d="M340 0v22.5t-0.5 25t-1.5 23.5t-2 19h-199v611h-90q-5 -183 -9.5 -357.5t-2.5 -343.5h305zM46 741l-18 51l123 112l55 -93z" />
    <glyph glyph-name="Lcommaaccent" unicode="&#x13b;" horiz-adv-x="341" 
d="M35 0q-2 169 2.5 343.5t9.5 357.5h90v-611h199q1 -8 2 -19t1.5 -23.5t0.5 -25v-22.5h-305zM117 -154q11 25 20 49q8 20 14 43t7 40l92 -16q-2 -28 -7 -54q-5 -23 -12.5 -48t-21.5 -45z" />
    <glyph glyph-name="lcommaaccent" unicode="&#x13c;" horiz-adv-x="341" 
d="M35 0q-2 169 2.5 343.5t9.5 357.5h90v-611h199q1 -8 2 -19t1.5 -23.5t0.5 -25v-22.5h-305zM117 -154q11 25 20 49q8 20 14 43t7 40l92 -16q-2 -28 -7 -54q-5 -23 -12.5 -48t-21.5 -45z" />
    <glyph glyph-name="Lcaron" unicode="&#x13d;" horiz-adv-x="341" 
d="M35 0q-2 169 2.5 343.5t9.5 357.5h90v-611h199q1 -8 2 -19t1.5 -23.5t0.5 -25v-22.5h-305zM220 549q8 11 12.5 22.5t6.5 21.5q3 11 4 23l-47 1l-2 99l103 3v-101q-1 -23 -5 -43q-4 -18 -10.5 -36.5t-19.5 -32.5z" />
    <glyph glyph-name="lcaron" unicode="&#x13e;" horiz-adv-x="341" 
d="M35 0q-2 169 2.5 343.5t9.5 357.5h90v-611h199q1 -8 2 -19t1.5 -23.5t0.5 -25v-22.5h-305zM220 549q8 11 12.5 22.5t6.5 21.5q3 11 4 23l-47 1l-2 99l103 3v-101q-1 -23 -5 -43q-4 -18 -10.5 -36.5t-19.5 -32.5z" />
    <glyph glyph-name="Lslash" unicode="&#x141;" horiz-adv-x="449" 
d="M2 274q13 11 30 25q14 11 32.5 27t40.5 34q2 84 4.5 168.5t5.5 172.5h90v-260q29 24 56 46t48 39q25 19 46 37l35 -109l-185 -151v-213h199q1 -8 2 -19t1.5 -23.5t0.5 -25v-22.5h-305q-1 108 0 220l-55 -45z" />
    <glyph glyph-name="lslash" unicode="&#x142;" horiz-adv-x="449" 
d="M2 274q13 11 30 25q14 11 32.5 27t40.5 34q2 84 4.5 168.5t5.5 172.5h90v-260q29 24 56 46t48 39q25 19 46 37l35 -109l-185 -151v-213h199q1 -8 2 -19t1.5 -23.5t0.5 -25v-22.5h-305q-1 108 0 220l-55 -45z" />
    <glyph glyph-name="Nacute" unicode="&#x143;" horiz-adv-x="403" 
d="M41 0l-9 699l94 -4l138 -457l10 475l98 -12l-14 -709l-102 4l-128 417l15 -415zM115 734l-18 51l123 112l55 -93z" />
    <glyph glyph-name="nacute" unicode="&#x144;" horiz-adv-x="403" 
d="M41 0l-9 699l94 -4l138 -457l10 475l98 -12l-14 -709l-102 4l-128 417l15 -415zM115 734l-18 51l123 112l55 -93z" />
    <glyph glyph-name="Ncommaaccent" unicode="&#x145;" horiz-adv-x="403" 
d="M41 0l-9 699l94 -4l138 -457l10 475l98 -12l-14 -709l-102 4l-128 417l15 -415zM117 -154q11 25 20 49q8 20 14 43t7 40l92 -16q-2 -28 -7 -54q-5 -23 -12.5 -48t-21.5 -45z" />
    <glyph glyph-name="ncommaaccent" unicode="&#x146;" horiz-adv-x="403" 
d="M41 0l-9 699l94 -4l138 -457l10 475l98 -12l-14 -709l-102 4l-128 417l15 -415zM117 -154q11 25 20 49q8 20 14 43t7 40l92 -16q-2 -28 -7 -54q-5 -23 -12.5 -48t-21.5 -45z" />
    <glyph glyph-name="Ncaron" unicode="&#x147;" horiz-adv-x="403" 
d="M41 0l-9 699l94 -4l138 -457l10 475l98 -12l-14 -709l-102 4l-128 417l15 -415zM192 714l-155 105l24 71l114 -71l99 71l51 -56z" />
    <glyph glyph-name="ncaron" unicode="&#x148;" horiz-adv-x="403" 
d="M41 0l-9 699l94 -4l138 -457l10 475l98 -12l-14 -709l-102 4l-128 417l15 -415zM192 714l-155 105l24 71l114 -71l99 71l51 -56z" />
    <glyph glyph-name="Ohungarumlaut" unicode="&#x150;" horiz-adv-x="392" 
d="M258 746l-40 38l65 112l68 -45zM33 603q1 27 10 48q8 18 25 33.5t49 16.5t60.5 1t50.5 -1q26 -1 47 -2q24 -4 43 -15q16 -10 29.5 -29.5t13.5 -53.5v-48t-0.5 -71t-1 -85t-0.5 -89q-1 -104 -2 -225q0 -16 -5.5 -31t-15 -27t-23 -19.5t-29.5 -7.5q-20 -1 -49 -0.5t-57 1.5
q-33 1 -67 1q-48 8 -64.5 39.5t-14.5 77.5zM122 746l-40 38l65 112l68 -45z" />
    <glyph glyph-name="ohungarumlaut" unicode="&#x151;" horiz-adv-x="392" 
d="M258 746l-40 38l65 112l68 -45zM33 603q1 27 10 48q8 18 25 33.5t49 16.5t60.5 1t50.5 -1q26 -1 47 -2q24 -4 43 -15q16 -10 29.5 -29.5t13.5 -53.5v-48t-0.5 -71t-1 -85t-0.5 -89q-1 -104 -2 -225q0 -16 -5.5 -31t-15 -27t-23 -19.5t-29.5 -7.5q-20 -1 -49 -0.5t-57 1.5
q-33 1 -67 1q-48 8 -64.5 39.5t-14.5 77.5zM122 746l-40 38l65 112l68 -45z" />
    <glyph glyph-name="OE" unicode="&#x152;" horiz-adv-x="624" 
d="M587 700v-75h-225q-2 -25 -0.5 -71t3.5 -93.5t5 -86t4 -49.5h188v-75l-188 -25v-12q0 -29 4.5 -69t5.5 -69h203v-75q-134 -1 -223.5 -0.5t-146.5 0.5h-106q-48 8 -64.5 39.5t-14.5 77.5l1 486q1 27 10 48q8 18 25 33.5t49 16.5z" />
    <glyph glyph-name="oe" unicode="&#x153;" horiz-adv-x="624" 
d="M587 700v-75h-225q-2 -25 -0.5 -71t3.5 -93.5t5 -86t4 -49.5h188v-75l-188 -25v-12q0 -29 4.5 -69t5.5 -69h203v-75q-134 -1 -223.5 -0.5t-146.5 0.5h-106q-48 8 -64.5 39.5t-14.5 77.5l1 486q1 27 10 48q8 18 25 33.5t49 16.5z" />
    <glyph glyph-name="Racute" unicode="&#x154;" horiz-adv-x="359" 
d="M327 604q0 22 -12 40t-30 30t-38.5 18.5t-38.5 6.5h-41.5t-49.5 -0.5t-48 -1t-38 -1.5q-2 -34 -1 -89t3.5 -120.5t6 -136.5t6.5 -137t5.5 -122t2.5 -91h83v249l123 -263q5 2 16 5.5t23 7t22 7.5t14 8q-12 29 -25.5 61l-27 64t-26.5 63t-24 58q19 10 36 23.5t30 30t21 36
t8 41.5v213zM86 733l-18 51l123 112l55 -93z" />
    <glyph glyph-name="racute" unicode="&#x155;" horiz-adv-x="359" 
d="M327 604q0 22 -12 40t-30 30t-38.5 18.5t-38.5 6.5h-41.5t-49.5 -0.5t-48 -1t-38 -1.5q-2 -34 -1 -89t3.5 -120.5t6 -136.5t6.5 -137t5.5 -122t2.5 -91h83v249l123 -263q5 2 16 5.5t23 7t22 7.5t14 8q-12 29 -25.5 61l-27 64t-26.5 63t-24 58q19 10 36 23.5t30 30t21 36
t8 41.5v213zM86 733l-18 51l123 112l55 -93z" />
    <glyph glyph-name="Rcommaaccent" unicode="&#x156;" horiz-adv-x="359" 
d="M327 391q0 -22 -8 -41.5t-21 -36t-30 -30t-36 -23.5q11 -27 24 -58t26.5 -63l27 -64t25.5 -61q-4 -4 -14 -8t-22 -7.5t-23 -7t-16 -5.5l-123 263v-249h-83q0 35 -2.5 91t-5.5 122t-6.5 137t-6 136.5t-3.5 120.5t1 89q15 1 38 1.5t48 1t49.5 0.5h41.5q18 0 38.5 -6.5
t38.5 -18.5t30 -30t12 -40v-213zM117 -154q11 25 20 49q8 20 14 43t7 40l92 -16q-2 -28 -7 -54q-5 -23 -12.5 -48t-21.5 -45z" />
    <glyph glyph-name="rcommaaccent" unicode="&#x157;" horiz-adv-x="359" 
d="M327 391q0 -22 -8 -41.5t-21 -36t-30 -30t-36 -23.5q11 -27 24 -58t26.5 -63l27 -64t25.5 -61q-4 -4 -14 -8t-22 -7.5t-23 -7t-16 -5.5l-123 263v-249h-83q0 35 -2.5 91t-5.5 122t-6.5 137t-6 136.5t-3.5 120.5t1 89q15 1 38 1.5t48 1t49.5 0.5h41.5q18 0 38.5 -6.5
t38.5 -18.5t30 -30t12 -40v-213zM117 -154q11 25 20 49q8 20 14 43t7 40l92 -16q-2 -28 -7 -54q-5 -23 -12.5 -48t-21.5 -45z" />
    <glyph glyph-name="Rcaron" unicode="&#x158;" horiz-adv-x="359" 
d="M327 604q0 22 -12 40t-30 30t-38.5 18.5t-38.5 6.5h-41.5t-49.5 -0.5t-48 -1t-38 -1.5q-2 -34 -1 -89t3.5 -120.5t6 -136.5t6.5 -137t5.5 -122t2.5 -91h83v249l123 -263q5 2 16 5.5t23 7t22 7.5t14 8q-12 29 -25.5 61l-27 64t-26.5 63t-24 58q19 10 36 23.5t30 30t21 36
t8 41.5v213zM169 737l-155 105l24 71l114 -71l99 71l51 -56z" />
    <glyph glyph-name="rcaron" unicode="&#x159;" horiz-adv-x="359" 
d="M327 604q0 22 -12 40t-30 30t-38.5 18.5t-38.5 6.5h-41.5t-49.5 -0.5t-48 -1t-38 -1.5q-2 -34 -1 -89t3.5 -120.5t6 -136.5t6.5 -137t5.5 -122t2.5 -91h83v249l123 -263q5 2 16 5.5t23 7t22 7.5t14 8q-12 29 -25.5 61l-27 64t-26.5 63t-24 58q19 10 36 23.5t30 30t21 36
t8 41.5v213zM169 737l-155 105l24 71l114 -71l99 71l51 -56z" />
    <glyph glyph-name="Sacute" unicode="&#x15a;" horiz-adv-x="372" 
d="M32 2l-12 95l159 -10q22 2 40 8q15 5 28 16.5t15 31.5t1.5 36t-0.5 27q-1 13 -1 24q-1 15 -6 27q-5 10 -13.5 18.5t-25.5 8.5t-33.5 0.5t-29.5 2.5q-16 1 -29 3q-26 6 -45 21q-17 13 -31 36.5t-12 62.5q1 39 1.5 74t-0.5 62q-1 32 -2 59q-1 26 7 47q7 17 23 32t50 16
q33 1 70.5 2t69.5 3l74 4l2 -116l-146 5q-17 -2 -29 -9q-11 -6 -20 -18t-9 -33q-1 -21 -1 -41t-1 -36q-1 -18 -1 -34q-1 -13 3 -24q4 -9 13 -17t27 -10q21 -2 40.5 -2.5t33.5 -0.5q17 0 32 1q19 1 35 -9q14 -8 25 -28t11 -61t-0.5 -76.5t-1.5 -62.5q-1 -32 -1 -58
q-2 -20 -13 -36q-9 -14 -26.5 -25t-49.5 -12zM122 746l-18 51l123 112l55 -93z" />
    <glyph glyph-name="sacute" unicode="&#x15b;" horiz-adv-x="372" 
d="M32 2l-12 95l159 -10q22 2 40 8q15 5 28 16.5t15 31.5t1.5 36t-0.5 27q-1 13 -1 24q-1 15 -6 27q-5 10 -13.5 18.5t-25.5 8.5t-33.5 0.5t-29.5 2.5q-16 1 -29 3q-26 6 -45 21q-17 13 -31 36.5t-12 62.5q1 39 1.5 74t-0.5 62q-1 32 -2 59q-1 26 7 47q7 17 23 32t50 16
q33 1 70.5 2t69.5 3l74 4l2 -116l-146 5q-17 -2 -29 -9q-11 -6 -20 -18t-9 -33q-1 -21 -1 -41t-1 -36q-1 -18 -1 -34q-1 -13 3 -24q4 -9 13 -17t27 -10q21 -2 40.5 -2.5t33.5 -0.5q17 0 32 1q19 1 35 -9q14 -8 25 -28t11 -61t-0.5 -76.5t-1.5 -62.5q-1 -32 -1 -58
q-2 -20 -13 -36q-9 -14 -26.5 -25t-49.5 -12zM122 746l-18 51l123 112l55 -93z" />
    <glyph glyph-name="Scircumflex" unicode="&#x15c;" horiz-adv-x="372" 
d="M32 2l-12 95l159 -10q22 2 40 8q15 5 28 16.5t15 31.5t1.5 36t-0.5 27q-1 13 -1 24q-1 15 -6 27q-5 10 -13.5 18.5t-25.5 8.5t-33.5 0.5t-29.5 2.5q-16 1 -29 3q-26 6 -45 21q-17 13 -31 36.5t-12 62.5q1 39 1.5 74t-0.5 62q-1 32 -2 59q-1 26 7 47q7 17 23 32t50 16
q33 1 70.5 2t69.5 3l74 4l2 -116l-146 5q-17 -2 -29 -9q-11 -6 -20 -18t-9 -33q-1 -21 -1 -41t-1 -36q-1 -18 -1 -34q-1 -13 3 -24q4 -9 13 -17t27 -10q21 -2 40.5 -2.5t33.5 -0.5q17 0 32 1q19 1 35 -9q14 -8 25 -28t11 -61t-0.5 -76.5t-1.5 -62.5q-1 -32 -1 -58
q-2 -20 -13 -36q-9 -14 -26.5 -25t-49.5 -12zM167 917l155 -105l-24 -71l-114 71l-99 -71l-51 56z" />
    <glyph glyph-name="scircumflex" unicode="&#x15d;" horiz-adv-x="372" 
d="M32 2l-12 95l159 -10q22 2 40 8q15 5 28 16.5t15 31.5t1.5 36t-0.5 27q-1 13 -1 24q-1 15 -6 27q-5 10 -13.5 18.5t-25.5 8.5t-33.5 0.5t-29.5 2.5q-16 1 -29 3q-26 6 -45 21q-17 13 -31 36.5t-12 62.5q1 39 1.5 74t-0.5 62q-1 32 -2 59q-1 26 7 47q7 17 23 32t50 16
q33 1 70.5 2t69.5 3l74 4l2 -116l-146 5q-17 -2 -29 -9q-11 -6 -20 -18t-9 -33q-1 -21 -1 -41t-1 -36q-1 -18 -1 -34q-1 -13 3 -24q4 -9 13 -17t27 -10q21 -2 40.5 -2.5t33.5 -0.5q17 0 32 1q19 1 35 -9q14 -8 25 -28t11 -61t-0.5 -76.5t-1.5 -62.5q-1 -32 -1 -58
q-2 -20 -13 -36q-9 -14 -26.5 -25t-49.5 -12zM167 917l155 -105l-24 -71l-114 71l-99 -71l-51 56z" />
    <glyph glyph-name="Scedilla" unicode="&#x15e;" horiz-adv-x="372" 
d="M32 2l-12 95l159 -10q22 2 40 8q15 5 28 16.5t15 31.5t1.5 36t-0.5 27q-1 13 -1 24q-1 15 -6 27q-5 10 -13.5 18.5t-25.5 8.5t-33.5 0.5t-29.5 2.5q-16 1 -29 3q-26 6 -45 21q-17 13 -31 36.5t-12 62.5q1 39 1.5 74t-0.5 62q-1 32 -2 59q-1 26 7 47q7 17 23 32t50 16
q33 1 70.5 2t69.5 3l74 4l2 -116l-146 5q-17 -2 -29 -9q-11 -6 -20 -18t-9 -33q-1 -21 -1 -41t-1 -36q-1 -18 -1 -34q-1 -13 3 -24q4 -9 13 -17t27 -10q21 -2 40.5 -2.5t33.5 -0.5q17 0 32 1q19 1 35 -9q14 -8 25 -28t11 -61t-0.5 -76.5t-1.5 -62.5q-1 -32 -1 -58
q-2 -20 -13 -36q-9 -14 -26.5 -25t-49.5 -12h-19q-3 -31 -7 -58q-4 -23 -10.5 -48t-15.5 -40l-84 42q5 15 9 32q3 14 5.5 32.5t0.5 37.5z" />
    <glyph glyph-name="scedilla" unicode="&#x15f;" horiz-adv-x="372" 
d="M32 2l-12 95l159 -10q22 2 40 8q15 5 28 16.5t15 31.5t1.5 36t-0.5 27q-1 13 -1 24q-1 15 -6 27q-5 10 -13.5 18.5t-25.5 8.5t-33.5 0.5t-29.5 2.5q-16 1 -29 3q-26 6 -45 21q-17 13 -31 36.5t-12 62.5q1 39 1.5 74t-0.5 62q-1 32 -2 59q-1 26 7 47q7 17 23 32t50 16
q33 1 70.5 2t69.5 3l74 4l2 -116l-146 5q-17 -2 -29 -9q-11 -6 -20 -18t-9 -33q-1 -21 -1 -41t-1 -36q-1 -18 -1 -34q-1 -13 3 -24q4 -9 13 -17t27 -10q21 -2 40.5 -2.5t33.5 -0.5q17 0 32 1q19 1 35 -9q14 -8 25 -28t11 -61t-0.5 -76.5t-1.5 -62.5q-1 -32 -1 -58
q-2 -20 -13 -36q-9 -14 -26.5 -25t-49.5 -12h-19q-3 -31 -7 -58q-4 -23 -10.5 -48t-15.5 -40l-84 42q5 15 9 32q3 14 5.5 32.5t0.5 37.5z" />
    <glyph glyph-name="Scaron" unicode="&#x160;" horiz-adv-x="372" 
d="M32 2l-12 95l159 -10q22 2 40 8q15 5 28 16.5t15 31.5t1.5 36t-0.5 27q-1 13 -1 24q-1 15 -6 27q-5 10 -13.5 18.5t-25.5 8.5t-33.5 0.5t-29.5 2.5q-16 1 -29 3q-26 6 -45 21q-17 13 -31 36.5t-12 62.5q1 39 1.5 74t-0.5 62q-1 32 -2 59q-1 26 7 47q7 17 23 32t50 16
q33 1 70.5 2t69.5 3l74 4l2 -116l-146 5q-17 -2 -29 -9q-11 -6 -20 -18t-9 -33q-1 -21 -1 -41t-1 -36q-1 -18 -1 -34q-1 -13 3 -24q4 -9 13 -17t27 -10q21 -2 40.5 -2.5t33.5 -0.5q17 0 32 1q19 1 35 -9q14 -8 25 -28t11 -61t-0.5 -76.5t-1.5 -62.5q-1 -32 -1 -58
q-2 -20 -13 -36q-9 -14 -26.5 -25t-49.5 -12zM175 745l-155 105l24 71l114 -71l99 71l51 -56z" />
    <glyph glyph-name="scaron" unicode="&#x161;" horiz-adv-x="372" 
d="M32 2l-12 95l159 -10q22 2 40 8q15 5 28 16.5t15 31.5t1.5 36t-0.5 27q-1 13 -1 24q-1 15 -6 27q-5 10 -13.5 18.5t-25.5 8.5t-33.5 0.5t-29.5 2.5q-16 1 -29 3q-26 6 -45 21q-17 13 -31 36.5t-12 62.5q1 39 1.5 74t-0.5 62q-1 32 -2 59q-1 26 7 47q7 17 23 32t50 16
q33 1 70.5 2t69.5 3l74 4l2 -116l-146 5q-17 -2 -29 -9q-11 -6 -20 -18t-9 -33q-1 -21 -1 -41t-1 -36q-1 -18 -1 -34q-1 -13 3 -24q4 -9 13 -17t27 -10q21 -2 40.5 -2.5t33.5 -0.5q17 0 32 1q19 1 35 -9q14 -8 25 -28t11 -61t-0.5 -76.5t-1.5 -62.5q-1 -32 -1 -58
q-2 -20 -13 -36q-9 -14 -26.5 -25t-49.5 -12zM175 745l-155 105l24 71l114 -71l99 71l51 -56z" />
    <glyph glyph-name="Tcommaaccent" unicode="&#x162;" horiz-adv-x="374" 
d="M11 601v21v30t0.5 30.5t1.5 21.5l349 -6q1 -14 2 -27q1 -11 2 -23.5t1 -21.5v-13h-147q0 -157 6 -311t6 -303h-98v602h-123zM93 -156q11 25 20 49q8 20 14 43t7 40l92 -16q-2 -28 -7 -54q-5 -23 -12.5 -48t-21.5 -45z" />
    <glyph glyph-name="tcommaaccent" unicode="&#x163;" horiz-adv-x="374" 
d="M11 601v21v30t0.5 30.5t1.5 21.5l349 -6q1 -14 2 -27q1 -11 2 -23.5t1 -21.5v-13h-147q0 -157 6 -311t6 -303h-98v602h-123zM93 -156q11 25 20 49q8 20 14 43t7 40l92 -16q-2 -28 -7 -54q-5 -23 -12.5 -48t-21.5 -45z" />
    <glyph glyph-name="Tcaron" unicode="&#x164;" horiz-adv-x="374" 
d="M134 601v-602h98q0 149 -6 303t-6 311h147v13q0 9 -1 21.5t-2 23.5q-1 13 -2 27l-349 6q-1 -7 -1.5 -21.5t-0.5 -30.5v-30v-21h123zM169 737l-155 105l24 71l114 -71l99 71l51 -56z" />
    <glyph glyph-name="tcaron" unicode="&#x165;" horiz-adv-x="374" 
d="M134 601v-602h98q0 149 -6 303t-6 311h147v13q0 9 -1 21.5t-2 23.5q-1 13 -2 27l-349 6q-1 -7 -1.5 -21.5t-0.5 -30.5v-30v-21h123zM169 737l-155 105l24 71l114 -71l99 71l51 -56z" />
    <glyph glyph-name="Umacron" unicode="&#x16a;" horiz-adv-x="382" 
d="M43 699q-3 1 11 2.5t31 3.5q20 2 48 4q0 -147 1 -267v-101t0.5 -92t0.5 -71v-38q0 -18 1.5 -29t7.5 -17.5t18.5 -8.5t33.5 -2t32 9t16 20q5 13 6 30l8 567l86 4q1 -147 3 -271q1 -53 1.5 -106t1.5 -99.5t1.5 -82.5t0.5 -54q1 -36 -14 -56.5t-34 -31.5q-22 -12 -50 -16
q-13 0 -33 1q-17 1 -43.5 1t-63.5 2q-35 1 -51 17.5t-21.5 36.5t-5 38.5t0.5 23.5q4 163 6 291q1 54 1.5 106.5t0.5 93.5t-0.5 66.5t-1.5 25.5zM70 831l245 6v-94l-244 1z" />
    <glyph glyph-name="umacron" unicode="&#x16b;" horiz-adv-x="382" 
d="M43 699q-3 1 11 2.5t31 3.5q20 2 48 4q0 -147 1 -267v-101t0.5 -92t0.5 -71v-38q0 -18 1.5 -29t7.5 -17.5t18.5 -8.5t33.5 -2t32 9t16 20q5 13 6 30l8 567l86 4q1 -147 3 -271q1 -53 1.5 -106t1.5 -99.5t1.5 -82.5t0.5 -54q1 -36 -14 -56.5t-34 -31.5q-22 -12 -50 -16
q-13 0 -33 1q-17 1 -43.5 1t-63.5 2q-35 1 -51 17.5t-21.5 36.5t-5 38.5t0.5 23.5q4 163 6 291q1 54 1.5 106.5t0.5 93.5t-0.5 66.5t-1.5 25.5zM70 831l245 6v-94l-244 1z" />
    <glyph glyph-name="Ubreve" unicode="&#x16c;" horiz-adv-x="382" 
d="M43 699q1 0 1.5 -25.5t0.5 -66.5t-0.5 -93.5t-1.5 -106.5q-2 -128 -6 -291q0 -5 -0.5 -23.5t5 -38.5t21.5 -36.5t51 -17.5q37 -2 63.5 -2t43.5 -1q20 -1 33 -1q28 4 50 16q19 11 34 31.5t14 56.5q0 18 -0.5 54t-1.5 82.5t-1.5 99.5t-1.5 106q-2 124 -3 271l-86 -4
l-8 -567q-1 -17 -6 -30q-5 -11 -16 -20t-32 -9t-33.5 2t-18.5 8.5t-7.5 17.5t-1.5 29v38t-0.5 71t-0.5 92v101q-1 120 -1 267q-28 -2 -48 -4q-17 -2 -31 -3.5t-11 -2.5zM189 727l-155 105l24 71l114 -71l99 71l51 -56z" />
    <glyph glyph-name="ubreve" unicode="&#x16d;" horiz-adv-x="382" 
d="M43 699q1 0 1.5 -25.5t0.5 -66.5t-0.5 -93.5t-1.5 -106.5q-2 -128 -6 -291q0 -5 -0.5 -23.5t5 -38.5t21.5 -36.5t51 -17.5q37 -2 63.5 -2t43.5 -1q20 -1 33 -1q28 4 50 16q19 11 34 31.5t14 56.5q0 18 -0.5 54t-1.5 82.5t-1.5 99.5t-1.5 106q-2 124 -3 271l-86 -4
l-8 -567q-1 -17 -6 -30q-5 -11 -16 -20t-32 -9t-33.5 2t-18.5 8.5t-7.5 17.5t-1.5 29v38t-0.5 71t-0.5 92v101q-1 120 -1 267q-28 -2 -48 -4q-17 -2 -31 -3.5t-11 -2.5zM189 727l-155 105l24 71l114 -71l99 71l51 -56z" />
    <glyph glyph-name="Uring" unicode="&#x16e;" horiz-adv-x="382" 
d="M43 699q-3 1 11 2.5t31 3.5q20 2 48 4q0 -147 1 -267v-101t0.5 -92t0.5 -71v-38q0 -18 1.5 -29t7.5 -17.5t18.5 -8.5t33.5 -2t32 9t16 20q5 13 6 30l8 567l86 4q1 -147 3 -271q1 -53 1.5 -106t1.5 -99.5t1.5 -82.5t0.5 -54q1 -36 -14 -56.5t-34 -31.5q-22 -12 -50 -16
q-13 0 -33 1q-17 1 -43.5 1t-63.5 2q-35 1 -51 17.5t-21.5 36.5t-5 38.5t0.5 23.5q4 163 6 291q1 54 1.5 106.5t0.5 93.5t-0.5 66.5t-1.5 25.5zM99 922q-1 0 7 -0.5t21 -0.5h30h35q42 0 96 1l-6 -177q-50 -2 -90 -3q-34 -1 -62 -1.5t-29 -0.5l-0.5 13.5t-0.5 34v44v44v33.5
t-1 13zM169 859v-9v-20t-0.5 -20l-0.5 -9l8.5 0.5t19 1.5t19 1.5t7.5 0.5q-2 0 -1.5 7.5t0.5 16.5q0 11 1 25q-16 1 -27 2q-10 1 -18.5 2t-7.5 1z" />
    <glyph glyph-name="uring" unicode="&#x16f;" horiz-adv-x="382" 
d="M43 699q-3 1 11 2.5t31 3.5q20 2 48 4q0 -147 1 -267v-101t0.5 -92t0.5 -71v-38q0 -18 1.5 -29t7.5 -17.5t18.5 -8.5t33.5 -2t32 9t16 20q5 13 6 30l8 567l86 4q1 -147 3 -271q1 -53 1.5 -106t1.5 -99.5t1.5 -82.5t0.5 -54q1 -36 -14 -56.5t-34 -31.5q-22 -12 -50 -16
q-13 0 -33 1q-17 1 -43.5 1t-63.5 2q-35 1 -51 17.5t-21.5 36.5t-5 38.5t0.5 23.5q4 163 6 291q1 54 1.5 106.5t0.5 93.5t-0.5 66.5t-1.5 25.5zM99 922q-1 0 7 -0.5t21 -0.5h30h35q42 0 96 1l-6 -177q-50 -2 -90 -3q-34 -1 -62 -1.5t-29 -0.5l-0.5 13.5t-0.5 34v44v44v33.5
t-1 13zM169 859v-9v-20t-0.5 -20l-0.5 -9l8.5 0.5t19 1.5t19 1.5t7.5 0.5q-2 0 -1.5 7.5t0.5 16.5q0 11 1 25q-16 1 -27 2q-10 1 -18.5 2t-7.5 1z" />
    <glyph glyph-name="Uhungarumlaut" unicode="&#x170;" horiz-adv-x="382" 
d="M43 699q1 0 1.5 -25.5t0.5 -66.5t-0.5 -93.5t-1.5 -106.5q-2 -128 -6 -291q0 -5 -0.5 -23.5t5 -38.5t21.5 -36.5t51 -17.5q37 -2 63.5 -2t43.5 -1q20 -1 33 -1q28 4 50 16q19 11 34 31.5t14 56.5q0 18 -0.5 54t-1.5 82.5t-1.5 99.5t-1.5 106q-2 124 -3 271l-86 -4
l-8 -567q-1 -17 -6 -30q-5 -11 -16 -20t-32 -9t-33.5 2t-18.5 8.5t-7.5 17.5t-1.5 29v38t-0.5 71t-0.5 92v101q-1 120 -1 267q-28 -2 -48 -4q-17 -2 -31 -3.5t-11 -2.5zM258 746l-40 38l65 112l68 -45zM122 746l-40 38l65 112l68 -45z" />
    <glyph glyph-name="uhungarumlaut" unicode="&#x171;" horiz-adv-x="382" 
d="M43 699q1 0 1.5 -25.5t0.5 -66.5t-0.5 -93.5t-1.5 -106.5q-2 -128 -6 -291q0 -5 -0.5 -23.5t5 -38.5t21.5 -36.5t51 -17.5q37 -2 63.5 -2t43.5 -1q20 -1 33 -1q28 4 50 16q19 11 34 31.5t14 56.5q0 18 -0.5 54t-1.5 82.5t-1.5 99.5t-1.5 106q-2 124 -3 271l-86 -4
l-8 -567q-1 -17 -6 -30q-5 -11 -16 -20t-32 -9t-33.5 2t-18.5 8.5t-7.5 17.5t-1.5 29v38t-0.5 71t-0.5 92v101q-1 120 -1 267q-28 -2 -48 -4q-17 -2 -31 -3.5t-11 -2.5zM258 746l-40 38l65 112l68 -45zM122 746l-40 38l65 112l68 -45z" />
    <glyph glyph-name="Uogonek" unicode="&#x172;" horiz-adv-x="382" 
d="M254 -4q-8 -3 -14 -8q-5 -5 -10.5 -12.5t-7.5 -19.5q-2 -13 3 -21t12 -13q8 -6 19 -10l-27 -73q-20 2 -37 12.5t-29 25.5t-19 31.5t-7 30.5q-1 17 5.5 33t13.5 27q-10 0 -20.5 0.5t-21.5 0.5q-35 1 -51 17.5t-21.5 36.5t-5 38.5t0.5 23.5q4 163 6 291q1 54 1.5 106.5
t0.5 93.5t-0.5 66.5t-1.5 25.5q-3 1 11 2.5t31 3.5q20 2 48 4q0 -147 1 -267v-101t0.5 -92t0.5 -71v-38q0 -18 1.5 -29t7.5 -17.5t18.5 -8.5t33.5 -2t32 9t16 20q5 13 6 30l8 567l86 4q1 -147 3 -271q1 -53 1.5 -106t1.5 -99.5t1.5 -82.5t0.5 -54q1 -36 -14 -56.5t-34 -31.5
q-22 -12 -50 -16z" />
    <glyph glyph-name="uogonek" unicode="&#x173;" horiz-adv-x="382" 
d="M254 -4q-8 -3 -14 -8q-5 -5 -10.5 -12.5t-7.5 -19.5q-2 -13 3 -21t12 -13q8 -6 19 -10l-27 -73q-20 2 -37 12.5t-29 25.5t-19 31.5t-7 30.5q-1 17 5.5 33t13.5 27q-10 0 -20.5 0.5t-21.5 0.5q-35 1 -51 17.5t-21.5 36.5t-5 38.5t0.5 23.5q4 163 6 291q1 54 1.5 106.5
t0.5 93.5t-0.5 66.5t-1.5 25.5q-3 1 11 2.5t31 3.5q20 2 48 4q0 -147 1 -267v-101t0.5 -92t0.5 -71v-38q0 -18 1.5 -29t7.5 -17.5t18.5 -8.5t33.5 -2t32 9t16 20q5 13 6 30l8 567l86 4q1 -147 3 -271q1 -53 1.5 -106t1.5 -99.5t1.5 -82.5t0.5 -54q1 -36 -14 -56.5t-34 -31.5
q-22 -12 -50 -16z" />
    <glyph glyph-name="Wcircumflex" unicode="&#x174;" horiz-adv-x="574" 
d="M22 695l59 -691l141 -2l69 426l42 -424l129 -6q26 200 45 358q8 67 16 131.5t13.5 115t8 81.5t1.5 31h-19.5t-33.5 1q-21 0 -47 1l-42 -531l-52 515l-102 2l-94 -524l-46 526zM270 920l155 -105l-24 -71l-114 71l-99 -71l-51 56z" />
    <glyph glyph-name="wcircumflex" unicode="&#x175;" horiz-adv-x="574" 
d="M22 695l59 -691l141 -2l69 426l42 -424l129 -6q26 200 45 358q8 67 16 131.5t13.5 115t8 81.5t1.5 31h-19.5t-33.5 1q-21 0 -47 1l-42 -531l-52 515l-102 2l-94 -524l-46 526zM270 920l155 -105l-24 -71l-114 71l-99 -71l-51 56z" />
    <glyph glyph-name="Ycircumflex" unicode="&#x176;" horiz-adv-x="324" 
d="M8 697l79 14l70 -241l82 229l80 -9l-60 -194q-11 -36 -22 -71t-19 -63t-13 -45l-5 -17v-13.5t-0.5 -35.5t-0.5 -49.5v-55.5q-1 -67 -1 -152l-82 1l-6 321zM139 920l155 -105l-24 -71l-114 71l-99 -71l-51 56z" />
    <glyph glyph-name="ycircumflex" unicode="&#x177;" horiz-adv-x="324" 
d="M8 697l79 14l70 -241l82 229l80 -9l-60 -194q-11 -36 -22 -71t-19 -63t-13 -45l-5 -17v-13.5t-0.5 -35.5t-0.5 -49.5v-55.5q-1 -67 -1 -152l-82 1l-6 321zM139 920l155 -105l-24 -71l-114 71l-99 -71l-51 56z" />
    <glyph glyph-name="Ydieresis" unicode="&#x178;" horiz-adv-x="324" 
d="M8 697l79 14l70 -241l82 229l80 -9l-60 -194q-11 -36 -22 -71t-19 -63t-13 -45l-5 -17v-13.5t-0.5 -35.5t-0.5 -49.5v-55.5q-1 -67 -1 -152l-82 1l-6 321zM157 839l-3 -96l-86 3l2 93h87zM279 849l10 -106l-88 -2l-5 98z" />
    <glyph glyph-name="Zacute" unicode="&#x179;" horiz-adv-x="358" 
d="M30 703l302 -6l2 -92l-211 -513l211 8v-104l-313 2l2 108l213 495q-58 0 -103 1q-20 0 -38.5 0.5t-32.5 1t-23 1l-9 0.5v98zM111 742l-18 51l123 112l55 -93z" />
    <glyph glyph-name="zacute" unicode="&#x17a;" horiz-adv-x="358" 
d="M30 703l302 -6l2 -92l-211 -513l211 8v-104l-313 2l2 108l213 495q-58 0 -103 1q-20 0 -38.5 0.5t-32.5 1t-23 1l-9 0.5v98zM111 742l-18 51l123 112l55 -93z" />
    <glyph glyph-name="Zdotaccent" unicode="&#x17b;" horiz-adv-x="358" 
d="M30 703l302 -6l2 -92l-211 -513l211 8v-104l-313 2l2 108l213 495q-58 0 -103 1q-20 0 -38.5 0.5t-32.5 1t-23 1l-9 0.5v98zM114 793q0 23 16 39.5t39 16.5t39.5 -16.5t16.5 -39.5t-16.5 -39t-39.5 -16t-39 16t-16 39z" />
    <glyph glyph-name="zdotaccent" unicode="&#x17c;" horiz-adv-x="358" 
d="M30 703l302 -6l2 -92l-211 -513l211 8v-104l-313 2l2 108l213 495q-58 0 -103 1q-20 0 -38.5 0.5t-32.5 1t-23 1l-9 0.5v98zM114 793q0 23 16 39.5t39 16.5t39.5 -16.5t16.5 -39.5t-16.5 -39t-39.5 -16t-39 16t-16 39z" />
    <glyph glyph-name="Zcaron" unicode="&#x17d;" horiz-adv-x="358" 
d="M30 703l302 -6l2 -92l-211 -513l211 8v-104l-313 2l2 108l213 495q-58 0 -103 1q-20 0 -38.5 0.5t-32.5 1t-23 1l-9 0.5v98zM175 745l-155 105l24 71l114 -71l99 71l51 -56z" />
    <glyph glyph-name="zcaron" unicode="&#x17e;" horiz-adv-x="358" 
d="M30 703l302 -6l2 -92l-211 -513l211 8v-104l-313 2l2 108l213 495q-58 0 -103 1q-20 0 -38.5 0.5t-32.5 1t-23 1l-9 0.5v98zM175 745l-155 105l24 71l114 -71l99 71l51 -56z" />
    <glyph glyph-name="uni01B5" unicode="&#x1b5;" horiz-adv-x="358" 
d="M15 410h139l82 191q-58 0 -103 1q-20 0 -38.5 0.5t-32.5 1t-23 1l-9 0.5v98l302 -6l2 -92l-80 -194h88v-110l-134 -2l-85 -207l211 8v-104l-313 2l2 108l82 192l-88 -1z" />
    <glyph glyph-name="uni01B6" unicode="&#x1b6;" horiz-adv-x="358" 
d="M15 410h139l82 191q-58 0 -103 1q-20 0 -38.5 0.5t-32.5 1t-23 1l-9 0.5v98l302 -6l2 -92l-80 -194h88v-110l-134 -2l-85 -207l211 8v-104l-313 2l2 108l82 192l-88 -1z" />
    <glyph glyph-name="Scommaaccent" unicode="&#x218;" horiz-adv-x="372" 
d="M32 2l-12 95l159 -10q22 2 40 8q15 5 28 16.5t15 31.5t1.5 36t-0.5 27q-1 13 -1 24q-1 15 -6 27q-5 10 -13.5 18.5t-25.5 8.5t-33.5 0.5t-29.5 2.5q-16 1 -29 3q-26 6 -45 21q-17 13 -31 36.5t-12 62.5q1 39 1.5 74t-0.5 62q-1 32 -2 59q-1 26 7 47q7 17 23 32t50 16
q33 1 70.5 2t69.5 3l74 4l2 -116l-146 5q-17 -2 -29 -9q-11 -6 -20 -18t-9 -33q-1 -21 -1 -41t-1 -36q-1 -18 -1 -34q-1 -13 3 -24q4 -9 13 -17t27 -10q21 -2 40.5 -2.5t33.5 -0.5q17 0 32 1q19 1 35 -9q14 -8 25 -28t11 -61t-0.5 -76.5t-1.5 -62.5q-1 -32 -1 -58
q-2 -20 -13 -36q-9 -14 -26.5 -25t-49.5 -12h-19q-3 -31 -7 -58q-4 -23 -10.5 -48t-15.5 -40l-84 42q5 15 9 32q3 14 5.5 32.5t0.5 37.5z" />
    <glyph glyph-name="scommaaccent" unicode="&#x219;" horiz-adv-x="372" 
d="M32 2l-12 95l159 -10q22 2 40 8q15 5 28 16.5t15 31.5t1.5 36t-0.5 27q-1 13 -1 24q-1 15 -6 27q-5 10 -13.5 18.5t-25.5 8.5t-33.5 0.5t-29.5 2.5q-16 1 -29 3q-26 6 -45 21q-17 13 -31 36.5t-12 62.5q1 39 1.5 74t-0.5 62q-1 32 -2 59q-1 26 7 47q7 17 23 32t50 16
q33 1 70.5 2t69.5 3l74 4l2 -116l-146 5q-17 -2 -29 -9q-11 -6 -20 -18t-9 -33q-1 -21 -1 -41t-1 -36q-1 -18 -1 -34q-1 -13 3 -24q4 -9 13 -17t27 -10q21 -2 40.5 -2.5t33.5 -0.5q17 0 32 1q19 1 35 -9q14 -8 25 -28t11 -61t-0.5 -76.5t-1.5 -62.5q-1 -32 -1 -58
q-2 -20 -13 -36q-9 -14 -26.5 -25t-49.5 -12h-19q-3 -31 -7 -58q-4 -23 -10.5 -48t-15.5 -40l-84 42q5 15 9 32q3 14 5.5 32.5t0.5 37.5z" />
    <glyph glyph-name="uni021A" unicode="&#x21a;" horiz-adv-x="374" 
d="M11 601v21v30t0.5 30.5t1.5 21.5l349 -6q1 -14 2 -27q1 -11 2 -23.5t1 -21.5v-13h-147q0 -157 6 -311t6 -303h-98v602h-123zM93 -156q11 25 20 49q8 20 14 43t7 40l92 -16q-2 -28 -7 -54q-5 -23 -12.5 -48t-21.5 -45z" />
    <glyph glyph-name="uni021B" unicode="&#x21b;" horiz-adv-x="374" 
d="M11 601v21v30t0.5 30.5t1.5 21.5l349 -6q1 -14 2 -27q1 -11 2 -23.5t1 -21.5v-13h-147q0 -157 6 -311t6 -303h-98v602h-123zM93 -156q11 25 20 49q8 20 14 43t7 40l92 -16q-2 -28 -7 -54q-5 -23 -12.5 -48t-21.5 -45z" />
    <glyph glyph-name="afii10023" unicode="&#x401;" horiz-adv-x="329" 
d="M12 700q75 4 157 2t157 -2v-75h-225q-2 -25 -0.5 -71t3.5 -93.5t5 -86t4 -49.5h188v-75l-188 -25v-12q0 -29 4.5 -69t5.5 -69h203v-75h-300zM134 839l-3 -96l-86 3l2 93h87zM256 849l10 -106l-88 -2l-5 98z" />
    <glyph glyph-name="afii10051" unicode="&#x402;" horiz-adv-x="434" 
d="M3 599q-1 -2 -1 14t1 35q1 22 2 51h344l5 -90l-149 -8l9 -242l115 -7q21 -3 39 -14q15 -9 28.5 -27t15.5 -48q2 -31 4.5 -79t4.5 -95q2 -55 4 -114q-5 -31 -16 -55q-9 -21 -25 -38t-41 -17h-79l-1 87q18 0 33 1t27 1q3 0 7.5 1.5t8 6t6 13t2.5 22.5q0 7 -1.5 35t-3.5 64
t-4.5 73t-4.5 63q-1 8 -7 16t-21 9q-7 0 -21 0.5t-28 1.5q-17 1 -36 2l2 -259l-98 4l-10 588q-31 2 -55 4q-21 2 -38 2t-18 -1z" />
    <glyph glyph-name="afii10052" unicode="&#x403;" horiz-adv-x="318" 
d="M317 701v-22.5t-0.5 -25t-1.5 -24t-2 -18.5h-199v-611h-90q-5 183 -9.5 357.5t-2.5 343.5h305zM99 746l-18 51l123 112l55 -93z" />
    <glyph glyph-name="afii10053" unicode="&#x404;" horiz-adv-x="339" 
d="M254 701q28 -5 43 -18t22 -27q8 -17 8 -37l-9 -135h-85l5 74q0 22 -7 35t-15 20q-10 8 -21 10q-3 0 -10 1q-6 1 -16 1.5t-26 0.5t-23.5 -5.5t-10 -14.5t-2.5 -19.5v-20.5q-2 -44 -1 -88l2 -88l110 6l2 -83l-118 -9v-53q0 -23 0.5 -47.5t1.5 -44.5t5.5 -33t10.5 -21
q6 -10 15 -15q6 -1 13 -2q6 -1 13.5 -1.5t17.5 -0.5q9 0 16.5 4.5t12.5 10.5q6 7 10 16l7 69l98 -2q1 -7 2 -18q1 -10 1.5 -27.5t-1.5 -44.5q-2 -28 -16 -44.5t-30 -26.5q-19 -11 -42 -17h-129q-27 0 -45 10t-29 23t-15.5 26t-4.5 18v37.5v84v111.5t0.5 119.5t0.5 107
t1 74.5q1 39 17 57.5t36 25.5q23 8 51 5z" />
    <glyph glyph-name="afii10054" unicode="&#x405;" horiz-adv-x="348" 
d="M22 2l-12 95l159 -10q22 2 40 8q15 5 28 16.5t15 31.5t1.5 36t-0.5 27q-1 13 -1 24q-1 15 -6 27q-5 10 -13.5 18.5t-25.5 8.5t-33.5 0.5t-29.5 2.5q-16 1 -29 3q-26 6 -45 21q-17 13 -31 36.5t-12 62.5q1 39 1.5 74t-0.5 62q-1 32 -2 59q-1 26 7 47q7 17 23 32t50 16
q33 1 70.5 2t69.5 3l74 4l2 -116l-146 5q-17 -2 -29 -9q-11 -6 -20 -18t-9 -33q-1 -21 -1 -41t-1 -36q-1 -18 -1 -34q-1 -13 3 -24q4 -9 13 -17t27 -10q21 -2 40.5 -2.5t33.5 -0.5q17 0 32 1q19 1 35 -9q14 -8 25 -28t11 -61t-0.5 -76.5t-1.5 -62.5q-1 -32 -1 -58
q-2 -20 -13 -36q-9 -14 -26.5 -25t-49.5 -12z" />
    <glyph glyph-name="afii10056" unicode="&#x407;" horiz-adv-x="227" 
d="M56 0q2 172 4.5 345t8.5 356h101v-701h-114zM92 853l-3 -96l-86 3l2 93h87zM214 863l10 -106l-88 -2l-5 98z" />
    <glyph glyph-name="afii10057" unicode="&#x408;" horiz-adv-x="319" 
d="M272 699q10 -118 17 -224q3 -45 5.5 -93t4 -92.5t2 -83t-1.5 -66.5q-4 -56 -26.5 -85.5t-48.5 -42.5q-30 -16 -67 -16l-152 10l-4 86q12 1 29 1q14 0 36 -1t51 -6t44.5 6.5t23.5 26.5q9 18 10 42l-13 536z" />
    <glyph glyph-name="afii10058" unicode="&#x409;" horiz-adv-x="634" 
d="M358 2v609h-102l-2 -420q-2 -36 -17.5 -70.5t-40 -61.5t-54 -44t-57.5 -17l-78 -2l6 87l53 2q15 0 32.5 7t31.5 20.5t24 34t10 47.5v42v67t-0.5 82.5t-0.5 88.5q-1 104 -1 227l283 2l9 -339h21q11 0 29.5 0.5t47.5 1.5q28 1 42.5 -14.5t21.5 -34.5q8 -22 8 -51v-64
q0 -28 -1 -60t-2 -60q-2 -29 -16.5 -44.5t-31.5 -23.5q-20 -10 -46 -12h-169z" />
    <glyph glyph-name="afii10059" unicode="&#x40a;" horiz-adv-x="504" 
d="M219 264l-94 6l-6 -266q-25 -3 -43 -5q-16 -2 -29 -2.5t-11 1.5q1 1 0.5 31t-2 79t-3.5 111.5t-4 127t-4 127t-3.5 111t-1.5 78t1 29.5q2 0 15 -0.5t27 -0.5q17 -1 37 -1l19 -338l106 -6l30 359h72v-340h21q11 0 29.5 0.5t47.5 1.5q28 1 42.5 -14.5t21.5 -34.5
q8 -22 8 -51v-64q0 -28 -1 -60t-2 -60q-2 -29 -16.5 -44.5t-31.5 -23.5q-20 -10 -46 -12l-158 5z" />
    <glyph glyph-name="afii10060" unicode="&#x40b;" horiz-adv-x="458" 
d="M7 590l2 105l344 6l7 -102l-157 -3l11 -248l104 -4q36 -1 65 -13q24 -11 44.5 -35t19.5 -69q-1 -46 -1 -87.5v-73.5q0 -38 1 -70h-88l3 189q0 18 -12 39t-34 25q-11 2 -28.5 2.5t-34.5 1.5q-20 1 -42 1l4 -251l-106 1l9 586h-111z" />
    <glyph glyph-name="afii10062" unicode="&#x40e;" horiz-adv-x="318" 
d="M4 697l79 14l70 -241l82 229l80 -9l-60 -194q-11 -36 -22 -71t-19 -63t-13 -45l-5 -17v-13.5t-0.5 -35.5t-0.5 -49.5v-55.5q-1 -67 -1 -152l-82 1l-6 321zM160 720l-155 105l24 71l114 -71l99 71l51 -56z" />
    <glyph glyph-name="afii10145" unicode="&#x40f;" horiz-adv-x="332" 
d="M99 703l15 -599l106 -4l4 607l96 -4l-4 -699l-100 -10l-6 -123l-100 4v129h-98v697z" />
    <glyph glyph-name="afii10017" unicode="&#x410;" horiz-adv-x="348" 
d="M70 699h45h52t50 -1t40 -2l83 -696h-86q-3 24 -7.5 59.5t-9 72.5t-9.5 71t-11 54l-86 13q-14 -57 -19.5 -126.5t-16.5 -143.5h-86z" />
    <glyph glyph-name="afii10018" unicode="&#x411;" horiz-adv-x="319" 
d="M14 0l11 703q79 5 146.5 4.5t130.5 -2.5l2 -96q-42 -1 -84.5 -2t-101.5 4q-5 -67 -4 -121l2 -108q38 2 69.5 0t58.5 -7q16 -6 29 -18q11 -11 20.5 -29.5t10.5 -48.5q1 -31 1.5 -66t0.5 -66v-72q-3 -21 -12 -38q-8 -14 -23 -25.5t-40 -11.5h-217z" />
    <glyph glyph-name="afii10019" unicode="&#x412;" horiz-adv-x="361" 
d="M211 703q30 1 54 -9q20 -8 38 -27t22 -55q3 -37 3.5 -69.5t-0.5 -57.5q-1 -29 -3 -54q-6 -17 -17 -30q-10 -11 -27.5 -21.5t-43.5 -12.5q-27 -2 -46 -2.5t-32 -0.5q-15 0 -25 1l127 -28q25 -4 44 -15q17 -9 30.5 -24.5t11.5 -41.5t-4.5 -62t-5.5 -69q-4 -39 -7 -79
q-2 -11 -10 -20q-7 -8 -21 -15t-39 -8q-26 -2 -64 -3.5t-75 -3.5q-43 -2 -89 -4q-14 194 -15.5 365.5t5.5 335.5q47 7 95.5 9.5t93.5 0.5z" />
    <glyph glyph-name="afii10020" unicode="&#x413;" horiz-adv-x="323" 
d="M322 701v-22.5t-0.5 -25t-1.5 -24t-2 -18.5h-199v-611h-90q-5 183 -9.5 357.5t-2.5 343.5h305z" />
    <glyph glyph-name="afii10021" unicode="&#x414;" horiz-adv-x="571" 
d="M117 -121q0 2 -0.5 20t-1.5 39l-2 54q-11 0 -20.5 -0.5t-21 0t-27.5 2t-38 4.5q-2 23 -1 46t3 46l80 2q22 53 40 103q16 43 30 90t17 82t3.5 90t-0.5 109q-1 62 -3 131l255 4q2 -92 3 -173t1.5 -154.5t1 -142.5t1.5 -136q45 -1 75 -1.5t55 -1.5l-9 -99q-29 -2 -57 -2.5
t-57 1.5l4 -105l-94 -2l-2 111l-139 -2l-2 -115h-94z" />
    <glyph glyph-name="afii10022" unicode="&#x415;" horiz-adv-x="334" 
d="M14 700q75 4 157 2t157 -2v-75h-225q-2 -25 -0.5 -71t3.5 -93.5t5 -86t4 -49.5h188v-75l-188 -25v-12q0 -29 4.5 -69t5.5 -69h203v-75h-300z" />
    <glyph glyph-name="afii10024" unicode="&#x416;" horiz-adv-x="579" 
d="M458 340q26 1 43.5 -11.5t27.5 -31t13.5 -37.5t2.5 -29l-20 -231l-81 4q2 50 6 93q2 37 5 73t5 52t-5 24t-16 13q-11 4 -24 6h-88l-19 -267l-83 4l-3 249q-8 0 -19 1q-9 0 -21.5 0.5t-27.5 1.5t-23 -12t-12 -29q-4 -18 -5 -42v-175h-96q2 32 4 65q2 29 1.5 64t-2.5 68
q-1 10 3.5 27.5t15 35.5t28.5 32.5t44 18.5q-37 2 -56.5 19.5t-28.5 37.5q-11 23 -11 51v282h105l-0.5 -14.5t-2 -37t-3.5 -51t-3.5 -56t-2 -51.5t0.5 -39q2 -23 7.5 -34.5t13.5 -17.5q8 -7 19 -8l77 -4l4 321h50q19 0 34.5 -0.5t15.5 -1.5l0.5 -14t1 -36.5t1.5 -50.5t2 -58
l6 -158q4 0 11 1q6 1 16 1t25 2q17 1 28.5 9t19.5 17q9 11 14 24l25 265h86q-7 -69 -11 -127q-2 -25 -3.5 -50.5t-3 -47.5t-2.5 -39.5t-1 -27.5q-1 -22 -14 -36t-30 -22q-19 -10 -44 -15z" />
    <glyph glyph-name="afii10025" unicode="&#x417;" horiz-adv-x="333" 
d="M257 304q8 -2 17.5 -5.5t18 -11t14.5 -21t6 -37.5q0 -21 -0.5 -50.5t-0.5 -55.5q-1 -31 -1 -63q0 -18 -6 -31q-5 -12 -17 -21.5t-35 -9.5h-28.5t-36 0.5t-40.5 1t-41 0.5q-48 1 -100 2l6 88l138 -13q17 0 33 4q13 4 26 12.5t18 25.5t6.5 32.5t1.5 26.5q0 13 -2 24
q-1 9 -8.5 20.5t-20.5 21.5t-30 16t-37 5l-4 85q35 2 62 15q23 11 42 35.5t17 69.5t-3 66.5t-3 29.5q-2 9 -3 6q-4 11 -11 21q-6 8 -16 14.5t-25 6.5q-16 -1 -45.5 -1.5t-58.5 -2.5q-34 -2 -73 -4l-4 75l194 20q29 0 52 -9q20 -8 37 -25.5t19 -49.5q2 -33 2.5 -74.5
t0.5 -78.5q0 -43 -1 -87q-1 -17 -7 -32q-5 -13 -17.5 -24.5t-35.5 -16.5z" />
    <glyph glyph-name="afii10026" unicode="&#x418;" horiz-adv-x="368" 
d="M243 -2l15 415l-128 -417l-102 -4l-14 709l98 12l10 -475l138 457l94 4l-9 -699z" />
    <glyph glyph-name="afii10027" unicode="&#x419;" horiz-adv-x="364" 
d="M343 0l9 699l-94 -4l-138 -457l-10 475l-98 -12l14 -709l102 4l128 417l-15 -415zM186 712l-155 105l24 71l114 -71l99 71l51 -56z" />
    <glyph glyph-name="afii10028" unicode="&#x41a;" horiz-adv-x="352" 
d="M102 713l4 -300l181 294l57 -69l-180 -288l165 -292l-79 -62l-138 302l-2 -304h-88l-8 703z" />
    <glyph glyph-name="afii10029" unicode="&#x41b;" horiz-adv-x="475" 
d="M4 -4l6 87l53 2q15 0 32.5 7t31.5 20.5t24 34t10 47.5v42v67t-0.5 82.5t-0.5 88.5q-1 104 -1 227l283 2l19 -711h-104l-2 619h-102l-2 -420q-2 -36 -17.5 -70.5t-40 -61.5t-54 -44t-57.5 -17z" />
    <glyph glyph-name="afii10030" unicode="&#x41c;" horiz-adv-x="520" 
d="M21 0l-6 690l90 13l171 -334l123 334h81l27 -709l-91 6l-7 457l-106 -221h-65l-123 250l-12 -486h-82z" />
    <glyph glyph-name="afii10031" unicode="&#x41d;" horiz-adv-x="339" 
d="M35 -2q1 1 0.5 31t-2 79t-3.5 111.5t-4 127t-4 127t-3.5 111t-1.5 78t1 29.5q2 0 15 -0.5t27 -0.5q17 -1 37 -1l19 -338l106 -6l30 359h72l-2 -695l-83 -2l-21 256l-94 6l-6 -266q-25 -3 -43 -5q-16 -2 -29 -2.5t-11 1.5z" />
    <glyph glyph-name="afii10032" unicode="&#x41e;" horiz-adv-x="359" 
d="M17 603q1 27 10 48q8 18 25 33.5t49 16.5t60.5 1t50.5 -1q26 -1 47 -2q24 -4 43 -15q16 -10 29.5 -29.5t13.5 -53.5v-48t-0.5 -71t-1 -85t-0.5 -89q-1 -104 -2 -225q0 -16 -5.5 -31t-15 -27t-23 -19.5t-29.5 -7.5q-20 -1 -49 -0.5t-57 1.5q-33 1 -67 1q-48 8 -64.5 39.5
t-14.5 77.5z" />
    <glyph glyph-name="afii10033" unicode="&#x41f;" horiz-adv-x="353" 
d="M118 4q-25 -3 -43 -5q-16 -2 -29 -2.5t-11 1.5q1 1 0.5 31t-2 79t-3.5 111.5t-4 127t-4 127t-3.5 111t-1.5 78t1 29.5l320 -12l-2 -695l-83 -2q1 144 3.5 299t7.5 323l-165 1z" />
    <glyph glyph-name="afii10034" unicode="&#x420;" horiz-adv-x="324" 
d="M12 699q23 3 54 6t63.5 4t64 -2t57.5 -13.5t43 -29.5t20 -49q12 -115 0 -229q-3 -31 -25.5 -54t-52 -38t-61.5 -22.5t-55 -6.5v-265h-84z" />
    <glyph glyph-name="afii10035" unicode="&#x421;" horiz-adv-x="345" 
d="M315 593l-165 -20q-13 -1 -24 -9q-9 -7 -17 -21t-10 -40q-1 -17 -1.5 -50.5t-0.5 -74t0.5 -84t1.5 -80t3.5 -62t5.5 -31.5q5 -8 9.5 -14.5t11.5 -11t18.5 -7t29.5 -2.5t44.5 2t50.5 4q28 3 58 7l6 -84l-176 -16q-136 -12 -148 118l12 477q1 15 10 29q8 11 24 23t45 19
t63 13t65 11t55 8t34 3z" />
    <glyph glyph-name="afii10036" unicode="&#x422;" horiz-adv-x="365" 
d="M6 601v21v30t0.5 30.5t1.5 21.5l349 -6q1 -14 2 -27q1 -11 2 -23.5t1 -21.5v-13h-147q0 -157 6 -311t6 -303h-98v602h-123z" />
    <glyph glyph-name="afii10037" unicode="&#x423;" horiz-adv-x="318" 
d="M4 697l79 14l70 -241l82 229l80 -9l-60 -194q-11 -36 -22 -71t-19 -63t-13 -45l-5 -17v-13.5t-0.5 -35.5t-0.5 -49.5v-55.5q-1 -67 -1 -152l-82 1l-6 321z" />
    <glyph glyph-name="afii10038" unicode="&#x424;" horiz-adv-x="316" 
d="M110 2q0 11 1 22q0 10 0.5 22.5t1.5 26.5q1 31 3 71q-42 -1 -63 18.5t-29 42.5q-10 27 -8 62v215q0 36 15 53.5t34 24.5q21 8 49 7l2 132h95l3 -123q33 4 52 -12.5t29 -37.5t12.5 -39.5t2.5 -19.5v-11v-32.5t-0.5 -60.5t-1.5 -94q0 -28 -5 -48.5t-12.5 -34.5t-16.5 -23
t-19 -13q-23 -11 -51 -6l-10 -146l-40 2q-15 1 -28.5 1.5t-15.5 0.5z" />
    <glyph glyph-name="afii10039" unicode="&#x425;" horiz-adv-x="345" 
d="M12 690l84 19l58 -304l90 294l93 -11l-104 -350l75 -332l-79 -6l-63 250l-70 -250l-84 17l65 317z" />
    <glyph glyph-name="afii10040" unicode="&#x426;" horiz-adv-x="410" 
d="M88 697l23 -605l123 10l7 599l87 -2l-6 -302q-1 -57 -2 -111t-2 -96.5t-1.5 -68l-0.5 -25.5q0 1 13 0.5t29 -1.5q18 -1 43 -3l-4 -246l-88 2l-6 154l-296 -8l8 703h73z" />
    <glyph glyph-name="afii10041" unicode="&#x427;" horiz-adv-x="343" 
d="M8 700q-2 0 12.5 -0.5t32.5 -1.5q21 -1 49 -3l-4 -368l115 5l18 371l98 -4l-9 -700l-105 -7l-5 240h-99h-102q-1 0 -1 34.5t0.5 86.5t0.5 112.5t0.5 112.5t0 87t-1.5 35z" />
    <glyph glyph-name="afii10042" unicode="&#x428;" horiz-adv-x="563" 
d="M119 699l7 -611l100 6l-2 609h100v-615l94 10l27 605l104 -2l-21 -697l-513 -2l6 693z" />
    <glyph glyph-name="afii10043" unicode="&#x429;" horiz-adv-x="640" 
d="M105 699l17 -605l112 6l-8 601h100l-4 -605l94 4l5 603h100l1 -607l108 -2l-10 -230l-90 5l-6 133l-511 2l-6 688z" />
    <glyph glyph-name="afii10044" unicode="&#x42a;" horiz-adv-x="382" 
d="M202 361l73 2q28 -1 51 -10q19 -8 35 -23t16 -42v-209q-1 -25 -11 -43q-8 -16 -26 -29t-50 -13t-68 -0.5t-66 -0.5q-35 -1 -69 -1l7 594q-25 -2 -43 -2q-17 -1 -30 -0.5t-13 2.5v17t1 33q0 21 1 48l188 13z" />
    <glyph glyph-name="afii10045" unicode="&#x42b;" horiz-adv-x="501" 
d="M110 710l6 -341q1 1 11 2q8 1 26 1.5t51 0.5t52.5 -13t30.5 -29q12 -18 17 -42q2 -40 3 -78q1 -32 1.5 -67.5t-0.5 -61.5q-2 -26 -18.5 -41.5t-36.5 -23.5q-24 -10 -53 -13l-185 -2l4 695zM484 695l2 -695l-96 -2l-17 699z" />
    <glyph glyph-name="afii10046" unicode="&#x42c;" horiz-adv-x="294" 
d="M108 708l11 -344h21q11 0 29.5 0.5t47.5 1.5q28 1 42.5 -14.5t21.5 -34.5q8 -22 8 -51v-64q0 -28 -1 -60t-2 -60q-2 -29 -16.5 -44.5t-31.5 -23.5q-20 -10 -46 -12l-178 2l13 702z" />
    <glyph glyph-name="afii10047" unicode="&#x42d;" horiz-adv-x="339" 
d="M219 705q28 3 51 -5q20 -7 36 -25.5t17 -57.5q0 -26 0.5 -74.5t1 -107t0.5 -119.5v-111.5v-84v-37.5q0 -5 -4.5 -18t-15.5 -26t-29 -23t-45 -10h-129q-25 6 -43 17q-17 10 -30 26.5t-15 44.5q-2 27 -2 44.5t1 27.5q1 11 3 18l98 2l7 -69q4 -9 10 -16q5 -6 12 -10.5
t17 -4.5q9 0 17 0.5t14 1.5q7 1 13 2q8 5 15 15q5 8 10 21t6 33t1.5 44.5t0.5 47.5v53l-118 9l2 83l110 -6l2 88t-1 88v20.5t-2.5 19.5t-10 14.5t-23.5 5.5q-17 0 -26.5 -0.5t-15.5 -1.5q-7 -1 -10 -1q-12 -2 -22 -10q-8 -7 -14.5 -20t-6.5 -35l5 -74h-85l-9 135q0 20 8 37
q7 14 21.5 27t43.5 18z" />
    <glyph glyph-name="afii10048" unicode="&#x42e;" horiz-adv-x="567" 
d="M223 401l1 200q1 27 10 48q8 18 25 33.5t49 16.5t60.5 1t50.5 -1q26 -1 47 -2q24 -4 43 -15q16 -10 29.5 -29.5t13.5 -53.5v-48t-0.5 -71t-1 -85t-0.5 -89q-1 -104 -2 -225q0 -16 -5.5 -31t-15 -27t-23 -19.5t-29.5 -7.5q-20 -1 -49 -0.5t-57 1.5q-33 1 -67 1
q-48 8 -64.5 39.5t-14.5 77.5v185l-95 -2v-298h-114q2 172 4.5 345t8.5 356h101v-306z" />
    <glyph glyph-name="afii10049" unicode="&#x42f;" horiz-adv-x="335" 
d="M20 604q0 22 12 40t30 30t38.5 18.5t38.5 6.5h41.5t49.5 -0.5t48 -1t38 -1.5q2 -34 1 -89t-3.5 -120.5t-6 -136.5t-6.5 -137t-5.5 -122t-2.5 -91h-83v249l-123 -263q-5 2 -16 5.5t-23 7t-22 7.5t-14 8q12 29 25.5 61l27 64t26.5 63t24 58q-38 21 -66.5 54t-28.5 77v213z
" />
    <glyph glyph-name="afii10065" unicode="&#x430;" horiz-adv-x="348" 
d="M70 699h45h52t50 -1t40 -2l83 -696h-86q-3 24 -7.5 59.5t-9 72.5t-9.5 71t-11 54l-86 13q-14 -57 -19.5 -126.5t-16.5 -143.5h-86z" />
    <glyph glyph-name="afii10066" unicode="&#x431;" horiz-adv-x="319" 
d="M14 0l11 703q79 5 146.5 4.5t130.5 -2.5l2 -96q-42 -1 -84.5 -2t-101.5 4q-5 -67 -4 -121l2 -108q38 2 69.5 0t58.5 -7q16 -6 29 -18q11 -11 20.5 -29.5t10.5 -48.5q1 -31 1.5 -66t0.5 -66v-72q-3 -21 -12 -38q-8 -14 -23 -25.5t-40 -11.5h-217z" />
    <glyph glyph-name="afii10067" unicode="&#x432;" horiz-adv-x="361" 
d="M211 703q30 1 54 -9q20 -8 38 -27t22 -55q3 -37 3.5 -69.5t-0.5 -57.5q-1 -29 -3 -54q-6 -17 -17 -30q-10 -11 -27.5 -21.5t-43.5 -12.5q-27 -2 -46 -2.5t-32 -0.5q-15 0 -25 1l127 -28q25 -4 44 -15q17 -9 30.5 -24.5t11.5 -41.5t-4.5 -62t-5.5 -69q-4 -39 -7 -79
q-2 -11 -10 -20q-7 -8 -21 -15t-39 -8q-26 -2 -64 -3.5t-75 -3.5q-43 -2 -89 -4q-14 194 -15.5 365.5t5.5 335.5q47 7 95.5 9.5t93.5 0.5z" />
    <glyph glyph-name="afii10068" unicode="&#x433;" horiz-adv-x="323" 
d="M322 701v-22.5t-0.5 -25t-1.5 -24t-2 -18.5h-199v-611h-90q-5 183 -9.5 357.5t-2.5 343.5h305z" />
    <glyph glyph-name="afii10069" unicode="&#x434;" horiz-adv-x="571" 
d="M117 -121q0 2 -0.5 20t-1.5 39l-2 54q-11 0 -20.5 -0.5t-21 0t-27.5 2t-38 4.5q-2 23 -1 46t3 46l80 2q22 53 40 103q16 43 30 90t17 82t3.5 90t-0.5 109q-1 62 -3 131l255 4q2 -92 3 -173t1.5 -154.5t1 -142.5t1.5 -136q45 -1 75 -1.5t55 -1.5l-9 -99q-29 -2 -57 -2.5
t-57 1.5l4 -105l-94 -2l-2 111l-139 -2l-2 -115h-94z" />
    <glyph glyph-name="afii10070" unicode="&#x435;" horiz-adv-x="334" 
d="M14 700q75 4 157 2t157 -2v-75h-225q-2 -25 -0.5 -71t3.5 -93.5t5 -86t4 -49.5h188v-75l-188 -25v-12q0 -29 4.5 -69t5.5 -69h203v-75h-300z" />
    <glyph glyph-name="afii10072" unicode="&#x436;" horiz-adv-x="579" 
d="M458 340q26 1 43.5 -11.5t27.5 -31t13.5 -37.5t2.5 -29l-20 -231l-81 4q2 50 6 93q2 37 5 73t5 52t-5 24t-16 13q-11 4 -24 6h-88l-19 -267l-83 4l-3 249q-8 0 -19 1q-9 0 -21.5 0.5t-27.5 1.5t-23 -12t-12 -29q-4 -18 -5 -42v-175h-96q2 32 4 65q2 29 1.5 64t-2.5 68
q-1 10 3.5 27.5t15 35.5t28.5 32.5t44 18.5q-37 2 -56.5 19.5t-28.5 37.5q-11 23 -11 51v282h105l-0.5 -14.5t-2 -37t-3.5 -51t-3.5 -56t-2 -51.5t0.5 -39q2 -23 7.5 -34.5t13.5 -17.5q8 -7 19 -8l77 -4l4 321h50q19 0 34.5 -0.5t15.5 -1.5l0.5 -14t1 -36.5t1.5 -50.5t2 -58
l6 -158q4 0 11 1q6 1 16 1t25 2q17 1 28.5 9t19.5 17q9 11 14 24l25 265h86q-7 -69 -11 -127q-2 -25 -3.5 -50.5t-3 -47.5t-2.5 -39.5t-1 -27.5q-1 -22 -14 -36t-30 -22q-19 -10 -44 -15z" />
    <glyph glyph-name="afii10073" unicode="&#x437;" horiz-adv-x="333" 
d="M257 304q8 -2 17.5 -5.5t18 -11t14.5 -21t6 -37.5q0 -21 -0.5 -50.5t-0.5 -55.5q-1 -31 -1 -63q0 -18 -6 -31q-5 -12 -17 -21.5t-35 -9.5h-28.5t-36 0.5t-40.5 1t-41 0.5q-48 1 -100 2l6 88l138 -13q17 0 33 4q13 4 26 12.5t18 25.5t6.5 32.5t1.5 26.5q0 13 -2 24
q-1 9 -8.5 20.5t-20.5 21.5t-30 16t-37 5l-4 85q35 2 62 15q23 11 42 35.5t17 69.5t-3 66.5t-3 29.5q-2 9 -3 6q-4 11 -11 21q-6 8 -16 14.5t-25 6.5q-16 -1 -45.5 -1.5t-58.5 -2.5q-34 -2 -73 -4l-4 75l194 20q29 0 52 -9q20 -8 37 -25.5t19 -49.5q2 -33 2.5 -74.5
t0.5 -78.5q0 -43 -1 -87q-1 -17 -7 -32q-5 -13 -17.5 -24.5t-35.5 -16.5z" />
    <glyph glyph-name="afii10074" unicode="&#x438;" horiz-adv-x="368" 
d="M243 -2l15 415l-128 -417l-102 -4l-14 709l98 12l10 -475l138 457l94 4l-9 -699z" />
    <glyph glyph-name="afii10075" unicode="&#x439;" horiz-adv-x="364" 
d="M343 0l9 699l-94 -4l-138 -457l-10 475l-98 -12l14 -709l102 4l128 417l-15 -415zM186 712l-155 105l24 71l114 -71l99 71l51 -56z" />
    <glyph glyph-name="afii10076" unicode="&#x43a;" horiz-adv-x="352" 
d="M102 713l4 -300l181 294l57 -69l-180 -288l165 -292l-79 -62l-138 302l-2 -304h-88l-8 703z" />
    <glyph glyph-name="afii10077" unicode="&#x43b;" horiz-adv-x="475" 
d="M4 -4l6 87l53 2q15 0 32.5 7t31.5 20.5t24 34t10 47.5v42v67t-0.5 82.5t-0.5 88.5q-1 104 -1 227l283 2l19 -711h-104l-2 619h-102l-2 -420q-2 -36 -17.5 -70.5t-40 -61.5t-54 -44t-57.5 -17z" />
    <glyph glyph-name="afii10078" unicode="&#x43c;" horiz-adv-x="520" 
d="M21 0l-6 690l90 13l171 -334l123 334h81l27 -709l-91 6l-7 457l-106 -221h-65l-123 250l-12 -486h-82z" />
    <glyph glyph-name="afii10079" unicode="&#x43d;" horiz-adv-x="339" 
d="M35 -2q1 1 0.5 31t-2 79t-3.5 111.5t-4 127t-4 127t-3.5 111t-1.5 78t1 29.5q2 0 15 -0.5t27 -0.5q17 -1 37 -1l19 -338l106 -6l30 359h72l-2 -695l-83 -2l-21 256l-94 6l-6 -266q-25 -3 -43 -5q-16 -2 -29 -2.5t-11 1.5z" />
    <glyph glyph-name="afii10080" unicode="&#x43e;" horiz-adv-x="359" 
d="M17 603q1 27 10 48q8 18 25 33.5t49 16.5t60.5 1t50.5 -1q26 -1 47 -2q24 -4 43 -15q16 -10 29.5 -29.5t13.5 -53.5v-48t-0.5 -71t-1 -85t-0.5 -89q-1 -104 -2 -225q0 -16 -5.5 -31t-15 -27t-23 -19.5t-29.5 -7.5q-20 -1 -49 -0.5t-57 1.5q-33 1 -67 1q-48 8 -64.5 39.5
t-14.5 77.5z" />
    <glyph glyph-name="afii10081" unicode="&#x43f;" horiz-adv-x="353" 
d="M118 4q-25 -3 -43 -5q-16 -2 -29 -2.5t-11 1.5q1 1 0.5 31t-2 79t-3.5 111.5t-4 127t-4 127t-3.5 111t-1.5 78t1 29.5l320 -12l-2 -695l-83 -2q1 144 3.5 299t7.5 323l-165 1z" />
    <glyph glyph-name="afii10082" unicode="&#x440;" horiz-adv-x="324" 
d="M12 699q23 3 54 6t63.5 4t64 -2t57.5 -13.5t43 -29.5t20 -49q12 -115 0 -229q-3 -31 -25.5 -54t-52 -38t-61.5 -22.5t-55 -6.5v-265h-84z" />
    <glyph glyph-name="afii10083" unicode="&#x441;" horiz-adv-x="345" 
d="M315 593l-165 -20q-13 -1 -24 -9q-9 -7 -17 -21t-10 -40q-1 -17 -1.5 -50.5t-0.5 -74t0.5 -84t1.5 -80t3.5 -62t5.5 -31.5q5 -8 9.5 -14.5t11.5 -11t18.5 -7t29.5 -2.5t44.5 2t50.5 4q28 3 58 7l6 -84l-176 -16q-136 -12 -148 118l12 477q1 15 10 29q8 11 24 23t45 19
t63 13t65 11t55 8t34 3z" />
    <glyph glyph-name="afii10084" unicode="&#x442;" horiz-adv-x="365" 
d="M6 601v21v30t0.5 30.5t1.5 21.5l349 -6q1 -14 2 -27q1 -11 2 -23.5t1 -21.5v-13h-147q0 -157 6 -311t6 -303h-98v602h-123z" />
    <glyph glyph-name="afii10085" unicode="&#x443;" horiz-adv-x="318" 
d="M4 697l79 14l70 -241l82 229l80 -9l-60 -194q-11 -36 -22 -71t-19 -63t-13 -45l-5 -17v-13.5t-0.5 -35.5t-0.5 -49.5v-55.5q-1 -67 -1 -152l-82 1l-6 321z" />
    <glyph glyph-name="afii10086" unicode="&#x444;" horiz-adv-x="316" 
d="M110 2q0 11 1 22q0 10 0.5 22.5t1.5 26.5q1 31 3 71q-42 -1 -63 18.5t-29 42.5q-10 27 -8 62v215q0 36 15 53.5t34 24.5q21 8 49 7l2 132h95l3 -123q33 4 52 -12.5t29 -37.5t12.5 -39.5t2.5 -19.5v-11v-32.5t-0.5 -60.5t-1.5 -94q0 -28 -5 -48.5t-12.5 -34.5t-16.5 -23
t-19 -13q-23 -11 -51 -6l-10 -146l-40 2q-15 1 -28.5 1.5t-15.5 0.5z" />
    <glyph glyph-name="afii10087" unicode="&#x445;" horiz-adv-x="345" 
d="M12 690l84 19l58 -304l90 294l93 -11l-104 -350l75 -332l-79 -6l-63 250l-70 -250l-84 17l65 317z" />
    <glyph glyph-name="afii10088" unicode="&#x446;" horiz-adv-x="410" 
d="M88 697l23 -605l123 10l7 599l87 -2l-6 -302q-1 -57 -2 -111t-2 -96.5t-1.5 -68l-0.5 -25.5q0 1 13 0.5t29 -1.5q18 -1 43 -3l-4 -246l-88 2l-6 154l-296 -8l8 703h73z" />
    <glyph glyph-name="afii10089" unicode="&#x447;" horiz-adv-x="343" 
d="M8 700q-2 0 12.5 -0.5t32.5 -1.5q21 -1 49 -3l-4 -368l115 5l18 371l98 -4l-9 -700l-105 -7l-5 240h-99h-102q-1 0 -1 34.5t0.5 86.5t0.5 112.5t0.5 112.5t0 87t-1.5 35z" />
    <glyph glyph-name="afii10090" unicode="&#x448;" horiz-adv-x="563" 
d="M119 699l7 -611l100 6l-2 609h100v-615l94 10l27 605l104 -2l-21 -697l-513 -2l6 693z" />
    <glyph glyph-name="afii10091" unicode="&#x449;" horiz-adv-x="640" 
d="M105 699l17 -605l112 6l-8 601h100l-4 -605l94 4l5 603h100l1 -607l108 -2l-10 -230l-90 5l-6 133l-511 2l-6 688z" />
    <glyph glyph-name="afii10092" unicode="&#x44a;" horiz-adv-x="382" 
d="M202 361l73 2q28 -1 51 -10q19 -8 35 -23t16 -42v-209q-1 -25 -11 -43q-8 -16 -26 -29t-50 -13t-68 -0.5t-66 -0.5q-35 -1 -69 -1l7 594q-25 -2 -43 -2q-17 -1 -30 -0.5t-13 2.5v17t1 33q0 21 1 48l188 13z" />
    <glyph glyph-name="afii10093" unicode="&#x44b;" horiz-adv-x="501" 
d="M110 710l6 -341q1 1 11 2q8 1 26 1.5t51 0.5t52.5 -13t30.5 -29q12 -18 17 -42q2 -40 3 -78q1 -32 1.5 -67.5t-0.5 -61.5q-2 -26 -18.5 -41.5t-36.5 -23.5q-24 -10 -53 -13l-185 -2l4 695zM484 695l2 -695l-96 -2l-17 699z" />
    <glyph glyph-name="afii10094" unicode="&#x44c;" horiz-adv-x="294" 
d="M108 708l11 -344h21q11 0 29.5 0.5t47.5 1.5q28 1 42.5 -14.5t21.5 -34.5q8 -22 8 -51v-64q0 -28 -1 -60t-2 -60q-2 -29 -16.5 -44.5t-31.5 -23.5q-20 -10 -46 -12l-178 2l13 702z" />
    <glyph glyph-name="afii10095" unicode="&#x44d;" horiz-adv-x="339" 
d="M219 705q28 3 51 -5q20 -7 36 -25.5t17 -57.5q0 -26 0.5 -74.5t1 -107t0.5 -119.5v-111.5v-84v-37.5q0 -5 -4.5 -18t-15.5 -26t-29 -23t-45 -10h-129q-25 6 -43 17q-17 10 -30 26.5t-15 44.5q-2 27 -2 44.5t1 27.5q1 11 3 18l98 2l7 -69q4 -9 10 -16q5 -6 12 -10.5
t17 -4.5q9 0 17 0.5t14 1.5q7 1 13 2q8 5 15 15q5 8 10 21t6 33t1.5 44.5t0.5 47.5v53l-118 9l2 83l110 -6l2 88t-1 88v20.5t-2.5 19.5t-10 14.5t-23.5 5.5q-17 0 -26.5 -0.5t-15.5 -1.5q-7 -1 -10 -1q-12 -2 -22 -10q-8 -7 -14.5 -20t-6.5 -35l5 -74h-85l-9 135q0 20 8 37
q7 14 21.5 27t43.5 18z" />
    <glyph glyph-name="afii10096" unicode="&#x44e;" horiz-adv-x="567" 
d="M223 401l1 200q1 27 10 48q8 18 25 33.5t49 16.5t60.5 1t50.5 -1q26 -1 47 -2q24 -4 43 -15q16 -10 29.5 -29.5t13.5 -53.5v-48t-0.5 -71t-1 -85t-0.5 -89q-1 -104 -2 -225q0 -16 -5.5 -31t-15 -27t-23 -19.5t-29.5 -7.5q-20 -1 -49 -0.5t-57 1.5q-33 1 -67 1
q-48 8 -64.5 39.5t-14.5 77.5v185l-95 -2v-298h-114q2 172 4.5 345t8.5 356h101v-306z" />
    <glyph glyph-name="afii10097" unicode="&#x44f;" horiz-adv-x="335" 
d="M20 604q0 22 12 40t30 30t38.5 18.5t38.5 6.5h41.5t49.5 -0.5t48 -1t38 -1.5q2 -34 1 -89t-3.5 -120.5t-6 -136.5t-6.5 -137t-5.5 -122t-2.5 -91h-83v249l-123 -263q-5 2 -16 5.5t-23 7t-22 7.5t-14 8q12 29 25.5 61l27 64t26.5 63t24 58q-38 21 -66.5 54t-28.5 77v213z
" />
    <glyph glyph-name="afii10071" unicode="&#x451;" horiz-adv-x="329" 
d="M12 700q75 4 157 2t157 -2v-75h-225q-2 -25 -0.5 -71t3.5 -93.5t5 -86t4 -49.5h188v-75l-188 -25v-12q0 -29 4.5 -69t5.5 -69h203v-75h-300zM134 839l-3 -96l-86 3l2 93h87zM256 849l10 -106l-88 -2l-5 98z" />
    <glyph glyph-name="afii10099" unicode="&#x452;" horiz-adv-x="434" 
d="M3 599q-1 -2 -1 14t1 35q1 22 2 51h344l5 -90l-149 -8l9 -242l115 -7q21 -3 39 -14q15 -9 28.5 -27t15.5 -48q2 -31 4.5 -79t4.5 -95q2 -55 4 -114q-5 -31 -16 -55q-9 -21 -25 -38t-41 -17h-79l-1 87q18 0 33 1t27 1q3 0 7.5 1.5t8 6t6 13t2.5 22.5q0 7 -1.5 35t-3.5 64
t-4.5 73t-4.5 63q-1 8 -7 16t-21 9q-7 0 -21 0.5t-28 1.5q-17 1 -36 2l2 -259l-98 4l-10 588q-31 2 -55 4q-21 2 -38 2t-18 -1z" />
    <glyph glyph-name="afii10100" unicode="&#x453;" horiz-adv-x="318" 
d="M317 701v-22.5t-0.5 -25t-1.5 -24t-2 -18.5h-199v-611h-90q-5 183 -9.5 357.5t-2.5 343.5h305zM99 746l-18 51l123 112l55 -93z" />
    <glyph glyph-name="afii10101" unicode="&#x454;" horiz-adv-x="339" 
d="M254 701q28 -5 43 -18t22 -27q8 -17 8 -37l-9 -135h-85l5 74q0 22 -7 35t-15 20q-10 8 -21 10q-3 0 -10 1q-6 1 -16 1.5t-26 0.5t-23.5 -5.5t-10 -14.5t-2.5 -19.5v-20.5q-2 -44 -1 -88l2 -88l110 6l2 -83l-118 -9v-53q0 -23 0.5 -47.5t1.5 -44.5t5.5 -33t10.5 -21
q6 -10 15 -15q6 -1 13 -2q6 -1 13.5 -1.5t17.5 -0.5q9 0 16.5 4.5t12.5 10.5q6 7 10 16l7 69l98 -2q1 -7 2 -18q1 -10 1.5 -27.5t-1.5 -44.5q-2 -28 -16 -44.5t-30 -26.5q-19 -11 -42 -17h-129q-27 0 -45 10t-29 23t-15.5 26t-4.5 18v37.5v84v111.5t0.5 119.5t0.5 107
t1 74.5q1 39 17 57.5t36 25.5q23 8 51 5z" />
    <glyph glyph-name="afii10102" unicode="&#x455;" horiz-adv-x="348" 
d="M22 2l-12 95l159 -10q22 2 40 8q15 5 28 16.5t15 31.5t1.5 36t-0.5 27q-1 13 -1 24q-1 15 -6 27q-5 10 -13.5 18.5t-25.5 8.5t-33.5 0.5t-29.5 2.5q-16 1 -29 3q-26 6 -45 21q-17 13 -31 36.5t-12 62.5q1 39 1.5 74t-0.5 62q-1 32 -2 59q-1 26 7 47q7 17 23 32t50 16
q33 1 70.5 2t69.5 3l74 4l2 -116l-146 5q-17 -2 -29 -9q-11 -6 -20 -18t-9 -33q-1 -21 -1 -41t-1 -36q-1 -18 -1 -34q-1 -13 3 -24q4 -9 13 -17t27 -10q21 -2 40.5 -2.5t33.5 -0.5q17 0 32 1q19 1 35 -9q14 -8 25 -28t11 -61t-0.5 -76.5t-1.5 -62.5q-1 -32 -1 -58
q-2 -20 -13 -36q-9 -14 -26.5 -25t-49.5 -12z" />
    <glyph glyph-name="afii10104" unicode="&#x457;" horiz-adv-x="227" 
d="M56 0q2 172 4.5 345t8.5 356h101v-701h-114zM92 853l-3 -96l-86 3l2 93h87zM214 863l10 -106l-88 -2l-5 98z" />
    <glyph glyph-name="afii10105" unicode="&#x458;" horiz-adv-x="319" 
d="M272 699q10 -118 17 -224q3 -45 5.5 -93t4 -92.5t2 -83t-1.5 -66.5q-4 -56 -26.5 -85.5t-48.5 -42.5q-30 -16 -67 -16l-152 10l-4 86q12 1 29 1q14 0 36 -1t51 -6t44.5 6.5t23.5 26.5q9 18 10 42l-13 536z" />
    <glyph glyph-name="afii10106" unicode="&#x459;" horiz-adv-x="634" 
d="M358 2v609h-102l-2 -420q-2 -36 -17.5 -70.5t-40 -61.5t-54 -44t-57.5 -17l-78 -2l6 87l53 2q15 0 32.5 7t31.5 20.5t24 34t10 47.5v42v67t-0.5 82.5t-0.5 88.5q-1 104 -1 227l283 2l9 -339h21q11 0 29.5 0.5t47.5 1.5q28 1 42.5 -14.5t21.5 -34.5q8 -22 8 -51v-64
q0 -28 -1 -60t-2 -60q-2 -29 -16.5 -44.5t-31.5 -23.5q-20 -10 -46 -12h-169z" />
    <glyph glyph-name="afii10107" unicode="&#x45a;" horiz-adv-x="504" 
d="M219 264l-94 6l-6 -266q-25 -3 -43 -5q-16 -2 -29 -2.5t-11 1.5q1 1 0.5 31t-2 79t-3.5 111.5t-4 127t-4 127t-3.5 111t-1.5 78t1 29.5q2 0 15 -0.5t27 -0.5q17 -1 37 -1l19 -338l106 -6l30 359h72v-340h21q11 0 29.5 0.5t47.5 1.5q28 1 42.5 -14.5t21.5 -34.5
q8 -22 8 -51v-64q0 -28 -1 -60t-2 -60q-2 -29 -16.5 -44.5t-31.5 -23.5q-20 -10 -46 -12l-158 5z" />
    <glyph glyph-name="afii10108" unicode="&#x45b;" horiz-adv-x="458" 
d="M7 590l2 105l344 6l7 -102l-157 -3l11 -248l104 -4q36 -1 65 -13q24 -11 44.5 -35t19.5 -69q-1 -46 -1 -87.5v-73.5q0 -38 1 -70h-88l3 189q0 18 -12 39t-34 25q-11 2 -28.5 2.5t-34.5 1.5q-20 1 -42 1l4 -251l-106 1l9 586h-111z" />
    <glyph glyph-name="afii10110" unicode="&#x45e;" horiz-adv-x="318" 
d="M4 697l79 14l70 -241l82 229l80 -9l-60 -194q-11 -36 -22 -71t-19 -63t-13 -45l-5 -17v-13.5t-0.5 -35.5t-0.5 -49.5v-55.5q-1 -67 -1 -152l-82 1l-6 321zM160 720l-155 105l24 71l114 -71l99 71l51 -56z" />
    <glyph glyph-name="afii10193" unicode="&#x45f;" horiz-adv-x="332" 
d="M99 703l15 -599l106 -4l4 607l96 -4l-4 -699l-100 -10l-6 -123l-100 4v129h-98v697z" />
    <glyph glyph-name="quoteleft" unicode="&#x2018;" horiz-adv-x="190" 
d="M123 734q-8 -11 -12.5 -22.5t-6.5 -21.5q-3 -11 -4 -23l47 -1l2 -99l-103 -3v101q1 21 5 42q3 17 10 36.5t20 33.5z" />
    <glyph glyph-name="quoteright" unicode="&#x2019;" horiz-adv-x="190" 
d="M72 607q8 11 12.5 22.5t6.5 21.5q3 11 4 23l-47 1l-2 99l103 3v-101q-1 -23 -5 -43q-4 -18 -10.5 -36.5t-19.5 -32.5z" />
    <glyph glyph-name="quotedblleft" unicode="&#x201c;" horiz-adv-x="320" 
d="M128 732q-8 -11 -13.5 -22.5t-7.5 -21.5q-4 -11 -4 -23l47 -2l-1 -99h-103l3 100q2 21 6 42q4 17 11 36.5t21 33.5zM260 745q-8 -11 -12.5 -22.5t-6.5 -21.5q-3 -11 -4 -23l47 -1l2 -99l-103 -3v101q1 21 5 42q3 17 10 36.5t20 33.5z" />
    <glyph glyph-name="quotedblright" unicode="&#x201d;" horiz-adv-x="320" 
d="M204 620q8 11 13 22.5t8 21.5q3 11 4 23l-47 2l1 99h103l-3 -100q-2 -23 -6 -43q-4 -18 -11.5 -36.5t-20.5 -32.5zM72 607q8 11 12.5 22.5t6.5 21.5q3 11 4 23l-47 1l-2 99l103 3v-101q-1 -23 -5 -43q-4 -18 -10.5 -36.5t-19.5 -32.5z" />
    <glyph glyph-name="Euro" unicode="&#x20ac;" horiz-adv-x="419" 
d="M405 605q-33 0 -65 -1q-27 -1 -56.5 -2t-49.5 -3t-29.5 -9.5t-13.5 -15.5q-4 -10 -3 -21l2 -67h112l-6 -102h-104l4 -71h102l-4 -100h-90q-2 8 -2 6q-1 -2 0 -13.5t4 -40.5q3 -30 13.5 -44.5t21.5 -19.5q13 -6 30 -5l142 4l-2 -85q-29 -1 -62 -2q-28 -1 -64 -2t-74 -3
t-58 14.5t-29 36.5q-11 24 -11 54l-7 98l-81 2l-2 87l83 7l-4 81l-77 2l-4 90l79 4q-2 14 -3 33q-3 33 -3 96q0 31 17 47.5t37 23.5q24 8 54 8l206 2z" />
    <glyph glyph-name="Imacron" horiz-adv-x="186" 
d="M32 0q2 172 4.5 345t8.5 356h101v-701h-114zM-37 830l245 6v-94l-244 1z" />
    </font>
</defs>
</svg>
