<?xml version="1.0" standalone="no"?>
<!DOCTYPE svg PUBLIC "-//W3C//DTD SVG 1.1//EN" "http://www.w3.org/Graphics/SVG/1.1/DTD/svg11.dtd" >
<svg xmlns="http://www.w3.org/2000/svg" xmlns:xlink="http://www.w3.org/1999/xlink" version="1.1">
<metadata>
Created by FontForge 20170731 at Fri May 12 16:55:00 2006
 By Aleksey,,,
Copyright (c) 1985, 1987, 1988, 1994, 1999, 2002 Adobe Systems Incorporated.  All Rights Reserved. (c) 1981, 1999, 2002 Heidelberger Druckmaschinen AG. All rights reserved.
</metadata>
<defs>
<font id="HelveticaLTStd-LightObl" horiz-adv-x="556" >
  <font-face 
    font-family="Helvetica LT Std Light"
    font-weight="300"
    font-style="italic"
    font-stretch="normal"
    units-per-em="1000"
    panose-1="2 11 4 3 2 2 2 2 2 4"
    ascent="718"
    descent="-282"
    x-height="518"
    cap-height="720"
    bbox="-167 -273 1110 979"
    underline-thickness="50"
    underline-position="-200"
    slope="-12"
    unicode-range="U+0020-FB02"
  />
<missing-glyph horiz-adv-x="648" 
d="M148 0v700h500v-700h-500zM398 395l170 255h-340zM428 350l170 -255v510zM228 50h340l-170 255zM198 605v-510l170 255z" />
    <glyph glyph-name="fi" unicode="fi" horiz-adv-x="500" 
d="M191 468h-79l11 50h79l18 82q28 134 138 134q29 0 49 -4l-12 -55q-18 5 -34 5q-22 0 -37.5 -8t-24.5 -24.5t-13.5 -30t-9.5 -35.5l-14 -64h98l-11 -50h-98l-99 -468h-60zM432 0h-60l110 518h60zM588 720l-19 -89h-66l19 89h66z" />
    <glyph glyph-name="fl" unicode="fl" horiz-adv-x="500" 
d="M191 468h-79l11 50h79l18 82q28 134 138 134q29 0 49 -4l-12 -55q-18 5 -34 5q-22 0 -37.5 -8t-24.5 -24.5t-13.5 -30t-9.5 -35.5l-14 -64h98l-11 -50h-98l-99 -468h-60zM432 0h-60l153 720h60z" />
    <glyph glyph-name=".notdef" horiz-adv-x="648" 
d="M148 0v700h500v-700h-500zM398 395l170 255h-340zM428 350l170 -255v510zM228 50h340l-170 255zM198 605v-510l170 255z" />
    <glyph glyph-name=".null" horiz-adv-x="0" 
 />
    <glyph glyph-name="nonmarkingreturn" horiz-adv-x="333" 
 />
    <glyph glyph-name="space" unicode=" " horiz-adv-x="278" 
 />
    <glyph glyph-name="exclam" unicode="!" horiz-adv-x="333" 
d="M182 181l53 315l48 224h73l-48 -224l-81 -315h-45zM203 0h-73l19 88h73z" />
    <glyph glyph-name="quotedbl" unicode="&#x22;" horiz-adv-x="278" 
d="M162 494l48 226h52l-48 -226h-52zM273 494l48 226h52l-48 -226h-52z" />
    <glyph glyph-name="numbersign" unicode="#" 
d="M565 287l-13 -59h-111l-80 -228h-59l79 228h-137l-82 -228h-59l82 228h-110l13 59h119l51 140h-112l12 59h120l77 212h60l-77 -212h136l76 212h59l-76 -212h100l-12 -59h-108l-50 -140h102zM454 427h-136l-52 -140h138z" />
    <glyph glyph-name="dollar" unicode="$" 
d="M339 394l54 257q-57 0 -103 -35t-58 -90q-13 -60 15 -86.5t92 -45.5zM370 322l-61 -287q63 0 116.5 41.5t66.5 103.5q14 68 -17.5 97t-104.5 45zM298 -19l-16 -76h-46l16 76q-85 5 -131 48t-46 125q0 9 5 49h65q-14 -68 18.5 -116t98.5 -52l64 297q-29 7 -50 14.5t-44 19
t-35 25t-24 33t-11 43.5t5 56q18 82 87 133t152 49l13 61h46l-13 -61q84 1 128 -46t29 -130h-65q11 54 -19 88t-85 34l-56 -266q30 -7 50.5 -13.5t42.5 -16.5t36 -20.5t26 -26.5t17 -35.5t5 -45.5t-7 -58q-18 -83 -94 -134.5t-162 -53.5z" />
    <glyph glyph-name="percent" unicode="%" horiz-adv-x="889" 
d="M728 331q68 0 105 -48.5t23 -116.5q-14 -69 -71.5 -117.5t-126.5 -48.5q-68 0 -106.5 49t-24.5 117q14 67 73.5 116t127.5 49zM715 274q-45 0 -83 -32.5t-48 -77.5q-9 -43 16.5 -75t68.5 -32t82 32.5t48 76.5q10 43 -15 75.5t-69 32.5zM511 532q-14 -68 -73.5 -116.5
t-127.5 -48.5t-106 48.5t-24 116.5t73 117t127 49t106.5 -49t24.5 -117zM322 424q44 0 83.5 32.5t48.5 75.5q9 44 -16.5 76.5t-69.5 32.5t-82.5 -32.5t-48.5 -76.5q-9 -44 16 -76t69 -32zM818 705l-550 -719h-52l550 719h52z" />
    <glyph glyph-name="ampersand" unicode="&#x26;" horiz-adv-x="667" 
d="M482 131l-153 244q-68 -29 -118 -78.5t-62 -106.5q-15 -70 22 -112.5t107 -42.5q103 0 204 96zM493 540q16 29 17.5 57t-19 48.5t-56.5 20.5q-39 0 -72.5 -24t-42.5 -62q-10 -47 47 -135q33 18 48 26.5t39.5 28t38.5 40.5zM392 400l136 -214q41 52 59 140h59
q-31 -119 -90 -188l88 -138h-81l-52 85q-58 -55 -117 -79.5t-132 -24.5q-96 0 -148 59.5t-32 154.5q30 142 220 223q-58 87 -43 161q14 66 68.5 103.5t123.5 37.5q66 0 100 -40.5t21 -98.5q-7 -34 -23 -61t-44.5 -49.5t-49.5 -35.5t-63 -35z" />
    <glyph glyph-name="quotesingle" unicode="'" horiz-adv-x="222" 
d="M190 494l48 226h52l-48 -226h-52z" />
    <glyph glyph-name="parenleft" unicode="(" horiz-adv-x="333" 
d="M383 739h51q-201 -224 -252 -468q-50 -232 54 -462h-51q-31 61 -49.5 111.5t-30 107t-9 117.5t17.5 131q28 131 93.5 240t175.5 223z" />
    <glyph glyph-name="parenright" unicode=")" horiz-adv-x="333" 
d="M66 -191h-51q200 221 253 468q49 235 -55 462h51q42 -81 62.5 -146t26 -149t-16.5 -172q-28 -131 -93.5 -239.5t-176.5 -223.5z" />
    <glyph glyph-name="asterisk" unicode="*" horiz-adv-x="389" 
d="M199 646l102 -43l25 117h42l-25 -117l123 42l6 -44l-122 -37l52 -106l-44 -24l-51 108l-100 -106l-30 27l99 101l-104 40z" />
    <glyph glyph-name="plus" unicode="+" horiz-adv-x="660" 
d="M360 280l46 220h60l-46 -220h220l-13 -60h-220l-47 -220h-60l47 220h-220l13 60h220z" />
    <glyph glyph-name="comma" unicode="," horiz-adv-x="278" 
d="M194 88l-25 -118q-9 -42 -35 -69.5t-61 -37.5l8 37q38 21 48 66l7 34h-34l19 88h73z" />
    <glyph glyph-name="hyphen" unicode="-" horiz-adv-x="333" 
d="M102 291h253l-13 -62h-253z" />
    <glyph glyph-name="period" unicode="." horiz-adv-x="278" 
d="M175 0h-73l19 88h73z" />
    <glyph glyph-name="slash" unicode="/" horiz-adv-x="278" 
d="M445 739l-411 -829h-56l411 829h56z" />
    <glyph glyph-name="zero" unicode="0" 
d="M526 347q13 64 16.5 113t-4.5 95t-39.5 71t-84.5 25q-173 0 -239 -311q-18 -92 -18 -158.5t32.5 -104t97.5 -37.5q44 0 80.5 19t61 47.5t44.5 71.5t31.5 82t21.5 87zM428 705q51 0 87 -15t55 -43.5t29 -62t9.5 -77.5t-5.5 -82.5t-15 -84.5q-16 -76 -39 -135t-59 -111
t-90.5 -80t-124.5 -28t-113 28t-57 80.5t-11.5 113t19.5 139.5q13 59 28 106.5t41 96t58.5 81.5t80.5 53.5t107 20.5z" />
    <glyph glyph-name="one" unicode="1" 
d="M302 0l111 524h-182l9 42q95 6 144 31t81 108h51l-150 -705h-64z" />
    <glyph glyph-name="two" unicode="2" 
d="M238 474h-68q22 104 98 167.5t180 63.5q103 0 148 -55t27 -140q-11 -53 -41 -96t-73.5 -73.5t-84.5 -52.5t-93 -47.5t-81 -44.5q-49 -32 -80 -64t-43 -78h393l-11 -54h-461q24 109 92 172q58 54 135 99.5t128 69.5t94.5 66t55.5 99q14 67 -22 106t-103 39
q-68 0 -123 -52.5t-67 -124.5z" />
    <glyph glyph-name="three" unicode="3" 
d="M293 340l11 52q98 -1 156.5 29t74.5 106q13 62 -22.5 93t-101.5 31q-67 0 -118 -42.5t-65 -108.5h-64q21 94 102 158q61 47 170 47q88 0 135 -44.5t29 -129.5q-25 -115 -134 -157q116 -39 89 -174q-19 -90 -93 -150.5t-180 -63.5q-124 0 -171.5 48.5t-33.5 169.5h64
q-16 -79 22.5 -121.5t118.5 -42.5q75 0 136.5 48t71.5 111q15 81 -40 114.5t-157 26.5z" />
    <glyph glyph-name="four" unicode="4" 
d="M358 0l37 174h-322l12 55l427 469h58l-100 -470h98l-11 -54h-98l-37 -174h-64zM486 602l-339 -374h259z" />
    <glyph glyph-name="five" unicode="5" 
d="M74 183h64q-5 -69 34 -106t110 -37q77 0 134 51.5t73 128.5q17 80 -20.5 129.5t-116.5 49.5q-97 0 -169 -73l-51 7l134 365h350l-11 -54h-296l-94 -237q46 27 81 36.5t83 9.5q99 0 148 -63t26 -170t-102 -170.5t-171 -63.5q-108 0 -164 46.5t-42 150.5z" />
    <glyph glyph-name="six" unicode="6" 
d="M616 532h-66q1 56 -26.5 87.5t-82.5 31.5q-36 0 -67.5 -11.5t-54 -27.5t-43.5 -45.5t-34 -52.5t-27.5 -61.5t-21 -60.5t-17.5 -60q34 36 55 54.5t63 37t90 18.5q106 0 152.5 -60.5t23.5 -166.5q-23 -107 -95.5 -168t-179.5 -61q-114 0 -163.5 80t-11.5 257
q11 54 28.5 104t46 102t64.5 90t87 62t111 24q85 0 131 -45t38 -128zM370 388q-72 0 -126 -50.5t-70 -124.5q-15 -68 14.5 -120.5t109.5 -52.5q82 0 132.5 52t65.5 125q36 171 -126 171z" />
    <glyph glyph-name="seven" unicode="7" 
d="M194 634l13 64h449l-12 -60q-170 -155 -279 -333t-143 -305h-70q41 147 160 325t254 309h-372z" />
    <glyph glyph-name="eight" unicode="8" 
d="M352 345q-77 0 -132 -38t-71 -113q-14 -67 25 -110.5t118 -43.5q71 0 127 44t71 114q15 71 -24.5 109t-113.5 38zM414 651q-62 0 -109.5 -33.5t-60.5 -93.5q-13 -62 23.5 -93.5t100.5 -31.5q62 0 106 34t59 105q11 54 -18.5 83.5t-100.5 29.5zM248 379q-49 36 -64 65.5
t-2 88.5q16 73 86 124t152 48q89 0 141.5 -43.5t34.5 -128.5q-23 -111 -129 -158q54 -21 77.5 -67.5t10.5 -107.5q-22 -102 -101 -158t-193 -56q-85 0 -140.5 55.5t-35.5 152.5q14 64 56.5 113t106.5 72z" />
    <glyph glyph-name="nine" unicode="9" 
d="M86 155h65q-2 -115 113 -115q48 0 88.5 21t66.5 51.5t48.5 76.5t34.5 82t24 82l-2 2q-90 -110 -213 -110q-99 0 -145.5 62t-24.5 165q23 105 94.5 169t182.5 64q247 0 171 -356q-37 -174 -128 -268.5t-206 -94.5q-86 0 -132 43t-37 126zM406 651q-80 -1 -131.5 -49
t-69.5 -132q-17 -80 16.5 -125.5t110.5 -45.5q73 0 126 50.5t69 124.5q17 79 -15.5 127.5t-105.5 49.5z" />
    <glyph glyph-name="colon" unicode=":" horiz-adv-x="278" 
d="M175 0h-73l19 88h73zM261 404h-73l19 88h73z" />
    <glyph glyph-name="semicolon" unicode=";" horiz-adv-x="278" 
d="M194 88l-25 -118q-9 -42 -35 -69.5t-61 -37.5l8 37q38 21 48 66l7 34h-34l19 88h73zM261 404h-73l19 88h73z" />
    <glyph glyph-name="less" unicode="&#x3c;" horiz-adv-x="660" 
d="M213 255l379 -197l-13 -64l-450 235l11 53l547 223l-13 -64z" />
    <glyph glyph-name="equal" unicode="=" horiz-adv-x="660" 
d="M660 378l-12 -60h-500l12 60h500zM619 184l-13 -60h-500l13 60h500z" />
    <glyph glyph-name="greater" unicode="&#x3e;" horiz-adv-x="660" 
d="M640 282l-11 -53l-550 -235l13 64l463 197l-381 186l13 64z" />
    <glyph glyph-name="question" unicode="?" horiz-adv-x="500" 
d="M313 182h-58q12 64 31.5 106t62.5 80q15 13 53.5 43t57.5 47t39.5 44.5t26.5 53.5q12 56 -22 92.5t-106 36.5t-124 -48t-65 -121h-61q13 98 88.5 160.5t174.5 62.5q101 0 148.5 -51t29.5 -137q-9 -40 -36.5 -75.5t-58 -58t-71 -55.5t-64.5 -61q-29 -35 -46 -119zM283 0
h-73l19 88h73z" />
    <glyph glyph-name="at" unicode="@" horiz-adv-x="800" 
d="M719 167h59q-64 -86 -163.5 -136t-199.5 -50q-160 0 -246 111.5t-52 270.5q33 155 167.5 265.5t287.5 110.5q145 0 226 -90t52 -226q-25 -115 -118.5 -203.5t-176.5 -88.5q-29 0 -50.5 13.5t-24.5 38.5q-60 -50 -130 -50q-63 0 -91.5 43t-15.5 107q24 109 116 206t197 97
q36 0 63 -17.5t35 -48.5l24 46h67l-165 -302q-10 -19 -15.5 -31.5t-8 -25t3.5 -18.5t20 -6q60 0 126.5 80t84.5 163q25 118 -42.5 190.5t-185.5 72.5q-137 0 -247.5 -97.5t-139.5 -235.5q-29 -136 43 -230.5t207 -94.5q78 0 156.5 36t136.5 100zM379 196q63 1 133 91.5
t86 166.5q7 30 -8 51.5t-45 21.5q-73 0 -140.5 -80.5t-84.5 -158.5q-8 -38 7 -65t52 -27z" />
    <glyph glyph-name="A" unicode="A" horiz-adv-x="667" 
d="M85 0h-70l436 720h77l123 -720h-70l-35 226h-328zM475 662l-222 -378h282z" />
    <glyph glyph-name="B" unicode="B" horiz-adv-x="667" 
d="M222 344l-61 -286h173q121 0 177 28t74 117q17 83 -29 112t-153 29h-181zM290 662l-56 -260h172q102 0 152.5 34t65.5 103q14 68 -25.5 95.5t-151.5 27.5h-157zM375 0h-294l153 720h260q122 0 169 -48t29 -133q-15 -70 -56.5 -108.5t-91.5 -46.5l-1 -2q70 -11 97.5 -58.5
t12.5 -120.5q-43 -203 -278 -203z" />
    <glyph glyph-name="C" unicode="C" horiz-adv-x="722" 
d="M771 511h-70q-1 90 -48.5 130t-142.5 40q-83 0 -150.5 -45t-107.5 -115t-59 -159q-11 -51 -13 -95.5t7.5 -87.5t31.5 -73t62.5 -48.5t97.5 -18.5q90 0 160 54t110 144h71q-51 -116 -141 -186t-225 -70q-81 0 -136 30.5t-78.5 82.5t-28.5 121t14 145q41 196 151.5 287.5
t263.5 91.5q113 0 175 -59t56 -169z" />
    <glyph glyph-name="D" unicode="D" horiz-adv-x="722" 
d="M327 0h-246l153 720h246q72 0 122 -10.5t89 -43.5q37 -32 53.5 -89t14.5 -109t-13 -107q-37 -177 -145 -273q-98 -88 -274 -88zM290 662l-129 -604h163q107 0 176 33q133 61 178 270q43 208 -66 274q-45 27 -159 27h-163z" />
    <glyph glyph-name="E" unicode="E" horiz-adv-x="611" 
d="M570 0h-489l153 720h479l-12 -58h-411l-56 -260h371l-12 -58h-371l-61 -286h421z" />
    <glyph glyph-name="F" unicode="F" 
d="M142 0h-68l153 720h464l-12 -58h-396l-56 -260h360l-12 -58h-360z" />
    <glyph glyph-name="G" unicode="G" horiz-adv-x="778" 
d="M697 314h-243l12 58h308l-79 -372h-58l26 123q-112 -142 -299 -142q-142 0 -207.5 98.5t-26.5 284.5q36 167 143 271t270 104q117 0 185.5 -58t67.5 -170h-70q-1 79 -54 124.5t-136 45.5q-137 0 -223 -92t-120 -252q-27 -125 25.5 -211.5t171.5 -86.5q65 0 131 30.5
t113 95.5q40 55 63 149z" />
    <glyph glyph-name="H" unicode="H" horiz-adv-x="722" 
d="M148 0h-68l153 720h68l-66 -309h426l66 309h68l-153 -720h-68l75 353h-426z" />
    <glyph glyph-name="I" unicode="I" horiz-adv-x="278" 
d="M173 0h-68l153 720h68z" />
    <glyph glyph-name="J" unicode="J" horiz-adv-x="500" 
d="M70 228h68q-7 -33 -10.5 -54.5t-2 -49t11 -43t33 -27t59.5 -11.5q68 0 106 39t54 117l111 521h68l-111 -523q-47 -216 -249 -216q-47 0 -79 14t-47.5 36t-21 55.5t-2.5 66.5t12 75z" />
    <glyph glyph-name="K" unicode="K" horiz-adv-x="667" 
d="M153 0h-68l153 720h68l-79 -373l448 373h77l-345 -287l242 -433h-83l-217 391l-137 -113z" />
    <glyph glyph-name="L" unicode="L" 
d="M535 0h-454l153 720h68l-141 -662h386z" />
    <glyph glyph-name="M" unicode="M" horiz-adv-x="833" 
d="M146 0h-68l153 720h104l101 -635h2l367 635h103l-153 -720h-68l136 642h-2l-372 -642h-64l-101 642h-2z" />
    <glyph glyph-name="N" unicode="N" horiz-adv-x="722" 
d="M563 0l-281 628h-2l-133 -628h-68l153 720h77l282 -629h2l134 629h68l-153 -720h-79z" />
    <glyph glyph-name="O" unicode="O" horiz-adv-x="778" 
d="M129 359q34 164 145.5 272t267.5 108q162 0 227.5 -107t30.5 -273q-35 -163 -145.5 -270.5t-270.5 -107.5q-81 0 -139.5 30t-87.5 81.5t-38 120t10 146.5zM397 39q132 0 219.5 91.5t115.5 228.5q32 150 -21.5 236t-178.5 86q-131 0 -218.5 -93t-116.5 -229
q-16 -64 -10.5 -122t26.5 -102t68.5 -70t115.5 -26z" />
    <glyph glyph-name="P" unicode="P" horiz-adv-x="611" 
d="M146 0h-68l153 720h263q235 0 192 -201q-12 -58 -44.5 -99t-78.5 -62.5t-93.5 -30.5t-101.5 -9h-154zM226 376h156q104 0 161.5 31t75.5 117q15 68 -23 103t-133 35h-176z" />
    <glyph glyph-name="Q" unicode="Q" horiz-adv-x="778" 
d="M625 68l81 -74l-48 -46l-89 82q-87 -49 -190 -49q-81 0 -139.5 30t-87.5 81.5t-38 120t10 146.5q16 76 51.5 144t86.5 121t122.5 84t152.5 31q155 0 225.5 -100t32.5 -280q-38 -185 -170 -291zM502 181l82 -74q108 86 143 252q33 156 -23.5 239t-176.5 83
q-67 0 -125 -26.5t-99 -72.5t-69 -102.5t-42 -120.5q-16 -64 -10.5 -122t26.5 -102t68.5 -70t115.5 -26q72 0 133 32l-69 63z" />
    <glyph glyph-name="R" unicode="R" horiz-adv-x="667" 
d="M230 385h212q81 0 137.5 35.5t71.5 107.5q8 39 0 66.5t-30.5 41.5t-50.5 20t-65 6h-216zM432 327h-214l-70 -327h-68l153 720h282q121 0 173.5 -45.5t31.5 -143.5q-14 -67 -50 -107.5t-105 -68.5q28 -10 43 -30.5t17 -51t0 -53.5t-9 -60q-14 -79 -14.5 -112.5t11.5 -40.5
l-1 -7h-75q-10 27 2 117q17 114 17 122q0 53 -32 70.5t-92 17.5z" />
    <glyph glyph-name="S" unicode="S" horiz-adv-x="611" 
d="M89 215h66q-12 -92 34 -134t135 -42q91 0 146 42.5t69 106.5q8 40 -4.5 68t-40.5 42t-65 26.5t-76.5 20t-75.5 22.5t-63 35t-38 56.5t0 87.5q17 80 93.5 136.5t191.5 56.5q116 0 166.5 -61t29.5 -154h-65q17 78 -25.5 117.5t-117.5 39.5q-96 0 -151.5 -48.5t-58.5 -110.5
q-2 -37 20.5 -61.5t59 -37t80.5 -22t86 -22t74 -33t46.5 -59.5t2.5 -96q-21 -99 -102.5 -154.5t-205.5 -55.5q-117 0 -176 60.5t-35 173.5z" />
    <glyph glyph-name="T" unicode="T" 
d="M157 662l12 58h524l-12 -58h-228l-141 -662h-68l141 662h-228z" />
    <glyph glyph-name="U" unicode="U" horiz-adv-x="722" 
d="M140 271l95 449h68l-91 -429q-28 -133 9 -192.5t148 -59.5q114 0 175.5 61t89.5 191l91 429h68l-95 -449q-30 -141 -116.5 -215.5t-224.5 -74.5q-139 0 -193 75t-24 215z" />
    <glyph glyph-name="V" unicode="V" horiz-adv-x="611" 
d="M268 0l-97 720h71l81 -640l352 640h71l-403 -720h-75z" />
    <glyph glyph-name="W" unicode="W" horiz-adv-x="889" 
d="M635 720l31 -624h2l290 624h70l-342 -720h-75l-32 636h-2l-302 -636h-75l-33 720h68l22 -624h2l300 624h76z" />
    <glyph glyph-name="X" unicode="X" horiz-adv-x="611" 
d="M514 0l-142 318l-277 -318h-77l327 370l-164 350h79l133 -303l262 303h79l-310 -350l168 -370h-78z" />
    <glyph glyph-name="Y" unicode="Y" horiz-adv-x="611" 
d="M243 720l138 -347l291 347h79l-347 -406l-67 -314h-68l66 309l-170 411h78z" />
    <glyph glyph-name="Z" unicode="Z" horiz-adv-x="611" 
d="M579 0h-548l12 57l590 605h-422l12 58h506l-12 -57l-590 -605h464z" />
    <glyph glyph-name="bracketleft" unicode="[" horiz-adv-x="333" 
d="M239 -191h-189l198 930h191l-11 -50h-127l-176 -830h125z" />
    <glyph glyph-name="backslash" unicode="\" horiz-adv-x="278" 
d="M206 -90l-59 829h56l59 -829h-56z" />
    <glyph glyph-name="bracketright" unicode="]" horiz-adv-x="333" 
d="M399 739l-198 -930h-191l11 50h127l176 830h-125l11 50h189z" />
    <glyph glyph-name="asciicircum" unicode="^" horiz-adv-x="660" 
d="M183 245h-58l326 453h52l135 -453h-57l-118 392z" />
    <glyph glyph-name="underscore" unicode="_" horiz-adv-x="500" 
d="M-16 -75h500l-11 -50h-500z" />
    <glyph glyph-name="grave" unicode="`" horiz-adv-x="333" 
d="M305 574l-108 139h78l81 -139h-51z" />
    <glyph glyph-name="a" unicode="a" 
d="M452 191l17 81q-56 -21 -161 -29q-149 -11 -170 -110q-9 -45 19 -69t74 -24q78 0 141.5 38.5t79.5 112.5zM289 291l85 11q53 5 83 17q23 9 33 54q10 49 -14.5 77t-91.5 28t-111 -26.5t-65 -90.5h-61q25 87 91.5 129t157.5 42q86 0 129 -38t25 -123l-60 -282
q-8 -36 3 -44.5t51 4.5l-10 -47q-30 -10 -49 -10q-13 0 -26 3q-44 7 -32 77q-95 -86 -211 -86q-73 0 -115 39t-26 110q27 132 214 156z" />
    <glyph glyph-name="b" unicode="b" horiz-adv-x="611" 
d="M194 261q-20 -97 13.5 -159t115.5 -62q78 0 138.5 54t81.5 149q25 103 -6.5 169t-120.5 66q-79 0 -141 -63t-81 -154zM158 91l-19 -91h-60l153 720h60l-61 -285q38 46 94 71.5t112 25.5q112 0 155 -78.5t18 -195.5q-26 -123 -99.5 -197.5t-192.5 -74.5q-52 0 -97.5 28
t-60.5 77h-2z" />
    <glyph glyph-name="c" unicode="c" 
d="M575 355h-61q-3 59 -35.5 91t-91.5 32q-86 0 -144 -65t-77 -155q-10 -41 -7 -80t16 -70t43.5 -49.5t75.5 -18.5q66 0 115 37t73 102h64q-35 -90 -102.5 -141.5t-161.5 -51.5q-118 0 -162 75.5t-18 196.5q24 114 104.5 194t191.5 80q91 0 137 -44.5t40 -132.5z" />
    <glyph glyph-name="d" unicode="d" horiz-adv-x="611" 
d="M527 261q19 91 -15 154t-113 63q-89 0 -149.5 -66.5t-77.5 -168.5q-20 -95 18 -149t116 -54q82 0 141.5 62t79.5 159zM564 435l61 285h60l-153 -720h-60l19 91h-2q-35 -49 -92.5 -77t-109.5 -28q-119 0 -160.5 74.5t-15.5 197.5q25 117 101 195.5t188 78.5
q57 0 101.5 -25.5t62.5 -71.5z" />
    <glyph glyph-name="e" unicode="e" 
d="M172 295h338q17 80 -15 131.5t-110 51.5q-75 0 -130.5 -52t-82.5 -131zM563 245h-402q-20 -88 14 -146.5t117 -58.5q59 0 108 31.5t74 87.5h67q-90 -173 -261 -173q-119 0 -162.5 74.5t-17.5 196.5q25 117 106.5 196t189.5 79t152.5 -74.5t14.5 -212.5z" />
    <glyph glyph-name="f" unicode="f" horiz-adv-x="278" 
d="M196 468h-77l11 50h77l18 82q28 134 138 134q29 0 49 -4l-12 -55q-18 5 -34 5q-22 0 -37.5 -8t-24.5 -24.5t-13.5 -30t-9.5 -35.5l-14 -64h100l-11 -50h-100l-99 -468h-60z" />
    <glyph glyph-name="g" unicode="g" horiz-adv-x="611" 
d="M527 257q20 97 -13 159t-115 62q-78 0 -139 -54t-82 -149q-25 -103 7 -169t121 -66q79 0 140.5 63t80.5 154zM563 427l19 91h60l-99 -468q-12 -56 -32 -100t-54 -82.5t-88 -59t-125 -20.5q-104 0 -150 47t-37 102h64q1 -95 134 -95q59 0 102 20t69 57t40 75t24 89
q-38 -46 -94 -71.5t-112 -25.5q-112 0 -155 78.5t-18 195.5q26 123 99.5 197.5t192.5 74.5q52 0 97.5 -28t60.5 -77h2z" />
    <glyph glyph-name="h" unicode="h" 
d="M132 0h-60l153 720h60l-58 -274q50 43 92.5 64.5t92.5 21.5q108 0 142 -74q18 -39 1 -119l-72 -339h-60l72 338q15 71 -9 105.5t-95 34.5q-53 0 -97.5 -29t-68.5 -72q-20 -35 -34 -98z" />
    <glyph glyph-name="i" unicode="i" horiz-adv-x="222" 
d="M141 0h-60l110 518h60zM278 631h-66l19 89h66z" />
    <glyph glyph-name="j" unicode="j" horiz-adv-x="222" 
d="M198 518h60l-125 -587q-15 -74 -40 -104.5t-92 -30.5q-22 0 -39 4l12 53q48 -6 68 10.5t30 59.5zM304 720l-19 -89h-66l19 89h66z" />
    <glyph glyph-name="k" unicode="k" horiz-adv-x="500" 
d="M128 0h-60l153 720h60l-95 -448l306 246h82l-234 -187l147 -331h-67l-133 289l-117 -93z" />
    <glyph glyph-name="l" unicode="l" horiz-adv-x="222" 
d="M141 0h-60l153 720h60z" />
    <glyph glyph-name="m" unicode="m" horiz-adv-x="833" 
d="M183 279l-59 -279h-60l110 518h60l-16 -78h2q32 44 80 68t99 24q66 0 94 -26t37 -74q72 100 190 100q41 0 68.5 -11.5t40.5 -30t17 -47t1.5 -55t-9.5 -61.5l-70 -327h-60l76 358q13 59 -5.5 89.5t-79.5 30.5q-72 0 -130 -59q-44 -46 -64 -140l-59 -279h-60l76 358
q13 59 -5.5 89.5t-79.5 30.5q-72 0 -130 -59q-44 -46 -64 -140z" />
    <glyph glyph-name="n" unicode="n" 
d="M191 279l-59 -279h-60l110 518h60l-15 -72q50 43 92.5 64.5t92.5 21.5q108 0 142 -74q18 -39 1 -119l-72 -339h-60l72 338q15 71 -9 105.5t-95 34.5q-53 0 -97.5 -29t-68.5 -72q-20 -35 -34 -98z" />
    <glyph glyph-name="o" unicode="o" 
d="M275 -14q-104 2 -156.5 72.5t-25.5 200.5q25 119 104 196t194 77q117 0 162 -76.5t20 -196.5q-26 -123 -107.5 -198t-190.5 -75zM509 259q20 99 -9.5 159t-119.5 60q-88 0 -145.5 -63t-77.5 -156q-21 -99 12.5 -159t117.5 -60q88 0 145 63.5t77 155.5z" />
    <glyph glyph-name="p" unicode="p" horiz-adv-x="611" 
d="M194 257q-19 -91 15.5 -154t113.5 -63q89 0 149 66.5t77 168.5q20 95 -17.5 149t-115.5 54q-82 0 -142 -62t-80 -159zM157 83l-61 -287h-60l153 722h60l-19 -91h2q35 49 92.5 77t109.5 28q119 0 160.5 -74.5t15.5 -197.5q-25 -117 -101 -195.5t-188 -78.5
q-57 0 -101.5 25.5t-62.5 71.5z" />
    <glyph glyph-name="q" unicode="q" horiz-adv-x="611" 
d="M527 261q19 91 -15 154t-113 63q-89 0 -149.5 -66.5t-77.5 -168.5q-20 -95 18 -149t116 -54q82 0 141.5 62t79.5 159zM563 427l19 91h60l-153 -722h-60l61 287q-38 -46 -94 -71.5t-112 -25.5q-112 0 -155 78.5t-18 195.5q26 123 99.5 197.5t192.5 74.5q52 0 97.5 -28
t60.5 -77h2z" />
    <glyph glyph-name="r" unicode="r" horiz-adv-x="333" 
d="M189 254l-54 -254h-60l110 518h60l-21 -97h2q38 61 82 86t111 25l-14 -65q-169 4 -216 -213z" />
    <glyph glyph-name="s" unicode="s" horiz-adv-x="500" 
d="M80 162h61q1 -66 31.5 -94t98.5 -28q62 0 100.5 27.5t47.5 68.5t-20.5 63t-76.5 31t-93.5 21t-73.5 44.5t-15 88.5q14 66 71 107t142 41q87 0 129.5 -39t35.5 -124h-61q4 57 -26.5 83t-89.5 26q-56 0 -92 -24t-44 -65q-7 -33 13 -54t55 -29.5t75.5 -20.5t74.5 -25.5
t52 -44.5t8 -78q-15 -72 -81.5 -111.5t-161.5 -39.5q-88 0 -130 49.5t-30 126.5z" />
    <glyph glyph-name="t" unicode="t" horiz-adv-x="278" 
d="M264 47l-10 -49q-60 -12 -72 -12q-46 0 -64 23.5t-6 79.5l80 379h-73l11 50h73l31 144h60l-31 -144h97l-11 -50h-97l-75 -355q-11 -38 -4.5 -55.5t41.5 -17.5q20 0 50 7z" />
    <glyph glyph-name="u" unicode="u" 
d="M473 236l60 282h60l-110 -518h-60l15 72q-27 -25 -46 -39.5t-58 -30.5t-81 -16q-184 0 -143 191l72 341h60l-72 -340q-29 -138 104 -138q73 0 127 54.5t72 141.5z" />
    <glyph glyph-name="v" unicode="v" horiz-adv-x="500" 
d="M215 0l-88 518h65l74 -444l262 444h65l-311 -518h-67z" />
    <glyph glyph-name="w" unicode="w" horiz-adv-x="722" 
d="M506 518l21 -438l229 438h61l-278 -518h-64l-21 435h-2l-207 -435h-72l-48 518h60l40 -442l214 442h67z" />
    <glyph glyph-name="x" unicode="x" horiz-adv-x="500" 
d="M409 0l-109 224l-209 -224h-73l256 268l-130 250h74l99 -206l191 206h76l-240 -250l137 -268h-72z" />
    <glyph glyph-name="y" unicode="y" horiz-adv-x="500" 
d="M26 -197l12 56q30 -6 49 -6q24 0 45 17t33.5 36.5t28.5 49t24 40.5l-90 522h67l72 -445l260 445h65l-302 -511q-68 -116 -109.5 -163.5t-98.5 -47.5q-30 0 -56 7z" />
    <glyph glyph-name="z" unicode="z" horiz-adv-x="500" 
d="M467 0h-434l11 53l432 415h-321l11 50h398l-11 -53l-432 -415h357z" />
    <glyph glyph-name="braceleft" unicode="{" horiz-adv-x="333" 
d="M211 395l39 182q19 91 57.5 127t121.5 33q-88 -28 -107 -121l-41 -192q-13 -64 -37.5 -100t-76.5 -49v-2q45 -11 56 -45t-3 -90l-43 -206q-11 -50 3.5 -79t58.5 -42l-1 -2q-86 -1 -112 32t-9 112l43 204q13 45 1 76t-58 40v2q56 15 76 40.5t32 79.5z" />
    <glyph glyph-name="bar" unicode="|" horiz-adv-x="402" 
d="M250 820h51v-1093h-51v1093z" />
    <glyph glyph-name="braceright" unicode="}" horiz-adv-x="333" 
d="M330 599l-43 -204q-13 -45 -1 -76t58 -40v-2q-56 -15 -76 -40.5t-32 -79.5l-38 -182q-19 -91 -57.5 -127t-121.5 -33q86 28 106 121l41 192q14 65 38 100.5t76 48.5v2q-45 11 -56 45t3 90l44 206q11 51 -3.5 79.5t-58.5 41.5v2q86 1 112 -32t9 -112z" />
    <glyph glyph-name="asciitilde" unicode="~" horiz-adv-x="660" 
d="M290 324q39 0 109 -36q72 -36 96 -36q52 0 117 87l33 -34q-81 -109 -163 -109q-33 0 -126 42q-5 2 -22.5 11.5t-30 14t-25.5 4.5q-24 0 -50.5 -17.5t-41 -33t-36.5 -43.5l-23 47q26 30 44.5 47.5t52 36.5t66.5 19z" />
    <glyph glyph-name="uni00A0" unicode="&#xa0;" horiz-adv-x="278" 
 />
    <glyph glyph-name="exclamdown" unicode="&#xa1;" horiz-adv-x="333" 
d="M219 352h45l-53 -315l-48 -224h-73l48 224zM298 445h-73l18 87h73z" />
    <glyph glyph-name="cent" unicode="&#xa2;" 
d="M205 68l220 405q-16 5 -40 5q-86 0 -144 -65t-77 -155q-14 -56 -4 -110t45 -80zM464 456l-222 -409q26 -7 50 -7q66 0 115 37t73 102h64q-30 -83 -100 -138t-164 -55q-34 0 -66 8l-74 -135h-47l81 150q-57 31 -75.5 98t1.5 151q27 129 109 201.5t187 72.5q30 0 58 -5
l66 120h48l-73 -134q85 -40 78 -158h-61q-3 68 -48 101z" />
    <glyph glyph-name="sterling" unicode="&#xa3;" 
d="M262 365h166l-9 -42h-151q2 -42 -4 -68q-19 -91 -136 -188l2 -2q58 27 95 27q49 0 95 -21t79 -21q22 0 44.5 9t37 19t38.5 29l23 -51q-54 -41 -92 -55.5t-97 -14.5q-22 0 -74 22q-54 22 -94 22q-31 0 -112 -33l-22 58q54 34 93.5 80.5t50.5 99.5q10 45 -2 88h-99l9 42h81
q-2 7 -9.5 28.5t-10.5 33.5t-5.5 41.5t5.5 53.5q17 82 85.5 132.5t176.5 50.5q101 0 152 -59t29 -158h-66q13 78 -20.5 120.5t-105.5 42.5q-65 0 -120 -34.5t-68 -97.5q-2 -21 -2.5 -34t4.5 -31.5t9.5 -29.5t12 -29t11.5 -30z" />
    <glyph glyph-name="currency" unicode="&#xa4;" 
d="M55 110l52 42q-33 69 -16 148q17 82 80 151l-34 43l63 53l35 -43q75 49 165 49q75 0 135 -49l53 43l41 -53l-52 -43q33 -71 15 -156q-15 -72 -79 -143l34 -42l-63 -53l-35 43q-79 -50 -165 -50q-74 0 -135 50l-53 -43zM384 481q-78 2 -142 -50.5t-79 -130.5
q-17 -72 25 -125.5t114 -53.5q75 0 139.5 53t80.5 129q16 72 -24.5 125.5t-113.5 52.5z" />
    <glyph glyph-name="yen" unicode="&#xa5;" 
d="M233 720l123 -347l276 347h73l-232 -286h111l-11 -54h-144l-52 -66l-9 -42h182l-12 -54h-182l-46 -218h-64l46 218h-182l12 54h182l9 42l-24 66h-144l11 54h111l-110 286h76z" />
    <glyph glyph-name="brokenbar" unicode="&#xa6;" horiz-adv-x="401" 
d="M250 738h50v-382h-50v382zM250 191h50v-381h-50v381z" />
    <glyph glyph-name="section" unicode="&#xa7;" 
d="M435 341l-150 106q-96 -36 -110 -104q-7 -34 10.5 -59.5t50.5 -51.5l154 -115q99 48 113 113q7 35 -12.5 61t-55.5 50zM303 102l-114 82q-44 32 -62 67t-8 84q10 48 48.5 86t89.5 58q-21 30 -28.5 55.5t-0.5 59.5q13 62 70 103.5t142 41.5q83 0 118 -48t17 -131h-54
q12 63 -11 94t-86 31q-50 0 -86.5 -25t-46.5 -72q-8 -37 20 -71t72.5 -61.5t88.5 -56.5t70.5 -70t16.5 -89q-6 -28 -19 -51t-34.5 -42t-40.5 -32t-49 -31q46 -54 34 -110q-15 -73 -73.5 -114t-134.5 -41q-84 0 -123 49t-25 133h61q-13 -62 12 -95t87 -33q45 0 83.5 25
t47.5 69q5 23 0 42.5t-22.5 38.5t-26.5 27.5t-33 26.5z" />
    <glyph glyph-name="dieresis" unicode="&#xa8;" horiz-adv-x="333" 
d="M184 584l22 102h65l-22 -102h-65zM343 584l22 102h65l-22 -102h-65z" />
    <glyph glyph-name="copyright" unicode="&#xa9;" horiz-adv-x="800" 
d="M397 -19q-158 0 -245.5 111.5t-53.5 268.5q33 156 168 267t292 111t244 -111t54 -267q-34 -158 -168 -269t-291 -111zM408 31q137 0 247.5 95t140.5 235q29 139 -41.5 233.5t-207.5 94.5q-138 0 -249 -94.5t-140 -233.5q-30 -140 41 -235t209 -95zM601 292h54
q-20 -66 -79 -106.5t-127 -40.5q-94 0 -139 62t-25 157q21 96 89.5 156.5t163.5 60.5q70 0 111 -38t37 -105h-54q1 44 -27.5 71.5t-74.5 27.5q-72 0 -121 -49t-65 -123q-16 -72 14 -124t100 -52q46 0 87 28.5t56 74.5z" />
    <glyph glyph-name="ordfeminine" unicode="&#xaa;" horiz-adv-x="334" 
d="M359 534l10 49q-33 -12 -105 -18q-98 -7 -111 -66q-6 -27 13.5 -42.5t49.5 -15.5q50 0 91.5 24t51.5 69zM251 594l56 7q37 3 54 10q14 5 21 32q6 30 -10.5 48t-59.5 18q-88 0 -114 -73h-40q16 52 59 77.5t102 25.5q56 0 84 -23t17 -74l-35 -169q-5 -22 2 -27t33 3l-6 -28
q-24 -8 -49 -5q-28 4 -22 47q-60 -52 -136 -52q-47 0 -74.5 23t-18.5 66q18 79 137 94z" />
    <glyph glyph-name="guillemotleft" unicode="&#xab;" 
d="M345 228l14 63l170 113l-14 -63l-121 -82l87 -80l-13 -62zM161 228l14 63l170 113l-14 -63l-121 -82l87 -80l-13 -62z" />
    <glyph glyph-name="logicalnot" unicode="&#xac;" horiz-adv-x="660" 
d="M540 112l44 206h-436l12 60h500l-56 -266h-64z" />
    <glyph glyph-name="uni00AD" unicode="&#xad;" horiz-adv-x="333" 
d="M102 291h253l-13 -62h-253z" />
    <glyph glyph-name="registered" unicode="&#xae;" horiz-adv-x="800" 
d="M397 -19q-158 0 -245.5 111.5t-53.5 268.5q33 156 168 267t292 111t244 -111t54 -267q-34 -158 -168 -269t-291 -111zM408 31q137 0 247.5 95t140.5 235q29 139 -41.5 233.5t-207.5 94.5q-138 0 -249 -94.5t-140 -233.5q-30 -140 41 -235t209 -95zM535 344l87 -195h-62
l-80 195h-95l-41 -195h-52l90 423h185q81 0 109.5 -28.5t16.5 -83.5q-24 -112 -158 -116zM394 385h79h23h26t24 1.5t25.5 4.5t21 8.5t20.5 13.5t14 20t10 28q9 45 -16 59.5t-74 14.5h-121z" />
    <glyph glyph-name="macron" unicode="&#xaf;" horiz-adv-x="333" 
d="M153 612l10 45h296l-10 -45h-296z" />
    <glyph glyph-name="degree" unicode="&#xb0;" horiz-adv-x="400" 
d="M468 555q-13 -62 -66.5 -106t-115.5 -44t-96.5 44t-21.5 106q12 61 66 105.5t116 44.5q61 0 96 -44t22 -106zM428 555q10 45 -16 77.5t-72 32.5q-45 0 -84 -32.5t-48 -77.5q-10 -46 15.5 -78t71.5 -32q45 0 84 32t49 78z" />
    <glyph glyph-name="plusminus" unicode="&#xb1;" horiz-adv-x="660" 
d="M370 330l36 170h60l-36 -170h220l-13 -60h-220l-36 -170h-60l36 170h-220l13 60h220zM80 0l13 60h500l-13 -60h-500z" />
    <glyph glyph-name="twosuperior" unicode="&#xb2;" horiz-adv-x="333" 
d="M200 600h-44q13 63 61.5 101t116.5 38q67 0 97 -33t19 -84q-11 -50 -48.5 -83t-106.5 -64.5t-84 -40.5q-66 -41 -78 -86h255l-7 -32h-299q15 67 57 103q38 33 87.5 60t83 41.5t61 40t34.5 59.5q8 40 -16 63.5t-67 23.5q-44 0 -79 -31.5t-43 -75.5z" />
    <glyph glyph-name="threesuperior" unicode="&#xb3;" horiz-adv-x="333" 
d="M244 520l6 31q64 0 101.5 17.5t46.5 63.5q8 37 -15.5 56t-65.5 19q-44 0 -77 -25.5t-41 -65.5h-41q12 57 64 95q40 28 110 28q57 0 88.5 -27t20.5 -77q-14 -68 -85 -95q76 -23 59 -104q-12 -54 -59 -90.5t-117 -37.5q-81 0 -112 29t-23 101h42q-10 -47 15.5 -72.5
t77.5 -25.5q49 0 88.5 29t44.5 66q9 49 -26.5 69t-101.5 16z" />
    <glyph glyph-name="acute" unicode="&#xb4;" horiz-adv-x="333" 
d="M282 574h-51l141 139h77z" />
    <glyph glyph-name="mu" unicode="&#xb5;" 
d="M473 236l60 282h60l-110 -518h-60l15 72q-27 -25 -46 -39.5t-58 -30.5t-81 -16q-73 0 -117 32l-47 -222h-60l153 722h60l-72 -340q-29 -138 104 -138q73 0 127 54.5t72 141.5z" />
    <glyph glyph-name="paragraph" unicode="&#xb6;" horiz-adv-x="650" 
d="M227 -146l102 482q-77 -1 -122 56t-29 134q19 93 88.5 143.5t175.5 50.5h217l-184 -866h-60l170 799h-128l-170 -799h-60z" />
    <glyph glyph-name="periodcentered" unicode="&#xb7;" horiz-adv-x="278" 
d="M224 398q20 0 30.5 -14.5t6.5 -33.5q-4 -20 -21 -34.5t-37 -14.5t-31.5 14.5t-7.5 34.5q4 19 22.5 33.5t37.5 14.5z" />
    <glyph glyph-name="cedilla" unicode="&#xb8;" horiz-adv-x="333" 
d="M14 -188l21 30q43 -15 61 -15q25 0 48 12t28 35q4 19 -8 29t-33 10q-14 0 -46 -8l-12 13l77 82h39l-60 -59q26 6 38 6q31 0 49 -16t17 -36q-2 -51 -40.5 -76.5t-91.5 -25.5q-40 0 -87 19z" />
    <glyph glyph-name="onesuperior" unicode="&#xb9;" horiz-adv-x="333" 
d="M272 316l67 314h-118l5 26q32 2 49.5 4.5t38 11t33.5 24.5t24 43h33l-90 -423h-42z" />
    <glyph glyph-name="ordmasculine" unicode="&#xba;" horiz-adv-x="334" 
d="M254 411q-67 2 -102.5 44t-18.5 120q16 72 66 118t125 46q76 0 106.5 -46t14.5 -118q-16 -74 -68.5 -119t-122.5 -45zM172 575q-12 -59 11 -96.5t78 -37.5q57 0 95 39.5t50 94.5q13 59 -8 96.5t-80 37.5q-58 0 -96 -39.5t-50 -94.5z" />
    <glyph glyph-name="guillemotright" unicode="&#xbb;" 
d="M505 293l-13 -63l-170 -113l13 63l122 82l-87 80l13 62zM321 293l-13 -63l-170 -113l13 63l122 82l-87 80l13 62z" />
    <glyph glyph-name="onequarter" unicode="&#xbc;" horiz-adv-x="834" 
d="M689 0l22 104h-209l7 33l273 282h38l-60 -282h63l-7 -33h-63l-22 -104h-42zM766 361l-216 -224h168zM216 -14h-51l597 719h51zM225 316l67 314h-118l5 26q32 2 49.5 4.5t38 11t33.5 24.5t24 43h33l-90 -423h-42z" />
    <glyph glyph-name="onehalf" unicode="&#xbd;" horiz-adv-x="834" 
d="M176 -14h-51l597 719h51zM225 316l67 314h-118l5 26q32 2 49.5 4.5t38 11t33.5 24.5t24 43h33l-90 -423h-42zM608 284h-44q13 63 62 101t117 38q67 0 97 -33t19 -84q-11 -50 -48.5 -83t-106.5 -64.5t-84 -40.5q-66 -41 -78 -86h255l-7 -32h-299q15 67 57 103
q38 33 87.5 60t82.5 41.5t60.5 40t35.5 59.5q8 40 -16 63.5t-67 23.5q-44 0 -79.5 -31.5t-43.5 -75.5z" />
    <glyph glyph-name="threequarters" unicode="&#xbe;" horiz-adv-x="834" 
d="M766 361l-216 -224h168zM689 0l22 104h-209l7 33l273 282h38l-60 -282h63l-7 -33h-63l-22 -104h-42zM273 520l6 31q64 0 101.5 17.5t46.5 63.5q8 37 -15.5 56t-65.5 19q-44 0 -77 -25.5t-41 -65.5h-41q12 57 64 95q40 28 110 28q57 0 88.5 -27t20.5 -77q-14 -68 -85 -95
q76 -23 59 -104q-12 -54 -59 -90.5t-117 -37.5q-81 0 -112 29t-23 101h42q-10 -47 15.5 -72.5t77.5 -25.5q49 0 88.5 29t44.5 66q9 49 -26.5 69t-101.5 16zM256 -14h-51l597 719h51z" />
    <glyph glyph-name="questiondown" unicode="&#xbf;" horiz-adv-x="500" 
d="M404 16h61q-13 -98 -88.5 -160.5t-174.5 -62.5q-101 0 -148.5 51t-29.5 137q9 40 36.5 75.5t58 58t71 55t64.5 61.5q29 34 46 119h58q-12 -65 -31 -106.5t-63 -79.5q-15 -13 -53.5 -43t-57.5 -47t-39.5 -44.5t-26.5 -53.5q-12 -56 22 -92.5t106 -36.5t124 48t65 121z
M330 532h73l-19 -88h-73z" />
    <glyph glyph-name="Agrave" unicode="&#xc0;" horiz-adv-x="667" 
d="M85 0h-70l436 720h77l123 -720h-70l-35 226h-328zM475 662l-222 -378h282zM515 776l-109 139h78l82 -139h-51z" />
    <glyph glyph-name="Aacute" unicode="&#xc1;" horiz-adv-x="667" 
d="M85 0h-70l436 720h77l123 -720h-70l-35 226h-328zM475 662l-222 -378h282zM492 776h-51l140 139h77z" />
    <glyph glyph-name="Acircumflex" unicode="&#xc2;" horiz-adv-x="667" 
d="M85 0h-70l436 720h77l123 -720h-70l-35 226h-328zM475 662l-222 -378h282zM525 878l-104 -102h-65l143 139h67l84 -139h-65z" />
    <glyph glyph-name="Atilde" unicode="&#xc3;" horiz-adv-x="667" 
d="M85 0h-70l436 720h77l123 -720h-70l-35 226h-328zM475 662l-222 -378h282zM386 788h-36q10 31 33 59q45 48 96 36q15 -3 55 -23t59 -20q33 0 54 50h38q-5 -16 -16 -38q-39 -60 -87 -60q-29 0 -71.5 22.5t-64.5 22.5q-33 0 -60 -49z" />
    <glyph glyph-name="Adieresis" unicode="&#xc4;" horiz-adv-x="667" 
d="M85 0h-70l436 720h77l123 -720h-70l-35 226h-328zM475 662l-222 -378h282zM394 786l22 102h65l-22 -102h-65zM553 786l22 102h65l-22 -102h-65z" />
    <glyph glyph-name="Aring" unicode="&#xc5;" horiz-adv-x="667" 
d="M85 0h-70l436 720h77l123 -720h-70l-35 226h-328zM475 662l-222 -378h282zM520 780q-41 0 -64.5 29.5t-14.5 69.5q8 40 44.5 70t76.5 30t63 -30t15 -70q-9 -41 -44.5 -70t-75.5 -29zM527 813q26 0 50 20t30 46q5 27 -10 47t-42 20t-51.5 -20t-29.5 -47q-6 -27 10 -46.5
t43 -19.5z" />
    <glyph glyph-name="AE" unicode="&#xc6;" horiz-adv-x="1000" 
d="M73 0h-68l466 720h630l-12 -58h-408l-56 -260h371l-12 -58h-371l-61 -286h420l-12 -58h-488l48 226h-303zM499 662l-242 -378h275l81 378h-114z" />
    <glyph glyph-name="Ccedilla" unicode="&#xc7;" horiz-adv-x="722" 
d="M771 511h-70q-1 90 -48.5 130t-142.5 40q-83 0 -150.5 -45t-107.5 -115t-59 -159q-11 -51 -13 -95.5t7.5 -87.5t31.5 -73t62.5 -48.5t97.5 -18.5q90 0 160 54t110 144h71q-110 -250 -354 -255l-42 -41q26 6 38 6q31 0 49 -16t17 -36q-2 -51 -40.5 -76.5t-91.5 -25.5
q-40 0 -87 19l21 30q43 -15 61 -15q25 0 48 12t28 35q4 19 -8 29t-33 10q-14 0 -46 -8l-12 13l60 64q-73 5 -122 37t-70 83.5t-25 118t14 139.5q41 196 151.5 287.5t263.5 91.5q113 0 175 -59t56 -169z" />
    <glyph glyph-name="Egrave" unicode="&#xc8;" horiz-adv-x="611" 
d="M570 0h-489l153 720h479l-12 -58h-411l-56 -260h371l-12 -58h-371l-61 -286h421zM487 776l-109 139h78l82 -139h-51z" />
    <glyph glyph-name="Eacute" unicode="&#xc9;" horiz-adv-x="611" 
d="M570 0h-489l153 720h479l-12 -58h-411l-56 -260h371l-12 -58h-371l-61 -286h421zM464 776h-51l140 139h77z" />
    <glyph glyph-name="Ecircumflex" unicode="&#xca;" horiz-adv-x="611" 
d="M570 0h-489l153 720h479l-12 -58h-411l-56 -260h371l-12 -58h-371l-61 -286h421zM497 878l-104 -102h-65l143 139h67l84 -139h-65z" />
    <glyph glyph-name="Edieresis" unicode="&#xcb;" horiz-adv-x="611" 
d="M570 0h-489l153 720h479l-12 -58h-411l-56 -260h371l-12 -58h-371l-61 -286h421zM366 786l22 102h65l-22 -102h-65zM525 786l22 102h65l-22 -102h-65z" />
    <glyph glyph-name="Igrave" unicode="&#xcc;" horiz-adv-x="278" 
d="M173 0h-68l153 720h68zM321 776l-109 139h78l82 -139h-51z" />
    <glyph glyph-name="Iacute" unicode="&#xcd;" horiz-adv-x="278" 
d="M173 0h-68l153 720h68zM277 776h-51l140 139h77z" />
    <glyph glyph-name="Icircumflex" unicode="&#xce;" horiz-adv-x="278" 
d="M173 0h-68l153 720h68zM310 878l-104 -102h-65l143 139h67l84 -139h-65z" />
    <glyph glyph-name="Idieresis" unicode="&#xcf;" horiz-adv-x="278" 
d="M173 0h-68l153 720h68zM179 786l22 102h65l-22 -102h-65zM338 786l22 102h65l-22 -102h-65z" />
    <glyph glyph-name="Eth" unicode="&#xd0;" horiz-adv-x="722" 
d="M290 662l-54 -251h161l-12 -58h-161l-63 -295h163q107 0 176 33q133 61 178 270q43 208 -66 274q-45 27 -159 27h-163zM168 411l66 309h246q72 0 122 -10.5t89 -43.5q37 -32 53.5 -89t14.5 -109t-13 -107q-37 -177 -145 -273q-98 -88 -274 -88h-246l75 353h-71l12 58h71z
" />
    <glyph glyph-name="Ntilde" unicode="&#xd1;" horiz-adv-x="722" 
d="M563 0l-281 628h-2l-133 -628h-68l153 720h77l282 -629h2l134 629h68l-153 -720h-79zM414 788h-36q10 31 33 59q45 48 96 36q15 -3 55 -23t59 -20q33 0 54 50h38q-5 -16 -16 -38q-39 -60 -87 -60q-29 0 -71.5 22.5t-64.5 22.5q-33 0 -60 -49z" />
    <glyph glyph-name="Ograve" unicode="&#xd2;" horiz-adv-x="778" 
d="M129 359q34 164 145.5 272t267.5 108q162 0 227.5 -107t30.5 -273q-35 -163 -145.5 -270.5t-270.5 -107.5q-81 0 -139.5 30t-87.5 81.5t-38 120t10 146.5zM397 39q132 0 219.5 91.5t115.5 228.5q32 150 -21.5 236t-178.5 86q-131 0 -218.5 -93t-116.5 -229
q-16 -64 -10.5 -122t26.5 -102t68.5 -70t115.5 -26zM571 776l-109 139h78l82 -139h-51z" />
    <glyph glyph-name="Oacute" unicode="&#xd3;" horiz-adv-x="778" 
d="M129 359q34 164 145.5 272t267.5 108q162 0 227.5 -107t30.5 -273q-35 -163 -145.5 -270.5t-270.5 -107.5q-81 0 -139.5 30t-87.5 81.5t-38 120t10 146.5zM397 39q132 0 219.5 91.5t115.5 228.5q32 150 -21.5 236t-178.5 86q-131 0 -218.5 -93t-116.5 -229
q-16 -64 -10.5 -122t26.5 -102t68.5 -70t115.5 -26zM548 776h-51l140 139h77z" />
    <glyph glyph-name="Ocircumflex" unicode="&#xd4;" horiz-adv-x="778" 
d="M129 359q34 164 145.5 272t267.5 108q162 0 227.5 -107t30.5 -273q-35 -163 -145.5 -270.5t-270.5 -107.5q-81 0 -139.5 30t-87.5 81.5t-38 120t10 146.5zM397 39q132 0 219.5 91.5t115.5 228.5q32 150 -21.5 236t-178.5 86q-131 0 -218.5 -93t-116.5 -229
q-16 -64 -10.5 -122t26.5 -102t68.5 -70t115.5 -26zM581 878l-104 -102h-65l143 139h67l84 -139h-65z" />
    <glyph glyph-name="Otilde" unicode="&#xd5;" horiz-adv-x="778" 
d="M129 359q34 164 145.5 272t267.5 108q162 0 227.5 -107t30.5 -273q-35 -163 -145.5 -270.5t-270.5 -107.5q-81 0 -139.5 30t-87.5 81.5t-38 120t10 146.5zM397 39q132 0 219.5 91.5t115.5 228.5q32 150 -21.5 236t-178.5 86q-131 0 -218.5 -93t-116.5 -229
q-16 -64 -10.5 -122t26.5 -102t68.5 -70t115.5 -26zM442 788h-36q10 31 33 59q45 48 96 36q15 -3 55 -23t59 -20q33 0 54 50h38q-5 -16 -16 -38q-39 -60 -87 -60q-29 0 -71.5 22.5t-64.5 22.5q-33 0 -60 -49z" />
    <glyph glyph-name="Odieresis" unicode="&#xd6;" horiz-adv-x="778" 
d="M129 359q34 164 145.5 272t267.5 108q162 0 227.5 -107t30.5 -273q-35 -163 -145.5 -270.5t-270.5 -107.5q-81 0 -139.5 30t-87.5 81.5t-38 120t10 146.5zM397 39q132 0 219.5 91.5t115.5 228.5q32 150 -21.5 236t-178.5 86q-131 0 -218.5 -93t-116.5 -229
q-16 -64 -10.5 -122t26.5 -102t68.5 -70t115.5 -26zM450 786l22 102h65l-22 -102h-65zM609 786l22 102h65l-22 -102h-65z" />
    <glyph glyph-name="multiply" unicode="&#xd7;" horiz-adv-x="660" 
d="M377 216l-256 -210l-29 36l256 211l-166 211l44 36l167 -210l254 210l30 -36l-255 -211l165 -211l-45 -36z" />
    <glyph glyph-name="Oslash" unicode="&#xd8;" horiz-adv-x="778" 
d="M205 147l495 457q-53 77 -171 77q-67 0 -125 -26.5t-99 -72.5t-69 -102.5t-42 -120.5q-27 -125 11 -212zM723 560l-493 -453q53 -68 164 -68q132 0 219 91.5t116 228.5q25 118 -6 201zM753 652l103 95l31 -35l-108 -100q24 -35 30 -98t-12 -155q-35 -163 -145.5 -270.5
t-270.5 -107.5q-132 0 -202 79l-106 -97l-32 34l111 101q-59 99 -26 261q36 165 148 272.5t265 107.5q144 0 214 -87z" />
    <glyph glyph-name="Ugrave" unicode="&#xd9;" horiz-adv-x="722" 
d="M140 271l95 449h68l-91 -429q-28 -133 9 -192.5t148 -59.5q114 0 175.5 61t89.5 191l91 429h68l-95 -449q-30 -141 -116.5 -215.5t-224.5 -74.5q-139 0 -193 75t-24 215zM543 776l-109 139h78l82 -139h-51z" />
    <glyph glyph-name="Uacute" unicode="&#xda;" horiz-adv-x="722" 
d="M140 271l95 449h68l-91 -429q-28 -133 9 -192.5t148 -59.5q114 0 175.5 61t89.5 191l91 429h68l-95 -449q-30 -141 -116.5 -215.5t-224.5 -74.5q-139 0 -193 75t-24 215zM520 776h-51l140 139h77z" />
    <glyph glyph-name="Ucircumflex" unicode="&#xdb;" horiz-adv-x="722" 
d="M140 271l95 449h68l-91 -429q-28 -133 9 -192.5t148 -59.5q114 0 175.5 61t89.5 191l91 429h68l-95 -449q-30 -141 -116.5 -215.5t-224.5 -74.5q-139 0 -193 75t-24 215zM553 878l-104 -102h-65l143 139h67l84 -139h-65z" />
    <glyph glyph-name="Udieresis" unicode="&#xdc;" horiz-adv-x="722" 
d="M140 271l95 449h68l-91 -429q-28 -133 9 -192.5t148 -59.5q114 0 175.5 61t89.5 191l91 429h68l-95 -449q-30 -141 -116.5 -215.5t-224.5 -74.5q-139 0 -193 75t-24 215zM422 786l22 102h65l-22 -102h-65zM581 786l22 102h65l-22 -102h-65z" />
    <glyph glyph-name="Yacute" unicode="&#xdd;" horiz-adv-x="611" 
d="M243 720l138 -347l291 347h79l-347 -406l-67 -314h-68l66 309l-170 411h78zM464 776h-51l140 139h77z" />
    <glyph glyph-name="Thorn" unicode="&#xde;" horiz-adv-x="611" 
d="M146 0h-68l153 720h68l-32 -150h195q235 0 192 -201q-12 -58 -44.5 -99t-78.5 -62.5t-93.5 -30.5t-101.5 -9h-154zM194 226h156q104 0 161.5 31t75.5 117q15 68 -23 103t-133 35h-176z" />
    <glyph glyph-name="germandbls" unicode="&#xdf;" horiz-adv-x="500" 
d="M291 375l10 50q158 4 184 124q13 60 -10.5 95.5t-87.5 35.5q-81 0 -113.5 -35.5t-48.5 -111.5l-113 -533h-60l116 544q40 190 227 190q87 0 129.5 -50t23.5 -136q-17 -84 -114 -145q49 -19 67.5 -69t5.5 -110q-25 -115 -93.5 -176.5t-168.5 -61.5q-23 0 -36 5l11 53
q74 -14 136.5 27.5t80.5 127.5q20 94 -15 135t-131 41z" />
    <glyph glyph-name="agrave" unicode="&#xe0;" 
d="M452 191l17 81q-56 -21 -161 -29q-149 -11 -170 -110q-9 -45 19 -69t74 -24q78 0 141.5 38.5t79.5 112.5zM289 291l85 11q53 5 83 17q23 9 33 54q10 49 -14.5 77t-91.5 28t-111 -26.5t-65 -90.5h-61q25 87 91.5 129t157.5 42q86 0 129 -38t25 -123l-60 -282
q-8 -36 3 -44.5t51 4.5l-10 -47q-30 -10 -49 -10q-13 0 -26 3q-44 7 -32 77q-95 -86 -211 -86q-73 0 -115 39t-26 110q27 132 214 156zM417 574l-108 139h78l81 -139h-51z" />
    <glyph glyph-name="aacute" unicode="&#xe1;" 
d="M452 191l17 81q-56 -21 -161 -29q-149 -11 -170 -110q-9 -45 19 -69t74 -24q78 0 141.5 38.5t79.5 112.5zM289 291l85 11q53 5 83 17q23 9 33 54q10 49 -14.5 77t-91.5 28t-111 -26.5t-65 -90.5h-61q25 87 91.5 129t157.5 42q86 0 129 -38t25 -123l-60 -282
q-8 -36 3 -44.5t51 4.5l-10 -47q-30 -10 -49 -10q-13 0 -26 3q-44 7 -32 77q-95 -86 -211 -86q-73 0 -115 39t-26 110q27 132 214 156zM394 574h-51l141 139h77z" />
    <glyph glyph-name="acircumflex" unicode="&#xe2;" 
d="M452 191l17 81q-56 -21 -161 -29q-149 -11 -170 -110q-9 -45 19 -69t74 -24q78 0 141.5 38.5t79.5 112.5zM289 291l85 11q53 5 83 17q23 9 33 54q10 49 -14.5 77t-91.5 28t-111 -26.5t-65 -90.5h-61q25 87 91.5 129t157.5 42q86 0 129 -38t25 -123l-60 -282
q-8 -36 3 -44.5t51 4.5l-10 -47q-30 -10 -49 -10q-13 0 -26 3q-44 7 -32 77q-95 -86 -211 -86q-73 0 -115 39t-26 110q27 132 214 156zM427 676l-104 -102h-65l144 139h67l83 -139h-65z" />
    <glyph glyph-name="atilde" unicode="&#xe3;" 
d="M452 191l17 81q-56 -21 -161 -29q-149 -11 -170 -110q-9 -45 19 -69t74 -24q78 0 141.5 38.5t79.5 112.5zM289 291l85 11q53 5 83 17q23 9 33 54q10 49 -14.5 77t-91.5 28t-111 -26.5t-65 -90.5h-61q25 87 91.5 129t157.5 42q86 0 129 -38t25 -123l-60 -282
q-8 -36 3 -44.5t51 4.5l-10 -47q-30 -10 -49 -10q-13 0 -26 3q-44 7 -32 77q-95 -86 -211 -86q-73 0 -115 39t-26 110q27 132 214 156zM289 586h-36q9 31 32 59q45 48 96 36q15 -3 55 -23t59 -20q33 0 54 50h38q-5 -16 -16 -38q-39 -60 -87 -60q-29 0 -71.5 22.5t-64.5 22.5
q-34 0 -59 -49z" />
    <glyph glyph-name="adieresis" unicode="&#xe4;" 
d="M452 191l17 81q-56 -21 -161 -29q-149 -11 -170 -110q-9 -45 19 -69t74 -24q78 0 141.5 38.5t79.5 112.5zM289 291l85 11q53 5 83 17q23 9 33 54q10 49 -14.5 77t-91.5 28t-111 -26.5t-65 -90.5h-61q25 87 91.5 129t157.5 42q86 0 129 -38t25 -123l-60 -282
q-8 -36 3 -44.5t51 4.5l-10 -47q-30 -10 -49 -10q-13 0 -26 3q-44 7 -32 77q-95 -86 -211 -86q-73 0 -115 39t-26 110q27 132 214 156zM296 584l22 102h65l-22 -102h-65zM455 584l22 102h65l-22 -102h-65z" />
    <glyph glyph-name="aring" unicode="&#xe5;" 
d="M452 191l17 81q-56 -21 -161 -29q-149 -11 -170 -110q-9 -45 19 -69t74 -24q78 0 141.5 38.5t79.5 112.5zM289 291l85 11q53 5 83 17q23 9 33 54q10 49 -14.5 77t-91.5 28t-111 -26.5t-65 -90.5h-61q25 87 91.5 129t157.5 42q86 0 129 -38t25 -123l-60 -282
q-8 -36 3 -44.5t51 4.5l-10 -47q-30 -10 -49 -10q-13 0 -26 3q-44 7 -32 77q-95 -86 -211 -86q-73 0 -115 39t-26 110q27 132 214 156zM402 578q-41 0 -64.5 29.5t-14.5 69.5q8 40 44.5 70t76.5 30t63 -30t15 -70q-9 -41 -44.5 -70t-75.5 -29zM409 611q26 0 50 20t30 46
q5 27 -10 47t-42 20t-51 -20t-30 -47t10 -46.5t43 -19.5z" />
    <glyph glyph-name="ae" unicode="&#xe6;" horiz-adv-x="889" 
d="M436 204l15 70q-32 -15 -88.5 -23.5t-100 -13t-81.5 -28t-48 -68.5q-10 -49 13 -75t74 -26q88 0 144.5 44.5t71.5 119.5zM520 295h326q17 79 -13.5 131t-105.5 52q-85 0 -139 -58t-68 -125zM282 295l58 6q77 8 100.5 20t30.5 44q13 65 -9.5 89t-92.5 24q-131 0 -169 -114
h-62q23 84 88 126t152 42q146 0 163 -85q42 48 89 66.5t110 18.5t102.5 -22t55 -62.5t15.5 -90t-14 -112.5h-390q-19 -91 11.5 -148t117.5 -57q58 0 103 31.5t73 88.5h63q-38 -84 -103.5 -129t-152.5 -45q-131 0 -176 114q-32 -34 -57 -54.5t-75 -40t-110 -19.5
q-74 0 -112.5 37t-23.5 109q15 69 69.5 111t145.5 52z" />
    <glyph glyph-name="ccedilla" unicode="&#xe7;" 
d="M575 355h-61q-3 59 -35.5 91t-91.5 32q-86 0 -144 -65t-77 -155q-10 -41 -7 -80t16 -70t43.5 -49.5t75.5 -18.5q66 0 115 37t73 102h64q-35 -88 -100.5 -139.5t-158.5 -53.5l-46 -45q26 6 38 6q31 0 49 -16t17 -36q-2 -51 -40.5 -76.5t-91.5 -25.5q-40 0 -87 19l21 30
q43 -15 61 -15q25 0 48 12t28 35q4 19 -8 29t-33 10q-14 0 -46 -8l-12 13l67 71q-102 9 -138 82.5t-12 186.5q24 114 104.5 194t191.5 80q91 0 137 -44.5t40 -132.5z" />
    <glyph glyph-name="egrave" unicode="&#xe8;" 
d="M172 295h338q17 80 -15 131.5t-110 51.5q-75 0 -130.5 -52t-82.5 -131zM563 245h-402q-20 -88 14 -146.5t117 -58.5q59 0 108 31.5t74 87.5h67q-90 -173 -261 -173q-119 0 -162.5 74.5t-17.5 196.5q25 117 106.5 196t189.5 79t152.5 -74.5t14.5 -212.5zM417 574l-108 139
h78l81 -139h-51z" />
    <glyph glyph-name="eacute" unicode="&#xe9;" 
d="M172 295h338q17 80 -15 131.5t-110 51.5q-75 0 -130.5 -52t-82.5 -131zM563 245h-402q-20 -88 14 -146.5t117 -58.5q59 0 108 31.5t74 87.5h67q-90 -173 -261 -173q-119 0 -162.5 74.5t-17.5 196.5q25 117 106.5 196t189.5 79t152.5 -74.5t14.5 -212.5zM394 574h-51
l141 139h77z" />
    <glyph glyph-name="ecircumflex" unicode="&#xea;" 
d="M172 295h338q17 80 -15 131.5t-110 51.5q-75 0 -130.5 -52t-82.5 -131zM563 245h-402q-20 -88 14 -146.5t117 -58.5q59 0 108 31.5t74 87.5h67q-90 -173 -261 -173q-119 0 -162.5 74.5t-17.5 196.5q25 117 106.5 196t189.5 79t152.5 -74.5t14.5 -212.5zM427 676
l-104 -102h-65l144 139h67l83 -139h-65z" />
    <glyph glyph-name="edieresis" unicode="&#xeb;" 
d="M172 295h338q17 80 -15 131.5t-110 51.5q-75 0 -130.5 -52t-82.5 -131zM563 245h-402q-20 -88 14 -146.5t117 -58.5q59 0 108 31.5t74 87.5h67q-90 -173 -261 -173q-119 0 -162.5 74.5t-17.5 196.5q25 117 106.5 196t189.5 79t152.5 -74.5t14.5 -212.5zM296 584l22 102
h65l-22 -102h-65zM455 584l22 102h65l-22 -102h-65z" />
    <glyph glyph-name="igrave" unicode="&#xec;" horiz-adv-x="222" 
d="M138 0h-60l110 518h60zM250 574l-108 139h78l81 -139h-51z" />
    <glyph glyph-name="iacute" unicode="&#xed;" horiz-adv-x="222" 
d="M138 0h-60l110 518h60zM206 574h-51l141 139h77z" />
    <glyph glyph-name="icircumflex" unicode="&#xee;" horiz-adv-x="222" 
d="M138 0h-60l110 518h60zM239 676l-104 -102h-65l144 139h67l83 -139h-65z" />
    <glyph glyph-name="idieresis" unicode="&#xef;" horiz-adv-x="222" 
d="M138 0h-60l110 518h60zM108 584l22 102h65l-22 -102h-65zM267 584l22 102h65l-22 -102h-65z" />
    <glyph glyph-name="eth" unicode="&#xf0;" 
d="M509 259q20 99 -9.5 159t-119.5 60q-88 0 -145.5 -63t-77.5 -156q-21 -99 12.5 -159t117.5 -60q88 0 145 63.5t77 155.5zM464 635l-71 -49l-33 24l76 52q-28 23 -71 44l48 33q41 -19 70 -45l64 45l32 -25l-69 -48q57 -67 73.5 -170t-10.5 -237q-26 -123 -107.5 -198
t-190.5 -75q-104 2 -156.5 72.5t-25.5 200.5q24 113 101 193t193 80q51 0 79 -9t57 -37q-13 99 -59 149z" />
    <glyph glyph-name="ntilde" unicode="&#xf1;" 
d="M191 279l-59 -279h-60l110 518h60l-15 -72q50 43 92.5 64.5t92.5 21.5q108 0 142 -74q18 -39 1 -119l-72 -339h-60l72 338q15 71 -9 105.5t-95 34.5q-53 0 -97.5 -29t-68.5 -72q-20 -35 -34 -98zM289 586h-36q9 31 32 59q45 48 96 36q15 -3 55 -23t59 -20q33 0 54 50h38
q-5 -16 -16 -38q-39 -60 -87 -60q-29 0 -71.5 22.5t-64.5 22.5q-34 0 -59 -49z" />
    <glyph glyph-name="ograve" unicode="&#xf2;" 
d="M275 -14q-104 2 -156.5 72.5t-25.5 200.5q25 119 104 196t194 77q117 0 162 -76.5t20 -196.5q-26 -123 -107.5 -198t-190.5 -75zM509 259q20 99 -9.5 159t-119.5 60q-88 0 -145.5 -63t-77.5 -156q-21 -99 12.5 -159t117.5 -60q88 0 145 63.5t77 155.5zM417 574l-108 139
h78l81 -139h-51z" />
    <glyph glyph-name="oacute" unicode="&#xf3;" 
d="M275 -14q-104 2 -156.5 72.5t-25.5 200.5q25 119 104 196t194 77q117 0 162 -76.5t20 -196.5q-26 -123 -107.5 -198t-190.5 -75zM509 259q20 99 -9.5 159t-119.5 60q-88 0 -145.5 -63t-77.5 -156q-21 -99 12.5 -159t117.5 -60q88 0 145 63.5t77 155.5zM394 574h-51
l141 139h77z" />
    <glyph glyph-name="ocircumflex" unicode="&#xf4;" 
d="M275 -14q-104 2 -156.5 72.5t-25.5 200.5q25 119 104 196t194 77q117 0 162 -76.5t20 -196.5q-26 -123 -107.5 -198t-190.5 -75zM509 259q20 99 -9.5 159t-119.5 60q-88 0 -145.5 -63t-77.5 -156q-21 -99 12.5 -159t117.5 -60q88 0 145 63.5t77 155.5zM427 676l-104 -102
h-65l144 139h67l83 -139h-65z" />
    <glyph glyph-name="otilde" unicode="&#xf5;" 
d="M275 -14q-104 2 -156.5 72.5t-25.5 200.5q25 119 104 196t194 77q117 0 162 -76.5t20 -196.5q-26 -123 -107.5 -198t-190.5 -75zM509 259q20 99 -9.5 159t-119.5 60q-88 0 -145.5 -63t-77.5 -156q-21 -99 12.5 -159t117.5 -60q88 0 145 63.5t77 155.5zM289 586h-36
q9 31 32 59q45 48 96 36q15 -3 55 -23t59 -20q33 0 54 50h38q-5 -16 -16 -38q-39 -60 -87 -60q-29 0 -71.5 22.5t-64.5 22.5q-34 0 -59 -49z" />
    <glyph glyph-name="odieresis" unicode="&#xf6;" 
d="M275 -14q-104 2 -156.5 72.5t-25.5 200.5q25 119 104 196t194 77q117 0 162 -76.5t20 -196.5q-26 -123 -107.5 -198t-190.5 -75zM509 259q20 99 -9.5 159t-119.5 60q-88 0 -145.5 -63t-77.5 -156q-21 -99 12.5 -159t117.5 -60q88 0 145 63.5t77 155.5zM296 584l22 102h65
l-22 -102h-65zM455 584l22 102h65l-22 -102h-65z" />
    <glyph glyph-name="divide" unicode="&#xf7;" horiz-adv-x="660" 
d="M127 220l13 60h500l-13 -60h-500zM367 0h-73l19 88h73zM455 412h-73l18 88h73z" />
    <glyph glyph-name="oslash" unicode="&#xf8;" 
d="M161 124l326 309q-30 45 -105 45q-88 0 -145.5 -63.5t-77.5 -156.5q-18 -85 2 -134zM509 397l-329 -312q36 -45 109 -45q88 0 145 63t77 155q19 88 -2 139zM134 41l-68 -64l-30 29l73 68q-38 70 -14 184q25 119 104 196.5t194 77.5q93 0 143 -53l65 62l28 -31l-68 -65
q38 -72 14 -187q-26 -123 -105.5 -197.5t-192.5 -74.5q-96 0 -143 55z" />
    <glyph glyph-name="ugrave" unicode="&#xf9;" 
d="M473 236l60 282h60l-110 -518h-60l15 72q-27 -25 -46 -39.5t-58 -30.5t-81 -16q-184 0 -143 191l72 341h60l-72 -340q-29 -138 104 -138q73 0 127 54.5t72 141.5zM417 574l-108 139h78l81 -139h-51z" />
    <glyph glyph-name="uacute" unicode="&#xfa;" 
d="M473 236l60 282h60l-110 -518h-60l15 72q-27 -25 -46 -39.5t-58 -30.5t-81 -16q-184 0 -143 191l72 341h60l-72 -340q-29 -138 104 -138q73 0 127 54.5t72 141.5zM394 574h-51l141 139h77z" />
    <glyph glyph-name="ucircumflex" unicode="&#xfb;" 
d="M473 236l60 282h60l-110 -518h-60l15 72q-27 -25 -46 -39.5t-58 -30.5t-81 -16q-184 0 -143 191l72 341h60l-72 -340q-29 -138 104 -138q73 0 127 54.5t72 141.5zM427 676l-104 -102h-65l144 139h67l83 -139h-65z" />
    <glyph glyph-name="udieresis" unicode="&#xfc;" 
d="M473 236l60 282h60l-110 -518h-60l15 72q-27 -25 -46 -39.5t-58 -30.5t-81 -16q-184 0 -143 191l72 341h60l-72 -340q-29 -138 104 -138q73 0 127 54.5t72 141.5zM296 584l22 102h65l-22 -102h-65zM455 584l22 102h65l-22 -102h-65z" />
    <glyph glyph-name="yacute" unicode="&#xfd;" horiz-adv-x="500" 
d="M26 -197l12 56q30 -6 49 -6q24 0 45 17t33.5 36.5t28.5 49t24 40.5l-90 522h67l72 -445l260 445h65l-302 -511q-68 -116 -109.5 -163.5t-98.5 -47.5q-30 0 -56 7zM366 574h-51l141 139h77z" />
    <glyph glyph-name="thorn" unicode="&#xfe;" horiz-adv-x="611" 
d="M194 257q-19 -91 15.5 -154t113.5 -63q89 0 149 66.5t77 168.5q20 95 -17.5 149t-115.5 54q-82 0 -142 -62t-80 -159zM157 83l-61 -287h-60l196 924h60l-62 -293h2q35 49 92.5 77t109.5 28q119 0 160.5 -74.5t15.5 -197.5q-25 -117 -101 -195.5t-188 -78.5
q-57 0 -101.5 25.5t-62.5 71.5z" />
    <glyph glyph-name="ydieresis" unicode="&#xff;" horiz-adv-x="500" 
d="M26 -197l12 56q30 -6 49 -6q24 0 45 17t33.5 36.5t28.5 49t24 40.5l-90 522h67l72 -445l260 445h65l-302 -511q-68 -116 -109.5 -163.5t-98.5 -47.5q-30 0 -56 7zM268 584l22 102h65l-22 -102h-65zM427 584l22 102h65l-22 -102h-65z" />
    <glyph glyph-name="dotlessi" unicode="&#x131;" horiz-adv-x="222" 
d="M138 0h-60l110 518h60z" />
    <glyph glyph-name="Lslash" unicode="&#x141;" 
d="M535 0h-454l77 360l-90 -40l13 60l89 40l64 300h68l-53 -250l89 40l-12 -60l-90 -40l-75 -352h386z" />
    <glyph glyph-name="lslash" unicode="&#x142;" horiz-adv-x="222" 
d="M141 0h-60l72 340l-79 -40l13 60l79 40l68 320h60l-57 -270l79 40l-13 -60l-79 -40z" />
    <glyph glyph-name="OE" unicode="&#x152;" horiz-adv-x="1000" 
d="M594 221l59 277q19 88 -24 135.5t-138 47.5q-114 0 -193 -81.5t-112 -238.5q-32 -148 10 -235t166 -87q80 0 156 54q58 42 76 128zM550 0l15 72q-108 -91 -220 -91q-80 0 -134.5 31.5t-77.5 84t-28.5 121t12.5 141.5q36 168 135 274t251 106q147 0 184 -95l16 76h407
l-12 -58h-342l-56 -260h320l-12 -58h-320l-61 -286h352l-12 -58h-417z" />
    <glyph glyph-name="oe" unicode="&#x153;" horiz-adv-x="944" 
d="M956 245h-393q-12 -28 -9 -63.5t14.5 -67t44.5 -53t82 -21.5q57 0 104.5 33t70.5 87h61q-36 -84 -101.5 -129t-148.5 -45q-70 0 -115.5 34.5t-62.5 91.5q-43 -62 -106 -94t-133 -32q-104 0 -151.5 74t-21.5 198q26 121 101 197.5t192 76.5q146 0 182 -125q91 125 231 125
q53 0 89 -16t54.5 -42t25 -64t3.5 -77.5t-13 -87.5zM153 249q-20 -90 12.5 -149.5t115.5 -59.5t142 62.5t81 166.5q20 94 -14.5 151.5t-121.5 57.5q-81 0 -138 -61.5t-77 -167.5zM574 295h329q17 83 -11.5 133t-108.5 50q-74 0 -131.5 -53t-77.5 -130z" />
    <glyph glyph-name="Scaron" unicode="&#x160;" horiz-adv-x="611" 
d="M89 215h66q-12 -92 34 -134t135 -42q91 0 146 42.5t69 106.5q8 40 -4.5 68t-40.5 42t-65 26.5t-76.5 20t-75.5 22.5t-63 35t-38 56.5t0 87.5q17 80 93.5 136.5t191.5 56.5q116 0 166.5 -61t29.5 -154h-65q17 78 -25.5 117.5t-117.5 39.5q-96 0 -151.5 -48.5t-58.5 -110.5
q-2 -37 20.5 -61.5t59 -37t80.5 -22t86 -22t74 -33t46.5 -59.5t2.5 -96q-21 -99 -102.5 -154.5t-205.5 -55.5q-117 0 -176 60.5t-35 173.5zM483 813l103 102h65l-142 -139h-67l-85 139h65z" />
    <glyph glyph-name="scaron" unicode="&#x161;" horiz-adv-x="500" 
d="M80 162h61q1 -66 31.5 -94t98.5 -28q62 0 100.5 27.5t47.5 68.5t-20.5 63t-76.5 31t-93.5 21t-73.5 44.5t-15 88.5q14 66 71 107t142 41q87 0 129.5 -39t35.5 -124h-61q4 57 -26.5 83t-89.5 26q-56 0 -92 -24t-44 -65q-7 -33 13 -54t55 -29.5t75.5 -20.5t74.5 -25.5
t52 -44.5t8 -78q-15 -72 -81.5 -111.5t-161.5 -39.5q-88 0 -130 49.5t-30 126.5zM385 611l104 102h65l-143 -139h-67l-84 139h65z" />
    <glyph glyph-name="Ydieresis" unicode="&#x178;" horiz-adv-x="611" 
d="M243 720l138 -347l291 347h79l-347 -406l-67 -314h-68l66 309l-170 411h78zM366 786l22 102h65l-22 -102h-65zM525 786l22 102h65l-22 -102h-65z" />
    <glyph glyph-name="Zcaron" unicode="&#x17d;" horiz-adv-x="611" 
d="M579 0h-548l12 57l590 605h-422l12 58h506l-12 -57l-590 -605h464zM483 813l103 102h65l-142 -139h-67l-85 139h65z" />
    <glyph glyph-name="zcaron" unicode="&#x17e;" horiz-adv-x="500" 
d="M467 0h-434l11 53l432 415h-321l11 50h398l-11 -53l-432 -415h357zM385 611l104 102h65l-143 -139h-67l-84 139h65z" />
    <glyph glyph-name="florin" unicode="&#x192;" 
d="M691 714l-31 -49q-12 8 -30 13q-20 4 -44 -1q-28 -5 -52.5 -31t-37.5 -52.5t-33 -76t-30 -69.5h115l-10 -48h-123l-135 -336q-51 -124 -109 -192t-145 -68q-25 0 -52 11l31 57q18 -13 49 -13q54 0 103 86t130 293l63 162h-113l10 48h121q6 13 19.5 43.5t21.5 48.5
t23 46.5t27.5 46.5t31.5 39.5t38 33t44 20t52 8.5q35 0 66 -20z" />
    <glyph glyph-name="circumflex" unicode="&#x2c6;" horiz-adv-x="333" 
d="M315 676l-104 -102h-65l144 139h67l83 -139h-65z" />
    <glyph glyph-name="caron" unicode="&#x2c7;" horiz-adv-x="333" 
d="M301 611l104 102h65l-143 -139h-67l-84 139h65z" />
    <glyph glyph-name="uni02C9" unicode="&#x2c9;" horiz-adv-x="333" 
d="M153 612l10 45h296l-10 -45h-296z" />
    <glyph glyph-name="breve" unicode="&#x2d8;" horiz-adv-x="333" 
d="M178 706h39q-1 -40 22.5 -60.5t65.5 -20.5q86 0 124 81h37q-20 -62 -66.5 -94t-109.5 -32q-60 0 -90 33.5t-22 92.5z" />
    <glyph glyph-name="dotaccent" unicode="&#x2d9;" horiz-adv-x="333" 
d="M258 584l22 102h65l-22 -102h-65z" />
    <glyph glyph-name="ring" unicode="&#x2da;" horiz-adv-x="333" 
d="M290 578q-41 0 -64.5 29.5t-14.5 69.5q8 40 44.5 70t76.5 30t63 -30t15 -70q-9 -41 -44.5 -70t-75.5 -29zM297 611q26 0 50 20t30 46q5 27 -10 47t-42 20t-51 -20t-30 -47t10 -46.5t43 -19.5z" />
    <glyph glyph-name="ogonek" unicode="&#x2db;" horiz-adv-x="333" 
d="M149 0h50v-2q-88 -39 -99 -87q-6 -28 10.5 -42.5t44.5 -14.5q21 0 44 9l-9 -44q-28 -9 -54 -9q-42 0 -67.5 23t-16.5 64q14 64 97 103z" />
    <glyph glyph-name="tilde" unicode="&#x2dc;" horiz-adv-x="333" 
d="M177 586h-36q9 31 32 59q45 48 96 36q15 -3 55 -23t59 -20q33 0 54 50h38q-5 -16 -16 -38q-39 -60 -87 -60q-29 0 -71.5 22.5t-64.5 22.5q-34 0 -59 -49z" />
    <glyph glyph-name="hungarumlaut" unicode="&#x2dd;" horiz-adv-x="333" 
d="M282 574h-51l141 139h77zM444 574h-51l141 139h77z" />
    <glyph glyph-name="uni03A9" unicode="&#x3a9;" horiz-adv-x="725" 
d="M217 48l1 3q-50 53 -72 134.5t-1 182.5q32 149 137.5 242.5t233.5 93.5t189 -97t32 -235q-22 -105 -81.5 -189.5t-128.5 -131.5l-1 -3h156l-10 -48h-233l7 35q77 44 142 130t89 198q13 49 6.5 101t-24.5 94.5t-58.5 69.5t-96.5 27q-108 0 -192 -84.5t-110 -209.5
q-23 -106 5.5 -195.5t85.5 -130.5l-7 -35h-233l10 48h154z" />
    <glyph glyph-name="uni03BC" unicode="&#x3bc;" 
d="M473 236l60 282h60l-110 -518h-60l15 72q-27 -25 -46 -39.5t-58 -30.5t-81 -16q-73 0 -117 32l-47 -222h-60l153 722h60l-72 -340q-29 -138 104 -138q73 0 127 54.5t72 141.5z" />
    <glyph glyph-name="pi" unicode="&#x3c0;" horiz-adv-x="561" 
d="M632 464h-84l-68 -318q-21 -102 -16 -146h-56q-12 29 13 139l69 325h-196q-29 -110 -82 -255t-93 -209h-57q44 74 95 212.5t80 251.5q-83 0 -120 -13l-2 38q50 25 142 25h391z" />
    <glyph glyph-name="endash" unicode="&#x2013;" horiz-adv-x="500" 
d="M560 282l-9 -44h-500l9 44h500z" />
    <glyph glyph-name="emdash" unicode="&#x2014;" horiz-adv-x="1000" 
d="M1051 238h-1000l9 44h1000z" />
    <glyph glyph-name="quoteleft" unicode="&#x2018;" horiz-adv-x="222" 
d="M174 495l25 118q9 42 35 69.5t61 37.5l-8 -37q-38 -21 -48 -66l-7 -34h34l-19 -88h-73z" />
    <glyph glyph-name="quoteright" unicode="&#x2019;" horiz-adv-x="222" 
d="M306 720l-25 -118q-9 -42 -35 -69.5t-61 -37.5l8 37q39 22 48 66l7 34h-34l19 88h73z" />
    <glyph glyph-name="quotesinglbase" unicode="&#x201a;" horiz-adv-x="222" 
d="M172 88l-25 -118q-9 -42 -35 -69.5t-61 -37.5l8 37q38 21 48 66l7 34h-34l19 88h73z" />
    <glyph glyph-name="quotedblleft" unicode="&#x201c;" horiz-adv-x="389" 
d="M342 495l25 118q9 42 35 69.5t61 37.5l-8 -37q-38 -21 -48 -66l-7 -34h34l-19 -88h-73zM191 495l25 118q9 42 35 69.5t61 37.5l-8 -37q-38 -21 -48 -66l-7 -34h34l-19 -88h-73z" />
    <glyph glyph-name="quotedblright" unicode="&#x201d;" horiz-adv-x="389" 
d="M456 720l-25 -118q-9 -42 -35 -69.5t-61 -37.5l8 37q39 22 48 66l7 34h-34l19 88h73zM305 720l-25 -118q-9 -42 -35 -69.5t-61 -37.5l8 37q39 22 48 66l7 34h-34l19 88h73z" />
    <glyph glyph-name="quotedblbase" unicode="&#x201e;" horiz-adv-x="389" 
d="M322 88l-25 -118q-9 -42 -35 -69.5t-61 -37.5l8 37q38 21 48 66l7 34h-34l19 88h73zM171 88l-25 -118q-9 -42 -35 -69.5t-61 -37.5l8 37q38 21 48 66l7 34h-34l19 88h73z" />
    <glyph glyph-name="dagger" unicode="&#x2020;" 
d="M213 -166l128 602h-211l11 54h211l49 230h60l-49 -230h211l-11 -54h-211l-128 -602h-60z" />
    <glyph glyph-name="daggerdbl" unicode="&#x2021;" 
d="M271 109l71 334h-211l12 54h211l47 223h60l-47 -223h211l-12 -54h-211l-71 -334h211l-11 -54h-211l-47 -221h-60l47 221h-211l11 54h211z" />
    <glyph glyph-name="bullet" unicode="&#x2022;" horiz-adv-x="500" 
d="M506 359q-16 -74 -80 -126.5t-139 -52.5q-74 0 -115.5 53t-25.5 126q16 75 80 128t138 53q75 0 116.5 -53t25.5 -128z" />
    <glyph glyph-name="ellipsis" unicode="&#x2026;" horiz-adv-x="1000" 
d="M204 0h-73l19 88h73zM537 0h-73l19 88h73zM870 0h-73l19 88h73z" />
    <glyph glyph-name="perthousand" unicode="&#x2030;" horiz-adv-x="1000" 
d="M900 299q61 0 95.5 -44.5t21.5 -105.5q-14 -62 -67 -105.5t-114 -43.5q-62 0 -96.5 44t-21.5 105t67 105.5t115 44.5zM848 57q36 0 70 28t42 64q8 37 -14 65t-59 28q-38 0 -71.5 -28t-40.5 -65q-8 -37 14 -64.5t59 -27.5zM311 698q61 0 96.5 -44t22.5 -105
q-13 -62 -66.5 -106t-115.5 -44q-61 0 -96 44.5t-21 105.5q13 61 66 105t114 44zM299 641q-37 0 -70 -27.5t-41 -64.5t13.5 -65t58.5 -28t71 28t42 65t-14.5 64.5t-59.5 27.5zM537 299q61 0 96 -44.5t22 -105.5q-13 -62 -66.5 -105.5t-115.5 -43.5q-61 0 -96 44t-21 105
q13 61 66.5 105.5t114.5 44.5zM485 57q36 0 70.5 27.5t42.5 64.5t-14.5 65t-59.5 28t-70 -28t-41 -65t14 -64.5t58 -27.5zM136 -14h-53l560 719h53z" />
    <glyph glyph-name="guilsinglleft" unicode="&#x2039;" horiz-adv-x="389" 
d="M169 228l14 63l170 113l-14 -63l-121 -82l87 -80l-13 -62z" />
    <glyph glyph-name="guilsinglright" unicode="&#x203a;" horiz-adv-x="389" 
d="M330 293l-13 -63l-170 -113l13 63l122 82l-87 80l13 62z" />
    <glyph glyph-name="fraction" unicode="&#x2044;" horiz-adv-x="167" 
d="M-116 -14h-51l597 719h51z" />
    <glyph glyph-name="Euro" unicode="&#x20ac;" 
d="M69 236l32 54h61q3 26 9 55q2 7 5 21.5t5 21.5h-78l31 54h64q46 139 124 201t169 62q142 0 169 -116l-44 -76q-2 71 -39.5 104.5t-97.5 33.5q-145 0 -217 -209h311l-32 -54h-296l-9 -42q-8 -38 -10 -56h259l-32 -54h-233q-10 -196 130 -196q99 0 190 109l-18 -84
q-79 -79 -184 -79q-89 0 -140 59t-43 191h-86z" />
    <glyph glyph-name="afii61289" unicode="&#x2113;" horiz-adv-x="475" 
d="M449 136l25 -24q-90 -121 -205 -121q-80 0 -108 53.5t-13 136.5l3 13q-28 -18 -69 -49l-13 36q72 51 94 69l59 279q27 125 81 179t114 54q58 0 79 -44t7 -112q-35 -166 -289 -371l-6 -30q-18 -86 6.5 -127t74.5 -41q45 0 87.5 29.5t72.5 69.5zM278 535l-52 -241
q205 178 233 309q24 115 -52 115q-35 0 -72 -45t-57 -138z" />
    <glyph glyph-name="trademark" unicode="&#x2122;" horiz-adv-x="940" 
d="M1012 720l-89 -421h-52l80 377h-2l-225 -377h-34l-65 377h-2l-80 -377h-52l89 421h96l54 -311h2l184 311h96zM502 720l-8 -40h-134l-81 -381h-52l81 381h-134l8 40h320z" />
    <glyph glyph-name="Omega" unicode="&#x2126;" horiz-adv-x="725" 
d="M217 48l1 3q-50 53 -72 134.5t-1 182.5q32 149 137.5 242.5t233.5 93.5t189 -97t32 -235q-22 -105 -81.5 -189.5t-128.5 -131.5l-1 -3h156l-10 -48h-233l7 35q77 44 142 130t89 198q13 49 6.5 101t-24.5 94.5t-58.5 69.5t-96.5 27q-108 0 -192 -84.5t-110 -209.5
q-23 -106 5.5 -195.5t85.5 -130.5l-7 -35h-233l10 48h154z" />
    <glyph glyph-name="estimated" unicode="&#x212e;" horiz-adv-x="1016" 
d="M982 335h-647q-5 0 -5 -4v-196q0 -11 8 -22q103 -106 245 -106q153 0 257 119h58q-55 -64 -138.5 -101.5t-177.5 -37.5q-165 0 -282 105t-117 253q0 149 117 254.5t282 105.5q166 0 283 -105.5t117 -254.5v-10zM835 361v197q0 14 -10 23q-102 102 -242 102
q-141 0 -244 -105q-9 -9 -9 -25v-192q0 -6 5 -6h496q4 0 4 6z" />
    <glyph glyph-name="partialdiff" unicode="&#x2202;" horiz-adv-x="537" 
d="M245 678l-13 41q79 54 172 54q101 0 152.5 -96.5t13.5 -277.5q-38 -178 -128.5 -293.5t-212.5 -115.5q-61 0 -98 33.5t-44 84t3 109.5q24 112 101 181.5t163 69.5q63 0 102 -34t49 -67h1q3 10 11 47q30 139 -9 225t-119 86q-73 0 -144 -47zM243 38h2q73 0 138 76.5
t102 189.5q-6 42 -41 79.5t-92 37.5q-66 0 -126.5 -59.5t-77.5 -142.5q-17 -79 9 -130t86 -51z" />
    <glyph glyph-name="Delta" unicode="&#x2206;" horiz-adv-x="646" 
d="M33 0l9 43l400 669h65l115 -668l-9 -44h-580zM100 47h461l-71 410q-3 19 -15.5 89.5t-14.5 97.5h-4q-10 -21 -48.5 -85.5t-49.5 -85.5z" />
    <glyph glyph-name="product" unicode="&#x220f;" horiz-adv-x="839" 
d="M812 640h-113v-736h-56v736h-301v-736h-57v736h-112v52h639v-52z" />
    <glyph glyph-name="summation" unicode="&#x2211;" horiz-adv-x="697" 
d="M675 -96h-506v40l278 353l-265 355v40h478v-50h-396v-4l250 -334l-268 -341v-4h429v-55z" />
    <glyph glyph-name="minus" unicode="&#x2212;" horiz-adv-x="660" 
d="M127 220l13 60h500l-13 -60h-500z" />
    <glyph glyph-name="uni2215" unicode="&#x2215;" horiz-adv-x="167" 
d="M-116 -14h-51l597 719h51z" />
    <glyph glyph-name="uni2219" unicode="&#x2219;" horiz-adv-x="278" 
d="M224 398q20 0 30.5 -14.5t6.5 -33.5q-4 -20 -21 -34.5t-37 -14.5t-31.5 14.5t-7.5 34.5q4 19 22.5 33.5t37.5 14.5z" />
    <glyph glyph-name="radical" unicode="&#x221a;" horiz-adv-x="712" 
d="M711 821l-221 -972h-54l-164 468l-75 -28l-13 38l125 48l136 -388q6 -22 16 -67h1q1 8 6 31.5t7 34.5l191 835h45z" />
    <glyph glyph-name="infinity" unicode="&#x221e;" horiz-adv-x="866" 
d="M815 289v-2q0 -67 -44.5 -110t-105.5 -43q-45 0 -85 28t-99 92q-35 -39 -56 -59.5t-58.5 -40.5t-75.5 -20q-60 0 -103.5 43.5t-43.5 106.5q0 66 43.5 110t109.5 44q36 0 71.5 -19.5t59 -42t56.5 -60.5q40 44 57.5 62t55 39t76.5 21q64 0 103 -41.5t39 -107.5zM297 173h1
q19 0 36.5 6t37.5 22t29 23.5t32 32t25 26.5q-26 31 -36.5 43t-35 34t-47.5 31t-49 9q-47 0 -75 -34.5t-28 -82.5q1 -46 31.5 -78t78.5 -32zM668 400h-1q-24 0 -50.5 -14.5t-40.5 -26.5t-41 -41t-29 -31q59 -64 92 -89t71 -25q47 0 75 34t28 78q0 53 -29 84t-75 31z" />
    <glyph glyph-name="integral" unicode="&#x222b;" horiz-adv-x="492" 
d="M479 829l-12 -41q-15 11 -37 11q-33 0 -51 -23q-36 -41 -36 -181q0 -76 6.5 -251.5t6.5 -254.5q0 -137 -45 -200q-30 -45 -89 -45q-35 0 -62 17l12 42q27 -12 46 -12q30 0 48 23q36 47 36 177q0 79 -6.5 256.5t-6.5 253.5q0 154 51 206q35 36 86 36q30 0 53 -14z" />
    <glyph glyph-name="approxequal" unicode="&#x2248;" horiz-adv-x="656" 
d="M582 421l25 -22q-46 -92 -126 -92q-28 0 -51.5 9.5t-67.5 33.5q-62 34 -96 34q-54 0 -101 -75l-27 21q48 93 135 93q17 0 35.5 -5.5t28.5 -10t28.5 -15t21.5 -12.5q4 -2 16 -8.5t16.5 -8.5t14.5 -6.5t16.5 -6t15.5 -3t18 -1.5q30 0 52.5 18t45.5 57zM582 256l25 -22
q-47 -91 -126 -91q-20 0 -40 6t-33.5 12.5t-45.5 23.5q-60 34 -96 34q-33 0 -55.5 -19.5t-45.5 -55.5l-27 21q47 93 135 93q17 0 35 -5t29 -10t27.5 -14t22.5 -12q23 -13 33 -18.5t28.5 -11t36.5 -5.5q30 0 52.5 17.5t44.5 56.5z" />
    <glyph glyph-name="notequal" unicode="&#x2260;" horiz-adv-x="676" 
d="M507 498l-47 -101h164v-41h-181l-70 -149h251v-40h-268l-56 -120l-32 16l48 104h-155v40h173l69 149h-242v41h259l54 117z" />
    <glyph glyph-name="lessequal" unicode="&#x2264;" horiz-adv-x="691" 
d="M636 94l-454 225v42l454 225v-49l-409 -195v-2l409 -197v-49zM639 10h-463v42h463v-42z" />
    <glyph glyph-name="greaterequal" unicode="&#x2265;" horiz-adv-x="691" 
d="M182 586l455 -225v-42l-454 -225v49l408 196v2l-409 196v49zM638 10h-461v42h461v-42z" />
    <glyph glyph-name="lozenge" unicode="&#x25ca;" horiz-adv-x="713" 
d="M658 346l-204 -390h-47l-202 390l204 391h47zM603 344l-152 293q-8 16 -19 49h-2q-11 -32 -20 -49l-151 -290l153 -294q15 -29 18 -48h4q6 24 18 48z" />
    </font>
</defs>
</svg>
