<?xml version="1.0" standalone="no"?>
<!DOCTYPE svg PUBLIC "-//W3C//DTD SVG 1.1//EN" "http://www.w3.org/Graphics/SVG/1.1/DTD/svg11.dtd" >
<svg xmlns="http://www.w3.org/2000/svg" xmlns:xlink="http://www.w3.org/1999/xlink" version="1.1">
<metadata>
Created by FontForge 20170731 at Fri May 12 16:54:57 2006
 By Aleksey,,,
Copyright (c) 1989, 1990, 1991, 1994, 2002 Adobe Systems Incorporated.  All Rights Reserved. (c) 1981, 2002 Heidelberger Druckmaschinen AG. All rights reserved.
</metadata>
<defs>
<font id="HelveticaInseratLTStd-Roman" horiz-adv-x="500" >
  <font-face 
    font-family="Helvetica Inserat LT Std"
    font-weight="800"
    font-stretch="normal"
    units-per-em="1000"
    panose-1="2 11 8 6 3 7 2 5 2 4"
    ascent="799"
    descent="-201"
    x-height="639"
    cap-height="799"
    bbox="-176 -250 1000 991"
    underline-thickness="50"
    underline-position="-200"
    unicode-range="U+0020-FB02"
  />
<missing-glyph 
d="M0 0v700h500v-700h-500zM250 395l170 255h-340zM280 350l170 -255v510zM80 50h340l-170 255zM50 605v-510l170 255z" />
    <glyph glyph-name=".notdef" 
d="M0 0v700h500v-700h-500zM250 395l170 255h-340zM280 350l170 -255v510zM80 50h340l-170 255zM50 605v-510l170 255z" />
    <glyph glyph-name=".null" horiz-adv-x="0" 
 />
    <glyph glyph-name="nonmarkingreturn" horiz-adv-x="333" 
 />
    <glyph glyph-name="space" unicode=" " horiz-adv-x="250" 
 />
    <glyph glyph-name="exclam" unicode="!" horiz-adv-x="334" 
d="M84 799h166v-312l-38 -256h-90l-38 256v312zM250 0h-166v184h166v-184z" />
    <glyph glyph-name="quotedbl" unicode="&#x22;" 
d="M282 517v282h142v-282h-142zM76 517v282h142v-282h-142z" />
    <glyph glyph-name="numbersign" unicode="#" 
d="M29 467v118h89l24 201h115l-24 -201h81l24 201h114l-25 -201h74v-118h-89l-15 -131h74v-118h-89l-25 -218h-113l26 218h-82l-26 -218h-115l26 218h-74v118h89l15 131h-74zM300 467h-81l-17 -131h82z" />
    <glyph glyph-name="dollar" unicode="$" 
d="M29 175v90h166v-63q0 -21 1 -31.5t5.5 -23.5t15.5 -18.5t30 -5.5q47 0 47 75q0 36 -27.5 70.5t-66.5 65t-78 65t-66.5 86t-27.5 111.5q0 89 49.5 142.5t130.5 60.5v72h82v-72q92 -7 134 -60q38 -49 38 -145v-51h-166v53q0 67 -51 67q-19 0 -32 -17t-13 -41
q0 -30 28 -61.5t68 -63t80 -69t68 -93t28 -119.5q0 -182 -182 -212v-72h-82v72q-77 0 -128 48t-51 140z" />
    <glyph glyph-name="percent" unicode="%" horiz-adv-x="889" 
d="M628 286v-177q0 -17 5.5 -25.5t23.5 -8.5q27 0 27 34v177q0 34 -27 34q-18 0 -23.5 -8.5t-5.5 -25.5zM516 109v177q0 122 141 122q139 0 139 -122v-177q0 -122 -139 -122q-141 0 -141 122zM93 500v177q0 122 141 122q139 0 139 -122v-177q0 -122 -139 -122
q-141 0 -141 122zM205 677v-177q0 -17 5.5 -25.5t23.5 -8.5q27 0 27 34v177q0 34 -27 34q-18 0 -23.5 -8.5t-5.5 -25.5zM292 -26l212 838h93l-209 -838h-96z" />
    <glyph glyph-name="ampersand" unicode="&#x26;" horiz-adv-x="667" 
d="M480 444h141q-16 -179 -97 -274l94 -170h-177l-25 49q-65 -62 -164 -62q-56 0 -97 20t-61.5 46t-32 63.5t-13.5 60.5t-2 49q0 58 40 128t107 104q-21 35 -32 55t-23 55t-12 64q0 79 51.5 123t131.5 44q81 0 132 -38t51 -116q0 -59 -32.5 -113t-83.5 -92l70 -126
q2 -2 10 22t16 57t8 51zM354 160l-94 176q-29 -34 -41.5 -58t-12.5 -61q0 -34 21 -61t54 -27q37 0 73 31zM316 681q-42 0 -42 -41q0 -8 2.5 -17t7.5 -19.5t9 -18t10 -17t7 -11.5q46 44 46 79q0 45 -40 45z" />
    <glyph glyph-name="quotesingle" unicode="'" horiz-adv-x="278" 
d="M68 517v282h142v-282h-142z" />
    <glyph glyph-name="parenleft" unicode="(" horiz-adv-x="333" 
d="M294 799v-88q-20 0 -33.5 -7t-20.5 -16.5t-10.5 -28t-4 -31t-0.5 -36.5v-507q0 -24 1.5 -37.5t7 -32.5t21 -28t39.5 -9v-88q-100 17 -160 74.5t-63 156.5v435q4 105 62.5 170.5t160.5 72.5z" />
    <glyph glyph-name="parenright" unicode=")" horiz-adv-x="333" 
d="M39 -110v88q24 0 39.5 9t21 28t7 32.5t1.5 37.5v507q0 24 -0.5 36.5t-4 31t-10.5 28t-20.5 16.5t-33.5 7v88q102 -7 160.5 -72.5t62.5 -170.5v-435q-3 -99 -63 -156.5t-160 -74.5z" />
    <glyph glyph-name="asterisk" unicode="*" horiz-adv-x="389" 
d="M310 517l-79 56l8 -104h-82l3 104l-79 -58l-42 64l91 55l-89 56l37 68l82 -60l-6 101h84l-7 -100l84 58l35 -67l-93 -55l93 -55z" />
    <glyph glyph-name="plus" unicode="+" horiz-adv-x="600" 
d="M229 396v182h142v-182h182v-142h-182v-182h-142v182h-182v142h182z" />
    <glyph glyph-name="comma" unicode="," horiz-adv-x="250" 
d="M42 0v184h166v-172q0 -35 -27 -78.5t-46 -47.5h-93q64 55 82 114h-82z" />
    <glyph glyph-name="hyphen" unicode="-" horiz-adv-x="333" 
d="M35 264v148h263v-148h-263z" />
    <glyph glyph-name="period" unicode="." horiz-adv-x="250" 
d="M208 0h-166v184h166v-184z" />
    <glyph glyph-name="slash" unicode="/" horiz-adv-x="278" 
d="M-41 -13l218 825h142l-218 -825h-142z" />
    <glyph glyph-name="zero" unicode="0" 
d="M30 187v412q0 93 57 146.5t163 53.5q105 0 162.5 -53.5t57.5 -146.5v-412q0 -93 -57 -146.5t-163 -53.5q-105 0 -162.5 53.5t-57.5 146.5zM208 612v-438q0 -51 42 -51t42 51v438q0 51 -42 51t-42 -51z" />
    <glyph glyph-name="one" unicode="1" 
d="M51 590v112q49 3 91.5 23.5t56.5 60.5h150v-786h-172v590h-126z" />
    <glyph glyph-name="two" unicode="2" 
d="M37 510v62q6 118 58 172.5t168 54.5q104 0 160 -53t56 -156q0 -59 -17.5 -106t-48 -81.5t-62.5 -63.5t-69 -68t-60 -79q-5 -9 -10 -22q-6 -14 -8 -22h269v-148h-452v49q3 69 19.5 126t41.5 95t54.5 70.5t58.5 59.5t52.5 53.5t38.5 61t15 74.5q0 34 -9.5 54t-39.5 20
t-39.5 -20t-9.5 -54v-79h-166z" />
    <glyph glyph-name="three" unicode="3" 
d="M24 190v75h172v-82q0 -60 48 -60t48 60v56q0 69 -21.5 91t-91.5 23v130h31q31 0 53.5 16.5t22.5 44.5v65q0 54 -42 54q-45 0 -45 -58v-50h-171q-6 122 40 179q53 65 179 65q104 0 160.5 -46t56.5 -153q0 -66 -17.5 -107.5t-70.5 -66.5q55 -18 74.5 -65t19.5 -119
q0 -130 -48.5 -192.5t-174.5 -62.5q-106 0 -164.5 50.5t-58.5 152.5z" />
    <glyph glyph-name="four" unicode="4" 
d="M19 149v165q46 98 77.5 229t37.5 243h185q-11 -121 -66 -251t-133 -244h129v108q77 107 105 229h67v-337h60v-142h-60v-149h-172v149h-230z" />
    <glyph glyph-name="five" unicode="5" 
d="M42 355v431h403v-148h-255v-118h2q42 31 94 31q95 0 139.5 -51t44.5 -141v-111q0 -130 -50.5 -195.5t-172.5 -65.5q-106 0 -164.5 50.5t-58.5 152.5v69h172v-76q0 -60 48 -60t48 60v172q0 60 -48 60t-48 -60h-154z" />
    <glyph glyph-name="six" unicode="6" 
d="M30 187v412q0 93 57 146.5t163 53.5q208 0 208 -202h-160q0 66 -48 66t-48 -66v-89l2 -2q21 27 42 36t58 9q92 0 127.5 -54.5t38.5 -154.5v-155q0 -93 -57 -146.5t-163 -53.5q-105 0 -162.5 53.5t-57.5 146.5zM208 364v-190q0 -51 42 -51t42 51v190q0 51 -42 51t-42 -51z
" />
    <glyph glyph-name="seven" unicode="7" 
d="M12 638v148h458v-133q-27 -45 -43 -77q-52 -101 -86.5 -234t-43.5 -254q0 -4 -6 -88h-190q1 30 7 84q23 212 153 480l37 74h-286z" />
    <glyph glyph-name="eight" unicode="8" 
d="M30 187v66q0 24 0.5 37t5 36.5t13.5 38.5t27 31t44 26q-79 32 -84 123v54q0 26 1.5 43.5t12.5 50t32 53t64 37t104 16.5t104 -16.5t64 -37t32 -53t12.5 -50t1.5 -43.5v-54q-1 -35 -21.5 -69.5t-65.5 -53.5q32 -11 51.5 -27t28 -40t11 -45t2.5 -57v-66q0 -93 -57 -146.5
t-163 -53.5q-105 0 -162.5 53.5t-57.5 146.5zM208 301v-127q0 -51 42 -51t42 51v127q0 51 -42 51t-42 -51zM208 612v-73q0 -51 42 -51t42 51v73q0 51 -42 51t-42 -51z" />
    <glyph glyph-name="nine" unicode="9" 
d="M470 599v-412q0 -93 -57 -146.5t-163 -53.5q-208 0 -208 202h160q0 -66 48 -66t48 66v89l-2 2q-21 -27 -42 -36t-58 -9q-92 0 -127.5 54.5t-38.5 154.5v155q0 93 57 146.5t163 53.5q105 0 162.5 -53.5t57.5 -146.5zM292 422v190q0 51 -42 51t-42 -51v-190q0 -51 42 -51
t42 51z" />
    <glyph glyph-name="colon" unicode=":" horiz-adv-x="250" 
d="M42 397v184h166v-184h-166zM42 0v184h166v-184h-166z" />
    <glyph glyph-name="semicolon" unicode=";" horiz-adv-x="250" 
d="M42 0v184h166v-172q0 -35 -27 -78.5t-46 -47.5h-93q64 55 82 114h-82zM42 397v184h166v-184h-166z" />
    <glyph glyph-name="less" unicode="&#x3c;" horiz-adv-x="600" 
d="M553 64l-506 190v142l506 190v-154l-306 -106v-2l306 -106v-154z" />
    <glyph glyph-name="equal" unicode="=" horiz-adv-x="600" 
d="M553 520v-142h-506v142h506zM553 272v-142h-506v142h506z" />
    <glyph glyph-name="greater" unicode="&#x3e;" horiz-adv-x="600" 
d="M47 64v154l306 106v2l-306 106v154l506 -190v-142z" />
    <glyph glyph-name="question" unicode="?" 
d="M271 231h-130v45q0 46 17 86.5t40.5 70t47.5 56.5t41 58.5t17 64.5q0 38 -11.5 60t-44.5 22q-56 0 -56 -93v-55h-154v67q0 89 58.5 144t158.5 55q104 0 162.5 -48t58.5 -145q0 -42 -15 -78.5t-38 -62t-49.5 -53.5t-49.5 -53.5t-38 -62t-15 -78.5zM122 0v184h166v-184
h-166z" />
    <glyph glyph-name="at" unicode="@" horiz-adv-x="880" 
d="M424 280q50 0 83 35t33 84q0 41 -25.5 67t-65.5 26q-46 0 -77.5 -36.5t-31.5 -81.5q0 -40 22.5 -67t61.5 -27zM569 545l10 53h104l-48 -264q-7 -32 -7 -37q0 -23 27 -23q34 0 62 38t28 130q0 129 -79 199.5t-210 70.5q-137 0 -220 -88t-83 -226q0 -143 89 -227t232 -84
q121 0 209 67h109q-122 -167 -327 -167q-117 0 -215.5 52t-156.5 147t-58 212q0 176 123 295t301 119q99 0 186.5 -40t143.5 -118t56 -177q0 -72 -22.5 -130.5t-55 -92.5t-72 -57.5t-70.5 -32t-54 -8.5q-67 0 -69 55h-3q-40 -55 -106 -55q-72 0 -127.5 59.5t-55.5 140.5
q0 102 62.5 178t160.5 76q88 0 136 -65z" />
    <glyph glyph-name="A" unicode="A" horiz-adv-x="556" 
d="M7 0l148 799h244l150 -799h-193l-17 142h-129l-19 -142h-184zM276 675l-47 -391h92l-43 391h-2z" />
    <glyph glyph-name="B" unicode="B" horiz-adv-x="556" 
d="M41 0v799h255q103 0 151 -43.5t48 -144.5q0 -75 -20 -121t-81 -67v-2q65 -12 93 -58t28 -126q0 -237 -213 -237h-261zM225 353v-217h38q43 0 55.5 22.5t12.5 86.5q0 32 -3.5 53t-18.5 38t-42 17h-42zM225 663v-180h34q39 0 51.5 24t12.5 69t-12.5 66t-44.5 21h-41z" />
    <glyph glyph-name="C" unicode="C" horiz-adv-x="556" 
d="M41 218v363q0 113 65 172t172 59t172 -59t65 -172v-74h-184v90q0 15 -1 23.5t-5.5 22t-16 20.5t-30.5 7t-30.5 -7t-16 -20.5t-5.5 -22t-1 -23.5v-395q0 -73 53 -73t53 73v117h184v-101q0 -107 -64 -169t-173 -62t-173 62t-64 169z" />
    <glyph glyph-name="D" unicode="D" horiz-adv-x="556" 
d="M225 663v-527h29q77 0 77 68v391q0 68 -77 68h-29zM41 0v799h274q110 0 155 -56t45 -158v-380q0 -102 -59 -153.5t-141 -51.5h-274z" />
    <glyph glyph-name="E" unicode="E" 
d="M41 0v799h409v-154h-225v-159h197v-154h-197v-178h234v-154h-418z" />
    <glyph glyph-name="F" unicode="F" horiz-adv-x="444" 
d="M41 0v799h384v-154h-200v-159h179v-154h-179v-332h-184z" />
    <glyph glyph-name="G" unicode="G" horiz-adv-x="556" 
d="M41 218v363q0 113 65 172t172 59q50 0 90.5 -10t74.5 -31.5t53 -61t19 -93.5v-89h-175v80q0 63 -58 63q-32 0 -44.5 -23t-12.5 -50v-395q0 -73 53 -73q59 0 59 60v103h-65v148h243v-440h-161v65h-2q-48 -78 -142 -78q-169 0 -169 231z" />
    <glyph glyph-name="H" unicode="H" horiz-adv-x="556" 
d="M41 0v799h184v-299h106v299h184v-799h-184v340h-106v-340h-184z" />
    <glyph glyph-name="I" unicode="I" horiz-adv-x="278" 
d="M47 0v799h184v-799h-184z" />
    <glyph glyph-name="J" unicode="J" 
d="M459 799v-600q0 -109 -55 -160.5t-167 -51.5q-213 0 -213 212v117h178v-136q0 -16 1.5 -25t10 -17.5t23.5 -8.5q38 0 38 52v618h184z" />
    <glyph glyph-name="K" unicode="K" horiz-adv-x="556" 
d="M41 0v799h178v-327h3l122 327h195l-153 -331l154 -468h-196l-82 286l-43 -66v-220h-178z" />
    <glyph glyph-name="L" unicode="L" horiz-adv-x="444" 
d="M41 0v799h184v-645h200v-154h-384z" />
    <glyph glyph-name="M" unicode="M" horiz-adv-x="778" 
d="M46 0v799h290l52 -396h2l52 396h290v-799h-178v621h-2l-103 -621h-120l-103 621h-2v-621h-178z" />
    <glyph glyph-name="N" unicode="N" horiz-adv-x="611" 
d="M41 0v799h201l148 -471h2v471h178v-799h-200l-149 494h-2v-494h-178z" />
    <glyph glyph-name="O" unicode="O" horiz-adv-x="556" 
d="M225 597v-395q0 -73 53 -73t53 73v395q0 15 -1 23.5t-5.5 22t-16 20.5t-30.5 7t-30.5 -7t-16 -20.5t-5.5 -22t-1 -23.5zM41 218v363q0 113 65 172t172 59t172 -59t65 -172v-363q0 -107 -64 -169t-173 -62t-173 62t-64 169z" />
    <glyph glyph-name="P" unicode="P" horiz-adv-x="556" 
d="M225 657v-198h46q42 0 55 22t13 79q0 36 -5 56t-19.5 29t-27 10.5t-41.5 1.5h-21zM41 0v799h197q82 0 131 -8.5t86.5 -34.5t52.5 -74t15 -126q0 -39 -4 -70.5t-17 -64t-33.5 -54.5t-56 -36t-83.5 -14h-104v-317h-184z" />
    <glyph glyph-name="Q" unicode="Q" horiz-adv-x="556" 
d="M225 597v-395q0 -73 53 -73t53 73v395q0 15 -1 23.5t-5.5 22t-16 20.5t-30.5 7t-30.5 -7t-16 -20.5t-5.5 -22t-1 -23.5zM41 218v363q0 113 65 172t172 59t172 -59t65 -172v-363q0 -133 -104 -198l71 -115l-149 -15q-10 21 -54 97q-110 0 -174 62t-64 169z" />
    <glyph glyph-name="R" unicode="R" horiz-adv-x="556" 
d="M41 0v799h243q125 0 179 -43.5t54 -149.5q0 -79 -21.5 -121.5t-89.5 -63.5v-2q49 -10 78 -43.5t29 -83.5v-141q0 -109 12 -138q3 -8 7 -13h-182q-21 26 -21 151v128q0 35 -16 50.5t-54 15.5h-34v-345h-184zM225 663v-182h45q18 0 30.5 5.5t19 12t9.5 21.5t3.5 25t0.5 30
q0 27 -1 38.5t-7.5 25.5t-22 19t-41.5 5h-36z" />
    <glyph glyph-name="S" unicode="S" horiz-adv-x="556" 
d="M34 271h178v-59q0 -83 62 -83q30 0 47 17.5t17 44.5q0 23 -8.5 43t-34 44.5t-36.5 33t-51 37.5q-11 8 -16 12q-6 5 -30.5 24.5t-32 26.5t-26 25t-25.5 30.5t-17 32t-13.5 41.5t-3.5 47q0 224 235 224q117 0 173.5 -53t56.5 -148v-72h-172v43q0 88 -58 88q-29 0 -46 -16
t-17 -44q0 -16 9 -32.5t37 -41t39.5 -34t54.5 -41.5q9 -7 13 -10q8 -7 40.5 -33t44.5 -39.5t32 -42t28 -64t8 -81.5q0 -32 -12.5 -65t-39.5 -65.5t-78.5 -53t-119.5 -20.5q-65 0 -113.5 19t-74.5 49.5t-38 63t-12 66.5v86z" />
    <glyph glyph-name="T" unicode="T" horiz-adv-x="444" 
d="M11 645v154h422v-154h-119v-645h-184v645h-119z" />
    <glyph glyph-name="U" unicode="U" horiz-adv-x="556" 
d="M41 218v581h184v-583q0 -21 1 -31.5t5.5 -24t16 -19.5t30.5 -6t30.5 6t16 19.5t5.5 24t1 31.5v583h184v-581q0 -107 -64 -169t-173 -62t-173 62t-64 169z" />
    <glyph glyph-name="V" unicode="V" 
d="M129 0l-122 799h188l50 -568h2l61 568h185l-136 -799h-228z" />
    <glyph glyph-name="W" unicode="W" horiz-adv-x="833" 
d="M151 0l-136 799h189l65 -568h2l59 568h179l56 -568h2l66 568h185l-140 -799h-205l-54 492h-2l-61 -492h-205z" />
    <glyph glyph-name="X" unicode="X" horiz-adv-x="556" 
d="M10 0l155 431l-146 368h198l63 -227h2l64 227h191l-147 -374l156 -425h-193l-78 258h-2l-72 -258h-191z" />
    <glyph glyph-name="Y" unicode="Y" 
d="M158 316l-150 483h190l51 -270h2l54 270h187l-150 -470v-329h-184v316z" />
    <glyph glyph-name="Z" unicode="Z" 
d="M29 645v154h453v-149l-261 -496h261v-154h-464v149l259 496h-248z" />
    <glyph glyph-name="bracketleft" unicode="[" horiz-adv-x="333" 
d="M78 -110v909h224v-100h-70v-709h70v-100h-224z" />
    <glyph glyph-name="backslash" unicode="\" horiz-adv-x="278" 
d="M101 812l218 -825h-142l-218 825h142z" />
    <glyph glyph-name="bracketright" unicode="]" horiz-adv-x="333" 
d="M255 -110h-224v100h70v709h-70v100h224v-909z" />
    <glyph glyph-name="asciicircum" unicode="^" horiz-adv-x="600" 
d="M206 421h-159l162 365h182l162 -365h-160l-93 238z" />
    <glyph glyph-name="underscore" unicode="_" 
d="M500 -125h-500v50h500v-50z" />
    <glyph glyph-name="grave" unicode="`" horiz-adv-x="278" 
d="M3 832h158l44 -136h-93z" />
    <glyph glyph-name="a" unicode="a" 
d="M461 452v-452h-158v49h-2q-19 -29 -52 -45.5t-70 -16.5q-45 0 -74.5 15t-43 45t-18 60t-4.5 75q0 43 10.5 75.5t31.5 54t40.5 33.5t47.5 25q8 3 27 10.5t26.5 11.5t22.5 11.5t21.5 14t14.5 16t11 21.5t3 26q0 27 -8.5 40t-31.5 13q-44 0 -44 -44v-52h-160v58
q0 70 56.5 113t145.5 43q114 0 161 -47t47 -153zM295 149v172l-48 -35q-30 -22 -30 -57v-85q0 -51 38 -51q19 0 29.5 15.5t10.5 40.5z" />
    <glyph glyph-name="b" unicode="b" 
d="M39 0v799h172v-218h2q20 37 48.5 54t74.5 17q62 0 93.5 -42t31.5 -120v-312q0 -90 -33.5 -140.5t-94.5 -50.5q-87 0 -120 77h-2v-64h-172zM211 441v-220q0 -23 1 -36t4.5 -31.5t13 -27.5t25.5 -9q34 0 34 42v324q0 18 -10.5 28.5t-23.5 10.5q-44 0 -44 -81z" />
    <glyph glyph-name="c" unicode="c" 
d="M39 169v301q0 32 9.5 61t31 57.5t65.5 46t105 17.5t105 -17.5t65.5 -46t31 -57.5t9.5 -61v-68h-172v80q0 16 -1.5 24.5t-10.5 18t-27 9.5t-27 -9.5t-10.5 -18t-1.5 -24.5v-325q0 -16 1.5 -24.5t10.5 -18t27 -9.5t27 9.5t10.5 18t1.5 24.5v115h172v-103q0 -32 -9.5 -61
t-31 -57.5t-65.5 -46t-105 -17.5t-105 17.5t-65.5 46t-31 57.5t-9.5 61z" />
    <glyph glyph-name="d" unicode="d" 
d="M461 799v-799h-172v64h-2q-33 -77 -120 -77q-61 0 -94.5 50.5t-33.5 140.5v312q0 78 31.5 120t93.5 42q46 0 74.5 -17t48.5 -54h2v218h172zM289 221v220q0 81 -44 81q-13 0 -23.5 -10.5t-10.5 -28.5v-324q0 -42 34 -42q16 0 25.5 9t13 27.5t4.5 31.5t1 36z" />
    <glyph glyph-name="e" unicode="e" 
d="M39 169v301q0 32 9.5 61t31 57.5t65.5 46t105 17.5t105 -17.5t65.5 -46t31 -57.5t9.5 -61v-176h-250v-137q0 -16 1.5 -24.5t10.5 -18t27 -9.5t27 9.5t10.5 18t1.5 24.5v80h172v-68q0 -32 -9.5 -61t-31 -57.5t-65.5 -46t-105 -17.5t-105 17.5t-65.5 46t-31 57.5t-9.5 61z
M211 482v-70h78v70q0 16 -1.5 24.5t-10.5 18t-27 9.5t-27 -9.5t-10.5 -18t-1.5 -24.5z" />
    <glyph glyph-name="f" unicode="f" horiz-adv-x="278" 
d="M11 508v124h41v46q0 41 10.5 66.5t34 37t46 14.5t59.5 3h65v-112h-17q-32 0 -32 -32v-23h49v-124h-43v-508h-172v508h-41z" />
    <glyph glyph-name="g" unicode="g" 
d="M461 639v-564q0 -106 -49.5 -148.5t-159.5 -42.5q-189 0 -204 136h166q0 -23 10 -33q8 -8 28 -8q38 0 38 44v113l-2 2q-13 -37 -44.5 -56.5t-73.5 -19.5q-56 0 -93.5 41.5t-37.5 110.5v237q0 42 5 73.5t18.5 62.5t42 48t71.5 17q44 0 70.5 -21t45.5 -63h2v71h167z
M211 475v-242q0 -47 35 -47q43 0 43 91v166q0 41 -13 60t-30 19q-35 0 -35 -47z" />
    <glyph glyph-name="h" unicode="h" 
d="M39 0v799h172v-219h2q44 72 125 72q59 0 91 -38.5t32 -98.5v-515h-172v437q0 17 -1 27t-10.5 22t-27.5 12q-39 0 -39 -61v-437h-172z" />
    <glyph glyph-name="i" unicode="i" horiz-adv-x="278" 
d="M53 0v639h172v-639h-172zM53 681v118h172v-118h-172z" />
    <glyph glyph-name="j" unicode="j" horiz-adv-x="278" 
d="M53 46v593h172v-573q0 -32 -2.5 -55.5t-11 -47.5t-23 -39t-40 -24.5t-60.5 -9.5h-84v120q10 -2 16 -2q33 0 33 38zM53 681v118h172v-118h-172z" />
    <glyph glyph-name="k" unicode="k" 
d="M313 0l-97 351l94 288h176l-100 -280l103 -359h-176zM39 0v799h172v-799h-172z" />
    <glyph glyph-name="l" unicode="l" horiz-adv-x="278" 
d="M53 0v799h172v-799h-172z" />
    <glyph glyph-name="m" unicode="m" horiz-adv-x="778" 
d="M47 0v639h166v-79h2q26 48 55.5 70t78.5 22q45 0 77 -22.5t42 -69.5q28 50 55 71t82 21q60 0 93 -38t33 -99v-515h-172v429q0 69 -42 69t-42 -69v-429h-172v429q0 69 -42 69t-42 -69v-429h-172z" />
    <glyph glyph-name="n" unicode="n" 
d="M39 0v639h166v-71h2q25 43 54.5 63.5t76.5 20.5q59 0 91 -38.5t32 -98.5v-515h-172v437q0 17 -1 27t-10.5 22t-27.5 12q-39 0 -39 -61v-437h-172z" />
    <glyph glyph-name="o" unicode="o" 
d="M39 169v301q0 32 9.5 61t31 57.5t65.5 46t105 17.5t105 -17.5t65.5 -46t31 -57.5t9.5 -61v-301q0 -32 -9.5 -61t-31 -57.5t-65.5 -46t-105 -17.5t-105 17.5t-65.5 46t-31 57.5t-9.5 61zM211 482v-325q0 -16 1.5 -24.5t10.5 -18t27 -9.5t27 9.5t10.5 18t1.5 24.5v325
q0 16 -1.5 24.5t-10.5 18t-27 9.5t-27 -9.5t-10.5 -18t-1.5 -24.5z" />
    <glyph glyph-name="p" unicode="p" 
d="M39 -110v749h172v-58h2q20 37 48.5 54t74.5 17q62 0 93.5 -42t31.5 -120v-312q0 -90 -33.5 -140.5t-94.5 -50.5q-87 0 -120 77h-2v-174h-172zM211 441v-220q0 -23 1 -36t4.5 -31.5t13 -27.5t25.5 -9q34 0 34 42v324q0 18 -10.5 28.5t-23.5 10.5q-44 0 -44 -81z" />
    <glyph glyph-name="q" unicode="q" 
d="M461 639v-749h-172v174h-2q-33 -77 -120 -77q-61 0 -94.5 50.5t-33.5 140.5v312q0 78 31.5 120t93.5 42q46 0 74.5 -17t48.5 -54h2v58h172zM289 221v220q0 81 -44 81q-13 0 -23.5 -10.5t-10.5 -28.5v-324q0 -42 34 -42q16 0 25.5 9t13 27.5t4.5 31.5t1 36z" />
    <glyph glyph-name="r" unicode="r" horiz-adv-x="333" 
d="M39 0v639h163v-113h2q28 69 45 90q29 36 78 36v-208h-40q-76 0 -76 -81v-363h-172z" />
    <glyph glyph-name="s" unicode="s" horiz-adv-x="444" 
d="M24 159v42h154v-39q0 -57 44 -57q38 0 38 47q0 15 -5.5 28t-19.5 27t-24 22t-33.5 25t-32.5 24q-54 41 -84.5 84t-30.5 106q0 88 52.5 136t139.5 48q191 0 191 -168v-34h-154v34q0 50 -37 50q-38 0 -38 -43q0 -23 15.5 -42t53 -46t49.5 -38q28 -22 44 -36t36 -38
t29 -52.5t9 -63.5q0 -21 -2.5 -40t-14 -48t-31 -49.5t-58.5 -35.5t-92 -15q-108 0 -153 44t-45 128z" />
    <glyph glyph-name="t" unicode="t" horiz-adv-x="278" 
d="M52 102v406h-43v124h43v139h172v-139h43v-124h-43v-342q0 -49 23 -49h22v-130h-83q-65 0 -99.5 23t-34.5 92z" />
    <glyph glyph-name="u" unicode="u" 
d="M461 639v-639h-166v71h-2q-25 -43 -54.5 -63.5t-76.5 -20.5q-59 0 -91 38.5t-32 98.5v515h172v-437q0 -17 1 -27t10.5 -22t27.5 -12q39 0 39 61v437h172z" />
    <glyph glyph-name="v" unicode="v" horiz-adv-x="444" 
d="M121 0l-116 639h177l40 -409h2l43 409h172l-117 -639h-201z" />
    <glyph glyph-name="w" unicode="w" horiz-adv-x="722" 
d="M134 0l-125 639h179l48 -449h2l46 449h161l39 -449h2l55 449h172l-123 -639h-181l-49 425h-2l-43 -425h-181z" />
    <glyph glyph-name="x" unicode="x" 
d="M12 0l144 331l-136 308h189l44 -169h2l45 169h183l-133 -308l138 -331h-188l-48 193h-2l-53 -193h-185z" />
    <glyph glyph-name="y" unicode="y" horiz-adv-x="444" 
d="M53 -116v124h39q29 0 29 23q0 19 -11 72l-105 536h176l43 -449h2l44 449h169l-112 -585q-19 -96 -53 -130q-40 -40 -141 -40h-80z" />
    <glyph glyph-name="z" unicode="z" horiz-adv-x="444" 
d="M31 503v136h388v-130l-209 -373h209v-136h-394v130l202 373h-196z" />
    <glyph glyph-name="braceleft" unicode="{" horiz-adv-x="333" 
d="M338 -110h-113q-60 0 -97.5 36.5t-37.5 111.5v182q0 71 -95 71v106q20 0 38.5 3.5t37.5 21t19 46.5v182q0 75 37.5 112t97.5 37h113v-100h-41q-53 0 -53 -65v-191q-1 -51 -36.5 -73t-78.5 -24v-2q22 -2 36.5 -5t35 -12.5t32 -32t11.5 -55.5v-184q0 -65 53 -65h41v-100z
" />
    <glyph glyph-name="bar" unicode="|" horiz-adv-x="222" 
d="M40 -250v1000h142v-1000h-142z" />
    <glyph glyph-name="braceright" unicode="}" horiz-adv-x="333" 
d="M-5 -110v100h42q53 0 53 65v184q0 33 11.5 55.5t32 32t35 12.5t36.5 5v2q-43 2 -78.5 24t-36.5 73v191q0 65 -53 65h-42v100h114q60 0 97.5 -37t37.5 -112v-182q0 -29 19 -46.5t37 -21t38 -3.5v-106q-20 0 -38 -3.5t-37 -21t-19 -46.5v-182q0 -75 -37.5 -111.5
t-97.5 -36.5h-114z" />
    <glyph glyph-name="asciitilde" unicode="~" horiz-adv-x="600" 
d="M495 435l36 -130q-20 -27 -33 -42t-38 -29.5t-54 -14.5q-42 0 -102 33q-66 37 -115 37q-50 0 -84 -74l-36 130q45 86 125 86q39 0 111 -32q9 -4 27 -12.5t28.5 -13t24 -8.5t22.5 -4q19 0 36.5 13t26.5 25t25 36z" />
    <glyph glyph-name="uni00A0" unicode="&#xa0;" horiz-adv-x="250" 
 />
    <glyph glyph-name="exclamdown" unicode="&#xa1;" horiz-adv-x="334" 
d="M250 689v-184h-166v184h166zM250 -110h-166v312l38 256h90l38 -256v-312z" />
    <glyph glyph-name="cent" unicode="&#xa2;" 
d="M39 169v301q0 74 46 122q47 48 120 60v78h88v-78q61 -9 103 -42q65 -49 65 -140v-68h-172v80q0 16 -1.5 24.5t-10.5 18t-27 9.5t-27 -9.5t-10.5 -18t-1.5 -24.5v-325q0 -16 1.5 -24.5t10.5 -18t27 -9.5t27 9.5t10.5 18t1.5 24.5v115h172v-103q0 -91 -65 -140
q-38 -30 -103 -42v-78h-88v78q-73 12 -120 60q-46 48 -46 122z" />
    <glyph glyph-name="sterling" unicode="&#xa3;" 
d="M20 330v88h66q-52 106 -52 186q0 97 64.5 146t160.5 49q105 0 157.5 -53t52.5 -152v-39h-160v33q0 75 -50 75q-47 0 -47 -55q0 -30 7 -60.5t18 -68t16 -61.5h131v-88h-122q0 -100 -84 -189q24 0 59 -5t48 -5q25 0 36 22.5t11 47.5h148v-43q0 -79 -47 -125t-126 -46
q-35 0 -98.5 13t-93.5 13q-48 0 -90 -21l7 152q82 21 82 148q0 22 -4 38h-90z" />
    <glyph glyph-name="currency" unicode="&#xa4;" 
d="M74 177l-50 50l48 48q-43 57 -43 131q0 68 41 128l-46 46l50 50l46 -46q58 42 130 42t130 -42l46 46l50 -50l-47 -46q42 -58 42 -128q0 -71 -42 -129l47 -46l-50 -50l-47 46q-57 -42 -129 -42q-69 0 -127 40zM147 406q0 -50 29.5 -82.5t73.5 -32.5q43 0 73 32.5t30 82.5
t-30 82t-73 32q-44 0 -73.5 -32t-29.5 -82z" />
    <glyph glyph-name="yen" unicode="&#xa5;" 
d="M24 353v88h100l-104 345h184l45 -270h2l55 270h174l-102 -345h100v-88h-129l-10 -37v-41h139v-88h-139v-187h-178v187h-137v88h137v28l-10 50h-127z" />
    <glyph glyph-name="brokenbar" unicode="&#xa6;" horiz-adv-x="222" 
d="M40 -175v350h142v-350h-142zM40 375v300h142v-300h-142z" />
    <glyph glyph-name="section" unicode="&#xa7;" 
d="M344 311q0 33 -41 56q-99 57 -131 86q-22 -35 -22 -52q0 -20 28.5 -42t74.5 -48t66 -42q9 5 17 17.5t8 24.5zM451 612h-154v30q0 58 -46 58q-18 0 -30.5 -15t-12.5 -34q0 -30 27.5 -55t66.5 -45.5t78 -45t66.5 -64.5t27.5 -93q0 -92 -66 -150q46 -52 46 -116
q0 -88 -56.5 -135t-145.5 -47q-98 0 -150.5 50.5t-52.5 149.5h154v-19q0 -26 11.5 -49.5t36.5 -23.5q23 0 36 15t13 37q0 25 -20.5 46t-50.5 35t-66 35.5t-66 45t-50.5 65t-20.5 94.5q0 87 74 144v2q-4 0 -13.5 14.5t-18 39.5t-8.5 47q0 85 55 134.5t139 49.5q101 0 149 -49
t48 -151z" />
    <glyph glyph-name="dieresis" unicode="&#xa8;" horiz-adv-x="278" 
d="M276 702h-112v130h112v-130zM114 702h-112v130h112v-130z" />
    <glyph glyph-name="copyright" unicode="&#xa9;" horiz-adv-x="880" 
d="M440 -13q-182 0 -305 115.5t-123 296.5t123 297t305 116t305 -116t123 -297t-123 -296.5t-305 -115.5zM440 105q127 0 212.5 84.5t85.5 209.5t-85.5 210t-212.5 85q-129 0 -213.5 -84t-84.5 -211t85 -210.5t213 -83.5zM550 340h104q-11 -79 -64.5 -126.5t-132.5 -47.5
q-102 0 -166.5 67t-64.5 170q0 105 62.5 171.5t165.5 66.5q79 0 131.5 -45.5t64.5 -123.5h-100q-14 69 -96 69q-47 0 -75.5 -38t-28.5 -98q0 -51 29 -95t78 -44q38 0 64 19t29 55z" />
    <glyph glyph-name="ordfeminine" unicode="&#xaa;" horiz-adv-x="325" 
d="M305 679v-271h-108v29h-2q-31 -37 -89 -37q-29 0 -47.5 9t-26 27.5t-10 35.5t-2.5 45q0 48 22.5 72.5t62.5 40.5q6 2 25 8.5t26 9.5t18 9.5t15 14.5t4 19q0 32 -32 32q-31 0 -31 -27v-27h-106v37q0 46 37.5 69.5t99.5 23.5q81 0 112.5 -28t31.5 -92zM193 497v104
q-48 -26 -57 -36q-4 -10 -4 -20v-55q0 -16 6 -20t20 -4q17 0 26 9.5t9 21.5z" />
    <glyph glyph-name="guillemotleft" unicode="&#xab;" 
d="M272 187h-130l-98 145l101 141h130l-104 -141zM453 187h-130l-98 145l100 141h131l-104 -141z" />
    <glyph glyph-name="logicalnot" unicode="&#xac;" horiz-adv-x="600" 
d="M411 192v186h-364v142h506v-328h-142z" />
    <glyph glyph-name="uni00AD" unicode="&#xad;" horiz-adv-x="333" 
d="M35 264v148h263v-148h-263z" />
    <glyph glyph-name="registered" unicode="&#xae;" horiz-adv-x="880" 
d="M377 366v-189h-112v444h168q94 0 140.5 -29t46.5 -105q0 -112 -107 -117l114 -193h-129l-102 189h-19zM377 442h64q32 0 46.5 11.5t14.5 44.5q0 29 -19.5 38t-51.5 9h-54v-103zM440 -13q-182 0 -305 115.5t-123 296.5t123 297t305 116t305 -116t123 -297t-123 -296.5
t-305 -115.5zM440 105q127 0 212.5 84.5t85.5 209.5t-85.5 210t-212.5 85q-129 0 -213.5 -84t-84.5 -211t85 -210.5t213 -83.5z" />
    <glyph glyph-name="macron" unicode="&#xaf;" horiz-adv-x="278" 
d="M-8 710v76h294v-76h-294z" />
    <glyph glyph-name="degree" unicode="&#xb0;" horiz-adv-x="400" 
d="M366 639q0 -66 -48 -113t-118 -47t-118 47t-48 113t48 113t118 47t118 -47t48 -113zM200 729q-36 0 -60 -26.5t-24 -63.5t24 -63.5t60 -26.5t60 26.5t24 63.5t-24 63.5t-60 26.5z" />
    <glyph glyph-name="plusminus" unicode="&#xb1;" horiz-adv-x="600" 
d="M229 488v102h142v-102h182v-142h-182v-102h-142v102h-182v142h182zM47 60v142h506v-142h-506z" />
    <glyph glyph-name="two.superior" unicode="&#xb2;" horiz-adv-x="325" 
d="M20 627v36q4 71 38 103.5t113 32.5q67 0 104.5 -31.5t37.5 -93.5q0 -43 -19 -77.5t-43.5 -54.5t-56.5 -49.5t-50 -57.5q-11 -18 -12 -27h175v-88h-295v29q3 56 23 99.5t46 69t52 47.5t44 48.5t18 59.5q0 44 -31 44q-32 0 -32 -44v-46h-112z" />
    <glyph glyph-name="three.superior" unicode="&#xb3;" horiz-adv-x="325" 
d="M16 434v44h112v-48q0 -36 32 -36q31 0 31 36v33q0 42 -14 55.5t-59 14.5v76h20q20 0 34.5 9.5t14.5 27.5v39q0 16 -5 24t-22 8q-16 0 -23 -7.5t-7 -26.5v-32h-112q-4 74 28.5 111t115.5 37q143 0 143 -119q0 -39 -12.5 -64t-47.5 -40q64 -21 64 -107q0 -78 -33 -117.5
t-114 -39.5q-69 0 -107.5 30.5t-38.5 91.5z" />
    <glyph glyph-name="acute" unicode="&#xb4;" horiz-adv-x="278" 
d="M73 696l47 136h155l-106 -136h-96z" />
    <glyph glyph-name="mu" unicode="&#xb5;" 
d="M461 639v-639h-166v71h-2q-39 -69 -88 -78v-103h-166v749h172v-437q0 -17 1 -27t10.5 -22t27.5 -12q39 0 39 61v437h172z" />
    <glyph glyph-name="paragraph" unicode="&#xb6;" horiz-adv-x="620" 
d="M206 -87v537q-108 0 -165.5 45t-57.5 126q0 100 64.5 139t181.5 39h314v-886h-118v792h-101v-792h-118z" />
    <glyph glyph-name="periodcentered" unicode="&#xb7;" horiz-adv-x="250" 
d="M217 328q0 -38 -27 -65t-65 -27t-65 27t-27 65t27 65t65 27t65 -27t27 -65z" />
    <glyph glyph-name="cedilla" unicode="&#xb8;" horiz-adv-x="278" 
d="M109 0h55l-40 -44h2q16 5 40 5q38 0 61.5 -21t23.5 -58q0 -45 -33.5 -62.5t-78.5 -17.5q-62 0 -134 31l19 27q54 -18 82 -18q51 0 51 34q0 39 -43 39q-14 0 -40 -8l-22 19z" />
    <glyph glyph-name="one.superior" unicode="&#xb9;" horiz-adv-x="325" 
d="M27 673v64q30 0 59 14t37 40h110v-471h-124v353h-82z" />
    <glyph glyph-name="ordmasculine" unicode="&#xba;" horiz-adv-x="325" 
d="M20 511v177q0 61 42 86t100 25q59 0 101 -25t42 -86v-177q0 -61 -42 -86t-101 -25q-58 0 -100 25t-42 86zM132 688v-177q0 -35 30 -35q31 0 31 35v177q0 35 -31 35q-30 0 -30 -35z" />
    <glyph glyph-name="guillemotright" unicode="&#xbb;" 
d="M46 187l101 145l-103 141h130l101 -141l-99 -145h-130zM227 187l101 145l-103 141h130l101 -141l-99 -145h-130z" />
    <glyph glyph-name="onequarter" unicode="&#xbc;" horiz-adv-x="750" 
d="M91 -26l418 838h102l-418 -838h-102zM0 673v64q30 0 59 14t37 40h110v-471h-124v353h-82zM437 87v101q66 132 77 284h124q-4 -45 -17.5 -87.5t-27 -67t-42 -71t-42.5 -71.5h78v63q26 25 46 64t28 75h50v-202h39v-88h-39v-87h-124v87h-150z" />
    <glyph glyph-name="onehalf" unicode="&#xbd;" horiz-adv-x="750" 
d="M78 -26l418 838h102l-418 -838h-102zM0 673v64q30 0 59 14t37 40h110v-471h-124v353h-82zM457 307v36q4 71 38 103.5t113 32.5q67 0 104.5 -31.5t37.5 -93.5q0 -43 -19 -77.5t-43.5 -54.5t-56.5 -49.5t-50 -57.5q-5 -6 -6 -13q-4 -8 -6 -14h175v-88h-295v29q3 56 23 99.5
t46 69t52 47.5t44 48.5t18 59.5q0 44 -31 44q-32 0 -32 -44v-46h-112z" />
    <glyph glyph-name="threequarters" unicode="&#xbe;" horiz-adv-x="750" 
d="M122 -26l418 838h102l-418 -838h-102zM0 434v44h112v-48q0 -36 32 -36q31 0 31 36v33q0 42 -14 55.5t-59 14.5v76h20q20 0 34.5 9.5t14.5 27.5v39q0 16 -5 24t-22 8q-16 0 -23 -7.5t-7 -26.5v-32h-112q-4 74 28.5 111t115.5 37q143 0 143 -119q0 -39 -12.5 -64t-47.5 -40
q64 -21 64 -107q0 -78 -33 -117.5t-114 -39.5q-69 0 -107.5 30.5t-38.5 91.5zM437 90v101q66 132 77 284h124q-4 -45 -17.5 -87.5t-27 -67t-42 -71t-42.5 -71.5h78v63q26 25 46 64t28 75h50v-202h39v-88h-39v-87h-124v87h-150z" />
    <glyph glyph-name="questiondown" unicode="&#xbf;" 
d="M229 458h130v-45q0 -46 -17 -86.5t-40.5 -70t-47.5 -56.5t-41 -58.5t-17 -64.5q0 -38 11.5 -60t44.5 -22q56 0 56 93v55h154v-67q0 -89 -58.5 -144t-158.5 -55q-104 0 -162.5 48t-58.5 145q0 42 15 78.5t38 62t49.5 53.5t49.5 53.5t38 62t15 78.5zM372 505h-166v184h166
v-184z" />
    <glyph glyph-name="Agrave" unicode="&#xc0;" horiz-adv-x="556" 
d="M7 0l148 799h244l150 -799h-193l-17 142h-129l-19 -142h-184zM276 675l-47 -391h92l-43 391h-2zM142 983h158l44 -136h-93z" />
    <glyph glyph-name="Aacute" unicode="&#xc1;" horiz-adv-x="556" 
d="M7 0l148 799h244l150 -799h-193l-17 142h-129l-19 -142h-184zM276 675l-47 -391h92l-43 391h-2zM212 847l47 136h155l-106 -136h-96z" />
    <glyph glyph-name="Acircumflex" unicode="&#xc2;" horiz-adv-x="556" 
d="M7 0l148 799h244l150 -799h-193l-17 142h-129l-19 -142h-184zM276 675l-47 -391h92l-43 391h-2zM228 847h-98l83 136h141l72 -136h-104l-44 76z" />
    <glyph glyph-name="Atilde" unicode="&#xc3;" horiz-adv-x="556" 
d="M7 0l148 799h244l150 -799h-193l-17 142h-129l-19 -142h-184zM276 675l-47 -391h92l-43 391h-2zM393 979l48 -21q-20 -48 -45 -74t-69 -26q-25 0 -60 16.5t-55 16.5q-27 0 -49 -36l-48 18q40 100 99 100q25 0 67.5 -17t57.5 -17q38 0 54 40z" />
    <glyph glyph-name="Adieresis" unicode="&#xc4;" horiz-adv-x="556" 
d="M7 0l148 799h244l150 -799h-193l-17 142h-129l-19 -142h-184zM276 675l-47 -391h92l-43 391h-2zM415 853h-112v130h112v-130zM253 853h-112v130h112v-130z" />
    <glyph glyph-name="Aring" unicode="&#xc5;" horiz-adv-x="556" 
d="M7 0l148 799h244l150 -799h-193l-17 142h-129l-19 -142h-184zM276 675l-47 -391h92l-43 391h-2zM279 822q-47 0 -82.5 20t-35.5 65q0 42 36.5 62.5t81.5 20.5q46 0 81 -20t35 -63t-35 -64t-81 -21zM279 944q-66 0 -66 -37q0 -39 66 -39q64 0 64 39q0 37 -64 37z" />
    <glyph glyph-name="AE" unicode="&#xc6;" horiz-adv-x="778" 
d="M-14 0l203 799h541v-154h-214v-159h196v-154h-196v-178h221v-154h-399v154h-130l-36 -154h-186zM333 687l-90 -385h95v385h-5z" />
    <glyph glyph-name="Ccedilla" unicode="&#xc7;" horiz-adv-x="556" 
d="M292 -12l-29 -32h2q16 5 40 5q38 0 61.5 -21t23.5 -58q0 -45 -33.5 -62.5t-78.5 -17.5q-62 0 -134 31l19 27q54 -18 82 -18q51 0 51 34q0 39 -43 39q-14 0 -40 -8l-22 19l49 64q-93 11 -146 71t-53 157v363q0 113 65 172t172 59t172 -59t65 -172v-74h-184v90
q0 15 -1 23.5t-5.5 22t-16 20.5t-30.5 7t-30.5 -7t-16 -20.5t-5.5 -22t-1 -23.5v-395q0 -73 53 -73t53 73v117h184v-101q0 -103 -60 -164.5t-163 -65.5z" />
    <glyph glyph-name="Egrave" unicode="&#xc8;" 
d="M41 0v799h409v-154h-225v-159h197v-154h-197v-178h234v-154h-418zM114 983h158l44 -136h-93z" />
    <glyph glyph-name="Eacute" unicode="&#xc9;" 
d="M41 0v799h409v-154h-225v-159h197v-154h-197v-178h234v-154h-418zM184 847l47 136h155l-106 -136h-96z" />
    <glyph glyph-name="Ecircumflex" unicode="&#xca;" 
d="M41 0v799h409v-154h-225v-159h197v-154h-197v-178h234v-154h-418zM200 847h-98l83 136h141l72 -136h-104l-44 76z" />
    <glyph glyph-name="Edieresis" unicode="&#xcb;" 
d="M41 0v799h409v-154h-225v-159h197v-154h-197v-178h234v-154h-418zM387 853h-112v130h112v-130zM225 853h-112v130h112v-130z" />
    <glyph glyph-name="Igrave" unicode="&#xcc;" horiz-adv-x="278" 
d="M47 0v799h184v-799h-184zM3 983h158l44 -136h-93z" />
    <glyph glyph-name="Iacute" unicode="&#xcd;" horiz-adv-x="278" 
d="M47 0v799h184v-799h-184zM73 847l47 136h155l-106 -136h-96z" />
    <glyph glyph-name="Icircumflex" unicode="&#xce;" horiz-adv-x="278" 
d="M47 0v799h184v-799h-184zM89 847h-98l83 136h141l72 -136h-104l-44 76z" />
    <glyph glyph-name="Idieresis" unicode="&#xcf;" horiz-adv-x="278" 
d="M47 0v799h184v-799h-184zM276 853h-112v130h112v-130zM114 853h-112v130h112v-130z" />
    <glyph glyph-name="Eth" unicode="&#xd0;" horiz-adv-x="556" 
d="M41 0v366h-38v124h38v309h274q110 0 155 -56t45 -158v-380q0 -102 -59 -153.5t-141 -51.5h-274zM225 663v-173h56v-124h-56v-230h33q33 0 53 16.5t20 42.5v400q0 68 -77 68h-29z" />
    <glyph glyph-name="Ntilde" unicode="&#xd1;" horiz-adv-x="611" 
d="M41 0v799h201l148 -471h2v471h178v-799h-200l-149 494h-2v-494h-178zM421 979l48 -21q-20 -48 -45 -74t-69 -26q-25 0 -60 16.5t-55 16.5q-27 0 -49 -36l-48 18q40 100 99 100q25 0 67.5 -17t57.5 -17q38 0 54 40z" />
    <glyph glyph-name="Ograve" unicode="&#xd2;" horiz-adv-x="556" 
d="M225 597v-395q0 -73 53 -73t53 73v395q0 15 -1 23.5t-5.5 22t-16 20.5t-30.5 7t-30.5 -7t-16 -20.5t-5.5 -22t-1 -23.5zM41 218v363q0 113 65 172t172 59t172 -59t65 -172v-363q0 -107 -64 -169t-173 -62t-173 62t-64 169zM142 983h158l44 -136h-93z" />
    <glyph glyph-name="Oacute" unicode="&#xd3;" horiz-adv-x="556" 
d="M225 597v-395q0 -73 53 -73t53 73v395q0 15 -1 23.5t-5.5 22t-16 20.5t-30.5 7t-30.5 -7t-16 -20.5t-5.5 -22t-1 -23.5zM41 218v363q0 113 65 172t172 59t172 -59t65 -172v-363q0 -107 -64 -169t-173 -62t-173 62t-64 169zM212 847l47 136h155l-106 -136h-96z" />
    <glyph glyph-name="Ocircumflex" unicode="&#xd4;" horiz-adv-x="556" 
d="M225 597v-395q0 -73 53 -73t53 73v395q0 15 -1 23.5t-5.5 22t-16 20.5t-30.5 7t-30.5 -7t-16 -20.5t-5.5 -22t-1 -23.5zM41 218v363q0 113 65 172t172 59t172 -59t65 -172v-363q0 -107 -64 -169t-173 -62t-173 62t-64 169zM228 847h-98l83 136h141l72 -136h-104l-44 76z
" />
    <glyph glyph-name="Otilde" unicode="&#xd5;" horiz-adv-x="556" 
d="M225 597v-395q0 -73 53 -73t53 73v395q0 15 -1 23.5t-5.5 22t-16 20.5t-30.5 7t-30.5 -7t-16 -20.5t-5.5 -22t-1 -23.5zM41 218v363q0 113 65 172t172 59t172 -59t65 -172v-363q0 -107 -64 -169t-173 -62t-173 62t-64 169zM393 979l48 -21q-20 -48 -45 -74t-69 -26
q-25 0 -60 16.5t-55 16.5q-27 0 -49 -36l-48 18q40 100 99 100q25 0 67.5 -17t57.5 -17q38 0 54 40z" />
    <glyph glyph-name="Odieresis" unicode="&#xd6;" horiz-adv-x="556" 
d="M225 597v-395q0 -73 53 -73t53 73v395q0 15 -1 23.5t-5.5 22t-16 20.5t-30.5 7t-30.5 -7t-16 -20.5t-5.5 -22t-1 -23.5zM41 218v363q0 113 65 172t172 59t172 -59t65 -172v-363q0 -107 -64 -169t-173 -62t-173 62t-64 169zM415 853h-112v130h112v-130zM253 853h-112v130
h112v-130z" />
    <glyph glyph-name="multiply" unicode="&#xd7;" horiz-adv-x="600" 
d="M198 325l-144 144l102 102l144 -144l144 144l102 -102l-144 -144l144 -144l-102 -102l-144 144l-144 -144l-102 102z" />
    <glyph glyph-name="Oslash" unicode="&#xd8;" horiz-adv-x="556" 
d="M227 348l104 178v71q0 15 -1 23.5t-5.5 22t-16 20.5t-30.5 7t-30.5 -7t-16 -20.5t-5.5 -22t-1 -23.5v-249h2zM329 408l-104 -178v-28q0 -73 53 -73t53 73v206h-2zM23 8l50 85q-32 53 -32 125v363q0 113 65 172t172 59q119 0 182 -69l39 66l54 -27l-57 -96q19 -47 19 -105
v-363q0 -107 -64 -169t-173 -62q-102 0 -165 55l-36 -61z" />
    <glyph glyph-name="Ugrave" unicode="&#xd9;" horiz-adv-x="556" 
d="M41 218v581h184v-583q0 -21 1 -31.5t5.5 -24t16 -19.5t30.5 -6t30.5 6t16 19.5t5.5 24t1 31.5v583h184v-581q0 -107 -64 -169t-173 -62t-173 62t-64 169zM142 983h158l44 -136h-93z" />
    <glyph glyph-name="Uacute" unicode="&#xda;" horiz-adv-x="556" 
d="M41 218v581h184v-583q0 -21 1 -31.5t5.5 -24t16 -19.5t30.5 -6t30.5 6t16 19.5t5.5 24t1 31.5v583h184v-581q0 -107 -64 -169t-173 -62t-173 62t-64 169zM212 847l47 136h155l-106 -136h-96z" />
    <glyph glyph-name="Ucircumflex" unicode="&#xdb;" horiz-adv-x="556" 
d="M41 218v581h184v-583q0 -21 1 -31.5t5.5 -24t16 -19.5t30.5 -6t30.5 6t16 19.5t5.5 24t1 31.5v583h184v-581q0 -107 -64 -169t-173 -62t-173 62t-64 169zM228 847h-98l83 136h141l72 -136h-104l-44 76z" />
    <glyph glyph-name="Udieresis" unicode="&#xdc;" horiz-adv-x="556" 
d="M41 218v581h184v-583q0 -21 1 -31.5t5.5 -24t16 -19.5t30.5 -6t30.5 6t16 19.5t5.5 24t1 31.5v583h184v-581q0 -107 -64 -169t-173 -62t-173 62t-64 169zM415 853h-112v130h112v-130zM253 853h-112v130h112v-130z" />
    <glyph glyph-name="Yacute" unicode="&#xdd;" 
d="M158 316l-150 483h190l51 -270h2l54 270h187l-150 -470v-329h-184v316zM184 847l47 136h155l-106 -136h-96z" />
    <glyph glyph-name="Thorn" unicode="&#xde;" horiz-adv-x="556" 
d="M225 527v-198h46q42 0 55 22t13 79q0 36 -5 56t-19.5 29t-27 10.5t-41.5 1.5h-21zM41 0v799h184v-130h59q68 0 109.5 -9.5t72.5 -35.5t44 -74t13 -124q0 -50 -6.5 -87.5t-25 -74.5t-58 -57t-98.5 -20h-110v-187h-184z" />
    <glyph glyph-name="germandbls" unicode="&#xdf;" 
d="M39 0v620q0 179 207 179q97 0 152 -41.5t55 -127.5q0 -57 -14 -91t-58 -53v-2q50 -10 65 -42t15 -91v-150q0 -201 -157 -201h-66v142q51 0 51 46v191q0 48 -51 48v124q21 0 34.5 10t14.5 30v32q0 28 -7.5 40t-33.5 12q-16 0 -24.5 -8.5t-9.5 -17t-1 -23.5v-626h-172z" />
    <glyph glyph-name="agrave" unicode="&#xe0;" 
d="M461 452v-452h-158v49h-2q-19 -29 -52 -45.5t-70 -16.5q-45 0 -74.5 15t-43 45t-18 60t-4.5 75q0 43 10.5 75.5t31.5 54t40.5 33.5t47.5 25q8 3 27 10.5t26.5 11.5t22.5 11.5t21.5 14t14.5 16t11 21.5t3 26q0 27 -8.5 40t-31.5 13q-44 0 -44 -44v-52h-160v58
q0 70 56.5 113t145.5 43q114 0 161 -47t47 -153zM295 149v172l-48 -35q-30 -22 -30 -57v-85q0 -51 38 -51q19 0 29.5 15.5t10.5 40.5zM114 823h158l44 -136h-93z" />
    <glyph glyph-name="aacute" unicode="&#xe1;" 
d="M461 452v-452h-158v49h-2q-19 -29 -52 -45.5t-70 -16.5q-45 0 -74.5 15t-43 45t-18 60t-4.5 75q0 43 10.5 75.5t31.5 54t40.5 33.5t47.5 25q8 3 27 10.5t26.5 11.5t22.5 11.5t21.5 14t14.5 16t11 21.5t3 26q0 27 -8.5 40t-31.5 13q-44 0 -44 -44v-52h-160v58
q0 70 56.5 113t145.5 43q114 0 161 -47t47 -153zM295 149v172l-48 -35q-30 -22 -30 -57v-85q0 -51 38 -51q19 0 29.5 15.5t10.5 40.5zM184 687l47 136h155l-106 -136h-96z" />
    <glyph glyph-name="acircumflex" unicode="&#xe2;" 
d="M461 452v-452h-158v49h-2q-19 -29 -52 -45.5t-70 -16.5q-45 0 -74.5 15t-43 45t-18 60t-4.5 75q0 43 10.5 75.5t31.5 54t40.5 33.5t47.5 25q8 3 27 10.5t26.5 11.5t22.5 11.5t21.5 14t14.5 16t11 21.5t3 26q0 27 -8.5 40t-31.5 13q-44 0 -44 -44v-52h-160v58
q0 70 56.5 113t145.5 43q114 0 161 -47t47 -153zM295 149v172l-48 -35q-30 -22 -30 -57v-85q0 -51 38 -51q19 0 29.5 15.5t10.5 40.5zM200 687h-98l83 136h141l72 -136h-104l-44 76z" />
    <glyph glyph-name="atilde" unicode="&#xe3;" 
d="M461 452v-452h-158v49h-2q-19 -29 -52 -45.5t-70 -16.5q-45 0 -74.5 15t-43 45t-18 60t-4.5 75q0 43 10.5 75.5t31.5 54t40.5 33.5t47.5 25q8 3 27 10.5t26.5 11.5t22.5 11.5t21.5 14t14.5 16t11 21.5t3 26q0 27 -8.5 40t-31.5 13q-44 0 -44 -44v-52h-160v58
q0 70 56.5 113t145.5 43q114 0 161 -47t47 -153zM295 149v172l-48 -35q-30 -22 -30 -57v-85q0 -51 38 -51q19 0 29.5 15.5t10.5 40.5zM365 819l48 -21q-20 -48 -45 -74t-69 -26q-25 0 -60 16.5t-55 16.5q-27 0 -49 -36l-48 18q40 100 99 100q25 0 67.5 -17t57.5 -17
q38 0 54 40z" />
    <glyph glyph-name="adieresis" unicode="&#xe4;" 
d="M461 452v-452h-158v49h-2q-19 -29 -52 -45.5t-70 -16.5q-45 0 -74.5 15t-43 45t-18 60t-4.5 75q0 43 10.5 75.5t31.5 54t40.5 33.5t47.5 25q8 3 27 10.5t26.5 11.5t22.5 11.5t21.5 14t14.5 16t11 21.5t3 26q0 27 -8.5 40t-31.5 13q-44 0 -44 -44v-52h-160v58
q0 70 56.5 113t145.5 43q114 0 161 -47t47 -153zM295 149v172l-48 -35q-30 -22 -30 -57v-85q0 -51 38 -51q19 0 29.5 15.5t10.5 40.5zM387 693h-112v130h112v-130zM225 693h-112v130h112v-130z" />
    <glyph glyph-name="aring" unicode="&#xe5;" 
d="M461 452v-452h-158v49h-2q-19 -29 -52 -45.5t-70 -16.5q-45 0 -74.5 15t-43 45t-18 60t-4.5 75q0 43 10.5 75.5t31.5 54t40.5 33.5t47.5 25q8 3 27 10.5t26.5 11.5t22.5 11.5t21.5 14t14.5 16t11 21.5t3 26q0 27 -8.5 40t-31.5 13q-44 0 -44 -44v-52h-160v58
q0 70 56.5 113t145.5 43q114 0 161 -47t47 -153zM295 149v172l-48 -35q-30 -22 -30 -57v-85q0 -51 38 -51q19 0 29.5 15.5t10.5 40.5zM251 662q-47 0 -82.5 20t-35.5 65q0 42 36.5 62.5t81.5 20.5q46 0 81 -20t35 -63t-35 -64t-81 -21zM251 784q-66 0 -66 -37q0 -39 66 -39
q64 0 64 39q0 37 -64 37z" />
    <glyph glyph-name="ae" unicode="&#xe6;" horiz-adv-x="722" 
d="M450 482v-70h78v70q0 16 -1.5 24.5t-10.5 18t-27 9.5t-27 -9.5t-10.5 -18t-1.5 -24.5zM688 497v-203h-238v-144q0 -45 39 -45t39 50v82h160v-98q0 -79 -53 -115.5t-134 -36.5q-64 0 -103 13.5t-85 63.5q-59 -77 -140 -77q-38 0 -64.5 11t-41 27t-22 44.5t-9.5 52t-2 60.5
q0 56 19.5 96t43 57.5t61.5 34.5q8 3 27 10.5t26.5 11.5t22.5 11.5t21.5 14t14.5 16t11 21.5t3 26q0 27 -8.5 40t-31.5 13q-44 0 -44 -44v-52h-160v58q0 70 56.5 113t145.5 43q71 0 122 -34q50 34 147 34q70 0 123 -40t54 -115zM284 149v172l-48 -35q-30 -22 -30 -57v-85
q0 -51 38 -51q19 0 29.5 15.5t10.5 40.5z" />
    <glyph glyph-name="ccedilla" unicode="&#xe7;" 
d="M273 -11l-38 -42h2q16 5 40 5q38 0 61.5 -21t23.5 -58q0 -45 -33.5 -62.5t-78.5 -17.5q-62 0 -134 31l19 27q54 -18 82 -18q51 0 51 34q0 39 -43 39q-14 0 -40 -8l-22 19l56 73q-52 4 -89.5 22.5t-56 46t-26.5 54.5t-8 56v301q0 32 9.5 61t31 57.5t65.5 46t105 17.5
t105 -17.5t65.5 -46t31 -57.5t9.5 -61v-68h-172v80q0 16 -1.5 24.5t-10.5 18t-27 9.5t-27 -9.5t-10.5 -18t-1.5 -24.5v-325q0 -16 1.5 -24.5t10.5 -18t27 -9.5t27 9.5t10.5 18t1.5 24.5v115h172v-103q0 -30 -8.5 -57.5t-28 -55.5t-58.5 -46t-93 -21z" />
    <glyph glyph-name="egrave" unicode="&#xe8;" 
d="M39 169v301q0 32 9.5 61t31 57.5t65.5 46t105 17.5t105 -17.5t65.5 -46t31 -57.5t9.5 -61v-176h-250v-137q0 -16 1.5 -24.5t10.5 -18t27 -9.5t27 9.5t10.5 18t1.5 24.5v80h172v-68q0 -32 -9.5 -61t-31 -57.5t-65.5 -46t-105 -17.5t-105 17.5t-65.5 46t-31 57.5t-9.5 61z
M211 482v-70h78v70q0 16 -1.5 24.5t-10.5 18t-27 9.5t-27 -9.5t-10.5 -18t-1.5 -24.5zM114 823h158l44 -136h-93z" />
    <glyph glyph-name="eacute" unicode="&#xe9;" 
d="M39 169v301q0 32 9.5 61t31 57.5t65.5 46t105 17.5t105 -17.5t65.5 -46t31 -57.5t9.5 -61v-176h-250v-137q0 -16 1.5 -24.5t10.5 -18t27 -9.5t27 9.5t10.5 18t1.5 24.5v80h172v-68q0 -32 -9.5 -61t-31 -57.5t-65.5 -46t-105 -17.5t-105 17.5t-65.5 46t-31 57.5t-9.5 61z
M211 482v-70h78v70q0 16 -1.5 24.5t-10.5 18t-27 9.5t-27 -9.5t-10.5 -18t-1.5 -24.5zM184 687l47 136h155l-106 -136h-96z" />
    <glyph glyph-name="ecircumflex" unicode="&#xea;" 
d="M39 169v301q0 32 9.5 61t31 57.5t65.5 46t105 17.5t105 -17.5t65.5 -46t31 -57.5t9.5 -61v-176h-250v-137q0 -16 1.5 -24.5t10.5 -18t27 -9.5t27 9.5t10.5 18t1.5 24.5v80h172v-68q0 -32 -9.5 -61t-31 -57.5t-65.5 -46t-105 -17.5t-105 17.5t-65.5 46t-31 57.5t-9.5 61z
M211 482v-70h78v70q0 16 -1.5 24.5t-10.5 18t-27 9.5t-27 -9.5t-10.5 -18t-1.5 -24.5zM200 687h-98l83 136h141l72 -136h-104l-44 76z" />
    <glyph glyph-name="edieresis" unicode="&#xeb;" 
d="M39 169v301q0 32 9.5 61t31 57.5t65.5 46t105 17.5t105 -17.5t65.5 -46t31 -57.5t9.5 -61v-176h-250v-137q0 -16 1.5 -24.5t10.5 -18t27 -9.5t27 9.5t10.5 18t1.5 24.5v80h172v-68q0 -32 -9.5 -61t-31 -57.5t-65.5 -46t-105 -17.5t-105 17.5t-65.5 46t-31 57.5t-9.5 61z
M211 482v-70h78v70q0 16 -1.5 24.5t-10.5 18t-27 9.5t-27 -9.5t-10.5 -18t-1.5 -24.5zM387 693h-112v130h112v-130zM225 693h-112v130h112v-130z" />
    <glyph glyph-name="igrave" unicode="&#xec;" horiz-adv-x="278" 
d="M225 0h-172v639h172v-639zM3 823h158l44 -136h-93z" />
    <glyph glyph-name="iacute" unicode="&#xed;" horiz-adv-x="278" 
d="M225 0h-172v639h172v-639zM73 687l47 136h155l-106 -136h-96z" />
    <glyph glyph-name="icircumflex" unicode="&#xee;" horiz-adv-x="278" 
d="M225 0h-172v639h172v-639zM89 687h-98l83 136h141l72 -136h-104l-44 76z" />
    <glyph glyph-name="idieresis" unicode="&#xef;" horiz-adv-x="278" 
d="M225 0h-172v639h172v-639zM276 693h-112v130h112v-130zM114 693h-112v130h112v-130z" />
    <glyph glyph-name="eth" unicode="&#xf0;" 
d="M39 169v248q0 77 60.5 121t140.5 44q23 0 51 -8q0 13 -12.5 39.5t-34.5 48.5l-93 -39l-54 56l88 36q-23 21 -83 44l109 53q80 -43 91 -49l111 46l48 -65l-97 -41q97 -100 97 -289v-245q0 -32 -9.5 -61t-31 -57.5t-65.5 -46t-105 -17.5t-105 17.5t-65.5 46t-31 57.5
t-9.5 61zM211 412v-255q0 -16 1.5 -24.5t10.5 -18t27 -9.5t27 9.5t10.5 18t1.5 24.5v255q0 16 -1.5 24.5t-10.5 18t-27 9.5t-27 -9.5t-10.5 -18t-1.5 -24.5z" />
    <glyph glyph-name="ntilde" unicode="&#xf1;" 
d="M39 0v639h166v-71h2q25 43 54.5 63.5t76.5 20.5q59 0 91 -38.5t32 -98.5v-515h-172v437q0 17 -1 27t-10.5 22t-27.5 12q-39 0 -39 -61v-437h-172zM365 819l48 -21q-20 -48 -45 -74t-69 -26q-25 0 -60 16.5t-55 16.5q-27 0 -49 -36l-48 18q40 100 99 100q25 0 67.5 -17
t57.5 -17q38 0 54 40z" />
    <glyph glyph-name="ograve" unicode="&#xf2;" 
d="M39 169v301q0 32 9.5 61t31 57.5t65.5 46t105 17.5t105 -17.5t65.5 -46t31 -57.5t9.5 -61v-301q0 -32 -9.5 -61t-31 -57.5t-65.5 -46t-105 -17.5t-105 17.5t-65.5 46t-31 57.5t-9.5 61zM211 482v-325q0 -16 1.5 -24.5t10.5 -18t27 -9.5t27 9.5t10.5 18t1.5 24.5v325
q0 16 -1.5 24.5t-10.5 18t-27 9.5t-27 -9.5t-10.5 -18t-1.5 -24.5zM114 823h158l44 -136h-93z" />
    <glyph glyph-name="oacute" unicode="&#xf3;" 
d="M39 169v301q0 32 9.5 61t31 57.5t65.5 46t105 17.5t105 -17.5t65.5 -46t31 -57.5t9.5 -61v-301q0 -32 -9.5 -61t-31 -57.5t-65.5 -46t-105 -17.5t-105 17.5t-65.5 46t-31 57.5t-9.5 61zM211 482v-325q0 -16 1.5 -24.5t10.5 -18t27 -9.5t27 9.5t10.5 18t1.5 24.5v325
q0 16 -1.5 24.5t-10.5 18t-27 9.5t-27 -9.5t-10.5 -18t-1.5 -24.5zM184 687l47 136h155l-106 -136h-96z" />
    <glyph glyph-name="ocircumflex" unicode="&#xf4;" 
d="M39 169v301q0 32 9.5 61t31 57.5t65.5 46t105 17.5t105 -17.5t65.5 -46t31 -57.5t9.5 -61v-301q0 -32 -9.5 -61t-31 -57.5t-65.5 -46t-105 -17.5t-105 17.5t-65.5 46t-31 57.5t-9.5 61zM211 482v-325q0 -16 1.5 -24.5t10.5 -18t27 -9.5t27 9.5t10.5 18t1.5 24.5v325
q0 16 -1.5 24.5t-10.5 18t-27 9.5t-27 -9.5t-10.5 -18t-1.5 -24.5zM200 687h-98l83 136h141l72 -136h-104l-44 76z" />
    <glyph glyph-name="otilde" unicode="&#xf5;" 
d="M39 169v301q0 32 9.5 61t31 57.5t65.5 46t105 17.5t105 -17.5t65.5 -46t31 -57.5t9.5 -61v-301q0 -32 -9.5 -61t-31 -57.5t-65.5 -46t-105 -17.5t-105 17.5t-65.5 46t-31 57.5t-9.5 61zM211 482v-325q0 -16 1.5 -24.5t10.5 -18t27 -9.5t27 9.5t10.5 18t1.5 24.5v325
q0 16 -1.5 24.5t-10.5 18t-27 9.5t-27 -9.5t-10.5 -18t-1.5 -24.5zM365 819l48 -21q-20 -48 -45 -74t-69 -26q-25 0 -60 16.5t-55 16.5q-27 0 -49 -36l-48 18q40 100 99 100q25 0 67.5 -17t57.5 -17q38 0 54 40z" />
    <glyph glyph-name="odieresis" unicode="&#xf6;" 
d="M39 169v301q0 32 9.5 61t31 57.5t65.5 46t105 17.5t105 -17.5t65.5 -46t31 -57.5t9.5 -61v-301q0 -32 -9.5 -61t-31 -57.5t-65.5 -46t-105 -17.5t-105 17.5t-65.5 46t-31 57.5t-9.5 61zM211 482v-325q0 -16 1.5 -24.5t10.5 -18t27 -9.5t27 9.5t10.5 18t1.5 24.5v325
q0 16 -1.5 24.5t-10.5 18t-27 9.5t-27 -9.5t-10.5 -18t-1.5 -24.5zM387 693h-112v130h112v-130zM225 693h-112v130h112v-130z" />
    <glyph glyph-name="divide" unicode="&#xf7;" horiz-adv-x="600" 
d="M553 254h-506v142h506v-142zM300 630q41 0 69.5 -28.5t28.5 -69.5t-28.5 -69.5t-69.5 -28.5t-69.5 28.5t-28.5 69.5t28.5 69.5t69.5 28.5zM398 118q0 -41 -28.5 -69.5t-69.5 -28.5t-69.5 28.5t-28.5 69.5t28.5 69.5t69.5 28.5t69.5 -28.5t28.5 -69.5z" />
    <glyph glyph-name="oslash" unicode="&#xf8;" 
d="M213 306l76 118v58q0 16 -1.5 24.5t-10.5 18t-27 9.5t-27 -9.5t-10.5 -18t-1.5 -24.5v-176h2zM287 322l-76 -118v-47q0 -16 1.5 -24.5t10.5 -18t27 -9.5t27 9.5t10.5 18t1.5 24.5v165h-2zM39 169v301q0 32 9.5 61t31 57.5t65.5 46t105 17.5q104 0 157 -50l40 58l43 -32
l-48 -74q19 -38 19 -84v-301q0 -32 -9.5 -61t-31 -57.5t-65.5 -46t-105 -17.5q-99 0 -152 46l-42 -60l-43 34l48 72q-22 39 -22 90z" />
    <glyph glyph-name="ugrave" unicode="&#xf9;" 
d="M461 639v-639h-166v71h-2q-25 -43 -54.5 -63.5t-76.5 -20.5q-59 0 -91 38.5t-32 98.5v515h172v-437q0 -17 1 -27t10.5 -22t27.5 -12q39 0 39 61v437h172zM114 823h158l44 -136h-93z" />
    <glyph glyph-name="uacute" unicode="&#xfa;" 
d="M461 639v-639h-166v71h-2q-25 -43 -54.5 -63.5t-76.5 -20.5q-59 0 -91 38.5t-32 98.5v515h172v-437q0 -17 1 -27t10.5 -22t27.5 -12q39 0 39 61v437h172zM184 687l47 136h155l-106 -136h-96z" />
    <glyph glyph-name="ucircumflex" unicode="&#xfb;" 
d="M461 639v-639h-166v71h-2q-25 -43 -54.5 -63.5t-76.5 -20.5q-59 0 -91 38.5t-32 98.5v515h172v-437q0 -17 1 -27t10.5 -22t27.5 -12q39 0 39 61v437h172zM200 687h-98l83 136h141l72 -136h-104l-44 76z" />
    <glyph glyph-name="udieresis" unicode="&#xfc;" 
d="M461 639v-639h-166v71h-2q-25 -43 -54.5 -63.5t-76.5 -20.5q-59 0 -91 38.5t-32 98.5v515h172v-437q0 -17 1 -27t10.5 -22t27.5 -12q39 0 39 61v437h172zM387 693h-112v130h112v-130zM225 693h-112v130h112v-130z" />
    <glyph glyph-name="yacute" unicode="&#xfd;" horiz-adv-x="444" 
d="M53 -116v124h39q29 0 29 23q0 19 -11 72l-105 536h176l43 -449h2l44 449h169l-112 -585q-19 -96 -53 -130q-40 -40 -141 -40h-80zM156 687l47 136h155l-106 -136h-96z" />
    <glyph glyph-name="thorn" unicode="&#xfe;" 
d="M39 -110v909h172v-224h2q33 77 120 77q128 0 128 -159v-370q0 -55 -31.5 -95.5t-87.5 -40.5q-47 0 -73.5 16t-55.5 55h-2v-168h-172zM211 418v-220q0 -81 44 -81q20 0 27 8t7 37v318q0 42 -34 42q-16 0 -25.5 -9t-13 -27.5t-4.5 -31.5t-1 -36z" />
    <glyph glyph-name="ydieresis" unicode="&#xff;" horiz-adv-x="444" 
d="M53 -116v124h39q29 0 29 23q0 19 -11 72l-105 536h176l43 -449h2l44 449h169l-112 -585q-19 -96 -53 -130q-40 -40 -141 -40h-80zM359 693h-112v130h112v-130zM197 693h-112v130h112v-130z" />
    <glyph glyph-name="dotlessi" unicode="&#x131;" horiz-adv-x="278" 
d="M225 0h-172v639h172v-639z" />
    <glyph glyph-name="Lslash" unicode="&#x141;" horiz-adv-x="444" 
d="M-3 288v124l44 27v360h184v-247l98 60v-124l-98 -60v-274h200v-154h-384v315z" />
    <glyph glyph-name="lslash" unicode="&#x142;" horiz-adv-x="278" 
d="M0 288v124l53 32v355h172v-250l53 33v-124l-53 -33v-425h-172v320z" />
    <glyph glyph-name="OE" unicode="&#x152;" horiz-adv-x="778" 
d="M41 218v363q0 113 65 172t172 59q19 0 53 -6q31 -7 48 -7h353v-154h-223v-159h196v-154h-196v-178h228v-154h-323q-42 0 -69 -6q-31 -7 -67 -7q-109 0 -173 62t-64 169zM225 597v-395q0 -73 53 -73t53 73v395q0 15 -1 23.5t-5.5 22t-16 20.5t-30.5 7t-30.5 -7t-16 -20.5
t-5.5 -22t-1 -23.5z" />
    <glyph glyph-name="oe" unicode="&#x153;" horiz-adv-x="722" 
d="M450 482v-70h78v70q0 16 -1.5 24.5t-10.5 18t-27 9.5t-27 -9.5t-10.5 -18t-1.5 -24.5zM34 169v301q0 32 9.5 61t31 57.5t65.5 46t105 17.5q72 0 128 -46q35 26 64.5 36t73.5 10q70 0 123 -40t54 -115v-203h-238v-144q0 -45 44 -45q34 0 34 50v82h160v-98
q0 -79 -53 -115.5t-134 -36.5q-86 0 -143 44q-44 -44 -113 -44q-61 0 -105 17.5t-65.5 46t-31 57.5t-9.5 61zM206 482v-325q0 -16 1.5 -24.5t10.5 -18t27 -9.5t27 9.5t10.5 18t1.5 24.5v325q0 16 -1.5 24.5t-10.5 18t-27 9.5t-27 -9.5t-10.5 -18t-1.5 -24.5z" />
    <glyph glyph-name="Scaron" unicode="&#x160;" horiz-adv-x="556" 
d="M34 271h178v-59q0 -83 62 -83q30 0 47 17.5t17 44.5q0 23 -8.5 43t-34 44.5t-36.5 33t-51 37.5q-11 8 -16 12q-6 5 -30.5 24.5t-32 26.5t-26 25t-25.5 30.5t-17 32t-13.5 41.5t-3.5 47q0 224 235 224q117 0 173.5 -53t56.5 -148v-72h-172v43q0 88 -58 88q-29 0 -46 -16
t-17 -44q0 -16 9 -32.5t37 -41t39.5 -34t54.5 -41.5q9 -7 13 -10q8 -7 40.5 -33t44.5 -39.5t32 -42t28 -64t8 -81.5q0 -32 -12.5 -65t-39.5 -65.5t-78.5 -53t-119.5 -20.5q-65 0 -113.5 19t-74.5 49.5t-38 63t-12 66.5v86zM201 847l-66 136h97l44 -73l48 73h97l-79 -136
h-141z" />
    <glyph glyph-name="scaron" unicode="&#x161;" horiz-adv-x="444" 
d="M24 159v42h154v-39q0 -57 44 -57q38 0 38 47q0 15 -5.5 28t-19.5 27t-24 22t-33.5 25t-32.5 24q-54 41 -84.5 84t-30.5 106q0 88 52.5 136t139.5 48q191 0 191 -168v-34h-154v34q0 50 -37 50q-38 0 -38 -43q0 -23 15.5 -42t53 -46t49.5 -38q28 -22 44 -36t36 -38
t29 -52.5t9 -63.5q0 -21 -2.5 -40t-14 -48t-31 -49.5t-58.5 -35.5t-92 -15q-108 0 -153 44t-45 128zM145 687l-66 136h97l44 -73l48 73h97l-79 -136h-141z" />
    <glyph glyph-name="Ydieresis" unicode="&#x178;" 
d="M158 316l-150 483h190l51 -270h2l54 270h187l-150 -470v-329h-184v316zM387 853h-112v130h112v-130zM225 853h-112v130h112v-130z" />
    <glyph glyph-name="Zcaron" unicode="&#x17d;" 
d="M29 645v154h453v-149l-261 -496h261v-154h-464v149l259 496h-248zM173 847l-66 136h97l44 -73l48 73h97l-79 -136h-141z" />
    <glyph glyph-name="zcaron" unicode="&#x17e;" horiz-adv-x="444" 
d="M31 503v136h388v-130l-209 -373h209v-136h-394v130l202 373h-196zM145 687l-66 136h97l44 -73l48 73h97l-79 -136h-141z" />
    <glyph glyph-name="florin" unicode="&#x192;" 
d="M93 432l18 112h90l11 66q16 91 54 140t124 49q60 0 105 -5l-22 -117q-20 4 -36 4q-28 0 -38.5 -13.5t-21.5 -61.5l-14 -62h90l-19 -112h-91l-56 -316q-22 -122 -63 -177t-112 -55q-67 0 -107 6l18 117q27 -5 37 -5q21 0 35.5 25.5t27.5 94.5l58 310h-88z" />
    <glyph glyph-name="circumflex" unicode="&#x2c6;" horiz-adv-x="278" 
d="M89 696h-98l83 136h141l72 -136h-104l-44 76z" />
    <glyph glyph-name="caron" unicode="&#x2c7;" horiz-adv-x="278" 
d="M62 696l-66 136h97l44 -73l48 73h97l-79 -136h-141z" />
    <glyph glyph-name="uni02C9" unicode="&#x2c9;" horiz-adv-x="278" 
d="M-8 710v76h294v-76h-294z" />
    <glyph glyph-name="breve" unicode="&#x2d8;" horiz-adv-x="278" 
d="M-11 832h76q1 -62 74 -62q35 0 52.5 14t21.5 48h76q0 -68 -41 -103t-109 -35q-150 0 -150 138z" />
    <glyph glyph-name="dotaccent" unicode="&#x2d9;" horiz-adv-x="278" 
d="M195 702h-112v130h112v-130z" />
    <glyph glyph-name="ring" unicode="&#x2da;" horiz-adv-x="278" 
d="M140 680q-47 0 -82.5 20t-35.5 65q0 42 36.5 62.5t81.5 20.5q46 0 81 -20t35 -63t-35 -64t-81 -21zM140 802q-66 0 -66 -37q0 -39 66 -39q64 0 64 39q0 37 -64 37z" />
    <glyph glyph-name="ogonek" unicode="&#x2db;" horiz-adv-x="278" 
d="M227 -134l12 -25q-56 -39 -104 -39q-96 0 -96 79q0 43 31.5 76t76.5 49h70q-28 -18 -42 -28.5t-28 -31.5t-14 -45q0 -30 9 -41.5t29 -11.5t56 18z" />
    <glyph glyph-name="tilde" unicode="&#x2dc;" horiz-adv-x="278" 
d="M254 828l48 -21q-20 -48 -45 -74t-69 -26q-25 0 -60 16.5t-55 16.5q-27 0 -49 -36l-48 18q40 100 99 100q25 0 67.5 -17t57.5 -17q38 0 54 40z" />
    <glyph glyph-name="hungarumlaut" unicode="&#x2dd;" horiz-adv-x="278" 
d="M-29 696l47 136h157l-108 -136h-96zM175 696l47 136h157l-108 -136h-96z" />
    <glyph glyph-name="uni03A9" unicode="&#x3a9;" horiz-adv-x="610" 
d="M134 132v3q-96 138 -96 306q0 144 74.5 249t195.5 105q66 0 118 -33t82 -85.5t45 -110t15 -112.5q0 -92 -28.5 -177t-69.5 -142v-3h112v-132h-243v95q32 30 51 103q24 89 24 216q0 108 -27.5 174.5t-81.5 66.5t-84 -68t-30 -180q0 -118 22.5 -201.5t52.5 -110.5v-95h-243
v132h111z" />
    <glyph glyph-name="uni03BC" unicode="&#x3bc;" 
d="M461 639v-639h-166v71h-2q-39 -69 -88 -78v-103h-166v749h172v-437q0 -17 1 -27t10.5 -22t27.5 -12q39 0 39 61v437h172z" />
    <glyph glyph-name="pi" unicode="&#x3c0;" horiz-adv-x="572" 
d="M552 451h-58v-301q0 -94 12 -150h-145q-17 38 -17 150v301h-99q-14 -278 -57 -451h-144q23 106 38 237t16 214q-50 0 -79 -8l-16 110q48 39 164 39h395z" />
    <glyph glyph-name="afii10023" unicode="&#x401;" 
d="M41 0v799h409v-154h-225v-159h197v-154h-197v-178h234v-154h-418zM387 853h-112v130h112v-130zM225 853h-112v130h112v-130z" />
    <glyph glyph-name="afii10051" unicode="&#x402;" horiz-adv-x="667" 
d="M155 0v645h-138v154h460v-154h-138v-161q42 13 91 13q106 0 157.5 -56.5t51.5 -188.5v-95q0 -150 -55 -208.5t-202 -58.5v155q36 0 54.5 17t18.5 66v111q0 57 -12.5 83.5t-47.5 26.5q-32 0 -56 -10v-339h-184z" />
    <glyph glyph-name="afii10052" unicode="&#x403;" horiz-adv-x="444" 
d="M41 0v799h390v-154h-206v-645h-184zM172 853l48 136h154l-106 -136h-96z" />
    <glyph glyph-name="afii10053" unicode="&#x404;" horiz-adv-x="556" 
d="M341 289h178v-71q0 -107 -64.5 -169t-174.5 -62q-114 0 -178.5 62t-64.5 169v363q0 113 66 172t177 59q112 0 175.5 -58.5t63.5 -172.5v-52h-178v65q0 76 -61 76q-59 0 -59 -76v-110h102v-148h-102v-131q0 -76 59 -76q61 0 61 76v84z" />
    <glyph glyph-name="afii10054" unicode="&#x405;" horiz-adv-x="556" 
d="M34 271h178v-59q0 -39 13 -61t49 -22q30 0 47 17.5t17 44.5q0 10 -2 20t-4.5 18t-9 18t-10.5 16t-15 16t-16 15t-19.5 16t-21 15.5t-24 17.5t-24.5 18q-40 29 -57.5 43.5t-43.5 43.5t-36.5 62.5t-10.5 77.5q0 224 235 224q117 0 173.5 -53t56.5 -148v-72h-172v47
q0 84 -58 84q-31 0 -47 -16.5t-16 -43.5q0 -22 20 -44.5t77 -68t84 -70.5q78 -69 101.5 -107.5t23.5 -111.5q0 -92 -63 -156.5t-187 -64.5q-122 0 -180 64.5t-58 164.5v55z" />
    <glyph glyph-name="afii10055" unicode="&#x406;" horiz-adv-x="278" 
d="M47 0v799h184v-799h-184z" />
    <glyph glyph-name="afii10056" unicode="&#x407;" horiz-adv-x="278" 
d="M47 0v799h184v-799h-184zM276 853h-112v130h112v-130zM114 853h-112v130h112v-130z" />
    <glyph glyph-name="afii10057" unicode="&#x408;" 
d="M459 799v-600q0 -110 -55.5 -161t-166.5 -51q-213 0 -213 212v117h178v-136q0 -51 35 -51q38 0 38 52v618h184z" />
    <glyph glyph-name="afii10058" unicode="&#x409;" horiz-adv-x="893" 
d="M575 799v-302h70q117 0 168.5 -59.5t51.5 -192.5q0 -122 -51 -183.5t-177 -61.5h-246v645h-106v-391q0 -267 -165 -267q-57 0 -106 13v160q20 -10 34 -10q18 0 28 8.5t17.5 42.5t7.5 99v499h474zM575 148h36q37 0 53.5 22.5t16.5 78.5q0 55 -16.5 77.5t-53.5 22.5h-36
v-201z" />
    <glyph glyph-name="afii10059" unicode="&#x40a;" horiz-adv-x="832" 
d="M41 0v800h184v-303h105v302h184v-302h70q117 0 168.5 -59.5t51.5 -192.5q0 -122 -51 -183.5t-177 -61.5h-246v349h-105v-349h-184zM514 148h36q37 0 53.5 22.5t16.5 78.5q0 55 -16.5 77.5t-53.5 22.5h-36v-201z" />
    <glyph glyph-name="afii10060" unicode="&#x40b;" horiz-adv-x="667" 
d="M155 0v645h-138v154h460v-154h-138v-148h103q100 0 148.5 -56t48.5 -159v-282h-184v243q0 55 -16.5 77.5t-53.5 22.5h-46v-343h-184z" />
    <glyph glyph-name="afii10061" unicode="&#x40c;" horiz-adv-x="556" 
d="M41 0v799h178v-327h3l122 327h196l-154 -331l154 -468h-196l-82 286l-43 -66v-220h-178zM212 853l48 136h154l-106 -136h-96z" />
    <glyph glyph-name="afii10062" unicode="&#x40e;" 
d="M310 799h190l-150 -633q-25 -105 -68 -138q-44 -34 -110 -34q-59 0 -121 13v154q37 -7 54 -7q32 0 32 30q0 12 -6 37l-131 578h190l59 -448h2zM100 991h76q1 -62 74 -62q35 0 52.5 14t21.5 48h76q0 -68 -41 -103t-109 -35q-150 0 -150 138z" />
    <glyph glyph-name="afii10145" unicode="&#x40f;" horiz-adv-x="556" 
d="M41 0v799h184v-645h106v645h184v-799h-151v-110h-172v110h-151z" />
    <glyph glyph-name="afii10017" unicode="&#x410;" horiz-adv-x="556" 
d="M356 0l-17 142h-129l-19 -142h-184l148 799h244l150 -799h-193zM321 284l-43 391h-2l-47 -391h92z" />
    <glyph glyph-name="afii10018" unicode="&#x411;" horiz-adv-x="543" 
d="M41 0v799h392v-154h-208v-148h70q117 0 168.5 -59.5t51.5 -192.5q0 -122 -51 -183.5t-177 -61.5h-246zM225 148h36q37 0 53.5 22.5t16.5 78.5q0 55 -16.5 77.5t-53.5 22.5h-36v-201z" />
    <glyph glyph-name="afii10019" unicode="&#x412;" horiz-adv-x="556" 
d="M41 0v799h255q103 0 151 -43.5t48 -144.5q0 -75 -20 -121t-81 -67v-2q65 -12 93 -58t28 -126q0 -237 -213 -237h-261zM225 353v-217h42q38 0 51 23.5t13 85.5q0 54 -13.5 81t-50.5 27h-42zM225 663v-180h38q60 0 60 93q0 45 -12.5 66t-45.5 21h-40z" />
    <glyph glyph-name="afii10020" unicode="&#x413;" horiz-adv-x="444" 
d="M41 0v799h390v-154h-206v-645h-184z" />
    <glyph glyph-name="afii10021" unicode="&#x414;" horiz-adv-x="611" 
d="M380 160v485h-103v-93q0 -241 -56 -392h159zM419 -110v110h-235v-110h-172v270h28q71 129 71 438v201h453v-639h27v-270h-172z" />
    <glyph glyph-name="afii10022" unicode="&#x415;" 
d="M41 0v799h409v-154h-225v-159h197v-154h-197v-178h234v-154h-418z" />
    <glyph glyph-name="afii10024" unicode="&#x416;" horiz-adv-x="832" 
d="M330 0v225l-43 75l-89 -300h-196l156 464l-156 335h196l129 -335h3v335h172v-335h3l129 335h196l-156 -335l156 -464h-196l-89 300l-43 -75v-225h-172z" />
    <glyph glyph-name="afii10025" unicode="&#x417;" horiz-adv-x="556" 
d="M47 527v51q0 117 63 175.5t182 58.5q105 0 163.5 -55t58.5 -153q0 -85 -34 -125t-93 -54v-2q29 -7 50 -18t42.5 -32t33 -59t11.5 -92q0 -110 -61.5 -172.5t-174.5 -62.5q-247 0 -247 223v71h178v-42q0 -54 12 -82t49 -28q36 0 48 28t12 79q0 97 -71 97h-36v148h34
q40 0 54.5 25.5t14.5 79.5q0 43 -12.5 63.5t-42.5 20.5q-32 0 -44 -22t-12 -62v-59h-178z" />
    <glyph glyph-name="afii10026" unicode="&#x418;" horiz-adv-x="611" 
d="M392 0v488h-2l-149 -488h-200v799h178v-477h2l147 477h202v-799h-178z" />
    <glyph glyph-name="afii10027" unicode="&#x419;" horiz-adv-x="611" 
d="M392 0v488h-2l-149 -488h-200v799h178v-477h2l147 477h202v-799h-178zM156 991h76q1 -62 74 -62q35 0 52.5 14t21.5 48h76q0 -68 -41 -103t-109 -35q-150 0 -150 138z" />
    <glyph glyph-name="afii10028" unicode="&#x41a;" horiz-adv-x="556" 
d="M41 0v799h178v-327h3l122 327h196l-154 -331l154 -468h-196l-82 286l-43 -66v-220h-178z" />
    <glyph glyph-name="afii10029" unicode="&#x41b;" horiz-adv-x="616" 
d="M391 0v645h-106v-391q0 -267 -165 -267q-57 0 -106 13v160q20 -10 34 -10q18 0 28 8.5t17.5 42.5t7.5 99v499h474v-799h-184z" />
    <glyph glyph-name="afii10030" unicode="&#x41c;" horiz-adv-x="778" 
d="M46 0v799h281l58 -396h2l59 396h286v-799h-178v621h-2l-108 -621h-119l-99 621h-2v-621h-178z" />
    <glyph glyph-name="afii10031" unicode="&#x41d;" horiz-adv-x="556" 
d="M41 0v799h184v-302h106v302h184v-799h-184v343h-106v-343h-184z" />
    <glyph glyph-name="afii10032" unicode="&#x41e;" horiz-adv-x="556" 
d="M331 202v395q0 15 -1 23.5t-5.5 22t-16 20.5t-30.5 7t-30.5 -7t-16 -20.5t-5.5 -22t-1 -23.5v-395q0 -73 53 -73t53 73zM41 218v363q0 113 65 172t172 59t172 -59t65 -172v-363q0 -107 -64 -169t-173 -62t-173 62t-64 169z" />
    <glyph glyph-name="afii10033" unicode="&#x41f;" horiz-adv-x="556" 
d="M331 0v645h-106v-645h-184v799h474v-799h-184z" />
    <glyph glyph-name="afii10034" unicode="&#x420;" horiz-adv-x="556" 
d="M225 459h46q36 0 52 23.5t16 75.5t-16 75.5t-52 23.5h-46v-198zM41 0v799h197q65 0 108 -5.5t79 -20t56 -41.5t31 -69.5t11 -104.5q0 -241 -202 -241h-96v-317h-184z" />
    <glyph glyph-name="afii10035" unicode="&#x421;" horiz-adv-x="556" 
d="M41 218v363q0 113 65 172t172 59t172 -59t65 -172v-74h-184v90q0 15 -1 23.5t-5.5 22t-16 20.5t-30.5 7t-30.5 -7t-16 -20.5t-5.5 -22t-1 -23.5v-395q0 -73 53 -73t53 73v117h184v-101q0 -107 -64 -169t-173 -62t-173 62t-64 169z" />
    <glyph glyph-name="afii10036" unicode="&#x422;" horiz-adv-x="444" 
d="M11 645v154h422v-154h-119v-645h-184v645h-119z" />
    <glyph glyph-name="afii10037" unicode="&#x423;" 
d="M310 799h190l-150 -633q-25 -105 -68 -138q-44 -34 -110 -34q-59 0 -121 13v154q37 -7 54 -7q32 0 32 30q0 12 -6 37l-131 578h190l59 -448h2z" />
    <glyph glyph-name="afii10038" unicode="&#x424;" horiz-adv-x="778" 
d="M303 206v390h-10q-84 0 -84 -94v-202q0 -94 84 -94h10zM475 596v-390h10q84 0 84 94v202q0 94 -84 94h-10zM303 0v82h-27q-113 0 -179 62.5t-66 167.5v178q0 105 66 167.5t179 62.5h27v79h172v-79h27q113 0 179 -62.5t66 -167.5v-178q0 -105 -66 -167.5t-179 -62.5h-27
v-82h-172z" />
    <glyph glyph-name="afii10039" unicode="&#x425;" horiz-adv-x="556" 
d="M353 0l-78 258h-2l-72 -258h-191l155 431l-146 368h198l63 -227h2l64 227h191l-147 -374l156 -425h-193z" />
    <glyph glyph-name="afii10040" unicode="&#x426;" horiz-adv-x="562" 
d="M41 0v799h184v-645h106v645h184v-644h27v-265h-172v110h-329z" />
    <glyph glyph-name="afii10041" unicode="&#x427;" horiz-adv-x="556" 
d="M331 0v312q-56 -16 -112 -16q-188 0 -188 170v333h184v-284q0 -71 59 -71q33 0 57 10v345h184v-799h-184z" />
    <glyph glyph-name="afii10042" unicode="&#x428;" horiz-adv-x="778" 
d="M740 0h-702v799h172v-645h93v645h172v-645h93v645h172v-799z" />
    <glyph glyph-name="afii10043" unicode="&#x429;" horiz-adv-x="784" 
d="M598 0h-560v799h172v-645h93v645h172v-645h93v645h172v-645h24v-264h-166v110z" />
    <glyph glyph-name="afii10044" unicode="&#x42a;" horiz-adv-x="654" 
d="M155 0v645h-138v154h322v-302h70q117 0 168.5 -59.5t51.5 -192.5q0 -122 -51 -183.5t-177 -61.5h-246zM339 148h36q37 0 53.5 22.5t16.5 78.5q0 55 -16.5 77.5t-53.5 22.5h-36v-201z" />
    <glyph glyph-name="afii10045" unicode="&#x42b;" horiz-adv-x="800" 
d="M575 0v799h184v-799h-184zM41 0v799h184v-302h70q117 0 168.5 -59.5t51.5 -192.5q0 -122 -51 -183.5t-177 -61.5h-246zM225 148h36q37 0 53.5 22.5t16.5 78.5q0 55 -16.5 77.5t-53.5 22.5h-36v-201z" />
    <glyph glyph-name="afii10046" unicode="&#x42c;" horiz-adv-x="543" 
d="M41 0v799h184v-302h70q117 0 168.5 -59.5t51.5 -192.5q0 -122 -51 -183.5t-177 -61.5h-246zM225 148h36q37 0 53.5 22.5t16.5 78.5q0 55 -16.5 77.5t-53.5 22.5h-36v-201z" />
    <glyph glyph-name="afii10047" unicode="&#x42d;" horiz-adv-x="556" 
d="M233 484h102v110q0 76 -59 76q-61 0 -61 -76v-65h-178v52q0 114 63.5 172.5t175.5 58.5q111 0 177 -59t66 -172v-363q0 -107 -64.5 -169t-178.5 -62q-110 0 -174.5 62t-64.5 169v71h178v-84q0 -76 61 -76q59 0 59 76v131h-102v148z" />
    <glyph glyph-name="afii10048" unicode="&#x42e;" horiz-adv-x="815" 
d="M774 581v-363q0 -107 -64 -169t-173 -62t-173 62t-64 169v125h-75v-343h-184v799h184v-302h75v84q0 113 65 172t172 59t172 -59t65 -172zM484 597v-395q0 -73 53 -73t53 73v395q0 15 -1 23.5t-5.5 22t-16 20.5t-30.5 7t-30.5 -7t-16 -20.5t-5.5 -22t-1 -23.5z" />
    <glyph glyph-name="afii10049" unicode="&#x42f;" horiz-adv-x="556" 
d="M331 0v348h-43q-39 0 -54 -24t-15 -72v-190q0 -44 -17 -62h-178q17 21 17 72v207q0 65 28 96t81 45v2q-53 13 -81 52t-28 122q0 98 47 150.5t162 52.5h265v-799h-184zM331 478v185h-45q-40 0 -53.5 -22t-13.5 -68q0 -55 15.5 -75t53.5 -20h43z" />
    <glyph glyph-name="afii10065" unicode="&#x430;" 
d="M303 0v49h-2q-19 -29 -52 -45.5t-70 -16.5q-45 0 -74.5 15t-43 45t-18 60t-4.5 75q0 43 10.5 75.5t31.5 54t40.5 33.5t47.5 25q8 3 27 10.5t26.5 11.5t22.5 11.5t21.5 14t14.5 16t11 21.5t3 26q0 27 -8.5 40t-31.5 13q-44 0 -44 -44v-52h-160v58q0 70 56.5 113t145.5 43
q114 0 161 -47t47 -153v-452h-158zM295 150v170l-48 -33q-30 -23 -30 -57v-85q0 -51 38 -51q19 0 29.5 15.5t10.5 40.5z" />
    <glyph glyph-name="afii10066" unicode="&#x431;" 
d="M289 157v250q0 52 -39 52t-39 -52v-250q0 -52 39 -52t39 52zM39 167v337q0 137 44.5 202t144.5 65h70q13 0 21.5 8t8.5 20h112q0 -77 -34.5 -101.5t-131.5 -24.5q-42 0 -59 -30t-17 -110q61 56 128 56q69 0 102 -42.5t33 -111.5v-268q0 -88 -57.5 -134t-150.5 -46
q-97 0 -155.5 45.5t-58.5 134.5z" />
    <glyph glyph-name="afii10067" unicode="&#x432;" 
d="M39 0v639h225q93 0 140 -33.5t47 -127.5q0 -69 -32 -102.5t-83 -37.5v-2q69 -5 102 -41t33 -109q0 -103 -46 -144.5t-144 -41.5h-242zM205 273v-149h34q27 0 43.5 21t16.5 55q0 73 -60 73h-34zM205 515v-130h29q25 0 39.5 17.5t14.5 50.5q0 62 -51 62h-32z" />
    <glyph glyph-name="afii10068" unicode="&#x433;" horiz-adv-x="389" 
d="M39 0v639h337v-136h-165v-503h-172z" />
    <glyph glyph-name="afii10069" unicode="&#x434;" horiz-adv-x="556" 
d="M342 136v370h-76v-96q0 -149 -55 -274h131zM360 -110v110h-170v-110h-172v246h30q58 91 58 346v157h402v-503h30v-246h-178z" />
    <glyph glyph-name="afii10070" unicode="&#x435;" 
d="M39 169v301q0 32 9.5 61t31 57.5t65.5 46t105 17.5t105 -17.5t65.5 -46t31 -57.5t9.5 -61v-176h-250v-137q0 -16 1.5 -24.5t10.5 -18t27 -9.5t27 9.5t10.5 18t1.5 24.5v80h172v-68q0 -32 -9.5 -61t-31 -57.5t-65.5 -46t-105 -17.5t-105 17.5t-65.5 46t-31 57.5t-9.5 61z
M211 482v-70h78v70q0 16 -1.5 24.5t-10.5 18t-27 9.5t-27 -9.5t-10.5 -18t-1.5 -24.5z" />
    <glyph glyph-name="afii10072" unicode="&#x436;" horiz-adv-x="734" 
d="M280 0v316h-2l-100 -316h-178l130 359l-124 280h175l97 -262h2v262h172v-269h2l102 269h172l-123 -280l129 -359h-184l-96 316h-2v-316h-172z" />
    <glyph glyph-name="afii10073" unicode="&#x437;" horiz-adv-x="506" 
d="M209 389h47q25 0 36 16.5t11 55.5q0 33 -10 50t-37 17q-52 0 -52 -96h-166q0 94 37 145q53 75 185 75q99 0 151 -48t52 -130q0 -68 -33 -101t-85 -37v-2q127 -11 127 -158q0 -101 -63 -145t-163 -44q-212 0 -212 230h163q0 -58 9 -85t41 -27q53 0 53 86q0 74 -48 74h-43
v124z" />
    <glyph glyph-name="afii10074" unicode="&#x438;" horiz-adv-x="580" 
d="M39 0v639h172v-401h2l132 401h196v-639h-172v414h-2l-132 -414h-196z" />
    <glyph glyph-name="afii10075" unicode="&#x439;" horiz-adv-x="580" 
d="M140 840h76q1 -62 74 -62q35 0 52.5 14t21.5 48h76q0 -68 -41 -103t-109 -35q-150 0 -150 138zM39 0v639h172v-401h2l132 401h196v-639h-172v414h-2l-132 -414h-196z" />
    <glyph glyph-name="afii10076" unicode="&#x43a;" horiz-adv-x="512" 
d="M39 0v639h178v-266h2l100 266h178l-112 -280l112 -359h-178l-100 317h-2v-317h-178z" />
    <glyph glyph-name="afii10077" unicode="&#x43b;" horiz-adv-x="572" 
d="M361 0v503h-85v-287q0 -125 -39.5 -177t-129.5 -52q-40 0 -87 13v130q17 -7 35 -7q28 0 38.5 21t10.5 98v397h429v-639h-172z" />
    <glyph glyph-name="afii10078" unicode="&#x43c;" horiz-adv-x="679" 
d="M479 0v509h-2l-95 -509h-85l-95 509h-2v-509h-166v639h244l60 -328h2l61 328h244v-639h-166z" />
    <glyph glyph-name="afii10079" unicode="&#x43d;" horiz-adv-x="506" 
d="M295 0v270h-84v-270h-172v639h172v-236h84v236h172v-639h-172z" />
    <glyph glyph-name="afii10080" unicode="&#x43e;" 
d="M39 169v301q0 32 9.5 61t31 57.5t65.5 46t105 17.5t105 -17.5t65.5 -46t31 -57.5t9.5 -61v-301q0 -32 -9.5 -61t-31 -57.5t-65.5 -46t-105 -17.5t-105 17.5t-65.5 46t-31 57.5t-9.5 61zM289 157v325q0 16 -1.5 24.5t-10.5 18t-27 9.5t-27 -9.5t-10.5 -18t-1.5 -24.5v-325
q0 -16 1.5 -24.5t10.5 -18t27 -9.5t27 9.5t10.5 18t1.5 24.5z" />
    <glyph glyph-name="afii10081" unicode="&#x43f;" horiz-adv-x="506" 
d="M39 0v639h428v-639h-172v503h-84v-503h-172z" />
    <glyph glyph-name="afii10082" unicode="&#x440;" 
d="M39 -110v749h172v-58h2q20 37 48.5 54t74.5 17q62 0 93.5 -42t31.5 -120v-312q0 -90 -33.5 -140.5t-94.5 -50.5q-87 0 -120 77h-2v-174h-172zM289 158v324q0 18 -10.5 28.5t-23.5 10.5q-44 0 -44 -81v-236q0 -30 1.5 -45t11.5 -29t31 -14q34 0 34 42z" />
    <glyph glyph-name="afii10083" unicode="&#x441;" 
d="M39 169v301q0 32 9.5 61t31 57.5t65.5 46t105 17.5q62 0 106 -16.5t65.5 -45.5t30.5 -58t9 -62v-68h-172v80q0 16 -1.5 24.5t-10.5 18t-27 9.5t-27 -9.5t-10.5 -18t-1.5 -24.5v-325q0 -16 1.5 -24.5t10.5 -18t27 -9.5t27 9.5t10.5 18t1.5 24.5v115h172v-103q0 -32 -9 -61
t-30.5 -57.5t-65.5 -46t-106 -17.5q-61 0 -105 17.5t-65.5 46t-31 57.5t-9.5 61z" />
    <glyph glyph-name="afii10084" unicode="&#x442;" horiz-adv-x="444" 
d="M136 503h-120v136h412v-136h-120v-503h-172v503z" />
    <glyph glyph-name="afii10085" unicode="&#x443;" horiz-adv-x="444" 
d="M53 -110v124h38q16 0 23 4t7 16q0 18 -5 45l-111 560h178l41 -449h2l44 449h169l-112 -579q-20 -105 -56.5 -137.5t-137.5 -32.5h-80z" />
    <glyph glyph-name="afii10086" unicode="&#x444;" horiz-adv-x="722" 
d="M278 200v242q0 41 -13.5 60.5t-31.5 19.5q-17 0 -23 -14t-6 -46v-282q0 -32 6 -46t23 -14q18 0 31.5 19.5t13.5 60.5zM518 182v280q0 32 -6 46t-23 14q-18 0 -31.5 -19.5t-13.5 -60.5v-240q0 -41 13.5 -61.5t31.5 -20.5q17 0 23 15t6 47zM278 -110v176h-2
q-30 -41 -56.5 -60t-69.5 -19q-61 0 -89.5 44t-28.5 117v343q0 73 28.5 117t89.5 44q43 0 68.5 -18t57.5 -56h2v221h166v-221h2q21 26 34.5 38.5t37.5 24t54 11.5q61 0 89.5 -44t28.5 -117v-343q0 -73 -28.5 -117t-89.5 -44q-43 0 -69.5 19t-56.5 60h-2v-176h-166z" />
    <glyph glyph-name="afii10087" unicode="&#x445;" 
d="M12 0l144 331l-136 308h189l44 -169h2l45 169h184l-134 -308l138 -331h-188l-48 193h-2l-54 -193h-184z" />
    <glyph glyph-name="afii10088" unicode="&#x446;" horiz-adv-x="506" 
d="M321 -110v110h-282v639h172v-503h84v504h172v-504h26v-246h-172z" />
    <glyph glyph-name="afii10089" unicode="&#x447;" horiz-adv-x="512" 
d="M301 0v239q-34 -10 -100 -10q-84 0 -123 34.5t-39 121.5v254h172v-225q0 -33 8.5 -47t31.5 -14q27 0 50 10v276h172v-639h-172z" />
    <glyph glyph-name="afii10090" unicode="&#x448;" horiz-adv-x="750" 
d="M34 0v639h172v-503h83v503h172v-503h83v503h172v-639h-682z" />
    <glyph glyph-name="afii10091" unicode="&#x449;" horiz-adv-x="750" 
d="M34 0v639h172v-503h83v503h172v-503h83v503h172v-503h26v-246h-172v110h-536z" />
    <glyph glyph-name="afii10092" unicode="&#x44a;" horiz-adv-x="561" 
d="M114 0v506h-94v133h266v-236h68q102 0 140 -46t38 -151q0 -113 -42 -159.5t-152 -46.5h-224zM286 124h31q49 0 49 77q0 78 -49 78h-31v-155z" />
    <glyph glyph-name="afii10093" unicode="&#x44b;" horiz-adv-x="720" 
d="M509 0v639h172v-639h-172zM39 0v639h172v-236h68q102 0 140 -46t38 -151q0 -113 -42 -159.5t-152 -46.5h-224zM211 124h31q49 0 49 77q0 78 -49 78h-31v-155z" />
    <glyph glyph-name="afii10094" unicode="&#x44c;" horiz-adv-x="486" 
d="M39 0v639h172v-236h68q102 0 140 -46t38 -151q0 -113 -42 -159.5t-152 -46.5h-224zM211 124h31q49 0 49 77q0 78 -49 78h-31v-155z" />
    <glyph glyph-name="afii10095" unicode="&#x44d;" 
d="M210 268v124h82v72q0 66 -44 70q-30 0 -41 -21t-11 -63v-17h-163v37q0 32 9.5 61t31.5 57.5t67.5 46t108.5 17.5q61 0 105 -17.5t65.5 -46t31 -57.5t9.5 -61v-301q0 -32 -9.5 -61t-31 -57.5t-65.5 -46t-105 -17.5t-106 17.5t-67.5 46t-33 58t-10.5 60.5v50h163v-34
q0 -41 12 -60.5t39 -19.5q45 0 45 71v92h-82z" />
    <glyph glyph-name="afii10096" unicode="&#x44e;" horiz-adv-x="740" 
d="M39 0v639h172v-236h68v67q0 32 9.5 61t31 57.5t65.5 46t105 17.5t105 -17.5t65.5 -46t31 -57.5t9.5 -61v-301q0 -32 -9.5 -61t-31 -57.5t-65.5 -46t-105 -17.5t-105 17.5t-65.5 46t-31 57.5t-9.5 61v104h-68v-273h-172zM529 157v325q0 16 -1.5 24.5t-10.5 18t-27 9.5
t-27 -9.5t-10.5 -18t-1.5 -24.5v-325q0 -16 1.5 -24.5t10.5 -18t27 -9.5t27 9.5t10.5 18t1.5 24.5z" />
    <glyph glyph-name="afii10097" unicode="&#x44f;" 
d="M289 0v275h-23q-35 0 -49.5 -17.5t-14.5 -69.5v-129q0 -37 -12 -59h-172v12q18 11 18 53v116q0 60 15.5 94t38.5 46.5t63 17.5v2q-113 8 -113 135q0 87 41 125t142 38h238v-639h-172zM289 385v130h-29q-33 0 -45 -15t-12 -48q0 -38 12.5 -52.5t43.5 -14.5h30z" />
    <glyph glyph-name="afii10071" unicode="&#x451;" 
d="M39 169v301q0 32 9.5 61t31 57.5t65.5 46t105 17.5t105 -17.5t65.5 -46t31 -57.5t9.5 -61v-176h-250v-137q0 -16 1.5 -24.5t10.5 -18t27 -9.5t27 9.5t10.5 18t1.5 24.5v80h172v-68q0 -32 -9.5 -61t-31 -57.5t-65.5 -46t-105 -17.5t-105 17.5t-65.5 46t-31 57.5t-9.5 61z
M211 482v-70h78v70q0 16 -1.5 24.5t-10.5 18t-27 9.5t-27 -9.5t-10.5 -18t-1.5 -24.5zM387 702h-112v130h112v-130zM225 702h-112v130h112v-130z" />
    <glyph glyph-name="afii10099" unicode="&#x452;" horiz-adv-x="522" 
d="M67 0v521h-51v118h51v160h172v-160h161v-118h-161v-135h2q42 36 101 36q141 0 141 -160v-164q0 -115 -41.5 -161.5t-163.5 -46.5v110q33 7 33 42v212q0 44 -36 44t-36 -44v-254h-172z" />
    <glyph glyph-name="afii10100" unicode="&#x453;" horiz-adv-x="389" 
d="M39 0v639h337v-136h-165v-503h-172zM148 702l48 136h154l-106 -136h-96z" />
    <glyph glyph-name="afii10101" unicode="&#x454;" 
d="M290 392v-124h-82v-92q0 -71 45 -71q27 0 39 19.5t12 60.5v34h163v-50q0 -31 -10.5 -60.5t-33 -58t-67.5 -46t-106 -17.5t-105 17.5t-65.5 46t-31 57.5t-9.5 61v301q0 32 9.5 61t31 57.5t65.5 46t105 17.5q63 0 108.5 -17.5t67.5 -46t31.5 -57.5t9.5 -61v-37h-163v17
q0 42 -11 63t-41 21q-44 -4 -44 -70v-72h82z" />
    <glyph glyph-name="afii10102" unicode="&#x455;" horiz-adv-x="444" 
d="M24 201h154v-39q0 -57 44 -57q38 0 38 47q0 15 -5.5 28t-19.5 27t-24 22t-33.5 25t-32.5 24q-54 41 -84.5 84t-30.5 106q0 88 52.5 136t139.5 48q191 0 191 -168v-34h-154v34q0 50 -37 50q-38 0 -38 -43q0 -23 15.5 -42t53 -46t49.5 -38q28 -22 44 -36t36 -38t29 -52.5
t9 -63.5q0 -21 -2.5 -40t-14 -48t-31 -49.5t-58.5 -35.5t-92 -15q-108 0 -153 44t-45 128v42z" />
    <glyph glyph-name="afii10103" unicode="&#x456;" horiz-adv-x="278" 
d="M53 0v639h172v-639h-172zM53 708v118h172v-118h-172z" />
    <glyph glyph-name="afii10104" unicode="&#x457;" horiz-adv-x="278" 
d="M53 0v639h172v-639h-172zM276 702h-112v130h112v-130zM114 702h-112v130h112v-130z" />
    <glyph glyph-name="afii10105" unicode="&#x458;" horiz-adv-x="278" 
d="M4 -110v121q8 -3 18 -3q31 0 31 44v587h172v-584q0 -91 -34 -128t-123 -37h-64zM53 708v118h172v-118h-172z" />
    <glyph glyph-name="afii10106" unicode="&#x459;" horiz-adv-x="807" 
d="M360 0v503h-84v-287q0 -125 -39.5 -177t-129.5 -52q-40 0 -87 13v130q17 -7 35 -7q28 0 38.5 21t10.5 98v397h428v-236h68q102 0 140 -46t38 -151q0 -113 -42 -159.5t-152 -46.5h-224zM532 279v-155h31q49 0 49 77q0 78 -49 78h-31z" />
    <glyph glyph-name="afii10107" unicode="&#x45a;" horiz-adv-x="735" 
d="M288 0v279h-83v-279h-166v639h166v-236h83v236h172v-236h68q102 0 140 -46t38 -151q0 -113 -42 -159.5t-152 -46.5h-224zM460 124h31q49 0 49 77q0 78 -49 78h-31v-155z" />
    <glyph glyph-name="afii10108" unicode="&#x45b;" horiz-adv-x="522" 
d="M67 0v521h-51v118h51v160h172v-160h161v-118h-161v-135h2q42 36 101 36q141 0 141 -160v-262h-172v254q0 44 -36 44t-36 -44v-254h-172z" />
    <glyph glyph-name="afii10109" unicode="&#x45c;" horiz-adv-x="512" 
d="M191 702l48 136h154l-106 -136h-96zM39 0v639h178v-266h2l100 266h178l-112 -280l112 -359h-178l-100 317h-2v-317h-178z" />
    <glyph glyph-name="afii10110" unicode="&#x45e;" horiz-adv-x="444" 
d="M53 -110v124h38q16 0 23 4t7 16q0 18 -5 45l-111 560h178l41 -449h2l44 449h169l-112 -579q-20 -105 -56.5 -137.5t-137.5 -32.5h-80zM72 840h76q1 -62 74 -62q35 0 52.5 14t21.5 48h76q0 -68 -41 -103t-109 -35q-150 0 -150 138z" />
    <glyph glyph-name="afii10193" unicode="&#x45f;" horiz-adv-x="506" 
d="M167 -110v110h-128v639h172v-503h84v503h172v-639h-128v-110h-172z" />
    <glyph glyph-name="afii10146" unicode="&#x462;" horiz-adv-x="543" 
d="M41 0v579h-51v118h51v102h184v-102h161v-118h-161v-82h70q117 0 168.5 -59.5t51.5 -192.5q0 -122 -51 -183.5t-177 -61.5h-246zM225 148h36q37 0 53.5 22.5t16.5 78.5q0 55 -16.5 77.5t-53.5 22.5h-36v-201z" />
    <glyph glyph-name="afii10194" unicode="&#x463;" horiz-adv-x="514" 
d="M67 0v521h-51v118h51v160h172v-160h161v-118h-161v-118h68q102 0 140 -46t38 -151q0 -113 -42 -159.5t-152 -46.5h-224zM239 124h31q49 0 49 77q0 78 -49 78h-31v-155z" />
    <glyph glyph-name="afii10147" unicode="&#x472;" horiz-adv-x="556" 
d="M41 218v363q0 113 65 172t172 59t172 -59t65 -172v-363q0 -107 -64 -169t-173 -62t-173 62t-64 169zM331 349h-106v-147q0 -73 53 -73t53 73v147zM225 491h106v106q0 15 -1 23.5t-5.5 22t-16 20.5t-30.5 7t-30.5 -7t-16 -20.5t-5.5 -22t-1 -23.5v-106z" />
    <glyph glyph-name="afii10195" unicode="&#x473;" 
d="M39 169v301q0 32 9.5 61t31 57.5t65.5 46t105 17.5t105 -17.5t65.5 -46t31 -57.5t9.5 -61v-301q0 -32 -9.5 -61t-31 -57.5t-65.5 -46t-105 -17.5t-105 17.5t-65.5 46t-31 57.5t-9.5 61zM289 391v91q0 16 -1.5 24.5t-10.5 18t-27 9.5t-27 -9.5t-10.5 -18t-1.5 -24.5v-91
h78zM211 273v-116q0 -16 1.5 -24.5t10.5 -18t27 -9.5t27 9.5t10.5 18t1.5 24.5v116h-78z" />
    <glyph glyph-name="afii10148" unicode="&#x474;" horiz-adv-x="530" 
d="M129 0l-122 799h188l50 -568h2l43 399q20 182 216 182h28v-132q-34 0 -50 -16.5t-22 -50.5l-105 -613h-228z" />
    <glyph glyph-name="afii10196" unicode="&#x475;" horiz-adv-x="484" 
d="M121 0l-116 639h178l39 -409h2l24 240q5 54 22.5 91t46 56t60 27t72.5 8h28v-132q-34 0 -50 -16.5t-22 -50.5l-83 -453h-201z" />
    <glyph glyph-name="afii10050" unicode="&#x490;" horiz-adv-x="444" 
d="M41 0v799h224v103h166v-263h-206v-639h-184z" />
    <glyph glyph-name="afii10098" unicode="&#x491;" horiz-adv-x="389" 
d="M39 0v639h225v89h112v-225h-165v-503h-172z" />
    <glyph glyph-name="afii10846" unicode="&#x4d9;" 
d="M39 169v301q0 32 9.5 61t31 57.5t65.5 46t105 17.5t105 -17.5t65.5 -46t31 -57.5t9.5 -61v-176h-250v-137q0 -16 1.5 -24.5t10.5 -18t27 -9.5t27 9.5t10.5 18t1.5 24.5v80h172v-68q0 -32 -9.5 -61t-31 -57.5t-65.5 -46t-105 -17.5t-105 17.5t-65.5 46t-31 57.5t-9.5 61z
M211 482v-70h78v70q0 16 -1.5 24.5t-10.5 18t-27 9.5t-27 -9.5t-10.5 -18t-1.5 -24.5z" />
    <glyph glyph-name="endash" unicode="&#x2013;" 
d="M0 270v124h500v-124h-500z" />
    <glyph glyph-name="emdash" unicode="&#x2014;" horiz-adv-x="1000" 
d="M0 270v124h1000v-124h-1000z" />
    <glyph glyph-name="quoteleft" unicode="&#x2018;" horiz-adv-x="278" 
d="M62 517v148q0 26 12 52.5t25 42t35 39.5h81l-6 -6q-60 -59 -68 -104h75v-172h-154z" />
    <glyph glyph-name="quoteright" unicode="&#x2019;" horiz-adv-x="278" 
d="M216 799v-146q0 -26 -12.5 -53t-24.5 -42t-35 -41h-81l15 15q14 15 16.5 18t13 16t14 20t8.5 18.5t7 22.5h-75v172h154z" />
    <glyph glyph-name="quotesinglbase" unicode="&#x201a;" horiz-adv-x="278" 
d="M216 172v-146q0 -26 -12.5 -53t-24.5 -42t-35 -41h-81l15 15q14 15 16.5 18t13 16t14 20t8.5 18.5t7 22.5h-75v172h154z" />
    <glyph glyph-name="quotedblleft" unicode="&#x201c;" 
d="M224 517h-154v148q0 26 12 52.5t25 42t35 39.5h81l-9 -9l-9.5 -9.5l-9 -9t-9.5 -10.5t-8 -10t-8 -11t-6.5 -11t-6.5 -12.5t-4.5 -12t-3.5 -13.5h75v-174zM430 517h-154v148q0 26 12 52.5t25 42t35 39.5h81l-6 -6q-60 -59 -68 -104h75v-172z" />
    <glyph glyph-name="quotedblright" unicode="&#x201d;" 
d="M430 799v-146q0 -26 -12.5 -53t-24.5 -42t-35 -41h-81l15 15q14 15 16.5 18t13 16t14 20t8.5 18.5t7 22.5h-75v172h154zM224 799v-146q0 -26 -12.5 -53t-24.5 -42t-35 -41h-81l15 15q14 15 16.5 18t13 16t14 20t8.5 18.5t7 22.5h-75v172h154z" />
    <glyph glyph-name="quotedblbase" unicode="&#x201e;" 
d="M430 172v-146q0 -26 -12.5 -53t-24.5 -42t-35 -41h-81l15 15q14 15 16.5 18t13 16t14 20t8.5 18.5t7 22.5h-75v172h154zM224 172v-146q0 -26 -12.5 -53t-24.5 -42t-35 -41h-81l15 15q14 15 16.5 18t13 16t14 20t8.5 18.5t7 22.5h-75v172h154z" />
    <glyph glyph-name="dagger" unicode="&#x2020;" 
d="M41 444v130h129v225h160v-225h129v-130h-129v-544h-160v544h-129z" />
    <glyph glyph-name="daggerdbl" unicode="&#x2021;" 
d="M41 458v130h129v211h160v-211h129v-130h-129v-220h129v-130h-129v-208h-160v208h-129v130h129v220h-129z" />
    <glyph glyph-name="bullet" unicode="&#x2022;" 
d="M50 400q0 83 58.5 141.5t141.5 58.5t141.5 -58.5t58.5 -141.5t-58.5 -141.5t-141.5 -58.5t-141.5 58.5t-58.5 141.5z" />
    <glyph glyph-name="ellipsis" unicode="&#x2026;" horiz-adv-x="1000" 
d="M250 0h-166v184h166v-184zM583 0h-166v184h166v-184zM916 0h-166v184h166v-184z" />
    <glyph glyph-name="perthousand" unicode="&#x2030;" horiz-adv-x="1000" 
d="M511 273v-168q0 -36 26 -36t26 36v168q0 36 -26 36t-26 -36zM405 105v168q0 118 132 118t132 -118v-168q0 -118 -132 -118t-132 118zM722 105v168q0 118 132 118t132 -118v-168q0 -118 -132 -118t-132 118zM828 273v-168q0 -36 26 -36t26 36v168q0 36 -26 36t-26 -36z
M120 681v-168q0 -36 26 -36t26 36v168q0 36 -26 36t-26 -36zM14 513v168q0 118 132 118t132 -118v-168q0 -118 -132 -118t-132 118zM147 -26l282 838h96l-280 -838h-98z" />
    <glyph glyph-name="guilsinglleft" unicode="&#x2039;" horiz-adv-x="333" 
d="M279 187h-130l-98 145l101 141h130l-104 -141z" />
    <glyph glyph-name="guilsinglright" unicode="&#x203a;" horiz-adv-x="333" 
d="M53 187l101 145l-103 141h130l101 -141l-99 -145h-130z" />
    <glyph glyph-name="fraction" unicode="&#x2044;" horiz-adv-x="167" 
d="M-176 -26l417 838h102l-417 -838h-102z" />
    <glyph glyph-name="Euro" unicode="&#x20ac;" 
d="M70 218v50h-80l30 88h50v78h-80l30 88h50v46q0 108 59 168q62 63 171 63q72 0 120 -20q45 -18 70 -54l-50 -139q-13 36 -50 59q-29 18 -69 18q-44 0 -62 -30q-11 -19 -11 -65v-46h174l-30 -88h-144v-78h125l-30 -88h-95v-50q0 -47 15 -68q19 -27 58 -27q41 0 83 20
q37 18 76 53v-156q-29 -23 -70 -36q-54 -17 -110 -17q-98 0 -159 54q-71 64 -71 177z" />
    <glyph glyph-name="afii61289" unicode="&#x2113;" horiz-adv-x="480" 
d="M415 206l55 -63q-65 -153 -194 -153q-92 0 -135 51t-46 128v13q-22 -21 -47 -42l-33 83q69 67 79 79v285q0 130 52.5 202.5t131.5 72.5q65 0 97.5 -55.5t32.5 -148.5q0 -170 -166 -367v-71q0 -51 18 -78t51 -27q51 0 104 91zM242 561v-122q39 59 62 122t23 110
q0 39 -8.5 56.5t-31.5 17.5q-45 0 -45 -184z" />
    <glyph glyph-name="afii61352" unicode="&#x2116;" horiz-adv-x="1000" 
d="M832 397v94q0 50 -8 67.5t-31 17.5t-31 -17.5t-8 -67.5v-94q0 -50 8 -67.5t31 -17.5t31 17.5t8 67.5zM612 389v110q0 89 39 136t142 47q98 0 139.5 -48t41.5 -135v-110q0 -87 -41.5 -135t-139.5 -48q-103 0 -142 47t-39 136zM353 0l-133 486h-2v-486h-178v799h201
l129 -475h2v475h178v-799h-197zM629 24v112h327v-112h-327z" />
    <glyph glyph-name="trademark" unicode="&#x2122;" horiz-adv-x="1000" 
d="M171 387v318h-111v94h345v-94h-110v-318h-124zM446 387v412h158l89 -239l89 239h158v-412h-112v270h-2l-89 -270h-88l-89 270h-2v-270h-112z" />
    <glyph glyph-name="Omega" unicode="&#x2126;" horiz-adv-x="610" 
d="M134 132v3q-96 138 -96 306q0 144 74.5 249t195.5 105q66 0 118 -33t82 -85.5t45 -110t15 -112.5q0 -92 -28.5 -177t-69.5 -142v-3h112v-132h-243v95q32 30 51 103q24 89 24 216q0 108 -27.5 174.5t-81.5 66.5t-84 -68t-30 -180q0 -118 22.5 -201.5t52.5 -110.5v-95h-243
v132h111z" />
    <glyph glyph-name="estimated" unicode="&#x212e;" horiz-adv-x="979" 
d="M940 382h-730q-6 0 -6 -5v-221q0 -14 9 -25q115 -120 277 -120q85 0 160.5 35.5t129.5 98.5h65q-61 -73 -155 -115t-202 -42q-186 0 -318 118.5t-132 286.5t132 286.5t318 118.5q187 0 319.5 -118.5t132.5 -286.5v-11zM774 411v222q0 16 -11 26q-115 115 -273 115
q-160 0 -275 -118q-11 -11 -11 -28v-217q0 -8 6 -8h559q5 0 5 8z" />
    <glyph glyph-name="partialdiff" unicode="&#x2202;" horiz-adv-x="576" 
d="M141 563l-73 83q41 34 84 54.5t104 20.5q37 0 72 -8.5t73.5 -33t66.5 -63.5t46.5 -105t18.5 -152q0 -25 -0.5 -43.5t-5.5 -60.5t-14 -73t-28.5 -70t-46 -64.5t-69 -43t-95.5 -17.5q-110 0 -171 68t-61 164q0 101 64 163.5t157 62.5q71 0 133 -47q1 111 -37 164.5
t-97 53.5q-60 0 -121 -53zM394 292q-48 52 -109 52q-48 0 -79.5 -35t-31.5 -96q0 -58 29 -92t73 -34q32 0 56 18t37 48.5t19 65.5t6 73z" />
    <glyph glyph-name="Delta" unicode="&#x2206;" horiz-adv-x="706" 
d="M388 799l307 -799h-684l288 799h89zM344 556l-146 -427h303z" />
    <glyph glyph-name="product" unicode="&#x220f;" horiz-adv-x="688" 
d="M660 634h-85v-742h-152v742h-159v-742h-152v742h-84v150h632v-150z" />
    <glyph glyph-name="summation" unicode="&#x2211;" horiz-adv-x="514" 
d="M496 -109h-470v109l207 342l-204 326v116h453v-135h-258v-3l177 -270l-204 -327v-4h299v-154z" />
    <glyph glyph-name="minus" unicode="&#x2212;" horiz-adv-x="600" 
d="M553 254h-506v142h506v-142z" />
    <glyph glyph-name="uni2215" unicode="&#x2215;" horiz-adv-x="167" 
d="M-176 -26l417 838h102l-417 -838h-102z" />
    <glyph glyph-name="uni2219" unicode="&#x2219;" horiz-adv-x="250" 
d="M217 328q0 -38 -27 -65t-65 -27t-65 27t-27 65t27 65t65 27t65 -27t27 -65z" />
    <glyph glyph-name="radical" unicode="&#x221a;" horiz-adv-x="578" 
d="M587 786l-219 -1000h-126l-145 300l-55 -26l-51 108l176 80l115 -250l161 788h144z" />
    <glyph glyph-name="infinity" unicode="&#x221e;" horiz-adv-x="856" 
d="M428 346q44 58 88 90.5t108 32.5q75 0 131 -50t56 -149q0 -89 -51 -146.5t-137 -57.5q-49 0 -95.5 25.5t-99.5 90.5q-49 -59 -92 -86.5t-100 -27.5q-86 0 -138.5 55.5t-52.5 145.5q0 95 53.5 147t133.5 52q35 0 65.5 -10.5t55.5 -32t39.5 -37t35.5 -42.5zM498 265
q63 -79 125 -79q28 0 51.5 19.5t23.5 62.5q0 41 -24.5 61t-53.5 20q-56 0 -122 -84zM358 265q-12 16 -27.5 32t-44 34t-53.5 18q-32 0 -53.5 -23t-21.5 -59q0 -37 22 -58.5t55 -21.5q61 0 123 78z" />
    <glyph glyph-name="integral" unicode="&#x222b;" horiz-adv-x="429" 
d="M390 964l-13 -114q-18 7 -31 7q-28 0 -46 -28q-22 -32 -22 -184q0 -90 6.5 -254.5t6.5 -274.5q0 -159 -30 -226q-40 -89 -146 -89q-51 0 -79 16l17 118q27 -9 38 -9q27 0 38 20q19 33 19 165q0 110 -6.5 280t-6.5 268q0 102 14 161t47 99q46 55 131 55q39 0 63 -10z" />
    <glyph glyph-name="approxequal" unicode="&#x2248;" horiz-adv-x="600" 
d="M108 287h-88q5 89 49 140t119 51q27 0 127 -30q85 -26 110 -26q52 0 59 58h89q-4 -54 -22.5 -94t-38.5 -58.5t-45 -29t-35.5 -12t-17.5 -1.5q-24 0 -185 49q-39 13 -64 13q-23 0 -38.5 -17.5t-18.5 -42.5zM108 56h-89q6 96 54 145.5t102 49.5q29 0 150 -38
q73 -23 101 -23q48 0 58 59h88q-3 -36 -12.5 -69t-27 -63t-47.5 -47.5t-69 -17.5q-36 0 -179 47q-53 16 -72 16q-48 0 -57 -59z" />
    <glyph glyph-name="notequal" unicode="&#x2260;" horiz-adv-x="600" 
d="M201 218l50 100h-204v135h271l79 157l118 -58l-49 -99h87v-135h-154l-50 -100h204v-135h-272l-79 -159l-118 59l50 100h-87v135h154z" />
    <glyph glyph-name="lessequal" unicode="&#x2264;" horiz-adv-x="600" 
d="M553 117l-506 167v134l506 162v-147l-320 -81l320 -88v-147zM47 -45v142h506v-142h-506z" />
    <glyph glyph-name="greaterequal" unicode="&#x2265;" horiz-adv-x="600" 
d="M553 284l-506 -167v147l320 88l-320 81v147l506 -162v-134zM553 97v-142h-506v142h506z" />
    <glyph glyph-name="lozenge" unicode="&#x25ca;" horiz-adv-x="571" 
d="M523 391l-180 -445h-126l-169 445l180 446h126zM388 388l-79 228q-14 53 -18 85h-5q-6 -42 -19 -85l-84 -221l81 -236q10 -41 16 -78h6q7 48 17 75z" />
    <glyph glyph-name="afii10066.ital" unicode="&#xf6c5;" 
d="M289 157v265q0 52 -39 52t-39 -52v-265q0 -16 1.5 -24.5t10.5 -18t27 -9.5t27 9.5t10.5 18t1.5 24.5zM461 427v-258q0 -32 -9.5 -61t-31 -57.5t-65.5 -46t-105 -17.5t-105 17.5t-65.5 46t-31 57.5t-9.5 61v213q0 22 2 38.5t9 38t24.5 36.5t44.5 21q-76 26 -76 116
q0 65 41 102t112 37h102q15 0 24 8t9 20h111q0 -63 -28.5 -92.5t-94.5 -29.5h-64q-84 0 -84 -43q0 -16 9 -26t28 -14.5t36.5 -5.5t47.5 -1q85 0 127 -45t42 -115z" />
    <glyph glyph-name="acute.cap" unicode="&#xf6c9;" horiz-adv-x="278" 
d="M73 853l48 136h154l-106 -136h-96z" />
    <glyph glyph-name="caron.cap" unicode="&#xf6ca;" horiz-adv-x="278" 
d="M62 853l-66 136h97l44 -73l48 73h97l-78 -136h-142z" />
    <glyph glyph-name="dieresis.cap" unicode="&#xf6cb;" horiz-adv-x="278" 
d="M276 853h-112v130h112v-130zM114 853h-112v130h112v-130z" />
    <glyph glyph-name="space_uni0308_uni0301.cap" unicode="&#xf6cc;" horiz-adv-x="278" 
d="M234 853v130h82v-130h-82zM-38 853v130h82v-130h-82zM68 853l36 136h106l-94 -136h-48z" />
    <glyph glyph-name="space_uni0308_uni0300.cap" unicode="&#xf6cd;" horiz-adv-x="278" 
d="M44 983v-130h-82v130h82zM316 983v-130h-82v130h82zM174 989l36 -136h-48l-94 136h106z" />
    <glyph glyph-name="grave.cap" unicode="&#xf6ce;" horiz-adv-x="278" 
d="M112 853l-109 136h158l44 -136h-93z" />
    <glyph glyph-name="hungarumlaut.cap" unicode="&#xf6cf;" horiz-adv-x="278" 
d="M-27 853l48 136h154l-106 -136h-96zM173 853l48 136h154l-106 -136h-96z" />
    <glyph glyph-name="macron.cap" unicode="&#xf6d0;" horiz-adv-x="278" 
d="M-8 861v76h294v-76h-294z" />
    <glyph glyph-name="breve.cyrcap" unicode="&#xf6d1;" horiz-adv-x="278" 
d="M-11 991h76q1 -62 74 -62q35 0 52.5 14t21.5 48h76q0 -68 -41 -103t-109 -35q-150 0 -150 138z" />
    <glyph glyph-name="circumflex.cyrcap" unicode="&#xf6d2;" horiz-adv-x="278" 
d="M65 853h-76q0 138 150 138q68 0 109 -35t41 -103h-76q-4 34 -21.5 48t-52.5 14q-73 0 -74 -62z" />
    <glyph glyph-name="space_uni030F" unicode="&#xf6d3;" horiz-adv-x="278" 
d="M12 702l-109 136h158l44 -136h-93zM212 702l-109 136h158l44 -136h-93z" />
    <glyph glyph-name="breve.cyr" unicode="&#xf6d4;" horiz-adv-x="278" 
d="M-11 840h76q1 -62 74 -62q35 0 52.5 14t21.5 48h76q0 -68 -41 -103t-109 -35q-150 0 -150 138z" />
    <glyph glyph-name="circumflex.cyr" unicode="&#xf6d5;" horiz-adv-x="278" 
d="M65 702h-76q0 138 150 138q68 0 109 -35t41 -103h-76q-4 34 -21.5 48t-52.5 14q-73 0 -74 -62z" />
    <glyph glyph-name="space_uni030F.cap" unicode="&#xf6d6;" horiz-adv-x="278" 
d="M12 853l-109 136h158l44 -136h-93zM212 853l-109 136h158l44 -136h-93z" />
    <glyph glyph-name="space_uni0308_uni0301" unicode="&#xf6d7;" horiz-adv-x="278" 
d="M234 702v130h82v-130h-82zM-38 702v130h82v-130h-82zM68 702l36 136h106l-94 -136h-48z" />
    <glyph glyph-name="space_uni0308_uni0300" unicode="&#xf6d8;" horiz-adv-x="278" 
d="M44 832v-130h-82v130h82zM316 832v-130h-82v130h82zM174 838l36 -136h-48l-94 136h106z" />
    <glyph glyph-name="f_i" unicode="&#xfb01;" 
d="M287 0v639h172v-639h-172zM287 681v118h172v-118h-172zM0 508v124h41v46q0 41 10.5 66.5t34 37t46 14.5t59.5 3h65v-112h-17q-32 0 -32 -32v-23h49v-124h-43v-508h-172v508h-41z" />
    <glyph glyph-name="f_l" unicode="&#xfb02;" 
d="M287 0v799h172v-799h-172zM0 508v124h41v46q0 41 10.5 66.5t34 37t46 14.5t59.5 3h65v-112h-17q-32 0 -32 -32v-23h49v-124h-43v-508h-172v508h-41z" />
    </font>
</defs>
</svg>
