<?xml version="1.0" standalone="no"?>
<!DOCTYPE svg PUBLIC "-//W3C//DTD SVG 1.1//EN" "http://www.w3.org/Graphics/SVG/1.1/DTD/svg11.dtd" >
<svg xmlns="http://www.w3.org/2000/svg" xmlns:xlink="http://www.w3.org/1999/xlink" version="1.1">
<metadata>
Created by FontForge 20170731 at Fri May 12 16:55:25 2006
 By Aleksey,,,
Copyright (c) 1988, 1990, 1991, 2002 Adobe Systems Incorporated.  All Rights Reserved. (c) 1981, 2002 Heidelberger Druckmaschinen AG. All rights reserved.
</metadata>
<defs>
<font id="HelveticaLTStd-UltraComp" horiz-adv-x="333" >
  <font-face 
    font-family="Helvetica LT Std UltCompressed"
    font-weight="400"
    font-stretch="ultra-condensed"
    units-per-em="1000"
    panose-1="2 11 6 8 2 2 2 6 2 4"
    ascent="718"
    descent="-282"
    x-height="572"
    cap-height="712"
    bbox="-167 -250 1000 925"
    underline-thickness="50"
    underline-position="-200"
    unicode-range="U+0020-FB02"
  />
<missing-glyph horiz-adv-x="500" 
d="M0 0v700h500v-700h-500zM250 395l170 255h-340zM280 350l170 -255v510zM80 50h340l-170 255zM50 605v-510l170 255z" />
    <glyph glyph-name="fi" unicode="fi" horiz-adv-x="315" 
d="M296 712v-102h-96v102h96zM296 0h-96v572h96v-572zM35 0v496h-30v76h30v72q0 32 15.5 50t56.5 18h54v-76h-13q-17 -1 -17 -29v-35h30v-76h-30v-496h-96z" />
    <glyph glyph-name="fl" unicode="fl" horiz-adv-x="315" 
d="M296 0h-96v712h96v-712zM35 0v496h-30v76h30v72q0 32 15.5 50t56.5 18h54v-76h-13q-17 -1 -17 -29v-35h30v-76h-30v-496h-96z" />
    <glyph glyph-name=".notdef" horiz-adv-x="500" 
d="M0 0v700h500v-700h-500zM250 395l170 255h-340zM280 350l170 -255v510zM80 50h340l-170 255zM50 605v-510l170 255z" />
    <glyph glyph-name=".null" horiz-adv-x="0" 
 />
    <glyph glyph-name="nonmarkingreturn" 
 />
    <glyph glyph-name="space" unicode=" " horiz-adv-x="166" 
 />
    <glyph glyph-name="exclam" unicode="!" horiz-adv-x="204" 
d="M152 153h-100v559h100v-559zM152 0h-100v111h100v-111z" />
    <glyph glyph-name="quotedbl" unicode="&#x22;" 
d="M197 441v271h88v-271h-88zM47 441v271h88v-271h-88z" />
    <glyph glyph-name="numbersign" unicode="#" 
d="M342 288v-74h-74l-25 -214h-67l25 214h-97l-25 -214h-66l24 214h-71v74h81l15 136h-72v74h81l26 214h66l-25 -214h97l25 214h66l-24 -214h65v-74h-74l-15 -136h64zM226 424h-97l-15 -136h97z" />
    <glyph glyph-name="dollar" unicode="$" 
d="M197 740v-45q45 1 77 -29t32 -76v-145h-106v122q0 28 -5.5 35.5t-26.5 7.5q-33 0 -33 -28v-71q0 -25 35 -69l93 -118q26 -33 34.5 -57.5t8.5 -62.5v-97q-7 -51 -31.5 -77t-81.5 -30v-51h-56v51q-55 -3 -85 29q-26 29 -26 79v154h106v-122q0 -19 1.5 -29t9.5 -18t25 -8
q29 0 29 31v72q0 32 -19 58l-134 182q-18 26 -18 69v85q19 96 115 113v45h56z" />
    <glyph glyph-name="percent" unicode="%" horiz-adv-x="500" 
d="M16 403v179q0 65 21.5 97.5t83.5 32.5q41 0 70 -19.5t35 -59.5v-224q-2 -44 -31 -67.5t-78 -23.5q-101 0 -101 85zM97 615v-194q0 -15 0.5 -21.5t6.5 -13t19 -6.5q5 0 8.5 1.5t6 3.5t4 5.5t2.5 6.5t1 8v8v8v7v176v7v8t-0.5 7.5t-1 7.5t-2.5 6t-4 5.5t-5.5 3t-8.5 1.5
q-17 0 -21.5 -8.5t-4.5 -26.5zM274 85v179q0 65 21.5 97.5t83.5 32.5q41 0 70 -19.5t35 -59.5v-224q-2 -44 -31 -67.5t-78 -23.5q-101 0 -101 85zM355 297v-194q0 -15 0.5 -21.5t6.5 -13t19 -6.5q5 0 8.5 1.5t6 3.5t4 5.5t2.5 6.5t1 8v8v8v7v176v7v8t-0.5 7.5t-1 7.5t-2.5 6
t-4 5.5t-5.5 3t-8.5 1.5q-17 0 -21.5 -8.5t-4.5 -26.5zM159 -8h-48l233 728h48z" />
    <glyph glyph-name="ampersand" unicode="&#x26;" horiz-adv-x="389" 
d="M138 303v-174q0 -39 15 -51.5t45 -12.5q25 0 31 9q-63 124 -88 229h-3zM215 524v101q0 28 -31 28q-18 0 -25 -8t-7 -31v-97q0 -29 18 -54q45 28 45 61zM263 380h93v-253q0 -19 -11 -52h35v-75h-64q-23 0 -37 13q-36 -27 -97 -27q-63 0 -106.5 40.5t-43.5 103.5v141
q0 102 63 138q-39 47 -39 161q0 80 28.5 118t107.5 38q70 0 94.5 -35t24.5 -113q0 -65 -23 -107t-87 -83q33 -81 60 -192h2v184z" />
    <glyph glyph-name="quotesingle" unicode="'" horiz-adv-x="222" 
d="M67 441v271h88v-271h-88z" />
    <glyph glyph-name="parenleft" unicode="(" horiz-adv-x="167" 
d="M98 712h87q-84 -194 -84 -389q0 -245 89 -420h-88q-89 166 -89 420q0 193 85 389z" />
    <glyph glyph-name="parenright" unicode=")" horiz-adv-x="167" 
d="M-18 712h87q85 -196 85 -389q0 -254 -89 -420h-88q89 175 89 420q0 195 -84 389z" />
    <glyph glyph-name="asterisk" unicode="*" horiz-adv-x="315" 
d="M221 454l-65 83l-63 -83l-45 31l67 81l-100 48l22 43l94 -42v97h52v-96l95 41l22 -43l-103 -47l69 -82z" />
    <glyph glyph-name="plus" unicode="+" horiz-adv-x="500" 
d="M207 330v201h88v-201h200v-88h-200v-201h-88v201h-202v88h202z" />
    <glyph glyph-name="comma" unicode="," horiz-adv-x="166" 
d="M74 -125h-59l32 236h100z" />
    <glyph glyph-name="hyphen" unicode="-" horiz-adv-x="166" 
d="M20 264v72h127v-72h-127z" />
    <glyph glyph-name="period" unicode="." horiz-adv-x="166" 
d="M133 0h-100v111h100v-111z" />
    <glyph glyph-name="slash" unicode="/" horiz-adv-x="278" 
d="M234 726h53l-244 -740h-53z" />
    <glyph glyph-name="zero" unicode="0" 
d="M28 130v447q0 79 34 111t104 32t104.5 -32t34.5 -111v-447q0 -138 -144 -138q-60 0 -96.5 35t-36.5 103zM134 590v-456q0 -17 1.5 -27.5t9.5 -20t23 -9.5q31 0 31 53v460q0 21 -9.5 33t-25.5 12q-12 0 -21 -12.5t-9 -32.5z" />
    <glyph glyph-name="one" unicode="1" 
d="M48 545v74q49 8 73.5 28t23.5 65h87v-712h-106v545h-78z" />
    <glyph glyph-name="two" unicode="2" 
d="M144 85h157v-85h-273v45q0 58 17.5 116t43 105t50.5 90t42.5 85t17.5 75v66q0 53 -29 53q-36 0 -36 -53v-125h-106v112q0 82 36.5 116.5t117.5 34.5q123 0 123 -164q0 -67 -24.5 -135t-54 -116t-55 -108t-27.5 -112z" />
    <glyph glyph-name="three" unicode="3" 
d="M28 262h106v-109q0 -76 29 -76q18 0 27 10.5t9 44.5v129q0 57 -49 57h-16v85q38 -3 51.5 15t13.5 55v64v29.5t-1 28t-3.5 20t-8.5 16t-16 4.5q-12 0 -19.5 -4t-10.5 -12.5t-4 -14.5t-1.5 -19.5t-0.5 -17.5v-108h-106v116q0 79 35 112t107 33q135 0 135 -139v-115
q0 -85 -84 -104v-4q54 -18 69 -40t15 -62v-120q0 -80 -35.5 -112t-102.5 -32q-81 0 -110 42t-29 127v101z" />
    <glyph glyph-name="four" unicode="4" 
d="M135 712h150v-446h42v-85h-42v-181h-101v181h-178v74zM94 266h90v356h-2q-38 -198 -88 -356z" />
    <glyph glyph-name="five" unicode="5" 
d="M28 262h106v-133q0 -26 6.5 -39t30.5 -13q18 0 23 13.5t5 38.5v178q0 48 -32 48q-26 0 -30 -22h-105v379h266v-85h-160v-211q40 31 78 31q89 0 89 -136v-173q0 -69 -31 -107.5t-112 -38.5q-59 0 -96.5 28t-37.5 93v149z" />
    <glyph glyph-name="six" unicode="6" 
d="M305 321v-189q0 -65 -29 -102.5t-111 -37.5q-137 0 -137 132v453q0 143 140 143q73 0 105 -37t32 -110v-117h-106v134q0 22 -6 33.5t-26 11.5t-26.5 -11.5t-6.5 -33.5v-190q32 34 79 34q92 0 92 -113zM199 123v173q0 42 -34 42q-31 0 -31 -42v-159q0 -20 1 -30t9.5 -20
t24.5 -10q13 0 20.5 8t8.5 16t1 22z" />
    <glyph glyph-name="seven" unicode="7" 
d="M20 627v85h294v-88l-155 -624h-113l162 627h-188z" />
    <glyph glyph-name="eight" unicode="8" 
d="M28 122v133q0 45 17 72t69 40v2q-48 3 -66 30t-20 74v111q0 73 41 104.5t93 31.5q59 0 100 -32.5t42 -103.5l1 -100q0 -28 -6.5 -51t-26.5 -42.5t-51 -21.5v-2q43 -12 63.5 -35t20.5 -46v-179q0 -52 -38.5 -83.5t-103.5 -31.5q-63 0 -99 34t-36 96zM199 128v153
q0 39 -33 39q-32 0 -32 -39v-153q0 -51 34 -51q31 0 31 51zM199 460v129q0 27 -7 36.5t-25 9.5q-31 0 -33 -46v-126q0 -28 7.5 -37t27.5 -9q30 0 30 43z" />
    <glyph glyph-name="nine" unicode="9" 
d="M28 353v233q0 65 29 102.5t111 37.5q137 0 137 -132v-453q0 -143 -140 -143q-73 0 -105 37t-32 110v71h106v-88q0 -22 6 -33.5t26 -11.5t26.5 11.5t6.5 33.5v146q-32 -34 -79 -34q-92 0 -92 113zM134 595v-217q0 -42 34 -42q31 0 31 42v203q0 20 -1 30t-9.5 20t-24.5 10
q-13 0 -20.5 -8t-8.5 -16t-1 -22z" />
    <glyph glyph-name="colon" unicode=":" horiz-adv-x="166" 
d="M133 0h-100v111h100v-111zM133 410h-100v111h100v-111z" />
    <glyph glyph-name="semicolon" unicode=";" horiz-adv-x="166" 
d="M67 -125h-59l32 236h100zM133 410h-100v111h100v-111z" />
    <glyph glyph-name="less" unicode="&#x3c;" horiz-adv-x="500" 
d="M469 137v-75l-437 191v66l437 191v-75l-339 -149z" />
    <glyph glyph-name="equal" unicode="=" horiz-adv-x="500" 
d="M495 432v-88h-490v88h490zM495 228v-88h-490v88h490z" />
    <glyph glyph-name="greater" unicode="&#x3e;" horiz-adv-x="500" 
d="M31 435v75l437 -191v-66l-437 -192v76l338 149z" />
    <glyph glyph-name="question" unicode="?" 
d="M140 460h-96v158q0 108 119 108q62 0 94 -27t32 -98v-80q0 -57 -11 -78l-49 -96q-11 -21 -11 -83v-111h-100v152q0 39 11 62l47 95q17 36 17 59v99q0 22 -4.5 29t-22.5 7q-14 0 -20 -8.5t-6 -30.5v-157zM218 0h-100v111h100v-111z" />
    <glyph glyph-name="at" unicode="@" horiz-adv-x="800" 
d="M365 222q53 0 92 54t39 112q0 36 -23 62t-56 26q-55 0 -94 -52.5t-39 -110.5q0 -40 22.5 -65.5t58.5 -25.5zM526 488l17 56h76l-68 -262q-19 -68 10 -68q46 0 85.5 58t39.5 134q0 116 -77 182t-194 66q-128 0 -208.5 -85.5t-80.5 -214.5q0 -130 84.5 -213t214.5 -83
q65 0 123.5 24.5t98.5 68.5h78q-50 -78 -130.5 -121.5t-173.5 -43.5q-159 0 -269 106.5t-110 264.5q0 155 109.5 262t264.5 107q139 0 240 -86t101 -218q0 -69 -26.5 -126.5t-65.5 -90.5t-79 -51t-71 -18q-24 0 -41 15.5t-18 43.5h-2q-55 -59 -112 -59q-63 0 -107 49
t-44 116q0 101 62 179t158 78q79 0 115 -70z" />
    <glyph glyph-name="A" unicode="A" 
d="M135 286h55l-22 296h-7zM6 0l81 712h159l81 -712h-107l-20 193h-75l-23 -193h-96z" />
    <glyph glyph-name="B" unicode="B" 
d="M134 631v-214h24q21 0 29.5 11.5t8.5 41.5v108q0 30 -8.5 41.5t-29.5 11.5h-24zM28 0v712h150q62 0 93 -34.5t31 -93.5v-113q-1 -44 -24.5 -63.5t-73.5 -31.5v-2q55 -11 78 -33t23 -78v-113q0 -67 -32 -108.5t-96 -41.5h-149zM134 332v-247h21q23 0 33.5 12t10.5 44v135
q0 32 -10.5 44t-33.5 12h-21z" />
    <glyph glyph-name="C" unicode="C" 
d="M305 452h-106v145q0 26 -7.5 35t-24.5 9q-18 0 -25.5 -9t-7.5 -35v-482q0 -26 7.5 -35t25.5 -9q17 0 24.5 9t7.5 35v154h106v-163q0 -64 -40.5 -92t-98.5 -28q-57 0 -97.5 28t-40.5 92v500q0 64 40.5 92t97.5 28q58 0 98.5 -28t40.5 -92v-154z" />
    <glyph glyph-name="D" unicode="D" 
d="M28 0v712h128q81 0 115 -34.5t34 -126.5v-422q0 -54 -33.5 -91.5t-92.5 -37.5h-151zM134 627v-542h25q22 0 31 10t9 43v436q0 33 -9 43t-31 10h-25z" />
    <glyph glyph-name="E" unicode="E" horiz-adv-x="278" 
d="M269 0h-238v712h236v-93h-130v-183h125v-93h-125v-250h132v-93z" />
    <glyph glyph-name="F" unicode="F" horiz-adv-x="278" 
d="M137 0h-106v712h238v-93h-132v-183h127v-93h-127v-343z" />
    <glyph glyph-name="G" unicode="G" 
d="M157 355h148v-355h-53l-3 45h-2q-29 -59 -96 -59q-47 0 -85 28.5t-38 91.5v500q0 64 40.5 92t97.5 28q58 0 98.5 -28t40.5 -92v-151h-106v142q0 26 -7.5 35t-24.5 9q-18 0 -25.5 -9t-7.5 -35v-482q0 -26 7.5 -35t25.5 -9q17 0 24.5 9t7.5 35v155h-42v85z" />
    <glyph glyph-name="H" unicode="H" 
d="M137 0h-106v712h106v-273h59v273h106v-712h-106v346h-59v-346z" />
    <glyph glyph-name="I" unicode="I" horiz-adv-x="167" 
d="M136 0h-106v712h106v-712z" />
    <glyph glyph-name="J" unicode="J" 
d="M196 712h106v-604q0 -64 -41.5 -93t-97.5 -29q-58 0 -96 37.5t-36 95.5v152h106v-149q0 -22 5 -34t10.5 -14.5t14.5 -2.5q13 0 21 9.5t8 41.5v590z" />
    <glyph glyph-name="K" unicode="K" 
d="M137 0h-106v712h106v-321h3l81 321h103l-81 -325l83 -387h-109l-77 361h-3v-361z" />
    <glyph glyph-name="L" unicode="L" horiz-adv-x="278" 
d="M272 0h-241v712h106v-619h135v-93z" />
    <glyph glyph-name="M" unicode="M" horiz-adv-x="481" 
d="M289 0h-97l-38 343q-4 33 -12.5 119t-12.5 119h-4q0 -12 2 -63t2 -76v-442h-93v712h157l34 -294q16 -116 17 -222h5q8 205 10 221l29 295h157v-712h-93v328q0 133 4 253h-4q-3 -30 -14 -145.5t-12 -128.5z" />
    <glyph glyph-name="N" unicode="N" horiz-adv-x="389" 
d="M31 712h159l30 -205q36 -200 50 -403h4v38q1 38 -1 108t-2 100v362h87v-712h-157l-50 356q-11 58 -32 252h-4q0 -2 3 -92v-516h-87v712z" />
    <glyph glyph-name="O" unicode="O" 
d="M134 597v-482q0 -26 7.5 -35t25.5 -9q17 0 24.5 9t7.5 35v482q0 26 -7.5 35t-24.5 9q-18 0 -25.5 -9t-7.5 -35zM28 106v500q0 64 40.5 92t97.5 28q58 0 98.5 -28t40.5 -92v-500q0 -64 -40.5 -92t-98.5 -28q-57 0 -97.5 28t-40.5 92z" />
    <glyph glyph-name="P" unicode="P" 
d="M305 573v-154q0 -146 -127 -146h-44v-273h-106v712h111q85 0 125.5 -31.5t40.5 -107.5zM134 627v-269q21 0 32 1t22 8.5t11 22.5v169q0 38 -10 53t-36 15h-19z" />
    <glyph glyph-name="Q" unicode="Q" 
d="M134 597v-482q0 -26 7.5 -35t25.5 -9q17 0 24.5 9t7.5 35v482q0 26 -7.5 35t-24.5 9q-18 0 -25.5 -9t-7.5 -35zM28 106v500q0 64 40.5 92t97.5 28q58 0 98.5 -28t40.5 -92v-500q0 -70 -53 -99q0 -7 16 -7h47v-79h-54q-36 0 -47.5 17t-13.5 52q-5 -1 -17 -3q-5 -1 -17 -1
q-57 0 -97.5 28t-40.5 92z" />
    <glyph glyph-name="R" unicode="R" 
d="M134 0h-106v712h140q67 0 102 -28t35 -94v-101q0 -46 -21.5 -73t-83.5 -34v-2q96 -12 101 -87q1 -9 4 -122t13 -171h-106q-6 29 -9.5 69.5t-4 62t0 78.5t0.5 62q0 33 -14.5 46t-50.5 12v-330zM134 627v-210h20q45 0 45 46v129q0 35 -40 35h-25z" />
    <glyph glyph-name="S" unicode="S" 
d="M134 270v-155q0 -26 7.5 -35t25.5 -9q17 0 24.5 9t7.5 35v75q0 27 -17.5 59t-43 62t-50.5 60.5t-42.5 65.5t-17.5 67v102q0 64 40.5 92t97.5 28q58 0 98.5 -28t40.5 -92v-150h-106v141q0 26 -7.5 35t-24.5 9q-18 0 -25.5 -9t-7.5 -35v-88q0 -21 42.5 -75t85.5 -112.5
t43 -89.5v-126q0 -64 -40.5 -92t-98.5 -28q-57 0 -97.5 28t-40.5 92v164h106z" />
    <glyph glyph-name="T" unicode="T" horiz-adv-x="315" 
d="M12 712h291v-93h-92v-619h-106v619h-93v93z" />
    <glyph glyph-name="U" unicode="U" 
d="M199 712h106v-606q0 -64 -40.5 -92t-98.5 -28q-57 0 -97.5 28t-40.5 92v606h106v-597q0 -26 7.5 -35t25.5 -9q17 0 24.5 9t7.5 35v597z" />
    <glyph glyph-name="V" unicode="V" 
d="M4 712h106l33 -297q4 -35 12 -140t12 -140h2q0 7 21 256l32 321h106l-84 -712h-160z" />
    <glyph glyph-name="W" unicode="W" horiz-adv-x="481" 
d="M198 0h-123l-65 712h107l22 -259q10 -145 13 -252h5q0 56 12 277l24 234h115l22 -281q4 -49 11 -230h5q8 180 11 209l27 302h86l-71 -712h-115l-18 256q-1 34 -7 128.5t-6 146.5h-5q-4 -39 -10 -117.5t-10 -117.5z" />
    <glyph glyph-name="X" unicode="X" 
d="M100 0h-99l89 360l-81 352h110q42 -194 50 -281h3q5 80 42 215l17 66h99l-86 -325l88 -387h-109l-38 172q-3 16 -6.5 36t-6.5 37.5t-5 33t-3 23.5l-2 9q-1 -47 -10.5 -96.5t-27.5 -119t-24 -95.5z" />
    <glyph glyph-name="Y" unicode="Y" 
d="M4 712h109l35 -155q10 -46 23 -154h2q5 95 18 149l38 160h99l-109 -441v-271h-106v266z" />
    <glyph glyph-name="Z" unicode="Z" horiz-adv-x="259" 
d="M13 712h233v-78l-124 -541h125v-93h-236v74l123 545h-121v93z" />
    <glyph glyph-name="bracketleft" unicode="[" horiz-adv-x="222" 
d="M208 -97h-178v809h178v-70h-90v-669h90v-70z" />
    <glyph glyph-name="backslash" unicode="\" horiz-adv-x="278" 
d="M-57 726h54l338 -740h-56z" />
    <glyph glyph-name="bracketright" unicode="]" horiz-adv-x="222" 
d="M14 -97v70h90v669h-90v70h178v-809h-178z" />
    <glyph glyph-name="asciicircum" unicode="^" horiz-adv-x="500" 
d="M100 308h-90l199 404h82l199 -404h-90l-150 312z" />
    <glyph glyph-name="underscore" unicode="_" horiz-adv-x="500" 
d="M500 -125h-500v50h500v-50z" />
    <glyph glyph-name="grave" unicode="`" horiz-adv-x="148" 
d="M48 804l93 -171h-54l-138 171h99z" />
    <glyph glyph-name="a" unicode="a" horiz-adv-x="278" 
d="M162 98v198q-17 -10 -25 -16t-14.5 -17t-6.5 -25v-144q3 -21 23 -19q23 4 23 23zM258 483v-483h-90q-6 12 -6 39h-2q-16 -26 -31 -36t-44 -10q-65 0 -65 66v192q0 32 14.5 51t34.5 28.5t40.5 20.5t35 36t14.5 65v8.5v10.5t-0.5 10.5t-1.5 10.5t-3 8.5t-5.5 6.5t-8.5 2
q-6 0 -10 -2.5t-6.5 -7.5t-4 -9.5t-2 -12t-0.5 -12.5v-12.5v-9.5v-75h-97v115q0 44 32 70t87 26t87 -26t32 -70z" />
    <glyph glyph-name="b" unicode="b" horiz-adv-x="278" 
d="M162 110v352q0 35 -23 35t-23 -35v-352q0 -35 23 -35t23 35zM20 0v712h96v-176h2q27 43 69 43q30 0 50.5 -17t20.5 -50v-452q0 -33 -20.5 -50t-50.5 -17q-40 0 -69 41h-2v-34h-96z" />
    <glyph glyph-name="c" unicode="c" horiz-adv-x="278" 
d="M20 89v394q0 44 32 70t87 26t87 -26t32 -70v-115h-96v106q0 35 -23 35t-23 -35v-383q0 -18 5.5 -23t17.5 -5t17.5 5t5.5 23v134h96v-136q0 -44 -32 -70t-87 -26t-87 26t-32 70z" />
    <glyph glyph-name="d" unicode="d" horiz-adv-x="278" 
d="M116 462v-352q0 -35 23 -35t23 35v352q0 35 -23 35t-23 -35zM258 712v-712h-96v34h-2q-29 -41 -69 -41q-30 0 -50.5 17t-20.5 50v452q0 33 20.5 50t50.5 17q42 0 69 -43h2v176h96z" />
    <glyph glyph-name="e" unicode="e" horiz-adv-x="278" 
d="M162 225h96v-136q0 -44 -32 -70t-87 -26t-87 26t-32 70v394q0 44 32 70t87 26t87 -26t32 -70v-210h-142v-182q0 -18 5.5 -23t17.5 -5t17.5 5t5.5 23v134zM162 340v141q0 18 -5.5 23t-17.5 5t-17.5 -5t-5.5 -23v-141h46z" />
    <glyph glyph-name="f" unicode="f" horiz-adv-x="167" 
d="M35 0v496h-30v76h30v72q0 32 15.5 50t56.5 18h54v-76h-13q-17 -1 -17 -29v-35h30v-76h-30v-496h-96z" />
    <glyph glyph-name="g" unicode="g" horiz-adv-x="278" 
d="M116 462v-280q0 -35 23 -35t23 35v280q0 35 -23 35t-23 -35zM258 572v-604q0 -44 -32 -70t-87 -26t-87 26t-32 70v71h94v-62q0 -35 23 -35t23 35v127h-2q-21 -39 -66 -39q-35 0 -53.5 20t-18.5 56v362q0 36 18.5 56t53.5 20q34 0 70 -41v34h96z" />
    <glyph glyph-name="h" unicode="h" horiz-adv-x="278" 
d="M116 712v-173h2q21 40 66 40q26 0 42 -6.5t22.5 -23.5t8 -31t1.5 -42v-476h-96v462q0 35 -21 35q-25 0 -25 -35v-462h-96v712h96z" />
    <glyph glyph-name="i" unicode="i" horiz-adv-x="148" 
d="M122 0h-96v572h96v-572zM122 712v-102h-96v102h96z" />
    <glyph glyph-name="j" unicode="j" horiz-adv-x="148" 
d="M-17 -128v76q24 0 33.5 8.5t9.5 31.5v584h96v-581q2 -57 -14 -88t-69 -31h-56zM122 712v-102h-96v102h96z" />
    <glyph glyph-name="k" unicode="k" horiz-adv-x="278" 
d="M118 0h-96v712h96v-403h4l52 263h96l-55 -258l58 -314h-98l-53 301h-4v-301z" />
    <glyph glyph-name="l" unicode="l" horiz-adv-x="148" 
d="M122 0h-96v712h96v-712z" />
    <glyph glyph-name="m" unicode="m" horiz-adv-x="426" 
d="M121 572v-38h2q26 45 67 45q44 0 68 -41q20 41 69 41q26 0 42 -6.5t22.5 -23.5t8 -31t1.5 -42v-476h-96v462q0 35 -23 35q-21 0 -21 -35v-462h-96v462q0 35 -23 35q-21 0 -21 -35v-462h-96v572h96z" />
    <glyph glyph-name="n" unicode="n" horiz-adv-x="278" 
d="M20 0v572h96v-33h2q21 40 66 40q26 0 42 -6.5t22.5 -23.5t8 -31t1.5 -42v-476h-96v462q0 35 -21 35q-25 0 -25 -35v-462h-96z" />
    <glyph glyph-name="o" unicode="o" horiz-adv-x="278" 
d="M258 483v-394q0 -44 -32 -70t-87 -26t-87 26t-32 70v394q0 44 32 70t87 26t87 -26t32 -70zM162 91v390q0 18 -5.5 23t-17.5 5t-17.5 -5t-5.5 -23v-390q0 -18 5.5 -23t17.5 -5t17.5 5t5.5 23z" />
    <glyph glyph-name="p" unicode="p" horiz-adv-x="278" 
d="M162 110v352q0 35 -23 35t-23 -35v-352q0 -35 23 -35t23 35zM20 -128v700h96v-34h2q29 41 76 41q64 0 64 -87v-412q0 -87 -71 -87q-42 0 -69 43h-2v-164h-96z" />
    <glyph glyph-name="q" unicode="q" horiz-adv-x="278" 
d="M116 462v-352q0 -35 23 -35t23 35v352q0 35 -23 35t-23 -35zM258 572v-700h-96v164h-2q-27 -43 -69 -43q-30 0 -50.5 17t-20.5 50v452q0 33 20.5 50t50.5 17q40 0 69 -41h2v34h96z" />
    <glyph glyph-name="r" unicode="r" horiz-adv-x="278" 
d="M20 0v572h96v-33h2q21 40 66 40q22 0 37 -6.5t22 -13.5t10.5 -25.5t4 -28.5t0.5 -35v-197h-96v189q0 35 -21 35q-25 0 -25 -35v-462h-96z" />
    <glyph glyph-name="s" unicode="s" horiz-adv-x="278" 
d="M20 223h96v-125q0 -35 23 -35t23 35v59q0 31 -22 65t-49 60t-49 60t-22 64v77q0 44 32 70t87 26t87 -26t32 -70v-118h-96v109q0 35 -23 35t-23 -35v-47q0 -19 22 -47.5t49 -53.5t49 -58.5t22 -62.5v-116q0 -44 -32 -70t-87 -26t-87 26t-32 70v134z" />
    <glyph glyph-name="t" unicode="t" horiz-adv-x="167" 
d="M130 675v-103h31v-76h-31v-374q0 -46 21 -46h10v-76h-55q-39 0 -55.5 25.5t-16.5 50.5v420h-28v76h28v103h96z" />
    <glyph glyph-name="u" unicode="u" horiz-adv-x="278" 
d="M258 572v-572h-96v33h-2q-21 -40 -66 -40q-22 0 -37 6.5t-22 13.5t-10.5 25.5t-4 28.5t-0.5 35v470h96v-462q0 -35 21 -35q25 0 25 35v462h96z" />
    <glyph glyph-name="v" unicode="v" horiz-adv-x="278" 
d="M76 0l-74 572h96l23 -199q9 -74 13 -262h4q2 22 4.5 91.5t7.5 107.5l30 262h95l-79 -572h-120z" />
    <glyph glyph-name="w" unicode="w" horiz-adv-x="444" 
d="M170 572h107l16 -232q1 -34 6.5 -111t6.5 -118h3q1 20 4.5 94.5t8.5 115.5l19 251h99l-71 -572h-105l-23 191q-18 180 -18 272h-2q-6 -146 -13 -219l-26 -244h-113l-66 572h99l21 -269q9 -128 11 -192h4q3 125 9 195z" />
    <glyph glyph-name="x" unicode="x" horiz-adv-x="259" 
d="M9 572h96q3 -23 10 -62.5t11.5 -72t5.5 -61.5h2q3 34 10.5 99.5t10.5 96.5h92l-48 -270l56 -302h-96q-8 40 -13 77.5t-10 82t-9 74.5h-2q-2 -35 -7 -73.5t-12 -87.5t-10 -73h-92l58 300z" />
    <glyph glyph-name="y" unicode="y" horiz-adv-x="278" 
d="M70 99l-66 473h95l21 -190q9 -82 16 -256h4q1 11 5 102t10 134l23 210h95l-85 -606q-9 -63 -27 -78.5t-79 -15.5q-12 0 -31 0.5t-28 0.5v75h29q34 0 34 34q0 16 -7.5 60t-8.5 57z" />
    <glyph glyph-name="z" unicode="z" horiz-adv-x="222" 
d="M4 79l109 417h-109v76h205v-76l-110 -420h118v-76h-213v79z" />
    <glyph glyph-name="braceleft" unicode="{" 
d="M37 278v62q33 0 59.5 25.5t26.5 65.5v167q0 52 36 83t77 31h78v-70h-53q-27 0 -38.5 -18t-11.5 -41v-164q0 -52 -30.5 -78t-60.5 -31v-2q12 -2 25 -7.5t29.5 -17t26.5 -34.5t10 -54v-163q0 -59 50 -59h53v-70h-78q-41 0 -77 31t-36 83v166q0 44 -26.5 69.5t-59.5 25.5z
" />
    <glyph glyph-name="bar" unicode="|" horiz-adv-x="222" 
d="M67 -250v1000h88v-1000h-88z" />
    <glyph glyph-name="braceright" unicode="}" 
d="M19 -97v70h53q27 0 38.5 18t11.5 41v164q0 52 30.5 78t60.5 31v2q-12 2 -25 7.5t-29.5 17t-26.5 34.5t-10 54v163q0 59 -50 59h-53v70h78q41 0 77 -31t36 -83v-166q0 -44 26.5 -69.5t59.5 -25.5v-62q-33 0 -59.5 -25.5t-26.5 -65.5v-167q0 -52 -36 -83t-77 -31h-78z" />
    <glyph glyph-name="asciitilde" unicode="~" horiz-adv-x="500" 
d="M445 365l36 -70q-20 -27 -33 -42t-38 -29.5t-54 -14.5q-40 0 -108 34t-109 34q-51 0 -84 -72l-36 70q45 86 125 86q41 0 115 -34q76 -34 98 -34q19 0 36.5 12t27 24.5t24.5 35.5z" />
    <glyph glyph-name="uni00A0" unicode="&#xa0;" horiz-adv-x="166" 
 />
    <glyph glyph-name="exclamdown" unicode="&#xa1;" horiz-adv-x="204" 
d="M52 445h100v-557h-100v557zM52 598h100v-111h-100v111z" />
    <glyph glyph-name="cent" unicode="&#xa2;" 
d="M57 -83l23 105q-29 24 -29 67v394q0 44 32 70t87 26q17 0 24 -2l20 71h54l-23 -87q44 -27 44 -78v-115h-96v106q0 35 -23 35t-23 -35v-383q0 -18 5.5 -23t17.5 -5t17.5 5t5.5 23v134h96v-136q0 -44 -32 -70t-87 -26q-20 0 -42 5l-18 -81h-53z" />
    <glyph glyph-name="sterling" unicode="&#xa3;" 
d="M203 528v68q0 17 -9.5 28t-25.5 11q-36 0 -36 -73q0 -32 18 -109q3 -14 7.5 -30t7 -25.5t2.5 -12.5h76v-57h-69q3 -31 3 -58q0 -61 -14 -105t-52 -77l2 -2q15 4 47 5.5t65 -2.5q23 -5 46.5 -4.5t46.5 11.5l4 -93q-22 -5 -42.5 -6.5t-33 -0.5t-37 4t-39.5 4q-54 4 -81 0
t-51 -5l-19 75q52 57 52 146q0 32 -4 108h-46v57h33q-28 96 -28 190q0 73 34.5 109t112.5 36q77 0 106.5 -29.5t29.5 -97.5v-65h-106z" />
    <glyph glyph-name="currency" unicode="&#xa4;" 
d="M25 282l32 31q-28 32 -28 81q0 53 28 81l-32 32l28 29l32 -31q32 27 83 27q49 0 78 -27l34 31l29 -29l-31 -31q26 -31 26 -81t-26 -82l31 -31l-29 -29l-31 32q-31 -28 -81 -28q-53 0 -84 28l-31 -32zM168 303q37 0 62 27t25 65q0 37 -25.5 64t-61.5 27q-38 0 -64 -27
t-26 -65t26 -64.5t64 -26.5z" />
    <glyph glyph-name="yen" unicode="&#xa5;" 
d="M313 343h-72l-12 -50h57v-57h-68v-236h-106v236h-68v57h57l-12 50h-72v57h60l-73 312h110l34 -155q12 -56 19 -154h8q2 85 16 149l38 160h99l-75 -311h60v-58z" />
    <glyph glyph-name="brokenbar" unicode="&#xa6;" horiz-adv-x="222" 
d="M67 -175v350h88v-350h-88zM67 325v350h88v-350h-88z" />
    <glyph glyph-name="section" unicode="&#xa7;" 
d="M292 566h-88v44q0 22 -6.5 34t-27.5 12q-8 0 -13.5 -2t-9.5 -4t-6.5 -7l-4 -8t-2 -10.5t-0.5 -10.5v-12v-12q0 -39 18 -71t44 -55.5t52 -48t44 -61t18 -81.5q0 -39 -18 -73t-50 -54q48 -47 48 -133q0 -74 -30.5 -107.5t-102.5 -33.5q-67 0 -94 30.5t-27 87.5v62h88v-63
q0 -24 7.5 -35.5t29.5 -11.5q12 0 20.5 4.5t12.5 8.5t6 16t2 17v21q0 39 -18.5 71t-44.5 55.5t-52.5 48.5t-45 63t-18.5 87q0 79 69 120q-47 51 -47 132q0 66 27 103t98 37q65 0 93.5 -28t28.5 -88v-44zM137 402q-26 -24 -26 -63q0 -65 89 -135q22 34 22 68q0 18 -10 37.5
t-19.5 31.5t-29.5 33t-26 28z" />
    <glyph glyph-name="dieresis" unicode="&#xa8;" horiz-adv-x="148" 
d="M49 666h-90v97h90v-97zM189 666h-90v97h90v-97z" />
    <glyph glyph-name="copyright" unicode="&#xa9;" horiz-adv-x="800" 
d="M400 -14q-155 0 -266.5 104t-111.5 266t111.5 266t266.5 104t266.5 -104t111.5 -266t-111.5 -266t-266.5 -104zM112 356q0 -129 83 -213.5t205 -84.5q121 0 204.5 85t83.5 213t-83.5 213t-204.5 85q-122 0 -205 -84.5t-83 -213.5zM519 293h76q-12 -73 -62.5 -115.5
t-118.5 -42.5q-95 0 -154 63.5t-59 159.5q0 98 56.5 160.5t153.5 62.5q71 0 121 -40.5t60 -112.5h-73q-8 37 -37 59t-70 22q-60 0 -92.5 -41.5t-32.5 -107.5q0 -64 35 -108.5t92 -44.5q42 0 70.5 23.5t34.5 62.5z" />
    <glyph glyph-name="ordfeminine" unicode="&#xaa;" horiz-adv-x="167" 
d="M65 522v-87q2 -13 19 -11q9 1 17 14v119q-17 -7 -24 -14q-12 -14 -12 -21zM160 674v-295h-57q-4 7 -4 23h-1q-18 -27 -49 -27q-43 0 -43 39v116q0 23 15 39t33.5 23.5t33 22t13.5 35.5q0 31 -16 31q-6 0 -9.5 -2t-5.5 -7.5t-2.5 -8t-1.5 -10.5v-8v-35h-60v64q0 28 22 40
t51 12q33 0 57 -12t24 -40z" />
    <glyph glyph-name="guillemotleft" unicode="&#xab;" 
d="M316 501v-122l-87 -93l87 -91v-127l-137 153v130zM153 501v-122l-87 -93l87 -91v-127l-137 153v130z" />
    <glyph glyph-name="logicalnot" unicode="&#xac;" horiz-adv-x="500" 
d="M407 154v190h-402v88h490v-278h-88z" />
    <glyph glyph-name="uni00AD" unicode="&#xad;" horiz-adv-x="166" 
d="M20 264v72h127v-72h-127z" />
    <glyph glyph-name="registered" unicode="&#xae;" horiz-adv-x="800" 
d="M400 -14q-155 0 -266.5 104t-111.5 266t111.5 266t266.5 104t266.5 -104t111.5 -266t-111.5 -266t-266.5 -104zM112 356q0 -129 83 -213.5t205 -84.5q121 0 204.5 85t83.5 213t-83.5 213t-204.5 85q-122 0 -205 -84.5t-83 -213.5zM328 333v-180h-73v419h158
q79 0 118.5 -29.5t39.5 -93.5q0 -101 -112 -113l115 -183h-80l-105 180h-61zM328 393h77q44 0 66.5 12t22.5 50q0 57 -88 57h-78v-119z" />
    <glyph glyph-name="macron" unicode="&#xaf;" horiz-adv-x="148" 
d="M-40 741h229v-64h-229v64z" />
    <glyph glyph-name="degree" unicode="&#xb0;" horiz-adv-x="400" 
d="M200 469q40 0 66.5 28t26.5 69t-26.5 69t-66.5 28t-66.5 -28t-26.5 -69t26.5 -69t66.5 -28zM200 420q-60 0 -103 43t-43 103t43 103t103 43t103 -43t43 -103t-43 -103t-103 -43z" />
    <glyph glyph-name="plusminus" unicode="&#xb1;" horiz-adv-x="500" 
d="M206 389v142h88v-142h201v-88h-201v-143h-88v143h-201v88h201zM5 41v88h490v-88h-490z" />
    <glyph glyph-name="twosuperior" unicode="&#xb2;" horiz-adv-x="199" 
d="M87 339h102v-51h-178v27q0 42 17.5 86.5t38 74.5t38 64t17.5 58v39q0 32 -18 32q-24 0 -24 -32v-75h-69v67q0 49 24 70t76 21q80 0 80 -98q0 -50 -25.5 -101t-51.5 -97.5t-27 -84.5z" />
    <glyph glyph-name="threesuperior" unicode="&#xb3;" horiz-adv-x="199" 
d="M11 445h69v-65q0 -46 19 -46q12 0 17.5 6t5.5 27v78q0 34 -31 34h-11v51q25 -2 33.5 9t8.5 33v38v18t-0.5 16.5t-2 13t-5.5 8.5t-10 3q-8 0 -13 -2t-7 -8t-3 -8.5t-1 -12v-10.5v-65h-69v70q0 47 23 67t70 20q87 0 87 -83v-69q0 -51 -54 -63v-2q35 -11 44.5 -24t9.5 -37
v-72q0 -49 -23 -68t-66 -19q-53 0 -72 25.5t-19 76.5v60z" />
    <glyph glyph-name="acute" unicode="&#xb4;" horiz-adv-x="148" 
d="M7 633l93 171h99l-138 -171h-54z" />
    <glyph glyph-name="mu" unicode="&#xb5;" horiz-adv-x="278" 
d="M258 572v-572h-96v33h-2q-16 -30 -44 -36v-125h-96v700h96v-462q0 -35 21 -35q25 0 25 35v462h96z" />
    <glyph glyph-name="paragraph" unicode="&#xb6;" horiz-adv-x="600" 
d="M243 -179v526q-99 0 -157.5 49.5t-58.5 129.5q0 186 236 186h215h88v-70h-88v-821h-88v821h-59v-821h-88z" />
    <glyph glyph-name="periodcentered" unicode="&#xb7;" horiz-adv-x="166" 
d="M30 286q0 22 15.5 37.5t37.5 15.5t38 -15.5t16 -37.5t-16 -38t-38 -16t-37.5 15.5t-15.5 38.5z" />
    <glyph glyph-name="cedilla" unicode="&#xb8;" horiz-adv-x="148" 
d="M27 -86l29 80h30l-15 -47q14 2 24 2q34 0 57.5 -18t23.5 -53q0 -45 -38 -65t-87 -20q-30 0 -66 9q-13 3 -16.5 6t-2.5 5.5t6 10t8 16.5q31 -13 60 -13q23 0 41.5 10t21.5 31q5 49 -50 49q-19 0 -26 -3z" />
    <glyph glyph-name="onesuperior" unicode="&#xb9;" horiz-adv-x="199" 
d="M19 615v44q32 5 48 17t15 39h57v-427h-69v327h-51z" />
    <glyph glyph-name="ordmasculine" unicode="&#xba;" horiz-adv-x="167" 
d="M65 660v-220q0 -20 17 -20q19 0 19 22v148v17q0 46 -2.5 60t-14.5 14q-19 0 -19 -21zM6 441v222q-1 28 19 45.5t55 17.5q80 0 80 -56v-218q0 -39 -18 -58t-62 -19q-39 0 -57 16t-17 50z" />
    <glyph glyph-name="guillemotright" unicode="&#xbb;" 
d="M16 379v122l137 -150v-130l-137 -153v127l87 91zM179 379v122l137 -150v-130l-137 -153v127l87 91z" />
    <glyph glyph-name="onequarter" unicode="&#xbc;" horiz-adv-x="499" 
d="M350 427h97v-267h28v-51h-28v-109h-65v109h-116v44zM323 160h59v216h-2q-23 -121 -57 -216zM327 720h48l-233 -728h-48zM24 615v44q32 5 48 17t15 39h57v-427h-69v327h-51z" />
    <glyph glyph-name="onehalf" unicode="&#xbd;" horiz-adv-x="499" 
d="M321 720h48l-233 -728h-48zM18 615v44q32 5 48 17t15 39h57v-427h-69v327h-51zM377 51h102v-51h-178v27q0 42 17.5 86.5t38 74.5t38 64t17.5 58v39q0 32 -18 32q-24 0 -24 -32v-75h-69v67q0 49 24 70t76 21q80 0 80 -98q0 -50 -25.5 -101t-51.5 -97.5t-27 -84.5z" />
    <glyph glyph-name="threequarters" unicode="&#xbe;" horiz-adv-x="499" 
d="M360 427h97v-267h28v-51h-28v-109h-65v109h-116v44zM333 160h59v216h-2q-23 -121 -57 -216zM355 720h48l-233 -728h-48zM16 445h69v-65q0 -46 19 -46q12 0 17.5 6t5.5 27v78q0 34 -31 34h-11v51q25 -2 33.5 9t8.5 33v38v18t-0.5 16.5t-2 13t-5.5 8.5t-10 3q-8 0 -13 -2
t-7 -8t-3 -8.5t-1 -12v-10.5v-65h-69v70q0 47 23 67t70 20q87 0 87 -83v-69q0 -51 -54 -63v-2q35 -11 44.5 -24t9.5 -37v-72q0 -49 -23 -68t-66 -19q-53 0 -72 25.5t-19 76.5v60z" />
    <glyph glyph-name="questiondown" unicode="&#xbf;" 
d="M193 138h96v-158q0 -108 -119 -108q-62 0 -94 27t-32 98v80q0 57 11 78l49 96q11 21 11 83v111h100v-152q0 -39 -11 -62l-47 -95q-17 -36 -17 -59v-99q0 -22 4.5 -29t22.5 -7q14 0 20 8.5t6 30.5v157zM115 598h100v-111h-100v111z" />
    <glyph glyph-name="Agrave" unicode="&#xc0;" 
d="M135 286h55l-22 296h-7zM6 0l81 712h159l81 -712h-107l-20 193h-75l-23 -193h-96zM141 925l93 -171h-54l-138 171h99z" />
    <glyph glyph-name="Aacute" unicode="&#xc1;" 
d="M135 286h55l-22 296h-7zM6 0l81 712h159l81 -712h-107l-20 193h-75l-23 -193h-96zM100 754l93 171h99l-138 -171h-54z" />
    <glyph glyph-name="Acircumflex" unicode="&#xc2;" 
d="M135 286h55l-22 296h-7zM6 0l81 712h159l81 -712h-107l-20 193h-75l-23 -193h-96zM93 754h-53l88 171h80l86 -171h-53l-72 111z" />
    <glyph glyph-name="Atilde" unicode="&#xc3;" 
d="M135 286h55l-22 296h-7zM6 0l81 712h159l81 -712h-107l-20 193h-75l-23 -193h-96zM73 777h-35q15 102 91 102q15 0 46 -11q40 -11 48 -11q20 0 29.5 9t14.5 29q4 -1 12 -0.5t16.5 0.5t8.5 -1q-4 -39 -30.5 -67.5t-63.5 -28.5q-18 0 -52 10t-44 10q-16 0 -27 -12t-14 -29z
" />
    <glyph glyph-name="Adieresis" unicode="&#xc4;" 
d="M135 286h55l-22 296h-7zM6 0l81 712h159l81 -712h-107l-20 193h-75l-23 -193h-96zM142 787h-90v97h90v-97zM282 787h-90v97h90v-97z" />
    <glyph glyph-name="Aring" unicode="&#xc5;" 
d="M135 286h55l-22 296h-7zM6 0l81 712h159l81 -712h-107l-20 193h-75l-23 -193h-96zM129 832q0 -15 12 -27t26 -12t26 12t12 27t-12 27t-26 12t-26 -12t-12 -27zM84 832q0 35 24.5 60t58.5 25t58.5 -25t24.5 -60t-24.5 -60t-58.5 -25t-58.5 25t-24.5 60z" />
    <glyph glyph-name="AE" unicode="&#xc6;" horiz-adv-x="481" 
d="M163 286h64v333h-9zM103 0h-103l148 712h324v-93h-139v-183h132v-93h-132v-250h137v-93h-243v193h-84z" />
    <glyph glyph-name="Ccedilla" unicode="&#xc7;" 
d="M199 269h106v-163q0 -61 -37 -89t-92 -30l-12 -40q14 2 24 2q34 0 57.5 -18t23.5 -53q0 -45 -38 -65t-87 -20q-30 0 -66 9q-13 3 -16.5 6t-2.5 5.5t6 10t8 16.5q31 -13 60 -13q23 0 41.5 10t21.5 31q5 49 -50 49q-18 0 -26 -3l26 73q-50 4 -84 33t-34 86v500
q0 64 40.5 92t97.5 28q58 0 98.5 -28t40.5 -92v-154h-106v145q0 26 -7.5 35t-24.5 9q-18 0 -25.5 -9t-7.5 -35v-482q0 -26 7.5 -35t25.5 -9q17 0 24.5 9t7.5 35v154z" />
    <glyph glyph-name="Egrave" unicode="&#xc8;" horiz-adv-x="278" 
d="M269 0h-238v712h236v-93h-130v-183h125v-93h-125v-250h132v-93zM113 925l93 -171h-54l-138 171h99z" />
    <glyph glyph-name="Eacute" unicode="&#xc9;" horiz-adv-x="278" 
d="M269 0h-238v712h236v-93h-130v-183h125v-93h-125v-250h132v-93zM72 754l93 171h99l-138 -171h-54z" />
    <glyph glyph-name="Ecircumflex" unicode="&#xca;" horiz-adv-x="278" 
d="M269 0h-238v712h236v-93h-130v-183h125v-93h-125v-250h132v-93zM65 754h-53l88 171h80l86 -171h-53l-72 111z" />
    <glyph glyph-name="Edieresis" unicode="&#xcb;" horiz-adv-x="278" 
d="M269 0h-238v712h236v-93h-130v-183h125v-93h-125v-250h132v-93zM114 787h-90v97h90v-97zM254 787h-90v97h90v-97z" />
    <glyph glyph-name="Igrave" unicode="&#xcc;" horiz-adv-x="167" 
d="M136 0h-106v712h106v-712zM58 925l93 -171h-54l-138 171h99z" />
    <glyph glyph-name="Iacute" unicode="&#xcd;" horiz-adv-x="167" 
d="M136 0h-106v712h106v-712zM17 754l93 171h99l-138 -171h-54z" />
    <glyph glyph-name="Icircumflex" unicode="&#xce;" horiz-adv-x="167" 
d="M136 0h-106v712h106v-712zM10 754h-53l88 171h80l86 -171h-53l-72 111z" />
    <glyph glyph-name="Idieresis" unicode="&#xcf;" horiz-adv-x="167" 
d="M136 0h-106v712h106v-712zM59 787h-90v97h90v-97zM199 787h-90v97h90v-97z" />
    <glyph glyph-name="Eth" unicode="&#xd0;" 
d="M28 354h-34v85h34v273h128q81 0 115 -34.5t34 -126.5v-422q0 -54 -33.5 -91.5t-92.5 -37.5h-151v354zM134 439h34v-85h-34v-269h25q22 0 31 10t9 43v436q0 33 -9 43t-31 10h-25v-188z" />
    <glyph glyph-name="Ntilde" unicode="&#xd1;" horiz-adv-x="389" 
d="M31 712h159l30 -205q36 -200 50 -403h4v38q1 38 -1 108t-2 100v362h87v-712h-157l-50 356q-11 58 -32 252h-4q0 -2 3 -92v-516h-87v712zM101 777h-35q15 102 91 102q15 0 46 -11q40 -11 48 -11q20 0 29.5 9t14.5 29q4 -1 12 -0.5t16.5 0.5t8.5 -1q-4 -39 -30.5 -67.5
t-63.5 -28.5q-18 0 -52 10t-44 10q-16 0 -27 -12t-14 -29z" />
    <glyph glyph-name="Ograve" unicode="&#xd2;" 
d="M134 597v-482q0 -26 7.5 -35t25.5 -9q17 0 24.5 9t7.5 35v482q0 26 -7.5 35t-24.5 9q-18 0 -25.5 -9t-7.5 -35zM28 106v500q0 64 40.5 92t97.5 28q58 0 98.5 -28t40.5 -92v-500q0 -64 -40.5 -92t-98.5 -28q-57 0 -97.5 28t-40.5 92zM141 925l93 -171h-54l-138 171h99z
" />
    <glyph glyph-name="Oacute" unicode="&#xd3;" 
d="M134 597v-482q0 -26 7.5 -35t25.5 -9q17 0 24.5 9t7.5 35v482q0 26 -7.5 35t-24.5 9q-18 0 -25.5 -9t-7.5 -35zM28 106v500q0 64 40.5 92t97.5 28q58 0 98.5 -28t40.5 -92v-500q0 -64 -40.5 -92t-98.5 -28q-57 0 -97.5 28t-40.5 92zM100 754l93 171h99l-138 -171h-54z
" />
    <glyph glyph-name="Ocircumflex" unicode="&#xd4;" 
d="M134 597v-482q0 -26 7.5 -35t25.5 -9q17 0 24.5 9t7.5 35v482q0 26 -7.5 35t-24.5 9q-18 0 -25.5 -9t-7.5 -35zM28 106v500q0 64 40.5 92t97.5 28q58 0 98.5 -28t40.5 -92v-500q0 -64 -40.5 -92t-98.5 -28q-57 0 -97.5 28t-40.5 92zM93 754h-53l88 171h80l86 -171h-53
l-72 111z" />
    <glyph glyph-name="Otilde" unicode="&#xd5;" 
d="M134 597v-482q0 -26 7.5 -35t25.5 -9q17 0 24.5 9t7.5 35v482q0 26 -7.5 35t-24.5 9q-18 0 -25.5 -9t-7.5 -35zM28 106v500q0 64 40.5 92t97.5 28q58 0 98.5 -28t40.5 -92v-500q0 -64 -40.5 -92t-98.5 -28q-57 0 -97.5 28t-40.5 92zM73 777h-35q15 102 91 102
q15 0 46 -11q40 -11 48 -11q20 0 29.5 9t14.5 29q4 -1 12 -0.5t16.5 0.5t8.5 -1q-4 -39 -30.5 -67.5t-63.5 -28.5q-18 0 -52 10t-44 10q-16 0 -27 -12t-14 -29z" />
    <glyph glyph-name="Odieresis" unicode="&#xd6;" 
d="M134 597v-482q0 -26 7.5 -35t25.5 -9q17 0 24.5 9t7.5 35v482q0 26 -7.5 35t-24.5 9q-18 0 -25.5 -9t-7.5 -35zM28 106v500q0 64 40.5 92t97.5 28q58 0 98.5 -28t40.5 -92v-500q0 -64 -40.5 -92t-98.5 -28q-57 0 -97.5 28t-40.5 92zM142 787h-90v97h90v-97zM282 787h-90
v97h90v-97z" />
    <glyph glyph-name="multiply" unicode="&#xd7;" horiz-adv-x="500" 
d="M189 267l-184 184l61 63l184 -184l184 184l61 -63l-183 -183l183 -184l-61 -63l-184 184l-184 -184l-61 63z" />
    <glyph glyph-name="Oslash" unicode="&#xd8;" 
d="M136 344l63 186v67q0 26 -7.5 35t-24.5 9q-18 0 -25.5 -9t-7.5 -35v-253h2zM197 357l-63 -187v-55q0 -26 7.5 -35t25.5 -9q17 0 24.5 9t7.5 35v242h-2zM28 106v500q0 64 40.5 92t97.5 28t93 -25l16 47h60l-36 -103q6 -15 6 -39v-500q0 -64 -40.5 -92t-98.5 -28
q-52 0 -88 22l-19 -53h-61l37 107q-7 17 -7 44z" />
    <glyph glyph-name="Ugrave" unicode="&#xd9;" 
d="M199 712h106v-606q0 -64 -40.5 -92t-98.5 -28q-57 0 -97.5 28t-40.5 92v606h106v-597q0 -26 7.5 -35t25.5 -9q17 0 24.5 9t7.5 35v597zM141 925l93 -171h-54l-138 171h99z" />
    <glyph glyph-name="Uacute" unicode="&#xda;" 
d="M199 712h106v-606q0 -64 -40.5 -92t-98.5 -28q-57 0 -97.5 28t-40.5 92v606h106v-597q0 -26 7.5 -35t25.5 -9q17 0 24.5 9t7.5 35v597zM100 754l93 171h99l-138 -171h-54z" />
    <glyph glyph-name="Ucircumflex" unicode="&#xdb;" 
d="M199 712h106v-606q0 -64 -40.5 -92t-98.5 -28q-57 0 -97.5 28t-40.5 92v606h106v-597q0 -26 7.5 -35t25.5 -9q17 0 24.5 9t7.5 35v597zM93 754h-53l88 171h80l86 -171h-53l-72 111z" />
    <glyph glyph-name="Udieresis" unicode="&#xdc;" 
d="M199 712h106v-606q0 -64 -40.5 -92t-98.5 -28q-57 0 -97.5 28t-40.5 92v606h106v-597q0 -26 7.5 -35t25.5 -9q17 0 24.5 9t7.5 35v597zM142 787h-90v97h90v-97zM282 787h-90v97h90v-97z" />
    <glyph glyph-name="Yacute" unicode="&#xdd;" 
d="M4 712h109l35 -155q10 -46 23 -154h2q5 95 18 149l38 160h99l-109 -441v-271h-106v266zM100 754l93 171h99l-138 -171h-54z" />
    <glyph glyph-name="Thorn" unicode="&#xde;" 
d="M28 0v712h106v-96h5q85 0 125.5 -31.5t40.5 -107.5v-154q0 -146 -127 -146h-44v-177h-106zM199 294v169q0 38 -10 53t-36 15h-19v-269q33 0 49 6t16 26z" />
    <glyph glyph-name="germandbls" unicode="&#xdf;" horiz-adv-x="278" 
d="M139 -7v70q27 0 27 30v260q-4 17 -27 21v70q8 -1 12.5 5t4.5 15v155q0 23 -18 23q-22 0 -22 -31v-611h-96v583q0 129 115 129q28 0 49 -4t33.5 -14.5t20 -19.5t10.5 -27.5t3.5 -29.5t0.5 -34v-119q-7 -41 -39 -53q0 -1 1 -2t5 -3.5t8 -5.5q17 -11 25 -27t9 -28.5t1 -43.5
v-168q0 -81 -23.5 -114t-99.5 -26z" />
    <glyph glyph-name="agrave" unicode="&#xe0;" horiz-adv-x="278" 
d="M162 98v198q-17 -10 -25 -16t-14.5 -17t-6.5 -25v-144q3 -21 23 -19q23 4 23 23zM258 483v-483h-90q-6 12 -6 39h-2q-16 -26 -31 -36t-44 -10q-65 0 -65 66v192q0 32 14.5 51t34.5 28.5t40.5 20.5t35 36t14.5 65v8.5v10.5t-0.5 10.5t-1.5 10.5t-3 8.5t-5.5 6.5t-8.5 2
q-6 0 -10 -2.5t-6.5 -7.5t-4 -9.5t-2 -12t-0.5 -12.5v-12.5v-9.5v-75h-97v115q0 44 32 70t87 26t87 -26t32 -70zM113 804l93 -171h-54l-138 171h99z" />
    <glyph glyph-name="aacute" unicode="&#xe1;" horiz-adv-x="278" 
d="M162 98v198q-17 -10 -25 -16t-14.5 -17t-6.5 -25v-144q3 -21 23 -19q23 4 23 23zM258 483v-483h-90q-6 12 -6 39h-2q-16 -26 -31 -36t-44 -10q-65 0 -65 66v192q0 32 14.5 51t34.5 28.5t40.5 20.5t35 36t14.5 65v8.5v10.5t-0.5 10.5t-1.5 10.5t-3 8.5t-5.5 6.5t-8.5 2
q-6 0 -10 -2.5t-6.5 -7.5t-4 -9.5t-2 -12t-0.5 -12.5v-12.5v-9.5v-75h-97v115q0 44 32 70t87 26t87 -26t32 -70zM72 633l93 171h99l-138 -171h-54z" />
    <glyph glyph-name="acircumflex" unicode="&#xe2;" horiz-adv-x="278" 
d="M162 98v198q-17 -10 -25 -16t-14.5 -17t-6.5 -25v-144q3 -21 23 -19q23 4 23 23zM258 483v-483h-90q-6 12 -6 39h-2q-16 -26 -31 -36t-44 -10q-65 0 -65 66v192q0 32 14.5 51t34.5 28.5t40.5 20.5t35 36t14.5 65v8.5v10.5t-0.5 10.5t-1.5 10.5t-3 8.5t-5.5 6.5t-8.5 2
q-6 0 -10 -2.5t-6.5 -7.5t-4 -9.5t-2 -12t-0.5 -12.5v-12.5v-9.5v-75h-97v115q0 44 32 70t87 26t87 -26t32 -70zM65 633h-53l88 171h80l86 -171h-53l-72 111z" />
    <glyph glyph-name="atilde" unicode="&#xe3;" horiz-adv-x="278" 
d="M162 98v198q-17 -10 -25 -16t-14.5 -17t-6.5 -25v-144q3 -21 23 -19q23 4 23 23zM258 483v-483h-90q-6 12 -6 39h-2q-16 -26 -31 -36t-44 -10q-65 0 -65 66v192q0 32 14.5 51t34.5 28.5t40.5 20.5t35 36t14.5 65v8.5v10.5t-0.5 10.5t-1.5 10.5t-3 8.5t-5.5 6.5t-8.5 2
q-6 0 -10 -2.5t-6.5 -7.5t-4 -9.5t-2 -12t-0.5 -12.5v-12.5v-9.5v-75h-97v115q0 44 32 70t87 26t87 -26t32 -70zM45 656h-35q15 102 91 102q15 0 46 -11q40 -11 48 -11q20 0 29.5 9t14.5 29q4 -1 12 -0.5t16.5 0.5t8.5 -1q-4 -39 -30.5 -67.5t-63.5 -28.5q-18 0 -52 10
t-44 10q-16 0 -27 -12t-14 -29z" />
    <glyph glyph-name="adieresis" unicode="&#xe4;" horiz-adv-x="278" 
d="M162 98v198q-17 -10 -25 -16t-14.5 -17t-6.5 -25v-144q3 -21 23 -19q23 4 23 23zM258 483v-483h-90q-6 12 -6 39h-2q-16 -26 -31 -36t-44 -10q-65 0 -65 66v192q0 32 14.5 51t34.5 28.5t40.5 20.5t35 36t14.5 65v8.5v10.5t-0.5 10.5t-1.5 10.5t-3 8.5t-5.5 6.5t-8.5 2
q-6 0 -10 -2.5t-6.5 -7.5t-4 -9.5t-2 -12t-0.5 -12.5v-12.5v-9.5v-75h-97v115q0 44 32 70t87 26t87 -26t32 -70zM114 666h-90v97h90v-97zM254 666h-90v97h90v-97z" />
    <glyph glyph-name="aring" unicode="&#xe5;" horiz-adv-x="278" 
d="M162 98v198q-17 -10 -25 -16t-14.5 -17t-6.5 -25v-144q3 -21 23 -19q23 4 23 23zM258 483v-483h-90q-6 12 -6 39h-2q-16 -26 -31 -36t-44 -10q-65 0 -65 66v192q0 32 14.5 51t34.5 28.5t40.5 20.5t35 36t14.5 65v8.5v10.5t-0.5 10.5t-1.5 10.5t-3 8.5t-5.5 6.5t-8.5 2
q-6 0 -10 -2.5t-6.5 -7.5t-4 -9.5t-2 -12t-0.5 -12.5v-12.5v-9.5v-75h-97v115q0 44 32 70t87 26t87 -26t32 -70zM101 711q0 -15 12 -27t26 -12t26 12t12 27t-12 27t-26 12t-26 -12t-12 -27zM56 711q0 35 24.5 60t58.5 25t58.5 -25t24.5 -60t-24.5 -60t-58.5 -25t-58.5 25
t-24.5 60z" />
    <glyph glyph-name="ae" unicode="&#xe6;" horiz-adv-x="426" 
d="M307 340v111q0 1 0.5 12.5t0 16.5t-2.5 13.5t-6.5 12t-12.5 3.5q-12 0 -18 -7.5t-6.5 -16t-0.5 -23v-19.5v-103h46zM165 98v198q-17 -10 -25 -16t-14.5 -17t-6.5 -25v-144q3 -21 23 -19q23 4 23 23zM403 460v-187h-142v-175q0 -35 23 -35t23 35v127h96v-132
q0 -51 -30 -75.5t-99 -24.5q-87 0 -102 65h-2q-13 -65 -82 -65q-65 0 -65 66v192q0 32 14.5 51t34.5 28.5t40.5 20.5t35 36t14.5 65v8.5v10.5t-0.5 10.5t-1.5 10.5t-3 8.5t-5.5 6.5t-8.5 2q-6 0 -10 -2.5t-6.5 -7.5t-4 -9.5t-2 -12t-0.5 -12.5v-12.5v-9.5v-75h-97v115
q0 44 32 70t87 26q40 0 71 -16q25 16 74 16q116 0 116 -119z" />
    <glyph glyph-name="ccedilla" unicode="&#xe7;" horiz-adv-x="278" 
d="M162 225h96v-137q0 -42 -29.5 -67.5t-79.5 -27.5l-13 -46q14 2 24 2q34 0 57.5 -18t23.5 -53q0 -45 -38 -65t-87 -20q-30 0 -66 9q-13 3 -16.5 6t-2.5 5.5t6 10t8 16.5q31 -13 60 -13q23 0 41.5 10t21.5 31q5 49 -50 49q-18 0 -26 -3l27 79q-46 5 -72.5 30t-26.5 65v395
q0 44 32 70t87 26t87 -26t32 -70v-115h-96v106q0 35 -23 35t-23 -35v-383q0 -18 5.5 -23t17.5 -5t17.5 5t5.5 23v134z" />
    <glyph glyph-name="egrave" unicode="&#xe8;" horiz-adv-x="278" 
d="M162 225h96v-136q0 -44 -32 -70t-87 -26t-87 26t-32 70v394q0 44 32 70t87 26t87 -26t32 -70v-210h-142v-182q0 -18 5.5 -23t17.5 -5t17.5 5t5.5 23v134zM162 340v141q0 18 -5.5 23t-17.5 5t-17.5 -5t-5.5 -23v-141h46zM113 804l93 -171h-54l-138 171h99z" />
    <glyph glyph-name="eacute" unicode="&#xe9;" horiz-adv-x="278" 
d="M162 225h96v-136q0 -44 -32 -70t-87 -26t-87 26t-32 70v394q0 44 32 70t87 26t87 -26t32 -70v-210h-142v-182q0 -18 5.5 -23t17.5 -5t17.5 5t5.5 23v134zM162 340v141q0 18 -5.5 23t-17.5 5t-17.5 -5t-5.5 -23v-141h46zM72 633l93 171h99l-138 -171h-54z" />
    <glyph glyph-name="ecircumflex" unicode="&#xea;" horiz-adv-x="278" 
d="M162 225h96v-136q0 -44 -32 -70t-87 -26t-87 26t-32 70v394q0 44 32 70t87 26t87 -26t32 -70v-210h-142v-182q0 -18 5.5 -23t17.5 -5t17.5 5t5.5 23v134zM162 340v141q0 18 -5.5 23t-17.5 5t-17.5 -5t-5.5 -23v-141h46zM65 633h-53l88 171h80l86 -171h-53l-72 111z" />
    <glyph glyph-name="edieresis" unicode="&#xeb;" horiz-adv-x="278" 
d="M162 225h96v-136q0 -44 -32 -70t-87 -26t-87 26t-32 70v394q0 44 32 70t87 26t87 -26t32 -70v-210h-142v-182q0 -18 5.5 -23t17.5 -5t17.5 5t5.5 23v134zM162 340v141q0 18 -5.5 23t-17.5 5t-17.5 -5t-5.5 -23v-141h46zM114 666h-90v97h90v-97zM254 666h-90v97h90v-97z
" />
    <glyph glyph-name="igrave" unicode="&#xec;" horiz-adv-x="148" 
d="M122 0h-96v572h96v-572zM48 804l93 -171h-54l-138 171h99z" />
    <glyph glyph-name="iacute" unicode="&#xed;" horiz-adv-x="148" 
d="M122 0h-96v572h96v-572zM7 633l93 171h99l-138 -171h-54z" />
    <glyph glyph-name="icircumflex" unicode="&#xee;" horiz-adv-x="148" 
d="M122 0h-96v572h96v-572zM0 633h-53l88 171h80l86 -171h-53l-72 111z" />
    <glyph glyph-name="idieresis" unicode="&#xef;" horiz-adv-x="148" 
d="M122 0h-96v572h96v-572zM49 666h-90v97h90v-97zM189 666h-90v97h90v-97z" />
    <glyph glyph-name="eth" unicode="&#xf0;" horiz-adv-x="278" 
d="M162 91v354q0 28 -23 28t-23 -28v-354q0 -28 23 -28t23 28zM111 616l-52 -41l-18 37l47 37q-13 19 -37 45l73 57q22 -28 35 -46l44 34l17 -37l-38 -30q76 -113 76 -264v-294q0 -57 -34.5 -89t-84.5 -32q-51 0 -85 31.5t-34 89.5v294q0 58 26 96.5t61 38.5q28 0 40 -8
q-11 43 -36 81z" />
    <glyph glyph-name="ntilde" unicode="&#xf1;" horiz-adv-x="278" 
d="M20 0v572h96v-33h2q21 40 66 40q26 0 42 -6.5t22.5 -23.5t8 -31t1.5 -42v-476h-96v462q0 35 -21 35q-25 0 -25 -35v-462h-96zM45 656h-35q15 102 91 102q15 0 46 -11q40 -11 48 -11q20 0 29.5 9t14.5 29q4 -1 12 -0.5t16.5 0.5t8.5 -1q-4 -39 -30.5 -67.5t-63.5 -28.5
q-18 0 -52 10t-44 10q-16 0 -27 -12t-14 -29z" />
    <glyph glyph-name="ograve" unicode="&#xf2;" horiz-adv-x="278" 
d="M258 483v-394q0 -44 -32 -70t-87 -26t-87 26t-32 70v394q0 44 32 70t87 26t87 -26t32 -70zM162 91v390q0 18 -5.5 23t-17.5 5t-17.5 -5t-5.5 -23v-390q0 -18 5.5 -23t17.5 -5t17.5 5t5.5 23zM113 804l93 -171h-54l-138 171h99z" />
    <glyph glyph-name="oacute" unicode="&#xf3;" horiz-adv-x="278" 
d="M258 483v-394q0 -44 -32 -70t-87 -26t-87 26t-32 70v394q0 44 32 70t87 26t87 -26t32 -70zM162 91v390q0 18 -5.5 23t-17.5 5t-17.5 -5t-5.5 -23v-390q0 -18 5.5 -23t17.5 -5t17.5 5t5.5 23zM72 633l93 171h99l-138 -171h-54z" />
    <glyph glyph-name="ocircumflex" unicode="&#xf4;" horiz-adv-x="278" 
d="M258 483v-394q0 -44 -32 -70t-87 -26t-87 26t-32 70v394q0 44 32 70t87 26t87 -26t32 -70zM162 91v390q0 18 -5.5 23t-17.5 5t-17.5 -5t-5.5 -23v-390q0 -18 5.5 -23t17.5 -5t17.5 5t5.5 23zM65 633h-53l88 171h80l86 -171h-53l-72 111z" />
    <glyph glyph-name="otilde" unicode="&#xf5;" horiz-adv-x="278" 
d="M258 483v-394q0 -44 -32 -70t-87 -26t-87 26t-32 70v394q0 44 32 70t87 26t87 -26t32 -70zM162 91v390q0 18 -5.5 23t-17.5 5t-17.5 -5t-5.5 -23v-390q0 -18 5.5 -23t17.5 -5t17.5 5t5.5 23zM45 656h-35q15 102 91 102q15 0 46 -11q40 -11 48 -11q20 0 29.5 9t14.5 29
q4 -1 12 -0.5t16.5 0.5t8.5 -1q-4 -39 -30.5 -67.5t-63.5 -28.5q-18 0 -52 10t-44 10q-16 0 -27 -12t-14 -29z" />
    <glyph glyph-name="odieresis" unicode="&#xf6;" horiz-adv-x="278" 
d="M258 483v-394q0 -44 -32 -70t-87 -26t-87 26t-32 70v394q0 44 32 70t87 26t87 -26t32 -70zM162 91v390q0 18 -5.5 23t-17.5 5t-17.5 -5t-5.5 -23v-390q0 -18 5.5 -23t17.5 -5t17.5 5t5.5 23zM114 666h-90v97h90v-97zM254 666h-90v97h90v-97z" />
    <glyph glyph-name="divide" unicode="&#xf7;" horiz-adv-x="500" 
d="M495 242h-490v88h490v-88zM176 495q0 31 23 54t54 23q30 0 53 -23t23 -54q0 -29 -23 -52.5t-52 -23.5q-32 0 -55 22.5t-23 53.5zM176 77q0 31 22.5 53.5t54.5 22.5q30 0 53 -22.5t23 -53.5q0 -29 -23 -53t-52 -24q-32 0 -55 23t-23 54z" />
    <glyph glyph-name="oslash" unicode="&#xf8;" horiz-adv-x="278" 
d="M160 273l-44 -132v-50q0 -18 5.5 -23t17.5 -5t17.5 5t5.5 23v182h-2zM118 292l44 131v58q0 18 -5.5 23t-17.5 5t-17.5 -5t-5.5 -23v-189h2zM258 483v-394q0 -44 -32 -70t-87 -26q-43 0 -70 15l-15 -44h-53l29 83q-10 17 -10 42v394q0 44 32 70t87 26q42 0 72 -16l16 46
h53l-31 -87q9 -18 9 -39z" />
    <glyph glyph-name="ugrave" unicode="&#xf9;" horiz-adv-x="278" 
d="M258 572v-572h-96v33h-2q-21 -40 -66 -40q-22 0 -37 6.5t-22 13.5t-10.5 25.5t-4 28.5t-0.5 35v470h96v-462q0 -35 21 -35q25 0 25 35v462h96zM113 804l93 -171h-54l-138 171h99z" />
    <glyph glyph-name="uacute" unicode="&#xfa;" horiz-adv-x="278" 
d="M258 572v-572h-96v33h-2q-21 -40 -66 -40q-22 0 -37 6.5t-22 13.5t-10.5 25.5t-4 28.5t-0.5 35v470h96v-462q0 -35 21 -35q25 0 25 35v462h96zM72 633l93 171h99l-138 -171h-54z" />
    <glyph glyph-name="ucircumflex" unicode="&#xfb;" horiz-adv-x="278" 
d="M258 572v-572h-96v33h-2q-21 -40 -66 -40q-22 0 -37 6.5t-22 13.5t-10.5 25.5t-4 28.5t-0.5 35v470h96v-462q0 -35 21 -35q25 0 25 35v462h96zM65 633h-53l88 171h80l86 -171h-53l-72 111z" />
    <glyph glyph-name="udieresis" unicode="&#xfc;" horiz-adv-x="278" 
d="M258 572v-572h-96v33h-2q-21 -40 -66 -40q-22 0 -37 6.5t-22 13.5t-10.5 25.5t-4 28.5t-0.5 35v470h96v-462q0 -35 21 -35q25 0 25 35v462h96zM114 666h-90v97h90v-97zM254 666h-90v97h90v-97z" />
    <glyph glyph-name="yacute" unicode="&#xfd;" horiz-adv-x="278" 
d="M70 99l-66 473h95l21 -190q9 -82 16 -256h4q1 11 5 102t10 134l23 210h95l-85 -606q-9 -63 -27 -78.5t-79 -15.5q-12 0 -31 0.5t-28 0.5v75h29q34 0 34 34q0 16 -7.5 60t-8.5 57zM72 633l93 171h99l-138 -171h-54z" />
    <glyph glyph-name="thorn" unicode="&#xfe;" horiz-adv-x="278" 
d="M162 110v352q0 35 -23 35t-23 -35v-352q0 -35 23 -35t23 35zM20 -128v840h96v-174h2q29 41 76 41q64 0 64 -87v-412q0 -87 -71 -87q-42 0 -69 43h-2v-164h-96z" />
    <glyph glyph-name="ydieresis" unicode="&#xff;" horiz-adv-x="278" 
d="M70 99l-66 473h95l21 -190q9 -82 16 -256h4q1 11 5 102t10 134l23 210h95l-85 -606q-9 -63 -27 -78.5t-79 -15.5q-12 0 -31 0.5t-28 0.5v75h29q34 0 34 34q0 16 -7.5 60t-8.5 57zM114 666h-90v97h90v-97zM254 666h-90v97h90v-97z" />
    <glyph glyph-name="dotlessi" unicode="&#x131;" horiz-adv-x="148" 
d="M122 0h-96v572h96v-572z" />
    <glyph glyph-name="Lslash" unicode="&#x141;" horiz-adv-x="278" 
d="M31 712h106v-265l68 55v-96l-68 -50v-263h135v-93h-241v278l-37 -27v96l37 27v338z" />
    <glyph glyph-name="lslash" unicode="&#x142;" horiz-adv-x="148" 
d="M26 712h96v-230l36 42v-96l-36 -42v-386h-96v284l-36 -36v96l36 36v332z" />
    <glyph glyph-name="OE" unicode="&#x152;" horiz-adv-x="444" 
d="M198 118v460v12.5v13.5t-1 11t-3 11t-5.5 7.5t-9 6t-13.5 1.5q-36 0 -33 -35v-476v-7.5v-8t0.5 -7.5t1 -8t1.5 -7t2.5 -7t4.5 -5.5t6 -5t7.5 -2.5t9.5 -1q36 0 32 47zM304 619v-183h134v-93h-134v-250h138v-93h-119q-63 0 -96 -7q-44 -7 -66 -7q-71 0 -103.5 35
t-30.5 107v458q-1 65 35.5 102.5t101.5 37.5q13 0 58.5 -6.5t106.5 -7.5h113v-93h-138z" />
    <glyph glyph-name="oe" unicode="&#x153;" horiz-adv-x="426" 
d="M307 340v134q0 35 -23 35t-23 -35v-134h46zM403 460v-187h-142v-175q0 -35 23 -35t23 35v127h96v-132q0 -51 -30 -75.5t-99 -24.5q-40 0 -66 15q-27 -15 -73 -15q-59 0 -85.5 27t-26.5 84v357q0 56 28.5 87t80.5 31q48 0 79 -17q25 17 76 17q116 0 116 -119zM119 474
v-376q0 -35 23 -35t23 35v376q0 35 -23 35t-23 -35z" />
    <glyph glyph-name="Scaron" unicode="&#x160;" 
d="M134 270v-155q0 -26 7.5 -35t25.5 -9q17 0 24.5 9t7.5 35v75q0 27 -17.5 59t-43 62t-50.5 60.5t-42.5 65.5t-17.5 67v102q0 64 40.5 92t97.5 28q58 0 98.5 -28t40.5 -92v-150h-106v141q0 26 -7.5 35t-24.5 9q-18 0 -25.5 -9t-7.5 -35v-88q0 -21 42.5 -75t85.5 -112.5
t43 -89.5v-126q0 -64 -40.5 -92t-98.5 -28q-57 0 -97.5 28t-40.5 92v164h106zM208 754h-80l-88 171h53l75 -111l73 111h53z" />
    <glyph glyph-name="scaron" unicode="&#x161;" horiz-adv-x="278" 
d="M20 223h96v-125q0 -35 23 -35t23 35v59q0 31 -22 65t-49 60t-49 60t-22 64v77q0 44 32 70t87 26t87 -26t32 -70v-118h-96v109q0 35 -23 35t-23 -35v-47q0 -19 22 -47.5t49 -53.5t49 -58.5t22 -62.5v-116q0 -44 -32 -70t-87 -26t-87 26t-32 70v134zM180 633h-80l-88 171
h53l75 -111l73 111h53z" />
    <glyph glyph-name="Ydieresis" unicode="&#x178;" 
d="M4 712h109l35 -155q10 -46 23 -154h2q5 95 18 149l38 160h99l-109 -441v-271h-106v266zM142 787h-90v97h90v-97zM282 787h-90v97h90v-97z" />
    <glyph glyph-name="Zcaron" unicode="&#x17d;" horiz-adv-x="259" 
d="M13 712h233v-78l-124 -541h125v-93h-236v74l123 545h-121v93zM171 754h-80l-88 171h53l75 -111l73 111h53z" />
    <glyph glyph-name="zcaron" unicode="&#x17e;" horiz-adv-x="222" 
d="M4 79l109 417h-109v76h205v-76l-110 -420h118v-76h-213v79zM152 633h-80l-88 171h53l75 -111l73 111h53z" />
    <glyph glyph-name="florin" unicode="&#x192;" 
d="M315 417h-78l-77 -449q-9 -45 -38 -70.5t-73 -25.5q-37 0 -50 10l8 70q23 -1 35.5 5.5t16.5 26.5l73 433h-67v76h79l10 61q6 36 9.5 53t10 40.5t13.5 33.5t19 21t27.5 14.5t37.5 3.5q11 0 32 -3t31 -3l-13 -74q-31 5 -40 -6q-3 -4 -13 -38l-19 -103h66v-76z" />
    <glyph glyph-name="circumflex" unicode="&#x2c6;" horiz-adv-x="148" 
d="M0 633h-53l88 171h80l86 -171h-53l-72 111z" />
    <glyph glyph-name="caron" unicode="&#x2c7;" horiz-adv-x="148" 
d="M115 633h-80l-88 171h53l75 -111l73 111h53z" />
    <glyph glyph-name="uni02C9" unicode="&#x2c9;" horiz-adv-x="148" 
d="M-40 741h229v-64h-229v64z" />
    <glyph glyph-name="breve" unicode="&#x2d8;" horiz-adv-x="148" 
d="M-50 778h32q8 -66 83 -66q34 0 51.5 2.5t34.5 17.5t19 46h29q1 -56 -33 -91t-91 -35t-89.5 34t-35.5 92z" />
    <glyph glyph-name="dotaccent" unicode="&#x2d9;" horiz-adv-x="148" 
d="M119 666h-90v97h90v-97z" />
    <glyph glyph-name="ring" unicode="&#x2da;" horiz-adv-x="148" 
d="M36 711q0 -15 12 -27t26 -12t26 12t12 27t-12 27t-26 12t-26 -12t-12 -27zM-9 711q0 35 24.5 60t58.5 25t58.5 -25t24.5 -60t-24.5 -60t-58.5 -25t-58.5 25t-24.5 60z" />
    <glyph glyph-name="ogonek" unicode="&#x2db;" horiz-adv-x="148" 
d="M94 0h70l-6 -3q-7 -3 -17 -8t-22 -12t-24 -16.5t-22 -20t-16.5 -24t-6.5 -27.5q0 -62 64 -62q29 0 60 13l13 -26q-42 -21 -108 -21q-43 0 -73 20t-30 65q0 81 118 122z" />
    <glyph glyph-name="tilde" unicode="&#x2dc;" horiz-adv-x="148" 
d="M-20 656h-35q15 102 91 102q15 0 46 -11q40 -11 48 -11q20 0 29.5 9t14.5 29q4 -1 12 -0.5t16.5 0.5t8.5 -1q-4 -39 -30.5 -67.5t-63.5 -28.5q-18 0 -52 10t-44 10q-16 0 -27 -12t-14 -29z" />
    <glyph glyph-name="hungarumlaut" unicode="&#x2dd;" horiz-adv-x="148" 
d="M-57 633l66 171h96l-108 -171h-54zM70 633l93 171h99l-138 -171h-54z" />
    <glyph glyph-name="uni03A9" unicode="&#x3a9;" horiz-adv-x="403" 
d="M97 86v3q-68 130 -68 303q0 141 48.5 230.5t127.5 89.5q56 0 94.5 -46.5t55 -114.5t16.5 -149q0 -90 -20.5 -174.5t-48.5 -138.5v-3h78v-86h-154v61q23 38 36 116q16 85 16 197q0 106 -18 176.5t-59 70.5q-39 0 -59.5 -67.5t-20.5 -181.5q0 -102 16 -188.5t37 -122.5v-61
h-154v86h77z" />
    <glyph glyph-name="uni03BC" unicode="&#x3bc;" horiz-adv-x="278" 
d="M258 572v-572h-96v33h-2q-16 -30 -44 -36v-125h-96v700h96v-462q0 -35 21 -35q25 0 25 35v462h96z" />
    <glyph glyph-name="pi" unicode="&#x3c0;" horiz-adv-x="384" 
d="M366 435h-40v-310q0 -80 8 -125h-85q-13 36 -13 127v308h-76q-8 -271 -42 -435h-86q18 89 28.5 215t11.5 220q-33 0 -53 -6l-11 70q31 29 107 29h257z" />
    <glyph glyph-name="endash" unicode="&#x2013;" horiz-adv-x="500" 
d="M500 266h-500v67h500v-67z" />
    <glyph glyph-name="emdash" unicode="&#x2014;" horiz-adv-x="1000" 
d="M0 266v67h1000v-67h-1000z" />
    <glyph glyph-name="quoteleft" unicode="&#x2018;" horiz-adv-x="167" 
d="M105 712l34 -209h-63l-63 209h92z" />
    <glyph glyph-name="quoteright" unicode="&#x2019;" horiz-adv-x="167" 
d="M62 712h92l-63 -209h-63z" />
    <glyph glyph-name="quotesinglbase" unicode="&#x201a;" horiz-adv-x="167" 
d="M62 111h92l-63 -209h-63z" />
    <glyph glyph-name="quotedblleft" unicode="&#x201c;" horiz-adv-x="315" 
d="M112 712l34 -209h-63l-63 209h92zM242 712l34 -209h-63l-63 209h92z" />
    <glyph glyph-name="quotedblright" unicode="&#x201d;" horiz-adv-x="315" 
d="M73 712h92l-63 -209h-63zM203 712h92l-63 -209h-63z" />
    <glyph glyph-name="quotedblbase" unicode="&#x201e;" horiz-adv-x="315" 
d="M73 111h92l-63 -209h-63zM203 111h92l-63 -209h-63z" />
    <glyph glyph-name="dagger" unicode="&#x2020;" 
d="M323 409h-107v-525h-99v525h-107v85h107v218h99v-218h107v-85z" />
    <glyph glyph-name="daggerdbl" unicode="&#x2021;" 
d="M10 501h107v211h99v-211h107v-85h-107v-239h107v-85h-107v-208h-99v208h-107v85h107v239h-107v85z" />
    <glyph glyph-name="bullet" unicode="&#x2022;" horiz-adv-x="500" 
d="M425 350q0 -73 -51 -124t-124 -51t-124 51t-51 124q-1 73 50 124t125 51q73 0 124 -51t51 -124z" />
    <glyph glyph-name="ellipsis" unicode="&#x2026;" horiz-adv-x="1000" 
d="M216 0h-100v111h100v-111zM550 0h-100v111h100v-111zM884 0h-100v111h100v-111z" />
    <glyph glyph-name="perthousand" unicode="&#x2030;" horiz-adv-x="778" 
d="M243 633v-224q-2 -44 -31 -67.5t-78 -23.5q-101 0 -101 85v179q0 65 21.5 97.5t83.5 32.5q43 0 74 -20t31 -59zM114 615v-194q0 -15 0.5 -21.5t6.5 -13t19 -6.5q5 0 8.5 1.5t6 3.5t4 5.5t2.5 6.5t1 8v8v8v7v176v7v8t-0.5 7.5t-1 7.5t-2.5 6t-4 5.5t-5.5 3t-8.5 1.5
q-11 0 -17 -5t-7.5 -11.5t-1.5 -18.5zM296 85v179q0 65 21.5 97.5t83.5 32.5q43 0 74 -20t31 -59v-224q-2 -44 -31 -67.5t-78 -23.5q-101 0 -101 85zM377 297v-194q0 -15 0.5 -21.5t6.5 -13t19 -6.5q5 0 8.5 1.5t6 3.5t4 5.5t2.5 6.5t1 8v8v8v7v176v7v8t-0.5 7.5t-1 7.5
t-2.5 6t-4 5.5t-5.5 3t-8.5 1.5q-17 0 -21.5 -8t-4.5 -27zM753 315v-224q0 -44 -30 -67.5t-79 -23.5q-101 0 -101 85v179q0 65 21.5 97.5t83.5 32.5q43 0 74 -20t31 -59zM624 297v-194q0 -15 0.5 -21.5t6.5 -13t19 -6.5q5 0 8.5 1.5t6 3.5t4 5.5t2.5 6.5t1 8v8v8v7v176v7v8
t-0.5 7.5t-1 7.5t-2.5 6t-4 5.5t-5.5 3t-8.5 1.5q-11 0 -17 -5t-7.5 -11.5t-1.5 -18.5zM179 -8h-48l233 728h48z" />
    <glyph glyph-name="guilsinglleft" unicode="&#x2039;" horiz-adv-x="185" 
d="M161 501v-122l-87 -93l87 -91v-127l-137 153v130z" />
    <glyph glyph-name="guilsinglright" unicode="&#x203a;" horiz-adv-x="185" 
d="M24 379v122l137 -150v-130l-137 -153v127l87 91z" />
    <glyph glyph-name="fraction" unicode="&#x2044;" horiz-adv-x="167" 
d="M334 720l-448 -728h-53l448 728h53z" />
    <glyph glyph-name="Euro" unicode="&#x20ac;" 
d="M48 116v155h-60l16 57h44v70h-60l16 57h44v141q0 61 39 94q36 30 107 30q40 0 75 -12t54 -35l-26 -87q-12 23 -36 37q-22 12 -48 12q-33 0 -47 -17q-12 -15 -12 -45v-118h113l-16 -57h-97v-70h84l-16 -57h-68v-130q0 -37 14 -51q15 -15 47 -15q27 0 50 11q26 11 48 35
v-95q-24 -16 -49 -24q-36 -12 -82 -12q-60 0 -94 29q-40 35 -40 97z" />
    <glyph glyph-name="afii61289" unicode="&#x2113;" horiz-adv-x="327" 
d="M284 145l35 -38q-43 -111 -125 -111q-127 0 -123 182v15q-5 -6 -17.5 -19.5t-17.5 -19.5l-22 54q40 43 57 69v268q0 115 34.5 173t87.5 58q41 0 62 -43t21 -120q0 -161 -116 -338v-63q0 -74 12.5 -106t40.5 -32q34 0 71 71zM160 523v-147q69 130 69 246q0 77 -32 77
q-37 0 -37 -176z" />
    <glyph glyph-name="trademark" unicode="&#x2122;" horiz-adv-x="990" 
d="M383 712v-70h-122v-342h-88v342h-122v70h332zM599 712l109 -281l107 281h124v-412h-82v314h-2l-117 -314h-62l-117 314h-2v-314h-82v412h124z" />
    <glyph glyph-name="Omega" unicode="&#x2126;" horiz-adv-x="403" 
d="M97 86v3q-68 130 -68 303q0 141 48.5 230.5t127.5 89.5q56 0 94.5 -46.5t55 -114.5t16.5 -149q0 -90 -20.5 -174.5t-48.5 -138.5v-3h78v-86h-154v61q23 38 36 116q16 85 16 197q0 106 -18 176.5t-59 70.5q-39 0 -59.5 -67.5t-20.5 -181.5q0 -102 16 -188.5t37 -122.5v-61
h-154v86h77z" />
    <glyph glyph-name="estimated" unicode="&#x212e;" horiz-adv-x="878" 
d="M843 346h-655q-5 0 -5 -4v-199q0 -12 8 -22q105 -108 248 -108q156 0 261 121h58q-55 -65 -139.5 -103t-180.5 -38q-167 0 -285.5 106t-118.5 257t118.5 257.5t285.5 106.5q168 0 286.5 -106.5t118.5 -257.5v-10zM694 372v199q0 14 -10 24q-105 103 -245 103
q-142 0 -247 -107q-9 -9 -9 -24v-195q0 -7 5 -7h502q4 0 4 7z" />
    <glyph glyph-name="partialdiff" unicode="&#x2202;" horiz-adv-x="376" 
d="M74 665l-24 85q51 49 114 49q73 0 125 -90t52 -282q0 -428 -180 -428q-60 0 -95 64t-35 164q0 123 43.5 196t101.5 73q52 0 74 -48h2v27q0 95 -28 165.5t-73 70.5q-41 0 -77 -46zM169 89h2q31 0 51.5 76.5t23.5 181.5q-13 63 -55 63q-32 0 -51 -56.5t-19 -133.5
q0 -131 48 -131z" />
    <glyph glyph-name="Delta" unicode="&#x2206;" horiz-adv-x="407" 
d="M22 0v61l134 654h103l126 -651v-64h-363zM110 83h186l-57 302q-4 24 -17 88.5t-16 91.5h-2q-3 -25 -15.5 -84t-16.5 -87z" />
    <glyph glyph-name="product" unicode="&#x220f;" horiz-adv-x="468" 
d="M444 607h-55v-704h-92v704h-127v-704h-92v704h-55v97h421v-97z" />
    <glyph glyph-name="summation" unicode="&#x2211;" horiz-adv-x="356" 
d="M342 -98h-321v74l154 330l-151 323v75h306v-85h-192v-4l137 -286l-157 -323v-4h224v-100z" />
    <glyph glyph-name="minus" unicode="&#x2212;" horiz-adv-x="500" 
d="M495 242h-490v88h490v-88z" />
    <glyph glyph-name="uni2215" unicode="&#x2215;" horiz-adv-x="167" 
d="M334 720l-448 -728h-53l448 728h53z" />
    <glyph glyph-name="uni2219" unicode="&#x2219;" horiz-adv-x="166" 
d="M30 286q0 22 15.5 37.5t37.5 15.5t38 -15.5t16 -37.5t-16 -38t-38 -16t-37.5 15.5t-15.5 38.5z" />
    <glyph glyph-name="radical" unicode="&#x221a;" horiz-adv-x="408" 
d="M399 848l-142 -986h-73l-94 447l-51 -19l-13 61l123 48l56 -291q2 -19 7.5 -54.5t6.5 -45.5l1 -2q10 102 10 104l108 738h61z" />
    <glyph glyph-name="infinity" unicode="&#x221e;" horiz-adv-x="603" 
d="M567 293v-1q0 -63 -37 -101t-88 -38q-38 0 -70 19t-68 69q-70 -88 -145 -88q-51 0 -87 37.5t-36 96.5q0 61 36.5 99t92.5 38q75 0 139 -87q24 28 36.5 41t42.5 29.5t63 16.5q52 0 86.5 -36.5t34.5 -94.5zM166 209h1q30 0 53 18.5t53 56.5q-22 31 -33 44.5t-32.5 27
t-44.5 13.5q-34 0 -52.5 -23t-18.5 -60q1 -33 22 -55t52 -22zM440 369h-1q-10 0 -19 -2.5t-18.5 -8.5t-16 -10.5t-16 -14.5t-13 -14t-13 -16t-10.5 -13q37 -47 58.5 -64t51.5 -17t49 24.5t19 53.5q0 37 -19 59.5t-52 22.5z" />
    <glyph glyph-name="integral" unicode="&#x222b;" horiz-adv-x="312" 
d="M279 858l-10 -74q-12 5 -21 5q-19 0 -34 -25q-18 -33 -18 -172q0 -80 4 -241.5t4 -251.5q0 -149 -26 -206q-27 -62 -98 -62q-34 0 -50 12l12 78q16 -7 26 -7q20 0 29 22q15 31 15 159q0 91 -4.5 256t-4.5 249q0 160 43 222q33 45 91 45q24 0 42 -9z" />
    <glyph glyph-name="approxequal" unicode="&#x2248;" horiz-adv-x="368" 
d="M307 419l36 -27q-12 -38 -37.5 -64t-56.5 -26q-33 0 -73 31q-37 28 -58 28q-14 0 -25.5 -10t-16.5 -19.5t-15 -29.5l-36 26q33 89 98 89q9 0 17.5 -1.5t14.5 -3.5t13.5 -6t11 -6.5t10 -6.5t7.5 -5q42 -29 56 -29q18 0 29 14.5t25 45.5zM307 274l36 -27q-13 -39 -38 -64
t-56 -25t-73 30q-39 29 -58 29q-20 0 -32 -15.5t-25 -44.5l-36 26q33 89 98 89q9 0 17.5 -1.5t14.5 -3.5t13.5 -6t11 -6.5t10 -6.5t7.5 -5q5 -3 16 -10.5t16 -10t12 -5.5t12 -3q18 0 29.5 15t24.5 45z" />
    <glyph glyph-name="notequal" unicode="&#x2260;" horiz-adv-x="368" 
d="M274 463l-26 -66h85v-60h-103l-40 -105h143v-60h-161l-31 -79l-44 14l25 65h-88v60h106l40 105h-146v60h164l31 80z" />
    <glyph glyph-name="lessequal" unicode="&#x2264;" horiz-adv-x="368" 
d="M331 114l-293 186v64l293 187v-73l-240 -144v-2l240 -145v-73zM335 18h-299v63h299v-63z" />
    <glyph glyph-name="greaterequal" unicode="&#x2265;" horiz-adv-x="368" 
d="M41 551l292 -187v-63l-292 -187v73l240 144v2l-240 145v73zM336 18h-299v63h299v-63z" />
    <glyph glyph-name="lozenge" unicode="&#x25ca;" horiz-adv-x="407" 
d="M370 351l-131 -385h-79l-122 385l130 387h80zM285 349l-64 224q-6 21 -13 72h-4q-8 -54 -13 -72l-69 -219l66 -229q5 -18 11 -68h5q4 36 12 66z" />
    </font>
</defs>
</svg>
