<?xml version="1.0" standalone="no"?>
<!DOCTYPE svg PUBLIC "-//W3C//DTD SVG 1.1//EN" "http://www.w3.org/Graphics/SVG/1.1/DTD/svg11.dtd" >
<svg xmlns="http://www.w3.org/2000/svg" xmlns:xlink="http://www.w3.org/1999/xlink" version="1.1">
<metadata>
Created by FontForge 20170731 at Fri May 12 16:55:17 2006
 By Aleksey,,,
Copyright (c) 1985, 1987, 1991, 1993, 1997, 1998, 1999, 2002 Adobe Systems Incorporated.  All Rights Reserved. (c) 1981, 1999, 2002 Heidelberger Druckmaschinen AG. All rights reserved.
</metadata>
<defs>
<font id="HelveticaLTStd-BoldCond" horiz-adv-x="500" >
  <font-face 
    font-family="Helvetica LT Std Cond"
    font-weight="700"
    font-stretch="condensed"
    units-per-em="1000"
    panose-1="2 11 7 6 3 5 2 3 2 4"
    ascent="718"
    descent="-282"
    x-height="564"
    cap-height="750"
    bbox="-169 -250 1091 991"
    underline-thickness="50"
    underline-position="-200"
    unicode-range="U+0020-FB02"
  />
<missing-glyph 
d="M0 0v700h500v-700h-500zM250 395l170 255h-340zM280 350l170 -255v510zM80 50h340l-170 255zM50 605v-510l170 255z" />
    <glyph glyph-name="fi" unicode="fi" 
d="M446 564v-564h-130v564h130zM446 750v-118h-130v118h130zM246 750v-104q-20 6 -29 6q-27 0 -27 -22v-66h56v-95h-56v-469h-130v469h-50v95h50v56q0 74 31.5 102t105.5 28h49z" />
    <glyph glyph-name="fl" unicode="fl" 
d="M443 750v-750h-130v750h130zM60 469h-50v95h50v56q0 74 31.5 102t105.5 28h49v-104q-20 6 -29 6q-27 0 -27 -22v-66h56v-95h-56v-469h-130v469z" />
    <glyph glyph-name=".notdef" 
d="M0 0v700h500v-700h-500zM250 395l170 255h-340zM280 350l170 -255v510zM80 50h340l-170 255zM50 605v-510l170 255z" />
    <glyph glyph-name=".null" horiz-adv-x="0" 
 />
    <glyph glyph-name="nonmarkingreturn" horiz-adv-x="333" 
 />
    <glyph glyph-name="space" unicode=" " horiz-adv-x="250" 
 />
    <glyph glyph-name="exclam" unicode="!" horiz-adv-x="333" 
d="M101 540v210h130v-210q3 -64 -6 -173q-2 -20 -5 -54.5t-5.5 -63.5t-4.5 -55h-85q-1 26 -3.5 54.5t-6 63.5l-5.5 55q-10 99 -9 173zM232 0h-130v132h130v-132z" />
    <glyph glyph-name="quotedbl" unicode="&#x22;" horiz-adv-x="333" 
d="M318 468h-119v271h119v-271zM135 468h-119v271h119v-271z" />
    <glyph glyph-name="numbersign" unicode="#" 
d="M445 331v-98h-86l-29 -233h-85l28 233h-72l-29 -233h-84l28 233h-85v98h98l11 92h-84v98h95l27 217h83l-26 -217h73l26 217h86l-27 -217h76v-98h-88l-11 -92h75zM296 423h-72l-11 -92h71z" />
    <glyph glyph-name="dollar" unicode="$" 
d="M279 287v-202q60 18 60 94q0 34 -19 64t-41 44zM218 85v223q-86 57 -112 84q-61 61 -61 162q0 72 42 123.5t128 62.5v63h68v-63q78 -9 119.5 -46.5t43.5 -91.5q0 -5 2.5 -28t1.5 -35h-116q0 45 -11 68.5t-44 32.5v-199q186 -95 187 -231q2 -104 -41.5 -157.5
t-141.5 -67.5v-109h-68v106q-100 9 -143 72.5t-37 167.5h120q1 -73 10 -94q13 -33 53 -43zM218 461v179q-25 -4 -39 -25t-14 -50q0 -23 9 -44t16.5 -30t27.5 -30z" />
    <glyph glyph-name="percent" unicode="%" horiz-adv-x="833" 
d="M184 736q52 0 85 -14t47.5 -43t18.5 -56t4 -70t-4 -70t-18.5 -56t-47.5 -43t-85 -14q-42 0 -71 10.5t-45 26t-24.5 42t-10.5 48.5t-2 56t2 56t10.5 48.5t24.5 42t45 26t71 10.5zM186 663q-21 0 -33.5 -7t-18 -24t-6.5 -32.5t-1 -46.5t1 -46.5t6.5 -32.5t18 -24t33.5 -7
q17 0 28 5.5t17 13t8.5 24.5t3 29t0.5 38t-0.5 38t-3 29t-8.5 24.5t-17 13t-28 5.5zM649 366q52 0 85 -14t47 -43.5t18 -56t4 -69.5t-4 -69.5t-18 -56t-47 -43.5t-85 -14q-42 0 -71 10.5t-45 26t-24.5 42t-10.5 48.5t-2 56t2 56t10.5 48.5t24.5 42t45 26t71 10.5zM650 293
q-17 0 -28.5 -5.5t-17 -13t-8.5 -24.5t-3.5 -29t-0.5 -38t0.5 -38t3.5 -29t8.5 -24.5t17 -13t28.5 -5.5t28 5.5t17 13t8.5 24.5t3 29t0.5 38t-0.5 38t-3 29t-8.5 24.5t-17 13t-28 5.5zM280 -15h-71l336 765h70z" />
    <glyph glyph-name="ampersand" unicode="&#x26;" horiz-adv-x="667" 
d="M306 518q58 46 58 91q0 25 -15 41.5t-35 17.5t-34 -11.5t-14 -37.5q0 -16 6 -32.5t18.5 -39.5t15.5 -29zM363 425l94 -163q20 62 23 137h111q0 -139 -66 -252l90 -150h-150l-27 50q-68 -65 -175 -65q-86 0 -143 65t-57 161q0 78 35.5 132t106.5 104q-19 33 -29 52.5
t-20 50.5t-10 59q0 82 51 122t122 40q63 0 110.5 -43t47.5 -113q0 -117 -114 -187zM385 136l-121 207q-25 -10 -51 -49t-19 -84q7 -46 33 -80.5t67 -34.5q45 0 91 41z" />
    <glyph glyph-name="quotesingle" unicode="'" horiz-adv-x="250" 
d="M185 468h-119v271h119v-271z" />
    <glyph glyph-name="parenleft" unicode="(" horiz-adv-x="333" 
d="M198 768h81q-50 -97 -72.5 -206t-22.5 -299q0 -140 20.5 -239.5t76.5 -221.5h-83q-84 142 -115 244.5t-31 257.5q0 264 146 464z" />
    <glyph glyph-name="parenright" unicode=")" horiz-adv-x="333" 
d="M135 -198h-81q50 97 72.5 206t22.5 299q0 140 -20.5 239.5t-76.5 221.5h83q84 -142 115 -244.5t31 -257.5q0 -264 -146 -464z" />
    <glyph glyph-name="asterisk" unicode="*" 
d="M382 461l-66 -48l-54 77q-1 2 -3 4.5t-3.5 5t-2.5 5.5q-1 -3 -12 -19l-54 -74l-66 47l55 76q5 7 11 14q-4 1 -10 3t-10 3l-88 28l24 76l89 -28l18 -6q-1 6 -1 20v93h80v-93q0 -12 -1 -18l21 7l86 29l27 -78l-90 -27q-12 -4 -18 -4q9 -9 14 -18z" />
    <glyph glyph-name="plus" unicode="+" 
d="M195 304v188h110v-188h170v-110h-170v-194h-110v194h-169v110h169z" />
    <glyph glyph-name="comma" unicode="," horiz-adv-x="333" 
d="M101 -145v44q35 4 53.5 32t16.5 69h-70v132h132v-129q0 -131 -132 -148z" />
    <glyph glyph-name="hyphen" unicode="-" horiz-adv-x="333" 
d="M286 255h-238v115h238v-115z" />
    <glyph glyph-name="period" unicode="." horiz-adv-x="333" 
d="M233 0h-132v132h132v-132z" />
    <glyph glyph-name="slash" unicode="/" horiz-adv-x="278" 
d="M-11 -94l236 844h87l-236 -844h-87z" />
    <glyph glyph-name="zero" unicode="0" 
d="M188 538v-337q-5 -106 61 -106q69 0 64 106v337q5 105 -64 105q-66 0 -61 -105zM48 201v337q0 115 51.5 165t151.5 50q99 0 150.5 -50t51.5 -165v-337q0 -115 -51.5 -165.5t-151.5 -50.5q-99 0 -150.5 50.5t-51.5 165.5z" />
    <glyph glyph-name="one" unicode="1" 
d="M213 0v520h-169v100q81 1 133.5 29.5t72.5 100.5h103v-750h-140z" />
    <glyph glyph-name="two" unicode="2" 
d="M442 0h-410q2 66 12 127q15 87 132 211l68 72q29 31 39.5 45t20 39.5t9.5 59.5q0 89 -67 89q-52 0 -65 -37q-5 -12 -7.5 -26t-3 -26.5t-0.5 -27v-26.5h-131v21q0 22 0.5 34t4 40.5t11 46t23 41t37.5 37.5t57.5 23.5t79.5 9.5q90 -1 145.5 -53t55.5 -141q0 -114 -89 -205
l-110 -114q-72 -74 -73 -130h261v-110z" />
    <glyph glyph-name="three" unicode="3" 
d="M171 346v110q7 1 21.5 1t23.5 0.5t21.5 3t21.5 6.5q43 20 43 92q0 84 -67 84q-65 0 -67 -59v-53h-131q-6 107 43 164.5t154 57.5q103 0 153.5 -50.5t50.5 -142.5q0 -57 -24 -102t-74 -53v-2q52 -6 83 -52.5t30 -129.5q0 -236 -218 -236q-213 0 -207 220v44h131
q0 -7 0.5 -32t1.5 -36.5t5.5 -31t12 -29t23 -17.5t36.5 -8q22 0 37 9t22.5 19.5t11 34.5t4 36.5t0.5 42.5q0 60 -16 79q-25 30 -126 30z" />
    <glyph glyph-name="four" unicode="4" 
d="M126 262h140v304h-2zM250 738h156v-476h64v-110h-64v-152h-140v152h-243v110z" />
    <glyph glyph-name="five" unicode="5" 
d="M168 345h-124l19 393h361v-110h-253l-9 -160q25 24 49 33t60 9q58 0 97.5 -22.5t58 -63.5t25 -81t6.5 -92q0 -134 -46.5 -200t-160.5 -66q-123 0 -169 58t-45 193h131q0 -4 0.5 -24t1 -27.5t3 -24.5t7 -25.5t11.5 -19t19 -15t28 -5.5q27 -2 44.5 9.5t24 33.5t8.5 44.5
t3 52.5v17q4 84 -17 116t-63 32q-27 0 -47 -15.5t-23 -39.5z" />
    <glyph glyph-name="six" unicode="6" 
d="M182 260q-1 -23 -0.5 -45t2 -41t6 -34t12 -26t21 -16t31.5 -3q24 0 38 8.5t19.5 32.5t6.5 40t1 58v26v16.5v18.5t-0.5 17.5t-2 18.5t-3.5 16.5t-5.5 15.5t-8.5 12.5t-12 11t-16 6t-20 2.5q-17 0 -29 -5t-19.5 -16.5t-12 -22t-6 -29.5t-2 -30t-0.5 -32zM42 270v180
q0 173 50.5 238t166.5 65q87 0 137.5 -42t47.5 -127h-130q-1 13 -2.5 21t-6.5 19t-18 15.5t-33 3.5q-16 -1 -28.5 -6.5t-20.5 -16.5t-13 -19.5t-7 -26t-3 -24.5t-1.5 -26t-0.5 -21v-48q17 17 25.5 24.5t31.5 16.5t53 9q88 0 128.5 -58.5t40.5 -176.5q0 -148 -45 -216.5
t-162 -68.5q-119 0 -165.5 71.5t-44.5 213.5z" />
    <glyph glyph-name="seven" unicode="7" 
d="M32 628v110h422v-101q-88 -157 -140 -363q-39 -149 -44 -274h-144q13 190 119 458q41 102 86 170h-299z" />
    <glyph glyph-name="eight" unicode="8" 
d="M181 208q0 -29 1.5 -45t8 -33.5t21.5 -25.5t40 -9q20 1 33.5 9.5t20 18t10 28.5t4 31.5t0.5 37.5q0 26 -1 41.5t-4.5 35t-11 30t-21 18t-32.5 7.5q-20 0 -33.5 -7.5t-20.5 -16.5t-10.5 -30t-4 -34.5t-0.5 -43.5v-12zM251 452q21 0 34.5 9.5t19 28t7 33t1.5 36.5
q0 84 -60 84q-65 0 -65 -94q0 -28 3.5 -46.5t18 -34.5t41.5 -16zM146 406q-48 26 -68 62t-20 112q0 69 48 121t146 52q102 0 146.5 -47.5t44.5 -145.5q0 -63 -20 -98.5t-75 -57.5v-2q62 -13 87 -58.5t25 -130.5q0 -120 -52.5 -174t-152.5 -54q-116 0 -165 55t-49 172
q0 82 23.5 125t81.5 69z" />
    <glyph glyph-name="nine" unicode="9" 
d="M319 478q1 23 0.5 45t-2 41t-6 34t-12 26t-21 16t-31.5 3q-24 0 -38 -8.5t-19.5 -32.5t-6.5 -40t-1 -58v-26v-16.5v-18.5t0.5 -17.5t2 -18.5t3.5 -16.5t5.5 -15.5t8.5 -12.5t12 -11t16 -6t20 -2.5q17 0 29 5t19.5 16.5t12 22t6 29.5t2 30t0.5 32zM459 468v-180
q0 -173 -50 -238t-166 -65q-87 0 -137.5 42t-47.5 127h130q1 -13 2.5 -21t7 -18.5t18.5 -15.5t33 -4q16 0 28.5 5t20 15.5t12.5 20t7.5 26t3 25.5t1 26.5t0.5 21.5v48q-17 -17 -25.5 -24.5t-31.5 -16.5t-53 -9q-88 0 -129 58.5t-41 176.5q0 148 45.5 216.5t162.5 68.5
q119 0 165 -71.5t44 -213.5z" />
    <glyph glyph-name="colon" unicode=":" horiz-adv-x="278" 
d="M205 424h-132v132h132v-132zM205 0h-132v132h132v-132z" />
    <glyph glyph-name="semicolon" unicode=";" horiz-adv-x="278" 
d="M73 -145v44q35 4 53.5 32t16.5 69h-70v132h132v-129q0 -131 -132 -148zM205 424h-132v132h132v-132z" />
    <glyph glyph-name="less" unicode="&#x3c;" 
d="M162 249l297 -162v-111l-417 225v99l417 227v-111z" />
    <glyph glyph-name="equal" unicode="=" 
d="M475 401v-110h-449v110h449zM475 206v-110h-449v110h449z" />
    <glyph glyph-name="greater" unicode="&#x3e;" 
d="M42 87l297 162l-297 167v111l417 -227v-99l-417 -225v111z" />
    <glyph glyph-name="question" unicode="?" 
d="M176 553h-124q-6 108 45 161.5t150 53.5q89 0 141 -50t52 -136q0 -54 -15.5 -89.5t-53.5 -83.5q-12 -12 -34.5 -37.5t-34.5 -38.5q-36 -44 -36 -132h-117q-1 23 3 69q2 34 14 63t23.5 45.5t36.5 46.5t37 46q23 32 31 53.5t8 58.5q0 43 -13.5 62t-43.5 19q-42 0 -56 -23
q-7 -12 -9.5 -26t-2.5 -34t-1 -28zM147 130h127v-130h-127v130z" />
    <glyph glyph-name="at" unicode="@" horiz-adv-x="833" 
d="M654 148h96q-57 -79 -136 -122.5t-173 -43.5q-169 0 -286 113.5t-117 282.5q0 166 115 278t282 112q146 0 244 -84q116 -98 116 -232q0 -130 -80 -213q-33 -33 -85.5 -60.5t-94.5 -27.5q-20 0 -34 17.5t-8 45.5l-2 2q-64 -61 -123 -61q-77 0 -123 52.5t-46 131.5
q0 96 59.5 167t152.5 71q84 0 127 -61l11 53h98l-53 -308q-3 -13 3.5 -18.5t16.5 -2.5q29 9 68 64q12 17 23 51.5t12 67.5q4 125 -76 198t-209 73q-138 0 -227 -89t-89 -227q0 -143 95 -232.5t238 -89.5q104 0 205 92zM504 370q4 49 -17 83.5t-65 30.5q-46 -4 -78 -41
t-35 -86q-3 -47 17.5 -75.5t53.5 -33.5q52 -8 86 32.5t38 89.5z" />
    <glyph glyph-name="A" unicode="A" horiz-adv-x="556" 
d="M159 0h-150l179 750h189l170 -750h-150l-37 190h-164zM260 513l-42 -213h120l-38 213q-5 25 -14 104q-1 19 -5 50h-2q-4 -31 -5 -50q-9 -79 -14 -104z" />
    <glyph glyph-name="B" unicode="B" horiz-adv-x="556" 
d="M205 110h30q66 0 84 8q43 19 43 104q0 64 -20.5 89.5t-82.5 25.5h-54v-227zM205 447h26q27 0 38 0.5t31.5 6.5t30.5 19q15 22 15 81q0 45 -15 65t-61 21h-65v-193zM312 0h-247v750h226q56 0 94 -10.5t65 -44.5q37 -47 37 -135q0 -124 -90 -157v-2q109 -15 109 -174
q0 -55 -10 -92q-23 -71 -66 -103t-118 -32z" />
    <glyph glyph-name="C" unicode="C" horiz-adv-x="556" 
d="M371 267h141q0 -7 -1 -21.5t-2 -21.5q-6 -114 -53 -178t-156 -64q-48 0 -85.5 9t-63.5 24t-44 41t-28 51.5t-15.5 65t-7 73t-1.5 82.5v107q2 48 4 79t8 70t16.5 63t28 49.5t43 39.5t62 23t83.5 9q190 -3 205 -194q4 -38 3 -57h-138q-1 7 -2.5 26.5t-3 31t-6 29t-11 27
t-18.5 17t-29 7.5q-16 0 -29.5 -4t-23.5 -9.5t-17.5 -17t-12.5 -19t-8.5 -24t-5.5 -23.5t-3 -26t-1 -23.5v-23.5v-19v-208q0 -31 2.5 -53t11.5 -50.5t31 -44t56 -15.5q18 0 31.5 10t20.5 23t11 35.5t5 37t2 37.5t1 29z" />
    <glyph glyph-name="D" unicode="D" horiz-adv-x="611" 
d="M212 110h61q32 0 53.5 5t36.5 20.5t23.5 33.5t13 54.5t5.5 72t1 97.5q0 138 -20.5 192.5t-81.5 54.5h-92v-530zM331 0h-259v750h292q35 0 75.5 -19t69.5 -66q41 -67 41 -259q0 -43 -0.5 -65.5t-2.5 -63t-6 -65t-12.5 -58t-20.5 -55.5t-30.5 -43.5t-42.5 -35.5
q-34 -20 -104 -20z" />
    <glyph glyph-name="E" unicode="E" 
d="M458 0h-394v750h394v-110h-254v-189h234v-110h-234v-231h254v-110z" />
    <glyph glyph-name="F" unicode="F" 
d="M213 0h-140v750h397v-110h-257v-190h241v-110h-241v-340z" />
    <glyph glyph-name="G" unicode="G" horiz-adv-x="611" 
d="M55 328v107q2 48 4 79t8 70t16.5 63t28 49.5t43 39.5t62 23t83.5 9q98 -1 155 -35.5t80 -126.5q5 -20 7 -91h-140q-1 28 -2.5 44t-7 36.5t-16 31t-29.5 19t-47 9.5q-16 0 -29.5 -4t-23.5 -9.5t-17.5 -17t-12.5 -19t-8.5 -24t-5.5 -23.5t-3 -26t-1 -23.5v-23.5v-19v-208
q0 -31 2.5 -53t11.5 -50.5t31 -44t56 -15.5q108 0 103 198h-97v110h233v-403h-105v86h-2q-35 -96 -132 -104q-48 0 -85.5 9t-63.5 24t-44 41t-28 51.5t-15.5 65t-7 73t-1.5 82.5z" />
    <glyph glyph-name="H" unicode="H" horiz-adv-x="611" 
d="M208 0h-140v750h140v-297h196v297h140v-750h-140v343h-196v-343z" />
    <glyph glyph-name="I" unicode="I" horiz-adv-x="278" 
d="M209 0h-140v750h140v-750z" />
    <glyph glyph-name="J" unicode="J" horiz-adv-x="444" 
d="M8 238h140v-93q2 -50 45 -50q18 0 29 6t15.5 19t5.5 23.5t1 30.5v576h140v-547v-15.5v-17.5t-0.5 -17t-1 -19t-2 -18t-3.5 -19t-5 -17t-7 -17.5t-9.5 -16t-12.5 -15.5q-28 -30 -69 -39.5t-102 -9.5q-94 0 -144 77q-12 20 -17.5 72.5t-2.5 106.5z" />
    <glyph glyph-name="K" unicode="K" horiz-adv-x="556" 
d="M208 0h-140v750h140v-333h2q22 59 88 180l82 153h158l-185 -322l194 -428h-158l-132 296l-49 -81v-215z" />
    <glyph glyph-name="L" unicode="L" 
d="M468 0h-400v750h140v-640h260v-110z" />
    <glyph glyph-name="M" unicode="M" horiz-adv-x="778" 
d="M207 236v-236h-140v750h223l75 -348q16 -76 26 -173h2q11 122 22 173l75 348h222v-750h-140v236q0 248 12 447h-2l-150 -683h-85l-147 683h-5q12 -199 12 -447z" />
    <glyph glyph-name="N" unicode="N" horiz-adv-x="611" 
d="M403 603v147h140v-750h-146l-109 267q-51 122 -100 298h-2q11 -133 15 -214q7 -131 7 -210v-141h-140v750h145l109 -273q52 -125 100 -298h2q-9 121 -14 213q-7 126 -7 211z" />
    <glyph glyph-name="O" unicode="O" horiz-adv-x="611" 
d="M61 328v107q2 48 4 79t8 70t16.5 63t28 49.5t43 39.5t62 23t83.5 9t83.5 -9t62 -23t43 -39.5t28 -49.5t16.5 -63t8 -70t4 -79v-107q0 -49 -1.5 -82.5t-7 -73t-15.5 -65t-28 -51.5t-44 -41t-63.5 -24t-85.5 -9t-85.5 9t-63.5 24t-44 41t-28 51.5t-15.5 65t-7 73t-1.5 82.5
zM205 466v-208q0 -31 2.5 -53t11.5 -50.5t31 -44t56 -15.5q29 0 49 12t30 28t15 43.5t6 45t1 46.5v192q0 25 -0.5 36t-2.5 39.5t-8.5 44.5t-17 35.5t-29 28.5t-43.5 9q-16 0 -29.5 -4t-23.5 -9.5t-17.5 -17t-12.5 -19t-8.5 -24t-5.5 -23.5t-3 -26t-1 -23.5v-23.5v-19z" />
    <glyph glyph-name="P" unicode="P" horiz-adv-x="556" 
d="M208 640v-216h75q49 0 75.5 26t26.5 91q0 61 -25 80t-88 19h-64zM208 0h-140v750h286q48 0 83.5 -18t54.5 -49.5t28 -67.5t9 -78q0 -123 -70 -178q-59 -47 -157 -45h-94v-314z" />
    <glyph glyph-name="Q" unicode="Q" horiz-adv-x="611" 
d="M587 -5l-71 -66l-78 76q-46 -23 -132 -23q-48 0 -85.5 9t-63.5 24t-44 41t-28 51.5t-15.5 65t-7 73t-1.5 82.5v107q2 48 4 79t8 70t16.5 63t28 49.5t43 39.5t62 23t83.5 9t83.5 -9t62 -23t43 -39.5t28 -49.5t16.5 -63t8 -70t4 -79v-107q0 -190 -41 -256zM315 126l76 64
l7 -7q8 37 8 75l1 208v19v23.5t-1 23.5t-3 26t-5.5 23.5t-8.5 24t-12.5 19t-17.5 17t-23.5 9.5t-29.5 4t-29.5 -4t-23.5 -9.5t-17.5 -17t-12.5 -19t-8.5 -24t-5.5 -23.5t-3 -26t-1 -23.5v-23.5v-19v-208q0 -31 2.5 -53t11.5 -50.5t31 -44t56 -15.5q19 0 36 5z" />
    <glyph glyph-name="R" unicode="R" horiz-adv-x="611" 
d="M231 323h-25v-323h-140v750h265q213 0 213 -180q0 -165 -115 -181v-2q108 -14 108 -136q0 -218 30 -237v-14h-154q-6 17 -9.5 45.5t-4 46.5t-1 56.5t-0.5 41.5q-1 23 -1 30t-2.5 28t-7 30t-14 20t-23.5 15q-35 10 -119 10zM206 640v-207h110q82 5 82 108q0 58 -21.5 78
t-66.5 21h-104z" />
    <glyph glyph-name="S" unicode="S" horiz-adv-x="556" 
d="M489 522h-135q0 30 -2 50t-9.5 41t-25 31.5t-45.5 10.5q-77 0 -77 -70q0 -27 12.5 -48t25.5 -31t42 -28q124 -78 170 -123q35 -34 49 -70.5t14 -86.5q0 -104 -62.5 -160t-168.5 -56q-228 0 -228 228v55h140v-44q-5 -126 88 -126q87 0 87 88q0 60 -56 99q-24 19 -73 50.5
t-86 60.5t-62 62q-36 53 -36 115q0 198 220 198q61 0 105 -18.5t65 -42t32.5 -61.5t13.5 -60.5t2 -55.5v-8z" />
    <glyph glyph-name="T" unicode="T" 
d="M17 640v110h467v-110h-163v-640h-140v640h-164z" />
    <glyph glyph-name="U" unicode="U" horiz-adv-x="611" 
d="M404 239v511h140v-523q0 -129 -52 -187t-185 -58q-134 0 -186.5 58t-52.5 187v523h140v-511q0 -33 2.5 -54t11.5 -44t30.5 -34.5t55.5 -11.5q26 0 44.5 8.5t28.5 21t15.5 33.5t6.5 38t1 43z" />
    <glyph glyph-name="V" unicode="V" horiz-adv-x="556" 
d="M307 269l79 481h150l-162 -750h-187l-166 750h150l88 -481q10 -52 17 -128q6 -60 6 -62h2q0 2 6 62q7 76 17 128z" />
    <glyph glyph-name="W" unicode="W" horiz-adv-x="833" 
d="M475 750l75 -388q7 -39 31 -267h2q1 9 2.5 27t2.5 27q9 115 21 192l56 409h145l-139 -750h-168l-56 296q-7 35 -12 75t-10 89t-8 75h-2q-3 -26 -8 -75t-10 -89t-12 -75l-50 -296h-168l-143 750h145l63 -409q12 -77 21 -192q2 -18 4 -54h2q3 29 9 89.5t11.5 102t11.5 75.5
l68 388h116z" />
    <glyph glyph-name="X" unicode="X" horiz-adv-x="556" 
d="M359 380l186 -380h-160l-80 183q-20 47 -29 95h-2q-5 -44 -48 -140l-62 -138h-153l184 380l-177 370h157l76 -170q26 -62 27 -94h3q1 14 4 28t9 30t9.5 25t12.5 28.5t11 25.5l54 127h158z" />
    <glyph glyph-name="Y" unicode="Y" horiz-adv-x="556" 
d="M165 750l79 -197q25 -62 33 -115h2q9 49 46 142l67 170h153l-198 -431v-319h-140v319l-195 431h153z" />
    <glyph glyph-name="Z" unicode="Z" 
d="M33 0v112l241 465q30 55 39 66q-18 -3 -54 -3h-210v110h410v-112l-241 -465q-30 -55 -39 -66q18 3 54 3h235v-110h-435z" />
    <glyph glyph-name="bracketleft" unicode="[" horiz-adv-x="333" 
d="M280 -94h-199v844h199v-76h-89v-692h89v-76z" />
    <glyph glyph-name="backslash" unicode="\" horiz-adv-x="250" 
d="M51 750l236 -844h-87l-236 844h87z" />
    <glyph glyph-name="bracketright" unicode="]" horiz-adv-x="333" 
d="M53 750h199v-844h-199v76h89v692h-89v76z" />
    <glyph glyph-name="asciicircum" unicode="^" 
d="M114 326l-104 47l180 377h120l180 -377l-104 -47l-136 279z" />
    <glyph glyph-name="underscore" unicode="_" 
d="M500 -125h-500v50h500v-50z" />
    <glyph glyph-name="grave" unicode="`" horiz-adv-x="333" 
d="M1 775h155l94 -146h-101z" />
    <glyph glyph-name="a" unicode="a" 
d="M440 0h-123q-11 23 -8 58h-2q-24 -37 -52 -54q-30 -19 -62 -19q-78 0 -114.5 41t-36.5 128q0 44 12 75.5t43.5 55t52.5 34.5t71 31q3 2 5 2.5t4.5 1.5t4.5 2q42 18 57 39t7 55q-4 18 -18 23.5t-43 5.5q-41 0 -55 -20t-13 -62h-124q-1 89 41 135.5t156 46.5q51 0 87.5 -11
t55.5 -26t29.5 -39.5t12.5 -44t1 -46.5v-333q0 -38 11 -79zM299 236v61q-10 -7 -31.5 -21t-40 -26.5t-33.5 -24.5q-22 -19 -22 -68q0 -72 61 -72q22 0 36 9.5t20 29.5t7.5 34.5t2 42.5t0.5 35z" />
    <glyph glyph-name="b" unicode="b" 
d="M194 354v-169q0 -100 63 -100q52 0 57 97v188q0 7 -1 23.5t-2 23l-3 19.5t-5.5 18.5t-9.5 12.5t-15.5 9.5t-22.5 2.5q-67 0 -61 -125zM64 0v750h130v-180q0 -10 -1.5 -31t-1.5 -32h2q19 40 46.5 56.5t69.5 15.5q67 -2 100 -45.5t35 -154.5v-204q-6 -190 -135 -190
q-43 2 -70.5 18.5t-48.5 56.5h-2v-60h-124z" />
    <glyph glyph-name="c" unicode="c" horiz-adv-x="444" 
d="M403 368h-130v63q-3 48 -45 48q-18 0 -29 -9t-15 -29.5t-4.5 -37.5t-0.5 -50v-133q-2 -80 8 -105.5t41 -29.5q19 0 29 14t11.5 25.5t4.5 43.5v52h130v-52q0 -91 -42 -137t-136 -46q-183 0 -176 211v183q-1 110 46 155t130 45q92 0 135.5 -48t42.5 -118v-45z" />
    <glyph glyph-name="d" unicode="d" 
d="M303 185v169q6 125 -61 125q-13 0 -22.5 -2.5t-15.5 -9.5t-9.5 -12.5t-5.5 -18.5l-3 -19.5t-2 -23t-1 -23.5v-188q5 -97 57 -97q63 0 63 100zM303 0v60h-2q-18 -40 -44.5 -56.5t-67.5 -18.5q-130 0 -136 190v204q2 111 35.5 154.5t100.5 45.5q42 1 69.5 -15.5t46.5 -56.5
h2q-4 23 -4 50v193h130v-750h-130z" />
    <glyph glyph-name="e" unicode="e" 
d="M53 222v148q-5 100 44.5 154.5t145.5 54.5q53 0 90 -11.5t58.5 -30.5t33 -53t15 -67.5t3.5 -85.5v-76h-260v-82q1 -52 18 -70t50 -18q35 0 48.5 25.5t11.5 80.5h130q8 -206 -180 -206q-112 0 -161 56t-47 181zM183 355h130v49q-1 43 -15 59t-53 16q-19 0 -31.5 -6.5
t-18.5 -13t-9 -25t-3 -25.5v-31v-23z" />
    <glyph glyph-name="f" unicode="f" horiz-adv-x="278" 
d="M71 469h-50v95h50v56q0 74 31.5 102t105.5 28h49v-104q-20 6 -29 6q-27 0 -27 -22v-66h56v-95h-56v-469h-130v469z" />
    <glyph glyph-name="g" unicode="g" 
d="M303 354q6 125 -61 125q-13 0 -22.5 -2.5t-15.5 -9.5t-9.5 -12.5t-5.5 -18.5l-3 -19.5t-2 -23t-1 -23.5v-188q5 -97 57 -97q63 0 63 100v169zM59 -63h130q0 -17 15 -25q13 -8 40 -8q65 0 65 88v65l-2 2q-19 -39 -47 -55.5t-72 -18.5q-129 0 -135 189v204q2 111 35 155
t100 46q87 1 113 -73h2v58h130v-547q0 -47 -8 -81.5t-29.5 -64.5t-65 -45.5t-107.5 -15.5q-155 0 -164 127z" />
    <glyph glyph-name="h" unicode="h" 
d="M191 0h-130v750h130v-244h2q41 73 117 73q60 0 96.5 -36t33.5 -108v-435h-130v386q0 47 -10.5 69.5t-44.5 23.5q-35 1 -50.5 -27.5t-13.5 -76.5v-375z" />
    <glyph glyph-name="i" unicode="i" horiz-adv-x="278" 
d="M204 0h-130v564h130v-564zM204 632h-130v118h130v-118z" />
    <glyph glyph-name="j" unicode="j" horiz-adv-x="278" 
d="M31 -190v100q25 -2 36.5 4t11.5 26v624h130v-567q0 -5 0.5 -31t0 -36t-3 -32t-8 -33.5t-16.5 -25t-26 -20.5q-35 -17 -125 -9zM209 632h-130v118h130v-118z" />
    <glyph glyph-name="k" unicode="k" horiz-adv-x="444" 
d="M178 0h-130v750h130v-339q0 -23 -2 -71h2l123 224h142l-142 -227l138 -337h-145l-81 230l-35 -58v-172z" />
    <glyph glyph-name="l" unicode="l" horiz-adv-x="278" 
d="M204 0h-130v750h130v-750z" />
    <glyph glyph-name="m" unicode="m" horiz-adv-x="778" 
d="M196 564v-58h2q32 69 124 73q41 1 77.5 -17.5t42.5 -55.5h2q37 73 130 73q68 0 103 -35.5t35 -84.5v-459h-130v381q0 31 -3 50t-17.5 34t-41.5 14q-39 -2 -52.5 -28t-13.5 -80v-371h-130v388q0 22 -1.5 36t-7.5 28t-19.5 20.5t-35.5 6.5q-42 -1 -53 -26.5t-11 -81.5v-371
h-130v564h130z" />
    <glyph glyph-name="n" unicode="n" 
d="M191 564v-58h2q33 73 117 73q60 0 96.5 -36t33.5 -108v-435h-130v376q0 47 -10.5 69.5t-44.5 23.5q-35 1 -50.5 -27.5t-13.5 -76.5v-365h-130v564h130z" />
    <glyph glyph-name="o" unicode="o" 
d="M183 372v-188q0 -57 12.5 -78t56.5 -21q42 0 53.5 21t11.5 78v188q0 21 -0.5 32t-4 28t-9.5 25.5t-19 15t-32 6.5q-20 0 -33.5 -6.5t-20.5 -15t-10.5 -25.5t-4 -28t-0.5 -32zM252 -15q-64 -1 -103.5 13.5t-60.5 51t-28 85t-7 127.5q0 41 0.5 62.5t2.5 55t5.5 51
t10.5 42.5t17 38t24.5 28.5t34.5 22.5t46 12t58 5q29 0 52.5 -3t42 -11.5t32.5 -17t24.5 -25t18 -29t12 -37t7.5 -40.5t4 -47.5t1.5 -50t0.5 -56.5q1 -157 -37 -218t-158 -59z" />
    <glyph glyph-name="p" unicode="p" 
d="M188 354v-169q0 -100 63 -100q52 0 57 97v188q0 7 -1 23.5t-2 23l-3 19.5t-5.5 18.5t-9.5 12.5t-15.5 9.5t-22.5 2.5q-67 0 -61 -125zM188 564v-59h2q18 40 45 57.5t68 16.5q67 -2 100 -46.5t35 -155.5v-204q-6 -188 -135 -188q-42 2 -69 17.5t-50 55.5h-2v-247h-124v753
h130z" />
    <glyph glyph-name="q" unicode="q" 
d="M300 185v169q6 125 -61 125q-13 0 -22.5 -2.5t-15.5 -9.5t-9.5 -12.5t-5.5 -18.5l-3 -19.5t-2 -23t-1 -23.5v-188q5 -97 57 -97q63 0 63 100zM430 564v-752h-130v248h-2q-18 -40 -44.5 -56.5t-68.5 -18.5q-129 0 -135 190v204q2 111 35 154.5t100 45.5q42 1 68.5 -15.5
t44.5 -56.5h2v57h130z" />
    <glyph glyph-name="r" unicode="r" horiz-adv-x="333" 
d="M185 564v-100h2q22 55 51 80q7 6 13.5 10.5t12 7.5t12 5t10 3t9.5 2t8 1t8.5 0.5t7.5 0.5v-154q-126 12 -129 -94v-326h-130v564h125z" />
    <glyph glyph-name="s" unicode="s" horiz-adv-x="444" 
d="M29 186h130q-4 -37 0 -59.5t16 -30.5t19.5 -9.5t24.5 -1.5q28 0 44.5 18t9.5 45q-1 9 -4.5 17t-12 16t-14 12t-18 12t-15.5 10l-71 49q-107 74 -107 178q0 65 50.5 101t143.5 36q186 0 181 -187h-130q2 47 -12 67t-48 20q-55 0 -55 -46q0 -15 8.5 -28t15.5 -19t25 -18
l106 -72q28 -16 57 -50t32 -61q22 -200 -193 -200q-31 0 -60.5 8t-61.5 27.5t-49 62t-12 103.5z" />
    <glyph glyph-name="t" unicode="t" horiz-adv-x="278" 
d="M252 100v-102q-24 -3 -41 -4t-40.5 -0.5t-40 6t-32 15.5t-23.5 28.5t-8 43.5v382h-53v95h52v155h131v-155h55v-95h-55v-350q3 -25 55 -19z" />
    <glyph glyph-name="u" unicode="u" 
d="M307 0v84h-2q-29 -98 -121 -99q-73 0 -99.5 35.5t-26.5 111.5v432h130v-386q0 -55 13 -75q17 -18 40 -18q15 0 25.5 5t17 15.5t10.5 19t5 25t1.5 24.5t0.5 24v366h130v-564h-124z" />
    <glyph glyph-name="v" unicode="v" horiz-adv-x="444" 
d="M142 0l-132 564h140l55 -316q9 -40 18 -167h2q9 127 18 167l56 316h135l-130 -564h-162z" />
    <glyph glyph-name="w" unicode="w" horiz-adv-x="667" 
d="M381 564l63 -346q10 -56 13 -121h3q0 63 11 125l43 342h131l-114 -564h-142l-43 228q-9 48 -17 142h-4q-3 -73 -13 -134l-40 -236h-145l-116 564h137l46 -344q11 -62 11 -125h2q3 65 13 121l54 348h107z" />
    <glyph glyph-name="x" unicode="x" horiz-adv-x="444" 
d="M157 288l-142 276h153l43 -102q12 -43 14 -51h2q3 15 16 53l46 100h144l-141 -273l144 -291h-146l-39 91q-21 47 -26 83h-2q-6 -39 -29 -90l-37 -84h-149z" />
    <glyph glyph-name="y" unicode="y" horiz-adv-x="444" 
d="M5 564h137l57 -299q9 -50 19 -150h2q6 70 20 146l57 303h132l-137 -572q-25 -97 -33 -115q-25 -59 -87 -69q-37 -6 -96 2v101q3 0 15.5 -1t21 -0.5t19 2t16 8t5.5 16.5q0 24 -12 72z" />
    <glyph glyph-name="z" unicode="z" horiz-adv-x="389" 
d="M367 471l-206 -371h206v-100h-344v102l198 362h-194v100h340v-93z" />
    <glyph glyph-name="braceleft" unicode="{" horiz-adv-x="274" 
d="M43 436v184q0 67 28 98.5t95 31.5h74v-2q-43 -10 -59 -37t-16 -73v-184q0 -57 -17 -86t-65 -40v-2q48 -7 65 -42.5t17 -92.5v-172q0 -90 75 -109v-2h-65q-77 0 -104.5 34.5t-27.5 113.5v162q0 45 -16.5 70.5t-58.5 36.5v2q75 10 75 109z" />
    <glyph glyph-name="bar" unicode="|" horiz-adv-x="250" 
d="M75 750h100v-1000h-100v1000z" />
    <glyph glyph-name="braceright" unicode="}" horiz-adv-x="274" 
d="M231 618v-183q0 -99 75 -109v-2q-46 -6 -60.5 -32t-14.5 -76v-162q0 -80 -26.5 -114t-102.5 -34h-68v2q43 10 59 37t16 73v171q0 57 15.5 88.5t66.5 46.5v2q-48 11 -65 40.5t-17 85.5v185q0 95 -75 110v3h68q70 -1 99.5 -31t29.5 -101z" />
    <glyph glyph-name="asciitilde" unicode="~" 
d="M418 359l57 -73q-39 -69 -62 -89q-30 -28 -67 -28q-34 0 -104 33t-82 33q-10 0 -19 -4t-15 -9t-13.5 -16t-10.5 -16.5t-10 -19.5t-9 -17l-57 74q27 55 58 89.5t75 34.5q35 0 102 -33t85 -33q11 0 20 4t17 14t12.5 16.5t12 21t10.5 18.5z" />
    <glyph glyph-name="uni00A0" unicode="&#xa0;" horiz-adv-x="250" 
 />
    <glyph glyph-name="exclamdown" unicode="&#xa1;" horiz-adv-x="333" 
d="M232 -170h-130v210q-3 74 6 173l5.5 55t6 64t3.5 54h88q1 -37 13 -173q9 -106 8 -173v-210zM102 447v132h130v-132h-130z" />
    <glyph glyph-name="cent" unicode="&#xa2;" 
d="M194 346v-209h2l56 332l-9 1q-15 0 -24.5 -6.5t-14.5 -17.5t-7.5 -26.5t-2.5 -34v-39.5zM298 218h130q1 -30 -3 -81q-8 -83 -65 -125t-141 -26l-20 -108h-69l24 126q-86 44 -82 190v183q0 50 13 90t34 62.5t48 37t54 14.5t51 -6l17 96h70l-21 -110q47 -21 69 -61t21 -89
v-45h-130v79h-3l-61 -343q18 -18 50 -2q10 13 14 66v52z" />
    <glyph glyph-name="sterling" unicode="&#xa3;" 
d="M123 337h-86v59h63q-46 73 -46 166q0 98 63 152t161 54q124 0 177 -95q4 -7 6.5 -14t4.5 -16t3.5 -14.5t2.5 -16.5t1.5 -15t1 -17t0.5 -15.5v-17v-15.5h-128q0 28 -0.5 38t-4.5 32t-12 31t-23.5 17t-38.5 8q-83 0 -83 -106q0 -46 46 -156h146v-59h-124q9 -23 9 -59
q0 -56 -34.5 -106t-86.5 -84l3 -2q56 31 97 31q17 1 40 -2.5t48 -9t32 -6.5q44 -7 98 31l28 -109q-53 -36 -126 -36q-22 0 -43 4t-49 11.5t-39 9.5q-44 10 -78 4.5t-81 -29.5l-36 94q49 27 76.5 78t27.5 110q0 42 -16 70z" />
    <glyph glyph-name="currency" unicode="&#xa4;" 
d="M9 137l42 44q-35 65 -35 128q0 69 35 129l-42 42l76 80l42 -43q62 38 123 38q67 0 127 -38l43 43l72 -80l-41 -42q36 -60 36 -128q0 -76 -36 -129l41 -44l-72 -79l-43 43q-63 -38 -123 -38q-69 0 -127 38l-42 -43zM252 437q-49 0 -83.5 -38.5t-34.5 -88.5t35 -89.5
t83 -39.5q49 0 83 39.5t34 89.5t-34 88.5t-83 38.5z" />
    <glyph glyph-name="yen" unicode="&#xa5;" 
d="M518 750l-198 -431v-60h108v-50h-108v-61h108v-50h-108v-98h-140v98h-112v50h112v61h-112v50h112v60l-198 431h156l79 -197q24 -60 34 -115h2q10 55 34 115l79 197h152z" />
    <glyph glyph-name="brokenbar" unicode="&#xa6;" horiz-adv-x="250" 
d="M75 -175v350h100v-350h-100zM175 675v-350h-100v350h100z" />
    <glyph glyph-name="section" unicode="&#xa7;" 
d="M305 320l-114 93q-19 -9 -33 -32t-3 -51q10 -26 29 -40l123 -100q38 21 38 63q0 31 -40 67zM54 12h125q-1 -45 14.5 -69t58.5 -24q22 0 38 14t21 35q12 51 -58 103l-119 93q-54 43 -75.5 76.5t-21.5 95.5q0 45 22 83.5t64 61.5q-29 21 -40 49.5t-11 75.5q0 65 49 113.5
t141 48.5q84 0 132.5 -47t43.5 -129h-123q3 34 -12 55q-18 21 -51 21q-25 0 -41.5 -13.5t-16.5 -41.5q0 -41 46 -77l137 -108q43 -33 64.5 -68.5t21.5 -86.5q0 -45 -22 -84t-61 -63q23 -16 40 -57t17 -77q0 -76 -59 -125.5t-137 -49.5q-144 0 -180 123q-5 16 -7 72z" />
    <glyph glyph-name="dieresis" unicode="&#xa8;" horiz-adv-x="333" 
d="M132 644h-127v115h127v-115zM328 644h-128v115h128v-115z" />
    <glyph glyph-name="copyright" unicode="&#xa9;" horiz-adv-x="830" 
d="M416 768q163 0 277.5 -114t114.5 -277q0 -164 -114.5 -279.5t-277.5 -115.5q-164 0 -279 115.5t-115 279.5q0 163 115 277t279 114zM416 57q131 0 224.5 94t93.5 226q0 131 -93.5 224t-224.5 93q-133 0 -226.5 -93t-93.5 -224q0 -133 93.5 -226.5t226.5 -93.5zM527 306
h89q-8 -69 -60.5 -111t-123.5 -42q-97 0 -157 65t-60 162q0 99 58.5 162.5t156.5 63.5q72 0 122.5 -39.5t63.5 -109.5h-89q-7 36 -33.5 56.5t-64.5 20.5q-60 0 -93 -44.5t-33 -107.5q0 -61 35.5 -109t93.5 -48q37 0 65 23t30 58z" />
    <glyph glyph-name="ordfeminine" unicode="&#xaa;" horiz-adv-x="300" 
d="M189 562v37q-12 -8 -31.5 -19t-25 -15t-14 -12t-10 -16t-1.5 -22q0 -44 39 -44q14 0 23.5 5.5t13 18t5 21t1.5 25.5v21zM105 659h-80q-1 53 26.5 81t101.5 28q41 0 67.5 -9t37 -25.5t13.5 -31t3 -34.5v-200q0 -26 7 -47h-80q-8 14 -5 34h-2q-24 -43 -74 -43
q-51 0 -74.5 24t-23.5 77q0 28 8.5 47t31.5 34t36 20.5t49 19.5q28 11 37.5 23.5t4.5 33.5q-6 21 -40 21q-26 0 -35 -13.5t-9 -39.5z" />
    <glyph glyph-name="guillemotleft" unicode="&#xab;" 
d="M231 62l-157 142v102l157 141v-112l-94 -79l94 -81v-113zM419 62l-159 142v102l159 141v-112l-96 -79l96 -81v-113z" />
    <glyph glyph-name="logicalnot" unicode="&#xac;" 
d="M365 105v186h-339v110h449v-296h-110z" />
    <glyph glyph-name="uni00AD" unicode="&#xad;" horiz-adv-x="333" 
d="M286 255h-238v115h238v-115z" />
    <glyph glyph-name="registered" unicode="&#xae;" horiz-adv-x="830" 
d="M416 -18q-164 0 -279 115t-115 279q0 162 115.5 277t278.5 115q162 0 277 -115t115 -277q0 -163 -115 -278.5t-277 -115.5zM416 56q132 0 225 93.5t93 226.5q0 132 -93 225t-225 93q-133 0 -226.5 -93t-93.5 -225q0 -133 93.5 -226.5t226.5 -93.5zM508 341l103 -180h-97
l-94 180h-83v-180h-83v425h205q81 0 115 -21q50 -33 50 -110q0 -56 -29 -83t-87 -31zM337 404h124q39 -1 59.5 12.5t20.5 51.5q0 19 -9 31.5t-27 17t-30.5 5.5t-34.5 1h-103v-119z" />
    <glyph glyph-name="macron" unicode="&#xaf;" horiz-adv-x="333" 
d="M340 666h-346v74h346v-74z" />
    <glyph glyph-name="degree" unicode="&#xb0;" horiz-adv-x="400" 
d="M350 600q0 -62 -44 -106t-106 -44t-106 44t-44 106q-1 62 43.5 106t106.5 44t106 -44t44 -106zM129 600q0 -30 21 -50.5t51 -20.5q29 0 49.5 20.5t20.5 50.5q0 29 -20.5 50t-50.5 21q-29 0 -50.5 -21t-20.5 -50z" />
    <glyph glyph-name="plusminus" unicode="&#xb1;" 
d="M195 379v134h110v-134h170v-110h-170v-134h-110v134h-169v110h169zM26 -15v110h449v-110h-449z" />
    <glyph glyph-name="twosuperior" unicode="&#xb2;" horiz-adv-x="300" 
d="M229 512l-72 -68q-46 -43 -47 -78h170v-66h-267q2 47 8 76q10 53 86 127l44 43q18 18 25.5 26.5t13.5 24t6 35.5q0 54 -44 54q-34 0 -42 -22q-7 -16 -7 -64h-85v13q0 19 0.5 30.5t8 35t20.5 37t41 25t68 11.5q59 -1 95 -32.5t36 -84.5q0 -68 -58 -123z" />
    <glyph glyph-name="threesuperior" unicode="&#xb3;" horiz-adv-x="300" 
d="M105 507v66q49 3 57 6q28 12 28 55q0 51 -43 51t-44 -36v-31h-85q-3 65 27 98q32 35 101 35q132 0 132 -116q0 -34 -15.5 -61t-47.5 -32v-2q34 -3 54 -30.5t19 -77.5q0 -142 -141 -142q-36 0 -62.5 9.5t-40.5 23t-21.5 33t-9 34.5t-1.5 32v26h85q0 -4 0.5 -19t1 -22
t3.5 -18.5t8 -17.5t14.5 -10.5t23.5 -4.5q15 0 25 5.5t14.5 11.5t7 21t2.5 21.5v25.5q0 37 -10 48q-17 18 -82 18z" />
    <glyph glyph-name="acute" unicode="&#xb4;" horiz-adv-x="333" 
d="M83 629l94 146h155l-148 -146h-101z" />
    <glyph glyph-name="mu" unicode="&#xb5;" horiz-adv-x="504" 
d="M431 0h-124v84h-2q-32 -104 -117 -79v-194h-130v753h130v-386q0 -55 13 -75q17 -18 40 -18q15 0 25.5 5t17 15.5t10.5 19t5 25t1.5 24.5t0.5 24v366h130v-564z" />
    <glyph glyph-name="paragraph" unicode="&#xb6;" horiz-adv-x="550" 
d="M366 -116v748h-68v-748h-118v517q-76 0 -116.5 47t-40.5 124q0 97 50.5 137.5t149.5 40.5h303v-118h-42v-748h-118z" />
    <glyph glyph-name="periodcentered" unicode="&#xb7;" horiz-adv-x="333" 
d="M101 315h132v-132h-132v132z" />
    <glyph glyph-name="cedilla" unicode="&#xb8;" horiz-adv-x="333" 
d="M39 -203l19 42q51 -16 86 -16q18 0 32.5 14t11.5 32q-5 19 -20 24q-23 12 -65 -3l-21 20l59 90h53l-42 -61l2 -2q12 6 31 6q44 0 68 -24q22 -17 22 -53q0 -21 -13 -46q-26 -33 -69 -43t-89 -1q-13 4 -37 12t-28 9z" />
    <glyph glyph-name="onesuperior" unicode="&#xb9;" horiz-adv-x="300" 
d="M160 300v312h-110v60q111 2 134 78h67v-450h-91z" />
    <glyph glyph-name="ordmasculine" unicode="&#xba;" horiz-adv-x="300" 
d="M106 648v-113q0 -21 1.5 -31.5t11.5 -21t30 -10.5q21 0 31 10.5t11.5 21t1.5 31.5v113q0 34 -8 47t-36 13t-35.5 -12.5t-7.5 -47.5zM150 768q31 0 53 -5t36 -19t22 -26.5t11.5 -39.5t4.5 -45t1 -55q0 -94 -24.5 -130.5t-102.5 -35.5q-79 -1 -104.5 36t-24.5 130
q0 31 0.5 47.5t3 40.5t7.5 36t14 27t22.5 22t33.5 12t47 5z" />
    <glyph glyph-name="guillemotright" unicode="&#xbb;" 
d="M81 62v113l96 85l-96 75v112l159 -141v-102zM269 62v113l95 85l-95 75v112l157 -141v-102z" />
    <glyph glyph-name="onequarter" unicode="&#xbc;" horiz-adv-x="750" 
d="M505 157h91v183h-2zM586 443h101v-286h42v-66h-42v-91h-91v91h-158v66zM206 0h-75l425 738h75zM130 300v312h-110v60q111 2 134 78h67v-450h-91z" />
    <glyph glyph-name="onehalf" unicode="&#xbd;" horiz-adv-x="750" 
d="M183 0h-75l425 738h75zM122 300v312h-110v60q111 2 134 78h67v-450h-91zM681 212l-72 -68q-46 -43 -47 -78h170v-66h-267q2 47 8 76q10 53 86 127l44 43q18 18 25.5 26.5t13.5 24t6 35.5q0 54 -44 54q-34 0 -42 -22q-7 -16 -7 -64h-85v13q0 19 0.5 30.5t8 35t20.5 37
t41 25t68 11.5q59 -1 95 -32.5t36 -84.5q0 -68 -58 -123z" />
    <glyph glyph-name="threequarters" unicode="&#xbe;" horiz-adv-x="750" 
d="M515 157h91v183h-2zM596 443h101v-286h42v-66h-42v-91h-91v91h-158v66zM234 0h-75l425 738h75zM105 507v66q49 3 57 6q28 12 28 55q0 51 -43 51t-44 -36v-31h-85q-3 65 27 98q32 35 101 35q132 0 132 -116q0 -34 -15.5 -61t-47.5 -32v-2q34 -3 54 -30.5t19 -77.5
q0 -142 -141 -142q-36 0 -62.5 9.5t-40.5 23t-21.5 33t-9 34.5t-1.5 32v26h85q0 -4 0.5 -19t1 -22t3.5 -18.5t8 -17.5t14.5 -10.5t23.5 -4.5q15 0 25 5.5t14.5 11.5t7 21t2.5 21.5v25.5q0 37 -10 48q-17 18 -82 18z" />
    <glyph glyph-name="questiondown" unicode="&#xbf;" 
d="M324 25h124q6 -108 -45 -161.5t-150 -53.5q-89 0 -141 50t-52 136q0 54 15.5 89.5t53.5 83.5q12 12 34.5 37.5t34.5 38.5q36 44 36 132h117q1 -23 -3 -69q-2 -34 -14 -63t-23.5 -45.5t-36.5 -46.5t-37 -46q-23 -32 -31 -53.5t-8 -58.5q0 -43 13.5 -62t43.5 -19
q42 0 56 23q7 12 9.5 26t2.5 34t1 28zM353 450h-128v129h128v-129z" />
    <glyph glyph-name="Agrave" unicode="&#xc0;" horiz-adv-x="556" 
d="M159 0h-150l179 750h189l170 -750h-150l-37 190h-164zM260 513l-42 -213h120l-38 213q-5 25 -14 104q-1 19 -5 50h-2q-4 -31 -5 -50q-9 -79 -14 -104zM113 961h155l94 -146h-101z" />
    <glyph glyph-name="Aacute" unicode="&#xc1;" horiz-adv-x="556" 
d="M159 0h-150l179 750h189l170 -750h-150l-37 190h-164zM260 513l-42 -213h120l-38 213q-5 25 -14 104q-1 19 -5 50h-2q-4 -31 -5 -50q-9 -79 -14 -104zM195 815l94 146h155l-148 -146h-101z" />
    <glyph glyph-name="Acircumflex" unicode="&#xc2;" horiz-adv-x="556" 
d="M159 0h-150l179 750h189l170 -750h-150l-37 190h-164zM260 513l-42 -213h120l-38 213q-5 25 -14 104q-1 19 -5 50h-2q-4 -31 -5 -50q-9 -79 -14 -104zM205 956h125l115 -146h-114l-63 82l-64 -82h-112z" />
    <glyph glyph-name="Atilde" unicode="&#xc3;" horiz-adv-x="556" 
d="M159 0h-150l179 750h189l170 -750h-150l-37 190h-164zM260 513l-42 -213h120l-38 213q-5 25 -14 104q-1 19 -5 50h-2q-4 -31 -5 -50q-9 -79 -14 -104zM397 930h65q-22 -121 -117 -121q-18 0 -88 22q-33 13 -52 13q-13 0 -21 -5q-10 -5 -26 -37h-62q4 57 40 90t74 33
q27 0 76 -18q49 -19 61 -19q39 0 50 42z" />
    <glyph glyph-name="Adieresis" unicode="&#xc4;" horiz-adv-x="556" 
d="M159 0h-150l179 750h189l170 -750h-150l-37 190h-164zM260 513l-42 -213h120l-38 213q-5 25 -14 104q-1 19 -5 50h-2q-4 -31 -5 -50q-9 -79 -14 -104zM244 830h-127v115h127v-115zM440 830h-128v115h128v-115z" />
    <glyph glyph-name="Aring" unicode="&#xc5;" horiz-adv-x="556" 
d="M159 0h-150l179 750h189l170 -750h-150l-37 190h-164zM260 513l-42 -213h120l-38 213q-5 25 -14 104q-1 19 -5 50h-2q-4 -31 -5 -50q-9 -79 -14 -104zM279 778q-44 0 -75.5 31.5t-31.5 74.5q0 44 32 75.5t75 31.5q44 0 75 -31.5t31 -75.5t-31 -75t-75 -31zM279 942
q-24 0 -41 -17t-17 -41q0 -23 17.5 -40t40.5 -17t40.5 17.5t17.5 39.5q0 23 -17.5 40.5t-40.5 17.5z" />
    <glyph glyph-name="AE" unicode="&#xc6;" horiz-adv-x="778" 
d="M365 0v192h-172l-65 -192h-150l288 750h484v-110h-245v-190h229v-110h-229v-230h245v-110h-385zM365 611h-27l-107 -309h134v309z" />
    <glyph glyph-name="Ccedilla" unicode="&#xc7;" horiz-adv-x="556" 
d="M212 -90l48 74q-47 4 -82 17.5t-57 38t-35.5 51.5t-20 69t-8.5 78t-2 90v107q2 48 4 79t8 70t16.5 63t28 49.5t43 39.5t62 23t83.5 9q190 -3 205 -194q4 -38 3 -57h-138q-1 7 -2.5 26.5t-3 31t-6 29t-11 27t-18.5 17t-29 7.5q-16 0 -29.5 -4t-23.5 -9.5t-17.5 -17
t-12.5 -19t-8.5 -24t-5.5 -23.5t-3 -26t-1 -23.5v-23.5v-19v-208q0 -31 2.5 -53t11.5 -50.5t31 -44t56 -15.5q18 0 31.5 10t20.5 23t11 35.5t5 37t2 37.5t1 29h141q0 -7 -1 -21.5t-2 -21.5q-6 -111 -50 -174.5t-146 -66.5l-31 -44l2 -2q12 6 31 6q44 0 68 -24q22 -17 22 -53
q0 -21 -13 -46q-26 -33 -69 -43t-89 -1q-13 4 -37 12t-28 9l19 42q51 -16 86 -16q18 0 32.5 14t11.5 32q-5 19 -20 24q-23 12 -65 -3z" />
    <glyph glyph-name="Egrave" unicode="&#xc8;" 
d="M458 0h-394v750h394v-110h-254v-189h234v-110h-234v-231h254v-110zM85 961h155l94 -146h-101z" />
    <glyph glyph-name="Eacute" unicode="&#xc9;" 
d="M458 0h-394v750h394v-110h-254v-189h234v-110h-234v-231h254v-110zM167 815l94 146h155l-148 -146h-101z" />
    <glyph glyph-name="Ecircumflex" unicode="&#xca;" 
d="M458 0h-394v750h394v-110h-254v-189h234v-110h-234v-231h254v-110zM187 956h125l115 -146h-114l-63 82l-64 -82h-112z" />
    <glyph glyph-name="Edieresis" unicode="&#xcb;" 
d="M458 0h-394v750h394v-110h-254v-189h234v-110h-234v-231h254v-110zM216 830h-127v115h127v-115zM412 830h-128v115h128v-115z" />
    <glyph glyph-name="Igrave" unicode="&#xcc;" horiz-adv-x="278" 
d="M209 0h-140v750h140v-750zM-26 961h155l94 -146h-101z" />
    <glyph glyph-name="Iacute" unicode="&#xcd;" horiz-adv-x="278" 
d="M209 0h-140v750h140v-750zM56 815l94 146h155l-148 -146h-101z" />
    <glyph glyph-name="Icircumflex" unicode="&#xce;" horiz-adv-x="278" 
d="M209 0h-140v750h140v-750zM76 956h125l115 -146h-114l-63 82l-64 -82h-112z" />
    <glyph glyph-name="Idieresis" unicode="&#xcf;" horiz-adv-x="278" 
d="M209 0h-140v750h140v-750zM105 830h-127v115h127v-115zM301 830h-128v115h128v-115z" />
    <glyph glyph-name="Eth" unicode="&#xd0;" horiz-adv-x="611" 
d="M212 640v-167h105v-67h-105v-296h92q25 0 43 8t29 28.5t17.5 38.5t9 55.5t3 61.5t0.5 73t-0.5 73t-3 61.5t-9 55.5t-17.5 38.5t-29 28.5t-43 8h-92zM72 0v406h-52v67h52v277h292q35 0 75.5 -19t69.5 -66q41 -67 41 -259q0 -43 -0.5 -65.5t-2.5 -63t-6 -65t-12.5 -58
t-20.5 -55.5t-30.5 -43.5t-42.5 -35.5q-34 -20 -104 -20h-259z" />
    <glyph glyph-name="Ntilde" unicode="&#xd1;" horiz-adv-x="611" 
d="M403 603v147h140v-750h-146l-109 267q-51 122 -100 298h-2q11 -133 15 -214q7 -131 7 -210v-141h-140v750h145l109 -273q52 -125 100 -298h2q-9 121 -14 213q-7 126 -7 211zM424 930h65q-22 -121 -117 -121q-18 0 -88 22q-32 13 -52 13q-14 0 -21 -5q-10 -5 -26 -37h-62
q4 57 40 90t74 33q27 0 76 -18q49 -19 61 -19q39 0 50 42z" />
    <glyph glyph-name="Ograve" unicode="&#xd2;" horiz-adv-x="611" 
d="M61 328v107q2 48 4 79t8 70t16.5 63t28 49.5t43 39.5t62 23t83.5 9t83.5 -9t62 -23t43 -39.5t28 -49.5t16.5 -63t8 -70t4 -79v-107q0 -49 -1.5 -82.5t-7 -73t-15.5 -65t-28 -51.5t-44 -41t-63.5 -24t-85.5 -9t-85.5 9t-63.5 24t-44 41t-28 51.5t-15.5 65t-7 73t-1.5 82.5
zM205 466v-208q0 -31 2.5 -53t11.5 -50.5t31 -44t56 -15.5q29 0 49 12t30 28t15 43.5t6 45t1 46.5v202q0 33 -2.5 57t-11 57t-31 51t-56.5 18t-55.5 -15t-30.5 -42.5t-12 -50t-3 -53.5v-28zM140 961h155l94 -146h-101z" />
    <glyph glyph-name="Oacute" unicode="&#xd3;" horiz-adv-x="611" 
d="M61 328v107q2 48 4 79t8 70t16.5 63t28 49.5t43 39.5t62 23t83.5 9t83.5 -9t62 -23t43 -39.5t28 -49.5t16.5 -63t8 -70t4 -79v-107q0 -49 -1.5 -82.5t-7 -73t-15.5 -65t-28 -51.5t-44 -41t-63.5 -24t-85.5 -9t-85.5 9t-63.5 24t-44 41t-28 51.5t-15.5 65t-7 73t-1.5 82.5
zM205 466v-208q0 -31 2.5 -53t11.5 -50.5t31 -44t56 -15.5q29 0 49 12t30 28t15 43.5t6 45t1 46.5v202q0 33 -2.5 57t-11 57t-31 51t-56.5 18t-55.5 -15t-30.5 -42.5t-12 -50t-3 -53.5v-28zM222 815l94 146h155l-148 -146h-101z" />
    <glyph glyph-name="Ocircumflex" unicode="&#xd4;" horiz-adv-x="611" 
d="M61 328v107q2 48 4 79t8 70t16.5 63t28 49.5t43 39.5t62 23t83.5 9t83.5 -9t62 -23t43 -39.5t28 -49.5t16.5 -63t8 -70t4 -79v-107q0 -49 -1.5 -82.5t-7 -73t-15.5 -65t-28 -51.5t-44 -41t-63.5 -24t-85.5 -9t-85.5 9t-63.5 24t-44 41t-28 51.5t-15.5 65t-7 73t-1.5 82.5
zM205 466v-208q0 -31 2.5 -53t11.5 -50.5t31 -44t56 -15.5q29 0 49 12t30 28t15 43.5t6 45t1 46.5v202q0 33 -2.5 57t-11 57t-31 51t-56.5 18t-55.5 -15t-30.5 -42.5t-12 -50t-3 -53.5v-28zM242 956h125l115 -146h-114l-63 82l-64 -82h-112z" />
    <glyph glyph-name="Otilde" unicode="&#xd5;" horiz-adv-x="611" 
d="M61 328v107q2 48 4 79t8 70t16.5 63t28 49.5t43 39.5t62 23t83.5 9t83.5 -9t62 -23t43 -39.5t28 -49.5t16.5 -63t8 -70t4 -79v-107q0 -49 -1.5 -82.5t-7 -73t-15.5 -65t-28 -51.5t-44 -41t-63.5 -24t-85.5 -9t-85.5 9t-63.5 24t-44 41t-28 51.5t-15.5 65t-7 73t-1.5 82.5
zM205 466v-208q0 -31 2.5 -53t11.5 -50.5t31 -44t56 -15.5q29 0 49 12t30 28t15 43.5t6 45t1 46.5v202q0 33 -2.5 57t-11 57t-31 51t-56.5 18t-55.5 -15t-30.5 -42.5t-12 -50t-3 -53.5v-28zM424 930h65q-22 -121 -117 -121q-18 0 -88 22q-32 13 -52 13q-14 0 -21 -5
q-10 -5 -26 -37h-62q4 57 40 90t74 33q27 0 76 -18q49 -19 61 -19q39 0 50 42z" />
    <glyph glyph-name="Odieresis" unicode="&#xd6;" horiz-adv-x="611" 
d="M61 328v107q2 48 4 79t8 70t16.5 63t28 49.5t43 39.5t62 23t83.5 9t83.5 -9t62 -23t43 -39.5t28 -49.5t16.5 -63t8 -70t4 -79v-107q0 -49 -1.5 -82.5t-7 -73t-15.5 -65t-28 -51.5t-44 -41t-63.5 -24t-85.5 -9t-85.5 9t-63.5 24t-44 41t-28 51.5t-15.5 65t-7 73t-1.5 82.5
zM205 466v-208q0 -31 2.5 -53t11.5 -50.5t31 -44t56 -15.5q29 0 49 12t30 28t15 43.5t6 45t1 46.5v202q0 33 -2.5 57t-11 57t-31 51t-56.5 18t-55.5 -15t-30.5 -42.5t-12 -50t-3 -53.5v-28zM271 830h-127v115h127v-115zM467 830h-128v115h128v-115z" />
    <glyph glyph-name="multiply" unicode="&#xd7;" 
d="M170 249l-144 144l78 78l144 -144l149 149l78 -78l-149 -149l149 -149l-78 -78l-149 149l-144 -144l-78 78z" />
    <glyph glyph-name="Oslash" unicode="&#xd8;" horiz-adv-x="611" 
d="M578 744l-58 -92q5 -11 9.5 -24.5t7.5 -24.5t5.5 -28t3.5 -26.5t2 -29.5t1.5 -27.5t1 -29.5t0.5 -27v-107q0 -49 -1.5 -82.5t-7 -73t-15.5 -65t-28 -51.5t-44 -41t-63.5 -24t-85.5 -9q-66 0 -105 11.5t-70 42.5l-46 -74l-49 30l59 94q-34 68 -34 242v107q2 48 4 79t8 70
t16.5 63t28 49.5t43 39.5t62 23t83.5 9q65 0 104.5 -11.5t73.5 -48.5l44 71zM206 275l187 300q-6 80 -87 80q-36 0 -58.5 -16.5t-31 -54.5t-10 -65.5t-1.5 -84.5v-20q0 -29 -0.5 -62t-0.5 -45.5v-31.5h2zM405 478l-190 -306q7 -38 27.5 -57.5t63.5 -19.5q21 0 37.5 7
t27 16.5t18 28t11 31t5.5 37.5t2 36v36v5v4.5v4.5v177h-2z" />
    <glyph glyph-name="Ugrave" unicode="&#xd9;" horiz-adv-x="611" 
d="M404 239v511h140v-523q0 -129 -52 -187t-185 -58q-134 0 -186.5 58t-52.5 187v523h140v-511q0 -33 2.5 -54t11.5 -44t30.5 -34.5t55.5 -11.5q26 0 44.5 8.5t28.5 21t15.5 33.5t6.5 38t1 43zM140 961h155l94 -146h-101z" />
    <glyph glyph-name="Uacute" unicode="&#xda;" horiz-adv-x="611" 
d="M404 239v511h140v-523q0 -129 -52 -187t-185 -58q-134 0 -186.5 58t-52.5 187v523h140v-511q0 -33 2.5 -54t11.5 -44t30.5 -34.5t55.5 -11.5q26 0 44.5 8.5t28.5 21t15.5 33.5t6.5 38t1 43zM222 815l94 146h155l-148 -146h-101z" />
    <glyph glyph-name="Ucircumflex" unicode="&#xdb;" horiz-adv-x="611" 
d="M404 239v511h140v-523q0 -129 -52 -187t-185 -58q-134 0 -186.5 58t-52.5 187v523h140v-511q0 -33 2.5 -54t11.5 -44t30.5 -34.5t55.5 -11.5q26 0 44.5 8.5t28.5 21t15.5 33.5t6.5 38t1 43zM242 956h125l115 -146h-114l-63 82l-64 -82h-112z" />
    <glyph glyph-name="Udieresis" unicode="&#xdc;" horiz-adv-x="611" 
d="M404 239v511h140v-523q0 -129 -52 -187t-185 -58q-134 0 -186.5 58t-52.5 187v523h140v-511q0 -33 2.5 -54t11.5 -44t30.5 -34.5t55.5 -11.5q26 0 44.5 8.5t28.5 21t15.5 33.5t6.5 38t1 43zM271 830h-127v115h127v-115zM467 830h-128v115h128v-115z" />
    <glyph glyph-name="Yacute" unicode="&#xdd;" horiz-adv-x="556" 
d="M165 750l79 -197q25 -62 33 -115h2q9 49 46 142l67 170h153l-198 -431v-319h-140v319l-195 431h153zM195 815l94 146h155l-148 -146h-101z" />
    <glyph glyph-name="Thorn" unicode="&#xde;" horiz-adv-x="556" 
d="M208 522v-216h75q56 0 79 25t23 83t-23 83t-79 25h-75zM68 0v750h140v-118h134q53 0 90.5 -18t58 -50t29.5 -69t9 -81q0 -105 -59 -161.5t-140 -56.5h-122v-196h-140z" />
    <glyph glyph-name="germandbls" unicode="&#xdf;" 
d="M354 436v-2q48 -12 69 -64t22 -146q2 -219 -117 -238q-39 -6 -92 14v92q13 -6 29 -6q50 1 50 100l-1 117q0 38 -15.5 57t-53.5 20v95q19 2 27.5 4t18 8.5t12.5 20t3 37.5v61q0 27 -14.5 44.5t-43.5 17.5q-20 0 -33 -11t-18 -32t-6 -35t-1 -36v-554h-130v533
q0 35 1.5 59.5t11.5 60.5t29 58.5t57 39.5t91 17q93 0 138 -56t45 -133q0 -119 -79 -143z" />
    <glyph glyph-name="agrave" unicode="&#xe0;" 
d="M440 0h-123q-9 17 -9 42q0 11 1 16h-2q-24 -37 -52 -54q-30 -19 -62 -19q-78 0 -114.5 41t-36.5 128q0 44 12 75.5t43.5 55t52.5 34.5t71 31q3 2 5 2.5t4.5 1.5t4.5 2q67 28 67 72q0 10 -3 22q-4 18 -18 23.5t-43 5.5q-40 0 -54 -18.5t-14 -57.5v-6h-124v4q0 87 42 132.5
t155 45.5q60 0 99 -13.5t57 -38t24 -48t6 -54.5v-346q0 -38 11 -79zM299 236v61q-10 -7 -31.5 -21t-40 -26.5t-33.5 -24.5q-22 -19 -22 -68q0 -72 61 -72q22 0 36 9.5t20 29.5t7.5 34.5t2 42.5t0.5 35zM85 775h155l94 -146h-101z" />
    <glyph glyph-name="aacute" unicode="&#xe1;" 
d="M440 0h-123q-9 17 -9 42q0 11 1 16h-2q-24 -37 -52 -54q-30 -19 -62 -19q-78 0 -114.5 41t-36.5 128q0 44 12 75.5t43.5 55t52.5 34.5t71 31q3 2 5 2.5t4.5 1.5t4.5 2q67 28 67 72q0 10 -3 22q-4 18 -18 23.5t-43 5.5q-40 0 -54 -18.5t-14 -57.5v-6h-124v4q0 87 42 132.5
t155 45.5q60 0 99 -13.5t57 -38t24 -48t6 -54.5v-346q0 -38 11 -79zM299 236v61q-10 -7 -31.5 -21t-40 -26.5t-33.5 -24.5q-22 -19 -22 -68q0 -72 61 -72q22 0 36 9.5t20 29.5t7.5 34.5t2 42.5t0.5 35zM167 629l94 146h155l-148 -146h-101z" />
    <glyph glyph-name="acircumflex" unicode="&#xe2;" 
d="M440 0h-123q-9 17 -9 42q0 11 1 16h-2q-24 -37 -52 -54q-30 -19 -62 -19q-78 0 -114.5 41t-36.5 128q0 44 12 75.5t43.5 55t52.5 34.5t71 31q3 2 5 2.5t4.5 1.5t4.5 2q67 28 67 72q0 10 -3 22q-4 18 -18 23.5t-43 5.5q-40 0 -54 -18.5t-14 -57.5v-6h-124v4q0 87 42 132.5
t155 45.5q60 0 99 -13.5t57 -38t24 -48t6 -54.5v-346q0 -38 11 -79zM299 236v61q-10 -7 -31.5 -21t-40 -26.5t-33.5 -24.5q-22 -19 -22 -68q0 -72 61 -72q22 0 36 9.5t20 29.5t7.5 34.5t2 42.5t0.5 35zM187 770h125l115 -146h-114l-63 82l-64 -82h-112z" />
    <glyph glyph-name="atilde" unicode="&#xe3;" 
d="M440 0h-123q-9 17 -9 42q0 11 1 16h-2q-24 -37 -52 -54q-30 -19 -62 -19q-78 0 -114.5 41t-36.5 128q0 44 12 75.5t43.5 55t52.5 34.5t71 31q3 2 5 2.5t4.5 1.5t4.5 2q67 28 67 72q0 10 -3 22q-4 18 -18 23.5t-43 5.5q-40 0 -54 -18.5t-14 -57.5v-6h-124v4q0 87 42 132.5
t155 45.5q60 0 99 -13.5t57 -38t24 -48t6 -54.5v-346q0 -38 11 -79zM299 236v61q-10 -7 -31.5 -21t-40 -26.5t-33.5 -24.5q-22 -19 -22 -68q0 -72 61 -72q22 0 36 9.5t20 29.5t7.5 34.5t2 42.5t0.5 35zM369 744h65q-22 -121 -117 -121q-18 0 -88 22q-32 13 -52 13
q-13 0 -21 -5q-10 -5 -26 -37h-62q4 57 40 90t74 33q27 0 76 -18q49 -19 61 -19q39 0 50 42z" />
    <glyph glyph-name="adieresis" unicode="&#xe4;" 
d="M440 0h-123q-9 17 -9 42q0 11 1 16h-2q-24 -37 -52 -54q-30 -19 -62 -19q-78 0 -114.5 41t-36.5 128q0 44 12 75.5t43.5 55t52.5 34.5t71 31q3 2 5 2.5t4.5 1.5t4.5 2q67 28 67 72q0 10 -3 22q-4 18 -18 23.5t-43 5.5q-40 0 -54 -18.5t-14 -57.5v-6h-124v4q0 87 42 132.5
t155 45.5q60 0 99 -13.5t57 -38t24 -48t6 -54.5v-346q0 -38 11 -79zM299 236v61q-10 -7 -31.5 -21t-40 -26.5t-33.5 -24.5q-22 -19 -22 -68q0 -72 61 -72q22 0 36 9.5t20 29.5t7.5 34.5t2 42.5t0.5 35zM216 644h-127v115h127v-115zM412 644h-128v115h128v-115z" />
    <glyph glyph-name="aring" unicode="&#xe5;" 
d="M440 0h-123q-9 17 -9 42q0 11 1 16h-2q-24 -37 -52 -54q-30 -19 -62 -19q-78 0 -114.5 41t-36.5 128q0 44 12 75.5t43.5 55t52.5 34.5t71 31q3 2 5 2.5t4.5 1.5t4.5 2q67 28 67 72q0 10 -3 22q-4 18 -18 23.5t-43 5.5q-40 0 -54 -18.5t-14 -57.5v-6h-124v4q0 87 42 132.5
t155 45.5q60 0 99 -13.5t57 -38t24 -48t6 -54.5v-346q0 -38 11 -79zM299 236v61q-10 -7 -31.5 -21t-40 -26.5t-33.5 -24.5q-22 -19 -22 -68q0 -72 61 -72q22 0 36 9.5t20 29.5t7.5 34.5t2 42.5t0.5 35zM236 622q-44 0 -75.5 31.5t-31.5 74.5q0 44 31.5 75.5t75.5 31.5
t75 -31.5t31 -75.5t-31 -75t-75 -31zM236 786q-24 0 -41 -17t-17 -41q0 -23 17.5 -40t40.5 -17t40.5 17.5t17.5 39.5q0 23 -17.5 40.5t-40.5 17.5z" />
    <glyph glyph-name="ae" unicode="&#xe6;" horiz-adv-x="722" 
d="M176 400h-130q-1 41 13 87q29 92 185 92q76 0 130 -36q45 36 117 36q83 0 129.5 -39.5t50.5 -135.5v-145h-245v-50v-14.5v-16.5t0.5 -16t1.5 -17l3 -15t5 -15t8 -12t10.5 -10t13.5 -5.5t18 -2.5q50 0 55 54v53h131q6 -207 -186 -207q-48 0 -78.5 13t-57.5 46
q-38 -59 -131 -59q-87 0 -131 36t-44 122q0 69 21.5 104.5t82.5 69.5q22 13 55 27t51 22t32 24.5t14 39.5q0 28 -15 38.5t-45 10.5q-29 0 -43 -11t-17 -24.5t-4 -43.5zM296 182v114q-12 -9 -40.5 -25.5t-42 -27t-26.5 -32.5t-13 -51q0 -41 12 -58t40 -17q72 0 70 97z
M426 359h115v56q0 38 -15 51t-42 13q-51 0 -58 -64v-56z" />
    <glyph glyph-name="ccedilla" unicode="&#xe7;" horiz-adv-x="444" 
d="M152 -90l50 77q-160 11 -153 209v183q-1 110 46 155t130 45q92 0 135.5 -48t42.5 -118v-45h-130v63q-3 48 -45 48q-18 0 -29 -9t-15 -29.5t-4.5 -37.5t-0.5 -50v-133q-2 -80 8 -105.5t41 -29.5q19 0 29 14t11.5 25.5t4.5 43.5v52h130v-52q0 -84 -35 -129t-113 -52
l-33 -48l2 -2q12 6 31 6q44 0 68 -24q22 -17 22 -53q0 -21 -13 -46q-26 -33 -69 -43t-89 -1q-13 4 -37 12t-28 9l19 42q51 -16 86 -16q18 0 32.5 14t11.5 32q-5 19 -20 24q-23 12 -65 -3z" />
    <glyph glyph-name="egrave" unicode="&#xe8;" 
d="M53 222v164q0 93 49 143t141 50q53 0 90 -11.5t58.5 -30.5t33 -53t15 -67.5t3.5 -85.5v-76h-260v-82q1 -52 18 -70t50 -18t46.5 22.5t13.5 71.5v12h130v-16q0 -190 -180 -190q-110 0 -159 53.5t-49 172.5v11zM183 355h130v49q-1 43 -15 59t-53 16q-22 0 -35 -6.5
t-18.5 -21t-7 -26.5t-1.5 -34v-36zM85 775h155l94 -146h-101z" />
    <glyph glyph-name="eacute" unicode="&#xe9;" 
d="M53 222v164q0 93 49 143t141 50q53 0 90 -11.5t58.5 -30.5t33 -53t15 -67.5t3.5 -85.5v-76h-260v-82q1 -52 18 -70t50 -18t46.5 22.5t13.5 71.5v12h130v-16q0 -190 -180 -190q-110 0 -159 53.5t-49 172.5v11zM183 355h130v49q-1 43 -15 59t-53 16q-22 0 -35 -6.5
t-18.5 -21t-7 -26.5t-1.5 -34v-36zM167 629l94 146h155l-148 -146h-101z" />
    <glyph glyph-name="ecircumflex" unicode="&#xea;" 
d="M53 222v164q0 93 49 143t141 50q53 0 90 -11.5t58.5 -30.5t33 -53t15 -67.5t3.5 -85.5v-76h-260v-82q1 -52 18 -70t50 -18t46.5 22.5t13.5 71.5v12h130v-16q0 -190 -180 -190q-110 0 -159 53.5t-49 172.5v11zM183 355h130v49q-1 43 -15 59t-53 16q-22 0 -35 -6.5
t-18.5 -21t-7 -26.5t-1.5 -34v-36zM187 770h125l115 -146h-114l-63 82l-64 -82h-112z" />
    <glyph glyph-name="edieresis" unicode="&#xeb;" 
d="M53 222v164q0 93 49 143t141 50q53 0 90 -11.5t58.5 -30.5t33 -53t15 -67.5t3.5 -85.5v-76h-260v-82q1 -52 18 -70t50 -18t46.5 22.5t13.5 71.5v12h130v-16q0 -190 -180 -190q-110 0 -159 53.5t-49 172.5v11zM183 355h130v49q-1 43 -15 59t-53 16q-22 0 -35 -6.5
t-18.5 -21t-7 -26.5t-1.5 -34v-36zM216 644h-127v115h127v-115zM412 644h-128v115h128v-115z" />
    <glyph glyph-name="igrave" unicode="&#xec;" horiz-adv-x="278" 
d="M204 0h-130v564h130v-564zM-26 775h155l94 -146h-101z" />
    <glyph glyph-name="iacute" unicode="&#xed;" horiz-adv-x="278" 
d="M204 0h-130v564h130v-564zM56 629l94 146h155l-148 -146h-101z" />
    <glyph glyph-name="icircumflex" unicode="&#xee;" horiz-adv-x="278" 
d="M204 0h-130v564h130v-564zM65 770h125l115 -146h-114l-63 82l-64 -82h-112z" />
    <glyph glyph-name="idieresis" unicode="&#xef;" horiz-adv-x="278" 
d="M204 0h-130v564h130v-564zM105 644h-127v115h127v-115zM301 644h-128v115h128v-115z" />
    <glyph glyph-name="eth" unicode="&#xf0;" 
d="M183 346v-162q0 -57 12 -78t55 -21q44 0 55.5 21t11.5 78v162q0 21 -0.5 32t-4 28t-10 25.5t-20 15t-32.5 6.5t-32.5 -6.5t-20 -15t-10 -25.5t-4 -28t-0.5 -32zM112 622l56 44q-21 15 -69 39l87 74q42 -18 73 -40l50 40l45 -35l-50 -40q143 -101 143 -334v-108
q0 -79 -7 -127t-28 -84.5t-59.5 -51t-102.5 -14.5q-63 0 -102 15t-60 51t-28 84t-7 127q0 154 34 218t125 64q63 0 90 -26l2 2q-8 30 -35 63.5t-53 50.5l-59 -47z" />
    <glyph glyph-name="ntilde" unicode="&#xf1;" 
d="M191 564v-58h2q33 73 116 73q58 0 94.5 -33.5t36.5 -101.5v-444h-130v376q0 47 -10.5 69.5t-44.5 23.5h-3q-61 0 -61 -95v-374h-130v564h130zM369 744h65q-22 -121 -117 -121q-18 0 -88 22q-32 13 -52 13q-13 0 -21 -5q-10 -5 -26 -37h-62q4 57 40 90t74 33q27 0 76 -18
q49 -19 61 -19q39 0 50 42z" />
    <glyph glyph-name="ograve" unicode="&#xf2;" 
d="M183 372v-188q0 -57 12.5 -78t56.5 -21q42 0 53.5 21t11.5 78v188q0 21 -0.5 32t-4 28t-9.5 25.5t-19 15t-32 6.5q-20 0 -33.5 -6.5t-20.5 -15t-10.5 -25.5t-4 -28t-0.5 -32zM252 -15h-9q-115 0 -152.5 60t-37.5 208v9q0 41 0.5 62.5t2.5 55t5.5 51t10.5 42.5t17 38
t24.5 28.5t34.5 22.5t46 12t58 5q29 0 52.5 -3t42 -11.5t32.5 -17t24.5 -25t18 -29t12 -37t7.5 -40.5t4 -47.5t1.5 -50t0.5 -56.5v-10q0 -74 -7 -120.5t-27 -81.5t-57 -50t-95 -15h-9zM85 775h155l94 -146h-101z" />
    <glyph glyph-name="oacute" unicode="&#xf3;" 
d="M183 372v-188q0 -57 12.5 -78t56.5 -21q42 0 53.5 21t11.5 78v188q0 21 -0.5 32t-4 28t-9.5 25.5t-19 15t-32 6.5q-20 0 -33.5 -6.5t-20.5 -15t-10.5 -25.5t-4 -28t-0.5 -32zM252 -15h-9q-115 0 -152.5 60t-37.5 208v9q0 41 0.5 62.5t2.5 55t5.5 51t10.5 42.5t17 38
t24.5 28.5t34.5 22.5t46 12t58 5q29 0 52.5 -3t42 -11.5t32.5 -17t24.5 -25t18 -29t12 -37t7.5 -40.5t4 -47.5t1.5 -50t0.5 -56.5v-10q0 -74 -7 -120.5t-27 -81.5t-57 -50t-95 -15h-9zM167 629l94 146h155l-148 -146h-101z" />
    <glyph glyph-name="ocircumflex" unicode="&#xf4;" 
d="M183 372v-188q0 -57 12.5 -78t56.5 -21q42 0 53.5 21t11.5 78v188q0 21 -0.5 32t-4 28t-9.5 25.5t-19 15t-32 6.5q-20 0 -33.5 -6.5t-20.5 -15t-10.5 -25.5t-4 -28t-0.5 -32zM252 -15h-9q-115 0 -152.5 60t-37.5 208v9q0 41 0.5 62.5t2.5 55t5.5 51t10.5 42.5t17 38
t24.5 28.5t34.5 22.5t46 12t58 5q29 0 52.5 -3t42 -11.5t32.5 -17t24.5 -25t18 -29t12 -37t7.5 -40.5t4 -47.5t1.5 -50t0.5 -56.5v-10q0 -74 -7 -120.5t-27 -81.5t-57 -50t-95 -15h-9zM187 770h125l115 -146h-114l-63 82l-64 -82h-112z" />
    <glyph glyph-name="otilde" unicode="&#xf5;" 
d="M183 372v-188q0 -57 12.5 -78t56.5 -21q42 0 53.5 21t11.5 78v188q0 21 -0.5 32t-4 28t-9.5 25.5t-19 15t-32 6.5q-20 0 -33.5 -6.5t-20.5 -15t-10.5 -25.5t-4 -28t-0.5 -32zM252 -15h-9q-115 0 -152.5 60t-37.5 208v9q0 41 0.5 62.5t2.5 55t5.5 51t10.5 42.5t17 38
t24.5 28.5t34.5 22.5t46 12t58 5q29 0 52.5 -3t42 -11.5t32.5 -17t24.5 -25t18 -29t12 -37t7.5 -40.5t4 -47.5t1.5 -50t0.5 -56.5v-10q0 -74 -7 -120.5t-27 -81.5t-57 -50t-95 -15h-9zM369 744h65q-22 -121 -117 -121q-18 0 -88 22q-32 13 -52 13q-13 0 -21 -5
q-10 -5 -26 -37h-62q4 57 40 90t74 33q27 0 76 -18q49 -19 61 -19q39 0 50 42z" />
    <glyph glyph-name="odieresis" unicode="&#xf6;" 
d="M183 372v-188q0 -57 12.5 -78t56.5 -21q42 0 53.5 21t11.5 78v188q0 21 -0.5 32t-4 28t-9.5 25.5t-19 15t-32 6.5q-20 0 -33.5 -6.5t-20.5 -15t-10.5 -25.5t-4 -28t-0.5 -32zM252 -15h-9q-115 0 -152.5 60t-37.5 208v9q0 41 0.5 62.5t2.5 55t5.5 51t10.5 42.5t17 38
t24.5 28.5t34.5 22.5t46 12t58 5q29 0 52.5 -3t42 -11.5t32.5 -17t24.5 -25t18 -29t12 -37t7.5 -40.5t4 -47.5t1.5 -50t0.5 -56.5v-10q0 -74 -7 -120.5t-27 -81.5t-57 -50t-95 -15h-9zM216 644h-127v115h127v-115zM412 644h-128v115h128v-115z" />
    <glyph glyph-name="divide" unicode="&#xf7;" 
d="M26 194v110h449v-110h-449zM313 377h-127v115h127v-115zM313 6h-127v115h127v-115z" />
    <glyph glyph-name="oslash" unicode="&#xf8;" 
d="M315 338l-130 -196q3 -31 17.5 -44t49.5 -13q42 0 53.5 21t11.5 78v154h-2zM390 539l53 78l49 -35l-66 -99q21 -54 21 -221q1 -157 -36.5 -218t-157.5 -59q-94 -1 -139 35l-54 -78l-53 34l69 99q-25 61 -23 187q0 45 1 69.5t3.5 61t7.5 55.5t14.5 44t24 38t35 26t49 18
t64.5 5q93 0 138 -40zM185 219l130 195q-5 65 -63 65q-20 0 -33.5 -6.5t-20.5 -15t-10.5 -25.5t-4 -28t-0.5 -32v-153h2z" />
    <glyph glyph-name="ugrave" unicode="&#xf9;" 
d="M307 0v84h-2q-29 -98 -121 -99q-73 0 -99.5 35.5t-26.5 111.5v432h130v-395q0 -45 13 -66q17 -18 40 -18q21 0 34 10t18 29t6.5 33t1.5 37v370h130v-564h-124zM85 775h155l94 -146h-101z" />
    <glyph glyph-name="uacute" unicode="&#xfa;" 
d="M307 0v84h-2q-29 -98 -121 -99q-73 0 -99.5 35.5t-26.5 111.5v432h130v-395q0 -45 13 -66q17 -18 40 -18q21 0 34 10t18 29t6.5 33t1.5 37v370h130v-564h-124zM167 629l94 146h155l-148 -146h-101z" />
    <glyph glyph-name="ucircumflex" unicode="&#xfb;" 
d="M307 0v84h-2q-29 -98 -121 -99q-73 0 -99.5 35.5t-26.5 111.5v432h130v-395q0 -45 13 -66q17 -18 40 -18q21 0 34 10t18 29t6.5 33t1.5 37v370h130v-564h-124zM187 780h125l115 -146h-114l-63 82l-64 -82h-112z" />
    <glyph glyph-name="udieresis" unicode="&#xfc;" 
d="M307 0v84h-2q-29 -98 -121 -99q-73 0 -99.5 35.5t-26.5 111.5v432h130v-395q0 -45 13 -66q17 -18 40 -18q21 0 34 10t18 29t6.5 33t1.5 37v370h130v-564h-124zM216 644h-127v115h127v-115zM412 644h-128v115h128v-115z" />
    <glyph glyph-name="yacute" unicode="&#xfd;" horiz-adv-x="444" 
d="M5 564h137l57 -299q9 -50 19 -150h2q6 70 20 146l57 303h132l-137 -572q-2 -10 -8.5 -35.5t-9 -34t-9 -28.5t-11 -27t-13 -20.5t-18 -18.5t-22.5 -12t-29 -9t-36 -2q-22 0 -60 5v101q3 0 15 -1t19 -1q43 0 43 27q0 24 -12 72zM139 629l94 146h155l-148 -146h-101z" />
    <glyph glyph-name="thorn" unicode="&#xfe;" 
d="M308 194v188q0 97 -59 97q-37 0 -49 -30.5t-12 -94.5v-169q0 -100 63 -100q57 0 57 109zM58 -189v939h130v-245h2q18 40 44.5 57t68.5 17q67 0 101 -47t34 -162v-188q0 -197 -135 -197q-79 0 -113 67h-2v-241h-130z" />
    <glyph glyph-name="ydieresis" unicode="&#xff;" horiz-adv-x="444" 
d="M5 564h137l57 -299q9 -50 19 -150h2q6 70 20 146l57 303h132l-137 -572q-2 -10 -8.5 -35.5t-9 -34t-9 -28.5t-11 -27t-13 -20.5t-18 -18.5t-22.5 -12t-29 -9t-36 -2q-22 0 -60 5v101q3 0 15 -1t19 -1q43 0 43 27q0 24 -12 72zM188 644h-127v115h127v-115zM384 644h-128
v115h128v-115z" />
    <glyph glyph-name="dotlessi" unicode="&#x131;" horiz-adv-x="278" 
d="M204 0h-130v564h130v-564z" />
    <glyph glyph-name="Lslash" unicode="&#x141;" 
d="M474 0h-400v290l-74 -59v127l74 59v333h140v-226l103 88v-128l-103 -88v-286h260v-110z" />
    <glyph glyph-name="lslash" unicode="&#x142;" horiz-adv-x="278" 
d="M74 0v362l-72 -50v95l72 51v292h130v-238l68 48v-96l-68 -48v-416h-130z" />
    <glyph glyph-name="OE" unicode="&#x152;" horiz-adv-x="833" 
d="M405 226v309q0 126 -97 120q-19 -1 -35 -9t-27 -22t-19 -28.5t-12.5 -37.5t-7.5 -39t-4 -42l-1.5 -39t0 -37.5t0.5 -29.5t-0.5 -28.5t0 -36.5l1.5 -39t3.5 -42.5t7 -38.5t12.5 -36.5t18.5 -28t26 -20t34.5 -6.5q42 0 65 18.5t29 44.5t6 68zM545 110h247v-110h-379v73h-2
q-24 -41 -65 -66t-66 -25q-46 0 -82 14t-59 38.5t-39.5 57.5t-23 71t-11.5 78.5t-4 80t0 76.5v13.5v11.5v12q-1 60 8.5 114t31.5 105.5t67.5 82.5t109.5 31q41 0 78 -18.5t57 -58.5h2v2l2 -2v59h375v-110h-247v-190h229v-110h-229v-230z" />
    <glyph glyph-name="oe" unicode="&#x153;" horiz-adv-x="722" 
d="M678 363v-105h-247v-58q-1 -68 11.5 -91.5t43.5 -23.5q62 0 62 65v42h130q1 -111 -45 -159t-158 -48q-68 0 -110 53q-50 -53 -120 -53q-64 -1 -103.5 13.5t-60.5 51t-28 85t-7 127.5q0 46 0.5 70t3 61t8 55.5t15 44.5t24 38.5t35 25.5t49 17.5t64.5 4.5q66 -1 120 -57
q40 57 138 57q90 0 127 -52q48 -67 48 -164zM429 358h119v35q0 46 -13.5 66t-47.5 20q-20 0 -33 -9t-17.5 -27t-6 -31t-1.5 -34v-20zM176 372v-157q0 -57 7.5 -85.5t19 -36t34.5 -8.5q35 0 50 27t14 111v165q-2 52 -15 71.5t-49 19.5q-35 0 -49 -25t-12 -82z" />
    <glyph glyph-name="Scaron" unicode="&#x160;" horiz-adv-x="556" 
d="M489 522h-135v11q0 27 -2.5 46t-10.5 38t-25.5 28.5t-43.5 9.5q-77 0 -77 -70q0 -27 12.5 -48t25.5 -31t42 -28q124 -78 170 -123q35 -34 49 -70.5t14 -86.5q0 -104 -62.5 -160t-168.5 -56q-228 0 -228 228v55h140v-57q0 -113 88 -113q87 0 87 88q0 60 -56 99
q-24 19 -73 50.5t-86 60.5t-62 62q-36 53 -36 115q0 198 220 198q61 0 105 -18.5t65 -42t32.5 -61.5t13.5 -60.5t2 -55.5v-8zM455 946l-115 -146h-125l-113 146h112l64 -82l63 82h114z" />
    <glyph glyph-name="scaron" unicode="&#x161;" horiz-adv-x="444" 
d="M29 186h130q-2 -22 -2 -30q0 -25 5 -40t14.5 -21.5t17 -8t20.5 -1.5h5q24 0 40 13.5t16 35.5q0 4 -2 14q-1 9 -4.5 17t-12 16t-14 12t-18 12t-15.5 10l-71 49q-107 74 -107 178q0 65 50.5 101t143.5 36q181 0 181 -178v-9h-130v13q0 40 -14 57t-46 17q-55 0 -55 -46
q0 -15 8.5 -28t15.5 -19t25 -18l106 -72q28 -16 57 -50t32 -61q2 -26 2 -38q0 -162 -195 -162q-29 0 -57 7t-58.5 24t-49.5 54t-19 89q0 18 1 27zM389 760l-115 -146h-125l-113 146h112l64 -82l63 82h114z" />
    <glyph glyph-name="Ydieresis" unicode="&#x178;" horiz-adv-x="556" 
d="M165 750l79 -197q25 -62 33 -115h2q9 49 46 142l67 170h153l-198 -431v-319h-140v319l-195 431h153zM244 830h-127v115h127v-115zM440 830h-128v115h128v-115z" />
    <glyph glyph-name="Zcaron" unicode="&#x17d;" 
d="M33 0v112l241 465q30 55 39 66q-18 -3 -54 -3h-210v110h410v-112l-241 -465q-30 -55 -39 -66q18 3 54 3h235v-110h-435zM427 946l-115 -146h-125l-113 146h112l64 -82l63 82h114z" />
    <glyph glyph-name="zcaron" unicode="&#x17e;" horiz-adv-x="389" 
d="M367 471l-206 -371h206v-100h-344v102l198 362h-194v100h340v-93zM371 760l-115 -146h-125l-113 146h112l64 -82l63 82h114z" />
    <glyph glyph-name="florin" unicode="&#x192;" 
d="M492 747l-22 -103q-22 12 -42 12q-17 0 -30 -6.5t-20.5 -13.5t-13 -23t-7 -25.5t-4.5 -30t-4 -27.5l-5 -31h111v-95h-124l-48 -295q-27 -159 -61 -224q-17 -33 -52 -51.5t-74 -18.5q-37 0 -87 12l17 108q18 -16 45.5 -15t38.5 24q13 26 23 82l65 378h-111v95h126l16 78
q36 186 178 186q28 0 78 -14q1 -1 3.5 -1t3.5 -1z" />
    <glyph glyph-name="circumflex" unicode="&#x2c6;" horiz-adv-x="333" 
d="M103 790h125l115 -146h-114l-63 82l-64 -82h-112z" />
    <glyph glyph-name="caron" unicode="&#x2c7;" horiz-adv-x="333" 
d="M343 780l-115 -146h-125l-113 146h112l64 -82l63 82h114z" />
    <glyph glyph-name="uni02C9" unicode="&#x2c9;" horiz-adv-x="333" 
d="M340 666h-346v74h346v-74z" />
    <glyph glyph-name="breve" unicode="&#x2d8;" horiz-adv-x="333" 
d="M270 780h65q-9 -70 -53 -107.5t-115 -37.5q-79 0 -124.5 40.5t-43.5 104.5h65q4 -35 30 -52.5t68 -17.5q52 0 77.5 16.5t30.5 53.5z" />
    <glyph glyph-name="dotaccent" unicode="&#x2d9;" horiz-adv-x="333" 
d="M230 644h-127v115h127v-115z" />
    <glyph glyph-name="ring" unicode="&#x2da;" horiz-adv-x="333" 
d="M167 632q-44 0 -75.5 31.5t-31.5 74.5q0 44 32 75.5t75 31.5q44 0 75 -31.5t31 -75.5t-31 -75t-75 -31zM167 796q-24 0 -41 -17t-17 -41q0 -23 17.5 -40t40.5 -17t40.5 17.5t17.5 39.5q0 23 -17.5 40.5t-40.5 17.5z" />
    <glyph glyph-name="ogonek" unicode="&#x2db;" horiz-adv-x="333" 
d="M278 -104v-86q-30 -15 -74 -15q-49 0 -82.5 25.5t-33.5 73.5q0 22 15 44t29 33.5t39 28.5h68v-2q-25 -13 -44 -35t-19 -41t13.5 -31.5t32.5 -12.5q8 0 17.5 3t21.5 8t17 7z" />
    <glyph glyph-name="tilde" unicode="&#x2dc;" horiz-adv-x="333" 
d="M285 764h65q-22 -121 -117 -121q-18 0 -88 22q-53 19 -73 8q-10 -5 -26 -37h-62q4 57 40 90t74 33q27 0 76 -18q49 -19 61 -19q39 0 50 42z" />
    <glyph glyph-name="hungarumlaut" unicode="&#x2dd;" horiz-adv-x="333" 
d="M-17 634l94 146h155l-148 -146h-101zM198 634l94 146h155l-148 -146h-101z" />
    <glyph glyph-name="uni03A9" unicode="&#x3a9;" horiz-adv-x="624" 
d="M151 104v3q-106 130 -106 304q0 144 75.5 242.5t194.5 98.5q63 0 114 -30t82.5 -78.5t48 -106t16.5 -116.5q0 -95 -31.5 -178t-76.5 -136v-3h121v-104h-233v75q41 34 69.5 115.5t28.5 200.5q0 106 -36.5 179t-104.5 73q-67 0 -106.5 -71.5t-39.5 -185.5q0 -110 29 -194
t69 -117v-75h-233v104h119z" />
    <glyph glyph-name="uni03BC" unicode="&#x3bc;" horiz-adv-x="504" 
d="M431 0h-124v84h-2q-32 -104 -117 -79v-194h-130v753h130v-386q0 -55 13 -75q17 -18 40 -18q15 0 25.5 5t17 15.5t10.5 19t5 25t1.5 24.5t0.5 24v366h130v-564z" />
    <glyph glyph-name="pi" unicode="&#x3c0;" horiz-adv-x="550" 
d="M528 447h-63v-300q0 -92 12 -147h-115q-17 36 -17 144v303h-121q-5 -100 -21 -232t-39 -215h-116q24 93 40 224t18 223q-56 0 -86 -10l-14 86q43 34 151 34h380z" />
    <glyph glyph-name="endash" unicode="&#x2013;" 
d="M500 259h-500v110h500v-110z" />
    <glyph glyph-name="emdash" unicode="&#x2014;" horiz-adv-x="1000" 
d="M1000 259h-1000v110h1000v-110z" />
    <glyph glyph-name="quoteleft" unicode="&#x2018;" horiz-adv-x="278" 
d="M197 766v-46q-68 -10 -64 -95h64v-130h-121v119q0 69 26.5 105t94.5 47z" />
    <glyph glyph-name="quoteright" unicode="&#x2019;" horiz-adv-x="278" 
d="M81 479v46q68 10 64 95h-64v130h121v-119q0 -69 -26.5 -105t-94.5 -47z" />
    <glyph glyph-name="quotesinglbase" unicode="&#x201a;" horiz-adv-x="278" 
d="M87 -138v46q38 8 51.5 30t11.5 64h-63v130h120v-119q0 -70 -26 -103.5t-94 -47.5z" />
    <glyph glyph-name="quotedblleft" unicode="&#x201c;" 
d="M208 766v-46q-68 -10 -64 -95h64v-130h-121v119q0 69 26.5 105t94.5 47zM405 766v-46q-68 -10 -64 -95h64v-130h-121v119q0 69 26.5 105t94.5 47z" />
    <glyph glyph-name="quotedblright" unicode="&#x201d;" 
d="M292 479v46q68 10 64 95h-64v130h121v-119q0 -69 -26.5 -105t-94.5 -47zM95 479v46q68 10 64 95h-64v130h121v-119q0 -69 -26.5 -105t-94.5 -47z" />
    <glyph glyph-name="quotedblbase" unicode="&#x201e;" 
d="M293 -138v46q37 9 52 30q11 20 11 64h-63v130h120v-119q0 -70 -26 -103.5t-94 -47.5zM96 -138v46q38 8 51.5 30t11.5 64h-63v130h120v-119q0 -70 -26 -103.5t-94 -47.5z" />
    <glyph glyph-name="dagger" unicode="&#x2020;" 
d="M188 422h-151v112h151v234h128v-234h147v-112h-147v-577h-128v577z" />
    <glyph glyph-name="daggerdbl" unicode="&#x2021;" 
d="M188 77h-153v113h153v230h-153v113h153v235h128v-235h150v-113h-150v-230h150v-113h-150v-238h-128v238z" />
    <glyph glyph-name="bullet" unicode="&#x2022;" horiz-adv-x="420" 
d="M398 375q0 -78 -55.5 -133.5t-133.5 -55.5t-132.5 55.5t-54.5 133.5q0 77 54.5 132t132.5 55t133.5 -55t55.5 -132z" />
    <glyph glyph-name="ellipsis" unicode="&#x2026;" horiz-adv-x="1000" 
d="M233 0h-132v132h132v-132zM566 0h-132v132h132v-132zM899 0h-132v132h132v-132z" />
    <glyph glyph-name="perthousand" unicode="&#x2030;" horiz-adv-x="1111" 
d="M579 366q52 0 85 -14t47 -43.5t18 -56t4 -69.5t-4 -69.5t-18 -56t-47 -43.5t-85 -14q-42 0 -71 10.5t-45 26t-24.5 42t-10.5 48.5t-2 56t2 56t10.5 48.5t24.5 42t45 26t71 10.5zM580 293q-17 0 -28.5 -5.5t-17 -13t-8.5 -24.5t-3.5 -29t-0.5 -38t0.5 -38t3.5 -29
t8.5 -24.5t17 -13t28.5 -5.5t28 5.5t17 13t8.5 24.5t3 29t0.5 38t-0.5 38t-3 29t-8.5 24.5t-17 13t-28 5.5zM937 366q52 0 85 -14t47 -43.5t18 -56t4 -69.5t-4 -69.5t-18 -56t-47 -43.5t-85 -14q-42 0 -71 10.5t-45 26t-24.5 42t-10.5 48.5t-2 56t2 56t10.5 48.5t24.5 42
t45 26t71 10.5zM938 293q-17 0 -28.5 -5.5t-17 -13t-8.5 -24.5t-3.5 -29t-0.5 -38t0.5 -38t3.5 -29t8.5 -24.5t17 -13t28.5 -5.5t28 5.5t17 13t8.5 24.5t3 29t0.5 38t-0.5 38t-3 29t-8.5 24.5t-17 13t-28 5.5zM174 736q52 0 85 -14t47 -43.5t18 -56t4 -69.5t-4 -69.5
t-18 -56t-47 -43.5t-85 -14q-42 0 -71 10.5t-45 26t-24.5 42t-10.5 48.5t-2 56t2 56t10.5 48.5t24.5 42t45 26t71 10.5zM175 663q-17 0 -28.5 -5.5t-17 -13t-8.5 -24.5t-3.5 -29t-0.5 -38t0.5 -38t3.5 -29t8.5 -24.5t17 -13t28.5 -5.5t28 5.5t17 13t8.5 24.5t3 29t0.5 38
t-0.5 38t-3 29t-8.5 24.5t-17 13t-28 5.5zM246 -18h-73l339 766h72z" />
    <glyph glyph-name="guilsinglleft" unicode="&#x2039;" horiz-adv-x="278" 
d="M215 62l-157 142v102l157 141v-112l-95 -75l95 -85v-113z" />
    <glyph glyph-name="guilsinglright" unicode="&#x203a;" horiz-adv-x="278" 
d="M63 62v113l94 81l-94 79v112l157 -141v-102z" />
    <glyph glyph-name="fraction" unicode="&#x2044;" horiz-adv-x="167" 
d="M-94 0h-75l425 738h75z" />
    <glyph glyph-name="Euro" unicode="&#x20ac;" 
d="M464 154v-132q-53 -37 -132 -37q-120 0 -185 83t-80 214h-62l12 52h46v26q0 30 1 45h-59l13 52h51q16 134 81 215t186 81q97 0 160 -54l-31 -129q-29 36 -55 52.5t-65 16.5q-113 0 -136 -182h229l-12 -52h-221q-1 -14 -1 -38q0 -22 1 -33h204l-13 -52h-186
q7 -49 20.5 -87.5t42 -67.5t68.5 -29q79 0 123 56z" />
    <glyph glyph-name="afii61289" unicode="&#x2113;" horiz-adv-x="467" 
d="M405 177l47 -50q-64 -138 -185 -138q-85 0 -125.5 50t-43.5 129q0 9 -1 13l-48 -42l-29 66q65 61 77 74v275q0 127 47.5 193t119.5 66q61 0 92.5 -50.5t31.5 -133.5q0 -167 -175 -362l1 -56q0 -61 21.5 -92.5t57.5 -31.5q59 0 112 90zM213 542v-156q105 139 105 250
q0 43 -11 63.5t-38 20.5q-56 0 -56 -178z" />
    <glyph glyph-name="trademark" unicode="&#x2122;" horiz-adv-x="860" 
d="M774 750v-404h-80v326h-2l-105 -326h-47l-105 326h-2v-326h-80v404h129l81 -239h2l80 239h129zM310 750v-78h-115v-326h-80v326h-114v78h309z" />
    <glyph glyph-name="Omega" unicode="&#x2126;" horiz-adv-x="624" 
d="M151 104v3q-106 130 -106 304q0 144 75.5 242.5t194.5 98.5q63 0 114 -30t82.5 -78.5t48 -106t16.5 -116.5q0 -95 -31.5 -178t-76.5 -136v-3h121v-104h-233v75q41 34 69.5 115.5t28.5 200.5q0 106 -36.5 179t-104.5 73q-67 0 -106.5 -71.5t-39.5 -185.5q0 -110 29 -194
t69 -117v-75h-233v104h119z" />
    <glyph glyph-name="estimated" unicode="&#x212e;" horiz-adv-x="926" 
d="M889 358h-691q-5 0 -5 -4v-209q0 -13 9 -24q111 -114 261 -114q81 0 152 34t123 93h61q-58 -68 -147 -108t-190 -40q-176 0 -301 112t-125 271t125 271.5t301 112.5q177 0 302 -112.5t125 -271.5v-11zM732 386v210q0 15 -10 25q-111 109 -259 109q-149 0 -260 -113
q-10 -10 -10 -26v-205q0 -7 5 -7h530q4 0 4 7z" />
    <glyph glyph-name="partialdiff" unicode="&#x2202;" horiz-adv-x="529" 
d="M98 679l-32 99q70 58 165 58q105 0 178 -102t73 -298q0 -210 -67 -327.5t-189 -117.5q-88 0 -138 74t-50 173q0 128 58.5 204.5t141.5 76.5q46 0 79 -23.5t46 -48.5h1q1 8 1 34q0 100 -42 174.5t-108 74.5q-62 0 -117 -51zM238 98h1q32 0 57.5 37t39.5 89.5t19 111.5
q-8 29 -33.5 54t-61.5 25q-45 0 -74 -55t-29 -128q0 -59 22 -96.5t59 -37.5z" />
    <glyph glyph-name="Delta" unicode="&#x2206;" horiz-adv-x="595" 
d="M26 0v75l205 680h141l196 -677v-78h-542zM147 102h297l-94 304q-6 26 -26 97.5t-25 96.5h-3q-4 -21 -22.5 -85.5t-25.5 -93.5z" />
    <glyph glyph-name="product" unicode="&#x220f;" horiz-adv-x="665" 
d="M638 624h-89v-726h-121v726h-192v-726h-121v726h-89v117h612v-117z" />
    <glyph glyph-name="summation" unicode="&#x2211;" horiz-adv-x="509" 
d="M490 -103h-466v85l220 339l-214 330v90h446v-106h-288v-4l190 -285l-214 -326v-3h326v-120z" />
    <glyph glyph-name="minus" unicode="&#x2212;" 
d="M26 194v110h449v-110h-449z" />
    <glyph glyph-name="uni2215" unicode="&#x2215;" horiz-adv-x="167" 
d="M-94 0h-75l425 738h75z" />
    <glyph glyph-name="uni2219" unicode="&#x2219;" horiz-adv-x="333" 
d="M101 315h132v-132h-132v132z" />
    <glyph glyph-name="radical" unicode="&#x221a;" horiz-adv-x="553" 
d="M554 891l-204 -1036h-96l-134 464l-69 -27l-19 73l162 65l89 -322q17 -89 18 -98l2 -1q13 98 14 105l155 777h82z" />
    <glyph glyph-name="infinity" unicode="&#x221e;" horiz-adv-x="759" 
d="M712 307v-1q0 -78 -46.5 -124.5t-110.5 -46.5q-46 0 -87 24.5t-87 85.5q-43 -54 -84.5 -82t-96.5 -28q-63 0 -108.5 47t-45.5 119q0 74 46 121.5t116 47.5q52 0 93 -27.5t82 -81.5q50 56 74 74q48 35 104 35q65 -1 108 -46t43 -117zM209 203h2q25 0 51 16t40.5 31.5
t41.5 46.5q-29 39 -41.5 54.5t-40 33t-56.5 17.5q-42 0 -66 -28.5t-24 -73.5q1 -41 27.5 -69t65.5 -28zM554 402h-1q-12 0 -24 -3t-24 -11t-20 -13t-20 -18t-16 -17t-16.5 -19.5t-13.5 -16.5q46 -58 74 -79.5t65 -21.5q38 0 61 30.5t23 66.5q0 45 -24.5 73.5t-63.5 28.5z
" />
    <glyph glyph-name="integral" unicode="&#x222b;" horiz-adv-x="390" 
d="M360 904l-13 -89q-14 8 -32 8q-28 0 -46 -26q-25 -35 -25 -179q0 -84 6.5 -249.5t6.5 -262.5q0 -148 -34 -214q-36 -74 -125 -74q-45 0 -71 16l15 92q22 -10 39 -10q26 0 40 21q24 38 24 166q0 98 -7 267.5t-7 258.5q0 93 13 147.5t44 90.5q40 48 114 48q38 0 58 -11z
" />
    <glyph glyph-name="approxequal" unicode="&#x2248;" horiz-adv-x="510" 
d="M430 466l43 -37q-21 -47 -54 -76t-72 -29q-44 0 -103 38q-51 34 -81 34q-15 0 -27 -5.5t-22.5 -18t-16.5 -21t-17 -26.5l-44 37q21 47 56 75.5t78 28.5q13 0 25.5 -2t24 -7t18 -8t18.5 -10.5t14 -8.5q4 -2 15 -9t14.5 -9.5t12 -7t13 -6t11.5 -3t13 -1.5q25 0 42 17.5
t39 54.5zM430 283l43 -37q-21 -47 -54 -76t-73 -29q-43 0 -102 39q-51 34 -81 34q-15 0 -27 -5.5t-22.5 -18t-16.5 -21.5t-17 -27l-44 37q21 47 56 75.5t78 28.5q11 0 22.5 -2t19 -4t18 -7t14 -7t14.5 -9l11 -6q4 -2 17 -10.5t17.5 -11t14 -7t16.5 -6t15 -1.5
q25 0 42.5 17.5t38.5 53.5z" />
    <glyph glyph-name="notequal" unicode="&#x2260;" horiz-adv-x="510" 
d="M376 525l-36 -85h124v-73h-149l-55 -133h204v-73h-230l-45 -108l-56 21l37 87h-125v73h151l54 133h-205v73h231l44 106z" />
    <glyph glyph-name="lessequal" unicode="&#x2264;" horiz-adv-x="510" 
d="M461 106l-410 223v79l410 223v-86l-342 -175v-2l342 -175v-87zM466 -6h-419v74h419v-74z" />
    <glyph glyph-name="greaterequal" unicode="&#x2265;" horiz-adv-x="510" 
d="M53 631l411 -223v-79l-411 -223v87l342 175v2l-342 175v86zM465 -6h-417v74h417v-74z" />
    <glyph glyph-name="lozenge" unicode="&#x25ca;" horiz-adv-x="552" 
d="M504 370l-182 -418h-99l-175 418l182 419h100zM396 367l-98 244q-13 35 -18 70h-4q-6 -34 -19 -70l-101 -238l100 -249q8 -27 16 -66h5q8 42 17 64z" />
    </font>
</defs>
</svg>
