<?xml version="1.0" standalone="no"?>
<!DOCTYPE svg PUBLIC "-//W3C//DTD SVG 1.1//EN" "http://www.w3.org/Graphics/SVG/1.1/DTD/svg11.dtd" >
<svg xmlns="http://www.w3.org/2000/svg" xmlns:xlink="http://www.w3.org/1999/xlink" version="1.1">
<metadata>
Created by FontForge 20170731 at Thu Mar 14 08:41:22 2019
 By Aleksey,,,
gasemraya@gmail.com
</metadata>
<defs>
<font id="Flowers" horiz-adv-x="1339" >
  <font-face 
    font-family="Flowers"
    font-weight="400"
    font-stretch="normal"
    units-per-em="1024"
    panose-1="2 0 5 3 0 0 0 0 0 0"
    ascent="819"
    descent="-205"
    x-height="273"
    cap-height="553"
    bbox="-198.125 -216 1350 748"
    underline-thickness="0"
    underline-position="0"
    unicode-range="U+0020-007A"
  />
<missing-glyph horiz-adv-x="374" 
d="M34 0v682h272v-682h-272zM68 34h204v614h-204v-614z" />
    <glyph glyph-name=".notdef" horiz-adv-x="374" 
d="M34 0v682h272v-682h-272zM68 34h204v614h-204v-614z" />
    <glyph glyph-name=".null" horiz-adv-x="0" 
 />
    <glyph glyph-name="nonmarkingreturn" horiz-adv-x="341" 
 />
    <glyph glyph-name="space" unicode=" " horiz-adv-x="200" 
 />
    <glyph glyph-name="parenleft" unicode="(" 
d="M1350 162q-61 -71 -134.5 -106.5t-146 -38t-150.5 13.5t-153 45.5t-147.5 60t-140 54.5t-125.5 33t-107.5 -9.5t-83.5 -68.5q-15 32 -9.5 63.5t28 55t48.5 23.5q32 52 76 72t94.5 11t108.5 -34.5t123 -61t132 -71.5t141 -63.5t146 -40t150 2t150 59.5z" />
    <glyph glyph-name="parenright" unicode=")" 
d="M-12 156q61 71 134.5 106.5t146 38t150.5 -13.5t153 -45.5t147.5 -60t140 -54.5t125.5 -33t107.5 9.5t83.5 68.5q17 -38 10.5 -68.5t-27.5 -49.5t-46 -19q-35 -49 -80.5 -66t-96 -7t-108 36.5t-121 62t-129.5 71t-139 61.5t-144.5 36.5t-151.5 -7t-155 -66.5z" />
    <glyph glyph-name="A" unicode="A" horiz-adv-x="414" 
d="M300 545q-13 1 -11 -21q1 -2 8 1t10 2.5t-2 -15.5q-172 -223 -258 -342q-24 -2 -42 0t-25 6.5t-13.5 8.5t-7.5 4.5t-7 -4.5q-4 -5 -5.5 -12t1 -15.5t9 -15t22 -12t37.5 -5.5q-13 -19 -16 -25q-16 -36 -20 -56.5t5 -31.5q39 -29 52 -43q5 -4 8.5 -4.5t8 1.5t8.5 2
q16 0 44.5 47t41.5 88q2 7 10 24q45 -4 86 -12q-3 -18 -4 -31q-5 -68 18 -97.5t59 -29.5q12 0 18 2.5t6.5 6.5t-0.5 8t-4 7l-2 3q-25 30 -15 117q25 1 5 32q10 59 33 139.5t40 135.5t16 66q0 18 -17.5 33.5t-34.5 22.5l-16 7q-19 7 -42 7q-2 1 -4 1zM282 323q-6 -25 -14 -75
t-16 -89q-36 5 -72 9q17 31 50 77.5t52 77.5z" />
    <glyph glyph-name="B" unicode="B" horiz-adv-x="447" 
d="M147 545q-1 -1 -2.5 -3t-4 -10.5t-1.5 -20.5q1 -8 -20 -58q-1 -2 -2 -6q-12 -27 -29 -66.5t-44 -102.5t-43 -101q74 149 90 172q-91 -205 -133 -294q1 -10 6 -15q24 -17 51 -46q18 -15 30 -15q7 0 12 6t8.5 16.5t5.5 21t4.5 24.5t4.5 22q4 14 10.5 23.5t14.5 36.5
q7 21 36 109q22 -5 40 -4q9 0 11.5 -6.5t2 -13.5t6 -11t23.5 1q10 3 28 9.5t28.5 9.5t22.5 5t19 -3t9 -16q4 -19 -16 -68t-50 -88.5t-48 -30.5q-18 8 -32 40.5t-19 61.5l-5 28q-5 0 -7 -12q0 -2 -5 -18.5t-4 -27.5q2 -10 5.5 -25.5t19.5 -47t38 -42.5q35 -19 79 6t71 77
q26 53 35 106t-7 71q-10 10 -23.5 16t-22.5 6l-9 1q3 1 8.5 4.5t19 14t24.5 22.5t21 31t13 39q6 26 3.5 52.5t-10.5 46.5t-28.5 30.5t-50.5 4.5q-2 2 -2 -2q-75 -63 -130 -94l23 67q9 24 -16 45.5t-59 21.5zM338 460q9 0 11 -8q7 -17 -30 -59.5t-86.5 -76.5t-75.5 -29
q3 7 4 12q7 7 15.5 17t34.5 38.5t47.5 49t44.5 38t35 18.5z" />
    <glyph glyph-name="C" unicode="C" horiz-adv-x="434" 
d="M378 399q12 13 -45 52t-79 45q-21 5 -57.5 -2t-49.5 -24q-11 -15 -51 -109.5t-73 -199t-19 -127.5q20 -33 37.5 -41t52.5 -9h7q27 0 103 43.5t145 94t85 71.5l-19 -2q-4 -2 -10.5 -5.5l-26 -14t-38.5 -21t-45.5 -25t-50 -26.5t-48 -24t-42.5 -20.5t-32 -13.5t-18 -4
q-13 2 21 99t76 195t51 105q8 6 39.5 -3t58.5 -22z" />
    <glyph glyph-name="D" unicode="D" horiz-adv-x="540" 
d="M204 541q-13 1 -11 -21q1 -1 8 1.5t10 2t-2 -15.5q-4 -8 -12 -21.5t-30.5 -53t-43.5 -76t-47.5 -82.5t-46 -80.5t-35 -62.5t-18.5 -36q-33 -75 -15 -88q38 -28 52 -43q4 -4 7.5 -4.5t8.5 1.5t8 2q8 0 20 12q44 -28 146 -15q55 7 109.5 48t94 96t71 114t47 103t15.5 61
q0 25 -2 43t-9 41t-23.5 40t-42.5 26q-18 7 -51.5 -16t-75 -67t-75.5 -85t-69 -87l84 209q9 24 -12 38.5t-56 14.5q-2 1 -4 1zM471 500q4 -1 7 -3q21 -17 -2.5 -79t-78 -141t-119.5 -146q-106 -108 -180 -92q17 33 25 60q4 12 17 46q37 48 76 96.5t94.5 113.5t99 105
t61.5 40z" />
    <glyph glyph-name="E" unicode="E" horiz-adv-x="369" 
d="M177 537q-1 0 -2.5 -1t-3.5 -8.5t0 -19.5q1 -11 -48 -111.5t-104 -208.5t-61 -127q3 -15 14 -18q5 -2 3 -18.5t1 -20.5l3 -9.5t18 -16.5q7 -1 12 -1q85 -3 129 6q13 2 10 6q-1 1 -2 6t-4 9.5t-8 6.5q-9 4 -38 2.5t-33 3.5q-9 6 -2 28q3 9 5 20.5t2 18.5v7q19 43 61 129
q23 4 56.5 6.5t53.5 4t22.5 5.5t13.5 12q19 14 9 17h-2q-18 3 -133 -3q57 116 86 177q116 20 132 24q3 0 12.5 2t14 3t10 4t8.5 6q3 4 11 8t10 5.5t-2 8.5q-5 5 -22 5.5t-49.5 -2.5t-51.5 -3q-56 -1 -86 11q-33 18 -45 26z" />
    <glyph glyph-name="F" unicode="F" horiz-adv-x="487" 
d="M26 543q-1 0 -3 -1t-5 -5.5t1 -12.5q7 -15 27 -39q3 -3 120 -4q-6 -11 -14 -26l-1 -1q-1 -2 -3 -5q-11 -20 -52 -102h-65q-16 -9 -10.5 -26t26.5 -29q6 -3 19 -6q-63 -127 -76 -157q-16 -36 -20.5 -57t5.5 -32q24 -17 50 -46q18 -15 30 -15q7 0 12 6t8.5 16.5t5.5 21
t4.5 24.5t4.5 22q4 14 10.5 23.5t14.5 36t69 151.5q27 0 66.5 0.5t43.5 0.5q26 0 59 16t46 20q139 39 81 37q-8 0 -108 -3t-156 -4l65 131l2 4q222 1 273 3q31 1 7 21q-8 7 -20.5 13.5t-20 8.5t-20.5 3.5t-25 4.5q-13 5 -48.5 2t-41.5 -3q-4 0 -23 -0.5t-53.5 -2t-62.5 -2.5
q-28 13 -61 13q-7 -3 -10 -14q-135 -1 -151 14z" />
    <glyph glyph-name="G" unicode="G" horiz-adv-x="472" 
d="M283 533q-5 -3 -14 -8t-35.5 -23.5t-51 -40.5t-56.5 -57.5t-58 -75.5q33 17 61 44q-119 -121 -145 -211q-31 -110 99 -197q3 -1 4 -2q21 -15 55 8t55 64q4 9 12 17.5t22 21.5t23 22q77 4 145 13q77 11 8 43q-8 3 -25 11q-14 5 -19 7q-16 8 -101.5 -11.5t-95.5 -18.5
q-13 1 -22.5 5.5t-10.5 6t-7 -2.5q-4 -16 6 -23q11 -7 17 -26q2 -7 62 -6q-29 -33 -55.5 -53t-38.5 -22q-19 -3 -31.5 -3t-20 11.5t-13.5 40.5q-3 21 16.5 56t42.5 63t61.5 72t50.5 58q26 32 61.5 63t57.5 46l23 15q26 -51 -56 -200q4 3 10.5 9.5l24 24t31 35t26 40.5
t15 42.5t-7.5 39t-36 31.5q1 3 1.5 8t-3.5 17.5t-16 22.5t-29.5 16t-29.5 6z" />
    <glyph glyph-name="H" unicode="H" horiz-adv-x="446" 
d="M192 545q-1 -1 -2.5 -3t-4 -10.5t-1.5 -20.5q2 -16 -112 -259q-56 2 -77 9q-40 14 -46 -8q-6 -19 19 -36q6 -4 13 -7q17 -7 71 0q-31 -65 -47.5 -101t-20.5 -48q-11 -34 9 -60t42 -24q18 2 120 248q88 12 138 11q-78 -155 -85 -175q4 -15 14 -18q6 -2 3.5 -18.5
t0.5 -20.5l3 -9.5t19 -16.5q6 -1 11 -1q65 -2 61 11q0 1 -1 2t-3.5 4.5t-3 4t-2.5 4t-2.5 5l-1.5 4.5t-1 5.5t0.5 6.5t2.5 8q3 9 5.5 24t4.5 25l1 10q97 225 185 387q13 23 -10.5 45t-56.5 22q-2 -1 -5.5 -3.5t-7.5 -12t-3 -21.5q2 -16 -115 -247q-71 -5 -139 -8
q61 148 89 225q10 25 -10.5 46t-53.5 21z" />
    <glyph glyph-name="I" unicode="I" horiz-adv-x="170" 
d="M206 524q-9 10 -26.5 17.5t-30.5 9.5l-13 2q4 -24 -21.5 -85.5t-71.5 -141.5q-27 -46 -48.5 -104.5t-30.5 -93.5l-8 -36q4 12 8 17.5t6 5.5h1q-4 -37 25 -96q-5 -5 -15 0.5t-17 13.5l-8 9q5 -16 33 -47q12 -14 26 -19.5t21 -4.5l8 2q4 0 8 1.5t5 2.5l1 2q-18 12 -21.5 36
t5 52t18 49.5t21.5 40.5q14 24 72 161t60 141q10 17 9 32.5t-16 32.5z" />
    <glyph glyph-name="J" unicode="J" horiz-adv-x="317" 
d="M296 516q-89 -47 -130 -67v-14q0 -10 12.5 -21.5t23.5 -3.5q4 3 22 20.5t36 33t28 17.5q-2 -5 -37.5 -62.5t-79 -127t-87 -142t-58.5 -104.5q-2 10 0 23q1 4 5.5 32t8.5 48.5t13.5 46t22.5 38.5q17 18 5.5 34t-32 18.5t-32.5 -3.5q-9 -7 -22.5 -25.5t-27.5 -48.5
t-18.5 -61t11.5 -65.5t57 -59.5v0q38 -28 65 -57q5 -4 19 8t28 31.5t18 35.5q4 14 10.5 23.5t14.5 36.5q7 22 56.5 109t95.5 164l47 76q9 24 -16 45.5t-59 21.5z" />
    <glyph glyph-name="K" unicode="K" horiz-adv-x="436" 
d="M133 545q-1 -1 -2.5 -3t-4 -10.5t-1.5 -20.5q1 -8 -20 -58l-2 -6q-119 -276 -137 -318q-33 -76 -15 -89q24 -17 50 -46q18 -15 30 -15q7 0 12 6t8.5 16.5t5.5 21t4.5 24.5t4.5 22q4 14 10.5 23.5t14.5 36.5q7 22 39 118q10 -78 47 -141t84 -107q34 -33 108 -23
q45 7 46 20q1 10 -37 15q-23 3 -45.5 17t-40 33.5t-33.5 43.5t-26 47.5t-17.5 44t-8 33.5t2.5 17q4 4 37.5 24.5t68.5 47t54 52.5q13 19 26.5 32t18.5 17t8.5 14.5t4.5 30.5q1 24 -8 30.5t-22 3t-26 4.5q-13 7 -16.5 2.5t-2.5 -13.5l1 -8q-22 -39 -88.5 -88.5t-110.5 -73.5
l53 156q9 24 -16 45.5t-59 21.5z" />
    <glyph glyph-name="L" unicode="L" horiz-adv-x="390" 
d="M178 522q6 -37 -108 -226q-48 -79 -77 -137.5t-41 -90.5t-11.5 -55.5t5 -32t15.5 -20.5l3 -3q13 -14 39.5 -17.5t46.5 -0.5l20 3l15 6q65 19 114 28.5t67 9t35.5 0t18.5 1.5q8 2 41 -5q11 -1 11 5q-2 6 -10 10t-14 5l-7 1q-31 13 -70.5 16t-74.5 -2t-66 -11.5t-49 -12.5
l-18 -6q-6 53 44 140q11 18 44.5 86.5t67.5 139.5t36 76q10 17 9 32t-16 32q-9 11 -26.5 18t-30.5 9z" />
    <glyph glyph-name="M" unicode="M" horiz-adv-x="669" 
d="M154 510q-13 0 -11 -21q1 -8 -20 -58q-1 -2 -2 -6q-8 -17 -44 -89l-72 -144t-43 -88q-33 -76 -15 -89q1 -1 10 -7.5t14 -10t13 -10.5t15 -15q4 -4 7.5 -4t8.5 1.5t8 1.5q10 0 18.5 12.5t12 24t9.5 32.5q1 4 1 6q3 11 8.5 16.5t11.5 7.5t13 11t12 26q2 4 4 12q43 43 54 63
q10 22 53.5 82t80.5 97q-81 -180 -97 -228q-8 -23 5.5 -54t34 -52t33.5 -19q7 1 27 35q3 6 14.5 25.5t30.5 47t30 38.5q6 7 60 81t87 103q25 21 55 55q-16 -32 -49.5 -99.5t-60.5 -121.5l-34 -68q-33 -76 -15 -89q39 -28 52 -43q6 -5 18 -2q81 -13 130 1q5 3 11 9
q-31 1 -62 16t-41 33q-7 13 36 119.5t89 206.5l46 101q8 20 -7 25t-53 5h-10q-2 1 -5 1.5t-7 -4.5t-3 -17q-2 -2 -38 -38.5t-95 -99.5t-100 -112q52 129 66 185q5 17 -1 34t-18.5 28t-27 18t-27.5 5.5t-20 -11.5q-112 -128 -198 -222l69 203q9 24 -12 38.5t-56 14.5
q-2 0 -4 1z" />
    <glyph glyph-name="N" unicode="N" horiz-adv-x="434" 
d="M123 548l-3 -3t-4 -10.5t-1 -20.5q1 -8 -20 -57v-1l-3 -6q-8 -19 -59.5 -158t-61.5 -159q-3 -9 -8 -18.5t-9 -17t-7.5 -15t-6 -13.5t-4 -11t-0.5 -8.5t4 -6.5q24 -17 50 -46q18 -15 31 -15q14 0 22 29q10 34 43 65q19 19 63.5 89.5t64.5 95.5q67 88 139 143
q-9 -30 -35 -68q-39 -58 -64 -153t-20 -148q2 -18 13 -30.5t25 -16.5t28 -6t24 -1l9 1q-18 7 -26 23.5t-6 41t8 50.5t18.5 57t22.5 54t22 49.5t16 35.5q13 31 40 66t34 64q5 14 2 24.5t-6.5 17t-12 12t-15 8t-16 6t-14.5 5.5q-24 12 -42 0q-6 -5 -3 -10q4 -7 2 -28
q-185 -212 -269 -304l109 327q9 24 -15.5 45.5t-58.5 21.5z" />
    <glyph glyph-name="O" unicode="O" horiz-adv-x="400" 
d="M230 542q-5 -3 -13.5 -9t-35 -26.5t-51 -43.5t-56.5 -60.5t-57 -76.5q70 64 94 88q-4 -5 -11 -14t-26.5 -35.5t-35.5 -53t-33.5 -63t-26.5 -68.5q-31 -109 99 -196q3 -2 4 -3q23 -15 91.5 10t87.5 63q106 203 131 285q17 58 1.5 85.5t-73.5 46.5q1 3 1.5 8t-3.5 18
t-16 23t-29.5 15.5t-29.5 6.5h-12zM312 450q16 -32 -4.5 -104t-57.5 -141.5t-74.5 -123.5t-51.5 -57q-32 -5 -51 7.5t-27 54.5q-12 73 125 240q25 31 60.5 62t57.5 47z" />
    <glyph glyph-name="P" unicode="P" horiz-adv-x="479" 
d="M436 506q-8 0 -18 -2q-2 2 -2 -2q-17 -15 -100.5 -74t-135.5 -88l38 112q9 24 -12 38.5t-56 14.5q-2 1 -5 1.5t-7 -4.5t-3 -17q1 -8 -20 -57v-1q-2 -4 -2 -5q-8 -18 -44 -90l-72 -144t-43 -88q-33 -75 -15 -88q1 -2 10 -8t14 -9.5t13 -11t15 -14.5q4 -4 7.5 -4.5t8.5 1.5
t8 2q17 0 45 47t41 88l30 90q65 -45 139 -60q29 -6 61 15q6 6 16.5 16t37.5 38.5t48 53.5t39.5 55t21.5 50q4 34 4.5 66t-15.5 55.5t-47 23.5zM413 469q5 0 7 -4q4 -11 -24.5 -58.5t-71.5 -97.5t-73 -66q-24 -12 -55.5 -13.5t-50.5 6.5l1 2q9 8 44 42.5t64 62.5t63.5 59.5
t59.5 49.5t36 17z" />
    <glyph glyph-name="Q" unicode="Q" horiz-adv-x="416" 
d="M246 559q-5 -3 -14 -9t-35 -26.5t-51 -43.5t-57 -60.5t-57 -76.5q71 64 94 88q-11 -14 -28.5 -37t-53.5 -84.5t-50 -112.5q-29 -103 80 -183q-12 -5 -25 -10t-21 -9l-15 -7.5t-9 -4t-3 -0.5q1 3 11 14q23 25 9 25q-9 0 -32.5 -19.5t-41.5 -38.5l-19 -20q0 -21 6.5 -35
t19.5 -16.5t34 18.5q31 32 95.5 51t115 22.5t69.5 -0.5q14 -3 24 -15.5t14 -24.5l4 -11l12 11q1 22 -13 41.5t-28 27.5l-15 9q-15 6 -31 9q30 19 41 40q106 203 131 285q17 58 1.5 85.5t-73.5 46.5q1 3 1.5 8t-3.5 18t-16 23t-29.5 15.5t-29.5 6.5h-12zM328 467
q16 -32 -4.5 -104t-57.5 -141.5t-74.5 -123.5t-52.5 -57q-32 -5 -50.5 7.5t-26.5 54.5q-13 73 124 240q26 31 61.5 62t57.5 47z" />
    <glyph glyph-name="glyph23" unicode="R" horiz-adv-x="423" 
d="M115 515l-2.5 -2.5t-4 -10.5t-1.5 -21q1 -8 -20 -57v-1q-1 -3 -2 -5q-16 -38 -40.5 -94.5t-56.5 -131.5t-40 -93q-33 -75 -15 -88q24 -18 50 -46q18 -16 30 -16q7 0 12 6t8.5 17t5.5 21.5t4.5 24.5t4.5 21q4 14 10.5 23.5t14.5 36.5q7 22 39 118q20 7 22 25q4 10 9 7
t15 -17q3 -4 11 -11q7 -13 9 -27q1 -12 1 -45t2.5 -64t10.5 -51q7 -18 26.5 -39t48 -37.5t60 -16.5t63.5 23q23 18 30 29.5t0 15.5t-17.5 5.5t-20.5 -0.5l-10 -1l9 -11q12 -24 -34 -35q-7 -2 -15 -3q-17 -3 -29.5 2.5t-19.5 19t-11.5 29t-6.5 38.5t-3 41.5t-1.5 43
t-2.5 39.5q34 -4 62 15q9 10 24 25.5t41.5 57t31.5 72.5q6 27 4.5 54.5t-7 49.5t-24.5 33.5t-49 5.5q-2 2 -2 -1q-13 -12 -71 -49t-101 -59l23 67q9 25 -16 46t-59 21zM350 441q8 0 11 -7q7 -20 -20.5 -68t-71.5 -70q-30 -12 -60 -11t-56 9q156 148 197 147zM192 149
l12 -111q-9 15 -12 43t-1 48z" />
    <glyph glyph-name="S" unicode="S" horiz-adv-x="308" 
d="M286 316q1 10 0.5 26.5t-7 46.5t-19.5 38q-21 11 -60 -38.5t-56 -97.5q-7 -19 1 -47.5t21.5 -54t24.5 -61t9 -66.5q-2 -26 -14 -45.5t-28.5 -29t-32.5 -15t-27 -6.5l-11 -1q-1 1 -10.5 0t-27 2t-35 7.5t-34.5 17.5t-25 30q-13 33 -1 59.5t35 41t35 6.5l40 -31
q-27 -42 -53 -76q-13 -18 7 -20q29 -4 60 26q16 14 26 35q8 16 8.5 32.5t-4.5 30.5t-14 31.5t-18.5 33.5t-20 39t-16.5 47q-10 36 6 78.5t44.5 75t56.5 56t44 29.5q20 7 50 -15t51.5 -61.5t14.5 -75.5q-10 -58 -17 -53z" />
    <glyph glyph-name="T" unicode="T" horiz-adv-x="380" 
d="M232 558q-87 0 -163 -10q-68 -8 -146 -50q-21 -11 -21 -15q0 -1 5 -1l57 9q-3 -1 -7 -3t-14.5 -8.5t-18.5 -14.5t-13.5 -21t-3.5 -27q4 -35 22.5 -53t38.5 -21q22 -2 37.5 4t21.5 16.5t9 20.5t2 18v7q-6 -3 -17.5 -4t-19.5 -1h-8q65 56 205 58q-19 -18 -41 -55
q-36 -62 -88 -175.5t-54 -131.5q-1 -8 1 -8.5t5.5 3t6.5 4t4 -5.5t3 -25t4.5 -35t4.5 -22q4 -8 -8 11l-15 23q0 -2 0.5 -6t4 -14.5t9.5 -19t18.5 -16.5t28.5 -11q3 0 8 2.5t10.5 10.5t4.5 20q0 3 -2.5 19.5t1 35t17.5 51.5q13 33 87 156.5t79 150.5q4 22 -10 36q19 -1 58 -4
t47 -3.5t32 1.5q23 4 37 10.5t18.5 15.5t-7 22t-39.5 27q-54 29 -191 29z" />
    <glyph glyph-name="U" unicode="U" horiz-adv-x="374" 
d="M141 545q1 -31 -30 -93t-76 -139.5t-61 -117.5q-13 -30 -17.5 -57.5t-2 -45.5t6.5 -31.5t8 -19.5l5 -6q1 -1 3 -3.5t9 -10.5t13.5 -14t17 -14.5t19 -12t19 -6t18.5 2.5q31 13 109 80q10 -28 23.5 -52t24.5 -28t17.5 -4t9.5 3l3 3q-18 12 -21.5 36t5 52t18 49.5t20.5 40.5
q15 24 63 141.5t50 123.5q10 17 9 32t-16 32q-9 11 -23 18.5t-24 9.5l-9 1q3 -20 -13 -53.5t-61 -112.5q-8 -15 -13 -23q-27 -46 -48.5 -104.5t-30.5 -93.5l-8 -36q4 12 8 17.5t6 5.5h1q-1 -14 3 -36q-22 -18 -52 -35t-48 -25l-19 -8q-16 6 -20.5 24.5t3 46t18.5 56t28 62
t29.5 55.5t25.5 44q36 60 60.5 127.5t9.5 87.5q-10 13 -27.5 20.5t-30.5 9.5z" />
    <glyph glyph-name="V" unicode="V" horiz-adv-x="383" 
d="M99 518q-4 -18 0 -31q4 -10 -5 -38t-43 -113q-10 -23 -30 -72t-32 -79t-25.5 -67t-19.5 -59.5t-3 -32.5q5 -24 33.5 -49t58.5 -35q18 -6 69.5 33t105 97.5t78.5 104.5q3 6 11 21q20 35 31 56.5t30.5 60.5t29 64.5t18 54.5t6 47t-15.5 25q-14 7 -24 9.5t-15 1.5t-8.5 -7.5
t-4 -10.5t-1.5 -13t-1 -11q-1 -5 -24 -49.5t-57.5 -105.5t-70.5 -121.5t-67.5 -105t-43.5 -50.5q-10 -4 -6 15q3 22 64 180q66 177 59 218q-4 28 -16.5 43t-26.5 16t-29 1.5t-25 1.5z" />
    <glyph glyph-name="W" unicode="W" horiz-adv-x="527" 
d="M146 545q1 -31 -30 -93t-76 -139.5t-61 -117.5q-21 -50 -26 -84t-1 -46t15 -30q9 -14 29 -35t32 -23q22 -4 128 136q-1 -20 3 -38q9 -31 16 -41q31 -35 52 -49q18 -9 35 -9t26 6q4 2 8.5 14t15.5 17q9 5 28.5 6t28.5 6q15 9 53.5 60.5t49.5 84.5q26 49 41 98
q13 40 15 83.5t-12.5 83t-47.5 51.5q-44 13 -53 0q-8 -6 -1.5 -12.5t5.5 -10.5q-1 -8 -0.5 -20.5t5.5 -8.5q2 1 12 18t18 16l-1 -1q20 -38 -10.5 -130t-78 -175t-79.5 -118q-34 -31 -36 34v15q0 29 22.5 71.5t23.5 47.5q2 10 -7 17.5t-25.5 14.5t-21.5 10q-8 6 -14.5 6
t-9.5 -3.5t-1 -7.5q1 -4 0 -9.5t-3 -10.5l-2 -4q-15 -18 -37 -44v0l-133 -160q-5 4 -6 13t3 22.5t9 27.5t15 33.5t17.5 34t20 36t19 32.5t17.5 30q5 8 7 12q34 56 61 143.5t12 108.5q-22 28 -70 31z" />
    <glyph glyph-name="X" unicode="X" horiz-adv-x="472" 
d="M43 528l-12 -1q6 -30 32 -46q10 -6 102 -152q-123 -78 -168 -135q-32 -40 -60 -71q44 36 71 60q10 9 23 22.5t20 20t12 8.5q5 1 1 -5q-2 -3 -12 -12q-10 -11 -15 -16q-3 -4 -67.5 -71.5t-73.5 -80.5q-12 -16 -12 -8q1 9 11.5 22t1.5 18q-7 -7 -15.5 -14.5t-12 -11
t-7 -7.5t-5 -7t-1.5 -7q-1 -7 3.5 -8t10.5 1t11 -1.5t6 -14.5q1 -23 11.5 -27.5t45.5 -4.5q19 0 37 15.5t51.5 55t63.5 67.5q24 22 138 103q137 -213 176 -233q33 -14 40.5 -9t1.5 19l-7 14q-83 122 -165 242q154 111 232 183t30 91q-185 -83 -332 -170q-76 112 -88 132
q-24 38 -79 39zM542 527v0v0z" />
    <glyph glyph-name="Y" unicode="Y" horiz-adv-x="425" 
d="M426 533q-23 -24 -60.5 -62t-117.5 -117.5t-134 -127.5t-56 -37q-3 15 71.5 166.5t73.5 163.5q-2 7 -8.5 12t-18.5 6t-21.5 1.5t-24 -0.5t-18.5 -1q-11 0 -11 -4.5t6 -8.5l5 -5q0 -7 -78 -147.5t-74 -152.5q2 -3 5 -14.5t7 -22t9 -24t11 -23t13 -16.5t15.5 -6.5t16.5 8.5
q22 21 43.5 26t43.5 23q28 23 136 137q-147 -256 -195 -278q-27 -11 -40.5 -5.5t-17.5 17.5l-4 12q0 -3 -1 -9t1.5 -21t11.5 -26.5t33 -22.5t60.5 -13.5t87 46t97 119.5t88 146.5t67.5 131.5t28 70q3 18 -9.5 33t-26.5 20z" />
    <glyph glyph-name="Z" unicode="Z" horiz-adv-x="371" 
d="M411 533q-30 12 -180 6.5t-165 -17.5q-9 -6 -20.5 -6t-19.5 3l-7 3q1 -27 19 -43.5t48.5 -20t63 -2t69 9t58.5 13.5t40 11q-33 -11 -138.5 -114t-196 -203t-92.5 -112q-1 -10 1.5 -20t5.5 -16l3 -5q-2 -24 7.5 -39.5t30 -21.5t44 -7t56 3.5t58.5 9t58 11t50 8.5
q41 6 136 -12q36 -6 36 -1q1 8 -43 40q-6 4 -12 9q-34 24 -67 35.5t-66.5 9.5t-54.5 -6t-55 -15q-4 -1 -7.5 -2t-6 -2t-5.5 -3q-14 -5 -16 -3.5t3 17.5q13 32 76.5 99t133 129.5t131.5 120.5t71 74q9 14 11 23t-3.5 14t-12 7.5t-19.5 6.5t-23 8zM-80 56q-2 -2 -4 -4.5
l-2 -2.5q-2 -2 -2 -3q1 1 2 3q1 1 6 7q135 168 241 278q96 100 137 115q-28 -26 -73 -69.5t-146.5 -148.5t-158.5 -175z" />
    <glyph glyph-name="a" unicode="a" horiz-adv-x="315" 
d="M144 283q-25 0 -51 -7.5t-35 -20.5q-3 -4 -13 -16t-20.5 -24.5t-24 -31t-23 -34.5t-18 -34.5t-9 -31.5t4.5 -26q23 -38 51.5 -50t56.5 6q27 18 76 77q-4 -12 -8 -27q-5 -18 1 -31.5t16 -19t24 -9t19.5 -3.5h9.5q16 0 50 46t60 92l27 46l-4 7q-30 -26 -62.5 -72.5t-44 -67
t-18.5 -34.5q-8 5 2.5 24.5t22 43.5t5.5 35q-6 13 -19 20.5t-23 8.5l-10 1l-19 -2q-5 -4 -12.5 -12.5t-28.5 -28.5t-38 -35.5t-34.5 -27.5t-25.5 -11q-18 3 47 86.5t86 101.5q8 6 18 -2t16 -19l6 -11q15 15 0 42q-3 7 -8 18t-7.5 15.5t-8 9.5t-14.5 7q-8 2 -20 2z" />
    <glyph glyph-name="b" unicode="b" horiz-adv-x="361" 
d="M118 526q14 -17 13 -45t-16.5 -61.5t-34.5 -72.5t-41 -77.5t-36 -77.5t-18.5 -71.5t10.5 -60.5t50 -44l16 26t27 45q14 19 34.5 45t63 72t64.5 56q-9 -34 -25 -68q-26 -56 -49.5 -94.5t-35.5 -30.5q-24 19 -27 14q-2 -2 -2 -9q1 -19 21.5 -41t51.5 -22v0q19 0 36 13
q11 9 40 37.5t67 66.5l53 53l-7 21q-44 -46 -86 -85q28 51 32 87q1 21 0 39t-16 32t-46 19q-54 -41 -111 -96q23 47 38.5 88t24 85t4 76t-28 54.5t-66.5 26.5z" />
    <glyph glyph-name="c" unicode="c" horiz-adv-x="229" 
d="M183 200q15 15 0 42q-4 7 -8.5 18t-7 15.5t-8 9.5t-14.5 7q-21 6 -57.5 -1.5t-48.5 -24.5q-24 -31 -48 -97.5t-4 -99.5q49 -82 97 -50q27 18 89 79.5t87 94.5l-19 -2l-8.5 -8.5t-22 -21t-32 -29.5t-35 -31.5t-35 -29.5t-28.5 -19.5t-19 -6.5q-12 2 5 46t42.5 89t34.5 52
q8 7 18 -1t16 -20z" />
    <glyph glyph-name="d" unicode="d" horiz-adv-x="429" 
d="M395 493q-7 -1 -8 -8t0.5 -15.5t-2.5 -14.5q-36 -56 -111 -209q-25 24 -62.5 32.5t-73 2t-59.5 -23.5q-55 -39 -85.5 -83t-18.5 -74q18 -46 47 -74q2 -3 6 -7t14.5 -10.5t20.5 -7.5q12 1 24 20q5 6 32.5 34t65.5 66.5t59 60.5q-24 -51 -40 -88q-5 -15 -7.5 -29t-2 -28
t8 -23.5t22.5 -12.5q10 0 19 3v-3q86 67 201 174v22q-87 -77 -142 -119q33 62 91.5 182.5t64.5 138.5q6 16 4.5 29.5t-8 23t-13.5 16t-12 9.5l-6 4q-21 12 -29 12zM263 222v0q-94 -77 -165 -138q-26 -23 -36 -28.5t-15 -3.5q-19 10 19 58q37 40 53 53q76 60 144 59z" />
    <glyph glyph-name="e" unicode="e" horiz-adv-x="266" 
d="M112 292q-6 -3 -17 -10t-38 -32t-47 -53q-34 -46 -41.5 -65t-1.5 -38q6 -17 15.5 -34.5t30 -35t43.5 -16.5q33 1 102.5 56t134.5 119l-13 7q-1 -1 -52.5 -43t-103.5 -80t-65 -38q-10 0 -13.5 3.5t-1.5 7.5l2 4q4 2 12.5 6t30.5 17t40.5 26.5t38 33.5t29 39.5t7 43.5
t-21.5 45zM166 223q14 -29 0 -60q-13 -29 -110 -86q53 92 110 146z" />
    <glyph glyph-name="f" unicode="f" horiz-adv-x="202" 
d="M134 408q-5 0 -10 -1.5t-7 -2.5l-3 -2q11 -12 -44.5 -103t-119.5 -189.5t-68 -118.5q-6 -29 -3.5 -50.5t10.5 -36.5t16.5 -24.5t14.5 -13.5l7 -4q3 -2 7.5 -4t17 -0.5t23.5 12.5q21 23 57 109.5t43 164.5l7 14v-1l12 22l129 -4l11 21q-61 -1 -130 -1q51 83 60 98
q19 30 22.5 52t-3.5 34t-22 21q-13 8 -27 8zM53 106q-26 -160 -94 -217q-9 -7 -17 10q31 69 111 207z" />
    <glyph glyph-name="g" unicode="g" horiz-adv-x="377" 
d="M164 284q-50 0 -87 -27q-55 -39 -85.5 -83t-18.5 -74q19 -49 52 -81q11 -11 16.5 -14.5t15 -2t24.5 11.5q5 4 24.5 24.5t50 53t49.5 52.5q-8 -17 -18 -35q-9 -17 -31 -62q-2 -5 -6.5 -14.5t-8.5 -18.5t-7 -14q-5 -3 -11 -6q-60 -31 -82.5 -53t-17.5 -46q6 -21 31 -34.5
t43 -13.5q54 0 110 86q24 36 50 91l6 12q88 69 144 143h2l-16 10h-1q-41 -55 -111 -115q14 39 11.5 84t-16.5 61q-33 66 -112 65zM241 213l4 -1q-8 -7 -149 -128q-26 -23 -36 -28.5t-15 -3.5q-19 10 19 58q37 40 53 53q31 24 69 37t55 13zM121 -27q-41 -80 -60 -83
q-2 -1 -4 -1q-13 0 -15 10q-4 13 13 29.5t66 44.5z" />
    <glyph glyph-name="h" unicode="h" horiz-adv-x="414" 
d="M111 511q1 -3 1.5 -8t-0.5 -22.5t-4.5 -38t-13.5 -54.5t-25 -72q-13 -30 -29 -61.5t-28 -52.5t-23.5 -43t-17 -38.5t-5.5 -34t9 -32.5q0 -1 1 -3t4.5 -7t7 -9.5t8 -10.5t9.5 -10.5t10.5 -8t11 -4.5t11 1t9.5 7q47 56 137 149t108 112h-1q-2 -16 -18 -41.5t-33 -49
t-31 -55.5t-14 -60q0 -18 7.5 -30t18 -17t21 -7.5t18.5 -1.5h7l9 1q120 126 165 170l-7 21q-120 -125 -151 -137q1 2 12 19.5t18 29.5q6 10 16 24.5t17.5 26t15 24.5t11 23t3 20t-6.5 16q-11 12 -27.5 21.5t-27.5 12.5l-11 4l-1 -1l1 1l-22 -4q-162 -160 -202 -206
q6 10 16 26.5t36 62.5t45 85.5t33.5 82t12.5 64.5q-7 60 -32.5 88t-78.5 28z" />
    <glyph glyph-name="i" unicode="i" horiz-adv-x="168" 
d="M211 474q-8 -1 -21 -10q-18 -14 -55 -33.5t-52 -20.5q-31 5 -35 -10q-4 -20 35 -50q29 -21 56 15q29 41 68 89q17 21 4 20zM49 293l-3 -1q-5 -28 -15.5 -51t-39.5 -71q-17 -32 -14.5 -68t22.5 -64.5t47 -28.5q99 126 144 170l-7 21l-73 -84q-57 -61 -64 -53q-8 6 -7 18
t6 23t14.5 27t18.5 30t18.5 32t14.5 33q4 16 4 27t-7 18.5t-13.5 12t-17 6.5t-16.5 2.5t-12 0.5z" />
    <glyph glyph-name="j" unicode="j" horiz-adv-x="145" 
d="M239 474q-9 0 -23 -10q-18 -14 -54.5 -33.5t-52.5 -20.5q-31 5 -34 -10q-5 -20 34 -50q29 -21 56 15q29 41 68 89q16 20 6 20zM68 294q-9 0 -14 -1h-1l-1 -2q-50 -110 -85 -176q-9 -17 -31 -62q-12 -25 -18 -35q-5 -4 -11 -7q-116 -60 -104 -109q5 -22 30.5 -35.5
t43.5 -13.5q54 0 110 86q25 37 73 141l6 12q86 67 97 92l2 2l-16 10l-1 -2q4 -7 -64 -64l22 44q18 31 22.5 52t1 31t-13.5 21q-14 16 -48 16zM-95 -9q-46 -91 -64 -95h-5q-12 0 -15 10q-3 13 17 35.5t67 49.5z" />
    <glyph glyph-name="k" unicode="k" horiz-adv-x="363" 
d="M131 511l-3 -3t-4 -11t-1 -21q1 -11 -35.5 -93.5t-78.5 -173.5t-48 -109q-12 -34 8.5 -60.5t42.5 -23.5q13 2 70 137q41 -144 93 -144q29 0 54 15q29 18 69.5 52.5t65.5 60.5l26 26l-9 16q-18 -21 -82 -76t-81 -56q-11 -1 -22.5 21t-16.5 44l-6 22q4 0 10.5 1t25 5.5
t33.5 12t30.5 24t22.5 37.5q8 23 5.5 39.5t-8.5 27t-17.5 17t-20.5 9t-19 3.5q-5 1 -9 1q-8 0 -11 -3t-7 -12t-10 -16q-7 -10 -32.5 -33.5t-47.5 -42.5l-22 -19l-1 -1q49 119 100 259q9 25 -11 46.5t-53 21.5zM229 266q3 0 4.5 -3.5t0 -9.5t-3 -11t-3.5 -10q-3 -7 -25.5 -28
t-52 -35t-42.5 0q93 81 114 94q5 3 8 3z" />
    <glyph glyph-name="l" unicode="l" horiz-adv-x="194" 
d="M126 496l-3 -3t-4 -10.5t-1 -20.5q2 -12 -35 -94.5t-79 -173t-48 -109.5q-11 -33 16 -60t50 -24l2 1q11 5 184 167v22q-99 -107 -159 -150q53 106 157 388q9 24 -18.5 45.5t-61.5 21.5z" />
    <glyph glyph-name="m" unicode="m" horiz-adv-x="484" 
d="M498 191q-6 -9 -17 -23.5t-34.5 -44.5t-41 -47.5t-22.5 -12.5q-8 6 -7 18t6 23t14.5 27t19 30t19 32t14.5 33q6 21 2 34.5t-15 20.5t-23 9.5t-21 1.5h-9q-2 -11 -41 -70t-80 -111.5t-47 -47.5q-8 6 -7 18t6 23t15 27t19 30t18.5 32t14.5 33q6 21 2 34.5t-15 20.5
t-22.5 9.5t-21.5 1.5h-9q-1 -6 -17.5 -32.5t-40 -60.5t-47.5 -66.5t-42 -53t-22 -16.5q-8 6 -7 18t6 23t14.5 27t19 30t19 32t14.5 33q6 21 2 34.5t-15 20.5t-23 9.5t-21 1.5h-9q-4 -28 -14.5 -51t-40.5 -71q-18 -29 -18.5 -67.5t15.5 -66t43 -27.5q67 73 121 142
q-17 -45 -2.5 -93.5t50.5 -48.5q66 71 118 139q-14 -45 0.5 -92t49.5 -47q110 126 150 178z" />
    <glyph glyph-name="n" unicode="n" horiz-adv-x="338" 
d="M68 290q-6 0 -11 -1.5t-7 -2.5l-2 -2q10 -12 -6.5 -42t-44 -68t-34.5 -56q-8 -25 -5.5 -43.5t12.5 -31t20.5 -20t18.5 -11.5l9 -3v0q4 7 15.5 23t39 53t53 69t55.5 62t50 40q-8 -19 -43.5 -69t-42.5 -69q-8 -25 -5.5 -43.5t12.5 -31t20.5 -20t19.5 -11.5l8 -3
q120 126 165 170l-7 21q-94 -98 -137 -129q18 39 59 104q19 30 22.5 52t-3.5 34t-23 21q-11 7 -22.5 7.5t-17.5 -2.5l-6 -3q-102 -87 -169 -170q15 27 36 61q20 30 23.5 52t-3.5 34t-23 21q-13 8 -26 8z" />
    <glyph glyph-name="o" unicode="o" horiz-adv-x="258" 
d="M123 293h-3q-31 -2 -70.5 -48t-70.5 -101q-22 -38 -1.5 -76t55.5 -60q19 -12 60.5 31t86.5 106q17 -3 42.5 7t42.5 20l17 11l-12 10q-32 -11 -72 -23q14 21 21 33q0 17 -6 34q-6 15 -31.5 35.5t-58.5 20.5zM194 241q1 -1 3 -3.5t4.5 -10.5t0.5 -17t-23 -40
q-6 3 -6.5 11.5t2.5 18t8 20t7.5 15.5t3.5 6zM160 207q-6 -36 7 -53q-32 -46 -64.5 -80.5t-45.5 -31.5q-26 6 10 56t93 109z" />
    <glyph glyph-name="p" unicode="p" horiz-adv-x="333" 
d="M41 293q-2 -1 -3.5 -3t-4 -10.5t-0.5 -20.5q1 -15 -106.5 -192.5t-114.5 -199.5q-12 -34 2 -53.5t35 -16.5q14 1 82 115q8 12 52.5 75t117 151t115.5 117q-4 -8 -30.5 -57t-37.5 -76q-1 -3 -3 -7q-71 -47 -101 -82q1 -1 3 -3.5t8 -9.5t12.5 -12t16.5 -12t19.5 -9.5t22 -4
t24.5 3.5q33 12 67.5 59t50.5 94q38 21 80 41l-7 14q-35 -17 -67 -34q0 2 14 36.5t14 35.5q0 23 -15.5 40t-30.5 18l-27 2q-16 -17 -42 -44.5t-87 -98t-100 -120.5q19 32 59 109t46 87q13 23 -9 45.5t-55 22.5zM131 87q-29 -48 -67 -54q24 24 67 54z" />
    <glyph glyph-name="q" unicode="q" horiz-adv-x="366" 
d="M126 294q-36 0 -74.5 -43.5t-70.5 -100.5q-22 -38 2 -77.5t61 -63.5q24 -15 104 71q-45 -61 -85.5 -145.5t-26.5 -110.5q9 -17 25 -28.5t31 -11.5h8h8.5t8.5 0.5t9.5 1.5t9 3t9.5 5.5t9 8t10 10.5q23 28 99 157t122 197l-9 17q-25 -32 -169 -250q-74 -112 -82 -112
q-2 0 0 7q8 29 84.5 146t86.5 152q6 14 3.5 25.5t-5.5 19t-10.5 13t-13.5 8.5t-13.5 4.5t-10.5 2t-4 0.5l-18 2q-2 -3 -7 -9t-18.5 -22.5t-26.5 -31.5t-30 -33t-30.5 -31.5t-26 -22.5t-17.5 -9q-14 0 17.5 49t71 98.5t47.5 52.5q16 5 34 -16q9 35 0 45q-7 8 -40.5 15
t-71.5 7z" />
    <glyph glyph-name="glyph49" unicode="r" horiz-adv-x="304" 
d="M41 284q-3 0 -5.5 -2t-3.5 -4l-1 -2q1 -13 -8 -39t-18.5 -46t-26.5 -53.5t-21 -41.5q-12 -22 -10 -41.5t8 -30.5t15 -17q14 -8 31 -6v0q13 19 32 46.5t68.5 89.5t84.5 93q-18 -34 -23 -53q-8 -25 17.5 -52t50.5 -24q16 3 40 23.5t40 39.5l16 20l-12 10q-5 -8 -13 -19
t-29 -30.5t-37 -20.5q5 15 15 35q9 17 13.5 28t8 22.5t3 20.5t-4.5 17q-2 3 -6 12.5t-7 13.5t-9.5 8.5t-16 2.5t-22.5 -10q-69 -57 -139 -131q11 23 19 38q9 19 12 33t-2.5 24.5t-9 15t-16 12.5t-14.5 10q-11 9 -19 8z" />
    <glyph glyph-name="s" unicode="s" horiz-adv-x="200" 
d="M66 305q-30 0 -46 -15q-12 -12 -17.5 -36t-4.5 -60.5t3.5 -58.5t7.5 -61q-52 -39 -78.5 -62.5t-44 -49.5t1.5 -41.5t72 -22.5q170 12 128 203q63 46 143 79l-16 17q-82 -40 -132 -74q-6 25 -19.5 63.5t-20.5 61.5t-4 28q6 9 25.5 -2t37.5 -38.5t21 -56.5q39 18 53.5 37
t5.5 34t-28 28t-43.5 19.5t-44.5 7.5zM12 63q5 -51 -4 -74.5t-45 -24.5q-48 -4 -9 42q19 22 58 57z" />
    <glyph glyph-name="t" unicode="t" horiz-adv-x="198" 
d="M105 507q1 -3 1.5 -7.5t-0.5 -22t-4.5 -38t-13.5 -55t-25 -72.5l-0.5 -0.5l-0.5 -0.5l-75 1l-27 -23h19h39.5h34.5q-12 -26 -27 -54.5t-26 -47t-21 -39.5t-14.5 -36t-4 -31t8.5 -31q5 -6 14.5 -14.5t34.5 -21t45 -9.5q15 3 32 17t40 42t38 49t44 62q6 9 9 14l-22 -3
q-11 -13 -28 -31.5t-52.5 -50.5t-50.5 -34q76 121 117 219l258 1l9 38q-61 -14 -258 -17q20 54 17 80q-6 60 -32 88t-79 28z" />
    <glyph glyph-name="u" unicode="u" horiz-adv-x="324" 
d="M45 293l-3 -1q-5 -28 -15.5 -51t-39.5 -71q-17 -32 -14.5 -68t22.5 -64.5t47 -28.5q48 63 98 122q-6 -44 15 -83t53 -39q100 126 145 170l-8 21l-73 -84q-56 -61 -64 -53q-8 6 -7 18t6 23t14.5 27t19 30t19 32t14.5 33q6 21 2 34.5t-15 20.5t-22.5 9.5t-21.5 1.5h-9
q-4 -28 -14.5 -51t-39.5 -71q-102 -118 -112 -107q-8 6 -7 18t6 23t14.5 27t18.5 30t18.5 32t14.5 33q4 16 4 27t-7 18.5t-13.5 12t-17 6.5t-16.5 2.5t-12 0.5z" />
    <glyph glyph-name="v" unicode="v" horiz-adv-x="260" 
d="M285 283q-18 -20 -45.5 -50t-88.5 -89.5t-91 -79.5q4 12 16 45.5t18.5 52t12 41.5t4.5 36q-1 24 -24 35t-46 10l-22 -1q8 -16 -3.5 -53t-29 -81t-19.5 -65q-3 -26 5 -45t18.5 -27t22.5 -10q8 -2 16.5 -2.5t13.5 -0.5l5 1q47 60 70 86q21 24 99.5 103.5t83.5 84.5z" />
    <glyph glyph-name="w" unicode="w" horiz-adv-x="392" 
d="M331 291q-5 0 -8 -2q-3 -1 -4 -1.5t-1.5 -1.5t-0.5 -3.5t0.5 -5.5t1 -9t0.5 -13t-0.5 -18.5t-1.5 -24.5q-2 -38 -28 -87t-54.5 -80.5t-41.5 -28.5q-19 6 -18.5 19.5t21.5 50.5l3 6q9 15 13.5 23t11 21t9 21t5 17t1.5 15.5t-4 11.5q-7 9 -19.5 14.5t-21.5 7.5l-9 1
q-47 -72 -88 -117q-37 -42 -70 -58q15 42 68 126q20 30 23.5 52t-3.5 34t-23 21q-12 7 -23.5 7.5t-16.5 -2.5l-6 -3q10 -12 -6.5 -42t-44 -68t-34.5 -56q-8 -25 -5.5 -43.5t12.5 -31t20.5 -20t18.5 -11.5l9 -3v0q1 1 22 23t55.5 59t57.5 66q-31 -47 -31 -63q-1 -17 7 -35
t25 -33t39 -19q37 -7 87.5 18t77.5 70t34 97.5t-9 66.5q-30 32 -50 32z" />
    <glyph glyph-name="x" unicode="x" horiz-adv-x="344" 
d="M216 292q-2 0 -3 -2q-3 -4 -9 -9.5t-17.5 -13t-21 -14t-27 -17t-28.5 -17.5q-8 17 -15 27q-17 23 -33.5 34t-24.5 11l-8 -1q-2 -2 -4 -5t-5.5 -10.5t2.5 -10.5l10 -10t13.5 -13t10.5 -11q2 -3 17 -35q-37 -26 -61 -48q-30 -29 -52 -63t-28 -55l-7 -20q31 0 63 9.5
t48 26.5q10 11 79 69q61 -113 90 -105q19 6 61 51.5t73 88.5l32 43l-15 2q-5 -6 -13 -16.5t-29.5 -38t-40 -49t-38 -39.5t-29.5 -19q-14 -1 -28 26t-35 80q48 41 70 62q30 30 26 66q-1 7 -9 16.5t-14 9.5z" />
    <glyph glyph-name="y" unicode="y" horiz-adv-x="326" 
d="M256 273q-4 0 -6 -1h-2v-1q-12 -16 -32 -43t-62.5 -81.5t-77 -86.5t-45.5 -23q-8 7 -8 17.5t5.5 22.5t15 27.5t19 30.5t19.5 32.5t15 32.5q6 22 2 36t-15 21.5t-23 10.5t-21 4h-9q-5 -30 -16 -56t-39 -71q-16 -33 -13.5 -67t22.5 -60.5t47 -26.5q34 27 104 106
q-9 -16 -30 -59q-3 -6 -11 -23.5t-11 -23.5l-12 -6q-59 -31 -82 -53t-17 -46q5 -21 30.5 -34.5t43.5 -13.5q53 0 110 86q25 37 73 141l6 11q79 62 114 109l2 2l-16 10l-1 -2h-1q-11 -22 -80 -81q13 27 22 44q18 32 22.5 52.5t1 30.5t-13.5 22q-9 10 -30 10zM71 -36
q-41 -80 -60 -83q-2 -1 -5 -1q-12 0 -15 10q-3 12 14 29t66 45z" />
    <glyph glyph-name="z" unicode="z" horiz-adv-x="314" 
d="M150 283q-43 0 -89.5 -7.5t-75.5 -19.5q-9 -11 0 -31q1 -4 5 -16.5t9 -16.5t16 -4q10 0 61 32t71 29q15 -3 -29.5 -39t-106.5 -83.5t-76 -67.5q-7 -9 -8.5 -16.5t3.5 -13t9.5 -9t16.5 -9.5t17 -10q11 -6 41.5 11.5t73 46t64.5 38.5q-9 -44 -29 -97q-1 -1 -3.5 -2.5
t-3.5 -1.5q-111 -63 -96 -109q10 -29 48 -37q8 -1 17 -1q41 0 68 30q19 23 42 70t34 89q26 17 45 35.5t27.5 31t22.5 36.5t23 38l1 2l-8 10l-2 -2q-28 -56 -49.5 -83.5t-56.5 -52.5q8 41 -4 54t-28.5 19t-25 5t-11.5 0l1 -2q-64 -46 -94 -52q-9 -2 9 15q9 8 37 33
q108 94 118 124q6 17 -18 25.5t-66 8.5zM158 99v-2l-3 1q2 1 3 1zM116 -18q-25 -63 -37 -78q-11 -14 -20 -21t-12 -6t-5 1q-35 37 74 104z" />
    <glyph glyph-name="r" horiz-adv-x="1024" 
d="M234 596q-3 0 -5.5 -2.5t-3.5 -4.5l-1 -2q1 -13 -8 -38.5t-18.5 -46t-26.5 -53.5t-21 -41q-12 -23 -10 -42t8.5 -30.5t14.5 -16.5q14 -10 31 -7v0q12 18 32 46.5t69 90.5t84 93q-18 -35 -23 -54q-7 -25 18.5 -52.5t49.5 -22.5q16 2 46.5 34.5t52.5 64.5l22 31l-12 11
q-2 -5 -7 -13t-18.5 -28t-26 -35.5t-27 -28.5t-25.5 -14q5 15 15 35q9 17 13.5 28t8 23t3 20.5t-4.5 16.5q-2 3 -6 12.5t-7 13.5t-9 8.5t-16 2.5t-23 -10q-68 -57 -139 -131q12 23 19 38q9 19 12 33.5t-2 24.5t-9 14.5t-16.5 13t-14.5 9.5q-11 9 -19 9z" />
    <glyph glyph-name="R" horiz-adv-x="1024" 
d="M520 748q-1 -1 -2.5 -3t-4 -10.5t-1.5 -20.5q1 -8 -20 -58q-1 -2 -2 -6q-118 -275 -137 -318q-33 -76 -16 -89q24 -17 51 -46q18 -15 30 -15q7 0 12 6t8.5 16.5t5.5 21t4.5 24.5t4.5 22q4 14 10.5 23.5t14.5 36.5q7 22 39 117q19 7 22 25q4 11 9 7.5t15 -16.5
q3 -4 11 -11q7 -13 9 -28q1 -11 1 -44t2.5 -64.5t10.5 -50.5q7 -18 26.5 -39t48 -37.5t60 -17t63.5 22.5q23 18 30 30t0 16t-17.5 5t-20.5 0l-10 -1l9 -11q12 -24 -34 -36q-7 -1 -15 -3q-17 -3 -29.5 2.5t-19.5 19t-12 29.5t-6.5 39t-2.5 41.5t-2 43t-2 38.5q34 -3 62 16
q9 9 24 25t41.5 57t31.5 72q6 27 4.5 54.5t-7.5 49.5t-24.5 33.5t-48.5 6.5q-2 2 -2 -2q-14 -11 -71.5 -48.5t-100.5 -58.5l23 67q9 24 -16 45.5t-59 21.5zM755 674q8 0 11 -7q7 -20 -20.5 -68t-71.5 -71q-30 -12 -60 -11t-56 10q156 148 197 147zM597 382l12 -112
q-9 16 -12 44t-1 48z" />
    </font>
</defs>
</svg>
