<?xml version="1.0" standalone="no"?>
<!DOCTYPE svg PUBLIC "-//W3C//DTD SVG 1.1//EN" "http://www.w3.org/Graphics/SVG/1.1/DTD/svg11.dtd" >
<svg xmlns="http://www.w3.org/2000/svg" xmlns:xlink="http://www.w3.org/1999/xlink" version="1.1">
<metadata>
Created by FontForge 20160407 at Tue Sep 13 16:34:20 2016
 By Jimmy Warting
Copyright (c) 2011 by Jan Tonellato. All rights reserved.
</metadata>
<defs>
<font id="Novecentowide-Bold" horiz-adv-x="698" >
  <font-face 
    font-family="Novecento wide"
    font-weight="700"
    font-stretch="expanded"
    units-per-em="1000"
    panose-1="0 0 8 5 0 0 0 0 0 0"
    ascent="850"
    descent="-150"
    x-height="700"
    cap-height="700"
    bbox="-240 -291 1303 977"
    underline-thickness="152"
    underline-position="-206"
    stemh="157"
    stemv="175"
    unicode-range="U+0020-25CA"
  />
<missing-glyph horiz-adv-x="656" 
d="M163 700h330c49 0 85 -32 85 -85v-530c0 -55 -36 -85 -85 -85h-330c-49 0 -85 30 -85 85v530c0 53 36 85 85 85zM555 96v359l-115 -115l115 -116l-112 -112l-115 116l-114 -114l-112 112l114 114l-115 114l112 112l115 -114l116 116l111 -111v147c0 56 -27 76 -84 76
h-286c-63 0 -84 -20 -84 -76v-508c0 -56 27 -76 74 -76h306c49 0 74 20 74 76z" />
    <glyph glyph-name=".notdef" horiz-adv-x="656" 
d="M163 700h330c49 0 85 -32 85 -85v-530c0 -55 -36 -85 -85 -85h-330c-49 0 -85 30 -85 85v530c0 53 36 85 85 85zM555 96v359l-115 -115l115 -116l-112 -112l-115 116l-114 -114l-112 112l114 114l-115 114l112 112l115 -114l116 116l111 -111v147c0 56 -27 76 -84 76
h-286c-63 0 -84 -20 -84 -76v-508c0 -56 27 -76 74 -76h306c49 0 74 20 74 76z" />
    <glyph glyph-name="A" unicode="A" horiz-adv-x="719" 
d="M538 0l-40 110h-277l-40 -110h-181l280 700h159l280 -700h-181zM275 257h169l-50 136c-15 40 -33 103 -34 103h-1c-1 0 -19 -63 -34 -103z" />
    <glyph glyph-name="AE" unicode="&#xc6;" horiz-adv-x="1024" 
d="M607 157h347v-157h-510v110h-222l-40 -110h-182l281 700h667v-157h-341v-115h267v-147h-267v-124zM444 257v286h-67c-1 0 -32 -91 -53 -150l-49 -136h169z" />
    <glyph glyph-name="Aacute" unicode="&#xc1;" horiz-adv-x="719" 
d="M530 830l-248 -103l-48 88l239 128zM538 0l-40 110h-277l-40 -110h-181l280 700h159l280 -700h-181zM275 257h169l-50 136c-15 40 -33 103 -34 103h-1c-1 0 -19 -63 -34 -103z" />
    <glyph glyph-name="Abreve" unicode="&#x102;" horiz-adv-x="719" 
d="M432 898h120c-21 -91 -99 -156 -193 -156c-101 0 -176 65 -196 156h122c8 -27 34 -53 74 -53c38 0 66 26 73 53zM538 0l-40 110h-277l-40 -110h-181l280 700h159l280 -700h-181zM275 257h169l-50 136c-15 40 -33 103 -34 103h-1c-1 0 -19 -63 -34 -103z" />
    <glyph glyph-name="Acircumflex" unicode="&#xc2;" horiz-adv-x="719" 
d="M355 822l-116 -96l-81 82l197 167l196 -167l-80 -82zM538 0l-40 110h-277l-40 -110h-181l280 700h159l280 -700h-181zM275 257h169l-50 136c-15 40 -33 103 -34 103h-1c-1 0 -19 -63 -34 -103z" />
    <glyph glyph-name="Adieresis" unicode="&#xc4;" horiz-adv-x="719" 
d="M221 768c-42 0 -75 32 -75 73s33 74 75 74c41 0 73 -33 73 -74s-32 -73 -73 -73zM490 768c-42 0 -74 32 -74 73s32 74 74 74c41 0 74 -33 74 -74s-33 -73 -74 -73zM538 0l-40 110h-277l-40 -110h-181l280 700h159l280 -700h-181zM275 257h169l-50 136
c-15 40 -33 103 -34 103h-1c-1 0 -19 -63 -34 -103z" />
    <glyph glyph-name="Agrave" unicode="&#xc0;" horiz-adv-x="719" 
d="M460 815l-48 -88l-248 103l57 113zM538 0l-40 110h-277l-40 -110h-181l280 700h159l280 -700h-181zM275 257h169l-50 136c-15 40 -33 103 -34 103h-1c-1 0 -19 -63 -34 -103z" />
    <glyph glyph-name="Amacron" unicode="&#x100;" horiz-adv-x="719" 
d="M537 895v-129h-347v129h347zM538 0l-40 110h-277l-40 -110h-181l280 700h159l280 -700h-181zM275 257h169l-50 136c-15 40 -33 103 -34 103h-1c-1 0 -19 -63 -34 -103z" />
    <glyph glyph-name="Aogonek" unicode="&#x104;" horiz-adv-x="719" 
d="M673 -86l86 -57c-37 -69 -107 -104 -173 -104c-106 0 -186 59 -186 164c0 85 74 143 114 149l-16 44h-277l-40 -110h-181l280 700h159l280 -700h-89c-48 0 -112 -25 -112 -83c0 -30 22 -60 69 -60c34 0 69 22 86 57zM275 257h169l-50 136c-15 40 -33 103 -34 103h-1
c-1 0 -19 -63 -34 -103z" />
    <glyph glyph-name="Aring" unicode="&#xc5;" horiz-adv-x="719" 
d="M538 0l-40 110h-277l-40 -110h-181l280 700c-43 26 -72 74 -72 127c0 82 69 150 151 150c83 0 150 -68 150 -150c0 -53 -28 -100 -70 -127l280 -700h-181zM359 883c-28 0 -53 -24 -53 -55c0 -28 25 -53 53 -53c31 0 55 25 55 53c0 31 -24 55 -55 55zM275 257h169l-50 136
c-15 40 -33 103 -34 103h-1c-1 0 -19 -63 -34 -103z" />
    <glyph glyph-name="Atilde" unicode="&#xc3;" horiz-adv-x="719" 
d="M474 896h130c0 -90 -66 -156 -158 -156c-74 0 -110 62 -156 62c-26 0 -44 -18 -44 -43h-130c0 90 66 156 158 156c77 0 111 -62 156 -62c26 0 44 18 44 43zM538 0l-40 110h-277l-40 -110h-181l280 700h159l280 -700h-181zM275 257h169l-50 136c-15 40 -33 103 -34 103h-1
c-1 0 -19 -63 -34 -103z" />
    <glyph glyph-name="B" unicode="B" horiz-adv-x="660" 
d="M78 700h304c125 0 212 -83 212 -185c0 -66 -45 -122 -87 -137v-1c66 -18 123 -94 123 -165c0 -117 -77 -212 -250 -212h-302v700zM246 427h101c45 0 78 28 78 66s-33 66 -78 66h-101v-132zM246 141h117c56 0 91 33 91 79c0 49 -38 79 -91 79h-117v-158z" />
    <glyph glyph-name="C" unicode="C" horiz-adv-x="754" 
d="M716 528l-171 -45c-32 40 -92 65 -147 65c-116 0 -188 -83 -188 -198c0 -121 79 -196 188 -196c67 0 131 34 160 82l170 -44c-58 -124 -183 -206 -330 -206c-201 0 -363 153 -363 364s162 364 363 364c138 0 256 -74 318 -186z" />
    <glyph glyph-name="Cacute" unicode="&#x106;" horiz-adv-x="754" 
d="M511 943l57 -113l-248 -103l-48 88zM716 528l-171 -45c-32 40 -92 65 -147 65c-116 0 -188 -83 -188 -198c0 -121 79 -196 188 -196c67 0 131 34 160 82l170 -44c-58 -124 -183 -206 -330 -206c-201 0 -363 153 -363 364s162 364 363 364c138 0 256 -74 318 -186z" />
    <glyph glyph-name="Ccaron" unicode="&#x10c;" horiz-adv-x="754" 
d="M200 890l197 -167l196 167l-80 82l-116 -96l-116 96zM716 528l-171 -45c-32 40 -92 65 -147 65c-116 0 -188 -83 -188 -198c0 -121 79 -196 188 -196c67 0 131 34 160 82l170 -44c-58 -124 -183 -206 -330 -206c-201 0 -363 153 -363 364s162 364 363 364
c138 0 256 -74 318 -186z" />
    <glyph glyph-name="Ccedilla" unicode="&#xc7;" horiz-adv-x="754" 
d="M558 236l170 -44c-53 -113 -162 -192 -293 -204l-16 -44c56 1 109 -39 109 -106c0 -81 -57 -111 -120 -111h-124l34 87h90c22 0 29 11 29 23c0 14 -12 22 -29 23h-107l44 130c-176 24 -310 168 -310 360c0 211 162 364 363 364c138 0 256 -74 318 -186l-171 -45
c-32 40 -92 65 -147 65c-116 0 -188 -83 -188 -198c0 -121 79 -196 188 -196c67 0 131 34 160 82z" />
    <glyph glyph-name="Cdotaccent" unicode="&#x10a;" horiz-adv-x="754" 
d="M397 767c-41 0 -74 33 -74 74s33 74 74 74s74 -33 74 -74s-33 -74 -74 -74zM716 528l-171 -45c-32 40 -92 65 -147 65c-116 0 -188 -83 -188 -198c0 -121 79 -196 188 -196c67 0 131 34 160 82l170 -44c-58 -124 -183 -206 -330 -206c-201 0 -363 153 -363 364
s162 364 363 364c138 0 256 -74 318 -186z" />
    <glyph glyph-name="D" unicode="D" horiz-adv-x="781" 
d="M78 700h306c200 0 362 -143 362 -353s-162 -347 -362 -347h-306v700zM246 157h138c100 0 187 70 187 190s-87 196 -187 196h-138v-386z" />
    <glyph glyph-name="Dcaron" unicode="&#x10e;" horiz-adv-x="781" 
d="M189 890l197 -167l196 167l-80 82l-116 -96l-116 96zM78 700h306c200 0 362 -143 362 -353s-162 -347 -362 -347h-306v700zM246 157h138c100 0 187 70 187 190s-87 196 -187 196h-138v-386z" />
    <glyph glyph-name="Dcroat" unicode="&#x110;" horiz-adv-x="795" 
d="M92 700h306c200 0 362 -143 362 -353s-162 -347 -362 -347h-306v278h-57v151h57v271zM260 157h138c100 0 187 70 187 190s-87 196 -187 196h-138v-114h107v-151h-107v-121z" />
    <glyph glyph-name="E" unicode="E" horiz-adv-x="663" 
d="M246 157h347v-157h-515v700h509v-157h-341v-115h267v-147h-267v-124z" />
    <glyph glyph-name="Eacute" unicode="&#xc9;" horiz-adv-x="663" 
d="M519 830l-248 -103l-48 88l239 128zM246 157h347v-157h-515v700h509v-157h-341v-115h267v-147h-267v-124z" />
    <glyph glyph-name="Ecaron" unicode="&#x11a;" horiz-adv-x="663" 
d="M544 890l-196 -167l-197 167l81 82l116 -96l116 96zM246 157h347v-157h-515v700h509v-157h-341v-115h267v-147h-267v-124z" />
    <glyph glyph-name="Ecircumflex" unicode="&#xca;" horiz-adv-x="663" 
d="M344 822l-116 -96l-81 82l197 167l196 -167l-80 -82zM246 157h347v-157h-515v700h509v-157h-341v-115h267v-147h-267v-124z" />
    <glyph glyph-name="Edieresis" unicode="&#xcb;" horiz-adv-x="663" 
d="M210 768c-42 0 -75 32 -75 73s33 74 75 74c41 0 73 -33 73 -74s-32 -73 -73 -73zM479 768c-42 0 -74 32 -74 73s32 74 74 74c41 0 74 -33 74 -74s-33 -73 -74 -73zM246 157h347v-157h-515v700h509v-157h-341v-115h267v-147h-267v-124z" />
    <glyph glyph-name="Edotaccent" unicode="&#x116;" horiz-adv-x="663" 
d="M348 767c-41 0 -74 33 -74 74s33 74 74 74s74 -33 74 -74s-33 -74 -74 -74zM246 157h347v-157h-515v700h509v-157h-341v-115h267v-147h-267v-124z" />
    <glyph glyph-name="Egrave" unicode="&#xc8;" horiz-adv-x="663" 
d="M449 815l-48 -88l-248 103l57 113zM246 157h347v-157h-515v700h509v-157h-341v-115h267v-147h-267v-124z" />
    <glyph glyph-name="Emacron" unicode="&#x112;" horiz-adv-x="663" 
d="M526 895v-129h-347v129h347zM246 157h347v-157h-515v700h509v-157h-341v-115h267v-147h-267v-124z" />
    <glyph glyph-name="Eng" unicode="&#x14a;" horiz-adv-x="784" 
d="M538 700h168v-700c0 -143 -100 -247 -237 -247h-41v134h26c60 0 94 44 94 113l-143 195c-64 88 -158 221 -159 221h-1c-1 0 1 -108 1 -261v-155h-168v700h158l149 -200c45 -60 152 -211 153 -211h1c1 0 -1 124 -1 251v160z" />
    <glyph glyph-name="Eogonek" unicode="&#x118;" horiz-adv-x="663" 
d="M510 -86l86 -57c-37 -69 -107 -104 -173 -104c-106 0 -186 59 -186 164c0 32 10 60 25 83h-184v700h509v-157h-341v-115h267v-147h-267v-124h347v-157h-126c-48 0 -112 -25 -112 -83c0 -30 22 -60 69 -60c34 0 69 22 86 57z" />
    <glyph glyph-name="Eth" unicode="&#xd0;" horiz-adv-x="795" 
d="M92 700h306c200 0 362 -143 362 -353s-162 -347 -362 -347h-306v278h-57v151h57v271zM260 157h138c100 0 187 70 187 190s-87 196 -187 196h-138v-114h107v-151h-107v-121z" />
    <glyph glyph-name="F" unicode="F" horiz-adv-x="612" 
d="M577 543h-331v-137h257v-151h-257v-255h-168v700h499v-157z" />
    <glyph glyph-name="G" unicode="G" horiz-adv-x="792" 
d="M589 57h-1c-41 -44 -121 -71 -190 -71c-201 0 -363 153 -363 364s162 364 363 364c136 0 255 -72 318 -186l-171 -45c-33 40 -92 65 -147 65c-116 0 -188 -83 -188 -198c0 -123 83 -200 198 -200c112 0 161 58 181 110v1h-184v135h327v-396h-144c0 46 1 56 1 57z" />
    <glyph glyph-name="Gbreve" unicode="&#x11e;" horiz-adv-x="792" 
d="M202 898h122c8 -27 34 -53 74 -53c38 0 66 26 73 53h120c-21 -91 -99 -156 -193 -156c-101 0 -176 65 -196 156zM589 57h-1c-41 -44 -121 -71 -190 -71c-201 0 -363 153 -363 364s162 364 363 364c136 0 255 -72 318 -186l-171 -45c-33 40 -92 65 -147 65
c-116 0 -188 -83 -188 -198c0 -123 83 -200 198 -200c112 0 161 58 181 110v1h-184v135h327v-396h-144c0 46 1 56 1 57z" />
    <glyph glyph-name="Gcircumflex" unicode="&#x11c;" horiz-adv-x="792" 
d="M197 808l197 167l196 -167l-80 -82l-116 96l-116 -96zM589 57h-1c-41 -44 -121 -71 -190 -71c-201 0 -363 153 -363 364s162 364 363 364c136 0 255 -72 318 -186l-171 -45c-33 40 -92 65 -147 65c-116 0 -188 -83 -188 -198c0 -123 83 -200 198 -200
c112 0 161 58 181 110v1h-184v135h327v-396h-144c0 46 1 56 1 57z" />
    <glyph glyph-name="Gcommaaccent" unicode="&#x122;" horiz-adv-x="792" 
d="M589 57h-1c-41 -44 -121 -71 -190 -71c-201 0 -363 153 -363 364s162 364 363 364c136 0 255 -72 318 -186l-171 -45c-33 40 -92 65 -147 65c-116 0 -188 -83 -188 -198c0 -123 83 -200 198 -200c112 0 161 58 181 110v1h-184v135h327v-396h-144c0 46 1 56 1 57z
M375 -180l14 4l-14 2c-25 3 -53 26 -53 64c0 39 32 71 72 71c39 0 71 -32 71 -80c0 -57 -46 -127 -104 -172h-55c32 20 69 82 69 111z" />
    <glyph glyph-name="Gdotaccent" unicode="&#x120;" horiz-adv-x="792" 
d="M398 767c-41 0 -74 33 -74 74s33 74 74 74s74 -33 74 -74s-33 -74 -74 -74zM589 57h-1c-41 -44 -121 -71 -190 -71c-201 0 -363 153 -363 364s162 364 363 364c136 0 255 -72 318 -186l-171 -45c-33 40 -92 65 -147 65c-116 0 -188 -83 -188 -198
c0 -123 83 -200 198 -200c112 0 161 58 181 110v1h-184v135h327v-396h-144c0 46 1 56 1 57z" />
    <glyph glyph-name="Germandbls" unicode="&#x1e9e;" horiz-adv-x="830" 
d="M78 700h650l-98 -186c-23 -44 -49 -98 -49 -99l1 -1h4c111 0 209 -92 209 -203c0 -124 -94 -225 -249 -225c-109 0 -197 56 -244 135l159 43c23 -24 45 -36 77 -36c63 0 88 40 88 85c0 43 -32 80 -93 80h-114v121l29 62c15 32 32 67 32 68l-1 1c-1 0 -33 -2 -66 -2h-167
v-543h-168v700z" />
    <glyph glyph-name="H" unicode="H" horiz-adv-x="754" 
d="M508 700h168v-700h-168v272h-262v-272h-168v700h168v-271h262v271z" />
    <glyph glyph-name="Hbar" unicode="&#x126;" horiz-adv-x="754" 
d="M748 638v-137h-72v-501h-168v272h-262v-272h-168v501h-72v137h72v62h168v-62h262v62h168v-62h72zM508 429v72h-262v-72h262z" />
    <glyph glyph-name="Hcircumflex" unicode="&#x124;" horiz-adv-x="754" 
d="M373 822l-116 -96l-81 82l197 167l196 -167l-80 -82zM508 700h168v-700h-168v272h-262v-272h-168v700h168v-271h262v271z" />
    <glyph glyph-name="I" unicode="I" horiz-adv-x="324" 
d="M246 0h-168v700h168v-700z" />
    <glyph glyph-name="IJ" unicode="&#x132;" horiz-adv-x="988" 
d="M246 0h-168v700h168v-700zM755 700h168v-389c0 -210 -130 -325 -315 -325c-134 0 -247 76 -289 179l165 44c24 -42 67 -66 124 -66c92 0 147 62 147 162v395z" />
    <glyph glyph-name="Iacute" unicode="&#xcd;" horiz-adv-x="324" 
d="M276 943l57 -113l-248 -103l-48 88zM246 0h-168v700h168v-700z" />
    <glyph glyph-name="Icircumflex" unicode="&#xce;" horiz-adv-x="324" 
d="M-39 808l197 167l196 -167l-80 -82l-116 96l-116 -96zM246 0h-168v700h168v-700z" />
    <glyph glyph-name="Idieresis" unicode="&#xcf;" horiz-adv-x="324" 
d="M24 768c-42 0 -75 32 -75 73s33 74 75 74c41 0 73 -33 73 -74s-32 -73 -73 -73zM293 768c-42 0 -74 32 -74 73s32 74 74 74c41 0 74 -33 74 -74s-33 -73 -74 -73zM246 0h-168v700h168v-700z" />
    <glyph glyph-name="Idotaccent" unicode="&#x130;" horiz-adv-x="324" 
d="M162 767c-41 0 -74 33 -74 74s33 74 74 74s74 -33 74 -74s-33 -74 -74 -74zM246 0h-168v700h168v-700z" />
    <glyph glyph-name="Igrave" unicode="&#xcc;" horiz-adv-x="324" 
d="M215 727l-248 103l57 113l239 -128zM246 0h-168v700h168v-700z" />
    <glyph glyph-name="Imacron" unicode="&#x12a;" horiz-adv-x="324" 
d="M-7 895h347v-129h-347v129zM246 0h-168v700h168v-700z" />
    <glyph glyph-name="Iogonek" unicode="&#x12e;" horiz-adv-x="324" 
d="M236 -86l86 -57c-37 -69 -107 -104 -173 -104c-106 0 -186 59 -186 164c0 86 76 144 115 150v633h168v-700h-53c-48 0 -112 -25 -112 -83c0 -30 22 -60 69 -60c34 0 69 22 86 57z" />
    <glyph glyph-name="J" unicode="J" horiz-adv-x="679" 
d="M446 700h168v-389c0 -210 -130 -325 -315 -325c-134 0 -247 76 -289 179l165 44c24 -42 67 -66 124 -66c92 0 147 62 147 162v395z" />
    <glyph glyph-name="Jcircumflex" unicode="&#x134;" horiz-adv-x="679" 
d="M330 808l197 167l196 -167l-80 -82l-116 96l-116 -96zM446 700h168v-389c0 -210 -130 -325 -315 -325c-134 0 -247 76 -289 179l165 44c24 -42 67 -66 124 -66c92 0 147 62 147 162v395z" />
    <glyph glyph-name="K" unicode="K" horiz-adv-x="733" 
d="M715 0h-198l-212 291l-59 -59v-232h-168v700h168v-114c0 -116 -3 -150 -2 -150h1c1 0 21 24 92 95l170 169h206l-297 -298z" />
    <glyph glyph-name="Kcommaaccent" unicode="&#x136;" horiz-adv-x="733" 
d="M416 402l299 -402h-198l-212 291l-59 -59v-232h-168v700h168v-114c0 -116 -3 -150 -2 -150h1c1 0 21 24 92 95l170 169h206zM365 -176l-14 2c-25 3 -53 26 -53 64c0 39 32 71 72 71c39 0 71 -32 71 -80c0 -57 -46 -127 -104 -172h-55c32 20 69 82 69 111z" />
    <glyph glyph-name="L" unicode="L" horiz-adv-x="597" 
d="M246 157h331v-157h-499v700h168v-543z" />
    <glyph glyph-name="Lacute" unicode="&#x139;" horiz-adv-x="597" 
d="M346 830l-248 -103l-48 88l239 128zM246 157h331v-157h-499v700h168v-543z" />
    <glyph glyph-name="Lcaron" unicode="&#x13d;" horiz-adv-x="597" 
d="M382 434h-61c35 22 76 91 76 123l15 4l-15 2c-27 4 -58 29 -58 71c0 43 35 78 79 78c43 0 78 -35 78 -88c0 -63 -51 -140 -114 -190zM246 157h331v-157h-499v700h168v-543z" />
    <glyph glyph-name="Lcommaaccent" unicode="&#x13b;" horiz-adv-x="597" 
d="M246 157h331v-157h-499v700h168v-543zM332 -176l-14 2c-25 3 -53 26 -53 64c0 39 32 71 72 71c39 0 71 -32 71 -80c0 -57 -46 -127 -104 -172h-55c32 20 69 82 69 111z" />
    <glyph glyph-name="Ldot" unicode="&#x13f;" horiz-adv-x="597" 
d="M246 157h331v-157h-499v700h168v-543zM424 315c-41 0 -74 33 -74 74s33 74 74 74s74 -33 74 -74s-33 -74 -74 -74z" />
    <glyph glyph-name="Lslash" unicode="&#x141;" horiz-adv-x="597" 
d="M246 157h331v-157h-499v700h168v-250l241 125v-159l-241 -124v-135z" />
    <glyph glyph-name="M" unicode="M" horiz-adv-x="855" 
d="M619 700h158v-700h-165v171c0 166 6 248 5 248h-1c-1 0 -57 -96 -63 -106l-82 -140h-87l-82 140c-6 10 -62 106 -63 106h-1c-1 0 5 -82 5 -248v-171h-165v700h158l131 -212c51 -83 59 -101 60 -101h1c1 0 9 18 60 101z" />
    <glyph glyph-name="N" unicode="N" horiz-adv-x="784" 
d="M538 700h168v-700h-158l-143 195c-64 88 -158 221 -159 221h-1c-1 0 1 -108 1 -261v-155h-168v700h158l149 -200c45 -60 152 -211 153 -211h1c1 0 -1 124 -1 251v160z" />
    <glyph glyph-name="Nacute" unicode="&#x143;" horiz-adv-x="784" 
d="M506 943l57 -113l-248 -103l-48 88zM538 700h168v-700h-158l-143 195c-64 88 -158 221 -159 221h-1c-1 0 1 -108 1 -261v-155h-168v700h158l149 -200c45 -60 152 -211 153 -211h1c1 0 -1 124 -1 251v160z" />
    <glyph glyph-name="Ncaron" unicode="&#x147;" horiz-adv-x="784" 
d="M195 890l197 -167l196 167l-80 82l-116 -96l-116 96zM538 700h168v-700h-158l-143 195c-64 88 -158 221 -159 221h-1c-1 0 1 -108 1 -261v-155h-168v700h158l149 -200c45 -60 152 -211 153 -211h1c1 0 -1 124 -1 251v160z" />
    <glyph glyph-name="Ncommaaccent" unicode="&#x145;" horiz-adv-x="784" 
d="M538 700h168v-700h-158l-143 195c-64 88 -158 221 -159 221h-1c-1 0 1 -108 1 -261v-155h-168v700h158l149 -200c45 -60 152 -211 153 -211h1c1 0 -1 124 -1 251v160zM379 -180l14 4l-14 2c-25 3 -53 26 -53 64c0 39 32 71 72 71c39 0 71 -32 71 -80
c0 -57 -46 -127 -104 -172h-55c32 20 69 82 69 111z" />
    <glyph glyph-name="Ntilde" unicode="&#xd1;" horiz-adv-x="784" 
d="M507 896h130c0 -90 -66 -156 -158 -156c-74 0 -110 62 -156 62c-26 0 -44 -18 -44 -43h-130c0 90 66 156 158 156c77 0 111 -62 156 -62c26 0 44 18 44 43zM538 700h168v-700h-158l-143 195c-64 88 -158 221 -159 221h-1c-1 0 1 -108 1 -261v-155h-168v700h158l149 -200
c45 -60 152 -211 153 -211h1c1 0 -1 124 -1 251v160z" />
    <glyph glyph-name="O" unicode="O" horiz-adv-x="797" 
d="M35 350c0 211 162 364 363 364s364 -153 364 -364s-163 -364 -364 -364s-363 153 -363 364zM210 350c0 -117 75 -198 188 -198c114 0 189 81 189 198c0 118 -75 198 -189 198c-113 0 -188 -80 -188 -198z" />
    <glyph glyph-name="OE" unicode="&#x152;" horiz-adv-x="1066" 
d="M649 157h347v-157h-510c-31 -4 -64 -4 -98 -4c-197 0 -353 147 -353 354s156 354 353 354c18 0 56 1 98 -4h504v-157h-341v-115h267v-147h-267v-124zM486 179v342c-26 12 -59 17 -98 17c-109 0 -178 -74 -178 -188c0 -113 69 -188 178 -188c39 0 72 6 98 17z" />
    <glyph glyph-name="Oacute" unicode="&#xd3;" horiz-adv-x="797" 
d="M517 943l57 -113l-248 -103l-48 88zM35 350c0 211 162 364 363 364s364 -153 364 -364s-163 -364 -364 -364s-363 153 -363 364zM210 350c0 -117 75 -198 188 -198c114 0 189 81 189 198c0 118 -75 198 -189 198c-113 0 -188 -80 -188 -198z" />
    <glyph glyph-name="Ocircumflex" unicode="&#xd4;" horiz-adv-x="797" 
d="M202 808l197 167l196 -167l-80 -82l-116 96l-116 -96zM35 350c0 211 162 364 363 364s364 -153 364 -364s-163 -364 -364 -364s-363 153 -363 364zM210 350c0 -117 75 -198 188 -198c114 0 189 81 189 198c0 118 -75 198 -189 198c-113 0 -188 -80 -188 -198z" />
    <glyph glyph-name="Odieresis" unicode="&#xd6;" horiz-adv-x="797" 
d="M265 768c-42 0 -75 32 -75 73s33 74 75 74c41 0 73 -33 73 -74s-32 -73 -73 -73zM534 768c-42 0 -74 32 -74 73s32 74 74 74c41 0 74 -33 74 -74s-33 -73 -74 -73zM35 350c0 211 162 364 363 364s364 -153 364 -364s-163 -364 -364 -364s-363 153 -363 364zM210 350
c0 -117 75 -198 188 -198c114 0 189 81 189 198c0 118 -75 198 -189 198c-113 0 -188 -80 -188 -198z" />
    <glyph glyph-name="Ograve" unicode="&#xd2;" horiz-adv-x="797" 
d="M456 727l-248 103l57 113l239 -128zM35 350c0 211 162 364 363 364s364 -153 364 -364s-163 -364 -364 -364s-363 153 -363 364zM210 350c0 -117 75 -198 188 -198c114 0 189 81 189 198c0 118 -75 198 -189 198c-113 0 -188 -80 -188 -198z" />
    <glyph glyph-name="Ohungarumlaut" unicode="&#x150;" horiz-adv-x="797" 
d="M394 788l-147 -61l-48 88l239 128l38 -76l142 76l57 -113l-248 -103zM398 714c201 0 364 -153 364 -364s-163 -364 -364 -364s-363 153 -363 364s162 364 363 364zM398 152c114 0 189 81 189 198c0 118 -75 198 -189 198c-113 0 -188 -80 -188 -198
c0 -117 75 -198 188 -198z" />
    <glyph glyph-name="Omacron" unicode="&#x14c;" horiz-adv-x="797" 
d="M234 895h347v-129h-347v129zM35 350c0 211 162 364 363 364s364 -153 364 -364s-163 -364 -364 -364s-363 153 -363 364zM210 350c0 -117 75 -198 188 -198c114 0 189 81 189 198c0 118 -75 198 -189 198c-113 0 -188 -80 -188 -198z" />
    <glyph glyph-name="Oslash" unicode="&#xd8;" horiz-adv-x="797" 
d="M715 637l-38 -49c53 -63 85 -145 85 -238c0 -211 -163 -364 -364 -364c-56 0 -109 12 -156 33l-37 -48l-119 90l37 48c-55 63 -88 146 -88 241c0 211 162 364 363 364c58 0 113 -13 161 -36l37 48zM232 251l222 290c-17 5 -36 7 -56 7c-113 0 -188 -80 -188 -198
c0 -37 8 -71 22 -99zM568 445l-220 -287c16 -4 32 -6 50 -6c114 0 189 81 189 198c0 35 -7 67 -19 95z" />
    <glyph glyph-name="Otilde" unicode="&#xd5;" horiz-adv-x="797" 
d="M518 896h130c0 -90 -66 -156 -158 -156c-74 0 -110 62 -156 62c-26 0 -44 -18 -44 -43h-130c0 90 66 156 158 156c77 0 111 -62 156 -62c26 0 44 18 44 43zM35 350c0 211 162 364 363 364s364 -153 364 -364s-163 -364 -364 -364s-363 153 -363 364zM210 350
c0 -117 75 -198 188 -198c114 0 189 81 189 198c0 118 -75 198 -189 198c-113 0 -188 -80 -188 -198z" />
    <glyph glyph-name="P" unicode="P" horiz-adv-x="651" 
d="M78 700h267c172 0 276 -90 276 -240s-104 -240 -276 -240h-99v-220h-168v700zM246 377h96c65 0 104 31 104 83s-39 83 -104 83h-96v-166z" />
    <glyph glyph-name="Q" unicode="Q" horiz-adv-x="797" 
d="M312 -132v128c-159 36 -277 174 -277 354c0 211 162 364 363 364s364 -153 364 -364c0 -181 -120 -320 -282 -355v-127h-168zM398 152c114 0 189 81 189 198c0 118 -75 198 -189 198c-113 0 -188 -80 -188 -198c0 -117 75 -198 188 -198z" />
    <glyph glyph-name="R" unicode="R" horiz-adv-x="680" 
d="M650 0h-188l-130 228h-86v-228h-168v700h261c176 0 282 -96 282 -240c0 -94 -45 -164 -126 -202zM246 543v-166h116c60 0 84 45 84 83s-24 83 -84 83h-116z" />
    <glyph glyph-name="Racute" unicode="&#x154;" horiz-adv-x="680" 
d="M499 830l-248 -103l-48 88l239 128zM650 0h-188l-130 228h-86v-228h-168v700h261c176 0 282 -96 282 -240c0 -94 -45 -164 -126 -202zM246 543v-166h116c60 0 84 45 84 83s-24 83 -84 83h-116z" />
    <glyph glyph-name="Rcaron" unicode="&#x158;" horiz-adv-x="680" 
d="M524 890l-196 -167l-197 167l81 82l116 -96l116 96zM650 0h-188l-130 228h-86v-228h-168v700h261c176 0 282 -96 282 -240c0 -94 -45 -164 -126 -202zM246 543v-166h116c60 0 84 45 84 83s-24 83 -84 83h-116z" />
    <glyph glyph-name="Rcommaaccent" unicode="&#x156;" horiz-adv-x="680" 
d="M495 258l155 -258h-188l-130 228h-86v-228h-168v700h261c176 0 282 -96 282 -240c0 -94 -45 -164 -126 -202zM246 543v-166h116c60 0 84 45 84 83s-24 83 -84 83h-116zM339 -176l-14 2c-25 3 -53 26 -53 64c0 39 32 71 72 71c39 0 71 -32 71 -80
c0 -57 -46 -127 -104 -172h-55c32 20 69 82 69 111z" />
    <glyph glyph-name="S" unicode="S" horiz-adv-x="614" 
d="M583 522l-162 -44c-17 62 -71 91 -121 91s-79 -25 -79 -53c0 -46 70 -63 155 -94c104 -38 213 -97 213 -217c0 -128 -110 -219 -273 -219c-146 0 -250 81 -296 212l161 43c18 -53 68 -106 142 -106c60 0 88 28 88 62c0 56 -82 70 -182 108c-84 32 -181 78 -181 201
c0 109 110 208 262 208c134 0 240 -82 273 -192z" />
    <glyph glyph-name="Sacute" unicode="&#x15a;" horiz-adv-x="614" 
d="M435 943l57 -113l-248 -103l-48 88zM583 522l-162 -44c-17 62 -71 91 -121 91s-79 -25 -79 -53c0 -46 70 -63 155 -94c104 -38 213 -97 213 -217c0 -128 -110 -219 -273 -219c-146 0 -250 81 -296 212l161 43c18 -53 68 -106 142 -106c60 0 88 28 88 62
c0 56 -82 70 -182 108c-84 32 -181 78 -181 201c0 109 110 208 262 208c134 0 240 -82 273 -192z" />
    <glyph glyph-name="Scaron" unicode="&#x160;" horiz-adv-x="614" 
d="M124 890l197 -167l196 167l-80 82l-116 -96l-116 96zM583 522l-162 -44c-17 62 -71 91 -121 91s-79 -25 -79 -53c0 -46 70 -63 155 -94c104 -38 213 -97 213 -217c0 -128 -110 -219 -273 -219c-146 0 -250 81 -296 212l161 43c18 -53 68 -106 142 -106c60 0 88 28 88 62
c0 56 -82 70 -182 108c-84 32 -181 78 -181 201c0 109 110 208 262 208c134 0 240 -82 273 -192z" />
    <glyph glyph-name="Scedilla" unicode="&#x15e;" horiz-adv-x="614" 
d="M583 522l-162 -44c-17 62 -71 91 -121 91s-79 -25 -79 -53c0 -46 70 -63 155 -94c104 -38 213 -97 213 -217c0 -112 -84 -195 -214 -215l-17 -46c56 1 109 -39 109 -106c0 -81 -57 -111 -120 -111h-124l34 87h90c22 0 29 11 29 23c0 14 -12 22 -29 23h-107l44 127
c-129 12 -221 90 -264 211l161 43c18 -53 68 -106 142 -106c60 0 88 28 88 62c0 56 -82 70 -182 108c-84 32 -181 78 -181 201c0 109 110 208 262 208c134 0 240 -82 273 -192z" />
    <glyph glyph-name="Scircumflex" unicode="&#x15c;" horiz-adv-x="614" 
d="M120 808l197 167l196 -167l-80 -82l-116 96l-116 -96zM583 522l-162 -44c-17 62 -71 91 -121 91s-79 -25 -79 -53c0 -46 70 -63 155 -94c104 -38 213 -97 213 -217c0 -128 -110 -219 -273 -219c-146 0 -250 81 -296 212l161 43c18 -53 68 -106 142 -106c60 0 88 28 88 62
c0 56 -82 70 -182 108c-84 32 -181 78 -181 201c0 109 110 208 262 208c134 0 240 -82 273 -192z" />
    <glyph glyph-name="Scommaaccent" unicode="&#x218;" horiz-adv-x="614" 
d="M583 522l-162 -44c-17 62 -71 91 -121 91s-79 -25 -79 -53c0 -46 70 -63 155 -94c104 -38 213 -97 213 -217c0 -128 -110 -219 -273 -219c-146 0 -250 81 -296 212l161 43c18 -53 68 -106 142 -106c60 0 88 28 88 62c0 56 -82 70 -182 108c-84 32 -181 78 -181 201
c0 109 110 208 262 208c134 0 240 -82 273 -192zM283 -180l14 4l-14 2c-25 3 -53 26 -53 64c0 39 32 71 72 71c39 0 71 -32 71 -80c0 -57 -46 -127 -104 -172h-55c32 20 69 82 69 111z" />
    <glyph glyph-name="T" unicode="T" horiz-adv-x="611" 
d="M10 700h591v-157h-213v-543h-168v543h-210v157z" />
    <glyph glyph-name="Tbar" unicode="&#x166;" horiz-adv-x="611" 
d="M601 543h-213v-120h101v-127h-101v-296h-168v296h-101v127h101v120h-210v157h591v-157z" />
    <glyph glyph-name="Tcaron" unicode="&#x164;" horiz-adv-x="611" 
d="M518 890l-196 -167l-197 167l81 82l116 -96l116 96zM10 700h591v-157h-213v-543h-168v543h-210v157z" />
    <glyph glyph-name="Tcedilla" unicode="&#x162;" horiz-adv-x="611" 
d="M388 0h-50l-21 -56c56 1 109 -39 109 -106c0 -81 -57 -111 -120 -111h-124l34 87h90c22 0 29 11 29 23c0 14 -12 22 -29 23h-107l48 140h-27v543h-210v157h591v-157h-213v-543z" />
    <glyph glyph-name="uni021A" unicode="&#x21a;" horiz-adv-x="611" 
d="M10 700h591v-157h-213v-543h-168v543h-210v157zM310 -176l-14 2c-25 3 -53 26 -53 64c0 39 32 71 72 71c39 0 71 -32 71 -80c0 -57 -46 -127 -104 -172h-55c32 20 69 82 69 111z" />
    <glyph glyph-name="Thorn" unicode="&#xde;" horiz-adv-x="650" 
d="M246 590h101c164 0 273 -101 273 -240s-109 -240 -273 -240h-101v-110h-168v700h168v-110zM246 267h105c61 0 94 35 94 83s-33 83 -94 83h-105v-166z" />
    <glyph glyph-name="U" unicode="U" horiz-adv-x="748" 
d="M515 700h168v-389c0 -210 -124 -325 -309 -325c-186 0 -309 115 -309 325v389h168v-385c0 -120 49 -172 141 -172s141 52 141 172v385z" />
    <glyph glyph-name="Uacute" unicode="&#xda;" horiz-adv-x="748" 
d="M489 943l57 -113l-248 -103l-48 88zM515 700h168v-389c0 -210 -124 -325 -309 -325c-186 0 -309 115 -309 325v389h168v-385c0 -120 49 -172 141 -172s141 52 141 172v385z" />
    <glyph glyph-name="Ubreve" unicode="&#x16c;" horiz-adv-x="748" 
d="M179 898h122c8 -27 34 -53 74 -53c38 0 66 26 73 53h120c-21 -91 -99 -156 -193 -156c-101 0 -176 65 -196 156zM515 700h168v-389c0 -210 -124 -325 -309 -325c-186 0 -309 115 -309 325v389h168v-385c0 -120 49 -172 141 -172s141 52 141 172v385z" />
    <glyph glyph-name="Ucircumflex" unicode="&#xdb;" horiz-adv-x="748" 
d="M174 808l197 167l196 -167l-80 -82l-116 96l-116 -96zM515 700h168v-389c0 -210 -124 -325 -309 -325c-186 0 -309 115 -309 325v389h168v-385c0 -120 49 -172 141 -172s141 52 141 172v385z" />
    <glyph glyph-name="Udieresis" unicode="&#xdc;" horiz-adv-x="748" 
d="M237 768c-42 0 -75 32 -75 73s33 74 75 74c41 0 73 -33 73 -74s-32 -73 -73 -73zM506 768c-42 0 -74 32 -74 73s32 74 74 74c41 0 74 -33 74 -74s-33 -73 -74 -73zM515 700h168v-389c0 -210 -124 -325 -309 -325c-186 0 -309 115 -309 325v389h168v-385
c0 -120 49 -172 141 -172s141 52 141 172v385z" />
    <glyph glyph-name="Ugrave" unicode="&#xd9;" horiz-adv-x="748" 
d="M428 727l-248 103l57 113l239 -128zM515 700h168v-389c0 -210 -124 -325 -309 -325c-186 0 -309 115 -309 325v389h168v-385c0 -120 49 -172 141 -172s141 52 141 172v385z" />
    <glyph glyph-name="Uhungarumlaut" unicode="&#x170;" horiz-adv-x="748" 
d="M366 788l-147 -61l-48 88l239 128l38 -76l142 76l57 -113l-248 -103zM515 700h168v-389c0 -210 -124 -325 -309 -325c-186 0 -309 115 -309 325v389h168v-385c0 -120 49 -172 141 -172s141 52 141 172v385z" />
    <glyph glyph-name="Umacron" unicode="&#x16a;" horiz-adv-x="748" 
d="M206 895h347v-129h-347v129zM515 700h168v-389c0 -210 -124 -325 -309 -325c-186 0 -309 115 -309 325v389h168v-385c0 -120 49 -172 141 -172s141 52 141 172v385z" />
    <glyph glyph-name="Uogonek" unicode="&#x172;" horiz-adv-x="748" 
d="M683 700v-389c0 -159 -71 -264 -186 -305c-45 -19 -86 -44 -86 -93c0 -30 21 -56 60 -56c30 0 65 25 82 60l85 -56c-31 -63 -101 -108 -167 -108c-96 0 -176 56 -176 146c0 38 17 67 38 89c-163 16 -268 129 -268 323v389h168v-385c0 -120 49 -172 141 -172
s141 52 141 172v385h168z" />
    <glyph glyph-name="Uring" unicode="&#x16e;" horiz-adv-x="748" 
d="M375 677c-82 0 -151 68 -151 150s69 150 151 150c83 0 150 -68 150 -150s-67 -150 -150 -150zM375 775c31 0 55 25 55 53c0 31 -24 55 -55 55c-28 0 -53 -24 -53 -55c0 -28 25 -53 53 -53zM515 700h168v-389c0 -210 -124 -325 -309 -325c-186 0 -309 115 -309 325v389
h168v-385c0 -120 49 -172 141 -172s141 52 141 172v385z" />
    <glyph glyph-name="V" unicode="V" horiz-adv-x="719" 
d="M535 700h184l-269 -700h-181l-269 700h184l135 -386c27 -78 39 -128 40 -128h1c1 0 13 50 40 128z" />
    <glyph glyph-name="W" unicode="W" horiz-adv-x="1051" 
d="M852 700h179l-212 -700h-158l-104 323c-22 69 -30 118 -31 118h-1c-1 0 -9 -49 -31 -118l-104 -323h-158l-212 700h179l86 -330c17 -66 27 -113 28 -113h1c1 0 12 47 36 113l97 264h157l97 -264c24 -66 35 -113 36 -113h1c1 0 11 47 28 113z" />
    <glyph glyph-name="Wacute" unicode="&#x1e82;" horiz-adv-x="1051" 
d="M640 943l57 -113l-248 -103l-48 88zM852 700h179l-212 -700h-158l-104 323c-22 69 -30 118 -31 118h-1c-1 0 -9 -49 -31 -118l-104 -323h-158l-212 700h179l86 -330c17 -66 27 -113 28 -113h1c1 0 12 47 36 113l97 264h157l97 -264c24 -66 35 -113 36 -113h1
c1 0 11 47 28 113z" />
    <glyph glyph-name="Wcircumflex" unicode="&#x174;" horiz-adv-x="1051" 
d="M325 808l197 167l196 -167l-80 -82l-116 96l-116 -96zM852 700h179l-212 -700h-158l-104 323c-22 69 -30 118 -31 118h-1c-1 0 -9 -49 -31 -118l-104 -323h-158l-212 700h179l86 -330c17 -66 27 -113 28 -113h1c1 0 12 47 36 113l97 264h157l97 -264
c24 -66 35 -113 36 -113h1c1 0 11 47 28 113z" />
    <glyph glyph-name="Wdieresis" unicode="&#x1e84;" horiz-adv-x="1051" 
d="M388 768c-42 0 -75 32 -75 73s33 74 75 74c41 0 73 -33 73 -74s-32 -73 -73 -73zM657 768c-42 0 -74 32 -74 73s32 74 74 74c41 0 74 -33 74 -74s-33 -73 -74 -73zM852 700h179l-212 -700h-158l-104 323c-22 69 -30 118 -31 118h-1c-1 0 -9 -49 -31 -118l-104 -323h-158
l-212 700h179l86 -330c17 -66 27 -113 28 -113h1c1 0 12 47 36 113l97 264h157l97 -264c24 -66 35 -113 36 -113h1c1 0 11 47 28 113z" />
    <glyph glyph-name="Wgrave" unicode="&#x1e80;" horiz-adv-x="1051" 
d="M579 727l-248 103l57 113l239 -128zM852 700h179l-212 -700h-158l-104 323c-22 69 -30 118 -31 118h-1c-1 0 -9 -49 -31 -118l-104 -323h-158l-212 700h179l86 -330c17 -66 27 -113 28 -113h1c1 0 12 47 36 113l97 264h157l97 -264c24 -66 35 -113 36 -113h1
c1 0 11 47 28 113z" />
    <glyph glyph-name="X" unicode="X" horiz-adv-x="689" 
d="M345 214h-1c-1 0 -43 -75 -52 -89l-82 -125h-200l234 357l-224 343h202l84 -137c10 -16 37 -69 38 -69h1c1 0 28 53 38 69l84 137h202l-224 -343l234 -357h-200l-82 125c-9 14 -51 89 -52 89z" />
    <glyph glyph-name="Y" unicode="Y" horiz-adv-x="723" 
d="M525 700h188l-268 -390v-310h-167v310l-268 390h188l127 -187c20 -30 35 -51 36 -51h1c1 0 16 21 36 51z" />
    <glyph glyph-name="Yacute" unicode="&#xdd;" horiz-adv-x="723" 
d="M475 943l57 -113l-248 -103l-48 88zM525 700h188l-268 -390v-310h-167v310l-268 390h188l127 -187c20 -30 35 -51 36 -51h1c1 0 16 21 36 51z" />
    <glyph glyph-name="Ycircumflex" unicode="&#x176;" horiz-adv-x="723" 
d="M160 808l197 167l196 -167l-80 -82l-116 96l-116 -96zM525 700h188l-268 -390v-310h-167v310l-268 390h188l127 -187c20 -30 35 -51 36 -51h1c1 0 16 21 36 51z" />
    <glyph glyph-name="Ydieresis" unicode="&#x178;" horiz-adv-x="723" 
d="M223 768c-42 0 -75 32 -75 73s33 74 75 74c41 0 73 -33 73 -74s-32 -73 -73 -73zM492 768c-42 0 -74 32 -74 73s32 74 74 74c41 0 74 -33 74 -74s-33 -73 -74 -73zM525 700h188l-268 -390v-310h-167v310l-268 390h188l127 -187c20 -30 35 -51 36 -51h1c1 0 16 21 36 51z
" />
    <glyph glyph-name="Ygrave" unicode="&#x1ef2;" horiz-adv-x="723" 
d="M414 727l-248 103l57 113l239 -128zM525 700h188l-268 -390v-310h-167v310l-268 390h188l127 -187c20 -30 35 -51 36 -51h1c1 0 16 21 36 51z" />
    <glyph glyph-name="Z" unicode="Z" horiz-adv-x="712" 
d="M652 700v-157l-298 -321c-31 -33 -65 -66 -65 -67l1 -1c1 0 49 3 109 3h253v-157h-592v157l312 328c25 27 65 59 65 60l-1 1c-1 0 -65 -3 -109 -3h-257v157h582z" />
    <glyph glyph-name="Zacute" unicode="&#x179;" horiz-adv-x="712" 
d="M480 943l57 -113l-248 -103l-48 88zM652 700v-157l-298 -321c-31 -33 -65 -66 -65 -67l1 -1c1 0 49 3 109 3h253v-157h-592v157l312 328c25 27 65 59 65 60l-1 1c-1 0 -65 -3 -109 -3h-257v157h582z" />
    <glyph glyph-name="Zcaron" unicode="&#x17d;" horiz-adv-x="712" 
d="M169 890l197 -167l196 167l-80 82l-116 -96l-116 96zM652 700v-157l-298 -321c-31 -33 -65 -66 -65 -67l1 -1c1 0 49 3 109 3h253v-157h-592v157l312 328c25 27 65 59 65 60l-1 1c-1 0 -65 -3 -109 -3h-257v157h582z" />
    <glyph glyph-name="Zdotaccent" unicode="&#x17b;" horiz-adv-x="712" 
d="M366 767c-41 0 -74 33 -74 74s33 74 74 74s74 -33 74 -74s-33 -74 -74 -74zM652 700v-157l-298 -321c-31 -33 -65 -66 -65 -67l1 -1c1 0 49 3 109 3h253v-157h-592v157l312 328c25 27 65 59 65 60l-1 1c-1 0 -65 -3 -109 -3h-257v157h582z" />
    <glyph glyph-name="a" unicode="a" horiz-adv-x="719" 
d="M538 0l-40 110h-277l-40 -110h-181l280 700h159l280 -700h-181zM275 257h169l-50 136c-15 40 -33 103 -34 103h-1c-1 0 -19 -63 -34 -103z" />
    <glyph glyph-name="aacute" unicode="&#xe1;" horiz-adv-x="719" 
d="M530 830l-248 -103l-48 88l239 128zM538 0l-40 110h-277l-40 -110h-181l280 700h159l280 -700h-181zM275 257h169l-50 136c-15 40 -33 103 -34 103h-1c-1 0 -19 -63 -34 -103z" />
    <glyph glyph-name="abreve" unicode="&#x103;" horiz-adv-x="719" 
d="M432 898h120c-21 -91 -99 -156 -193 -156c-101 0 -176 65 -196 156h122c8 -27 34 -53 74 -53c38 0 66 26 73 53zM538 0l-40 110h-277l-40 -110h-181l280 700h159l280 -700h-181zM275 257h169l-50 136c-15 40 -33 103 -34 103h-1c-1 0 -19 -63 -34 -103z" />
    <glyph glyph-name="acircumflex" unicode="&#xe2;" horiz-adv-x="719" 
d="M355 822l-116 -96l-81 82l197 167l196 -167l-80 -82zM538 0l-40 110h-277l-40 -110h-181l280 700h159l280 -700h-181zM275 257h169l-50 136c-15 40 -33 103 -34 103h-1c-1 0 -19 -63 -34 -103z" />
    <glyph glyph-name="adieresis" unicode="&#xe4;" horiz-adv-x="719" 
d="M221 768c-42 0 -75 32 -75 73s33 74 75 74c41 0 73 -33 73 -74s-32 -73 -73 -73zM490 768c-42 0 -74 32 -74 73s32 74 74 74c41 0 74 -33 74 -74s-33 -73 -74 -73zM538 0l-40 110h-277l-40 -110h-181l280 700h159l280 -700h-181zM275 257h169l-50 136
c-15 40 -33 103 -34 103h-1c-1 0 -19 -63 -34 -103z" />
    <glyph glyph-name="ae" unicode="&#xe6;" horiz-adv-x="1024" 
d="M607 157h347v-157h-510v110h-222l-40 -110h-182l281 700h667v-157h-341v-115h267v-147h-267v-124zM444 257v286h-67c-1 0 -32 -91 -53 -150l-49 -136h169z" />
    <glyph glyph-name="agrave" unicode="&#xe0;" horiz-adv-x="719" 
d="M460 815l-48 -88l-248 103l57 113zM538 0l-40 110h-277l-40 -110h-181l280 700h159l280 -700h-181zM275 257h169l-50 136c-15 40 -33 103 -34 103h-1c-1 0 -19 -63 -34 -103z" />
    <glyph glyph-name="amacron" unicode="&#x101;" horiz-adv-x="719" 
d="M537 895v-129h-347v129h347zM538 0l-40 110h-277l-40 -110h-181l280 700h159l280 -700h-181zM275 257h169l-50 136c-15 40 -33 103 -34 103h-1c-1 0 -19 -63 -34 -103z" />
    <glyph glyph-name="aogonek" unicode="&#x105;" horiz-adv-x="719" 
d="M673 -86l86 -57c-37 -69 -107 -104 -173 -104c-106 0 -186 59 -186 164c0 85 74 143 114 149l-16 44h-277l-40 -110h-181l280 700h159l280 -700h-89c-48 0 -112 -25 -112 -83c0 -30 22 -60 69 -60c34 0 69 22 86 57zM275 257h169l-50 136c-15 40 -33 103 -34 103h-1
c-1 0 -19 -63 -34 -103z" />
    <glyph glyph-name="aring" unicode="&#xe5;" horiz-adv-x="719" 
d="M538 0l-40 110h-277l-40 -110h-181l280 700c-43 26 -72 74 -72 127c0 82 69 150 151 150c83 0 150 -68 150 -150c0 -53 -28 -100 -70 -127l280 -700h-181zM359 883c-28 0 -53 -24 -53 -55c0 -28 25 -53 53 -53c31 0 55 25 55 53c0 31 -24 55 -55 55zM275 257h169l-50 136
c-15 40 -33 103 -34 103h-1c-1 0 -19 -63 -34 -103z" />
    <glyph glyph-name="atilde" unicode="&#xe3;" horiz-adv-x="719" 
d="M474 896h130c0 -90 -66 -156 -158 -156c-74 0 -110 62 -156 62c-26 0 -44 -18 -44 -43h-130c0 90 66 156 158 156c77 0 111 -62 156 -62c26 0 44 18 44 43zM538 0l-40 110h-277l-40 -110h-181l280 700h159l280 -700h-181zM275 257h169l-50 136c-15 40 -33 103 -34 103h-1
c-1 0 -19 -63 -34 -103z" />
    <glyph glyph-name="b" unicode="b" horiz-adv-x="660" 
d="M78 700h304c125 0 212 -83 212 -185c0 -66 -45 -122 -87 -137v-1c66 -18 123 -94 123 -165c0 -117 -77 -212 -250 -212h-302v700zM246 427h101c45 0 78 28 78 66s-33 66 -78 66h-101v-132zM246 141h117c56 0 91 33 91 79c0 49 -38 79 -91 79h-117v-158z" />
    <glyph glyph-name="c" unicode="c" horiz-adv-x="754" 
d="M716 528l-171 -45c-32 40 -92 65 -147 65c-116 0 -188 -83 -188 -198c0 -121 79 -196 188 -196c67 0 131 34 160 82l170 -44c-58 -124 -183 -206 -330 -206c-201 0 -363 153 -363 364s162 364 363 364c138 0 256 -74 318 -186z" />
    <glyph glyph-name="cacute" unicode="&#x107;" horiz-adv-x="754" 
d="M511 943l57 -113l-248 -103l-48 88zM716 528l-171 -45c-32 40 -92 65 -147 65c-116 0 -188 -83 -188 -198c0 -121 79 -196 188 -196c67 0 131 34 160 82l170 -44c-58 -124 -183 -206 -330 -206c-201 0 -363 153 -363 364s162 364 363 364c138 0 256 -74 318 -186z" />
    <glyph glyph-name="ccaron" unicode="&#x10d;" horiz-adv-x="754" 
d="M200 890l197 -167l196 167l-80 82l-116 -96l-116 96zM716 528l-171 -45c-32 40 -92 65 -147 65c-116 0 -188 -83 -188 -198c0 -121 79 -196 188 -196c67 0 131 34 160 82l170 -44c-58 -124 -183 -206 -330 -206c-201 0 -363 153 -363 364s162 364 363 364
c138 0 256 -74 318 -186z" />
    <glyph glyph-name="ccedilla" unicode="&#xe7;" horiz-adv-x="754" 
d="M558 236l170 -44c-53 -113 -162 -192 -293 -204l-16 -44c56 1 109 -39 109 -106c0 -81 -57 -111 -120 -111h-124l34 87h90c22 0 29 11 29 23c0 14 -12 22 -29 23h-107l44 130c-176 24 -310 168 -310 360c0 211 162 364 363 364c138 0 256 -74 318 -186l-171 -45
c-32 40 -92 65 -147 65c-116 0 -188 -83 -188 -198c0 -121 79 -196 188 -196c67 0 131 34 160 82z" />
    <glyph glyph-name="cdotaccent" unicode="&#x10b;" horiz-adv-x="754" 
d="M397 767c-41 0 -74 33 -74 74s33 74 74 74s74 -33 74 -74s-33 -74 -74 -74zM716 528l-171 -45c-32 40 -92 65 -147 65c-116 0 -188 -83 -188 -198c0 -121 79 -196 188 -196c67 0 131 34 160 82l170 -44c-58 -124 -183 -206 -330 -206c-201 0 -363 153 -363 364
s162 364 363 364c138 0 256 -74 318 -186z" />
    <glyph glyph-name="d" unicode="d" horiz-adv-x="781" 
d="M78 700h306c200 0 362 -143 362 -353s-162 -347 -362 -347h-306v700zM246 157h138c100 0 187 70 187 190s-87 196 -187 196h-138v-386z" />
    <glyph glyph-name="dcaron" unicode="&#x10f;" horiz-adv-x="781" 
d="M189 890l197 -167l196 167l-80 82l-116 -96l-116 96zM78 700h306c200 0 362 -143 362 -353s-162 -347 -362 -347h-306v700zM246 157h138c100 0 187 70 187 190s-87 196 -187 196h-138v-386z" />
    <glyph glyph-name="dcroat" unicode="&#x111;" horiz-adv-x="795" 
d="M92 700h306c200 0 362 -143 362 -353s-162 -347 -362 -347h-306v278h-57v151h57v271zM260 157h138c100 0 187 70 187 190s-87 196 -187 196h-138v-114h107v-151h-107v-121z" />
    <glyph glyph-name="dotlessi" unicode="&#x131;" horiz-adv-x="324" 
d="M246 0h-168v700h168v-700z" />
    <glyph glyph-name="dotlessj" unicode="&#x237;" horiz-adv-x="679" 
d="M446 700h168v-389c0 -210 -130 -325 -315 -325c-134 0 -247 76 -289 179l165 44c24 -42 67 -66 124 -66c92 0 147 62 147 162v395z" />
    <glyph glyph-name="e" unicode="e" horiz-adv-x="663" 
d="M246 157h347v-157h-515v700h509v-157h-341v-115h267v-147h-267v-124z" />
    <glyph glyph-name="eacute" unicode="&#xe9;" horiz-adv-x="663" 
d="M519 830l-248 -103l-48 88l239 128zM246 157h347v-157h-515v700h509v-157h-341v-115h267v-147h-267v-124z" />
    <glyph glyph-name="ecaron" unicode="&#x11b;" horiz-adv-x="663" 
d="M544 890l-196 -167l-197 167l81 82l116 -96l116 96zM246 157h347v-157h-515v700h509v-157h-341v-115h267v-147h-267v-124z" />
    <glyph glyph-name="ecircumflex" unicode="&#xea;" horiz-adv-x="663" 
d="M344 822l-116 -96l-81 82l197 167l196 -167l-80 -82zM246 157h347v-157h-515v700h509v-157h-341v-115h267v-147h-267v-124z" />
    <glyph glyph-name="edieresis" unicode="&#xeb;" horiz-adv-x="663" 
d="M210 768c-42 0 -75 32 -75 73s33 74 75 74c41 0 73 -33 73 -74s-32 -73 -73 -73zM479 768c-42 0 -74 32 -74 73s32 74 74 74c41 0 74 -33 74 -74s-33 -73 -74 -73zM246 157h347v-157h-515v700h509v-157h-341v-115h267v-147h-267v-124z" />
    <glyph glyph-name="edotaccent" unicode="&#x117;" horiz-adv-x="663" 
d="M348 767c-41 0 -74 33 -74 74s33 74 74 74s74 -33 74 -74s-33 -74 -74 -74zM246 157h347v-157h-515v700h509v-157h-341v-115h267v-147h-267v-124z" />
    <glyph glyph-name="egrave" unicode="&#xe8;" horiz-adv-x="663" 
d="M449 815l-48 -88l-248 103l57 113zM246 157h347v-157h-515v700h509v-157h-341v-115h267v-147h-267v-124z" />
    <glyph glyph-name="emacron" unicode="&#x113;" horiz-adv-x="663" 
d="M526 895v-129h-347v129h347zM246 157h347v-157h-515v700h509v-157h-341v-115h267v-147h-267v-124z" />
    <glyph glyph-name="eng" unicode="&#x14b;" horiz-adv-x="784" 
d="M538 700h168v-700c0 -143 -100 -247 -237 -247h-41v134h26c60 0 94 44 94 113l-143 195c-64 88 -158 221 -159 221h-1c-1 0 1 -108 1 -261v-155h-168v700h158l149 -200c45 -60 152 -211 153 -211h1c1 0 -1 124 -1 251v160z" />
    <glyph glyph-name="eogonek" unicode="&#x119;" horiz-adv-x="663" 
d="M518 -86l86 -57c-37 -69 -107 -104 -173 -104c-106 0 -186 59 -186 164c0 32 10 60 25 83h-192v700h509v-157h-341v-115h267v-147h-267v-124h347v-157h-118c-48 0 -112 -25 -112 -83c0 -30 22 -60 69 -60c34 0 69 22 86 57z" />
    <glyph glyph-name="eth" unicode="&#xf0;" horiz-adv-x="795" 
d="M92 700h306c200 0 362 -143 362 -353s-162 -347 -362 -347h-306v278h-57v151h57v271zM260 157h138c100 0 187 70 187 190s-87 196 -187 196h-138v-114h107v-151h-107v-121z" />
    <glyph glyph-name="f" unicode="f" horiz-adv-x="612" 
d="M577 543h-331v-137h257v-151h-257v-255h-168v700h499v-157z" />
    <glyph glyph-name="g" unicode="g" horiz-adv-x="792" 
d="M589 57h-1c-41 -44 -121 -71 -190 -71c-201 0 -363 153 -363 364s162 364 363 364c136 0 255 -72 318 -186l-171 -45c-33 40 -92 65 -147 65c-116 0 -188 -83 -188 -198c0 -123 83 -200 198 -200c112 0 161 58 181 110v1h-184v135h327v-396h-144c0 46 1 56 1 57z" />
    <glyph glyph-name="gbreve" unicode="&#x11f;" horiz-adv-x="792" 
d="M202 898h122c8 -27 34 -53 74 -53c38 0 66 26 73 53h120c-21 -91 -99 -156 -193 -156c-101 0 -176 65 -196 156zM589 57h-1c-41 -44 -121 -71 -190 -71c-201 0 -363 153 -363 364s162 364 363 364c136 0 255 -72 318 -186l-171 -45c-33 40 -92 65 -147 65
c-116 0 -188 -83 -188 -198c0 -123 83 -200 198 -200c112 0 161 58 181 110v1h-184v135h327v-396h-144c0 46 1 56 1 57z" />
    <glyph glyph-name="gcircumflex" unicode="&#x11d;" horiz-adv-x="792" 
d="M197 808l197 167l196 -167l-80 -82l-116 96l-116 -96zM589 57h-1c-41 -44 -121 -71 -190 -71c-201 0 -363 153 -363 364s162 364 363 364c136 0 255 -72 318 -186l-171 -45c-33 40 -92 65 -147 65c-116 0 -188 -83 -188 -198c0 -123 83 -200 198 -200
c112 0 161 58 181 110v1h-184v135h327v-396h-144c0 46 1 56 1 57z" />
    <glyph glyph-name="gcommaaccent" unicode="&#x123;" horiz-adv-x="792" 
d="M589 57h-1c-41 -44 -121 -71 -190 -71c-201 0 -363 153 -363 364s162 364 363 364c136 0 255 -72 318 -186l-171 -45c-33 40 -92 65 -147 65c-116 0 -188 -83 -188 -198c0 -123 83 -200 198 -200c112 0 161 58 181 110v1h-184v135h327v-396h-144c0 46 1 56 1 57z
M375 -180l14 4l-14 2c-25 3 -53 26 -53 64c0 39 32 71 72 71c39 0 71 -32 71 -80c0 -57 -46 -127 -104 -172h-55c32 20 69 82 69 111z" />
    <glyph glyph-name="gdotaccent" unicode="&#x121;" horiz-adv-x="792" 
d="M398 767c-41 0 -74 33 -74 74s33 74 74 74s74 -33 74 -74s-33 -74 -74 -74zM589 57h-1c-41 -44 -121 -71 -190 -71c-201 0 -363 153 -363 364s162 364 363 364c136 0 255 -72 318 -186l-171 -45c-33 40 -92 65 -147 65c-116 0 -188 -83 -188 -198
c0 -123 83 -200 198 -200c112 0 161 58 181 110v1h-184v135h327v-396h-144c0 46 1 56 1 57z" />
    <glyph glyph-name="germandbls" unicode="&#xdf;" horiz-adv-x="830" 
d="M78 700h650l-98 -186c-23 -44 -49 -98 -49 -99l1 -1h4c111 0 209 -92 209 -203c0 -124 -94 -225 -249 -225c-109 0 -197 56 -244 135l159 43c23 -24 45 -36 77 -36c63 0 88 40 88 85c0 43 -32 80 -93 80h-114v121l29 62c15 32 32 67 32 68l-1 1c-1 0 -33 -2 -66 -2h-167
v-543h-168v700z" />
    <glyph glyph-name="h" unicode="h" horiz-adv-x="754" 
d="M508 700h168v-700h-168v272h-262v-272h-168v700h168v-271h262v271z" />
    <glyph glyph-name="hbar" unicode="&#x127;" horiz-adv-x="754" 
d="M748 638v-137h-72v-501h-168v272h-262v-272h-168v501h-72v137h72v62h168v-62h262v62h168v-62h72zM508 429v72h-262v-72h262z" />
    <glyph glyph-name="hcircumflex" unicode="&#x125;" horiz-adv-x="754" 
d="M373 822l-116 -96l-81 82l197 167l196 -167l-80 -82zM508 700h168v-700h-168v272h-262v-272h-168v700h168v-271h262v271z" />
    <glyph glyph-name="i" unicode="i" horiz-adv-x="324" 
d="M246 0h-168v700h168v-700z" />
    <glyph glyph-name="iacute" unicode="&#xed;" horiz-adv-x="324" 
d="M276 943l57 -113l-248 -103l-48 88zM246 0h-168v700h168v-700z" />
    <glyph glyph-name="icircumflex" unicode="&#xee;" horiz-adv-x="324" 
d="M-39 808l197 167l196 -167l-80 -82l-116 96l-116 -96zM246 0h-168v700h168v-700z" />
    <glyph glyph-name="idieresis" unicode="&#xef;" horiz-adv-x="324" 
d="M24 768c-42 0 -75 32 -75 73s33 74 75 74c41 0 73 -33 73 -74s-32 -73 -73 -73zM293 768c-42 0 -74 32 -74 73s32 74 74 74c41 0 74 -33 74 -74s-33 -73 -74 -73zM246 0h-168v700h168v-700z" />
    <glyph glyph-name="igrave" unicode="&#xec;" horiz-adv-x="324" 
d="M215 727l-248 103l57 113l239 -128zM246 0h-168v700h168v-700z" />
    <glyph glyph-name="ij" unicode="&#x133;" horiz-adv-x="988" 
d="M246 0h-168v700h168v-700zM755 700h168v-389c0 -210 -130 -325 -315 -325c-134 0 -247 76 -289 179l165 44c24 -42 67 -66 124 -66c92 0 147 62 147 162v395z" />
    <glyph glyph-name="imacron" unicode="&#x12b;" horiz-adv-x="324" 
d="M-7 895h347v-129h-347v129zM246 0h-168v700h168v-700z" />
    <glyph glyph-name="iogonek" unicode="&#x12f;" horiz-adv-x="324" 
d="M236 -86l86 -57c-37 -69 -107 -104 -173 -104c-106 0 -186 59 -186 164c0 86 76 144 115 150v633h168v-700h-53c-48 0 -112 -25 -112 -83c0 -30 22 -60 69 -60c34 0 69 22 86 57z" />
    <glyph glyph-name="j" unicode="j" horiz-adv-x="679" 
d="M446 700h168v-389c0 -210 -130 -325 -315 -325c-134 0 -247 76 -289 179l165 44c24 -42 67 -66 124 -66c92 0 147 62 147 162v395z" />
    <glyph glyph-name="jcircumflex" unicode="&#x135;" horiz-adv-x="679" 
d="M330 808l197 167l196 -167l-80 -82l-116 96l-116 -96zM446 700h168v-389c0 -210 -130 -325 -315 -325c-134 0 -247 76 -289 179l165 44c24 -42 67 -66 124 -66c92 0 147 62 147 162v395z" />
    <glyph glyph-name="k" unicode="k" horiz-adv-x="733" 
d="M715 0h-198l-212 291l-59 -59v-232h-168v700h168v-114c0 -116 -3 -150 -2 -150h1c1 0 21 24 92 95l170 169h206l-297 -298z" />
    <glyph glyph-name="kcommaaccent" unicode="&#x137;" horiz-adv-x="733" 
d="M416 402l299 -402h-198l-212 291l-59 -59v-232h-168v700h168v-114c0 -116 -3 -150 -2 -150h1c1 0 21 24 92 95l170 169h206zM363 -176l-14 2c-25 3 -53 26 -53 64c0 39 32 71 72 71c39 0 71 -32 71 -80c0 -57 -46 -127 -104 -172h-55c32 20 69 82 69 111z" />
    <glyph glyph-name="l" unicode="l" horiz-adv-x="597" 
d="M246 157h331v-157h-499v700h168v-543z" />
    <glyph glyph-name="lacute" unicode="&#x13a;" horiz-adv-x="597" 
d="M346 830l-248 -103l-48 88l239 128zM246 157h331v-157h-499v700h168v-543z" />
    <glyph glyph-name="lcaron" unicode="&#x13e;" horiz-adv-x="597" 
d="M372 434h-61c35 22 76 91 76 123l15 4l-15 2c-27 4 -58 29 -58 71c0 43 35 78 79 78c43 0 78 -35 78 -88c0 -63 -51 -140 -114 -190zM246 157h331v-157h-499v700h168v-543z" />
    <glyph glyph-name="lcommaaccent" unicode="&#x13c;" horiz-adv-x="597" 
d="M246 157h331v-157h-499v700h168v-543zM270 -176l-14 2c-25 3 -53 26 -53 64c0 39 32 71 72 71c39 0 71 -32 71 -80c0 -57 -46 -127 -104 -172h-55c32 20 69 82 69 111z" />
    <glyph glyph-name="ldot" unicode="&#x140;" horiz-adv-x="597" 
d="M246 157h331v-157h-499v700h168v-543zM424 315c-41 0 -74 33 -74 74s33 74 74 74s74 -33 74 -74s-33 -74 -74 -74z" />
    <glyph glyph-name="lslash" unicode="&#x142;" horiz-adv-x="597" 
d="M246 157h331v-157h-499v700h168v-250l241 125v-159l-241 -124v-135z" />
    <glyph glyph-name="m" unicode="m" horiz-adv-x="855" 
d="M619 700h158v-700h-165v171c0 166 6 248 5 248h-1c-1 0 -57 -96 -63 -106l-82 -140h-87l-82 140c-6 10 -62 106 -63 106h-1c-1 0 5 -82 5 -248v-171h-165v700h158l131 -212c51 -83 59 -101 60 -101h1c1 0 9 18 60 101z" />
    <glyph glyph-name="n" unicode="n" horiz-adv-x="784" 
d="M538 700h168v-700h-158l-143 195c-64 88 -158 221 -159 221h-1c-1 0 1 -108 1 -261v-155h-168v700h158l149 -200c45 -60 152 -211 153 -211h1c1 0 -1 124 -1 251v160z" />
    <glyph glyph-name="nacute" unicode="&#x144;" horiz-adv-x="784" 
d="M506 943l57 -113l-248 -103l-48 88zM538 700h168v-700h-158l-143 195c-64 88 -158 221 -159 221h-1c-1 0 1 -108 1 -261v-155h-168v700h158l149 -200c45 -60 152 -211 153 -211h1c1 0 -1 124 -1 251v160z" />
    <glyph glyph-name="ncaron" unicode="&#x148;" horiz-adv-x="784" 
d="M195 890l197 -167l196 167l-80 82l-116 -96l-116 96zM538 700h168v-700h-158l-143 195c-64 88 -158 221 -159 221h-1c-1 0 1 -108 1 -261v-155h-168v700h158l149 -200c45 -60 152 -211 153 -211h1c1 0 -1 124 -1 251v160z" />
    <glyph glyph-name="ncommaaccent" unicode="&#x146;" horiz-adv-x="784" 
d="M538 700h168v-700h-158l-143 195c-64 88 -158 221 -159 221h-1c-1 0 1 -108 1 -261v-155h-168v700h158l149 -200c45 -60 152 -211 153 -211h1c1 0 -1 124 -1 251v160zM379 -180l14 4l-14 2c-25 3 -53 26 -53 64c0 39 32 71 72 71c39 0 71 -32 71 -80
c0 -57 -46 -127 -104 -172h-55c32 20 69 82 69 111z" />
    <glyph glyph-name="ntilde" unicode="&#xf1;" horiz-adv-x="784" 
d="M507 896h130c0 -90 -66 -156 -158 -156c-74 0 -110 62 -156 62c-26 0 -44 -18 -44 -43h-130c0 90 66 156 158 156c77 0 111 -62 156 -62c26 0 44 18 44 43zM538 700h168v-700h-158l-143 195c-64 88 -158 221 -159 221h-1c-1 0 1 -108 1 -261v-155h-168v700h158l149 -200
c45 -60 152 -211 153 -211h1c1 0 -1 124 -1 251v160z" />
    <glyph glyph-name="o" unicode="o" horiz-adv-x="797" 
d="M35 350c0 211 162 364 363 364s364 -153 364 -364s-163 -364 -364 -364s-363 153 -363 364zM210 350c0 -117 75 -198 188 -198c114 0 189 81 189 198c0 118 -75 198 -189 198c-113 0 -188 -80 -188 -198z" />
    <glyph glyph-name="oacute" unicode="&#xf3;" horiz-adv-x="797" 
d="M515 943l57 -113l-248 -103l-48 88zM35 350c0 211 162 364 363 364s364 -153 364 -364s-163 -364 -364 -364s-363 153 -363 364zM210 350c0 -117 75 -198 188 -198c114 0 189 81 189 198c0 118 -75 198 -189 198c-113 0 -188 -80 -188 -198z" />
    <glyph glyph-name="ocircumflex" unicode="&#xf4;" horiz-adv-x="797" 
d="M200 808l197 167l196 -167l-80 -82l-116 96l-116 -96zM35 350c0 211 162 364 363 364s364 -153 364 -364s-163 -364 -364 -364s-363 153 -363 364zM210 350c0 -117 75 -198 188 -198c114 0 189 81 189 198c0 118 -75 198 -189 198c-113 0 -188 -80 -188 -198z" />
    <glyph glyph-name="odieresis" unicode="&#xf6;" horiz-adv-x="797" 
d="M263 768c-42 0 -75 32 -75 73s33 74 75 74c41 0 73 -33 73 -74s-32 -73 -73 -73zM532 768c-42 0 -74 32 -74 73s32 74 74 74c41 0 74 -33 74 -74s-33 -73 -74 -73zM35 350c0 211 162 364 363 364s364 -153 364 -364s-163 -364 -364 -364s-363 153 -363 364zM210 350
c0 -117 75 -198 188 -198c114 0 189 81 189 198c0 118 -75 198 -189 198c-113 0 -188 -80 -188 -198z" />
    <glyph glyph-name="oe" unicode="&#x153;" horiz-adv-x="1066" 
d="M649 157h347v-157h-510c-31 -4 -64 -4 -98 -4c-197 0 -353 147 -353 354s156 354 353 354c18 0 56 1 98 -4h504v-157h-341v-115h267v-147h-267v-124zM486 179v342c-26 12 -59 17 -98 17c-109 0 -178 -74 -178 -188c0 -113 69 -188 178 -188c39 0 72 6 98 17z" />
    <glyph glyph-name="ograve" unicode="&#xf2;" horiz-adv-x="797" 
d="M454 727l-248 103l57 113l239 -128zM35 350c0 211 162 364 363 364s364 -153 364 -364s-163 -364 -364 -364s-363 153 -363 364zM210 350c0 -117 75 -198 188 -198c114 0 189 81 189 198c0 118 -75 198 -189 198c-113 0 -188 -80 -188 -198z" />
    <glyph glyph-name="ohungarumlaut" unicode="&#x151;" horiz-adv-x="797" 
d="M392 788l-147 -61l-48 88l239 128l38 -76l142 76l57 -113l-248 -103zM398 714c201 0 364 -153 364 -364s-163 -364 -364 -364s-363 153 -363 364s162 364 363 364zM398 152c114 0 189 81 189 198c0 118 -75 198 -189 198c-113 0 -188 -80 -188 -198
c0 -117 75 -198 188 -198z" />
    <glyph glyph-name="omacron" unicode="&#x14d;" horiz-adv-x="797" 
d="M232 895h347v-129h-347v129zM35 350c0 211 162 364 363 364s364 -153 364 -364s-163 -364 -364 -364s-363 153 -363 364zM210 350c0 -117 75 -198 188 -198c114 0 189 81 189 198c0 118 -75 198 -189 198c-113 0 -188 -80 -188 -198z" />
    <glyph glyph-name="oslash" unicode="&#xf8;" horiz-adv-x="797" 
d="M715 637l-38 -49c53 -63 85 -145 85 -238c0 -211 -163 -364 -364 -364c-56 0 -109 12 -156 33l-37 -48l-119 90l37 48c-55 63 -88 146 -88 241c0 211 162 364 363 364c58 0 113 -13 161 -36l37 48zM232 251l222 290c-17 5 -36 7 -56 7c-113 0 -188 -80 -188 -198
c0 -37 8 -71 22 -99zM568 445l-220 -287c16 -4 32 -6 50 -6c114 0 189 81 189 198c0 35 -7 67 -19 95z" />
    <glyph glyph-name="otilde" unicode="&#xf5;" horiz-adv-x="797" 
d="M516 896h130c0 -90 -66 -156 -158 -156c-74 0 -110 62 -156 62c-26 0 -44 -18 -44 -43h-130c0 90 66 156 158 156c77 0 111 -62 156 -62c26 0 44 18 44 43zM35 350c0 211 162 364 363 364s364 -153 364 -364s-163 -364 -364 -364s-363 153 -363 364zM210 350
c0 -117 75 -198 188 -198c114 0 189 81 189 198c0 118 -75 198 -189 198c-113 0 -188 -80 -188 -198z" />
    <glyph glyph-name="p" unicode="p" horiz-adv-x="651" 
d="M78 700h267c172 0 276 -90 276 -240s-104 -240 -276 -240h-99v-220h-168v700zM246 377h96c65 0 104 31 104 83s-39 83 -104 83h-96v-166z" />
    <glyph glyph-name="q" unicode="q" horiz-adv-x="797" 
d="M312 -132v128c-159 36 -277 174 -277 354c0 211 162 364 363 364s364 -153 364 -364c0 -181 -120 -320 -282 -355v-127h-168zM398 152c114 0 189 81 189 198c0 118 -75 198 -189 198c-113 0 -188 -80 -188 -198c0 -117 75 -198 188 -198z" />
    <glyph glyph-name="r" unicode="r" horiz-adv-x="680" 
d="M650 0h-188l-130 228h-86v-228h-168v700h261c176 0 282 -96 282 -240c0 -94 -45 -164 -126 -202zM246 543v-166h116c60 0 84 45 84 83s-24 83 -84 83h-116z" />
    <glyph glyph-name="racute" unicode="&#x155;" horiz-adv-x="680" 
d="M499 830l-248 -103l-48 88l239 128zM650 0h-188l-130 228h-86v-228h-168v700h261c176 0 282 -96 282 -240c0 -94 -45 -164 -126 -202zM246 543v-166h116c60 0 84 45 84 83s-24 83 -84 83h-116z" />
    <glyph glyph-name="rcaron" unicode="&#x159;" horiz-adv-x="680" 
d="M524 890l-196 -167l-197 167l81 82l116 -96l116 96zM650 0h-188l-130 228h-86v-228h-168v700h261c176 0 282 -96 282 -240c0 -94 -45 -164 -126 -202zM246 543v-166h116c60 0 84 45 84 83s-24 83 -84 83h-116z" />
    <glyph glyph-name="rcommaaccent" unicode="&#x157;" horiz-adv-x="680" 
d="M495 258l155 -258h-188l-130 228h-86v-228h-168v700h261c176 0 282 -96 282 -240c0 -94 -45 -164 -126 -202zM246 543v-166h116c60 0 84 45 84 83s-24 83 -84 83h-116zM347 -176l-14 2c-25 3 -53 26 -53 64c0 39 32 71 72 71c39 0 71 -32 71 -80
c0 -57 -46 -127 -104 -172h-55c32 20 69 82 69 111z" />
    <glyph glyph-name="s" unicode="s" horiz-adv-x="614" 
d="M583 522l-162 -44c-17 62 -71 91 -121 91s-79 -25 -79 -53c0 -46 70 -63 155 -94c104 -38 213 -97 213 -217c0 -128 -110 -219 -273 -219c-146 0 -250 81 -296 212l161 43c18 -53 68 -106 142 -106c60 0 88 28 88 62c0 56 -82 70 -182 108c-84 32 -181 78 -181 201
c0 109 110 208 262 208c134 0 240 -82 273 -192z" />
    <glyph glyph-name="sacute" unicode="&#x15b;" horiz-adv-x="614" 
d="M445 943l57 -113l-248 -103l-48 88zM583 522l-162 -44c-17 62 -71 91 -121 91s-79 -25 -79 -53c0 -46 70 -63 155 -94c104 -38 213 -97 213 -217c0 -128 -110 -219 -273 -219c-146 0 -250 81 -296 212l161 43c18 -53 68 -106 142 -106c60 0 88 28 88 62
c0 56 -82 70 -182 108c-84 32 -181 78 -181 201c0 109 110 208 262 208c134 0 240 -82 273 -192z" />
    <glyph glyph-name="scaron" unicode="&#x161;" horiz-adv-x="614" 
d="M134 890l197 -167l196 167l-80 82l-116 -96l-116 96zM583 522l-162 -44c-17 62 -71 91 -121 91s-79 -25 -79 -53c0 -46 70 -63 155 -94c104 -38 213 -97 213 -217c0 -128 -110 -219 -273 -219c-146 0 -250 81 -296 212l161 43c18 -53 68 -106 142 -106c60 0 88 28 88 62
c0 56 -82 70 -182 108c-84 32 -181 78 -181 201c0 109 110 208 262 208c134 0 240 -82 273 -192z" />
    <glyph glyph-name="scedilla" unicode="&#x15f;" horiz-adv-x="614" 
d="M583 522l-162 -44c-17 62 -71 91 -121 91s-79 -25 -79 -53c0 -46 70 -63 155 -94c104 -38 213 -97 213 -217c0 -109 -79 -191 -203 -213l-18 -48c56 1 109 -39 109 -106c0 -81 -57 -111 -120 -111h-124l34 87h90c22 0 29 11 29 23c0 14 -12 22 -29 23h-107l43 127
c-134 8 -229 87 -273 211l161 43c18 -53 68 -106 142 -106c60 0 88 28 88 62c0 56 -82 70 -182 108c-84 32 -181 78 -181 201c0 109 110 208 262 208c134 0 240 -82 273 -192z" />
    <glyph glyph-name="scircumflex" unicode="&#x15d;" horiz-adv-x="614" 
d="M120 808l197 167l196 -167l-80 -82l-116 96l-116 -96zM583 522l-162 -44c-17 62 -71 91 -121 91s-79 -25 -79 -53c0 -46 70 -63 155 -94c104 -38 213 -97 213 -217c0 -128 -110 -219 -273 -219c-146 0 -250 81 -296 212l161 43c18 -53 68 -106 142 -106c60 0 88 28 88 62
c0 56 -82 70 -182 108c-84 32 -181 78 -181 201c0 109 110 208 262 208c134 0 240 -82 273 -192z" />
    <glyph glyph-name="scommaaccent" unicode="&#x219;" horiz-adv-x="614" 
d="M583 522l-162 -44c-17 62 -71 91 -121 91s-79 -25 -79 -53c0 -46 70 -63 155 -94c104 -38 213 -97 213 -217c0 -128 -110 -219 -273 -219c-146 0 -250 81 -296 212l161 43c18 -53 68 -106 142 -106c60 0 88 28 88 62c0 56 -82 70 -182 108c-84 32 -181 78 -181 201
c0 109 110 208 262 208c134 0 240 -82 273 -192zM283 -180l14 4l-14 2c-25 3 -53 26 -53 64c0 39 32 71 72 71c39 0 71 -32 71 -80c0 -57 -46 -127 -104 -172h-55c32 20 69 82 69 111z" />
    <glyph glyph-name="t" unicode="t" horiz-adv-x="611" 
d="M10 700h591v-157h-213v-543h-168v543h-210v157z" />
    <glyph glyph-name="tbar" unicode="&#x167;" horiz-adv-x="611" 
d="M601 543h-213v-120h101v-127h-101v-296h-168v296h-101v127h101v120h-210v157h591v-157z" />
    <glyph glyph-name="tcaron" unicode="&#x165;" horiz-adv-x="611" 
d="M518 890l-196 -167l-197 167l81 82l116 -96l116 96zM10 700h591v-157h-213v-543h-168v543h-210v157z" />
    <glyph glyph-name="tcedilla" unicode="&#x163;" horiz-adv-x="611" 
d="M388 0h-50l-21 -56c56 1 109 -39 109 -106c0 -81 -57 -111 -120 -111h-124l34 87h90c22 0 29 11 29 23c0 14 -12 22 -29 23h-107l48 140h-27v543h-210v157h591v-157h-213v-543z" />
    <glyph glyph-name="uni021B" unicode="&#x21b;" horiz-adv-x="611" 
d="M10 700h591v-157h-213v-543h-168v543h-210v157zM280 -176l-14 2c-25 3 -53 26 -53 64c0 39 32 71 72 71c39 0 71 -32 71 -80c0 -57 -46 -127 -104 -172h-55c32 20 69 82 69 111z" />
    <glyph glyph-name="thorn" unicode="&#xfe;" horiz-adv-x="650" 
d="M246 590h101c164 0 273 -101 273 -240s-109 -240 -273 -240h-101v-110h-168v700h168v-110zM246 267h105c61 0 94 35 94 83s-33 83 -94 83h-105v-166z" />
    <glyph glyph-name="u" unicode="u" horiz-adv-x="748" 
d="M515 700h168v-389c0 -210 -124 -325 -309 -325c-186 0 -309 115 -309 325v389h168v-385c0 -120 49 -172 141 -172s141 52 141 172v385z" />
    <glyph glyph-name="uacute" unicode="&#xfa;" horiz-adv-x="748" 
d="M489 943l57 -113l-248 -103l-48 88zM515 700h168v-389c0 -210 -124 -325 -309 -325c-186 0 -309 115 -309 325v389h168v-385c0 -120 49 -172 141 -172s141 52 141 172v385z" />
    <glyph glyph-name="ubreve" unicode="&#x16d;" horiz-adv-x="748" 
d="M179 898h122c8 -27 34 -53 74 -53c38 0 66 26 73 53h120c-21 -91 -99 -156 -193 -156c-101 0 -176 65 -196 156zM515 700h168v-389c0 -210 -124 -325 -309 -325c-186 0 -309 115 -309 325v389h168v-385c0 -120 49 -172 141 -172s141 52 141 172v385z" />
    <glyph glyph-name="ucircumflex" unicode="&#xfb;" horiz-adv-x="748" 
d="M174 808l197 167l196 -167l-80 -82l-116 96l-116 -96zM515 700h168v-389c0 -210 -124 -325 -309 -325c-186 0 -309 115 -309 325v389h168v-385c0 -120 49 -172 141 -172s141 52 141 172v385z" />
    <glyph glyph-name="udieresis" unicode="&#xfc;" horiz-adv-x="748" 
d="M237 768c-42 0 -75 32 -75 73s33 74 75 74c41 0 73 -33 73 -74s-32 -73 -73 -73zM506 768c-42 0 -74 32 -74 73s32 74 74 74c41 0 74 -33 74 -74s-33 -73 -74 -73zM515 700h168v-389c0 -210 -124 -325 -309 -325c-186 0 -309 115 -309 325v389h168v-385
c0 -120 49 -172 141 -172s141 52 141 172v385z" />
    <glyph glyph-name="ugrave" unicode="&#xf9;" horiz-adv-x="748" 
d="M428 727l-248 103l57 113l239 -128zM515 700h168v-389c0 -210 -124 -325 -309 -325c-186 0 -309 115 -309 325v389h168v-385c0 -120 49 -172 141 -172s141 52 141 172v385z" />
    <glyph glyph-name="uhungarumlaut" unicode="&#x171;" horiz-adv-x="748" 
d="M366 788l-147 -61l-48 88l239 128l38 -76l142 76l57 -113l-248 -103zM515 700h168v-389c0 -210 -124 -325 -309 -325c-186 0 -309 115 -309 325v389h168v-385c0 -120 49 -172 141 -172s141 52 141 172v385z" />
    <glyph glyph-name="umacron" unicode="&#x16b;" horiz-adv-x="748" 
d="M206 895h347v-129h-347v129zM515 700h168v-389c0 -210 -124 -325 -309 -325c-186 0 -309 115 -309 325v389h168v-385c0 -120 49 -172 141 -172s141 52 141 172v385z" />
    <glyph glyph-name="uogonek" unicode="&#x173;" horiz-adv-x="748" 
d="M683 700v-389c0 -159 -71 -264 -186 -305c-45 -19 -86 -44 -86 -93c0 -30 21 -56 60 -56c30 0 65 25 82 60l85 -56c-31 -63 -101 -108 -167 -108c-96 0 -176 56 -176 146c0 38 17 67 38 89c-163 16 -268 129 -268 323v389h168v-385c0 -120 49 -172 141 -172
s141 52 141 172v385h168z" />
    <glyph glyph-name="uring" unicode="&#x16f;" horiz-adv-x="748" 
d="M375 677c-82 0 -151 68 -151 150s69 150 151 150c83 0 150 -68 150 -150s-67 -150 -150 -150zM375 775c31 0 55 25 55 53c0 31 -24 55 -55 55c-28 0 -53 -24 -53 -55c0 -28 25 -53 53 -53zM515 700h168v-389c0 -210 -124 -325 -309 -325c-186 0 -309 115 -309 325v389
h168v-385c0 -120 49 -172 141 -172s141 52 141 172v385z" />
    <glyph glyph-name="v" unicode="v" horiz-adv-x="719" 
d="M535 700h184l-269 -700h-181l-269 700h184l135 -386c27 -78 39 -128 40 -128h1c1 0 13 50 40 128z" />
    <glyph glyph-name="w" unicode="w" horiz-adv-x="1051" 
d="M852 700h179l-212 -700h-158l-104 323c-22 69 -30 118 -31 118h-1c-1 0 -9 -49 -31 -118l-104 -323h-158l-212 700h179l86 -330c17 -66 27 -113 28 -113h1c1 0 12 47 36 113l97 264h157l97 -264c24 -66 35 -113 36 -113h1c1 0 11 47 28 113z" />
    <glyph glyph-name="wacute" unicode="&#x1e83;" horiz-adv-x="1051" 
d="M630 943l57 -113l-248 -103l-48 88zM852 700h179l-212 -700h-158l-104 323c-22 69 -30 118 -31 118h-1c-1 0 -9 -49 -31 -118l-104 -323h-158l-212 700h179l86 -330c17 -66 27 -113 28 -113h1c1 0 12 47 36 113l97 264h157l97 -264c24 -66 35 -113 36 -113h1
c1 0 11 47 28 113z" />
    <glyph glyph-name="wcircumflex" unicode="&#x175;" horiz-adv-x="1051" 
d="M315 808l197 167l196 -167l-80 -82l-116 96l-116 -96zM852 700h179l-212 -700h-158l-104 323c-22 69 -30 118 -31 118h-1c-1 0 -9 -49 -31 -118l-104 -323h-158l-212 700h179l86 -330c17 -66 27 -113 28 -113h1c1 0 12 47 36 113l97 264h157l97 -264
c24 -66 35 -113 36 -113h1c1 0 11 47 28 113z" />
    <glyph glyph-name="wdieresis" unicode="&#x1e85;" horiz-adv-x="1051" 
d="M378 768c-42 0 -75 32 -75 73s33 74 75 74c41 0 73 -33 73 -74s-32 -73 -73 -73zM647 768c-42 0 -74 32 -74 73s32 74 74 74c41 0 74 -33 74 -74s-33 -73 -74 -73zM852 700h179l-212 -700h-158l-104 323c-22 69 -30 118 -31 118h-1c-1 0 -9 -49 -31 -118l-104 -323h-158
l-212 700h179l86 -330c17 -66 27 -113 28 -113h1c1 0 12 47 36 113l97 264h157l97 -264c24 -66 35 -113 36 -113h1c1 0 11 47 28 113z" />
    <glyph glyph-name="wgrave" unicode="&#x1e81;" horiz-adv-x="1051" 
d="M569 727l-248 103l57 113l239 -128zM852 700h179l-212 -700h-158l-104 323c-22 69 -30 118 -31 118h-1c-1 0 -9 -49 -31 -118l-104 -323h-158l-212 700h179l86 -330c17 -66 27 -113 28 -113h1c1 0 12 47 36 113l97 264h157l97 -264c24 -66 35 -113 36 -113h1
c1 0 11 47 28 113z" />
    <glyph glyph-name="x" unicode="x" horiz-adv-x="689" 
d="M345 214h-1c-1 0 -43 -75 -52 -89l-82 -125h-200l234 357l-224 343h202l84 -137c10 -16 37 -69 38 -69h1c1 0 28 53 38 69l84 137h202l-224 -343l234 -357h-200l-82 125c-9 14 -51 89 -52 89z" />
    <glyph glyph-name="y" unicode="y" horiz-adv-x="723" 
d="M525 700h188l-268 -390v-310h-167v310l-268 390h188l127 -187c20 -30 35 -51 36 -51h1c1 0 16 21 36 51z" />
    <glyph glyph-name="yacute" unicode="&#xfd;" horiz-adv-x="723" 
d="M476 943l57 -113l-248 -103l-48 88zM525 700h188l-268 -390v-310h-167v310l-268 390h188l127 -187c20 -30 35 -51 36 -51h1c1 0 16 21 36 51z" />
    <glyph glyph-name="ycircumflex" unicode="&#x177;" horiz-adv-x="723" 
d="M161 808l197 167l196 -167l-80 -82l-116 96l-116 -96zM525 700h188l-268 -390v-310h-167v310l-268 390h188l127 -187c20 -30 35 -51 36 -51h1c1 0 16 21 36 51z" />
    <glyph glyph-name="ydieresis" unicode="&#xff;" horiz-adv-x="723" 
d="M224 768c-42 0 -75 32 -75 73s33 74 75 74c41 0 73 -33 73 -74s-32 -73 -73 -73zM493 768c-42 0 -74 32 -74 73s32 74 74 74c41 0 74 -33 74 -74s-33 -73 -74 -73zM525 700h188l-268 -390v-310h-167v310l-268 390h188l127 -187c20 -30 35 -51 36 -51h1c1 0 16 21 36 51z
" />
    <glyph glyph-name="ygrave" unicode="&#x1ef3;" horiz-adv-x="723" 
d="M415 727l-248 103l57 113l239 -128zM525 700h188l-268 -390v-310h-167v310l-268 390h188l127 -187c20 -30 35 -51 36 -51h1c1 0 16 21 36 51z" />
    <glyph glyph-name="z" unicode="z" horiz-adv-x="712" 
d="M652 700v-157l-298 -321c-31 -33 -65 -66 -65 -67l1 -1c1 0 49 3 109 3h253v-157h-592v157l312 328c25 27 65 59 65 60l-1 1c-1 0 -65 -3 -109 -3h-257v157h582z" />
    <glyph glyph-name="zacute" unicode="&#x17a;" horiz-adv-x="712" 
d="M480 943l57 -113l-248 -103l-48 88zM652 700v-157l-298 -321c-31 -33 -65 -66 -65 -67l1 -1c1 0 49 3 109 3h253v-157h-592v157l312 328c25 27 65 59 65 60l-1 1c-1 0 -65 -3 -109 -3h-257v157h582z" />
    <glyph glyph-name="zcaron" unicode="&#x17e;" horiz-adv-x="712" 
d="M169 890l197 -167l196 167l-80 82l-116 -96l-116 96zM652 700v-157l-298 -321c-31 -33 -65 -66 -65 -67l1 -1c1 0 49 3 109 3h253v-157h-592v157l312 328c25 27 65 59 65 60l-1 1c-1 0 -65 -3 -109 -3h-257v157h582z" />
    <glyph glyph-name="zdotaccent" unicode="&#x17c;" horiz-adv-x="712" 
d="M366 767c-41 0 -74 33 -74 74s33 74 74 74s74 -33 74 -74s-33 -74 -74 -74zM652 700v-157l-298 -321c-31 -33 -65 -66 -65 -67l1 -1c1 0 49 3 109 3h253v-157h-592v157l312 328c25 27 65 59 65 60l-1 1c-1 0 -65 -3 -109 -3h-257v157h582z" />
    <glyph glyph-name="Cacute.loclPLK" horiz-adv-x="754" 
d="M445 976l122 -68l-123 -181l-104 59zM716 528l-171 -45c-32 40 -92 65 -147 65c-116 0 -188 -83 -188 -198c0 -121 79 -196 188 -196c67 0 131 34 160 82l170 -44c-58 -124 -183 -206 -330 -206c-201 0 -363 153 -363 364s162 364 363 364c138 0 256 -74 318 -186z" />
    <glyph glyph-name="I.ss03" horiz-adv-x="518" 
d="M343 147h140v-147h-448v147h140v406h-136v147h440v-147h-136v-406z" />
    <glyph glyph-name="IJ.ss03" horiz-adv-x="1182" 
d="M343 553v-406h140v-147h-448v147h140v406h-136v147h440v-147h-136zM949 700h168v-389c0 -210 -130 -325 -315 -325c-134 0 -247 76 -289 179l165 44c24 -42 67 -66 124 -66c92 0 147 62 147 162v395z" />
    <glyph glyph-name="IJ.ss03.ss04" horiz-adv-x="1177" 
d="M343 553v-406h140v-147h-448v147h140v406h-136v147h440v-147h-136zM651 700h461v-389c0 -210 -130 -325 -315 -325c-134 0 -247 76 -289 179l165 44c24 -42 67 -66 124 -66c92 0 147 62 147 162v238h-293v157z" />
    <glyph glyph-name="IJ.ss04" horiz-adv-x="983" 
d="M78 0v700h168v-700h-168zM457 700h461v-389c0 -210 -130 -325 -315 -325c-134 0 -247 76 -289 179l165 44c24 -42 67 -66 124 -66c92 0 147 62 147 162v238h-293v157z" />
    <glyph glyph-name="Iacute.ss03" horiz-adv-x="518" 
d="M432 830l-248 -103l-48 88l239 128zM343 147h140v-147h-448v147h140v406h-136v147h440v-147h-136v-406z" />
    <glyph glyph-name="Icircumflex.ss03" horiz-adv-x="518" 
d="M257 822l-116 -96l-81 82l197 167l196 -167l-80 -82zM343 147h140v-147h-448v147h140v406h-136v147h440v-147h-136v-406z" />
    <glyph glyph-name="Idieresis.ss03" horiz-adv-x="518" 
d="M123 768c-42 0 -75 32 -75 73s33 74 75 74c41 0 73 -33 73 -74s-32 -73 -73 -73zM392 768c-42 0 -74 32 -74 73s32 74 74 74c41 0 74 -33 74 -74s-33 -73 -74 -73zM343 147h140v-147h-448v147h140v406h-136v147h440v-147h-136v-406z" />
    <glyph glyph-name="Idotaccent.ss03" horiz-adv-x="518" 
d="M261 767c-41 0 -74 33 -74 74s33 74 74 74s74 -33 74 -74s-33 -74 -74 -74zM343 147h140v-147h-448v147h140v406h-136v147h440v-147h-136v-406z" />
    <glyph glyph-name="Igrave.ss03" horiz-adv-x="518" 
d="M362 815l-48 -88l-248 103l57 113zM343 147h140v-147h-448v147h140v406h-136v147h440v-147h-136v-406z" />
    <glyph glyph-name="Imacron.ss03" horiz-adv-x="518" 
d="M479 895v-129h-440v129h440zM343 147h140v-147h-448v147h140v406h-136v147h440v-147h-136v-406z" />
    <glyph glyph-name="Iogonek.ss03" horiz-adv-x="518" 
d="M483 0h-244c-48 0 -112 -25 -112 -83c0 -30 22 -60 69 -60c34 0 69 22 86 57l86 -57c-37 -69 -107 -104 -173 -104c-106 0 -186 59 -186 164c0 32 11 61 26 84v146h140v406h-136v147h440v-147h-136v-406h140v-147z" />
    <glyph glyph-name="J.ss04" horiz-adv-x="679" 
d="M153 700h461v-389c0 -210 -130 -325 -315 -325c-134 0 -247 76 -289 179l165 44c24 -42 67 -66 124 -66c92 0 147 62 147 162v238h-293v157z" />
    <glyph glyph-name="Jcircumflex.ss04" horiz-adv-x="679" 
d="M368 822l-116 -96l-81 82l197 167l196 -167l-80 -82zM153 700h461v-389c0 -210 -130 -325 -315 -325c-134 0 -247 76 -289 179l165 44c24 -42 67 -66 124 -66c92 0 147 62 147 162v238h-293v157z" />
    <glyph glyph-name="N.ss02" horiz-adv-x="784" 
d="M538 700h168v-700h-168v227l-126 107c-77 66 -167 148 -168 148h-1c0 -1 3 -65 3 -150v-332h-168v700h158l110 -100c93 -84 192 -172 193 -172h1c0 1 -2 60 -2 145v127z" />
    <glyph glyph-name="Nacute.loclPLK" horiz-adv-x="784" 
d="M440 976l122 -68l-123 -181l-104 59zM538 700h168v-700h-158l-143 195c-64 88 -158 221 -159 221h-1c-1 0 1 -108 1 -261v-155h-168v700h158l149 -200c45 -60 152 -211 153 -211h1c1 0 -1 124 -1 251v160z" />
    <glyph glyph-name="Nacute.loclPLK.ss02" horiz-adv-x="784" 
d="M440 976l122 -68l-123 -181l-104 59zM538 700h168v-700h-168v227l-126 107c-77 66 -167 148 -168 148h-1c0 -1 3 -65 3 -150v-332h-168v700h158l110 -100c93 -84 192 -172 193 -172h1c0 1 -2 60 -2 145v127z" />
    <glyph glyph-name="Nacute.ss02" horiz-adv-x="784" 
d="M506 943l57 -113l-248 -103l-48 88zM538 700h168v-700h-168v227l-126 107c-77 66 -167 148 -168 148h-1c0 -1 3 -65 3 -150v-332h-168v700h158l110 -100c93 -84 192 -172 193 -172h1c0 1 -2 60 -2 145v127z" />
    <glyph glyph-name="Ncaron.ss02" horiz-adv-x="784" 
d="M195 890l197 -167l196 167l-80 82l-116 -96l-116 96zM538 700h168v-700h-168v227l-126 107c-77 66 -167 148 -168 148h-1c0 -1 3 -65 3 -150v-332h-168v700h158l110 -100c93 -84 192 -172 193 -172h1c0 1 -2 60 -2 145v127z" />
    <glyph glyph-name="Ncommaaccent.ss02" horiz-adv-x="784" 
d="M538 700h168v-700h-168v227l-126 107c-77 66 -167 148 -168 148h-1c0 -1 3 -65 3 -150v-332h-168v700h158l110 -100c93 -84 192 -172 193 -172h1c0 1 -2 60 -2 145v127zM379 -180l14 4l-14 2c-25 3 -53 26 -53 64c0 39 32 71 72 71c39 0 71 -32 71 -80
c0 -57 -46 -127 -104 -172h-55c32 20 69 82 69 111z" />
    <glyph glyph-name="Ntilde.ss02" horiz-adv-x="784" 
d="M507 896h130c0 -90 -66 -156 -158 -156c-74 0 -110 62 -156 62c-26 0 -44 -18 -44 -43h-130c0 90 66 156 158 156c77 0 111 -62 156 -62c26 0 44 18 44 43zM538 700h168v-700h-168v227l-126 107c-77 66 -167 148 -168 148h-1c0 -1 3 -65 3 -150v-332h-168v700h158
l110 -100c93 -84 192 -172 193 -172h1c0 1 -2 60 -2 145v127z" />
    <glyph glyph-name="Oacute.loclPLK" horiz-adv-x="797" 
d="M451 976l122 -68l-123 -181l-104 59zM35 350c0 211 162 364 363 364s364 -153 364 -364s-163 -364 -364 -364s-363 153 -363 364zM210 350c0 -117 75 -198 188 -198c114 0 189 81 189 198c0 118 -75 198 -189 198c-113 0 -188 -80 -188 -198z" />
    <glyph glyph-name="Q.ss01" horiz-adv-x="827" 
d="M774 165h23v-165h-400c-200 0 -362 149 -362 357c0 207 162 358 362 358s363 -151 363 -358c0 -75 -21 -143 -58 -198l1 -1c1 0 17 7 71 7zM210 357c0 -119 83 -191 187 -191c103 0 188 72 188 191c0 118 -85 192 -188 192c-104 0 -187 -74 -187 -192z" />
    <glyph glyph-name="Sacute.loclPLK" horiz-adv-x="614" 
d="M369 976l122 -68l-123 -181l-104 59zM583 522l-162 -44c-17 62 -71 91 -121 91s-79 -25 -79 -53c0 -46 70 -63 155 -94c104 -38 213 -97 213 -217c0 -128 -110 -219 -273 -219c-146 0 -250 81 -296 212l161 43c18 -53 68 -106 142 -106c60 0 88 28 88 62
c0 56 -82 70 -182 108c-84 32 -181 78 -181 201c0 109 110 208 262 208c134 0 240 -82 273 -192z" />
    <glyph glyph-name="Y.ss05" horiz-adv-x="723" 
d="M713 700l-236 -343h102v-137h-134v-220h-167v220h-132v137h100l-236 343h188l127 -187c20 -30 35 -51 36 -51h1c1 0 16 21 36 51l127 187h188z" />
    <glyph glyph-name="Yacute.ss05" horiz-adv-x="723" 
d="M532 830l-248 -103l-48 88l239 128zM713 700l-236 -343h102v-137h-134v-220h-167v220h-132v137h100l-236 343h188l127 -187c20 -30 35 -51 36 -51h1c1 0 16 21 36 51l127 187h188z" />
    <glyph glyph-name="Ycircumflex.ss05" horiz-adv-x="723" 
d="M357 822l-116 -96l-81 82l197 167l196 -167l-80 -82zM713 700l-236 -343h102v-137h-134v-220h-167v220h-132v137h100l-236 343h188l127 -187c20 -30 35 -51 36 -51h1c1 0 16 21 36 51l127 187h188z" />
    <glyph glyph-name="Ydieresis.ss05" horiz-adv-x="723" 
d="M223 768c-42 0 -75 32 -75 73s33 74 75 74c41 0 73 -33 73 -74s-32 -73 -73 -73zM492 768c-42 0 -74 32 -74 73s32 74 74 74c41 0 74 -33 74 -74s-33 -73 -74 -73zM713 700l-236 -343h102v-137h-134v-220h-167v220h-132v137h100l-236 343h188l127 -187
c20 -30 35 -51 36 -51h1c1 0 16 21 36 51l127 187h188z" />
    <glyph glyph-name="Ygrave.ss05" horiz-adv-x="723" 
d="M462 815l-48 -88l-248 103l57 113zM713 700l-236 -343h102v-137h-134v-220h-167v220h-132v137h100l-236 343h188l127 -187c20 -30 35 -51 36 -51h1c1 0 16 21 36 51l127 187h188z" />
    <glyph glyph-name="Zacute.loclPLK" horiz-adv-x="712" 
d="M414 976l122 -68l-123 -181l-104 59zM652 700v-157l-298 -321c-31 -33 -65 -66 -65 -67l1 -1c1 0 49 3 109 3h253v-157h-592v157l312 328c25 27 65 59 65 60l-1 1c-1 0 -65 -3 -109 -3h-257v157h582z" />
    <glyph glyph-name="cacute.loclPLK" horiz-adv-x="754" 
d="M445 976l122 -68l-123 -181l-104 59zM716 528l-171 -45c-32 40 -92 65 -147 65c-116 0 -188 -83 -188 -198c0 -121 79 -196 188 -196c67 0 131 34 160 82l170 -44c-58 -124 -183 -206 -330 -206c-201 0 -363 153 -363 364s162 364 363 364c138 0 256 -74 318 -186z" />
    <glyph glyph-name="dotlessj.ss04" horiz-adv-x="679" 
d="M153 700h461v-389c0 -210 -130 -325 -315 -325c-134 0 -247 76 -289 179l165 44c24 -42 67 -66 124 -66c92 0 147 62 147 162v238h-293v157z" />
    <glyph glyph-name="i.ss03" horiz-adv-x="518" 
d="M343 147h140v-147h-448v147h140v406h-136v147h440v-147h-136v-406z" />
    <glyph glyph-name="iacute.ss03" horiz-adv-x="518" 
d="M432 830l-248 -103l-48 88l239 128zM343 147h140v-147h-448v147h140v406h-136v147h440v-147h-136v-406z" />
    <glyph glyph-name="icircumflex.ss03" horiz-adv-x="518" 
d="M257 822l-116 -96l-81 82l197 167l196 -167l-80 -82zM343 147h140v-147h-448v147h140v406h-136v147h440v-147h-136v-406z" />
    <glyph glyph-name="idieresis.ss03" horiz-adv-x="518" 
d="M123 768c-42 0 -75 32 -75 73s33 74 75 74c41 0 73 -33 73 -74s-32 -73 -73 -73zM392 768c-42 0 -74 32 -74 73s32 74 74 74c41 0 74 -33 74 -74s-33 -73 -74 -73zM343 147h140v-147h-448v147h140v406h-136v147h440v-147h-136v-406z" />
    <glyph glyph-name="idotaccent.ss03" horiz-adv-x="518" 
d="M261 767c-41 0 -74 33 -74 74s33 74 74 74s74 -33 74 -74s-33 -74 -74 -74zM343 147h140v-147h-448v147h140v406h-136v147h440v-147h-136v-406z" />
    <glyph glyph-name="igrave.ss03" horiz-adv-x="518" 
d="M362 815l-48 -88l-248 103l57 113zM343 147h140v-147h-448v147h140v406h-136v147h440v-147h-136v-406z" />
    <glyph glyph-name="ij.ss03" horiz-adv-x="1182" 
d="M343 553v-406h140v-147h-448v147h140v406h-136v147h440v-147h-136zM949 700h168v-389c0 -210 -130 -325 -315 -325c-134 0 -247 76 -289 179l165 44c24 -42 67 -66 124 -66c92 0 147 62 147 162v395z" />
    <glyph glyph-name="ij.ss03.ss04" horiz-adv-x="1177" 
d="M343 553v-406h140v-147h-448v147h140v406h-136v147h440v-147h-136zM651 700h461v-389c0 -210 -130 -325 -315 -325c-134 0 -247 76 -289 179l165 44c24 -42 67 -66 124 -66c92 0 147 62 147 162v238h-293v157z" />
    <glyph glyph-name="ij.ss04" horiz-adv-x="983" 
d="M78 0v700h168v-700h-168zM457 700h461v-389c0 -210 -130 -325 -315 -325c-134 0 -247 76 -289 179l165 44c24 -42 67 -66 124 -66c92 0 147 62 147 162v238h-293v157z" />
    <glyph glyph-name="imacron.ss03" horiz-adv-x="518" 
d="M479 895v-129h-440v129h440zM343 147h140v-147h-448v147h140v406h-136v147h440v-147h-136v-406z" />
    <glyph glyph-name="iogonek.ss03" horiz-adv-x="518" 
d="M483 0h-244c-48 0 -112 -25 -112 -83c0 -30 22 -60 69 -60c34 0 69 22 86 57l86 -57c-37 -69 -107 -104 -173 -104c-106 0 -186 59 -186 164c0 32 11 61 26 84v146h140v406h-136v147h440v-147h-136v-406h140v-147z" />
    <glyph glyph-name="j.ss04" horiz-adv-x="679" 
d="M153 700h461v-389c0 -210 -130 -325 -315 -325c-134 0 -247 76 -289 179l165 44c24 -42 67 -66 124 -66c92 0 147 62 147 162v238h-293v157z" />
    <glyph glyph-name="jcircumflex.ss04" horiz-adv-x="679" 
d="M368 822l-116 -96l-81 82l197 167l196 -167l-80 -82zM153 700h461v-389c0 -210 -130 -325 -315 -325c-134 0 -247 76 -289 179l165 44c24 -42 67 -66 124 -66c92 0 147 62 147 162v238h-293v157z" />
    <glyph glyph-name="n.ss02" horiz-adv-x="784" 
d="M538 700h168v-700h-168v227l-126 107c-77 66 -167 148 -168 148h-1c0 -1 3 -65 3 -150v-332h-168v700h158l110 -100c93 -84 192 -172 193 -172h1c0 1 -2 60 -2 145v127z" />
    <glyph glyph-name="nacute.loclPLK" horiz-adv-x="784" 
d="M440 976l122 -68l-123 -181l-104 59zM538 700h168v-700h-158l-143 195c-64 88 -158 221 -159 221h-1c-1 0 1 -108 1 -261v-155h-168v700h158l149 -200c45 -60 152 -211 153 -211h1c1 0 -1 124 -1 251v160z" />
    <glyph glyph-name="nacute.loclPLK.ss02" horiz-adv-x="784" 
d="M440 976l122 -68l-123 -181l-104 59zM538 700h168v-700h-168v227l-126 107c-77 66 -167 148 -168 148h-1c0 -1 3 -65 3 -150v-332h-168v700h158l110 -100c93 -84 192 -172 193 -172h1c0 1 -2 60 -2 145v127z" />
    <glyph glyph-name="nacute.ss02" horiz-adv-x="784" 
d="M506 943l57 -113l-248 -103l-48 88zM538 700h168v-700h-168v227l-126 107c-77 66 -167 148 -168 148h-1c0 -1 3 -65 3 -150v-332h-168v700h158l110 -100c93 -84 192 -172 193 -172h1c0 1 -2 60 -2 145v127z" />
    <glyph glyph-name="ncaron.ss02" horiz-adv-x="784" 
d="M195 890l197 -167l196 167l-80 82l-116 -96l-116 96zM538 700h168v-700h-168v227l-126 107c-77 66 -167 148 -168 148h-1c0 -1 3 -65 3 -150v-332h-168v700h158l110 -100c93 -84 192 -172 193 -172h1c0 1 -2 60 -2 145v127z" />
    <glyph glyph-name="ncommaaccent.ss02" horiz-adv-x="784" 
d="M538 700h168v-700h-168v227l-126 107c-77 66 -167 148 -168 148h-1c0 -1 3 -65 3 -150v-332h-168v700h158l110 -100c93 -84 192 -172 193 -172h1c0 1 -2 60 -2 145v127zM379 -180l14 4l-14 2c-25 3 -53 26 -53 64c0 39 32 71 72 71c39 0 71 -32 71 -80
c0 -57 -46 -127 -104 -172h-55c32 20 69 82 69 111z" />
    <glyph glyph-name="ntilde.ss02" horiz-adv-x="784" 
d="M507 896h130c0 -90 -66 -156 -158 -156c-74 0 -110 62 -156 62c-26 0 -44 -18 -44 -43h-130c0 90 66 156 158 156c77 0 111 -62 156 -62c26 0 44 18 44 43zM538 700h168v-700h-168v227l-126 107c-77 66 -167 148 -168 148h-1c0 -1 3 -65 3 -150v-332h-168v700h158
l110 -100c93 -84 192 -172 193 -172h1c0 1 -2 60 -2 145v127z" />
    <glyph glyph-name="oacute.loclPLK" horiz-adv-x="797" 
d="M451 976l122 -68l-123 -181l-104 59zM35 350c0 211 162 364 363 364s364 -153 364 -364s-163 -364 -364 -364s-363 153 -363 364zM210 350c0 -117 75 -198 188 -198c114 0 189 81 189 198c0 118 -75 198 -189 198c-113 0 -188 -80 -188 -198z" />
    <glyph glyph-name="q.ss01" horiz-adv-x="827" 
d="M774 165h23v-165h-400c-200 0 -362 149 -362 357c0 207 162 358 362 358s363 -151 363 -358c0 -75 -21 -143 -58 -198l1 -1c1 0 17 7 71 7zM210 357c0 -119 83 -191 187 -191c103 0 188 72 188 191c0 118 -85 192 -188 192c-104 0 -187 -74 -187 -192z" />
    <glyph glyph-name="sacute.loclPLK" horiz-adv-x="614" 
d="M369 976l122 -68l-123 -181l-104 59zM583 522l-162 -44c-17 62 -71 91 -121 91s-79 -25 -79 -53c0 -46 70 -63 155 -94c104 -38 213 -97 213 -217c0 -128 -110 -219 -273 -219c-146 0 -250 81 -296 212l161 43c18 -53 68 -106 142 -106c60 0 88 28 88 62
c0 56 -82 70 -182 108c-84 32 -181 78 -181 201c0 109 110 208 262 208c134 0 240 -82 273 -192z" />
    <glyph glyph-name="y.ss05" horiz-adv-x="723" 
d="M713 700l-236 -343h102v-137h-134v-220h-167v220h-132v137h100l-236 343h188l127 -187c20 -30 35 -51 36 -51h1c1 0 16 21 36 51l127 187h188z" />
    <glyph glyph-name="yacute.ss05" horiz-adv-x="723" 
d="M532 830l-248 -103l-48 88l239 128zM713 700l-236 -343h102v-137h-134v-220h-167v220h-132v137h100l-236 343h188l127 -187c20 -30 35 -51 36 -51h1c1 0 16 21 36 51l127 187h188z" />
    <glyph glyph-name="ycircumflex.ss05" horiz-adv-x="723" 
d="M357 822l-116 -96l-81 82l197 167l196 -167l-80 -82zM713 700l-236 -343h102v-137h-134v-220h-167v220h-132v137h100l-236 343h188l127 -187c20 -30 35 -51 36 -51h1c1 0 16 21 36 51l127 187h188z" />
    <glyph glyph-name="ydieresis.ss05" horiz-adv-x="723" 
d="M223 768c-42 0 -75 32 -75 73s33 74 75 74c41 0 73 -33 73 -74s-32 -73 -73 -73zM492 768c-42 0 -74 32 -74 73s32 74 74 74c41 0 74 -33 74 -74s-33 -73 -74 -73zM713 700l-236 -343h102v-137h-134v-220h-167v220h-132v137h100l-236 343h188l127 -187
c20 -30 35 -51 36 -51h1c1 0 16 21 36 51l127 187h188z" />
    <glyph glyph-name="ygrave.ss05" horiz-adv-x="723" 
d="M462 815l-48 -88l-248 103l57 113zM713 700l-236 -343h102v-137h-134v-220h-167v220h-132v137h100l-236 343h188l127 -187c20 -30 35 -51 36 -51h1c1 0 16 21 36 51l127 187h188z" />
    <glyph glyph-name="zacute.loclPLK" horiz-adv-x="712" 
d="M414 976l122 -68l-123 -181l-104 59zM652 700v-157l-298 -321c-31 -33 -65 -66 -65 -67l1 -1c1 0 49 3 109 3h253v-157h-592v157l312 328c25 27 65 59 65 60l-1 1c-1 0 -65 -3 -109 -3h-257v157h582z" />
    <glyph glyph-name="ordfeminine" unicode="&#xaa;" horiz-adv-x="368" 
d="M135 427l-15 -52h-100l117 333h93l118 -333h-102l-15 52h-96zM184 616h-1c-1 0 -6 -40 -20 -90l-7 -24h54l-7 24c-14 50 -18 90 -19 90zM20 213v100h328v-100h-328z" />
    <glyph glyph-name="ordmasculine" unicode="&#xba;" horiz-adv-x="363" 
d="M10 540c0 100 76 172 171 172s172 -72 172 -172c0 -99 -77 -171 -172 -171s-171 72 -171 171zM110 540c0 -44 30 -75 71 -75c42 0 72 31 72 75c0 45 -30 76 -72 76c-41 0 -71 -31 -71 -76zM20 313h323v-100h-323v100z" />
    <glyph glyph-name="zero" unicode="0" horiz-adv-x="717" 
d="M358 714c201 0 324 -163 324 -364s-123 -364 -324 -364s-323 163 -323 364s122 364 323 364zM358 548c-105 0 -148 -85 -148 -198s43 -198 148 -198c103 0 149 85 149 198s-46 198 -149 198z" />
    <glyph glyph-name="one" unicode="1" horiz-adv-x="470" 
d="M275 700h117v-700h-168v337c0 49 4 117 3 117h-1c-1 0 -27 -33 -57 -63l-31 -31l-103 99z" />
    <glyph glyph-name="two" unicode="2" horiz-adv-x="612" 
d="M207 478l-155 41c33 111 126 195 265 195c152 0 254 -99 254 -228c0 -131 -90 -192 -176 -252c-57 -41 -118 -80 -118 -81l1 -1c1 0 69 5 175 5h119v-157h-514v137c96 85 191 169 287 254c36 31 56 65 56 95c0 42 -34 80 -89 80c-63 0 -92 -52 -105 -88z" />
    <glyph glyph-name="three" unicode="3" horiz-adv-x="614" 
d="M196 478l-150 40c31 119 131 196 268 196c159 0 252 -90 252 -207c0 -91 -81 -143 -134 -145v-1c74 0 147 -56 147 -153c0 -129 -110 -222 -265 -222c-134 0 -251 83 -279 194l152 42c16 -50 57 -86 120 -86c51 0 97 29 97 81c0 45 -40 76 -101 76h-59v131h59
c61 0 89 32 89 71c0 43 -36 71 -89 71c-52 0 -85 -26 -107 -88z" />
    <glyph glyph-name="four" unicode="4" horiz-adv-x="658" 
d="M618 272v-146h-75v-126h-158v126h-350v126l370 448h138v-428h75zM309 272h76v34c0 72 3 165 3 166h-1c-1 0 -40 -55 -68 -88l-56 -66c-25 -30 -38 -45 -38 -46v-1c5 0 38 1 84 1z" />
    <glyph glyph-name="five" unicode="5" horiz-adv-x="620" 
d="M238 444l1 -1c13 8 42 16 79 16c148 0 262 -96 262 -230c0 -139 -112 -243 -262 -243c-142 0 -241 86 -266 177l154 41c12 -32 40 -74 105 -74c57 0 99 43 99 101c0 60 -45 100 -99 100c-62 0 -82 -29 -90 -50l-145 40l63 379h398v-157h-277l-2 -10
c-14 -67 -20 -88 -20 -89z" />
    <glyph glyph-name="six" unicode="6" horiz-adv-x="605" 
d="M477 700l-186 -248l1 -1c9 7 19 19 57 19c150 0 236 -115 236 -247c0 -141 -119 -237 -276 -237c-150 0 -274 92 -274 247c0 111 52 190 126 288l135 179h181zM315 133c66 0 110 43 110 100c0 60 -46 100 -110 100c-66 0 -110 -42 -110 -100c0 -60 47 -100 110 -100z" />
    <glyph glyph-name="seven" unicode="7" horiz-adv-x="576" 
d="M30 700h536v-97l-338 -603h-180l213 375c47 82 105 168 105 169l-1 1c-1 0 -63 -2 -100 -2h-235v157z" />
    <glyph glyph-name="eight" unicode="8" horiz-adv-x="606" 
d="M433 373v-1c64 -16 138 -78 138 -173c0 -120 -113 -213 -268 -214c-155 1 -268 94 -268 214c0 96 74 158 138 173v1c-36 7 -106 65 -106 152c0 107 99 189 236 189s236 -82 236 -189c0 -87 -70 -145 -106 -152zM209 517c0 -43 40 -73 94 -73c56 0 94 32 94 73
c0 46 -40 77 -94 77c-56 0 -94 -33 -94 -77zM195 204c0 -52 46 -88 108 -88c65 0 108 38 108 88c0 52 -46 88 -108 88c-65 0 -108 -38 -108 -88z" />
    <glyph glyph-name="nine" unicode="9" horiz-adv-x="606" 
d="M98 0l216 246l-1 1c-10 -12 -33 -17 -54 -17c-161 0 -239 112 -239 244c0 147 119 240 276 240c150 0 275 -92 275 -247c0 -81 -30 -172 -117 -274l-165 -193h-191zM292 566c-66 0 -110 -42 -110 -100c0 -60 47 -100 110 -100c66 0 110 43 110 100c0 60 -46 100 -110 100
z" />
    <glyph glyph-name="onequarter" unicode="&#xbc;" horiz-adv-x="745" 
d="M97 524l-20 -18l-67 59l149 135h76v-387h-107v178c0 37 6 72 6 73h-1c-2 0 -12 -19 -36 -40zM567 700h108l-502 -700h-108zM720 154v-88h-41v-66h-95v66h-189v73l202 248h82v-233h41zM545 152h39v56c0 15 1 36 1 37h-1c-1 0 -8 -11 -17 -21l-46 -53
c-13 -15 -19 -20 -19 -21l1 -1c1 0 21 3 42 3z" />
    <glyph glyph-name="onehalf" unicode="&#xbd;" horiz-adv-x="775" 
d="M159 700h76v-387h-107v178c0 37 6 72 6 73h-1c-2 0 -12 -19 -36 -40l-20 -18l-67 59zM65 0l502 700h108l-502 -700h-108zM596 86l1 -1c1 0 45 8 107 8h44v-93h-290v70l122 105c36 31 65 52 65 86c0 21 -17 36 -40 36c-39 0 -50 -38 -56 -56l-94 25c13 61 70 129 152 129
c83 0 143 -59 143 -134c0 -48 -28 -84 -59 -111c-12 -11 -25 -21 -40 -31c-29 -19 -55 -32 -55 -33z" />
    <glyph glyph-name="threequarters" unicode="&#xbe;" horiz-adv-x="805" 
d="M241 512v-1c41 -1 84 -27 84 -81c0 -72 -63 -125 -148 -125c-76 0 -143 48 -157 113l91 25c7 -31 26 -48 66 -48c28 0 47 16 47 38c0 26 -21 41 -50 41h-35v74h35c24 0 43 17 43 37c0 19 -19 34 -41 34c-31 0 -50 -11 -61 -49l-89 24c15 69 73 114 151 114
c88 0 141 -51 141 -116c0 -52 -47 -80 -77 -80zM627 700h108l-502 -700h-108zM780 154v-88h-41v-66h-95v66h-189v73l202 248h82v-233h41zM605 152h39v56c0 15 1 36 1 37h-1c-1 0 -8 -11 -17 -21l-46 -53c-13 -15 -19 -20 -19 -21l1 -1c1 0 21 3 42 3z" />
    <glyph glyph-name="fraction" unicode="&#x2044;" horiz-adv-x="130" 
d="M-240 0l502 700h108l-502 -700h-108z" />
    <glyph glyph-name="oneeighth" unicode="&#x215b;" horiz-adv-x="761" 
d="M159 700h76v-387h-107v178c0 37 6 72 6 73h-1c-2 0 -12 -19 -36 -40l-20 -18l-67 59zM65 0l502 700h108l-502 -700h-108zM676 206v-1c35 -11 75 -42 75 -96c0 -66 -62 -116 -148 -117c-86 1 -148 51 -148 117c0 54 40 85 75 96v1c-23 6 -57 37 -57 85
c0 59 54 104 130 104s130 -45 130 -104c0 -48 -37 -79 -57 -85zM556 289c0 -22 21 -37 47 -37c28 0 47 16 47 37s-21 36 -47 36c-27 0 -47 -16 -47 -36zM548 112c0 -26 24 -45 55 -45c32 0 55 20 55 45s-24 44 -55 44c-32 0 -55 -20 -55 -44z" />
    <glyph glyph-name="threeeighths" unicode="&#x215c;" horiz-adv-x="821" 
d="M115 570l-89 24c15 69 73 114 151 114c88 0 141 -51 141 -116c0 -52 -47 -80 -77 -80v-1c41 -1 84 -27 84 -81c0 -72 -63 -125 -148 -125c-76 0 -143 48 -157 113l91 25c7 -31 26 -48 66 -48c28 0 47 16 47 38c0 26 -21 41 -50 41h-35v74h35c24 0 43 17 43 37
c0 19 -19 34 -41 34c-31 0 -50 -11 -61 -49zM125 0l502 700h108l-502 -700h-108zM736 206v-1c35 -11 75 -42 75 -96c0 -66 -62 -116 -148 -117c-86 1 -148 51 -148 117c0 54 40 85 75 96v1c-23 6 -57 37 -57 85c0 59 54 104 130 104s130 -45 130 -104c0 -48 -37 -79 -57 -85
zM616 289c0 -22 21 -37 47 -37c28 0 47 16 47 37s-21 36 -47 36c-27 0 -47 -16 -47 -36zM608 112c0 -26 24 -45 55 -45c32 0 55 20 55 45s-24 44 -55 44c-32 0 -55 -20 -55 -44z" />
    <glyph glyph-name="fiveeighths" unicode="&#x215d;" horiz-adv-x="798" 
d="M125 556l1 -1c7 7 18 16 44 16c91 0 147 -52 147 -129c0 -78 -64 -137 -147 -137s-141 54 -150 108l94 26c6 -23 21 -44 52 -44c32 0 54 20 54 48c0 30 -22 50 -54 50c-21 0 -38 -9 -48 -29l-87 24l38 212h225v-93h-151c-7 -27 -18 -50 -18 -51zM604 700h108l-502 -700
h-108zM713 206v-1c35 -11 75 -42 75 -96c0 -66 -62 -116 -148 -117c-86 1 -148 51 -148 117c0 54 40 85 75 96v1c-23 6 -57 37 -57 85c0 59 54 104 130 104s130 -45 130 -104c0 -48 -37 -79 -57 -85zM640 325c-27 0 -47 -16 -47 -36c0 -22 21 -37 47 -37c28 0 47 16 47 37
s-21 36 -47 36zM640 67c32 0 55 20 55 45s-24 44 -55 44c-32 0 -55 -20 -55 -44c0 -26 24 -45 55 -45z" />
    <glyph glyph-name="seveneighths" unicode="&#x215e;" horiz-adv-x="701" 
d="M5 0l502 700h108l-502 -700h-108zM10 700h300v-58l-180 -329h-105l124 227c25 47 47 68 47 69l-1 1c-1 0 -34 -3 -76 -3h-109v93zM616 206v-1c35 -11 75 -42 75 -96c0 -66 -62 -116 -148 -117c-86 1 -148 51 -148 117c0 54 40 85 75 96v1c-23 6 -57 37 -57 85
c0 59 54 104 130 104s130 -45 130 -104c0 -48 -37 -79 -57 -85zM496 289c0 -22 21 -37 47 -37c28 0 47 16 47 37s-21 36 -47 36c-27 0 -47 -16 -47 -36zM488 112c0 -26 24 -45 55 -45c32 0 55 20 55 45s-24 44 -55 44c-32 0 -55 -20 -55 -44z" />
    <glyph glyph-name="twosuperior" unicode="&#xb2;" horiz-adv-x="340" 
d="M161 561l1 -1c1 0 45 8 107 8h44v-93h-290v70l122 105c36 31 65 52 65 86c0 21 -17 36 -40 36c-39 0 -50 -38 -56 -56l-94 25c13 61 70 129 152 129c83 0 143 -59 143 -134c0 -48 -28 -84 -59 -111c-12 -11 -25 -21 -40 -31c-29 -19 -55 -32 -55 -33z" />
    <glyph glyph-name="threesuperior" unicode="&#xb3;" horiz-adv-x="350" 
d="M115 732l-89 24c15 69 73 114 151 114c88 0 141 -51 141 -116c0 -52 -47 -80 -77 -80v-1c41 -1 84 -27 84 -81c0 -72 -63 -125 -148 -125c-76 0 -143 48 -157 113l91 25c7 -31 26 -48 66 -48c28 0 47 16 47 38c0 26 -21 41 -50 41h-35v74h35c24 0 43 17 43 37
c0 19 -19 34 -41 34c-31 0 -50 -11 -61 -49z" />
    <glyph glyph-name="onesuperior" unicode="&#xb9;" horiz-adv-x="265" 
d="M159 862h76v-387h-107v178c0 37 6 72 6 73h-1c-2 0 -12 -19 -36 -40l-20 -18l-67 59z" />
    <glyph glyph-name="zero.slsh" horiz-adv-x="717" 
d="M358 714c201 0 324 -163 324 -364s-123 -364 -324 -364s-323 163 -323 364s122 364 323 364zM232 230l185 306c-17 8 -37 12 -59 12c-105 0 -148 -85 -148 -198c0 -46 7 -87 22 -120zM484 468l-184 -305c16 -7 36 -11 58 -11c103 0 149 85 149 198c0 45 -7 86 -23 118z
" />
    <glyph glyph-name="zero.sups" horiz-adv-x="375" 
d="M188 467c-106 0 -178 85 -178 201s72 202 178 202c105 0 177 -86 177 -202s-72 -201 -177 -201zM188 578c41 0 67 41 67 90c0 50 -26 91 -67 91s-68 -41 -68 -91c0 -49 27 -90 68 -90z" />
    <glyph glyph-name="four.sups" horiz-adv-x="360" 
d="M335 629v-88h-41v-66h-95v66h-189v73l202 248h82v-233h41zM160 627h39v56c0 15 1 36 1 37h-1c-1 0 -8 -11 -17 -21l-46 -53c-13 -15 -19 -20 -19 -21l1 -1c1 0 21 3 42 3z" />
    <glyph glyph-name="five.sups" horiz-adv-x="342" 
d="M125 718l1 -1c7 7 18 16 44 16c91 0 147 -52 147 -129c0 -78 -64 -137 -147 -137s-141 54 -150 108l94 26c6 -23 21 -44 52 -44c32 0 54 20 54 48c0 30 -22 50 -54 50c-21 0 -38 -9 -48 -29l-87 24l38 212h225v-93h-151c-7 -27 -18 -50 -18 -51z" />
    <glyph glyph-name="six.sups" horiz-adv-x="339" 
d="M260 862l-100 -134l1 -1c2 2 11 6 20 6c81 0 133 -61 133 -133c0 -81 -65 -133 -150 -133c-82 0 -154 52 -154 137c0 61 25 104 65 157l76 101h109zM162 556c32 0 53 19 53 48s-21 48 -53 48s-53 -19 -53 -48s21 -48 53 -48z" />
    <glyph glyph-name="seven.sups" horiz-adv-x="315" 
d="M10 862h300v-58l-180 -329h-105l124 227c25 47 47 68 47 69l-1 1c-1 0 -34 -3 -76 -3h-109v93z" />
    <glyph glyph-name="eight.sups" horiz-adv-x="316" 
d="M231 681v-1c35 -11 75 -42 75 -96c0 -66 -62 -116 -148 -117c-86 1 -148 51 -148 117c0 54 40 85 75 96v1c-23 6 -57 37 -57 85c0 59 54 104 130 104s130 -45 130 -104c0 -48 -37 -79 -57 -85zM111 764c0 -22 21 -37 47 -37c28 0 47 16 47 37s-21 36 -47 36
c-27 0 -47 -16 -47 -36zM103 587c0 -26 24 -45 55 -45c32 0 55 20 55 45s-24 44 -55 44c-32 0 -55 -20 -55 -44z" />
    <glyph glyph-name="nine.sups" horiz-adv-x="324" 
d="M51 475l116 134l-1 1c-3 -2 -17 -6 -23 -6c-81 0 -133 61 -133 133c0 81 65 133 150 133c82 0 154 -52 154 -137c0 -61 -24 -107 -65 -157l-83 -101h-115zM159 782c-32 0 -53 -19 -53 -48s21 -48 53 -48s53 19 53 48s-21 48 -53 48z" />
    <glyph glyph-name="zero.tf" 
d="M348 714c201 0 294 -183 294 -364s-93 -364 -294 -364s-293 183 -293 364s92 364 293 364zM348 548c-105 0 -118 -125 -118 -198s13 -198 118 -198c103 0 119 125 119 198s-16 198 -119 198z" />
    <glyph glyph-name="one.tf" 
d="M475 157h163v-157h-497v157h166v180c0 49 4 117 3 117h-1c-1 0 -27 -33 -57 -63l-31 -31l-103 99l240 241h117v-543z" />
    <glyph glyph-name="two.tf" 
d="M232 478l-155 41c33 111 126 195 265 195c152 0 254 -99 254 -228c0 -131 -90 -192 -176 -252c-57 -41 -118 -80 -118 -81l1 -1c1 0 69 5 175 5h119v-157h-514v137c96 85 191 169 287 254c36 31 56 65 56 95c0 42 -34 80 -89 80c-63 0 -92 -52 -105 -88z" />
    <glyph glyph-name="three.tf" 
d="M237 478l-150 40c31 119 131 196 268 196c159 0 252 -90 252 -207c0 -91 -81 -143 -134 -145v-1c74 0 147 -56 147 -153c0 -129 -110 -222 -265 -222c-134 0 -251 83 -279 194l152 42c16 -50 57 -86 120 -86c51 0 97 29 97 81c0 45 -40 76 -101 76h-59v131h59
c61 0 89 32 89 71c0 43 -36 71 -89 71c-52 0 -85 -26 -107 -88z" />
    <glyph glyph-name="four.tf" 
d="M635 272v-146h-75v-126h-158v126h-350v126l370 448h138v-428h75zM326 272h76v34c0 72 3 165 3 166h-1c-1 0 -40 -55 -68 -88l-56 -66c-25 -30 -38 -45 -38 -46v-1c5 0 38 1 84 1z" />
    <glyph glyph-name="five.tf" 
d="M262 444l1 -1c13 8 42 16 79 16c148 0 262 -96 262 -230c0 -139 -112 -243 -262 -243c-142 0 -241 86 -266 177l154 41c12 -32 40 -74 105 -74c57 0 99 43 99 101c0 60 -45 100 -99 100c-62 0 -82 -29 -90 -50l-145 40l63 379h398v-157h-277l-2 -10
c-14 -67 -20 -88 -20 -89z" />
    <glyph glyph-name="six.tf" 
d="M515 700l-186 -248l1 -1c9 7 19 19 57 19c150 0 236 -115 236 -247c0 -141 -119 -237 -276 -237c-150 0 -274 92 -274 247c0 111 52 190 126 288l135 179h181zM353 133c66 0 110 43 110 100c0 60 -46 100 -110 100c-66 0 -110 -42 -110 -100c0 -60 47 -100 110 -100z" />
    <glyph glyph-name="seven.tf" 
d="M110 700h536v-97l-338 -603h-180l213 375c47 82 105 168 105 169l-1 1c-1 0 -63 -2 -100 -2h-235v157z" />
    <glyph glyph-name="eight.tf" 
d="M479 373v-1c64 -16 138 -78 138 -173c0 -120 -113 -213 -268 -214c-155 1 -268 94 -268 214c0 96 74 158 138 173v1c-36 7 -106 65 -106 152c0 107 99 189 236 189s236 -82 236 -189c0 -87 -70 -145 -106 -152zM255 517c0 -43 40 -73 94 -73c56 0 94 32 94 73
c0 46 -40 77 -94 77c-56 0 -94 -33 -94 -77zM241 204c0 -52 46 -88 108 -88c65 0 108 38 108 88c0 52 -46 88 -108 88c-65 0 -108 -38 -108 -88z" />
    <glyph glyph-name="nine.tf" 
d="M126 0l216 246l-1 1c-10 -12 -33 -17 -54 -17c-161 0 -239 112 -239 244c0 147 119 240 276 240c150 0 275 -92 275 -247c0 -81 -30 -172 -117 -274l-165 -193h-191zM320 566c-66 0 -110 -42 -110 -100c0 -60 47 -100 110 -100c66 0 110 43 110 100
c0 60 -46 100 -110 100z" />
    <glyph glyph-name="zero.slsh.tf" 
d="M348 714c201 0 294 -183 294 -364s-93 -364 -294 -364s-293 183 -293 364s92 364 293 364zM240 255l166 275c-15 11 -34 18 -58 18c-105 0 -118 -125 -118 -198c0 -27 2 -62 10 -95zM458 438l-164 -272c15 -9 32 -14 54 -14c103 0 119 125 119 198c0 25 -2 57 -9 88z" />
    <glyph glyph-name="zero.slsh.numr" horiz-adv-x="375" 
d="M188 708c105 0 177 -86 177 -202s-72 -201 -177 -201c-106 0 -178 85 -178 201s72 202 178 202zM129 460l80 133c-6 3 -13 4 -21 4c-41 0 -68 -41 -68 -91c0 -17 3 -33 9 -46zM248 548l-78 -129c6 -2 12 -3 18 -3c41 0 67 41 67 90c0 15 -2 30 -7 42z" />
    <glyph glyph-name="zero.slsh.dnom" horiz-adv-x="375" 
d="M188 395c105 0 177 -86 177 -202s-72 -201 -177 -201c-106 0 -178 85 -178 201s72 202 178 202zM129 147l80 133c-6 3 -13 4 -21 4c-41 0 -68 -41 -68 -91c0 -17 3 -33 9 -46zM248 235l-78 -129c6 -2 12 -3 18 -3c41 0 67 41 67 90c0 15 -2 30 -7 42z" />
    <glyph glyph-name="zero.slsh.sups" horiz-adv-x="375" 
d="M188 870c105 0 177 -86 177 -202s-72 -201 -177 -201c-106 0 -178 85 -178 201s72 202 178 202zM129 622l80 133c-6 3 -13 4 -21 4c-41 0 -68 -41 -68 -91c0 -17 3 -33 9 -46zM248 710l-78 -129c6 -2 12 -3 18 -3c41 0 67 41 67 90c0 15 -2 30 -7 42z" />
    <glyph glyph-name="zero.dnom" horiz-adv-x="375" 
d="M188 -8c-106 0 -178 85 -178 201s72 202 178 202c105 0 177 -86 177 -202s-72 -201 -177 -201zM188 103c41 0 67 41 67 90c0 50 -26 91 -67 91s-68 -41 -68 -91c0 -49 27 -90 68 -90z" />
    <glyph glyph-name="one.dnom" horiz-adv-x="265" 
d="M159 387h76v-387h-107v178c0 37 6 72 6 73h-1c-2 0 -12 -19 -36 -40l-20 -18l-67 59z" />
    <glyph glyph-name="two.dnom" horiz-adv-x="340" 
d="M161 86l1 -1c1 0 45 8 107 8h44v-93h-290v70l122 105c36 31 65 52 65 86c0 21 -17 36 -40 36c-39 0 -50 -38 -56 -56l-94 25c13 61 70 129 152 129c83 0 143 -59 143 -134c0 -48 -28 -84 -59 -111c-12 -11 -25 -21 -40 -31c-29 -19 -55 -32 -55 -33z" />
    <glyph glyph-name="three.dnom" horiz-adv-x="335" 
d="M115 257l-89 24c15 69 73 114 151 114c88 0 141 -51 141 -116c0 -52 -47 -80 -77 -80v-1c41 -1 84 -27 84 -81c0 -72 -63 -125 -148 -125c-76 0 -143 48 -157 113l91 25c7 -31 26 -48 66 -48c28 0 47 16 47 38c0 26 -21 41 -50 41h-35v74h35c24 0 43 17 43 37
c0 19 -19 34 -41 34c-31 0 -50 -11 -61 -49z" />
    <glyph glyph-name="four.dnom" horiz-adv-x="360" 
d="M335 154v-88h-41v-66h-95v66h-189v73l202 248h82v-233h41zM160 152h39v56c0 15 1 36 1 37h-1c-1 0 -8 -11 -17 -21l-46 -53c-13 -15 -19 -20 -19 -21l1 -1c1 0 21 3 42 3z" />
    <glyph glyph-name="five.dnom" horiz-adv-x="342" 
d="M125 243l1 -1c7 7 18 16 44 16c91 0 147 -52 147 -129c0 -78 -64 -137 -147 -137s-141 54 -150 108l94 26c6 -23 21 -44 52 -44c32 0 54 20 54 48c0 30 -22 50 -54 50c-21 0 -38 -9 -48 -29l-87 24l38 212h225v-93h-151c-7 -27 -18 -50 -18 -51z" />
    <glyph glyph-name="six.dnom" horiz-adv-x="339" 
d="M260 387l-100 -134l1 -1c2 2 11 6 20 6c81 0 133 -61 133 -133c0 -81 -65 -133 -150 -133c-82 0 -154 52 -154 137c0 61 25 104 65 157l76 101h109zM162 81c32 0 53 19 53 48s-21 48 -53 48s-53 -19 -53 -48s21 -48 53 -48z" />
    <glyph glyph-name="seven.dnom" horiz-adv-x="315" 
d="M10 387h300v-58l-180 -329h-105l124 227c25 47 47 68 47 69l-1 1c-1 0 -34 -3 -76 -3h-109v93z" />
    <glyph glyph-name="eight.dnom" horiz-adv-x="316" 
d="M231 206v-1c35 -11 75 -42 75 -96c0 -66 -62 -116 -148 -117c-86 1 -148 51 -148 117c0 54 40 85 75 96v1c-23 6 -57 37 -57 85c0 59 54 104 130 104s130 -45 130 -104c0 -48 -37 -79 -57 -85zM111 289c0 -22 21 -37 47 -37c28 0 47 16 47 37s-21 36 -47 36
c-27 0 -47 -16 -47 -36zM103 112c0 -26 24 -45 55 -45c32 0 55 20 55 45s-24 44 -55 44c-32 0 -55 -20 -55 -44z" />
    <glyph glyph-name="nine.dnom" horiz-adv-x="324" 
d="M51 0l116 134l-1 1c-3 -2 -17 -6 -23 -6c-81 0 -133 61 -133 133c0 81 65 133 150 133c82 0 154 -52 154 -137c0 -61 -24 -107 -65 -157l-83 -101h-115zM159 307c-32 0 -53 -19 -53 -48s21 -48 53 -48s53 19 53 48s-21 48 -53 48z" />
    <glyph glyph-name="zero.numr" horiz-adv-x="375" 
d="M188 305c-106 0 -178 85 -178 201s72 202 178 202c105 0 177 -86 177 -202s-72 -201 -177 -201zM188 416c41 0 67 41 67 90c0 50 -26 91 -67 91s-68 -41 -68 -91c0 -49 27 -90 68 -90z" />
    <glyph glyph-name="one.numr" horiz-adv-x="265" 
d="M159 700h76v-387h-107v178c0 37 6 72 6 73h-1c-2 0 -12 -19 -36 -40l-20 -18l-67 59z" />
    <glyph glyph-name="two.numr" horiz-adv-x="340" 
d="M161 399l1 -1c1 0 45 8 107 8h44v-93h-290v70l122 105c36 31 65 52 65 86c0 21 -17 36 -40 36c-39 0 -50 -38 -56 -56l-94 25c13 61 70 129 152 129c83 0 143 -59 143 -134c0 -48 -28 -84 -59 -111c-12 -11 -25 -21 -40 -31c-29 -19 -55 -32 -55 -33z" />
    <glyph glyph-name="three.numr" horiz-adv-x="350" 
d="M115 570l-89 24c15 69 73 114 151 114c88 0 141 -51 141 -116c0 -52 -47 -80 -77 -80v-1c41 -1 84 -27 84 -81c0 -72 -63 -125 -148 -125c-76 0 -143 48 -157 113l91 25c7 -31 26 -48 66 -48c28 0 47 16 47 38c0 26 -21 41 -50 41h-35v74h35c24 0 43 17 43 37
c0 19 -19 34 -41 34c-31 0 -50 -11 -61 -49z" />
    <glyph glyph-name="four.numr" horiz-adv-x="360" 
d="M335 467v-88h-41v-66h-95v66h-189v73l202 248h82v-233h41zM160 465h39v56c0 15 1 36 1 37h-1c-1 0 -8 -11 -17 -21l-46 -53c-13 -15 -19 -20 -19 -21l1 -1c1 0 21 3 42 3z" />
    <glyph glyph-name="five.numr" horiz-adv-x="342" 
d="M125 556l1 -1c7 7 18 16 44 16c91 0 147 -52 147 -129c0 -78 -64 -137 -147 -137s-141 54 -150 108l94 26c6 -23 21 -44 52 -44c32 0 54 20 54 48c0 30 -22 50 -54 50c-21 0 -38 -9 -48 -29l-87 24l38 212h225v-93h-151c-7 -27 -18 -50 -18 -51z" />
    <glyph glyph-name="six.numr" horiz-adv-x="339" 
d="M260 700l-100 -134l1 -1c2 2 11 6 20 6c81 0 133 -61 133 -133c0 -81 -65 -133 -150 -133c-82 0 -154 52 -154 137c0 61 25 104 65 157l76 101h109zM162 394c32 0 53 19 53 48s-21 48 -53 48s-53 -19 -53 -48s21 -48 53 -48z" />
    <glyph glyph-name="seven.numr" horiz-adv-x="315" 
d="M10 700h300v-58l-180 -329h-105l124 227c25 47 47 68 47 69l-1 1c-1 0 -34 -3 -76 -3h-109v93z" />
    <glyph glyph-name="eight.numr" horiz-adv-x="316" 
d="M231 519v-1c35 -11 75 -42 75 -96c0 -66 -62 -116 -148 -117c-86 1 -148 51 -148 117c0 54 40 85 75 96v1c-23 6 -57 37 -57 85c0 59 54 104 130 104s130 -45 130 -104c0 -48 -37 -79 -57 -85zM111 602c0 -22 21 -37 47 -37c28 0 47 16 47 37s-21 36 -47 36
c-27 0 -47 -16 -47 -36zM103 425c0 -26 24 -45 55 -45c32 0 55 20 55 45s-24 44 -55 44c-32 0 -55 -20 -55 -44z" />
    <glyph glyph-name="nine.numr" horiz-adv-x="324" 
d="M51 313l116 134l-1 1c-3 -2 -17 -6 -23 -6c-81 0 -133 61 -133 133c0 81 65 133 150 133c82 0 154 -52 154 -137c0 -61 -24 -107 -65 -157l-83 -101h-115zM159 620c-32 0 -53 -19 -53 -48s21 -48 53 -48s53 19 53 48s-21 48 -53 48z" />
    <glyph glyph-name="dollar.tf" 
d="M623 522l-162 -44c-17 62 -71 91 -121 91s-79 -25 -79 -53c0 -46 70 -63 155 -94c104 -38 213 -97 213 -217c0 -104 -73 -184 -188 -210v-85h-168v86c-103 25 -176 97 -213 202l161 43c18 -53 68 -106 142 -106c60 0 88 28 88 62c0 56 -82 70 -182 108
c-84 32 -181 78 -181 201c0 90 74 172 185 199v85h168v-89c90 -28 157 -95 182 -179z" />
    <glyph glyph-name="percent.tf" 
d="M559 700l-143 -322c22 11 47 17 75 17c105 0 177 -86 177 -202s-72 -201 -177 -201c-94 0 -161 67 -175 162l-69 -154h-108l146 328c-25 -15 -54 -23 -87 -23c-106 0 -178 85 -178 201s72 202 178 202c98 0 168 -75 176 -180l77 172h108zM198 416c41 0 67 41 67 90
c0 50 -26 91 -67 91s-68 -41 -68 -91c0 -49 27 -90 68 -90zM491 103c41 0 67 41 67 90c0 50 -26 91 -67 91s-68 -41 -68 -91c0 -49 27 -90 68 -90z" />
    <glyph glyph-name="cent.tf" 
d="M463 283l147 -40c-31 -80 -101 -141 -187 -161v-96h-134v97c-114 30 -200 132 -200 262s86 232 200 262v107h134v-106c80 -19 147 -74 180 -147l-147 -38c-23 31 -53 48 -98 48c-72 0 -115 -47 -115 -126s43 -126 115 -126c51 0 85 23 105 64z" />
    <glyph glyph-name="sterling.tf" 
d="M283 153l1 -1c1 0 61 5 152 5h186v-157h-534v157c55 10 67 37 61 99l-1 15h-60v131h47l-8 84c-12 122 105 225 233 228c85 2 229 -47 265 -197l-141 -39c-19 55 -57 91 -113 88c-53 -3 -81 -48 -76 -96l7 -68h188v-131h-176l1 -10c5 -53 -9 -90 -32 -108z" />
    <glyph glyph-name="currency.tf" 
d="M499 566l68 68l82 -82l-69 -69c27 -42 42 -92 42 -145c0 -55 -17 -107 -45 -150l66 -66l-82 -82l-67 67c-42 -27 -93 -43 -147 -43c-53 0 -102 15 -144 42l-66 -66l-82 82l65 65c-28 44 -45 95 -45 151c0 54 16 104 42 146l-68 68l82 82l68 -68c42 29 93 45 148 45
c56 0 108 -17 152 -45zM348 466c-67 0 -123 -51 -123 -125c0 -77 56 -126 123 -126c69 0 125 49 125 126c0 74 -56 125 -125 125z" />
    <glyph glyph-name="yen.tf" 
d="M700 700l-156 -227h87v-108h-161l-21 -30h182v-108h-199v-227h-167v227h-198v108h181l-21 30h-160v108h86l-156 227h188l127 -187c20 -30 35 -51 36 -51h1c1 0 16 21 36 51l127 187h188z" />
    <glyph glyph-name="Euro.tf" 
d="M519 233l159 -40c-52 -124 -162 -205 -314 -205c-150 0 -272 92 -316 239h-48v108h31v15v15h-30v108h47c44 147 166 239 316 239c144 0 247 -73 303 -185l-163 -40c-29 47 -84 72 -145 72c-56 0 -110 -23 -140 -86h163v-108h-186v-15v-15h185v-108h-161
c29 -62 84 -84 139 -84c68 0 132 33 160 90z" />
    <glyph glyph-name="uni20B9.tf" 
d="M604 573h-124c8 -14 14 -29 19 -45h105v-122h-104c-20 -80 -78 -138 -163 -164l173 -242h-191l-161 233v122h80c36 0 64 21 80 51h-210v122h210c-17 28 -45 45 -80 45h-130v127h496v-127z" />
    <glyph glyph-name="asterisk" unicode="*" horiz-adv-x="508" 
d="M398 632l32 -100l-95 -27l61 -79l-85 -63l-57 84l-56 -84l-86 62l61 80l-95 27l32 100l91 -31v99h104v-99z" />
    <glyph glyph-name="backslash" unicode="\" horiz-adv-x="519" 
d="M519 0l-358 700h-161l344 -700h175z" />
    <glyph glyph-name="bullet" unicode="&#x2022;" horiz-adv-x="412" 
d="M207 226c-72 0 -129 57 -129 129c0 70 57 127 129 127c70 0 127 -57 127 -127c0 -72 -57 -129 -127 -129z" />
    <glyph glyph-name="colon" unicode=":" horiz-adv-x="277" 
d="M139 278c-44 0 -79 35 -79 79c0 43 35 78 79 78c43 0 78 -35 78 -78c0 -44 -35 -79 -78 -79zM139 -12c-44 0 -79 35 -79 79c0 43 35 78 79 78c43 0 78 -35 78 -78c0 -44 -35 -79 -78 -79z" />
    <glyph glyph-name="comma" unicode="," horiz-adv-x="277" 
d="M118 -9l15 4l-15 2c-27 4 -58 29 -58 71c0 43 35 78 79 78c43 0 78 -35 78 -88c0 -63 -51 -140 -114 -190h-61c35 22 76 91 76 123z" />
    <glyph glyph-name="ellipsis" unicode="&#x2026;" horiz-adv-x="780" 
d="M125 -13c-36 0 -65 29 -65 65c0 35 29 64 65 64s65 -29 65 -64c0 -36 -29 -65 -65 -65zM385 -13c-36 0 -65 29 -65 65c0 35 29 64 65 64s65 -29 65 -64c0 -36 -29 -65 -65 -65zM655 -13c-36 0 -65 29 -65 65c0 35 29 64 65 64s65 -29 65 -64c0 -36 -29 -65 -65 -65z" />
    <glyph glyph-name="exclam" unicode="!" horiz-adv-x="324" 
d="M78 215v485h168v-485h-168zM78 0v157h168v-157h-168z" />
    <glyph glyph-name="exclamdown" unicode="&#xa1;" horiz-adv-x="324" 
d="M78 700h168v-157h-168v157zM78 485h168v-485h-168v485z" />
    <glyph glyph-name="numbersign" unicode="#" horiz-adv-x="933" 
d="M826 417h-97l-68 -139h96l-76 -146h-92l-65 -132h-175l68 132h-131l-65 -132h-175l68 132h-87l77 146h84l71 139h-87l77 146h85l70 137h161l-67 -137h139l70 137h161l-67 -137h101zM491 278l71 139h-136l-68 -139h133z" />
    <glyph glyph-name="period" unicode="." horiz-adv-x="277" 
d="M139 -12c-44 0 -79 35 -79 79c0 43 35 78 79 78c43 0 78 -35 78 -78c0 -44 -35 -79 -78 -79z" />
    <glyph glyph-name="periodcentered" unicode="&#xb7;" horiz-adv-x="277" 
d="M139 278c-44 0 -79 35 -79 79c0 43 35 78 79 78c43 0 78 -35 78 -78c0 -44 -35 -79 -78 -79z" />
    <glyph glyph-name="question" unicode="?" horiz-adv-x="590" 
d="M206 215v130c129 78 174 102 174 151c0 28 -21 71 -84 71s-98 -26 -120 -89l-141 39c30 120 131 197 268 197c159 0 252 -90 252 -207c0 -120 -86 -167 -181 -221v-71h-168zM206 0v157h168v-157h-168z" />
    <glyph glyph-name="questiondown" unicode="&#xbf;" horiz-adv-x="590" 
d="M384 700v-157h-168v157h168zM384 485v-130c-129 -78 -174 -102 -174 -151c0 -28 21 -71 84 -71s98 26 120 89l141 -39c-30 -120 -131 -197 -268 -197c-159 0 -252 90 -252 207c0 120 86 167 181 221v71h168z" />
    <glyph glyph-name="quotedbl" unicode="&#x22;" horiz-adv-x="603" 
d="M78 483v217h157v-217h-157zM368 483v217h157v-217h-157z" />
    <glyph glyph-name="quotesingle" unicode="'" horiz-adv-x="313" 
d="M78 483v217h157v-217h-157z" />
    <glyph glyph-name="semicolon" unicode=";" horiz-adv-x="295" 
d="M157 278c-44 0 -79 35 -79 79c0 43 35 78 79 78c43 0 78 -35 78 -78c0 -44 -35 -79 -78 -79zM136 -9l15 4l-15 2c-27 4 -58 29 -58 71c0 43 35 78 79 78c43 0 78 -35 78 -88c0 -63 -51 -140 -114 -190h-61c35 22 76 91 76 123z" />
    <glyph glyph-name="slash" unicode="/" horiz-adv-x="519" 
d="M0 0l358 700h161l-344 -700h-175z" />
    <glyph glyph-name="underscore" unicode="_" horiz-adv-x="783" 
d="M78 0h627v-133h-627v133z" />
    <glyph glyph-name="braceleft" unicode="{" horiz-adv-x="454" 
d="M310 572v-59c0 -136 -48 -161 -54 -161c6 0 54 -25 54 -161v-59c0 -132 67 -149 134 -149v-157c-200 0 -302 116 -302 276v96c0 135 -64 154 -64 154s64 19 64 154v96c0 160 102 276 302 276v-157c-67 0 -134 -17 -134 -149z" />
    <glyph glyph-name="braceright" unicode="}" horiz-adv-x="454" 
d="M144 572v-59c0 -136 48 -161 54 -161c-6 0 -54 -25 -54 -161v-59c0 -132 -67 -149 -134 -149v-157c200 0 302 116 302 276v96c0 135 64 154 64 154s-64 19 -64 154v96c0 160 -102 276 -302 276v-157c67 0 134 -17 134 -149z" />
    <glyph glyph-name="bracketleft" unicode="[" horiz-adv-x="390" 
d="M246 699v-694h134v-157h-302v1008h302v-157h-134z" />
    <glyph glyph-name="bracketright" unicode="]" horiz-adv-x="390" 
d="M144 699v-694h-134v-157h302v1008h-302v-157h134z" />
    <glyph glyph-name="parenleft" unicode="(" horiz-adv-x="394" 
d="M334 825l42 -160c-131 -39 -173 -150 -173 -323s42 -284 173 -323l-42 -160c-93 30 -299 112 -299 483s206 453 299 483z" />
    <glyph glyph-name="parenright" unicode=")" horiz-adv-x="394" 
d="M60 825l-42 -160c131 -39 173 -150 173 -323s-42 -284 -173 -323l42 -160c93 30 299 112 299 483s-206 453 -299 483z" />
    <glyph glyph-name="emdash" unicode="&#x2014;" horiz-adv-x="1036" 
d="M78 433h880v-157h-880v157z" />
    <glyph glyph-name="endash" unicode="&#x2013;" horiz-adv-x="587" 
d="M78 433h431v-157h-431v157z" />
    <glyph glyph-name="hyphen" unicode="-" horiz-adv-x="609" 
d="M78 423h453v-137h-453v137z" />
    <glyph glyph-name="softhyphen" unicode="&#xad;" horiz-adv-x="609" 
d="M78 423h453v-137h-453v137z" />
    <glyph glyph-name="guillemotleft" unicode="&#xab;" horiz-adv-x="793" 
d="M314 586l-236 -234l235 -235l92 92l-151 143l150 143zM624 586l-236 -234l235 -235l92 92l-151 143l150 143z" />
    <glyph glyph-name="guillemotright" unicode="&#xbb;" horiz-adv-x="793" 
d="M169 586l236 -234l-235 -235l-92 92l151 143l-150 143zM479 586l236 -234l-235 -235l-92 92l151 143l-150 143z" />
    <glyph glyph-name="guilsinglleft" unicode="&#x2039;" horiz-adv-x="483" 
d="M314 586l-236 -234l235 -235l92 92l-151 143l150 143z" />
    <glyph glyph-name="guilsinglright" unicode="&#x203a;" horiz-adv-x="483" 
d="M169 586l236 -234l-235 -235l-92 92l151 143l-150 143z" />
    <glyph glyph-name="quotedblbase" unicode="&#x201e;" horiz-adv-x="561" 
d="M154 -9l15 4l-15 2c-27 4 -58 29 -58 71c0 43 35 78 79 78c43 0 78 -35 78 -88c0 -63 -51 -140 -114 -190h-61c35 22 76 91 76 123zM384 -9l15 4l-15 2c-27 4 -58 29 -58 71c0 43 35 78 79 78c43 0 78 -35 78 -88c0 -63 -51 -140 -114 -190h-61c35 22 76 91 76 123z" />
    <glyph glyph-name="quotedblleft" unicode="&#x201c;" horiz-adv-x="561" 
d="M177 589l-15 -4l15 -2c27 -4 58 -29 58 -71c0 -43 -35 -78 -79 -78c-43 0 -78 35 -78 88c0 63 51 140 114 190h61c-35 -22 -76 -91 -76 -123zM407 589l-15 -4l15 -2c27 -4 58 -29 58 -71c0 -43 -35 -78 -79 -78c-43 0 -78 35 -78 88c0 63 51 140 114 190h61
c-35 -22 -76 -91 -76 -123z" />
    <glyph glyph-name="quotedblright" unicode="&#x201d;" horiz-adv-x="561" 
d="M154 557l15 4l-15 2c-27 4 -58 29 -58 71c0 43 35 78 79 78c43 0 78 -35 78 -88c0 -63 -51 -140 -114 -190h-61c35 22 76 91 76 123zM384 557l15 4l-15 2c-27 4 -58 29 -58 71c0 43 35 78 79 78c43 0 78 -35 78 -88c0 -63 -51 -140 -114 -190h-61c35 22 76 91 76 123z
" />
    <glyph glyph-name="quoteleft" unicode="&#x2018;" horiz-adv-x="331" 
d="M177 589l-15 -4l15 -2c27 -4 58 -29 58 -71c0 -43 -35 -78 -79 -78c-43 0 -78 35 -78 88c0 63 51 140 114 190h61c-35 -22 -76 -91 -76 -123z" />
    <glyph glyph-name="quoteright" unicode="&#x2019;" horiz-adv-x="331" 
d="M154 557l15 4l-15 2c-27 4 -58 29 -58 71c0 43 35 78 79 78c43 0 78 -35 78 -88c0 -63 -51 -140 -114 -190h-61c35 22 76 91 76 123z" />
    <glyph glyph-name="quotesinglbase" unicode="&#x201a;" horiz-adv-x="331" 
d="M154 -9l15 4l-15 2c-27 4 -58 29 -58 71c0 43 35 78 79 78c43 0 78 -35 78 -88c0 -63 -51 -140 -114 -190h-61c35 22 76 91 76 123z" />
    <glyph glyph-name="colon.case" horiz-adv-x="277" 
d="M139 408c-44 0 -79 35 -79 79c0 43 35 78 79 78c43 0 78 -35 78 -78c0 -44 -35 -79 -78 -79zM139 118c-44 0 -79 35 -79 79c0 43 35 78 79 78c43 0 78 -35 78 -78c0 -44 -35 -79 -78 -79z" />
    <glyph glyph-name="semicolon.case" horiz-adv-x="295" 
d="M157 403c-44 0 -79 35 -79 79c0 43 35 78 79 78c43 0 78 -35 78 -78c0 -44 -35 -79 -78 -79zM136 116l15 4l-15 2c-27 4 -58 29 -58 71c0 43 35 78 79 78c43 0 78 -35 78 -88c0 -63 -51 -140 -114 -190h-61c35 22 76 91 76 123z" />
    <glyph glyph-name="uni2007" unicode="&#x2007;" 
 />
    <glyph glyph-name="uni200A" unicode="&#x200a;" horiz-adv-x="40" 
 />
    <glyph glyph-name="space" unicode=" " horiz-adv-x="250" 
 />
    <glyph glyph-name="uni2009" unicode="&#x2009;" horiz-adv-x="120" 
 />
    <glyph glyph-name="Euro" unicode="&#x20ac;" horiz-adv-x="802" 
d="M608 235l168 -42c-57 -124 -182 -205 -328 -205c-158 0 -292 95 -341 239h-72v108h52v15v15h-51v108h71c49 144 183 239 341 239c137 0 255 -73 316 -185l-170 -42c-32 40 -85 64 -145 64c-63 0 -120 -29 -157 -76h167v-108h-207c-1 -5 -1 -10 -1 -15s0 -10 1 -15h206
v-108h-165c36 -46 93 -74 156 -74c68 0 128 32 159 82z" />
    <glyph glyph-name="cent" unicode="&#xa2;" horiz-adv-x="582" 
d="M409 283l147 -40c-31 -80 -101 -141 -187 -161v-96h-134v97c-114 30 -200 132 -200 262s86 232 200 262v107h134v-106c80 -19 147 -74 180 -147l-147 -38c-23 31 -53 48 -98 48c-72 0 -115 -47 -115 -126s43 -126 115 -126c51 0 85 23 105 64z" />
    <glyph glyph-name="currency" unicode="&#xa4;" horiz-adv-x="670" 
d="M485 566l68 68l82 -82l-69 -69c27 -42 42 -92 42 -145c0 -55 -17 -107 -45 -150l66 -66l-82 -82l-67 67c-42 -27 -93 -43 -147 -43c-53 0 -102 15 -144 42l-66 -66l-82 82l65 65c-28 44 -45 95 -45 151c0 54 16 104 42 146l-68 68l82 82l68 -68c42 29 93 45 148 45
c56 0 108 -17 152 -45zM334 466c-67 0 -123 -51 -123 -125c0 -77 56 -126 123 -126c69 0 125 49 125 126c0 74 -56 125 -125 125z" />
    <glyph glyph-name="dollar" unicode="$" horiz-adv-x="614" 
d="M583 522l-162 -44c-17 62 -71 91 -121 91s-79 -25 -79 -53c0 -46 70 -63 155 -94c104 -38 213 -97 213 -217c0 -104 -73 -184 -188 -210v-85h-168v86c-103 25 -176 97 -213 202l161 43c18 -53 68 -106 142 -106c60 0 88 28 88 62c0 56 -82 70 -182 108
c-84 32 -181 78 -181 201c0 90 74 172 185 199v85h168v-89c90 -28 157 -95 182 -179z" />
    <glyph glyph-name="uni20B9" unicode="&#x20b9;" horiz-adv-x="604" 
d="M574 573h-124c8 -14 14 -29 19 -45h105v-122h-104c-20 -80 -78 -138 -163 -164l173 -242h-191l-161 233v122h80c36 0 64 21 80 51h-210v122h210c-17 28 -45 45 -80 45h-130v127h496v-127z" />
    <glyph glyph-name="sterling" unicode="&#xa3;" horiz-adv-x="650" 
d="M273 153l1 -1c1 0 61 5 152 5h186v-157h-534v157c55 10 67 37 61 99l-1 15h-60v131h47l-8 84c-12 122 105 225 233 228c85 2 229 -47 265 -197l-141 -39c-19 55 -57 91 -113 88c-53 -3 -81 -48 -76 -96l7 -68h188v-131h-176l1 -10c5 -53 -9 -90 -32 -108z" />
    <glyph glyph-name="yen" unicode="&#xa5;" horiz-adv-x="722" 
d="M713 700l-156 -227h87v-108h-161l-21 -30h182v-108h-199v-227h-167v227h-198v108h181l-21 30h-160v108h86l-156 227h188l127 -187c20 -30 35 -51 36 -51h1c1 0 16 21 36 51l127 187h188z" />
    <glyph glyph-name="asciitilde" unicode="~" 
d="M516 435l139 -37c-15 -109 -109 -148 -180 -148c-93 0 -163 62 -215 62c-56 0 -67 -36 -67 -61l-137 37c15 109 108 147 179 147c92 0 164 -62 215 -62c55 0 66 37 66 62z" />
    <glyph glyph-name="divide" unicode="&#xf7;" 
d="M344 501c-44 0 -79 35 -79 79c0 43 35 78 79 78c43 0 78 -35 78 -78c0 -44 -35 -79 -78 -79zM123 423h453v-137h-453v137zM344 51c-44 0 -79 35 -79 79c0 43 35 78 79 78c43 0 78 -35 78 -78c0 -44 -35 -79 -78 -79z" />
    <glyph glyph-name="equal" unicode="=" 
d="M123 533h453v-137h-453v137zM123 293h453v-137h-453v137z" />
    <glyph glyph-name="greater" unicode="&#x3e;" 
d="M128 122l249 245l-249 244h190l264 -244l-264 -245h-190z" />
    <glyph glyph-name="greaterequal" unicode="&#x2265;" 
d="M203 195l174 172l-249 244h190l264 -244l-184 -172h-195zM124 128h453v-137h-453v137z" />
    <glyph glyph-name="less" unicode="&#x3c;" 
d="M570 122l-249 245l249 244h-190l-264 -244l264 -245h190z" />
    <glyph glyph-name="lessequal" unicode="&#x2264;" 
d="M495 195l-174 172l249 244h-190l-264 -244l184 -172h195zM574 128h-453v-137h453v137z" />
    <glyph glyph-name="minus" unicode="&#x2212;" 
d="M123 423h453v-137h-453v137z" />
    <glyph glyph-name="multiply" unicode="&#xd7;" 
d="M465 577l112 -112l-116 -116l115 -116l-112 -112l-115 116l-114 -114l-112 112l114 114l-115 114l112 112l115 -114z" />
    <glyph glyph-name="notequal" unicode="&#x2260;" 
d="M576 396h-128l-52 -103h180v-137h-249l-50 -98h-139l50 98h-65v137h136l52 103h-188v137h259l55 108h135l-55 -108h59v-137z" />
    <glyph glyph-name="percent" unicode="%" horiz-adv-x="880" 
d="M188 305c-106 0 -178 85 -178 201s72 202 178 202c105 0 177 -86 177 -202s-72 -201 -177 -201zM135 0l502 700h108l-502 -700h-108zM188 416c41 0 67 41 67 90c0 50 -26 91 -67 91s-68 -41 -68 -91c0 -49 27 -90 68 -90zM693 -8c-106 0 -178 85 -178 201s72 202 178 202
c105 0 177 -86 177 -202s-72 -201 -177 -201zM693 103c41 0 67 41 67 90c0 50 -26 91 -67 91s-68 -41 -68 -91c0 -49 27 -90 68 -90z" />
    <glyph glyph-name="perthousand" unicode="&#x2030;" horiz-adv-x="1338" 
d="M213 305c-106 0 -178 85 -178 201s72 202 178 202c105 0 177 -86 177 -202s-72 -201 -177 -201zM160 0l502 700h108l-502 -700h-108zM213 416c41 0 67 41 67 90c0 50 -26 91 -67 91s-68 -41 -68 -91c0 -49 27 -90 68 -90zM718 -8c-106 0 -178 85 -178 201s72 202 178 202
c105 0 177 -86 177 -202s-72 -201 -177 -201zM1126 -8c-106 0 -178 85 -178 201s72 202 178 202c105 0 177 -86 177 -202s-72 -201 -177 -201zM718 103c41 0 67 41 67 90c0 50 -26 91 -67 91s-68 -41 -68 -91c0 -49 27 -90 68 -90zM1126 103c41 0 67 41 67 90
c0 50 -26 91 -67 91s-68 -41 -68 -91c0 -49 27 -90 68 -90z" />
    <glyph glyph-name="plus" unicode="+" 
d="M576 423v-137h-153v-161h-146v161h-154v137h153v161h146v-161h154z" />
    <glyph glyph-name="plusminus" unicode="&#xb1;" 
d="M422 423h154v-137h-153v-91h-146v91h-154v137h153v161h146v-161zM123 -9v137h453v-137h-453z" />
    <glyph glyph-name="ampersand" unicode="&#x26;" horiz-adv-x="709" 
d="M709 424v-131h-123v-59c0 -130 -81 -248 -282 -248c-162 0 -269 89 -269 222c0 78 61 141 136 152v1c-53 6 -127 54 -127 146c0 117 93 207 252 207c137 0 228 -77 258 -197l-141 -39c-22 63 -49 95 -112 95s-82 -44 -82 -72c0 -42 29 -77 97 -77h393zM428 243v50h-124
c-72 0 -105 -34 -105 -81s44 -82 105 -82c79 0 124 30 124 113z" />
    <glyph glyph-name="at" unicode="@" horiz-adv-x="803" 
d="M463 524h106v-243c0 -42 10 -70 43 -70c49 0 58 72 58 134c0 161 -113 279 -270 279c-155 0 -268 -118 -268 -279c0 -159 113 -276 268 -276c118 0 154 43 162 42l73 -36c0 -7 -73 -89 -235 -89c-212 0 -365 152 -365 359c0 213 153 369 365 369c213 0 368 -156 368 -369
c0 -91 -43 -213 -172 -213c-54 0 -104 37 -115 81l-1 1c-13 -34 -65 -76 -118 -76c-106 0 -176 80 -176 200c0 121 74 202 186 202c54 0 85 -39 90 -49h1v33zM463 333v8c2 74 -47 88 -75 88c-34 0 -80 -25 -79 -88c1 -66 45 -88 79 -88c27 0 73 19 75 80z" />
    <glyph glyph-name="bar" unicode="|" horiz-adv-x="288" 
d="M210 -74h-132v849h132v-849z" />
    <glyph glyph-name="brokenbar" unicode="&#xa6;" horiz-adv-x="288" 
d="M78 775h132v-280h-132v280zM78 216h132v-290h-132v290z" />
    <glyph glyph-name="copyright" unicode="&#xa9;" horiz-adv-x="797" 
d="M398 714c201 0 364 -153 364 -364s-163 -364 -364 -364s-363 153 -363 364s162 364 363 364zM398 600c-140 0 -240 -104 -240 -250c0 -144 100 -248 240 -248s241 104 241 248c0 146 -101 250 -241 250zM462 313l94 -26c-23 -62 -86 -105 -157 -105
c-91 0 -168 72 -168 169s77 169 168 169c67 0 127 -39 153 -96l-94 -25c-14 18 -32 28 -59 28c-43 0 -70 -28 -70 -76c0 -47 27 -76 70 -76c30 0 51 14 63 38z" />
    <glyph glyph-name="dagger" unicode="&#x2020;" horiz-adv-x="526" 
d="M516 540v-141h-180v-95c0 -171 -19 -304 -20 -304h-108c-1 0 -20 133 -20 304v95h-178v141h178v160h148v-160h180z" />
    <glyph glyph-name="daggerdbl" unicode="&#x2021;" horiz-adv-x="526" 
d="M336 399v-95v-4h180v-141h-184c-6 -96 -15 -159 -16 -159h-108c-1 0 -10 63 -16 159h-182v141h178v4v95h-178v141h178v160h148v-160h180v-141h-180z" />
    <glyph glyph-name="degree" unicode="&#xb0;" horiz-adv-x="337" 
d="M169 567c-82 0 -151 68 -151 150s69 150 151 150c83 0 150 -68 150 -150s-67 -150 -150 -150zM169 665c31 0 55 25 55 53c0 31 -24 55 -55 55c-28 0 -53 -24 -53 -55c0 -28 25 -53 53 -53z" />
    <glyph glyph-name="lozenge" unicode="&#x25ca;" horiz-adv-x="728" 
d="M364 -14l-364 364l364 364l364 -364zM364 525l-175 -175l175 -175l175 175z" />
    <glyph glyph-name="afii61352" unicode="&#x2116;" horiz-adv-x="1107" 
d="M754 540c0 100 76 172 171 172s172 -72 172 -172c0 -99 -77 -171 -172 -171s-171 72 -171 171zM538 700h168v-700h-158l-143 195c-64 88 -158 221 -159 221h-1c-1 0 1 -108 1 -261v-155h-168v700h158l149 -200c45 -60 152 -211 153 -211h1c1 0 -1 124 -1 251v160z
M854 540c0 -44 30 -75 71 -75c42 0 72 31 72 75c0 45 -30 76 -72 76c-41 0 -71 -31 -71 -76zM764 313h323v-100h-323v100z" />
    <glyph glyph-name="paragraph" unicode="&#xb6;" horiz-adv-x="823" 
d="M290 700h455v-700h-168v542h-84v-542h-158v280h-45c-160 0 -255 78 -255 210s95 210 255 210z" />
    <glyph glyph-name="registered" unicode="&#xae;" horiz-adv-x="797" 
d="M398 714c201 0 364 -153 364 -364s-163 -364 -364 -364s-363 153 -363 364s162 364 363 364zM398 102c140 0 241 104 241 248c0 146 -101 250 -241 250s-240 -104 -240 -250c0 -144 100 -248 240 -248zM276 517h124c83 0 133 -44 133 -112c0 -44 -21 -76 -58 -93l76 -127
h-96l-61 112h-28v-112h-90v332zM366 435v-65h46c20 0 32 16 32 32s-12 33 -32 33h-46z" />
    <glyph glyph-name="section" unicode="&#xa7;" horiz-adv-x="533" 
d="M496 585l-134 -36c-15 44 -60 63 -104 63c-42 0 -66 -17 -66 -37c0 -41 60 -44 131 -66c88 -26 179 -67 179 -151c0 -50 -29 -82 -80 -99c50 -27 86 -63 86 -117c0 -91 -93 -156 -235 -156c-125 0 -213 56 -253 146l136 36c17 -38 59 -76 122 -76c53 0 77 20 77 44
c0 41 -70 51 -157 78c-73 23 -156 55 -156 143c0 44 30 79 79 102c-42 22 -75 54 -75 109c0 76 92 146 221 146c111 0 199 -56 229 -129zM182 365c0 -39 60 -45 128 -64c32 6 51 22 51 50c0 41 -53 49 -118 65c-36 -5 -61 -25 -61 -51z" />
    <glyph glyph-name="trademark" unicode="&#x2122;" horiz-adv-x="788" 
d="M10 604v96h304v-96h-102v-229h-100v229h-102zM628 700h92v-325h-96v93c0 49 4 78 3 78h-1c-1 0 -19 -26 -40 -57l-25 -38h-41l-25 38c-23 35 -39 57 -40 57h-1c-1 0 3 -29 3 -78v-93h-96v325h92l53 -79c24 -36 33 -64 34 -64h1c1 0 10 28 34 64z" />
    <glyph glyph-name="commaaccentcomb" unicode="&#x326;" horiz-adv-x="0" 
d="M111 -180l14 4l-14 2c-25 3 -53 26 -53 64c0 39 32 71 72 71c39 0 71 -32 71 -80c0 -57 -46 -127 -104 -172h-55c32 20 69 82 69 111z" />
    <glyph glyph-name="asciicircum" unicode="^" horiz-adv-x="624" 
d="M546 477l-72 -63l-162 167l-162 -167l-72 63l234 235z" />
    <glyph glyph-name="acute" unicode="&#xb4;" horiz-adv-x="321" 
d="M235 943l57 -113l-248 -103l-48 88z" />
    <glyph glyph-name="breve" unicode="&#x2d8;" horiz-adv-x="346" 
d="M-43 898h122c8 -27 34 -53 74 -53c38 0 66 26 73 53h120c-21 -91 -99 -156 -193 -156c-101 0 -176 65 -196 156z" />
    <glyph glyph-name="caron" unicode="&#x2c7;" horiz-adv-x="377" 
d="M-25 890l197 -167l196 167l-80 82l-116 -96l-116 96z" />
    <glyph glyph-name="cedilla" unicode="&#xb8;" horiz-adv-x="269" 
d="M152 0l-21 -56c56 1 109 -39 109 -106c0 -81 -57 -111 -120 -111h-124l34 87h90c22 0 29 11 29 23c0 14 -12 22 -29 23h-107l48 140h91z" />
    <glyph glyph-name="circumflex" unicode="&#x2c6;" horiz-adv-x="377" 
d="M-25 808l197 167l196 -167l-80 -82l-116 96l-116 -96z" />
    <glyph glyph-name="dieresis" unicode="&#xa8;" horiz-adv-x="445" 
d="M71 768c-42 0 -75 32 -75 73s33 74 75 74c41 0 73 -33 73 -74s-32 -73 -73 -73zM340 768c-42 0 -74 32 -74 73s32 74 74 74c41 0 74 -33 74 -74s-33 -73 -74 -73z" />
    <glyph glyph-name="dotaccent" unicode="&#x2d9;" horiz-adv-x="173" 
d="M68 767c-41 0 -74 33 -74 74s33 74 74 74s74 -33 74 -74s-33 -74 -74 -74z" />
    <glyph glyph-name="grave" unicode="`" horiz-adv-x="321" 
d="M244 727l-248 103l57 113l239 -128z" />
    <glyph glyph-name="hungarumlaut" unicode="&#x2dd;" horiz-adv-x="501" 
d="M472 830l-248 -103l-33 61l-147 -61l-48 88l239 128l38 -76l142 76z" />
    <glyph glyph-name="macron" unicode="&#xaf;" horiz-adv-x="332" 
d="M-24 795h347v-129h-347v129z" />
    <glyph glyph-name="ogonek" unicode="&#x2db;" horiz-adv-x="600" 
d="M343 -86l86 -57c-37 -69 -107 -104 -173 -104c-106 0 -186 59 -186 164c0 91 84 150 121 150l109 -67c-48 0 -112 -25 -112 -83c0 -30 22 -60 69 -60c34 0 69 22 86 57z" />
    <glyph glyph-name="ring" unicode="&#x2da;" horiz-adv-x="292" 
d="M130 647c-82 0 -151 68 -151 150s69 150 151 150c83 0 150 -68 150 -150s-67 -150 -150 -150zM130 745c31 0 55 25 55 53c0 31 -24 55 -55 55c-28 0 -53 -24 -53 -55c0 -28 25 -53 53 -53z" />
    <glyph glyph-name="tilde" unicode="&#x2dc;" horiz-adv-x="513" 
d="M354 896h130c0 -90 -66 -156 -158 -156c-74 0 -110 62 -156 62c-26 0 -44 -18 -44 -43h-130c0 90 66 156 158 156c77 0 111 -62 156 -62c26 0 44 18 44 43z" />
    <glyph glyph-name="apple" horiz-adv-x="774" 
d="M652 82h44v45c-1 196 -13 210 -22 222l-25 29l-11 13l11 12l22 26c12 12 24 24 25 227v44h-44c-202 0 -214 -13 -227 -25l-20 -17l-17 -16l-18 16l-20 19c-12 10 -25 22 -229 23h-43v-44c0 -201 13 -215 23 -227l24 -27l10 -11l-10 -12l-24 -27c-10 -11 -23 -24 -23 -227
v-43h43c200 0 215 13 227 24l27 23l11 10l13 -10l27 -23c12 -11 24 -23 226 -24zM386 256l-89 -79c-20 -4 -76 -6 -132 -7c2 55 4 111 7 132l79 89l-79 89c-3 20 -5 76 -7 133c57 -1 113 -4 133 -7l88 -81l91 81c20 3 76 6 132 7c-2 -56 -4 -112 -7 -133l-81 -89l81 -91
c2 -20 5 -75 7 -130c-57 1 -112 3 -133 7zM112 39l3 12c-3 2 -8 3 -15 3c-13 0 -21 -8 -21 -17c0 -8 6 -13 15 -16c6 -2 9 -4 9 -6c0 -4 -3 -5 -7 -5c-6 0 -11 3 -14 4l-4 -12c4 -2 9 -3 16 -3c17 0 24 8 24 17c0 8 -6 13 -14 16c-6 2 -11 5 -11 7s3 4 7 4c6 0 10 -3 12 -4z
M557 40l4 12c-2 1 -7 2 -14 2c-16 0 -29 -10 -29 -29c0 -14 8 -26 28 -26c7 0 11 1 14 2l-3 12c-2 -2 -5 -3 -9 -3c-9 0 -15 6 -15 16c0 11 7 17 15 17c5 0 7 -1 9 -3zM616 26c0 16 -10 28 -27 28s-27 -12 -27 -28c0 -15 9 -27 27 -27c16 0 27 10 27 27zM136 20v-20h14v20
l17 33h-16l-8 -23l-7 23h-17zM172 53v-53h13v35l19 -35h15v53h-13v-32l-16 32h-18zM224 42h14v-42h13v42h14v11h-41v-11zM285 33v20h-15v-53h15v21h18v-21h14v53h-14v-20h-18zM322 53l17 -53h16l17 53h-15l-10 -39l-9 39h-16zM392 0v53h-15v-53h15zM415 21h19v11h-19v10h21
v11h-36v-53h36v11h-21v10zM440 53l13 -53h15l7 35l6 -35h16l13 53h-14l-7 -36l-6 36h-15l-6 -36l-7 36h-15zM667 40v-40h14l-2 53h-19l-9 -34l-8 34h-19l-4 -53h15v40l11 -39h10zM577 26c0 11 5 17 12 17s11 -7 11 -17s-4 -16 -11 -16c-8 0 -12 6 -12 16zM511 -1
c-4 0 -6 3 -6 6c0 4 3 6 6 6c4 0 6 -3 6 -6c0 -4 -3 -6 -6 -6z" />
    </font>
</defs>
</svg>
