<?xml version="1.0" standalone="no"?>
<!DOCTYPE svg PUBLIC "-//W3C//DTD SVG 1.1//EN" "http://www.w3.org/Graphics/SVG/1.1/DTD/svg11.dtd" >
<svg xmlns="http://www.w3.org/2000/svg" xmlns:xlink="http://www.w3.org/1999/xlink" version="1.1">
<metadata>
Created by FontForge 20160407 at Wed Sep 28 16:01:28 2016
 By Jimmy Warting
Copyright (c) 2004-2013 by Village Type &#38; Design LLC. All rights reserved.
</metadata>
<defs>
<font id="Polaris-Medium" horiz-adv-x="700" >
  <font-face 
    font-family="Polaris Medium"
    font-weight="680"
    font-stretch="normal"
    units-per-em="1000"
    panose-1="2 0 0 0 0 0 0 0 0 0"
    ascent="800"
    descent="-200"
    x-height="530"
    cap-height="780"
    bbox="-209 -253 1859 1134"
    underline-thickness="30"
    underline-position="-100"
    stemh="10"
    stemv="70"
    unicode-range="U+0020-F614"
  />
<missing-glyph horiz-adv-x="960" 
d="M90 0v780h780v-780h-780zM480 345l-279 -279h558zM201 714l279 -279l279 279h-558zM435 390l-275 275v-550zM525 390l275 -275v550z" />
    <glyph glyph-name=".notdef" horiz-adv-x="960" 
d="M90 0v780h780v-780h-780zM480 345l-279 -279h558zM201 714l279 -279l279 279h-558zM435 390l-275 275v-550zM525 390l275 -275v550z" />
    <glyph glyph-name="space" unicode=" " horiz-adv-x="230" 
 />
    <glyph glyph-name="A" unicode="A" horiz-adv-x="726" 
d="M13 0l301 791h98l301 -791h-108l-83 225h-318l-83 -225h-108zM490 313l-127 351l-127 -351h254z" />
    <glyph glyph-name="B" unicode="B" horiz-adv-x="699" 
d="M402 0h-322v780h316c95 0 225 -35 225 -207c0 -99 -51 -151 -93 -166c65 -15 120 -79 120 -188c0 -182 -120 -219 -246 -219zM180 92h214c59 0 150 6 150 128s-81 134 -146 134h-218v-262zM386 688h-206v-243h206c77 0 131 24 131 124c0 99 -52 119 -131 119z" />
    <glyph glyph-name="C" unicode="C" horiz-adv-x="757" 
d="M60 390c0 244 103 402 340 402c195 0 287 -90 304 -219l-102 -11c-15 97 -78 139 -202 139c-188 0 -237 -145 -237 -311s49 -311 237 -311c124 0 187 42 202 139l102 -11c-17 -129 -109 -219 -304 -219c-237 0 -340 158 -340 402z" />
    <glyph glyph-name="D" unicode="D" horiz-adv-x="764" 
d="M347 0h-267v780h267c236 0 359 -121 359 -390s-123 -390 -359 -390zM180 92h167c188 0 256 116 256 298s-68 298 -256 298h-167v-596z" />
    <glyph glyph-name="E" unicode="E" horiz-adv-x="693" 
d="M80 780h537v-92h-437v-243h394v-91h-394v-262h457v-92h-557v780z" />
    <glyph glyph-name="F" unicode="F" horiz-adv-x="630" 
d="M180 354v-354h-100v780h517v-92h-417v-243h373v-91h-373z" />
    <glyph glyph-name="G" unicode="G" horiz-adv-x="780" 
d="M60 390c0 244 103 402 340 402c195 0 287 -90 304 -219l-102 -11c-15 97 -78 139 -202 139c-188 0 -237 -145 -237 -311s49 -310 237 -311c88 0 159 20 205 50v198h-168v87h267v-346c-104 -64 -189 -81 -305 -80c-236 2 -339 158 -339 402z" />
    <glyph glyph-name="H" unicode="H" horiz-adv-x="750" 
d="M570 780h100v-780h-100v354h-390v-354h-100v780h100v-335h390v335z" />
    <glyph glyph-name="I" unicode="I" horiz-adv-x="296" 
d="M198 780v-780h-100v780h100z" />
    <glyph glyph-name="J" unicode="J" horiz-adv-x="512" 
d="M340 780h100v-580c0 -113 -60 -212 -220 -212c-165 0 -197 88 -204 181l100 13c6 -62 23 -103 104 -103c94 0 120 43 120 125v576z" />
    <glyph glyph-name="K" unicode="K" horiz-adv-x="712" 
d="M180 780v-388l357 388h141l-335 -352l356 -428h-136l-289 355l-94 -100v-255h-100v780h100z" />
    <glyph glyph-name="L" unicode="L" horiz-adv-x="589" 
d="M180 780v-688h396v-92h-496v780h100z" />
    <glyph glyph-name="M" unicode="M" horiz-adv-x="910" 
d="M497 0h-84l-189 455l-49 129l3 -299v-285h-98v780h108l204 -492l63 -164l63 164l204 492h108v-780h-98v285l3 299l-49 -129z" />
    <glyph glyph-name="N" unicode="N" horiz-adv-x="754" 
d="M171 780l319 -471l86 -133l-3 235v369h101v-780h-91l-319 471l-86 133l3 -235v-369h-101v780h91z" />
    <glyph glyph-name="O" unicode="O" horiz-adv-x="800" 
d="M400 701c-189 0 -236 -145 -236 -311s47 -311 236 -311s236 145 236 311s-47 311 -236 311zM400 -12c-238 0 -340 158 -340 402s102 402 340 402s340 -158 340 -402s-102 -402 -340 -402z" />
    <glyph glyph-name="P" unicode="P" horiz-adv-x="658" 
d="M180 405h199c60 0 141 16 141 142c0 125 -81 141 -141 141h-199v-283zM180 313v-313h-100v780h288c125 0 257 -46 257 -233s-131 -234 -256 -234h-189z" />
    <glyph glyph-name="Q" unicode="Q" horiz-adv-x="800" 
d="M740 390c0 -207 -73 -352 -240 -391v-1l108 -35l195 -67v-107l-542 221c-137 56 -201 190 -201 380c0 244 102 402 340 402s340 -158 340 -402zM400 701c-189 0 -236 -145 -236 -311s47 -311 236 -311s236 145 236 311s-47 311 -236 311z" />
    <glyph glyph-name="R" unicode="R" horiz-adv-x="710" 
d="M180 327v-327h-100v780h312c125 0 255 -39 255 -226c0 -146 -78 -202 -171 -219l204 -335h-123l-189 327h-188zM180 419h222c60 0 141 9 141 135s-81 134 -141 134h-222v-269z" />
    <glyph glyph-name="S" unicode="S" horiz-adv-x="713" 
d="M358 79c92 1 199 37 199 145c0 87 -45 124 -199 139c-140 13 -274 44 -275 202c-1 157 125 227 272 227c199 0 283 -87 300 -213l-102 -11c-14 94 -73 133 -198 133c-63 -1 -172 -23 -171 -135c0 -68 33 -98 177 -114c187 -18 294 -52 295 -227
c0 -166 -147 -237 -298 -237c-205 0 -286 88 -304 218l102 10c16 -97 77 -137 202 -137z" />
    <glyph glyph-name="T" unicode="T" horiz-adv-x="622" 
d="M361 688v-688h-100v688h-241v92h582v-92h-241z" />
    <glyph glyph-name="U" unicode="U" horiz-adv-x="772" 
d="M386 -12c-239 0 -314 127 -314 294v498h102v-499c0 -112 36 -202 212 -202s212 90 212 202v499h102v-498c0 -167 -75 -294 -314 -294z" />
    <glyph glyph-name="V" unicode="V" horiz-adv-x="727" 
d="M713 780l-301 -792h-98l-300 792h107l180 -491l62 -175l62 175l180 491h108z" />
    <glyph glyph-name="W" unicode="W" horiz-adv-x="954" 
d="M519 496l-42 149l-42 -149l-159 -508h-85l-165 792h104l86 -460l26 -157l45 157l144 460h92l144 -460l45 -157l26 157l86 460h104l-165 -792h-85z" />
    <glyph glyph-name="X" unicode="X" horiz-adv-x="722" 
d="M273 615l88 -134l88 134l110 165h117l-219 -321l-40 -57l42 -60l235 -342h-121l-126 190l-86 131l-86 -131l-126 -190h-121l235 342l42 60l-40 57l-219 321h117z" />
    <glyph glyph-name="Y" unicode="Y" horiz-adv-x="730" 
d="M276 551l89 -141l89 141l149 229h115l-303 -456v-324h-100v324l-303 456h115z" />
    <glyph glyph-name="Z" unicode="Z" horiz-adv-x="688" 
d="M43 0v75l399 523l73 91l-232 -1h-221v92h583v-75l-399 -523l-73 -91l233 1h239v-92h-602z" />
    <glyph glyph-name="Agrave" unicode="&#xc0;" horiz-adv-x="726" 
d="M202 1030h112l94 -208h-95zM13 0l301 791h98l301 -791h-108l-83 225h-318l-83 -225h-108zM490 313l-127 351l-127 -351h254z" />
    <glyph glyph-name="Aacute" unicode="&#xc1;" horiz-adv-x="726" 
d="M412 1030h112l-111 -208h-95zM13 0l301 791h98l301 -791h-108l-83 225h-318l-83 -225h-108zM490 313l-127 351l-127 -351h254z" />
    <glyph glyph-name="Acircumflex" unicode="&#xc2;" horiz-adv-x="726" 
d="M561 822h-97l-101 126l-100 -126h-97l152 208h91zM13 0l301 791h98l301 -791h-108l-83 225h-318l-83 -225h-108zM490 313l-127 351l-127 -351h254z" />
    <glyph glyph-name="Adieresis" unicode="&#xc4;" horiz-adv-x="726" 
d="M319 979v-111h-112v111h112zM519 979v-111h-112v111h112zM13 0l301 791h98l301 -791h-108l-83 225h-318l-83 -225h-108zM490 313l-127 351l-127 -351h254z" />
    <glyph glyph-name="Atilde" unicode="&#xc3;" horiz-adv-x="726" 
d="M13 0l301 791h98l301 -791h-108l-83 225h-318l-83 -225h-108zM490 313l-127 351l-127 -351h254zM278 926c-36 0 -48 -29 -52 -54l-76 11c11 75 48 125 133 125c88 0 114 -80 165 -80c36 0 48 29 52 54l76 -11c-11 -75 -48 -125 -133 -125c-88 0 -114 80 -165 80z" />
    <glyph glyph-name="Aring" unicode="&#xc5;" horiz-adv-x="726" 
d="M248 926c0 67 42 115 115 115s116 -48 116 -115c0 -68 -43 -116 -116 -116s-115 48 -115 116zM316 926c0 -29 18 -49 47 -49s47 20 47 49c0 28 -18 48 -47 48s-47 -20 -47 -48zM13 0l301 791h98l301 -791h-108l-83 225h-318l-83 -225h-108zM490 313l-127 351l-127 -351
h254z" />
    <glyph glyph-name="Acaron" unicode="&#x1cd;" horiz-adv-x="726" 
d="M166 1030h97l101 -126l100 126h97l-152 -208h-91zM13 0l301 791h98l301 -791h-108l-83 225h-318l-83 -225h-108zM490 313l-127 351l-127 -351h254z" />
    <glyph glyph-name="Amacron" unicode="&#x100;" horiz-adv-x="726" 
d="M219 881v90h288v-90h-288zM13 0l301 791h98l301 -791h-108l-83 225h-318l-83 -225h-108zM490 313l-127 351l-127 -351h254z" />
    <glyph glyph-name="Abreve" unicode="&#x102;" horiz-adv-x="726" 
d="M13 0l301 791h98l301 -791h-108l-83 225h-318l-83 -225h-108zM490 313l-127 351l-127 -351h254zM363 825c-142 0 -188 75 -187 205h78c-1 -89 32 -121 109 -121s110 32 109 121h78c1 -130 -45 -205 -187 -205z" />
    <glyph glyph-name="Ainvertedbreve" unicode="&#x202;" horiz-adv-x="726" 
d="M13 0l301 791h98l301 -791h-108l-83 225h-318l-83 -225h-108zM490 313l-127 351l-127 -351h254zM363 1027c142 0 188 -75 187 -205h-78c1 89 -32 121 -109 121s-110 -32 -109 -121h-78c-1 130 45 205 187 205z" />
    <glyph glyph-name="Adoublegrave" unicode="&#x200;" horiz-adv-x="726" 
d="M13 0l301 791h98l301 -791h-108l-83 225h-318l-83 -225h-108zM490 313l-127 351l-127 -351h254zM287 1030h112l94 -208h-95zM127 1030h112l94 -208h-95z" />
    <glyph glyph-name="Adotabove" unicode="&#x226;" horiz-adv-x="726" 
d="M13 0l301 791h98l301 -791h-108l-83 225h-318l-83 -225h-108zM490 313l-127 351l-127 -351h254zM419 980v-111h-112v111h112z" />
    <glyph glyph-name="Aringacute" unicode="&#x1fa;" horiz-adv-x="726" 
d="M334 1134h96l-59 -93c68 -3 108 -51 108 -115c0 -68 -43 -116 -116 -116s-115 48 -115 116c0 22 6 45 15 63zM316 926c0 -29 18 -49 47 -49s47 20 47 49c0 28 -18 48 -47 48s-47 -20 -47 -48zM13 0l301 791h98l301 -791h-108l-83 225h-318l-83 -225h-108zM490 313
l-127 351l-127 -351h254z" />
    <glyph glyph-name="Adieresismacron" unicode="&#x1de;" horiz-adv-x="726" 
d="M319 939v-111h-112v111h112zM519 939v-111h-112v111h112zM13 0l301 791h98l301 -791h-108l-83 225h-318l-83 -225h-108zM490 313l-127 351l-127 -351h254zM219 981v90h288v-90h-288z" />
    <glyph glyph-name="Aogonek" unicode="&#x104;" horiz-adv-x="726" 
d="M13 0l301 791h98l301 -791c-68 -8 -126 -52 -126 -98c0 -24 13 -40 46 -40c29 0 70 17 69 19l22 -67c-21 -13 -57 -25 -102 -25c-61 0 -117 28 -117 104c0 51 34 98 91 131l-74 201h-318l-83 -225h-108zM490 313l-127 351l-127 -351h254z" />
    <glyph glyph-name="Anocross" unicode="&#xe731;" horiz-adv-x="726" 
d="M13 0l301 792h98l300 -792h-107l-180 491l-62 175l-62 -175l-180 -491h-108z" />
    <glyph glyph-name="Aumlaut.alt" horiz-adv-x="726" 
d="M219 779v-111h-112v111h112zM619 779v-111h-112v111h112zM13 0l301 791h98l301 -791h-108l-83 225h-318l-83 -225h-108zM490 313l-127 351l-127 -351h254z" />
    <glyph glyph-name="AE" unicode="&#xc6;" horiz-adv-x="1065" 
d="M532 0l-32 225h-261l-119 -225h-117l429 780h557v-92h-455l35 -243h377v-91h-364l37 -262h390v-92h-477zM445 615l-160 -302h202l-18 132z" />
    <glyph glyph-name="AEacute" unicode="&#x1fc;" horiz-adv-x="1065" 
d="M532 0l-32 225h-261l-119 -225h-117l429 780h557v-92h-455l35 -243h377v-91h-364l37 -262h390v-92h-477zM445 615l-160 -302h202l-18 132zM565 1030h112l-111 -208h-95z" />
    <glyph glyph-name="AEmacron" unicode="&#x1e2;" horiz-adv-x="1065" 
d="M532 0l-32 225h-261l-119 -225h-117l429 780h557v-92h-455l35 -243h377v-91h-364l37 -262h390v-92h-477zM445 615l-160 -302h202l-18 132zM664 882h-288v90h288v-90z" />
    <glyph glyph-name="Cacute" unicode="&#x106;" horiz-adv-x="757" 
d="M60 390c0 244 103 402 340 402c195 0 287 -90 304 -219l-102 -11c-15 97 -78 139 -202 139c-188 0 -237 -145 -237 -311s49 -311 237 -311c124 0 187 42 202 139l102 -11c-17 -129 -109 -219 -304 -219c-237 0 -340 158 -340 402zM438 1030h112l-111 -208h-95z" />
    <glyph glyph-name="Ccircumflex" unicode="&#x108;" horiz-adv-x="757" 
d="M60 390c0 244 103 402 340 402c195 0 287 -90 304 -219l-102 -11c-15 97 -78 139 -202 139c-188 0 -237 -145 -237 -311s49 -311 237 -311c124 0 187 42 202 139l102 -11c-17 -129 -109 -219 -304 -219c-237 0 -340 158 -340 402zM345 1030h92l152 -208h-97l-101 127
l-101 -127h-97z" />
    <glyph glyph-name="Ccaron" unicode="&#x10c;" horiz-adv-x="757" 
d="M60 390c0 244 103 402 340 402c195 0 287 -90 304 -219l-102 -11c-15 97 -78 139 -202 139c-188 0 -237 -145 -237 -311s49 -311 237 -311c124 0 187 42 202 139l102 -11c-17 -129 -109 -219 -304 -219c-237 0 -340 158 -340 402zM437 822h-92l-152 208h97l101 -127
l101 127h97z" />
    <glyph glyph-name="Cdotaccent" unicode="&#x10a;" horiz-adv-x="757" 
d="M60 390c0 244 103 402 340 402c195 0 287 -90 304 -219l-102 -11c-15 97 -78 139 -202 139c-188 0 -237 -145 -237 -311s49 -311 237 -311c124 0 187 42 202 139l102 -11c-17 -129 -109 -219 -304 -219c-237 0 -340 158 -340 402zM447 980v-111h-112v111h112z" />
    <glyph glyph-name="Ccedilla" unicode="&#xc7;" horiz-adv-x="757" 
d="M60 390c0 244 103 402 340 402c195 0 287 -90 304 -219l-102 -11c-15 97 -78 139 -202 139c-188 0 -237 -145 -237 -311s49 -311 237 -311c124 0 187 42 202 139l102 -11c-16 -122 -100 -209 -274 -218l-6 -24c46 -11 89 -37 89 -91c0 -60 -55 -86 -122 -86
c-42 0 -78 11 -92 18l17 53s26 -14 55 -14c22 0 56 5 56 30c0 31 -39 44 -87 49l22 66c-210 15 -302 169 -302 400z" />
    <glyph glyph-name="Dcaron" unicode="&#x10e;" horiz-adv-x="764" 
d="M347 0h-267v780h267c236 0 359 -121 359 -390s-123 -390 -359 -390zM180 92h167c188 0 256 116 256 298s-68 298 -256 298h-167v-596zM387 822h-92l-152 208h97l101 -127l101 127h97z" />
    <glyph glyph-name="Ddotbelow" unicode="&#x1e0c;" horiz-adv-x="764" 
d="M347 0h-267v780h267c236 0 359 -121 359 -390s-123 -390 -359 -390zM180 92h167c188 0 256 116 256 298s-68 298 -256 298h-167v-596zM417 -62v-111h-112v111h112z" />
    <glyph glyph-name="Dcedilla" unicode="&#x1e10;" horiz-adv-x="764" 
d="M347 0h-267v780h267c236 0 359 -121 359 -390s-123 -390 -359 -390zM180 92h167c188 0 256 116 256 298s-68 298 -256 298h-167v-596zM321 -76l18 52c115 -10 155 -48 155 -102c0 -60 -55 -86 -122 -86c-42 0 -78 11 -92 18l17 53s26 -14 55 -14c22 0 56 5 56 30
c0 31 -39 44 -87 49z" />
    <glyph glyph-name="Dcroat" unicode="&#x110;" horiz-adv-x="818" 
d="M401 0h-267v354h-115v91h115v335h267c236 0 359 -121 359 -390s-123 -390 -359 -390zM234 92h167c188 0 256 116 256 298s-68 298 -256 298h-167v-243h217v-91h-217v-262z" />
    <glyph glyph-name="Egrave" unicode="&#xc8;" horiz-adv-x="693" 
d="M80 780h537v-92h-437v-243h394v-91h-394v-262h457v-92h-557v780zM205 1030h112l94 -208h-95z" />
    <glyph glyph-name="Eacute" unicode="&#xc9;" horiz-adv-x="693" 
d="M80 780h537v-92h-437v-243h394v-91h-394v-262h457v-92h-557v780zM404 1030h112l-111 -208h-95z" />
    <glyph glyph-name="Ecircumflex" unicode="&#xca;" horiz-adv-x="693" 
d="M80 780h537v-92h-437v-243h394v-91h-394v-262h457v-92h-557v780zM311 1030h92l152 -208h-97l-101 127l-101 -127h-97z" />
    <glyph glyph-name="Emacron" unicode="&#x112;" horiz-adv-x="693" 
d="M80 780h537v-92h-437v-243h394v-91h-394v-262h457v-92h-557v780zM501 882h-288v90h288v-90z" />
    <glyph glyph-name="Ebreve" unicode="&#x114;" horiz-adv-x="693" 
d="M80 780h537v-92h-437v-243h394v-91h-394v-262h457v-92h-557v780zM357 825c-142 0 -188 75 -187 205h78c-1 -89 32 -121 109 -121s110 32 109 121h78c1 -130 -45 -205 -187 -205z" />
    <glyph glyph-name="Einvertedbreve" unicode="&#x206;" horiz-adv-x="693" 
d="M80 780h537v-92h-437v-243h394v-91h-394v-262h457v-92h-557v780zM357 1027c142 0 188 -75 187 -205h-78c1 89 -32 121 -109 121s-110 -32 -109 -121h-78c-1 130 45 205 187 205z" />
    <glyph glyph-name="Edotaccent" unicode="&#x116;" horiz-adv-x="693" 
d="M80 780h537v-92h-437v-243h394v-91h-394v-262h457v-92h-557v780zM413 980v-111h-112v111h112z" />
    <glyph glyph-name="Edieresis" unicode="&#xcb;" horiz-adv-x="693" 
d="M80 780h537v-92h-437v-243h394v-91h-394v-262h457v-92h-557v780zM313 980v-111h-112v111h112zM513 980v-111h-112v111h112z" />
    <glyph glyph-name="Edoublegrave" unicode="&#x204;" horiz-adv-x="693" 
d="M80 780h537v-92h-437v-243h394v-91h-394v-262h457v-92h-557v780zM281 1030h112l94 -208h-95zM121 1030h112l94 -208h-95z" />
    <glyph glyph-name="Ecaron" unicode="&#x11a;" horiz-adv-x="693" 
d="M80 780h537v-92h-437v-243h394v-91h-394v-262h457v-92h-557v780zM403 822h-92l-152 208h97l101 -127l101 127h97z" />
    <glyph glyph-name="uni004500600323" unicode="&#xe101;" horiz-adv-x="693" 
d="M80 780h537v-92h-437v-243h394v-91h-394v-262h457v-92h-557v780zM204 1030h112l94 -208h-95zM412 -62v-111h-112v111h112z" />
    <glyph glyph-name="uni004500B40323" unicode="&#xe103;" horiz-adv-x="693" 
d="M80 780h537v-92h-437v-243h394v-91h-394v-262h457v-92h-557v780zM403 1030h112l-111 -208h-95zM412 -62v-111h-112v111h112z" />
    <glyph glyph-name="Eogonek" unicode="&#x118;" horiz-adv-x="693" 
d="M80 780h537v-92h-437v-243h394v-91h-394v-262h457v-92c-68 -8 -126 -53 -126 -99c0 -24 13 -40 46 -40c29 0 70 17 69 19l22 -67c-21 -13 -57 -25 -102 -25c-61 0 -117 28 -117 104c0 40 22 78 58 108h-407v780z" />
    <glyph glyph-name="Gacute" unicode="&#x1f4;" horiz-adv-x="780" 
d="M60 390c0 244 103 402 340 402c195 0 287 -90 304 -219l-102 -11c-15 97 -78 139 -202 139c-188 0 -237 -145 -237 -311s49 -310 237 -311c88 0 159 20 205 50v198h-168v87h267v-346c-104 -64 -189 -81 -305 -80c-236 2 -339 158 -339 402zM438 1030h112l-111 -208h-95z
" />
    <glyph glyph-name="Gcircumflex" unicode="&#x11c;" horiz-adv-x="780" 
d="M60 390c0 244 103 402 340 402c195 0 287 -90 304 -219l-102 -11c-15 97 -78 139 -202 139c-188 0 -237 -145 -237 -311s49 -310 237 -311c88 0 159 20 205 50v198h-168v87h267v-346c-104 -64 -189 -81 -305 -80c-236 2 -339 158 -339 402zM345 1030h92l152 -208h-97
l-101 127l-101 -127h-97z" />
    <glyph glyph-name="Gtilde" unicode="&#xe105;" horiz-adv-x="780" 
d="M60 390c0 244 103 402 340 402c195 0 287 -90 304 -219l-102 -11c-15 97 -78 139 -202 139c-188 0 -237 -145 -237 -311s49 -310 237 -311c88 0 159 20 205 50v198h-168v87h267v-346c-104 -64 -189 -81 -305 -80c-236 2 -339 158 -339 402zM306 926
c-36 0 -48 -29 -52 -54l-76 11c11 75 48 125 133 125c88 0 114 -80 165 -80c36 0 48 29 52 54l76 -11c-11 -75 -48 -125 -133 -125c-88 0 -114 80 -165 80z" />
    <glyph glyph-name="Gbreve" unicode="&#x11e;" horiz-adv-x="780" 
d="M60 390c0 244 103 402 340 402c195 0 287 -90 304 -219l-102 -11c-15 97 -78 139 -202 139c-188 0 -237 -145 -237 -311s49 -310 237 -311c88 0 159 20 205 50v198h-168v87h267v-346c-104 -64 -189 -81 -305 -80c-236 2 -339 158 -339 402zM391 825
c-142 0 -188 75 -187 205h78c-1 -89 32 -121 109 -121s110 32 109 121h78c1 -130 -45 -205 -187 -205z" />
    <glyph glyph-name="Gdotaccent" unicode="&#x120;" horiz-adv-x="780" 
d="M60 390c0 244 103 402 340 402c195 0 287 -90 304 -219l-102 -11c-15 97 -78 139 -202 139c-188 0 -237 -145 -237 -311s49 -310 237 -311c88 0 159 20 205 50v198h-168v87h267v-346c-104 -64 -189 -81 -305 -80c-236 2 -339 158 -339 402zM447 980v-111h-112v111h112z
" />
    <glyph glyph-name="Gcaron" unicode="&#x1e6;" horiz-adv-x="780" 
d="M60 390c0 244 103 402 340 402c195 0 287 -90 304 -219l-102 -11c-15 97 -78 139 -202 139c-188 0 -237 -145 -237 -311s49 -310 237 -311c88 0 159 20 205 50v198h-168v87h267v-346c-104 -64 -189 -81 -305 -80c-236 2 -339 158 -339 402zM437 822h-92l-152 208h97
l101 -127l101 127h97z" />
    <glyph glyph-name="Gcommaturnedabove" unicode="&#xe107;" horiz-adv-x="780" 
d="M60 390c0 244 103 402 340 402c195 0 287 -90 304 -219l-102 -11c-15 97 -78 139 -202 139c-188 0 -237 -145 -237 -311s49 -310 237 -311c88 0 159 20 205 50v198h-168v87h267v-346c-104 -64 -189 -81 -305 -80c-236 2 -339 158 -339 402zM439 822h-108l69 208h86z" />
    <glyph glyph-name="Gcommaaccent" unicode="&#x122;" horiz-adv-x="780" 
d="M60 390c0 244 103 402 340 402c195 0 287 -90 304 -219l-102 -11c-15 97 -78 139 -202 139c-188 0 -237 -145 -237 -311s49 -310 237 -311c88 0 159 20 205 50v198h-168v87h267v-346c-104 -64 -189 -81 -305 -80c-236 2 -339 158 -339 402zM335 -62h117l-46 -138h-88z
" />
    <glyph glyph-name="Gstroke" unicode="&#x1e4;" horiz-adv-x="810" 
d="M800 177h-96v-109c-104 -64 -189 -81 -305 -80c-236 2 -339 158 -339 402s103 402 340 402c195 0 287 -90 304 -219l-102 -11c-15 97 -78 139 -202 139c-188 0 -237 -145 -237 -311s49 -310 237 -311c88 0 159 20 205 50v48h-138v80h138v70h-168v87h267v-157h96v-80z" />
    <glyph glyph-name="Hcircumflex" unicode="&#x124;" horiz-adv-x="750" 
d="M570 780h100v-780h-100v354h-390v-354h-100v780h100v-335h390v335zM329 1030h92l152 -208h-97l-101 127l-101 -127h-97z" />
    <glyph glyph-name="Hcaron" unicode="&#x21e;" horiz-adv-x="750" 
d="M570 780h100v-780h-100v354h-390v-354h-100v780h100v-335h390v335zM421 822h-92l-152 208h97l101 -127l101 127h97z" />
    <glyph glyph-name="Hdotbelow" unicode="&#x1e24;" horiz-adv-x="750" 
d="M570 780h100v-780h-100v354h-390v-354h-100v780h100v-335h390v335zM431 -62v-111h-112v111h112z" />
    <glyph glyph-name="Hmacronbelow" unicode="&#xe109;" horiz-adv-x="750" 
d="M570 780h100v-780h-100v354h-390v-354h-100v780h100v-335h390v335zM231 -75h288v-90h-288v90z" />
    <glyph glyph-name="Hbar" unicode="&#x126;" horiz-adv-x="750" 
d="M570 780h100v-780h-100v354h-390v-354h-100v780h100v-140h390v140zM180 445h390v115h-390v-115z" />
    <glyph glyph-name="Igrave" unicode="&#xcc;" horiz-adv-x="296" 
d="M198 780v-780h-100v780h100zM-14 1030h112l94 -208h-95z" />
    <glyph glyph-name="Iacute" unicode="&#xcd;" horiz-adv-x="296" 
d="M198 780v-780h-100v780h100zM195 1030h112l-111 -208h-95z" />
    <glyph glyph-name="Icircumflex" unicode="&#xce;" horiz-adv-x="296" 
d="M198 780v-780h-100v780h100zM102 1030h92l152 -208h-97l-101 127l-101 -127h-97z" />
    <glyph glyph-name="Idieresis" unicode="&#xcf;" horiz-adv-x="296" 
d="M198 780v-780h-100v780h100zM104 980v-111h-112v111h112zM304 980v-111h-112v111h112z" />
    <glyph glyph-name="Itilde" unicode="&#x128;" horiz-adv-x="296" 
d="M198 780v-780h-100v780h100zM63 926c-36 0 -48 -29 -52 -54l-76 11c11 75 48 125 133 125c88 0 114 -80 165 -80c36 0 48 29 52 54l76 -11c-11 -75 -48 -125 -133 -125c-88 0 -114 80 -165 80z" />
    <glyph glyph-name="Icaron" unicode="&#x1cf;" horiz-adv-x="296" 
d="M198 780v-780h-100v780h100zM194 822h-92l-152 208h97l101 -127l101 127h97z" />
    <glyph glyph-name="Imacron" unicode="&#x12a;" horiz-adv-x="296" 
d="M198 780v-780h-100v780h100zM292 882h-288v90h288v-90z" />
    <glyph glyph-name="Ibreve" unicode="&#x12c;" horiz-adv-x="296" 
d="M198 780v-780h-100v780h100zM148 825c-142 0 -188 75 -187 205h78c-1 -89 32 -121 109 -121s110 32 109 121h78c1 -130 -45 -205 -187 -205z" />
    <glyph glyph-name="Iinvertedbreve" unicode="&#x20a;" horiz-adv-x="296" 
d="M198 780v-780h-100v780h100zM148 1027c142 0 188 -75 187 -205h-78c1 89 -32 121 -109 121s-110 -32 -109 -121h-78c-1 130 45 205 187 205z" />
    <glyph glyph-name="Idoublegrave" unicode="&#x208;" horiz-adv-x="296" 
d="M198 780v-780h-100v780h100zM72 1030h112l94 -208h-95zM-88 1030h112l94 -208h-95z" />
    <glyph glyph-name="Idotaccent" unicode="&#x130;" horiz-adv-x="296" 
d="M198 780v-780h-100v780h100zM204 980v-111h-112v111h112z" />
    <glyph glyph-name="Idotbelow" unicode="&#x1eca;" horiz-adv-x="296" 
d="M198 780v-780h-100v780h100zM204 -62v-111h-112v111h112z" />
    <glyph glyph-name="Iogonek" unicode="&#x12e;" horiz-adv-x="296" 
d="M98 7v773h100v-780c-47 -24 -87 -59 -87 -99c0 -24 12 -40 46 -40c37 1 73 21 77 26l22 -69c-27 -18 -65 -30 -110 -30c-61 0 -117 28 -117 103c0 50 28 84 69 116z" />
    <glyph glyph-name="Jcircumflex" unicode="&#x134;" horiz-adv-x="512" 
d="M344 1030h92l152 -208h-97l-101 127l-101 -127h-97zM340 780h100v-580c0 -113 -60 -212 -220 -212c-165 0 -197 88 -204 181l100 13c6 -62 23 -103 104 -103c94 0 120 43 120 125v576z" />
    <glyph glyph-name="Jcaron" unicode="&#xe10b;" horiz-adv-x="512" 
d="M436 822h-92l-152 208h97l101 -127l101 127h97zM340 780h100v-580c0 -113 -60 -212 -220 -212c-165 0 -197 88 -204 181l100 13c6 -62 23 -103 104 -103c94 0 120 43 120 125v576z" />
    <glyph glyph-name="Kcaron" unicode="&#x1e8;" horiz-adv-x="712" 
d="M180 780v-388l357 388h141l-335 -352l356 -428h-136l-289 355l-94 -100v-255h-100v780h100zM389 822h-92l-152 208h97l101 -127l101 127h97z" />
    <glyph glyph-name="Kcommaaccent" unicode="&#x136;" horiz-adv-x="712" 
d="M180 780v-388l357 388h141l-335 -352l356 -428h-136l-289 355l-94 -100v-255h-100v780h100zM295 -62h117l-46 -138h-88z" />
    <glyph glyph-name="Kcedilla" unicode="&#xe10d;" horiz-adv-x="712" 
d="M180 780v-388l357 388h141l-335 -352l356 -428h-136l-289 355l-94 -100v-255h-100v780h100zM297 -76l18 52c115 -10 155 -48 155 -102c0 -60 -55 -86 -122 -86c-42 0 -78 11 -92 18l17 53s26 -14 55 -14c22 0 56 5 56 30c0 31 -39 44 -87 49z" />
    <glyph glyph-name="Khook" unicode="&#x198;" horiz-adv-x="712" 
d="M622 695c-121 -1 -106 -167 -250 -302l327 -393h-136l-275 338c-29 -20 -68 -40 -108 -56v-282h-100v780h100v-392c288 115 193 403 442 403c24 0 51 -6 64 -11l-11 -95c-8 4 -28 10 -53 10z" />
    <glyph glyph-name="Lacute" unicode="&#x139;" horiz-adv-x="589" 
d="M180 780v-688h396v-92h-496v780h100zM177 1030h112l-111 -208h-95z" />
    <glyph glyph-name="Lcaron" unicode="&#x13d;" horiz-adv-x="589" 
d="M180 780v-688h396v-92h-496v780h100zM387 800h108l-69 -208h-86z" />
    <glyph glyph-name="Lcommaaccent" unicode="&#x13b;" horiz-adv-x="589" 
d="M180 780v-688h396v-92h-496v780h100zM274 -62h117l-46 -138h-88z" />
    <glyph glyph-name="Lcedilla" unicode="&#xe10f;" horiz-adv-x="589" 
d="M180 780v-688h396v-92h-496v780h100zM263 -76l18 52c115 -10 155 -48 155 -102c0 -60 -55 -86 -122 -86c-42 0 -78 11 -92 18l17 53s26 -14 55 -14c22 0 56 5 56 30c0 31 -39 44 -87 49z" />
    <glyph glyph-name="Ldotbelow" unicode="&#x1e36;" horiz-adv-x="589" 
d="M180 780v-688h396v-92h-496v780h100zM379 -62v-111h-112v111h112z" />
    <glyph glyph-name="uni004C032300AF" unicode="&#x1e38;" horiz-adv-x="589" 
d="M180 780v-688h396v-92h-496v780h100zM274 882h-288v90h288v-90zM379 -62v-111h-112v111h112z" />
    <glyph glyph-name="Ldot" unicode="&#x13f;" horiz-adv-x="589" 
d="M180 780v-688h396v-92h-496v780h100zM476 455v-111h-112v111h112z" />
    <glyph glyph-name="Lslash" unicode="&#x141;" horiz-adv-x="589" 
d="M446 447l-266 -133v-222h396v-92h-496v265l-74 -37v83l74 37v432h100v-383l266 133v-83z" />
    <glyph glyph-name="Mmacron" unicode="&#xe111;" horiz-adv-x="910" 
d="M497 0h-84l-189 455l-49 129l3 -299v-285h-98v780h108l204 -492l63 -164l63 164l204 492h108v-780h-98v285l3 299l-49 -129zM599 882h-288v90h288v-90z" />
    <glyph glyph-name="Mcedilla" unicode="&#xe113;" horiz-adv-x="910" 
d="M497 0h-84l-189 455l-49 129l3 -299v-285h-98v780h108l204 -492l63 -164l63 164l204 492h108v-780h-98v285l3 299l-49 -129zM394 -76l18 52c115 -10 155 -48 155 -102c0 -60 -55 -86 -122 -86c-42 0 -78 11 -92 18l17 53s26 -14 55 -14c22 0 56 5 56 30
c0 31 -39 44 -87 49z" />
    <glyph glyph-name="Mdotbelow" unicode="&#x1e42;" horiz-adv-x="910" 
d="M497 0h-84l-189 455l-49 129l3 -299v-285h-98v780h108l204 -492l63 -164l63 164l204 492h108v-780h-98v285l3 299l-49 -129zM511 -62v-111h-112v111h112z" />
    <glyph glyph-name="Ngrave" unicode="&#x1f8;" horiz-adv-x="754" 
d="M171 780l319 -471l86 -133l-3 235v369h101v-780h-91l-319 471l-86 133l3 -235v-369h-101v780h91zM218 1030h112l94 -208h-95z" />
    <glyph glyph-name="Nacute" unicode="&#x143;" horiz-adv-x="754" 
d="M171 780l319 -471l86 -133l-3 235v369h101v-780h-91l-319 471l-86 133l3 -235v-369h-101v780h91zM424 1030h112l-111 -208h-95z" />
    <glyph glyph-name="Ndieresis" unicode="&#xe115;" horiz-adv-x="754" 
d="M171 780l319 -471l86 -133l-3 235v369h101v-780h-91l-319 471l-86 133l3 -235v-369h-101v780h91zM333 980v-111h-112v111h112zM533 980v-111h-112v111h112z" />
    <glyph glyph-name="Ntilde" unicode="&#xd1;" horiz-adv-x="754" 
d="M171 780l319 -471l86 -133l-3 235v369h101v-780h-91l-319 471l-86 133l3 -235v-369h-101v780h91zM292 926c-36 0 -48 -29 -52 -54l-76 11c11 75 48 125 133 125c88 0 114 -80 165 -80c36 0 48 29 52 54l76 -11c-11 -75 -48 -125 -133 -125c-88 0 -114 80 -165 80z" />
    <glyph glyph-name="Ncaron" unicode="&#x147;" horiz-adv-x="754" 
d="M171 780l319 -471l86 -133l-3 235v369h101v-780h-91l-319 471l-86 133l3 -235v-369h-101v780h91zM423 822h-92l-152 208h97l101 -127l101 127h97z" />
    <glyph glyph-name="Nmacron" unicode="&#xe117;" horiz-adv-x="754" 
d="M171 780l319 -471l86 -133l-3 235v369h101v-780h-91l-319 471l-86 133l3 -235v-369h-101v780h91zM521 882h-288v90h288v-90z" />
    <glyph glyph-name="Ndotaccent" unicode="&#x1e44;" horiz-adv-x="754" 
d="M171 780l319 -471l86 -133l-3 235v369h101v-780h-91l-319 471l-86 133l3 -235v-369h-101v780h91zM433 -62v-111h-112v111h112z" />
    <glyph glyph-name="Ncommaaccent" unicode="&#x145;" horiz-adv-x="754" 
d="M171 780l319 -471l86 -133l-3 235v369h101v-780h-91l-319 471l-86 133l3 -235v-369h-101v780h91zM321 -62h117l-46 -138h-88z" />
    <glyph glyph-name="Ncedilla" unicode="&#xe119;" horiz-adv-x="754" 
d="M171 780l319 -471l86 -133l-3 235v369h101v-780h-91l-319 471l-86 133l3 -235v-369h-101v780h91zM316 -76l18 52c115 -10 155 -48 155 -102c0 -60 -55 -86 -122 -86c-42 0 -78 11 -92 18l17 53s26 -14 55 -14c22 0 56 5 56 30c0 31 -39 44 -87 49z" />
    <glyph glyph-name="Ndotbelow" unicode="&#x1e46;" horiz-adv-x="754" 
d="M171 780l319 -471l86 -133l-3 235v369h101v-780h-91l-319 471l-86 133l3 -235v-369h-101v780h91zM433 -62v-111h-112v111h112z" />
    <glyph glyph-name="Ndescender" unicode="&#xe806;" horiz-adv-x="754" 
d="M171 780l319 -471l86 -133l-3 235v369h101v-980h-100v213l-310 458l-86 133l3 -235v-369h-101v780h91z" />
    <glyph glyph-name="Ograve" unicode="&#xd2;" horiz-adv-x="800" 
d="M400 -12c-238 0 -340 158 -340 402s102 402 340 402s340 -158 340 -402s-102 -402 -340 -402zM400 701c-189 0 -236 -145 -236 -311s47 -311 236 -311s236 145 236 311s-47 311 -236 311zM248 1030h112l94 -208h-95z" />
    <glyph glyph-name="Oacute" unicode="&#xd3;" horiz-adv-x="800" 
d="M400 -12c-238 0 -340 158 -340 402s102 402 340 402s340 -158 340 -402s-102 -402 -340 -402zM400 701c-189 0 -236 -145 -236 -311s47 -311 236 -311s236 145 236 311s-47 311 -236 311zM447 1030h112l-111 -208h-95z" />
    <glyph glyph-name="Ocircumflex" unicode="&#xd4;" horiz-adv-x="800" 
d="M400 701c-189 0 -236 -145 -236 -311s47 -311 236 -311s236 145 236 311s-47 311 -236 311zM400 -12c-238 0 -340 158 -340 402s102 402 340 402s340 -158 340 -402s-102 -402 -340 -402zM354 1030h92l152 -208h-97l-101 127l-101 -127h-97z" />
    <glyph glyph-name="Odieresis" unicode="&#xd6;" horiz-adv-x="800" 
d="M400 701c-189 0 -236 -145 -236 -311s47 -311 236 -311s236 145 236 311s-47 311 -236 311zM400 -12c-238 0 -340 158 -340 402s102 402 340 402s340 -158 340 -402s-102 -402 -340 -402zM356 980v-111h-112v111h112zM556 980v-111h-112v111h112z" />
    <glyph glyph-name="Otilde" unicode="&#xd5;" horiz-adv-x="800" 
d="M400 -12c-238 0 -340 158 -340 402s102 402 340 402s340 -158 340 -402s-102 -402 -340 -402zM400 701c-189 0 -236 -145 -236 -311s47 -311 236 -311s236 145 236 311s-47 311 -236 311zM315 926c-36 0 -48 -29 -52 -54l-76 11c11 75 48 125 133 125
c88 0 114 -80 165 -80c36 0 48 29 52 54l76 -11c-11 -75 -48 -125 -133 -125c-88 0 -114 80 -165 80z" />
    <glyph glyph-name="Ocaron" unicode="&#x1d1;" horiz-adv-x="800" 
d="M400 701c-189 0 -236 -145 -236 -311s47 -311 236 -311s236 145 236 311s-47 311 -236 311zM400 -12c-238 0 -340 158 -340 402s102 402 340 402s340 -158 340 -402s-102 -402 -340 -402zM446 822h-92l-152 208h97l101 -127l101 127h97z" />
    <glyph glyph-name="Omacron" unicode="&#x14c;" horiz-adv-x="800" 
d="M400 -12c-238 0 -340 158 -340 402s102 402 340 402s340 -158 340 -402s-102 -402 -340 -402zM400 701c-189 0 -236 -145 -236 -311s47 -311 236 -311s236 145 236 311s-47 311 -236 311zM544 882h-288v90h288v-90z" />
    <glyph glyph-name="Obreve" unicode="&#x14e;" horiz-adv-x="800" 
d="M400 701c-189 0 -236 -145 -236 -311s47 -311 236 -311s236 145 236 311s-47 311 -236 311zM400 -12c-238 0 -340 158 -340 402s102 402 340 402s340 -158 340 -402s-102 -402 -340 -402zM400 825c-142 0 -188 75 -187 205h78c-1 -89 32 -121 109 -121s110 32 109 121h78
c1 -130 -45 -205 -187 -205z" />
    <glyph glyph-name="Oinvertedbreve" unicode="&#x20e;" horiz-adv-x="800" 
d="M400 701c-189 0 -236 -145 -236 -311s47 -311 236 -311s236 145 236 311s-47 311 -236 311zM400 -12c-238 0 -340 158 -340 402s102 402 340 402s340 -158 340 -402s-102 -402 -340 -402zM400 1027c142 0 188 -75 187 -205h-78c1 89 -32 121 -109 121s-110 -32 -109 -121
h-78c-1 130 45 205 187 205z" />
    <glyph glyph-name="Ohungarumlaut" unicode="&#x150;" horiz-adv-x="800" 
d="M400 701c-189 0 -236 -145 -236 -311s47 -311 236 -311s236 145 236 311s-47 311 -236 311zM400 -12c-238 0 -340 158 -340 402s102 402 340 402s340 -158 340 -402s-102 -402 -340 -402zM365 1030h112l-111 -208h-95zM525 1030h112l-111 -208h-95z" />
    <glyph glyph-name="Odoublegrave" unicode="&#x20c;" horiz-adv-x="800" 
d="M400 701c-189 0 -236 -145 -236 -311s47 -311 236 -311s236 145 236 311s-47 311 -236 311zM400 -12c-238 0 -340 158 -340 402s102 402 340 402s340 -158 340 -402s-102 -402 -340 -402zM323 1030h112l94 -208h-95zM163 1030h112l94 -208h-95z" />
    <glyph glyph-name="Ocommaturnedabove" unicode="&#xe11b;" horiz-adv-x="800" 
d="M400 701c-189 0 -236 -145 -236 -311s47 -311 236 -311s236 145 236 311s-47 311 -236 311zM400 -12c-238 0 -340 158 -340 402s102 402 340 402s340 -158 340 -402s-102 -402 -340 -402zM448 822h-108l69 208h86z" />
    <glyph glyph-name="Otildemacron" unicode="&#x22c;" horiz-adv-x="800" 
d="M400 -12c-238 0 -340 158 -340 402s102 402 340 402s340 -158 340 -402s-102 -402 -340 -402zM400 701c-189 0 -236 -145 -236 -311s47 -311 236 -311s236 145 236 311s-47 311 -236 311zM315 886c-36 0 -48 -29 -52 -54l-76 11c11 75 48 125 133 125
c88 0 114 -80 165 -80c36 0 48 29 52 54l76 -11c-11 -75 -48 -125 -133 -125c-88 0 -114 80 -165 80zM256 981v90h288v-90h-288z" />
    <glyph glyph-name="Odotabove" unicode="&#x22e;" horiz-adv-x="800" 
d="M400 701c-189 0 -236 -145 -236 -311s47 -311 236 -311s236 145 236 311s-47 311 -236 311zM400 -12c-238 0 -340 158 -340 402s102 402 340 402s340 -158 340 -402s-102 -402 -340 -402zM456 980v-111h-112v111h112z" />
    <glyph glyph-name="uni004F02D900AF" unicode="&#xe11d;" horiz-adv-x="800" 
d="M400 701c-189 0 -236 -145 -236 -311s47 -311 236 -311s236 145 236 311s-47 311 -236 311zM400 -12c-238 0 -340 158 -340 402s102 402 340 402s340 -158 340 -402s-102 -402 -340 -402zM456 939v-111h-112v111h112zM256 981v90h288v-90h-288z" />
    <glyph glyph-name="Ocedilla" unicode="&#xe11f;" horiz-adv-x="800" 
d="M400 701c-189 0 -236 -145 -236 -311s47 -311 236 -311s236 145 236 311s-47 311 -236 311zM400 -12c-238 0 -340 158 -340 402s102 402 340 402s340 -158 340 -402s-102 -402 -340 -402zM339 -76l18 52c115 -10 155 -48 155 -102c0 -60 -55 -86 -122 -86
c-42 0 -78 11 -92 18l17 53s26 -14 55 -14c22 0 56 5 56 30c0 31 -39 44 -87 49z" />
    <glyph glyph-name="Odotbelow" unicode="&#x1ecc;" horiz-adv-x="800" 
d="M400 701c-189 0 -236 -145 -236 -311s47 -311 236 -311s236 145 236 311s-47 311 -236 311zM400 -12c-238 0 -340 158 -340 402s102 402 340 402s340 -158 340 -402s-102 -402 -340 -402zM456 -62v-111h-112v111h112z" />
    <glyph glyph-name="Oogonek" unicode="&#x1ea;" horiz-adv-x="800" 
d="M740 390c0 -211 -76 -356 -250 -393c-57 -12 -103 -54 -103 -96c0 -24 13 -40 46 -40c29 0 70 17 69 19l22 -67c-21 -13 -57 -25 -102 -25c-61 0 -117 28 -117 104c0 36 17 70 47 98c-204 20 -292 173 -292 400c0 244 102 402 340 402s340 -158 340 -402zM400 701
c-189 0 -236 -145 -236 -311s47 -311 236 -311s236 145 236 311s-47 311 -236 311z" />
    <glyph glyph-name="uni004F02DB00AF" unicode="&#x1ec;" horiz-adv-x="800" 
d="M740 390c0 -211 -76 -356 -250 -393c-57 -12 -103 -54 -103 -96c0 -24 13 -40 46 -40c29 0 70 17 69 19l22 -67c-21 -13 -57 -25 -102 -25c-61 0 -117 28 -117 104c0 36 17 70 47 98c-204 20 -292 173 -292 400c0 244 102 402 340 402s340 -158 340 -402zM400 701
c-189 0 -236 -145 -236 -311s47 -311 236 -311s236 145 236 311s-47 311 -236 311zM544 882h-288v90h288v-90z" />
    <glyph glyph-name="Ounderlineaccent" unicode="&#xe121;" horiz-adv-x="800" 
d="M400 701c-189 0 -236 -145 -236 -311s47 -311 236 -311s236 145 236 311s-47 311 -236 311zM400 -12c-238 0 -340 158 -340 402s102 402 340 402s340 -158 340 -402s-102 -402 -340 -402zM435 -200h-71v160h71v-160z" />
    <glyph glyph-name="Oslash" unicode="&#xd8;" horiz-adv-x="800" 
d="M740 390c0 -244 -102 -402 -340 -402c-79 0 -143 18 -193 50l-25 -38h-79l53 80c-66 70 -96 178 -96 310c0 244 102 402 340 402c79 0 143 -18 193 -50l25 38h79l-53 -80c66 -70 96 -178 96 -310zM636 390c0 85 -13 164 -50 222l-326 -494c35 -25 80 -39 140 -39
c189 0 236 145 236 311zM164 390c0 -85 13 -164 50 -222l326 494c-35 25 -80 39 -140 39c-189 0 -236 -145 -236 -311z" />
    <glyph glyph-name="Oslashacute" unicode="&#x1fe;" horiz-adv-x="800" 
d="M740 390c0 -244 -102 -402 -340 -402c-79 0 -143 18 -193 50l-25 -38h-79l53 80c-66 70 -96 178 -96 310c0 244 102 402 340 402c79 0 143 -18 193 -50l25 38h79l-53 -80c66 -70 96 -178 96 -310zM164 390c0 -85 13 -164 50 -222l326 494c-35 25 -80 39 -140 39
c-189 0 -236 -145 -236 -311zM636 390c0 85 -13 164 -50 222l-326 -494c35 -25 80 -39 140 -39c189 0 236 145 236 311zM447 1030h112l-111 -208h-95z" />
    <glyph glyph-name="barredO" unicode="&#xe738;" horiz-adv-x="800" 
d="M400 -12c-238 0 -340 158 -340 402s102 402 340 402s340 -158 340 -402s-102 -402 -340 -402zM400 79c175 0 228 124 235 275h-470c7 -151 60 -275 235 -275zM400 701c-168 0 -224 -115 -234 -256h468c-11 141 -67 256 -234 256z" />
    <glyph glyph-name="Oumlaut.alt" horiz-adv-x="800" 
d="M400 -12c-238 0 -340 158 -340 402s102 402 340 402s340 -158 340 -402s-102 -402 -340 -402zM400 701c-189 0 -236 -145 -236 -311s47 -311 236 -311s236 145 236 311s-47 311 -236 311zM172 780v-38c-26 -21 -48 -45 -67 -73h-45v111h112zM740 780v-111h-46
c-18 28 -40 52 -66 73v38h112z" />
    <glyph glyph-name="OE" unicode="&#x152;" horiz-adv-x="1082" 
d="M417 780h589v-92h-397v-243h354v-91h-354v-262h417v-92h-609c-236 0 -359 121 -359 390s123 390 359 390zM509 688h-92c-188 0 -256 -116 -256 -298s68 -298 256 -298h92v596z" />
    <glyph glyph-name="Pmacron" unicode="&#xe123;" horiz-adv-x="658" 
d="M180 405h199c60 0 141 16 141 142c0 125 -81 141 -141 141h-199v-283zM180 313v-313h-100v780h288c125 0 257 -46 257 -233s-131 -234 -256 -234h-189zM473 882h-288v90h288v-90z" />
    <glyph glyph-name="Racute" unicode="&#x154;" horiz-adv-x="707" 
d="M180 327v-327h-100v780h312c125 0 255 -39 255 -226c0 -146 -78 -202 -171 -219l204 -335h-123l-189 327h-188zM180 419h222c60 0 141 9 141 135s-81 134 -141 134h-222v-269zM381 1030h112l-111 -208h-95z" />
    <glyph glyph-name="Rcaron" unicode="&#x158;" horiz-adv-x="707" 
d="M180 327v-327h-100v780h312c125 0 255 -39 255 -226c0 -146 -78 -202 -171 -219l204 -335h-123l-189 327h-188zM180 419h222c60 0 141 9 141 135s-81 134 -141 134h-222v-269zM380 822h-92l-152 208h97l101 -127l101 127h97z" />
    <glyph glyph-name="Rinvertedbreve" unicode="&#x212;" horiz-adv-x="707" 
d="M180 327v-327h-100v780h312c125 0 255 -39 255 -226c0 -146 -78 -202 -171 -219l204 -335h-123l-189 327h-188zM180 419h222c60 0 141 9 141 135s-81 134 -141 134h-222v-269zM334 1027c142 0 188 -75 187 -205h-78c1 89 -32 121 -109 121s-110 -32 -109 -121h-78
c-1 130 45 205 187 205z" />
    <glyph glyph-name="Rdoublegrave" unicode="&#xe125;" horiz-adv-x="707" 
d="M180 327v-327h-100v780h312c125 0 255 -39 255 -226c0 -146 -78 -202 -171 -219l204 -335h-123l-189 327h-188zM180 419h222c60 0 141 9 141 135s-81 134 -141 134h-222v-269zM258 1030h112l94 -208h-95zM98 1030h112l94 -208h-95z" />
    <glyph glyph-name="Rcommaaccent" unicode="&#x156;" horiz-adv-x="707" 
d="M180 327v-327h-100v780h312c125 0 255 -39 255 -226c0 -146 -78 -202 -171 -219l204 -335h-123l-189 327h-188zM180 419h222c60 0 141 9 141 135s-81 134 -141 134h-222v-269zM298 -62h117l-46 -138h-88z" />
    <glyph glyph-name="Rcedilla" unicode="&#xe127;" horiz-adv-x="707" 
d="M180 327v-327h-100v780h312c125 0 255 -39 255 -226c0 -146 -78 -202 -171 -219l204 -335h-123l-189 327h-188zM180 419h222c60 0 141 9 141 135s-81 134 -141 134h-222v-269zM287 -76l18 52c115 -10 155 -48 155 -102c0 -60 -55 -86 -122 -86c-42 0 -78 11 -92 18l17 53
s26 -14 55 -14c22 0 56 5 56 30c0 31 -39 44 -87 49z" />
    <glyph glyph-name="Rdotbelow" unicode="&#x1e5a;" horiz-adv-x="707" 
d="M180 327v-327h-100v780h312c125 0 255 -39 255 -226c0 -146 -78 -202 -171 -219l204 -335h-123l-189 327h-188zM180 419h222c60 0 141 9 141 135s-81 134 -141 134h-222v-269zM413 -62v-111h-112v111h112z" />
    <glyph glyph-name="Rdotbelowmacron" unicode="&#x1e5c;" horiz-adv-x="707" 
d="M180 327v-327h-100v780h312c125 0 255 -39 255 -226c0 -146 -78 -202 -171 -219l204 -335h-123l-189 327h-188zM180 419h222c60 0 141 9 141 135s-81 134 -141 134h-222v-269zM478 882h-288v90h288v-90zM413 -62v-111h-112v111h112z" />
    <glyph glyph-name="Sacute" unicode="&#x15a;" horiz-adv-x="713" 
d="M358 79c92 1 199 37 199 145c0 87 -45 124 -199 139c-140 13 -274 44 -275 202c-1 157 125 227 272 227c199 0 283 -87 300 -213l-102 -11c-14 94 -73 133 -198 133c-63 -1 -172 -23 -171 -135c0 -68 33 -98 177 -114c187 -18 294 -52 295 -227
c0 -166 -147 -237 -298 -237c-205 0 -286 88 -304 218l102 10c16 -97 77 -137 202 -137zM405 1030h112l-111 -208h-95z" />
    <glyph glyph-name="Scircumflex" unicode="&#x15c;" horiz-adv-x="713" 
d="M358 79c92 1 199 37 199 145c0 87 -45 124 -199 139c-140 13 -274 44 -275 202c-1 157 125 227 272 227c199 0 283 -87 300 -213l-102 -11c-14 94 -73 133 -198 133c-63 -1 -172 -23 -171 -135c0 -68 33 -98 177 -114c187 -18 294 -52 295 -227
c0 -166 -147 -237 -298 -237c-205 0 -286 88 -304 218l102 10c16 -97 77 -137 202 -137zM312 1030h92l152 -208h-97l-101 127l-101 -127h-97z" />
    <glyph glyph-name="Scaron" unicode="&#x160;" horiz-adv-x="713" 
d="M358 79c92 1 199 37 199 145c0 87 -45 124 -199 139c-140 13 -274 44 -275 202c-1 157 125 227 272 227c199 0 283 -87 300 -213l-102 -11c-14 94 -73 133 -198 133c-63 -1 -172 -23 -171 -135c0 -68 33 -98 177 -114c187 -18 294 -52 295 -227
c0 -166 -147 -237 -298 -237c-205 0 -286 88 -304 218l102 10c16 -97 77 -137 202 -137zM404 822h-92l-152 208h97l101 -127l101 127h97z" />
    <glyph glyph-name="Scommaaccent" unicode="&#x218;" horiz-adv-x="713" 
d="M358 79c92 1 199 37 199 145c0 87 -45 124 -199 139c-140 13 -274 44 -275 202c-1 157 125 227 272 227c199 0 283 -87 300 -213l-102 -11c-14 94 -73 133 -198 133c-63 -1 -172 -23 -171 -135c0 -68 33 -98 177 -114c187 -18 294 -52 295 -227
c0 -166 -147 -237 -298 -237c-205 0 -286 88 -304 218l102 10c16 -97 77 -137 202 -137zM298 -62h117l-46 -138h-88z" />
    <glyph glyph-name="Scedilla" unicode="&#x15e;" horiz-adv-x="713" 
d="M358 79c92 1 199 37 199 145c0 87 -45 124 -199 139c-140 13 -274 44 -275 202c-1 157 125 227 272 227c199 0 283 -87 300 -213l-102 -11c-14 94 -73 133 -198 133c-63 -1 -172 -23 -171 -135c0 -68 33 -98 177 -114c187 -18 294 -52 295 -227
c0 -156 -129 -227 -270 -236l-6 -24c46 -11 89 -37 89 -91c0 -60 -55 -86 -122 -86c-42 0 -78 11 -92 18l17 53s26 -14 55 -14c22 0 56 5 56 30c0 31 -39 44 -87 49l22 65c-176 11 -247 95 -264 217l102 10c16 -97 77 -137 202 -137z" />
    <glyph glyph-name="Sdotbelow" unicode="&#x1e62;" horiz-adv-x="713" 
d="M358 79c92 1 199 37 199 145c0 87 -45 124 -199 139c-140 13 -274 44 -275 202c-1 157 125 227 272 227c199 0 283 -87 300 -213l-102 -11c-14 94 -73 133 -198 133c-63 -1 -172 -23 -171 -135c0 -68 33 -98 177 -114c187 -18 294 -52 295 -227
c0 -166 -147 -237 -298 -237c-205 0 -286 88 -304 218l102 10c16 -97 77 -137 202 -137zM413 -62v-111h-112v111h112z" />
    <glyph glyph-name="Tcaron" unicode="&#x164;" horiz-adv-x="622" 
d="M360 688v-688h-100v688h-240v92h581v-92h-241zM357 822h-92l-152 208h97l101 -127l101 127h97z" />
    <glyph glyph-name="Tcommaaccent" unicode="&#x162;" horiz-adv-x="622" 
d="M361 688v-688h-100v688h-241v92h582v-92h-241zM252 -62h117l-46 -138h-88z" />
    <glyph glyph-name="Tcedilla" unicode="&#xe129;" horiz-adv-x="622" 
d="M361 688v-688h-100v688h-241v92h582v-92h-241zM244 -76l18 52c115 -10 155 -48 155 -102c0 -60 -55 -86 -122 -86c-42 0 -78 11 -92 18l17 53s26 -14 55 -14c22 0 56 5 56 30c0 31 -39 44 -87 49z" />
    <glyph glyph-name="Tdotbelow" unicode="&#x1e6c;" horiz-adv-x="622" 
d="M361 688v-688h-100v688h-241v92h582v-92h-241zM367 -62v-111h-112v111h112z" />
    <glyph glyph-name="Tbar" unicode="&#x166;" horiz-adv-x="622" 
d="M361 688v-247h125v-82h-125v-359h-100v359h-125v82h125v247h-241v92h582v-92h-241z" />
    <glyph glyph-name="Ugrave" unicode="&#xd9;" horiz-adv-x="772" 
d="M386 -12c-239 0 -314 127 -314 294v498h102v-499c0 -112 36 -202 212 -202s212 90 212 202v499h102v-498c0 -167 -75 -294 -314 -294zM234 1030h112l94 -208h-95z" />
    <glyph glyph-name="Uacute" unicode="&#xda;" horiz-adv-x="772" 
d="M386 -12c-239 0 -314 127 -314 294v498h102v-499c0 -112 36 -202 212 -202s212 90 212 202v499h102v-498c0 -167 -75 -294 -314 -294zM433 1030h112l-111 -208h-95z" />
    <glyph glyph-name="Ucircumflex" unicode="&#xdb;" horiz-adv-x="772" 
d="M386 -12c-239 0 -314 127 -314 294v498h102v-499c0 -112 36 -202 212 -202s212 90 212 202v499h102v-498c0 -167 -75 -294 -314 -294zM340 1030h92l152 -208h-97l-101 127l-101 -127h-97z" />
    <glyph glyph-name="Udieresis" unicode="&#xdc;" horiz-adv-x="772" 
d="M386 -12c-239 0 -314 127 -314 294v498h102v-499c0 -112 36 -202 212 -202s212 90 212 202v499h102v-498c0 -167 -75 -294 -314 -294zM342 980v-111h-112v111h112zM542 980v-111h-112v111h112z" />
    <glyph glyph-name="Utilde" unicode="&#x168;" horiz-adv-x="772" 
d="M386 -12c-239 0 -314 127 -314 294v498h102v-499c0 -112 36 -202 212 -202s212 90 212 202v499h102v-498c0 -167 -75 -294 -314 -294zM301 926c-36 0 -48 -29 -52 -54l-76 11c11 75 48 125 133 125c88 0 114 -80 165 -80c36 0 48 29 52 54l76 -11
c-11 -75 -48 -125 -133 -125c-88 0 -114 80 -165 80z" />
    <glyph glyph-name="Uring" unicode="&#x16e;" horiz-adv-x="772" 
d="M386 -12c-239 0 -314 127 -314 294v498h102v-499c0 -112 36 -202 212 -202s212 90 212 202v499h102v-498c0 -167 -75 -294 -314 -294zM270 926c0 67 43 116 116 116s116 -49 116 -116s-43 -116 -116 -116s-116 49 -116 116zM433 926c0 29 -18 48 -47 48s-47 -19 -47 -48
s18 -48 47 -48s47 19 47 48z" />
    <glyph glyph-name="Ucaron" unicode="&#x1d3;" horiz-adv-x="772" 
d="M386 -12c-239 0 -314 127 -314 294v498h102v-499c0 -112 36 -202 212 -202s212 90 212 202v499h102v-498c0 -167 -75 -294 -314 -294zM432 822h-92l-152 208h97l101 -127l101 127h97z" />
    <glyph glyph-name="Umacron" unicode="&#x16a;" horiz-adv-x="772" 
d="M386 -12c-239 0 -314 127 -314 294v498h102v-499c0 -112 36 -202 212 -202s212 90 212 202v499h102v-498c0 -167 -75 -294 -314 -294zM530 882h-288v90h288v-90z" />
    <glyph glyph-name="Ubreve" unicode="&#x16c;" horiz-adv-x="772" 
d="M386 -12c-239 0 -314 127 -314 294v498h102v-499c0 -112 36 -202 212 -202s212 90 212 202v499h102v-498c0 -167 -75 -294 -314 -294zM386 825c-142 0 -188 75 -187 205h78c-1 -89 32 -121 109 -121s110 32 109 121h78c1 -130 -45 -205 -187 -205z" />
    <glyph glyph-name="Uinvertedbreve" unicode="&#x216;" horiz-adv-x="772" 
d="M386 -12c-239 0 -314 127 -314 294v498h102v-499c0 -112 36 -202 212 -202s212 90 212 202v499h102v-498c0 -167 -75 -294 -314 -294zM386 1027c142 0 188 -75 187 -205h-78c1 89 -32 121 -109 121s-110 -32 -109 -121h-78c-1 130 45 205 187 205z" />
    <glyph glyph-name="Uhungarumlaut" unicode="&#x170;" horiz-adv-x="772" 
d="M386 -12c-239 0 -314 127 -314 294v498h102v-499c0 -112 36 -202 212 -202s212 90 212 202v499h102v-498c0 -167 -75 -294 -314 -294zM351 1030h112l-111 -208h-95zM511 1030h112l-111 -208h-95z" />
    <glyph glyph-name="Udoublegrave" unicode="&#x214;" horiz-adv-x="772" 
d="M386 -12c-239 0 -314 127 -314 294v498h102v-499c0 -112 36 -202 212 -202s212 90 212 202v499h102v-498c0 -167 -75 -294 -314 -294zM309 1030h112l94 -208h-95zM149 1030h112l94 -208h-95z" />
    <glyph glyph-name="Udotbelow" unicode="&#x1ee4;" horiz-adv-x="772" 
d="M386 -12c-239 0 -314 127 -314 294v498h102v-499c0 -112 36 -202 212 -202s212 90 212 202v499h102v-498c0 -167 -75 -294 -314 -294zM442 -62v-111h-112v111h112z" />
    <glyph glyph-name="Umacronbelow" unicode="&#xe12b;" horiz-adv-x="772" 
d="M386 -12c-239 0 -314 127 -314 294v498h102v-499c0 -112 36 -202 212 -202s212 90 212 202v499h102v-498c0 -167 -75 -294 -314 -294zM242 -75h288v-90h-288v90z" />
    <glyph glyph-name="Uogonek" unicode="&#x172;" horiz-adv-x="772" 
d="M72 282v498h102v-499c0 -112 36 -202 212 -202s212 90 212 202v499h102v-498c0 -138 -51 -249 -203 -283c-60 -13 -99 -62 -99 -98c0 -24 13 -40 46 -40c29 0 70 17 69 19l22 -67c-21 -13 -57 -25 -102 -25c-61 0 -117 28 -117 104c0 36 16 69 45 97
c-219 8 -289 132 -289 293z" />
    <glyph glyph-name="Uumlaut.alt" horiz-adv-x="772" 
d="M386 -12c-239 0 -314 127 -314 294v498h102v-499c0 -112 36 -202 212 -202s212 90 212 202v499h102v-498c0 -167 -75 -294 -314 -294zM352 780v-111h-112v111h112zM532 780v-111h-112v111h112z" />
    <glyph glyph-name="Wgrave" unicode="&#x1e80;" horiz-adv-x="954" 
d="M519 496l-42 149l-42 -149l-159 -508h-85l-165 792h104l86 -460l26 -157l45 157l144 460h92l144 -460l45 -157l26 157l86 460h104l-165 -792h-85zM325 1030h112l94 -208h-95z" />
    <glyph glyph-name="Wacute" unicode="&#x1e82;" horiz-adv-x="954" 
d="M519 496l-42 149l-42 -149l-159 -508h-85l-165 792h104l86 -460l26 -157l45 157l144 460h92l144 -460l45 -157l26 157l86 460h104l-165 -792h-85zM524 1030h112l-111 -208h-95z" />
    <glyph glyph-name="Wcircumflex" unicode="&#x174;" horiz-adv-x="954" 
d="M519 496l-42 149l-42 -149l-159 -508h-85l-165 792h104l86 -460l26 -157l45 157l144 460h92l144 -460l45 -157l26 157l86 460h104l-165 -792h-85zM431 1030h92l152 -208h-97l-101 127l-101 -127h-97z" />
    <glyph glyph-name="Wdieresis" unicode="&#x1e84;" horiz-adv-x="954" 
d="M519 496l-42 149l-42 -149l-159 -508h-85l-165 792h104l86 -460l26 -157l45 157l144 460h92l144 -460l45 -157l26 157l86 460h104l-165 -792h-85zM633 980v-111h-112v111h112zM433 980v-111h-112v111h112z" />
    <glyph glyph-name="Ygrave" unicode="&#x1ef2;" horiz-adv-x="730" 
d="M276 551l89 -141l89 141l149 229h115l-303 -456v-324h-100v324l-303 456h115zM213 1030h112l94 -208h-95z" />
    <glyph glyph-name="Yacute" unicode="&#xdd;" horiz-adv-x="730" 
d="M276 551l89 -141l89 141l149 229h115l-303 -456v-324h-100v324l-303 456h115zM412 1030h112l-111 -208h-95z" />
    <glyph glyph-name="Ycircumflex" unicode="&#x176;" horiz-adv-x="730" 
d="M276 551l89 -141l89 141l149 229h115l-303 -456v-324h-100v324l-303 456h115zM319 1030h92l152 -208h-97l-101 127l-101 -127h-97z" />
    <glyph glyph-name="Ydieresis" unicode="&#x178;" horiz-adv-x="730" 
d="M276 551l89 -141l89 141l149 229h115l-303 -456v-324h-100v324l-303 456h115zM521 980v-111h-112v111h112zM321 980v-111h-112v111h112z" />
    <glyph glyph-name="Ytilde" unicode="&#x1ef8;" horiz-adv-x="730" 
d="M276 551l89 -141l89 141l149 229h115l-303 -456v-324h-100v324l-303 456h115zM280 926c-36 0 -48 -29 -52 -54l-76 11c11 75 48 125 133 125c88 0 114 -80 165 -80c36 0 48 29 52 54l76 -11c-11 -75 -48 -125 -133 -125c-88 0 -114 80 -165 80z" />
    <glyph glyph-name="Ymacron" unicode="&#x232;" horiz-adv-x="730" 
d="M276 551l89 -141l89 141l149 229h115l-303 -456v-324h-100v324l-303 456h115zM509 882h-288v90h288v-90z" />
    <glyph glyph-name="IJ" unicode="&#x132;" horiz-adv-x="645" 
d="M198 780v-780h-100v780h100zM472 200v580h101v-586c0 -106 -43 -206 -206 -206c-29 0 -57 6 -73 12l10 93c10 -5 34 -14 61 -13c67 1 107 25 107 120z" />
    <glyph glyph-name="IJ.alt" unicode="&#xe88a;" horiz-adv-x="814" 
d="M181 92v596h-136v92h372v-92h-136v-596h136v-92h-372v92h136zM641 200v580h101v-586c0 -106 -43 -206 -206 -206c-29 0 -57 6 -73 12l10 93c10 -5 34 -14 61 -13c67 1 107 25 107 120z" />
    <glyph glyph-name="Zacute" unicode="&#x179;" horiz-adv-x="688" 
d="M43 0v75l399 523l73 91l-232 -1h-221v92h583v-75l-399 -523l-73 -91l233 1h239v-92h-602zM386 1030h112l-111 -208h-95z" />
    <glyph glyph-name="Zcaron" unicode="&#x17d;" horiz-adv-x="688" 
d="M43 0v75l399 523l73 91l-232 -1h-221v92h583v-75l-399 -523l-73 -91l233 1h239v-92h-602zM385 822h-92l-152 208h97l101 -127l101 127h97z" />
    <glyph glyph-name="Zdotaccent" unicode="&#x17b;" horiz-adv-x="688" 
d="M43 0v75l399 523l73 91l-232 -1h-221v92h583v-75l-399 -523l-73 -91l233 1h239v-92h-602zM395 980v-111h-112v111h112z" />
    <glyph glyph-name="Eng" unicode="&#x14a;" horiz-adv-x="754" 
d="M573 -1v16l-309 456l-86 133l3 -235v-369h-101v780h91l319 -471l86 -133l-3 235v369h101v-787c0 -106 -34 -205 -196 -205c-28 0 -58 6 -74 12l10 90c9 -5 33 -14 60 -13c68 1 99 21 99 122z" />
    <glyph glyph-name="Eth" unicode="&#xd0;" horiz-adv-x="818" 
d="M401 0h-267v354h-115v91h115v335h267c236 0 359 -121 359 -390s-123 -390 -359 -390zM234 92h167c188 0 256 116 256 298s-68 298 -256 298h-167v-243h217v-91h-217v-262z" />
    <glyph glyph-name="Thorn" unicode="&#xde;" horiz-adv-x="660" 
d="M625 390c0 -187 -131 -234 -256 -234h-189v-156h-100v780h100v-156h189c125 0 256 -47 256 -234zM180 532v-284h199c60 0 141 16 141 142s-81 142 -141 142h-199z" />
    <glyph glyph-name="Ezh" unicode="&#x1b7;" horiz-adv-x="714" 
d="M341 -212c-201 0 -303 92 -320 222l103 11c14 -95 93 -142 217 -142c138 0 232 72 232 216c0 128 -68 218 -222 218c-30 0 -51 -10 -58 -15l-63 59l190 239l78 93l-197 -1h-234v92h562v-77l-245 -303c182 -13 291 -107 291 -305c0 -208 -149 -307 -334 -307z" />
    <glyph glyph-name="Ezhcaron" unicode="&#x1ee;" horiz-adv-x="714" 
d="M341 -212c-201 0 -303 92 -320 222l103 11c14 -95 93 -142 217 -142c138 0 232 72 232 216c0 128 -68 218 -222 218c-30 0 -51 -10 -58 -15l-63 59l190 239l78 93l-197 -1h-234v92h562v-77l-245 -303c182 -13 291 -107 291 -305c0 -208 -149 -307 -334 -307zM380 822h-92
l-152 208h97l101 -127l101 127h97z" />
    <glyph glyph-name="Schwa" unicode="&#x18f;" horiz-adv-x="798" 
d="M383 -12c-226 0 -330 146 -330 400v40h580c-9 195 -108 273 -251 273c-138 3 -196 -56 -218 -148l-104 13c24 120 117 225 323 225c216 0 355 -132 355 -401s-139 -402 -355 -402zM383 77c142 0 240 78 250 265h-472c3 -171 72 -268 222 -265z" />
    <glyph glyph-name="I.alt" unicode="&#xe131;" horiz-adv-x="462" 
d="M181 92v596h-136v92h372v-92h-136v-596h136v-92h-372v92h136z" />
    <glyph glyph-name="Igrave.alt" unicode="&#xe132;" horiz-adv-x="462" 
d="M181 92v596h-136v92h372v-92h-136v-596h136v-92h-372v92h136zM69 1030h112l94 -208h-95z" />
    <glyph glyph-name="Iacute.alt" unicode="&#xe133;" horiz-adv-x="462" 
d="M181 92v596h-136v92h236v-688h136v-92h-372v92h136zM278 1030h112l-111 -208h-95z" />
    <glyph glyph-name="Icircumflex.alt" unicode="&#xe134;" horiz-adv-x="462" 
d="M181 92v596h-136v92h372v-92h-136v-596h136v-92h-372v92h136zM185 1030h92l152 -208h-97l-101 127l-101 -127h-97z" />
    <glyph glyph-name="Idieresis.alt" unicode="&#xe135;" horiz-adv-x="462" 
d="M181 92v596h-136v92h236v-688h136v-92h-372v92h136zM187 980v-111h-112v111h112zM387 980v-111h-112v111h112z" />
    <glyph glyph-name="Itilde.alt" unicode="&#xe136;" horiz-adv-x="462" 
d="M181 92v596h-136v92h372v-92h-136v-596h136v-92h-372v92h136zM146 926c-36 0 -48 -29 -52 -54l-76 11c11 75 48 125 133 125c88 0 114 -80 165 -80c36 0 48 29 52 54l76 -11c-11 -75 -48 -125 -133 -125c-88 0 -114 80 -165 80z" />
    <glyph glyph-name="Icaron.alt" unicode="&#xe137;" horiz-adv-x="462" 
d="M181 92v596h-136v92h372v-92h-136v-596h136v-92h-372v92h136zM277 822h-92l-152 208h97l101 -127l101 127h97z" />
    <glyph glyph-name="Imacron.alt" unicode="&#xe138;" horiz-adv-x="462" 
d="M181 92v596h-136v92h372v-92h-136v-596h136v-92h-372v92h136zM375 882h-288v90h288v-90z" />
    <glyph glyph-name="Ibreve.alt" unicode="&#xe139;" horiz-adv-x="462" 
d="M181 92v596h-136v92h372v-92h-136v-596h136v-92h-372v92h136zM231 825c-142 0 -188 75 -187 205h78c-1 -89 32 -121 109 -121s110 32 109 121h78c1 -130 -45 -205 -187 -205z" />
    <glyph glyph-name="Iinvertedbreve.alt" unicode="&#xe13a;" horiz-adv-x="462" 
d="M181 92v596h-136v92h372v-92h-136v-596h136v-92h-372v92h136zM231 1027c142 0 188 -75 187 -205h-78c1 89 -32 121 -109 121s-110 -32 -109 -121h-78c-1 130 45 205 187 205z" />
    <glyph glyph-name="Idoublegrave.alt" unicode="&#xe13b;" horiz-adv-x="462" 
d="M181 92v596h-136v92h372v-92h-136v-596h136v-92h-372v92h136zM155 1030h112l94 -208h-95zM-5 1030h112l94 -208h-95z" />
    <glyph glyph-name="Idotaccent.alt" unicode="&#xe13c;" horiz-adv-x="462" 
d="M181 92v596h-136v92h372v-92h-136v-596h136v-92h-372v92h136zM287 980v-111h-112v111h112z" />
    <glyph glyph-name="Idotbelow.alt" unicode="&#xe13d;" horiz-adv-x="462" 
d="M181 92v596h-136v92h372v-92h-136v-596h136v-92h-372v92h136zM287 -62v-111h-112v111h112z" />
    <glyph glyph-name="Iogonek.alt" unicode="&#xe13e;" horiz-adv-x="462" 
d="M45 0v92h136v596h-136v92h372v-92h-136v-596h136v-92c-68 -8 -126 -53 -126 -99c0 -24 13 -40 46 -40c29 0 70 17 69 19l22 -67c-21 -13 -57 -25 -102 -25c-61 0 -117 28 -117 104c0 40 22 78 58 108h-222z" />
    <glyph glyph-name="a" unicode="a" horiz-adv-x="581" 
d="M289 459c-84 1 -113 -32 -124 -90l-99 14c15 92 68 159 221 159c144 0 230 -63 230 -194v-216l7 -132h-87l-12 76c-37 -57 -113 -88 -191 -88c-132 0 -190 62 -190 157c0 111 83 147 206 165l172 25v20c0 74 -47 102 -133 104zM144 148c0 -52 33 -76 96 -76
c97 -2 171 68 182 127v62l-163 -26c-69 -11 -115 -28 -115 -87z" />
    <glyph glyph-name="b" unicode="b" horiz-adv-x="611" 
d="M328 542c154 0 239 -100 239 -277s-85 -277 -239 -277c-73 0 -138 34 -171 88l-12 -76h-87l7 132v668h95v-341c34 51 97 83 168 83zM160 328v-126c8 -58 67 -125 159 -125c91 0 149 65 149 188c0 122 -58 188 -149 188c-92 0 -151 -68 -159 -125z" />
    <glyph glyph-name="c" unicode="c" horiz-adv-x="562" 
d="M138 265c0 -123 60 -190 154 -192c83 -1 119 34 131 91l99 -12c-15 -95 -73 -164 -230 -164c-156 0 -248 100 -248 277s92 277 248 277c157 0 215 -69 230 -164l-99 -12c-12 57 -48 92 -131 91c-94 -2 -154 -69 -154 -192z" />
    <glyph glyph-name="d" unicode="d" horiz-adv-x="611" 
d="M283 542c71 0 134 -32 168 -83v341h95v-668l7 -132h-87l-12 76c-33 -54 -98 -88 -171 -88c-154 0 -239 100 -239 277s85 277 239 277zM451 202v126c-8 57 -67 125 -159 125c-91 0 -149 -66 -149 -188c0 -123 58 -188 149 -188c92 0 151 67 159 125z" />
    <glyph glyph-name="e" unicode="e" horiz-adv-x="582" 
d="M534 226h-390c7 -108 66 -154 154 -154c86 -2 121 32 132 84l100 -12c-12 -84 -78 -156 -231 -156c-158 0 -255 93 -255 277s97 277 252 277c161 0 238 -100 238 -276v-40zM297 459c-86 0 -145 -47 -152 -152h286c-2 98 -46 153 -134 152z" />
    <glyph glyph-name="f" unicode="f" horiz-adv-x="408" 
d="M30 449v81h107v77c0 105 31 205 193 205c28 0 56 -6 72 -12l-9 -89c-11 5 -34 14 -61 13c-68 -1 -100 -23 -100 -123v-71h151v-81h-151v-449h-95v449h-107z" />
    <glyph glyph-name="g" unicode="g" horiz-adv-x="611" 
d="M546 398v-410c0 -133 -103 -200 -253 -200c-172 0 -230 65 -241 159l100 14c9 -56 44 -92 138 -90c92 1 161 32 161 113v111c-33 -50 -95 -83 -169 -83c-146 0 -238 89 -238 265s92 265 238 265c77 0 139 -35 172 -88l12 76h87zM451 226v102c-9 58 -66 125 -158 125
c-91 0 -149 -53 -149 -176c0 -122 58 -176 149 -176c92 0 149 67 158 125z" />
    <glyph glyph-name="h" unicode="h" horiz-adv-x="585" 
d="M158 800v-342c35 51 96 84 168 84c117 0 204 -63 204 -179v-363h-96v346c0 70 -49 107 -122 107c-87 0 -147 -70 -154 -125v-328h-95v800h95z" />
    <glyph glyph-name="i" unicode="i" horiz-adv-x="258" 
d="M81 0v530h96v-530h-96zM185 750v-111h-112v111h112z" />
    <glyph glyph-name="j" unicode="j" horiz-adv-x="258" 
d="M190 750v-111h-112v111h112zM86 -1v531h96v-537c0 -106 -31 -205 -193 -205c-28 0 -56 6 -72 12l10 89c9 -5 33 -14 60 -13c68 1 99 22 99 123z" />
    <glyph glyph-name="k" unicode="k" horiz-adv-x="561" 
d="M158 0h-95v800h95v-514l92 96l146 148h129l-229 -228l262 -302h-124l-205 240l-71 -68v-172z" />
    <glyph glyph-name="l" unicode="l" horiz-adv-x="258" 
d="M81 0v800h96v-800h-96z" />
    <glyph glyph-name="m" unicode="m" horiz-adv-x="879" 
d="M727 0v349c0 71 -35 104 -104 104c-72 0 -122 -67 -131 -124v-329h-96v349c0 71 -35 104 -104 104c-72 0 -123 -67 -132 -124v-329h-95v399l-7 131h87l12 -75c34 54 90 87 153 87c83 0 140 -36 163 -98c38 66 103 98 166 98c115 0 184 -65 184 -180v-362h-96z" />
    <glyph glyph-name="n" unicode="n" horiz-adv-x="587" 
d="M145 530l12 -75c35 52 98 87 171 87c117 0 204 -63 204 -179v-363h-96v346c0 70 -49 107 -122 107c-87 0 -147 -70 -154 -125v-328h-95v399l-7 131h87z" />
    <glyph glyph-name="o" unicode="o" horiz-adv-x="590" 
d="M295 74c92 0 154 56 154 191s-62 191 -154 191s-154 -56 -154 -191s62 -191 154 -191zM295 -12c-154 0 -250 92 -250 277s96 277 250 277s250 -92 250 -277s-96 -277 -250 -277z" />
    <glyph glyph-name="p" unicode="p" horiz-adv-x="611" 
d="M328 -12c-71 0 -134 32 -168 83v-271h-95v598l-7 132h87l12 -76c33 54 98 88 171 88c154 0 239 -100 239 -277s-85 -277 -239 -277zM160 328v-126c8 -57 67 -125 159 -125c91 0 149 66 149 188c0 123 -58 188 -149 188c-92 0 -151 -67 -159 -125z" />
    <glyph glyph-name="q" unicode="q" horiz-adv-x="611" 
d="M283 -12c-154 0 -239 100 -239 277s85 277 239 277c73 0 138 -34 171 -88l12 76h87l-7 -132v-598h-95v271c-34 -51 -97 -83 -168 -83zM451 202v126c-8 58 -67 125 -159 125c-91 0 -149 -65 -149 -188c0 -122 58 -188 149 -188c92 0 151 68 159 125z" />
    <glyph glyph-name="r" unicode="r" horiz-adv-x="414" 
d="M326 450c-91 0 -156 -65 -166 -125v-325h-95v399l-7 131h87l13 -81c30 54 93 93 165 93c27 0 54 -4 71 -11l-9 -93c-9 5 -31 12 -59 12z" />
    <glyph glyph-name="s" unicode="s" horiz-adv-x="540" 
d="M266 72c70 2 141 19 141 84s-51 65 -142 75s-213 21 -213 143c0 123 117 168 214 168c145 0 212 -59 226 -158l-100 -12c-11 56 -45 87 -126 86c-52 -1 -116 -13 -116 -77c0 -54 51 -59 131 -67c102 -10 225 -17 225 -153c0 -126 -124 -173 -239 -173
c-151 0 -219 66 -231 159l100 13c11 -56 46 -89 130 -88z" />
    <glyph glyph-name="t" unicode="t" horiz-adv-x="420" 
d="M23 449v81h96v142l95 16v-158h162v-81h-162v-250c0 -100 32 -122 100 -123c27 -1 50 8 61 13l9 -89c-16 -6 -44 -12 -72 -12c-162 0 -193 100 -193 205v256h-96z" />
    <glyph glyph-name="u" unicode="u" horiz-adv-x="587" 
d="M443 0l-12 75c-35 -52 -98 -87 -171 -87c-117 0 -204 63 -204 179v363h96v-346c0 -70 49 -107 122 -107c87 0 147 70 154 125v328h95v-399l7 -131h-87z" />
    <glyph glyph-name="v" unicode="v" horiz-adv-x="559" 
d="M233 -12l-219 542h105l110 -295l50 -142l50 142l110 295h105l-219 -542h-92z" />
    <glyph glyph-name="w" unicode="w" horiz-adv-x="813" 
d="M448 292l-42 123l-42 -123l-106 -304h-94l-131 542h97l61 -282l25 -128l43 128l98 282h98l98 -282l43 -128l25 128l61 282h97l-131 -542h-94z" />
    <glyph glyph-name="x" unicode="x" horiz-adv-x="558" 
d="M345 111l-66 91l-66 -91l-80 -111h-119l163 219l42 57l-41 55l-149 199h117l70 -99l63 -89l63 89l70 99h117l-149 -199l-41 -55l42 -57l163 -219h-119z" />
    <glyph glyph-name="y" unicode="y" horiz-adv-x="562" 
d="M550 530l-215 -495l-96 -235h-110l102 226l-219 504h108l109 -274l52 -131l51 131l110 274h108z" />
    <glyph glyph-name="z" unicode="z" horiz-adv-x="529" 
d="M302 367l74 79l-125 -1h-196v85h445v-70l-268 -298l-72 -78l125 1h224v-85h-473v71z" />
    <glyph glyph-name="agrave" unicode="&#xe0;" horiz-adv-x="581" 
d="M289 459c-84 1 -113 -32 -124 -90l-99 14c15 92 68 159 221 159c144 0 230 -63 230 -194v-216l7 -132h-87l-12 76c-37 -57 -113 -88 -191 -88c-132 0 -190 62 -190 157c0 111 83 147 206 165l172 25v20c0 74 -47 102 -133 104zM144 148c0 -52 33 -76 96 -76
c97 -2 171 68 182 127v62l-163 -26c-69 -11 -115 -28 -115 -87zM135 800h112l94 -208h-95z" />
    <glyph glyph-name="aacute" unicode="&#xe1;" horiz-adv-x="581" 
d="M289 459c-84 1 -113 -32 -124 -90l-99 14c15 92 68 159 221 159c144 0 230 -63 230 -194v-216l7 -132h-87l-12 76c-37 -57 -113 -88 -191 -88c-132 0 -190 62 -190 157c0 111 83 147 206 165l172 25v20c0 74 -47 102 -133 104zM144 148c0 -52 33 -76 96 -76
c97 -2 171 68 182 127v62l-163 -26c-69 -11 -115 -28 -115 -87zM334 800h112l-111 -208h-95z" />
    <glyph glyph-name="acircumflex" unicode="&#xe2;" horiz-adv-x="581" 
d="M289 459c-84 1 -113 -32 -124 -90l-99 14c15 92 68 159 221 159c144 0 230 -63 230 -194v-216l7 -132h-87l-12 76c-37 -57 -113 -88 -191 -88c-132 0 -190 62 -190 157c0 111 83 147 206 165l172 25v20c0 74 -47 102 -133 104zM144 148c0 -52 33 -76 96 -76
c97 -2 171 68 182 127v62l-163 -26c-69 -11 -115 -28 -115 -87zM241 800h92l152 -208h-97l-101 127l-101 -127h-97z" />
    <glyph glyph-name="adieresis" unicode="&#xe4;" horiz-adv-x="581" 
d="M289 459c-84 1 -113 -32 -124 -90l-99 14c15 92 68 159 221 159c144 0 230 -63 230 -194v-216l7 -132h-87l-12 76c-37 -57 -113 -88 -191 -88c-132 0 -190 62 -190 157c0 111 83 147 206 165l172 25v20c0 74 -47 102 -133 104zM144 148c0 -52 33 -76 96 -76
c97 -2 171 68 182 127v62l-163 -26c-69 -11 -115 -28 -115 -87zM243 750v-111h-112v111h112zM443 750v-111h-112v111h112z" />
    <glyph glyph-name="atilde" unicode="&#xe3;" horiz-adv-x="581" 
d="M289 459c-84 1 -113 -32 -124 -90l-99 14c15 92 68 159 221 159c144 0 230 -63 230 -194v-216l7 -132h-87l-12 76c-37 -57 -113 -88 -191 -88c-132 0 -190 62 -190 157c0 111 83 147 206 165l172 25v20c0 74 -47 102 -133 104zM144 148c0 -52 33 -76 96 -76
c97 -2 171 68 182 127v62l-163 -26c-69 -11 -115 -28 -115 -87zM196 696c-36 0 -48 -29 -52 -54l-76 11c11 75 48 125 133 125c88 0 114 -80 165 -80c36 0 48 29 52 54l76 -11c-11 -75 -48 -125 -133 -125c-88 0 -114 80 -165 80z" />
    <glyph glyph-name="aring" unicode="&#xe5;" horiz-adv-x="581" 
d="M289 459c-84 1 -113 -32 -124 -90l-99 14c15 92 68 159 221 159c144 0 230 -63 230 -194v-216l7 -132h-87l-12 76c-37 -57 -113 -88 -191 -88c-132 0 -190 62 -190 157c0 111 83 147 206 165l172 25v20c0 74 -47 102 -133 104zM144 148c0 -52 33 -76 96 -76
c97 -2 171 68 182 127v62l-163 -26c-69 -11 -115 -28 -115 -87zM171 696c0 67 43 116 116 116s116 -49 116 -116s-43 -116 -116 -116s-116 49 -116 116zM334 696c0 29 -18 48 -47 48s-47 -19 -47 -48s18 -48 47 -48s47 19 47 48z" />
    <glyph glyph-name="acaron" unicode="&#x1ce;" horiz-adv-x="581" 
d="M289 459c-84 1 -113 -32 -124 -90l-99 14c15 92 68 159 221 159c144 0 230 -63 230 -194v-216l7 -132h-87l-12 76c-37 -57 -113 -88 -191 -88c-132 0 -190 62 -190 157c0 111 83 147 206 165l172 25v20c0 74 -47 102 -133 104zM144 148c0 -52 33 -76 96 -76
c97 -2 171 68 182 127v62l-163 -26c-69 -11 -115 -28 -115 -87zM333 592h-92l-152 208h97l101 -127l101 127h97z" />
    <glyph glyph-name="amacron" unicode="&#x101;" horiz-adv-x="581" 
d="M289 459c-84 1 -113 -32 -124 -90l-99 14c15 92 68 159 221 159c144 0 230 -63 230 -194v-216l7 -132h-87l-12 76c-37 -57 -113 -88 -191 -88c-132 0 -190 62 -190 157c0 111 83 147 206 165l172 25v20c0 74 -47 102 -133 104zM144 148c0 -52 33 -76 96 -76
c97 -2 171 68 182 127v62l-163 -26c-69 -11 -115 -28 -115 -87zM431 652h-288v90h288v-90z" />
    <glyph glyph-name="abreve" unicode="&#x103;" horiz-adv-x="581" 
d="M289 459c-84 1 -113 -32 -124 -90l-99 14c15 92 68 159 221 159c144 0 230 -63 230 -194v-216l7 -132h-87l-12 76c-37 -57 -113 -88 -191 -88c-132 0 -190 62 -190 157c0 111 83 147 206 165l172 25v20c0 74 -47 102 -133 104zM144 148c0 -52 33 -76 96 -76
c97 -2 171 68 182 127v62l-163 -26c-69 -11 -115 -28 -115 -87zM287 595c-142 0 -188 75 -187 205h78c-1 -89 32 -121 109 -121s110 32 109 121h78c1 -130 -45 -205 -187 -205z" />
    <glyph glyph-name="ainvertedbreve" unicode="&#x203;" horiz-adv-x="581" 
d="M289 459c-84 1 -113 -32 -124 -90l-99 14c15 92 68 159 221 159c144 0 230 -63 230 -194v-216l7 -132h-87l-12 76c-37 -57 -113 -88 -191 -88c-132 0 -190 62 -190 157c0 111 83 147 206 165l172 25v20c0 74 -47 102 -133 104zM144 148c0 -52 33 -76 96 -76
c97 -2 171 68 182 127v62l-163 -26c-69 -11 -115 -28 -115 -87zM287 797c142 0 188 -75 187 -205h-78c1 89 -32 121 -109 121s-110 -32 -109 -121h-78c-1 130 45 205 187 205z" />
    <glyph glyph-name="adoublegrave" unicode="&#xe722;" horiz-adv-x="581" 
d="M289 459c-84 1 -113 -32 -124 -90l-99 14c15 92 68 159 221 159c144 0 230 -63 230 -194v-216l7 -132h-87l-12 76c-37 -57 -113 -88 -191 -88c-132 0 -190 62 -190 157c0 111 83 147 206 165l172 25v20c0 74 -47 102 -133 104zM144 148c0 -52 33 -76 96 -76
c97 -2 171 68 182 127v62l-163 -26c-69 -11 -115 -28 -115 -87zM204 800h112l94 -208h-95zM44 800h112l94 -208h-95z" />
    <glyph glyph-name="adotabove" unicode="&#x227;" horiz-adv-x="581" 
d="M289 459c-84 1 -113 -32 -124 -90l-99 14c15 92 68 159 221 159c144 0 230 -63 230 -194v-216l7 -132h-87l-12 76c-37 -57 -113 -88 -191 -88c-132 0 -190 62 -190 157c0 111 83 147 206 165l172 25v20c0 74 -47 102 -133 104zM144 148c0 -52 33 -76 96 -76
c97 -2 171 68 182 127v62l-163 -26c-69 -11 -115 -28 -115 -87zM341 750v-111h-112v111h112z" />
    <glyph glyph-name="aringacute" unicode="&#x1fb;" horiz-adv-x="581" 
d="M353 904l-58 -93c68 -3 108 -51 108 -115c0 -67 -43 -116 -116 -116c-74 0 -116 49 -116 116c0 22 6 42 15 60l72 148h95zM287 744c-30 0 -47 -19 -47 -48s17 -48 47 -48c29 0 47 19 47 48s-18 48 -47 48zM289 459c-84 1 -113 -32 -124 -90l-99 14c15 92 68 159 221 159
c144 0 230 -63 230 -194v-216l7 -132h-87l-12 76c-37 -57 -113 -88 -191 -88c-132 0 -190 62 -190 157c0 111 83 147 206 165l172 25v20c0 74 -47 102 -133 104zM144 148c0 -52 33 -76 96 -76c97 -2 171 68 182 127v62l-163 -26c-69 -11 -115 -28 -115 -87z" />
    <glyph glyph-name="adieresismacron" unicode="&#x1df;" horiz-adv-x="581" 
d="M289 459c-84 1 -113 -32 -124 -90l-99 14c15 92 68 159 221 159c144 0 230 -63 230 -194v-216l7 -132h-87l-12 76c-37 -57 -113 -88 -191 -88c-132 0 -190 62 -190 157c0 111 83 147 206 165l172 25v20c0 74 -47 102 -133 104zM144 148c0 -52 33 -76 96 -76
c97 -2 171 68 182 127v62l-163 -26c-69 -11 -115 -28 -115 -87zM243 710v-111h-112v111h112zM443 710v-111h-112v111h112zM143 752v90h288v-90h-288z" />
    <glyph glyph-name="aogonek" unicode="&#x105;" horiz-adv-x="581" 
d="M144 148c0 -52 33 -76 96 -76c97 0 172 71 182 127v62l-163 -26c-69 -11 -115 -28 -115 -87zM433 23l-10 64c-34 -64 -111 -99 -189 -99c-132 0 -190 62 -190 157c0 111 83 147 206 165l172 25v20c0 74 -47 102 -133 104c-84 1 -113 -32 -124 -90l-99 14
c15 92 68 159 221 159c144 0 230 -63 230 -194v-216l7 -132c-68 -21 -96 -61 -96 -96c0 -28 18 -43 46 -43c29 0 50 8 69 17l22 -65c-21 -13 -57 -25 -102 -25c-61 0 -117 28 -117 104c0 48 31 96 87 131z" />
    <glyph glyph-name="ae" unicode="&#xe6;" horiz-adv-x="960" 
d="M147 148c0 -52 33 -76 96 -76c103 -2 173 71 179 129v25h-155c-70 0 -120 -18 -120 -78zM677 -12c-95 0 -168 36 -209 107c-59 -84 -143 -107 -232 -107c-133 0 -192 61 -192 157c0 113 94 162 221 162h157v45c0 78 -46 105 -133 107c-83 1 -113 -32 -124 -90l-99 14
c15 92 68 159 221 159c94 0 160 -29 193 -85c43 56 110 85 194 85c161 0 238 -100 238 -276v-40h-390c7 -108 66 -154 154 -154c86 -2 121 32 132 84l100 -12c-12 -84 -78 -156 -231 -156zM675 459c-86 0 -145 -47 -152 -152h286c-2 98 -46 153 -134 152z" />
    <glyph glyph-name="aeacute" unicode="&#x1fd;" horiz-adv-x="960" 
d="M677 -12c-95 0 -168 36 -209 107c-59 -84 -143 -107 -232 -107c-133 0 -192 61 -192 157c0 113 94 162 221 162h157v45c0 78 -46 105 -133 107c-83 1 -113 -32 -124 -90l-99 14c15 92 68 159 221 159c94 0 160 -29 193 -85c43 56 110 85 194 85c161 0 238 -100 238 -276
v-40h-390c7 -108 66 -154 154 -154c86 -2 121 32 132 84l100 -12c-12 -84 -78 -156 -231 -156zM675 459c-86 0 -145 -47 -152 -152h286c-2 98 -46 153 -134 152zM147 148c0 -52 33 -76 96 -76c103 -2 173 71 179 129v25h-155c-70 0 -120 -18 -120 -78zM525 800h112
l-111 -208h-95z" />
    <glyph glyph-name="aemacron" unicode="&#x1e3;" horiz-adv-x="960" 
d="M677 -12c-95 0 -168 36 -209 107c-59 -84 -143 -107 -232 -107c-133 0 -192 61 -192 157c0 113 94 162 221 162h157v45c0 78 -46 105 -133 107c-83 1 -113 -32 -124 -90l-99 14c15 92 68 159 221 159c94 0 160 -29 193 -85c43 56 110 85 194 85c161 0 238 -100 238 -276
v-40h-390c7 -108 66 -154 154 -154c86 -2 121 32 132 84l100 -12c-12 -84 -78 -156 -231 -156zM675 459c-86 0 -145 -47 -152 -152h286c-2 98 -46 153 -134 152zM147 148c0 -52 33 -76 96 -76c103 -2 173 71 179 129v25h-155c-70 0 -120 -18 -120 -78zM621 652h-288v90h288
v-90z" />
    <glyph glyph-name="cacute" unicode="&#x107;" horiz-adv-x="562" 
d="M339 800h112l-111 -208h-95zM138 265c0 -123 60 -190 154 -192c83 -1 119 34 131 91l99 -12c-15 -95 -73 -164 -230 -164c-156 0 -248 100 -248 277s92 277 248 277c157 0 215 -69 230 -164l-99 -12c-12 57 -48 92 -131 91c-94 -2 -154 -69 -154 -192z" />
    <glyph glyph-name="ccircumflex" unicode="&#x109;" horiz-adv-x="562" 
d="M246 800h92l152 -208h-97l-101 127l-101 -127h-97zM138 265c0 -123 60 -190 154 -192c83 -1 119 34 131 91l99 -12c-15 -95 -73 -164 -230 -164c-156 0 -248 100 -248 277s92 277 248 277c157 0 215 -69 230 -164l-99 -12c-12 57 -48 92 -131 91
c-94 -2 -154 -69 -154 -192z" />
    <glyph glyph-name="ccaron" unicode="&#x10d;" horiz-adv-x="562" 
d="M338 592h-92l-152 208h97l101 -127l101 127h97zM138 265c0 -123 60 -190 154 -192c83 -1 119 34 131 91l99 -12c-15 -95 -73 -164 -230 -164c-156 0 -248 100 -248 277s92 277 248 277c157 0 215 -69 230 -164l-99 -12c-12 57 -48 92 -131 91c-94 -2 -154 -69 -154 -192z
" />
    <glyph glyph-name="cdotaccent" unicode="&#x10b;" horiz-adv-x="562" 
d="M348 750v-111h-112v111h112zM138 265c0 -123 60 -190 154 -192c83 -1 119 34 131 91l99 -12c-15 -95 -73 -164 -230 -164c-156 0 -248 100 -248 277s92 277 248 277c157 0 215 -69 230 -164l-99 -12c-12 57 -48 92 -131 91c-94 -2 -154 -69 -154 -192z" />
    <glyph glyph-name="ccedilla" unicode="&#xe7;" horiz-adv-x="562" 
d="M138 265c0 -123 60 -190 154 -192c83 -1 119 34 131 91l99 -12c-14 -88 -65 -154 -197 -163l-7 -24c46 -11 89 -37 89 -91c0 -60 -55 -86 -122 -86c-42 0 -78 11 -92 18l17 53s26 -14 55 -14c22 0 56 5 56 30c0 31 -39 44 -87 49l22 66c-134 14 -212 112 -212 275
c0 177 92 277 248 277c157 0 215 -69 230 -164l-99 -12c-12 57 -48 92 -131 91c-94 -2 -154 -69 -154 -192z" />
    <glyph glyph-name="dcaron" unicode="&#x10f;" horiz-adv-x="611" 
d="M283 542c71 0 134 -32 168 -83v341h95v-668l7 -132h-87l-12 76c-33 -54 -98 -88 -171 -88c-154 0 -239 100 -239 277s85 277 239 277zM451 202v126c-8 57 -67 125 -159 125c-91 0 -149 -66 -149 -188c0 -123 58 -188 149 -188c92 0 151 67 159 125zM637 800h108l-69 -208
h-86z" />
    <glyph glyph-name="dcedilla" unicode="&#x1e11;" horiz-adv-x="611" 
d="M283 542c71 0 134 -32 168 -83v341h95v-668l7 -132h-87l-12 76c-33 -54 -98 -88 -171 -88c-154 0 -239 100 -239 277s85 277 239 277zM451 202v126c-8 57 -67 125 -159 125c-91 0 -149 -66 -149 -188c0 -123 58 -188 149 -188c92 0 151 67 159 125zM244 -76l18 52
c115 -10 155 -48 155 -102c0 -60 -55 -86 -122 -86c-42 0 -78 11 -92 18l17 53s26 -14 55 -14c22 0 56 5 56 30c0 31 -39 44 -87 49z" />
    <glyph glyph-name="ddotbelow" unicode="&#x1e0d;" horiz-adv-x="611" 
d="M283 542c71 0 134 -32 168 -83v341h95v-668l7 -132h-87l-12 76c-33 -54 -98 -88 -171 -88c-154 0 -239 100 -239 277s85 277 239 277zM451 202v126c-8 57 -67 125 -159 125c-91 0 -149 -66 -149 -188c0 -123 58 -188 149 -188c92 0 151 67 159 125zM357 -62v-111h-112
v111h112z" />
    <glyph glyph-name="dcroat" unicode="&#x111;" horiz-adv-x="631" 
d="M283 542c71 0 134 -32 168 -83v160h-136v78h136v103h95v-103h103v-78h-103v-487l7 -132h-87l-12 76c-33 -54 -98 -88 -171 -88c-154 0 -239 100 -239 277s85 277 239 277zM451 202v126c-8 57 -67 125 -159 125c-91 0 -149 -66 -149 -188c0 -123 58 -188 149 -188
c92 0 151 67 159 125z" />
    <glyph glyph-name="egrave" unicode="&#xe8;" horiz-adv-x="582" 
d="M534 226h-390c7 -108 66 -154 154 -154c86 -2 121 32 132 84l100 -12c-12 -84 -78 -156 -231 -156c-158 0 -255 93 -255 277s97 277 252 277c161 0 238 -100 238 -276v-40zM297 459c-86 0 -145 -47 -152 -152h286c-2 98 -46 153 -134 152zM144 800h112l94 -208h-95z" />
    <glyph glyph-name="eacute" unicode="&#xe9;" horiz-adv-x="582" 
d="M534 226h-390c7 -108 66 -154 154 -154c86 -2 121 32 132 84l100 -12c-12 -84 -78 -156 -231 -156c-158 0 -255 93 -255 277s97 277 252 277c161 0 238 -100 238 -276v-40zM297 459c-86 0 -145 -47 -152 -152h286c-2 98 -46 153 -134 152zM343 800h112l-111 -208h-95z
" />
    <glyph glyph-name="ecircumflex" unicode="&#xea;" horiz-adv-x="582" 
d="M534 226h-390c7 -108 66 -154 154 -154c86 -2 121 32 132 84l100 -12c-12 -84 -78 -156 -231 -156c-158 0 -255 93 -255 277s97 277 252 277c161 0 238 -100 238 -276v-40zM297 459c-86 0 -145 -47 -152 -152h286c-2 98 -46 153 -134 152zM250 800h92l152 -208h-97
l-101 127l-101 -127h-97z" />
    <glyph glyph-name="edieresis" unicode="&#xeb;" horiz-adv-x="582" 
d="M534 226h-390c7 -108 66 -154 154 -154c86 -2 121 32 132 84l100 -12c-12 -84 -78 -156 -231 -156c-158 0 -255 93 -255 277s97 277 252 277c161 0 238 -100 238 -276v-40zM297 459c-86 0 -145 -47 -152 -152h286c-2 98 -46 153 -134 152zM252 750v-111h-112v111h112z
M452 750v-111h-112v111h112z" />
    <glyph glyph-name="ecaron" unicode="&#x11b;" horiz-adv-x="582" 
d="M534 226h-390c7 -108 66 -154 154 -154c86 -2 121 32 132 84l100 -12c-12 -84 -78 -156 -231 -156c-158 0 -255 93 -255 277s97 277 252 277c161 0 238 -100 238 -276v-40zM297 459c-86 0 -145 -47 -152 -152h286c-2 98 -46 153 -134 152zM342 592h-92l-152 208h97
l101 -127l101 127h97z" />
    <glyph glyph-name="emacron" unicode="&#x113;" horiz-adv-x="582" 
d="M534 226h-390c7 -108 66 -154 154 -154c86 -2 121 32 132 84l100 -12c-12 -84 -78 -156 -231 -156c-158 0 -255 93 -255 277s97 277 252 277c161 0 238 -100 238 -276v-40zM297 459c-86 0 -145 -47 -152 -152h286c-2 98 -46 153 -134 152zM440 652h-288v90h288v-90z" />
    <glyph glyph-name="ebreve" unicode="&#x115;" horiz-adv-x="582" 
d="M534 226h-390c7 -108 66 -154 154 -154c86 -2 121 32 132 84l100 -12c-12 -84 -78 -156 -231 -156c-158 0 -255 93 -255 277s97 277 252 277c161 0 238 -100 238 -276v-40zM297 459c-86 0 -145 -47 -152 -152h286c-2 98 -46 153 -134 152zM296 595
c-142 0 -188 75 -187 205h78c-1 -89 32 -121 109 -121s110 32 109 121h78c1 -130 -45 -205 -187 -205z" />
    <glyph glyph-name="einvertedbreve" unicode="&#x207;" horiz-adv-x="582" 
d="M534 226h-390c7 -108 66 -154 154 -154c86 -2 121 32 132 84l100 -12c-12 -84 -78 -156 -231 -156c-158 0 -255 93 -255 277s97 277 252 277c161 0 238 -100 238 -276v-40zM297 459c-86 0 -145 -47 -152 -152h286c-2 98 -46 153 -134 152zM296 797
c142 0 188 -75 187 -205h-78c1 89 -32 121 -109 121s-110 -32 -109 -121h-78c-1 130 45 205 187 205z" />
    <glyph glyph-name="edoublegrave" unicode="&#x201;" horiz-adv-x="582" 
d="M534 226h-390c7 -108 66 -154 154 -154c86 -2 121 32 132 84l100 -12c-12 -84 -78 -156 -231 -156c-158 0 -255 93 -255 277s97 277 252 277c161 0 238 -100 238 -276v-40zM297 459c-86 0 -145 -47 -152 -152h286c-2 98 -46 153 -134 152zM219 800h112l94 -208h-95z
M59 800h112l94 -208h-95z" />
    <glyph glyph-name="edoublegrave" unicode="&#x205;" horiz-adv-x="582" 
d="M534 226h-390c7 -108 66 -154 154 -154c86 -2 121 32 132 84l100 -12c-12 -84 -78 -156 -231 -156c-158 0 -255 93 -255 277s97 277 252 277c161 0 238 -100 238 -276v-40zM297 459c-86 0 -145 -47 -152 -152h286c-2 98 -46 153 -134 152zM219 800h112l94 -208h-95z
M59 800h112l94 -208h-95z" />
    <glyph glyph-name="edotaccent" unicode="&#x117;" horiz-adv-x="582" 
d="M534 226h-390c7 -108 66 -154 154 -154c86 -2 121 32 132 84l100 -12c-12 -84 -78 -156 -231 -156c-158 0 -255 93 -255 277s97 277 252 277c161 0 238 -100 238 -276v-40zM297 459c-86 0 -145 -47 -152 -152h286c-2 98 -46 153 -134 152zM352 750v-111h-112v111h112z
" />
    <glyph glyph-name="uni006500600323" unicode="&#xe102;" horiz-adv-x="582" 
d="M534 226h-390c7 -108 66 -154 154 -154c86 -2 121 32 132 84l100 -12c-12 -84 -78 -156 -231 -156c-158 0 -255 93 -255 277s97 277 252 277c161 0 238 -100 238 -276v-40zM297 459c-86 0 -145 -47 -152 -152h286c-2 98 -46 153 -134 152zM139 800h112l94 -208h-95z
M347 -62v-111h-112v111h112z" />
    <glyph glyph-name="uni006500B40323" unicode="&#xe104;" horiz-adv-x="582" 
d="M534 226h-390c7 -108 66 -154 154 -154c86 -2 121 32 132 84l100 -12c-12 -84 -78 -156 -231 -156c-158 0 -255 93 -255 277s97 277 252 277c161 0 238 -100 238 -276v-40zM297 459c-86 0 -145 -47 -152 -152h286c-2 98 -46 153 -134 152zM338 800h112l-111 -208h-95z
M347 -62v-111h-112v111h112z" />
    <glyph glyph-name="eogonek" unicode="&#x119;" horiz-adv-x="582" 
d="M534 226h-390c7 -108 66 -154 154 -154c86 -2 121 32 132 84l100 -12c-9 -63 -49 -120 -133 -144c-57 -16 -94 -64 -94 -99c0 -24 13 -40 46 -40c29 0 70 17 69 19l22 -67c-21 -13 -57 -25 -102 -25c-61 0 -117 28 -117 104c0 36 17 69 46 97c-139 12 -223 104 -223 276
c0 184 97 277 252 277c161 0 238 -100 238 -276v-40zM297 459c-86 0 -145 -47 -152 -152h286c-2 98 -46 153 -134 152z" />
    <glyph glyph-name="gacute" unicode="&#x1f5;" horiz-adv-x="611" 
d="M546 398v-410c0 -133 -103 -200 -253 -200c-172 0 -230 65 -241 159l100 14c9 -56 44 -92 138 -90c92 1 161 32 161 113v111c-33 -50 -95 -83 -169 -83c-146 0 -238 89 -238 265s92 265 238 265c77 0 139 -35 172 -88l12 76h87zM451 226v102c-9 58 -66 125 -158 125
c-91 0 -149 -53 -149 -176c0 -122 58 -176 149 -176c92 0 149 67 158 125zM339 800h112l-111 -208h-95z" />
    <glyph glyph-name="gcircumflex" unicode="&#x11d;" horiz-adv-x="611" 
d="M546 398v-410c0 -133 -103 -200 -253 -200c-172 0 -230 65 -241 159l100 14c9 -56 44 -92 138 -90c92 1 161 32 161 113v111c-33 -50 -95 -83 -169 -83c-146 0 -238 89 -238 265s92 265 238 265c77 0 139 -35 172 -88l12 76h87zM451 226v102c-9 58 -66 125 -158 125
c-91 0 -149 -53 -149 -176c0 -122 58 -176 149 -176c92 0 149 67 158 125zM246 800h92l152 -208h-97l-101 127l-101 -127h-97z" />
    <glyph glyph-name="gtilde" unicode="&#xe106;" horiz-adv-x="611" 
d="M546 398v-410c0 -133 -103 -200 -253 -200c-172 0 -230 65 -241 159l100 14c9 -56 44 -92 138 -90c92 1 161 32 161 113v111c-33 -50 -95 -83 -169 -83c-146 0 -238 89 -238 265s92 265 238 265c77 0 139 -35 172 -88l12 76h87zM451 226v102c-9 58 -66 125 -158 125
c-91 0 -149 -53 -149 -176c0 -122 58 -176 149 -176c92 0 149 67 158 125zM212 696c-36 0 -48 -29 -52 -54l-76 11c11 75 48 125 133 125c88 0 114 -80 165 -80c36 0 48 29 52 54l76 -11c-11 -75 -48 -125 -133 -125c-88 0 -114 80 -165 80z" />
    <glyph glyph-name="gcaron" unicode="&#x1e7;" horiz-adv-x="611" 
d="M546 398v-410c0 -133 -103 -200 -253 -200c-172 0 -230 65 -241 159l100 14c9 -56 44 -92 138 -90c92 1 161 32 161 113v111c-33 -50 -95 -83 -169 -83c-146 0 -238 89 -238 265s92 265 238 265c77 0 139 -35 172 -88l12 76h87zM451 226v102c-9 58 -66 125 -158 125
c-91 0 -149 -53 -149 -176c0 -122 58 -176 149 -176c92 0 149 67 158 125zM338 592h-92l-152 208h97l101 -127l101 127h97z" />
    <glyph glyph-name="gbreve" unicode="&#x11f;" horiz-adv-x="611" 
d="M546 398v-410c0 -133 -103 -200 -253 -200c-172 0 -230 65 -241 159l100 14c9 -56 44 -92 138 -90c92 1 161 32 161 113v111c-33 -50 -95 -83 -169 -83c-146 0 -238 89 -238 265s92 265 238 265c77 0 139 -35 172 -88l12 76h87zM451 226v102c-9 58 -66 125 -158 125
c-91 0 -149 -53 -149 -176c0 -122 58 -176 149 -176c92 0 149 67 158 125zM292 595c-142 0 -188 75 -187 205h78c-1 -89 32 -121 109 -121s110 32 109 121h78c1 -130 -45 -205 -187 -205z" />
    <glyph glyph-name="gdotaccent" unicode="&#x121;" horiz-adv-x="611" 
d="M546 398v-410c0 -133 -103 -200 -253 -200c-172 0 -230 65 -241 159l100 14c9 -56 44 -92 138 -90c92 1 161 32 161 113v111c-33 -50 -95 -83 -169 -83c-146 0 -238 89 -238 265s92 265 238 265c77 0 139 -35 172 -88l12 76h87zM451 226v102c-9 58 -66 125 -158 125
c-91 0 -149 -53 -149 -176c0 -122 58 -176 149 -176c92 0 149 67 158 125zM348 750v-111h-112v111h112z" />
    <glyph glyph-name="gcommaaccent" unicode="&#x123;" horiz-adv-x="611" 
d="M339 592h-108l69 208h86zM546 398v-410c0 -133 -103 -200 -253 -200c-172 0 -230 65 -241 159l100 14c9 -56 44 -92 138 -90c92 1 161 32 161 113v111c-33 -50 -95 -83 -169 -83c-146 0 -238 89 -238 265s92 265 238 265c77 0 139 -35 172 -88l12 76h87zM451 226v102
c-9 58 -66 125 -158 125c-91 0 -149 -53 -149 -176c0 -122 58 -176 149 -176c92 0 149 67 158 125z" />
    <glyph glyph-name="gcommaturnedabove" unicode="&#xe108;" horiz-adv-x="611" 
d="M339 592h-108l69 208h86zM546 398v-410c0 -133 -103 -200 -253 -200c-172 0 -230 65 -241 159l100 14c9 -56 44 -92 138 -90c92 1 161 32 161 113v111c-33 -50 -95 -83 -169 -83c-146 0 -238 89 -238 265s92 265 238 265c77 0 139 -35 172 -88l12 76h87zM451 226v102
c-9 58 -66 125 -158 125c-91 0 -149 -53 -149 -176c0 -122 58 -176 149 -176c92 0 149 67 158 125z" />
    <glyph glyph-name="gstroke" unicode="&#x1e5;" horiz-adv-x="611" 
d="M282 -90v78h169v107c-33 -50 -95 -83 -169 -83c-146 0 -238 89 -238 265s92 265 238 265c77 0 139 -35 172 -88l12 76h87l-7 -132v-410h62v-78h-77c-33 -81 -121 -122 -238 -122c-172 0 -230 65 -241 159l100 14c9 -56 44 -92 138 -90c55 1 103 12 131 39h-139zM451 226
v102c-9 58 -66 125 -158 125c-91 0 -149 -53 -149 -176c0 -122 58 -176 149 -176c92 0 149 67 158 125z" />
    <glyph glyph-name="hcircumflex" unicode="&#x125;" horiz-adv-x="585" 
d="M158 800v-342c35 51 96 84 168 84c117 0 204 -63 204 -179v-363h-96v346c0 70 -49 107 -122 107c-87 0 -147 -70 -154 -125v-328h-95v800h95zM66 1030h92l152 -208h-97l-101 127l-101 -127h-97z" />
    <glyph glyph-name="hcaron" unicode="&#x21f;" horiz-adv-x="585" 
d="M158 800v-342c35 51 96 84 168 84c117 0 204 -63 204 -179v-363h-96v346c0 70 -49 107 -122 107c-87 0 -147 -70 -154 -125v-328h-95v800h95zM158 822h-92l-152 208h97l101 -127l101 127h97z" />
    <glyph glyph-name="hdotbelow" unicode="&#x1e25;" horiz-adv-x="585" 
d="M158 800v-342c35 51 96 84 168 84c117 0 204 -63 204 -179v-363h-96v346c0 70 -49 107 -122 107c-87 0 -147 -70 -154 -125v-328h-95v800h95zM354 -62v-111h-112v111h112z" />
    <glyph glyph-name="hmacronbelow" unicode="&#xe10a;" horiz-adv-x="585" 
d="M158 800v-342c35 51 96 84 168 84c117 0 204 -63 204 -179v-363h-96v346c0 70 -49 107 -122 107c-87 0 -147 -70 -154 -125v-328h-95v800h95zM152 -75h288v-90h-288v90z" />
    <glyph glyph-name="hbar" unicode="&#x127;" horiz-adv-x="605" 
d="M178 800v-103h137v-78h-137v-161c35 51 96 84 168 84c117 0 204 -63 204 -179v-363h-96v346c0 70 -49 107 -122 107c-87 0 -147 -70 -154 -125v-328h-95v619h-103v78h103v103h95z" />
    <glyph glyph-name="dotlessi" unicode="&#x131;" horiz-adv-x="258" 
d="M81 0v530h96v-530h-96z" />
    <glyph glyph-name="igrave" unicode="&#xec;" horiz-adv-x="258" 
d="M81 0v530h96v-530h-96zM-23 800h112l94 -208h-95z" />
    <glyph glyph-name="iacute" unicode="&#xed;" horiz-adv-x="258" 
d="M81 0v530h96v-530h-96zM176 800h112l-111 -208h-95z" />
    <glyph glyph-name="icircumflex" unicode="&#xee;" horiz-adv-x="258" 
d="M81 0v530h96v-530h-96zM83 800h92l152 -208h-97l-101 127l-101 -127h-97z" />
    <glyph glyph-name="idieresis" unicode="&#xef;" horiz-adv-x="258" 
d="M81 0v530h96v-530h-96zM85 750v-111h-112v111h112zM285 750v-111h-112v111h112z" />
    <glyph glyph-name="itilde" unicode="&#x129;" horiz-adv-x="258" 
d="M81 0v530h96v-530h-96zM49 696c-36 0 -48 -29 -52 -54l-76 11c11 75 48 125 133 125c88 0 114 -80 165 -80c36 0 48 29 52 54l76 -11c-11 -75 -48 -125 -133 -125c-88 0 -114 80 -165 80z" />
    <glyph glyph-name="icaron" unicode="&#x1d0;" horiz-adv-x="258" 
d="M81 0v530h96v-530h-96zM175 592h-92l-152 208h97l101 -127l101 127h97z" />
    <glyph glyph-name="imacron" unicode="&#x12b;" horiz-adv-x="258" 
d="M81 0v530h96v-530h-96zM273 652h-288v90h288v-90z" />
    <glyph glyph-name="ibreve" unicode="&#x12d;" horiz-adv-x="258" 
d="M81 0v530h96v-530h-96zM129 595c-142 0 -188 75 -187 205h78c-1 -89 32 -121 109 -121s110 32 109 121h78c1 -130 -45 -205 -187 -205z" />
    <glyph glyph-name="iinvertedbreve" unicode="&#x20b;" horiz-adv-x="258" 
d="M81 0v530h96v-530h-96zM129 797c142 0 188 -75 187 -205h-78c1 89 -32 121 -109 121s-110 -32 -109 -121h-78c-1 130 45 205 187 205z" />
    <glyph glyph-name="idoublegrave" unicode="&#x209;" horiz-adv-x="258" 
d="M81 0v530h96v-530h-96zM52 800h112l94 -208h-95zM-108 800h112l94 -208h-95z" />
    <glyph glyph-name="idotaccent" unicode="&#xe785;" horiz-adv-x="258" 
d="M81 0v530h96v-530h-96zM185 750v-111h-112v111h112z" />
    <glyph glyph-name="idotbelow" unicode="&#x1ecb;" horiz-adv-x="258" 
d="M81 0v530h96v-530h-96zM185 750v-111h-112v111h112zM185 -62v-111h-112v111h112z" />
    <glyph glyph-name="iogonek" unicode="&#x12f;" horiz-adv-x="258" 
d="M176 0c-47 -24 -87 -59 -87 -99c0 -24 12 -40 46 -40c37 1 73 21 77 26l22 -69c-27 -18 -65 -30 -110 -30c-61 0 -117 28 -117 103c0 52 31 87 74 120v519h95v-530zM184 749v-111h-111v111h111z" />
    <glyph glyph-name="dotlessj" unicode="&#x237;" horiz-adv-x="258" 
d="M86 -1v531h96v-537c0 -106 -31 -205 -193 -205c-28 0 -56 6 -72 12l10 89c9 -5 33 -14 60 -13c68 1 99 22 99 123z" />
    <glyph glyph-name="jcircumflex" unicode="&#x135;" horiz-adv-x="258" 
d="M-12 -123c67 1 98 21 98 123v530h95v-537c0 -105 -31 -204 -192 -204c-28 0 -55 5 -71 11l9 90c11 -7 33 -13 61 -13zM88 800h92l152 -208h-97l-101 127l-101 -127h-97z" />
    <glyph glyph-name="jcaron" unicode="&#x1f0;" horiz-adv-x="258" 
d="M-12 -123c67 1 98 21 98 123v530h95v-537c0 -105 -31 -204 -192 -204c-28 0 -55 5 -71 11l9 90c11 -7 33 -13 61 -13zM180 592h-92l-152 208h97l101 -127l101 127h97z" />
    <glyph glyph-name="jcaron" unicode="&#xe10c;" horiz-adv-x="258" 
d="M-12 -123c67 1 98 21 98 123v530h95v-537c0 -105 -31 -204 -192 -204c-28 0 -55 5 -71 11l9 90c11 -7 33 -13 61 -13zM180 592h-92l-152 208h97l101 -127l101 127h97z" />
    <glyph glyph-name="kcaron" unicode="&#x1e9;" horiz-adv-x="561" 
d="M158 0h-95v800h95v-514l92 96l146 148h129l-229 -228l262 -302h-124l-205 240l-71 -68v-172zM157 822h-92l-152 208h97l101 -127l101 127h97z" />
    <glyph glyph-name="kcommaaccent" unicode="&#x137;" horiz-adv-x="557" 
d="M158 0h-95v800h95v-514l92 96l146 148h129l-229 -228l262 -302h-124l-205 240l-71 -68v-172zM234 -62h117l-46 -138h-88z" />
    <glyph glyph-name="kcedilla" unicode="&#xe10e;" horiz-adv-x="557" 
d="M158 0h-95v800h95v-514l92 96l146 148h129l-229 -228l262 -302h-124l-205 240l-71 -68v-172zM234 -76l18 52c115 -10 155 -48 155 -102c0 -60 -55 -86 -122 -86c-42 0 -78 11 -92 18l17 53s26 -14 55 -14c22 0 56 5 56 30c0 31 -39 44 -87 49z" />
    <glyph glyph-name="khook" unicode="&#x199;" horiz-adv-x="561" 
d="M158 601v-315l92 96l146 148h129l-229 -228l262 -302h-124l-205 240l-71 -68v-172h-95v607c0 106 30 205 192 205c28 0 56 -6 72 -12l-10 -89c-9 5 -33 14 -60 13c-68 -1 -99 -22 -99 -123z" />
    <glyph glyph-name="kgreenlandic" unicode="&#x138;" horiz-adv-x="561" 
d="M158 0h-95v530h95v-244l92 96l146 148h129l-229 -228l262 -302h-124l-205 240l-71 -68v-172z" />
    <glyph glyph-name="lacute" unicode="&#x13a;" horiz-adv-x="258" 
d="M81 0v800h96v-800h-96zM176 1030h112l-111 -208h-95z" />
    <glyph glyph-name="lcaron" unicode="&#x13e;" horiz-adv-x="258" 
d="M81 0v800h96v-800h-96zM268 800h108l-69 -208h-86z" />
    <glyph glyph-name="lcommaaccent" unicode="&#x13c;" horiz-adv-x="258" 
d="M81 0v800h96v-800h-96zM70 -62h117l-46 -138h-88z" />
    <glyph glyph-name="lcedilla" unicode="&#xe100;" horiz-adv-x="258" 
d="M81 0v800h96v-800h-96zM63 -76l18 52c115 -10 155 -48 155 -102c0 -60 -55 -86 -122 -86c-42 0 -78 11 -92 18l17 53s26 -14 55 -14c22 0 56 5 56 30c0 31 -39 44 -87 49z" />
    <glyph glyph-name="ldotbelow" unicode="&#x1e37;" horiz-adv-x="258" 
d="M81 0v800h96v-800h-96zM185 -62v-111h-112v111h112z" />
    <glyph glyph-name="ldotbelowmacron" unicode="&#x1e39;" horiz-adv-x="258" 
d="M81 0v800h96v-800h-96zM185 -62v-111h-112v111h112zM273 882h-288v90h288v-90z" />
    <glyph glyph-name="ldot" unicode="&#x140;" horiz-adv-x="362" 
d="M81 0v800h96v-800h-96zM366 446v-111h-112v111h112z" />
    <glyph glyph-name="lslash" unicode="&#x142;" horiz-adv-x="309" 
d="M295 455l-95 -60v-395h-95v335l-74 -47v85l74 47v380h95v-320l95 60v-85z" />
    <glyph glyph-name="mmacron" unicode="&#xe112;" horiz-adv-x="879" 
d="M727 0v349c0 71 -35 104 -104 104c-72 0 -122 -67 -131 -124v-329h-96v349c0 71 -35 104 -104 104c-72 0 -123 -67 -132 -124v-329h-95v399l-7 131h87l12 -75c34 54 90 87 153 87c83 0 140 -36 163 -98c38 66 103 98 166 98c115 0 184 -65 184 -180v-362h-96zM583 652
h-288v90h288v-90z" />
    <glyph glyph-name="mcedilla" unicode="&#xe114;" horiz-adv-x="879" 
d="M727 0v349c0 71 -35 104 -104 104c-72 0 -122 -67 -131 -124v-329h-96v349c0 71 -35 104 -104 104c-72 0 -123 -67 -132 -124v-329h-95v399l-7 131h87l12 -75c34 54 90 87 153 87c83 0 140 -36 163 -98c38 66 103 98 166 98c115 0 184 -65 184 -180v-362h-96zM378 -76
l18 52c115 -10 155 -48 155 -102c0 -60 -55 -86 -122 -86c-42 0 -78 11 -92 18l17 53s26 -14 55 -14c22 0 56 5 56 30c0 31 -39 44 -87 49z" />
    <glyph glyph-name="mdotbelow" unicode="&#x1e43;" horiz-adv-x="879" 
d="M727 0v349c0 71 -35 104 -104 104c-72 0 -122 -67 -131 -124v-329h-96v349c0 71 -35 104 -104 104c-72 0 -123 -67 -132 -124v-329h-95v399l-7 131h87l12 -75c34 54 90 87 153 87c83 0 140 -36 163 -98c38 66 103 98 166 98c115 0 184 -65 184 -180v-362h-96zM500 -62
v-111h-112v111h112z" />
    <glyph glyph-name="ngrave" unicode="&#x1f9;" horiz-adv-x="587" 
d="M145 530l12 -75c35 52 98 87 171 87c117 0 204 -63 204 -179v-363h-96v346c0 70 -49 107 -122 107c-87 0 -147 -70 -154 -125v-328h-95v399l-7 131h87zM148 800h112l94 -208h-95z" />
    <glyph glyph-name="nacute" unicode="&#x144;" horiz-adv-x="587" 
d="M145 530l12 -75c35 52 98 87 171 87c117 0 204 -63 204 -179v-363h-96v346c0 70 -49 107 -122 107c-87 0 -147 -70 -154 -125v-328h-95v399l-7 131h87zM346 800h112l-111 -208h-95z" />
    <glyph glyph-name="ndieresis" unicode="&#xe116;" horiz-adv-x="587" 
d="M145 530l12 -75c35 52 98 87 171 87c117 0 204 -63 204 -179v-363h-96v346c0 70 -49 107 -122 107c-87 0 -147 -70 -154 -125v-328h-95v399l-7 131h87zM250 750v-111h-112v111h112zM450 750v-111h-112v111h112z" />
    <glyph glyph-name="ntilde" unicode="&#xf1;" horiz-adv-x="587" 
d="M145 530l12 -75c35 52 98 87 171 87c117 0 204 -63 204 -179v-363h-96v346c0 70 -49 107 -122 107c-87 0 -147 -70 -154 -125v-328h-95v399l-7 131h87zM222 696c-36 0 -48 -29 -52 -54l-76 11c11 75 48 125 133 125c88 0 114 -80 165 -80c36 0 48 29 52 54l76 -11
c-11 -75 -48 -125 -133 -125c-88 0 -114 80 -165 80z" />
    <glyph glyph-name="ncaron" unicode="&#x148;" horiz-adv-x="587" 
d="M145 530l12 -75c35 52 98 87 171 87c117 0 204 -63 204 -179v-363h-96v346c0 70 -49 107 -122 107c-87 0 -147 -70 -154 -125v-328h-95v399l-7 131h87zM345 592h-92l-152 208h97l101 -127l101 127h97z" />
    <glyph glyph-name="nmacron" unicode="&#xe118;" horiz-adv-x="587" 
d="M145 530l12 -75c35 52 98 87 171 87c117 0 204 -63 204 -179v-363h-96v346c0 70 -49 107 -122 107c-87 0 -147 -70 -154 -125v-328h-95v399l-7 131h87zM438 652h-288v90h288v-90z" />
    <glyph glyph-name="ndotaccent" unicode="&#x1e45;" horiz-adv-x="587" 
d="M145 530l12 -75c35 52 98 87 171 87c117 0 204 -63 204 -179v-363h-96v346c0 70 -49 107 -122 107c-87 0 -147 -70 -154 -125v-328h-95v399l-7 131h87zM356 750v-111h-112v111h112z" />
    <glyph glyph-name="ncommaaccent" unicode="&#x146;" horiz-adv-x="587" 
d="M145 530l12 -75c35 52 98 87 171 87c117 0 204 -63 204 -179v-363h-96v346c0 70 -49 107 -122 107c-87 0 -147 -70 -154 -125v-328h-95v399l-7 131h87zM239 -62h117l-46 -138h-88z" />
    <glyph glyph-name="ncedilla" unicode="&#xe11a;" horiz-adv-x="587" 
d="M145 530l12 -75c35 52 98 87 171 87c117 0 204 -63 204 -179v-363h-96v346c0 70 -49 107 -122 107c-87 0 -147 -70 -154 -125v-328h-95v399l-7 131h87zM233 -76l18 52c115 -10 155 -48 155 -102c0 -60 -55 -86 -122 -86c-42 0 -78 11 -92 18l17 53s26 -14 55 -14
c22 0 56 5 56 30c0 31 -39 44 -87 49z" />
    <glyph glyph-name="ndotbelow" unicode="&#x1e47;" horiz-adv-x="587" 
d="M145 530l12 -75c35 52 98 87 171 87c117 0 204 -63 204 -179v-363h-96v346c0 70 -49 107 -122 107c-87 0 -147 -70 -154 -125v-328h-95v399l-7 131h87zM356 -62v-111h-112v111h112z" />
    <glyph glyph-name="ndescender" unicode="&#xe805;" horiz-adv-x="587" 
d="M145 530l12 -75c35 52 98 87 171 87c117 0 204 -63 204 -179v-563h-96v546c0 70 -49 107 -122 107c-87 0 -147 -70 -154 -125v-328h-95v399l-7 131h87z" />
    <glyph glyph-name="ograve" unicode="&#xf2;" horiz-adv-x="590" 
d="M143 800h112l94 -208h-95zM295 74c92 0 154 56 154 191s-62 191 -154 191s-154 -56 -154 -191s62 -191 154 -191zM295 -12c-154 0 -250 92 -250 277s96 277 250 277s250 -92 250 -277s-96 -277 -250 -277z" />
    <glyph glyph-name="oacute" unicode="&#xf3;" horiz-adv-x="590" 
d="M342 800h112l-111 -208h-95zM295 74c92 0 154 56 154 191s-62 191 -154 191s-154 -56 -154 -191s62 -191 154 -191zM295 -12c-154 0 -250 92 -250 277s96 277 250 277s250 -92 250 -277s-96 -277 -250 -277z" />
    <glyph glyph-name="ocircumflex" unicode="&#xf4;" horiz-adv-x="590" 
d="M249 800h92l152 -208h-97l-101 127l-101 -127h-97zM295 74c92 0 154 56 154 191s-62 191 -154 191s-154 -56 -154 -191s62 -191 154 -191zM295 -12c-154 0 -250 92 -250 277s96 277 250 277s250 -92 250 -277s-96 -277 -250 -277z" />
    <glyph glyph-name="odieresis" unicode="&#xf6;" horiz-adv-x="590" 
d="M251 750v-111h-112v111h112zM451 750v-111h-112v111h112zM295 74c92 0 154 56 154 191s-62 191 -154 191s-154 -56 -154 -191s62 -191 154 -191zM295 -12c-154 0 -250 92 -250 277s96 277 250 277s250 -92 250 -277s-96 -277 -250 -277z" />
    <glyph glyph-name="otilde" unicode="&#xf5;" horiz-adv-x="590" 
d="M295 74c92 0 154 56 154 191s-62 191 -154 191s-154 -56 -154 -191s62 -191 154 -191zM295 -12c-154 0 -250 92 -250 277s96 277 250 277s250 -92 250 -277s-96 -277 -250 -277zM215 696c-36 0 -48 -29 -52 -54l-76 11c11 75 48 125 133 125c88 0 114 -80 165 -80
c36 0 48 29 52 54l76 -11c-11 -75 -48 -125 -133 -125c-88 0 -114 80 -165 80z" />
    <glyph glyph-name="ocaron" unicode="&#x1d2;" horiz-adv-x="590" 
d="M341 592h-92l-152 208h97l101 -127l101 127h97zM295 74c92 0 154 56 154 191s-62 191 -154 191s-154 -56 -154 -191s62 -191 154 -191zM295 -12c-154 0 -250 92 -250 277s96 277 250 277s250 -92 250 -277s-96 -277 -250 -277z" />
    <glyph glyph-name="omacron" unicode="&#x14d;" horiz-adv-x="590" 
d="M439 652h-288v90h288v-90zM295 74c92 0 154 56 154 191s-62 191 -154 191s-154 -56 -154 -191s62 -191 154 -191zM295 -12c-154 0 -250 92 -250 277s96 277 250 277s250 -92 250 -277s-96 -277 -250 -277z" />
    <glyph glyph-name="obreve" unicode="&#x14f;" horiz-adv-x="590" 
d="M295 595c-142 0 -188 75 -187 205h78c-1 -89 32 -121 109 -121s110 32 109 121h78c1 -130 -45 -205 -187 -205zM295 74c92 0 154 56 154 191s-62 191 -154 191s-154 -56 -154 -191s62 -191 154 -191zM295 -12c-154 0 -250 92 -250 277s96 277 250 277s250 -92 250 -277
s-96 -277 -250 -277z" />
    <glyph glyph-name="oinvertedbreve" unicode="&#x20f;" horiz-adv-x="590" 
d="M295 797c142 0 188 -75 187 -205h-78c1 89 -32 121 -109 121s-110 -32 -109 -121h-78c-1 130 45 205 187 205zM295 74c92 0 154 56 154 191s-62 191 -154 191s-154 -56 -154 -191s62 -191 154 -191zM295 -12c-154 0 -250 92 -250 277s96 277 250 277s250 -92 250 -277
s-96 -277 -250 -277z" />
    <glyph glyph-name="ohungarumlaut" unicode="&#x151;" horiz-adv-x="590" 
d="M260 800h112l-111 -208h-95zM420 800h112l-111 -208h-95zM295 74c92 0 154 56 154 191s-62 191 -154 191s-154 -56 -154 -191s62 -191 154 -191zM295 -12c-154 0 -250 92 -250 277s96 277 250 277s250 -92 250 -277s-96 -277 -250 -277z" />
    <glyph glyph-name="odoublegrave" unicode="&#x20d;" horiz-adv-x="590" 
d="M218 800h112l94 -208h-95zM58 800h112l94 -208h-95zM295 74c92 0 154 56 154 191s-62 191 -154 191s-154 -56 -154 -191s62 -191 154 -191zM295 -12c-154 0 -250 92 -250 277s96 277 250 277s250 -92 250 -277s-96 -277 -250 -277z" />
    <glyph glyph-name="ocommaturnedabove" unicode="&#xe11c;" horiz-adv-x="590" 
d="M295 74c92 0 154 56 154 191s-62 191 -154 191s-154 -56 -154 -191s62 -191 154 -191zM295 -12c-154 0 -250 92 -250 277s96 277 250 277s250 -92 250 -277s-96 -277 -250 -277zM343 592h-108l69 208h86z" />
    <glyph glyph-name="otildemacron" unicode="&#x22d;" horiz-adv-x="590" 
d="M295 74c92 0 154 56 154 191s-62 191 -154 191s-154 -56 -154 -191s62 -191 154 -191zM295 -12c-154 0 -250 92 -250 277s96 277 250 277s250 -92 250 -277s-96 -277 -250 -277zM151 752v90h288v-90h-288zM215 646c-36 0 -48 -29 -52 -54l-76 11c11 75 48 125 133 125
c88 0 114 -80 165 -80c36 0 48 29 52 54l76 -11c-11 -75 -48 -125 -133 -125c-88 0 -114 80 -165 80z" />
    <glyph glyph-name="odotabove" unicode="&#x22f;" horiz-adv-x="590" 
d="M295 74c92 0 154 56 154 191s-62 191 -154 191s-154 -56 -154 -191s62 -191 154 -191zM295 -12c-154 0 -250 92 -250 277s96 277 250 277s250 -92 250 -277s-96 -277 -250 -277zM351 750v-111h-112v111h112z" />
    <glyph glyph-name="odotabovemacron" unicode="&#x231;" horiz-adv-x="590" 
d="M295 -12c-154 0 -250 92 -250 277s96 277 250 277s250 -92 250 -277s-96 -277 -250 -277zM295 74c92 0 154 56 154 191s-62 191 -154 191s-154 -56 -154 -191s62 -191 154 -191zM351 710v-111h-112v111h112zM143 752v90h288v-90h-288z" />
    <glyph glyph-name="odotabovemacron" unicode="&#xe11e;" horiz-adv-x="590" 
d="M295 -12c-154 0 -250 92 -250 277s96 277 250 277s250 -92 250 -277s-96 -277 -250 -277zM295 74c92 0 154 56 154 191s-62 191 -154 191s-154 -56 -154 -191s62 -191 154 -191zM351 710v-111h-112v111h112zM143 752v90h288v-90h-288z" />
    <glyph glyph-name="ocedilla" unicode="&#xe110;" horiz-adv-x="590" 
d="M295 74c92 0 154 56 154 191s-62 191 -154 191s-154 -56 -154 -191s62 -191 154 -191zM295 -12c-154 0 -250 92 -250 277s96 277 250 277s250 -92 250 -277s-96 -277 -250 -277zM234 -76l18 52c115 -10 155 -48 155 -102c0 -60 -55 -86 -122 -86c-42 0 -78 11 -92 18
l17 53s26 -14 55 -14c22 0 56 5 56 30c0 31 -39 44 -87 49z" />
    <glyph glyph-name="odotbelow" unicode="&#x1ecd;" horiz-adv-x="590" 
d="M295 74c92 0 154 56 154 191s-62 191 -154 191s-154 -56 -154 -191s62 -191 154 -191zM295 -12c-154 0 -250 92 -250 277s96 277 250 277s250 -92 250 -277s-96 -277 -250 -277zM351 -62v-111h-112v111h112z" />
    <glyph glyph-name="oogonek" unicode="&#x1eb;" horiz-adv-x="589" 
d="M545 265c0 -142 -57 -229 -153 -262c-57 -20 -103 -63 -103 -102c0 -24 13 -40 46 -40c29 0 70 17 69 19l22 -67c-21 -13 -57 -25 -102 -25c-61 0 -117 28 -117 104c0 35 17 69 46 99c-130 15 -208 106 -208 274c0 185 96 277 250 277s250 -92 250 -277zM295 74
c92 0 154 56 154 191s-62 191 -154 191s-154 -56 -154 -191s62 -191 154 -191z" />
    <glyph glyph-name="oogonekmacron" unicode="&#x1ed;" horiz-adv-x="589" 
d="M545 265c0 -142 -57 -229 -153 -262c-57 -20 -103 -63 -103 -102c0 -24 13 -40 46 -40c29 0 70 17 69 19l22 -67c-21 -13 -57 -25 -102 -25c-61 0 -117 28 -117 104c0 35 17 69 46 99c-130 15 -208 106 -208 274c0 185 96 277 250 277s250 -92 250 -277zM295 74
c92 0 154 56 154 191s-62 191 -154 191s-154 -56 -154 -191s62 -191 154 -191zM439 652h-288v90h288v-90z" />
    <glyph glyph-name="ounderlineaccent" unicode="&#xe122;" horiz-adv-x="590" 
d="M295 74c92 0 154 56 154 191s-62 191 -154 191s-154 -56 -154 -191s62 -191 154 -191zM295 -12c-154 0 -250 92 -250 277s96 277 250 277s250 -92 250 -277s-96 -277 -250 -277zM330 -200h-71v160h71v-160z" />
    <glyph glyph-name="oslash" unicode="&#xf8;" horiz-adv-x="590" 
d="M295 74c92 0 154 56 154 191c0 56 -11 99 -30 129l-204 -301c22 -13 49 -19 80 -19zM545 265c0 -185 -96 -277 -250 -277c-51 0 -94 10 -131 30l-12 -18h-73l37 54c-46 46 -71 116 -71 211c0 185 96 277 250 277c51 0 94 -10 131 -30l12 18h73l-37 -54
c46 -46 71 -116 71 -211zM295 456c-92 0 -154 -56 -154 -191c0 -56 11 -99 30 -129l204 301c-22 13 -49 19 -80 19z" />
    <glyph glyph-name="oslashacute" unicode="&#x1ff;" horiz-adv-x="590" 
d="M342 800h112l-111 -208h-95zM295 74c92 0 154 56 154 191c0 56 -11 99 -30 129l-204 -301c22 -13 49 -19 80 -19zM545 265c0 -185 -96 -277 -250 -277c-51 0 -94 10 -131 30l-12 -18h-73l37 54c-46 46 -71 116 -71 211c0 185 96 277 250 277c51 0 94 -10 131 -30l12 18
h73l-37 -54c46 -46 71 -116 71 -211zM295 456c-92 0 -154 -56 -154 -191c0 -56 11 -99 30 -129l204 301c-22 13 -49 19 -80 19z" />
    <glyph glyph-name="barredo" unicode="&#xe737;" horiz-adv-x="590" 
d="M295 -12c-154 0 -250 92 -250 277s96 277 250 277s250 -92 250 -277s-96 -277 -250 -277zM295 74c82 0 141 45 152 152h-304c11 -107 69 -152 152 -152zM295 456c-82 0 -140 -45 -152 -149h303c-12 104 -69 149 -151 149z" />
    <glyph glyph-name="oe" unicode="&#x153;" horiz-adv-x="984" 
d="M295 76c92 0 151 54 151 189s-59 189 -151 189s-151 -54 -151 -189s59 -189 151 -189zM699 459c-86 0 -145 -47 -152 -152h286c-2 98 -46 153 -134 152zM936 226h-390c7 -108 66 -154 154 -154c86 -2 121 32 132 84l100 -12c-12 -84 -78 -156 -231 -156
c-91 0 -162 30 -205 91c-43 -61 -113 -91 -201 -91c-154 0 -250 92 -250 277s96 277 250 277c88 0 158 -31 201 -92c43 61 113 92 202 92c161 0 238 -100 238 -276v-40z" />
    <glyph glyph-name="pmacron" unicode="&#xe124;" horiz-adv-x="611" 
d="M328 -12c-71 0 -134 32 -168 83v-271h-95v598l-7 132h87l12 -76c33 54 98 88 171 88c154 0 239 -100 239 -277s-85 -277 -239 -277zM160 328v-126c8 -57 67 -125 159 -125c91 0 149 66 149 188c0 123 -58 188 -149 188c-92 0 -151 -67 -159 -125zM449 652h-288v90h288
v-90z" />
    <glyph glyph-name="racute" unicode="&#x155;" horiz-adv-x="414" 
d="M326 450c-91 0 -156 -65 -166 -125v-325h-95v399l-7 131h87l13 -81c30 54 93 93 165 93c27 0 54 -4 71 -11l-9 -93c-9 5 -31 12 -59 12zM259 800h112l-111 -208h-95z" />
    <glyph glyph-name="rcaron" unicode="&#x159;" horiz-adv-x="414" 
d="M326 450c-91 0 -156 -65 -166 -125v-325h-95v399l-7 131h87l13 -81c30 54 93 93 165 93c27 0 54 -4 71 -11l-9 -93c-9 5 -31 12 -59 12zM268 592h-92l-152 208h97l101 -127l101 127h97z" />
    <glyph glyph-name="rinvertedbreve" unicode="&#x213;" horiz-adv-x="414" 
d="M326 450c-91 0 -156 -65 -166 -125v-325h-95v399l-7 131h87l13 -81c30 54 93 93 165 93c27 0 54 -4 71 -11l-9 -93c-9 5 -31 12 -59 12zM222 797c142 0 188 -75 187 -205h-78c1 89 -32 121 -109 121s-110 -32 -109 -121h-78c-1 130 45 205 187 205z" />
    <glyph glyph-name="rdoublegrave" unicode="&#xe126;" horiz-adv-x="414" 
d="M326 450c-91 0 -156 -65 -166 -125v-325h-95v399l-7 131h87l13 -81c30 54 93 93 165 93c27 0 54 -4 71 -11l-9 -93c-9 5 -31 12 -59 12zM155 800h112l94 -208h-95zM-5 800h112l94 -208h-95z" />
    <glyph glyph-name="rcommaaccent" unicode="&#x157;" horiz-adv-x="414" 
d="M326 450c-91 0 -156 -65 -166 -125v-325h-95v399l-7 131h87l13 -81c30 54 93 93 165 93c27 0 54 -4 71 -11l-9 -93c-9 5 -31 12 -59 12zM54 -62h117l-46 -138h-88z" />
    <glyph glyph-name="rcedilla" unicode="&#xe128;" horiz-adv-x="414" 
d="M326 450c-91 0 -156 -65 -166 -125v-325h-95v399l-7 131h87l13 -81c30 54 93 93 165 93c27 0 54 -4 71 -11l-9 -93c-9 5 -31 12 -59 12zM47 -76l18 52c115 -10 155 -48 155 -102c0 -60 -55 -86 -122 -86c-42 0 -78 11 -92 18l17 53s26 -14 55 -14c22 0 56 5 56 30
c0 31 -39 44 -87 49z" />
    <glyph glyph-name="rdotbelow" unicode="&#x1e5b;" horiz-adv-x="414" 
d="M326 450c-91 0 -156 -65 -166 -125v-325h-95v399l-7 131h87l13 -81c30 54 93 93 165 93c27 0 54 -4 71 -11l-9 -93c-9 5 -31 12 -59 12zM169 -62v-111h-112v111h112z" />
    <glyph glyph-name="rdotbelowmacron" unicode="&#x1e5d;" horiz-adv-x="414" 
d="M326 450c-91 0 -156 -65 -166 -125v-325h-95v399l-7 131h87l13 -81c30 54 93 93 165 93c27 0 54 -4 71 -11l-9 -93c-9 5 -31 12 -59 12zM356 652h-288v90h288v-90zM169 -62v-111h-112v111h112z" />
    <glyph glyph-name="sacute" unicode="&#x15b;" horiz-adv-x="540" 
d="M266 72c70 2 141 19 141 84s-51 65 -142 75s-213 21 -213 143c0 123 117 168 214 168c145 0 212 -59 226 -158l-100 -12c-11 56 -45 87 -126 86c-52 -1 -116 -13 -116 -77c0 -54 51 -59 131 -67c102 -10 225 -17 225 -153c0 -126 -124 -173 -239 -173
c-151 0 -219 66 -231 159l100 13c11 -56 46 -89 130 -88zM317 800h112l-111 -208h-95z" />
    <glyph glyph-name="scircumflex" unicode="&#x15d;" horiz-adv-x="540" 
d="M266 72c70 2 141 19 141 84s-51 65 -142 75s-213 21 -213 143c0 123 117 168 214 168c145 0 212 -59 226 -158l-100 -12c-11 56 -45 87 -126 86c-52 -1 -116 -13 -116 -77c0 -54 51 -59 131 -67c102 -10 225 -17 225 -153c0 -126 -124 -173 -239 -173
c-151 0 -219 66 -231 159l100 13c11 -56 46 -89 130 -88zM224 800h92l152 -208h-97l-101 127l-101 -127h-97z" />
    <glyph glyph-name="scaron" unicode="&#x161;" horiz-adv-x="540" 
d="M266 72c70 2 141 19 141 84s-51 65 -142 75s-213 21 -213 143c0 123 117 168 214 168c145 0 212 -59 226 -158l-100 -12c-11 56 -45 87 -126 86c-52 -1 -116 -13 -116 -77c0 -54 51 -59 131 -67c102 -10 225 -17 225 -153c0 -126 -124 -173 -239 -173
c-151 0 -219 66 -231 159l100 13c11 -56 46 -89 130 -88zM316 592h-92l-152 208h97l101 -127l101 127h97z" />
    <glyph glyph-name="scommaaccent" unicode="&#x219;" horiz-adv-x="540" 
d="M266 72c70 2 141 19 141 84s-51 65 -142 75s-213 21 -213 143c0 123 117 168 214 168c145 0 212 -59 226 -158l-100 -12c-11 56 -45 87 -126 86c-52 -1 -116 -13 -116 -77c0 -54 51 -59 131 -67c102 -10 225 -17 225 -153c0 -126 -124 -173 -239 -173
c-151 0 -219 66 -231 159l100 13c11 -56 46 -89 130 -88zM214 -62h117l-46 -138h-88z" />
    <glyph glyph-name="scedilla" unicode="&#x15f;" horiz-adv-x="540" 
d="M266 72c70 2 141 19 141 84s-51 65 -142 75s-213 21 -213 143c0 123 117 168 214 168c145 0 212 -59 226 -158l-100 -12c-11 56 -45 87 -126 86c-52 -1 -116 -13 -116 -77c0 -54 51 -59 131 -67c102 -10 225 -17 225 -153c0 -114 -102 -163 -206 -171l-7 -25
c46 -11 89 -37 89 -91c0 -60 -55 -86 -122 -86c-42 0 -78 11 -92 18l17 53s26 -14 55 -14c22 0 56 5 56 30c0 31 -39 44 -87 49l22 66c-126 9 -184 71 -195 157l100 13c11 -56 46 -89 130 -88z" />
    <glyph glyph-name="sdotbelow" unicode="&#x1e63;" horiz-adv-x="540" 
d="M266 72c70 2 141 19 141 84s-51 65 -142 75s-213 21 -213 143c0 123 117 168 214 168c145 0 212 -59 226 -158l-100 -12c-11 56 -45 87 -126 86c-52 -1 -116 -13 -116 -77c0 -54 51 -59 131 -67c102 -10 225 -17 225 -153c0 -126 -124 -173 -239 -173
c-151 0 -219 66 -231 159l100 13c11 -56 46 -89 130 -88zM321 -62v-111h-112v111h112z" />
    <glyph glyph-name="germandbls" unicode="&#xdf;" horiz-adv-x="655" 
d="M339 812c129 0 232 -59 232 -178c0 -118 -81 -148 -132 -169c-47 -19 -78 -31 -78 -81c0 -46 54 -56 106 -71c63 -18 155 -43 155 -157c0 -113 -84 -168 -190 -168c-145 0 -185 72 -194 162l98 12c6 -50 26 -88 95 -88c59 1 91 23 91 79c0 55 -44 69 -107 84
c-49 12 -151 38 -151 143c0 113 86 141 129 157c55 21 80 40 80 94c0 63 -42 95 -134 95c-149 0 -164 -89 -164 -202v-524h-95v530c0 191 65 282 259 282z" />
    <glyph glyph-name="tcaron" unicode="&#x165;" horiz-adv-x="420" 
d="M23 449v81h96v142l95 16v-158h162v-81h-162v-250c0 -100 32 -122 100 -123c27 -1 50 8 61 13l9 -89c-16 -6 -44 -12 -72 -12c-162 0 -193 100 -193 205v256h-96zM320 800h108l-69 -208h-86z" />
    <glyph glyph-name="tcommaaccent" unicode="&#x163;" horiz-adv-x="420" 
d="M23 449v81h96v142l95 16v-158h162v-81h-162v-250c0 -100 32 -122 100 -123c27 -1 50 8 61 13l9 -89c-16 -6 -44 -12 -72 -12c-162 0 -193 100 -193 205v256h-96zM175 -62h117l-46 -138h-88z" />
    <glyph glyph-name="tcedilla" unicode="&#xe12a;" horiz-adv-x="420" 
d="M23 449v81h96v142l95 16v-158h162v-81h-162v-250c0 -100 32 -122 100 -123c27 -1 50 8 61 13l9 -89c-16 -6 -44 -12 -72 -12c-162 0 -193 100 -193 205v256h-96zM169 -76l18 52c115 -10 155 -48 155 -102c0 -60 -55 -86 -122 -86c-42 0 -78 11 -92 18l17 53
s26 -14 55 -14c22 0 56 5 56 30c0 31 -39 44 -87 49z" />
    <glyph glyph-name="tdotbelow" unicode="&#x1e6d;" horiz-adv-x="420" 
d="M23 449v81h96v142l95 16v-158h162v-81h-162v-250c0 -100 32 -122 100 -123c27 -1 50 8 61 13l9 -89c-16 -6 -44 -12 -72 -12c-162 0 -193 100 -193 205v256h-96zM292 -62v-111h-112v111h112z" />
    <glyph glyph-name="tbar" unicode="&#x167;" horiz-adv-x="420" 
d="M366 277h-152v-78c0 -100 32 -122 100 -123c27 -1 50 8 61 13l9 -89c-16 -6 -44 -12 -72 -12c-162 0 -193 100 -193 205v84h-94v76h94v96h-96v81h96v142l95 16v-158h162v-81h-162v-96h152v-76z" />
    <glyph glyph-name="ugrave" unicode="&#xf9;" horiz-adv-x="587" 
d="M443 0l-12 75c-35 -52 -98 -87 -171 -87c-117 0 -204 63 -204 179v363h96v-346c0 -70 49 -107 122 -107c87 0 147 70 154 125v328h95v-399l7 -131h-87zM136 800h112l94 -208h-95z" />
    <glyph glyph-name="uacute" unicode="&#xfa;" horiz-adv-x="587" 
d="M443 0l-12 75c-35 -52 -98 -87 -171 -87c-117 0 -204 63 -204 179v363h96v-346c0 -70 49 -107 122 -107c87 0 147 70 154 125v328h95v-399l7 -131h-87zM335 800h112l-111 -208h-95z" />
    <glyph glyph-name="ucircumflex" unicode="&#xfb;" horiz-adv-x="587" 
d="M443 0l-12 75c-35 -52 -98 -87 -171 -87c-117 0 -204 63 -204 179v363h96v-346c0 -70 49 -107 122 -107c87 0 147 70 154 125v328h95v-399l7 -131h-87zM242 800h92l152 -208h-97l-101 127l-101 -127h-97z" />
    <glyph glyph-name="udieresis" unicode="&#xfc;" horiz-adv-x="587" 
d="M443 0l-12 75c-35 -52 -98 -87 -171 -87c-117 0 -204 63 -204 179v363h96v-346c0 -70 49 -107 122 -107c87 0 147 70 154 125v328h95v-399l7 -131h-87zM244 750v-111h-112v111h112zM444 750v-111h-112v111h112z" />
    <glyph glyph-name="utilde" unicode="&#x169;" horiz-adv-x="587" 
d="M443 0l-12 75c-35 -52 -98 -87 -171 -87c-117 0 -204 63 -204 179v363h96v-346c0 -70 49 -107 122 -107c87 0 147 70 154 125v328h95v-399l7 -131h-87zM204 696c-36 0 -48 -29 -52 -54l-76 11c11 75 48 125 133 125c88 0 114 -80 165 -80c36 0 48 29 52 54l76 -11
c-11 -75 -48 -125 -133 -125c-88 0 -114 80 -165 80z" />
    <glyph glyph-name="uring" unicode="&#x16f;" horiz-adv-x="587" 
d="M443 0l-12 75c-35 -52 -98 -87 -171 -87c-117 0 -204 63 -204 179v363h96v-346c0 -70 49 -107 122 -107c87 0 147 70 154 125v328h95v-399l7 -131h-87zM172 696c0 67 43 116 116 116s116 -49 116 -116s-43 -116 -116 -116s-116 49 -116 116zM335 696c0 29 -18 48 -47 48
s-47 -19 -47 -48s18 -48 47 -48s47 19 47 48z" />
    <glyph glyph-name="ucaron" unicode="&#x1d4;" horiz-adv-x="587" 
d="M443 0l-12 75c-35 -52 -98 -87 -171 -87c-117 0 -204 63 -204 179v363h96v-346c0 -70 49 -107 122 -107c87 0 147 70 154 125v328h95v-399l7 -131h-87zM334 592h-92l-152 208h97l101 -127l101 127h97z" />
    <glyph glyph-name="umacron" unicode="&#x16b;" horiz-adv-x="587" 
d="M443 0l-12 75c-35 -52 -98 -87 -171 -87c-117 0 -204 63 -204 179v363h96v-346c0 -70 49 -107 122 -107c87 0 147 70 154 125v328h95v-399l7 -131h-87zM432 652h-288v90h288v-90z" />
    <glyph glyph-name="ubreve" unicode="&#x16d;" horiz-adv-x="587" 
d="M443 0l-12 75c-35 -52 -98 -87 -171 -87c-117 0 -204 63 -204 179v363h96v-346c0 -70 49 -107 122 -107c87 0 147 70 154 125v328h95v-399l7 -131h-87zM288 595c-142 0 -188 75 -187 205h78c-1 -89 32 -121 109 -121s110 32 109 121h78c1 -130 -45 -205 -187 -205z" />
    <glyph glyph-name="uinvertedbreve" unicode="&#x217;" horiz-adv-x="587" 
d="M443 0l-12 75c-35 -52 -98 -87 -171 -87c-117 0 -204 63 -204 179v363h96v-346c0 -70 49 -107 122 -107c87 0 147 70 154 125v328h95v-399l7 -131h-87zM288 797c142 0 188 -75 187 -205h-78c1 89 -32 121 -109 121s-110 -32 -109 -121h-78c-1 130 45 205 187 205z" />
    <glyph glyph-name="uhungarumlaut" unicode="&#x171;" horiz-adv-x="587" 
d="M443 0l-12 75c-35 -52 -98 -87 -171 -87c-117 0 -204 63 -204 179v363h96v-346c0 -70 49 -107 122 -107c87 0 147 70 154 125v328h95v-399l7 -131h-87zM253 800h112l-111 -208h-95zM413 800h112l-111 -208h-95z" />
    <glyph glyph-name="udoublegrave" unicode="&#x215;" horiz-adv-x="587" 
d="M443 0l-12 75c-35 -52 -98 -87 -171 -87c-117 0 -204 63 -204 179v363h96v-346c0 -70 49 -107 122 -107c87 0 147 70 154 125v328h95v-399l7 -131h-87zM215 800h112l94 -208h-95zM55 800h112l94 -208h-95z" />
    <glyph glyph-name="uogonek" unicode="&#x173;" horiz-adv-x="587" 
d="M260 -12c-117 0 -204 63 -204 179v363h96v-346c0 -70 49 -107 117 -107c89 0 154 76 159 125v328h95v-398l7 -132c-68 -21 -96 -61 -96 -96c0 -28 18 -43 46 -43c29 0 50 8 69 17l22 -65c-21 -13 -57 -25 -102 -25c-61 0 -117 28 -117 104c0 48 31 96 87 131l-10 64
c-25 -53 -96 -99 -169 -99z" />
    <glyph glyph-name="udotbelow" unicode="&#x1ee5;" horiz-adv-x="587" 
d="M443 0l-12 75c-35 -52 -98 -87 -171 -87c-117 0 -204 63 -204 179v363h96v-346c0 -70 49 -107 122 -107c87 0 147 70 154 125v328h95v-399l7 -131h-87zM350 -62v-111h-112v111h112z" />
    <glyph glyph-name="umacronbelow" unicode="&#xe12c;" horiz-adv-x="587" 
d="M443 0l-12 75c-35 -52 -98 -87 -171 -87c-117 0 -204 63 -204 179v363h96v-346c0 -70 49 -107 122 -107c87 0 147 70 154 125v328h95v-399l7 -131h-87zM145 -75h288v-90h-288v90z" />
    <glyph glyph-name="wgrave" unicode="&#x1e81;" horiz-adv-x="813" 
d="M448 292l-42 123l-42 -123l-106 -304h-94l-131 542h97l61 -282l25 -128l43 128l98 282h98l98 -282l43 -128l25 128l61 282h97l-131 -542h-94zM254 800h112l94 -208h-95z" />
    <glyph glyph-name="wacute" unicode="&#x1e83;" horiz-adv-x="813" 
d="M448 292l-42 123l-42 -123l-106 -304h-94l-131 542h97l61 -282l25 -128l43 128l98 282h98l98 -282l43 -128l25 128l61 282h97l-131 -542h-94zM453 800h112l-111 -208h-95z" />
    <glyph glyph-name="wcircumflex" unicode="&#x175;" horiz-adv-x="813" 
d="M448 292l-42 123l-42 -123l-106 -304h-94l-131 542h97l61 -282l25 -128l43 128l98 282h98l98 -282l43 -128l25 128l61 282h97l-131 -542h-94zM360 800h92l152 -208h-97l-101 127l-101 -127h-97z" />
    <glyph glyph-name="wdieresis" unicode="&#x1e85;" horiz-adv-x="813" 
d="M448 292l-42 123l-42 -123l-106 -304h-94l-131 542h97l61 -282l25 -128l43 128l98 282h98l98 -282l43 -128l25 128l61 282h97l-131 -542h-94zM562 750v-111h-112v111h112zM362 750v-111h-112v111h112z" />
    <glyph glyph-name="ygrave" unicode="&#x1ef3;" horiz-adv-x="562" 
d="M550 530l-215 -495l-96 -235h-110l102 226l-219 504h108l109 -274l52 -131l51 131l110 274h108zM129 800h112l94 -208h-95z" />
    <glyph glyph-name="yacute" unicode="&#xfd;" horiz-adv-x="562" 
d="M550 530l-215 -495l-96 -235h-110l102 226l-219 504h108l109 -274l52 -131l51 131l110 274h108zM328 800h112l-111 -208h-95z" />
    <glyph glyph-name="ycircumflex" unicode="&#x177;" horiz-adv-x="562" 
d="M550 530l-215 -495l-96 -235h-110l102 226l-219 504h108l109 -274l52 -131l51 131l110 274h108zM235 800h92l152 -208h-97l-101 127l-101 -127h-97z" />
    <glyph glyph-name="ydieresis" unicode="&#xff;" horiz-adv-x="562" 
d="M550 530l-215 -495l-96 -235h-110l102 226l-219 504h108l109 -274l52 -131l51 131l110 274h108zM237 750v-111h-112v111h112zM437 750v-111h-112v111h112z" />
    <glyph glyph-name="ytilde" unicode="&#x1ef9;" horiz-adv-x="562" 
d="M550 530l-215 -495l-96 -235h-110l102 226l-219 504h108l109 -274l52 -131l51 131l110 274h108zM196 696c-36 0 -48 -29 -52 -54l-76 11c11 75 48 125 133 125c88 0 114 -80 165 -80c36 0 48 29 52 54l76 -11c-11 -75 -48 -125 -133 -125c-88 0 -114 80 -165 80z" />
    <glyph glyph-name="ymacron" unicode="&#x233;" horiz-adv-x="562" 
d="M550 530l-215 -495l-96 -235h-110l102 226l-219 504h108l109 -274l52 -131l51 131l110 274h108zM425 652h-288v90h288v-90z" />
    <glyph glyph-name="ij" unicode="&#x133;" horiz-adv-x="501" 
d="M81 0v530h96v-530h-96zM185 750v-111h-112v111h112zM433 750v-111h-112v111h112zM329 -1v531h96v-537c0 -106 -31 -205 -193 -205c-28 0 -56 6 -72 12l10 89c9 -5 33 -14 60 -13c68 1 99 22 99 123z" />
    <glyph glyph-name="zacute" unicode="&#x17a;" horiz-adv-x="547" 
d="M302 367l74 79l-125 -1h-196v85h445v-70l-268 -298l-72 -78l125 1h224v-85h-473v71zM315 800h112l-111 -208h-95z" />
    <glyph glyph-name="zcaron" unicode="&#x17e;" horiz-adv-x="547" 
d="M314 592h-92l-152 208h97l101 -127l101 127h97zM302 367l74 79l-125 -1h-196v85h445v-70l-268 -298l-72 -78l125 1h224v-85h-473v71z" />
    <glyph glyph-name="zdotaccent" unicode="&#x17c;" horiz-adv-x="547" 
d="M302 367l74 79l-125 -1h-196v85h445v-70l-268 -298l-72 -78l125 1h224v-85h-473v71zM324 750v-111h-112v111h112z" />
    <glyph glyph-name="eng" unicode="&#x14b;" horiz-adv-x="587" 
d="M436 -1v347c0 70 -49 107 -122 107c-87 0 -147 -70 -154 -125v-328h-95v399l-7 131h87l12 -75c35 52 98 87 171 87c117 0 204 -63 204 -179v-370c0 -106 -31 -205 -193 -205c-28 0 -56 6 -72 12l10 89c9 -5 33 -14 60 -13c68 1 99 22 99 123z" />
    <glyph glyph-name="eth" unicode="&#xf0;" horiz-adv-x="589" 
d="M484 715l-77 -29c73 -79 137 -209 137 -421c0 -185 -96 -277 -250 -277s-250 92 -250 277c0 184 95 277 249 277c44 0 88 -14 119 -37c-20 63 -53 110 -91 149l-169 -63v69l115 43c-60 46 -126 75 -179 97h165c31 -15 66 -35 103 -64l128 48v-69zM294 454
c-93 0 -152 -54 -152 -189c0 -136 59 -190 152 -190s154 54 154 190c0 135 -61 189 -154 189z" />
    <glyph glyph-name="thorn" unicode="&#xfe;" horiz-adv-x="611" 
d="M567 265c0 -177 -85 -277 -239 -277c-71 0 -134 32 -168 83v-271h-95v1000h95v-341c34 51 97 83 168 83c154 0 239 -100 239 -277zM160 328v-126c8 -57 67 -125 159 -125c91 0 149 66 149 188s-58 188 -149 188c-92 0 -151 -68 -159 -125z" />
    <glyph glyph-name="ezh" unicode="&#x292;" horiz-adv-x="566" 
d="M274 -211c-166 0 -240 69 -250 172l99 14c9 -59 52 -102 148 -102c101 0 163 54 163 151c0 95 -63 149 -158 149c-45 0 -77 -12 -103 -30l-47 56l193 187l57 59h-326v85h457v-73l-211 -208c6 1 16 2 24 2c112 0 208 -86 208 -228c0 -156 -118 -234 -254 -234z" />
    <glyph glyph-name="ezhcaron" unicode="&#x1ef;" horiz-adv-x="566" 
d="M274 -211c-166 0 -240 69 -250 172l99 14c9 -59 52 -102 148 -102c101 0 163 54 163 151c0 95 -63 149 -158 149c-45 0 -77 -12 -103 -30l-47 56l193 187l57 59h-326v85h457v-73l-211 -208c6 1 16 2 24 2c112 0 208 -86 208 -228c0 -156 -118 -234 -254 -234zM314 592
h-92l-152 208h97l101 -127l101 127h97z" />
    <glyph glyph-name="schwa" unicode="&#x259;" horiz-adv-x="582" 
d="M48 304h390c-7 108 -66 154 -154 154c-86 2 -121 -32 -132 -84l-100 12c12 84 78 156 231 156c158 0 255 -93 255 -277s-97 -277 -252 -277c-161 0 -238 100 -238 276v40zM285 71c86 0 145 47 152 152h-286c2 -98 46 -153 134 -152z" />
    <glyph glyph-name="ordfeminine" unicode="&#xaa;" horiz-adv-x="448" 
d="M36 499c0 85 70 111 163 124l112 16v12c0 47 -33 65 -92 64c-51 -1 -75 -21 -81 -57l-85 11c11 69 49 122 168 122c108 0 174 -46 174 -146v-155l6 -100h-78l-7 45c-27 -35 -80 -57 -135 -57c-102 0 -145 49 -145 121zM125 500c0 -37 30 -47 63 -47c67 1 120 44 123 87
v35l-134 -22c-34 -6 -52 -22 -52 -53z" />
    <glyph glyph-name="ordmasculine" unicode="&#xba;" horiz-adv-x="470" 
d="M235 456c64 0 105 38 105 129s-41 129 -105 129s-105 -38 -105 -129s41 -129 105 -129zM235 378c-117 0 -191 72 -191 207s74 207 191 207s191 -72 191 -207s-74 -207 -191 -207z" />
    <glyph glyph-name="cordinal" unicode="&#xe181;" horiz-adv-x="451" 
d="M44 585c0 133 70 207 189 207c124 0 168 -57 178 -131l-86 -11c-9 40 -32 65 -92 64c-65 -1 -103 -45 -103 -129s38 -128 103 -129c60 -1 83 24 92 64l86 -11c-10 -74 -54 -131 -178 -131c-119 0 -189 74 -189 207z" />
    <glyph glyph-name="a.school" unicode="&#xe151;" horiz-adv-x="616" 
d="M451 202v126c-8 57 -67 125 -159 125c-91 0 -149 -66 -149 -188c0 -123 58 -188 149 -188c92 0 151 67 159 125zM546 398v-266l7 -132h-87l-12 76c-33 -54 -98 -88 -171 -88c-154 0 -239 100 -239 277s85 277 239 277c73 0 138 -34 171 -88l12 76h87z" />
    <glyph glyph-name="agrave.school" unicode="&#xe152;" horiz-adv-x="616" 
d="M451 202v126c-8 57 -67 125 -159 125c-91 0 -149 -66 -149 -188c0 -123 58 -188 149 -188c92 0 151 67 159 125zM546 398v-266l7 -132h-87l-12 76c-33 -54 -98 -88 -171 -88c-154 0 -239 100 -239 277s85 277 239 277c73 0 138 -34 171 -88l12 76h87zM133 800h112
l94 -208h-95z" />
    <glyph glyph-name="aacute.school" unicode="&#xe153;" horiz-adv-x="616" 
d="M451 202v126c-8 57 -67 125 -159 125c-91 0 -149 -66 -149 -188c0 -123 58 -188 149 -188c92 0 151 67 159 125zM546 398v-266l7 -132h-87l-12 76c-33 -54 -98 -88 -171 -88c-154 0 -239 100 -239 277s85 277 239 277c73 0 138 -34 171 -88l12 76h87zM332 800h112
l-111 -208h-95z" />
    <glyph glyph-name="acircumflex.school" unicode="&#xe154;" horiz-adv-x="616" 
d="M451 202v126c-8 57 -67 125 -159 125c-91 0 -149 -66 -149 -188c0 -123 58 -188 149 -188c92 0 151 67 159 125zM546 398v-266l7 -132h-87l-12 76c-33 -54 -98 -88 -171 -88c-154 0 -239 100 -239 277s85 277 239 277c73 0 138 -34 171 -88l12 76h87zM249 800h92
l152 -208h-97l-101 127l-101 -127h-97z" />
    <glyph glyph-name="adieresis.school" unicode="&#xe155;" horiz-adv-x="616" 
d="M451 202v126c-8 57 -67 125 -159 125c-91 0 -149 -66 -149 -188c0 -123 58 -188 149 -188c92 0 151 67 159 125zM546 398v-266l7 -132h-87l-12 76c-33 -54 -98 -88 -171 -88c-154 0 -239 100 -239 277s85 277 239 277c73 0 138 -34 171 -88l12 76h87zM246 750v-111h-112
v111h112zM446 750v-111h-112v111h112z" />
    <glyph glyph-name="atilde.school" unicode="&#xe156;" horiz-adv-x="616" 
d="M451 202v126c-8 57 -67 125 -159 125c-91 0 -149 -66 -149 -188c0 -123 58 -188 149 -188c92 0 151 67 159 125zM546 398v-266l7 -132h-87l-12 76c-33 -54 -98 -88 -171 -88c-154 0 -239 100 -239 277s85 277 239 277c73 0 138 -34 171 -88l12 76h87zM210 696
c-36 0 -48 -29 -52 -54l-76 11c11 75 48 125 133 125c88 0 114 -80 165 -80c36 0 48 29 52 54l76 -11c-11 -75 -48 -125 -133 -125c-88 0 -114 80 -165 80z" />
    <glyph glyph-name="aring.school" unicode="&#xe157;" horiz-adv-x="616" 
d="M451 202v126c-8 57 -67 125 -159 125c-91 0 -149 -66 -149 -188c0 -123 58 -188 149 -188c92 0 151 67 159 125zM546 398v-266l7 -132h-87l-12 76c-33 -54 -98 -88 -171 -88c-154 0 -239 100 -239 277s85 277 239 277c73 0 138 -34 171 -88l12 76h87zM179 696
c0 67 43 116 116 116s116 -49 116 -116s-43 -116 -116 -116s-116 49 -116 116zM342 696c0 29 -18 48 -47 48s-47 -19 -47 -48s18 -48 47 -48s47 19 47 48z" />
    <glyph glyph-name="acaron.school" unicode="&#xe158;" horiz-adv-x="616" 
d="M451 202v126c-8 57 -67 125 -159 125c-91 0 -149 -66 -149 -188c0 -123 58 -188 149 -188c92 0 151 67 159 125zM546 398v-266l7 -132h-87l-12 76c-33 -54 -98 -88 -171 -88c-154 0 -239 100 -239 277s85 277 239 277c73 0 138 -34 171 -88l12 76h87zM341 592h-92
l-152 208h97l101 -127l101 127h97z" />
    <glyph glyph-name="amacron.school" unicode="&#xe159;" horiz-adv-x="616" 
d="M451 202v126c-8 57 -67 125 -159 125c-91 0 -149 -66 -149 -188c0 -123 58 -188 149 -188c92 0 151 67 159 125zM546 398v-266l7 -132h-87l-12 76c-33 -54 -98 -88 -171 -88c-154 0 -239 100 -239 277s85 277 239 277c73 0 138 -34 171 -88l12 76h87zM429 652h-288v90
h288v-90z" />
    <glyph glyph-name="abreve.school" unicode="&#xe15a;" horiz-adv-x="616" 
d="M451 202v126c-8 57 -67 125 -159 125c-91 0 -149 -66 -149 -188c0 -123 58 -188 149 -188c92 0 151 67 159 125zM546 398v-266l7 -132h-87l-12 76c-33 -54 -98 -88 -171 -88c-154 0 -239 100 -239 277s85 277 239 277c73 0 138 -34 171 -88l12 76h87zM295 595
c-142 0 -188 75 -187 205h78c-1 -89 32 -121 109 -121s110 32 109 121h78c1 -130 -45 -205 -187 -205z" />
    <glyph glyph-name="ainvertedbreve.school" unicode="&#xe15b;" horiz-adv-x="616" 
d="M451 202v126c-8 57 -67 125 -159 125c-91 0 -149 -66 -149 -188c0 -123 58 -188 149 -188c92 0 151 67 159 125zM546 398v-266l7 -132h-87l-12 76c-33 -54 -98 -88 -171 -88c-154 0 -239 100 -239 277s85 277 239 277c73 0 138 -34 171 -88l12 76h87zM295 797
c142 0 188 -75 187 -205h-78c1 89 -32 121 -109 121s-110 -32 -109 -121h-78c-1 130 45 205 187 205z" />
    <glyph glyph-name="adoublegrave.school" unicode="&#xe15c;" horiz-adv-x="616" 
d="M451 202v126c-8 57 -67 125 -159 125c-91 0 -149 -66 -149 -188c0 -123 58 -188 149 -188c92 0 151 67 159 125zM546 398v-266l7 -132h-87l-12 76c-33 -54 -98 -88 -171 -88c-154 0 -239 100 -239 277s85 277 239 277c73 0 138 -34 171 -88l12 76h87zM218 800h112
l94 -208h-95zM58 800h112l94 -208h-95z" />
    <glyph glyph-name="adotabove.school" unicode="&#xe15d;" horiz-adv-x="616" 
d="M451 202v126c-8 57 -67 125 -159 125c-91 0 -149 -66 -149 -188c0 -123 58 -188 149 -188c92 0 151 67 159 125zM546 398v-266l7 -132h-87l-12 76c-33 -54 -98 -88 -171 -88c-154 0 -239 100 -239 277s85 277 239 277c73 0 138 -34 171 -88l12 76h87zM346 750v-111h-112
v111h112z" />
    <glyph glyph-name="aringacute.school" unicode="&#xe15e;" horiz-adv-x="616" 
d="M451 202v126c-8 57 -67 125 -159 125c-91 0 -149 -66 -149 -188c0 -123 58 -188 149 -188c92 0 151 67 159 125zM546 398v-266l7 -132h-87l-12 76c-33 -54 -98 -88 -171 -88c-154 0 -239 100 -239 277s85 277 239 277c73 0 138 -34 171 -88l12 76h87zM361 904l-58 -93
c68 -3 108 -51 108 -115c0 -67 -43 -116 -116 -116c-74 0 -116 49 -116 116c0 22 6 42 15 60l72 148h95zM295 744c-30 0 -47 -19 -47 -48s17 -48 47 -48c29 0 47 19 47 48s-18 48 -47 48z" />
    <glyph glyph-name="adieresismacron.school" unicode="&#xe15f;" horiz-adv-x="616" 
d="M451 202v126c-8 57 -67 125 -159 125c-91 0 -149 -66 -149 -188c0 -123 58 -188 149 -188c92 0 151 67 159 125zM546 398v-266l7 -132h-87l-12 76c-33 -54 -98 -88 -171 -88c-154 0 -239 100 -239 277s85 277 239 277c73 0 138 -34 171 -88l12 76h87zM246 710v-111h-112
v111h112zM446 710v-111h-112v111h112zM146 752v90h288v-90h-288z" />
    <glyph glyph-name="aogonek.school" unicode="&#xe150;" horiz-adv-x="616" 
d="M546 398v-266l7 -132c-68 -21 -96 -61 -96 -96c0 -28 18 -43 46 -43c29 0 50 8 69 17l22 -65c-21 -13 -57 -25 -102 -25c-61 0 -117 28 -117 104c0 48 31 96 87 131l-10 64c-25 -53 -96 -99 -169 -99c-154 0 -239 100 -239 277s85 277 239 277c73 0 138 -34 171 -88
l12 76h87zM451 202v126c-8 57 -67 125 -159 125c-91 0 -149 -66 -149 -188c0 -123 58 -188 149 -188c92 0 152 76 159 125z" />
    <glyph glyph-name="ordfeminine.school" unicode="&#xe182;" horiz-adv-x="490" 
d="M130 585c0 -92 49 -129 110 -129c63 0 98 42 106 79v100c-8 37 -43 79 -106 79c-61 0 -110 -37 -110 -129zM433 680v-190l7 -100h-79l-8 50c-26 -38 -71 -60 -126 -60c-110 0 -183 72 -183 205s73 205 183 205c55 0 100 -22 126 -60l8 50h79z" />
    <glyph glyph-name="a.smcp" unicode="&#xe201;" horiz-adv-x="598" 
d="M253 576h92l240 -576h-104l-51 131h-262l-51 -131h-104zM254 350l-55 -139h199l-54 139l-45 119z" />
    <glyph glyph-name="a.smcp" unicode="&#xf761;" horiz-adv-x="598" 
d="M253 576h92l240 -576h-104l-51 131h-262l-51 -131h-104zM254 350l-55 -139h199l-54 139l-45 119z" />
    <glyph glyph-name="b.smcp" unicode="&#xe202;" horiz-adv-x="602" 
d="M366 0h-287v564h288c75 0 179 -24 179 -151c0 -67 -35 -105 -71 -115c49 -9 88 -59 88 -134c0 -134 -97 -164 -197 -164zM175 87h190c55 0 100 14 100 79c0 64 -42 81 -94 81h-196v-160zM359 476h-184v-142h184c61 0 89 21 89 75c0 51 -26 67 -89 67z" />
    <glyph glyph-name="b.smcp" unicode="&#xf762;" horiz-adv-x="602" 
d="M366 0h-287v564h288c75 0 179 -24 179 -151c0 -67 -35 -105 -71 -115c49 -9 88 -59 88 -134c0 -134 -97 -164 -197 -164zM175 87h190c55 0 100 14 100 79c0 64 -42 81 -94 81h-196v-160zM359 476h-184v-142h184c61 0 89 21 89 75c0 51 -26 67 -89 67z" />
    <glyph glyph-name="c.smcp" unicode="&#xe203;" horiz-adv-x="650" 
d="M54 282c0 181 92 294 283 294c169 0 250 -70 262 -176l-100 -11c-10 67 -66 99 -159 99c-129 0 -186 -78 -186 -206s57 -206 186 -206c93 0 149 32 159 99l100 -11c-12 -106 -93 -176 -262 -176c-191 0 -283 113 -283 294z" />
    <glyph glyph-name="c.smcp" unicode="&#xf763;" horiz-adv-x="650" 
d="M54 282c0 181 92 294 283 294c169 0 250 -70 262 -176l-100 -11c-10 67 -66 99 -159 99c-129 0 -186 -78 -186 -206s57 -206 186 -206c93 0 149 32 159 99l100 -11c-12 -106 -93 -176 -262 -176c-191 0 -283 113 -283 294z" />
    <glyph glyph-name="d.smcp" unicode="&#xe204;" horiz-adv-x="645" 
d="M591 282c0 -195 -98 -282 -277 -282h-235v564h235c179 0 277 -87 277 -282zM176 476v-389h147c115 0 169 71 169 195c0 123 -54 194 -169 194h-147z" />
    <glyph glyph-name="d.smcp" unicode="&#xf764;" horiz-adv-x="645" 
d="M591 282c0 -195 -98 -282 -277 -282h-235v564h235c179 0 277 -87 277 -282zM176 476v-389h147c115 0 169 71 169 195c0 123 -54 194 -169 194h-147z" />
    <glyph glyph-name="e.smcp" unicode="&#xe205;" horiz-adv-x="592" 
d="M79 564h436v-88h-340v-142h302v-88h-302v-158h358v-88h-454v564z" />
    <glyph glyph-name="e.smcp" unicode="&#xf765;" horiz-adv-x="592" 
d="M79 564h436v-88h-340v-142h302v-88h-302v-158h358v-88h-454v564z" />
    <glyph glyph-name="f.smcp" unicode="&#xe206;" horiz-adv-x="530" 
d="M175 246v-246h-96v564h412v-88h-316v-142h277v-88h-277z" />
    <glyph glyph-name="f.smcp" unicode="&#xf766;" horiz-adv-x="530" 
d="M175 246v-246h-96v564h412v-88h-316v-142h277v-88h-277z" />
    <glyph glyph-name="g.smcp" unicode="&#xe207;" horiz-adv-x="678" 
d="M54 282c0 181 96 294 286 294c167 0 252 -70 264 -176l-100 -11c-10 67 -64 99 -161 99c-129 0 -189 -78 -189 -206c0 -136 62 -206 204 -206c69 0 121 16 146 29v119h-135v82h231v-254c-60 -38 -139 -64 -261 -64c-189 0 -285 113 -285 294z" />
    <glyph glyph-name="g.smcp" unicode="&#xf767;" horiz-adv-x="678" 
d="M54 282c0 181 96 294 286 294c167 0 252 -70 264 -176l-100 -11c-10 67 -64 99 -161 99c-129 0 -189 -78 -189 -206c0 -136 62 -206 204 -206c69 0 121 16 146 29v119h-135v82h231v-254c-60 -38 -139 -64 -261 -64c-189 0 -285 113 -285 294z" />
    <glyph glyph-name="h.smcp" unicode="&#xe208;" horiz-adv-x="664" 
d="M489 564h96v-564h-96v246h-314v-246h-96v564h96v-230h314v230z" />
    <glyph glyph-name="h.smcp" unicode="&#xf768;" horiz-adv-x="664" 
d="M489 564h96v-564h-96v246h-314v-246h-96v564h96v-230h314v230z" />
    <glyph glyph-name="i.smcp" unicode="&#xe209;" horiz-adv-x="296" 
d="M196 564v-564h-96v564h96z" />
    <glyph glyph-name="i.smcp" unicode="&#xf769;" horiz-adv-x="296" 
d="M196 564v-564h-96v564h96z" />
    <glyph glyph-name="j.smcp" unicode="&#xe20a;" horiz-adv-x="465" 
d="M297 564h96v-394c0 -109 -71 -182 -203 -182c-153 0 -178 84 -181 157l96 12c2 -42 15 -82 89 -82c70 0 103 30 103 96v393z" />
    <glyph glyph-name="j.smcp" unicode="&#xf76a;" horiz-adv-x="465" 
d="M297 564h96v-394c0 -109 -71 -182 -203 -182c-153 0 -178 84 -181 157l96 12c2 -42 15 -82 89 -82c70 0 103 30 103 96v393z" />
    <glyph glyph-name="k.smcp" unicode="&#xe20b;" horiz-adv-x="577" 
d="M566 0h-128l-195 243l-68 -72v-171h-96v564h96v-266l241 266h131l-240 -253z" />
    <glyph glyph-name="k.smcp" unicode="&#xf76b;" horiz-adv-x="577" 
d="M566 0h-128l-195 243l-68 -72v-171h-96v564h96v-266l241 266h131l-240 -253z" />
    <glyph glyph-name="l.smcp" unicode="&#xe20c;" horiz-adv-x="489" 
d="M175 564v-476h295v-88h-391v564h96z" />
    <glyph glyph-name="l.smcp" unicode="&#xf76c;" horiz-adv-x="489" 
d="M175 564v-476h295v-88h-391v564h96z" />
    <glyph glyph-name="m.smcp" unicode="&#xe20d;" horiz-adv-x="766" 
d="M542 276l-117 -276h-84l-117 276l-53 121l4 -397h-96v564h114l145 -335l45 -104l45 104l145 335h114v-564h-96l4 397z" />
    <glyph glyph-name="m.smcp" unicode="&#xf76d;" horiz-adv-x="766" 
d="M542 276l-117 -276h-84l-117 276l-53 121l4 -397h-96v564h114l145 -335l45 -104l45 104l145 335h114v-564h-96l4 397z" />
    <glyph glyph-name="n.smcp" unicode="&#xe20e;" horiz-adv-x="657" 
d="M491 0l-225 287l-94 120l3 -145v-262h-96v564h87l317 -408l-2 144v264h97v-564h-87z" />
    <glyph glyph-name="n.smcp" unicode="&#xf76e;" horiz-adv-x="657" 
d="M491 0l-225 287l-94 120l3 -145v-262h-96v564h87l317 -408l-2 144v264h97v-564h-87z" />
    <glyph glyph-name="o.smcp" unicode="&#xe20f;" horiz-adv-x="678" 
d="M55 282c0 187 89 294 284 294s284 -107 284 -294s-89 -294 -284 -294s-284 107 -284 294zM525 282c0 130 -57 207 -186 207s-186 -77 -186 -207s57 -207 186 -207s186 77 186 207z" />
    <glyph glyph-name="o.smcp" unicode="&#xf76f;" horiz-adv-x="678" 
d="M55 282c0 187 89 294 284 294s284 -107 284 -294s-89 -294 -284 -294s-284 107 -284 294zM525 282c0 130 -57 207 -186 207s-186 -77 -186 -207s57 -207 186 -207s186 77 186 207z" />
    <glyph glyph-name="p.smcp" unicode="&#xe200;" horiz-adv-x="568" 
d="M346 476h-171v-180h171c43 0 87 15 87 90s-44 90 -87 90zM79 0v564h254c101 0 199 -35 199 -178s-97 -178 -198 -178h-159v-208h-96z" />
    <glyph glyph-name="p.smcp" unicode="&#xf770;" horiz-adv-x="568" 
d="M346 476h-171v-180h171c43 0 87 15 87 90s-44 90 -87 90zM79 0v564h254c101 0 199 -35 199 -178s-97 -178 -198 -178h-159v-208h-96z" />
    <glyph glyph-name="q.smcp" unicode="&#xe211;" horiz-adv-x="659" 
d="M55 282c0 187 89 294 284 294s284 -107 284 -294c0 -150 -57 -248 -179 -282l74 -27l200 -77v-107l-510 220c-1 0 -2 0 -3 1l-7 3c-97 42 -143 135 -143 269zM525 282c0 130 -57 207 -186 207s-186 -77 -186 -207s57 -207 186 -207s186 77 186 207z" />
    <glyph glyph-name="q.smcp" unicode="&#xf771;" horiz-adv-x="659" 
d="M55 282c0 187 89 294 284 294s284 -107 284 -294c0 -150 -57 -248 -179 -282l74 -27l200 -77v-107l-510 220c-1 0 -2 0 -3 1l-7 3c-97 42 -143 135 -143 269zM525 282c0 130 -57 207 -186 207s-186 -77 -186 -207s57 -207 186 -207s186 77 186 207z" />
    <glyph glyph-name="r.smcp" unicode="&#xe212;" horiz-adv-x="621" 
d="M175 222v-222h-96v564h278c99 0 202 -31 202 -171c0 -99 -52 -143 -117 -161l142 -232h-118l-128 222h-163zM175 309h187c56 0 99 15 99 84s-43 84 -99 84h-187v-168z" />
    <glyph glyph-name="r.smcp" unicode="&#xf772;" horiz-adv-x="621" 
d="M175 222v-222h-96v564h278c99 0 202 -31 202 -171c0 -99 -52 -143 -117 -161l142 -232h-118l-128 222h-163zM175 309h187c56 0 99 15 99 84s-43 84 -99 84h-187v-168z" />
    <glyph glyph-name="s.smcp" unicode="&#xe213;" horiz-adv-x="620" 
d="M465 167c0 60 -46 74 -157 85c-101 10 -233 25 -233 150c0 121 109 174 235 174c164 0 239 -65 250 -173l-100 -12c-8 69 -46 97 -141 97c-65 0 -147 -11 -147 -81c0 -50 49 -64 143 -73c134 -13 248 -26 248 -165c0 -129 -124 -181 -257 -181c-177 0 -244 68 -252 176
l98 11c8 -70 57 -99 153 -99c84 0 160 21 160 91z" />
    <glyph glyph-name="s.smcp" unicode="&#xf773;" horiz-adv-x="620" 
d="M465 167c0 60 -46 74 -157 85c-101 10 -233 25 -233 150c0 121 109 174 235 174c164 0 239 -65 250 -173l-100 -12c-8 69 -46 97 -141 97c-65 0 -147 -11 -147 -81c0 -50 49 -64 143 -73c134 -13 248 -26 248 -165c0 -129 -124 -181 -257 -181c-177 0 -244 68 -252 176
l98 11c8 -70 57 -99 153 -99c84 0 160 21 160 91z" />
    <glyph glyph-name="t.smcp" unicode="&#xe214;" horiz-adv-x="506" 
d="M301 476v-476h-96v476h-191v88h478v-88h-191z" />
    <glyph glyph-name="t.smcp" unicode="&#xf774;" horiz-adv-x="506" 
d="M301 476v-476h-96v476h-191v88h478v-88h-191z" />
    <glyph glyph-name="u.smcp" unicode="&#xe215;" horiz-adv-x="648" 
d="M324 -12c-197 0 -255 101 -255 223v353h96v-345c0 -75 21 -144 159 -144s159 69 159 144v345h96v-353c0 -122 -58 -223 -255 -223z" />
    <glyph glyph-name="u.smcp" unicode="&#xf775;" horiz-adv-x="648" 
d="M324 -12c-197 0 -255 101 -255 223v353h96v-345c0 -75 21 -144 159 -144s159 69 159 144v345h96v-353c0 -122 -58 -223 -255 -223z" />
    <glyph glyph-name="v.smcp" unicode="&#xe216;" horiz-adv-x="598" 
d="M345 -12h-92l-240 576h104l137 -350l45 -119l45 119l137 350h104z" />
    <glyph glyph-name="v.smcp" unicode="&#xf776;" horiz-adv-x="598" 
d="M345 -12h-92l-240 576h104l137 -350l45 -119l45 119l137 350h104z" />
    <glyph glyph-name="w.smcp" unicode="&#xe217;" horiz-adv-x="866" 
d="M471 338l-38 116l-38 -116l-131 -350h-82l-151 576h98l77 -304l26 -118l40 111l116 311h90l116 -311l40 -111l26 118l77 304h98l-151 -576h-82z" />
    <glyph glyph-name="w.smcp" unicode="&#xf777;" horiz-adv-x="866" 
d="M471 338l-38 116l-38 -116l-131 -350h-82l-151 576h98l77 -304l26 -118l40 111l116 311h90l116 -311l40 -111l26 118l77 304h98l-151 -576h-82z" />
    <glyph glyph-name="x.smcp" unicode="&#xe218;" horiz-adv-x="634" 
d="M364 164l-47 63l-47 -63l-127 -164h-116l236 295l-36 46l-182 223h114l117 -155l41 -52l41 52l117 155h114l-182 -223l-39 -46l43 -50l196 -245h-116z" />
    <glyph glyph-name="x.smcp" unicode="&#xf778;" horiz-adv-x="634" 
d="M364 164l-47 63l-47 -63l-127 -164h-116l236 295l-36 46l-182 223h114l117 -155l41 -52l41 52l117 155h114l-182 -223l-39 -46l43 -50l196 -245h-116z" />
    <glyph glyph-name="y.smcp" unicode="&#xe219;" horiz-adv-x="586" 
d="M9 564h112l98 -157l74 -122l74 122l98 157h112l-236 -365v-199h-96v199z" />
    <glyph glyph-name="y.smcp" unicode="&#xf779;" horiz-adv-x="586" 
d="M9 564h112l98 -157l74 -122l74 122l98 157h112l-236 -365v-199h-96v199z" />
    <glyph glyph-name="z.smcp" unicode="&#xe21a;" horiz-adv-x="563" 
d="M42 0v73l283 322l73 82l-132 -1h-207v88h465v-73l-283 -322l-73 -82l132 1h224v-88h-482z" />
    <glyph glyph-name="z.smcp" unicode="&#xf77a;" horiz-adv-x="563" 
d="M42 0v73l283 322l73 82l-132 -1h-207v88h465v-73l-283 -322l-73 -82l132 1h224v-88h-482z" />
    <glyph glyph-name="agrave.smcp" unicode="&#xe222;" horiz-adv-x="598" 
d="M253 576h92l240 -576h-104l-51 131h-262l-51 -131h-104zM254 350l-55 -139h199l-54 139l-45 119zM139 810h112l94 -208h-95z" />
    <glyph glyph-name="agrave.smcp" unicode="&#xf7e0;" horiz-adv-x="598" 
d="M253 576h92l240 -576h-104l-51 131h-262l-51 -131h-104zM254 350l-55 -139h199l-54 139l-45 119zM139 810h112l94 -208h-95z" />
    <glyph glyph-name="aacute.smcp" unicode="&#xe221;" horiz-adv-x="598" 
d="M253 576h92l240 -576h-104l-51 131h-262l-51 -131h-104zM254 350l-55 -139h199l-54 139l-45 119zM347 810h112l-111 -208h-95z" />
    <glyph glyph-name="aacute.smcp" unicode="&#xf7e1;" horiz-adv-x="598" 
d="M253 576h92l240 -576h-104l-51 131h-262l-51 -131h-104zM254 350l-55 -139h199l-54 139l-45 119zM347 810h112l-111 -208h-95z" />
    <glyph glyph-name="acircumflex.smcp" unicode="&#xe223;" horiz-adv-x="598" 
d="M253 576h92l240 -576h-104l-51 131h-262l-51 -131h-104zM254 810h92l152 -208h-97l-101 127l-101 -127h-97zM254 350l-55 -139h199l-54 139l-45 119z" />
    <glyph glyph-name="acircumflex.smcp" unicode="&#xf7e2;" horiz-adv-x="598" 
d="M253 576h92l240 -576h-104l-51 131h-262l-51 -131h-104zM254 810h92l152 -208h-97l-101 127l-101 -127h-97zM254 350l-55 -139h199l-54 139l-45 119z" />
    <glyph glyph-name="adieresis.smcp" unicode="&#xe224;" horiz-adv-x="598" 
d="M253 576h92l240 -576h-104l-51 131h-262l-51 -131h-104zM254 350l-55 -139h199l-54 139l-45 119zM255 760v-111h-112v111h112zM455 760v-111h-112v111h112z" />
    <glyph glyph-name="adieresis.smcp" unicode="&#xf7e4;" horiz-adv-x="598" 
d="M253 576h92l240 -576h-104l-51 131h-262l-51 -131h-104zM254 350l-55 -139h199l-54 139l-45 119zM255 760v-111h-112v111h112zM455 760v-111h-112v111h112z" />
    <glyph glyph-name="atilde.smcp" unicode="&#xe225;" horiz-adv-x="598" 
d="M253 576h92l240 -576h-104l-51 131h-262l-51 -131h-104zM254 350l-55 -139h199l-54 139l-45 119zM215 706c-36 0 -48 -29 -52 -54l-76 11c11 75 48 125 133 125c88 0 114 -80 165 -80c36 0 48 29 52 54l76 -11c-11 -75 -48 -125 -133 -125c-88 0 -114 80 -165 80z" />
    <glyph glyph-name="atilde.smcp" unicode="&#xf7e3;" horiz-adv-x="598" 
d="M253 576h92l240 -576h-104l-51 131h-262l-51 -131h-104zM254 350l-55 -139h199l-54 139l-45 119zM215 706c-36 0 -48 -29 -52 -54l-76 11c11 75 48 125 133 125c88 0 114 -80 165 -80c36 0 48 29 52 54l76 -11c-11 -75 -48 -125 -133 -125c-88 0 -114 80 -165 80z" />
    <glyph glyph-name="aring.smcp" unicode="&#xe226;" horiz-adv-x="598" 
d="M253 576h92l240 -576h-104l-51 131h-262l-51 -131h-104zM184 706c0 67 43 116 116 116s116 -49 116 -116s-43 -116 -116 -116s-116 49 -116 116zM254 350l-55 -139h199l-54 139l-45 119zM347 706c0 29 -18 48 -47 48s-47 -19 -47 -48s18 -48 47 -48s47 19 47 48z" />
    <glyph glyph-name="aring.smcp" unicode="&#xf7e5;" horiz-adv-x="598" 
d="M253 576h92l240 -576h-104l-51 131h-262l-51 -131h-104zM184 706c0 67 43 116 116 116s116 -49 116 -116s-43 -116 -116 -116s-116 49 -116 116zM254 350l-55 -139h199l-54 139l-45 119zM347 706c0 29 -18 48 -47 48s-47 -19 -47 -48s18 -48 47 -48s47 19 47 48z" />
    <glyph glyph-name="acaron.smcp" unicode="&#xe227;" horiz-adv-x="598" 
d="M253 576h92l240 -576h-104l-51 131h-262l-51 -131h-104zM346 602h-92l-152 208h97l101 -127l101 127h97zM254 350l-55 -139h199l-54 139l-45 119z" />
    <glyph glyph-name="amacron.smcp" unicode="&#xe228;" horiz-adv-x="598" 
d="M253 576h92l240 -576h-104l-51 131h-262l-51 -131h-104zM443 662h-288v90h288v-90zM254 350l-55 -139h199l-54 139l-45 119z" />
    <glyph glyph-name="amacron.smcp" unicode="&#xf641;" horiz-adv-x="598" 
d="M253 576h92l240 -576h-104l-51 131h-262l-51 -131h-104zM443 662h-288v90h288v-90zM254 350l-55 -139h199l-54 139l-45 119z" />
    <glyph glyph-name="abreve.smcp" unicode="&#xe229;" horiz-adv-x="598" 
d="M253 576h92l240 -576h-104l-51 131h-262l-51 -131h-104zM300 605c-142 0 -188 75 -187 205h78c-1 -89 32 -121 109 -121s110 32 109 121h78c1 -130 -45 -205 -187 -205zM254 350l-55 -139h199l-54 139l-45 119z" />
    <glyph glyph-name="abreve.smcp" unicode="&#xf640;" horiz-adv-x="598" 
d="M253 576h92l240 -576h-104l-51 131h-262l-51 -131h-104zM300 605c-142 0 -188 75 -187 205h78c-1 -89 32 -121 109 -121s110 32 109 121h78c1 -130 -45 -205 -187 -205zM254 350l-55 -139h199l-54 139l-45 119z" />
    <glyph glyph-name="ainvertedbreve.smcp" unicode="&#xe22a;" horiz-adv-x="598" 
d="M253 576h92l240 -576h-104l-51 131h-262l-51 -131h-104zM300 807c142 0 188 -75 187 -205h-78c1 89 -32 121 -109 121s-110 -32 -109 -121h-78c-1 130 45 205 187 205zM254 350l-55 -139h199l-54 139l-45 119z" />
    <glyph glyph-name="adoublegrave.smcp" unicode="&#xe22b;" horiz-adv-x="598" 
d="M253 576h92l240 -576h-104l-51 131h-262l-51 -131h-104zM254 350l-55 -139h199l-54 139l-45 119zM219 810h112l94 -208h-95zM59 810h112l94 -208h-95z" />
    <glyph glyph-name="adotabove.smcp" unicode="&#xe22c;" horiz-adv-x="598" 
d="M253 576h92l240 -576h-104l-51 131h-262l-51 -131h-104zM254 350l-55 -139h199l-54 139l-45 119zM355 760v-111h-112v111h112z" />
    <glyph glyph-name="aringacute.smcp" unicode="&#xe22d;" horiz-adv-x="598" 
d="M253 576h92l240 -576h-104l-51 131h-262l-51 -131h-104zM254 350l-55 -139h199l-54 139l-45 119zM366 914l-58 -93c68 -3 108 -51 108 -115c0 -67 -43 -116 -116 -116c-74 0 -116 49 -116 116c0 22 6 42 15 60l72 148h95zM300 754c-30 0 -47 -19 -47 -48s17 -48 47 -48
c29 0 47 19 47 48s-18 48 -47 48z" />
    <glyph glyph-name="aringacute.smcp" unicode="&#xf625;" horiz-adv-x="598" 
d="M253 576h92l240 -576h-104l-51 131h-262l-51 -131h-104zM254 350l-55 -139h199l-54 139l-45 119zM366 914l-58 -93c68 -3 108 -51 108 -115c0 -67 -43 -116 -116 -116c-74 0 -116 49 -116 116c0 22 6 42 15 60l72 148h95zM300 754c-30 0 -47 -19 -47 -48s17 -48 47 -48
c29 0 47 19 47 48s-18 48 -47 48z" />
    <glyph glyph-name="adieresismacron.smcp" unicode="&#xe22e;" horiz-adv-x="598" 
d="M253 576h92l240 -576h-104l-51 131h-262l-51 -131h-104zM254 350l-55 -139h199l-54 139l-45 119zM255 725v-111h-112v111h112zM455 725v-111h-112v111h112zM155 762v90h288v-90h-288z" />
    <glyph glyph-name="aogonek.smcp" unicode="&#xe22f;" horiz-adv-x="598" 
d="M253 576h92l240 -576c-68 -8 -126 -53 -126 -99c0 -24 13 -40 46 -40c29 0 70 17 69 19l22 -67c-21 -13 -57 -25 -102 -25c-61 0 -117 28 -117 104c0 52 36 99 94 132l-41 107h-262l-51 -131h-104zM254 350l-55 -139h199l-54 139l-45 119z" />
    <glyph glyph-name="aogonek.smcp" unicode="&#xf642;" horiz-adv-x="598" 
d="M253 576h92l240 -576c-68 -8 -126 -53 -126 -99c0 -24 13 -40 46 -40c29 0 70 17 69 19l22 -67c-21 -13 -57 -25 -102 -25c-61 0 -117 28 -117 104c0 52 36 99 94 132l-41 107h-262l-51 -131h-104zM254 350l-55 -139h199l-54 139l-45 119z" />
    <glyph glyph-name="anocross.smcp" unicode="&#xe220;" horiz-adv-x="598" 
d="M253 576h92l240 -576h-104l-137 350l-45 119l-45 -119l-137 -350h-104z" />
    <glyph glyph-name="ae.smcp" unicode="&#xe231;" horiz-adv-x="905" 
d="M316 564h512v-88h-372l37 -142h297v-88h-274l42 -158h288v-88h-367l-43 166h-233l-88 -166h-106zM359 460l-114 -214h170l-25 96z" />
    <glyph glyph-name="ae.smcp" unicode="&#xf7e6;" horiz-adv-x="905" 
d="M316 564h512v-88h-372l37 -142h297v-88h-274l42 -158h288v-88h-367l-43 166h-233l-88 -166h-106zM359 460l-114 -214h170l-25 96z" />
    <glyph glyph-name="aeacute.smcp" unicode="&#xe232;" horiz-adv-x="905" 
d="M316 564h512v-88h-372l37 -142h297v-88h-274l42 -158h288v-88h-367l-43 166h-233l-88 -166h-106zM446 810h112l-111 -208h-95zM359 460l-114 -214h170l-25 96z" />
    <glyph glyph-name="aeacute.smcp" unicode="&#xf624;" horiz-adv-x="905" 
d="M316 564h512v-88h-372l37 -142h297v-88h-274l42 -158h288v-88h-367l-43 166h-233l-88 -166h-106zM446 810h112l-111 -208h-95zM359 460l-114 -214h170l-25 96z" />
    <glyph glyph-name="aemacron.smcp" unicode="&#xe233;" horiz-adv-x="905" 
d="M316 564h512v-88h-372l37 -142h297v-88h-274l42 -158h288v-88h-367l-43 166h-233l-88 -166h-106zM599 662h-288v90h288v-90zM359 460l-114 -214h170l-25 96z" />
    <glyph glyph-name="cacute.smcp" unicode="&#xe234;" horiz-adv-x="650" 
d="M54 282c0 181 92 294 283 294c169 0 250 -70 262 -176l-100 -11c-10 67 -66 99 -159 99c-129 0 -186 -78 -186 -206s57 -206 186 -206c93 0 149 32 159 99l100 -11c-12 -106 -93 -176 -262 -176c-191 0 -283 113 -283 294zM382 810h112l-111 -208h-95z" />
    <glyph glyph-name="cacute.smcp" unicode="&#xf643;" horiz-adv-x="650" 
d="M54 282c0 181 92 294 283 294c169 0 250 -70 262 -176l-100 -11c-10 67 -66 99 -159 99c-129 0 -186 -78 -186 -206s57 -206 186 -206c93 0 149 32 159 99l100 -11c-12 -106 -93 -176 -262 -176c-191 0 -283 113 -283 294zM382 810h112l-111 -208h-95z" />
    <glyph glyph-name="ccircumflex.smcp" unicode="&#xe235;" horiz-adv-x="650" 
d="M54 282c0 181 92 294 283 294c169 0 250 -70 262 -176l-100 -11c-10 67 -66 99 -159 99c-129 0 -186 -78 -186 -206s57 -206 186 -206c93 0 149 32 159 99l100 -11c-12 -106 -93 -176 -262 -176c-191 0 -283 113 -283 294zM289 810h92l152 -208h-97l-101 127l-101 -127
h-97z" />
    <glyph glyph-name="ccircumflex.smcp" unicode="&#xf628;" horiz-adv-x="650" 
d="M54 282c0 181 92 294 283 294c169 0 250 -70 262 -176l-100 -11c-10 67 -66 99 -159 99c-129 0 -186 -78 -186 -206s57 -206 186 -206c93 0 149 32 159 99l100 -11c-12 -106 -93 -176 -262 -176c-191 0 -283 113 -283 294zM289 810h92l152 -208h-97l-101 127l-101 -127
h-97z" />
    <glyph glyph-name="ccaron.smcp" unicode="&#xe236;" horiz-adv-x="650" 
d="M54 282c0 181 92 294 283 294c169 0 250 -70 262 -176l-100 -11c-10 67 -66 99 -159 99c-129 0 -186 -78 -186 -206s57 -206 186 -206c93 0 149 32 159 99l100 -11c-12 -106 -93 -176 -262 -176c-191 0 -283 113 -283 294zM381 602h-92l-152 208h97l101 -127l101 127h97z
" />
    <glyph glyph-name="ccaron.smcp" unicode="&#xf644;" horiz-adv-x="650" 
d="M54 282c0 181 92 294 283 294c169 0 250 -70 262 -176l-100 -11c-10 67 -66 99 -159 99c-129 0 -186 -78 -186 -206s57 -206 186 -206c93 0 149 32 159 99l100 -11c-12 -106 -93 -176 -262 -176c-191 0 -283 113 -283 294zM381 602h-92l-152 208h97l101 -127l101 127h97z
" />
    <glyph glyph-name="cdotaccent.smcp" unicode="&#xe237;" horiz-adv-x="650" 
d="M54 282c0 181 92 294 283 294c169 0 250 -70 262 -176l-100 -11c-10 67 -66 99 -159 99c-129 0 -186 -78 -186 -206s57 -206 186 -206c93 0 149 32 159 99l100 -11c-12 -106 -93 -176 -262 -176c-191 0 -283 113 -283 294zM381 760v-111h-112v111h112z" />
    <glyph glyph-name="cdotaccent.smcp" unicode="&#xf629;" horiz-adv-x="650" 
d="M54 282c0 181 92 294 283 294c169 0 250 -70 262 -176l-100 -11c-10 67 -66 99 -159 99c-129 0 -186 -78 -186 -206s57 -206 186 -206c93 0 149 32 159 99l100 -11c-12 -106 -93 -176 -262 -176c-191 0 -283 113 -283 294zM381 760v-111h-112v111h112z" />
    <glyph glyph-name="ccedilla.smcp" unicode="&#xe238;" horiz-adv-x="650" 
d="M54 282c0 181 92 294 283 294c169 0 250 -70 262 -176l-100 -11c-10 67 -66 99 -159 99c-129 0 -186 -78 -186 -206s57 -206 186 -206c93 0 149 32 159 99l100 -11c-12 -102 -87 -170 -244 -175l-6 -24c46 -11 89 -37 89 -91c0 -60 -55 -86 -122 -86c-42 0 -78 11 -92 18
l17 53s26 -14 55 -14c22 0 56 5 56 30c0 31 -39 44 -87 49l23 67c-158 18 -234 126 -234 291z" />
    <glyph glyph-name="ccedilla.smcp" unicode="&#xf7e7;" horiz-adv-x="650" 
d="M54 282c0 181 92 294 283 294c169 0 250 -70 262 -176l-100 -11c-10 67 -66 99 -159 99c-129 0 -186 -78 -186 -206s57 -206 186 -206c93 0 149 32 159 99l100 -11c-12 -102 -87 -170 -244 -175l-6 -24c46 -11 89 -37 89 -91c0 -60 -55 -86 -122 -86c-42 0 -78 11 -92 18
l17 53s26 -14 55 -14c22 0 56 5 56 30c0 31 -39 44 -87 49l23 67c-158 18 -234 126 -234 291z" />
    <glyph glyph-name="dcaron.smcp" unicode="&#xe239;" horiz-adv-x="645" 
d="M591 282c0 -195 -98 -282 -277 -282h-235v564h235c179 0 277 -87 277 -282zM176 476v-389h147c115 0 169 71 169 195c0 123 -54 194 -169 194h-147zM348 602h-92l-152 208h97l101 -127l101 127h97z" />
    <glyph glyph-name="dcaron.smcp" unicode="&#xf645;" horiz-adv-x="645" 
d="M591 282c0 -195 -98 -282 -277 -282h-235v564h235c179 0 277 -87 277 -282zM176 476v-389h147c115 0 169 71 169 195c0 123 -54 194 -169 194h-147zM348 602h-92l-152 208h97l101 -127l101 127h97z" />
    <glyph glyph-name="dcedilla.smcp" unicode="&#xe23a;" horiz-adv-x="645" 
d="M591 282c0 -195 -98 -282 -277 -282h-235v564h235c179 0 277 -87 277 -282zM176 476v-389h147c115 0 169 71 169 195c0 123 -54 194 -169 194h-147zM251 -76l18 52c115 -10 155 -48 155 -102c0 -60 -55 -86 -122 -86c-42 0 -78 11 -92 18l17 53s26 -14 55 -14
c22 0 56 5 56 30c0 31 -39 44 -87 49z" />
    <glyph glyph-name="ddotbelow.smcp" unicode="&#xe23b;" horiz-adv-x="645" 
d="M591 282c0 -195 -98 -282 -277 -282h-235v564h235c179 0 277 -87 277 -282zM176 476v-389h147c115 0 169 71 169 195c0 123 -54 194 -169 194h-147zM368 -62v-111h-112v111h112z" />
    <glyph glyph-name="dcroat.smcp" unicode="&#xe23c;" horiz-adv-x="690" 
d="M19 246v88h105v230h235c179 0 277 -87 277 -282s-98 -282 -277 -282h-235v246h-105zM221 476v-142h167v-88h-167v-159h147c115 0 169 71 169 195c0 123 -54 194 -169 194h-147z" />
    <glyph glyph-name="dcroat.smcp" unicode="&#xf646;" horiz-adv-x="690" 
d="M19 246v88h105v230h235c179 0 277 -87 277 -282s-98 -282 -277 -282h-235v246h-105zM221 476v-142h167v-88h-167v-159h147c115 0 169 71 169 195c0 123 -54 194 -169 194h-147z" />
    <glyph glyph-name="egrave.smcp" unicode="&#xe23e;" horiz-adv-x="592" 
d="M79 564h436v-88h-340v-142h302v-88h-302v-158h358v-88h-454v564zM149 810h112l94 -208h-95z" />
    <glyph glyph-name="egrave.smcp" unicode="&#xf7e8;" horiz-adv-x="592" 
d="M79 564h436v-88h-340v-142h302v-88h-302v-158h358v-88h-454v564zM149 810h112l94 -208h-95z" />
    <glyph glyph-name="eacute.smcp" unicode="&#xe23d;" horiz-adv-x="592" 
d="M79 564h436v-88h-340v-142h302v-88h-302v-158h358v-88h-454v564zM348 810h112l-111 -208h-95z" />
    <glyph glyph-name="eacute.smcp" unicode="&#xf7e9;" horiz-adv-x="592" 
d="M79 564h436v-88h-340v-142h302v-88h-302v-158h358v-88h-454v564zM348 810h112l-111 -208h-95z" />
    <glyph glyph-name="ecircumflex.smcp" unicode="&#xe23f;" horiz-adv-x="592" 
d="M79 564h436v-88h-340v-142h302v-88h-302v-158h358v-88h-454v564zM255 810h92l152 -208h-97l-101 127l-101 -127h-97z" />
    <glyph glyph-name="ecircumflex.smcp" unicode="&#xf7ea;" horiz-adv-x="592" 
d="M79 564h436v-88h-340v-142h302v-88h-302v-158h358v-88h-454v564zM255 810h92l152 -208h-97l-101 127l-101 -127h-97z" />
    <glyph glyph-name="edieresis.smcp" unicode="&#xe230;" horiz-adv-x="592" 
d="M79 564h436v-88h-340v-142h302v-88h-302v-158h358v-88h-454v564zM257 760v-111h-112v111h112zM457 760v-111h-112v111h112z" />
    <glyph glyph-name="edieresis.smcp" unicode="&#xf7eb;" horiz-adv-x="592" 
d="M79 564h436v-88h-340v-142h302v-88h-302v-158h358v-88h-454v564zM257 760v-111h-112v111h112zM457 760v-111h-112v111h112z" />
    <glyph glyph-name="ecaron.smcp" unicode="&#xe241;" horiz-adv-x="592" 
d="M79 564h436v-88h-340v-142h302v-88h-302v-158h358v-88h-454v564zM347 602h-92l-152 208h97l101 -127l101 127h97z" />
    <glyph glyph-name="ecaron.smcp" unicode="&#xf647;" horiz-adv-x="592" 
d="M79 564h436v-88h-340v-142h302v-88h-302v-158h358v-88h-454v564zM347 602h-92l-152 208h97l101 -127l101 127h97z" />
    <glyph glyph-name="emacron.smcp" unicode="&#xe242;" horiz-adv-x="592" 
d="M79 564h436v-88h-340v-142h302v-88h-302v-158h358v-88h-454v564zM445 662h-288v90h288v-90z" />
    <glyph glyph-name="emacron.smcp" unicode="&#xf649;" horiz-adv-x="592" 
d="M79 564h436v-88h-340v-142h302v-88h-302v-158h358v-88h-454v564zM445 662h-288v90h288v-90z" />
    <glyph glyph-name="ebreve.smcp" unicode="&#xe243;" horiz-adv-x="592" 
d="M79 564h436v-88h-340v-142h302v-88h-302v-158h358v-88h-454v564zM301 605c-142 0 -188 75 -187 205h78c-1 -89 32 -121 109 -121s110 32 109 121h78c1 -130 -45 -205 -187 -205z" />
    <glyph glyph-name="ebreve.smcp" unicode="&#xf62a;" horiz-adv-x="592" 
d="M79 564h436v-88h-340v-142h302v-88h-302v-158h358v-88h-454v564zM301 605c-142 0 -188 75 -187 205h78c-1 -89 32 -121 109 -121s110 32 109 121h78c1 -130 -45 -205 -187 -205z" />
    <glyph glyph-name="einvertedbreve.smcp" unicode="&#xe244;" horiz-adv-x="592" 
d="M79 564h436v-88h-340v-142h302v-88h-302v-158h358v-88h-454v564zM301 807c142 0 188 -75 187 -205h-78c1 89 -32 121 -109 121s-110 -32 -109 -121h-78c-1 130 45 205 187 205z" />
    <glyph glyph-name="edoublegrave.smcp" unicode="&#xe245;" horiz-adv-x="592" 
d="M79 564h436v-88h-340v-142h302v-88h-302v-158h358v-88h-454v564zM229 810h112l94 -208h-95zM69 810h112l94 -208h-95z" />
    <glyph glyph-name="edotaccent.smcp" unicode="&#xe246;" horiz-adv-x="592" 
d="M79 564h436v-88h-340v-142h302v-88h-302v-158h358v-88h-454v564zM352 760v-111h-112v111h112z" />
    <glyph glyph-name="edotaccent.smcp" unicode="&#xf648;" horiz-adv-x="592" 
d="M79 564h436v-88h-340v-142h302v-88h-302v-158h358v-88h-454v564zM352 760v-111h-112v111h112z" />
    <glyph glyph-name="uni006500600323.smcp" unicode="&#xe247;" horiz-adv-x="592" 
d="M79 564h436v-88h-340v-142h302v-88h-302v-158h358v-88h-454v564zM144 810h112l94 -208h-95zM352 -62v-111h-112v111h112z" />
    <glyph glyph-name="uni006500B40323.smcp" unicode="&#xe248;" horiz-adv-x="592" 
d="M79 564h436v-88h-340v-142h302v-88h-302v-158h358v-88h-454v564zM343 810h112l-111 -208h-95zM352 -62v-111h-112v111h112z" />
    <glyph glyph-name="eogonek.smcp" unicode="&#xe249;" horiz-adv-x="592" 
d="M79 564h436v-88h-340v-142h302v-88h-302v-158h358v-88c-68 -8 -126 -53 -126 -99c0 -24 13 -40 46 -40c29 0 70 17 69 19l22 -67c-21 -13 -57 -25 -102 -25c-61 0 -117 28 -117 104c0 40 22 78 58 108h-304v564z" />
    <glyph glyph-name="eogonek.smcp" unicode="&#xf64a;" horiz-adv-x="592" 
d="M79 564h436v-88h-340v-142h302v-88h-302v-158h358v-88c-68 -8 -126 -53 -126 -99c0 -24 13 -40 46 -40c29 0 70 17 69 19l22 -67c-21 -13 -57 -25 -102 -25c-61 0 -117 28 -117 104c0 40 22 78 58 108h-304v564z" />
    <glyph glyph-name="gacute.smcp" unicode="&#xe24a;" horiz-adv-x="678" 
d="M54 282c0 181 96 294 286 294c167 0 252 -70 264 -176l-100 -11c-10 67 -64 99 -161 99c-129 0 -189 -78 -189 -206c0 -136 62 -206 204 -206c69 0 121 16 146 29v119h-135v82h231v-254c-60 -38 -139 -64 -261 -64c-189 0 -285 113 -285 294zM386 810h112l-111 -208h-95z
" />
    <glyph glyph-name="gcircumflex.smcp" unicode="&#xe24b;" horiz-adv-x="678" 
d="M54 282c0 181 96 294 286 294c167 0 252 -70 264 -176l-100 -11c-10 67 -64 99 -161 99c-129 0 -189 -78 -189 -206c0 -136 62 -206 204 -206c69 0 121 16 146 29v119h-135v82h231v-254c-60 -38 -139 -64 -261 -64c-189 0 -285 113 -285 294zM293 810h92l152 -208h-97
l-101 127l-101 -127h-97z" />
    <glyph glyph-name="gcircumflex.smcp" unicode="&#xf62c;" horiz-adv-x="678" 
d="M54 282c0 181 96 294 286 294c167 0 252 -70 264 -176l-100 -11c-10 67 -64 99 -161 99c-129 0 -189 -78 -189 -206c0 -136 62 -206 204 -206c69 0 121 16 146 29v119h-135v82h231v-254c-60 -38 -139 -64 -261 -64c-189 0 -285 113 -285 294zM293 810h92l152 -208h-97
l-101 127l-101 -127h-97z" />
    <glyph glyph-name="gtilde.smcp" unicode="&#xe24c;" horiz-adv-x="678" 
d="M54 282c0 181 96 294 286 294c167 0 252 -70 264 -176l-100 -11c-10 67 -64 99 -161 99c-129 0 -189 -78 -189 -206c0 -136 62 -206 204 -206c69 0 121 16 146 29v119h-135v82h231v-254c-60 -38 -139 -64 -261 -64c-189 0 -285 113 -285 294zM254 706
c-36 0 -48 -29 -52 -54l-76 11c11 75 48 125 133 125c88 0 114 -80 165 -80c36 0 48 29 52 54l76 -11c-11 -75 -48 -125 -133 -125c-88 0 -114 80 -165 80z" />
    <glyph glyph-name="gcaron.smcp" unicode="&#xe24d;" horiz-adv-x="678" 
d="M54 282c0 181 96 294 286 294c167 0 252 -70 264 -176l-100 -11c-10 67 -64 99 -161 99c-129 0 -189 -78 -189 -206c0 -136 62 -206 204 -206c69 0 121 16 146 29v119h-135v82h231v-254c-60 -38 -139 -64 -261 -64c-189 0 -285 113 -285 294zM385 602h-92l-152 208h97
l101 -127l101 127h97z" />
    <glyph glyph-name="gcaron.smcp" unicode="&#xf626;" horiz-adv-x="678" 
d="M54 282c0 181 96 294 286 294c167 0 252 -70 264 -176l-100 -11c-10 67 -64 99 -161 99c-129 0 -189 -78 -189 -206c0 -136 62 -206 204 -206c69 0 121 16 146 29v119h-135v82h231v-254c-60 -38 -139 -64 -261 -64c-189 0 -285 113 -285 294zM385 602h-92l-152 208h97
l101 -127l101 127h97z" />
    <glyph glyph-name="gbreve.smcp" unicode="&#xe24e;" horiz-adv-x="678" 
d="M54 282c0 181 96 294 286 294c167 0 252 -70 264 -176l-100 -11c-10 67 -64 99 -161 99c-129 0 -189 -78 -189 -206c0 -136 62 -206 204 -206c69 0 121 16 146 29v119h-135v82h231v-254c-60 -38 -139 -64 -261 -64c-189 0 -285 113 -285 294zM339 605
c-142 0 -188 75 -187 205h78c-1 -89 32 -121 109 -121s110 32 109 121h78c1 -130 -45 -205 -187 -205z" />
    <glyph glyph-name="gbreve.smcp" unicode="&#xf64b;" horiz-adv-x="678" 
d="M54 282c0 181 96 294 286 294c167 0 252 -70 264 -176l-100 -11c-10 67 -64 99 -161 99c-129 0 -189 -78 -189 -206c0 -136 62 -206 204 -206c69 0 121 16 146 29v119h-135v82h231v-254c-60 -38 -139 -64 -261 -64c-189 0 -285 113 -285 294zM339 605
c-142 0 -188 75 -187 205h78c-1 -89 32 -121 109 -121s110 32 109 121h78c1 -130 -45 -205 -187 -205z" />
    <glyph glyph-name="gdotaccent.smcp" unicode="&#xe24f;" horiz-adv-x="678" 
d="M54 282c0 181 96 294 286 294c167 0 252 -70 264 -176l-100 -11c-10 67 -64 99 -161 99c-129 0 -189 -78 -189 -206c0 -136 62 -206 204 -206c69 0 121 16 146 29v119h-135v82h231v-254c-60 -38 -139 -64 -261 -64c-189 0 -285 113 -285 294zM395 760v-111h-112v111h112z
" />
    <glyph glyph-name="gdotaccent.smcp" unicode="&#xf62d;" horiz-adv-x="678" 
d="M54 282c0 181 96 294 286 294c167 0 252 -70 264 -176l-100 -11c-10 67 -64 99 -161 99c-129 0 -189 -78 -189 -206c0 -136 62 -206 204 -206c69 0 121 16 146 29v119h-135v82h231v-254c-60 -38 -139 -64 -261 -64c-189 0 -285 113 -285 294zM395 760v-111h-112v111h112z
" />
    <glyph glyph-name="gcommaaccent.smcp" unicode="&#xe240;" horiz-adv-x="678" 
d="M54 282c0 181 96 294 286 294c167 0 252 -70 264 -176l-100 -11c-10 67 -64 99 -161 99c-129 0 -189 -78 -189 -206c0 -136 62 -206 204 -206c69 0 121 16 146 29v119h-135v82h231v-254c-60 -38 -139 -64 -261 -64c-189 0 -285 113 -285 294zM283 -62h117l-46 -138h-88z
" />
    <glyph glyph-name="gcommaaccent.smcp" unicode="&#xf64c;" horiz-adv-x="678" 
d="M54 282c0 181 96 294 286 294c167 0 252 -70 264 -176l-100 -11c-10 67 -64 99 -161 99c-129 0 -189 -78 -189 -206c0 -136 62 -206 204 -206c69 0 121 16 146 29v119h-135v82h231v-254c-60 -38 -139 -64 -261 -64c-189 0 -285 113 -285 294zM283 -62h117l-46 -138h-88z
" />
    <glyph glyph-name="gcommaturnedabove.smcp" unicode="&#xe251;" horiz-adv-x="678" 
d="M54 282c0 181 96 294 286 294c167 0 252 -70 264 -176l-100 -11c-10 67 -64 99 -161 99c-129 0 -189 -78 -189 -206c0 -136 62 -206 204 -206c69 0 121 16 146 29v119h-135v82h231v-254c-60 -38 -139 -64 -261 -64c-189 0 -285 113 -285 294zM399 602h-117l69 208h74z
" />
    <glyph glyph-name="gstroke.smcp" unicode="&#xe252;" horiz-adv-x="678" 
d="M504 201v23h-135v82h231v-105h62v-78h-62v-71c-60 -38 -139 -64 -261 -64c-189 0 -285 113 -285 294s96 294 286 294c167 0 252 -70 264 -176l-100 -11c-10 67 -64 99 -161 99c-129 0 -189 -78 -189 -206c0 -136 62 -206 204 -206c69 0 121 16 146 29v18h-105v78h105z
" />
    <glyph glyph-name="hcircumflex.smcp" unicode="&#xe253;" horiz-adv-x="664" 
d="M489 564h96v-564h-96v246h-314v-246h-96v564h96v-230h314v230zM286 810h92l152 -208h-97l-101 127l-101 -127h-97z" />
    <glyph glyph-name="hcircumflex.smcp" unicode="&#xf62f;" horiz-adv-x="664" 
d="M489 564h96v-564h-96v246h-314v-246h-96v564h96v-230h314v230zM286 810h92l152 -208h-97l-101 127l-101 -127h-97z" />
    <glyph glyph-name="hcaron.smcp" unicode="&#xe254;" horiz-adv-x="664" 
d="M489 564h96v-564h-96v246h-314v-246h-96v564h96v-230h314v230zM378 602h-92l-152 208h97l101 -127l101 127h97z" />
    <glyph glyph-name="hdotbelow.smcp" unicode="&#xe255;" horiz-adv-x="664" 
d="M489 564h96v-564h-96v246h-314v-246h-96v564h96v-230h314v230zM388 -62v-111h-112v111h112z" />
    <glyph glyph-name="hmacronbelow.smcp" unicode="&#xe256;" horiz-adv-x="664" 
d="M489 564h96v-564h-96v246h-314v-246h-96v564h96v-230h314v230zM188 -75h288v-90h-288v90z" />
    <glyph glyph-name="hbar.smcp" unicode="&#xe257;" horiz-adv-x="664" 
d="M489 564h96v-564h-96v246h-314v-246h-96v564h96v-76h314v76zM175 410v-76h314v76h-314z" />
    <glyph glyph-name="hbar.smcp" unicode="&#xf62e;" horiz-adv-x="664" 
d="M489 564h96v-564h-96v246h-314v-246h-96v564h96v-76h314v76zM175 410v-76h314v76h-314z" />
    <glyph glyph-name="igrave.smcp" unicode="&#xe259;" horiz-adv-x="296" 
d="M196 564v-564h-96v564h96zM-11 810h112l94 -208h-95z" />
    <glyph glyph-name="igrave.smcp" unicode="&#xf7ec;" horiz-adv-x="296" 
d="M196 564v-564h-96v564h96zM-11 810h112l94 -208h-95z" />
    <glyph glyph-name="iacute.smcp" unicode="&#xe258;" horiz-adv-x="296" 
d="M196 564v-564h-96v564h96zM195 810h112l-111 -208h-95z" />
    <glyph glyph-name="iacute.smcp" unicode="&#xf7ed;" horiz-adv-x="296" 
d="M196 564v-564h-96v564h96zM195 810h112l-111 -208h-95z" />
    <glyph glyph-name="icircumflex.smcp" unicode="&#xe25a;" horiz-adv-x="296" 
d="M196 564v-564h-96v564h96zM102 810h92l152 -208h-97l-101 127l-101 -127h-97z" />
    <glyph glyph-name="icircumflex.smcp" unicode="&#xf7ee;" horiz-adv-x="296" 
d="M196 564v-564h-96v564h96zM102 810h92l152 -208h-97l-101 127l-101 -127h-97z" />
    <glyph glyph-name="idieresis.smcp" unicode="&#xe25b;" horiz-adv-x="296" 
d="M196 564v-564h-96v564h96zM104 760v-111h-112v111h112zM304 760v-111h-112v111h112z" />
    <glyph glyph-name="idieresis.smcp" unicode="&#xf7ef;" horiz-adv-x="296" 
d="M196 564v-564h-96v564h96zM104 760v-111h-112v111h112zM304 760v-111h-112v111h112z" />
    <glyph glyph-name="itilde.smcp" unicode="&#xe25c;" horiz-adv-x="296" 
d="M196 564v-564h-96v564h96zM63 706c-36 0 -48 -29 -52 -54l-76 11c11 75 48 125 133 125c88 0 114 -80 165 -80c36 0 48 29 52 54l76 -11c-11 -75 -48 -125 -133 -125c-88 0 -114 80 -165 80z" />
    <glyph glyph-name="itilde.smcp" unicode="&#xf632;" horiz-adv-x="296" 
d="M196 564v-564h-96v564h96zM63 706c-36 0 -48 -29 -52 -54l-76 11c11 75 48 125 133 125c88 0 114 -80 165 -80c36 0 48 29 52 54l76 -11c-11 -75 -48 -125 -133 -125c-88 0 -114 80 -165 80z" />
    <glyph glyph-name="icaron.smcp" unicode="&#xe25d;" horiz-adv-x="296" 
d="M196 564v-564h-96v564h96zM194 602h-92l-152 208h97l101 -127l101 127h97z" />
    <glyph glyph-name="imacron.smcp" unicode="&#xe25e;" horiz-adv-x="296" 
d="M196 564v-564h-96v564h96zM292 662h-288v90h288v-90z" />
    <glyph glyph-name="imacron.smcp" unicode="&#xf64d;" horiz-adv-x="296" 
d="M196 564v-564h-96v564h96zM292 662h-288v90h288v-90z" />
    <glyph glyph-name="ibreve.smcp" unicode="&#xe25f;" horiz-adv-x="296" 
d="M196 564v-564h-96v564h96zM148 605c-143 0 -187 75 -187 205h78c0 -89 31 -121 109 -121s109 32 109 121h78c0 -130 -44 -205 -187 -205z" />
    <glyph glyph-name="ibreve.smcp" unicode="&#xf630;" horiz-adv-x="296" 
d="M196 564v-564h-96v564h96zM148 605c-143 0 -187 75 -187 205h78c0 -89 31 -121 109 -121s109 32 109 121h78c0 -130 -44 -205 -187 -205z" />
    <glyph glyph-name="iinvertedbreve.smcp" unicode="&#xe250;" horiz-adv-x="296" 
d="M196 564v-564h-96v564h96zM148 807c142 0 188 -75 187 -205h-78c1 89 -32 121 -109 121s-110 -32 -109 -121h-78c-1 130 45 205 187 205z" />
    <glyph glyph-name="idoublegrave.smcp" unicode="&#xe261;" horiz-adv-x="296" 
d="M196 564v-564h-96v564h96zM71 810h112l94 -208h-95zM-89 810h112l94 -208h-95z" />
    <glyph glyph-name="idotaccent.smcp" unicode="&#xe262;" horiz-adv-x="296" 
d="M196 564v-564h-96v564h96zM204 760v-111h-112v111h112z" />
    <glyph glyph-name="idotaccent.smcp" unicode="&#xf666;" horiz-adv-x="296" 
d="M196 564v-564h-96v564h96zM204 760v-111h-112v111h112z" />
    <glyph glyph-name="idotbelow.smcp" unicode="&#xe263;" horiz-adv-x="296" 
d="M196 564v-564h-96v564h96zM204 -62v-111h-112v111h112z" />
    <glyph glyph-name="iogonek.smcp" unicode="&#xe264;" horiz-adv-x="296" 
d="M100 8v556h96v-564c-47 -24 -87 -59 -87 -99c0 -24 12 -40 46 -40c37 1 73 21 77 26l22 -69c-27 -18 -65 -30 -110 -30c-61 0 -117 28 -117 103c0 50 32 85 73 117z" />
    <glyph glyph-name="iogonek.smcp" unicode="&#xf64e;" horiz-adv-x="296" 
d="M100 8v556h96v-564c-47 -24 -87 -59 -87 -99c0 -24 12 -40 46 -40c37 1 73 21 77 26l22 -69c-27 -18 -65 -30 -110 -30c-61 0 -117 28 -117 103c0 50 32 85 73 117z" />
    <glyph glyph-name="jcircumflex.smcp" unicode="&#xe265;" horiz-adv-x="465" 
d="M299 810h92l152 -208h-97l-101 127l-101 -127h-97zM297 564h96v-394c0 -109 -71 -182 -203 -182c-153 0 -178 84 -181 157l96 12c2 -42 15 -82 89 -82c70 0 103 30 103 96v393z" />
    <glyph glyph-name="jcircumflex.smcp" unicode="&#xf633;" horiz-adv-x="465" 
d="M299 810h92l152 -208h-97l-101 127l-101 -127h-97zM297 564h96v-394c0 -109 -71 -182 -203 -182c-153 0 -178 84 -181 157l96 12c2 -42 15 -82 89 -82c70 0 103 30 103 96v393z" />
    <glyph glyph-name="jcaron.smcp" unicode="&#xe266;" horiz-adv-x="465" 
d="M391 602h-92l-152 208h97l101 -127l101 127h97zM297 564h96v-394c0 -109 -71 -182 -203 -182c-153 0 -178 84 -181 157l96 12c2 -42 15 -82 89 -82c70 0 103 30 103 96v393z" />
    <glyph glyph-name="kcaron.smcp" unicode="&#xe267;" horiz-adv-x="577" 
d="M566 0h-128l-195 243l-68 -72v-171h-96v564h96v-266l241 266h131l-240 -253zM335 602h-92l-152 208h97l101 -127l101 127h97z" />
    <glyph glyph-name="kcommaaccent.smcp" unicode="&#xe268;" horiz-adv-x="577" 
d="M566 0h-128l-195 243l-68 -72v-171h-96v564h96v-266l241 266h131l-240 -253zM233 -62h117l-46 -138h-88z" />
    <glyph glyph-name="kcommaaccent.smcp" unicode="&#xf64f;" horiz-adv-x="577" 
d="M566 0h-128l-195 243l-68 -72v-171h-96v564h96v-266l241 266h131l-240 -253zM233 -62h117l-46 -138h-88z" />
    <glyph glyph-name="kcedilla.smcp" unicode="&#xe269;" horiz-adv-x="577" 
d="M566 0h-128l-195 243l-68 -72v-171h-96v564h96v-266l241 266h131l-240 -253zM228 -76l18 52c115 -10 155 -48 155 -102c0 -60 -55 -86 -122 -86c-42 0 -78 11 -92 18l17 53s26 -14 55 -14c22 0 56 5 56 30c0 31 -39 44 -87 49z" />
    <glyph glyph-name="khook.smcp" unicode="&#xe26a;" horiz-adv-x="561" 
d="M511 483c-76 0 -94 -114 -182 -199l237 -284h-128l-185 230c-23 -12 -48 -21 -78 -27v-203h-96v564h96v-259c198 46 137 270 339 270c23 0 42 -4 52 -9l-13 -91c-7 4 -24 8 -42 8z" />
    <glyph glyph-name="lacute.smcp" unicode="&#xe26b;" horiz-adv-x="489" 
d="M175 564v-476h295v-88h-391v564h96zM174 810h112l-111 -208h-95z" />
    <glyph glyph-name="lacute.smcp" unicode="&#xf650;" horiz-adv-x="489" 
d="M175 564v-476h295v-88h-391v564h96zM174 810h112l-111 -208h-95z" />
    <glyph glyph-name="lcaron.smcp" unicode="&#xe26c;" horiz-adv-x="489" 
d="M175 564v-476h295v-88h-391v564h96zM320 634h108l-69 -208h-86z" />
    <glyph glyph-name="lcaron.smcp" unicode="&#xf651;" horiz-adv-x="489" 
d="M175 564v-476h295v-88h-391v564h96zM320 634h108l-69 -208h-86z" />
    <glyph glyph-name="lcommaaccent.smcp" unicode="&#xe26d;" horiz-adv-x="489" 
d="M175 564v-476h295v-88h-391v564h96zM221 -62h117l-46 -138h-88z" />
    <glyph glyph-name="lcommaaccent.smcp" unicode="&#xf652;" horiz-adv-x="489" 
d="M175 564v-476h295v-88h-391v564h96zM221 -62h117l-46 -138h-88z" />
    <glyph glyph-name="lcedilla.smcp" unicode="&#xe26e;" horiz-adv-x="489" 
d="M175 564v-476h295v-88h-391v564h96zM214 -76l18 52c115 -10 155 -48 155 -102c0 -60 -55 -86 -122 -86c-42 0 -78 11 -92 18l17 53s26 -14 55 -14c22 0 56 5 56 30c0 31 -39 44 -87 49z" />
    <glyph glyph-name="ldotbelow.smcp" unicode="&#xe26f;" horiz-adv-x="489" 
d="M175 564v-476h295v-88h-391v564h96zM219 -173v111h112v-111h-112z" />
    <glyph glyph-name="ldotbelowmacron.smcp" unicode="&#xe260;" horiz-adv-x="489" 
d="M175 564v-476h295v-88h-391v564h96zM331 -62v-111h-112v111h112zM271 662h-288v90h288v-90z" />
    <glyph glyph-name="ldot.smcp" unicode="&#xe271;" horiz-adv-x="489" 
d="M429 371v-111h-112v111h112zM175 564v-476h295v-88h-391v564h96z" />
    <glyph glyph-name="ldot.smcp" unicode="&#xf634;" horiz-adv-x="489" 
d="M429 371v-111h-112v111h112zM175 564v-476h295v-88h-391v564h96z" />
    <glyph glyph-name="lslash.smcp" unicode="&#xe272;" horiz-adv-x="524" 
d="M407 422v-80l-202 -101v-153h295v-88h-391v194l-71 -35v80l71 35v290h96v-243z" />
    <glyph glyph-name="lslash.smcp" unicode="&#xf6f9;" horiz-adv-x="524" 
d="M407 422v-80l-202 -101v-153h295v-88h-391v194l-71 -35v80l71 35v290h96v-243z" />
    <glyph glyph-name="mmacron.smcp" unicode="&#xe273;" horiz-adv-x="766" 
d="M542 276l-117 -276h-84l-117 276l-53 121l4 -397h-96v564h114l145 -335l45 -104l45 104l145 335h114v-564h-96l4 397zM527 662h-288v90h288v-90z" />
    <glyph glyph-name="mcedilla.smcp" unicode="&#xe274;" horiz-adv-x="766" 
d="M542 276l-117 -276h-84l-117 276l-53 121l4 -397h-96v564h114l145 -335l45 -104l45 104l145 335h114v-564h-96l4 397zM322 -76l18 52c115 -10 155 -48 155 -102c0 -60 -55 -86 -122 -86c-42 0 -78 11 -92 18l17 53s26 -14 55 -14c22 0 56 5 56 30c0 31 -39 44 -87 49z
" />
    <glyph glyph-name="mdotbelow.smcp" unicode="&#xe275;" horiz-adv-x="766" 
d="M542 276l-117 -276h-84l-117 276l-53 121l4 -397h-96v564h114l145 -335l45 -104l45 104l145 335h114v-564h-96l4 397zM439 -62v-111h-112v111h112z" />
    <glyph glyph-name="ngrave.smcp" unicode="&#xe277;" horiz-adv-x="657" 
d="M491 0l-225 287l-94 120l3 -145v-262h-96v564h87l317 -408l-2 144v264h97v-564h-87zM176 810h112l94 -208h-95z" />
    <glyph glyph-name="nacute.smcp" unicode="&#xe276;" horiz-adv-x="657" 
d="M491 0l-225 287l-94 120l3 -145v-262h-96v564h87l317 -408l-2 144v264h97v-564h-87zM375 810h112l-111 -208h-95z" />
    <glyph glyph-name="nacute.smcp" unicode="&#xf653;" horiz-adv-x="657" 
d="M491 0l-225 287l-94 120l3 -145v-262h-96v564h87l317 -408l-2 144v264h97v-564h-87zM375 810h112l-111 -208h-95z" />
    <glyph glyph-name="ndieresis.smcp" unicode="&#xe278;" horiz-adv-x="657" 
d="M491 0l-225 287l-94 120l3 -145v-262h-96v564h87l317 -408l-2 144v264h97v-564h-87zM484 760v-111h-112v111h112zM284 760v-111h-112v111h112z" />
    <glyph glyph-name="ntilde.smcp" unicode="&#xe279;" horiz-adv-x="657" 
d="M491 0l-225 287l-94 120l3 -145v-262h-96v564h87l317 -408l-2 144v264h97v-564h-87zM243 706c-36 0 -48 -29 -52 -54l-76 11c11 75 48 125 133 125c88 0 114 -80 165 -80c36 0 48 29 52 54l76 -11c-11 -75 -48 -125 -133 -125c-88 0 -114 80 -165 80z" />
    <glyph glyph-name="ncaron.smcp" unicode="&#xe27a;" horiz-adv-x="657" 
d="M491 0l-225 287l-94 120l3 -145v-262h-96v564h87l317 -408l-2 144v264h97v-564h-87zM374 602h-92l-152 208h97l101 -127l101 127h97z" />
    <glyph glyph-name="ncaron.smcp" unicode="&#xf654;" horiz-adv-x="657" 
d="M491 0l-225 287l-94 120l3 -145v-262h-96v564h87l317 -408l-2 144v264h97v-564h-87zM374 602h-92l-152 208h97l101 -127l101 127h97z" />
    <glyph glyph-name="nmacron.smcp" unicode="&#xe27b;" horiz-adv-x="657" 
d="M491 0l-225 287l-94 120l3 -145v-262h-96v564h87l317 -408l-2 144v264h97v-564h-87zM472 662h-288v90h288v-90z" />
    <glyph glyph-name="ndotaccent.smcp" unicode="&#xe27c;" horiz-adv-x="657" 
d="M491 0l-225 287l-94 120l3 -145v-262h-96v564h87l317 -408l-2 144v264h97v-564h-87zM384 760v-111h-112v111h112z" />
    <glyph glyph-name="ncommaaccent.smcp" unicode="&#xe27d;" horiz-adv-x="657" 
d="M491 0l-225 287l-94 120l3 -145v-262h-96v564h87l317 -408l-2 144v264h97v-564h-87zM272 -62h117l-46 -138h-88z" />
    <glyph glyph-name="ncommaaccent.smcp" unicode="&#xf655;" horiz-adv-x="657" 
d="M491 0l-225 287l-94 120l3 -145v-262h-96v564h87l317 -408l-2 144v264h97v-564h-87zM272 -62h117l-46 -138h-88z" />
    <glyph glyph-name="ncedilla.smcp" unicode="&#xe27e;" horiz-adv-x="657" 
d="M491 0l-225 287l-94 120l3 -145v-262h-96v564h87l317 -408l-2 144v264h97v-564h-87zM267 -76l18 52c115 -10 155 -48 155 -102c0 -60 -55 -86 -122 -86c-42 0 -78 11 -92 18l17 53s26 -14 55 -14c22 0 56 5 56 30c0 31 -39 44 -87 49z" />
    <glyph glyph-name="ndotbelow.smcp" unicode="&#xe27f;" horiz-adv-x="657" 
d="M491 0l-225 287l-94 120l3 -145v-262h-96v564h87l317 -408l-2 144v264h97v-564h-87zM384 -62v-111h-112v111h112z" />
    <glyph glyph-name="ndescender.smcp" unicode="&#xe270;" horiz-adv-x="657" 
d="M578 564v-764h-96v211l-216 276l-94 120l3 -145v-262h-96v564h87l317 -408l-2 144v264h97z" />
    <glyph glyph-name="ograve.smcp" unicode="&#xe282;" horiz-adv-x="678" 
d="M55 282c0 187 89 294 284 294s284 -107 284 -294s-89 -294 -284 -294s-284 107 -284 294zM525 282c0 130 -57 207 -186 207s-186 -77 -186 -207s57 -207 186 -207s186 77 186 207zM187 810h112l94 -208h-95z" />
    <glyph glyph-name="ograve.smcp" unicode="&#xf7f2;" horiz-adv-x="678" 
d="M55 282c0 187 89 294 284 294s284 -107 284 -294s-89 -294 -284 -294s-284 107 -284 294zM525 282c0 130 -57 207 -186 207s-186 -77 -186 -207s57 -207 186 -207s186 77 186 207zM187 810h112l94 -208h-95z" />
    <glyph glyph-name="oacute.smcp" unicode="&#xe281;" horiz-adv-x="678" 
d="M55 282c0 187 89 294 284 294s284 -107 284 -294s-89 -294 -284 -294s-284 107 -284 294zM525 282c0 130 -57 207 -186 207s-186 -77 -186 -207s57 -207 186 -207s186 77 186 207zM386 810h112l-111 -208h-95z" />
    <glyph glyph-name="oacute.smcp" unicode="&#xf7f3;" horiz-adv-x="678" 
d="M55 282c0 187 89 294 284 294s284 -107 284 -294s-89 -294 -284 -294s-284 107 -284 294zM525 282c0 130 -57 207 -186 207s-186 -77 -186 -207s57 -207 186 -207s186 77 186 207zM386 810h112l-111 -208h-95z" />
    <glyph glyph-name="ocircumflex.smcp" unicode="&#xe283;" horiz-adv-x="678" 
d="M55 282c0 187 89 294 284 294s284 -107 284 -294s-89 -294 -284 -294s-284 107 -284 294zM525 282c0 130 -57 207 -186 207s-186 -77 -186 -207s57 -207 186 -207s186 77 186 207zM293 810h92l152 -208h-97l-101 127l-101 -127h-97z" />
    <glyph glyph-name="ocircumflex.smcp" unicode="&#xf7f4;" horiz-adv-x="678" 
d="M55 282c0 187 89 294 284 294s284 -107 284 -294s-89 -294 -284 -294s-284 107 -284 294zM525 282c0 130 -57 207 -186 207s-186 -77 -186 -207s57 -207 186 -207s186 77 186 207zM293 810h92l152 -208h-97l-101 127l-101 -127h-97z" />
    <glyph glyph-name="odieresis.smcp" unicode="&#xe284;" horiz-adv-x="678" 
d="M55 282c0 187 89 294 284 294s284 -107 284 -294s-89 -294 -284 -294s-284 107 -284 294zM525 282c0 130 -57 207 -186 207s-186 -77 -186 -207s57 -207 186 -207s186 77 186 207zM295 760v-111h-112v111h112zM495 760v-111h-112v111h112z" />
    <glyph glyph-name="odieresis.smcp" unicode="&#xf7f6;" horiz-adv-x="678" 
d="M55 282c0 187 89 294 284 294s284 -107 284 -294s-89 -294 -284 -294s-284 107 -284 294zM525 282c0 130 -57 207 -186 207s-186 -77 -186 -207s57 -207 186 -207s186 77 186 207zM295 760v-111h-112v111h112zM495 760v-111h-112v111h112z" />
    <glyph glyph-name="otilde.smcp" unicode="&#xe285;" horiz-adv-x="678" 
d="M55 282c0 187 89 294 284 294s284 -107 284 -294s-89 -294 -284 -294s-284 107 -284 294zM525 282c0 130 -57 207 -186 207s-186 -77 -186 -207s57 -207 186 -207s186 77 186 207zM254 706c-36 0 -48 -29 -52 -54l-76 11c11 75 48 125 133 125c88 0 114 -80 165 -80
c36 0 48 29 52 54l76 -11c-11 -75 -48 -125 -133 -125c-88 0 -114 80 -165 80z" />
    <glyph glyph-name="otilde.smcp" unicode="&#xf7f5;" horiz-adv-x="678" 
d="M55 282c0 187 89 294 284 294s284 -107 284 -294s-89 -294 -284 -294s-284 107 -284 294zM525 282c0 130 -57 207 -186 207s-186 -77 -186 -207s57 -207 186 -207s186 77 186 207zM254 706c-36 0 -48 -29 -52 -54l-76 11c11 75 48 125 133 125c88 0 114 -80 165 -80
c36 0 48 29 52 54l76 -11c-11 -75 -48 -125 -133 -125c-88 0 -114 80 -165 80z" />
    <glyph glyph-name="ocaron.smcp" unicode="&#xe286;" horiz-adv-x="678" 
d="M55 282c0 187 89 294 284 294s284 -107 284 -294s-89 -294 -284 -294s-284 107 -284 294zM525 282c0 130 -57 207 -186 207s-186 -77 -186 -207s57 -207 186 -207s186 77 186 207zM385 602h-92l-152 208h97l101 -127l101 127h97z" />
    <glyph glyph-name="omacron.smcp" unicode="&#xe287;" horiz-adv-x="678" 
d="M55 282c0 187 89 294 284 294s284 -107 284 -294s-89 -294 -284 -294s-284 107 -284 294zM525 282c0 130 -57 207 -186 207s-186 -77 -186 -207s57 -207 186 -207s186 77 186 207zM483 662h-288v90h288v-90z" />
    <glyph glyph-name="omacron.smcp" unicode="&#xf657;" horiz-adv-x="678" 
d="M55 282c0 187 89 294 284 294s284 -107 284 -294s-89 -294 -284 -294s-284 107 -284 294zM525 282c0 130 -57 207 -186 207s-186 -77 -186 -207s57 -207 186 -207s186 77 186 207zM483 662h-288v90h288v-90z" />
    <glyph glyph-name="obreve.smcp" unicode="&#xe288;" horiz-adv-x="678" 
d="M55 282c0 187 89 294 284 294s284 -107 284 -294s-89 -294 -284 -294s-284 107 -284 294zM525 282c0 130 -57 207 -186 207s-186 -77 -186 -207s57 -207 186 -207s186 77 186 207zM339 605c-142 0 -188 75 -187 205h78c-1 -89 32 -121 109 -121s110 32 109 121h78
c1 -130 -45 -205 -187 -205z" />
    <glyph glyph-name="obreve.smcp" unicode="&#xf635;" horiz-adv-x="678" 
d="M55 282c0 187 89 294 284 294s284 -107 284 -294s-89 -294 -284 -294s-284 107 -284 294zM525 282c0 130 -57 207 -186 207s-186 -77 -186 -207s57 -207 186 -207s186 77 186 207zM339 605c-142 0 -188 75 -187 205h78c-1 -89 32 -121 109 -121s110 32 109 121h78
c1 -130 -45 -205 -187 -205z" />
    <glyph glyph-name="oinvertedbreve.smcp" unicode="&#xe289;" horiz-adv-x="678" 
d="M55 282c0 187 89 294 284 294s284 -107 284 -294s-89 -294 -284 -294s-284 107 -284 294zM525 282c0 130 -57 207 -186 207s-186 -77 -186 -207s57 -207 186 -207s186 77 186 207zM339 807c142 0 188 -75 187 -205h-78c1 89 -32 121 -109 121s-110 -32 -109 -121h-78
c-1 130 45 205 187 205z" />
    <glyph glyph-name="ohungarumlaut.smcp" unicode="&#xe28a;" horiz-adv-x="678" 
d="M55 282c0 187 89 294 284 294s284 -107 284 -294s-89 -294 -284 -294s-284 107 -284 294zM525 282c0 130 -57 207 -186 207s-186 -77 -186 -207s57 -207 186 -207s186 77 186 207zM304 810h112l-111 -208h-95zM464 810h112l-111 -208h-95z" />
    <glyph glyph-name="ohungarumlaut.smcp" unicode="&#xf656;" horiz-adv-x="678" 
d="M55 282c0 187 89 294 284 294s284 -107 284 -294s-89 -294 -284 -294s-284 107 -284 294zM525 282c0 130 -57 207 -186 207s-186 -77 -186 -207s57 -207 186 -207s186 77 186 207zM304 810h112l-111 -208h-95zM464 810h112l-111 -208h-95z" />
    <glyph glyph-name="odoublegrave.smcp" unicode="&#xe28b;" horiz-adv-x="678" 
d="M55 282c0 187 89 294 284 294s284 -107 284 -294s-89 -294 -284 -294s-284 107 -284 294zM525 282c0 130 -57 207 -186 207s-186 -77 -186 -207s57 -207 186 -207s186 77 186 207zM262 810h112l94 -208h-95zM102 810h112l94 -208h-95z" />
    <glyph glyph-name="ocommaturnedabove.smcp" unicode="&#xe28c;" horiz-adv-x="678" 
d="M55 282c0 187 89 294 284 294s284 -107 284 -294s-89 -294 -284 -294s-284 107 -284 294zM525 282c0 130 -57 207 -186 207s-186 -77 -186 -207s57 -207 186 -207s186 77 186 207zM392 602h-108l69 208h86z" />
    <glyph glyph-name="otildemacron.smcp" unicode="&#xe28d;" horiz-adv-x="678" 
d="M55 282c0 187 89 294 284 294s284 -107 284 -294s-89 -294 -284 -294s-284 107 -284 294zM525 282c0 130 -57 207 -186 207s-186 -77 -186 -207s57 -207 186 -207s186 77 186 207zM195 762v90h288v-90h-288zM259 666c-36 0 -48 -29 -52 -54l-76 11c11 75 48 125 133 125
c88 0 114 -80 165 -80c36 0 48 29 52 54l76 -11c-11 -75 -48 -125 -133 -125c-88 0 -114 80 -165 80z" />
    <glyph glyph-name="odotabove.smcp" unicode="&#xe28e;" horiz-adv-x="678" 
d="M55 282c0 187 89 294 284 294s284 -107 284 -294s-89 -294 -284 -294s-284 107 -284 294zM525 282c0 130 -57 207 -186 207s-186 -77 -186 -207s57 -207 186 -207s186 77 186 207zM395 760v-111h-112v111h112z" />
    <glyph glyph-name="odotabovemacron.smcp" unicode="&#xe28f;" horiz-adv-x="678" 
d="M55 282c0 187 89 294 284 294s284 -107 284 -294s-89 -294 -284 -294s-284 107 -284 294zM525 282c0 130 -57 207 -186 207s-186 -77 -186 -207s57 -207 186 -207s186 77 186 207zM395 725v-111h-112v111h112zM195 762v90h288v-90h-288z" />
    <glyph glyph-name="ocedilla.smcp" unicode="&#xe280;" horiz-adv-x="678" 
d="M55 282c0 187 89 294 284 294s284 -107 284 -294s-89 -294 -284 -294s-284 107 -284 294zM525 282c0 130 -57 207 -186 207s-186 -77 -186 -207s57 -207 186 -207s186 77 186 207zM278 -76l18 52c115 -10 155 -48 155 -102c0 -60 -55 -86 -122 -86c-42 0 -78 11 -92 18
l17 53s26 -14 55 -14c22 0 56 5 56 30c0 31 -39 44 -87 49z" />
    <glyph glyph-name="odotbelow.smcp" unicode="&#xe291;" horiz-adv-x="678" 
d="M55 282c0 187 89 294 284 294s284 -107 284 -294s-89 -294 -284 -294s-284 107 -284 294zM525 282c0 130 -57 207 -186 207s-186 -77 -186 -207s57 -207 186 -207s186 77 186 207zM395 -62v-111h-112v111h112z" />
    <glyph glyph-name="oogonek.smcp" unicode="&#xe292;" horiz-adv-x="678" 
d="M55 282c0 187 89 294 284 294s284 -107 284 -294c0 -160 -65 -261 -205 -287c-55 -15 -98 -54 -98 -94c0 -24 13 -40 46 -40c29 0 70 17 69 19l22 -67c-21 -13 -57 -25 -102 -25c-61 0 -117 28 -117 104c0 37 18 71 48 99c-158 18 -231 121 -231 291zM525 282
c0 130 -57 207 -186 207s-186 -77 -186 -207s57 -207 186 -207s186 77 186 207z" />
    <glyph glyph-name="oogonekmacron.smcp" unicode="&#xe293;" horiz-adv-x="678" 
d="M55 282c0 187 89 294 284 294s284 -107 284 -294c0 -160 -65 -261 -205 -287c-55 -15 -98 -54 -98 -94c0 -24 13 -40 46 -40c29 0 70 17 69 19l22 -67c-21 -13 -57 -25 -102 -25c-61 0 -117 28 -117 104c0 37 18 71 48 99c-158 18 -231 121 -231 291zM525 282
c0 130 -57 207 -186 207s-186 -77 -186 -207s57 -207 186 -207s186 77 186 207zM483 662h-288v90h288v-90z" />
    <glyph glyph-name="ounderlineaccent.smcp" unicode="&#xe294;" horiz-adv-x="678" 
d="M55 282c0 187 89 294 284 294s284 -107 284 -294s-89 -294 -284 -294s-284 107 -284 294zM525 282c0 130 -57 207 -186 207s-186 -77 -186 -207s57 -207 186 -207s186 77 186 207zM374 -200h-71v160h71v-160z" />
    <glyph glyph-name="oslash.smcp" unicode="&#xe295;" horiz-adv-x="678" 
d="M55 282c0 187 89 294 284 294c65 0 119 -12 161 -36l19 24h84l-50 -64c47 -50 70 -124 70 -218c0 -187 -89 -294 -284 -294c-66 0 -119 12 -162 35l-18 -23h-84l50 63c-48 50 -70 124 -70 219zM153 282c0 -58 11 -105 34 -139l255 323c-27 15 -62 23 -103 23
c-129 0 -186 -77 -186 -207zM525 282c0 57 -11 104 -35 139l-254 -323c27 -15 61 -23 103 -23c129 0 186 77 186 207z" />
    <glyph glyph-name="oslash.smcp" unicode="&#xf7f8;" horiz-adv-x="678" 
d="M55 282c0 187 89 294 284 294c65 0 119 -12 161 -36l19 24h84l-50 -64c47 -50 70 -124 70 -218c0 -187 -89 -294 -284 -294c-66 0 -119 12 -162 35l-18 -23h-84l50 63c-48 50 -70 124 -70 219zM153 282c0 -58 11 -105 34 -139l255 323c-27 15 -62 23 -103 23
c-129 0 -186 -77 -186 -207zM525 282c0 57 -11 104 -35 139l-254 -323c27 -15 61 -23 103 -23c129 0 186 77 186 207z" />
    <glyph glyph-name="oslashacute.smcp" unicode="&#xe296;" horiz-adv-x="678" 
d="M55 282c0 187 89 294 284 294c65 0 119 -12 161 -36l19 24h84l-50 -64c47 -50 70 -124 70 -218c0 -187 -89 -294 -284 -294c-66 0 -119 12 -162 35l-18 -23h-84l50 63c-48 50 -70 124 -70 219zM153 282c0 -58 11 -105 34 -139l255 323c-27 15 -62 23 -103 23
c-129 0 -186 -77 -186 -207zM525 282c0 57 -11 104 -35 139l-254 -323c27 -15 61 -23 103 -23c129 0 186 77 186 207zM386 810h112l-111 -208h-95z" />
    <glyph glyph-name="oslashacute.smcp" unicode="&#xf627;" horiz-adv-x="678" 
d="M55 282c0 187 89 294 284 294c65 0 119 -12 161 -36l19 24h84l-50 -64c47 -50 70 -124 70 -218c0 -187 -89 -294 -284 -294c-66 0 -119 12 -162 35l-18 -23h-84l50 63c-48 50 -70 124 -70 219zM153 282c0 -58 11 -105 34 -139l255 323c-27 15 -62 23 -103 23
c-129 0 -186 -77 -186 -207zM525 282c0 57 -11 104 -35 139l-254 -323c27 -15 61 -23 103 -23c129 0 186 77 186 207zM386 810h112l-111 -208h-95z" />
    <glyph glyph-name="barredo.smcp" unicode="&#xe297;" horiz-adv-x="678" 
d="M55 282c0 187 89 294 284 294s284 -107 284 -294s-89 -294 -284 -294s-284 107 -284 294zM339 75c116 0 174 63 184 171h-369c10 -108 68 -171 185 -171zM339 489c-111 0 -169 -57 -183 -155h365c-14 98 -72 155 -182 155z" />
    <glyph glyph-name="oe.smcp" unicode="&#xe298;" horiz-adv-x="913" 
d="M54 282c0 195 98 282 277 282h505v-88h-310v-142h272v-88h-272v-158h328v-88h-523c-179 0 -277 87 -277 282zM429 88v389h-107c-115 0 -169 -71 -169 -195c0 -123 54 -194 169 -194h107z" />
    <glyph glyph-name="oe.smcp" unicode="&#xf6fa;" horiz-adv-x="913" 
d="M54 282c0 195 98 282 277 282h505v-88h-310v-142h272v-88h-272v-158h328v-88h-523c-179 0 -277 87 -277 282zM429 88v389h-107c-115 0 -169 -71 -169 -195c0 -123 54 -194 169 -194h107z" />
    <glyph glyph-name="pmacron.smcp" unicode="&#xe299;" horiz-adv-x="559" 
d="M346 476h-171v-180h171c43 0 87 15 87 90s-44 90 -87 90zM79 0v564h254c101 0 199 -35 199 -178s-97 -178 -198 -178h-159v-208h-96zM424 662h-288v90h288v-90z" />
    <glyph glyph-name="racute.smcp" unicode="&#xe29a;" horiz-adv-x="621" 
d="M175 222v-222h-96v564h278c99 0 202 -31 202 -171c0 -99 -52 -143 -117 -161l142 -232h-118l-128 222h-163zM175 309h187c56 0 99 15 99 84s-43 84 -99 84h-187v-168zM347 810h112l-111 -208h-95z" />
    <glyph glyph-name="racute.smcp" unicode="&#xf658;" horiz-adv-x="621" 
d="M175 222v-222h-96v564h278c99 0 202 -31 202 -171c0 -99 -52 -143 -117 -161l142 -232h-118l-128 222h-163zM175 309h187c56 0 99 15 99 84s-43 84 -99 84h-187v-168zM347 810h112l-111 -208h-95z" />
    <glyph glyph-name="rcaron.smcp" unicode="&#xe29b;" horiz-adv-x="621" 
d="M175 222v-222h-96v564h278c99 0 202 -31 202 -171c0 -99 -52 -143 -117 -161l142 -232h-118l-128 222h-163zM175 309h187c56 0 99 15 99 84s-43 84 -99 84h-187v-168zM346 602h-92l-152 208h97l101 -127l101 127h97z" />
    <glyph glyph-name="rcaron.smcp" unicode="&#xf659;" horiz-adv-x="621" 
d="M175 222v-222h-96v564h278c99 0 202 -31 202 -171c0 -99 -52 -143 -117 -161l142 -232h-118l-128 222h-163zM175 309h187c56 0 99 15 99 84s-43 84 -99 84h-187v-168zM346 602h-92l-152 208h97l101 -127l101 127h97z" />
    <glyph glyph-name="rinvertedbreve.smcp" unicode="&#xe29c;" horiz-adv-x="621" 
d="M175 222v-222h-96v564h278c99 0 202 -31 202 -171c0 -99 -52 -143 -117 -161l142 -232h-118l-128 222h-163zM175 309h187c56 0 99 15 99 84s-43 84 -99 84h-187v-168zM300 807c142 0 188 -75 187 -205h-78c1 89 -32 121 -109 121s-110 -32 -109 -121h-78
c-1 130 45 205 187 205z" />
    <glyph glyph-name="rdoublegrave.smcp" unicode="&#xe29d;" horiz-adv-x="621" 
d="M175 222v-222h-96v564h278c99 0 202 -31 202 -171c0 -99 -52 -143 -117 -161l142 -232h-118l-128 222h-163zM175 309h187c56 0 99 15 99 84s-43 84 -99 84h-187v-168zM223 810h112l94 -208h-95zM63 810h112l94 -208h-95z" />
    <glyph glyph-name="rcommaaccent.smcp" unicode="&#xe29e;" horiz-adv-x="621" 
d="M175 222v-222h-96v564h278c99 0 202 -31 202 -171c0 -99 -52 -143 -117 -161l142 -232h-118l-128 222h-163zM175 309h187c56 0 99 15 99 84s-43 84 -99 84h-187v-168zM254 -62h117l-46 -138h-88z" />
    <glyph glyph-name="rcommaaccent.smcp" unicode="&#xf65a;" horiz-adv-x="621" 
d="M175 222v-222h-96v564h278c99 0 202 -31 202 -171c0 -99 -52 -143 -117 -161l142 -232h-118l-128 222h-163zM175 309h187c56 0 99 15 99 84s-43 84 -99 84h-187v-168zM254 -62h117l-46 -138h-88z" />
    <glyph glyph-name="rcedilla.smcp" unicode="&#xe29f;" horiz-adv-x="621" 
d="M175 222v-222h-96v564h278c99 0 202 -31 202 -171c0 -99 -52 -143 -117 -161l142 -232h-118l-128 222h-163zM175 309h187c56 0 99 15 99 84s-43 84 -99 84h-187v-168zM249 -76l18 52c115 -10 155 -48 155 -102c0 -60 -55 -86 -122 -86c-42 0 -78 11 -92 18l17 53
s26 -14 55 -14c22 0 56 5 56 30c0 31 -39 44 -87 49z" />
    <glyph glyph-name="rdotbelow.smcp" unicode="&#xe290;" horiz-adv-x="621" 
d="M175 222v-222h-96v564h278c99 0 202 -31 202 -171c0 -99 -52 -143 -117 -161l142 -232h-118l-128 222h-163zM175 309h187c56 0 99 15 99 84s-43 84 -99 84h-187v-168zM366 -62v-111h-112v111h112z" />
    <glyph glyph-name="rdotbelowmacron.smcp" unicode="&#xe301;" horiz-adv-x="621" 
d="M175 222v-222h-96v564h278c99 0 202 -31 202 -171c0 -99 -52 -143 -117 -161l142 -232h-118l-128 222h-163zM175 309h187c56 0 99 15 99 84s-43 84 -99 84h-187v-168zM366 -62v-111h-112v111h112zM444 662h-288v90h288v-90z" />
    <glyph glyph-name="sacute.smcp" unicode="&#xe302;" horiz-adv-x="620" 
d="M465 167c0 60 -46 74 -157 85c-101 10 -233 25 -233 150c0 121 109 174 235 174c164 0 239 -65 250 -173l-100 -12c-8 69 -46 97 -141 97c-65 0 -147 -11 -147 -81c0 -50 49 -64 143 -73c134 -13 248 -26 248 -165c0 -129 -124 -181 -257 -181c-177 0 -244 68 -252 176
l98 11c8 -70 57 -99 153 -99c84 0 160 21 160 91zM357 810h112l-111 -208h-95z" />
    <glyph glyph-name="sacute.smcp" unicode="&#xf65b;" horiz-adv-x="620" 
d="M465 167c0 60 -46 74 -157 85c-101 10 -233 25 -233 150c0 121 109 174 235 174c164 0 239 -65 250 -173l-100 -12c-8 69 -46 97 -141 97c-65 0 -147 -11 -147 -81c0 -50 49 -64 143 -73c134 -13 248 -26 248 -165c0 -129 -124 -181 -257 -181c-177 0 -244 68 -252 176
l98 11c8 -70 57 -99 153 -99c84 0 160 21 160 91zM357 810h112l-111 -208h-95z" />
    <glyph glyph-name="scircumflex.smcp" unicode="&#xe303;" horiz-adv-x="620" 
d="M465 167c0 60 -46 74 -157 85c-101 10 -233 25 -233 150c0 121 109 174 235 174c164 0 239 -65 250 -173l-100 -12c-8 69 -46 97 -141 97c-65 0 -147 -11 -147 -81c0 -50 49 -64 143 -73c134 -13 248 -26 248 -165c0 -129 -124 -181 -257 -181c-177 0 -244 68 -252 176
l98 11c8 -70 57 -99 153 -99c84 0 160 21 160 91zM264 810h92l152 -208h-97l-101 127l-101 -127h-97z" />
    <glyph glyph-name="scircumflex.smcp" unicode="&#xf636;" horiz-adv-x="620" 
d="M465 167c0 60 -46 74 -157 85c-101 10 -233 25 -233 150c0 121 109 174 235 174c164 0 239 -65 250 -173l-100 -12c-8 69 -46 97 -141 97c-65 0 -147 -11 -147 -81c0 -50 49 -64 143 -73c134 -13 248 -26 248 -165c0 -129 -124 -181 -257 -181c-177 0 -244 68 -252 176
l98 11c8 -70 57 -99 153 -99c84 0 160 21 160 91zM264 810h92l152 -208h-97l-101 127l-101 -127h-97z" />
    <glyph glyph-name="scaron.smcp" unicode="&#xe304;" horiz-adv-x="620" 
d="M465 167c0 60 -46 74 -157 85c-101 10 -233 25 -233 150c0 121 109 174 235 174c164 0 239 -65 250 -173l-100 -12c-8 69 -46 97 -141 97c-65 0 -147 -11 -147 -81c0 -50 49 -64 143 -73c134 -13 248 -26 248 -165c0 -129 -124 -181 -257 -181c-177 0 -244 68 -252 176
l98 11c8 -70 57 -99 153 -99c84 0 160 21 160 91zM356 602h-92l-152 208h97l101 -127l101 127h97z" />
    <glyph glyph-name="scaron.smcp" unicode="&#xf6fd;" horiz-adv-x="620" 
d="M465 167c0 60 -46 74 -157 85c-101 10 -233 25 -233 150c0 121 109 174 235 174c164 0 239 -65 250 -173l-100 -12c-8 69 -46 97 -141 97c-65 0 -147 -11 -147 -81c0 -50 49 -64 143 -73c134 -13 248 -26 248 -165c0 -129 -124 -181 -257 -181c-177 0 -244 68 -252 176
l98 11c8 -70 57 -99 153 -99c84 0 160 21 160 91zM356 602h-92l-152 208h97l101 -127l101 127h97z" />
    <glyph glyph-name="scommaaccent.smcp" unicode="&#xe305;" horiz-adv-x="620" 
d="M465 167c0 60 -46 74 -157 85c-101 10 -233 25 -233 150c0 121 109 174 235 174c164 0 239 -65 250 -173l-100 -12c-8 69 -46 97 -141 97c-65 0 -147 -11 -147 -81c0 -50 49 -64 143 -73c134 -13 248 -26 248 -165c0 -129 -124 -181 -257 -181c-177 0 -244 68 -252 176
l98 11c8 -70 57 -99 153 -99c84 0 160 21 160 91zM254 -62h117l-46 -138h-88z" />
    <glyph glyph-name="scommaaccent.smcp" unicode="&#xf65d;" horiz-adv-x="620" 
d="M465 167c0 60 -46 74 -157 85c-101 10 -233 25 -233 150c0 121 109 174 235 174c164 0 239 -65 250 -173l-100 -12c-8 69 -46 97 -141 97c-65 0 -147 -11 -147 -81c0 -50 49 -64 143 -73c134 -13 248 -26 248 -165c0 -129 -124 -181 -257 -181c-177 0 -244 68 -252 176
l98 11c8 -70 57 -99 153 -99c84 0 160 21 160 91zM254 -62h117l-46 -138h-88z" />
    <glyph glyph-name="scedilla.smcp" unicode="&#xe306;" horiz-adv-x="620" 
d="M465 167c0 60 -46 74 -157 85c-101 10 -233 25 -233 150c0 121 109 174 235 174c164 0 239 -65 250 -173l-100 -12c-8 69 -46 97 -141 97c-65 0 -147 -11 -147 -81c0 -50 49 -64 143 -73c134 -13 248 -26 248 -165c0 -118 -104 -171 -223 -180l-7 -24
c46 -11 89 -37 89 -91c0 -60 -55 -86 -122 -86c-42 0 -78 11 -92 18l17 53s26 -14 55 -14c22 0 56 5 56 30c0 31 -39 44 -87 49l22 65c-151 9 -210 74 -217 175l98 11c8 -70 57 -99 153 -99c84 0 160 21 160 91z" />
    <glyph glyph-name="scedilla.smcp" unicode="&#xf65c;" horiz-adv-x="620" 
d="M465 167c0 60 -46 74 -157 85c-101 10 -233 25 -233 150c0 121 109 174 235 174c164 0 239 -65 250 -173l-100 -12c-8 69 -46 97 -141 97c-65 0 -147 -11 -147 -81c0 -50 49 -64 143 -73c134 -13 248 -26 248 -165c0 -118 -104 -171 -223 -180l-7 -24
c46 -11 89 -37 89 -91c0 -60 -55 -86 -122 -86c-42 0 -78 11 -92 18l17 53s26 -14 55 -14c22 0 56 5 56 30c0 31 -39 44 -87 49l22 65c-151 9 -210 74 -217 175l98 11c8 -70 57 -99 153 -99c84 0 160 21 160 91z" />
    <glyph glyph-name="sdotbelow.smcp" unicode="&#xe307;" horiz-adv-x="620" 
d="M465 167c0 60 -46 74 -157 85c-101 10 -233 25 -233 150c0 121 109 174 235 174c164 0 239 -65 250 -173l-100 -12c-8 69 -46 97 -141 97c-65 0 -147 -11 -147 -81c0 -50 49 -64 143 -73c134 -13 248 -26 248 -165c0 -129 -124 -181 -257 -181c-177 0 -244 68 -252 176
l98 11c8 -70 57 -99 153 -99c84 0 160 21 160 91zM366 -62v-111h-112v111h112z" />
    <glyph glyph-name="germandbls.smcp" unicode="&#xe308;" horiz-adv-x="705" 
d="M447 77c82 0 117 29 117 74c0 47 -39 67 -129 74c-38 3 -86 10 -113 22v62l139 158c-27 13 -65 22 -116 22c-140 0 -180 -62 -180 -129v-360h-96v362c0 116 69 214 276 214c121 0 184 -33 219 -66v-62l-123 -140c6 -1 13 -2 18 -2c120 -11 203 -42 203 -155
s-89 -163 -215 -163c-146 0 -197 55 -203 136l97 11c3 -38 31 -58 106 -58z" />
    <glyph glyph-name="germandbls.smcp" unicode="&#xf667;" horiz-adv-x="705" 
d="M447 77c82 0 117 29 117 74c0 47 -39 67 -129 74c-38 3 -86 10 -113 22v62l139 158c-27 13 -65 22 -116 22c-140 0 -180 -62 -180 -129v-360h-96v362c0 116 69 214 276 214c121 0 184 -33 219 -66v-62l-123 -140c6 -1 13 -2 18 -2c120 -11 203 -42 203 -155
s-89 -163 -215 -163c-146 0 -197 55 -203 136l97 11c3 -38 31 -58 106 -58z" />
    <glyph glyph-name="germandbls.smcp" unicode="&#xf175;" horiz-adv-x="705" 
d="M447 77c82 0 117 29 117 74c0 47 -39 67 -129 74c-38 3 -86 10 -113 22v62l139 158c-27 13 -65 22 -116 22c-140 0 -180 -62 -180 -129v-360h-96v362c0 116 69 214 276 214c121 0 184 -33 219 -66v-62l-123 -140c6 -1 13 -2 18 -2c120 -11 203 -42 203 -155
s-89 -163 -215 -163c-146 0 -197 55 -203 136l97 11c3 -38 31 -58 106 -58z" />
    <glyph glyph-name="tcaron.smcp" unicode="&#xe309;" horiz-adv-x="506" 
d="M301 476v-476h-96v476h-191v88h478v-88h-191zM299 602h-92l-152 208h97l101 -127l101 127h97z" />
    <glyph glyph-name="tcaron.smcp" unicode="&#xf65e;" horiz-adv-x="506" 
d="M301 476v-476h-96v476h-191v88h478v-88h-191zM299 602h-92l-152 208h97l101 -127l101 127h97z" />
    <glyph glyph-name="tcommaaccent.smcp" unicode="&#xe30a;" horiz-adv-x="506" 
d="M301 476v-476h-96v476h-191v88h478v-88h-191zM197 -62h117l-46 -138h-88z" />
    <glyph glyph-name="tcommaaccent.smcp" unicode="&#xf65f;" horiz-adv-x="506" 
d="M301 476v-476h-96v476h-191v88h478v-88h-191zM197 -62h117l-46 -138h-88z" />
    <glyph glyph-name="tcedilla.smcp" unicode="&#xe30b;" horiz-adv-x="506" 
d="M301 476v-476h-96v476h-191v88h478v-88h-191zM192 -76l18 52c115 -10 155 -48 155 -102c0 -60 -55 -86 -122 -86c-42 0 -78 11 -92 18l17 53s26 -14 55 -14c22 0 56 5 56 30c0 31 -39 44 -87 49z" />
    <glyph glyph-name="tdotbelow.smcp" unicode="&#xe30c;" horiz-adv-x="506" 
d="M301 476v-476h-96v476h-191v88h478v-88h-191zM309 -62v-111h-112v111h112z" />
    <glyph glyph-name="tbar.smcp" unicode="&#xe30d;" horiz-adv-x="506" 
d="M301 476v-162h120v-78h-120v-236h-96v236h-120v78h120v162h-191v88h478v-88h-191z" />
    <glyph glyph-name="tbar.smcp" unicode="&#xf637;" horiz-adv-x="506" 
d="M301 476v-162h120v-78h-120v-236h-96v236h-120v78h120v162h-191v88h478v-88h-191z" />
    <glyph glyph-name="ugrave.smcp" unicode="&#xe30f;" horiz-adv-x="648" 
d="M324 -12c-197 0 -255 101 -255 223v353h96v-345c0 -75 21 -144 159 -144s159 69 159 144v345h96v-353c0 -122 -58 -223 -255 -223zM172 810h112l94 -208h-95z" />
    <glyph glyph-name="ugrave.smcp" unicode="&#xf7f9;" horiz-adv-x="648" 
d="M324 -12c-197 0 -255 101 -255 223v353h96v-345c0 -75 21 -144 159 -144s159 69 159 144v345h96v-353c0 -122 -58 -223 -255 -223zM172 810h112l94 -208h-95z" />
    <glyph glyph-name="uacute.smcp" unicode="&#xe30e;" horiz-adv-x="648" 
d="M324 -12c-197 0 -255 101 -255 223v353h96v-345c0 -75 21 -144 159 -144s159 69 159 144v345h96v-353c0 -122 -58 -223 -255 -223zM371 810h112l-111 -208h-95z" />
    <glyph glyph-name="uacute.smcp" unicode="&#xf7fa;" horiz-adv-x="648" 
d="M324 -12c-197 0 -255 101 -255 223v353h96v-345c0 -75 21 -144 159 -144s159 69 159 144v345h96v-353c0 -122 -58 -223 -255 -223zM371 810h112l-111 -208h-95z" />
    <glyph glyph-name="ucircumflex.smcp" unicode="&#xe300;" horiz-adv-x="648" 
d="M324 -12c-197 0 -255 101 -255 223v353h96v-345c0 -75 21 -144 159 -144s159 69 159 144v345h96v-353c0 -122 -58 -223 -255 -223zM278 810h92l152 -208h-97l-101 127l-101 -127h-97z" />
    <glyph glyph-name="ucircumflex.smcp" unicode="&#xf7fb;" horiz-adv-x="648" 
d="M324 -12c-197 0 -255 101 -255 223v353h96v-345c0 -75 21 -144 159 -144s159 69 159 144v345h96v-353c0 -122 -58 -223 -255 -223zM278 810h92l152 -208h-97l-101 127l-101 -127h-97z" />
    <glyph glyph-name="udieresis.smcp" unicode="&#xe311;" horiz-adv-x="648" 
d="M324 -12c-197 0 -255 101 -255 223v353h96v-345c0 -75 21 -144 159 -144s159 69 159 144v345h96v-353c0 -122 -58 -223 -255 -223zM280 760v-111h-112v111h112zM480 760v-111h-112v111h112z" />
    <glyph glyph-name="udieresis.smcp" unicode="&#xf7fc;" horiz-adv-x="648" 
d="M324 -12c-197 0 -255 101 -255 223v353h96v-345c0 -75 21 -144 159 -144s159 69 159 144v345h96v-353c0 -122 -58 -223 -255 -223zM280 760v-111h-112v111h112zM480 760v-111h-112v111h112z" />
    <glyph glyph-name="utilde.smcp" unicode="&#xe312;" horiz-adv-x="648" 
d="M324 -12c-197 0 -255 101 -255 223v353h96v-345c0 -75 21 -144 159 -144s159 69 159 144v345h96v-353c0 -122 -58 -223 -255 -223zM239 706c-36 0 -48 -29 -52 -54l-76 11c11 75 48 125 133 125c88 0 114 -80 165 -80c36 0 48 29 52 54l76 -11
c-11 -75 -48 -125 -133 -125c-88 0 -114 80 -165 80z" />
    <glyph glyph-name="utilde.smcp" unicode="&#xf639;" horiz-adv-x="648" 
d="M324 -12c-197 0 -255 101 -255 223v353h96v-345c0 -75 21 -144 159 -144s159 69 159 144v345h96v-353c0 -122 -58 -223 -255 -223zM239 706c-36 0 -48 -29 -52 -54l-76 11c11 75 48 125 133 125c88 0 114 -80 165 -80c36 0 48 29 52 54l76 -11
c-11 -75 -48 -125 -133 -125c-88 0 -114 80 -165 80z" />
    <glyph glyph-name="uring.smcp" unicode="&#xe313;" horiz-adv-x="648" 
d="M324 -12c-197 0 -255 101 -255 223v353h96v-345c0 -75 21 -144 159 -144s159 69 159 144v345h96v-353c0 -122 -58 -223 -255 -223zM208 706c0 67 43 116 116 116s116 -49 116 -116s-43 -116 -116 -116s-116 49 -116 116zM371 706c0 29 -18 48 -47 48s-47 -19 -47 -48
s18 -48 47 -48s47 19 47 48z" />
    <glyph glyph-name="uring.smcp" unicode="&#xf663;" horiz-adv-x="648" 
d="M324 -12c-197 0 -255 101 -255 223v353h96v-345c0 -75 21 -144 159 -144s159 69 159 144v345h96v-353c0 -122 -58 -223 -255 -223zM208 706c0 67 43 116 116 116s116 -49 116 -116s-43 -116 -116 -116s-116 49 -116 116zM371 706c0 29 -18 48 -47 48s-47 -19 -47 -48
s18 -48 47 -48s47 19 47 48z" />
    <glyph glyph-name="ucaron.smcp" unicode="&#xe314;" horiz-adv-x="648" 
d="M324 -12c-197 0 -255 101 -255 223v353h96v-345c0 -75 21 -144 159 -144s159 69 159 144v345h96v-353c0 -122 -58 -223 -255 -223zM370 602h-92l-152 208h97l101 -127l101 127h97z" />
    <glyph glyph-name="umacron.smcp" unicode="&#xe315;" horiz-adv-x="648" 
d="M324 -12c-197 0 -255 101 -255 223v353h96v-345c0 -75 21 -144 159 -144s159 69 159 144v345h96v-353c0 -122 -58 -223 -255 -223zM468 662h-288v90h288v-90z" />
    <glyph glyph-name="umacron.smcp" unicode="&#xf661;" horiz-adv-x="648" 
d="M324 -12c-197 0 -255 101 -255 223v353h96v-345c0 -75 21 -144 159 -144s159 69 159 144v345h96v-353c0 -122 -58 -223 -255 -223zM468 662h-288v90h288v-90z" />
    <glyph glyph-name="ubreve.smcp" unicode="&#xe316;" horiz-adv-x="648" 
d="M324 -12c-197 0 -255 101 -255 223v353h96v-345c0 -75 21 -144 159 -144s159 69 159 144v345h96v-353c0 -122 -58 -223 -255 -223zM324 605c-142 0 -188 75 -187 205h78c-1 -89 32 -121 109 -121s110 32 109 121h78c1 -130 -45 -205 -187 -205z" />
    <glyph glyph-name="ubreve.smcp" unicode="&#xf638;" horiz-adv-x="648" 
d="M324 -12c-197 0 -255 101 -255 223v353h96v-345c0 -75 21 -144 159 -144s159 69 159 144v345h96v-353c0 -122 -58 -223 -255 -223zM324 605c-142 0 -188 75 -187 205h78c-1 -89 32 -121 109 -121s110 32 109 121h78c1 -130 -45 -205 -187 -205z" />
    <glyph glyph-name="uinvertedbreve.smcp" unicode="&#xe317;" horiz-adv-x="648" 
d="M324 -12c-197 0 -255 101 -255 223v353h96v-345c0 -75 21 -144 159 -144s159 69 159 144v345h96v-353c0 -122 -58 -223 -255 -223zM324 807c142 0 188 -75 187 -205h-78c1 89 -32 121 -109 121s-110 -32 -109 -121h-78c-1 130 45 205 187 205z" />
    <glyph glyph-name="uhungarumlaut.smcp" unicode="&#xe318;" horiz-adv-x="648" 
d="M324 -12c-197 0 -255 101 -255 223v353h96v-345c0 -75 21 -144 159 -144s159 69 159 144v345h96v-353c0 -122 -58 -223 -255 -223zM289 810h112l-111 -208h-95zM449 810h112l-111 -208h-95z" />
    <glyph glyph-name="uhungarumlaut.smcp" unicode="&#xf660;" horiz-adv-x="648" 
d="M324 -12c-197 0 -255 101 -255 223v353h96v-345c0 -75 21 -144 159 -144s159 69 159 144v345h96v-353c0 -122 -58 -223 -255 -223zM289 810h112l-111 -208h-95zM449 810h112l-111 -208h-95z" />
    <glyph glyph-name="udoublegrave.smcp" unicode="&#xe319;" horiz-adv-x="648" 
d="M324 -12c-197 0 -255 101 -255 223v353h96v-345c0 -75 21 -144 159 -144s159 69 159 144v345h96v-353c0 -122 -58 -223 -255 -223zM247 810h112l94 -208h-95zM87 810h112l94 -208h-95z" />
    <glyph glyph-name="udotbelow.smcp" unicode="&#xe31a;" horiz-adv-x="648" 
d="M324 -12c-197 0 -255 101 -255 223v353h96v-345c0 -75 21 -144 159 -144s159 69 159 144v345h96v-353c0 -122 -58 -223 -255 -223zM380 -62v-111h-112v111h112z" />
    <glyph glyph-name="uogonek.smcp" unicode="&#xe31b;" horiz-adv-x="648" 
d="M579 211c0 -101 -40 -187 -164 -214c-60 -13 -108 -54 -108 -96c0 -24 13 -40 46 -40c29 0 70 17 69 19l22 -67c-21 -13 -57 -25 -102 -25c-61 0 -117 28 -117 104c0 36 17 70 48 99c-156 16 -204 109 -204 220v353h96v-345c0 -75 21 -144 159 -144s159 69 159 144v345
h96v-353z" />
    <glyph glyph-name="uogonek.smcp" unicode="&#xf662;" horiz-adv-x="648" 
d="M579 211c0 -101 -40 -187 -164 -214c-60 -13 -108 -54 -108 -96c0 -24 13 -40 46 -40c29 0 70 17 69 19l22 -67c-21 -13 -57 -25 -102 -25c-61 0 -117 28 -117 104c0 36 17 70 48 99c-156 16 -204 109 -204 220v353h96v-345c0 -75 21 -144 159 -144s159 69 159 144v345
h96v-353z" />
    <glyph glyph-name="umacronbelow.smcp" unicode="&#xe31c;" horiz-adv-x="648" 
d="M324 -12c-197 0 -255 101 -255 223v353h96v-345c0 -75 21 -144 159 -144s159 69 159 144v345h96v-353c0 -122 -58 -223 -255 -223zM180 -75h288v-90h-288v90z" />
    <glyph glyph-name="wgrave.smcp" unicode="&#xe31e;" horiz-adv-x="866" 
d="M471 338l-38 116l-38 -116l-131 -350h-82l-151 576h98l77 -304l26 -118l40 111l116 311h90l116 -311l40 -111l26 118l77 304h98l-151 -576h-82zM274 810h112l94 -208h-95z" />
    </font>
</defs>
</svg>
