<?xml version="1.0" standalone="no"?>
<!DOCTYPE svg PUBLIC "-//W3C//DTD SVG 1.1//EN" "http://www.w3.org/Graphics/SVG/1.1/DTD/svg11.dtd" >
<svg xmlns="http://www.w3.org/2000/svg" xmlns:xlink="http://www.w3.org/1999/xlink" version="1.1">
<metadata>
Created by FontForge 20170731 at Tue Oct  4 10:51:06 2016
 By Aleksey,,,
Copyright (c) 2016 by Rene' Bieder. All rights reserved.
</metadata>
<defs>
<font id="Sagona-Bold" horiz-adv-x="600" >
  <font-face 
    font-family="Sagona Book"
    font-weight="700"
    font-stretch="normal"
    units-per-em="1000"
    panose-1="2 1 0 4 4 1 1 1 1 3"
    ascent="800"
    descent="-200"
    x-height="508"
    cap-height="680"
    bbox="-240 -292 1886 958.375"
    underline-thickness="50"
    underline-position="-250"
    unicode-range="U+0020-FB02"
  />
<missing-glyph horiz-adv-x="681" 
d="M85 680h511v-680h-511v680zM467 608h-309v-489zM214 73h310v491z" />
    <glyph glyph-name="arrowleft" unicode="&#x3c;&#x2014;" horiz-adv-x="856" 
d="M336 604l34 -24l-97 -202q15 1 88.5 5.5t137.5 4.5h310v-90h-310q-64 0 -137.5 4.5t-88.5 5.5l97 -201l-34 -24l-263 243v35z" />
    <glyph glyph-name="arrowright" unicode="&#x2d;&#x3e;" horiz-adv-x="856" 
d="M547 604l263 -243v-35l-263 -243l-34 24l97 201q-15 -1 -88.5 -5.5t-137.5 -4.5h-310v90h310q64 0 137.5 -4.5t88.5 -5.5l-97 202z" />
    <glyph glyph-name="arrowboth" unicode="&#x3c;&#x2014;&#x3e;" horiz-adv-x="962" 
d="M653 604l263 -243v-35l-263 -243l-34 24l97 201q-36 -1 -89.5 -5.5t-81.5 -4.5h-93q-33 0 -88.5 4.5t-89.5 5.5l97 -201l-35 -24l-262 243v35l262 243l35 -24l-97 -202q34 1 89.5 5.5t88.5 4.5h93q28 0 81.5 -4.5t89.5 -5.5l-97 202z" />
    <glyph glyph-name="f_f" unicode="ff" horiz-adv-x="821" 
d="M817 541q-34 0 -55.5 21t-21.5 55q0 27 14 42q-47 -2 -68 -27t-21 -90v-34h164v-88h-164v-301q0 -31 31 -31h87v-88h-342v88h42q31 0 31 31v301h-259v-301q0 -31 31 -31h87v-88h-342v88h42q31 0 31 31v301h-83v88h52q31 0 31 31v3q0 87 65 135t158 48q63 0 109.5 -27.5
t46.5 -78.5q0 -35 -20 -56.5t-56 -21.5q-34 0 -55.5 21t-21.5 55q0 27 14 42q-47 -2 -68 -27t-21 -90v-34h228q31 0 31 31v3q0 87 65 135t158 48q63 0 109.5 -27.5t46.5 -78.5q0 -35 -20 -56.5t-56 -21.5z" />
    <glyph glyph-name="f_f_f" unicode="fff" horiz-adv-x="1231" 
d="M1227 541q-34 0 -55.5 21t-21.5 55q0 27 14 42q-47 -2 -68 -27t-21 -90v-34h164v-88h-164v-301q0 -31 31 -31h87v-88h-342v88h42q31 0 31 31v301h-259v-301q0 -31 31 -31h87v-88h-342v88h42q31 0 31 31v301h-259v-301q0 -31 31 -31h87v-88h-342v88h42q31 0 31 31v301h-83
v88h52q31 0 31 31v3q0 87 65 135t158 48q63 0 109.5 -27.5t46.5 -78.5q0 -35 -20 -56.5t-56 -21.5q-34 0 -55.5 21t-21.5 55q0 27 14 42q-47 -2 -68 -27t-21 -90v-34h228q31 0 31 31v3q0 87 65 135t158 48q63 0 109.5 -27.5t46.5 -78.5q0 -35 -20 -56.5t-56 -21.5
q-34 0 -55.5 21t-21.5 55q0 27 14 42q-47 -2 -68 -27t-21 -90v-34h228q31 0 31 31v3q0 87 65 135t158 48q63 0 109.5 -27.5t46.5 -78.5q0 -35 -20 -56.5t-56 -21.5z" />
    <glyph glyph-name=".notdef" horiz-adv-x="681" 
d="M85 680h511v-680h-511v680zM467 608h-309v-489zM214 73h310v491z" />
    <glyph glyph-name=".null" horiz-adv-x="0" 
 />
    <glyph glyph-name="nonmarkingreturn" horiz-adv-x="333" 
 />
    <glyph glyph-name="space" unicode=" " horiz-adv-x="188" 
 />
    <glyph glyph-name="exclam" unicode="!" horiz-adv-x="312" 
d="M128 254q-67 288 -67 341q0 45 27 75t68 30t68 -30t27 -75q0 -48 -67 -341h-56zM155 175q40 0 66 -25t26 -65t-26 -66t-66 -26t-65.5 25.5t-25.5 65.5t25.5 65.5t65.5 25.5z" />
    <glyph glyph-name="quotedbl" unicode="&#x22;" horiz-adv-x="411" 
d="M78 363q-8 39 -21 98t-19.5 93.5t-6.5 57.5q0 33 22 55.5t52 22.5q31 0 52.5 -22.5t21.5 -55.5q0 -24 -6.5 -58.5t-19 -91.5t-20.5 -99h-55zM279 363q-8 39 -21 98t-19.5 93.5t-6.5 57.5q0 33 22 55.5t52 22.5q31 0 52.5 -22.5t21.5 -55.5q0 -24 -6.5 -58.5t-19 -91.5
t-20.5 -99h-55z" />
    <glyph glyph-name="numbersign" unicode="#" horiz-adv-x="638" 
d="M638 430h-123l-37 -177h120v-78h-136l-36 -175h-90l36 175h-149l-36 -175h-89l36 175h-114v78h130l37 177h-127v78h143l35 172h89l-35 -172h149l35 172h90l-35 -172h107v-78zM388 253l37 177h-149l-37 -177h149z" />
    <glyph glyph-name="dollar" unicode="$" horiz-adv-x="613" 
d="M577 196q0 -83 -62 -138.5t-167 -64.5l3 -114h-80l2 113q-110 9 -173.5 63t-63.5 122q0 40 25 64.5t61 24.5t57 -22t21 -53q0 -26 -17 -44t-44 -23q47 -57 136 -62l5 221q-108 36 -145 59q-84 53 -84 149q0 85 60 136t162 59l-2 101h80l-2 -102q100 -9 157 -55.5
t57 -110.5q0 -77 -80 -77q-36 0 -57.5 18.5t-21.5 52.5q0 50 52 67q-43 35 -109 39l-5 -209l9 -3q43 -14 65.5 -22.5t58.5 -27.5t54.5 -38.5t33 -51.5t14.5 -71zM191 528q0 -59 88 -95l-4 182q-41 -10 -62.5 -33t-21.5 -54zM346 69q40 10 61.5 34.5t21.5 56.5q0 64 -87 101z
" />
    <glyph glyph-name="percent" unicode="%" horiz-adv-x="994" 
d="M246 282q-89 0 -147.5 58.5t-58.5 145.5t58.5 145.5t147.5 58.5t147.5 -58.5t58.5 -145.5t-58.5 -145.5t-147.5 -58.5zM503 373q25 58 77.5 154t71.5 121q41 59 81 29q39 -27 -2 -85q-20 -28 -93 -107.5t-121 -122.5zM246 338q99 0 99 148t-99 148q-100 0 -100 -148
t100 -148zM748 -10q-89 0 -147.5 58.5t-58.5 145.5t58.5 145.5t147.5 58.5t147.5 -58.5t58.5 -145.5t-58.5 -145.5t-147.5 -58.5zM748 46q99 0 99 148t-99 148q-100 0 -100 -148t100 -148zM478 309q-23 -61 -74.5 -152t-74.5 -124q-41 -57 -81 -29q-40 26 2 86
q20 27 92.5 106.5t120.5 123.5z" />
    <glyph glyph-name="ampersand" unicode="&#x26;" horiz-adv-x="677" 
d="M679 405q0 -91 -133 -114q61 -35 61 -103q0 -83 -84.5 -140.5t-219.5 -57.5q-125 0 -201.5 52t-76.5 137q0 71 52.5 121t140.5 61q-77 10 -118 49t-41 100q0 77 62 128.5t167 51.5q103 0 168 -48t65 -116q0 -43 -25.5 -69.5t-64.5 -26.5q-38 0 -62.5 24.5t-24.5 61.5
q0 56 59 76q-31 18 -71 18q-59 0 -90 -30t-31 -73q0 -46 34.5 -75t82.5 -29h15v-81h-15q-62 0 -96.5 -36t-34.5 -87q0 -58 46 -93t118 -35q74 0 122 35t48 90q0 29 -14.5 52.5t-37.5 34.5q-5 0 -27.5 -2t-31 -3t-24 -3t-24 -5.5t-13.5 -7.5q13 5 29 5q28 0 45.5 -15.5
t17.5 -42.5q0 -30 -22 -50.5t-54 -20.5q-34 0 -55.5 23.5t-21.5 60.5q0 108 191 123q11 1 32 2t34 1.5t28 3t23.5 6.5t11.5 10q-15 -7 -33 -7q-30 0 -45.5 20t-15.5 46q0 31 22.5 50t53.5 19q36 0 57.5 -26t21.5 -65z" />
    <glyph glyph-name="quotesingle" unicode="'" horiz-adv-x="211" 
d="M78 363q-8 39 -21 98t-19.5 93.5t-6.5 57.5q0 33 22 55.5t52 22.5q31 0 52.5 -22.5t21.5 -55.5q0 -24 -6.5 -58.5t-19 -91.5t-20.5 -99h-55z" />
    <glyph glyph-name="parenleft" unicode="(" horiz-adv-x="403" 
d="M325 -123q-133 68 -209.5 183t-76.5 277t76.5 277t209.5 183l38 -62q-89 -81 -134.5 -171.5t-45.5 -226.5t45.5 -226t134.5 -172z" />
    <glyph glyph-name="parenright" unicode=")" horiz-adv-x="383" 
d="M58 -123l-38 62q89 82 134.5 172t45.5 226t-45.5 226.5t-134.5 171.5l38 62q133 -68 209.5 -183t76.5 -277t-76.5 -277t-209.5 -183z" />
    <glyph glyph-name="asterisk" unicode="*" horiz-adv-x="494" 
d="M117 401q-23 16 -25.5 38t13.5 41q23 30 98 68l-5 21q-87 -12 -119 -1q-27 10 -35.5 30t-0.5 43q15 41 56 39q25 -1 47.5 -17.5t62.5 -57.5l17 11q-36 76 -36 111q0 26 15 42t42 16t42 -16t15 -42q0 -35 -36 -111l17 -11q40 40 63 56.5t48 18.5q40 3 55 -39
q10 -20 1 -41.5t-37 -31.5q-32 -11 -119 1l-5 -21q75 -38 98 -68q16 -19 13.5 -41t-24.5 -38t-44 -13t-37 23q-20 29 -37 112h-26q-15 -80 -37 -112q-14 -20 -36.5 -23t-43.5 13z" />
    <glyph glyph-name="plus" unicode="+" horiz-adv-x="566" 
d="M237 254h-172v87h172v177h93v-177h171v-87h-171v-177h-93v177z" />
    <glyph glyph-name="comma" unicode="," horiz-adv-x="261" 
d="M132 174q39 0 64.5 -25.5t25.5 -72.5q0 -147 -170 -243l-27 40q54 37 73.5 63.5t21.5 56.5q-38 4 -59.5 30t-21.5 60q0 39 26.5 65t66.5 26z" />
    <glyph glyph-name="hyphen" unicode="-" horiz-adv-x="406" 
d="M60 313h286v-93h-286v93z" />
    <glyph glyph-name="period" unicode="." horiz-adv-x="261" 
d="M132 175q39 0 64.5 -25.5t25.5 -65.5t-25.5 -65.5t-64.5 -25.5q-40 0 -66.5 26t-26.5 66q0 39 26.5 64.5t66.5 25.5z" />
    <glyph glyph-name="slash" unicode="/" horiz-adv-x="467" 
d="M376 791h99l-385 -907h-99z" />
    <glyph glyph-name="zero" unicode="0" horiz-adv-x="654" 
d="M327 -10q-131 0 -210 99t-79 251t79 251t210 99t210 -99t79 -251t-79 -251t-210 -99zM327 70q66 0 95 65t29 205t-29 205t-95 65t-95.5 -65t-29.5 -205t29.5 -205t95.5 -65z" />
    <glyph glyph-name="one" unicode="1" horiz-adv-x="495" 
d="M363 88h117v-88h-447v88h109q31 0 31 31v381h-136v74q94 5 126 25t43 87h126v-567q0 -31 31 -31z" />
    <glyph glyph-name="two" unicode="2" 
d="M457 237h87v-237h-503v67q14 13 41 38q152 138 200 196q80 95 80 183q0 52 -33.5 86t-84.5 34q-62 0 -101 -37q29 -8 45.5 -28.5t16.5 -49.5q0 -37 -25 -61.5t-63 -24.5q-37 0 -61.5 25.5t-24.5 67.5q0 73 69 133.5t189 60.5q105 0 174 -51.5t69 -154.5q0 -56 -18 -100.5
t-71.5 -93t-92.5 -76.5t-140 -94l-18 -12l169 13q30 2 48.5 10t27.5 23.5t12.5 31t6.5 40.5q1 7 1 11z" />
    <glyph glyph-name="three" unicode="3" horiz-adv-x="560" 
d="M332 343q91 -10 144 -53.5t53 -111.5q0 -84 -72 -136t-180 -52q-117 0 -186.5 53t-69.5 125q0 41 25 67t63 26q37 0 62 -25t25 -62q0 -58 -60 -76q39 -29 96 -29t89 28.5t32 86.5t-33.5 88t-92.5 30h-24v86h24q59 0 91.5 28.5t32.5 83.5t-32 83t-87 28q-56 0 -96 -28
q60 -19 60 -77q0 -37 -25 -62t-62 -25t-62 26t-25 68q0 71 69.5 124t184.5 53q106 0 176.5 -51.5t70.5 -134.5q0 -65 -51 -108t-140 -53z" />
    <glyph glyph-name="four" unicode="4" horiz-adv-x="587" 
d="M574 176h-105v-57q0 -31 31 -31h59v-88h-365v88h96q31 0 31 31v57h-293v88q90 106 127 177.5t45 146.5q2 20 5 33.5t11.5 31.5t25 27.5t41.5 9.5q33 0 53 -25t20 -71q0 -38 -18 -78.5t-38.5 -69.5t-61.5 -67.5t-60.5 -54.5t-62.5 -49q-9 -7 -14 -11h220v119q71 60 84 117
h64v-236h105v-88z" />
    <glyph glyph-name="five" unicode="5" horiz-adv-x="569" 
d="M295 412q63 0 111 -19t75.5 -51t41 -68t13.5 -74q0 -91 -71.5 -150.5t-186.5 -59.5q-110 0 -177 54t-67 125q0 43 24.5 68.5t62.5 25.5t62.5 -24.5t24.5 -61.5q0 -63 -68 -79q45 -37 102 -37q59 0 92.5 41t33.5 105q0 62 -34.5 98t-104.5 36q-31 0 -93 -19l-79 26l40 315
l53 22q20 -4 49 -9t40.5 -7t29.5 -4.5t32 -3.5t31 -1q95 0 171 29l27 -49q-43 -68 -90.5 -97t-117.5 -29q-74 0 -158 50l-23 -197q69 45 154 45z" />
    <glyph glyph-name="six" unicode="6" horiz-adv-x="618" 
d="M365 425q97 0 158 -57t61 -151q0 -101 -71 -164t-185 -63q-130 0 -207.5 85t-77.5 235q0 161 81 270.5t228 109.5q93 0 155 -43.5t62 -111.5q0 -42 -24 -64t-60 -22q-37 0 -61 23.5t-24 58.5q0 50 42 72q-35 16 -77 16q-82 0 -122 -64.5t-47 -200.5q64 71 169 71zM324 60
q49 0 72.5 40t23.5 109q0 146 -96 146q-50 0 -75 -39t-25 -106q0 -68 25 -109t75 -41z" />
    <glyph glyph-name="seven" unicode="7" horiz-adv-x="558" 
d="M35 680h514v-49q-50 -65 -86 -116t-59 -96t-36 -71.5t-19.5 -66t-8.5 -54.5t-2.5 -62.5t-1.5 -66.5q-3 -43 -23 -75.5t-65 -32.5q-41 0 -64 28.5t-23 70.5q0 98 84 234.5t191 235.5h-195q-35 0 -58.5 -11t-35.5 -34.5t-16 -39.5t-8 -46h-88v252z" />
    <glyph glyph-name="eight" unicode="8" horiz-adv-x="593" 
d="M564 196q1 -97 -77.5 -151.5t-201.5 -54.5q-114 0 -185 46.5t-71 119.5q0 103 136 159q-117 64 -117 174q0 94 73.5 146.5t179.5 52.5q101 0 166 -47t65 -117q0 -89 -119 -140q70 -32 110.5 -75t40.5 -113zM307 623q-47 0 -78 -23.5t-31 -62.5q0 -17 5 -30.5t19.5 -26.5
t24 -21t35.5 -20t35.5 -16t42.5 -17q57 50 57 111q0 47 -29.5 76.5t-80.5 29.5zM291 56q49 0 80 25.5t31 67.5q0 16 -4.5 29t-16 25t-21.5 20t-30.5 18t-32.5 16t-38 16.5t-38 15.5q-59 -49 -59 -114q0 -52 37 -85.5t92 -33.5z" />
    <glyph glyph-name="nine" unicode="9" horiz-adv-x="618" 
d="M291 690q130 0 207.5 -85t77.5 -235q0 -161 -81 -270.5t-228 -109.5q-93 0 -155 43.5t-62 111.5q0 42 24 64t60 22q37 0 61 -23.5t24 -58.5q0 -50 -42 -72q35 -16 77 -16q82 0 122 64.5t47 200.5q-64 -71 -169 -71q-97 0 -158 57t-61 151q0 101 71 164t185 63zM295 325
q50 0 75 39t25 106q0 68 -25 109t-75 41q-49 0 -72.5 -40t-23.5 -109q0 -146 96 -146z" />
    <glyph glyph-name="colon" unicode=":" horiz-adv-x="261" 
d="M132 515q39 0 64.5 -25.5t25.5 -65.5t-25.5 -65.5t-64.5 -25.5q-40 0 -66.5 26t-26.5 66q0 39 26.5 64.5t66.5 25.5zM132 175q39 0 64.5 -25.5t25.5 -65.5t-25.5 -65.5t-64.5 -25.5q-40 0 -66.5 26t-26.5 66q0 39 26.5 64.5t66.5 25.5z" />
    <glyph glyph-name="semicolon" unicode=";" horiz-adv-x="261" 
d="M131 515q39 0 64.5 -25.5t25.5 -65.5t-25.5 -65.5t-64.5 -25.5q-40 0 -66.5 26t-26.5 66q0 39 26.5 64.5t66.5 25.5zM132 174q39 0 64.5 -25.5t25.5 -72.5q0 -147 -170 -243l-27 40q54 37 73.5 63.5t21.5 56.5q-38 4 -59.5 30t-21.5 60q0 39 26.5 65t66.5 26z" />
    <glyph glyph-name="less" unicode="&#x3c;" horiz-adv-x="566" 
d="M65 331l416 187v-116l-317 -112l317 -114v-113l-416 185v83z" />
    <glyph glyph-name="equal" unicode="=" horiz-adv-x="566" 
d="M65 368v87h436v-87h-436zM65 181v86h436v-86h-436z" />
    <glyph glyph-name="greater" unicode="&#x3e;" horiz-adv-x="566" 
d="M501 331v-83l-416 -185v113l317 114l-317 112v116z" />
    <glyph glyph-name="question" unicode="?" horiz-adv-x="539" 
d="M270 698q105 0 173 -48.5t68 -135.5q0 -32 -10.5 -61.5t-25.5 -51t-41 -43.5t-46.5 -35.5t-52.5 -29.5t-49.5 -23t-46.5 -19l-36 39q32 27 51.5 46t42.5 47t34 59t11 65q0 111 -115 111q-60 0 -90 -36q31 -7 49.5 -28t18.5 -51q0 -37 -26 -61.5t-64 -24.5t-62.5 25.5
t-24.5 70.5q0 71 62 128t180 57zM264 175q40 0 66.5 -25.5t26.5 -64.5q0 -40 -26.5 -66t-66.5 -26t-66 25.5t-26 65.5t26 65.5t66 25.5z" />
    <glyph glyph-name="at" unicode="@" horiz-adv-x="839" 
d="M639 483l-55 -263q-16 -75 42 -75q47 0 82.5 62t35.5 147q0 129 -82 207.5t-211 78.5q-155 0 -255.5 -107t-100.5 -270q0 -152 90 -240.5t245 -88.5q139 0 245 75l25 -41q-114 -85 -274 -85q-179 0 -290 102t-111 276q0 186 124 307.5t306 121.5q160 0 259.5 -90.5
t99.5 -241.5q0 -126 -69 -200t-155 -74q-51 0 -80 26t-29 72q-45 -97 -144 -97q-63 0 -98 39t-35 113q0 99 54.5 176t142.5 77q90 0 113 -93l21 86h104zM383 158q52 0 82 57.5t30 120.5q0 43 -17 66t-45 23q-47 0 -78.5 -60t-31.5 -125q0 -82 60 -82z" />
    <glyph glyph-name="A" unicode="A" horiz-adv-x="774" 
d="M735 88h31v-88h-347v88h57q14 0 20.5 8.5t1.5 21.5l-26 64h-254l-26 -63q-5 -13 0.5 -22t20.5 -9h59v-88h-264v88h38q34 0 48 34l235 558h113l245 -562q14 -30 48 -30zM248 257h193l-97 237z" />
    <glyph glyph-name="B" unicode="B" horiz-adv-x="685" 
d="M464 354q90 -9 141 -55t51 -118q0 -83 -65 -132t-177 -49h-386v88h60q31 0 31 31v443q0 31 -31 31h-60v87h364q112 0 177 -45t65 -123q0 -63 -45 -104t-125 -54zM286 593v-197h53q60 0 94.5 28.5t34.5 75.5q0 45 -30 69t-84 24h-68zM354 87q64 0 100 28t36 80
q0 49 -32 81t-89 32h-83v-221h68z" />
    <glyph glyph-name="C" unicode="C" horiz-adv-x="727" 
d="M414 84q147 0 199 190l79 -23q-24 -130 -103.5 -195.5t-199.5 -65.5q-156 0 -253 99.5t-97 249.5q0 152 99.5 251.5t255.5 99.5q128 0 213.5 -65.5t85.5 -146.5q0 -45 -28.5 -71.5t-69.5 -26.5q-40 0 -66.5 24.5t-26.5 62.5q0 52 43 78q-41 63 -128 63q-90 0 -143 -65.5
t-53 -190.5q0 -126 51.5 -197t141.5 -71z" />
    <glyph glyph-name="D" unicode="D" horiz-adv-x="788" 
d="M378 680q156 0 264 -94.5t108 -245.5t-108 -245.5t-264 -94.5h-350v88h60q31 0 31 31v443q0 31 -31 31h-60v87h350zM378 88q93 0 141 68t48 184q0 117 -48 185t-141 68h-92v-505h92z" />
    <glyph glyph-name="E" unicode="E" horiz-adv-x="683" 
d="M541 218h95v-218h-608v88h60q31 0 31 31v443q0 31 -31 31h-60v87h586v-217h-95q-8 70 -18 89q-20 41 -80 41h-135v-249h63q10 0 17 2.5t12.5 9t9 11t6 16.5t3.5 16.5t3 20t3 19.5h71v-278h-71q-1 5 -3 19.5t-3 20t-3.5 16.5t-6 16.5t-8.5 11.5t-12.5 8.5t-17.5 2.5h-63
v-168h150q32 0 52.5 9.5t31 31.5t14 38.5t7.5 50.5z" />
    <glyph glyph-name="F" unicode="F" horiz-adv-x="654" 
d="M614 680v-217h-95q-8 70 -18 89q-20 41 -80 41h-135v-249h73q10 0 17 2.5t12.5 9t9 11t6 16.5t3.5 16.5t3 20t3 19.5h71v-278h-71q-1 4 -3 19.5t-3 20t-3.5 16.5t-6 16.5t-9 11t-12.5 9t-17 2.5h-73v-137q0 -31 31 -31h118v-88h-407v88h60q31 0 31 31v443q0 31 -31 31
h-60v87h586z" />
    <glyph glyph-name="G" unicode="G" horiz-adv-x="784" 
d="M384 320h376v-87h-47q-31 0 -31 -31v-202h-38l-72 55q-71 -65 -185 -65q-154 0 -251 100t-97 251q0 150 99.5 249.5t256.5 99.5q129 0 213.5 -61t84.5 -141q0 -45 -28 -71.5t-69 -26.5q-40 0 -66.5 24.5t-26.5 62.5q0 51 41 77q-42 54 -129 54q-92 0 -143 -67t-51 -193
q0 -121 51.5 -192.5t139.5 -71.5q60 0 103 27v91q0 31 -31 31h-100v87z" />
    <glyph glyph-name="H" unicode="H" horiz-adv-x="829" 
d="M741 593q-31 0 -31 -31v-443q0 -31 31 -31h60v-88h-343v88h54q31 0 31 31v136h-257v-136q0 -31 31 -31h54v-88h-343v88h60q31 0 31 31v443q0 31 -31 31h-60v87h343v-87h-54q-31 0 -31 -31v-220h257v220q0 31 -31 31h-54v87h343v-87h-60z" />
    <glyph glyph-name="I" unicode="I" horiz-adv-x="419" 
d="M324 593q-31 0 -31 -31v-443q0 -31 31 -31h65v-88h-359v88h65q31 0 31 31v443q0 31 -31 31h-65v87h359v-87h-65z" />
    <glyph glyph-name="J" unicode="J" horiz-adv-x="593" 
d="M138 680h444v-87h-58q-31 0 -31 -31v-357q0 -95 -66 -155t-181 -60q-105 0 -167 49.5t-62 121.5q0 47 26 72.5t66 25.5q39 0 64 -23t25 -59q0 -33 -20 -57.5t-50 -32.5q32 -16 75 -16q61 0 91.5 39.5t30.5 94.5v357q0 31 -31 31h-156v87z" />
    <glyph glyph-name="K" unicode="K" horiz-adv-x="790" 
d="M28 0v88h60q31 0 31 31v443q0 31 -31 31h-60v87h343v-87h-54q-31 0 -31 -31v-443q0 -31 31 -31h37v-88h-326zM415 0v88h46q31 0 10 30l-158 214l216 232q12 13 10 21t-17 8h-74v87h319v-87h-35q-52 0 -80 -31l-172 -189l183 -246q30 -39 80 -39h42v-88h-370z" />
    <glyph glyph-name="L" unicode="L" horiz-adv-x="653" 
d="M525 290h88v-290h-585v88h60q31 0 31 31v443q0 31 -31 31h-60v87h385v-87h-96q-31 0 -31 -31v-474h119q62 0 87.5 52t32.5 150z" />
    <glyph glyph-name="M" unicode="M" horiz-adv-x="929" 
d="M841 593q-31 0 -31 -31v-443q0 -31 31 -31h60v-88h-336v88h46q31 0 31 31v385l-171 -367h-58l-197 365v-383q0 -31 31 -31h60v-88h-279v88h60q31 0 31 31v443q0 31 -31 31h-60v87h270l183 -323l159 323h261v-87h-60z" />
    <glyph glyph-name="N" unicode="N" horiz-adv-x="781" 
d="M763 680v-87h-60q-31 0 -31 -31v-562h-75l-381 466v-347q0 -31 31 -31h75v-88h-294v88h60q31 0 31 31v443q0 31 -31 31h-60v87h230l317 -395v277q0 31 -31 31h-72v87h291z" />
    <glyph glyph-name="O" unicode="O" horiz-adv-x="786" 
d="M393 690q158 0 256.5 -99.5t98.5 -250.5t-98.5 -250.5t-256.5 -99.5t-256 99.5t-98 250.5t98 250.5t256 99.5zM393 73q82 0 127 70t45 197t-45 197.5t-127 70.5t-127 -70.5t-45 -197.5t45 -197t127 -70z" />
    <glyph glyph-name="P" unicode="P" horiz-adv-x="695" 
d="M390 247h-104v-128q0 -31 31 -31h123v-88h-412v88h60q31 0 31 31v443q0 31 -31 31h-60v87h362q119 0 196.5 -61.5t77.5 -152.5q0 -94 -77.5 -156.5t-196.5 -62.5zM286 593v-262h67q61 0 97.5 38t36.5 97q0 55 -36.5 91t-97.5 36h-67z" />
    <glyph glyph-name="Q" unicode="Q" horiz-adv-x="789" 
d="M748 340q0 -151 -98.5 -250.5t-256.5 -99.5t-256 99.5t-98 250.5t98 250.5t256 99.5t256.5 -99.5t98.5 -250.5zM221 340q0 -127 45 -197t127 -70t127 70t45 197t-45 197.5t-127 70.5t-127 -70.5t-45 -197.5zM692 -49q32 0 53 -21t21 -53q0 -40 -28.5 -66.5t-69.5 -26.5
q-66 0 -143 68q-17 15 -37 36.5t-31 29.5t-25 8q29 -17 29 -52q0 -30 -19.5 -49t-49.5 -19q-33 0 -54 21t-21 52q0 40 28.5 65.5t70.5 25.5q67 0 145 -68q21 -18 39.5 -38t27.5 -27t22 -7h12q-39 12 -39 52q0 30 19.5 49.5t49.5 19.5z" />
    <glyph glyph-name="R" unicode="R" horiz-adv-x="754" 
d="M701 88h44v-88h-268l-62 194q-20 73 -102 73h-27v-148q0 -31 31 -31h52v-88h-341v88h60q31 0 31 31v443q0 31 -31 31h-60v87h373q125 0 195 -55.5t70 -136.5q0 -56 -37.5 -102t-86 -69.5t-95.5 -27.5q112 -22 154 -102l35 -67q9 -18 23 -25t42 -7zM364 354
q60 0 94.5 35.5t34.5 88.5q0 52 -34 83.5t-95 31.5h-78v-239h78z" />
    <glyph glyph-name="S" unicode="S" horiz-adv-x="603" 
d="M200 529q0 -30 20 -52t52.5 -36t71.5 -27t78.5 -29.5t72 -38.5t52.5 -60t20 -88q0 -93 -72 -150.5t-191 -57.5q-121 0 -194.5 55t-73.5 130q0 43 25 68.5t63 25.5t59.5 -23t21.5 -57q0 -27 -16 -45t-42 -24q50 -56 135 -56q57 0 90.5 27t33.5 68q0 33 -19.5 56.5
t-51 37.5t-69.5 26.5t-76 28t-69.5 36.5t-51 58t-19.5 87q0 94 69 147.5t183 53.5t182.5 -49t68.5 -121q0 -41 -22.5 -61t-60.5 -20q-37 0 -59.5 20t-22.5 56q0 48 48 68q-45 34 -114 34q-57 0 -89.5 -25t-32.5 -63z" />
    <glyph glyph-name="T" unicode="T" horiz-adv-x="694" 
d="M663 680v-263h-88q-8 101 -18 128q-19 55 -80 55h-47v-481q0 -31 31 -31h78v-88h-385v88h78q31 0 31 31v481h-46q-40 0 -61.5 -24.5t-26 -50t-8.5 -84.5q-1 -16 -2 -24h-88v263h632z" />
    <glyph glyph-name="U" unicode="U" horiz-adv-x="745" 
d="M734 680v-87h-58q-31 0 -31 -31v-352q0 -97 -72 -158.5t-189 -61.5t-196.5 60t-79.5 153v359q0 31 -31 31h-58v87h351v-87h-64q-31 0 -31 -31v-344q0 -63 38 -101t102 -38q63 0 100 37.5t37 101.5v344q0 31 -31 31h-60v87h273z" />
    <glyph glyph-name="V" unicode="V" horiz-adv-x="761" 
d="M498 680h263v-87h-37q-33 0 -48 -33l-234 -560h-112l-243 562q-14 31 -48 31h-39v87h355v-87h-58q-14 0 -19.5 -8.5t-0.5 -21.5l151 -375l151 375q5 12 -0.5 21t-19.5 9h-61v87z" />
    <glyph glyph-name="W" unicode="W" horiz-adv-x="1100" 
d="M833 680h267v-87h-37q-35 0 -48 -34l-209 -559h-90l-162 417l-147 -417h-105l-216 563q-11 30 -47 30h-39v87h351v-87h-45q-15 0 -21 -8.5t-1 -22.5l114 -315l106 315q5 13 -1 22t-21 9h-58v87h336v-87h-48q-14 0 -20.5 -9t-1.5 -22l114 -302l106 301q5 14 -0.5 23
t-20.5 9h-56v87z" />
    <glyph glyph-name="X" unicode="X" horiz-adv-x="753" 
d="M705 88h44v-88h-354v88h38q14 0 18.5 7.5t-4.5 20.5l-108 146l-115 -146q-9 -12 -5 -20t18 -8h45v-88h-271v88h51q35 0 56 28l168 207l-178 235q-28 35 -60 35h-44v87h354v-87h-39q-14 0 -18 -7.5t4 -20.5l109 -147l114 147q9 11 5 19.5t-18 8.5h-51v87h270v-87h-44
q-33 0 -56 -28l-167 -207l178 -235q27 -35 60 -35z" />
    <glyph glyph-name="Y" unicode="Y" horiz-adv-x="688" 
d="M421 680h267v-87h-42q-37 0 -56 -32l-161 -265v-177q0 -31 31 -31h79v-88h-387v88h79q31 0 31 31v139l-170 307q-15 28 -51 28h-41v87h338v-87h-45q-16 0 -21 -8.5t3 -22.5l106 -188l113 191q8 13 3 20.5t-20 7.5h-56v87z" />
    <glyph glyph-name="Z" unicode="Z" horiz-adv-x="617" 
d="M496 275h87v-275h-557v50l341 546h-163q-32 0 -50 -27t-22 -50t-8 -81q-1 -14 -2 -21h-87v263h537v-57l-340 -538h180q25 0 41 12t24.5 43.5t11 48.5t5.5 63q1 5 1 8t0.5 7t0.5 8z" />
    <glyph glyph-name="bracketleft" unicode="[" horiz-adv-x="364" 
d="M80 791h264v-81h-139v-744h139v-82h-264v907z" />
    <glyph glyph-name="backslash" unicode="\" horiz-adv-x="467" 
d="M91 791l385 -907h-99l-385 907h99z" />
    <glyph glyph-name="bracketright" unicode="]" horiz-adv-x="364" 
d="M284 791v-907h-264v82h139v744h-139v81h264z" />
    <glyph glyph-name="asciicircum" unicode="^" horiz-adv-x="440" 
d="M286 432l-66 151l-65 -151h-116l140 248h83l139 -248h-115z" />
    <glyph glyph-name="underscore" unicode="_" horiz-adv-x="432" 
d="M0 -60h432v-80h-432v80z" />
    <glyph glyph-name="grave" unicode="`" horiz-adv-x="277" 
d="M237 574l-28 -25q-83 50 -116 72t-51 43q-21 23 -19 52.5t28 50.5q25 21 53 18t50 -28q17 -20 33.5 -57t49.5 -126z" />
    <glyph glyph-name="a" unicode="a" horiz-adv-x="578" 
d="M521 88h39v-88h-180l-27 63q-44 -73 -149 -73q-77 0 -125.5 43t-48.5 108q0 61 48 101.5t124 40.5q96 0 141 -58v97q0 124 -102 124q-31 0 -59 -7q31 -16 31 -57q0 -34 -23.5 -57t-58.5 -23q-34 0 -56.5 23t-22.5 57q0 57 62 96.5t152 39.5q102 0 163 -51.5t61 -138.5
v-209q0 -31 31 -31zM268 73q32 0 53.5 19.5t21.5 49.5q0 31 -21.5 50.5t-53.5 19.5t-53 -20.5t-21 -50.5q0 -29 21 -48.5t53 -19.5z" />
    <glyph glyph-name="b" unicode="b" horiz-adv-x="634" 
d="M397 518q95 0 152 -74.5t57 -190.5q0 -114 -63.5 -188.5t-160.5 -74.5q-116 0 -177 91l-56 -81h-76v562q0 31 -31 31h-42v87h223v-272q53 110 174 110zM334 83q50 0 80 45t30 125q0 79 -30 124.5t-80 45.5t-80.5 -44t-30.5 -126q0 -83 30 -126.5t81 -43.5z" />
    <glyph glyph-name="c" unicode="c" horiz-adv-x="567" 
d="M329 75q50 0 87 29t47 83l70 -13q-23 -93 -78 -138.5t-150 -45.5q-124 0 -200 71t-76 188q0 118 77 193.5t194 75.5q102 0 169 -54.5t67 -122.5q0 -36 -22.5 -59t-57.5 -23q-37 0 -61 23t-24 58q0 46 35 68q-26 33 -80 33q-72 0 -104 -49.5t-32 -125.5q0 -94 37 -142.5
t102 -48.5z" />
    <glyph glyph-name="d" unicode="d" horiz-adv-x="654" 
d="M593 88h39v-88h-221v85q-47 -95 -166 -95q-98 0 -157 71t-59 192q0 120 59 192.5t157 72.5q119 0 166 -97v141q0 31 -31 31h-39v87h221v-561q0 -31 31 -31zM300 83q51 0 81 43.5t30 126.5q0 82 -30 126t-81 44q-50 0 -80 -45.5t-30 -124.5q0 -80 30 -125t80 -45z" />
    <glyph glyph-name="e" unicode="e" horiz-adv-x="574" 
d="M197 227q13 -155 128 -155q55 0 92 31.5t48 83.5l71 -13q-46 -184 -235 -184q-124 0 -198 72t-74 188t73.5 192t192.5 76q114 0 182 -70.5t68 -178.5q0 -21 -5 -42h-343zM299 450q-98 0 -104 -160h197q-2 87 -24.5 123.5t-68.5 36.5z" />
    <glyph glyph-name="f" unicode="f" horiz-adv-x="410" 
d="M407 541q-34 0 -55.5 21t-21.5 55q0 27 14 42q-47 -2 -68 -27t-21 -90v-34h164v-88h-164v-301q0 -31 31 -31h87v-88h-342v88h42q31 0 31 31v301h-83v88h52q31 0 31 31v3q0 87 65 135t158 48q63 0 109.5 -27.5t46.5 -78.5q0 -35 -20 -56.5t-56 -21.5z" />
    <glyph glyph-name="g" unicode="g" horiz-adv-x="556" 
d="M352 127q89 0 141 -40.5t52 -103.5q0 -74 -76.5 -123.5t-216.5 -49.5q-107 0 -174.5 30t-67.5 91q0 75 114 90q-88 29 -88 101q0 70 92 90q-91 46 -91 137q0 77 66 123t173 46q80 0 141 -28q19 16 25 44q-27 5 -42.5 25t-15.5 46q0 31 22 50.5t56 19.5q32 0 53 -21.5
t21 -53.5q0 -79 -79 -135q57 -46 57 -116q0 -76 -66.5 -122t-171.5 -46q-54 0 -97 12q-32 -8 -32 -32q0 -16 13 -25t35 -9h157zM276 464q-77 0 -77 -115q0 -113 77 -113q75 0 75 113q0 115 -75 115zM264 -114q68 0 105 18t37 51q0 22 -18.5 34t-48.5 12h-139
q-37 0 -59.5 -13t-22.5 -38q0 -31 38.5 -47.5t107.5 -16.5z" />
    <glyph glyph-name="h" unicode="h" horiz-adv-x="657" 
d="M600 88h39v-88h-281v88h29q31 0 31 31v205q0 45 -20 70t-55 25q-100 0 -100 -156v-144q0 -31 31 -31h29v-88h-280v88h39q31 0 31 31v443q0 31 -31 31h-39v87h220v-263q56 101 165 101q71 0 116 -44t45 -116v-239q0 -31 31 -31z" />
    <glyph glyph-name="i" unicode="i" horiz-adv-x="347" 
d="M180 565q-40 0 -66.5 25.5t-26.5 64.5q0 40 26.5 66t66.5 26q39 0 64.5 -25.5t25.5 -65.5t-25.5 -65.5t-64.5 -25.5zM284 88h46v-88h-304v88h46q31 0 31 31v270q0 31 -31 31h-46v88h227v-389q0 -31 31 -31z" />
    <glyph glyph-name="j" unicode="j" horiz-adv-x="335" 
d="M187 565q-40 0 -66.5 25.5t-26.5 64.5q0 40 26.5 66t66.5 26q39 0 64.5 -25.5t25.5 -65.5t-25.5 -65.5t-64.5 -25.5zM23 420v88h242v-508q0 -93 -56 -141.5t-146 -48.5q-60 0 -95 21.5t-35 63.5q0 30 17.5 48.5t46.5 18.5q27 0 45 -16t18 -42q0 -33 -30 -43h10
q48 0 61 28.5t13 110.5v389q0 31 -31 31h-60z" />
    <glyph glyph-name="k" unicode="k" horiz-adv-x="645" 
d="M243 119q0 -31 31 -31h23v-88h-274v88h39q31 0 31 31v443q0 31 -31 31h-39v87h220v-561zM619 88h21v-88h-300v88h24q37 0 16 29l-112 144l141 136q10 9 6.5 16t-17.5 7h-86v88h304v-88h-36q-18 0 -32 -5.5t-19 -10t-19 -17.5l-97 -92l133 -168q12 -15 18 -21t20.5 -12
t34.5 -6z" />
    <glyph glyph-name="l" unicode="l" horiz-adv-x="352" 
d="M284 88h46v-88h-304v88h46q31 0 31 31v443q0 31 -31 31h-46v87h227v-561q0 -31 31 -31z" />
    <glyph glyph-name="m" unicode="m" horiz-adv-x="958" 
d="M901 88h39v-88h-278v88h26q31 0 31 31v217q0 83 -68 83q-93 0 -93 -156v-144q0 -31 31 -31h24v-88h-263v88h27q31 0 31 31v217q0 83 -69 83q-92 0 -92 -156v-144q0 -31 31 -31h23v-88h-275v88h39q31 0 31 31v270q0 31 -31 31h-39v88h221v-83q57 93 156 93q53 0 93 -28.5
t55 -77.5q26 50 68.5 78t94.5 28q69 0 112.5 -43.5t43.5 -114.5v-241q0 -31 31 -31z" />
    <glyph glyph-name="n" unicode="n" horiz-adv-x="661" 
d="M604 88h39v-88h-281v88h29q31 0 31 31v205q0 46 -20 70.5t-56 24.5q-99 0 -99 -156v-144q0 -31 31 -31h28v-88h-280v88h39q31 0 31 31v270q0 31 -31 31h-39v88h221v-91q56 101 164 101q72 0 117 -44t45 -116v-239q0 -31 31 -31z" />
    <glyph glyph-name="o" unicode="o" horiz-adv-x="599" 
d="M300 518q121 0 195.5 -73.5t74.5 -188.5q0 -116 -74.5 -191t-195.5 -75q-122 0 -196.5 75t-74.5 191q0 115 74.5 188.5t196.5 73.5zM300 58q57 0 82 46t25 152q0 104 -25 149t-82 45t-82 -45t-25 -149q0 -106 25 -152t82 -46z" />
    <glyph glyph-name="p" unicode="p" horiz-adv-x="658" 
d="M413 518q98 0 157 -72.5t59 -192.5q0 -121 -59 -192t-157 -71q-119 0 -166 95v-147q0 -31 31 -31h99v-87h-351v87h39q31 0 31 31v451q0 31 -31 31h-39v88h221v-87q47 97 166 97zM358 83q50 0 80 45t30 125q0 79 -30 124.5t-80 45.5q-51 0 -81 -44t-30 -126
q0 -83 30 -126.5t81 -43.5z" />
    <glyph glyph-name="q" unicode="q" horiz-adv-x="655" 
d="M599 420q-31 0 -31 -31v-451q0 -31 31 -31h39v-87h-318v87h66q31 0 31 31v162q-28 -56 -76.5 -83t-102.5 -27q-95 0 -152 74.5t-57 190.5q0 115 60 189t156 74q55 0 103 -25.5t77 -79.5l40 95h173v-88h-39zM301 85q50 0 80 43.5t30 126.5t-30 126.5t-80 43.5t-80.5 -45
t-30.5 -125q0 -79 30.5 -124.5t80.5 -45.5z" />
    <glyph glyph-name="r" unicode="r" horiz-adv-x="511" 
d="M414 518q39 0 64.5 -25t25.5 -62t-24 -62t-60 -25t-58 18.5t-22 52.5v9q-81 -28 -89 -217v-88q0 -31 31 -31h84v-88h-336v88h39q31 0 31 31v270q0 31 -31 31h-39v88h221v-113q49 123 163 123z" />
    <glyph glyph-name="s" unicode="s" horiz-adv-x="488" 
d="M179 393q0 -30 29 -49t70.5 -30.5t83.5 -26.5t71 -48t29 -85q0 -76 -58.5 -120t-162.5 -44q-93 0 -154 35.5t-61 93.5q0 34 20.5 55t55.5 21q34 0 54.5 -19t20.5 -48q0 -38 -34 -56q37 -23 77 -23t63 20t23 50q0 32 -28 52t-67.5 31.5t-79.5 26.5t-68 48.5t-28 84.5
q0 76 57 116t157 40q88 0 143.5 -31t55.5 -86q0 -33 -20.5 -52.5t-55.5 -19.5q-34 0 -55 18.5t-21 49.5q0 32 25 49q-27 12 -55 12q-40 0 -63.5 -18.5t-23.5 -46.5z" />
    <glyph glyph-name="t" unicode="t" horiz-adv-x="411" 
d="M241 -10q-75 0 -121 45.5t-46 109.5v275h-70v88h3q24 0 45 7t34 13.5t31 27t25 29.5t27 38h56v-115h167v-88h-167v-276q0 -23 15 -37t35 -14q52 0 59 60l67 -12q-24 -151 -160 -151z" />
    <glyph glyph-name="u" unicode="u" horiz-adv-x="657" 
d="M589 88h40v-88h-221v90q-56 -100 -165 -100q-71 0 -116 44t-45 115v245q-1 26 -29 26h-40v88h220v-325q0 -45 20 -70t55 -25q100 0 100 156v147q0 29 -30 29h-38v88h218v-389q0 -31 31 -31z" />
    <glyph glyph-name="v" unicode="v" horiz-adv-x="638" 
d="M404 508h231v-88h-35q-35 0 -48 -31l-171 -389h-127l-169 389q-13 31 -47 31h-30v88h318v-88h-38q-15 0 -21.5 -8.5t-1.5 -20.5l95 -242l106 242q5 13 -1 21t-21 8h-40v88z" />
    <glyph glyph-name="w" unicode="w" horiz-adv-x="903" 
d="M670 508h229v-88h-34q-35 0 -48 -32l-149 -388h-110l-101 263l-105 -263h-115l-152 388q-12 32 -47 32h-30v88h300v-88h-35q-14 0 -20.5 -8.5t-2.5 -20.5l73 -232l90 232q5 13 -1 21t-21 8h-37v88h267v-88h-41q-15 0 -21.5 -8.5t-1.5 -20.5l87 -230l86 229
q5 13 -1.5 21.5t-20.5 8.5h-38v88z" />
    <glyph glyph-name="x" unicode="x" horiz-adv-x="610" 
d="M551 88h47v-88h-293v88h20q14 0 17.5 8t-5.5 19l-62 74l-67 -73q-10 -12 -6 -20t19 -8h27v-88h-227v88h38q5 0 8.5 0.5t7.5 2t6 3t5.5 4.5t5 4.5t6 6.5t6.5 7l130 131l-134 148q-21 25 -41 25h-48v88h295v-88h-21q-14 0 -17.5 -9t5.5 -19l61 -74l68 75q10 11 6 19t-19 8
h-27v88h226v-88h-38q-6 0 -11 -1t-10 -4.5t-7 -5t-9 -9.5t-9 -10l-127 -130l132 -146q22 -26 42 -26z" />
    <glyph glyph-name="y" unicode="y" horiz-adv-x="638" 
d="M403 508h231v-88h-34q-33 0 -49 -32l-180 -398q-45 -100 -86.5 -140t-107.5 -40q-57 0 -96 35t-39 88q0 40 23.5 65t60.5 25q34 0 57.5 -21t23.5 -53q0 -29 -18.5 -50t-46.5 -22q14 -7 31 -7q19 0 36 8t27 16.5t22 28t16.5 29.5t14.5 33l-204 404q-15 31 -47 31h-30v88
h317v-88h-37q-15 0 -21.5 -8.5t-1.5 -20.5l106 -216l94 216q5 13 -1 21t-21 8h-40v88z" />
    <glyph glyph-name="z" unicode="z" horiz-adv-x="509" 
d="M396 211h80v-211h-440v51l250 386h-66q-24 0 -42 -8.5t-27.5 -19.5t-16 -33t-9 -36.5t-5.5 -42.5h-79v211h432v-44l-258 -393h82q20 0 35.5 5t26 18t16.5 22.5t10.5 31t6 30.5t4.5 33z" />
    <glyph glyph-name="braceleft" unicode="{" horiz-adv-x="430" 
d="M132 338v-2q81 -8 114 -35.5t33 -93.5v-160q0 -49 27 -66t104 -17v-81q-157 1 -221.5 36.5t-59.5 115.5l10 192q2 28 -16.5 44t-57.5 16h-45v100h45q39 0 57.5 16t16.5 44l-10 193q-5 80 59.5 115t221.5 36v-81q-77 0 -104 -17t-27 -65v-161q0 -66 -33 -93.5t-114 -35.5z
" />
    <glyph glyph-name="bar" unicode="|" horiz-adv-x="288" 
d="M100 794h88v-910h-88v910z" />
    <glyph glyph-name="braceright" unicode="}" horiz-adv-x="430" 
d="M365 387h45v-100h-45q-39 0 -57.5 -16t-16.5 -44l10 -192q5 -80 -59.5 -115.5t-221.5 -36.5v81q77 0 104 17t27 66v160q0 66 33 93.5t114 35.5v2q-81 8 -114 35.5t-33 93.5v161q0 48 -27 65t-104 17v81q157 -1 221.5 -36t59.5 -115l-10 -193q-2 -28 16.5 -44t57.5 -16z
" />
    <glyph glyph-name="asciitilde" unicode="~" horiz-adv-x="566" 
d="M495 400q-5 -70 -37 -113.5t-98 -43.5q-36 0 -89.5 28.5t-84.5 28.5q-26 0 -36.5 -11.5t-19.5 -38.5l-58 19q6 67 38.5 108t95.5 41q37 0 93 -28.5t82 -28.5q19 0 31 9.5t15 17t9 25.5z" />
    <glyph glyph-name="exclamdown" unicode="&#xa1;" horiz-adv-x="312" 
d="M155 336q-40 0 -65.5 25.5t-25.5 65.5t25.5 65.5t65.5 25.5t66 -26t26 -66t-26 -65t-66 -25zM128 257h56q67 -293 67 -341q0 -45 -27 -75t-68 -30t-68 30t-27 75q0 53 67 341z" />
    <glyph glyph-name="cent" unicode="&#xa2;" horiz-adv-x="571" 
d="M329 71q50 0 91.5 29.5t50.5 85.5l67 -12q-44 -184 -232 -184q-22 0 -45 3l-19 -77l-70 15l21 79q-75 28 -119.5 91t-44.5 148q0 116 80.5 191t193.5 75q14 0 21 -1l25 98l71 -16l-27 -95q66 -21 107 -66t41 -94q0 -35 -21 -57.5t-54 -22.5q-34 0 -57 22.5t-23 56.5
q0 45 34 65q-19 22 -47 31l-93 -357q26 -8 49 -8zM309 443q-62 -6 -96 -57t-34 -122q0 -93 46 -146z" />
    <glyph glyph-name="sterling" unicode="&#xa3;" horiz-adv-x="645" 
d="M581 188l42 -20q-32 -178 -169 -178q-27 0 -63.5 15.5t-57.5 28.5t-65 43q-38 -49 -67 -68t-70 -19q-49 0 -82.5 29t-33.5 73q0 46 36 77t92 31q31 0 90 -16q0 40 -42 84h-159v78h84q-37 51 -37 112q0 100 77.5 166t194.5 66q100 0 165 -46.5t65 -113.5q0 -36 -21 -55.5
t-57 -19.5t-57.5 18.5t-21.5 52.5q0 46 48 64q-40 33 -99 33t-95 -35t-36 -86q0 -28 10.5 -52t35.5 -59t31 -45h198v-78h-168q5 -51 -28 -113q110 -38 147 -38q39 0 63 15t50 56zM135 51q48 0 78 61q-47 27 -77 27q-22 0 -36 -12t-14 -31t14.5 -32t34.5 -13z" />
    <glyph glyph-name="currency" unicode="&#xa4;" horiz-adv-x="577" 
d="M436 239q76 -42 89 -55q18 -18 18.5 -40t-18.5 -41q-39 -39 -80 1q-16 15 -56 91q-43 -29 -100 -29t-101 28q-40 -74 -56 -90q-40 -40 -81 -1q-18 19 -17.5 41t18.5 40q13 13 89 55q-32 45 -32 101t32 102q-72 38 -88 54q-19 18 -20 40t18 41q41 39 81 -1q16 -16 56 -90
q44 28 101 28q56 0 100 -28q41 76 56 90q18 18 40 18.5t40 -17.5q40 -39 0 -81q-14 -14 -89 -54q32 -46 32 -102t-32 -101zM289 238q41 0 69 29t28 73t-28 73.5t-69 29.5t-69 -29.5t-28 -73.5t28 -73t69 -29z" />
    <glyph glyph-name="yen" unicode="&#xa5;" horiz-adv-x="685" 
d="M419 680h266v-87h-45q-34 0 -56 -32l-133 -213h123v-72h-154v-54h154v-72h-154v-37q0 -31 31 -31h87v-82h-391v82h87q31 0 31 31v37h-154v72h154v48l-3 6h-151v72h109l-126 217q-15 28 -51 28h-43v87h330v-87h-48q-16 0 -21 -8.5t3 -22.5l110 -202l120 205q16 28 -17 28
h-58v87z" />
    <glyph glyph-name="brokenbar" unicode="&#xa6;" horiz-adv-x="288" 
d="M100 794h88v-389h-88v389zM100 275h88v-391h-88v391z" />
    <glyph glyph-name="section" unicode="&#xa7;" horiz-adv-x="514" 
d="M489 316q0 -70 -76 -109q23 -33 23 -73q0 -65 -47.5 -104.5t-133.5 -39.5q-79 0 -130.5 35t-51.5 86q0 28 18.5 46.5t46.5 18.5q27 0 45 -18t18 -44q0 -35 -36 -49q30 -25 76 -25q44 0 65.5 18.5t21.5 46.5t-31 48.5t-76 36t-89.5 34.5t-75.5 55t-31 87q0 73 81 112
q-18 31 -18 67q0 66 46.5 105.5t126.5 39.5q75 0 125.5 -34.5t50.5 -85.5q0 -27 -18.5 -45.5t-45.5 -18.5t-45 17.5t-18 43.5q0 36 36 49q-29 24 -71 24q-38 0 -59 -18.5t-21 -46.5t30.5 -48t73.5 -35t86 -34t73.5 -55t30.5 -87zM127 396q0 -34 39 -56.5t106 -46.5t100 -46
q15 18 15 39q0 35 -40 57.5t-105 46.5t-98 48q-17 -20 -17 -42z" />
    <glyph glyph-name="dieresis" unicode="&#xa8;" horiz-adv-x="435" 
d="M108 568q-38 0 -62.5 23.5t-24.5 60.5q0 38 24.5 62.5t62.5 24.5q37 0 60.5 -24t23.5 -62q0 -37 -23.5 -61t-60.5 -24zM329 568q-38 0 -62.5 23.5t-24.5 60.5q0 38 25 62.5t62 24.5t60.5 -24t23.5 -62q0 -37 -23.5 -61t-60.5 -24z" />
    <glyph glyph-name="copyright" unicode="&#xa9;" horiz-adv-x="758" 
d="M378 690q147 0 248 -100.5t101 -248.5q0 -149 -101 -250t-248 -101t-247.5 101t-100.5 250q0 147 101 248t247 101zM378 43q124 0 208 86.5t84 211.5q0 124 -84.5 210t-207.5 86q-121 0 -205.5 -86t-84.5 -210q0 -125 84 -211.5t206 -86.5zM448 403q0 32 25 47
q-21 35 -70 35q-109 0 -109 -140q0 -72 28.5 -108.5t80.5 -36.5q80 0 111 103l47 -17q-15 -72 -61 -108.5t-115 -36.5q-91 0 -148 55t-57 140q0 86 58.5 141.5t151.5 55.5q74 0 124.5 -37.5t50.5 -85.5q0 -28 -17 -44.5t-43 -16.5q-24 0 -40.5 15.5t-16.5 38.5z" />
    <glyph glyph-name="ordfeminine" unicode="&#xaa;" horiz-adv-x="446" 
d="M403 350h27v-68h-136l-19 49q-34 -57 -111 -57q-57 0 -92.5 33.5t-35.5 85.5q0 48 34.5 79.5t90.5 31.5q74 0 106 -46v77q0 100 -73 100q-22 0 -47 -8q25 -10 25 -43q0 -26 -17.5 -44t-43.5 -18t-42.5 18t-16.5 44q0 44 46 75t114 31q76 0 122 -40.5t46 -109.5v-167
q0 -23 23 -23zM214 338q23 0 38 15.5t15 40.5q0 24 -15 40t-37 16q-24 0 -38 -16t-14 -41q0 -24 14 -39.5t37 -15.5zM60 132v78h354v-78h-354z" />
    <glyph glyph-name="guillemotleft" unicode="&#xab;" horiz-adv-x="518" 
d="M273 95l-37 -33l-196 162v70l196 162l37 -33l-114 -162zM478 95l-37 -33l-196 162v70l196 162l37 -33l-114 -162z" />
    <glyph glyph-name="registered" unicode="&#xae;" horiz-adv-x="532" 
d="M265 690q100 0 168 -68t68 -168q0 -101 -68 -169.5t-168 -68.5q-99 0 -167 68.5t-68 169.5q0 100 68 168t167 68zM265 255q82 0 138.5 57.5t56.5 141.5q0 83 -56.5 140t-138.5 57q-81 0 -137.5 -57.5t-56.5 -139.5q0 -84 56.5 -141.5t137.5 -57.5zM389 368h16v-30h-99
l-17 65q-6 23 -36 23h-11v-44q0 -11 12 -11h22v-33h-131v33h22q10 0 10 11v157q0 11 -10 11h-22v33h135q42 0 70.5 -22t28.5 -55q0 -25 -16.5 -45t-43.5 -29q29 -9 38 -30l11 -23q5 -11 21 -11zM242 459h22q21 0 33.5 13t12.5 34q0 20 -12.5 32t-33.5 12h-22v-91z" />
    <glyph glyph-name="macron" unicode="&#xaf;" horiz-adv-x="404" 
d="M43 684h319v-98h-319v98z" />
    <glyph glyph-name="degree" unicode="&#xb0;" horiz-adv-x="412" 
d="M206 346q-76 0 -126 49t-50 123t50 123t126 49q75 0 125.5 -49.5t50.5 -122.5t-50.5 -122.5t-125.5 -49.5zM206 418q39 0 62.5 27.5t23.5 72.5t-23.5 72.5t-62.5 27.5q-40 0 -63.5 -27.5t-23.5 -72.5t23.5 -72.5t63.5 -27.5z" />
    <glyph glyph-name="plusminus" unicode="&#xb1;" horiz-adv-x="566" 
d="M236 335h-171v82h171v140h95v-140h170v-82h-170v-139h-95v139zM65 50v86h436v-86h-436z" />
    <glyph glyph-name="uni00B2" unicode="&#xb2;" horiz-adv-x="378" 
d="M294 409h64v-150h-332v46q17 17 49 48.5t43.5 44t33 35.5t29 34.5t18 29.5t13.5 33t3 32q0 30 -16.5 48t-46.5 18q-25 0 -44 -11q41 -14 41 -55q0 -27 -18.5 -45t-46.5 -18q-27 0 -45.5 18.5t-18.5 49.5q0 49 45 86t120 37q68 0 112.5 -31t44.5 -97q0 -26 -8.5 -48.5
t-19 -39t-40.5 -42t-52 -42t-75 -53.5l79 3q16 1 27 4.5t17.5 6.5t11 12.5t5.5 12.5t4 17t3 16z" />
    <glyph glyph-name="uni00B3" unicode="&#xb3;" horiz-adv-x="367" 
d="M223 473q59 -5 91.5 -31t32.5 -69q0 -54 -47.5 -87.5t-116.5 -33.5q-72 0 -117.5 32t-45.5 80q0 31 18.5 49.5t46.5 18.5q27 0 45.5 -18t18.5 -45q0 -37 -35 -54q15 -4 37 -4q73 0 73 67q0 29 -16.5 47.5t-48.5 18.5h-13v61h13q30 0 47 17t17 46q0 64 -72 64
q-21 0 -38 -6q37 -17 37 -55q0 -26 -18.5 -44t-45.5 -18q-28 0 -46.5 18.5t-18.5 48.5q0 49 45 81.5t118 32.5q68 0 114 -32.5t46 -85.5q0 -85 -121 -99z" />
    <glyph glyph-name="acute" unicode="&#xb4;" horiz-adv-x="277" 
d="M40 574q33 89 49.5 126t33.5 57q22 25 50 28t53 -18q26 -21 28 -50.5t-19 -52.5q-18 -21 -51 -43t-116 -72z" />
    <glyph glyph-name="paragraph" unicode="&#xb6;" horiz-adv-x="707" 
d="M320 680h362v-80h-81q-31 0 -31 -31v-568q0 -93 -56.5 -142t-194.5 -49q-122 0 -185 41t-63 96q0 42 26.5 69t67.5 27q39 0 64.5 -25.5t25.5 -63.5q0 -70 -68 -84q25 -7 51 -7q46 0 59 30.5t13 107.5v263q-118 1 -191.5 57.5t-73.5 153.5q0 93 69.5 149t205.5 56zM480 1
v599h-81v-599q0 -88 -28 -133q54 8 81.5 38.5t27.5 94.5z" />
    <glyph glyph-name="periodcentered" unicode="&#xb7;" horiz-adv-x="341" 
d="M172 422q39 0 64.5 -25.5t25.5 -65.5t-25.5 -65.5t-64.5 -25.5q-40 0 -66.5 26t-26.5 66q0 39 26.5 64.5t66.5 25.5z" />
    <glyph glyph-name="cedilla" unicode="&#xb8;" horiz-adv-x="266" 
d="M133 -55q50 1 81.5 -21.5t31.5 -62.5q0 -43 -35 -70.5t-90 -27.5q-49 0 -101 28l19 47q37 -22 72 -22q21 0 34.5 9.5t13.5 26.5q0 23 -24.5 32.5t-66.5 2.5l-13 30l51 88h57z" />
    <glyph glyph-name="uni00B9" unicode="&#xb9;" horiz-adv-x="343" 
d="M261 320h62v-69h-303v69h68q22 0 22 22v205h-82v58q59 3 81 17.5t29 57.5h100v-338q0 -10 6.5 -16t16.5 -6z" />
    <glyph glyph-name="ordmasculine" unicode="&#xba;" horiz-adv-x="481" 
d="M241 690q95 0 153.5 -58t58.5 -148q0 -91 -58.5 -150.5t-153.5 -59.5q-96 0 -154.5 59.5t-58.5 150.5q0 90 58.5 148t154.5 58zM241 330q45 0 64.5 36t19.5 118q0 80 -19.5 115t-64.5 35q-46 0 -65.5 -35t-19.5 -115q0 -83 19.5 -118.5t65.5 -35.5zM54 210h373v-78h-373
v78z" />
    <glyph glyph-name="guillemotright" unicode="&#xbb;" horiz-adv-x="518" 
d="M40 95l114 166l-114 162l37 33l196 -162v-70l-196 -162zM245 95l114 166l-114 162l37 33l196 -162v-70l-196 -162z" />
    <glyph glyph-name="onequarter" unicode="&#xbc;" horiz-adv-x="894" 
d="M722 592q-20 -28 -93 -107.5t-121 -122.5l-14 11q25 58 77.5 154t71.5 121q41 59 81 29q39 -27 -2 -85zM323 320v-69h-303v69h68q22 0 22 22v205h-82v58q59 3 81 17.5t29 57.5h100v-338q0 -10 6.5 -16t16.5 -6h62zM874 105h-61v-19q0 -9 6.5 -15.5t15.5 -6.5h30v-64h-234
v64h48q10 0 16.5 6.5t6.5 15.5v19h-178v65q54 64 76.5 105.5t31.5 84.5q4 17 6 25t9 22.5t19 21.5t29 7q27 0 42.5 -17.5t15.5 -44.5q0 -26 -13 -52.5t-37.5 -50.5t-44 -40.5t-48 -36.5t-33.5 -24h125v54q56 45 70 89h41v-143h61v-65zM241 90q20 27 92.5 106.5t120.5 123.5
l15 -11q-23 -61 -74.5 -152t-74.5 -124q-41 -57 -81 -29q-40 26 2 86z" />
    <glyph glyph-name="onehalf" unicode="&#xbd;" horiz-adv-x="939" 
d="M726 677q39 -27 -2 -85q-20 -28 -93 -107.5t-121 -122.5l-14 11q25 58 77.5 154t71.5 121q41 59 81 29zM323 320v-69h-303v69h68q22 0 22 22v205h-82v58q59 3 81 17.5t29 57.5h100v-338q0 -10 6.5 -16t16.5 -6h62zM856 150h64v-150h-332v46q17 17 49 48.5t43.5 44
t33 35.5t29 34.5t18 29.5t13.5 33t3 32q0 30 -16.5 48t-46.5 18q-25 0 -44 -11q41 -14 41 -55q0 -27 -18.5 -45t-46.5 -18q-27 0 -45.5 18.5t-18.5 49.5q0 49 45 86t120 37q68 0 112.5 -31t44.5 -97q0 -26 -8.5 -48.5t-19 -39t-40.5 -42t-52 -42t-75 -53.5l79 3q16 1 27 4.5
t17.5 6.5t11 12.5t5.5 12.5t4 17t3 16zM243 90q20 27 92.5 106.5t120.5 123.5l15 -11q-23 -61 -74.5 -152t-74.5 -124q-41 -57 -81 -29q-40 26 2 86z" />
    <glyph glyph-name="threequarters" unicode="&#xbe;" horiz-adv-x="886" 
d="M223 473q59 -5 91.5 -31t32.5 -69q0 -54 -47.5 -87.5t-116.5 -33.5q-72 0 -117.5 32t-45.5 80q0 31 18.5 49.5t46.5 18.5q27 0 45.5 -18t18.5 -45q0 -37 -35 -54q15 -4 37 -4q73 0 73 67q0 29 -16.5 47.5t-48.5 18.5h-13v61h13q30 0 47 17t17 46q0 64 -72 64
q-21 0 -38 -6q37 -17 37 -55q0 -26 -18.5 -44t-45.5 -18q-28 0 -46.5 18.5t-18.5 48.5q0 49 45 81.5t118 32.5q68 0 114 -32.5t46 -85.5q0 -85 -121 -99zM475 373q25 58 77.5 154t71.5 121q41 59 81 29q39 -27 -2 -85q-20 -28 -93 -107.5t-121 -122.5zM866 105h-61v-19
q0 -9 6.5 -15.5t15.5 -6.5h30v-64h-234v64h48q10 0 16.5 6.5t6.5 15.5v19h-178v65q54 64 76.5 105.5t31.5 84.5q4 17 6 25t9 22.5t19 21.5t29 7q27 0 42.5 -17.5t15.5 -44.5q0 -26 -13 -52.5t-37.5 -50.5t-44 -40.5t-48 -36.5t-33.5 -24h125v54q56 45 70 89h41v-143h61v-65z
M450 309q-23 -61 -74.5 -152t-74.5 -124q-41 -57 -81 -29q-40 26 2 86q20 27 92.5 106.5t120.5 123.5z" />
    <glyph glyph-name="questiondown" unicode="&#xbf;" horiz-adv-x="539" 
d="M275 336q-40 0 -66.5 25.5t-26.5 64.5q0 40 26.5 66t66.5 26t66 -25.5t26 -65.5t-26 -65.5t-66 -25.5zM424 94q38 0 62.5 -25.5t24.5 -70.5q0 -71 -62 -128t-180 -57q-105 0 -173 48.5t-68 135.5q0 32 10.5 61.5t25.5 51t41 43.5t46.5 35.5t52.5 29.5t49.5 23t46.5 19
l36 -39q-32 -27 -51.5 -46t-42.5 -47t-34 -59t-11 -65q0 -111 115 -111q60 0 90 36q-31 7 -49.5 28t-18.5 51q0 37 26 61.5t64 24.5z" />
    <glyph glyph-name="Agrave" unicode="&#xc0;" horiz-adv-x="774" 
d="M404 721q-83 50 -116 72t-51 43q-21 23 -19 52.5t28 50.5q25 21 53 18t50 -28q17 -20 33.5 -57t49.5 -126zM735 88h31v-88h-347v88h57q14 0 20.5 8.5t1.5 21.5l-26 64h-254l-26 -63q-5 -13 0.5 -22t20.5 -9h59v-88h-264v88h38q34 0 48 34l235 558h113l245 -562
q14 -30 48 -30zM248 257h193l-97 237z" />
    <glyph glyph-name="Aacute" unicode="&#xc1;" horiz-adv-x="774" 
d="M550 836q-18 -21 -51 -43t-116 -72l-28 25q33 89 49.5 126t33.5 57q22 25 50 28t53 -18q26 -21 28 -50.5t-19 -52.5zM735 88h31v-88h-347v88h57q14 0 20.5 8.5t1.5 21.5l-26 64h-254l-26 -63q-5 -13 0.5 -22t20.5 -9h59v-88h-264v88h38q34 0 48 34l235 558h113l245 -562
q14 -30 48 -30zM248 257h193l-97 237z" />
    <glyph glyph-name="Acircumflex" unicode="&#xc2;" horiz-adv-x="774" 
d="M387 805l-110 -75l-48 43l119 146q21 26 39 26q16 0 39 -26l119 -146l-47 -43zM735 88h31v-88h-347v88h57q14 0 20.5 8.5t1.5 21.5l-26 64h-254l-26 -63q-5 -13 0.5 -22t20.5 -9h59v-88h-264v88h38q34 0 48 34l235 558h113l245 -562q14 -30 48 -30zM248 257h193l-97 237z
" />
    <glyph glyph-name="Atilde" unicode="&#xc3;" horiz-adv-x="774" 
d="M294 805q-24 0 -33 -11.5t-17 -38.5l-59 18q5 67 35.5 109t92.5 42q35 0 88 -28.5t77 -28.5q6 0 11 1t9.5 3t7.5 4t6 6l4.5 6t3.5 7.5t3 7.5t3 8t2 7l59 -12q-3 -69 -34 -113t-95 -44q-33 0 -84 28.5t-80 28.5zM735 88h31v-88h-347v88h57q14 0 20.5 8.5t1.5 21.5l-26 64
h-254l-26 -63q-5 -13 0.5 -22t20.5 -9h59v-88h-264v88h38q34 0 48 34l235 558h113l245 -562q14 -30 48 -30zM248 257h193l-97 237z" />
    <glyph glyph-name="Adieresis" unicode="&#xc4;" horiz-adv-x="774" 
d="M278 740q-38 0 -62.5 23.5t-24.5 60.5q0 38 24.5 62.5t62.5 24.5q37 0 60.5 -24t23.5 -62q0 -37 -23.5 -61t-60.5 -24zM499 740q-38 0 -62.5 23.5t-24.5 60.5q0 38 25 62.5t62 24.5t60.5 -24t23.5 -62q0 -37 -23.5 -61t-60.5 -24zM735 88h31v-88h-347v88h57
q14 0 20.5 8.5t1.5 21.5l-26 64h-254l-26 -63q-5 -13 0.5 -22t20.5 -9h59v-88h-264v88h38q34 0 48 34l235 558h113l245 -562q14 -30 48 -30zM248 257h193l-97 237z" />
    <glyph glyph-name="Aring" unicode="&#xc5;" horiz-adv-x="774" 
d="M387 728q-55 0 -92 31.5t-37 78.5q0 49 37 81t92 32t92 -32t37 -79q0 -48 -37 -80t-92 -32zM386 893q-22 0 -36.5 -15t-14.5 -38t15 -38.5t38 -15.5q22 0 36.5 15t14.5 38t-15 38.5t-38 15.5zM735 88h31v-88h-347v88h57q14 0 20.5 8.5t1.5 21.5l-26 64h-254l-26 -63
q-5 -13 0.5 -22t20.5 -9h59v-88h-264v88h38q34 0 48 34l235 558h113l245 -562q14 -30 48 -30zM248 257h193l-97 237z" />
    <glyph glyph-name="AE" unicode="&#xc6;" horiz-adv-x="1031" 
d="M890 218h95v-218h-611v88h63q31 0 31 31v63h-222l-39 -63q-7 -13 -0.5 -22t21.5 -9h59v-88h-279v88h38q17 0 26.5 8t21.5 26l284 442q8 13 4 22q-5 7 -26 7h-48v87h655v-217h-95q-8 70 -18 89q-21 40 -80 41h-135v-249h62q10 0 17 2.5t12.5 9t9 11t6 16.5t3.5 16.5t3 20
t3 19.5h71v-278h-71q-1 5 -3 19.5t-3 20t-3.5 16.5t-6 16.5t-8.5 11.5t-12.5 8.5t-17.5 2.5h-62v-168h150q32 0 52.5 9.5t31 31.5t14 38.5t7.5 50.5zM293 257h175v279z" />
    <glyph glyph-name="Ccedilla" unicode="&#xc7;" horiz-adv-x="727" 
d="M414 84q147 0 199 190l79 -23q-24 -130 -103.5 -195.5t-199.5 -65.5q-16 0 -23 1l-23 -46q50 1 81.5 -21.5t31.5 -62.5q0 -43 -35 -70.5t-90 -27.5q-48 0 -101 28l19 47q37 -22 72 -22q21 0 34.5 9.5t13.5 26.5q0 23 -24.5 32.5t-66.5 2.5l-13 30l47 80
q-124 25 -198.5 119t-74.5 223q0 152 99.5 251.5t255.5 99.5q128 0 213.5 -65.5t85.5 -146.5q0 -45 -28.5 -71.5t-69.5 -26.5q-40 0 -66.5 24.5t-26.5 62.5q0 52 43 78q-41 63 -128 63q-90 0 -143 -65.5t-53 -190.5q0 -126 51.5 -197t141.5 -71z" />
    <glyph glyph-name="Egrave" unicode="&#xc8;" horiz-adv-x="683" 
d="M424 747l-28 -25q-83 50 -116 72t-51 43q-21 23 -19 52.5t28 50.5q25 21 53 18t50 -28q17 -20 33.5 -57t49.5 -126zM541 218h95v-218h-608v88h60q31 0 31 31v443q0 31 -31 31h-60v87h586v-217h-95q-8 70 -18 89q-20 41 -80 41h-135v-249h63q10 0 17 2.5t12.5 9t9 11
t6 16.5t3.5 16.5t3 20t3 19.5h71v-278h-71q-1 5 -3 19.5t-3 20t-3.5 16.5t-6 16.5t-8.5 11.5t-12.5 8.5t-17.5 2.5h-63v-168h150q32 0 52.5 9.5t31 31.5t14 38.5t7.5 50.5z" />
    <glyph glyph-name="Eacute" unicode="&#xc9;" horiz-adv-x="683" 
d="M309 746q33 89 49.5 126t33.5 57q22 25 50 28t53 -18q26 -21 28 -50.5t-19 -52.5q-18 -21 -51 -43t-116 -72zM541 218h95v-218h-608v88h60q31 0 31 31v443q0 31 -31 31h-60v87h586v-217h-95q-8 70 -18 89q-20 41 -80 41h-135v-249h63q10 0 17 2.5t12.5 9t9 11t6 16.5
t3.5 16.5t3 20t3 19.5h71v-278h-71q-1 5 -3 19.5t-3 20t-3.5 16.5t-6 16.5t-8.5 11.5t-12.5 8.5t-17.5 2.5h-63v-168h150q32 0 52.5 9.5t31 31.5t14 38.5t7.5 50.5z" />
    <glyph glyph-name="Ecircumflex" unicode="&#xca;" horiz-adv-x="683" 
d="M231 730l-48 43l119 146q21 26 39 26q16 0 39 -26l119 -146l-47 -43l-111 75zM541 218h95v-218h-608v88h60q31 0 31 31v443q0 31 -31 31h-60v87h586v-217h-95q-8 70 -18 89q-20 41 -80 41h-135v-249h63q10 0 17 2.5t12.5 9t9 11t6 16.5t3.5 16.5t3 20t3 19.5h71v-278h-71
q-1 5 -3 19.5t-3 20t-3.5 16.5t-6 16.5t-8.5 11.5t-12.5 8.5t-17.5 2.5h-63v-168h150q32 0 52.5 9.5t31 31.5t14 38.5t7.5 50.5z" />
    <glyph glyph-name="Edieresis" unicode="&#xcb;" horiz-adv-x="683" 
d="M232 740q-38 0 -62.5 23.5t-24.5 60.5q0 38 24.5 62.5t62.5 24.5q37 0 60.5 -24t23.5 -62q0 -37 -23.5 -61t-60.5 -24zM453 740q-38 0 -62.5 23.5t-24.5 60.5q0 38 25 62.5t62 24.5t60.5 -24t23.5 -62q0 -37 -23.5 -61t-60.5 -24zM541 218h95v-218h-608v88h60q31 0 31 31
v443q0 31 -31 31h-60v87h586v-217h-95q-8 70 -18 89q-20 41 -80 41h-135v-249h63q10 0 17 2.5t12.5 9t9 11t6 16.5t3.5 16.5t3 20t3 19.5h71v-278h-71q-1 5 -3 19.5t-3 20t-3.5 16.5t-6 16.5t-8.5 11.5t-12.5 8.5t-17.5 2.5h-63v-168h150q32 0 52.5 9.5t31 31.5t14 38.5
t7.5 50.5z" />
    <glyph glyph-name="Igrave" unicode="&#xcc;" horiz-adv-x="419" 
d="M255 746l-28 -25q-83 50 -116 72t-51 43q-21 23 -19 52.5t28 50.5q25 21 53 18t50 -28q17 -20 33.5 -57t49.5 -126zM324 593q-31 0 -31 -31v-443q0 -31 31 -31h65v-88h-359v88h65q31 0 31 31v443q0 31 -31 31h-65v87h359v-87h-65z" />
    <glyph glyph-name="Iacute" unicode="&#xcd;" horiz-adv-x="419" 
d="M178 746q33 89 49.5 126t33.5 57q22 25 50 28t53 -18q26 -21 28 -50.5t-19 -52.5q-18 -21 -51 -43t-116 -72zM324 593q-31 0 -31 -31v-443q0 -31 31 -31h65v-88h-359v88h65q31 0 31 31v443q0 31 -31 31h-65v87h359v-87h-65z" />
    <glyph glyph-name="Icircumflex" unicode="&#xce;" horiz-adv-x="419" 
d="M100 730l-48 43l119 146q21 26 39 26q16 0 39 -26l119 -146l-47 -43l-111 75zM324 593q-31 0 -31 -31v-443q0 -31 31 -31h65v-88h-359v88h65q31 0 31 31v443q0 31 -31 31h-65v87h359v-87h-65z" />
    <glyph glyph-name="Idieresis" unicode="&#xcf;" horiz-adv-x="419" 
d="M101 740q-38 0 -62.5 23.5t-24.5 60.5q0 38 25 62.5t62 24.5t60.5 -24t23.5 -62q0 -37 -23.5 -61t-60.5 -24zM322 740q-38 0 -62.5 23.5t-24.5 60.5q0 38 24.5 62.5t62.5 24.5q37 0 60.5 -24t23.5 -62q0 -37 -23.5 -61t-60.5 -24zM324 593q-31 0 -31 -31v-443
q0 -31 31 -31h65v-88h-359v88h65q31 0 31 31v443q0 31 -31 31h-65v87h359v-87h-65z" />
    <glyph glyph-name="Eth" unicode="&#xd0;" horiz-adv-x="788" 
d="M378 680q156 0 264 -94.5t108 -245.5t-108 -245.5t-264 -94.5h-350v88h60q31 0 31 31v166h-86v95h86v182q0 31 -31 31h-60v87h350zM378 88q93 0 141 68t48 184q0 117 -48 185t-141 68h-92v-213h119v-95h-119v-197h92z" />
    <glyph glyph-name="Ntilde" unicode="&#xd1;" horiz-adv-x="781" 
d="M591 905q-3 -69 -34 -113t-95 -44q-33 0 -84 28.5t-80 28.5q-24 0 -33 -11.5t-17 -38.5l-59 18q5 67 35.5 109t92.5 42q35 0 88 -28.5t77 -28.5q6 0 11 1t9.5 3t7.5 4t6 6l4.5 6t3.5 7.5t3 7.5t3 8t2 7zM763 680v-87h-60q-31 0 -31 -31v-562h-75l-381 466v-347
q0 -31 31 -31h75v-88h-294v88h60q31 0 31 31v443q0 31 -31 31h-60v87h230l317 -395v277q0 31 -31 31h-72v87h291z" />
    <glyph glyph-name="Ograve" unicode="&#xd2;" horiz-adv-x="786" 
d="M440 746l-28 -25q-83 50 -116 72t-51 43q-21 23 -19 52.5t28 50.5q25 21 53 18t50 -28q17 -20 33.5 -57t49.5 -126zM393 690q158 0 256.5 -99.5t98.5 -250.5t-98.5 -250.5t-256.5 -99.5t-256 99.5t-98 250.5t98 250.5t256 99.5zM393 73q82 0 127 70t45 197t-45 197.5
t-127 70.5t-127 -70.5t-45 -197.5t45 -197t127 -70z" />
    <glyph glyph-name="Oacute" unicode="&#xd3;" horiz-adv-x="786" 
d="M363 746q33 89 49.5 126t33.5 57q22 25 50 28t53 -18q26 -21 28 -50.5t-19 -52.5q-18 -21 -51 -43t-116 -72zM393 690q158 0 256.5 -99.5t98.5 -250.5t-98.5 -250.5t-256.5 -99.5t-256 99.5t-98 250.5t98 250.5t256 99.5zM393 73q82 0 127 70t45 197t-45 197.5t-127 70.5
t-127 -70.5t-45 -197.5t45 -197t127 -70z" />
    <glyph glyph-name="Ocircumflex" unicode="&#xd4;" horiz-adv-x="786" 
d="M285 730l-48 43l119 146q21 26 39 26q16 0 39 -26l119 -146l-47 -43l-111 75zM393 690q158 0 256.5 -99.5t98.5 -250.5t-98.5 -250.5t-256.5 -99.5t-256 99.5t-98 250.5t98 250.5t256 99.5zM393 73q82 0 127 70t45 197t-45 197.5t-127 70.5t-127 -70.5t-45 -197.5
t45 -197t127 -70z" />
    <glyph glyph-name="Otilde" unicode="&#xd5;" horiz-adv-x="786" 
d="M595 905q-3 -69 -34 -113t-95 -44q-33 0 -84 28.5t-80 28.5q-24 0 -33 -11.5t-17 -38.5l-59 18q5 67 35.5 109t92.5 42q35 0 88 -28.5t77 -28.5q6 0 11 1t9.5 3t7.5 4t6 6l4.5 6t3.5 7.5t3 7.5t3 8t2 7zM393 690q158 0 256.5 -99.5t98.5 -250.5t-98.5 -250.5
t-256.5 -99.5t-256 99.5t-98 250.5t98 250.5t256 99.5zM393 73q82 0 127 70t45 197t-45 197.5t-127 70.5t-127 -70.5t-45 -197.5t45 -197t127 -70z" />
    <glyph glyph-name="Odieresis" unicode="&#xd6;" horiz-adv-x="786" 
d="M286 740q-38 0 -62.5 23.5t-24.5 60.5q0 38 24.5 62.5t62.5 24.5q37 0 60.5 -24t23.5 -62q0 -37 -23.5 -61t-60.5 -24zM507 740q-38 0 -62.5 23.5t-24.5 60.5q0 38 25 62.5t62 24.5t60.5 -24t23.5 -62q0 -37 -23.5 -61t-60.5 -24zM393 690q158 0 256.5 -99.5t98.5 -250.5
t-98.5 -250.5t-256.5 -99.5t-256 99.5t-98 250.5t98 250.5t256 99.5zM393 73q82 0 127 70t45 197t-45 197.5t-127 70.5t-127 -70.5t-45 -197.5t45 -197t127 -70z" />
    <glyph glyph-name="multiply" unicode="&#xd7;" horiz-adv-x="566" 
d="M478 434l-135 -136l135 -135l-58 -59l-136 136l-136 -137l-59 58l137 137l-138 137l59 58l137 -136l136 136z" />
    <glyph glyph-name="Oslash" unicode="&#xd8;" horiz-adv-x="791" 
d="M770 633l-87 -79q68 -90 68 -214q0 -151 -98.5 -250.5t-256.5 -99.5q-143 0 -240 84l-88 -80l-47 59l85 77q-64 91 -64 210q0 151 98 250.5t256 99.5q142 0 240 -85l88 79zM224 340q0 -51 8 -97l304 272q-45 93 -140 93q-82 0 -127 -70.5t-45 -197.5zM568 340
q0 56 -9 101l-303 -275q45 -93 140 -93q82 0 127 70t45 197z" />
    <glyph glyph-name="Ugrave" unicode="&#xd9;" horiz-adv-x="745" 
d="M463 746l-28 -25q-83 50 -116 72t-51 43q-21 23 -19 52.5t28 50.5q25 21 53 18t50 -28q17 -20 33.5 -57t49.5 -126zM734 680v-87h-58q-31 0 -31 -31v-352q0 -97 -72 -158.5t-189 -61.5t-196.5 60t-79.5 153v359q0 31 -31 31h-58v87h351v-87h-64q-31 0 -31 -31v-344
q0 -63 38 -101t102 -38q63 0 100 37.5t37 101.5v344q0 31 -31 31h-60v87h273z" />
    <glyph glyph-name="Uacute" unicode="&#xda;" horiz-adv-x="745" 
d="M386 746q33 89 49.5 126t33.5 57q22 25 50 28t53 -18q26 -21 28 -50.5t-19 -52.5q-18 -21 -51 -43t-116 -72zM734 680v-87h-58q-31 0 -31 -31v-352q0 -97 -72 -158.5t-189 -61.5t-196.5 60t-79.5 153v359q0 31 -31 31h-58v87h351v-87h-64q-31 0 -31 -31v-344
q0 -63 38 -101t102 -38q63 0 100 37.5t37 101.5v344q0 31 -31 31h-60v87h273z" />
    <glyph glyph-name="Ucircumflex" unicode="&#xdb;" horiz-adv-x="745" 
d="M308 730l-48 43l119 146q21 26 39 26q16 0 39 -26l119 -146l-47 -43l-111 75zM734 680v-87h-58q-31 0 -31 -31v-352q0 -97 -72 -158.5t-189 -61.5t-196.5 60t-79.5 153v359q0 31 -31 31h-58v87h351v-87h-64q-31 0 -31 -31v-344q0 -63 38 -101t102 -38q63 0 100 37.5
t37 101.5v344q0 31 -31 31h-60v87h273z" />
    <glyph glyph-name="Udieresis" unicode="&#xdc;" horiz-adv-x="745" 
d="M309 740q-38 0 -62.5 23.5t-24.5 60.5q0 38 25 62.5t62 24.5t60.5 -24t23.5 -62q0 -37 -23.5 -61t-60.5 -24zM530 740q-38 0 -62.5 23.5t-24.5 60.5q0 38 24.5 62.5t62.5 24.5q37 0 60.5 -24t23.5 -62q0 -37 -23.5 -61t-60.5 -24zM734 680v-87h-58q-31 0 -31 -31v-352
q0 -97 -72 -158.5t-189 -61.5t-196.5 60t-79.5 153v359q0 31 -31 31h-58v87h351v-87h-64q-31 0 -31 -31v-344q0 -63 38 -101t102 -38q63 0 100 37.5t37 101.5v344q0 31 -31 31h-60v87h273z" />
    <glyph glyph-name="Yacute" unicode="&#xdd;" horiz-adv-x="688" 
d="M541 836q-18 -21 -51 -43t-116 -72l-28 25q33 89 49.5 126t33.5 57q22 25 50 28t53 -18q26 -21 28 -50.5t-19 -52.5zM421 680h267v-87h-42q-37 0 -56 -32l-161 -265v-177q0 -31 31 -31h79v-88h-387v88h79q31 0 31 31v139l-170 307q-15 28 -51 28h-41v87h338v-87h-45
q-16 0 -21 -8.5t3 -22.5l106 -188l113 191q8 13 3 20.5t-20 7.5h-56v87z" />
    <glyph glyph-name="Thorn" unicode="&#xde;" horiz-adv-x="695" 
d="M390 149h-104v-30q0 -31 31 -31h78v-88h-367v88h60q31 0 31 31v443q0 31 -31 31h-60v87h367v-87h-78q-31 0 -31 -31v-25h104q122 0 198 -51.5t76 -140.5q0 -92 -76 -144t-198 -52zM353 457h-67v-232h67q63 0 98.5 31.5t35.5 88.5q0 53 -35.5 82.5t-98.5 29.5z" />
    <glyph glyph-name="germandbls" unicode="&#xdf;" horiz-adv-x="675" 
d="M435 370q0 -17 23.5 -32.5t57 -30t67 -33.5t57 -52t23.5 -77q0 -71 -57.5 -113t-154.5 -42q-82 0 -128.5 32.5t-46.5 85.5q0 36 20.5 57.5t52.5 21.5q30 0 50 -18t20 -47q0 -38 -35 -54q20 -11 48 -11q34 0 54 16.5t20 44.5t-25.5 55.5t-56 47t-56 50.5t-25.5 66
q0 38 45.5 112t45.5 116q0 39 -23 66t-68 27q-48 0 -75.5 -34t-27.5 -100v-524h-227v88h45q31 0 31 31v270q0 31 -31 31h-45v88h76v24q0 81 71 137t190 56q98 0 164.5 -41t66.5 -115q0 -42 -23 -75.5t-50 -51t-50 -37t-23 -35.5z" />
    <glyph glyph-name="agrave" unicode="&#xe0;" horiz-adv-x="578" 
d="M323 549q-83 50 -116 72t-51 43q-21 23 -19 52.5t28 50.5q25 21 53 18t50 -28q17 -20 33.5 -57t49.5 -126zM521 88h39v-88h-180l-27 63q-44 -73 -149 -73q-77 0 -125.5 43t-48.5 108q0 61 48 101.5t124 40.5q96 0 141 -58v97q0 124 -102 124q-31 0 -59 -7q31 -16 31 -57
q0 -34 -23.5 -57t-58.5 -23q-34 0 -56.5 23t-22.5 57q0 57 62 96.5t152 39.5q102 0 163 -51.5t61 -138.5v-209q0 -31 31 -31zM268 73q32 0 53.5 19.5t21.5 49.5q0 31 -21.5 50.5t-53.5 19.5t-53 -20.5t-21 -50.5q0 -29 21 -48.5t53 -19.5z" />
    <glyph glyph-name="aacute" unicode="&#xe1;" horiz-adv-x="578" 
d="M431 664q-18 -21 -51 -43t-116 -72l-28 25q33 89 49.5 126t33.5 57q22 25 50 28t53 -18q26 -21 28 -50.5t-19 -52.5zM521 88h39v-88h-180l-27 63q-44 -73 -149 -73q-77 0 -125.5 43t-48.5 108q0 61 48 101.5t124 40.5q96 0 141 -58v97q0 124 -102 124q-31 0 -59 -7
q31 -16 31 -57q0 -34 -23.5 -57t-58.5 -23q-34 0 -56.5 23t-22.5 57q0 57 62 96.5t152 39.5q102 0 163 -51.5t61 -138.5v-209q0 -31 31 -31zM268 73q32 0 53.5 19.5t21.5 49.5q0 31 -21.5 50.5t-53.5 19.5t-53 -20.5t-21 -50.5q0 -29 21 -48.5t53 -19.5z" />
    <glyph glyph-name="acircumflex" unicode="&#xe2;" horiz-adv-x="578" 
d="M268 633l-110 -75l-48 43l119 146q21 26 39 26q16 0 39 -26l119 -146l-47 -43zM521 88h39v-88h-180l-27 63q-44 -73 -149 -73q-77 0 -125.5 43t-48.5 108q0 61 48 101.5t124 40.5q96 0 141 -58v97q0 124 -102 124q-31 0 -59 -7q31 -16 31 -57q0 -34 -23.5 -57t-58.5 -23
q-34 0 -56.5 23t-22.5 57q0 57 62 96.5t152 39.5q102 0 163 -51.5t61 -138.5v-209q0 -31 31 -31zM268 73q32 0 53.5 19.5t21.5 49.5q0 31 -21.5 50.5t-53.5 19.5t-53 -20.5t-21 -50.5q0 -29 21 -48.5t53 -19.5z" />
    <glyph glyph-name="atilde" unicode="&#xe3;" horiz-adv-x="578" 
d="M175 633q-24 0 -33 -11.5t-17 -38.5l-59 18q5 67 35.5 109t92.5 42q36 0 89 -28.5t76 -28.5q6 0 11 1t9.5 3t7.5 4t6 6l4.5 6t3.5 7.5t3 7.5t3 8t2 7l59 -12q-3 -69 -34 -113t-95 -44q-33 0 -84 28.5t-80 28.5zM521 88h39v-88h-180l-27 63q-44 -73 -149 -73
q-77 0 -125.5 43t-48.5 108q0 61 48 101.5t124 40.5q96 0 141 -58v97q0 124 -102 124q-31 0 -59 -7q31 -16 31 -57q0 -34 -23.5 -57t-58.5 -23q-34 0 -56.5 23t-22.5 57q0 57 62 96.5t152 39.5q102 0 163 -51.5t61 -138.5v-209q0 -31 31 -31zM268 73q32 0 53.5 19.5
t21.5 49.5q0 31 -21.5 50.5t-53.5 19.5t-53 -20.5t-21 -50.5q0 -29 21 -48.5t53 -19.5z" />
    <glyph glyph-name="adieresis" unicode="&#xe4;" horiz-adv-x="578" 
d="M159 568q-38 0 -62.5 23.5t-24.5 60.5q0 38 25 62.5t62 24.5t60.5 -24t23.5 -62q0 -37 -23.5 -61t-60.5 -24zM380 568q-38 0 -62.5 23.5t-24.5 60.5q0 38 24.5 62.5t62.5 24.5q37 0 60.5 -24t23.5 -62q0 -37 -23.5 -61t-60.5 -24zM521 88h39v-88h-180l-27 63
q-44 -73 -149 -73q-77 0 -125.5 43t-48.5 108q0 61 48 101.5t124 40.5q96 0 141 -58v97q0 124 -102 124q-31 0 -59 -7q31 -16 31 -57q0 -34 -23.5 -57t-58.5 -23q-34 0 -56.5 23t-22.5 57q0 57 62 96.5t152 39.5q102 0 163 -51.5t61 -138.5v-209q0 -31 31 -31zM268 73
q32 0 53.5 19.5t21.5 49.5q0 31 -21.5 50.5t-53.5 19.5t-53 -20.5t-21 -50.5q0 -29 21 -48.5t53 -19.5z" />
    <glyph glyph-name="aring" unicode="&#xe5;" horiz-adv-x="578" 
d="M268 556q-55 0 -92 31.5t-37 78.5q0 49 37 81t92 32t92 -32t37 -79q0 -48 -37 -80t-92 -32zM267 721q-22 0 -36.5 -15t-14.5 -38t15 -38.5t38 -15.5q22 0 36.5 15t14.5 38t-15 38.5t-38 15.5zM521 88h39v-88h-180l-27 63q-44 -73 -149 -73q-77 0 -125.5 43t-48.5 108
q0 61 48 101.5t124 40.5q96 0 141 -58v97q0 124 -102 124q-31 0 -59 -7q31 -16 31 -57q0 -34 -23.5 -57t-58.5 -23q-34 0 -56.5 23t-22.5 57q0 57 62 96.5t152 39.5q102 0 163 -51.5t61 -138.5v-209q0 -31 31 -31zM268 73q32 0 53.5 19.5t21.5 49.5q0 31 -21.5 50.5
t-53.5 19.5t-53 -20.5t-21 -50.5q0 -29 21 -48.5t53 -19.5z" />
    <glyph glyph-name="ae" unicode="&#xe6;" horiz-adv-x="888" 
d="M859 269q0 -21 -5 -42h-344q13 -155 129 -155q55 0 92 31.5t48 83.5l71 -13q-46 -184 -235 -184q-146 0 -211 99q-61 -99 -182 -99q-80 0 -136 43.5t-56 107.5q0 61 48 101.5t124 40.5q97 0 141 -58v97q0 124 -102 124q-30 0 -60 -7q32 -17 32 -57q0 -34 -23.5 -57
t-58.5 -23q-34 0 -56.5 23t-22.5 57q0 57 62 96.5t152 39.5q115 0 170 -71q65 71 173 71q114 0 182 -70.5t68 -178.5zM509 290h197q-1 87 -24 123.5t-69 36.5q-97 0 -104 -160zM268 73q32 0 53.5 19.5t21.5 49.5q0 31 -21.5 50.5t-53.5 19.5t-53 -20.5t-21 -50.5
q0 -29 21 -48.5t53 -19.5z" />
    <glyph glyph-name="ccedilla" unicode="&#xe7;" horiz-adv-x="567" 
d="M329 75q50 0 87 29t47 83l70 -13q-23 -93 -78 -138.5t-149 -45.5l-23 -45q50 1 81.5 -21.5t31.5 -62.5q0 -43 -35 -70.5t-90 -27.5q-49 0 -101 28l19 47q37 -22 72 -22q21 0 34.5 9.5t13.5 26.5q0 23 -24.5 32.5t-66.5 2.5l-13 30l45 77q-101 16 -161 84t-60 171
q0 118 77 193.5t194 75.5q102 0 169 -54.5t67 -122.5q0 -36 -22.5 -59t-57.5 -23q-37 0 -61 23t-24 58q0 46 35 68q-26 33 -80 33q-72 0 -104 -49.5t-32 -125.5q0 -94 37 -142.5t102 -48.5z" />
    <glyph glyph-name="egrave" unicode="&#xe8;" horiz-adv-x="574" 
d="M336 549q-83 50 -116 72t-51 43q-21 23 -19 52.5t28 50.5q25 21 53 18t50 -28q17 -20 33.5 -57t49.5 -126zM197 227q13 -155 128 -155q55 0 92 31.5t48 83.5l71 -13q-46 -184 -235 -184q-124 0 -198 72t-74 188t73.5 192t192.5 76q114 0 182 -70.5t68 -178.5
q0 -21 -5 -42h-343zM299 450q-98 0 -104 -160h197q-2 87 -24.5 123.5t-68.5 36.5z" />
    <glyph glyph-name="eacute" unicode="&#xe9;" horiz-adv-x="574" 
d="M460 664q-18 -21 -51 -43t-116 -72l-28 25q33 89 49.5 126t33.5 57q22 25 50 28t53 -18q26 -21 28 -50.5t-19 -52.5zM197 227q13 -155 128 -155q55 0 92 31.5t48 83.5l71 -13q-46 -184 -235 -184q-124 0 -198 72t-74 188t73.5 192t192.5 76q114 0 182 -70.5t68 -178.5
q0 -21 -5 -42h-343zM299 450q-98 0 -104 -160h197q-2 87 -24.5 123.5t-68.5 36.5z" />
    <glyph glyph-name="ecircumflex" unicode="&#xea;" horiz-adv-x="574" 
d="M297 633l-110 -75l-48 43l119 146q21 26 39 26q16 0 39 -26l119 -146l-47 -43zM197 227q13 -155 128 -155q55 0 92 31.5t48 83.5l71 -13q-46 -184 -235 -184q-124 0 -198 72t-74 188t73.5 192t192.5 76q114 0 182 -70.5t68 -178.5q0 -21 -5 -42h-343zM299 450
q-98 0 -104 -160h197q-2 87 -24.5 123.5t-68.5 36.5z" />
    <glyph glyph-name="edieresis" unicode="&#xeb;" horiz-adv-x="574" 
d="M188 568q-38 0 -62.5 23.5t-24.5 60.5q0 38 24.5 62.5t62.5 24.5q37 0 60.5 -24t23.5 -62q0 -37 -23.5 -61t-60.5 -24zM409 568q-38 0 -62.5 23.5t-24.5 60.5q0 38 25 62.5t62 24.5t60.5 -24t23.5 -62q0 -37 -23.5 -61t-60.5 -24zM197 227q13 -155 128 -155q55 0 92 31.5
t48 83.5l71 -13q-46 -184 -235 -184q-124 0 -198 72t-74 188t73.5 192t192.5 76q114 0 182 -70.5t68 -178.5q0 -21 -5 -42h-343zM299 450q-98 0 -104 -160h197q-2 87 -24.5 123.5t-68.5 36.5z" />
    <glyph glyph-name="igrave" unicode="&#xec;" horiz-adv-x="347" 
d="M219 574l-28 -25q-83 50 -116 72t-51 43q-21 23 -19 52.5t28 50.5q25 21 53 18t50 -28q17 -20 33.5 -57t49.5 -126zM284 88h46v-88h-304v88h46q31 0 31 31v270q0 31 -31 31h-46v88h227v-389q0 -31 31 -31z" />
    <glyph glyph-name="iacute" unicode="&#xed;" horiz-adv-x="347" 
d="M142 574q33 89 49.5 126t33.5 57q22 25 50 28t53 -18q26 -21 28 -50.5t-19 -52.5q-18 -21 -51 -43t-116 -72zM284 88h46v-88h-304v88h46q31 0 31 31v270q0 31 -31 31h-46v88h227v-389q0 -31 31 -31z" />
    <glyph glyph-name="icircumflex" unicode="&#xee;" horiz-adv-x="347" 
d="M64 558l-48 43l119 146q21 26 39 26q16 0 39 -26l119 -146l-47 -43l-111 75zM284 88h46v-88h-304v88h46q31 0 31 31v270q0 31 -31 31h-46v88h227v-389q0 -31 31 -31z" />
    <glyph glyph-name="idieresis" unicode="&#xef;" horiz-adv-x="347" 
d="M65 568q-38 0 -62.5 23.5t-24.5 60.5q0 38 25 62.5t62 24.5t60.5 -24t23.5 -62q0 -37 -23.5 -61t-60.5 -24zM286 568q-38 0 -62.5 23.5t-24.5 60.5q0 38 24.5 62.5t62.5 24.5q37 0 60.5 -24t23.5 -62q0 -37 -23.5 -61t-60.5 -24zM284 88h46v-88h-304v88h46q31 0 31 31
v270q0 31 -31 31h-46v88h227v-389q0 -31 31 -31z" />
    <glyph glyph-name="eth" unicode="&#xf0;" horiz-adv-x="599" 
d="M399 622q87 -71 129 -160t42 -206q0 -116 -74.5 -191t-195.5 -75q-122 0 -196.5 75t-74.5 191q0 112 68.5 187t164.5 75q90 0 144 -78l1 1q-30 86 -108 154l-150 -39l-16 60l106 28q-37 25 -82 50l100 20q33 -17 76 -44l135 35l15 -60zM300 62q52 0 79.5 50t27.5 144
q0 85 -27.5 130t-79.5 45q-107 0 -107 -175q0 -194 107 -194z" />
    <glyph glyph-name="ntilde" unicode="&#xf1;" horiz-adv-x="661" 
d="M530 733q-3 -69 -34 -113t-95 -44q-33 0 -84 28.5t-80 28.5q-24 0 -33 -11.5t-17 -38.5l-59 18q5 67 35.5 109t92.5 42q36 0 89 -28.5t76 -28.5q6 0 11 1t9.5 3t7.5 4t6 6l4.5 6t3.5 7.5t3 7.5t3 8t2 7zM604 88h39v-88h-281v88h29q31 0 31 31v205q0 46 -20 70.5t-56 24.5
q-99 0 -99 -156v-144q0 -31 31 -31h28v-88h-280v88h39q31 0 31 31v270q0 31 -31 31h-39v88h221v-91q56 101 164 101q72 0 117 -44t45 -116v-239q0 -31 31 -31z" />
    <glyph glyph-name="ograve" unicode="&#xf2;" horiz-adv-x="599" 
d="M345 574l-28 -25q-83 50 -116 72t-51 43q-21 23 -19 52.5t28 50.5q25 21 53 18t50 -28q17 -20 33.5 -57t49.5 -126zM300 518q121 0 195.5 -73.5t74.5 -188.5q0 -116 -74.5 -191t-195.5 -75q-122 0 -196.5 75t-74.5 191q0 115 74.5 188.5t196.5 73.5zM300 58q57 0 82 46
t25 152q0 104 -25 149t-82 45t-82 -45t-25 -149q0 -106 25 -152t82 -46z" />
    <glyph glyph-name="oacute" unicode="&#xf3;" horiz-adv-x="599" 
d="M268 574q33 89 49.5 126t33.5 57q22 25 50 28t53 -18q26 -21 28 -50.5t-19 -52.5q-18 -21 -51 -43t-116 -72zM300 518q121 0 195.5 -73.5t74.5 -188.5q0 -116 -74.5 -191t-195.5 -75q-122 0 -196.5 75t-74.5 191q0 115 74.5 188.5t196.5 73.5zM300 58q57 0 82 46t25 152
q0 104 -25 149t-82 45t-82 -45t-25 -149q0 -106 25 -152t82 -46z" />
    <glyph glyph-name="ocircumflex" unicode="&#xf4;" horiz-adv-x="599" 
d="M190 558l-48 43l119 146q21 26 39 26q16 0 39 -26l119 -146l-47 -43l-111 75zM300 518q121 0 195.5 -73.5t74.5 -188.5q0 -116 -74.5 -191t-195.5 -75q-122 0 -196.5 75t-74.5 191q0 115 74.5 188.5t196.5 73.5zM300 58q57 0 82 46t25 152q0 104 -25 149t-82 45t-82 -45
t-25 -149q0 -106 25 -152t82 -46z" />
    <glyph glyph-name="otilde" unicode="&#xf5;" horiz-adv-x="599" 
d="M500 733q-3 -69 -34 -113t-95 -44q-33 0 -84 28.5t-80 28.5q-24 0 -33 -11.5t-17 -38.5l-59 18q5 67 35.5 109t92.5 42q36 0 89 -28.5t76 -28.5q6 0 11 1t9.5 3t7.5 4t6 6l4.5 6t3.5 7.5t3 7.5t3 8t2 7zM300 518q121 0 195.5 -73.5t74.5 -188.5q0 -116 -74.5 -191
t-195.5 -75q-122 0 -196.5 75t-74.5 191q0 115 74.5 188.5t196.5 73.5zM300 58q57 0 82 46t25 152q0 104 -25 149t-82 45t-82 -45t-25 -149q0 -106 25 -152t82 -46z" />
    <glyph glyph-name="odieresis" unicode="&#xf6;" horiz-adv-x="599" 
d="M191 568q-38 0 -62.5 23.5t-24.5 60.5q0 38 25 62.5t62 24.5t60.5 -24t23.5 -62q0 -37 -23.5 -61t-60.5 -24zM412 568q-38 0 -62.5 23.5t-24.5 60.5q0 38 24.5 62.5t62.5 24.5q37 0 60.5 -24t23.5 -62q0 -37 -23.5 -61t-60.5 -24zM300 518q121 0 195.5 -73.5t74.5 -188.5
q0 -116 -74.5 -191t-195.5 -75q-122 0 -196.5 75t-74.5 191q0 115 74.5 188.5t196.5 73.5zM300 58q57 0 82 46t25 152q0 104 -25 149t-82 45t-82 -45t-25 -149q0 -106 25 -152t82 -46z" />
    <glyph glyph-name="divide" unicode="&#xf7;" horiz-adv-x="566" 
d="M284 397q-35 0 -58.5 22.5t-23.5 57.5t23.5 58t58.5 23t57.5 -22t22.5 -58t-22.5 -58.5t-57.5 -22.5zM46 251v94h474v-94h-474zM284 198q35 0 57.5 -22.5t22.5 -58.5t-22.5 -58t-57.5 -22t-58.5 23t-23.5 58t23.5 57.5t58.5 22.5z" />
    <glyph glyph-name="oslash" unicode="&#xf8;" horiz-adv-x="596" 
d="M578 474l-60 -56q52 -66 52 -162q0 -116 -74.5 -191t-195.5 -75q-106 0 -178 59l-59 -55l-45 53l57 52q-46 66 -46 157q0 115 74.5 188.5t196.5 73.5q103 0 174 -55l62 56zM193 256q0 -33 1 -48l196 178q-23 64 -90 64q-57 0 -82 -45t-25 -149zM407 256q0 23 -2 57
l-197 -184q21 -71 92 -71q57 0 82 46t25 152z" />
    <glyph glyph-name="ugrave" unicode="&#xf9;" horiz-adv-x="657" 
d="M356 574l-28 -25q-83 50 -116 72t-51 43q-21 23 -19 52.5t28 50.5q25 21 53 18t50 -28q17 -20 33.5 -57t49.5 -126zM589 88h40v-88h-221v90q-56 -100 -165 -100q-71 0 -116 44t-45 115v245q-1 26 -29 26h-40v88h220v-325q0 -45 20 -70t55 -25q100 0 100 156v147
q0 29 -30 29h-38v88h218v-389q0 -31 31 -31z" />
    <glyph glyph-name="uacute" unicode="&#xfa;" horiz-adv-x="657" 
d="M474 664q-18 -21 -51 -43t-116 -72l-28 25q33 89 49.5 126t33.5 57q22 25 50 28t53 -18q26 -21 28 -50.5t-19 -52.5zM589 88h40v-88h-221v90q-56 -100 -165 -100q-71 0 -116 44t-45 115v245q-1 26 -29 26h-40v88h220v-325q0 -45 20 -70t55 -25q100 0 100 156v147
q0 29 -30 29h-38v88h218v-389q0 -31 31 -31z" />
    <glyph glyph-name="ucircumflex" unicode="&#xfb;" horiz-adv-x="657" 
d="M201 558l-48 43l119 146q21 26 39 26q16 0 39 -26l119 -146l-47 -43l-111 75zM589 88h40v-88h-221v90q-56 -100 -165 -100q-71 0 -116 44t-45 115v245q-1 26 -29 26h-40v88h220v-325q0 -45 20 -70t55 -25q100 0 100 156v147q0 29 -30 29h-38v88h218v-389q0 -31 31 -31z
" />
    <glyph glyph-name="udieresis" unicode="&#xfc;" horiz-adv-x="657" 
d="M202 568q-38 0 -62.5 23.5t-24.5 60.5q0 38 24.5 62.5t62.5 24.5q37 0 60.5 -24t23.5 -62q0 -37 -23.5 -61t-60.5 -24zM423 568q-38 0 -62.5 23.5t-24.5 60.5q0 38 25 62.5t62 24.5t60.5 -24t23.5 -62q0 -37 -23.5 -61t-60.5 -24zM589 88h40v-88h-221v90
q-56 -100 -165 -100q-71 0 -116 44t-45 115v245q-1 26 -29 26h-40v88h220v-325q0 -45 20 -70t55 -25q100 0 100 156v147q0 29 -30 29h-38v88h218v-389q0 -31 31 -31z" />
    <glyph glyph-name="yacute" unicode="&#xfd;" horiz-adv-x="638" 
d="M506 664q-18 -21 -51 -43t-116 -72l-28 25q33 89 49.5 126t33.5 57q22 25 50 28t53 -18q26 -21 28 -50.5t-19 -52.5zM403 508h231v-88h-34q-33 0 -49 -32l-180 -398q-45 -100 -86.5 -140t-107.5 -40q-57 0 -96 35t-39 88q0 40 23.5 65t60.5 25q34 0 57.5 -21t23.5 -53
q0 -29 -18.5 -50t-46.5 -22q14 -7 31 -7q19 0 36 8t27 16.5t22 28t16.5 29.5t14.5 33l-204 404q-15 31 -47 31h-30v88h317v-88h-37q-15 0 -21.5 -8.5t-1.5 -20.5l106 -216l94 216q5 13 -1 21t-21 8h-40v88z" />
    <glyph glyph-name="thorn" unicode="&#xfe;" horiz-adv-x="658" 
d="M413 518q98 0 157 -72.5t59 -192.5q0 -121 -59 -192t-157 -71q-119 0 -166 95v-147q0 -31 31 -31h99v-87h-351v87h39q31 0 31 31v624q0 31 -31 31h-39v87h221v-259q47 97 166 97zM358 83q50 0 80 45t30 125q0 79 -30 124.5t-80 45.5q-51 0 -81 -44t-30 -126
q0 -83 30 -126.5t81 -43.5z" />
    <glyph glyph-name="ydieresis" unicode="&#xff;" horiz-adv-x="638" 
d="M234 568q-38 0 -62.5 23.5t-24.5 60.5q0 38 24.5 62.5t62.5 24.5q37 0 60.5 -24t23.5 -62q0 -37 -23.5 -61t-60.5 -24zM455 568q-38 0 -62.5 23.5t-24.5 60.5q0 38 25 62.5t62 24.5t60.5 -24t23.5 -62q0 -37 -23.5 -61t-60.5 -24zM403 508h231v-88h-34q-33 0 -49 -32
l-180 -398q-45 -100 -86.5 -140t-107.5 -40q-57 0 -96 35t-39 88q0 40 23.5 65t60.5 25q34 0 57.5 -21t23.5 -53q0 -29 -18.5 -50t-46.5 -22q14 -7 31 -7q19 0 36 8t27 16.5t22 28t16.5 29.5t14.5 33l-204 404q-15 31 -47 31h-30v88h317v-88h-37q-15 0 -21.5 -8.5
t-1.5 -20.5l106 -216l94 216q5 13 -1 21t-21 8h-40v88z" />
    <glyph glyph-name="Amacron" unicode="&#x100;" horiz-adv-x="774" 
d="M546 856v-98h-319v98h319zM735 88h31v-88h-347v88h57q14 0 20.5 8.5t1.5 21.5l-26 64h-254l-26 -63q-5 -13 0.5 -22t20.5 -9h59v-88h-264v88h38q34 0 48 34l235 558h113l245 -562q14 -30 48 -30zM248 257h193l-97 237z" />
    <glyph glyph-name="amacron" unicode="&#x101;" horiz-adv-x="578" 
d="M427 684v-98h-319v98h319zM521 88h39v-88h-180l-27 63q-44 -73 -149 -73q-77 0 -125.5 43t-48.5 108q0 61 48 101.5t124 40.5q96 0 141 -58v97q0 124 -102 124q-31 0 -59 -7q31 -16 31 -57q0 -34 -23.5 -57t-58.5 -23q-34 0 -56.5 23t-22.5 57q0 57 62 96.5t152 39.5
q102 0 163 -51.5t61 -138.5v-209q0 -31 31 -31zM268 73q32 0 53.5 19.5t21.5 49.5q0 31 -21.5 50.5t-53.5 19.5t-53 -20.5t-21 -50.5q0 -29 21 -48.5t53 -19.5z" />
    <glyph glyph-name="Abreve" unicode="&#x102;" horiz-adv-x="774" 
d="M387 744q-74 0 -116.5 42t-46.5 126l71 11q20 -79 92 -79q70 0 89 79l72 -11q-4 -84 -46.5 -126t-114.5 -42zM735 88h31v-88h-347v88h57q14 0 20.5 8.5t1.5 21.5l-26 64h-254l-26 -63q-5 -13 0.5 -22t20.5 -9h59v-88h-264v88h38q34 0 48 34l235 558h113l245 -562
q14 -30 48 -30zM248 257h193l-97 237z" />
    <glyph glyph-name="abreve" unicode="&#x103;" horiz-adv-x="578" 
d="M268 572q-74 0 -116.5 42t-46.5 126l71 11q20 -79 92 -79q70 0 89 79l72 -11q-4 -84 -46.5 -126t-114.5 -42zM521 88h39v-88h-180l-27 63q-44 -73 -149 -73q-77 0 -125.5 43t-48.5 108q0 61 48 101.5t124 40.5q96 0 141 -58v97q0 124 -102 124q-31 0 -59 -7
q31 -16 31 -57q0 -34 -23.5 -57t-58.5 -23q-34 0 -56.5 23t-22.5 57q0 57 62 96.5t152 39.5q102 0 163 -51.5t61 -138.5v-209q0 -31 31 -31zM268 73q32 0 53.5 19.5t21.5 49.5q0 31 -21.5 50.5t-53.5 19.5t-53 -20.5t-21 -50.5q0 -29 21 -48.5t53 -19.5z" />
    <glyph glyph-name="Aogonek" unicode="&#x104;" horiz-adv-x="774" 
d="M735 88h31v-88h-67q-55 0 -91 -26t-36 -62q0 -43 46 -43q27 0 48 16l33 -72q-46 -44 -114 -44q-53 0 -88 29.5t-35 75.5q0 39 26 72t73 54h-142v88h57q14 0 20.5 8.5t1.5 21.5l-26 64h-254l-26 -63q-5 -13 0.5 -22t20.5 -9h59v-88h-264v88h38q34 0 48 34l235 558h113
l245 -562q14 -30 48 -30zM248 257h193l-97 237z" />
    <glyph glyph-name="aogonek" unicode="&#x105;" horiz-adv-x="578" 
d="M521 88h39v-88h-18q-55 0 -91 -26t-36 -62q0 -43 46 -43q27 0 48 16l33 -72q-46 -44 -114 -44q-53 0 -88 29.5t-35 75.5q0 39 26 72t73 54h-24l-27 63q-44 -73 -149 -73q-77 0 -125.5 43t-48.5 108q0 61 48 101.5t124 40.5q96 0 141 -58v97q0 124 -102 124q-31 0 -59 -7
q31 -16 31 -57q0 -34 -23.5 -57t-58.5 -23q-34 0 -56.5 23t-22.5 57q0 57 62 96.5t152 39.5q102 0 163 -51.5t61 -138.5v-209q0 -31 31 -31zM268 73q32 0 53.5 19.5t21.5 49.5q0 31 -21.5 50.5t-53.5 19.5t-53 -20.5t-21 -50.5q0 -29 21 -48.5t53 -19.5z" />
    <glyph glyph-name="Cacute" unicode="&#x106;" horiz-adv-x="727" 
d="M562 836q-18 -21 -51 -43t-116 -72l-28 25q33 89 49.5 126t33.5 57q22 25 50 28t53 -18q26 -21 28 -50.5t-19 -52.5zM414 84q147 0 199 190l79 -23q-24 -130 -103.5 -195.5t-199.5 -65.5q-156 0 -253 99.5t-97 249.5q0 152 99.5 251.5t255.5 99.5q128 0 213.5 -65.5
t85.5 -146.5q0 -45 -28.5 -71.5t-69.5 -26.5q-40 0 -66.5 24.5t-26.5 62.5q0 52 43 78q-41 63 -128 63q-90 0 -143 -65.5t-53 -190.5q0 -126 51.5 -197t141.5 -71z" />
    <glyph glyph-name="cacute" unicode="&#x107;" horiz-adv-x="567" 
d="M474 664q-18 -21 -51 -43t-116 -72l-28 25q33 89 49.5 126t33.5 57q22 25 50 28t53 -18q26 -21 28 -50.5t-19 -52.5zM329 75q50 0 87 29t47 83l70 -13q-23 -93 -78 -138.5t-150 -45.5q-124 0 -200 71t-76 188q0 118 77 193.5t194 75.5q102 0 169 -54.5t67 -122.5
q0 -36 -22.5 -59t-57.5 -23q-37 0 -61 23t-24 58q0 46 35 68q-26 33 -80 33q-72 0 -104 -49.5t-32 -125.5q0 -94 37 -142.5t102 -48.5z" />
    <glyph glyph-name="Cdotaccent" unicode="&#x10a;" horiz-adv-x="727" 
d="M400 737q-40 0 -66.5 25.5t-26.5 64.5q0 40 26.5 66t66.5 26q39 0 64.5 -25.5t25.5 -65.5t-25.5 -65.5t-64.5 -25.5zM414 84q147 0 199 190l79 -23q-24 -130 -103.5 -195.5t-199.5 -65.5q-156 0 -253 99.5t-97 249.5q0 152 99.5 251.5t255.5 99.5q128 0 213.5 -65.5
t85.5 -146.5q0 -45 -28.5 -71.5t-69.5 -26.5q-40 0 -66.5 24.5t-26.5 62.5q0 52 43 78q-41 63 -128 63q-90 0 -143 -65.5t-53 -190.5q0 -126 51.5 -197t141.5 -71z" />
    <glyph glyph-name="cdotaccent" unicode="&#x10b;" horiz-adv-x="567" 
d="M312 565q-40 0 -66.5 25.5t-26.5 64.5q0 40 26.5 66t66.5 26q39 0 64.5 -25.5t25.5 -65.5t-25.5 -65.5t-64.5 -25.5zM329 75q50 0 87 29t47 83l70 -13q-23 -93 -78 -138.5t-150 -45.5q-124 0 -200 71t-76 188q0 118 77 193.5t194 75.5q102 0 169 -54.5t67 -122.5
q0 -36 -22.5 -59t-57.5 -23q-37 0 -61 23t-24 58q0 46 35 68q-26 33 -80 33q-72 0 -104 -49.5t-32 -125.5q0 -94 37 -142.5t102 -48.5z" />
    <glyph glyph-name="Ccaron" unicode="&#x10c;" horiz-adv-x="727" 
d="M399 730q-18 0 -39 26l-119 146l48 43l110 -75l111 75l47 -43l-119 -146q-23 -26 -39 -26zM414 84q147 0 199 190l79 -23q-24 -130 -103.5 -195.5t-199.5 -65.5q-156 0 -253 99.5t-97 249.5q0 152 99.5 251.5t255.5 99.5q128 0 213.5 -65.5t85.5 -146.5
q0 -45 -28.5 -71.5t-69.5 -26.5q-40 0 -66.5 24.5t-26.5 62.5q0 52 43 78q-41 63 -128 63q-90 0 -143 -65.5t-53 -190.5q0 -126 51.5 -197t141.5 -71z" />
    <glyph glyph-name="ccaron" unicode="&#x10d;" horiz-adv-x="567" 
d="M311 558q-18 0 -39 26l-119 146l48 43l110 -75l111 75l47 -43l-119 -146q-23 -26 -39 -26zM329 75q50 0 87 29t47 83l70 -13q-23 -93 -78 -138.5t-150 -45.5q-124 0 -200 71t-76 188q0 118 77 193.5t194 75.5q102 0 169 -54.5t67 -122.5q0 -36 -22.5 -59t-57.5 -23
q-37 0 -61 23t-24 58q0 46 35 68q-26 33 -80 33q-72 0 -104 -49.5t-32 -125.5q0 -94 37 -142.5t102 -48.5z" />
    <glyph glyph-name="Dcaron" unicode="&#x10e;" horiz-adv-x="788" 
d="M284 945l110 -75l111 75l47 -43l-119 -146q-23 -26 -39 -26q-18 0 -39 26l-119 146zM378 680q156 0 264 -94.5t108 -245.5t-108 -245.5t-264 -94.5h-350v88h60q31 0 31 31v443q0 31 -31 31h-60v87h350zM378 88q93 0 141 68t48 184q0 117 -48 185t-141 68h-92v-505h92z
" />
    <glyph glyph-name="dcaron" unicode="&#x10f;" horiz-adv-x="654" 
d="M713 689q34 0 56.5 -22t22.5 -64q0 -130 -151 -216l-24 35q35 24 53.5 44t23 31.5t8.5 32.5q-34 4 -53 26t-19 53q0 35 23.5 57.5t59.5 22.5zM562 119q0 -31 31 -31h39v-88h-221v85q-47 -95 -166 -95q-98 0 -157 71t-59 192q0 120 59 192.5t157 72.5q119 0 166 -97v141
q0 31 -31 31h-39v87h221v-561zM300 83q51 0 81 43.5t30 126.5q0 82 -30 126t-81 44q-50 0 -80 -45.5t-30 -124.5q0 -80 30 -125t80 -45z" />
    <glyph glyph-name="Dcroat" unicode="&#x110;" horiz-adv-x="788" 
d="M378 680q156 0 264 -94.5t108 -245.5t-108 -245.5t-264 -94.5h-350v88h60q31 0 31 31v166h-86v95h86v182q0 31 -31 31h-60v87h350zM378 88q93 0 141 68t48 184q0 117 -48 185t-141 68h-92v-213h119v-95h-119v-197h92z" />
    <glyph glyph-name="dcroat" unicode="&#x111;" horiz-adv-x="654" 
d="M632 561h-70v-442q0 -31 31 -31h39v-88h-221v85q-47 -95 -166 -95q-98 0 -157 71t-59 192q0 120 59 192.5t157 72.5q119 0 166 -97v140h-134v65h134v54h151v-54h70v-65zM300 83q51 0 81 43.5t30 126.5q0 82 -30 126t-81 44q-50 0 -80 -45.5t-30 -124.5q0 -80 30 -125
t80 -45z" />
    <glyph glyph-name="Emacron" unicode="&#x112;" horiz-adv-x="683" 
d="M181 856h319v-98h-319v98zM541 218h95v-218h-608v88h60q31 0 31 31v443q0 31 -31 31h-60v87h586v-217h-95q-8 70 -18 89q-20 41 -80 41h-135v-249h63q10 0 17 2.5t12.5 9t9 11t6 16.5t3.5 16.5t3 20t3 19.5h71v-278h-71q-1 5 -3 19.5t-3 20t-3.5 16.5t-6 16.5t-8.5 11.5
t-12.5 8.5t-17.5 2.5h-63v-168h150q32 0 52.5 9.5t31 31.5t14 38.5t7.5 50.5z" />
    <glyph glyph-name="emacron" unicode="&#x113;" horiz-adv-x="574" 
d="M456 684v-98h-319v98h319zM197 227q13 -155 128 -155q55 0 92 31.5t48 83.5l71 -13q-46 -184 -235 -184q-124 0 -198 72t-74 188t73.5 192t192.5 76q114 0 182 -70.5t68 -178.5q0 -21 -5 -42h-343zM299 450q-98 0 -104 -160h197q-2 87 -24.5 123.5t-68.5 36.5z" />
    <glyph glyph-name="Edotaccent" unicode="&#x116;" horiz-adv-x="683" 
d="M342 737q-40 0 -66.5 25.5t-26.5 64.5q0 40 26.5 66t66.5 26q39 0 64.5 -25.5t25.5 -65.5t-25.5 -65.5t-64.5 -25.5zM541 218h95v-218h-608v88h60q31 0 31 31v443q0 31 -31 31h-60v87h586v-217h-95q-8 70 -18 89q-20 41 -80 41h-135v-249h63q10 0 17 2.5t12.5 9t9 11
t6 16.5t3.5 16.5t3 20t3 19.5h71v-278h-71q-1 5 -3 19.5t-3 20t-3.5 16.5t-6 16.5t-8.5 11.5t-12.5 8.5t-17.5 2.5h-63v-168h150q32 0 52.5 9.5t31 31.5t14 38.5t7.5 50.5z" />
    <glyph glyph-name="edotaccent" unicode="&#x117;" horiz-adv-x="574" 
d="M298 565q-40 0 -66.5 25.5t-26.5 64.5q0 40 26.5 66t66.5 26q39 0 64.5 -25.5t25.5 -65.5t-25.5 -65.5t-64.5 -25.5zM197 227q13 -155 128 -155q55 0 92 31.5t48 83.5l71 -13q-46 -184 -235 -184q-124 0 -198 72t-74 188t73.5 192t192.5 76q114 0 182 -70.5t68 -178.5
q0 -21 -5 -42h-343zM299 450q-98 0 -104 -160h197q-2 87 -24.5 123.5t-68.5 36.5z" />
    <glyph glyph-name="Eogonek" unicode="&#x118;" horiz-adv-x="683" 
d="M541 218h95v-218h-9q-55 0 -91 -26t-36 -62q0 -43 46 -43q27 0 48 16l33 -72q-46 -44 -114 -44q-53 0 -88 29.5t-35 75.5q0 39 26 72t73 54h-461v88h60q31 0 31 31v443q0 31 -31 31h-60v87h586v-217h-95q-8 70 -18 89q-20 41 -80 41h-135v-249h63q10 0 17 2.5t12.5 9
t9 11t6 16.5t3.5 16.5t3 20t3 19.5h71v-278h-71q-1 5 -3 19.5t-3 20t-3.5 16.5t-6 16.5t-8.5 11.5t-12.5 8.5t-17.5 2.5h-63v-168h150q32 0 52.5 9.5t31 31.5t14 38.5t7.5 50.5z" />
    <glyph glyph-name="eogonek" unicode="&#x119;" horiz-adv-x="574" 
d="M197 227q13 -155 128 -155q55 0 92 31.5t48 83.5l71 -13q-14 -57 -47 -102q-12 -18 -36 -50t-32.5 -44.5t-16.5 -31t-8 -34.5q0 -20 12.5 -31.5t32.5 -11.5q27 0 48 16l34 -72q-47 -44 -115 -44q-52 0 -87 29t-35 76q0 59 73 121q-28 -5 -58 -5q-124 0 -198 72t-74 188
t73.5 192t192.5 76q114 0 182 -70.5t68 -178.5q0 -21 -5 -42h-343zM299 450q-98 0 -104 -160h197q-2 87 -24.5 123.5t-68.5 36.5z" />
    <glyph glyph-name="Ecaron" unicode="&#x11a;" horiz-adv-x="683" 
d="M231 945l110 -75l111 75l47 -43l-119 -146q-23 -26 -39 -26q-18 0 -39 26l-119 146zM541 218h95v-218h-608v88h60q31 0 31 31v443q0 31 -31 31h-60v87h586v-217h-95q-8 70 -18 89q-20 41 -80 41h-135v-249h63q10 0 17 2.5t12.5 9t9 11t6 16.5t3.5 16.5t3 20t3 19.5h71
v-278h-71q-1 5 -3 19.5t-3 20t-3.5 16.5t-6 16.5t-8.5 11.5t-12.5 8.5t-17.5 2.5h-63v-168h150q32 0 52.5 9.5t31 31.5t14 38.5t7.5 50.5z" />
    <glyph glyph-name="ecaron" unicode="&#x11b;" horiz-adv-x="574" 
d="M297 558q-18 0 -39 26l-119 146l48 43l110 -75l111 75l47 -43l-119 -146q-23 -26 -39 -26zM197 227q13 -155 128 -155q55 0 92 31.5t48 83.5l71 -13q-46 -184 -235 -184q-124 0 -198 72t-74 188t73.5 192t192.5 76q114 0 182 -70.5t68 -178.5q0 -21 -5 -42h-343zM299 450
q-98 0 -104 -160h197q-2 87 -24.5 123.5t-68.5 36.5z" />
    <glyph glyph-name="Gbreve" unicode="&#x11e;" horiz-adv-x="784" 
d="M416 744q-74 0 -116.5 42t-46.5 126l71 11q20 -79 92 -79q70 0 89 79l72 -11q-4 -84 -46.5 -126t-114.5 -42zM384 320h376v-87h-47q-31 0 -31 -31v-202h-38l-72 55q-71 -65 -185 -65q-154 0 -251 100t-97 251q0 150 99.5 249.5t256.5 99.5q129 0 213.5 -61t84.5 -141
q0 -45 -28 -71.5t-69 -26.5q-40 0 -66.5 24.5t-26.5 62.5q0 51 41 77q-42 54 -129 54q-92 0 -143 -67t-51 -193q0 -121 51.5 -192.5t139.5 -71.5q60 0 103 27v91q0 31 -31 31h-100v87z" />
    <glyph glyph-name="gbreve" unicode="&#x11f;" horiz-adv-x="582" 
d="M278 572q-74 0 -116.5 42t-46.5 126l71 11q20 -79 92 -79q70 0 89 79l72 -11q-4 -84 -46.5 -126t-114.5 -42zM352 127q89 0 141 -40.5t52 -103.5q0 -74 -76.5 -123.5t-216.5 -49.5q-107 0 -174.5 30t-67.5 91q0 75 114 90q-88 29 -88 101q0 70 92 90q-91 46 -91 137
q0 77 66 123t173 46q111 0 177 -50q18 16 24 43q-27 5 -42.5 25t-15.5 46q0 31 22 50.5t56 19.5q31 0 52.5 -21t21.5 -53q0 -42 -24.5 -79t-62.5 -61q30 -39 30 -89q0 -76 -66.5 -122t-171.5 -46q-54 0 -97 12q-32 -8 -32 -32q0 -16 13 -25t35 -9h157zM276 464
q-77 0 -77 -115q0 -113 77 -113q75 0 75 113q0 115 -75 115zM264 -114q68 0 105 18t37 51q0 22 -18.5 34t-48.5 12h-139q-37 0 -59.5 -13t-22.5 -38q0 -31 38.5 -47.5t107.5 -16.5z" />
    <glyph glyph-name="Gdotaccent" unicode="&#x120;" horiz-adv-x="784" 
d="M417 737q-40 0 -66.5 25.5t-26.5 64.5q0 40 26.5 66t66.5 26q39 0 64.5 -25.5t25.5 -65.5t-25.5 -65.5t-64.5 -25.5zM384 320h376v-87h-47q-31 0 -31 -31v-202h-38l-72 55q-71 -65 -185 -65q-154 0 -251 100t-97 251q0 150 99.5 249.5t256.5 99.5q129 0 213.5 -61
t84.5 -141q0 -45 -28 -71.5t-69 -26.5q-40 0 -66.5 24.5t-26.5 62.5q0 51 41 77q-42 54 -129 54q-92 0 -143 -67t-51 -193q0 -121 51.5 -192.5t139.5 -71.5q60 0 103 27v91q0 31 -31 31h-100v87z" />
    <glyph glyph-name="gdotaccent" unicode="&#x121;" horiz-adv-x="582" 
d="M279 565q-40 0 -66.5 25.5t-26.5 64.5q0 40 26.5 66t66.5 26q39 0 64.5 -25.5t25.5 -65.5t-25.5 -65.5t-64.5 -25.5zM352 127q89 0 141 -40.5t52 -103.5q0 -74 -76.5 -123.5t-216.5 -49.5q-107 0 -174.5 30t-67.5 91q0 75 114 90q-88 29 -88 101q0 70 92 90
q-91 46 -91 137q0 77 66 123t173 46q111 0 177 -50q18 16 24 43q-27 5 -42.5 25t-15.5 46q0 31 22 50.5t56 19.5q31 0 52.5 -21t21.5 -53q0 -42 -24.5 -79t-62.5 -61q30 -39 30 -89q0 -76 -66.5 -122t-171.5 -46q-54 0 -97 12q-32 -8 -32 -32q0 -16 13 -25t35 -9h157z
M276 464q-77 0 -77 -115q0 -113 77 -113q75 0 75 113q0 115 -75 115zM264 -114q68 0 105 18t37 51q0 22 -18.5 34t-48.5 12h-139q-37 0 -59.5 -13t-22.5 -38q0 -31 38.5 -47.5t107.5 -16.5z" />
    <glyph glyph-name="Gcommaaccent" unicode="&#x122;" horiz-adv-x="784" 
d="M384 320h376v-87h-47q-31 0 -31 -31v-202h-38l-72 55q-71 -65 -185 -65q-154 0 -251 100t-97 251q0 150 99.5 249.5t256.5 99.5q129 0 213.5 -61t84.5 -141q0 -45 -28 -71.5t-69 -26.5q-40 0 -66.5 24.5t-26.5 62.5q0 51 41 77q-42 54 -129 54q-92 0 -143 -67t-51 -193
q0 -121 51.5 -192.5t139.5 -71.5q60 0 103 27v91q0 31 -31 31h-100v87zM393 -41q35 0 57.5 -23.5t22.5 -60.5q0 -51 -42 -97.5t-110 -69.5l-15 34q75 35 84 75q-36 1 -57 21t-21 50q0 31 22.5 51t58.5 20z" />
    <glyph glyph-name="gcommaaccent" unicode="&#x123;" horiz-adv-x="582" 
d="M273 549q-35 0 -57.5 23.5t-22.5 60.5q0 51 42 97.5t110 69.5l15 -34q-75 -35 -84 -75q36 -1 57 -21t21 -50q0 -31 -22.5 -51t-58.5 -20zM352 127q89 0 141 -40.5t52 -103.5q0 -74 -76.5 -123.5t-216.5 -49.5q-107 0 -174.5 30t-67.5 91q0 75 114 90q-88 29 -88 101
q0 70 92 90q-91 46 -91 137q0 77 66 123t173 46q111 0 177 -50q18 16 24 43q-27 5 -42.5 25t-15.5 46q0 31 22 50.5t56 19.5q31 0 52.5 -21t21.5 -53q0 -42 -24.5 -79t-62.5 -61q30 -39 30 -89q0 -76 -66.5 -122t-171.5 -46q-54 0 -97 12q-32 -8 -32 -32q0 -16 13 -25t35 -9
h157zM276 464q-77 0 -77 -115q0 -113 77 -113q75 0 75 113q0 115 -75 115zM264 -114q68 0 105 18t37 51q0 22 -18.5 34t-48.5 12h-139q-37 0 -59.5 -13t-22.5 -38q0 -31 38.5 -47.5t107.5 -16.5z" />
    <glyph glyph-name="Hbar" unicode="&#x126;" horiz-adv-x="829" 
d="M741 593q-31 0 -31 -31v-65h91v-65h-91v-313q0 -31 31 -31h60v-88h-343v88h54q31 0 31 31v136h-257v-136q0 -31 31 -31h54v-88h-343v88h60q31 0 31 31v313h-86v65h86v65q0 31 -31 31h-60v87h343v-87h-54q-31 0 -31 -31v-65h257v65q0 31 -31 31h-54v87h343v-87h-60z
M543 342v90h-257v-90h257z" />
    <glyph glyph-name="hbar" unicode="&#x127;" horiz-adv-x="657" 
d="M600 88h39v-88h-281v88h29q31 0 31 31v205q0 45 -20 70t-55 25q-100 0 -100 -156v-144q0 -31 31 -31h29v-88h-280v88h39q31 0 31 31v442h-70v65h70v54h150v-54h134v-65h-134v-144q56 101 165 101q71 0 116 -44t45 -116v-239q0 -31 31 -31z" />
    <glyph glyph-name="Imacron" unicode="&#x12a;" horiz-adv-x="419" 
d="M50 856h319v-98h-319v98zM324 593q-31 0 -31 -31v-443q0 -31 31 -31h65v-88h-359v88h65q31 0 31 31v443q0 31 -31 31h-65v87h359v-87h-65z" />
    <glyph glyph-name="imacron" unicode="&#x12b;" horiz-adv-x="347" 
d="M14 684h319v-98h-319v98zM284 88h46v-88h-304v88h46q31 0 31 31v270q0 31 -31 31h-46v88h227v-389q0 -31 31 -31z" />
    <glyph glyph-name="Iogonek" unicode="&#x12e;" horiz-adv-x="419" 
d="M324 593q-31 0 -31 -31v-443q0 -31 31 -31h65v-88h-69q-55 0 -91 -26t-36 -62q0 -43 46 -43q27 0 48 16l33 -72q-46 -44 -114 -44q-53 0 -88 29.5t-35 75.5q0 39 26 72t73 54h-152v88h65q31 0 31 31v443q0 31 -31 31h-65v87h359v-87h-65z" />
    <glyph glyph-name="iogonek" unicode="&#x12f;" horiz-adv-x="347" 
d="M180 565q-40 0 -66.5 25.5t-26.5 64.5q0 40 26.5 66t66.5 26q39 0 64.5 -25.5t25.5 -65.5t-25.5 -65.5t-64.5 -25.5zM284 88h46v-88h-59q-55 0 -91 -26t-36 -62q0 -43 46 -43q27 0 48 16l33 -72q-46 -44 -114 -44q-53 0 -88 29.5t-35 75.5q0 39 26 72t73 54h-107v88h46
q31 0 31 31v270q0 31 -31 31h-46v88h227v-389q0 -31 31 -31z" />
    <glyph glyph-name="Idotaccent" unicode="&#x130;" horiz-adv-x="419" 
d="M211 737q-40 0 -66.5 25.5t-26.5 64.5q0 40 26.5 66t66.5 26q39 0 64.5 -25.5t25.5 -65.5t-25.5 -65.5t-64.5 -25.5zM324 593q-31 0 -31 -31v-443q0 -31 31 -31h65v-88h-359v88h65q31 0 31 31v443q0 31 -31 31h-65v87h359v-87h-65z" />
    <glyph glyph-name="dotlessi" unicode="&#x131;" horiz-adv-x="347" 
d="M284 88h46v-88h-304v88h46q31 0 31 31v270q0 31 -31 31h-46v88h227v-389q0 -31 31 -31z" />
    <glyph glyph-name="Kcommaaccent" unicode="&#x136;" horiz-adv-x="790" 
d="M354 88v-88h-326v88h60q31 0 31 31v443q0 31 -31 31h-60v87h343v-87h-54q-31 0 -31 -31v-443q0 -31 31 -31h37zM743 88h42v-88h-370v88h46q31 0 10 30l-158 214l216 232q12 13 10 21t-17 8h-74v87h319v-87h-35q-52 0 -80 -31l-172 -189l183 -246q30 -39 80 -39zM401 -41
q35 0 57.5 -23.5t22.5 -60.5q0 -51 -42 -97.5t-110 -69.5l-15 34q75 35 84 75q-36 1 -57 21t-21 50q0 31 22.5 51t58.5 20z" />
    <glyph glyph-name="kcommaaccent" unicode="&#x137;" horiz-adv-x="645" 
d="M243 119q0 -31 31 -31h23v-88h-274v88h39q31 0 31 31v443q0 31 -31 31h-39v87h220v-561zM619 88h21v-88h-300v88h24q37 0 16 29l-112 144l141 136q10 9 6.5 16t-17.5 7h-86v88h304v-88h-36q-18 0 -32 -5.5t-19 -10t-19 -17.5l-97 -92l133 -168q12 -15 18 -21t20.5 -12
t34.5 -6zM329 -41q35 0 57.5 -23.5t22.5 -60.5q0 -51 -42 -97.5t-110 -69.5l-15 34q75 35 84 75q-36 1 -57 21t-21 50q0 31 22.5 51t58.5 20z" />
    <glyph glyph-name="Lacute" unicode="&#x139;" horiz-adv-x="653" 
d="M174 746q33 89 49.5 126t33.5 57q22 25 50 28t53 -18q26 -21 28 -50.5t-19 -52.5q-18 -21 -51 -43t-116 -72zM525 290h88v-290h-585v88h60q31 0 31 31v443q0 31 -31 31h-60v87h385v-87h-96q-31 0 -31 -31v-474h119q62 0 87.5 52t32.5 150z" />
    <glyph glyph-name="lacute" unicode="&#x13a;" horiz-adv-x="352" 
d="M145 746q33 89 49.5 126t33.5 57q22 25 50 28t53 -18q26 -21 28 -50.5t-19 -52.5q-18 -21 -51 -43t-116 -72zM284 88h46v-88h-304v88h46q31 0 31 31v443q0 31 -31 31h-46v87h227v-561q0 -31 31 -31z" />
    <glyph glyph-name="Lcommaaccent" unicode="&#x13b;" horiz-adv-x="653" 
d="M525 290h88v-290h-585v88h60q31 0 31 31v443q0 31 -31 31h-60v87h385v-87h-96q-31 0 -31 -31v-474h119q62 0 87.5 52t32.5 150zM331 -41q35 0 57.5 -23.5t22.5 -60.5q0 -51 -42 -97.5t-110 -69.5l-15 34q75 35 84 75q-36 1 -57 21t-21 50q0 31 22.5 51t58.5 20z" />
    <glyph glyph-name="lcommaaccent" unicode="&#x13c;" horiz-adv-x="352" 
d="M284 88h46v-88h-304v88h46q31 0 31 31v443q0 31 -31 31h-46v87h227v-561q0 -31 31 -31zM174 -41q35 0 57.5 -23.5t22.5 -60.5q0 -51 -42 -97.5t-110 -69.5l-15 34q75 35 84 75q-36 1 -57 21t-21 50q0 31 22.5 51t58.5 20z" />
    <glyph glyph-name="Lcaron" unicode="&#x13d;" horiz-adv-x="683" 
d="M459 422q35 24 53.5 44t23 31.5t8.5 32.5q-34 4 -53 26t-19 53q0 35 23.5 57.5t59.5 22.5q34 0 56.5 -22t22.5 -64q0 -130 -151 -216zM405 88q62 0 87.5 52t32.5 150h88v-290h-585v88h60q31 0 31 31v443q0 31 -31 31h-60v87h385v-87h-96q-31 0 -31 -31v-474h119z" />
    <glyph glyph-name="lcaron" unicode="&#x13e;" horiz-adv-x="352" 
d="M400 689q34 0 56.5 -22t22.5 -64q0 -130 -151 -216l-24 35q35 24 53.5 44t23 31.5t8.5 32.5q-34 4 -53 26t-19 53q0 35 23.5 57.5t59.5 22.5zM253 119q0 -31 31 -31h46v-88h-304v88h46q31 0 31 31v443q0 31 -31 31h-46v87h227v-561z" />
    <glyph glyph-name="Lslash" unicode="&#x141;" horiz-adv-x="653" 
d="M525 290h88v-290h-585v88h60q31 0 31 31v90l-49 -31l-35 62l84 54v268q0 31 -31 31h-60v87h385v-87h-96q-31 0 -31 -31v-160l153 98l36 -62l-189 -121v-229h119q62 0 87.5 52t32.5 150z" />
    <glyph glyph-name="lslash" unicode="&#x142;" horiz-adv-x="353" 
d="M249 119q0 -31 31 -31h46v-88h-304v88h46q31 0 31 31v93l-59 -32l-27 61l86 47v274q0 31 -31 31h-46v87h227v-310l69 38l28 -62l-97 -53v-174z" />
    <glyph glyph-name="Nacute" unicode="&#x143;" horiz-adv-x="781" 
d="M359 746q33 89 49.5 126t33.5 57q22 25 50 28t53 -18q26 -21 28 -50.5t-19 -52.5q-18 -21 -51 -43t-116 -72zM763 680v-87h-60q-31 0 -31 -31v-562h-75l-381 466v-347q0 -31 31 -31h75v-88h-294v88h60q31 0 31 31v443q0 31 -31 31h-60v87h230l317 -395v277q0 31 -31 31
h-72v87h291z" />
    <glyph glyph-name="nacute" unicode="&#x144;" horiz-adv-x="661" 
d="M493 664q-18 -21 -51 -43t-116 -72l-28 25q33 89 49.5 126t33.5 57q22 25 50 28t53 -18q26 -21 28 -50.5t-19 -52.5zM604 88h39v-88h-281v88h29q31 0 31 31v205q0 46 -20 70.5t-56 24.5q-99 0 -99 -156v-144q0 -31 31 -31h28v-88h-280v88h39q31 0 31 31v270q0 31 -31 31
h-39v88h221v-91q56 101 164 101q72 0 117 -44t45 -116v-239q0 -31 31 -31z" />
    <glyph glyph-name="Ncommaaccent" unicode="&#x145;" horiz-adv-x="781" 
d="M472 680h291v-87h-60q-31 0 -31 -31v-562h-75l-381 466v-347q0 -31 31 -31h75v-88h-294v88h60q31 0 31 31v443q0 31 -31 31h-60v87h230l317 -395v277q0 31 -31 31h-72v87zM396 -41q35 0 57.5 -23.5t22.5 -60.5q0 -51 -42 -97.5t-110 -69.5l-15 34q75 35 84 75
q-36 1 -57 21t-21 50q0 31 22.5 51t58.5 20z" />
    <glyph glyph-name="ncommaaccent" unicode="&#x146;" horiz-adv-x="661" 
d="M604 88h39v-88h-281v88h29q31 0 31 31v205q0 46 -20 70.5t-56 24.5q-99 0 -99 -156v-144q0 -31 31 -31h28v-88h-280v88h39q31 0 31 31v270q0 31 -31 31h-39v88h221v-91q56 101 164 101q72 0 117 -44t45 -116v-239q0 -31 31 -31zM335 -41q35 0 57.5 -23.5t22.5 -60.5
q0 -51 -42 -97.5t-110 -69.5l-15 34q75 35 84 75q-36 1 -57 21t-21 50q0 31 22.5 51t58.5 20z" />
    <glyph glyph-name="Ncaron" unicode="&#x147;" horiz-adv-x="781" 
d="M281 945l110 -75l111 75l47 -43l-119 -146q-23 -26 -39 -26q-18 0 -39 26l-119 146zM763 680v-87h-60q-31 0 -31 -31v-562h-75l-381 466v-347q0 -31 31 -31h75v-88h-294v88h60q31 0 31 31v443q0 31 -31 31h-60v87h230l317 -395v277q0 31 -31 31h-72v87h291z" />
    <glyph glyph-name="ncaron" unicode="&#x148;" horiz-adv-x="661" 
d="M330 558q-18 0 -39 26l-119 146l48 43l110 -75l111 75l47 -43l-119 -146q-23 -26 -39 -26zM604 88h39v-88h-281v88h29q31 0 31 31v205q0 46 -20 70.5t-56 24.5q-99 0 -99 -156v-144q0 -31 31 -31h28v-88h-280v88h39q31 0 31 31v270q0 31 -31 31h-39v88h221v-91
q56 101 164 101q72 0 117 -44t45 -116v-239q0 -31 31 -31z" />
    <glyph glyph-name="Eng" unicode="&#x14a;" horiz-adv-x="781" 
d="M472 680h291v-87h-60q-31 0 -31 -31v-570q0 -87 -63 -134.5t-155 -47.5q-57 0 -94 28.5t-37 71.5q0 30 18 48.5t46 18.5t45.5 -16t17.5 -43q0 -19 -11.5 -35t-29.5 -20q9 -2 24 -2q46 0 58.5 29t12.5 110v114l-288 352v-347q0 -31 31 -31h75v-88h-294v88h60q31 0 31 31
v443q0 31 -31 31h-60v87h230l317 -395v277q0 31 -31 31h-72v87z" />
    <glyph glyph-name="eng" unicode="&#x14b;" horiz-adv-x="623" 
d="M411 518q72 0 117 -44t45 -116v-358q0 -93 -56 -141.5t-146 -48.5q-59 0 -94.5 22t-35.5 63q0 30 18 48.5t45 18.5q28 0 46 -16t18 -43q0 -32 -30 -42h13q45 0 58 29t13 110v324q0 46 -20 70.5t-56 24.5q-99 0 -99 -156v-144q0 -31 31 -31h28v-88h-280v88h39q31 0 31 31
v270q0 31 -31 31h-39v88h221v-91q56 101 164 101z" />
    <glyph glyph-name="Omacron" unicode="&#x14c;" horiz-adv-x="786" 
d="M235 856h319v-98h-319v98zM393 690q158 0 256.5 -99.5t98.5 -250.5t-98.5 -250.5t-256.5 -99.5t-256 99.5t-98 250.5t98 250.5t256 99.5zM393 73q82 0 127 70t45 197t-45 197.5t-127 70.5t-127 -70.5t-45 -197.5t45 -197t127 -70z" />
    <glyph glyph-name="omacron" unicode="&#x14d;" horiz-adv-x="599" 
d="M140 684h319v-98h-319v98zM300 518q121 0 195.5 -73.5t74.5 -188.5q0 -116 -74.5 -191t-195.5 -75q-122 0 -196.5 75t-74.5 191q0 115 74.5 188.5t196.5 73.5zM300 58q57 0 82 46t25 152q0 104 -25 149t-82 45t-82 -45t-25 -149q0 -106 25 -152t82 -46z" />
    <glyph glyph-name="Ohungarumlaut" unicode="&#x150;" horiz-adv-x="786" 
d="M260 746q33 89 49.5 126t33.5 57q22 25 50 28t53 -18q26 -21 28 -50.5t-19 -52.5q-18 -21 -51 -43t-116 -72zM462 746q33 89 49.5 126t33.5 57q22 25 50.5 28t53.5 -18q26 -21 27.5 -50.5t-19.5 -52.5q-17 -20 -49 -42t-117 -73zM393 690q158 0 256.5 -99.5t98.5 -250.5
t-98.5 -250.5t-256.5 -99.5t-256 99.5t-98 250.5t98 250.5t256 99.5zM393 73q82 0 127 70t45 197t-45 197.5t-127 70.5t-127 -70.5t-45 -197.5t45 -197t127 -70z" />
    <glyph glyph-name="ohungarumlaut" unicode="&#x151;" horiz-adv-x="599" 
d="M165 574q33 89 49.5 126t33.5 57q22 25 50 28t53 -18q26 -21 28 -50.5t-19 -52.5q-18 -21 -51 -43t-116 -72zM367 574q33 89 49.5 126t33.5 57q22 25 50.5 28t53.5 -18q26 -21 27.5 -50.5t-19.5 -52.5q-17 -20 -49 -42t-117 -73zM300 518q121 0 195.5 -73.5t74.5 -188.5
q0 -116 -74.5 -191t-195.5 -75q-122 0 -196.5 75t-74.5 191q0 115 74.5 188.5t196.5 73.5zM300 58q57 0 82 46t25 152q0 104 -25 149t-82 45t-82 -45t-25 -149q0 -106 25 -152t82 -46z" />
    <glyph glyph-name="OE" unicode="&#x152;" horiz-adv-x="1066" 
d="M924 218h95v-218h-616q-154 2 -259 96t-105 244t105 244t259 96h594v-217h-95q-8 70 -18 89q-21 40 -80 41h-135v-249h63q10 0 17 2.5t12.5 9t9 11t6 16.5t3.5 16.5t3 20t3 19.5h71v-278h-71q-1 5 -3 19.5t-3 20t-3.5 16.5t-6 16.5t-8.5 11.5t-12.5 8.5t-17.5 2.5h-63
v-168h150q32 0 52.5 9.5t31 31.5t14 38.5t7.5 50.5zM502 593h-91q-93 0 -141.5 -68t-48.5 -185q0 -116 48.5 -184t141.5 -68h91v505z" />
    <glyph glyph-name="oe" unicode="&#x153;" horiz-adv-x="951" 
d="M575 227q13 -155 128 -155q55 0 92 31.5t48 83.5l71 -13q-46 -184 -235 -184q-119 0 -192 67q-75 -67 -187 -67q-122 0 -196.5 75t-74.5 191q0 115 74.5 188.5t196.5 73.5q115 0 189 -68q73 68 184 68q114 0 182 -70.5t68 -178.5q0 -21 -5 -42h-343zM300 58q57 0 82 46
t25 152q0 104 -25 149t-82 45t-82 -45t-25 -149q0 -106 25 -152t82 -46zM677 450q-98 0 -104 -160h197q-2 87 -24.5 123.5t-68.5 36.5z" />
    <glyph glyph-name="Racute" unicode="&#x154;" horiz-adv-x="754" 
d="M521 836q-18 -21 -51 -43t-116 -72l-28 25q33 89 49.5 126t33.5 57q22 25 50 28t53 -18q26 -21 28 -50.5t-19 -52.5zM701 88h44v-88h-268l-62 194q-20 73 -102 73h-27v-148q0 -31 31 -31h52v-88h-341v88h60q31 0 31 31v443q0 31 -31 31h-60v87h373q125 0 195 -55.5
t70 -136.5q0 -56 -37.5 -102t-86 -69.5t-95.5 -27.5q112 -22 154 -102l35 -67q9 -18 23 -25t42 -7zM364 354q60 0 94.5 35.5t34.5 88.5q0 52 -34 83.5t-95 31.5h-78v-239h78z" />
    <glyph glyph-name="racute" unicode="&#x155;" horiz-adv-x="511" 
d="M419 664q-18 -21 -51 -43t-116 -72l-28 25q33 89 49.5 126t33.5 57q22 25 50 28t53 -18q26 -21 28 -50.5t-19 -52.5zM414 518q39 0 64.5 -25t25.5 -62t-24 -62t-60 -25t-58 18.5t-22 52.5v9q-81 -28 -89 -217v-88q0 -31 31 -31h84v-88h-336v88h39q31 0 31 31v270
q0 31 -31 31h-39v88h221v-113q49 123 163 123z" />
    <glyph glyph-name="Rcommaaccent" unicode="&#x156;" horiz-adv-x="754" 
d="M701 88h44v-88h-268l-62 194q-20 73 -102 73h-27v-148q0 -31 31 -31h52v-88h-341v88h60q31 0 31 31v443q0 31 -31 31h-60v87h373q125 0 195 -55.5t70 -136.5q0 -56 -37.5 -102t-86 -69.5t-95.5 -27.5q112 -22 154 -102l35 -67q9 -18 23 -25t42 -7zM364 354
q60 0 94.5 35.5t34.5 88.5q0 52 -34 83.5t-95 31.5h-78v-239h78zM382 -41q35 0 57.5 -23.5t22.5 -60.5q0 -51 -42 -97.5t-110 -69.5l-15 34q75 35 84 75q-36 1 -57 21t-21 50q0 31 22.5 51t58.5 20z" />
    <glyph glyph-name="rcommaaccent" unicode="&#x157;" horiz-adv-x="511" 
d="M414 518q39 0 64.5 -25t25.5 -62t-24 -62t-60 -25t-58 18.5t-22 52.5v9q-81 -28 -89 -217v-88q0 -31 31 -31h84v-88h-336v88h39q31 0 31 31v270q0 31 -31 31h-39v88h221v-113q49 123 163 123zM169 -41q35 0 57.5 -23.5t22.5 -60.5q0 -51 -42 -97.5t-110 -69.5l-15 34
q75 35 84 75q-36 1 -57 21t-21 50q0 31 22.5 51t58.5 20z" />
    <glyph glyph-name="Rcaron" unicode="&#x158;" horiz-adv-x="754" 
d="M358 730q-18 0 -39 26l-119 146l48 43l110 -75l111 75l47 -43l-119 -146q-23 -26 -39 -26zM701 88h44v-88h-268l-62 194q-20 73 -102 73h-27v-148q0 -31 31 -31h52v-88h-341v88h60q31 0 31 31v443q0 31 -31 31h-60v87h373q125 0 195 -55.5t70 -136.5q0 -56 -37.5 -102
t-86 -69.5t-95.5 -27.5q112 -22 154 -102l35 -67q9 -18 23 -25t42 -7zM364 354q60 0 94.5 35.5t34.5 88.5q0 52 -34 83.5t-95 31.5h-78v-239h78z" />
    <glyph glyph-name="rcaron" unicode="&#x159;" horiz-adv-x="511" 
d="M256 558q-18 0 -39 26l-119 146l48 43l110 -75l111 75l47 -43l-119 -146q-23 -26 -39 -26zM414 518q39 0 64.5 -25t25.5 -62t-24 -62t-60 -25t-58 18.5t-22 52.5v9q-81 -28 -89 -217v-88q0 -31 31 -31h84v-88h-336v88h39q31 0 31 31v270q0 31 -31 31h-39v88h221v-113
q49 123 163 123z" />
    <glyph glyph-name="Sacute" unicode="&#x15a;" horiz-adv-x="603" 
d="M465 836q-18 -21 -51 -43t-116 -72l-28 25q33 89 49.5 126t33.5 57q22 25 50 28t53 -18q26 -21 28 -50.5t-19 -52.5zM200 529q0 -30 20 -52t52.5 -36t71.5 -27t78.5 -29.5t72 -38.5t52.5 -60t20 -88q0 -93 -72 -150.5t-191 -57.5q-121 0 -194.5 55t-73.5 130
q0 43 25 68.5t63 25.5t59.5 -23t21.5 -57q0 -27 -16 -45t-42 -24q50 -56 135 -56q57 0 90.5 27t33.5 68q0 33 -19.5 56.5t-51 37.5t-69.5 26.5t-76 28t-69.5 36.5t-51 58t-19.5 87q0 94 69 147.5t183 53.5t182.5 -49t68.5 -121q0 -41 -22.5 -61t-60.5 -20q-37 0 -59.5 20
t-22.5 56q0 48 48 68q-45 34 -114 34q-57 0 -89.5 -25t-32.5 -63z" />
    <glyph glyph-name="sacute" unicode="&#x15b;" horiz-adv-x="488" 
d="M407 664q-18 -21 -51 -43t-116 -72l-28 25q33 89 49.5 126t33.5 57q22 25 50 28t53 -18q26 -21 28 -50.5t-19 -52.5zM179 393q0 -30 29 -49t70.5 -30.5t83.5 -26.5t71 -48t29 -85q0 -76 -58.5 -120t-162.5 -44q-93 0 -154 35.5t-61 93.5q0 34 20.5 55t55.5 21
q34 0 54.5 -19t20.5 -48q0 -38 -34 -56q37 -23 77 -23t63 20t23 50q0 32 -28 52t-67.5 31.5t-79.5 26.5t-68 48.5t-28 84.5q0 76 57 116t157 40q88 0 143.5 -31t55.5 -86q0 -33 -20.5 -52.5t-55.5 -19.5q-34 0 -55 18.5t-21 49.5q0 32 25 49q-27 12 -55 12
q-40 0 -63.5 -18.5t-23.5 -46.5z" />
    <glyph glyph-name="Scedilla" unicode="&#x15e;" horiz-adv-x="603" 
d="M567 198q0 -93 -72 -150.5t-190 -57.5l-23 -45q50 1 81.5 -21.5t31.5 -62.5q0 -43 -35 -70.5t-90 -27.5q-48 0 -101 28l19 47q37 -22 72 -22q21 0 34.5 9.5t13.5 26.5q0 23 -24.5 32.5t-66.5 2.5l-13 30l44 77q-97 12 -154.5 64t-57.5 117q0 43 25 68.5t63 25.5t59.5 -23
t21.5 -57q0 -27 -16 -45t-42 -24q50 -56 135 -56q57 0 90.5 27t33.5 68q0 33 -19.5 56.5t-51 37.5t-69.5 26.5t-76 28t-69.5 36.5t-51 58t-19.5 87q0 94 69 147.5t183 53.5t182.5 -49t68.5 -121q0 -41 -22.5 -61t-60.5 -20q-37 0 -59.5 20t-22.5 56q0 48 48 68
q-45 34 -114 34q-57 0 -89.5 -25t-32.5 -63q0 -30 20 -52t52.5 -36t71.5 -27t78.5 -29.5t72 -38.5t52.5 -60t20 -88z" />
    <glyph glyph-name="scedilla" unicode="&#x15f;" horiz-adv-x="488" 
d="M462 154q0 -73 -54.5 -116.5t-151.5 -47.5l-23 -45q50 1 81.5 -21.5t31.5 -62.5q0 -43 -35 -70.5t-90 -27.5q-49 0 -101 28l19 47q37 -22 72 -22q21 0 34.5 9.5t13.5 26.5q0 23 -24.5 32.5t-66.5 2.5l-13 30l44 75q-77 8 -125 42t-48 85q0 34 20.5 55t55.5 21
q34 0 54.5 -19t20.5 -48q0 -38 -34 -56q37 -23 77 -23t63 20t23 50q0 32 -28 52t-67.5 31.5t-79.5 26.5t-68 48.5t-28 84.5q0 76 57 116t157 40q88 0 143.5 -31t55.5 -86q0 -33 -20.5 -52.5t-55.5 -19.5q-34 0 -55 18.5t-21 49.5q0 32 25 49q-27 12 -55 12
q-40 0 -63.5 -18.5t-23.5 -46.5q0 -30 29 -49t70.5 -30.5t83.5 -26.5t71 -48t29 -85z" />
    <glyph glyph-name="Scaron" unicode="&#x160;" horiz-adv-x="603" 
d="M302 730q-18 0 -39 26l-119 146l48 43l110 -75l111 75l47 -43l-119 -146q-23 -26 -39 -26zM200 529q0 -30 20 -52t52.5 -36t71.5 -27t78.5 -29.5t72 -38.5t52.5 -60t20 -88q0 -93 -72 -150.5t-191 -57.5q-121 0 -194.5 55t-73.5 130q0 43 25 68.5t63 25.5t59.5 -23
t21.5 -57q0 -27 -16 -45t-42 -24q50 -56 135 -56q57 0 90.5 27t33.5 68q0 33 -19.5 56.5t-51 37.5t-69.5 26.5t-76 28t-69.5 36.5t-51 58t-19.5 87q0 94 69 147.5t183 53.5t182.5 -49t68.5 -121q0 -41 -22.5 -61t-60.5 -20q-37 0 -59.5 20t-22.5 56q0 48 48 68
q-45 34 -114 34q-57 0 -89.5 -25t-32.5 -63z" />
    <glyph glyph-name="scaron" unicode="&#x161;" horiz-adv-x="488" 
d="M244 558q-18 0 -39 26l-119 146l48 43l110 -75l111 75l47 -43l-119 -146q-23 -26 -39 -26zM179 393q0 -30 29 -49t70.5 -30.5t83.5 -26.5t71 -48t29 -85q0 -76 -58.5 -120t-162.5 -44q-93 0 -154 35.5t-61 93.5q0 34 20.5 55t55.5 21q34 0 54.5 -19t20.5 -48
q0 -38 -34 -56q37 -23 77 -23t63 20t23 50q0 32 -28 52t-67.5 31.5t-79.5 26.5t-68 48.5t-28 84.5q0 76 57 116t157 40q88 0 143.5 -31t55.5 -86q0 -33 -20.5 -52.5t-55.5 -19.5q-34 0 -55 18.5t-21 49.5q0 32 25 49q-27 12 -55 12q-40 0 -63.5 -18.5t-23.5 -46.5z" />
    <glyph glyph-name="uni0162" unicode="&#x162;" horiz-adv-x="694" 
d="M31 680h632v-263h-88q-8 101 -18 128q-19 55 -80 55h-47v-481q0 -31 31 -31h78v-88h-166l-28 -55q50 1 81.5 -21.5t31.5 -62.5q0 -43 -35 -70.5t-90 -27.5q-48 0 -101 28l19 47q37 -22 72 -22q21 0 34.5 9.5t13.5 26.5q0 23 -24.5 32.5t-66.5 2.5l-13 30l48 83h-161v88
h78q31 0 31 31v481h-46q-40 0 -61.5 -24.5t-26 -50t-8.5 -84.5q-1 -16 -2 -24h-88v263z" />
    <glyph glyph-name="uni0163" unicode="&#x163;" horiz-adv-x="411" 
d="M241 -10h-2l-23 -45q50 1 81.5 -21.5t31.5 -62.5q0 -43 -35 -70.5t-90 -27.5q-48 0 -101 28l19 47q37 -22 72 -22q21 0 34.5 9.5t13.5 26.5q0 23 -24.5 32.5t-66.5 2.5l-13 30l47 81q-52 15 -81.5 55.5t-29.5 91.5v275h-70v88h3q24 0 45 7t34 13.5t31 27t25 29.5t27 38
h56v-115h167v-88h-167v-276q0 -23 15 -37t35 -14q52 0 59 60l67 -12q-24 -151 -160 -151z" />
    <glyph glyph-name="Tcaron" unicode="&#x164;" horiz-adv-x="694" 
d="M237 945l110 -75l111 75l47 -43l-119 -146q-23 -26 -39 -26q-18 0 -39 26l-119 146zM663 680v-263h-88q-8 101 -18 128q-19 55 -80 55h-47v-481q0 -31 31 -31h78v-88h-385v88h78q31 0 31 31v481h-46q-40 0 -61.5 -24.5t-26 -50t-8.5 -84.5q-1 -16 -2 -24h-88v263h632z
" />
    <glyph glyph-name="tcaron" unicode="&#x165;" horiz-adv-x="411" 
d="M270 580q35 24 53.5 44t23 31.5t8.5 32.5q-34 4 -53 26t-19 53q0 35 23.5 57.5t59.5 22.5q34 0 56.5 -22t22.5 -64q0 -130 -151 -216zM275 93q52 0 59 60l67 -12q-24 -151 -160 -151q-75 0 -121 45.5t-46 109.5v275h-70v88h3q24 0 45 7t34 13.5t31 27t25 29.5t27 38h56
v-115h167v-88h-167v-276q0 -23 15 -37t35 -14z" />
    <glyph glyph-name="Tbar" unicode="&#x166;" horiz-adv-x="694" 
d="M31 680h632v-263h-88q-8 101 -18 128q-19 55 -80 55h-47v-255h127v-65h-127v-161q0 -31 31 -31h78v-88h-385v88h78q31 0 31 31v161h-126v65h126v255h-46q-40 0 -61.5 -24.5t-26 -50t-8.5 -84.5q-1 -16 -2 -24h-88v263z" />
    <glyph glyph-name="tbar" unicode="&#x167;" horiz-adv-x="411" 
d="M334 153l67 -12q-24 -151 -160 -151q-75 0 -121 45.5t-46 109.5v133h-51v65h51v77h-70v88h3q24 0 45 7t34 13.5t31 27t25 29.5t27 38h56v-115h167v-88h-167v-77h152v-65h-152v-134q0 -23 15 -37t35 -14q52 0 59 60z" />
    <glyph glyph-name="Umacron" unicode="&#x16a;" horiz-adv-x="745" 
d="M258 856h319v-98h-319v98zM734 680v-87h-58q-31 0 -31 -31v-352q0 -97 -72 -158.5t-189 -61.5t-196.5 60t-79.5 153v359q0 31 -31 31h-58v87h351v-87h-64q-31 0 -31 -31v-344q0 -63 38 -101t102 -38q63 0 100 37.5t37 101.5v344q0 31 -31 31h-60v87h273z" />
    <glyph glyph-name="umacron" unicode="&#x16b;" horiz-adv-x="657" 
d="M151 684h319v-98h-319v98zM589 88h40v-88h-221v90q-56 -100 -165 -100q-71 0 -116 44t-45 115v245q-1 26 -29 26h-40v88h220v-325q0 -45 20 -70t55 -25q100 0 100 156v147q0 29 -30 29h-38v88h218v-389q0 -31 31 -31z" />
    <glyph glyph-name="Uring" unicode="&#x16e;" horiz-adv-x="745" 
d="M418 728q-55 0 -92 31.5t-37 78.5q0 49 37 81t92 32t92 -32t37 -79q0 -48 -37 -80t-92 -32zM419 786q22 0 36.5 15t14.5 38t-15 38.5t-38 15.5q-22 0 -36.5 -15t-14.5 -38t15 -38.5t38 -15.5zM734 680v-87h-58q-31 0 -31 -31v-352q0 -97 -72 -158.5t-189 -61.5t-196.5 60
t-79.5 153v359q0 31 -31 31h-58v87h351v-87h-64q-31 0 -31 -31v-344q0 -63 38 -101t102 -38q63 0 100 37.5t37 101.5v344q0 31 -31 31h-60v87h273z" />
    <glyph glyph-name="uring" unicode="&#x16f;" horiz-adv-x="657" 
d="M311 556q-55 0 -92 31.5t-37 78.5q0 49 37 81t92 32t92 -32t37 -79q0 -48 -37 -80t-92 -32zM312 614q22 0 36.5 15t14.5 38t-15 38.5t-38 15.5q-22 0 -36.5 -15t-14.5 -38t15 -38.5t38 -15.5zM589 88h40v-88h-221v90q-56 -100 -165 -100q-71 0 -116 44t-45 115v245
q-1 26 -29 26h-40v88h220v-325q0 -45 20 -70t55 -25q100 0 100 156v147q0 29 -30 29h-38v88h218v-389q0 -31 31 -31z" />
    <glyph glyph-name="Uhungarumlaut" unicode="&#x170;" horiz-adv-x="745" 
d="M283 746q33 89 49.5 126t33.5 57q22 25 50 28t53 -18q26 -21 28 -50.5t-19 -52.5q-18 -21 -51 -43t-116 -72zM485 746q33 89 49.5 126t33.5 57q22 25 50.5 28t53.5 -18q26 -21 27.5 -50.5t-19.5 -52.5q-17 -20 -49 -42t-117 -73zM734 680v-87h-58q-31 0 -31 -31v-352
q0 -97 -72 -158.5t-189 -61.5t-196.5 60t-79.5 153v359q0 31 -31 31h-58v87h351v-87h-64q-31 0 -31 -31v-344q0 -63 38 -101t102 -38q63 0 100 37.5t37 101.5v344q0 31 -31 31h-60v87h273z" />
    <glyph glyph-name="uhungarumlaut" unicode="&#x171;" horiz-adv-x="657" 
d="M176 574q33 89 49.5 126t33.5 57q22 25 50 28t53 -18q26 -21 28 -50.5t-19 -52.5q-18 -21 -51 -43t-116 -72zM378 574q33 89 49.5 126t33.5 57q22 25 50.5 28t53.5 -18q26 -21 27.5 -50.5t-19.5 -52.5q-17 -20 -49 -42t-117 -73zM589 88h40v-88h-221v90
q-56 -100 -165 -100q-71 0 -116 44t-45 115v245q-1 26 -29 26h-40v88h220v-325q0 -45 20 -70t55 -25q100 0 100 156v147q0 29 -30 29h-38v88h218v-389q0 -31 31 -31z" />
    <glyph glyph-name="Uogonek" unicode="&#x172;" horiz-adv-x="745" 
d="M461 680h273v-87h-58q-31 0 -31 -31v-352q0 -115 -97 -175q-113 -75 -113 -122q0 -21 12 -32.5t33 -11.5q27 0 48 16l33 -72q-46 -44 -114 -44q-53 0 -87.5 29t-34.5 76q0 58 81 117q-7 -1 -22 -1q-117 0 -196.5 60t-79.5 153v359q0 31 -31 31h-58v87h351v-87h-64
q-31 0 -31 -31v-344q0 -63 38 -101t102 -38q63 0 100 37.5t37 101.5v344q0 31 -31 31h-60v87z" />
    <glyph glyph-name="uogonek" unicode="&#x173;" horiz-adv-x="657" 
d="M589 88h40v-88h-6q-55 0 -91 -26t-36 -62q0 -43 46 -43q27 0 48 16l33 -72q-46 -44 -114 -44q-53 0 -88 29.5t-35 75.5q0 39 26 72t73 54h-77v90q-56 -100 -165 -100q-71 0 -116 44t-45 115v245q-1 26 -29 26h-40v88h220v-325q0 -45 20 -70t55 -25q100 0 100 156v147
q0 29 -30 29h-38v88h218v-389q0 -31 31 -31z" />
    <glyph glyph-name="Wcircumflex" unicode="&#x174;" horiz-adv-x="1100" 
d="M594 805l-110 -75l-48 43l119 146q21 26 39 26q16 0 39 -26l119 -146l-47 -43zM833 680h267v-87h-37q-35 0 -48 -34l-209 -559h-90l-162 417l-147 -417h-105l-216 563q-11 30 -47 30h-39v87h351v-87h-45q-15 0 -21 -8.5t-1 -22.5l114 -315l106 315q5 13 -1 22t-21 9h-58
v87h336v-87h-48q-14 0 -20.5 -9t-1.5 -22l114 -302l106 301q5 14 -0.5 23t-20.5 9h-56v87z" />
    <glyph glyph-name="wcircumflex" unicode="&#x175;" horiz-adv-x="903" 
d="M372 558l-48 43l119 146q21 26 39 26q16 0 39 -26l119 -146l-47 -43l-111 75zM670 508h229v-88h-34q-35 0 -48 -32l-149 -388h-110l-101 263l-105 -263h-115l-152 388q-12 32 -47 32h-30v88h300v-88h-35q-14 0 -20.5 -8.5t-2.5 -20.5l73 -232l90 232q5 13 -1 21t-21 8
h-37v88h267v-88h-41q-15 0 -21.5 -8.5t-1.5 -20.5l87 -230l86 229q5 13 -1.5 21.5t-20.5 8.5h-38v88z" />
    <glyph glyph-name="Ycircumflex" unicode="&#x176;" horiz-adv-x="688" 
d="M378 805l-110 -75l-48 43l119 146q21 26 39 26q16 0 39 -26l119 -146l-47 -43zM421 680h267v-87h-42q-37 0 -56 -32l-161 -265v-177q0 -31 31 -31h79v-88h-387v88h79q31 0 31 31v139l-170 307q-15 28 -51 28h-41v87h338v-87h-45q-16 0 -21 -8.5t3 -22.5l106 -188l113 191
q8 13 3 20.5t-20 7.5h-56v87z" />
    <glyph glyph-name="ycircumflex" unicode="&#x177;" horiz-adv-x="638" 
d="M233 558l-48 43l119 146q21 26 39 26q16 0 39 -26l119 -146l-47 -43l-111 75zM403 508h231v-88h-34q-33 0 -49 -32l-180 -398q-45 -100 -86.5 -140t-107.5 -40q-57 0 -96 35t-39 88q0 40 23.5 65t60.5 25q34 0 57.5 -21t23.5 -53q0 -29 -18.5 -50t-46.5 -22q14 -7 31 -7
q19 0 36 8t27 16.5t22 28t16.5 29.5t14.5 33l-204 404q-15 31 -47 31h-30v88h317v-88h-37q-15 0 -21.5 -8.5t-1.5 -20.5l106 -216l94 216q5 13 -1 21t-21 8h-40v88z" />
    <glyph glyph-name="Ydieresis" unicode="&#x178;" horiz-adv-x="688" 
d="M269 740q-38 0 -62.5 23.5t-24.5 60.5q0 38 25 62.5t62 24.5t60.5 -24t23.5 -62q0 -37 -23.5 -61t-60.5 -24zM490 740q-38 0 -62.5 23.5t-24.5 60.5q0 38 24.5 62.5t62.5 24.5q37 0 60.5 -24t23.5 -62q0 -37 -23.5 -61t-60.5 -24zM421 680h267v-87h-42q-37 0 -56 -32
l-161 -265v-177q0 -31 31 -31h79v-88h-387v88h79q31 0 31 31v139l-170 307q-15 28 -51 28h-41v87h338v-87h-45q-16 0 -21 -8.5t3 -22.5l106 -188l113 191q8 13 3 20.5t-20 7.5h-56v87z" />
    <glyph glyph-name="Zacute" unicode="&#x179;" horiz-adv-x="617" 
d="M472 836q-18 -21 -51 -43t-116 -72l-28 25q33 89 49.5 126t33.5 57q22 25 50 28t53 -18q26 -21 28 -50.5t-19 -52.5zM496 275h87v-275h-557v50l341 546h-163q-32 0 -50 -27t-22 -50t-8 -81q-1 -14 -2 -21h-87v263h537v-57l-340 -538h180q25 0 41 12t24.5 43.5t11 48.5
t5.5 63q1 5 1 8t0.5 7t0.5 8z" />
    <glyph glyph-name="zacute" unicode="&#x17a;" horiz-adv-x="509" 
d="M418 664q-18 -21 -51 -43t-116 -72l-28 25q33 89 49.5 126t33.5 57q22 25 50 28t53 -18q26 -21 28 -50.5t-19 -52.5zM396 211h80v-211h-440v51l250 386h-66q-24 0 -42 -8.5t-27.5 -19.5t-16 -33t-9 -36.5t-5.5 -42.5h-79v211h432v-44l-258 -393h82q20 0 35.5 5t26 18
t16.5 22.5t10.5 31t6 30.5t4.5 33z" />
    <glyph glyph-name="Zdotaccent" unicode="&#x17b;" horiz-adv-x="617" 
d="M310 737q-40 0 -66.5 25.5t-26.5 64.5q0 40 26.5 66t66.5 26q39 0 64.5 -25.5t25.5 -65.5t-25.5 -65.5t-64.5 -25.5zM496 275h87v-275h-557v50l341 546h-163q-32 0 -50 -27t-22 -50t-8 -81q-1 -14 -2 -21h-87v263h537v-57l-340 -538h180q25 0 41 12t24.5 43.5t11 48.5
t5.5 63q1 5 1 8t0.5 7t0.5 8z" />
    <glyph glyph-name="zdotaccent" unicode="&#x17c;" horiz-adv-x="509" 
d="M256 565q-40 0 -66.5 25.5t-26.5 64.5q0 40 26.5 66t66.5 26q39 0 64.5 -25.5t25.5 -65.5t-25.5 -65.5t-64.5 -25.5zM396 211h80v-211h-440v51l250 386h-66q-24 0 -42 -8.5t-27.5 -19.5t-16 -33t-9 -36.5t-5.5 -42.5h-79v211h432v-44l-258 -393h82q20 0 35.5 5t26 18
t16.5 22.5t10.5 31t6 30.5t4.5 33z" />
    <glyph glyph-name="Zcaron" unicode="&#x17d;" horiz-adv-x="617" 
d="M309 730q-18 0 -39 26l-119 146l48 43l110 -75l111 75l47 -43l-119 -146q-23 -26 -39 -26zM496 275h87v-275h-557v50l341 546h-163q-32 0 -50 -27t-22 -50t-8 -81q-1 -14 -2 -21h-87v263h537v-57l-340 -538h180q25 0 41 12t24.5 43.5t11 48.5t5.5 63q1 5 1 8t0.5 7t0.5 8
z" />
    <glyph glyph-name="zcaron" unicode="&#x17e;" horiz-adv-x="509" 
d="M255 558q-18 0 -39 26l-119 146l48 43l110 -75l111 75l47 -43l-119 -146q-23 -26 -39 -26zM396 211h80v-211h-440v51l250 386h-66q-24 0 -42 -8.5t-27.5 -19.5t-16 -33t-9 -36.5t-5.5 -42.5h-79v211h432v-44l-258 -393h82q20 0 35.5 5t26 18t16.5 22.5t10.5 31t6 30.5
t4.5 33z" />
    <glyph glyph-name="Scommaaccent" unicode="&#x218;" horiz-adv-x="603" 
d="M200 529q0 -30 20 -52t52.5 -36t71.5 -27t78.5 -29.5t72 -38.5t52.5 -60t20 -88q0 -93 -72 -150.5t-191 -57.5q-121 0 -194.5 55t-73.5 130q0 43 25 68.5t63 25.5t59.5 -23t21.5 -57q0 -27 -16 -45t-42 -24q50 -56 135 -56q57 0 90.5 27t33.5 68q0 33 -19.5 56.5
t-51 37.5t-69.5 26.5t-76 28t-69.5 36.5t-51 58t-19.5 87q0 94 69 147.5t183 53.5t182.5 -49t68.5 -121q0 -41 -22.5 -61t-60.5 -20q-37 0 -59.5 20t-22.5 56q0 48 48 68q-45 34 -114 34q-57 0 -89.5 -25t-32.5 -63zM307 -41q35 0 57.5 -23.5t22.5 -60.5q0 -51 -42 -97.5
t-110 -69.5l-15 34q75 35 84 75q-36 1 -57 21t-21 50q0 31 22.5 51t58.5 20z" />
    <glyph glyph-name="scommaaccent" unicode="&#x219;" horiz-adv-x="488" 
d="M179 393q0 -30 29 -49t70.5 -30.5t83.5 -26.5t71 -48t29 -85q0 -76 -58.5 -120t-162.5 -44q-93 0 -154 35.5t-61 93.5q0 34 20.5 55t55.5 21q34 0 54.5 -19t20.5 -48q0 -38 -34 -56q37 -23 77 -23t63 20t23 50q0 32 -28 52t-67.5 31.5t-79.5 26.5t-68 48.5t-28 84.5
q0 76 57 116t157 40q88 0 143.5 -31t55.5 -86q0 -33 -20.5 -52.5t-55.5 -19.5q-34 0 -55 18.5t-21 49.5q0 32 25 49q-27 12 -55 12q-40 0 -63.5 -18.5t-23.5 -46.5zM258 -41q35 0 57.5 -23.5t22.5 -60.5q0 -51 -42 -97.5t-110 -69.5l-15 34q75 35 84 75q-36 1 -57 21t-21 50
q0 31 22.5 51t58.5 20z" />
    <glyph glyph-name="uni021A" unicode="&#x21a;" horiz-adv-x="694" 
d="M31 680h632v-263h-88q-8 101 -18 128q-19 55 -80 55h-47v-481q0 -31 31 -31h78v-88h-385v88h78q31 0 31 31v481h-46q-40 0 -61.5 -24.5t-26 -50t-8.5 -84.5q-1 -16 -2 -24h-88v263zM328 -41q35 0 57.5 -23.5t22.5 -60.5q0 -51 -42 -97.5t-110 -69.5l-15 34q75 35 84 75
q-36 1 -57 21t-21 50q0 31 22.5 51t58.5 20z" />
    <glyph glyph-name="uni021B" unicode="&#x21b;" horiz-adv-x="411" 
d="M241 -10q-75 0 -121 45.5t-46 109.5v275h-70v88h3q24 0 45 7t34 13.5t31 27t25 29.5t27 38h56v-115h167v-88h-167v-276q0 -23 15 -37t35 -14q52 0 59 60l67 -12q-24 -151 -160 -151zM241 -41q35 0 57.5 -23.5t22.5 -60.5q0 -51 -42 -97.5t-110 -69.5l-15 34q75 35 84 75
q-36 1 -57 21t-21 50q0 31 22.5 51t58.5 20z" />
    <glyph glyph-name="circumflex" unicode="&#x2c6;" horiz-adv-x="356" 
d="M68 558l-48 43l119 146q21 26 39 26q16 0 39 -26l119 -146l-47 -43l-111 75z" />
    <glyph glyph-name="caron" unicode="&#x2c7;" horiz-adv-x="356" 
d="M68 773l110 -75l111 75l47 -43l-119 -146q-23 -26 -39 -26q-18 0 -39 26l-119 146z" />
    <glyph glyph-name="breve" unicode="&#x2d8;" horiz-adv-x="370" 
d="M275 751l72 -11q-4 -84 -46.5 -126t-114.5 -42q-74 0 -116.5 42t-46.5 126l71 11q20 -79 92 -79q70 0 89 79z" />
    <glyph glyph-name="dotaccent" unicode="&#x2d9;" horiz-adv-x="258" 
d="M130 565q-40 0 -66.5 25.5t-26.5 64.5q0 40 26.5 66t66.5 26q39 0 64.5 -25.5t25.5 -65.5t-25.5 -65.5t-64.5 -25.5z" />
    <glyph glyph-name="ring" unicode="&#x2da;" horiz-adv-x="298" 
d="M149 556q-55 0 -92 31.5t-37 78.5q0 49 37 81t92 32t92 -32t37 -79q0 -48 -37 -80t-92 -32zM150 614q22 0 36.5 15t14.5 38t-15 38.5t-38 15.5q-22 0 -36.5 -15t-14.5 -38t15 -38.5t38 -15.5z" />
    <glyph glyph-name="ogonek" unicode="&#x2db;" horiz-adv-x="256" 
d="M145 -231q-53 0 -88 29.5t-35 75.5q0 65 67 109t172 44l-2 -27q-55 0 -91 -26t-36 -62q0 -43 46 -43q27 0 48 16l33 -72q-46 -44 -114 -44z" />
    <glyph glyph-name="tilde" unicode="&#x2dc;" horiz-adv-x="462" 
d="M432 733q-3 -69 -34 -113t-95 -44q-33 0 -84 28.5t-80 28.5q-24 0 -33 -11.5t-17 -38.5l-59 18q5 67 35.5 109t92.5 42q35 0 88.5 -28.5t76.5 -28.5q6 0 11 1t9.5 3t7.5 4t6 6l4.5 6t3.5 7.5t3 7.5t3 8t2 7z" />
    <glyph glyph-name="hungarumlaut" unicode="&#x2dd;" horiz-adv-x="479" 
d="M40 574q33 89 49.5 126t33.5 57q22 25 50 28t53 -18q26 -21 28 -50.5t-19 -52.5q-18 -21 -51 -43t-116 -72zM242 574q33 89 49.5 126t33.5 57q22 25 50.5 28t53.5 -18q26 -21 27.5 -50.5t-19.5 -52.5q-17 -20 -49 -42t-117 -73z" />
    <glyph glyph-name="uni030C" unicode="&#x30c;" horiz-adv-x="0" 
d="M-144 690q34 0 56.5 -22t22.5 -64q0 -130 -151 -216l-24 35q35 24 53.5 44t23 31.5t8.5 32.5q-34 4 -53 26t-19 53q0 35 23.5 57.5t59.5 22.5z" />
    <glyph glyph-name="uni0326" unicode="&#x326;" horiz-adv-x="0" 
d="M-123 -41q35 0 57.5 -23.5t22.5 -60.5q0 -51 -42 -97.5t-110 -69.5l-15 34q75 35 84 75q-36 1 -57 21t-21 50q0 31 22.5 51t58.5 20z" />
    <glyph glyph-name="Wgrave" unicode="&#x1e80;" horiz-adv-x="1100" 
d="M611 721q-83 50 -116 72t-51 43q-21 23 -19 52.5t28 50.5q25 21 53 18t50 -28q17 -20 33.5 -57t49.5 -126zM833 680h267v-87h-37q-35 0 -48 -34l-209 -559h-90l-162 417l-147 -417h-105l-216 563q-11 30 -47 30h-39v87h351v-87h-45q-15 0 -21 -8.5t-1 -22.5l114 -315
l106 315q5 13 -1 22t-21 9h-58v87h336v-87h-48q-14 0 -20.5 -9t-1.5 -22l114 -302l106 301q5 14 -0.5 23t-20.5 9h-56v87z" />
    <glyph glyph-name="wgrave" unicode="&#x1e81;" horiz-adv-x="903" 
d="M527 574l-28 -25q-83 50 -116 72t-51 43q-21 23 -19 52.5t28 50.5q25 21 53 18t50 -28q17 -20 33.5 -57t49.5 -126zM670 508h229v-88h-34q-35 0 -48 -32l-149 -388h-110l-101 263l-105 -263h-115l-152 388q-12 32 -47 32h-30v88h300v-88h-35q-14 0 -20.5 -8.5t-2.5 -20.5
l73 -232l90 232q5 13 -1 21t-21 8h-37v88h267v-88h-41q-15 0 -21.5 -8.5t-1.5 -20.5l87 -230l86 229q5 13 -1.5 21.5t-20.5 8.5h-38v88z" />
    <glyph glyph-name="Wacute" unicode="&#x1e82;" horiz-adv-x="1100" 
d="M757 836q-18 -21 -51 -43t-116 -72l-28 25q33 89 49.5 126t33.5 57q22 25 50 28t53 -18q26 -21 28 -50.5t-19 -52.5zM833 680h267v-87h-37q-35 0 -48 -34l-209 -559h-90l-162 417l-147 -417h-105l-216 563q-11 30 -47 30h-39v87h351v-87h-45q-15 0 -21 -8.5t-1 -22.5
l114 -315l106 315q5 13 -1 22t-21 9h-58v87h336v-87h-48q-14 0 -20.5 -9t-1.5 -22l114 -302l106 301q5 14 -0.5 23t-20.5 9h-56v87z" />
    <glyph glyph-name="wacute" unicode="&#x1e83;" horiz-adv-x="903" 
d="M645 664q-18 -21 -51 -43t-116 -72l-28 25q33 89 49.5 126t33.5 57q22 25 50 28t53 -18q26 -21 28 -50.5t-19 -52.5zM670 508h229v-88h-34q-35 0 -48 -32l-149 -388h-110l-101 263l-105 -263h-115l-152 388q-12 32 -47 32h-30v88h300v-88h-35q-14 0 -20.5 -8.5
t-2.5 -20.5l73 -232l90 232q5 13 -1 21t-21 8h-37v88h267v-88h-41q-15 0 -21.5 -8.5t-1.5 -20.5l87 -230l86 229q5 13 -1.5 21.5t-20.5 8.5h-38v88z" />
    <glyph glyph-name="Wdieresis" unicode="&#x1e84;" horiz-adv-x="1100" 
d="M485 740q-38 0 -62.5 23.5t-24.5 60.5q0 38 25 62.5t62 24.5t60.5 -24t23.5 -62q0 -37 -23.5 -61t-60.5 -24zM706 740q-38 0 -62.5 23.5t-24.5 60.5q0 38 24.5 62.5t62.5 24.5q37 0 60.5 -24t23.5 -62q0 -37 -23.5 -61t-60.5 -24zM833 680h267v-87h-37q-35 0 -48 -34
l-209 -559h-90l-162 417l-147 -417h-105l-216 563q-11 30 -47 30h-39v87h351v-87h-45q-15 0 -21 -8.5t-1 -22.5l114 -315l106 315q5 13 -1 22t-21 9h-58v87h336v-87h-48q-14 0 -20.5 -9t-1.5 -22l114 -302l106 301q5 14 -0.5 23t-20.5 9h-56v87z" />
    <glyph glyph-name="wdieresis" unicode="&#x1e85;" horiz-adv-x="903" 
d="M373 568q-38 0 -62.5 23.5t-24.5 60.5q0 38 25 62.5t62 24.5t60.5 -24t23.5 -62q0 -37 -23.5 -61t-60.5 -24zM594 568q-38 0 -62.5 23.5t-24.5 60.5q0 38 24.5 62.5t62.5 24.5q37 0 60.5 -24t23.5 -62q0 -37 -23.5 -61t-60.5 -24zM670 508h229v-88h-34q-35 0 -48 -32
l-149 -388h-110l-101 263l-105 -263h-115l-152 388q-12 32 -47 32h-30v88h300v-88h-35q-14 0 -20.5 -8.5t-2.5 -20.5l73 -232l90 232q5 13 -1 21t-21 8h-37v88h267v-88h-41q-15 0 -21.5 -8.5t-1.5 -20.5l87 -230l86 229q5 13 -1.5 21.5t-20.5 8.5h-38v88z" />
    <glyph glyph-name="Ygrave" unicode="&#x1ef2;" horiz-adv-x="688" 
d="M395 721q-83 50 -116 72t-51 43q-21 23 -19 52.5t28 50.5q25 21 53 18t50 -28q17 -20 33.5 -57t49.5 -126zM421 680h267v-87h-42q-37 0 -56 -32l-161 -265v-177q0 -31 31 -31h79v-88h-387v88h79q31 0 31 31v139l-170 307q-15 28 -51 28h-41v87h338v-87h-45
q-16 0 -21 -8.5t3 -22.5l106 -188l113 191q8 13 3 20.5t-20 7.5h-56v87z" />
    <glyph glyph-name="ygrave" unicode="&#x1ef3;" horiz-adv-x="638" 
d="M388 574l-28 -25q-83 50 -116 72t-51 43q-21 23 -19 52.5t28 50.5q25 21 53 18t50 -28q17 -20 33.5 -57t49.5 -126zM403 508h231v-88h-34q-33 0 -49 -32l-180 -398q-45 -100 -86.5 -140t-107.5 -40q-57 0 -96 35t-39 88q0 40 23.5 65t60.5 25q34 0 57.5 -21t23.5 -53
q0 -29 -18.5 -50t-46.5 -22q14 -7 31 -7q19 0 36 8t27 16.5t22 28t16.5 29.5t14.5 33l-204 404q-15 31 -47 31h-30v88h317v-88h-37q-15 0 -21.5 -8.5t-1.5 -20.5l106 -216l94 216q5 13 -1 21t-21 8h-40v88z" />
    <glyph glyph-name="uni2009" unicode="&#x2009;" horiz-adv-x="148" 
 />
    <glyph glyph-name="uni200A" unicode="&#x200a;" horiz-adv-x="88" 
 />
    <glyph glyph-name="endash" unicode="&#x2013;" horiz-adv-x="500" 
d="M60 310h380v-87h-380v87z" />
    <glyph glyph-name="emdash" unicode="&#x2014;" horiz-adv-x="1000" 
d="M60 310h880v-87h-880v87z" />
    <glyph glyph-name="quoteleft" unicode="&#x2018;" horiz-adv-x="261" 
d="M129 355q-39 0 -64.5 25.5t-25.5 72.5q0 147 170 243l27 -40q-54 -37 -73.5 -63.5t-21.5 -56.5q38 -4 59.5 -30t21.5 -60q0 -39 -26.5 -65t-66.5 -26z" />
    <glyph glyph-name="quoteright" unicode="&#x2019;" horiz-adv-x="261" 
d="M132 699q39 0 64.5 -25.5t25.5 -72.5q0 -147 -170 -243l-27 40q54 37 73.5 63.5t21.5 56.5q-38 4 -59.5 30t-21.5 60q0 39 26.5 65t66.5 26z" />
    <glyph glyph-name="quotesinglbase" unicode="&#x201a;" horiz-adv-x="261" 
d="M132 174q39 0 64.5 -25.5t25.5 -72.5q0 -147 -170 -243l-27 40q54 37 73.5 63.5t21.5 56.5q-38 4 -59.5 30t-21.5 60q0 39 26.5 65t66.5 26z" />
    <glyph glyph-name="quotedblleft" unicode="&#x201c;" horiz-adv-x="496" 
d="M129 355q-39 0 -64.5 25.5t-25.5 72.5q0 147 170 243l27 -40q-54 -37 -73.5 -63.5t-21.5 -56.5q38 -4 59.5 -30t21.5 -60q0 -39 -26.5 -65t-66.5 -26zM364 355q-39 0 -64.5 25.5t-25.5 72.5q0 147 170 243l27 -40q-54 -37 -73.5 -63.5t-21.5 -56.5q38 -4 59.5 -30
t21.5 -60q0 -39 -26.5 -65t-66.5 -26z" />
    <glyph glyph-name="quotedblright" unicode="&#x201d;" horiz-adv-x="496" 
d="M132 699q39 0 64.5 -25.5t25.5 -72.5q0 -147 -170 -243l-27 40q54 37 73.5 63.5t21.5 56.5q-38 4 -59.5 30t-21.5 60q0 39 26.5 65t66.5 26zM367 699q39 0 64.5 -25.5t25.5 -72.5q0 -147 -170 -243l-27 40q54 37 73.5 63.5t21.5 56.5q-38 4 -59.5 30t-21.5 60
q0 39 26.5 65t66.5 26z" />
    <glyph glyph-name="quotedblbase" unicode="&#x201e;" horiz-adv-x="496" 
d="M132 174q39 0 64.5 -25.5t25.5 -72.5q0 -147 -170 -243l-27 40q54 37 73.5 63.5t21.5 56.5q-38 4 -59.5 30t-21.5 60q0 39 26.5 65t66.5 26zM367 174q39 0 64.5 -25.5t25.5 -72.5q0 -147 -170 -243l-27 40q54 37 73.5 63.5t21.5 56.5q-38 4 -59.5 30t-21.5 60
q0 39 26.5 65t66.5 26z" />
    <glyph glyph-name="dagger" unicode="&#x2020;" horiz-adv-x="479" 
d="M381 641q27 0 43 -15t16 -42t-16 -42t-43 -15q-12 0 -23.5 4t-35.5 13.5t-48 17.5l-9 -10l46 -86l-54 -223h-35l-53 223l45 85l-10 10q-22 -8 -46.5 -17.5t-35.5 -13t-24 -3.5q-26 0 -42.5 15.5t-16.5 41.5t16.5 41.5t42.5 15.5q13 0 24.5 -3.5t36 -13t47.5 -17.5l11 11
q-8 24 -18 48t-13.5 36t-3.5 24q0 26 15.5 42.5t41.5 16.5t41.5 -16.5t15.5 -42.5q0 -13 -3.5 -24t-13 -35t-17.5 -48l12 -12q24 8 48 17.5t35 13t24 3.5z" />
    <glyph glyph-name="daggerdbl" unicode="&#x2021;" horiz-adv-x="479" 
d="M381 406q27 0 43 -15t16 -42t-16 -42t-43 -15q-13 0 -24 3.5t-35 13t-48 17.5l-12 -12q8 -24 17.5 -48t13 -35t3.5 -24q0 -27 -15 -43t-42 -16t-42 16t-15 43q0 12 3.5 24t13.5 36t18 48l-11 11q-19 -6 -38.5 -13.5t-29 -11.5t-20 -6.5t-20.5 -2.5q-26 0 -42.5 15.5
t-16.5 41.5t16.5 41.5t42.5 15.5q13 0 24 -3.5t35.5 -13t46.5 -17.5l9 10l-44 84l45 85l-10 10q-22 -8 -46.5 -17.5t-35.5 -13t-24 -3.5q-26 0 -42.5 15.5t-16.5 41.5t16.5 41.5t42.5 15.5q13 0 24.5 -3.5t36 -13t47.5 -17.5l11 11q-8 24 -18 48t-13.5 36t-3.5 24
q0 26 15.5 42.5t41.5 16.5t41.5 -16.5t15.5 -42.5q0 -13 -3.5 -24t-13 -35t-17.5 -48l12 -12q24 8 48 17.5t35 13t24 3.5q27 0 43 -15t16 -42t-16 -42t-43 -15q-12 0 -23.5 4t-35.5 13.5t-48 17.5l-9 -10l46 -86l-46 -85l9 -10q20 7 39 14.5t28.5 11.5t19.5 6.5t20 2.5z" />
    <glyph glyph-name="bullet" unicode="&#x2022;" horiz-adv-x="472" 
d="M236 170q-65 0 -111 46t-46 110t46.5 110.5t110.5 46.5t110.5 -46.5t46.5 -110.5t-46 -110t-111 -46z" />
    <glyph glyph-name="ellipsis" unicode="&#x2026;" horiz-adv-x="720" 
d="M132 175q39 0 64.5 -25.5t25.5 -65.5t-25.5 -65.5t-64.5 -25.5q-40 0 -66.5 26t-26.5 66q0 39 26.5 64.5t66.5 25.5zM362 175q39 0 64.5 -25.5t25.5 -65.5t-25.5 -65.5t-64.5 -25.5q-40 0 -66.5 26t-26.5 66q0 39 26.5 64.5t66.5 25.5zM591 175q39 0 64.5 -25.5
t25.5 -65.5t-25.5 -65.5t-64.5 -25.5q-40 0 -66.5 26t-26.5 66q0 39 26.5 64.5t66.5 25.5z" />
    <glyph glyph-name="perthousand" unicode="&#x2030;" horiz-adv-x="1456" 
d="M246 282q-89 0 -147.5 58.5t-58.5 145.5t58.5 145.5t147.5 58.5t147.5 -58.5t58.5 -145.5t-58.5 -145.5t-147.5 -58.5zM503 373q25 58 77.5 154t71.5 121q41 59 81 29q39 -27 -2 -85q-20 -28 -93 -107.5t-121 -122.5zM246 338q99 0 99 148t-99 148q-100 0 -100 -148
t100 -148zM748 -10q-89 0 -147.5 58.5t-58.5 145.5t58.5 145.5t147.5 58.5t147.5 -58.5t58.5 -145.5t-58.5 -145.5t-147.5 -58.5zM1210 -10q-89 0 -147.5 58.5t-58.5 145.5t58.5 145.5t147.5 58.5t147.5 -58.5t58.5 -145.5t-58.5 -145.5t-147.5 -58.5zM748 46q99 0 99 148
t-99 148q-100 0 -100 -148t100 -148zM1210 46q99 0 99 148t-99 148q-100 0 -100 -148t100 -148zM478 309q-23 -61 -74.5 -152t-74.5 -124q-41 -57 -81 -29q-40 26 2 86q20 27 92.5 106.5t120.5 123.5z" />
    <glyph glyph-name="guilsinglleft" unicode="&#x2039;" horiz-adv-x="313" 
d="M273 95l-37 -33l-196 162v70l196 162l37 -33l-114 -162z" />
    <glyph glyph-name="guilsinglright" unicode="&#x203a;" horiz-adv-x="313" 
d="M40 95l114 166l-114 162l37 33l196 -162v-70l-196 -162z" />
    <glyph glyph-name="fraction" unicode="&#x2044;" horiz-adv-x="236" 
d="M131 373q25 58 77.5 154t71.5 121q41 59 81 29q39 -27 -2 -85q-20 -28 -93 -107.5t-121 -122.5zM106 309q-23 -61 -74.5 -152t-74.5 -124q-41 -57 -81 -29q-40 26 2 86q20 27 92.5 106.5t120.5 123.5z" />
    <glyph glyph-name="uni2081" unicode="&#x2081;" horiz-adv-x="343" 
d="M261 -31h62v-69h-303v69h68q22 0 22 22v205h-82v58q59 3 81 17.5t29 57.5h100v-338q0 -10 6.5 -16t16.5 -6z" />
    <glyph glyph-name="uni2082" unicode="&#x2082;" horiz-adv-x="378" 
d="M294 50h64v-150h-332v46q17 17 49 48.5t43.5 44t33 35.5t29 34.5t18 29.5t13.5 33t3 32q0 30 -16.5 48t-46.5 18q-25 0 -44 -11q41 -14 41 -55q0 -27 -18.5 -45t-46.5 -18q-27 0 -45.5 18.5t-18.5 49.5q0 49 45 86t120 37q68 0 112.5 -31t44.5 -97q0 -26 -8.5 -48.5
t-19 -39t-40.5 -42t-52 -42t-75 -53.5l79 3q16 1 27 4.5t17.5 6.5t11 12.5t5.5 12.5t4 17t3 16z" />
    <glyph glyph-name="uni2083" unicode="&#x2083;" horiz-adv-x="367" 
d="M223 114q59 -5 91.5 -31t32.5 -69q0 -54 -47.5 -87.5t-116.5 -33.5q-72 0 -117.5 32t-45.5 80q0 31 18.5 49.5t46.5 18.5q27 0 45.5 -18.5t18.5 -44.5q0 -36 -35 -54q15 -4 37 -4q73 0 73 67q0 29 -16.5 47.5t-48.5 18.5h-13v61h13q30 0 47 17t17 46q0 64 -72 64
q-21 0 -38 -6q37 -17 37 -55q0 -26 -18.5 -44t-45.5 -18q-28 0 -46.5 18.5t-18.5 48.5q0 49 45 81.5t118 32.5q68 0 114 -32.5t46 -85.5q0 -85 -121 -99z" />
    <glyph glyph-name="Euro" unicode="&#x20ac;" horiz-adv-x="749" 
d="M462 77q68 0 114 49.5t67 136.5l72 -18q-21 -126 -94 -190.5t-184 -64.5t-192 61t-113 163h-92v81h76q-2 28 -2 42q0 17 1 25h-75v81h87q30 112 114 179t200 67q119 0 197 -66t78 -145q0 -43 -25.5 -67.5t-63.5 -24.5q-37 0 -61.5 23.5t-24.5 58.5q0 50 45 73
q-39 74 -123 74q-66 0 -112.5 -44t-63.5 -128h194v-81h-203v-14q0 -19 2 -53h201v-81h-184q21 -66 64 -101.5t101 -35.5z" />
    <glyph glyph-name="uni2116" unicode="&#x2116;" horiz-adv-x="1264" 
d="M1004 690q95 0 153.5 -58t58.5 -148q0 -91 -58.5 -150.5t-153.5 -59.5q-96 0 -154.5 59.5t-58.5 150.5q0 90 58.5 148t154.5 58zM763 680v-87h-60q-31 0 -31 -31v-562h-75l-381 466v-347q0 -31 31 -31h75v-88h-294v88h60q31 0 31 31v443q0 31 -31 31h-60v87h230l317 -395
v277q0 31 -31 31h-72v87h291zM1004 330q45 0 64.5 36t19.5 118q0 80 -19.5 115t-64.5 35q-46 0 -65.5 -35t-19.5 -115q0 -83 19.5 -118.5t65.5 -35.5zM817 210h373v-78h-373v78z" />
    <glyph glyph-name="uni2117" unicode="&#x2117;" horiz-adv-x="758" 
d="M378 -10q-147 0 -247.5 101t-100.5 250q0 147 101 248t247 101q147 0 248 -100.5t101 -248.5q0 -149 -101 -250t-248 -101zM378 43q124 0 208 86.5t84 211.5q0 124 -84.5 210t-207.5 86q-121 0 -205.5 -86t-84.5 -210q0 -125 84 -211.5t206 -86.5zM419 289h-57v-69
q0 -17 18 -17h58v-49h-220v49h33q17 0 17 17v240q0 17 -17 17h-33v49h201q65 0 107.5 -33.5t42.5 -83.5q0 -52 -42.5 -86t-107.5 -34zM362 477v-141h36q32 0 51.5 20.5t19.5 52.5q0 30 -19.5 49t-51.5 19h-36z" />
    <glyph glyph-name="uni2120" unicode="&#x2120;" horiz-adv-x="909" 
d="M143 607q0 -21 20 -34.5t48.5 -22.5t57.5 -20.5t49 -35t20 -58.5q0 -49 -39 -78.5t-103 -29.5q-65 0 -105.5 28.5t-40.5 66.5q0 22 13 35.5t34 13.5q22 0 34.5 -12t12.5 -31q0 -26 -30 -35q28 -26 67 -26q30 0 46.5 13t16.5 34q0 26 -29.5 42.5t-64.5 24.5t-64.5 34
t-29.5 69q0 49 38 76.5t100 27.5t99.5 -24.5t37.5 -62.5q0 -43 -47 -43q-21 0 -33.5 10.5t-12.5 30.5q0 23 23 35q-21 16 -55 16q-29 0 -46 -12.5t-17 -31.5zM821 629q-22 0 -22 -21v-202q0 -21 22 -21h33v-51h-208v51h29q23 0 23 21v162l-83 -160h-31l-95 158v-160
q0 -21 21 -21h37v-51h-176v51h33q22 0 22 21v202q0 21 -22 21h-33v51h136l107 -172l95 172h145v-51h-33z" />
    <glyph glyph-name="trademark" unicode="&#x2122;" horiz-adv-x="966" 
d="M402 680v-152h-52q-1 6 -3.5 27t-4.5 29.5t-7.5 22.5t-15 19.5t-23.5 5.5h-24v-226q0 -21 22 -21h38v-51h-211v51h37q22 0 22 21v226h-24q-14 0 -23.5 -5.5t-15 -19.5t-7.5 -22.5t-4.5 -29.5t-3.5 -27h-52v152h352zM878 627q-22 0 -22 -22v-199q0 -21 22 -21h33v-51h-208
v51h29q23 0 23 21v162l-83 -160h-30l-96 159v-161q0 -21 21 -21h37v-51h-175v51h32q22 0 22 21v199q0 22 -22 22h-32v53h135l107 -173l96 173h144v-53h-33z" />
    <glyph glyph-name="arrowup" unicode="&#x2191;" horiz-adv-x="662" 
d="M70 418l244 262h35l242 -262l-24 -35l-201 95l5.5 -88t4.5 -136v-254h-90v254q0 64 4.5 136l5.5 88l-202 -95z" />
    <glyph glyph-name="arrowdown" unicode="&#x2193;" horiz-adv-x="662" 
d="M70 262l24 35l202 -95l-5.5 88t-4.5 136v254h90v-254q0 -64 -4.5 -136l-5.5 -88l201 95l24 -35l-242 -262h-35z" />
    <glyph glyph-name="arrowupdn" unicode="&#x2195;" horiz-adv-x="662" 
d="M366 203l201 94l24 -34l-242 -263h-35l-244 263l24 34l202 -94q-1 11 -5.5 48t-4.5 58v63q0 20 4.5 57.5t5.5 48.5l-202 -95l-24 35l244 262h35l242 -262l-24 -35l-201 95q1 -11 5.5 -48.5t4.5 -57.5v-63q0 -21 -4.5 -58t-5.5 -48z" />
    <glyph glyph-name="uni2196" unicode="&#x2196;" horiz-adv-x="759" 
d="M463 626l8 -41l-210 -77q19 -18 48.5 -43t56 -49.5t60.5 -58.5l274 -273l-64 -64l-273 273q-45 45 -92 98.5t-59 66.5l-75 -208l-42 7l-14 357l25 25z" />
    <glyph glyph-name="uni2197" unicode="&#x2197;" horiz-adv-x="759" 
d="M297 626l357 13l25 -25l-14 -357l-42 -7l-75 208q-12 -13 -59 -66.5t-92 -98.5l-273 -273l-64 64l274 273q34 34 60.5 58.5t56 49.5t48.5 43l-210 77z" />
    <glyph glyph-name="uni2198" unicode="&#x2198;" horiz-adv-x="759" 
d="M297 63l-8 41l210 77q-19 18 -48.5 43t-56 49.5t-60.5 58.5l-274 273l64 64l273 -273q45 -45 92 -98.5t59 -66.5l75 208l42 -7l14 -357l-25 -25z" />
    <glyph glyph-name="uni2199" unicode="&#x2199;" horiz-adv-x="759" 
d="M463 60l-357 -13l-25 25l14 357l42 7l75 -208q12 13 59 66.5t92 98.5l273 273l64 -64l-274 -273q-34 -34 -60.5 -58.5t-56 -49.5t-48.5 -43l210 -77z" />
    <glyph glyph-name="minus" unicode="&#x2212;" horiz-adv-x="566" 
d="M65 251v94h436v-94h-436z" />
    <glyph glyph-name="approxequal" unicode="&#x2248;" horiz-adv-x="566" 
d="M510 477q-14 -136 -141 -136q-39 0 -99 29.5t-94 29.5q-28 0 -40 -12.5t-22 -39.5l-58 20q15 133 141 133q40 0 102.5 -30t91.5 -30q12 0 21.5 3.5t15 7t11 13.5t7 13.5t6.5 15.5zM510 270q-14 -137 -141 -137q-39 0 -99 30t-94 30q-28 0 -40 -12.5t-22 -40.5l-58 21
q15 132 141 132q40 0 102.5 -29.5t91.5 -29.5q12 0 21.5 3.5t15 7t11 13.5t7 13.5t6.5 15.5z" />
    <glyph glyph-name="notequal" unicode="&#x2260;" horiz-adv-x="566" 
d="M501 368h-150l-58 -101h208v-86h-258l-71 -122h-97l71 122h-81v86h131l58 101h-189v87h240l70 121h97l-70 -121h99v-87z" />
    <glyph glyph-name="lessequal" unicode="&#x2264;" horiz-adv-x="566" 
d="M498 183l-433 148v83l433 149v-102l-317 -89l317 -90v-99zM501 50h-436v86h436v-86z" />
    <glyph glyph-name="greaterequal" unicode="&#x2265;" horiz-adv-x="566" 
d="M68 183v99l317 90l-317 89v102l433 -149v-83zM65 50v86h436v-86h-436z" />
    <glyph glyph-name="fi" unicode="&#xfb01;" horiz-adv-x="735" 
d="M672 88h46v-88h-304v88h46q31 0 31 31v270q0 31 -31 31h-205v-301q0 -31 31 -31h87v-88h-342v88h42q31 0 31 31v301h-83v88h52q31 0 31 28v4q0 93 71.5 154.5t183.5 61.5q97 0 154 -35.5t57 -96.5q0 -35 -24.5 -58.5t-61.5 -23.5t-61.5 24.5t-24.5 61.5q0 34 29 52
q-19 10 -49 10q-54 0 -88.5 -40t-34.5 -110v-32h386v-389q0 -31 31 -31z" />
    <glyph glyph-name="fl" unicode="&#xfb02;" horiz-adv-x="738" 
d="M670 88h46v-88h-304v88h46q31 0 31 31v301h-234v-301q0 -31 31 -31h87v-88h-342v88h42q31 0 31 31v301h-83v88h52q31 0 31 28v4q0 93 71.5 154.5t183.5 61.5q81 0 134.5 -25t70.5 -70l25 19h50v-561q0 -31 31 -31zM489 508v34h-5q-37 0 -61.5 24.5t-24.5 61.5q0 34 29 52
q-19 10 -49 10q-54 0 -88.5 -40t-34.5 -110v-32h234z" />
    <glyph glyph-name="A.fina" horiz-adv-x="1023" 
d="M930 269q37 0 62.5 -25.5t25.5 -71.5q0 -77 -68 -129.5t-183 -52.5q-60 0 -110.5 15.5t-88 44t-64 58t-52.5 68.5l-4 6h-232v-63q0 -31 31 -31h86v-88h-305v88h60q31 0 31 31v443q0 31 -31 31h-60v87h302l341 -502q44 -65 75 -88.5t83 -23.5q72 0 98 51q-33 4 -55 24.5
t-22 52.5t23 53.5t57 21.5zM216 257h183l-183 280v-280z" />
    <glyph glyph-name="Aacute.fina" horiz-adv-x="1023" 
d="M366 836q-18 -21 -51 -43t-116 -72l-28 25q33 89 49.5 126t33.5 57q22 25 50 28t53 -18q26 -21 28 -50.5t-19 -52.5zM930 269q37 0 62.5 -25.5t25.5 -71.5q0 -77 -68 -129.5t-183 -52.5q-60 0 -110.5 15.5t-88 44t-64 58t-52.5 68.5l-4 6h-232v-63q0 -31 31 -31h86v-88
h-305v88h60q31 0 31 31v443q0 31 -31 31h-60v87h302l341 -502q44 -65 75 -88.5t83 -23.5q72 0 98 51q-33 4 -55 24.5t-22 52.5t23 53.5t57 21.5zM216 257h183l-183 280v-280z" />
    <glyph glyph-name="Abreve.fina" horiz-adv-x="1023" 
d="M203 744q-74 0 -116.5 42t-46.5 126l71 11q20 -79 92 -79q70 0 89 79l72 -11q-4 -84 -46.5 -126t-114.5 -42zM930 269q37 0 62.5 -25.5t25.5 -71.5q0 -77 -68 -129.5t-183 -52.5q-60 0 -110.5 15.5t-88 44t-64 58t-52.5 68.5l-4 6h-232v-63q0 -31 31 -31h86v-88h-305v88
h60q31 0 31 31v443q0 31 -31 31h-60v87h302l341 -502q44 -65 75 -88.5t83 -23.5q72 0 98 51q-33 4 -55 24.5t-22 52.5t23 53.5t57 21.5zM216 257h183l-183 280v-280z" />
    <glyph glyph-name="Acircumflex.fina" horiz-adv-x="1023" 
d="M203 805l-110 -75l-48 43l119 146q21 26 39 26q16 0 39 -26l119 -146l-47 -43zM930 269q37 0 62.5 -25.5t25.5 -71.5q0 -77 -68 -129.5t-183 -52.5q-60 0 -110.5 15.5t-88 44t-64 58t-52.5 68.5l-4 6h-232v-63q0 -31 31 -31h86v-88h-305v88h60q31 0 31 31v443
q0 31 -31 31h-60v87h302l341 -502q44 -65 75 -88.5t83 -23.5q72 0 98 51q-33 4 -55 24.5t-22 52.5t23 53.5t57 21.5zM216 257h183l-183 280v-280z" />
    <glyph glyph-name="Adieresis.fina" horiz-adv-x="1023" 
d="M94 740q-38 0 -62.5 23.5t-24.5 60.5q0 38 24.5 62.5t62.5 24.5q37 0 60.5 -24t23.5 -62q0 -37 -23.5 -61t-60.5 -24zM315 740q-38 0 -62.5 23.5t-24.5 60.5q0 38 25 62.5t62 24.5t60.5 -24t23.5 -62q0 -37 -23.5 -61t-60.5 -24zM930 269q37 0 62.5 -25.5t25.5 -71.5
q0 -77 -68 -129.5t-183 -52.5q-60 0 -110.5 15.5t-88 44t-64 58t-52.5 68.5l-4 6h-232v-63q0 -31 31 -31h86v-88h-305v88h60q31 0 31 31v443q0 31 -31 31h-60v87h302l341 -502q44 -65 75 -88.5t83 -23.5q72 0 98 51q-33 4 -55 24.5t-22 52.5t23 53.5t57 21.5zM216 257h183
l-183 280v-280z" />
    <glyph glyph-name="Agrave.fina" horiz-adv-x="1023" 
d="M220 721q-83 50 -116 72t-51 43q-21 23 -19 52.5t28 50.5q25 21 53 18t50 -28q17 -20 33.5 -57t49.5 -126zM930 269q37 0 62.5 -25.5t25.5 -71.5q0 -77 -68 -129.5t-183 -52.5q-60 0 -110.5 15.5t-88 44t-64 58t-52.5 68.5l-4 6h-232v-63q0 -31 31 -31h86v-88h-305v88h60
q31 0 31 31v443q0 31 -31 31h-60v87h302l341 -502q44 -65 75 -88.5t83 -23.5q72 0 98 51q-33 4 -55 24.5t-22 52.5t23 53.5t57 21.5zM216 257h183l-183 280v-280z" />
    <glyph glyph-name="Amacron.fina" horiz-adv-x="1023" 
d="M362 856v-98h-319v98h319zM930 269q37 0 62.5 -25.5t25.5 -71.5q0 -77 -68 -129.5t-183 -52.5q-60 0 -110.5 15.5t-88 44t-64 58t-52.5 68.5l-4 6h-232v-63q0 -31 31 -31h86v-88h-305v88h60q31 0 31 31v443q0 31 -31 31h-60v87h302l341 -502q44 -65 75 -88.5t83 -23.5
q72 0 98 51q-33 4 -55 24.5t-22 52.5t23 53.5t57 21.5zM216 257h183l-183 280v-280z" />
    <glyph glyph-name="Aogonek.fina" horiz-adv-x="1023" 
d="M919 -131q27 0 48 16l34 -72q-47 -44 -115 -44q-52 0 -87 29t-35 76q0 60 78 123q-40 -7 -75 -7q-60 0 -110.5 15.5t-88 44t-64 58t-52.5 68.5l-4 6h-232v-63q0 -31 31 -31h86v-88h-305v88h60q31 0 31 31v443q0 31 -31 31h-60v87h302l341 -502q44 -65 75 -88.5t83 -23.5
q69 0 98 50q-33 4 -55 25t-22 53t23 53.5t57 21.5q37 0 62.5 -25.5t25.5 -71.5q0 -62 -49 -114q-8 -10 -24 -28t-22 -25t-16.5 -20t-14.5 -20t-9.5 -17t-7 -18.5t-1.5 -17.5q0 -20 12.5 -31.5t32.5 -11.5zM216 257h183l-183 280v-280z" />
    <glyph glyph-name="Aring.fina" horiz-adv-x="1023" 
d="M203 728q-55 0 -92 31.5t-37 78.5q0 49 37 81t92 32t92 -32t37 -79q0 -48 -37 -80t-92 -32zM202 893q-22 0 -36.5 -15t-14.5 -38t15 -38.5t38 -15.5q22 0 36.5 15t14.5 38t-15 38.5t-38 15.5zM930 269q37 0 62.5 -25.5t25.5 -71.5q0 -77 -68 -129.5t-183 -52.5
q-60 0 -110.5 15.5t-88 44t-64 58t-52.5 68.5l-4 6h-232v-63q0 -31 31 -31h86v-88h-305v88h60q31 0 31 31v443q0 31 -31 31h-60v87h302l341 -502q44 -65 75 -88.5t83 -23.5q72 0 98 51q-33 4 -55 24.5t-22 52.5t23 53.5t57 21.5zM216 257h183l-183 280v-280z" />
    <glyph glyph-name="Atilde.fina" horiz-adv-x="1023" 
d="M110 805q-24 0 -33 -11.5t-17 -38.5l-59 18q5 67 35.5 109t92.5 42q35 0 88.5 -28.5t76.5 -28.5q6 0 11 1t9.5 3t7.5 4t6 6l4.5 6t3.5 7.5t3 7.5t3 8t2 7l59 -12q-3 -69 -34 -113t-95 -44q-33 0 -84 28.5t-80 28.5zM930 269q37 0 62.5 -25.5t25.5 -71.5q0 -77 -68 -129.5
t-183 -52.5q-60 0 -110.5 15.5t-88 44t-64 58t-52.5 68.5l-4 6h-232v-63q0 -31 31 -31h86v-88h-305v88h60q31 0 31 31v443q0 31 -31 31h-60v87h302l341 -502q44 -65 75 -88.5t83 -23.5q72 0 98 51q-33 4 -55 24.5t-22 52.5t23 53.5t57 21.5zM216 257h183l-183 280v-280z" />
    <glyph glyph-name="K.fina" horiz-adv-x="988" 
d="M286 119q0 -31 31 -31h54v-88h-343v88h60q31 0 31 31v443q0 31 -31 31h-60v87h343v-87h-54q-31 0 -31 -31v-443zM896 276q37 0 62 -25t25 -76q0 -77 -57.5 -131t-167.5 -54q-63 0 -117.5 18t-96 52t-63 57t-49.5 59l-119 156l216 232q12 13 10 21t-17 8h-74v87h319v-87
h-35q-52 0 -80 -31l-172 -189l153 -196q49 -62 87.5 -86.5t87.5 -24.5q86 0 105 57q-40 -2 -69 19t-29 59q0 33 23 54t58 21z" />
    <glyph glyph-name="Kcommaaccent.fina" horiz-adv-x="988" 
d="M286 119q0 -31 31 -31h54v-88h-343v88h60q31 0 31 31v443q0 31 -31 31h-60v87h343v-87h-54q-31 0 -31 -31v-443zM896 276q37 0 62 -25t25 -76q0 -77 -57.5 -131t-167.5 -54q-63 0 -117.5 18t-96 52t-63 57t-49.5 59l-119 156l216 232q12 13 10 21t-17 8h-74v87h319v-87
h-35q-52 0 -80 -31l-172 -189l153 -196q49 -62 87.5 -86.5t87.5 -24.5q86 0 105 57q-40 -2 -69 19t-29 59q0 33 23 54t58 21zM467 -41q35 0 57.5 -23.5t22.5 -60.5q0 -51 -42 -97.5t-110 -69.5l-15 34q75 35 84 75q-36 1 -57 21t-21 50q0 31 22.5 51t58.5 20z" />
    <glyph glyph-name="R.fina" horiz-adv-x="970" 
d="M878 276q38 0 62.5 -25t24.5 -76q0 -77 -57.5 -131t-169.5 -54q-63 0 -117.5 18t-96 52t-63 57t-49.5 59l-69 91h-30h-27v-148q0 -31 31 -31h74v-88h-363v88h60q31 0 31 31v443q0 31 -31 31h-60v87h373q126 0 195.5 -55.5t69.5 -144.5q0 -137 -151 -186l90 -117
q49 -63 88 -87t89 -24q90 0 113 57q-39 -2 -68.5 19.5t-29.5 58.5q0 33 23 54t58 21zM286 593v-239h78q60 0 94.5 35.5t34.5 88.5q0 52 -34 83.5t-95 31.5h-78z" />
    <glyph glyph-name="Racute.fina" horiz-adv-x="970" 
d="M537 836q-18 -21 -51 -43t-116 -72l-28 25q33 89 49.5 126t33.5 57q22 25 50 28t53 -18q26 -21 28 -50.5t-19 -52.5zM878 276q38 0 62.5 -25t24.5 -76q0 -77 -57.5 -131t-169.5 -54q-63 0 -117.5 18t-96 52t-63 57t-49.5 59l-69 91h-30h-27v-148q0 -31 31 -31h74v-88
h-363v88h60q31 0 31 31v443q0 31 -31 31h-60v87h373q126 0 195.5 -55.5t69.5 -144.5q0 -137 -151 -186l90 -117q49 -63 88 -87t89 -24q90 0 113 57q-39 -2 -68.5 19.5t-29.5 58.5q0 33 23 54t58 21zM286 593v-239h78q60 0 94.5 35.5t34.5 88.5q0 52 -34 83.5t-95 31.5h-78z
" />
    <glyph glyph-name="Rcaron.fina" horiz-adv-x="970" 
d="M374 730q-18 0 -39 26l-119 146l48 43l110 -75l111 75l47 -43l-119 -146q-23 -26 -39 -26zM878 276q38 0 62.5 -25t24.5 -76q0 -77 -57.5 -131t-169.5 -54q-63 0 -117.5 18t-96 52t-63 57t-49.5 59l-69 91h-30h-27v-148q0 -31 31 -31h74v-88h-363v88h60q31 0 31 31v443
q0 31 -31 31h-60v87h373q126 0 195.5 -55.5t69.5 -144.5q0 -137 -151 -186l90 -117q49 -63 88 -87t89 -24q90 0 113 57q-39 -2 -68.5 19.5t-29.5 58.5q0 33 23 54t58 21zM286 593v-239h78q60 0 94.5 35.5t34.5 88.5q0 52 -34 83.5t-95 31.5h-78z" />
    <glyph glyph-name="Rcommaaccent.fina" horiz-adv-x="970" 
d="M878 276q38 0 62.5 -25t24.5 -76q0 -77 -57.5 -131t-169.5 -54q-63 0 -117.5 18t-96 52t-63 57t-49.5 59l-69 91h-30h-27v-148q0 -31 31 -31h74v-88h-363v88h60q31 0 31 31v443q0 31 -31 31h-60v87h373q126 0 195.5 -55.5t69.5 -144.5q0 -137 -151 -186l90 -117
q49 -63 88 -87t89 -24q90 0 113 57q-39 -2 -68.5 19.5t-29.5 58.5q0 33 23 54t58 21zM286 593v-239h78q60 0 94.5 35.5t34.5 88.5q0 52 -34 83.5t-95 31.5h-78zM424 -41q35 0 57.5 -23.5t22.5 -60.5q0 -51 -42 -97.5t-110 -69.5l-15 34q75 35 84 75q-36 1 -57 21t-21 50
q0 31 22.5 51t58.5 20z" />
    <glyph glyph-name="A.init" horiz-adv-x="1028" 
d="M941 593q-31 0 -31 -31v-443q0 -31 31 -31h60v-88h-376v88h86q31 0 31 31v63h-229l-4 -6q-59 -90 -129.5 -137t-165.5 -47q-108 0 -161 54.5t-53 124.5q0 50 25.5 75t62.5 25q35 0 57.5 -21t22.5 -54t-23 -53.5t-57 -23.5q28 -57 126 -57q104 0 183 116l339 502h265v-87
h-60zM561 257h181v280z" />
    <glyph glyph-name="Aacute.init" horiz-adv-x="1028" 
d="M996 939q26 -21 28 -50.5t-19 -52.5q-18 -21 -51 -43t-116 -72l-28 25q33 89 49.5 126t33.5 57q22 25 50 28t53 -18zM397 178l339 502h265v-87h-60q-31 0 -31 -31v-443q0 -31 31 -31h60v-88h-376v88h86q31 0 31 31v63h-229l-4 -6q-59 -90 -129.5 -137t-165.5 -47
q-108 0 -161 54.5t-53 124.5q0 50 25.5 75t62.5 25q35 0 57.5 -21t22.5 -54t-23 -53.5t-57 -23.5q28 -57 126 -57q104 0 183 116zM742 257v280l-181 -280h181z" />
    <glyph glyph-name="Abreve.init" horiz-adv-x="1028" 
d="M842 744q-74 0 -116.5 42t-46.5 126l71 11q20 -79 92 -79q70 0 89 79l72 -11q-4 -84 -46.5 -126t-114.5 -42zM397 178l339 502h265v-87h-60q-31 0 -31 -31v-443q0 -31 31 -31h60v-88h-376v88h86q31 0 31 31v63h-229l-4 -6q-59 -90 -129.5 -137t-165.5 -47
q-108 0 -161 54.5t-53 124.5q0 50 25.5 75t62.5 25q35 0 57.5 -21t22.5 -54t-23 -53.5t-57 -23.5q28 -57 126 -57q104 0 183 116zM742 257v280l-181 -280h181z" />
    <glyph glyph-name="Acircumflex.init" horiz-adv-x="1028" 
d="M842 805l-110 -75l-48 43l119 146q21 26 39 26q16 0 39 -26l119 -146l-47 -43zM941 593q-31 0 -31 -31v-443q0 -31 31 -31h60v-88h-376v88h86q31 0 31 31v63h-229l-4 -6q-59 -90 -129.5 -137t-165.5 -47q-108 0 -161 54.5t-53 124.5q0 50 25.5 75t62.5 25q35 0 57.5 -21
t22.5 -54t-23 -53.5t-57 -23.5q28 -57 126 -57q104 0 183 116l339 502h265v-87h-60zM561 257h181v280z" />
    <glyph glyph-name="Adieresis.init" horiz-adv-x="1028" 
d="M733 740q-38 0 -62.5 23.5t-24.5 60.5q0 38 25 62.5t62 24.5t60.5 -24t23.5 -62q0 -37 -23.5 -61t-60.5 -24zM954 911q37 0 60.5 -24t23.5 -62q0 -37 -23.5 -61t-60.5 -24q-38 0 -62.5 23.5t-24.5 60.5q0 38 24.5 62.5t62.5 24.5zM397 178l339 502h265v-87h-60
q-31 0 -31 -31v-443q0 -31 31 -31h60v-88h-376v88h86q31 0 31 31v63h-229l-4 -6q-59 -90 -129.5 -137t-165.5 -47q-108 0 -161 54.5t-53 124.5q0 50 25.5 75t62.5 25q35 0 57.5 -21t22.5 -54t-23 -53.5t-57 -23.5q28 -57 126 -57q104 0 183 116zM742 257v280l-181 -280h181z
" />
    <glyph glyph-name="Agrave.init" horiz-adv-x="1028" 
d="M859 721q-83 50 -116 72t-51 43q-21 23 -19 52.5t28 50.5q25 21 53 18t50 -28q17 -20 33.5 -57t49.5 -126zM941 593q-31 0 -31 -31v-443q0 -31 31 -31h60v-88h-376v88h86q31 0 31 31v63h-229l-4 -6q-59 -90 -129.5 -137t-165.5 -47q-108 0 -161 54.5t-53 124.5
q0 50 25.5 75t62.5 25q35 0 57.5 -21t22.5 -54t-23 -53.5t-57 -23.5q28 -57 126 -57q104 0 183 116l339 502h265v-87h-60zM561 257h181v280z" />
    <glyph glyph-name="Amacron.init" horiz-adv-x="1028" 
d="M682 856h319v-98h-319v98zM397 178l339 502h265v-87h-60q-31 0 -31 -31v-443q0 -31 31 -31h60v-88h-376v88h86q31 0 31 31v63h-229l-4 -6q-59 -90 -129.5 -137t-165.5 -47q-108 0 -161 54.5t-53 124.5q0 50 25.5 75t62.5 25q35 0 57.5 -21t22.5 -54t-23 -53.5t-57 -23.5
q28 -57 126 -57q104 0 183 116zM742 257v280l-181 -280h181z" />
    <glyph glyph-name="Aogonek.init" horiz-adv-x="1028" 
d="M941 593q-31 0 -31 -31v-443q0 -31 31 -31h60v-88h-79q-55 0 -91 -26t-36 -62q0 -43 46 -43q27 0 48 16l33 -72q-46 -44 -114 -44q-53 0 -88 29.5t-35 75.5q0 39 26 72t73 54h-159v88h86q31 0 31 31v63h-229l-4 -6q-59 -90 -129.5 -137t-165.5 -47q-108 0 -161 54.5
t-53 124.5q0 50 25.5 75t62.5 25q35 0 57.5 -21t22.5 -54t-23 -53.5t-57 -23.5q28 -57 126 -57q104 0 183 116l339 502h265v-87h-60zM561 257h181v280z" />
    <glyph glyph-name="Aring.init" horiz-adv-x="1028" 
d="M842 728q-55 0 -92 31.5t-37 78.5q0 49 37 81t92 32t92 -32t37 -79q0 -48 -37 -80t-92 -32zM841 893q-22 0 -36.5 -15t-14.5 -38t15 -38.5t38 -15.5q22 0 36.5 15t14.5 38t-15 38.5t-38 15.5zM941 593q-31 0 -31 -31v-443q0 -31 31 -31h60v-88h-376v88h86q31 0 31 31v63
h-229l-4 -6q-59 -90 -129.5 -137t-165.5 -47q-108 0 -161 54.5t-53 124.5q0 50 25.5 75t62.5 25q35 0 57.5 -21t22.5 -54t-23 -53.5t-57 -23.5q28 -57 126 -57q104 0 183 116l339 502h265v-87h-60zM561 257h181v280z" />
    <glyph glyph-name="Atilde.init" horiz-adv-x="1028" 
d="M749 805q-24 0 -33 -11.5t-17 -38.5l-59 18q5 67 35.5 109t92.5 42q36 0 89 -28.5t76 -28.5q6 0 11 1t9.5 3t7.5 4t6 6l4.5 6t3.5 7.5t3 7.5t3 8t2 7l59 -12q-3 -69 -34 -113t-95 -44q-33 0 -84 28.5t-80 28.5zM397 178l339 502h265v-87h-60q-31 0 -31 -31v-443
q0 -31 31 -31h60v-88h-376v88h86q31 0 31 31v63h-229l-4 -6q-59 -90 -129.5 -137t-165.5 -47q-108 0 -161 54.5t-53 124.5q0 50 25.5 75t62.5 25q35 0 57.5 -21t22.5 -54t-23 -53.5t-57 -23.5q28 -57 126 -57q104 0 183 116zM742 257v280l-181 -280h181z" />
    <glyph glyph-name="T.init" horiz-adv-x="702" 
d="M506 600h-43v-481q0 -31 31 -31h77v-88h-385v88h78q31 0 31 31v481h-53q-68 0 -101.5 -7t-47.5 -26q29 -3 49.5 -23t20.5 -49q0 -32 -23.5 -54t-58.5 -22q-36 0 -59 25.5t-23 65.5q0 72 59.5 121t183.5 49h264q71 0 98.5 6.5t37.5 26.5q-30 3 -50.5 23t-20.5 50
q0 32 23.5 54t58.5 22t58 -26t23 -66q0 -73 -54.5 -121.5t-173.5 -48.5z" />
    <glyph glyph-name="Tbar.init" horiz-adv-x="702" 
d="M506 600h-43v-255h128v-65h-128v-161q0 -31 31 -31h77v-88h-385v88h78q31 0 31 31v161h-124v65h124v255h-53q-68 0 -101.5 -7t-47.5 -26q29 -3 49.5 -23t20.5 -49q0 -32 -23.5 -54t-58.5 -22q-36 0 -59 25.5t-23 65.5q0 72 59.5 121t183.5 49h264q71 0 98.5 6.5
t37.5 26.5q-30 3 -50.5 23t-20.5 50q0 32 23.5 54t58.5 22t58 -26t23 -66q0 -73 -54.5 -121.5t-173.5 -48.5z" />
    <glyph glyph-name="Tcaron.init" horiz-adv-x="702" 
d="M376 730q-18 0 -39 26l-119 146l48 43l110 -75l111 75l47 -43l-119 -146q-23 -26 -39 -26zM506 600h-43v-481q0 -31 31 -31h77v-88h-385v88h78q31 0 31 31v481h-53q-68 0 -101.5 -7t-47.5 -26q29 -3 49.5 -23t20.5 -49q0 -32 -23.5 -54t-58.5 -22q-36 0 -59 25.5
t-23 65.5q0 72 59.5 121t183.5 49h264q71 0 98.5 6.5t37.5 26.5q-30 3 -50.5 23t-20.5 50q0 32 23.5 54t58.5 22t58 -26t23 -66q0 -73 -54.5 -121.5t-173.5 -48.5z" />
    <glyph glyph-name="uni0162.init" horiz-adv-x="702" 
d="M506 600h-43v-481q0 -31 31 -31h77v-88h-187l-28 -55q50 1 81.5 -21.5t31.5 -62.5q0 -43 -35 -70.5t-90 -27.5q-48 0 -101 28l19 47q37 -22 72 -22q21 0 34.5 9.5t13.5 26.5q0 23 -24.5 32.5t-66.5 2.5l-13 30l48 83h-140v88h78q31 0 31 31v481h-53q-68 0 -101.5 -7
t-47.5 -26q29 -3 49.5 -23t20.5 -49q0 -32 -23.5 -54t-58.5 -22q-36 0 -59 25.5t-23 65.5q0 72 59.5 121t183.5 49h264q71 0 98.5 6.5t37.5 26.5q-30 3 -50.5 23t-20.5 50q0 32 23.5 54t58.5 22t58 -26t23 -66q0 -73 -54.5 -121.5t-173.5 -48.5z" />
    <glyph glyph-name="uni021A.init" horiz-adv-x="702" 
d="M506 600h-43v-481q0 -31 31 -31h77v-88h-385v88h78q31 0 31 31v481h-53q-68 0 -101.5 -7t-47.5 -26q29 -3 49.5 -23t20.5 -49q0 -32 -23.5 -54t-58.5 -22q-36 0 -59 25.5t-23 65.5q0 72 59.5 121t183.5 49h264q71 0 98.5 6.5t37.5 26.5q-30 3 -50.5 23t-20.5 50
q0 32 23.5 54t58.5 22t58 -26t23 -66q0 -73 -54.5 -121.5t-173.5 -48.5zM381 -41q35 0 57.5 -23.5t22.5 -60.5q0 -51 -42 -97.5t-110 -69.5l-15 34q75 35 84 75q-36 1 -57 21t-21 50q0 31 22.5 51t58.5 20z" />
    <glyph glyph-name="R.ss03" horiz-adv-x="824" 
d="M735 269q37 0 62 -25.5t25 -78.5q0 -31 -10 -60t-31 -56t-62 -43t-97 -16q-30 0 -53 4.5t-49 16.5t-47 38t-35 65l-31 80q-26 73 -94 73h-27v-148q0 -31 31 -31h52v-88h-341v88h60q31 0 31 31v443q0 31 -31 31h-60v87h373q125 0 195 -55.5t70 -135.5q0 -82 -71 -137.5
t-147 -62.5q108 -20 136 -107l26 -73q18 -45 58 -45q53 0 69 52q-35 2 -59 22.5t-24 55.5q0 33 22.5 54t58.5 21zM364 354q60 0 94.5 35.5t34.5 88.5q0 52 -34 83.5t-95 31.5h-78v-239h78z" />
    <glyph glyph-name="Racute.ss03" horiz-adv-x="824" 
d="M537 836q-18 -21 -51 -43t-116 -72l-28 25q33 89 49.5 126t33.5 57q22 25 50 28t53 -18q26 -21 28 -50.5t-19 -52.5zM735 269q37 0 62 -25.5t25 -78.5q0 -31 -10 -60t-31 -56t-62 -43t-97 -16q-30 0 -53 4.5t-49 16.5t-47 38t-35 65l-31 80q-26 73 -94 73h-27v-148
q0 -31 31 -31h52v-88h-341v88h60q31 0 31 31v443q0 31 -31 31h-60v87h373q125 0 195 -55.5t70 -135.5q0 -82 -71 -137.5t-147 -62.5q108 -20 136 -107l26 -73q18 -45 58 -45q53 0 69 52q-35 2 -59 22.5t-24 55.5q0 33 22.5 54t58.5 21zM364 354q60 0 94.5 35.5t34.5 88.5
q0 52 -34 83.5t-95 31.5h-78v-239h78z" />
    <glyph glyph-name="Rcaron.ss03" horiz-adv-x="824" 
d="M374 730q-18 0 -39 26l-119 146l48 43l110 -75l111 75l47 -43l-119 -146q-23 -26 -39 -26zM735 269q37 0 62 -25.5t25 -78.5q0 -31 -10 -60t-31 -56t-62 -43t-97 -16q-30 0 -53 4.5t-49 16.5t-47 38t-35 65l-31 80q-26 73 -94 73h-27v-148q0 -31 31 -31h52v-88h-341v88
h60q31 0 31 31v443q0 31 -31 31h-60v87h373q125 0 195 -55.5t70 -135.5q0 -82 -71 -137.5t-147 -62.5q108 -20 136 -107l26 -73q18 -45 58 -45q53 0 69 52q-35 2 -59 22.5t-24 55.5q0 33 22.5 54t58.5 21zM364 354q60 0 94.5 35.5t34.5 88.5q0 52 -34 83.5t-95 31.5h-78
v-239h78z" />
    <glyph glyph-name="Rcommaaccent.ss03" horiz-adv-x="824" 
d="M735 269q37 0 62 -25.5t25 -78.5q0 -31 -10 -60t-31 -56t-62 -43t-97 -16q-30 0 -53 4.5t-49 16.5t-47 38t-35 65l-31 80q-26 73 -94 73h-27v-148q0 -31 31 -31h52v-88h-341v88h60q31 0 31 31v443q0 31 -31 31h-60v87h373q125 0 195 -55.5t70 -135.5q0 -82 -71 -137.5
t-147 -62.5q108 -20 136 -107l26 -73q18 -45 58 -45q53 0 69 52q-35 2 -59 22.5t-24 55.5q0 33 22.5 54t58.5 21zM364 354q60 0 94.5 35.5t34.5 88.5q0 52 -34 83.5t-95 31.5h-78v-239h78zM424 -41q35 0 57.5 -23.5t22.5 -60.5q0 -51 -42 -97.5t-110 -69.5l-15 34
q75 35 84 75q-36 1 -57 21t-21 50q0 31 22.5 51t58.5 20z" />
    <glyph glyph-name="T.ss03" horiz-adv-x="702" 
d="M506 600h-43v-481q0 -31 31 -31h77v-88h-385v88h78q31 0 31 31v481h-53q-68 0 -101.5 -7t-47.5 -26q29 -3 49.5 -23t20.5 -49q0 -32 -23.5 -54t-58.5 -22q-36 0 -59 25.5t-23 65.5q0 72 59.5 121t183.5 49h264q71 0 98.5 6.5t37.5 26.5q-30 3 -50.5 23t-20.5 50
q0 32 23.5 54t58.5 22t58 -26t23 -66q0 -73 -54.5 -121.5t-173.5 -48.5z" />
    <glyph glyph-name="Tbar.ss03" horiz-adv-x="702" 
d="M506 600h-43v-255h128v-65h-128v-161q0 -31 31 -31h77v-88h-385v88h78q31 0 31 31v161h-124v65h124v255h-53q-68 0 -101.5 -7t-47.5 -26q29 -3 49.5 -23t20.5 -49q0 -32 -23.5 -54t-58.5 -22q-36 0 -59 25.5t-23 65.5q0 72 59.5 121t183.5 49h264q71 0 98.5 6.5
t37.5 26.5q-30 3 -50.5 23t-20.5 50q0 32 23.5 54t58.5 22t58 -26t23 -66q0 -73 -54.5 -121.5t-173.5 -48.5z" />
    <glyph glyph-name="Tcaron.ss03" horiz-adv-x="702" 
d="M376 730q-18 0 -39 26l-119 146l48 43l110 -75l111 75l47 -43l-119 -146q-23 -26 -39 -26zM506 600h-43v-481q0 -31 31 -31h77v-88h-385v88h78q31 0 31 31v481h-53q-68 0 -101.5 -7t-47.5 -26q29 -3 49.5 -23t20.5 -49q0 -32 -23.5 -54t-58.5 -22q-36 0 -59 25.5
t-23 65.5q0 72 59.5 121t183.5 49h264q71 0 98.5 6.5t37.5 26.5q-30 3 -50.5 23t-20.5 50q0 32 23.5 54t58.5 22t58 -26t23 -66q0 -73 -54.5 -121.5t-173.5 -48.5z" />
    <glyph glyph-name="uni0162.ss03" horiz-adv-x="702" 
d="M506 600h-43v-481q0 -31 31 -31h77v-88h-187l-28 -55q50 1 81.5 -21.5t31.5 -62.5q0 -43 -35 -70.5t-90 -27.5q-48 0 -101 28l19 47q37 -22 72 -22q21 0 34.5 9.5t13.5 26.5q0 23 -24.5 32.5t-66.5 2.5l-13 30l48 83h-140v88h78q31 0 31 31v481h-53q-68 0 -101.5 -7
t-47.5 -26q29 -3 49.5 -23t20.5 -49q0 -32 -23.5 -54t-58.5 -22q-36 0 -59 25.5t-23 65.5q0 72 59.5 121t183.5 49h264q71 0 98.5 6.5t37.5 26.5q-30 3 -50.5 23t-20.5 50q0 32 23.5 54t58.5 22t58 -26t23 -66q0 -73 -54.5 -121.5t-173.5 -48.5z" />
    <glyph glyph-name="uni021A.ss03" horiz-adv-x="702" 
d="M506 600h-43v-481q0 -31 31 -31h77v-88h-385v88h78q31 0 31 31v481h-53q-68 0 -101.5 -7t-47.5 -26q29 -3 49.5 -23t20.5 -49q0 -32 -23.5 -54t-58.5 -22q-36 0 -59 25.5t-23 65.5q0 72 59.5 121t183.5 49h264q71 0 98.5 6.5t37.5 26.5q-30 3 -50.5 23t-20.5 50
q0 32 23.5 54t58.5 22t58 -26t23 -66q0 -73 -54.5 -121.5t-173.5 -48.5zM381 -41q35 0 57.5 -23.5t22.5 -60.5q0 -51 -42 -97.5t-110 -69.5l-15 34q75 35 84 75q-36 1 -57 21t-21 50q0 31 22.5 51t58.5 20z" />
    <glyph glyph-name="Q.ss04" horiz-adv-x="789" 
d="M393 690q158 0 256.5 -99.5t98.5 -250.5t-98.5 -250.5t-256.5 -99.5t-256 99.5t-98 250.5t98 250.5t256 99.5zM393 73q82 0 127 70t45 197t-45 197.5t-127 70.5t-127 -70.5t-45 -197.5t45 -197t127 -70zM398 -70l3 34l301 1q25 0 42 -14.5t17 -36.5q0 -25 -19.5 -40
t-48.5 -8z" />
    <glyph glyph-name="A.ss08" horiz-adv-x="774" 
d="M735 88h31v-88h-347v88h57q14 0 20.5 8.5t1.5 21.5l-26 64h-254l-26 -63q-5 -13 0.5 -22t20.5 -9h59v-88h-264v88h38q34 0 48 34l204 484l-22 54v20h166l245 -562q14 -30 48 -30zM248 257h193l-97 236z" />
    <glyph glyph-name="Aacute.ss08" horiz-adv-x="774" 
d="M549 836q-18 -21 -51 -43t-116 -72l-28 25q33 89 49.5 126t33.5 57q22 25 50 28t53 -18q26 -21 28 -50.5t-19 -52.5zM735 88h31v-88h-347v88h57q14 0 20.5 8.5t1.5 21.5l-26 64h-254l-26 -63q-5 -13 0.5 -22t20.5 -9h59v-88h-264v88h38q34 0 48 34l204 484l-22 54v20h166
l245 -562q14 -30 48 -30zM248 257h193l-97 236z" />
    <glyph glyph-name="Abreve.ss08" horiz-adv-x="774" 
d="M386 744q-74 0 -116.5 42t-46.5 126l71 11q20 -79 92 -79q70 0 89 79l72 -11q-4 -84 -46.5 -126t-114.5 -42zM735 88h31v-88h-347v88h57q14 0 20.5 8.5t1.5 21.5l-26 64h-254l-26 -63q-5 -13 0.5 -22t20.5 -9h59v-88h-264v88h38q34 0 48 34l204 484l-22 54v20h166
l245 -562q14 -30 48 -30zM248 257h193l-97 236z" />
    <glyph glyph-name="Acircumflex.ss08" horiz-adv-x="774" 
d="M386 805l-110 -75l-48 43l119 146q21 26 39 26q16 0 39 -26l119 -146l-47 -43zM735 88h31v-88h-347v88h57q14 0 20.5 8.5t1.5 21.5l-26 64h-254l-26 -63q-5 -13 0.5 -22t20.5 -9h59v-88h-264v88h38q34 0 48 34l204 484l-22 54v20h166l245 -562q14 -30 48 -30zM248 257
h193l-97 236z" />
    <glyph glyph-name="Adieresis.ss08" horiz-adv-x="774" 
d="M277 740q-38 0 -62.5 23.5t-24.5 60.5q0 38 25 62.5t62 24.5t60.5 -24t23.5 -62q0 -37 -23.5 -61t-60.5 -24zM498 740q-38 0 -62.5 23.5t-24.5 60.5q0 38 24.5 62.5t62.5 24.5q37 0 60.5 -24t23.5 -62q0 -37 -23.5 -61t-60.5 -24zM735 88h31v-88h-347v88h57
q14 0 20.5 8.5t1.5 21.5l-26 64h-254l-26 -63q-5 -13 0.5 -22t20.5 -9h59v-88h-264v88h38q34 0 48 34l204 484l-22 54v20h166l245 -562q14 -30 48 -30zM248 257h193l-97 236z" />
    <glyph glyph-name="Agrave.ss08" horiz-adv-x="774" 
d="M403 721q-83 50 -116 72t-51 43q-21 23 -19 52.5t28 50.5q25 21 53 18t50 -28q17 -20 33.5 -57t49.5 -126zM735 88h31v-88h-347v88h57q14 0 20.5 8.5t1.5 21.5l-26 64h-254l-26 -63q-5 -13 0.5 -22t20.5 -9h59v-88h-264v88h38q34 0 48 34l204 484l-22 54v20h166l245 -562
q14 -30 48 -30zM248 257h193l-97 236z" />
    <glyph glyph-name="Amacron.ss08" horiz-adv-x="774" 
d="M545 856v-98h-319v98h319zM735 88h31v-88h-347v88h57q14 0 20.5 8.5t1.5 21.5l-26 64h-254l-26 -63q-5 -13 0.5 -22t20.5 -9h59v-88h-264v88h38q34 0 48 34l204 484l-22 54v20h166l245 -562q14 -30 48 -30zM248 257h193l-97 236z" />
    <glyph glyph-name="Aogonek.ss08" horiz-adv-x="774" 
d="M735 88h31v-88h-67q-55 0 -91 -26t-36 -62q0 -43 46 -43q27 0 48 16l33 -72q-46 -44 -114 -44q-53 0 -88 29.5t-35 75.5q0 39 26 72t73 54h-142v88h57q14 0 20.5 8.5t1.5 21.5l-26 64h-254l-26 -63q-5 -13 0.5 -22t20.5 -9h59v-88h-264v88h38q34 0 48 34l204 484l-22 54
v20h166l245 -562q14 -30 48 -30zM248 257h193l-97 236z" />
    <glyph glyph-name="Aring.ss08" horiz-adv-x="774" 
d="M386 728q-55 0 -92 31.5t-37 78.5q0 49 37 81t92 32t92 -32t37 -79q0 -48 -37 -80t-92 -32zM385 893q-22 0 -36.5 -15t-14.5 -38t15 -38.5t38 -15.5q22 0 36.5 15t14.5 38t-15 38.5t-38 15.5zM735 88h31v-88h-347v88h57q14 0 20.5 8.5t1.5 21.5l-26 64h-254l-26 -63
q-5 -13 0.5 -22t20.5 -9h59v-88h-264v88h38q34 0 48 34l204 484l-22 54v20h166l245 -562q14 -30 48 -30zM248 257h193l-97 236z" />
    <glyph glyph-name="Atilde.ss08" horiz-adv-x="774" 
d="M293 805q-24 0 -33 -11.5t-17 -38.5l-59 18q5 67 35.5 109t92.5 42q36 0 89 -28.5t76 -28.5q6 0 11 1t9.5 3t7.5 4t6 6l4.5 6t3.5 7.5t3 7.5t3 8t2 7l59 -12q-3 -69 -34 -113t-95 -44q-33 0 -84 28.5t-80 28.5zM735 88h31v-88h-347v88h57q14 0 20.5 8.5t1.5 21.5l-26 64
h-254l-26 -63q-5 -13 0.5 -22t20.5 -9h59v-88h-264v88h38q34 0 48 34l204 484l-22 54v20h166l245 -562q14 -30 48 -30zM248 257h193l-97 236z" />
    <glyph glyph-name="i.loclTRK" horiz-adv-x="347" 
d="M175 565q-40 0 -66.5 25.5t-26.5 64.5q0 40 26.5 66t66.5 26q39 0 64.5 -25.5t25.5 -65.5t-25.5 -65.5t-64.5 -25.5zM284 88h46v-88h-304v88h46q31 0 31 31v270q0 31 -31 31h-46v88h227v-389q0 -31 31 -31z" />
    <glyph glyph-name="k.fina" horiz-adv-x="889" 
d="M243 119q0 -31 31 -31h21v-88h-272v88h39q31 0 31 31v443q0 31 -31 31h-39v87h220v-561zM797 276q38 0 62.5 -25t24.5 -76q0 -77 -57 -131t-168 -54q-51 0 -98 14t-77.5 31t-64.5 48t-48 47t-38 46l-65 85l141 136q10 9 6.5 16t-17.5 7h-86v88h304v-88h-36
q-18 0 -32 -5.5t-19 -10t-19 -17.5l-97 -92l95 -121q87 -110 192 -110q88 0 113 59q-39 -2 -68 19.5t-29 58.5q0 33 23 54t58 21z" />
    <glyph glyph-name="kcommaaccent.fina" horiz-adv-x="889" 
d="M243 119q0 -31 31 -31h21v-88h-272v88h39q31 0 31 31v443q0 31 -31 31h-39v87h220v-561zM797 276q38 0 62.5 -25t24.5 -76q0 -77 -57 -131t-168 -54q-51 0 -98 14t-77.5 31t-64.5 48t-48 47t-38 46l-65 85l141 136q10 9 6.5 16t-17.5 7h-86v88h304v-88h-36
q-18 0 -32 -5.5t-19 -10t-19 -17.5l-97 -92l95 -121q87 -110 192 -110q88 0 113 59q-39 -2 -68 19.5t-29 58.5q0 33 23 54t58 21zM394 -41q35 0 57.5 -23.5t22.5 -60.5q0 -51 -42 -97.5t-110 -69.5l-15 34q75 35 84 75q-36 1 -57 21t-21 50q0 31 22.5 51t58.5 20z" />
    <glyph glyph-name="a.ss01" horiz-adv-x="662" 
d="M603 420q-31 0 -31 -31v-270q0 -31 31 -31h31v-88h-217v100q-46 -110 -172 -110q-98 0 -157 72.5t-59 192.5t61 191.5t163 71.5q128 0 180 -99l34 89h167v-88h-31zM301 85q50 0 80 43.5t30 126.5t-30 126.5t-80 43.5t-80.5 -45t-30.5 -125q0 -79 30.5 -124.5t80.5 -45.5z
" />
    <glyph glyph-name="aacute.ss01" horiz-adv-x="662" 
d="M468 664q-18 -21 -51 -43t-116 -72l-28 25q33 89 49.5 126t33.5 57q22 25 50 28t53 -18q26 -21 28 -50.5t-19 -52.5zM603 420q-31 0 -31 -31v-270q0 -31 31 -31h31v-88h-217v100q-46 -110 -172 -110q-98 0 -157 72.5t-59 192.5t61 191.5t163 71.5q128 0 180 -99l34 89
h167v-88h-31zM301 85q50 0 80 43.5t30 126.5t-30 126.5t-80 43.5t-80.5 -45t-30.5 -125q0 -79 30.5 -124.5t80.5 -45.5z" />
    <glyph glyph-name="abreve.ss01" horiz-adv-x="662" 
d="M416 751l72 -11q-4 -84 -46.5 -126t-114.5 -42q-74 0 -116.5 42t-46.5 126l71 11q20 -79 92 -79q70 0 89 79zM603 420q-31 0 -31 -31v-270q0 -31 31 -31h31v-88h-217v100q-46 -110 -172 -110q-98 0 -157 72.5t-59 192.5t61 191.5t163 71.5q128 0 180 -99l34 89h167v-88
h-31zM301 85q50 0 80 43.5t30 126.5t-30 126.5t-80 43.5t-80.5 -45t-30.5 -125q0 -79 30.5 -124.5t80.5 -45.5z" />
    <glyph glyph-name="acircumflex.ss01" horiz-adv-x="662" 
d="M195 558l-48 43l119 146q21 26 39 26q16 0 39 -26l119 -146l-47 -43l-111 75zM603 420q-31 0 -31 -31v-270q0 -31 31 -31h31v-88h-217v100q-46 -110 -172 -110q-98 0 -157 72.5t-59 192.5t61 191.5t163 71.5q128 0 180 -99l34 89h167v-88h-31zM301 85q50 0 80 43.5
t30 126.5t-30 126.5t-80 43.5t-80.5 -45t-30.5 -125q0 -79 30.5 -124.5t80.5 -45.5z" />
    <glyph glyph-name="adieresis.ss01" horiz-adv-x="662" 
d="M196 568q-38 0 -62.5 23.5t-24.5 60.5q0 38 24.5 62.5t62.5 24.5q37 0 60.5 -24t23.5 -62q0 -37 -23.5 -61t-60.5 -24zM417 568q-38 0 -62.5 23.5t-24.5 60.5q0 38 25 62.5t62 24.5t60.5 -24t23.5 -62q0 -37 -23.5 -61t-60.5 -24zM603 420q-31 0 -31 -31v-270
q0 -31 31 -31h31v-88h-217v100q-46 -110 -172 -110q-98 0 -157 72.5t-59 192.5t61 191.5t163 71.5q128 0 180 -99l34 89h167v-88h-31zM301 85q50 0 80 43.5t30 126.5t-30 126.5t-80 43.5t-80.5 -45t-30.5 -125q0 -79 30.5 -124.5t80.5 -45.5z" />
    <glyph glyph-name="agrave.ss01" horiz-adv-x="662" 
d="M350 574l-28 -25q-83 50 -116 72t-51 43q-21 23 -19 52.5t28 50.5q25 21 53 18t50 -28q17 -20 33.5 -57t49.5 -126zM603 420q-31 0 -31 -31v-270q0 -31 31 -31h31v-88h-217v100q-46 -110 -172 -110q-98 0 -157 72.5t-59 192.5t61 191.5t163 71.5q128 0 180 -99l34 89h167
v-88h-31zM301 85q50 0 80 43.5t30 126.5t-30 126.5t-80 43.5t-80.5 -45t-30.5 -125q0 -79 30.5 -124.5t80.5 -45.5z" />
    <glyph glyph-name="amacron.ss01" horiz-adv-x="662" 
d="M145 684h319v-98h-319v98zM603 420q-31 0 -31 -31v-270q0 -31 31 -31h31v-88h-217v100q-46 -110 -172 -110q-98 0 -157 72.5t-59 192.5t61 191.5t163 71.5q128 0 180 -99l34 89h167v-88h-31zM301 85q50 0 80 43.5t30 126.5t-30 126.5t-80 43.5t-80.5 -45t-30.5 -125
q0 -79 30.5 -124.5t80.5 -45.5z" />
    <glyph glyph-name="aogonek.ss01" horiz-adv-x="662" 
d="M603 420q-31 0 -31 -31v-270q0 -31 31 -31h31v-88h-3q-55 0 -91 -26t-36 -62q0 -43 46 -43q27 0 48 16l33 -72q-46 -44 -114 -44q-53 0 -88 29.5t-35 75.5q0 39 26 72t73 54h-76v100q-46 -110 -172 -110q-98 0 -157 72.5t-59 192.5t61 191.5t163 71.5q128 0 180 -99
l34 89h167v-88h-31zM301 85q50 0 80 43.5t30 126.5t-30 126.5t-80 43.5t-80.5 -45t-30.5 -125q0 -79 30.5 -124.5t80.5 -45.5z" />
    <glyph glyph-name="aring.ss01" horiz-adv-x="662" 
d="M305 556q-55 0 -92 31.5t-37 78.5q0 49 37 81t92 32t92 -32t37 -79q0 -48 -37 -80t-92 -32zM306 614q22 0 36.5 15t14.5 38t-15 38.5t-38 15.5q-22 0 -36.5 -15t-14.5 -38t15 -38.5t38 -15.5zM603 420q-31 0 -31 -31v-270q0 -31 31 -31h31v-88h-217v100
q-46 -110 -172 -110q-98 0 -157 72.5t-59 192.5t61 191.5t163 71.5q128 0 180 -99l34 89h167v-88h-31zM301 85q50 0 80 43.5t30 126.5t-30 126.5t-80 43.5t-80.5 -45t-30.5 -125q0 -79 30.5 -124.5t80.5 -45.5z" />
    <glyph glyph-name="atilde.ss01" horiz-adv-x="662" 
d="M505 733q-3 -69 -34 -113t-95 -44q-33 0 -84 28.5t-80 28.5q-24 0 -33 -11.5t-17 -38.5l-59 18q5 67 35.5 109t92.5 42q35 0 88 -28.5t77 -28.5q6 0 11 1t9.5 3t7.5 4t6 6l4.5 6t3.5 7.5t3 7.5t3 8t2 7zM603 420q-31 0 -31 -31v-270q0 -31 31 -31h31v-88h-217v100
q-46 -110 -172 -110q-98 0 -157 72.5t-59 192.5t61 191.5t163 71.5q128 0 180 -99l34 89h167v-88h-31zM301 85q50 0 80 43.5t30 126.5t-30 126.5t-80 43.5t-80.5 -45t-30.5 -125q0 -79 30.5 -124.5t80.5 -45.5z" />
    <glyph glyph-name="y.ss02" horiz-adv-x="612" 
d="M343 508h209v-478q0 -95 -73.5 -157.5t-193.5 -62.5q-100 0 -162 38t-62 93q0 35 22.5 58.5t54.5 23.5q30 0 52 -20.5t22 -49.5q0 -38 -32 -57q38 -15 83 -15q63 0 99 36.5t36 105.5v131q-50 -107 -162 -107q-71 0 -116 44t-45 116v200q0 21 -25 21h-37v80h217v-261
q0 -95 75 -95q93 0 93 156v89q0 31 -31 31h-24v80z" />
    <glyph glyph-name="yacute.ss02" horiz-adv-x="612" 
d="M469 664q-18 -21 -51 -43t-116 -72l-28 25q33 89 49.5 126t33.5 57q22 25 50 28t53 -18q26 -21 28 -50.5t-19 -52.5zM343 508h209v-478q0 -95 -73.5 -157.5t-193.5 -62.5q-100 0 -162 38t-62 93q0 35 22.5 58.5t54.5 23.5q30 0 52 -20.5t22 -49.5q0 -38 -32 -57
q38 -15 83 -15q63 0 99 36.5t36 105.5v131q-50 -107 -162 -107q-71 0 -116 44t-45 116v200q0 21 -25 21h-37v80h217v-261q0 -95 75 -95q93 0 93 156v89q0 31 -31 31h-24v80z" />
    <glyph glyph-name="ycircumflex.ss02" horiz-adv-x="612" 
d="M196 558l-48 43l119 146q21 26 39 26q16 0 39 -26l119 -146l-47 -43l-111 75zM343 508h209v-478q0 -95 -73.5 -157.5t-193.5 -62.5q-100 0 -162 38t-62 93q0 35 22.5 58.5t54.5 23.5q30 0 52 -20.5t22 -49.5q0 -38 -32 -57q38 -15 83 -15q63 0 99 36.5t36 105.5v131
q-50 -107 -162 -107q-71 0 -116 44t-45 116v200q0 21 -25 21h-37v80h217v-261q0 -95 75 -95q93 0 93 156v89q0 31 -31 31h-24v80z" />
    <glyph glyph-name="ydieresis.ss02" horiz-adv-x="612" 
d="M197 568q-38 0 -62.5 23.5t-24.5 60.5q0 38 25 62.5t62 24.5t60.5 -24t23.5 -62q0 -37 -23.5 -61t-60.5 -24zM418 568q-38 0 -62.5 23.5t-24.5 60.5q0 38 24.5 62.5t62.5 24.5q37 0 60.5 -24t23.5 -62q0 -37 -23.5 -61t-60.5 -24zM343 508h209v-478q0 -95 -73.5 -157.5
t-193.5 -62.5q-100 0 -162 38t-62 93q0 35 22.5 58.5t54.5 23.5q30 0 52 -20.5t22 -49.5q0 -38 -32 -57q38 -15 83 -15q63 0 99 36.5t36 105.5v131q-50 -107 -162 -107q-71 0 -116 44t-45 116v200q0 21 -25 21h-37v80h217v-261q0 -95 75 -95q93 0 93 156v89q0 31 -31 31h-24
v80z" />
    <glyph glyph-name="ygrave.ss02" horiz-adv-x="612" 
d="M351 574l-28 -25q-83 50 -116 72t-51 43q-21 23 -19 52.5t28 50.5q25 21 53 18t50 -28q17 -20 33.5 -57t49.5 -126zM343 508h209v-478q0 -95 -73.5 -157.5t-193.5 -62.5q-100 0 -162 38t-62 93q0 35 22.5 58.5t54.5 23.5q30 0 52 -20.5t22 -49.5q0 -38 -32 -57
q38 -15 83 -15q63 0 99 36.5t36 105.5v131q-50 -107 -162 -107q-71 0 -116 44t-45 116v200q0 21 -25 21h-37v80h217v-261q0 -95 75 -95q93 0 93 156v89q0 31 -31 31h-24v80z" />
    <glyph glyph-name="g.ss06" horiz-adv-x="633" 
d="M449 508h167v-88h-32q-26 0 -31 -23v-362q0 -98 -74.5 -161.5t-197.5 -63.5q-99 0 -161 38t-62 94q0 34 23 57.5t55 23.5q30 0 51.5 -20.5t21.5 -50.5q0 -35 -29 -55q34 -17 80 -17q65 0 102 38.5t37 109.5v108q-47 -91 -163 -91q-93 0 -150 65.5t-57 166.5
q0 103 58.5 172t156.5 69q112 0 162 -88zM300 133q46 0 72.5 39.5t26.5 108.5t-26.5 109t-72.5 40t-73 -40t-27 -109t27 -108.5t73 -39.5z" />
    <glyph glyph-name="gbreve.ss06" horiz-adv-x="633" 
d="M406 751l72 -11q-4 -84 -46.5 -126t-114.5 -42q-74 0 -116.5 42t-46.5 126l71 11q20 -79 92 -79q70 0 89 79zM449 508h167v-88h-32q-26 0 -31 -23v-362q0 -98 -74.5 -161.5t-197.5 -63.5q-99 0 -161 38t-62 94q0 34 23 57.5t55 23.5q30 0 51.5 -20.5t21.5 -50.5
q0 -35 -29 -55q34 -17 80 -17q65 0 102 38.5t37 109.5v108q-47 -91 -163 -91q-93 0 -150 65.5t-57 166.5q0 103 58.5 172t156.5 69q112 0 162 -88zM300 133q46 0 72.5 39.5t26.5 108.5t-26.5 109t-72.5 40t-73 -40t-27 -109t27 -108.5t73 -39.5z" />
    <glyph glyph-name="gcommaaccent.ss06" horiz-adv-x="633" 
d="M312 549q-35 0 -57.5 23.5t-22.5 60.5q0 51 42 97.5t110 69.5l15 -34q-75 -35 -84 -75q36 -1 57 -21t21 -50q0 -31 -22.5 -51t-58.5 -20zM449 508h167v-88h-32q-26 0 -31 -23v-362q0 -98 -74.5 -161.5t-197.5 -63.5q-99 0 -161 38t-62 94q0 34 23 57.5t55 23.5
q30 0 51.5 -20.5t21.5 -50.5q0 -35 -29 -55q34 -17 80 -17q65 0 102 38.5t37 109.5v108q-47 -91 -163 -91q-93 0 -150 65.5t-57 166.5q0 103 58.5 172t156.5 69q112 0 162 -88zM300 133q46 0 72.5 39.5t26.5 108.5t-26.5 109t-72.5 40t-73 -40t-27 -109t27 -108.5t73 -39.5z
" />
    <glyph glyph-name="gdotaccent.ss06" horiz-adv-x="633" 
d="M318 565q-40 0 -66.5 25.5t-26.5 64.5q0 40 26.5 66t66.5 26q39 0 64.5 -25.5t25.5 -65.5t-25.5 -65.5t-64.5 -25.5zM449 508h167v-88h-32q-26 0 -31 -23v-362q0 -98 -74.5 -161.5t-197.5 -63.5q-99 0 -161 38t-62 94q0 34 23 57.5t55 23.5q30 0 51.5 -20.5t21.5 -50.5
q0 -35 -29 -55q34 -17 80 -17q65 0 102 38.5t37 109.5v108q-47 -91 -163 -91q-93 0 -150 65.5t-57 166.5q0 103 58.5 172t156.5 69q112 0 162 -88zM300 133q46 0 72.5 39.5t26.5 108.5t-26.5 109t-72.5 40t-73 -40t-27 -109t27 -108.5t73 -39.5z" />
    <glyph glyph-name="T_h" horiz-adv-x="1315" 
d="M1259 88h39v-88h-281v88h29q31 0 31 31v205q0 45 -20 70t-55 25q-100 0 -100 -156v-144q0 -31 31 -31h29v-88h-280v88h39q31 0 31 31v443q0 31 -31 31h-227v-474q0 -31 31 -31h78v-88h-385v88h78q31 0 31 31v481h-53q-69 0 -102 -7t-47 -26q29 -3 49.5 -23t20.5 -49
q0 -32 -23.5 -54t-58.5 -22q-36 0 -59 25.5t-23 65.5q0 72 59.5 121t183.5 49h432q70 0 97.5 6.5t38.5 26.5q-30 3 -51 23t-21 50q0 32 23.5 54t58.5 22t58 -26t23 -66q0 -58 -31 -97v-256q56 101 165 101q71 0 116 -44t45 -116v-239q0 -31 31 -31z" />
    <glyph glyph-name="f_b" horiz-adv-x="1037" 
d="M800 518q95 0 152 -74.5t57 -190.5q0 -114 -63.5 -188.5t-160.5 -74.5q-116 0 -177 91l-56 -81h-76v420h-221v-301q0 -31 31 -31h87v-88h-342v88h42q31 0 31 31v301h-83v88h52q31 0 31 28v4q0 93 71.5 154.5t183.5 61.5q80 0 133.5 -24.5t70.5 -67.5l25 16h38v-272
q53 110 174 110zM476 508v34q-34 3 -56 27.5t-22 58.5t29 52q-19 10 -49 10q-54 0 -88.5 -40t-34.5 -110v-32h221zM737 83q50 0 80 45t30 125q0 79 -30 124.5t-80 45.5t-80.5 -44t-30.5 -126q0 -83 30 -126.5t81 -43.5z" />
    <glyph glyph-name="f_f_b" horiz-adv-x="1420" 
d="M1183 518q95 0 152 -74.5t57 -190.5q0 -114 -63.5 -188.5t-160.5 -74.5q-116 0 -177 91l-56 -81h-76v420h-221v-301q0 -31 31 -31h87v-88h-342v88h42q31 0 31 31v301h-232v-301q0 -31 31 -31h87v-88h-342v88h42q31 0 31 31v301h-83v88h52q31 0 31 28v4q0 93 71.5 154.5
t183.5 61.5q141 0 191 -69q72 69 192 69q80 0 133.5 -24.5t70.5 -67.5l25 16h38v-272q53 110 174 110zM487 536v4v2h-3q-37 0 -61.5 24.5t-24.5 61.5q0 34 29 52q-19 10 -49 10q-54 0 -88.5 -40t-34.5 -110v-32h201q31 0 31 28zM859 508v34q-34 3 -56 27.5t-22 58.5t29 52
q-19 10 -49 10q-54 0 -88.5 -40t-34.5 -110v-32h221zM1120 83q50 0 80 45t30 125q0 79 -30 124.5t-80 45.5t-80.5 -44t-30.5 -126q0 -83 30 -126.5t81 -43.5z" />
    <glyph glyph-name="f_f_h" horiz-adv-x="1440" 
d="M1383 88h39v-88h-281v88h29q31 0 31 31v205q0 45 -20 70t-55 25q-100 0 -100 -156v-144q0 -31 31 -31h29v-88h-280v88h39q31 0 31 31v301h-234v-301q0 -31 31 -31h87v-88h-342v88h42q31 0 31 31v301h-236v-301q0 -31 31 -31h87v-88h-342v88h42q31 0 31 31v301h-83v88h52
q31 0 31 28v4q0 93 71.5 154.5t183.5 61.5q144 0 193 -71q73 71 194 71q82 0 136 -26t70 -71l31 21h43v-263q56 101 165 101q71 0 116 -44t45 -116v-239q0 -31 31 -31zM491 536v4v2h-7q-37 0 -61.5 24.5t-24.5 61.5q0 34 29 52q-19 10 -49 10q-54 0 -88.5 -40t-34.5 -110
v-32h205q31 0 31 28zM876 508v34h-5q-37 0 -61.5 24.5t-24.5 61.5q0 34 29 52q-19 10 -49 10q-54 0 -88.5 -40t-34.5 -110v-32h234z" />
    <glyph glyph-name="f_f_i" horiz-adv-x="1121" 
d="M1059 88h46v-88h-304v88h46q31 0 31 31v270q0 31 -31 31h-205v-301q0 -31 31 -31h87v-88h-342v88h42q31 0 31 31v301h-236v-301q0 -31 31 -31h87v-88h-342v88h42q31 0 31 31v301h-83v88h52q31 0 31 28v4q0 93 71.5 154.5t183.5 61.5q144 0 193 -71q73 71 194 71
q97 0 154 -35.5t57 -96.5q0 -35 -24.5 -58.5t-61.5 -23.5t-61.5 24.5t-24.5 61.5q0 34 29 52q-19 10 -49 10q-54 0 -88.5 -40t-34.5 -110v-32h386v-389q0 -31 31 -31zM491 536v4v2h-7q-37 0 -61.5 24.5t-24.5 61.5q0 34 29 52q-19 10 -49 10q-54 0 -88.5 -40t-34.5 -110v-32
h205q31 0 31 28z" />
    <glyph glyph-name="f_f_j" horiz-adv-x="1085" 
d="M1029 508v-508q0 -93 -56 -141.5t-146 -48.5q-60 0 -95 21.5t-35 63.5q0 30 17.5 48.5t45.5 18.5t46 -16t18 -43q0 -32 -30 -42h13q45 0 58 29t13 110v389q0 31 -31 31h-205v-301q0 -31 31 -31h87v-88h-342v88h42q31 0 31 31v301h-236v-301q0 -31 31 -31h87v-88h-342v88
h42q31 0 31 31v301h-83v88h52q31 0 31 28v4q0 93 71.5 154.5t183.5 61.5q144 0 193 -71q73 71 194 71q97 0 154 -35.5t57 -96.5q0 -35 -24.5 -58.5t-61.5 -23.5t-61.5 24.5t-24.5 61.5q0 34 29 52q-19 10 -49 10q-54 0 -88.5 -40t-34.5 -110v-32h387zM491 536v4v2h-7
q-37 0 -61.5 24.5t-24.5 61.5q0 34 29 52q-19 10 -49 10q-54 0 -88.5 -40t-34.5 -110v-32h205q31 0 31 28z" />
    <glyph glyph-name="f_f_k" horiz-adv-x="1431" 
d="M1026 119q0 -31 31 -31h21v-88h-272v88h39q31 0 31 31v301h-234v-301q0 -31 31 -31h87v-88h-342v88h42q31 0 31 31v301h-236v-301q0 -31 31 -31h87v-88h-342v88h42q31 0 31 31v301h-83v88h52q31 0 31 28v4q0 93 71.5 154.5t183.5 61.5q144 0 193 -71q73 71 194 71
q81 0 134.5 -25t69.5 -69l25 18h51v-561zM491 536v4v2h-7q-37 0 -61.5 24.5t-24.5 61.5q0 34 29 52q-19 10 -49 10q-54 0 -88.5 -40t-34.5 -110v-32h205q31 0 31 28zM876 508v34h-5q-37 0 -61.5 24.5t-24.5 61.5q0 34 29 52q-19 10 -49 10q-54 0 -88.5 -40t-34.5 -110v-32
h234zM1405 88h21v-88h-299v88h22q38 0 16 29l-114 144l144 136q9 9 6 16t-17 7h-86v88h303v-88h-36q-17 0 -31 -5.5t-19 -10t-19 -17.5l-100 -92l136 -168q12 -15 18 -21t20.5 -12t34.5 -6z" />
    <glyph glyph-name="f_f_l" horiz-adv-x="1125" 
d="M1057 88h46v-88h-304v88h46q31 0 31 31v301h-234v-301q0 -31 31 -31h87v-88h-342v88h42q31 0 31 31v301h-236v-301q0 -31 31 -31h87v-88h-342v88h42q31 0 31 31v301h-83v88h52q31 0 31 28v4q0 93 71.5 154.5t183.5 61.5q144 0 193 -71q73 71 194 71q81 0 134.5 -25
t70.5 -70l25 19h50v-561q0 -31 31 -31zM491 536v4v2h-7q-37 0 -61.5 24.5t-24.5 61.5q0 34 29 52q-19 10 -49 10q-54 0 -88.5 -40t-34.5 -110v-32h205q31 0 31 28zM876 508v34h-5q-37 0 -61.5 24.5t-24.5 61.5q0 34 29 52q-19 10 -49 10q-54 0 -88.5 -40t-34.5 -110v-32h234
z" />
    <glyph glyph-name="f_f_t" horiz-adv-x="1232" 
d="M1154 153l67 -12q-24 -151 -160 -151q-75 0 -121 45.5t-46 109.5v275h-229v-301q0 -31 31 -31h87v-88h-342v88h42q31 0 31 31v301h-259v-301q0 -31 31 -31h87v-88h-342v88h42q31 0 31 31v301h-83v88h52q31 0 31 31v3q0 87 65 135t158 48q63 0 109.5 -27.5t46.5 -78.5
q0 -35 -20 -56.5t-56 -21.5q-34 0 -55.5 21t-21.5 55q0 27 14 42q-47 -2 -68 -27t-21 -90v-34h228q31 0 31 31v3q0 87 65 135t158 48q63 0 109.5 -27.5t46.5 -78.5q0 -35 -20 -56.5t-56 -21.5q-34 0 -55.5 21t-21.5 55q0 27 14 42q-47 -2 -68 -27t-21 -90v-34h162q24 0 45 7
t34 13.5t31 27t25 29.5t27 38h56v-115h167v-88h-167v-276q0 -23 15 -37t35 -14q52 0 59 60z" />
    <glyph glyph-name="f_h" horiz-adv-x="1053" 
d="M996 88h39v-88h-281v88h29q31 0 31 31v205q0 45 -20 70t-55 25q-100 0 -100 -156v-144q0 -31 31 -31h29v-88h-280v88h39q31 0 31 31v301h-234v-301q0 -31 31 -31h87v-88h-342v88h42q31 0 31 31v301h-83v88h52q31 0 31 28v4q0 93 71.5 154.5t183.5 61.5q82 0 136 -26
t70 -71l31 21h43v-263q56 101 165 101q71 0 116 -44t45 -116v-239q0 -31 31 -31zM489 508v34h-5q-37 0 -61.5 24.5t-24.5 61.5q0 34 29 52q-19 10 -49 10q-54 0 -88.5 -40t-34.5 -110v-32h234z" />
    <glyph glyph-name="f_j" horiz-adv-x="699" 
d="M642 508v-508q0 -93 -56 -141.5t-146 -48.5q-60 0 -95 21.5t-35 63.5q0 30 17.5 48.5t45.5 18.5t46 -16t18 -43q0 -32 -30 -42h13q45 0 58 29t13 110v389q0 31 -31 31h-205v-301q0 -31 31 -31h87v-88h-342v88h42q31 0 31 31v301h-83v88h52q31 0 31 28v4q0 93 71.5 154.5
t183.5 61.5q97 0 154 -35.5t57 -96.5q0 -35 -24.5 -58.5t-61.5 -23.5t-61.5 24.5t-24.5 61.5q0 34 29 52q-19 10 -49 10q-54 0 -88.5 -40t-34.5 -110v-32h387z" />
    <glyph glyph-name="f_k" horiz-adv-x="1044" 
d="M639 119q0 -31 31 -31h21v-88h-272v88h39q31 0 31 31v301h-234v-301q0 -31 31 -31h87v-88h-342v88h42q31 0 31 31v301h-83v88h52q31 0 31 28v4q0 93 71.5 154.5t183.5 61.5q81 0 134.5 -25t69.5 -69l25 18h51v-561zM489 508v34h-5q-37 0 -61.5 24.5t-24.5 61.5
q0 34 29 52q-19 10 -49 10q-54 0 -88.5 -40t-34.5 -110v-32h234zM1018 88h21v-88h-299v88h22q38 0 16 29l-114 144l144 136q9 9 6 16t-17 7h-86v88h303v-88h-36q-17 0 -31 -5.5t-19 -10t-19 -17.5l-100 -92l136 -168q12 -15 18 -21t20.5 -12t34.5 -6z" />
    <glyph glyph-name="f_t" horiz-adv-x="822" 
d="M744 153l67 -12q-24 -151 -160 -151q-75 0 -121 45.5t-46 109.5v275h-229v-301q0 -31 31 -31h87v-88h-342v88h42q31 0 31 31v301h-83v88h52q31 0 31 31v3q0 87 65 135t158 48q63 0 109.5 -27.5t46.5 -78.5q0 -35 -20 -56.5t-56 -21.5q-34 0 -55.5 21t-21.5 55q0 27 14 42
q-47 -2 -68 -27t-21 -90v-34h162q24 0 45 7t34 13.5t31 27t25 29.5t27 38h56v-115h167v-88h-167v-276q0 -23 15 -37t35 -14q52 0 59 60z" />
    <glyph glyph-name="f_t_y" horiz-adv-x="1424" 
d="M1190 508h231v-88h-34q-33 0 -49 -32l-180 -398q-45 -100 -86.5 -140t-107.5 -40q-57 0 -96 35t-39 88q0 40 23.5 65t60.5 25q34 0 57.5 -21t23.5 -53q0 -29 -18.5 -50t-46.5 -22q14 -7 31 -7q19 0 36 8t27 16.5t22 28t16.5 29.5t14.5 33l-204 404q-15 31 -47 31h-185
v-276q0 -23 15 -37t35 -14q52 0 59 60l67 -12q-24 -151 -160 -151q-75 0 -121 45.5t-46 109.5v275h-234v-301q0 -31 31 -31h87v-88h-342v88h42q31 0 31 31v301h-83v88h52q31 0 31 31v3q0 87 65 135t158 48q63 0 109.5 -27.5t46.5 -78.5q0 -35 -20 -56.5t-56 -21.5
q-34 0 -55.5 21t-21.5 55q0 27 14 42q-47 -2 -68 -27t-21 -90v-34h167q24 0 45 7t34 13.5t31 27t25 29.5t27 38h56v-115h472v-88h-37q-15 0 -21.5 -8.5t-1.5 -20.5l106 -216l94 216q5 13 -1 21t-21 8h-40v88z" />
    <glyph glyph-name="t_y" horiz-adv-x="1009" 
d="M774 508h231v-88h-34q-33 0 -49 -32l-180 -398q-45 -100 -86.5 -140t-107.5 -40q-57 0 -96 35t-39 88q0 40 23.5 65t60.5 25q34 0 57.5 -21t23.5 -53q0 -29 -18.5 -50t-46.5 -22q14 -7 31 -7q19 0 36 8t27 16.5t22 28t16.5 29.5t14.5 33l-204 404q-15 31 -47 31h-184
v-276q0 -23 15 -37t35 -14q52 0 59 60l67 -12q-24 -151 -160 -151q-75 0 -121 45.5t-46 109.5v275h-70v88h3q24 0 45 7t34 13.5t31 27t25 29.5t27 38h56v-115h471v-88h-37q-15 0 -21.5 -8.5t-1.5 -20.5l106 -216l94 216q5 13 -1 21t-21 8h-40v88z" />
    <glyph glyph-name="a.smcp" horiz-adv-x="682" 
d="M648 86h27v-86h-323v86h48q12 0 17.5 6.5t0.5 17.5l-17 39h-204l-17 -38q-4 -11 1 -18t18 -7h48v-86h-239v86h32q32 0 43 27l198 437h118l208 -440q12 -24 41 -24zM228 221h142l-71 163z" />
    <glyph glyph-name="aacute.smcp" horiz-adv-x="682" 
d="M511 706q-18 -21 -51 -43t-116 -72l-28 25q33 89 49.5 126t33.5 57q22 25 50 28t53 -18q26 -21 28 -50.5t-19 -52.5zM648 86h27v-86h-323v86h48q12 0 17.5 6.5t0.5 17.5l-17 39h-204l-17 -38q-4 -11 1 -18t18 -7h48v-86h-239v86h32q32 0 43 27l198 437h118l208 -440
q12 -24 41 -24zM228 221h142l-71 163z" />
    <glyph glyph-name="abreve.smcp" horiz-adv-x="682" 
d="M437 793l72 -11q-4 -84 -46.5 -126t-114.5 -42q-74 0 -116.5 42t-46.5 126l71 11q20 -79 92 -79q70 0 89 79zM648 86h27v-86h-323v86h48q12 0 17.5 6.5t0.5 17.5l-17 39h-204l-17 -38q-4 -11 1 -18t18 -7h48v-86h-239v86h32q32 0 43 27l198 437h118l208 -440
q12 -24 41 -24zM228 221h142l-71 163z" />
    <glyph glyph-name="acircumflex.smcp" horiz-adv-x="682" 
d="M238 600l-48 43l119 146q21 26 39 26q16 0 39 -26l119 -146l-47 -43l-111 75zM648 86h27v-86h-323v86h48q12 0 17.5 6.5t0.5 17.5l-17 39h-204l-17 -38q-4 -11 1 -18t18 -7h48v-86h-239v86h32q32 0 43 27l198 437h118l208 -440q12 -24 41 -24zM228 221h142l-71 163z" />
    <glyph glyph-name="adieresis.smcp" horiz-adv-x="682" 
d="M239 610q-38 0 -62.5 23.5t-24.5 60.5q0 38 25 62.5t62 24.5t60.5 -24t23.5 -62q0 -37 -23.5 -61t-60.5 -24zM460 610q-38 0 -62.5 23.5t-24.5 60.5q0 38 24.5 62.5t62.5 24.5q37 0 60.5 -24t23.5 -62q0 -37 -23.5 -61t-60.5 -24zM648 86h27v-86h-323v86h48
q12 0 17.5 6.5t0.5 17.5l-17 39h-204l-17 -38q-4 -11 1 -18t18 -7h48v-86h-239v86h32q32 0 43 27l198 437h118l208 -440q12 -24 41 -24zM228 221h142l-71 163z" />
    <glyph glyph-name="agrave.smcp" horiz-adv-x="682" 
d="M393 616l-28 -25q-83 50 -116 72t-51 43q-21 23 -19 52.5t28 50.5q25 21 53 18t50 -28q17 -20 33.5 -57t49.5 -126zM648 86h27v-86h-323v86h48q12 0 17.5 6.5t0.5 17.5l-17 39h-204l-17 -38q-4 -11 1 -18t18 -7h48v-86h-239v86h32q32 0 43 27l198 437h118l208 -440
q12 -24 41 -24zM228 221h142l-71 163z" />
    <glyph glyph-name="amacron.smcp" horiz-adv-x="682" 
d="M188 726h319v-98h-319v98zM648 86h27v-86h-323v86h48q12 0 17.5 6.5t0.5 17.5l-17 39h-204l-17 -38q-4 -11 1 -18t18 -7h48v-86h-239v86h32q32 0 43 27l198 437h118l208 -440q12 -24 41 -24zM228 221h142l-71 163z" />
    <glyph glyph-name="aogonek.smcp" horiz-adv-x="682" 
d="M648 86h27v-86h-49q-55 0 -91 -26t-36 -62q0 -43 46 -43q27 0 48 16l33 -72q-46 -44 -114 -44q-53 0 -88 29.5t-35 75.5q0 39 26 72t73 54h-136v86h48q12 0 17.5 6.5t0.5 17.5l-17 39h-204l-17 -38q-4 -11 1 -18t18 -7h48v-86h-239v86h32q32 0 43 27l198 437h118
l208 -440q12 -24 41 -24zM228 221h142l-71 163z" />
    <glyph glyph-name="aring.smcp" horiz-adv-x="682" 
d="M348 598q-55 0 -92 31.5t-37 78.5q0 49 37 81t92 32t92 -32t37 -79q0 -48 -37 -80t-92 -32zM349 656q22 0 36.5 15t14.5 38t-15 38.5t-38 15.5q-22 0 -36.5 -15t-14.5 -38t15 -38.5t38 -15.5zM648 86h27v-86h-323v86h48q12 0 17.5 6.5t0.5 17.5l-17 39h-204l-17 -38
q-4 -11 1 -18t18 -7h48v-86h-239v86h32q32 0 43 27l198 437h118l208 -440q12 -24 41 -24zM228 221h142l-71 163z" />
    <glyph glyph-name="atilde.smcp" horiz-adv-x="682" 
d="M548 775q-3 -69 -34 -113t-95 -44q-33 0 -84 28.5t-80 28.5q-24 0 -33 -11.5t-17 -38.5l-59 18q5 67 35.5 109t92.5 42q36 0 89 -28.5t76 -28.5q6 0 11 1t9.5 3t7.5 4t6 6l4.5 6t3.5 7.5t3 7.5t3 8t2 7zM648 86h27v-86h-323v86h48q12 0 17.5 6.5t0.5 17.5l-17 39h-204
l-17 -38q-4 -11 1 -18t18 -7h48v-86h-239v86h32q32 0 43 27l198 437h118l208 -440q12 -24 41 -24zM228 221h142l-71 163z" />
    <glyph glyph-name="ae.smcp" horiz-adv-x="908" 
d="M771 183h91v-183h-537v86h48q26 0 26 24v46h-179l-31 -45q-6 -11 -0.5 -18t18.5 -7h49v-86h-248v86h32q22 0 43 28l231 329q8 12 3 17q0 5 -20 5h-40v85h588v-181h-92q-7 55 -17 70q-19 26 -67 26h-130v-169h62q7 0 13 2t9.5 6.5t6 8.5t4.5 12.5t3 13.5t2.5 16t2.5 16h66
v-235h-66q-1 5 -2.5 15.5t-2.5 16t-3 14t-4.5 12.5t-6 9t-9.5 7t-13 2h-62v-126h138q28 0 46.5 7t28 23t13 29t6.5 38zM269 227h130v190z" />
    <glyph glyph-name="b.smcp" horiz-adv-x="614" 
d="M427 287q74 -9 116.5 -46.5t42.5 -94.5q0 -66 -56.5 -106t-150.5 -40h-351v86h48q27 0 27 25v330q0 24 -27 24h-48v85h332q95 0 150.5 -36.5t55.5 -97.5q0 -50 -36.5 -84t-102.5 -45zM263 465v-139h39q48 0 77 20t29 54q0 31 -23.5 48t-65.5 17h-56zM312 85q116 0 116 77
q0 37 -27 59t-72 22h-66v-158h49z" />
    <glyph glyph-name="c.smcp" horiz-adv-x="641" 
d="M370 81q114 0 164 149l72 -23q-21 -107 -90 -161t-175 -54q-135 0 -218.5 81t-83.5 202q0 122 86.5 202.5t222.5 80.5q112 0 186.5 -50t74.5 -120q0 -41 -25.5 -65.5t-64.5 -24.5q-37 0 -62 23.5t-25 58.5q0 42 31 66q-31 35 -94 35q-157 0 -157 -192q0 -98 42 -153
t116 -55z" />
    <glyph glyph-name="cacute.smcp" horiz-adv-x="641" 
d="M523 706q-18 -21 -51 -43t-116 -72l-28 25q33 89 49.5 126t33.5 57q22 25 50 28t53 -18q26 -21 28 -50.5t-19 -52.5zM370 81q114 0 164 149l72 -23q-21 -107 -90 -161t-175 -54q-135 0 -218.5 81t-83.5 202q0 122 86.5 202.5t222.5 80.5q112 0 186.5 -50t74.5 -120
q0 -41 -25.5 -65.5t-64.5 -24.5q-37 0 -62 23.5t-25 58.5q0 42 31 66q-31 35 -94 35q-157 0 -157 -192q0 -98 42 -153t116 -55z" />
    <glyph glyph-name="ccaron.smcp" horiz-adv-x="641" 
d="M360 600q-18 0 -39 26l-119 146l48 43l110 -75l111 75l47 -43l-119 -146q-23 -26 -39 -26zM370 81q114 0 164 149l72 -23q-21 -107 -90 -161t-175 -54q-135 0 -218.5 81t-83.5 202q0 122 86.5 202.5t222.5 80.5q112 0 186.5 -50t74.5 -120q0 -41 -25.5 -65.5t-64.5 -24.5
q-37 0 -62 23.5t-25 58.5q0 42 31 66q-31 35 -94 35q-157 0 -157 -192q0 -98 42 -153t116 -55z" />
    <glyph glyph-name="ccedilla.smcp" horiz-adv-x="641" 
d="M370 81q114 0 164 149l72 -23q-20 -104 -86.5 -158t-167.5 -57l-24 -47q50 1 81.5 -21.5t31.5 -62.5q0 -43 -35 -70.5t-90 -27.5q-48 0 -101 28l19 47q37 -22 72 -22q21 0 34.5 9.5t13.5 26.5q0 23 -24.5 32.5t-66.5 2.5l-13 30l45 78q-116 14 -186 92t-70 188
q0 122 86.5 202.5t222.5 80.5q112 0 186.5 -50t74.5 -120q0 -41 -25.5 -65.5t-64.5 -24.5q-37 0 -62 23.5t-25 58.5q0 42 31 66q-31 35 -94 35q-157 0 -157 -192q0 -98 42 -153t116 -55z" />
    <glyph glyph-name="cdotaccent.smcp" horiz-adv-x="641" 
d="M361 607q-40 0 -66.5 25.5t-26.5 64.5q0 40 26.5 66t66.5 26q39 0 64.5 -25.5t25.5 -65.5t-25.5 -65.5t-64.5 -25.5zM370 81q114 0 164 149l72 -23q-21 -107 -90 -161t-175 -54q-135 0 -218.5 81t-83.5 202q0 122 86.5 202.5t222.5 80.5q112 0 186.5 -50t74.5 -120
q0 -41 -25.5 -65.5t-64.5 -24.5q-37 0 -62 23.5t-25 58.5q0 42 31 66q-31 35 -94 35q-157 0 -157 -192q0 -98 42 -153t116 -55z" />
    <glyph glyph-name="d.smcp" horiz-adv-x="696" 
d="M332 550q135 0 230 -77t95 -198q0 -122 -94.5 -198.5t-230.5 -76.5h-304v86h48q27 0 27 25v330q0 24 -27 24h-48v85h304zM332 86q151 0 151 189q0 190 -151 190h-69v-379h69z" />
    <glyph glyph-name="eth.smcp" horiz-adv-x="696" 
d="M332 550q135 0 230 -77t95 -198q0 -122 -94.5 -198.5t-230.5 -76.5h-304v86h48q27 0 27 25v116h-74v84h74v130q0 24 -27 24h-48v85h304zM332 86q151 0 151 189q0 190 -151 190h-69v-154h97v-84h-97v-141h69z" />
    <glyph glyph-name="dcaron.smcp" horiz-adv-x="696" 
d="M237 815l110 -75l111 75l47 -43l-119 -146q-23 -26 -39 -26q-18 0 -39 26l-119 146zM332 550q135 0 230 -77t95 -198q0 -122 -94.5 -198.5t-230.5 -76.5h-304v86h48q27 0 27 25v330q0 24 -27 24h-48v85h304zM332 86q151 0 151 189q0 190 -151 190h-69v-379h69z" />
    <glyph glyph-name="dcroat.smcp" horiz-adv-x="696" 
d="M332 550q135 0 230 -77t95 -198q0 -122 -94.5 -198.5t-230.5 -76.5h-304v86h48q27 0 27 25v116h-74v84h74v130q0 24 -27 24h-48v85h304zM332 86q151 0 151 189q0 190 -151 190h-69v-154h97v-84h-97v-141h69z" />
    <glyph glyph-name="e.smcp" horiz-adv-x="611" 
d="M473 183h92v-183h-537v86h48q27 0 27 25v330q0 24 -27 24h-48v85h519v-182h-91q-1 3 -2.5 16.5t-2.5 17t-3.5 14.5t-5 14.5t-6.5 11t-10 10t-14 6.5t-18 5.5t-23 1.5h-108v-163h47q6 0 10.5 1t8 4t6.5 5.5t5 7.5t3.5 8.5t3 10.5t2 10.5t1.5 12t2 12.5h67v-228h-67
q-1 3 -2 12t-1.5 12.5t-2 11t-3 10.5t-4 8.5t-5 8t-6 5.5t-8 4t-10.5 1h-47v-133h118q28 0 46 7.5t27 23.5t12.5 29t6.5 37z" />
    <glyph glyph-name="eacute.smcp" horiz-adv-x="611" 
d="M273 616q33 89 49.5 126t33.5 57q22 25 50 28t53 -18q26 -21 28 -50.5t-19 -52.5q-18 -21 -51 -43t-116 -72zM473 183h92v-183h-537v86h48q27 0 27 25v330q0 24 -27 24h-48v85h519v-182h-91q-1 3 -2.5 16.5t-2.5 17t-3.5 14.5t-5 14.5t-6.5 11t-10 10t-14 6.5t-18 5.5
t-23 1.5h-108v-163h47q6 0 10.5 1t8 4t6.5 5.5t5 7.5t3.5 8.5t3 10.5t2 10.5t1.5 12t2 12.5h67v-228h-67q-1 3 -2 12t-1.5 12.5t-2 11t-3 10.5t-4 8.5t-5 8t-6 5.5t-8 4t-10.5 1h-47v-133h118q28 0 46 7.5t27 23.5t12.5 29t6.5 37z" />
    <glyph glyph-name="ecaron.smcp" horiz-adv-x="611" 
d="M195 815l110 -75l111 75l47 -43l-119 -146q-23 -26 -39 -26q-18 0 -39 26l-119 146zM473 183h92v-183h-537v86h48q27 0 27 25v330q0 24 -27 24h-48v85h519v-182h-91q-1 3 -2.5 16.5t-2.5 17t-3.5 14.5t-5 14.5t-6.5 11t-10 10t-14 6.5t-18 5.5t-23 1.5h-108v-163h47
q6 0 10.5 1t8 4t6.5 5.5t5 7.5t3.5 8.5t3 10.5t2 10.5t1.5 12t2 12.5h67v-228h-67q-1 3 -2 12t-1.5 12.5t-2 11t-3 10.5t-4 8.5t-5 8t-6 5.5t-8 4t-10.5 1h-47v-133h118q28 0 46 7.5t27 23.5t12.5 29t6.5 37z" />
    <glyph glyph-name="ecircumflex.smcp" horiz-adv-x="611" 
d="M195 600l-48 43l119 146q21 26 39 26q16 0 39 -26l119 -146l-47 -43l-111 75zM473 183h92v-183h-537v86h48q27 0 27 25v330q0 24 -27 24h-48v85h519v-182h-91q-1 3 -2.5 16.5t-2.5 17t-3.5 14.5t-5 14.5t-6.5 11t-10 10t-14 6.5t-18 5.5t-23 1.5h-108v-163h47q6 0 10.5 1
t8 4t6.5 5.5t5 7.5t3.5 8.5t3 10.5t2 10.5t1.5 12t2 12.5h67v-228h-67q-1 3 -2 12t-1.5 12.5t-2 11t-3 10.5t-4 8.5t-5 8t-6 5.5t-8 4t-10.5 1h-47v-133h118q28 0 46 7.5t27 23.5t12.5 29t6.5 37z" />
    <glyph glyph-name="edieresis.smcp" horiz-adv-x="611" 
d="M196 610q-38 0 -62.5 23.5t-24.5 60.5q0 38 24.5 62.5t62.5 24.5q37 0 60.5 -24t23.5 -62q0 -37 -23.5 -61t-60.5 -24zM417 610q-38 0 -62.5 23.5t-24.5 60.5q0 38 25 62.5t62 24.5t60.5 -24t23.5 -62q0 -37 -23.5 -61t-60.5 -24zM473 183h92v-183h-537v86h48q27 0 27 25
v330q0 24 -27 24h-48v85h519v-182h-91q-1 3 -2.5 16.5t-2.5 17t-3.5 14.5t-5 14.5t-6.5 11t-10 10t-14 6.5t-18 5.5t-23 1.5h-108v-163h47q6 0 10.5 1t8 4t6.5 5.5t5 7.5t3.5 8.5t3 10.5t2 10.5t1.5 12t2 12.5h67v-228h-67q-1 3 -2 12t-1.5 12.5t-2 11t-3 10.5t-4 8.5t-5 8
t-6 5.5t-8 4t-10.5 1h-47v-133h118q28 0 46 7.5t27 23.5t12.5 29t6.5 37z" />
    <glyph glyph-name="edotaccent.smcp" horiz-adv-x="611" 
d="M306 607q-40 0 -66.5 25.5t-26.5 64.5q0 40 26.5 66t66.5 26q39 0 64.5 -25.5t25.5 -65.5t-25.5 -65.5t-64.5 -25.5zM473 183h92v-183h-537v86h48q27 0 27 25v330q0 24 -27 24h-48v85h519v-182h-91q-1 3 -2.5 16.5t-2.5 17t-3.5 14.5t-5 14.5t-6.5 11t-10 10t-14 6.5
t-18 5.5t-23 1.5h-108v-163h47q6 0 10.5 1t8 4t6.5 5.5t5 7.5t3.5 8.5t3 10.5t2 10.5t1.5 12t2 12.5h67v-228h-67q-1 3 -2 12t-1.5 12.5t-2 11t-3 10.5t-4 8.5t-5 8t-6 5.5t-8 4t-10.5 1h-47v-133h118q28 0 46 7.5t27 23.5t12.5 29t6.5 37z" />
    <glyph glyph-name="egrave.smcp" horiz-adv-x="611" 
d="M350 616l-28 -25q-83 50 -116 72t-51 43q-21 23 -19 52.5t28 50.5q25 21 53 18t50 -28q17 -20 33.5 -57t49.5 -126zM473 183h92v-183h-537v86h48q27 0 27 25v330q0 24 -27 24h-48v85h519v-182h-91q-1 3 -2.5 16.5t-2.5 17t-3.5 14.5t-5 14.5t-6.5 11t-10 10t-14 6.5
t-18 5.5t-23 1.5h-108v-163h47q6 0 10.5 1t8 4t6.5 5.5t5 7.5t3.5 8.5t3 10.5t2 10.5t1.5 12t2 12.5h67v-228h-67q-1 3 -2 12t-1.5 12.5t-2 11t-3 10.5t-4 8.5t-5 8t-6 5.5t-8 4t-10.5 1h-47v-133h118q28 0 46 7.5t27 23.5t12.5 29t6.5 37z" />
    <glyph glyph-name="emacron.smcp" horiz-adv-x="611" 
d="M145 726h319v-98h-319v98zM473 183h92v-183h-537v86h48q27 0 27 25v330q0 24 -27 24h-48v85h519v-182h-91q-1 3 -2.5 16.5t-2.5 17t-3.5 14.5t-5 14.5t-6.5 11t-10 10t-14 6.5t-18 5.5t-23 1.5h-108v-163h47q6 0 10.5 1t8 4t6.5 5.5t5 7.5t3.5 8.5t3 10.5t2 10.5t1.5 12
t2 12.5h67v-228h-67q-1 3 -2 12t-1.5 12.5t-2 11t-3 10.5t-4 8.5t-5 8t-6 5.5t-8 4t-10.5 1h-47v-133h118q28 0 46 7.5t27 23.5t12.5 29t6.5 37z" />
    <glyph glyph-name="eogonek.smcp" horiz-adv-x="611" 
d="M473 183h92v-183h-4q-55 0 -91 -26t-36 -62q0 -43 46 -43q27 0 48 16l33 -72q-46 -44 -114 -44q-53 0 -88 29.5t-35 75.5q0 39 26 72t73 54h-395v86h48q27 0 27 25v330q0 24 -27 24h-48v85h519v-182h-91q-1 3 -2.5 16.5t-2.5 17t-3.5 14.5t-5 14.5t-6.5 11t-10 10
t-14 6.5t-18 5.5t-23 1.5h-108v-163h47q6 0 10.5 1t8 4t6.5 5.5t5 7.5t3.5 8.5t3 10.5t2 10.5t1.5 12t2 12.5h67v-228h-67q-1 3 -2 12t-1.5 12.5t-2 11t-3 10.5t-4 8.5t-5 8t-6 5.5t-8 4t-10.5 1h-47v-133h118q28 0 46 7.5t27 23.5t12.5 29t6.5 37z" />
    <glyph glyph-name="f.smcp" horiz-adv-x="590" 
d="M550 550v-182h-91q0 3 -1 9q-3 24 -5.5 35t-10.5 26t-24.5 21t-42.5 6h-112v-165h58q5 0 9.5 1t8 3.5t6 5t4.5 7.5t3.5 8.5t3 10.5t2 10.5t1.5 12t2 12.5h64v-228h-64q-1 4 -2.5 15.5t-2.5 15.5t-3 13t-4.5 12.5t-6 8.5t-9 6.5t-12.5 1.5h-58v-105q0 -25 26 -25h107v-86
h-368v86h48q27 0 27 25v330q0 24 -27 24h-48v85h522z" />
    <glyph glyph-name="f_b.smcp" horiz-adv-x="1204" 
d="M28 465v85h522v-182h-91q0 3 -1 9q-3 24 -5.5 35t-10.5 26t-24.5 21t-42.5 6h-112v-165h58q5 0 9.5 1t8 3.5t6 5t4.5 7.5t3.5 8.5t3 10.5t2 10.5t1.5 12t2 12.5h64v-228h-64q-1 4 -2.5 15.5t-2.5 15.5t-3 13t-4.5 12.5t-6 8.5t-9 6.5t-12.5 1.5h-58v-105q0 -25 26 -25
h107v-86h-368v86h48q27 0 27 25v330q0 24 -27 24h-48zM1017 287q74 -9 116.5 -46.5t42.5 -94.5q0 -66 -56.5 -106t-150.5 -40h-351v86h48q27 0 27 25v330q0 24 -27 24h-48v85h332q95 0 150.5 -36.5t55.5 -97.5q0 -50 -36.5 -84t-102.5 -45zM853 465v-139h39q48 0 77 20
t29 54q0 31 -23.5 48t-65.5 17h-56zM902 85q116 0 116 77q0 37 -27 59t-72 22h-66v-158h49z" />
    <glyph glyph-name="f_f.smcp" horiz-adv-x="1180" 
d="M550 550v-182h-91q0 3 -1 9q-3 24 -5.5 35t-10.5 26t-24.5 21t-42.5 6h-112v-165h58q5 0 9.5 1t8 3.5t6 5t4.5 7.5t3.5 8.5t3 10.5t2 10.5t1.5 12t2 12.5h64v-228h-64q-1 4 -2.5 15.5t-2.5 15.5t-3 13t-4.5 12.5t-6 8.5t-9 6.5t-12.5 1.5h-58v-105q0 -25 26 -25h107v-86
h-368v86h48q27 0 27 25v330q0 24 -27 24h-48v85h522zM1140 550v-182h-91q0 3 -1 9q-3 24 -5.5 35t-10.5 26t-24.5 21t-42.5 6h-112v-165h58q5 0 9.5 1t8 3.5t6 5t4.5 7.5t3.5 8.5t3 10.5t2 10.5t1.5 12t2 12.5h64v-228h-64q-1 4 -2.5 15.5t-2.5 15.5t-3 13t-4.5 12.5t-6 8.5
t-9 6.5t-12.5 1.5h-58v-105q0 -25 26 -25h107v-86h-368v86h48q27 0 27 25v330q0 24 -27 24h-48v85h522z" />
    <glyph glyph-name="f_f_b.smcp" horiz-adv-x="1794" 
d="M28 465v85h522v-182h-91q0 3 -1 9q-3 24 -5.5 35t-10.5 26t-24.5 21t-42.5 6h-112v-165h58q5 0 9.5 1t8 3.5t6 5t4.5 7.5t3.5 8.5t3 10.5t2 10.5t1.5 12t2 12.5h64v-228h-64q-1 4 -2.5 15.5t-2.5 15.5t-3 13t-4.5 12.5t-6 8.5t-9 6.5t-12.5 1.5h-58v-105q0 -25 26 -25
h107v-86h-368v86h48q27 0 27 25v330q0 24 -27 24h-48zM618 465v85h522v-182h-91q0 3 -1 9q-3 24 -5.5 35t-10.5 26t-24.5 21t-42.5 6h-112v-165h58q5 0 9.5 1t8 3.5t6 5t4.5 7.5t3.5 8.5t3 10.5t2 10.5t1.5 12t2 12.5h64v-228h-64q-1 4 -2.5 15.5t-2.5 15.5t-3 13t-4.5 12.5
t-6 8.5t-9 6.5t-12.5 1.5h-58v-105q0 -25 26 -25h107v-86h-368v86h48q27 0 27 25v330q0 24 -27 24h-48zM1607 287q74 -9 116.5 -46.5t42.5 -94.5q0 -66 -56.5 -106t-150.5 -40h-351v86h48q27 0 27 25v330q0 24 -27 24h-48v85h332q95 0 150.5 -36.5t55.5 -97.5
q0 -50 -36.5 -84t-102.5 -45zM1443 465v-139h39q48 0 77 20t29 54q0 31 -23.5 48t-65.5 17h-56zM1492 85q116 0 116 77q0 37 -27 59t-72 22h-66v-158h49z" />
    <glyph glyph-name="f_f_f.smcp" horiz-adv-x="1770" 
d="M550 550v-182h-91q0 3 -1 9q-3 24 -5.5 35t-10.5 26t-24.5 21t-42.5 6h-112v-165h58q5 0 9.5 1t8 3.5t6 5t4.5 7.5t3.5 8.5t3 10.5t2 10.5t1.5 12t2 12.5h64v-228h-64q-1 4 -2.5 15.5t-2.5 15.5t-3 13t-4.5 12.5t-6 8.5t-9 6.5t-12.5 1.5h-58v-105q0 -25 26 -25h107v-86
h-368v86h48q27 0 27 25v330q0 24 -27 24h-48v85h522zM1140 550v-182h-91q0 3 -1 9q-3 24 -5.5 35t-10.5 26t-24.5 21t-42.5 6h-112v-165h58q5 0 9.5 1t8 3.5t6 5t4.5 7.5t3.5 8.5t3 10.5t2 10.5t1.5 12t2 12.5h64v-228h-64q-1 4 -2.5 15.5t-2.5 15.5t-3 13t-4.5 12.5t-6 8.5
t-9 6.5t-12.5 1.5h-58v-105q0 -25 26 -25h107v-86h-368v86h48q27 0 27 25v330q0 24 -27 24h-48v85h522zM1730 550v-182h-91q0 3 -1 9q-3 24 -5.5 35t-10.5 26t-24.5 21t-42.5 6h-112v-165h58q5 0 9.5 1t8 3.5t6 5t4.5 7.5t3.5 8.5t3 10.5t2 10.5t1.5 12t2 12.5h64v-228h-64
q-1 4 -2.5 15.5t-2.5 15.5t-3 13t-4.5 12.5t-6 8.5t-9 6.5t-12.5 1.5h-58v-105q0 -25 26 -25h107v-86h-368v86h48q27 0 27 25v330q0 24 -27 24h-48v85h522z" />
    <glyph glyph-name="f_f_h.smcp" horiz-adv-x="1913" 
d="M28 465v85h522v-182h-91q0 3 -1 9q-3 24 -5.5 35t-10.5 26t-24.5 21t-42.5 6h-112v-165h58q5 0 9.5 1t8 3.5t6 5t4.5 7.5t3.5 8.5t3 10.5t2 10.5t1.5 12t2 12.5h64v-228h-64q-1 4 -2.5 15.5t-2.5 15.5t-3 13t-4.5 12.5t-6 8.5t-9 6.5t-12.5 1.5h-58v-105q0 -25 26 -25
h107v-86h-368v86h48q27 0 27 25v330q0 24 -27 24h-48zM618 465v85h522v-182h-91q0 3 -1 9q-3 24 -5.5 35t-10.5 26t-24.5 21t-42.5 6h-112v-165h58q5 0 9.5 1t8 3.5t6 5t4.5 7.5t3.5 8.5t3 10.5t2 10.5t1.5 12t2 12.5h64v-228h-64q-1 4 -2.5 15.5t-2.5 15.5t-3 13t-4.5 12.5
t-6 8.5t-9 6.5t-12.5 1.5h-58v-105q0 -25 26 -25h107v-86h-368v86h48q27 0 27 25v330q0 24 -27 24h-48zM1838 465q-26 0 -26 -24v-330q0 -25 26 -25h48v-86h-306v86h44q27 0 27 25v89h-208v-89q0 -25 26 -25h45v-86h-306v86h48q27 0 27 25v330q0 24 -27 24h-48v85h306v-85
h-45q-26 0 -26 -24v-159h208v159q0 24 -27 24h-44v85h306v-85h-48z" />
    <glyph glyph-name="f_f_i.smcp" horiz-adv-x="1562" 
d="M550 550v-182h-91q0 3 -1 9q-3 24 -5.5 35t-10.5 26t-24.5 21t-42.5 6h-112v-165h58q5 0 9.5 1t8 3.5t6 5t4.5 7.5t3.5 8.5t3 10.5t2 10.5t1.5 12t2 12.5h64v-228h-64q-1 4 -2.5 15.5t-2.5 15.5t-3 13t-4.5 12.5t-6 8.5t-9 6.5t-12.5 1.5h-58v-105q0 -25 26 -25h107v-86
h-368v86h48q27 0 27 25v330q0 24 -27 24h-48v85h522zM1140 550v-182h-91q0 3 -1 9q-3 24 -5.5 35t-10.5 26t-24.5 21t-42.5 6h-112v-165h58q5 0 9.5 1t8 3.5t6 5t4.5 7.5t3.5 8.5t3 10.5t2 10.5t1.5 12t2 12.5h64v-228h-64q-1 4 -2.5 15.5t-2.5 15.5t-3 13t-4.5 12.5t-6 8.5
t-9 6.5t-12.5 1.5h-58v-105q0 -25 26 -25h107v-86h-368v86h48q27 0 27 25v330q0 24 -27 24h-48v85h522zM1479 465q-27 0 -27 -25v-330q0 -24 27 -24h53v-86h-322v86h53q27 0 27 24v330q0 25 -27 25h-53v85h322v-85h-53z" />
    <glyph glyph-name="f_f_j.smcp" horiz-adv-x="1655" 
d="M28 465v85h522v-182h-91q0 3 -1 9q-3 24 -5.5 35t-10.5 26t-24.5 21t-42.5 6h-112v-165h58q5 0 9.5 1t8 3.5t6 5t4.5 7.5t3.5 8.5t3 10.5t2 10.5t1.5 12t2 12.5h64v-228h-64q-1 4 -2.5 15.5t-2.5 15.5t-3 13t-4.5 12.5t-6 8.5t-9 6.5t-12.5 1.5h-58v-105q0 -25 26 -25
h107v-86h-368v86h48q27 0 27 25v330q0 24 -27 24h-48zM1140 550v-182h-91q0 3 -1 9q-3 24 -5.5 35t-10.5 26t-24.5 21t-42.5 6h-112v-165h58q5 0 9.5 1t8 3.5t6 5t4.5 7.5t3.5 8.5t3 10.5t2 10.5t1.5 12t2 12.5h64v-228h-64q-1 4 -2.5 15.5t-2.5 15.5t-3 13t-4.5 12.5
t-6 8.5t-9 6.5t-12.5 1.5h-58v-105q0 -25 26 -25h107v-86h-368v86h48q27 0 27 25v330q0 24 -27 24h-48v85h522zM1246 550h398v-85h-49q-26 0 -26 -25v-270q0 -76 -59 -127t-164 -51q-97 0 -153 42.5t-56 109.5q0 45 25 68.5t62 23.5t60.5 -21.5t23.5 -55.5q0 -55 -51 -80
q30 -4 48 -4q52 0 76.5 29.5t24.5 65.5v270q0 25 -26 25h-134v85z" />
    <glyph glyph-name="f_f_k.smcp" horiz-adv-x="1887" 
d="M550 550v-182h-91q0 3 -1 9q-3 24 -5.5 35t-10.5 26t-24.5 21t-42.5 6h-112v-165h58q5 0 9.5 1t8 3.5t6 5t4.5 7.5t3.5 8.5t3 10.5t2 10.5t1.5 12t2 12.5h64v-228h-64q-1 4 -2.5 15.5t-2.5 15.5t-3 13t-4.5 12.5t-6 8.5t-9 6.5t-12.5 1.5h-58v-105q0 -25 26 -25h107v-86
h-368v86h48q27 0 27 25v330q0 24 -27 24h-48v85h522zM1140 550v-182h-91q0 3 -1 9q-3 24 -5.5 35t-10.5 26t-24.5 21t-42.5 6h-112v-165h58q5 0 9.5 1t8 3.5t6 5t4.5 7.5t3.5 8.5t3 10.5t2 10.5t1.5 12t2 12.5h64v-228h-64q-1 4 -2.5 15.5t-2.5 15.5t-3 13t-4.5 12.5t-6 8.5
t-9 6.5t-12.5 1.5h-58v-105q0 -25 26 -25h107v-86h-368v86h48q27 0 27 25v330q0 24 -27 24h-48v85h522zM1208 0v86h47q27 0 27 24v331q0 24 -27 24h-47v85h308v-85h-44q-27 0 -27 -24v-331q0 -24 27 -24h24v-86h-288zM1546 0v86h34q25 0 8 23l-124 159l186 174q10 10 8 16.5
t-14 6.5h-61v85h284v-85h-31q-43 0 -69 -24l-140 -131l152 -194q23 -30 66 -30h37v-86h-336z" />
    <glyph glyph-name="f_f_l.smcp" horiz-adv-x="1766" 
d="M550 550v-182h-91q0 3 -1 9q-3 24 -5.5 35t-10.5 26t-24.5 21t-42.5 6h-112v-165h58q5 0 9.5 1t8 3.5t6 5t4.5 7.5t3.5 8.5t3 10.5t2 10.5t1.5 12t2 12.5h64v-228h-64q-1 4 -2.5 15.5t-2.5 15.5t-3 13t-4.5 12.5t-6 8.5t-9 6.5t-12.5 1.5h-58v-105q0 -25 26 -25h107v-86
h-368v86h48q27 0 27 25v330q0 24 -27 24h-48v85h522zM1140 550v-182h-91q0 3 -1 9q-3 24 -5.5 35t-10.5 26t-24.5 21t-42.5 6h-112v-165h58q5 0 9.5 1t8 3.5t6 5t4.5 7.5t3.5 8.5t3 10.5t2 10.5t1.5 12t2 12.5h64v-228h-64q-1 4 -2.5 15.5t-2.5 15.5t-3 13t-4.5 12.5t-6 8.5
t-9 6.5t-12.5 1.5h-58v-105q0 -25 26 -25h107v-86h-368v86h48q27 0 27 25v330q0 24 -27 24h-48v85h522zM1640 261h86v-261h-518v86h47q27 0 27 24v331q0 24 -27 24h-47v85h347v-85h-83q-27 0 -27 -24v-355h86q55 0 79.5 45.5t29.5 129.5z" />
    <glyph glyph-name="f_f_t.smcp" horiz-adv-x="1803" 
d="M550 550v-182h-91q0 3 -1 9q-3 24 -5.5 35t-10.5 26t-24.5 21t-42.5 6h-112v-165h58q5 0 9.5 1t8 3.5t6 5t4.5 7.5t3.5 8.5t3 10.5t2 10.5t1.5 12t2 12.5h64v-228h-64q-1 4 -2.5 15.5t-2.5 15.5t-3 13t-4.5 12.5t-6 8.5t-9 6.5t-12.5 1.5h-58v-105q0 -25 26 -25h107v-86
h-368v86h48q27 0 27 25v330q0 24 -27 24h-48v85h522zM1140 550v-182h-91q0 3 -1 9q-3 24 -5.5 35t-10.5 26t-24.5 21t-42.5 6h-112v-165h58q5 0 9.5 1t8 3.5t6 5t4.5 7.5t3.5 8.5t3 10.5t2 10.5t1.5 12t2 12.5h64v-228h-64q-1 4 -2.5 15.5t-2.5 15.5t-3 13t-4.5 12.5t-6 8.5
t-9 6.5t-12.5 1.5h-58v-105q0 -25 26 -25h107v-86h-368v86h48q27 0 27 25v330q0 24 -27 24h-48v85h522zM1772 550v-229h-84q-7 88 -16 110q-17 43 -70 43h-29v-364q0 -24 27 -24h62v-86h-341v86h62q26 0 26 24v364h-29q-26 0 -42.5 -9.5t-24 -29t-11 -41.5t-5.5 -55
q-1 -12 -1 -18h-85v229h561z" />
    <glyph glyph-name="f_h.smcp" horiz-adv-x="1323" 
d="M28 465v85h522v-182h-91q0 3 -1 9q-3 24 -5.5 35t-10.5 26t-24.5 21t-42.5 6h-112v-165h58q5 0 9.5 1t8 3.5t6 5t4.5 7.5t3.5 8.5t3 10.5t2 10.5t1.5 12t2 12.5h64v-228h-64q-1 4 -2.5 15.5t-2.5 15.5t-3 13t-4.5 12.5t-6 8.5t-9 6.5t-12.5 1.5h-58v-105q0 -25 26 -25
h107v-86h-368v86h48q27 0 27 25v330q0 24 -27 24h-48zM1248 465q-26 0 -26 -24v-330q0 -25 26 -25h48v-86h-306v86h44q27 0 27 25v89h-208v-89q0 -25 26 -25h45v-86h-306v86h48q27 0 27 25v330q0 24 -27 24h-48v85h306v-85h-45q-26 0 -26 -24v-159h208v159q0 24 -27 24h-44
v85h306v-85h-48z" />
    <glyph glyph-name="f_j.smcp" horiz-adv-x="1065" 
d="M550 550v-182h-91q0 3 -1 9q-3 24 -5.5 35t-10.5 26t-24.5 21t-42.5 6h-112v-165h58q5 0 9.5 1t8 3.5t6 5t4.5 7.5t3.5 8.5t3 10.5t2 10.5t1.5 12t2 12.5h64v-228h-64q-1 4 -2.5 15.5t-2.5 15.5t-3 13t-4.5 12.5t-6 8.5t-9 6.5t-12.5 1.5h-58v-105q0 -25 26 -25h107v-86
h-368v86h48q27 0 27 25v330q0 24 -27 24h-48v85h522zM656 550h398v-85h-49q-26 0 -26 -25v-270q0 -76 -59 -127t-164 -51q-97 0 -153 42.5t-56 109.5q0 45 25 68.5t62 23.5t60.5 -21.5t23.5 -55.5q0 -55 -51 -80q30 -4 48 -4q52 0 76.5 29.5t24.5 65.5v270q0 25 -26 25h-134
v85z" />
    <glyph glyph-name="f_k.smcp" horiz-adv-x="1297" 
d="M550 550v-182h-91q0 3 -1 9q-3 24 -5.5 35t-10.5 26t-24.5 21t-42.5 6h-112v-165h58q5 0 9.5 1t8 3.5t6 5t4.5 7.5t3.5 8.5t3 10.5t2 10.5t1.5 12t2 12.5h64v-228h-64q-1 4 -2.5 15.5t-2.5 15.5t-3 13t-4.5 12.5t-6 8.5t-9 6.5t-12.5 1.5h-58v-105q0 -25 26 -25h107v-86
h-368v86h48q27 0 27 25v330q0 24 -27 24h-48v85h522zM618 0v86h47q27 0 27 24v331q0 24 -27 24h-47v85h308v-85h-44q-27 0 -27 -24v-331q0 -24 27 -24h24v-86h-288zM956 0v86h34q25 0 8 23l-124 159l186 174q10 10 8 16.5t-14 6.5h-61v85h284v-85h-31q-43 0 -69 -24
l-140 -131l152 -194q23 -30 66 -30h37v-86h-336z" />
    <glyph glyph-name="f_t.smcp" horiz-adv-x="1213" 
d="M550 550v-182h-91q0 3 -1 9q-3 24 -5.5 35t-10.5 26t-24.5 21t-42.5 6h-112v-165h58q5 0 9.5 1t8 3.5t6 5t4.5 7.5t3.5 8.5t3 10.5t2 10.5t1.5 12t2 12.5h64v-228h-64q-1 4 -2.5 15.5t-2.5 15.5t-3 13t-4.5 12.5t-6 8.5t-9 6.5t-12.5 1.5h-58v-105q0 -25 26 -25h107v-86
h-368v86h48q27 0 27 25v330q0 24 -27 24h-48v85h522zM1182 550v-229h-84q-7 88 -16 110q-17 43 -70 43h-29v-364q0 -24 27 -24h62v-86h-341v86h62q26 0 26 24v364h-29q-26 0 -42.5 -9.5t-24 -29t-11 -41.5t-5.5 -55q-1 -12 -1 -18h-85v229h561z" />
    <glyph glyph-name="f_t_y.smcp" horiz-adv-x="1814" 
d="M28 465v85h522v-182h-91q0 3 -1 9q-3 24 -5.5 35t-10.5 26t-24.5 21t-42.5 6h-112v-165h58q5 0 9.5 1t8 3.5t6 5t4.5 7.5t3.5 8.5t3 10.5t2 10.5t1.5 12t2 12.5h64v-228h-64q-1 4 -2.5 15.5t-2.5 15.5t-3 13t-4.5 12.5t-6 8.5t-9 6.5t-12.5 1.5h-58v-105q0 -25 26 -25
h107v-86h-368v86h48q27 0 27 25v330q0 24 -27 24h-48zM621 321v229h561v-229h-84q-7 88 -16 110q-17 43 -70 43h-29v-364q0 -24 27 -24h62v-86h-341v86h62q26 0 26 24v364h-29q-26 0 -42.5 -9.5t-24 -29t-11 -41.5t-5.5 -55q-1 -12 -1 -18h-85zM1583 550h231v-85h-32
q-32 0 -49 -25l-134 -208v-122q0 -24 26 -24h69v-86h-353v86h68q26 0 26 24v84l-147 249q-14 22 -43 22h-32v85h307v-85h-35q-30 0 -16 -24l84 -142l88 144q14 22 -14 22h-44v85z" />
    <glyph glyph-name="fi.smcp" horiz-adv-x="972" 
d="M550 550v-182h-91q0 3 -1 9q-3 24 -5.5 35t-10.5 26t-24.5 21t-42.5 6h-112v-165h58q5 0 9.5 1t8 3.5t6 5t4.5 7.5t3.5 8.5t3 10.5t2 10.5t1.5 12t2 12.5h64v-228h-64q-1 4 -2.5 15.5t-2.5 15.5t-3 13t-4.5 12.5t-6 8.5t-9 6.5t-12.5 1.5h-58v-105q0 -25 26 -25h107v-86
h-368v86h48q27 0 27 25v330q0 24 -27 24h-48v85h522zM889 465q-27 0 -27 -25v-330q0 -24 27 -24h53v-86h-322v86h53q27 0 27 24v330q0 25 -27 25h-53v85h322v-85h-53z" />
    <glyph glyph-name="fl.smcp" horiz-adv-x="1176" 
d="M550 550v-182h-91q0 3 -1 9q-3 24 -5.5 35t-10.5 26t-24.5 21t-42.5 6h-112v-165h58q5 0 9.5 1t8 3.5t6 5t4.5 7.5t3.5 8.5t3 10.5t2 10.5t1.5 12t2 12.5h64v-228h-64q-1 4 -2.5 15.5t-2.5 15.5t-3 13t-4.5 12.5t-6 8.5t-9 6.5t-12.5 1.5h-58v-105q0 -25 26 -25h107v-86
h-368v86h48q27 0 27 25v330q0 24 -27 24h-48v85h522zM1050 261h86v-261h-518v86h47q27 0 27 24v331q0 24 -27 24h-47v85h347v-85h-83q-27 0 -27 -24v-355h86q55 0 79.5 45.5t29.5 129.5z" />
    <glyph glyph-name="g.smcp" horiz-adv-x="686" 
d="M334 268h328v-80h-41q-26 0 -26 -25v-163h-33l-61 46q-60 -54 -163 -54q-133 0 -216 81t-83 203t85.5 202t220.5 80q113 0 186.5 -47t73.5 -114q0 -39 -25 -63t-62 -24q-36 0 -59.5 22t-23.5 56q0 36 27 61q-34 32 -97 32q-160 0 -160 -198q0 -94 43 -150t117 -56
q48 0 83 20v66q0 25 -27 25h-87v80z" />
    <glyph glyph-name="gbreve.smcp" horiz-adv-x="686" 
d="M447 793l72 -11q-4 -84 -46.5 -126t-114.5 -42q-74 0 -116.5 42t-46.5 126l71 11q20 -79 92 -79q70 0 89 79zM334 268h328v-80h-41q-26 0 -26 -25v-163h-33l-61 46q-60 -54 -163 -54q-133 0 -216 81t-83 203t85.5 202t220.5 80q113 0 186.5 -47t73.5 -114q0 -39 -25 -63
t-62 -24q-36 0 -59.5 22t-23.5 56q0 36 27 61q-34 32 -97 32q-160 0 -160 -198q0 -94 43 -150t117 -56q48 0 83 20v66q0 25 -27 25h-87v80z" />
    <glyph glyph-name="gcommaaccent.smcp" horiz-adv-x="686" 
d="M334 268h328v-80h-41q-26 0 -26 -25v-163h-33l-61 46q-60 -54 -163 -54q-133 0 -216 81t-83 203t85.5 202t220.5 80q113 0 186.5 -47t73.5 -114q0 -39 -25 -63t-62 -24q-36 0 -59.5 22t-23.5 56q0 36 27 61q-34 32 -97 32q-160 0 -160 -198q0 -94 43 -150t117 -56
q48 0 83 20v66q0 25 -27 25h-87v80zM352 -41q35 0 57.5 -23.5t22.5 -60.5q0 -51 -42 -97.5t-110 -69.5l-15 34q75 35 84 75q-36 1 -57 21t-21 50q0 31 22.5 51t58.5 20z" />
    <glyph glyph-name="gdotaccent.smcp" horiz-adv-x="686" 
d="M359 607q-40 0 -66.5 25.5t-26.5 64.5q0 40 26.5 66t66.5 26q39 0 64.5 -25.5t25.5 -65.5t-25.5 -65.5t-64.5 -25.5zM334 268h328v-80h-41q-26 0 -26 -25v-163h-33l-61 46q-60 -54 -163 -54q-133 0 -216 81t-83 203t85.5 202t220.5 80q113 0 186.5 -47t73.5 -114
q0 -39 -25 -63t-62 -24q-36 0 -59.5 22t-23.5 56q0 36 27 61q-34 32 -97 32q-160 0 -160 -198q0 -94 43 -150t117 -56q48 0 83 20v66q0 25 -27 25h-87v80z" />
    <glyph glyph-name="h.smcp" horiz-adv-x="733" 
d="M658 465q-26 0 -26 -24v-330q0 -25 26 -25h48v-86h-306v86h44q27 0 27 25v89h-208v-89q0 -25 26 -25h45v-86h-306v86h48q27 0 27 25v330q0 24 -27 24h-48v85h306v-85h-45q-26 0 -26 -24v-159h208v159q0 24 -27 24h-44v85h306v-85h-48z" />
    <glyph glyph-name="hbar.smcp" horiz-adv-x="733" 
d="M658 465q-26 0 -26 -24v-39h63v-54h-63v-237q0 -25 26 -25h48v-86h-306v86h44q27 0 27 25v89h-208v-89q0 -25 26 -25h45v-86h-306v86h48q27 0 27 25v237h-64v54h64v39q0 24 -27 24h-48v85h306v-85h-45q-26 0 -26 -24v-39h208v39q0 24 -27 24h-44v85h306v-85h-48zM471 282
v66h-208v-66h208z" />
    <glyph glyph-name="i.smcp" horiz-adv-x="382" 
d="M299 465q-27 0 -27 -25v-330q0 -24 27 -24h53v-86h-322v86h53q27 0 27 24v330q0 25 -27 25h-53v85h322v-85h-53z" />
    <glyph glyph-name="iacute.smcp" horiz-adv-x="382" 
d="M159 616q33 89 49.5 126t33.5 57q22 25 50 28t53 -18q26 -21 28 -50.5t-19 -52.5q-18 -21 -51 -43t-116 -72zM299 465q-27 0 -27 -25v-330q0 -24 27 -24h53v-86h-322v86h53q27 0 27 24v330q0 25 -27 25h-53v85h322v-85h-53z" />
    <glyph glyph-name="icircumflex.smcp" horiz-adv-x="382" 
d="M81 600l-48 43l119 146q21 26 39 26q16 0 39 -26l119 -146l-47 -43l-111 75zM299 465q-27 0 -27 -25v-330q0 -24 27 -24h53v-86h-322v86h53q27 0 27 24v330q0 25 -27 25h-53v85h322v-85h-53z" />
    <glyph glyph-name="idieresis.smcp" horiz-adv-x="382" 
d="M82 610q-38 0 -62.5 23.5t-24.5 60.5q0 38 24.5 62.5t62.5 24.5q37 0 60.5 -24t23.5 -62q0 -37 -23.5 -61t-60.5 -24zM303 610q-38 0 -62.5 23.5t-24.5 60.5q0 38 25 62.5t62 24.5t60.5 -24t23.5 -62q0 -37 -23.5 -61t-60.5 -24zM299 465q-27 0 -27 -25v-330
q0 -24 27 -24h53v-86h-322v86h53q27 0 27 24v330q0 25 -27 25h-53v85h322v-85h-53z" />
    <glyph glyph-name="i.loclTRK.smcp" horiz-adv-x="382" 
d="M192 607q-40 0 -66.5 25.5t-26.5 64.5q0 40 26.5 66t66.5 26q39 0 64.5 -25.5t25.5 -65.5t-25.5 -65.5t-64.5 -25.5zM299 465q-27 0 -27 -25v-330q0 -24 27 -24h53v-86h-322v86h53q27 0 27 24v330q0 25 -27 25h-53v85h322v-85h-53z" />
    <glyph glyph-name="igrave.smcp" horiz-adv-x="382" 
d="M236 616l-28 -25q-83 50 -116 72t-51 43q-21 23 -19 52.5t28 50.5q25 21 53 18t50 -28q17 -20 33.5 -57t49.5 -126zM299 465q-27 0 -27 -25v-330q0 -24 27 -24h53v-86h-322v86h53q27 0 27 24v330q0 25 -27 25h-53v85h322v-85h-53z" />
    <glyph glyph-name="imacron.smcp" horiz-adv-x="382" 
d="M31 726h319v-98h-319v98zM299 465q-27 0 -27 -25v-330q0 -24 27 -24h53v-86h-322v86h53q27 0 27 24v330q0 25 -27 25h-53v85h322v-85h-53z" />
    </font>
</defs>
</svg>
