<?xml version="1.0" standalone="no"?>
<!DOCTYPE svg PUBLIC "-//W3C//DTD SVG 1.1//EN" "http://www.w3.org/Graphics/SVG/1.1/DTD/svg11.dtd" >
<svg xmlns="http://www.w3.org/2000/svg" xmlns:xlink="http://www.w3.org/1999/xlink" version="1.1">
<metadata>
Created by FontForge 20170731 at Thu Oct  6 08:27:58 2016
 By Aleksey,,,
Copyright (c) 2016 by Rene' Bieder. All rights reserved.
</metadata>
<defs>
<font id="Sagona-ExtraLightItalic" horiz-adv-x="600" >
  <font-face 
    font-family="Sagona ExtraLight"
    font-weight="300"
    font-style="italic"
    font-stretch="normal"
    units-per-em="1000"
    panose-1="2 1 0 4 4 1 1 1 1 3"
    ascent="800"
    descent="-200"
    x-height="506"
    cap-height="680"
    bbox="-281 -249 1734 926"
    underline-thickness="50"
    underline-position="-250"
    slope="-16"
    unicode-range="U+0020-FB02"
  />
<missing-glyph horiz-adv-x="701" 
d="M238 680h471l-195 -680h-471zM263 645l-168 -587l541 587h-373zM489 35l169 588l-542 -588h373z" />
    <glyph glyph-name="arrowleft" unicode="&#x3c;&#x2014;" horiz-adv-x="849" 
d="M339 574l12 -11l-167 -206q62 1 123.5 2.5t100.5 2.5t87 1h310v-40h-310q-48 0 -87 1t-100.5 2.5t-123.5 2.5l167 -204l-12 -12l-270 220v20z" />
    <glyph glyph-name="arrowright" unicode="&#x2d;&#x3e;" horiz-adv-x="849" 
d="M537 574l270 -221v-20l-270 -220l-12 12l167 204q-62 -1 -123.5 -2.5t-100.5 -2.5t-87 -1h-310v40h310q48 0 87 -1t100.5 -2.5t123.5 -2.5l-167 206z" />
    <glyph glyph-name="arrowboth" unicode="&#x3c;&#x2014;&#x3e;" horiz-adv-x="913" 
d="M602 574l270 -221v-20l-270 -220l-11 12l166 204q-83 -2 -135.5 -4t-95.5 -2h-111q-43 0 -95.5 2t-135.5 4l166 -204l-11 -12l-270 220v20l270 221l11 -11l-166 -206q83 2 135.5 4t95.5 2h111q43 0 95.5 -2t135.5 -4l-166 206z" />
    <glyph glyph-name="fi" unicode="fi" horiz-adv-x="555" 
d="M500 160h29q-57 -170 -140 -170q-40 0 -58 32.5t-3 82.5l103 360h-202l-145 -504q-44 -151 -159 -151q-44 0 -71 19.5t-27 54.5q0 23 12 36t31 13q17 0 28.5 -11t11.5 -27q0 -17 -11.5 -27.5t-29.5 -10.5h-4q21 -18 54 -18q45 0 71.5 30.5t44.5 91.5l145 504h-95l9 35h71
q14 0 20 4.5t10 16.5l8 22q21 60 73.5 103.5t122.5 43.5q52 0 90 -20.5t38 -56.5q0 -21 -12.5 -33.5t-30.5 -12.5q-17 0 -28 11t-11 28q0 27 25 35q-24 21 -69 21q-51 0 -91 -33.5t-58 -88.5l-13 -40h251l-116 -404q-9 -28 -0.5 -47t30.5 -19q51 0 96 130z" />
    <glyph glyph-name="fl" unicode="fl" horiz-adv-x="577" 
d="M425 30q52 0 97 130h30q-58 -170 -139 -170q-43 0 -59.5 31.5t-2.5 83.5l103 360h-225l-145 -504q-44 -151 -159 -151q-44 0 -71 19.5t-27 54.5q0 23 12 36t31 13q17 0 28.5 -11t11.5 -27q0 -17 -11.5 -27.5t-29.5 -10.5h-4q21 -18 54 -18q45 0 71.5 30.5t44.5 91.5
l145 504h-95l9 35h71q14 0 20 4.5t10 16.5l8 22q21 60 73.5 103.5t122.5 43.5q39 0 72 -12.5t47 -34.5l31 37h15l-167 -582q-9 -31 -2 -49.5t30 -18.5zM239 500h225l19 67q-16 0 -27 11t-11 28q0 27 25 35q-24 21 -69 21q-51 0 -91 -33.5t-58 -88.5z" />
    <glyph glyph-name="T_h" unicode="Th" horiz-adv-x="1156" 
d="M1101 160h29q-29 -86 -62 -128t-75 -42q-39 0 -59.5 31t-3.5 84l64 198q25 79 11 121t-64 42q-155 0 -294 -466h-52l179 619q5 15 1 20.5t-19 5.5h-238l-167 -584q-4 -15 0 -20.5t19 -5.5h116l-10 -35h-337l10 35h116q15 0 22.5 5.5t11.5 20.5l166 584h-75
q-113 0 -161 -25t-58 -68q20 2 35 -10t15 -32q0 -17 -12 -28.5t-31 -11.5t-31.5 14t-12.5 37q0 28 9.5 52.5t34 50t78 41t131.5 15.5h321q208 0 228 94q-20 -2 -34.5 9.5t-14.5 31.5q0 17 12 28.5t30 11.5q19 0 31.5 -13.5t12.5 -36.5q0 -114 -139 -147l-89 -306l-39 -109h6
q51 127 110.5 195.5t132.5 68.5q67 0 93 -50.5t-3 -148.5l-70 -212q-9 -26 -0.5 -46t31.5 -20q50 0 95 130z" />
    <glyph glyph-name="f_b" unicode="fb" horiz-adv-x="830" 
d="M667 506q66 0 100 -44.5t34 -121.5q0 -81 -33 -161t-95.5 -134.5t-135.5 -54.5q-63 0 -95 42t-30 116h-4l-59 -148h-29l133 465h-224l-145 -504q-44 -151 -159 -151q-44 0 -71 19.5t-27 54.5q0 23 12 36t31 13q17 0 28.5 -11t11.5 -27q0 -17 -11.5 -27.5t-29.5 -10.5h-4
q21 -18 54 -18q45 0 71.5 30.5t44.5 91.5l145 504h-95l9 35h71q14 0 20 4.5t10 16.5l8 22q21 60 73.5 103.5t122.5 43.5q41 0 74.5 -13t46.5 -37l29 40h15l-96 -311h6q79 137 193 137zM239 500h224l20 67q-17 1 -27.5 11.5t-10.5 27.5q0 27 25 35q-24 21 -69 21
q-51 0 -91 -33.5t-58 -88.5zM532 28q61 0 112.5 52t78 123.5t26.5 139.5q0 60 -24.5 95t-71.5 35q-85 0 -152.5 -102t-67.5 -213q0 -60 24.5 -95t74.5 -35z" />
    <glyph glyph-name="f_f" unicode="ff" horiz-adv-x="619" 
d="M653 690q40 0 68 -21.5t28 -53.5q0 -20 -12.5 -34t-31.5 -14q-17 0 -28 11t-11 27q0 36 39 38q-17 17 -47 17q-81 0 -116 -106l-17 -54h147l-9 -35h-148l-145 -504q-43 -151 -160 -151q-42 0 -69.5 21t-27.5 54q0 21 12 34.5t31 13.5q17 0 28.5 -11t11.5 -27
q0 -17 -11.5 -27.5t-29.5 -10.5h-4q21 -18 54 -18q45 0 72 30t44 92l145 504h-237l-145 -504q-43 -151 -160 -151q-42 0 -69.5 21t-27.5 54q0 21 12 34.5t31 13.5q17 0 28.5 -11t11.5 -27q0 -17 -11.5 -27.5t-29.5 -10.5h-4q21 -18 54 -18q45 0 72 30t44 92l145 504h-95
l9 35h71q14 0 20 4.5t10 16.5l12 36q48 133 160 133q40 0 68 -21.5t28 -53.5q0 -20 -12.5 -34t-31.5 -14q-17 0 -28 11t-11 27q0 36 39 38q-17 17 -47 17q-81 0 -116 -106l-17 -54h212q14 0 20 4.5t10 16.5l12 36q48 133 160 133z" />
    <glyph glyph-name="f_f_b" unicode="ffb" horiz-adv-x="1116" 
d="M953 506q66 0 100 -44.5t34 -121.5q0 -81 -33 -161t-95.5 -134.5t-135.5 -54.5q-63 0 -95 42t-30 116h-4l-59 -148h-29l133 465h-224l-145 -504q-44 -151 -159 -151q-44 0 -71 19.5t-27 54.5q0 23 12 36t31 13q17 0 28.5 -11t11.5 -27q0 -17 -11.5 -27.5t-29.5 -10.5h-4
q21 -18 54 -18q45 0 71.5 30.5t44.5 91.5l145 504h-237l-145 -504q-44 -151 -159 -151q-44 0 -71 19.5t-27 54.5q0 23 12 36t31 13q17 0 28.5 -11t11.5 -27q0 -17 -11.5 -27.5t-29.5 -10.5h-4q21 -18 54 -18q45 0 71.5 30.5t44.5 91.5l145 504h-95l9 35h71q14 0 20 4.5
t10 16.5l8 22q21 60 73.5 103.5t122.5 43.5q52 0 90 -20.5t38 -56.5v-2q63 79 158 79q41 0 74.5 -13t46.5 -37l29 40h15l-96 -311h6q79 137 193 137zM481 521l8 22q5 13 12 27q-8 -3 -17 -3q-17 0 -28 11t-11 28q0 27 25 35q-24 21 -69 21q-51 0 -91 -33.5t-58 -88.5
l-13 -40h212q14 0 20 4.5t10 16.5zM525 500h224l20 67q-17 1 -27.5 11.5t-10.5 27.5q0 27 25 35q-24 21 -69 21q-51 0 -91 -33.5t-58 -88.5zM818 28q61 0 112.5 52t78 123.5t26.5 139.5q0 60 -24.5 95t-71.5 35q-85 0 -152.5 -102t-67.5 -213q0 -60 24.5 -95t74.5 -35z" />
    <glyph glyph-name="f_f_f" unicode="fff" horiz-adv-x="905" 
d="M939 690q40 0 68 -21.5t28 -53.5q0 -20 -12.5 -34t-31.5 -14q-17 0 -28 11t-11 27q0 36 39 38q-17 17 -47 17q-81 0 -116 -106l-17 -54h147l-9 -35h-148l-145 -504q-43 -151 -160 -151q-42 0 -69.5 21t-27.5 54q0 21 12 34.5t31 13.5q17 0 28.5 -11t11.5 -27
q0 -17 -11.5 -27.5t-29.5 -10.5h-4q21 -18 54 -18q45 0 72 30t44 92l145 504h-237l-145 -504q-43 -151 -160 -151q-42 0 -69.5 21t-27.5 54q0 21 12 34.5t31 13.5q17 0 28.5 -11t11.5 -27q0 -17 -11.5 -27.5t-29.5 -10.5h-4q21 -18 54 -18q45 0 72 30t44 92l145 504h-237
l-145 -504q-43 -151 -160 -151q-42 0 -69.5 21t-27.5 54q0 21 12 34.5t31 13.5q17 0 28.5 -11t11.5 -27q0 -17 -11.5 -27.5t-29.5 -10.5h-4q21 -18 54 -18q45 0 72 30t44 92l145 504h-95l9 35h71q14 0 20 4.5t10 16.5l12 36q48 133 160 133q40 0 68 -21.5t28 -53.5
q0 -20 -12.5 -34t-31.5 -14q-17 0 -28 11t-11 27q0 36 39 38q-17 17 -47 17q-81 0 -116 -106l-17 -54h212q14 0 20 4.5t10 16.5l12 36q48 133 160 133q40 0 68 -21.5t28 -53.5q0 -20 -12.5 -34t-31.5 -14q-17 0 -28 11t-11 27q0 36 39 38q-17 17 -47 17q-81 0 -116 -106
l-17 -54h212q14 0 20 4.5t10 16.5l12 36q48 133 160 133z" />
    <glyph glyph-name="f_f_h" unicode="ffh" horiz-adv-x="1165" 
d="M1110 160h29q-29 -86 -62 -128t-75 -42q-39 0 -59.5 31t-3.5 84l64 198q25 79 11 121t-64 42q-155 0 -294 -466h-50l133 465h-224l-145 -504q-44 -151 -159 -151q-44 0 -71 19.5t-27 54.5q0 23 12 36t31 13q17 0 28.5 -11t11.5 -27q0 -17 -11.5 -27.5t-29.5 -10.5h-4
q21 -18 54 -18q45 0 71.5 30.5t44.5 91.5l145 504h-237l-145 -504q-44 -151 -159 -151q-44 0 -71 19.5t-27 54.5q0 23 12 36t31 13q17 0 28.5 -11t11.5 -27q0 -17 -11.5 -27.5t-29.5 -10.5h-4q21 -18 54 -18q45 0 71.5 30.5t44.5 91.5l145 504h-95l9 35h71q14 0 20 4.5
t10 16.5l8 22q21 60 73.5 103.5t122.5 43.5q52 0 90 -20.5t38 -56.5v-2q63 79 158 79q88 0 119 -46l31 36h15l-96 -328l-39 -109h6q51 127 110.5 195.5t132.5 68.5q67 0 93 -50.5t-3 -148.5l-70 -212q-9 -22 -0.5 -44t31.5 -22q50 0 95 130zM481 521l8 22q5 13 12 27
q-8 -3 -17 -3q-17 0 -28 11t-11 28q0 27 25 35q-24 21 -69 21q-51 0 -91 -33.5t-58 -88.5l-13 -40h212q14 0 20 4.5t10 16.5zM525 500h224l19 67q-16 1 -26.5 12t-10.5 27q0 27 25 35q-24 21 -69 21q-51 0 -91 -33.5t-58 -88.5z" />
    <glyph glyph-name="f_f_i" unicode="ffi" horiz-adv-x="841" 
d="M786 160h29q-57 -170 -140 -170q-40 0 -58 32.5t-3 82.5l103 360h-202l-145 -504q-44 -151 -159 -151q-44 0 -71 19.5t-27 54.5q0 23 12 36t31 13q17 0 28.5 -11t11.5 -27q0 -17 -11.5 -27.5t-29.5 -10.5h-4q21 -18 54 -18q45 0 71.5 30.5t44.5 91.5l145 504h-237
l-145 -504q-44 -151 -159 -151q-44 0 -71 19.5t-27 54.5q0 23 12 36t31 13q17 0 28.5 -11t11.5 -27q0 -17 -11.5 -27.5t-29.5 -10.5h-4q21 -18 54 -18q45 0 71.5 30.5t44.5 91.5l145 504h-95l9 35h71q14 0 20 4.5t10 16.5l8 22q21 60 73.5 103.5t122.5 43.5q52 0 90 -20.5
t38 -56.5v-2q63 79 158 79q52 0 90 -20.5t38 -56.5q0 -21 -12.5 -33.5t-30.5 -12.5q-17 0 -28 11t-11 28q0 27 25 35q-24 21 -69 21q-51 0 -91 -33.5t-58 -88.5l-13 -40h251l-116 -404q-9 -28 -0.5 -47t30.5 -19q51 0 96 130zM481 521l8 22q5 13 12 27q-8 -3 -17 -3
q-17 0 -28 11t-11 28q0 27 25 35q-24 21 -69 21q-51 0 -91 -33.5t-58 -88.5l-13 -40h212q14 0 20 4.5t10 16.5z" />
    <glyph glyph-name="f_f_j" unicode="ffj" horiz-adv-x="791" 
d="M731 606q0 27 25 35q-24 21 -69 21q-51 0 -91 -33.5t-58 -88.5l-13 -40h273l-158 -554q-19 -64 -57.5 -100t-95.5 -36q-40 0 -64.5 19t-24.5 55q0 24 13 37t32 13q15 0 26 -10t11 -26q0 -18 -13 -29.5t-33 -11.5q19 -17 49 -17q79 0 108 106l148 519h-224l-145 -504
q-44 -151 -159 -151q-44 0 -71 19.5t-27 54.5q0 23 12 36t31 13q17 0 28.5 -11t11.5 -27q0 -17 -11.5 -27.5t-29.5 -10.5h-4q21 -18 54 -18q45 0 71.5 30.5t44.5 91.5l145 504h-237l-145 -504q-44 -151 -159 -151q-44 0 -71 19.5t-27 54.5q0 23 12 36t31 13q17 0 28.5 -11
t11.5 -27q0 -17 -11.5 -27.5t-29.5 -10.5h-4q21 -18 54 -18q45 0 71.5 30.5t44.5 91.5l145 504h-95l9 35h71q14 0 20 4.5t10 16.5l8 22q21 60 73.5 103.5t122.5 43.5q52 0 90 -20.5t38 -56.5v-2q63 79 158 79q52 0 90 -20.5t38 -56.5q0 -21 -12.5 -33.5t-30.5 -12.5
q-17 0 -28 11t-11 28zM481 521l8 22q5 13 12 27q-8 -3 -17 -3q-17 0 -28 11t-11 28q0 27 25 35q-24 21 -69 21q-51 0 -91 -33.5t-58 -88.5l-13 -40h212q14 0 20 4.5t10 16.5z" />
    <glyph glyph-name="f_f_k" unicode="ffk" horiz-adv-x="1113" 
d="M835 680h15l-195 -680h-49l133 465h-224l-145 -504q-44 -151 -159 -151q-44 0 -71 19.5t-27 54.5q0 23 12 36t31 13q17 0 28.5 -11t11.5 -27q0 -17 -11.5 -27.5t-29.5 -10.5h-4q21 -18 54 -18q45 0 71.5 30.5t44.5 91.5l145 504h-237l-145 -504q-44 -151 -159 -151
q-44 0 -71 19.5t-27 54.5q0 23 12 36t31 13q17 0 28.5 -11t11.5 -27q0 -17 -11.5 -27.5t-29.5 -10.5h-4q21 -18 54 -18q45 0 71.5 30.5t44.5 91.5l145 504h-95l9 35h71q14 0 20 4.5t10 16.5l8 22q21 60 73.5 103.5t122.5 43.5q52 0 90 -20.5t38 -56.5v-2q63 79 158 79
q88 0 119 -46zM481 521l8 22q5 13 12 27q-8 -3 -17 -3q-17 0 -28 11t-11 28q0 27 25 35q-24 21 -69 21q-51 0 -91 -33.5t-58 -88.5l-13 -40h212q14 0 20 4.5t10 16.5zM525 500h224l19 67q-16 1 -26.5 12t-10.5 27q0 27 25 35q-24 21 -69 21q-51 0 -91 -33.5t-58 -88.5z
M1026 446q0 18 14 29q-25 -2 -56.5 -30t-81 -74.5t-104.5 -77.5q43 -4 71.5 -19t41.5 -40t17.5 -50t3.5 -59q-1 -27 0 -48t9.5 -34t25.5 -13q27 0 48 31.5t42 98.5h30q-28 -89 -59 -129.5t-76 -40.5q-78 0 -73 125q0 21 0.5 43t-5.5 42.5t-16 36.5t-32 27t-54 13l-5 14
q45 31 88.5 74t68.5 71.5t57.5 49.5t66.5 21q33 0 48 -14.5t15 -35.5t-13 -34.5t-33 -13.5q-17 0 -28 10.5t-11 26.5z" />
    <glyph glyph-name="f_f_l" unicode="ffl" horiz-adv-x="863" 
d="M711 30q52 0 97 130h30q-58 -170 -139 -170q-43 0 -59.5 31.5t-2.5 83.5l103 360h-225l-145 -504q-44 -151 -159 -151q-44 0 -71 19.5t-27 54.5q0 23 12 36t31 13q17 0 28.5 -11t11.5 -27q0 -17 -11.5 -27.5t-29.5 -10.5h-4q21 -18 54 -18q45 0 71.5 30.5t44.5 91.5
l145 504h-237l-145 -504q-44 -151 -159 -151q-44 0 -71 19.5t-27 54.5q0 23 12 36t31 13q17 0 28.5 -11t11.5 -27q0 -17 -11.5 -27.5t-29.5 -10.5h-4q21 -18 54 -18q45 0 71.5 30.5t44.5 91.5l145 504h-95l9 35h71q14 0 20 4.5t10 16.5l8 22q21 60 73.5 103.5t122.5 43.5
q52 0 90 -20.5t38 -56.5v-2q63 79 158 79q39 0 72 -12.5t47 -34.5l31 37h15l-167 -582q-9 -31 -2 -49.5t30 -18.5zM481 521l8 22q5 13 12 27q-8 -3 -17 -3q-17 0 -28 11t-11 28q0 27 25 35q-24 21 -69 21q-51 0 -91 -33.5t-58 -88.5l-13 -40h212q14 0 20 4.5t10 16.5z
M525 500h225l19 67q-16 0 -27 11t-11 28q0 27 25 35q-24 21 -69 21q-51 0 -91 -33.5t-58 -88.5z" />
    <glyph glyph-name="f_h" unicode="fh" horiz-adv-x="879" 
d="M824 160h29q-29 -86 -62 -128t-75 -42q-39 0 -59.5 31t-3.5 84l64 198q25 79 11 121t-64 42q-155 0 -294 -466h-50l133 465h-224l-145 -504q-44 -151 -159 -151q-44 0 -71 19.5t-27 54.5q0 23 12 36t31 13q17 0 28.5 -11t11.5 -27q0 -17 -11.5 -27.5t-29.5 -10.5h-4
q21 -18 54 -18q45 0 71.5 30.5t44.5 91.5l145 504h-95l9 35h71q14 0 20 4.5t10 16.5l8 22q21 60 73.5 103.5t122.5 43.5q88 0 119 -46l31 36h15l-96 -328l-39 -109h6q51 127 110.5 195.5t132.5 68.5q67 0 93 -50.5t-3 -148.5l-70 -212q-9 -22 -0.5 -44t31.5 -22q50 0 95 130
zM239 500h224l19 67q-16 1 -26.5 12t-10.5 27q0 27 25 35q-24 21 -69 21q-51 0 -91 -33.5t-58 -88.5z" />
    <glyph glyph-name="f_j" unicode="fj" horiz-adv-x="505" 
d="M445 606q0 27 25 35q-24 21 -69 21q-51 0 -91 -33.5t-58 -88.5l-13 -40h273l-158 -554q-19 -64 -57.5 -100t-95.5 -36q-40 0 -64.5 19t-24.5 55q0 24 13 37t32 13q15 0 26 -10t11 -26q0 -18 -13 -29.5t-33 -11.5q19 -17 49 -17q79 0 108 106l148 519h-224l-145 -504
q-44 -151 -159 -151q-44 0 -71 19.5t-27 54.5q0 23 12 36t31 13q17 0 28.5 -11t11.5 -27q0 -17 -11.5 -27.5t-29.5 -10.5h-4q21 -18 54 -18q45 0 71.5 30.5t44.5 91.5l145 504h-95l9 35h71q14 0 20 4.5t10 16.5l8 22q21 60 73.5 103.5t122.5 43.5q52 0 90 -20.5t38 -56.5
q0 -21 -12.5 -33.5t-30.5 -12.5q-17 0 -28 11t-11 28z" />
    <glyph glyph-name="f_k" unicode="fk" horiz-adv-x="827" 
d="M549 680h15l-195 -680h-49l133 465h-224l-145 -504q-44 -151 -159 -151q-44 0 -71 19.5t-27 54.5q0 23 12 36t31 13q17 0 28.5 -11t11.5 -27q0 -17 -11.5 -27.5t-29.5 -10.5h-4q21 -18 54 -18q45 0 71.5 30.5t44.5 91.5l145 504h-95l9 35h71q14 0 20 4.5t10 16.5l8 22
q21 60 73.5 103.5t122.5 43.5q88 0 119 -46zM239 500h224l19 67q-16 1 -26.5 12t-10.5 27q0 27 25 35q-24 21 -69 21q-51 0 -91 -33.5t-58 -88.5zM740 446q0 18 14 29q-25 -2 -56.5 -30t-81 -74.5t-104.5 -77.5q43 -4 71.5 -19t41.5 -40t17.5 -50t3.5 -59q-1 -27 0 -48
t9.5 -34t25.5 -13q27 0 48 31.5t42 98.5h30q-28 -89 -59 -129.5t-76 -40.5q-78 0 -73 125q0 21 0.5 43t-5.5 42.5t-16 36.5t-32 27t-54 13l-5 14q45 31 88.5 74t68.5 71.5t57.5 49.5t66.5 21q33 0 48 -14.5t15 -35.5t-13 -34.5t-33 -13.5q-17 0 -28 10.5t-11 26.5z" />
    <glyph glyph-name="f_t" unicode="ft" horiz-adv-x="637" 
d="M501 465l-100 -349q-12 -40 1 -63t43 -23q32 0 62.5 33t53.5 97h29q-57 -170 -155 -170q-50 0 -74 35t-8 94l100 346h-224l-145 -504q-43 -151 -160 -151q-42 0 -69.5 21t-27.5 54q0 21 12 34.5t31 13.5q17 0 28.5 -11t11.5 -27q0 -17 -11.5 -27.5t-29.5 -10.5h-4
q21 -18 54 -18q45 0 72 30t44 92l145 504h-95l9 35h71q14 0 20 4.5t10 16.5l12 36q48 133 160 133q40 0 68 -21.5t28 -53.5q0 -20 -12.5 -34t-31.5 -14q-17 0 -28 11t-11 27q0 36 39 38q-17 17 -47 17q-81 0 -116 -106l-17 -54h225l51 100h25l-29 -100h178l-10 -35h-178z
" />
    <glyph glyph-name=".notdef" horiz-adv-x="701" 
d="M238 680h471l-195 -680h-471zM263 645l-168 -587l541 587h-373zM489 35l169 588l-542 -588h373z" />
    <glyph glyph-name=".null" horiz-adv-x="0" 
 />
    <glyph glyph-name="nonmarkingreturn" horiz-adv-x="333" 
 />
    <glyph glyph-name="space" unicode=" " horiz-adv-x="175" 
 />
    <glyph glyph-name="exclam" unicode="!" horiz-adv-x="258" 
d="M110 228q91 387 102 422q11 39 41 31q32 -8 19 -48q-6 -22 -57 -173.5t-79 -231.5h-26zM69 81q18 0 30 -12.5t12 -31.5t-12 -31.5t-30 -12.5q-19 0 -31.5 13t-12.5 32q0 18 12.5 30.5t31.5 12.5z" />
    <glyph glyph-name="quotedbl" unicode="&#x22;" horiz-adv-x="361" 
d="M125 403q25 100 63 258q5 25 25 25q24 0 24 -23q0 -11 -83 -260h-29zM296 403q25 100 63 258q5 25 25 25q24 0 24 -23q0 -11 -83 -260h-29z" />
    <glyph glyph-name="numbersign" unicode="#" 
d="M663 470h-114l-124 -250h127l-9 -30h-132l-94 -190h-34l94 190h-222l-94 -190h-34l94 190h-118l9 30h123l124 250h-136l9 30h141l89 180h34l-89 -180h222l89 180h34l-89 -180h109zM391 220l124 250h-222l-124 -250h222z" />
    <glyph glyph-name="dollar" unicode="$" horiz-adv-x="548" 
d="M425 684q62 -14 103 -50t41 -84q0 -27 -12 -42t-33 -15q-18 0 -29.5 11t-11.5 28q0 19 12.5 31t31.5 12h5q-11 28 -43 47.5t-74 27.5l-84 -286q35 -18 55.5 -31.5t45.5 -35t36.5 -48.5t11.5 -61q0 -81 -66 -140t-165 -59q-15 0 -23 1l-33 -118h-38l36 123q-72 15 -119 61
t-47 114q0 26 11.5 46.5t36.5 20.5q19 0 29.5 -11t10.5 -27q0 -17 -12.5 -29.5t-31.5 -12.5q-4 0 -12 2q4 -51 44 -85.5t99 -44.5l87 298q-38 20 -57 31.5t-45.5 33t-38 47.5t-11.5 59q0 80 66.5 136t164.5 56q16 0 24 -1l30 107h38zM302 379l78 275h-11q-79 0 -129.5 -41.5
t-50.5 -100.5q0 -44 29 -73.5t84 -59.5zM427 176q0 46 -28.5 76t-82.5 60l-80 -287h10q82 0 131.5 45t49.5 106z" />
    <glyph glyph-name="percent" unicode="%" horiz-adv-x="1002" 
d="M543 352l-8 10q21 23 163.5 165t156.5 155q27 24 41 8q14 -14 -12 -39q-1 0 -81.5 -72t-161 -142.5t-98.5 -84.5zM272 282q-76 0 -121 46.5t-45 118.5q0 95 66 169t158 74q76 0 121 -46t45 -118q0 -96 -65.5 -170t-158.5 -74zM271 311q73 0 126.5 70t53.5 152
q0 57 -31 93t-88 36q-74 0 -128 -70.5t-54 -151.5q0 -58 31.5 -93.5t89.5 -35.5zM723 -10q-76 0 -121 46.5t-45 118.5q0 95 66 169t158 74q76 0 121 -46t45 -118q0 -96 -65.5 -170t-158.5 -74zM722 19q73 0 126.5 70t53.5 152q0 57 -31 93t-88 36q-74 0 -128 -70.5
t-54 -151.5q0 -58 31.5 -93.5t89.5 -35.5zM145 -5q-14 18 12 40q1 1 157.5 138t180.5 155l8 -10q-22 -24 -164 -164t-154 -150q-25 -25 -40 -9z" />
    <glyph glyph-name="ampersand" unicode="&#x26;" horiz-adv-x="609" 
d="M613 364q0 -48 -42 -70.5t-104 -22.5h-6q48 -31 48 -94q0 -79 -70 -133t-166 -54q-100 0 -165.5 52t-65.5 136q0 85 71 146.5t169 64.5q-53 14 -82.5 50.5t-29.5 84.5q0 70 57 118t141 48q74 0 124.5 -39t50.5 -103q0 -31 -12.5 -51.5t-37.5 -20.5q-17 0 -29.5 10.5
t-12.5 28.5q0 22 18 33.5t40 7.5q-8 47 -47 72t-89 25q-65 0 -108.5 -38.5t-43.5 -94.5q0 -49 34 -82.5t93 -40.5l17 -2l-9 -30l-42 -2q-94 -5 -156.5 -56.5t-62.5 -127.5q0 -70 49.5 -112t130.5 -42q80 0 138.5 46t58.5 115q0 61 -43 86q-54 4 -74 4q-67 0 -80 -41
q8 4 17 4q15 0 23.5 -9.5t8.5 -23.5q0 -16 -11.5 -26.5t-30.5 -10.5q-18 0 -30 11.5t-12 34.5q0 44 43 67t106 23q19 0 56 -3t53 -3q34 0 55.5 12t25.5 32q-7 -3 -16 -3q-17 0 -26 10t-9 25q0 17 11.5 28t30.5 11q43 0 43 -50z" />
    <glyph glyph-name="quotesingle" unicode="'" horiz-adv-x="190" 
d="M125 403q25 100 63 258q5 25 25 25q24 0 24 -23q0 -11 -83 -260h-29z" />
    <glyph glyph-name="parenleft" unicode="(" horiz-adv-x="346" 
d="M186 -113q-127 98 -127 287q0 119 43.5 237t129.5 212.5t196 128.5l9 -33q-100 -37 -178 -127.5t-116.5 -200.5t-38.5 -219q0 -166 106 -257z" />
    <glyph glyph-name="parenright" unicode=")" horiz-adv-x="347" 
d="M200 752q127 -98 127 -287q0 -119 -43.5 -237t-129.5 -212.5t-196 -128.5l-9 33q100 37 178 127.5t116.5 200.5t38.5 219q0 166 -106 257z" />
    <glyph glyph-name="asterisk" unicode="*" horiz-adv-x="507" 
d="M190 470q-14 21 9 39q18 13 69 38.5t56 27.5l1 12q-89 48 -121 70q-28 17 -10 38q15 22 39 3q44 -35 101 -96l11 3q16 115 23 138q7 29 33 21q24 -7 17 -35q-5 -17 -54 -129l7 -9q83 21 137 28q29 3 32 -23q2 -27 -29 -27q-36 -2 -140 5l-6 -10q7 -12 23.5 -38.5t29 -48
t18.5 -37.5q12 -28 -13 -37q-27 -10 -36 19q-6 15 -38 134l-14 5q-10 -9 -33 -30.5t-41 -38t-30 -25.5q-25 -21 -41 3z" />
    <glyph glyph-name="plus" unicode="+" horiz-adv-x="596" 
d="M289 281h-200l10 34h200l58 203h37l-59 -203h200l-10 -34h-199l-59 -204h-36z" />
    <glyph glyph-name="comma" unicode="," horiz-adv-x="218" 
d="M50 81q17 0 30 -12.5t13 -37.5q0 -54 -52.5 -106.5t-128.5 -71.5l-7 23q41 14 68.5 29.5t41 32t19 29t8.5 28.5q-36 8 -36 41q0 19 12 32t32 13z" />
    <glyph glyph-name="hyphen" unicode="-" horiz-adv-x="377" 
d="M70 282h256l-11 -38h-256z" />
    <glyph glyph-name="period" unicode="." horiz-adv-x="218" 
d="M48 80q19 0 31 -12t12 -31t-12 -31.5t-31 -12.5t-31 12.5t-12 31.5t12 31t31 12z" />
    <glyph glyph-name="slash" unicode="/" horiz-adv-x="408" 
d="M537 776h46l-662 -877h-46z" />
    <glyph glyph-name="zero" unicode="0" horiz-adv-x="610" 
d="M62 233q0 108 43 212.5t121 174.5t169 70q96 0 150.5 -67t54.5 -176q0 -108 -43 -212.5t-121 -174.5t-169 -70q-96 0 -150.5 67.5t-54.5 175.5zM269 26q78 0 144.5 71t101 170t34.5 194q0 89 -40.5 141t-115.5 52q-78 0 -144.5 -71t-101 -169.5t-34.5 -193.5
q0 -89 40.5 -141.5t115.5 -52.5z" />
    <glyph glyph-name="one" unicode="1" horiz-adv-x="451" 
d="M209 61q-4 -15 0 -20.5t19 -5.5h146l-10 -35h-391l10 35h142q15 0 22.5 5.5t11.5 20.5l151 527q-54 -25 -163 -25l9 30q89 0 126 20.5t65 71.5h41z" />
    <glyph glyph-name="two" unicode="2" horiz-adv-x="568" 
d="M330 43q28 1 46.5 9t32.5 28.5t21 37.5t20 54h35l-49 -172h-434l6 24q64 42 97.5 64t94 65t95 72t80 71t69 76t41 73.5t17.5 75.5q0 61 -41.5 98t-110.5 37q-59 0 -104.5 -25.5t-68.5 -58.5q16 0 28 -11t12 -28q0 -18 -13.5 -30.5t-31.5 -12.5t-29.5 12.5t-11.5 30.5
q0 49 64 103t164 54q89 0 142 -46t53 -122q0 -52 -28 -106t-69 -99t-108.5 -97.5t-125 -91t-141.5 -89.5z" />
    <glyph glyph-name="three" unicode="3" horiz-adv-x="525" 
d="M533 527q0 -76 -63 -127t-161 -55q66 -11 103.5 -54t37.5 -102q0 -83 -67 -141t-163 -58q-85 0 -143.5 46.5t-58.5 119.5q0 33 13.5 50t34.5 17q16 0 27.5 -11t11.5 -29q0 -19 -15 -31.5t-36 -10.5q8 -54 54 -84.5t107 -30.5q83 0 133 50.5t50 118.5q0 62 -43 100.5
t-118 38.5h-28l9 32h76q78 0 131.5 47t53.5 115q0 60 -42.5 93.5t-109.5 33.5q-101 0 -150 -71q15 -2 25.5 -13t10.5 -27q0 -17 -12.5 -28.5t-29.5 -11.5q-18 0 -29.5 12.5t-11.5 31.5q0 47 61.5 94.5t148.5 47.5q82 0 137.5 -45.5t55.5 -117.5z" />
    <glyph glyph-name="four" unicode="4" horiz-adv-x="550" 
d="M387 192l-38 -131q-4 -15 0 -20.5t19 -5.5h77l-10 -35h-325l10 35h145q15 0 22.5 5.5t11.5 20.5l38 131h-333l10 36q173 145 237.5 230.5t83.5 187.5q12 44 43 44q23 0 23 -34q0 -159 -344 -428h290l51 177q36 48 58 95h19l-78 -272h126l-10 -36h-126z" />
    <glyph glyph-name="five" unicode="5" horiz-adv-x="534" 
d="M281 417q83 0 140 -53.5t57 -137.5q0 -96 -73.5 -166t-176.5 -70q-87 0 -144 51.5t-57 125.5q0 33 13.5 52.5t36.5 19.5q17 0 28.5 -10.5t11.5 -26.5q0 -23 -17.5 -34.5t-38.5 -9.5q6 -61 51.5 -96t109.5 -35q86 0 145 62t59 145q0 69 -43.5 110.5t-112.5 41.5t-126 -38
l-28 20l108 305l31 7q113 -16 183 -16q72 0 149 18l2 -20q-77 -53 -174 -53q-66 0 -170 24l-90 -251q59 35 126 35z" />
    <glyph glyph-name="six" unicode="6" horiz-adv-x="579" 
d="M420 690q74 0 124.5 -40t50.5 -97q0 -28 -13.5 -44.5t-34.5 -16.5q-18 0 -30.5 11.5t-12.5 29.5q0 20 16 33t38 11q-11 35 -48.5 56t-89.5 21q-108 0 -185 -96t-114 -256q37 59 92.5 88t116.5 29q83 0 136.5 -49t53.5 -134q0 -99 -72.5 -172.5t-180.5 -73.5
q-94 0 -151 59.5t-57 168.5q0 101 45.5 209t131 185.5t184.5 77.5zM313 385q-85 0 -144 -60t-59 -141q0 -70 45.5 -113.5t114.5 -43.5q84 0 140.5 63t56.5 145q0 69 -43 109.5t-111 40.5z" />
    <glyph glyph-name="seven" unicode="7" horiz-adv-x="533" 
d="M616 690q12 0 18.5 -7t6.5 -17q0 -23 -33 -45.5t-67 -31.5q-69 -61 -119 -110.5t-87 -96.5t-60.5 -84t-42 -83.5t-29 -84.5t-24.5 -97q-9 -39 -37 -39q-14 0 -22 10.5t-7 27.5q15 123 117 271.5t271 281.5q-59 0 -104.5 16t-82 32t-74.5 16q-41 0 -68 -23q33 -8 33 -40
q0 -18 -13 -30.5t-32 -12.5q-17 0 -29 12.5t-12 30.5q0 36 35.5 70t95.5 34q51 0 89.5 -17.5t81 -38.5t95.5 -26q24 44 52.5 63t47.5 19z" />
    <glyph glyph-name="eight" unicode="8" horiz-adv-x="547" 
d="M543 534q0 -71 -53.5 -114.5t-138.5 -60.5q63 -36 97.5 -73.5t34.5 -95.5q0 -83 -71.5 -141t-171.5 -58q-90 0 -154 47.5t-64 125.5q0 74 60 125.5t155 66.5q-47 30 -72.5 64.5t-25.5 82.5q0 78 63.5 132.5t154.5 54.5q78 0 132 -42t54 -114zM319 377q80 18 129.5 57
t49.5 101q0 56 -42 88t-102 32q-69 0 -117.5 -40t-48.5 -96q0 -25 10 -45.5t31.5 -38.5t39.5 -29t50 -29zM430 175q0 16 -4 30.5t-15 28.5t-19 23t-27.5 22t-28.5 18.5t-34 20t-32 18.5q-87 -13 -143 -59t-56 -112q0 -64 51 -102t121 -38q78 0 132.5 45.5t54.5 104.5z" />
    <glyph glyph-name="nine" unicode="9" horiz-adv-x="579" 
d="M363 690q94 0 151 -59.5t57 -168.5q0 -101 -45.5 -209t-131 -185.5t-184.5 -77.5q-74 0 -124.5 40t-50.5 97q0 28 13.5 44.5t34.5 16.5q18 0 30.5 -11.5t12.5 -29.5q0 -20 -16 -33t-38 -11q11 -35 48.5 -56t89.5 -21q108 0 185 96t114 256q-37 -59 -92.5 -88t-116.5 -29
q-83 0 -136.5 49t-53.5 134q0 99 72.5 172.5t180.5 73.5zM317 295q85 0 144 60t59 141q0 70 -45.5 113.5t-114.5 43.5q-84 0 -140.5 -63t-56.5 -145q0 -69 43 -109.5t111 -40.5z" />
    <glyph glyph-name="colon" unicode=":" horiz-adv-x="218" 
d="M170 505q19 0 31 -12t12 -31t-12 -31.5t-31 -12.5t-31 12.5t-12 31.5t12 31t31 12zM48 80q19 0 31 -12t12 -31t-12 -31.5t-31 -12.5t-31 12.5t-12 31.5t12 31t31 12z" />
    <glyph glyph-name="semicolon" unicode=";" horiz-adv-x="224" 
d="M170 505q19 0 31 -12t12 -31t-12 -31.5t-31 -12.5t-31 12.5t-12 31.5t12 31t31 12zM50 81q17 0 30 -12.5t13 -37.5q0 -54 -52.5 -106.5t-128.5 -71.5l-7 23q41 14 68.5 29.5t41 32t19 29t8.5 28.5q-36 8 -36 41q0 19 12 32t32 13z" />
    <glyph glyph-name="less" unicode="&#x3c;" horiz-adv-x="597" 
d="M88 279l8 28l471 193l-11 -42l-422 -169l324 -172l-10 -32z" />
    <glyph glyph-name="equal" unicode="=" horiz-adv-x="597" 
d="M121 391l10 34h436l-10 -34h-436zM69 211l10 34h436l-10 -34h-436z" />
    <glyph glyph-name="greater" unicode="&#x3e;" horiz-adv-x="597" 
d="M533 306l-8 -28l-471 -193l11 42l422 169l-324 172l10 32z" />
    <glyph glyph-name="question" unicode="?" horiz-adv-x="484" 
d="M336 690q84 0 139.5 -43.5t55.5 -117.5q0 -52 -29 -99t-77 -82t-102 -60.5t-113 -42.5l-8 20q272 116 272 264q0 61 -41 93t-106 32q-57 0 -99.5 -25t-57.5 -62q15 -1 26.5 -13t11.5 -28q0 -18 -13 -29.5t-32 -11.5q-18 0 -29 13.5t-11 33.5q0 58 60 108t153 50zM191 81
q18 0 30 -12.5t12 -31.5t-12 -31.5t-30 -12.5q-19 0 -31.5 13t-12.5 32q0 18 12.5 30.5t31.5 12.5z" />
    <glyph glyph-name="at" unicode="@" horiz-adv-x="859" 
d="M606 82q-52 0 -72.5 31.5t-9.5 70.5h-5q-20 -46 -58.5 -73.5t-85.5 -27.5q-55 0 -87.5 37t-32.5 104q0 96 59 180t147 84q45 0 73.5 -30.5t31.5 -91.5l30 117h40l-74 -268q-13 -50 1 -76.5t52 -26.5q74 0 132.5 81.5t58.5 191.5q0 120 -84.5 197t-213.5 77
q-177 0 -297.5 -125.5t-120.5 -307.5q0 -139 89 -228t225 -89q145 0 272 86l10 -23q-132 -92 -285 -92q-150 0 -249 97.5t-99 248.5q0 126 59 232t164.5 168t232.5 62q145 0 240 -85.5t95 -216.5q0 -125 -73.5 -214.5t-164.5 -89.5zM387 111q53 0 92 45t54 98.5t15 101.5
q0 47 -20.5 73.5t-60.5 26.5q-75 0 -122.5 -76.5t-47.5 -158.5q0 -53 23.5 -81.5t66.5 -28.5z" />
    <glyph glyph-name="A" unicode="A" horiz-adv-x="710" 
d="M612 35h36l-10 -35h-241l10 35h79q34 0 31 31l-17 137h-327l-95 -137q-22 -31 12 -31h82l-10 -35h-234l10 35h38q35 0 58 34l429 611h28l82 -613q5 -32 39 -32zM195 236h301l-47 367z" />
    <glyph glyph-name="B" unicode="B" horiz-adv-x="612" 
d="M630 529q0 -77 -61.5 -127.5t-158.5 -56.5q69 -9 108 -48t39 -103q0 -83 -75 -138.5t-186 -55.5h-331l8 35h84q16 0 22.5 4t10.5 19l162 558q5 17 1 23.5t-18 6.5h-83l10 35l272 -1q89 0 142.5 -41.5t53.5 -109.5zM363 363q90 0 150.5 46.5t60.5 118.5q0 53 -40 85.5
t-107 32.5h-113l-84 -283h133zM501 199q0 60 -43 94.5t-111 34.5h-127l-84 -294h152q94 0 153.5 47.5t59.5 117.5z" />
    <glyph glyph-name="C" unicode="C" horiz-adv-x="699" 
d="M458 690q102 0 164.5 -52.5t62.5 -138.5q0 -31 -12 -50.5t-35 -19.5q-18 0 -30 11t-12 28t12 28.5t32 11.5q8 0 12 -1q-1 66 -54 105.5t-136 39.5q-93 0 -169 -57.5t-117.5 -150t-41.5 -197.5q0 -98 56 -158.5t147 -60.5q157 0 256 178h38q-112 -216 -298 -216
q-111 0 -183.5 76t-72.5 193q0 175 111 303t270 128z" />
    <glyph glyph-name="D" unicode="D" horiz-adv-x="720" 
d="M406 680q131 0 211.5 -73t80.5 -188q0 -172 -129 -295.5t-311 -123.5h-294l9 35h82q15 0 22 5t11 20l160 558q9 27 -18 27h-81l11 35h246zM268 35q153 0 261.5 112t108.5 268q0 101 -64 165.5t-173 64.5h-92l-176 -610h135z" />
    <glyph glyph-name="E" unicode="E" horiz-adv-x="641" 
d="M517 165h35l-48 -165h-540l10 35h79q15 0 22.5 5.5t11.5 20.5l160 558q4 15 0 20.5t-19 5.5h-79l10 35h540l-47 -165h-35q18 76 15 95q-6 35 -69 35h-256l-95 -331h162q11 0 20 2t15 3.5t12.5 8.5t9 9.5t8 13.5t6.5 13.5t6.5 17t6.5 17.5h31l-60 -206h-31q1 4 3.5 14.5
t3 14t2 12t1.5 11.5t-0.5 9.5t-2.5 9t-5.5 6.5t-8.5 5.5t-11.5 2.5t-15.5 1h-162l-70 -244h256q31 0 50.5 6t33.5 24t20.5 33t18.5 50q4 11 6 17z" />
    <glyph glyph-name="F" unicode="F" horiz-adv-x="636" 
d="M699 680l-47 -165h-35q18 76 15 95q-6 35 -69 35h-256l-95 -331h162q9 0 17 1t14.5 4.5t11 5t10 9t7.5 9.5t6.5 12.5t5.5 12.5t6 15.5t6 15.5h31l-60 -206h-31q1 3 2 9q12 34 6 55.5t-42 21.5h-162l-63 -218q-4 -15 0 -20.5t19 -5.5h121l-10 -35h-305l10 35h79
q15 0 22.5 5.5t11.5 20.5l160 558q4 15 0 20.5t-19 5.5h-79l10 35h540z" />
    <glyph glyph-name="G" unicode="G" horiz-adv-x="773" 
d="M405 283h322l-10 -35h-46q-16 0 -22.5 -5.5t-11.5 -20.5l-64 -222h-27l5 81q-89 -91 -214 -91q-117 0 -188.5 75t-71.5 203q0 106 48.5 202.5t138 158t197.5 61.5q101 0 163 -53t62 -140q0 -29 -12 -47.5t-34 -18.5q-18 0 -31 10.5t-13 27.5q0 16 12 27.5t32 11.5
q9 0 13 -1q0 65 -54 105t-134 40q-96 0 -173.5 -60.5t-117.5 -150t-40 -185.5q0 -109 55.5 -169t153.5 -60q129 0 218 110l24 85q5 15 1 20.5t-19 5.5h-171z" />
    <glyph glyph-name="H" unicode="H" horiz-adv-x="746" 
d="M582 680h252l-10 -35h-79q-15 0 -21.5 -5.5t-11.5 -20.5l-160 -558q-5 -15 -1 -20.5t19 -5.5h79l-10 -35h-252l10 35h69q15 0 21.5 5.5t11.5 20.5l63 221h-360l-63 -221q-4 -15 0 -20.5t19 -5.5h69l-10 -35h-253l10 35h79q15 0 22.5 5.5t11.5 20.5l160 558q4 15 0 20.5
t-19 5.5h-79l10 35h253l-10 -35h-69q-15 0 -22.5 -5.5t-11.5 -20.5l-87 -302h360l87 302q5 15 1 20.5t-19 5.5h-69z" />
    <glyph glyph-name="I" unicode="I" horiz-adv-x="390" 
d="M361 645q-15 0 -21.5 -5.5t-11.5 -20.5l-160 -558q-5 -15 -1 -20.5t19 -5.5h97l-10 -35h-299l10 35h98q15 0 21.5 5.5t11.5 20.5l160 558q5 15 1 20.5t-19 5.5h-98l10 35h299l-10 -35h-97z" />
    <glyph glyph-name="J" unicode="J" horiz-adv-x="552" 
d="M290 680h370l-9 -35h-91q-16 0 -22.5 -5.5t-11.5 -20.5l-115 -399q-32 -110 -97 -170t-153 -60q-68 0 -113.5 38.5t-45.5 86.5q0 23 12 37t31 14q16 0 27 -10t11 -25q0 -17 -12.5 -27.5t-31.5 -11.5q6 -32 42 -48.5t74 -16.5q145 0 204 200l114 392q4 15 0 20.5t-19 5.5
h-174z" />
    <glyph glyph-name="K" unicode="K" horiz-adv-x="731" 
d="M-36 0l10 35h79q15 0 22.5 5.5t11.5 20.5l160 558q4 15 0 20.5t-19 5.5h-79l10 35h253l-10 -35h-69q-15 0 -22.5 -5.5t-11.5 -20.5l-160 -558q-4 -15 0 -20.5t19 -5.5h69l-10 -35h-253zM339 0l10 35h95q28 0 14 27l-168 270l344 289q27 24 -2 24h-109l10 35h278l-10 -35
h-36q-47 0 -81 -28l-333 -282l165 -264q22 -36 69 -36h74l-10 -35h-310z" />
    <glyph glyph-name="L" unicode="L" horiz-adv-x="606" 
d="M498 186h35l-54 -186h-515l9 35h80q15 0 22.5 5.5t11.5 20.5l160 558q4 15 0 20.5t-19 5.5h-79l10 35h300l-10 -35h-116q-15 0 -22.5 -5.5t-11.5 -20.5l-167 -584h231q40 0 65 17.5t35 38.5t28 75q5 13 7 20z" />
    <glyph glyph-name="M" unicode="M" horiz-adv-x="887" 
d="M886 645q-15 0 -22.5 -5.5t-11.5 -20.5l-160 -558q-4 -15 0 -20.5t19 -5.5h79l-10 -35h-253l10 35h69q15 0 22.5 5.5t11.5 20.5l160 560l-369 -440h-21l-124 439l-160 -559q-5 -15 -1 -20.5t19 -5.5h79l-10 -35h-249l10 35h79q15 0 22.5 5.5t11.5 20.5l160 558
q4 15 0 20.5t-19 5.5h-79l10 35h164l121 -431l360 431h171l-10 -35h-79z" />
    <glyph glyph-name="N" unicode="N" horiz-adv-x="766" 
d="M859 680l-10 -35h-84q-15 0 -21.5 -5.5t-11.5 -20.5l-178 -619h-26l-242 620l-160 -559q-5 -15 -1 -20.5t19 -5.5h79l-10 -35h-249l10 35h79q15 0 22.5 5.5t11.5 20.5l160 558q4 15 0 20.5t-19 5.5h-79l10 35h156l227 -585l151 524q4 15 0 20.5t-19 5.5h-79l10 35h254z
" />
    <glyph glyph-name="O" unicode="O" horiz-adv-x="725" 
d="M331 -10q-110 0 -181.5 76t-73.5 193q0 75 26 151t72 138.5t117.5 102t153.5 39.5q110 0 182 -76t73 -193q1 -101 -42.5 -198.5t-130.5 -165t-196 -67.5zM333 25q71 0 132.5 39t99.5 99t59 130.5t20 137.5q-2 97 -58 161t-142 64q-73 0 -134.5 -38.5t-99.5 -99.5
t-58.5 -131.5t-19.5 -137.5q2 -98 58.5 -161t142.5 -63z" />
    <glyph glyph-name="P" unicode="P" horiz-adv-x="619" 
d="M432 680q101 0 158 -50t57 -131q0 -102 -87.5 -166.5t-216.5 -64.5h-144l-59 -206q-4 -14 -0.5 -20.5t18.5 -6.5h137l-10 -35h-321l10 35h80q15 0 22.5 5.5t11.5 21.5l160 556q4 16 -0.5 21.5t-18.5 5.5h-80l10 35h273zM349 302q104 0 173.5 57t69.5 144q0 65 -43 104
t-123 39h-119l-98 -344h140z" />
    <glyph glyph-name="Q" unicode="Q" horiz-adv-x="723" 
d="M700 421q1 -101 -42.5 -198.5t-130.5 -165t-196 -67.5q-110 0 -181.5 76t-73.5 193q0 75 26 151t72 138.5t117.5 102t153.5 39.5q110 0 182 -76t73 -193zM132 249q2 -98 58.5 -161t142.5 -63q71 0 132.5 39t99.5 99t59 130.5t20 137.5q-2 97 -58 161t-142 64
q-73 0 -134.5 -38.5t-99.5 -99.5t-58.5 -131.5t-19.5 -137.5zM553 -86q18 0 29.5 -11.5t10.5 -28.5q-2 -26 -28.5 -46t-63.5 -20q-34 0 -60 17.5t-55 50.5q-3 3 -14 15.5t-14.5 15.5t-12.5 12.5t-14 12t-13.5 7.5t-16 6.5t-15.5 1.5q-19 0 -32 -9q28 -2 28 -29
q0 -16 -12 -27t-29 -11t-28 11.5t-11 28.5q0 27 25 44t61 17q59 0 122 -71q3 -3 17 -19t19 -20.5t16.5 -14t22 -12.5t22.5 -3q21 0 37 11q-31 4 -31 35q0 16 11 26t29 10z" />
    <glyph glyph-name="R" unicode="R" horiz-adv-x="689" 
d="M512 71q8 -20 21.5 -28t43.5 -8h67l-10 -35h-167l-59 197q-16 51 -41 68.5t-75 17.5h-89l-64 -222q-4 -14 -0.5 -20t18.5 -6h92l-10 -35h-276l10 35h80q15 0 21.5 5.5t11.5 20.5l160 558q5 13 2 19.5t-20 6.5h-79l10 35h277q100 0 159.5 -45.5t59.5 -126.5
q0 -90 -77.5 -150.5t-194.5 -66.5q30 -9 48 -32.5t36 -69.5zM213 318h135q107 0 179.5 54t72.5 137q0 65 -46 100.5t-125 35.5h-122z" />
    <glyph glyph-name="S" unicode="S" horiz-adv-x="548" 
d="M366 690q79 0 141 -40t62 -100q0 -27 -12 -42t-33 -15q-18 0 -29.5 11t-11.5 28q0 19 12.5 31t31.5 12h5q-14 36 -62 57.5t-101 21.5q-79 0 -129.5 -41.5t-50.5 -100.5q0 -42 30 -74t72.5 -54t85.5 -45.5t73 -61.5t30 -89q0 -81 -66 -140t-165 -59q-90 0 -156 49.5
t-68 131.5q0 26 11.5 46.5t36.5 20.5q19 0 29.5 -11t10.5 -27q0 -17 -12.5 -29.5t-31.5 -12.5h-7q5 -59 57.5 -95.5t126.5 -36.5q82 0 131.5 45t49.5 106q0 44 -30 77t-73 55t-86 44.5t-73 59.5t-30 86q0 80 66.5 136t164.5 56z" />
    <glyph glyph-name="T" unicode="T" horiz-adv-x="656" 
d="M729 680l-54 -185h-35q21 88 20 109q-4 38 -55 41h-12h-126l-167 -584q-5 -15 -1 -20.5t19 -5.5h117l-10 -35h-338l10 35h117q15 0 21.5 5.5t11.5 20.5l167 584h-124q-25 0 -43 -6.5t-29 -13.5t-23 -28.5t-16.5 -34t-16.5 -47.5q-5 -13 -7 -20h-35l54 185h555z" />
    <glyph glyph-name="U" unicode="U" horiz-adv-x="691" 
d="M314 -10q-117 0 -177.5 73t-29.5 182l109 374q4 15 0 20.5t-19 5.5h-69l10 35h256l-10 -35h-82q-15 0 -21.5 -5.5t-11.5 -20.5l-109 -382q-26 -91 18.5 -150.5t139.5 -59.5q75 0 130 42.5t75 114.5l126 435q4 15 0 20.5t-19 5.5h-75l10 35h235l-10 -35h-69
q-15 0 -22.5 -5.5t-11.5 -20.5l-126 -441q-25 -86 -90.5 -137t-156.5 -51z" />
    <glyph glyph-name="V" unicode="V" horiz-adv-x="710" 
d="M602 680h231l-10 -35h-35q-34 0 -55 -30l-435 -615h-25l-86 615q-2 17 -11 23.5t-28 6.5h-34l10 35h241l-10 -35h-87q-11 0 -18 -8t-5 -19l70 -536l377 538q8 10 5.5 17.5t-13.5 7.5h-92z" />
    <glyph glyph-name="W" unicode="W" horiz-adv-x="1082" 
d="M974 680h231l-10 -35h-40q-35 0 -55 -30l-398 -615h-25l-40 574l-362 -574h-25l-58 616q-3 29 -39 29h-39l10 35h241l-10 -35h-77q-33 0 -30 -33l46 -512l324 514q9 14 5 22.5t-20 8.5h-85l10 35h283l-10 -35h-85q-15 0 -23.5 -9t-7.5 -23l37 -514l334 514q20 32 -12 32
h-80z" />
    <glyph glyph-name="X" unicode="X" horiz-adv-x="706" 
d="M578 680h236l-10 -35h-49q-35 0 -64 -28l-286 -274l116 -273q15 -35 50 -35h58l-10 -35h-251l10 35h64q14 0 20 8t2 20l-96 243l-250 -243q-13 -12 -11 -20t16 -8h68l-10 -35h-237l10 35h50q35 0 64 28l283 274l-119 273q-15 35 -49 35h-54l10 35h251l-10 -35h-69
q-14 0 -20 -8t-2 -20l99 -243l253 243q13 12 11 20t-16 8h-68z" />
    <glyph glyph-name="Y" unicode="Y" horiz-adv-x="649" 
d="M514 680h258l-10 -35h-56q-37 0 -62 -30l-287 -331l-64 -223q-5 -15 -1 -20.5t19 -5.5h79l-10 -35h-262l9 35h79q15 0 22.5 5.5t11.5 20.5l64 222l-91 334q-8 28 -43 28h-56l10 35h266l-10 -35h-84q-35 0 -27 -31l76 -294l255 296q12 14 9.5 21.5t-18.5 7.5h-87z" />
    <glyph glyph-name="Z" unicode="Z" horiz-adv-x="578" 
d="M644 680l-5 -15l-574 -631h299q10 0 19.5 2t16.5 4.5t14 9.5t12 11.5t10.5 15.5t9 17t9 21.5t8 22.5t9 25.5t9.5 27.5h35l-55 -191h-482l4 15l577 632h-293q-31 0 -52.5 -19.5t-30 -40t-26.5 -72.5q-2 -5 -3 -8t-2.5 -7t-2.5 -8h-35l54 188h475z" />
    <glyph glyph-name="bracketleft" unicode="[" horiz-adv-x="347" 
d="M259 776h218l-8 -32h-176l-233 -813h176l-10 -32h-218z" />
    <glyph glyph-name="backslash" unicode="\" horiz-adv-x="380" 
d="M166 776l137 -877h-39l-136 877h38z" />
    <glyph glyph-name="bracketright" unicode="]" horiz-adv-x="347" 
d="M138 -101h-218l8 32h176l233 813h-176l10 32h218z" />
    <glyph glyph-name="asciicircum" unicode="^" horiz-adv-x="391" 
d="M347 441l-37 201l-151 -201h-40l186 239h28l49 -239h-35z" />
    <glyph glyph-name="underscore" unicode="_" horiz-adv-x="395" 
d="M-99 -95h395l-10 -35h-395z" />
    <glyph glyph-name="grave" unicode="`" horiz-adv-x="242" 
d="M255 574h-21q-20 25 -41.5 69t-21.5 66q0 14 9 22t20 8q23 0 31 -26q15 -44 24 -139z" />
    <glyph glyph-name="a" unicode="a" horiz-adv-x="584" 
d="M168 -10q-67 0 -103 45t-36 126q0 78 33.5 157.5t95 134t133.5 54.5q60 0 94 -43t32 -128h4l45 164h49l-115 -396q-10 -35 -2 -54.5t32 -19.5q54 0 99 130h29q-30 -87 -63.5 -128.5t-77.5 -41.5q-42 0 -59 32.5t-1 84.5l5 14h-5q-31 -60 -81.5 -95.5t-107.5 -35.5z
M181 23q87 0 151.5 101t64.5 212q0 63 -24.5 100.5t-74.5 37.5q-61 0 -113 -53.5t-78 -125t-26 -136.5q0 -64 26 -100t74 -36z" />
    <glyph glyph-name="b" unicode="b" horiz-adv-x="531" 
d="M368 506q66 0 100 -44.5t34 -121.5q0 -81 -33 -161t-95.5 -134.5t-135.5 -54.5q-63 0 -95 42t-30 116h-4l-59 -148h-29l178 619q4 15 0 20.5t-19 5.5h-69l10 35h144l-96 -311h6q79 137 193 137zM233 28q61 0 112.5 52t78 123.5t26.5 139.5q0 60 -24.5 95t-71.5 35
q-85 0 -152.5 -102t-67.5 -213q0 -60 24.5 -95t74.5 -35z" />
    <glyph glyph-name="c" unicode="c" horiz-adv-x="486" 
d="M371 342q0 17 12.5 28.5t33.5 11.5q6 0 9 -1q-8 42 -40 66.5t-81 24.5q-63 0 -114 -43.5t-76.5 -107t-25.5 -130.5q0 -79 37.5 -122t97.5 -43q105 0 160 115h31q-67 -151 -201 -151q-76 0 -126 56t-50 150q0 120 78 215.5t185 95.5q71 0 114.5 -40.5t43.5 -98.5
q0 -29 -13.5 -47t-34.5 -18q-17 0 -28.5 11t-11.5 28z" />
    <glyph glyph-name="d" unicode="d" horiz-adv-x="584" 
d="M168 -10q-67 0 -103 45t-36 126q0 78 33.5 157t95 133.5t133.5 54.5q61 0 94.5 -43t31.5 -127h4l78 283q5 15 1 20.5t-19 5.5h-69l10 35h144l-166 -576q-10 -35 -2 -54.5t32 -19.5q54 0 99 130h29q-30 -87 -63.5 -128.5t-77.5 -41.5q-42 0 -59 32.5t-1 84.5l5 14h-5
q-31 -60 -81.5 -95.5t-107.5 -35.5zM181 24q87 0 151.5 100.5t64.5 211.5q0 133 -99 133q-61 0 -113 -52t-78 -122.5t-26 -135.5q0 -64 26 -99.5t74 -35.5z" />
    <glyph glyph-name="e" unicode="e" horiz-adv-x="461" 
d="M442 411q0 -48 -38 -86.5t-99 -61t-113 -35t-105 -19.5q-3 -23 -3 -44q0 -64 27 -101.5t84 -37.5q111 0 173 135h32q-77 -171 -213 -171q-76 0 -114 47t-38 127q0 129 82.5 235.5t202.5 106.5q56 0 89 -24.5t33 -70.5zM315 474q-83 0 -144 -72.5t-80 -170.5
q307 55 307 175q0 33 -22.5 50.5t-60.5 17.5z" />
    <glyph glyph-name="f" unicode="f" horiz-adv-x="333" 
d="M367 690q40 0 68 -21.5t28 -53.5q0 -20 -12.5 -34t-31.5 -14q-17 0 -28 11t-11 27q0 36 39 38q-17 17 -47 17q-81 0 -116 -106l-17 -54h147l-9 -35h-148l-145 -504q-43 -151 -160 -151q-42 0 -69.5 21t-27.5 54q0 21 12 34.5t31 13.5q17 0 28.5 -11t11.5 -27
q0 -17 -11.5 -27.5t-29.5 -10.5h-4q21 -18 54 -18q45 0 72 30t44 92l145 504h-95l9 35h71q14 0 20 4.5t10 16.5l12 36q48 133 160 133z" />
    <glyph glyph-name="g" unicode="g" horiz-adv-x="519" 
d="M478 500h48l-145 -495q-26 -89 -96.5 -142t-158.5 -53q-73 0 -114.5 28t-41.5 68q0 23 13 37.5t32 14.5q16 0 27 -10.5t11 -26.5q0 -17 -12.5 -28t-32.5 -13q19 -40 112 -40q74 0 133 45t81 120l37 127h-3q-70 -112 -179 -112q-70 0 -111.5 45t-41.5 124q0 74 32.5 146.5
t92.5 122t130 49.5q63 0 102 -43t36 -128h2zM198 54q87 0 149.5 89t62.5 193q0 64 -28 99t-80 35q-62 0 -113 -47.5t-76.5 -112t-25.5 -124.5q0 -61 29.5 -96.5t81.5 -35.5z" />
    <glyph glyph-name="h" unicode="h" horiz-adv-x="583" 
d="M420 -10q-39 0 -59.5 31t-3.5 84l64 198q25 79 11 121t-64 42q-155 0 -294 -466h-52l179 619q5 15 1 20.5t-19 5.5h-69l10 35h144l-96 -328l-39 -109h6q51 127 110.5 195.5t132.5 68.5q67 0 93 -50.5t-3 -148.5l-70 -212q-9 -26 -0.5 -46t31.5 -20q50 0 95 130h29
q-29 -86 -62 -128t-75 -42z" />
    <glyph glyph-name="i" unicode="i" horiz-adv-x="312" 
d="M271 585q-19 0 -31 12t-12 31t12 31.5t31 12.5t31 -12.5t12 -31.5t-12 -31t-31 -12zM256 160h30q-57 -170 -140 -170q-41 0 -59.5 32.5t-1.5 82.5l100 296q10 29 2.5 48t-29.5 19q-27 0 -50.5 -31t-47.5 -100h-30q57 170 143 170q41 0 58.5 -32t-0.5 -83l-100 -296
q-10 -28 -1.5 -47t30.5 -19q51 0 96 130z" />
    <glyph glyph-name="j" unicode="j" horiz-adv-x="268" 
d="M267 672q19 0 31 -12.5t12 -31.5t-12 -31t-31 -12t-31 12t-12 31t12 31.5t31 12.5zM167 507q42 0 59.5 -31.5t2.5 -83.5l-128 -446q-18 -63 -59 -99.5t-95 -36.5q-44 0 -70.5 23.5t-26.5 62.5q0 20 13 33.5t32 13.5q15 0 26 -10t11 -26q0 -18 -13 -29t-32 -12
q20 -26 56 -26q78 0 109 106l131 455q18 67 -28 67q-52 0 -98 -131h-29q57 170 139 170z" />
    <glyph glyph-name="k" unicode="k" horiz-adv-x="516" 
d="M124 680h129l-195 -680h-49l177 619q5 15 1 20.5t-19 5.5h-54zM429 446q0 18 14 29q-25 -2 -56.5 -30t-81 -74.5t-104.5 -77.5q43 -4 71.5 -19t41.5 -40t17.5 -50t3.5 -59q-1 -27 0 -48t9.5 -34t25.5 -13q27 0 48 31.5t42 98.5h30q-28 -89 -59 -129.5t-76 -40.5
q-78 0 -73 125q0 21 0.5 43t-5.5 42.5t-16 36.5t-32 27t-54 13l-5 14q45 31 88.5 74t68.5 71.5t57.5 49.5t66.5 21q33 0 48 -14.5t15 -35.5t-13 -34.5t-33 -13.5q-17 0 -28 10.5t-11 26.5z" />
    <glyph glyph-name="l" unicode="l" horiz-adv-x="279" 
d="M126 30q52 0 97 130h30q-58 -170 -139 -170q-43 0 -59.5 31.5t-2.5 83.5l147 514q4 15 0 20.5t-19 5.5h-69l10 35h144l-167 -582q-9 -31 -2 -49.5t30 -18.5z" />
    <glyph glyph-name="m" unicode="m" horiz-adv-x="897" 
d="M841 160h30q-58 -170 -139 -170q-43 0 -61.5 32.5t-1.5 82.5l66 198q26 79 13.5 121t-61.5 42q-148 0 -287 -466h-54l94 303q50 163 -48 163q-42 0 -81 -34.5t-73.5 -101.5t-63.5 -145t-61 -185h-49l114 392q22 76 -26 76q-52 0 -97 -131h-30q57 170 139 170
q42 0 57 -31.5t-1 -83.5l-46 -144h4q51 127 103.5 193t123.5 66q67 0 90.5 -51.5t-7.5 -147.5l-23 -60h3q51 126 105.5 192.5t126.5 66.5q67 0 91.5 -50.5t-5.5 -148.5l-70 -212q-10 -29 -2.5 -47.5t30.5 -18.5q52 0 97 130z" />
    <glyph glyph-name="n" unicode="n" horiz-adv-x="622" 
d="M566 160h30q-30 -87 -63 -128.5t-75 -41.5q-43 0 -61.5 32.5t-2.5 82.5l66 198q25 79 11 121t-64 42q-155 0 -294 -466h-49l114 392q22 76 -25 76q-27 0 -50.5 -31t-47.5 -100h-30q30 87 63.5 128.5t77.5 41.5q43 0 57.5 -31.5t-2.5 -79.5l-50 -153h5q107 264 244 264
q68 0 94 -50.5t-3 -148.5l-70 -212q-9 -25 -1 -45.5t31 -20.5q50 0 95 130z" />
    <glyph glyph-name="o" unicode="o" horiz-adv-x="501" 
d="M202 -9q-77 0 -122 49.5t-45 138.5q0 75 29 148t91.5 126t142.5 53q78 0 123 -48.5t45 -137.5q0 -76 -30.5 -150t-92.5 -126.5t-141 -52.5zM203 23q52 0 95.5 32.5t68 82t38 101t13.5 95.5q0 69 -33.5 104.5t-87.5 35.5q-52 0 -95 -32t-67.5 -81t-37.5 -100.5t-13 -95.5
q0 -70 32.5 -106t86.5 -36z" />
    <glyph glyph-name="p" unicode="p" horiz-adv-x="582" 
d="M-69 -180l10 35h60q15 0 21.5 5.5t11.5 20.5l148 505q11 38 3 60t-32 22q-52 0 -98 -131h-30q30 87 64 128.5t78 41.5q42 0 60.5 -33t1.5 -88l-4 -13h4q73 133 190 133q63 0 98 -44.5t35 -122.5q0 -80 -33 -160t-95 -134.5t-135 -54.5q-65 0 -97 44t-29 122h-4l-76 -275
q-4 -15 0 -20.5t19 -5.5h94l-10 -35h-255zM284 28q61 0 112.5 52t78 123.5t26.5 139.5q0 60 -26 95t-70 35q-85 0 -152.5 -102t-67.5 -213q0 -60 24.5 -95t74.5 -35z" />
    <glyph glyph-name="q" unicode="q" horiz-adv-x="524" 
d="M338 -119q-4 -15 0 -20.5t19 -5.5h54l-11 -35h-244l11 35h89q15 0 21.5 5.5t11.5 20.5l70 234h-6q-66 -125 -180 -125q-68 0 -106 45t-38 124t33 158.5t94.5 134t133.5 54.5q63 0 96 -44t29 -131h5l46 169h49zM186 24q58 0 107.5 49.5t76 120t26.5 139.5q0 136 -98 136
q-62 0 -113.5 -52t-78 -123t-26.5 -137q0 -62 28.5 -97.5t77.5 -35.5z" />
    <glyph glyph-name="r" unicode="r" horiz-adv-x="444" 
d="M407 507q35 0 53.5 -15.5t18.5 -39.5q0 -20 -12.5 -34.5t-31.5 -14.5q-16 0 -28 10t-12 27q0 21 17 30q-5 1 -17 1q-30 0 -62 -23.5t-68.5 -75t-75.5 -146.5t-76 -226h-49l113 388q23 80 -25 80q-52 0 -97 -131h-30q57 170 139 170q43 0 58.5 -32.5t-1.5 -82.5l-51 -149
h4q60 148 114.5 206t118.5 58z" />
    <glyph glyph-name="s" unicode="s" horiz-adv-x="444" 
d="M270 507q63 0 111 -28.5t48 -76.5q0 -22 -11.5 -37t-30.5 -15q-17 0 -28 10.5t-11 26.5q0 18 15 28t32 9q-10 24 -44 37.5t-74 13.5q-56 0 -91 -28t-35 -71q0 -32 22 -55t54 -38t64 -31t54 -44t22 -67q0 -65 -51.5 -108t-125.5 -43q-68 0 -120 37.5t-52 95.5
q0 27 12.5 42.5t32.5 15.5q16 0 26.5 -10t10.5 -25q0 -18 -15 -30t-34 -10q7 -34 44 -59t89 -25q57 0 95.5 31t38.5 77q0 33 -22.5 56t-54.5 37.5t-63.5 30t-54 43.5t-22.5 68q0 63 48 102.5t121 39.5z" />
    <glyph glyph-name="t" unicode="t" horiz-adv-x="347" 
d="M211 465l-100 -349q-12 -40 1 -63t43 -23q32 0 62.5 33t53.5 97h29q-57 -170 -155 -170q-50 0 -74 35t-8 94l100 346h-91l10 35h92l51 100h25l-29 -100h178l-10 -35h-178z" />
    <glyph glyph-name="u" unicode="u" horiz-adv-x="622" 
d="M55 337h-30q30 87 63 128.5t75 41.5q43 0 61.5 -32.5t2.5 -82.5l-66 -198q-25 -79 -11 -121t64 -42q155 0 294 466h49l-114 -392q-22 -76 25 -76q27 0 50.5 31t47.5 100h30q-30 -87 -63.5 -128.5t-77.5 -41.5q-43 0 -57.5 31.5t2.5 79.5l50 153h-5q-107 -264 -244 -264
q-68 0 -94 51t3 148l70 212q9 25 1 45.5t-31 20.5q-50 0 -95 -130z" />
    <glyph glyph-name="v" unicode="v" horiz-adv-x="511" 
d="M423 507q33 0 56 -29t23 -81q0 -53 -26 -123t-67 -133.5t-99 -107t-115 -43.5q-51 0 -79 30.5t-28 76.5q0 50 48.5 176t48.5 157q0 38 -33 38q-51 0 -97 -131h-30q29 87 63.5 128.5t78.5 41.5q31 0 50 -18.5t19 -47.5q0 -35 -49.5 -160t-49.5 -172q0 -36 19 -56.5
t52 -20.5q60 0 122.5 66.5t100 153t37.5 150.5q0 31 -15 53q-12 -28 -40 -28q-17 0 -28 10.5t-11 27.5q0 18 14 30t35 12z" />
    <glyph glyph-name="w" unicode="w" horiz-adv-x="746" 
d="M652 507q33 0 55.5 -29.5t22.5 -89.5q0 -57 -21.5 -126t-56.5 -129.5t-88 -101.5t-110 -41q-50 0 -78 30.5t-28 80.5q0 33 20 94h-3q-77 -205 -193 -205q-48 0 -77 28.5t-29 75.5q0 44 30 115t60 134t30 88q0 16 -10 26.5t-25 10.5q-51 0 -96 -131h-30q58 170 144 170
q29 0 47.5 -19.5t18.5 -48.5q0 -40 -59 -164t-59 -171q0 -31 18 -51.5t48 -20.5q132 0 260 468h45q-18 -69 -46 -162.5t-41 -143t-13 -77.5q0 -39 19.5 -62t54.5 -23q58 0 113.5 62.5t88 147.5t32.5 157q0 39 -16 56q-11 -28 -39 -28q-18 0 -28 11.5t-10 26.5q0 18 13.5 30
t35.5 12z" />
    <glyph glyph-name="x" unicode="x" horiz-adv-x="551" 
d="M504 507q30 0 47 -15.5t17 -36.5q0 -17 -11.5 -29t-28.5 -12q-16 0 -26 10.5t-10 25.5q0 17 14 28h-3q-52 0 -100 -52t-77 -125.5t-36 -144.5q-13 -126 58 -126q72 0 113 130h30q-55 -170 -157 -170q-52 0 -75 46.5t-6 142.5h-4q-18 -38 -36 -67t-43.5 -59t-57 -46.5
t-66.5 -16.5q-30 0 -47.5 15.5t-17.5 36.5q0 18 12 30t29 12q16 0 26 -10.5t10 -25.5q0 -19 -14 -29h3q52 0 100 52.5t77 125.5t36 144q13 127 -58 127q-72 0 -113 -131h-30q55 170 157 170q52 0 75 -46t6 -143h4q18 38 36 67.5t43.5 59t57 46t66.5 16.5z" />
    <glyph glyph-name="y" unicode="y" horiz-adv-x="593" 
d="M476 507q33 0 56.5 -31t23.5 -92q0 -75 -37 -174t-95.5 -188t-139 -150.5t-158.5 -61.5q-57 0 -101.5 29t-44.5 69q0 21 12.5 35.5t32.5 14.5q15 0 26 -10t11 -26q0 -17 -11.5 -28.5t-30.5 -13.5q15 -16 45.5 -28t62.5 -12q51 0 102 31q51 283 39.5 440t-94.5 157
q-36 0 -63 -31.5t-51 -99.5h-31q27 88 63.5 129t92.5 41q45 0 74.5 -25.5t42 -71t15.5 -103t-3 -126t-14.5 -135t-19.5 -135.5q-1 -3 -1 -4q97 83 167.5 230.5t70.5 250.5q0 40 -15 64q-13 -25 -38 -25q-17 0 -27.5 11.5t-10.5 26.5q0 17 13.5 29.5t35.5 12.5z" />
    <glyph glyph-name="z" unicode="z" horiz-adv-x="442" 
d="M414 401q-34 -35 -78.5 -83t-68.5 -70q-37 -32 -61 -52t-42.5 -34t-27.5 -20t-28 -18.5t-31 -20.5q54 -33 73.5 -44t50 -22t59.5 -11q55 0 71 23q-18 1 -28 12t-10 26q0 16 11 26.5t27 10.5q17 0 28.5 -12t11.5 -31q0 -34 -32.5 -62.5t-96.5 -28.5q-45 0 -81.5 18.5
t-102.5 69.5q-8 -45 -24 -66.5t-32 -21.5q-24 0 -24 28q0 42 58 90l338 282q-8 5 -31 18.5t-29 17t-23.5 13t-24 12t-20 8.5t-22 7.5t-19.5 3t-23 1.5q-56 0 -72 -23q19 -1 29 -11.5t10 -25.5q0 -16 -10.5 -26.5t-27.5 -10.5t-28.5 12t-11.5 31q0 33 33 61.5t96 28.5
q47 0 85 -20t112 -78l3 3q-4 38 8 66.5t33 28.5q22 0 22 -25q0 -14 -8.5 -29.5t-15.5 -23.5t-25 -28z" />
    <glyph glyph-name="braceleft" unicode="{" horiz-adv-x="378" 
d="M261 632q20 77 75.5 110t171.5 34l-9 -33q-89 0 -131 -25.5t-59 -85.5l-54 -187q-29 -97 -123 -107l-1 -1v-1q89 -10 62 -107l-54 -187q-17 -60 10.5 -85.5t116.5 -25.5l-10 -33q-115 1 -151.5 34t-12.5 110l59 187q13 43 -3 67.5t-62 24.5h-45l4 16l5 16h45
q46 0 76 24.5t42 67.5z" />
    <glyph glyph-name="bar" unicode="|" horiz-adv-x="236" 
d="M251 776h35l-251 -877h-35z" />
    <glyph glyph-name="braceright" unicode="}" horiz-adv-x="378" 
d="M342 353h45l-4 -16l-5 -16h-45q-46 0 -76 -24.5t-42 -67.5l-48 -187q-20 -77 -75.5 -110t-171.5 -34l9 33q89 0 131 25.5t59 85.5l54 187q29 97 123 107l1 1v1q-89 10 -62 107l54 187q17 60 -10.5 85.5t-116.5 25.5l10 33q115 -1 151.5 -34t12.5 -110l-59 -187
q-13 -43 3 -67.5t62 -24.5z" />
    <glyph glyph-name="asciitilde" unicode="~" horiz-adv-x="587" 
d="M511 350q-33 -87 -112 -87q-39 0 -96 33t-90 33q-51 0 -75 -56l-24 10q33 85 111 85q39 0 99 -33t88 -33q47 0 73 56z" />
    <glyph glyph-name="exclamdown" unicode="&#xa1;" horiz-adv-x="258" 
d="M189 419q-18 0 -30 12.5t-12 31.5t12 31.5t30 12.5q19 0 31.5 -13t12.5 -32q0 -18 -12.5 -30.5t-31.5 -12.5zM148 272q-91 -387 -102 -422q-11 -39 -41 -31q-32 8 -19 48q6 22 57 173.5t79 231.5h26z" />
    <glyph glyph-name="cent" unicode="&#xa2;" horiz-adv-x="486" 
d="M371 342q0 17 12.5 28.5t33.5 11.5q6 0 9 -1q-13 71 -86 87l-176 -428q28 -14 60 -14q105 0 160 115h31q-67 -151 -201 -151q-36 0 -65 13l-35 -87h-35l40 97l2 4q-83 56 -83 179q0 120 78 215.5t185 95.5q13 0 19 -1l35 86h37l-39 -92q49 -13 77.5 -49t28.5 -83
q0 -30 -13.5 -47.5t-34.5 -17.5q-17 0 -28.5 11t-11.5 28zM138 57l167 415q-63 0 -114 -43.5t-76.5 -107t-25.5 -130.5q0 -88 49 -134z" />
    <glyph glyph-name="sterling" unicode="&#xa3;" horiz-adv-x="625" 
d="M429 690q78 0 131.5 -38.5t53.5 -98.5q0 -30 -13 -46t-34 -16q-18 0 -29.5 10.5t-11.5 28.5q0 19 14 29.5t34 10.5h3q-7 35 -48 60t-100 25q-91 0 -149.5 -57t-58.5 -140q0 -40 27 -121h283l-11 -35h-261q10 -35 10 -66q0 -67 -46 -135q31 -20 47.5 -30t45.5 -20.5
t56 -10.5q38 0 71.5 20.5t52 43t40.5 56.5l26 -9q-35 -70 -86.5 -115.5t-116.5 -45.5q-31 0 -63.5 13.5t-49 25t-49.5 37.5q-62 -76 -121 -76q-40 0 -66.5 22.5t-26.5 55.5q0 38 30 63.5t75 25.5q49 0 107 -37q22 43 22 84q0 40 -20 98h-126l11 35h104q-19 61 -19 103
q0 104 75.5 177t186.5 73zM80 22q47 0 93 64q-52 38 -86 38q-28 0 -46.5 -16t-18.5 -39q0 -20 16.5 -33.5t41.5 -13.5z" />
    <glyph glyph-name="currency" unicode="&#xa4;" horiz-adv-x="547" 
d="M591 568q12 -19 -13 -38q-13 -11 -33 -25t-50 -34t-49 -33q21 -32 21 -74q0 -84 -68 -140q54 -54 64 -68q19 -27 -3 -44q-11 -7 -23 -4t-19 13q-5 7 -44 85q-44 -26 -91 -26q-67 0 -108 43q-88 -79 -128 -108q-23 -21 -38 -2q-12 18 13 37q45 34 136 95q-19 33 -19 71
q0 81 65 138q-63 66 -68 72q-19 27 3 44q11 7 23 4t19 -13q7 -9 14 -23l17 -34l16 -32q46 28 96 28q63 0 104 -39q22 19 66 55t59 50q27 20 38 2zM285 213q58 0 100.5 44t42.5 104q0 46 -29.5 76t-77.5 30q-59 0 -101.5 -44.5t-42.5 -103.5q0 -46 30 -76t78 -30z" />
    <glyph glyph-name="yen" unicode="&#xa5;" horiz-adv-x="649" 
d="M516 680h256l-10 -35h-56q-35 0 -62 -30l-272 -303h195l-10 -35h-203l-24 -85h202l-10 -35h-202l-27 -96q-5 -15 -1 -20.5t19 -5.5h94l-10 -35h-292l10 35h94q15 0 21.5 5.5t11.5 20.5l27 96h-193l10 35h193l24 85h-192l10 35h185l-91 305q-8 28 -43 28h-56l10 35h266
l-10 -35h-83q-17 0 -24 -8.5t-3 -22.5l79 -278l251 280q12 14 9.5 21.5t-18.5 7.5h-85z" />
    <glyph glyph-name="brokenbar" unicode="&#xa6;" horiz-adv-x="236" 
d="M251 776h35l-106 -371h-35zM108 275h35l-108 -376h-35z" />
    <glyph glyph-name="section" unicode="&#xa7;" horiz-adv-x="539" 
d="M442 535q0 19 15.5 29.5t35.5 8.5q-7 41 -39 64t-78 23q-53 0 -85.5 -29t-32.5 -69q0 -31 24.5 -58.5t59 -49.5t69 -45t59 -56t24.5 -72q0 -89 -115 -122q4 -12 4 -29q0 -58 -46.5 -98.5t-114.5 -40.5q-66 0 -114 37t-48 95q0 30 14 46.5t35 16.5q17 0 27.5 -10t10.5 -26
q0 -18 -15 -30t-36 -11q9 -43 43 -65t80 -22q54 0 85.5 27.5t31.5 67.5q0 33 -24.5 61t-59 50.5t-69.5 46t-59.5 57.5t-24.5 74q0 86 114 120q-2 14 -2 23q0 58 48 99.5t115 41.5q63 0 107.5 -37t44.5 -91q0 -28 -13.5 -44.5t-32.5 -16.5q-16 0 -27 9.5t-11 24.5zM445 268
q0 37 -29.5 69t-66.5 52.5t-76 51t-53 63.5q-72 -25 -72 -88q0 -37 29 -68.5t65 -52t75.5 -51.5t54.5 -63q73 24 73 87z" />
    <glyph glyph-name="dieresis" unicode="&#xa8;" horiz-adv-x="346" 
d="M186 585q-19 0 -31 12t-12 31t12 31.5t31 12.5t31 -12.5t12 -31.5t-12 -31t-31 -12zM377 585q-19 0 -31 12t-12 31t12 31.5t31 12.5t31 -12.5t12 -31.5t-12 -31t-31 -12z" />
    <glyph glyph-name="copyright" unicode="&#xa9;" horiz-adv-x="787" 
d="M419 690q147 0 248 -100.5t101 -248.5q0 -149 -101 -250t-248 -101t-247.5 101t-100.5 250q0 147 100.5 248t247.5 101zM419 17q135 0 227.5 94t92.5 230q0 135 -92.5 229t-227.5 94q-132 0 -225.5 -94t-93.5 -229t93.5 -229.5t225.5 -94.5zM540 411q0 23 27 28
q-12 30 -44 54t-87 24q-74 0 -118.5 -47.5t-44.5 -129.5q0 -81 43 -128.5t116 -47.5q111 0 144 118l25 -7q-15 -66 -59.5 -103t-111.5 -37q-88 0 -145 58t-57 147q0 90 57.5 147.5t145.5 57.5q76 0 123.5 -43t47.5 -84q0 -16 -9.5 -25.5t-22.5 -9.5q-12 0 -21 8t-9 20z" />
    <glyph glyph-name="ordfeminine" unicode="&#xaa;" horiz-adv-x="555" 
d="M221 271q-54 0 -83.5 37t-29.5 105q0 65 26 127.5t75.5 104.5t107.5 42q53 0 80 -36.5t24 -106.5h3l39 138l45 -1l-89 -311q-8 -28 -1.5 -46t26.5 -18q22 0 40.5 24.5t40.5 85.5h27q-27 -76 -54.5 -110.5t-64.5 -34.5t-52 28.5t-2 72.5l4 12h-3q-28 -53 -70 -83t-89 -30z
M237 303q68 0 117 77t49 167q0 107 -79 107q-71 0 -120 -78.5t-49 -163.5q0 -109 82 -109zM53 153l9 33h422l-10 -33h-421z" />
    <glyph glyph-name="guillemotleft" unicode="&#xab;" horiz-adv-x="483" 
d="M197 79l-23 -17l-135 182l8 30l240 182l17 -25l-217 -174zM387 79l-23 -17l-135 182l8 30l240 182l17 -25l-217 -174z" />
    <glyph glyph-name="registered" unicode="&#xae;" horiz-adv-x="552" 
d="M334 690q100 0 168 -68t68 -168q0 -101 -68 -169.5t-168 -68.5t-167.5 68.5t-67.5 169.5q0 100 67.5 168t167.5 68zM334 242q89 0 149.5 61t60.5 151q0 89 -60.5 150t-149.5 61q-88 0 -148 -61t-60 -150q0 -90 60 -151t148 -61zM414 369q6 -11 25 -11h28v-22h-75l-33 70
q-8 17 -18 21.5t-32 4.5h-12v-65q0 -9 11 -9h38v-22h-120v22h27q10 0 10 9v186q0 10 -10 10h-27v22h116q41 0 67.5 -22t26.5 -54q0 -27 -19 -47.5t-50 -26.5q19 -12 28 -31zM297 454h41q28 0 45 16t17 39t-17 38.5t-45 15.5h-41v-109z" />
    <glyph glyph-name="macron" unicode="&#xaf;" horiz-adv-x="382" 
d="M176 642h255l-12 -41h-255z" />
    <glyph glyph-name="degree" unicode="&#xb0;" horiz-adv-x="367" 
d="M257 385q-63 0 -102.5 39.5t-39.5 99.5q0 67 46.5 116.5t113.5 49.5q63 0 102.5 -39.5t39.5 -98.5q0 -69 -47 -118t-113 -49zM258 419q51 0 87 38.5t36 91.5q0 46 -29.5 77t-76.5 31q-51 0 -87.5 -38.5t-36.5 -91.5q0 -46 30 -77t77 -31z" />
    <glyph glyph-name="plusminus" unicode="&#xb1;" horiz-adv-x="597" 
d="M314 367h-200l9 33h200l49 169h36l-48 -169h199l-9 -33h-200l-49 -169h-36zM30 76l10 34h436l-10 -34h-436z" />
    <glyph glyph-name="uni00B2" unicode="&#xb2;" horiz-adv-x="374" 
d="M269 350q29 1 39.5 13.5t22.5 49.5h30l-29 -103h-252l7 24q9 6 42.5 28.5t50.5 34.5t47.5 35t47.5 40t36 39t27.5 43t8.5 41q0 31 -20.5 48.5t-56.5 17.5q-55 0 -86 -38q13 0 21.5 -8.5t8.5 -20.5t-9.5 -21.5t-23.5 -9.5t-23 9t-9 24q0 31 37 62.5t94 31.5q51 0 83.5 -27
t32.5 -70q0 -36 -22 -71.5t-65 -69t-76.5 -55.5t-87.5 -52z" />
    <glyph glyph-name="uni00B3" unicode="&#xb3;" horiz-adv-x="344" 
d="M379 597q0 -41 -34.5 -68.5t-89.5 -29.5q40 -6 61 -30t21 -56q0 -46 -38.5 -77.5t-92.5 -31.5q-49 0 -85 26t-36 65q0 41 32 41q12 0 20.5 -8t8.5 -21t-9 -21t-23 -9q9 -21 31 -32.5t48 -11.5q42 0 68 25.5t26 58.5q0 30 -21 49t-57 19h-17l7 32h40q39 0 66 24.5t27 58.5
q0 28 -20 45t-55 17q-45 0 -73 -28q23 -7 23 -28q0 -12 -9 -20.5t-22 -8.5q-14 0 -22.5 9t-8.5 23q0 29 34.5 55t85.5 26q50 0 82 -26t32 -67z" />
    <glyph glyph-name="acute" unicode="&#xb4;" horiz-adv-x="242" 
d="M166 576q88 119 128 153q25 21 46 0q20 -21 -4 -45q-14 -15 -59.5 -49t-84.5 -59h-26z" />
    <glyph glyph-name="paragraph" unicode="&#xb6;" horiz-adv-x="657" 
d="M463 680h277l-10 -35h-86q-15 0 -21.5 -5.5t-11.5 -20.5l-187 -652q-45 -157 -250 -157q-141 0 -141 77q0 23 14.5 38.5t36.5 15.5q17 0 28 -11t11 -27q0 -19 -13 -31t-32 -14q16 -16 47 -16q48 0 76.5 29.5t47.5 95.5l94 327q-101 1 -159 39.5t-58 111.5q0 106 85 170.5
t252 64.5zM384 -33l195 678h-96l-194 -678q-27 -91 -74 -125q64 6 107.5 33.5t61.5 91.5z" />
    <glyph glyph-name="periodcentered" unicode="&#xb7;" horiz-adv-x="299" 
d="M176 387q19 0 31 -12t12 -31t-12 -31.5t-31 -12.5t-31 12.5t-12 31.5t12 31t31 12z" />
    <glyph glyph-name="cedilla" unicode="&#xb8;" horiz-adv-x="257" 
d="M12 -72q49 1 77.5 -18.5t28.5 -51.5q0 -37 -33.5 -63t-81.5 -26q-52 0 -94 30l17 25q35 -25 78 -25q31 0 51.5 16t20.5 41q0 27 -29 38.5t-78 5.5l-7 13l72 92h30z" />
    <glyph glyph-name="uni00B9" unicode="&#xb9;" horiz-adv-x="279" 
d="M206 346q-2 -8 0 -11t10 -3h72l-9 -29h-218l8 29h71q14 0 18 14l76 267q-31 -11 -83 -11l7 23q46 2 67 12t37 43h40z" />
    <glyph glyph-name="ordmasculine" unicode="&#xba;" horiz-adv-x="475" 
d="M264 273q-66 0 -108.5 40t-42.5 118q0 101 66.5 178.5t161.5 77.5q68 0 110 -43t42 -119q0 -100 -66.5 -176t-162.5 -76zM261 302q78 0 132.5 71.5t54.5 160.5q0 62 -28.5 92.5t-76.5 30.5q-78 0 -131.5 -73t-53.5 -162q0 -61 28 -90.5t75 -29.5zM43 153l9 33h337
l-10 -33h-336z" />
    <glyph glyph-name="guillemotright" unicode="&#xbb;" horiz-adv-x="483" 
d="M101 439l23 17l135 -182l-8 -30l-240 -182l-17 25l217 174zM291 439l23 17l135 -182l-8 -30l-240 -182l-17 25l217 174z" />
    <glyph glyph-name="onequarter" unicode="&#xbc;" horiz-adv-x="702" 
d="M758 696q18 0 18 -18q0 -16 -145.5 -144t-212.5 -182l-8 10q72 78 201 206t147 128zM263 332l-9 -29h-218l8 29h71q14 0 18 14l76 267q-31 -11 -83 -11l7 23q46 2 67 12t37 43h40l-96 -334q-2 -8 0 -11t10 -3h72zM624 275l-41 -142h65l-9 -29h-65l-17 -60q-2 -8 0 -11
t10 -3h40l-8 -30h-187l8 30h73q13 0 18 14l17 60h-175l8 29q87 70 122 118t44 95q9 34 34 34q8 0 13 -6.5t5 -16.5q0 -101 -192 -224h149l24 83q27 28 39 59h25zM370 328l8 -10q-56 -54 -115.5 -114t-93.5 -94.5t-65.5 -65t-47.5 -43.5t-23 -13t-12.5 6t-5.5 14
q0 18 144 143.5t211 176.5z" />
    <glyph glyph-name="onehalf" unicode="&#xbd;" horiz-adv-x="737" 
d="M742 696q18 0 18 -18q0 -16 -145.5 -144t-212.5 -182l-8 10q72 78 201 206t147 128zM263 332l-9 -29h-218l8 29h71q14 0 18 14l76 267q-31 -11 -83 -11l7 23q46 2 67 12t37 43h40l-96 -334q-2 -8 0 -11t10 -3h72zM709 283q0 -36 -22 -71.5t-65 -69t-76.5 -55.5t-87.5 -52
l124 5q29 1 39.5 13.5t22.5 49.5h30l-29 -103h-252l7 24q9 6 42.5 28.5t50.5 34.5t47.5 35t47.5 40t36 39t27.5 43t8.5 41q0 31 -20.5 48.5t-56.5 17.5q-55 0 -86 -38q13 0 21.5 -8.5t8.5 -20.5t-9.5 -21.5t-23.5 -9.5t-23 9t-9 24q0 31 37 62.5t94 31.5q51 0 83.5 -27
t32.5 -70zM-1 8q0 18 144 143.5t211 176.5l8 -10q-56 -54 -115.5 -114t-93.5 -94.5t-65.5 -65t-47.5 -43.5t-23 -13t-12.5 6t-5.5 14z" />
    <glyph glyph-name="threequarters" unicode="&#xbe;" horiz-adv-x="724" 
d="M780 696q18 0 18 -18q0 -16 -145.5 -144t-212.5 -182l-8 10q72 78 201 206t147 128zM186 304q-49 0 -85 26t-36 65q0 41 32 41q12 0 20.5 -8t8.5 -21t-9 -21t-23 -9q9 -21 31 -32.5t48 -11.5q42 0 68 25.5t26 58.5q0 30 -21 49t-57 19h-17l7 32h40q39 0 66 24.5t27 58.5
q0 28 -20 45t-55 17q-45 0 -73 -28q23 -7 23 -28q0 -12 -9 -20.5t-22 -8.5q-14 0 -22.5 9t-8.5 23q0 29 34.5 55t85.5 26q50 0 82 -26t32 -67t-34.5 -68.5t-89.5 -29.5q40 -6 61 -30t21 -56q0 -46 -38.5 -77.5t-92.5 -31.5zM647 275l-41 -142h65l-9 -29h-65l-17 -60
q-2 -8 0 -11t10 -3h40l-8 -30h-187l8 30h73q13 0 18 14l17 60h-175l8 29q87 70 122 118t44 95q9 34 34 34q8 0 13 -6.5t5 -16.5q0 -101 -192 -224h149l24 83q27 28 39 59h25zM392 328l8 -10q-56 -54 -115.5 -114t-93.5 -94.5t-65.5 -65t-47.5 -43.5t-23 -13t-12.5 6t-5.5 14
q0 18 144 143.5t211 176.5z" />
    <glyph glyph-name="questiondown" unicode="&#xbf;" horiz-adv-x="484" 
d="M293 419q-18 0 -30 12.5t-12 31.5t12 31.5t30 12.5q19 0 31.5 -13t12.5 -32q0 -18 -12.5 -30.5t-31.5 -12.5zM321 15q18 0 29 -13.5t11 -33.5q0 -58 -60 -108t-153 -50q-84 0 -139.5 43.5t-55.5 117.5q0 52 29 99t77 82t102 60.5t113 42.5l8 -20q-272 -116 -272 -264
q0 -61 41 -93t106 -32q57 0 99.5 25t57.5 62q-15 1 -26.5 13t-11.5 28q0 18 13 29.5t32 11.5z" />
    <glyph glyph-name="Agrave" unicode="&#xc0;" horiz-adv-x="710" 
d="M498 754h-21q-20 25 -41.5 69t-21.5 66q0 14 9 22t20 8q23 0 31 -26q15 -44 24 -139zM612 35h36l-10 -35h-241l10 35h79q34 0 31 31l-17 137h-327l-95 -137q-22 -31 12 -31h82l-10 -35h-234l10 35h38q35 0 58 34l429 611h28l82 -613q5 -32 39 -32zM195 236h301l-47 367z
" />
    <glyph glyph-name="Aacute" unicode="&#xc1;" horiz-adv-x="710" 
d="M666 909q20 -21 -4 -45q-14 -15 -59.5 -49t-84.5 -59h-26q88 119 128 153q25 21 46 0zM573 67q5 -32 39 -32h36l-10 -35h-241l10 35h79q34 0 31 31l-17 137h-327l-95 -137q-22 -31 12 -31h82l-10 -35h-234l10 35h38q35 0 58 34l429 611h28zM195 236h301l-47 367z" />
    <glyph glyph-name="Acircumflex" unicode="&#xc2;" horiz-adv-x="710" 
d="M530 853l-125 -95h-30l143 142q16 16 26 16t17 -16l64 -142h-26zM612 35h36l-10 -35h-241l10 35h79q34 0 31 31l-17 137h-327l-95 -137q-22 -31 12 -31h82l-10 -35h-234l10 35h38q35 0 58 34l429 611h28l82 -613q5 -32 39 -32zM195 236h301l-47 367z" />
    <glyph glyph-name="Atilde" unicode="&#xc3;" horiz-adv-x="710" 
d="M443 819q-21 0 -33 -14t-23 -41l-26 9q25 87 91 87q32 0 73 -33t62 -33q34 0 53 53l27 -5q-26 -89 -91 -89q-31 0 -70.5 33t-62.5 33zM573 67q5 -32 39 -32h36l-10 -35h-241l10 35h79q34 0 31 31l-17 137h-327l-95 -137q-22 -31 12 -31h82l-10 -35h-234l10 35h38
q35 0 58 34l429 611h28zM195 236h301l-47 367z" />
    <glyph glyph-name="Adieresis" unicode="&#xc4;" horiz-adv-x="710" 
d="M415 765q-19 0 -31 12t-12 31t12 31.5t31 12.5t31 -12.5t12 -31.5t-12 -31t-31 -12zM606 765q-19 0 -31 12t-12 31t12 31.5t31 12.5t31 -12.5t12 -31.5t-12 -31t-31 -12zM573 67q5 -32 39 -32h36l-10 -35h-241l10 35h79q34 0 31 31l-17 137h-327l-95 -137q-22 -31 12 -31
h82l-10 -35h-234l10 35h38q35 0 58 34l429 611h28zM195 236h301l-47 367z" />
    <glyph glyph-name="Aring" unicode="&#xc5;" horiz-adv-x="710" 
d="M509 738q-39 0 -63.5 23.5t-24.5 57.5q0 45 33 76t77 31q39 0 63 -23t24 -58q0 -45 -32.5 -76t-76.5 -31zM528 897q-30 0 -51.5 -23t-21.5 -53q0 -23 16 -37.5t41 -14.5q29 0 50.5 21.5t21.5 53.5q0 23 -15.5 38t-40.5 15zM612 35h36l-10 -35h-241l10 35h79q34 0 31 31
l-17 137h-327l-95 -137q-22 -31 12 -31h82l-10 -35h-234l10 35h38q35 0 58 34l429 611h28l82 -613q5 -32 39 -32zM195 236h301l-47 367z" />
    <glyph glyph-name="AE" unicode="&#xc6;" horiz-adv-x="986" 
d="M459 680h555l-47 -165h-35q18 76 15 95q-6 35 -69 35h-227l-95 -331h163q11 0 20 2t15 3.5t12.5 8.5t9 9.5t8 13.5t6.5 13.5t6.5 17t6.5 17.5h31l-60 -206h-31q1 4 3.5 14.5t3 14t2 12t1.5 11.5t-0.5 9.5t-2.5 9t-5.5 6.5t-8.5 5.5t-11.5 2.5t-15.5 1h-163l-69 -244h256
q31 0 50.5 6t33.5 24t20.5 33t18.5 50q4 11 6 17h35l-48 -165h-545l10 35h84q15 0 22.5 5.5t11.5 20.5l41 142h-266l-127 -137q-28 -31 12 -31h84l-10 -35h-238l10 35h38q18 0 28.5 7t29.5 27l515 554q21 22 -15 22h-85zM482 236l109 380l-353 -380h244z" />
    <glyph glyph-name="Ccedilla" unicode="&#xc7;" horiz-adv-x="699" 
d="M458 690q102 0 164.5 -52.5t62.5 -138.5q0 -31 -12 -50.5t-35 -19.5q-18 0 -30 11t-12 28t12 28.5t32 11.5q8 0 12 -1q-1 66 -54 105.5t-136 39.5q-93 0 -169 -57.5t-117.5 -150t-41.5 -197.5q0 -98 56 -158.5t147 -60.5q157 0 256 178h38q-112 -216 -298 -216
q-12 0 -18 1l-42 -63q49 1 77.5 -18.5t28.5 -51.5q0 -37 -33.5 -63t-81.5 -26q-52 0 -94 30l17 25q35 -25 78 -25q31 0 51.5 16t20.5 41q0 27 -29 38.5t-78 5.5l-7 13l63 81q-92 16 -150.5 89t-58.5 176q0 175 111 303t270 128z" />
    <glyph glyph-name="Egrave" unicode="&#xc8;" horiz-adv-x="641" 
d="M466 754h-21q-20 25 -41.5 69t-21.5 66q0 14 9 22t20 8q23 0 31 -26q15 -44 24 -139zM517 165h35l-48 -165h-540l10 35h79q15 0 22.5 5.5t11.5 20.5l160 558q4 15 0 20.5t-19 5.5h-79l10 35h540l-47 -165h-35q18 76 15 95q-6 35 -69 35h-256l-95 -331h162q11 0 20 2
t15 3.5t12.5 8.5t9 9.5t8 13.5t6.5 13.5t6.5 17t6.5 17.5h31l-60 -206h-31q1 4 3.5 14.5t3 14t2 12t1.5 11.5t-0.5 9.5t-2.5 9t-5.5 6.5t-8.5 5.5t-11.5 2.5t-15.5 1h-162l-70 -244h256q31 0 50.5 6t33.5 24t20.5 33t18.5 50q4 11 6 17z" />
    <glyph glyph-name="Eacute" unicode="&#xc9;" horiz-adv-x="641" 
d="M460 756q88 119 128 153q25 21 46 0q20 -21 -4 -45q-14 -15 -59.5 -49t-84.5 -59h-26zM517 165h35l-48 -165h-540l10 35h79q15 0 22.5 5.5t11.5 20.5l160 558q4 15 0 20.5t-19 5.5h-79l10 35h540l-47 -165h-35q18 76 15 95q-6 35 -69 35h-256l-95 -331h162q11 0 20 2
t15 3.5t12.5 8.5t9 9.5t8 13.5t6.5 13.5t6.5 17t6.5 17.5h31l-60 -206h-31q1 4 3.5 14.5t3 14t2 12t1.5 11.5t-0.5 9.5t-2.5 9t-5.5 6.5t-8.5 5.5t-11.5 2.5t-15.5 1h-162l-70 -244h256q31 0 50.5 6t33.5 24t20.5 33t18.5 50q4 11 6 17z" />
    <glyph glyph-name="Ecircumflex" unicode="&#xca;" horiz-adv-x="641" 
d="M373 758h-30l143 142q16 16 26 16t17 -16l64 -142h-26l-69 95zM517 165h35l-48 -165h-540l10 35h79q15 0 22.5 5.5t11.5 20.5l160 558q4 15 0 20.5t-19 5.5h-79l10 35h540l-47 -165h-35q18 76 15 95q-6 35 -69 35h-256l-95 -331h162q11 0 20 2t15 3.5t12.5 8.5t9 9.5
t8 13.5t6.5 13.5t6.5 17t6.5 17.5h31l-60 -206h-31q1 4 3.5 14.5t3 14t2 12t1.5 11.5t-0.5 9.5t-2.5 9t-5.5 6.5t-8.5 5.5t-11.5 2.5t-15.5 1h-162l-70 -244h256q31 0 50.5 6t33.5 24t20.5 33t18.5 50q4 11 6 17z" />
    <glyph glyph-name="Edieresis" unicode="&#xcb;" horiz-adv-x="641" 
d="M383 765q-19 0 -31 12t-12 31t12 31.5t31 12.5t31 -12.5t12 -31.5t-12 -31t-31 -12zM574 765q-19 0 -31 12t-12 31t12 31.5t31 12.5t31 -12.5t12 -31.5t-12 -31t-31 -12zM517 165h35l-48 -165h-540l10 35h79q15 0 22.5 5.5t11.5 20.5l160 558q4 15 0 20.5t-19 5.5h-79
l10 35h540l-47 -165h-35q18 76 15 95q-6 35 -69 35h-256l-95 -331h162q11 0 20 2t15 3.5t12.5 8.5t9 9.5t8 13.5t6.5 13.5t6.5 17t6.5 17.5h31l-60 -206h-31q1 4 3.5 14.5t3 14t2 12t1.5 11.5t-0.5 9.5t-2.5 9t-5.5 6.5t-8.5 5.5t-11.5 2.5t-15.5 1h-162l-70 -244h256
q31 0 50.5 6t33.5 24t20.5 33t18.5 50q4 11 6 17z" />
    <glyph glyph-name="Igrave" unicode="&#xcc;" horiz-adv-x="390" 
d="M340 754h-21q-20 25 -41.5 69t-21.5 66q0 14 9 22t20 8q23 0 31 -26q15 -44 24 -139zM361 645q-15 0 -21.5 -5.5t-11.5 -20.5l-160 -558q-5 -15 -1 -20.5t19 -5.5h97l-10 -35h-299l10 35h98q15 0 21.5 5.5t11.5 20.5l160 558q5 15 1 20.5t-19 5.5h-98l10 35h299l-10 -35
h-97z" />
    <glyph glyph-name="Iacute" unicode="&#xcd;" horiz-adv-x="390" 
d="M334 756q88 119 128 153q25 21 46 0q20 -21 -4 -45q-14 -15 -59.5 -49t-84.5 -59h-26zM361 645q-15 0 -21.5 -5.5t-11.5 -20.5l-160 -558q-5 -15 -1 -20.5t19 -5.5h97l-10 -35h-299l10 35h98q15 0 21.5 5.5t11.5 20.5l160 558q5 15 1 20.5t-19 5.5h-98l10 35h299l-10 -35
h-97z" />
    <glyph glyph-name="Icircumflex" unicode="&#xce;" horiz-adv-x="390" 
d="M247 758h-30l143 142q16 16 26 16t17 -16l64 -142h-26l-69 95zM361 645q-15 0 -21.5 -5.5t-11.5 -20.5l-160 -558q-5 -15 -1 -20.5t19 -5.5h97l-10 -35h-299l10 35h98q15 0 21.5 5.5t11.5 20.5l160 558q5 15 1 20.5t-19 5.5h-98l10 35h299l-10 -35h-97z" />
    <glyph glyph-name="Idieresis" unicode="&#xcf;" horiz-adv-x="390" 
d="M257 765q-19 0 -31 12t-12 31t12 31.5t31 12.5t31 -12.5t12 -31.5t-12 -31t-31 -12zM448 765q-19 0 -31 12t-12 31t12 31.5t31 12.5t31 -12.5t12 -31.5t-12 -31t-31 -12zM361 645q-15 0 -21.5 -5.5t-11.5 -20.5l-160 -558q-5 -15 -1 -20.5t19 -5.5h97l-10 -35h-299l10 35
h98q15 0 21.5 5.5t11.5 20.5l160 558q5 15 1 20.5t-19 5.5h-98l10 35h299l-10 -35h-97z" />
    <glyph glyph-name="Eth" unicode="&#xd0;" horiz-adv-x="720" 
d="M406 680q131 0 211.5 -73t80.5 -188q0 -172 -129 -295.5t-311 -123.5h-294l9 35h82q15 0 22 5t11 20l74 257h-107l10 35h107l76 266q9 27 -18 27h-81l11 35h246zM268 35q153 0 261.5 112t108.5 268q0 101 -64 165.5t-173 64.5h-92l-85 -293h206l-10 -35h-206l-81 -282
h135z" />
    <glyph glyph-name="Ntilde" unicode="&#xd1;" horiz-adv-x="766" 
d="M674 842q-26 -89 -91 -89q-31 0 -70.5 33t-62.5 33q-21 0 -33 -14t-23 -41l-26 9q25 87 91 87q26 0 50 -16.5t45.5 -33t39.5 -16.5q34 0 53 53zM859 680l-10 -35h-84q-15 0 -21.5 -5.5t-11.5 -20.5l-178 -619h-26l-242 620l-160 -559q-5 -15 -1 -20.5t19 -5.5h79l-10 -35
h-249l10 35h79q15 0 22.5 5.5t11.5 20.5l160 558q4 15 0 20.5t-19 5.5h-79l10 35h156l227 -585l151 524q4 15 0 20.5t-19 5.5h-79l10 35h254z" />
    <glyph glyph-name="Ograve" unicode="&#xd2;" horiz-adv-x="725" 
d="M487 754h-21q-20 25 -41.5 69t-21.5 66q0 14 9 22t20 8q23 0 31 -26q15 -44 24 -139zM331 -10q-110 0 -181.5 76t-73.5 193q0 75 26 151t72 138.5t117.5 102t153.5 39.5q110 0 182 -76t73 -193q1 -101 -42.5 -198.5t-130.5 -165t-196 -67.5zM333 25q71 0 132.5 39
t99.5 99t59 130.5t20 137.5q-2 97 -58 161t-142 64q-73 0 -134.5 -38.5t-99.5 -99.5t-58.5 -131.5t-19.5 -137.5q2 -98 58.5 -161t142.5 -63z" />
    <glyph glyph-name="Oacute" unicode="&#xd3;" horiz-adv-x="725" 
d="M481 756q88 119 128 153q25 21 46 0t-4 -45q-14 -15 -59.5 -49t-84.5 -59h-26zM331 -10q-110 0 -181.5 76t-73.5 193q0 75 26 151t72 138.5t117.5 102t153.5 39.5q110 0 182 -76t73 -193q1 -101 -42.5 -198.5t-130.5 -165t-196 -67.5zM333 25q71 0 132.5 39t99.5 99
t59 130.5t20 137.5q-2 97 -58 161t-142 64q-73 0 -134.5 -38.5t-99.5 -99.5t-58.5 -131.5t-19.5 -137.5q2 -98 58.5 -161t142.5 -63z" />
    <glyph glyph-name="Ocircumflex" unicode="&#xd4;" horiz-adv-x="725" 
d="M394 758h-30l143 142q16 16 26 16t17 -16l64 -142h-26l-69 95zM331 -10q-110 0 -181.5 76t-73.5 193q0 75 26 151t72 138.5t117.5 102t153.5 39.5q110 0 182 -76t73 -193q1 -101 -42.5 -198.5t-130.5 -165t-196 -67.5zM333 25q71 0 132.5 39t99.5 99t59 130.5t20 137.5
q-2 97 -58 161t-142 64q-73 0 -134.5 -38.5t-99.5 -99.5t-58.5 -131.5t-19.5 -137.5q2 -98 58.5 -161t142.5 -63z" />
    <glyph glyph-name="Otilde" unicode="&#xd5;" horiz-adv-x="725" 
d="M656 842q-26 -89 -91 -89q-31 0 -70.5 33t-62.5 33q-21 0 -33 -14t-23 -41l-26 9q25 87 91 87q26 0 50 -16.5t45.5 -33t39.5 -16.5q34 0 53 53zM331 -10q-110 0 -181.5 76t-73.5 193q0 75 26 151t72 138.5t117.5 102t153.5 39.5q110 0 182 -76t73 -193
q1 -101 -42.5 -198.5t-130.5 -165t-196 -67.5zM333 25q71 0 132.5 39t99.5 99t59 130.5t20 137.5q-2 97 -58 161t-142 64q-73 0 -134.5 -38.5t-99.5 -99.5t-58.5 -131.5t-19.5 -137.5q2 -98 58.5 -161t142.5 -63z" />
    <glyph glyph-name="Odieresis" unicode="&#xd6;" horiz-adv-x="725" 
d="M404 765q-19 0 -31 12t-12 31t12 31.5t31 12.5t31 -12.5t12 -31.5t-12 -31t-31 -12zM595 765q-19 0 -31 12t-12 31t12 31.5t31 12.5t31 -12.5t12 -31.5t-12 -31t-31 -12zM331 -10q-110 0 -181.5 76t-73.5 193q0 75 26 151t72 138.5t117.5 102t153.5 39.5q110 0 182 -76
t73 -193q1 -101 -42.5 -198.5t-130.5 -165t-196 -67.5zM333 25q71 0 132.5 39t99.5 99t59 130.5t20 137.5q-2 97 -58 161t-142 64q-73 0 -134.5 -38.5t-99.5 -99.5t-58.5 -131.5t-19.5 -137.5q2 -98 58.5 -161t142.5 -63z" />
    <glyph glyph-name="multiply" unicode="&#xd7;" horiz-adv-x="595" 
d="M540 456l-205 -163l109 -157l-27 -21l-109 157l-199 -158l-19 26l200 159l-113 162l26 21l113 -162l204 162z" />
    <glyph glyph-name="Oslash" unicode="&#xd8;" horiz-adv-x="725" 
d="M655 578q45 -67 45 -157q1 -101 -42.5 -198.5t-130.5 -165t-196 -67.5q-118 0 -190 86l-78 -76h-48l106 103q-43 67 -45 156q0 75 26 151t72 138.5t117.5 102t153.5 39.5q117 0 191 -85l77 75h47zM132 249q1 -61 25 -111l445 434q-57 84 -158 84q-73 0 -134.5 -38.5
t-99.5 -99.5t-58.5 -131.5t-19.5 -137.5zM333 25q71 0 132.5 39t99.5 99t59 130.5t20 137.5q-2 64 -25 112l-445 -434q57 -84 159 -84z" />
    <glyph glyph-name="Ugrave" unicode="&#xd9;" horiz-adv-x="691" 
d="M499 754h-21q-20 25 -41.5 69t-21.5 66q0 14 9 22t20 8q23 0 31 -26q15 -44 24 -139zM314 -10q-117 0 -177.5 73t-29.5 182l109 374q4 15 0 20.5t-19 5.5h-69l10 35h256l-10 -35h-82q-15 0 -21.5 -5.5t-11.5 -20.5l-109 -382q-26 -91 18.5 -150.5t139.5 -59.5
q75 0 130 42.5t75 114.5l126 435q4 15 0 20.5t-19 5.5h-75l10 35h235l-10 -35h-69q-15 0 -22.5 -5.5t-11.5 -20.5l-126 -441q-25 -86 -90.5 -137t-156.5 -51z" />
    <glyph glyph-name="Uacute" unicode="&#xda;" horiz-adv-x="691" 
d="M493 756q88 119 128 153q25 21 46 0t-4 -45q-14 -15 -59.5 -49t-84.5 -59h-26zM314 -10q-117 0 -177.5 73t-29.5 182l109 374q4 15 0 20.5t-19 5.5h-69l10 35h256l-10 -35h-82q-15 0 -21.5 -5.5t-11.5 -20.5l-109 -382q-26 -91 18.5 -150.5t139.5 -59.5q75 0 130 42.5
t75 114.5l126 435q4 15 0 20.5t-19 5.5h-75l10 35h235l-10 -35h-69q-15 0 -22.5 -5.5t-11.5 -20.5l-126 -441q-25 -86 -90.5 -137t-156.5 -51z" />
    <glyph glyph-name="Ucircumflex" unicode="&#xdb;" horiz-adv-x="691" 
d="M406 758h-30l143 142q16 16 26 16t17 -16l64 -142h-26l-69 95zM314 -10q-117 0 -177.5 73t-29.5 182l109 374q4 15 0 20.5t-19 5.5h-69l10 35h256l-10 -35h-82q-15 0 -21.5 -5.5t-11.5 -20.5l-109 -382q-26 -91 18.5 -150.5t139.5 -59.5q75 0 130 42.5t75 114.5l126 435
q4 15 0 20.5t-19 5.5h-75l10 35h235l-10 -35h-69q-15 0 -22.5 -5.5t-11.5 -20.5l-126 -441q-25 -86 -90.5 -137t-156.5 -51z" />
    <glyph glyph-name="Udieresis" unicode="&#xdc;" horiz-adv-x="691" 
d="M416 765q-19 0 -31 12t-12 31t12 31.5t31 12.5t31 -12.5t12 -31.5t-12 -31t-31 -12zM607 765q-19 0 -31 12t-12 31t12 31.5t31 12.5t31 -12.5t12 -31.5t-12 -31t-31 -12zM314 -10q-117 0 -177.5 73t-29.5 182l109 374q4 15 0 20.5t-19 5.5h-69l10 35h256l-10 -35h-82
q-15 0 -21.5 -5.5t-11.5 -20.5l-109 -382q-26 -91 18.5 -150.5t139.5 -59.5q75 0 130 42.5t75 114.5l126 435q4 15 0 20.5t-19 5.5h-75l10 35h235l-10 -35h-69q-15 0 -22.5 -5.5t-11.5 -20.5l-126 -441q-25 -86 -90.5 -137t-156.5 -51z" />
    <glyph glyph-name="Yacute" unicode="&#xdd;" horiz-adv-x="649" 
d="M467 756q88 119 128 153q25 21 46 0t-4 -45q-14 -15 -59.5 -49t-84.5 -59h-26zM514 680h258l-10 -35h-56q-37 0 -62 -30l-287 -331l-64 -223q-5 -15 -1 -20.5t19 -5.5h79l-10 -35h-262l9 35h79q15 0 22.5 5.5t11.5 20.5l64 222l-91 334q-8 28 -43 28h-56l10 35h266
l-10 -35h-84q-35 0 -27 -31l76 -294l255 296q12 14 9.5 21.5t-18.5 7.5h-87z" />
    <glyph glyph-name="Thorn" unicode="&#xde;" horiz-adv-x="624" 
d="M401 555q101 0 158.5 -50t57.5 -131q0 -102 -87.5 -166.5t-216.5 -64.5h-150l-24 -82q-4 -15 0 -20.5t19 -5.5h86l-10 -35h-270l10 35h79q15 0 22.5 5.5t11.5 20.5l160 558q4 15 0 20.5t-19 5.5h-79l10 35h270l-10 -35h-86q-15 0 -22.5 -5.5t-11.5 -20.5l-18 -64h120z
M318 177q104 0 174 57t70 144q0 65 -43 104t-124 39h-124l-99 -344h146z" />
    <glyph glyph-name="germandbls" unicode="&#xdf;" horiz-adv-x="597" 
d="M578 551q0 -45 -19.5 -75.5t-46.5 -45.5t-54.5 -26.5t-47 -26t-19.5 -36.5q0 -19 22.5 -40.5t49 -39t49 -48.5t22.5 -68q0 -67 -55.5 -111t-130.5 -44q-67 0 -111.5 34.5t-44.5 87.5q0 24 11.5 38.5t29.5 14.5q17 0 28 -10.5t11 -27.5q0 -18 -12.5 -28.5t-30.5 -10.5h-4
q9 -29 43.5 -47.5t76.5 -18.5q59 0 98 31t39 81q0 29 -21 54t-45.5 40t-45.5 39.5t-21 53.5q0 31 18.5 53.5t45 37.5t53.5 31t45.5 44t18.5 66q0 44 -34.5 74t-86.5 30q-63 0 -106.5 -42t-63.5 -115l-155 -539q-43 -151 -160 -151q-43 0 -70 19.5t-27 55.5q0 21 12 34.5
t31 13.5q17 0 28.5 -11t11.5 -27q0 -17 -11.5 -27.5t-29.5 -10.5q17 -18 50 -18q45 0 72 30t44 92l145 504h-95l9 35h71q15 0 21 4.5t10 16.5q59 169 213 169q72 0 120.5 -39.5t48.5 -99.5z" />
    <glyph glyph-name="agrave" unicode="&#xe0;" horiz-adv-x="584" 
d="M335 574h-21q-20 25 -41.5 69t-21.5 66q0 14 9 22t20 8q23 0 31 -26q15 -44 24 -139zM168 -10q-67 0 -103 45t-36 126q0 78 33.5 157.5t95 134t133.5 54.5q60 0 94 -43t32 -128h4l45 164h49l-115 -396q-10 -35 -2 -54.5t32 -19.5q54 0 99 130h29q-30 -87 -63.5 -128.5
t-77.5 -41.5q-42 0 -59 32.5t-1 84.5l5 14h-5q-31 -60 -81.5 -95.5t-107.5 -35.5zM181 23q87 0 151.5 101t64.5 212q0 63 -24.5 100.5t-74.5 37.5q-61 0 -113 -53.5t-78 -125t-26 -136.5q0 -64 26 -100t74 -36z" />
    <glyph glyph-name="aacute" unicode="&#xe1;" horiz-adv-x="584" 
d="M329 576q88 119 128 153q25 21 46 0t-4 -45q-14 -15 -59.5 -49t-84.5 -59h-26zM168 -10q-67 0 -103 45t-36 126q0 78 33.5 157.5t95 134t133.5 54.5q60 0 94 -43t32 -128h4l45 164h49l-115 -396q-10 -35 -2 -54.5t32 -19.5q54 0 99 130h29q-30 -87 -63.5 -128.5
t-77.5 -41.5q-42 0 -59 32.5t-1 84.5l5 14h-5q-31 -60 -81.5 -95.5t-107.5 -35.5zM181 23q87 0 151.5 101t64.5 212q0 63 -24.5 100.5t-74.5 37.5q-61 0 -113 -53.5t-78 -125t-26 -136.5q0 -64 26 -100t74 -36z" />
    <glyph glyph-name="acircumflex" unicode="&#xe2;" horiz-adv-x="584" 
d="M242 578h-30l143 142q16 16 26 16t17 -16l64 -142h-26l-69 95zM168 -10q-67 0 -103 45t-36 126q0 78 33.5 157.5t95 134t133.5 54.5q60 0 94 -43t32 -128h4l45 164h49l-115 -396q-10 -35 -2 -54.5t32 -19.5q54 0 99 130h29q-30 -87 -63.5 -128.5t-77.5 -41.5
q-42 0 -59 32.5t-1 84.5l5 14h-5q-31 -60 -81.5 -95.5t-107.5 -35.5zM181 23q87 0 151.5 101t64.5 212q0 63 -24.5 100.5t-74.5 37.5q-61 0 -113 -53.5t-78 -125t-26 -136.5q0 -64 26 -100t74 -36z" />
    <glyph glyph-name="atilde" unicode="&#xe3;" horiz-adv-x="584" 
d="M504 662q-26 -89 -91 -89q-31 0 -70.5 33t-62.5 33q-21 0 -33 -14t-23 -41l-26 9q25 87 91 87q26 0 50 -16.5t45.5 -33t39.5 -16.5q34 0 53 53zM168 -10q-67 0 -103 45t-36 126q0 78 33.5 157.5t95 134t133.5 54.5q60 0 94 -43t32 -128h4l45 164h49l-115 -396
q-10 -35 -2 -54.5t32 -19.5q54 0 99 130h29q-30 -87 -63.5 -128.5t-77.5 -41.5q-42 0 -59 32.5t-1 84.5l5 14h-5q-31 -60 -81.5 -95.5t-107.5 -35.5zM181 23q87 0 151.5 101t64.5 212q0 63 -24.5 100.5t-74.5 37.5q-61 0 -113 -53.5t-78 -125t-26 -136.5q0 -64 26 -100
t74 -36z" />
    <glyph glyph-name="adieresis" unicode="&#xe4;" horiz-adv-x="584" 
d="M252 585q-19 0 -31 12t-12 31t12 31.5t31 12.5t31 -12.5t12 -31.5t-12 -31t-31 -12zM443 585q-19 0 -31 12t-12 31t12 31.5t31 12.5t31 -12.5t12 -31.5t-12 -31t-31 -12zM168 -10q-67 0 -103 45t-36 126q0 78 33.5 157.5t95 134t133.5 54.5q60 0 94 -43t32 -128h4l45 164
h49l-115 -396q-10 -35 -2 -54.5t32 -19.5q54 0 99 130h29q-30 -87 -63.5 -128.5t-77.5 -41.5q-42 0 -59 32.5t-1 84.5l5 14h-5q-31 -60 -81.5 -95.5t-107.5 -35.5zM181 23q87 0 151.5 101t64.5 212q0 63 -24.5 100.5t-74.5 37.5q-61 0 -113 -53.5t-78 -125t-26 -136.5
q0 -64 26 -100t74 -36z" />
    <glyph glyph-name="aring" unicode="&#xe5;" horiz-adv-x="584" 
d="M346 558q-39 0 -63.5 23.5t-24.5 57.5q0 45 33 76t77 31q39 0 63 -23t24 -58q0 -45 -32.5 -76t-76.5 -31zM349 589q29 0 50.5 21.5t21.5 53.5q0 23 -15.5 38t-40.5 15q-30 0 -51.5 -23t-21.5 -53q0 -23 16 -37.5t41 -14.5zM168 -10q-67 0 -103 45t-36 126
q0 78 33.5 157.5t95 134t133.5 54.5q60 0 94 -43t32 -128h4l45 164h49l-115 -396q-10 -35 -2 -54.5t32 -19.5q54 0 99 130h29q-30 -87 -63.5 -128.5t-77.5 -41.5q-42 0 -59 32.5t-1 84.5l5 14h-5q-31 -60 -81.5 -95.5t-107.5 -35.5zM181 23q87 0 151.5 101t64.5 212
q0 63 -24.5 100.5t-74.5 37.5q-61 0 -113 -53.5t-78 -125t-26 -136.5q0 -64 26 -100t74 -36z" />
    <glyph glyph-name="ae" unicode="&#xe6;" horiz-adv-x="751" 
d="M393 241q-7 -33 -8 -61q-4 -70 22 -112t84 -42q106 0 167 135h32q-76 -171 -208 -171q-125 0 -139 142q-36 -70 -88 -106t-105 -36q-58 0 -91 26.5t-33 73.5q0 30 13 54t39 41.5t54 30t69.5 22t72.5 15t75 11.5q20 98 -6.5 154t-101.5 56q-59 0 -86 -35q28 -6 28 -36
q0 -18 -13 -30.5t-31 -12.5t-29.5 12.5t-11.5 32.5q0 43 42.5 72.5t103.5 29.5q69 0 105.5 -40t42.5 -107q38 67 95.5 106.5t126.5 39.5q55 0 87 -26t32 -71q0 -33 -21.5 -59.5t-51.5 -42.5t-80 -30t-89.5 -21t-97.5 -15zM610 473q-71 0 -127 -58t-82 -144q41 6 60.5 9
t61 11t64.5 17t49.5 23t39 33t12.5 42q0 32 -21 49.5t-57 17.5zM160 26q51 0 103 48.5t80 159.5q-57 -7 -95 -15t-81.5 -23.5t-66 -41t-22.5 -60.5q0 -32 22 -50t60 -18z" />
    <glyph glyph-name="ccedilla" unicode="&#xe7;" horiz-adv-x="486" 
d="M371 342q0 17 12.5 28.5t33.5 11.5q6 0 9 -1q-8 42 -40 66.5t-81 24.5q-63 0 -114 -43.5t-76.5 -107t-25.5 -130.5q0 -79 37.5 -122t97.5 -43q105 0 160 115h31q-67 -151 -201 -151q-10 0 -16 1l-42 -63q49 1 77.5 -18.5t28.5 -51.5q0 -37 -33.5 -63t-81.5 -26
q-52 0 -94 30l17 25q35 -25 78 -25q31 0 51.5 16t20.5 41q0 27 -29 38.5t-78 5.5l-7 13l64 82q-59 15 -95.5 68.5t-36.5 132.5q0 120 78 215.5t185 95.5q71 0 114.5 -40.5t43.5 -98.5q0 -29 -13.5 -47t-34.5 -18q-17 0 -28.5 11t-11.5 28z" />
    <glyph glyph-name="egrave" unicode="&#xe8;" horiz-adv-x="461" 
d="M348 574h-21q-20 25 -41.5 69t-21.5 66q0 14 9 22t20 8q23 0 31 -26q15 -44 24 -139zM442 411q0 -48 -38 -86.5t-99 -61t-113 -35t-105 -19.5q-3 -23 -3 -44q0 -64 27 -101.5t84 -37.5q111 0 173 135h32q-77 -171 -213 -171q-76 0 -114 47t-38 127q0 129 82.5 235.5
t202.5 106.5q56 0 89 -24.5t33 -70.5zM315 474q-83 0 -144 -72.5t-80 -170.5q307 55 307 175q0 33 -22.5 50.5t-60.5 17.5z" />
    <glyph glyph-name="eacute" unicode="&#xe9;" horiz-adv-x="461" 
d="M482 729q20 -21 -4 -45q-14 -15 -59.5 -49t-84.5 -59h-26q88 119 128 153q25 21 46 0zM320 506q56 0 89 -24.5t33 -70.5q0 -48 -38 -86.5t-99 -61t-113 -35t-105 -19.5q-3 -23 -3 -44q0 -64 27 -101.5t84 -37.5q111 0 173 135h32q-77 -171 -213 -171q-76 0 -114 47
t-38 127q0 129 82.5 235.5t202.5 106.5zM91 231q307 55 307 175q0 33 -22.5 50.5t-60.5 17.5q-83 0 -144 -72.5t-80 -170.5z" />
    <glyph glyph-name="ecircumflex" unicode="&#xea;" horiz-adv-x="461" 
d="M255 578h-30l143 142q16 16 26 16t17 -16l64 -142h-26l-69 95zM442 411q0 -48 -38 -86.5t-99 -61t-113 -35t-105 -19.5q-3 -23 -3 -44q0 -64 27 -101.5t84 -37.5q111 0 173 135h32q-77 -171 -213 -171q-76 0 -114 47t-38 127q0 129 82.5 235.5t202.5 106.5q56 0 89 -24.5
t33 -70.5zM315 474q-83 0 -144 -72.5t-80 -170.5q307 55 307 175q0 33 -22.5 50.5t-60.5 17.5z" />
    <glyph glyph-name="edieresis" unicode="&#xeb;" horiz-adv-x="461" 
d="M265 585q-19 0 -31 12t-12 31t12 31.5t31 12.5t31 -12.5t12 -31.5t-12 -31t-31 -12zM456 585q-19 0 -31 12t-12 31t12 31.5t31 12.5t31 -12.5t12 -31.5t-12 -31t-31 -12zM442 411q0 -48 -38 -86.5t-99 -61t-113 -35t-105 -19.5q-3 -23 -3 -44q0 -64 27 -101.5t84 -37.5
q111 0 173 135h32q-77 -171 -213 -171q-76 0 -114 47t-38 127q0 129 82.5 235.5t202.5 106.5q56 0 89 -24.5t33 -70.5zM315 474q-83 0 -144 -72.5t-80 -170.5q307 55 307 175q0 33 -22.5 50.5t-60.5 17.5z" />
    <glyph glyph-name="igrave" unicode="&#xec;" horiz-adv-x="312" 
d="M241 574h-21q-20 25 -41.5 69t-21.5 66q0 14 9 22t20 8q23 0 31 -26q15 -44 24 -139zM256 160h30q-57 -170 -140 -170q-41 0 -59.5 32.5t-1.5 82.5l97 287q12 36 5.5 56t-29.5 20q-27 0 -50.5 -31t-47.5 -100h-30q57 170 143 170q41 0 58.5 -32t-0.5 -83l-100 -296
q-10 -28 -1.5 -47t30.5 -19q51 0 96 130z" />
    <glyph glyph-name="iacute" unicode="&#xed;" horiz-adv-x="312" 
d="M235 576q88 119 128 153q25 21 46 0t-4 -45q-14 -15 -59.5 -49t-84.5 -59h-26zM256 160h30q-57 -170 -140 -170q-41 0 -59.5 32.5t-1.5 82.5l97 287q12 36 5.5 56t-29.5 20q-27 0 -50.5 -31t-47.5 -100h-30q57 170 143 170q41 0 58.5 -32t-0.5 -83l-100 -296
q-10 -28 -1.5 -47t30.5 -19q51 0 96 130z" />
    <glyph glyph-name="icircumflex" unicode="&#xee;" horiz-adv-x="312" 
d="M148 578h-30l143 142q16 16 26 16t17 -16l64 -142h-26l-69 95zM256 160h30q-57 -170 -140 -170q-41 0 -59.5 32.5t-1.5 82.5l97 287q12 36 5.5 56t-29.5 20q-27 0 -50.5 -31t-47.5 -100h-30q57 170 143 170q41 0 58.5 -32t-0.5 -83l-100 -296q-10 -28 -1.5 -47t30.5 -19
q51 0 96 130z" />
    <glyph glyph-name="idieresis" unicode="&#xef;" horiz-adv-x="312" 
d="M158 585q-19 0 -31 12t-12 31t12 31.5t31 12.5t31 -12.5t12 -31.5t-12 -31t-31 -12zM349 585q-19 0 -31 12t-12 31t12 31.5t31 12.5t31 -12.5t12 -31.5t-12 -31t-31 -12zM256 160h30q-57 -170 -140 -170q-41 0 -59.5 32.5t-1.5 82.5l97 287q12 36 5.5 56t-29.5 20
q-27 0 -50.5 -31t-47.5 -100h-30q57 170 143 170q41 0 58.5 -32t-0.5 -83l-100 -296q-10 -28 -1.5 -47t30.5 -19q51 0 96 130z" />
    <glyph glyph-name="eth" unicode="&#xf0;" horiz-adv-x="500" 
d="M351 620q116 -105 116 -274q0 -152 -75.5 -253.5t-188.5 -101.5q-77 0 -122 49.5t-45 138.5q0 75 29 148t91.5 126t142.5 53q73 0 106 -45q-23 91 -97 147l-152 -44l-9 29l127 35q-43 24 -97 42l50 19q53 -19 95 -46l119 33l8 -29zM205 24q52 0 94.5 32.5t67.5 81.5
t38.5 100.5t13.5 95.5q0 69 -33.5 104.5t-88.5 35.5q-52 0 -94.5 -32.5t-67 -81.5t-37.5 -100t-13 -95q0 -70 32.5 -105.5t87.5 -35.5z" />
    <glyph glyph-name="ntilde" unicode="&#xf1;" horiz-adv-x="622" 
d="M553 662q-26 -89 -91 -89q-31 0 -70.5 33t-62.5 33q-21 0 -33 -14t-23 -41l-26 9q25 87 91 87q32 0 73 -33t62 -33q34 0 53 53zM566 160h30q-30 -87 -63 -128.5t-75 -41.5q-43 0 -61.5 32.5t-2.5 82.5l66 198q25 79 11 121t-64 42q-155 0 -294 -466h-49l114 392
q22 76 -25 76q-27 0 -50.5 -31t-47.5 -100h-30q30 87 63.5 128.5t77.5 41.5q43 0 57.5 -31.5t-2.5 -79.5l-50 -153h5q107 264 244 264q68 0 94 -50.5t-3 -148.5l-70 -212q-9 -25 -1 -45.5t31 -20.5q50 0 95 130z" />
    <glyph glyph-name="ograve" unicode="&#xf2;" horiz-adv-x="501" 
d="M342 574h-21q-20 25 -41.5 69t-21.5 66q0 14 9 22t20 8q23 0 31 -26q15 -44 24 -139zM202 -9q-77 0 -122 49.5t-45 138.5q0 75 29 148t91.5 126t142.5 53q78 0 123 -48.5t45 -137.5q0 -76 -30.5 -150t-92.5 -126.5t-141 -52.5zM203 23q52 0 95.5 32.5t68 82t38 101
t13.5 95.5q0 69 -33.5 104.5t-87.5 35.5q-52 0 -95 -32t-67.5 -81t-37.5 -100.5t-13 -95.5q0 -70 32.5 -106t86.5 -36z" />
    <glyph glyph-name="oacute" unicode="&#xf3;" horiz-adv-x="501" 
d="M336 576q88 119 128 153q25 21 46 0q20 -21 -4 -45q-14 -15 -59.5 -49t-84.5 -59h-26zM202 -9q-77 0 -122 49.5t-45 138.5q0 75 29 148t91.5 126t142.5 53q78 0 123 -48.5t45 -137.5q0 -76 -30.5 -150t-92.5 -126.5t-141 -52.5zM203 23q52 0 95.5 32.5t68 82t38 101
t13.5 95.5q0 69 -33.5 104.5t-87.5 35.5q-52 0 -95 -32t-67.5 -81t-37.5 -100.5t-13 -95.5q0 -70 32.5 -106t86.5 -36z" />
    <glyph glyph-name="ocircumflex" unicode="&#xf4;" horiz-adv-x="501" 
d="M249 578h-30l143 142q16 16 26 16t17 -16l64 -142h-26l-69 95zM202 -9q-77 0 -122 49.5t-45 138.5q0 75 29 148t91.5 126t142.5 53q78 0 123 -48.5t45 -137.5q0 -76 -30.5 -150t-92.5 -126.5t-141 -52.5zM203 23q52 0 95.5 32.5t68 82t38 101t13.5 95.5q0 69 -33.5 104.5
t-87.5 35.5q-52 0 -95 -32t-67.5 -81t-37.5 -100.5t-13 -95.5q0 -70 32.5 -106t86.5 -36z" />
    <glyph glyph-name="otilde" unicode="&#xf5;" horiz-adv-x="501" 
d="M511 662q-26 -89 -91 -89q-31 0 -70.5 33t-62.5 33q-21 0 -33 -14t-23 -41l-26 9q25 87 91 87q32 0 73 -33t62 -33q34 0 53 53zM202 -9q-77 0 -122 49.5t-45 138.5q0 75 29 148t91.5 126t142.5 53q78 0 123 -48.5t45 -137.5q0 -76 -30.5 -150t-92.5 -126.5t-141 -52.5z
M203 23q52 0 95.5 32.5t68 82t38 101t13.5 95.5q0 69 -33.5 104.5t-87.5 35.5q-52 0 -95 -32t-67.5 -81t-37.5 -100.5t-13 -95.5q0 -70 32.5 -106t86.5 -36z" />
    <glyph glyph-name="odieresis" unicode="&#xf6;" horiz-adv-x="501" 
d="M259 585q-19 0 -31 12t-12 31t12 31.5t31 12.5t31 -12.5t12 -31.5t-12 -31t-31 -12zM450 585q-19 0 -31 12t-12 31t12 31.5t31 12.5t31 -12.5t12 -31.5t-12 -31t-31 -12zM202 -9q-77 0 -122 49.5t-45 138.5q0 75 29 148t91.5 126t142.5 53q78 0 123 -48.5t45 -137.5
q0 -76 -30.5 -150t-92.5 -126.5t-141 -52.5zM203 23q52 0 95.5 32.5t68 82t38 101t13.5 95.5q0 69 -33.5 104.5t-87.5 35.5q-52 0 -95 -32t-67.5 -81t-37.5 -100.5t-13 -95.5q0 -70 32.5 -106t86.5 -36z" />
    <glyph glyph-name="divide" unicode="&#xf7;" horiz-adv-x="597" 
d="M351 429q-19 0 -30.5 12t-11.5 30t12 30.5t30 12.5t29.5 -12t11.5 -31q0 -18 -11.5 -30t-29.5 -12zM83 281l10 34h447l-10 -34h-447zM260 167q18 0 29.5 -12t11.5 -30q0 -19 -11.5 -31t-29.5 -12t-30 12.5t-12 30.5t11.5 30t30.5 12z" />
    <glyph glyph-name="oslash" unicode="&#xf8;" horiz-adv-x="501" 
d="M524 500l-79 -78q21 -42 21 -102q0 -76 -30.5 -150t-92.5 -126.5t-141 -52.5q-87 0 -132 62l-53 -53h-39l78 77q-21 42 -21 102q0 75 29 148t91.5 126t142.5 53q87 0 132 -60l55 54h39zM84 165q0 -30 6 -54l310 305q-31 58 -103 58q-52 0 -95 -32t-67.5 -81t-37.5 -100.5
t-13 -95.5zM418 334q0 33 -7 55l-310 -306q29 -60 102 -60q52 0 95.5 32.5t68 82t38 101t13.5 95.5z" />
    <glyph glyph-name="ugrave" unicode="&#xf9;" horiz-adv-x="622" 
d="M389 574h-21q-20 25 -41.5 69t-21.5 66q0 14 9 22t20 8q23 0 31 -26q15 -44 24 -139zM55 337h-30q30 87 63 128.5t75 41.5q43 0 61.5 -32.5t2.5 -82.5l-66 -198q-25 -79 -11 -121t64 -42q155 0 294 466h49l-114 -392q-22 -76 25 -76q27 0 50.5 31t47.5 100h30
q-30 -87 -63.5 -128.5t-77.5 -41.5q-43 0 -57.5 31.5t2.5 79.5l50 153h-5q-107 -264 -244 -264q-68 0 -94 51t3 148l70 212q9 25 1 45.5t-31 20.5q-50 0 -95 -130z" />
    <glyph glyph-name="uacute" unicode="&#xfa;" horiz-adv-x="622" 
d="M348 576q88 119 128 153q25 21 46 0q20 -21 -4 -45q-14 -15 -59.5 -49t-84.5 -59h-26zM55 337h-30q30 87 63 128.5t75 41.5q43 0 61.5 -32.5t2.5 -82.5l-66 -198q-25 -79 -11 -121t64 -42q155 0 294 466h49l-114 -392q-22 -76 25 -76q27 0 50.5 31t47.5 100h30
q-30 -87 -63.5 -128.5t-77.5 -41.5q-43 0 -57.5 31.5t2.5 79.5l50 153h-5q-107 -264 -244 -264q-68 0 -94 51t3 148l70 212q9 25 1 45.5t-31 20.5q-50 0 -95 -130z" />
    <glyph glyph-name="ucircumflex" unicode="&#xfb;" horiz-adv-x="622" 
d="M296 578h-30l143 142q16 16 26 16t17 -16l64 -142h-26l-69 95zM55 337h-30q30 87 63 128.5t75 41.5q43 0 61.5 -32.5t2.5 -82.5l-66 -198q-25 -79 -11 -121t64 -42q155 0 294 466h49l-114 -392q-22 -76 25 -76q27 0 50.5 31t47.5 100h30q-30 -87 -63.5 -128.5
t-77.5 -41.5q-43 0 -57.5 31.5t2.5 79.5l50 153h-5q-107 -264 -244 -264q-68 0 -94 51t3 148l70 212q9 25 1 45.5t-31 20.5q-50 0 -95 -130z" />
    <glyph glyph-name="udieresis" unicode="&#xfc;" horiz-adv-x="622" 
d="M306 585q-19 0 -31 12t-12 31t12 31.5t31 12.5t31 -12.5t12 -31.5t-12 -31t-31 -12zM497 585q-19 0 -31 12t-12 31t12 31.5t31 12.5t31 -12.5t12 -31.5t-12 -31t-31 -12zM55 337h-30q30 87 63 128.5t75 41.5q43 0 61.5 -32.5t2.5 -82.5l-66 -198q-25 -79 -11 -121t64 -42
q155 0 294 466h49l-114 -392q-22 -76 25 -76q27 0 50.5 31t47.5 100h30q-30 -87 -63.5 -128.5t-77.5 -41.5q-43 0 -57.5 31.5t2.5 79.5l50 153h-5q-107 -264 -244 -264q-68 0 -94 51t3 148l70 212q9 25 1 45.5t-31 20.5q-50 0 -95 -130z" />
    <glyph glyph-name="yacute" unicode="&#xfd;" horiz-adv-x="593" 
d="M561 729q21 -21 -4 -45q-14 -15 -59.5 -49t-84.5 -59h-26q88 119 128 153q25 21 46 0zM476 507q33 0 56.5 -31t23.5 -92q0 -75 -37 -174t-95.5 -188t-139 -150.5t-158.5 -61.5q-57 0 -101.5 29t-44.5 69q0 21 12.5 35.5t32.5 14.5q15 0 26 -10t11 -26q0 -17 -11.5 -28.5
t-30.5 -13.5q15 -16 45.5 -28t62.5 -12q51 0 102 31q51 283 39.5 440t-94.5 157q-36 0 -63 -31.5t-51 -99.5h-31q27 88 63.5 129t92.5 41q45 0 74.5 -25.5t42 -71t15.5 -103t-3 -126t-14.5 -135t-19.5 -135.5q-1 -3 -1 -4q97 83 167.5 230.5t70.5 250.5q0 40 -15 64
q-13 -25 -38 -25q-17 0 -27.5 11.5t-10.5 26.5q0 17 13.5 29.5t35.5 12.5z" />
    <glyph glyph-name="thorn" unicode="&#xfe;" horiz-adv-x="524" 
d="M361 506q63 0 98 -44.5t35 -122.5q0 -80 -33 -160t-95 -134.5t-135 -54.5q-65 0 -97 44t-29 122l-79 -275q-4 -15 0 -20.5t19 -5.5h94l-10 -35h-255l10 35h59q15 0 22.5 5.5t11.5 20.5l212 738q4 15 0 20.5t-19 5.5h-59l11 35h133l-88 -307h4q73 133 190 133zM226 28
q61 0 112.5 52t78 123.5t26.5 139.5q0 60 -26 95t-70 35q-85 0 -152.5 -102t-67.5 -213q0 -60 24.5 -95t74.5 -35z" />
    <glyph glyph-name="ydieresis" unicode="&#xff;" horiz-adv-x="593" 
d="M310 585q-19 0 -31 12t-12 31t12 31.5t31 12.5t31 -12.5t12 -31.5t-12 -31t-31 -12zM501 585q-19 0 -31 12t-12 31t12 31.5t31 12.5t31 -12.5t12 -31.5t-12 -31t-31 -12zM476 507q33 0 56.5 -31t23.5 -92q0 -75 -37 -174t-95.5 -188t-139 -150.5t-158.5 -61.5
q-57 0 -101.5 29t-44.5 69q0 21 12.5 35.5t32.5 14.5q15 0 26 -10t11 -26q0 -17 -11.5 -28.5t-30.5 -13.5q15 -16 45.5 -28t62.5 -12q51 0 102 31q51 283 39.5 440t-94.5 157q-36 0 -63 -31.5t-51 -99.5h-31q27 88 63.5 129t92.5 41q45 0 74.5 -25.5t42 -71t15.5 -103
t-3 -126t-14.5 -135t-19.5 -135.5q-1 -3 -1 -4q97 83 167.5 230.5t70.5 250.5q0 40 -15 64q-13 -25 -38 -25q-17 0 -27.5 11.5t-10.5 26.5q0 17 13.5 29.5t35.5 12.5z" />
    <glyph glyph-name="Amacron" unicode="&#x100;" horiz-adv-x="710" 
d="M645 822l-12 -41h-255l12 41h255zM612 35h36l-10 -35h-241l10 35h79q34 0 31 31l-17 137h-327l-95 -137q-22 -31 12 -31h82l-10 -35h-234l10 35h38q35 0 58 34l429 611h28l82 -613q5 -32 39 -32zM195 236h301l-47 367z" />
    <glyph glyph-name="amacron" unicode="&#x101;" horiz-adv-x="584" 
d="M227 642h255l-12 -41h-255zM168 -10q-67 0 -103 45t-36 126q0 78 33.5 157.5t95 134t133.5 54.5q60 0 94 -43t32 -128h4l45 164h49l-115 -396q-10 -35 -2 -54.5t32 -19.5q54 0 99 130h29q-30 -87 -63.5 -128.5t-77.5 -41.5q-42 0 -59 32.5t-1 84.5l5 14h-5
q-31 -60 -81.5 -95.5t-107.5 -35.5zM181 23q87 0 151.5 101t64.5 212q0 63 -24.5 100.5t-74.5 37.5q-61 0 -113 -53.5t-78 -125t-26 -136.5q0 -64 26 -100t74 -36z" />
    <glyph glyph-name="Abreve" unicode="&#x102;" horiz-adv-x="710" 
d="M502 767q-50 0 -73 32t-13 93h31q-4 -82 62 -82q72 0 116 82h34q-24 -61 -66 -93t-91 -32zM573 67q5 -32 39 -32h36l-10 -35h-241l10 35h79q34 0 31 31l-17 137h-327l-95 -137q-22 -31 12 -31h82l-10 -35h-234l10 35h38q35 0 58 34l429 611h28zM195 236h301l-47 367z" />
    <glyph glyph-name="abreve" unicode="&#x103;" horiz-adv-x="584" 
d="M496 712q-24 -61 -66 -93t-91 -32q-50 0 -73 32t-13 93h31q-4 -82 62 -82q72 0 116 82h34zM168 -10q-67 0 -103 45t-36 126q0 78 33.5 157.5t95 134t133.5 54.5q60 0 94 -43t32 -128h4l45 164h49l-115 -396q-10 -35 -2 -54.5t32 -19.5q54 0 99 130h29
q-30 -87 -63.5 -128.5t-77.5 -41.5q-42 0 -59 32.5t-1 84.5l5 14h-5q-31 -60 -81.5 -95.5t-107.5 -35.5zM181 23q87 0 151.5 101t64.5 212q0 63 -24.5 100.5t-74.5 37.5q-61 0 -113 -53.5t-78 -125t-26 -136.5q0 -64 26 -100t74 -36z" />
    <glyph glyph-name="Aogonek" unicode="&#x104;" horiz-adv-x="711" 
d="M558 0q-59 -55 -79.5 -82t-20.5 -53q0 -43 47 -43q26 0 65 18l-11 -38q-33 -18 -70 -18q-36 0 -56 17t-20 49q0 33 23 64t87 86h-126l10 35h79q34 0 31 31l-17 137h-327l-95 -137q-22 -31 12 -31h82l-10 -35h-234l10 35h38q35 0 58 34l429 611h28l82 -613q5 -32 39 -32
h36l-10 -35h-80zM195 236h301l-47 367z" />
    <glyph glyph-name="aogonek" unicode="&#x105;" horiz-adv-x="585" 
d="M472 9q-74 -66 -97.5 -93.5t-23.5 -54.5q0 -39 47 -39q27 0 65 18l-10 -38q-33 -18 -70 -18q-36 0 -56 16t-20 46q0 32 22.5 62t85.5 82q-41 1 -57.5 33.5t-0.5 83.5l5 14h-5q-31 -60 -81.5 -95.5t-107.5 -35.5q-67 0 -103 45t-36 126q0 78 33.5 157.5t95 134t133.5 54.5
q60 0 94 -43t32 -128h4l45 164h49l-115 -396q-10 -35 -2 -54.5t32 -19.5q54 0 99 130h29q-39 -114 -86 -151zM181 23q87 0 151.5 101t64.5 212q0 63 -24.5 100.5t-74.5 37.5q-61 0 -113 -53.5t-78 -125t-26 -136.5q0 -64 26 -100t74 -36z" />
    <glyph glyph-name="Cacute" unicode="&#x106;" horiz-adv-x="699" 
d="M653 864q-14 -15 -59.5 -49t-84.5 -59h-26q88 119 128 153q25 21 46 0t-4 -45zM458 690q102 0 164.5 -52.5t62.5 -138.5q0 -31 -12 -50.5t-35 -19.5q-18 0 -30 11t-12 28t12 28.5t32 11.5q8 0 12 -1q-1 66 -54 105.5t-136 39.5q-93 0 -169 -57.5t-117.5 -150
t-41.5 -197.5q0 -98 56 -158.5t147 -60.5q157 0 256 178h38q-112 -216 -298 -216q-111 0 -183.5 76t-72.5 193q0 175 111 303t270 128z" />
    <glyph glyph-name="cacute" unicode="&#x107;" horiz-adv-x="486" 
d="M486 729q20 -21 -4 -45q-14 -15 -59.5 -49t-84.5 -59h-26q88 119 128 153q25 21 46 0zM301 507q71 0 114.5 -40.5t43.5 -98.5q0 -29 -13.5 -47t-34.5 -18q-17 0 -28.5 11t-11.5 28t12.5 28.5t33.5 11.5q6 0 9 -1q-8 42 -40 66.5t-81 24.5q-63 0 -114 -43.5t-76.5 -107
t-25.5 -130.5q0 -79 37.5 -122t97.5 -43q105 0 160 115h31q-67 -151 -201 -151q-76 0 -126 56t-50 150q0 120 78 215.5t185 95.5z" />
    <glyph glyph-name="Cdotaccent" unicode="&#x10a;" horiz-adv-x="699" 
d="M507 765q-19 0 -31 12t-12 31t12 31.5t31 12.5t31 -12.5t12 -31.5t-12 -31t-31 -12zM458 690q102 0 164.5 -52.5t62.5 -138.5q0 -31 -12 -50.5t-35 -19.5q-18 0 -30 11t-12 28t12 28.5t32 11.5q8 0 12 -1q-1 66 -54 105.5t-136 39.5q-93 0 -169 -57.5t-117.5 -150
t-41.5 -197.5q0 -98 56 -158.5t147 -60.5q157 0 256 178h38q-112 -216 -298 -216q-111 0 -183.5 76t-72.5 193q0 175 111 303t270 128z" />
    <glyph glyph-name="cdotaccent" unicode="&#x10b;" horiz-adv-x="486" 
d="M336 585q-19 0 -31 12t-12 31t12 31.5t31 12.5t31 -12.5t12 -31.5t-12 -31t-31 -12zM371 342q0 17 12.5 28.5t33.5 11.5q6 0 9 -1q-8 42 -40 66.5t-81 24.5q-63 0 -114 -43.5t-76.5 -107t-25.5 -130.5q0 -79 37.5 -122t97.5 -43q105 0 160 115h31q-67 -151 -201 -151
q-76 0 -126 56t-50 150q0 120 78 215.5t185 95.5q71 0 114.5 -40.5t43.5 -98.5q0 -29 -13.5 -47t-34.5 -18q-17 0 -28.5 11t-11.5 28z" />
    <glyph glyph-name="Ccaron" unicode="&#x10c;" horiz-adv-x="699" 
d="M518 758q-10 0 -17 16l-64 142h26l69 -95l125 95h30l-143 -142q-16 -16 -26 -16zM458 690q102 0 164.5 -52.5t62.5 -138.5q0 -31 -12 -50.5t-35 -19.5q-18 0 -30 11t-12 28t12 28.5t32 11.5q8 0 12 -1q-1 66 -54 105.5t-136 39.5q-93 0 -169 -57.5t-117.5 -150
t-41.5 -197.5q0 -98 56 -158.5t147 -60.5q157 0 256 178h38q-112 -216 -298 -216q-111 0 -183.5 76t-72.5 193q0 175 111 303t270 128z" />
    <glyph glyph-name="ccaron" unicode="&#x10d;" horiz-adv-x="486" 
d="M347 578q-10 0 -17 16l-64 142h26l69 -95l125 95h30l-143 -142q-16 -16 -26 -16zM301 507q71 0 114.5 -40.5t43.5 -98.5q0 -29 -13.5 -47t-34.5 -18q-17 0 -28.5 11t-11.5 28t12.5 28.5t33.5 11.5q6 0 9 -1q-8 42 -40 66.5t-81 24.5q-63 0 -114 -43.5t-76.5 -107
t-25.5 -130.5q0 -79 37.5 -122t97.5 -43q105 0 160 115h31q-67 -151 -201 -151q-76 0 -126 56t-50 150q0 120 78 215.5t185 95.5z" />
    <glyph glyph-name="Dcaron" unicode="&#x10e;" horiz-adv-x="720" 
d="M607 916h30l-143 -142q-16 -16 -26 -16t-17 16l-64 142h26l69 -95zM406 680q131 0 211.5 -73t80.5 -188q0 -172 -129 -295.5t-311 -123.5h-294l9 35h82q15 0 22 5t11 20l160 558q9 27 -18 27h-81l11 35h246zM268 35q153 0 261.5 112t108.5 268q0 101 -64 165.5t-173 64.5
h-92l-176 -610h135z" />
    <glyph glyph-name="dcaron" unicode="&#x10f;" horiz-adv-x="584" 
d="M681 690q17 0 30 -12.5t13 -37.5q0 -43 -35.5 -87t-91.5 -70l-11 22q76 36 87 100q-36 8 -36 40q0 19 12 32t32 13zM566 680l-166 -576q-10 -35 -2 -54.5t32 -19.5q54 0 99 130h29q-30 -87 -63.5 -128.5t-77.5 -41.5q-42 0 -59 32.5t-1 84.5l5 14h-5q-31 -60 -81.5 -95.5
t-107.5 -35.5q-67 0 -103 45t-36 126q0 78 33.5 157t95 133.5t133.5 54.5q61 0 94.5 -43t31.5 -127h4l78 283q5 15 1 20.5t-19 5.5h-69l10 35h144zM181 24q87 0 151.5 100.5t64.5 211.5q0 133 -99 133q-61 0 -113 -52t-78 -122.5t-26 -135.5q0 -64 26 -99.5t74 -35.5z" />
    <glyph glyph-name="Dcroat" unicode="&#x110;" horiz-adv-x="720" 
d="M406 680q131 0 211.5 -73t80.5 -188q0 -172 -129 -295.5t-311 -123.5h-294l9 35h82q15 0 22 5t11 20l74 257h-107l10 35h107l76 266q9 27 -18 27h-81l11 35h246zM268 35q153 0 261.5 112t108.5 268q0 101 -64 165.5t-173 64.5h-92l-85 -293h206l-10 -35h-206l-81 -282
h135z" />
    <glyph glyph-name="dcroat" unicode="&#x111;" horiz-adv-x="584" 
d="M539 585l-139 -481q-10 -35 -2 -54.5t32 -19.5q54 0 99 130h29q-30 -87 -63.5 -128.5t-77.5 -41.5q-42 0 -59 32.5t-1 84.5l5 14h-5q-31 -60 -81.5 -95.5t-107.5 -35.5q-67 0 -103 45t-36 126q0 78 33.5 157t95 133.5t133.5 54.5q61 0 94.5 -43t31.5 -127h4l69 249h-173
l10 35h173l17 60h49l-17 -60h65l-10 -35h-65zM181 24q87 0 151.5 100.5t64.5 211.5q0 133 -99 133q-61 0 -113 -52t-78 -122.5t-26 -135.5q0 -64 26 -99.5t74 -35.5z" />
    <glyph glyph-name="Emacron" unicode="&#x112;" horiz-adv-x="641" 
d="M358 822h255l-12 -41h-255zM517 165h35l-48 -165h-540l10 35h79q15 0 22.5 5.5t11.5 20.5l160 558q4 15 0 20.5t-19 5.5h-79l10 35h540l-47 -165h-35q18 76 15 95q-6 35 -69 35h-256l-95 -331h162q11 0 20 2t15 3.5t12.5 8.5t9 9.5t8 13.5t6.5 13.5t6.5 17t6.5 17.5h31
l-60 -206h-31q1 4 3.5 14.5t3 14t2 12t1.5 11.5t-0.5 9.5t-2.5 9t-5.5 6.5t-8.5 5.5t-11.5 2.5t-15.5 1h-162l-70 -244h256q31 0 50.5 6t33.5 24t20.5 33t18.5 50q4 11 6 17z" />
    <glyph glyph-name="emacron" unicode="&#x113;" horiz-adv-x="461" 
d="M240 642h255l-12 -41h-255zM442 411q0 -48 -38 -86.5t-99 -61t-113 -35t-105 -19.5q-3 -23 -3 -44q0 -64 27 -101.5t84 -37.5q111 0 173 135h32q-77 -171 -213 -171q-76 0 -114 47t-38 127q0 129 82.5 235.5t202.5 106.5q56 0 89 -24.5t33 -70.5zM315 474
q-83 0 -144 -72.5t-80 -170.5q307 55 307 175q0 33 -22.5 50.5t-60.5 17.5z" />
    <glyph glyph-name="Edotaccent" unicode="&#x116;" horiz-adv-x="641" 
d="M484 765q-19 0 -31 12t-12 31t12 31.5t31 12.5t31 -12.5t12 -31.5t-12 -31t-31 -12zM517 165h35l-48 -165h-540l10 35h79q15 0 22.5 5.5t11.5 20.5l160 558q4 15 0 20.5t-19 5.5h-79l10 35h540l-47 -165h-35q18 76 15 95q-6 35 -69 35h-256l-95 -331h162q11 0 20 2
t15 3.5t12.5 8.5t9 9.5t8 13.5t6.5 13.5t6.5 17t6.5 17.5h31l-60 -206h-31q1 4 3.5 14.5t3 14t2 12t1.5 11.5t-0.5 9.5t-2.5 9t-5.5 6.5t-8.5 5.5t-11.5 2.5t-15.5 1h-162l-70 -244h256q31 0 50.5 6t33.5 24t20.5 33t18.5 50q4 11 6 17z" />
    <glyph glyph-name="edotaccent" unicode="&#x117;" horiz-adv-x="461" 
d="M366 585q-19 0 -31 12t-12 31t12 31.5t31 12.5t31 -12.5t12 -31.5t-12 -31t-31 -12zM442 411q0 -48 -38 -86.5t-99 -61t-113 -35t-105 -19.5q-3 -23 -3 -44q0 -64 27 -101.5t84 -37.5q111 0 173 135h32q-77 -171 -213 -171q-76 0 -114 47t-38 127q0 129 82.5 235.5
t202.5 106.5q56 0 89 -24.5t33 -70.5zM315 474q-83 0 -144 -72.5t-80 -170.5q307 55 307 175q0 33 -22.5 50.5t-60.5 17.5z" />
    <glyph glyph-name="Eogonek" unicode="&#x118;" horiz-adv-x="641" 
d="M159 680h540l-47 -165h-35q18 76 15 95q-6 35 -69 35h-256l-95 -331h162q11 0 20 2t15 3.5t12.5 8.5t9 9.5t8 13.5t6.5 13.5t6.5 17t6.5 17.5h31l-60 -206h-31q1 4 3.5 14.5t3 14t2 12t1.5 11.5t-0.5 9.5t-2.5 9t-5.5 6.5t-8.5 5.5t-11.5 2.5t-15.5 1h-162l-70 -244h256
q31 0 50.5 6t33.5 24t20.5 33t18.5 50q4 11 6 17h35l-48 -165h-45q-59 -55 -79.5 -82t-20.5 -53q0 -43 47 -43q27 0 65 18l-10 -38q-33 -18 -70 -18q-36 0 -56.5 17t-20.5 49q0 33 23 64t88 86h-461l10 35h79q15 0 22.5 5.5t11.5 20.5l160 558q4 15 0 20.5t-19 5.5h-79z" />
    <glyph glyph-name="eogonek" unicode="&#x119;" horiz-adv-x="461" 
d="M442 411q0 -48 -38 -86.5t-99 -61t-113 -35t-105 -19.5q-3 -23 -3 -44q0 -64 27 -101.5t84 -37.5q111 0 173 135h32q-41 -91 -97 -133q-80 -72 -105.5 -103.5t-25.5 -59.5q0 -43 47 -43q27 0 65 18l-10 -38q-33 -18 -70 -18q-36 0 -56.5 17t-20.5 49t22 63t82 82
q-23 -5 -44 -5q-76 0 -114 47t-38 127q0 129 82.5 235.5t202.5 106.5q56 0 89 -24.5t33 -70.5zM315 474q-83 0 -144 -72.5t-80 -170.5q307 55 307 175q0 33 -22.5 50.5t-60.5 17.5z" />
    <glyph glyph-name="Ecaron" unicode="&#x11a;" horiz-adv-x="641" 
d="M634 916h30l-143 -142q-16 -16 -26 -16t-17 16l-64 142h26l69 -95zM517 165h35l-48 -165h-540l10 35h79q15 0 22.5 5.5t11.5 20.5l160 558q4 15 0 20.5t-19 5.5h-79l10 35h540l-47 -165h-35q18 76 15 95q-6 35 -69 35h-256l-95 -331h162q11 0 20 2t15 3.5t12.5 8.5t9 9.5
t8 13.5t6.5 13.5t6.5 17t6.5 17.5h31l-60 -206h-31q1 4 3.5 14.5t3 14t2 12t1.5 11.5t-0.5 9.5t-2.5 9t-5.5 6.5t-8.5 5.5t-11.5 2.5t-15.5 1h-162l-70 -244h256q31 0 50.5 6t33.5 24t20.5 33t18.5 50q4 11 6 17z" />
    <glyph glyph-name="ecaron" unicode="&#x11b;" horiz-adv-x="461" 
d="M377 578q-10 0 -17 16l-64 142h26l69 -95l125 95h30l-143 -142q-16 -16 -26 -16zM320 506q56 0 89 -24.5t33 -70.5q0 -48 -38 -86.5t-99 -61t-113 -35t-105 -19.5q-3 -23 -3 -44q0 -64 27 -101.5t84 -37.5q111 0 173 135h32q-77 -171 -213 -171q-76 0 -114 47t-38 127
q0 129 82.5 235.5t202.5 106.5zM91 231q307 55 307 175q0 33 -22.5 50.5t-60.5 17.5q-83 0 -144 -72.5t-80 -170.5z" />
    <glyph glyph-name="Gbreve" unicode="&#x11e;" horiz-adv-x="773" 
d="M516 767q-50 0 -73 32t-13 93h31q-4 -82 62 -82q72 0 116 82h34q-24 -61 -66 -93t-91 -32zM405 283h322l-10 -35h-46q-16 0 -22.5 -5.5t-11.5 -20.5l-64 -222h-27l5 81q-89 -91 -214 -91q-117 0 -188.5 75t-71.5 203q0 106 48.5 202.5t138 158t197.5 61.5q101 0 163 -53
t62 -140q0 -29 -12 -47.5t-34 -18.5q-18 0 -31 10.5t-13 27.5q0 16 12 27.5t32 11.5q9 0 13 -1q0 65 -54 105t-134 40q-96 0 -173.5 -60.5t-117.5 -150t-40 -185.5q0 -109 55.5 -169t153.5 -60q129 0 218 110l24 85q5 15 1 20.5t-19 5.5h-171z" />
    <glyph glyph-name="gbreve" unicode="&#x11f;" horiz-adv-x="519" 
d="M506 712q-24 -61 -66 -93t-91 -32q-50 0 -73 32t-13 93h31q-4 -82 62 -82q72 0 116 82h34zM478 500h48l-145 -495q-26 -89 -96.5 -142t-158.5 -53q-73 0 -114.5 28t-41.5 68q0 23 13 37.5t32 14.5q16 0 27 -10.5t11 -26.5q0 -17 -12.5 -28t-32.5 -13q19 -40 112 -40
q74 0 133 45t81 120l37 127h-3q-70 -112 -179 -112q-70 0 -111.5 45t-41.5 124q0 74 32.5 146.5t92.5 122t130 49.5q63 0 102 -43t36 -128h2zM198 54q87 0 149.5 89t62.5 193q0 64 -28 99t-80 35q-62 0 -113 -47.5t-76.5 -112t-25.5 -124.5q0 -61 29.5 -96.5t81.5 -35.5z
" />
    <glyph glyph-name="Gdotaccent" unicode="&#x120;" horiz-adv-x="773" 
d="M530 765q-19 0 -31 12t-12 31t12 31.5t31 12.5t31 -12.5t12 -31.5t-12 -31t-31 -12zM405 283h322l-10 -35h-46q-16 0 -22.5 -5.5t-11.5 -20.5l-64 -222h-27l5 81q-89 -91 -214 -91q-117 0 -188.5 75t-71.5 203q0 106 48.5 202.5t138 158t197.5 61.5q101 0 163 -53
t62 -140q0 -29 -12 -47.5t-34 -18.5q-18 0 -31 10.5t-13 27.5q0 16 12 27.5t32 11.5q9 0 13 -1q0 65 -54 105t-134 40q-96 0 -173.5 -60.5t-117.5 -150t-40 -185.5q0 -109 55.5 -169t153.5 -60q129 0 218 110l24 85q5 15 1 20.5t-19 5.5h-171z" />
    <glyph glyph-name="gdotaccent" unicode="&#x121;" horiz-adv-x="519" 
d="M363 585q-19 0 -31 12t-12 31t12 31.5t31 12.5t31 -12.5t12 -31.5t-12 -31t-31 -12zM478 500h48l-145 -495q-26 -89 -96.5 -142t-158.5 -53q-73 0 -114.5 28t-41.5 68q0 23 13 37.5t32 14.5q16 0 27 -10.5t11 -26.5q0 -17 -12.5 -28t-32.5 -13q19 -40 112 -40
q74 0 133 45t81 120l37 127h-3q-70 -112 -179 -112q-70 0 -111.5 45t-41.5 124q0 74 32.5 146.5t92.5 122t130 49.5q63 0 102 -43t36 -128h2zM198 54q87 0 149.5 89t62.5 193q0 64 -28 99t-80 35q-62 0 -113 -47.5t-76.5 -112t-25.5 -124.5q0 -61 29.5 -96.5t81.5 -35.5z
" />
    <glyph glyph-name="Gcommaaccent" unicode="&#x122;" horiz-adv-x="773" 
d="M405 283h322l-10 -35h-46q-16 0 -22.5 -5.5t-11.5 -20.5l-64 -222h-27l5 81q-89 -91 -214 -91q-117 0 -188.5 75t-71.5 203q0 106 48.5 202.5t138 158t197.5 61.5q101 0 163 -53t62 -140q0 -29 -12 -47.5t-34 -18.5q-18 0 -31 10.5t-13 27.5q0 16 12 27.5t32 11.5
q9 0 13 -1q0 65 -54 105t-134 40q-96 0 -173.5 -60.5t-117.5 -150t-40 -185.5q0 -109 55.5 -169t153.5 -60q129 0 218 110l24 85q5 15 1 20.5t-19 5.5h-171zM303 -73q19 0 31.5 -11.5t12.5 -34.5q0 -43 -36 -80t-90 -50l-7 20q78 26 87 76q-17 1 -29.5 11t-12.5 27
q0 18 13 30t31 12z" />
    <glyph glyph-name="gcommaaccent" unicode="&#x123;" horiz-adv-x="519" 
d="M326 573q-19 0 -31.5 11.5t-12.5 34.5q0 43 36 80t90 50l7 -20q-78 -26 -87 -76q17 -1 29.5 -11t12.5 -27q0 -18 -13 -30t-31 -12zM478 500h48l-145 -495q-26 -89 -96.5 -142t-158.5 -53q-73 0 -114.5 28t-41.5 68q0 23 13 37.5t32 14.5q16 0 27 -10.5t11 -26.5
q0 -17 -12.5 -28t-32.5 -13q19 -40 112 -40q74 0 133 45t81 120l37 127h-3q-70 -112 -179 -112q-70 0 -111.5 45t-41.5 124q0 74 32.5 146.5t92.5 122t130 49.5q63 0 102 -43t36 -128h2zM198 54q87 0 149.5 89t62.5 193q0 64 -28 99t-80 35q-62 0 -113 -47.5t-76.5 -112
t-25.5 -124.5q0 -61 29.5 -96.5t81.5 -35.5z" />
    <glyph glyph-name="Hbar" unicode="&#x126;" horiz-adv-x="748" 
d="M747 645q-15 0 -21.5 -5.5t-11.5 -20.5l-37 -129h98l-10 -35h-98l-113 -394q-5 -15 -1 -20.5t19 -5.5h79l-10 -35h-252l10 35h69q15 0 21.5 5.5t11.5 20.5l63 221h-360l-63 -221q-4 -15 0 -20.5t19 -5.5h69l-10 -35h-253l10 35h79q15 0 22.5 5.5t11.5 20.5l113 394h-100
l10 35h100l37 129q4 15 0 20.5t-19 5.5h-79l10 35h253l-10 -35h-69q-15 0 -22.5 -5.5t-11.5 -20.5l-37 -129h360l37 129q5 15 1 20.5t-19 5.5h-69l10 35h252l-10 -35h-79zM574 317l40 138h-360l-40 -138h360z" />
    <glyph glyph-name="hbar" unicode="&#x127;" horiz-adv-x="584" 
d="M529 160h29q-29 -86 -62 -128t-75 -42q-39 0 -59.5 31t-3.5 84l64 198q25 79 11 121t-64 42q-155 0 -294 -466h-52l169 585h-95l10 35h95l17 60h50l-18 -60h148l-10 -35h-148l-68 -233l-39 -109h6q51 127 110.5 195.5t132.5 68.5q67 0 93 -50.5t-3 -148.5l-70 -212
q-9 -22 -0.5 -44t31.5 -22q50 0 95 130z" />
    <glyph glyph-name="Imacron" unicode="&#x12a;" horiz-adv-x="390" 
d="M232 822h255l-12 -41h-255zM361 645q-15 0 -21.5 -5.5t-11.5 -20.5l-160 -558q-5 -15 -1 -20.5t19 -5.5h97l-10 -35h-299l10 35h98q15 0 21.5 5.5t11.5 20.5l160 558q5 15 1 20.5t-19 5.5h-98l10 35h299l-10 -35h-97z" />
    <glyph glyph-name="imacron" unicode="&#x12b;" horiz-adv-x="312" 
d="M133 642h255l-12 -41h-255zM256 160h30q-57 -170 -140 -170q-41 0 -59.5 32.5t-1.5 82.5l97 287q12 36 5.5 56t-29.5 20q-27 0 -50.5 -31t-47.5 -100h-30q57 170 143 170q41 0 58.5 -32t-0.5 -83l-100 -296q-10 -28 -1.5 -47t30.5 -19q51 0 96 130z" />
    <glyph glyph-name="Iogonek" unicode="&#x12e;" horiz-adv-x="390" 
d="M169 680h299l-10 -35h-97q-15 0 -21.5 -5.5t-11.5 -20.5l-160 -558q-5 -15 -1 -20.5t19 -5.5h97l-10 -35h-137q-59 -55 -79.5 -82t-20.5 -53q0 -43 47 -43q27 0 65 18l-10 -38q-33 -18 -70 -18q-36 0 -56.5 17t-20.5 49q0 33 23.5 64.5t87.5 85.5h-128l10 35h98
q15 0 21.5 5.5t11.5 20.5l160 558q5 15 1 20.5t-19 5.5h-98z" />
    <glyph glyph-name="iogonek" unicode="&#x12f;" horiz-adv-x="312" 
d="M271 672q19 0 31 -12.5t12 -31.5t-12 -31t-31 -12t-31 12t-12 31t12 31.5t31 12.5zM160 30q51 0 96 130h30q-36 -107 -81 -146h1q-78 -70 -102 -98t-24 -55q0 -39 47 -39q27 0 65 18l-10 -38q-33 -18 -70 -18q-36 0 -56 16t-20 46q0 32 22.5 62t85.5 82q-40 1 -58 33.5
t-1 81.5l100 296q10 29 2.5 48t-29.5 19q-27 0 -50.5 -31t-47.5 -100h-30q57 170 143 170q41 0 58.5 -32t-0.5 -83l-100 -296q-10 -28 -1.5 -47t30.5 -19z" />
    <glyph glyph-name="Idotaccent" unicode="&#x130;" horiz-adv-x="390" 
d="M358 765q-19 0 -31 12t-12 31t12 31.5t31 12.5t31 -12.5t12 -31.5t-12 -31t-31 -12zM361 645q-15 0 -21.5 -5.5t-11.5 -20.5l-160 -558q-5 -15 -1 -20.5t19 -5.5h97l-10 -35h-299l10 35h98q15 0 21.5 5.5t11.5 20.5l160 558q5 15 1 20.5t-19 5.5h-98l10 35h299l-10 -35
h-97z" />
    <glyph glyph-name="dotlessi" unicode="&#x131;" horiz-adv-x="312" 
d="M256 160h30q-57 -170 -140 -170q-41 0 -59.5 32.5t-1.5 82.5l97 287q12 36 5.5 56t-29.5 20q-27 0 -50.5 -31t-47.5 -100h-30q57 170 143 170q41 0 58.5 -32t-0.5 -83l-100 -296q-10 -28 -1.5 -47t30.5 -19q51 0 96 130z" />
    <glyph glyph-name="Kcommaaccent" unicode="&#x136;" horiz-adv-x="731" 
d="M227 35l-10 -35h-253l10 35h79q15 0 22.5 5.5t11.5 20.5l160 558q4 15 0 20.5t-19 5.5h-79l10 35h253l-10 -35h-69q-15 0 -22.5 -5.5t-11.5 -20.5l-160 -558q-4 -15 0 -20.5t19 -5.5h69zM533 680h278l-10 -35h-36q-47 0 -81 -28l-333 -282l165 -264q22 -36 69 -36h74
l-10 -35h-310l10 35h95q28 0 14 27l-168 270l344 289q27 24 -2 24h-109zM278 -73q19 0 31.5 -11.5t12.5 -34.5q0 -43 -36 -80t-90 -50l-7 20q78 26 87 76q-17 1 -29.5 11t-12.5 27q0 18 13 30t31 12z" />
    <glyph glyph-name="kcommaaccent" unicode="&#x137;" horiz-adv-x="516" 
d="M124 680h129l-195 -680h-49l177 619q5 15 1 20.5t-19 5.5h-54zM429 446q0 18 14 29q-25 -2 -56.5 -30t-81 -74.5t-104.5 -77.5q43 -4 71.5 -19t41.5 -40t17.5 -50t3.5 -59q-1 -27 0 -48t9.5 -34t25.5 -13q27 0 48 31.5t42 98.5h30q-28 -89 -59 -129.5t-76 -40.5
q-78 0 -73 125q0 21 0.5 43t-5.5 42.5t-16 36.5t-32 27t-54 13l-5 14q45 31 88.5 74t68.5 71.5t57.5 49.5t66.5 21q33 0 48 -14.5t15 -35.5t-13 -34.5t-33 -13.5q-17 0 -28 10.5t-11 26.5zM174 -73q19 0 31.5 -11.5t12.5 -34.5q0 -43 -36 -80t-90 -50l-7 20q78 26 87 76
q-17 1 -29.5 11t-12.5 27q0 18 13 30t31 12z" />
    <glyph glyph-name="Lacute" unicode="&#x139;" horiz-adv-x="606" 
d="M312 756q88 119 128 153q25 21 46 0q20 -21 -4 -45q-14 -15 -59.5 -49t-84.5 -59h-26zM498 186h35l-54 -186h-515l9 35h80q15 0 22.5 5.5t11.5 20.5l160 558q4 15 0 20.5t-19 5.5h-79l10 35h300l-10 -35h-116q-15 0 -22.5 -5.5t-11.5 -20.5l-167 -584h231q40 0 65 17.5
t35 38.5t28 75q5 13 7 20z" />
    <glyph glyph-name="lacute" unicode="&#x13a;" horiz-adv-x="279" 
d="M249 756q88 119 128 153q25 21 46 0t-4 -45q-14 -15 -59.5 -49t-84.5 -59h-26zM126 30q52 0 97 130h30q-58 -170 -139 -170q-43 0 -59.5 31.5t-2.5 83.5l147 514q4 15 0 20.5t-19 5.5h-69l10 35h144l-167 -582q-9 -31 -2 -49.5t30 -18.5z" />
    <glyph glyph-name="Lcommaaccent" unicode="&#x13b;" horiz-adv-x="606" 
d="M498 186h35l-54 -186h-515l9 35h80q15 0 22.5 5.5t11.5 20.5l160 558q4 15 0 20.5t-19 5.5h-79l10 35h300l-10 -35h-116q-15 0 -22.5 -5.5t-11.5 -20.5l-167 -584h231q40 0 65 17.5t35 38.5t28 75q5 13 7 20zM230 -73q19 0 31.5 -11.5t12.5 -34.5q0 -43 -36 -80t-90 -50
l-7 20q78 26 87 76q-17 1 -29.5 11t-12.5 27q0 18 13 30t31 12z" />
    <glyph glyph-name="lcommaaccent" unicode="&#x13c;" horiz-adv-x="279" 
d="M126 30q52 0 97 130h30q-58 -170 -139 -170q-43 0 -59.5 31.5t-2.5 83.5l147 514q4 15 0 20.5t-19 5.5h-69l10 35h144l-167 -582q-9 -31 -2 -49.5t30 -18.5zM34 -73q19 0 31.5 -11.5t12.5 -34.5q0 -43 -36 -80t-90 -50l-7 20q78 26 87 76q-17 1 -29.5 11t-12.5 27
q0 18 13 30t31 12z" />
    <glyph glyph-name="Lcaron" unicode="&#x13d;" horiz-adv-x="606" 
d="M584 690q17 0 30 -12.5t13 -37.5q0 -43 -35.5 -87t-91.5 -70l-11 22q76 36 87 100q-36 8 -36 40q0 19 12 32t32 13zM363 35q40 0 65 17.5t35 38.5t28 75q5 13 7 20h35l-54 -186h-515l9 35h80q15 0 22.5 5.5t11.5 20.5l160 558q4 15 0 20.5t-19 5.5h-79l10 35h300l-10 -35
h-116q-15 0 -22.5 -5.5t-11.5 -20.5l-167 -584h231z" />
    <glyph glyph-name="lcaron" unicode="&#x13e;" horiz-adv-x="279" 
d="M385 690q17 0 30 -12.5t13 -37.5q0 -43 -35.5 -87t-91.5 -70l-11 22q76 36 87 100q-36 8 -36 40q0 19 12 32t32 13zM265 680l-167 -582q-9 -31 -2 -49.5t30 -18.5q52 0 97 130h30q-58 -170 -139 -170q-43 0 -59.5 31.5t-2.5 83.5l147 514q4 15 0 20.5t-19 5.5h-69l10 35
h144z" />
    <glyph glyph-name="Lslash" unicode="&#x141;" horiz-adv-x="606" 
d="M498 186h35l-54 -186h-515l9 35h80q15 0 22.5 5.5t11.5 20.5l56 194l-106 -48l11 37l105 48l94 327q4 15 0 20.5t-19 5.5h-79l10 35h300l-10 -35h-116q-15 0 -22.5 -5.5t-11.5 -20.5l-86 -300l247 113l-11 -37l-246 -112l-71 -248h231q40 0 65 17.5t35 38.5t28 75
q5 13 7 20z" />
    <glyph glyph-name="lslash" unicode="&#x142;" horiz-adv-x="279" 
d="M152 286l-54 -188q-9 -31 -2 -49.5t30 -18.5q52 0 97 130h30q-58 -170 -139 -170q-43 0 -59.5 31.5t-2.5 83.5l43 151l-83 -45l14 44l81 44l92 320q4 15 0 20.5t-19 5.5h-69l10 35h144l-101 -351l124 67l-13 -44z" />
    <glyph glyph-name="Nacute" unicode="&#x143;" horiz-adv-x="766" 
d="M499 756q88 119 128 153q25 21 46 0t-4 -45q-14 -15 -59.5 -49t-84.5 -59h-26zM859 680l-10 -35h-84q-15 0 -21.5 -5.5t-11.5 -20.5l-178 -619h-26l-242 620l-160 -559q-5 -15 -1 -20.5t19 -5.5h79l-10 -35h-249l10 35h79q15 0 22.5 5.5t11.5 20.5l160 558q4 15 0 20.5
t-19 5.5h-79l10 35h156l227 -585l151 524q4 15 0 20.5t-19 5.5h-79l10 35h254z" />
    <glyph glyph-name="nacute" unicode="&#x144;" horiz-adv-x="622" 
d="M378 576q88 119 128 153q25 21 46 0q20 -21 -4 -45q-14 -15 -59.5 -49t-84.5 -59h-26zM566 160h30q-30 -87 -63 -128.5t-75 -41.5q-43 0 -61.5 32.5t-2.5 82.5l66 198q25 79 11 121t-64 42q-155 0 -294 -466h-49l114 392q22 76 -25 76q-27 0 -50.5 -31t-47.5 -100h-30
q30 87 63.5 128.5t77.5 41.5q43 0 57.5 -31.5t-2.5 -79.5l-50 -153h5q107 264 244 264q68 0 94 -50.5t-3 -148.5l-70 -212q-9 -25 -1 -45.5t31 -20.5q50 0 95 130z" />
    <glyph glyph-name="Ncommaaccent" unicode="&#x145;" horiz-adv-x="766" 
d="M605 680h254l-10 -35h-84q-15 0 -21.5 -5.5t-11.5 -20.5l-178 -619h-26l-242 620l-160 -559q-5 -15 -1 -20.5t19 -5.5h79l-10 -35h-249l10 35h79q15 0 22.5 5.5t11.5 20.5l160 558q4 15 0 20.5t-19 5.5h-79l10 35h156l227 -585l151 524q4 15 0 20.5t-19 5.5h-79zM321 -73
q19 0 31.5 -11.5t12.5 -34.5q0 -43 -36 -80t-90 -50l-7 20q78 26 87 76q-17 1 -29.5 11t-12.5 27q0 18 13 30t31 12z" />
    <glyph glyph-name="ncommaaccent" unicode="&#x146;" horiz-adv-x="622" 
d="M566 160h30q-30 -87 -63 -128.5t-75 -41.5q-43 0 -61.5 32.5t-2.5 82.5l66 198q25 79 11 121t-64 42q-155 0 -294 -466h-49l114 392q22 76 -25 76q-27 0 -50.5 -31t-47.5 -100h-30q30 87 63.5 128.5t77.5 41.5q43 0 57.5 -31.5t-2.5 -79.5l-50 -153h5q107 264 244 264
q68 0 94 -50.5t-3 -148.5l-70 -212q-9 -25 -1 -45.5t31 -20.5q50 0 95 130zM248 -73q19 0 31.5 -11.5t12.5 -34.5q0 -43 -36 -80t-90 -50l-7 20q78 26 87 76q-17 1 -29.5 11t-12.5 27q0 18 13 30t31 12z" />
    <glyph glyph-name="Ncaron" unicode="&#x147;" horiz-adv-x="766" 
d="M673 916h30l-143 -142q-16 -16 -26 -16t-17 16l-64 142h26l69 -95zM859 680l-10 -35h-84q-15 0 -21.5 -5.5t-11.5 -20.5l-178 -619h-26l-242 620l-160 -559q-5 -15 -1 -20.5t19 -5.5h79l-10 -35h-249l10 35h79q15 0 22.5 5.5t11.5 20.5l160 558q4 15 0 20.5t-19 5.5h-79
l10 35h156l227 -585l151 524q4 15 0 20.5t-19 5.5h-79l10 35h254z" />
    <glyph glyph-name="ncaron" unicode="&#x148;" horiz-adv-x="622" 
d="M552 736h30l-143 -142q-16 -16 -26 -16t-17 16l-64 142h26l69 -95zM566 160h30q-30 -87 -63 -128.5t-75 -41.5q-43 0 -61.5 32.5t-2.5 82.5l66 198q25 79 11 121t-64 42q-155 0 -294 -466h-49l114 392q22 76 -25 76q-27 0 -50.5 -31t-47.5 -100h-30q30 87 63.5 128.5
t77.5 41.5q43 0 57.5 -31.5t-2.5 -79.5l-50 -153h5q107 264 244 264q68 0 94 -50.5t-3 -148.5l-70 -212q-9 -25 -1 -45.5t31 -20.5q50 0 95 130z" />
    <glyph glyph-name="Eng" unicode="&#x14a;" horiz-adv-x="766" 
d="M605 680h254l-10 -35h-84q-15 0 -21.5 -5.5t-11.5 -20.5l-178 -619l-15 -54q-17 -64 -58 -100t-95 -36q-44 0 -70.5 23.5t-26.5 62.5q0 20 13 33.5t32 13.5q15 0 26 -10t11 -26q0 -18 -13 -29t-32 -12q20 -26 56 -26q79 0 109 106l24 87l-229 587l-160 -559
q-5 -15 -1 -20.5t19 -5.5h79l-10 -35h-249l10 35h79q15 0 22.5 5.5t11.5 20.5l160 558q4 15 0 20.5t-19 5.5h-79l10 35h156l227 -585l151 524q4 15 0 20.5t-19 5.5h-79z" />
    <glyph glyph-name="eng" unicode="&#x14b;" horiz-adv-x="559" 
d="M420 507q67 0 92.5 -50.5t-1.5 -148.5l-108 -362q-19 -63 -60 -99.5t-95 -36.5q-43 0 -69.5 23.5t-26.5 62.5q0 20 12.5 33.5t31.5 13.5q16 0 26.5 -10t10.5 -26q0 -19 -12.5 -30t-32.5 -11q20 -26 57 -26q78 0 109 106l106 357q23 79 9.5 121t-62.5 42q-155 0 -294 -466
h-49l114 392q22 76 -25 76q-27 0 -50.5 -31t-47.5 -100h-30q30 87 63.5 128.5t77.5 41.5q43 0 57.5 -31.5t-2.5 -79.5l-50 -153h5q107 264 244 264z" />
    <glyph glyph-name="Omacron" unicode="&#x14c;" horiz-adv-x="725" 
d="M379 822h255l-12 -41h-255zM331 -10q-110 0 -181.5 76t-73.5 193q0 75 26 151t72 138.5t117.5 102t153.5 39.5q110 0 182 -76t73 -193q1 -101 -42.5 -198.5t-130.5 -165t-196 -67.5zM333 25q71 0 132.5 39t99.5 99t59 130.5t20 137.5q-2 97 -58 161t-142 64
q-73 0 -134.5 -38.5t-99.5 -99.5t-58.5 -131.5t-19.5 -137.5q2 -98 58.5 -161t142.5 -63z" />
    <glyph glyph-name="omacron" unicode="&#x14d;" horiz-adv-x="501" 
d="M234 642h255l-12 -41h-255zM202 -9q-77 0 -122 49.5t-45 138.5q0 75 29 148t91.5 126t142.5 53q78 0 123 -48.5t45 -137.5q0 -76 -30.5 -150t-92.5 -126.5t-141 -52.5zM203 23q52 0 95.5 32.5t68 82t38 101t13.5 95.5q0 69 -33.5 104.5t-87.5 35.5q-52 0 -95 -32
t-67.5 -81t-37.5 -100.5t-13 -95.5q0 -70 32.5 -106t86.5 -36z" />
    <glyph glyph-name="Ohungarumlaut" unicode="&#x150;" horiz-adv-x="725" 
d="M390 756q88 119 128 153q25 21 46 0q20 -21 -4 -45q-14 -15 -59.5 -49t-84.5 -59h-26zM540 756q88 119 128 153q25 21 46 0q20 -21 -4 -45q-14 -15 -59.5 -49t-84.5 -59h-26zM331 -10q-110 0 -181.5 76t-73.5 193q0 75 26 151t72 138.5t117.5 102t153.5 39.5
q110 0 182 -76t73 -193q1 -101 -42.5 -198.5t-130.5 -165t-196 -67.5zM333 25q71 0 132.5 39t99.5 99t59 130.5t20 137.5q-2 97 -58 161t-142 64q-73 0 -134.5 -38.5t-99.5 -99.5t-58.5 -131.5t-19.5 -137.5q2 -98 58.5 -161t142.5 -63z" />
    <glyph glyph-name="ohungarumlaut" unicode="&#x151;" horiz-adv-x="501" 
d="M245 576q88 119 128 153q25 21 46 0t-4 -45q-14 -15 -59.5 -49t-84.5 -59h-26zM395 576q88 119 128 153q25 21 46 0t-4 -45q-14 -15 -59.5 -49t-84.5 -59h-26zM202 -9q-77 0 -122 49.5t-45 138.5q0 75 29 148t91.5 126t142.5 53q78 0 123 -48.5t45 -137.5
q0 -76 -30.5 -150t-92.5 -126.5t-141 -52.5zM203 23q52 0 95.5 32.5t68 82t38 101t13.5 95.5q0 69 -33.5 104.5t-87.5 35.5q-52 0 -95 -32t-67.5 -81t-37.5 -100.5t-13 -95.5q0 -70 32.5 -106t86.5 -36z" />
    <glyph glyph-name="OE" unicode="&#x152;" horiz-adv-x="1025" 
d="M366 0q-131 0 -211.5 73.5t-80.5 188.5q0 171 129 294.5t311 123.5h539l-47 -165h-35q17 75 15 93q-13 35 -69 37h-226l-96 -331h163q25 0 41.5 11.5t21.5 22t16 41.5q3 6 4 10h31l-59 -206h-31q1 4 3.5 14.5t3 14t2 12t1.5 11.5t-0.5 9.5t-2.5 9t-5.5 6.5t-8.5 5.5
t-11.5 2.5t-15.5 1h-162l-71 -244h257q58 0 79.5 24.5t43.5 89.5q3 11 5 16h35l-47 -165h-522zM370 35h93l175 610h-134q-153 0 -262 -112t-109 -268q0 -101 64.5 -165.5t172.5 -64.5z" />
    <glyph glyph-name="oe" unicode="&#x153;" horiz-adv-x="824" 
d="M806 411q0 -48 -38 -86.5t-99 -61t-113 -35t-105 -19.5q-3 -22 -3 -44q0 -64 27 -101.5t84 -37.5q111 0 173 135h32q-77 -171 -213 -171q-124 0 -147 122q-80 -121 -202 -121q-77 0 -122 49.5t-45 138.5q0 75 29 148t91.5 126t142.5 53q65 0 108 -34.5t55 -99.5
q40 61 97.5 97.5t125.5 36.5q56 0 89 -24.5t33 -70.5zM203 23q52 0 95.5 32.5t68 82t38 101t13.5 95.5q0 69 -33.5 104.5t-87.5 35.5q-52 0 -95 -32t-67.5 -81t-37.5 -100.5t-13 -95.5q0 -70 32.5 -106t86.5 -36zM458 246q0 -4 -2 -10q0 -1 -0.5 -2.5t-0.5 -2.5
q307 55 307 175q0 33 -22.5 50.5t-60.5 17.5q-79 0 -139 -67.5t-82 -160.5z" />
    <glyph glyph-name="Racute" unicode="&#x154;" horiz-adv-x="689" 
d="M585 864q-14 -15 -59.5 -49t-84.5 -59h-26q88 119 128 153q25 21 46 0t-4 -45zM512 71q8 -20 21.5 -28t43.5 -8h67l-10 -35h-167l-59 197q-16 51 -41 68.5t-75 17.5h-89l-64 -222q-4 -14 -0.5 -20t18.5 -6h92l-10 -35h-276l10 35h80q15 0 21.5 5.5t11.5 20.5l160 558
q5 13 2 19.5t-20 6.5h-79l10 35h277q100 0 159.5 -45.5t59.5 -126.5q0 -90 -77.5 -150.5t-194.5 -66.5q30 -9 48 -32.5t36 -69.5zM213 318h135q107 0 179.5 54t72.5 137q0 65 -46 100.5t-125 35.5h-122z" />
    <glyph glyph-name="racute" unicode="&#x155;" horiz-adv-x="444" 
d="M454 684q-14 -15 -59.5 -49t-84.5 -59h-26q88 119 128 153q25 21 46 0q20 -21 -4 -45zM407 507q35 0 53.5 -15.5t18.5 -39.5q0 -20 -12.5 -34.5t-31.5 -14.5q-16 0 -28 10t-12 27q0 21 17 30q-5 1 -17 1q-30 0 -62 -23.5t-68.5 -75t-75.5 -146.5t-76 -226h-49l113 388
q23 80 -25 80q-52 0 -97 -131h-30q57 170 139 170q43 0 58.5 -32.5t-1.5 -82.5l-51 -149h4q60 148 114.5 206t118.5 58z" />
    <glyph glyph-name="Rcommaaccent" unicode="&#x156;" horiz-adv-x="689" 
d="M512 71q8 -20 21.5 -28t43.5 -8h67l-10 -35h-167l-59 197q-16 51 -41 68.5t-75 17.5h-89l-64 -222q-4 -14 -0.5 -20t18.5 -6h92l-10 -35h-276l10 35h80q15 0 21.5 5.5t11.5 20.5l160 558q5 13 2 19.5t-20 6.5h-79l10 35h277q100 0 159.5 -45.5t59.5 -126.5
q0 -90 -77.5 -150.5t-194.5 -66.5q30 -9 48 -32.5t36 -69.5zM213 318h135q107 0 179.5 54t72.5 137q0 65 -46 100.5t-125 35.5h-122zM303 -73q19 0 31.5 -11.5t12.5 -34.5q0 -43 -36 -80t-90 -50l-7 20q78 26 87 76q-17 1 -29.5 11t-12.5 27q0 18 13 30t31 12z" />
    <glyph glyph-name="rcommaaccent" unicode="&#x157;" horiz-adv-x="444" 
d="M407 507q35 0 53.5 -15.5t18.5 -39.5q0 -20 -12.5 -34.5t-31.5 -14.5q-16 0 -28 10t-12 27q0 21 17 30q-5 1 -17 1q-30 0 -62 -23.5t-68.5 -75t-75.5 -146.5t-76 -226h-49l113 388q23 80 -25 80q-52 0 -97 -131h-30q57 170 139 170q43 0 58.5 -32.5t-1.5 -82.5l-51 -149
h4q60 148 114.5 206t118.5 58zM56 -73q19 0 31.5 -11.5t12.5 -34.5q0 -43 -36 -80t-90 -50l-7 20q78 26 87 76q-17 1 -29.5 11t-12.5 27q0 18 13 30t31 12z" />
    <glyph glyph-name="Rcaron" unicode="&#x158;" horiz-adv-x="689" 
d="M450 758q-10 0 -17 16l-64 142h26l69 -95l125 95h30l-143 -142q-16 -16 -26 -16zM512 71q8 -20 21.5 -28t43.5 -8h67l-10 -35h-167l-59 197q-16 51 -41 68.5t-75 17.5h-89l-64 -222q-4 -14 -0.5 -20t18.5 -6h92l-10 -35h-276l10 35h80q15 0 21.5 5.5t11.5 20.5l160 558
q5 13 2 19.5t-20 6.5h-79l10 35h277q100 0 159.5 -45.5t59.5 -126.5q0 -90 -77.5 -150.5t-194.5 -66.5q30 -9 48 -32.5t36 -69.5zM213 318h135q107 0 179.5 54t72.5 137q0 65 -46 100.5t-125 35.5h-122z" />
    <glyph glyph-name="rcaron" unicode="&#x159;" horiz-adv-x="444" 
d="M319 578q-10 0 -17 16l-64 142h26l69 -95l125 95h30l-143 -142q-16 -16 -26 -16zM407 507q35 0 53.5 -15.5t18.5 -39.5q0 -20 -12.5 -34.5t-31.5 -14.5q-16 0 -28 10t-12 27q0 21 17 30q-5 1 -17 1q-30 0 -62 -23.5t-68.5 -75t-75.5 -146.5t-76 -226h-49l113 388
q23 80 -25 80q-52 0 -97 -131h-30q57 170 139 170q43 0 58.5 -32.5t-1.5 -82.5l-51 -149h4q60 148 114.5 206t118.5 58z" />
    <glyph glyph-name="Sacute" unicode="&#x15a;" horiz-adv-x="548" 
d="M555 864q-14 -15 -59.5 -49t-84.5 -59h-26q88 119 128 153q25 21 46 0t-4 -45zM366 690q79 0 141 -40t62 -100q0 -27 -12 -42t-33 -15q-18 0 -29.5 11t-11.5 28q0 19 12.5 31t31.5 12h5q-14 36 -62 57.5t-101 21.5q-79 0 -129.5 -41.5t-50.5 -100.5q0 -42 30 -74
t72.5 -54t85.5 -45.5t73 -61.5t30 -89q0 -81 -66 -140t-165 -59q-90 0 -156 49.5t-68 131.5q0 26 11.5 46.5t36.5 20.5q19 0 29.5 -11t10.5 -27q0 -17 -12.5 -29.5t-31.5 -12.5h-7q5 -59 57.5 -95.5t126.5 -36.5q82 0 131.5 45t49.5 106q0 44 -30 77t-73 55t-86 44.5
t-73 59.5t-30 86q0 80 66.5 136t164.5 56z" />
    <glyph glyph-name="sacute" unicode="&#x15b;" horiz-adv-x="444" 
d="M461 728q21 -20 -4 -45q-14 -15 -59.5 -49t-84.5 -59h-26q88 119 128 153q25 21 46 0zM270 507q63 0 111 -28.5t48 -76.5q0 -22 -11.5 -37t-30.5 -15q-17 0 -28 10.5t-11 26.5q0 18 15 28t32 9q-10 24 -44 37.5t-74 13.5q-56 0 -91 -28t-35 -71q0 -32 22 -55t54 -38
t64 -31t54 -44t22 -67q0 -65 -51.5 -108t-125.5 -43q-68 0 -120 37.5t-52 95.5q0 27 12.5 42.5t32.5 15.5q16 0 26.5 -10t10.5 -25q0 -18 -15 -30t-34 -10q7 -34 44 -59t89 -25q57 0 95.5 31t38.5 77q0 33 -22.5 56t-54.5 37.5t-63.5 30t-54 43.5t-22.5 68q0 63 48 102.5
t121 39.5z" />
    <glyph glyph-name="Scedilla" unicode="&#x15e;" horiz-adv-x="548" 
d="M366 690q79 0 141 -40t62 -100q0 -27 -12 -42t-33 -15q-18 0 -29.5 11t-11.5 28q0 19 12.5 31t31.5 12h5q-14 36 -62 57.5t-101 21.5q-79 0 -129.5 -41.5t-50.5 -100.5q0 -42 30 -74t72.5 -54t85.5 -45.5t73 -61.5t30 -89q0 -81 -66 -140t-165 -59q-17 0 -26 1l-42 -62
q49 1 77.5 -18.5t28.5 -51.5q0 -37 -33.5 -63t-81.5 -26q-52 0 -94 30l17 25q35 -25 78 -25q31 0 51.5 16t20.5 41q0 27 -29 38.5t-78 5.5l-7 13l64 81q-72 14 -120 60.5t-50 115.5q0 26 11.5 46.5t36.5 20.5q19 0 29.5 -11t10.5 -27q0 -17 -12.5 -29.5t-31.5 -12.5h-7
q5 -59 57.5 -95.5t126.5 -36.5q82 0 131.5 45t49.5 106q0 44 -30 77t-73 55t-86 44.5t-73 59.5t-30 86q0 80 66.5 136t164.5 56z" />
    <glyph glyph-name="scedilla" unicode="&#x15f;" horiz-adv-x="444" 
d="M270 507q63 0 111 -28.5t48 -76.5q0 -22 -11.5 -37t-30.5 -15q-17 0 -28 10.5t-11 26.5q0 18 15 28t32 9q-10 24 -44 37.5t-74 13.5q-56 0 -91 -28t-35 -71q0 -32 22 -55t54 -38t64 -31t54 -44t22 -67q0 -65 -51.5 -108t-125.5 -43q-11 0 -17 1l-41 -61q49 1 77.5 -18.5
t28.5 -51.5q0 -37 -33.5 -63t-81.5 -26q-52 0 -94 30l17 25q35 -25 78 -25q31 0 51.5 16t20.5 41q0 27 -29 38.5t-78 5.5l-7 13l62 80q-54 12 -90 46.5t-36 81.5q0 27 12.5 42.5t32.5 15.5q16 0 26.5 -10t10.5 -25q0 -18 -15 -30t-34 -10q7 -34 44 -59t89 -25q57 0 95.5 31
t38.5 77q0 33 -22.5 56t-54.5 37.5t-63.5 30t-54 43.5t-22.5 68q0 63 48 102.5t121 39.5z" />
    <glyph glyph-name="Scaron" unicode="&#x160;" horiz-adv-x="548" 
d="M420 758q-10 0 -17 16l-64 142h26l69 -95l125 95h30l-143 -142q-16 -16 -26 -16zM366 690q79 0 141 -40t62 -100q0 -27 -12 -42t-33 -15q-18 0 -29.5 11t-11.5 28q0 19 12.5 31t31.5 12h5q-14 36 -62 57.5t-101 21.5q-79 0 -129.5 -41.5t-50.5 -100.5q0 -42 30 -74
t72.5 -54t85.5 -45.5t73 -61.5t30 -89q0 -81 -66 -140t-165 -59q-90 0 -156 49.5t-68 131.5q0 26 11.5 46.5t36.5 20.5q19 0 29.5 -11t10.5 -27q0 -17 -12.5 -29.5t-31.5 -12.5h-7q5 -59 57.5 -95.5t126.5 -36.5q82 0 131.5 45t49.5 106q0 44 -30 77t-73 55t-86 44.5
t-73 59.5t-30 86q0 80 66.5 136t164.5 56z" />
    <glyph glyph-name="scaron" unicode="&#x161;" horiz-adv-x="444" 
d="M322 577q-10 0 -17 16l-64 142h26l69 -95l125 95h30l-143 -142q-16 -16 -26 -16zM270 507q63 0 111 -28.5t48 -76.5q0 -22 -11.5 -37t-30.5 -15q-17 0 -28 10.5t-11 26.5q0 18 15 28t32 9q-10 24 -44 37.5t-74 13.5q-56 0 -91 -28t-35 -71q0 -32 22 -55t54 -38t64 -31
t54 -44t22 -67q0 -65 -51.5 -108t-125.5 -43q-68 0 -120 37.5t-52 95.5q0 27 12.5 42.5t32.5 15.5q16 0 26.5 -10t10.5 -25q0 -18 -15 -30t-34 -10q7 -34 44 -59t89 -25q57 0 95.5 31t38.5 77q0 33 -22.5 56t-54.5 37.5t-63.5 30t-54 43.5t-22.5 68q0 63 48 102.5t121 39.5z
" />
    <glyph glyph-name="uni0162" unicode="&#x162;" horiz-adv-x="656" 
d="M174 680h555l-54 -185h-35q21 88 20 109q-4 38 -55 41h-12h-126l-167 -584q-5 -15 -1 -20.5t19 -5.5h117l-10 -35h-156l-49 -72q49 1 77.5 -18.5t28.5 -51.5q0 -37 -33.5 -63t-81.5 -26q-52 0 -94 30l17 25q35 -25 78 -25q31 0 51.5 16t20.5 41q0 27 -29 38.5t-78 5.5
l-7 13l68 87h-151l10 35h117q15 0 21.5 5.5t11.5 20.5l167 584h-124q-25 0 -43 -6.5t-29 -13.5t-23 -28.5t-16.5 -34t-16.5 -47.5q-5 -13 -7 -20h-35z" />
    <glyph glyph-name="uni0163" unicode="&#x163;" horiz-adv-x="347" 
d="M211 465l-100 -349q-12 -40 1 -63t43 -23q32 0 62.5 33t53.5 97h29q-57 -170 -155 -170h-5l-42 -62q49 1 77.5 -18.5t28.5 -51.5q0 -37 -33.5 -63t-81.5 -26q-52 0 -94 30l17 25q35 -25 78 -25q31 0 51.5 16t20.5 41q0 27 -29 38.5t-78 5.5l-7 13l64 82q-34 11 -48 44
t-1 80l100 346h-91l10 35h92l51 100h25l-29 -100h178l-10 -35h-178z" />
    <glyph glyph-name="Tcaron" unicode="&#x164;" horiz-adv-x="656" 
d="M615 916h30l-143 -142q-16 -16 -26 -16t-17 16l-64 142h26l69 -95zM729 680l-54 -185h-35q21 88 20 109q-4 38 -55 41h-12h-126l-167 -584q-5 -15 -1 -20.5t19 -5.5h117l-10 -35h-338l10 35h117q15 0 21.5 5.5t11.5 20.5l167 584h-124q-25 0 -43 -6.5t-29 -13.5
t-23 -28.5t-16.5 -34t-16.5 -47.5q-5 -13 -7 -20h-35l54 185h555z" />
    <glyph glyph-name="tcaron" unicode="&#x165;" horiz-adv-x="347" 
d="M412 790q17 0 30 -12.5t13 -37.5q0 -43 -35.5 -87t-91.5 -70l-11 22q76 36 87 100q-36 8 -36 40q0 19 12 32t32 13zM250 600l-29 -100h178l-10 -35h-178l-100 -349q-12 -40 1 -63t43 -23q32 0 62.5 33t53.5 97h29q-57 -170 -155 -170q-50 0 -74 35t-8 94l100 346h-91
l10 35h92l51 100h25z" />
    <glyph glyph-name="Tbar" unicode="&#x166;" horiz-adv-x="656" 
d="M174 680h555l-54 -185h-35q21 88 20 109q-4 38 -55 41h-12h-126l-90 -313h154l-10 -35h-154l-67 -236q-5 -15 -1 -20.5t19 -5.5h117l-10 -35h-338l10 35h117q15 0 21.5 5.5t11.5 20.5l67 236h-138l10 35h138l90 313h-124q-25 0 -43 -6.5t-29 -13.5t-23 -28.5t-16.5 -34
t-16.5 -47.5q-5 -13 -7 -20h-35z" />
    <glyph glyph-name="tbar" unicode="&#x167;" horiz-adv-x="347" 
d="M389 465h-178l-37 -130h156l-10 -35h-156l-53 -184q-12 -40 1 -63t43 -23q32 0 62.5 33t53.5 97h29q-57 -170 -155 -170q-50 0 -74 35t-8 94l52 181h-67l10 35h67l38 130h-91l10 35h92l51 100h25l-29 -100h178z" />
    <glyph glyph-name="Umacron" unicode="&#x16a;" horiz-adv-x="691" 
d="M391 822h255l-12 -41h-255zM314 -10q-117 0 -177.5 73t-29.5 182l109 374q4 15 0 20.5t-19 5.5h-69l10 35h256l-10 -35h-82q-15 0 -21.5 -5.5t-11.5 -20.5l-109 -382q-26 -91 18.5 -150.5t139.5 -59.5q75 0 130 42.5t75 114.5l126 435q4 15 0 20.5t-19 5.5h-75l10 35h235
l-10 -35h-69q-15 0 -22.5 -5.5t-11.5 -20.5l-126 -441q-25 -86 -90.5 -137t-156.5 -51z" />
    <glyph glyph-name="umacron" unicode="&#x16b;" horiz-adv-x="622" 
d="M281 642h255l-12 -41h-255zM55 337h-30q30 87 63 128.5t75 41.5q43 0 61.5 -32.5t2.5 -82.5l-66 -198q-25 -79 -11 -121t64 -42q155 0 294 466h49l-114 -392q-22 -76 25 -76q27 0 50.5 31t47.5 100h30q-30 -87 -63.5 -128.5t-77.5 -41.5q-43 0 -57.5 31.5t2.5 79.5
l50 153h-5q-107 -264 -244 -264q-68 0 -94 51t3 148l70 212q9 25 1 45.5t-31 20.5q-50 0 -95 -130z" />
    <glyph glyph-name="Uring" unicode="&#x16e;" horiz-adv-x="691" 
d="M510 738q-39 0 -63.5 23.5t-24.5 57.5q0 45 33 76t77 31q39 0 63 -23t24 -58q0 -45 -32.5 -76t-76.5 -31zM513 769q29 0 50.5 21.5t21.5 53.5q0 23 -15.5 38t-40.5 15q-30 0 -51.5 -23t-21.5 -53q0 -23 16 -37.5t41 -14.5zM314 -10q-117 0 -177.5 73t-29.5 182l109 374
q4 15 0 20.5t-19 5.5h-69l10 35h256l-10 -35h-82q-15 0 -21.5 -5.5t-11.5 -20.5l-109 -382q-26 -91 18.5 -150.5t139.5 -59.5q75 0 130 42.5t75 114.5l126 435q4 15 0 20.5t-19 5.5h-75l10 35h235l-10 -35h-69q-15 0 -22.5 -5.5t-11.5 -20.5l-126 -441q-25 -86 -90.5 -137
t-156.5 -51z" />
    <glyph glyph-name="uring" unicode="&#x16f;" horiz-adv-x="622" 
d="M400 558q-39 0 -63.5 23.5t-24.5 57.5q0 45 33 76t77 31q39 0 63 -23t24 -58q0 -45 -32.5 -76t-76.5 -31zM403 589q29 0 50.5 21.5t21.5 53.5q0 23 -15.5 38t-40.5 15q-30 0 -51.5 -23t-21.5 -53q0 -23 16 -37.5t41 -14.5zM55 337h-30q30 87 63 128.5t75 41.5
q43 0 61.5 -32.5t2.5 -82.5l-66 -198q-25 -79 -11 -121t64 -42q155 0 294 466h49l-114 -392q-22 -76 25 -76q27 0 50.5 31t47.5 100h30q-30 -87 -63.5 -128.5t-77.5 -41.5q-43 0 -57.5 31.5t2.5 79.5l50 153h-5q-107 -264 -244 -264q-68 0 -94 51t3 148l70 212q9 25 1 45.5
t-31 20.5q-50 0 -95 -130z" />
    <glyph glyph-name="Uhungarumlaut" unicode="&#x170;" horiz-adv-x="691" 
d="M402 756q88 119 128 153q25 21 46 0q20 -21 -4 -45q-14 -15 -59.5 -49t-84.5 -59h-26zM552 756q88 119 128 153q25 21 46 0q20 -21 -4 -45q-14 -15 -59.5 -49t-84.5 -59h-26zM314 -10q-117 0 -177.5 73t-29.5 182l109 374q4 15 0 20.5t-19 5.5h-69l10 35h256l-10 -35h-82
q-15 0 -21.5 -5.5t-11.5 -20.5l-109 -382q-26 -91 18.5 -150.5t139.5 -59.5q75 0 130 42.5t75 114.5l126 435q4 15 0 20.5t-19 5.5h-75l10 35h235l-10 -35h-69q-15 0 -22.5 -5.5t-11.5 -20.5l-126 -441q-25 -86 -90.5 -137t-156.5 -51z" />
    <glyph glyph-name="uhungarumlaut" unicode="&#x171;" horiz-adv-x="622" 
d="M292 576q88 119 128 153q25 21 46 0q20 -21 -4 -45q-14 -15 -59.5 -49t-84.5 -59h-26zM442 576q88 119 128 153q25 21 46 0q20 -21 -4 -45q-14 -15 -59.5 -49t-84.5 -59h-26zM55 337h-30q30 87 63 128.5t75 41.5q43 0 61.5 -32.5t2.5 -82.5l-66 -198q-25 -79 -11 -121
t64 -42q155 0 294 466h49l-114 -392q-22 -76 25 -76q27 0 50.5 31t47.5 100h30q-30 -87 -63.5 -128.5t-77.5 -41.5q-43 0 -57.5 31.5t2.5 79.5l50 153h-5q-107 -264 -244 -264q-68 0 -94 51t3 148l70 212q9 25 1 45.5t-31 20.5q-50 0 -95 -130z" />
    <glyph glyph-name="Uogonek" unicode="&#x172;" horiz-adv-x="691" 
d="M565 680h235l-10 -35h-69q-15 0 -22.5 -5.5t-11.5 -20.5l-126 -441q-28 -95 -102 -145q-84 -76 -110 -107.5t-26 -60.5q0 -43 47 -43q27 0 65 18l-10 -38q-33 -18 -70 -18q-36 0 -56.5 17t-20.5 49q0 33 23 64t88 86q-34 -10 -75 -10q-117 0 -177.5 73t-29.5 182l109 374
q4 15 0 20.5t-19 5.5h-69l10 35h256l-10 -35h-82q-15 0 -21.5 -5.5t-11.5 -20.5l-109 -382q-26 -91 18.5 -150.5t139.5 -59.5q75 0 130 42.5t75 114.5l126 435q4 15 0 20.5t-19 5.5h-75z" />
    <glyph glyph-name="uogonek" unicode="&#x173;" horiz-adv-x="622" 
d="M506 6q-64 -51 -91 -82t-27 -60q0 -41 47 -41q29 0 65 19l-10 -39q-34 -17 -70 -17q-35 0 -55.5 16.5t-20.5 46.5q0 33 24.5 65.5t81.5 75.5q-40 2 -53 33.5t3 77.5l50 153h-5q-107 -264 -244 -264q-68 0 -94 51t3 148l70 212q9 25 1 45.5t-31 20.5q-50 0 -95 -130h-30
q30 87 63 128.5t75 41.5q43 0 61.5 -32.5t2.5 -82.5l-66 -198q-25 -79 -11 -121t64 -42q155 0 294 466h49l-114 -392q-22 -76 25 -76q27 0 50.5 31t47.5 100h30q-41 -121 -90 -154z" />
    <glyph glyph-name="Wcircumflex" unicode="&#x174;" horiz-adv-x="1082" 
d="M723 853l-125 -95h-30l143 142q16 16 26 16t17 -16l64 -142h-26zM974 680h231l-10 -35h-40q-35 0 -55 -30l-398 -615h-25l-40 574l-362 -574h-25l-58 616q-3 29 -39 29h-39l10 35h241l-10 -35h-77q-33 0 -30 -33l46 -512l324 514q9 14 5 22.5t-20 8.5h-85l10 35h283
l-10 -35h-85q-15 0 -23.5 -9t-7.5 -23l37 -514l334 514q20 32 -12 32h-80z" />
    <glyph glyph-name="wcircumflex" unicode="&#x175;" horiz-adv-x="746" 
d="M386 578h-30l143 142q16 16 26 16t17 -16l64 -142h-26l-69 95zM652 507q33 0 55.5 -29.5t22.5 -89.5q0 -57 -21.5 -126t-56.5 -129.5t-88 -101.5t-110 -41q-50 0 -78 30.5t-28 80.5q0 33 20 94h-3q-77 -205 -193 -205q-48 0 -77 28.5t-29 75.5q0 44 30 115t60 134t30 88
q0 16 -10 26.5t-25 10.5q-51 0 -96 -131h-30q58 170 144 170q29 0 47.5 -19.5t18.5 -48.5q0 -40 -59 -164t-59 -171q0 -31 18 -51.5t48 -20.5q132 0 260 468h45q-18 -69 -46 -162.5t-41 -143t-13 -77.5q0 -39 19.5 -62t54.5 -23q58 0 113.5 62.5t88 147.5t32.5 157
q0 39 -16 56q-11 -28 -39 -28q-18 0 -28 11.5t-10 26.5q0 18 13.5 30t35.5 12z" />
    <glyph glyph-name="Ycircumflex" unicode="&#x176;" horiz-adv-x="649" 
d="M380 758h-30l143 142q16 16 26 16t17 -16l64 -142h-26l-69 95zM514 680h258l-10 -35h-56q-37 0 -62 -30l-287 -331l-64 -223q-5 -15 -1 -20.5t19 -5.5h79l-10 -35h-262l9 35h79q15 0 22.5 5.5t11.5 20.5l64 222l-91 334q-8 28 -43 28h-56l10 35h266l-10 -35h-84
q-35 0 -27 -31l76 -294l255 296q12 14 9.5 21.5t-18.5 7.5h-87z" />
    <glyph glyph-name="ycircumflex" unicode="&#x177;" horiz-adv-x="593" 
d="M300 578h-30l143 142q16 16 26 16t17 -16l64 -142h-26l-69 95zM476 507q33 0 56.5 -31t23.5 -92q0 -75 -37 -174t-95.5 -188t-139 -150.5t-158.5 -61.5q-57 0 -101.5 29t-44.5 69q0 21 12.5 35.5t32.5 14.5q15 0 26 -10t11 -26q0 -17 -11.5 -28.5t-30.5 -13.5
q15 -16 45.5 -28t62.5 -12q51 0 102 31q51 283 39.5 440t-94.5 157q-36 0 -63 -31.5t-51 -99.5h-31q27 88 63.5 129t92.5 41q45 0 74.5 -25.5t42 -71t15.5 -103t-3 -126t-14.5 -135t-19.5 -135.5q-1 -3 -1 -4q97 83 167.5 230.5t70.5 250.5q0 40 -15 64q-13 -25 -38 -25
q-17 0 -27.5 11.5t-10.5 26.5q0 17 13.5 29.5t35.5 12.5z" />
    <glyph glyph-name="Ydieresis" unicode="&#x178;" horiz-adv-x="649" 
d="M390 765q-19 0 -31 12t-12 31t12 31.5t31 12.5t31 -12.5t12 -31.5t-12 -31t-31 -12zM581 765q-19 0 -31 12t-12 31t12 31.5t31 12.5t31 -12.5t12 -31.5t-12 -31t-31 -12zM514 680h258l-10 -35h-56q-37 0 -62 -30l-287 -331l-64 -223q-5 -15 -1 -20.5t19 -5.5h79l-10 -35
h-262l9 35h79q15 0 22.5 5.5t11.5 20.5l64 222l-91 334q-8 28 -43 28h-56l10 35h266l-10 -35h-84q-35 0 -27 -31l76 -294l255 296q12 14 9.5 21.5t-18.5 7.5h-87z" />
    <glyph glyph-name="Zacute" unicode="&#x179;" horiz-adv-x="578" 
d="M553 864q-14 -15 -59.5 -49t-84.5 -59h-26q88 119 128 153q25 21 46 0t-4 -45zM644 680l-5 -15l-574 -631h299q10 0 19.5 2t16.5 4.5t14 9.5t12 11.5t10.5 15.5t9 17t9 21.5t8 22.5t9 25.5t9.5 27.5h35l-55 -191h-482l4 15l577 632h-293q-31 0 -52.5 -19.5t-30 -40
t-26.5 -72.5q-2 -5 -3 -8t-2.5 -7t-2.5 -8h-35l54 188h475z" />
    <glyph glyph-name="zacute" unicode="&#x17a;" horiz-adv-x="442" 
d="M461 684q-14 -15 -59.5 -49t-84.5 -59h-26q88 119 128 153q25 21 46 0t-4 -45zM441 507q22 0 22 -25q0 -14 -8.5 -29.5t-15.5 -23.5t-25 -28q-34 -35 -78.5 -83t-68.5 -70q-37 -32 -61 -52t-42.5 -34t-27.5 -20t-28 -18.5t-31 -20.5q54 -33 73.5 -44t50 -22t59.5 -11
q55 0 71 23q-18 1 -28 12t-10 26q0 16 11 26.5t27 10.5q17 0 28.5 -12t11.5 -31q0 -34 -32.5 -62.5t-96.5 -28.5q-45 0 -81.5 18.5t-102.5 69.5q-8 -45 -24 -66.5t-32 -21.5q-24 0 -24 28q0 42 58 90l338 282q-8 5 -31 18.5t-29 17t-23.5 13t-24 12t-20 8.5t-22 7.5t-19.5 3
t-23 1.5q-56 0 -72 -23q19 -1 29 -11.5t10 -25.5q0 -16 -10.5 -26.5t-27.5 -10.5t-28.5 12t-11.5 31q0 33 33 61.5t96 28.5q47 0 85 -20t112 -78l3 3q-4 38 8 66.5t33 28.5z" />
    <glyph glyph-name="Zdotaccent" unicode="&#x17b;" horiz-adv-x="578" 
d="M407 765q-19 0 -31 12t-12 31t12 31.5t31 12.5t31 -12.5t12 -31.5t-12 -31t-31 -12zM644 680l-5 -15l-574 -631h299q10 0 19.5 2t16.5 4.5t14 9.5t12 11.5t10.5 15.5t9 17t9 21.5t8 22.5t9 25.5t9.5 27.5h35l-55 -191h-482l4 15l577 632h-293q-31 0 -52.5 -19.5t-30 -40
t-26.5 -72.5q-2 -5 -3 -8t-2.5 -7t-2.5 -8h-35l54 188h475z" />
    <glyph glyph-name="zdotaccent" unicode="&#x17c;" horiz-adv-x="442" 
d="M315 585q-19 0 -31 12t-12 31t12 31.5t31 12.5t31 -12.5t12 -31.5t-12 -31t-31 -12zM414 401q-34 -35 -78.5 -83t-68.5 -70q-37 -32 -61 -52t-42.5 -34t-27.5 -20t-28 -18.5t-31 -20.5q54 -33 73.5 -44t50 -22t59.5 -11q55 0 71 23q-18 1 -28 12t-10 26q0 16 11 26.5
t27 10.5q17 0 28.5 -12t11.5 -31q0 -34 -32.5 -62.5t-96.5 -28.5q-45 0 -81.5 18.5t-102.5 69.5q-8 -45 -24 -66.5t-32 -21.5q-24 0 -24 28q0 42 58 90l338 282q-8 5 -31 18.5t-29 17t-23.5 13t-24 12t-20 8.5t-22 7.5t-19.5 3t-23 1.5q-56 0 -72 -23q19 -1 29 -11.5
t10 -25.5q0 -16 -10.5 -26.5t-27.5 -10.5t-28.5 12t-11.5 31q0 33 33 61.5t96 28.5q47 0 85 -20t112 -78l3 3q-4 38 8 66.5t33 28.5q22 0 22 -25q0 -14 -8.5 -29.5t-15.5 -23.5t-25 -28z" />
    <glyph glyph-name="Zcaron" unicode="&#x17d;" horiz-adv-x="578" 
d="M418 758q-10 0 -17 16l-64 142h26l69 -95l125 95h30l-143 -142q-16 -16 -26 -16zM644 680l-5 -15l-574 -631h299q10 0 19.5 2t16.5 4.5t14 9.5t12 11.5t10.5 15.5t9 17t9 21.5t8 22.5t9 25.5t9.5 27.5h35l-55 -191h-482l4 15l577 632h-293q-31 0 -52.5 -19.5t-30 -40
t-26.5 -72.5q-2 -5 -3 -8t-2.5 -7t-2.5 -8h-35l54 188h475z" />
    <glyph glyph-name="zcaron" unicode="&#x17e;" horiz-adv-x="442" 
d="M326 578q-10 0 -17 16l-64 142h26l69 -95l125 95h30l-143 -142q-16 -16 -26 -16zM441 507q22 0 22 -25q0 -14 -8.5 -29.5t-15.5 -23.5t-25 -28q-34 -35 -78.5 -83t-68.5 -70q-37 -32 -61 -52t-42.5 -34t-27.5 -20t-28 -18.5t-31 -20.5q54 -33 73.5 -44t50 -22t59.5 -11
q55 0 71 23q-18 1 -28 12t-10 26q0 16 11 26.5t27 10.5q17 0 28.5 -12t11.5 -31q0 -34 -32.5 -62.5t-96.5 -28.5q-45 0 -81.5 18.5t-102.5 69.5q-8 -45 -24 -66.5t-32 -21.5q-24 0 -24 28q0 42 58 90l338 282q-8 5 -31 18.5t-29 17t-23.5 13t-24 12t-20 8.5t-22 7.5t-19.5 3
t-23 1.5q-56 0 -72 -23q19 -1 29 -11.5t10 -25.5q0 -16 -10.5 -26.5t-27.5 -10.5t-28.5 12t-11.5 31q0 33 33 61.5t96 28.5q47 0 85 -20t112 -78l3 3q-4 38 8 66.5t33 28.5z" />
    <glyph glyph-name="Scommaaccent" unicode="&#x218;" horiz-adv-x="548" 
d="M366 690q79 0 141 -40t62 -100q0 -27 -12 -42t-33 -15q-18 0 -29.5 11t-11.5 28q0 19 12.5 31t31.5 12h5q-14 36 -62 57.5t-101 21.5q-79 0 -129.5 -41.5t-50.5 -100.5q0 -42 30 -74t72.5 -54t85.5 -45.5t73 -61.5t30 -89q0 -81 -66 -140t-165 -59q-90 0 -156 49.5
t-68 131.5q0 26 11.5 46.5t36.5 20.5q19 0 29.5 -11t10.5 -27q0 -17 -12.5 -29.5t-31.5 -12.5h-7q5 -59 57.5 -95.5t126.5 -36.5q82 0 131.5 45t49.5 106q0 44 -30 77t-73 55t-86 44.5t-73 59.5t-30 86q0 80 66.5 136t164.5 56zM204 -73q19 0 31.5 -11.5t12.5 -34.5
q0 -43 -36 -80t-90 -50l-7 20q78 26 87 76q-17 1 -29.5 11t-12.5 27q0 18 13 30t31 12z" />
    <glyph glyph-name="scommaaccent" unicode="&#x219;" horiz-adv-x="444" 
d="M270 507q63 0 111 -28.5t48 -76.5q0 -22 -11.5 -37t-30.5 -15q-17 0 -28 10.5t-11 26.5q0 18 15 28t32 9q-10 24 -44 37.5t-74 13.5q-56 0 -91 -28t-35 -71q0 -32 22 -55t54 -38t64 -31t54 -44t22 -67q0 -65 -51.5 -108t-125.5 -43q-68 0 -120 37.5t-52 95.5
q0 27 12.5 42.5t32.5 15.5q16 0 26.5 -10t10.5 -25q0 -18 -15 -30t-34 -10q7 -34 44 -59t89 -25q57 0 95.5 31t38.5 77q0 33 -22.5 56t-54.5 37.5t-63.5 30t-54 43.5t-22.5 68q0 63 48 102.5t121 39.5zM155 -71q19 0 31.5 -11.5t12.5 -34.5q0 -43 -36 -80t-90 -50l-7 20
q78 26 87 76q-17 1 -29.5 11t-12.5 27q0 18 13 30t31 12z" />
    <glyph glyph-name="uni021A" unicode="&#x21a;" horiz-adv-x="656" 
d="M174 680h555l-54 -185h-35q21 88 20 109q-4 38 -55 41h-12h-126l-167 -584q-5 -15 -1 -20.5t19 -5.5h117l-10 -35h-338l10 35h117q15 0 21.5 5.5t11.5 20.5l167 584h-124q-25 0 -43 -6.5t-29 -13.5t-23 -28.5t-16.5 -34t-16.5 -47.5q-5 -13 -7 -20h-35zM233 -73
q19 0 31.5 -11.5t12.5 -34.5q0 -43 -36 -80t-90 -50l-7 20q78 26 87 76q-17 1 -29.5 11t-12.5 27q0 18 13 30t31 12z" />
    <glyph glyph-name="uni021B" unicode="&#x21b;" horiz-adv-x="347" 
d="M211 465l-100 -349q-12 -40 1 -63t43 -23q32 0 62.5 33t53.5 97h29q-57 -170 -155 -170q-50 0 -74 35t-8 94l100 346h-91l10 35h92l51 100h25l-29 -100h178l-10 -35h-178zM101 -73q19 0 31.5 -11.5t12.5 -34.5q0 -43 -36 -80t-90 -50l-7 20q78 26 87 76q-17 1 -29.5 11
t-12.5 27q0 18 13 30t31 12z" />
    <glyph glyph-name="circumflex" unicode="&#x2c6;" horiz-adv-x="310" 
d="M155 578h-30l143 142q16 16 26 16t17 -16l64 -142h-26l-69 95z" />
    <glyph glyph-name="caron" unicode="&#x2c7;" horiz-adv-x="310" 
d="M385 736h30l-143 -142q-16 -16 -26 -16t-17 16l-64 142h26l69 -95z" />
    <glyph glyph-name="breve" unicode="&#x2d8;" horiz-adv-x="313" 
d="M408 712q-24 -61 -66 -93t-91 -32q-50 0 -73 32t-13 93h31q-4 -82 62 -82q72 0 116 82h34z" />
    <glyph glyph-name="dotaccent" unicode="&#x2d9;" horiz-adv-x="233" 
d="M225 585q-19 0 -31 12t-12 31t12 31.5t31 12.5t31 -12.5t12 -31.5t-12 -31t-31 -12z" />
    <glyph glyph-name="ring" unicode="&#x2da;" horiz-adv-x="269" 
d="M227 558q-39 0 -63.5 23.5t-24.5 57.5q0 45 33 76t77 31q39 0 63 -23t24 -58q0 -45 -32.5 -76t-76.5 -31zM230 589q29 0 50.5 21.5t21.5 53.5q0 23 -15.5 38t-40.5 15q-30 0 -51.5 -23t-21.5 -53q0 -23 16 -37.5t41 -14.5z" />
    <glyph glyph-name="ogonek" unicode="&#x2db;" horiz-adv-x="270" 
d="M81 -208q-33 -18 -70 -18q-36 0 -56.5 17t-20.5 49q0 38 31.5 75t126.5 114h30q-89 -80 -116 -112t-27 -62q0 -43 47 -43q27 0 65 18z" />
    <glyph glyph-name="tilde" unicode="&#x2dc;" horiz-adv-x="386" 
d="M451 662q-26 -89 -91 -89q-31 0 -70.5 33t-62.5 33q-21 0 -33 -14t-23 -41l-26 9q25 87 91 87q32 0 73 -33t62 -33q34 0 53 53z" />
    <glyph glyph-name="hungarumlaut" unicode="&#x2dd;" horiz-adv-x="392" 
d="M166 576q88 119 128 153q25 21 46 0q20 -21 -4 -45q-14 -15 -59.5 -49t-84.5 -59h-26zM316 576q88 119 128 153q25 21 46 0q20 -21 -4 -45q-14 -15 -59.5 -49t-84.5 -59h-26z" />
    <glyph glyph-name="uni030C" unicode="&#x30c;" horiz-adv-x="0" 
d="M-27 690q17 0 30 -12.5t13 -37.5q0 -43 -35.5 -87t-91.5 -70l-11 22q76 36 87 100q-36 8 -36 40q0 19 12 32t32 13z" />
    <glyph glyph-name="uni0326" unicode="&#x326;" horiz-adv-x="0" 
d="M-192 -73q19 0 31.5 -11.5t12.5 -34.5q0 -43 -36 -80t-90 -50l-7 20q78 26 87 76q-17 1 -29.5 11t-12.5 27q0 18 13 30t31 12z" />
    <glyph glyph-name="Wgrave" unicode="&#x1e80;" horiz-adv-x="1082" 
d="M691 754h-21q-20 25 -41.5 69t-21.5 66q0 14 9 22t20 8q23 0 31 -26q15 -44 24 -139zM974 680h231l-10 -35h-40q-35 0 -55 -30l-398 -615h-25l-40 574l-362 -574h-25l-58 616q-3 29 -39 29h-39l10 35h241l-10 -35h-77q-33 0 -30 -33l46 -512l324 514q9 14 5 22.5t-20 8.5
h-85l10 35h283l-10 -35h-85q-15 0 -23.5 -9t-7.5 -23l37 -514l334 514q20 32 -12 32h-80z" />
    <glyph glyph-name="wgrave" unicode="&#x1e81;" horiz-adv-x="746" 
d="M479 574h-21q-20 25 -41.5 69t-21.5 66q0 14 9 22t20 8q23 0 31 -26q15 -44 24 -139zM652 507q33 0 55.5 -29.5t22.5 -89.5q0 -57 -21.5 -126t-56.5 -129.5t-88 -101.5t-110 -41q-50 0 -78 30.5t-28 80.5q0 33 20 94h-3q-77 -205 -193 -205q-48 0 -77 28.5t-29 75.5
q0 44 30 115t60 134t30 88q0 16 -10 26.5t-25 10.5q-51 0 -96 -131h-30q58 170 144 170q29 0 47.5 -19.5t18.5 -48.5q0 -40 -59 -164t-59 -171q0 -31 18 -51.5t48 -20.5q132 0 260 468h45q-18 -69 -46 -162.5t-41 -143t-13 -77.5q0 -39 19.5 -62t54.5 -23q58 0 113.5 62.5
t88 147.5t32.5 157q0 39 -16 56q-11 -28 -39 -28q-18 0 -28 11.5t-10 26.5q0 18 13.5 30t35.5 12z" />
    <glyph glyph-name="Wacute" unicode="&#x1e82;" horiz-adv-x="1082" 
d="M855 864q-14 -15 -59.5 -49t-84.5 -59h-26q88 119 128 153q25 21 46 0t-4 -45zM974 680h231l-10 -35h-40q-35 0 -55 -30l-398 -615h-25l-40 574l-362 -574h-25l-58 616q-3 29 -39 29h-39l10 35h241l-10 -35h-77q-33 0 -30 -33l46 -512l324 514q9 14 5 22.5t-20 8.5h-85
l10 35h283l-10 -35h-85q-15 0 -23.5 -9t-7.5 -23l37 -514l334 514q20 32 -12 32h-80z" />
    <glyph glyph-name="wacute" unicode="&#x1e83;" horiz-adv-x="746" 
d="M643 684q-14 -15 -59.5 -49t-84.5 -59h-26q88 119 128 153q25 21 46 0t-4 -45zM652 507q33 0 55.5 -29.5t22.5 -89.5q0 -57 -21.5 -126t-56.5 -129.5t-88 -101.5t-110 -41q-50 0 -78 30.5t-28 80.5q0 33 20 94h-3q-77 -205 -193 -205q-48 0 -77 28.5t-29 75.5
q0 44 30 115t60 134t30 88q0 16 -10 26.5t-25 10.5q-51 0 -96 -131h-30q58 170 144 170q29 0 47.5 -19.5t18.5 -48.5q0 -40 -59 -164t-59 -171q0 -31 18 -51.5t48 -20.5q132 0 260 468h45q-18 -69 -46 -162.5t-41 -143t-13 -77.5q0 -39 19.5 -62t54.5 -23q58 0 113.5 62.5
t88 147.5t32.5 157q0 39 -16 56q-11 -28 -39 -28q-18 0 -28 11.5t-10 26.5q0 18 13.5 30t35.5 12z" />
    <glyph glyph-name="Wdieresis" unicode="&#x1e84;" horiz-adv-x="1082" 
d="M608 765q-19 0 -31 12t-12 31t12 31.5t31 12.5t31 -12.5t12 -31.5t-12 -31t-31 -12zM799 765q-19 0 -31 12t-12 31t12 31.5t31 12.5t31 -12.5t12 -31.5t-12 -31t-31 -12zM974 680h231l-10 -35h-40q-35 0 -55 -30l-398 -615h-25l-40 574l-362 -574h-25l-58 616
q-3 29 -39 29h-39l10 35h241l-10 -35h-77q-33 0 -30 -33l46 -512l324 514q9 14 5 22.5t-20 8.5h-85l10 35h283l-10 -35h-85q-15 0 -23.5 -9t-7.5 -23l37 -514l334 514q20 32 -12 32h-80z" />
    <glyph glyph-name="wdieresis" unicode="&#x1e85;" horiz-adv-x="746" 
d="M396 585q-19 0 -31 12t-12 31t12 31.5t31 12.5t31 -12.5t12 -31.5t-12 -31t-31 -12zM587 585q-19 0 -31 12t-12 31t12 31.5t31 12.5t31 -12.5t12 -31.5t-12 -31t-31 -12zM652 507q33 0 55.5 -29.5t22.5 -89.5q0 -57 -21.5 -126t-56.5 -129.5t-88 -101.5t-110 -41
q-50 0 -78 30.5t-28 80.5q0 33 20 94h-3q-77 -205 -193 -205q-48 0 -77 28.5t-29 75.5q0 44 30 115t60 134t30 88q0 16 -10 26.5t-25 10.5q-51 0 -96 -131h-30q58 170 144 170q29 0 47.5 -19.5t18.5 -48.5q0 -40 -59 -164t-59 -171q0 -31 18 -51.5t48 -20.5q132 0 260 468
h45q-18 -69 -46 -162.5t-41 -143t-13 -77.5q0 -39 19.5 -62t54.5 -23q58 0 113.5 62.5t88 147.5t32.5 157q0 39 -16 56q-11 -28 -39 -28q-18 0 -28 11.5t-10 26.5q0 18 13.5 30t35.5 12z" />
    <glyph glyph-name="Ygrave" unicode="&#x1ef2;" horiz-adv-x="649" 
d="M473 754h-21q-20 25 -41.5 69t-21.5 66q0 14 9 22t20 8q23 0 31 -26q15 -44 24 -139zM514 680h258l-10 -35h-56q-37 0 -62 -30l-287 -331l-64 -223q-5 -15 -1 -20.5t19 -5.5h79l-10 -35h-262l9 35h79q15 0 22.5 5.5t11.5 20.5l64 222l-91 334q-8 28 -43 28h-56l10 35h266
l-10 -35h-84q-35 0 -27 -31l76 -294l255 296q12 14 9.5 21.5t-18.5 7.5h-87z" />
    <glyph glyph-name="ygrave" unicode="&#x1ef3;" horiz-adv-x="593" 
d="M393 574h-21q-20 25 -41.5 69t-21.5 66q0 14 9 22t20 8q23 0 31 -26q15 -44 24 -139zM476 507q33 0 56.5 -31t23.5 -92q0 -75 -37 -174t-95.5 -188t-139 -150.5t-158.5 -61.5q-57 0 -101.5 29t-44.5 69q0 21 12.5 35.5t32.5 14.5q15 0 26 -10t11 -26q0 -17 -11.5 -28.5
t-30.5 -13.5q15 -16 45.5 -28t62.5 -12q51 0 102 31q51 283 39.5 440t-94.5 157q-36 0 -63 -31.5t-51 -99.5h-31q27 88 63.5 129t92.5 41q45 0 74.5 -25.5t42 -71t15.5 -103t-3 -126t-14.5 -135t-19.5 -135.5q-1 -3 -1 -4q97 83 167.5 230.5t70.5 250.5q0 40 -15 64
q-13 -25 -38 -25q-17 0 -27.5 11.5t-10.5 26.5q0 17 13.5 29.5t35.5 12.5z" />
    <glyph glyph-name="uni2009" unicode="&#x2009;" horiz-adv-x="135" 
 />
    <glyph glyph-name="uni200A" unicode="&#x200a;" horiz-adv-x="75" 
 />
    <glyph glyph-name="endash" unicode="&#x2013;" horiz-adv-x="500" 
d="M69 280h380l-10 -35h-380z" />
    <glyph glyph-name="emdash" unicode="&#x2014;" horiz-adv-x="1001" 
d="M69 280h880l-10 -35h-880z" />
    <glyph glyph-name="quoteleft" unicode="&#x2018;" horiz-adv-x="220" 
d="M186 475q-17 0 -30 12.5t-13 37.5q0 54 52.5 106.5t128.5 71.5l7 -23q-41 -14 -68.5 -29.5t-41 -32t-19 -29t-8.5 -28.5q36 -8 36 -41q0 -19 -12 -32t-32 -13z" />
    <glyph glyph-name="quoteright" unicode="&#x2019;" horiz-adv-x="218" 
d="M228 701q17 0 30 -12.5t13 -37.5q0 -54 -52.5 -106.5t-128.5 -71.5l-7 23q41 14 68.5 29.5t41 32t19 29t8.5 28.5q-36 8 -36 41q0 19 12 32t32 13z" />
    <glyph glyph-name="quotesinglbase" unicode="&#x201a;" horiz-adv-x="218" 
d="M50 81q17 0 30 -12.5t13 -37.5q0 -54 -52.5 -106.5t-128.5 -71.5l-7 23q41 14 68.5 29.5t41 32t19 29t8.5 28.5q-36 8 -36 41q0 19 12 32t32 13z" />
    <glyph glyph-name="quotedblleft" unicode="&#x201c;" horiz-adv-x="380" 
d="M186 475q-17 0 -30 12.5t-13 37.5q0 54 52.5 106.5t128.5 71.5l7 -23q-41 -14 -68.5 -29.5t-41 -32t-19 -29t-8.5 -28.5q36 -8 36 -41q0 -19 -12 -32t-32 -13zM346 475q-17 0 -30 12.5t-13 37.5q0 54 52.5 106.5t128.5 71.5l7 -23q-41 -14 -68.5 -29.5t-41 -32t-19 -29
t-8.5 -28.5q36 -8 36 -41q0 -19 -12 -32t-32 -13z" />
    <glyph glyph-name="quotedblright" unicode="&#x201d;" horiz-adv-x="378" 
d="M228 701q17 0 30 -12.5t13 -37.5q0 -54 -52.5 -106.5t-128.5 -71.5l-7 23q41 14 68.5 29.5t41 32t19 29t8.5 28.5q-36 8 -36 41q0 19 12 32t32 13zM388 701q17 0 30 -12.5t13 -37.5q0 -54 -52.5 -106.5t-128.5 -71.5l-7 23q41 14 68.5 29.5t41 32t19 29t8.5 28.5
q-36 8 -36 41q0 19 12 32t32 13z" />
    <glyph glyph-name="quotedblbase" unicode="&#x201e;" horiz-adv-x="377" 
d="M50 81q17 0 30 -12.5t13 -37.5q0 -54 -52.5 -106.5t-128.5 -71.5l-7 23q41 14 68.5 29.5t41 32t19 29t8.5 28.5q-36 8 -36 41q0 19 12 32t32 13zM209 81q17 0 30 -12.5t13 -37.5q0 -54 -52.5 -106.5t-128.5 -71.5l-7 23q41 14 68.5 29.5t41 32t19 29t8.5 28.5
q-36 8 -36 41q0 19 12 32t32 13z" />
    <glyph glyph-name="dagger" unicode="&#x2020;" horiz-adv-x="511" 
d="M509 605q31 0 31 -26t-31 -26q-19 0 -66.5 6.5t-72.5 8.5l-13 -7l-8 -81l-82 -220h-18l43 220l43 87l-1 1q-27 -2 -75.5 -8.5t-68.5 -6.5q-30 0 -30 26t30 26q16 0 37.5 -2.5t52 -6.5t53.5 -6l11 6q4 23 8.5 54t8 52.5t8.5 36.5q8 29 33 23q26 -8 17 -37
q-6 -19 -25.5 -63t-29.5 -70l1 -2q23 2 54.5 6t52.5 6.5t37 2.5z" />
    <glyph glyph-name="daggerdbl" unicode="&#x2021;" horiz-adv-x="511" 
d="M509 604q31 0 31 -26t-31 -26q-15 0 -36 2.5t-51.5 6.5t-52.5 6l-13 -7l-5 -77l-43 -91v-2q23 2 73.5 9t70.5 7q31 0 31 -26t-31 -26q-15 0 -36 2.5t-51.5 6.5t-52.5 6l-13 -7q-5 -24 -12 -74t-13 -69q-8 -28 -33 -22q-24 7 -17 37q6 20 26.5 66.5t28.5 67.5l-1 2
q-23 -2 -73.5 -9t-71.5 -7q-30 0 -30 26t30 26q20 0 67.5 -6.5t73.5 -8.5l12 7l1 85l47 83v1q-19 -2 -71 -8.5t-73 -6.5q-30 0 -30 26t30 26q20 0 68 -6.5t75 -8.5l11 6q4 22 11 72.5t13 70.5q9 29 34 22q25 -6 16 -36q-6 -20 -26 -66t-28 -68l1 -2q22 2 73 9t71 7z" />
    <glyph glyph-name="bullet" unicode="&#x2022;" horiz-adv-x="412" 
d="M233 245q-41 0 -69.5 29t-28.5 70q0 40 28.5 69t69.5 29q40 0 68.5 -28.5t28.5 -69.5t-28.5 -70t-68.5 -29z" />
    <glyph glyph-name="ellipsis" unicode="&#x2026;" horiz-adv-x="522" 
d="M48 80q19 0 31 -12t12 -31t-12 -31.5t-31 -12.5t-31 12.5t-12 31.5t12 31t31 12zM293 80q19 0 31 -12t12 -31t-12 -31.5t-31 -12.5q-9 0 -17 3q-8 -3 -17 -3q-19 0 -31 12.5t-12 31.5t12 31t31 12q9 0 17 -3q8 3 17 3z" />
    <glyph glyph-name="perthousand" unicode="&#x2030;" horiz-adv-x="1462" 
d="M543 352l-8 10q21 23 163.5 165t156.5 155q27 24 41 8q14 -14 -12 -39q-1 0 -81.5 -72t-161 -142.5t-98.5 -84.5zM272 282q-76 0 -121 46.5t-45 118.5q0 95 66 169t158 74q76 0 121 -46t45 -118q0 -96 -65.5 -170t-158.5 -74zM271 311q73 0 126.5 70t53.5 152
q0 57 -31 93t-88 36q-74 0 -128 -70.5t-54 -151.5q0 -58 31.5 -93.5t89.5 -35.5zM723 -10q-76 0 -121 46.5t-45 118.5q0 95 66 169t158 74q76 0 121 -46t45 -118q0 -96 -65.5 -170t-158.5 -74zM1183 -10q-76 0 -121 46.5t-45 118.5q0 95 66 169t158 74q76 0 121 -46t45 -118
q0 -96 -65.5 -170t-158.5 -74zM722 19q73 0 126.5 70t53.5 152q0 57 -31 93t-88 36q-74 0 -128 -70.5t-54 -151.5q0 -58 31.5 -93.5t89.5 -35.5zM1184 19q73 0 125.5 69t52.5 151q0 57 -32 94t-89 37q-74 0 -127 -69.5t-53 -150.5q0 -58 32.5 -94.5t90.5 -36.5zM145 -5
q-14 18 12 40q1 1 157.5 138t180.5 155l8 -10q-22 -24 -164 -164t-154 -150q-25 -25 -40 -9z" />
    <glyph glyph-name="guilsinglleft" unicode="&#x2039;" horiz-adv-x="293" 
d="M197 79l-23 -17l-135 182l8 30l240 182l17 -25l-217 -174z" />
    <glyph glyph-name="guilsinglright" unicode="&#x203a;" horiz-adv-x="293" 
d="M101 439l23 17l135 -182l-8 -30l-240 -182l-17 25l217 174z" />
    <glyph glyph-name="fraction" unicode="&#x2044;" horiz-adv-x="202" 
d="M116 362q72 78 201 206t147 128t18 -18q0 -16 -145.5 -144t-212.5 -182zM84 318q-56 -54 -115.5 -114t-93.5 -94.5t-65.5 -65t-47.5 -43.5t-23 -13t-12.5 6t-5.5 14q0 18 144 143.5t211 176.5z" />
    <glyph glyph-name="uni2081" unicode="&#x2081;" horiz-adv-x="259" 
d="M65 -57q-2 -8 0 -11t10 -3h72l-9 -29h-218l8 29h71q14 0 18 14l76 267q-31 -11 -83 -11l7 23q46 2 67 12t37 43h40z" />
    <glyph glyph-name="uni2082" unicode="&#x2082;" horiz-adv-x="307" 
d="M123 -60q29 1 39.5 13.5t22.5 49.5h30l-29 -103h-252l7 24q9 6 42.5 28.5t50.5 34.5t47.5 35t47.5 40t36 39t27.5 43t8.5 41q0 31 -20.5 48.5t-56.5 17.5q-55 0 -86 -38q13 0 21.5 -8.5t8.5 -20.5t-9.5 -21.5t-23.5 -9.5t-23 9t-9 24q0 31 37 62.5t94 31.5q51 0 83.5 -27
t32.5 -70q0 -36 -22 -71.5t-65 -69t-76.5 -55.5t-87.5 -52z" />
    <glyph glyph-name="uni2083" unicode="&#x2083;" horiz-adv-x="294" 
d="M241 187q0 -41 -34.5 -68.5t-89.5 -29.5q40 -6 61 -30t21 -56q0 -46 -38.5 -77.5t-92.5 -31.5q-49 0 -85 26t-36 65q0 41 32 41q12 0 20.5 -8t8.5 -21t-9 -21t-23 -9q9 -21 31 -32.5t48 -11.5q42 0 68 25.5t26 58.5q0 30 -21 49t-57 19h-17l7 32h40q39 0 66 24.5t27 58.5
q0 28 -20 45t-55 17q-45 0 -73 -28q23 -7 23 -28q0 -12 -9 -20.5t-22 -8.5q-14 0 -22.5 9t-8.5 23q0 29 34.5 55t85.5 26q50 0 82 -26t32 -67z" />
    <glyph glyph-name="Euro" unicode="&#x20ac;" horiz-adv-x="759" 
d="M518 690q102 0 164.5 -52.5t62.5 -138.5q0 -31 -12 -50.5t-34 -19.5q-18 0 -30.5 11t-12.5 28t12.5 29t32.5 12q2 0 6 -0.5t6 -0.5q-1 66 -54.5 105t-136.5 39q-96 0 -173.5 -61t-117.5 -160h280l-10 -35h-283q-20 -59 -23 -121h271l-9 -34h-263q2 -96 58 -154.5
t145 -58.5q157 0 256 178h38q-112 -216 -298 -216q-106 0 -177.5 70.5t-78.5 180.5h-99l9 34h90q3 60 20 121h-75l10 35h77q45 116 139 187.5t210 71.5z" />
    <glyph glyph-name="uni2116" unicode="&#x2116;" horiz-adv-x="1245" 
d="M1014 273q-66 0 -108.5 40t-42.5 118q0 101 66.5 178.5t161.5 77.5q68 0 110 -43t42 -119q0 -100 -66.5 -176t-162.5 -76zM859 680l-10 -35h-84q-15 0 -21.5 -5.5t-11.5 -20.5l-178 -619h-26l-242 620l-160 -559q-5 -15 -1 -20.5t19 -5.5h79l-10 -35h-249l10 35h79
q15 0 22.5 5.5t11.5 20.5l160 558q4 15 0 20.5t-19 5.5h-79l10 35h156l227 -585l151 524q4 15 0 20.5t-19 5.5h-79l10 35h254zM1011 302q78 0 132.5 71.5t54.5 160.5q0 62 -28.5 92.5t-76.5 30.5q-78 0 -131.5 -73t-53.5 -162q0 -61 28 -90.5t75 -29.5zM793 153l9 33h337
l-10 -33h-336z" />
    <glyph glyph-name="uni2117" unicode="&#x2117;" horiz-adv-x="787" 
d="M419 -10q-147 0 -247.5 101t-100.5 250q0 147 100.5 248t247.5 101t248 -100.5t101 -248.5q0 -149 -101 -250t-248 -101zM419 17q135 0 227.5 94t92.5 230q0 135 -92.5 229t-227.5 94q-132 0 -225.5 -94t-93.5 -229t93.5 -229.5t225.5 -94.5zM447 299h-72v-102
q0 -15 15 -15h66v-26h-176v26h42q14 0 14 15v287q0 8 -3 11t-11 3h-42v27h167q62 0 100.5 -32.5t38.5 -80.5t-38.5 -80.5t-100.5 -32.5zM375 498v-173h69q46 0 73 25.5t27 61.5t-27 61t-73 25h-69z" />
    <glyph glyph-name="uni2120" unicode="&#x2120;" horiz-adv-x="823" 
d="M328 585q0 24 32 24q-6 25 -30 38.5t-56 13.5q-37 0 -58.5 -18t-21.5 -44q0 -24 23.5 -43t51.5 -30t51.5 -33.5t23.5 -52.5q0 -39 -33.5 -66t-83.5 -27q-49 0 -85.5 25t-36.5 68q0 22 9.5 33.5t23.5 11.5q11 0 18 -6.5t7 -16.5q0 -12 -10 -18.5t-23 -5.5q4 -32 30 -50
t62 -18q40 0 61 19.5t21 44.5q0 24 -23.5 42.5t-51 29.5t-51 33t-23.5 52q0 39 32.5 66t81.5 27q46 0 80 -23.5t34 -60.5q0 -38 -28 -38q-27 0 -27 23zM796 680h96l-7 -25h-39q-15 0 -19 -14l-72 -249q-4 -15 12 -15h38l-7 -25h-142l8 25h35q15 0 19 15l69 239l-182 -209
h-15l-65 209l-69 -239q-4 -15 11 -15h39l-8 -25h-136l8 25h38q16 0 20 15l71 249q4 14 -11 14h-39l7 25h87l67 -216z" />
    <glyph glyph-name="trademark" unicode="&#x2122;" horiz-adv-x="875" 
d="M467 680l-29 -103h-23q13 46 9 62.5t-34 16.5h-59l-76 -264q-5 -15 11 -15h59l-7 -25h-186l7 25h59q14 0 19 15l76 264h-59q-30 0 -42 -14.5t-28 -64.5h-22l29 103h296zM896 650q-16 0 -19 -14l-71 -244q-4 -15 12 -15h39l-8 -25h-140l7 25h35q15 0 19 15l69 240
l-182 -210h-15l-66 210l-69 -240q-5 -15 12 -15h38l-7 -25h-136l8 25h38q14 0 19 15l71 244q3 14 -12 14h-38l8 30h88l66 -217l188 217h93l-8 -30h-39z" />
    <glyph glyph-name="arrowup" unicode="&#x2191;" horiz-adv-x="695" 
d="M132 411l221 270h20l220 -270l-11 -11l-205 161q1 -63 2.5 -122.5t2.5 -97.5t1 -86v-255h-40v255q0 48 1 86t2.5 97.5t2.5 122.5l-205 -161z" />
    <glyph glyph-name="arrowdown" unicode="&#x2193;" horiz-adv-x="695" 
d="M92 270l12 11l205 -161q-1 63 -2.5 122.5t-2.5 97.5t-1 86v255h40v-255q0 -48 -1 -86t-2.5 -97.5t-2.5 -122.5l205 161l11 -11l-220 -270h-20z" />
    <glyph glyph-name="arrowupdn" unicode="&#x2195;" horiz-adv-x="735" 
d="M377 120l204 161l12 -11l-220 -270h-20l-221 270l11 11l206 -161q-2 77 -4 95.5t-2 55.5v137q0 37 2 55.5t4 95.5l-206 -161l-11 11l221 270h20l220 -270l-12 -11l-204 161q2 -77 4 -95.5t2 -55.5v-137q0 -37 -2 -55.5t-4 -95.5z" />
    <glyph glyph-name="uni2196" unicode="&#x2196;" horiz-adv-x="1002" 
d="M543 609l1 -15l-274 -46q43 -42 88.5 -84.5t72 -68t60.5 -59.5l276 -277l-29 -28l-275 277q-33 33 -59.5 60.5t-67.5 71t-85 88.5l-45 -273l-16 2l-21 359l14 14z" />
    <glyph glyph-name="uni2197" unicode="&#x2197;" horiz-adv-x="763" 
d="M299 609l360 21l14 -14l-21 -359l-16 -2l-45 273q-44 -45 -85 -88.5t-67.5 -71t-59.5 -60.5l-275 -277l-29 28l276 277q34 34 60.5 59.5t72 68t88.5 84.5l-274 46z" />
    <glyph glyph-name="uni2198" unicode="&#x2198;" horiz-adv-x="1001" 
d="M463 82l-1 15l274 46q-43 42 -88.5 84.5t-72 68t-60.5 59.5l-276 277l29 28l275 -277q33 -33 59.5 -60.5t67.5 -71t85 -88.5l45 273l16 -2l21 -359l-14 -14z" />
    <glyph glyph-name="uni2199" unicode="&#x2199;" horiz-adv-x="764" 
d="M467 77l-360 -21l-14 14l21 359l16 2l45 -273q44 45 85 88.5t67.5 71t59.5 60.5l275 277l29 -28l-276 -277q-34 -34 -60.5 -59.5t-72 -68t-88.5 -84.5l274 -46z" />
    <glyph glyph-name="minus" unicode="&#x2212;" horiz-adv-x="596" 
d="M89 281l10 34h436l-10 -34h-436z" />
    <glyph glyph-name="approxequal" unicode="&#x2248;" horiz-adv-x="601" 
d="M583 440q-32 -87 -119 -87q-44 0 -115.5 35.5t-112.5 35.5q-59 0 -85 -60l-25 11q33 83 118 83q45 0 119 -35.5t110 -35.5q55 0 83 61zM516 270q-32 -87 -119 -87q-44 0 -115.5 35.5t-112.5 35.5q-58 0 -84 -60l-26 11q33 83 118 83q45 0 119 -35.5t110 -35.5q55 0 83 61
z" />
    <glyph glyph-name="notequal" unicode="&#x2260;" horiz-adv-x="597" 
d="M557 391h-156l-127 -146h241l-10 -34h-260l-132 -152h-37l132 152h-139l10 34h158l127 146h-243l10 34h262l131 151h37l-131 -151h137z" />
    <glyph glyph-name="lessequal" unicode="&#x2264;" horiz-adv-x="596" 
d="M605 565l-12 -41l-420 -143l338 -143l-11 -38l-377 169l8 28zM30 76l10 34h436l-10 -34h-436z" />
    <glyph glyph-name="greaterequal" unicode="&#x2265;" horiz-adv-x="596" 
d="M76 200l11 42l420 144l-337 143l10 36l378 -169l-8 -28zM30 76l10 34h436l-10 -34h-436z" />
    <glyph glyph-name="A.fina" horiz-adv-x="960" 
d="M879 227q21 0 34 -15.5t13 -39.5q0 -70 -58.5 -126t-162.5 -56q-164 0 -234 174l-16 39h-288l-41 -142q-5 -15 -1 -20.5t19 -5.5h94l-10 -35h-264l10 35h79q15 0 22.5 5.5t11.5 20.5l160 558q4 15 0 20.5t-19 5.5h-79l10 35h158l210 -512q59 -143 189 -143
q67 0 114.5 35.5t54.5 87.5q-19 -1 -33 11t-14 29q0 16 12 27.5t29 11.5zM176 236h266l-155 386z" />
    <glyph glyph-name="Aacute.fina" horiz-adv-x="960" 
d="M479 864q-14 -15 -59.5 -49t-84.5 -59h-26q88 119 128 153q25 21 46 0t-4 -45zM879 227q21 0 34 -15.5t13 -39.5q0 -70 -58.5 -126t-162.5 -56q-164 0 -234 174l-16 39h-288l-41 -142q-5 -15 -1 -20.5t19 -5.5h94l-10 -35h-264l10 35h79q15 0 22.5 5.5t11.5 20.5l160 558
q4 15 0 20.5t-19 5.5h-79l10 35h158l210 -512q59 -143 189 -143q67 0 114.5 35.5t54.5 87.5q-19 -1 -33 11t-14 29q0 16 12 27.5t29 11.5zM176 236h266l-155 386z" />
    <glyph glyph-name="Abreve.fina" horiz-adv-x="960" 
d="M319 767q-50 0 -73 32t-13 93h31q-4 -82 62 -82q72 0 116 82h34q-24 -61 -66 -93t-91 -32zM879 227q21 0 34 -15.5t13 -39.5q0 -70 -58.5 -126t-162.5 -56q-164 0 -234 174l-16 39h-288l-41 -142q-5 -15 -1 -20.5t19 -5.5h94l-10 -35h-264l10 35h79q15 0 22.5 5.5
t11.5 20.5l160 558q4 15 0 20.5t-19 5.5h-79l10 35h158l210 -512q59 -143 189 -143q67 0 114.5 35.5t54.5 87.5q-19 -1 -33 11t-14 29q0 16 12 27.5t29 11.5zM176 236h266l-155 386z" />
    <glyph glyph-name="Acircumflex.fina" horiz-adv-x="960" 
d="M347 853l-125 -95h-30l143 142q16 16 26 16t17 -16l64 -142h-26zM879 227q21 0 34 -15.5t13 -39.5q0 -70 -58.5 -126t-162.5 -56q-164 0 -234 174l-16 39h-288l-41 -142q-5 -15 -1 -20.5t19 -5.5h94l-10 -35h-264l10 35h79q15 0 22.5 5.5t11.5 20.5l160 558q4 15 0 20.5
t-19 5.5h-79l10 35h158l210 -512q59 -143 189 -143q67 0 114.5 35.5t54.5 87.5q-19 -1 -33 11t-14 29q0 16 12 27.5t29 11.5zM176 236h266l-155 386z" />
    <glyph glyph-name="Adieresis.fina" horiz-adv-x="960" 
d="M232 765q-19 0 -31 12t-12 31t12 31.5t31 12.5t31 -12.5t12 -31.5t-12 -31t-31 -12zM423 765q-19 0 -31 12t-12 31t12 31.5t31 12.5t31 -12.5t12 -31.5t-12 -31t-31 -12zM879 227q21 0 34 -15.5t13 -39.5q0 -70 -58.5 -126t-162.5 -56q-164 0 -234 174l-16 39h-288
l-41 -142q-5 -15 -1 -20.5t19 -5.5h94l-10 -35h-264l10 35h79q15 0 22.5 5.5t11.5 20.5l160 558q4 15 0 20.5t-19 5.5h-79l10 35h158l210 -512q59 -143 189 -143q67 0 114.5 35.5t54.5 87.5q-19 -1 -33 11t-14 29q0 16 12 27.5t29 11.5zM176 236h266l-155 386z" />
    <glyph glyph-name="Agrave.fina" horiz-adv-x="960" 
d="M315 754h-21q-20 25 -41.5 69t-21.5 66q0 14 9 22t20 8q23 0 31 -26q15 -44 24 -139zM879 227q21 0 34 -15.5t13 -39.5q0 -70 -58.5 -126t-162.5 -56q-164 0 -234 174l-16 39h-288l-41 -142q-5 -15 -1 -20.5t19 -5.5h94l-10 -35h-264l10 35h79q15 0 22.5 5.5t11.5 20.5
l160 558q4 15 0 20.5t-19 5.5h-79l10 35h158l210 -512q59 -143 189 -143q67 0 114.5 35.5t54.5 87.5q-19 -1 -33 11t-14 29q0 16 12 27.5t29 11.5zM176 236h266l-155 386z" />
    <glyph glyph-name="Amacron.fina" horiz-adv-x="960" 
d="M462 822l-12 -41h-255l12 41h255zM879 227q21 0 34 -15.5t13 -39.5q0 -70 -58.5 -126t-162.5 -56q-164 0 -234 174l-16 39h-288l-41 -142q-5 -15 -1 -20.5t19 -5.5h94l-10 -35h-264l10 35h79q15 0 22.5 5.5t11.5 20.5l160 558q4 15 0 20.5t-19 5.5h-79l10 35h158
l210 -512q59 -143 189 -143q67 0 114.5 35.5t54.5 87.5q-19 -1 -33 11t-14 29q0 16 12 27.5t29 11.5zM176 236h266l-155 386z" />
    <glyph glyph-name="Aogonek.fina" horiz-adv-x="960" 
d="M850 32q-83 -75 -109 -106.5t-26 -60.5q0 -43 47 -43q27 0 65 18l-10 -38q-33 -18 -70 -18q-36 0 -56.5 17t-20.5 49q0 33 23 64t87 85q-33 -9 -75 -9q-164 0 -234 174l-16 39h-288l-41 -142q-5 -15 -1 -20.5t19 -5.5h94l-10 -35h-264l10 35h79q15 0 22.5 5.5t11.5 20.5
l160 558q4 15 0 20.5t-19 5.5h-79l10 35h158l210 -512q59 -143 189 -143q67 0 114.5 35.5t54.5 87.5q-19 -1 -33 11t-14 29q0 16 12 27.5t29 11.5q21 0 34 -15.5t13 -39.5q0 -38 -19.5 -76t-56.5 -64zM176 236h266l-155 386z" />
    <glyph glyph-name="Aring.fina" horiz-adv-x="960" 
d="M326 738q-39 0 -63.5 23.5t-24.5 57.5q0 45 33 76t77 31q39 0 63 -23t24 -58q0 -45 -32.5 -76t-76.5 -31zM345 897q-30 0 -51.5 -23t-21.5 -53q0 -23 16 -37.5t41 -14.5q29 0 50.5 21.5t21.5 53.5q0 23 -15.5 38t-40.5 15zM879 227q21 0 34 -15.5t13 -39.5
q0 -70 -58.5 -126t-162.5 -56q-164 0 -234 174l-16 39h-288l-41 -142q-5 -15 -1 -20.5t19 -5.5h94l-10 -35h-264l10 35h79q15 0 22.5 5.5t11.5 20.5l160 558q4 15 0 20.5t-19 5.5h-79l10 35h158l210 -512q59 -143 189 -143q67 0 114.5 35.5t54.5 87.5q-19 -1 -33 11t-14 29
q0 16 12 27.5t29 11.5zM176 236h266l-155 386z" />
    <glyph glyph-name="Atilde.fina" horiz-adv-x="960" 
d="M260 819q-21 0 -33 -14t-23 -41l-26 9q25 87 91 87q26 0 50 -16.5t45.5 -33t39.5 -16.5q34 0 53 53l27 -5q-26 -89 -91 -89q-31 0 -70.5 33t-62.5 33zM879 227q21 0 34 -15.5t13 -39.5q0 -70 -58.5 -126t-162.5 -56q-164 0 -234 174l-16 39h-288l-41 -142
q-5 -15 -1 -20.5t19 -5.5h94l-10 -35h-264l10 35h79q15 0 22.5 5.5t11.5 20.5l160 558q4 15 0 20.5t-19 5.5h-79l10 35h158l210 -512q59 -143 189 -143q67 0 114.5 35.5t54.5 87.5q-19 -1 -33 11t-14 29q0 16 12 27.5t29 11.5zM176 236h266l-155 386z" />
    <glyph glyph-name="K.fina" horiz-adv-x="870" 
d="M139 61q-4 -15 0 -20.5t19 -5.5h69l-10 -35h-253l10 35h79q15 0 22.5 5.5t11.5 20.5l160 558q4 15 0 20.5t-19 5.5h-79l10 35h253l-10 -35h-69q-15 0 -22.5 -5.5t-11.5 -20.5zM789 227q21 0 34.5 -16.5t13.5 -41.5q0 -65 -57.5 -122t-147.5 -57q-154 0 -229 136l-113 206
l343 289q29 24 -2 24h-109l10 35h279l-10 -35h-41q-47 0 -81 -28l-333 -279l108 -195q67 -118 179 -118q64 0 111.5 37.5t54.5 86.5q-21 -3 -37 9t-16 31q0 16 12.5 27t30.5 11z" />
    <glyph glyph-name="Kcommaaccent.fina" horiz-adv-x="870" 
d="M139 61q-4 -15 0 -20.5t19 -5.5h69l-10 -35h-253l10 35h79q15 0 22.5 5.5t11.5 20.5l160 558q4 15 0 20.5t-19 5.5h-79l10 35h253l-10 -35h-69q-15 0 -22.5 -5.5t-11.5 -20.5zM789 227q21 0 34.5 -16.5t13.5 -41.5q0 -65 -57.5 -122t-147.5 -57q-154 0 -229 136l-113 206
l343 289q29 24 -2 24h-109l10 35h279l-10 -35h-41q-47 0 -81 -28l-333 -279l108 -195q67 -118 179 -118q64 0 111.5 37.5t54.5 86.5q-21 -3 -37 9t-16 31q0 16 12.5 27t30.5 11zM353 -73q19 0 31.5 -11.5t12.5 -34.5q0 -43 -36 -80t-90 -50l-7 20q78 26 87 76
q-17 1 -29.5 11t-12.5 27q0 18 13 30t31 12z" />
    <glyph glyph-name="R.fina" horiz-adv-x="850" 
d="M769 227q21 0 34.5 -16.5t13.5 -41.5q0 -65 -57.5 -122t-147.5 -57q-69 0 -132 36.5t-105 114.5l-78 142h-94l-64 -222q-4 -14 -0.5 -20t19.5 -6h91l-10 -35h-275l10 35h79q16 0 22.5 5.5t11.5 20.5l159 558q5 13 2 19.5t-20 6.5h-79l11 35h277q100 0 159.5 -45.5
t59.5 -126.5q0 -93 -88 -155t-212 -69l78 -141q65 -118 179 -118q64 0 111.5 37.5t54.5 86.5q-21 -3 -37 9t-16 31q0 16 12.5 27t30.5 11zM307 645l-94 -327h132q108 0 181.5 54.5t73.5 136.5q0 65 -46 100.5t-125 35.5h-122z" />
    <glyph glyph-name="Racute.fina" horiz-adv-x="850" 
d="M579 864q-14 -15 -59.5 -49t-84.5 -59h-26q88 119 128 153q25 21 46 0t-4 -45zM769 227q21 0 34.5 -16.5t13.5 -41.5q0 -65 -57.5 -122t-147.5 -57q-69 0 -132 36.5t-105 114.5l-78 142h-94l-64 -222q-4 -14 -0.5 -20t19.5 -6h91l-10 -35h-275l10 35h79q16 0 22.5 5.5
t11.5 20.5l159 558q5 13 2 19.5t-20 6.5h-79l11 35h277q100 0 159.5 -45.5t59.5 -126.5q0 -93 -88 -155t-212 -69l78 -141q65 -118 179 -118q64 0 111.5 37.5t54.5 86.5q-21 -3 -37 9t-16 31q0 16 12.5 27t30.5 11zM307 645l-94 -327h132q108 0 181.5 54.5t73.5 136.5
q0 65 -46 100.5t-125 35.5h-122z" />
    <glyph glyph-name="Rcaron.fina" horiz-adv-x="850" 
d="M444 758q-10 0 -17 16l-64 142h26l69 -95l125 95h30l-143 -142q-16 -16 -26 -16zM769 227q21 0 34.5 -16.5t13.5 -41.5q0 -65 -57.5 -122t-147.5 -57q-69 0 -132 36.5t-105 114.5l-78 142h-94l-64 -222q-4 -14 -0.5 -20t19.5 -6h91l-10 -35h-275l10 35h79q16 0 22.5 5.5
t11.5 20.5l159 558q5 13 2 19.5t-20 6.5h-79l11 35h277q100 0 159.5 -45.5t59.5 -126.5q0 -93 -88 -155t-212 -69l78 -141q65 -118 179 -118q64 0 111.5 37.5t54.5 86.5q-21 -3 -37 9t-16 31q0 16 12.5 27t30.5 11zM307 645l-94 -327h132q108 0 181.5 54.5t73.5 136.5
q0 65 -46 100.5t-125 35.5h-122z" />
    <glyph glyph-name="Rcommaaccent.fina" horiz-adv-x="850" 
d="M769 227q21 0 34.5 -16.5t13.5 -41.5q0 -65 -57.5 -122t-147.5 -57q-69 0 -132 36.5t-105 114.5l-78 142h-94l-64 -222q-4 -14 -0.5 -20t19.5 -6h91l-10 -35h-275l10 35h79q16 0 22.5 5.5t11.5 20.5l159 558q5 13 2 19.5t-20 6.5h-79l11 35h277q100 0 159.5 -45.5
t59.5 -126.5q0 -93 -88 -155t-212 -69l78 -141q65 -118 179 -118q64 0 111.5 37.5t54.5 86.5q-21 -3 -37 9t-16 31q0 16 12.5 27t30.5 11zM307 645l-94 -327h132q108 0 181.5 54.5t73.5 136.5q0 65 -46 100.5t-125 35.5h-122zM331 -73q19 0 31.5 -11.5t12.5 -34.5
q0 -43 -36 -80t-90 -50l-7 20q78 26 87 76q-17 1 -29.5 11t-12.5 27q0 18 13 30t31 12z" />
    <glyph glyph-name="A.init" horiz-adv-x="1027" 
d="M955 680h160l-10 -35h-79q-15 0 -22.5 -5.5t-11.5 -20.5l-159 -558q-5 -15 -1 -20.5t19 -5.5h79l-10 -35h-277l10 35h94q15 0 21.5 5.5t11.5 20.5l41 142h-304l-58 -57q-88 -85 -151 -118t-123 -33q-95 0 -145.5 50.5t-50.5 115.5q0 33 14 52t38 19q18 0 29 -10.5
t11 -28.5q0 -23 -16.5 -34t-36.5 -8q5 -54 46 -87.5t112 -33.5q50 0 101.5 24t124.5 96zM830 236l110 382l-389 -382h279z" />
    <glyph glyph-name="Aacute.init" horiz-adv-x="1027" 
d="M1209 909q21 -21 -4 -45q-14 -15 -59.5 -49t-84.5 -59h-26q88 119 128 153q25 21 46 0zM412 150l543 530h160l-10 -35h-79q-15 0 -22.5 -5.5t-11.5 -20.5l-159 -558q-5 -15 -1 -20.5t19 -5.5h79l-10 -35h-277l10 35h94q15 0 21.5 5.5t11.5 20.5l41 142h-304l-58 -57
q-88 -85 -151 -118t-123 -33q-95 0 -145.5 50.5t-50.5 115.5q0 33 14 52t38 19q18 0 29 -10.5t11 -28.5q0 -23 -16.5 -34t-36.5 -8q5 -54 46 -87.5t112 -33.5q50 0 101.5 24t124.5 96zM830 236l110 382l-389 -382h279z" />
    <glyph glyph-name="Abreve.init" horiz-adv-x="1027" 
d="M1168 892h34q-24 -61 -66 -93t-91 -32q-50 0 -73 32t-13 93h31q-4 -82 62 -82q72 0 116 82zM412 150l543 530h160l-10 -35h-79q-15 0 -22.5 -5.5t-11.5 -20.5l-159 -558q-5 -15 -1 -20.5t19 -5.5h79l-10 -35h-277l10 35h94q15 0 21.5 5.5t11.5 20.5l41 142h-304l-58 -57
q-88 -85 -151 -118t-123 -33q-95 0 -145.5 50.5t-50.5 115.5q0 33 14 52t38 19q18 0 29 -10.5t11 -28.5q0 -23 -16.5 -34t-36.5 -8q5 -54 46 -87.5t112 -33.5q50 0 101.5 24t124.5 96zM830 236l110 382l-389 -382h279z" />
    <glyph glyph-name="Acircumflex.init" horiz-adv-x="1027" 
d="M1104 900l64 -142h-26l-69 95l-125 -95h-30l143 142q16 16 26 16t17 -16zM412 150l543 530h160l-10 -35h-79q-15 0 -22.5 -5.5t-11.5 -20.5l-159 -558q-5 -15 -1 -20.5t19 -5.5h79l-10 -35h-277l10 35h94q15 0 21.5 5.5t11.5 20.5l41 142h-304l-58 -57q-88 -85 -151 -118
t-123 -33q-95 0 -145.5 50.5t-50.5 115.5q0 33 14 52t38 19q18 0 29 -10.5t11 -28.5q0 -23 -16.5 -34t-36.5 -8q5 -54 46 -87.5t112 -33.5q50 0 101.5 24t124.5 96zM830 236l110 382l-389 -382h279z" />
    <glyph glyph-name="Adieresis.init" horiz-adv-x="1027" 
d="M958 765q-19 0 -31 12t-12 31t12 31.5t31 12.5t31 -12.5t12 -31.5t-12 -31t-31 -12zM1149 852q19 0 31 -12.5t12 -31.5t-12 -31t-31 -12t-31 12t-12 31t12 31.5t31 12.5zM412 150l543 530h160l-10 -35h-79q-15 0 -22.5 -5.5t-11.5 -20.5l-159 -558q-5 -15 -1 -20.5
t19 -5.5h79l-10 -35h-277l10 35h94q15 0 21.5 5.5t11.5 20.5l41 142h-304l-58 -57q-88 -85 -151 -118t-123 -33q-95 0 -145.5 50.5t-50.5 115.5q0 33 14 52t38 19q18 0 29 -10.5t11 -28.5q0 -23 -16.5 -34t-36.5 -8q5 -54 46 -87.5t112 -33.5q50 0 101.5 24t124.5 96z
M830 236l110 382l-389 -382h279z" />
    <glyph glyph-name="Agrave.init" horiz-adv-x="1027" 
d="M1041 754h-21q-20 25 -41.5 69t-21.5 66q0 14 9 22t20 8q23 0 31 -26q15 -44 24 -139zM955 680h160l-10 -35h-79q-15 0 -22.5 -5.5t-11.5 -20.5l-159 -558q-5 -15 -1 -20.5t19 -5.5h79l-10 -35h-277l10 35h94q15 0 21.5 5.5t11.5 20.5l41 142h-304l-58 -57
q-88 -85 -151 -118t-123 -33q-95 0 -145.5 50.5t-50.5 115.5q0 33 14 52t38 19q18 0 29 -10.5t11 -28.5q0 -23 -16.5 -34t-36.5 -8q5 -54 46 -87.5t112 -33.5q50 0 101.5 24t124.5 96zM830 236l110 382l-389 -382h279z" />
    <glyph glyph-name="Amacron.init" horiz-adv-x="1027" 
d="M933 822h255l-12 -41h-255zM412 150l543 530h160l-10 -35h-79q-15 0 -22.5 -5.5t-11.5 -20.5l-159 -558q-5 -15 -1 -20.5t19 -5.5h79l-10 -35h-277l10 35h94q15 0 21.5 5.5t11.5 20.5l41 142h-304l-58 -57q-88 -85 -151 -118t-123 -33q-95 0 -145.5 50.5t-50.5 115.5
q0 33 14 52t38 19q18 0 29 -10.5t11 -28.5q0 -23 -16.5 -34t-36.5 -8q5 -54 46 -87.5t112 -33.5q50 0 101.5 24t124.5 96zM830 236l110 382l-389 -382h279z" />
    <glyph glyph-name="Aogonek.init" horiz-adv-x="1027" 
d="M955 680h160l-10 -35h-79q-15 0 -22.5 -5.5t-11.5 -20.5l-159 -558q-5 -15 -1 -20.5t19 -5.5h79l-10 -35h-118q-60 -55 -80.5 -82t-20.5 -53q0 -43 47 -43q27 0 65 18l-10 -38q-33 -18 -70 -18q-36 0 -56 17t-20 49q0 33 23 64t87 86h-124l10 35h94q15 0 21.5 5.5
t11.5 20.5l41 142h-304l-58 -57q-88 -85 -151 -118t-123 -33q-95 0 -145.5 50.5t-50.5 115.5q0 33 14 52t38 19q18 0 29 -10.5t11 -28.5q0 -23 -16.5 -34t-36.5 -8q5 -54 46 -87.5t112 -33.5q50 0 101.5 24t124.5 96zM830 236l110 382l-389 -382h279z" />
    <glyph glyph-name="Aring.init" horiz-adv-x="1027" 
d="M1074 926q39 0 63 -23t24 -58q0 -45 -32.5 -76t-76.5 -31q-39 0 -63.5 23.5t-24.5 57.5q0 45 33 76t77 31zM1055 769q29 0 50.5 21.5t21.5 53.5q0 23 -15.5 38t-40.5 15q-30 0 -51.5 -23t-21.5 -53q0 -23 16 -37.5t41 -14.5zM412 150l543 530h160l-10 -35h-79
q-15 0 -22.5 -5.5t-11.5 -20.5l-159 -558q-5 -15 -1 -20.5t19 -5.5h79l-10 -35h-277l10 35h94q15 0 21.5 5.5t11.5 20.5l41 142h-304l-58 -57q-88 -85 -151 -118t-123 -33q-95 0 -145.5 50.5t-50.5 115.5q0 33 14 52t38 19q18 0 29 -10.5t11 -28.5q0 -23 -16.5 -34t-36.5 -8
q5 -54 46 -87.5t112 -33.5q50 0 101.5 24t124.5 96zM830 236l110 382l-389 -382h279z" />
    <glyph glyph-name="Atilde.init" horiz-adv-x="1027" 
d="M1183 847l27 -5q-26 -89 -91 -89q-31 0 -70.5 33t-62.5 33q-21 0 -33 -14t-23 -41l-26 9q25 87 91 87q26 0 50 -16.5t45.5 -33t39.5 -16.5q34 0 53 53zM412 150l543 530h160l-10 -35h-79q-15 0 -22.5 -5.5t-11.5 -20.5l-159 -558q-5 -15 -1 -20.5t19 -5.5h79l-10 -35
h-277l10 35h94q15 0 21.5 5.5t11.5 20.5l41 142h-304l-58 -57q-88 -85 -151 -118t-123 -33q-95 0 -145.5 50.5t-50.5 115.5q0 33 14 52t38 19q18 0 29 -10.5t11 -28.5q0 -23 -16.5 -34t-36.5 -8q5 -54 46 -87.5t112 -33.5q50 0 101.5 24t124.5 96zM830 236l110 382
l-389 -382h279z" />
    <glyph glyph-name="M.init" horiz-adv-x="1074" 
d="M991 680h171l-10 -35h-79q-15 0 -21.5 -5.5t-11.5 -20.5l-160 -558q-5 -15 -1 -20.5t19 -5.5h79l-10 -35h-252l10 35h69q15 0 21.5 5.5t11.5 20.5l161 560l-369 -440h-21l-125 439l-114 -400q-32 -111 -93 -170.5t-148 -59.5q-68 0 -111.5 38t-43.5 86q0 24 12.5 38
t31.5 14q16 0 27 -10t11 -26q0 -17 -12.5 -27t-31.5 -11q6 -32 42 -49t74 -17q73 0 124.5 50.5t78.5 143.5l114 399q5 15 1 20.5t-19 5.5h-79l10 35h164l120 -431z" />
    <glyph glyph-name="N.init" horiz-adv-x="954" 
d="M793 680h254l-10 -35h-84q-15 0 -22.5 -5.5t-11.5 -20.5l-177 -619h-19l-248 617l-114 -397q-32 -111 -93.5 -170.5t-148.5 -59.5q-68 0 -111.5 38.5t-43.5 86.5q0 23 12 37t31 14q16 0 27 -10t11 -25q0 -17 -12.5 -27t-30.5 -12q6 -31 42 -48t73 -17q73 0 124.5 50
t78.5 143l114 399q5 15 1 20.5t-19 5.5h-79l10 35h154l230 -585l147 524q5 15 1 20.5t-19 5.5h-77z" />
    <glyph glyph-name="Nacute.init" horiz-adv-x="954" 
d="M857 864q-14 -15 -59.5 -49t-84.5 -59h-26q88 119 128 153q25 21 46 0t-4 -45zM793 680h254l-10 -35h-84q-15 0 -22.5 -5.5t-11.5 -20.5l-177 -619h-19l-248 617l-114 -397q-32 -111 -93.5 -170.5t-148.5 -59.5q-68 0 -111.5 38.5t-43.5 86.5q0 23 12 37t31 14
q16 0 27 -10t11 -25q0 -17 -12.5 -27t-30.5 -12q6 -31 42 -48t73 -17q73 0 124.5 50t78.5 143l114 399q5 15 1 20.5t-19 5.5h-79l10 35h154l230 -585l147 524q5 15 1 20.5t-19 5.5h-77z" />
    <glyph glyph-name="Ncaron.init" horiz-adv-x="954" 
d="M722 758q-10 0 -17 16l-64 142h26l69 -95l125 95h30l-143 -142q-16 -16 -26 -16zM793 680h254l-10 -35h-84q-15 0 -22.5 -5.5t-11.5 -20.5l-177 -619h-19l-248 617l-114 -397q-32 -111 -93.5 -170.5t-148.5 -59.5q-68 0 -111.5 38.5t-43.5 86.5q0 23 12 37t31 14
q16 0 27 -10t11 -25q0 -17 -12.5 -27t-30.5 -12q6 -31 42 -48t73 -17q73 0 124.5 50t78.5 143l114 399q5 15 1 20.5t-19 5.5h-79l10 35h154l230 -585l147 524q5 15 1 20.5t-19 5.5h-77z" />
    <glyph glyph-name="Ncommaaccent.init" horiz-adv-x="954" 
d="M793 680h254l-10 -35h-84q-15 0 -22.5 -5.5t-11.5 -20.5l-177 -619h-19l-248 617l-114 -397q-32 -111 -93.5 -170.5t-148.5 -59.5q-68 0 -111.5 38.5t-43.5 86.5q0 23 12 37t31 14q16 0 27 -10t11 -25q0 -17 -12.5 -27t-30.5 -12q6 -31 42 -48t73 -17q73 0 124.5 50
t78.5 143l114 399q5 15 1 20.5t-19 5.5h-79l10 35h154l230 -585l147 524q5 15 1 20.5t-19 5.5h-77zM469 -73q19 0 31.5 -11.5t12.5 -34.5q0 -43 -36 -80t-90 -50l-7 20q78 26 87 76q-17 1 -29.5 11t-12.5 27q0 18 13 30t31 12z" />
    <glyph glyph-name="Eng.init" horiz-adv-x="954" 
d="M793 680h254l-10 -35h-84q-15 0 -22.5 -5.5t-11.5 -20.5l-177 -619l-15 -54q-18 -64 -58.5 -100t-95.5 -36q-43 0 -69.5 23.5t-26.5 62.5q0 20 12.5 33.5t31.5 13.5q16 0 26.5 -10t10.5 -26q0 -19 -12.5 -30t-32.5 -11q20 -26 57 -26q78 0 108 106l27 98l-230 573
l-114 -397q-32 -111 -93.5 -170.5t-148.5 -59.5q-68 0 -111.5 38.5t-43.5 86.5q0 23 12 37t31 14q16 0 27 -10t11 -25q0 -17 -12.5 -27t-30.5 -12q6 -31 42 -48t73 -17q73 0 124.5 50t78.5 143l114 399q5 15 1 20.5t-19 5.5h-79l10 35h154l230 -585l147 524q5 15 1 20.5
t-19 5.5h-77z" />
    <glyph glyph-name="Ntilde.init" horiz-adv-x="954" 
d="M638 819q-21 0 -33 -14t-23 -41l-26 9q25 87 91 87q26 0 50 -16.5t45.5 -33t39.5 -16.5q34 0 53 53l27 -5q-26 -89 -91 -89q-31 0 -70.5 33t-62.5 33zM793 680h254l-10 -35h-84q-15 0 -22.5 -5.5t-11.5 -20.5l-177 -619h-19l-248 617l-114 -397q-32 -111 -93.5 -170.5
t-148.5 -59.5q-68 0 -111.5 38.5t-43.5 86.5q0 23 12 37t31 14q16 0 27 -10t11 -25q0 -17 -12.5 -27t-30.5 -12q6 -31 42 -48t73 -17q73 0 124.5 50t78.5 143l114 399q5 15 1 20.5t-19 5.5h-79l10 35h154l230 -585l147 524q5 15 1 20.5t-19 5.5h-77z" />
    <glyph glyph-name="Q.init" horiz-adv-x="736" 
d="M767 -89v-1q-1 -48 -33 -83t-78 -51t-99 -16q-58 0 -117 24t-92.5 48.5t-86.5 68.5q-97 -41 -159 -41q-52 0 -85.5 23t-33.5 62q0 36 30.5 61.5t82.5 25.5q79 0 186 -83q53 26 106 60q122 77 189.5 176t67.5 235q0 107 -54.5 171.5t-152.5 64.5q-67 0 -122 -30t-89 -78.5
t-52.5 -107t-18.5 -117.5q0 -152 134 -255l-15 -17q-78 40 -126 108t-48 164q0 65 23 129t64.5 117.5t108 87t144.5 33.5q116 0 187.5 -74t71.5 -202q0 -80 -23.5 -148.5t-67.5 -123t-95.5 -95.5t-117.5 -79q-57 -32 -83 -44q93 -75 135 -98q63 -34 122 -34q50 0 94 20.5
t64 54.5h-4q-19 0 -31 12.5t-12 30.5q0 19 12 32t31 13t31 -12t12 -31v-1zM104 -108q45 -1 128 33q-90 74 -141 74q-30 0 -50 -16t-20 -38q0 -24 24.5 -38.5t58.5 -14.5z" />
    <glyph glyph-name="T.init" horiz-adv-x="612" 
d="M777 805q0 -157 -254 -160h-31l-167 -584q-4 -15 0 -20.5t19 -5.5h116l-10 -35h-337l10 35h116q15 0 22.5 5.5t11.5 20.5l166 584h-75q-113 0 -161 -25t-58 -68q20 2 35 -10t15 -32q0 -17 -12 -28.5t-31 -11.5t-31.5 14t-12.5 37q0 28 9.5 52.5t34 50t78 41t131.5 15.5
h151q208 0 228 94q-20 -2 -34.5 9.5t-14.5 31.5q0 17 12 28.5t30 11.5q19 0 31.5 -13.5t12.5 -36.5z" />
    <glyph glyph-name="Tbar.init" horiz-adv-x="612" 
d="M523 645h-31l-89 -313h145l-10 -35h-145l-68 -236q-4 -15 0 -20.5t19 -5.5h116l-10 -35h-337l10 35h116q15 0 22.5 5.5t11.5 20.5l67 236h-147l10 35h147l89 313h-75q-113 0 -161 -25t-58 -68q20 2 35 -10t15 -32q0 -17 -12 -28.5t-31 -11.5t-31.5 14t-12.5 37
q0 28 9.5 52.5t34 50t78 41t131.5 15.5h151q208 0 228 94q-20 -2 -34.5 9.5t-14.5 31.5q0 17 12 28.5t30 11.5q19 0 31.5 -13.5t12.5 -36.5q0 -157 -254 -160z" />
    <glyph glyph-name="Tcaron.init" horiz-adv-x="612" 
d="M499 758q-10 0 -17 16l-64 142h26l69 -95l125 95h30l-143 -142q-16 -16 -26 -16zM777 805q0 -157 -254 -160h-31l-167 -584q-4 -15 0 -20.5t19 -5.5h116l-10 -35h-337l10 35h116q15 0 22.5 5.5t11.5 20.5l166 584h-75q-113 0 -161 -25t-58 -68q20 2 35 -10t15 -32
q0 -17 -12 -28.5t-31 -11.5t-31.5 14t-12.5 37q0 28 9.5 52.5t34 50t78 41t131.5 15.5h151q208 0 228 94q-20 -2 -34.5 9.5t-14.5 31.5q0 17 12 28.5t30 11.5q19 0 31.5 -13.5t12.5 -36.5z" />
    <glyph glyph-name="uni0162.init" horiz-adv-x="612" 
d="M777 805q0 -157 -254 -160h-31l-167 -584q-4 -15 0 -20.5t19 -5.5h116l-10 -35h-154l-49 -72q49 1 77.5 -18.5t28.5 -51.5q0 -37 -33.5 -63t-81.5 -26q-52 0 -94 30l17 25q35 -25 78 -25q31 0 51.5 16t20.5 41q0 27 -29 38.5t-78 5.5l-7 13l68 87h-152l10 35h116
q15 0 22.5 5.5t11.5 20.5l166 584h-75q-113 0 -161 -25t-58 -68q20 2 35 -10t15 -32q0 -17 -12 -28.5t-31 -11.5t-31.5 14t-12.5 37q0 28 9.5 52.5t34 50t78 41t131.5 15.5h151q208 0 228 94q-20 -2 -34.5 9.5t-14.5 31.5q0 17 12 28.5t30 11.5q19 0 31.5 -13.5t12.5 -36.5z
" />
    <glyph glyph-name="uni021A.init" horiz-adv-x="612" 
d="M777 805q0 -157 -254 -160h-31l-167 -584q-4 -15 0 -20.5t19 -5.5h116l-10 -35h-337l10 35h116q15 0 22.5 5.5t11.5 20.5l166 584h-75q-113 0 -161 -25t-58 -68q20 2 35 -10t15 -32q0 -17 -12 -28.5t-31 -11.5t-31.5 14t-12.5 37q0 28 9.5 52.5t34 50t78 41t131.5 15.5
h151q208 0 228 94q-20 -2 -34.5 9.5t-14.5 31.5q0 17 12 28.5t30 11.5q19 0 31.5 -13.5t12.5 -36.5zM270 -73q19 0 31.5 -11.5t12.5 -34.5q0 -43 -36 -80t-90 -50l-7 20q78 26 87 76q-17 1 -29.5 11t-12.5 27q0 18 13 30t31 12z" />
    <glyph glyph-name="R.ss03" horiz-adv-x="809" 
d="M731 227q44 0 44 -55q0 -67 -50.5 -124.5t-130.5 -57.5q-112 0 -151 120l-28 87q-17 50 -44.5 68t-78.5 18h-89l-64 -222q-4 -15 0 -20.5t19 -5.5h91l-10 -35h-275l10 35h79q16 0 22.5 5.5t11.5 20.5l159 558q5 13 2 19.5t-20 6.5h-79l11 35h277q100 0 159.5 -45.5
t59.5 -124.5q0 -92 -77 -152.5t-196 -66.5q60 -18 90 -102l28 -74q31 -91 105 -91q52 0 86.5 37t40.5 86h-4q-17 0 -28.5 11.5t-11.5 28.5q0 18 12 29t30 11zM213 318h136q107 0 179 54t72 137q0 65 -46 100.5t-125 35.5h-122z" />
    <glyph glyph-name="Racute.ss03" horiz-adv-x="809" 
d="M579 864q-14 -15 -59.5 -49t-84.5 -59h-26q88 119 128 153q25 21 46 0t-4 -45zM731 227q44 0 44 -55q0 -67 -50.5 -124.5t-130.5 -57.5q-112 0 -151 120l-28 87q-17 50 -44.5 68t-78.5 18h-89l-64 -222q-4 -15 0 -20.5t19 -5.5h91l-10 -35h-275l10 35h79q16 0 22.5 5.5
t11.5 20.5l159 558q5 13 2 19.5t-20 6.5h-79l11 35h277q100 0 159.5 -45.5t59.5 -124.5q0 -92 -77 -152.5t-196 -66.5q60 -18 90 -102l28 -74q31 -91 105 -91q52 0 86.5 37t40.5 86h-4q-17 0 -28.5 11.5t-11.5 28.5q0 18 12 29t30 11zM213 318h136q107 0 179 54t72 137
q0 65 -46 100.5t-125 35.5h-122z" />
    <glyph glyph-name="Rcaron.ss03" horiz-adv-x="809" 
d="M444 758q-10 0 -17 16l-64 142h26l69 -95l125 95h30l-143 -142q-16 -16 -26 -16zM731 227q44 0 44 -55q0 -67 -50.5 -124.5t-130.5 -57.5q-112 0 -151 120l-28 87q-17 50 -44.5 68t-78.5 18h-89l-64 -222q-4 -15 0 -20.5t19 -5.5h91l-10 -35h-275l10 35h79q16 0 22.5 5.5
t11.5 20.5l159 558q5 13 2 19.5t-20 6.5h-79l11 35h277q100 0 159.5 -45.5t59.5 -124.5q0 -92 -77 -152.5t-196 -66.5q60 -18 90 -102l28 -74q31 -91 105 -91q52 0 86.5 37t40.5 86h-4q-17 0 -28.5 11.5t-11.5 28.5q0 18 12 29t30 11zM213 318h136q107 0 179 54t72 137
q0 65 -46 100.5t-125 35.5h-122z" />
    <glyph glyph-name="Rcommaaccent.ss03" horiz-adv-x="809" 
d="M731 227q44 0 44 -55q0 -67 -50.5 -124.5t-130.5 -57.5q-112 0 -151 120l-28 87q-17 50 -44.5 68t-78.5 18h-89l-64 -222q-4 -15 0 -20.5t19 -5.5h91l-10 -35h-275l10 35h79q16 0 22.5 5.5t11.5 20.5l159 558q5 13 2 19.5t-20 6.5h-79l11 35h277q100 0 159.5 -45.5
t59.5 -124.5q0 -92 -77 -152.5t-196 -66.5q60 -18 90 -102l28 -74q31 -91 105 -91q52 0 86.5 37t40.5 86h-4q-17 0 -28.5 11.5t-11.5 28.5q0 18 12 29t30 11zM213 318h136q107 0 179 54t72 137q0 65 -46 100.5t-125 35.5h-122zM331 -73q19 0 31.5 -11.5t12.5 -34.5
q0 -43 -36 -80t-90 -50l-7 20q78 26 87 76q-17 1 -29.5 11t-12.5 27q0 18 13 30t31 12z" />
    <glyph glyph-name="T.ss03" horiz-adv-x="612" 
d="M777 805q0 -157 -254 -160h-31l-167 -584q-4 -15 0 -20.5t19 -5.5h116l-10 -35h-337l10 35h116q15 0 22.5 5.5t11.5 20.5l166 584h-75q-113 0 -161 -25t-58 -68q20 2 35 -10t15 -32q0 -17 -12 -28.5t-31 -11.5t-31.5 14t-12.5 37q0 28 9.5 52.5t34 50t78 41t131.5 15.5
h151q208 0 228 94q-20 -2 -34.5 9.5t-14.5 31.5q0 17 12 28.5t30 11.5q19 0 31.5 -13.5t12.5 -36.5z" />
    <glyph glyph-name="Tbar.ss03" horiz-adv-x="612" 
d="M523 645h-31l-89 -313h145l-10 -35h-145l-68 -236q-4 -15 0 -20.5t19 -5.5h116l-10 -35h-337l10 35h116q15 0 22.5 5.5t11.5 20.5l67 236h-147l10 35h147l89 313h-75q-113 0 -161 -25t-58 -68q20 2 35 -10t15 -32q0 -17 -12 -28.5t-31 -11.5t-31.5 14t-12.5 37
q0 28 9.5 52.5t34 50t78 41t131.5 15.5h151q208 0 228 94q-20 -2 -34.5 9.5t-14.5 31.5q0 17 12 28.5t30 11.5q19 0 31.5 -13.5t12.5 -36.5q0 -157 -254 -160z" />
    <glyph glyph-name="Tcaron.ss03" horiz-adv-x="612" 
d="M499 758q-10 0 -17 16l-64 142h26l69 -95l125 95h30l-143 -142q-16 -16 -26 -16zM777 805q0 -157 -254 -160h-31l-167 -584q-4 -15 0 -20.5t19 -5.5h116l-10 -35h-337l10 35h116q15 0 22.5 5.5t11.5 20.5l166 584h-75q-113 0 -161 -25t-58 -68q20 2 35 -10t15 -32
q0 -17 -12 -28.5t-31 -11.5t-31.5 14t-12.5 37q0 28 9.5 52.5t34 50t78 41t131.5 15.5h151q208 0 228 94q-20 -2 -34.5 9.5t-14.5 31.5q0 17 12 28.5t30 11.5q19 0 31.5 -13.5t12.5 -36.5z" />
    <glyph glyph-name="uni0162.ss03" horiz-adv-x="612" 
d="M777 805q0 -157 -254 -160h-31l-167 -584q-4 -15 0 -20.5t19 -5.5h116l-10 -35h-154l-49 -72q49 1 77.5 -18.5t28.5 -51.5q0 -37 -33.5 -63t-81.5 -26q-52 0 -94 30l17 25q35 -25 78 -25q31 0 51.5 16t20.5 41q0 27 -29 38.5t-78 5.5l-7 13l68 87h-152l10 35h116
q15 0 22.5 5.5t11.5 20.5l166 584h-75q-113 0 -161 -25t-58 -68q20 2 35 -10t15 -32q0 -17 -12 -28.5t-31 -11.5t-31.5 14t-12.5 37q0 28 9.5 52.5t34 50t78 41t131.5 15.5h151q208 0 228 94q-20 -2 -34.5 9.5t-14.5 31.5q0 17 12 28.5t30 11.5q19 0 31.5 -13.5t12.5 -36.5z
" />
    <glyph glyph-name="uni021A.ss03" horiz-adv-x="612" 
d="M777 805q0 -157 -254 -160h-31l-167 -584q-4 -15 0 -20.5t19 -5.5h116l-10 -35h-337l10 35h116q15 0 22.5 5.5t11.5 20.5l166 584h-75q-113 0 -161 -25t-58 -68q20 2 35 -10t15 -32q0 -17 -12 -28.5t-31 -11.5t-31.5 14t-12.5 37q0 28 9.5 52.5t34 50t78 41t131.5 15.5
h151q208 0 228 94q-20 -2 -34.5 9.5t-14.5 31.5q0 17 12 28.5t30 11.5q19 0 31.5 -13.5t12.5 -36.5zM270 -73q19 0 31.5 -11.5t12.5 -34.5q0 -43 -36 -80t-90 -50l-7 20q78 26 87 76q-17 1 -29.5 11t-12.5 27q0 18 13 30t31 12z" />
    <glyph glyph-name="Q.ss04" horiz-adv-x="794" 
d="M331 -10q-110 0 -181.5 76t-73.5 193q0 75 26 151t72 138.5t117.5 102t153.5 39.5q110 0 182 -76t73 -193q1 -101 -42.5 -198.5t-130.5 -165t-196 -67.5zM333 25q71 0 132.5 39t99.5 99t59 130.5t20 137.5q-2 97 -58 161t-142 64q-73 0 -134.5 -38.5t-99.5 -99.5
t-58.5 -131.5t-19.5 -137.5q2 -98 58.5 -161t142.5 -63zM287 -57l8 19l313 -76q34 -9 31 -31q-1 -13 -14 -17.5t-29 0.5z" />
    <glyph glyph-name="A.ss08" horiz-adv-x="711" 
d="M613 35h36l-11 -35h-241l11 35h80q34 0 31 31l-11 137h-326l-101 -137q-24 -31 10 -31h82l-11 -35h-234l11 35h38q34 0 60 34l434 582l-2 29h51l56 -613q3 -32 37 -32zM207 236h298l-29 364z" />
    <glyph glyph-name="Aacute.ss08" horiz-adv-x="711" 
d="M695 909q21 -21 -4 -45q-14 -15 -59.5 -49t-84.5 -59h-26q88 119 128 153q25 21 46 0zM576 67q3 -32 37 -32h36l-11 -35h-241l11 35h80q34 0 31 31l-11 137h-326l-101 -137q-24 -31 10 -31h82l-11 -35h-234l11 35h38q34 0 60 34l434 582l-2 29h51zM207 236h298l-29 364z
" />
    <glyph glyph-name="Abreve.ss08" horiz-adv-x="711" 
d="M531 767q-50 0 -73 32t-13 93h31q-4 -82 62 -82q72 0 116 82h34q-24 -61 -66 -93t-91 -32zM576 67q3 -32 37 -32h36l-11 -35h-241l11 35h80q34 0 31 31l-11 137h-326l-101 -137q-24 -31 10 -31h82l-11 -35h-234l11 35h38q34 0 60 34l434 582l-2 29h51zM207 236h298
l-29 364z" />
    <glyph glyph-name="Acircumflex.ss08" horiz-adv-x="711" 
d="M559 853l-125 -95h-30l143 142q16 16 26 16t17 -16l64 -142h-26zM576 67q3 -32 37 -32h36l-11 -35h-241l11 35h80q34 0 31 31l-11 137h-326l-101 -137q-24 -31 10 -31h82l-11 -35h-234l11 35h38q34 0 60 34l434 582l-2 29h51zM207 236h298l-29 364z" />
    <glyph glyph-name="Adieresis.ss08" horiz-adv-x="711" 
d="M444 765q-19 0 -31 12t-12 31t12 31.5t31 12.5t31 -12.5t12 -31.5t-12 -31t-31 -12zM635 852q19 0 31 -12.5t12 -31.5t-12 -31t-31 -12t-31 12t-12 31t12 31.5t31 12.5zM576 67q3 -32 37 -32h36l-11 -35h-241l11 35h80q34 0 31 31l-11 137h-326l-101 -137q-24 -31 10 -31
h82l-11 -35h-234l11 35h38q34 0 60 34l434 582l-2 29h51zM207 236h298l-29 364z" />
    <glyph glyph-name="Agrave.ss08" horiz-adv-x="711" 
d="M527 754h-21q-20 25 -41.5 69t-21.5 66q0 14 9 22t20 8q23 0 31 -26q15 -44 24 -139zM613 35h36l-11 -35h-241l11 35h80q34 0 31 31l-11 137h-326l-101 -137q-24 -31 10 -31h82l-11 -35h-234l11 35h38q34 0 60 34l434 582l-2 29h51l56 -613q3 -32 37 -32zM207 236h298
l-29 364z" />
    <glyph glyph-name="Amacron.ss08" horiz-adv-x="711" 
d="M419 822h255l-12 -41h-255zM576 67q3 -32 37 -32h36l-11 -35h-241l11 35h80q34 0 31 31l-11 137h-326l-101 -137q-24 -31 10 -31h82l-11 -35h-234l11 35h38q34 0 60 34l434 582l-2 29h51zM207 236h298l-29 364z" />
    <glyph glyph-name="Aogonek.ss08" horiz-adv-x="711" 
d="M548 0q-59 -54 -79.5 -81.5t-20.5 -53.5q0 -43 47 -43q26 0 65 18l-11 -38q-33 -18 -70 -18q-36 0 -56 17t-20 49q0 33 22.5 64t87.5 86h-116l11 35h80q34 0 31 31l-11 137h-326l-101 -137q-24 -31 10 -31h82l-11 -35h-234l11 35h38q34 0 60 34l434 582l-2 29h51l56 -613
q3 -32 37 -32h36l-11 -35h-90zM207 236h298l-29 364z" />
    <glyph glyph-name="Aring.ss08" horiz-adv-x="711" 
d="M538 738q-39 0 -63.5 23.5t-24.5 57.5q0 45 33 76t77 31q39 0 63 -23t24 -58q0 -45 -32.5 -76t-76.5 -31zM557 897q-30 0 -51.5 -23t-21.5 -53q0 -23 16 -37.5t41 -14.5q29 0 50.5 21.5t21.5 53.5q0 23 -15.5 38t-40.5 15zM613 35h36l-11 -35h-241l11 35h80q34 0 31 31
l-11 137h-326l-101 -137q-24 -31 10 -31h82l-11 -35h-234l11 35h38q34 0 60 34l434 582l-2 29h51l56 -613q3 -32 37 -32zM207 236h298l-29 364z" />
    <glyph glyph-name="Atilde.ss08" horiz-adv-x="711" 
d="M669 847l27 -5q-26 -89 -91 -89q-31 0 -70.5 33t-62.5 33q-21 0 -33 -14t-23 -41l-26 9q25 87 91 87q26 0 50 -16.5t45.5 -33t39.5 -16.5q34 0 53 53zM576 67q3 -32 37 -32h36l-11 -35h-241l11 35h80q34 0 31 31l-11 137h-326l-101 -137q-24 -31 10 -31h82l-11 -35h-234
l11 35h38q34 0 60 34l434 582l-2 29h51zM207 236h298l-29 364z" />
    <glyph glyph-name="i.loclTRK" horiz-adv-x="312" 
d="M259 585q-19 0 -31 12t-12 31t12 31.5t31 12.5t31 -12.5t12 -31.5t-12 -31t-31 -12zM256 160h30q-57 -170 -140 -170q-41 0 -59.5 32.5t-1.5 82.5l97 287q12 36 5.5 56t-29.5 20q-27 0 -50.5 -31t-47.5 -100h-30q57 170 143 170q41 0 58.5 -32t-0.5 -83l-100 -296
q-10 -28 -1.5 -47t30.5 -19q51 0 96 130z" />
    <glyph glyph-name="k.fina" horiz-adv-x="738" 
d="M124 680h129l-195 -680h-49l177 619q5 15 1 20.5t-19 5.5h-54zM656 227q21 0 34.5 -16.5t13.5 -41.5q0 -65 -59.5 -122t-150.5 -57q-144 0 -228 151l-76 135q12 13 47 50t47.5 50t41 40.5t44 38.5t39 26t43.5 20.5t40 5.5q34 0 49 -14.5t15 -36.5q0 -20 -13 -33.5
t-32 -13.5q-17 0 -28.5 11t-11.5 27q0 19 14 28q-11 0 -22.5 -3.5t-25 -11t-24.5 -15t-26.5 -21t-26.5 -23.5t-29 -28t-28 -29t-30 -32t-30 -31l79 -138q67 -118 178 -118q65 0 112 37.5t55 86.5q-21 -3 -37 9t-16 31q0 16 12 27t30 11z" />
    <glyph glyph-name="kcommaaccent.fina" horiz-adv-x="738" 
d="M124 680h129l-195 -680h-49l177 619q5 15 1 20.5t-19 5.5h-54zM656 227q21 0 34.5 -16.5t13.5 -41.5q0 -65 -59.5 -122t-150.5 -57q-144 0 -228 151l-76 135q12 13 47 50t47.5 50t41 40.5t44 38.5t39 26t43.5 20.5t40 5.5q34 0 49 -14.5t15 -36.5q0 -20 -13 -33.5
t-32 -13.5q-17 0 -28.5 11t-11.5 27q0 19 14 28q-11 0 -22.5 -3.5t-25 -11t-24.5 -15t-26.5 -21t-26.5 -23.5t-29 -28t-28 -29t-30 -32t-30 -31l79 -138q67 -118 178 -118q65 0 112 37.5t55 86.5q-21 -3 -37 9t-16 31q0 16 12 27t30 11zM230 -73q19 0 31.5 -11.5t12.5 -34.5
q0 -43 -36 -80t-90 -50l-7 20q78 26 87 76q-17 1 -29.5 11t-12.5 27q0 18 13 30t31 12z" />
    <glyph glyph-name="y.ss02" horiz-adv-x="547" 
d="M498 500h55l-136 -473q-29 -101 -103 -159t-161 -58q-71 0 -112.5 28t-41.5 68q0 22 13 37t32 15q16 0 27 -10t11 -26q0 -17 -12.5 -28.5t-31.5 -13.5q16 -40 110 -40q73 0 133.5 49.5t86.5 137.5l70 229h-3q-51 -129 -106 -197t-128 -68q-67 0 -93 51.5t3 148.5l70 212
q9 25 0.5 45.5t-31.5 20.5q-49 0 -95 -130h-29q57 168 136 168q43 0 61.5 -31.5t3.5 -81.5l-65 -198q-26 -79 -11.5 -121t64.5 -42q42 0 81.5 35t75 101t65.5 145.5t61 185.5z" />
    <glyph glyph-name="yacute.ss02" horiz-adv-x="547" 
d="M559 729q21 -21 -4 -45q-14 -15 -59.5 -49t-84.5 -59h-26q88 119 128 153q25 21 46 0zM215 33q42 0 81.5 35t75 101t65.5 145.5t61 185.5h55l-136 -473q-29 -101 -103 -159t-161 -58q-71 0 -112.5 28t-41.5 68q0 22 13 37t32 15q16 0 27 -10t11 -26q0 -17 -12.5 -28.5
t-31.5 -13.5q16 -40 110 -40q73 0 133.5 49.5t86.5 137.5l70 229h-3q-51 -129 -106 -197t-128 -68q-67 0 -93 51.5t3 148.5l70 212q9 25 0.5 45.5t-31.5 20.5q-49 0 -95 -130h-29q57 168 136 168q43 0 61.5 -31.5t3.5 -81.5l-65 -198q-26 -79 -11.5 -121t64.5 -42z" />
    <glyph glyph-name="ycircumflex.ss02" horiz-adv-x="547" 
d="M298 578h-30l143 142q16 16 26 16t17 -16l64 -142h-26l-69 95zM498 500h55l-136 -473q-29 -101 -103 -159t-161 -58q-71 0 -112.5 28t-41.5 68q0 22 13 37t32 15q16 0 27 -10t11 -26q0 -17 -12.5 -28.5t-31.5 -13.5q16 -40 110 -40q73 0 133.5 49.5t86.5 137.5l70 229h-3
q-51 -129 -106 -197t-128 -68q-67 0 -93 51.5t3 148.5l70 212q9 25 0.5 45.5t-31.5 20.5q-49 0 -95 -130h-29q57 168 136 168q43 0 61.5 -31.5t3.5 -81.5l-65 -198q-26 -79 -11.5 -121t64.5 -42q42 0 81.5 35t75 101t65.5 145.5t61 185.5z" />
    <glyph glyph-name="ydieresis.ss02" horiz-adv-x="547" 
d="M308 585q-19 0 -31 12t-12 31t12 31.5t31 12.5t31 -12.5t12 -31.5t-12 -31t-31 -12zM499 585q-19 0 -31 12t-12 31t12 31.5t31 12.5t31 -12.5t12 -31.5t-12 -31t-31 -12zM498 500h55l-136 -473q-29 -101 -103 -159t-161 -58q-71 0 -112.5 28t-41.5 68q0 22 13 37t32 15
q16 0 27 -10t11 -26q0 -17 -12.5 -28.5t-31.5 -13.5q16 -40 110 -40q73 0 133.5 49.5t86.5 137.5l70 229h-3q-51 -129 -106 -197t-128 -68q-67 0 -93 51.5t3 148.5l70 212q9 25 0.5 45.5t-31.5 20.5q-49 0 -95 -130h-29q57 168 136 168q43 0 61.5 -31.5t3.5 -81.5l-65 -198
q-26 -79 -11.5 -121t64.5 -42q42 0 81.5 35t75 101t65.5 145.5t61 185.5z" />
    <glyph glyph-name="ygrave.ss02" horiz-adv-x="547" 
d="M391 574h-21q-20 25 -41.5 69t-21.5 66q0 14 9 22t20 8q23 0 31 -26q15 -44 24 -139zM498 500h55l-136 -473q-29 -101 -103 -159t-161 -58q-71 0 -112.5 28t-41.5 68q0 22 13 37t32 15q16 0 27 -10t11 -26q0 -17 -12.5 -28.5t-31.5 -13.5q16 -40 110 -40q73 0 133.5 49.5
t86.5 137.5l70 229h-3q-51 -129 -106 -197t-128 -68q-67 0 -93 51.5t3 148.5l70 212q9 25 0.5 45.5t-31.5 20.5q-49 0 -95 -130h-29q57 168 136 168q43 0 61.5 -31.5t3.5 -81.5l-65 -198q-26 -79 -11.5 -121t64.5 -42q42 0 81.5 35t75 101t65.5 145.5t61 185.5z" />
    <glyph glyph-name="f_f_t" horiz-adv-x="915" 
d="M779 465l-100 -349q-12 -40 1 -63t43 -23q32 0 62.5 33t53.5 97h29q-57 -170 -155 -170q-50 0 -74 35t-8 94l100 346h-224l-145 -504q-43 -151 -160 -151q-42 0 -69.5 21t-27.5 54q0 21 12 34.5t31 13.5q17 0 28.5 -11t11.5 -27q0 -17 -11.5 -27.5t-29.5 -10.5h-4
q21 -18 54 -18q45 0 72 30t44 92l145 504h-229l-145 -504q-43 -151 -160 -151q-42 0 -69.5 21t-27.5 54q0 21 12 34.5t31 13.5q17 0 28.5 -11t11.5 -27q0 -17 -11.5 -27.5t-29.5 -10.5h-4q21 -18 54 -18q45 0 72 30t44 92l145 504h-95l9 35h71q14 0 20 4.5t10 16.5l12 36
q48 133 160 133q40 0 68 -21.5t28 -53.5q0 -20 -12.5 -34t-31.5 -14q-17 0 -28 11t-11 27q0 36 39 38q-17 17 -47 17q-81 0 -116 -106l-17 -54h204q14 0 20 4.5t10 16.5l12 36q48 133 160 133q40 0 68 -21.5t28 -53.5q0 -20 -12.5 -34t-31.5 -14q-17 0 -28 11t-11 27
q0 36 39 38q-17 17 -47 17q-81 0 -116 -106l-17 -54h225l51 100h25l-29 -100h178l-10 -35h-178z" />
    <glyph glyph-name="a.smcp" horiz-adv-x="592" 
d="M499 33h29l-8 -33h-206l9 33h69q15 0 21 5.5t5 17.5l-13 99h-274l-73 -99q-17 -23 9 -23h66l-9 -33h-195l8 33h32q29 0 48 25l351 472h34l66 -473q4 -24 31 -24zM154 186h247l-36 285z" />
    <glyph glyph-name="aacute.smcp" horiz-adv-x="592" 
d="M574 759q20 -21 -4 -45q-14 -15 -59.5 -49t-84.5 -59h-26q88 119 128 153q25 21 46 0zM468 57q4 -24 31 -24h29l-8 -33h-206l9 33h69q15 0 21 5.5t5 17.5l-13 99h-274l-73 -99q-17 -23 9 -23h66l-9 -33h-195l8 33h32q29 0 48 25l351 472h34zM154 186h247l-36 285z" />
    <glyph glyph-name="abreve.smcp" horiz-adv-x="592" 
d="M567 742q-24 -61 -66 -93t-91 -32q-50 0 -73 32t-13 93h31q-4 -82 62 -82q72 0 116 82h34zM499 33h29l-8 -33h-206l9 33h69q15 0 21 5.5t5 17.5l-13 99h-274l-73 -99q-17 -23 9 -23h66l-9 -33h-195l8 33h32q29 0 48 25l351 472h34l66 -473q4 -24 31 -24zM154 186h247
l-36 285z" />
    <glyph glyph-name="acircumflex.smcp" horiz-adv-x="592" 
d="M313 608h-30l143 142q16 16 26 16t17 -16l64 -142h-26l-69 95zM499 33h29l-8 -33h-206l9 33h69q15 0 21 5.5t5 17.5l-13 99h-274l-73 -99q-17 -23 9 -23h66l-9 -33h-195l8 33h32q29 0 48 25l351 472h34l66 -473q4 -24 31 -24zM154 186h247l-36 285z" />
    <glyph glyph-name="adieresis.smcp" horiz-adv-x="592" 
d="M323 615q-19 0 -31 12t-12 31t12 31.5t31 12.5t31 -12.5t12 -31.5t-12 -31t-31 -12zM514 615q-19 0 -31 12t-12 31t12 31.5t31 12.5t31 -12.5t12 -31.5t-12 -31t-31 -12zM499 33h29l-8 -33h-206l9 33h69q15 0 21 5.5t5 17.5l-13 99h-274l-73 -99q-17 -23 9 -23h66l-9 -33
h-195l8 33h32q29 0 48 25l351 472h34l66 -473q4 -24 31 -24zM154 186h247l-36 285z" />
    <glyph glyph-name="agrave.smcp" horiz-adv-x="592" 
d="M406 604h-21q-20 25 -41.5 69t-21.5 66q0 14 9 22t20 8q23 0 31 -26q15 -44 24 -139zM499 33h29l-8 -33h-206l9 33h69q15 0 21 5.5t5 17.5l-13 99h-274l-73 -99q-17 -23 9 -23h66l-9 -33h-195l8 33h32q29 0 48 25l351 472h34l66 -473q4 -24 31 -24zM154 186h247l-36 285z
" />
    <glyph glyph-name="amacron.smcp" horiz-adv-x="592" 
d="M298 672h255l-12 -41h-255zM499 33h29l-8 -33h-206l9 33h69q15 0 21 5.5t5 17.5l-13 99h-274l-73 -99q-17 -23 9 -23h66l-9 -33h-195l8 33h32q29 0 48 25l351 472h34l66 -473q4 -24 31 -24zM154 186h247l-36 285z" />
    <glyph glyph-name="aogonek.smcp" horiz-adv-x="592" 
d="M446 0q-62 -57 -83 -84t-21 -53q0 -43 48 -43q29 0 65 19l-10 -39q-34 -17 -70 -17t-56 17t-20 50q0 32 23.5 62.5t90.5 87.5h-99l9 33h69q15 0 21 5.5t5 17.5l-13 99h-274l-73 -99q-17 -23 9 -23h66l-9 -33h-195l8 33h32q29 0 48 25l351 472h34l66 -473q4 -24 31 -24h29
l-8 -33h-74zM154 186h247l-36 285z" />
    <glyph glyph-name="aring.smcp" horiz-adv-x="592" 
d="M417 588q-39 0 -63.5 23.5t-24.5 57.5q0 45 33 76t77 31q39 0 63 -23t24 -58q0 -45 -32.5 -76t-76.5 -31zM420 619q29 0 50.5 21.5t21.5 53.5q0 23 -15.5 38t-40.5 15q-30 0 -51.5 -23t-21.5 -53q0 -23 16 -37.5t41 -14.5zM499 33h29l-8 -33h-206l9 33h69q15 0 21 5.5
t5 17.5l-13 99h-274l-73 -99q-17 -23 9 -23h66l-9 -33h-195l8 33h32q29 0 48 25l351 472h34l66 -473q4 -24 31 -24zM154 186h247l-36 285z" />
    <glyph glyph-name="atilde.smcp" horiz-adv-x="592" 
d="M575 692q-26 -89 -91 -89q-31 0 -70.5 33t-62.5 33q-21 0 -33 -14t-23 -41l-26 9q25 87 91 87q32 0 73 -33t62 -33q34 0 53 53zM499 33h29l-8 -33h-206l9 33h69q15 0 21 5.5t5 17.5l-13 99h-274l-73 -99q-17 -23 9 -23h66l-9 -33h-195l8 33h32q29 0 48 25l351 472h34
l66 -473q4 -24 31 -24zM154 186h247l-36 285z" />
    <glyph glyph-name="ae.smcp" horiz-adv-x="827" 
d="M351 530h468l-36 -127h-34q14 59 11 72q-8 22 -57 22h-184l-73 -250h131q11 0 19 2.5t12.5 5t9.5 11t7 12.5t6.5 17.5t6.5 17.5h30l-46 -164h-30q1 4 2.5 11.5t2.5 11t2 9.5t1 8.5v7t-1.5 6.5t-4 5t-6 4t-8.5 2t-12 1h-130l-54 -182h206q48 0 65 17.5t34 66.5q3 8 4 12
h34l-37 -129h-449l9 33h64q12 0 17 3.5t9 15.5l30 103h-217l-95 -98q-23 -24 10 -24h68l-8 -33h-200l9 33h29q15 0 23.5 5.5t23.5 21.5l412 422q14 15 -12 15h-71zM379 186l84 289l-280 -289h196z" />
    <glyph glyph-name="b.smcp" horiz-adv-x="518" 
d="M507 411q0 -59 -51 -98.5t-131 -44.5q59 -6 93 -36.5t34 -80.5q0 -65 -61.5 -108t-154.5 -43h-269l8 33h61q13 0 18 3t8 13l125 426q7 22 -13 22h-67l8 33h228q73 0 118.5 -33t45.5 -86zM281 286q75 0 125.5 34.5t50.5 87.5q0 41 -33 65t-88 24h-92l-63 -211h100z
M403 154q0 46 -36.5 72.5t-92.5 26.5h-102l-64 -220h118q77 0 127 34.5t50 86.5z" />
    <glyph glyph-name="c.smcp" horiz-adv-x="594" 
d="M365 538q84 0 137.5 -41.5t53.5 -110.5q0 -52 -40 -52q-15 0 -26 9t-11 24t11.5 25.5t29.5 10.5h1q-5 43 -47 72.5t-105 29.5q-112 0 -185.5 -91.5t-73.5 -207.5q0 -86 45.5 -133t121.5 -47q120 0 202 133h33q-87 -167 -241 -167q-94 0 -154 59t-60 161q0 129 88.5 227.5
t219.5 98.5z" />
    <glyph glyph-name="cacute.smcp" horiz-adv-x="594" 
d="M561 759q21 -21 -4 -45q-14 -15 -59.5 -49t-84.5 -59h-26q88 119 128 153q25 21 46 0zM365 538q84 0 137.5 -41.5t53.5 -110.5q0 -52 -40 -52q-15 0 -26 9t-11 24t11.5 25.5t29.5 10.5h1q-5 43 -47 72.5t-105 29.5q-112 0 -185.5 -91.5t-73.5 -207.5q0 -86 45.5 -133
t121.5 -47q120 0 202 133h33q-87 -167 -241 -167q-94 0 -154 59t-60 161q0 129 88.5 227.5t219.5 98.5z" />
    <glyph glyph-name="ccaron.smcp" horiz-adv-x="594" 
d="M422 608q-10 0 -17 16l-64 142h26l69 -95l125 95h30l-143 -142q-16 -16 -26 -16zM365 538q84 0 137.5 -41.5t53.5 -110.5q0 -52 -40 -52q-15 0 -26 9t-11 24t11.5 25.5t29.5 10.5h1q-5 43 -47 72.5t-105 29.5q-112 0 -185.5 -91.5t-73.5 -207.5q0 -86 45.5 -133
t121.5 -47q120 0 202 133h33q-87 -167 -241 -167q-94 0 -154 59t-60 161q0 129 88.5 227.5t219.5 98.5z" />
    <glyph glyph-name="ccedilla.smcp" horiz-adv-x="594" 
d="M365 538q84 0 137.5 -41.5t53.5 -110.5q0 -52 -40 -52q-15 0 -26 9t-11 24t11.5 25.5t29.5 10.5h1q-5 43 -47 72.5t-105 29.5q-112 0 -185.5 -91.5t-73.5 -207.5q0 -86 45.5 -133t121.5 -47q120 0 202 133h33q-87 -167 -241 -167q-13 0 -19 1l-44 -65q49 1 77.5 -18.5
t28.5 -51.5q0 -37 -33.5 -63t-81.5 -26q-52 0 -94 30l17 25q35 -25 78 -25q31 0 51.5 16t20.5 41q0 27 -29 38.5t-78 5.5l-7 13l65 83q-75 15 -120.5 71.5t-45.5 144.5q0 129 88.5 227.5t219.5 98.5z" />
    <glyph glyph-name="cdotaccent.smcp" horiz-adv-x="594" 
d="M411 615q-19 0 -31 12t-12 31t12 31.5t31 12.5t31 -12.5t12 -31.5t-12 -31t-31 -12zM365 538q84 0 137.5 -41.5t53.5 -110.5q0 -52 -40 -52q-15 0 -26 9t-11 24t11.5 25.5t29.5 10.5h1q-5 43 -47 72.5t-105 29.5q-112 0 -185.5 -91.5t-73.5 -207.5q0 -86 45.5 -133
t121.5 -47q120 0 202 133h33q-87 -167 -241 -167q-94 0 -154 59t-60 161q0 129 88.5 227.5t219.5 98.5z" />
    <glyph glyph-name="d.smcp" horiz-adv-x="607" 
d="M316 530q112 0 178.5 -57.5t66.5 -150.5q0 -133 -105 -227.5t-253 -94.5h-239l8 33h64q20 0 25 16l125 427q3 12 -0.5 16.5t-14.5 4.5h-65l9 33h201zM212 33q123 0 209.5 85t86.5 204q0 79 -52 127t-146 48h-68l-136 -464h106z" />
    <glyph glyph-name="eth.smcp" horiz-adv-x="607" 
d="M316 530q112 0 178.5 -57.5t66.5 -150.5q0 -133 -105 -227.5t-253 -94.5h-239l8 33h64q20 0 25 16l57 195h-80l9 33h81l58 199q3 12 -0.5 16.5t-14.5 4.5h-65l9 33h201zM212 33q123 0 209.5 85t86.5 204q0 79 -52 127t-146 48h-68l-64 -220h175l-10 -33h-175l-62 -211
h106z" />
    <glyph glyph-name="dcaron.smcp" horiz-adv-x="607" 
d="M513 766h30l-143 -142q-16 -16 -26 -16t-17 16l-64 142h26l69 -95zM316 530q112 0 178.5 -57.5t66.5 -150.5q0 -133 -105 -227.5t-253 -94.5h-239l8 33h64q20 0 25 16l125 427q3 12 -0.5 16.5t-14.5 4.5h-65l9 33h201zM212 33q123 0 209.5 85t86.5 204q0 79 -52 127
t-146 48h-68l-136 -464h106z" />
    <glyph glyph-name="dcroat.smcp" horiz-adv-x="607" 
d="M316 530q112 0 178.5 -57.5t66.5 -150.5q0 -133 -105 -227.5t-253 -94.5h-239l8 33h64q20 0 25 16l57 195h-80l9 33h81l58 199q3 12 -0.5 16.5t-14.5 4.5h-65l9 33h201zM212 33q123 0 209.5 85t86.5 204q0 79 -52 127t-146 48h-68l-64 -220h175l-10 -33h-175l-62 -211
h106z" />
    <glyph glyph-name="e.smcp" horiz-adv-x="548" 
d="M413 129h34l-36 -129h-448l9 33h63q12 0 17 4t9 16l124 425q3 12 -0.5 15.5t-15.5 3.5h-62l9 33h447l-36 -127h-34q1 6 4 18.5t4 17t3 14t1 12.5t-1.5 10t-3.5 9t-7 6t-10.5 5t-15 2t-19.5 1h-207l-73 -249h129q9 0 16 1t12.5 5.5t9 6.5t7.5 10.5t5.5 11.5t6 14.5
t5.5 15.5h30l-46 -163h-31q1 4 3 12.5t2.5 11.5t2 10t1 9.5t-1.5 7t-3.5 6.5t-6 4t-9 3t-12.5 1h-128l-54 -183h207q12 0 22 0.5t18 4t13.5 5t11 9t8.5 10t7.5 14t6 14.5t6.5 18.5t7 20.5z" />
    <glyph glyph-name="eacute.smcp" horiz-adv-x="548" 
d="M366 606q88 119 128 153q25 21 46 0q20 -21 -4 -45q-14 -15 -59.5 -49t-84.5 -59h-26zM413 129h34l-36 -129h-448l9 33h63q12 0 17 4t9 16l124 425q3 12 -0.5 15.5t-15.5 3.5h-62l9 33h447l-36 -127h-34q1 6 4 18.5t4 17t3 14t1 12.5t-1.5 10t-3.5 9t-7 6t-10.5 5t-15 2
t-19.5 1h-207l-73 -249h129q9 0 16 1t12.5 5.5t9 6.5t7.5 10.5t5.5 11.5t6 14.5t5.5 15.5h30l-46 -163h-31q1 4 3 12.5t2.5 11.5t2 10t1 9.5t-1.5 7t-3.5 6.5t-6 4t-9 3t-12.5 1h-128l-54 -183h207q12 0 22 0.5t18 4t13.5 5t11 9t8.5 10t7.5 14t6 14.5t6.5 18.5t7 20.5z" />
    <glyph glyph-name="ecaron.smcp" horiz-adv-x="548" 
d="M515 766h30l-143 -142q-16 -16 -26 -16t-17 16l-64 142h26l69 -95zM413 129h34l-36 -129h-448l9 33h63q12 0 17 4t9 16l124 425q3 12 -0.5 15.5t-15.5 3.5h-62l9 33h447l-36 -127h-34q1 6 4 18.5t4 17t3 14t1 12.5t-1.5 10t-3.5 9t-7 6t-10.5 5t-15 2t-19.5 1h-207
l-73 -249h129q9 0 16 1t12.5 5.5t9 6.5t7.5 10.5t5.5 11.5t6 14.5t5.5 15.5h30l-46 -163h-31q1 4 3 12.5t2.5 11.5t2 10t1 9.5t-1.5 7t-3.5 6.5t-6 4t-9 3t-12.5 1h-128l-54 -183h207q12 0 22 0.5t18 4t13.5 5t11 9t8.5 10t7.5 14t6 14.5t6.5 18.5t7 20.5z" />
    <glyph glyph-name="ecircumflex.smcp" horiz-adv-x="548" 
d="M279 608h-30l143 142q16 16 26 16t17 -16l64 -142h-26l-69 95zM413 129h34l-36 -129h-448l9 33h63q12 0 17 4t9 16l124 425q3 12 -0.5 15.5t-15.5 3.5h-62l9 33h447l-36 -127h-34q1 6 4 18.5t4 17t3 14t1 12.5t-1.5 10t-3.5 9t-7 6t-10.5 5t-15 2t-19.5 1h-207l-73 -249
h129q9 0 16 1t12.5 5.5t9 6.5t7.5 10.5t5.5 11.5t6 14.5t5.5 15.5h30l-46 -163h-31q1 4 3 12.5t2.5 11.5t2 10t1 9.5t-1.5 7t-3.5 6.5t-6 4t-9 3t-12.5 1h-128l-54 -183h207q12 0 22 0.5t18 4t13.5 5t11 9t8.5 10t7.5 14t6 14.5t6.5 18.5t7 20.5z" />
    <glyph glyph-name="edieresis.smcp" horiz-adv-x="548" 
d="M289 615q-19 0 -31 12t-12 31t12 31.5t31 12.5t31 -12.5t12 -31.5t-12 -31t-31 -12zM480 615q-19 0 -31 12t-12 31t12 31.5t31 12.5t31 -12.5t12 -31.5t-12 -31t-31 -12zM413 129h34l-36 -129h-448l9 33h63q12 0 17 4t9 16l124 425q3 12 -0.5 15.5t-15.5 3.5h-62l9 33
h447l-36 -127h-34q1 6 4 18.5t4 17t3 14t1 12.5t-1.5 10t-3.5 9t-7 6t-10.5 5t-15 2t-19.5 1h-207l-73 -249h129q9 0 16 1t12.5 5.5t9 6.5t7.5 10.5t5.5 11.5t6 14.5t5.5 15.5h30l-46 -163h-31q1 4 3 12.5t2.5 11.5t2 10t1 9.5t-1.5 7t-3.5 6.5t-6 4t-9 3t-12.5 1h-128
l-54 -183h207q12 0 22 0.5t18 4t13.5 5t11 9t8.5 10t7.5 14t6 14.5t6.5 18.5t7 20.5z" />
    <glyph glyph-name="edotaccent.smcp" horiz-adv-x="548" 
d="M390 615q-19 0 -31 12t-12 31t12 31.5t31 12.5t31 -12.5t12 -31.5t-12 -31t-31 -12zM413 129h34l-36 -129h-448l9 33h63q12 0 17 4t9 16l124 425q3 12 -0.5 15.5t-15.5 3.5h-62l9 33h447l-36 -127h-34q1 6 4 18.5t4 17t3 14t1 12.5t-1.5 10t-3.5 9t-7 6t-10.5 5t-15 2
t-19.5 1h-207l-73 -249h129q9 0 16 1t12.5 5.5t9 6.5t7.5 10.5t5.5 11.5t6 14.5t5.5 15.5h30l-46 -163h-31q1 4 3 12.5t2.5 11.5t2 10t1 9.5t-1.5 7t-3.5 6.5t-6 4t-9 3t-12.5 1h-128l-54 -183h207q12 0 22 0.5t18 4t13.5 5t11 9t8.5 10t7.5 14t6 14.5t6.5 18.5t7 20.5z" />
    <glyph glyph-name="egrave.smcp" horiz-adv-x="548" 
d="M372 604h-21q-20 25 -41.5 69t-21.5 66q0 14 9 22t20 8q23 0 31 -26q15 -44 24 -139zM413 129h34l-36 -129h-448l9 33h63q12 0 17 4t9 16l124 425q3 12 -0.5 15.5t-15.5 3.5h-62l9 33h447l-36 -127h-34q1 6 4 18.5t4 17t3 14t1 12.5t-1.5 10t-3.5 9t-7 6t-10.5 5t-15 2
t-19.5 1h-207l-73 -249h129q9 0 16 1t12.5 5.5t9 6.5t7.5 10.5t5.5 11.5t6 14.5t5.5 15.5h30l-46 -163h-31q1 4 3 12.5t2.5 11.5t2 10t1 9.5t-1.5 7t-3.5 6.5t-6 4t-9 3t-12.5 1h-128l-54 -183h207q12 0 22 0.5t18 4t13.5 5t11 9t8.5 10t7.5 14t6 14.5t6.5 18.5t7 20.5z" />
    </font>
</defs>
</svg>
