<?xml version="1.0" standalone="no"?>
<!DOCTYPE svg PUBLIC "-//W3C//DTD SVG 1.1//EN" "http://www.w3.org/Graphics/SVG/1.1/DTD/svg11.dtd" >
<svg xmlns="http://www.w3.org/2000/svg" xmlns:xlink="http://www.w3.org/1999/xlink" version="1.1">
<metadata>
Created by FontForge 20170731 at Tue Oct  4 10:50:58 2016
 By Aleksey,,,
Copyright (c) 2016 by Rene' Bieder. All rights reserved.
</metadata>
<defs>
<font id="Sagona-Book" horiz-adv-x="600" >
  <font-face 
    font-family="Sagona Book"
    font-weight="400"
    font-stretch="normal"
    units-per-em="1000"
    panose-1="2 1 0 4 4 1 1 1 1 3"
    ascent="800"
    descent="-200"
    x-height="500"
    cap-height="680"
    bbox="-225 -272 1697 930"
    underline-thickness="50"
    underline-position="-250"
    unicode-range="U+0020-FB02"
  />
<missing-glyph horiz-adv-x="696" 
d="M100 680h496v-680h-496v680zM503 630h-353v-549zM192 50h354v551z" />
    <glyph glyph-name="arrowleft" unicode="&#x3c;&#x2014;" horiz-adv-x="854" 
d="M321 574l12 -9l-82 -202q15 1 88.5 5.5t137.5 4.5h310v-60h-310q-64 0 -137.5 4.5t-88.5 5.5l82 -201l-12 -9l-270 220v20z" />
    <glyph glyph-name="arrowright" unicode="&#x2d;&#x3e;" horiz-adv-x="854" 
d="M517 574l270 -221v-20l-270 -220l-12 9l82 201q-15 -1 -88.5 -5.5t-137.5 -4.5h-310v60h310q64 0 137.5 -4.5t88.5 -5.5l-82 202z" />
    <glyph glyph-name="arrowboth" unicode="&#x3c;&#x2014;&#x3e;" horiz-adv-x="978" 
d="M641 574l270 -221v-20l-270 -220l-12 9l82 201q-31 -1 -89.5 -5.5t-96.5 -4.5h-88q-38 0 -96.5 4.5t-89.5 5.5l82 -201l-12 -9l-270 220v20l270 221l12 -9l-82 -202q31 1 89.5 5.5t96.5 4.5h88q38 0 96.5 -4.5t89.5 -5.5l-82 202z" />
    <glyph glyph-name="f_f" unicode="ff" horiz-adv-x="774" 
d="M697 591q0 20 12.5 33.5t34.5 15.5q-23 10 -51 10q-98 0 -98 -120v-30h168v-50h-168v-369q0 -31 31 -31h84v-50h-288v50h64q31 0 31 31v369h-294v-369q0 -31 31 -31h84v-50h-288v50h64q31 0 31 31v369h-105v50h74q31 0 31 31v-1q0 74 44.5 117t115.5 43q55 0 93 -24
t38 -65q0 -27 -16 -44.5t-41 -17.5q-23 0 -38.5 15t-15.5 37q0 20 12.5 33.5t34.5 15.5q-23 10 -51 10q-98 0 -98 -120v-30h263q31 0 31 31v-1q0 74 44.5 117t115.5 43q55 0 93 -24t38 -65q0 -27 -16 -44.5t-41 -17.5q-23 0 -38.5 15t-15.5 37z" />
    <glyph glyph-name="f_f_f" unicode="fff" horiz-adv-x="1146" 
d="M1069 591q0 20 12.5 33.5t34.5 15.5q-23 10 -51 10q-98 0 -98 -120v-30h168v-50h-168v-369q0 -31 31 -31h84v-50h-288v50h64q31 0 31 31v369h-294v-369q0 -31 31 -31h84v-50h-288v50h64q31 0 31 31v369h-294v-369q0 -31 31 -31h84v-50h-288v50h64q31 0 31 31v369h-105v50
h74q31 0 31 31v-1q0 74 44.5 117t115.5 43q55 0 93 -24t38 -65q0 -27 -16 -44.5t-41 -17.5q-23 0 -38.5 15t-15.5 37q0 20 12.5 33.5t34.5 15.5q-23 10 -51 10q-98 0 -98 -120v-30h263q31 0 31 31v-1q0 74 44.5 117t115.5 43q55 0 93 -24t38 -65q0 -27 -16 -44.5t-41 -17.5
q-23 0 -38.5 15t-15.5 37q0 20 12.5 33.5t34.5 15.5q-23 10 -51 10q-98 0 -98 -120v-30h263q31 0 31 31v-1q0 74 44.5 117t115.5 43q55 0 93 -24t38 -65q0 -27 -16 -44.5t-41 -17.5q-23 0 -38.5 15t-15.5 37z" />
    <glyph glyph-name=".notdef" horiz-adv-x="696" 
d="M100 680h496v-680h-496v680zM503 630h-353v-549zM192 50h354v551z" />
    <glyph glyph-name=".null" horiz-adv-x="0" 
 />
    <glyph glyph-name="nonmarkingreturn" horiz-adv-x="333" 
 />
    <glyph glyph-name="space" unicode=" " horiz-adv-x="180" 
 />
    <glyph glyph-name="exclam" unicode="!" horiz-adv-x="292" 
d="M128 234q-4 54 -13 147.5t-15.5 164t-6.5 87.5q0 31 14 49t39 18t39 -18t14 -49q0 -19 -6.5 -89.5t-15 -164t-12.5 -145.5h-37zM147 115q25 0 42 -17.5t17 -43.5t-17 -43.5t-42 -17.5q-26 0 -43.5 18t-17.5 44t17.5 43t43.5 17z" />
    <glyph glyph-name="quotedbl" unicode="&#x22;" horiz-adv-x="342" 
d="M70 393q-4 53 -9.5 114.5t-8 93.5t-2.5 41q0 22 10.5 35t27.5 13t27.5 -13t10.5 -35q0 -10 -2.5 -42t-8 -93.5t-9.5 -113.5h-36zM236 393q-4 53 -9.5 114.5t-8 93.5t-2.5 41q0 22 10.5 35t27.5 13t27.5 -13t10.5 -35q0 -10 -2.5 -42t-8 -93.5t-9.5 -113.5h-36z" />
    <glyph glyph-name="numbersign" unicode="#" 
d="M600 460h-117l-48 -230h125v-40h-133l-39 -190h-48l39 190h-194l-39 -190h-48l39 190h-117v40h125l48 230h-133v40h141l37 180h48l-37 -180h194l37 180h48l-37 -180h109v-40zM387 230l48 230h-194l-48 -230h194z" />
    <glyph glyph-name="dollar" unicode="$" horiz-adv-x="596" 
d="M541 184q0 -76 -58 -128.5t-154 -59.5l2 -120h-58l2 120q-109 8 -164.5 65t-55.5 124q0 33 19.5 51.5t46.5 18.5q25 0 40 -15.5t15 -37.5q0 -24 -18.5 -39t-43.5 -14q37 -96 161 -105l4 272q-39 12 -61.5 20.5t-54.5 24.5t-48.5 34t-29.5 46.5t-13 63.5q0 76 55 126
t147 56l-1 107h58l-1 -107q95 -8 149 -59t54 -109q0 -31 -16.5 -46t-42.5 -15q-24 0 -40.5 15t-16.5 37q0 23 16.5 37.5t39.5 16.5q-41 69 -144 75l-4 -255q40 -13 63.5 -21.5t56.5 -26t51 -36t31.5 -49t13.5 -67.5zM149 521q0 -46 33 -73t96 -49l-3 238q-59 -8 -92.5 -39.5
t-33.5 -76.5zM329 45q62 7 98 40t36 82q0 53 -35.5 82.5t-101.5 51.5z" />
    <glyph glyph-name="percent" unicode="%" horiz-adv-x="953" 
d="M231 282q-85 0 -138 58t-53 146t53 146t138 58t138 -58t53 -146t-53 -146t-138 -58zM475 364q26 47 94.5 163t79.5 131q28 40 55 20q27 -18 -2 -58q-14 -20 -98 -125t-116 -141zM231 318q57 0 87.5 48t30.5 120t-30.5 120t-87.5 48t-88 -48t-31 -120t31 -120t88 -48z
M722 -10q-85 0 -138 58t-53 146t53 146t138 58t138 -58t53 -146t-53 -146t-138 -58zM722 26q57 0 87.5 48t30.5 120t-30.5 120t-87.5 48t-88 -48t-31 -120t31 -120t88 -48zM461 318q-24 -42 -93.5 -160t-80.5 -134q-28 -40 -55 -20q-26 18 1 58q21 27 103 129.5t112 136.5z
" />
    <glyph glyph-name="ampersand" unicode="&#x26;" horiz-adv-x="607" 
d="M587 390q0 -46 -33.5 -69t-103.5 -33q80 -34 80 -120q0 -77 -68 -127.5t-176 -50.5q-105 0 -175.5 57t-70.5 142q0 74 48.5 126.5t125.5 62.5q-63 9 -103.5 50.5t-40.5 98.5q0 69 56.5 116t140.5 47q85 0 138 -44.5t53 -103.5q0 -34 -17.5 -52t-44.5 -18t-42.5 16
t-15.5 41q0 24 15.5 40t39.5 20q-40 49 -117 49q-56 0 -89 -30.5t-33 -83.5q0 -55 41 -89t108 -34h23v-45h-23q-76 0 -126.5 -47t-50.5 -116q0 -65 50 -108t126 -43t123 38t47 96q0 35 -17 64t-45 43l-32 -3q-25 -2 -39 -4t-30 -5.5t-23 -9.5t-7 -15q11 7 26 7
q20 0 33 -12.5t13 -31.5q0 -22 -17 -37t-41 -15q-25 0 -41.5 17t-16.5 48q0 95 192 109q7 1 22.5 1.5t23.5 1.5t21.5 2.5t20.5 4t14.5 6t11 8.5t3.5 12v3q-11 -7 -27 -7q-23 0 -36 15t-13 35q0 22 16.5 38t39.5 16q27 0 45 -20t18 -57z" />
    <glyph glyph-name="quotesingle" unicode="'" horiz-adv-x="176" 
d="M70 393q-4 53 -9.5 114.5t-8 93.5t-2.5 41q0 22 10.5 35t27.5 13t27.5 -13t10.5 -35q0 -10 -2.5 -42t-8 -93.5t-9.5 -113.5h-36z" />
    <glyph glyph-name="parenleft" unicode="(" horiz-adv-x="355" 
d="M291 -100q-236 123 -236 434t236 434l24 -45q-188 -118 -188 -389q0 -272 188 -389z" />
    <glyph glyph-name="parenright" unicode=")" horiz-adv-x="335" 
d="M44 -100l-24 45q188 117 188 389q0 271 -188 389l24 45q236 -123 236 -434t-236 -434z" />
    <glyph glyph-name="asterisk" unicode="*" horiz-adv-x="506" 
d="M136 426q-31 22 -5 57q8 11 24 24.5t37 30t31 24.5l-5 18q-82 0 -119 10q-44 12 -30 52q14 37 55 21q22 -9 100 -62l14 10l-9.5 38t-10.5 45.5t-4 33.5q0 42 39 42t39 -42q0 -14 -4 -33.5t-10.5 -45.5l-9.5 -38l14 -10q75 52 100 62q40 17 55 -21q8 -15 0.5 -30.5
t-30.5 -21.5q-37 -10 -119 -10l-5 -18q10 -8 31 -24.5t36.5 -30t24.5 -24.5q27 -34 -5 -57q-18 -12 -33 -8t-25 20q-12 19 -47 109h-24q-35 -90 -47 -109q-10 -16 -25 -20t-33 8z" />
    <glyph glyph-name="plus" unicode="+" horiz-adv-x="596" 
d="M272 273h-192v49h192v196h53v-196h191v-49h-191v-196h-53v196z" />
    <glyph glyph-name="comma" unicode="," horiz-adv-x="252" 
d="M126 112q25 0 42.5 -17t17.5 -51q0 -53 -31.5 -107.5t-92.5 -92.5l-21 27q39 29 58.5 52.5t23 37.5t2.5 35h-1q-29 1 -43.5 17.5t-14.5 39.5q0 26 17 42.5t43 16.5z" />
    <glyph glyph-name="hyphen" unicode="-" horiz-adv-x="376" 
d="M60 290h256v-55h-256v55z" />
    <glyph glyph-name="period" unicode="." horiz-adv-x="252" 
d="M127 115q25 0 42 -17.5t17 -43.5t-17 -43.5t-42 -17.5q-26 0 -43.5 18t-17.5 44t17.5 43t43.5 17z" />
    <glyph glyph-name="slash" unicode="/" horiz-adv-x="429" 
d="M383 776h69l-406 -877h-69z" />
    <glyph glyph-name="zero" unicode="0" horiz-adv-x="640" 
d="M320 -10q-118 0 -196.5 100.5t-78.5 249.5t78.5 249.5t196.5 100.5t196.5 -100.5t78.5 -249.5t-78.5 -249.5t-196.5 -100.5zM320 40q85 0 134.5 80.5t49.5 219.5t-49.5 219.5t-134.5 80.5q-86 0 -135.5 -80.5t-49.5 -219.5t49.5 -219.5t135.5 -80.5z" />
    <glyph glyph-name="one" unicode="1" horiz-adv-x="480" 
d="M319 50h146v-50h-425v50h136q31 0 31 31v462h-155v45q23 0 42 1.5t33.5 3t27 6.5t20.5 7.5t16 10.5t11.5 10.5t8.5 13.5t6 13.5t5 15.5t5 15h61v-604q0 -31 31 -31z" />
    <glyph glyph-name="two" unicode="2" horiz-adv-x="581" 
d="M461 233h50v-233h-459v29q19 18 60 57.5t59.5 58t52.5 53t50.5 54t41.5 49.5t37 51.5t25.5 47.5t18.5 49.5t5 47.5q0 65 -40.5 103.5t-104.5 38.5q-58 0 -96 -24t-56 -57q24 -2 41.5 -16.5t17.5 -39.5q0 -24 -16.5 -40t-41.5 -16q-26 0 -43.5 17t-17.5 50
q0 64 60.5 120.5t164.5 56.5q97 0 158 -52.5t61 -143.5q0 -85 -71.5 -176t-273.5 -262l219 9q39 2 60.5 26.5t26 47t9.5 76.5q1 12 2 18z" />
    <glyph glyph-name="three" unicode="3" horiz-adv-x="539" 
d="M316 350q77 -9 125 -54t48 -115q0 -83 -65 -137t-165 -54t-159.5 53t-59.5 117q0 33 17.5 50t44.5 17q26 0 41.5 -16t15.5 -39q0 -26 -17 -42t-41 -18q40 -71 144 -71q73 0 114.5 37.5t41.5 106.5q0 143 -180 143h-24v44h24q170 0 170 133q0 63 -39.5 98.5t-108.5 35.5
q-100 0 -141 -71q24 -2 41 -18t17 -42q0 -23 -15.5 -39t-41.5 -16q-27 0 -44.5 17t-17.5 50q0 64 60 117t157 53q95 0 158 -51.5t63 -129.5q0 -63 -43.5 -106.5t-119.5 -52.5z" />
    <glyph glyph-name="four" unicode="4" horiz-adv-x="564" 
d="M544 183h-120v-102q0 -31 31 -31h66v-50h-335v50h126q31 0 31 31v102h-323v53q86 110 119 163t44.5 96.5t14.5 126.5q3 68 51 68q50 0 50 -74q0 -39 -17.5 -85t-39 -82t-59 -82.5t-59 -69.5t-57.5 -61h276v169q45 47 62 95h19v-264h120v-53z" />
    <glyph glyph-name="five" unicode="5" horiz-adv-x="538" 
d="M274 422q96 0 160 -62t64 -153q0 -93 -67.5 -155t-167.5 -62q-97 0 -157.5 57.5t-60.5 122.5q0 33 17.5 50t44.5 17q26 0 41.5 -16t15.5 -39q0 -26 -17 -42t-41 -18q43 -81 143 -81q73 0 117 46t44 125q0 75 -40.5 120.5t-109.5 45.5q-71 0 -128 -37l-54 20l25 309l40 10
q116 -16 177 -16q78 0 156 20l13 -26q-35 -41 -74.5 -62.5t-105.5 -21.5q-53 0 -161 29l-13 -218q61 37 139 37z" />
    <glyph glyph-name="six" unicode="6" horiz-adv-x="584" 
d="M330 425q93 0 151 -59t58 -148q0 -94 -64.5 -161t-171.5 -67q-116 0 -184.5 84.5t-68.5 232.5q0 163 75 273t207 110q83 0 137.5 -42.5t54.5 -102.5q0 -33 -16.5 -48.5t-42.5 -15.5t-42 15.5t-16 38.5t15 39.5t36 21.5q-26 43 -113 43q-215 0 -210 -329q30 57 81 86
t114 29zM302 43q65 0 108 47t43 120q0 72 -42.5 117t-108.5 45q-67 0 -111.5 -45.5t-44.5 -115.5q0 -71 45 -119.5t111 -48.5z" />
    <glyph glyph-name="seven" unicode="7" horiz-adv-x="539" 
d="M519 680v-19q-46 -63 -79 -109t-59.5 -90.5t-42.5 -71.5t-28 -63.5t-17.5 -55t-9 -57.5t-3.5 -59.5v-72.5v-28q0 -29 -15 -46.5t-38 -17.5q-21 0 -34.5 17.5t-13.5 46.5q0 127 81.5 291t182.5 270h-225q-29 0 -50 -10t-32.5 -21.5t-19.5 -34t-10.5 -35t-5.5 -37.5h-50
v203h469z" />
    <glyph glyph-name="eight" unicode="8" horiz-adv-x="557" 
d="M517 186q1 -88 -67.5 -141.5t-178.5 -53.5q-100 0 -165.5 49t-65.5 127q0 124 145 171q-57 31 -89.5 72.5t-32.5 104.5q0 75 60 124.5t152 49.5q89 0 146.5 -47t57.5 -117q0 -103 -133 -152q79 -32 124.5 -73.5t46.5 -113.5zM134 529q0 -22 10 -40.5t22.5 -31t38 -26
t43 -21t51.5 -19.5q109 50 109 136q0 49 -37 81t-96 32q-60 0 -100.5 -31t-40.5 -80zM277 39q72 0 116 33t44 92q0 20 -9 37t-21 29t-36.5 25t-41 20t-49.5 20.5t-49 20.5q-56 -20 -85.5 -60t-28.5 -86q1 -57 45.5 -94t114.5 -37z" />
    <glyph glyph-name="nine" unicode="9" horiz-adv-x="584" 
d="M286 690q116 0 184.5 -84.5t68.5 -232.5q0 -163 -75 -273t-207 -110q-83 0 -137.5 42.5t-54.5 102.5q0 33 16.5 48.5t42.5 15.5t42 -15.5t16 -38.5t-15 -39.5t-36 -21.5q26 -43 113 -43q215 0 210 329q-30 -57 -81 -86t-114 -29q-93 0 -151 59t-58 148q0 94 64.5 161
t171.5 67zM287 308q67 0 111.5 45.5t44.5 115.5q0 71 -45 119.5t-111 48.5q-65 0 -108 -47t-43 -120q0 -72 42.5 -117t108.5 -45z" />
    <glyph glyph-name="colon" unicode=":" horiz-adv-x="252" 
d="M127 505q25 0 42 -17.5t17 -43.5t-17 -43.5t-42 -17.5q-26 0 -43.5 18t-17.5 44t17.5 43t43.5 17zM127 115q25 0 42 -17.5t17 -43.5t-17 -43.5t-42 -17.5q-26 0 -43.5 18t-17.5 44t17.5 43t43.5 17z" />
    <glyph glyph-name="semicolon" unicode=";" horiz-adv-x="252" 
d="M127 505q25 0 42 -17.5t17 -43.5t-17 -43.5t-42 -17.5q-26 0 -43.5 18t-17.5 44t17.5 43t43.5 17zM126 112q25 0 42.5 -17t17.5 -51q0 -53 -31.5 -107.5t-92.5 -92.5l-21 27q39 29 58.5 52.5t23 37.5t2.5 35h-1q-29 1 -43.5 17.5t-14.5 39.5q0 26 17 42.5t43 16.5z" />
    <glyph glyph-name="less" unicode="&#x3c;" horiz-adv-x="596" 
d="M80 316l416 194v-54l-354 -159l354 -160v-52l-416 193v38z" />
    <glyph glyph-name="equal" unicode="=" horiz-adv-x="596" 
d="M80 383v49h436v-49h-436zM80 203v49h436v-49h-436z" />
    <glyph glyph-name="greater" unicode="&#x3e;" horiz-adv-x="596" 
d="M516 316v-38l-416 -193v52l354 160l-354 159v54z" />
    <glyph glyph-name="question" unicode="?" horiz-adv-x="474" 
d="M244 690q91 0 148 -46t57 -123q0 -47 -22.5 -91t-61 -78t-76.5 -58.5t-81 -44.5l-19 25q33 24 57 44.5t51.5 51.5t42.5 67.5t15 75.5q0 59 -33.5 91.5t-93.5 32.5q-53 0 -86.5 -23.5t-46.5 -55.5q25 -1 44 -16.5t19 -40.5q0 -26 -17 -42.5t-44 -16.5q-26 0 -44 18.5
t-18 53.5q0 64 53 120t156 56zM239 115q25 0 42 -17.5t17 -43.5t-17 -43.5t-42 -17.5q-26 0 -43.5 18t-17.5 44t17.5 43t43.5 17z" />
    <glyph glyph-name="at" unicode="@" horiz-adv-x="851" 
d="M594 82q-48 0 -69 21.5t-18 58.5q-59 -79 -145 -79q-66 0 -102 42t-36 115q0 106 58.5 177t148.5 71q94 0 121 -88l20 82h55l-51 -238q-16 -76 -12 -95q7 -26 41 -27q63 0 107 62.5t44 164.5q0 134 -83 217.5t-218 83.5q-158 0 -259 -112t-101 -279q0 -155 91 -247.5
t246 -92.5q143 0 259 84l19 -31q-119 -92 -281 -92q-169 0 -279 102t-110 277q0 185 120.5 307t295.5 122q151 0 253 -92.5t102 -245.5q0 -124 -65 -196t-152 -72zM381 124q50 0 85.5 33t49.5 78t14 96q0 54 -24 85t-68 31q-64 0 -105 -58t-41 -146q0 -56 23 -87.5t66 -31.5
z" />
    <glyph glyph-name="A" unicode="A" horiz-adv-x="725" 
d="M690 50h35v-50h-261v50h64q15 0 21.5 8.5t0.5 21.5l-51 115h-300l-48 -114q-5 -13 0.5 -22t20.5 -9h74v-50h-246v50h38q34 0 48 34l258 596h30l268 -600q14 -30 48 -30zM219 242h260l-133 301z" />
    <glyph glyph-name="B" unicode="B" horiz-adv-x="640" 
d="M405 354q93 -11 144 -56t51 -117q0 -84 -67.5 -132.5t-182.5 -48.5h-315v50h79q31 0 31 31v518q0 31 -31 31h-79v50h293q116 0 183 -44t67 -123q0 -65 -46 -105.5t-127 -53.5zM230 630v-253h98q71 0 113.5 40.5t42.5 97.5q0 54 -41.5 84.5t-114.5 30.5h-98zM350 49
q72 0 114 35.5t42 96.5q0 59 -40 102.5t-116 43.5h-120v-278h120z" />
    <glyph glyph-name="C" unicode="C" horiz-adv-x="746" 
d="M642 250l54 -11q-24 -121 -101 -185t-191 -64q-149 0 -249 100t-100 250t99 250t248 100q68 0 125 -22.5t90.5 -57t52 -70.5t18.5 -67q0 -33 -19.5 -50.5t-45.5 -17.5q-27 0 -44 16.5t-17 40.5q0 25 16 39.5t45 14.5q-68 120 -208 120q-119 0 -189 -80t-70 -216
t67.5 -216t179.5 -80q88 0 151 51.5t88 154.5z" />
    <glyph glyph-name="D" unicode="D" horiz-adv-x="782" 
d="M370 680q155 0 256 -94t101 -246t-101 -246t-256 -94h-335v50h79q31 0 31 31v518q0 31 -31 31h-79v50h335zM370 50q113 0 184.5 79.5t71.5 210.5t-71.5 210.5t-184.5 79.5h-140v-580h140z" />
    <glyph glyph-name="E" unicode="E" horiz-adv-x="660" 
d="M545 195h50v-195h-560v50h79q31 0 31 31v518q0 31 -31 31h-79v50h530v-195h-50q-8 78 -18 99q-19 46 -80 46h-187v-309h117q12 0 22 2.5t17 5.5t12.5 10.5t8 11t5.5 15.5t4 15.5t3 18t2 16.5h44v-240h-44q-1 5 -2.5 19.5t-3 20t-4.5 17t-7.5 16t-12 11t-18.5 9t-26 2.5
h-117v-221h217q39 0 60.5 21t26 41t9.5 67q1 11 2 16z" />
    <glyph glyph-name="F" unicode="F" horiz-adv-x="620" 
d="M565 680v-195h-50q-8 78 -18 99q-19 46 -80 46h-187v-309h117q12 0 22 2.5t17 5.5t12.5 10.5t8 11t5.5 15.5t4 15.5t3 18t2 16.5h44v-240h-44q-1 4 -2.5 15.5t-2 15.5t-2.5 14t-4.5 14t-6.5 11.5t-9 10.5t-11.5 7t-15.5 5.5t-20 1.5h-117v-190q0 -31 31 -31h109v-50h-335
v50h79q31 0 31 31v518q0 31 -31 31h-79v50h530z" />
    <glyph glyph-name="G" unicode="G" horiz-adv-x="802" 
d="M415 290h337v-50h-41q-31 0 -31 -31v-209h-35l-41 69q-81 -79 -200 -79q-149 0 -249 100t-100 250t99 250t248 100q68 0 125 -21t90.5 -53.5t52 -67t18.5 -65.5q0 -33 -19.5 -50.5t-45.5 -17.5q-27 0 -44 16.5t-17 40.5q0 25 16 39.5t45 14.5q-61 110 -208 110
q-119 0 -189 -80t-70 -216t67.5 -216t179.5 -80q119 0 192 89v76q0 31 -31 31h-149v50z" />
    <glyph glyph-name="H" unicode="H" horiz-adv-x="795" 
d="M681 630q-31 0 -31 -31v-518q0 -31 31 -31h79v-50h-295v50h69q31 0 31 31v193h-335v-193q0 -31 31 -31h69v-50h-295v50h79q31 0 31 31v518q0 31 -31 31h-79v50h295v-50h-69q-31 0 -31 -31v-275h335v275q0 31 -31 31h-69v50h295v-50h-79z" />
    <glyph glyph-name="I" unicode="I" horiz-adv-x="399" 
d="M273 630q-31 0 -31 -31v-518q0 -31 31 -31h81v-50h-309v50h81q31 0 31 31v518q0 31 -31 31h-81v50h309v-50h-81z" />
    <glyph glyph-name="J" unicode="J" horiz-adv-x="538" 
d="M139 680h384v-50h-69q-31 0 -31 -31v-409q0 -91 -58 -145.5t-147 -54.5q-82 0 -131.5 43t-49.5 90q0 26 15 44t40 18t40.5 -14.5t15.5 -37.5q0 -21 -13 -35t-34 -16q25 -43 94 -43q65 0 104 39.5t39 111.5v409q0 31 -31 31h-168v50z" />
    <glyph glyph-name="K" unicode="K" horiz-adv-x="745" 
d="M35 0v50h79q31 0 31 31v518q0 31 -31 31h-79v50h295v-50h-69q-31 0 -31 -31v-518q0 -31 31 -31h69v-50h-295zM407 0v50h76q33 0 10 30l-210 252l231 269q24 29 -7 29h-96v50h288v-50h-35q-52 0 -80 -31l-211 -249l215 -261q32 -39 87 -39h50v-50h-318z" />
    <glyph glyph-name="L" unicode="L" horiz-adv-x="630" 
d="M525 218h50v-218h-540v50h79q31 0 31 31v518q0 31 -31 31h-79v50h325v-50h-99q-31 0 -31 -31v-549h197q24 0 41.5 9.5t26.5 18t16 36.5t8 37.5t4 47.5q1 13 2 19z" />
    <glyph glyph-name="M" unicode="M" horiz-adv-x="927" 
d="M813 630q-31 0 -31 -31v-518q0 -31 31 -31h79v-50h-295v50h69q31 0 31 31v502l-228 -416h-28l-238 414v-500q0 -31 31 -31h79v-50h-278v50h79q31 0 31 31v518q0 31 -31 31h-79v50h198l236 -413l226 413h197v-50h-79z" />
    <glyph glyph-name="N" unicode="N" horiz-adv-x="785" 
d="M760 680v-50h-79q-31 0 -31 -31v-599h-28l-419 585v-504q0 -31 31 -31h79v-50h-278v50h79q31 0 31 31v518q0 31 -31 31h-79v50h188l369 -506v425q0 31 -31 31h-79v50h278z" />
    <glyph glyph-name="O" unicode="O" horiz-adv-x="804" 
d="M402 690q148 0 247.5 -102t99.5 -248t-99.5 -248t-247.5 -102t-247.5 102t-99.5 248t99.5 248t247.5 102zM402 44q111 0 178.5 81.5t67.5 214.5t-67.5 214.5t-178.5 81.5t-178.5 -81.5t-67.5 -214.5t67.5 -214.5t178.5 -81.5z" />
    <glyph glyph-name="P" unicode="P" horiz-adv-x="635" 
d="M330 259h-100v-178q0 -31 31 -31h119v-50h-345v50h79q31 0 31 31v518q0 31 -31 31h-79v50h295q126 0 198 -59.5t72 -147.5q0 -91 -72 -152.5t-198 -61.5zM230 630v-322h100q89 0 132.5 50t43.5 115q0 62 -43.5 109.5t-132.5 47.5h-100z" />
    <glyph glyph-name="Q" unicode="Q" horiz-adv-x="804" 
d="M749 340q0 -146 -99.5 -248t-247.5 -102t-247.5 102t-99.5 248t99.5 248t247.5 102t247.5 -102t99.5 -248zM156 340q0 -133 67.5 -214.5t178.5 -81.5t178.5 81.5t67.5 214.5t-67.5 214.5t-178.5 81.5t-178.5 -81.5t-67.5 -214.5zM692 -56q24 0 40.5 -17t16.5 -42
q0 -33 -27 -56t-68 -23q-58 0 -125 58q-13 11 -30.5 28t-25.5 24.5t-19.5 13.5t-23.5 6q-8 0 -18 -3q30 -9 30 -40q0 -22 -16 -36t-38 -14q-24 0 -40 15.5t-16 39.5q0 32 26.5 53.5t66.5 21.5q60 0 131 -64q13 -11 29 -27.5t23.5 -23.5t19.5 -13t25 -6q16 0 27 7
q-40 8 -40 46q0 22 15 37t37 15z" />
    <glyph glyph-name="R" unicode="R" horiz-adv-x="720" 
d="M663 50h52v-50h-201l-108 228q-23 50 -96 50h-80v-197q0 -31 31 -31h89v-50h-315v50h79q31 0 31 31v518q0 31 -31 31h-79v50h295q134 0 207 -54t73 -138q0 -71 -56.5 -127.5t-148.5 -75.5q76 -20 113 -94l50 -101q12 -24 32 -32t63 -8zM230 328h100q95 0 140.5 49
t45.5 110q0 59 -45 101t-141 42h-100v-302z" />
    <glyph glyph-name="S" unicode="S" horiz-adv-x="586" 
d="M150 522q0 -35 21 -60t54.5 -40t74.5 -28t81.5 -29t74 -37.5t54.5 -58.5t21 -88q0 -83 -66 -137t-170 -54q-62 0 -110 18t-75.5 47t-41 61.5t-13.5 65.5q0 36 20.5 55t48.5 19q26 0 41.5 -16t15.5 -39q0 -27 -19.5 -43t-45.5 -14q41 -103 176 -103q72 0 115.5 34.5
t43.5 89.5q0 53 -39 86t-95 50.5t-112.5 36.5t-95.5 60t-39 107q0 80 61.5 132.5t161.5 52.5q105 0 167 -52.5t62 -117.5q0 -34 -17 -49.5t-44 -15.5q-25 0 -41.5 16t-16.5 39q0 25 17 40.5t40 17.5q-45 71 -154 71q-72 0 -114 -32.5t-42 -84.5z" />
    <glyph glyph-name="T" unicode="T" horiz-adv-x="675" 
d="M625 680v-218h-50q-8 90 -17 114q-22 53 -81 54h-97v-549q0 -31 31 -31h104v-50h-355v50h104q31 0 31 31v549h-97q-24 0 -41.5 -9.5t-26.5 -18t-16 -36.5t-8 -37.5t-4 -47.5q-1 -13 -2 -19h-50v218h575z" />
    <glyph glyph-name="U" unicode="U" horiz-adv-x="726" 
d="M711 680v-50h-69q-31 0 -31 -31v-389q0 -101 -65 -160.5t-172 -59.5q-113 0 -186 63t-73 157v389q0 31 -31 31h-69v50h304v-50h-88q-31 0 -31 -31v-389q0 -72 48.5 -119t128.5 -47q78 0 127 45.5t49 120.5v389q0 31 -31 31h-75v50h264z" />
    <glyph glyph-name="V" unicode="V" horiz-adv-x="705" 
d="M464 680h241v-50h-37q-20 0 -30 -6.5t-17 -23.5l-250 -600h-30l-258 599q-13 31 -48 31h-35v50h261v-50h-68q-12 0 -16 -8.5t1 -21.5l191 -459l193 464q5 11 0.5 18t-15.5 7h-83v50z" />
    <glyph glyph-name="W" unicode="W" horiz-adv-x="1065" 
d="M834 680h231v-50h-36q-32 0 -46 -32l-212 -598h-30l-203 528l-187 -528h-30l-240 601q-11 29 -47 29h-34v50h251v-50h-55q-33 0 -21 -33l171 -442l157 444q5 14 -1.5 22.5t-22.5 8.5h-85v50h297v-50h-75q-14 0 -20 -9.5t-1 -23.5l171 -442l156 443q8 32 -22 32h-66v50z
" />
    <glyph glyph-name="X" unicode="X" horiz-adv-x="715" 
d="M649 630q-35 0 -56 -28l-193 -251l196 -266q27 -35 60 -35h44v-50h-261v50h43q29 0 14 28l-153 208l-160 -208q-9 -12 -5 -20t18 -8h60v-50h-241v50h51q35 0 56 28l193 251l-196 266q-27 35 -60 35h-44v50h261v-50h-43q-29 0 -14 -28l153 -208l160 208q9 12 5 20t-18 8
h-60v50h241v-50h-51z" />
    <glyph glyph-name="Y" unicode="Y" horiz-adv-x="665" 
d="M404 680h261v-50h-57q-37 0 -56 -32l-183 -307v-210q0 -31 31 -31h79v-50h-305v50h79q31 0 31 31v209l-177 312q-15 28 -51 28h-56v50h281v-50h-63q-34 0 -18 -31l139 -262l155 265q7 13 2.5 20.5t-19.5 7.5h-73v50z" />
    <glyph glyph-name="Z" unicode="Z" horiz-adv-x="587" 
d="M492 222h50v-222h-497v20l378 613h-242q-13 0 -23.5 -2.5t-18.5 -9.5t-13.5 -12.5t-10 -18.5t-7 -20.5t-5 -25t-3.5 -25t-2.5 -29t-2.5 -28.5h-50v218h485v-20l-379 -613h255q17 0 30 4.5t22 18t14 22.5t9 33.5t5 34t4 40.5q0 5 0.5 7.5t1 7t0.5 7.5z" />
    <glyph glyph-name="bracketleft" unicode="[" horiz-adv-x="341" 
d="M95 776h226v-44h-161v-788h161v-45h-226v877z" />
    <glyph glyph-name="backslash" unicode="\" horiz-adv-x="429" 
d="M46 776l406 -877h-69l-406 877h69z" />
    <glyph glyph-name="bracketright" unicode="]" horiz-adv-x="341" 
d="M246 776v-877h-226v45h161v788h-161v44h226z" />
    <glyph glyph-name="asciicircum" unicode="^" horiz-adv-x="423" 
d="M303 436l-91 192l-90 -192h-56l127 244h38l126 -244h-54z" />
    <glyph glyph-name="underscore" unicode="_" horiz-adv-x="394" 
d="M0 -90h394v-50h-394v50z" />
    <glyph glyph-name="grave" unicode="`" horiz-adv-x="242" 
d="M189 572l-24 -20q-19 15 -55.5 43.5t-55 44t-27.5 26.5q-15 18 -14.5 37.5t18.5 33.5q16 13 36 10.5t35 -18.5q9 -10 21.5 -32.5t32 -60.5t33.5 -64z" />
    <glyph glyph-name="a" unicode="a" horiz-adv-x="564" 
d="M483 50h54v-50h-133l-26 67q-21 -36 -60.5 -56.5t-87.5 -20.5q-79 0 -132 43.5t-53 108.5q0 64 53 107t132 43q99 0 144 -68v109q0 59 -35 94t-95 35q-56 0 -92 -26q17 -5 28.5 -19.5t11.5 -34.5q0 -24 -17 -41t-43 -17q-25 0 -41 16.5t-16 42.5q0 49 56 86.5t133 37.5
q87 0 137.5 -47t50.5 -127v-252q0 -31 31 -31zM251 42q52 0 87.5 28.5t35.5 72.5t-35.5 72.5t-87.5 28.5t-86.5 -29t-34.5 -73q0 -43 34.5 -71.5t86.5 -28.5z" />
    <glyph glyph-name="b" unicode="b" horiz-adv-x="626" 
d="M356 507q98 0 164 -72.5t66 -185.5q0 -116 -65.5 -187.5t-164.5 -71.5q-56 0 -107.5 24.5t-82.5 77.5l-43 -92h-28v599q0 31 -31 31h-64v50h173v-278q29 54 78 79.5t105 25.5zM339 42q71 0 116.5 55t45.5 152q0 94 -46 150t-116 56q-78 0 -122 -55.5t-44 -150.5
q0 -98 43.5 -152.5t122.5 -54.5z" />
    <glyph glyph-name="c" unicode="c" horiz-adv-x="550" 
d="M463 178l47 -9q-18 -90 -76 -134.5t-140 -44.5q-109 0 -181.5 72.5t-72.5 184.5q0 115 76 187.5t182 72.5q91 0 148.5 -52t57.5 -116q0 -25 -16 -42t-40 -17q-28 0 -44.5 15.5t-16.5 40.5q0 23 16.5 37.5t38.5 16.5q-38 67 -133 67q-89 0 -136.5 -54.5t-47.5 -151.5
t47 -152.5t131 -55.5q132 0 160 135z" />
    <glyph glyph-name="d" unicode="d" horiz-adv-x="646" 
d="M562 50h54v-50h-163v94q-55 -104 -183 -104q-99 0 -164.5 71.5t-65.5 187.5q0 113 66 185.5t164 72.5q56 0 105 -25.5t78 -79.5v197q0 31 -31 31h-54v50h163v-599q0 -31 31 -31zM287 42q79 0 122.5 54.5t43.5 152.5q0 95 -44 150.5t-122 55.5q-70 0 -116 -56t-46 -150
q0 -97 45.5 -152t116.5 -55z" />
    <glyph glyph-name="e" unicode="e" horiz-adv-x="542" 
d="M125 235q4 -87 47 -139.5t120 -52.5q63 0 105 36t56 99l47 -9q-17 -82 -75.5 -130.5t-144.5 -48.5q-107 0 -173.5 72.5t-66.5 182.5q0 112 68.5 187t172.5 75q100 0 160.5 -71.5t60.5 -189.5v-11h-377zM283 461q-67 0 -108.5 -50.5t-48.5 -132.5h290q-11 183 -133 183z
" />
    <glyph glyph-name="f" unicode="f" horiz-adv-x="402" 
d="M325 591q0 20 12.5 33.5t34.5 15.5q-23 10 -51 10q-98 0 -98 -120v-30h168v-50h-168v-369q0 -31 31 -31h84v-50h-288v50h64q31 0 31 31v369h-105v50h74q31 0 31 31v-1q0 74 44.5 117t115.5 43q55 0 93 -24t38 -65q0 -27 -16 -44.5t-41 -17.5q-23 0 -38.5 15t-15.5 37z
" />
    <glyph glyph-name="g" unicode="g" horiz-adv-x="516" 
d="M335 96q67 0 112 -36t45 -90q0 -71 -66 -115.5t-168 -44.5q-99 0 -166 35.5t-67 96.5q0 37 26.5 65t73.5 38q-68 24 -68 83q0 57 71 80q-74 47 -74 133q0 72 56.5 119t149.5 47q69 0 118 -26q27 17 38 46q-23 3 -35 19t-12 36q0 23 17 39t42 16t41.5 -18.5t16.5 -45.5
q0 -32 -22.5 -61t-58.5 -47q63 -47 63 -124q0 -73 -57 -120.5t-151 -47.5q-54 0 -97 17q-46 -13 -46 -50q0 -20 16.5 -32t42.5 -12h159zM260 465q-54 0 -85.5 -33.5t-31.5 -91.5t31.5 -91.5t85.5 -33.5q55 0 87 33.5t32 91.5t-32 91.5t-87 33.5zM261 -136q68 0 114.5 27.5
t46.5 71.5q0 29 -25 48.5t-62 19.5h-153q-39 0 -60.5 -21.5t-21.5 -52.5q0 -44 45.5 -68.5t115.5 -24.5z" />
    <glyph glyph-name="h" unicode="h" horiz-adv-x="635" 
d="M554 50h54v-50h-238v50h44q31 0 31 31v259q0 44 -31.5 74t-78.5 30q-51 0 -93.5 -36.5t-48.5 -112.5v-214q0 -31 31 -31h44v-50h-238v50h54q31 0 31 31v518q0 31 -31 31h-54v50h163v-285q27 51 72 81.5t99 30.5q67 0 113 -45t46 -112v-269q0 -31 31 -31z" />
    <glyph glyph-name="i" unicode="i" horiz-adv-x="338" 
d="M183 565q-26 0 -43.5 17t-17.5 43t17.5 44t43.5 18q25 0 42 -17.5t17 -43.5t-17 -43.5t-42 -17.5zM249 50h64v-50h-268v50h64q31 0 31 31v338q0 31 -31 31h-64v50h173v-419q0 -31 31 -31z" />
    <glyph glyph-name="j" unicode="j" horiz-adv-x="292" 
d="M183 687q25 0 42 -17.5t17 -43.5t-17 -43.5t-42 -17.5q-26 0 -43.5 17t-17.5 43t17.5 44t43.5 18zM45 450v50h173v-530q0 -76 -35.5 -118t-101.5 -42q-52 0 -85.5 25t-33.5 64q0 24 15.5 40.5t37.5 16.5q24 0 38 -13.5t14 -36.5q0 -22 -14.5 -35t-36.5 -11q16 -15 43 -15
q48 0 64.5 32t16.5 93v449q0 31 -31 31h-64z" />
    <glyph glyph-name="k" unicode="k" horiz-adv-x="610" 
d="M193 81q0 -31 31 -31h54v-50h-248v50h54q31 0 31 31v518q0 31 -31 31h-54v50h163v-599zM569 50h21v-50h-258v50h52q18 0 23 7t-7 22l-175 197l164 151q10 9 6.5 16t-17.5 7h-86v50h268v-50h-36q-40 0 -77 -33l-142 -131l176 -197q35 -39 88 -39z" />
    <glyph glyph-name="l" unicode="l" horiz-adv-x="343" 
d="M249 50h64v-50h-268v50h64q31 0 31 31v518q0 31 -31 31h-64v50h173v-599q0 -31 31 -31z" />
    <glyph glyph-name="m" unicode="m" horiz-adv-x="920" 
d="M839 50h54v-50h-238v50h44q31 0 31 31v269q0 43 -25 68.5t-67 25.5q-54 0 -89 -41.5t-41 -107.5v-214q0 -31 31 -31h44v-50h-228v50h44q31 0 31 31v269q0 43 -26 68.5t-67 25.5q-58 0 -93.5 -49t-35.5 -124v-190q0 -31 31 -31h44v-50h-238v50h54q31 0 31 31v338
q0 31 -31 31h-54v50h163v-109q21 55 59.5 85.5t90.5 30.5q54 0 95.5 -32.5t51.5 -83.5q21 54 60.5 85t91.5 31q63 0 107 -42t44 -105v-279q0 -31 31 -31z" />
    <glyph glyph-name="n" unicode="n" horiz-adv-x="650" 
d="M569 50h54v-50h-238v50h44q31 0 31 31v259q0 44 -31.5 74t-78.5 30q-51 0 -93.5 -36.5t-48.5 -112.5v-214q0 -31 31 -31h44v-50h-238v50h54q31 0 31 31v338q0 31 -31 31h-54v50h163v-105q27 51 72 81.5t99 30.5q67 0 113 -45t46 -112v-269q0 -31 31 -31z" />
    <glyph glyph-name="o" unicode="o" horiz-adv-x="584" 
d="M292 507q106 0 179 -72t73 -184q0 -113 -73.5 -187t-178.5 -74t-178.5 74t-73.5 187q0 112 73 184t179 72zM292 36q77 0 122 58t45 157q0 98 -45 154t-122 56t-122 -56t-45 -154q0 -99 45 -157t122 -58z" />
    <glyph glyph-name="p" unicode="p" horiz-adv-x="661" 
d="M391 507q98 0 164 -72.5t66 -185.5q0 -116 -65.5 -187.5t-164.5 -71.5q-128 0 -183 104v-193q0 -31 31 -31h99v-50h-293v50h54q31 0 31 31v518q0 31 -31 31h-54v50h163v-98q29 54 78 79.5t105 25.5zM374 42q71 0 116.5 55t45.5 152q0 94 -46 150t-116 56
q-78 0 -122 -55.5t-44 -150.5q0 -98 43.5 -152.5t122.5 -54.5z" />
    <glyph glyph-name="q" unicode="q" horiz-adv-x="641" 
d="M562 450q-31 0 -31 -31v-518q0 -31 31 -31h54v-50h-283v50h89q31 0 31 31v194q-29 -54 -78 -79.5t-105 -25.5q-98 0 -164 72.5t-66 185.5q0 116 65.5 187.5t164.5 71.5q55 0 106 -23.5t82 -75.5l35 92h123v-50h-54zM287 42q78 0 122 55.5t44 150.5q0 98 -43.5 152.5
t-122.5 54.5q-71 0 -116.5 -55t-45.5 -152q0 -94 46 -150t116 -56z" />
    <glyph glyph-name="r" unicode="r" horiz-adv-x="480" 
d="M377 507q37 0 60 -20t23 -51q0 -27 -17 -45t-43 -18q-24 0 -39 14t-15 38q0 21 12 33q-60 -6 -102 -70t-48 -195v-112q0 -31 31 -31h99v-50h-293v50h54q31 0 31 31v338q0 31 -31 31h-54v50h163v-154q24 81 68.5 121t100.5 40z" />
    <glyph glyph-name="s" unicode="s" horiz-adv-x="469" 
d="M129 386q0 -34 30.5 -55.5t73.5 -34t86.5 -27.5t74 -48t30.5 -84q0 -69 -50 -108t-135 -39q-88 0 -141 39t-53 94q0 29 15 45t39 16q23 0 38 -14t15 -38q0 -23 -13.5 -36.5t-38.5 -14.5q42 -49 129 -49q59 0 90.5 25t31.5 65q0 39 -30.5 62.5t-74 35.5t-87 26t-74 45
t-30.5 80q0 66 49 101t132 35t130 -33.5t47 -80.5q0 -27 -15.5 -44t-39.5 -17q-22 0 -37 14.5t-15 35.5q0 19 13 32.5t33 16.5q-31 34 -103 34q-55 0 -87.5 -21t-32.5 -58z" />
    <glyph glyph-name="t" unicode="t" horiz-adv-x="364" 
d="M222 -10q-58 0 -97.5 36t-39.5 89v335h-85v50h8q49 0 71.5 19t55.5 81h28v-100h169v-50h-169v-335q0 -32 21.5 -53t53.5 -21q29 0 51 19.5t28 48.5l37 -13q-9 -46 -46.5 -76t-85.5 -30z" />
    <glyph glyph-name="u" unicode="u" horiz-adv-x="604" 
d="M530 50h54v-50h-163v104q-27 -51 -72.5 -82.5t-99.5 -31.5q-67 0 -113 45t-46 112v282q-4 21 -30 21h-55v50h163v-343q0 -44 31.5 -74t78.5 -30q55 0 99 42.5t44 130.5v193q0 31 -31 31h-47v50h156v-419q0 -31 31 -31z" />
    <glyph glyph-name="v" unicode="v" horiz-adv-x="594" 
d="M387 500h192v-50h-27q-35 0 -48 -31l-186 -419h-34l-184 419q-13 31 -47 31h-38v50h253v-50h-61q-15 0 -21.5 -8t-1.5 -21l127 -308l138 308q5 13 -1 21t-21 8h-40v50z" />
    <glyph glyph-name="w" unicode="w" horiz-adv-x="872" 
d="M665 500h192v-50h-24q-34 0 -48 -35l-159 -415h-32l-145 368l-143 -368h-32l-174 416q-14 34 -49 34h-36v50h255v-50h-63q-13 0 -20 -9.5t-2 -21.5l116 -302l117 302q5 13 -1 22t-20 9h-62v50h255v-50h-63q-13 0 -19 -9.5t-3 -21.5l116 -302l110 300q5 13 -1 23t-20 10
h-45v50z" />
    <glyph glyph-name="x" unicode="x" horiz-adv-x="572" 
d="M516 50h41v-50h-239v50h43q14 0 18 6.5t-3 16.5l-96 129l-101 -127q-8 -10 -3.5 -17.5t18.5 -7.5h34v-50h-203v50h35q34 0 51 21l138 172l-140 186q-17 21 -51 21h-43v50h241v-50h-45q-14 0 -18.5 -7t3.5 -18l96 -127l103 129q7 10 3 16.5t-18 6.5h-34v50h201v-50h-35
q-34 0 -55 -26l-133 -168l137 -180q19 -26 55 -26z" />
    <glyph glyph-name="y" unicode="y" horiz-adv-x="592" 
d="M385 500h192v-50h-26q-34 0 -50 -36l-193 -454q-33 -77 -71.5 -113.5t-98.5 -36.5q-47 0 -80.5 24.5t-33.5 64.5q0 26 16.5 44t41.5 18q24 0 39 -15.5t15 -38.5q0 -42 -41 -49q15 -8 34 -8q46 0 74 27t51 83l23 56l-177 403q-13 31 -47 31h-38v50h251v-50h-58
q-15 0 -21.5 -8t-1.5 -21l130 -315l131 313q6 15 -1 23t-21 8h-39v50z" />
    <glyph glyph-name="z" unicode="z" horiz-adv-x="522" 
d="M415 180h47v-180h-395v24l294 432h-157q-12 0 -22.5 -2.5t-18.5 -4.5t-14.5 -9t-11 -11t-8 -15t-5.5 -15t-4.5 -18.5t-3 -18.5t-2.5 -21t-2 -21h-47v180h393v-24l-294 -432h159q12 0 22.5 2.5t18.5 4.5t14.5 9t11 11t8 15t5.5 15t4.5 18.5t3 18.5t2.5 21t2 21z" />
    <glyph glyph-name="braceleft" unicode="{" horiz-adv-x="377" 
d="M117 338v-2q46 -6 70 -28t24 -74v-192q0 -56 29 -78t117 -22v-44q-128 1 -176.5 33.5t-44.5 110.5l10 192q4 81 -81 81h-45v44h45q85 0 81 81l-10 192q-4 78 44.5 110.5t176.5 33.5v-44q-88 0 -117 -22t-29 -78v-192q0 -52 -24 -74t-70 -28z" />
    <glyph glyph-name="bar" unicode="|" horiz-adv-x="250" 
d="M100 776h50v-877h-50v877z" />
    <glyph glyph-name="braceright" unicode="}" horiz-adv-x="377" 
d="M312 359h45v-44h-45q-85 0 -81 -81l10 -192q4 -78 -44.5 -110.5t-176.5 -33.5v44q88 0 117 22t29 78v192q0 52 24 74t70 28v2q-46 6 -70 28t-24 74v192q0 56 -29 78t-117 22v44q128 -1 176.5 -33.5t44.5 -110.5l-10 -192q-4 -81 81 -81z" />
    <glyph glyph-name="asciitilde" unicode="~" horiz-adv-x="596" 
d="M491 358q-19 -100 -108 -100q-39 0 -95 28.5t-88 28.5q-28 0 -40.5 -13t-20.5 -39l-34 14q20 96 107 96q40 0 99 -28.5t86 -28.5q19 0 31.5 8.5t17 17.5t10.5 26z" />
    <glyph glyph-name="exclamdown" unicode="&#xa1;" horiz-adv-x="292" 
d="M147 385q-26 0 -43.5 17t-17.5 43t17.5 44t43.5 18q25 0 42 -17.5t17 -43.5t-17 -43.5t-42 -17.5zM128 266h37q4 -52 12.5 -145.5t15 -164t6.5 -89.5q0 -31 -14 -49t-39 -18t-39 18t-14 49q0 17 6.5 87.5t15.5 164t13 147.5z" />
    <glyph glyph-name="cent" unicode="&#xa2;" horiz-adv-x="530" 
d="M444 178l46 -9q-17 -90 -72.5 -134.5t-134.5 -44.5q-33 0 -58 7l-22 -82l-48 14l25 83q-65 30 -102.5 92t-37.5 143q0 115 72.5 187.5t174.5 72.5q11 0 27 -2l26 94l48 -14l-26 -90q56 -20 89.5 -64t33.5 -92q0 -25 -16 -42t-39 -17q-27 0 -43.5 15.5t-16.5 40.5
q0 23 15 37.5t38 16.5q-24 45 -73 60l-111 -399q27 -8 54 -8q124 0 151 135zM298 457q-83 0 -127.5 -54.5t-44.5 -151.5q0 -126 71 -178l104 384h-3z" />
    <glyph glyph-name="sterling" unicode="&#xa3;" horiz-adv-x="624" 
d="M555 162l39 -11q-19 -81 -53.5 -121t-103.5 -40q-28 0 -64 15.5t-54 27t-63 41.5q-22 -46 -49.5 -65t-67.5 -19q-48 0 -78.5 23.5t-30.5 64.5t31 69t83 28q32 0 78 -22q1 64 -42 137h-135v50h104q-41 71 -41 131q0 94 67 156.5t168 62.5q97 0 156 -47t59 -106
q0 -26 -17 -43t-42 -17q-27 0 -43 14.5t-16 37.5t16 37t39 16q-43 59 -140 59q-72 0 -120.5 -42t-48.5 -105q0 -19 6.5 -40t13.5 -35t22.5 -40.5t21.5 -38.5h265v-50h-243q28 -80 3 -164q102 -56 157 -56t78 20.5t45 71.5zM136 34q28 0 49 18t30 49q-49 29 -79 29
q-23 0 -38.5 -13t-15.5 -34t15 -35t39 -14z" />
    <glyph glyph-name="currency" unicode="&#xa4;" horiz-adv-x="568" 
d="M418 232q18 -14 50.5 -35.5t42.5 -31.5q29 -29 2 -55q-26 -26 -54 2q-8 8 -17.5 21.5t-24 34.5t-26.5 38q-47 -34 -107 -34q-62 0 -108 35q-12 -17 -26.5 -38.5t-24 -35t-16.5 -21.5q-29 -28 -55 -2t2 55q10 10 42.5 31.5t50.5 35.5q-38 46 -38 108t38 108q-16 12 -37 26
t-34.5 23.5t-20.5 16.5q-29 28 -2 55q26 26 54 -2q8 -8 17.5 -21t23.5 -35t26 -38q48 35 108 35q61 0 107 -35q13 17 27 38t24 34.5t17 21.5q29 29 55 2q24 -26 -3 -55q-9 -9 -42 -30.5t-51 -35.5q39 -45 39 -108t-39 -108zM284 218q49 0 82 35t33 87t-33 87t-82 35t-82 -35
t-33 -87t33 -87t82 -35z" />
    <glyph glyph-name="yen" unicode="&#xa5;" horiz-adv-x="665" 
d="M404 680h261v-50h-57q-34 0 -56 -32l-174 -261h179v-50h-188v-80h188v-50h-188v-76q0 -31 31 -31h109v-50h-365v50h109q31 0 31 31v76h-175v50h175v80h-175v50h166l-168 265q-17 28 -51 28h-56v50h281v-50h-63q-17 0 -21.5 -8.5t3.5 -22.5l139 -229l155 232q8 13 3 20.5
t-20 7.5h-73v50z" />
    <glyph glyph-name="brokenbar" unicode="&#xa6;" horiz-adv-x="250" 
d="M100 776h50v-371h-50v371zM100 275h50v-376h-50v376z" />
    <glyph glyph-name="section" unicode="&#xa7;" horiz-adv-x="523" 
d="M483 290q0 -71 -79 -105q15 -30 15 -62q0 -60 -43.5 -96.5t-118.5 -36.5q-76 0 -123 39.5t-47 87.5q0 27 17.5 45.5t41.5 18.5t39 -15.5t15 -39.5q0 -18 -15 -32t-36 -19q34 -44 99 -44q48 0 75.5 21t27.5 54q0 34 -32 61t-77.5 47.5t-91.5 43.5t-78 59t-32 83
q0 72 80 105q-10 25 -10 50q0 61 45 98t117 37q73 0 117.5 -39t44.5 -86q0 -25 -16 -41.5t-39 -16.5t-38.5 14t-15.5 35q0 18 14 31.5t34 17.5q-30 44 -91 44q-46 0 -75 -21t-29 -55q0 -33 31.5 -59t76 -45t89.5 -40.5t76.5 -56.5t31.5 -82zM383 213q30 18 30 56t-33 66.5
t-75.5 44t-92.5 41.5t-74 55q-28 -21 -28 -55q0 -37 32 -66t73.5 -45.5t91.5 -42.5t76 -54z" />
    <glyph glyph-name="dieresis" unicode="&#xa8;" horiz-adv-x="370" 
d="M91 565q-26 0 -43.5 17t-17.5 43t17.5 44t43.5 18q25 0 42 -17.5t17 -43.5t-17 -43.5t-42 -17.5zM281 565q-26 0 -43.5 17t-17.5 43t17.5 44t43.5 18q25 0 42 -17.5t17 -43.5t-17 -43.5t-42 -17.5z" />
    <glyph glyph-name="copyright" unicode="&#xa9;" horiz-adv-x="757" 
d="M378 690q147 0 248 -100.5t101 -248.5q0 -149 -101 -250t-248 -101t-247.5 101t-100.5 250q0 147 101 248t247 101zM378 23q132 0 221.5 92t89.5 226q0 132 -89.5 224t-221.5 92q-130 0 -220 -92t-90 -224q0 -133 90 -225.5t220 -92.5zM392 177q104 0 135 119l32 -10
q-13 -71 -58.5 -108.5t-112.5 -37.5q-88 0 -146 56.5t-58 143.5t58 143.5t146 56.5q76 0 123 -42t47 -84q0 -21 -13 -33t-30 -12q-16 0 -28 11t-12 28q0 29 31 36q-34 60 -109 60q-66 0 -104 -43t-38 -121q0 -76 37 -119.5t100 -43.5z" />
    <glyph glyph-name="ordfeminine" unicode="&#xaa;" horiz-adv-x="452" 
d="M386 328h36v-41h-103l-13 56q-34 -63 -117 -63q-61 0 -97.5 33.5t-36.5 86.5q0 51 36 83.5t97 32.5q79 0 114 -57v87q0 51 -25 80t-71 29q-49 0 -78 -25q14 -2 22 -12t8 -26q0 -18 -12 -30t-30 -12t-29.5 12.5t-11.5 31.5q0 38 41 67t101 29q68 0 107.5 -38t39.5 -104
v-198q0 -22 22 -22zM212 319q37 0 63.5 23.5t26.5 58.5q0 34 -26.5 57t-63.5 23q-41 0 -64.5 -22.5t-23.5 -58.5t23.5 -58.5t64.5 -22.5zM77 148v45h329v-45h-329z" />
    <glyph glyph-name="guillemotleft" unicode="&#xab;" horiz-adv-x="480" 
d="M250 84l-22 -22l-188 177v40l188 177l22 -22l-140 -173zM440 84l-22 -22l-188 177v40l188 177l22 -22l-140 -173z" />
    <glyph glyph-name="registered" unicode="&#xae;" horiz-adv-x="531" 
d="M265 690q100 0 168 -68t68 -168q0 -101 -68 -169.5t-168 -68.5q-99 0 -167 68.5t-68 169.5q0 100 68 168t167 68zM265 249q85 0 143 59.5t58 145.5q0 85 -58.5 144.5t-142.5 59.5q-83 0 -141.5 -59.5t-58.5 -144.5q0 -86 58.5 -145.5t141.5 -59.5zM357 372q6 -12 30 -12
h17v-26h-85l-30 72q-8 21 -39 21h-13v-55q0 -12 13 -12h30v-26h-129v26h26q11 0 11 12v176q0 12 -11 12h-26v27h124q45 0 73.5 -22.5t28.5 -55.5q0 -27 -18.5 -48.5t-49.5 -29.5q23 -9 34 -31zM237 454h30q28 0 42 15.5t14 39.5q0 22 -14 36.5t-42 14.5h-30v-106z" />
    <glyph glyph-name="macron" unicode="&#xaf;" horiz-adv-x="360" 
d="M50 648h260v-62h-260v62z" />
    <glyph glyph-name="degree" unicode="&#xb0;" horiz-adv-x="374" 
d="M187 370q-67 0 -112 46t-45 114t45 114t112 46t112 -46t45 -114t-45 -114t-112 -46zM187 418q45 0 75 32t30 80t-30 80.5t-75 32.5t-75.5 -32.5t-30.5 -80.5t30.5 -80t75.5 -32z" />
    <glyph glyph-name="plusminus" unicode="&#xb1;" horiz-adv-x="596" 
d="M272 363h-192v49h192v156h53v-156h191v-49h-191v-156h-53v156zM80 70v49h436v-49h-436z" />
    <glyph glyph-name="uni00B2" unicode="&#xb2;" horiz-adv-x="323" 
d="M260 419h43v-109h-277v36q30 31 74.5 72t62 59t32.5 44.5t15 53.5q0 35 -19 56.5t-53 21.5q-48 0 -69 -35q33 -4 33 -38q0 -17 -12 -29t-29 -12q-18 0 -29.5 12t-11.5 33q0 38 37 72t105 34q55 0 92 -29t37 -85q0 -22 -4.5 -41t-18 -36.5t-23 -29.5t-34 -29.5
t-35.5 -24.5t-44 -26.5t-44 -26.5l128 6q29 1 35.5 10.5t8.5 40.5z" />
    <glyph glyph-name="uni00B3" unicode="&#xb3;" horiz-adv-x="315" 
d="M180 499q53 -6 84 -31t31 -62q0 -46 -38 -74t-97 -28q-65 0 -102.5 31t-37.5 68q0 19 12 31.5t29 12.5t29 -11.5t12 -28.5q0 -28 -32 -36q26 -30 68 -30q33 0 53 17.5t20 48.5t-22 51t-56 20h-16v43h16q33 0 54 18t21 49q0 30 -19.5 47.5t-51.5 17.5q-39 0 -66 -27
q32 -10 32 -36q0 -17 -12 -28t-30 -11q-17 0 -29 12t-12 31q0 36 37.5 66t101.5 30q56 0 93.5 -28t37.5 -73q0 -36 -29.5 -60.5t-80.5 -29.5z" />
    <glyph glyph-name="acute" unicode="&#xb4;" horiz-adv-x="242" 
d="M53 572q14 26 33.5 64t32 60.5t21.5 32.5q15 16 35 18.5t36 -10.5q18 -14 18.5 -33.5t-14.5 -37.5q-9 -11 -27.5 -26.5t-55 -44t-55.5 -43.5z" />
    <glyph glyph-name="paragraph" unicode="&#xb6;" horiz-adv-x="677" 
d="M335 680h302v-50h-81q-31 0 -31 -31v-625q0 -164 -211 -164q-112 0 -155.5 30.5t-43.5 70.5q0 31 18.5 49.5t47.5 18.5q26 0 43 -16.5t17 -41.5q0 -19 -13.5 -35t-33.5 -22q18 -11 45 -11q52 0 69 28.5t17 92.5v290q-118 1 -191.5 57.5t-73.5 153.5q0 93 69.5 149
t205.5 56zM465 -26v656h-81v-656q0 -80 -29 -119q110 23 110 119z" />
    <glyph glyph-name="periodcentered" unicode="&#xb7;" horiz-adv-x="332" 
d="M167 392q25 0 42 -17.5t17 -43.5t-17 -43.5t-42 -17.5q-26 0 -43.5 18t-17.5 44t17.5 43t43.5 17z" />
    <glyph glyph-name="cedilla" unicode="&#xb8;" horiz-adv-x="249" 
d="M120 -67q48 0 79.5 -23.5t31.5 -58.5q0 -37 -35 -62.5t-85 -25.5q-47 0 -99 28l16 34q37 -20 77 -20q27 0 44 12.5t17 33.5q0 27 -29.5 39t-76.5 5l-9 17l62 93h42z" />
    <glyph glyph-name="uni00B9" unicode="&#xb9;" horiz-adv-x="270" 
d="M187 346h63v-43h-230v43h62q8 0 11 3t3 11v226h-74v34q6 1 18.5 2t16 1.5t12.5 2.5t12 3.5t8.5 4.5t7.5 7t5.5 9.5t5 12.5t2.5 17h62v-320q0 -14 15 -14z" />
    <glyph glyph-name="ordmasculine" unicode="&#xba;" horiz-adv-x="503" 
d="M251 690q88 0 145 -57.5t57 -146.5t-57 -147.5t-145 -58.5q-87 0 -144 58.5t-57 147.5q0 88 57 146t144 58zM252 319q60 0 92 43.5t32 123.5t-32 122.5t-92 42.5q-61 0 -93 -42.5t-32 -122.5t32 -123.5t93 -43.5zM78 193h347v-45h-347v45z" />
    <glyph glyph-name="guillemotright" unicode="&#xbb;" horiz-adv-x="480" 
d="M40 84l140 177l-140 173l22 22l188 -177v-40l-188 -177zM230 84l140 177l-140 173l22 22l188 -177v-40l-188 -177z" />
    <glyph glyph-name="onequarter" unicode="&#xbc;" horiz-adv-x="712" 
d="M610 678q27 -18 -2 -58q-14 -20 -98 -125t-116 -141l-13 10q26 47 94.5 163t79.5 131q28 40 55 20zM250 346v-43h-230v43h62q8 0 11 3t3 11v226h-74v34q6 1 18.5 2t16 1.5t12.5 2.5t12 3.5t8.5 4.5t7.5 7t5.5 9.5t5 12.5t2.5 17h62v-320q0 -14 15 -14h63zM692 100h-60
v-43q0 -14 15 -14h37v-43h-197v43h61q15 0 15 14v43h-165v42q93 92 107 195l1 7q1 6 1.5 8.5t2 8.5t4 9t6 7t9.5 5.5t13 1.5q14 0 23 -11t9 -31q0 -58 -38 -104.5t-102 -95.5h129v67q29 33 32 66h37v-133h60v-42zM139 62q21 27 103 129.5t112 136.5l13 -10
q-24 -42 -93.5 -160t-80.5 -134q-28 -40 -55 -20q-26 18 1 58z" />
    <glyph glyph-name="onehalf" unicode="&#xbd;" horiz-adv-x="781" 
d="M619 678q27 -18 -2 -58q-14 -20 -98 -125t-116 -141l-13 10q26 47 94.5 163t79.5 131q28 40 55 20zM250 346v-43h-230v43h62q8 0 11 3t3 11v226h-74v34q6 1 18.5 2t16 1.5t12.5 2.5t12 3.5t8.5 4.5t7.5 7t5.5 9.5t5 12.5t2.5 17h62v-320q0 -14 15 -14h63zM718 109h43
v-109h-277v36q30 31 74.5 72t62 59t32.5 44.5t15 53.5q0 35 -19 56.5t-53 21.5q-48 0 -69 -35q33 -4 33 -38q0 -17 -12 -29t-29 -12q-18 0 -29.5 12t-11.5 33q0 38 37 72t105 34q55 0 92 -29t37 -85q0 -22 -4.5 -41t-18 -36.5t-23 -29.5t-34 -29.5t-35.5 -24.5t-44 -26.5
t-44 -26.5l128 6q29 1 35.5 10.5t8.5 40.5zM148 62q21 27 103 129.5t112 136.5l13 -10q-24 -42 -93.5 -160t-80.5 -134q-28 -40 -55 -20q-26 18 1 58z" />
    <glyph glyph-name="threequarters" unicode="&#xbe;" horiz-adv-x="747" 
d="M180 499q53 -6 84 -31t31 -62q0 -46 -38 -74t-97 -28q-65 0 -102.5 31t-37.5 68q0 19 12 31.5t29 12.5t29 -11.5t12 -28.5q0 -28 -32 -36q26 -30 68 -30q33 0 53 17.5t20 48.5t-22 51t-56 20h-16v43h16q33 0 54 18t21 49q0 30 -19.5 47.5t-51.5 17.5q-39 0 -66 -27
q32 -10 32 -36q0 -17 -12 -28t-30 -11q-17 0 -29 12t-12 31q0 36 37.5 66t101.5 30q56 0 93.5 -28t37.5 -73q0 -36 -29.5 -60.5t-80.5 -29.5zM406 364q26 47 94.5 163t79.5 131q28 40 55 20q27 -18 -2 -58q-14 -20 -98 -125t-116 -141zM727 100h-60v-43q0 -14 15 -14h37v-43
h-197v43h61q15 0 15 14v43h-165v42q93 92 107 195l1 7q1 6 1.5 8.5t2 8.5t4 9t6 7t9.5 5.5t13 1.5q14 0 23 -11t9 -31q0 -58 -38 -104.5t-102 -95.5h129v67q29 33 32 66h37v-133h60v-42zM392 318q-24 -42 -93.5 -160t-80.5 -134q-28 -40 -55 -20q-26 18 1 58
q21 27 103 129.5t112 136.5z" />
    <glyph glyph-name="questiondown" unicode="&#xbf;" horiz-adv-x="474" 
d="M235 385q-25 0 -42 17.5t-17 43.5t17 43.5t42 17.5q26 0 43.5 -18t17.5 -44t-17.5 -43t-43.5 -17zM377 58q26 0 44 -18.5t18 -53.5q0 -64 -53 -120t-156 -56q-91 0 -148 46t-57 123q0 47 22.5 91t61 78t76.5 58.5t81 44.5l19 -25q-33 -24 -57 -44.5t-51.5 -51.5
t-42.5 -67.5t-15 -75.5q0 -59 33.5 -91.5t93.5 -32.5q53 0 86.5 23.5t46.5 55.5q-25 1 -44 16.5t-19 40.5q0 26 17 42.5t44 16.5z" />
    <glyph glyph-name="Agrave" unicode="&#xc0;" horiz-adv-x="725" 
d="M403 732q-19 15 -55.5 43.5t-55 44t-27.5 26.5q-15 18 -14.5 37.5t18.5 33.5q16 13 36 10.5t35 -18.5q9 -10 21.5 -32.5t32 -60.5t33.5 -64zM690 50h35v-50h-261v50h64q15 0 21.5 8.5t0.5 21.5l-51 115h-300l-48 -114q-5 -13 0.5 -22t20.5 -9h74v-50h-246v50h38
q34 0 48 34l258 596h30l268 -600q14 -30 48 -30zM219 242h260l-133 301z" />
    <glyph glyph-name="Aacute" unicode="&#xc1;" horiz-adv-x="725" 
d="M501 846q-9 -11 -27.5 -26.5t-55 -44t-55.5 -43.5l-24 20q14 26 33.5 64t32 60.5t21.5 32.5q15 16 35 18.5t36 -10.5q18 -14 18.5 -33.5t-14.5 -37.5zM690 50h35v-50h-261v50h64q15 0 21.5 8.5t0.5 21.5l-51 115h-300l-48 -114q-5 -13 0.5 -22t20.5 -9h74v-50h-246v50h38
q34 0 48 34l258 596h30l268 -600q14 -30 48 -30zM219 242h260l-133 301z" />
    <glyph glyph-name="Acircumflex" unicode="&#xc2;" horiz-adv-x="725" 
d="M358 820l-103 -82l-25 20l96 137q18 25 31 25q14 0 32 -25l97 -137l-25 -20zM690 50h35v-50h-261v50h64q15 0 21.5 8.5t0.5 21.5l-51 115h-300l-48 -114q-5 -13 0.5 -22t20.5 -9h74v-50h-246v50h38q34 0 48 34l258 596h30l268 -600q14 -30 48 -30zM219 242h260l-133 301z
" />
    <glyph glyph-name="Atilde" unicode="&#xc3;" horiz-adv-x="725" 
d="M283 805q-6 0 -10.5 -1.5t-8 -2.5t-6.5 -5l-4.5 -6t-3.5 -8t-3 -8t-3 -10t-2 -9l-36 12q9 100 84 100q33 0 79 -28.5t65 -28.5q7 0 13 2.5t10 6t7 9.5t4 10t3 10.5t2 7.5l36 -5q-9 -103 -84 -103q-30 0 -74.5 28.5t-67.5 28.5zM690 50h35v-50h-261v50h64q15 0 21.5 8.5
t0.5 21.5l-51 115h-300l-48 -114q-5 -13 0.5 -22t20.5 -9h74v-50h-246v50h38q34 0 48 34l258 596h30l268 -600q14 -30 48 -30zM219 242h260l-133 301z" />
    <glyph glyph-name="Adieresis" unicode="&#xc4;" horiz-adv-x="725" 
d="M264 745q-26 0 -43.5 17t-17.5 43t17.5 44t43.5 18q25 0 42 -17.5t17 -43.5t-17 -43.5t-42 -17.5zM454 745q-26 0 -43.5 17t-17.5 43t17.5 44t43.5 18q25 0 42 -17.5t17 -43.5t-17 -43.5t-42 -17.5zM690 50h35v-50h-261v50h64q15 0 21.5 8.5t0.5 21.5l-51 115h-300
l-48 -114q-5 -13 0.5 -22t20.5 -9h74v-50h-246v50h38q34 0 48 34l258 596h30l268 -600q14 -30 48 -30zM219 242h260l-133 301z" />
    <glyph glyph-name="Aring" unicode="&#xc5;" horiz-adv-x="725" 
d="M358 734q-45 0 -75 28t-30 70t30 70t75 28t75 -28t30 -70t-30 -70t-75 -28zM358 888q-24 0 -39.5 -16t-15.5 -40t15.5 -39.5t39.5 -15.5t39.5 15.5t15.5 39.5t-15.5 40t-39.5 16zM690 50h35v-50h-261v50h64q15 0 21.5 8.5t0.5 21.5l-51 115h-300l-48 -114q-5 -13 0.5 -22
t20.5 -9h74v-50h-246v50h38q34 0 48 34l258 596h30l268 -600q14 -30 48 -30zM219 242h260l-133 301z" />
    <glyph glyph-name="AE" unicode="&#xc6;" horiz-adv-x="1005" 
d="M890 195h50v-195h-570v50h89q31 0 31 31v114h-259l-75 -114q-8 -13 -1 -22t22 -9h74v-50h-251v50h38q17 0 26.5 8t21.5 26l347 520q10 14 4 22q-3 4 -30 4h-62v50h565v-195h-50q-8 78 -18 99q-19 46 -80 46h-187v-309h117q12 0 22 2.5t17 5.5t12.5 10.5t8 11t5.5 15.5
t4 15.5t3 18t2 16.5h44v-240h-44q-1 5 -2.5 19.5t-3 20t-4.5 17t-7.5 16t-12 11t-18.5 9t-26 2.5h-117v-221h217q39 0 60.5 21t26 41t9.5 67q1 11 2 16zM261 242h229v349z" />
    <glyph glyph-name="Ccedilla" unicode="&#xc7;" horiz-adv-x="746" 
d="M404 -10q-19 0 -28 1l-28 -58q48 0 79.5 -23.5t31.5 -58.5q0 -37 -35 -62.5t-85 -25.5q-47 0 -99 28l16 34q37 -20 77 -20q27 0 44 12.5t17 33.5q0 27 -29.5 39t-76.5 5l-9 17l56 84q-124 23 -202 118t-78 226q0 150 99 250t248 100q68 0 125 -22.5t90.5 -57t52 -70.5
t18.5 -67q0 -33 -19.5 -50.5t-45.5 -17.5q-27 0 -44 16.5t-17 40.5q0 25 16 39.5t45 14.5q-68 120 -208 120q-119 0 -189 -80t-70 -216t67.5 -216t179.5 -80q88 0 151 51.5t88 154.5l54 -11q-24 -121 -101 -185t-191 -64z" />
    <glyph glyph-name="Egrave" unicode="&#xc8;" horiz-adv-x="660" 
d="M399 752l-24 -20q-19 15 -55.5 43.5t-55 44t-27.5 26.5q-15 18 -14.5 37.5t18.5 33.5q16 13 36 10.5t35 -18.5q9 -10 21.5 -32.5t32 -60.5t33.5 -64zM545 195h50v-195h-560v50h79q31 0 31 31v518q0 31 -31 31h-79v50h530v-195h-50q-8 78 -18 99q-19 46 -80 46h-187v-309
h117q12 0 22 2.5t17 5.5t12.5 10.5t8 11t5.5 15.5t4 15.5t3 18t2 16.5h44v-240h-44q-1 5 -2.5 19.5t-3 20t-4.5 17t-7.5 16t-12 11t-18.5 9t-26 2.5h-117v-221h217q39 0 60.5 21t26 41t9.5 67q1 11 2 16z" />
    <glyph glyph-name="Eacute" unicode="&#xc9;" horiz-adv-x="660" 
d="M311 752q14 26 33.5 64t32 60.5t21.5 32.5q15 16 35 18.5t36 -10.5q18 -14 18.5 -33.5t-14.5 -37.5q-9 -11 -27.5 -26.5t-55 -44t-55.5 -43.5zM545 195h50v-195h-560v50h79q31 0 31 31v518q0 31 -31 31h-79v50h530v-195h-50q-8 78 -18 99q-19 46 -80 46h-187v-309h117
q12 0 22 2.5t17 5.5t12.5 10.5t8 11t5.5 15.5t4 15.5t3 18t2 16.5h44v-240h-44q-1 5 -2.5 19.5t-3 20t-4.5 17t-7.5 16t-12 11t-18.5 9t-26 2.5h-117v-221h217q39 0 60.5 21t26 41t9.5 67q1 11 2 16z" />
    <glyph glyph-name="Ecircumflex" unicode="&#xca;" horiz-adv-x="660" 
d="M227 738l-25 20l96 137q18 25 31 25q14 0 32 -25l97 -137l-25 -20l-103 82zM545 195h50v-195h-560v50h79q31 0 31 31v518q0 31 -31 31h-79v50h530v-195h-50q-8 78 -18 99q-19 46 -80 46h-187v-309h117q12 0 22 2.5t17 5.5t12.5 10.5t8 11t5.5 15.5t4 15.5t3 18t2 16.5h44
v-240h-44q-1 5 -2.5 19.5t-3 20t-4.5 17t-7.5 16t-12 11t-18.5 9t-26 2.5h-117v-221h217q39 0 60.5 21t26 41t9.5 67q1 11 2 16z" />
    <glyph glyph-name="Edieresis" unicode="&#xcb;" horiz-adv-x="660" 
d="M236 745q-26 0 -43.5 17t-17.5 43t17.5 44t43.5 18q25 0 42 -17.5t17 -43.5t-17 -43.5t-42 -17.5zM426 745q-26 0 -43.5 17t-17.5 43t17.5 44t43.5 18q25 0 42 -17.5t17 -43.5t-17 -43.5t-42 -17.5zM545 195h50v-195h-560v50h79q31 0 31 31v518q0 31 -31 31h-79v50h530
v-195h-50q-8 78 -18 99q-19 46 -80 46h-187v-309h117q12 0 22 2.5t17 5.5t12.5 10.5t8 11t5.5 15.5t4 15.5t3 18t2 16.5h44v-240h-44q-1 5 -2.5 19.5t-3 20t-4.5 17t-7.5 16t-12 11t-18.5 9t-26 2.5h-117v-221h217q39 0 60.5 21t26 41t9.5 67q1 11 2 16z" />
    <glyph glyph-name="Igrave" unicode="&#xcc;" horiz-adv-x="399" 
d="M269 752l-24 -20q-19 15 -55.5 43.5t-55 44t-27.5 26.5q-15 18 -14.5 37.5t18.5 33.5q16 13 36 10.5t35 -18.5q9 -10 21.5 -32.5t32 -60.5t33.5 -64zM273 630q-31 0 -31 -31v-518q0 -31 31 -31h81v-50h-309v50h81q31 0 31 31v518q0 31 -31 31h-81v50h309v-50h-81z" />
    <glyph glyph-name="Iacute" unicode="&#xcd;" horiz-adv-x="399" 
d="M181 752q14 26 33.5 64t32 60.5t21.5 32.5q15 16 35 18.5t36 -10.5q18 -14 18.5 -33.5t-14.5 -37.5q-9 -11 -27.5 -26.5t-55 -44t-55.5 -43.5zM273 630q-31 0 -31 -31v-518q0 -31 31 -31h81v-50h-309v50h81q31 0 31 31v518q0 31 -31 31h-81v50h309v-50h-81z" />
    <glyph glyph-name="Icircumflex" unicode="&#xce;" horiz-adv-x="399" 
d="M97 738l-25 20l96 137q18 25 31 25q14 0 32 -25l97 -137l-25 -20l-103 82zM273 630q-31 0 -31 -31v-518q0 -31 31 -31h81v-50h-309v50h81q31 0 31 31v518q0 31 -31 31h-81v50h309v-50h-81z" />
    <glyph glyph-name="Idieresis" unicode="&#xcf;" horiz-adv-x="399" 
d="M106 745q-26 0 -43.5 17t-17.5 43t17.5 44t43.5 18q25 0 42 -17.5t17 -43.5t-17 -43.5t-42 -17.5zM296 745q-26 0 -43.5 17t-17.5 43t17.5 44t43.5 18q25 0 42 -17.5t17 -43.5t-17 -43.5t-42 -17.5zM273 630q-31 0 -31 -31v-518q0 -31 31 -31h81v-50h-309v50h81
q31 0 31 31v518q0 31 -31 31h-81v50h309v-50h-81z" />
    <glyph glyph-name="Eth" unicode="&#xd0;" horiz-adv-x="782" 
d="M370 680q155 0 256 -94t101 -246t-101 -246t-256 -94h-335v50h79q31 0 31 31v226h-90v50h90v242q0 31 -31 31h-79v50h335zM370 50q113 0 184.5 79.5t71.5 210.5t-71.5 210.5t-184.5 79.5h-140v-273h175v-50h-175v-257h140z" />
    <glyph glyph-name="Ntilde" unicode="&#xd1;" horiz-adv-x="785" 
d="M544 851q-9 -103 -84 -103q-30 0 -74.5 28.5t-67.5 28.5q-6 0 -10.5 -1.5t-8 -2.5t-6.5 -5l-4.5 -6t-3.5 -8t-3 -8t-3 -10t-2 -9l-36 12q9 100 84 100q33 0 79 -28.5t65 -28.5q7 0 13 2.5t10 6t7 9.5t4 10t3 10.5t2 7.5zM760 680v-50h-79q-31 0 -31 -31v-599h-28
l-419 585v-504q0 -31 31 -31h79v-50h-278v50h79q31 0 31 31v518q0 31 -31 31h-79v50h188l369 -506v425q0 31 -31 31h-79v50h278z" />
    <glyph glyph-name="Ograve" unicode="&#xd2;" horiz-adv-x="804" 
d="M471 752l-24 -20q-19 15 -55.5 43.5t-55 44t-27.5 26.5q-15 18 -14.5 37.5t18.5 33.5q16 13 36 10.5t35 -18.5q9 -10 21.5 -32.5t32 -60.5t33.5 -64zM402 690q148 0 247.5 -102t99.5 -248t-99.5 -248t-247.5 -102t-247.5 102t-99.5 248t99.5 248t247.5 102zM402 44
q111 0 178.5 81.5t67.5 214.5t-67.5 214.5t-178.5 81.5t-178.5 -81.5t-67.5 -214.5t67.5 -214.5t178.5 -81.5z" />
    <glyph glyph-name="Oacute" unicode="&#xd3;" horiz-adv-x="804" 
d="M383 752q14 26 33.5 64t32 60.5t21.5 32.5q15 16 35 18.5t36 -10.5q18 -14 18.5 -33.5t-14.5 -37.5q-9 -11 -27.5 -26.5t-55 -44t-55.5 -43.5zM402 690q148 0 247.5 -102t99.5 -248t-99.5 -248t-247.5 -102t-247.5 102t-99.5 248t99.5 248t247.5 102zM402 44
q111 0 178.5 81.5t67.5 214.5t-67.5 214.5t-178.5 81.5t-178.5 -81.5t-67.5 -214.5t67.5 -214.5t178.5 -81.5z" />
    <glyph glyph-name="Ocircumflex" unicode="&#xd4;" horiz-adv-x="804" 
d="M299 738l-25 20l96 137q18 25 31 25q14 0 32 -25l97 -137l-25 -20l-103 82zM402 690q148 0 247.5 -102t99.5 -248t-99.5 -248t-247.5 -102t-247.5 102t-99.5 248t99.5 248t247.5 102zM402 44q111 0 178.5 81.5t67.5 214.5t-67.5 214.5t-178.5 81.5t-178.5 -81.5
t-67.5 -214.5t67.5 -214.5t178.5 -81.5z" />
    <glyph glyph-name="Otilde" unicode="&#xd5;" horiz-adv-x="804" 
d="M553 851q-9 -103 -84 -103q-30 0 -74.5 28.5t-67.5 28.5q-6 0 -10.5 -1.5t-8 -2.5t-6.5 -5l-4.5 -6t-3.5 -8t-3 -8t-3 -10t-2 -9l-36 12q9 100 84 100q33 0 79 -28.5t65 -28.5q7 0 13 2.5t10 6t7 9.5t4 10t3 10.5t2 7.5zM402 690q148 0 247.5 -102t99.5 -248t-99.5 -248
t-247.5 -102t-247.5 102t-99.5 248t99.5 248t247.5 102zM402 44q111 0 178.5 81.5t67.5 214.5t-67.5 214.5t-178.5 81.5t-178.5 -81.5t-67.5 -214.5t67.5 -214.5t178.5 -81.5z" />
    <glyph glyph-name="Odieresis" unicode="&#xd6;" horiz-adv-x="804" 
d="M308 745q-26 0 -43.5 17t-17.5 43t17.5 44t43.5 18q25 0 42 -17.5t17 -43.5t-17 -43.5t-42 -17.5zM498 745q-26 0 -43.5 17t-17.5 43t17.5 44t43.5 18q25 0 42 -17.5t17 -43.5t-17 -43.5t-42 -17.5zM402 690q148 0 247.5 -102t99.5 -248t-99.5 -248t-247.5 -102
t-247.5 102t-99.5 248t99.5 248t247.5 102zM402 44q111 0 178.5 81.5t67.5 214.5t-67.5 214.5t-178.5 81.5t-178.5 -81.5t-67.5 -214.5t67.5 -214.5t178.5 -81.5z" />
    <glyph glyph-name="multiply" unicode="&#xd7;" horiz-adv-x="596" 
d="M491 140l-34 -35l-159 159l-158 -158l-35 34l159 159l-158 157l35 34l157 -157l158 158l34 -35l-157 -157z" />
    <glyph glyph-name="Oslash" unicode="&#xd8;" horiz-adv-x="824" 
d="M775 647l-91 -86q75 -96 75 -221q0 -146 -99.5 -248t-247.5 -102q-139 0 -236 91l-92 -87l-35 44l90 84q-74 93 -74 218q0 146 99.5 248t247.5 102q138 0 237 -91l91 85zM166 340q0 -91 34 -161l395 370q-68 87 -183 87q-111 0 -178.5 -81.5t-67.5 -214.5zM658 340
q0 94 -35 164l-394 -373q68 -87 183 -87q111 0 178.5 81.5t67.5 214.5z" />
    <glyph glyph-name="Ugrave" unicode="&#xd9;" horiz-adv-x="726" 
d="M452 752l-24 -20q-19 15 -55.5 43.5t-55 44t-27.5 26.5q-15 18 -14.5 37.5t18.5 33.5q16 13 36 10.5t35 -18.5q9 -10 21.5 -32.5t32 -60.5t33.5 -64zM711 680v-50h-69q-31 0 -31 -31v-389q0 -101 -65 -160.5t-172 -59.5q-113 0 -186 63t-73 157v389q0 31 -31 31h-69v50
h304v-50h-88q-31 0 -31 -31v-389q0 -72 48.5 -119t128.5 -47q78 0 127 45.5t49 120.5v389q0 31 -31 31h-75v50h264z" />
    <glyph glyph-name="Uacute" unicode="&#xda;" horiz-adv-x="726" 
d="M364 752q14 26 33.5 64t32 60.5t21.5 32.5q15 16 35 18.5t36 -10.5q18 -14 18.5 -33.5t-14.5 -37.5q-9 -11 -27.5 -26.5t-55 -44t-55.5 -43.5zM711 680v-50h-69q-31 0 -31 -31v-389q0 -101 -65 -160.5t-172 -59.5q-113 0 -186 63t-73 157v389q0 31 -31 31h-69v50h304v-50
h-88q-31 0 -31 -31v-389q0 -72 48.5 -119t128.5 -47q78 0 127 45.5t49 120.5v389q0 31 -31 31h-75v50h264z" />
    <glyph glyph-name="Ucircumflex" unicode="&#xdb;" horiz-adv-x="726" 
d="M280 738l-25 20l96 137q17 25 31 25t32 -25l97 -137l-25 -20l-103 82zM711 680v-50h-69q-31 0 -31 -31v-389q0 -101 -65 -160.5t-172 -59.5q-113 0 -186 63t-73 157v389q0 31 -31 31h-69v50h304v-50h-88q-31 0 -31 -31v-389q0 -72 48.5 -119t128.5 -47q78 0 127 45.5
t49 120.5v389q0 31 -31 31h-75v50h264z" />
    <glyph glyph-name="Udieresis" unicode="&#xdc;" horiz-adv-x="726" 
d="M289 745q-26 0 -43.5 17t-17.5 43t17.5 44t43.5 18q25 0 42 -17.5t17 -43.5t-17 -43.5t-42 -17.5zM479 745q-26 0 -43.5 17t-17.5 43t17.5 44t43.5 18q25 0 42 -17.5t17 -43.5t-17 -43.5t-42 -17.5zM711 680v-50h-69q-31 0 -31 -31v-389q0 -101 -65 -160.5t-172 -59.5
q-113 0 -186 63t-73 157v389q0 31 -31 31h-69v50h304v-50h-88q-31 0 -31 -31v-389q0 -72 48.5 -119t128.5 -47q78 0 127 45.5t49 120.5v389q0 31 -31 31h-75v50h264z" />
    <glyph glyph-name="Yacute" unicode="&#xdd;" horiz-adv-x="665" 
d="M484 846q-9 -11 -27.5 -26.5t-55 -44t-55.5 -43.5l-24 20q14 26 33.5 64t32 60.5t21.5 32.5q15 16 35 18.5t36 -10.5q18 -14 18.5 -33.5t-14.5 -37.5zM404 680h261v-50h-57q-37 0 -56 -32l-183 -307v-210q0 -31 31 -31h79v-50h-305v50h79q31 0 31 31v209l-177 312
q-15 28 -51 28h-56v50h281v-50h-63q-34 0 -18 -31l139 -262l155 265q7 13 2.5 20.5t-19.5 7.5h-73v50z" />
    <glyph glyph-name="Thorn" unicode="&#xde;" horiz-adv-x="635" 
d="M330 135h-100v-54q0 -31 31 -31h89v-50h-315v50h79q31 0 31 31v518q0 31 -31 31h-79v50h315v-50h-89q-31 0 -31 -31v-43h100q126 0 198 -59.5t72 -147.5q0 -91 -72 -152.5t-198 -61.5zM330 506h-100v-322h100q89 0 132.5 50t43.5 115q0 62 -43.5 109.5t-132.5 47.5z" />
    <glyph glyph-name="germandbls" unicode="&#xdf;" 
d="M372 357q0 -16 21.5 -31t52 -30t61 -33.5t52 -49.5t21.5 -71q0 -65 -51 -108.5t-128 -43.5q-72 0 -111 38.5t-39 88.5q0 30 15.5 48.5t39.5 18.5q22 0 37 -15t15 -39q0 -23 -15.5 -36.5t-44.5 -12.5q32 -49 102 -49q44 0 72.5 25t28.5 62q0 30 -18.5 52t-45.5 35
t-54 26.5t-45.5 37t-18.5 55.5q0 26 12.5 47.5t30 36.5t34.5 31t29.5 40t12.5 54q0 50 -30.5 80.5t-84.5 30.5q-65 0 -97.5 -46.5t-32.5 -129.5v-469h-173v50h64q31 0 31 31v338q0 31 -31 31h-64v50h97v1q0 88 58 138.5t151 50.5q86 0 137 -42.5t51 -112.5q0 -36 -14.5 -63
t-35.5 -42t-42 -26t-35.5 -22.5t-14.5 -24.5z" />
    <glyph glyph-name="agrave" unicode="&#xe0;" horiz-adv-x="564" 
d="M310 552q-19 15 -55.5 43.5t-55 44t-27.5 26.5q-15 18 -14.5 37.5t18.5 33.5q16 13 36 10.5t35 -18.5q9 -10 21.5 -32.5t32 -60.5t33.5 -64zM483 50h54v-50h-133l-26 67q-21 -36 -60.5 -56.5t-87.5 -20.5q-79 0 -132 43.5t-53 108.5q0 64 53 107t132 43q99 0 144 -68v109
q0 59 -35 94t-95 35q-56 0 -92 -26q17 -5 28.5 -19.5t11.5 -34.5q0 -24 -17 -41t-43 -17q-25 0 -41 16.5t-16 42.5q0 49 56 86.5t133 37.5q87 0 137.5 -47t50.5 -127v-252q0 -31 31 -31zM251 42q52 0 87.5 28.5t35.5 72.5t-35.5 72.5t-87.5 28.5t-86.5 -29t-34.5 -73
q0 -43 34.5 -71.5t86.5 -28.5z" />
    <glyph glyph-name="aacute" unicode="&#xe1;" horiz-adv-x="564" 
d="M408 666q-9 -11 -27.5 -26.5t-55 -44t-55.5 -43.5l-24 20q14 26 33.5 64t32 60.5t21.5 32.5q15 16 35 18.5t36 -10.5q18 -14 18.5 -33.5t-14.5 -37.5zM483 50h54v-50h-133l-26 67q-21 -36 -60.5 -56.5t-87.5 -20.5q-79 0 -132 43.5t-53 108.5q0 64 53 107t132 43
q99 0 144 -68v109q0 59 -35 94t-95 35q-56 0 -92 -26q17 -5 28.5 -19.5t11.5 -34.5q0 -24 -17 -41t-43 -17q-25 0 -41 16.5t-16 42.5q0 49 56 86.5t133 37.5q87 0 137.5 -47t50.5 -127v-252q0 -31 31 -31zM251 42q52 0 87.5 28.5t35.5 72.5t-35.5 72.5t-87.5 28.5t-86.5 -29
t-34.5 -73q0 -43 34.5 -71.5t86.5 -28.5z" />
    <glyph glyph-name="acircumflex" unicode="&#xe2;" horiz-adv-x="564" 
d="M265 640l-103 -82l-25 20l96 137q18 25 31 25q14 0 32 -25l97 -137l-25 -20zM483 50h54v-50h-133l-26 67q-21 -36 -60.5 -56.5t-87.5 -20.5q-79 0 -132 43.5t-53 108.5q0 64 53 107t132 43q99 0 144 -68v109q0 59 -35 94t-95 35q-56 0 -92 -26q17 -5 28.5 -19.5
t11.5 -34.5q0 -24 -17 -41t-43 -17q-25 0 -41 16.5t-16 42.5q0 49 56 86.5t133 37.5q87 0 137.5 -47t50.5 -127v-252q0 -31 31 -31zM251 42q52 0 87.5 28.5t35.5 72.5t-35.5 72.5t-87.5 28.5t-86.5 -29t-34.5 -73q0 -43 34.5 -71.5t86.5 -28.5z" />
    <glyph glyph-name="atilde" unicode="&#xe3;" horiz-adv-x="564" 
d="M190 625q-6 0 -10.5 -1.5t-8 -2.5t-6.5 -5l-4.5 -6t-3.5 -8t-3 -8t-3 -10t-2 -9l-36 12q9 100 84 100q33 0 79 -28.5t65 -28.5q7 0 13 2.5t10 6t7 9.5t4 10t3 10.5t2 7.5l36 -5q-9 -103 -84 -103q-30 0 -74.5 28.5t-67.5 28.5zM483 50h54v-50h-133l-26 67
q-21 -36 -60.5 -56.5t-87.5 -20.5q-79 0 -132 43.5t-53 108.5q0 64 53 107t132 43q99 0 144 -68v109q0 59 -35 94t-95 35q-56 0 -92 -26q17 -5 28.5 -19.5t11.5 -34.5q0 -24 -17 -41t-43 -17q-25 0 -41 16.5t-16 42.5q0 49 56 86.5t133 37.5q87 0 137.5 -47t50.5 -127v-252
q0 -31 31 -31zM251 42q52 0 87.5 28.5t35.5 72.5t-35.5 72.5t-87.5 28.5t-86.5 -29t-34.5 -73q0 -43 34.5 -71.5t86.5 -28.5z" />
    <glyph glyph-name="adieresis" unicode="&#xe4;" horiz-adv-x="564" 
d="M171 565q-26 0 -43.5 17t-17.5 43t17.5 44t43.5 18q25 0 42 -17.5t17 -43.5t-17 -43.5t-42 -17.5zM361 565q-26 0 -43.5 17t-17.5 43t17.5 44t43.5 18q25 0 42 -17.5t17 -43.5t-17 -43.5t-42 -17.5zM483 50h54v-50h-133l-26 67q-21 -36 -60.5 -56.5t-87.5 -20.5
q-79 0 -132 43.5t-53 108.5q0 64 53 107t132 43q99 0 144 -68v109q0 59 -35 94t-95 35q-56 0 -92 -26q17 -5 28.5 -19.5t11.5 -34.5q0 -24 -17 -41t-43 -17q-25 0 -41 16.5t-16 42.5q0 49 56 86.5t133 37.5q87 0 137.5 -47t50.5 -127v-252q0 -31 31 -31zM251 42
q52 0 87.5 28.5t35.5 72.5t-35.5 72.5t-87.5 28.5t-86.5 -29t-34.5 -73q0 -43 34.5 -71.5t86.5 -28.5z" />
    <glyph glyph-name="aring" unicode="&#xe5;" horiz-adv-x="564" 
d="M265 554q-45 0 -75 28t-30 70t30 70t75 28t75 -28t30 -70t-30 -70t-75 -28zM265 708q-23 0 -39 -16t-16 -40t15.5 -39.5t39.5 -15.5t39.5 15.5t15.5 39.5t-16 40t-39 16zM483 50h54v-50h-133l-26 67q-21 -36 -60.5 -56.5t-87.5 -20.5q-79 0 -132 43.5t-53 108.5
q0 64 53 107t132 43q99 0 144 -68v109q0 59 -35 94t-95 35q-56 0 -92 -26q17 -5 28.5 -19.5t11.5 -34.5q0 -24 -17 -41t-43 -17q-25 0 -41 16.5t-16 42.5q0 49 56 86.5t133 37.5q87 0 137.5 -47t50.5 -127v-252q0 -31 31 -31zM251 42q52 0 87.5 28.5t35.5 72.5t-35.5 72.5
t-87.5 28.5t-86.5 -29t-34.5 -73q0 -43 34.5 -71.5t86.5 -28.5z" />
    <glyph glyph-name="ae" unicode="&#xe6;" horiz-adv-x="877" 
d="M837 246v-11h-377q4 -87 47 -139.5t120 -52.5q63 0 105 36t56 99l47 -9q-17 -82 -75.5 -130.5t-144.5 -48.5q-67 0 -119.5 30t-83.5 83q-18 -47 -66 -80t-105 -33q-84 0 -140 43.5t-56 108.5q0 64 53 107t132 43q99 0 144 -68v109q0 59 -35 94t-95 35q-56 0 -92 -26
q17 -5 28.5 -19.5t11.5 -34.5q0 -24 -17 -41t-43 -17q-25 0 -41 16.5t-16 42.5q0 49 56 86.5t133 37.5q122 0 169 -88q69 88 183 88q100 0 160.5 -71.5t60.5 -189.5zM461 278h290q-11 183 -133 183q-67 0 -108.5 -50.5t-48.5 -132.5zM251 42q53 0 88 29t35 72
q0 44 -35.5 72.5t-87.5 28.5t-86.5 -29t-34.5 -73q0 -43 34.5 -71.5t86.5 -28.5z" />
    <glyph glyph-name="ccedilla" unicode="&#xe7;" horiz-adv-x="550" 
d="M510 169q-18 -89 -75.5 -133.5t-138.5 -45.5l-28 -57q48 0 79.5 -23.5t31.5 -58.5q0 -37 -35 -62.5t-85 -25.5q-47 0 -99 28l16 34q37 -20 77 -20q27 0 44 12.5t17 33.5q0 27 -29.5 39t-76.5 5l-9 17l54 81q-94 14 -153.5 84t-59.5 170q0 115 76 187.5t182 72.5
q91 0 148.5 -52t57.5 -116q0 -25 -16 -42t-40 -17q-28 0 -44.5 15.5t-16.5 40.5q0 23 16.5 37.5t38.5 16.5q-38 67 -133 67q-89 0 -136.5 -54.5t-47.5 -151.5t47 -152.5t131 -55.5q132 0 160 135z" />
    <glyph glyph-name="egrave" unicode="&#xe8;" horiz-adv-x="542" 
d="M326 552q-19 15 -55.5 43.5t-55 44t-27.5 26.5q-15 18 -14.5 37.5t18.5 33.5q16 13 36 10.5t35 -18.5q9 -10 21.5 -32.5t32 -60.5t33.5 -64zM125 235q4 -87 47 -139.5t120 -52.5q63 0 105 36t56 99l47 -9q-17 -82 -75.5 -130.5t-144.5 -48.5q-107 0 -173.5 72.5
t-66.5 182.5q0 112 68.5 187t172.5 75q100 0 160.5 -71.5t60.5 -189.5v-11h-377zM283 461q-67 0 -108.5 -50.5t-48.5 -132.5h290q-11 183 -133 183z" />
    <glyph glyph-name="eacute" unicode="&#xe9;" horiz-adv-x="542" 
d="M424 666q-9 -11 -27.5 -26.5t-55 -44t-55.5 -43.5l-24 20q14 26 33.5 64t32 60.5t21.5 32.5q15 16 35 18.5t36 -10.5q18 -14 18.5 -33.5t-14.5 -37.5zM125 235q4 -87 47 -139.5t120 -52.5q63 0 105 36t56 99l47 -9q-17 -82 -75.5 -130.5t-144.5 -48.5q-107 0 -173.5 72.5
t-66.5 182.5q0 112 68.5 187t172.5 75q100 0 160.5 -71.5t60.5 -189.5v-11h-377zM283 461q-67 0 -108.5 -50.5t-48.5 -132.5h290q-11 183 -133 183z" />
    <glyph glyph-name="ecircumflex" unicode="&#xea;" horiz-adv-x="542" 
d="M281 640l-103 -82l-25 20l96 137q17 25 31 25t32 -25l97 -137l-25 -20zM125 235q4 -87 47 -139.5t120 -52.5q63 0 105 36t56 99l47 -9q-17 -82 -75.5 -130.5t-144.5 -48.5q-107 0 -173.5 72.5t-66.5 182.5q0 112 68.5 187t172.5 75q100 0 160.5 -71.5t60.5 -189.5v-11
h-377zM283 461q-67 0 -108.5 -50.5t-48.5 -132.5h290q-11 183 -133 183z" />
    <glyph glyph-name="edieresis" unicode="&#xeb;" horiz-adv-x="542" 
d="M187 565q-26 0 -43.5 17t-17.5 43t17.5 44t43.5 18q25 0 42 -17.5t17 -43.5t-17 -43.5t-42 -17.5zM377 565q-26 0 -43.5 17t-17.5 43t17.5 44t43.5 18q25 0 42 -17.5t17 -43.5t-17 -43.5t-42 -17.5zM125 235q4 -87 47 -139.5t120 -52.5q63 0 105 36t56 99l47 -9
q-17 -82 -75.5 -130.5t-144.5 -48.5q-107 0 -173.5 72.5t-66.5 182.5q0 112 68.5 187t172.5 75q100 0 160.5 -71.5t60.5 -189.5v-11h-377zM283 461q-67 0 -108.5 -50.5t-48.5 -132.5h290q-11 183 -133 183z" />
    <glyph glyph-name="igrave" unicode="&#xec;" horiz-adv-x="338" 
d="M238 572l-24 -20q-19 15 -55.5 43.5t-55 44t-27.5 26.5q-15 18 -14.5 37.5t18.5 33.5q16 13 36 10.5t35 -18.5q9 -10 21.5 -32.5t32 -60.5t33.5 -64zM249 50h64v-50h-268v50h64q31 0 31 31v338q0 31 -31 31h-64v50h173v-419q0 -31 31 -31z" />
    <glyph glyph-name="iacute" unicode="&#xed;" horiz-adv-x="338" 
d="M150 572q14 26 33.5 64t32 60.5t21.5 32.5q15 16 35 18.5t36 -10.5q18 -14 18.5 -33.5t-14.5 -37.5q-9 -11 -27.5 -26.5t-55 -44t-55.5 -43.5zM249 50h64v-50h-268v50h64q31 0 31 31v338q0 31 -31 31h-64v50h173v-419q0 -31 31 -31z" />
    <glyph glyph-name="icircumflex" unicode="&#xee;" horiz-adv-x="338" 
d="M66 558l-25 20l96 137q18 25 31 25q14 0 32 -25l97 -137l-25 -20l-103 82zM249 50h64v-50h-268v50h64q31 0 31 31v338q0 31 -31 31h-64v50h173v-419q0 -31 31 -31z" />
    <glyph glyph-name="idieresis" unicode="&#xef;" horiz-adv-x="338" 
d="M75 565q-26 0 -43.5 17t-17.5 43t17.5 44t43.5 18q25 0 42 -17.5t17 -43.5t-17 -43.5t-42 -17.5zM265 565q-26 0 -43.5 17t-17.5 43t17.5 44t43.5 18q25 0 42 -17.5t17 -43.5t-17 -43.5t-42 -17.5zM249 50h64v-50h-268v50h64q31 0 31 31v338q0 31 -31 31h-64v50h173v-419
q0 -31 31 -31z" />
    <glyph glyph-name="eth" unicode="&#xf0;" horiz-adv-x="584" 
d="M386 614q158 -123 158 -363q0 -113 -73.5 -187t-178.5 -74t-178.5 74t-73.5 187q0 112 73 184t179 72q91 0 144 -69q-34 96 -123 157l-153 -44l-12 42l114 31q-49 24 -97 37l83 28q47 -17 89 -42l105 29l11 -42zM292 36q77 0 122 58t45 157q0 98 -45 154t-122 56
t-122 -56t-45 -154q0 -99 45 -157t122 -58z" />
    <glyph glyph-name="ntilde" unicode="&#xf1;" horiz-adv-x="650" 
d="M476 671q-9 -103 -84 -103q-30 0 -74.5 28.5t-67.5 28.5q-6 0 -10.5 -1.5t-8 -2.5t-6.5 -5l-4.5 -6t-3.5 -8t-3 -8t-3 -10t-2 -9l-36 12q9 100 84 100q33 0 79 -28.5t65 -28.5q7 0 13 2.5t10 6t7 9.5t4 10t3 10.5t2 7.5zM569 50h54v-50h-238v50h44q31 0 31 31v259
q0 44 -31.5 74t-78.5 30q-51 0 -93.5 -36.5t-48.5 -112.5v-214q0 -31 31 -31h44v-50h-238v50h54q31 0 31 31v338q0 31 -31 31h-54v50h163v-105q27 51 72 81.5t99 30.5q67 0 113 -45t46 -112v-269q0 -31 31 -31z" />
    <glyph glyph-name="ograve" unicode="&#xf2;" horiz-adv-x="584" 
d="M361 572l-24 -20q-19 15 -55.5 43.5t-55 44t-27.5 26.5q-15 18 -14.5 37.5t18.5 33.5q16 13 36 10.5t35 -18.5q9 -10 21.5 -32.5t32 -60.5t33.5 -64zM292 507q106 0 179 -72t73 -184q0 -113 -73.5 -187t-178.5 -74t-178.5 74t-73.5 187q0 112 73 184t179 72zM292 36
q77 0 122 58t45 157q0 98 -45 154t-122 56t-122 -56t-45 -154q0 -99 45 -157t122 -58z" />
    <glyph glyph-name="oacute" unicode="&#xf3;" horiz-adv-x="584" 
d="M273 572q14 26 33.5 64t32 60.5t21.5 32.5q15 16 35 18.5t36 -10.5q18 -14 18.5 -33.5t-14.5 -37.5q-9 -11 -27.5 -26.5t-55 -44t-55.5 -43.5zM292 507q106 0 179 -72t73 -184q0 -113 -73.5 -187t-178.5 -74t-178.5 74t-73.5 187q0 112 73 184t179 72zM292 36
q77 0 122 58t45 157q0 98 -45 154t-122 56t-122 -56t-45 -154q0 -99 45 -157t122 -58z" />
    <glyph glyph-name="ocircumflex" unicode="&#xf4;" horiz-adv-x="584" 
d="M189 558l-25 20l96 137q18 25 31 25q14 0 32 -25l97 -137l-25 -20l-103 82zM292 507q106 0 179 -72t73 -184q0 -113 -73.5 -187t-178.5 -74t-178.5 74t-73.5 187q0 112 73 184t179 72zM292 36q77 0 122 58t45 157q0 98 -45 154t-122 56t-122 -56t-45 -154q0 -99 45 -157
t122 -58z" />
    <glyph glyph-name="otilde" unicode="&#xf5;" horiz-adv-x="584" 
d="M443 671q-9 -103 -84 -103q-30 0 -74.5 28.5t-67.5 28.5q-6 0 -10.5 -1.5t-8 -2.5t-6.5 -5l-4.5 -6t-3.5 -8t-3 -8t-3 -10t-2 -9l-36 12q9 100 84 100q33 0 79 -28.5t65 -28.5q7 0 13 2.5t10 6t7 9.5t4 10t3 10.5t2 7.5zM292 507q106 0 179 -72t73 -184
q0 -113 -73.5 -187t-178.5 -74t-178.5 74t-73.5 187q0 112 73 184t179 72zM292 36q77 0 122 58t45 157q0 98 -45 154t-122 56t-122 -56t-45 -154q0 -99 45 -157t122 -58z" />
    <glyph glyph-name="odieresis" unicode="&#xf6;" horiz-adv-x="584" 
d="M198 565q-26 0 -43.5 17t-17.5 43t17.5 44t43.5 18q25 0 42 -17.5t17 -43.5t-17 -43.5t-42 -17.5zM388 565q-26 0 -43.5 17t-17.5 43t17.5 44t43.5 18q25 0 42 -17.5t17 -43.5t-17 -43.5t-42 -17.5zM292 507q106 0 179 -72t73 -184q0 -113 -73.5 -187t-178.5 -74
t-178.5 74t-73.5 187q0 112 73 184t179 72zM292 36q77 0 122 58t45 157q0 98 -45 154t-122 56t-122 -56t-45 -154q0 -99 45 -157t122 -58z" />
    <glyph glyph-name="divide" unicode="&#xf7;" horiz-adv-x="596" 
d="M299 412q-25 0 -41.5 16t-16.5 41t16.5 42t41.5 17q24 0 40 -16.5t16 -41.5t-16 -41.5t-40 -16.5zM69 273v49h458v-49h-458zM299 183q24 0 40 -16.5t16 -41.5t-16 -41.5t-40 -16.5q-25 0 -41.5 17t-16.5 42t16.5 41t41.5 16z" />
    <glyph glyph-name="oslash" unicode="&#xf8;" 
d="M568 467l-64 -61q48 -67 48 -155q0 -113 -73.5 -187t-178.5 -74q-98 0 -169 65l-64 -61l-35 44l63 59q-47 66 -47 154q0 112 73 184t179 72q98 0 167 -61l64 59zM133 251q0 -57 16 -103l274 256q-45 57 -123 57q-77 0 -122 -56t-45 -154zM467 251q0 59 -17 104l-274 -258
q45 -61 124 -61q77 0 122 58t45 157z" />
    <glyph glyph-name="ugrave" unicode="&#xf9;" horiz-adv-x="604" 
d="M361 572l-24 -20q-19 15 -55.5 43.5t-55 44t-27.5 26.5q-15 18 -14.5 37.5t18.5 33.5q16 13 36 10.5t35 -18.5q9 -10 21.5 -32.5t32 -60.5t33.5 -64zM530 50h54v-50h-163v104q-27 -51 -72.5 -82.5t-99.5 -31.5q-67 0 -113 45t-46 112v282q-4 21 -30 21h-55v50h163v-343
q0 -44 31.5 -74t78.5 -30q55 0 99 42.5t44 130.5v193q0 31 -31 31h-47v50h156v-419q0 -31 31 -31z" />
    <glyph glyph-name="uacute" unicode="&#xfa;" horiz-adv-x="604" 
d="M435 666q-9 -11 -27.5 -26.5t-55 -44t-55.5 -43.5l-24 20q14 26 33.5 64t32 60.5t21.5 32.5q15 16 35 18.5t36 -10.5q18 -14 18.5 -33.5t-14.5 -37.5zM530 50h54v-50h-163v104q-27 -51 -72.5 -82.5t-99.5 -31.5q-67 0 -113 45t-46 112v282q-4 21 -30 21h-55v50h163v-343
q0 -44 31.5 -74t78.5 -30q55 0 99 42.5t44 130.5v193q0 31 -31 31h-47v50h156v-419q0 -31 31 -31z" />
    <glyph glyph-name="ucircumflex" unicode="&#xfb;" horiz-adv-x="604" 
d="M189 558l-25 20l96 137q18 25 31 25q14 0 32 -25l97 -137l-25 -20l-103 82zM530 50h54v-50h-163v104q-27 -51 -72.5 -82.5t-99.5 -31.5q-67 0 -113 45t-46 112v282q-4 21 -30 21h-55v50h163v-343q0 -44 31.5 -74t78.5 -30q55 0 99 42.5t44 130.5v193q0 31 -31 31h-47v50
h156v-419q0 -31 31 -31z" />
    <glyph glyph-name="udieresis" unicode="&#xfc;" horiz-adv-x="604" 
d="M198 565q-26 0 -43.5 17t-17.5 43t17.5 44t43.5 18q25 0 42 -17.5t17 -43.5t-17 -43.5t-42 -17.5zM388 565q-26 0 -43.5 17t-17.5 43t17.5 44t43.5 18q25 0 42 -17.5t17 -43.5t-17 -43.5t-42 -17.5zM530 50h54v-50h-163v104q-27 -51 -72.5 -82.5t-99.5 -31.5
q-67 0 -113 45t-46 112v282q-4 21 -30 21h-55v50h163v-343q0 -44 31.5 -74t78.5 -30q55 0 99 42.5t44 130.5v193q0 31 -31 31h-47v50h156v-419q0 -31 31 -31z" />
    <glyph glyph-name="yacute" unicode="&#xfd;" horiz-adv-x="592" 
d="M459 666q-9 -11 -27.5 -26.5t-55 -44t-55.5 -43.5l-24 20q14 26 33.5 64t32 60.5t21.5 32.5q15 16 35 18.5t36 -10.5q18 -14 18.5 -33.5t-14.5 -37.5zM385 500h192v-50h-26q-34 0 -50 -36l-193 -454q-33 -77 -71.5 -113.5t-98.5 -36.5q-47 0 -80.5 24.5t-33.5 64.5
q0 26 16.5 44t41.5 18q24 0 39 -15.5t15 -38.5q0 -42 -41 -49q15 -8 34 -8q46 0 74 27t51 83l23 56l-177 403q-13 31 -47 31h-38v50h251v-50h-58q-15 0 -21.5 -8t-1.5 -21l130 -315l131 313q6 15 -1 23t-21 8h-39v50z" />
    <glyph glyph-name="thorn" unicode="&#xfe;" horiz-adv-x="661" 
d="M391 507q98 0 164 -72.5t66 -185.5q0 -116 -65.5 -187.5t-164.5 -71.5q-128 0 -183 104v-193q0 -31 31 -31h99v-50h-293v50h54q31 0 31 31v698q0 31 -31 31h-54v50h163v-278q29 54 78 79.5t105 25.5zM374 42q71 0 116.5 55t45.5 152q0 94 -46 150t-116 56
q-78 0 -122 -55.5t-44 -150.5q0 -98 43.5 -152.5t122.5 -54.5z" />
    <glyph glyph-name="ydieresis" unicode="&#xff;" horiz-adv-x="592" 
d="M222 565q-26 0 -43.5 17t-17.5 43t17.5 44t43.5 18q25 0 42 -17.5t17 -43.5t-17 -43.5t-42 -17.5zM412 565q-26 0 -43.5 17t-17.5 43t17.5 44t43.5 18q25 0 42 -17.5t17 -43.5t-17 -43.5t-42 -17.5zM385 500h192v-50h-26q-34 0 -50 -36l-193 -454q-33 -77 -71.5 -113.5
t-98.5 -36.5q-47 0 -80.5 24.5t-33.5 64.5q0 26 16.5 44t41.5 18q24 0 39 -15.5t15 -38.5q0 -42 -41 -49q15 -8 34 -8q46 0 74 27t51 83l23 56l-177 403q-13 31 -47 31h-38v50h251v-50h-58q-15 0 -21.5 -8t-1.5 -21l130 -315l131 313q6 15 -1 23t-21 8h-39v50z" />
    <glyph glyph-name="Amacron" unicode="&#x100;" horiz-adv-x="725" 
d="M488 828v-62h-260v62h260zM690 50h35v-50h-261v50h64q15 0 21.5 8.5t0.5 21.5l-51 115h-300l-48 -114q-5 -13 0.5 -22t20.5 -9h74v-50h-246v50h38q34 0 48 34l258 596h30l268 -600q14 -30 48 -30zM219 242h260l-133 301z" />
    <glyph glyph-name="amacron" unicode="&#x101;" horiz-adv-x="564" 
d="M395 648v-62h-260v62h260zM483 50h54v-50h-133l-26 67q-21 -36 -60.5 -56.5t-87.5 -20.5q-79 0 -132 43.5t-53 108.5q0 64 53 107t132 43q99 0 144 -68v109q0 59 -35 94t-95 35q-56 0 -92 -26q17 -5 28.5 -19.5t11.5 -34.5q0 -24 -17 -41t-43 -17q-25 0 -41 16.5
t-16 42.5q0 49 56 86.5t133 37.5q87 0 137.5 -47t50.5 -127v-252q0 -31 31 -31zM251 42q52 0 87.5 28.5t35.5 72.5t-35.5 72.5t-87.5 28.5t-86.5 -29t-34.5 -73q0 -43 34.5 -71.5t86.5 -28.5z" />
    <glyph glyph-name="Abreve" unicode="&#x102;" horiz-adv-x="725" 
d="M358 757q-53 0 -87 36t-40 102l41 7q23 -77 86 -77t86 77l41 -7q-6 -66 -40 -102t-87 -36zM690 50h35v-50h-261v50h64q15 0 21.5 8.5t0.5 21.5l-51 115h-300l-48 -114q-5 -13 0.5 -22t20.5 -9h74v-50h-246v50h38q34 0 48 34l258 596h30l268 -600q14 -30 48 -30zM219 242
h260l-133 301z" />
    <glyph glyph-name="abreve" unicode="&#x103;" horiz-adv-x="564" 
d="M265 577q-53 0 -87 36t-40 102l41 7q23 -77 86 -77t86 77l41 -7q-6 -66 -40 -102t-87 -36zM483 50h54v-50h-133l-26 67q-21 -36 -60.5 -56.5t-87.5 -20.5q-79 0 -132 43.5t-53 108.5q0 64 53 107t132 43q99 0 144 -68v109q0 59 -35 94t-95 35q-56 0 -92 -26
q17 -5 28.5 -19.5t11.5 -34.5q0 -24 -17 -41t-43 -17q-25 0 -41 16.5t-16 42.5q0 49 56 86.5t133 37.5q87 0 137.5 -47t50.5 -127v-252q0 -31 31 -31zM251 42q52 0 87.5 28.5t35.5 72.5t-35.5 72.5t-87.5 28.5t-86.5 -29t-34.5 -73q0 -43 34.5 -71.5t86.5 -28.5z" />
    <glyph glyph-name="Aogonek" unicode="&#x104;" horiz-adv-x="725" 
d="M680 0q-55 0 -86 -24.5t-31 -55.5q0 -26 15.5 -40.5t43.5 -14.5q23 0 57 16l16 -33q-39 -38 -96 -38q-45 0 -77.5 24.5t-32.5 64.5q0 64 78 101h-103v50h64q15 0 21.5 8.5t0.5 21.5l-51 115h-300l-48 -114q-5 -13 0.5 -22t20.5 -9h74v-50h-246v50h38q34 0 48 34l258 596
h30l268 -600q14 -30 48 -30h35v-50h-45zM219 242h260l-133 301z" />
    <glyph glyph-name="aogonek" unicode="&#x105;" horiz-adv-x="564" 
d="M495 0q-55 0 -86 -24.5t-31 -55.5q0 -26 15.5 -40.5t43.5 -14.5q23 0 57 16l16 -33q-39 -38 -96 -38q-45 0 -77.5 24.5t-32.5 64.5q0 35 25.5 64t71.5 45l-23 59q-21 -36 -60.5 -56.5t-87.5 -20.5q-79 0 -132 43.5t-53 108.5q0 64 53 107t132 43q99 0 144 -68v109
q0 59 -35 94t-95 35q-56 0 -92 -26q17 -5 28.5 -19.5t11.5 -34.5q0 -24 -17 -41t-43 -17q-25 0 -41 16.5t-16 42.5q0 49 56 86.5t133 37.5q87 0 137.5 -47t50.5 -127v-252q0 -31 31 -31h54v-50h-42zM251 42q52 0 87.5 28.5t35.5 72.5t-35.5 72.5t-87.5 28.5t-86.5 -29
t-34.5 -73q0 -43 34.5 -71.5t86.5 -28.5z" />
    <glyph glyph-name="Cacute" unicode="&#x106;" horiz-adv-x="746" 
d="M546 846q-9 -11 -27.5 -26.5t-55 -44t-55.5 -43.5l-24 20q14 26 33.5 64t32 60.5t21.5 32.5q15 16 35 18.5t36 -10.5q18 -14 18.5 -33.5t-14.5 -37.5zM642 250l54 -11q-24 -121 -101 -185t-191 -64q-149 0 -249 100t-100 250t99 250t248 100q68 0 125 -22.5t90.5 -57
t52 -70.5t18.5 -67q0 -33 -19.5 -50.5t-45.5 -17.5q-27 0 -44 16.5t-17 40.5q0 25 16 39.5t45 14.5q-68 120 -208 120q-119 0 -189 -80t-70 -216t67.5 -216t179.5 -80q88 0 151 51.5t88 154.5z" />
    <glyph glyph-name="cacute" unicode="&#x107;" horiz-adv-x="550" 
d="M445 666q-9 -11 -27.5 -26.5t-55 -44t-55.5 -43.5l-24 20q14 26 33.5 64t32 60.5t21.5 32.5q15 16 35 18.5t36 -10.5q18 -14 18.5 -33.5t-14.5 -37.5zM463 178l47 -9q-18 -90 -76 -134.5t-140 -44.5q-109 0 -181.5 72.5t-72.5 184.5q0 115 76 187.5t182 72.5
q91 0 148.5 -52t57.5 -116q0 -25 -16 -42t-40 -17q-28 0 -44.5 15.5t-16.5 40.5q0 23 16.5 37.5t38.5 16.5q-38 67 -133 67q-89 0 -136.5 -54.5t-47.5 -151.5t47 -152.5t131 -55.5q132 0 160 135z" />
    <glyph glyph-name="Cdotaccent" unicode="&#x10a;" horiz-adv-x="746" 
d="M404 745q-26 0 -43.5 17t-17.5 43t17.5 44t43.5 18q25 0 42 -17.5t17 -43.5t-17 -43.5t-42 -17.5zM642 250l54 -11q-24 -121 -101 -185t-191 -64q-149 0 -249 100t-100 250t99 250t248 100q68 0 125 -22.5t90.5 -57t52 -70.5t18.5 -67q0 -33 -19.5 -50.5t-45.5 -17.5
q-27 0 -44 16.5t-17 40.5q0 25 16 39.5t45 14.5q-68 120 -208 120q-119 0 -189 -80t-70 -216t67.5 -216t179.5 -80q88 0 151 51.5t88 154.5z" />
    <glyph glyph-name="cdotaccent" unicode="&#x10b;" horiz-adv-x="550" 
d="M303 565q-26 0 -43.5 17t-17.5 43t17.5 44t43.5 18q25 0 42 -17.5t17 -43.5t-17 -43.5t-42 -17.5zM463 178l47 -9q-18 -90 -76 -134.5t-140 -44.5q-109 0 -181.5 72.5t-72.5 184.5q0 115 76 187.5t182 72.5q91 0 148.5 -52t57.5 -116q0 -25 -16 -42t-40 -17
q-28 0 -44.5 15.5t-16.5 40.5q0 23 16.5 37.5t38.5 16.5q-38 67 -133 67q-89 0 -136.5 -54.5t-47.5 -151.5t47 -152.5t131 -55.5q132 0 160 135z" />
    <glyph glyph-name="Ccaron" unicode="&#x10c;" horiz-adv-x="746" 
d="M402 738q-14 0 -31 25l-96 137l25 20l103 -82l103 82l25 -20l-97 -137q-18 -25 -32 -25zM642 250l54 -11q-24 -121 -101 -185t-191 -64q-149 0 -249 100t-100 250t99 250t248 100q68 0 125 -22.5t90.5 -57t52 -70.5t18.5 -67q0 -33 -19.5 -50.5t-45.5 -17.5
q-27 0 -44 16.5t-17 40.5q0 25 16 39.5t45 14.5q-68 120 -208 120q-119 0 -189 -80t-70 -216t67.5 -216t179.5 -80q88 0 151 51.5t88 154.5z" />
    <glyph glyph-name="ccaron" unicode="&#x10d;" horiz-adv-x="550" 
d="M301 558q-13 0 -31 25l-96 137l25 20l103 -82l103 82l25 -20l-97 -137q-18 -25 -32 -25zM463 178l47 -9q-18 -90 -76 -134.5t-140 -44.5q-109 0 -181.5 72.5t-72.5 184.5q0 115 76 187.5t182 72.5q91 0 148.5 -52t57.5 -116q0 -25 -16 -42t-40 -17q-28 0 -44.5 15.5
t-16.5 40.5q0 23 16.5 37.5t38.5 16.5q-38 67 -133 67q-89 0 -136.5 -54.5t-47.5 -151.5t47 -152.5t131 -55.5q132 0 160 135z" />
    <glyph glyph-name="Dcaron" unicode="&#x10e;" horiz-adv-x="782" 
d="M288 920l103 -82l103 82l25 -20l-97 -137q-18 -25 -32 -25t-31 25l-96 137zM370 680q155 0 256 -94t101 -246t-101 -246t-256 -94h-335v50h79q31 0 31 31v518q0 31 -31 31h-79v50h335zM370 50q113 0 184.5 79.5t71.5 210.5t-71.5 210.5t-184.5 79.5h-140v-580h140z" />
    <glyph glyph-name="dcaron" unicode="&#x10f;" horiz-adv-x="646" 
d="M683 690q25 0 42.5 -17t17.5 -51q0 -118 -124 -200l-21 27q38 28 58.5 53t25 39.5t5.5 32.5h-6q-29 0 -43.5 17t-14.5 40q0 26 17 42.5t43 16.5zM531 81q0 -31 31 -31h54v-50h-163v94q-55 -104 -183 -104q-99 0 -164.5 71.5t-65.5 187.5q0 113 66 185.5t164 72.5
q56 0 105 -25.5t78 -79.5v197q0 31 -31 31h-54v50h163v-599zM287 42q79 0 122.5 54.5t43.5 152.5q0 95 -44 150.5t-122 55.5q-70 0 -116 -56t-46 -150q0 -97 45.5 -152t116.5 -55z" />
    <glyph glyph-name="Dcroat" unicode="&#x110;" horiz-adv-x="782" 
d="M370 680q155 0 256 -94t101 -246t-101 -246t-256 -94h-335v50h79q31 0 31 31v226h-90v50h90v242q0 31 -31 31h-79v50h335zM370 50q113 0 184.5 79.5t71.5 210.5t-71.5 210.5t-184.5 79.5h-140v-273h175v-50h-175v-257h140z" />
    <glyph glyph-name="dcroat" unicode="&#x111;" horiz-adv-x="646" 
d="M616 565h-85v-484q0 -31 31 -31h54v-50h-163v94q-55 -104 -183 -104q-99 0 -164.5 71.5t-65.5 187.5q0 113 66 185.5t164 72.5q56 0 105 -25.5t78 -79.5v163h-118v50h118v65h78v-65h85v-50zM287 42q79 0 122.5 54.5t43.5 152.5q0 95 -44 150.5t-122 55.5q-70 0 -116 -56
t-46 -150q0 -97 45.5 -152t116.5 -55z" />
    <glyph glyph-name="Emacron" unicode="&#x112;" horiz-adv-x="660" 
d="M200 828h260v-62h-260v62zM545 195h50v-195h-560v50h79q31 0 31 31v518q0 31 -31 31h-79v50h530v-195h-50q-8 78 -18 99q-19 46 -80 46h-187v-309h117q12 0 22 2.5t17 5.5t12.5 10.5t8 11t5.5 15.5t4 15.5t3 18t2 16.5h44v-240h-44q-1 5 -2.5 19.5t-3 20t-4.5 17t-7.5 16
t-12 11t-18.5 9t-26 2.5h-117v-221h217q39 0 60.5 21t26 41t9.5 67q1 11 2 16z" />
    <glyph glyph-name="emacron" unicode="&#x113;" horiz-adv-x="542" 
d="M411 648v-62h-260v62h260zM125 235q4 -87 47 -139.5t120 -52.5q63 0 105 36t56 99l47 -9q-17 -82 -75.5 -130.5t-144.5 -48.5q-107 0 -173.5 72.5t-66.5 182.5q0 112 68.5 187t172.5 75q100 0 160.5 -71.5t60.5 -189.5v-11h-377zM283 461q-67 0 -108.5 -50.5
t-48.5 -132.5h290q-11 183 -133 183z" />
    <glyph glyph-name="Edotaccent" unicode="&#x116;" horiz-adv-x="660" 
d="M331 745q-26 0 -43.5 17t-17.5 43t17.5 44t43.5 18q25 0 42 -17.5t17 -43.5t-17 -43.5t-42 -17.5zM545 195h50v-195h-560v50h79q31 0 31 31v518q0 31 -31 31h-79v50h530v-195h-50q-8 78 -18 99q-19 46 -80 46h-187v-309h117q12 0 22 2.5t17 5.5t12.5 10.5t8 11t5.5 15.5
t4 15.5t3 18t2 16.5h44v-240h-44q-1 5 -2.5 19.5t-3 20t-4.5 17t-7.5 16t-12 11t-18.5 9t-26 2.5h-117v-221h217q39 0 60.5 21t26 41t9.5 67q1 11 2 16z" />
    <glyph glyph-name="edotaccent" unicode="&#x117;" horiz-adv-x="542" 
d="M282 565q-26 0 -43.5 17t-17.5 43t17.5 44t43.5 18q25 0 42 -17.5t17 -43.5t-17 -43.5t-42 -17.5zM125 235q4 -87 47 -139.5t120 -52.5q63 0 105 36t56 99l47 -9q-17 -82 -75.5 -130.5t-144.5 -48.5q-107 0 -173.5 72.5t-66.5 182.5q0 112 68.5 187t172.5 75
q100 0 160.5 -71.5t60.5 -189.5v-11h-377zM283 461q-67 0 -108.5 -50.5t-48.5 -132.5h290q-11 183 -133 183z" />
    <glyph glyph-name="Eogonek" unicode="&#x118;" horiz-adv-x="660" 
d="M579 0q-55 0 -86 -24.5t-31 -55.5q0 -26 15.5 -40.5t43.5 -14.5q23 0 57 16l16 -33q-39 -38 -96 -38q-45 0 -77.5 24.5t-32.5 64.5q0 64 78 101h-431v50h79q31 0 31 31v518q0 31 -31 31h-79v50h530v-195h-50q-8 78 -18 99q-19 46 -80 46h-187v-309h117q12 0 22 2.5
t17 5.5t12.5 10.5t8 11t5.5 15.5t4 15.5t3 18t2 16.5h44v-240h-44q-1 5 -2.5 19.5t-3 20t-4.5 17t-7.5 16t-12 11t-18.5 9t-26 2.5h-117v-221h217q39 0 60.5 21t26 41t9.5 67q1 11 2 16h50v-195h-16z" />
    <glyph glyph-name="eogonek" unicode="&#x119;" horiz-adv-x="542" 
d="M125 235q4 -87 47 -139.5t120 -52.5q63 0 105 36t56 99l47 -9q-16 -76 -61 -117q-80 -73 -80 -132q0 -23 16 -39t40 -16q26 0 60 16l16 -33q-37 -38 -97 -38q-45 0 -76.5 24t-31.5 65q0 51 50 97q-27 -6 -56 -6q-107 0 -173.5 72.5t-66.5 182.5q0 112 68.5 187t172.5 75
q100 0 160.5 -71.5t60.5 -189.5v-11h-377zM283 461q-67 0 -108.5 -50.5t-48.5 -132.5h290q-11 183 -133 183z" />
    <glyph glyph-name="Ecaron" unicode="&#x11a;" horiz-adv-x="660" 
d="M227 920l103 -82l103 82l25 -20l-97 -137q-18 -25 -32 -25q-13 0 -31 25l-96 137zM545 195h50v-195h-560v50h79q31 0 31 31v518q0 31 -31 31h-79v50h530v-195h-50q-8 78 -18 99q-19 46 -80 46h-187v-309h117q12 0 22 2.5t17 5.5t12.5 10.5t8 11t5.5 15.5t4 15.5t3 18
t2 16.5h44v-240h-44q-1 5 -2.5 19.5t-3 20t-4.5 17t-7.5 16t-12 11t-18.5 9t-26 2.5h-117v-221h217q39 0 60.5 21t26 41t9.5 67q1 11 2 16z" />
    <glyph glyph-name="ecaron" unicode="&#x11b;" horiz-adv-x="542" 
d="M280 558q-14 0 -31 25l-96 137l25 20l103 -82l103 82l25 -20l-97 -137q-18 -25 -32 -25zM125 235q4 -87 47 -139.5t120 -52.5q63 0 105 36t56 99l47 -9q-17 -82 -75.5 -130.5t-144.5 -48.5q-107 0 -173.5 72.5t-66.5 182.5q0 112 68.5 187t172.5 75q100 0 160.5 -71.5
t60.5 -189.5v-11h-377zM283 461q-67 0 -108.5 -50.5t-48.5 -132.5h290q-11 183 -133 183z" />
    <glyph glyph-name="Gbreve" unicode="&#x11e;" horiz-adv-x="802" 
d="M414 757q-53 0 -87 36t-40 102l41 7q23 -77 86 -77t86 77l41 -7q-6 -66 -40 -102t-87 -36zM415 290h337v-50h-41q-31 0 -31 -31v-209h-35l-41 69q-81 -79 -200 -79q-149 0 -249 100t-100 250t99 250t248 100q68 0 125 -21t90.5 -53.5t52 -67t18.5 -65.5
q0 -33 -19.5 -50.5t-45.5 -17.5q-27 0 -44 16.5t-17 40.5q0 25 16 39.5t45 14.5q-61 110 -208 110q-119 0 -189 -80t-70 -216t67.5 -216t179.5 -80q119 0 192 89v76q0 31 -31 31h-149v50z" />
    <glyph glyph-name="gbreve" unicode="&#x11f;" horiz-adv-x="530" 
d="M258 577q-53 0 -87 36t-40 102l41 7q23 -77 86 -77t86 77l41 -7q-6 -66 -40 -102t-87 -36zM335 96q67 0 112 -36t45 -90q0 -71 -66 -115.5t-168 -44.5q-99 0 -166 35.5t-67 96.5q0 37 26.5 65t73.5 38q-68 24 -68 83q0 57 71 80q-74 47 -74 133q0 72 56.5 119t149.5 47
q76 0 129 -31q33 16 47 51q-23 3 -35 19t-12 36q0 23 17 39t42 16t41.5 -18.5t16.5 -45.5q0 -35 -26.5 -66.5t-67.5 -47.5q56 -45 56 -118t-57 -120.5t-151 -47.5q-54 0 -97 17q-46 -13 -46 -50q0 -20 16.5 -32t42.5 -12h159zM260 465q-54 0 -85.5 -33.5t-31.5 -91.5
t31.5 -91.5t85.5 -33.5q55 0 87 33.5t32 91.5t-32 91.5t-87 33.5zM261 -136q68 0 114.5 27.5t46.5 71.5q0 29 -25 48.5t-62 19.5h-153q-39 0 -60.5 -21.5t-21.5 -52.5q0 -44 45.5 -68.5t115.5 -24.5z" />
    <glyph glyph-name="Gdotaccent" unicode="&#x120;" horiz-adv-x="802" 
d="M415 745q-26 0 -43.5 17t-17.5 43t17.5 44t43.5 18q25 0 42 -17.5t17 -43.5t-17 -43.5t-42 -17.5zM415 290h337v-50h-41q-31 0 -31 -31v-209h-35l-41 69q-81 -79 -200 -79q-149 0 -249 100t-100 250t99 250t248 100q68 0 125 -21t90.5 -53.5t52 -67t18.5 -65.5
q0 -33 -19.5 -50.5t-45.5 -17.5q-27 0 -44 16.5t-17 40.5q0 25 16 39.5t45 14.5q-61 110 -208 110q-119 0 -189 -80t-70 -216t67.5 -216t179.5 -80q119 0 192 89v76q0 31 -31 31h-149v50z" />
    <glyph glyph-name="gdotaccent" unicode="&#x121;" horiz-adv-x="530" 
d="M259 565q-26 0 -43.5 17t-17.5 43t17.5 44t43.5 18q25 0 42 -17.5t17 -43.5t-17 -43.5t-42 -17.5zM335 96q67 0 112 -36t45 -90q0 -71 -66 -115.5t-168 -44.5q-99 0 -166 35.5t-67 96.5q0 37 26.5 65t73.5 38q-68 24 -68 83q0 57 71 80q-74 47 -74 133q0 72 56.5 119
t149.5 47q76 0 129 -31q33 16 47 51q-23 3 -35 19t-12 36q0 23 17 39t42 16t41.5 -18.5t16.5 -45.5q0 -35 -26.5 -66.5t-67.5 -47.5q56 -45 56 -118t-57 -120.5t-151 -47.5q-54 0 -97 17q-46 -13 -46 -50q0 -20 16.5 -32t42.5 -12h159zM260 465q-54 0 -85.5 -33.5
t-31.5 -91.5t31.5 -91.5t85.5 -33.5q55 0 87 33.5t32 91.5t-32 91.5t-87 33.5zM261 -136q68 0 114.5 27.5t46.5 71.5q0 29 -25 48.5t-62 19.5h-153q-39 0 -60.5 -21.5t-21.5 -52.5q0 -44 45.5 -68.5t115.5 -24.5z" />
    <glyph glyph-name="Gcommaaccent" unicode="&#x122;" horiz-adv-x="802" 
d="M415 290h337v-50h-41q-31 0 -31 -31v-209h-35l-41 69q-81 -79 -200 -79q-149 0 -249 100t-100 250t99 250t248 100q68 0 125 -21t90.5 -53.5t52 -67t18.5 -65.5q0 -33 -19.5 -50.5t-45.5 -17.5q-27 0 -44 16.5t-17 40.5q0 25 16 39.5t45 14.5q-61 110 -208 110
q-119 0 -189 -80t-70 -216t67.5 -216t179.5 -80q119 0 192 89v76q0 31 -31 31h-149v50zM390 -60q25 0 42.5 -16.5t17.5 -47.5q0 -102 -114 -148l-15 27q44 25 59.5 42t17.5 34h-10q-29 0 -43.5 16t-14.5 38q0 24 17 39.5t43 15.5z" />
    <glyph glyph-name="gcommaaccent" unicode="&#x123;" horiz-adv-x="530" 
d="M254 560q-25 0 -42.5 16.5t-17.5 47.5q0 102 114 148l15 -27q-44 -25 -59.5 -42t-17.5 -34h10q29 0 43.5 -16t14.5 -38q0 -24 -17 -39.5t-43 -15.5zM335 96q67 0 112 -36t45 -90q0 -71 -66 -115.5t-168 -44.5q-99 0 -166 35.5t-67 96.5q0 37 26.5 65t73.5 38
q-68 24 -68 83q0 57 71 80q-74 47 -74 133q0 72 56.5 119t149.5 47q76 0 129 -31q33 16 47 51q-23 3 -35 19t-12 36q0 23 17 39t42 16t41.5 -18.5t16.5 -45.5q0 -35 -26.5 -66.5t-67.5 -47.5q56 -45 56 -118t-57 -120.5t-151 -47.5q-54 0 -97 17q-46 -13 -46 -50
q0 -20 16.5 -32t42.5 -12h159zM260 465q-54 0 -85.5 -33.5t-31.5 -91.5t31.5 -91.5t85.5 -33.5q55 0 87 33.5t32 91.5t-32 91.5t-87 33.5zM261 -136q68 0 114.5 27.5t46.5 71.5q0 29 -25 48.5t-62 19.5h-153q-39 0 -60.5 -21.5t-21.5 -52.5q0 -44 45.5 -68.5t115.5 -24.5z
" />
    <glyph glyph-name="Hbar" unicode="&#x126;" horiz-adv-x="795" 
d="M681 630q-31 0 -31 -31v-102h110v-50h-110v-366q0 -31 31 -31h79v-50h-295v50h69q31 0 31 31v193h-335v-193q0 -31 31 -31h69v-50h-295v50h79q31 0 31 31v366h-90v50h90v102q0 31 -31 31h-79v50h295v-50h-69q-31 0 -31 -31v-102h335v102q0 31 -31 31h-69v50h295v-50h-79z
M565 324v123h-335v-123h335z" />
    <glyph glyph-name="hbar" unicode="&#x127;" horiz-adv-x="635" 
d="M554 50h54v-50h-238v50h44q31 0 31 31v259q0 44 -31.5 74t-78.5 30q-51 0 -93.5 -36.5t-48.5 -112.5v-214q0 -31 31 -31h44v-50h-238v50h54q31 0 31 31v484h-85v50h85v65h78v-65h118v-50h-118v-170q27 51 72 81.5t99 30.5q67 0 113 -45t46 -112v-269q0 -31 31 -31z" />
    <glyph glyph-name="Imacron" unicode="&#x12a;" horiz-adv-x="399" 
d="M70 828h260v-62h-260v62zM273 630q-31 0 -31 -31v-518q0 -31 31 -31h81v-50h-309v50h81q31 0 31 31v518q0 31 -31 31h-81v50h309v-50h-81z" />
    <glyph glyph-name="imacron" unicode="&#x12b;" horiz-adv-x="338" 
d="M39 648h260v-62h-260v62zM249 50h64v-50h-268v50h64q31 0 31 31v338q0 31 -31 31h-64v50h173v-419q0 -31 31 -31z" />
    <glyph glyph-name="Iogonek" unicode="&#x12e;" horiz-adv-x="399" 
d="M273 630q-31 0 -31 -31v-518q0 -31 31 -31h81v-50h-87q-55 0 -86 -24.5t-31 -55.5q0 -26 15.5 -40.5t43.5 -14.5q23 0 57 16l16 -33q-39 -38 -96 -38q-45 0 -77.5 24.5t-32.5 64.5q0 64 78 101h-109v50h81q31 0 31 31v518q0 31 -31 31h-81v50h309v-50h-81z" />
    <glyph glyph-name="iogonek" unicode="&#x12f;" horiz-adv-x="338" 
d="M183 565q-26 0 -43.5 17t-17.5 43t17.5 44t43.5 18q25 0 42 -17.5t17 -43.5t-17 -43.5t-42 -17.5zM255 0q-55 0 -86 -24.5t-31 -55.5q0 -26 15.5 -40.5t43.5 -14.5q23 0 57 16l16 -33q-39 -38 -96 -38q-45 0 -77.5 24.5t-32.5 64.5q0 64 78 101h-97v50h64q31 0 31 31v338
q0 31 -31 31h-64v50h173v-419q0 -31 31 -31h64v-50h-58z" />
    <glyph glyph-name="Idotaccent" unicode="&#x130;" horiz-adv-x="399" 
d="M201 745q-26 0 -43.5 17t-17.5 43t17.5 44t43.5 18q25 0 42 -17.5t17 -43.5t-17 -43.5t-42 -17.5zM273 630q-31 0 -31 -31v-518q0 -31 31 -31h81v-50h-309v50h81q31 0 31 31v518q0 31 -31 31h-81v50h309v-50h-81z" />
    <glyph glyph-name="dotlessi" unicode="&#x131;" horiz-adv-x="338" 
d="M249 50h64v-50h-268v50h64q31 0 31 31v338q0 31 -31 31h-64v50h173v-419q0 -31 31 -31z" />
    <glyph glyph-name="Kcommaaccent" unicode="&#x136;" horiz-adv-x="745" 
d="M330 50v-50h-295v50h79q31 0 31 31v518q0 31 -31 31h-79v50h295v-50h-69q-31 0 -31 -31v-518q0 -31 31 -31h69zM675 50h50v-50h-318v50h76q33 0 10 30l-210 252l231 269q24 29 -7 29h-96v50h288v-50h-35q-52 0 -80 -31l-211 -249l215 -261q32 -39 87 -39zM377 -60
q25 0 42.5 -16.5t17.5 -47.5q0 -102 -114 -148l-15 27q44 25 59.5 42t17.5 34h-10q-29 0 -43.5 16t-14.5 38q0 24 17 39.5t43 15.5z" />
    <glyph glyph-name="kcommaaccent" unicode="&#x137;" horiz-adv-x="610" 
d="M193 81q0 -31 31 -31h54v-50h-248v50h54q31 0 31 31v518q0 31 -31 31h-54v50h163v-599zM569 50h21v-50h-258v50h52q18 0 23 7t-7 22l-175 197l164 151q10 9 6.5 16t-17.5 7h-86v50h268v-50h-36q-40 0 -77 -33l-142 -131l176 -197q35 -39 88 -39zM314 -60q25 0 42.5 -16.5
t17.5 -47.5q0 -102 -114 -148l-15 27q44 25 59.5 42t17.5 34h-10q-29 0 -43.5 16t-14.5 38q0 24 17 39.5t43 15.5z" />
    <glyph glyph-name="Lacute" unicode="&#x139;" horiz-adv-x="630" 
d="M176 752q14 26 33.5 64t32 60.5t21.5 32.5q15 16 35 18.5t36 -10.5q18 -14 18.5 -33.5t-14.5 -37.5q-9 -11 -27.5 -26.5t-55 -44t-55.5 -43.5zM525 218h50v-218h-540v50h79q31 0 31 31v518q0 31 -31 31h-79v50h325v-50h-99q-31 0 -31 -31v-549h197q24 0 41.5 9.5t26.5 18
t16 36.5t8 37.5t4 47.5q1 13 2 19z" />
    <glyph glyph-name="lacute" unicode="&#x13a;" horiz-adv-x="343" 
d="M153 752q14 26 33.5 64t32 60.5t21.5 32.5q15 16 35 18.5t36 -10.5q18 -14 18.5 -33.5t-14.5 -37.5q-9 -11 -27.5 -26.5t-55 -44t-55.5 -43.5zM249 50h64v-50h-268v50h64q31 0 31 31v518q0 31 -31 31h-64v50h173v-599q0 -31 31 -31z" />
    <glyph glyph-name="Lcommaaccent" unicode="&#x13b;" horiz-adv-x="630" 
d="M525 218h50v-218h-540v50h79q31 0 31 31v518q0 31 -31 31h-79v50h325v-50h-99q-31 0 -31 -31v-549h197q24 0 41.5 9.5t26.5 18t16 36.5t8 37.5t4 47.5q1 13 2 19zM319 -60q25 0 42.5 -16.5t17.5 -47.5q0 -102 -114 -148l-15 27q44 25 59.5 42t17.5 34h-10q-29 0 -43.5 16
t-14.5 38q0 24 17 39.5t43 15.5z" />
    <glyph glyph-name="lcommaaccent" unicode="&#x13c;" horiz-adv-x="343" 
d="M249 50h64v-50h-268v50h64q31 0 31 31v518q0 31 -31 31h-64v50h173v-599q0 -31 31 -31zM176 -60q25 0 42.5 -16.5t17.5 -47.5q0 -102 -114 -148l-15 27q44 25 59.5 42t17.5 34h-10q-29 0 -43.5 16t-14.5 38q0 24 17 39.5t43 15.5z" />
    <glyph glyph-name="Lcaron" unicode="&#x13d;" horiz-adv-x="630" 
d="M422 449q38 28 58.5 53t25 39.5t5.5 32.5h-6q-29 0 -43.5 17t-14.5 40q0 26 17 42.5t43 16.5q25 0 42.5 -17t17.5 -51q0 -118 -124 -200zM525 218h50v-218h-540v50h79q31 0 31 31v518q0 31 -31 31h-79v50h325v-50h-99q-31 0 -31 -31v-549h197q24 0 41.5 9.5t26.5 18
t16 36.5t8 37.5t4 47.5q1 13 2 19z" />
    <glyph glyph-name="lcaron" unicode="&#x13e;" horiz-adv-x="343" 
d="M350 690q25 0 42.5 -17t17.5 -51q0 -118 -124 -200l-21 27q38 28 58.5 53t25 39.5t5.5 32.5h-6q-29 0 -43.5 17t-14.5 40q0 26 17 42.5t43 16.5zM218 81q0 -31 31 -31h64v-50h-268v50h64q31 0 31 31v518q0 31 -31 31h-64v50h173v-599z" />
    <glyph glyph-name="Lslash" unicode="&#x141;" horiz-adv-x="630" 
d="M525 218h50v-218h-540v50h79q31 0 31 31v162l-68 -44l-24 49l92 59v292q0 31 -31 31h-79v50h325v-50h-99q-31 0 -31 -31v-237l207 133l24 -49l-231 -149v-247h197q24 0 41.5 9.5t26.5 18t16 36.5t8 37.5t4 47.5q1 13 2 19z" />
    <glyph glyph-name="lslash" unicode="&#x142;" horiz-adv-x="348" 
d="M218 81q0 -31 31 -31h64v-50h-268v50h64q31 0 31 31v161l-66 -40l-24 49l90 55v293q0 31 -31 31h-64v50h173v-326l76 46l24 -49l-100 -61v-209z" />
    <glyph glyph-name="Nacute" unicode="&#x143;" horiz-adv-x="785" 
d="M374 752q14 26 33.5 64t32 60.5t21.5 32.5q15 16 35 18.5t36 -10.5q18 -14 18.5 -33.5t-14.5 -37.5q-9 -11 -27.5 -26.5t-55 -44t-55.5 -43.5zM760 680v-50h-79q-31 0 -31 -31v-599h-28l-419 585v-504q0 -31 31 -31h79v-50h-278v50h79q31 0 31 31v518q0 31 -31 31h-79v50
h188l369 -506v425q0 31 -31 31h-79v50h278z" />
    <glyph glyph-name="nacute" unicode="&#x144;" horiz-adv-x="650" 
d="M468 666q-9 -11 -27.5 -26.5t-55 -44t-55.5 -43.5l-24 20q14 26 33.5 64t32 60.5t21.5 32.5q15 16 35 18.5t36 -10.5q18 -14 18.5 -33.5t-14.5 -37.5zM569 50h54v-50h-238v50h44q31 0 31 31v259q0 44 -31.5 74t-78.5 30q-51 0 -93.5 -36.5t-48.5 -112.5v-214
q0 -31 31 -31h44v-50h-238v50h54q31 0 31 31v338q0 31 -31 31h-54v50h163v-105q27 51 72 81.5t99 30.5q67 0 113 -45t46 -112v-269q0 -31 31 -31z" />
    <glyph glyph-name="Ncommaaccent" unicode="&#x145;" horiz-adv-x="785" 
d="M482 680h278v-50h-79q-31 0 -31 -31v-599h-28l-419 585v-504q0 -31 31 -31h79v-50h-278v50h79q31 0 31 31v518q0 31 -31 31h-79v50h188l369 -506v425q0 31 -31 31h-79v50zM397 -60q25 0 42.5 -16.5t17.5 -47.5q0 -102 -114 -148l-15 27q44 25 59.5 42t17.5 34h-10
q-29 0 -43.5 16t-14.5 38q0 24 17 39.5t43 15.5z" />
    <glyph glyph-name="ncommaaccent" unicode="&#x146;" horiz-adv-x="650" 
d="M569 50h54v-50h-238v50h44q31 0 31 31v259q0 44 -31.5 74t-78.5 30q-51 0 -93.5 -36.5t-48.5 -112.5v-214q0 -31 31 -31h44v-50h-238v50h54q31 0 31 31v338q0 31 -31 31h-54v50h163v-105q27 51 72 81.5t99 30.5q67 0 113 -45t46 -112v-269q0 -31 31 -31zM329 -60
q25 0 42.5 -16.5t17.5 -47.5q0 -102 -114 -148l-15 27q44 25 59.5 42t17.5 34h-10q-29 0 -43.5 16t-14.5 38q0 24 17 39.5t43 15.5z" />
    <glyph glyph-name="Ncaron" unicode="&#x147;" horiz-adv-x="785" 
d="M290 920l103 -82l103 82l25 -20l-97 -137q-18 -25 -32 -25q-13 0 -31 25l-96 137zM760 680v-50h-79q-31 0 -31 -31v-599h-28l-419 585v-504q0 -31 31 -31h79v-50h-278v50h79q31 0 31 31v518q0 31 -31 31h-79v50h188l369 -506v425q0 31 -31 31h-79v50h278z" />
    <glyph glyph-name="ncaron" unicode="&#x148;" horiz-adv-x="650" 
d="M324 558q-14 0 -31 25l-96 137l25 20l103 -82l103 82l25 -20l-97 -137q-18 -25 -32 -25zM569 50h54v-50h-238v50h44q31 0 31 31v259q0 44 -31.5 74t-78.5 30q-51 0 -93.5 -36.5t-48.5 -112.5v-214q0 -31 31 -31h44v-50h-238v50h54q31 0 31 31v338q0 31 -31 31h-54v50h163
v-105q27 51 72 81.5t99 30.5q67 0 113 -45t46 -112v-269q0 -31 31 -31z" />
    <glyph glyph-name="Eng" unicode="&#x14a;" horiz-adv-x="785" 
d="M482 680h278v-50h-79q-31 0 -31 -31v-629q0 -75 -38.5 -117.5t-105.5 -42.5q-52 0 -85.5 25t-33.5 64q0 24 15.5 40.5t37.5 16.5q24 0 38 -13.5t14 -36.5q0 -22 -14.5 -35t-36.5 -11q16 -15 43 -15q48 0 64.5 32t16.5 93v110l-362 505v-504q0 -31 31 -31h79v-50h-278v50
h79q31 0 31 31v518q0 31 -31 31h-79v50h188l369 -506v425q0 31 -31 31h-79v50z" />
    <glyph glyph-name="eng" unicode="&#x14b;" horiz-adv-x="618" 
d="M379 507q67 0 113 -45t46 -112v-380q0 -76 -35.5 -118t-101.5 -42q-52 0 -85.5 25t-33.5 64q0 24 15.5 40.5t37.5 16.5q24 0 38 -13.5t14 -36.5q0 -22 -14.5 -35t-36.5 -11q16 -15 43 -15q48 0 64.5 32t16.5 93v370q0 44 -31.5 74t-78.5 30q-51 0 -93.5 -36.5
t-48.5 -112.5v-214q0 -31 31 -31h44v-50h-238v50h54q31 0 31 31v338q0 31 -31 31h-54v50h163v-105q27 51 72 81.5t99 30.5z" />
    <glyph glyph-name="Omacron" unicode="&#x14c;" horiz-adv-x="804" 
d="M272 828h260v-62h-260v62zM402 690q148 0 247.5 -102t99.5 -248t-99.5 -248t-247.5 -102t-247.5 102t-99.5 248t99.5 248t247.5 102zM402 44q111 0 178.5 81.5t67.5 214.5t-67.5 214.5t-178.5 81.5t-178.5 -81.5t-67.5 -214.5t67.5 -214.5t178.5 -81.5z" />
    <glyph glyph-name="omacron" unicode="&#x14d;" horiz-adv-x="584" 
d="M162 648h260v-62h-260v62zM292 507q106 0 179 -72t73 -184q0 -113 -73.5 -187t-178.5 -74t-178.5 74t-73.5 187q0 112 73 184t179 72zM292 36q77 0 122 58t45 157q0 98 -45 154t-122 56t-122 -56t-45 -154q0 -99 45 -157t122 -58z" />
    <glyph glyph-name="Ohungarumlaut" unicode="&#x150;" horiz-adv-x="804" 
d="M303 752q14 26 33.5 64t32 60.5t21.5 32.5q15 16 35 18.5t36 -10.5q18 -14 18.5 -33.5t-14.5 -37.5q-9 -11 -27.5 -26.5t-55 -44t-55.5 -43.5zM483 752q14 26 33.5 64t32 60.5t21.5 32.5q15 16 35 18.5t36 -10.5q18 -14 18.5 -33.5t-14.5 -37.5q-9 -11 -27.5 -26.5
t-55 -44t-55.5 -43.5zM402 690q148 0 247.5 -102t99.5 -248t-99.5 -248t-247.5 -102t-247.5 102t-99.5 248t99.5 248t247.5 102zM402 44q111 0 178.5 81.5t67.5 214.5t-67.5 214.5t-178.5 81.5t-178.5 -81.5t-67.5 -214.5t67.5 -214.5t178.5 -81.5z" />
    <glyph glyph-name="ohungarumlaut" unicode="&#x151;" horiz-adv-x="584" 
d="M193 572q14 26 33.5 64t32 60.5t21.5 32.5q15 16 35 18.5t36 -10.5q18 -14 18.5 -33.5t-14.5 -37.5q-9 -11 -27.5 -26.5t-55 -44t-55.5 -43.5zM373 572q14 26 33.5 64t32 60.5t21.5 32.5q15 16 35 18.5t36 -10.5q18 -14 18.5 -33.5t-14.5 -37.5q-9 -11 -27.5 -26.5
t-55 -44t-55.5 -43.5zM292 507q106 0 179 -72t73 -184q0 -113 -73.5 -187t-178.5 -74t-178.5 74t-73.5 187q0 112 73 184t179 72zM292 36q77 0 122 58t45 157q0 98 -45 154t-122 56t-122 -56t-45 -154q0 -99 45 -157t122 -58z" />
    <glyph glyph-name="OE" unicode="&#x152;" horiz-adv-x="1067" 
d="M952 195h50v-195h-590q-155 0 -256 94t-101 246t101 246t256 94h560v-195h-50q-8 78 -18 99q-19 46 -80 46h-187v-309h117q12 0 22 2.5t17 5.5t12.5 10.5t8 11t5.5 15.5t4 15.5t3 18t2 16.5h44v-240h-44q-1 5 -2.5 19.5t-3 20t-4.5 17t-7.5 16t-12 11t-18.5 9t-26 2.5
h-117v-221h217q39 0 60.5 21t26 41t9.5 67q1 11 2 16zM552 630h-140q-113 0 -184.5 -79.5t-71.5 -210.5t71.5 -210.5t184.5 -79.5h140v580z" />
    <glyph glyph-name="oe" unicode="&#x153;" horiz-adv-x="961" 
d="M544 235q4 -87 47 -139.5t120 -52.5q63 0 105 36t56 99l47 -9q-17 -82 -75.5 -130.5t-144.5 -48.5q-133 0 -200 108q-35 -51 -89.5 -79.5t-117.5 -28.5q-105 0 -178.5 74t-73.5 187q0 112 73 184t179 72q65 0 120 -29t89 -80q33 51 84.5 80t114.5 29q100 0 160.5 -71.5
t60.5 -189.5v-11h-377zM292 36q77 0 122 58t45 157q0 98 -45 154t-122 56t-122 -56t-45 -154q0 -99 45 -157t122 -58zM702 461q-67 0 -108.5 -50.5t-48.5 -132.5h290q-11 183 -133 183z" />
    <glyph glyph-name="Racute" unicode="&#x154;" horiz-adv-x="720" 
d="M486 846q-9 -11 -27.5 -26.5t-55 -44t-55.5 -43.5l-24 20q14 26 33.5 64t32 60.5t21.5 32.5q15 16 35 18.5t36 -10.5q18 -14 18.5 -33.5t-14.5 -37.5zM663 50h52v-50h-201l-108 228q-23 50 -96 50h-80v-197q0 -31 31 -31h89v-50h-315v50h79q31 0 31 31v518q0 31 -31 31
h-79v50h295q134 0 207 -54t73 -138q0 -71 -56.5 -127.5t-148.5 -75.5q76 -20 113 -94l50 -101q12 -24 32 -32t63 -8zM230 328h100q95 0 140.5 49t45.5 110q0 59 -45 101t-141 42h-100v-302z" />
    <glyph glyph-name="racute" unicode="&#x155;" horiz-adv-x="480" 
d="M383 666q-9 -11 -27.5 -26.5t-55 -44t-55.5 -43.5l-24 20q14 26 33.5 64t32 60.5t21.5 32.5q15 16 35 18.5t36 -10.5q18 -14 18.5 -33.5t-14.5 -37.5zM377 507q37 0 60 -20t23 -51q0 -27 -17 -45t-43 -18q-24 0 -39 14t-15 38q0 21 12 33q-60 -6 -102 -70t-48 -195v-112
q0 -31 31 -31h99v-50h-293v50h54q31 0 31 31v338q0 31 -31 31h-54v50h163v-154q24 81 68.5 121t100.5 40z" />
    <glyph glyph-name="Rcommaaccent" unicode="&#x156;" horiz-adv-x="720" 
d="M663 50h52v-50h-201l-108 228q-23 50 -96 50h-80v-197q0 -31 31 -31h89v-50h-315v50h79q31 0 31 31v518q0 31 -31 31h-79v50h295q134 0 207 -54t73 -138q0 -71 -56.5 -127.5t-148.5 -75.5q76 -20 113 -94l50 -101q12 -24 32 -32t63 -8zM230 328h100q95 0 140.5 49
t45.5 110q0 59 -45 101t-141 42h-100v-302zM364 -60q25 0 42.5 -16.5t17.5 -47.5q0 -102 -114 -148l-15 27q44 25 59.5 42t17.5 34h-10q-29 0 -43.5 16t-14.5 38q0 24 17 39.5t43 15.5z" />
    <glyph glyph-name="rcommaaccent" unicode="&#x157;" horiz-adv-x="480" 
d="M377 507q37 0 60 -20t23 -51q0 -27 -17 -45t-43 -18q-24 0 -39 14t-15 38q0 21 12 33q-60 -6 -102 -70t-48 -195v-112q0 -31 31 -31h99v-50h-293v50h54q31 0 31 31v338q0 31 -31 31h-54v50h163v-154q24 81 68.5 121t100.5 40zM167 -60q25 0 42.5 -16.5t17.5 -47.5
q0 -102 -114 -148l-15 27q44 25 59.5 42t17.5 34h-10q-29 0 -43.5 16t-14.5 38q0 24 17 39.5t43 15.5z" />
    <glyph glyph-name="Rcaron" unicode="&#x158;" horiz-adv-x="720" 
d="M342 738q-14 0 -31 25l-96 137l25 20l103 -82l103 82l25 -20l-97 -137q-18 -25 -32 -25zM663 50h52v-50h-201l-108 228q-23 50 -96 50h-80v-197q0 -31 31 -31h89v-50h-315v50h79q31 0 31 31v518q0 31 -31 31h-79v50h295q134 0 207 -54t73 -138q0 -71 -56.5 -127.5
t-148.5 -75.5q76 -20 113 -94l50 -101q12 -24 32 -32t63 -8zM230 328h100q95 0 140.5 49t45.5 110q0 59 -45 101t-141 42h-100v-302z" />
    <glyph glyph-name="rcaron" unicode="&#x159;" horiz-adv-x="480" 
d="M239 558q-13 0 -31 25l-96 137l25 20l103 -82l103 82l25 -20l-97 -137q-18 -25 -32 -25zM377 507q37 0 60 -20t23 -51q0 -27 -17 -45t-43 -18q-24 0 -39 14t-15 38q0 21 12 33q-60 -6 -102 -70t-48 -195v-112q0 -31 31 -31h99v-50h-293v50h54q31 0 31 31v338q0 31 -31 31
h-54v50h163v-154q24 81 68.5 121t100.5 40z" />
    <glyph glyph-name="Sacute" unicode="&#x15a;" horiz-adv-x="586" 
d="M434 846q-9 -11 -27.5 -26.5t-55 -44t-55.5 -43.5l-24 20q14 26 33.5 64t32 60.5t21.5 32.5q15 16 35 18.5t36 -10.5q18 -14 18.5 -33.5t-14.5 -37.5zM150 522q0 -35 21 -60t54.5 -40t74.5 -28t81.5 -29t74 -37.5t54.5 -58.5t21 -88q0 -83 -66 -137t-170 -54
q-62 0 -110 18t-75.5 47t-41 61.5t-13.5 65.5q0 36 20.5 55t48.5 19q26 0 41.5 -16t15.5 -39q0 -27 -19.5 -43t-45.5 -14q41 -103 176 -103q72 0 115.5 34.5t43.5 89.5q0 53 -39 86t-95 50.5t-112.5 36.5t-95.5 60t-39 107q0 80 61.5 132.5t161.5 52.5q105 0 167 -52.5
t62 -117.5q0 -34 -17 -49.5t-44 -15.5q-25 0 -41.5 16t-16.5 39q0 25 17 40.5t40 17.5q-45 71 -154 71q-72 0 -114 -32.5t-42 -84.5z" />
    <glyph glyph-name="sacute" unicode="&#x15b;" horiz-adv-x="469" 
d="M378 666q-9 -11 -27.5 -26.5t-55 -44t-55.5 -43.5l-24 20q14 26 33.5 64t32 60.5t21.5 32.5q15 16 35 18.5t36 -10.5q18 -14 18.5 -33.5t-14.5 -37.5zM129 386q0 -34 30.5 -55.5t73.5 -34t86.5 -27.5t74 -48t30.5 -84q0 -69 -50 -108t-135 -39q-88 0 -141 39t-53 94
q0 29 15 45t39 16q23 0 38 -14t15 -38q0 -23 -13.5 -36.5t-38.5 -14.5q42 -49 129 -49q59 0 90.5 25t31.5 65q0 39 -30.5 62.5t-74 35.5t-87 26t-74 45t-30.5 80q0 66 49 101t132 35t130 -33.5t47 -80.5q0 -27 -15.5 -44t-39.5 -17q-22 0 -37 14.5t-15 35.5q0 19 13 32.5
t33 16.5q-31 34 -103 34q-55 0 -87.5 -21t-32.5 -58z" />
    <glyph glyph-name="Scedilla" unicode="&#x15e;" horiz-adv-x="586" 
d="M295 -10h-1l-28 -57q48 0 79.5 -23.5t31.5 -58.5q0 -37 -35 -62.5t-85 -25.5q-47 0 -99 28l16 34q37 -20 77 -20q27 0 44 12.5t17 33.5q0 27 -29.5 39t-76.5 5l-9 17l54 81q-97 11 -146.5 67t-49.5 122q0 36 20.5 55t48.5 19q26 0 41.5 -16t15.5 -39q0 -27 -19.5 -43
t-45.5 -14q41 -103 176 -103q72 0 115.5 34.5t43.5 89.5q0 53 -39 86t-95 50.5t-112.5 36.5t-95.5 60t-39 107q0 80 61.5 132.5t161.5 52.5q105 0 167 -52.5t62 -117.5q0 -34 -17 -49.5t-44 -15.5q-25 0 -41.5 16t-16.5 39q0 25 17 40.5t40 17.5q-45 71 -154 71
q-72 0 -114 -32.5t-42 -84.5q0 -35 21 -60t54.5 -40t74.5 -28t81.5 -29t74 -37.5t54.5 -58.5t21 -88q0 -83 -66 -137t-170 -54z" />
    <glyph glyph-name="scedilla" unicode="&#x15f;" horiz-adv-x="469" 
d="M424 137q0 -68 -48.5 -106.5t-131.5 -40.5l-28 -57q48 0 79.5 -23.5t31.5 -58.5q0 -37 -35 -62.5t-85 -25.5q-47 0 -99 28l16 34q37 -20 77 -20q27 0 44 12.5t17 33.5q0 27 -29.5 39t-76.5 5l-9 17l54 80q-72 9 -114 46t-42 85q0 29 15 45t39 16q23 0 38 -14t15 -38
q0 -23 -13.5 -36.5t-38.5 -14.5q42 -49 129 -49q59 0 90.5 25t31.5 65q0 39 -30.5 62.5t-74 35.5t-87 26t-74 45t-30.5 80q0 66 49 101t132 35t130 -33.5t47 -80.5q0 -27 -15.5 -44t-39.5 -17q-22 0 -37 14.5t-15 35.5q0 19 13 32.5t33 16.5q-31 34 -103 34q-55 0 -87.5 -21
t-32.5 -58q0 -34 30.5 -55.5t73.5 -34t86.5 -27.5t74 -48t30.5 -84z" />
    <glyph glyph-name="Scaron" unicode="&#x160;" horiz-adv-x="586" 
d="M290 738q-14 0 -31 25l-96 137l25 20l103 -82l103 82l25 -20l-97 -137q-18 -25 -32 -25zM150 522q0 -35 21 -60t54.5 -40t74.5 -28t81.5 -29t74 -37.5t54.5 -58.5t21 -88q0 -83 -66 -137t-170 -54q-62 0 -110 18t-75.5 47t-41 61.5t-13.5 65.5q0 36 20.5 55t48.5 19
q26 0 41.5 -16t15.5 -39q0 -27 -19.5 -43t-45.5 -14q41 -103 176 -103q72 0 115.5 34.5t43.5 89.5q0 53 -39 86t-95 50.5t-112.5 36.5t-95.5 60t-39 107q0 80 61.5 132.5t161.5 52.5q105 0 167 -52.5t62 -117.5q0 -34 -17 -49.5t-44 -15.5q-25 0 -41.5 16t-16.5 39
q0 25 17 40.5t40 17.5q-45 71 -154 71q-72 0 -114 -32.5t-42 -84.5z" />
    <glyph glyph-name="scaron" unicode="&#x161;" horiz-adv-x="469" 
d="M234 558q-14 0 -31 25l-96 137l25 20l103 -82l103 82l25 -20l-97 -137q-18 -25 -32 -25zM129 386q0 -34 30.5 -55.5t73.5 -34t86.5 -27.5t74 -48t30.5 -84q0 -69 -50 -108t-135 -39q-88 0 -141 39t-53 94q0 29 15 45t39 16q23 0 38 -14t15 -38q0 -23 -13.5 -36.5
t-38.5 -14.5q42 -49 129 -49q59 0 90.5 25t31.5 65q0 39 -30.5 62.5t-74 35.5t-87 26t-74 45t-30.5 80q0 66 49 101t132 35t130 -33.5t47 -80.5q0 -27 -15.5 -44t-39.5 -17q-22 0 -37 14.5t-15 35.5q0 19 13 32.5t33 16.5q-31 34 -103 34q-55 0 -87.5 -21t-32.5 -58z" />
    <glyph glyph-name="uni0162" unicode="&#x162;" horiz-adv-x="675" 
d="M50 680h575v-218h-50q-8 90 -17 114q-22 53 -81 54h-97v-549q0 -31 31 -31h104v-50h-159l-33 -67q48 0 79.5 -23.5t31.5 -58.5q0 -37 -35 -62.5t-85 -25.5q-46 0 -99 28l16 34q37 -20 77 -20q27 0 44 12.5t17 33.5q0 27 -29.5 39t-76.5 5l-9 17l59 88h-153v50h104
q31 0 31 31v549h-97q-24 0 -41.5 -9.5t-26.5 -18t-16 -36.5t-8 -37.5t-4 -47.5q-1 -13 -2 -19h-50v218z" />
    <glyph glyph-name="uni0163" unicode="&#x163;" horiz-adv-x="364" 
d="M222 -10h-7l-28 -57q48 0 79.5 -23.5t31.5 -58.5q0 -37 -35 -62.5t-85 -25.5q-46 0 -99 28l16 34q37 -20 77 -20q27 0 44 12.5t17 33.5q0 27 -29.5 39t-76.5 5l-9 17l57 85q-41 13 -65.5 44.5t-24.5 73.5v335h-85v50h8q49 0 71.5 19t55.5 81h28v-100h169v-50h-169v-335
q0 -32 21.5 -53t53.5 -21q29 0 51 19.5t28 48.5l37 -13q-9 -46 -46.5 -76t-85.5 -30z" />
    <glyph glyph-name="Tcaron" unicode="&#x164;" horiz-adv-x="675" 
d="M235 920l103 -82l103 82l25 -20l-97 -137q-18 -25 -32 -25q-13 0 -31 25l-96 137zM625 680v-218h-50q-8 90 -17 114q-22 53 -81 54h-97v-549q0 -31 31 -31h104v-50h-355v50h104q31 0 31 31v549h-97q-24 0 -41.5 -9.5t-26.5 -18t-16 -36.5t-8 -37.5t-4 -47.5
q-1 -13 -2 -19h-50v218h575z" />
    <glyph glyph-name="tcaron" unicode="&#x165;" horiz-adv-x="364" 
d="M216 569q38 28 58.5 53t25 39.5t5.5 32.5h-6q-29 0 -43.5 17t-14.5 40q0 26 17 42.5t43 16.5q25 0 42.5 -17t17.5 -51q0 -118 -124 -200zM238 41q29 0 51 19.5t28 48.5l37 -13q-9 -46 -46.5 -76t-85.5 -30q-58 0 -97.5 36t-39.5 89v335h-85v50h8q49 0 71.5 19t55.5 81h28
v-100h169v-50h-169v-335q0 -32 21.5 -53t53.5 -21z" />
    <glyph glyph-name="Tbar" unicode="&#x166;" horiz-adv-x="675" 
d="M50 680h575v-218h-50q-8 90 -17 114q-22 53 -81 54h-97v-293h130v-50h-130v-206q0 -31 31 -31h104v-50h-355v50h104q31 0 31 31v206h-130v50h130v293h-97q-24 0 -41.5 -9.5t-26.5 -18t-16 -36.5t-8 -37.5t-4 -47.5q-1 -13 -2 -19h-50v218z" />
    <glyph glyph-name="tbar" unicode="&#x167;" horiz-adv-x="364" 
d="M317 109l37 -13q-9 -46 -46.5 -76t-85.5 -30q-58 0 -97.5 36t-39.5 89v172h-55v50h55v113h-85v50h8q49 0 71.5 19t55.5 81h28v-100h169v-50h-169v-113h148v-50h-148v-172q0 -32 21.5 -53t53.5 -21q29 0 51 19.5t28 48.5z" />
    <glyph glyph-name="Umacron" unicode="&#x16a;" horiz-adv-x="726" 
d="M253 828h260v-62h-260v62zM711 680v-50h-69q-31 0 -31 -31v-389q0 -101 -65 -160.5t-172 -59.5q-113 0 -186 63t-73 157v389q0 31 -31 31h-69v50h304v-50h-88q-31 0 -31 -31v-389q0 -72 48.5 -119t128.5 -47q78 0 127 45.5t49 120.5v389q0 31 -31 31h-75v50h264z" />
    <glyph glyph-name="umacron" unicode="&#x16b;" horiz-adv-x="604" 
d="M162 648h260v-62h-260v62zM530 50h54v-50h-163v104q-27 -51 -72.5 -82.5t-99.5 -31.5q-67 0 -113 45t-46 112v282q-4 21 -30 21h-55v50h163v-343q0 -44 31.5 -74t78.5 -30q55 0 99 42.5t44 130.5v193q0 31 -31 31h-47v50h156v-419q0 -31 31 -31z" />
    <glyph glyph-name="Uring" unicode="&#x16e;" horiz-adv-x="726" 
d="M383 734q-45 0 -75 28t-30 70t30 70t75 28t75 -28t30 -70t-30 -70t-75 -28zM383 777q24 0 39.5 15.5t15.5 39.5t-16 40t-39 16t-39 -16t-16 -40t15.5 -39.5t39.5 -15.5zM711 680v-50h-69q-31 0 -31 -31v-389q0 -101 -65 -160.5t-172 -59.5q-113 0 -186 63t-73 157v389
q0 31 -31 31h-69v50h304v-50h-88q-31 0 -31 -31v-389q0 -72 48.5 -119t128.5 -47q78 0 127 45.5t49 120.5v389q0 31 -31 31h-75v50h264z" />
    <glyph glyph-name="uring" unicode="&#x16f;" horiz-adv-x="604" 
d="M292 554q-45 0 -75 28t-30 70t30 70t75 28t75 -28t30 -70t-30 -70t-75 -28zM292 597q24 0 39.5 15.5t15.5 39.5t-15.5 40t-39.5 16t-39.5 -16t-15.5 -40t15.5 -39.5t39.5 -15.5zM530 50h54v-50h-163v104q-27 -51 -72.5 -82.5t-99.5 -31.5q-67 0 -113 45t-46 112v282
q-4 21 -30 21h-55v50h163v-343q0 -44 31.5 -74t78.5 -30q55 0 99 42.5t44 130.5v193q0 31 -31 31h-47v50h156v-419q0 -31 31 -31z" />
    <glyph glyph-name="Uhungarumlaut" unicode="&#x170;" horiz-adv-x="726" 
d="M284 752q14 26 33.5 64t32 60.5t21.5 32.5q15 16 35 18.5t36 -10.5q18 -14 18.5 -33.5t-14.5 -37.5q-9 -11 -27.5 -26.5t-55 -44t-55.5 -43.5zM464 752q14 26 33.5 64t32 60.5t21.5 32.5q15 16 35 18.5t36 -10.5q18 -14 18.5 -33.5t-14.5 -37.5q-9 -11 -27.5 -26.5
t-55 -44t-55.5 -43.5zM711 680v-50h-69q-31 0 -31 -31v-389q0 -101 -65 -160.5t-172 -59.5q-113 0 -186 63t-73 157v389q0 31 -31 31h-69v50h304v-50h-88q-31 0 -31 -31v-389q0 -72 48.5 -119t128.5 -47q78 0 127 45.5t49 120.5v389q0 31 -31 31h-75v50h264z" />
    <glyph glyph-name="uhungarumlaut" unicode="&#x171;" horiz-adv-x="604" 
d="M193 572q14 26 33.5 64t32 60.5t21.5 32.5q15 16 35 18.5t36 -10.5q18 -14 18.5 -33.5t-14.5 -37.5q-9 -11 -27.5 -26.5t-55 -44t-55.5 -43.5zM373 572q14 26 33.5 64t32 60.5t21.5 32.5q15 16 35 18.5t36 -10.5q18 -14 18.5 -33.5t-14.5 -37.5q-9 -11 -27.5 -26.5
t-55 -44t-55.5 -43.5zM530 50h54v-50h-163v104q-27 -51 -72.5 -82.5t-99.5 -31.5q-67 0 -113 45t-46 112v282q-4 21 -30 21h-55v50h163v-343q0 -44 31.5 -74t78.5 -30q55 0 99 42.5t44 130.5v193q0 31 -31 31h-47v50h156v-419q0 -31 31 -31z" />
    <glyph glyph-name="Uogonek" unicode="&#x172;" horiz-adv-x="726" 
d="M447 680h264v-50h-69q-31 0 -31 -31v-389q0 -71 -33.5 -122.5t-94.5 -77.5q-74 -32 -74 -89q0 -24 16 -40t41 -16t59 16l16 -33q-37 -38 -96 -38q-46 0 -77.5 24t-31.5 64q0 48 53 92h-15q-113 0 -186 63t-73 157v389q0 31 -31 31h-69v50h304v-50h-88q-31 0 -31 -31v-389
q0 -72 48.5 -119t128.5 -47q78 0 127 45.5t49 120.5v389q0 31 -31 31h-75v50z" />
    <glyph glyph-name="uogonek" unicode="&#x173;" horiz-adv-x="604" 
d="M572 -119l16 -33q-39 -38 -96 -38q-45 0 -77.5 24.5t-32.5 64.5q0 64 78 101h-39v104q-27 -51 -72.5 -82.5t-99.5 -31.5q-67 0 -113 45t-46 112v282q-4 21 -30 21h-55v50h163v-343q0 -44 31.5 -74t78.5 -30q55 0 99 42.5t44 130.5v193q0 31 -31 31h-47v50h156v-419
q0 -31 31 -31h54v-50h-11q-55 0 -86 -24.5t-31 -55.5q0 -26 15.5 -40.5t43.5 -14.5q23 0 57 16z" />
    <glyph glyph-name="Wcircumflex" unicode="&#x174;" horiz-adv-x="1065" 
d="M543 820l-103 -82l-25 20l96 137q17 25 31 25t32 -25l97 -137l-25 -20zM834 680h231v-50h-36q-32 0 -46 -32l-212 -598h-30l-203 528l-187 -528h-30l-240 601q-11 29 -47 29h-34v50h251v-50h-55q-33 0 -21 -33l171 -442l157 444q5 14 -1.5 22.5t-22.5 8.5h-85v50h297v-50
h-75q-14 0 -20 -9.5t-1 -23.5l171 -442l156 443q8 32 -22 32h-66v50z" />
    <glyph glyph-name="wcircumflex" unicode="&#x175;" horiz-adv-x="872" 
d="M362 558l-25 20l96 137q17 25 31 25t32 -25l97 -137l-25 -20l-103 82zM665 500h192v-50h-24q-34 0 -48 -35l-159 -415h-32l-145 368l-143 -368h-32l-174 416q-14 34 -49 34h-36v50h255v-50h-63q-13 0 -20 -9.5t-2 -21.5l116 -302l117 302q5 13 -1 22t-20 9h-62v50h255
v-50h-63q-13 0 -19 -9.5t-3 -21.5l116 -302l110 300q5 13 -1 23t-20 10h-45v50z" />
    <glyph glyph-name="Ycircumflex" unicode="&#x176;" horiz-adv-x="665" 
d="M341 820l-103 -82l-25 20l96 137q17 25 31 25t32 -25l97 -137l-25 -20zM404 680h261v-50h-57q-37 0 -56 -32l-183 -307v-210q0 -31 31 -31h79v-50h-305v50h79q31 0 31 31v209l-177 312q-15 28 -51 28h-56v50h281v-50h-63q-34 0 -18 -31l139 -262l155 265q7 13 2.5 20.5
t-19.5 7.5h-73v50z" />
    <glyph glyph-name="ycircumflex" unicode="&#x177;" horiz-adv-x="592" 
d="M213 558l-25 20l96 137q18 25 31 25q14 0 32 -25l97 -137l-25 -20l-103 82zM385 500h192v-50h-26q-34 0 -50 -36l-193 -454q-33 -77 -71.5 -113.5t-98.5 -36.5q-47 0 -80.5 24.5t-33.5 64.5q0 26 16.5 44t41.5 18q24 0 39 -15.5t15 -38.5q0 -42 -41 -49q15 -8 34 -8
q46 0 74 27t51 83l23 56l-177 403q-13 31 -47 31h-38v50h251v-50h-58q-15 0 -21.5 -8t-1.5 -21l130 -315l131 313q6 15 -1 23t-21 8h-39v50z" />
    <glyph glyph-name="Ydieresis" unicode="&#x178;" horiz-adv-x="665" 
d="M247 745q-26 0 -43.5 17t-17.5 43t17.5 44t43.5 18q25 0 42 -17.5t17 -43.5t-17 -43.5t-42 -17.5zM437 745q-26 0 -43.5 17t-17.5 43t17.5 44t43.5 18q25 0 42 -17.5t17 -43.5t-17 -43.5t-42 -17.5zM404 680h261v-50h-57q-37 0 -56 -32l-183 -307v-210q0 -31 31 -31h79
v-50h-305v50h79q31 0 31 31v209l-177 312q-15 28 -51 28h-56v50h281v-50h-63q-34 0 -18 -31l139 -262l155 265q7 13 2.5 20.5t-19.5 7.5h-73v50z" />
    <glyph glyph-name="Zacute" unicode="&#x179;" horiz-adv-x="587" 
d="M437 846q-9 -11 -27.5 -26.5t-55 -44t-55.5 -43.5l-24 20q14 26 33.5 64t32 60.5t21.5 32.5q15 16 35 18.5t36 -10.5q18 -14 18.5 -33.5t-14.5 -37.5zM492 222h50v-222h-497v20l378 613h-242q-13 0 -23.5 -2.5t-18.5 -9.5t-13.5 -12.5t-10 -18.5t-7 -20.5t-5 -25
t-3.5 -25t-2.5 -29t-2.5 -28.5h-50v218h485v-20l-379 -613h255q17 0 30 4.5t22 18t14 22.5t9 33.5t5 34t4 40.5q0 5 0.5 7.5t1 7t0.5 7.5z" />
    <glyph glyph-name="zacute" unicode="&#x17a;" horiz-adv-x="522" 
d="M404 666q-9 -11 -27.5 -26.5t-55 -44t-55.5 -43.5l-24 20q14 26 33.5 64t32 60.5t21.5 32.5q15 16 35 18.5t36 -10.5q18 -14 18.5 -33.5t-14.5 -37.5zM415 180h47v-180h-395v24l294 432h-157q-12 0 -22.5 -2.5t-18.5 -4.5t-14.5 -9t-11 -11t-8 -15t-5.5 -15t-4.5 -18.5
t-3 -18.5t-2.5 -21t-2 -21h-47v180h393v-24l-294 -432h159q12 0 22.5 2.5t18.5 4.5t14.5 9t11 11t8 15t5.5 15t4.5 18.5t3 18.5t2.5 21t2 21z" />
    <glyph glyph-name="Zdotaccent" unicode="&#x17b;" horiz-adv-x="587" 
d="M295 745q-26 0 -43.5 17t-17.5 43t17.5 44t43.5 18q25 0 42 -17.5t17 -43.5t-17 -43.5t-42 -17.5zM492 222h50v-222h-497v20l378 613h-242q-13 0 -23.5 -2.5t-18.5 -9.5t-13.5 -12.5t-10 -18.5t-7 -20.5t-5 -25t-3.5 -25t-2.5 -29t-2.5 -28.5h-50v218h485v-20l-379 -613
h255q17 0 30 4.5t22 18t14 22.5t9 33.5t5 34t4 40.5q0 5 0.5 7.5t1 7t0.5 7.5z" />
    <glyph glyph-name="zdotaccent" unicode="&#x17c;" horiz-adv-x="522" 
d="M262 565q-26 0 -43.5 17t-17.5 43t17.5 44t43.5 18q25 0 42 -17.5t17 -43.5t-17 -43.5t-42 -17.5zM415 180h47v-180h-395v24l294 432h-157q-12 0 -22.5 -2.5t-18.5 -4.5t-14.5 -9t-11 -11t-8 -15t-5.5 -15t-4.5 -18.5t-3 -18.5t-2.5 -21t-2 -21h-47v180h393v-24
l-294 -432h159q12 0 22.5 2.5t18.5 4.5t14.5 9t11 11t8 15t5.5 15t4.5 18.5t3 18.5t2.5 21t2 21z" />
    <glyph glyph-name="Zcaron" unicode="&#x17d;" horiz-adv-x="587" 
d="M293 738q-13 0 -31 25l-96 137l25 20l103 -82l103 82l25 -20l-97 -137q-18 -25 -32 -25zM492 222h50v-222h-497v20l378 613h-242q-13 0 -23.5 -2.5t-18.5 -9.5t-13.5 -12.5t-10 -18.5t-7 -20.5t-5 -25t-3.5 -25t-2.5 -29t-2.5 -28.5h-50v218h485v-20l-379 -613h255
q17 0 30 4.5t22 18t14 22.5t9 33.5t5 34t4 40.5q0 5 0.5 7.5t1 7t0.5 7.5z" />
    <glyph glyph-name="zcaron" unicode="&#x17e;" horiz-adv-x="522" 
d="M260 558q-14 0 -31 25l-96 137l25 20l103 -82l103 82l25 -20l-97 -137q-18 -25 -32 -25zM415 180h47v-180h-395v24l294 432h-157q-12 0 -22.5 -2.5t-18.5 -4.5t-14.5 -9t-11 -11t-8 -15t-5.5 -15t-4.5 -18.5t-3 -18.5t-2.5 -21t-2 -21h-47v180h393v-24l-294 -432h159
q12 0 22.5 2.5t18.5 4.5t14.5 9t11 11t8 15t5.5 15t4.5 18.5t3 18.5t2.5 21t2 21z" />
    <glyph glyph-name="Scommaaccent" unicode="&#x218;" horiz-adv-x="586" 
d="M150 522q0 -35 21 -60t54.5 -40t74.5 -28t81.5 -29t74 -37.5t54.5 -58.5t21 -88q0 -83 -66 -137t-170 -54q-62 0 -110 18t-75.5 47t-41 61.5t-13.5 65.5q0 36 20.5 55t48.5 19q26 0 41.5 -16t15.5 -39q0 -27 -19.5 -43t-45.5 -14q41 -103 176 -103q72 0 115.5 34.5
t43.5 89.5q0 53 -39 86t-95 50.5t-112.5 36.5t-95.5 60t-39 107q0 80 61.5 132.5t161.5 52.5q105 0 167 -52.5t62 -117.5q0 -34 -17 -49.5t-44 -15.5q-25 0 -41.5 16t-16.5 39q0 25 17 40.5t40 17.5q-45 71 -154 71q-72 0 -114 -32.5t-42 -84.5zM295 -60q25 0 42.5 -16.5
t17.5 -47.5q0 -102 -114 -148l-15 27q44 25 59.5 42t17.5 34h-10q-29 0 -43.5 16t-14.5 38q0 24 17 39.5t43 15.5z" />
    <glyph glyph-name="scommaaccent" unicode="&#x219;" horiz-adv-x="469" 
d="M129 386q0 -34 30.5 -55.5t73.5 -34t86.5 -27.5t74 -48t30.5 -84q0 -69 -50 -108t-135 -39q-88 0 -141 39t-53 94q0 29 15 45t39 16q23 0 38 -14t15 -38q0 -23 -13.5 -36.5t-38.5 -14.5q42 -49 129 -49q59 0 90.5 25t31.5 65q0 39 -30.5 62.5t-74 35.5t-87 26t-74 45
t-30.5 80q0 66 49 101t132 35t130 -33.5t47 -80.5q0 -27 -15.5 -44t-39.5 -17q-22 0 -37 14.5t-15 35.5q0 19 13 32.5t33 16.5q-31 34 -103 34q-55 0 -87.5 -21t-32.5 -58zM245 -60q25 0 42.5 -16.5t17.5 -47.5q0 -102 -114 -148l-15 27q44 25 59.5 42t17.5 34h-10
q-29 0 -43.5 16t-14.5 38q0 24 17 39.5t43 15.5z" />
    <glyph glyph-name="uni021A" unicode="&#x21a;" horiz-adv-x="675" 
d="M50 680h575v-218h-50q-8 90 -17 114q-22 53 -81 54h-97v-549q0 -31 31 -31h104v-50h-355v50h104q31 0 31 31v549h-97q-24 0 -41.5 -9.5t-26.5 -18t-16 -36.5t-8 -37.5t-4 -47.5q-1 -13 -2 -19h-50v218zM329 -60q25 0 42.5 -16.5t17.5 -47.5q0 -102 -114 -148l-15 27
q44 25 59.5 42t17.5 34h-10q-29 0 -43.5 16t-14.5 38q0 24 17 39.5t43 15.5z" />
    <glyph glyph-name="uni021B" unicode="&#x21b;" horiz-adv-x="364" 
d="M222 -10q-58 0 -97.5 36t-39.5 89v335h-85v50h8q49 0 71.5 19t55.5 81h28v-100h169v-50h-169v-335q0 -32 21.5 -53t53.5 -21q29 0 51 19.5t28 48.5l37 -13q-9 -46 -46.5 -76t-85.5 -30zM216 -60q25 0 42.5 -16.5t17.5 -47.5q0 -102 -114 -148l-15 27q44 25 59.5 42
t17.5 34h-10q-29 0 -43.5 16t-14.5 38q0 24 17 39.5t43 15.5z" />
    <glyph glyph-name="circumflex" unicode="&#x2c6;" horiz-adv-x="296" 
d="M45 558l-25 20l96 137q18 25 31 25q14 0 32 -25l97 -137l-25 -20l-103 82z" />
    <glyph glyph-name="caron" unicode="&#x2c7;" horiz-adv-x="296" 
d="M45 740l103 -82l103 82l25 -20l-97 -137q-18 -25 -32 -25q-13 0 -31 25l-96 137z" />
    <glyph glyph-name="breve" unicode="&#x2d8;" horiz-adv-x="314" 
d="M243 722l41 -7q-6 -66 -40 -102t-87 -36t-87 36t-40 102l41 7q23 -77 86 -77t86 77z" />
    <glyph glyph-name="dotaccent" unicode="&#x2d9;" horiz-adv-x="180" 
d="M91 565q-26 0 -43.5 17t-17.5 43t17.5 44t43.5 18q25 0 42 -17.5t17 -43.5t-17 -43.5t-42 -17.5z" />
    <glyph glyph-name="ring" unicode="&#x2da;" horiz-adv-x="270" 
d="M135 554q-45 0 -75 28t-30 70t30 70t75 28t75 -28t30 -70t-30 -70t-75 -28zM135 597q24 0 39.5 15.5t15.5 39.5t-16 40t-39 16t-39 -16t-16 -40t15.5 -39.5t39.5 -15.5z" />
    <glyph glyph-name="ogonek" unicode="&#x2db;" horiz-adv-x="252" 
d="M150 -190q-45 0 -77.5 24.5t-32.5 64.5q0 52 55 88.5t143 36.5l-7 -24q-55 0 -86 -24.5t-31 -55.5q0 -26 15.5 -40.5t43.5 -14.5q23 0 57 16l16 -33q-39 -38 -96 -38z" />
    <glyph glyph-name="tilde" unicode="&#x2dc;" horiz-adv-x="363" 
d="M333 671q-9 -103 -84 -103q-30 0 -74.5 28.5t-67.5 28.5q-6 0 -10.5 -1.5t-8 -2.5t-6.5 -5l-4.5 -6t-3.5 -8t-3 -8t-3 -10t-2 -9l-36 12q9 100 84 100q33 0 79 -28.5t65 -28.5q7 0 13 2.5t10 6t7 9.5t4 10t3 10.5t2 7.5z" />
    <glyph glyph-name="hungarumlaut" unicode="&#x2dd;" horiz-adv-x="422" 
d="M53 572q14 26 33.5 64t32 60.5t21.5 32.5q15 16 35 18.5t36 -10.5q18 -14 18.5 -33.5t-14.5 -37.5q-9 -11 -27.5 -26.5t-55 -44t-55.5 -43.5zM233 572q14 26 33.5 64t32 60.5t21.5 32.5q15 16 35 18.5t36 -10.5q18 -14 18.5 -33.5t-14.5 -37.5q-9 -11 -27.5 -26.5
t-55 -44t-55.5 -43.5z" />
    <glyph glyph-name="uni030C" unicode="&#x30c;" horiz-adv-x="0" 
d="M-140 690q25 0 42.5 -17t17.5 -51q0 -118 -124 -200l-21 27q38 28 58.5 53t25 39.5t5.5 32.5h-6q-29 0 -43.5 17t-14.5 40q0 26 17 42.5t43 16.5z" />
    <glyph glyph-name="uni0326" unicode="&#x326;" horiz-adv-x="0" 
d="M-126 -60q25 0 42.5 -16.5t17.5 -47.5q0 -102 -114 -148l-15 27q44 25 59.5 42t17.5 34h-10q-29 0 -43.5 16t-14.5 38q0 24 17 39.5t43 15.5z" />
    <glyph glyph-name="Wgrave" unicode="&#x1e80;" horiz-adv-x="1065" 
d="M588 732q-19 15 -55.5 43.5t-55 44t-27.5 26.5q-15 18 -14.5 37.5t18.5 33.5q16 13 36 10.5t35 -18.5q9 -10 21.5 -32.5t32 -60.5t33.5 -64zM834 680h231v-50h-36q-32 0 -46 -32l-212 -598h-30l-203 528l-187 -528h-30l-240 601q-11 29 -47 29h-34v50h251v-50h-55
q-33 0 -21 -33l171 -442l157 444q5 14 -1.5 22.5t-22.5 8.5h-85v50h297v-50h-75q-14 0 -20 -9.5t-1 -23.5l171 -442l156 443q8 32 -22 32h-66v50z" />
    <glyph glyph-name="wgrave" unicode="&#x1e81;" horiz-adv-x="872" 
d="M534 572l-24 -20q-19 15 -55.5 43.5t-55 44t-27.5 26.5q-15 18 -14.5 37.5t18.5 33.5q16 13 36 10.5t35 -18.5q9 -10 21.5 -32.5t32 -60.5t33.5 -64zM665 500h192v-50h-24q-34 0 -48 -35l-159 -415h-32l-145 368l-143 -368h-32l-174 416q-14 34 -49 34h-36v50h255v-50
h-63q-13 0 -20 -9.5t-2 -21.5l116 -302l117 302q5 13 -1 22t-20 9h-62v50h255v-50h-63q-13 0 -19 -9.5t-3 -21.5l116 -302l110 300q5 13 -1 23t-20 10h-45v50z" />
    <glyph glyph-name="Wacute" unicode="&#x1e82;" horiz-adv-x="1065" 
d="M686 846q-9 -11 -27.5 -26.5t-55 -44t-55.5 -43.5l-24 20q14 26 33.5 64t32 60.5t21.5 32.5q15 16 35 18.5t36 -10.5q18 -14 18.5 -33.5t-14.5 -37.5zM834 680h231v-50h-36q-32 0 -46 -32l-212 -598h-30l-203 528l-187 -528h-30l-240 601q-11 29 -47 29h-34v50h251v-50
h-55q-33 0 -21 -33l171 -442l157 444q5 14 -1.5 22.5t-22.5 8.5h-85v50h297v-50h-75q-14 0 -20 -9.5t-1 -23.5l171 -442l156 443q8 32 -22 32h-66v50z" />
    <glyph glyph-name="wacute" unicode="&#x1e83;" horiz-adv-x="872" 
d="M608 666q-9 -11 -27.5 -26.5t-55 -44t-55.5 -43.5l-24 20q14 26 33.5 64t32 60.5t21.5 32.5q15 16 35 18.5t36 -10.5q18 -14 18.5 -33.5t-14.5 -37.5zM665 500h192v-50h-24q-34 0 -48 -35l-159 -415h-32l-145 368l-143 -368h-32l-174 416q-14 34 -49 34h-36v50h255v-50
h-63q-13 0 -20 -9.5t-2 -21.5l116 -302l117 302q5 13 -1 22t-20 9h-62v50h255v-50h-63q-13 0 -19 -9.5t-3 -21.5l116 -302l110 300q5 13 -1 23t-20 10h-45v50z" />
    <glyph glyph-name="Wdieresis" unicode="&#x1e84;" horiz-adv-x="1065" 
d="M449 745q-26 0 -43.5 17t-17.5 43t17.5 44t43.5 18q25 0 42 -17.5t17 -43.5t-17 -43.5t-42 -17.5zM639 745q-26 0 -43.5 17t-17.5 43t17.5 44t43.5 18q25 0 42 -17.5t17 -43.5t-17 -43.5t-42 -17.5zM834 680h231v-50h-36q-32 0 -46 -32l-212 -598h-30l-203 528l-187 -528
h-30l-240 601q-11 29 -47 29h-34v50h251v-50h-55q-33 0 -21 -33l171 -442l157 444q5 14 -1.5 22.5t-22.5 8.5h-85v50h297v-50h-75q-14 0 -20 -9.5t-1 -23.5l171 -442l156 443q8 32 -22 32h-66v50z" />
    <glyph glyph-name="wdieresis" unicode="&#x1e85;" horiz-adv-x="872" 
d="M371 565q-26 0 -43.5 17t-17.5 43t17.5 44t43.5 18q25 0 42 -17.5t17 -43.5t-17 -43.5t-42 -17.5zM561 565q-26 0 -43.5 17t-17.5 43t17.5 44t43.5 18q25 0 42 -17.5t17 -43.5t-17 -43.5t-42 -17.5zM665 500h192v-50h-24q-34 0 -48 -35l-159 -415h-32l-145 368l-143 -368
h-32l-174 416q-14 34 -49 34h-36v50h255v-50h-63q-13 0 -20 -9.5t-2 -21.5l116 -302l117 302q5 13 -1 22t-20 9h-62v50h255v-50h-63q-13 0 -19 -9.5t-3 -21.5l116 -302l110 300q5 13 -1 23t-20 10h-45v50z" />
    <glyph glyph-name="Ygrave" unicode="&#x1ef2;" horiz-adv-x="665" 
d="M386 732q-19 15 -55.5 43.5t-55 44t-27.5 26.5q-15 18 -14.5 37.5t18.5 33.5q16 13 36 10.5t35 -18.5q9 -10 21.5 -32.5t32 -60.5t33.5 -64zM404 680h261v-50h-57q-37 0 -56 -32l-183 -307v-210q0 -31 31 -31h79v-50h-305v50h79q31 0 31 31v209l-177 312q-15 28 -51 28
h-56v50h281v-50h-63q-34 0 -18 -31l139 -262l155 265q7 13 2.5 20.5t-19.5 7.5h-73v50z" />
    <glyph glyph-name="ygrave" unicode="&#x1ef3;" horiz-adv-x="592" 
d="M385 572l-24 -20q-19 15 -55.5 43.5t-55 44t-27.5 26.5q-15 18 -14.5 37.5t18.5 33.5q16 13 36 10.5t35 -18.5q9 -10 21.5 -32.5t32 -60.5t33.5 -64zM385 500h192v-50h-26q-34 0 -50 -36l-193 -454q-33 -77 -71.5 -113.5t-98.5 -36.5q-47 0 -80.5 24.5t-33.5 64.5
q0 26 16.5 44t41.5 18q24 0 39 -15.5t15 -38.5q0 -42 -41 -49q15 -8 34 -8q46 0 74 27t51 83l23 56l-177 403q-13 31 -47 31h-38v50h251v-50h-58q-15 0 -21.5 -8t-1.5 -21l130 -315l131 313q6 15 -1 23t-21 8h-39v50z" />
    <glyph glyph-name="uni2009" unicode="&#x2009;" horiz-adv-x="140" 
 />
    <glyph glyph-name="uni200A" unicode="&#x200a;" horiz-adv-x="80" 
 />
    <glyph glyph-name="endash" unicode="&#x2013;" horiz-adv-x="500" 
d="M60 287h380v-49h-380v49z" />
    <glyph glyph-name="emdash" unicode="&#x2014;" horiz-adv-x="1000" 
d="M60 287h880v-49h-880v49z" />
    <glyph glyph-name="quoteleft" unicode="&#x2018;" horiz-adv-x="252" 
d="M126 439q-25 0 -42.5 17t-17.5 51q0 53 31.5 107.5t92.5 92.5l21 -27q-39 -29 -58.5 -52.5t-23 -37.5t-2.5 -35h1q29 -1 43.5 -17.5t14.5 -39.5q0 -26 -17 -42.5t-43 -16.5z" />
    <glyph glyph-name="quoteright" unicode="&#x2019;" horiz-adv-x="252" 
d="M126 697q25 0 42.5 -17t17.5 -51q0 -53 -31.5 -107.5t-92.5 -92.5l-21 27q39 29 58.5 52.5t23 37.5t2.5 35h-1q-29 1 -43.5 17.5t-14.5 39.5q0 26 17 42.5t43 16.5z" />
    <glyph glyph-name="quotesinglbase" unicode="&#x201a;" horiz-adv-x="252" 
d="M126 112q25 0 42.5 -17t17.5 -51q0 -53 -31.5 -107.5t-92.5 -92.5l-21 27q39 29 58.5 52.5t23 37.5t2.5 35h-1q-29 1 -43.5 17.5t-14.5 39.5q0 26 17 42.5t43 16.5z" />
    <glyph glyph-name="quotedblleft" unicode="&#x201c;" horiz-adv-x="442" 
d="M126 439q-25 0 -42.5 17t-17.5 51q0 53 31.5 107.5t92.5 92.5l21 -27q-39 -29 -58.5 -52.5t-23 -37.5t-2.5 -35h1q29 -1 43.5 -17.5t14.5 -39.5q0 -26 -17 -42.5t-43 -16.5zM316 439q-25 0 -42.5 17t-17.5 51q0 53 31.5 107.5t92.5 92.5l21 -27q-39 -29 -58.5 -52.5
t-23 -37.5t-2.5 -35h1q29 -1 43.5 -17.5t14.5 -39.5q0 -26 -17 -42.5t-43 -16.5z" />
    <glyph glyph-name="quotedblright" unicode="&#x201d;" horiz-adv-x="442" 
d="M126 697q25 0 42.5 -17t17.5 -51q0 -53 -31.5 -107.5t-92.5 -92.5l-21 27q39 29 58.5 52.5t23 37.5t2.5 35h-1q-29 1 -43.5 17.5t-14.5 39.5q0 26 17 42.5t43 16.5zM316 697q25 0 42.5 -17t17.5 -51q0 -53 -31.5 -107.5t-92.5 -92.5l-21 27q39 29 58.5 52.5t23 37.5
t2.5 35h-1q-29 1 -43.5 17.5t-14.5 39.5q0 26 17 42.5t43 16.5z" />
    <glyph glyph-name="quotedblbase" unicode="&#x201e;" horiz-adv-x="442" 
d="M126 112q25 0 42.5 -17t17.5 -51q0 -53 -31.5 -107.5t-92.5 -92.5l-21 27q39 29 58.5 52.5t23 37.5t2.5 35h-1q-29 1 -43.5 17.5t-14.5 39.5q0 26 17 42.5t43 16.5zM316 112q25 0 42.5 -17t17.5 -51q0 -53 -31.5 -107.5t-92.5 -92.5l-21 27q39 29 58.5 52.5t23 37.5
t2.5 35h-1q-29 1 -43.5 17.5t-14.5 39.5q0 26 17 42.5t43 16.5z" />
    <glyph glyph-name="dagger" unicode="&#x2020;" horiz-adv-x="528" 
d="M417 611q19 0 32 -10t13 -29t-13 -29t-32 -10q-13 0 -51 9.5t-80 13.5l-5 -5l31 -87l-35 -231h-27l-35 231l32 87l-5 5q-42 -4 -80 -13.5t-51 -9.5q-19 0 -32 10t-13 29t13 29t32 10q13 0 52.5 -9.5t81.5 -14.5l4 4q-5 42 -14.5 81.5t-9.5 52.5q0 19 10 32t29 13t29 -13
t10 -32q0 -13 -9.5 -51.5t-13.5 -80.5l5 -5q42 4 80.5 13.5t51.5 9.5z" />
    <glyph glyph-name="daggerdbl" unicode="&#x2021;" horiz-adv-x="528" 
d="M417 395q19 0 32 -10t13 -29t-13 -29t-32 -10q-13 0 -51.5 9.5t-80.5 13.5l-5 -5q4 -42 13.5 -80.5t9.5 -51.5q0 -19 -10 -32t-29 -13t-29 13t-10 32q0 13 9.5 52.5t14.5 81.5l-4 4q-42 -5 -81.5 -14.5t-52.5 -9.5q-19 0 -32 10t-13 29t13 29t32 10q13 0 51 -9.5
t80 -13.5l5 5l-32 87l32 87l-5 5q-42 -4 -80 -13.5t-51 -9.5q-19 0 -32 10t-13 29t13 29t32 10q13 0 52.5 -9.5t81.5 -14.5l4 4q-5 42 -14.5 81.5t-9.5 52.5q0 19 10 32t29 13t29 -13t10 -32q0 -13 -9.5 -51.5t-13.5 -80.5l5 -5q42 4 80.5 13.5t51.5 9.5q19 0 32 -10t13 -29
t-13 -29t-32 -10q-13 0 -51 9.5t-80 13.5l-5 -5l31 -87l-31 -87l5 -5q42 4 80 13.5t51 9.5z" />
    <glyph glyph-name="bullet" unicode="&#x2022;" horiz-adv-x="452" 
d="M226 218q-50 0 -85 35t-35 84t35 84.5t85 35.5t85 -35.5t35 -84.5t-35 -84t-85 -35z" />
    <glyph glyph-name="ellipsis" unicode="&#x2026;" horiz-adv-x="624" 
d="M127 115q25 0 42 -17.5t17 -43.5t-17 -43.5t-42 -17.5q-26 0 -43.5 18t-17.5 44t17.5 43t43.5 17zM313 115q25 0 42 -17.5t17 -43.5t-17 -43.5t-42 -17.5q-26 0 -43.5 18t-17.5 44t17.5 43t43.5 17zM499 115q25 0 42 -17.5t17 -43.5t-17 -43.5t-42 -17.5q-26 0 -43.5 18
t-17.5 44t17.5 43t43.5 17z" />
    <glyph glyph-name="perthousand" unicode="&#x2030;" horiz-adv-x="1403" 
d="M231 282q-85 0 -138 58t-53 146t53 146t138 58t138 -58t53 -146t-53 -146t-138 -58zM475 364q26 47 94.5 163t79.5 131q28 40 55 20q27 -18 -2 -58q-14 -20 -98 -125t-116 -141zM231 318q57 0 87.5 48t30.5 120t-30.5 120t-87.5 48t-88 -48t-31 -120t31 -120t88 -48z
M722 -10q-85 0 -138 58t-53 146t53 146t138 58t138 -58t53 -146t-53 -146t-138 -58zM1172 -10q-85 0 -138 58t-53 146t53 146t138 58t138 -58t53 -146t-53 -146t-138 -58zM722 26q57 0 87.5 48t30.5 120t-30.5 120t-87.5 48t-88 -48t-31 -120t31 -120t88 -48zM1172 26
q57 0 87.5 48t30.5 120t-30.5 120t-87.5 48t-88 -48t-31 -120t31 -120t88 -48zM461 318q-24 -42 -93.5 -160t-80.5 -134q-28 -40 -55 -20q-26 18 1 58q21 27 103 129.5t112 136.5z" />
    <glyph glyph-name="guilsinglleft" unicode="&#x2039;" horiz-adv-x="290" 
d="M250 84l-22 -22l-188 177v40l188 177l22 -22l-140 -173z" />
    <glyph glyph-name="guilsinglright" unicode="&#x203a;" horiz-adv-x="290" 
d="M40 84l140 177l-140 173l22 22l188 -177v-40l-188 -177z" />
    <glyph glyph-name="fraction" unicode="&#x2044;" horiz-adv-x="168" 
d="M91 364q26 47 94.5 163t79.5 131q28 40 55 20q27 -18 -2 -58q-14 -20 -98 -125t-116 -141zM77 318q-24 -42 -93.5 -160t-80.5 -134q-28 -40 -55 -20q-26 18 1 58q21 27 103 129.5t112 136.5z" />
    <glyph glyph-name="uni2081" unicode="&#x2081;" horiz-adv-x="270" 
d="M187 -57h63v-43h-230v43h62q8 0 11 3t3 11v226h-74v34q6 1 18.5 2t16 1.5t12.5 2.5t12 3.5t8.5 4.5t7.5 7t5.5 9.5t5 12.5t2.5 17h62v-320q0 -14 15 -14z" />
    <glyph glyph-name="uni2082" unicode="&#x2082;" horiz-adv-x="323" 
d="M260 9h43v-109h-277v36q30 31 74.5 72t62 59t32.5 44.5t15 53.5q0 35 -19 56.5t-53 21.5q-48 0 -69 -35q33 -4 33 -38q0 -17 -12 -29t-29 -12q-18 0 -29.5 12t-11.5 33q0 38 37 72t105 34q55 0 92 -29t37 -85q0 -22 -4.5 -41t-18 -36.5t-23 -29.5t-34 -29.5t-35.5 -24.5
t-44 -26.5t-44 -26.5l128 6q29 1 35.5 10.5t8.5 40.5z" />
    <glyph glyph-name="uni2083" unicode="&#x2083;" horiz-adv-x="315" 
d="M180 89q53 -6 84 -31t31 -62q0 -46 -38 -74t-97 -28q-65 0 -102.5 31t-37.5 68q0 19 12 31.5t29 12.5t29 -11.5t12 -28.5q0 -28 -32 -36q26 -30 68 -30q33 0 53 17.5t20 48.5t-22 51t-56 20h-16v43h16q33 0 54 18t21 49q0 30 -19.5 47.5t-51.5 17.5q-39 0 -66 -27
q32 -10 32 -36q0 -17 -12 -28t-30 -11q-17 0 -29 12t-12 31q0 36 37.5 66t101.5 30q56 0 93.5 -28t37.5 -73q0 -36 -29.5 -60.5t-80.5 -29.5z" />
    <glyph glyph-name="Euro" unicode="&#x20ac;" horiz-adv-x="745" 
d="M644 243l51 -13q-21 -117 -90 -178.5t-169 -61.5q-112 0 -194.5 69t-108.5 183h-93v50h85q-2 30 -2 45q0 16 2 46h-85v52h94q26 116 108.5 185.5t193.5 69.5q59 0 109.5 -22t81 -54.5t47.5 -68t17 -66.5q0 -33 -18 -50t-46 -17q-25 0 -41.5 16t-16.5 41q0 23 14 37t38 16
q-54 113 -172 113q-82 0 -142.5 -52.5t-81.5 -147.5h240v-52h-248q-2 -28 -2 -45q0 -16 2 -46h248v-50h-240q21 -94 78.5 -146t137.5 -52q75 0 128 51t75 148z" />
    <glyph glyph-name="uni2116" unicode="&#x2116;" horiz-adv-x="1268" 
d="M996 690q88 0 145 -57.5t57 -146.5t-57 -147.5t-145 -58.5q-87 0 -144 58.5t-57 147.5q0 88 57 146t144 58zM760 680v-50h-79q-31 0 -31 -31v-599h-28l-419 585v-504q0 -31 31 -31h79v-50h-278v50h79q31 0 31 31v518q0 31 -31 31h-79v50h188l369 -506v425q0 31 -31 31
h-79v50h278zM997 319q60 0 92 43.5t32 123.5t-32 122.5t-92 42.5q-61 0 -93 -42.5t-32 -122.5t32 -123.5t93 -43.5zM823 193h347v-45h-347v45z" />
    <glyph glyph-name="uni2117" unicode="&#x2117;" horiz-adv-x="757" 
d="M378 -10q-147 0 -247.5 101t-100.5 250q0 147 101 248t247 101q147 0 248 -100.5t101 -248.5q0 -149 -101 -250t-248 -101zM378 23q132 0 221.5 92t89.5 226q0 132 -89.5 224t-221.5 92q-130 0 -220 -92t-90 -224q0 -133 90 -225.5t220 -92.5zM402 293h-56v-91
q0 -18 18 -18h51v-33h-187v33h42q17 0 17 18v276q0 18 -17 18h-42v33h174q69 0 109.5 -33t40.5 -83q0 -51 -40.5 -85.5t-109.5 -34.5zM346 496v-170h50q46 0 69 26t23 61q0 34 -23 58.5t-69 24.5h-50z" />
    <glyph glyph-name="uni2120" unicode="&#x2120;" horiz-adv-x="849" 
d="M108 603q0 -24 20.5 -40t49 -25.5t57.5 -20.5t49.5 -32.5t20.5 -52.5q0 -43 -32.5 -68t-89.5 -25q-66 0 -99.5 29.5t-33.5 65.5q0 15 8.5 25t24.5 10q15 0 23.5 -9t8.5 -21q0 -22 -28 -27q26 -45 89 -45q34 0 53 14.5t19 39.5q0 29 -30.5 47t-66.5 26.5t-66.5 32.5
t-30.5 63q0 44 33.5 69t90.5 25q59 0 91 -25.5t32 -57.5t-35 -32q-32 0 -32 30q0 17 21 26q-24 32 -71 32q-35 0 -55.5 -14t-20.5 -40zM758 650q-18 0 -18 -17v-241q0 -18 18 -18h36v-30h-155v30h29q18 0 18 18v222l-111 -214h-20l-119 214v-222q0 -18 17 -18h36v-30h-144
v30h36q18 0 18 18v241q0 17 -18 17h-36v30h102l123 -222l116 222h108v-30h-36z" />
    <glyph glyph-name="trademark" unicode="&#x2122;" horiz-adv-x="897" 
d="M356 680v-118h-29q-2 58 -11.5 74t-46.5 16h-39v-261q0 -17 17 -17h56v-30h-202v30h56q18 0 18 17v261h-39q-36 0 -46 -16.5t-12 -73.5h-28v118h306zM806 640q-18 0 -18 -16v-233q0 -17 18 -17h36v-30h-153v30h29q17 0 17 17v225l-112 -216h-19l-120 216v-225
q0 -17 17 -17h36v-30h-143v30h36q18 0 18 17v233q0 16 -18 16h-36v40h101l123 -224l117 224h107v-40h-36z" />
    <glyph glyph-name="arrowup" unicode="&#x2191;" horiz-adv-x="680" 
d="M109 410l221 270h20l220 -270l-9 -12l-201 72q1 -18 5.5 -85.5t4.5 -130.5v-254h-60v254q0 63 4.5 130.5t5.5 85.5l-202 -72z" />
    <glyph glyph-name="arrowdown" unicode="&#x2193;" horiz-adv-x="680" 
d="M109 270l9 12l202 -72q-1 18 -5.5 85.5t-4.5 130.5v254h60v-254q0 -63 -4.5 -130.5t-5.5 -85.5l201 72l9 -12l-220 -270h-20z" />
    <glyph glyph-name="arrowupdn" unicode="&#x2195;" horiz-adv-x="680" 
d="M360 210l201 72l9 -12l-220 -270h-20l-221 270l9 12l202 -72q-1 8 -5.5 40t-4.5 66v48q0 34 4.5 66t5.5 40l-202 -72l-9 12l221 270h20l220 -270l-9 -12l-201 72q1 -8 5.5 -40t4.5 -66v-48q0 -34 -4.5 -66t-5.5 -40z" />
    <glyph glyph-name="uni2196" unicode="&#x2196;" horiz-adv-x="748" 
d="M445 606l2 -14l-194 -92q20 -18 47.5 -41.5t53.5 -47t59 -57.5l279 -280l-43 -42l-278 280q-45 45 -89.5 96t-56.5 63l-91 -193l-15 3l-35 346l14 14z" />
    <glyph glyph-name="uni2197" unicode="&#x2197;" horiz-adv-x="748" 
d="M307 606l347 35l14 -14l-35 -346l-15 -3l-91 193q-12 -12 -56.5 -63t-89.5 -96l-278 -280l-43 42l279 280q33 34 59 57.5t53.5 47t47.5 41.5l-194 92z" />
    <glyph glyph-name="uni2198" unicode="&#x2198;" horiz-adv-x="748" 
d="M307 90l-2 14l194 92q-20 18 -47.5 41.5t-53.5 47t-59 57.5l-279 280l43 42l278 -280q45 -45 89.5 -96t56.5 -63l91 193l15 -3l35 -346l-14 -14z" />
    <glyph glyph-name="uni2199" unicode="&#x2199;" horiz-adv-x="748" 
d="M445 80l-347 -35l-14 14l35 346l15 3l91 -193q12 12 56.5 63t89.5 96l278 280l43 -42l-279 -280q-33 -34 -59 -57.5t-53.5 -47t-47.5 -41.5l194 -92z" />
    <glyph glyph-name="minus" unicode="&#x2212;" horiz-adv-x="596" 
d="M80 273v49h436v-49h-436z" />
    <glyph glyph-name="approxequal" unicode="&#x2248;" horiz-adv-x="596" 
d="M526 447q-26 -99 -123 -99q-47 0 -115.5 33.5t-107.5 33.5q-32 0 -48.5 -16t-27.5 -44l-34 14q28 94 122 94q48 0 120 -33.5t106 -33.5q17 0 29 5t21 16.5t12.5 18.5t10.5 22zM526 277q-26 -99 -123 -99q-47 0 -115.5 33.5t-107.5 33.5q-32 0 -48.5 -16t-27.5 -44l-34 14
q28 94 122 94q48 0 120 -33.5t106 -33.5q17 0 29 5t21 16.5t12.5 18.5t10.5 22z" />
    <glyph glyph-name="notequal" unicode="&#x2260;" horiz-adv-x="596" 
d="M516 383h-164l-76 -131h240v-49h-268l-84 -144h-52l84 144h-116v49h144l76 131h-220v49h248l84 144h52l-84 -144h136v-49z" />
    <glyph glyph-name="lessequal" unicode="&#x2264;" horiz-adv-x="596" 
d="M506 205l-426 163v38l426 164v-58l-356 -125l356 -126v-56zM516 70h-436v49h436v-49z" />
    <glyph glyph-name="greaterequal" unicode="&#x2265;" horiz-adv-x="596" 
d="M90 205v56l356 126l-356 125v58l426 -164v-38zM80 70v49h436v-49h-436z" />
    <glyph glyph-name="fi" unicode="&#xfb01;" horiz-adv-x="680" 
d="M591 50h64v-50h-268v50h64q31 0 31 31v338q0 31 -31 31h-228v-369q0 -31 31 -31h84v-50h-288v50h64q31 0 31 31v369h-105v50h74q14 0 22.5 6.5t8.5 14.5v-1q0 81 60.5 135.5t148.5 54.5q60 0 106 -25t46 -66q0 -24 -16 -42t-41 -18q-23 0 -38.5 15t-15.5 37q0 38 36 47
q-26 12 -62 12q-67 0 -106.5 -42.5t-39.5 -107.5v-20h337v-419q0 -31 31 -31z" />
    <glyph glyph-name="fl" unicode="&#xfb02;" horiz-adv-x="685" 
d="M591 50h64v-50h-268v50h64q31 0 31 31v369h-259v-369q0 -31 31 -31h84v-50h-288v50h64q31 0 31 31v369h-105v50h74q14 0 22.5 6.5t8.5 14.5v-1q0 81 60.5 135.5t148.5 54.5q47 0 87.5 -16.5t56.5 -44.5l24 31h38v-599q0 -31 31 -31zM482 500v70q-14 -11 -33 -11
q-23 0 -38.5 15t-15.5 37q0 38 36 47q-26 12 -62 12q-67 0 -106.5 -42.5t-39.5 -107.5v-20h259z" />
    <glyph glyph-name="A.fina" horiz-adv-x="989" 
d="M902 256q28 0 47.5 -20t19.5 -60q0 -29 -10.5 -59t-32.5 -59.5t-63.5 -48.5t-94.5 -19q-148 0 -278 188l-12 17h-275v-114q0 -31 31 -31h109v-50h-308v50h79q31 0 31 31v518q0 31 -31 31h-79v50h210l349 -498q60 -86 101.5 -114t92.5 -28q57 0 92.5 33t36.5 72
q-27 -4 -49.5 11.5t-22.5 44.5q0 23 15.5 39t41.5 16zM203 242h243l-243 352v-352z" />
    <glyph glyph-name="Aacute.fina" horiz-adv-x="989" 
d="M346 846q-9 -11 -27.5 -26.5t-55 -44t-55.5 -43.5l-24 20q14 26 33.5 64t32 60.5t21.5 32.5q15 16 35 18.5t36 -10.5q18 -14 18.5 -33.5t-14.5 -37.5zM902 256q28 0 47.5 -20t19.5 -60q0 -29 -10.5 -59t-32.5 -59.5t-63.5 -48.5t-94.5 -19q-148 0 -278 188l-12 17h-275
v-114q0 -31 31 -31h109v-50h-308v50h79q31 0 31 31v518q0 31 -31 31h-79v50h210l349 -498q60 -86 101.5 -114t92.5 -28q57 0 92.5 33t36.5 72q-27 -4 -49.5 11.5t-22.5 44.5q0 23 15.5 39t41.5 16zM203 242h243l-243 352v-352z" />
    <glyph glyph-name="Abreve.fina" horiz-adv-x="989" 
d="M203 757q-53 0 -87 36t-40 102l41 7q23 -77 86 -77t86 77l41 -7q-6 -66 -40 -102t-87 -36zM902 256q28 0 47.5 -20t19.5 -60q0 -29 -10.5 -59t-32.5 -59.5t-63.5 -48.5t-94.5 -19q-148 0 -278 188l-12 17h-275v-114q0 -31 31 -31h109v-50h-308v50h79q31 0 31 31v518
q0 31 -31 31h-79v50h210l349 -498q60 -86 101.5 -114t92.5 -28q57 0 92.5 33t36.5 72q-27 -4 -49.5 11.5t-22.5 44.5q0 23 15.5 39t41.5 16zM203 242h243l-243 352v-352z" />
    <glyph glyph-name="Acircumflex.fina" horiz-adv-x="989" 
d="M203 820l-103 -82l-25 20l96 137q17 25 31 25t32 -25l97 -137l-25 -20zM902 256q28 0 47.5 -20t19.5 -60q0 -29 -10.5 -59t-32.5 -59.5t-63.5 -48.5t-94.5 -19q-148 0 -278 188l-12 17h-275v-114q0 -31 31 -31h109v-50h-308v50h79q31 0 31 31v518q0 31 -31 31h-79v50h210
l349 -498q60 -86 101.5 -114t92.5 -28q57 0 92.5 33t36.5 72q-27 -4 -49.5 11.5t-22.5 44.5q0 23 15.5 39t41.5 16zM203 242h243l-243 352v-352z" />
    <glyph glyph-name="Adieresis.fina" horiz-adv-x="989" 
d="M109 745q-26 0 -43.5 17t-17.5 43t17.5 44t43.5 18q25 0 42 -17.5t17 -43.5t-17 -43.5t-42 -17.5zM299 745q-26 0 -43.5 17t-17.5 43t17.5 44t43.5 18q25 0 42 -17.5t17 -43.5t-17 -43.5t-42 -17.5zM902 256q28 0 47.5 -20t19.5 -60q0 -29 -10.5 -59t-32.5 -59.5
t-63.5 -48.5t-94.5 -19q-148 0 -278 188l-12 17h-275v-114q0 -31 31 -31h109v-50h-308v50h79q31 0 31 31v518q0 31 -31 31h-79v50h210l349 -498q60 -86 101.5 -114t92.5 -28q57 0 92.5 33t36.5 72q-27 -4 -49.5 11.5t-22.5 44.5q0 23 15.5 39t41.5 16zM203 242h243l-243 352
v-352z" />
    <glyph glyph-name="Agrave.fina" horiz-adv-x="989" 
d="M188 732q-19 15 -55.5 43.5t-55 44t-27.5 26.5q-15 18 -14.5 37.5t18.5 33.5q16 13 36 10.5t35 -18.5q9 -10 21.5 -32.5t32 -60.5t33.5 -64zM902 256q28 0 47.5 -20t19.5 -60q0 -29 -10.5 -59t-32.5 -59.5t-63.5 -48.5t-94.5 -19q-148 0 -278 188l-12 17h-275v-114
q0 -31 31 -31h109v-50h-308v50h79q31 0 31 31v518q0 31 -31 31h-79v50h210l349 -498q60 -86 101.5 -114t92.5 -28q57 0 92.5 33t36.5 72q-27 -4 -49.5 11.5t-22.5 44.5q0 23 15.5 39t41.5 16zM203 242h243l-243 352v-352z" />
    <glyph glyph-name="Amacron.fina" horiz-adv-x="989" 
d="M333 828v-62h-260v62h260zM902 256q28 0 47.5 -20t19.5 -60q0 -29 -10.5 -59t-32.5 -59.5t-63.5 -48.5t-94.5 -19q-148 0 -278 188l-12 17h-275v-114q0 -31 31 -31h109v-50h-308v50h79q31 0 31 31v518q0 31 -31 31h-79v50h210l349 -498q60 -86 101.5 -114t92.5 -28
q57 0 92.5 33t36.5 72q-27 -4 -49.5 11.5t-22.5 44.5q0 23 15.5 39t41.5 16zM203 242h243l-243 352v-352z" />
    <glyph glyph-name="Aogonek.fina" horiz-adv-x="989" 
d="M875 -135q26 0 60 16l16 -33q-37 -38 -97 -38q-45 0 -76.5 24t-31.5 65q0 49 53 93q-20 -2 -31 -2q-148 0 -278 188l-12 17h-275v-114q0 -31 31 -31h109v-50h-308v50h79q31 0 31 31v518q0 31 -31 31h-79v50h210l349 -498q60 -86 101.5 -114t92.5 -28q57 0 92.5 33
t36.5 72q-27 -4 -49.5 11.5t-22.5 44.5q0 23 15.5 39t41.5 16q28 0 47.5 -20t19.5 -60q0 -37 -18 -77t-54 -69q-46 -36 -62 -58.5t-16 -51.5q0 -23 16 -39t40 -16zM203 242h243l-243 352v-352z" />
    <glyph glyph-name="Aring.fina" horiz-adv-x="989" 
d="M203 734q-45 0 -75 28t-30 70t30 70t75 28t75 -28t30 -70t-30 -70t-75 -28zM203 888q-23 0 -39 -16t-16 -40t15.5 -39.5t39.5 -15.5t39.5 15.5t15.5 39.5t-16 40t-39 16zM902 256q28 0 47.5 -20t19.5 -60q0 -29 -10.5 -59t-32.5 -59.5t-63.5 -48.5t-94.5 -19
q-148 0 -278 188l-12 17h-275v-114q0 -31 31 -31h109v-50h-308v50h79q31 0 31 31v518q0 31 -31 31h-79v50h210l349 -498q60 -86 101.5 -114t92.5 -28q57 0 92.5 33t36.5 72q-27 -4 -49.5 11.5t-22.5 44.5q0 23 15.5 39t41.5 16zM203 242h243l-243 352v-352z" />
    <glyph glyph-name="Atilde.fina" horiz-adv-x="989" 
d="M128 805q-6 0 -10.5 -1.5t-8 -2.5t-6.5 -5l-4.5 -6t-3.5 -8t-3 -8t-3 -10t-2 -9l-36 12q9 100 84 100q33 0 79 -28.5t65 -28.5q7 0 13 2.5t10 6t7 9.5t4 10t3 10.5t2 7.5l36 -5q-9 -103 -84 -103q-30 0 -74.5 28.5t-67.5 28.5zM902 256q28 0 47.5 -20t19.5 -60
q0 -29 -10.5 -59t-32.5 -59.5t-63.5 -48.5t-94.5 -19q-148 0 -278 188l-12 17h-275v-114q0 -31 31 -31h109v-50h-308v50h79q31 0 31 31v518q0 31 -31 31h-79v50h210l349 -498q60 -86 101.5 -114t92.5 -28q57 0 92.5 33t36.5 72q-27 -4 -49.5 11.5t-22.5 44.5q0 23 15.5 39
t41.5 16zM203 242h243l-243 352v-352z" />
    <glyph glyph-name="K.fina" horiz-adv-x="909" 
d="M230 81q0 -31 31 -31h69v-50h-295v50h79q31 0 31 31v518q0 31 -31 31h-79v50h295v-50h-69q-31 0 -31 -31v-518zM822 256q28 0 47.5 -20t19.5 -60q0 -28 -10.5 -58.5t-31.5 -60t-60.5 -48.5t-89.5 -19q-66 0 -133 41t-154 147l-127 154l231 269q24 29 -7 29h-96v50h288
v-50h-35q-52 0 -80 -31l-211 -249l141 -168q70 -84 109.5 -113t86.5 -29q59 0 92 32.5t35 72.5q-27 -4 -49.5 11.5t-22.5 44.5q0 23 15.5 39t41.5 16z" />
    <glyph glyph-name="Kcommaaccent.fina" horiz-adv-x="909" 
d="M230 81q0 -31 31 -31h69v-50h-295v50h79q31 0 31 31v518q0 31 -31 31h-79v50h295v-50h-69q-31 0 -31 -31v-518zM822 256q28 0 47.5 -20t19.5 -60q0 -28 -10.5 -58.5t-31.5 -60t-60.5 -48.5t-89.5 -19q-66 0 -133 41t-154 147l-127 154l231 269q24 29 -7 29h-96v50h288
v-50h-35q-52 0 -80 -31l-211 -249l141 -168q70 -84 109.5 -113t86.5 -29q59 0 92 32.5t35 72.5q-27 -4 -49.5 11.5t-22.5 44.5q0 23 15.5 39t41.5 16zM449 -60q25 0 42.5 -16.5t17.5 -47.5q0 -102 -114 -148l-15 27q44 25 59.5 42t17.5 34h-10q-29 0 -43.5 16t-14.5 38
q0 24 17 39.5t43 15.5z" />
    <glyph glyph-name="R.fina" horiz-adv-x="899" 
d="M812 256q28 0 47.5 -20t19.5 -60q0 -29 -10.5 -59t-33 -59.5t-63.5 -48.5t-95 -19q-66 0 -133 41t-154 147l-82 100h-78v-197q0 -31 31 -31h89v-50h-315v50h79q31 0 31 31v518q0 31 -31 31h-79v50h295q133 0 206.5 -54t73.5 -136q0 -81 -52 -134t-151 -70l87 -104
q70 -84 109.5 -113t86.5 -29q65 0 100 32.5t37 72.5q-27 -4 -49.5 11.5t-22.5 44.5q0 23 15.5 39t41.5 16zM230 630v-302h100q95 0 140.5 49t45.5 110q0 59 -45 101t-141 42h-100z" />
    <glyph glyph-name="Racute.fina" horiz-adv-x="899" 
d="M488 846q-9 -11 -27.5 -26.5t-55 -44t-55.5 -43.5l-24 20q14 26 33.5 64t32 60.5t21.5 32.5q15 16 35 18.5t36 -10.5q18 -14 18.5 -33.5t-14.5 -37.5zM812 256q28 0 47.5 -20t19.5 -60q0 -29 -10.5 -59t-33 -59.5t-63.5 -48.5t-95 -19q-66 0 -133 41t-154 147l-82 100
h-78v-197q0 -31 31 -31h89v-50h-315v50h79q31 0 31 31v518q0 31 -31 31h-79v50h295q133 0 206.5 -54t73.5 -136q0 -81 -52 -134t-151 -70l87 -104q70 -84 109.5 -113t86.5 -29q65 0 100 32.5t37 72.5q-27 -4 -49.5 11.5t-22.5 44.5q0 23 15.5 39t41.5 16zM230 630v-302h100
q95 0 140.5 49t45.5 110q0 59 -45 101t-141 42h-100z" />
    <glyph glyph-name="Rcaron.fina" horiz-adv-x="899" 
d="M344 738q-14 0 -31 25l-96 137l25 20l103 -82l103 82l25 -20l-97 -137q-18 -25 -32 -25zM812 256q28 0 47.5 -20t19.5 -60q0 -29 -10.5 -59t-33 -59.5t-63.5 -48.5t-95 -19q-66 0 -133 41t-154 147l-82 100h-78v-197q0 -31 31 -31h89v-50h-315v50h79q31 0 31 31v518
q0 31 -31 31h-79v50h295q133 0 206.5 -54t73.5 -136q0 -81 -52 -134t-151 -70l87 -104q70 -84 109.5 -113t86.5 -29q65 0 100 32.5t37 72.5q-27 -4 -49.5 11.5t-22.5 44.5q0 23 15.5 39t41.5 16zM230 630v-302h100q95 0 140.5 49t45.5 110q0 59 -45 101t-141 42h-100z" />
    <glyph glyph-name="Rcommaaccent.fina" horiz-adv-x="899" 
d="M812 256q28 0 47.5 -20t19.5 -60q0 -29 -10.5 -59t-33 -59.5t-63.5 -48.5t-95 -19q-66 0 -133 41t-154 147l-82 100h-78v-197q0 -31 31 -31h89v-50h-315v50h79q31 0 31 31v518q0 31 -31 31h-79v50h295q133 0 206.5 -54t73.5 -136q0 -81 -52 -134t-151 -70l87 -104
q70 -84 109.5 -113t86.5 -29q65 0 100 32.5t37 72.5q-27 -4 -49.5 11.5t-22.5 44.5q0 23 15.5 39t41.5 16zM230 630v-302h100q95 0 140.5 49t45.5 110q0 59 -45 101t-141 42h-100zM409 -60q25 0 42.5 -16.5t17.5 -47.5q0 -102 -114 -148l-15 27q44 25 59.5 42t17.5 34h-10
q-29 0 -43.5 16t-14.5 38q0 24 17 39.5t43 15.5z" />
    <glyph glyph-name="A.init" horiz-adv-x="996" 
d="M882 630q-31 0 -31 -31v-518q0 -31 31 -31h79v-50h-335v50h109q31 0 31 31v114h-266l-11 -17q-118 -178 -277 -178q-55 0 -98 19t-66.5 48.5t-35.5 60t-12 59.5q0 39 20 59t48 20q25 0 40.5 -16t15.5 -39q0 -29 -22.5 -44.5t-49.5 -11.5q3 -39 46.5 -72t112.5 -33
q123 0 214 132l341 498h195v-50h-79zM532 242h234v352z" />
    <glyph glyph-name="Aacute.init" horiz-adv-x="996" 
d="M987 917q18 -14 18.5 -33.5t-14.5 -37.5q-9 -11 -27.5 -26.5t-55 -44t-55.5 -43.5l-24 20q14 26 33.5 64t32 60.5t21.5 32.5q15 16 35 18.5t36 -10.5zM425 182l341 498h195v-50h-79q-31 0 -31 -31v-518q0 -31 31 -31h79v-50h-335v50h109q31 0 31 31v114h-266l-11 -17
q-118 -178 -277 -178q-55 0 -98 19t-66.5 48.5t-35.5 60t-12 59.5q0 39 20 59t48 20q25 0 40.5 -16t15.5 -39q0 -29 -22.5 -44.5t-49.5 -11.5q3 -39 46.5 -72t112.5 -33q123 0 214 132zM532 242h234v352z" />
    <glyph glyph-name="Abreve.init" horiz-adv-x="996" 
d="M848 757q-53 0 -87 36t-40 102l41 7q23 -77 86 -77t86 77l41 -7q-6 -66 -40 -102t-87 -36zM425 182l341 498h195v-50h-79q-31 0 -31 -31v-518q0 -31 31 -31h79v-50h-335v50h109q31 0 31 31v114h-266l-11 -17q-118 -178 -277 -178q-55 0 -98 19t-66.5 48.5t-35.5 60
t-12 59.5q0 39 20 59t48 20q25 0 40.5 -16t15.5 -39q0 -29 -22.5 -44.5t-49.5 -11.5q3 -39 46.5 -72t112.5 -33q123 0 214 132zM532 242h234v352z" />
    <glyph glyph-name="Acircumflex.init" horiz-adv-x="996" 
d="M848 820l-103 -82l-25 20l96 137q18 25 31 25q14 0 32 -25l97 -137l-25 -20zM425 182l341 498h195v-50h-79q-31 0 -31 -31v-518q0 -31 31 -31h79v-50h-335v50h109q31 0 31 31v114h-266l-11 -17q-118 -178 -277 -178q-55 0 -98 19t-66.5 48.5t-35.5 60t-12 59.5
q0 39 20 59t48 20q25 0 40.5 -16t15.5 -39q0 -29 -22.5 -44.5t-49.5 -11.5q3 -39 46.5 -72t112.5 -33q123 0 214 132zM532 242h234v352z" />
    <glyph glyph-name="Adieresis.init" horiz-adv-x="996" 
d="M754 745q-26 0 -43.5 17t-17.5 43t17.5 44t43.5 18q25 0 42 -17.5t17 -43.5t-17 -43.5t-42 -17.5zM944 867q25 0 42 -17.5t17 -43.5t-17 -43.5t-42 -17.5q-26 0 -43.5 17t-17.5 43t17.5 44t43.5 18zM425 182l341 498h195v-50h-79q-31 0 -31 -31v-518q0 -31 31 -31h79v-50
h-335v50h109q31 0 31 31v114h-266l-11 -17q-118 -178 -277 -178q-55 0 -98 19t-66.5 48.5t-35.5 60t-12 59.5q0 39 20 59t48 20q25 0 40.5 -16t15.5 -39q0 -29 -22.5 -44.5t-49.5 -11.5q3 -39 46.5 -72t112.5 -33q123 0 214 132zM532 242h234v352z" />
    <glyph glyph-name="Agrave.init" horiz-adv-x="996" 
d="M893 732q-19 15 -55.5 43.5t-55 44t-27.5 26.5q-15 18 -14.5 37.5t18.5 33.5q16 13 36 10.5t35 -18.5q9 -10 21.5 -32.5t32 -60.5t33.5 -64zM882 630q-31 0 -31 -31v-518q0 -31 31 -31h79v-50h-335v50h109q31 0 31 31v114h-266l-11 -17q-118 -178 -277 -178q-55 0 -98 19
t-66.5 48.5t-35.5 60t-12 59.5q0 39 20 59t48 20q25 0 40.5 -16t15.5 -39q0 -29 -22.5 -44.5t-49.5 -11.5q3 -39 46.5 -72t112.5 -33q123 0 214 132l341 498h195v-50h-79zM532 242h234v352z" />
    <glyph glyph-name="Amacron.init" horiz-adv-x="996" 
d="M718 828h260v-62h-260v62zM425 182l341 498h195v-50h-79q-31 0 -31 -31v-518q0 -31 31 -31h79v-50h-335v50h109q31 0 31 31v114h-266l-11 -17q-118 -178 -277 -178q-55 0 -98 19t-66.5 48.5t-35.5 60t-12 59.5q0 39 20 59t48 20q25 0 40.5 -16t15.5 -39
q0 -29 -22.5 -44.5t-49.5 -11.5q3 -39 46.5 -72t112.5 -33q123 0 214 132zM532 242h234v352z" />
    <glyph glyph-name="Aogonek.init" horiz-adv-x="996" 
d="M882 630q-31 0 -31 -31v-518q0 -31 31 -31h79v-50h-83q-55 0 -86 -24.5t-31 -55.5q0 -26 15.5 -40.5t43.5 -14.5q23 0 57 16l16 -33q-39 -38 -96 -38q-45 0 -77.5 24.5t-32.5 64.5q0 64 78 101h-139v50h109q31 0 31 31v114h-266l-11 -17q-118 -178 -277 -178
q-55 0 -98 19t-66.5 48.5t-35.5 60t-12 59.5q0 39 20 59t48 20q25 0 40.5 -16t15.5 -39q0 -29 -22.5 -44.5t-49.5 -11.5q3 -39 46.5 -72t112.5 -33q123 0 214 132l341 498h195v-50h-79zM532 242h234v352z" />
    <glyph glyph-name="Aring.init" horiz-adv-x="996" 
d="M848 734q-45 0 -75 28t-30 70t30 70t75 28t75 -28t30 -70t-30 -70t-75 -28zM848 888q-24 0 -39.5 -16t-15.5 -40t15.5 -39.5t39.5 -15.5t39.5 15.5t15.5 39.5t-15.5 40t-39.5 16zM882 630q-31 0 -31 -31v-518q0 -31 31 -31h79v-50h-335v50h109q31 0 31 31v114h-266
l-11 -17q-118 -178 -277 -178q-55 0 -98 19t-66.5 48.5t-35.5 60t-12 59.5q0 39 20 59t48 20q25 0 40.5 -16t15.5 -39q0 -29 -22.5 -44.5t-49.5 -11.5q3 -39 46.5 -72t112.5 -33q123 0 214 132l341 498h195v-50h-79zM532 242h234v352z" />
    <glyph glyph-name="Atilde.init" horiz-adv-x="996" 
d="M963 856l36 -5q-9 -103 -84 -103q-30 0 -74.5 28.5t-67.5 28.5q-6 0 -10.5 -1.5t-8 -2.5t-6.5 -5l-4.5 -6t-3.5 -8t-3 -8t-3 -10t-2 -9l-36 12q9 100 84 100q33 0 79 -28.5t65 -28.5q7 0 13 2.5t10 6t7 9.5t4 10t3 10.5t2 7.5zM425 182l341 498h195v-50h-79
q-31 0 -31 -31v-518q0 -31 31 -31h79v-50h-335v50h109q31 0 31 31v114h-266l-11 -17q-118 -178 -277 -178q-55 0 -98 19t-66.5 48.5t-35.5 60t-12 59.5q0 39 20 59t48 20q25 0 40.5 -16t15.5 -39q0 -29 -22.5 -44.5t-49.5 -11.5q3 -39 46.5 -72t112.5 -33q123 0 214 132z
M532 242h234v352z" />
    <glyph glyph-name="T.init" horiz-adv-x="658" 
d="M465 630h-85v-549q0 -31 31 -31h104v-50h-355v50h104q31 0 31 31v549h-94q-61 0 -97.5 -10.5t-50.5 -41.5q25 0 44.5 -15.5t19.5 -42.5q0 -23 -16.5 -39t-41.5 -16q-26 0 -43.5 18.5t-17.5 46.5q0 65 49 107.5t154 42.5h264q61 0 97.5 10.5t50.5 41.5q-25 0 -44.5 15.5
t-19.5 42.5q0 23 16.5 39t41.5 16q26 0 43.5 -18.5t17.5 -46.5q0 -65 -49 -107.5t-154 -42.5z" />
    <glyph glyph-name="Tbar.init" horiz-adv-x="658" 
d="M465 630h-85v-293h137v-50h-137v-206q0 -31 31 -31h104v-50h-355v50h104q31 0 31 31v206h-123v50h123v293h-94q-61 0 -97.5 -10.5t-50.5 -41.5q25 0 44.5 -15.5t19.5 -42.5q0 -23 -16.5 -39t-41.5 -16q-26 0 -43.5 18.5t-17.5 46.5q0 65 49 107.5t154 42.5h264
q61 0 97.5 10.5t50.5 41.5q-25 0 -44.5 15.5t-19.5 42.5q0 23 16.5 39t41.5 16q26 0 43.5 -18.5t17.5 -46.5q0 -65 -49 -107.5t-154 -42.5z" />
    <glyph glyph-name="Tcaron.init" horiz-adv-x="658" 
d="M338 738q-14 0 -31 25l-96 137l25 20l103 -82l103 82l25 -20l-97 -137q-18 -25 -32 -25zM465 630h-85v-549q0 -31 31 -31h104v-50h-355v50h104q31 0 31 31v549h-94q-61 0 -97.5 -10.5t-50.5 -41.5q25 0 44.5 -15.5t19.5 -42.5q0 -23 -16.5 -39t-41.5 -16
q-26 0 -43.5 18.5t-17.5 46.5q0 65 49 107.5t154 42.5h264q61 0 97.5 10.5t50.5 41.5q-25 0 -44.5 15.5t-19.5 42.5q0 23 16.5 39t41.5 16q26 0 43.5 -18.5t17.5 -46.5q0 -65 -49 -107.5t-154 -42.5z" />
    <glyph glyph-name="uni0162.init" horiz-adv-x="658" 
d="M465 630h-85v-549q0 -31 31 -31h104v-50h-168l-33 -67q48 0 79.5 -23.5t31.5 -58.5q0 -37 -35 -62.5t-85 -25.5q-47 0 -99 28l16 34q37 -20 77 -20q27 0 44 12.5t17 33.5q0 27 -29.5 39t-76.5 5l-9 17l59 88h-144v50h104q31 0 31 31v549h-94q-61 0 -97.5 -10.5
t-50.5 -41.5q25 0 44.5 -15.5t19.5 -42.5q0 -23 -16.5 -39t-41.5 -16q-26 0 -43.5 18.5t-17.5 46.5q0 65 49 107.5t154 42.5h264q61 0 97.5 10.5t50.5 41.5q-25 0 -44.5 15.5t-19.5 42.5q0 23 16.5 39t41.5 16q26 0 43.5 -18.5t17.5 -46.5q0 -65 -49 -107.5t-154 -42.5z" />
    <glyph glyph-name="uni021A.init" horiz-adv-x="658" 
d="M465 630h-85v-549q0 -31 31 -31h104v-50h-355v50h104q31 0 31 31v549h-94q-61 0 -97.5 -10.5t-50.5 -41.5q25 0 44.5 -15.5t19.5 -42.5q0 -23 -16.5 -39t-41.5 -16q-26 0 -43.5 18.5t-17.5 46.5q0 65 49 107.5t154 42.5h264q61 0 97.5 10.5t50.5 41.5q-25 0 -44.5 15.5
t-19.5 42.5q0 23 16.5 39t41.5 16q26 0 43.5 -18.5t17.5 -46.5q0 -65 -49 -107.5t-154 -42.5zM343 -60q25 0 42.5 -16.5t17.5 -47.5q0 -102 -114 -148l-15 27q44 25 59.5 42t17.5 34h-10q-29 0 -43.5 16t-14.5 38q0 24 17 39.5t43 15.5z" />
    <glyph glyph-name="R.ss03" horiz-adv-x="789" 
d="M714 256q65 0 65 -90q0 -21 -3.5 -42t-14.5 -46.5t-28.5 -44t-48.5 -31t-72 -12.5q-103 0 -141 88l-65 150q-22 50 -96 50h-80v-197q0 -31 31 -31h89v-50h-315v50h79q31 0 31 31v518q0 31 -31 31h-79v50h295q133 0 206.5 -54t73.5 -136q0 -74 -57 -130.5t-148 -74.5
q76 -20 113 -94l46 -93q28 -57 80 -57q45 0 65 31.5t18 72.5q-26 -5 -49 11t-23 45q0 23 15.5 39t43.5 16zM230 328h100q95 0 140.5 49t45.5 110q0 59 -45 101t-141 42h-100v-302z" />
    <glyph glyph-name="Racute.ss03" horiz-adv-x="789" 
d="M488 846q-9 -11 -27.5 -26.5t-55 -44t-55.5 -43.5l-24 20q14 26 33.5 64t32 60.5t21.5 32.5q15 16 35 18.5t36 -10.5q18 -14 18.5 -33.5t-14.5 -37.5zM714 256q65 0 65 -90q0 -21 -3.5 -42t-14.5 -46.5t-28.5 -44t-48.5 -31t-72 -12.5q-103 0 -141 88l-65 150
q-22 50 -96 50h-80v-197q0 -31 31 -31h89v-50h-315v50h79q31 0 31 31v518q0 31 -31 31h-79v50h295q133 0 206.5 -54t73.5 -136q0 -74 -57 -130.5t-148 -74.5q76 -20 113 -94l46 -93q28 -57 80 -57q45 0 65 31.5t18 72.5q-26 -5 -49 11t-23 45q0 23 15.5 39t43.5 16zM230 328
h100q95 0 140.5 49t45.5 110q0 59 -45 101t-141 42h-100v-302z" />
    <glyph glyph-name="Rcaron.ss03" horiz-adv-x="789" 
d="M344 738q-14 0 -31 25l-96 137l25 20l103 -82l103 82l25 -20l-97 -137q-18 -25 -32 -25zM714 256q65 0 65 -90q0 -21 -3.5 -42t-14.5 -46.5t-28.5 -44t-48.5 -31t-72 -12.5q-103 0 -141 88l-65 150q-22 50 -96 50h-80v-197q0 -31 31 -31h89v-50h-315v50h79q31 0 31 31
v518q0 31 -31 31h-79v50h295q133 0 206.5 -54t73.5 -136q0 -74 -57 -130.5t-148 -74.5q76 -20 113 -94l46 -93q28 -57 80 -57q45 0 65 31.5t18 72.5q-26 -5 -49 11t-23 45q0 23 15.5 39t43.5 16zM230 328h100q95 0 140.5 49t45.5 110q0 59 -45 101t-141 42h-100v-302z" />
    <glyph glyph-name="Rcommaaccent.ss03" horiz-adv-x="789" 
d="M714 256q65 0 65 -90q0 -21 -3.5 -42t-14.5 -46.5t-28.5 -44t-48.5 -31t-72 -12.5q-103 0 -141 88l-65 150q-22 50 -96 50h-80v-197q0 -31 31 -31h89v-50h-315v50h79q31 0 31 31v518q0 31 -31 31h-79v50h295q133 0 206.5 -54t73.5 -136q0 -74 -57 -130.5t-148 -74.5
q76 -20 113 -94l46 -93q28 -57 80 -57q45 0 65 31.5t18 72.5q-26 -5 -49 11t-23 45q0 23 15.5 39t43.5 16zM230 328h100q95 0 140.5 49t45.5 110q0 59 -45 101t-141 42h-100v-302zM409 -60q25 0 42.5 -16.5t17.5 -47.5q0 -102 -114 -148l-15 27q44 25 59.5 42t17.5 34h-10
q-29 0 -43.5 16t-14.5 38q0 24 17 39.5t43 15.5z" />
    <glyph glyph-name="T.ss03" horiz-adv-x="658" 
d="M465 630h-85v-549q0 -31 31 -31h104v-50h-355v50h104q31 0 31 31v549h-94q-61 0 -97.5 -10.5t-50.5 -41.5q25 0 44.5 -15.5t19.5 -42.5q0 -23 -16.5 -39t-41.5 -16q-26 0 -43.5 18.5t-17.5 46.5q0 65 49 107.5t154 42.5h264q61 0 97.5 10.5t50.5 41.5q-25 0 -44.5 15.5
t-19.5 42.5q0 23 16.5 39t41.5 16q26 0 43.5 -18.5t17.5 -46.5q0 -65 -49 -107.5t-154 -42.5z" />
    <glyph glyph-name="Tbar.ss03" horiz-adv-x="658" 
d="M465 630h-85v-293h137v-50h-137v-206q0 -31 31 -31h104v-50h-355v50h104q31 0 31 31v206h-123v50h123v293h-94q-61 0 -97.5 -10.5t-50.5 -41.5q25 0 44.5 -15.5t19.5 -42.5q0 -23 -16.5 -39t-41.5 -16q-26 0 -43.5 18.5t-17.5 46.5q0 65 49 107.5t154 42.5h264
q61 0 97.5 10.5t50.5 41.5q-25 0 -44.5 15.5t-19.5 42.5q0 23 16.5 39t41.5 16q26 0 43.5 -18.5t17.5 -46.5q0 -65 -49 -107.5t-154 -42.5z" />
    <glyph glyph-name="Tcaron.ss03" horiz-adv-x="658" 
d="M338 738q-14 0 -31 25l-96 137l25 20l103 -82l103 82l25 -20l-97 -137q-18 -25 -32 -25zM465 630h-85v-549q0 -31 31 -31h104v-50h-355v50h104q31 0 31 31v549h-94q-61 0 -97.5 -10.5t-50.5 -41.5q25 0 44.5 -15.5t19.5 -42.5q0 -23 -16.5 -39t-41.5 -16
q-26 0 -43.5 18.5t-17.5 46.5q0 65 49 107.5t154 42.5h264q61 0 97.5 10.5t50.5 41.5q-25 0 -44.5 15.5t-19.5 42.5q0 23 16.5 39t41.5 16q26 0 43.5 -18.5t17.5 -46.5q0 -65 -49 -107.5t-154 -42.5z" />
    <glyph glyph-name="uni0162.ss03" horiz-adv-x="658" 
d="M465 630h-85v-549q0 -31 31 -31h104v-50h-168l-33 -67q48 0 79.5 -23.5t31.5 -58.5q0 -37 -35 -62.5t-85 -25.5q-47 0 -99 28l16 34q37 -20 77 -20q27 0 44 12.5t17 33.5q0 27 -29.5 39t-76.5 5l-9 17l59 88h-144v50h104q31 0 31 31v549h-94q-61 0 -97.5 -10.5
t-50.5 -41.5q25 0 44.5 -15.5t19.5 -42.5q0 -23 -16.5 -39t-41.5 -16q-26 0 -43.5 18.5t-17.5 46.5q0 65 49 107.5t154 42.5h264q61 0 97.5 10.5t50.5 41.5q-25 0 -44.5 15.5t-19.5 42.5q0 23 16.5 39t41.5 16q26 0 43.5 -18.5t17.5 -46.5q0 -65 -49 -107.5t-154 -42.5z" />
    <glyph glyph-name="uni021A.ss03" horiz-adv-x="658" 
d="M465 630h-85v-549q0 -31 31 -31h104v-50h-355v50h104q31 0 31 31v549h-94q-61 0 -97.5 -10.5t-50.5 -41.5q25 0 44.5 -15.5t19.5 -42.5q0 -23 -16.5 -39t-41.5 -16q-26 0 -43.5 18.5t-17.5 46.5q0 65 49 107.5t154 42.5h264q61 0 97.5 10.5t50.5 41.5q-25 0 -44.5 15.5
t-19.5 42.5q0 23 16.5 39t41.5 16q26 0 43.5 -18.5t17.5 -46.5q0 -65 -49 -107.5t-154 -42.5zM343 -60q25 0 42.5 -16.5t17.5 -47.5q0 -102 -114 -148l-15 27q44 25 59.5 42t17.5 34h-10q-29 0 -43.5 16t-14.5 38q0 24 17 39.5t43 15.5z" />
    <glyph glyph-name="Q.ss04" horiz-adv-x="804" 
d="M402 690q148 0 247.5 -102t99.5 -248t-99.5 -248t-247.5 -102t-247.5 102t-99.5 248t99.5 248t247.5 102zM402 44q111 0 178.5 81.5t67.5 214.5t-67.5 214.5t-178.5 81.5t-178.5 -81.5t-67.5 -214.5t67.5 -214.5t178.5 -81.5zM399 -63l3 27l309 -14q21 -1 35.5 -11.5
t14.5 -26.5q0 -17 -16 -27.5t-37 -6.5z" />
    <glyph glyph-name="A.ss08" horiz-adv-x="725" 
d="M690 50h35v-50h-261v50h64q15 0 21.5 8.5t0.5 21.5l-51 115h-299l-49 -114q-5 -13 0.5 -22t20.5 -9h74v-50h-246v50h38q34 0 48 34l229 530l-23 53v13h82l268 -600q14 -30 48 -30zM220 242h259l-131 298z" />
    <glyph glyph-name="Aacute.ss08" horiz-adv-x="725" 
d="M506 846q-9 -11 -27.5 -26.5t-55 -44t-55.5 -43.5l-24 20q14 26 33.5 64t32 60.5t21.5 32.5q15 16 35 18.5t36 -10.5q18 -14 18.5 -33.5t-14.5 -37.5zM690 50h35v-50h-261v50h64q15 0 21.5 8.5t0.5 21.5l-51 115h-299l-49 -114q-5 -13 0.5 -22t20.5 -9h74v-50h-246v50h38
q34 0 48 34l229 530l-23 53v13h82l268 -600q14 -30 48 -30zM220 242h259l-131 298z" />
    <glyph glyph-name="Abreve.ss08" horiz-adv-x="725" 
d="M363 757q-53 0 -87 36t-40 102l41 7q23 -77 86 -77t86 77l41 -7q-6 -66 -40 -102t-87 -36zM690 50h35v-50h-261v50h64q15 0 21.5 8.5t0.5 21.5l-51 115h-299l-49 -114q-5 -13 0.5 -22t20.5 -9h74v-50h-246v50h38q34 0 48 34l229 530l-23 53v13h82l268 -600q14 -30 48 -30
zM220 242h259l-131 298z" />
    <glyph glyph-name="Acircumflex.ss08" horiz-adv-x="725" 
d="M363 820l-103 -82l-25 20l96 137q17 25 31 25t32 -25l97 -137l-25 -20zM690 50h35v-50h-261v50h64q15 0 21.5 8.5t0.5 21.5l-51 115h-299l-49 -114q-5 -13 0.5 -22t20.5 -9h74v-50h-246v50h38q34 0 48 34l229 530l-23 53v13h82l268 -600q14 -30 48 -30zM220 242h259
l-131 298z" />
    <glyph glyph-name="Adieresis.ss08" horiz-adv-x="725" 
d="M269 745q-26 0 -43.5 17t-17.5 43t17.5 44t43.5 18q25 0 42 -17.5t17 -43.5t-17 -43.5t-42 -17.5zM459 745q-26 0 -43.5 17t-17.5 43t17.5 44t43.5 18q25 0 42 -17.5t17 -43.5t-17 -43.5t-42 -17.5zM690 50h35v-50h-261v50h64q15 0 21.5 8.5t0.5 21.5l-51 115h-299
l-49 -114q-5 -13 0.5 -22t20.5 -9h74v-50h-246v50h38q34 0 48 34l229 530l-23 53v13h82l268 -600q14 -30 48 -30zM220 242h259l-131 298z" />
    <glyph glyph-name="Agrave.ss08" horiz-adv-x="725" 
d="M408 732q-19 15 -55.5 43.5t-55 44t-27.5 26.5q-15 18 -14.5 37.5t18.5 33.5q16 13 36 10.5t35 -18.5q9 -10 21.5 -32.5t32 -60.5t33.5 -64zM690 50h35v-50h-261v50h64q15 0 21.5 8.5t0.5 21.5l-51 115h-299l-49 -114q-5 -13 0.5 -22t20.5 -9h74v-50h-246v50h38
q34 0 48 34l229 530l-23 53v13h82l268 -600q14 -30 48 -30zM220 242h259l-131 298z" />
    <glyph glyph-name="Amacron.ss08" horiz-adv-x="725" 
d="M493 828v-62h-260v62h260zM690 50h35v-50h-261v50h64q15 0 21.5 8.5t0.5 21.5l-51 115h-299l-49 -114q-5 -13 0.5 -22t20.5 -9h74v-50h-246v50h38q34 0 48 34l229 530l-23 53v13h82l268 -600q14 -30 48 -30zM220 242h259l-131 298z" />
    <glyph glyph-name="Aogonek.ss08" horiz-adv-x="725" 
d="M679 0q-55 0 -86 -24.5t-31 -55.5q0 -26 15.5 -40.5t43.5 -14.5q23 0 57 16l16 -33q-39 -38 -96 -38q-45 0 -77.5 24.5t-32.5 64.5q0 64 78 101h-102v50h64q15 0 21.5 8.5t0.5 21.5l-51 115h-299l-49 -114q-5 -13 0.5 -22t20.5 -9h74v-50h-246v50h38q34 0 48 34l229 530
l-23 53v13h82l268 -600q14 -30 48 -30h35v-50h-46zM220 242h259l-131 298z" />
    <glyph glyph-name="Aring.ss08" horiz-adv-x="725" 
d="M363 734q-45 0 -75 28t-30 70t30 70t75 28t75 -28t30 -70t-30 -70t-75 -28zM363 888q-23 0 -39 -16t-16 -40t15.5 -39.5t39.5 -15.5t39.5 15.5t15.5 39.5t-16 40t-39 16zM690 50h35v-50h-261v50h64q15 0 21.5 8.5t0.5 21.5l-51 115h-299l-49 -114q-5 -13 0.5 -22t20.5 -9
h74v-50h-246v50h38q34 0 48 34l229 530l-23 53v13h82l268 -600q14 -30 48 -30zM220 242h259l-131 298z" />
    <glyph glyph-name="Atilde.ss08" horiz-adv-x="725" 
d="M288 805q-6 0 -10.5 -1.5t-8 -2.5t-6.5 -5l-4.5 -6t-3.5 -8t-3 -8t-3 -10t-2 -9l-36 12q9 100 84 100q33 0 79 -28.5t65 -28.5q7 0 13 2.5t10 6t7 9.5t4 10t3 10.5t2 7.5l36 -5q-9 -103 -84 -103q-30 0 -74.5 28.5t-67.5 28.5zM690 50h35v-50h-261v50h64q15 0 21.5 8.5
t0.5 21.5l-51 115h-299l-49 -114q-5 -13 0.5 -22t20.5 -9h74v-50h-246v50h38q34 0 48 34l229 530l-23 53v13h82l268 -600q14 -30 48 -30zM220 242h259l-131 298z" />
    <glyph glyph-name="i.loclTRK" horiz-adv-x="338" 
d="M170 565q-26 0 -43.5 17t-17.5 43t17.5 44t43.5 18q25 0 42 -17.5t17 -43.5t-17 -43.5t-42 -17.5zM249 50h64v-50h-268v50h64q31 0 31 31v338q0 31 -31 31h-64v50h173v-419q0 -31 31 -31z" />
    <glyph glyph-name="k.fina" horiz-adv-x="806" 
d="M193 81q0 -31 31 -31h54v-50h-248v50h54q31 0 31 31v518q0 31 -31 31h-54v50h163v-599zM719 256q28 0 47.5 -20t19.5 -60q0 -28 -10.5 -58.5t-31.5 -60t-60.5 -48.5t-89.5 -19q-66 0 -132.5 41t-154.5 147l-82 98l164 151q10 9 6.5 16t-17.5 7h-86v50h268v-50h-36
q-40 0 -77 -33l-142 -131l96 -114q66 -78 110.5 -105t95.5 -27q59 0 92 32.5t35 72.5q-27 -4 -49.5 11.5t-22.5 44.5q0 23 15.5 39t41.5 16z" />
    <glyph glyph-name="kcommaaccent.fina" horiz-adv-x="806" 
d="M193 81q0 -31 31 -31h54v-50h-248v50h54q31 0 31 31v518q0 31 -31 31h-54v50h163v-599zM719 256q28 0 47.5 -20t19.5 -60q0 -28 -10.5 -58.5t-31.5 -60t-60.5 -48.5t-89.5 -19q-66 0 -132.5 41t-154.5 147l-82 98l164 151q10 9 6.5 16t-17.5 7h-86v50h268v-50h-36
q-40 0 -77 -33l-142 -131l96 -114q66 -78 110.5 -105t95.5 -27q59 0 92 32.5t35 72.5q-27 -4 -49.5 11.5t-22.5 44.5q0 23 15.5 39t41.5 16zM364 -60q25 0 42.5 -16.5t17.5 -47.5q0 -102 -114 -148l-15 27q44 25 59.5 42t17.5 34h-10q-29 0 -43.5 16t-14.5 38q0 24 17 39.5
t43 15.5z" />
    <glyph glyph-name="a.ss01" horiz-adv-x="651" 
d="M562 450q-31 0 -31 -31v-338q0 -31 31 -31h54v-50h-163v95q-29 -54 -78 -79.5t-105 -25.5q-98 0 -164 72.5t-66 185.5q0 116 65.5 187.5t164.5 71.5q59 0 111.5 -26.5t82.5 -84.5l39 104h113v-50h-54zM287 42q78 0 122 55.5t44 150.5q0 98 -43.5 152.5t-122.5 54.5
q-71 0 -116.5 -55t-45.5 -152q0 -94 46 -150t116 -56z" />
    <glyph glyph-name="aacute.ss01" horiz-adv-x="651" 
d="M431 666q-9 -11 -27.5 -26.5t-55 -44t-55.5 -43.5l-24 20q14 26 33.5 64t32 60.5t21.5 32.5q15 16 35 18.5t36 -10.5q18 -14 18.5 -33.5t-14.5 -37.5zM562 450q-31 0 -31 -31v-338q0 -31 31 -31h54v-50h-163v95q-29 -54 -78 -79.5t-105 -25.5q-98 0 -164 72.5t-66 185.5
q0 116 65.5 187.5t164.5 71.5q59 0 111.5 -26.5t82.5 -84.5l39 104h113v-50h-54zM287 42q78 0 122 55.5t44 150.5q0 98 -43.5 152.5t-122.5 54.5q-71 0 -116.5 -55t-45.5 -152q0 -94 46 -150t116 -56z" />
    <glyph glyph-name="abreve.ss01" horiz-adv-x="651" 
d="M404 722l41 -7q-6 -66 -40 -102t-87 -36t-87 36t-40 102l41 7q23 -77 86 -77t86 77zM562 450q-31 0 -31 -31v-338q0 -31 31 -31h54v-50h-163v95q-29 -54 -78 -79.5t-105 -25.5q-98 0 -164 72.5t-66 185.5q0 116 65.5 187.5t164.5 71.5q59 0 111.5 -26.5t82.5 -84.5
l39 104h113v-50h-54zM287 42q78 0 122 55.5t44 150.5q0 98 -43.5 152.5t-122.5 54.5q-71 0 -116.5 -55t-45.5 -152q0 -94 46 -150t116 -56z" />
    <glyph glyph-name="acircumflex.ss01" horiz-adv-x="651" 
d="M185 558l-25 20l96 137q18 25 31 25q14 0 32 -25l97 -137l-25 -20l-103 82zM562 450q-31 0 -31 -31v-338q0 -31 31 -31h54v-50h-163v95q-29 -54 -78 -79.5t-105 -25.5q-98 0 -164 72.5t-66 185.5q0 116 65.5 187.5t164.5 71.5q59 0 111.5 -26.5t82.5 -84.5l39 104h113
v-50h-54zM287 42q78 0 122 55.5t44 150.5q0 98 -43.5 152.5t-122.5 54.5q-71 0 -116.5 -55t-45.5 -152q0 -94 46 -150t116 -56z" />
    <glyph glyph-name="adieresis.ss01" horiz-adv-x="651" 
d="M194 565q-26 0 -43.5 17t-17.5 43t17.5 44t43.5 18q25 0 42 -17.5t17 -43.5t-17 -43.5t-42 -17.5zM384 565q-26 0 -43.5 17t-17.5 43t17.5 44t43.5 18q25 0 42 -17.5t17 -43.5t-17 -43.5t-42 -17.5zM562 450q-31 0 -31 -31v-338q0 -31 31 -31h54v-50h-163v95
q-29 -54 -78 -79.5t-105 -25.5q-98 0 -164 72.5t-66 185.5q0 116 65.5 187.5t164.5 71.5q59 0 111.5 -26.5t82.5 -84.5l39 104h113v-50h-54zM287 42q78 0 122 55.5t44 150.5q0 98 -43.5 152.5t-122.5 54.5q-71 0 -116.5 -55t-45.5 -152q0 -94 46 -150t116 -56z" />
    <glyph glyph-name="agrave.ss01" horiz-adv-x="651" 
d="M357 572l-24 -20q-19 15 -55.5 43.5t-55 44t-27.5 26.5q-15 18 -14.5 37.5t18.5 33.5q16 13 36 10.5t35 -18.5q9 -10 21.5 -32.5t32 -60.5t33.5 -64zM562 450q-31 0 -31 -31v-338q0 -31 31 -31h54v-50h-163v95q-29 -54 -78 -79.5t-105 -25.5q-98 0 -164 72.5t-66 185.5
q0 116 65.5 187.5t164.5 71.5q59 0 111.5 -26.5t82.5 -84.5l39 104h113v-50h-54zM287 42q78 0 122 55.5t44 150.5q0 98 -43.5 152.5t-122.5 54.5q-71 0 -116.5 -55t-45.5 -152q0 -94 46 -150t116 -56z" />
    <glyph glyph-name="amacron.ss01" horiz-adv-x="651" 
d="M158 648h260v-62h-260v62zM562 450q-31 0 -31 -31v-338q0 -31 31 -31h54v-50h-163v95q-29 -54 -78 -79.5t-105 -25.5q-98 0 -164 72.5t-66 185.5q0 116 65.5 187.5t164.5 71.5q59 0 111.5 -26.5t82.5 -84.5l39 104h113v-50h-54zM287 42q78 0 122 55.5t44 150.5
q0 98 -43.5 152.5t-122.5 54.5q-71 0 -116.5 -55t-45.5 -152q0 -94 46 -150t116 -56z" />
    <glyph glyph-name="aogonek.ss01" horiz-adv-x="651" 
d="M606 -119l16 -33q-39 -38 -96 -38q-45 0 -77.5 24.5t-32.5 64.5q0 64 78 101h-41v95q-29 -54 -78 -79.5t-105 -25.5q-98 0 -164 72.5t-66 185.5q0 116 65.5 187.5t164.5 71.5q59 0 111.5 -26.5t82.5 -84.5l39 104h113v-50h-54q-31 0 -31 -31v-338q0 -31 31 -31h54v-50h-9
q-55 0 -86 -24.5t-31 -55.5q0 -26 15.5 -40.5t43.5 -14.5q23 0 57 16zM287 42q78 0 122 55.5t44 150.5q0 98 -43.5 152.5t-122.5 54.5q-71 0 -116.5 -55t-45.5 -152q0 -94 46 -150t116 -56z" />
    <glyph glyph-name="aring.ss01" horiz-adv-x="651" 
d="M288 554q-45 0 -75 28t-30 70t30 70t75 28t75 -28t30 -70t-30 -70t-75 -28zM288 597q24 0 39.5 15.5t15.5 39.5t-15.5 40t-39.5 16t-39.5 -16t-15.5 -40t15.5 -39.5t39.5 -15.5zM562 450q-31 0 -31 -31v-338q0 -31 31 -31h54v-50h-163v95q-29 -54 -78 -79.5t-105 -25.5
q-98 0 -164 72.5t-66 185.5q0 116 65.5 187.5t164.5 71.5q59 0 111.5 -26.5t82.5 -84.5l39 104h113v-50h-54zM287 42q78 0 122 55.5t44 150.5q0 98 -43.5 152.5t-122.5 54.5q-71 0 -116.5 -55t-45.5 -152q0 -94 46 -150t116 -56z" />
    <glyph glyph-name="atilde.ss01" horiz-adv-x="651" 
d="M439 671q-9 -103 -84 -103q-30 0 -74.5 28.5t-67.5 28.5q-6 0 -10.5 -1.5t-8 -2.5t-6.5 -5l-4.5 -6t-3.5 -8t-3 -8t-3 -10t-2 -9l-36 12q9 100 84 100q33 0 79 -28.5t65 -28.5q7 0 13 2.5t10 6t7 9.5t4 10t3 10.5t2 7.5zM562 450q-31 0 -31 -31v-338q0 -31 31 -31h54v-50
h-163v95q-29 -54 -78 -79.5t-105 -25.5q-98 0 -164 72.5t-66 185.5q0 116 65.5 187.5t164.5 71.5q59 0 111.5 -26.5t82.5 -84.5l39 104h113v-50h-54zM287 42q78 0 122 55.5t44 150.5q0 98 -43.5 152.5t-122.5 54.5q-71 0 -116.5 -55t-45.5 -152q0 -94 46 -150t116 -56z" />
    <glyph glyph-name="y.ss02" horiz-adv-x="558" 
d="M342 500h156v-500q0 -81 -62.5 -135.5t-155.5 -54.5q-100 0 -153 36t-53 82q0 27 16.5 45t41.5 18q24 0 40.5 -16t16.5 -39q0 -22 -13.5 -35t-36.5 -14q37 -37 124 -37q67 0 112 43t45 107v152q-27 -51 -72 -81.5t-99 -30.5q-67 0 -113 45t-46 112v232q0 21 -30 21h-55
v50h163v-293q0 -44 31.5 -74t78.5 -30q55 0 98.5 42.5t43.5 130.5v143q0 31 -31 31h-47v50z" />
    <glyph glyph-name="yacute.ss02" horiz-adv-x="558" 
d="M422 666q-9 -11 -27.5 -26.5t-55 -44t-55.5 -43.5l-24 20q14 26 33.5 64t32 60.5t21.5 32.5q15 16 35 18.5t36 -10.5q18 -14 18.5 -33.5t-14.5 -37.5zM342 500h156v-500q0 -81 -62.5 -135.5t-155.5 -54.5q-100 0 -153 36t-53 82q0 27 16.5 45t41.5 18q24 0 40.5 -16
t16.5 -39q0 -22 -13.5 -35t-36.5 -14q37 -37 124 -37q67 0 112 43t45 107v152q-27 -51 -72 -81.5t-99 -30.5q-67 0 -113 45t-46 112v232q0 21 -30 21h-55v50h163v-293q0 -44 31.5 -74t78.5 -30q55 0 98.5 42.5t43.5 130.5v143q0 31 -31 31h-47v50z" />
    <glyph glyph-name="ycircumflex.ss02" horiz-adv-x="558" 
d="M176 558l-25 20l96 137q17 25 31 25t32 -25l97 -137l-25 -20l-103 82zM342 500h156v-500q0 -81 -62.5 -135.5t-155.5 -54.5q-100 0 -153 36t-53 82q0 27 16.5 45t41.5 18q24 0 40.5 -16t16.5 -39q0 -22 -13.5 -35t-36.5 -14q37 -37 124 -37q67 0 112 43t45 107v152
q-27 -51 -72 -81.5t-99 -30.5q-67 0 -113 45t-46 112v232q0 21 -30 21h-55v50h163v-293q0 -44 31.5 -74t78.5 -30q55 0 98.5 42.5t43.5 130.5v143q0 31 -31 31h-47v50z" />
    <glyph glyph-name="ydieresis.ss02" horiz-adv-x="558" 
d="M185 565q-26 0 -43.5 17t-17.5 43t17.5 44t43.5 18q25 0 42 -17.5t17 -43.5t-17 -43.5t-42 -17.5zM375 565q-26 0 -43.5 17t-17.5 43t17.5 44t43.5 18q25 0 42 -17.5t17 -43.5t-17 -43.5t-42 -17.5zM342 500h156v-500q0 -81 -62.5 -135.5t-155.5 -54.5q-100 0 -153 36
t-53 82q0 27 16.5 45t41.5 18q24 0 40.5 -16t16.5 -39q0 -22 -13.5 -35t-36.5 -14q37 -37 124 -37q67 0 112 43t45 107v152q-27 -51 -72 -81.5t-99 -30.5q-67 0 -113 45t-46 112v232q0 21 -30 21h-55v50h163v-293q0 -44 31.5 -74t78.5 -30q55 0 98.5 42.5t43.5 130.5v143
q0 31 -31 31h-47v50z" />
    <glyph glyph-name="ygrave.ss02" horiz-adv-x="558" 
d="M348 572l-24 -20q-19 15 -55.5 43.5t-55 44t-27.5 26.5q-15 18 -14.5 37.5t18.5 33.5q16 13 36 10.5t35 -18.5q9 -10 21.5 -32.5t32 -60.5t33.5 -64zM342 500h156v-500q0 -81 -62.5 -135.5t-155.5 -54.5q-100 0 -153 36t-53 82q0 27 16.5 45t41.5 18q24 0 40.5 -16
t16.5 -39q0 -22 -13.5 -35t-36.5 -14q37 -37 124 -37q67 0 112 43t45 107v152q-27 -51 -72 -81.5t-99 -30.5q-67 0 -113 45t-46 112v232q0 21 -30 21h-55v50h163v-293q0 -44 31.5 -74t78.5 -30q55 0 98.5 42.5t43.5 130.5v143q0 31 -31 31h-47v50z" />
    <glyph glyph-name="g.ss06" horiz-adv-x="613" 
d="M475 500h113v-50h-54q-31 0 -31 -31v-399q0 -90 -66.5 -150t-165.5 -60q-100 0 -153 36t-53 82q0 27 17 44t42 17q24 0 40 -15t16 -38q0 -22 -13.5 -35t-36.5 -14q37 -37 124 -37q73 0 122 48.5t49 121.5v121q-44 -98 -171 -98q-90 0 -152 66t-62 166t62 166t152 66
q128 0 178 -93zM275 95q69 0 109.5 47.5t40.5 132.5t-40.5 132.5t-109.5 47.5t-109.5 -47.5t-40.5 -132.5t40.5 -132.5t109.5 -47.5z" />
    <glyph glyph-name="gbreve.ss06" horiz-adv-x="613" 
d="M393 722l41 -7q-6 -66 -40 -102t-87 -36t-87 36t-40 102l41 7q23 -77 86 -77t86 77zM475 500h113v-50h-54q-31 0 -31 -31v-399q0 -90 -66.5 -150t-165.5 -60q-100 0 -153 36t-53 82q0 27 17 44t42 17q24 0 40 -15t16 -38q0 -22 -13.5 -35t-36.5 -14q37 -37 124 -37
q73 0 122 48.5t49 121.5v121q-44 -98 -171 -98q-90 0 -152 66t-62 166t62 166t152 66q128 0 178 -93zM275 95q69 0 109.5 47.5t40.5 132.5t-40.5 132.5t-109.5 47.5t-109.5 -47.5t-40.5 -132.5t40.5 -132.5t109.5 -47.5z" />
    <glyph glyph-name="gcommaaccent.ss06" horiz-adv-x="613" 
d="M303 560q-25 0 -42.5 16.5t-17.5 47.5q0 102 114 148l15 -27q-44 -25 -59.5 -42t-17.5 -34h10q29 0 43.5 -16t14.5 -38q0 -24 -17 -39.5t-43 -15.5zM475 500h113v-50h-54q-31 0 -31 -31v-399q0 -90 -66.5 -150t-165.5 -60q-100 0 -153 36t-53 82q0 27 17 44t42 17
q24 0 40 -15t16 -38q0 -22 -13.5 -35t-36.5 -14q37 -37 124 -37q73 0 122 48.5t49 121.5v121q-44 -98 -171 -98q-90 0 -152 66t-62 166t62 166t152 66q128 0 178 -93zM275 95q69 0 109.5 47.5t40.5 132.5t-40.5 132.5t-109.5 47.5t-109.5 -47.5t-40.5 -132.5t40.5 -132.5
t109.5 -47.5z" />
    <glyph glyph-name="gdotaccent.ss06" horiz-adv-x="613" 
d="M308 565q-26 0 -43.5 17t-17.5 43t17.5 44t43.5 18q25 0 42 -17.5t17 -43.5t-17 -43.5t-42 -17.5zM475 500h113v-50h-54q-31 0 -31 -31v-399q0 -90 -66.5 -150t-165.5 -60q-100 0 -153 36t-53 82q0 27 17 44t42 17q24 0 40 -15t16 -38q0 -22 -13.5 -35t-36.5 -14
q37 -37 124 -37q73 0 122 48.5t49 121.5v121q-44 -98 -171 -98q-90 0 -152 66t-62 166t62 166t152 66q128 0 178 -93zM275 95q69 0 109.5 47.5t40.5 132.5t-40.5 132.5t-109.5 47.5t-109.5 -47.5t-40.5 -132.5t40.5 -132.5t109.5 -47.5z" />
    <glyph glyph-name="T_h" horiz-adv-x="1274" 
d="M1193 50h54v-50h-238v50h44q31 0 31 31v259q0 44 -31.5 74t-78.5 30q-51 0 -93.5 -36.5t-48.5 -112.5v-214q0 -31 31 -31h44v-50h-238v50h54q31 0 31 31v518q0 31 -31 31h-291v-549q0 -31 31 -31h104v-50h-355v50h104q31 0 31 31v549h-94q-61 0 -97.5 -10.5t-50.5 -41.5
q25 0 44.5 -15.5t19.5 -42.5q0 -23 -16.5 -39t-41.5 -16q-26 0 -43.5 18.5t-17.5 46.5q0 65 49 107.5t154 42.5h424q61 0 97.5 10.5t50.5 41.5q-25 0 -44.5 15.5t-19.5 42.5q0 23 16.5 39t41.5 16q26 0 43.5 -18.5t17.5 -46.5q0 -67 -48 -107v-278q27 51 72 81.5t99 30.5
q67 0 113 -45t46 -112v-269q0 -31 31 -31z" />
    <glyph glyph-name="f_b" horiz-adv-x="998" 
d="M728 507q98 0 164 -72.5t66 -185.5q0 -116 -65.5 -187.5t-164.5 -71.5q-56 0 -107.5 24.5t-82.5 77.5l-43 -92h-28v450h-244v-369q0 -31 31 -31h84v-50h-288v50h64q31 0 31 31v369h-105v50h74q14 0 22.5 6.5t8.5 14.5v-1q0 81 60.5 135.5t148.5 54.5q45 0 85 -15t57 -42
l31 27h18v-278q29 54 78 79.5t105 25.5zM467 500v62q-9 -3 -18 -3q-23 0 -38.5 15t-15.5 37q0 38 36 47q-26 12 -62 12q-67 0 -106.5 -42.5t-39.5 -107.5v-20h244zM711 42q71 0 116.5 55t45.5 152q0 94 -46 150t-116 56q-78 0 -122 -55.5t-44 -150.5q0 -98 43.5 -152.5
t122.5 -54.5z" />
    <glyph glyph-name="f_f_b" horiz-adv-x="1320" 
d="M1050 507q98 0 164 -72.5t66 -185.5q0 -116 -65.5 -187.5t-164.5 -71.5q-56 0 -107.5 24.5t-82.5 77.5l-43 -92h-28v450h-244v-369q0 -31 31 -31h84v-50h-288v50h64q31 0 31 31v369h-244v-369q0 -31 31 -31h84v-50h-288v50h64q31 0 31 31v369h-105v50h74q14 0 22.5 6.5
t8.5 14.5v-1q0 81 60.5 135.5t148.5 54.5q55 0 99.5 -21.5t51.5 -57.5q61 79 171 79q45 0 85 -15t57 -42l31 27h18v-278q29 54 78 79.5t105 25.5zM436 500q14 0 22.5 6.5t8.5 14.5v-1q0 21 5 44q-12 -5 -23 -5q-23 0 -38.5 15t-15.5 37q0 38 36 47q-26 12 -62 12
q-67 0 -106.5 -42.5t-39.5 -107.5v-20h213zM789 500v62q-9 -3 -18 -3q-23 0 -38.5 15t-15.5 37q0 38 36 47q-26 12 -62 12q-67 0 -106.5 -42.5t-39.5 -107.5v-20h244zM1033 42q71 0 116.5 55t45.5 152q0 94 -46 150t-116 56q-78 0 -122 -55.5t-44 -150.5q0 -98 43.5 -152.5
t122.5 -54.5z" />
    <glyph glyph-name="f_f_h" horiz-adv-x="1339" 
d="M1258 50h54v-50h-238v50h44q31 0 31 31v259q0 44 -31.5 74t-78.5 30q-51 0 -93.5 -36.5t-48.5 -112.5v-214q0 -31 31 -31h44v-50h-238v50h54q31 0 31 31v369h-259v-369q0 -31 31 -31h84v-50h-288v50h64q31 0 31 31v369h-259v-369q0 -31 31 -31h84v-50h-288v50h64
q31 0 31 31v369h-105v50h74q14 0 22.5 6.5t8.5 14.5v-1q0 81 60.5 135.5t148.5 54.5q60 0 106 -25t46 -66q0 -7 -1 -10q27 46 76.5 73.5t109.5 27.5q47 0 87.5 -16.5t56.5 -44.5l24 31h38v-285q27 51 72 81.5t99 30.5q67 0 113 -45t46 -112v-269q0 -31 31 -31zM451 500
q14 0 22.5 6.5t8.5 14.5v-1q0 31 9 58q-16 -19 -42 -19q-23 0 -38.5 15t-15.5 37q0 38 36 47q-26 12 -62 12q-67 0 -106.5 -42.5t-39.5 -107.5v-20h228zM819 500v70q-14 -11 -33 -11q-23 0 -38.5 15t-15.5 37q0 38 36 47q-26 12 -62 12q-67 0 -106.5 -42.5t-39.5 -107.5v-20
h259z" />
    <glyph glyph-name="f_f_i" horiz-adv-x="1017" 
d="M928 50h64v-50h-268v50h64q31 0 31 31v338q0 31 -31 31h-228v-369q0 -31 31 -31h84v-50h-288v50h64q31 0 31 31v369h-259v-369q0 -31 31 -31h84v-50h-288v50h64q31 0 31 31v369h-105v50h74q14 0 22.5 6.5t8.5 14.5v-1q0 81 60.5 135.5t148.5 54.5q60 0 106 -25t46 -66
q0 -7 -1 -10q27 46 76.5 73.5t109.5 27.5t106 -25t46 -66q0 -24 -16 -42t-41 -18q-23 0 -38.5 15t-15.5 37q0 38 36 47q-26 12 -62 12q-67 0 -106.5 -42.5t-39.5 -107.5v-20h337v-419q0 -31 31 -31zM451 500q14 0 22.5 6.5t8.5 14.5v-1q0 31 9 58q-16 -19 -42 -19
q-23 0 -38.5 15t-15.5 37q0 38 36 47q-26 12 -62 12q-67 0 -106.5 -42.5t-39.5 -107.5v-20h228z" />
    <glyph glyph-name="f_f_j" horiz-adv-x="947" 
d="M897 500v-530q0 -76 -35.5 -118t-101.5 -42q-52 0 -85.5 25t-33.5 64q0 24 15.5 40.5t37.5 16.5q24 0 38 -13.5t14 -36.5q0 -22 -14.5 -35t-36.5 -11q16 -15 43 -15q48 0 64.5 32t16.5 93v449q0 31 -31 31h-228v-369q0 -31 31 -31h84v-50h-288v50h64q31 0 31 31v369h-259
v-369q0 -31 31 -31h84v-50h-288v50h64q31 0 31 31v369h-105v50h74q14 0 22.5 6.5t8.5 14.5v-1q0 81 60.5 135.5t148.5 54.5q60 0 106 -25t46 -66q0 -7 -1 -10q27 46 76.5 73.5t109.5 27.5t106 -25t46 -66q0 -24 -16 -42t-41 -18q-23 0 -38.5 15t-15.5 37q0 38 36 47
q-26 12 -62 12q-67 0 -106.5 -42.5t-39.5 -107.5v-20h337zM451 500q14 0 22.5 6.5t8.5 14.5v-1q0 31 9 58q-16 -19 -42 -19q-23 0 -38.5 15t-15.5 37q0 38 36 47q-26 12 -62 12q-67 0 -106.5 -42.5t-39.5 -107.5v-20h228z" />
    <glyph glyph-name="f_f_k" horiz-adv-x="1324" 
d="M897 81q0 -31 31 -31h54v-50h-248v50h54q31 0 31 31v369h-259v-369q0 -31 31 -31h84v-50h-288v50h64q31 0 31 31v369h-259v-369q0 -31 31 -31h84v-50h-288v50h64q31 0 31 31v369h-105v50h74q14 0 22.5 6.5t8.5 14.5v-1q0 81 60.5 135.5t148.5 54.5q60 0 106 -25t46 -66
q0 -7 -1 -10q27 46 76.5 73.5t109.5 27.5q47 0 87.5 -16.5t56.5 -44.5l24 31h38v-599zM451 500q14 0 22.5 6.5t8.5 14.5v-1q0 31 9 58q-16 -19 -42 -19q-23 0 -38.5 15t-15.5 37q0 38 36 47q-26 12 -62 12q-67 0 -106.5 -42.5t-39.5 -107.5v-20h228zM819 500v70
q-14 -11 -33 -11q-23 0 -38.5 15t-15.5 37q0 38 36 47q-26 12 -62 12q-67 0 -106.5 -42.5t-39.5 -107.5v-20h259zM1283 50h21v-50h-258v50h52q18 0 23 7t-7 22l-185 197l174 151q10 9 6.5 16t-17.5 7h-86v50h268v-50h-36q-40 0 -77 -33l-152 -131l186 -197q35 -39 88 -39z
" />
    <glyph glyph-name="f_f_l" horiz-adv-x="1022" 
d="M928 50h64v-50h-268v50h64q31 0 31 31v369h-259v-369q0 -31 31 -31h84v-50h-288v50h64q31 0 31 31v369h-259v-369q0 -31 31 -31h84v-50h-288v50h64q31 0 31 31v369h-105v50h74q14 0 22.5 6.5t8.5 14.5v-1q0 81 60.5 135.5t148.5 54.5q60 0 106 -25t46 -66q0 -7 -1 -10
q27 46 76.5 73.5t109.5 27.5q47 0 87.5 -16.5t56.5 -44.5l24 31h38v-599q0 -31 31 -31zM451 500q14 0 22.5 6.5t8.5 14.5v-1q0 31 9 58q-16 -19 -42 -19q-23 0 -38.5 15t-15.5 37q0 38 36 47q-26 12 -62 12q-67 0 -106.5 -42.5t-39.5 -107.5v-20h228zM819 500v70
q-14 -11 -33 -11q-23 0 -38.5 15t-15.5 37q0 38 36 47q-26 12 -62 12q-67 0 -106.5 -42.5t-39.5 -107.5v-20h259z" />
    <glyph glyph-name="f_f_t" horiz-adv-x="1138" 
d="M1091 109l37 -13q-9 -46 -46.5 -76t-85.5 -30q-58 0 -97.5 36t-39.5 89v335h-264v-369q0 -31 31 -31h84v-50h-288v50h64q31 0 31 31v369h-294v-369q0 -31 31 -31h84v-50h-288v50h64q31 0 31 31v369h-105v50h74q31 0 31 31v-1q0 74 44.5 117t115.5 43q55 0 93 -24t38 -65
q0 -27 -16 -44.5t-41 -17.5q-23 0 -38.5 15t-15.5 37q0 20 12.5 33.5t34.5 15.5q-23 10 -51 10q-98 0 -98 -120v-30h263q31 0 31 31v-1q0 74 44.5 117t115.5 43q55 0 93 -24t38 -65q0 -27 -16 -44.5t-41 -17.5q-23 0 -38.5 15t-15.5 37q0 20 12.5 33.5t34.5 15.5
q-23 10 -51 10q-98 0 -98 -120v-30h187q49 0 71.5 19t55.5 81h28v-100h169v-50h-169v-335q0 -32 21.5 -53t53.5 -21q29 0 51 19.5t28 48.5z" />
    <glyph glyph-name="f_h" horiz-adv-x="1002" 
d="M921 50h54v-50h-238v50h44q31 0 31 31v259q0 44 -31.5 74t-78.5 30q-51 0 -93.5 -36.5t-48.5 -112.5v-214q0 -31 31 -31h44v-50h-238v50h54q31 0 31 31v369h-259v-369q0 -31 31 -31h84v-50h-288v50h64q31 0 31 31v369h-105v50h74q14 0 22.5 6.5t8.5 14.5v-1
q0 81 60.5 135.5t148.5 54.5q47 0 87.5 -16.5t56.5 -44.5l24 31h38v-285q27 51 72 81.5t99 30.5q67 0 113 -45t46 -112v-269q0 -31 31 -31zM482 500v70q-14 -11 -33 -11q-23 0 -38.5 15t-15.5 37q0 38 36 47q-26 12 -62 12q-67 0 -106.5 -42.5t-39.5 -107.5v-20h259z" />
    <glyph glyph-name="f_j" horiz-adv-x="610" 
d="M560 500v-530q0 -76 -35.5 -118t-101.5 -42q-52 0 -85.5 25t-33.5 64q0 24 15.5 40.5t37.5 16.5q24 0 38 -13.5t14 -36.5q0 -22 -14.5 -35t-36.5 -11q16 -15 43 -15q48 0 64.5 32t16.5 93v449q0 31 -31 31h-228v-369q0 -31 31 -31h84v-50h-288v50h64q31 0 31 31v369h-105
v50h74q14 0 22.5 6.5t8.5 14.5v-1q0 81 60.5 135.5t148.5 54.5q60 0 106 -25t46 -66q0 -24 -16 -42t-41 -18q-23 0 -38.5 15t-15.5 37q0 38 36 47q-26 12 -62 12q-67 0 -106.5 -42.5t-39.5 -107.5v-20h337z" />
    <glyph glyph-name="f_k" horiz-adv-x="987" 
d="M560 81q0 -31 31 -31h54v-50h-248v50h54q31 0 31 31v369h-259v-369q0 -31 31 -31h84v-50h-288v50h64q31 0 31 31v369h-105v50h74q14 0 22.5 6.5t8.5 14.5v-1q0 81 60.5 135.5t148.5 54.5q47 0 87.5 -16.5t56.5 -44.5l24 31h38v-599zM482 500v70q-14 -11 -33 -11
q-23 0 -38.5 15t-15.5 37q0 38 36 47q-26 12 -62 12q-67 0 -106.5 -42.5t-39.5 -107.5v-20h259zM946 50h21v-50h-258v50h52q18 0 23 7t-7 22l-185 197l174 151q10 9 6.5 16t-17.5 7h-86v50h268v-50h-36q-40 0 -77 -33l-152 -131l186 -197q35 -39 88 -39z" />
    <glyph glyph-name="f_t" horiz-adv-x="766" 
d="M719 109l37 -13q-9 -46 -46.5 -76t-85.5 -30q-58 0 -97.5 36t-39.5 89v335h-264v-369q0 -31 31 -31h84v-50h-288v50h64q31 0 31 31v369h-105v50h74q31 0 31 31v-1q0 74 44.5 117t115.5 43q55 0 93 -24t38 -65q0 -27 -16 -44.5t-41 -17.5q-23 0 -38.5 15t-15.5 37
q0 20 12.5 33.5t34.5 15.5q-23 10 -51 10q-98 0 -98 -120v-30h187q49 0 71.5 19t55.5 81h28v-100h169v-50h-169v-335q0 -32 21.5 -53t53.5 -21q29 0 51 19.5t28 48.5z" />
    <glyph glyph-name="f_t_y" horiz-adv-x="1338" 
d="M1131 500h192v-50h-26q-34 0 -50 -36l-193 -454q-33 -77 -71.5 -113.5t-98.5 -36.5q-47 0 -80.5 24.5t-33.5 64.5q0 26 16.5 44t41.5 18q24 0 39 -15.5t15 -38.5q0 -42 -41 -49q15 -8 34 -8q46 0 74 27t51 83l23 56l-177 403q-13 31 -47 31h-214v-335q0 -32 21.5 -53
t53.5 -21q29 0 51 19.5t28 48.5l37 -13q-9 -46 -46.5 -76t-85.5 -30q-58 0 -97.5 36t-39.5 89v335h-284v-369q0 -31 31 -31h84v-50h-288v50h64q31 0 31 31v369h-105v50h74q31 0 31 31v-1q0 74 44.5 117t115.5 43q55 0 93 -24t38 -65q0 -27 -16 -44.5t-41 -17.5
q-23 0 -38.5 15t-15.5 37q0 20 12.5 33.5t34.5 15.5q-23 10 -51 10q-98 0 -98 -120v-30h207q49 0 71.5 19t55.5 81h28v-100h427v-50h-58q-15 0 -21.5 -8t-1.5 -21l130 -315l131 313q6 15 -1 23t-21 8h-39v50z" />
    <glyph glyph-name="t_y" horiz-adv-x="916" 
d="M709 500h192v-50h-26q-34 0 -50 -36l-193 -454q-33 -77 -71.5 -113.5t-98.5 -36.5q-47 0 -80.5 24.5t-33.5 64.5q0 26 16.5 44t41.5 18q24 0 39 -15.5t15 -38.5q0 -42 -41 -49q15 -8 34 -8q46 0 74 27t51 83l23 56l-177 403q-13 31 -47 31h-214v-335q0 -32 21.5 -53
t53.5 -21q29 0 51 19.5t28 48.5l37 -13q-9 -46 -46.5 -76t-85.5 -30q-58 0 -97.5 36t-39.5 89v335h-85v50h8q49 0 71.5 19t55.5 81h28v-100h427v-50h-58q-15 0 -21.5 -8t-1.5 -21l130 -315l131 313q6 15 -1 23t-21 8h-39v50z" />
    <glyph glyph-name="a.smcp" horiz-adv-x="605" 
d="M576 45h29v-45h-231v45h56q28 0 17 25l-36 81h-245l-36 -81q-10 -25 17 -25h61v-45h-208v45h31q26 0 39 27l206 458h49l213 -460q12 -25 38 -25zM184 192h208l-105 234z" />
    <glyph glyph-name="aacute.smcp" horiz-adv-x="605" 
d="M446 696q-9 -11 -27.5 -26.5t-55 -44t-55.5 -43.5l-24 20q14 26 33.5 64t32 60.5t21.5 32.5q15 16 35 18.5t36 -10.5q18 -14 18.5 -33.5t-14.5 -37.5zM576 45h29v-45h-231v45h56q28 0 17 25l-36 81h-245l-36 -81q-10 -25 17 -25h61v-45h-208v45h31q26 0 39 27l206 458h49
l213 -460q12 -25 38 -25zM184 192h208l-105 234z" />
    <glyph glyph-name="abreve.smcp" horiz-adv-x="605" 
d="M389 752l41 -7q-6 -66 -40 -102t-87 -36t-87 36t-40 102l41 7q23 -77 86 -77t86 77zM576 45h29v-45h-231v45h56q28 0 17 25l-36 81h-245l-36 -81q-10 -25 17 -25h61v-45h-208v45h31q26 0 39 27l206 458h49l213 -460q12 -25 38 -25zM184 192h208l-105 234z" />
    <glyph glyph-name="acircumflex.smcp" horiz-adv-x="605" 
d="M200 588l-25 20l96 137q17 25 31 25t32 -25l97 -137l-25 -20l-103 82zM576 45h29v-45h-231v45h56q28 0 17 25l-36 81h-245l-36 -81q-10 -25 17 -25h61v-45h-208v45h31q26 0 39 27l206 458h49l213 -460q12 -25 38 -25zM184 192h208l-105 234z" />
    <glyph glyph-name="adieresis.smcp" horiz-adv-x="605" 
d="M209 595q-26 0 -43.5 17t-17.5 43t17.5 44t43.5 18q25 0 42 -17.5t17 -43.5t-17 -43.5t-42 -17.5zM399 595q-26 0 -43.5 17t-17.5 43t17.5 44t43.5 18q25 0 42 -17.5t17 -43.5t-17 -43.5t-42 -17.5zM576 45h29v-45h-231v45h56q28 0 17 25l-36 81h-245l-36 -81
q-10 -25 17 -25h61v-45h-208v45h31q26 0 39 27l206 458h49l213 -460q12 -25 38 -25zM184 192h208l-105 234z" />
    <glyph glyph-name="agrave.smcp" horiz-adv-x="605" 
d="M372 602l-24 -20q-19 15 -55.5 43.5t-55 44t-27.5 26.5q-15 18 -14.5 37.5t18.5 33.5q16 13 36 10.5t35 -18.5q9 -10 21.5 -32.5t32 -60.5t33.5 -64zM576 45h29v-45h-231v45h56q28 0 17 25l-36 81h-245l-36 -81q-10 -25 17 -25h61v-45h-208v45h31q26 0 39 27l206 458h49
l213 -460q12 -25 38 -25zM184 192h208l-105 234z" />
    <glyph glyph-name="amacron.smcp" horiz-adv-x="605" 
d="M173 678h260v-62h-260v62zM576 45h29v-45h-231v45h56q28 0 17 25l-36 81h-245l-36 -81q-10 -25 17 -25h61v-45h-208v45h31q26 0 39 27l206 458h49l213 -460q12 -25 38 -25zM184 192h208l-105 234z" />
    <glyph glyph-name="aogonek.smcp" horiz-adv-x="605" 
d="M566 0q-55 0 -86 -24.5t-31 -55.5q0 -26 15.5 -40.5t43.5 -14.5q23 0 57 16l16 -33q-39 -38 -96 -38q-45 0 -77.5 24.5t-32.5 64.5q0 64 78 101h-79v45h56q28 0 17 25l-36 81h-245l-36 -81q-10 -25 17 -25h61v-45h-208v45h31q26 0 39 27l206 458h49l213 -460
q12 -25 38 -25h29v-45h-39zM184 192h208l-105 234z" />
    <glyph glyph-name="aring.smcp" horiz-adv-x="605" 
d="M303 584q-45 0 -75 28t-30 70t30 70t75 28t75 -28t30 -70t-30 -70t-75 -28zM303 627q24 0 39.5 15.5t15.5 39.5t-16 40t-39 16t-39 -16t-16 -40t15.5 -39.5t39.5 -15.5zM576 45h29v-45h-231v45h56q28 0 17 25l-36 81h-245l-36 -81q-10 -25 17 -25h61v-45h-208v45h31
q26 0 39 27l206 458h49l213 -460q12 -25 38 -25zM184 192h208l-105 234z" />
    <glyph glyph-name="atilde.smcp" horiz-adv-x="605" 
d="M454 701q-9 -103 -84 -103q-30 0 -74.5 28.5t-67.5 28.5q-6 0 -10.5 -1.5t-8 -2.5t-6.5 -5l-4.5 -6t-3.5 -8t-3 -8t-3 -10t-2 -9l-36 12q9 100 84 100q33 0 79 -28.5t65 -28.5q7 0 13 2.5t10 6t7 9.5t4 10t3 10.5t2 7.5zM576 45h29v-45h-231v45h56q28 0 17 25l-36 81
h-245l-36 -81q-10 -25 17 -25h61v-45h-208v45h31q26 0 39 27l206 458h49l213 -460q12 -25 38 -25zM184 192h208l-105 234z" />
    <glyph glyph-name="ae.smcp" horiz-adv-x="841" 
d="M729 148h47v-148h-471v45h64q23 0 23 23v82h-208l-55 -80q-7 -10 -2 -17.5t18 -7.5h61v-45h-206v45h31q10 0 18 5t10 7.5t11 15.5l275 392q6 9 2 16q-2 3 -21 3h-56v46h483v-147h-47q-6 59 -14 74q-15 27 -64 27h-156v-229h100q28 0 36 14.5t11 48.5q1 5 1 8h38v-187h-38
q0 2 -1 12t-1.5 12.5t-1.5 10.5t-2.5 10t-4 8t-6 7.5t-8 4.5t-10.5 4t-13 1h-100v-164h176q21 0 35.5 5.5t22 11t12.5 21.5t6.5 24t3.5 32q1 6 1 9zM212 191h180v263z" />
    <glyph glyph-name="b.smcp" horiz-adv-x="549" 
d="M353 275q72 -7 114 -42.5t42 -92.5q0 -64 -53 -102t-143 -38h-278v45h60q24 0 24 23v394q0 22 -24 22h-60v46h260q92 0 144 -34t52 -94q0 -51 -37 -83.5t-101 -43.5zM197 484v-188h82q58 0 94 29t36 72q0 41 -33.5 64t-91.5 23h-87zM296 45q61 0 96 26.5t35 73.5
q0 45 -34.5 75.5t-93.5 30.5h-102v-206h99z" />
    <glyph glyph-name="c.smcp" horiz-adv-x="629" 
d="M535 195l44 -11q-21 -93 -83.5 -142.5t-156.5 -49.5q-123 0 -203.5 78.5t-80.5 194.5q0 118 80.5 195.5t204.5 77.5q106 0 171.5 -53.5t65.5 -111.5q0 -27 -16 -42t-39 -15t-37.5 14t-14.5 35q0 37 38 47q-46 82 -157 82q-93 0 -150 -60.5t-57 -164.5q0 -103 55.5 -165.5
t146.5 -62.5q71 0 119.5 41t69.5 113z" />
    <glyph glyph-name="cacute.smcp" horiz-adv-x="629" 
d="M481 696q-9 -11 -27.5 -26.5t-55 -44t-55.5 -43.5l-24 20q14 26 33.5 64t32 60.5t21.5 32.5q15 16 35 18.5t36 -10.5q18 -14 18.5 -33.5t-14.5 -37.5zM535 195l44 -11q-21 -93 -83.5 -142.5t-156.5 -49.5q-123 0 -203.5 78.5t-80.5 194.5q0 118 80.5 195.5t204.5 77.5
q106 0 171.5 -53.5t65.5 -111.5q0 -27 -16 -42t-39 -15t-37.5 14t-14.5 35q0 37 38 47q-46 82 -157 82q-93 0 -150 -60.5t-57 -164.5q0 -103 55.5 -165.5t146.5 -62.5q71 0 119.5 41t69.5 113z" />
    <glyph glyph-name="ccaron.smcp" horiz-adv-x="629" 
d="M337 588q-13 0 -31 25l-96 137l25 20l103 -82l103 82l25 -20l-97 -137q-18 -25 -32 -25zM535 195l44 -11q-21 -93 -83.5 -142.5t-156.5 -49.5q-123 0 -203.5 78.5t-80.5 194.5q0 118 80.5 195.5t204.5 77.5q106 0 171.5 -53.5t65.5 -111.5q0 -27 -16 -42t-39 -15
t-37.5 14t-14.5 35q0 37 38 47q-46 82 -157 82q-93 0 -150 -60.5t-57 -164.5q0 -103 55.5 -165.5t146.5 -62.5q71 0 119.5 41t69.5 113z" />
    <glyph glyph-name="ccedilla.smcp" horiz-adv-x="629" 
d="M339 -8h-18l-29 -59q48 0 79.5 -23.5t31.5 -58.5q0 -37 -35 -62.5t-85 -25.5q-47 0 -99 28l16 34q37 -20 77 -20q27 0 44 12.5t17 33.5q0 27 -29.5 39t-76.5 5l-9 17l57 85q-101 19 -163 93t-62 175q0 118 80.5 195.5t204.5 77.5q106 0 171.5 -53.5t65.5 -111.5
q0 -27 -16 -42t-39 -15t-37.5 14t-14.5 35q0 37 38 47q-46 82 -157 82q-93 0 -150 -60.5t-57 -164.5q0 -103 55.5 -165.5t146.5 -62.5q71 0 119.5 41t69.5 113l44 -11q-21 -93 -83.5 -142.5t-156.5 -49.5z" />
    <glyph glyph-name="cdotaccent.smcp" horiz-adv-x="629" 
d="M339 595q-26 0 -43.5 17t-17.5 43t17.5 44t43.5 18q25 0 42 -17.5t17 -43.5t-17 -43.5t-42 -17.5zM535 195l44 -11q-21 -93 -83.5 -142.5t-156.5 -49.5q-123 0 -203.5 78.5t-80.5 194.5q0 118 80.5 195.5t204.5 77.5q106 0 171.5 -53.5t65.5 -111.5q0 -27 -16 -42
t-39 -15t-37.5 14t-14.5 35q0 37 38 47q-46 82 -157 82q-93 0 -150 -60.5t-57 -164.5q0 -103 55.5 -165.5t146.5 -62.5q71 0 119.5 41t69.5 113z" />
    <glyph glyph-name="d.smcp" horiz-adv-x="646" 
d="M296 530q126 0 210.5 -74t84.5 -191t-84.5 -191t-210.5 -74h-261v45h60q24 0 24 23v394q0 22 -24 22h-60v46h261zM296 45q92 0 149 61.5t57 158.5q0 98 -56.5 158.5t-149.5 60.5h-99v-439h99z" />
    <glyph glyph-name="eth.smcp" horiz-adv-x="646" 
d="M296 530q126 0 210.5 -74t84.5 -191t-84.5 -191t-210.5 -74h-261v45h60q24 0 24 23v167h-77v48h77v179q0 22 -24 22h-60v46h261zM296 45q92 0 149 61.5t57 158.5q0 98 -56.5 158.5t-149.5 60.5h-99v-201h146v-48h-146v-190h99z" />
    <glyph glyph-name="dcaron.smcp" horiz-adv-x="646" 
d="M223 770l103 -82l103 82l25 -20l-97 -137q-18 -25 -32 -25q-13 0 -31 25l-96 137zM296 530q126 0 210.5 -74t84.5 -191t-84.5 -191t-210.5 -74h-261v45h60q24 0 24 23v394q0 22 -24 22h-60v46h261zM296 45q92 0 149 61.5t57 158.5q0 98 -56.5 158.5t-149.5 60.5h-99v-439
h99z" />
    <glyph glyph-name="dcroat.smcp" horiz-adv-x="646" 
d="M296 530q126 0 210.5 -74t84.5 -191t-84.5 -191t-210.5 -74h-261v45h60q24 0 24 23v167h-77v48h77v179q0 22 -24 22h-60v46h261zM296 45q92 0 149 61.5t57 158.5q0 98 -56.5 158.5t-149.5 60.5h-99v-201h146v-48h-146v-190h99z" />
    <glyph glyph-name="e.smcp" horiz-adv-x="566" 
d="M454 148h47v-148h-466v45h60q24 0 24 23v394q0 22 -24 22h-60v46h444v-147h-48q-6 59 -14 73q-16 28 -64 28h-156v-229h99q13 0 22 5t13 8.5t7.5 17.5t4 18t2.5 23h39v-188h-39q0 2 -1 12t-1.5 12.5t-2 10.5t-2.5 10.5t-3.5 8.5t-6 8t-8 5t-10.5 4t-14 1h-99v-166h177
q25 0 40.5 6t23.5 21.5t10 27.5t5 38q1 7 1 10z" />
    <glyph glyph-name="eacute.smcp" horiz-adv-x="566" 
d="M263 602q14 26 33.5 64t32 60.5t21.5 32.5q15 16 35 18.5t36 -10.5q18 -14 18.5 -33.5t-14.5 -37.5q-9 -11 -27.5 -26.5t-55 -44t-55.5 -43.5zM454 148h47v-148h-466v45h60q24 0 24 23v394q0 22 -24 22h-60v46h444v-147h-48q-6 59 -14 73q-16 28 -64 28h-156v-229h99
q13 0 22 5t13 8.5t7.5 17.5t4 18t2.5 23h39v-188h-39q0 2 -1 12t-1.5 12.5t-2 10.5t-2.5 10.5t-3.5 8.5t-6 8t-8 5t-10.5 4t-14 1h-99v-166h177q25 0 40.5 6t23.5 21.5t10 27.5t5 38q1 7 1 10z" />
    <glyph glyph-name="ecaron.smcp" horiz-adv-x="566" 
d="M179 770l103 -82l103 82l25 -20l-97 -137q-18 -25 -32 -25q-13 0 -31 25l-96 137zM454 148h47v-148h-466v45h60q24 0 24 23v394q0 22 -24 22h-60v46h444v-147h-48q-6 59 -14 73q-16 28 -64 28h-156v-229h99q13 0 22 5t13 8.5t7.5 17.5t4 18t2.5 23h39v-188h-39q0 2 -1 12
t-1.5 12.5t-2 10.5t-2.5 10.5t-3.5 8.5t-6 8t-8 5t-10.5 4t-14 1h-99v-166h177q25 0 40.5 6t23.5 21.5t10 27.5t5 38q1 7 1 10z" />
    <glyph glyph-name="ecircumflex.smcp" horiz-adv-x="566" 
d="M179 588l-25 20l96 137q18 25 31 25q14 0 32 -25l97 -137l-25 -20l-103 82zM454 148h47v-148h-466v45h60q24 0 24 23v394q0 22 -24 22h-60v46h444v-147h-48q-6 59 -14 73q-16 28 -64 28h-156v-229h99q13 0 22 5t13 8.5t7.5 17.5t4 18t2.5 23h39v-188h-39q0 2 -1 12
t-1.5 12.5t-2 10.5t-2.5 10.5t-3.5 8.5t-6 8t-8 5t-10.5 4t-14 1h-99v-166h177q25 0 40.5 6t23.5 21.5t10 27.5t5 38q1 7 1 10z" />
    <glyph glyph-name="edieresis.smcp" horiz-adv-x="566" 
d="M188 595q-26 0 -43.5 17t-17.5 43t17.5 44t43.5 18q25 0 42 -17.5t17 -43.5t-17 -43.5t-42 -17.5zM378 595q-26 0 -43.5 17t-17.5 43t17.5 44t43.5 18q25 0 42 -17.5t17 -43.5t-17 -43.5t-42 -17.5zM454 148h47v-148h-466v45h60q24 0 24 23v394q0 22 -24 22h-60v46h444
v-147h-48q-6 59 -14 73q-16 28 -64 28h-156v-229h99q13 0 22 5t13 8.5t7.5 17.5t4 18t2.5 23h39v-188h-39q0 2 -1 12t-1.5 12.5t-2 10.5t-2.5 10.5t-3.5 8.5t-6 8t-8 5t-10.5 4t-14 1h-99v-166h177q25 0 40.5 6t23.5 21.5t10 27.5t5 38q1 7 1 10z" />
    <glyph glyph-name="edotaccent.smcp" horiz-adv-x="566" 
d="M283 595q-26 0 -43.5 17t-17.5 43t17.5 44t43.5 18q25 0 42 -17.5t17 -43.5t-17 -43.5t-42 -17.5zM454 148h47v-148h-466v45h60q24 0 24 23v394q0 22 -24 22h-60v46h444v-147h-48q-6 59 -14 73q-16 28 -64 28h-156v-229h99q13 0 22 5t13 8.5t7.5 17.5t4 18t2.5 23h39
v-188h-39q0 2 -1 12t-1.5 12.5t-2 10.5t-2.5 10.5t-3.5 8.5t-6 8t-8 5t-10.5 4t-14 1h-99v-166h177q25 0 40.5 6t23.5 21.5t10 27.5t5 38q1 7 1 10z" />
    <glyph glyph-name="egrave.smcp" horiz-adv-x="566" 
d="M351 602l-24 -20q-19 15 -55.5 43.5t-55 44t-27.5 26.5q-15 18 -14.5 37.5t18.5 33.5q16 13 36 10.5t35 -18.5q9 -10 21.5 -32.5t32 -60.5t33.5 -64zM454 148h47v-148h-466v45h60q24 0 24 23v394q0 22 -24 22h-60v46h444v-147h-48q-6 59 -14 73q-16 28 -64 28h-156v-229
h99q13 0 22 5t13 8.5t7.5 17.5t4 18t2.5 23h39v-188h-39q0 2 -1 12t-1.5 12.5t-2 10.5t-2.5 10.5t-3.5 8.5t-6 8t-8 5t-10.5 4t-14 1h-99v-166h177q25 0 40.5 6t23.5 21.5t10 27.5t5 38q1 7 1 10z" />
    <glyph glyph-name="emacron.smcp" horiz-adv-x="566" 
d="M152 678h260v-62h-260v62zM454 148h47v-148h-466v45h60q24 0 24 23v394q0 22 -24 22h-60v46h444v-147h-48q-6 59 -14 73q-16 28 -64 28h-156v-229h99q13 0 22 5t13 8.5t7.5 17.5t4 18t2.5 23h39v-188h-39q0 2 -1 12t-1.5 12.5t-2 10.5t-2.5 10.5t-3.5 8.5t-6 8t-8 5
t-10.5 4t-14 1h-99v-166h177q25 0 40.5 6t23.5 21.5t10 27.5t5 38q1 7 1 10z" />
    <glyph glyph-name="eogonek.smcp" horiz-adv-x="566" 
d="M487 -119l16 -33q-39 -38 -96 -38q-45 0 -77.5 24.5t-32.5 64.5q0 64 78 101h-340v45h60q24 0 24 23v394q0 22 -24 22h-60v46h444v-147h-48q-6 59 -14 73q-16 28 -64 28h-156v-229h99q13 0 22 5t13 8.5t7.5 17.5t4 18t2.5 23h39v-188h-39q0 2 -1 12t-1.5 12.5t-2 10.5
t-2.5 10.5t-3.5 8.5t-6 8t-8 5t-10.5 4t-14 1h-99v-166h177q25 0 40.5 6t23.5 21.5t10 27.5t5 38q1 7 1 10h47v-148h-13q-55 0 -86 -24.5t-31 -55.5q0 -26 15.5 -40.5t43.5 -14.5q23 0 57 16z" />
    <glyph glyph-name="f.smcp" horiz-adv-x="534" 
d="M479 530v-147h-47q-5 60 -15 75q-17 26 -63 26h-157v-228h101q8 0 14.5 2t11 3.5t8.5 7t5.5 8.5t3.5 11.5t2.5 11.5t2 13.5t1.5 13.5h40v-188h-40q0 4 -1 12.5t-2 12t-2 11t-2.5 10.5t-4 8.5t-6 7.5t-8 5t-10.5 4t-13 1h-101v-143q0 -23 24 -23h98v-45h-284v45h60
q24 0 24 23v394q0 22 -24 22h-60v46h444z" />
    <glyph glyph-name="f_b.smcp" horiz-adv-x="1083" 
d="M35 484v46h444v-147h-47q-5 60 -15 75q-17 26 -63 26h-157v-228h101q8 0 14.5 2t11 3.5t8.5 7t5.5 8.5t3.5 11.5t2.5 11.5t2 13.5t1.5 13.5h40v-188h-40q0 4 -1 12.5t-2 12t-2 11t-2.5 10.5t-4 8.5t-6 7.5t-8 5t-10.5 4t-13 1h-101v-143q0 -23 24 -23h98v-45h-284v45h60
q24 0 24 23v394q0 22 -24 22h-60zM887 275q72 -7 114 -42.5t42 -92.5q0 -64 -53 -102t-143 -38h-278v45h60q24 0 24 23v394q0 22 -24 22h-60v46h260q92 0 144 -34t52 -94q0 -51 -37 -83.5t-101 -43.5zM731 484v-188h82q58 0 94 29t36 72q0 41 -33.5 64t-91.5 23h-87zM830 45
q61 0 96 26.5t35 73.5q0 45 -34.5 75.5t-93.5 30.5h-102v-206h99z" />
    <glyph glyph-name="f_f.smcp" horiz-adv-x="1068" 
d="M479 530v-147h-47q-5 60 -15 75q-17 26 -63 26h-157v-228h101q8 0 14.5 2t11 3.5t8.5 7t5.5 8.5t3.5 11.5t2.5 11.5t2 13.5t1.5 13.5h40v-188h-40q0 4 -1 12.5t-2 12t-2 11t-2.5 10.5t-4 8.5t-6 7.5t-8 5t-10.5 4t-13 1h-101v-143q0 -23 24 -23h98v-45h-284v45h60
q24 0 24 23v394q0 22 -24 22h-60v46h444zM1013 530v-147h-47q-5 60 -15 75q-17 26 -63 26h-157v-228h101q8 0 14.5 2t11 3.5t8.5 7t5.5 8.5t3.5 11.5t2.5 11.5t2 13.5t1.5 13.5h40v-188h-40q0 4 -1 12.5t-2 12t-2 11t-2.5 10.5t-4 8.5t-6 7.5t-8 5t-10.5 4t-13 1h-101v-143
q0 -23 24 -23h98v-45h-284v45h60q24 0 24 23v394q0 22 -24 22h-60v46h444z" />
    <glyph glyph-name="f_f_b.smcp" horiz-adv-x="1617" 
d="M35 484v46h444v-147h-47q-5 60 -15 75q-17 26 -63 26h-157v-228h101q8 0 14.5 2t11 3.5t8.5 7t5.5 8.5t3.5 11.5t2.5 11.5t2 13.5t1.5 13.5h40v-188h-40q0 4 -1 12.5t-2 12t-2 11t-2.5 10.5t-4 8.5t-6 7.5t-8 5t-10.5 4t-13 1h-101v-143q0 -23 24 -23h98v-45h-284v45h60
q24 0 24 23v394q0 22 -24 22h-60zM569 484v46h444v-147h-47q-5 60 -15 75q-17 26 -63 26h-157v-228h101q8 0 14.5 2t11 3.5t8.5 7t5.5 8.5t3.5 11.5t2.5 11.5t2 13.5t1.5 13.5h40v-188h-40q0 4 -1 12.5t-2 12t-2 11t-2.5 10.5t-4 8.5t-6 7.5t-8 5t-10.5 4t-13 1h-101v-143
q0 -23 24 -23h98v-45h-284v45h60q24 0 24 23v394q0 22 -24 22h-60zM1421 275q72 -7 114 -42.5t42 -92.5q0 -64 -53 -102t-143 -38h-278v45h60q24 0 24 23v394q0 22 -24 22h-60v46h260q92 0 144 -34t52 -94q0 -51 -37 -83.5t-101 -43.5zM1265 484v-188h82q58 0 94 29t36 72
q0 41 -33.5 64t-91.5 23h-87zM1364 45q61 0 96 26.5t35 73.5q0 45 -34.5 75.5t-93.5 30.5h-102v-206h99z" />
    <glyph glyph-name="f_f_f.smcp" horiz-adv-x="1602" 
d="M479 530v-147h-47q-5 60 -15 75q-17 26 -63 26h-157v-228h101q8 0 14.5 2t11 3.5t8.5 7t5.5 8.5t3.5 11.5t2.5 11.5t2 13.5t1.5 13.5h40v-188h-40q0 4 -1 12.5t-2 12t-2 11t-2.5 10.5t-4 8.5t-6 7.5t-8 5t-10.5 4t-13 1h-101v-143q0 -23 24 -23h98v-45h-284v45h60
q24 0 24 23v394q0 22 -24 22h-60v46h444zM1013 530v-147h-47q-5 60 -15 75q-17 26 -63 26h-157v-228h101q8 0 14.5 2t11 3.5t8.5 7t5.5 8.5t3.5 11.5t2.5 11.5t2 13.5t1.5 13.5h40v-188h-40q0 4 -1 12.5t-2 12t-2 11t-2.5 10.5t-4 8.5t-6 7.5t-8 5t-10.5 4t-13 1h-101v-143
q0 -23 24 -23h98v-45h-284v45h60q24 0 24 23v394q0 22 -24 22h-60v46h444zM1547 530v-147h-47q-5 60 -15 75q-17 26 -63 26h-157v-228h101q8 0 14.5 2t11 3.5t8.5 7t5.5 8.5t3.5 11.5t2.5 11.5t2 13.5t1.5 13.5h40v-188h-40q0 4 -1 12.5t-2 12t-2 11t-2.5 10.5t-4 8.5
t-6 7.5t-8 5t-10.5 4t-13 1h-101v-143q0 -23 24 -23h98v-45h-284v45h60q24 0 24 23v394q0 22 -24 22h-60v46h444z" />
    <glyph glyph-name="f_f_h.smcp" horiz-adv-x="1732" 
d="M35 484v46h444v-147h-47q-5 60 -15 75q-17 26 -63 26h-157v-228h101q8 0 14.5 2t11 3.5t8.5 7t5.5 8.5t3.5 11.5t2.5 11.5t2 13.5t1.5 13.5h40v-188h-40q0 4 -1 12.5t-2 12t-2 11t-2.5 10.5t-4 8.5t-6 7.5t-8 5t-10.5 4t-13 1h-101v-143q0 -23 24 -23h98v-45h-284v45h60
q24 0 24 23v394q0 22 -24 22h-60zM569 484v46h444v-147h-47q-5 60 -15 75q-17 26 -63 26h-157v-228h101q8 0 14.5 2t11 3.5t8.5 7t5.5 8.5t3.5 11.5t2.5 11.5t2 13.5t1.5 13.5h40v-188h-40q0 4 -1 12.5t-2 12t-2 11t-2.5 10.5t-4 8.5t-6 7.5t-8 5t-10.5 4t-13 1h-101v-143
q0 -23 24 -23h98v-45h-284v45h60q24 0 24 23v394q0 22 -24 22h-60zM1637 484q-23 0 -23 -22v-394q0 -23 23 -23h60v-45h-239v45h53q23 0 23 23v142h-269v-142q0 -23 24 -23h53v-45h-239v45h60q24 0 24 23v394q0 22 -24 22h-60v46h239v-46h-53q-24 0 -24 -22v-206h269v206
q0 22 -23 22h-53v46h239v-46h-60z" />
    <glyph glyph-name="f_f_i.smcp" horiz-adv-x="1422" 
d="M479 530v-147h-47q-5 60 -15 75q-17 26 -63 26h-157v-228h101q8 0 14.5 2t11 3.5t8.5 7t5.5 8.5t3.5 11.5t2.5 11.5t2 13.5t1.5 13.5h40v-188h-40q0 4 -1 12.5t-2 12t-2 11t-2.5 10.5t-4 8.5t-6 7.5t-8 5t-10.5 4t-13 1h-101v-143q0 -23 24 -23h98v-45h-284v45h60
q24 0 24 23v394q0 22 -24 22h-60v46h444zM1013 530v-147h-47q-5 60 -15 75q-17 26 -63 26h-157v-228h101q8 0 14.5 2t11 3.5t8.5 7t5.5 8.5t3.5 11.5t2.5 11.5t2 13.5t1.5 13.5h40v-188h-40q0 4 -1 12.5t-2 12t-2 11t-2.5 10.5t-4 8.5t-6 7.5t-8 5t-10.5 4t-13 1h-101v-143
q0 -23 24 -23h98v-45h-284v45h60q24 0 24 23v394q0 22 -24 22h-60v46h444zM1309 484q-25 0 -25 -22v-394q0 -23 25 -23h68v-45h-264v45h69q24 0 24 23v394q0 22 -24 22h-69v46h264v-46h-68z" />
    <glyph glyph-name="f_f_j.smcp" horiz-adv-x="1476" 
d="M35 484v46h444v-147h-47q-5 60 -15 75q-17 26 -63 26h-157v-228h101q8 0 14.5 2t11 3.5t8.5 7t5.5 8.5t3.5 11.5t2.5 11.5t2 13.5t1.5 13.5h40v-188h-40q0 4 -1 12.5t-2 12t-2 11t-2.5 10.5t-4 8.5t-6 7.5t-8 5t-10.5 4t-13 1h-101v-143q0 -23 24 -23h98v-45h-284v45h60
q24 0 24 23v394q0 22 -24 22h-60zM569 484v46h444v-147h-47q-5 60 -15 75q-17 26 -63 26h-157v-228h101q8 0 14.5 2t11 3.5t8.5 7t5.5 8.5t3.5 11.5t2.5 11.5t2 13.5t1.5 13.5h40v-188h-40q0 4 -1 12.5t-2 12t-2 11t-2.5 10.5t-4 8.5t-6 7.5t-8 5t-10.5 4t-13 1h-101v-143
q0 -23 24 -23h98v-45h-284v45h60q24 0 24 23v394q0 22 -24 22h-60zM1138 530h323v-46h-61q-24 0 -24 -22v-315q0 -68 -48.5 -111.5t-125.5 -43.5q-71 0 -114 34t-43 79q0 24 14 39t36 15q21 0 35 -12.5t14 -31.5t-12.5 -32.5t-31.5 -15.5q22 -30 82 -30q53 0 84 31t31 79
v315q0 22 -24 22h-135v46z" />
    <glyph glyph-name="f_f_k.smcp" horiz-adv-x="1704" 
d="M479 530v-147h-47q-5 60 -15 75q-17 26 -63 26h-157v-228h101q8 0 14.5 2t11 3.5t8.5 7t5.5 8.5t3.5 11.5t2.5 11.5t2 13.5t1.5 13.5h40v-188h-40q0 4 -1 12.5t-2 12t-2 11t-2.5 10.5t-4 8.5t-6 7.5t-8 5t-10.5 4t-13 1h-101v-143q0 -23 24 -23h98v-45h-284v45h60
q24 0 24 23v394q0 22 -24 22h-60v46h444zM1013 530v-147h-47q-5 60 -15 75q-17 26 -63 26h-157v-228h101q8 0 14.5 2t11 3.5t8.5 7t5.5 8.5t3.5 11.5t2.5 11.5t2 13.5t1.5 13.5h40v-188h-40q0 4 -1 12.5t-2 12t-2 11t-2.5 10.5t-4 8.5t-6 7.5t-8 5t-10.5 4t-13 1h-101v-143
q0 -23 24 -23h98v-45h-284v45h60q24 0 24 23v394q0 22 -24 22h-60v46h444zM1103 0v45h60q24 0 24 23v394q0 22 -24 22h-60v46h239v-46h-53q-24 0 -24 -22v-394q0 -23 24 -23h48v-45h-234zM1410 0v45h63q27 0 7 23l-169 191l198 205q9 9 7 14.5t-13 5.5h-79v46h241v-46h-31
q-39 0 -62 -23l-178 -184l176 -202q26 -30 66 -30h48v-45h-274z" />
    <glyph glyph-name="f_f_l.smcp" horiz-adv-x="1605" 
d="M479 530v-147h-47q-5 60 -15 75q-17 26 -63 26h-157v-228h101q8 0 14.5 2t11 3.5t8.5 7t5.5 8.5t3.5 11.5t2.5 11.5t2 13.5t1.5 13.5h40v-188h-40q0 4 -1 12.5t-2 12t-2 11t-2.5 10.5t-4 8.5t-6 7.5t-8 5t-10.5 4t-13 1h-101v-143q0 -23 24 -23h98v-45h-284v45h60
q24 0 24 23v394q0 22 -24 22h-60v46h444zM1013 530v-147h-47q-5 60 -15 75q-17 26 -63 26h-157v-228h101q8 0 14.5 2t11 3.5t8.5 7t5.5 8.5t3.5 11.5t2.5 11.5t2 13.5t1.5 13.5h40v-188h-40q0 4 -1 12.5t-2 12t-2 11t-2.5 10.5t-4 8.5t-6 7.5t-8 5t-10.5 4t-13 1h-101v-143
q0 -23 24 -23h98v-45h-284v45h60q24 0 24 23v394q0 22 -24 22h-60v46h444zM1504 181h46v-181h-447v45h60q24 0 24 23v394q0 22 -24 22h-60v46h274v-46h-88q-24 0 -24 -22v-417h156q22 0 37 7t23 16.5t13 30.5t6.5 36t3.5 46z" />
    <glyph glyph-name="f_f_t.smcp" horiz-adv-x="1649" 
d="M479 530v-147h-47q-5 60 -15 75q-17 26 -63 26h-157v-228h101q8 0 14.5 2t11 3.5t8.5 7t5.5 8.5t3.5 11.5t2.5 11.5t2 13.5t1.5 13.5h40v-188h-40q0 4 -1 12.5t-2 12t-2 11t-2.5 10.5t-4 8.5t-6 7.5t-8 5t-10.5 4t-13 1h-101v-143q0 -23 24 -23h98v-45h-284v45h60
q24 0 24 23v394q0 22 -24 22h-60v46h444zM1013 530v-147h-47q-5 60 -15 75q-17 26 -63 26h-157v-228h101q8 0 14.5 2t11 3.5t8.5 7t5.5 8.5t3.5 11.5t2.5 11.5t2 13.5t1.5 13.5h40v-188h-40q0 4 -1 12.5t-2 12t-2 11t-2.5 10.5t-4 8.5t-6 7.5t-8 5t-10.5 4t-13 1h-101v-143
q0 -23 24 -23h98v-45h-284v45h60q24 0 24 23v394q0 22 -24 22h-60v46h444zM1599 530v-172h-46q-5 77 -14 96q-16 32 -63 33h-78v-419q0 -23 24 -23h84v-45h-294v45h84q23 0 23 23v419h-77q-21 0 -35 -6.5t-21.5 -13t-12 -26t-5.5 -29.5t-3 -40q-1 -9 -1 -14h-46v172h481z
" />
    <glyph glyph-name="f_h.smcp" horiz-adv-x="1198" 
d="M35 484v46h444v-147h-47q-5 60 -15 75q-17 26 -63 26h-157v-228h101q8 0 14.5 2t11 3.5t8.5 7t5.5 8.5t3.5 11.5t2.5 11.5t2 13.5t1.5 13.5h40v-188h-40q0 4 -1 12.5t-2 12t-2 11t-2.5 10.5t-4 8.5t-6 7.5t-8 5t-10.5 4t-13 1h-101v-143q0 -23 24 -23h98v-45h-284v45h60
q24 0 24 23v394q0 22 -24 22h-60zM1103 484q-23 0 -23 -22v-394q0 -23 23 -23h60v-45h-239v45h53q23 0 23 23v142h-269v-142q0 -23 24 -23h53v-45h-239v45h60q24 0 24 23v394q0 22 -24 22h-60v46h239v-46h-53q-24 0 -24 -22v-206h269v206q0 22 -23 22h-53v46h239v-46h-60z
" />
    <glyph glyph-name="f_j.smcp" horiz-adv-x="942" 
d="M35 484v46h444v-147h-47q-5 60 -15 75q-17 26 -63 26h-157v-228h101q8 0 14.5 2t11 3.5t8.5 7t5.5 8.5t3.5 11.5t2.5 11.5t2 13.5t1.5 13.5h40v-188h-40q0 4 -1 12.5t-2 12t-2 11t-2.5 10.5t-4 8.5t-6 7.5t-8 5t-10.5 4t-13 1h-101v-143q0 -23 24 -23h98v-45h-284v45h60
q24 0 24 23v394q0 22 -24 22h-60zM604 530h323v-46h-61q-24 0 -24 -22v-315q0 -68 -48.5 -111.5t-125.5 -43.5q-71 0 -114 34t-43 79q0 24 14 39t36 15q21 0 35 -12.5t14 -31.5t-12.5 -32.5t-31.5 -15.5q22 -30 82 -30q53 0 84 31t31 79v315q0 22 -24 22h-135v46z" />
    <glyph glyph-name="f_k.smcp" horiz-adv-x="1170" 
d="M479 530v-147h-47q-5 60 -15 75q-17 26 -63 26h-157v-228h101q8 0 14.5 2t11 3.5t8.5 7t5.5 8.5t3.5 11.5t2.5 11.5t2 13.5t1.5 13.5h40v-188h-40q0 4 -1 12.5t-2 12t-2 11t-2.5 10.5t-4 8.5t-6 7.5t-8 5t-10.5 4t-13 1h-101v-143q0 -23 24 -23h98v-45h-284v45h60
q24 0 24 23v394q0 22 -24 22h-60v46h444zM569 0v45h60q24 0 24 23v394q0 22 -24 22h-60v46h239v-46h-53q-24 0 -24 -22v-394q0 -23 24 -23h48v-45h-234zM876 0v45h63q27 0 7 23l-169 191l198 205q9 9 7 14.5t-13 5.5h-79v46h241v-46h-31q-39 0 -62 -23l-178 -184l176 -202
q26 -30 66 -30h48v-45h-274z" />
    <glyph glyph-name="f_t.smcp" horiz-adv-x="1115" 
d="M479 530v-147h-47q-5 60 -15 75q-17 26 -63 26h-157v-228h101q8 0 14.5 2t11 3.5t8.5 7t5.5 8.5t3.5 11.5t2.5 11.5t2 13.5t1.5 13.5h40v-188h-40q0 4 -1 12.5t-2 12t-2 11t-2.5 10.5t-4 8.5t-6 7.5t-8 5t-10.5 4t-13 1h-101v-143q0 -23 24 -23h98v-45h-284v45h60
q24 0 24 23v394q0 22 -24 22h-60v46h444zM1065 530v-172h-46q-5 77 -14 96q-16 32 -63 33h-78v-419q0 -23 24 -23h84v-45h-294v45h84q23 0 23 23v419h-77q-21 0 -35 -6.5t-21.5 -13t-12 -26t-5.5 -29.5t-3 -40q-1 -9 -1 -14h-46v172h481z" />
    </font>
</defs>
</svg>
