<?xml version="1.0" standalone="no"?>
<!DOCTYPE svg PUBLIC "-//W3C//DTD SVG 1.1//EN" "http://www.w3.org/Graphics/SVG/1.1/DTD/svg11.dtd" >
<svg xmlns="http://www.w3.org/2000/svg" xmlns:xlink="http://www.w3.org/1999/xlink" version="1.1">
<metadata>
Created by FontForge 20170731 at Thu Oct  6 08:27:58 2016
 By Aleksey,,,
Copyright (c) 2016 by Rene' Bieder. All rights reserved.
</metadata>
<defs>
<font id="Sagona-ThinItalic" horiz-adv-x="600" >
  <font-face 
    font-family="Sagona Thin"
    font-weight="250"
    font-style="italic"
    font-stretch="normal"
    units-per-em="1000"
    panose-1="2 1 0 4 4 1 1 1 1 3"
    ascent="800"
    descent="-200"
    x-height="506"
    cap-height="680"
    bbox="-269 -243 1696 924"
    underline-thickness="50"
    underline-position="-250"
    slope="-16"
    unicode-range="U+0020-FB02"
  />
<missing-glyph horiz-adv-x="704" 
d="M246 680h458l-195 -680h-458zM265 653l-174 -608l556 608h-382zM490 28l174 607l-557 -607h383z" />
    <glyph glyph-name="arrowleft" unicode="&#x3c;&#x2014;" horiz-adv-x="846" 
d="M340 574l12 -13l-210 -207q275 4 354 4h310v-30h-310q-79 0 -354 4l210 -206l-12 -13l-270 220v20z" />
    <glyph glyph-name="arrowright" unicode="&#x2d;&#x3e;" horiz-adv-x="846" 
d="M537 574l270 -221v-20l-270 -220l-12 13l210 206q-275 -4 -354 -4h-310v30h310q79 0 354 -4l-210 207z" />
    <glyph glyph-name="arrowboth" unicode="&#x3c;&#x2014;&#x3e;" horiz-adv-x="883" 
d="M574 574l270 -221v-20l-270 -220l-10 13l208 206q-67 -1 -111.5 -2t-57.5 -1.5t-32 -0.5h-53h-122h-53t-32 0.5t-57.5 1.5t-111.5 2l208 -206l-10 -13l-270 220v20l270 221l10 -13l-208 -207q67 1 111.5 2t57.5 1.5t32 0.5h53h122h53t32 -0.5t57.5 -1.5t111.5 -2
l-208 207z" />
    <glyph glyph-name="fi" unicode="fi" horiz-adv-x="539" 
d="M488 160h25q-30 -88 -61 -129t-72 -41q-40 0 -56.5 32.5t-1.5 82.5l105 368h-217l-152 -531q-18 -63 -55.5 -97t-91.5 -34q-41 0 -67 20t-26 52q0 20 10 30.5t26 10.5q14 0 23.5 -9t9.5 -22t-10 -22t-25 -9h-6q20 -27 62 -27q84 0 116 107l152 531h-90l7 27h68
q14 0 18.5 3.5t9.5 17.5l9 26q21 61 71.5 102t113.5 41q49 0 83.5 -20.5t34.5 -53.5q0 -19 -10.5 -29.5t-26.5 -10.5q-14 0 -23 9t-9 22t8.5 22t22.5 10q-23 28 -78 28q-51 0 -93 -33t-60 -88l-14 -46h251l-114 -399q-11 -33 -2.5 -57t34.5 -24q29 0 52 32.5t49 107.5z" />
    <glyph glyph-name="fl" unicode="fl" horiz-adv-x="552" 
d="M397 20q29 0 53.5 32t50.5 108h25q-30 -89 -62 -129.5t-73 -40.5q-42 0 -56.5 33t0.5 82l105 368h-230l-152 -531q-18 -63 -55.5 -97t-91.5 -34q-41 0 -67 20t-26 52q0 20 10 30.5t26 10.5q14 0 23.5 -9t9.5 -22t-10 -22t-25 -9h-6q20 -27 62 -27q84 0 116 107l152 531
h-90l7 27h68q14 0 18.5 3.5t9.5 17.5l9 26q21 61 71.5 102t113.5 41q38 0 68.5 -13t42.5 -35l28 38h12l-166 -578q-24 -82 29 -82zM218 500h230l22 76h-6q-14 0 -23 9t-9 22t8.5 22t22.5 10q-23 28 -78 28q-51 0 -93 -33t-60 -88z" />
    <glyph glyph-name="T_h" unicode="Th" horiz-adv-x="1136" 
d="M1085 160h25q-30 -89 -60.5 -129.5t-71.5 -40.5q-39 0 -57 32t-1 83l66 206q25 77 9.5 121t-68.5 44q-35 0 -68 -20.5t-61.5 -60t-53 -83t-48 -102.5t-39.5 -105.5t-34 -104.5h-39l181 629q4 15 1 19.5t-18 4.5h-245l-172 -602q-4 -15 -1 -19t18 -4h123l-8 -28h-329l8 28
h123q15 0 20.5 4t9.5 19l172 602h-77q-68 0 -114.5 -10.5t-69 -29t-31.5 -36t-12 -39.5q16 2 28 -7.5t12 -25.5q0 -14 -9.5 -23t-24.5 -9q-16 0 -26 11t-10 32t4 39.5t19.5 42.5t41.5 41t75.5 29t115.5 12h312q225 0 238 115q-17 -2 -29 7.5t-12 25.5q0 14 9.5 23t25.5 9
q35 0 35 -43q0 -125 -159 -155l-98 -341l-34 -97h6q111 283 252 283q66 0 91 -51t-4 -143l-70 -212q-12 -31 -3 -56t37 -25q52 0 99 140z" />
    <glyph glyph-name="f_b" unicode="fb" horiz-adv-x="807" 
d="M644 507q65 0 99 -45.5t34 -124.5q0 -82 -33.5 -161.5t-95 -132.5t-133.5 -53q-67 0 -99 47.5t-27 131.5h-3l-57 -169h-24l136 473h-231l-152 -531q-18 -63 -55.5 -97t-91.5 -34q-41 0 -67 20t-26 52q0 20 10 30.5t26 10.5q14 0 23.5 -9t9.5 -22t-10 -22t-25 -9h-6
q20 -27 62 -27q84 0 116 107l152 531h-90l7 27h68q14 0 18.5 3.5t9.5 17.5l9 26q21 61 71.5 102t113.5 41q41 0 72.5 -14.5t41.5 -39.5l25 44h12l-92 -313h3q38 68 90 104t109 36zM218 500h230l22 76h-6q-14 0 -23 9t-9 22t8.5 22t22.5 10q-23 28 -78 28q-51 0 -93 -33
t-60 -88zM514 19q62 0 116 50.5t83 124t29 144.5q0 66 -28.5 104t-79.5 38q-58 0 -111.5 -47.5t-84.5 -121.5t-31 -149q0 -66 26.5 -104.5t80.5 -38.5z" />
    <glyph glyph-name="f_f" unicode="ff" horiz-adv-x="586" 
d="M629 690q38 0 65.5 -21t27.5 -53q0 -17 -11 -28.5t-27 -11.5q-14 0 -22.5 9t-8.5 22q0 14 9.5 23t24.5 9h2q-18 26 -57 26q-42 0 -71.5 -27t-44.5 -72l-20 -66h148l-8 -27h-148l-152 -531q-38 -131 -147 -131q-41 0 -67 20.5t-26 52.5q0 18 10 29t26 11q14 0 23.5 -9
t9.5 -22t-10 -22t-25 -9h-6q20 -27 62 -27q84 0 116 107l152 531h-244l-152 -531q-38 -131 -147 -131q-41 0 -67 20.5t-26 52.5q0 18 10 29t26 11q14 0 23.5 -9t9.5 -22t-10 -22t-25 -9h-6q20 -27 62 -27q84 0 116 107l152 531h-90l7 27h68q14 0 18.5 3.5t9.5 17.5l15 46
q19 54 56 88.5t91 34.5q38 0 65.5 -21t27.5 -53q0 -17 -11 -28.5t-27 -11.5q-14 0 -22.5 9t-8.5 22q0 14 9.5 23t24.5 9h2q-18 26 -57 26q-42 0 -71.5 -27t-44.5 -72l-20 -66h221q14 0 18.5 3.5t9.5 17.5l15 46q19 54 56 88.5t91 34.5z" />
    <glyph glyph-name="f_f_b" unicode="ffb" horiz-adv-x="1085" 
d="M922 507q65 0 99 -45.5t34 -124.5q0 -82 -33.5 -161.5t-95 -132.5t-133.5 -53q-67 0 -99 47.5t-27 131.5h-3l-57 -169h-24l136 473h-231l-152 -531q-18 -63 -55.5 -97t-91.5 -34q-41 0 -67 20t-26 52q0 20 10 30.5t26 10.5q14 0 23.5 -9t9.5 -22t-10 -22t-25 -9h-6
q20 -27 62 -27q84 0 116 107l152 531h-244l-152 -531q-18 -63 -55.5 -97t-91.5 -34q-41 0 -67 20t-26 52q0 20 10 30.5t26 10.5q14 0 23.5 -9t9.5 -22t-10 -22t-25 -9h-6q20 -27 62 -27q84 0 116 107l152 531h-90l7 27h68q14 0 18.5 3.5t9.5 17.5l9 26q21 61 71.5 102
t113.5 41q49 0 83.5 -20.5t34.5 -53.5q0 -19 -10.5 -29.5t-26.5 -10.5q-14 0 -23 9t-9 22t8.5 22t22.5 10q-23 28 -78 28q-51 0 -93 -33t-60 -88l-14 -46h221q14 0 18.5 3.5t9.5 17.5l9 26q21 61 71.5 102t113.5 41q41 0 72.5 -14.5t41.5 -39.5l25 44h12l-92 -313h3
q38 68 90 104t109 36zM496 500h230l22 76h-6q-14 0 -23 9t-9 22t8.5 22t22.5 10q-23 28 -78 28q-51 0 -93 -33t-60 -88zM792 19q62 0 116 50.5t83 124t29 144.5q0 66 -28.5 104t-79.5 38q-58 0 -111.5 -47.5t-84.5 -121.5t-31 -149q0 -66 26.5 -104.5t80.5 -38.5z" />
    <glyph glyph-name="f_f_f" unicode="fff" horiz-adv-x="864" 
d="M907 690q38 0 65.5 -21t27.5 -53q0 -17 -11 -28.5t-27 -11.5q-14 0 -22.5 9t-8.5 22q0 14 9.5 23t24.5 9h2q-18 26 -57 26q-42 0 -71.5 -27t-44.5 -72l-20 -66h148l-8 -27h-148l-152 -531q-38 -131 -147 -131q-41 0 -67 20.5t-26 52.5q0 18 10 29t26 11q14 0 23.5 -9
t9.5 -22t-10 -22t-25 -9h-6q20 -27 62 -27q84 0 116 107l152 531h-244l-152 -531q-38 -131 -147 -131q-41 0 -67 20.5t-26 52.5q0 18 10 29t26 11q14 0 23.5 -9t9.5 -22t-10 -22t-25 -9h-6q20 -27 62 -27q84 0 116 107l152 531h-244l-152 -531q-38 -131 -147 -131
q-41 0 -67 20.5t-26 52.5q0 18 10 29t26 11q14 0 23.5 -9t9.5 -22t-10 -22t-25 -9h-6q20 -27 62 -27q84 0 116 107l152 531h-90l7 27h68q14 0 18.5 3.5t9.5 17.5l15 46q19 54 56 88.5t91 34.5q38 0 65.5 -21t27.5 -53q0 -17 -11 -28.5t-27 -11.5q-14 0 -22.5 9t-8.5 22
q0 14 9.5 23t24.5 9h2q-18 26 -57 26q-42 0 -71.5 -27t-44.5 -72l-20 -66h221q14 0 18.5 3.5t9.5 17.5l15 46q19 54 56 88.5t91 34.5q38 0 65.5 -21t27.5 -53q0 -17 -11 -28.5t-27 -11.5q-14 0 -22.5 9t-8.5 22q0 14 9.5 23t24.5 9h2q-18 26 -57 26q-42 0 -71.5 -27
t-44.5 -72l-20 -66h221q14 0 18.5 3.5t9.5 17.5l15 46q19 54 56 88.5t91 34.5z" />
    <glyph glyph-name="f_f_h" unicode="ffh" horiz-adv-x="1134" 
d="M1083 160h25q-30 -89 -60.5 -129.5t-71.5 -40.5q-39 0 -57 32t-1 83l66 206q25 77 9.5 121t-68.5 44q-35 0 -68 -20.5t-61.5 -60t-53 -83t-48 -102.5t-39.5 -105.5t-34 -104.5h-39l136 473h-230l-152 -531q-18 -63 -55.5 -97t-91.5 -34q-41 0 -67 20t-26 52q0 20 10 30.5
t26 10.5q14 0 23.5 -9t9.5 -22t-10 -22t-25 -9h-6q20 -27 62 -27q84 0 116 107l152 531h-244l-152 -531q-18 -63 -55.5 -97t-91.5 -34q-41 0 -67 20t-26 52q0 20 10 30.5t26 10.5q14 0 23.5 -9t9.5 -22t-10 -22t-25 -9h-6q20 -27 62 -27q84 0 116 107l152 531h-90l7 27h68
q14 0 18.5 3.5t9.5 17.5l9 26q21 61 71.5 102t113.5 41q49 0 83.5 -20.5t34.5 -53.5q0 -19 -10.5 -29.5t-26.5 -10.5q-14 0 -23 9t-9 22t8.5 22t22.5 10q-23 28 -78 28q-51 0 -93 -33t-60 -88l-14 -46h221q14 0 18.5 3.5t9.5 17.5l9 26q21 61 71.5 102t113.5 41
q38 0 68.5 -13t42.5 -35l28 38h12l-103 -359l-34 -97h6q111 283 252 283q66 0 91 -51t-4 -143l-70 -212q-10 -27 -1.5 -54t35.5 -27q52 0 99 140zM496 500h230l22 76h-6q-14 0 -23 9t-9 22t8.5 22t22.5 10q-23 28 -78 28q-51 0 -93 -33t-60 -88z" />
    <glyph glyph-name="f_f_i" unicode="ffi" horiz-adv-x="817" 
d="M766 160h25q-30 -88 -61 -129t-72 -41q-40 0 -56.5 32.5t-1.5 82.5l105 368h-217l-152 -531q-18 -63 -55.5 -97t-91.5 -34q-41 0 -67 20t-26 52q0 20 10 30.5t26 10.5q14 0 23.5 -9t9.5 -22t-10 -22t-25 -9h-6q20 -27 62 -27q84 0 116 107l152 531h-244l-152 -531
q-18 -63 -55.5 -97t-91.5 -34q-41 0 -67 20t-26 52q0 20 10 30.5t26 10.5q14 0 23.5 -9t9.5 -22t-10 -22t-25 -9h-6q20 -27 62 -27q84 0 116 107l152 531h-90l7 27h68q14 0 18.5 3.5t9.5 17.5l9 26q21 61 71.5 102t113.5 41q49 0 83.5 -20.5t34.5 -53.5q0 -19 -10.5 -29.5
t-26.5 -10.5q-14 0 -23 9t-9 22t8.5 22t22.5 10q-23 28 -78 28q-51 0 -93 -33t-60 -88l-14 -46h221q14 0 18.5 3.5t9.5 17.5l9 26q21 61 71.5 102t113.5 41q49 0 83.5 -20.5t34.5 -53.5q0 -19 -10.5 -29.5t-26.5 -10.5q-14 0 -23 9t-9 22t8.5 22t22.5 10q-23 28 -78 28
q-51 0 -93 -33t-60 -88l-14 -46h251l-114 -399q-11 -33 -2.5 -57t34.5 -24q29 0 52 32.5t49 107.5z" />
    <glyph glyph-name="f_f_j" unicode="ffj" horiz-adv-x="754" 
d="M710 607q0 13 8.5 22t22.5 10q-23 28 -78 28q-51 0 -93 -33t-60 -88l-14 -46h264l-162 -565q-16 -58 -53 -91t-90 -33q-39 0 -64 19.5t-25 53.5q0 19 10.5 30t26.5 11q14 0 22.5 -8.5t8.5 -21.5q0 -15 -10.5 -24t-26.5 -9q-3 0 -7 2q20 -28 64 -28q41 0 69 27t41 72
l154 538h-230l-152 -531q-18 -63 -55.5 -97t-91.5 -34q-41 0 -67 20t-26 52q0 20 10 30.5t26 10.5q14 0 23.5 -9t9.5 -22t-10 -22t-25 -9h-6q20 -27 62 -27q84 0 116 107l152 531h-244l-152 -531q-18 -63 -55.5 -97t-91.5 -34q-41 0 -67 20t-26 52q0 20 10 30.5t26 10.5
q14 0 23.5 -9t9.5 -22t-10 -22t-25 -9h-6q20 -27 62 -27q84 0 116 107l152 531h-90l7 27h68q14 0 18.5 3.5t9.5 17.5l9 26q21 61 71.5 102t113.5 41q49 0 83.5 -20.5t34.5 -53.5q0 -19 -10.5 -29.5t-26.5 -10.5q-14 0 -23 9t-9 22t8.5 22t22.5 10q-23 28 -78 28
q-51 0 -93 -33t-60 -88l-14 -46h221q14 0 18.5 3.5t9.5 17.5l9 26q21 61 71.5 102t113.5 41q49 0 83.5 -20.5t34.5 -53.5q0 -19 -10.5 -29.5t-26.5 -10.5q-14 0 -23 9t-9 22z" />
    <glyph glyph-name="f_f_k" unicode="ffk" horiz-adv-x="1073" 
d="M799 680h13l-195 -680h-34l135 473h-230l-152 -531q-18 -63 -55.5 -97t-91.5 -34q-41 0 -67 20t-26 52q0 20 10 30.5t26 10.5q14 0 23.5 -9t9.5 -22t-10 -22t-25 -9h-6q20 -27 62 -27q84 0 116 107l152 531h-244l-152 -531q-18 -63 -55.5 -97t-91.5 -34q-41 0 -67 20
t-26 52q0 20 10 30.5t26 10.5q14 0 23.5 -9t9.5 -22t-10 -22t-25 -9h-6q20 -27 62 -27q84 0 116 107l152 531h-90l7 27h68q14 0 18.5 3.5t9.5 17.5l9 26q21 61 71.5 102t113.5 41q49 0 83.5 -20.5t34.5 -53.5q0 -19 -10.5 -29.5t-26.5 -10.5q-14 0 -23 9t-9 22t8.5 22
t22.5 10q-23 28 -78 28q-51 0 -93 -33t-60 -88l-14 -46h221q14 0 18.5 3.5t9.5 17.5l9 26q21 61 71.5 102t113.5 41q38 0 68.5 -13t42.5 -35zM496 500h230l22 76h-6q-14 0 -23 9t-9 22t8.5 22t22.5 10q-23 28 -78 28q-51 0 -93 -33t-60 -88zM1001 458q0 16 12 23
q-27 0 -56.5 -25t-82.5 -75t-113 -88q81 -10 106.5 -55t21.5 -118q-1 -29 -1 -51.5t9.5 -35.5t28.5 -13q31 0 53.5 35t42.5 105h25q-24 -86 -55 -128t-77 -42q-39 0 -52 31t-10 94q2 33 -0.5 56t-12.5 49t-36 41t-68 19l-4 11q49 33 95 76.5t71 71.5t56.5 48t62.5 20
q54 0 54 -40q0 -17 -10.5 -28.5t-26.5 -11.5q-14 0 -23.5 9t-9.5 22z" />
    <glyph glyph-name="f_f_l" unicode="ffl" horiz-adv-x="830" 
d="M675 20q29 0 53.5 32t50.5 108h25q-30 -89 -62 -129.5t-73 -40.5q-42 0 -56.5 33t0.5 82l105 368h-230l-152 -531q-18 -63 -55.5 -97t-91.5 -34q-41 0 -67 20t-26 52q0 20 10 30.5t26 10.5q14 0 23.5 -9t9.5 -22t-10 -22t-25 -9h-6q20 -27 62 -27q84 0 116 107l152 531
h-244l-152 -531q-18 -63 -55.5 -97t-91.5 -34q-41 0 -67 20t-26 52q0 20 10 30.5t26 10.5q14 0 23.5 -9t9.5 -22t-10 -22t-25 -9h-6q20 -27 62 -27q84 0 116 107l152 531h-90l7 27h68q14 0 18.5 3.5t9.5 17.5l9 26q21 61 71.5 102t113.5 41q49 0 83.5 -20.5t34.5 -53.5
q0 -19 -10.5 -29.5t-26.5 -10.5q-14 0 -23 9t-9 22t8.5 22t22.5 10q-23 28 -78 28q-51 0 -93 -33t-60 -88l-14 -46h221q14 0 18.5 3.5t9.5 17.5l9 26q21 61 71.5 102t113.5 41q38 0 68.5 -13t42.5 -35l28 38h12l-166 -578q-24 -82 29 -82zM496 500h230l22 76h-6q-14 0 -23 9
t-9 22t8.5 22t22.5 10q-23 28 -78 28q-51 0 -93 -33t-60 -88z" />
    <glyph glyph-name="f_h" unicode="fh" horiz-adv-x="856" 
d="M805 160h25q-30 -89 -60.5 -129.5t-71.5 -40.5q-39 0 -57 32t-1 83l66 206q25 77 9.5 121t-68.5 44q-35 0 -68 -20.5t-61.5 -60t-53 -83t-48 -102.5t-39.5 -105.5t-34 -104.5h-39l136 473h-230l-152 -531q-18 -63 -55.5 -97t-91.5 -34q-41 0 -67 20t-26 52q0 20 10 30.5
t26 10.5q14 0 23.5 -9t9.5 -22t-10 -22t-25 -9h-6q20 -27 62 -27q84 0 116 107l152 531h-90l7 27h68q14 0 18.5 3.5t9.5 17.5l9 26q21 61 71.5 102t113.5 41q38 0 68.5 -13t42.5 -35l28 38h12l-103 -359l-34 -97h6q111 283 252 283q66 0 91 -51t-4 -143l-70 -212
q-10 -27 -1.5 -54t35.5 -27q52 0 99 140zM218 500h230l22 76h-6q-14 0 -23 9t-9 22t8.5 22t22.5 10q-23 28 -78 28q-51 0 -93 -33t-60 -88z" />
    <glyph glyph-name="f_j" unicode="fj" horiz-adv-x="476" 
d="M432 607q0 13 8.5 22t22.5 10q-23 28 -78 28q-51 0 -93 -33t-60 -88l-14 -46h264l-162 -565q-16 -58 -53 -91t-90 -33q-39 0 -64 19.5t-25 53.5q0 19 10.5 30t26.5 11q14 0 22.5 -8.5t8.5 -21.5q0 -15 -10.5 -24t-26.5 -9q-3 0 -7 2q20 -28 64 -28q41 0 69 27t41 72
l154 538h-230l-152 -531q-18 -63 -55.5 -97t-91.5 -34q-41 0 -67 20t-26 52q0 20 10 30.5t26 10.5q14 0 23.5 -9t9.5 -22t-10 -22t-25 -9h-6q20 -27 62 -27q84 0 116 107l152 531h-90l7 27h68q14 0 18.5 3.5t9.5 17.5l9 26q21 61 71.5 102t113.5 41q49 0 83.5 -20.5
t34.5 -53.5q0 -19 -10.5 -29.5t-26.5 -10.5q-14 0 -23 9t-9 22z" />
    <glyph glyph-name="f_k" unicode="fk" horiz-adv-x="795" 
d="M521 680h13l-195 -680h-34l135 473h-230l-152 -531q-18 -63 -55.5 -97t-91.5 -34q-41 0 -67 20t-26 52q0 20 10 30.5t26 10.5q14 0 23.5 -9t9.5 -22t-10 -22t-25 -9h-6q20 -27 62 -27q84 0 116 107l152 531h-90l7 27h68q14 0 18.5 3.5t9.5 17.5l9 26q21 61 71.5 102
t113.5 41q38 0 68.5 -13t42.5 -35zM218 500h230l22 76h-6q-14 0 -23 9t-9 22t8.5 22t22.5 10q-23 28 -78 28q-51 0 -93 -33t-60 -88zM723 458q0 16 12 23q-27 0 -56.5 -25t-82.5 -75t-113 -88q81 -10 106.5 -55t21.5 -118q-1 -29 -1 -51.5t9.5 -35.5t28.5 -13q31 0 53.5 35
t42.5 105h25q-24 -86 -55 -128t-77 -42q-39 0 -52 31t-10 94q2 33 -0.5 56t-12.5 49t-36 41t-68 19l-4 11q49 33 95 76.5t71 71.5t56.5 48t62.5 20q54 0 54 -40q0 -17 -10.5 -28.5t-26.5 -11.5q-14 0 -23.5 9t-9.5 22z" />
    <glyph glyph-name="f_t" unicode="ft" horiz-adv-x="616" 
d="M473 473l-101 -353q-14 -47 1 -73.5t48 -26.5q73 0 124 140h25q-59 -170 -154 -170q-48 0 -71.5 35.5t-6.5 95.5l102 352h-230l-152 -531q-38 -131 -147 -131q-41 0 -67 20.5t-26 52.5q0 18 10 29t26 11q14 0 23.5 -9t9.5 -22t-10 -22t-25 -9h-6q20 -27 62 -27
q84 0 116 107l152 531h-90l7 27h68q14 0 18.5 3.5t9.5 17.5l15 46q19 54 56 88.5t91 34.5q38 0 65.5 -21t27.5 -53q0 -17 -11 -28.5t-27 -11.5q-14 0 -22.5 9t-8.5 22q0 14 9.5 23t24.5 9h2q-18 26 -57 26q-42 0 -71.5 -27t-44.5 -72l-20 -66h230l43 100h19l-29 -100h187
l-8 -27h-187z" />
    <glyph glyph-name=".notdef" horiz-adv-x="704" 
d="M246 680h458l-195 -680h-458zM265 653l-174 -608l556 608h-382zM490 28l174 607l-557 -607h383z" />
    <glyph glyph-name=".null" horiz-adv-x="0" 
 />
    <glyph glyph-name="nonmarkingreturn" horiz-adv-x="333" 
 />
    <glyph glyph-name="space" unicode=" " horiz-adv-x="173" 
 />
    <glyph glyph-name="exclam" unicode="!" horiz-adv-x="241" 
d="M100 221q16 60 65 247t50 189q8 27 28 22q21 -7 12 -34q-7 -25 -59.5 -194t-73.5 -230h-22zM57 63q15 0 25 -9.5t10 -24.5q0 -16 -10 -26t-25 -10t-24.5 10.5t-9.5 25.5t9.5 24.5t24.5 9.5z" />
    <glyph glyph-name="quotedbl" unicode="&#x22;" horiz-adv-x="369" 
d="M130 402q16 60 32 121.5t26 99t12 44.5q3 19 18 19q16 0 16 -17q0 -5 -80 -267h-24zM304 402q16 60 32 121.5t26 99t12 44.5q3 19 18 19q16 0 16 -17q0 -5 -80 -267h-24z" />
    <glyph glyph-name="numbersign" unicode="#" 
d="M665 475h-114l-128 -260h127l-7 -25h-132l-94 -190h-27l94 190h-236l-94 -190h-27l94 190h-118l7 25h123l128 260h-136l7 25h141l89 180h27l-89 -180h236l89 180h27l-89 -180h109zM396 215l128 260h-236l-128 -260h236z" />
    <glyph glyph-name="dollar" unicode="$" horiz-adv-x="550" 
d="M426 684q60 -13 100.5 -48t40.5 -81q0 -50 -36 -50q-15 0 -24.5 8.5t-9.5 22.5q0 15 10.5 24.5t25.5 9.5h6q-7 33 -41 56t-80 32l-88 -304q34 -18 54.5 -31t44.5 -34.5t35 -47.5t11 -59q0 -79 -63 -136.5t-162 -57.5q-16 0 -24 1l-34 -118h-28l35 121q-73 14 -121 59.5
t-48 116.5q0 11 2.5 22.5t12 23t24.5 11.5t23 -9t8 -21q0 -15 -10.5 -25t-26.5 -10q-4 0 -7 1q4 -56 46 -93.5t105 -47.5l90 311q-37 19 -57.5 31.5t-46 33.5t-37.5 47.5t-12 59.5q0 78 65 132.5t162 54.5q10 0 28 -2l31 108h28zM307 366l84 295q-6 1 -19 1q-84 0 -137 -45
t-53 -108q0 -49 31.5 -79.5t93.5 -63.5zM438 176q0 48 -30.5 79.5t-87.5 62.5l-86 -301h14q88 0 139 48t51 111z" />
    <glyph glyph-name="percent" unicode="%" horiz-adv-x="1007" 
d="M543 353l-7 8q19 20 170.5 167.5t159.5 154.5q21 20 32 7q11 -12 -10 -30q-293 -266 -345 -307zM272 282q-76 0 -121 46.5t-45 118.5q0 95 66.5 169t158.5 74q75 0 120 -46.5t45 -118.5q0 -95 -66.5 -169t-157.5 -74zM271 306q77 0 134.5 69.5t57.5 153.5q0 61 -35 99
t-97 38q-78 0 -135.5 -69.5t-57.5 -152.5q0 -62 35 -100t98 -38zM728 -10q-76 0 -121 46.5t-45 118.5q0 95 66.5 169t158.5 74q75 0 120 -46.5t45 -118.5q0 -95 -66.5 -169t-157.5 -74zM727 14q77 0 134.5 69.5t57.5 153.5q0 61 -35 99t-97 38q-78 0 -135.5 -69.5
t-57.5 -152.5q0 -62 35 -100t98 -38zM146 -4q-10 12 10 30q3 2 82.5 73.5t161 144t95.5 82.5l7 -9q-17 -18 -166 -162.5t-158 -152.5q-21 -19 -32 -6z" />
    <glyph glyph-name="ampersand" unicode="&#x26;" horiz-adv-x="606" 
d="M607 360q0 -44 -40 -66t-97 -22h-10q48 -31 48 -95q0 -80 -69 -133.5t-164 -53.5q-101 0 -163.5 51t-62.5 136q0 87 72 147.5t174 62.5q-56 14 -86.5 52t-30.5 86q0 70 56.5 117.5t140.5 47.5q73 0 121 -37.5t48 -101.5q0 -27 -10.5 -46t-31.5 -19q-14 0 -24 8.5
t-10 22.5q0 18 16 27t34 5q-4 53 -44.5 83t-96.5 30q-70 0 -116.5 -40t-46.5 -99q0 -51 36 -86.5t98 -42.5l19 -2l-7 -23l-48 -2q-97 -4 -162 -57t-65 -131q0 -74 52.5 -118t139.5 -44q84 0 144 47.5t60 118.5q0 67 -49 91q-11 0 -37 2t-36 2q-34 0 -58.5 -13t-28.5 -39
q8 5 17 5q12 0 19.5 -8t7.5 -20q0 -13 -10 -21.5t-25 -8.5q-35 0 -35 41q0 42 39 63.5t97 21.5q17 0 54.5 -3t53.5 -3q40 0 64.5 14.5t26.5 37.5q-7 -3 -16 -3q-13 0 -20.5 8t-7.5 20q0 14 10 23.5t25 9.5q35 0 35 -43z" />
    <glyph glyph-name="quotesingle" unicode="'" horiz-adv-x="196" 
d="M130 402q16 60 32 121.5t26 99t12 44.5q3 19 18 19q16 0 16 -17q0 -5 -80 -267h-24z" />
    <glyph glyph-name="parenleft" unicode="(" horiz-adv-x="338" 
d="M181 -114q-124 91 -124 282q0 120 44 240.5t129.5 216t193.5 128.5l7 -25q-101 -35 -181 -127.5t-120 -206.5t-40 -226q0 -172 110 -261z" />
    <glyph glyph-name="parenright" unicode=")" horiz-adv-x="339" 
d="M197 753q124 -91 124 -282q0 -120 -44 -240.5t-129.5 -216t-193.5 -128.5l-7 25q101 35 181 127.5t120 206.5t40 226q0 172 -110 261z" />
    <glyph glyph-name="asterisk" unicode="*" horiz-adv-x="502" 
d="M187 472q-11 15 7 30q19 14 70 41t63 34l1 8q-12 8 -58 37.5t-68 45.5q-19 13 -8 29q12 16 29 2q54 -44 113 -101l8 2q23 127 29 148t25 16q19 -4 13 -27q-4 -15 -53 -140l5 -7q76 16 149 25q24 5 24 -16q1 -8 -4 -14t-17 -6q-48 -4 -151 -4l-4 -7q4 -8 34 -60t39 -75
q9 -21 -10 -29q-20 -8 -28 14q-12 28 -49 143l-10 3q-117 -94 -118 -95q-21 -15 -31 3z" />
    <glyph glyph-name="plus" unicode="+" horiz-adv-x="596" 
d="M294 285h-204l7 26h204l60 207h28l-59 -207h203l-7 -26h-204l-59 -208h-29z" />
    <glyph glyph-name="comma" unicode="," horiz-adv-x="201" 
d="M38 63q15 0 25 -10.5t10 -32.5q0 -52 -46 -101.5t-115 -63.5l-5 19q117 32 128 119q-32 7 -32 34q0 15 9.5 25.5t25.5 10.5z" />
    <glyph glyph-name="hyphen" unicode="-" horiz-adv-x="376" 
d="M68 277h256l-8 -29h-256z" />
    <glyph glyph-name="period" unicode="." horiz-adv-x="201" 
d="M37 63q15 0 24.5 -10t9.5 -25t-9.5 -25t-24.5 -10t-25 10.5t-10 25.5q0 14 10 24t25 10z" />
    <glyph glyph-name="slash" unicode="/" horiz-adv-x="398" 
d="M539 776h34l-664 -877h-34z" />
    <glyph glyph-name="zero" unicode="0" horiz-adv-x="610" 
d="M61 228q0 108 42 214t120.5 177t170.5 71q97 0 152.5 -65t55.5 -173t-42 -214t-120.5 -177t-171.5 -71q-97 0 -152 65t-55 173zM271 19q83 0 152.5 70.5t106 170.5t36.5 198q0 94 -45 149t-128 55q-84 0 -154 -70.5t-106.5 -170.5t-36.5 -197q0 -95 46 -150t129 -55z" />
    <glyph glyph-name="one" unicode="1" horiz-adv-x="436" 
d="M194 51q-5 -15 -2 -19t18 -4h147l-8 -28h-373l8 28h144q15 0 20.5 4t9.5 19l159 553q-52 -32 -165 -32l6 24q83 0 121 19t66 70h31z" />
    <glyph glyph-name="two" unicode="2" horiz-adv-x="548" 
d="M327 31q48 1 68 27t44 102h27l-45 -160h-422l6 22q14 9 41 27q216 139 305 215q161 140 161 258q0 65 -43 103t-116 38q-67 0 -115 -29.5t-70 -66.5q14 0 24.5 -8.5t10.5 -22.5t-11 -24.5t-25 -10.5q-15 0 -24.5 10t-9.5 25q0 44 62.5 99t162.5 55q86 0 138 -45.5
t52 -121.5q0 -39 -15 -78.5t-39 -74.5t-62 -72.5t-76.5 -68.5t-90 -66.5t-94.5 -63t-98 -62.5q-9 -5 -13 -8z" />
    <glyph glyph-name="three" unicode="3" horiz-adv-x="518" 
d="M525 529q0 -77 -64.5 -129t-158.5 -54q66 -11 103.5 -55t37.5 -104q0 -82 -65.5 -139.5t-160.5 -57.5q-84 0 -142 46.5t-58 116.5q0 55 38 55q13 0 22 -8t9 -22q0 -16 -11.5 -26t-29.5 -9q7 -58 54.5 -91.5t113.5 -33.5q86 0 140 50.5t54 120.5q0 64 -45.5 106t-124.5 42
h-31l8 26h78q82 0 139 48t57 118q0 62 -45.5 97.5t-116.5 35.5q-59 0 -100 -23.5t-60 -56.5q13 -1 22 -10t9 -23t-10 -23.5t-24 -9.5q-15 0 -24 11t-9 25q0 42 58 90t146 48q82 0 136.5 -45t54.5 -116z" />
    <glyph glyph-name="four" unicode="4" horiz-adv-x="542" 
d="M378 196l-42 -145q-5 -15 -2 -19t18 -4h83l-7 -28h-320l7 28h155q15 0 20.5 4t9.5 19l42 145h-337l8 28q177 141 252 239.5t85 193.5q6 33 29 33q18 0 18 -28q0 -86 -92.5 -200.5t-252.5 -237.5h298l52 181q25 47 43 95h20l-79 -276h129l-9 -28h-128z" />
    <glyph glyph-name="five" unicode="5" horiz-adv-x="528" 
d="M275 415q83 0 140 -54.5t57 -138.5q0 -95 -72.5 -163.5t-173.5 -68.5q-87 0 -143.5 52t-56.5 124q0 29 11 46.5t31 17.5q14 0 23 -8.5t9 -21.5q0 -20 -14.5 -29t-33.5 -6q5 -67 53 -107t118 -40q89 0 151 61.5t62 146.5q0 73 -47.5 118t-121.5 45q-67 0 -129 -37l-23 14
l111 308l25 6q113 -16 186 -16q68 0 144 17l2 -18q-70 -36 -163 -36q-85 0 -176 21l-97 -270q59 37 128 37z" />
    <glyph glyph-name="six" unicode="6" horiz-adv-x="571" 
d="M414 690q73 0 122.5 -39.5t49.5 -95.5q0 -24 -10.5 -38t-28.5 -14q-14 0 -24 9.5t-10 24.5q0 16 14 26t31 7q-7 40 -47 65.5t-97 25.5q-116 0 -198 -106.5t-115 -272.5q36 69 94.5 102t122.5 33q83 0 138 -50t55 -137q0 -98 -69 -169t-177 -71q-93 0 -149.5 59t-56.5 167
q0 74 26.5 156t71.5 153.5t113.5 118t143.5 46.5zM309 390q-89 0 -151.5 -61t-62.5 -145q0 -74 50 -119.5t124 -45.5q88 0 147 64t59 148q0 73 -47 116t-119 43z" />
    <glyph glyph-name="seven" unicode="7" horiz-adv-x="530" 
d="M618 690q17 0 17 -17q0 -16 -32.5 -39t-58.5 -32q-87 -71 -149 -134.5t-100 -113.5t-65 -110t-39.5 -104t-28.5 -115q-6 -29 -26 -29q-10 0 -15.5 8t-3.5 20q47 316 395 574q-57 -3 -103.5 12.5t-87 32.5t-80.5 17q-57 0 -81 -35q14 -1 21.5 -10.5t7.5 -21.5
q0 -14 -10 -23t-25 -9q-14 0 -23.5 9.5t-9.5 24.5q0 32 32.5 63.5t92.5 31.5q58 0 136.5 -37t145.5 -37q19 35 46.5 54.5t43.5 19.5z" />
    <glyph glyph-name="eight" unicode="8" horiz-adv-x="537" 
d="M535 534q0 -74 -56.5 -117t-146.5 -61q67 -36 104 -73t37 -95q0 -81 -71 -139t-168 -58q-87 0 -149.5 47.5t-62.5 124.5q0 78 63.5 130t162.5 66q-52 31 -80.5 65t-28.5 83q0 75 62.5 129t151.5 54q77 0 129.5 -42t52.5 -114zM305 371q197 41 197 163q0 60 -44.5 94.5
t-108.5 34.5q-73 0 -124.5 -43.5t-51.5 -103.5q0 -25 10 -46.5t31 -39.5t40 -30t51 -29zM437 180q0 36 -25 67.5t-46 45t-74 41.5q-9 5 -14 8q-97 -12 -159 -59t-62 -118q0 -66 53 -106.5t127 -40.5q82 0 141 48.5t59 113.5z" />
    <glyph glyph-name="nine" unicode="9" horiz-adv-x="572" 
d="M358 690q93 0 149.5 -59t56.5 -167q0 -74 -26.5 -156t-71.5 -153.5t-113.5 -118t-143.5 -46.5q-73 0 -122.5 39.5t-49.5 95.5q0 24 10.5 38t28.5 14q14 0 24 -9.5t10 -24.5q0 -16 -14 -26t-31 -7q7 -40 47 -65.5t97 -25.5q116 0 198 106.5t115 272.5q-36 -69 -94.5 -102
t-122.5 -33q-83 0 -138 50t-55 137q0 98 69 169t177 71zM314 290q89 0 151.5 61t62.5 145q0 74 -50 119.5t-124 45.5q-88 0 -147 -64t-59 -148q0 -73 47 -116t119 -43z" />
    <glyph glyph-name="colon" unicode=":" horiz-adv-x="201" 
d="M164 506q15 0 24.5 -10t9.5 -25t-9.5 -25t-24.5 -10t-25 10.5t-10 25.5q0 14 10 24t25 10zM37 63q15 0 24.5 -10t9.5 -25t-9.5 -25t-24.5 -10t-25 10.5t-10 25.5q0 14 10 24t25 10z" />
    <glyph glyph-name="semicolon" unicode=";" horiz-adv-x="208" 
d="M166 506q15 0 24.5 -10t9.5 -25t-9.5 -25t-24.5 -10t-25 10.5t-10 25.5q0 14 10 24t25 10zM38 63q15 0 25 -10.5t10 -32.5q0 -52 -46 -101.5t-115 -63.5l-5 19q117 32 128 119q-32 7 -32 34q0 15 9.5 25.5t25.5 10.5z" />
    <glyph glyph-name="less" unicode="&#x3c;" horiz-adv-x="597" 
d="M88 279l7 23l471 193l-9 -33l-432 -175l332 -176l-8 -26z" />
    <glyph glyph-name="equal" unicode="=" horiz-adv-x="596" 
d="M122 395l7 26h436l-7 -26h-436zM70 215l7 26h436l-7 -26h-436z" />
    <glyph glyph-name="greater" unicode="&#x3e;" horiz-adv-x="598" 
d="M532 301l-7 -23l-471 -193l9 33l432 175l-332 176l8 26z" />
    <glyph glyph-name="question" unicode="?" horiz-adv-x="484" 
d="M336 690q85 0 140 -44.5t55 -119.5q0 -52 -29 -99.5t-77.5 -82.5t-102.5 -60.5t-114 -43.5l-8 17q292 112 292 269q0 64 -45 100t-116 36q-64 0 -111.5 -28.5t-59.5 -71.5q13 1 23.5 -8.5t10.5 -24.5q0 -13 -10.5 -22t-25.5 -9q-14 0 -23.5 11t-9.5 28q0 58 60.5 105.5
t150.5 47.5zM191 63q15 0 24.5 -9.5t9.5 -24.5q0 -16 -9.5 -26t-24.5 -10t-25 10.5t-10 25.5t10 24.5t25 9.5z" />
    <glyph glyph-name="at" unicode="@" horiz-adv-x="858" 
d="M613 82q-53 0 -72 33.5t-8 72.5h-4q-18 -48 -57.5 -76.5t-89.5 -28.5q-57 0 -90.5 38.5t-33.5 108.5q0 96 58 177t147 81q47 0 76 -31.5t33 -88.5l29 114h30l-68 -252q-33 -123 55 -123q77 0 136.5 84.5t59.5 195.5q0 119 -88 198t-218 79q-182 0 -304.5 -127
t-122.5 -314q0 -138 91.5 -228t229.5 -90q149 0 275 86l9 -19q-131 -92 -286 -92q-149 0 -248.5 97.5t-99.5 245.5q0 196 131 330.5t325 134.5q142 0 238.5 -86t96.5 -215q0 -123 -70.5 -214t-159.5 -91zM391 107q44 0 78 26.5t51.5 67.5t26 80t8.5 73q0 50 -23 79t-65 29
q-53 0 -95 -37.5t-62.5 -90t-20.5 -106.5q0 -59 27 -90t75 -31z" />
    <glyph glyph-name="A" unicode="A" horiz-adv-x="712" 
d="M611 28h37l-8 -28h-231l8 28h87q18 0 25 6.5t5 23.5l-18 148h-349l-102 -147q-12 -17 -9.5 -24t21.5 -7h87l-8 -28h-228l8 28h38q34 0 58 34l433 618h27l81 -619q2 -19 10.5 -26t27.5 -7zM186 233h326l-49 400z" />
    <glyph glyph-name="B" unicode="B" 
d="M-35 0l6 28h84q16 0 21 3t9 17l167 578q5 16 2 21.5t-18 5.5h-83l7 27h263q87 0 140 -42t53 -108q0 -77 -62.5 -128t-161.5 -59q69 -8 110.5 -47t41.5 -103q0 -83 -75.5 -138t-188.5 -55h-315zM210 358h136q98 0 165.5 48.5t67.5 123.5q0 54 -44 88.5t-115 34.5h-124z
M116 27h160q100 0 165 48.5t65 119.5q0 63 -48 99.5t-120 36.5h-136z" />
    <glyph glyph-name="C" unicode="C" horiz-adv-x="687" 
d="M449 690q102 0 163 -51.5t61 -139.5q0 -59 -37 -59q-14 0 -23.5 8.5t-9.5 21.5q0 14 9.5 23.5t26.5 9.5h6v5q0 70 -53.5 111.5t-141.5 41.5q-95 0 -172.5 -56.5t-120.5 -151.5t-43 -207q0 -100 60 -163.5t152 -63.5q160 0 260 173h30q-108 -202 -293 -202
q-106 0 -176.5 74.5t-70.5 187.5q0 183 108 310.5t265 127.5z" />
    <glyph glyph-name="D" unicode="D" horiz-adv-x="703" 
d="M391 680q133 0 211 -73t78 -189q0 -171 -128.5 -294.5t-305.5 -123.5h-283l8 28h83q15 0 20 3.5t9 17.5l166 578q4 14 1 20t-17 6h-82l8 27h232zM254 28q158 0 272 114.5t114 272.5q0 105 -67.5 171.5t-186.5 66.5h-94l-179 -625h141z" />
    <glyph glyph-name="E" unicode="E" horiz-adv-x="631" 
d="M510 150h27l-43 -150h-530l8 28h79q15 0 20.5 4t9.5 19l166 578q4 15 1 19.5t-18 4.5h-79l8 27h530l-43 -150h-28q2 6 4 17q18 66 11 83q-9 23 -67 23h-276l-98 -343h185q9 0 16 1t13 3.5t10 4.5t8 8t6.5 8.5t6 11.5t5 12.5t5 15t5.5 16.5h24l-54 -189h-25q14 39 11 59.5
t-39 20.5h-185l-73 -254h276q58 0 77.5 20t39.5 82q4 13 6 20z" />
    <glyph glyph-name="F" unicode="F" horiz-adv-x="629" 
d="M689 680l-43 -150h-28q2 6 4 17q18 66 11 83q-9 23 -67 23h-276l-98 -343h185q33 0 45.5 15t25.5 53q1 4 2 7l2 6h24l-54 -189h-25q14 39 10.5 59.5t-38.5 20.5h-185l-66 -231q-5 -15 -2 -19t18 -4h127l-8 -28h-289l8 28h79q15 0 20.5 4t9.5 19l166 578q4 15 1 19.5
t-18 4.5h-79l8 27h530z" />
    <glyph glyph-name="G" unicode="G" horiz-adv-x="766" 
d="M402 279h315l-8 -28h-50q-15 0 -21 -4t-10 -19l-65 -228h-24l19 96q-92 -106 -229 -106q-114 0 -183 73t-69 202q0 108 47 204.5t134.5 158.5t194.5 62q99 0 159.5 -52t60.5 -142q0 -55 -35 -55q-15 0 -25 8.5t-10 21.5t10 22.5t26 9.5q5 0 7 -1v6q0 70 -53.5 111.5
t-138.5 41.5q-99 0 -178.5 -60.5t-120 -151.5t-40.5 -189q0 -116 59 -178.5t159 -62.5q148 0 239 132l22 77q4 15 1 19t-18 4h-182z" />
    <glyph glyph-name="H" unicode="H" horiz-adv-x="731" 
d="M588 680h231l-8 -27h-79q-15 0 -20 -4.5t-10 -19.5l-166 -578q-4 -15 -1 -19t18 -4h79l-8 -28h-231l8 28h69q15 0 20.5 4t9.5 19l67 234h-382l-67 -234q-5 -15 -2 -19t18 -4h69l-8 -28h-231l8 28h79q15 0 20.5 4t9.5 19l166 578q4 15 1 19.5t-18 4.5h-79l8 27h231l-8 -27
h-69q-15 0 -20 -4.5t-10 -19.5l-90 -316h382l91 316q4 15 1 19.5t-18 4.5h-69z" />
    <glyph glyph-name="I" unicode="I" horiz-adv-x="385" 
d="M350 653q-15 0 -20 -4.5t-10 -19.5l-166 -578q-4 -15 -1 -19t18 -4h105l-8 -28h-294l8 28h106q15 0 20.5 4t9.5 19l166 578q4 15 1 19.5t-18 4.5h-106l8 27h294l-8 -27h-105z" />
    <glyph glyph-name="J" unicode="J" horiz-adv-x="547" 
d="M300 680h357l-7 -27h-101q-15 0 -20 -4.5t-10 -19.5l-118 -405q-32 -114 -95.5 -173.5t-152.5 -59.5q-65 0 -109.5 35.5t-44.5 81.5q0 20 10 32t26 12q14 0 22.5 -8t8.5 -21q0 -14 -11.5 -22.5t-26.5 -9.5q5 -33 43 -52.5t79 -19.5q155 0 216 210l117 400q4 15 1 19.5
t-18 4.5h-174z" />
    <glyph glyph-name="K" unicode="K" horiz-adv-x="724" 
d="M-36 0l8 28h79q15 0 20.5 4t9.5 19l166 578q4 15 1 19.5t-18 4.5h-79l8 27h231l-8 -27h-69q-15 0 -20 -4.5t-10 -19.5l-165 -578q-5 -15 -2 -19t18 -4h69l-8 -28h-231zM340 0l8 28h104q12 0 15.5 6.5t-3.5 17.5l-182 280l361 299q25 22 -4 22h-116l8 27h273l-8 -27h-40
q-45 0 -77 -28l-354 -292l177 -271q13 -19 27 -26.5t40 -7.5h86l-8 -28h-307z" />
    <glyph glyph-name="L" unicode="L" horiz-adv-x="594" 
d="M488 169h27l-48 -169h-503l7 28h80q15 0 20.5 4t9.5 19l166 578q4 15 1 19.5t-18 4.5h-79l8 27h288l-8 -27h-126q-15 0 -20 -4.5t-10 -19.5l-172 -601h249q58 0 77.5 22t42.5 95q5 16 8 24z" />
    <glyph glyph-name="M" unicode="M" horiz-adv-x="876" 
d="M877 653q-15 0 -20 -4.5t-10 -19.5l-166 -578q-4 -15 -1 -19t18 -4h79l-8 -28h-231l8 28h69q15 0 20.5 4t9.5 19l169 589l-385 -453h-18l-132 452l-168 -588q-4 -15 -1 -19t18 -4h79l-8 -28h-235l8 28h79q15 0 20.5 4t9.5 19l166 578q4 15 1 19.5t-18 4.5h-79l8 27h147
l128 -445l378 445h152l-8 -27h-79z" />
    <glyph glyph-name="N" unicode="N" horiz-adv-x="756" 
d="M847 680l-8 -27h-87q-15 0 -20 -4.5t-10 -19.5l-180 -629h-18l-246 634l-167 -583q-4 -15 -1 -19t18 -4h79l-8 -28h-235l8 28h79q15 0 20.5 4t9.5 19l166 578q4 15 1 19.5t-18 4.5h-79l8 27h138l235 -610l160 559q5 15 2 19.5t-18 4.5h-79l8 27h242z" />
    <glyph glyph-name="O" unicode="O" horiz-adv-x="710" 
d="M319 -10q-106 0 -175 74t-70 187q0 74 24.5 150t69 141t116.5 106.5t157 41.5q106 0 175.5 -74t70.5 -187q0 -74 -24.5 -150t-69.5 -141t-117 -106.5t-157 -41.5zM322 17q78 0 142.5 40.5t104 103t61 134.5t20.5 139q-1 99 -60.5 164t-150.5 65q-63 0 -118 -26.5t-93 -70
t-65 -98.5t-39.5 -112t-12.5 -110q1 -99 60.5 -164t150.5 -65z" />
    <glyph glyph-name="P" unicode="P" horiz-adv-x="610" 
d="M430 680q94 0 151.5 -49.5t57.5 -129.5q0 -101 -86.5 -164.5t-210.5 -63.5h-161l-63 -221q-5 -15 -2 -19.5t18 -4.5h146l-8 -28h-308l8 28h80q15 0 20.5 4.5t9.5 19.5l166 577q4 15 0.5 19.5t-18.5 4.5h-79l8 27h271zM344 300q109 0 183.5 57t74.5 146q0 69 -47 109.5
t-128 40.5h-137l-101 -353h155z" />
    <glyph glyph-name="Q" unicode="Q" horiz-adv-x="707" 
d="M687 429q0 -74 -24.5 -150t-69.5 -141t-117 -106.5t-157 -41.5q-106 0 -175 74t-70 187q0 74 24.5 150t69 141t116.5 106.5t157 41.5q106 0 175.5 -74t70.5 -187zM111 246q1 -99 60.5 -164t150.5 -65q78 0 142.5 40.5t104 103t61 134.5t20.5 139q-1 99 -60.5 164
t-150.5 65q-63 0 -118 -26.5t-93 -70t-65 -98.5t-39.5 -112t-12.5 -110zM545 -95q15 0 25 -10t9 -24q-2 -22 -26.5 -40t-57.5 -18q-22 0 -44 11t-35.5 23t-34.5 34q-43 47 -61 57q-19 11 -39 11q-21 0 -38 -13q24 -2 24 -25q0 -14 -10 -23t-23 -9q-15 0 -23.5 9.5t-8.5 24.5
q0 24 22.5 40t56.5 16q32 0 59 -17t60 -53q2 -2 14 -15.5t15 -16.5t13.5 -12.5t17 -12.5t17 -6.5t20.5 -3.5q25 0 41 14q-26 3 -26 30q0 13 9.5 21t23.5 8z" />
    <glyph glyph-name="R" unicode="R" horiz-adv-x="672" 
d="M496 60q7 -18 19.5 -25t37.5 -7h74l-8 -28h-148l-61 188q-20 60 -46.5 79t-85.5 19h-93l-68 -235q-5 -15 -2 -19t19 -4h92l-8 -28h-255l8 28h79q16 0 21 4t10 19l166 578q5 14 1.5 19t-19.5 5h-78l8 27h268q98 0 157 -44.5t59 -125.5q0 -93 -79 -154t-196 -65
q28 -9 45 -32.5t36 -71.5zM192 313h154q110 0 184.5 55.5t74.5 141.5q0 69 -49 106t-133 37h-133z" />
    <glyph glyph-name="S" unicode="S" horiz-adv-x="550" 
d="M371 690q76 0 136 -39t60 -96q0 -50 -36 -50q-15 0 -24.5 8.5t-9.5 22.5q0 15 10.5 24.5t25.5 9.5h6q-9 42 -59 67t-108 25q-84 0 -137 -45t-53 -108q0 -32 16 -58t42 -44.5t57 -35t62.5 -34t57.5 -38t42 -50.5t16 -67q0 -79 -63 -136.5t-162 -57.5q-87 0 -151.5 47.5
t-68.5 132.5q0 11 2.5 22.5t12 23t24.5 11.5t23 -9t8 -21q0 -15 -10.5 -25t-26.5 -10h-4q5 -65 58.5 -104t130.5 -39q88 0 139 48t51 111q0 45 -30.5 79t-73.5 56t-86 45.5t-73.5 60t-30.5 86.5q0 78 65 132.5t162 54.5z" />
    <glyph glyph-name="T" unicode="T" horiz-adv-x="645" 
d="M718 680l-48 -169h-28q2 6 5 19q22 67 14.5 95t-66.5 28h-140l-172 -602q-4 -15 -1 -19t18 -4h123l-8 -28h-329l8 28h123q15 0 20.5 4t9.5 19l172 602h-139q-14 0 -25 -1.5t-19.5 -2.5t-16.5 -7t-13 -8.5t-11 -13t-9 -14t-8.5 -19.5t-7.5 -21t-8.5 -26t-9.5 -29h-27
l48 169h545z" />
    <glyph glyph-name="U" unicode="U" horiz-adv-x="681" 
d="M309 -10q-118 0 -177 73t-28 181l111 385q4 15 1 19.5t-18 4.5h-69l9 27h231l-9 -27h-78q-15 0 -20 -4.5t-10 -19.5l-112 -390q-27 -97 22.5 -158.5t149.5 -61.5q78 0 134.5 44.5t77.5 119.5l129 446q4 15 1 19.5t-18 4.5h-75l9 27h220l-8 -27h-69q-15 0 -20 -4.5
t-10 -19.5l-130 -450q-24 -86 -89.5 -137.5t-154.5 -51.5z" />
    <glyph glyph-name="V" unicode="V" horiz-adv-x="713" 
d="M610 680h226l-8 -27h-35q-34 0 -55 -30l-441 -623h-23l-85 622q-2 17 -11 24t-28 7h-34l8 27h231l-8 -27h-96q-11 0 -17.5 -8t-4.5 -19l74 -573l403 575q8 10 5.5 17.5t-13.5 7.5h-96z" />
    <glyph glyph-name="W" unicode="W" horiz-adv-x="1090" 
d="M982 680h231l-8 -27h-42q-35 0 -55 -30l-404 -623h-23l-34 601l-375 -601h-22l-54 624q-3 29 -39 29h-41l8 27h236l-8 -27h-87q-33 0 -30 -33l47 -552l346 554q9 14 5 22.5t-20 8.5h-88l8 27h276l-8 -27h-90q-16 0 -24.5 -9t-7.5 -23l34 -554l360 553q19 33 -12 33h-87z
" />
    <glyph glyph-name="X" unicode="X" horiz-adv-x="701" 
d="M580 680h229l-8 -27h-49q-35 0 -64 -28l-293 -283l117 -279q13 -35 49 -35h61l-8 -28h-246l8 28h74q14 0 20 8t2 20l-102 261l-266 -261q-13 -12 -11 -20t16 -8h72l-8 -28h-229l8 28h49q35 0 64 28l293 284l-119 278q-15 35 -50 35h-58l8 27h246l-8 -27h-77q-14 0 -20 -8
t-2 -20l105 -259l266 259q13 12 11 20t-16 8h-72z" />
    <glyph glyph-name="Y" unicode="Y" horiz-adv-x="641" 
d="M509 680h255l-8 -27h-56q-35 0 -61 -29l-294 -344l-66 -229q-5 -15 -2 -19t18 -4h79l-7 -28h-242l8 28h79q15 0 21 4t10 19l66 228l-94 346q-7 28 -43 28h-56l8 27h258l-8 -27h-93q-35 0 -27 -31l82 -314l269 314q26 31 -9 31h-95z" />
    <glyph glyph-name="Z" unicode="Z" horiz-adv-x="573" 
d="M638 680l-3 -12l-590 -641h326q42 0 60 26t41 100q4 14 7 22h28l-51 -175h-475l4 13l593 640h-324q-29 0 -47.5 -16.5t-26.5 -34t-25 -70.5q-6 -17 -9 -26h-27l50 174h469z" />
    <glyph glyph-name="bracketleft" unicode="[" horiz-adv-x="350" 
d="M265 776h215l-7 -26h-184l-236 -825h183l-7 -26h-215z" />
    <glyph glyph-name="backslash" unicode="\" horiz-adv-x="360" 
d="M156 776l127 -877h-28l-128 877h29z" />
    <glyph glyph-name="bracketright" unicode="]" horiz-adv-x="350" 
d="M135 -101h-215l7 26h184l236 825h-183l7 26h215z" />
    <glyph glyph-name="asciicircum" unicode="^" horiz-adv-x="378" 
d="M342 444l-37 204l-154 -204h-31l181 236h23l45 -236h-27z" />
    <glyph glyph-name="underscore" unicode="_" horiz-adv-x="394" 
d="M-99 -98h394l-8 -27h-394z" />
    <glyph glyph-name="grave" unicode="`" horiz-adv-x="242" 
d="M248 579h-17q-16 27 -35 71.5t-19 62.5q0 10 6.5 15.5t13.5 5.5q17 0 22 -19q12 -36 29 -136z" />
    <glyph glyph-name="a" unicode="a" horiz-adv-x="581" 
d="M166 -10q-66 0 -101 45.5t-35 126.5t33.5 160t95 132t131.5 53q66 0 99.5 -48t27.5 -138h4l50 179h34l-114 -389q-13 -43 -4 -67t38 -24t54 32.5t51 107.5h25q-31 -89 -63 -129.5t-75 -40.5q-42 0 -58 33t2 89l4 15h-3q-33 -63 -85.5 -100t-110.5 -37zM176 17
q59 0 111.5 47.5t82.5 120.5t30 148q0 67 -26.5 107.5t-80.5 40.5q-62 0 -116 -52t-83 -125t-29 -143q0 -67 29 -105.5t82 -38.5z" />
    <glyph glyph-name="b" unicode="b" horiz-adv-x="526" 
d="M362 507q65 0 99 -45.5t34 -124.5q0 -82 -33.5 -161.5t-95 -132.5t-133.5 -53q-67 0 -99 47.5t-27 131.5h-3l-57 -169h-24l180 629q4 15 1 19.5t-18 4.5h-71l8 27h129l-92 -313h3q38 68 90 104t109 36zM232 19q62 0 116 50.5t83 124t29 144.5q0 66 -28.5 104t-79.5 38
q-58 0 -111.5 -47.5t-84.5 -121.5t-31 -149q0 -66 26.5 -104.5t80.5 -38.5z" />
    <glyph glyph-name="c" unicode="c" horiz-adv-x="479" 
d="M296 507q70 0 113.5 -41t43.5 -99q0 -27 -11 -42t-29 -15q-14 0 -23.5 9t-9.5 22q0 14 11 23t28 9h8q-4 48 -39.5 77t-89.5 29q-95 0 -159 -87t-64 -197q0 -83 40 -130t104 -47q105 0 159 114h27q-33 -73 -83.5 -107.5t-108.5 -34.5q-76 0 -125 56t-49 151
q0 122 75.5 216t181.5 94z" />
    <glyph glyph-name="d" unicode="d" horiz-adv-x="581" 
d="M166 -10q-66 0 -101 45.5t-35 126.5t33.5 160t95 132t131.5 53q66 0 99.5 -48t27.5 -138h4l86 308q4 15 1 19.5t-18 4.5h-71l8 27h129l-165 -569q-12 -43 -3.5 -67t37.5 -24t54 32.5t51 107.5h25q-31 -89 -63 -129.5t-75 -40.5q-42 0 -58 33t2 89l4 15h-3
q-33 -63 -85.5 -100t-110.5 -37zM176 17q59 0 111.5 47.5t82.5 120.5t30 148q0 67 -26.5 106t-80.5 39q-92 0 -160 -103.5t-68 -213.5q0 -67 29 -105.5t82 -38.5z" />
    <glyph glyph-name="e" unicode="e" horiz-adv-x="452" 
d="M434 413q0 -43 -31 -78t-71.5 -55t-97.5 -35.5t-92 -21.5t-72 -10q-4 -23 -4 -51q0 -67 29 -105.5t88 -38.5q115 0 178 143h27q-76 -171 -209 -171q-74 0 -110.5 45.5t-36.5 124.5q0 82 35 160.5t101 132t146 53.5q54 0 87 -24.5t33 -68.5zM310 479q-88 0 -152.5 -74
t-84.5 -173q64 9 118 22.5t104 34t78.5 51.5t28.5 69q0 34 -24.5 52t-67.5 18z" />
    <glyph glyph-name="f" unicode="f" horiz-adv-x="308" 
d="M351 690q38 0 65.5 -21t27.5 -53q0 -17 -11 -28.5t-27 -11.5q-14 0 -22.5 9t-8.5 22q0 14 9.5 23t24.5 9h2q-18 26 -57 26q-42 0 -71.5 -27t-44.5 -72l-20 -66h148l-8 -27h-148l-152 -531q-38 -131 -147 -131q-41 0 -67 20.5t-26 52.5q0 18 10 29t26 11q14 0 23.5 -9
t9.5 -22t-10 -22t-25 -9h-6q20 -27 62 -27q84 0 116 107l152 531h-90l7 27h68q14 0 18.5 3.5t9.5 17.5l15 46q19 54 56 88.5t91 34.5z" />
    <glyph glyph-name="g" unicode="g" horiz-adv-x="513" 
d="M487 500h33l-144 -493q-25 -87 -95.5 -142t-154.5 -55q-74 0 -115 27.5t-41 68.5q0 20 11 32.5t27 12.5q14 0 23 -8.5t9 -21.5q0 -15 -11.5 -25t-29.5 -9q16 -52 125 -52q73 0 134.5 48t84.5 124l40 135h-2q-35 -61 -87 -94t-107 -33q-69 0 -110 46t-41 127
q0 121 76.5 220t182.5 99q70 0 107.5 -48t31.5 -138h2zM191 42q90 0 158 89.5t68 200.5q0 68 -29.5 107t-87.5 39q-93 0 -160.5 -93.5t-67.5 -198.5q0 -67 31.5 -105.5t87.5 -38.5z" />
    <glyph glyph-name="h" unicode="h" horiz-adv-x="575" 
d="M417 -10q-39 0 -57 32t-1 83l66 206q25 77 9.5 121t-68.5 44q-35 0 -68 -20.5t-61.5 -60t-53 -83t-48 -102.5t-39.5 -105.5t-34 -104.5h-39l181 629q4 15 1 19.5t-18 4.5h-71l8 27h129l-103 -359l-34 -97h6q111 283 252 283q66 0 91 -51t-4 -143l-70 -212q-12 -31 -3 -56
t37 -25q52 0 99 140h25q-30 -89 -60.5 -129.5t-71.5 -40.5z" />
    <glyph glyph-name="i" unicode="i" horiz-adv-x="301" 
d="M265 594q-15 0 -25 10t-10 24q0 15 10 25.5t25 10.5t24.5 -10t9.5 -25t-9.5 -25t-24.5 -10zM250 160h25q-30 -89 -61 -129.5t-72 -40.5q-40 0 -57.5 33t-0.5 82l102 292q13 35 5 57.5t-35 22.5q-29 0 -53.5 -32.5t-50.5 -107.5h-24q30 89 61.5 129.5t74.5 40.5
q41 0 56.5 -32.5t-1.5 -82.5l-102 -291q-12 -33 -3 -57t35 -24q29 0 52.5 33t48.5 107z" />
    <glyph glyph-name="j" unicode="j" horiz-adv-x="255" 
d="M263 664q15 0 24.5 -10t9.5 -25t-9.5 -25t-24.5 -10t-25 10t-10 24q0 15 10 25.5t25 10.5zM161 507q42 0 56.5 -31.5t-0.5 -83.5l-132 -457q-16 -57 -54 -90.5t-90 -33.5q-41 0 -67 21.5t-26 57.5q0 17 11 28.5t27 11.5q13 0 21.5 -9t8.5 -22q0 -14 -10.5 -23.5
t-26.5 -9.5h-4q19 -30 66 -30q81 0 110 99l133 462q24 80 -29 80q-29 0 -53.5 -32t-50.5 -108h-25q30 89 62 129.5t73 40.5z" />
    <glyph glyph-name="k" unicode="k" horiz-adv-x="497" 
d="M124 680h112l-195 -680h-34l180 629q4 15 1 19.5t-18 4.5h-54zM425 458q0 16 12 23q-27 0 -56.5 -25t-82.5 -75t-113 -88q81 -10 106.5 -55t21.5 -118q-1 -29 -1 -51.5t9.5 -35.5t28.5 -13q31 0 53.5 35t42.5 105h25q-24 -86 -55 -128t-77 -42q-39 0 -52 31t-10 94
q2 33 -0.5 56t-12.5 49t-36 41t-68 19l-4 11q49 33 95 76.5t71 71.5t56.5 48t62.5 20q54 0 54 -40q0 -17 -10.5 -28.5t-26.5 -11.5q-14 0 -23.5 9t-9.5 22z" />
    <glyph glyph-name="l" unicode="l" horiz-adv-x="270" 
d="M115 20q29 0 53.5 32t50.5 108h25q-30 -89 -62 -129.5t-73 -40.5q-42 0 -56.5 33t0.5 82l150 524q4 15 1 19.5t-18 4.5h-71l8 27h129l-166 -578q-24 -82 29 -82z" />
    <glyph glyph-name="m" unicode="m" horiz-adv-x="890" 
d="M839 160h25q-30 -89 -62 -129.5t-73 -40.5t-57 32t1 83l67 206q26 77 13 121t-65 44q-35 0 -68 -20.5t-61.5 -60t-52.5 -83t-47.5 -102.5t-39.5 -105.5t-34 -104.5h-37l98 311q26 77 13.5 121t-64.5 44q-30 0 -59 -17.5t-51.5 -41t-46.5 -68t-39.5 -78t-36.5 -92
t-31 -89.5t-28 -90h-35l114 392q25 85 -28 85q-29 0 -53.5 -32t-50.5 -108h-25q30 89 62 129.5t73 40.5t55 -32t-2 -83l-52 -161h3q25 62 47 105.5t51 85.5t64.5 63.5t75.5 21.5q66 0 88 -51.5t-10 -142.5l-32 -82h3q24 60 48 105.5t54 86.5t66.5 62.5t77.5 21.5
q64 0 86 -51t-7 -143l-70 -212q-13 -36 -5.5 -58.5t34.5 -22.5q29 0 53.5 32t50.5 108z" />
    <glyph glyph-name="n" unicode="n" horiz-adv-x="616" 
d="M566 160h24q-30 -89 -60.5 -129.5t-70.5 -40.5q-42 0 -59 32.5t-1 82.5l67 206q25 77 9.5 121t-68.5 44q-35 0 -68 -20.5t-61.5 -60t-53 -83t-48 -102.5t-39.5 -105.5t-34 -104.5h-35l114 392q25 85 -28 85q-30 0 -54 -32t-50 -108h-25q31 89 62 129.5t74 40.5
q42 0 55.5 -33t-3.5 -80l-54 -170h3q111 283 254 283q65 0 90 -51t-4 -143l-70 -212q-11 -29 -2 -55t35 -26q28 0 51.5 32t49.5 108z" />
    <glyph glyph-name="o" unicode="o" horiz-adv-x="494" 
d="M197 -9q-75 0 -119 48.5t-44 135.5q0 74 28.5 148t90.5 128.5t142 54.5q76 0 120.5 -48t44.5 -135q0 -75 -29.5 -149.5t-91.5 -128.5t-142 -54zM200 17q54 0 99 32t71.5 81t41 101t14.5 98q0 74 -36.5 113t-96.5 39q-54 0 -99 -31.5t-71.5 -80t-40.5 -100.5t-14 -99
q0 -74 36 -113.5t96 -39.5z" />
    <glyph glyph-name="p" unicode="p" horiz-adv-x="579" 
d="M-62 -180l8 27h61q15 0 20.5 4.5t10.5 19.5l150 512q13 40 4 67t-37 27q-29 0 -54 -32.5t-51 -107.5h-25q31 89 62.5 129.5t74.5 40.5q42 0 59 -32.5t0 -91.5l-5 -14h3q35 66 87 102t109 36q64 0 99 -45t35 -125q0 -82 -33.5 -161.5t-95 -132.5t-132.5 -53q-69 0 -101 49
t-26 134h-4l-85 -302q-4 -15 -1 -19.5t18 -4.5h91l-8 -27h-234zM286 19q62 0 115.5 50.5t82.5 123.5t29 145q0 66 -28.5 104t-79.5 38q-88 0 -157 -100.5t-69 -217.5q0 -66 26.5 -104.5t80.5 -38.5z" />
    <glyph glyph-name="q" unicode="q" horiz-adv-x="513" 
d="M326 -129q-4 -15 -1 -19.5t18 -4.5h54l-8 -27h-225l8 27h89q15 0 20 4.5t10 19.5l75 252h-6q-34 -63 -84.5 -98t-107.5 -35q-66 0 -102.5 45.5t-36.5 125.5q0 81 33.5 160t95.5 132.5t133 53.5q67 0 99.5 -49t26.5 -139h4l51 181h34zM178 17q89 0 155.5 99.5t66.5 214.5
q0 68 -26.5 107.5t-80.5 39.5q-62 0 -116 -51t-83 -123.5t-29 -142.5q0 -67 30.5 -105.5t82.5 -38.5z" />
    <glyph glyph-name="r" unicode="r" horiz-adv-x="434" 
d="M402 507q35 0 52.5 -14t17.5 -34q0 -17 -10.5 -29t-26.5 -12q-13 0 -22.5 8.5t-9.5 21.5q0 19 19 28q-11 3 -28 3q-156 0 -291 -479h-35l113 390q26 87 -27 87q-29 0 -53.5 -32t-50.5 -108h-25q30 89 62 129.5t73 40.5q42 0 56.5 -33.5t-3.5 -81.5l-56 -168h3
q63 160 118 221.5t124 61.5z" />
    <glyph glyph-name="s" unicode="s" horiz-adv-x="441" 
d="M271 507q62 0 110.5 -29t48.5 -77q0 -19 -9.5 -32.5t-25.5 -13.5q-14 0 -24 9t-10 22q0 15 13.5 24.5t27.5 7.5q-8 29 -46 46t-82 17q-58 0 -96.5 -30t-38.5 -76q0 -33 23 -56.5t56 -38.5t66 -31t56 -44t23 -67q0 -63 -52 -105.5t-123 -42.5q-68 0 -119.5 37.5
t-51.5 95.5q0 23 10.5 37t27.5 14q14 0 23 -8.5t9 -21.5q0 -15 -12.5 -25t-29.5 -8q4 -40 44.5 -67.5t94.5 -27.5q61 0 103 33t42 82q0 34 -23 58t-56 39t-66 30.5t-56 43t-23 67.5q0 61 48 99.5t118 38.5z" />
    <glyph glyph-name="t" unicode="t" horiz-adv-x="344" 
d="M201 473l-101 -353q-14 -47 1 -73.5t48 -26.5q73 0 124 140h25q-59 -170 -154 -170q-48 0 -71.5 35.5t-6.5 95.5l102 352h-94l8 27h94l43 100h19l-29 -100h187l-8 -27h-187z" />
    <glyph glyph-name="u" unicode="u" horiz-adv-x="616" 
d="M49 337h-24q30 89 60.5 129.5t70.5 40.5q42 0 59 -32.5t1 -82.5l-67 -206q-25 -77 -9.5 -121t68.5 -44q35 0 68 20.5t61.5 60t53 83t48 102.5t39.5 105.5t34 104.5h35l-114 -392q-25 -85 28 -85q30 0 54 32t50 108h25q-31 -89 -62 -129.5t-74 -40.5q-42 0 -55.5 33
t3.5 80l54 170h-3q-111 -283 -254 -283q-65 0 -90 51t4 143l70 212q11 29 2 55t-35 26q-28 0 -51.5 -32t-49.5 -108z" />
    <glyph glyph-name="v" unicode="v" horiz-adv-x="508" 
d="M423 507q33 0 54.5 -30t21.5 -81q0 -54 -26.5 -124.5t-68 -133t-97.5 -105.5t-110 -43q-49 0 -76 29t-27 75q0 49 47.5 177t47.5 161q0 45 -38 45q-28 0 -51.5 -32t-49.5 -108h-25q31 90 61.5 130t72.5 40q30 0 48 -19t18 -48q0 -36 -47.5 -164.5t-47.5 -174.5
q0 -37 19.5 -58.5t53.5 -21.5q60 0 125 67t104.5 156t39.5 155q0 47 -24 72q-7 -31 -34 -31q-14 0 -23 8.5t-9 23.5t12 25t29 10z" />
    <glyph glyph-name="w" unicode="w" horiz-adv-x="741" 
d="M647 507q33 0 54.5 -30.5t21.5 -91.5q0 -83 -36 -174t-101.5 -156t-138.5 -65q-48 0 -75 28.5t-27 75.5q0 29 23 103h-3q-79 -207 -196 -207q-45 0 -72.5 28t-27.5 72q0 55 60.5 184t60.5 161q0 18 -11 30t-27 12q-28 0 -52 -32.5t-50 -107.5h-25q57 170 136 170
q28 0 46 -19t18 -48q0 -40 -60 -167.5t-60 -175.5q0 -34 19 -55t51 -21q146 0 270 479h33q-13 -55 -40.5 -145t-45 -155t-17.5 -96q0 -38 21 -60.5t57 -22.5q59 0 116.5 60t92 146.5t34.5 166.5q0 54 -25 75q-7 -29 -33 -29q-14 0 -23 9t-9 23q0 15 11 25t30 10z" />
    <glyph glyph-name="x" unicode="x" horiz-adv-x="551" 
d="M505 507q30 0 45.5 -13.5t15.5 -31.5q0 -14 -9.5 -24t-23.5 -10q-12 0 -19.5 8.5t-7.5 20.5q0 16 13 24q-8 2 -15 2q-75 0 -143.5 -107.5t-81.5 -219.5q-7 -63 9.5 -99.5t55.5 -36.5q37 0 69.5 34.5t54.5 105.5h25q-56 -170 -157 -170q-52 0 -75.5 47.5t-6.5 141.5h-4
q-93 -189 -205 -189q-30 0 -45.5 13.5t-15.5 31.5q0 14 9.5 24t23.5 10q12 0 19.5 -8.5t7.5 -20.5q0 -16 -13 -24q2 0 7 -0.5t8 -0.5q50 0 100.5 53t83.5 128t41 145q7 63 -9.5 99.5t-55.5 36.5q-37 0 -69.5 -34.5t-54.5 -105.5h-25q56 170 157 170q52 0 75.5 -47.5
t6.5 -141.5h4q93 189 205 189z" />
    <glyph glyph-name="y" unicode="y" horiz-adv-x="586" 
d="M474 507q32 0 54.5 -32.5t22.5 -90.5q0 -74 -37 -173t-94.5 -188t-137 -151t-156.5 -62q-56 0 -102.5 29t-46.5 69q0 19 10 31t28 12q13 0 22 -7.5t9 -21.5q0 -15 -10.5 -24.5t-27.5 -10.5q12 -20 47.5 -36t72.5 -16q49 0 101 30q51 308 39 460t-93 152q-38 0 -65 -33
t-52 -107h-26q28 88 62 129t87 41q38 0 64 -20.5t39 -62t18 -93.5t0.5 -126t-13.5 -147t-24 -168q102 79 179 232t77 261q0 60 -23 85q-7 -28 -33 -28q-14 0 -23 9t-9 23t11 24.5t30 10.5z" />
    <glyph glyph-name="z" unicode="z" horiz-adv-x="425" 
d="M437 507q15 0 15 -21q0 -38 -44 -80q-25 -25 -52.5 -53t-39.5 -40.5t-28.5 -27.5t-33.5 -30q-108 -91 -197 -160q50 -32 72.5 -44.5t51.5 -22.5t59 -10q61 0 78 25q-16 1 -24 9.5t-8 20.5q0 13 9 21.5t23 8.5t23.5 -9.5t9.5 -25.5q0 -29 -30 -53.5t-91 -24.5
q-47 0 -83.5 18.5t-108.5 72.5q-2 -1 -4 -3q-6 -42 -19 -65t-27 -23q-15 0 -15 22q0 45 47 85l356 300q-58 36 -79 48t-51.5 23t-60.5 11q-60 0 -78 -25q31 0 31 -30q0 -13 -9 -21.5t-22 -8.5q-14 0 -23.5 9.5t-9.5 25.5q0 29 30 53.5t90 24.5q48 0 85 -19t114 -76l4 3
q-1 35 11.5 63.5t28.5 28.5z" />
    <glyph glyph-name="braceleft" unicode="{" horiz-adv-x="377" 
d="M268 632q20 76 75.5 109.5t164.5 34.5l-8 -27q-90 0 -135 -27t-63 -90l-53 -184q-29 -100 -123 -110v-2q88 -8 59 -109l-52 -185q-18 -62 11.5 -89.5t119.5 -27.5l-8 -27q-109 1 -144.5 34.5t-12.5 109.5l56 185q14 45 -4 71t-65 26h-45l8 26h45q47 0 79.5 26t44.5 72z
" />
    <glyph glyph-name="bar" unicode="|" horiz-adv-x="229" 
d="M251 776h28l-251 -877h-28z" />
    <glyph glyph-name="braceright" unicode="}" horiz-adv-x="377" 
d="M341 350h45l-8 -26h-45q-47 0 -79.5 -26t-44.5 -72l-50 -184q-20 -76 -75.5 -109.5t-164.5 -34.5l8 27q90 0 135 27t63 90l53 184q29 100 123 110v2q-88 8 -59 109l52 185q18 62 -11.5 89.5t-119.5 27.5l8 27q109 -1 144.5 -34.5t12.5 -109.5l-56 -185q-14 -45 4 -71
t65 -26z" />
    <glyph glyph-name="asciitilde" unicode="~" horiz-adv-x="588" 
d="M511 346q-32 -80 -106 -80q-39 0 -99 35t-93 35q-52 0 -78 -59l-21 9q32 80 106 80q40 0 102 -35.5t91 -35.5q50 0 76 58z" />
    <glyph glyph-name="exclamdown" unicode="&#xa1;" horiz-adv-x="241" 
d="M184 437q-15 0 -25 9.5t-10 24.5q0 16 10 26t25 10t24.5 -10.5t9.5 -25.5t-9.5 -24.5t-24.5 -9.5zM141 279q-16 -60 -65 -247t-50 -189q-8 -27 -28 -22q-21 7 -12 34q7 25 59.5 194t73.5 230h22z" />
    <glyph glyph-name="cent" unicode="&#xa2;" horiz-adv-x="479" 
d="M342 501q51 -13 81 -50t30 -84q0 -28 -11 -42.5t-29 -14.5q-14 0 -23.5 9t-9.5 22q0 14 11 23t28 9h8q-4 40 -29.5 67.5t-66.5 35.5l-178 -442q29 -16 66 -16q105 0 159 114h27q-33 -73 -83.5 -107.5t-108.5 -34.5q-39 0 -71 15l-35 -88h-27l39 94l2 6q-82 54 -82 180
q0 122 75.5 216t181.5 94q14 0 21 -1l33 83h29zM134 47l172 432h-8q-95 0 -159 -87t-64 -197q0 -102 59 -148z" />
    <glyph glyph-name="sterling" unicode="&#xa3;" horiz-adv-x="625" 
d="M423 689q76 0 130 -39t54 -98q0 -55 -39 -55q-15 0 -24.5 9t-9.5 24t11 23.5t28 8.5h7q-5 41 -49.5 70.5t-107.5 29.5q-94 0 -156 -59.5t-62 -147.5q0 -44 28 -120h292l-8 -28h-274q18 -52 18 -90q0 -65 -46 -128q35 -24 48.5 -32.5t43.5 -20t57 -11.5q31 0 59 12.5
t50 35.5t35.5 41t29.5 44l22 -7q-34 -67 -87.5 -114t-120.5 -47q-30 0 -61.5 12.5t-49.5 24.5t-48 36q-63 -73 -118 -73q-38 0 -63.5 21t-25.5 53q0 35 27.5 59t67.5 24q48 0 112 -42q30 48 30 96q0 39 -23 106h-122l8 28h104q-22 64 -22 111q0 102 73.5 172.5t181.5 70.5z
M77 16q47 0 97 62q-56 43 -93 43q-28 0 -46.5 -16.5t-18.5 -40.5q0 -20 17.5 -34t43.5 -14z" />
    <glyph glyph-name="currency" unicode="&#xa4;" horiz-adv-x="535" 
d="M583 567q8 -14 -10 -29q-44 -34 -138 -100q22 -33 22 -75q0 -84 -70 -139q56 -58 67 -76q15 -22 -2 -35t-32 8q-19 28 -51 89q-44 -26 -91 -26q-67 0 -105 43q-105 -88 -137 -111q-20 -16 -30 -2q-8 13 11 29q18 14 142 102q-20 32 -20 72q0 82 66 136q-56 60 -73 82
q-14 23 3 35t31 -8q4 -5 56 -96q44 30 97 30q63 0 101 -40q26 22 73 59.5t61 49.5q20 18 29 2zM280 211q60 0 104 44.5t44 104.5q0 48 -31 79t-81 31q-61 0 -104.5 -46t-43.5 -105q0 -47 31 -77.5t81 -30.5z" />
    <glyph glyph-name="yen" unicode="&#xa5;" horiz-adv-x="641" 
d="M511 680h253l-8 -27h-56q-35 0 -61 -29l-283 -324h203l-8 -28h-210l-24 -87h209l-8 -28h-209l-30 -106q-4 -15 -1 -19t18 -4h86l-8 -28h-256l8 28h86q15 0 21 4t10 19l30 106h-203l8 28h203l24 87h-202l8 28h196l-92 325q-8 28 -43 28h-56l8 27h258l-8 -27h-93
q-35 0 -27 -31l84 -306l267 306q12 14 9.5 22.5t-18.5 8.5h-93z" />
    <glyph glyph-name="brokenbar" unicode="&#xa6;" horiz-adv-x="229" 
d="M251 776h28l-106 -371h-28zM108 275h28l-108 -376h-28z" />
    <glyph glyph-name="section" unicode="&#xa7;" horiz-adv-x="543" 
d="M454 533q0 17 15 25.5t31 5.5q-5 48 -39.5 74.5t-84.5 26.5q-55 0 -90 -30.5t-35 -73.5q0 -33 24.5 -62t60 -50.5t71 -44.5t60 -55.5t24.5 -71.5q0 -47 -32 -78t-83 -45q3 -12 3 -27q0 -57 -44.5 -97t-111.5 -40q-65 0 -113 37.5t-48 94.5q0 28 11.5 43t29.5 15
q14 0 22.5 -8.5t8.5 -21.5q0 -16 -13.5 -25.5t-30.5 -6.5q6 -50 42.5 -76t88.5 -26q58 0 91 30.5t33 72.5q0 34 -24.5 63t-60 51t-71 45t-60 56t-24.5 73q0 89 115 122q-3 11 -3 24q0 57 45.5 97t111.5 40q63 0 107.5 -37t44.5 -91q0 -27 -11.5 -42t-28.5 -15
q-13 0 -22.5 7.5t-9.5 20.5zM457 268q0 32 -20 59t-50 47t-62 39t-60.5 44t-39.5 53q-86 -29 -86 -96q0 -32 19.5 -59t49.5 -47t61.5 -39t60 -44t40.5 -53q87 27 87 96z" />
    <glyph glyph-name="dieresis" unicode="&#xa8;" horiz-adv-x="334" 
d="M181 594q-15 0 -25 10t-10 24q0 15 10 25.5t25 10.5t24.5 -10t9.5 -25t-9.5 -25t-24.5 -10zM371 594q-15 0 -25 10t-10 24q0 15 10 25.5t25 10.5t24.5 -10t9.5 -25t-9.5 -25t-24.5 -10z" />
    <glyph glyph-name="copyright" unicode="&#xa9;" horiz-adv-x="787" 
d="M419 690q147 0 248 -100.5t101 -248.5q0 -149 -101 -250t-248 -101t-247.5 101t-100.5 250q0 147 100.5 248t247.5 101zM419 13q136 0 230.5 95.5t94.5 232.5q0 136 -94.5 231t-230.5 95q-134 0 -228.5 -95t-94.5 -231q0 -137 94.5 -232.5t228.5 -95.5zM552 413
q0 18 23 22q-8 33 -43.5 61t-96.5 28q-79 0 -126 -50t-47 -135q0 -83 46 -132.5t123 -49.5q113 0 148 118l22 -6q-15 -63 -59.5 -99.5t-111.5 -36.5q-88 0 -144.5 58t-56.5 148q0 91 57.5 150t144.5 59q77 0 125 -44t48 -85q0 -13 -8 -21.5t-19 -8.5t-18 7t-7 17z" />
    <glyph glyph-name="ordfeminine" unicode="&#xaa;" horiz-adv-x="554" 
d="M222 270q-55 0 -84.5 38t-29.5 107q0 104 60.5 188t147.5 84q58 0 85.5 -40.5t22.5 -116.5h3l42 151h33l-87 -308q-11 -32 -4 -54t32 -22q24 0 42.5 25.5t41.5 91.5h24q-26 -77 -51.5 -110.5t-62.5 -33.5t-51.5 29.5t-0.5 74.5l4 12h-2q-29 -55 -72.5 -85.5t-92.5 -30.5z
M232 295q72 0 123.5 76t51.5 172q0 118 -88 118q-74 0 -126 -78t-52 -169q0 -56 23.5 -87.5t67.5 -31.5zM56 156l8 26h418l-7 -26h-419z" />
    <glyph glyph-name="guillemotleft" unicode="&#xab;" horiz-adv-x="479" 
d="M193 77l-19 -15l-135 185l8 25l240 184l15 -20l-227 -180zM383 77l-19 -15l-135 185l8 25l240 184l15 -20l-227 -180z" />
    <glyph glyph-name="registered" unicode="&#xae;" horiz-adv-x="552" 
d="M334 690q101 0 168.5 -67.5t67.5 -168.5q0 -102 -67.5 -170t-168.5 -68q-100 0 -167.5 68t-67.5 170q0 101 67.5 168.5t167.5 67.5zM334 238q91 0 152.5 62t61.5 154q0 91 -61.5 153t-152.5 62t-152 -62t-61 -153q0 -92 61 -154t152 -62zM408 367q6 -11 22 -11h33v-19
h-69l-34 68q-10 20 -20.5 24.5t-36.5 4.5h-10v-69q0 -6 1.5 -7.5t7.5 -1.5h43v-19h-117v19h29q5 0 6.5 1.5t1.5 7.5v191q0 5 -1.5 6.5t-6.5 1.5h-29v19h112q40 0 65.5 -21.5t25.5 -53.5q0 -27 -19 -47t-50 -25q11 -8 25 -30zM293 453h45q29 0 47 16t18 39q0 24 -18 40
t-47 16h-45v-111z" />
    <glyph glyph-name="macron" unicode="&#xaf;" horiz-adv-x="384" 
d="M178 639h252l-9 -30h-252z" />
    <glyph glyph-name="degree" unicode="&#xb0;" horiz-adv-x="360" 
d="M255 393q-62 0 -100.5 38.5t-38.5 96.5q0 65 46 113.5t111 48.5q62 0 99.5 -38.5t37.5 -96.5q0 -68 -45.5 -115t-109.5 -47zM255 420q54 0 91 39.5t37 93.5q0 47 -31 78.5t-80 31.5q-53 0 -90.5 -39t-37.5 -93q0 -47 31 -79t80 -32z" />
    <glyph glyph-name="plusminus" unicode="&#xb1;" horiz-adv-x="597" 
d="M318 368h-204l8 26h204l50 175h28l-50 -175h204l-8 -26h-203l-51 -175h-29zM31 79l7 26h436l-7 -26h-436z" />
    <glyph glyph-name="uni00B2" unicode="&#xb2;" horiz-adv-x="362" 
d="M265 340q28 1 39 14.5t24 52.5h23l-27 -97h-243l4 18q7 4 37 24t41 28t38.5 27.5t40 30.5t34.5 29.5t32.5 32t22.5 31t17 33.5t5 32q0 33 -21.5 51t-58.5 18q-62 0 -93 -42q10 0 17.5 -7t7.5 -17q0 -11 -8 -18.5t-19 -7.5t-19 7.5t-8 19.5q0 28 36 59t92 31
q50 0 80.5 -26t30.5 -69q0 -29 -16.5 -59.5t-39 -54.5t-62 -53t-68 -46.5t-73.5 -44.5z" />
    <glyph glyph-name="uni00B3" unicode="&#xb3;" horiz-adv-x="336" 
d="M372 598q0 -43 -34 -69.5t-91 -28.5q40 -6 60.5 -30.5t20.5 -56.5q0 -45 -37.5 -76.5t-90.5 -31.5q-48 0 -82 25.5t-34 64.5q0 37 28 37q10 0 17 -7t7 -17q0 -11 -8 -18t-21 -7q6 -26 30.5 -40t55.5 -14q44 0 72 26t28 61q0 32 -23 52.5t-63 20.5h-17l6 25h41
q42 0 71 25.5t29 61.5q0 30 -20.5 47.5t-57.5 17.5q-56 0 -83 -33q21 -6 21 -24q0 -10 -7.5 -17.5t-18.5 -7.5q-25 0 -25 27t33 53t84 26q49 0 79 -25.5t30 -66.5z" />
    <glyph glyph-name="acute" unicode="&#xb4;" horiz-adv-x="242" 
d="M182 580q96 113 135 146q19 15 33 1t-4 -33q-10 -13 -59.5 -51.5t-84.5 -62.5h-20z" />
    <glyph glyph-name="paragraph" unicode="&#xb6;" horiz-adv-x="645" 
d="M464 680h264l-8 -27h-88q-15 0 -20.5 -4.5t-10.5 -19.5l-190 -666q-44 -153 -246 -153q-63 0 -94.5 19t-31.5 50q0 19 12.5 31.5t30.5 12.5q14 0 22.5 -8.5t8.5 -22.5q0 -15 -11 -25.5t-28 -11.5q17 -18 48 -18q46 0 76.5 29.5t50.5 96.5l98 346q-103 1 -161 37t-58 107
q0 107 83 167t253 60zM381 -37l198 690h-103l-198 -690q-26 -93 -78 -127q70 4 115.5 31t65.5 96z" />
    <glyph glyph-name="periodcentered" unicode="&#xb7;" horiz-adv-x="282" 
d="M170 385q15 0 24.5 -10t9.5 -25t-9.5 -25t-24.5 -10t-25 10.5t-10 25.5q0 14 10 24t25 10z" />
    <glyph glyph-name="cedilla" unicode="&#xb8;" horiz-adv-x="256" 
d="M2 -75q52 4 80.5 -15.5t28.5 -52.5q0 -36 -31 -60t-76 -24q-54 0 -92 31l14 20q36 -27 80 -27q33 0 54 16.5t21 42.5q0 28 -30 40.5t-80 5.5l-7 11l69 92h25z" />
    <glyph glyph-name="uni00B9" unicode="&#xb9;" horiz-adv-x="276" 
d="M195 339q-2 -8 0 -11t10 -3h77l-7 -22h-212l6 22h76q8 0 11 2.5t5 11.5l82 284q-29 -14 -86 -14l4 19q46 1 67.5 11.5t36.5 40.5h28z" />
    <glyph glyph-name="ordmasculine" unicode="&#xba;" horiz-adv-x="472" 
d="M260 270q-64 0 -106 39t-42 118q0 102 66.5 180.5t161.5 78.5q67 0 108.5 -42t41.5 -119q0 -101 -67 -178t-163 -77zM258 295q83 0 141 72t58 163q0 65 -31.5 98.5t-84.5 33.5q-82 0 -139.5 -74t-57.5 -165q0 -65 31.5 -96.5t82.5 -31.5zM46 156l8 26h331l-8 -26h-331z
" />
    <glyph glyph-name="guillemotright" unicode="&#xbb;" horiz-adv-x="479" 
d="M101 441l19 15l135 -185l-8 -25l-240 -184l-15 20l227 180zM291 441l19 15l135 -185l-8 -25l-240 -184l-15 20l227 180z" />
    <glyph glyph-name="onequarter" unicode="&#xbc;" horiz-adv-x="701" 
d="M762 695q14 0 14 -14q0 -12 -156 -151.5t-203 -176.5l-7 8q55 60 196 197t156 137zM255 325l-7 -22h-212l6 22h76q8 0 11 2.5t5 11.5l82 284q-29 -14 -86 -14l4 19q46 1 67.5 11.5t36.5 40.5h28l-98 -341q-2 -8 0 -11t10 -3h77zM621 275l-42 -146h68l-7 -24h-68l-19 -67
q-3 -8 -1 -11t10 -3h42l-6 -24h-183l7 24h78q13 0 18 14l19 67h-180l7 24q90 73 126.5 122t47.5 101q6 28 26 28q15 0 15 -20q0 -96 -193 -231h158l26 91q23 27 33 55h18zM369 326l7 -9q-76 -72 -142.5 -137t-98 -96.5t-57 -55.5t-34.5 -31t-14 -7t-9.5 4.5t-4.5 10.5
q0 15 154 151.5t199 169.5z" />
    <glyph glyph-name="onehalf" unicode="&#xbd;" horiz-adv-x="714" 
d="M734 695q14 0 14 -14q0 -12 -156 -151.5t-203 -176.5l-7 8q55 60 196 197t156 137zM255 325l-7 -22h-212l6 22h76q8 0 11 2.5t5 11.5l82 284q-29 -14 -86 -14l4 19q46 1 67.5 11.5t36.5 40.5h28l-98 -341q-2 -8 0 -11t10 -3h77zM688 285q0 -29 -16.5 -59.5t-39 -54.5
t-62 -53t-68 -46.5t-73.5 -44.5l134 3q28 1 39 14.5t24 52.5h23l-27 -97h-243l4 18q7 4 37 24t41 28t38.5 27.5t40 30.5t34.5 29.5t32.5 32t22.5 31t17 33.5t5 32q0 33 -21.5 51t-58.5 18q-62 0 -93 -42q10 0 17.5 -7t7.5 -17q0 -11 -8 -18.5t-19 -7.5t-19 7.5t-8 19.5
q0 28 36 59t92 31q50 0 80.5 -26t30.5 -69zM-12 5q0 15 154 151.5t199 169.5l7 -9q-76 -72 -142.5 -137t-98 -96.5t-57 -55.5t-34.5 -31t-14 -7t-9.5 4.5t-4.5 10.5z" />
    <glyph glyph-name="threequarters" unicode="&#xbe;" horiz-adv-x="712" 
d="M778 695q14 0 14 -14q0 -12 -156 -151.5t-203 -176.5l-7 8q55 60 196 197t156 137zM180 305q-48 0 -82 25.5t-34 64.5q0 37 28 37q10 0 17 -7t7 -17q0 -11 -8 -18t-21 -7q6 -26 30.5 -40t55.5 -14q44 0 72 26t28 61q0 32 -23 52.5t-63 20.5h-17l6 25h41q42 0 71 25.5
t29 61.5q0 30 -20.5 47.5t-57.5 17.5q-56 0 -83 -33q21 -6 21 -24q0 -10 -7.5 -17.5t-18.5 -7.5q-25 0 -25 27t33 53t84 26q49 0 79 -25.5t30 -66.5q0 -43 -34 -69.5t-91 -28.5q40 -6 60.5 -30.5t20.5 -56.5q0 -45 -37.5 -76.5t-90.5 -31.5zM632 275l-42 -146h68l-7 -24h-68
l-19 -67q-3 -8 -1 -11t10 -3h42l-6 -24h-183l7 24h78q13 0 18 14l19 67h-180l7 24q90 73 126.5 122t47.5 101q6 28 26 28q15 0 15 -20q0 -96 -193 -231h158l26 91q23 27 33 55h18zM385 326l7 -9q-76 -72 -142.5 -137t-98 -96.5t-57 -55.5t-34.5 -31t-14 -7t-9.5 4.5
t-4.5 10.5q0 15 154 151.5t199 169.5z" />
    <glyph glyph-name="questiondown" unicode="&#xbf;" horiz-adv-x="484" 
d="M293 437q-15 0 -24.5 9.5t-9.5 24.5q0 16 9.5 26t24.5 10t25 -10.5t10 -25.5t-10 -24.5t-25 -9.5zM326 2q14 0 23.5 -11t9.5 -28q0 -58 -60.5 -105.5t-150.5 -47.5q-85 0 -140 44.5t-55 119.5q0 52 29 99.5t77.5 82.5t102.5 60.5t114 43.5l8 -17q-292 -112 -292 -269
q0 -64 45 -100t116 -36q64 0 111.5 28.5t59.5 71.5q-13 -1 -23.5 8.5t-10.5 24.5q0 13 10.5 22t25.5 9z" />
    <glyph glyph-name="Agrave" unicode="&#xc0;" horiz-adv-x="712" 
d="M502 759h-17q-16 27 -35 71.5t-19 62.5q0 10 6.5 15.5t13.5 5.5q17 0 22 -19q12 -36 29 -136zM611 28h37l-8 -28h-231l8 28h87q18 0 25 6.5t5 23.5l-18 148h-349l-102 -147q-12 -17 -9.5 -24t21.5 -7h87l-8 -28h-228l8 28h38q34 0 58 34l433 618h27l81 -619
q2 -19 10.5 -26t27.5 -7zM186 233h326l-49 400z" />
    <glyph glyph-name="Aacute" unicode="&#xc1;" horiz-adv-x="712" 
d="M667 907q14 -14 -4 -33q-10 -13 -59.5 -51.5t-84.5 -62.5h-20q96 113 135 146q19 15 33 1zM573 61q2 -19 10.5 -26t27.5 -7h37l-8 -28h-231l8 28h87q18 0 25 6.5t5 23.5l-18 148h-349l-102 -147q-12 -17 -9.5 -24t21.5 -7h87l-8 -28h-228l8 28h38q34 0 58 34l433 618h27z
M186 233h326l-49 400z" />
    <glyph glyph-name="Acircumflex" unicode="&#xc2;" horiz-adv-x="712" 
d="M535 866l-133 -106h-24l148 143q11 11 19 11q7 0 13 -11l67 -143h-19zM611 28h37l-8 -28h-231l8 28h87q18 0 25 6.5t5 23.5l-18 148h-349l-102 -147q-12 -17 -9.5 -24t21.5 -7h87l-8 -28h-228l8 28h38q34 0 58 34l433 618h27l81 -619q2 -19 10.5 -26t27.5 -7zM186 233
h326l-49 400z" />
    <glyph glyph-name="Atilde" unicode="&#xc3;" horiz-adv-x="712" 
d="M448 826q-38 0 -61 -58l-21 8q26 81 87 81q25 0 49 -17.5t45 -35.5t40 -18q37 0 57 57l22 -6q-26 -81 -86 -81q-31 0 -70 35t-62 35zM573 61q2 -19 10.5 -26t27.5 -7h37l-8 -28h-231l8 28h87q18 0 25 6.5t5 23.5l-18 148h-349l-102 -147q-12 -17 -9.5 -24t21.5 -7h87
l-8 -28h-228l8 28h38q34 0 58 34l433 618h27zM186 233h326l-49 400z" />
    <glyph glyph-name="Adieresis" unicode="&#xc4;" horiz-adv-x="712" 
d="M421 774q-15 0 -25 10t-10 24q0 15 10 25.5t25 10.5t24.5 -10t9.5 -25t-9.5 -25t-24.5 -10zM611 774q-15 0 -25 10t-10 24q0 15 10 25.5t25 10.5t24.5 -10t9.5 -25t-9.5 -25t-24.5 -10zM611 28h37l-8 -28h-231l8 28h87q18 0 25 6.5t5 23.5l-18 148h-349l-102 -147
q-12 -17 -9.5 -24t21.5 -7h87l-8 -28h-228l8 28h38q34 0 58 34l433 618h27l81 -619q2 -19 10.5 -26t27.5 -7zM186 233h326l-49 400z" />
    <glyph glyph-name="Aring" unicode="&#xc5;" horiz-adv-x="712" 
d="M510 740q-38 0 -61 22.5t-23 56.5q0 45 31.5 75t74.5 30q37 0 60.5 -22.5t23.5 -56.5q0 -44 -32 -74.5t-74 -30.5zM530 901q-32 0 -55 -24.5t-23 -55.5q0 -24 16.5 -40.5t43.5 -16.5q31 0 54.5 23.5t23.5 56.5q0 25 -16.5 41t-43.5 16zM611 28h37l-8 -28h-231l8 28h87
q18 0 25 6.5t5 23.5l-18 148h-349l-102 -147q-12 -17 -9.5 -24t21.5 -7h87l-8 -28h-228l8 28h38q34 0 58 34l433 618h27l81 -619q2 -19 10.5 -26t27.5 -7zM186 233h326l-49 400z" />
    <glyph glyph-name="AE" unicode="&#xc6;" horiz-adv-x="978" 
d="M458 680h548l-43 -150h-28q2 6 4 17q18 66 11 83q-9 23 -67 23h-246l-98 -343h185q9 0 16 1t13 3.5t10 4.5t8 8t6.5 8.5t6 11.5t5 12.5t5 15t5.5 16.5h24l-54 -189h-25q14 39 11 59.5t-39 20.5h-185l-73 -254h276q58 0 77.5 20t39.5 82q4 13 6 20h27l-43 -150h-532l8 28
h81q15 0 20.5 4t9.5 19l45 155h-272l-136 -147q-28 -31 12 -31h88l-8 -28h-229l8 28h37q19 0 29 6.5t29 27.5l530 571q20 20 -13 20h-98zM480 233l114 396l-368 -396h254z" />
    <glyph glyph-name="Ccedilla" unicode="&#xc7;" horiz-adv-x="687" 
d="M449 690q102 0 163 -51.5t61 -139.5q0 -59 -37 -59q-14 0 -23.5 8.5t-9.5 21.5q0 14 9.5 23.5t26.5 9.5h6v5q0 70 -53.5 111.5t-141.5 41.5q-95 0 -172.5 -56.5t-120.5 -151.5t-43 -207q0 -100 60 -163.5t152 -63.5q160 0 260 173h30q-108 -202 -293 -202h-10l-46 -65
q52 4 80.5 -15.5t28.5 -52.5q0 -36 -31 -60t-76 -24q-54 0 -92 31l14 20q36 -27 80 -27q33 0 54 16.5t21 42.5q0 28 -30 40.5t-80 5.5l-7 11l59 79q-93 13 -152.5 85t-59.5 175q0 183 108 310.5t265 127.5z" />
    <glyph glyph-name="Egrave" unicode="&#xc8;" horiz-adv-x="631" 
d="M463 759h-17q-16 27 -35 71.5t-19 62.5q0 10 6.5 15.5t13.5 5.5q17 0 22 -19q12 -36 29 -136zM510 150h27l-43 -150h-530l8 28h79q15 0 20.5 4t9.5 19l166 578q4 15 1 19.5t-18 4.5h-79l8 27h530l-43 -150h-28q2 6 4 17q18 66 11 83q-9 23 -67 23h-276l-98 -343h185
q9 0 16 1t13 3.5t10 4.5t8 8t6.5 8.5t6 11.5t5 12.5t5 15t5.5 16.5h24l-54 -189h-25q14 39 11 59.5t-39 20.5h-185l-73 -254h276q58 0 77.5 20t39.5 82q4 13 6 20z" />
    <glyph glyph-name="Eacute" unicode="&#xc9;" horiz-adv-x="631" 
d="M460 760q96 113 135 146q19 15 33 1t-4 -33q-10 -13 -59.5 -51.5t-84.5 -62.5h-20zM510 150h27l-43 -150h-530l8 28h79q15 0 20.5 4t9.5 19l166 578q4 15 1 19.5t-18 4.5h-79l8 27h530l-43 -150h-28q2 6 4 17q18 66 11 83q-9 23 -67 23h-276l-98 -343h185q9 0 16 1
t13 3.5t10 4.5t8 8t6.5 8.5t6 11.5t5 12.5t5 15t5.5 16.5h24l-54 -189h-25q14 39 11 59.5t-39 20.5h-185l-73 -254h276q58 0 77.5 20t39.5 82q4 13 6 20z" />
    <glyph glyph-name="Ecircumflex" unicode="&#xca;" horiz-adv-x="631" 
d="M363 760h-24l148 143q11 11 19 11q7 0 13 -11l67 -143h-19l-71 106zM510 150h27l-43 -150h-530l8 28h79q15 0 20.5 4t9.5 19l166 578q4 15 1 19.5t-18 4.5h-79l8 27h530l-43 -150h-28q2 6 4 17q18 66 11 83q-9 23 -67 23h-276l-98 -343h185q9 0 16 1t13 3.5t10 4.5t8 8
t6.5 8.5t6 11.5t5 12.5t5 15t5.5 16.5h24l-54 -189h-25q14 39 11 59.5t-39 20.5h-185l-73 -254h276q58 0 77.5 20t39.5 82q4 13 6 20z" />
    <glyph glyph-name="Edieresis" unicode="&#xcb;" horiz-adv-x="631" 
d="M382 774q-15 0 -25 10t-10 24q0 15 10 25.5t25 10.5t24.5 -10t9.5 -25t-9.5 -25t-24.5 -10zM572 774q-15 0 -25 10t-10 24q0 15 10 25.5t25 10.5t24.5 -10t9.5 -25t-9.5 -25t-24.5 -10zM510 150h27l-43 -150h-530l8 28h79q15 0 20.5 4t9.5 19l166 578q4 15 1 19.5
t-18 4.5h-79l8 27h530l-43 -150h-28q2 6 4 17q18 66 11 83q-9 23 -67 23h-276l-98 -343h185q9 0 16 1t13 3.5t10 4.5t8 8t6.5 8.5t6 11.5t5 12.5t5 15t5.5 16.5h24l-54 -189h-25q14 39 11 59.5t-39 20.5h-185l-73 -254h276q58 0 77.5 20t39.5 82q4 13 6 20z" />
    <glyph glyph-name="Igrave" unicode="&#xcc;" horiz-adv-x="385" 
d="M340 759h-17q-16 27 -35 71.5t-19 62.5q0 10 6.5 15.5t13.5 5.5q17 0 22 -19q12 -36 29 -136zM350 653q-15 0 -20 -4.5t-10 -19.5l-166 -578q-4 -15 -1 -19t18 -4h105l-8 -28h-294l8 28h106q15 0 20.5 4t9.5 19l166 578q4 15 1 19.5t-18 4.5h-106l8 27h294l-8 -27h-105z
" />
    <glyph glyph-name="Iacute" unicode="&#xcd;" horiz-adv-x="385" 
d="M337 760q96 113 135 146q19 15 33 1t-4 -33q-10 -13 -59.5 -51.5t-84.5 -62.5h-20zM350 653q-15 0 -20 -4.5t-10 -19.5l-166 -578q-4 -15 -1 -19t18 -4h105l-8 -28h-294l8 28h106q15 0 20.5 4t9.5 19l166 578q4 15 1 19.5t-18 4.5h-106l8 27h294l-8 -27h-105z" />
    <glyph glyph-name="Icircumflex" unicode="&#xce;" horiz-adv-x="385" 
d="M240 760h-24l148 143q11 11 19 11q7 0 13 -11l67 -143h-19l-71 106zM350 653q-15 0 -20 -4.5t-10 -19.5l-166 -578q-4 -15 -1 -19t18 -4h105l-8 -28h-294l8 28h106q15 0 20.5 4t9.5 19l166 578q4 15 1 19.5t-18 4.5h-106l8 27h294l-8 -27h-105z" />
    <glyph glyph-name="Idieresis" unicode="&#xcf;" horiz-adv-x="385" 
d="M259 774q-15 0 -25 10t-10 24q0 15 10 25.5t25 10.5t24.5 -10t9.5 -25t-9.5 -25t-24.5 -10zM449 774q-15 0 -25 10t-10 24q0 15 10 25.5t25 10.5t24.5 -10t9.5 -25t-9.5 -25t-24.5 -10zM350 653q-15 0 -20 -4.5t-10 -19.5l-166 -578q-4 -15 -1 -19t18 -4h105l-8 -28h-294
l8 28h106q15 0 20.5 4t9.5 19l166 578q4 15 1 19.5t-18 4.5h-106l8 27h294l-8 -27h-105z" />
    <glyph glyph-name="Eth" unicode="&#xd0;" horiz-adv-x="703" 
d="M391 680q133 0 211 -73t78 -189q0 -171 -128.5 -294.5t-305.5 -123.5h-283l8 28h83q15 0 20 3.5t9 17.5l78 273h-105l8 28h105l80 277q4 14 1 20t-17 6h-82l8 27h232zM254 28q158 0 272 114.5t114 272.5q0 105 -67.5 171.5t-186.5 66.5h-94l-87 -303h231l-8 -28h-231
l-84 -294h141z" />
    <glyph glyph-name="Ntilde" unicode="&#xd1;" horiz-adv-x="756" 
d="M665 837q-26 -81 -86 -81q-31 0 -70 35t-62 35q-38 0 -61 -58l-21 8q26 81 87 81q25 0 49 -17.5t45 -35.5t40 -18q37 0 57 57zM847 680l-8 -27h-87q-15 0 -20 -4.5t-10 -19.5l-180 -629h-18l-246 634l-167 -583q-4 -15 -1 -19t18 -4h79l-8 -28h-235l8 28h79q15 0 20.5 4
t9.5 19l166 578q4 15 1 19.5t-18 4.5h-79l8 27h138l235 -610l160 559q5 15 2 19.5t-18 4.5h-79l8 27h242z" />
    <glyph glyph-name="Ograve" unicode="&#xd2;" horiz-adv-x="710" 
d="M491 759h-17q-16 27 -35 71.5t-19 62.5q0 10 6.5 15.5t13.5 5.5q17 0 22 -19q12 -36 29 -136zM319 -10q-106 0 -175 74t-70 187q0 74 24.5 150t69 141t116.5 106.5t157 41.5q106 0 175.5 -74t70.5 -187q0 -74 -24.5 -150t-69.5 -141t-117 -106.5t-157 -41.5zM322 17
q78 0 142.5 40.5t104 103t61 134.5t20.5 139q-1 99 -60.5 164t-150.5 65q-63 0 -118 -26.5t-93 -70t-65 -98.5t-39.5 -112t-12.5 -110q1 -99 60.5 -164t150.5 -65z" />
    <glyph glyph-name="Oacute" unicode="&#xd3;" horiz-adv-x="710" 
d="M488 760q96 113 135 146q19 15 33 1t-4 -33q-10 -13 -59.5 -51.5t-84.5 -62.5h-20zM319 -10q-106 0 -175 74t-70 187q0 74 24.5 150t69 141t116.5 106.5t157 41.5q106 0 175.5 -74t70.5 -187q0 -74 -24.5 -150t-69.5 -141t-117 -106.5t-157 -41.5zM322 17
q78 0 142.5 40.5t104 103t61 134.5t20.5 139q-1 99 -60.5 164t-150.5 65q-63 0 -118 -26.5t-93 -70t-65 -98.5t-39.5 -112t-12.5 -110q1 -99 60.5 -164t150.5 -65z" />
    <glyph glyph-name="Ocircumflex" unicode="&#xd4;" horiz-adv-x="710" 
d="M391 760h-24l148 143q11 11 19 11q7 0 13 -11l67 -143h-19l-71 106zM319 -10q-106 0 -175 74t-70 187q0 74 24.5 150t69 141t116.5 106.5t157 41.5q106 0 175.5 -74t70.5 -187q0 -74 -24.5 -150t-69.5 -141t-117 -106.5t-157 -41.5zM322 17q78 0 142.5 40.5t104 103
t61 134.5t20.5 139q-1 99 -60.5 164t-150.5 65q-63 0 -118 -26.5t-93 -70t-65 -98.5t-39.5 -112t-12.5 -110q1 -99 60.5 -164t150.5 -65z" />
    <glyph glyph-name="Otilde" unicode="&#xd5;" horiz-adv-x="710" 
d="M655 837q-26 -81 -86 -81q-31 0 -70 35t-62 35q-38 0 -61 -58l-21 8q26 81 87 81q25 0 49 -17.5t45 -35.5t40 -18q37 0 57 57zM319 -10q-106 0 -175 74t-70 187q0 74 24.5 150t69 141t116.5 106.5t157 41.5q106 0 175.5 -74t70.5 -187q0 -74 -24.5 -150t-69.5 -141
t-117 -106.5t-157 -41.5zM322 17q78 0 142.5 40.5t104 103t61 134.5t20.5 139q-1 99 -60.5 164t-150.5 65q-63 0 -118 -26.5t-93 -70t-65 -98.5t-39.5 -112t-12.5 -110q1 -99 60.5 -164t150.5 -65z" />
    <glyph glyph-name="Odieresis" unicode="&#xd6;" horiz-adv-x="710" 
d="M410 774q-15 0 -25 10t-10 24q0 15 10 25.5t25 10.5t24.5 -10t9.5 -25t-9.5 -25t-24.5 -10zM600 774q-15 0 -25 10t-10 24q0 15 10 25.5t25 10.5t24.5 -10t9.5 -25t-9.5 -25t-24.5 -10zM319 -10q-106 0 -175 74t-70 187q0 74 24.5 150t69 141t116.5 106.5t157 41.5
q106 0 175.5 -74t70.5 -187q0 -74 -24.5 -150t-69.5 -141t-117 -106.5t-157 -41.5zM322 17q78 0 142.5 40.5t104 103t61 134.5t20.5 139q-1 99 -60.5 164t-150.5 65q-63 0 -118 -26.5t-93 -70t-65 -98.5t-39.5 -112t-12.5 -110q1 -99 60.5 -164t150.5 -65z" />
    <glyph glyph-name="multiply" unicode="&#xd7;" horiz-adv-x="593" 
d="M536 458l-207 -165l110 -159l-21 -17l-110 160l-203 -162l-14 21l203 162l-114 165l21 17l114 -165l205 164z" />
    <glyph glyph-name="Oslash" unicode="&#xd8;" horiz-adv-x="710" 
d="M643 582q44 -66 44 -153q0 -74 -24.5 -150t-69.5 -141t-117 -106.5t-157 -41.5q-115 0 -186 87l-78 -77h-37l99 98q-43 68 -43 153q0 74 24.5 150t69 141t116.5 106.5t157 41.5q115 0 186 -87l78 77h37zM111 246q0 -66 31 -123l462 457q-60 83 -165 83q-63 0 -118 -26.5
t-93 -70t-65 -98.5t-39.5 -112t-12.5 -110zM322 17q78 0 142.5 40.5t104 103t61 134.5t20.5 139q0 67 -31 124l-463 -458q62 -83 166 -83z" />
    <glyph glyph-name="Ugrave" unicode="&#xd9;" horiz-adv-x="681" 
d="M491 759h-17q-16 27 -35 71.5t-19 62.5q0 10 6.5 15.5t13.5 5.5q17 0 22 -19q12 -36 29 -136zM309 -10q-118 0 -177 73t-28 181l111 385q4 15 1 19.5t-18 4.5h-69l9 27h231l-9 -27h-78q-15 0 -20 -4.5t-10 -19.5l-112 -390q-27 -97 22.5 -158.5t149.5 -61.5
q78 0 134.5 44.5t77.5 119.5l129 446q4 15 1 19.5t-18 4.5h-75l9 27h220l-8 -27h-69q-15 0 -20 -4.5t-10 -19.5l-130 -450q-24 -86 -89.5 -137.5t-154.5 -51.5z" />
    <glyph glyph-name="Uacute" unicode="&#xda;" horiz-adv-x="681" 
d="M488 760q96 113 135 146q19 15 33 1t-4 -33q-10 -13 -59.5 -51.5t-84.5 -62.5h-20zM309 -10q-118 0 -177 73t-28 181l111 385q4 15 1 19.5t-18 4.5h-69l9 27h231l-9 -27h-78q-15 0 -20 -4.5t-10 -19.5l-112 -390q-27 -97 22.5 -158.5t149.5 -61.5q78 0 134.5 44.5
t77.5 119.5l129 446q4 15 1 19.5t-18 4.5h-75l9 27h220l-8 -27h-69q-15 0 -20 -4.5t-10 -19.5l-130 -450q-24 -86 -89.5 -137.5t-154.5 -51.5z" />
    <glyph glyph-name="Ucircumflex" unicode="&#xdb;" horiz-adv-x="681" 
d="M391 760h-24l148 143q11 11 19 11q7 0 13 -11l67 -143h-19l-71 106zM309 -10q-118 0 -177 73t-28 181l111 385q4 15 1 19.5t-18 4.5h-69l9 27h231l-9 -27h-78q-15 0 -20 -4.5t-10 -19.5l-112 -390q-27 -97 22.5 -158.5t149.5 -61.5q78 0 134.5 44.5t77.5 119.5l129 446
q4 15 1 19.5t-18 4.5h-75l9 27h220l-8 -27h-69q-15 0 -20 -4.5t-10 -19.5l-130 -450q-24 -86 -89.5 -137.5t-154.5 -51.5z" />
    <glyph glyph-name="Udieresis" unicode="&#xdc;" horiz-adv-x="681" 
d="M410 774q-15 0 -25 10t-10 24q0 15 10 25.5t25 10.5t24.5 -10t9.5 -25t-9.5 -25t-24.5 -10zM600 774q-15 0 -25 10t-10 24q0 15 10 25.5t25 10.5t24.5 -10t9.5 -25t-9.5 -25t-24.5 -10zM309 -10q-118 0 -177 73t-28 181l111 385q4 15 1 19.5t-18 4.5h-69l9 27h231l-9 -27
h-78q-15 0 -20 -4.5t-10 -19.5l-112 -390q-27 -97 22.5 -158.5t149.5 -61.5q78 0 134.5 44.5t77.5 119.5l129 446q4 15 1 19.5t-18 4.5h-75l9 27h220l-8 -27h-69q-15 0 -20 -4.5t-10 -19.5l-130 -450q-24 -86 -89.5 -137.5t-154.5 -51.5z" />
    <glyph glyph-name="Yacute" unicode="&#xdd;" horiz-adv-x="641" 
d="M466 760q96 113 135 146q19 15 33 1t-4 -33q-10 -13 -59.5 -51.5t-84.5 -62.5h-20zM509 680h255l-8 -27h-56q-35 0 -61 -29l-294 -344l-66 -229q-5 -15 -2 -19t18 -4h79l-7 -28h-242l8 28h79q15 0 21 4t10 19l66 228l-94 346q-7 28 -43 28h-56l8 27h258l-8 -27h-93
q-35 0 -27 -31l82 -314l269 314q26 31 -9 31h-95z" />
    <glyph glyph-name="Thorn" unicode="&#xde;" horiz-adv-x="614" 
d="M397 554q94 0 151.5 -49.5t57.5 -130.5q0 -101 -86.5 -164.5t-210.5 -63.5h-164l-27 -95q-5 -15 -2 -19t18 -4h86l-8 -28h-248l8 28h79q15 0 20.5 4t9.5 19l166 578q4 15 1 19.5t-18 4.5h-79l8 27h248l-8 -27h-86q-15 0 -20 -4.5t-10 -19.5l-21 -75h135zM312 174
q109 0 183 56.5t74 145.5q0 69 -47 109.5t-128 40.5h-140l-101 -352h159z" />
    <glyph glyph-name="germandbls" unicode="&#xdf;" horiz-adv-x="587" 
d="M561 555q0 -45 -19 -76t-45.5 -45.5t-53.5 -26t-46 -27.5t-19 -40q0 -17 14.5 -34t35 -32t41 -32t35 -42t14.5 -54q0 -68 -55 -112t-131 -44q-68 0 -114 33.5t-46 86.5q0 20 9 32.5t25 12.5q14 0 23 -8.5t9 -22.5q0 -15 -9.5 -24t-24.5 -9h-4q7 -32 45 -53.5t86 -21.5
q65 0 108 34.5t43 89.5q0 25 -14 46t-33.5 36l-39 30t-33.5 34.5t-14 42.5q0 31 18.5 52t45 34.5t52.5 29t44.5 43.5t18.5 68q0 46 -37 77t-93 31q-65 0 -111 -43t-68 -121l-160 -558q-38 -131 -147 -131q-41 0 -67 19.5t-26 53.5q0 18 10 29t26 11q14 0 23.5 -9t9.5 -22
t-10 -22t-25 -9h-4q17 -27 60 -27q84 0 116 107l152 531h-90l7 27h68q14 0 19 4t10 17q25 78 79 123.5t128 45.5q70 0 117 -38.5t47 -96.5z" />
    <glyph glyph-name="agrave" unicode="&#xe0;" horiz-adv-x="581" 
d="M333 579h-17q-16 27 -35 71.5t-19 62.5q0 10 6.5 15.5t13.5 5.5q17 0 22 -19q12 -36 29 -136zM166 -10q-66 0 -101 45.5t-35 126.5t33.5 160t95 132t131.5 53q66 0 99.5 -48t27.5 -138h4l50 179h34l-114 -389q-13 -43 -4 -67t38 -24t54 32.5t51 107.5h25
q-31 -89 -63 -129.5t-75 -40.5q-42 0 -58 33t2 89l4 15h-3q-33 -63 -85.5 -100t-110.5 -37zM176 17q59 0 111.5 47.5t82.5 120.5t30 148q0 67 -26.5 107.5t-80.5 40.5q-62 0 -116 -52t-83 -125t-29 -143q0 -67 29 -105.5t82 -38.5z" />
    <glyph glyph-name="aacute" unicode="&#xe1;" horiz-adv-x="581" 
d="M330 580q96 113 135 146q19 15 33 1t-4 -33q-10 -13 -59.5 -51.5t-84.5 -62.5h-20zM166 -10q-66 0 -101 45.5t-35 126.5t33.5 160t95 132t131.5 53q66 0 99.5 -48t27.5 -138h4l50 179h34l-114 -389q-13 -43 -4 -67t38 -24t54 32.5t51 107.5h25q-31 -89 -63 -129.5
t-75 -40.5q-42 0 -58 33t2 89l4 15h-3q-33 -63 -85.5 -100t-110.5 -37zM176 17q59 0 111.5 47.5t82.5 120.5t30 148q0 67 -26.5 107.5t-80.5 40.5q-62 0 -116 -52t-83 -125t-29 -143q0 -67 29 -105.5t82 -38.5z" />
    <glyph glyph-name="acircumflex" unicode="&#xe2;" horiz-adv-x="581" 
d="M233 580h-24l148 143q11 11 19 11q7 0 13 -11l67 -143h-19l-71 106zM166 -10q-66 0 -101 45.5t-35 126.5t33.5 160t95 132t131.5 53q66 0 99.5 -48t27.5 -138h4l50 179h34l-114 -389q-13 -43 -4 -67t38 -24t54 32.5t51 107.5h25q-31 -89 -63 -129.5t-75 -40.5
q-42 0 -58 33t2 89l4 15h-3q-33 -63 -85.5 -100t-110.5 -37zM176 17q59 0 111.5 47.5t82.5 120.5t30 148q0 67 -26.5 107.5t-80.5 40.5q-62 0 -116 -52t-83 -125t-29 -143q0 -67 29 -105.5t82 -38.5z" />
    <glyph glyph-name="atilde" unicode="&#xe3;" horiz-adv-x="581" 
d="M497 657q-26 -81 -86 -81q-31 0 -70 35t-62 35q-38 0 -61 -58l-21 8q26 81 87 81q25 0 49 -17.5t45 -35.5t40 -18q37 0 57 57zM166 -10q-66 0 -101 45.5t-35 126.5t33.5 160t95 132t131.5 53q66 0 99.5 -48t27.5 -138h4l50 179h34l-114 -389q-13 -43 -4 -67t38 -24
t54 32.5t51 107.5h25q-31 -89 -63 -129.5t-75 -40.5q-42 0 -58 33t2 89l4 15h-3q-33 -63 -85.5 -100t-110.5 -37zM176 17q59 0 111.5 47.5t82.5 120.5t30 148q0 67 -26.5 107.5t-80.5 40.5q-62 0 -116 -52t-83 -125t-29 -143q0 -67 29 -105.5t82 -38.5z" />
    <glyph glyph-name="adieresis" unicode="&#xe4;" horiz-adv-x="581" 
d="M252 594q-15 0 -25 10t-10 24q0 15 10 25.5t25 10.5t24.5 -10t9.5 -25t-9.5 -25t-24.5 -10zM442 594q-15 0 -25 10t-10 24q0 15 10 25.5t25 10.5t24.5 -10t9.5 -25t-9.5 -25t-24.5 -10zM166 -10q-66 0 -101 45.5t-35 126.5t33.5 160t95 132t131.5 53q66 0 99.5 -48
t27.5 -138h4l50 179h34l-114 -389q-13 -43 -4 -67t38 -24t54 32.5t51 107.5h25q-31 -89 -63 -129.5t-75 -40.5q-42 0 -58 33t2 89l4 15h-3q-33 -63 -85.5 -100t-110.5 -37zM176 17q59 0 111.5 47.5t82.5 120.5t30 148q0 67 -26.5 107.5t-80.5 40.5q-62 0 -116 -52t-83 -125
t-29 -143q0 -67 29 -105.5t82 -38.5z" />
    <glyph glyph-name="aring" unicode="&#xe5;" horiz-adv-x="581" 
d="M341 560q-38 0 -61 22.5t-23 56.5q0 45 31.5 75t74.5 30q37 0 60.5 -22.5t23.5 -56.5q0 -44 -32 -74.5t-74 -30.5zM343 584q31 0 54.5 23.5t23.5 56.5q0 25 -16.5 41t-43.5 16q-32 0 -55 -24.5t-23 -55.5q0 -24 16.5 -40.5t43.5 -16.5zM166 -10q-66 0 -101 45.5
t-35 126.5t33.5 160t95 132t131.5 53q66 0 99.5 -48t27.5 -138h4l50 179h34l-114 -389q-13 -43 -4 -67t38 -24t54 32.5t51 107.5h25q-31 -89 -63 -129.5t-75 -40.5q-42 0 -58 33t2 89l4 15h-3q-33 -63 -85.5 -100t-110.5 -37zM176 17q59 0 111.5 47.5t82.5 120.5t30 148
q0 67 -26.5 107.5t-80.5 40.5q-62 0 -116 -52t-83 -125t-29 -143q0 -67 29 -105.5t82 -38.5z" />
    <glyph glyph-name="ae" unicode="&#xe6;" horiz-adv-x="747" 
d="M388 246q-9 -36 -11 -80q-2 -68 25 -108t84 -40q109 0 171 143h27q-75 -171 -203 -171q-127 0 -135 151q-37 -80 -91 -115.5t-106 -35.5q-56 0 -88.5 27t-32.5 73q0 45 27 76.5t85 51t96.5 27.5t113.5 19q4 1 6 1q19 100 -9.5 158t-104.5 58q-30 0 -58.5 -12t-40.5 -35
q29 -3 29 -29q0 -15 -10.5 -25t-25.5 -10t-24.5 10.5t-9.5 27.5q0 41 41.5 70t100.5 29q70 0 107.5 -43.5t39.5 -118.5q37 72 95.5 116.5t130.5 44.5q52 0 82.5 -26.5t30.5 -70.5q0 -25 -12.5 -46t-30 -35.5t-48.5 -27t-56 -20t-66 -15t-64.5 -11t-64.5 -8.5zM614 479
q-76 0 -134.5 -60.5t-85.5 -149.5q151 22 208 43q95 36 96 96q0 33 -23 52t-61 19zM155 18q22 0 46 9t53.5 31t55 69t41.5 114q-46 -6 -78 -11.5t-75 -17.5t-69.5 -26.5t-45.5 -39t-19 -54.5q0 -35 24.5 -54.5t66.5 -19.5z" />
    <glyph glyph-name="ccedilla" unicode="&#xe7;" horiz-adv-x="479" 
d="M296 507q70 0 113.5 -41t43.5 -99q0 -27 -11 -42t-29 -15q-14 0 -23.5 9t-9.5 22q0 14 11 23t28 9h8q-4 48 -39.5 77t-89.5 29q-95 0 -159 -87t-64 -197q0 -83 40 -130t104 -47q105 0 159 114h27q-33 -73 -83.5 -107.5t-108.5 -34.5q-14 0 -21 1l-46 -66q52 4 80.5 -15.5
t28.5 -52.5q0 -36 -31 -60t-76 -24q-54 0 -92 31l14 20q36 -27 80 -27q33 0 54 16.5t21 42.5q0 28 -30 40.5t-80 5.5l-7 11l62 82q-59 15 -95 68.5t-36 133.5q0 122 75.5 216t181.5 94z" />
    <glyph glyph-name="egrave" unicode="&#xe8;" horiz-adv-x="452" 
d="M339 579h-17q-16 27 -35 71.5t-19 62.5q0 10 6.5 15.5t13.5 5.5q17 0 22 -19q12 -36 29 -136zM434 413q0 -43 -31 -78t-71.5 -55t-97.5 -35.5t-92 -21.5t-72 -10q-4 -23 -4 -51q0 -67 29 -105.5t88 -38.5q115 0 178 143h27q-76 -171 -209 -171q-74 0 -110.5 45.5
t-36.5 124.5q0 82 35 160.5t101 132t146 53.5q54 0 87 -24.5t33 -68.5zM310 479q-88 0 -152.5 -74t-84.5 -173q64 9 118 22.5t104 34t78.5 51.5t28.5 69q0 34 -24.5 52t-67.5 18z" />
    <glyph glyph-name="eacute" unicode="&#xe9;" horiz-adv-x="452" 
d="M473 727q14 -14 -4 -33q-10 -13 -59.5 -51.5t-84.5 -62.5h-20q96 113 135 146q19 15 33 1zM314 506q54 0 87 -24.5t33 -68.5q0 -43 -31 -78t-71.5 -55t-97.5 -35.5t-92 -21.5t-72 -10q-4 -23 -4 -51q0 -67 29 -105.5t88 -38.5q115 0 178 143h27q-76 -171 -209 -171
q-74 0 -110.5 45.5t-36.5 124.5q0 82 35 160.5t101 132t146 53.5zM73 232q64 9 118 22.5t104 34t78.5 51.5t28.5 69q0 34 -24.5 52t-67.5 18q-88 0 -152.5 -74t-84.5 -173z" />
    <glyph glyph-name="ecircumflex" unicode="&#xea;" horiz-adv-x="452" 
d="M239 580h-24l148 143q11 11 19 11q7 0 13 -11l67 -143h-19l-71 106zM434 413q0 -43 -31 -78t-71.5 -55t-97.5 -35.5t-92 -21.5t-72 -10q-4 -23 -4 -51q0 -67 29 -105.5t88 -38.5q115 0 178 143h27q-76 -171 -209 -171q-74 0 -110.5 45.5t-36.5 124.5q0 82 35 160.5
t101 132t146 53.5q54 0 87 -24.5t33 -68.5zM310 479q-88 0 -152.5 -74t-84.5 -173q64 9 118 22.5t104 34t78.5 51.5t28.5 69q0 34 -24.5 52t-67.5 18z" />
    <glyph glyph-name="edieresis" unicode="&#xeb;" horiz-adv-x="452" 
d="M258 594q-15 0 -25 10t-10 24q0 15 10 25.5t25 10.5t24.5 -10t9.5 -25t-9.5 -25t-24.5 -10zM448 594q-15 0 -25 10t-10 24q0 15 10 25.5t25 10.5t24.5 -10t9.5 -25t-9.5 -25t-24.5 -10zM434 413q0 -43 -31 -78t-71.5 -55t-97.5 -35.5t-92 -21.5t-72 -10q-4 -23 -4 -51
q0 -67 29 -105.5t88 -38.5q115 0 178 143h27q-76 -171 -209 -171q-74 0 -110.5 45.5t-36.5 124.5q0 82 35 160.5t101 132t146 53.5q54 0 87 -24.5t33 -68.5zM310 479q-88 0 -152.5 -74t-84.5 -173q64 9 118 22.5t104 34t78.5 51.5t28.5 69q0 34 -24.5 52t-67.5 18z" />
    <glyph glyph-name="igrave" unicode="&#xec;" horiz-adv-x="301" 
d="M236 579h-17q-16 27 -35 71.5t-19 62.5q0 10 6.5 15.5t13.5 5.5q17 0 22 -19q12 -36 29 -136zM250 160h25q-30 -89 -61 -129.5t-72 -40.5q-40 0 -57.5 33t-0.5 82l100 287q14 38 6.5 61.5t-34.5 23.5q-29 0 -53.5 -32.5t-50.5 -107.5h-24q30 89 61.5 129.5t74.5 40.5
q41 0 56.5 -32.5t-1.5 -82.5l-102 -291q-12 -33 -3 -57t35 -24q29 0 52.5 33t48.5 107z" />
    <glyph glyph-name="iacute" unicode="&#xed;" horiz-adv-x="301" 
d="M233 580q96 113 135 146q19 15 33 1t-4 -33q-10 -13 -59.5 -51.5t-84.5 -62.5h-20zM250 160h25q-30 -89 -61 -129.5t-72 -40.5q-40 0 -57.5 33t-0.5 82l100 287q14 38 6.5 61.5t-34.5 23.5q-29 0 -53.5 -32.5t-50.5 -107.5h-24q30 89 61.5 129.5t74.5 40.5
q41 0 56.5 -32.5t-1.5 -82.5l-102 -291q-12 -33 -3 -57t35 -24q29 0 52.5 33t48.5 107z" />
    <glyph glyph-name="icircumflex" unicode="&#xee;" horiz-adv-x="301" 
d="M136 580h-24l148 143q11 11 19 11q7 0 13 -11l67 -143h-19l-71 106zM250 160h25q-30 -89 -61 -129.5t-72 -40.5q-40 0 -57.5 33t-0.5 82l100 287q14 38 6.5 61.5t-34.5 23.5q-29 0 -53.5 -32.5t-50.5 -107.5h-24q30 89 61.5 129.5t74.5 40.5q41 0 56.5 -32.5t-1.5 -82.5
l-102 -291q-12 -33 -3 -57t35 -24q29 0 52.5 33t48.5 107z" />
    <glyph glyph-name="idieresis" unicode="&#xef;" horiz-adv-x="301" 
d="M155 594q-15 0 -25 10t-10 24q0 15 10 25.5t25 10.5t24.5 -10t9.5 -25t-9.5 -25t-24.5 -10zM345 594q-15 0 -25 10t-10 24q0 15 10 25.5t25 10.5t24.5 -10t9.5 -25t-9.5 -25t-24.5 -10zM250 160h25q-30 -89 -61 -129.5t-72 -40.5q-40 0 -57.5 33t-0.5 82l100 287
q14 38 6.5 61.5t-34.5 23.5q-29 0 -53.5 -32.5t-50.5 -107.5h-24q30 89 61.5 129.5t74.5 40.5q41 0 56.5 -32.5t-1.5 -82.5l-102 -291q-12 -33 -3 -57t35 -24q29 0 52.5 33t48.5 107z" />
    <glyph glyph-name="eth" unicode="&#xf0;" horiz-adv-x="494" 
d="M343 623q55 -49 86.5 -112.5t31.5 -161.5q0 -157 -76 -257.5t-187 -100.5q-75 0 -119 48.5t-44 135.5q0 74 28.5 148t90.5 128.5t142 54.5q43 0 77 -19.5t49 -56.5q-21 120 -111 185l-153 -44l-6 22l133 36q-48 29 -98 45l35 15q47 -17 97 -48l127 35l5 -22zM201 17
q54 0 99 32t71.5 80.5t41 101t14.5 98.5q0 74 -36.5 112.5t-96.5 38.5q-54 0 -99 -31.5t-71.5 -80t-40.5 -100.5t-14 -99q0 -74 36 -113t96 -39z" />
    <glyph glyph-name="ntilde" unicode="&#xf1;" horiz-adv-x="616" 
d="M546 657q-26 -81 -86 -81q-31 0 -70 35t-62 35q-38 0 -61 -58l-21 8q26 81 87 81q25 0 49 -17.5t45 -35.5t40 -18q37 0 57 57zM566 160h24q-30 -89 -60.5 -129.5t-70.5 -40.5q-42 0 -59 32.5t-1 82.5l67 206q25 77 9.5 121t-68.5 44q-35 0 -68 -20.5t-61.5 -60t-53 -83
t-48 -102.5t-39.5 -105.5t-34 -104.5h-35l114 392q25 85 -28 85q-30 0 -54 -32t-50 -108h-25q31 89 62 129.5t74 40.5q42 0 55.5 -33t-3.5 -80l-54 -170h3q111 283 254 283q65 0 90 -51t-4 -143l-70 -212q-11 -29 -2 -55t35 -26q28 0 51.5 32t49.5 108z" />
    <glyph glyph-name="ograve" unicode="&#xf2;" horiz-adv-x="494" 
d="M340 579h-17q-16 27 -35 71.5t-19 62.5q0 10 6.5 15.5t13.5 5.5q17 0 22 -19q12 -36 29 -136zM197 -9q-75 0 -119 48.5t-44 135.5q0 74 28.5 148t90.5 128.5t142 54.5q76 0 120.5 -48t44.5 -135q0 -75 -29.5 -149.5t-91.5 -128.5t-142 -54zM200 17q54 0 99 32t71.5 81
t41 101t14.5 98q0 74 -36.5 113t-96.5 39q-54 0 -99 -31.5t-71.5 -80t-40.5 -100.5t-14 -99q0 -74 36 -113.5t96 -39.5z" />
    <glyph glyph-name="oacute" unicode="&#xf3;" horiz-adv-x="494" 
d="M337 580q96 113 135 146q19 15 33 1t-4 -33q-10 -13 -59.5 -51.5t-84.5 -62.5h-20zM197 -9q-75 0 -119 48.5t-44 135.5q0 74 28.5 148t90.5 128.5t142 54.5q76 0 120.5 -48t44.5 -135q0 -75 -29.5 -149.5t-91.5 -128.5t-142 -54zM200 17q54 0 99 32t71.5 81t41 101
t14.5 98q0 74 -36.5 113t-96.5 39q-54 0 -99 -31.5t-71.5 -80t-40.5 -100.5t-14 -99q0 -74 36 -113.5t96 -39.5z" />
    <glyph glyph-name="ocircumflex" unicode="&#xf4;" horiz-adv-x="494" 
d="M240 580h-24l148 143q11 11 19 11q7 0 13 -11l67 -143h-19l-71 106zM197 -9q-75 0 -119 48.5t-44 135.5q0 74 28.5 148t90.5 128.5t142 54.5q76 0 120.5 -48t44.5 -135q0 -75 -29.5 -149.5t-91.5 -128.5t-142 -54zM200 17q54 0 99 32t71.5 81t41 101t14.5 98
q0 74 -36.5 113t-96.5 39q-54 0 -99 -31.5t-71.5 -80t-40.5 -100.5t-14 -99q0 -74 36 -113.5t96 -39.5z" />
    <glyph glyph-name="otilde" unicode="&#xf5;" horiz-adv-x="494" 
d="M504 657q-26 -81 -86 -81q-31 0 -70 35t-62 35q-38 0 -61 -58l-21 8q26 81 87 81q25 0 49 -17.5t45 -35.5t40 -18q37 0 57 57zM197 -9q-75 0 -119 48.5t-44 135.5q0 74 28.5 148t90.5 128.5t142 54.5q76 0 120.5 -48t44.5 -135q0 -75 -29.5 -149.5t-91.5 -128.5t-142 -54
zM200 17q54 0 99 32t71.5 81t41 101t14.5 98q0 74 -36.5 113t-96.5 39q-54 0 -99 -31.5t-71.5 -80t-40.5 -100.5t-14 -99q0 -74 36 -113.5t96 -39.5z" />
    <glyph glyph-name="odieresis" unicode="&#xf6;" horiz-adv-x="494" 
d="M259 594q-15 0 -25 10t-10 24q0 15 10 25.5t25 10.5t24.5 -10t9.5 -25t-9.5 -25t-24.5 -10zM449 594q-15 0 -25 10t-10 24q0 15 10 25.5t25 10.5t24.5 -10t9.5 -25t-9.5 -25t-24.5 -10zM197 -9q-75 0 -119 48.5t-44 135.5q0 74 28.5 148t90.5 128.5t142 54.5
q76 0 120.5 -48t44.5 -135q0 -75 -29.5 -149.5t-91.5 -128.5t-142 -54zM200 17q54 0 99 32t71.5 81t41 101t14.5 98q0 74 -36.5 113t-96.5 39q-54 0 -99 -31.5t-71.5 -80t-40.5 -100.5t-14 -99q0 -74 36 -113.5t96 -39.5z" />
    <glyph glyph-name="divide" unicode="&#xf7;" horiz-adv-x="597" 
d="M350 437q-15 0 -25 10t-10 24q0 15 10 25t25 10q14 0 23.5 -9.5t9.5 -24.5t-9.5 -25t-23.5 -10zM87 285l7 26h442l-7 -26h-442zM258 158q14 0 23.5 -10t9.5 -25t-9.5 -24.5t-23.5 -9.5q-15 0 -25 10t-10 25q0 14 10 24t25 10z" />
    <glyph glyph-name="oslash" unicode="&#xf8;" horiz-adv-x="494" 
d="M513 500l-75 -75q22 -42 22 -102q0 -75 -29.5 -149.5t-91.5 -128.5t-142 -54q-88 0 -131 64l-55 -55h-32l75 75q-20 42 -20 100q0 74 28.5 148t90.5 128.5t142 54.5q88 0 131 -61l56 55h31zM68 170q0 -40 11 -71l325 323q-34 59 -111 59q-54 0 -99 -31.5t-71.5 -80
t-40.5 -100.5t-14 -99zM426 329q0 42 -12 72l-325 -324q33 -60 111 -60q54 0 99 32t71.5 81t41 101t14.5 98z" />
    <glyph glyph-name="ugrave" unicode="&#xf9;" horiz-adv-x="616" 
d="M389 579h-17q-16 27 -35 71.5t-19 62.5q0 10 6.5 15.5t13.5 5.5q17 0 22 -19q12 -36 29 -136zM49 337h-24q30 89 60.5 129.5t70.5 40.5q42 0 59 -32.5t1 -82.5l-67 -206q-25 -77 -9.5 -121t68.5 -44q35 0 68 20.5t61.5 60t53 83t48 102.5t39.5 105.5t34 104.5h35
l-114 -392q-25 -85 28 -85q30 0 54 32t50 108h25q-31 -89 -62 -129.5t-74 -40.5q-42 0 -55.5 33t3.5 80l54 170h-3q-111 -283 -254 -283q-65 0 -90 51t4 143l70 212q11 29 2 55t-35 26q-28 0 -51.5 -32t-49.5 -108z" />
    <glyph glyph-name="uacute" unicode="&#xfa;" horiz-adv-x="616" 
d="M349 580q96 113 135 146q19 15 33 1t-4 -33q-10 -13 -59.5 -51.5t-84.5 -62.5h-20zM49 337h-24q30 89 60.5 129.5t70.5 40.5q42 0 59 -32.5t1 -82.5l-67 -206q-25 -77 -9.5 -121t68.5 -44q35 0 68 20.5t61.5 60t53 83t48 102.5t39.5 105.5t34 104.5h35l-114 -392
q-25 -85 28 -85q30 0 54 32t50 108h25q-31 -89 -62 -129.5t-74 -40.5q-42 0 -55.5 33t3.5 80l54 170h-3q-111 -283 -254 -283q-65 0 -90 51t4 143l70 212q11 29 2 55t-35 26q-28 0 -51.5 -32t-49.5 -108z" />
    <glyph glyph-name="ucircumflex" unicode="&#xfb;" horiz-adv-x="616" 
d="M289 580h-24l148 143q11 11 19 11q7 0 13 -11l67 -143h-19l-71 106zM49 337h-24q30 89 60.5 129.5t70.5 40.5q42 0 59 -32.5t1 -82.5l-67 -206q-25 -77 -9.5 -121t68.5 -44q35 0 68 20.5t61.5 60t53 83t48 102.5t39.5 105.5t34 104.5h35l-114 -392q-25 -85 28 -85
q30 0 54 32t50 108h25q-31 -89 -62 -129.5t-74 -40.5q-42 0 -55.5 33t3.5 80l54 170h-3q-111 -283 -254 -283q-65 0 -90 51t4 143l70 212q11 29 2 55t-35 26q-28 0 -51.5 -32t-49.5 -108z" />
    <glyph glyph-name="udieresis" unicode="&#xfc;" horiz-adv-x="616" 
d="M308 594q-15 0 -25 10t-10 24q0 15 10 25.5t25 10.5t24.5 -10t9.5 -25t-9.5 -25t-24.5 -10zM498 594q-15 0 -25 10t-10 24q0 15 10 25.5t25 10.5t24.5 -10t9.5 -25t-9.5 -25t-24.5 -10zM49 337h-24q30 89 60.5 129.5t70.5 40.5q42 0 59 -32.5t1 -82.5l-67 -206
q-25 -77 -9.5 -121t68.5 -44q35 0 68 20.5t61.5 60t53 83t48 102.5t39.5 105.5t34 104.5h35l-114 -392q-25 -85 28 -85q30 0 54 32t50 108h25q-31 -89 -62 -129.5t-74 -40.5q-42 0 -55.5 33t3.5 80l54 170h-3q-111 -283 -254 -283q-65 0 -90 51t4 143l70 212q11 29 2 55
t-35 26q-28 0 -51.5 -32t-49.5 -108z" />
    <glyph glyph-name="yacute" unicode="&#xfd;" horiz-adv-x="586" 
d="M563 727q14 -14 -4 -33q-10 -13 -59.5 -51.5t-84.5 -62.5h-20q96 113 135 146q19 15 33 1zM474 507q32 0 54.5 -32.5t22.5 -90.5q0 -74 -37 -173t-94.5 -188t-137 -151t-156.5 -62q-56 0 -102.5 29t-46.5 69q0 19 10 31t28 12q13 0 22 -7.5t9 -21.5q0 -15 -10.5 -24.5
t-27.5 -10.5q12 -20 47.5 -36t72.5 -16q49 0 101 30q51 308 39 460t-93 152q-38 0 -65 -33t-52 -107h-26q28 88 62 129t87 41q38 0 64 -20.5t39 -62t18 -93.5t0.5 -126t-13.5 -147t-24 -168q102 79 179 232t77 261q0 60 -23 85q-7 -28 -33 -28q-14 0 -23 9t-9 23t11 24.5
t30 10.5z" />
    <glyph glyph-name="thorn" unicode="&#xfe;" horiz-adv-x="516" 
d="M352 507q64 0 99 -45t35 -125q0 -82 -33.5 -161.5t-95 -132.5t-132.5 -53q-69 0 -101 49t-26 134h-1l-87 -302q-4 -15 -1 -19.5t18 -4.5h91l-8 -27h-234l8 27h61q15 0 20 4.5t10 19.5l218 758q4 15 1 19.5t-18 4.5h-61l8 27h119l-89 -311h3q35 66 87 102t109 36zM223 19
q62 0 115.5 50.5t82.5 123.5t29 145q0 66 -28.5 104t-79.5 38q-88 0 -157 -100.5t-69 -217.5q0 -66 26.5 -104.5t80.5 -38.5z" />
    <glyph glyph-name="ydieresis" unicode="&#xff;" horiz-adv-x="586" 
d="M317 594q-15 0 -25 10t-10 24q0 15 10 25.5t25 10.5t24.5 -10t9.5 -25t-9.5 -25t-24.5 -10zM507 594q-15 0 -25 10t-10 24q0 15 10 25.5t25 10.5t24.5 -10t9.5 -25t-9.5 -25t-24.5 -10zM474 507q32 0 54.5 -32.5t22.5 -90.5q0 -74 -37 -173t-94.5 -188t-137 -151
t-156.5 -62q-56 0 -102.5 29t-46.5 69q0 19 10 31t28 12q13 0 22 -7.5t9 -21.5q0 -15 -10.5 -24.5t-27.5 -10.5q12 -20 47.5 -36t72.5 -16q49 0 101 30q51 308 39 460t-93 152q-38 0 -65 -33t-52 -107h-26q28 88 62 129t87 41q38 0 64 -20.5t39 -62t18 -93.5t0.5 -126
t-13.5 -147t-24 -168q102 79 179 232t77 261q0 60 -23 85q-7 -28 -33 -28q-14 0 -23 9t-9 23t11 24.5t30 10.5z" />
    <glyph glyph-name="Amacron" unicode="&#x100;" horiz-adv-x="712" 
d="M645 819l-9 -30h-252l9 30h252zM611 28h37l-8 -28h-231l8 28h87q18 0 25 6.5t5 23.5l-18 148h-349l-102 -147q-12 -17 -9.5 -24t21.5 -7h87l-8 -28h-228l8 28h38q34 0 58 34l433 618h27l81 -619q2 -19 10.5 -26t27.5 -7zM186 233h326l-49 400z" />
    <glyph glyph-name="amacron" unicode="&#x101;" horiz-adv-x="581" 
d="M224 639h252l-9 -30h-252zM166 -10q-66 0 -101 45.5t-35 126.5t33.5 160t95 132t131.5 53q66 0 99.5 -48t27.5 -138h4l50 179h34l-114 -389q-13 -43 -4 -67t38 -24t54 32.5t51 107.5h25q-31 -89 -63 -129.5t-75 -40.5q-42 0 -58 33t2 89l4 15h-3q-33 -63 -85.5 -100
t-110.5 -37zM176 17q59 0 111.5 47.5t82.5 120.5t30 148q0 67 -26.5 107.5t-80.5 40.5q-62 0 -116 -52t-83 -125t-29 -143q0 -67 29 -105.5t82 -38.5z" />
    <glyph glyph-name="Abreve" unicode="&#x102;" horiz-adv-x="712" 
d="M505 772q-48 0 -71 30t-14 85h25q-7 -84 64 -84q75 0 120 84h28q-23 -55 -63.5 -85t-88.5 -30zM573 61q2 -19 10.5 -26t27.5 -7h37l-8 -28h-231l8 28h87q18 0 25 6.5t5 23.5l-18 148h-349l-102 -147q-12 -17 -9.5 -24t21.5 -7h87l-8 -28h-228l8 28h38q34 0 58 34l433 618
h27zM186 233h326l-49 400z" />
    <glyph glyph-name="abreve" unicode="&#x103;" horiz-adv-x="581" 
d="M488 707q-23 -55 -63.5 -85t-88.5 -30t-71 30t-14 85h25q-7 -84 64 -84q75 0 120 84h28zM166 -10q-66 0 -101 45.5t-35 126.5t33.5 160t95 132t131.5 53q66 0 99.5 -48t27.5 -138h4l50 179h34l-114 -389q-13 -43 -4 -67t38 -24t54 32.5t51 107.5h25q-31 -89 -63 -129.5
t-75 -40.5q-42 0 -58 33t2 89l4 15h-3q-33 -63 -85.5 -100t-110.5 -37zM176 17q59 0 111.5 47.5t82.5 120.5t30 148q0 67 -26.5 107.5t-80.5 40.5q-62 0 -116 -52t-83 -125t-29 -143q0 -67 29 -105.5t82 -38.5z" />
    <glyph glyph-name="Aogonek" unicode="&#x104;" horiz-adv-x="714" 
d="M564 0q-65 -61 -86 -87.5t-21 -52.5q0 -46 50 -46q31 0 68 20l-8 -32q-35 -17 -69 -17q-35 0 -54.5 17.5t-19.5 48.5t23 62t88 87h-126l8 28h87q18 0 25 6.5t5 23.5l-18 148h-349l-102 -147q-12 -17 -9.5 -24t21.5 -7h87l-8 -28h-228l8 28h38q34 0 58 34l433 618h27
l81 -619q2 -19 10.5 -26t27.5 -7h37l-8 -28h-76zM186 233h326l-49 400z" />
    <glyph glyph-name="aogonek" unicode="&#x105;" horiz-adv-x="581" 
d="M473 11q-11 -10 -30 -27q-63 -56 -83.5 -80t-20.5 -49q0 -41 49 -41q31 0 69 20l-9 -32q-34 -17 -68 -17q-74 0 -74 60q0 30 23.5 59.5t89.5 85.5h-2q-42 0 -58 33t2 89l4 15h-3q-33 -63 -85.5 -100t-110.5 -37q-66 0 -101 45.5t-35 126.5t33.5 160t95 132t131.5 53
q66 0 99.5 -48t27.5 -138h4l50 179h34l-114 -389q-13 -43 -4 -67t38 -24t54 32.5t51 107.5h25q-39 -113 -82 -149zM176 17q59 0 111.5 47.5t82.5 120.5t30 148q0 67 -26.5 107.5t-80.5 40.5q-62 0 -116 -52t-83 -125t-29 -143q0 -67 29 -105.5t82 -38.5z" />
    <glyph glyph-name="Cacute" unicode="&#x106;" horiz-adv-x="687" 
d="M646 874q-10 -13 -59.5 -51.5t-84.5 -62.5h-20q96 113 135 146q19 15 33 1t-4 -33zM449 690q102 0 163 -51.5t61 -139.5q0 -59 -37 -59q-14 0 -23.5 8.5t-9.5 21.5q0 14 9.5 23.5t26.5 9.5h6v5q0 70 -53.5 111.5t-141.5 41.5q-95 0 -172.5 -56.5t-120.5 -151.5t-43 -207
q0 -100 60 -163.5t152 -63.5q160 0 260 173h30q-108 -202 -293 -202q-106 0 -176.5 74.5t-70.5 187.5q0 183 108 310.5t265 127.5z" />
    <glyph glyph-name="cacute" unicode="&#x107;" horiz-adv-x="479" 
d="M483 727q14 -14 -4 -33q-10 -13 -59.5 -51.5t-84.5 -62.5h-20q96 113 135 146q19 15 33 1zM296 507q70 0 113.5 -41t43.5 -99q0 -27 -11 -42t-29 -15q-14 0 -23.5 9t-9.5 22q0 14 11 23t28 9h8q-4 48 -39.5 77t-89.5 29q-95 0 -159 -87t-64 -197q0 -83 40 -130t104 -47
q105 0 159 114h27q-33 -73 -83.5 -107.5t-108.5 -34.5q-76 0 -125 56t-49 151q0 122 75.5 216t181.5 94z" />
    <glyph glyph-name="Cdotaccent" unicode="&#x10a;" horiz-adv-x="687" 
d="M502 774q-15 0 -25 10t-10 24q0 15 10 25.5t25 10.5t24.5 -10t9.5 -25t-9.5 -25t-24.5 -10zM449 690q102 0 163 -51.5t61 -139.5q0 -59 -37 -59q-14 0 -23.5 8.5t-9.5 21.5q0 14 9.5 23.5t26.5 9.5h6v5q0 70 -53.5 111.5t-141.5 41.5q-95 0 -172.5 -56.5t-120.5 -151.5
t-43 -207q0 -100 60 -163.5t152 -63.5q160 0 260 173h30q-108 -202 -293 -202q-106 0 -176.5 74.5t-70.5 187.5q0 183 108 310.5t265 127.5z" />
    <glyph glyph-name="cdotaccent" unicode="&#x10b;" horiz-adv-x="479" 
d="M335 594q-15 0 -25 10t-10 24q0 15 10 25.5t25 10.5t24.5 -10t9.5 -25t-9.5 -25t-24.5 -10zM296 507q70 0 113.5 -41t43.5 -99q0 -27 -11 -42t-29 -15q-14 0 -23.5 9t-9.5 22q0 14 11 23t28 9h8q-4 48 -39.5 77t-89.5 29q-95 0 -159 -87t-64 -197q0 -83 40 -130t104 -47
q105 0 159 114h27q-33 -73 -83.5 -107.5t-108.5 -34.5q-76 0 -125 56t-49 151q0 122 75.5 216t181.5 94z" />
    <glyph glyph-name="Ccaron" unicode="&#x10c;" horiz-adv-x="687" 
d="M513 760q-7 0 -13 11l-67 143h19l71 -106l133 106h24l-148 -143q-11 -11 -19 -11zM449 690q102 0 163 -51.5t61 -139.5q0 -59 -37 -59q-14 0 -23.5 8.5t-9.5 21.5q0 14 9.5 23.5t26.5 9.5h6v5q0 70 -53.5 111.5t-141.5 41.5q-95 0 -172.5 -56.5t-120.5 -151.5t-43 -207
q0 -100 60 -163.5t152 -63.5q160 0 260 173h30q-108 -202 -293 -202q-106 0 -176.5 74.5t-70.5 187.5q0 183 108 310.5t265 127.5z" />
    <glyph glyph-name="ccaron" unicode="&#x10d;" horiz-adv-x="479" 
d="M346 580q-7 0 -13 11l-67 143h19l71 -106l133 106h24l-148 -143q-11 -11 -19 -11zM296 507q70 0 113.5 -41t43.5 -99q0 -27 -11 -42t-29 -15q-14 0 -23.5 9t-9.5 22q0 14 11 23t28 9h8q-4 48 -39.5 77t-89.5 29q-95 0 -159 -87t-64 -197q0 -83 40 -130t104 -47
q105 0 159 114h27q-33 -73 -83.5 -107.5t-108.5 -34.5q-76 0 -125 56t-49 151q0 122 75.5 216t181.5 94z" />
    <glyph glyph-name="Dcaron" unicode="&#x10e;" horiz-adv-x="703" 
d="M603 914h24l-148 -143q-11 -11 -19 -11q-7 0 -13 11l-67 143h19l71 -106zM391 680q133 0 211 -73t78 -189q0 -171 -128.5 -294.5t-305.5 -123.5h-283l8 28h83q15 0 20 3.5t9 17.5l166 578q4 14 1 20t-17 6h-82l8 27h232zM254 28q158 0 272 114.5t114 272.5
q0 105 -67.5 171.5t-186.5 66.5h-94l-179 -625h141z" />
    <glyph glyph-name="dcaron" unicode="&#x10f;" horiz-adv-x="581" 
d="M676 690q15 0 25 -10.5t10 -32.5q0 -43 -32 -85.5t-84 -63.5l-9 17q80 34 87 105q-32 7 -32 34q0 15 9.5 25.5t25.5 10.5zM556 680l-165 -569q-12 -43 -3.5 -67t37.5 -24t54 32.5t51 107.5h25q-31 -89 -63 -129.5t-75 -40.5q-42 0 -58 33t2 89l4 15h-3
q-33 -63 -85.5 -100t-110.5 -37q-66 0 -101 45.5t-35 126.5t33.5 160t95 132t131.5 53q66 0 99.5 -48t27.5 -138h4l86 308q4 15 1 19.5t-18 4.5h-71l8 27h129zM176 17q59 0 111.5 47.5t82.5 120.5t30 148q0 67 -26.5 106t-80.5 39q-92 0 -160 -103.5t-68 -213.5
q0 -67 29 -105.5t82 -38.5z" />
    <glyph glyph-name="Dcroat" unicode="&#x110;" horiz-adv-x="703" 
d="M391 680q133 0 211 -73t78 -189q0 -171 -128.5 -294.5t-305.5 -123.5h-283l8 28h83q15 0 20 3.5t9 17.5l78 273h-105l8 28h105l80 277q4 14 1 20t-17 6h-82l8 27h232zM254 28q158 0 272 114.5t114 272.5q0 105 -67.5 171.5t-186.5 66.5h-94l-87 -303h231l-8 -28h-231
l-84 -294h141z" />
    <glyph glyph-name="dcroat" unicode="&#x111;" horiz-adv-x="581" 
d="M531 595l-140 -484q-12 -43 -3.5 -67t37.5 -24t54 32.5t51 107.5h25q-31 -89 -63 -129.5t-75 -40.5q-42 0 -58 33t2 89l4 15h-3q-33 -63 -85.5 -100t-110.5 -37q-66 0 -101 45.5t-35 126.5t33.5 160t95 132t131.5 53q66 0 99.5 -48t27.5 -138h4l77 274h-193l8 28h193
l16 57h34l-17 -57h65l-8 -28h-65zM176 17q59 0 111.5 47.5t82.5 120.5t30 148q0 67 -26.5 106t-80.5 39q-92 0 -160 -103.5t-68 -213.5q0 -67 29 -105.5t82 -38.5z" />
    <glyph glyph-name="Emacron" unicode="&#x112;" horiz-adv-x="631" 
d="M354 819h252l-9 -30h-252zM510 150h27l-43 -150h-530l8 28h79q15 0 20.5 4t9.5 19l166 578q4 15 1 19.5t-18 4.5h-79l8 27h530l-43 -150h-28q2 6 4 17q18 66 11 83q-9 23 -67 23h-276l-98 -343h185q9 0 16 1t13 3.5t10 4.5t8 8t6.5 8.5t6 11.5t5 12.5t5 15t5.5 16.5h24
l-54 -189h-25q14 39 11 59.5t-39 20.5h-185l-73 -254h276q58 0 77.5 20t39.5 82q4 13 6 20z" />
    <glyph glyph-name="emacron" unicode="&#x113;" horiz-adv-x="452" 
d="M230 639h252l-9 -30h-252zM434 413q0 -43 -31 -78t-71.5 -55t-97.5 -35.5t-92 -21.5t-72 -10q-4 -23 -4 -51q0 -67 29 -105.5t88 -38.5q115 0 178 143h27q-76 -171 -209 -171q-74 0 -110.5 45.5t-36.5 124.5q0 82 35 160.5t101 132t146 53.5q54 0 87 -24.5t33 -68.5z
M310 479q-88 0 -152.5 -74t-84.5 -173q64 9 118 22.5t104 34t78.5 51.5t28.5 69q0 34 -24.5 52t-67.5 18z" />
    <glyph glyph-name="Edotaccent" unicode="&#x116;" horiz-adv-x="631" 
d="M480 774q-15 0 -25 10t-10 24q0 15 10 25.5t25 10.5t24.5 -10t9.5 -25t-9.5 -25t-24.5 -10zM510 150h27l-43 -150h-530l8 28h79q15 0 20.5 4t9.5 19l166 578q4 15 1 19.5t-18 4.5h-79l8 27h530l-43 -150h-28q2 6 4 17q18 66 11 83q-9 23 -67 23h-276l-98 -343h185
q9 0 16 1t13 3.5t10 4.5t8 8t6.5 8.5t6 11.5t5 12.5t5 15t5.5 16.5h24l-54 -189h-25q14 39 11 59.5t-39 20.5h-185l-73 -254h276q58 0 77.5 20t39.5 82q4 13 6 20z" />
    <glyph glyph-name="edotaccent" unicode="&#x117;" horiz-adv-x="452" 
d="M356 594q-15 0 -25 10t-10 24q0 15 10 25.5t25 10.5t24.5 -10t9.5 -25t-9.5 -25t-24.5 -10zM434 413q0 -43 -31 -78t-71.5 -55t-97.5 -35.5t-92 -21.5t-72 -10q-4 -23 -4 -51q0 -67 29 -105.5t88 -38.5q115 0 178 143h27q-76 -171 -209 -171q-74 0 -110.5 45.5
t-36.5 124.5q0 82 35 160.5t101 132t146 53.5q54 0 87 -24.5t33 -68.5zM310 479q-88 0 -152.5 -74t-84.5 -173q64 9 118 22.5t104 34t78.5 51.5t28.5 69q0 34 -24.5 52t-67.5 18z" />
    <glyph glyph-name="Eogonek" unicode="&#x118;" horiz-adv-x="631" 
d="M159 680h530l-43 -150h-28q2 6 4 17q18 66 11 83q-9 23 -67 23h-276l-98 -343h185q9 0 16 1t13 3.5t10 4.5t8 8t6.5 8.5t6 11.5t5 12.5t5 15t5.5 16.5h24l-54 -189h-25q14 39 11 59.5t-39 20.5h-185l-73 -254h276q58 0 77.5 20t39.5 82q4 13 6 20h27l-43 -150h-43
q-66 -61 -87 -87.5t-21 -52.5q0 -46 51 -46q30 0 68 20l-9 -32q-35 -17 -69 -17q-35 0 -54.5 17.5t-19.5 48.5q0 32 23 62.5t89 86.5h-458l8 28h79q15 0 20.5 4t9.5 19l166 578q4 15 1 19.5t-18 4.5h-79z" />
    <glyph glyph-name="eogonek" unicode="&#x119;" horiz-adv-x="452" 
d="M434 413q0 -43 -31 -78t-71.5 -55t-97.5 -35.5t-92 -21.5t-72 -10q-4 -23 -4 -51q0 -67 29 -105.5t88 -38.5q115 0 178 143h27q-40 -88 -91 -129q-89 -82 -115.5 -113t-26.5 -59q0 -46 51 -46q30 0 68 20l-9 -32q-35 -17 -69 -17q-35 0 -54.5 17.5t-19.5 48.5t22.5 61
t84.5 84q-24 -6 -50 -6q-74 0 -110.5 45.5t-36.5 124.5q0 82 35 160.5t101 132t146 53.5q54 0 87 -24.5t33 -68.5zM310 479q-88 0 -152.5 -74t-84.5 -173q64 9 118 22.5t104 34t78.5 51.5t28.5 69q0 34 -24.5 52t-67.5 18z" />
    <glyph glyph-name="Ecaron" unicode="&#x11a;" horiz-adv-x="631" 
d="M634 914h24l-148 -143q-11 -11 -19 -11q-7 0 -13 11l-67 143h19l71 -106zM510 150h27l-43 -150h-530l8 28h79q15 0 20.5 4t9.5 19l166 578q4 15 1 19.5t-18 4.5h-79l8 27h530l-43 -150h-28q2 6 4 17q18 66 11 83q-9 23 -67 23h-276l-98 -343h185q9 0 16 1t13 3.5t10 4.5
t8 8t6.5 8.5t6 11.5t5 12.5t5 15t5.5 16.5h24l-54 -189h-25q14 39 11 59.5t-39 20.5h-185l-73 -254h276q58 0 77.5 20t39.5 82q4 13 6 20z" />
    <glyph glyph-name="ecaron" unicode="&#x11b;" horiz-adv-x="452" 
d="M367 580q-7 0 -13 11l-67 143h19l71 -106l133 106h24l-148 -143q-11 -11 -19 -11zM314 506q54 0 87 -24.5t33 -68.5q0 -43 -31 -78t-71.5 -55t-97.5 -35.5t-92 -21.5t-72 -10q-4 -23 -4 -51q0 -67 29 -105.5t88 -38.5q115 0 178 143h27q-76 -171 -209 -171
q-74 0 -110.5 45.5t-36.5 124.5q0 82 35 160.5t101 132t146 53.5zM73 232q64 9 118 22.5t104 34t78.5 51.5t28.5 69q0 34 -24.5 52t-67.5 18q-88 0 -152.5 -74t-84.5 -173z" />
    <glyph glyph-name="Gbreve" unicode="&#x11e;" horiz-adv-x="766" 
d="M507 772q-48 0 -71 30t-14 85h25q-7 -84 64 -84q75 0 120 84h28q-23 -55 -63.5 -85t-88.5 -30zM402 279h315l-8 -28h-50q-15 0 -21 -4t-10 -19l-65 -228h-24l19 96q-92 -106 -229 -106q-114 0 -183 73t-69 202q0 108 47 204.5t134.5 158.5t194.5 62q99 0 159.5 -52
t60.5 -142q0 -55 -35 -55q-15 0 -25 8.5t-10 21.5t10 22.5t26 9.5q5 0 7 -1v6q0 70 -53.5 111.5t-138.5 41.5q-99 0 -178.5 -60.5t-120 -151.5t-40.5 -189q0 -116 59 -178.5t159 -62.5q148 0 239 132l22 77q4 15 1 19t-18 4h-182z" />
    <glyph glyph-name="gbreve" unicode="&#x11f;" horiz-adv-x="513" 
d="M500 707q-23 -55 -63.5 -85t-88.5 -30t-71 30t-14 85h25q-7 -84 64 -84q75 0 120 84h28zM487 500h33l-144 -493q-25 -87 -95.5 -142t-154.5 -55q-74 0 -115 27.5t-41 68.5q0 20 11 32.5t27 12.5q14 0 23 -8.5t9 -21.5q0 -15 -11.5 -25t-29.5 -9q16 -52 125 -52
q73 0 134.5 48t84.5 124l40 135h-2q-35 -61 -87 -94t-107 -33q-69 0 -110 46t-41 127q0 121 76.5 220t182.5 99q70 0 107.5 -48t31.5 -138h2zM191 42q90 0 158 89.5t68 200.5q0 68 -29.5 107t-87.5 39q-93 0 -160.5 -93.5t-67.5 -198.5q0 -67 31.5 -105.5t87.5 -38.5z" />
    <glyph glyph-name="Gdotaccent" unicode="&#x120;" horiz-adv-x="766" 
d="M521 774q-15 0 -25 10t-10 24q0 15 10 25.5t25 10.5t24.5 -10t9.5 -25t-9.5 -25t-24.5 -10zM402 279h315l-8 -28h-50q-15 0 -21 -4t-10 -19l-65 -228h-24l19 96q-92 -106 -229 -106q-114 0 -183 73t-69 202q0 108 47 204.5t134.5 158.5t194.5 62q99 0 159.5 -52
t60.5 -142q0 -55 -35 -55q-15 0 -25 8.5t-10 21.5t10 22.5t26 9.5q5 0 7 -1v6q0 70 -53.5 111.5t-138.5 41.5q-99 0 -178.5 -60.5t-120 -151.5t-40.5 -189q0 -116 59 -178.5t159 -62.5q148 0 239 132l22 77q4 15 1 19t-18 4h-182z" />
    <glyph glyph-name="gdotaccent" unicode="&#x121;" horiz-adv-x="513" 
d="M362 594q-15 0 -25 10t-10 24q0 15 10 25.5t25 10.5t24.5 -10t9.5 -25t-9.5 -25t-24.5 -10zM487 500h33l-144 -493q-25 -87 -95.5 -142t-154.5 -55q-74 0 -115 27.5t-41 68.5q0 20 11 32.5t27 12.5q14 0 23 -8.5t9 -21.5q0 -15 -11.5 -25t-29.5 -9q16 -52 125 -52
q73 0 134.5 48t84.5 124l40 135h-2q-35 -61 -87 -94t-107 -33q-69 0 -110 46t-41 127q0 121 76.5 220t182.5 99q70 0 107.5 -48t31.5 -138h2zM191 42q90 0 158 89.5t68 200.5q0 68 -29.5 107t-87.5 39q-93 0 -160.5 -93.5t-67.5 -198.5q0 -67 31.5 -105.5t87.5 -38.5z" />
    <glyph glyph-name="Gcommaaccent" unicode="&#x122;" horiz-adv-x="766" 
d="M402 279h315l-8 -28h-50q-15 0 -21 -4t-10 -19l-65 -228h-24l19 96q-92 -106 -229 -106q-114 0 -183 73t-69 202q0 108 47 204.5t134.5 158.5t194.5 62q99 0 159.5 -52t60.5 -142q0 -55 -35 -55q-15 0 -25 8.5t-10 21.5t10 22.5t26 9.5q5 0 7 -1v6q0 70 -53.5 111.5
t-138.5 41.5q-99 0 -178.5 -60.5t-120 -151.5t-40.5 -189q0 -116 59 -178.5t159 -62.5q148 0 239 132l22 77q4 15 1 19t-18 4h-182zM298 -77q35 0 35 -40t-30.5 -76.5t-82.5 -49.5l-5 17q76 24 83 81q-15 2 -25.5 10.5t-10.5 21.5q0 16 10.5 26t25.5 10z" />
    <glyph glyph-name="gcommaaccent" unicode="&#x123;" horiz-adv-x="513" 
d="M321 577q-35 0 -35 40t30.5 76.5t82.5 49.5l5 -17q-76 -24 -83 -81q15 -2 25.5 -10.5t10.5 -21.5q0 -16 -10.5 -26t-25.5 -10zM487 500h33l-144 -493q-25 -87 -95.5 -142t-154.5 -55q-74 0 -115 27.5t-41 68.5q0 20 11 32.5t27 12.5q14 0 23 -8.5t9 -21.5
q0 -15 -11.5 -25t-29.5 -9q16 -52 125 -52q73 0 134.5 48t84.5 124l40 135h-2q-35 -61 -87 -94t-107 -33q-69 0 -110 46t-41 127q0 121 76.5 220t182.5 99q70 0 107.5 -48t31.5 -138h2zM191 42q90 0 158 89.5t68 200.5q0 68 -29.5 107t-87.5 39q-93 0 -160.5 -93.5
t-67.5 -198.5q0 -67 31.5 -105.5t87.5 -38.5z" />
    <glyph glyph-name="Hbar" unicode="&#x126;" horiz-adv-x="732" 
d="M733 653q-15 0 -20 -4.5t-10 -19.5l-41 -142h95l-8 -28h-95l-117 -408q-4 -15 -1 -19t18 -4h79l-8 -28h-231l8 28h69q15 0 20.5 4t9.5 19l67 234h-382l-67 -234q-5 -15 -2 -19t18 -4h69l-8 -28h-231l8 28h79q15 0 20.5 4t9.5 19l117 408h-93l8 28h93l41 142q4 15 1 19.5
t-18 4.5h-79l8 27h231l-8 -27h-69q-15 0 -20 -4.5t-10 -19.5l-41 -142h383l41 142q4 15 1 19.5t-18 4.5h-69l8 27h231l-8 -27h-79zM576 313l42 146h-383l-41 -146h382z" />
    <glyph glyph-name="hbar" unicode="&#x127;" horiz-adv-x="576" 
d="M525 160h25q-30 -89 -60.5 -129.5t-71.5 -40.5q-39 0 -57 32t-1 83l66 206q25 77 9.5 121t-68.5 44q-35 0 -68 -20.5t-61.5 -60t-53 -83t-48 -102.5t-39.5 -105.5t-34 -104.5h-39l171 595h-96l8 28h96l16 57h35l-16 -57h163l-8 -28h-163l-79 -274l-34 -97h6
q111 283 252 283q66 0 91 -51t-4 -143l-70 -212q-10 -27 -1.5 -54t35.5 -27q52 0 99 140z" />
    <glyph glyph-name="Imacron" unicode="&#x12a;" horiz-adv-x="385" 
d="M231 819h252l-9 -30h-252zM350 653q-15 0 -20 -4.5t-10 -19.5l-166 -578q-4 -15 -1 -19t18 -4h105l-8 -28h-294l8 28h106q15 0 20.5 4t9.5 19l166 578q4 15 1 19.5t-18 4.5h-106l8 27h294l-8 -27h-105z" />
    <glyph glyph-name="imacron" unicode="&#x12b;" horiz-adv-x="301" 
d="M127 639h252l-9 -30h-252zM250 160h25q-30 -89 -61 -129.5t-72 -40.5q-40 0 -57.5 33t-0.5 82l100 287q14 38 6.5 61.5t-34.5 23.5q-29 0 -53.5 -32.5t-50.5 -107.5h-24q30 89 61.5 129.5t74.5 40.5q41 0 56.5 -32.5t-1.5 -82.5l-102 -291q-12 -33 -3 -57t35 -24
q29 0 52.5 33t48.5 107z" />
    <glyph glyph-name="Iogonek" unicode="&#x12e;" horiz-adv-x="385" 
d="M169 680h294l-8 -27h-105q-15 0 -20 -4.5t-10 -19.5l-166 -578q-4 -15 -1 -19t18 -4h105l-8 -28h-135q-65 -59 -86.5 -86.5t-21.5 -53.5q0 -46 50 -46q30 0 68 20l-9 -32q-34 -17 -68 -17q-35 0 -54.5 17.5t-19.5 48.5q0 32 23 62.5t89 86.5h-130l8 28h106q15 0 20.5 4
t9.5 19l166 578q4 15 1 19.5t-18 4.5h-106z" />
    <glyph glyph-name="iogonek" unicode="&#x12f;" horiz-adv-x="301" 
d="M265 664q15 0 24.5 -10t9.5 -25t-9.5 -25t-24.5 -10t-25 10t-10 24q0 15 10 25.5t25 10.5zM149 20q29 0 52.5 33t48.5 107h25q-41 -123 -87 -155q-92 -83 -108 -104q-19 -24 -19 -46q0 -41 49 -41q31 0 69 20l-9 -32q-34 -17 -68 -17q-74 0 -74 60q0 30 23.5 59.5
t89.5 85.5q-40 0 -57 33t0 82l102 292q13 35 5 57.5t-35 22.5q-29 0 -53.5 -32.5t-50.5 -107.5h-24q30 89 61.5 129.5t74.5 40.5q41 0 56.5 -32.5t-1.5 -82.5l-102 -291q-12 -33 -3 -57t35 -24z" />
    <glyph glyph-name="Idotaccent" unicode="&#x130;" horiz-adv-x="385" 
d="M357 774q-15 0 -25 10t-10 24q0 15 10 25.5t25 10.5t24.5 -10t9.5 -25t-9.5 -25t-24.5 -10zM350 653q-15 0 -20 -4.5t-10 -19.5l-166 -578q-4 -15 -1 -19t18 -4h105l-8 -28h-294l8 28h106q15 0 20.5 4t9.5 19l166 578q4 15 1 19.5t-18 4.5h-106l8 27h294l-8 -27h-105z
" />
    <glyph glyph-name="dotlessi" unicode="&#x131;" horiz-adv-x="301" 
d="M250 160h25q-30 -89 -61 -129.5t-72 -40.5q-40 0 -57.5 33t-0.5 82l100 287q14 38 6.5 61.5t-34.5 23.5q-29 0 -53.5 -32.5t-50.5 -107.5h-24q30 89 61.5 129.5t74.5 40.5q41 0 56.5 -32.5t-1.5 -82.5l-102 -291q-12 -33 -3 -57t35 -24q29 0 52.5 33t48.5 107z" />
    <glyph glyph-name="Kcommaaccent" unicode="&#x136;" horiz-adv-x="724" 
d="M203 28l-8 -28h-231l8 28h79q15 0 20.5 4t9.5 19l166 578q4 15 1 19.5t-18 4.5h-79l8 27h231l-8 -27h-69q-15 0 -20 -4.5t-10 -19.5l-165 -578q-5 -15 -2 -19t18 -4h69zM531 680h273l-8 -27h-40q-45 0 -77 -28l-354 -292l177 -271q13 -19 27 -26.5t40 -7.5h86l-8 -28
h-307l8 28h104q12 0 15.5 6.5t-3.5 17.5l-182 280l361 299q25 22 -4 22h-116zM269 -77q35 0 35 -40t-30.5 -76.5t-82.5 -49.5l-5 17q76 24 83 81q-15 2 -25.5 10.5t-10.5 21.5q0 16 10.5 26t25.5 10z" />
    <glyph glyph-name="kcommaaccent" unicode="&#x137;" horiz-adv-x="497" 
d="M124 680h112l-195 -680h-34l180 629q4 15 1 19.5t-18 4.5h-54zM425 458q0 16 12 23q-27 0 -56.5 -25t-82.5 -75t-113 -88q81 -10 106.5 -55t21.5 -118q-1 -29 -1 -51.5t9.5 -35.5t28.5 -13q31 0 53.5 35t42.5 105h25q-24 -86 -55 -128t-77 -42q-39 0 -52 31t-10 94
q2 33 -0.5 56t-12.5 49t-36 41t-68 19l-4 11q49 33 95 76.5t71 71.5t56.5 48t62.5 20q54 0 54 -40q0 -17 -10.5 -28.5t-26.5 -11.5q-14 0 -23.5 9t-9.5 22zM160 -77q35 0 35 -40t-30.5 -76.5t-82.5 -49.5l-5 17q76 24 83 81q-15 2 -25.5 10.5t-10.5 21.5q0 16 10.5 26
t25.5 10z" />
    <glyph glyph-name="Lacute" unicode="&#x139;" horiz-adv-x="594" 
d="M305 760q96 113 135 146q19 15 33 1t-4 -33q-10 -13 -59.5 -51.5t-84.5 -62.5h-20zM488 169h27l-48 -169h-503l7 28h80q15 0 20.5 4t9.5 19l166 578q4 15 1 19.5t-18 4.5h-79l8 27h288l-8 -27h-126q-15 0 -20 -4.5t-10 -19.5l-172 -601h249q58 0 77.5 22t42.5 95
q5 16 8 24z" />
    <glyph glyph-name="lacute" unicode="&#x13a;" horiz-adv-x="270" 
d="M248 760q96 113 135 146q19 15 33 1t-4 -33q-10 -13 -59.5 -51.5t-84.5 -62.5h-20zM115 20q29 0 53.5 32t50.5 108h25q-30 -89 -62 -129.5t-73 -40.5q-42 0 -56.5 33t0.5 82l150 524q4 15 1 19.5t-18 4.5h-71l8 27h129l-166 -578q-24 -82 29 -82z" />
    <glyph glyph-name="Lcommaaccent" unicode="&#x13b;" horiz-adv-x="594" 
d="M488 169h27l-48 -169h-503l7 28h80q15 0 20.5 4t9.5 19l166 578q4 15 1 19.5t-18 4.5h-79l8 27h288l-8 -27h-126q-15 0 -20 -4.5t-10 -19.5l-172 -601h249q58 0 77.5 22t42.5 95q5 16 8 24zM226 -77q35 0 35 -40t-30.5 -76.5t-82.5 -49.5l-5 17q76 24 83 81
q-15 2 -25.5 10.5t-10.5 21.5q0 16 10.5 26t25.5 10z" />
    <glyph glyph-name="lcommaaccent" unicode="&#x13c;" horiz-adv-x="270" 
d="M115 20q29 0 53.5 32t50.5 108h25q-30 -89 -62 -129.5t-73 -40.5q-42 0 -56.5 33t0.5 82l150 524q4 15 1 19.5t-18 4.5h-71l8 27h129l-166 -578q-24 -82 29 -82zM30 -77q35 0 35 -40t-30.5 -76.5t-82.5 -49.5l-5 17q76 24 83 81q-15 2 -25.5 10.5t-10.5 21.5
q0 16 10.5 26t25.5 10z" />
    <glyph glyph-name="Lcaron" unicode="&#x13d;" horiz-adv-x="594" 
d="M574 690q15 0 25 -10.5t10 -32.5q0 -43 -32 -85.5t-84 -63.5l-9 17q80 34 87 105q-32 7 -32 34q0 15 9.5 25.5t25.5 10.5zM360 28q58 0 77.5 22t42.5 95q5 16 8 24h27l-48 -169h-503l7 28h80q15 0 20.5 4t9.5 19l166 578q4 15 1 19.5t-18 4.5h-79l8 27h288l-8 -27h-126
q-15 0 -20 -4.5t-10 -19.5l-172 -601h249z" />
    <glyph glyph-name="lcaron" unicode="&#x13e;" horiz-adv-x="270" 
d="M375 690q15 0 25 -10.5t10 -32.5q0 -43 -32 -85.5t-84 -63.5l-9 17q80 34 87 105q-32 7 -32 34q0 15 9.5 25.5t25.5 10.5zM252 680l-166 -578q-24 -82 29 -82q29 0 53.5 32t50.5 108h25q-30 -89 -62 -129.5t-73 -40.5q-42 0 -56.5 33t0.5 82l150 524q4 15 1 19.5t-18 4.5
h-71l8 27h129z" />
    <glyph glyph-name="Lslash" unicode="&#x141;" horiz-adv-x="594" 
d="M488 169h27l-48 -169h-503l7 28h80q15 0 20.5 4t9.5 19l61 212l-110 -50l8 29l110 50l97 337q4 15 1 19.5t-18 4.5h-79l8 27h288l-8 -27h-126q-15 0 -20 -4.5t-10 -19.5l-91 -318l260 117l-8 -29l-260 -118l-73 -253h249q58 0 77.5 22t42.5 95q5 16 8 24z" />
    <glyph glyph-name="lslash" unicode="&#x142;" horiz-adv-x="270" 
d="M138 283l-52 -181q-24 -82 29 -82q29 0 53.5 32t50.5 108h25q-30 -89 -62 -129.5t-73 -40.5q-42 0 -56.5 33t0.5 82l45 156l-82 -45l11 34l80 44l96 335q4 15 1 19.5t-18 4.5h-71l8 27h129l-104 -364l128 71l-10 -34z" />
    <glyph glyph-name="Nacute" unicode="&#x143;" horiz-adv-x="756" 
d="M498 760q96 113 135 146q19 15 33 1t-4 -33q-10 -13 -59.5 -51.5t-84.5 -62.5h-20zM847 680l-8 -27h-87q-15 0 -20 -4.5t-10 -19.5l-180 -629h-18l-246 634l-167 -583q-4 -15 -1 -19t18 -4h79l-8 -28h-235l8 28h79q15 0 20.5 4t9.5 19l166 578q4 15 1 19.5t-18 4.5h-79
l8 27h138l235 -610l160 559q5 15 2 19.5t-18 4.5h-79l8 27h242z" />
    <glyph glyph-name="nacute" unicode="&#x144;" horiz-adv-x="616" 
d="M379 580q96 113 135 146q19 15 33 1t-4 -33q-10 -13 -59.5 -51.5t-84.5 -62.5h-20zM566 160h24q-30 -89 -60.5 -129.5t-70.5 -40.5q-42 0 -59 32.5t-1 82.5l67 206q25 77 9.5 121t-68.5 44q-35 0 -68 -20.5t-61.5 -60t-53 -83t-48 -102.5t-39.5 -105.5t-34 -104.5h-35
l114 392q25 85 -28 85q-30 0 -54 -32t-50 -108h-25q31 89 62 129.5t74 40.5q42 0 55.5 -33t-3.5 -80l-54 -170h3q111 283 254 283q65 0 90 -51t-4 -143l-70 -212q-11 -29 -2 -55t35 -26q28 0 51.5 32t49.5 108z" />
    <glyph glyph-name="Ncommaaccent" unicode="&#x145;" horiz-adv-x="756" 
d="M605 680h242l-8 -27h-87q-15 0 -20 -4.5t-10 -19.5l-180 -629h-18l-246 634l-167 -583q-4 -15 -1 -19t18 -4h79l-8 -28h-235l8 28h79q15 0 20.5 4t9.5 19l166 578q4 15 1 19.5t-18 4.5h-79l8 27h138l235 -610l160 559q5 15 2 19.5t-18 4.5h-79zM315 -77q35 0 35 -40
t-30.5 -76.5t-82.5 -49.5l-5 17q76 24 83 81q-15 2 -25.5 10.5t-10.5 21.5q0 16 10.5 26t25.5 10z" />
    <glyph glyph-name="ncommaaccent" unicode="&#x146;" horiz-adv-x="616" 
d="M566 160h24q-30 -89 -60.5 -129.5t-70.5 -40.5q-42 0 -59 32.5t-1 82.5l67 206q25 77 9.5 121t-68.5 44q-35 0 -68 -20.5t-61.5 -60t-53 -83t-48 -102.5t-39.5 -105.5t-34 -104.5h-35l114 392q25 85 -28 85q-30 0 -54 -32t-50 -108h-25q31 89 62 129.5t74 40.5
q42 0 55.5 -33t-3.5 -80l-54 -170h3q111 283 254 283q65 0 90 -51t-4 -143l-70 -212q-11 -29 -2 -55t35 -26q28 0 51.5 32t49.5 108zM247 -77q35 0 35 -40t-30.5 -76.5t-82.5 -49.5l-5 17q76 24 83 81q-15 2 -25.5 10.5t-10.5 21.5q0 16 10.5 26t25.5 10z" />
    <glyph glyph-name="Ncaron" unicode="&#x147;" horiz-adv-x="756" 
d="M672 914h24l-148 -143q-11 -11 -19 -11q-7 0 -13 11l-67 143h19l71 -106zM847 680l-8 -27h-87q-15 0 -20 -4.5t-10 -19.5l-180 -629h-18l-246 634l-167 -583q-4 -15 -1 -19t18 -4h79l-8 -28h-235l8 28h79q15 0 20.5 4t9.5 19l166 578q4 15 1 19.5t-18 4.5h-79l8 27h138
l235 -610l160 559q5 15 2 19.5t-18 4.5h-79l8 27h242z" />
    <glyph glyph-name="ncaron" unicode="&#x148;" horiz-adv-x="616" 
d="M553 734h24l-148 -143q-11 -11 -19 -11q-7 0 -13 11l-67 143h19l71 -106zM566 160h24q-30 -89 -60.5 -129.5t-70.5 -40.5q-42 0 -59 32.5t-1 82.5l67 206q25 77 9.5 121t-68.5 44q-35 0 -68 -20.5t-61.5 -60t-53 -83t-48 -102.5t-39.5 -105.5t-34 -104.5h-35l114 392
q25 85 -28 85q-30 0 -54 -32t-50 -108h-25q31 89 62 129.5t74 40.5q42 0 55.5 -33t-3.5 -80l-54 -170h3q111 283 254 283q65 0 90 -51t-4 -143l-70 -212q-11 -29 -2 -55t35 -26q28 0 51.5 32t49.5 108z" />
    <glyph glyph-name="Eng" unicode="&#x14a;" horiz-adv-x="756" 
d="M605 680h242l-8 -27h-87q-15 0 -20 -4.5t-10 -19.5l-180 -629l-19 -65q-16 -58 -54 -91t-90 -33q-41 0 -67 21.5t-26 57.5q0 17 11 28.5t27 11.5q13 0 21.5 -9t8.5 -22q0 -14 -10.5 -23.5t-26.5 -9.5h-4q19 -30 66 -30q41 0 69 27t41 72l25 90l-236 609l-167 -583
q-4 -15 -1 -19t18 -4h79l-8 -28h-235l8 28h79q15 0 20.5 4t9.5 19l166 578q4 15 1 19.5t-18 4.5h-79l8 27h138l235 -610l160 559q5 15 2 19.5t-18 4.5h-79z" />
    <glyph glyph-name="eng" unicode="&#x14b;" horiz-adv-x="549" 
d="M416 507q65 0 89 -50t-3 -144l-115 -378q-17 -57 -55 -90.5t-89 -33.5q-42 0 -67.5 21.5t-25.5 57.5q0 17 11 28.5t27 11.5q13 0 21.5 -9t8.5 -22q0 -14 -10.5 -23.5t-26.5 -9.5h-4q19 -30 65 -30q80 0 111 99l113 376q24 78 8.5 121.5t-67.5 43.5q-35 0 -68 -20.5
t-61.5 -60t-53 -83t-48 -102.5t-39.5 -105.5t-34 -104.5h-35l114 392q25 85 -28 85q-30 0 -54 -32t-50 -108h-25q31 89 62 129.5t74 40.5q42 0 55.5 -33t-3.5 -80l-54 -170h3q111 283 254 283z" />
    <glyph glyph-name="Omacron" unicode="&#x14c;" horiz-adv-x="710" 
d="M382 819h252l-9 -30h-252zM319 -10q-106 0 -175 74t-70 187q0 74 24.5 150t69 141t116.5 106.5t157 41.5q106 0 175.5 -74t70.5 -187q0 -74 -24.5 -150t-69.5 -141t-117 -106.5t-157 -41.5zM322 17q78 0 142.5 40.5t104 103t61 134.5t20.5 139q-1 99 -60.5 164t-150.5 65
q-63 0 -118 -26.5t-93 -70t-65 -98.5t-39.5 -112t-12.5 -110q1 -99 60.5 -164t150.5 -65z" />
    <glyph glyph-name="omacron" unicode="&#x14d;" horiz-adv-x="494" 
d="M231 639h252l-9 -30h-252zM197 -9q-75 0 -119 48.5t-44 135.5q0 74 28.5 148t90.5 128.5t142 54.5q76 0 120.5 -48t44.5 -135q0 -75 -29.5 -149.5t-91.5 -128.5t-142 -54zM200 17q54 0 99 32t71.5 81t41 101t14.5 98q0 74 -36.5 113t-96.5 39q-54 0 -99 -31.5t-71.5 -80
t-40.5 -100.5t-14 -99q0 -74 36 -113.5t96 -39.5z" />
    <glyph glyph-name="Ohungarumlaut" unicode="&#x150;" horiz-adv-x="710" 
d="M393 760q96 113 135 146q19 15 33 1t-4 -33q-10 -13 -59.5 -51.5t-84.5 -62.5h-20zM533 760q96 113 135 146q19 15 33 1t-4 -33q-10 -13 -59.5 -51.5t-84.5 -62.5h-20zM319 -10q-106 0 -175 74t-70 187q0 74 24.5 150t69 141t116.5 106.5t157 41.5q106 0 175.5 -74
t70.5 -187q0 -74 -24.5 -150t-69.5 -141t-117 -106.5t-157 -41.5zM322 17q78 0 142.5 40.5t104 103t61 134.5t20.5 139q-1 99 -60.5 164t-150.5 65q-63 0 -118 -26.5t-93 -70t-65 -98.5t-39.5 -112t-12.5 -110q1 -99 60.5 -164t150.5 -65z" />
    <glyph glyph-name="ohungarumlaut" unicode="&#x151;" horiz-adv-x="494" 
d="M242 580q96 113 135 146q19 15 33 1t-4 -33q-10 -13 -59.5 -51.5t-84.5 -62.5h-20zM382 580q96 113 135 146q19 15 33 1t-4 -33q-10 -13 -59.5 -51.5t-84.5 -62.5h-20zM197 -9q-75 0 -119 48.5t-44 135.5q0 74 28.5 148t90.5 128.5t142 54.5q76 0 120.5 -48t44.5 -135
q0 -75 -29.5 -149.5t-91.5 -128.5t-142 -54zM200 17q54 0 99 32t71.5 81t41 101t14.5 98q0 74 -36.5 113t-96.5 39q-54 0 -99 -31.5t-71.5 -80t-40.5 -100.5t-14 -99q0 -74 36 -113.5t96 -39.5z" />
    <glyph glyph-name="OE" unicode="&#x152;" horiz-adv-x="1019" 
d="M363 0q-134 0 -212 73t-78 189q0 171 128.5 294.5t305.5 123.5h540l-44 -150h-27q22 68 16 95.5t-68 27.5h-247l-98 -343h185q18 0 29 3t20 16.5t11 18.5t11 32q2 3 2.5 5.5t1.5 5.5h24l-54 -189h-24q13 39 10.5 59.5t-38.5 20.5h-186l-73 -254h276q58 0 77.5 20t39.5 82
q4 13 6 20h27l-42 -150h-519zM368 28h93l180 625h-142q-157 0 -271 -114.5t-114 -272.5q0 -106 67.5 -172t186.5 -66z" />
    <glyph glyph-name="oe" unicode="&#x153;" horiz-adv-x="827" 
d="M809 413q0 -43 -31 -78t-71.5 -55t-97.5 -35.5t-92 -21.5t-72 -10q-4 -23 -4 -51q0 -67 29 -105.5t88 -38.5q115 0 178 143h27q-76 -171 -209 -171q-67 0 -103 37t-43 103q-36 -63 -89.5 -101t-121.5 -38q-75 0 -119 48.5t-44 135.5q0 74 28.5 148t90.5 128.5t142 54.5
q69 0 113 -40t51 -114q39 70 98.5 112t131.5 42q54 0 87 -24.5t33 -68.5zM200 17q54 0 99 32t71.5 81t41 101t14.5 98q0 74 -36.5 113t-96.5 39q-54 0 -99 -31.5t-71.5 -80t-40.5 -100.5t-14 -99q0 -74 36 -113.5t96 -39.5zM454 255q-4 -13 -5 -23q328 47 328 177
q0 34 -24.5 52t-67.5 18q-82 0 -144.5 -66t-86.5 -158z" />
    <glyph glyph-name="Racute" unicode="&#x154;" horiz-adv-x="672" 
d="M580 874q-10 -13 -59.5 -51.5t-84.5 -62.5h-20q96 113 135 146q19 15 33 1t-4 -33zM496 60q7 -18 19.5 -25t37.5 -7h74l-8 -28h-148l-61 188q-20 60 -46.5 79t-85.5 19h-93l-68 -235q-5 -15 -2 -19t19 -4h92l-8 -28h-255l8 28h79q16 0 21 4t10 19l166 578q5 14 1.5 19
t-19.5 5h-78l8 27h268q98 0 157 -44.5t59 -125.5q0 -93 -79 -154t-196 -65q28 -9 45 -32.5t36 -71.5zM192 313h154q110 0 184.5 55.5t74.5 141.5q0 69 -49 106t-133 37h-133z" />
    <glyph glyph-name="racute" unicode="&#x155;" horiz-adv-x="434" 
d="M444 694q-10 -13 -59.5 -51.5t-84.5 -62.5h-20q96 113 135 146q19 15 33 1t-4 -33zM402 507q35 0 52.5 -14t17.5 -34q0 -17 -10.5 -29t-26.5 -12q-13 0 -22.5 8.5t-9.5 21.5q0 19 19 28q-11 3 -28 3q-156 0 -291 -479h-35l113 390q26 87 -27 87q-29 0 -53.5 -32
t-50.5 -108h-25q30 89 62 129.5t73 40.5q42 0 56.5 -33.5t-3.5 -81.5l-56 -168h3q63 160 118 221.5t124 61.5z" />
    <glyph glyph-name="Rcommaaccent" unicode="&#x156;" horiz-adv-x="672" 
d="M496 60q7 -18 19.5 -25t37.5 -7h74l-8 -28h-148l-61 188q-20 60 -46.5 79t-85.5 19h-93l-68 -235q-5 -15 -2 -19t19 -4h92l-8 -28h-255l8 28h79q16 0 21 4t10 19l166 578q5 14 1.5 19t-19.5 5h-78l8 27h268q98 0 157 -44.5t59 -125.5q0 -93 -79 -154t-196 -65
q28 -9 45 -32.5t36 -71.5zM192 313h154q110 0 184.5 55.5t74.5 141.5q0 69 -49 106t-133 37h-133zM293 -77q35 0 35 -40t-30.5 -76.5t-82.5 -49.5l-5 17q76 24 83 81q-15 2 -25.5 10.5t-10.5 21.5q0 16 10.5 26t25.5 10z" />
    <glyph glyph-name="rcommaaccent" unicode="&#x157;" horiz-adv-x="434" 
d="M402 507q35 0 52.5 -14t17.5 -34q0 -17 -10.5 -29t-26.5 -12q-13 0 -22.5 8.5t-9.5 21.5q0 19 19 28q-11 3 -28 3q-156 0 -291 -479h-35l113 390q26 87 -27 87q-29 0 -53.5 -32t-50.5 -108h-25q30 89 62 129.5t73 40.5q42 0 56.5 -33.5t-3.5 -81.5l-56 -168h3
q63 160 118 221.5t124 61.5zM54 -77q35 0 35 -40t-30.5 -76.5t-82.5 -49.5l-5 17q76 24 83 81q-15 2 -25.5 10.5t-10.5 21.5q0 16 10.5 26t25.5 10z" />
    <glyph glyph-name="Rcaron" unicode="&#x158;" horiz-adv-x="672" 
d="M447 760q-7 0 -13 11l-67 143h19l71 -106l133 106h24l-148 -143q-11 -11 -19 -11zM496 60q7 -18 19.5 -25t37.5 -7h74l-8 -28h-148l-61 188q-20 60 -46.5 79t-85.5 19h-93l-68 -235q-5 -15 -2 -19t19 -4h92l-8 -28h-255l8 28h79q16 0 21 4t10 19l166 578q5 14 1.5 19
t-19.5 5h-78l8 27h268q98 0 157 -44.5t59 -125.5q0 -93 -79 -154t-196 -65q28 -9 45 -32.5t36 -71.5zM192 313h154q110 0 184.5 55.5t74.5 141.5q0 69 -49 106t-133 37h-133z" />
    <glyph glyph-name="rcaron" unicode="&#x159;" horiz-adv-x="434" 
d="M311 580q-7 0 -13 11l-67 143h19l71 -106l133 106h24l-148 -143q-11 -11 -19 -11zM402 507q35 0 52.5 -14t17.5 -34q0 -17 -10.5 -29t-26.5 -12q-13 0 -22.5 8.5t-9.5 21.5q0 19 19 28q-11 3 -28 3q-156 0 -291 -479h-35l113 390q26 87 -27 87q-29 0 -53.5 -32
t-50.5 -108h-25q30 89 62 129.5t73 40.5q42 0 56.5 -33.5t-3.5 -81.5l-56 -168h3q63 160 118 221.5t124 61.5z" />
    <glyph glyph-name="Sacute" unicode="&#x15a;" horiz-adv-x="550" 
d="M553 874q-10 -13 -59.5 -51.5t-84.5 -62.5h-20q96 113 135 146q19 15 33 1t-4 -33zM371 690q76 0 136 -39t60 -96q0 -50 -36 -50q-15 0 -24.5 8.5t-9.5 22.5q0 15 10.5 24.5t25.5 9.5h6q-9 42 -59 67t-108 25q-84 0 -137 -45t-53 -108q0 -32 16 -58t42 -44.5t57 -35
t62.5 -34t57.5 -38t42 -50.5t16 -67q0 -79 -63 -136.5t-162 -57.5q-87 0 -151.5 47.5t-68.5 132.5q0 11 2.5 22.5t12 23t24.5 11.5t23 -9t8 -21q0 -15 -10.5 -25t-26.5 -10h-4q5 -65 58.5 -104t130.5 -39q88 0 139 48t51 111q0 45 -30.5 79t-73.5 56t-86 45.5t-73.5 60
t-30.5 86.5q0 78 65 132.5t162 54.5z" />
    <glyph glyph-name="sacute" unicode="&#x15b;" horiz-adv-x="441" 
d="M460 726q14 -14 -4 -33q-10 -13 -59.5 -51.5t-84.5 -62.5h-20q96 113 135 146q19 15 33 1zM271 507q62 0 110.5 -29t48.5 -77q0 -19 -9.5 -32.5t-25.5 -13.5q-14 0 -24 9t-10 22q0 15 13.5 24.5t27.5 7.5q-8 29 -46 46t-82 17q-58 0 -96.5 -30t-38.5 -76q0 -33 23 -56.5
t56 -38.5t66 -31t56 -44t23 -67q0 -63 -52 -105.5t-123 -42.5q-68 0 -119.5 37.5t-51.5 95.5q0 23 10.5 37t27.5 14q14 0 23 -8.5t9 -21.5q0 -15 -12.5 -25t-29.5 -8q4 -40 44.5 -67.5t94.5 -27.5q61 0 103 33t42 82q0 34 -23 58t-56 39t-66 30.5t-56 43t-23 67.5
q0 61 48 99.5t118 38.5z" />
    <glyph glyph-name="Scedilla" unicode="&#x15e;" horiz-adv-x="550" 
d="M371 690q76 0 136 -39t60 -96q0 -50 -36 -50q-15 0 -24.5 8.5t-9.5 22.5q0 15 10.5 24.5t25.5 9.5h6q-9 42 -59 67t-108 25q-84 0 -137 -45t-53 -108q0 -32 16 -58t42 -44.5t57 -35t62.5 -34t57.5 -38t42 -50.5t16 -67q0 -79 -63 -136.5t-162 -57.5q-11 0 -31 2l-45 -65
q52 4 80.5 -15.5t28.5 -52.5q0 -36 -31 -60t-76 -24q-54 0 -92 31l14 20q36 -27 80 -27q33 0 54 16.5t21 42.5q0 28 -30 40.5t-80 5.5l-7 11l60 80q-69 14 -115.5 59t-50.5 116q0 11 2.5 22.5t12 23t24.5 11.5t23 -9t8 -21q0 -15 -10.5 -25t-26.5 -10h-4q5 -65 58.5 -104
t130.5 -39q88 0 139 48t51 111q0 45 -30.5 79t-73.5 56t-86 45.5t-73.5 60t-30.5 86.5q0 78 65 132.5t162 54.5z" />
    <glyph glyph-name="scedilla" unicode="&#x15f;" horiz-adv-x="441" 
d="M271 507q62 0 110.5 -29t48.5 -77q0 -19 -9.5 -32.5t-25.5 -13.5q-14 0 -24 9t-10 22q0 15 13.5 24.5t27.5 7.5q-8 29 -46 46t-82 17q-58 0 -96.5 -30t-38.5 -76q0 -33 23 -56.5t56 -38.5t66 -31t56 -44t23 -67q0 -63 -52 -105.5t-123 -42.5q-14 0 -21 1l-45 -64
q52 4 80.5 -15.5t28.5 -52.5q0 -36 -31 -60t-76 -24q-54 0 -92 31l14 20q36 -27 80 -27q33 0 54 16.5t21 42.5q0 28 -30 40.5t-80 5.5l-7 11l60 80q-54 11 -90.5 45.5t-36.5 82.5q0 23 10.5 37t27.5 14q14 0 23 -8.5t9 -21.5q0 -15 -12.5 -25t-29.5 -8q4 -40 44.5 -67.5
t94.5 -27.5q61 0 103 33t42 82q0 34 -23 58t-56 39t-66 30.5t-56 43t-23 67.5q0 61 48 99.5t118 38.5z" />
    <glyph glyph-name="Scaron" unicode="&#x160;" horiz-adv-x="550" 
d="M420 760q-7 0 -13 11l-67 143h19l71 -106l133 106h24l-148 -143q-11 -11 -19 -11zM371 690q76 0 136 -39t60 -96q0 -50 -36 -50q-15 0 -24.5 8.5t-9.5 22.5q0 15 10.5 24.5t25.5 9.5h6q-9 42 -59 67t-108 25q-84 0 -137 -45t-53 -108q0 -32 16 -58t42 -44.5t57 -35
t62.5 -34t57.5 -38t42 -50.5t16 -67q0 -79 -63 -136.5t-162 -57.5q-87 0 -151.5 47.5t-68.5 132.5q0 11 2.5 22.5t12 23t24.5 11.5t23 -9t8 -21q0 -15 -10.5 -25t-26.5 -10h-4q5 -65 58.5 -104t130.5 -39q88 0 139 48t51 111q0 45 -30.5 79t-73.5 56t-86 45.5t-73.5 60
t-30.5 86.5q0 78 65 132.5t162 54.5z" />
    <glyph glyph-name="scaron" unicode="&#x161;" horiz-adv-x="441" 
d="M323 579q-7 0 -13 11l-67 143h19l71 -106l133 106h24l-148 -143q-11 -11 -19 -11zM271 507q62 0 110.5 -29t48.5 -77q0 -19 -9.5 -32.5t-25.5 -13.5q-14 0 -24 9t-10 22q0 15 13.5 24.5t27.5 7.5q-8 29 -46 46t-82 17q-58 0 -96.5 -30t-38.5 -76q0 -33 23 -56.5t56 -38.5
t66 -31t56 -44t23 -67q0 -63 -52 -105.5t-123 -42.5q-68 0 -119.5 37.5t-51.5 95.5q0 23 10.5 37t27.5 14q14 0 23 -8.5t9 -21.5q0 -15 -12.5 -25t-29.5 -8q4 -40 44.5 -67.5t94.5 -27.5q61 0 103 33t42 82q0 34 -23 58t-56 39t-66 30.5t-56 43t-23 67.5q0 61 48 99.5
t118 38.5z" />
    <glyph glyph-name="uni0162" unicode="&#x162;" horiz-adv-x="645" 
d="M173 680h545l-48 -169h-28q2 6 5 19q22 67 14.5 95t-66.5 28h-140l-172 -602q-4 -15 -1 -19t18 -4h123l-8 -28h-154l-52 -75q52 4 80.5 -15.5t28.5 -52.5q0 -36 -31 -60t-76 -24q-54 0 -92 31l14 20q36 -27 80 -27q33 0 54 16.5t21 42.5q0 28 -30 40.5t-80 5.5l-7 11
l65 87h-150l8 28h123q15 0 20.5 4t9.5 19l172 602h-139q-14 0 -25 -1.5t-19.5 -2.5t-16.5 -7t-13 -8.5t-11 -13t-9 -14t-8.5 -19.5t-7.5 -21t-8.5 -26t-9.5 -29h-27z" />
    <glyph glyph-name="uni0163" unicode="&#x163;" horiz-adv-x="344" 
d="M201 473l-101 -353q-14 -47 1 -73.5t48 -26.5q73 0 124 140h25q-59 -170 -154 -170h-9l-46 -65q52 4 80.5 -15.5t28.5 -52.5q0 -36 -31 -60t-76 -24q-54 0 -92 31l14 20q36 -27 80 -27q33 0 54 16.5t21 42.5q0 28 -30 40.5t-80 5.5l-7 11l61 82q-33 11 -46.5 44.5
t0.5 81.5l102 352h-94l8 27h94l43 100h19l-29 -100h187l-8 -27h-187z" />
    <glyph glyph-name="Tcaron" unicode="&#x164;" horiz-adv-x="645" 
d="M613 914h24l-148 -143q-11 -11 -19 -11q-7 0 -13 11l-67 143h19l71 -106zM718 680l-48 -169h-28q2 6 5 19q22 67 14.5 95t-66.5 28h-140l-172 -602q-4 -15 -1 -19t18 -4h123l-8 -28h-329l8 28h123q15 0 20.5 4t9.5 19l172 602h-139q-14 0 -25 -1.5t-19.5 -2.5t-16.5 -7
t-13 -8.5t-11 -13t-9 -14t-8.5 -19.5t-7.5 -21t-8.5 -26t-9.5 -29h-27l48 169h545z" />
    <glyph glyph-name="tcaron" unicode="&#x165;" horiz-adv-x="344" 
d="M432 737q0 -43 -32 -85.5t-84 -63.5l-9 17q80 34 87 105q-32 7 -32 34q0 15 9.5 25.5t25.5 10.5q15 0 25 -10.5t10 -32.5zM238 600l-29 -100h187l-8 -27h-187l-101 -353q-14 -47 1 -73.5t48 -26.5q73 0 124 140h25q-59 -170 -154 -170q-48 0 -71.5 35.5t-6.5 95.5
l102 352h-94l8 27h94l43 100h19z" />
    <glyph glyph-name="Tbar" unicode="&#x166;" horiz-adv-x="645" 
d="M173 680h545l-48 -169h-28q2 6 5 19q22 67 14.5 95t-66.5 28h-140l-92 -323h162l-8 -28h-162l-72 -251q-4 -15 -1 -19t18 -4h123l-8 -28h-329l8 28h123q15 0 20.5 4t9.5 19l72 251h-147l8 28h147l92 323h-139q-14 0 -25 -1.5t-19.5 -2.5t-16.5 -7t-13 -8.5t-11 -13
t-9 -14t-8.5 -19.5t-7.5 -21t-8.5 -26t-9.5 -29h-27z" />
    <glyph glyph-name="tbar" unicode="&#x167;" horiz-adv-x="344" 
d="M388 473h-187l-40 -140h167l-8 -27h-167l-53 -186q-14 -47 1 -73.5t48 -26.5q73 0 124 140h25q-59 -170 -154 -170q-48 0 -71.5 35.5t-6.5 95.5l53 185h-68l8 27h68l41 140h-94l8 27h94l43 100h19l-29 -100h187z" />
    <glyph glyph-name="Umacron" unicode="&#x16a;" horiz-adv-x="681" 
d="M382 819h252l-9 -30h-252zM309 -10q-118 0 -177 73t-28 181l111 385q4 15 1 19.5t-18 4.5h-69l9 27h231l-9 -27h-78q-15 0 -20 -4.5t-10 -19.5l-112 -390q-27 -97 22.5 -158.5t149.5 -61.5q78 0 134.5 44.5t77.5 119.5l129 446q4 15 1 19.5t-18 4.5h-75l9 27h220l-8 -27
h-69q-15 0 -20 -4.5t-10 -19.5l-130 -450q-24 -86 -89.5 -137.5t-154.5 -51.5z" />
    <glyph glyph-name="umacron" unicode="&#x16b;" horiz-adv-x="616" 
d="M280 639h252l-9 -30h-252zM49 337h-24q30 89 60.5 129.5t70.5 40.5q42 0 59 -32.5t1 -82.5l-67 -206q-25 -77 -9.5 -121t68.5 -44q35 0 68 20.5t61.5 60t53 83t48 102.5t39.5 105.5t34 104.5h35l-114 -392q-25 -85 28 -85q30 0 54 32t50 108h25q-31 -89 -62 -129.5
t-74 -40.5q-42 0 -55.5 33t3.5 80l54 170h-3q-111 -283 -254 -283q-65 0 -90 51t4 143l70 212q11 29 2 55t-35 26q-28 0 -51.5 -32t-49.5 -108z" />
    <glyph glyph-name="Uring" unicode="&#x16e;" horiz-adv-x="681" 
d="M499 740q-38 0 -61 22.5t-23 56.5q0 45 31.5 75t74.5 30q37 0 60.5 -22.5t23.5 -56.5q0 -44 -32 -74.5t-74 -30.5zM501 764q31 0 54.5 23.5t23.5 56.5q0 25 -16.5 41t-43.5 16q-32 0 -55 -24.5t-23 -55.5q0 -24 16.5 -40.5t43.5 -16.5zM309 -10q-118 0 -177 73t-28 181
l111 385q4 15 1 19.5t-18 4.5h-69l9 27h231l-9 -27h-78q-15 0 -20 -4.5t-10 -19.5l-112 -390q-27 -97 22.5 -158.5t149.5 -61.5q78 0 134.5 44.5t77.5 119.5l129 446q4 15 1 19.5t-18 4.5h-75l9 27h220l-8 -27h-69q-15 0 -20 -4.5t-10 -19.5l-130 -450q-24 -86 -89.5 -137.5
t-154.5 -51.5z" />
    <glyph glyph-name="uring" unicode="&#x16f;" horiz-adv-x="616" 
d="M397 560q-38 0 -61 22.5t-23 56.5q0 45 31.5 75t74.5 30q37 0 60.5 -22.5t23.5 -56.5q0 -44 -32 -74.5t-74 -30.5zM399 584q31 0 54.5 23.5t23.5 56.5q0 25 -16.5 41t-43.5 16q-32 0 -55 -24.5t-23 -55.5q0 -24 16.5 -40.5t43.5 -16.5zM49 337h-24q30 89 60.5 129.5
t70.5 40.5q42 0 59 -32.5t1 -82.5l-67 -206q-25 -77 -9.5 -121t68.5 -44q35 0 68 20.5t61.5 60t53 83t48 102.5t39.5 105.5t34 104.5h35l-114 -392q-25 -85 28 -85q30 0 54 32t50 108h25q-31 -89 -62 -129.5t-74 -40.5q-42 0 -55.5 33t3.5 80l54 170h-3q-111 -283 -254 -283
q-65 0 -90 51t4 143l70 212q11 29 2 55t-35 26q-28 0 -51.5 -32t-49.5 -108z" />
    <glyph glyph-name="Uhungarumlaut" unicode="&#x170;" horiz-adv-x="681" 
d="M393 760q96 113 135 146q19 15 33 1t-4 -33q-10 -13 -59.5 -51.5t-84.5 -62.5h-20zM533 760q96 113 135 146q19 15 33 1t-4 -33q-10 -13 -59.5 -51.5t-84.5 -62.5h-20zM309 -10q-118 0 -177 73t-28 181l111 385q4 15 1 19.5t-18 4.5h-69l9 27h231l-9 -27h-78
q-15 0 -20 -4.5t-10 -19.5l-112 -390q-27 -97 22.5 -158.5t149.5 -61.5q78 0 134.5 44.5t77.5 119.5l129 446q4 15 1 19.5t-18 4.5h-75l9 27h220l-8 -27h-69q-15 0 -20 -4.5t-10 -19.5l-130 -450q-24 -86 -89.5 -137.5t-154.5 -51.5z" />
    <glyph glyph-name="uhungarumlaut" unicode="&#x171;" horiz-adv-x="616" 
d="M291 580q96 113 135 146q19 15 33 1t-4 -33q-10 -13 -59.5 -51.5t-84.5 -62.5h-20zM431 580q96 113 135 146q19 15 33 1t-4 -33q-10 -13 -59.5 -51.5t-84.5 -62.5h-20zM49 337h-24q30 89 60.5 129.5t70.5 40.5q42 0 59 -32.5t1 -82.5l-67 -206q-25 -77 -9.5 -121
t68.5 -44q35 0 68 20.5t61.5 60t53 83t48 102.5t39.5 105.5t34 104.5h35l-114 -392q-25 -85 28 -85q30 0 54 32t50 108h25q-31 -89 -62 -129.5t-74 -40.5q-42 0 -55.5 33t3.5 80l54 170h-3q-111 -283 -254 -283q-65 0 -90 51t4 143l70 212q11 29 2 55t-35 26
q-28 0 -51.5 -32t-49.5 -108z" />
    <glyph glyph-name="Uogonek" unicode="&#x172;" horiz-adv-x="681" 
d="M570 680h220l-8 -27h-69q-15 0 -20 -4.5t-10 -19.5l-130 -450q-25 -92 -101 -146q-92 -84 -118 -114t-26 -59q0 -46 51 -46q30 0 68 20l-9 -32q-35 -17 -69 -17q-35 0 -54.5 17.5t-19.5 48.5t23.5 62t90.5 89q-37 -12 -80 -12q-118 0 -177 73t-28 181l111 385
q4 15 1 19.5t-18 4.5h-69l9 27h231l-9 -27h-78q-15 0 -20 -4.5t-10 -19.5l-112 -390q-27 -97 22.5 -158.5t149.5 -61.5q78 0 134.5 44.5t77.5 119.5l129 446q4 15 1 19.5t-18 4.5h-75z" />
    <glyph glyph-name="uogonek" unicode="&#x173;" horiz-adv-x="616" 
d="M501 4q-65 -48 -95.5 -82t-30.5 -64q0 -42 50 -42q26 0 68 20l-9 -31q-33 -18 -67 -18q-36 0 -55.5 17t-19.5 46q0 61 109 140q-40 1 -53 34t4 79l54 170h-3q-111 -283 -254 -283q-65 0 -90 51t4 143l70 212q11 29 2 55t-35 26q-28 0 -51.5 -32t-49.5 -108h-24
q30 89 60.5 129.5t70.5 40.5q42 0 59 -32.5t1 -82.5l-67 -206q-25 -77 -9.5 -121t68.5 -44q35 0 68 20.5t61.5 60t53 83t48 102.5t39.5 105.5t34 104.5h35l-114 -392q-25 -85 28 -85q30 0 54 32t50 108h25q-43 -125 -89 -156z" />
    <glyph glyph-name="Wcircumflex" unicode="&#x174;" horiz-adv-x="1090" 
d="M727 866l-133 -106h-24l148 143q11 11 19 11q7 0 13 -11l67 -143h-19zM982 680h231l-8 -27h-42q-35 0 -55 -30l-404 -623h-23l-34 601l-375 -601h-22l-54 624q-3 29 -39 29h-41l8 27h236l-8 -27h-87q-33 0 -30 -33l47 -552l346 554q9 14 5 22.5t-20 8.5h-88l8 27h276
l-8 -27h-90q-16 0 -24.5 -9t-7.5 -23l34 -554l360 553q19 33 -12 33h-87z" />
    <glyph glyph-name="wcircumflex" unicode="&#x175;" horiz-adv-x="741" 
d="M375 580h-24l148 143q11 11 19 11q7 0 13 -11l67 -143h-19l-71 106zM647 507q33 0 54.5 -30.5t21.5 -91.5q0 -83 -36 -174t-101.5 -156t-138.5 -65q-48 0 -75 28.5t-27 75.5q0 29 23 103h-3q-79 -207 -196 -207q-45 0 -72.5 28t-27.5 72q0 55 60.5 184t60.5 161
q0 18 -11 30t-27 12q-28 0 -52 -32.5t-50 -107.5h-25q57 170 136 170q28 0 46 -19t18 -48q0 -40 -60 -167.5t-60 -175.5q0 -34 19 -55t51 -21q146 0 270 479h33q-13 -55 -40.5 -145t-45 -155t-17.5 -96q0 -38 21 -60.5t57 -22.5q59 0 116.5 60t92 146.5t34.5 166.5
q0 54 -25 75q-7 -29 -33 -29q-14 0 -23 9t-9 23q0 15 11 25t30 10z" />
    <glyph glyph-name="Ycircumflex" unicode="&#x176;" horiz-adv-x="641" 
d="M369 760h-24l148 143q11 11 19 11q7 0 13 -11l67 -143h-19l-71 106zM509 680h255l-8 -27h-56q-35 0 -61 -29l-294 -344l-66 -229q-5 -15 -2 -19t18 -4h79l-7 -28h-242l8 28h79q15 0 21 4t10 19l66 228l-94 346q-7 28 -43 28h-56l8 27h258l-8 -27h-93q-35 0 -27 -31
l82 -314l269 314q26 31 -9 31h-95z" />
    <glyph glyph-name="ycircumflex" unicode="&#x177;" horiz-adv-x="586" 
d="M298 580h-24l148 143q11 11 19 11q7 0 13 -11l67 -143h-19l-71 106zM474 507q32 0 54.5 -32.5t22.5 -90.5q0 -74 -37 -173t-94.5 -188t-137 -151t-156.5 -62q-56 0 -102.5 29t-46.5 69q0 19 10 31t28 12q13 0 22 -7.5t9 -21.5q0 -15 -10.5 -24.5t-27.5 -10.5
q12 -20 47.5 -36t72.5 -16q49 0 101 30q51 308 39 460t-93 152q-38 0 -65 -33t-52 -107h-26q28 88 62 129t87 41q38 0 64 -20.5t39 -62t18 -93.5t0.5 -126t-13.5 -147t-24 -168q102 79 179 232t77 261q0 60 -23 85q-7 -28 -33 -28q-14 0 -23 9t-9 23t11 24.5t30 10.5z" />
    <glyph glyph-name="Ydieresis" unicode="&#x178;" horiz-adv-x="641" 
d="M388 774q-15 0 -25 10t-10 24q0 15 10 25.5t25 10.5t24.5 -10t9.5 -25t-9.5 -25t-24.5 -10zM578 774q-15 0 -25 10t-10 24q0 15 10 25.5t25 10.5t24.5 -10t9.5 -25t-9.5 -25t-24.5 -10zM509 680h255l-8 -27h-56q-35 0 -61 -29l-294 -344l-66 -229q-5 -15 -2 -19t18 -4h79
l-7 -28h-242l8 28h79q15 0 21 4t10 19l66 228l-94 346q-7 28 -43 28h-56l8 27h258l-8 -27h-93q-35 0 -27 -31l82 -314l269 314q26 31 -9 31h-95z" />
    <glyph glyph-name="Zacute" unicode="&#x179;" horiz-adv-x="573" 
d="M547 874q-10 -13 -59.5 -51.5t-84.5 -62.5h-20q96 113 135 146q19 15 33 1t-4 -33zM638 680l-3 -12l-590 -641h326q42 0 60 26t41 100q4 14 7 22h28l-51 -175h-475l4 13l593 640h-324q-29 0 -47.5 -16.5t-26.5 -34t-25 -70.5q-6 -17 -9 -26h-27l50 174h469z" />
    <glyph glyph-name="zacute" unicode="&#x17a;" horiz-adv-x="425" 
d="M459 727q14 -14 -4 -33q-10 -13 -59.5 -51.5t-84.5 -62.5h-20q96 113 135 146q19 15 33 1zM437 507q15 0 15 -21q0 -38 -44 -80q-25 -25 -52.5 -53t-39.5 -40.5t-28.5 -27.5t-33.5 -30q-108 -91 -197 -160q50 -32 72.5 -44.5t51.5 -22.5t59 -10q61 0 78 25q-16 1 -24 9.5
t-8 20.5q0 13 9 21.5t23 8.5t23.5 -9.5t9.5 -25.5q0 -29 -30 -53.5t-91 -24.5q-47 0 -83.5 18.5t-108.5 72.5q-2 -1 -4 -3q-6 -42 -19 -65t-27 -23q-15 0 -15 22q0 45 47 85l356 300q-58 36 -79 48t-51.5 23t-60.5 11q-60 0 -78 -25q31 0 31 -30q0 -13 -9 -21.5t-22 -8.5
q-14 0 -23.5 9.5t-9.5 25.5q0 29 30 53.5t90 24.5q48 0 85 -19t114 -76l4 3q-1 35 11.5 63.5t28.5 28.5z" />
    <glyph glyph-name="Zdotaccent" unicode="&#x17b;" horiz-adv-x="573" 
d="M403 774q-15 0 -25 10t-10 24q0 15 10 25.5t25 10.5t24.5 -10t9.5 -25t-9.5 -25t-24.5 -10zM638 680l-3 -12l-590 -641h326q42 0 60 26t41 100q4 14 7 22h28l-51 -175h-475l4 13l593 640h-324q-29 0 -47.5 -16.5t-26.5 -34t-25 -70.5q-6 -17 -9 -26h-27l50 174h469z" />
    <glyph glyph-name="zdotaccent" unicode="&#x17c;" horiz-adv-x="425" 
d="M311 594q-15 0 -25 10t-10 24q0 15 10 25.5t25 10.5t24.5 -10t9.5 -25t-9.5 -25t-24.5 -10zM437 507q15 0 15 -21q0 -38 -44 -80q-25 -25 -52.5 -53t-39.5 -40.5t-28.5 -27.5t-33.5 -30q-108 -91 -197 -160q50 -32 72.5 -44.5t51.5 -22.5t59 -10q61 0 78 25
q-16 1 -24 9.5t-8 20.5q0 13 9 21.5t23 8.5t23.5 -9.5t9.5 -25.5q0 -29 -30 -53.5t-91 -24.5q-47 0 -83.5 18.5t-108.5 72.5q-2 -1 -4 -3q-6 -42 -19 -65t-27 -23q-15 0 -15 22q0 45 47 85l356 300q-58 36 -79 48t-51.5 23t-60.5 11q-60 0 -78 -25q31 0 31 -30
q0 -13 -9 -21.5t-22 -8.5q-14 0 -23.5 9.5t-9.5 25.5q0 29 30 53.5t90 24.5q48 0 85 -19t114 -76l4 3q-1 35 11.5 63.5t28.5 28.5z" />
    <glyph glyph-name="Zcaron" unicode="&#x17d;" horiz-adv-x="573" 
d="M414 760q-7 0 -13 11l-67 143h19l71 -106l133 106h24l-148 -143q-11 -11 -19 -11zM638 680l-3 -12l-590 -641h326q42 0 60 26t41 100q4 14 7 22h28l-51 -175h-475l4 13l593 640h-324q-29 0 -47.5 -16.5t-26.5 -34t-25 -70.5q-6 -17 -9 -26h-27l50 174h469z" />
    <glyph glyph-name="zcaron" unicode="&#x17e;" horiz-adv-x="425" 
d="M322 580q-7 0 -13 11l-67 143h19l71 -106l133 106h24l-148 -143q-11 -11 -19 -11zM437 507q15 0 15 -21q0 -38 -44 -80q-25 -25 -52.5 -53t-39.5 -40.5t-28.5 -27.5t-33.5 -30q-108 -91 -197 -160q50 -32 72.5 -44.5t51.5 -22.5t59 -10q61 0 78 25q-16 1 -24 9.5t-8 20.5
q0 13 9 21.5t23 8.5t23.5 -9.5t9.5 -25.5q0 -29 -30 -53.5t-91 -24.5q-47 0 -83.5 18.5t-108.5 72.5q-2 -1 -4 -3q-6 -42 -19 -65t-27 -23q-15 0 -15 22q0 45 47 85l356 300q-58 36 -79 48t-51.5 23t-60.5 11q-60 0 -78 -25q31 0 31 -30q0 -13 -9 -21.5t-22 -8.5
q-14 0 -23.5 9.5t-9.5 25.5q0 29 30 53.5t90 24.5q48 0 85 -19t114 -76l4 3q-1 35 11.5 63.5t28.5 28.5z" />
    <glyph glyph-name="Scommaaccent" unicode="&#x218;" horiz-adv-x="550" 
d="M371 690q76 0 136 -39t60 -96q0 -50 -36 -50q-15 0 -24.5 8.5t-9.5 22.5q0 15 10.5 24.5t25.5 9.5h6q-9 42 -59 67t-108 25q-84 0 -137 -45t-53 -108q0 -32 16 -58t42 -44.5t57 -35t62.5 -34t57.5 -38t42 -50.5t16 -67q0 -79 -63 -136.5t-162 -57.5q-87 0 -151.5 47.5
t-68.5 132.5q0 11 2.5 22.5t12 23t24.5 11.5t23 -9t8 -21q0 -15 -10.5 -25t-26.5 -10h-4q5 -65 58.5 -104t130.5 -39q88 0 139 48t51 111q0 45 -30.5 79t-73.5 56t-86 45.5t-73.5 60t-30.5 86.5q0 78 65 132.5t162 54.5zM210 -77q35 0 35 -40t-30.5 -76.5t-82.5 -49.5l-5 17
q76 24 83 81q-15 2 -25.5 10.5t-10.5 21.5q0 16 10.5 26t25.5 10z" />
    <glyph glyph-name="scommaaccent" unicode="&#x219;" horiz-adv-x="441" 
d="M271 507q62 0 110.5 -29t48.5 -77q0 -19 -9.5 -32.5t-25.5 -13.5q-14 0 -24 9t-10 22q0 15 13.5 24.5t27.5 7.5q-8 29 -46 46t-82 17q-58 0 -96.5 -30t-38.5 -76q0 -33 23 -56.5t56 -38.5t66 -31t56 -44t23 -67q0 -63 -52 -105.5t-123 -42.5q-68 0 -119.5 37.5
t-51.5 95.5q0 23 10.5 37t27.5 14q14 0 23 -8.5t9 -21.5q0 -15 -12.5 -25t-29.5 -8q4 -40 44.5 -67.5t94.5 -27.5q61 0 103 33t42 82q0 34 -23 58t-56 39t-66 30.5t-56 43t-23 67.5q0 61 48 99.5t118 38.5zM156 -75q35 0 35 -40t-30.5 -76.5t-82.5 -49.5l-5 17q76 24 83 81
q-15 2 -25.5 10.5t-10.5 21.5q0 16 10.5 26t25.5 10z" />
    <glyph glyph-name="uni021A" unicode="&#x21a;" horiz-adv-x="645" 
d="M173 680h545l-48 -169h-28q2 6 5 19q22 67 14.5 95t-66.5 28h-140l-172 -602q-4 -15 -1 -19t18 -4h123l-8 -28h-329l8 28h123q15 0 20.5 4t9.5 19l172 602h-139q-14 0 -25 -1.5t-19.5 -2.5t-16.5 -7t-13 -8.5t-11 -13t-9 -14t-8.5 -19.5t-7.5 -21t-8.5 -26t-9.5 -29h-27z
M229 -77q35 0 35 -40t-30.5 -76.5t-82.5 -49.5l-5 17q76 24 83 81q-15 2 -25.5 10.5t-10.5 21.5q0 16 10.5 26t25.5 10z" />
    <glyph glyph-name="uni021B" unicode="&#x21b;" horiz-adv-x="344" 
d="M201 473l-101 -353q-14 -47 1 -73.5t48 -26.5q73 0 124 140h25q-59 -170 -154 -170q-48 0 -71.5 35.5t-6.5 95.5l102 352h-94l8 27h94l43 100h19l-29 -100h187l-8 -27h-187zM101 -77q35 0 35 -40t-30.5 -76.5t-82.5 -49.5l-5 17q76 24 83 81q-15 2 -25.5 10.5t-10.5 21.5
q0 16 10.5 26t25.5 10z" />
    <glyph glyph-name="circumflex" unicode="&#x2c6;" horiz-adv-x="317" 
d="M154 580h-24l148 143q11 11 19 11q7 0 13 -11l67 -143h-19l-71 106z" />
    <glyph glyph-name="caron" unicode="&#x2c7;" horiz-adv-x="317" 
d="M394 734h24l-148 -143q-11 -11 -19 -11q-7 0 -13 11l-67 143h19l71 -106z" />
    <glyph glyph-name="breve" unicode="&#x2d8;" horiz-adv-x="313" 
d="M403 707q-23 -55 -63.5 -85t-88.5 -30t-71 30t-14 85h25q-7 -84 64 -84q75 0 120 84h28z" />
    <glyph glyph-name="dotaccent" unicode="&#x2d9;" horiz-adv-x="260" 
d="M239 594q-15 0 -25 10t-10 24q0 15 10 25.5t25 10.5t24.5 -10t9.5 -25t-9.5 -25t-24.5 -10z" />
    <glyph glyph-name="ring" unicode="&#x2da;" horiz-adv-x="269" 
d="M225 560q-38 0 -61 22.5t-23 56.5q0 45 31.5 75t74.5 30q37 0 60.5 -22.5t23.5 -56.5q0 -44 -32 -74.5t-74 -30.5zM227 584q31 0 54.5 23.5t23.5 56.5q0 25 -16.5 41t-43.5 16q-32 0 -55 -24.5t-23 -55.5q0 -24 16.5 -40.5t43.5 -16.5z" />
    <glyph glyph-name="ogonek" unicode="&#x2db;" horiz-adv-x="268" 
d="M75 -208q-35 -17 -69 -17q-35 0 -54.5 17.5t-19.5 48.5q0 35 30 71t124 114h26q-93 -85 -120 -116t-27 -60q0 -46 51 -46q30 0 68 20z" />
    <glyph glyph-name="tilde" unicode="&#x2dc;" horiz-adv-x="391" 
d="M448 657q-26 -81 -86 -81q-31 0 -70 35t-62 35q-38 0 -61 -58l-21 8q26 81 87 81q25 0 49 -17.5t45 -35.5t40 -18q37 0 57 57z" />
    <glyph glyph-name="hungarumlaut" unicode="&#x2dd;" horiz-adv-x="382" 
d="M182 580q96 113 135 146q19 15 33 1t-4 -33q-10 -13 -59.5 -51.5t-84.5 -62.5h-20zM322 580q96 113 135 146q19 15 33 1t-4 -33q-10 -13 -59.5 -51.5t-84.5 -62.5h-20z" />
    <glyph glyph-name="uni030C" unicode="&#x30c;" horiz-adv-x="0" 
d="M-26 690q15 0 25 -10.5t10 -32.5q0 -43 -32 -85.5t-84 -63.5l-9 17q80 34 87 105q-32 7 -32 34q0 15 9.5 25.5t25.5 10.5z" />
    <glyph glyph-name="uni0326" unicode="&#x326;" horiz-adv-x="0" 
d="M-184 -77q35 0 35 -40t-30.5 -76.5t-82.5 -49.5l-5 17q76 24 83 81q-15 2 -25.5 10.5t-10.5 21.5q0 16 10.5 26t25.5 10z" />
    <glyph glyph-name="Wgrave" unicode="&#x1e80;" horiz-adv-x="1090" 
d="M694 759h-17q-16 27 -35 71.5t-19 62.5q0 10 6.5 15.5t13.5 5.5q17 0 22 -19q12 -36 29 -136zM982 680h231l-8 -27h-42q-35 0 -55 -30l-404 -623h-23l-34 601l-375 -601h-22l-54 624q-3 29 -39 29h-41l8 27h236l-8 -27h-87q-33 0 -30 -33l47 -552l346 554q9 14 5 22.5
t-20 8.5h-88l8 27h276l-8 -27h-90q-16 0 -24.5 -9t-7.5 -23l34 -554l360 553q19 33 -12 33h-87z" />
    <glyph glyph-name="wgrave" unicode="&#x1e81;" horiz-adv-x="741" 
d="M475 579h-17q-16 27 -35 71.5t-19 62.5q0 10 6.5 15.5t13.5 5.5q17 0 22 -19q12 -36 29 -136zM647 507q33 0 54.5 -30.5t21.5 -91.5q0 -83 -36 -174t-101.5 -156t-138.5 -65q-48 0 -75 28.5t-27 75.5q0 29 23 103h-3q-79 -207 -196 -207q-45 0 -72.5 28t-27.5 72
q0 55 60.5 184t60.5 161q0 18 -11 30t-27 12q-28 0 -52 -32.5t-50 -107.5h-25q57 170 136 170q28 0 46 -19t18 -48q0 -40 -60 -167.5t-60 -175.5q0 -34 19 -55t51 -21q146 0 270 479h33q-13 -55 -40.5 -145t-45 -155t-17.5 -96q0 -38 21 -60.5t57 -22.5q59 0 116.5 60
t92 146.5t34.5 166.5q0 54 -25 75q-7 -29 -33 -29q-14 0 -23 9t-9 23q0 15 11 25t30 10z" />
    <glyph glyph-name="Wacute" unicode="&#x1e82;" horiz-adv-x="1090" 
d="M855 874q-10 -13 -59.5 -51.5t-84.5 -62.5h-20q96 113 135 146q19 15 33 1t-4 -33zM982 680h231l-8 -27h-42q-35 0 -55 -30l-404 -623h-23l-34 601l-375 -601h-22l-54 624q-3 29 -39 29h-41l8 27h236l-8 -27h-87q-33 0 -30 -33l47 -552l346 554q9 14 5 22.5t-20 8.5h-88
l8 27h276l-8 -27h-90q-16 0 -24.5 -9t-7.5 -23l34 -554l360 553q19 33 -12 33h-87z" />
    <glyph glyph-name="wacute" unicode="&#x1e83;" horiz-adv-x="741" 
d="M636 694q-10 -13 -59.5 -51.5t-84.5 -62.5h-20q96 113 135 146q19 15 33 1t-4 -33zM647 507q33 0 54.5 -30.5t21.5 -91.5q0 -83 -36 -174t-101.5 -156t-138.5 -65q-48 0 -75 28.5t-27 75.5q0 29 23 103h-3q-79 -207 -196 -207q-45 0 -72.5 28t-27.5 72q0 55 60.5 184
t60.5 161q0 18 -11 30t-27 12q-28 0 -52 -32.5t-50 -107.5h-25q57 170 136 170q28 0 46 -19t18 -48q0 -40 -60 -167.5t-60 -175.5q0 -34 19 -55t51 -21q146 0 270 479h33q-13 -55 -40.5 -145t-45 -155t-17.5 -96q0 -38 21 -60.5t57 -22.5q59 0 116.5 60t92 146.5t34.5 166.5
q0 54 -25 75q-7 -29 -33 -29q-14 0 -23 9t-9 23q0 15 11 25t30 10z" />
    <glyph glyph-name="Wdieresis" unicode="&#x1e84;" horiz-adv-x="1090" 
d="M613 774q-15 0 -25 10t-10 24q0 15 10 25.5t25 10.5t24.5 -10t9.5 -25t-9.5 -25t-24.5 -10zM803 774q-15 0 -25 10t-10 24q0 15 10 25.5t25 10.5t24.5 -10t9.5 -25t-9.5 -25t-24.5 -10zM982 680h231l-8 -27h-42q-35 0 -55 -30l-404 -623h-23l-34 601l-375 -601h-22
l-54 624q-3 29 -39 29h-41l8 27h236l-8 -27h-87q-33 0 -30 -33l47 -552l346 554q9 14 5 22.5t-20 8.5h-88l8 27h276l-8 -27h-90q-16 0 -24.5 -9t-7.5 -23l34 -554l360 553q19 33 -12 33h-87z" />
    <glyph glyph-name="wdieresis" unicode="&#x1e85;" horiz-adv-x="741" 
d="M394 594q-15 0 -25 10t-10 24q0 15 10 25.5t25 10.5t24.5 -10t9.5 -25t-9.5 -25t-24.5 -10zM584 594q-15 0 -25 10t-10 24q0 15 10 25.5t25 10.5t24.5 -10t9.5 -25t-9.5 -25t-24.5 -10zM647 507q33 0 54.5 -30.5t21.5 -91.5q0 -83 -36 -174t-101.5 -156t-138.5 -65
q-48 0 -75 28.5t-27 75.5q0 29 23 103h-3q-79 -207 -196 -207q-45 0 -72.5 28t-27.5 72q0 55 60.5 184t60.5 161q0 18 -11 30t-27 12q-28 0 -52 -32.5t-50 -107.5h-25q57 170 136 170q28 0 46 -19t18 -48q0 -40 -60 -167.5t-60 -175.5q0 -34 19 -55t51 -21q146 0 270 479h33
q-13 -55 -40.5 -145t-45 -155t-17.5 -96q0 -38 21 -60.5t57 -22.5q59 0 116.5 60t92 146.5t34.5 166.5q0 54 -25 75q-7 -29 -33 -29q-14 0 -23 9t-9 23q0 15 11 25t30 10z" />
    <glyph glyph-name="Ygrave" unicode="&#x1ef2;" horiz-adv-x="641" 
d="M469 759h-17q-16 27 -35 71.5t-19 62.5q0 10 6.5 15.5t13.5 5.5q17 0 22 -19q12 -36 29 -136zM509 680h255l-8 -27h-56q-35 0 -61 -29l-294 -344l-66 -229q-5 -15 -2 -19t18 -4h79l-7 -28h-242l8 28h79q15 0 21 4t10 19l66 228l-94 346q-7 28 -43 28h-56l8 27h258l-8 -27
h-93q-35 0 -27 -31l82 -314l269 314q26 31 -9 31h-95z" />
    <glyph glyph-name="ygrave" unicode="&#x1ef3;" horiz-adv-x="586" 
d="M398 579h-17q-16 27 -35 71.5t-19 62.5q0 10 6.5 15.5t13.5 5.5q17 0 22 -19q12 -36 29 -136zM474 507q32 0 54.5 -32.5t22.5 -90.5q0 -74 -37 -173t-94.5 -188t-137 -151t-156.5 -62q-56 0 -102.5 29t-46.5 69q0 19 10 31t28 12q13 0 22 -7.5t9 -21.5q0 -15 -10.5 -24.5
t-27.5 -10.5q12 -20 47.5 -36t72.5 -16q49 0 101 30q51 308 39 460t-93 152q-38 0 -65 -33t-52 -107h-26q28 88 62 129t87 41q38 0 64 -20.5t39 -62t18 -93.5t0.5 -126t-13.5 -147t-24 -168q102 79 179 232t77 261q0 60 -23 85q-7 -28 -33 -28q-14 0 -23 9t-9 23t11 24.5
t30 10.5z" />
    <glyph glyph-name="uni2009" unicode="&#x2009;" horiz-adv-x="133" 
 />
    <glyph glyph-name="uni200A" unicode="&#x200a;" horiz-adv-x="73" 
 />
    <glyph glyph-name="endash" unicode="&#x2013;" horiz-adv-x="500" 
d="M68 277h380l-8 -28h-380z" />
    <glyph glyph-name="emdash" unicode="&#x2014;" horiz-adv-x="1001" 
d="M68 276h880l-8 -27h-880z" />
    <glyph glyph-name="quoteleft" unicode="&#x2018;" horiz-adv-x="201" 
d="M181 496q-15 0 -25 10.5t-10 32.5q0 52 46 101.5t115 63.5l5 -19q-117 -32 -128 -119q32 -7 32 -34q0 -15 -9.5 -25.5t-25.5 -10.5z" />
    <glyph glyph-name="quoteright" unicode="&#x2019;" horiz-adv-x="200" 
d="M220 700q15 0 25 -10.5t10 -32.5q0 -52 -46 -101.5t-115 -63.5l-5 19q117 32 128 119q-32 7 -32 34q0 15 9.5 25.5t25.5 10.5z" />
    <glyph glyph-name="quotesinglbase" unicode="&#x201a;" horiz-adv-x="201" 
d="M38 63q15 0 25 -10.5t10 -32.5q0 -52 -46 -101.5t-115 -63.5l-5 19q117 32 128 119q-32 7 -32 34q0 15 9.5 25.5t25.5 10.5z" />
    <glyph glyph-name="quotedblleft" unicode="&#x201c;" horiz-adv-x="346" 
d="M181 496q-15 0 -25 10.5t-10 32.5q0 52 46 101.5t115 63.5l5 -19q-117 -32 -128 -119q32 -7 32 -34q0 -15 -9.5 -25.5t-25.5 -10.5zM326 496q-15 0 -25 10.5t-10 32.5q0 52 46 101.5t115 63.5l5 -19q-117 -32 -128 -119q32 -7 32 -34q0 -15 -9.5 -25.5t-25.5 -10.5z" />
    <glyph glyph-name="quotedblright" unicode="&#x201d;" horiz-adv-x="345" 
d="M220 700q15 0 25 -10.5t10 -32.5q0 -52 -46 -101.5t-115 -63.5l-5 19q117 32 128 119q-32 7 -32 34q0 15 9.5 25.5t25.5 10.5zM365 700q15 0 25 -10.5t10 -32.5q0 -52 -46 -101.5t-115 -63.5l-5 19q117 32 128 119q-32 7 -32 34q0 15 9.5 25.5t25.5 10.5z" />
    <glyph glyph-name="quotedblbase" unicode="&#x201e;" horiz-adv-x="345" 
d="M38 63q15 0 25 -10.5t10 -32.5q0 -52 -46 -101.5t-115 -63.5l-5 19q117 32 128 119q-32 7 -32 34q0 15 9.5 25.5t25.5 10.5zM182 63q15 0 25 -10.5t10 -32.5q0 -52 -46 -101.5t-115 -63.5l-5 19q117 32 128 119q-32 7 -32 34q0 15 9.5 25.5t25.5 10.5z" />
    <glyph glyph-name="dagger" unicode="&#x2020;" horiz-adv-x="503" 
d="M510 603q23 0 23 -20q0 -19 -23 -19q-28 0 -145 11l-14 -7l-13 -81l-77 -221h-12l49 221l37 84l-2 4q-146 -11 -149 -11q-23 0 -23 19q0 20 23 20q22 0 149 -12l10 6q4 19 10 51l10.5 56t9.5 41q7 21 26 17q19 -7 12 -28q-6 -20 -25 -68.5t-27 -73.5v-1q14 1 71 6.5
t80 5.5z" />
    <glyph glyph-name="daggerdbl" unicode="&#x2021;" horiz-adv-x="504" 
d="M510 600q23 0 23 -19q0 -20 -23 -20q-2 0 -148 11l-11 -6l-12 -79l-36 -90l1 -2q130 12 150 12q23 0 23 -19q0 -20 -23 -20q-21 0 -148 12l-11 -7q-3 -13 -13 -69t-16 -78t-26 -17q-19 5 -12 28q6 21 25.5 71.5t26.5 69.5l-1 2q-13 -1 -70 -6.5t-80 -5.5q-24 0 -24 20
q0 19 24 19q29 0 146 -11l13 7l7 84l40 83l-1 3q-10 -1 -68 -6.5t-82 -5.5q-23 0 -23 20q0 19 23 19q31 0 148 -11l11 6q24 128 30 148q6 21 25 17q18 -6 12 -28q-2 -6 -52 -141l1 -3q132 12 151 12z" />
    <glyph glyph-name="bullet" unicode="&#x2022;" horiz-adv-x="389" 
d="M222 259q-36 0 -61 25.5t-25 62.5t25 62.5t61 25.5t61.5 -25.5t25.5 -62.5t-25.5 -62.5t-61.5 -25.5z" />
    <glyph glyph-name="ellipsis" unicode="&#x2026;" horiz-adv-x="471" 
d="M37 63q15 0 24.5 -10t9.5 -25t-9.5 -25t-24.5 -10t-25 10.5t-10 25.5q0 14 10 24t25 10zM261 63q15 0 24.5 -10t9.5 -25t-9.5 -25t-24.5 -10q-11 0 -21 7q-10 -7 -21 -7q-15 0 -25 10.5t-10 25.5q0 14 10 24t25 10q13 0 21 -7q8 7 21 7z" />
    <glyph glyph-name="perthousand" unicode="&#x2030;" horiz-adv-x="1472" 
d="M543 353l-7 8q19 20 170.5 167.5t159.5 154.5q21 20 32 7q11 -12 -10 -30q-293 -266 -345 -307zM272 282q-76 0 -121 46.5t-45 118.5q0 95 66.5 169t158.5 74q75 0 120 -46.5t45 -118.5q0 -95 -66.5 -169t-157.5 -74zM271 306q77 0 134.5 69.5t57.5 153.5q0 61 -35 99
t-97 38q-78 0 -135.5 -69.5t-57.5 -152.5q0 -62 35 -100t98 -38zM728 -10q-76 0 -121 46.5t-45 118.5q0 95 66.5 169t158.5 74q75 0 120 -46.5t45 -118.5q0 -95 -66.5 -169t-157.5 -74zM1193 -10q-76 0 -121 46.5t-45 118.5q0 95 66.5 169t158.5 74q75 0 120 -46.5
t45 -118.5q0 -95 -66.5 -169t-157.5 -74zM727 14q77 0 134.5 69.5t57.5 153.5q0 61 -35 99t-97 38q-78 0 -135.5 -69.5t-57.5 -152.5q0 -62 35 -100t98 -38zM1195 14q77 0 133 68t56 152q0 61 -36.5 100.5t-98.5 39.5q-78 0 -134 -67.5t-56 -150.5q0 -62 36.5 -102t99.5 -40
zM146 -4q-10 12 10 30q3 2 82.5 73.5t161 144t95.5 82.5l7 -9q-17 -18 -166 -162.5t-158 -152.5q-21 -19 -32 -6z" />
    <glyph glyph-name="guilsinglleft" unicode="&#x2039;" horiz-adv-x="289" 
d="M193 77l-19 -15l-135 185l8 25l240 184l15 -20l-227 -180z" />
    <glyph glyph-name="guilsinglright" unicode="&#x203a;" horiz-adv-x="289" 
d="M101 441l19 15l135 -185l-8 -25l-240 -184l-15 20l227 180z" />
    <glyph glyph-name="fraction" unicode="&#x2044;" horiz-adv-x="219" 
d="M125 361q55 60 196 197t156 137q14 0 14 -14q0 -12 -156 -151.5t-203 -176.5zM91 317q-76 -72 -142.5 -137t-98 -96.5t-57 -55.5t-34.5 -31t-14 -7t-9.5 4.5t-4.5 10.5q0 15 154 151.5t199 169.5z" />
    <glyph glyph-name="uni2081" unicode="&#x2081;" horiz-adv-x="253" 
d="M52 -64q-2 -8 0 -11t10 -3h77l-7 -22h-212l6 22h76q8 0 11 2.5t5 11.5l82 284q-29 -14 -86 -14l4 19q46 1 67.5 11.5t36.5 40.5h28z" />
    <glyph glyph-name="uni2082" unicode="&#x2082;" horiz-adv-x="298" 
d="M118 -70q28 1 39 14.5t24 52.5h23l-27 -97h-243l4 18q7 4 37 24t41 28t38.5 27.5t40 30.5t34.5 29.5t32.5 32t22.5 31t17 33.5t5 32q0 33 -21.5 51t-58.5 18q-62 0 -93 -42q10 0 17.5 -7t7.5 -17q0 -11 -8 -18.5t-19 -7.5t-19 7.5t-8 19.5q0 28 36 59t92 31
q50 0 80.5 -26t30.5 -69q0 -29 -16.5 -59.5t-39 -54.5t-62 -53t-68 -46.5t-73.5 -44.5z" />
    <glyph glyph-name="uni2083" unicode="&#x2083;" horiz-adv-x="285" 
d="M234 188q0 -43 -34 -69.5t-91 -28.5q40 -6 60.5 -30.5t20.5 -56.5q0 -45 -37.5 -76.5t-90.5 -31.5q-48 0 -82 25.5t-34 64.5q0 37 28 37q10 0 17 -7t7 -17q0 -11 -8 -18t-21 -7q6 -26 30.5 -40t55.5 -14q44 0 72 26t28 61q0 32 -23 52.5t-63 20.5h-17l6 25h41
q42 0 71 25.5t29 61.5q0 30 -20.5 47.5t-57.5 17.5q-56 0 -83 -33q21 -6 21 -24q0 -10 -7.5 -17.5t-18.5 -7.5q-25 0 -25 27t33 53t84 26q49 0 79 -25.5t30 -66.5z" />
    <glyph glyph-name="Euro" unicode="&#x20ac;" horiz-adv-x="753" 
d="M515 690q102 0 163 -51.5t61 -139.5q0 -60 -36 -60q-14 0 -24 9t-10 22q0 14 10.5 23.5t26.5 9.5q5 0 7 -1v6q0 70 -54.5 111.5t-142.5 41.5q-101 0 -181.5 -63.5t-121.5 -168.5h295l-8 -26h-296q-21 -64 -24 -137h281l-8 -26h-273q2 -97 61.5 -159t150.5 -62
q160 0 260 173h30q-108 -202 -293 -202q-103 0 -173 70.5t-74 179.5h-105l8 26h97q1 69 22 137h-80l8 26h81q44 118 135.5 189.5t206.5 71.5z" />
    <glyph glyph-name="uni2116" unicode="&#x2116;" horiz-adv-x="1234" 
d="M1003 270q-64 0 -106 39t-42 118q0 102 66.5 180.5t161.5 78.5q67 0 108.5 -42t41.5 -119q0 -101 -67 -178t-163 -77zM847 680l-8 -27h-87q-15 0 -20 -4.5t-10 -19.5l-180 -629h-18l-246 634l-167 -583q-4 -15 -1 -19t18 -4h79l-8 -28h-235l8 28h79q15 0 20.5 4t9.5 19
l166 578q4 15 1 19.5t-18 4.5h-79l8 27h138l235 -610l160 559q5 15 2 19.5t-18 4.5h-79l8 27h242zM1001 295q83 0 141 72t58 163q0 65 -31.5 98.5t-84.5 33.5q-82 0 -139.5 -74t-57.5 -165q0 -65 31.5 -96.5t82.5 -31.5zM789 156l8 26h331l-8 -26h-331z" />
    <glyph glyph-name="uni2117" unicode="&#x2117;" horiz-adv-x="787" 
d="M419 -10q-147 0 -247.5 101t-100.5 250q0 147 100.5 248t247.5 101t248 -100.5t101 -248.5q0 -149 -101 -250t-248 -101zM419 13q136 0 230.5 95.5t94.5 232.5q0 136 -94.5 231t-230.5 95q-134 0 -228.5 -95t-94.5 -231q0 -137 94.5 -232.5t228.5 -95.5zM448 301h-79
v-107q0 -8 2.5 -10.5t10.5 -2.5h74v-23h-171v23h42q8 0 10 2.5t2 10.5v292q0 8 -2 10.5t-10 2.5h-42v23h163q59 0 96.5 -31.5t37.5 -78.5q0 -48 -37.5 -79.5t-96.5 -31.5zM369 499v-174h78q46 0 75 25t29 62t-29 62t-75 25h-78z" />
    <glyph glyph-name="uni2120" unicode="&#x2120;" horiz-adv-x="816" 
d="M330 586q0 10 9 16t21 5q-4 26 -29.5 41t-58.5 15q-38 0 -61 -19t-23 -45q0 -21 15.5 -36.5t37.5 -26t44.5 -22t38 -29.5t15.5 -43q0 -38 -32.5 -64.5t-80.5 -26.5q-47 0 -83 24.5t-36 66.5q0 21 9 32.5t22 11.5q23 0 23 -20q0 -11 -10.5 -17.5t-22.5 -4.5
q1 -34 29.5 -53t66.5 -19q40 0 62.5 20t22.5 47q0 24 -23.5 42.5t-51.5 28.5t-51.5 32t-23.5 52q0 38 31.5 64t78.5 26q45 0 78 -22.5t33 -58.5q0 -38 -27 -38q-9 0 -16 5.5t-7 15.5zM796 680h88l-7 -22h-39q-14 0 -18 -14l-73 -252q-4 -13 11 -13h40l-7 -23h-135l7 23h38
q14 0 18 13l70 247l-185 -207h-13l-70 207l-70 -247q-4 -13 10 -13h40l-7 -23h-132l7 23h40q13 0 17 13l73 252q4 14 -11 14h-39l6 22h80l71 -213z" />
    <glyph glyph-name="trademark" unicode="&#x2122;" horiz-adv-x="866" 
d="M464 680l-27 -95h-20q12 41 9 57t-31 16h-69l-77 -266q-4 -13 11 -13h61l-7 -23h-178l7 23h60q14 0 18 13l76 266h-70q-28 0 -38 -13.5t-24 -59.5h-20l27 95h292zM888 655q-15 0 -18 -13l-72 -250q-2 -8 0 -10.5t11 -2.5h39l-6 -23h-135l7 23h38q13 0 17 13l71 247
l-186 -207h-12l-70 207l-71 -247q-4 -13 11 -13h40l-7 -23h-132l7 23h40q13 0 17 13l72 250q4 13 -10 13h-40l7 25h81l70 -213l191 213h87l-8 -25h-39z" />
    <glyph glyph-name="arrowup" unicode="&#x2191;" horiz-adv-x="703" 
d="M139 411l221 270h20l220 -270l-13 -11l-206 206q4 -275 4 -351v-255h-30v255q0 76 4 351l-208 -206z" />
    <glyph glyph-name="arrowdown" unicode="&#x2193;" horiz-adv-x="703" 
d="M99 270l12 11l208 -206q-4 275 -4 351v255h30v-255q0 -76 -4 -351l206 206l13 -11l-220 -270h-20z" />
    <glyph glyph-name="arrowupdn" unicode="&#x2195;" horiz-adv-x="742" 
d="M380 75l206 206l13 -11l-220 -270h-20l-221 270l13 11l207 -206q-1 54 -1.5 83.5t-1 35t-1 8.5t-0.5 11.5v35.5v180v27.5v12.5t0.5 5.5t0.5 4t0.5 9t0.5 19t0.5 36.5t1.5 60l-207 -206l-13 11l221 270h20l220 -270l-13 -11l-206 206q1 -54 1.5 -83.5t1 -35t1 -8.5
t0.5 -11.5v-35.5v-180v-27.5v-12.5t-0.5 -5.5t-0.5 -4t-0.5 -9t-0.5 -19t-0.5 -36.5t-1.5 -60z" />
    <glyph glyph-name="uni2196" unicode="&#x2196;" horiz-adv-x="1003" 
d="M542 611v-17l-313 -23q220 -212 252 -245l273 -274l-21 -21l-273 274q-127 129 -246 251l-21 -312h-17l-15 366l14 14z" />
    <glyph glyph-name="uni2197" unicode="&#x2197;" horiz-adv-x="771" 
d="M295 611l367 13l14 -14l-15 -366h-17l-21 312q-119 -122 -246 -251l-273 -274l-21 21l273 274q32 33 252 245l-313 23v17z" />
    <glyph glyph-name="uni2198" unicode="&#x2198;" horiz-adv-x="1000" 
d="M463 78v17l313 23q-220 212 -252 245l-273 274l21 21l273 -274q127 -129 246 -251l21 312h17l15 -366l-14 -14z" />
    <glyph glyph-name="uni2199" unicode="&#x2199;" horiz-adv-x="772" 
d="M478 75l-367 -13l-14 14l15 366h17l21 -312q119 122 246 251l273 274l21 -21l-273 -274q-32 -33 -252 -245l313 -23v-17z" />
    <glyph glyph-name="minus" unicode="&#x2212;" horiz-adv-x="596" 
d="M90 285l7 26h436l-7 -26h-436z" />
    <glyph glyph-name="approxequal" unicode="&#x2248;" 
d="M580 437q-30 -81 -114 -81q-42 0 -116 36.5t-117 36.5q-62 0 -86 -60l-22 9q32 78 113 78q44 0 120.5 -36.5t112.5 -36.5q60 0 86 60zM515 267q-30 -81 -113 -81q-43 0 -117 36.5t-116 36.5q-62 0 -86 -60l-22 9q32 78 112 78q44 0 120.5 -36.5t112.5 -36.5q61 0 87 60z
" />
    <glyph glyph-name="notequal" unicode="&#x2260;" horiz-adv-x="596" 
d="M558 395h-158l-133 -154h246l-7 -26h-262l-135 -156h-30l135 156h-144l7 26h160l133 154h-248l7 26h264l134 155h30l-134 -155h142z" />
    <glyph glyph-name="lessequal" unicode="&#x2264;" horiz-adv-x="596" 
d="M605 563l-9 -32l-434 -153l346 -152l-8 -28l-377 171l7 23zM31 79l7 26h436l-7 -26h-436z" />
    <glyph glyph-name="greaterequal" unicode="&#x2265;" horiz-adv-x="596" 
d="M75 198l9 31l434 153l-347 152l9 29l376 -172l-6 -23zM31 79l7 26h436l-7 -26h-436z" />
    <glyph glyph-name="A.fina" horiz-adv-x="941" 
d="M866 213q16 0 26.5 -12.5t10.5 -31.5q0 -74 -56.5 -126.5t-152.5 -52.5q-156 0 -223 166l-20 50h-295l-45 -155q-4 -15 -1 -19t18 -4h86l-8 -28h-242l8 28h79q15 0 20.5 4t9.5 19l166 578q4 15 1 19.5t-18 4.5h-79l8 27h139l211 -519q59 -143 190 -143q66 0 117.5 37
t56.5 94q-17 -2 -29 8t-12 24t9.5 23t24.5 9zM163 233h277l-161 403z" />
    <glyph glyph-name="Aacute.fina" horiz-adv-x="941" 
d="M462 874q-10 -13 -59.5 -51.5t-84.5 -62.5h-20q96 113 135 146q19 15 33 1t-4 -33zM866 213q16 0 26.5 -12.5t10.5 -31.5q0 -74 -56.5 -126.5t-152.5 -52.5q-156 0 -223 166l-20 50h-295l-45 -155q-4 -15 -1 -19t18 -4h86l-8 -28h-242l8 28h79q15 0 20.5 4t9.5 19
l166 578q4 15 1 19.5t-18 4.5h-79l8 27h139l211 -519q59 -143 190 -143q66 0 117.5 37t56.5 94q-17 -2 -29 8t-12 24t9.5 23t24.5 9zM163 233h277l-161 403z" />
    <glyph glyph-name="Abreve.fina" horiz-adv-x="941" 
d="M304 772q-48 0 -71 30t-14 85h25q-7 -84 64 -84q75 0 120 84h28q-23 -55 -63.5 -85t-88.5 -30zM866 213q16 0 26.5 -12.5t10.5 -31.5q0 -74 -56.5 -126.5t-152.5 -52.5q-156 0 -223 166l-20 50h-295l-45 -155q-4 -15 -1 -19t18 -4h86l-8 -28h-242l8 28h79q15 0 20.5 4
t9.5 19l166 578q4 15 1 19.5t-18 4.5h-79l8 27h139l211 -519q59 -143 190 -143q66 0 117.5 37t56.5 94q-17 -2 -29 8t-12 24t9.5 23t24.5 9zM163 233h277l-161 403z" />
    <glyph glyph-name="Acircumflex.fina" horiz-adv-x="941" 
d="M334 866l-133 -106h-24l148 143q11 11 19 11q7 0 13 -11l67 -143h-19zM866 213q16 0 26.5 -12.5t10.5 -31.5q0 -74 -56.5 -126.5t-152.5 -52.5q-156 0 -223 166l-20 50h-295l-45 -155q-4 -15 -1 -19t18 -4h86l-8 -28h-242l8 28h79q15 0 20.5 4t9.5 19l166 578
q4 15 1 19.5t-18 4.5h-79l8 27h139l211 -519q59 -143 190 -143q66 0 117.5 37t56.5 94q-17 -2 -29 8t-12 24t9.5 23t24.5 9zM163 233h277l-161 403z" />
    <glyph glyph-name="Adieresis.fina" horiz-adv-x="941" 
d="M220 774q-15 0 -25 10t-10 24q0 15 10 25.5t25 10.5t24.5 -10t9.5 -25t-9.5 -25t-24.5 -10zM410 774q-15 0 -25 10t-10 24q0 15 10 25.5t25 10.5t24.5 -10t9.5 -25t-9.5 -25t-24.5 -10zM866 213q16 0 26.5 -12.5t10.5 -31.5q0 -74 -56.5 -126.5t-152.5 -52.5
q-156 0 -223 166l-20 50h-295l-45 -155q-4 -15 -1 -19t18 -4h86l-8 -28h-242l8 28h79q15 0 20.5 4t9.5 19l166 578q4 15 1 19.5t-18 4.5h-79l8 27h139l211 -519q59 -143 190 -143q66 0 117.5 37t56.5 94q-17 -2 -29 8t-12 24t9.5 23t24.5 9zM163 233h277l-161 403z" />
    <glyph glyph-name="Agrave.fina" horiz-adv-x="941" 
d="M301 759h-17q-16 27 -35 71.5t-19 62.5q0 10 6.5 15.5t13.5 5.5q17 0 22 -19q12 -36 29 -136zM866 213q16 0 26.5 -12.5t10.5 -31.5q0 -74 -56.5 -126.5t-152.5 -52.5q-156 0 -223 166l-20 50h-295l-45 -155q-4 -15 -1 -19t18 -4h86l-8 -28h-242l8 28h79q15 0 20.5 4
t9.5 19l166 578q4 15 1 19.5t-18 4.5h-79l8 27h139l211 -519q59 -143 190 -143q66 0 117.5 37t56.5 94q-17 -2 -29 8t-12 24t9.5 23t24.5 9zM163 233h277l-161 403z" />
    <glyph glyph-name="Amacron.fina" horiz-adv-x="941" 
d="M444 819l-9 -30h-252l9 30h252zM866 213q16 0 26.5 -12.5t10.5 -31.5q0 -74 -56.5 -126.5t-152.5 -52.5q-156 0 -223 166l-20 50h-295l-45 -155q-4 -15 -1 -19t18 -4h86l-8 -28h-242l8 28h79q15 0 20.5 4t9.5 19l166 578q4 15 1 19.5t-18 4.5h-79l8 27h139l211 -519
q59 -143 190 -143q66 0 117.5 37t56.5 94q-17 -2 -29 8t-12 24t9.5 23t24.5 9zM163 233h277l-161 403z" />
    <glyph glyph-name="Aogonek.fina" horiz-adv-x="941" 
d="M829 28q-86 -78 -112.5 -108.5t-26.5 -59.5q0 -46 51 -46q30 0 68 20l-9 -32q-35 -17 -69 -17q-35 0 -54.5 17.5t-19.5 48.5q0 32 23 62.5t89 86.5q-38 -10 -75 -10q-156 0 -223 166l-20 50h-295l-45 -155q-4 -15 -1 -19t18 -4h86l-8 -28h-242l8 28h79q15 0 20.5 4
t9.5 19l166 578q4 15 1 19.5t-18 4.5h-79l8 27h139l211 -519q59 -143 190 -143q66 0 117.5 37t56.5 94q-17 -2 -29 8t-12 24t9.5 23t24.5 9q16 0 26.5 -12.5t10.5 -31.5q0 -89 -74 -141zM163 233h277l-161 403z" />
    <glyph glyph-name="Aring.fina" horiz-adv-x="941" 
d="M309 740q-38 0 -61 22.5t-23 56.5q0 45 31.5 75t74.5 30q37 0 60.5 -22.5t23.5 -56.5q0 -44 -32 -74.5t-74 -30.5zM329 901q-32 0 -55 -24.5t-23 -55.5q0 -24 16.5 -40.5t43.5 -16.5q31 0 54.5 23.5t23.5 56.5q0 25 -16.5 41t-43.5 16zM866 213q16 0 26.5 -12.5
t10.5 -31.5q0 -74 -56.5 -126.5t-152.5 -52.5q-156 0 -223 166l-20 50h-295l-45 -155q-4 -15 -1 -19t18 -4h86l-8 -28h-242l8 28h79q15 0 20.5 4t9.5 19l166 578q4 15 1 19.5t-18 4.5h-79l8 27h139l211 -519q59 -143 190 -143q66 0 117.5 37t56.5 94q-17 -2 -29 8t-12 24
t9.5 23t24.5 9zM163 233h277l-161 403z" />
    <glyph glyph-name="Atilde.fina" horiz-adv-x="941" 
d="M247 826q-38 0 -61 -58l-21 8q26 81 87 81q25 0 49 -17.5t45 -35.5t40 -18q37 0 57 57l22 -6q-26 -81 -86 -81q-31 0 -70 35t-62 35zM866 213q16 0 26.5 -12.5t10.5 -31.5q0 -74 -56.5 -126.5t-152.5 -52.5q-156 0 -223 166l-20 50h-295l-45 -155q-4 -15 -1 -19t18 -4h86
l-8 -28h-242l8 28h79q15 0 20.5 4t9.5 19l166 578q4 15 1 19.5t-18 4.5h-79l8 27h139l211 -519q59 -143 190 -143q66 0 117.5 37t56.5 94q-17 -2 -29 8t-12 24t9.5 23t24.5 9zM163 233h277l-161 403z" />
    <glyph glyph-name="K.fina" horiz-adv-x="846" 
d="M118 51q-5 -15 -2 -19t18 -4h69l-8 -28h-231l8 28h79q15 0 20.5 4t9.5 19l166 578q4 15 1 19.5t-18 4.5h-79l8 27h231l-8 -27h-69q-15 0 -20 -4.5t-10 -19.5zM769 213q17 0 28 -14t11 -36q0 -66 -57.5 -119.5t-140.5 -53.5q-63 0 -119 31.5t-90 93.5l-120 217l361 299
q25 22 -4 22h-115l8 27h273l-8 -27h-44q-43 0 -77 -28l-354 -291l116 -208q61 -108 174 -108q66 0 114.5 38.5t53.5 93.5q-18 -4 -31 6t-13 26q0 13 10 22t24 9z" />
    <glyph glyph-name="Kcommaaccent.fina" horiz-adv-x="846" 
d="M118 51q-5 -15 -2 -19t18 -4h69l-8 -28h-231l8 28h79q15 0 20.5 4t9.5 19l166 578q4 15 1 19.5t-18 4.5h-79l8 27h231l-8 -27h-69q-15 0 -20 -4.5t-10 -19.5zM769 213q17 0 28 -14t11 -36q0 -66 -57.5 -119.5t-140.5 -53.5q-63 0 -119 31.5t-90 93.5l-120 217l361 299
q25 22 -4 22h-115l8 27h273l-8 -27h-44q-43 0 -77 -28l-354 -291l116 -208q61 -108 174 -108q66 0 114.5 38.5t53.5 93.5q-18 -4 -31 6t-13 26q0 13 10 22t24 9zM337 -77q35 0 35 -40t-30.5 -76.5t-82.5 -49.5l-5 17q76 24 83 81q-15 2 -25.5 10.5t-10.5 21.5q0 16 10.5 26
t25.5 10z" />
    <glyph glyph-name="R.fina" horiz-adv-x="826" 
d="M749 213q17 0 28 -14t11 -36q0 -66 -57.5 -119.5t-140.5 -53.5q-63 0 -120.5 34t-92.5 99l-90 163h-101l-68 -235q-5 -15 -2 -19t18 -4h93l-8 -28h-255l8 28h79q15 0 20.5 4t9.5 19l166 578q4 14 1.5 19t-18.5 5h-79l8 27h268q99 0 157.5 -44.5t58.5 -125.5
q0 -97 -90.5 -160.5t-218.5 -63.5h-6l89 -160q61 -108 174 -108q66 0 114.5 38.5t53.5 93.5q-18 -4 -31 6t-13 26q0 13 10 22t24 9zM290 653l-97 -340h148q111 0 188 56.5t77 140.5q0 69 -49 106t-133 37h-134z" />
    <glyph glyph-name="Racute.fina" horiz-adv-x="826" 
d="M575 874q-10 -13 -59.5 -51.5t-84.5 -62.5h-20q96 113 135 146q19 15 33 1t-4 -33zM749 213q17 0 28 -14t11 -36q0 -66 -57.5 -119.5t-140.5 -53.5q-63 0 -120.5 34t-92.5 99l-90 163h-101l-68 -235q-5 -15 -2 -19t18 -4h93l-8 -28h-255l8 28h79q15 0 20.5 4t9.5 19
l166 578q4 14 1.5 19t-18.5 5h-79l8 27h268q99 0 157.5 -44.5t58.5 -125.5q0 -97 -90.5 -160.5t-218.5 -63.5h-6l89 -160q61 -108 174 -108q66 0 114.5 38.5t53.5 93.5q-18 -4 -31 6t-13 26q0 13 10 22t24 9zM290 653l-97 -340h148q111 0 188 56.5t77 140.5q0 69 -49 106
t-133 37h-134z" />
    <glyph glyph-name="Rcaron.fina" horiz-adv-x="826" 
d="M442 760q-7 0 -13 11l-67 143h19l71 -106l133 106h24l-148 -143q-11 -11 -19 -11zM749 213q17 0 28 -14t11 -36q0 -66 -57.5 -119.5t-140.5 -53.5q-63 0 -120.5 34t-92.5 99l-90 163h-101l-68 -235q-5 -15 -2 -19t18 -4h93l-8 -28h-255l8 28h79q15 0 20.5 4t9.5 19
l166 578q4 14 1.5 19t-18.5 5h-79l8 27h268q99 0 157.5 -44.5t58.5 -125.5q0 -97 -90.5 -160.5t-218.5 -63.5h-6l89 -160q61 -108 174 -108q66 0 114.5 38.5t53.5 93.5q-18 -4 -31 6t-13 26q0 13 10 22t24 9zM290 653l-97 -340h148q111 0 188 56.5t77 140.5q0 69 -49 106
t-133 37h-134z" />
    <glyph glyph-name="Rcommaaccent.fina" horiz-adv-x="826" 
d="M749 213q17 0 28 -14t11 -36q0 -66 -57.5 -119.5t-140.5 -53.5q-63 0 -120.5 34t-92.5 99l-90 163h-101l-68 -235q-5 -15 -2 -19t18 -4h93l-8 -28h-255l8 28h79q15 0 20.5 4t9.5 19l166 578q4 14 1.5 19t-18.5 5h-79l8 27h268q99 0 157.5 -44.5t58.5 -125.5
q0 -97 -90.5 -160.5t-218.5 -63.5h-6l89 -160q61 -108 174 -108q66 0 114.5 38.5t53.5 93.5q-18 -4 -31 6t-13 26q0 13 10 22t24 9zM290 653l-97 -340h148q111 0 188 56.5t77 140.5q0 69 -49 106t-133 37h-134zM326 -77q35 0 35 -40t-30.5 -76.5t-82.5 -49.5l-5 17
q76 24 83 81q-15 2 -25.5 10.5t-10.5 21.5q0 16 10.5 26t25.5 10z" />
    <glyph glyph-name="A.init" horiz-adv-x="1004" 
d="M952 680h140l-9 -27h-79q-15 0 -20 -4.5t-10 -19.5l-165 -578q-4 -15 -1 -19t18 -4h79l-8 -28h-249l8 28h86q15 0 21 4t10 19l44 155h-309l-77 -76q-80 -78 -137 -108t-115 -30q-93 0 -140 51.5t-47 112.5q0 28 12 43.5t31 15.5q14 0 23.5 -9t9.5 -23q0 -19 -15 -28
t-32 -4q5 -58 47 -94.5t111 -36.5q31 0 55.5 5.5t67.5 32t93 75.5zM825 233l113 396l-402 -396h289z" />
    <glyph glyph-name="Aacute.init" horiz-adv-x="1004" 
d="M1194 907q14 -14 -4 -33q-10 -13 -59.5 -51.5t-84.5 -62.5h-20q96 113 135 146q19 15 33 1zM395 133l557 547h140l-9 -27h-79q-15 0 -20 -4.5t-10 -19.5l-165 -578q-4 -15 -1 -19t18 -4h79l-8 -28h-249l8 28h86q15 0 21 4t10 19l44 155h-309l-77 -76q-80 -78 -137 -108
t-115 -30q-93 0 -140 51.5t-47 112.5q0 28 12 43.5t31 15.5q14 0 23.5 -9t9.5 -23q0 -19 -15 -28t-32 -4q5 -58 47 -94.5t111 -36.5q31 0 55.5 5.5t67.5 32t93 75.5zM825 233l113 396l-402 -396h289z" />
    <glyph glyph-name="Abreve.init" horiz-adv-x="1004" 
d="M1156 887h28q-23 -55 -63.5 -85t-88.5 -30t-71 30t-14 85h25q-7 -84 64 -84q75 0 120 84zM395 133l557 547h140l-9 -27h-79q-15 0 -20 -4.5t-10 -19.5l-165 -578q-4 -15 -1 -19t18 -4h79l-8 -28h-249l8 28h86q15 0 21 4t10 19l44 155h-309l-77 -76q-80 -78 -137 -108
t-115 -30q-93 0 -140 51.5t-47 112.5q0 28 12 43.5t31 15.5q14 0 23.5 -9t9.5 -23q0 -19 -15 -28t-32 -4q5 -58 47 -94.5t111 -36.5q31 0 55.5 5.5t67.5 32t93 75.5zM825 233l113 396l-402 -396h289z" />
    <glyph glyph-name="Acircumflex.init" horiz-adv-x="1004" 
d="M1085 903l67 -143h-19l-71 106l-133 -106h-24l148 143q11 11 19 11q7 0 13 -11zM395 133l557 547h140l-9 -27h-79q-15 0 -20 -4.5t-10 -19.5l-165 -578q-4 -15 -1 -19t18 -4h79l-8 -28h-249l8 28h86q15 0 21 4t10 19l44 155h-309l-77 -76q-80 -78 -137 -108t-115 -30
q-93 0 -140 51.5t-47 112.5q0 28 12 43.5t31 15.5q14 0 23.5 -9t9.5 -23q0 -19 -15 -28t-32 -4q5 -58 47 -94.5t111 -36.5q31 0 55.5 5.5t67.5 32t93 75.5zM825 233l113 396l-402 -396h289z" />
    <glyph glyph-name="Adieresis.init" horiz-adv-x="1004" 
d="M948 774q-15 0 -25 10t-10 24q0 15 10 25.5t25 10.5t24.5 -10t9.5 -25t-9.5 -25t-24.5 -10zM1138 844q15 0 24.5 -10t9.5 -25t-9.5 -25t-24.5 -10t-25 10t-10 24q0 15 10 25.5t25 10.5zM395 133l557 547h140l-9 -27h-79q-15 0 -20 -4.5t-10 -19.5l-165 -578
q-4 -15 -1 -19t18 -4h79l-8 -28h-249l8 28h86q15 0 21 4t10 19l44 155h-309l-77 -76q-80 -78 -137 -108t-115 -30q-93 0 -140 51.5t-47 112.5q0 28 12 43.5t31 15.5q14 0 23.5 -9t9.5 -23q0 -19 -15 -28t-32 -4q5 -58 47 -94.5t111 -36.5q31 0 55.5 5.5t67.5 32t93 75.5z
M825 233l113 396l-402 -396h289z" />
    <glyph glyph-name="Agrave.init" horiz-adv-x="1004" 
d="M1029 759h-17q-16 27 -35 71.5t-19 62.5q0 10 6.5 15.5t13.5 5.5q17 0 22 -19q12 -36 29 -136zM952 680h140l-9 -27h-79q-15 0 -20 -4.5t-10 -19.5l-165 -578q-4 -15 -1 -19t18 -4h79l-8 -28h-249l8 28h86q15 0 21 4t10 19l44 155h-309l-77 -76q-80 -78 -137 -108
t-115 -30q-93 0 -140 51.5t-47 112.5q0 28 12 43.5t31 15.5q14 0 23.5 -9t9.5 -23q0 -19 -15 -28t-32 -4q5 -58 47 -94.5t111 -36.5q31 0 55.5 5.5t67.5 32t93 75.5zM825 233l113 396l-402 -396h289z" />
    <glyph glyph-name="Amacron.init" horiz-adv-x="1004" 
d="M920 819h252l-9 -30h-252zM395 133l557 547h140l-9 -27h-79q-15 0 -20 -4.5t-10 -19.5l-165 -578q-4 -15 -1 -19t18 -4h79l-8 -28h-249l8 28h86q15 0 21 4t10 19l44 155h-309l-77 -76q-80 -78 -137 -108t-115 -30q-93 0 -140 51.5t-47 112.5q0 28 12 43.5t31 15.5
q14 0 23.5 -9t9.5 -23q0 -19 -15 -28t-32 -4q5 -58 47 -94.5t111 -36.5q31 0 55.5 5.5t67.5 32t93 75.5zM825 233l113 396l-402 -396h289z" />
    <glyph glyph-name="Aogonek.init" horiz-adv-x="1004" 
d="M952 680h140l-9 -27h-79q-15 0 -20 -4.5t-10 -19.5l-165 -578q-4 -15 -1 -19t18 -4h79l-8 -28h-113q-64 -59 -85 -86.5t-21 -53.5q0 -46 50 -46q30 0 68 20l-9 -32q-35 -17 -69 -17q-35 0 -54.5 17.5t-19.5 48.5q0 32 23 62.5t89 86.5h-108l8 28h86q15 0 21 4t10 19
l44 155h-309l-77 -76q-80 -78 -137 -108t-115 -30q-93 0 -140 51.5t-47 112.5q0 28 12 43.5t31 15.5q14 0 23.5 -9t9.5 -23q0 -19 -15 -28t-32 -4q5 -58 47 -94.5t111 -36.5q31 0 55.5 5.5t67.5 32t93 75.5zM825 233l113 396l-402 -396h289z" />
    <glyph glyph-name="Aring.init" horiz-adv-x="1004" 
d="M1059 924q37 0 60.5 -22.5t23.5 -56.5q0 -44 -32 -74.5t-74 -30.5q-38 0 -61 22.5t-23 56.5q0 45 31.5 75t74.5 30zM1039 764q31 0 54.5 23.5t23.5 56.5q0 25 -16.5 41t-43.5 16q-32 0 -55 -24.5t-23 -55.5q0 -24 16.5 -40.5t43.5 -16.5zM395 133l557 547h140l-9 -27h-79
q-15 0 -20 -4.5t-10 -19.5l-165 -578q-4 -15 -1 -19t18 -4h79l-8 -28h-249l8 28h86q15 0 21 4t10 19l44 155h-309l-77 -76q-80 -78 -137 -108t-115 -30q-93 0 -140 51.5t-47 112.5q0 28 12 43.5t31 15.5q14 0 23.5 -9t9.5 -23q0 -19 -15 -28t-32 -4q5 -58 47 -94.5
t111 -36.5q31 0 55.5 5.5t67.5 32t93 75.5zM825 233l113 396l-402 -396h289z" />
    <glyph glyph-name="Atilde.init" horiz-adv-x="1004" 
d="M1171 843l22 -6q-26 -81 -86 -81q-31 0 -70 35t-62 35q-38 0 -61 -58l-21 8q26 81 87 81q25 0 49 -17.5t45 -35.5t40 -18q37 0 57 57zM395 133l557 547h140l-9 -27h-79q-15 0 -20 -4.5t-10 -19.5l-165 -578q-4 -15 -1 -19t18 -4h79l-8 -28h-249l8 28h86q15 0 21 4t10 19
l44 155h-309l-77 -76q-80 -78 -137 -108t-115 -30q-93 0 -140 51.5t-47 112.5q0 28 12 43.5t31 15.5q14 0 23.5 -9t9.5 -23q0 -19 -15 -28t-32 -4q5 -58 47 -94.5t111 -36.5q31 0 55.5 5.5t67.5 32t93 75.5zM825 233l113 396l-402 -396h289z" />
    <glyph glyph-name="M.init" horiz-adv-x="1073" 
d="M1009 680h152l-8 -27h-79q-15 0 -20.5 -4.5t-10.5 -19.5l-165 -578q-4 -15 -1 -19t18 -4h79l-8 -28h-232l8 28h69q15 0 21 4t10 19l168 589l-385 -453h-17l-132 452l-120 -416q-66 -233 -243 -233q-65 0 -108.5 35.5t-43.5 81.5q0 21 10 32.5t26 11.5q13 0 22 -8t9 -20
q0 -15 -11 -23.5t-27 -9.5q4 -33 42.5 -52.5t79.5 -19.5q156 0 215 205l117 406q4 15 1 19.5t-18 4.5h-79l8 27h147l127 -445z" />
    <glyph glyph-name="N.init" horiz-adv-x="953" 
d="M801 680h242l-8 -27h-86q-15 0 -20 -4.5t-10 -19.5l-181 -629h-14l-249 632l-117 -408q-66 -233 -245 -233q-65 0 -108 35.5t-43 81.5q0 20 10 32t25 12q14 0 23 -8t9 -21q0 -14 -11.5 -22.5t-26.5 -9.5q4 -33 42.5 -52.5t79.5 -19.5q156 0 215 205l116 405q4 15 1 19.5
t-18 4.5h-79l8 27h137l237 -610l158 559q4 15 1 19.5t-18 4.5h-78z" />
    <glyph glyph-name="Nacute.init" horiz-adv-x="953" 
d="M858 874q-10 -13 -59.5 -51.5t-84.5 -62.5h-20q96 113 135 146q19 15 33 1t-4 -33zM801 680h242l-8 -27h-86q-15 0 -20 -4.5t-10 -19.5l-181 -629h-14l-249 632l-117 -408q-66 -233 -245 -233q-65 0 -108 35.5t-43 81.5q0 20 10 32t25 12q14 0 23 -8t9 -21
q0 -14 -11.5 -22.5t-26.5 -9.5q4 -33 42.5 -52.5t79.5 -19.5q156 0 215 205l116 405q4 15 1 19.5t-18 4.5h-79l8 27h137l237 -610l158 559q4 15 1 19.5t-18 4.5h-78z" />
    <glyph glyph-name="Ncaron.init" horiz-adv-x="953" 
d="M725 760q-7 0 -13 11l-67 143h19l71 -106l133 106h24l-148 -143q-11 -11 -19 -11zM801 680h242l-8 -27h-86q-15 0 -20 -4.5t-10 -19.5l-181 -629h-14l-249 632l-117 -408q-66 -233 -245 -233q-65 0 -108 35.5t-43 81.5q0 20 10 32t25 12q14 0 23 -8t9 -21
q0 -14 -11.5 -22.5t-26.5 -9.5q4 -33 42.5 -52.5t79.5 -19.5q156 0 215 205l116 405q4 15 1 19.5t-18 4.5h-79l8 27h137l237 -610l158 559q4 15 1 19.5t-18 4.5h-78z" />
    <glyph glyph-name="Ncommaaccent.init" horiz-adv-x="953" 
d="M801 680h242l-8 -27h-86q-15 0 -20 -4.5t-10 -19.5l-181 -629h-14l-249 632l-117 -408q-66 -233 -245 -233q-65 0 -108 35.5t-43 81.5q0 20 10 32t25 12q14 0 23 -8t9 -21q0 -14 -11.5 -22.5t-26.5 -9.5q4 -33 42.5 -52.5t79.5 -19.5q156 0 215 205l116 405q4 15 1 19.5
t-18 4.5h-79l8 27h137l237 -610l158 559q4 15 1 19.5t-18 4.5h-78zM471 -77q35 0 35 -40t-30.5 -76.5t-82.5 -49.5l-5 17q76 24 83 81q-15 2 -25.5 10.5t-10.5 21.5q0 16 10.5 26t25.5 10z" />
    <glyph glyph-name="Eng.init" horiz-adv-x="953" 
d="M801 680h242l-8 -27h-86q-15 0 -20 -4.5t-10 -19.5l-181 -629l-18 -65q-16 -57 -54.5 -90.5t-89.5 -33.5q-42 0 -67.5 21.5t-25.5 57.5q0 17 11 28.5t27 11.5q13 0 21.5 -9t8.5 -22q0 -14 -10.5 -23.5t-26.5 -9.5h-4q20 -30 65 -30q42 0 70 26.5t41 72.5l27 94l-238 603
l-117 -408q-66 -233 -245 -233q-65 0 -108 35.5t-43 81.5q0 20 10 32t25 12q14 0 23 -8t9 -21q0 -14 -11.5 -22.5t-26.5 -9.5q4 -33 42.5 -52.5t79.5 -19.5q156 0 215 205l116 405q4 15 1 19.5t-18 4.5h-79l8 27h137l237 -610l158 559q4 15 1 19.5t-18 4.5h-78z" />
    <glyph glyph-name="Ntilde.init" horiz-adv-x="953" 
d="M643 826q-38 0 -61 -58l-21 8q26 81 87 81q25 0 49 -17.5t45 -35.5t40 -18q37 0 57 57l22 -6q-26 -81 -86 -81q-31 0 -70 35t-62 35zM801 680h242l-8 -27h-86q-15 0 -20 -4.5t-10 -19.5l-181 -629h-14l-249 632l-117 -408q-66 -233 -245 -233q-65 0 -108 35.5t-43 81.5
q0 20 10 32t25 12q14 0 23 -8t9 -21q0 -14 -11.5 -22.5t-26.5 -9.5q4 -33 42.5 -52.5t79.5 -19.5q156 0 215 205l116 405q4 15 1 19.5t-18 4.5h-79l8 27h137l237 -610l158 559q4 15 1 19.5t-18 4.5h-78z" />
    <glyph glyph-name="Q.init" horiz-adv-x="715" 
d="M723 -54q15 0 24.5 -9.5t9.5 -25.5q0 -67 -64.5 -109t-149.5 -42q-44 0 -84.5 11.5t-81 36t-64 42.5t-64.5 51q-91 -41 -148 -41q-52 0 -83.5 22t-31.5 57q0 34 28.5 57.5t73.5 23.5q43 0 83.5 -21t91.5 -62q48 23 122 69q131 82 198 179.5t67 234.5q0 109 -58.5 176
t-160.5 67q-58 0 -107.5 -21.5t-83 -57t-57 -81.5t-34.5 -93t-11 -93q0 -156 132 -248l-13 -17q-70 39 -113 106t-43 160q0 63 21 127t60.5 119.5t105 90.5t144.5 35q116 0 185.5 -75.5t69.5 -198.5q0 -149 -75.5 -252t-215.5 -185q-51 -31 -110 -61q41 -33 61.5 -48.5
t58 -39.5t72.5 -34t73 -10q59 0 109 25.5t68 64.5h-5q-15 0 -25 10t-10 25t10 25t25 10zM97 -114q48 -2 129 34q-45 36 -77.5 54.5t-63.5 18.5q-30 0 -50 -15.5t-20 -38.5t24 -37.5t58 -15.5z" />
    <glyph glyph-name="T.init" horiz-adv-x="616" 
d="M785 817q0 -161 -257 -164h-38l-172 -602q-4 -15 -1 -19t18 -4h123l-8 -28h-329l8 28h123q15 0 20.5 4t9.5 19l172 602h-77q-68 0 -114.5 -10.5t-69 -29t-31.5 -36t-12 -39.5q16 2 28 -7.5t12 -25.5q0 -14 -9.5 -23t-24.5 -9q-16 0 -26 11t-10 32t4 39.5t19.5 42.5
t41.5 41t75.5 29t115.5 12h142q225 0 238 115q-17 -2 -29 7.5t-12 25.5q0 14 9.5 23t25.5 9q35 0 35 -43z" />
    <glyph glyph-name="Tbar.init" horiz-adv-x="616" 
d="M528 653h-38l-92 -323h153l-8 -28h-153l-72 -251q-4 -15 -1 -19t18 -4h123l-8 -28h-329l8 28h123q15 0 20.5 4t9.5 19l72 251h-156l8 28h156l92 323h-77q-68 0 -114.5 -10.5t-69 -29t-31.5 -36t-12 -39.5q16 2 28 -7.5t12 -25.5q0 -14 -9.5 -23t-24.5 -9q-16 0 -26 11
t-10 32t4 39.5t19.5 42.5t41.5 41t75.5 29t115.5 12h142q225 0 238 115q-17 -2 -29 7.5t-12 25.5q0 14 9.5 23t25.5 9q35 0 35 -43q0 -161 -257 -164z" />
    <glyph glyph-name="Tcaron.init" horiz-adv-x="616" 
d="M504 760q-7 0 -13 11l-67 143h19l71 -106l133 106h24l-148 -143q-11 -11 -19 -11zM785 817q0 -161 -257 -164h-38l-172 -602q-4 -15 -1 -19t18 -4h123l-8 -28h-329l8 28h123q15 0 20.5 4t9.5 19l172 602h-77q-68 0 -114.5 -10.5t-69 -29t-31.5 -36t-12 -39.5
q16 2 28 -7.5t12 -25.5q0 -14 -9.5 -23t-24.5 -9q-16 0 -26 11t-10 32t4 39.5t19.5 42.5t41.5 41t75.5 29t115.5 12h142q225 0 238 115q-17 -2 -29 7.5t-12 25.5q0 14 9.5 23t25.5 9q35 0 35 -43z" />
    <glyph glyph-name="uni0162.init" horiz-adv-x="616" 
d="M785 817q0 -161 -257 -164h-38l-172 -602q-4 -15 -1 -19t18 -4h123l-8 -28h-154l-52 -75q52 4 80.5 -15.5t28.5 -52.5q0 -36 -31 -60t-76 -24q-54 0 -92 31l14 20q36 -27 80 -27q33 0 54 16.5t21 42.5q0 28 -30 40.5t-80 5.5l-7 11l65 87h-150l8 28h123q15 0 20.5 4
t9.5 19l172 602h-77q-68 0 -114.5 -10.5t-69 -29t-31.5 -36t-12 -39.5q16 2 28 -7.5t12 -25.5q0 -14 -9.5 -23t-24.5 -9q-16 0 -26 11t-10 32t4 39.5t19.5 42.5t41.5 41t75.5 29t115.5 12h142q225 0 238 115q-17 -2 -29 7.5t-12 25.5q0 14 9.5 23t25.5 9q35 0 35 -43z" />
    <glyph glyph-name="uni021A.init" horiz-adv-x="616" 
d="M785 817q0 -161 -257 -164h-38l-172 -602q-4 -15 -1 -19t18 -4h123l-8 -28h-329l8 28h123q15 0 20.5 4t9.5 19l172 602h-77q-68 0 -114.5 -10.5t-69 -29t-31.5 -36t-12 -39.5q16 2 28 -7.5t12 -25.5q0 -14 -9.5 -23t-24.5 -9q-16 0 -26 11t-10 32t4 39.5t19.5 42.5
t41.5 41t75.5 29t115.5 12h142q225 0 238 115q-17 -2 -29 7.5t-12 25.5q0 14 9.5 23t25.5 9q35 0 35 -43zM278 -77q35 0 35 -40t-30.5 -76.5t-82.5 -49.5l-5 17q76 24 83 81q-15 2 -25.5 10.5t-10.5 21.5q0 16 10.5 26t25.5 10z" />
    <glyph glyph-name="R.ss03" horiz-adv-x="811" 
d="M737 213q35 0 35 -49q0 -68 -49.5 -121t-126.5 -53q-113 0 -153 125l-24 73q-19 59 -49.5 78.5t-90.5 19.5h-93l-68 -235q-5 -15 -2 -19t18 -4h93l-8 -28h-255l8 28h79q15 0 20.5 4t9.5 19l166 578q4 14 1.5 19t-18.5 5h-79l8 27h268q99 0 157.5 -44.5t58.5 -124.5
q0 -94 -78.5 -155t-195.5 -65q61 -19 90 -104l23 -68q34 -102 121 -102q59 0 97 38t42 93h-5q-15 0 -24.5 9.5t-9.5 23.5t9.5 23t24.5 9zM193 313h153q110 0 185 55t75 142q0 69 -49 106t-133 37h-134z" />
    <glyph glyph-name="Racute.ss03" horiz-adv-x="811" 
d="M575 874q-10 -13 -59.5 -51.5t-84.5 -62.5h-20q96 113 135 146q19 15 33 1t-4 -33zM737 213q35 0 35 -49q0 -68 -49.5 -121t-126.5 -53q-113 0 -153 125l-24 73q-19 59 -49.5 78.5t-90.5 19.5h-93l-68 -235q-5 -15 -2 -19t18 -4h93l-8 -28h-255l8 28h79q15 0 20.5 4
t9.5 19l166 578q4 14 1.5 19t-18.5 5h-79l8 27h268q99 0 157.5 -44.5t58.5 -124.5q0 -94 -78.5 -155t-195.5 -65q61 -19 90 -104l23 -68q34 -102 121 -102q59 0 97 38t42 93h-5q-15 0 -24.5 9.5t-9.5 23.5t9.5 23t24.5 9zM193 313h153q110 0 185 55t75 142q0 69 -49 106
t-133 37h-134z" />
    <glyph glyph-name="Rcaron.ss03" horiz-adv-x="811" 
d="M442 760q-7 0 -13 11l-67 143h19l71 -106l133 106h24l-148 -143q-11 -11 -19 -11zM737 213q35 0 35 -49q0 -68 -49.5 -121t-126.5 -53q-113 0 -153 125l-24 73q-19 59 -49.5 78.5t-90.5 19.5h-93l-68 -235q-5 -15 -2 -19t18 -4h93l-8 -28h-255l8 28h79q15 0 20.5 4
t9.5 19l166 578q4 14 1.5 19t-18.5 5h-79l8 27h268q99 0 157.5 -44.5t58.5 -124.5q0 -94 -78.5 -155t-195.5 -65q61 -19 90 -104l23 -68q34 -102 121 -102q59 0 97 38t42 93h-5q-15 0 -24.5 9.5t-9.5 23.5t9.5 23t24.5 9zM193 313h153q110 0 185 55t75 142q0 69 -49 106
t-133 37h-134z" />
    <glyph glyph-name="Rcommaaccent.ss03" horiz-adv-x="811" 
d="M737 213q35 0 35 -49q0 -68 -49.5 -121t-126.5 -53q-113 0 -153 125l-24 73q-19 59 -49.5 78.5t-90.5 19.5h-93l-68 -235q-5 -15 -2 -19t18 -4h93l-8 -28h-255l8 28h79q15 0 20.5 4t9.5 19l166 578q4 14 1.5 19t-18.5 5h-79l8 27h268q99 0 157.5 -44.5t58.5 -124.5
q0 -94 -78.5 -155t-195.5 -65q61 -19 90 -104l23 -68q34 -102 121 -102q59 0 97 38t42 93h-5q-15 0 -24.5 9.5t-9.5 23.5t9.5 23t24.5 9zM193 313h153q110 0 185 55t75 142q0 69 -49 106t-133 37h-134zM326 -77q35 0 35 -40t-30.5 -76.5t-82.5 -49.5l-5 17q76 24 83 81
q-15 2 -25.5 10.5t-10.5 21.5q0 16 10.5 26t25.5 10z" />
    <glyph glyph-name="T.ss03" horiz-adv-x="616" 
d="M785 817q0 -161 -257 -164h-38l-172 -602q-4 -15 -1 -19t18 -4h123l-8 -28h-329l8 28h123q15 0 20.5 4t9.5 19l172 602h-77q-68 0 -114.5 -10.5t-69 -29t-31.5 -36t-12 -39.5q16 2 28 -7.5t12 -25.5q0 -14 -9.5 -23t-24.5 -9q-16 0 -26 11t-10 32t4 39.5t19.5 42.5
t41.5 41t75.5 29t115.5 12h142q225 0 238 115q-17 -2 -29 7.5t-12 25.5q0 14 9.5 23t25.5 9q35 0 35 -43z" />
    <glyph glyph-name="Tbar.ss03" horiz-adv-x="616" 
d="M528 653h-38l-92 -323h153l-8 -28h-153l-72 -251q-4 -15 -1 -19t18 -4h123l-8 -28h-329l8 28h123q15 0 20.5 4t9.5 19l72 251h-156l8 28h156l92 323h-77q-68 0 -114.5 -10.5t-69 -29t-31.5 -36t-12 -39.5q16 2 28 -7.5t12 -25.5q0 -14 -9.5 -23t-24.5 -9q-16 0 -26 11
t-10 32t4 39.5t19.5 42.5t41.5 41t75.5 29t115.5 12h142q225 0 238 115q-17 -2 -29 7.5t-12 25.5q0 14 9.5 23t25.5 9q35 0 35 -43q0 -161 -257 -164z" />
    <glyph glyph-name="Tcaron.ss03" horiz-adv-x="616" 
d="M504 760q-7 0 -13 11l-67 143h19l71 -106l133 106h24l-148 -143q-11 -11 -19 -11zM785 817q0 -161 -257 -164h-38l-172 -602q-4 -15 -1 -19t18 -4h123l-8 -28h-329l8 28h123q15 0 20.5 4t9.5 19l172 602h-77q-68 0 -114.5 -10.5t-69 -29t-31.5 -36t-12 -39.5
q16 2 28 -7.5t12 -25.5q0 -14 -9.5 -23t-24.5 -9q-16 0 -26 11t-10 32t4 39.5t19.5 42.5t41.5 41t75.5 29t115.5 12h142q225 0 238 115q-17 -2 -29 7.5t-12 25.5q0 14 9.5 23t25.5 9q35 0 35 -43z" />
    <glyph glyph-name="uni0162.ss03" horiz-adv-x="616" 
d="M785 817q0 -161 -257 -164h-38l-172 -602q-4 -15 -1 -19t18 -4h123l-8 -28h-154l-52 -75q52 4 80.5 -15.5t28.5 -52.5q0 -36 -31 -60t-76 -24q-54 0 -92 31l14 20q36 -27 80 -27q33 0 54 16.5t21 42.5q0 28 -30 40.5t-80 5.5l-7 11l65 87h-150l8 28h123q15 0 20.5 4
t9.5 19l172 602h-77q-68 0 -114.5 -10.5t-69 -29t-31.5 -36t-12 -39.5q16 2 28 -7.5t12 -25.5q0 -14 -9.5 -23t-24.5 -9q-16 0 -26 11t-10 32t4 39.5t19.5 42.5t41.5 41t75.5 29t115.5 12h142q225 0 238 115q-17 -2 -29 7.5t-12 25.5q0 14 9.5 23t25.5 9q35 0 35 -43z" />
    <glyph glyph-name="uni021A.ss03" horiz-adv-x="616" 
d="M785 817q0 -161 -257 -164h-38l-172 -602q-4 -15 -1 -19t18 -4h123l-8 -28h-329l8 28h123q15 0 20.5 4t9.5 19l172 602h-77q-68 0 -114.5 -10.5t-69 -29t-31.5 -36t-12 -39.5q16 2 28 -7.5t12 -25.5q0 -14 -9.5 -23t-24.5 -9q-16 0 -26 11t-10 32t4 39.5t19.5 42.5
t41.5 41t75.5 29t115.5 12h142q225 0 238 115q-17 -2 -29 7.5t-12 25.5q0 14 9.5 23t25.5 9q35 0 35 -43zM278 -77q35 0 35 -40t-30.5 -76.5t-82.5 -49.5l-5 17q76 24 83 81q-15 2 -25.5 10.5t-10.5 21.5q0 16 10.5 26t25.5 10z" />
    <glyph glyph-name="Q.ss04" horiz-adv-x="789" 
d="M319 -10q-106 0 -175 74t-70 187q0 74 24.5 150t69 141t116.5 106.5t157 41.5q106 0 175.5 -74t70.5 -187q0 -74 -24.5 -150t-69.5 -141t-117 -106.5t-157 -41.5zM322 17q78 0 142.5 40.5t104 103t61 134.5t20.5 139q-1 99 -60.5 164t-150.5 65q-63 0 -118 -26.5t-93 -70
t-65 -98.5t-39.5 -112t-12.5 -110q1 -99 60.5 -164t150.5 -65zM275 -52l7 17l317 -87q13 -3 20 -9.5t6 -14.5q-2 -10 -12 -13.5t-24 0.5z" />
    <glyph glyph-name="A.ss08" horiz-adv-x="714" 
d="M612 28h38l-10 -28h-231l10 28h87q18 0 25.5 6.5t6.5 23.5l-9 148h-348l-112 -147q-13 -17 -10.5 -24t20.5 -7h86l-9 -28h-228l10 28h38q35 0 59 34l468 608l-1 10h34l40 -619q1 -19 9.5 -26t26.5 -7zM202 233h326l-23 398z" />
    <glyph glyph-name="Aacute.ss08" horiz-adv-x="714" 
d="M711 907q14 -14 -4 -33q-10 -13 -59.5 -51.5t-84.5 -62.5h-20q96 113 135 146q19 15 33 1zM576 61q1 -19 9.5 -26t26.5 -7h38l-10 -28h-231l10 28h87q18 0 25.5 6.5t6.5 23.5l-9 148h-348l-112 -147q-13 -17 -10.5 -24t20.5 -7h86l-9 -28h-228l10 28h38q35 0 59 34
l468 608l-1 10h34zM202 233h326l-23 398z" />
    <glyph glyph-name="Abreve.ss08" horiz-adv-x="714" 
d="M673 887h28q-23 -55 -63.5 -85t-88.5 -30t-71 30t-14 85h25q-7 -84 64 -84q75 0 120 84zM576 61q1 -19 9.5 -26t26.5 -7h38l-10 -28h-231l10 28h87q18 0 25.5 6.5t6.5 23.5l-9 148h-348l-112 -147q-13 -17 -10.5 -24t20.5 -7h86l-9 -28h-228l10 28h38q35 0 59 34l468 608
l-1 10h34zM202 233h326l-23 398z" />
    <glyph glyph-name="Acircumflex.ss08" horiz-adv-x="714" 
d="M602 903l67 -143h-19l-71 106l-133 -106h-24l148 143q11 11 19 11q7 0 13 -11zM576 61q1 -19 9.5 -26t26.5 -7h38l-10 -28h-231l10 28h87q18 0 25.5 6.5t6.5 23.5l-9 148h-348l-112 -147q-13 -17 -10.5 -24t20.5 -7h86l-9 -28h-228l10 28h38q35 0 59 34l468 608l-1 10h34
zM202 233h326l-23 398z" />
    <glyph glyph-name="Adieresis.ss08" horiz-adv-x="714" 
d="M465 774q-15 0 -25 10t-10 24q0 15 10 25.5t25 10.5t24.5 -10t9.5 -25t-9.5 -25t-24.5 -10zM655 844q15 0 24.5 -10t9.5 -25t-9.5 -25t-24.5 -10t-25 10t-10 24q0 15 10 25.5t25 10.5zM576 61q1 -19 9.5 -26t26.5 -7h38l-10 -28h-231l10 28h87q18 0 25.5 6.5t6.5 23.5
l-9 148h-348l-112 -147q-13 -17 -10.5 -24t20.5 -7h86l-9 -28h-228l10 28h38q35 0 59 34l468 608l-1 10h34zM202 233h326l-23 398z" />
    <glyph glyph-name="Agrave.ss08" horiz-adv-x="714" 
d="M546 759h-17q-16 27 -35 71.5t-19 62.5q0 10 6.5 15.5t13.5 5.5q17 0 22 -19q12 -36 29 -136zM612 28h38l-10 -28h-231l10 28h87q18 0 25.5 6.5t6.5 23.5l-9 148h-348l-112 -147q-13 -17 -10.5 -24t20.5 -7h86l-9 -28h-228l10 28h38q35 0 59 34l468 608l-1 10h34l40 -619
q1 -19 9.5 -26t26.5 -7zM202 233h326l-23 398z" />
    <glyph glyph-name="Amacron.ss08" horiz-adv-x="714" 
d="M437 819h252l-9 -30h-252zM576 61q1 -19 9.5 -26t26.5 -7h38l-10 -28h-231l10 28h87q18 0 25.5 6.5t6.5 23.5l-9 148h-348l-112 -147q-13 -17 -10.5 -24t20.5 -7h86l-9 -28h-228l10 28h38q35 0 59 34l468 608l-1 10h34zM202 233h326l-23 398z" />
    <glyph glyph-name="Aogonek.ss08" horiz-adv-x="714" 
d="M560 0q-65 -59 -86.5 -86.5t-21.5 -53.5q0 -46 50 -46q31 0 68 20l-8 -32q-35 -17 -69 -17q-35 0 -54.5 17.5t-19.5 48.5q0 32 23 62.5t89 86.5h-122l10 28h87q18 0 25.5 6.5t6.5 23.5l-9 148h-348l-112 -147q-13 -17 -10.5 -24t20.5 -7h86l-9 -28h-228l10 28h38
q35 0 59 34l468 608l-1 10h34l40 -619q1 -19 9.5 -26t26.5 -7h38l-10 -28h-80zM202 233h326l-23 398z" />
    <glyph glyph-name="Aring.ss08" horiz-adv-x="714" 
d="M554 740q-38 0 -61 22.5t-23 56.5q0 45 31.5 75t74.5 30q37 0 60.5 -22.5t23.5 -56.5q0 -44 -32 -74.5t-74 -30.5zM574 901q-32 0 -55 -24.5t-23 -55.5q0 -24 16.5 -40.5t43.5 -16.5q31 0 54.5 23.5t23.5 56.5q0 25 -16.5 41t-43.5 16zM576 61q1 -19 9.5 -26t26.5 -7h38
l-10 -28h-231l10 28h87q18 0 25.5 6.5t6.5 23.5l-9 148h-348l-112 -147q-13 -17 -10.5 -24t20.5 -7h86l-9 -28h-228l10 28h38q35 0 59 34l468 608l-1 10h34zM202 233h326l-23 398z" />
    <glyph glyph-name="Atilde.ss08" horiz-adv-x="714" 
d="M688 843l22 -6q-26 -81 -86 -81q-31 0 -70 35t-62 35q-38 0 -61 -58l-21 8q26 81 87 81q25 0 49 -17.5t45 -35.5t40 -18q37 0 57 57zM576 61q1 -19 9.5 -26t26.5 -7h38l-10 -28h-231l10 28h87q18 0 25.5 6.5t6.5 23.5l-9 148h-348l-112 -147q-13 -17 -10.5 -24t20.5 -7
h86l-9 -28h-228l10 28h38q35 0 59 34l468 608l-1 10h34zM202 233h326l-23 398z" />
    <glyph glyph-name="i.loclTRK" horiz-adv-x="301" 
d="M253 594q-15 0 -25 10t-10 24q0 15 10 25.5t25 10.5t24.5 -10t9.5 -25t-9.5 -25t-24.5 -10zM250 160h25q-30 -89 -61 -129.5t-72 -40.5q-40 0 -57.5 33t-0.5 82l100 287q14 38 6.5 61.5t-34.5 23.5q-29 0 -53.5 -32.5t-50.5 -107.5h-24q30 89 61.5 129.5t74.5 40.5
q41 0 56.5 -32.5t-1.5 -82.5l-102 -291q-12 -33 -3 -57t35 -24q29 0 52.5 33t48.5 107z" />
    <glyph glyph-name="k.fina" horiz-adv-x="717" 
d="M124 680h112l-195 -680h-34l180 629q4 15 1 19.5t-18 4.5h-54zM640 213q17 0 28 -14t11 -36q0 -66 -58.5 -119.5t-141.5 -53.5q-63 0 -118.5 33.5t-91.5 99.5l-86 153q10 10 29 30q53 55 79.5 81t66 59.5t70.5 47t61 13.5q54 0 54 -41q0 -17 -10.5 -28t-26.5 -11
q-14 0 -23.5 9t-9.5 23t11 22q-15 0 -30.5 -5t-34 -17t-34 -23.5t-39 -34t-38.5 -37t-43.5 -43.5t-43.5 -44l87 -151q61 -108 173 -108q67 0 115.5 38.5t53.5 93.5q-18 -4 -31.5 6t-13.5 26q0 13 10.5 22t24.5 9z" />
    <glyph glyph-name="kcommaaccent.fina" horiz-adv-x="717" 
d="M124 680h112l-195 -680h-34l180 629q4 15 1 19.5t-18 4.5h-54zM640 213q17 0 28 -14t11 -36q0 -66 -58.5 -119.5t-141.5 -53.5q-63 0 -118.5 33.5t-91.5 99.5l-86 153q10 10 29 30q53 55 79.5 81t66 59.5t70.5 47t61 13.5q54 0 54 -41q0 -17 -10.5 -28t-26.5 -11
q-14 0 -23.5 9t-9.5 23t11 22q-15 0 -30.5 -5t-34 -17t-34 -23.5t-39 -34t-38.5 -37t-43.5 -43.5t-43.5 -44l87 -151q61 -108 173 -108q67 0 115.5 38.5t53.5 93.5q-18 -4 -31.5 6t-13.5 26q0 13 10.5 22t24.5 9zM218 -77q35 0 35 -40t-30.5 -76.5t-82.5 -49.5l-5 17
q76 24 83 81q-15 2 -25.5 10.5t-10.5 21.5q0 16 10.5 26t25.5 10z" />
    <glyph glyph-name="y.ss02" horiz-adv-x="538" 
d="M506 500h38l-138 -482q-27 -93 -99 -150.5t-156 -57.5q-72 0 -113 28t-41 68q0 19 10.5 32t27.5 13q14 0 23 -8t9 -21q0 -15 -11 -25t-28 -10q6 -24 38.5 -38t83.5 -14q72 0 134.5 50.5t87.5 132.5l79 256h-3q-51 -131 -110.5 -207t-137.5 -76q-65 0 -90 51t3 143l70 212
q11 30 2.5 55.5t-35.5 25.5t-50.5 -32t-49.5 -108h-25q30 89 61 129t71 40q41 0 58 -32t1 -82l-67 -206q-25 -77 -9 -121t68 -44q35 0 67.5 20.5t61 60.5t51.5 82t46.5 103.5t38 105.5t33.5 106z" />
    <glyph glyph-name="yacute.ss02" horiz-adv-x="538" 
d="M554 727q14 -14 -4 -33q-10 -13 -59.5 -51.5t-84.5 -62.5h-20q96 113 135 146q19 15 33 1zM208 22q35 0 67.5 20.5t61 60.5t51.5 82t46.5 103.5t38 105.5t33.5 106h38l-138 -482q-27 -93 -99 -150.5t-156 -57.5q-72 0 -113 28t-41 68q0 19 10.5 32t27.5 13q14 0 23 -8
t9 -21q0 -15 -11 -25t-28 -10q6 -24 38.5 -38t83.5 -14q72 0 134.5 50.5t87.5 132.5l79 256h-3q-51 -131 -110.5 -207t-137.5 -76q-65 0 -90 51t3 143l70 212q11 30 2.5 55.5t-35.5 25.5t-50.5 -32t-49.5 -108h-25q30 89 61 129t71 40q41 0 58 -32t1 -82l-67 -206
q-25 -77 -9 -121t68 -44z" />
    <glyph glyph-name="ycircumflex.ss02" horiz-adv-x="538" 
d="M289 580h-24l148 143q11 11 19 11q7 0 13 -11l67 -143h-19l-71 106zM506 500h38l-138 -482q-27 -93 -99 -150.5t-156 -57.5q-72 0 -113 28t-41 68q0 19 10.5 32t27.5 13q14 0 23 -8t9 -21q0 -15 -11 -25t-28 -10q6 -24 38.5 -38t83.5 -14q72 0 134.5 50.5t87.5 132.5
l79 256h-3q-51 -131 -110.5 -207t-137.5 -76q-65 0 -90 51t3 143l70 212q11 30 2.5 55.5t-35.5 25.5t-50.5 -32t-49.5 -108h-25q30 89 61 129t71 40q41 0 58 -32t1 -82l-67 -206q-25 -77 -9 -121t68 -44q35 0 67.5 20.5t61 60.5t51.5 82t46.5 103.5t38 105.5t33.5 106z" />
    <glyph glyph-name="ydieresis.ss02" horiz-adv-x="538" 
d="M308 594q-15 0 -25 10t-10 24q0 15 10 25.5t25 10.5t24.5 -10t9.5 -25t-9.5 -25t-24.5 -10zM498 594q-15 0 -25 10t-10 24q0 15 10 25.5t25 10.5t24.5 -10t9.5 -25t-9.5 -25t-24.5 -10zM506 500h38l-138 -482q-27 -93 -99 -150.5t-156 -57.5q-72 0 -113 28t-41 68
q0 19 10.5 32t27.5 13q14 0 23 -8t9 -21q0 -15 -11 -25t-28 -10q6 -24 38.5 -38t83.5 -14q72 0 134.5 50.5t87.5 132.5l79 256h-3q-51 -131 -110.5 -207t-137.5 -76q-65 0 -90 51t3 143l70 212q11 30 2.5 55.5t-35.5 25.5t-50.5 -32t-49.5 -108h-25q30 89 61 129t71 40
q41 0 58 -32t1 -82l-67 -206q-25 -77 -9 -121t68 -44q35 0 67.5 20.5t61 60.5t51.5 82t46.5 103.5t38 105.5t33.5 106z" />
    <glyph glyph-name="ygrave.ss02" horiz-adv-x="538" 
d="M389 579h-17q-16 27 -35 71.5t-19 62.5q0 10 6.5 15.5t13.5 5.5q17 0 22 -19q12 -36 29 -136zM506 500h38l-138 -482q-27 -93 -99 -150.5t-156 -57.5q-72 0 -113 28t-41 68q0 19 10.5 32t27.5 13q14 0 23 -8t9 -21q0 -15 -11 -25t-28 -10q6 -24 38.5 -38t83.5 -14
q72 0 134.5 50.5t87.5 132.5l79 256h-3q-51 -131 -110.5 -207t-137.5 -76q-65 0 -90 51t3 143l70 212q11 30 2.5 55.5t-35.5 25.5t-50.5 -32t-49.5 -108h-25q30 89 61 129t71 40q41 0 58 -32t1 -82l-67 -206q-25 -77 -9 -121t68 -44q35 0 67.5 20.5t61 60.5t51.5 82
t46.5 103.5t38 105.5t33.5 106z" />
    <glyph glyph-name="f_f_t" horiz-adv-x="881" 
d="M738 473l-101 -353q-14 -47 1 -73.5t48 -26.5q73 0 124 140h25q-59 -170 -154 -170q-48 0 -71.5 35.5t-6.5 95.5l102 352h-230l-152 -531q-38 -131 -147 -131q-41 0 -67 20.5t-26 52.5q0 18 10 29t26 11q14 0 23.5 -9t9.5 -22t-10 -22t-25 -9h-6q20 -27 62 -27
q84 0 116 107l152 531h-231l-152 -531q-38 -131 -147 -131q-41 0 -67 20.5t-26 52.5q0 18 10 29t26 11q14 0 23.5 -9t9.5 -22t-10 -22t-25 -9h-6q20 -27 62 -27q84 0 116 107l152 531h-90l7 27h68q14 0 18.5 3.5t9.5 17.5l15 46q19 54 56 88.5t91 34.5q38 0 65.5 -21
t27.5 -53q0 -17 -11 -28.5t-27 -11.5q-14 0 -22.5 9t-8.5 22q0 14 9.5 23t24.5 9h2q-18 26 -57 26q-42 0 -71.5 -27t-44.5 -72l-20 -66h208q14 0 18.5 3.5t9.5 17.5l15 46q19 54 56 88.5t91 34.5q38 0 65.5 -21t27.5 -53q0 -17 -11 -28.5t-27 -11.5q-13 0 -22 9t-9 22
q0 14 9.5 23t24.5 9h2q-18 26 -57 26q-42 0 -71.5 -27t-44.5 -72l-20 -66h230l43 100h19l-29 -100h187l-8 -27h-187z" />
    <glyph glyph-name="a.smcp" horiz-adv-x="590" 
d="M494 26h29l-5 -26h-194l6 26h73q15 0 20.5 5t4.5 18l-14 109h-287l-81 -109q-6 -9 -7.5 -13.5t2.5 -7t15 -2.5h68l-6 -26h-188l6 26h32q29 0 47 25l356 479h28l64 -479q2 -14 9 -19.5t22 -5.5zM146 183h265l-39 305z" />
    <glyph glyph-name="aacute.smcp" horiz-adv-x="590" 
d="M573 757q14 -14 -4 -33q-10 -13 -59.5 -51.5t-84.5 -62.5h-20q96 113 135 146q19 15 33 1zM463 51q2 -14 9 -19.5t22 -5.5h29l-5 -26h-194l6 26h73q15 0 20.5 5t4.5 18l-14 109h-287l-81 -109q-6 -9 -7.5 -13.5t2.5 -7t15 -2.5h68l-6 -26h-188l6 26h32q29 0 47 25
l356 479h28zM146 183h265l-39 305z" />
    <glyph glyph-name="abreve.smcp" horiz-adv-x="590" 
d="M563 737q-23 -55 -63.5 -85t-88.5 -30t-71 30t-14 85h25q-7 -84 64 -84q75 0 120 84h28zM494 26h29l-5 -26h-194l6 26h73q15 0 20.5 5t4.5 18l-14 109h-287l-81 -109q-6 -9 -7.5 -13.5t2.5 -7t15 -2.5h68l-6 -26h-188l6 26h32q29 0 47 25l356 479h28l64 -479
q2 -14 9 -19.5t22 -5.5zM146 183h265l-39 305z" />
    <glyph glyph-name="acircumflex.smcp" horiz-adv-x="590" 
d="M308 610h-24l148 143q11 11 19 11q7 0 13 -11l67 -143h-19l-71 106zM494 26h29l-5 -26h-194l6 26h73q15 0 20.5 5t4.5 18l-14 109h-287l-81 -109q-6 -9 -7.5 -13.5t2.5 -7t15 -2.5h68l-6 -26h-188l6 26h32q29 0 47 25l356 479h28l64 -479q2 -14 9 -19.5t22 -5.5zM146 183
h265l-39 305z" />
    <glyph glyph-name="adieresis.smcp" horiz-adv-x="590" 
d="M327 624q-15 0 -25 10t-10 24q0 15 10 25.5t25 10.5t24.5 -10t9.5 -25t-9.5 -25t-24.5 -10zM517 624q-15 0 -25 10t-10 24q0 15 10 25.5t25 10.5t24.5 -10t9.5 -25t-9.5 -25t-24.5 -10zM494 26h29l-5 -26h-194l6 26h73q15 0 20.5 5t4.5 18l-14 109h-287l-81 -109
q-6 -9 -7.5 -13.5t2.5 -7t15 -2.5h68l-6 -26h-188l6 26h32q29 0 47 25l356 479h28l64 -479q2 -14 9 -19.5t22 -5.5zM146 183h265l-39 305z" />
    <glyph glyph-name="agrave.smcp" horiz-adv-x="590" 
d="M408 609h-17q-16 27 -35 71.5t-19 62.5q0 10 6.5 15.5t13.5 5.5q17 0 22 -19q12 -36 29 -136zM494 26h29l-5 -26h-194l6 26h73q15 0 20.5 5t4.5 18l-14 109h-287l-81 -109q-6 -9 -7.5 -13.5t2.5 -7t15 -2.5h68l-6 -26h-188l6 26h32q29 0 47 25l356 479h28l64 -479
q2 -14 9 -19.5t22 -5.5zM146 183h265l-39 305z" />
    <glyph glyph-name="amacron.smcp" horiz-adv-x="590" 
d="M299 669h252l-9 -30h-252zM494 26h29l-5 -26h-194l6 26h73q15 0 20.5 5t4.5 18l-14 109h-287l-81 -109q-6 -9 -7.5 -13.5t2.5 -7t15 -2.5h68l-6 -26h-188l6 26h32q29 0 47 25l356 479h28l64 -479q2 -14 9 -19.5t22 -5.5zM146 183h265l-39 305z" />
    <glyph glyph-name="aogonek.smcp" horiz-adv-x="590" 
d="M448 0q-66 -60 -87.5 -88t-21.5 -54q0 -46 50 -46q26 0 68 20l-8 -31q-35 -17 -69 -17q-35 0 -54.5 17t-19.5 49t23 62.5t90 87.5h-95l6 26h73q15 0 20.5 5t4.5 18l-14 109h-287l-81 -109q-6 -9 -7.5 -13.5t2.5 -7t15 -2.5h68l-6 -26h-188l6 26h32q29 0 47 25l356 479h28
l64 -479q2 -14 9 -19.5t22 -5.5h29l-5 -26h-70zM146 183h265l-39 305z" />
    <glyph glyph-name="aring.smcp" horiz-adv-x="590" 
d="M416 590q-38 0 -61 22.5t-23 56.5q0 45 31.5 75t74.5 30q37 0 60.5 -22.5t23.5 -56.5q0 -44 -32 -74.5t-74 -30.5zM418 614q31 0 54.5 23.5t23.5 56.5q0 25 -16.5 41t-43.5 16q-32 0 -55 -24.5t-23 -55.5q0 -24 16.5 -40.5t43.5 -16.5zM494 26h29l-5 -26h-194l6 26h73
q15 0 20.5 5t4.5 18l-14 109h-287l-81 -109q-6 -9 -7.5 -13.5t2.5 -7t15 -2.5h68l-6 -26h-188l6 26h32q29 0 47 25l356 479h28l64 -479q2 -14 9 -19.5t22 -5.5zM146 183h265l-39 305z" />
    <glyph glyph-name="atilde.smcp" horiz-adv-x="590" 
d="M572 687q-26 -81 -86 -81q-31 0 -70 35t-62 35q-38 0 -61 -58l-21 8q26 81 87 81q25 0 49 -17.5t45 -35.5t40 -18q37 0 57 57zM494 26h29l-5 -26h-194l6 26h73q15 0 20.5 5t4.5 18l-14 109h-287l-81 -109q-6 -9 -7.5 -13.5t2.5 -7t15 -2.5h68l-6 -26h-188l6 26h32
q29 0 47 25l356 479h28l64 -479q2 -14 9 -19.5t22 -5.5zM146 183h265l-39 305z" />
    <glyph glyph-name="ae.smcp" horiz-adv-x="818" 
d="M353 530h457l-34 -118h-27q18 52 12.5 72t-56.5 20h-199l-75 -260h147q10 0 17.5 2.5t12 4.5t9 9.5t6 11t6 16.5t6.5 18h24l-42 -152h-25q11 31 9 47t-30 16h-147l-56 -191h221q12 0 22 0.5t18 3.5t13 4.5t11 8.5t8.5 9t7 13t6 14.5t6.5 18.5l7 21h27l-34 -119h-438l6 26
h65q12 0 16 3.5t8 15.5l33 113h-223l-104 -107q-24 -25 10 -25h72l-7 -26h-190l7 26h27q11 0 19 3.5t12.5 7.5t16.5 16l424 437q14 14 -11 14h-77zM378 183l89 303l-295 -303h206z" />
    <glyph glyph-name="b.smcp" horiz-adv-x="507" 
d="M-31 0l5 26h63q13 0 16.5 2.5t6.5 13.5l129 440q4 12 1.5 17t-13.5 5h-68l6 26h220q72 0 116 -33t44 -86q0 -59 -51 -98t-131 -45q58 -7 92.5 -37.5t34.5 -80.5q0 -65 -61.5 -107.5t-154.5 -42.5h-255zM165 282h106q80 0 134.5 36t54.5 92q0 42 -35 68t-94 26h-100z
M92 26h127q80 0 133 36t53 89q0 49 -39.5 77t-98.5 28h-108z" />
    <glyph glyph-name="c.smcp" horiz-adv-x="585" 
d="M360 538q82 0 133.5 -41t51.5 -111q0 -45 -30 -45q-13 0 -21.5 7.5t-8.5 18.5q0 12 9.5 20.5t23.5 8.5v1q0 48 -44 81.5t-113 33.5q-115 0 -191.5 -92t-76.5 -212q0 -90 48 -139.5t128 -49.5q124 0 206 132h26q-85 -159 -235 -159q-92 0 -150.5 58t-58.5 161
q0 84 37.5 158t108 121.5t157.5 47.5z" />
    <glyph glyph-name="cacute.smcp" horiz-adv-x="585" 
d="M554 757q14 -14 -4 -33q-10 -13 -59.5 -51.5t-84.5 -62.5h-20q96 113 135 146q19 15 33 1zM360 538q82 0 133.5 -41t51.5 -111q0 -45 -30 -45q-13 0 -21.5 7.5t-8.5 18.5q0 12 9.5 20.5t23.5 8.5v1q0 48 -44 81.5t-113 33.5q-115 0 -191.5 -92t-76.5 -212
q0 -90 48 -139.5t128 -49.5q124 0 206 132h26q-85 -159 -235 -159q-92 0 -150.5 58t-58.5 161q0 84 37.5 158t108 121.5t157.5 47.5z" />
    <glyph glyph-name="ccaron.smcp" horiz-adv-x="585" 
d="M417 610q-7 0 -13 11l-67 143h19l71 -106l133 106h24l-148 -143q-11 -11 -19 -11zM360 538q82 0 133.5 -41t51.5 -111q0 -45 -30 -45q-13 0 -21.5 7.5t-8.5 18.5q0 12 9.5 20.5t23.5 8.5v1q0 48 -44 81.5t-113 33.5q-115 0 -191.5 -92t-76.5 -212q0 -90 48 -139.5
t128 -49.5q124 0 206 132h26q-85 -159 -235 -159q-92 0 -150.5 58t-58.5 161q0 84 37.5 158t108 121.5t157.5 47.5z" />
    <glyph glyph-name="ccedilla.smcp" horiz-adv-x="585" 
d="M360 538q82 0 133.5 -41t51.5 -111q0 -45 -30 -45q-13 0 -21.5 7.5t-8.5 18.5q0 12 9.5 20.5t23.5 8.5v1q0 48 -44 81.5t-113 33.5q-115 0 -191.5 -92t-76.5 -212q0 -90 48 -139.5t128 -49.5q124 0 206 132h26q-85 -159 -235 -159q-13 0 -20 1l-47 -68q52 4 80.5 -15.5
t28.5 -52.5q0 -36 -31 -60t-76 -24q-54 0 -92 31l14 20q36 -27 80 -27q33 0 54 16.5t21 42.5q0 28 -30 40.5t-80 5.5l-7 11l62 83q-76 13 -121 69t-45 146q0 84 37.5 158t108 121.5t157.5 47.5z" />
    <glyph glyph-name="cdotaccent.smcp" horiz-adv-x="585" 
d="M406 624q-15 0 -25 10t-10 24q0 15 10 25.5t25 10.5t24.5 -10t9.5 -25t-9.5 -25t-24.5 -10zM360 538q82 0 133.5 -41t51.5 -111q0 -45 -30 -45q-13 0 -21.5 7.5t-8.5 18.5q0 12 9.5 20.5t23.5 8.5v1q0 48 -44 81.5t-113 33.5q-115 0 -191.5 -92t-76.5 -212
q0 -90 48 -139.5t128 -49.5q124 0 206 132h26q-85 -159 -235 -159q-92 0 -150.5 58t-58.5 161q0 84 37.5 158t108 121.5t157.5 47.5z" />
    <glyph glyph-name="d.smcp" horiz-adv-x="594" 
d="M306 530q112 0 177 -57t65 -151q0 -132 -104.5 -227t-248.5 -95h-231l7 26h65q12 0 16 3t7 13l129 442q3 11 0.5 15.5t-13.5 4.5h-67l7 26h191zM202 26q127 0 218 87t91 208q0 83 -55 133t-155 50h-72l-139 -478h112z" />
    <glyph glyph-name="eth.smcp" horiz-adv-x="594" 
d="M306 530q112 0 177 -57t65 -151q0 -132 -104.5 -227t-248.5 -95h-231l7 26h65q12 0 16 3t7 13l60 207h-82l7 25h83l61 210q3 11 0.5 15.5t-13.5 4.5h-67l7 26h191zM202 26q127 0 218 87t91 208q0 83 -55 133t-155 50h-72l-67 -230h190l-7 -25h-190l-65 -223h112z" />
    <glyph glyph-name="dcaron.smcp" horiz-adv-x="594" 
d="M510 764h24l-148 -143q-11 -11 -19 -11q-7 0 -13 11l-67 143h19l71 -106zM306 530q112 0 177 -57t65 -151q0 -132 -104.5 -227t-248.5 -95h-231l7 26h65q12 0 16 3t7 13l129 442q3 11 0.5 15.5t-13.5 4.5h-67l7 26h191zM202 26q127 0 218 87t91 208q0 83 -55 133t-155 50
h-72l-139 -478h112z" />
    <glyph glyph-name="dcroat.smcp" horiz-adv-x="594" 
d="M306 530q112 0 177 -57t65 -151q0 -132 -104.5 -227t-248.5 -95h-231l7 26h65q12 0 16 3t7 13l60 207h-82l7 25h83l61 210q3 11 0.5 15.5t-13.5 4.5h-67l7 26h191zM202 26q127 0 218 87t91 208q0 83 -55 133t-155 50h-72l-67 -230h190l-7 -25h-190l-65 -223h112z" />
    <glyph glyph-name="e.smcp" horiz-adv-x="539" 
d="M408 119h26l-33 -119h-437l7 26h64q12 0 16 3.5t7 14.5l129 441q4 12 1 15.5t-15 3.5h-64l7 26h437l-33 -118h-27q2 6 5.5 21t4.5 19t3 14t0.5 13t-3 9t-6 7.5t-10.5 4.5t-15.5 3.5t-21.5 0.5h-222l-76 -259h145q7 0 12.5 0.5t10 3t7.5 3.5t6.5 6t5 7t4.5 9t4 9.5t4 11.5
t4 13h25l-43 -153h-25q11 44 6 53q-5 11 -28 11h-144l-57 -193h222q12 0 21.5 0.5t18 3.5t13.5 4.5t10.5 8t8 9t6.5 13t5.5 14.5t6.5 19z" />
    <glyph glyph-name="eacute.smcp" horiz-adv-x="539" 
d="M366 610q96 113 135 146q19 15 33 1t-4 -33q-10 -13 -59.5 -51.5t-84.5 -62.5h-20zM408 119h26l-33 -119h-437l7 26h64q12 0 16 3.5t7 14.5l129 441q4 12 1 15.5t-15 3.5h-64l7 26h437l-33 -118h-27q2 6 5.5 21t4.5 19t3 14t0.5 13t-3 9t-6 7.5t-10.5 4.5t-15.5 3.5
t-21.5 0.5h-222l-76 -259h145q7 0 12.5 0.5t10 3t7.5 3.5t6.5 6t5 7t4.5 9t4 9.5t4 11.5t4 13h25l-43 -153h-25q11 44 6 53q-5 11 -28 11h-144l-57 -193h222q12 0 21.5 0.5t18 3.5t13.5 4.5t10.5 8t8 9t6.5 13t5.5 14.5t6.5 19z" />
    <glyph glyph-name="ecaron.smcp" horiz-adv-x="539" 
d="M513 764h24l-148 -143q-11 -11 -19 -11q-7 0 -13 11l-67 143h19l71 -106zM408 119h26l-33 -119h-437l7 26h64q12 0 16 3.5t7 14.5l129 441q4 12 1 15.5t-15 3.5h-64l7 26h437l-33 -118h-27q2 6 5.5 21t4.5 19t3 14t0.5 13t-3 9t-6 7.5t-10.5 4.5t-15.5 3.5t-21.5 0.5
h-222l-76 -259h145q7 0 12.5 0.5t10 3t7.5 3.5t6.5 6t5 7t4.5 9t4 9.5t4 11.5t4 13h25l-43 -153h-25q11 44 6 53q-5 11 -28 11h-144l-57 -193h222q12 0 21.5 0.5t18 3.5t13.5 4.5t10.5 8t8 9t6.5 13t5.5 14.5t6.5 19z" />
    <glyph glyph-name="ecircumflex.smcp" horiz-adv-x="539" 
d="M269 610h-24l148 143q11 11 19 11q7 0 13 -11l67 -143h-19l-71 106zM408 119h26l-33 -119h-437l7 26h64q12 0 16 3.5t7 14.5l129 441q4 12 1 15.5t-15 3.5h-64l7 26h437l-33 -118h-27q2 6 5.5 21t4.5 19t3 14t0.5 13t-3 9t-6 7.5t-10.5 4.5t-15.5 3.5t-21.5 0.5h-222
l-76 -259h145q7 0 12.5 0.5t10 3t7.5 3.5t6.5 6t5 7t4.5 9t4 9.5t4 11.5t4 13h25l-43 -153h-25q11 44 6 53q-5 11 -28 11h-144l-57 -193h222q12 0 21.5 0.5t18 3.5t13.5 4.5t10.5 8t8 9t6.5 13t5.5 14.5t6.5 19z" />
    <glyph glyph-name="edieresis.smcp" horiz-adv-x="539" 
d="M288 624q-15 0 -25 10t-10 24q0 15 10 25.5t25 10.5t24.5 -10t9.5 -25t-9.5 -25t-24.5 -10zM478 624q-15 0 -25 10t-10 24q0 15 10 25.5t25 10.5t24.5 -10t9.5 -25t-9.5 -25t-24.5 -10zM408 119h26l-33 -119h-437l7 26h64q12 0 16 3.5t7 14.5l129 441q4 12 1 15.5
t-15 3.5h-64l7 26h437l-33 -118h-27q2 6 5.5 21t4.5 19t3 14t0.5 13t-3 9t-6 7.5t-10.5 4.5t-15.5 3.5t-21.5 0.5h-222l-76 -259h145q7 0 12.5 0.5t10 3t7.5 3.5t6.5 6t5 7t4.5 9t4 9.5t4 11.5t4 13h25l-43 -153h-25q11 44 6 53q-5 11 -28 11h-144l-57 -193h222
q12 0 21.5 0.5t18 3.5t13.5 4.5t10.5 8t8 9t6.5 13t5.5 14.5t6.5 19z" />
    <glyph glyph-name="edotaccent.smcp" horiz-adv-x="539" 
d="M386 624q-15 0 -25 10t-10 24q0 15 10 25.5t25 10.5t24.5 -10t9.5 -25t-9.5 -25t-24.5 -10zM408 119h26l-33 -119h-437l7 26h64q12 0 16 3.5t7 14.5l129 441q4 12 1 15.5t-15 3.5h-64l7 26h437l-33 -118h-27q2 6 5.5 21t4.5 19t3 14t0.5 13t-3 9t-6 7.5t-10.5 4.5
t-15.5 3.5t-21.5 0.5h-222l-76 -259h145q7 0 12.5 0.5t10 3t7.5 3.5t6.5 6t5 7t4.5 9t4 9.5t4 11.5t4 13h25l-43 -153h-25q11 44 6 53q-5 11 -28 11h-144l-57 -193h222q12 0 21.5 0.5t18 3.5t13.5 4.5t10.5 8t8 9t6.5 13t5.5 14.5t6.5 19z" />
    <glyph glyph-name="egrave.smcp" horiz-adv-x="539" 
d="M369 609h-17q-16 27 -35 71.5t-19 62.5q0 10 6.5 15.5t13.5 5.5q17 0 22 -19q12 -36 29 -136zM408 119h26l-33 -119h-437l7 26h64q12 0 16 3.5t7 14.5l129 441q4 12 1 15.5t-15 3.5h-64l7 26h437l-33 -118h-27q2 6 5.5 21t4.5 19t3 14t0.5 13t-3 9t-6 7.5t-10.5 4.5
t-15.5 3.5t-21.5 0.5h-222l-76 -259h145q7 0 12.5 0.5t10 3t7.5 3.5t6.5 6t5 7t4.5 9t4 9.5t4 11.5t4 13h25l-43 -153h-25q11 44 6 53q-5 11 -28 11h-144l-57 -193h222q12 0 21.5 0.5t18 3.5t13.5 4.5t10.5 8t8 9t6.5 13t5.5 14.5t6.5 19z" />
    <glyph glyph-name="emacron.smcp" horiz-adv-x="539" 
d="M260 669h252l-9 -30h-252zM408 119h26l-33 -119h-437l7 26h64q12 0 16 3.5t7 14.5l129 441q4 12 1 15.5t-15 3.5h-64l7 26h437l-33 -118h-27q2 6 5.5 21t4.5 19t3 14t0.5 13t-3 9t-6 7.5t-10.5 4.5t-15.5 3.5t-21.5 0.5h-222l-76 -259h145q7 0 12.5 0.5t10 3t7.5 3.5
t6.5 6t5 7t4.5 9t4 9.5t4 11.5t4 13h25l-43 -153h-25q11 44 6 53q-5 11 -28 11h-144l-57 -193h222q12 0 21.5 0.5t18 3.5t13.5 4.5t10.5 8t8 9t6.5 13t5.5 14.5t6.5 19z" />
    <glyph glyph-name="eogonek.smcp" horiz-adv-x="538" 
d="M116 530h437l-33 -118h-27q2 6 5.5 21t4.5 19t3 14t0.5 13t-3 9t-6 7.5t-10.5 4.5t-15.5 3.5t-21.5 0.5h-222l-76 -259h145q7 0 12.5 0.5t10 3t7.5 3.5t6.5 6t5 7t4.5 9t4 9.5t4 11.5t4 13h25l-43 -153h-25q11 44 6 53q-5 11 -28 11h-144l-57 -193h222q12 0 21.5 0.5
t18 3.5t13.5 4.5t10.5 8t8 9t6.5 13t5.5 14.5t6.5 19l7 21h26l-33 -119h-50q-65 -60 -87 -88t-22 -54q0 -46 50 -46q28 0 68 20l-8 -31q-35 -17 -68 -17q-36 0 -55.5 17t-19.5 49t23.5 62.5t90.5 87.5h-359l7 26h64q12 0 16 3.5t7 14.5l129 441q4 12 1 15.5t-15 3.5h-64z
" />
    </font>
</defs>
</svg>
