<?xml version="1.0" standalone="no"?>
<!DOCTYPE svg PUBLIC "-//W3C//DTD SVG 1.1//EN" "http://www.w3.org/Graphics/SVG/1.1/DTD/svg11.dtd" >
<svg xmlns="http://www.w3.org/2000/svg" xmlns:xlink="http://www.w3.org/1999/xlink" version="1.1">
<metadata>
Created by FontForge 20170731 at Thu Oct  6 08:27:59 2016
 By Aleksey,,,
Copyright (c) 2016 by Rene' Bieder. All rights reserved.
</metadata>
<defs>
<font id="Sagona-ExtraBoldItalic" horiz-adv-x="600" >
  <font-face 
    font-family="Sagona ExtraBold"
    font-weight="750"
    font-style="italic"
    font-stretch="normal"
    units-per-em="1000"
    panose-1="2 1 0 4 4 1 1 1 1 3"
    ascent="800"
    descent="-200"
    x-height="519"
    cap-height="680"
    bbox="-349 -285 2040 966"
    underline-thickness="50"
    underline-position="-250"
    slope="-16"
    unicode-range="U+0020-FB02"
  />
<missing-glyph horiz-adv-x="679" 
d="M205 680h513l-195 -680h-513zM259 604l-137 -480l439 480h-302zM469 76l138 481l-441 -481h303z" />
    <glyph glyph-name="arrowleft" unicode="&#x3c;&#x2014;" horiz-adv-x="855" 
d="M332 609l39 -26l-100 -202q15 1 88.5 5.5t137.5 4.5h310v-95h-310q-64 0 -137.5 4.5t-88.5 5.5l100 -201l-39 -27l-261 246v38z" />
    <glyph glyph-name="arrowright" unicode="&#x2d;&#x3e;" horiz-adv-x="856" 
d="M555 609l261 -247v-38l-261 -246l-39 27l100 201q-15 -1 -88.5 -5.5t-137.5 -4.5h-310v95h310q64 0 137.5 -4.5t88.5 -5.5l-100 202z" />
    <glyph glyph-name="arrowboth" unicode="&#x3c;&#x2014;&#x3e;" horiz-adv-x="950" 
d="M649 609l261 -247v-38l-261 -246l-38 27l99 201q-37 -1 -89.5 -5.5t-78.5 -4.5h-93q-33 0 -88.5 4.5t-89.5 5.5l100 -201l-38 -27l-262 246v38l262 247l38 -26l-100 -202q34 1 89.5 5.5t88.5 4.5h93q26 0 78.5 -4.5t89.5 -5.5l-99 202z" />
    <glyph glyph-name="fi" unicode="fi" horiz-adv-x="735" 
d="M661 213h71q-44 -118 -94.5 -171t-117.5 -53t-96 44t-9 114l77 268h-158l-123 -431q-24 -86 -87.5 -130t-140.5 -44q-63 0 -99 28.5t-36 74.5q0 35 20.5 56.5t52.5 21.5q29 0 49 -17t20 -47q0 -48 -49 -64q39 0 64.5 29t42.5 92l122 431h-113l26 94h83q29 0 39 29l8 26
q27 89 105.5 133t171.5 44q73 0 132.5 -35.5t59.5 -90.5q0 -34 -22.5 -60.5t-61.5 -26.5q-34 0 -55 19.5t-21 51.5q0 51 45 65q-20 8 -44 8q-112 0 -146 -111l-17 -52h320l-113 -388q-11 -35 13 -35q32 0 81 127z" />
    <glyph glyph-name="fl" unicode="fl" horiz-adv-x="772" 
d="M698 213h71q-47 -121 -96.5 -172.5t-121.5 -51.5q-67 0 -96 44.5t-9 113.5l76 268h-188l-123 -431q-24 -86 -87.5 -130t-140.5 -44q-63 0 -99 28.5t-36 74.5q0 35 20.5 56.5t52.5 21.5q29 0 49 -17t20 -47q0 -48 -49 -64q39 0 64.5 29t42.5 92l122 431h-113l26 94h83
q29 0 39 29l8 26q27 89 105.5 133t171.5 44q60 0 114 -25.5t71 -67.5l39 32h46l-162 -566q-8 -28 16 -28q32 0 84 127zM360 509h188l8 29q-34 19 -34 61q0 51 45 65q-20 8 -44 8q-112 0 -146 -111z" />
    <glyph glyph-name="T_h" unicode="Th" horiz-adv-x="1296" 
d="M1222 213h71q-49 -116 -100 -169.5t-117 -53.5q-69 0 -97.5 47.5t-3.5 121.5l55 159q32 97 -29 97q-14 0 -26.5 -6t-33 -30.5t-41.5 -67t-50 -122.5t-60 -189h-163l158 559q6 21 -14 26h-177l-132 -460q-9 -31 22 -31h73l-27 -94h-390l27 94h74q31 0 40 31l135 470h-27
q-92 0 -130 -6.5t-52 -23.5q31 -4 51 -24.5t20 -50.5q0 -34 -24.5 -56.5t-61.5 -22.5t-61 26.5t-24 68.5q0 74 61 123t208 51h431q101 0 137 6t47 24q-30 3 -51 24t-21 51q0 34 24.5 56.5t61.5 22.5t61 -27t24 -69q0 -114 -127 -153l-65 -187l-50 -133h6q77 224 223 224
q78 0 111 -60.5t1 -153.5l-63 -183q-6 -20 -1.5 -27.5t14.5 -7.5q9 0 17 7.5t25 36.5t41 82z" />
    <glyph glyph-name="f_b" unicode="fb" horiz-adv-x="1018" 
d="M868 519q65 0 101 -42t36 -122q0 -58 -19.5 -121.5t-53 -118t-85 -90t-110.5 -35.5q-60 0 -88.5 32.5t-47.5 93.5h-6l-115 -116h-76l118 415h-188l-123 -431q-24 -86 -87.5 -130t-140.5 -44q-63 0 -99 28.5t-36 74.5q0 35 20.5 56.5t52.5 21.5q29 0 49 -17t20 -47
q0 -48 -49 -64q39 0 64.5 29t42.5 92l122 431h-113l26 94h83q29 0 39 29l8 26q27 89 105.5 133t171.5 44q60 0 114 -25.5t71 -67.5l39 32h47l-94 -321h6q80 160 195 160zM360 509h189l8 29q-35 18 -35 61q0 51 45 65q-20 8 -44 8q-112 0 -146 -111zM694 80q36 0 70.5 49
t54 113t19.5 113q0 70 -48 70q-35 0 -68.5 -50t-52.5 -114t-19 -112q0 -69 44 -69z" />
    <glyph glyph-name="f_f" unicode="ff" horiz-adv-x="825" 
d="M831 732q72 0 122 -30t50 -82q0 -36 -22.5 -60.5t-61.5 -24.5q-35 0 -56.5 19.5t-21.5 51.5q0 49 44 65q-6 1 -18 1q-39 0 -64 -25t-44 -86l-17 -52h161l-27 -94h-160l-123 -431q-24 -86 -87.5 -130t-140.5 -44q-63 0 -99 29t-36 74q0 35 20.5 56.5t52.5 21.5
q29 0 49 -17t20 -47q0 -48 -49 -64q74 1 107 121l122 431h-218l-123 -431q-24 -86 -87.5 -130t-140.5 -44q-63 0 -99 29t-36 74q0 35 20.5 56.5t52.5 21.5q29 0 49 -17t20 -47q0 -48 -49 -64q74 1 107 121l122 431h-113l26 94h83q29 0 39 29l8 26q25 82 89 125t147 43
q72 0 121.5 -29.5t50.5 -80.5q33 54 88.5 82t121.5 28zM548 509q29 0 39 29l5 15q-23 -18 -55 -18q-35 0 -56.5 19.5t-21.5 51.5q0 49 44 65q-6 1 -18 1q-39 0 -64 -25t-44 -86l-17 -52h188z" />
    <glyph glyph-name="f_f_b" unicode="ffb" horiz-adv-x="1400" 
d="M1250 519q65 0 101 -42t36 -122q0 -58 -19.5 -121.5t-53 -118t-85 -90t-110.5 -35.5q-60 0 -88.5 32.5t-47.5 93.5h-6l-115 -116h-76l118 415h-188l-123 -431q-24 -86 -87.5 -130t-140.5 -44q-63 0 -99 28.5t-36 74.5q0 35 20.5 56.5t52.5 21.5q29 0 49 -17t20 -47
q0 -48 -49 -64q39 0 64.5 29t42.5 92l122 431h-218l-123 -431q-24 -86 -87.5 -130t-140.5 -44q-63 0 -99 28.5t-36 74.5q0 35 20.5 56.5t52.5 21.5q29 0 49 -17t20 -47q0 -48 -49 -64q39 0 64.5 29t42.5 92l122 431h-113l26 94h83q29 0 39 29l8 26q27 89 105.5 133t171.5 44
q51 0 99.5 -19.5t73.5 -51.5q81 71 209 71q60 0 114 -25.5t71 -67.5l39 32h47l-94 -321h6q80 160 195 160zM548 509q24 0 35 20q-28 5 -44.5 23.5t-16.5 46.5q0 51 45 65q-20 8 -44 8q-112 0 -146 -111l-17 -52h188zM742 509h189l8 29q-35 18 -35 61q0 51 45 65q-20 8 -44 8
q-112 0 -146 -111zM1076 80q36 0 70.5 49t54 113t19.5 113q0 70 -48 70q-35 0 -68.5 -50t-52.5 -114t-19 -112q0 -69 44 -69z" />
    <glyph glyph-name="f_f_f" unicode="fff" horiz-adv-x="1207" 
d="M1213 732q72 0 122 -30t50 -82q0 -36 -22.5 -60.5t-61.5 -24.5q-35 0 -56.5 19.5t-21.5 51.5q0 49 44 65q-6 1 -18 1q-39 0 -64 -25t-44 -86l-17 -52h161l-27 -94h-160l-123 -431q-24 -86 -87.5 -130t-140.5 -44q-63 0 -99 29t-36 74q0 35 20.5 56.5t52.5 21.5
q29 0 49 -17t20 -47q0 -48 -49 -64q74 1 107 121l122 431h-218l-123 -431q-24 -86 -87.5 -130t-140.5 -44q-63 0 -99 29t-36 74q0 35 20.5 56.5t52.5 21.5q29 0 49 -17t20 -47q0 -48 -49 -64q74 1 107 121l122 431h-218l-123 -431q-24 -86 -87.5 -130t-140.5 -44
q-63 0 -99 29t-36 74q0 35 20.5 56.5t52.5 21.5q29 0 49 -17t20 -47q0 -48 -49 -64q74 1 107 121l122 431h-113l26 94h83q29 0 39 29l8 26q25 82 89 125t147 43q72 0 121.5 -29.5t50.5 -80.5q33 54 88.5 82t121.5 28q72 0 121.5 -29.5t50.5 -80.5q33 54 88.5 82t121.5 28z
M548 509q29 0 39 29l5 15q-23 -18 -55 -18q-35 0 -56.5 19.5t-21.5 51.5q0 49 44 65q-6 1 -18 1q-39 0 -64 -25t-44 -86l-17 -52h188zM930 509q29 0 39 29l5 15q-23 -18 -55 -18q-35 0 -56.5 19.5t-21.5 51.5q0 49 44 65q-6 1 -18 1q-39 0 -64 -25t-44 -86l-17 -52h188z" />
    <glyph glyph-name="f_f_h" unicode="ffh" horiz-adv-x="1456" 
d="M1382 213h71q-49 -117 -100 -170.5t-117 -53.5q-69 0 -97.5 48t-3.5 122l55 159q32 97 -29 97q-14 0 -26.5 -6t-33 -30.5t-41.5 -67t-50 -122.5t-60 -189h-163l117 415h-188l-123 -431q-24 -86 -87.5 -130t-140.5 -44q-63 0 -99 28.5t-36 74.5q0 35 20.5 56.5t52.5 21.5
q29 0 49 -17t20 -47q0 -48 -49 -64q39 0 64.5 29t42.5 92l122 431h-218l-123 -431q-24 -86 -87.5 -130t-140.5 -44q-63 0 -99 28.5t-36 74.5q0 35 20.5 56.5t52.5 21.5q29 0 49 -17t20 -47q0 -48 -49 -64q39 0 64.5 29t42.5 92l122 431h-113l26 94h83q29 0 39 29l8 26
q27 89 105.5 133t171.5 44q51 0 99.5 -19.5t73.5 -51.5q81 71 209 71q61 0 115 -26t71 -68l42 33h46l-88 -252l-50 -133h6q77 224 223 224q78 0 111 -60.5t1 -153.5l-63 -184q-6 -20 -1.5 -27.5t14.5 -7.5q9 0 17 7.5t25 36.5t41 83zM548 509q24 0 35 20q-28 5 -44.5 23.5
t-16.5 46.5q0 51 45 65q-20 8 -44 8q-112 0 -146 -111l-17 -52h188zM742 509h189l8 29q-35 18 -35 61q0 51 45 65q-20 8 -44 8q-112 0 -146 -111z" />
    <glyph glyph-name="f_f_i" unicode="ffi" horiz-adv-x="1117" 
d="M1043 213h71q-44 -118 -94.5 -171t-117.5 -53t-96 44t-9 114l77 268h-158l-123 -431q-24 -86 -87.5 -130t-140.5 -44q-63 0 -99 28.5t-36 74.5q0 35 20.5 56.5t52.5 21.5q29 0 49 -17t20 -47q0 -48 -49 -64q39 0 64.5 29t42.5 92l122 431h-218l-123 -431
q-24 -86 -87.5 -130t-140.5 -44q-63 0 -99 28.5t-36 74.5q0 35 20.5 56.5t52.5 21.5q29 0 49 -17t20 -47q0 -48 -49 -64q39 0 64.5 29t42.5 92l122 431h-113l26 94h83q29 0 39 29l8 26q27 89 105.5 133t171.5 44q51 0 99.5 -19.5t73.5 -51.5q81 71 209 71q73 0 132.5 -35.5
t59.5 -90.5q0 -34 -22.5 -60.5t-61.5 -26.5q-34 0 -55 19.5t-21 51.5q0 51 45 65q-20 8 -44 8q-112 0 -146 -111l-17 -52h320l-113 -388q-11 -35 13 -35q32 0 81 127zM548 509q24 0 35 20q-28 5 -44.5 23.5t-16.5 46.5q0 51 45 65q-20 8 -44 8q-112 0 -146 -111l-17 -52h188
z" />
    <glyph glyph-name="f_f_j" unicode="ffj" horiz-adv-x="1071" 
d="M1091 509l-141 -497q-30 -103 -106.5 -152.5t-158.5 -49.5q-57 0 -92 25t-40 66q-68 -91 -188 -91q-63 0 -99 28.5t-36 74.5q0 35 20.5 56.5t52.5 21.5q29 0 49 -17t20 -47q0 -48 -49 -64q39 0 64.5 29t42.5 92l122 431h-218l-123 -431q-24 -86 -87.5 -130t-140.5 -44
q-63 0 -99 28.5t-36 74.5q0 35 20.5 56.5t52.5 21.5q29 0 49 -17t20 -47q0 -48 -49 -64q39 0 64.5 29t42.5 92l122 431h-113l26 94h83q29 0 39 29l8 26q27 89 105.5 133t171.5 44q51 0 99.5 -19.5t73.5 -51.5q81 71 209 71q73 0 132.5 -35.5t59.5 -90.5q0 -34 -22.5 -60.5
t-61.5 -26.5q-34 0 -55 19.5t-21 51.5q0 51 45 65q-20 8 -44 8q-112 0 -146 -111l-17 -52h349zM548 509q24 0 35 20q-28 5 -44.5 23.5t-16.5 46.5q0 51 45 65q-20 8 -44 8q-112 0 -146 -111l-17 -52h188zM789 12l116 403h-189l-123 -431q14 7 33 7q29 0 49 -17t20 -46
q0 -49 -50 -65q43 1 82 36.5t62 112.5z" />
    <glyph glyph-name="f_f_k" unicode="ffk" horiz-adv-x="1436" 
d="M1097 680h47l-194 -680h-163l118 415h-189l-123 -431q-24 -86 -87.5 -130t-140.5 -44q-63 0 -99 28.5t-36 74.5q0 35 20.5 56.5t52.5 21.5q29 0 49 -17t20 -47q0 -48 -49 -64q39 0 64.5 29t42.5 92l122 431h-218l-123 -431q-24 -86 -87.5 -130t-140.5 -44q-63 0 -99 28.5
t-36 74.5q0 35 20.5 56.5t52.5 21.5q29 0 49 -17t20 -47q0 -48 -49 -64q39 0 64.5 29t42.5 92l122 431h-113l26 94h83q29 0 39 29l8 26q27 89 105.5 133t171.5 44q51 0 99.5 -19.5t73.5 -51.5q81 71 209 71q60 0 114.5 -25.5t71.5 -67.5zM548 509q24 0 35 20
q-28 5 -44.5 23.5t-16.5 46.5q0 51 45 65q-20 8 -44 8q-112 0 -146 -111l-17 -52h188zM742 509h190l8 28q-36 20 -36 62q0 51 45 65q-20 8 -44 8q-112 0 -146 -111zM1275 86q8 0 16 7t24 36.5t38 83.5h72q-49 -123 -92.5 -173t-113.5 -50q-119 0 -119 114q0 11 1 45.5t0 48
t-5 34.5t-15 29.5t-29 8.5l-7 21q38 26 78.5 70t66.5 76t66.5 57t86.5 25q47 0 74 -23.5t27 -62.5q0 -38 -23.5 -63.5t-59.5 -25.5q-33 0 -56 21t-23 49q0 8 1 12q-18 -14 -46 -43.5t-55 -53.5t-52 -35q35 -2 59.5 -11.5t37 -22t19 -34t7.5 -37t1 -40.5v-12q0 -51 21 -51z
" />
    <glyph glyph-name="f_f_l" unicode="ffl" horiz-adv-x="1154" 
d="M1080 213h71q-47 -121 -96.5 -172.5t-121.5 -51.5q-67 0 -96 44.5t-9 113.5l76 268h-188l-123 -431q-24 -86 -87.5 -130t-140.5 -44q-63 0 -99 28.5t-36 74.5q0 35 20.5 56.5t52.5 21.5q29 0 49 -17t20 -47q0 -48 -49 -64q39 0 64.5 29t42.5 92l122 431h-218l-123 -431
q-24 -86 -87.5 -130t-140.5 -44q-63 0 -99 28.5t-36 74.5q0 35 20.5 56.5t52.5 21.5q29 0 49 -17t20 -47q0 -48 -49 -64q39 0 64.5 29t42.5 92l122 431h-113l26 94h83q29 0 39 29l8 26q27 89 105.5 133t171.5 44q51 0 99.5 -19.5t73.5 -51.5q81 71 209 71q60 0 114 -25.5
t71 -67.5l39 32h46l-162 -566q-8 -28 16 -28q32 0 84 127zM548 509q24 0 35 20q-28 5 -44.5 23.5t-16.5 46.5q0 51 45 65q-20 8 -44 8q-112 0 -146 -111l-17 -52h188zM742 509h188l8 29q-34 19 -34 61q0 51 45 65q-20 8 -44 8q-112 0 -146 -111z" />
    <glyph glyph-name="f_h" unicode="fh" horiz-adv-x="1074" 
d="M1000 213h71q-49 -117 -100 -170.5t-117 -53.5q-69 0 -97.5 48t-3.5 122l55 159q32 97 -29 97q-14 0 -26.5 -6t-33 -30.5t-41.5 -67t-50 -122.5t-60 -189h-163l117 415h-188l-123 -431q-24 -86 -87.5 -130t-140.5 -44q-63 0 -99 28.5t-36 74.5q0 35 20.5 56.5t52.5 21.5
q29 0 49 -17t20 -47q0 -48 -49 -64q39 0 64.5 29t42.5 92l122 431h-113l26 94h83q29 0 39 29l8 26q27 89 105.5 133t171.5 44q61 0 115 -26t71 -68l42 33h46l-88 -252l-50 -133h6q77 224 223 224q78 0 111 -60.5t1 -153.5l-63 -184q-6 -20 -1.5 -27.5t14.5 -7.5q9 0 17 7.5
t25 36.5t41 83zM360 509h189l8 29q-35 18 -35 61q0 51 45 65q-20 8 -44 8q-112 0 -146 -111z" />
    <glyph glyph-name="f_j" unicode="fj" horiz-adv-x="689" 
d="M709 509l-141 -497q-30 -103 -106.5 -152.5t-158.5 -49.5q-57 0 -92 25t-40 66q-68 -91 -188 -91q-63 0 -99 28.5t-36 74.5q0 35 20.5 56.5t52.5 21.5q29 0 49 -17t20 -47q0 -48 -49 -64q39 0 64.5 29t42.5 92l122 431h-113l26 94h83q29 0 39 29l8 26q27 89 105.5 133
t171.5 44q73 0 132.5 -35.5t59.5 -90.5q0 -34 -22.5 -60.5t-61.5 -26.5q-34 0 -55 19.5t-21 51.5q0 51 45 65q-20 8 -44 8q-112 0 -146 -111l-17 -52h349zM407 12l116 403h-189l-123 -431q14 7 33 7q29 0 49 -17t20 -46q0 -49 -50 -65q43 1 82 36.5t62 112.5z" />
    <glyph glyph-name="f_k" unicode="fk" horiz-adv-x="1055" 
d="M715 680h47l-194 -680h-163l118 415h-189l-123 -431q-24 -86 -87.5 -130t-140.5 -44q-63 0 -99 28.5t-36 74.5q0 35 20.5 56.5t52.5 21.5q29 0 49 -17t20 -47q0 -48 -49 -64q39 0 64.5 29t42.5 92l122 431h-113l26 94h83q29 0 39 29l8 26q27 89 105.5 133t171.5 44
q60 0 114.5 -25.5t71.5 -67.5zM360 509h190l8 28q-36 20 -36 62q0 51 45 65q-20 8 -44 8q-112 0 -146 -111zM893 86q8 0 16 7t24 36.5t38 83.5h72q-49 -123 -92.5 -173t-113.5 -50q-119 0 -119 114q0 11 1 45.5t0 48t-5 34.5t-15 29.5t-29 8.5l-7 21q38 26 78.5 70t66.5 76
t66.5 57t86.5 25q47 0 74 -23.5t27 -62.5q0 -38 -23.5 -63.5t-59.5 -25.5q-33 0 -56 21t-23 49q0 8 1 12q-18 -14 -46 -43.5t-55 -53.5t-52 -35q35 -2 59.5 -11.5t37 -22t19 -34t7.5 -37t1 -40.5v-12q0 -51 21 -51z" />
    <glyph glyph-name="f_t" unicode="ft" horiz-adv-x="805" 
d="M687 415l-83 -291q-5 -21 3 -29.5t21 -8.5q41 0 91 127h71q-84 -223 -230 -223q-69 0 -101 44.5t-12 113.5l75 267h-188l-123 -431q-24 -86 -87.5 -130t-140.5 -44q-63 0 -99 29t-36 74q0 35 20.5 56.5t52.5 21.5q29 0 49 -17t20 -47q0 -48 -49 -64q74 1 107 121l122 431
h-113l26 94h83q29 0 39 29l8 26q25 82 89 125t147 43q72 0 122 -30t50 -82q0 -36 -22.5 -60.5t-61.5 -24.5q-35 0 -56.5 19.5t-21.5 51.5q0 49 44 65q-6 1 -18 1q-39 0 -64 -25t-44 -86l-17 -52h197l128 117h62l-33 -117h122l-27 -94h-122z" />
    <glyph glyph-name=".notdef" horiz-adv-x="679" 
d="M205 680h513l-195 -680h-513zM259 604l-137 -480l439 480h-302zM469 76l138 481l-441 -481h303z" />
    <glyph glyph-name=".null" horiz-adv-x="0" 
 />
    <glyph glyph-name="nonmarkingreturn" horiz-adv-x="333" 
 />
    <glyph glyph-name="space" unicode=" " horiz-adv-x="189" 
 />
    <glyph glyph-name="exclam" unicode="!" horiz-adv-x="315" 
d="M132 268q2 272 20 338q13 46 50 69t79 11t61.5 -51t6.5 -85q-10 -32 -60 -119.5t-98 -162.5h-59zM112 185q42 0 69 -26.5t27 -69.5t-27 -69.5t-69 -26.5t-70 27.5t-28 69.5t28 68.5t70 26.5z" />
    <glyph glyph-name="quotedbl" unicode="&#x22;" horiz-adv-x="428" 
d="M115 375q3 41 5 99t5 94.5t10 60.5q8 28 30 44.5t49 16.5q34 0 56 -23.5t22 -57.5q0 -24 -15.5 -58t-48.5 -90.5t-48 -85.5h-65zM321 375q3 41 5 99t5 94.5t10 60.5q8 28 30 44.5t49 16.5q34 0 56 -23.5t22 -57.5q0 -24 -15.5 -58t-48.5 -90.5t-48 -85.5h-65z" />
    <glyph glyph-name="numbersign" unicode="#" horiz-adv-x="645" 
d="M693 425h-125l-83 -169h120l-24 -83h-137l-85 -173h-96l85 173h-142l-85 -173h-96l85 173h-113l24 83h130l83 169h-124l23 84h143l84 171h96l-84 -171h142l84 171h96l-84 -171h107zM389 256l83 169h-142l-83 -169h142z" />
    <glyph glyph-name="dollar" unicode="$" horiz-adv-x="574" 
d="M444 511q0 24 15 43.5t36 26.5q-25 18 -67 27l-62 -197q86 -47 116 -75q52 -50 52 -119q0 -95 -82 -161.5t-199 -66.5l-29 -110h-84l37 118q-77 17 -125.5 63t-48.5 110q0 45 25.5 73t64.5 28q36 0 60 -23.5t24 -57.5q0 -29 -17.5 -48.5t-42.5 -25.5q30 -31 84 -41
l63 203q-4 2 -22.5 12t-24 13t-22 13t-22.5 15.5t-19.5 16t-19 18.5t-14.5 20.5t-12.5 24t-6.5 26.5t-3 31q0 93 78.5 158t194.5 65h4l25 95h83l-32 -104q71 -17 116.5 -57.5t45.5 -96.5q0 -42 -24.5 -66t-61.5 -24q-36 0 -59.5 21.5t-23.5 51.5zM256 524q0 -44 54 -81
l44 169q-44 -6 -71 -30t-27 -58zM275 76q41 8 64.5 33t23.5 59q0 43 -44 77z" />
    <glyph glyph-name="percent" unicode="%" horiz-adv-x="1048" 
d="M577 359l-12 14q41 54 136.5 157t126.5 131q59 54 91 19q32 -36 -27 -90q-32 -28 -143.5 -111.5t-171.5 -119.5zM293 282q-82 0 -134 49t-52 125q0 95 69.5 164.5t165.5 69.5q83 0 134.5 -48.5t51.5 -124.5q0 -95 -69.5 -165t-165.5 -70zM294 342q56 0 93 67.5t37 138.5
q0 82 -82 82q-58 0 -94 -66t-36 -139q0 -83 82 -83zM755 -10q-82 0 -134 49t-52 125q0 95 69.5 164.5t165.5 69.5q83 0 134.5 -48.5t51.5 -124.5q0 -95 -69.5 -165t-165.5 -70zM756 50q56 0 93 67.5t37 138.5q0 82 -82 82q-58 0 -94 -66t-36 -139q0 -83 82 -83zM166 -2
q-32 35 28 90q30 27 143 112.5t172 121.5l12 -13q-40 -60 -133.5 -159.5t-129.5 -131.5q-60 -54 -92 -20z" />
    <glyph glyph-name="ampersand" unicode="&#x26;" horiz-adv-x="697" 
d="M736 385q0 -59 -49.5 -89.5t-127.5 -32.5q44 -26 44 -80q0 -83 -85 -138t-211 -55q-79 0 -145.5 21.5t-109.5 66.5t-43 106q0 82 71.5 137.5t178.5 55.5q-125 33 -125 132q0 78 67.5 129.5t171.5 51.5q94 0 161 -43t67 -120q0 -48 -27.5 -83.5t-73.5 -35.5q-35 0 -63 21
t-28 63q0 72 82 87q-29 19 -69 19q-60 0 -94 -30.5t-34 -72.5q0 -34 24 -59t60 -33l13 -3l-25 -79l-25 -3q-66 -7 -105.5 -42t-39.5 -85q0 -56 47 -89t113 -33q71 0 122 38t51 95q0 45 -33 64q-36 4 -63 4q-28 0 -42 -5h4q28 0 45.5 -18.5t17.5 -44.5q0 -29 -22 -49.5
t-56 -20.5q-31 0 -55 18.5t-24 56.5q0 59 55.5 90t133.5 31q22 0 65.5 -3.5t56.5 -3.5q22 0 32 6h-9q-58 0 -58 56q0 35 23.5 58.5t59.5 23.5q30 0 53 -19.5t23 -60.5z" />
    <glyph glyph-name="quotesingle" unicode="'" horiz-adv-x="222" 
d="M115 375q3 41 5 99t5 94.5t10 60.5q8 28 30 44.5t49 16.5q34 0 56 -23.5t22 -57.5q0 -24 -15.5 -58t-48.5 -90.5t-48 -85.5h-65z" />
    <glyph glyph-name="parenleft" unicode="(" horiz-adv-x="420" 
d="M226 -143q-179 140 -179 357q0 190 121 345t315 217l22 -69q-148 -97 -228.5 -232.5t-80.5 -290.5q0 -77 21 -137t66 -131z" />
    <glyph glyph-name="parenright" unicode=")" horiz-adv-x="417" 
d="M229 777q179 -140 179 -357q0 -190 -121 -345t-315 -217l-22 69q148 97 228.5 232.5t80.5 290.5q0 77 -21 137t-66 131z" />
    <glyph glyph-name="asterisk" unicode="*" horiz-adv-x="500" 
d="M165 441q-36 48 11 84q32 22 113 36l1 21q-90 12 -115 31q-49 36 -14 84q25 36 65 24q24 -8 41 -29t46 -76l19 6q-15 85 -6 116q18 58 75 43q26 -8 37 -28.5t4 -47.5q-10 -33 -68 -95l15 -16q52 31 77.5 40t50.5 3q40 -8 43 -55q2 -25 -12.5 -42.5t-44.5 -20.5
q-35 -2 -113 35l-11 -19q63 -57 76 -91q11 -23 2 -45t-37 -31q-25 -10 -46.5 -1t-31.5 34q-12 32 -3 118l-24 7q-39 -78 -66 -98q-21 -16 -44.5 -12.5t-39.5 25.5z" />
    <glyph glyph-name="plus" unicode="+" horiz-adv-x="561" 
d="M230 251h-168l26 93h168l50 174h100l-49 -174h167l-26 -93h-168l-50 -174h-100z" />
    <glyph glyph-name="comma" unicode="," horiz-adv-x="263" 
d="M84 184q39 0 67 -24.5t28 -73.5q0 -77 -71.5 -138.5t-176.5 -85.5l-16 49q64 21 92 41.5t40 48.5q-60 25 -60 87q0 41 27.5 68.5t69.5 27.5z" />
    <glyph glyph-name="hyphen" unicode="-" horiz-adv-x="411" 
d="M78 316h291l-28 -98h-291z" />
    <glyph glyph-name="period" unicode="." horiz-adv-x="263" 
d="M85 185q42 0 68.5 -26.5t26.5 -69.5t-26.5 -69.5t-68.5 -26.5t-70 27.5t-28 69.5t28 68.5t70 26.5z" />
    <glyph glyph-name="slash" unicode="/" horiz-adv-x="473" 
d="M530 794h104l-644 -913h-104z" />
    <glyph glyph-name="zero" unicode="0" horiz-adv-x="660" 
d="M54 248q0 108 46 209.5t129 167t181 65.5q113 0 179 -70.5t66 -187.5q0 -108 -46 -209.5t-129 -167t-181 -65.5q-113 0 -179 70.5t-66 187.5zM289 77q55 0 105 78.5t76.5 176.5t26.5 172q0 48 -20.5 73.5t-56.5 25.5q-55 0 -105 -78t-76.5 -176t-26.5 -172
q0 -46 20.5 -73t56.5 -27z" />
    <glyph glyph-name="one" unicode="1" horiz-adv-x="498" 
d="M303 125q-9 -31 22 -31h112l-27 -94h-452l28 94h105q31 0 40 31l109 381q-56 -13 -137 -13l23 78q95 7 132.5 26t68.5 89h137z" />
    <glyph glyph-name="two" unicode="2" horiz-adv-x="611" 
d="M351 122q15 2 27.5 5t22.5 8.5t17.5 8.5t15 12.5t10.5 12t9.5 15.5t7.5 14.5t7.5 17.5t6.5 17h94l-66 -233h-511l21 74q20 17 80.5 61.5t108.5 83t101 88.5t83.5 101t30.5 97q0 42 -26.5 70t-77.5 28q-44 0 -84 -19q31 -11 48.5 -35t17.5 -54q0 -41 -28.5 -69t-69.5 -28
t-67 27.5t-26 71.5q0 76 73.5 134.5t182.5 58.5q102 0 170 -53.5t68 -135.5q0 -37 -13.5 -72.5t-43 -69.5t-57 -61t-73.5 -58.5t-74.5 -50t-78.5 -48.5t-67 -41z" />
    <glyph glyph-name="three" unicode="3" horiz-adv-x="553" 
d="M568 509q0 -71 -58.5 -116t-160.5 -53q76 -11 112.5 -54t36.5 -100q0 -88 -77 -142t-179 -54q-97 0 -170.5 48t-73.5 126q0 46 26.5 75.5t66.5 29.5q36 0 60.5 -23t24.5 -59q0 -31 -19 -54.5t-52 -32.5q34 -23 84 -23q59 0 97 34t38 89q0 44 -30.5 70.5t-79.5 26.5h-18
l26 93h44q58 0 97 35t39 87q0 43 -28 67t-75 24q-29 0 -62 -12q44 -26 44 -72q0 -35 -26 -60t-64 -25q-39 0 -64 27t-25 68q0 69 71.5 115t165.5 46q99 0 164 -52t65 -129z" />
    <glyph glyph-name="four" unicode="4" horiz-adv-x="590" 
d="M453 174l-14 -49q-9 -31 22 -31h57l-27 -94h-370l27 94h92q31 0 40 31l14 49h-289l28 94q46 33 82.5 66.5t57.5 59t38.5 55.5t25 48.5t18 46t15.5 39.5q9 21 14.5 31t20 32t35.5 33t46 11t41.5 -19t16.5 -47q0 -55 -30 -109.5t-80 -100t-102.5 -81t-111.5 -65.5h201
l32 111q53 35 80 62t42 59h72l-67 -232h103l-27 -94h-103z" />
    <glyph glyph-name="five" unicode="5" horiz-adv-x="577" 
d="M422 504q-78 0 -144 52l-64 -161q45 16 92 16q97 0 164 -52.5t67 -141.5q0 -96 -76.5 -161t-189.5 -65q-102 0 -174.5 51t-72.5 134q0 46 27.5 77t68.5 31q35 0 59 -23.5t24 -58.5t-23.5 -57.5t-61.5 -27.5q39 -41 102 -41q61 0 101.5 43.5t40.5 106.5q0 60 -37.5 89.5
t-89.5 29.5q-30 0 -69 -13l-37 42l108 287l62 25q15 -3 40.5 -8.5t34 -7t25 -4.5t25.5 -3.5t22.5 -1.5t28.5 -1q93 0 182 29l14 -52q-66 -72 -123 -102.5t-126 -30.5z" />
    <glyph glyph-name="six" unicode="6" horiz-adv-x="634" 
d="M477 516q0 30 17 50t44 26q-34 21 -83 21q-69 0 -119.5 -59t-89.5 -176q63 44 142 44q87 0 144.5 -48t57.5 -132q0 -102 -80 -177t-204 -75q-112 0 -182 65.5t-70 185.5q0 105 51 208t142.5 172t196.5 69q84 0 145 -42.5t61 -111.5q0 -43 -25 -70t-65 -27q-37 0 -60 21.5
t-23 55.5zM353 354q-43 0 -75.5 -39.5t-45 -84.5t-13.5 -82q0 -38 19 -60t51 -22q41 0 73 40.5t45.5 88t13.5 85.5q0 34 -18.5 54t-49.5 20z" />
    <glyph glyph-name="seven" unicode="7" horiz-adv-x="587" 
d="M655 690q26 0 41 -15.5t15 -40.5q0 -39 -35.5 -66t-89.5 -33q-41 -39 -73 -72t-57.5 -63t-43.5 -51t-33.5 -47t-24 -39.5t-19 -40.5t-14.5 -38t-14 -43t-15 -46q-38 -105 -109 -105q-38 0 -58 25.5t-20 61.5q0 49 41 116t105 131t137.5 122t141.5 97q-67 9 -158.5 26.5
t-126.5 17.5q-22 0 -37 -3q33 -7 52 -28.5t17 -50.5q-1 -34 -26.5 -56t-60.5 -22q-40 0 -66 27.5t-26 68.5q0 24 10 51t30.5 54t59 44.5t88.5 17.5q52 0 97.5 -18t92.5 -43t83 -35q36 96 96 96z" />
    <glyph glyph-name="eight" unicode="8" 
d="M599 522q0 -107 -156 -146q51 -36 79.5 -75.5t28.5 -95.5q0 -93 -79 -154t-210 -61q-114 0 -185.5 46.5t-71.5 124.5q0 63 47 105.5t124 63.5q-72 60 -72 141q0 93 78 155t188 62q94 0 161.5 -45t67.5 -121zM395 406q92 54 92 122q0 41 -25.5 65t-71.5 24
q-49 0 -78.5 -25.5t-29.5 -62.5q0 -19 8 -35.5t27.5 -33t33.5 -26t44 -28.5zM252 61q47 0 78 28t31 67q0 13 -3 24.5t-12.5 23t-15.5 19t-23.5 19.5t-24 16.5t-29 18.5t-27.5 17q-84 -54 -84 -129q0 -45 31 -74.5t79 -29.5z" />
    <glyph glyph-name="nine" unicode="9" horiz-adv-x="635" 
d="M378 690q112 0 182 -65.5t70 -185.5q0 -105 -51 -208t-142.5 -172t-196.5 -69q-84 0 -145 42.5t-61 111.5q0 43 25 70t65 27q37 0 60 -21.5t23 -55.5q0 -30 -17 -50t-44 -26q34 -21 83 -21q69 0 119.5 59t89.5 176q-63 -44 -142 -44q-87 0 -144.5 48t-57.5 132
q0 102 80 177t204 75zM331 326q43 0 75.5 39.5t45 84.5t13.5 82q0 38 -19 60t-51 22q-41 0 -73 -40.5t-45.5 -88t-13.5 -85.5q0 -34 18.5 -54t49.5 -20z" />
    <glyph glyph-name="colon" unicode=":" horiz-adv-x="263" 
d="M180 516q42 0 68.5 -26.5t26.5 -69.5t-26.5 -69.5t-68.5 -26.5t-70 27.5t-28 69.5t28 68.5t70 26.5zM85 185q42 0 68.5 -26.5t26.5 -69.5t-26.5 -69.5t-68.5 -26.5t-70 27.5t-28 69.5t28 68.5t70 26.5z" />
    <glyph glyph-name="semicolon" unicode=";" horiz-adv-x="263" 
d="M180 516q42 0 68.5 -26.5t26.5 -69.5t-26.5 -69.5t-68.5 -26.5t-70 27.5t-28 69.5t28 68.5t70 26.5zM84 184q39 0 67 -24.5t28 -73.5q0 -77 -71.5 -138.5t-176.5 -85.5l-16 49q64 21 92 41.5t40 48.5q-60 25 -60 87q0 41 27.5 68.5t69.5 27.5z" />
    <glyph glyph-name="less" unicode="&#x3c;" horiz-adv-x="561" 
d="M59 244l27 91l468 184l-39 -134l-341 -102l281 -112l-32 -112z" />
    <glyph glyph-name="equal" unicode="=" horiz-adv-x="562" 
d="M95 366l27 92h436l-27 -92h-436zM41 177l26 93h436l-26 -93h-436z" />
    <glyph glyph-name="greater" unicode="&#x3e;" horiz-adv-x="562" 
d="M522 334l-27 -91l-468 -184l39 134l341 102l-281 112l32 112z" />
    <glyph glyph-name="question" unicode="?" horiz-adv-x="565" 
d="M354 690q65 0 119 -18t91 -60t37 -103q0 -185 -348 -262l-25 46q195 114 195 229q0 90 -106 90q-42 0 -67 -19q47 -19 47 -71q0 -41 -28 -70t-69 -29q-39 0 -65 27t-26 71q0 75 71.5 122t173.5 47zM233 185q42 0 69 -26.5t27 -69.5t-27 -69.5t-69 -26.5t-70 27.5
t-28 69.5t28 68.5t70 26.5z" />
    <glyph glyph-name="at" unicode="@" horiz-adv-x="845" 
d="M397 -117q-159 0 -261.5 94.5t-102.5 251.5q0 91 37 175.5t99.5 147.5t151 100.5t186.5 37.5q151 0 246 -83t95 -218q0 -132 -87 -218t-183 -86q-58 0 -76 33t-11 78h-3q-17 -42 -54 -76.5t-91 -34.5q-50 0 -87.5 33t-37.5 103q0 40 13 85.5t37.5 87.5t65 69.5t88.5 27.5
q53 0 80.5 -32.5t22.5 -89.5h5l31 114h114l-83 -275q-7 -24 1.5 -41.5t32.5 -17.5q54 0 100.5 76.5t46.5 166.5q0 109 -74 177.5t-194 68.5q-164 0 -281.5 -121.5t-117.5 -288.5q0 -136 82 -214t214 -78q137 0 250 74l20 -42q-128 -85 -275 -85zM397 163q34 0 61.5 35
t39.5 80t9 80q-3 32 -14.5 47t-38.5 15q-33 0 -60 -37.5t-39 -83t-10 -79.5q2 -28 16.5 -42.5t35.5 -14.5z" />
    <glyph glyph-name="A" unicode="A" horiz-adv-x="771" 
d="M690 94h31l-27 -94h-362l27 94h69q14 0 22.5 8.5t7.5 21.5l-6 55h-252l-37 -54q-9 -13 -6 -22t18 -9h52l-27 -94h-268l27 94h38q33 0 57 34l389 552h126l81 -556q5 -30 40 -30zM255 260h188l-26 235z" />
    <glyph glyph-name="B" unicode="B" horiz-adv-x="684" 
d="M712 525q0 -74 -59 -122t-154 -60q72 -10 111 -48t39 -97q0 -86 -79 -142t-207 -56h-409l27 94h58q32 0 39 26l124 431q9 35 -22 35h-57l26 94h344q95 0 157 -43t62 -112zM400 398q63 0 102 31.5t39 78.5q0 36 -24.5 57t-67.5 21h-54l-54 -188h59zM323 94q70 0 113 34.5
t43 85.5q0 40 -26.5 64t-70.5 24h-69l-60 -208h70z" />
    <glyph glyph-name="C" unicode="C" horiz-adv-x="711" 
d="M523 466q0 32 19 56.5t50 35.5q-31 45 -100 45q-60 0 -109 -35.5t-78 -89.5t-44 -112.5t-15 -110.5q0 -78 34.5 -123t99.5 -45q63 0 110 41t94 121h91q-68 -140 -150 -199.5t-184 -59.5q-125 0 -204.5 74.5t-79.5 204.5q0 165 121 293t287 128q109 0 187.5 -56t78.5 -144
q0 -53 -30 -83.5t-77 -30.5q-44 0 -72.5 25.5t-28.5 64.5z" />
    <glyph glyph-name="D" unicode="D" horiz-adv-x="773" 
d="M457 680q141 0 226.5 -72.5t85.5 -198.5q0 -171 -138.5 -290t-344.5 -119h-331l26 94h58q31 0 39 26l124 432q9 34 -22 34h-58l27 94h308zM315 94q112 0 190 99t78 224q0 82 -40.5 125.5t-110.5 43.5h-39l-142 -492h64z" />
    <glyph glyph-name="E" unicode="E" horiz-adv-x="679" 
d="M532 221h102l-64 -221h-617l28 94h57q31 0 40 31l123 430q9 31 -22 31h-58l28 94h609l-64 -221h-103q13 69 8 89q-11 37 -69 38h-138l-69 -239h48q9 0 16.5 2.5t14 9l11 11t10.5 16t8.5 17t8.5 20t8 19.5h76l-82 -283h-75q9 35 6.5 65t-29.5 30h-48l-46 -160h138
q32 0 55.5 9.5t40.5 31t25.5 37.5t22.5 49z" />
    <glyph glyph-name="F" unicode="F" horiz-adv-x="677" 
d="M766 680l-64 -221h-102q1 3 3.5 19t3 20t2 17.5t0.5 17t-2 14t-4.5 14t-8.5 10t-13 9t-18.5 4.5t-23.5 2h-147l-69 -239h74q9 0 16.5 2.5t14 9l11 11t10.5 16t8.5 17t8.5 20t8 19.5h76l-81 -283h-76q0 2 2 15t2 16t1 14t-0.5 14t-3 11t-6 11t-10 7t-14.5 5.5t-20 1.5h-48
l-37 -129q-9 -31 22 -31h120l-28 -94h-420l28 94h57q31 0 40 31l123 430q9 31 -22 31h-58l28 94h617z" />
    <glyph glyph-name="G" unicode="G" horiz-adv-x="783" 
d="M395 325h388l-26 -94h-48q-31 0 -40 -31l-58 -200h-40l-61 59q-75 -69 -178 -69q-123 0 -198.5 76t-75.5 205q0 107 51 202.5t146 156t211 60.5q111 0 187 -52t76 -140q0 -51 -27 -82t-72 -31q-42 0 -70 25.5t-28 64.5q0 31 18.5 53t51.5 30q-33 45 -106 45
q-57 0 -106 -35.5t-79.5 -90t-47.5 -115.5t-17 -115q0 -71 32 -115.5t97 -44.5q51 0 99 37l22 76q9 31 -23 31h-103z" />
    <glyph glyph-name="H" unicode="H" horiz-adv-x="833" 
d="M577 680h352l-27 -94h-57q-31 0 -40 -31l-123 -430q-9 -31 22 -31h57l-27 -94h-352l27 94h52q30 0 39 31l36 126h-240l-36 -126q-9 -31 22 -31h51l-27 -94h-352l27 94h58q31 0 40 31l123 430q9 31 -23 31h-57l27 94h352l-26 -94h-52q-31 0 -39 -31l-61 -210h240l60 210
q9 31 -22 31h-50z" />
    <glyph glyph-name="I" unicode="I" horiz-adv-x="422" 
d="M428 586q-31 0 -39 -31l-124 -430q-9 -31 22 -31h62l-27 -94h-367l27 94h62q31 0 40 31l122 430q9 31 -22 31h-61l27 94h367l-28 -94h-61z" />
    <glyph glyph-name="J" unicode="J" horiz-adv-x="592" 
d="M246 680h456l-26 -94h-57q-32 0 -40 -31l-98 -353q-25 -92 -95 -152t-170 -60q-95 0 -157.5 52.5t-62.5 134.5q0 54 28 86.5t72 32.5q39 0 66 -24.5t27 -62.5t-28 -65.5t-69 -30.5q40 -18 78 -18q50 0 83 34t47 82l98 344q8 31 -22 31h-156z" />
    <glyph glyph-name="K" unicode="K" horiz-adv-x="798" 
d="M-47 0l28 94h57q31 0 40 31l123 430q9 31 -22 31h-58l28 94h351l-27 -94h-51q-31 0 -39 -31l-124 -430q-9 -31 22 -31h31l-27 -94h-332zM343 0l27 94h41q30 0 18 30l-89 208l279 225q28 24 8 28q-3 1 -7 1h-71l27 94h324l-27 -94h-34q-51 0 -89 -31l-223 -183l114 -239
q18 -39 67 -39h41l-27 -94h-379z" />
    <glyph glyph-name="L" unicode="L" horiz-adv-x="656" 
d="M539 302h94l-87 -302h-593l28 94h57q31 0 40 31l123 430q9 31 -22 31h-57l27 94h395l-28 -94h-94q-31 0 -40 -31l-133 -461h106q63 0 106 54t78 154z" />
    <glyph glyph-name="M" unicode="M" horiz-adv-x="926" 
d="M938 586q-31 0 -39 -31l-124 -430q-9 -31 22 -31h57l-27 -94h-343l27 94h43q31 0 40 31l105 365l-265 -358h-63l-86 356l-104 -363q-9 -31 22 -31h57l-27 -94h-280l28 94h57q31 0 40 31l123 430q9 31 -22 31h-58l28 94h282l81 -308l241 308h269l-27 -94h-57z" />
    <glyph glyph-name="N" unicode="N" horiz-adv-x="780" 
d="M886 680l-27 -94h-57q-31 0 -40 -31l-159 -555h-76l-256 438l-90 -313q-9 -31 22 -31h75l-27 -94h-298l28 94h57q31 0 40 31l123 430q9 31 -22 31h-58l28 94h220l218 -372l71 247q9 31 -22 31h-70l27 94h293z" />
    <glyph glyph-name="O" unicode="O" horiz-adv-x="733" 
d="M336 -10q-130 0 -205 75.5t-74 204.5q1 74 28 147t74.5 134.5t123.5 100t166 38.5q130 0 205.5 -75.5t73.5 -203.5q-1 -75 -28 -149t-75.5 -135t-124 -99t-164.5 -38zM335 77q51 0 94.5 45.5t69 110.5t39.5 129t14 110q-1 60 -29 95.5t-77 35.5q-53 0 -97 -44.5
t-69 -108.5t-38.5 -126t-13.5 -107q1 -65 29.5 -102.5t77.5 -37.5z" />
    <glyph glyph-name="P" unicode="P" horiz-adv-x="697" 
d="M293 245l-34 -120q-9 -31 22 -31h124l-27 -94h-425l28 94h57q31 0 40 31l123 430q8 31 -22 31h-58l27 94h337q120 0 180.5 -48.5t60.5 -140.5q0 -109 -98.5 -177.5t-234.5 -68.5h-100zM442 586h-51l-72 -252h65q68 0 111.5 49t43.5 112q0 91 -97 91z" />
    <glyph glyph-name="Q" unicode="Q" horiz-adv-x="733" 
d="M449 690q130 0 205.5 -75.5t73.5 -203.5q-1 -75 -28 -149t-75.5 -135t-124 -99t-164.5 -38q-130 0 -205 75.5t-74 204.5q1 74 28 147t74.5 134.5t123.5 100t166 38.5zM335 77q51 0 94.5 45.5t69 110.5t39.5 129t14 110q-1 60 -29 95.5t-77 35.5q-53 0 -97 -44.5
t-69 -108.5t-38.5 -126t-13.5 -107q1 -65 29.5 -102.5t77.5 -37.5zM550 -50q32 0 54.5 -21.5t22.5 -54.5q0 -40 -33.5 -68t-78.5 -28q-69 0 -141 79q-13 14 -26 32t-19.5 27.5t-16.5 17t-22 8.5q28 -18 28 -53q0 -32 -20 -52t-51 -20q-34 0 -57 21.5t-23 53.5q0 42 31 66
t76 24q78 0 148 -78q14 -15 28.5 -34t21 -27t16 -14t19.5 -6q8 0 12 2q-40 10 -40 55q0 31 19.5 50.5t51.5 19.5z" />
    <glyph glyph-name="R" unicode="R" horiz-adv-x="760" 
d="M603 125q7 -16 17.5 -23.5t34.5 -7.5h61l-27 -94h-263l-28 187q-6 46 -27 62t-55 16h-18l-39 -140q-9 -31 22 -31h50l-27 -94h-351l28 94h57q31 0 40 31l122 430q9 31 -21 31h-58l28 94h338q112 0 176.5 -47.5t64.5 -132.5q0 -86 -67 -147t-168 -79q67 -28 94 -103z
M381 359q65 0 113.5 41.5t48.5 98.5q0 38 -23.5 62.5t-66.5 24.5h-62l-65 -227h55z" />
    <glyph glyph-name="S" unicode="S" horiz-adv-x="581" 
d="M444 509q0 25 17 46t41 27q-38 33 -98 33q-52 0 -85.5 -25.5t-33.5 -64.5q0 -32 26.5 -59t64.5 -49t75.5 -46.5t64 -63.5t26.5 -89q0 -95 -83.5 -161.5t-202.5 -66.5q-104 0 -178.5 50t-74.5 129q0 47 26.5 76t66.5 29q38 0 63 -25t25 -61q0 -31 -19.5 -51.5t-46.5 -26.5
q38 -46 105 -46q50 0 82.5 27.5t32.5 67.5q0 36 -25 64.5t-60 49.5t-70.5 44.5t-60.5 61t-25 86.5q0 95 80 160t198 65q98 0 172 -45.5t74 -119.5q0 -42 -25.5 -67t-63.5 -25q-37 0 -62.5 22.5t-25.5 53.5z" />
    <glyph glyph-name="T" unicode="T" horiz-adv-x="697" 
d="M791 680l-78 -270h-102q22 103 20 131q-5 54 -65 54h-29l-135 -470q-9 -31 22 -31h73l-27 -94h-390l27 94h74q31 0 40 31l135 470h-30q-30 0 -52 -10.5t-39 -37.5t-26 -48t-26 -67q-1 -3 -2 -5t-2 -5.5t-2 -6t-2 -5.5h-102l77 270h641z" />
    <glyph glyph-name="U" unicode="U" horiz-adv-x="737" 
d="M339 -10q-127 0 -200.5 80t-33.5 218l79 267q9 31 -22 31h-56l27 94h368l-27 -94h-60q-31 0 -40 -31l-89 -306q-22 -76 5.5 -122t91.5 -46q111 0 150 138l95 336q8 31 -22 31h-58l27 94h275l-27 -94h-56q-31 0 -40 -31l-101 -358q-26 -94 -103.5 -150.5t-182.5 -56.5z
" />
    <glyph glyph-name="V" unicode="V" horiz-adv-x="771" 
d="M626 680h267l-27 -94h-38q-33 0 -57 -33l-390 -553h-126l-81 556q-5 30 -40 30h-39l27 94h371l-28 -94h-64q-14 0 -22 -8.5t-7 -21.5l40 -360l247 360q9 13 6 21.5t-18 8.5h-49z" />
    <glyph glyph-name="W" unicode="W" horiz-adv-x="1106" 
d="M958 680h270l-27 -94h-38q-36 0 -57 -33l-367 -553h-100l-41 398l-254 -398h-118l-52 556q-3 30 -40 30h-39l27 94h365l-27 -94h-59q-14 0 -22.5 -8t-7.5 -22l22 -305l206 304q9 13 5.5 22t-18.5 9h-59l27 94h337l-27 -94h-67q-14 0 -22.5 -8.5t-7.5 -21.5l31 -307
l196 306q19 31 -12 31h-51z" />
    <glyph glyph-name="X" unicode="X" horiz-adv-x="759" 
d="M576 680h286l-27 -94h-43q-33 0 -64 -28l-220 -200l108 -229q18 -35 50 -35h45l-27 -94h-369l27 94h38q14 0 20.5 8t1.5 20l-59 132l-139 -132q-12 -12 -10.5 -20t15.5 -8h41l-27 -94h-285l27 94h51q33 0 64 28l220 200l-109 229q-17 35 -50 35h-44l27 94h370l-27 -94
h-39q-14 0 -21 -8t-1 -20l60 -129l139 129q12 11 10.5 19.5t-15.5 8.5h-51z" />
    <glyph glyph-name="Y" unicode="Y" horiz-adv-x="691" 
d="M537 680h276l-27 -94h-39q-36 0 -65 -32l-231 -258l-49 -171q-9 -31 22 -31h79l-27 -94h-401l27 94h79q31 0 40 31l36 128l-80 305q-8 28 -43 28h-39l27 94h339l-27 -94h-42q-33 0 -26 -31l43 -184l163 187q24 28 -9 28h-53z" />
    <glyph glyph-name="Z" unicode="Z" horiz-adv-x="622" 
d="M701 680l-18 -64l-467 -525h150q13 0 24 3.5t21 11t18 15t16 21.5t13.5 24t13 28.5t11.5 28.5t11.5 30.5t10.5 29.5h94l-82 -283h-567l16 55l468 534h-130q-12 0 -23 -3t-20 -10t-16.5 -13.5t-15.5 -20t-13 -22t-12.5 -26t-11 -26.5t-11 -29.5t-10.5 -28.5h-94l78 270
h546z" />
    <glyph glyph-name="bracketleft" unicode="[" horiz-adv-x="367" 
d="M232 794h270l-25 -88h-135l-211 -736h135l-26 -89h-270z" />
    <glyph glyph-name="backslash" unicode="\" horiz-adv-x="422" 
d="M242 794l79 -913h-94l-79 913h94z" />
    <glyph glyph-name="bracketright" unicode="]" horiz-adv-x="367" 
d="M183 -119h-270l25 88h135l211 736h-135l26 89h270z" />
    <glyph glyph-name="asciicircum" unicode="^" horiz-adv-x="433" 
d="M332 431l-20 145l-103 -145h-129l214 249h90l69 -249h-121z" />
    <glyph glyph-name="underscore" unicode="_" horiz-adv-x="438" 
d="M-88 -55h438l-25 -85h-438z" />
    <glyph glyph-name="grave" unicode="`" horiz-adv-x="282" 
d="M308 580h-60q-8 8 -29 27t-27 25t-19 20t-17 22.5t-8 20.5t-4 25q0 33 24 54t55 21q25 0 44.5 -16t27.5 -43q13 -39 13 -156z" />
    <glyph glyph-name="a" unicode="a" horiz-adv-x="659" 
d="M152 -10q-66 0 -102.5 42t-36.5 123q0 58 19.5 121t53 117.5t85 90t110.5 35.5q114 0 116 -129h5l34 119h162l-113 -387q-10 -36 14 -36q9 0 18 7.5t26 37t41 82.5h72q-50 -121 -96.5 -172t-112.5 -51q-64 0 -87.5 38t-12.5 98l4 23h-6q-78 -159 -193 -159zM229 84
q35 0 68.5 50t52 113.5t18.5 111.5q0 71 -47 71q-35 0 -69 -48t-53.5 -109.5t-19.5 -107.5q0 -38 13 -59.5t37 -21.5z" />
    <glyph glyph-name="b" unicode="b" horiz-adv-x="616" 
d="M465 519q65 0 101 -42t36 -122q0 -58 -19.5 -121.5t-53 -118t-85 -90t-110.5 -35.5q-62 0 -95 35t-41 91h-6l-115 -116h-76l158 555q9 31 -22 31h-43l28 94h236l-94 -321h6q80 160 195 160zM291 80q36 0 70.5 49t54 113t19.5 113q0 70 -48 70q-35 0 -68.5 -50t-52.5 -114
t-19 -112q0 -69 44 -69z" />
    <glyph glyph-name="c" unicode="c" horiz-adv-x="532" 
d="M356 331q0 30 21 52.5t51 28.5q-22 21 -58 21q-76 0 -124.5 -78.5t-48.5 -167.5q0 -57 22 -83t58 -26q76 0 135 117h75q-93 -205 -252 -205q-86 0 -148.5 55.5t-62.5 157.5q0 123 88 219t213 96q87 0 140.5 -47t53.5 -115q0 -45 -24 -72t-61 -27q-33 0 -55.5 21t-22.5 53
z" />
    <glyph glyph-name="d" unicode="d" horiz-adv-x="659" 
d="M152 -10q-66 0 -102.5 42t-36.5 123q0 58 19.5 121t53 117.5t85 90t110.5 35.5q114 0 116 -129h5l45 165q9 31 -22 31h-42l27 94h236l-161 -558q-10 -36 14 -36q9 0 18 7.5t26 37t41 82.5h72q-50 -121 -96.5 -172t-112.5 -51q-64 0 -87.5 38t-12.5 98l4 23h-6
q-78 -159 -193 -159zM229 84q35 0 68.5 50.5t52 113.5t18.5 109q0 72 -46 72q-35 0 -69 -47t-54 -108.5t-20 -109.5q0 -37 13 -58.5t37 -21.5z" />
    <glyph glyph-name="e" unicode="e" horiz-adv-x="531" 
d="M266 74q95 0 151 139h76q-81 -223 -267 -223q-99 0 -152 56t-53 143q0 55 21 111.5t59 106t100 80.5t135 31q81 0 129.5 -35t48.5 -92q0 -43 -30.5 -78.5t-80.5 -57t-102.5 -34.5t-107.5 -18q-2 -28 -2 -37q0 -44 20 -68t55 -24zM329 445q-31 0 -58.5 -31.5t-43 -72.5
t-26.5 -90q74 20 123 56.5t49 86.5q0 51 -44 51z" />
    <glyph glyph-name="f" unicode="f" horiz-adv-x="443" 
d="M449 732q72 0 122 -30t50 -82q0 -36 -22.5 -60.5t-61.5 -24.5q-35 0 -56.5 19.5t-21.5 51.5q0 49 44 65q-6 1 -18 1q-39 0 -64 -25t-44 -86l-17 -52h161l-27 -94h-160l-123 -431q-24 -86 -87.5 -130t-140.5 -44q-63 0 -99 29t-36 74q0 35 20.5 56.5t52.5 21.5
q29 0 49 -17t20 -47q0 -48 -49 -64q74 1 107 121l122 431h-113l26 94h83q29 0 39 29l8 26q25 82 89 125t147 43z" />
    <glyph glyph-name="g" unicode="g" horiz-adv-x="578" 
d="M437 509h162l-141 -482q-30 -102 -112.5 -159.5t-196.5 -57.5q-94 0 -141.5 37t-47.5 89q0 38 24.5 63t60.5 25q30 0 50.5 -20t20.5 -51q0 -48 -50 -69q32 -7 62 -7q130 0 181 150l47 139h-5q-67 -131 -173 -131q-70 0 -111.5 44t-41.5 119q0 78 29 150t88 121t133 49
q55 0 88.5 -34.5t33.5 -95.5h5zM244 130q51 0 88 77t37 150q0 36 -16 53.5t-40 17.5q-35 0 -63.5 -36.5t-43 -86t-14.5 -95.5q0 -80 52 -80z" />
    <glyph glyph-name="h" unicode="h" horiz-adv-x="668" 
d="M448 -10q-69 0 -97.5 47.5t-3.5 121.5l55 159q32 97 -29 97q-14 0 -26.5 -6t-33 -30.5t-41.5 -67t-50 -122.5t-60 -189h-163l158 559q7 27 -23 27h-39l27 94h236l-88 -252l-50 -133h6q77 224 223 224q78 0 111 -60.5t1 -153.5l-63 -183q-6 -20 -1.5 -27.5t14.5 -7.5
q9 0 17 7.5t25 36.5t41 82h71q-49 -116 -100 -169.5t-117 -53.5z" />
    <glyph glyph-name="i" unicode="i" horiz-adv-x="406" 
d="M326 565q-42 0 -70 26.5t-28 68.5t28 69.5t70 27.5t68.5 -26.5t26.5 -69.5t-26.5 -69.5t-68.5 -26.5zM331 213h71q-44 -118 -94.5 -170.5t-117.5 -52.5q-68 0 -98.5 45t-6.5 112l90 249q5 14 -1 21t-15 7q-10 0 -19 -8.5t-26 -38t-39 -83.5h-71q48 123 99 174t119 51
q70 0 99 -46t3 -114l-87 -237q-14 -35 13 -35q32 0 81 126z" />
    <glyph glyph-name="j" unicode="j" horiz-adv-x="348" 
d="M313 757q42 0 68.5 -26.5t26.5 -69.5t-26.5 -69.5t-68.5 -26.5t-70 26.5t-28 68.5t28 69.5t70 27.5zM221 519q69 0 96.5 -44t6.5 -116l-99 -347q-20 -70 -67.5 -118t-97 -66t-100.5 -18q-63 0 -99 29.5t-36 76.5q0 34 21 56t53 22q28 0 48 -17t20 -47q0 -27 -17 -44.5
t-43 -22.5h10q45 0 84.5 35.5t62.5 113.5l111 384q4 14 -1.5 21t-15.5 7q-30 0 -84 -130h-71q48 123 99 174t119 51z" />
    <glyph glyph-name="k" unicode="k" horiz-adv-x="646" 
d="M122 680h231l-194 -680h-163l158 555q9 31 -22 31h-37zM484 86q8 0 16 7t24 36.5t38 83.5h72q-49 -123 -92.5 -173t-113.5 -50q-119 0 -119 114q0 12 0.5 37.5t0.5 37t-2.5 31t-8 30t-16.5 21t-28 16.5l-1 14q38 26 78.5 70t66.5 76t66.5 57t86.5 25q47 0 74 -23.5
t27 -62.5q0 -38 -23.5 -63.5t-59.5 -25.5q-33 0 -56 21t-23 49q0 8 1 12q-18 -14 -46 -43.5t-55 -53.5t-52 -35q35 -2 59.5 -11.5t37 -22t19 -34t7.5 -37t1 -40.5v-12q0 -51 21 -51z" />
    <glyph glyph-name="l" unicode="l" horiz-adv-x="370" 
d="M212 87q31 0 83 126h71q-47 -120 -96.5 -171.5t-121.5 -51.5q-67 0 -96 44t-9 113l116 408q9 31 -22 31h-43l28 94h236l-162 -565q-9 -28 16 -28z" />
    <glyph glyph-name="m" unicode="m" horiz-adv-x="1025" 
d="M950 213h71q-48 -117 -99.5 -170t-117.5 -53q-70 0 -98 48t-3 121l55 159q16 50 8 73.5t-37 23.5q-14 0 -26 -6t-32 -30.5t-40.5 -67t-49.5 -122.5t-60 -189h-164l91 318q28 97 -29 97q-14 0 -26 -6t-32.5 -30.5t-41 -67t-49 -122.5t-59.5 -189h-163l114 386
q11 38 -13 38q-9 0 -17 -7.5t-23 -37.5t-35 -85h-72q44 121 90.5 173t110.5 52q18 0 33 -3.5t31 -13t24 -26t10.5 -43.5t-10.5 -65l-22 -73h5q42 123 95 173.5t117 50.5q77 0 103 -59.5t-6 -154.5l-4 -10h5q77 224 221 224q79 0 112 -60.5t0 -153.5l-63 -183
q-6 -20 -1 -27.5t15 -7.5q8 0 16 7t25 36t41 83z" />
    <glyph glyph-name="n" unicode="n" horiz-adv-x="717" 
d="M642 213h72q-49 -116 -100 -169.5t-118 -53.5q-70 0 -98 48t-3 121l55 159q16 50 8.5 73.5t-36.5 23.5q-14 0 -26.5 -6t-33 -30.5t-41.5 -67t-50 -122.5t-60 -189h-163l114 386q11 38 -13 38q-9 0 -17 -7.5t-23 -37.5t-35 -85h-72q44 121 90.5 173t110.5 52
q52 0 82.5 -32.5t5.5 -117.5l-22 -74h5q77 224 223 224q79 0 112 -60.5t0 -153.5l-63 -183q-5 -20 -0.5 -27.5t14.5 -7.5q9 0 17 7.5t24.5 36.5t40.5 82z" />
    <glyph glyph-name="o" unicode="o" horiz-adv-x="565" 
d="M238 -10q-94 0 -154 54.5t-60 155.5q0 123 84.5 221t217.5 98q95 0 155.5 -54t60.5 -153q0 -78 -36 -151t-107.5 -122t-160.5 -49zM230 61q36 0 67.5 39.5t50 94.5t29 103.5t11.5 76.5q1 35 -13.5 54t-40.5 19q-37 0 -69 -39t-50.5 -94t-29 -102.5t-11.5 -75.5
q-1 -37 15 -56.5t41 -19.5z" />
    <glyph glyph-name="p" unicode="p" horiz-adv-x="660" 
d="M-59 -180l27 94h37q31 0 40 31l128 441q11 38 -12 38q-30 0 -86 -127h-72q50 120 96.5 171t112.5 51q64 0 88 -39t13 -98l-3 -22h5q79 159 192 159q65 0 102 -43.5t37 -121.5t-32 -161t-95 -143t-138 -60q-59 0 -89 36.5t-30 91.5h-6l-49 -173q-8 -31 22 -31h99l-27 -94
h-360zM334 80q54 0 99.5 97t45.5 177q0 71 -45 71q-37 0 -71.5 -50t-53 -113.5t-18.5 -112.5q0 -69 43 -69z" />
    <glyph glyph-name="q" unicode="q" horiz-adv-x="601" 
d="M453 -55q-9 -31 22 -31h37l-27 -94h-324l26 94h63q31 0 40 31l59 202h-5q-43 -88 -90.5 -122.5t-101.5 -34.5q-66 0 -102.5 42t-36.5 122q0 58 19.5 121.5t52.5 118t85 90t110 35.5q63 0 98 -37t35 -94h5l34 121h163zM230 84q35 0 68 50t51.5 113.5t18.5 110.5
q0 71 -47 71q-39 0 -73 -48t-51.5 -108.5t-17.5 -107.5q0 -38 13.5 -59.5t37.5 -21.5z" />
    <glyph glyph-name="r" unicode="r" horiz-adv-x="545" 
d="M481 519q48 0 71.5 -25t23.5 -61q0 -41 -27 -67.5t-67 -26.5q-31 0 -53.5 17.5t-22.5 54.5v1q-48 -27 -90 -118.5t-105 -293.5h-163l114 385q12 39 -13 39q-9 0 -17 -7.5t-23 -37.5t-35 -85h-72q44 121 90.5 173t110.5 52q52 0 83.5 -33.5t4.5 -117.5l-24 -73h5
q47 122 96.5 173t112.5 51z" />
    <glyph glyph-name="s" unicode="s" horiz-adv-x="482" 
d="M331 401q0 29 19 46q-15 6 -34 6q-38 0 -60.5 -17t-22.5 -43t20 -47t48.5 -36t57.5 -32.5t49 -46t20 -66.5q0 -74 -66 -124.5t-163 -50.5q-80 0 -140.5 34.5t-60.5 96.5q0 37 22.5 61t56.5 24q30 0 52.5 -18.5t22.5 -49.5q0 -45 -44 -61q32 -20 66 -20q36 0 58 17t22 42
q0 26 -19 46.5t-46 36t-54 33t-46 47t-19 69.5q0 69 52 120t155 51q47 0 90 -10t76 -37.5t33 -68.5q0 -31 -19 -52.5t-52 -21.5q-31 0 -52.5 20t-21.5 52z" />
    <glyph glyph-name="t" unicode="t" horiz-adv-x="396" 
d="M278 415l-83 -291q-5 -21 3 -29.5t21 -8.5q41 0 91 127h71q-84 -223 -230 -223q-69 0 -101 44.5t-12 113.5l75 267h-66l28 94h73l128 117h62l-33 -117h122l-27 -94h-122z" />
    <glyph glyph-name="u" unicode="u" horiz-adv-x="717" 
d="M75 296h-72q49 116 100 169.5t118 53.5q70 0 98 -48t3 -121l-55 -159q-16 -49 -8.5 -73t36.5 -24q14 0 26.5 6t33 30.5t41.5 67t50 122.5t60 189h163l-114 -386q-11 -38 13 -38q9 0 17 7.5t23 37.5t35 85h72q-44 -121 -90.5 -173t-110.5 -52q-52 0 -82.5 32.5t-5.5 117.5
l22 74h-5q-77 -224 -223 -224q-79 0 -112 60.5t0 153.5l63 183q5 20 0.5 27.5t-14.5 7.5q-9 0 -17 -7.5t-24.5 -36.5t-40.5 -82z" />
    <glyph glyph-name="v" unicode="v" horiz-adv-x="584" 
d="M475 519q45 0 73.5 -31t28.5 -93q0 -82 -47.5 -176t-130 -161.5t-169.5 -67.5q-68 0 -103.5 39t-35.5 90q0 49 41.5 162t41.5 126q0 17 -16 17q-14 0 -31.5 -24.5t-52.5 -102.5h-72q49 117 100.5 169.5t118.5 52.5q52 0 81.5 -28t29.5 -72q0 -41 -39 -141.5t-39 -132.5
q0 -25 13.5 -38t36.5 -13q57 0 115.5 77t85.5 166q-15 -5 -31 -5q-40 0 -67 27t-27 68q0 40 26.5 66t68.5 26z" />
    <glyph glyph-name="w" unicode="w" horiz-adv-x="852" 
d="M741 519q45 0 73.5 -31t28.5 -94q0 -82 -44.5 -175t-125.5 -161t-171 -68q-65 0 -94 33.5t-29 79.5q0 23 6 43h-6q-60 -156 -194 -156q-66 0 -98.5 37.5t-32.5 84.5q0 44 30 109t60 117.5t30 67.5q0 18 -18 18q-9 0 -17 -7.5t-24.5 -36.5t-40.5 -83h-72q48 116 100 169
t118 53q53 0 82.5 -28t29.5 -69q0 -46 -57 -145.5t-57 -137.5q0 -45 40 -45q21 0 41 14t39 46t33.5 63t34 88t31 95t32.5 109h148q-11 -36 -26 -83t-23.5 -73.5t-18.5 -58.5t-15 -50.5t-10 -38.5t-7 -32.5t-2 -21.5q0 -28 16.5 -42.5t41.5 -14.5q62 0 120.5 77t72.5 167
q-14 -6 -29 -6q-37 0 -64 27.5t-27 67.5t26.5 66t68.5 26z" />
    <glyph glyph-name="x" unicode="x" horiz-adv-x="684" 
d="M600 519q51 0 80 -28.5t27 -70.5q-1 -38 -27.5 -63.5t-64.5 -25.5t-57.5 24t-18.5 56q1 31 27 57q-59 -31 -96.5 -118.5t-43.5 -180.5q-2 -45 6.5 -64t31.5 -19q10 0 18.5 4t20.5 15.5t24 39t24 68.5h72q-21 -69 -46.5 -115t-53 -68.5t-53 -31t-56.5 -8.5q-66 0 -99.5 52
t-19.5 137h-7q-13 -25 -18 -36t-19.5 -35.5t-24 -36.5t-26.5 -30.5t-33 -27.5t-38 -16t-45 -7q-52 0 -80.5 28.5t-26.5 70.5q1 39 27.5 64.5t64.5 25.5q37 0 57 -24t18 -57q-2 -34 -26 -57q59 31 96.5 118.5t42.5 180.5q3 45 -5.5 64.5t-32.5 19.5q-50 0 -86 -127h-72
q21 68 46.5 114t53 68.5t53 31t56.5 8.5q66 0 99 -52t19 -137h8q17 34 26 51.5t29.5 48.5t39.5 47t48 29t61 13z" />
    <glyph glyph-name="y" unicode="y" horiz-adv-x="626" 
d="M519 519q46 0 75.5 -33t29.5 -94q0 -73 -43 -173.5t-107 -191t-148 -154t-158 -63.5q-68 0 -115 33t-47 90q0 41 23.5 65.5t59.5 24.5q33 0 52.5 -20.5t19.5 -49.5q0 -24 -14.5 -43.5t-37.5 -28.5q33 -11 64 -11t66 16q18 213 11 332.5t-25.5 162.5t-50.5 43
q-49 0 -91 -127h-71q32 111 82.5 166.5t125.5 55.5q122 0 167.5 -126.5t11.5 -356.5q52 73 90.5 157t49.5 143q-16 -4 -26 -4q-37 0 -64 27.5t-27 67.5t27 66t70 26z" />
    <glyph glyph-name="z" unicode="z" horiz-adv-x="552" 
d="M427 362q-21 -33 -55 -69t-59 -55q-44 -32 -136 -65q85 -82 168 -82q-25 25 -20 61q3 31 27.5 51.5t56.5 20.5q35 0 59.5 -25t24.5 -68q0 -57 -43.5 -99t-110.5 -42q-45 0 -86.5 25t-101.5 89q3 -49 -18 -81.5t-62 -32.5q-33 0 -48 19.5t-15 45.5q1 65 95 131l263 185
q-14 4 -67.5 22t-81.5 23q13 -16 13 -39q-1 -30 -25 -52t-59 -22q-36 0 -60.5 25t-24.5 63q0 52 43.5 90t114.5 38q103 0 205 -103q24 103 86 103q25 0 39.5 -17.5t14.5 -41.5q0 -36 -33 -64t-104 -34z" />
    <glyph glyph-name="braceleft" unicode="{" horiz-adv-x="439" 
d="M238 641q19 80 96.5 116t239.5 37l-25 -88q-75 0 -107 -16t-45 -63l-44 -155q-20 -69 -62.5 -97.5t-131.5 -36.5v-2q84 -8 110 -36.5t6 -96.5l-44 -156q-13 -47 9 -63t96 -16l-25 -88q-161 1 -217.5 37t-29.5 116l66 193q18 57 -56 57h-45l15 54l16 54h45q75 0 88 57z
" />
    <glyph glyph-name="bar" unicode="|" horiz-adv-x="294" 
d="M255 797h94l-262 -916h-94z" />
    <glyph glyph-name="braceright" unicode="}" horiz-adv-x="439" 
d="M413 391h45l-15 -54l-16 -54h-45q-75 0 -88 -57l-45 -193q-19 -80 -96.5 -116t-239.5 -37l25 88q75 0 107 16t45 63l44 155q20 69 62.5 97.5t131.5 36.5v2q-84 8 -110 36.5t-6 96.5l44 156q13 47 -9 63t-96 16l25 88q161 -1 217.5 -37t29.5 -116l-66 -193q-18 -57 56 -57
z" />
    <glyph glyph-name="asciitilde" unicode="~" horiz-adv-x="543" 
d="M520 407q-14 -73 -54.5 -119.5t-108.5 -46.5q-35 0 -84.5 28.5t-80.5 28.5q-18 0 -30 -7t-17.5 -16t-14.5 -28l-59 20q16 71 55.5 115t105.5 44q36 0 88 -28.5t78 -28.5q14 0 23.5 3.5t17.5 14t10 14.5l10 20z" />
    <glyph glyph-name="exclamdown" unicode="&#xa1;" horiz-adv-x="314" 
d="M204 327q-42 0 -69 26.5t-27 69.5t27 69.5t69 26.5t70 -27.5t28 -69.5t-28 -68.5t-70 -26.5zM184 244q-2 -272 -20 -338q-13 -46 -50 -69t-79 -11t-61.5 51t-6.5 85q10 32 60 119.5t98 162.5h59z" />
    <glyph glyph-name="cent" unicode="&#xa2;" horiz-adv-x="532" 
d="M369 337q0 25 15 44.5t39 27.5q-20 16 -47 22l-140 -350q11 -3 23 -3q38 0 80 27.5t73 89.5h75q-53 -116 -117.5 -160.5t-138.5 -44.5q-19 0 -28 1l-29 -75h-64l37 88q-57 21 -90 71.5t-33 126.5q0 124 88.5 220t215.5 96q17 0 26 -1l39 97h64l-47 -109q52 -19 82 -57.5
t30 -88.5q0 -41 -22 -66.5t-56 -25.5q-31 0 -53 20t-22 50zM323 429q-64 -16 -104 -89.5t-40 -152.5q0 -47 16 -74z" />
    <glyph glyph-name="sterling" unicode="&#xa3;" horiz-adv-x="650" 
d="M470 519q0 30 19.5 49t51.5 20q-34 32 -89 32q-67 0 -104.5 -42.5t-37.5 -101.5q0 -25 6.5 -45.5t21 -48.5t17.5 -35h190l-24 -82h-157q-11 -45 -64 -107q101 -33 146 -33q59 0 123 67l36 -21q-37 -84 -94 -132.5t-120 -48.5q-32 0 -66 14.5t-52.5 28t-53.5 41.5
q-52 -50 -82.5 -67t-64.5 -17q-46 0 -77 29.5t-31 73.5q0 48 37 79.5t96 31.5q41 0 117 -20q4 13 4 27q0 25 -19 54h-165l24 82h80q-22 41 -22 89q0 106 88.5 180t214.5 74q100 0 161.5 -46t61.5 -107q0 -39 -26 -64.5t-65 -25.5q-33 0 -57 18.5t-24 53.5zM81 54q48 0 92 56
q-45 31 -78 31q-25 0 -39.5 -14t-14.5 -33q0 -17 11.5 -28.5t28.5 -11.5z" />
    <glyph glyph-name="currency" unicode="&#xa4;" horiz-adv-x="700" 
d="M660 579q14 -22 6 -44.5t-32 -41.5q-23 -18 -114 -58q17 -32 17 -70q0 -77 -57 -137q52 -24 61 -36q16 -20 10 -47.5t-29 -44.5q-25 -19 -49.5 -16t-39.5 24q-8 11 -17 75q-43 -18 -83 -18q-68 0 -112 38q-65 -81 -90 -101q-53 -40 -85 -1q-14 22 -6.5 45t32.5 41
q25 19 115 59q-16 34 -16 68q0 77 55 135q-54 26 -62 37q-15 20 -9.5 47.5t28.5 45.5q25 18 49.5 15t39.5 -24q8 -11 18 -74q41 19 85 19q66 0 111 -37q65 82 88 100q53 41 86 1zM260 322q0 -36 22 -58.5t58 -22.5q45 0 77.5 36.5t32.5 80.5q0 35 -22.5 58t-58.5 23
q-44 0 -76.5 -35.5t-32.5 -81.5z" />
    <glyph glyph-name="yen" unicode="&#xa5;" horiz-adv-x="688" 
d="M544 680h266l-27 -94h-42q-37 0 -65 -32l-189 -209h116l-22 -76h-148l-13 -44h149l-22 -77h-149l-8 -29q-9 -31 22 -31h83l-26 -88h-394l25 88h83q31 0 40 31l8 29h-150l22 77h150l10 37l-2 7h-145l22 76h101l-60 213q-7 28 -43 28h-41l27 94h338l-27 -94h-46
q-16 0 -23.5 -8.5t-3.5 -22.5l49 -178l165 181q12 14 9 21t-18 7h-48z" />
    <glyph glyph-name="brokenbar" unicode="&#xa6;" horiz-adv-x="294" 
d="M255 797h94l-112 -392h-94zM106 275h94l-113 -394h-94z" />
    <glyph glyph-name="section" unicode="&#xa7;" horiz-adv-x="521" 
d="M291 568q0 -22 23 -42t55.5 -36.5t65 -37t55.5 -53t23 -74.5q0 -95 -112 -135q9 -20 9 -45q0 -63 -52 -108.5t-135 -45.5q-73 0 -130 34t-57 90q0 34 20 56.5t52 22.5q26 0 44 -17t18 -43q0 -36 -40 -53q31 -28 78 -28q38 0 58.5 15.5t20.5 39.5t-23.5 44.5t-57.5 38
t-68 38t-57.5 54t-23.5 75.5q0 99 117 135q-6 18 -6 38q0 64 55 111.5t133 47.5q68 0 120.5 -36.5t52.5 -92.5q0 -33 -19 -53t-48 -20q-25 0 -45.5 14t-20.5 44q0 41 44 55q-28 26 -73 26q-39 0 -57.5 -18t-18.5 -41zM175 397q0 -29 32.5 -53.5t84 -52.5t77.5 -54
q26 23 26 48q0 28 -33 52.5t-84 53t-75 55.5q-28 -23 -28 -49z" />
    <glyph glyph-name="dieresis" unicode="&#xa8;" horiz-adv-x="445" 
d="M220 569q-39 0 -64.5 24.5t-25.5 63.5t26 64.5t64 25.5q39 0 63.5 -24.5t24.5 -64.5t-24.5 -64.5t-63.5 -24.5zM445 569q-39 0 -64.5 24.5t-25.5 63.5t26 64.5t64 25.5q39 0 63.5 -24.5t24.5 -64.5t-24.5 -64.5t-63.5 -24.5z" />
    <glyph glyph-name="copyright" unicode="&#xa9;" horiz-adv-x="787" 
d="M418 690q147 0 248 -100.5t101 -248.5q0 -149 -101 -250t-248 -101t-247.5 101t-100.5 250q0 147 101 248t247 101zM418 47q122 0 205 85t83 209q0 123 -83 207.5t-205 84.5q-121 0 -204 -85t-83 -207q0 -124 83 -209t204 -85zM484 402q0 31 25 49q-21 31 -65 31
q-103 0 -103 -137q0 -71 27 -106.5t76 -35.5q76 0 107 101l51 -18q-31 -145 -177 -145q-91 0 -148 55t-57 140t58.5 140.5t151.5 55.5q74 0 125 -37t51 -86q0 -29 -18 -46.5t-44 -17.5q-25 0 -42.5 16.5t-17.5 40.5z" />
    <glyph glyph-name="ordfeminine" unicode="&#xaa;" horiz-adv-x="580" 
d="M196 271q-52 0 -80 33t-28 97q0 63 24.5 128t74.5 112.5t111 47.5q90 0 90 -101h4l27 92h136l-87 -301q-8 -29 9 -29q22 0 67 102h61q-42 -100 -79.5 -140.5t-91.5 -40.5q-53 0 -72 31t-12 79l3 20h-4q-62 -130 -153 -130zM263 351q37 0 69.5 76.5t32.5 134.5
q0 52 -32 52q-41 0 -73.5 -72t-32.5 -131q0 -27 10 -43.5t26 -16.5zM28 130l23 82h466l-24 -82h-465z" />
    <glyph glyph-name="guillemotleft" unicode="&#xab;" horiz-adv-x="526" 
d="M232 97l-50 -35l-151 160l21 75l243 159l30 -41l-182 -162zM440 97l-50 -35l-151 160l21 75l243 159l30 -41l-182 -162z" />
    <glyph glyph-name="registered" unicode="&#xae;" horiz-adv-x="551" 
d="M332 690q100 0 168 -68t68 -168q0 -101 -68 -169.5t-168 -68.5q-99 0 -167 68.5t-68 169.5q0 100 68 168t167 68zM332 256q82 0 138 57.5t56 140.5t-56 139.5t-138 56.5q-80 0 -136.5 -57t-56.5 -139q0 -83 56.5 -140.5t136.5 -57.5zM457 369h15v-31h-101l-15 65
q-5 23 -35 23h-11v-43q0 -10 12 -10h21v-35h-132v35h21q10 0 10 10v155q0 11 -10 11h-21v34h137q41 0 70 -22.5t29 -54.5q0 -25 -16 -45t-43 -29q29 -9 38 -29l11 -23q5 -11 20 -11zM310 459h21q20 0 32 12.5t12 34.5q0 19 -12.5 31t-31.5 12h-21v-90z" />
    <glyph glyph-name="macron" unicode="&#xaf;" horiz-adv-x="442" 
d="M181 690h329l-30 -104h-329z" />
    <glyph glyph-name="degree" unicode="&#xb0;" horiz-adv-x="426" 
d="M280 342q-73 0 -122 46t-49 114q0 80 54 134t133 54q73 0 122 -46t49 -114q0 -80 -54 -134t-133 -54zM280 418q40 0 66.5 33t26.5 83q0 35 -22 57.5t-56 22.5q-39 0 -66 -33t-27 -83q0 -34 22.5 -57t55.5 -23z" />
    <glyph glyph-name="plusminus" unicode="&#xb1;" horiz-adv-x="562" 
d="M252 331h-167l25 87h168l39 137h102l-39 -137h166l-25 -87h-167l-38 -137h-102zM4 46l26 93h436l-26 -93h-436z" />
    <glyph glyph-name="uni00B2" unicode="&#xb2;" horiz-adv-x="424" 
d="M277 343q24 3 41.5 10.5t27 20t13 19t8.5 19.5h67l-46 -161h-337l13 47q10 9 50.5 40t69.5 55.5t63 57.5t53 63t19 54q0 23 -17 39.5t-53 16.5q-16 0 -33 -5q36 -21 36 -63q0 -27 -19 -45.5t-48 -18.5q-28 0 -47 19.5t-19 48.5q0 52 50.5 90t119.5 38q70 0 112 -34.5
t42 -88.5q0 -61 -59 -114t-185 -117z" />
    <glyph glyph-name="uni00B3" unicode="&#xb3;" horiz-adv-x="388" 
d="M433 578q0 -48 -38 -75t-101 -33q49 -7 72 -34.5t23 -64.5q0 -57 -52 -91.5t-122 -34.5q-65 0 -112.5 30t-47.5 82q0 34 19.5 55t49.5 21q26 0 43 -16.5t17 -41.5q0 -23 -13.5 -39t-36.5 -21q21 -11 45 -11q35 0 58 22.5t23 55.5q0 23 -14 39.5t-46 16.5h-17l17 65h30
q33 0 55 20.5t22 50.5q0 24 -16 39.5t-46 15.5q-13 0 -26 -3q22 -17 22 -45q0 -25 -18 -42t-44 -17q-27 0 -44.5 17.5t-17.5 46.5q0 49 49.5 77t113.5 28q65 0 109 -30.5t44 -82.5z" />
    <glyph glyph-name="acute" unicode="&#xb4;" horiz-adv-x="282" 
d="M141 580q46 90 67 125t42 52q27 23 57 22t52 -26q24 -28 21.5 -57.5t-27.5 -51.5q-7 -6 -16 -12t-17 -9.5t-23.5 -9.5t-25.5 -9t-34.5 -11t-39.5 -13h-56z" />
    <glyph glyph-name="paragraph" unicode="&#xb6;" horiz-adv-x="717" 
d="M445 680h372l-25 -85h-81q-31 0 -40 -31l-161 -558q-12 -44 -31.5 -76.5t-54.5 -61t-92.5 -43.5t-135.5 -15q-109 0 -163.5 37t-54.5 95q0 47 31.5 79t74.5 32q40 0 64 -27t24 -64q0 -38 -25.5 -61.5t-65.5 -29.5q24 -7 50 -7q45 0 65.5 31t43.5 111l75 258
q-98 1 -155.5 44.5t-57.5 119.5q0 106 89.5 179t253.5 73zM415 6l169 589h-81l-169 -589q-25 -90 -67 -137q56 8 92.5 39.5t55.5 97.5z" />
    <glyph glyph-name="periodcentered" unicode="&#xb7;" horiz-adv-x="343" 
d="M195 427q42 0 68.5 -26.5t26.5 -69.5t-26.5 -69.5t-68.5 -26.5t-70 27.5t-28 69.5t28 68.5t70 26.5z" />
    <glyph glyph-name="cedilla" unicode="&#xb8;" horiz-adv-x="279" 
d="M56 -53q46 0 74 -19.5t28 -54.5q0 -47 -40 -78.5t-101 -31.5q-48 0 -97 28l26 50q34 -23 69 -23q21 0 35.5 10t14.5 28q0 20 -22.5 28t-61.5 2l-9 32l61 87h60z" />
    <glyph glyph-name="uni00B9" unicode="&#xb9;" horiz-adv-x="361" 
d="M278 339q-7 -23 17 -23h69l-21 -73h-315l21 73h62q24 0 30 23l60 208q-35 -6 -86 -6l19 62q69 4 92 18t43 59h106z" />
    <glyph glyph-name="ordmasculine" unicode="&#xba;" horiz-adv-x="495" 
d="M282 273q-85 0 -139 48t-54 129q0 97 72 168t175 71q87 0 142.5 -52.5t55.5 -133.5q0 -96 -73.5 -163t-178.5 -67zM274 335q51 0 88 71.5t37 141.5q0 78 -53 78q-37 0 -67.5 -43.5t-44 -93.5t-13.5 -86q0 -32 14 -50t39 -18zM19 130l24 82h377l-24 -82h-377z" />
    <glyph glyph-name="guillemotright" unicode="&#xbb;" horiz-adv-x="526" 
d="M90 421l50 35l151 -160l-21 -75l-243 -159l-30 41l182 162zM297 421l50 35l151 -160l-21 -75l-243 -159l-30 41l182 162z" />
    <glyph glyph-name="onequarter" unicode="&#xbc;" horiz-adv-x="955" 
d="M923 652q0 -38 -123 -132.5t-230 -160.5l-12 14q73 96 179.5 208t145.5 112q16 0 28 -12t12 -29zM353 316l-21 -73h-315l21 73h62q24 0 30 23l60 208q-35 -6 -86 -6l19 62q69 4 92 18t43 59h106l-97 -341q-7 -23 17 -23h69zM891 317l-41 -144h62l-20 -68h-61l-5 -16
q-6 -22 17 -22h29l-19 -67h-239l19 67h55q23 0 30 22l4 16h-186l20 68q24 23 42 43.5t28.5 33t21.5 30.5t14 24.5t12.5 27t11.5 25.5q37 80 90 80q20 0 31.5 -14t11.5 -37q0 -43 -37 -89.5t-77 -74.5t-81 -49h118l19 69q64 35 89 75h41zM148 25q0 27 70.5 89.5t146 116
t137.5 91.5l12 -13q-56 -82 -171.5 -203t-153.5 -121q-16 0 -28.5 12t-12.5 28z" />
    <glyph glyph-name="onehalf" unicode="&#xbd;" horiz-adv-x="1025" 
d="M925 652q0 -38 -123 -132.5t-230 -160.5l-12 14q73 96 179.5 208t145.5 112q16 0 28 -12t12 -29zM353 316l-21 -73h-315l21 73h62q24 0 30 23l60 208q-35 -6 -86 -6l19 62q69 4 92 18t43 59h106l-97 -341q-7 -23 17 -23h69zM822 92q24 3 41.5 10.5t27 20t13 19t8.5 19.5
h67l-46 -161h-337l13 47q10 9 50.5 40t69.5 55.5t63 57.5t53 63t19 54q0 23 -17 39.5t-53 16.5q-16 0 -33 -5q36 -21 36 -63q0 -27 -19 -45.5t-48 -18.5q-28 0 -47 19.5t-19 48.5q0 52 50.5 90t119.5 38q70 0 112 -34.5t42 -88.5q0 -61 -59 -114t-185 -117zM150 25
q0 27 70.5 89.5t146 116t137.5 91.5l12 -13q-56 -82 -171.5 -203t-153.5 -121q-16 0 -28.5 12t-12.5 28z" />
    <glyph glyph-name="threequarters" unicode="&#xbe;" horiz-adv-x="936" 
d="M903 652q0 -38 -123 -132.5t-230 -160.5l-12 14q73 96 179.5 208t145.5 112q16 0 28 -12t12 -29zM390 371q0 -57 -52 -91.5t-122 -34.5q-65 0 -112.5 30t-47.5 82q0 34 19.5 55t49.5 21q26 0 43 -16.5t17 -41.5q0 -23 -13.5 -39t-36.5 -21q21 -11 45 -11q35 0 58 22.5
t23 55.5q0 23 -14 39.5t-46 16.5h-17l17 65h30q33 0 55 20.5t22 50.5q0 24 -16 39.5t-46 15.5q-12 0 -26 -3q22 -17 22 -45q0 -25 -18 -42t-44 -17q-27 0 -44.5 17.5t-17.5 46.5q0 49 49.5 77t113.5 28q65 0 109 -30.5t44 -82.5q0 -48 -38 -75t-101 -33q49 -7 72 -34.5
t23 -64.5zM872 317l-41 -144h62l-20 -68h-61l-5 -16q-6 -22 17 -22h29l-19 -67h-239l19 67h55q23 0 30 22l4 16h-186l20 68q24 23 42 43.5t28.5 33t21.5 30.5t14 24.5t12.5 27t11.5 25.5q37 80 90 80q20 0 31.5 -14t11.5 -37q0 -43 -37 -89.5t-77 -74.5t-81 -49h118l19 69
q64 35 89 75h41zM128 25q0 27 70.5 89.5t146 116t137.5 91.5l12 -13q-56 -82 -171.5 -203t-153.5 -121q-16 0 -28.5 12t-12.5 28z" />
    <glyph glyph-name="questiondown" unicode="&#xbf;" horiz-adv-x="565" 
d="M333 327q-42 0 -69 26.5t-27 69.5t27 69.5t69 26.5t70 -27.5t28 -69.5t-28 -68.5t-70 -26.5zM366 89q39 0 65 -27t26 -71q0 -75 -71.5 -122t-173.5 -47q-65 0 -119 18t-91 60t-37 103q0 185 348 262l25 -46q-195 -114 -195 -229q0 -90 106 -90q42 0 67 19q-47 19 -47 71
q0 41 28 70t69 29z" />
    <glyph glyph-name="Agrave" unicode="&#xc0;" horiz-adv-x="771" 
d="M502 751q-8 8 -29 27t-27 25t-19 20t-17 22.5t-8 20.5t-4 25q0 33 24 54t55 21q25 0 44.5 -16t27.5 -43q13 -39 13 -156h-60zM690 94h31l-27 -94h-362l27 94h69q14 0 22.5 8.5t7.5 21.5l-6 55h-252l-37 -54q-9 -13 -6 -22t18 -9h52l-27 -94h-268l27 94h38q33 0 57 34
l389 552h126l81 -556q5 -30 40 -30zM255 260h188l-26 235z" />
    <glyph glyph-name="Aacute" unicode="&#xc1;" horiz-adv-x="771" 
d="M695 815q-7 -6 -16 -12t-17 -9.5t-23.5 -9.5t-25.5 -9t-34.5 -11t-39.5 -13h-56q46 90 67 125t42 52q27 23 57 22t52 -26q24 -28 21.5 -57.5t-27.5 -51.5zM650 124q5 -30 40 -30h31l-27 -94h-362l27 94h69q14 0 22.5 8.5t7.5 21.5l-6 55h-252l-37 -54q-9 -13 -6 -22
t18 -9h52l-27 -94h-268l27 94h38q33 0 57 34l389 552h126zM255 260h188l-26 235z" />
    <glyph glyph-name="Acircumflex" unicode="&#xc2;" horiz-adv-x="771" 
d="M554 821l-93 -64h-98l175 164q30 27 48 27t32 -27l92 -165h-98zM690 94h31l-27 -94h-362l27 94h69q14 0 22.5 8.5t7.5 21.5l-6 55h-252l-37 -54q-9 -13 -6 -22t18 -9h52l-27 -94h-268l27 94h38q33 0 57 34l389 552h126l81 -556q5 -30 40 -30zM255 260h188l-26 235z" />
    <glyph glyph-name="Atilde" unicode="&#xc3;" horiz-adv-x="771" 
d="M450 805q-17 0 -28.5 -7t-17 -15.5t-14.5 -27.5l-59 20q15 71 53.5 114.5t104.5 43.5q35 0 85 -28.5t75 -28.5q7 0 13 1.5t10.5 3t9 6t7 6.5t6.5 9t4.5 8t4.5 10l4 8l61 -13q-13 -74 -52.5 -120.5t-107.5 -46.5q-34 0 -82 28.5t-77 28.5zM650 124q5 -30 40 -30h31
l-27 -94h-362l27 94h69q14 0 22.5 8.5t7.5 21.5l-6 55h-252l-37 -54q-9 -13 -6 -22t18 -9h52l-27 -94h-268l27 94h38q33 0 57 34l389 552h126zM255 260h188l-26 235z" />
    <glyph glyph-name="Adieresis" unicode="&#xc4;" horiz-adv-x="771" 
d="M428 740q-39 0 -64.5 24.5t-25.5 63.5t26 64.5t64 25.5q39 0 63.5 -24.5t24.5 -64.5t-24.5 -64.5t-63.5 -24.5zM653 740q-39 0 -64.5 24.5t-25.5 63.5t26 64.5t64 25.5q39 0 63.5 -24.5t24.5 -64.5t-24.5 -64.5t-63.5 -24.5zM650 124q5 -30 40 -30h31l-27 -94h-362l27 94
h69q14 0 22.5 8.5t7.5 21.5l-6 55h-252l-37 -54q-9 -13 -6 -22t18 -9h52l-27 -94h-268l27 94h38q33 0 57 34l389 552h126zM255 260h188l-26 235z" />
    <glyph glyph-name="Aring" unicode="&#xc5;" horiz-adv-x="771" 
d="M546 726q-53 0 -87 29.5t-34 72.5q0 54 42 90.5t101 36.5q53 0 88 -29t35 -72q0 -53 -42 -90.5t-103 -37.5zM565 895q-24 0 -41.5 -18t-17.5 -44q0 -21 13 -33.5t31 -12.5q24 0 42 19t18 44q0 19 -12.5 32t-32.5 13zM690 94h31l-27 -94h-362l27 94h69q14 0 22.5 8.5
t7.5 21.5l-6 55h-252l-37 -54q-9 -13 -6 -22t18 -9h52l-27 -94h-268l27 94h38q33 0 57 34l389 552h126l81 -556q5 -30 40 -30zM255 260h188l-26 235z" />
    <glyph glyph-name="AE" unicode="&#xc6;" horiz-adv-x="1055" 
d="M1057 459h-102q11 68 7 88q-11 38 -69 39h-125l-68 -239h48q9 0 16.5 2.5t14 9l11 11t10.5 16t8.5 17t8.5 20t8 19.5h75l-81 -283h-75q1 5 2.5 15t2 15.5t1.5 14.5t0.5 14t-1 11.5t-3 10.5t-5.5 7.5t-8.5 5t-12.5 1.5h-48l-45 -160h138q32 0 55.5 9.5t40.5 31t25.5 37.5
t22.5 49h102l-64 -221h-618l27 94h59q31 0 40 31l15 54h-207l-47 -54q-10 -13 -6.5 -22t18.5 -9h56l-27 -94h-325l27 94h64q28 0 58 34l385 430q25 28 -13 28h-46l27 94h687zM334 260h160l77 270z" />
    <glyph glyph-name="Ccedilla" unicode="&#xc7;" horiz-adv-x="711" 
d="M523 466q0 32 19 56.5t50 35.5q-31 45 -100 45q-60 0 -109 -35.5t-78 -89.5t-44 -112.5t-15 -110.5q0 -78 34.5 -123t99.5 -45q63 0 110 41t94 121h91q-68 -140 -150 -199.5t-184 -59.5q-14 0 -20 1l-28 -44q46 0 74 -19.5t28 -54.5q0 -47 -40 -78.5t-101 -31.5
q-48 0 -97 28l26 50q34 -23 69 -23q21 0 35.5 10t14.5 28q0 20 -22.5 28t-61.5 2l-9 32l56 80q-95 21 -151.5 91.5t-56.5 179.5q0 165 121 293t287 128q109 0 187.5 -56t78.5 -144q0 -53 -30 -83.5t-77 -30.5q-44 0 -72.5 25.5t-28.5 64.5z" />
    <glyph glyph-name="Egrave" unicode="&#xc8;" horiz-adv-x="679" 
d="M509 751h-60q-8 8 -29 27t-27 25t-19 20t-17 22.5t-8 20.5t-4 25q0 33 24 54t55 21q25 0 44.5 -16t27.5 -43q13 -39 13 -156zM532 221h102l-64 -221h-617l28 94h57q31 0 40 31l123 430q9 31 -22 31h-58l28 94h609l-64 -221h-103q13 69 8 89q-11 37 -69 38h-138l-69 -239
h48q9 0 16.5 2.5t14 9l11 11t10.5 16t8.5 17t8.5 20t8 19.5h76l-82 -283h-75q9 35 6.5 65t-29.5 30h-48l-46 -160h138q32 0 55.5 9.5t40.5 31t25.5 37.5t22.5 49z" />
    <glyph glyph-name="Eacute" unicode="&#xc9;" horiz-adv-x="679" 
d="M430 751q46 90 67 125t42 52q27 23 57 22t52 -26q24 -28 21.5 -57.5t-27.5 -51.5q-7 -6 -16 -12t-17 -9.5t-23.5 -9.5t-25.5 -9t-34.5 -11t-39.5 -13h-56zM532 221h102l-64 -221h-617l28 94h57q31 0 40 31l123 430q9 31 -22 31h-58l28 94h609l-64 -221h-103q13 69 8 89
q-11 37 -69 38h-138l-69 -239h48q9 0 16.5 2.5t14 9l11 11t10.5 16t8.5 17t8.5 20t8 19.5h76l-82 -283h-75q9 35 6.5 65t-29.5 30h-48l-46 -160h138q32 0 55.5 9.5t40.5 31t25.5 37.5t22.5 49z" />
    <glyph glyph-name="Ecircumflex" unicode="&#xca;" horiz-adv-x="679" 
d="M408 757h-98l175 164q30 27 48 27t32 -27l92 -165h-98l-58 65zM532 221h102l-64 -221h-617l28 94h57q31 0 40 31l123 430q9 31 -22 31h-58l28 94h609l-64 -221h-103q13 69 8 89q-11 37 -69 38h-138l-69 -239h48q9 0 16.5 2.5t14 9l11 11t10.5 16t8.5 17t8.5 20t8 19.5h76
l-82 -283h-75q9 35 6.5 65t-29.5 30h-48l-46 -160h138q32 0 55.5 9.5t40.5 31t25.5 37.5t22.5 49z" />
    <glyph glyph-name="Edieresis" unicode="&#xcb;" horiz-adv-x="679" 
d="M375 740q-39 0 -64.5 24.5t-25.5 63.5t26 64.5t64 25.5q39 0 63.5 -24.5t24.5 -64.5t-24.5 -64.5t-63.5 -24.5zM600 740q-39 0 -64.5 24.5t-25.5 63.5t26 64.5t64 25.5q39 0 63.5 -24.5t24.5 -64.5t-24.5 -64.5t-63.5 -24.5zM532 221h102l-64 -221h-617l28 94h57
q31 0 40 31l123 430q9 31 -22 31h-58l28 94h609l-64 -221h-103q13 69 8 89q-11 37 -69 38h-138l-69 -239h48q9 0 16.5 2.5t14 9l11 11t10.5 16t8.5 17t8.5 20t8 19.5h76l-82 -283h-75q9 35 6.5 65t-29.5 30h-48l-46 -160h138q32 0 55.5 9.5t40.5 31t25.5 37.5t22.5 49z" />
    <glyph glyph-name="Igrave" unicode="&#xcc;" horiz-adv-x="422" 
d="M387 751h-60q-8 8 -29 27t-27 25t-19 20t-17 22.5t-8 20.5t-4 25q0 33 24 54t55 21q25 0 44.5 -16t27.5 -43q13 -39 13 -156zM428 586q-31 0 -39 -31l-124 -430q-9 -31 22 -31h62l-27 -94h-367l27 94h62q31 0 40 31l122 430q9 31 -22 31h-61l27 94h367l-28 -94h-61z" />
    <glyph glyph-name="Iacute" unicode="&#xcd;" horiz-adv-x="422" 
d="M308 751q46 90 67 125t42 52q27 23 57 22t52 -26q24 -28 21.5 -57.5t-27.5 -51.5q-7 -6 -16 -12t-17 -9.5t-23.5 -9.5t-25.5 -9t-34.5 -11t-39.5 -13h-56zM428 586q-31 0 -39 -31l-124 -430q-9 -31 22 -31h62l-27 -94h-367l27 94h62q31 0 40 31l122 430q9 31 -22 31h-61
l27 94h367l-28 -94h-61z" />
    <glyph glyph-name="Icircumflex" unicode="&#xce;" horiz-adv-x="422" 
d="M286 757h-98l175 164q30 27 48 27t32 -27l92 -165h-98l-58 65zM428 586q-31 0 -39 -31l-124 -430q-9 -31 22 -31h62l-27 -94h-367l27 94h62q31 0 40 31l122 430q9 31 -22 31h-61l27 94h367l-28 -94h-61z" />
    <glyph glyph-name="Idieresis" unicode="&#xcf;" horiz-adv-x="422" 
d="M253 740q-39 0 -64.5 24.5t-25.5 63.5t26 64.5t64 25.5q39 0 63.5 -24.5t24.5 -64.5t-24.5 -64.5t-63.5 -24.5zM478 740q-39 0 -64.5 24.5t-25.5 63.5t26 64.5t64 25.5q39 0 63.5 -24.5t24.5 -64.5t-24.5 -64.5t-63.5 -24.5zM428 586q-31 0 -39 -31l-124 -430
q-9 -31 22 -31h62l-27 -94h-367l27 94h62q31 0 40 31l122 430q9 31 -22 31h-61l27 94h367l-28 -94h-61z" />
    <glyph glyph-name="Eth" unicode="&#xd0;" horiz-adv-x="773" 
d="M457 680q141 0 226.5 -72.5t85.5 -198.5q0 -171 -138.5 -290t-344.5 -119h-331l26 94h58q31 0 39 26l46 161h-90l29 102h90l49 169q9 34 -22 34h-58l27 94h308zM315 94q112 0 190 99t78 224q0 82 -40.5 125.5t-110.5 43.5h-39l-59 -203h106l-30 -102h-105l-54 -187h64z
" />
    <glyph glyph-name="Ntilde" unicode="&#xd1;" horiz-adv-x="780" 
d="M753 915q-13 -74 -52.5 -120.5t-107.5 -46.5q-34 0 -82 28.5t-77 28.5q-17 0 -28.5 -7t-17 -15.5t-14.5 -27.5l-59 20q15 71 53.5 114.5t104.5 43.5q35 0 85 -28.5t75 -28.5q7 0 13 1.5t10.5 3t9 6t7 6.5t6.5 9t4.5 8t4.5 10l4 8zM886 680l-27 -94h-57q-31 0 -40 -31
l-159 -555h-76l-256 438l-90 -313q-9 -31 22 -31h75l-27 -94h-298l28 94h57q31 0 40 31l123 430q9 31 -22 31h-58l28 94h220l218 -372l71 247q9 31 -22 31h-70l27 94h293z" />
    <glyph glyph-name="Ograve" unicode="&#xd2;" horiz-adv-x="733" 
d="M545 751h-60q-8 8 -29 27t-27 25t-19 20t-17 22.5t-8 20.5t-4 25q0 33 24 54t55 21q25 0 44.5 -16t27.5 -43q13 -39 13 -156zM336 -10q-130 0 -205 75.5t-74 204.5q1 74 28 147t74.5 134.5t123.5 100t166 38.5q130 0 205.5 -75.5t73.5 -203.5q-1 -75 -28 -149t-75.5 -135
t-124 -99t-164.5 -38zM335 77q51 0 94.5 45.5t69 110.5t39.5 129t14 110q-1 60 -29 95.5t-77 35.5q-53 0 -97 -44.5t-69 -108.5t-38.5 -126t-13.5 -107q1 -65 29.5 -102.5t77.5 -37.5z" />
    <glyph glyph-name="Oacute" unicode="&#xd3;" horiz-adv-x="733" 
d="M466 751q46 90 67 125t42 52q27 23 57 22t52 -26q24 -28 21.5 -57.5t-27.5 -51.5q-7 -6 -16 -12t-17 -9.5t-23.5 -9.5t-25.5 -9t-34.5 -11t-39.5 -13h-56zM336 -10q-130 0 -205 75.5t-74 204.5q1 74 28 147t74.5 134.5t123.5 100t166 38.5q130 0 205.5 -75.5t73.5 -203.5
q-1 -75 -28 -149t-75.5 -135t-124 -99t-164.5 -38zM335 77q51 0 94.5 45.5t69 110.5t39.5 129t14 110q-1 60 -29 95.5t-77 35.5q-53 0 -97 -44.5t-69 -108.5t-38.5 -126t-13.5 -107q1 -65 29.5 -102.5t77.5 -37.5z" />
    <glyph glyph-name="Ocircumflex" unicode="&#xd4;" horiz-adv-x="733" 
d="M444 757h-98l175 164q30 27 48 27t32 -27l92 -165h-98l-58 65zM336 -10q-130 0 -205 75.5t-74 204.5q1 74 28 147t74.5 134.5t123.5 100t166 38.5q130 0 205.5 -75.5t73.5 -203.5q-1 -75 -28 -149t-75.5 -135t-124 -99t-164.5 -38zM335 77q51 0 94.5 45.5t69 110.5
t39.5 129t14 110q-1 60 -29 95.5t-77 35.5q-53 0 -97 -44.5t-69 -108.5t-38.5 -126t-13.5 -107q1 -65 29.5 -102.5t77.5 -37.5z" />
    <glyph glyph-name="Otilde" unicode="&#xd5;" horiz-adv-x="733" 
d="M752 915q-13 -74 -52.5 -120.5t-107.5 -46.5q-34 0 -82 28.5t-77 28.5q-17 0 -28.5 -7t-17 -15.5t-14.5 -27.5l-59 20q15 71 53.5 114.5t104.5 43.5q35 0 85 -28.5t75 -28.5q7 0 13 1.5t10.5 3t9 6t7 6.5t6.5 9t4.5 8t4.5 10l4 8zM336 -10q-130 0 -205 75.5t-74 204.5
q1 74 28 147t74.5 134.5t123.5 100t166 38.5q130 0 205.5 -75.5t73.5 -203.5q-1 -75 -28 -149t-75.5 -135t-124 -99t-164.5 -38zM335 77q51 0 94.5 45.5t69 110.5t39.5 129t14 110q-1 60 -29 95.5t-77 35.5q-53 0 -97 -44.5t-69 -108.5t-38.5 -126t-13.5 -107
q1 -65 29.5 -102.5t77.5 -37.5z" />
    <glyph glyph-name="Odieresis" unicode="&#xd6;" horiz-adv-x="733" 
d="M411 740q-39 0 -64.5 24.5t-25.5 63.5t26 64.5t64 25.5q39 0 63.5 -24.5t24.5 -64.5t-24.5 -64.5t-63.5 -24.5zM636 740q-39 0 -64.5 24.5t-25.5 63.5t26 64.5t64 25.5q39 0 63.5 -24.5t24.5 -64.5t-24.5 -64.5t-63.5 -24.5zM336 -10q-130 0 -205 75.5t-74 204.5
q1 74 28 147t74.5 134.5t123.5 100t166 38.5q130 0 205.5 -75.5t73.5 -203.5q-1 -75 -28 -149t-75.5 -135t-124 -99t-164.5 -38zM335 77q51 0 94.5 45.5t69 110.5t39.5 129t14 110q-1 60 -29 95.5t-77 35.5q-53 0 -97 -44.5t-69 -108.5t-38.5 -126t-13.5 -107
q1 -65 29.5 -102.5t77.5 -37.5z" />
    <glyph glyph-name="multiply" unicode="&#xd7;" horiz-adv-x="567" 
d="M531 428l-176 -137l92 -130l-72 -57l-93 130l-175 -135l-44 64l173 135l-98 137l73 58l98 -138l176 137z" />
    <glyph glyph-name="Oslash" unicode="&#xd8;" horiz-adv-x="733" 
d="M809 680l-120 -110q40 -67 39 -159q-1 -75 -28 -149t-75.5 -135t-124 -99t-164.5 -38q-125 0 -201 71l-67 -61h-92l120 110q-40 68 -39 160q1 74 28 147t74.5 134.5t123.5 100t166 38.5q125 0 201 -71l67 61h92zM446 603q-51 0 -93.5 -41t-68 -102t-40 -120.5
t-16.5 -107.5l317 290q-22 81 -99 81zM335 77q47 0 88 39t66.5 97.5t41.5 118.5t20 111l-314 -288q25 -78 98 -78z" />
    <glyph glyph-name="Ugrave" unicode="&#xd9;" horiz-adv-x="737" 
d="M589 751h-60q-8 8 -29 27t-27 25t-19 20t-17 22.5t-8 20.5t-4 25q0 33 24 54t55 21q25 0 44.5 -16t27.5 -43q13 -39 13 -156zM339 -10q-127 0 -200.5 80t-33.5 218l79 267q9 31 -22 31h-56l27 94h368l-27 -94h-60q-31 0 -40 -31l-89 -306q-22 -76 5.5 -122t91.5 -46
q111 0 150 138l95 336q8 31 -22 31h-58l27 94h275l-27 -94h-56q-31 0 -40 -31l-101 -358q-26 -94 -103.5 -150.5t-182.5 -56.5z" />
    <glyph glyph-name="Uacute" unicode="&#xda;" horiz-adv-x="737" 
d="M510 751q46 90 67 125t42 52q27 23 57 22t52 -26q24 -28 21.5 -57.5t-27.5 -51.5q-7 -6 -16 -12t-17 -9.5t-23.5 -9.5t-25.5 -9t-34.5 -11t-39.5 -13h-56zM339 -10q-127 0 -200.5 80t-33.5 218l79 267q9 31 -22 31h-56l27 94h368l-27 -94h-60q-31 0 -40 -31l-89 -306
q-22 -76 5.5 -122t91.5 -46q111 0 150 138l95 336q8 31 -22 31h-58l27 94h275l-27 -94h-56q-31 0 -40 -31l-101 -358q-26 -94 -103.5 -150.5t-182.5 -56.5z" />
    <glyph glyph-name="Ucircumflex" unicode="&#xdb;" horiz-adv-x="737" 
d="M488 757h-98l175 164q30 27 48 27t32 -27l92 -165h-98l-58 65zM339 -10q-127 0 -200.5 80t-33.5 218l79 267q9 31 -22 31h-56l27 94h368l-27 -94h-60q-31 0 -40 -31l-89 -306q-22 -76 5.5 -122t91.5 -46q111 0 150 138l95 336q8 31 -22 31h-58l27 94h275l-27 -94h-56
q-31 0 -40 -31l-101 -358q-26 -94 -103.5 -150.5t-182.5 -56.5z" />
    <glyph glyph-name="Udieresis" unicode="&#xdc;" horiz-adv-x="737" 
d="M455 740q-39 0 -64.5 24.5t-25.5 63.5t26 64.5t64 25.5q39 0 63.5 -24.5t24.5 -64.5t-24.5 -64.5t-63.5 -24.5zM680 740q-39 0 -64.5 24.5t-25.5 63.5t26 64.5t64 25.5q39 0 63.5 -24.5t24.5 -64.5t-24.5 -64.5t-63.5 -24.5zM339 -10q-127 0 -200.5 80t-33.5 218l79 267
q9 31 -22 31h-56l27 94h368l-27 -94h-60q-31 0 -40 -31l-89 -306q-22 -76 5.5 -122t91.5 -46q111 0 150 138l95 336q8 31 -22 31h-58l27 94h275l-27 -94h-56q-31 0 -40 -31l-101 -358q-26 -94 -103.5 -150.5t-182.5 -56.5z" />
    <glyph glyph-name="Yacute" unicode="&#xdd;" horiz-adv-x="691" 
d="M480 751q46 90 67 125t42 52q27 23 57 22t52 -26q24 -28 21.5 -57.5t-27.5 -51.5q-7 -6 -16 -12t-17 -9.5t-23.5 -9.5t-25.5 -9t-34.5 -11t-39.5 -13h-56zM537 680h276l-27 -94h-39q-36 0 -65 -32l-231 -258l-49 -171q-9 -31 22 -31h79l-27 -94h-401l27 94h79q31 0 40 31
l36 128l-80 305q-8 28 -43 28h-39l27 94h339l-27 -94h-42q-33 0 -26 -31l43 -184l163 187q24 28 -9 28h-53z" />
    <glyph glyph-name="Thorn" unicode="&#xde;" horiz-adv-x="713" 
d="M466 542q113 0 177 -46t64 -130q0 -71 -48 -121t-121 -72t-164 -22h-108l-7 -26q-9 -31 22 -31h76l-27 -94h-377l28 94h57q31 0 40 31l123 430q9 31 -22 31h-58l28 94h376l-27 -94h-76q-31 0 -39 -31l-4 -13h87zM365 231q69 0 112 40t43 94q0 39 -26.5 61.5t-70.5 22.5
h-71l-62 -218h75z" />
    <glyph glyph-name="germandbls" unicode="&#xdf;" horiz-adv-x="717" 
d="M509 355q0 -15 17 -29.5t41.5 -28.5t49.5 -32t42 -47t17 -65q0 -73 -60.5 -118t-149.5 -45q-76 0 -130.5 33t-54.5 91q0 37 22 62.5t56 25.5q29 0 49 -18t20 -46q0 -26 -17 -43t-46 -22q19 -19 51 -19q36 0 59 19t23 48q0 27 -24.5 58.5t-49 66t-24.5 66.5q0 27 16 53.5
t39 49.5l46.5 46.5t39.5 54t16 62.5q0 35 -20 56t-54 21q-81 0 -112 -109l-160 -562q-24 -86 -87.5 -130t-140.5 -44q-63 0 -99 28.5t-36 74.5q0 35 20.5 56.5t52.5 21.5q29 0 49 -17t20 -47q0 -49 -49 -64q40 1 65 29.5t42 91.5l122 431h-113l26 94h83q26 0 39 29
q19 42 38.5 72t51.5 60t79.5 45.5t109.5 15.5q104 0 166.5 -42.5t62.5 -114.5q0 -41 -21 -73t-51 -50.5t-60 -33.5t-51 -30t-21 -32z" />
    <glyph glyph-name="agrave" unicode="&#xe0;" horiz-adv-x="659" 
d="M407 580h-60q-8 8 -29 27t-27 25t-19 20t-17 22.5t-8 20.5t-4 25q0 33 24 54t55 21q25 0 44.5 -16t27.5 -43q13 -39 13 -156zM152 -10q-66 0 -102.5 42t-36.5 123q0 58 19.5 121t53 117.5t85 90t110.5 35.5q114 0 116 -129h5l34 119h162l-113 -387q-10 -36 14 -36
q9 0 18 7.5t26 37t41 82.5h72q-50 -121 -96.5 -172t-112.5 -51q-64 0 -87.5 38t-12.5 98l4 23h-6q-78 -159 -193 -159zM229 84q35 0 68.5 50t52 113.5t18.5 111.5q0 71 -47 71q-35 0 -69 -48t-53.5 -109.5t-19.5 -107.5q0 -38 13 -59.5t37 -21.5z" />
    <glyph glyph-name="aacute" unicode="&#xe1;" horiz-adv-x="659" 
d="M328 580q46 90 67 125t42 52q27 23 57 22t52 -26q24 -28 21.5 -57.5t-27.5 -51.5q-7 -6 -16 -12t-17 -9.5t-23.5 -9.5t-25.5 -9t-34.5 -11t-39.5 -13h-56zM152 -10q-66 0 -102.5 42t-36.5 123q0 58 19.5 121t53 117.5t85 90t110.5 35.5q114 0 116 -129h5l34 119h162
l-113 -387q-10 -36 14 -36q9 0 18 7.5t26 37t41 82.5h72q-50 -121 -96.5 -172t-112.5 -51q-64 0 -87.5 38t-12.5 98l4 23h-6q-78 -159 -193 -159zM229 84q35 0 68.5 50t52 113.5t18.5 111.5q0 71 -47 71q-35 0 -69 -48t-53.5 -109.5t-19.5 -107.5q0 -38 13 -59.5t37 -21.5z
" />
    <glyph glyph-name="acircumflex" unicode="&#xe2;" horiz-adv-x="659" 
d="M306 586h-98l175 164q30 27 48 27t32 -27l92 -165h-98l-58 65zM152 -10q-66 0 -102.5 42t-36.5 123q0 58 19.5 121t53 117.5t85 90t110.5 35.5q114 0 116 -129h5l34 119h162l-113 -387q-10 -36 14 -36q9 0 18 7.5t26 37t41 82.5h72q-50 -121 -96.5 -172t-112.5 -51
q-64 0 -87.5 38t-12.5 98l4 23h-6q-78 -159 -193 -159zM229 84q35 0 68.5 50t52 113.5t18.5 111.5q0 71 -47 71q-35 0 -69 -48t-53.5 -109.5t-19.5 -107.5q0 -38 13 -59.5t37 -21.5z" />
    <glyph glyph-name="atilde" unicode="&#xe3;" horiz-adv-x="659" 
d="M614 744q-13 -74 -52.5 -120.5t-107.5 -46.5q-34 0 -82 28.5t-77 28.5q-17 0 -28.5 -7t-17 -15.5t-14.5 -27.5l-59 20q15 71 53.5 114.5t104.5 43.5q35 0 85 -28.5t75 -28.5q7 0 13 1.5t10.5 3t9 6t7 6.5t6.5 9t4.5 8l4.5 9l4 9zM152 -10q-66 0 -102.5 42t-36.5 123
q0 58 19.5 121t53 117.5t85 90t110.5 35.5q114 0 116 -129h5l34 119h162l-113 -387q-10 -36 14 -36q9 0 18 7.5t26 37t41 82.5h72q-50 -121 -96.5 -172t-112.5 -51q-64 0 -87.5 38t-12.5 98l4 23h-6q-78 -159 -193 -159zM229 84q35 0 68.5 50t52 113.5t18.5 111.5
q0 71 -47 71q-35 0 -69 -48t-53.5 -109.5t-19.5 -107.5q0 -38 13 -59.5t37 -21.5z" />
    <glyph glyph-name="adieresis" unicode="&#xe4;" horiz-adv-x="659" 
d="M273 569q-39 0 -64.5 24.5t-25.5 63.5t26 64.5t64 25.5q39 0 63.5 -24.5t24.5 -64.5t-24.5 -64.5t-63.5 -24.5zM498 569q-39 0 -64.5 24.5t-25.5 63.5t26 64.5t64 25.5q39 0 63.5 -24.5t24.5 -64.5t-24.5 -64.5t-63.5 -24.5zM152 -10q-66 0 -102.5 42t-36.5 123
q0 58 19.5 121t53 117.5t85 90t110.5 35.5q114 0 116 -129h5l34 119h162l-113 -387q-10 -36 14 -36q9 0 18 7.5t26 37t41 82.5h72q-50 -121 -96.5 -172t-112.5 -51q-64 0 -87.5 38t-12.5 98l4 23h-6q-78 -159 -193 -159zM229 84q35 0 68.5 50t52 113.5t18.5 111.5
q0 71 -47 71q-35 0 -69 -48t-53.5 -109.5t-19.5 -107.5q0 -38 13 -59.5t37 -21.5z" />
    <glyph glyph-name="aring" unicode="&#xe5;" horiz-adv-x="659" 
d="M391 555q-53 0 -87 29.5t-34 72.5q0 54 42 90.5t101 36.5q53 0 88 -29t35 -72q0 -53 -42 -90.5t-103 -37.5zM395 616q24 0 42 19t18 44q0 19 -12.5 32t-32.5 13q-24 0 -41.5 -18t-17.5 -44q0 -20 12.5 -33t31.5 -13zM152 -10q-66 0 -102.5 42t-36.5 123q0 58 19.5 121
t53 117.5t85 90t110.5 35.5q114 0 116 -129h5l34 119h162l-113 -387q-10 -36 14 -36q9 0 18 7.5t26 37t41 82.5h72q-50 -121 -96.5 -172t-112.5 -51q-64 0 -87.5 38t-12.5 98l4 23h-6q-78 -159 -193 -159zM229 84q35 0 68.5 50t52 113.5t18.5 111.5q0 71 -47 71
q-35 0 -69 -48t-53.5 -109.5t-19.5 -107.5q0 -38 13 -59.5t37 -21.5z" />
    <glyph glyph-name="ae" unicode="&#xe6;" horiz-adv-x="845" 
d="M580 74q95 0 151 139h76q-44 -122 -109 -172.5t-149 -50.5q-125 0 -166 94q-87 -94 -215 -94q-75 0 -117.5 32t-42.5 89q0 160 337 168q33 169 -91 169q-13 0 -28 -4q22 -18 22 -48q0 -32 -25 -56.5t-61 -24.5t-59 23t-23 59q0 59 55.5 90.5t126.5 31.5q125 0 181 -97
q83 96 215 96q77 0 123.5 -32t46.5 -87q0 -42 -28.5 -74t-77.5 -50.5t-100.5 -28t-110.5 -12.5q-6 -32 -6 -57q-1 -103 75 -103zM649 447q-42 0 -75.5 -48.5t-52.5 -118.5q74 13 121 45t47 81q0 41 -40 41zM215 74q37 0 68 44t50 110q-87 -17 -124 -48.5t-37 -64.5
q0 -18 11.5 -29.5t31.5 -11.5z" />
    <glyph glyph-name="ccedilla" unicode="&#xe7;" horiz-adv-x="532" 
d="M356 331q0 30 21 52.5t51 28.5q-22 21 -58 21q-76 0 -124.5 -78.5t-48.5 -167.5q0 -57 22 -83t58 -26q76 0 135 117h75q-93 -205 -252 -205h-14l-28 -43q46 0 74 -19.5t28 -54.5q0 -47 -40 -78.5t-101 -31.5q-48 0 -97 28l26 50q34 -23 69 -23q21 0 35.5 10t14.5 28
q0 20 -22.5 28t-61.5 2l-9 32l58 82q-64 19 -103.5 71t-39.5 132q0 123 88 219t213 96q87 0 140.5 -47t53.5 -115q0 -45 -24 -72t-61 -27q-33 0 -55.5 21t-22.5 53z" />
    <glyph glyph-name="egrave" unicode="&#xe8;" horiz-adv-x="531" 
d="M388 580h-60q-8 8 -29 27t-27 25t-19 20t-17 22.5t-8 20.5t-4 25q0 33 24 54t55 21q25 0 44.5 -16t27.5 -43q13 -39 13 -156zM266 74q95 0 151 139h76q-81 -223 -267 -223q-99 0 -152 56t-53 143q0 55 21 111.5t59 106t100 80.5t135 31q81 0 129.5 -35t48.5 -92
q0 -43 -30.5 -78.5t-80.5 -57t-102.5 -34.5t-107.5 -18q-2 -28 -2 -37q0 -44 20 -68t55 -24zM329 445q-31 0 -58.5 -31.5t-43 -72.5t-26.5 -90q74 20 123 56.5t49 86.5q0 51 -44 51z" />
    <glyph glyph-name="eacute" unicode="&#xe9;" horiz-adv-x="531" 
d="M309 580q46 90 67 125t42 52q27 23 57 22t52 -26q24 -28 21.5 -57.5t-27.5 -51.5q-7 -6 -16 -12t-17 -9.5t-23.5 -9.5t-25.5 -9t-34.5 -11t-39.5 -13h-56zM266 74q95 0 151 139h76q-81 -223 -267 -223q-99 0 -152 56t-53 143q0 55 21 111.5t59 106t100 80.5t135 31
q81 0 129.5 -35t48.5 -92q0 -43 -30.5 -78.5t-80.5 -57t-102.5 -34.5t-107.5 -18q-2 -28 -2 -37q0 -44 20 -68t55 -24zM329 445q-31 0 -58.5 -31.5t-43 -72.5t-26.5 -90q74 20 123 56.5t49 86.5q0 51 -44 51z" />
    <glyph glyph-name="ecircumflex" unicode="&#xea;" horiz-adv-x="531" 
d="M287 586h-98l175 164q30 27 48 27t32 -27l92 -165h-98l-58 65zM266 74q95 0 151 139h76q-81 -223 -267 -223q-99 0 -152 56t-53 143q0 55 21 111.5t59 106t100 80.5t135 31q81 0 129.5 -35t48.5 -92q0 -43 -30.5 -78.5t-80.5 -57t-102.5 -34.5t-107.5 -18q-2 -28 -2 -37
q0 -44 20 -68t55 -24zM329 445q-31 0 -58.5 -31.5t-43 -72.5t-26.5 -90q74 20 123 56.5t49 86.5q0 51 -44 51z" />
    <glyph glyph-name="edieresis" unicode="&#xeb;" horiz-adv-x="531" 
d="M254 569q-39 0 -64.5 24.5t-25.5 63.5t26 64.5t64 25.5q39 0 63.5 -24.5t24.5 -64.5t-24.5 -64.5t-63.5 -24.5zM479 569q-39 0 -64.5 24.5t-25.5 63.5t26 64.5t64 25.5q39 0 63.5 -24.5t24.5 -64.5t-24.5 -64.5t-63.5 -24.5zM266 74q95 0 151 139h76q-81 -223 -267 -223
q-99 0 -152 56t-53 143q0 55 21 111.5t59 106t100 80.5t135 31q81 0 129.5 -35t48.5 -92q0 -43 -30.5 -78.5t-80.5 -57t-102.5 -34.5t-107.5 -18q-2 -28 -2 -37q0 -44 20 -68t55 -24zM329 445q-31 0 -58.5 -31.5t-43 -72.5t-26.5 -90q74 20 123 56.5t49 86.5q0 51 -44 51z
" />
    <glyph glyph-name="igrave" unicode="&#xec;" horiz-adv-x="406" 
d="M312 580h-60q-8 8 -29 27t-27 25t-19 20t-17 22.5t-8 20.5t-4 25q0 33 24 54t55 21q25 0 44.5 -16t27.5 -43q13 -39 13 -156zM331 213h71q-44 -118 -94.5 -170.5t-117.5 -52.5q-68 0 -98.5 45t-6.5 112l90 247q5 15 -0.5 22.5t-15.5 7.5t-19 -8.5t-26 -38t-39 -83.5h-71
q48 123 99 174t119 51q70 0 99 -46t3 -114l-87 -237q-14 -35 13 -35q32 0 81 126z" />
    <glyph glyph-name="iacute" unicode="&#xed;" horiz-adv-x="406" 
d="M233 580q46 90 67 125t42 52q27 23 57 22t52 -26q24 -28 21.5 -57.5t-27.5 -51.5q-7 -6 -16 -12t-17 -9.5t-23.5 -9.5t-25.5 -9t-34.5 -11t-39.5 -13h-56zM331 213h71q-44 -118 -94.5 -170.5t-117.5 -52.5q-68 0 -98.5 45t-6.5 112l90 247q5 15 -0.5 22.5t-15.5 7.5
t-19 -8.5t-26 -38t-39 -83.5h-71q48 123 99 174t119 51q70 0 99 -46t3 -114l-87 -237q-14 -35 13 -35q32 0 81 126z" />
    <glyph glyph-name="icircumflex" unicode="&#xee;" horiz-adv-x="406" 
d="M211 586h-98l175 164q30 27 48 27t32 -27l92 -165h-98l-58 65zM331 213h71q-44 -118 -94.5 -170.5t-117.5 -52.5q-68 0 -98.5 45t-6.5 112l90 247q5 15 -0.5 22.5t-15.5 7.5t-19 -8.5t-26 -38t-39 -83.5h-71q48 123 99 174t119 51q70 0 99 -46t3 -114l-87 -237
q-14 -35 13 -35q32 0 81 126z" />
    <glyph glyph-name="idieresis" unicode="&#xef;" horiz-adv-x="406" 
d="M178 569q-39 0 -64.5 24.5t-25.5 63.5t26 64.5t64 25.5q39 0 63.5 -24.5t24.5 -64.5t-24.5 -64.5t-63.5 -24.5zM403 569q-39 0 -64.5 24.5t-25.5 63.5t26 64.5t64 25.5q39 0 63.5 -24.5t24.5 -64.5t-24.5 -64.5t-63.5 -24.5zM331 213h71q-44 -118 -94.5 -170.5
t-117.5 -52.5q-68 0 -98.5 45t-6.5 112l90 247q5 15 -0.5 22.5t-15.5 7.5t-19 -8.5t-26 -38t-39 -83.5h-71q48 123 99 174t119 51q70 0 99 -46t3 -114l-87 -237q-14 -35 13 -35q32 0 81 126z" />
    <glyph glyph-name="eth" unicode="&#xf0;" horiz-adv-x="558" 
d="M416 623q122 -123 122 -290q0 -84 -35 -161.5t-105.5 -129.5t-159.5 -52q-94 0 -154 54.5t-60 154.5q0 79 32.5 151.5t97.5 120.5t146 48q41 0 71 -15q-21 57 -53 91l-146 -38l-16 62l104 28q-65 44 -80 53l104 18q26 -15 74 -45l139 36l16 -63zM388 367q3 81 -54 81
q-37 0 -69 -39t-50 -93t-28.5 -100t-11.5 -71q-1 -43 14 -63.5t41 -20.5q36 0 67.5 39.5t50 93.5t29 101t11.5 72z" />
    <glyph glyph-name="ntilde" unicode="&#xf1;" horiz-adv-x="717" 
d="M662 744q-13 -74 -52.5 -120.5t-107.5 -46.5q-34 0 -82 28.5t-77 28.5q-17 0 -28.5 -7t-17 -15.5t-14.5 -27.5l-59 20q15 71 53.5 114.5t104.5 43.5q35 0 85 -28.5t75 -28.5q7 0 13 1.5t10.5 3t9 6t7 6.5t6.5 9t4.5 8l4.5 9l4 9zM642 213h72q-49 -116 -100 -169.5
t-118 -53.5q-70 0 -98 48t-3 121l55 159q16 50 8.5 73.5t-36.5 23.5q-14 0 -26.5 -6t-33 -30.5t-41.5 -67t-50 -122.5t-60 -189h-163l114 386q11 38 -13 38q-9 0 -17 -7.5t-23 -37.5t-35 -85h-72q44 121 90.5 173t110.5 52q52 0 82.5 -32.5t5.5 -117.5l-22 -74h5
q77 224 223 224q79 0 112 -60.5t0 -153.5l-63 -183q-5 -20 -0.5 -27.5t14.5 -7.5q9 0 17 7.5t24.5 36.5t40.5 82z" />
    <glyph glyph-name="ograve" unicode="&#xf2;" horiz-adv-x="565" 
d="M417 580h-60q-8 8 -29 27t-27 25t-19 20t-17 22.5t-8 20.5t-4 25q0 33 24 54t55 21q25 0 44.5 -16t27.5 -43q13 -39 13 -156zM238 -10q-94 0 -154 54.5t-60 155.5q0 123 84.5 221t217.5 98q95 0 155.5 -54t60.5 -153q0 -78 -36 -151t-107.5 -122t-160.5 -49zM230 61
q36 0 67.5 39.5t50 94.5t29 103.5t11.5 76.5q1 35 -13.5 54t-40.5 19q-37 0 -69 -39t-50.5 -94t-29 -102.5t-11.5 -75.5q-1 -37 15 -56.5t41 -19.5z" />
    <glyph glyph-name="oacute" unicode="&#xf3;" horiz-adv-x="565" 
d="M338 580q46 90 67 125t42 52q27 23 57 22t52 -26q24 -28 21.5 -57.5t-27.5 -51.5q-7 -6 -16 -12t-17 -9.5t-23.5 -9.5t-25.5 -9t-34.5 -11t-39.5 -13h-56zM238 -10q-94 0 -154 54.5t-60 155.5q0 123 84.5 221t217.5 98q95 0 155.5 -54t60.5 -153q0 -78 -36 -151
t-107.5 -122t-160.5 -49zM230 61q36 0 67.5 39.5t50 94.5t29 103.5t11.5 76.5q1 35 -13.5 54t-40.5 19q-37 0 -69 -39t-50.5 -94t-29 -102.5t-11.5 -75.5q-1 -37 15 -56.5t41 -19.5z" />
    <glyph glyph-name="ocircumflex" unicode="&#xf4;" horiz-adv-x="565" 
d="M316 586h-98l175 164q30 27 48 27t32 -27l92 -165h-98l-58 65zM238 -10q-94 0 -154 54.5t-60 155.5q0 123 84.5 221t217.5 98q95 0 155.5 -54t60.5 -153q0 -78 -36 -151t-107.5 -122t-160.5 -49zM230 61q36 0 67.5 39.5t50 94.5t29 103.5t11.5 76.5q1 35 -13.5 54
t-40.5 19q-37 0 -69 -39t-50.5 -94t-29 -102.5t-11.5 -75.5q-1 -37 15 -56.5t41 -19.5z" />
    <glyph glyph-name="otilde" unicode="&#xf5;" horiz-adv-x="565" 
d="M624 744q-13 -74 -52.5 -120.5t-107.5 -46.5q-34 0 -82 28.5t-77 28.5q-17 0 -28.5 -7t-17 -15.5t-14.5 -27.5l-59 20q15 71 53.5 114.5t104.5 43.5q35 0 85 -28.5t75 -28.5q7 0 13 1.5t10.5 3t9 6t7 6.5t6.5 9t4.5 8l4.5 9l4 9zM238 -10q-94 0 -154 54.5t-60 155.5
q0 123 84.5 221t217.5 98q95 0 155.5 -54t60.5 -153q0 -78 -36 -151t-107.5 -122t-160.5 -49zM230 61q36 0 67.5 39.5t50 94.5t29 103.5t11.5 76.5q1 35 -13.5 54t-40.5 19q-37 0 -69 -39t-50.5 -94t-29 -102.5t-11.5 -75.5q-1 -37 15 -56.5t41 -19.5z" />
    <glyph glyph-name="odieresis" unicode="&#xf6;" horiz-adv-x="565" 
d="M283 569q-39 0 -64.5 24.5t-25.5 63.5t26 64.5t64 25.5q39 0 63.5 -24.5t24.5 -64.5t-24.5 -64.5t-63.5 -24.5zM508 569q-39 0 -64.5 24.5t-25.5 63.5t26 64.5t64 25.5q39 0 63.5 -24.5t24.5 -64.5t-24.5 -64.5t-63.5 -24.5zM238 -10q-94 0 -154 54.5t-60 155.5
q0 123 84.5 221t217.5 98q95 0 155.5 -54t60.5 -153q0 -78 -36 -151t-107.5 -122t-160.5 -49zM230 61q36 0 67.5 39.5t50 94.5t29 103.5t11.5 76.5q1 35 -13.5 54t-40.5 19q-37 0 -69 -39t-50.5 -94t-29 -102.5t-11.5 -75.5q-1 -37 15 -56.5t41 -19.5z" />
    <glyph glyph-name="divide" unicode="&#xf7;" horiz-adv-x="567" 
d="M337 412q-37 0 -61.5 23.5t-24.5 59.5q0 37 24.5 61t61.5 24t60 -23.5t23 -60.5t-23 -60.5t-60 -23.5zM48 265l31 101h477l-31 -101h-477zM236 218q37 0 60 -23.5t23 -60.5t-23 -60.5t-60 -23.5t-61.5 24t-24.5 61q0 36 24.5 59.5t61.5 23.5z" />
    <glyph glyph-name="oslash" unicode="&#xf8;" horiz-adv-x="565" 
d="M594 509l-84 -78q32 -51 32 -119q0 -78 -36 -151t-107.5 -122t-160.5 -49q-91 0 -147 49l-42 -39h-94l96 87q-27 49 -27 113q0 123 84.5 221t217.5 98q89 0 148 -47l41 37h79zM334 448q-28 0 -53.5 -23t-44 -61t-31 -76.5t-20.5 -78.5l203 184q-3 27 -17.5 41t-36.5 14z
M230 61q28 0 53.5 24t44 64t31 79t20.5 80l-204 -190q7 -57 55 -57z" />
    <glyph glyph-name="ugrave" unicode="&#xf9;" horiz-adv-x="717" 
d="M485 580h-60q-8 8 -29 27t-27 25t-19 20t-17 22.5t-8 20.5t-4 25q0 33 24 54t55 21q25 0 44.5 -16t27.5 -43q13 -39 13 -156zM75 296h-72q49 116 100 169.5t118 53.5q70 0 98 -48t3 -121l-55 -159q-16 -49 -8.5 -73t36.5 -24q14 0 26.5 6t33 30.5t41.5 67t50 122.5
t60 189h163l-114 -386q-11 -38 13 -38q9 0 17 7.5t23 37.5t35 85h72q-44 -121 -90.5 -173t-110.5 -52q-52 0 -82.5 32.5t-5.5 117.5l22 74h-5q-77 -224 -223 -224q-79 0 -112 60.5t0 153.5l63 183q5 20 0.5 27.5t-14.5 7.5q-9 0 -17 -7.5t-24.5 -36.5t-40.5 -82z" />
    <glyph glyph-name="uacute" unicode="&#xfa;" horiz-adv-x="717" 
d="M377 580q46 90 67 125t42 52q27 23 57 22t52 -26q24 -28 21.5 -57.5t-27.5 -51.5q-7 -6 -16 -12t-17 -9.5t-23.5 -9.5t-25.5 -9t-34.5 -11t-39.5 -13h-56zM75 296h-72q49 116 100 169.5t118 53.5q70 0 98 -48t3 -121l-55 -159q-16 -49 -8.5 -73t36.5 -24q14 0 26.5 6
t33 30.5t41.5 67t50 122.5t60 189h163l-114 -386q-11 -38 13 -38q9 0 17 7.5t23 37.5t35 85h72q-44 -121 -90.5 -173t-110.5 -52q-52 0 -82.5 32.5t-5.5 117.5l22 74h-5q-77 -224 -223 -224q-79 0 -112 60.5t0 153.5l63 183q5 20 0.5 27.5t-14.5 7.5q-9 0 -17 -7.5
t-24.5 -36.5t-40.5 -82z" />
    <glyph glyph-name="ucircumflex" unicode="&#xfb;" horiz-adv-x="717" 
d="M384 586h-98l175 164q30 27 48 27t32 -27l92 -165h-98l-58 65zM75 296h-72q49 116 100 169.5t118 53.5q70 0 98 -48t3 -121l-55 -159q-16 -49 -8.5 -73t36.5 -24q14 0 26.5 6t33 30.5t41.5 67t50 122.5t60 189h163l-114 -386q-11 -38 13 -38q9 0 17 7.5t23 37.5t35 85h72
q-44 -121 -90.5 -173t-110.5 -52q-52 0 -82.5 32.5t-5.5 117.5l22 74h-5q-77 -224 -223 -224q-79 0 -112 60.5t0 153.5l63 183q5 20 0.5 27.5t-14.5 7.5q-9 0 -17 -7.5t-24.5 -36.5t-40.5 -82z" />
    <glyph glyph-name="udieresis" unicode="&#xfc;" horiz-adv-x="717" 
d="M351 569q-39 0 -64.5 24.5t-25.5 63.5t26 64.5t64 25.5q39 0 63.5 -24.5t24.5 -64.5t-24.5 -64.5t-63.5 -24.5zM576 569q-39 0 -64.5 24.5t-25.5 63.5t26 64.5t64 25.5q39 0 63.5 -24.5t24.5 -64.5t-24.5 -64.5t-63.5 -24.5zM75 296h-72q49 116 100 169.5t118 53.5
q70 0 98 -48t3 -121l-55 -159q-16 -49 -8.5 -73t36.5 -24q14 0 26.5 6t33 30.5t41.5 67t50 122.5t60 189h163l-114 -386q-11 -38 13 -38q9 0 17 7.5t23 37.5t35 85h72q-44 -121 -90.5 -173t-110.5 -52q-52 0 -82.5 32.5t-5.5 117.5l22 74h-5q-77 -224 -223 -224
q-79 0 -112 60.5t0 153.5l63 183q5 20 0.5 27.5t-14.5 7.5q-9 0 -17 -7.5t-24.5 -36.5t-40.5 -82z" />
    <glyph glyph-name="yacute" unicode="&#xfd;" horiz-adv-x="626" 
d="M387 580q46 90 67 125t42 52q27 23 57 22t52 -26q24 -28 21.5 -57.5t-27.5 -51.5q-7 -6 -16 -12t-17 -9.5t-23.5 -9.5t-25.5 -9t-34.5 -11t-39.5 -13h-56zM519 519q46 0 75.5 -33t29.5 -94q0 -73 -43 -173.5t-107 -191t-148 -154t-158 -63.5q-68 0 -115 33t-47 90
q0 41 23.5 65.5t59.5 24.5q33 0 52.5 -20.5t19.5 -49.5q0 -24 -14.5 -43.5t-37.5 -28.5q33 -11 64 -11t66 16q18 213 11 332.5t-25.5 162.5t-50.5 43q-49 0 -91 -127h-71q32 111 82.5 166.5t125.5 55.5q122 0 167.5 -126.5t11.5 -356.5q52 73 90.5 157t49.5 143
q-16 -4 -26 -4q-37 0 -64 27.5t-27 67.5t27 66t70 26z" />
    <glyph glyph-name="thorn" unicode="&#xfe;" horiz-adv-x="609" 
d="M458 519q65 0 101 -42t36 -122t-31.5 -162.5t-95 -142.5t-141.5 -60q-63 0 -98 37t-35 91h-3l-50 -173q-9 -31 22 -31h99l-27 -94h-360l27 94h36q31 0 40 31l175 610q9 31 -22 31h-37l28 94h230l-92 -320h4q79 159 194 159zM284 80q36 0 71 49t54.5 113t19.5 113
q0 70 -49 70q-35 0 -68.5 -50t-52.5 -114t-19 -112q0 -69 44 -69z" />
    <glyph glyph-name="ydieresis" unicode="&#xff;" horiz-adv-x="626" 
d="M332 569q-39 0 -64.5 24.5t-25.5 63.5t26 64.5t64 25.5q39 0 63.5 -24.5t24.5 -64.5t-24.5 -64.5t-63.5 -24.5zM557 569q-39 0 -64.5 24.5t-25.5 63.5t26 64.5t64 25.5q39 0 63.5 -24.5t24.5 -64.5t-24.5 -64.5t-63.5 -24.5zM519 519q46 0 75.5 -33t29.5 -94
q0 -73 -43 -173.5t-107 -191t-148 -154t-158 -63.5q-68 0 -115 33t-47 90q0 41 23.5 65.5t59.5 24.5q33 0 52.5 -20.5t19.5 -49.5q0 -24 -14.5 -43.5t-37.5 -28.5q33 -11 64 -11t66 16q18 213 11 332.5t-25.5 162.5t-50.5 43q-49 0 -91 -127h-71q32 111 82.5 166.5
t125.5 55.5q122 0 167.5 -126.5t11.5 -356.5q52 73 90.5 157t49.5 143q-16 -4 -26 -4q-37 0 -64 27.5t-27 67.5t27 66t70 26z" />
    <glyph glyph-name="Amacron" unicode="&#x100;" horiz-adv-x="771" 
d="M726 861l-30 -104h-329l30 104h329zM650 124q5 -30 40 -30h31l-27 -94h-362l27 94h69q14 0 22.5 8.5t7.5 21.5l-6 55h-252l-37 -54q-9 -13 -6 -22t18 -9h52l-27 -94h-268l27 94h38q33 0 57 34l389 552h126zM255 260h188l-26 235z" />
    <glyph glyph-name="amacron" unicode="&#x101;" horiz-adv-x="659" 
d="M242 690h329l-30 -104h-329zM152 -10q-66 0 -102.5 42t-36.5 123q0 58 19.5 121t53 117.5t85 90t110.5 35.5q114 0 116 -129h5l34 119h162l-113 -387q-10 -36 14 -36q9 0 18 7.5t26 37t41 82.5h72q-50 -121 -96.5 -172t-112.5 -51q-64 0 -87.5 38t-12.5 98l4 23h-6
q-78 -159 -193 -159zM229 84q35 0 68.5 50t52 113.5t18.5 111.5q0 71 -47 71q-35 0 -69 -48t-53.5 -109.5t-19.5 -107.5q0 -38 13 -59.5t37 -21.5z" />
    <glyph glyph-name="Abreve" unicode="&#x102;" horiz-adv-x="771" 
d="M526 742q-76 0 -108 42.5t-13 127.5h82q1 -33 15 -48.5t46 -15.5q62 0 103 64h91q-60 -170 -216 -170zM650 124q5 -30 40 -30h31l-27 -94h-362l27 94h69q14 0 22.5 8.5t7.5 21.5l-6 55h-252l-37 -54q-9 -13 -6 -22t18 -9h52l-27 -94h-268l27 94h38q33 0 57 34l389 552
h126zM255 260h188l-26 235z" />
    <glyph glyph-name="abreve" unicode="&#x103;" horiz-adv-x="659" 
d="M587 741q-60 -170 -216 -170q-76 0 -108 42.5t-13 127.5h82q1 -33 15 -48.5t46 -15.5q62 0 103 64h91zM152 -10q-66 0 -102.5 42t-36.5 123q0 58 19.5 121t53 117.5t85 90t110.5 35.5q114 0 116 -129h5l34 119h162l-113 -387q-10 -36 14 -36q9 0 18 7.5t26 37t41 82.5h72
q-50 -121 -96.5 -172t-112.5 -51q-64 0 -87.5 38t-12.5 98l4 23h-6q-78 -159 -193 -159zM229 84q35 0 68.5 50t52 113.5t18.5 111.5q0 71 -47 71q-35 0 -69 -48t-53.5 -109.5t-19.5 -107.5q0 -38 13 -59.5t37 -21.5z" />
    <glyph glyph-name="Aogonek" unicode="&#x104;" horiz-adv-x="771" 
d="M694 0h-110q-40 -42 -53.5 -61.5t-13.5 -38.5q0 -31 37 -31q19 0 46 9l-24 -88q-39 -16 -79 -16q-44 0 -69.5 20t-25.5 57q0 35 21 66t92 83h-183l27 94h69q14 0 22.5 8.5t7.5 21.5l-6 55h-252l-37 -54q-9 -13 -6 -22t18 -9h52l-27 -94h-268l27 94h38q33 0 57 34l389 552
h126l81 -556q5 -30 40 -30h31zM255 260h188l-26 235z" />
    <glyph glyph-name="aogonek" unicode="&#x105;" horiz-adv-x="659" 
d="M555 36q-68 -69 -86 -91.5t-18 -44.5q0 -31 37 -31q19 0 46 9l-25 -88q-37 -16 -78 -16q-44 0 -69.5 20t-25.5 57q0 34 19 62.5t83 76.5q-58 3 -80 40.5t-11 95.5l4 23h-6q-78 -159 -193 -159q-66 0 -102.5 42t-36.5 123q0 58 19.5 121t53 117.5t85 90t110.5 35.5
q114 0 116 -129h5l34 119h162l-113 -387q-10 -36 14 -36q9 0 18 7.5t26 37t41 82.5h72q-51 -125 -101 -177zM229 84q35 0 68.5 50t52 113.5t18.5 111.5q0 71 -47 71q-35 0 -69 -48t-53.5 -109.5t-19.5 -107.5q0 -38 13 -59.5t37 -21.5z" />
    <glyph glyph-name="Cacute" unicode="&#x106;" horiz-adv-x="711" 
d="M671 815q-7 -6 -16 -12t-17 -9.5t-23.5 -9.5t-25.5 -9t-34.5 -11t-39.5 -13h-56q46 90 67 125t42 52q27 23 57 22t52 -26q24 -28 21.5 -57.5t-27.5 -51.5zM523 466q0 32 19 56.5t50 35.5q-31 45 -100 45q-60 0 -109 -35.5t-78 -89.5t-44 -112.5t-15 -110.5
q0 -78 34.5 -123t99.5 -45q63 0 110 41t94 121h91q-68 -140 -150 -199.5t-184 -59.5q-125 0 -204.5 74.5t-79.5 204.5q0 165 121 293t287 128q109 0 187.5 -56t78.5 -144q0 -53 -30 -83.5t-77 -30.5q-44 0 -72.5 25.5t-28.5 64.5z" />
    <glyph glyph-name="cacute" unicode="&#x107;" horiz-adv-x="532" 
d="M300 580q46 90 67 125t42 52q27 23 57 22t52 -26q24 -28 21.5 -57.5t-27.5 -51.5q-7 -6 -16 -12t-17 -9.5t-23.5 -9.5t-25.5 -9t-34.5 -11t-39.5 -13h-56zM356 331q0 30 21 52.5t51 28.5q-22 21 -58 21q-76 0 -124.5 -78.5t-48.5 -167.5q0 -57 22 -83t58 -26
q76 0 135 117h75q-93 -205 -252 -205q-86 0 -148.5 55.5t-62.5 157.5q0 123 88 219t213 96q87 0 140.5 -47t53.5 -115q0 -45 -24 -72t-61 -27q-33 0 -55.5 21t-22.5 53z" />
    <glyph glyph-name="Cdotaccent" unicode="&#x10a;" horiz-adv-x="711" 
d="M532 736q-42 0 -70 26.5t-28 68.5t28 69.5t70 27.5t68.5 -26.5t26.5 -69.5t-26.5 -69.5t-68.5 -26.5zM523 466q0 32 19 56.5t50 35.5q-31 45 -100 45q-60 0 -109 -35.5t-78 -89.5t-44 -112.5t-15 -110.5q0 -78 34.5 -123t99.5 -45q63 0 110 41t94 121h91
q-68 -140 -150 -199.5t-184 -59.5q-125 0 -204.5 74.5t-79.5 204.5q0 165 121 293t287 128q109 0 187.5 -56t78.5 -144q0 -53 -30 -83.5t-77 -30.5q-44 0 -72.5 25.5t-28.5 64.5z" />
    <glyph glyph-name="cdotaccent" unicode="&#x10b;" horiz-adv-x="532" 
d="M373 565q-42 0 -70 26.5t-28 68.5t28 69.5t70 27.5t68.5 -26.5t26.5 -69.5t-26.5 -69.5t-68.5 -26.5zM356 331q0 30 21 52.5t51 28.5q-22 21 -58 21q-76 0 -124.5 -78.5t-48.5 -167.5q0 -57 22 -83t58 -26q76 0 135 117h75q-93 -205 -252 -205q-86 0 -148.5 55.5
t-62.5 157.5q0 123 88 219t213 96q87 0 140.5 -47t53.5 -115q0 -45 -24 -72t-61 -27q-33 0 -55.5 21t-22.5 53z" />
    <glyph glyph-name="Ccaron" unicode="&#x10c;" horiz-adv-x="711" 
d="M535 752q-18 0 -32 27l-92 165h98l58 -65l93 64h98l-175 -164q-30 -27 -48 -27zM465 690q109 0 187.5 -56t78.5 -144q0 -53 -30 -83.5t-77 -30.5q-44 0 -72.5 25.5t-28.5 64.5q0 32 19 56.5t50 35.5q-31 45 -100 45q-60 0 -109 -35.5t-78 -89.5t-44 -112.5t-15 -110.5
q0 -78 34.5 -123t99.5 -45q63 0 110 41t94 121h91q-68 -140 -150 -199.5t-184 -59.5q-125 0 -204.5 74.5t-79.5 204.5q0 165 121 293t287 128z" />
    <glyph glyph-name="ccaron" unicode="&#x10d;" horiz-adv-x="532" 
d="M501 772h98l-175 -164q-30 -27 -48 -27t-32 27l-92 165h98l58 -65zM356 331q0 30 21 52.5t51 28.5q-22 21 -58 21q-76 0 -124.5 -78.5t-48.5 -167.5q0 -57 22 -83t58 -26q76 0 135 117h75q-93 -205 -252 -205q-86 0 -148.5 55.5t-62.5 157.5q0 123 88 219t213 96
q87 0 140.5 -47t53.5 -115q0 -45 -24 -72t-61 -27q-33 0 -55.5 21t-22.5 53z" />
    <glyph glyph-name="Dcaron" unicode="&#x10e;" horiz-adv-x="773" 
d="M601 943h98l-175 -164q-30 -27 -48 -27t-32 27l-92 165h98l58 -65zM457 680q141 0 226.5 -72.5t85.5 -198.5q0 -171 -138.5 -290t-344.5 -119h-331l26 94h58q31 0 39 26l124 432q9 34 -22 34h-58l27 94h308zM315 94q112 0 190 99t78 224q0 82 -40.5 125.5t-110.5 43.5
h-39l-142 -492h64z" />
    <glyph glyph-name="dcaron" unicode="&#x10f;" horiz-adv-x="659" 
d="M749 690q36 0 62 -22t26 -67q0 -61 -49 -112t-127 -79l-22 46q34 16 51 31t26 36q-55 22 -55 80q0 37 25 62t63 25zM499 86q9 0 18 7.5t26 37t41 82.5h72q-50 -121 -96.5 -172t-112.5 -51q-64 0 -87.5 38t-12.5 98l4 23h-6q-78 -159 -193 -159q-66 0 -102.5 42t-36.5 123
q0 58 19.5 121t53 117.5t85 90t110.5 35.5q114 0 116 -129h5l45 165q9 31 -22 31h-42l27 94h236l-161 -558q-10 -36 14 -36zM229 84q35 0 68.5 50.5t52 113.5t18.5 109q0 72 -46 72q-35 0 -69 -47t-54 -108.5t-20 -109.5q0 -37 13 -58.5t37 -21.5z" />
    <glyph glyph-name="Dcroat" unicode="&#x110;" horiz-adv-x="773" 
d="M457 680q141 0 226.5 -72.5t85.5 -198.5q0 -171 -138.5 -290t-344.5 -119h-331l26 94h58q31 0 39 26l46 161h-90l29 102h90l49 169q9 34 -22 34h-58l27 94h308zM315 94q112 0 190 99t78 224q0 82 -40.5 125.5t-110.5 43.5h-39l-59 -203h106l-30 -102h-105l-54 -187h64z
" />
    <glyph glyph-name="dcroat" unicode="&#x111;" horiz-adv-x="659" 
d="M611 560l-126 -438q-10 -36 14 -36q9 0 18 7.5t26 37t41 82.5h72q-50 -121 -96.5 -172t-112.5 -51q-64 0 -87.5 38t-12.5 98l4 23h-6q-78 -159 -193 -159q-66 0 -102.5 42t-36.5 123q0 58 19.5 121t53 117.5t85 90t110.5 35.5q114 0 116 -129h5l47 170h-146l19 67h146
l15 53h163l-15 -53h58l-19 -67h-59zM229 84q35 0 68.5 50.5t52 113.5t18.5 109q0 72 -46 72q-35 0 -69 -47t-54 -108.5t-20 -109.5q0 -37 13 -58.5t37 -21.5z" />
    <glyph glyph-name="Emacron" unicode="&#x112;" horiz-adv-x="679" 
d="M344 861h329l-30 -104h-329zM532 221h102l-64 -221h-617l28 94h57q31 0 40 31l123 430q9 31 -22 31h-58l28 94h609l-64 -221h-103q13 69 8 89q-11 37 -69 38h-138l-69 -239h48q9 0 16.5 2.5t14 9l11 11t10.5 16t8.5 17t8.5 20t8 19.5h76l-82 -283h-75q9 35 6.5 65
t-29.5 30h-48l-46 -160h138q32 0 55.5 9.5t40.5 31t25.5 37.5t22.5 49z" />
    <glyph glyph-name="emacron" unicode="&#x113;" horiz-adv-x="531" 
d="M223 690h329l-30 -104h-329zM266 74q95 0 151 139h76q-81 -223 -267 -223q-99 0 -152 56t-53 143q0 55 21 111.5t59 106t100 80.5t135 31q81 0 129.5 -35t48.5 -92q0 -43 -30.5 -78.5t-80.5 -57t-102.5 -34.5t-107.5 -18q-2 -28 -2 -37q0 -44 20 -68t55 -24zM329 445
q-31 0 -58.5 -31.5t-43 -72.5t-26.5 -90q74 20 123 56.5t49 86.5q0 51 -44 51z" />
    <glyph glyph-name="Edotaccent" unicode="&#x116;" horiz-adv-x="679" 
d="M503 736q-42 0 -70 26.5t-28 68.5t28 69.5t70 27.5t68.5 -26.5t26.5 -69.5t-26.5 -69.5t-68.5 -26.5zM532 221h102l-64 -221h-617l28 94h57q31 0 40 31l123 430q9 31 -22 31h-58l28 94h609l-64 -221h-103q13 69 8 89q-11 37 -69 38h-138l-69 -239h48q9 0 16.5 2.5t14 9
l11 11t10.5 16t8.5 17t8.5 20t8 19.5h76l-82 -283h-75q9 35 6.5 65t-29.5 30h-48l-46 -160h138q32 0 55.5 9.5t40.5 31t25.5 37.5t22.5 49z" />
    <glyph glyph-name="edotaccent" unicode="&#x117;" horiz-adv-x="531" 
d="M382 565q-42 0 -70 26.5t-28 68.5t28 69.5t70 27.5t68.5 -26.5t26.5 -69.5t-26.5 -69.5t-68.5 -26.5zM266 74q95 0 151 139h76q-81 -223 -267 -223q-99 0 -152 56t-53 143q0 55 21 111.5t59 106t100 80.5t135 31q81 0 129.5 -35t48.5 -92q0 -43 -30.5 -78.5t-80.5 -57
t-102.5 -34.5t-107.5 -18q-2 -28 -2 -37q0 -44 20 -68t55 -24zM329 445q-31 0 -58.5 -31.5t-43 -72.5t-26.5 -90q74 20 123 56.5t49 86.5q0 51 -44 51z" />
    <glyph glyph-name="Eogonek" unicode="&#x118;" horiz-adv-x="679" 
d="M694 459h-103q13 69 8 89q-11 37 -69 38h-138l-69 -239h48q9 0 16.5 2.5t14 9l11 11t10.5 16t8.5 17t8.5 20t8 19.5h76l-82 -283h-75q9 35 6.5 65t-29.5 30h-48l-46 -160h138q32 0 55.5 9.5t40.5 31t25.5 37.5t22.5 49h102l-64 -221h-49q-40 -42 -53.5 -61.5t-13.5 -38.5
q0 -31 37 -31q19 0 46 9l-24 -88q-39 -16 -79 -16q-44 0 -69.5 20t-25.5 57q0 35 21 66t92 83h-499l28 94h57q31 0 40 31l123 430q9 31 -22 31h-58l28 94h609z" />
    <glyph glyph-name="eogonek" unicode="&#x119;" horiz-adv-x="531" 
d="M266 74q95 0 151 139h76q-38 -105 -99 -161q-92 -93 -105 -112q-14 -20 -14 -40q0 -31 37 -31q19 0 46 9l-24 -88q-39 -16 -79 -16q-44 0 -69.5 20t-25.5 57q0 34 19 63.5t84 77.5q-24 -2 -37 -2q-99 0 -152 56t-53 143q0 55 21 111.5t59 106t100 80.5t135 31
q81 0 129.5 -35t48.5 -92q0 -43 -30.5 -78.5t-80.5 -57t-102.5 -34.5t-107.5 -18q-2 -28 -2 -37q0 -44 20 -68t55 -24zM329 445q-31 0 -58.5 -31.5t-43 -72.5t-26.5 -90q74 20 123 56.5t49 86.5q0 51 -44 51z" />
    <glyph glyph-name="Ecaron" unicode="&#x11a;" horiz-adv-x="679" 
d="M631 943h98l-175 -164q-30 -27 -48 -27t-32 27l-92 165h98l58 -65zM532 221h102l-64 -221h-617l28 94h57q31 0 40 31l123 430q9 31 -22 31h-58l28 94h609l-64 -221h-103q13 69 8 89q-11 37 -69 38h-138l-69 -239h48q9 0 16.5 2.5t14 9l11 11t10.5 16t8.5 17t8.5 20
t8 19.5h76l-82 -283h-75q9 35 6.5 65t-29.5 30h-48l-46 -160h138q32 0 55.5 9.5t40.5 31t25.5 37.5t22.5 49z" />
    <glyph glyph-name="ecaron" unicode="&#x11b;" horiz-adv-x="531" 
d="M510 772h98l-175 -164q-30 -27 -48 -27t-32 27l-92 165h98l58 -65zM266 74q95 0 151 139h76q-81 -223 -267 -223q-99 0 -152 56t-53 143q0 55 21 111.5t59 106t100 80.5t135 31q81 0 129.5 -35t48.5 -92q0 -43 -30.5 -78.5t-80.5 -57t-102.5 -34.5t-107.5 -18
q-2 -28 -2 -37q0 -44 20 -68t55 -24zM329 445q-31 0 -58.5 -31.5t-43 -72.5t-26.5 -90q74 20 123 56.5t49 86.5q0 51 -44 51z" />
    <glyph glyph-name="Gbreve" unicode="&#x11e;" horiz-adv-x="783" 
d="M507 742q-76 0 -108 42.5t-13 127.5h82q1 -33 15 -48.5t46 -15.5q62 0 103 64h91q-60 -170 -216 -170zM395 325h388l-26 -94h-48q-31 0 -40 -31l-58 -200h-40l-61 59q-75 -69 -178 -69q-123 0 -198.5 76t-75.5 205q0 107 51 202.5t146 156t211 60.5q111 0 187 -52
t76 -140q0 -51 -27 -82t-72 -31q-42 0 -70 25.5t-28 64.5q0 31 18.5 53t51.5 30q-33 45 -106 45q-57 0 -106 -35.5t-79.5 -90t-47.5 -115.5t-17 -115q0 -71 32 -115.5t97 -44.5q51 0 99 37l22 76q9 31 -23 31h-103z" />
    <glyph glyph-name="gbreve" unicode="&#x11f;" horiz-adv-x="578" 
d="M613 741q-60 -170 -216 -170q-76 0 -108 42.5t-13 127.5h82q1 -33 15 -48.5t46 -15.5q62 0 103 64h91zM437 509h162l-141 -482q-30 -102 -112.5 -159.5t-196.5 -57.5q-94 0 -141.5 37t-47.5 89q0 38 24.5 63t60.5 25q30 0 50.5 -20t20.5 -51q0 -48 -50 -69q32 -7 62 -7
q130 0 181 150l47 139h-5q-67 -131 -173 -131q-70 0 -111.5 44t-41.5 119q0 78 29 150t88 121t133 49q55 0 88.5 -34.5t33.5 -95.5h5zM244 130q51 0 88 77t37 150q0 36 -16 53.5t-40 17.5q-35 0 -63.5 -36.5t-43 -86t-14.5 -95.5q0 -80 52 -80z" />
    <glyph glyph-name="Gdotaccent" unicode="&#x120;" horiz-adv-x="783" 
d="M537 736q-42 0 -70 26.5t-28 68.5t28 69.5t70 27.5t68.5 -26.5t26.5 -69.5t-26.5 -69.5t-68.5 -26.5zM395 325h388l-26 -94h-48q-31 0 -40 -31l-58 -200h-40l-61 59q-75 -69 -178 -69q-123 0 -198.5 76t-75.5 205q0 107 51 202.5t146 156t211 60.5q111 0 187 -52t76 -140
q0 -51 -27 -82t-72 -31q-42 0 -70 25.5t-28 64.5q0 31 18.5 53t51.5 30q-33 45 -106 45q-57 0 -106 -35.5t-79.5 -90t-47.5 -115.5t-17 -115q0 -71 32 -115.5t97 -44.5q51 0 99 37l22 76q9 31 -23 31h-103z" />
    <glyph glyph-name="gdotaccent" unicode="&#x121;" horiz-adv-x="578" 
d="M402 565q-42 0 -70 26.5t-28 68.5t28 69.5t70 27.5t68.5 -26.5t26.5 -69.5t-26.5 -69.5t-68.5 -26.5zM437 509h162l-141 -482q-30 -102 -112.5 -159.5t-196.5 -57.5q-94 0 -141.5 37t-47.5 89q0 38 24.5 63t60.5 25q30 0 50.5 -20t20.5 -51q0 -48 -50 -69q32 -7 62 -7
q130 0 181 150l47 139h-5q-67 -131 -173 -131q-70 0 -111.5 44t-41.5 119q0 78 29 150t88 121t133 49q55 0 88.5 -34.5t33.5 -95.5h5zM244 130q51 0 88 77t37 150q0 36 -16 53.5t-40 17.5q-35 0 -63.5 -36.5t-43 -86t-14.5 -95.5q0 -80 52 -80z" />
    <glyph glyph-name="Gcommaaccent" unicode="&#x122;" horiz-adv-x="783" 
d="M395 325h388l-26 -94h-48q-31 0 -40 -31l-58 -200h-40l-61 59q-75 -69 -178 -69q-123 0 -198.5 76t-75.5 205q0 107 51 202.5t146 156t211 60.5q111 0 187 -52t76 -140q0 -51 -27 -82t-72 -31q-42 0 -70 25.5t-28 64.5q0 31 18.5 53t51.5 30q-33 45 -106 45
q-57 0 -106 -35.5t-79.5 -90t-47.5 -115.5t-17 -115q0 -71 32 -115.5t97 -44.5q51 0 99 37l22 76q9 31 -23 31h-103zM320 -40q35 0 57 -22t22 -55q0 -67 -57.5 -110t-145.5 -58l-9 37q89 25 104 64q-26 6 -41 23.5t-15 42.5q0 33 24 55.5t61 22.5z" />
    <glyph glyph-name="gcommaaccent" unicode="&#x123;" horiz-adv-x="578" 
d="M358 549q-35 0 -57 22t-22 55q0 67 57.5 110t145.5 58l9 -37q-89 -25 -104 -64q26 -6 41 -23.5t15 -42.5q0 -33 -24 -55.5t-61 -22.5zM437 509h162l-141 -482q-30 -102 -112.5 -159.5t-196.5 -57.5q-94 0 -141.5 37t-47.5 89q0 38 24.5 63t60.5 25q30 0 50.5 -20
t20.5 -51q0 -48 -50 -69q32 -7 62 -7q130 0 181 150l47 139h-5q-67 -131 -173 -131q-70 0 -111.5 44t-41.5 119q0 78 29 150t88 121t133 49q55 0 88.5 -34.5t33.5 -95.5h5zM244 130q51 0 88 77t37 150q0 36 -16 53.5t-40 17.5q-35 0 -63.5 -36.5t-43 -86t-14.5 -95.5
q0 -80 52 -80z" />
    <glyph glyph-name="Hbar" unicode="&#x126;" horiz-adv-x="836" 
d="M846 586q-31 0 -40 -31l-17 -58h89l-19 -67h-89l-87 -305q-9 -31 22 -31h57l-27 -94h-352l27 94h52q30 0 39 31l36 126h-240l-36 -126q-9 -31 22 -31h51l-27 -94h-352l27 94h58q31 0 40 31l87 305h-87l19 67h87l17 58q9 31 -23 31h-57l27 94h352l-26 -94h-52
q-31 0 -39 -31l-17 -58h239l17 58q9 31 -22 31h-50l26 94h352l-27 -94h-57zM564 345l24 85h-239l-25 -85h240z" />
    <glyph glyph-name="hbar" unicode="&#x127;" horiz-adv-x="665" 
d="M590 213h72q-50 -117 -100.5 -170.5t-117.5 -53.5q-69 0 -97 48t-3 122l54 159q16 50 8 73.5t-36 23.5q-14 0 -26.5 -6t-33 -30.5t-41.5 -67t-50 -122.5t-60 -189h-163l156 560h-64l19 67h64l15 53h169l-19 -53h139l-19 -67h-143l-47 -132l-49 -133h5q79 224 223 224
q79 0 112 -60.5t0 -153.5l-63 -184q-5 -20 -0.5 -27.5t14.5 -7.5q9 0 17 7.5t24.5 36.5t40.5 83z" />
    <glyph glyph-name="Imacron" unicode="&#x12a;" horiz-adv-x="422" 
d="M222 861h329l-30 -104h-329zM428 586q-31 0 -39 -31l-124 -430q-9 -31 22 -31h62l-27 -94h-367l27 94h62q31 0 40 31l122 430q9 31 -22 31h-61l27 94h367l-28 -94h-61z" />
    <glyph glyph-name="imacron" unicode="&#x12b;" horiz-adv-x="406" 
d="M147 690h329l-30 -104h-329zM331 213h71q-44 -118 -94.5 -170.5t-117.5 -52.5q-68 0 -98.5 45t-6.5 112l90 247q5 15 -0.5 22.5t-15.5 7.5t-19 -8.5t-26 -38t-39 -83.5h-71q48 123 99 174t119 51q70 0 99 -46t3 -114l-87 -237q-14 -35 13 -35q32 0 81 126z" />
    <glyph glyph-name="Iogonek" unicode="&#x12e;" horiz-adv-x="422" 
d="M150 680h367l-28 -94h-61q-31 0 -39 -31l-124 -430q-9 -31 22 -31h62l-27 -94h-160q-41 -43 -54 -62t-13 -38q0 -31 37 -31q19 0 46 9l-24 -88q-39 -16 -79 -16q-44 0 -69.5 20t-25.5 57q0 35 21 65.5t92 83.5h-138l27 94h62q31 0 40 31l122 430q9 31 -22 31h-61z" />
    <glyph glyph-name="iogonek" unicode="&#x12f;" horiz-adv-x="406" 
d="M326 565q-42 0 -70 26.5t-28 68.5t28 69.5t70 27.5t68.5 -26.5t26.5 -69.5t-26.5 -69.5t-68.5 -26.5zM250 87q32 0 81 126h71q-51 -135 -110 -186q-62 -62 -79 -83.5t-17 -43.5q0 -31 37 -31q19 0 46 9l-25 -88q-37 -16 -78 -16q-44 0 -69.5 20t-25.5 57q0 34 19 62.5
t83 76.5q-64 2 -92.5 46.5t-5.5 110.5l90 249q5 14 -1 21t-15 7q-10 0 -19 -8.5t-26 -38t-39 -83.5h-71q48 123 99 174t119 51q70 0 99 -46t3 -114l-87 -237q-14 -35 13 -35z" />
    <glyph glyph-name="Idotaccent" unicode="&#x130;" horiz-adv-x="422" 
d="M381 736q-42 0 -70 26.5t-28 68.5t28 69.5t70 27.5t68.5 -26.5t26.5 -69.5t-26.5 -69.5t-68.5 -26.5zM428 586q-31 0 -39 -31l-124 -430q-9 -31 22 -31h62l-27 -94h-367l27 94h62q31 0 40 31l122 430q9 31 -22 31h-61l27 94h367l-28 -94h-61z" />
    <glyph glyph-name="dotlessi" unicode="&#x131;" horiz-adv-x="406" 
d="M331 213h71q-44 -118 -94.5 -170.5t-117.5 -52.5q-68 0 -98.5 45t-6.5 112l90 247q5 15 -0.5 22.5t-15.5 7.5t-19 -8.5t-26 -38t-39 -83.5h-71q48 123 99 174t119 51q70 0 99 -46t3 -114l-87 -237q-14 -35 13 -35q32 0 81 126z" />
    <glyph glyph-name="Kcommaaccent" unicode="&#x136;" horiz-adv-x="798" 
d="M312 94l-27 -94h-332l28 94h57q31 0 40 31l123 430q9 31 -22 31h-58l28 94h351l-27 -94h-51q-31 0 -39 -31l-124 -430q-9 -31 22 -31h31zM576 680h324l-27 -94h-34q-51 0 -89 -31l-223 -183l114 -239q18 -39 67 -39h41l-27 -94h-379l27 94h41q30 0 18 30l-89 208l279 225
q28 24 8 28q-3 1 -7 1h-71zM349 -40q35 0 57 -22t22 -55q0 -67 -57.5 -110t-145.5 -58l-9 37q89 25 104 64q-26 6 -41 23.5t-15 42.5q0 33 24 55.5t61 22.5z" />
    <glyph glyph-name="kcommaaccent" unicode="&#x137;" horiz-adv-x="646" 
d="M122 680h231l-194 -680h-163l158 555q9 31 -22 31h-37zM484 86q8 0 16 7t24 36.5t38 83.5h72q-49 -123 -92.5 -173t-113.5 -50q-119 0 -119 114q0 12 0.5 37.5t0.5 37t-2.5 31t-8 30t-16.5 21t-28 16.5l-1 14q38 26 78.5 70t66.5 76t66.5 57t86.5 25q47 0 74 -23.5
t27 -62.5q0 -38 -23.5 -63.5t-59.5 -25.5q-33 0 -56 21t-23 49q0 8 1 12q-18 -14 -46 -43.5t-55 -53.5t-52 -35q35 -2 59.5 -11.5t37 -22t19 -34t7.5 -37t1 -40.5v-12q0 -51 21 -51zM255 -40q35 0 57 -22t22 -55q0 -67 -57.5 -110t-145.5 -58l-9 37q89 25 104 64
q-26 6 -41 23.5t-15 42.5q0 33 24 55.5t61 22.5z" />
    <glyph glyph-name="Lacute" unicode="&#x139;" horiz-adv-x="656" 
d="M304 751q46 90 67 125t42 52q27 23 57 22t52 -26q24 -28 21.5 -57.5t-27.5 -51.5q-7 -6 -16 -12t-17 -9.5t-23.5 -9.5t-25.5 -9t-34.5 -11t-39.5 -13h-56zM539 302h94l-87 -302h-593l28 94h57q31 0 40 31l123 430q9 31 -22 31h-57l27 94h395l-28 -94h-94q-31 0 -40 -31
l-133 -461h106q63 0 106 54t78 154z" />
    <glyph glyph-name="lacute" unicode="&#x13a;" horiz-adv-x="370" 
d="M250 751q46 90 67 125t42 52q27 23 57 22t52 -26q24 -28 21.5 -57.5t-27.5 -51.5q-7 -6 -16 -12t-17 -9.5t-23.5 -9.5t-25.5 -9t-34.5 -11t-39.5 -13h-56zM212 87q31 0 83 126h71q-47 -120 -96.5 -171.5t-121.5 -51.5q-67 0 -96 44t-9 113l116 408q9 31 -22 31h-43l28 94
h236l-162 -565q-9 -28 16 -28z" />
    <glyph glyph-name="Lcommaaccent" unicode="&#x13b;" horiz-adv-x="656" 
d="M539 302h94l-87 -302h-593l28 94h57q31 0 40 31l123 430q9 31 -22 31h-57l27 94h395l-28 -94h-94q-31 0 -40 -31l-133 -461h106q63 0 106 54t78 154zM277 -40q35 0 57 -22t22 -55q0 -67 -57.5 -110t-145.5 -58l-9 37q89 25 104 64q-26 6 -41 23.5t-15 42.5q0 33 24 55.5
t61 22.5z" />
    <glyph glyph-name="lcommaaccent" unicode="&#x13c;" horiz-adv-x="370" 
d="M212 87q31 0 83 126h71q-47 -120 -96.5 -171.5t-121.5 -51.5q-67 0 -96 44t-9 113l116 408q9 31 -22 31h-43l28 94h236l-162 -565q-9 -28 16 -28zM94 -40q35 0 57 -22t22 -55q0 -67 -57.5 -110t-145.5 -58l-9 37q89 25 104 64q-26 6 -41 23.5t-15 42.5q0 33 24 55.5
t61 22.5z" />
    <glyph glyph-name="Lcaron" unicode="&#x13d;" horiz-adv-x="705" 
d="M662 689q36 0 62 -22t26 -67q0 -61 -49 -112t-127 -79l-22 46q34 16 51 31t26 36q-55 22 -55 80q0 37 25 62t63 25zM355 94q63 0 106 54t78 154h94l-87 -302h-593l28 94h57q31 0 40 31l123 430q9 31 -22 31h-57l27 94h395l-28 -94h-94q-31 0 -40 -31l-133 -461h106z" />
    <glyph glyph-name="lcaron" unicode="&#x13e;" horiz-adv-x="370" 
d="M475 690q36 0 62 -22t26 -67q0 -61 -49 -112t-127 -79l-22 46q34 16 51 31t26 36q-55 22 -55 80q0 37 25 62t63 25zM212 87q31 0 83 126h71q-47 -120 -96.5 -171.5t-121.5 -51.5q-67 0 -96 44t-9 113l116 408q9 31 -22 31h-43l28 94h236l-162 -565q-9 -28 16 -28z" />
    <glyph glyph-name="Lslash" unicode="&#x141;" horiz-adv-x="656" 
d="M539 302h94l-87 -302h-593l28 94h57q31 0 40 31l23 79l-93 -39l24 80l91 39l78 271q9 31 -22 31h-57l27 94h395l-28 -94h-94q-31 0 -40 -31l-53 -184l162 69l-24 -80l-161 -68l-57 -198h106q63 0 106 54t78 154z" />
    <glyph glyph-name="lslash" unicode="&#x142;" horiz-adv-x="370" 
d="M212 87q31 0 83 126h71q-47 -120 -96.5 -171.5t-121.5 -51.5q-67 0 -96 44t-9 113l16 55l-77 -36l22 79l77 36l78 274q9 31 -22 31h-43l28 94h236l-90 -312l100 46l-22 -79l-100 -47l-50 -173q-9 -28 16 -28z" />
    <glyph glyph-name="Nacute" unicode="&#x143;" horiz-adv-x="780" 
d="M467 751q46 90 67 125t42 52q27 23 57 22t52 -26q24 -28 21.5 -57.5t-27.5 -51.5q-7 -6 -16 -12t-17 -9.5t-23.5 -9.5t-25.5 -9t-34.5 -11t-39.5 -13h-56zM886 680l-27 -94h-57q-31 0 -40 -31l-159 -555h-76l-256 438l-90 -313q-9 -31 22 -31h75l-27 -94h-298l28 94h57
q31 0 40 31l123 430q9 31 -22 31h-58l28 94h220l218 -372l71 247q9 31 -22 31h-70l27 94h293z" />
    <glyph glyph-name="nacute" unicode="&#x144;" horiz-adv-x="717" 
d="M376 580q46 90 67 125t42 52q27 23 57 22t52 -26q24 -28 21.5 -57.5t-27.5 -51.5q-7 -6 -16 -12t-17 -9.5t-23.5 -9.5t-25.5 -9t-34.5 -11t-39.5 -13h-56zM642 213h72q-49 -116 -100 -169.5t-118 -53.5q-70 0 -98 48t-3 121l55 159q16 50 8.5 73.5t-36.5 23.5
q-14 0 -26.5 -6t-33 -30.5t-41.5 -67t-50 -122.5t-60 -189h-163l114 386q11 38 -13 38q-9 0 -17 -7.5t-23 -37.5t-35 -85h-72q44 121 90.5 173t110.5 52q52 0 82.5 -32.5t5.5 -117.5l-22 -74h5q77 224 223 224q79 0 112 -60.5t0 -153.5l-63 -183q-5 -20 -0.5 -27.5
t14.5 -7.5q9 0 17 7.5t24.5 36.5t40.5 82z" />
    <glyph glyph-name="Ncommaaccent" unicode="&#x145;" horiz-adv-x="780" 
d="M593 680h293l-27 -94h-57q-31 0 -40 -31l-159 -555h-76l-256 438l-90 -313q-9 -31 22 -31h75l-27 -94h-298l28 94h57q31 0 40 31l123 430q9 31 -22 31h-58l28 94h220l218 -372l71 247q9 31 -22 31h-70zM342 -40q35 0 57 -22t22 -55q0 -67 -57.5 -110t-145.5 -58l-9 37
q89 25 104 64q-26 6 -41 23.5t-15 42.5q0 33 24 55.5t61 22.5z" />
    <glyph glyph-name="ncommaaccent" unicode="&#x146;" horiz-adv-x="717" 
d="M642 213h72q-49 -116 -100 -169.5t-118 -53.5q-70 0 -98 48t-3 121l55 159q16 50 8.5 73.5t-36.5 23.5q-14 0 -26.5 -6t-33 -30.5t-41.5 -67t-50 -122.5t-60 -189h-163l114 386q11 38 -13 38q-9 0 -17 -7.5t-23 -37.5t-35 -85h-72q44 121 90.5 173t110.5 52
q52 0 82.5 -32.5t5.5 -117.5l-22 -74h5q77 224 223 224q79 0 112 -60.5t0 -153.5l-63 -183q-5 -20 -0.5 -27.5t14.5 -7.5q9 0 17 7.5t24.5 36.5t40.5 82zM300 -40q35 0 57 -22t22 -55q0 -67 -57.5 -110t-145.5 -58l-9 37q89 25 104 64q-26 6 -41 23.5t-15 42.5q0 33 24 55.5
t61 22.5z" />
    <glyph glyph-name="Ncaron" unicode="&#x147;" horiz-adv-x="780" 
d="M668 943h98l-175 -164q-30 -27 -48 -27t-32 27l-92 165h98l58 -65zM886 680l-27 -94h-57q-31 0 -40 -31l-159 -555h-76l-256 438l-90 -313q-9 -31 22 -31h75l-27 -94h-298l28 94h57q31 0 40 31l123 430q9 31 -22 31h-58l28 94h220l218 -372l71 247q9 31 -22 31h-70l27 94
h293z" />
    <glyph glyph-name="ncaron" unicode="&#x148;" horiz-adv-x="717" 
d="M577 772h98l-175 -164q-30 -27 -48 -27t-32 27l-92 165h98l58 -65zM642 213h72q-49 -116 -100 -169.5t-118 -53.5q-70 0 -98 48t-3 121l55 159q16 50 8.5 73.5t-36.5 23.5q-14 0 -26.5 -6t-33 -30.5t-41.5 -67t-50 -122.5t-60 -189h-163l114 386q11 38 -13 38
q-9 0 -17 -7.5t-23 -37.5t-35 -85h-72q44 121 90.5 173t110.5 52q52 0 82.5 -32.5t5.5 -117.5l-22 -74h5q77 224 223 224q79 0 112 -60.5t0 -153.5l-63 -183q-5 -20 -0.5 -27.5t14.5 -7.5q9 0 17 7.5t24.5 36.5t40.5 82z" />
    <glyph glyph-name="Eng" unicode="&#x14a;" horiz-adv-x="780" 
d="M593 680h293l-27 -94h-57q-31 0 -40 -31l-159 -555l-4 -13q-52 -177 -259 -177q-62 0 -95 27.5t-33 73.5q0 31 19.5 51t48.5 20q26 0 44 -16.5t18 -41.5q0 -23 -15 -39.5t-39 -21.5h10q48 0 82.5 25t56.5 99l33 110l-199 341l-90 -313q-9 -31 22 -31h75l-27 -94h-298
l28 94h57q31 0 40 31l123 430q9 31 -22 31h-58l28 94h220l218 -372l71 247q9 31 -22 31h-70z" />
    <glyph glyph-name="eng" unicode="&#x14b;" horiz-adv-x="646" 
d="M497 519q78 0 109 -59.5t3 -154.5l-87 -293q-21 -70 -68 -117.5t-97 -66t-100 -18.5q-54 0 -90 28t-36 71q0 29 18.5 48.5t46.5 19.5q26 0 43 -16t17 -40q0 -22 -14.5 -37.5t-37.5 -19.5q4 -1 11 -1q45 0 84 35.5t62 113.5l89 306q29 97 -28 97q-14 0 -26.5 -6t-33 -30.5
t-41.5 -67t-50 -122.5t-60 -189h-163l114 386q11 38 -13 38q-9 0 -17 -7.5t-23 -37.5t-35 -85h-72q44 121 90.5 173t110.5 52q52 0 82.5 -32.5t5.5 -117.5l-22 -74h5q77 224 223 224z" />
    <glyph glyph-name="Omacron" unicode="&#x14c;" horiz-adv-x="733" 
d="M380 861h329l-30 -104h-329zM336 -10q-130 0 -205 75.5t-74 204.5q1 74 28 147t74.5 134.5t123.5 100t166 38.5q130 0 205.5 -75.5t73.5 -203.5q-1 -75 -28 -149t-75.5 -135t-124 -99t-164.5 -38zM335 77q51 0 94.5 45.5t69 110.5t39.5 129t14 110q-1 60 -29 95.5
t-77 35.5q-53 0 -97 -44.5t-69 -108.5t-38.5 -126t-13.5 -107q1 -65 29.5 -102.5t77.5 -37.5z" />
    <glyph glyph-name="omacron" unicode="&#x14d;" horiz-adv-x="565" 
d="M252 690h329l-30 -104h-329zM238 -10q-94 0 -154 54.5t-60 155.5q0 123 84.5 221t217.5 98q95 0 155.5 -54t60.5 -153q0 -78 -36 -151t-107.5 -122t-160.5 -49zM230 61q36 0 67.5 39.5t50 94.5t29 103.5t11.5 76.5q1 35 -13.5 54t-40.5 19q-37 0 -69 -39t-50.5 -94
t-29 -102.5t-11.5 -75.5q-1 -37 15 -56.5t41 -19.5z" />
    <glyph glyph-name="Ohungarumlaut" unicode="&#x150;" horiz-adv-x="733" 
d="M325 751q46 90 67 125t42 52q27 23 57 22t52 -26q24 -28 21.5 -57.5t-27.5 -51.5q-7 -6 -16 -12t-17 -9.5t-23.5 -9.5t-25.5 -9t-34.5 -11t-39.5 -13h-56zM539 751q46 90 67 125t42 52q27 23 57 22t52 -26q24 -28 21.5 -57.5t-27.5 -51.5q-8 -8 -17.5 -13.5t-26 -12
t-27 -10.5t-40 -13.5t-45.5 -14.5h-56zM336 -10q-130 0 -205 75.5t-74 204.5q1 74 28 147t74.5 134.5t123.5 100t166 38.5q130 0 205.5 -75.5t73.5 -203.5q-1 -75 -28 -149t-75.5 -135t-124 -99t-164.5 -38zM335 77q51 0 94.5 45.5t69 110.5t39.5 129t14 110q-1 60 -29 95.5
t-77 35.5q-53 0 -97 -44.5t-69 -108.5t-38.5 -126t-13.5 -107q1 -65 29.5 -102.5t77.5 -37.5z" />
    <glyph glyph-name="ohungarumlaut" unicode="&#x151;" horiz-adv-x="565" 
d="M197 580q46 90 67 125t42 52q27 23 57 22t52 -26q24 -28 21.5 -57.5t-27.5 -51.5q-7 -6 -16 -12t-17 -9.5t-23.5 -9.5t-25.5 -9t-34.5 -11t-39.5 -13h-56zM411 580q46 90 67 125t42 52q27 23 57 22t52 -26q24 -28 21.5 -57.5t-27.5 -51.5q-8 -8 -17.5 -13.5t-26 -12
t-27 -10.5t-40 -13.5t-45.5 -14.5h-56zM238 -10q-94 0 -154 54.5t-60 155.5q0 123 84.5 221t217.5 98q95 0 155.5 -54t60.5 -153q0 -78 -36 -151t-107.5 -122t-160.5 -49zM230 61q36 0 67.5 39.5t50 94.5t29 103.5t11.5 76.5q1 35 -13.5 54t-40.5 19q-37 0 -69 -39
t-50.5 -94t-29 -102.5t-11.5 -75.5q-1 -37 15 -56.5t41 -19.5z" />
    <glyph glyph-name="OE" unicode="&#x152;" horiz-adv-x="1046" 
d="M368 0q-140 0 -225.5 72.5t-85.5 199.5q0 170 138.5 289t343.5 119h573l-63 -221h-103q1 3 3.5 19t3 20t2 17.5t0.5 17t-2 14t-4.5 14t-8.5 10t-13 9t-18.5 4.5t-23.5 2h-126l-69 -239h48q9 0 16.5 2.5t14 8.5t11.5 11.5t10 16t8 17t9 20t8 19.5h76l-81 -283h-76
q9 35 7 65t-30 30h-48l-46 -160h139q32 0 55.5 9.5t40 30.5t25.5 38t22 49h103l-63 -221h-571zM393 94h43l141 492h-67q-113 0 -190.5 -98.5t-77.5 -233.5q0 -160 151 -160z" />
    <glyph glyph-name="oe" unicode="&#x153;" horiz-adv-x="872" 
d="M607 74q95 0 151 139h76q-81 -223 -267 -223q-101 0 -155 59q-77 -59 -174 -59q-94 0 -154 54.5t-60 155.5q0 123 84.5 221t217.5 98q105 0 166 -64q80 63 185 63q81 0 129.5 -35t48.5 -92q0 -43 -30.5 -78.5t-80.5 -57t-102.5 -34.5t-107.5 -18q-2 -28 -2 -37
q0 -44 20 -68t55 -24zM230 61q36 0 67.5 39.5t50 94.5t29 103.5t11.5 76.5q1 35 -13.5 54t-40.5 19q-37 0 -69 -39t-50.5 -94t-29 -102.5t-11.5 -75.5q-1 -37 15 -56.5t41 -19.5zM670 445q-31 0 -58.5 -31.5t-43 -72.5t-26.5 -90q74 20 123 56.5t49 86.5q0 51 -44 51z" />
    <glyph glyph-name="Racute" unicode="&#x154;" horiz-adv-x="760" 
d="M600 815q-7 -6 -16 -12t-17 -9.5t-23.5 -9.5t-25.5 -9t-34.5 -11t-39.5 -13h-56q46 90 67 125t42 52q27 23 57 22t52 -26q24 -28 21.5 -57.5t-27.5 -51.5zM603 125q7 -16 17.5 -23.5t34.5 -7.5h61l-27 -94h-263l-28 187q-6 46 -27 62t-55 16h-18l-39 -140q-9 -31 22 -31
h50l-27 -94h-351l28 94h57q31 0 40 31l122 430q9 31 -21 31h-58l28 94h338q112 0 176.5 -47.5t64.5 -132.5q0 -86 -67 -147t-168 -79q67 -28 94 -103zM381 359q65 0 113.5 41.5t48.5 98.5q0 38 -23.5 62.5t-66.5 24.5h-62l-65 -227h55z" />
    <glyph glyph-name="racute" unicode="&#x155;" horiz-adv-x="545" 
d="M296 580q46 90 67 125t42 52q27 23 57 22t52 -26q24 -28 21.5 -57.5t-27.5 -51.5q-7 -6 -16 -12t-17 -9.5t-23.5 -9.5t-25.5 -9t-34.5 -11t-39.5 -13h-56zM481 519q48 0 71.5 -25t23.5 -61q0 -41 -27 -67.5t-67 -26.5q-31 0 -53.5 17.5t-22.5 54.5v1q-48 -27 -90 -118.5
t-105 -293.5h-163l114 385q12 39 -13 39q-9 0 -17 -7.5t-23 -37.5t-35 -85h-72q44 121 90.5 173t110.5 52q52 0 83.5 -33.5t4.5 -117.5l-24 -73h5q47 122 96.5 173t112.5 51z" />
    <glyph glyph-name="Rcommaaccent" unicode="&#x156;" horiz-adv-x="760" 
d="M603 125q7 -16 17.5 -23.5t34.5 -7.5h61l-27 -94h-263l-28 187q-6 46 -27 62t-55 16h-18l-39 -140q-9 -31 22 -31h50l-27 -94h-351l28 94h57q31 0 40 31l122 430q9 31 -21 31h-58l28 94h338q112 0 176.5 -47.5t64.5 -132.5q0 -86 -67 -147t-168 -79q67 -28 94 -103z
M381 359q65 0 113.5 41.5t48.5 98.5q0 38 -23.5 62.5t-66.5 24.5h-62l-65 -227h55zM334 -40q35 0 57 -22t22 -55q0 -67 -57.5 -110t-145.5 -58l-9 37q89 25 104 64q-26 6 -41 23.5t-15 42.5q0 33 24 55.5t61 22.5z" />
    <glyph glyph-name="rcommaaccent" unicode="&#x157;" horiz-adv-x="545" 
d="M481 519q48 0 71.5 -25t23.5 -61q0 -41 -27 -67.5t-67 -26.5q-31 0 -53.5 17.5t-22.5 54.5v1q-48 -27 -90 -118.5t-105 -293.5h-163l114 385q12 39 -13 39q-9 0 -17 -7.5t-23 -37.5t-35 -85h-72q44 121 90.5 173t110.5 52q52 0 83.5 -33.5t4.5 -117.5l-24 -73h5
q47 122 96.5 173t112.5 51zM113 -40q35 0 57 -22t22 -55q0 -67 -57.5 -110t-145.5 -58l-9 37q89 25 104 64q-26 6 -41 23.5t-15 42.5q0 33 24 55.5t61 22.5z" />
    <glyph glyph-name="Rcaron" unicode="&#x158;" horiz-adv-x="760" 
d="M464 752q-18 0 -32 27l-92 165h98l58 -65l93 64h98l-175 -164q-30 -27 -48 -27zM603 125q7 -16 17.5 -23.5t34.5 -7.5h61l-27 -94h-263l-28 187q-6 46 -27 62t-55 16h-18l-39 -140q-9 -31 22 -31h50l-27 -94h-351l28 94h57q31 0 40 31l122 430q9 31 -21 31h-58l28 94h338
q112 0 176.5 -47.5t64.5 -132.5q0 -86 -67 -147t-168 -79q67 -28 94 -103zM381 359q65 0 113.5 41.5t48.5 98.5q0 38 -23.5 62.5t-66.5 24.5h-62l-65 -227h55z" />
    <glyph glyph-name="rcaron" unicode="&#x159;" horiz-adv-x="545" 
d="M497 772h98l-175 -164q-30 -27 -48 -27t-32 27l-92 165h98l58 -65zM481 519q48 0 71.5 -25t23.5 -61q0 -41 -27 -67.5t-67 -26.5q-31 0 -53.5 17.5t-22.5 54.5v1q-48 -27 -90 -118.5t-105 -293.5h-163l114 385q12 39 -13 39q-9 0 -17 -7.5t-23 -37.5t-35 -85h-72
q44 121 90.5 173t110.5 52q52 0 83.5 -33.5t4.5 -117.5l-24 -73h5q47 122 96.5 173t112.5 51z" />
    <glyph glyph-name="Sacute" unicode="&#x15a;" horiz-adv-x="581" 
d="M584 815q-7 -6 -16 -12t-17 -9.5t-23.5 -9.5t-25.5 -9t-34.5 -11t-39.5 -13h-56q46 90 67 125t42 52q27 23 57 22t52 -26q24 -28 21.5 -57.5t-27.5 -51.5zM444 509q0 25 17 46t41 27q-38 33 -98 33q-52 0 -85.5 -25.5t-33.5 -64.5q0 -32 26.5 -59t64.5 -49t75.5 -46.5
t64 -63.5t26.5 -89q0 -95 -83.5 -161.5t-202.5 -66.5q-104 0 -178.5 50t-74.5 129q0 47 26.5 76t66.5 29q38 0 63 -25t25 -61q0 -31 -19.5 -51.5t-46.5 -26.5q38 -46 105 -46q50 0 82.5 27.5t32.5 67.5q0 36 -25 64.5t-60 49.5t-70.5 44.5t-60.5 61t-25 86.5q0 95 80 160
t198 65q98 0 172 -45.5t74 -119.5q0 -42 -25.5 -67t-63.5 -25q-37 0 -62.5 22.5t-25.5 53.5z" />
    <glyph glyph-name="sacute" unicode="&#x15b;" horiz-adv-x="482" 
d="M270 580q46 90 67 125t42 52q27 23 57 22t52 -26q24 -28 21.5 -57.5t-27.5 -51.5q-7 -6 -16 -12t-17 -9.5t-23.5 -9.5t-25.5 -9t-34.5 -11t-39.5 -13h-56zM331 401q0 29 19 46q-15 6 -34 6q-38 0 -60.5 -17t-22.5 -43t20 -47t48.5 -36t57.5 -32.5t49 -46t20 -66.5
q0 -74 -66 -124.5t-163 -50.5q-80 0 -140.5 34.5t-60.5 96.5q0 37 22.5 61t56.5 24q30 0 52.5 -18.5t22.5 -49.5q0 -45 -44 -61q32 -20 66 -20q36 0 58 17t22 42q0 26 -19 46.5t-46 36t-54 33t-46 47t-19 69.5q0 69 52 120t155 51q47 0 90 -10t76 -37.5t33 -68.5
q0 -31 -19 -52.5t-52 -21.5q-31 0 -52.5 20t-21.5 52z" />
    <glyph glyph-name="Scedilla" unicode="&#x15e;" horiz-adv-x="581" 
d="M444 509q0 25 17 46t41 27q-38 33 -98 33q-52 0 -85.5 -25.5t-33.5 -64.5q0 -32 26.5 -59t64.5 -49t75.5 -46.5t64 -63.5t26.5 -89q0 -94 -82 -160t-200 -68l-27 -43q46 0 74 -19.5t28 -54.5q0 -47 -40 -78.5t-101 -31.5q-48 0 -97 28l26 50q34 -23 69 -23q21 0 35.5 10
t14.5 28q0 20 -22.5 28t-61.5 2l-9 32l53 76q-86 12 -142.5 59.5t-56.5 115.5q0 47 26.5 76t66.5 29q38 0 63 -25t25 -61q0 -31 -19.5 -51.5t-46.5 -26.5q38 -46 105 -46q50 0 82.5 27.5t32.5 67.5q0 36 -25 64.5t-60 49.5t-70.5 44.5t-60.5 61t-25 86.5q0 95 80 160t198 65
q98 0 172 -45.5t74 -119.5q0 -42 -25.5 -67t-63.5 -25q-37 0 -62.5 22.5t-25.5 53.5z" />
    <glyph glyph-name="scedilla" unicode="&#x15f;" horiz-adv-x="482" 
d="M331 401q0 29 19 46q-15 6 -34 6q-38 0 -60.5 -17t-22.5 -43t20 -47t48.5 -36t57.5 -32.5t49 -46t20 -66.5q0 -73 -64 -123t-159 -52l-27 -42q46 0 74 -19.5t28 -54.5q0 -47 -40 -78.5t-101 -31.5q-48 0 -97 28l26 50q34 -23 69 -23q21 0 35.5 10t14.5 28q0 20 -22.5 28
t-61.5 2l-9 32l53 75q-65 11 -107 43t-42 84q0 37 22.5 61t56.5 24q30 0 52.5 -18.5t22.5 -49.5q0 -45 -44 -61q32 -20 66 -20q36 0 58 17t22 42q0 26 -19 46.5t-46 36t-54 33t-46 47t-19 69.5q0 69 52 120t155 51q47 0 90 -10t76 -37.5t33 -68.5q0 -31 -19 -52.5t-52 -21.5
q-31 0 -52.5 20t-21.5 52z" />
    <glyph glyph-name="Scaron" unicode="&#x160;" horiz-adv-x="581" 
d="M448 752q-18 0 -32 27l-92 165h98l58 -65l93 64h98l-175 -164q-30 -27 -48 -27zM375 690q98 0 172 -45.5t74 -119.5q0 -42 -25.5 -67t-63.5 -25q-37 0 -62.5 22.5t-25.5 53.5q0 25 17 46t41 27q-38 33 -98 33q-52 0 -85.5 -25.5t-33.5 -64.5q0 -32 26.5 -59t64.5 -49
t75.5 -46.5t64 -63.5t26.5 -89q0 -95 -83.5 -161.5t-202.5 -66.5q-104 0 -178.5 50t-74.5 129q0 47 26.5 76t66.5 29q38 0 63 -25t25 -61q0 -31 -19.5 -51.5t-46.5 -26.5q38 -46 105 -46q50 0 82.5 27.5t32.5 67.5q0 36 -25 64.5t-60 49.5t-70.5 44.5t-60.5 61t-25 86.5
q0 95 80 160t198 65z" />
    <glyph glyph-name="scaron" unicode="&#x161;" horiz-adv-x="482" 
d="M471 772h98l-175 -164q-30 -27 -48 -27t-32 27l-92 165h98l58 -65zM331 401q0 29 19 46q-15 6 -34 6q-38 0 -60.5 -17t-22.5 -43t20 -47t48.5 -36t57.5 -32.5t49 -46t20 -66.5q0 -74 -66 -124.5t-163 -50.5q-80 0 -140.5 34.5t-60.5 96.5q0 37 22.5 61t56.5 24
q30 0 52.5 -18.5t22.5 -49.5q0 -45 -44 -61q32 -20 66 -20q36 0 58 17t22 42q0 26 -19 46.5t-46 36t-54 33t-46 47t-19 69.5q0 69 52 120t155 51q47 0 90 -10t76 -37.5t33 -68.5q0 -31 -19 -52.5t-52 -21.5q-31 0 -52.5 20t-21.5 52z" />
    <glyph glyph-name="uni0162" unicode="&#x162;" horiz-adv-x="697" 
d="M150 680h641l-78 -270h-102q22 103 20 131q-5 54 -65 54h-29l-135 -470q-9 -31 22 -31h73l-27 -94h-156l-34 -53q46 0 74 -19.5t28 -54.5q0 -47 -40 -78.5t-101 -31.5q-48 0 -97 28l26 50q34 -23 69 -23q21 0 35.5 10t14.5 28q0 20 -22.5 28t-61.5 2l-9 32l57 82h-173
l27 94h74q31 0 40 31l135 470h-30q-30 0 -52 -10.5t-39 -37.5t-26 -48t-26 -67q-1 -3 -2 -5t-2 -5.5t-2 -6t-2 -5.5h-102z" />
    <glyph glyph-name="uni0163" unicode="&#x163;" horiz-adv-x="396" 
d="M278 415l-83 -291q-5 -21 3 -29.5t21 -8.5q41 0 91 127h71q-82 -218 -225 -223l-27 -43q46 0 74 -19.5t28 -54.5q0 -47 -40 -78.5t-101 -31.5q-48 0 -97 28l26 50q34 -23 69 -23q21 0 35.5 10t14.5 28q0 20 -22.5 28t-61.5 2l-9 32l56 80q-44 15 -61.5 55.5t-1.5 94.5
l75 267h-66l28 94h73l128 117h62l-33 -117h122l-27 -94h-122z" />
    <glyph glyph-name="Tcaron" unicode="&#x164;" horiz-adv-x="697" 
d="M617 943h98l-175 -164q-30 -27 -48 -27t-32 27l-92 165h98l58 -65zM791 680l-78 -270h-102q22 103 20 131q-5 54 -65 54h-29l-135 -470q-9 -31 22 -31h73l-27 -94h-390l27 94h74q31 0 40 31l135 470h-30q-30 0 -52 -10.5t-39 -37.5t-26 -48t-26 -67q-1 -3 -2 -5t-2 -5.5
t-2 -6t-2 -5.5h-102l77 270h641z" />
    <glyph glyph-name="tcaron" unicode="&#x165;" horiz-adv-x="396" 
d="M493 854q36 0 62 -22t26 -67q0 -61 -49 -112t-127 -79l-22 46q34 16 51 31t26 36q-55 22 -55 80q0 37 25 62t63 25zM278 415l-83 -291q-5 -21 3 -29.5t21 -8.5q41 0 91 127h71q-84 -223 -230 -223q-69 0 -101 44.5t-12 113.5l75 267h-66l28 94h73l128 117h62l-33 -117
h122l-27 -94h-122z" />
    <glyph glyph-name="Tbar" unicode="&#x166;" horiz-adv-x="697" 
d="M150 680h641l-78 -270h-102q22 103 20 131q-5 54 -65 54h-29l-72 -249h135l-19 -68h-135l-44 -153q-9 -31 22 -31h73l-27 -94h-390l27 94h74q31 0 40 31l44 153h-117l19 68h117l72 249h-30q-30 0 -52 -10.5t-39 -37.5t-26 -48t-26 -67q-1 -3 -2 -5t-2 -5.5t-2 -6t-2 -5.5
h-102z" />
    <glyph glyph-name="tbar" unicode="&#x167;" horiz-adv-x="396" 
d="M400 415h-122l-20 -71h113l-19 -67h-113l-44 -153q-5 -21 3 -29.5t21 -8.5q41 0 91 127h71q-84 -223 -230 -223q-69 0 -101 44.5t-12 113.5l36 129h-63l19 67h63l20 71h-66l28 94h73l128 117h62l-33 -117h122z" />
    <glyph glyph-name="Umacron" unicode="&#x16a;" horiz-adv-x="737" 
d="M424 861h329l-30 -104h-329zM339 -10q-127 0 -200.5 80t-33.5 218l79 267q9 31 -22 31h-56l27 94h368l-27 -94h-60q-31 0 -40 -31l-89 -306q-22 -76 5.5 -122t91.5 -46q111 0 150 138l95 336q8 31 -22 31h-58l27 94h275l-27 -94h-56q-31 0 -40 -31l-101 -358
q-26 -94 -103.5 -150.5t-182.5 -56.5z" />
    <glyph glyph-name="umacron" unicode="&#x16b;" horiz-adv-x="717" 
d="M320 690h329l-30 -104h-329zM75 296h-72q49 116 100 169.5t118 53.5q70 0 98 -48t3 -121l-55 -159q-16 -49 -8.5 -73t36.5 -24q14 0 26.5 6t33 30.5t41.5 67t50 122.5t60 189h163l-114 -386q-11 -38 13 -38q9 0 17 7.5t23 37.5t35 85h72q-44 -121 -90.5 -173t-110.5 -52
q-52 0 -82.5 32.5t-5.5 117.5l22 74h-5q-77 -224 -223 -224q-79 0 -112 60.5t0 153.5l63 183q5 20 0.5 27.5t-14.5 7.5q-9 0 -17 -7.5t-24.5 -36.5t-40.5 -82z" />
    <glyph glyph-name="Uring" unicode="&#x16e;" horiz-adv-x="737" 
d="M573 726q-53 0 -87 29.5t-34 72.5q0 54 42 90.5t101 36.5q53 0 88 -29t35 -72q0 -53 -42 -90.5t-103 -37.5zM577 787q24 0 42 19t18 44q0 19 -12.5 32t-32.5 13q-24 0 -41.5 -18t-17.5 -44q0 -21 12.5 -33.5t31.5 -12.5zM339 -10q-127 0 -200.5 80t-33.5 218l79 267
q9 31 -22 31h-56l27 94h368l-27 -94h-60q-31 0 -40 -31l-89 -306q-22 -76 5.5 -122t91.5 -46q111 0 150 138l95 336q8 31 -22 31h-58l27 94h275l-27 -94h-56q-31 0 -40 -31l-101 -358q-26 -94 -103.5 -150.5t-182.5 -56.5z" />
    <glyph glyph-name="uring" unicode="&#x16f;" horiz-adv-x="717" 
d="M469 555q-53 0 -87 29.5t-34 72.5q0 54 42 90.5t101 36.5q53 0 88 -29t35 -72q0 -53 -42 -90.5t-103 -37.5zM473 616q24 0 42 19t18 44q0 19 -12.5 32t-32.5 13q-24 0 -41.5 -18t-17.5 -44q0 -20 12.5 -33t31.5 -13zM75 296h-72q49 116 100 169.5t118 53.5q70 0 98 -48
t3 -121l-55 -159q-16 -49 -8.5 -73t36.5 -24q14 0 26.5 6t33 30.5t41.5 67t50 122.5t60 189h163l-114 -386q-11 -38 13 -38q9 0 17 7.5t23 37.5t35 85h72q-44 -121 -90.5 -173t-110.5 -52q-52 0 -82.5 32.5t-5.5 117.5l22 74h-5q-77 -224 -223 -224q-79 0 -112 60.5t0 153.5
l63 183q5 20 0.5 27.5t-14.5 7.5q-9 0 -17 -7.5t-24.5 -36.5t-40.5 -82z" />
    <glyph glyph-name="Uhungarumlaut" unicode="&#x170;" horiz-adv-x="737" 
d="M369 751q46 90 67 125t42 52q27 23 57 22t52 -26q24 -28 21.5 -57.5t-27.5 -51.5q-7 -6 -16 -12t-17 -9.5t-23.5 -9.5t-25.5 -9t-34.5 -11t-39.5 -13h-56zM583 751q46 90 67 125t42 52q27 23 57 22t52 -26q24 -28 21.5 -57.5t-27.5 -51.5q-8 -8 -17.5 -13.5t-26 -12
t-27 -10.5t-40 -13.5t-45.5 -14.5h-56zM339 -10q-127 0 -200.5 80t-33.5 218l79 267q9 31 -22 31h-56l27 94h368l-27 -94h-60q-31 0 -40 -31l-89 -306q-22 -76 5.5 -122t91.5 -46q111 0 150 138l95 336q8 31 -22 31h-58l27 94h275l-27 -94h-56q-31 0 -40 -31l-101 -358
q-26 -94 -103.5 -150.5t-182.5 -56.5z" />
    <glyph glyph-name="uhungarumlaut" unicode="&#x171;" horiz-adv-x="717" 
d="M265 580q46 90 67 125t42 52q27 23 57 22t52 -26q24 -28 21.5 -57.5t-27.5 -51.5q-7 -6 -16 -12t-17 -9.5t-23.5 -9.5t-25.5 -9t-34.5 -11t-39.5 -13h-56zM479 580q46 90 67 125t42 52q27 23 57 22t52 -26q24 -28 21.5 -57.5t-27.5 -51.5q-8 -8 -17.5 -13.5t-26 -12
t-27 -10.5t-40 -13.5t-45.5 -14.5h-56zM75 296h-72q49 116 100 169.5t118 53.5q70 0 98 -48t3 -121l-55 -159q-16 -49 -8.5 -73t36.5 -24q14 0 26.5 6t33 30.5t41.5 67t50 122.5t60 189h163l-114 -386q-11 -38 13 -38q9 0 17 7.5t23 37.5t35 85h72q-44 -121 -90.5 -173
t-110.5 -52q-52 0 -82.5 32.5t-5.5 117.5l22 74h-5q-77 -224 -223 -224q-79 0 -112 60.5t0 153.5l63 183q5 20 0.5 27.5t-14.5 7.5q-9 0 -17 -7.5t-24.5 -36.5t-40.5 -82z" />
    <glyph glyph-name="Uogonek" unicode="&#x172;" horiz-adv-x="737" 
d="M574 680h275l-27 -94h-56q-31 0 -40 -31l-101 -358q-23 -81 -84 -135h1q-14 -14 -37 -38q-58 -59 -74.5 -80.5t-16.5 -43.5q0 -31 37 -31q19 0 46 9l-24 -88q-39 -16 -79 -16q-44 0 -69.5 20t-25.5 57q0 34 20 64.5t89 81.5q-31 -7 -69 -7q-127 0 -200.5 80t-33.5 218
l79 267q9 31 -22 31h-56l27 94h368l-27 -94h-60q-31 0 -40 -31l-89 -306q-22 -76 5.5 -122t91.5 -46q111 0 150 138l95 336q8 31 -22 31h-58z" />
    <glyph glyph-name="uogonek" unicode="&#x173;" horiz-adv-x="717" 
d="M594 15q-37 -32 -49.5 -49t-12.5 -36q0 -32 38 -32q16 0 46 10l-25 -88q-37 -16 -78 -16q-44 0 -69.5 19.5t-25.5 56.5q0 55 74 111q-44 6 -66 40.5t0 108.5l22 74h-5q-77 -224 -223 -224q-79 0 -112 60.5t0 153.5l63 183q5 20 0.5 27.5t-14.5 7.5q-9 0 -17 -7.5
t-24.5 -36.5t-40.5 -82h-72q49 116 100 169.5t118 53.5q70 0 98 -48t3 -121l-55 -159q-16 -49 -8.5 -73t36.5 -24q14 0 26.5 6t33 30.5t41.5 67t50 122.5t60 189h163l-114 -386q-11 -38 13 -38q9 0 17 7.5t23 37.5t35 85h72q-56 -155 -121 -200z" />
    <glyph glyph-name="Wcircumflex" unicode="&#x174;" horiz-adv-x="1106" 
d="M770 821l-93 -64h-98l175 164q30 27 48 27t32 -27l92 -165h-98zM958 680h270l-27 -94h-38q-36 0 -57 -33l-367 -553h-100l-41 398l-254 -398h-118l-52 556q-3 30 -40 30h-39l27 94h365l-27 -94h-59q-14 0 -22.5 -8t-7.5 -22l22 -305l206 304q9 13 5.5 22t-18.5 9h-59
l27 94h337l-27 -94h-67q-14 0 -22.5 -8.5t-7.5 -21.5l31 -307l196 306q19 31 -12 31h-51z" />
    <glyph glyph-name="wcircumflex" unicode="&#x175;" horiz-adv-x="852" 
d="M477 586h-98l175 164q30 27 48 27t32 -27l92 -165h-98l-58 65zM741 519q45 0 73.5 -31t28.5 -94q0 -82 -44.5 -175t-125.5 -161t-171 -68q-65 0 -94 33.5t-29 79.5q0 23 6 43h-6q-60 -156 -194 -156q-66 0 -98.5 37.5t-32.5 84.5q0 44 30 109t60 117.5t30 67.5
q0 18 -18 18q-9 0 -17 -7.5t-24.5 -36.5t-40.5 -83h-72q48 116 100 169t118 53q53 0 82.5 -28t29.5 -69q0 -46 -57 -145.5t-57 -137.5q0 -45 40 -45q21 0 41 14t39 46t33.5 63t34 88t31 95t32.5 109h148q-11 -36 -26 -83t-23.5 -73.5t-18.5 -58.5t-15 -50.5t-10 -38.5
t-7 -32.5t-2 -21.5q0 -28 16.5 -42.5t41.5 -14.5q62 0 120.5 77t72.5 167q-14 -6 -29 -6q-37 0 -64 27.5t-27 67.5t26.5 66t68.5 26z" />
    <glyph glyph-name="Ycircumflex" unicode="&#x176;" horiz-adv-x="691" 
d="M458 757h-98l175 164q30 27 48 27t32 -27l92 -165h-98l-58 65zM537 680h276l-27 -94h-39q-36 0 -65 -32l-231 -258l-49 -171q-9 -31 22 -31h79l-27 -94h-401l27 94h79q31 0 40 31l36 128l-80 305q-8 28 -43 28h-39l27 94h339l-27 -94h-42q-33 0 -26 -31l43 -184l163 187
q24 28 -9 28h-53z" />
    <glyph glyph-name="ycircumflex" unicode="&#x177;" horiz-adv-x="626" 
d="M365 586h-98l175 164q30 27 48 27t32 -27l92 -165h-98l-58 65zM519 519q46 0 75.5 -33t29.5 -94q0 -73 -43 -173.5t-107 -191t-148 -154t-158 -63.5q-68 0 -115 33t-47 90q0 41 23.5 65.5t59.5 24.5q33 0 52.5 -20.5t19.5 -49.5q0 -24 -14.5 -43.5t-37.5 -28.5
q33 -11 64 -11t66 16q18 213 11 332.5t-25.5 162.5t-50.5 43q-49 0 -91 -127h-71q32 111 82.5 166.5t125.5 55.5q122 0 167.5 -126.5t11.5 -356.5q52 73 90.5 157t49.5 143q-16 -4 -26 -4q-37 0 -64 27.5t-27 67.5t27 66t70 26z" />
    <glyph glyph-name="Ydieresis" unicode="&#x178;" horiz-adv-x="691" 
d="M425 740q-39 0 -64.5 24.5t-25.5 63.5t26 64.5t64 25.5q39 0 63.5 -24.5t24.5 -64.5t-24.5 -64.5t-63.5 -24.5zM650 740q-39 0 -64.5 24.5t-25.5 63.5t26 64.5t64 25.5q39 0 63.5 -24.5t24.5 -64.5t-24.5 -64.5t-63.5 -24.5zM537 680h276l-27 -94h-39q-36 0 -65 -32
l-231 -258l-49 -171q-9 -31 22 -31h79l-27 -94h-401l27 94h79q31 0 40 31l36 128l-80 305q-8 28 -43 28h-39l27 94h339l-27 -94h-42q-33 0 -26 -31l43 -184l163 187q24 28 -9 28h-53z" />
    <glyph glyph-name="Zacute" unicode="&#x179;" horiz-adv-x="622" 
d="M598 815q-7 -6 -16 -12t-17 -9.5t-23.5 -9.5t-25.5 -9t-34.5 -11t-39.5 -13h-56q46 90 67 125t42 52q27 23 57 22t52 -26q24 -28 21.5 -57.5t-27.5 -51.5zM701 680l-18 -64l-467 -525h150q13 0 24 3.5t21 11t18 15t16 21.5t13.5 24t13 28.5t11.5 28.5t11.5 30.5
t10.5 29.5h94l-82 -283h-567l16 55l468 534h-130q-12 0 -23 -3t-20 -10t-16.5 -13.5t-15.5 -20t-13 -22t-12.5 -26t-11 -26.5t-11 -29.5t-10.5 -28.5h-94l78 270h546z" />
    <glyph glyph-name="zacute" unicode="&#x17a;" horiz-adv-x="552" 
d="M286 580q46 90 67 125t42 52q27 23 57 22t52 -26q24 -28 21.5 -57.5t-27.5 -51.5q-7 -6 -16 -12t-17 -9.5t-23.5 -9.5t-25.5 -9t-34.5 -11t-39.5 -13h-56zM427 362q-21 -33 -55 -69t-59 -55q-44 -32 -136 -65q85 -82 168 -82q-25 25 -20 61q3 31 27.5 51.5t56.5 20.5
q35 0 59.5 -25t24.5 -68q0 -57 -43.5 -99t-110.5 -42q-45 0 -86.5 25t-101.5 89q3 -49 -18 -81.5t-62 -32.5q-33 0 -48 19.5t-15 45.5q1 65 95 131l263 185q-14 4 -67.5 22t-81.5 23q13 -16 13 -39q-1 -30 -25 -52t-59 -22q-36 0 -60.5 25t-24.5 63q0 52 43.5 90t114.5 38
q103 0 205 -103q24 103 86 103q25 0 39.5 -17.5t14.5 -41.5q0 -36 -33 -64t-104 -34z" />
    <glyph glyph-name="Zdotaccent" unicode="&#x17b;" horiz-adv-x="622" 
d="M441 736q-42 0 -70 26.5t-28 68.5t28 69.5t70 27.5t68.5 -26.5t26.5 -69.5t-26.5 -69.5t-68.5 -26.5zM701 680l-18 -64l-467 -525h150q13 0 24 3.5t21 11t18 15t16 21.5t13.5 24t13 28.5t11.5 28.5t11.5 30.5t10.5 29.5h94l-82 -283h-567l16 55l468 534h-130
q-12 0 -23 -3t-20 -10t-16.5 -13.5t-15.5 -20t-13 -22t-12.5 -26t-11 -26.5t-11 -29.5t-10.5 -28.5h-94l78 270h546z" />
    <glyph glyph-name="zdotaccent" unicode="&#x17c;" horiz-adv-x="552" 
d="M359 565q-42 0 -70 26.5t-28 68.5t28 69.5t70 27.5t68.5 -26.5t26.5 -69.5t-26.5 -69.5t-68.5 -26.5zM427 362q-21 -33 -55 -69t-59 -55q-44 -32 -136 -65q85 -82 168 -82q-25 25 -20 61q3 31 27.5 51.5t56.5 20.5q35 0 59.5 -25t24.5 -68q0 -57 -43.5 -99t-110.5 -42
q-45 0 -86.5 25t-101.5 89q3 -49 -18 -81.5t-62 -32.5q-33 0 -48 19.5t-15 45.5q1 65 95 131l263 185q-14 4 -67.5 22t-81.5 23q13 -16 13 -39q-1 -30 -25 -52t-59 -22q-36 0 -60.5 25t-24.5 63q0 52 43.5 90t114.5 38q103 0 205 -103q24 103 86 103q25 0 39.5 -17.5
t14.5 -41.5q0 -36 -33 -64t-104 -34z" />
    <glyph glyph-name="Zcaron" unicode="&#x17d;" horiz-adv-x="622" 
d="M444 752q-18 0 -32 27l-92 165h98l58 -65l93 64h98l-175 -164q-30 -27 -48 -27zM701 680l-18 -64l-467 -525h150q13 0 24 3.5t21 11t18 15t16 21.5t13.5 24t13 28.5t11.5 28.5t11.5 30.5t10.5 29.5h94l-82 -283h-567l16 55l468 534h-130q-12 0 -23 -3t-20 -10
t-16.5 -13.5t-15.5 -20t-13 -22t-12.5 -26t-11 -26.5t-11 -29.5t-10.5 -28.5h-94l78 270h546z" />
    <glyph glyph-name="zcaron" unicode="&#x17e;" horiz-adv-x="552" 
d="M487 772h98l-175 -164q-30 -27 -48 -27t-32 27l-92 165h98l58 -65zM427 362q-21 -33 -55 -69t-59 -55q-44 -32 -136 -65q85 -82 168 -82q-25 25 -20 61q3 31 27.5 51.5t56.5 20.5q35 0 59.5 -25t24.5 -68q0 -57 -43.5 -99t-110.5 -42q-45 0 -86.5 25t-101.5 89
q3 -49 -18 -81.5t-62 -32.5q-33 0 -48 19.5t-15 45.5q1 65 95 131l263 185q-14 4 -67.5 22t-81.5 23q13 -16 13 -39q-1 -30 -25 -52t-59 -22q-36 0 -60.5 25t-24.5 63q0 52 43.5 90t114.5 38q103 0 205 -103q24 103 86 103q25 0 39.5 -17.5t14.5 -41.5q0 -36 -33 -64
t-104 -34z" />
    <glyph glyph-name="Scommaaccent" unicode="&#x218;" horiz-adv-x="581" 
d="M444 509q0 25 17 46t41 27q-38 33 -98 33q-52 0 -85.5 -25.5t-33.5 -64.5q0 -32 26.5 -59t64.5 -49t75.5 -46.5t64 -63.5t26.5 -89q0 -95 -83.5 -161.5t-202.5 -66.5q-104 0 -178.5 50t-74.5 129q0 47 26.5 76t66.5 29q38 0 63 -25t25 -61q0 -31 -19.5 -51.5t-46.5 -26.5
q38 -46 105 -46q50 0 82.5 27.5t32.5 67.5q0 36 -25 64.5t-60 49.5t-70.5 44.5t-60.5 61t-25 86.5q0 95 80 160t198 65q98 0 172 -45.5t74 -119.5q0 -42 -25.5 -67t-63.5 -25q-37 0 -62.5 22.5t-25.5 53.5zM202 -40q35 0 57 -22t22 -55q0 -67 -57.5 -110t-145.5 -58l-9 37
q89 25 104 64q-26 6 -41 23.5t-15 42.5q0 33 24 55.5t61 22.5z" />
    <glyph glyph-name="scommaaccent" unicode="&#x219;" horiz-adv-x="482" 
d="M331 401q0 29 19 46q-15 6 -34 6q-38 0 -60.5 -17t-22.5 -43t20 -47t48.5 -36t57.5 -32.5t49 -46t20 -66.5q0 -74 -66 -124.5t-163 -50.5q-80 0 -140.5 34.5t-60.5 96.5q0 37 22.5 61t56.5 24q30 0 52.5 -18.5t22.5 -49.5q0 -45 -44 -61q32 -20 66 -20q36 0 58 17t22 42
q0 26 -19 46.5t-46 36t-54 33t-46 47t-19 69.5q0 69 52 120t155 51q47 0 90 -10t76 -37.5t33 -68.5q0 -31 -19 -52.5t-52 -21.5q-31 0 -52.5 20t-21.5 52zM163 -39q35 0 57 -22t22 -55q0 -67 -57.5 -110t-145.5 -58l-9 37q89 25 104 64q-26 6 -41 23.5t-15 42.5
q0 33 24 55.5t61 22.5z" />
    <glyph glyph-name="uni021A" unicode="&#x21a;" horiz-adv-x="697" 
d="M150 680h641l-78 -270h-102q22 103 20 131q-5 54 -65 54h-29l-135 -470q-9 -31 22 -31h73l-27 -94h-390l27 94h74q31 0 40 31l135 470h-30q-30 0 -52 -10.5t-39 -37.5t-26 -48t-26 -67q-1 -3 -2 -5t-2 -5.5t-2 -6t-2 -5.5h-102zM264 -40q35 0 57 -22t22 -55
q0 -67 -57.5 -110t-145.5 -58l-9 37q89 25 104 64q-26 6 -41 23.5t-15 42.5q0 33 24 55.5t61 22.5z" />
    <glyph glyph-name="uni021B" unicode="&#x21b;" horiz-adv-x="396" 
d="M278 415l-83 -291q-5 -21 3 -29.5t21 -8.5q41 0 91 127h71q-84 -223 -230 -223q-69 0 -101 44.5t-12 113.5l75 267h-66l28 94h73l128 117h62l-33 -117h122l-27 -94h-122zM129 -40q35 0 57 -22t22 -55q0 -67 -57.5 -110t-145.5 -58l-9 37q89 25 104 64q-26 6 -41 23.5
t-15 42.5q0 33 24 55.5t61 22.5z" />
    <glyph glyph-name="circumflex" unicode="&#x2c6;" horiz-adv-x="366" 
d="M208 586h-98l175 164q30 27 48 27t32 -27l92 -165h-98l-58 65z" />
    <glyph glyph-name="caron" unicode="&#x2c7;" horiz-adv-x="366" 
d="M395 772h98l-175 -164q-30 -27 -48 -27t-32 27l-92 165h98l58 -65z" />
    <glyph glyph-name="breve" unicode="&#x2d8;" horiz-adv-x="379" 
d="M497 741q-60 -170 -216 -170q-76 0 -108 42.5t-13 127.5h82q1 -33 15 -48.5t46 -15.5q62 0 103 64h91z" />
    <glyph glyph-name="dotaccent" unicode="&#x2d9;" horiz-adv-x="271" 
d="M253 565q-42 0 -70 26.5t-28 68.5t28 69.5t70 27.5t68.5 -26.5t26.5 -69.5t-26.5 -69.5t-68.5 -26.5z" />
    <glyph glyph-name="ring" unicode="&#x2da;" horiz-adv-x="302" 
d="M257 555q-53 0 -87 29.5t-34 72.5q0 54 42 90.5t101 36.5q53 0 88 -29t35 -72q0 -53 -42 -90.5t-103 -37.5zM261 616q24 0 42 19t18 44q0 19 -12.5 32t-32.5 13q-24 0 -41.5 -18t-17.5 -44q0 -20 12.5 -33t31.5 -13z" />
    <glyph glyph-name="ogonek" unicode="&#x2db;" horiz-adv-x="282" 
d="M96 -220q-39 -16 -79 -16q-44 0 -69.5 20t-25.5 57q0 29 10.5 50.5t56.5 61.5t137 99h39q-14 -14 -37 -38q-58 -59 -74.5 -80.5t-16.5 -43.5q0 -31 37 -31q19 0 46 9z" />
    <glyph glyph-name="tilde" unicode="&#x2dc;" horiz-adv-x="498" 
d="M578 744q-13 -74 -52.5 -120.5t-107.5 -46.5q-34 0 -82 28.5t-77 28.5q-17 0 -28.5 -7t-17 -15.5t-14.5 -27.5l-59 20q15 71 53.5 114.5t104.5 43.5q35 0 85 -28.5t75 -28.5q7 0 13 1.5t10.5 3t9 6t7 6.5t6.5 9t4.5 8l4.5 9l4 9z" />
    <glyph glyph-name="hungarumlaut" unicode="&#x2dd;" horiz-adv-x="496" 
d="M141 580q46 90 67 125t42 52q27 23 57 22t52 -26q24 -28 21.5 -57.5t-27.5 -51.5q-7 -6 -16 -12t-17 -9.5t-23.5 -9.5t-25.5 -9t-34.5 -11t-39.5 -13h-56zM355 580q46 90 67 125t42 52q27 23 57 22t52 -26q24 -28 21.5 -57.5t-27.5 -51.5q-8 -8 -17.5 -13.5t-26 -12
t-27 -10.5t-40 -13.5t-45.5 -14.5h-56z" />
    <glyph glyph-name="uni030C" unicode="&#x30c;" horiz-adv-x="0" 
d="M-54 690q36 0 62 -22t26 -67q0 -61 -49 -112t-127 -79l-22 46q34 16 51 31t26 36q-55 22 -55 80q0 37 25 62t63 25z" />
    <glyph glyph-name="uni0326" unicode="&#x326;" horiz-adv-x="0" 
d="M-216 -40q35 0 57 -22t22 -55q0 -67 -57.5 -110t-145.5 -58l-9 37q89 25 104 64q-26 6 -41 23.5t-15 42.5q0 33 24 55.5t61 22.5z" />
    <glyph glyph-name="Wgrave" unicode="&#x1e80;" horiz-adv-x="1106" 
d="M718 751q-8 8 -29 27t-27 25t-19 20t-17 22.5t-8 20.5t-4 25q0 33 24 54t55 21q25 0 44.5 -16t27.5 -43q13 -39 13 -156h-60zM958 680h270l-27 -94h-38q-36 0 -57 -33l-367 -553h-100l-41 398l-254 -398h-118l-52 556q-3 30 -40 30h-39l27 94h365l-27 -94h-59
q-14 0 -22.5 -8t-7.5 -22l22 -305l206 304q9 13 5.5 22t-18.5 9h-59l27 94h337l-27 -94h-67q-14 0 -22.5 -8.5t-7.5 -21.5l31 -307l196 306q19 31 -12 31h-51z" />
    <glyph glyph-name="wgrave" unicode="&#x1e81;" horiz-adv-x="852" 
d="M578 580h-60q-8 8 -29 27t-27 25t-19 20t-17 22.5t-8 20.5t-4 25q0 33 24 54t55 21q25 0 44.5 -16t27.5 -43q13 -39 13 -156zM741 519q45 0 73.5 -31t28.5 -94q0 -82 -44.5 -175t-125.5 -161t-171 -68q-65 0 -94 33.5t-29 79.5q0 23 6 43h-6q-60 -156 -194 -156
q-66 0 -98.5 37.5t-32.5 84.5q0 44 30 109t60 117.5t30 67.5q0 18 -18 18q-9 0 -17 -7.5t-24.5 -36.5t-40.5 -83h-72q48 116 100 169t118 53q53 0 82.5 -28t29.5 -69q0 -46 -57 -145.5t-57 -137.5q0 -45 40 -45q21 0 41 14t39 46t33.5 63t34 88t31 95t32.5 109h148
q-11 -36 -26 -83t-23.5 -73.5t-18.5 -58.5t-15 -50.5t-10 -38.5t-7 -32.5t-2 -21.5q0 -28 16.5 -42.5t41.5 -14.5q62 0 120.5 77t72.5 167q-14 -6 -29 -6q-37 0 -64 27.5t-27 67.5t26.5 66t68.5 26z" />
    <glyph glyph-name="Wacute" unicode="&#x1e82;" horiz-adv-x="1106" 
d="M911 815q-7 -6 -16 -12t-17 -9.5t-23.5 -9.5t-25.5 -9t-34.5 -11t-39.5 -13h-56q46 90 67 125t42 52q27 23 57 22t52 -26q24 -28 21.5 -57.5t-27.5 -51.5zM958 680h270l-27 -94h-38q-36 0 -57 -33l-367 -553h-100l-41 398l-254 -398h-118l-52 556q-3 30 -40 30h-39l27 94
h365l-27 -94h-59q-14 0 -22.5 -8t-7.5 -22l22 -305l206 304q9 13 5.5 22t-18.5 9h-59l27 94h337l-27 -94h-67q-14 0 -22.5 -8.5t-7.5 -21.5l31 -307l196 306q19 31 -12 31h-51z" />
    <glyph glyph-name="wacute" unicode="&#x1e83;" horiz-adv-x="852" 
d="M499 580q46 90 67 125t42 52q27 23 57 22t52 -26q24 -28 21.5 -57.5t-27.5 -51.5q-7 -6 -16 -12t-17 -9.5t-23.5 -9.5t-25.5 -9t-34.5 -11t-39.5 -13h-56zM741 519q45 0 73.5 -31t28.5 -94q0 -82 -44.5 -175t-125.5 -161t-171 -68q-65 0 -94 33.5t-29 79.5q0 23 6 43h-6
q-60 -156 -194 -156q-66 0 -98.5 37.5t-32.5 84.5q0 44 30 109t60 117.5t30 67.5q0 18 -18 18q-9 0 -17 -7.5t-24.5 -36.5t-40.5 -83h-72q48 116 100 169t118 53q53 0 82.5 -28t29.5 -69q0 -46 -57 -145.5t-57 -137.5q0 -45 40 -45q21 0 41 14t39 46t33.5 63t34 88t31 95
t32.5 109h148q-11 -36 -26 -83t-23.5 -73.5t-18.5 -58.5t-15 -50.5t-10 -38.5t-7 -32.5t-2 -21.5q0 -28 16.5 -42.5t41.5 -14.5q62 0 120.5 77t72.5 167q-14 -6 -29 -6q-37 0 -64 27.5t-27 67.5t26.5 66t68.5 26z" />
    <glyph glyph-name="Wdieresis" unicode="&#x1e84;" horiz-adv-x="1106" 
d="M644 740q-39 0 -64.5 24.5t-25.5 63.5t26 64.5t64 25.5q39 0 63.5 -24.5t24.5 -64.5t-24.5 -64.5t-63.5 -24.5zM869 740q-39 0 -64.5 24.5t-25.5 63.5t26 64.5t64 25.5q39 0 63.5 -24.5t24.5 -64.5t-24.5 -64.5t-63.5 -24.5zM958 680h270l-27 -94h-38q-36 0 -57 -33
l-367 -553h-100l-41 398l-254 -398h-118l-52 556q-3 30 -40 30h-39l27 94h365l-27 -94h-59q-14 0 -22.5 -8t-7.5 -22l22 -305l206 304q9 13 5.5 22t-18.5 9h-59l27 94h337l-27 -94h-67q-14 0 -22.5 -8.5t-7.5 -21.5l31 -307l196 306q19 31 -12 31h-51z" />
    <glyph glyph-name="wdieresis" unicode="&#x1e85;" horiz-adv-x="852" 
d="M444 569q-39 0 -64.5 24.5t-25.5 63.5t26 64.5t64 25.5q39 0 63.5 -24.5t24.5 -64.5t-24.5 -64.5t-63.5 -24.5zM669 569q-39 0 -64.5 24.5t-25.5 63.5t26 64.5t64 25.5q39 0 63.5 -24.5t24.5 -64.5t-24.5 -64.5t-63.5 -24.5zM741 519q45 0 73.5 -31t28.5 -94
q0 -82 -44.5 -175t-125.5 -161t-171 -68q-65 0 -94 33.5t-29 79.5q0 23 6 43h-6q-60 -156 -194 -156q-66 0 -98.5 37.5t-32.5 84.5q0 44 30 109t60 117.5t30 67.5q0 18 -18 18q-9 0 -17 -7.5t-24.5 -36.5t-40.5 -83h-72q48 116 100 169t118 53q53 0 82.5 -28t29.5 -69
q0 -46 -57 -145.5t-57 -137.5q0 -45 40 -45q21 0 41 14t39 46t33.5 63t34 88t31 95t32.5 109h148q-11 -36 -26 -83t-23.5 -73.5t-18.5 -58.5t-15 -50.5t-10 -38.5t-7 -32.5t-2 -21.5q0 -28 16.5 -42.5t41.5 -14.5q62 0 120.5 77t72.5 167q-14 -6 -29 -6q-37 0 -64 27.5
t-27 67.5t26.5 66t68.5 26z" />
    <glyph glyph-name="Ygrave" unicode="&#x1ef2;" horiz-adv-x="691" 
d="M559 751h-60q-8 8 -29 27t-27 25t-19 20t-17 22.5t-8 20.5t-4 25q0 33 24 54t55 21q25 0 44.5 -16t27.5 -43q13 -39 13 -156zM537 680h276l-27 -94h-39q-36 0 -65 -32l-231 -258l-49 -171q-9 -31 22 -31h79l-27 -94h-401l27 94h79q31 0 40 31l36 128l-80 305
q-8 28 -43 28h-39l27 94h339l-27 -94h-42q-33 0 -26 -31l43 -184l163 187q24 28 -9 28h-53z" />
    <glyph glyph-name="ygrave" unicode="&#x1ef3;" horiz-adv-x="626" 
d="M466 580h-60q-8 8 -29 27t-27 25t-19 20t-17 22.5t-8 20.5t-4 25q0 33 24 54t55 21q25 0 44.5 -16t27.5 -43q13 -39 13 -156zM519 519q46 0 75.5 -33t29.5 -94q0 -73 -43 -173.5t-107 -191t-148 -154t-158 -63.5q-68 0 -115 33t-47 90q0 41 23.5 65.5t59.5 24.5
q33 0 52.5 -20.5t19.5 -49.5q0 -24 -14.5 -43.5t-37.5 -28.5q33 -11 64 -11t66 16q18 213 11 332.5t-25.5 162.5t-50.5 43q-49 0 -91 -127h-71q32 111 82.5 166.5t125.5 55.5q122 0 167.5 -126.5t11.5 -356.5q52 73 90.5 157t49.5 143q-16 -4 -26 -4q-37 0 -64 27.5
t-27 67.5t27 66t70 26z" />
    <glyph glyph-name="uni2009" unicode="&#x2009;" horiz-adv-x="149" 
 />
    <glyph glyph-name="uni200A" unicode="&#x200a;" horiz-adv-x="89" 
 />
    <glyph glyph-name="endash" unicode="&#x2013;" horiz-adv-x="500" 
d="M77 314h380l-27 -93h-380z" />
    <glyph glyph-name="emdash" unicode="&#x2014;" horiz-adv-x="1000" 
d="M77 314h880l-27 -93h-880z" />
    <glyph glyph-name="quoteleft" unicode="&#x2018;" horiz-adv-x="263" 
d="M194 376q-39 0 -67 24.5t-28 73.5q0 77 71.5 138.5t176.5 85.5l16 -49q-64 -21 -92 -41.5t-40 -48.5q60 -25 60 -87q0 -41 -27.5 -68.5t-69.5 -27.5z" />
    <glyph glyph-name="quoteright" unicode="&#x2019;" horiz-adv-x="263" 
d="M231 699q39 0 67 -24.5t28 -73.5q0 -77 -71.5 -138.5t-176.5 -85.5l-16 49q64 21 92 41.5t40 48.5q-60 25 -60 87q0 41 27.5 68.5t69.5 27.5z" />
    <glyph glyph-name="quotesinglbase" unicode="&#x201a;" horiz-adv-x="263" 
d="M84 184q39 0 67 -24.5t28 -73.5q0 -77 -71.5 -138.5t-176.5 -85.5l-16 49q64 21 92 41.5t40 48.5q-60 25 -60 87q0 41 27.5 68.5t69.5 27.5z" />
    <glyph glyph-name="quotedblleft" unicode="&#x201c;" horiz-adv-x="506" 
d="M194 376q-39 0 -67 24.5t-28 73.5q0 77 71.5 138.5t176.5 85.5l16 -49q-64 -21 -92 -41.5t-40 -48.5q60 -25 60 -87q0 -41 -27.5 -68.5t-69.5 -27.5zM437 376q-39 0 -67 24.5t-28 73.5q0 77 71.5 138.5t176.5 85.5l16 -49q-64 -21 -92 -41.5t-40 -48.5q60 -25 60 -87
q0 -41 -27.5 -68.5t-69.5 -27.5z" />
    <glyph glyph-name="quotedblright" unicode="&#x201d;" horiz-adv-x="505" 
d="M231 699q39 0 67 -24.5t28 -73.5q0 -77 -71.5 -138.5t-176.5 -85.5l-16 49q64 21 92 41.5t40 48.5q-60 25 -60 87q0 41 27.5 68.5t69.5 27.5zM474 699q39 0 67 -24.5t28 -73.5q0 -77 -71.5 -138.5t-176.5 -85.5l-16 49q64 21 92 41.5t40 48.5q-60 25 -60 87
q0 41 27.5 68.5t69.5 27.5z" />
    <glyph glyph-name="quotedblbase" unicode="&#x201e;" horiz-adv-x="505" 
d="M84 184q39 0 67 -24.5t28 -73.5q0 -77 -71.5 -138.5t-176.5 -85.5l-16 49q64 21 92 41.5t40 48.5q-60 25 -60 87q0 41 27.5 68.5t69.5 27.5zM327 184q39 0 67 -24.5t28 -73.5q0 -77 -71.5 -138.5t-176.5 -85.5l-16 49q64 21 92 41.5t40 48.5q-60 25 -60 87
q0 41 27.5 68.5t69.5 27.5z" />
    <glyph glyph-name="dagger" unicode="&#x2020;" horiz-adv-x="467" 
d="M468 645q27 0 44 -16t17 -44q0 -27 -17 -43.5t-44 -16.5q-12 0 -23 3.5t-33.5 13.5t-42.5 17l-24 -13l22 -82l-110 -203h-40l2 203l73 92l-2 4q-18 -7 -36.5 -14.5t-27 -11.5t-18 -6.5t-19.5 -2.5q-27 0 -44.5 16.5t-17.5 43.5q0 28 17 44t45 16q12 0 22.5 -3t34 -13
t41.5 -17l27 15q-1 24 -4.5 51t-4 32.5t2.5 25.5q8 26 28.5 38t46.5 5q27 -8 38 -28.5t3 -47.5q-3 -12 -9.5 -21.5t-23 -29.5t-30.5 -39l2 -3q22 8 46 18t35 13.5t24 3.5z" />
    <glyph glyph-name="daggerdbl" unicode="&#x2021;" horiz-adv-x="468" 
d="M468 644q27 0 44 -16t17 -44q0 -27 -17 -43.5t-44 -16.5q-12 0 -22.5 3.5t-33 13t-43.5 17.5l-22 -12l23 -71l-73 -93l1 -3q23 8 46 18.5t34.5 14t24.5 3.5q27 0 44 -16t17 -44q0 -27 -17 -43.5t-44 -16.5q-10 0 -20 2.5t-18 6t-26 11t-35 14.5l-28 -16q2 -19 4.5 -40
t3.5 -29.5t0.5 -19t-3.5 -20.5q-7 -26 -27 -37.5t-47 -4.5t-38 27.5t-3 48.5q3 12 10 21t22.5 28t30.5 40l-2 3q-22 -8 -45.5 -18t-34.5 -13.5t-23 -3.5q-28 0 -45 16t-17 44t17 44t45 16q12 0 22 -3t32 -13t41 -17l26 14l-22 79l70 82l-2 3q-18 -7 -36.5 -15t-27.5 -12
t-18.5 -6.5t-19.5 -2.5q-27 0 -44.5 16.5t-17.5 43.5q0 28 17 44t45 16q10 0 19.5 -2.5t18 -6t26.5 -11t35 -13.5l27 16q-2 23 -5.5 51t-3 32t2.5 25q8 27 28.5 39t46.5 5q27 -8 37.5 -29t2.5 -47q-3 -12 -9 -21.5t-23 -30t-30 -38.5l2 -4q23 8 46.5 18t34.5 13.5t23 3.5z
" />
    <glyph glyph-name="bullet" unicode="&#x2022;" horiz-adv-x="479" 
d="M259 162q-67 0 -115 47.5t-48 114.5t48 115t115 48t115 -47.5t48 -115.5q0 -67 -47.5 -114.5t-115.5 -47.5z" />
    <glyph glyph-name="ellipsis" unicode="&#x2026;" horiz-adv-x="736" 
d="M85 185q42 0 68.5 -26.5t26.5 -69.5t-26.5 -69.5t-68.5 -26.5t-70 27.5t-28 69.5t28 68.5t70 26.5zM322 185q42 0 68.5 -26.5t26.5 -69.5t-26.5 -69.5t-68.5 -26.5t-70 27.5t-28 69.5t28 68.5t70 26.5zM559 185q42 0 68.5 -26.5t26.5 -69.5t-26.5 -69.5t-68.5 -26.5
t-70 27.5t-28 69.5t28 68.5t70 26.5z" />
    <glyph glyph-name="perthousand" unicode="&#x2030;" horiz-adv-x="1522" 
d="M577 359l-12 14q41 54 136.5 157t126.5 131q59 54 91 19q32 -36 -27 -90q-32 -28 -143.5 -111.5t-171.5 -119.5zM293 282q-82 0 -134 49t-52 125q0 95 69.5 164.5t165.5 69.5q83 0 134.5 -48.5t51.5 -124.5q0 -95 -69.5 -165t-165.5 -70zM294 342q56 0 93 67.5t37 138.5
q0 82 -82 82q-58 0 -94 -66t-36 -139q0 -83 82 -83zM755 -10q-82 0 -134 49t-52 125q0 95 69.5 164.5t165.5 69.5q83 0 134.5 -48.5t51.5 -124.5q0 -95 -69.5 -165t-165.5 -70zM1229 -10q-83 0 -135 49t-52 125q0 95 70 164.5t166 69.5q82 0 134 -49t52 -124q0 -95 -70 -165
t-165 -70zM756 50q56 0 93 67.5t37 138.5q0 82 -82 82q-58 0 -94 -66t-36 -139q0 -83 82 -83zM1229 50q57 0 93.5 67.5t36.5 138.5q0 82 -82 82q-39 0 -70 -34t-45.5 -80t-14.5 -91q0 -83 82 -83zM166 -2q-32 35 28 90q30 27 143 112.5t172 121.5l12 -13
q-40 -60 -133.5 -159.5t-129.5 -131.5q-60 -54 -92 -20z" />
    <glyph glyph-name="guilsinglleft" unicode="&#x2039;" horiz-adv-x="318" 
d="M232 97l-50 -35l-151 160l21 75l243 159l30 -41l-182 -162z" />
    <glyph glyph-name="guilsinglright" unicode="&#x203a;" horiz-adv-x="318" 
d="M90 421l50 35l151 -160l-21 -75l-243 -159l-30 41l182 162z" />
    <glyph glyph-name="fraction" unicode="&#x2044;" horiz-adv-x="248" 
d="M146 373q73 96 179.5 208t145.5 112q16 0 28 -12t12 -29q0 -38 -123 -132.5t-230 -160.5zM102 309q-56 -82 -171.5 -203t-153.5 -121q-16 0 -28.5 12t-12.5 28q0 27 70.5 89.5t146 116t137.5 91.5z" />
    <glyph glyph-name="uni2081" unicode="&#x2081;" horiz-adv-x="359" 
d="M177 -4q-7 -23 17 -23h69l-21 -73h-315l21 73h62q24 0 30 23l60 208q-35 -6 -86 -6l19 62q69 4 92 18t43 59h106z" />
    <glyph glyph-name="uni2082" unicode="&#x2082;" horiz-adv-x="415" 
d="M173 -8q24 3 41.5 10.5t27 20t13 19t8.5 19.5h67l-46 -161h-337l13 47q10 9 50.5 40t69.5 55.5t63 57.5t53 63t19 54q0 23 -17 39.5t-53 16.5q-16 0 -33 -5q36 -21 36 -63q0 -27 -19 -45.5t-48 -18.5q-28 0 -47 19.5t-19 48.5q0 52 50.5 90t119.5 38q70 0 112 -34.5
t42 -88.5q0 -61 -59 -114t-185 -117z" />
    <glyph glyph-name="uni2083" unicode="&#x2083;" horiz-adv-x="381" 
d="M329 227q0 -48 -38 -75t-101 -33q49 -7 72 -34.5t23 -64.5q0 -57 -52 -91.5t-122 -34.5q-65 0 -112.5 30t-47.5 82q0 34 19.5 55t49.5 21q26 0 43 -16.5t17 -41.5q0 -23 -13.5 -39t-36.5 -21q21 -11 45 -11q35 0 58 22.5t23 55.5q0 23 -14 39.5t-46 16.5h-17l17 65h30
q33 0 55 20.5t22 50.5q0 24 -16 39.5t-46 15.5q-13 0 -26 -3q22 -17 22 -45q0 -25 -18 -42t-44 -17q-27 0 -44.5 17.5t-17.5 46.5q0 49 49.5 77t113.5 28q65 0 109 -30.5t44 -82.5z" />
    <glyph glyph-name="Euro" unicode="&#x20ac;" horiz-adv-x="768" 
d="M581 466q0 32 19 56.5t50 35.5q-31 45 -100 45q-132 0 -204 -158h192l-24 -86h-198q-8 -37 -11 -63h190l-24 -86h-165q10 -59 44 -92t88 -33q63 0 109.5 41.5t93.5 122.5h92q-68 -140 -150 -200.5t-185 -60.5q-109 0 -184.5 58.5t-93.5 163.5h-92l24 86h64q1 21 9 63h-55
l25 86h60q51 108 150 176.5t217 68.5q109 0 188 -56t79 -144q0 -53 -30.5 -83.5t-77.5 -30.5q-43 0 -71.5 26t-28.5 64z" />
    <glyph glyph-name="uni2116" unicode="&#x2116;" horiz-adv-x="1301" 
d="M1068 273q-85 0 -139 48t-54 129q0 97 72 168t175 71q87 0 142.5 -52.5t55.5 -133.5q0 -96 -73.5 -163t-178.5 -67zM886 680l-27 -94h-57q-31 0 -40 -31l-159 -555h-76l-256 438l-90 -313q-9 -31 22 -31h75l-27 -94h-298l28 94h57q31 0 40 31l123 430q9 31 -22 31h-58
l28 94h220l218 -372l71 247q9 31 -22 31h-70l27 94h293zM1060 335q51 0 88 71.5t37 141.5q0 78 -53 78q-37 0 -67.5 -43.5t-44 -93.5t-13.5 -86q0 -32 14 -50t39 -18zM805 130l24 82h377l-24 -82h-377z" />
    <glyph glyph-name="uni2117" unicode="&#x2117;" horiz-adv-x="787" 
d="M418 -10q-147 0 -247.5 101t-100.5 250q0 147 101 248t247 101q147 0 248 -100.5t101 -248.5q0 -149 -101 -250t-248 -101zM418 47q122 0 205 85t83 209q0 123 -83 207.5t-205 84.5q-121 0 -204 -85t-83 -207q0 -124 83 -209t204 -85zM462 288h-57v-65q0 -17 18 -17h59
v-51h-225v51h31q16 0 16 17v234q0 17 -16 17h-31v52h205q64 0 107 -34t43 -84q0 -52 -42.5 -86t-107.5 -34zM405 474v-137h33q31 0 49.5 19.5t18.5 51.5q0 29 -18.5 47.5t-49.5 18.5h-33z" />
    <glyph glyph-name="uni2120" unicode="&#x2120;" horiz-adv-x="929" 
d="M250 602q0 -20 23 -36.5t50.5 -28t50.5 -36.5t23 -59q0 -49 -46.5 -83.5t-108.5 -34.5q-55 0 -98.5 27t-43.5 72q0 28 18.5 46.5t45.5 16.5q38 -4 38 -40q0 -35 -41 -44q26 -32 69 -32q30 0 45.5 14t15.5 33q0 18 -14.5 31.5t-35.5 24t-41.5 22t-35 32t-14.5 48.5
q0 48 42.5 81t104.5 33q53 0 94.5 -24t41.5 -68q0 -24 -14 -39.5t-40 -15.5q-21 0 -33 10.5t-12 28.5q0 32 34 43q-22 23 -58 23q-28 0 -44 -13.5t-16 -31.5zM842 680h154l-16 -54h-32q-22 0 -28 -23l-56 -194q-7 -23 15 -23h33l-15 -54h-217l15 54h29q24 0 31 23l43 151
l-122 -151h-32l-49 149l-43 -149q-7 -23 15 -23h37l-15 -54h-181l16 54h31q23 0 30 23l56 194q7 23 -17 23h-32l16 54h137l58 -164z" />
    <glyph glyph-name="trademark" unicode="&#x2122;" horiz-adv-x="977" 
d="M531 680l-45 -158h-56q1 7 4 25.5t4 29.5t-0.5 24.5t-9 20t-21.5 6.5h-21l-63 -219q-6 -23 16 -23h35l-16 -54h-212l15 54h34q23 0 29 23l63 219h-22q-17 0 -31.5 -12.5t-21 -24.5t-17 -37t-13.5 -32h-56l46 158h359zM995 624q-21 0 -28 -22l-56 -193q-6 -23 16 -23h33
l-15 -54h-217l15 54h29q24 0 30 23l44 151l-122 -151h-32l-49 149l-43 -149q-7 -23 15 -23h37l-15 -54h-181l15 54h32q23 0 30 23l56 193q6 22 -18 22h-31l16 56h138l57 -164l139 164h154l-16 -56h-33z" />
    <glyph glyph-name="arrowup" unicode="&#x2191;" horiz-adv-x="659" 
d="M100 419l247 261h38l246 -261l-27 -38l-201 98q1 -15 5.5 -88t4.5 -137v-254h-95v254q0 64 4.5 137t5.5 88l-202 -98z" />
    <glyph glyph-name="arrowdown" unicode="&#x2193;" horiz-adv-x="659" 
d="M55 261l26 38l202 -98q-1 15 -5.5 88t-4.5 137v254h95v-254q0 -64 -4.5 -137t-5.5 -88l201 98l27 -38l-246 -261h-38z" />
    <glyph glyph-name="arrowupdn" unicode="&#x2195;" horiz-adv-x="704" 
d="M403 201l201 99l27 -39l-246 -261h-38l-247 261l26 39l202 -99q-1 12 -5.5 50t-4.5 56v66q0 18 4.5 56t5.5 50l-202 -98l-26 38l247 261h38l246 -261l-27 -38l-201 98q1 -12 5.5 -50t4.5 -56v-66q0 -18 -4.5 -56t-5.5 -50z" />
    <glyph glyph-name="uni2196" unicode="&#x2196;" horiz-adv-x="970" 
d="M572 629l8 -46l-212 -73q19 -18 48.5 -43.5t56.5 -50t61 -58.5l273 -273l-68 -67l-271 272q-46 45 -95 100.5t-58 65.5l-72 -211l-46 8l-10 359l26 26z" />
    <glyph glyph-name="uni2197" unicode="&#x2197;" horiz-adv-x="760" 
d="M295 629l359 9l26 -26l-10 -359l-46 -8l-72 211q-9 -10 -58.5 -65.5t-94.5 -100.5l-271 -272l-68 67l273 273q34 34 61 58.5t56.5 50t48.5 43.5l-212 73z" />
    <glyph glyph-name="uni2198" unicode="&#x2198;" horiz-adv-x="970" 
d="M443 58l-8 46l212 73q-19 18 -48.5 43.5t-56.5 50t-61 58.5l-273 273l68 67l271 -272q45 -46 94.5 -101.5t58.5 -64.5l72 211l46 -8l10 -359l-26 -26z" />
    <glyph glyph-name="uni2199" unicode="&#x2199;" horiz-adv-x="759" 
d="M510 57l-359 -9l-26 26l10 359l46 8l72 -211q9 9 58 64.5t95 101.5l271 272l68 -67l-273 -273q-34 -34 -61 -58.5t-56.5 -50t-48.5 -43.5l212 -73z" />
    <glyph glyph-name="minus" unicode="&#x2212;" horiz-adv-x="561" 
d="M61 247l29 101h436l-29 -101h-436z" />
    <glyph glyph-name="approxequal" unicode="&#x2248;" horiz-adv-x="545" 
d="M555 482q-22 -143 -154 -143q-38 0 -94.5 29.5t-89.5 29.5q-19 0 -31.5 -7.5t-18.5 -16.5t-14 -28l-60 22q24 139 153 139q40 0 98.5 -29t86.5 -29q15 0 25 3.5t18 14.5t10 14t10 19zM489 268q-24 -142 -155 -142q-38 0 -94 29t-89 29q-27 0 -40 -12t-24 -39l-61 21
q24 139 154 139q39 0 97.5 -29t87.5 -29q15 0 25 3.5t18 14.5t10 14t10 19z" />
    <glyph glyph-name="notequal" unicode="&#x2260;" horiz-adv-x="561" 
d="M583 576l-102 -118h76l-27 -92h-129l-83 -96h184l-26 -93h-239l-102 -118h-105l102 118h-92l26 93h147l83 96h-202l27 92h255l102 118h105z" />
    <glyph glyph-name="lessequal" unicode="&#x2264;" horiz-adv-x="562" 
d="M587 561l-33 -112l-334 -84l286 -83l-29 -103l-393 146l26 91zM4 46l26 93h436l-26 -93h-436z" />
    <glyph glyph-name="greaterequal" unicode="&#x2265;" horiz-adv-x="562" 
d="M43 179l34 117l334 84l-287 83l28 98l393 -146l-26 -91zM4 46l26 93h436l-26 -93h-436z" />
    <glyph glyph-name="A.fina" horiz-adv-x="1031" 
d="M910 271q40 0 65.5 -27.5t25.5 -72.5q0 -80 -81.5 -130.5t-202.5 -50.5q-67 0 -119.5 16.5t-85.5 46.5t-53 59t-36 67h-226l-16 -54q-9 -31 22 -31h83l-27 -94h-306l28 94h57q31 0 40 31l123 430q9 31 -22 31h-58l28 94h298l183 -472q29 -73 66.5 -102t93.5 -29
q68 0 103 38q-29 6 -48.5 28.5t-19.5 50.5q0 32 24.5 54.5t60.5 22.5zM297 528l-77 -268h173z" />
    <glyph glyph-name="Aacute.fina" horiz-adv-x="1031" 
d="M511 815q-7 -6 -16 -12t-17 -9.5t-23.5 -9.5t-25.5 -9t-34.5 -11t-39.5 -13h-56q46 90 67 125t42 52q27 23 57 22t52 -26q24 -28 21.5 -57.5t-27.5 -51.5zM910 271q40 0 65.5 -27.5t25.5 -72.5q0 -80 -81.5 -130.5t-202.5 -50.5q-67 0 -119.5 16.5t-85.5 46.5t-53 59
t-36 67h-226l-16 -54q-9 -31 22 -31h83l-27 -94h-306l28 94h57q31 0 40 31l123 430q9 31 -22 31h-58l28 94h298l183 -472q29 -73 66.5 -102t93.5 -29q68 0 103 38q-29 6 -48.5 28.5t-19.5 50.5q0 32 24.5 54.5t60.5 22.5zM297 528l-77 -268h173z" />
    <glyph glyph-name="Abreve.fina" horiz-adv-x="1031" 
d="M342 742q-76 0 -108 42.5t-13 127.5h82q1 -33 15 -48.5t46 -15.5q62 0 103 64h91q-60 -170 -216 -170zM910 271q40 0 65.5 -27.5t25.5 -72.5q0 -80 -81.5 -130.5t-202.5 -50.5q-67 0 -119.5 16.5t-85.5 46.5t-53 59t-36 67h-226l-16 -54q-9 -31 22 -31h83l-27 -94h-306
l28 94h57q31 0 40 31l123 430q9 31 -22 31h-58l28 94h298l183 -472q29 -73 66.5 -102t93.5 -29q68 0 103 38q-29 6 -48.5 28.5t-19.5 50.5q0 32 24.5 54.5t60.5 22.5zM297 528l-77 -268h173z" />
    <glyph glyph-name="Acircumflex.fina" horiz-adv-x="1031" 
d="M370 821l-93 -64h-98l175 164q30 27 48 27t32 -27l92 -165h-98zM910 271q40 0 65.5 -27.5t25.5 -72.5q0 -80 -81.5 -130.5t-202.5 -50.5q-67 0 -119.5 16.5t-85.5 46.5t-53 59t-36 67h-226l-16 -54q-9 -31 22 -31h83l-27 -94h-306l28 94h57q31 0 40 31l123 430
q9 31 -22 31h-58l28 94h298l183 -472q29 -73 66.5 -102t93.5 -29q68 0 103 38q-29 6 -48.5 28.5t-19.5 50.5q0 32 24.5 54.5t60.5 22.5zM297 528l-77 -268h173z" />
    <glyph glyph-name="Adieresis.fina" horiz-adv-x="1031" 
d="M244 740q-39 0 -64.5 24.5t-25.5 63.5t26 64.5t64 25.5q39 0 63.5 -24.5t24.5 -64.5t-24.5 -64.5t-63.5 -24.5zM469 740q-39 0 -64.5 24.5t-25.5 63.5t26 64.5t64 25.5q39 0 63.5 -24.5t24.5 -64.5t-24.5 -64.5t-63.5 -24.5zM910 271q40 0 65.5 -27.5t25.5 -72.5
q0 -80 -81.5 -130.5t-202.5 -50.5q-67 0 -119.5 16.5t-85.5 46.5t-53 59t-36 67h-226l-16 -54q-9 -31 22 -31h83l-27 -94h-306l28 94h57q31 0 40 31l123 430q9 31 -22 31h-58l28 94h298l183 -472q29 -73 66.5 -102t93.5 -29q68 0 103 38q-29 6 -48.5 28.5t-19.5 50.5
q0 32 24.5 54.5t60.5 22.5zM297 528l-77 -268h173z" />
    <glyph glyph-name="Agrave.fina" horiz-adv-x="1031" 
d="M318 751q-8 8 -29 27t-27 25t-19 20t-17 22.5t-8 20.5t-4 25q0 33 24 54t55 21q25 0 44.5 -16t27.5 -43q13 -39 13 -156h-60zM910 271q40 0 65.5 -27.5t25.5 -72.5q0 -80 -81.5 -130.5t-202.5 -50.5q-67 0 -119.5 16.5t-85.5 46.5t-53 59t-36 67h-226l-16 -54
q-9 -31 22 -31h83l-27 -94h-306l28 94h57q31 0 40 31l123 430q9 31 -22 31h-58l28 94h298l183 -472q29 -73 66.5 -102t93.5 -29q68 0 103 38q-29 6 -48.5 28.5t-19.5 50.5q0 32 24.5 54.5t60.5 22.5zM297 528l-77 -268h173z" />
    <glyph glyph-name="Amacron.fina" horiz-adv-x="1031" 
d="M542 861l-30 -104h-329l30 104h329zM910 271q40 0 65.5 -27.5t25.5 -72.5q0 -80 -81.5 -130.5t-202.5 -50.5q-67 0 -119.5 16.5t-85.5 46.5t-53 59t-36 67h-226l-16 -54q-9 -31 22 -31h83l-27 -94h-306l28 94h57q31 0 40 31l123 430q9 31 -22 31h-58l28 94h298l183 -472
q29 -73 66.5 -102t93.5 -29q68 0 103 38q-29 6 -48.5 28.5t-19.5 50.5q0 32 24.5 54.5t60.5 22.5zM297 528l-77 -268h173z" />
    <glyph glyph-name="Aogonek.fina" horiz-adv-x="1031" 
d="M1001 171q0 -63 -52 -109q-14 -14 -37 -38q-58 -59 -74.5 -80.5t-16.5 -43.5q0 -31 37 -31q19 0 46 9l-24 -88q-39 -16 -79 -16q-44 0 -69.5 20t-25.5 57q0 35 21 66t94 84q-50 -11 -104 -11q-67 0 -119.5 16.5t-85.5 46.5t-53 59t-36 67h-226l-16 -54q-9 -31 22 -31h83
l-27 -94h-306l28 94h57q31 0 40 31l123 430q9 31 -22 31h-58l28 94h298l183 -472q29 -73 66.5 -102t93.5 -29q68 0 103 38q-29 6 -48.5 28.5t-19.5 50.5q0 32 24.5 54.5t60.5 22.5q40 0 65.5 -27.5t25.5 -72.5zM297 528l-77 -268h173z" />
    <glyph glyph-name="Aring.fina" horiz-adv-x="1031" 
d="M362 726q-53 0 -87 29.5t-34 72.5q0 54 42 90.5t101 36.5q53 0 88 -29t35 -72q0 -53 -42 -90.5t-103 -37.5zM381 895q-24 0 -41.5 -18t-17.5 -44q0 -21 13 -33.5t31 -12.5q24 0 42 19t18 44q0 19 -12.5 32t-32.5 13zM910 271q40 0 65.5 -27.5t25.5 -72.5
q0 -80 -81.5 -130.5t-202.5 -50.5q-67 0 -119.5 16.5t-85.5 46.5t-53 59t-36 67h-226l-16 -54q-9 -31 22 -31h83l-27 -94h-306l28 94h57q31 0 40 31l123 430q9 31 -22 31h-58l28 94h298l183 -472q29 -73 66.5 -102t93.5 -29q68 0 103 38q-29 6 -48.5 28.5t-19.5 50.5
q0 32 24.5 54.5t60.5 22.5zM297 528l-77 -268h173z" />
    <glyph glyph-name="Atilde.fina" horiz-adv-x="1031" 
d="M266 805q-17 0 -28.5 -7t-17 -15.5t-14.5 -27.5l-59 20q15 71 53.5 114.5t104.5 43.5q35 0 85 -28.5t75 -28.5q7 0 13 1.5t10.5 3t9 6t7 6.5t6.5 9t4.5 8t4.5 10l4 8l61 -13q-13 -74 -52.5 -120.5t-107.5 -46.5q-34 0 -82 28.5t-77 28.5zM910 271q40 0 65.5 -27.5
t25.5 -72.5q0 -80 -81.5 -130.5t-202.5 -50.5q-67 0 -119.5 16.5t-85.5 46.5t-53 59t-36 67h-226l-16 -54q-9 -31 22 -31h83l-27 -94h-306l28 94h57q31 0 40 31l123 430q9 31 -22 31h-58l28 94h298l183 -472q29 -73 66.5 -102t93.5 -29q68 0 103 38q-29 6 -48.5 28.5
t-19.5 50.5q0 32 24.5 54.5t60.5 22.5zM297 528l-77 -268h173z" />
    <glyph glyph-name="K.fina" horiz-adv-x="1020" 
d="M259 125q-9 -31 22 -31h65l-27 -94h-366l28 94h57q31 0 40 31l123 430q9 31 -22 31h-58l28 94h351l-27 -94h-51q-31 0 -39 -31zM900 280q40 0 65.5 -30t25.5 -77q0 -73 -74.5 -128t-196.5 -55q-62 0 -111 13t-79.5 30t-57.5 50t-40.5 57t-33.5 67l-58 125l279 225
q28 24 8 28q-3 1 -7 1h-71l27 94h324l-27 -94h-35q-50 0 -89 -31l-231 -182l83 -173q60 -128 185 -128q79 0 113 49q-35 1 -59.5 24.5t-24.5 56.5t25 55.5t60 22.5z" />
    <glyph glyph-name="Kcommaaccent.fina" horiz-adv-x="1020" 
d="M346 94l-27 -94h-366l28 94h57q31 0 40 31l123 430q9 31 -22 31h-58l28 94h351l-27 -94h-51q-31 0 -39 -31l-124 -430q-9 -31 22 -31h65zM900 280q40 0 65.5 -30t25.5 -77q0 -73 -74.5 -128t-196.5 -55q-62 0 -111 13t-79.5 30t-57.5 50t-40.5 57t-33.5 67l-58 125
l279 225q28 24 8 28q-3 1 -7 1h-71l27 94h324l-27 -94h-35q-50 0 -89 -31l-231 -182l83 -173q60 -128 185 -128q79 0 113 49q-35 1 -59.5 24.5t-24.5 56.5t25 55.5t60 22.5zM416 -40q35 0 57 -22t22 -55q0 -67 -57.5 -110t-145.5 -58l-9 37q89 25 104 64q-26 6 -41 23.5
t-15 42.5q0 33 24 55.5t61 22.5z" />
    <glyph glyph-name="R.fina" horiz-adv-x="991" 
d="M871 280q40 0 65.5 -30t25.5 -77q0 -73 -74.5 -128t-195.5 -55q-62 0 -111.5 13t-80.5 31t-58 51t-41 58.5t-34 67.5l-25 54h-26h-18l-39 -140q-9 -31 22 -31h50l-27 -94h-351l28 94h57q31 0 40 31l122 430q9 31 -21 31h-58l28 94h338q112 0 176.5 -47.5t64.5 -132.5
q0 -155 -199 -210l43 -90q35 -73 81.5 -100.5t104.5 -27.5q77 0 113 49q-35 1 -59.5 24.5t-24.5 56.5t24.5 55.5t59.5 22.5zM391 586l-65 -227h55q71 0 116.5 41t45.5 99q0 38 -25 62.5t-74 24.5h-53z" />
    <glyph glyph-name="Racute.fina" horiz-adv-x="991" 
d="M598 815q-7 -6 -16 -12t-17 -9.5t-23.5 -9.5t-25.5 -9t-34.5 -11t-39.5 -13h-56q46 90 67 125t42 52q27 23 57 22t52 -26q24 -28 21.5 -57.5t-27.5 -51.5zM871 280q40 0 65.5 -30t25.5 -77q0 -73 -74.5 -128t-195.5 -55q-62 0 -111.5 13t-80.5 31t-58 51t-41 58.5
t-34 67.5l-25 54h-26h-18l-39 -140q-9 -31 22 -31h50l-27 -94h-351l28 94h57q31 0 40 31l122 430q9 31 -21 31h-58l28 94h338q112 0 176.5 -47.5t64.5 -132.5q0 -155 -199 -210l43 -90q35 -73 81.5 -100.5t104.5 -27.5q77 0 113 49q-35 1 -59.5 24.5t-24.5 56.5t24.5 55.5
t59.5 22.5zM391 586l-65 -227h55q71 0 116.5 41t45.5 99q0 38 -25 62.5t-74 24.5h-53z" />
    <glyph glyph-name="Rcaron.fina" horiz-adv-x="991" 
d="M462 752q-18 0 -32 27l-92 165h98l58 -65l93 64h98l-175 -164q-30 -27 -48 -27zM871 280q40 0 65.5 -30t25.5 -77q0 -73 -74.5 -128t-195.5 -55q-62 0 -111.5 13t-80.5 31t-58 51t-41 58.5t-34 67.5l-25 54h-26h-18l-39 -140q-9 -31 22 -31h50l-27 -94h-351l28 94h57
q31 0 40 31l122 430q9 31 -21 31h-58l28 94h338q112 0 176.5 -47.5t64.5 -132.5q0 -155 -199 -210l43 -90q35 -73 81.5 -100.5t104.5 -27.5q77 0 113 49q-35 1 -59.5 24.5t-24.5 56.5t24.5 55.5t59.5 22.5zM391 586l-65 -227h55q71 0 116.5 41t45.5 99q0 38 -25 62.5
t-74 24.5h-53z" />
    <glyph glyph-name="Rcommaaccent.fina" horiz-adv-x="991" 
d="M871 280q40 0 65.5 -30t25.5 -77q0 -73 -74.5 -128t-195.5 -55q-62 0 -111.5 13t-80.5 31t-58 51t-41 58.5t-34 67.5l-25 54h-26h-18l-39 -140q-9 -31 22 -31h50l-27 -94h-351l28 94h57q31 0 40 31l122 430q9 31 -21 31h-58l28 94h338q112 0 176.5 -47.5t64.5 -132.5
q0 -155 -199 -210l43 -90q35 -73 81.5 -100.5t104.5 -27.5q77 0 113 49q-35 1 -59.5 24.5t-24.5 56.5t24.5 55.5t59.5 22.5zM391 586l-65 -227h55q71 0 116.5 41t45.5 99q0 38 -25 62.5t-74 24.5h-53zM375 -40q35 0 57 -22t22 -55q0 -67 -57.5 -110t-145.5 -58l-9 37
q89 25 104 64q-26 6 -41 23.5t-15 42.5q0 33 24 55.5t61 22.5z" />
    <glyph glyph-name="A.init" horiz-adv-x="1089" 
d="M908 680h277l-27 -94h-58q-31 0 -40 -31l-123 -430q-9 -31 22 -31h57l-26 -94h-383l26 94h83q31 0 40 31l15 54h-226l-4 -4q-83 -87 -159 -135.5t-174 -48.5q-106 0 -167.5 50t-61.5 123q0 48 26.5 78t66.5 30q35 0 59 -22t24 -58q0 -32 -19.5 -53t-50.5 -27
q39 -48 121 -48q104 0 214 113zM620 260h175l76 268z" />
    <glyph glyph-name="Aacute.init" horiz-adv-x="1089" 
d="M1210 924q24 -28 21.5 -57.5t-27.5 -51.5q-7 -6 -16 -12t-17 -9.5t-23.5 -9.5t-25.5 -9t-34.5 -11t-39.5 -13h-56q46 90 67 125t42 52q27 23 57 22t52 -26zM420 177l488 503h277l-27 -94h-58q-31 0 -40 -31l-123 -430q-9 -31 22 -31h57l-26 -94h-383l26 94h83q31 0 40 31
l15 54h-226l-4 -4q-83 -87 -159 -135.5t-174 -48.5q-106 0 -167.5 50t-61.5 123q0 48 26.5 78t66.5 30q35 0 59 -22t24 -58q0 -32 -19.5 -53t-50.5 -27q39 -48 121 -48q104 0 214 113zM620 260h175l76 268z" />
    <glyph glyph-name="Abreve.init" horiz-adv-x="1089" 
d="M1160 912h91q-60 -170 -216 -170q-76 0 -108 42.5t-13 127.5h82q1 -33 15 -48.5t46 -15.5q62 0 103 64zM420 177l488 503h277l-27 -94h-58q-31 0 -40 -31l-123 -430q-9 -31 22 -31h57l-26 -94h-383l26 94h83q31 0 40 31l15 54h-226l-4 -4q-83 -87 -159 -135.5t-174 -48.5
q-106 0 -167.5 50t-61.5 123q0 48 26.5 78t66.5 30q35 0 59 -22t24 -58q0 -32 -19.5 -53t-50.5 -27q39 -48 121 -48q104 0 214 113zM620 260h175l76 268z" />
    <glyph glyph-name="Acircumflex.init" horiz-adv-x="1089" 
d="M1063 821l-93 -64h-98l175 164q30 27 48 27t32 -27l92 -165h-98zM420 177l488 503h277l-27 -94h-58q-31 0 -40 -31l-123 -430q-9 -31 22 -31h57l-26 -94h-383l26 94h83q31 0 40 31l15 54h-226l-4 -4q-83 -87 -159 -135.5t-174 -48.5q-106 0 -167.5 50t-61.5 123
q0 48 26.5 78t66.5 30q35 0 59 -22t24 -58q0 -32 -19.5 -53t-50.5 -27q39 -48 121 -48q104 0 214 113zM620 260h175l76 268z" />
    <glyph glyph-name="Adieresis.init" horiz-adv-x="1089" 
d="M937 740q-39 0 -64.5 24.5t-25.5 63.5t26 64.5t64 25.5q39 0 63.5 -24.5t24.5 -64.5t-24.5 -64.5t-63.5 -24.5zM1162 918q39 0 63.5 -24.5t24.5 -64.5t-24.5 -64.5t-63.5 -24.5t-64.5 24.5t-25.5 63.5t26 64.5t64 25.5zM420 177l488 503h277l-27 -94h-58q-31 0 -40 -31
l-123 -430q-9 -31 22 -31h57l-26 -94h-383l26 94h83q31 0 40 31l15 54h-226l-4 -4q-83 -87 -159 -135.5t-174 -48.5q-106 0 -167.5 50t-61.5 123q0 48 26.5 78t66.5 30q35 0 59 -22t24 -58q0 -32 -19.5 -53t-50.5 -27q39 -48 121 -48q104 0 214 113zM620 260h175l76 268z
" />
    <glyph glyph-name="Agrave.init" horiz-adv-x="1089" 
d="M1011 751q-8 8 -29 27t-27 25t-19 20t-17 22.5t-8 20.5t-4 25q0 33 24 54t55 21q25 0 44.5 -16t27.5 -43q13 -39 13 -156h-60zM908 680h277l-27 -94h-58q-31 0 -40 -31l-123 -430q-9 -31 22 -31h57l-26 -94h-383l26 94h83q31 0 40 31l15 54h-226l-4 -4
q-83 -87 -159 -135.5t-174 -48.5q-106 0 -167.5 50t-61.5 123q0 48 26.5 78t66.5 30q35 0 59 -22t24 -58q0 -32 -19.5 -53t-50.5 -27q39 -48 121 -48q104 0 214 113zM620 260h175l76 268z" />
    <glyph glyph-name="Amacron.init" horiz-adv-x="1089" 
d="M906 861h329l-30 -104h-329zM420 177l488 503h277l-27 -94h-58q-31 0 -40 -31l-123 -430q-9 -31 22 -31h57l-26 -94h-383l26 94h83q31 0 40 31l15 54h-226l-4 -4q-83 -87 -159 -135.5t-174 -48.5q-106 0 -167.5 50t-61.5 123q0 48 26.5 78t66.5 30q35 0 59 -22t24 -58
q0 -32 -19.5 -53t-50.5 -27q39 -48 121 -48q104 0 214 113zM620 260h175l76 268z" />
    <glyph glyph-name="Aogonek.init" horiz-adv-x="1089" 
d="M908 680h277l-27 -94h-58q-31 0 -40 -31l-123 -430q-9 -31 22 -31h57l-26 -94h-146q-40 -42 -53.5 -61.5t-13.5 -38.5q0 -31 37 -31q19 0 46 9l-24 -88q-37 -16 -78 -16q-44 0 -69.5 20t-25.5 57q0 35 21 66t92 83h-169l26 94h83q31 0 40 31l15 54h-226l-4 -4
q-83 -87 -159 -135.5t-174 -48.5q-106 0 -167.5 50t-61.5 123q0 48 26.5 78t66.5 30q35 0 59 -22t24 -58q0 -32 -19.5 -53t-50.5 -27q39 -48 121 -48q104 0 214 113zM620 260h175l76 268z" />
    <glyph glyph-name="Aring.init" horiz-adv-x="1089" 
d="M1055 726q-53 0 -87 29.5t-34 72.5q0 54 42 90.5t101 36.5q53 0 88 -29t35 -72q0 -53 -42 -90.5t-103 -37.5zM1074 895q-24 0 -41.5 -18t-17.5 -44q0 -21 12.5 -33.5t31.5 -12.5q24 0 42 19t18 44q0 19 -12.5 32t-32.5 13zM420 177l488 503h277l-27 -94h-58
q-31 0 -40 -31l-123 -430q-9 -31 22 -31h57l-26 -94h-383l26 94h83q31 0 40 31l15 54h-226l-4 -4q-83 -87 -159 -135.5t-174 -48.5q-106 0 -167.5 50t-61.5 123q0 48 26.5 78t66.5 30q35 0 59 -22t24 -58q0 -32 -19.5 -53t-50.5 -27q39 -48 121 -48q104 0 214 113zM620 260
h175l76 268z" />
    <glyph glyph-name="Atilde.init" horiz-adv-x="1089" 
d="M1217 928l61 -13q-13 -74 -52.5 -120.5t-107.5 -46.5q-34 0 -82 28.5t-77 28.5q-17 0 -28.5 -7t-17 -15.5t-14.5 -27.5l-59 20q15 71 53.5 114.5t104.5 43.5q35 0 85 -28.5t75 -28.5q7 0 13 1.5t10.5 3t9 6t7 6.5t6.5 9t4.5 8t4.5 10zM420 177l488 503h277l-27 -94h-58
q-31 0 -40 -31l-123 -430q-9 -31 22 -31h57l-26 -94h-383l26 94h83q31 0 40 31l15 54h-226l-4 -4q-83 -87 -159 -135.5t-174 -48.5q-106 0 -167.5 50t-61.5 123q0 48 26.5 78t66.5 30q35 0 59 -22t24 -58q0 -32 -19.5 -53t-50.5 -27q39 -48 121 -48q104 0 214 113zM620 260
h175l76 268z" />
    <glyph glyph-name="M.init" horiz-adv-x="1123" 
d="M950 680h269l-27 -94h-57q-31 0 -39 -31l-124 -430q-9 -31 22 -31h57l-27 -94h-343l27 94h43q31 0 40 31l105 365l-265 -358h-63l-86 356l-81 -284q-29 -99 -94.5 -156.5t-152.5 -57.5q-76 0 -126.5 45.5t-50.5 111.5q0 57 29.5 92t74.5 35q38 0 63 -24.5t25 -61.5
q0 -39 -27.5 -67t-68.5 -31q37 -17 78 -17q51 0 90 36t56 95l101 351q9 31 -22 31h-58l28 94h282l81 -309z" />
    <glyph glyph-name="N.init" horiz-adv-x="976" 
d="M789 680h293l-27 -94h-57q-31 0 -40 -31l-159 -555h-74l-257 437l-67 -233q-28 -98 -93.5 -155.5t-153.5 -57.5q-76 0 -126.5 45.5t-50.5 111.5q0 57 29.5 92t74.5 35q38 0 63 -24.5t25 -61.5q0 -39 -27.5 -67t-68.5 -31q37 -17 78 -17q51 0 90 36t56 94l100 351
q9 31 -22 31h-57l27 94h220l219 -372l70 247q9 31 -22 31h-70z" />
    <glyph glyph-name="Nacute.init" horiz-adv-x="976" 
d="M875 815q-7 -6 -16 -12t-17 -9.5t-23.5 -9.5t-25.5 -9t-34.5 -11t-39.5 -13h-56q46 90 67 125t42 52q27 23 57 22t52 -26q24 -28 21.5 -57.5t-27.5 -51.5zM789 680h293l-27 -94h-57q-31 0 -40 -31l-159 -555h-74l-257 437l-67 -233q-28 -98 -93.5 -155.5t-153.5 -57.5
q-76 0 -126.5 45.5t-50.5 111.5q0 57 29.5 92t74.5 35q38 0 63 -24.5t25 -61.5q0 -39 -27.5 -67t-68.5 -31q37 -17 78 -17q51 0 90 36t56 94l100 351q9 31 -22 31h-57l27 94h220l219 -372l70 247q9 31 -22 31h-70z" />
    <glyph glyph-name="Ncaron.init" horiz-adv-x="976" 
d="M739 752q-18 0 -32 27l-92 165h98l58 -65l93 64h98l-175 -164q-30 -27 -48 -27zM789 680h293l-27 -94h-57q-31 0 -40 -31l-159 -555h-74l-257 437l-67 -233q-28 -98 -93.5 -155.5t-153.5 -57.5q-76 0 -126.5 45.5t-50.5 111.5q0 57 29.5 92t74.5 35q38 0 63 -24.5
t25 -61.5q0 -39 -27.5 -67t-68.5 -31q37 -17 78 -17q51 0 90 36t56 94l100 351q9 31 -22 31h-57l27 94h220l219 -372l70 247q9 31 -22 31h-70z" />
    <glyph glyph-name="Ncommaaccent.init" horiz-adv-x="976" 
d="M789 680h293l-27 -94h-57q-31 0 -40 -31l-159 -555h-74l-257 437l-67 -233q-28 -98 -93.5 -155.5t-153.5 -57.5q-76 0 -126.5 45.5t-50.5 111.5q0 57 29.5 92t74.5 35q38 0 63 -24.5t25 -61.5q0 -39 -27.5 -67t-68.5 -31q37 -17 78 -17q51 0 90 36t56 94l100 351
q9 31 -22 31h-57l27 94h220l219 -372l70 247q9 31 -22 31h-70zM490 -40q35 0 57 -22t22 -55q0 -67 -57.5 -110t-145.5 -58l-9 37q89 25 104 64q-26 6 -41 23.5t-15 42.5q0 33 24 55.5t61 22.5z" />
    <glyph glyph-name="Eng.init" horiz-adv-x="976" 
d="M789 680h293l-27 -94h-57q-31 0 -40 -31l-159 -555l-4 -13q-52 -177 -258 -177q-63 0 -96 27.5t-33 73.5q0 31 19.5 51t48.5 20q26 0 44 -16.5t18 -41.5q0 -23 -15 -39.5t-39 -21.5h10q48 0 82.5 25t56.5 99l34 112l-199 338l-67 -233q-28 -98 -93.5 -155.5t-153.5 -57.5
q-76 0 -126.5 45.5t-50.5 111.5q0 57 29.5 92t74.5 35q38 0 63 -24.5t25 -61.5q0 -39 -27.5 -67t-68.5 -31q37 -17 78 -17q51 0 90 36t56 94l100 351q9 31 -22 31h-57l27 94h220l219 -372l70 247q9 31 -22 31h-70z" />
    <glyph glyph-name="Ntilde.init" horiz-adv-x="976" 
d="M630 805q-17 0 -28.5 -7t-17 -15.5t-14.5 -27.5l-59 20q15 71 53.5 114.5t104.5 43.5q35 0 85 -28.5t75 -28.5q7 0 13 1.5t10.5 3t9 6t7 6.5t6.5 9t4.5 8t4.5 10l4 8l61 -13q-13 -74 -52.5 -120.5t-107.5 -46.5q-34 0 -82 28.5t-77 28.5zM789 680h293l-27 -94h-57
q-31 0 -40 -31l-159 -555h-74l-257 437l-67 -233q-28 -98 -93.5 -155.5t-153.5 -57.5q-76 0 -126.5 45.5t-50.5 111.5q0 57 29.5 92t74.5 35q38 0 63 -24.5t25 -61.5q0 -39 -27.5 -67t-68.5 -31q37 -17 78 -17q51 0 90 36t56 94l100 351q9 31 -22 31h-57l27 94h220l219 -372
l70 247q9 31 -22 31h-70z" />
    <glyph glyph-name="Q.init" horiz-adv-x="768" 
d="M823 -56v-1v-4q-2 -77 -60.5 -128t-159.5 -51q-93 0 -170 39t-159 106q-112 -55 -178 -55q-57 0 -94.5 30t-37.5 78q0 45 38 81t126 36q83 0 190 -65q91 79 162.5 198.5t71.5 238.5q0 77 -32.5 116.5t-93.5 39.5q-79 0 -128.5 -72t-49.5 -181q0 -125 88 -248l-23 -29
q-213 84 -227 269q-8 92 33 171.5t124 128t191 48.5q136 0 215 -70.5t79 -202.5q0 -260 -341 -453q6 -4 27 -18.5t28.5 -19.5t26.5 -17.5t28 -17.5t26.5 -15t28 -14.5t26.5 -11t28 -9.5t26.5 -5t28.5 -2q29 0 52 14q-37 5 -60.5 30.5t-23.5 63.5q0 42 28 69.5t70 27.5
t69 -26.5t27 -68.5zM109 -86q45 0 114 32q-82 66 -128 66q-23 0 -38.5 -12t-15.5 -33q0 -23 19.5 -38t48.5 -15z" />
    <glyph glyph-name="T.init" horiz-adv-x="729" 
d="M569 595l-135 -470q-9 -31 22 -31h73l-27 -94h-390l27 94h73q31 0 40 31l135 470h-26q-92 0 -131 -6.5t-52 -23.5q31 -3 51 -24t20 -51q0 -34 -24.5 -56.5t-61.5 -22.5t-60.5 26.5t-23.5 68.5q0 74 61 123t208 51h199q101 0 137.5 6t47.5 24q-30 3 -51 24t-21 51
q0 34 24.5 56.5t61.5 22.5t60.5 -26.5t23.5 -69.5q0 -165 -261 -173z" />
    <glyph glyph-name="Tbar.init" horiz-adv-x="729" 
d="M830 768q0 -165 -261 -173l-72 -249h132l-20 -68h-131l-44 -153q-9 -31 22 -31h73l-27 -94h-390l27 94h73q31 0 40 31l44 153h-119l19 68h119l72 249h-26q-92 0 -131 -6.5t-52 -23.5q31 -3 51 -24t20 -51q0 -34 -24.5 -56.5t-61.5 -22.5t-60.5 26.5t-23.5 68.5
q0 74 61 123t208 51h199q101 0 137.5 6t47.5 24q-30 3 -51 24t-21 51q0 34 24.5 56.5t61.5 22.5t60.5 -26.5t23.5 -69.5z" />
    <glyph glyph-name="Tcaron.init" horiz-adv-x="729" 
d="M509 752q-18 0 -32 27l-92 165h98l58 -65l93 64h98l-175 -164q-30 -27 -48 -27zM569 595l-135 -470q-9 -31 22 -31h73l-27 -94h-390l27 94h73q31 0 40 31l135 470h-26q-92 0 -131 -6.5t-52 -23.5q31 -3 51 -24t20 -51q0 -34 -24.5 -56.5t-61.5 -22.5t-60.5 26.5
t-23.5 68.5q0 74 61 123t208 51h199q101 0 137.5 6t47.5 24q-30 3 -51 24t-21 51q0 34 24.5 56.5t61.5 22.5t60.5 -26.5t23.5 -69.5q0 -165 -261 -173z" />
    <glyph glyph-name="uni0162.init" horiz-adv-x="729" 
d="M569 595l-135 -470q-9 -31 22 -31h73l-27 -94h-166l-34 -53q46 0 74 -19.5t28 -54.5q0 -47 -40 -78.5t-101 -31.5q-48 0 -97 28l26 50q34 -23 69 -23q21 0 35.5 10t14.5 28q0 20 -22.5 28t-61.5 2l-9 32l57 82h-163l27 94h73q31 0 40 31l135 470h-26q-92 0 -131 -6.5
t-52 -23.5q31 -3 51 -24t20 -51q0 -34 -24.5 -56.5t-61.5 -22.5t-60.5 26.5t-23.5 68.5q0 74 61 123t208 51h199q101 0 137.5 6t47.5 24q-30 3 -51 24t-21 51q0 34 24.5 56.5t61.5 22.5t60.5 -26.5t23.5 -69.5q0 -165 -261 -173z" />
    <glyph glyph-name="uni021A.init" horiz-adv-x="729" 
d="M569 595l-135 -470q-9 -31 22 -31h73l-27 -94h-390l27 94h73q31 0 40 31l135 470h-26q-92 0 -131 -6.5t-52 -23.5q31 -3 51 -24t20 -51q0 -34 -24.5 -56.5t-61.5 -22.5t-60.5 26.5t-23.5 68.5q0 74 61 123t208 51h199q101 0 137.5 6t47.5 24q-30 3 -51 24t-21 51
q0 34 24.5 56.5t61.5 22.5t60.5 -26.5t23.5 -69.5q0 -165 -261 -173zM313 -40q35 0 57 -22t22 -55q0 -67 -57.5 -110t-145.5 -58l-9 37q89 25 104 64q-26 6 -41 23.5t-15 42.5q0 33 24 55.5t61 22.5z" />
    <glyph glyph-name="R.ss03" horiz-adv-x="844" 
d="M720 271q40 0 65.5 -29t25.5 -78q0 -73 -57 -123.5t-154 -50.5q-84 0 -128 40t-71 122l-12 35q-16 48 -30 63t-43 15h-18l-39 -140q-9 -31 22 -31h67l-27 -94h-368l28 94h57q31 0 40 31l122 430q9 31 -21 31h-58l28 94h356q99 0 161 -48t62 -131q0 -88 -67.5 -149
t-170.5 -78q53 -26 86 -103l24 -55q8 -16 13.5 -25.5t19 -17.5t31.5 -8q38 0 56 40q-39 2 -61.5 28t-22.5 58q0 34 24.5 57t59.5 23zM381 359q65 0 113.5 41.5t48.5 98.5q0 38 -23.5 62.5t-66.5 24.5h-62l-65 -227h55z" />
    <glyph glyph-name="Racute.ss03" horiz-adv-x="844" 
d="M598 815q-7 -6 -16 -12t-17 -9.5t-23.5 -9.5t-25.5 -9t-34.5 -11t-39.5 -13h-56q46 90 67 125t42 52q27 23 57 22t52 -26q24 -28 21.5 -57.5t-27.5 -51.5zM720 271q40 0 65.5 -29t25.5 -78q0 -73 -57 -123.5t-154 -50.5q-84 0 -128 40t-71 122l-12 35q-16 48 -30 63
t-43 15h-18l-39 -140q-9 -31 22 -31h67l-27 -94h-368l28 94h57q31 0 40 31l122 430q9 31 -21 31h-58l28 94h356q99 0 161 -48t62 -131q0 -88 -67.5 -149t-170.5 -78q53 -26 86 -103l24 -55q8 -16 13.5 -25.5t19 -17.5t31.5 -8q38 0 56 40q-39 2 -61.5 28t-22.5 58
q0 34 24.5 57t59.5 23zM381 359q65 0 113.5 41.5t48.5 98.5q0 38 -23.5 62.5t-66.5 24.5h-62l-65 -227h55z" />
    <glyph glyph-name="Rcaron.ss03" horiz-adv-x="844" 
d="M462 752q-18 0 -32 27l-92 165h98l58 -65l93 64h98l-175 -164q-30 -27 -48 -27zM720 271q40 0 65.5 -29t25.5 -78q0 -73 -57 -123.5t-154 -50.5q-84 0 -128 40t-71 122l-12 35q-16 48 -30 63t-43 15h-18l-39 -140q-9 -31 22 -31h67l-27 -94h-368l28 94h57q31 0 40 31
l122 430q9 31 -21 31h-58l28 94h356q99 0 161 -48t62 -131q0 -88 -67.5 -149t-170.5 -78q53 -26 86 -103l24 -55q8 -16 13.5 -25.5t19 -17.5t31.5 -8q38 0 56 40q-39 2 -61.5 28t-22.5 58q0 34 24.5 57t59.5 23zM381 359q65 0 113.5 41.5t48.5 98.5q0 38 -23.5 62.5
t-66.5 24.5h-62l-65 -227h55z" />
    <glyph glyph-name="Rcommaaccent.ss03" horiz-adv-x="844" 
d="M720 271q40 0 65.5 -29t25.5 -78q0 -73 -57 -123.5t-154 -50.5q-84 0 -128 40t-71 122l-12 35q-16 48 -30 63t-43 15h-18l-39 -140q-9 -31 22 -31h67l-27 -94h-368l28 94h57q31 0 40 31l122 430q9 31 -21 31h-58l28 94h356q99 0 161 -48t62 -131q0 -88 -67.5 -149
t-170.5 -78q53 -26 86 -103l24 -55q8 -16 13.5 -25.5t19 -17.5t31.5 -8q38 0 56 40q-39 2 -61.5 28t-22.5 58q0 34 24.5 57t59.5 23zM381 359q65 0 113.5 41.5t48.5 98.5q0 38 -23.5 62.5t-66.5 24.5h-62l-65 -227h55zM375 -40q35 0 57 -22t22 -55q0 -67 -57.5 -110
t-145.5 -58l-9 37q89 25 104 64q-26 6 -41 23.5t-15 42.5q0 33 24 55.5t61 22.5z" />
    <glyph glyph-name="T.ss03" horiz-adv-x="729" 
d="M569 595l-135 -470q-9 -31 22 -31h73l-27 -94h-390l27 94h73q31 0 40 31l135 470h-26q-92 0 -131 -6.5t-52 -23.5q31 -3 51 -24t20 -51q0 -34 -24.5 -56.5t-61.5 -22.5t-60.5 26.5t-23.5 68.5q0 74 61 123t208 51h199q101 0 137.5 6t47.5 24q-30 3 -51 24t-21 51
q0 34 24.5 56.5t61.5 22.5t60.5 -26.5t23.5 -69.5q0 -165 -261 -173z" />
    <glyph glyph-name="Tbar.ss03" horiz-adv-x="729" 
d="M830 768q0 -165 -261 -173l-72 -249h132l-20 -68h-131l-44 -153q-9 -31 22 -31h73l-27 -94h-390l27 94h73q31 0 40 31l44 153h-119l19 68h119l72 249h-26q-92 0 -131 -6.5t-52 -23.5q31 -3 51 -24t20 -51q0 -34 -24.5 -56.5t-61.5 -22.5t-60.5 26.5t-23.5 68.5
q0 74 61 123t208 51h199q101 0 137.5 6t47.5 24q-30 3 -51 24t-21 51q0 34 24.5 56.5t61.5 22.5t60.5 -26.5t23.5 -69.5z" />
    <glyph glyph-name="Tcaron.ss03" horiz-adv-x="729" 
d="M509 752q-18 0 -32 27l-92 165h98l58 -65l93 64h98l-175 -164q-30 -27 -48 -27zM569 595l-135 -470q-9 -31 22 -31h73l-27 -94h-390l27 94h73q31 0 40 31l135 470h-26q-92 0 -131 -6.5t-52 -23.5q31 -3 51 -24t20 -51q0 -34 -24.5 -56.5t-61.5 -22.5t-60.5 26.5
t-23.5 68.5q0 74 61 123t208 51h199q101 0 137.5 6t47.5 24q-30 3 -51 24t-21 51q0 34 24.5 56.5t61.5 22.5t60.5 -26.5t23.5 -69.5q0 -165 -261 -173z" />
    <glyph glyph-name="uni0162.ss03" horiz-adv-x="729" 
d="M569 595l-135 -470q-9 -31 22 -31h73l-27 -94h-166l-34 -53q46 0 74 -19.5t28 -54.5q0 -47 -40 -78.5t-101 -31.5q-48 0 -97 28l26 50q34 -23 69 -23q21 0 35.5 10t14.5 28q0 20 -22.5 28t-61.5 2l-9 32l57 82h-163l27 94h73q31 0 40 31l135 470h-26q-92 0 -131 -6.5
t-52 -23.5q31 -3 51 -24t20 -51q0 -34 -24.5 -56.5t-61.5 -22.5t-60.5 26.5t-23.5 68.5q0 74 61 123t208 51h199q101 0 137.5 6t47.5 24q-30 3 -51 24t-21 51q0 34 24.5 56.5t61.5 22.5t60.5 -26.5t23.5 -69.5q0 -165 -261 -173z" />
    <glyph glyph-name="uni021A.ss03" horiz-adv-x="729" 
d="M569 595l-135 -470q-9 -31 22 -31h73l-27 -94h-390l27 94h73q31 0 40 31l135 470h-26q-92 0 -131 -6.5t-52 -23.5q31 -3 51 -24t20 -51q0 -34 -24.5 -56.5t-61.5 -22.5t-60.5 26.5t-23.5 68.5q0 74 61 123t208 51h199q101 0 137.5 6t47.5 24q-30 3 -51 24t-21 51
q0 34 24.5 56.5t61.5 22.5t60.5 -26.5t23.5 -69.5q0 -165 -261 -173zM313 -40q35 0 57 -22t22 -55q0 -67 -57.5 -110t-145.5 -58l-9 37q89 25 104 64q-26 6 -41 23.5t-15 42.5q0 33 24 55.5t61 22.5z" />
    <glyph glyph-name="Q.ss04" horiz-adv-x="787" 
d="M336 -10q-130 0 -205 75.5t-74 204.5q1 74 28 147t74.5 134.5t123.5 100t166 38.5q130 0 205.5 -75.5t73.5 -203.5q-1 -75 -28 -149t-75.5 -135t-124 -99t-164.5 -38zM335 77q51 0 94.5 45.5t69 110.5t39.5 129t14 110q-1 60 -29 95.5t-77 35.5q-53 0 -97 -44.5
t-69 -108.5t-38.5 -126t-13.5 -107q1 -65 29.5 -102.5t77.5 -37.5zM281 -65l12 32l297 -38q25 -3 40.5 -20.5t12.5 -40.5q-4 -26 -28.5 -38t-53.5 -1z" />
    <glyph glyph-name="A.ss08" horiz-adv-x="771" 
d="M690 94h31l-27 -94h-362l27 94h61q14 0 22.5 8.5t7.5 21.5l-6 55h-244l-37 -54q-9 -13 -6 -22t18 -9h52l-27 -94h-268l27 94h38q33 0 57 34l340 482l-8 70h183l81 -556q5 -30 40 -30zM255 260h179l-25 224z" />
    <glyph glyph-name="Aacute.ss08" horiz-adv-x="771" 
d="M695 815q-7 -6 -16 -12t-17 -9.5t-23.5 -9.5t-25.5 -9t-34.5 -11t-39.5 -13h-56q46 90 67 125t42 52q27 23 57 22t52 -26q24 -28 21.5 -57.5t-27.5 -51.5zM650 124q5 -30 40 -30h31l-27 -94h-362l27 94h61q14 0 22.5 8.5t7.5 21.5l-6 55h-244l-37 -54q-9 -13 -6 -22
t18 -9h52l-27 -94h-268l27 94h38q33 0 57 34l340 482l-8 70h183zM255 260h179l-25 224z" />
    <glyph glyph-name="Abreve.ss08" horiz-adv-x="771" 
d="M526 742q-76 0 -108 42.5t-13 127.5h82q1 -33 15 -48.5t46 -15.5q62 0 103 64h91q-60 -170 -216 -170zM650 124q5 -30 40 -30h31l-27 -94h-362l27 94h61q14 0 22.5 8.5t7.5 21.5l-6 55h-244l-37 -54q-9 -13 -6 -22t18 -9h52l-27 -94h-268l27 94h38q33 0 57 34l340 482
l-8 70h183zM255 260h179l-25 224z" />
    <glyph glyph-name="Acircumflex.ss08" horiz-adv-x="771" 
d="M554 821l-93 -64h-98l175 164q30 27 48 27t32 -27l92 -165h-98zM690 94h31l-27 -94h-362l27 94h61q14 0 22.5 8.5t7.5 21.5l-6 55h-244l-37 -54q-9 -13 -6 -22t18 -9h52l-27 -94h-268l27 94h38q33 0 57 34l340 482l-8 70h183l81 -556q5 -30 40 -30zM255 260h179l-25 224z
" />
    <glyph glyph-name="Adieresis.ss08" horiz-adv-x="771" 
d="M428 740q-39 0 -64.5 24.5t-25.5 63.5t26 64.5t64 25.5q39 0 63.5 -24.5t24.5 -64.5t-24.5 -64.5t-63.5 -24.5zM653 740q-39 0 -64.5 24.5t-25.5 63.5t26 64.5t64 25.5q39 0 63.5 -24.5t24.5 -64.5t-24.5 -64.5t-63.5 -24.5zM650 124q5 -30 40 -30h31l-27 -94h-362l27 94
h61q14 0 22.5 8.5t7.5 21.5l-6 55h-244l-37 -54q-9 -13 -6 -22t18 -9h52l-27 -94h-268l27 94h38q33 0 57 34l340 482l-8 70h183zM255 260h179l-25 224z" />
    <glyph glyph-name="Agrave.ss08" horiz-adv-x="771" 
d="M502 751q-8 8 -29 27t-27 25t-19 20t-17 22.5t-8 20.5t-4 25q0 33 24 54t55 21q25 0 44.5 -16t27.5 -43q13 -39 13 -156h-60zM690 94h31l-27 -94h-362l27 94h61q14 0 22.5 8.5t7.5 21.5l-6 55h-244l-37 -54q-9 -13 -6 -22t18 -9h52l-27 -94h-268l27 94h38q33 0 57 34
l340 482l-8 70h183l81 -556q5 -30 40 -30zM255 260h179l-25 224z" />
    <glyph glyph-name="Amacron.ss08" horiz-adv-x="771" 
d="M726 861l-30 -104h-329l30 104h329zM650 124q5 -30 40 -30h31l-27 -94h-362l27 94h61q14 0 22.5 8.5t7.5 21.5l-6 55h-244l-37 -54q-9 -13 -6 -22t18 -9h52l-27 -94h-268l27 94h38q33 0 57 34l340 482l-8 70h183zM255 260h179l-25 224z" />
    <glyph glyph-name="Aogonek.ss08" horiz-adv-x="771" 
d="M694 0h-130q-40 -42 -53.5 -61.5t-13.5 -38.5q0 -31 37 -31q19 0 46 9l-24 -88q-39 -16 -79 -16q-44 0 -69.5 20t-25.5 57q0 35 21 66t92 83h-163l27 94h61q14 0 22.5 8.5t7.5 21.5l-6 55h-244l-37 -54q-9 -13 -6 -22t18 -9h52l-27 -94h-268l27 94h38q33 0 57 34l340 482
l-8 70h183l81 -556q5 -30 40 -30h31zM255 260h179l-25 224z" />
    <glyph glyph-name="Aring.ss08" horiz-adv-x="771" 
d="M546 726q-53 0 -87 29.5t-34 72.5q0 54 42 90.5t101 36.5q53 0 88 -29t35 -72q0 -53 -42 -90.5t-103 -37.5zM565 895q-24 0 -41.5 -18t-17.5 -44q0 -21 13 -33.5t31 -12.5q24 0 42 19t18 44q0 19 -12.5 32t-32.5 13zM690 94h31l-27 -94h-362l27 94h61q14 0 22.5 8.5
t7.5 21.5l-6 55h-244l-37 -54q-9 -13 -6 -22t18 -9h52l-27 -94h-268l27 94h38q33 0 57 34l340 482l-8 70h183l81 -556q5 -30 40 -30zM255 260h179l-25 224z" />
    <glyph glyph-name="Atilde.ss08" horiz-adv-x="771" 
d="M450 805q-17 0 -28.5 -7t-17 -15.5t-14.5 -27.5l-59 20q15 71 53.5 114.5t104.5 43.5q35 0 85 -28.5t75 -28.5q7 0 13 1.5t10.5 3t9 6t7 6.5t6.5 9t4.5 8t4.5 10l4 8l61 -13q-13 -74 -52.5 -120.5t-107.5 -46.5q-34 0 -82 28.5t-77 28.5zM650 124q5 -30 40 -30h31
l-27 -94h-362l27 94h61q14 0 22.5 8.5t7.5 21.5l-6 55h-244l-37 -54q-9 -13 -6 -22t18 -9h52l-27 -94h-268l27 94h38q33 0 57 34l340 482l-8 70h183zM255 260h179l-25 224z" />
    <glyph glyph-name="i.loclTRK" horiz-adv-x="406" 
d="M306 565q-42 0 -70 26.5t-28 68.5t28 69.5t70 27.5t68.5 -26.5t26.5 -69.5t-26.5 -69.5t-68.5 -26.5zM331 213h71q-44 -118 -94.5 -170.5t-117.5 -52.5q-68 0 -98.5 45t-6.5 112l90 247q5 15 -0.5 22.5t-15.5 7.5t-19 -8.5t-26 -38t-39 -83.5h-71q48 123 99 174t119 51
q70 0 99 -46t3 -114l-87 -237q-14 -35 13 -35q32 0 81 126z" />
    <glyph glyph-name="k.fina" horiz-adv-x="844" 
d="M122 680h231l-194 -680h-163l158 555q9 31 -22 31h-37zM727 280q40 0 64.5 -27t24.5 -73q0 -75 -64 -132.5t-183 -57.5q-52 0 -94 13t-70 31.5t-53.5 50.5t-40 58.5t-33.5 67.5l-22 48q35 43 50.5 61t50 56.5t58 57.5t56.5 42t64.5 33t63.5 10q48 0 75 -23.5t27 -62.5
q0 -38 -24 -63.5t-60 -25.5q-33 0 -55.5 21t-22.5 49q0 16 6 26q-56 -28 -123 -143l48 -97q63 -128 162 -128q63 0 93 49q-34 0 -59 24t-25 57t24.5 55.5t61.5 22.5z" />
    <glyph glyph-name="kcommaaccent.fina" horiz-adv-x="844" 
d="M122 680h231l-194 -680h-163l158 555q9 31 -22 31h-37zM727 280q40 0 64.5 -27t24.5 -73q0 -75 -64 -132.5t-183 -57.5q-52 0 -94 13t-70 31.5t-53.5 50.5t-40 58.5t-33.5 67.5l-22 48q35 43 50.5 61t50 56.5t58 57.5t56.5 42t64.5 33t63.5 10q48 0 75 -23.5t27 -62.5
q0 -38 -24 -63.5t-60 -25.5q-33 0 -55.5 21t-22.5 49q0 16 6 26q-56 -28 -123 -143l48 -97q63 -128 162 -128q63 0 93 49q-34 0 -59 24t-25 57t24.5 55.5t61.5 22.5zM296 -40q35 0 57 -22t22 -55q0 -67 -57.5 -110t-145.5 -58l-9 37q89 25 104 64q-26 6 -41 23.5t-15 42.5
q0 33 24 55.5t61 22.5z" />
    <glyph glyph-name="y.ss02" horiz-adv-x="647" 
d="M504 509h164l-140 -476q-31 -105 -114.5 -164t-198.5 -59q-92 0 -138.5 36.5t-46.5 89.5q0 38 24.5 62.5t60.5 24.5q32 0 53 -20.5t21 -49.5q0 -48 -51 -69q31 -7 58 -7q128 0 183 156l80 219h-6q-77 -225 -221 -225q-79 0 -112 60.5t0 154.5l51 147q5 20 0.5 27.5
t-14.5 7.5q-9 0 -17 -7.5t-24.5 -36.5t-40.5 -83h-72q49 117 100 169.5t117 52.5q70 0 98.5 -48t2.5 -121l-42 -121q-34 -98 30 -98q19 0 35.5 11t40.5 46.5t54 116t65 204.5z" />
    <glyph glyph-name="yacute.ss02" horiz-adv-x="647" 
d="M378 580q46 90 67 125t42 52q27 23 57 22t52 -26q24 -28 21.5 -57.5t-27.5 -51.5q-7 -6 -16 -12t-17 -9.5t-23.5 -9.5t-25.5 -9t-34.5 -11t-39.5 -13h-56zM504 509h164l-140 -476q-31 -105 -114.5 -164t-198.5 -59q-92 0 -138.5 36.5t-46.5 89.5q0 38 24.5 62.5
t60.5 24.5q32 0 53 -20.5t21 -49.5q0 -48 -51 -69q31 -7 58 -7q128 0 183 156l80 219h-6q-77 -225 -221 -225q-79 0 -112 60.5t0 154.5l51 147q5 20 0.5 27.5t-14.5 7.5q-9 0 -17 -7.5t-24.5 -36.5t-40.5 -83h-72q49 117 100 169.5t117 52.5q70 0 98.5 -48t2.5 -121
l-42 -121q-34 -98 30 -98q19 0 35.5 11t40.5 46.5t54 116t65 204.5z" />
    <glyph glyph-name="ycircumflex.ss02" horiz-adv-x="647" 
d="M356 586h-98l175 164q30 27 48 27t32 -27l92 -165h-98l-58 65zM504 509h164l-140 -476q-31 -105 -114.5 -164t-198.5 -59q-92 0 -138.5 36.5t-46.5 89.5q0 38 24.5 62.5t60.5 24.5q32 0 53 -20.5t21 -49.5q0 -48 -51 -69q31 -7 58 -7q128 0 183 156l80 219h-6
q-77 -225 -221 -225q-79 0 -112 60.5t0 154.5l51 147q5 20 0.5 27.5t-14.5 7.5q-9 0 -17 -7.5t-24.5 -36.5t-40.5 -83h-72q49 117 100 169.5t117 52.5q70 0 98.5 -48t2.5 -121l-42 -121q-34 -98 30 -98q19 0 35.5 11t40.5 46.5t54 116t65 204.5z" />
    <glyph glyph-name="ydieresis.ss02" horiz-adv-x="647" 
d="M323 569q-39 0 -64.5 24.5t-25.5 63.5t26 64.5t64 25.5q39 0 63.5 -24.5t24.5 -64.5t-24.5 -64.5t-63.5 -24.5zM548 569q-39 0 -64.5 24.5t-25.5 63.5t26 64.5t64 25.5q39 0 63.5 -24.5t24.5 -64.5t-24.5 -64.5t-63.5 -24.5zM504 509h164l-140 -476q-31 -105 -114.5 -164
t-198.5 -59q-92 0 -138.5 36.5t-46.5 89.5q0 38 24.5 62.5t60.5 24.5q32 0 53 -20.5t21 -49.5q0 -48 -51 -69q31 -7 58 -7q128 0 183 156l80 219h-6q-77 -225 -221 -225q-79 0 -112 60.5t0 154.5l51 147q5 20 0.5 27.5t-14.5 7.5q-9 0 -17 -7.5t-24.5 -36.5t-40.5 -83h-72
q49 117 100 169.5t117 52.5q70 0 98.5 -48t2.5 -121l-42 -121q-34 -98 30 -98q19 0 35.5 11t40.5 46.5t54 116t65 204.5z" />
    <glyph glyph-name="ygrave.ss02" horiz-adv-x="647" 
d="M457 580h-60q-8 8 -29 27t-27 25t-19 20t-17 22.5t-8 20.5t-4 25q0 33 24 54t55 21q25 0 44.5 -16t27.5 -43q13 -39 13 -156zM504 509h164l-140 -476q-31 -105 -114.5 -164t-198.5 -59q-92 0 -138.5 36.5t-46.5 89.5q0 38 24.5 62.5t60.5 24.5q32 0 53 -20.5t21 -49.5
q0 -48 -51 -69q31 -7 58 -7q128 0 183 156l80 219h-6q-77 -225 -221 -225q-79 0 -112 60.5t0 154.5l51 147q5 20 0.5 27.5t-14.5 7.5q-9 0 -17 -7.5t-24.5 -36.5t-40.5 -83h-72q49 117 100 169.5t117 52.5q70 0 98.5 -48t2.5 -121l-42 -121q-34 -98 30 -98q19 0 35.5 11
t40.5 46.5t54 116t65 204.5z" />
    <glyph glyph-name="f_f_t" horiz-adv-x="1187" 
d="M1069 415l-83 -291q-5 -21 3 -29.5t21 -8.5q41 0 91 127h71q-84 -223 -230 -223q-69 0 -101 44.5t-12 113.5l75 267h-188l-123 -431q-24 -86 -87.5 -130t-140.5 -44q-63 0 -99 29t-36 74q0 35 20.5 56.5t52.5 21.5q29 0 49 -17t20 -47q0 -48 -49 -64q74 1 107 121
l122 431h-218l-123 -431q-24 -86 -87.5 -130t-140.5 -44q-63 0 -99 29t-36 74q0 35 20.5 56.5t52.5 21.5q29 0 49 -17t20 -47q0 -48 -49 -64q74 1 107 121l122 431h-113l26 94h83q29 0 39 29l8 26q25 82 89 125t147 43q72 0 121.5 -29.5t50.5 -80.5q33 54 88.5 82t121.5 28
q72 0 122 -30t50 -82q0 -36 -22.5 -60.5t-61.5 -24.5q-35 0 -56.5 19.5t-21.5 51.5q0 49 44 65q-6 1 -18 1q-39 0 -64 -25t-44 -86l-17 -52h197l128 117h62l-33 -117h122l-27 -94h-122zM548 509q29 0 39 29l5 15q-23 -18 -55 -18q-35 0 -56.5 19.5t-21.5 51.5q0 49 44 65
q-6 1 -18 1q-39 0 -64 -25t-44 -86l-17 -52h188z" />
    <glyph glyph-name="a.smcp" horiz-adv-x="687" 
d="M611 93h26l-27 -93h-332l27 93h56q13 0 19.5 6.5t5.5 17.5l-4 31h-214l-23 -31q-8 -11 -4.5 -17.5t16.5 -6.5h42l-27 -93h-240l26 93h32q27 0 49 26l323 436h133l80 -438q4 -24 36 -24zM225 226h145l-24 167z" />
    <glyph glyph-name="aacute.smcp" horiz-adv-x="687" 
d="M405 626q46 90 67 125t42 52q27 23 57 22t52 -26q24 -28 21.5 -57.5t-27.5 -51.5q-7 -6 -16 -12t-17 -9.5t-23.5 -9.5t-25.5 -9t-34.5 -11t-39.5 -13h-56zM611 93h26l-27 -93h-332l27 93h56q13 0 19.5 6.5t5.5 17.5l-4 31h-214l-23 -31q-8 -11 -4.5 -17.5t16.5 -6.5h42
l-27 -93h-240l26 93h32q27 0 49 26l323 436h133l80 -438q4 -24 36 -24zM225 226h145l-24 167z" />
    <glyph glyph-name="abreve.smcp" horiz-adv-x="687" 
d="M664 787q-60 -170 -216 -170q-76 0 -108 42.5t-13 127.5h82q1 -33 15 -48.5t46 -15.5q62 0 103 64h91zM611 93h26l-27 -93h-332l27 93h56q13 0 19.5 6.5t5.5 17.5l-4 31h-214l-23 -31q-8 -11 -4.5 -17.5t16.5 -6.5h42l-27 -93h-240l26 93h32q27 0 49 26l323 436h133
l80 -438q4 -24 36 -24zM225 226h145l-24 167z" />
    <glyph glyph-name="acircumflex.smcp" horiz-adv-x="687" 
d="M383 632h-98l175 164q30 27 48 27t32 -27l92 -165h-98l-58 65zM611 93h26l-27 -93h-332l27 93h56q13 0 19.5 6.5t5.5 17.5l-4 31h-214l-23 -31q-8 -11 -4.5 -17.5t16.5 -6.5h42l-27 -93h-240l26 93h32q27 0 49 26l323 436h133l80 -438q4 -24 36 -24zM225 226h145l-24 167
z" />
    <glyph glyph-name="adieresis.smcp" horiz-adv-x="687" 
d="M350 615q-39 0 -64.5 24.5t-25.5 63.5t26 64.5t64 25.5q39 0 63.5 -24.5t24.5 -64.5t-24.5 -64.5t-63.5 -24.5zM575 615q-39 0 -64.5 24.5t-25.5 63.5t26 64.5t64 25.5q39 0 63.5 -24.5t24.5 -64.5t-24.5 -64.5t-63.5 -24.5zM611 93h26l-27 -93h-332l27 93h56
q13 0 19.5 6.5t5.5 17.5l-4 31h-214l-23 -31q-8 -11 -4.5 -17.5t16.5 -6.5h42l-27 -93h-240l26 93h32q27 0 49 26l323 436h133l80 -438q4 -24 36 -24zM225 226h145l-24 167z" />
    <glyph glyph-name="agrave.smcp" horiz-adv-x="687" 
d="M484 626h-60q-8 8 -29 27t-27 25t-19 20t-17 22.5t-8 20.5t-4 25q0 33 24 54t55 21q25 0 44.5 -16t27.5 -43q13 -39 13 -156zM611 93h26l-27 -93h-332l27 93h56q13 0 19.5 6.5t5.5 17.5l-4 31h-214l-23 -31q-8 -11 -4.5 -17.5t16.5 -6.5h42l-27 -93h-240l26 93h32
q27 0 49 26l323 436h133l80 -438q4 -24 36 -24zM225 226h145l-24 167z" />
    <glyph glyph-name="amacron.smcp" horiz-adv-x="687" 
d="M319 736h329l-30 -104h-329zM611 93h26l-27 -93h-332l27 93h56q13 0 19.5 6.5t5.5 17.5l-4 31h-214l-23 -31q-8 -11 -4.5 -17.5t16.5 -6.5h42l-27 -93h-240l26 93h32q27 0 49 26l323 436h133l80 -438q4 -24 36 -24zM225 226h145l-24 167z" />
    <glyph glyph-name="aogonek.smcp" horiz-adv-x="687" 
d="M610 0h-112q-39 -40 -51 -56t-12 -33q0 -30 38 -30q14 0 42 8l-27 -98q-45 -15 -79 -15q-47 0 -73.5 21t-26.5 60q0 31 21 61t94 82h-146l27 93h56q13 0 19.5 6.5t5.5 17.5l-4 31h-214l-23 -31q-8 -11 -4.5 -17.5t16.5 -6.5h42l-27 -93h-240l26 93h32q27 0 49 26l323 436
h133l80 -438q4 -24 36 -24h26zM225 226h145l-24 167z" />
    <glyph glyph-name="aring.smcp" horiz-adv-x="687" 
d="M468 601q-53 0 -87 29.5t-34 72.5q0 54 42 90.5t101 36.5q53 0 88 -29t35 -72q0 -53 -42 -90.5t-103 -37.5zM472 662q24 0 42 19t18 44q0 19 -12.5 32t-32.5 13q-24 0 -41.5 -18t-17.5 -44q0 -20 13 -33t31 -13zM611 93h26l-27 -93h-332l27 93h56q13 0 19.5 6.5t5.5 17.5
l-4 31h-214l-23 -31q-8 -11 -4.5 -17.5t16.5 -6.5h42l-27 -93h-240l26 93h32q27 0 49 26l323 436h133l80 -438q4 -24 36 -24zM225 226h145l-24 167z" />
    <glyph glyph-name="atilde.smcp" horiz-adv-x="687" 
d="M691 790q-13 -74 -52.5 -120.5t-107.5 -46.5q-34 0 -82 28.5t-77 28.5q-17 0 -28.5 -7t-17 -15.5t-14.5 -27.5l-59 20q15 71 53.5 114.5t104.5 43.5q35 0 85 -28.5t75 -28.5q7 0 13 1.5t10.5 3t9 6t7 6.5t6.5 9t4.5 8l4.5 9l4 9zM611 93h26l-27 -93h-332l27 93h56
q13 0 19.5 6.5t5.5 17.5l-4 31h-214l-23 -31q-8 -11 -4.5 -17.5t16.5 -6.5h42l-27 -93h-240l26 93h32q27 0 49 26l323 436h133l80 -438q4 -24 36 -24zM225 226h145l-24 167z" />
    <glyph glyph-name="ae.smcp" horiz-adv-x="916" 
d="M897 367h-98q0 3 2 14.5t2.5 14.5t1.5 13t0 13t-2 10.5t-4 10t-8 7.5t-11.5 6.5t-15.5 3t-21 1.5h-118l-52 -171h49q8 0 15 3.5t11.5 7.5t10 13.5t8.5 15t9 19t8 18.5h70l-64 -231h-71q6 18 2.5 42t-24.5 24h-48l-35 -112h126q29 0 49 7t34.5 23.5t21 28.5t18.5 37h98
l-52 -186h-546l25 93h44q25 0 33 25l12 40h-167l-38 -40q-10 -10 -6 -17.5t18 -7.5h46l-25 -93h-273l26 93h32q22 0 49 27l315 318q22 23 -11 23h-39l25 94h621zM281 233h117l51 177z" />
    <glyph glyph-name="b.smcp" horiz-adv-x="622" 
d="M625 422q0 -57 -50 -94.5t-133 -48.5q65 -9 100.5 -40t35.5 -80q0 -69 -68.5 -114t-185.5 -45h-370l26 93h45q29 0 34 20l91 319q4 12 -1.5 20.5t-17.5 8.5h-45l27 94h323q84 0 136.5 -36t52.5 -97zM349 333q46 0 77.5 22t31.5 54q0 25 -17.5 38.5t-48.5 13.5h-59
l-37 -128h53zM290 93q58 0 89 24.5t31 60.5q0 61 -78 61h-63l-41 -146h62z" />
    <glyph glyph-name="c.smcp" horiz-adv-x="637" 
d="M442 382q0 46 38 74q-25 15 -61 15q-49 0 -88 -27t-61 -68t-33 -83.5t-11 -80.5q0 -58 28 -92.5t81 -34.5q29 0 53.5 9.5t47.5 33.5t32 36t32 45h90q-59 -119 -131 -169t-164 -50q-112 0 -183.5 61.5t-71.5 170.5q0 136 104.5 238.5t248.5 102.5q97 0 170 -47t73 -122
q0 -45 -27 -72t-70 -27q-41 0 -69 25t-28 62z" />
    <glyph glyph-name="cacute.smcp" horiz-adv-x="637" 
d="M375 626q46 90 67 125t42 52q27 23 57 22t52 -26q24 -28 21.5 -57.5t-27.5 -51.5q-7 -6 -16 -12t-17 -9.5t-23.5 -9.5t-25.5 -9t-34.5 -11t-39.5 -13h-56zM442 382q0 46 38 74q-25 15 -61 15q-49 0 -88 -27t-61 -68t-33 -83.5t-11 -80.5q0 -58 28 -92.5t81 -34.5
q29 0 53.5 9.5t47.5 33.5t32 36t32 45h90q-59 -119 -131 -169t-164 -50q-112 0 -183.5 61.5t-71.5 170.5q0 136 104.5 238.5t248.5 102.5q97 0 170 -47t73 -122q0 -45 -27 -72t-70 -27q-41 0 -69 25t-28 62z" />
    <glyph glyph-name="ccaron.smcp" horiz-adv-x="637" 
d="M576 818h98l-175 -164q-30 -27 -48 -27t-32 27l-92 165h98l58 -65zM442 382q0 46 38 74q-25 15 -61 15q-49 0 -88 -27t-61 -68t-33 -83.5t-11 -80.5q0 -58 28 -92.5t81 -34.5q29 0 53.5 9.5t47.5 33.5t32 36t32 45h90q-59 -119 -131 -169t-164 -50q-112 0 -183.5 61.5
t-71.5 170.5q0 136 104.5 238.5t248.5 102.5q97 0 170 -47t73 -122q0 -45 -27 -72t-70 -27q-41 0 -69 25t-28 62z" />
    <glyph glyph-name="ccedilla.smcp" horiz-adv-x="637" 
d="M442 382q0 46 38 74q-25 15 -61 15q-49 0 -88 -27t-61 -68t-33 -83.5t-11 -80.5q0 -58 28 -92.5t81 -34.5q29 0 53.5 9.5t47.5 33.5t32 36t32 45h90q-59 -119 -131 -169t-164 -50q-14 0 -21 1l-28 -44q46 0 74 -19.5t28 -54.5q0 -47 -40 -78.5t-101 -31.5q-48 0 -97 28
l26 50q34 -23 69 -23q21 0 35.5 10t14.5 28q0 20 -22.5 28t-61.5 2l-9 32l56 80q-81 19 -129.5 77.5t-48.5 146.5q0 136 104.5 238.5t248.5 102.5q97 0 170 -47t73 -122q0 -45 -27 -72t-70 -27q-41 0 -69 25t-28 62z" />
    <glyph glyph-name="cdotaccent.smcp" horiz-adv-x="637" 
d="M448 611q-42 0 -70 26.5t-28 68.5t28 69.5t70 27.5t68.5 -26.5t26.5 -69.5t-26.5 -69.5t-68.5 -26.5zM442 382q0 46 38 74q-25 15 -61 15q-49 0 -88 -27t-61 -68t-33 -83.5t-11 -80.5q0 -58 28 -92.5t81 -34.5q29 0 53.5 9.5t47.5 33.5t32 36t32 45h90
q-59 -119 -131 -169t-164 -50q-112 0 -183.5 61.5t-71.5 170.5q0 136 104.5 238.5t248.5 102.5q97 0 170 -47t73 -122q0 -45 -27 -72t-70 -27q-41 0 -69 25t-28 62z" />
    <glyph glyph-name="d.smcp" horiz-adv-x="697" 
d="M383 555q129 0 209.5 -60.5t80.5 -167.5q0 -140 -120.5 -233.5t-302.5 -93.5h-297l27 93h49q28 0 33 19l93 320q9 29 -19 29h-50l27 94h270zM270 93q89 0 155 68.5t66 168.5q0 66 -32.5 98.5t-91.5 32.5h-25l-105 -368h33z" />
    <glyph glyph-name="eth.smcp" horiz-adv-x="697" 
d="M383 555q129 0 209.5 -60.5t80.5 -167.5q0 -140 -120.5 -233.5t-302.5 -93.5h-297l27 93h49q28 0 33 19l34 118h-71l29 103h72l29 99q9 29 -19 29h-50l27 94h270zM270 93q89 0 155 68.5t66 168.5q0 66 -32.5 98.5t-91.5 32.5h-25l-37 -128h84l-28 -103h-85l-39 -137h33z
" />
    <glyph glyph-name="dcaron.smcp" horiz-adv-x="697" 
d="M540 818h98l-175 -164q-30 -27 -48 -27t-32 27l-92 165h98l58 -65zM383 555q129 0 209.5 -60.5t80.5 -167.5q0 -140 -120.5 -233.5t-302.5 -93.5h-297l27 93h49q28 0 33 19l93 320q9 29 -19 29h-50l27 94h270zM270 93q89 0 155 68.5t66 168.5q0 66 -32.5 98.5t-91.5 32.5
h-25l-105 -368h33z" />
    <glyph glyph-name="dcroat.smcp" horiz-adv-x="697" 
d="M383 555q129 0 209.5 -60.5t80.5 -167.5q0 -140 -120.5 -233.5t-302.5 -93.5h-297l27 93h49q28 0 33 19l34 118h-71l29 103h72l29 99q9 29 -19 29h-50l27 94h270zM270 93q89 0 155 68.5t66 168.5q0 66 -32.5 98.5t-91.5 32.5h-25l-37 -128h84l-28 -103h-85l-39 -137h33z
" />
    <glyph glyph-name="e.smcp" horiz-adv-x="617" 
d="M463 190h99l-54 -190h-553l25 93h49q26 0 33 23l93 321q7 24 -21 24h-45l24 94h555l-54 -190h-101q9 58 2 75q-12 28 -60 28h-114l-44 -155h48q21 0 33 15.5t27 50.5h65l-63 -222h-64q6 27 1.5 46t-25.5 19h-48l-39 -136h115q25 0 43 5t30 18.5t17 21.5t14 30.5t12 28.5z
" />
    <glyph glyph-name="eacute.smcp" horiz-adv-x="617" 
d="M362 626q46 90 67 125t42 52q27 23 57 22t52 -26q24 -28 21.5 -57.5t-27.5 -51.5q-7 -6 -16 -12t-17 -9.5t-23.5 -9.5t-25.5 -9t-34.5 -11t-39.5 -13h-56zM463 190h99l-54 -190h-553l25 93h49q26 0 33 23l93 321q7 24 -21 24h-45l24 94h555l-54 -190h-101q9 58 2 75
q-12 28 -60 28h-114l-44 -155h48q21 0 33 15.5t27 50.5h65l-63 -222h-64q6 27 1.5 46t-25.5 19h-48l-39 -136h115q25 0 43 5t30 18.5t17 21.5t14 30.5t12 28.5z" />
    <glyph glyph-name="ecaron.smcp" horiz-adv-x="617" 
d="M535 818h98l-175 -164q-30 -27 -48 -27t-32 27l-92 165h98l58 -65zM463 190h99l-54 -190h-553l25 93h49q26 0 33 23l93 321q7 24 -21 24h-45l24 94h555l-54 -190h-101q9 58 2 75q-12 28 -60 28h-114l-44 -155h48q21 0 33 15.5t27 50.5h65l-63 -222h-64q6 27 1.5 46
t-25.5 19h-48l-39 -136h115q25 0 43 5t30 18.5t17 21.5t14 30.5t12 28.5z" />
    <glyph glyph-name="ecircumflex.smcp" horiz-adv-x="617" 
d="M340 632h-98l175 164q30 27 48 27t32 -27l92 -165h-98l-58 65zM463 190h99l-54 -190h-553l25 93h49q26 0 33 23l93 321q7 24 -21 24h-45l24 94h555l-54 -190h-101q9 58 2 75q-12 28 -60 28h-114l-44 -155h48q21 0 33 15.5t27 50.5h65l-63 -222h-64q6 27 1.5 46t-25.5 19
h-48l-39 -136h115q25 0 43 5t30 18.5t17 21.5t14 30.5t12 28.5z" />
    <glyph glyph-name="edieresis.smcp" horiz-adv-x="617" 
d="M307 615q-39 0 -64.5 24.5t-25.5 63.5t26 64.5t64 25.5q39 0 63.5 -24.5t24.5 -64.5t-24.5 -64.5t-63.5 -24.5zM532 615q-39 0 -64.5 24.5t-25.5 63.5t26 64.5t64 25.5q39 0 63.5 -24.5t24.5 -64.5t-24.5 -64.5t-63.5 -24.5zM463 190h99l-54 -190h-553l25 93h49
q26 0 33 23l93 321q7 24 -21 24h-45l24 94h555l-54 -190h-101q9 58 2 75q-12 28 -60 28h-114l-44 -155h48q21 0 33 15.5t27 50.5h65l-63 -222h-64q6 27 1.5 46t-25.5 19h-48l-39 -136h115q25 0 43 5t30 18.5t17 21.5t14 30.5t12 28.5z" />
    <glyph glyph-name="edotaccent.smcp" horiz-adv-x="617" 
d="M435 611q-42 0 -70 26.5t-28 68.5t28 69.5t70 27.5t68.5 -26.5t26.5 -69.5t-26.5 -69.5t-68.5 -26.5zM463 190h99l-54 -190h-553l25 93h49q26 0 33 23l93 321q7 24 -21 24h-45l24 94h555l-54 -190h-101q9 58 2 75q-12 28 -60 28h-114l-44 -155h48q21 0 33 15.5t27 50.5
h65l-63 -222h-64q6 27 1.5 46t-25.5 19h-48l-39 -136h115q25 0 43 5t30 18.5t17 21.5t14 30.5t12 28.5z" />
    <glyph glyph-name="egrave.smcp" horiz-adv-x="617" 
d="M441 626h-60q-8 8 -29 27t-27 25t-19 20t-17 22.5t-8 20.5t-4 25q0 33 24 54t55 21q25 0 44.5 -16t27.5 -43q13 -39 13 -156zM463 190h99l-54 -190h-553l25 93h49q26 0 33 23l93 321q7 24 -21 24h-45l24 94h555l-54 -190h-101q9 58 2 75q-12 28 -60 28h-114l-44 -155h48
q21 0 33 15.5t27 50.5h65l-63 -222h-64q6 27 1.5 46t-25.5 19h-48l-39 -136h115q25 0 43 5t30 18.5t17 21.5t14 30.5t12 28.5z" />
    <glyph glyph-name="emacron.smcp" horiz-adv-x="617" 
d="M276 736h329l-30 -104h-329zM463 190h99l-54 -190h-553l25 93h49q26 0 33 23l93 321q7 24 -21 24h-45l24 94h555l-54 -190h-101q9 58 2 75q-12 28 -60 28h-114l-44 -155h48q21 0 33 15.5t27 50.5h65l-63 -222h-64q6 27 1.5 46t-25.5 19h-48l-39 -136h115q25 0 43 5
t30 18.5t17 21.5t14 30.5t12 28.5z" />
    <glyph glyph-name="eogonek.smcp" horiz-adv-x="617" 
d="M614 365h-101q9 58 2 75q-12 28 -60 28h-114l-44 -155h48q21 0 33 15.5t27 50.5h65l-63 -222h-64q6 27 1.5 46t-25.5 19h-48l-39 -136h115q25 0 43 5t30 18.5t17 21.5t14 30.5t12 28.5h99l-54 -190h-78q-39 -40 -51 -56t-12 -33q0 -30 37 -30q15 0 43 8l-27 -98
q-45 -15 -79 -15q-47 0 -74 21t-27 60q0 31 21 61t94 82h-400l25 93h49q26 0 33 23l93 321q7 24 -21 24h-45l24 94h555z" />
    </font>
</defs>
</svg>
