<?xml version="1.0" standalone="no"?>
<!DOCTYPE svg PUBLIC "-//W3C//DTD SVG 1.1//EN" "http://www.w3.org/Graphics/SVG/1.1/DTD/svg11.dtd" >
<svg xmlns="http://www.w3.org/2000/svg" xmlns:xlink="http://www.w3.org/1999/xlink" version="1.1">
<metadata>
Created by FontForge 20170731 at Tue Oct  4 10:50:58 2016
 By Aleksey,,,
Copyright (c) 2016 by Rene' Bieder. All rights reserved.
</metadata>
<defs>
<font id="Sagona-ExtraLight" horiz-adv-x="596" >
  <font-face 
    font-family="Sagona ExtraLight"
    font-weight="300"
    font-stretch="normal"
    units-per-em="1000"
    panose-1="2 1 0 4 4 1 1 1 1 3"
    ascent="800"
    descent="-200"
    x-height="500"
    cap-height="680"
    bbox="-221 -270 1635 926"
    underline-thickness="50"
    underline-position="-250"
    unicode-range="U+0020-FB02"
  />
<missing-glyph horiz-adv-x="701" 
d="M115 680h471v-680h-471v680zM523 645h-373v-587zM178 35h373v588z" />
    <glyph glyph-name="arrowleft" unicode="&#x3c;&#x2014;" horiz-adv-x="849" 
d="M321 574l12 -11l-167 -206q62 1 123.5 2.5t100.5 2.5t87 1h310v-40h-310q-48 0 -87 1t-100.5 2.5t-123.5 2.5l167 -204l-12 -12l-270 220v20z" />
    <glyph glyph-name="arrowright" unicode="&#x2d;&#x3e;" horiz-adv-x="849" 
d="M517 574l270 -221v-20l-270 -220l-12 12l167 204q-62 -1 -123.5 -2.5t-100.5 -2.5t-87 -1h-310v40h310q48 0 87 -1t100.5 -2.5t123.5 -2.5l-167 206z" />
    <glyph glyph-name="arrowboth" unicode="&#x3c;&#x2014;&#x3e;" horiz-adv-x="916" 
d="M584 574l270 -221v-20l-270 -220l-11 12l166 204q-83 -2 -135.5 -4t-95.5 -2h-111q-43 0 -95.5 2t-135.5 4l166 -204l-11 -12l-270 220v20l270 221l11 -11l-166 -206q83 2 135.5 4t95.5 2h111q43 0 95.5 -2t135.5 -4l-166 206z" />
    <glyph glyph-name="f_f" unicode="ff" horiz-adv-x="687" 
d="M609 690q47 0 80.5 -22t33.5 -54q0 -20 -11.5 -33t-30.5 -13q-17 0 -28.5 11t-11.5 27q0 17 10.5 27.5t29.5 9.5q-25 17 -64 17q-50 0 -78.5 -31.5t-28.5 -83.5v-45h158v-35h-158v-404q0 -15 5.5 -20.5t20.5 -5.5h79v-35h-239v35h59q15 0 20.5 5.5t5.5 20.5v404h-287
v-404q0 -15 5.5 -20.5t20.5 -5.5h79v-35h-239v35h59q15 0 20.5 5.5t5.5 20.5v404h-95v35h69q15 0 20.5 5.5t5.5 20.5v19q0 65 41.5 105t106.5 40q47 0 80.5 -22t33.5 -54q0 -20 -11.5 -33t-30.5 -13q-17 0 -28.5 11t-11.5 27q0 17 10.5 27.5t29.5 9.5q-25 17 -64 17
q-50 0 -78.5 -31.5t-28.5 -83.5v-45h261q15 0 20.5 5.5t5.5 20.5v19q0 65 41.5 105t106.5 40z" />
    <glyph glyph-name="f_f_f" unicode="fff" horiz-adv-x="1023" 
d="M945 690q47 0 80.5 -22t33.5 -54q0 -20 -11.5 -33t-30.5 -13q-17 0 -28.5 11t-11.5 27q0 17 10.5 27.5t29.5 9.5q-25 17 -64 17q-50 0 -78.5 -31.5t-28.5 -83.5v-45h158v-35h-158v-404q0 -15 5.5 -20.5t20.5 -5.5h79v-35h-239v35h59q15 0 20.5 5.5t5.5 20.5v404h-287
v-404q0 -15 5.5 -20.5t20.5 -5.5h79v-35h-239v35h59q15 0 20.5 5.5t5.5 20.5v404h-287v-404q0 -15 5.5 -20.5t20.5 -5.5h79v-35h-239v35h59q15 0 20.5 5.5t5.5 20.5v404h-95v35h69q15 0 20.5 5.5t5.5 20.5v19q0 65 41.5 105t106.5 40q47 0 80.5 -22t33.5 -54
q0 -20 -11.5 -33t-30.5 -13q-17 0 -28.5 11t-11.5 27q0 17 10.5 27.5t29.5 9.5q-25 17 -64 17q-50 0 -78.5 -31.5t-28.5 -83.5v-45h261q15 0 20.5 5.5t5.5 20.5v19q0 65 41.5 105t106.5 40q47 0 80.5 -22t33.5 -54q0 -20 -11.5 -33t-30.5 -13q-17 0 -28.5 11t-11.5 27
q0 17 10.5 27.5t29.5 9.5q-25 17 -64 17q-50 0 -78.5 -31.5t-28.5 -83.5v-45h261q15 0 20.5 5.5t5.5 20.5v19q0 65 41.5 105t106.5 40z" />
    <glyph glyph-name=".notdef" horiz-adv-x="701" 
d="M115 680h471v-680h-471v680zM523 645h-373v-587zM178 35h373v588z" />
    <glyph glyph-name=".null" horiz-adv-x="0" 
 />
    <glyph glyph-name="nonmarkingreturn" horiz-adv-x="333" 
 />
    <glyph glyph-name="space" unicode=" " horiz-adv-x="175" 
 />
    <glyph glyph-name="exclam" unicode="!" horiz-adv-x="258" 
d="M116 220q-18 407 -18 434q0 41 31 41q32 0 32 -41q0 -31 -18 -434h-27zM130 81q18 0 30 -12.5t12 -31.5t-12 -31.5t-30 -12.5q-19 0 -31.5 13t-12.5 32q0 18 12.5 30.5t31.5 12.5z" />
    <glyph glyph-name="quotedbl" unicode="&#x22;" horiz-adv-x="359" 
d="M81 393q-2 58 -5 122t-4.5 99.5t-1.5 44.5q0 31 24 31t24 -31q0 -9 -1.5 -43.5t-4 -101t-4.5 -121.5h-27zM252 393q-2 58 -5 122t-4.5 99.5t-1.5 44.5q0 31 24 31t24 -31q0 -9 -1.5 -43.5t-4 -101t-4.5 -121.5h-27z" />
    <glyph glyph-name="numbersign" unicode="#" horiz-adv-x="600" 
d="M600 470h-115l-52 -250h127v-30h-133l-39 -190h-34l39 190h-222l-39 -190h-34l39 190h-117v30h123l52 250h-135v30h141l37 180h34l-37 -180h222l37 180h34l-37 -180h109v-30zM399 220l52 250h-222l-52 -250h222z" />
    <glyph glyph-name="dollar" unicode="$" horiz-adv-x="583" 
d="M527 174q0 -76 -56.5 -127.5t-155.5 -55.5l1 -119h-38l1 120q-59 3 -104.5 23.5t-70 50.5t-37 60t-12.5 58q0 26 13.5 40.5t33.5 14.5q18 0 29 -11t11 -28q0 -19 -14 -30t-34 -9q14 -51 58 -90t127 -44l2 299q-40 12 -62 20t-54 24.5t-49 33.5t-29.5 45t-12.5 62
q0 76 55 125t150 53l-1 107h38v-108q54 -3 96 -21.5t65.5 -45t35 -53t11.5 -50.5t-12 -36t-31 -12q-18 0 -30 11t-12 28q0 19 13.5 30t32.5 10q-39 100 -170 105l-1 -287q41 -13 63.5 -21t55.5 -25t50.5 -35t30.5 -47t13 -65zM123 520q0 -56 40.5 -86.5t117.5 -55.5l-2 275
q-75 -5 -115.5 -41.5t-40.5 -91.5zM315 26q78 4 120.5 43t42.5 96q0 61 -42 93t-122 58z" />
    <glyph glyph-name="percent" unicode="%" horiz-adv-x="968" 
d="M231 282q-83 0 -137 58t-54 146t54 146t137 58t137 -58t54 -146t-54 -146t-137 -58zM484 363q15 26 97.5 156.5t91.5 142.5q21 27 38 14q19 -13 -1 -40q-2 -2 -51 -67t-100 -131.5t-65 -82.5zM231 310q65 0 105 50.5t40 125.5t-40 125.5t-105 50.5t-105 -50.5t-40 -125.5
t40 -125.5t105 -50.5zM737 -10q-83 0 -137 58t-54 146t54 146t137 58t137 -58t54 -146t-54 -146t-137 -58zM737 18q65 0 105 50.5t40 125.5t-40 125.5t-105 50.5t-105 -50.5t-40 -125.5t40 -125.5t105 -50.5zM465 316q-17 -28 -98.5 -156.5t-89.5 -139.5q-20 -28 -38 -13
q-19 12 1 39q1 2 50 67t99.5 130.5t64.5 81.5z" />
    <glyph glyph-name="ampersand" unicode="&#x26;" horiz-adv-x="603" 
d="M578 383q0 -44 -34 -64.5t-94 -29.5q37 -16 58.5 -48.5t21.5 -74.5q0 -76 -66.5 -126t-168.5 -50q-103 0 -171.5 57.5t-68.5 141.5q0 74 50 127.5t131 63.5q-65 8 -106.5 51t-41.5 101q0 67 54 112.5t136 45.5q85 0 133 -46.5t48 -97.5q0 -26 -13 -39t-32 -13t-30.5 11.5
t-11.5 29.5q0 19 13 30.5t32 12.5q-13 29 -46 52.5t-89 23.5q-64 0 -103 -34.5t-39 -89.5q0 -58 46 -96t118 -38h29v-33h-29q-85 0 -140.5 -49t-55.5 -122q0 -71 55.5 -118.5t139.5 -47.5q80 0 134 40t54 105q0 39 -20 71t-51 44q-4 -1 -11.5 -1.5t-11.5 -0.5
q-37 -2 -59.5 -5t-41.5 -14.5t-19 -31.5v-5q11 9 23 9q15 0 25 -10t10 -24q0 -16 -12.5 -27.5t-29.5 -11.5q-19 0 -32.5 15t-13.5 42q0 86 174 96q28 2 44 3.5t38.5 6.5t33.5 15.5t11 26.5v5q-10 -6 -24 -6q-16 0 -25.5 11t-9.5 26q0 17 12 28t29 11q22 0 35 -16.5t13 -44.5
z" />
    <glyph glyph-name="quotesingle" unicode="'" horiz-adv-x="188" 
d="M81 393q-2 58 -5 122t-4.5 99.5t-1.5 44.5q0 31 24 31t24 -31q0 -9 -1.5 -43.5t-4 -101t-4.5 -121.5h-27z" />
    <glyph glyph-name="parenleft" unicode="(" horiz-adv-x="340" 
d="M283 -103q-103 51 -165.5 160.5t-62.5 276.5t62.5 276.5t165.5 160.5l17 -31q-91 -51 -145 -151t-54 -255q0 -154 54.5 -254.5t144.5 -151.5z" />
    <glyph glyph-name="parenright" unicode=")" horiz-adv-x="330" 
d="M47 -103l-17 31q90 51 144.5 151.5t54.5 254.5q0 155 -54 255t-145 151l17 31q103 -51 165.5 -160.5t62.5 -276.5t-62.5 -276.5t-165.5 -160.5z" />
    <glyph glyph-name="asterisk" unicode="*" horiz-adv-x="496" 
d="M127 429q-20 17 -2 40q14 18 55 55.5t47 43.5l-3 11q-102 23 -136 34q-30 8 -20 34q10 25 37 13q31 -13 124 -64l9 6q-2 14 -6.5 44.5t-7 54.5t-2.5 40q0 29 26 29t26 -29q0 -24 -16 -139l9 -6q81 45 124 64q28 12 37 -13q10 -26 -20 -34q-32 -11 -136 -34l-3 -11
q10 -10 33 -30.5t41 -38t29 -30.5q19 -24 -3 -40q-23 -17 -40 8q-9 12 -22 33t-28.5 48t-22.5 38h-15q-66 -108 -74 -119q-17 -26 -40 -8z" />
    <glyph glyph-name="plus" unicode="+" 
d="M280 281h-200v34h200v203h37v-203h199v-34h-199v-204h-37v204z" />
    <glyph glyph-name="comma" unicode="," horiz-adv-x="218" 
d="M108 79q19 0 31.5 -13t12.5 -40q0 -127 -109 -188l-14 20q30 19 48.5 38t25.5 38t8.5 30.5t0.5 29.5h-5q-20 1 -31 13t-11 29q0 19 12 31t31 12z" />
    <glyph glyph-name="hyphen" unicode="-" horiz-adv-x="376" 
d="M60 282h256v-38h-256v38z" />
    <glyph glyph-name="period" unicode="." horiz-adv-x="218" 
d="M110 80q18 0 30 -12t12 -31t-12 -31.5t-30 -12.5q-19 0 -31.5 12.5t-12.5 31.5t12.5 31t31.5 12z" />
    <glyph glyph-name="slash" unicode="/" horiz-adv-x="409" 
d="M387 776h46l-411 -877h-46z" />
    <glyph glyph-name="zero" unicode="0" horiz-adv-x="621" 
d="M311 -10q-118 0 -192 97.5t-74 252.5q0 156 73.5 253t192.5 97q118 0 191.5 -97t73.5 -253q0 -155 -73.5 -252.5t-191.5 -97.5zM311 25q97 0 153 84.5t56 230.5t-56 230.5t-153 84.5t-154 -84.5t-57 -230.5t57 -230.5t154 -84.5z" />
    <glyph glyph-name="one" unicode="1" horiz-adv-x="451" 
d="M289 35h147v-35h-391v35h142q15 0 20.5 5.5t5.5 20.5v502h-156v30q43 1 71.5 6t44.5 10t26.5 19.5t13.5 23.5t10 33h40v-624q0 -15 5.5 -20.5t20.5 -5.5z" />
    <glyph glyph-name="two" unicode="2" horiz-adv-x="550" 
d="M455 191h35v-191h-434v24q33 33 90.5 87.5t89 84.5t73 75.5t63 77.5t37 71.5t15.5 75.5q0 68 -44.5 113.5t-117.5 45.5t-116.5 -33t-58.5 -75q19 1 33 -10.5t14 -30.5q0 -17 -11.5 -28.5t-30.5 -11.5t-31.5 12.5t-12.5 38.5q0 59 58 116t163 57q92 0 150.5 -54t58.5 -142
q0 -50 -20 -96t-67 -99t-100.5 -102.5t-144.5 -128.5q-23 -20 -35 -30l261 5q22 1 37 8t23 16t13 31.5t6.5 39.5t3.5 53z" />
    <glyph glyph-name="three" unicode="3" horiz-adv-x="524" 
d="M289 350q82 -8 133.5 -55t51.5 -118q0 -82 -61 -134.5t-158 -52.5q-102 0 -158.5 55.5t-56.5 114.5q0 26 13 38.5t32 12.5t30.5 -11t11.5 -29q0 -19 -13.5 -31t-32.5 -12q14 -40 54.5 -71t111.5 -31q79 0 126 41t47 111q0 73 -54 114.5t-148 41.5h-29v32h29q92 0 141 41
t49 105t-44.5 103.5t-119.5 39.5q-67 0 -108 -30t-55 -68q19 0 32.5 -12t13.5 -31q0 -17 -11.5 -28.5t-29.5 -11.5q-20 0 -32.5 13t-12.5 38q0 57 56.5 111t153.5 54q93 0 152 -50t59 -127q0 -64 -47 -109t-126 -54z" />
    <glyph glyph-name="four" unicode="4" horiz-adv-x="549" 
d="M529 192h-126v-131q0 -15 5.5 -20.5t20.5 -5.5h77v-35h-325v35h146q15 0 20.5 5.5t5.5 20.5v131h-333v36q125 141 162.5 215t39.5 200q1 47 32 47t31 -50q0 -192 -230 -412h298v177q22 47 31 95h19v-272h126v-36z" />
    <glyph glyph-name="five" unicode="5" horiz-adv-x="525" 
d="M267 417q94 0 156 -60.5t62 -150.5q0 -93 -64 -154.5t-160 -61.5q-99 0 -157.5 58.5t-58.5 117.5q0 25 13 37.5t32 12.5t30.5 -11t11.5 -28q0 -19 -14 -31.5t-33 -12.5q14 -40 57 -73.5t112 -33.5q78 0 127.5 51t49.5 132q0 77 -48 126.5t-124 49.5q-79 0 -142 -47
l-37 13l24 322l29 7q118 -16 185 -16q76 0 146 18l9 -20q-62 -53 -162 -53q-66 0 -174 24l-18 -262q64 46 148 46z" />
    <glyph glyph-name="six" unicode="6" horiz-adv-x="566" 
d="M308 420q92 0 152.5 -59t60.5 -147q0 -94 -63 -159t-163 -65q-110 0 -177.5 81t-67.5 229q0 105 27.5 191t91 142.5t153.5 56.5q85 0 134 -44t49 -98q0 -50 -43 -50q-19 0 -30.5 11t-11.5 29q0 17 12.5 29.5t29.5 14.5q-10 31 -44 52t-89 21q-116 0 -173.5 -101
t-53.5 -278q24 72 80.5 108t125.5 36zM295 27q74 0 123.5 52t49.5 131q0 76 -49.5 125t-124.5 49q-77 0 -127.5 -50t-50.5 -125q0 -77 50.5 -129.5t128.5 -52.5z" />
    <glyph glyph-name="seven" unicode="7" horiz-adv-x="524" 
d="M50 680h454v-19q-71 -88 -117 -158.5t-72.5 -124t-39.5 -114t-16 -106t-3 -122.5q0 -42 -32 -42q-13 0 -21.5 11t-8.5 31q0 146 70 308.5t194 293.5h-275q-15 0 -27 -2.5t-21.5 -9t-16 -11t-12 -16.5t-8.5 -17t-5.5 -20t-3 -18.5t-2.5 -20.5t-2 -18h-35v175z" />
    <glyph glyph-name="eight" unicode="8" horiz-adv-x="539" 
d="M499 182q1 -85 -65 -138t-168 -53q-97 0 -161.5 51t-64.5 128q0 58 39 105t125 72q-67 29 -105 68t-38 104q0 74 57.5 122.5t145.5 48.5q87 0 142.5 -47t55.5 -119q0 -106 -147 -159q88 -32 135.5 -71t48.5 -112zM107 526q0 -25 10 -45.5t23.5 -34t40 -27.5t45.5 -21.5
t53 -19.5q138 54 138 148q0 56 -43 92.5t-110 36.5q-68 0 -112.5 -36t-44.5 -93zM269 25q79 0 129.5 40.5t50.5 105.5q0 15 -3 28.5t-11.5 25.5t-15.5 21t-23 18.5t-25 15.5t-30 14.5t-30.5 12.5t-34.5 13t-33 12q-75 -22 -115 -65t-39 -96q0 -62 51 -104t129 -42z" />
    <glyph glyph-name="nine" unicode="9" horiz-adv-x="566" 
d="M276 690q110 0 177.5 -81t67.5 -229q0 -105 -27.5 -191t-91 -142.5t-153.5 -56.5q-85 0 -134 44t-49 98q0 50 43 50q19 0 30.5 -11t11.5 -29q0 -17 -12.5 -29.5t-29.5 -14.5q10 -31 44 -52t89 -21q116 0 173.5 101t53.5 278q-24 -72 -80.5 -108t-125.5 -36
q-92 0 -152.5 59t-60.5 147q0 94 63 159t163 65zM277 296q77 0 127.5 50t50.5 125q0 77 -50.5 129.5t-128.5 52.5q-74 0 -123.5 -52t-49.5 -131q0 -76 49.5 -125t124.5 -49z" />
    <glyph glyph-name="colon" unicode=":" horiz-adv-x="218" 
d="M110 505q18 0 30 -12t12 -31t-12 -31.5t-30 -12.5q-19 0 -31.5 12.5t-12.5 31.5t12.5 31t31.5 12zM110 80q18 0 30 -12t12 -31t-12 -31.5t-30 -12.5q-19 0 -31.5 12.5t-12.5 31.5t12.5 31t31.5 12z" />
    <glyph glyph-name="semicolon" unicode=";" horiz-adv-x="218" 
d="M110 505q18 0 30 -12t12 -31t-12 -31.5t-30 -12.5q-19 0 -31.5 12.5t-12.5 31.5t12.5 31t31.5 12zM108 79q19 0 31.5 -13t12.5 -40q0 -127 -109 -188l-14 20q30 19 48.5 38t25.5 38t8.5 30.5t0.5 29.5h-5q-20 1 -31 13t-11 29q0 19 12 31t31 12z" />
    <glyph glyph-name="less" unicode="&#x3c;" 
d="M80 306l416 194v-38l-373 -170l373 -171v-36l-416 193v28z" />
    <glyph glyph-name="equal" unicode="=" 
d="M80 391v34h436v-34h-436zM80 211v34h436v-34h-436z" />
    <glyph glyph-name="greater" unicode="&#x3e;" 
d="M516 306v-28l-416 -193v36l373 171l-373 170v38z" />
    <glyph glyph-name="question" unicode="?" horiz-adv-x="473" 
d="M246 690q88 0 145 -48t57 -123q0 -165 -244 -280l-14 18q33 21 54.5 35.5t52.5 41.5t49 51.5t31.5 59t13.5 70.5q0 62 -42.5 100.5t-110.5 38.5q-69 0 -109 -33t-51 -74q19 1 33.5 -10.5t14.5 -30.5t-12 -30.5t-31 -11.5t-32 13.5t-13 39.5q0 25 11.5 53t34.5 56t65.5 46
t96.5 18zM243 81q18 0 30 -12.5t12 -31.5t-12 -31.5t-30 -12.5q-19 0 -31.5 13t-12.5 32q0 18 12.5 30.5t31.5 12.5z" />
    <glyph glyph-name="at" unicode="@" horiz-adv-x="851" 
d="M618 82q-49 0 -74 25t-23 69q-52 -93 -149 -93q-67 0 -105.5 44t-38.5 120q0 100 57.5 170.5t144.5 70.5q51 0 84 -27.5t44 -74.5l23 96h38l-51 -237q-16 -56 -4 -94.5t59 -38.5q64 0 107.5 67t43.5 166q0 140 -89 227t-230 87q-163 0 -270 -115t-107 -282
q0 -158 98.5 -255.5t257.5 -97.5q147 0 262 86l14 -23q-118 -92 -278 -92q-170 0 -281 105t-111 277q0 181 120 303.5t296 122.5q153 0 254 -94.5t101 -247.5q0 -115 -57 -189.5t-136 -74.5zM382 114q54 0 91.5 36t52.5 83.5t15 97.5q0 60 -28.5 93.5t-78.5 33.5
q-70 0 -116 -61t-46 -148q0 -63 29.5 -99t80.5 -36z" />
    <glyph glyph-name="A" unicode="A" horiz-adv-x="720" 
d="M683 35h37v-35h-241v35h78q34 0 21 31l-58 137h-334l-57 -137q-12 -31 21 -31h84v-35h-234v35h38q34 0 48 34l258 611h28l263 -613q15 -32 48 -32zM199 236h307l-154 367z" />
    <glyph glyph-name="B" unicode="B" horiz-adv-x="618" 
d="M388 352q87 -9 138.5 -55.5t51.5 -115.5q0 -83 -63 -132t-170 -49h-310v35h79q15 0 20.5 5.5t5.5 20.5v558q0 15 -5.5 20.5t-20.5 5.5h-79v35h288q108 0 170.5 -44t62.5 -122q0 -63 -45.5 -105.5t-122.5 -56.5zM193 645v-277h125q81 0 131 42.5t50 104.5q0 61 -47 95.5
t-129 34.5h-130zM345 35q82 0 129 39t47 107q0 63 -49 107.5t-132 44.5h-147v-298h152z" />
    <glyph glyph-name="C" unicode="C" horiz-adv-x="729" 
d="M642 231l36 -8q-26 -111 -100 -172t-184 -61q-146 0 -242.5 100t-96.5 250t96.5 250t243.5 100q66 0 122 -22.5t89 -56t51 -68.5t18 -64q0 -26 -13.5 -38.5t-32.5 -12.5q-20 0 -32 11t-12 29q0 39 48 39q-18 53 -76.5 99.5t-154.5 46.5q-127 0 -206.5 -87t-79.5 -226
t77 -226t200 -87q94 0 158.5 54t90.5 150z" />
    <glyph glyph-name="D" unicode="D" horiz-adv-x="747" 
d="M345 680q150 0 248.5 -95.5t98.5 -244.5t-98.5 -244.5t-248.5 -95.5h-310v35h79q15 0 20.5 5.5t5.5 20.5v558q0 15 -5.5 20.5t-20.5 5.5h-79v35h310zM345 35q124 0 205.5 85.5t81.5 219.5t-81.5 219.5t-205.5 85.5h-152v-610h152z" />
    <glyph glyph-name="E" unicode="E" horiz-adv-x="640" 
d="M540 165h35v-165h-540v35h79q15 0 20.5 5.5t5.5 20.5v558q0 15 -5.5 20.5t-20.5 5.5h-79v35h510v-165h-35q-4 76 -12 94q-18 36 -79 36h-226v-331h162q10 0 17.5 1t13 4.5t9.5 5.5t7 8.5t4.5 9t3 12.5t2 13t1.5 15.5t1 15.5h31v-206h-31q0 4 -1 18t-1.5 17t-2.5 13.5
t-4 13.5t-6.5 9.5t-10 8.5t-14 4t-19.5 2h-162v-244h256q40 0 60 15t24 33.5t6 65.5v5t0.5 5t0.5 6z" />
    <glyph glyph-name="F" unicode="F" horiz-adv-x="605" 
d="M545 680v-165h-35q-4 76 -12 94q-18 36 -79 36h-226v-331h162q10 0 17.5 1.5t13 5t9.5 5t7 8.5t4.5 9.5t3 12t2 12.5t1.5 15.5t1 15.5h31v-206h-31q0 4 -1 14.5t-1 14t-1.5 11.5t-2.5 11.5t-3 9.5t-5 8.5t-7.5 6.5t-9.5 5.5t-12 3t-16 1.5h-162v-218q0 -15 5.5 -20.5
t20.5 -5.5h121v-35h-305v35h79q15 0 20.5 5.5t5.5 20.5v558q0 15 -5.5 20.5t-20.5 5.5h-79v35h510z" />
    <glyph glyph-name="G" unicode="G" horiz-adv-x="787" 
d="M415 283h317v-35h-45q-15 0 -20.5 -5.5t-5.5 -20.5v-222h-28l-21 90q-81 -100 -218 -100q-146 0 -242.5 100t-96.5 249q0 151 97 251t243 100q127 0 203.5 -67.5t76.5 -133.5q0 -26 -13.5 -38.5t-32.5 -12.5q-20 0 -32 11t-12 29q0 39 48 39q-18 50 -75.5 93t-155.5 43
q-127 0 -206.5 -87t-79.5 -226t77 -226t200 -87q141 0 215 115v80q0 15 -5.5 20.5t-20.5 5.5h-167v35z" />
    <glyph glyph-name="H" unicode="H" horiz-adv-x="755" 
d="M641 645q-15 0 -20.5 -5.5t-5.5 -20.5v-558q0 -15 5.5 -20.5t20.5 -5.5h79v-35h-252v35h69q15 0 20.5 5.5t5.5 20.5v221h-370v-221q0 -15 5.5 -20.5t20.5 -5.5h69v-35h-253v35h79q15 0 20.5 5.5t5.5 20.5v558q0 15 -5.5 20.5t-20.5 5.5h-79v35h253v-35h-69
q-15 0 -20.5 -5.5t-5.5 -20.5v-302h370v302q0 15 -5.5 20.5t-20.5 5.5h-69v35h252v-35h-79z" />
    <glyph glyph-name="I" unicode="I" horiz-adv-x="389" 
d="M247 645q-15 0 -20.5 -5.5t-5.5 -20.5v-558q0 -15 5.5 -20.5t20.5 -5.5h97v-35h-299v35h98q15 0 20.5 5.5t5.5 20.5v558q0 15 -5.5 20.5t-20.5 5.5h-98v35h299v-35h-97z" />
    <glyph glyph-name="J" unicode="J" horiz-adv-x="523" 
d="M149 680h359v-35h-87q-15 0 -20.5 -5.5t-5.5 -20.5v-444q0 -82 -53.5 -133.5t-135.5 -51.5q-74 0 -121.5 38t-47.5 86q0 21 11.5 34.5t30.5 13.5q18 0 29 -10t11 -27t-11 -27.5t-30 -10.5q9 -27 39.5 -44.5t77.5 -17.5q66 0 107 41t41 109v444q0 15 -5.5 20.5t-20.5 5.5
h-168v35z" />
    <glyph glyph-name="K" unicode="K" horiz-adv-x="730" 
d="M35 0v35h79q15 0 20.5 5.5t5.5 20.5v558q0 15 -5.5 20.5t-20.5 5.5h-79v35h253v-35h-69q-15 0 -20.5 -5.5t-5.5 -20.5v-558q0 -15 5.5 -20.5t20.5 -5.5h69v-35h-253zM400 0v35h95q28 0 7 27l-236 270l261 289q21 24 -9 24h-109v35h278v-35h-41q-48 0 -73 -28l-248 -276
l233 -270q30 -36 80 -36h72v-35h-310z" />
    <glyph glyph-name="L" unicode="L" horiz-adv-x="605" 
d="M515 186h35v-186h-515v35h79q15 0 20.5 5.5t5.5 20.5v558q0 15 -5.5 20.5t-20.5 5.5h-79v35h300v-35h-116q-15 0 -20.5 -5.5t-5.5 -20.5v-584h231q25 0 41.5 6.5t25.5 14t14 29t6 34.5t3 48q1 12 1 19z" />
    <glyph glyph-name="M" unicode="M" horiz-adv-x="896" 
d="M782 645q-15 0 -20.5 -5.5t-5.5 -20.5v-558q0 -15 5.5 -20.5t20.5 -5.5h79v-35h-253v35h69q15 0 20.5 5.5t5.5 20.5v560l-248 -440h-21l-255 439v-559q0 -15 5.5 -20.5t20.5 -5.5h79v-35h-249v35h79q15 0 20.5 5.5t5.5 20.5v558q0 15 -5.5 20.5t-20.5 5.5h-79v35h166
l251 -436l246 436h163v-35h-79z" />
    <glyph glyph-name="N" unicode="N" horiz-adv-x="765" 
d="M735 680v-35h-84q-15 0 -20.5 -5.5t-5.5 -20.5v-619h-19l-427 615v-554q0 -15 5.5 -20.5t20.5 -5.5h79v-35h-249v35h79q15 0 20.5 5.5t5.5 20.5v558q0 15 -5.5 20.5t-20.5 5.5h-79v35h154l397 -567v506q0 15 -5.5 20.5t-20.5 5.5h-79v35h254z" />
    <glyph glyph-name="O" unicode="O" horiz-adv-x="784" 
d="M392 690q145 0 241 -100.5t96 -249.5q0 -148 -96 -249t-241 -101t-241 101t-96 249q0 149 96 249.5t241 100.5zM392 27q123 0 200 88t77 225t-77 225t-200 88t-199.5 -88t-76.5 -225t76.5 -225t199.5 -88z" />
    <glyph glyph-name="P" unicode="P" horiz-adv-x="615" 
d="M325 269h-132v-208q0 -15 5.5 -20.5t20.5 -5.5h136v-35h-320v35h79q15 0 20.5 5.5t5.5 20.5v558q0 15 -5.5 20.5t-20.5 5.5h-79v35h290q116 0 185.5 -59t69.5 -148q0 -87 -69.5 -145.5t-185.5 -58.5zM193 645v-342h132q93 0 145.5 50t52.5 120q0 71 -52.5 121.5
t-145.5 50.5h-132z" />
    <glyph glyph-name="Q" unicode="Q" horiz-adv-x="794" 
d="M729 340q0 -148 -96 -249t-241 -101t-241 101t-96 249q0 149 96 249.5t241 100.5t241 -100.5t96 -249.5zM116 340q0 -137 76.5 -225t199.5 -88t200 88t77 225t-77 225t-200 88t-199.5 -88t-76.5 -225zM684 -74q18 0 30 -12t12 -31q0 -28 -23.5 -48t-59.5 -20
q-49 0 -121 59q-5 5 -20 17.5t-19.5 16.5t-15.5 12t-17 11t-14.5 5.5t-17.5 2.5q-19 0 -33 -10q12 -1 21 -10t9 -23q0 -16 -11 -26.5t-28 -10.5q-18 0 -29.5 12.5t-11.5 30.5q0 27 23 45.5t58 18.5q52 0 124 -63q9 -8 23.5 -20.5t21.5 -18.5t17 -13t20 -9.5t21 -2.5
q22 0 36 14q-15 1 -24.5 11t-9.5 23q0 17 11.5 28t27.5 11z" />
    <glyph glyph-name="R" unicode="R" horiz-adv-x="688" 
d="M618 35h67v-35h-166l-103 208q-22 45 -55.5 60t-90.5 15h-77v-222q0 -15 5.5 -20.5t20.5 -5.5h89v-35h-273v35h79q15 0 20.5 5.5t5.5 20.5v558q0 15 -5.5 20.5t-20.5 5.5h-79v35h290q119 0 189.5 -52.5t70.5 -134.5q0 -80 -57.5 -136t-151.5 -70q70 -19 105 -93l62 -124
q10 -20 27 -27.5t48 -7.5zM193 318h132q95 0 149 50.5t54 123.5q0 65 -54 109t-149 44h-132v-327z" />
    <glyph glyph-name="S" unicode="S" horiz-adv-x="568" 
d="M127 521q0 -53 40 -86t96.5 -50.5t113 -38t96.5 -63t40 -109.5q0 -80 -59.5 -132t-160.5 -52q-62 0 -110.5 19.5t-75 50.5t-39.5 62.5t-13 60.5q0 28 14 42.5t35 14.5q18 0 29.5 -11t11.5 -28q0 -20 -14.5 -31.5t-34.5 -9.5q13 -54 59.5 -94t136.5 -40q81 0 126 39.5
t45 100.5q0 56 -40 91t-96.5 52.5t-113 36.5t-96.5 59.5t-40 105.5q0 79 57.5 129t154.5 50q107 0 163 -55t56 -114q0 -51 -44 -51q-18 0 -30 11.5t-12 28.5q0 19 13.5 30.5t32.5 11.5q-39 103 -171 103q-80 0 -125 -37.5t-45 -96.5z" />
    <glyph glyph-name="T" unicode="T" horiz-adv-x="655" 
d="M605 680v-185h-35q-4 87 -12 108q-17 42 -79 42h-125v-584q0 -15 5.5 -20.5t20.5 -5.5h116v-35h-337v35h116q15 0 20.5 5.5t5.5 20.5v584h-125q-25 0 -41.5 -6.5t-25.5 -14t-14 -28.5t-6 -34.5t-3 -47.5v-6.5t-0.5 -6t-0.5 -6.5h-35v185h555z" />
    <glyph glyph-name="U" unicode="U" horiz-adv-x="697" 
d="M682 680v-35h-69q-15 0 -20.5 -5.5t-5.5 -20.5v-409q0 -98 -63.5 -159t-169.5 -61q-109 0 -176.5 62.5t-67.5 157.5v409q0 15 -5.5 20.5t-20.5 5.5h-69v35h255v-35h-81q-15 0 -20.5 -5.5t-5.5 -20.5v-409q0 -80 52.5 -131.5t140.5 -51.5q87 0 139.5 50.5t52.5 132.5v409
q0 15 -5.5 20.5t-20.5 5.5h-75v35h235z" />
    <glyph glyph-name="V" unicode="V" horiz-adv-x="710" 
d="M479 680h231v-35h-36q-20 0 -30 -6.5t-17 -23.5l-258 -615h-25l-262 615q-12 30 -47 30h-35v35h241v-35h-85q-12 0 -16 -8t1 -19l222 -536l224 538q5 10 0.5 17.5t-15.5 7.5h-93v35z" />
    <glyph glyph-name="W" unicode="W" horiz-adv-x="1081" 
d="M850 680h231v-35h-40q-34 0 -46 -30l-221 -615h-25l-206 576l-197 -576h-25l-235 616q-11 29 -47 29h-39v35h241v-35h-76q-33 0 -21 -33l195 -516l179 518q5 14 -1.5 22.5t-22.5 8.5h-90v35h283v-35h-84q-15 0 -21.5 -9t-1.5 -23l186 -517l187 517q11 32 -21 32h-82v35z
" />
    <glyph glyph-name="X" unicode="X" horiz-adv-x="705" 
d="M641 645q-35 0 -56 -28l-205 -270l197 -277q25 -35 60 -35h53v-35h-251v35h63q14 0 18 8t-4 20l-171 243l-182 -243q-9 -12 -5 -20t18 -8h70v-35h-231v35h50q35 0 56 28l204 272l-196 275q-26 35 -60 35h-54v35h251v-35h-62q-14 0 -17.5 -7.5t3.5 -20.5l170 -242l182 242
q9 12 5 20t-18 8h-70v35h231v-35h-49z" />
    <glyph glyph-name="Y" unicode="Y" horiz-adv-x="649" 
d="M393 680h256v-35h-57q-37 0 -53 -30l-192 -330v-224q0 -15 5.5 -20.5t20.5 -5.5h79v-35h-263v35h79q15 0 20.5 5.5t5.5 20.5v224l-187 332q-15 28 -51 28h-56v35h266v-35h-83q-34 0 -18 -31l162 -297l171 299q8 14 3.5 21.5t-20.5 7.5h-88v35z" />
    <glyph glyph-name="Z" unicode="Z" horiz-adv-x="577" 
d="M497 191h35v-191h-482v15l402 632h-300q-19 0 -32 -7t-20 -16t-11 -29t-5.5 -35.5t-2.5 -46.5q-1 -14 -1 -21h-35v188h475v-15l-401 -631h306q23 0 37.5 8.5t21 29.5t8.5 40t4 57q1 15 1 22z" />
    <glyph glyph-name="bracketleft" unicode="[" horiz-adv-x="346" 
d="M108 776h218v-32h-176v-813h176v-32h-218v877z" />
    <glyph glyph-name="backslash" unicode="\" horiz-adv-x="409" 
d="M22 776l411 -877h-46l-411 877h46z" />
    <glyph glyph-name="bracketright" unicode="]" horiz-adv-x="346" 
d="M238 776v-877h-218v32h176v813h-176v32h218z" />
    <glyph glyph-name="asciicircum" unicode="^" horiz-adv-x="395" 
d="M292 441l-94 201l-93 -201h-39l118 239h28l117 -239h-37z" />
    <glyph glyph-name="underscore" unicode="_" horiz-adv-x="394" 
d="M0 -95h394v-35h-394v35z" />
    <glyph glyph-name="grave" unicode="`" horiz-adv-x="242" 
d="M176 577l-16 -14q-97 85 -130 125q-21 26 2 45t45 -6q15 -17 99 -150z" />
    <glyph glyph-name="a" unicode="a" horiz-adv-x="543" 
d="M461 35h55v-35h-115l-12 77q-21 -40 -64 -63.5t-97 -23.5q-80 0 -131.5 43.5t-51.5 109.5t51.5 109t131.5 43q53 0 95 -21.5t63 -59.5v118q0 66 -39 104.5t-105 38.5q-78 0 -118 -44q15 -2 25 -14t10 -27q0 -18 -12 -30t-30 -12q-19 0 -31 12.5t-12 32.5q0 44 52 79
t126 35q84 0 133.5 -47t49.5 -128v-271q0 -15 5.5 -20.5t20.5 -5.5zM239 26q61 0 104 33.5t43 84.5q0 50 -43 83.5t-104 33.5q-62 0 -102 -33.5t-40 -84.5q0 -50 40 -83.5t102 -33.5z" />
    <glyph glyph-name="b" unicode="b" horiz-adv-x="612" 
d="M342 507q101 0 165.5 -72.5t64.5 -185.5q0 -114 -64.5 -186.5t-165.5 -72.5q-64 0 -118.5 33.5t-83.5 97.5l-20 -121h-25v619q0 15 -5.5 20.5t-20.5 5.5h-64v35h139v-305q28 64 81 98t117 34zM333 26q83 0 135 61.5t52 161.5q0 99 -52 160.5t-135 61.5
q-84 0 -136.5 -61.5t-52.5 -160.5q0 -100 52 -161.5t137 -61.5z" />
    <glyph glyph-name="c" unicode="c" horiz-adv-x="541" 
d="M468 162l33 -7q-19 -79 -75 -122t-137 -43q-110 0 -179.5 73t-69.5 185q0 113 72 186t179 73q90 0 147 -50.5t57 -110.5q0 -22 -11.5 -34.5t-29.5 -12.5q-20 0 -32 10.5t-12 28.5t13.5 29t30.5 11h1q-15 42 -54.5 68t-102.5 26q-95 0 -150 -61t-55 -161t54 -161.5
t147 -61.5q68 0 112.5 35t61.5 100z" />
    <glyph glyph-name="d" unicode="d" horiz-adv-x="632" 
d="M543 35h59v-35h-134v121q-28 -64 -81 -97.5t-117 -33.5q-101 0 -165.5 72.5t-64.5 186.5q0 113 64.5 185.5t165.5 72.5q64 0 117 -34t81 -97v243q0 15 -5.5 20.5t-20.5 5.5h-64v35h139v-619q0 -15 5.5 -20.5t20.5 -5.5zM279 26q85 0 137 61.5t52 161.5q0 99 -52.5 160.5
t-136.5 61.5q-83 0 -135 -61.5t-52 -160.5q0 -100 52 -161.5t135 -61.5z" />
    <glyph glyph-name="e" unicode="e" horiz-adv-x="529" 
d="M93 239q2 -93 53.5 -152.5t134.5 -59.5q64 0 108 35t62 94l33 -8q-21 -72 -75.5 -115t-133.5 -43q-103 0 -169 73t-66 183q0 111 66.5 186t167.5 75q98 0 156.5 -72t58.5 -185v-11h-396zM275 474q-76 0 -125.5 -57t-55.5 -146h341q-5 94 -45.5 148.5t-114.5 54.5z" />
    <glyph glyph-name="f" unicode="f" horiz-adv-x="351" 
d="M273 690q47 0 80.5 -22t33.5 -54q0 -20 -11.5 -33t-30.5 -13q-17 0 -28.5 11t-11.5 27q0 17 10.5 27.5t29.5 9.5q-25 17 -64 17q-50 0 -78.5 -31.5t-28.5 -83.5v-45h158v-35h-158v-404q0 -15 5.5 -20.5t20.5 -5.5h79v-35h-239v35h59q15 0 20.5 5.5t5.5 20.5v404h-95v35
h69q15 0 20.5 5.5t5.5 20.5v19q0 65 41.5 105t106.5 40z" />
    <glyph glyph-name="g" unicode="g" horiz-adv-x="517" 
d="M333 85q67 0 109.5 -35t42.5 -88q0 -68 -62 -110t-156 -42q-99 0 -161.5 37t-62.5 100q0 38 24 66.5t66 39.5q-29 10 -46 30.5t-17 46.5q0 29 19.5 49t52.5 29q-71 49 -71 133q0 72 54.5 119t140.5 47q71 0 123 -34q45 21 54 61h-1q-19 0 -29.5 12t-10.5 28q0 17 12 29
t31 12q18 0 31 -13t13 -37q0 -33 -22 -62t-60 -44q54 -48 54 -118q0 -73 -54.5 -120.5t-140.5 -47.5q-55 0 -98 20q-58 -10 -58 -57q0 -22 19.5 -36.5t49.5 -14.5h154zM266 476q-62 0 -101 -37.5t-39 -98.5q0 -60 39 -98t101 -38t101.5 38t39.5 98q0 61 -39.5 98.5
t-101.5 37.5zM268 -153q73 0 122.5 30.5t49.5 80.5q0 37 -29 60.5t-78 23.5h-151q-41 0 -66.5 -25.5t-25.5 -62.5q0 -50 49 -78.5t129 -28.5z" />
    <glyph glyph-name="h" unicode="h" horiz-adv-x="624" 
d="M538 35h59v-35h-209v35h49q15 0 20.5 5.5t5.5 20.5v284q0 52 -36 86.5t-89 34.5q-64 0 -111.5 -44.5t-54.5 -126.5v-234q0 -15 5.5 -20.5t20.5 -5.5h49v-35h-209v35h59q15 0 20.5 5.5t5.5 20.5v558q0 15 -5.5 20.5t-20.5 5.5h-59v35h134v-296q25 57 72.5 90t107.5 33
q68 0 114 -45t46 -112v-289q0 -15 5.5 -20.5t20.5 -5.5z" />
    <glyph glyph-name="i" unicode="i" horiz-adv-x="299" 
d="M163 585q-19 0 -31.5 12t-12.5 31t12.5 31.5t31.5 12.5q18 0 30 -12.5t12 -31.5t-12 -31t-30 -12zM210 35h64v-35h-229v35h64q15 0 20.5 5.5t5.5 20.5v378q0 15 -5.5 20.5t-20.5 5.5h-64v35h139v-439q0 -15 5.5 -20.5t20.5 -5.5z" />
    <glyph glyph-name="j" unicode="j" horiz-adv-x="273" 
d="M167 672q18 0 30 -12.5t12 -31.5t-12 -31t-30 -12q-19 0 -31.5 12t-12.5 31t12.5 31.5t31.5 12.5zM48 465v35h139v-555q0 -63 -33 -99t-90 -36q-44 0 -73 22t-29 54q0 19 11.5 31.5t29.5 12.5q17 0 28 -10t11 -28q0 -17 -11.5 -26.5t-29.5 -8.5q20 -20 52 -20
q85 0 85 108v494q0 15 -5.5 20.5t-20.5 5.5h-64z" />
    <glyph glyph-name="k" unicode="k" horiz-adv-x="584" 
d="M167 61q0 -15 5.5 -20.5t20.5 -5.5h59v-35h-214v35h54q15 0 20.5 5.5t5.5 20.5v558q0 15 -5.5 20.5t-20.5 5.5h-54v35h129v-619zM540 35h24v-35h-223v35h62q34 0 11 26l-195 215l181 167q10 9 7 15.5t-16 6.5h-90v35h243v-35h-40q-32 0 -63 -29l-169 -155l195 -214
q29 -32 73 -32z" />
    <glyph glyph-name="l" unicode="l" horiz-adv-x="314" 
d="M215 35h69v-35h-239v35h69q15 0 20.5 5.5t5.5 20.5v558q0 15 -5.5 20.5t-20.5 5.5h-69v35h144v-619q0 -15 5.5 -20.5t20.5 -5.5z" />
    <glyph glyph-name="m" unicode="m" horiz-adv-x="901" 
d="M815 35h59v-35h-209v35h49q15 0 20.5 5.5t5.5 20.5v289q0 52 -28 84t-78 32q-69 0 -109.5 -53.5t-40.5 -141.5v-210q0 -15 5.5 -20.5t20.5 -5.5h54v-35h-204v35h49q15 0 20.5 5.5t5.5 20.5v289q0 52 -28.5 84t-77.5 32q-69 0 -109.5 -53.5t-40.5 -141.5v-210
q0 -15 5.5 -20.5t20.5 -5.5h49v-35h-209v35h59q15 0 20.5 5.5t5.5 20.5v378q0 15 -5.5 20.5t-20.5 5.5h-59v35h134v-116q20 58 61 90.5t99 32.5q57 0 96 -34.5t47 -89.5q20 59 62 91.5t100 32.5q65 0 105 -43t40 -109v-294q0 -15 5.5 -20.5t20.5 -5.5z" />
    <glyph glyph-name="n" unicode="n" horiz-adv-x="631" 
d="M545 35h59v-35h-209v35h49q15 0 20.5 5.5t5.5 20.5v284q0 52 -35.5 86.5t-89.5 34.5q-68 0 -117 -51t-49 -144v-210q0 -15 5.5 -20.5t20.5 -5.5h49v-35h-209v35h59q15 0 20.5 5.5t5.5 20.5v378q0 15 -5.5 20.5t-20.5 5.5h-59v35h134v-118q25 57 73 91t108 34
q68 0 113.5 -45t45.5 -112v-289q0 -15 5.5 -20.5t20.5 -5.5z" />
    <glyph glyph-name="o" unicode="o" horiz-adv-x="571" 
d="M286 507q104 0 174.5 -72.5t70.5 -183.5q0 -112 -70.5 -186.5t-174.5 -74.5t-175 74.5t-71 186.5q0 111 71 183.5t175 72.5zM286 23q85 0 139 63.5t54 164.5q0 100 -53.5 161.5t-139.5 61.5t-139.5 -61.5t-53.5 -161.5q0 -101 54 -164.5t139 -63.5z" />
    <glyph glyph-name="p" unicode="p" horiz-adv-x="647" 
d="M377 507q101 0 165.5 -72.5t64.5 -185.5q0 -114 -64.5 -186.5t-165.5 -72.5q-64 0 -117 33.5t-81 97.5v-240q0 -15 5.5 -20.5t20.5 -5.5h94v-35h-254v35h59q15 0 20.5 5.5t5.5 20.5v558q0 15 -5.5 20.5t-20.5 5.5h-59v35h134v-124q28 63 81 97t117 34zM368 26
q83 0 135 61.5t52 161.5q0 99 -52 160.5t-135 61.5q-84 0 -136.5 -61.5t-52.5 -160.5q0 -100 52 -161.5t137 -61.5z" />
    <glyph glyph-name="q" unicode="q" horiz-adv-x="622" 
d="M543 465q-15 0 -20.5 -5.5t-5.5 -20.5v-558q0 -15 5.5 -20.5t20.5 -5.5h54v-35h-244v35h89q15 0 20.5 5.5t5.5 20.5v239q-28 -63 -81 -96.5t-116 -33.5q-102 0 -166.5 73t-64.5 185q0 115 64.5 187t166.5 72q64 0 118 -33t82 -96l17 122h109v-35h-54zM279 26
q84 0 136.5 61.5t52.5 160.5q0 100 -52 161.5t-137 61.5q-83 0 -134.5 -61t-51.5 -162q0 -99 51.5 -160.5t134.5 -61.5z" />
    <glyph glyph-name="r" unicode="r" horiz-adv-x="445" 
d="M343 507q39 0 60.5 -17t21.5 -42q0 -20 -12 -32.5t-31 -12.5q-17 0 -28.5 11t-11.5 28q0 22 14 30q-5 1 -16 1q-69 0 -114 -62.5t-52 -181.5v-168q0 -15 5.5 -20.5t20.5 -5.5h99v-35h-254v35h54q15 0 20.5 5.5t5.5 20.5v378q0 15 -5.5 20.5t-20.5 5.5h-54v35h129v-149
q43 156 169 156z" />
    <glyph glyph-name="s" unicode="s" horiz-adv-x="464" 
d="M111 383q0 -38 31.5 -61.5t76.5 -35.5t89.5 -26t76 -45.5t31.5 -82.5q0 -66 -48 -104t-128 -38q-84 0 -138 39t-54 89q0 22 11.5 34.5t29.5 12.5q17 0 28 -10.5t11 -28.5q0 -17 -10.5 -27.5t-29.5 -10.5q17 -30 56.5 -48.5t89.5 -18.5q63 0 99.5 28t36.5 75
q0 42 -31.5 67t-76.5 37.5t-90 25.5t-76.5 42.5t-31.5 78.5q0 61 45.5 96.5t126.5 35.5q78 0 125 -31t47 -73q0 -21 -11.5 -33.5t-29.5 -12.5q-17 0 -28 10.5t-11 27.5q0 15 10.5 25t27.5 12q-31 44 -122 44q-64 0 -98.5 -25.5t-34.5 -67.5z" />
    <glyph glyph-name="t" unicode="t" horiz-adv-x="340" 
d="M209 -10q-50 0 -84.5 32t-34.5 78v365h-80v35h8q46 0 64 19.5t37 80.5h20v-100h164v-35h-164v-365q0 -31 22.5 -52.5t54.5 -21.5q29 0 51 19t30 50l28 -9q-11 -43 -42.5 -69.5t-73.5 -26.5z" />
    <glyph glyph-name="u" unicode="u" horiz-adv-x="595" 
d="M516 35h59v-35h-134v117q-25 -58 -73 -92t-108 -34q-68 0 -114 45.5t-46 112.5v295q-1 13 -6 17t-19 4h-60v35h134v-346q0 -52 36 -86.5t89 -34.5q68 0 117.5 51t49.5 144v211q0 15 -5.5 20.5t-20.5 5.5h-51v35h126v-439q0 -15 5.5 -20.5t20.5 -5.5z" />
    <glyph glyph-name="v" unicode="v" horiz-adv-x="588" 
d="M399 500h182v-35h-31q-34 0 -47 -30l-193 -435h-27l-194 438q-13 27 -41 27h-40v35h237v-35h-84q-31 0 -19 -25l160 -371v1l163 367q13 28 -17 28h-49v35z" />
    <glyph glyph-name="w" unicode="w" horiz-adv-x="871" 
d="M657 500h207v-35h-35q-31 0 -42 -30l-168 -435h-27l-149 406l-149 -406h-27l-176 436q-12 29 -42 29h-41v35h243v-35h-89q-13 0 -18 -7.5t0 -18.5l142 -365l133 365q4 12 -0.5 19t-16.5 7h-64v35h222v-35h-64q-11 0 -16.5 -7.5t-1.5 -18.5l133 -365l139 364q5 12 0 19.5
t-18 7.5h-75v35z" />
    <glyph glyph-name="x" unicode="x" horiz-adv-x="572" 
d="M502 35h50v-35h-220v35h52q14 0 18 6.5t-3 16.5l-120 161l-128 -161q-7 -8 -4.5 -15.5t16.5 -7.5h59v-35h-197v35h33q29 0 44 19l156 195l-148 198q-12 18 -43 18h-47v35h226v-35h-65q-11 0 -15.5 -5.5t2.5 -16.5l117 -159l130 160q7 8 4 14.5t-16 6.5h-47v35h186v-35
h-36q-29 0 -48 -23l-152 -188l146 -193q12 -15 22 -20.5t28 -5.5z" />
    <glyph glyph-name="y" unicode="y" horiz-adv-x="587" 
d="M398 500h182v-35h-30q-34 0 -48 -32l-207 -476q-34 -77 -71.5 -112t-90.5 -35q-41 0 -70 22t-29 54q0 20 12 33t31 13q17 0 28.5 -11t11.5 -28q0 -16 -10 -26.5t-26 -11.5q20 -15 47 -15q44 0 74 28.5t58 94.5l20 46l-191 429q-13 27 -41 27h-40v35h236v-35h-82
q-30 0 -20 -25l162 -375l160 371q13 29 -17 29h-49v35z" />
    <glyph glyph-name="z" unicode="z" horiz-adv-x="510" 
d="M422 154h33v-154h-390v17l324 451h-213q-54 0 -67.5 -22t-16.5 -84q-1 -10 -1 -16h-33v154h393v-19l-322 -449h207q54 0 68 22.5t17 83.5q1 10 1 16z" />
    <glyph glyph-name="braceleft" unicode="{" horiz-adv-x="377" 
d="M106 338v-2q93 -10 93 -107v-187q0 -60 34.5 -85.5t123.5 -25.5v-33q-115 1 -161.5 34t-44.5 110l6 187q1 43 -22.5 67.5t-69.5 24.5h-45v32h45q46 0 69.5 24.5t22.5 67.5l-6 187q-2 77 44.5 110t161.5 34v-33q-89 0 -123.5 -25.5t-34.5 -85.5v-187q0 -97 -93 -107z" />
    <glyph glyph-name="bar" unicode="|" horiz-adv-x="235" 
d="M100 776h35v-877h-35v877z" />
    <glyph glyph-name="braceright" unicode="}" horiz-adv-x="377" 
d="M312 353h45v-32h-45q-46 0 -69.5 -24.5t-22.5 -67.5l6 -187q2 -77 -44.5 -110t-161.5 -34v33q89 0 123.5 25.5t34.5 85.5v187q0 97 93 107v2q-93 10 -93 107v187q0 60 -34.5 85.5t-123.5 25.5v33q115 -1 161.5 -34t44.5 -110l-6 -187q-1 -43 22.5 -67.5t69.5 -24.5z" />
    <glyph glyph-name="asciitilde" unicode="~" 
d="M492 350q-20 -87 -99 -87q-39 0 -101.5 33t-94.5 33q-51 0 -67 -56l-26 10q21 85 99 85q40 0 104.5 -33t92.5 -33q48 0 65 56z" />
    <glyph glyph-name="exclamdown" unicode="&#xa1;" horiz-adv-x="258" 
d="M130 419q-19 0 -31.5 12.5t-12.5 30.5q0 19 12.5 32t31.5 13q18 0 30 -12.5t12 -31.5t-12 -31.5t-30 -12.5zM116 280h27q18 -403 18 -434q0 -41 -32 -41q-31 0 -31 41q0 27 18 434z" />
    <glyph glyph-name="cent" unicode="&#xa2;" horiz-adv-x="521" 
d="M448 162l33 -7q-19 -79 -72.5 -122t-130.5 -43q-31 0 -63 8l-22 -82l-33 10l24 83q-66 28 -105 92t-39 147q0 113 69 186t171 73q12 0 34 -2l23 87l34 -10l-23 -85q58 -18 93 -61.5t35 -89.5q0 -22 -12 -34.5t-29 -12.5q-20 0 -31.5 10.5t-11.5 28.5q0 19 12.5 29.5
t30.5 10.5h1q-26 68 -97 88l-115 -430q28 -9 60 -9q64 0 106.5 35t57.5 100zM94 250q0 -70 26.5 -123t74.5 -79l110 423q-6 1 -17 1q-90 0 -142 -61t-52 -161z" />
    <glyph glyph-name="sterling" unicode="&#xa3;" horiz-adv-x="622" 
d="M558 160l29 -9q-36 -161 -161 -161q-29 0 -64.5 14t-54.5 26t-59 39q-42 -79 -116 -79q-42 0 -69.5 22.5t-27.5 58.5t27 61t71 25q39 0 96 -33q10 48 -4 87.5t-47 90.5h-124v35h102q-51 81 -51 148q0 87 62 146t164 59q100 0 156.5 -49.5t56.5 -103.5q0 -20 -12 -33
t-30 -13q-19 0 -31 10.5t-12 27.5q0 18 13.5 28.5t31.5 11.5q-17 34 -58 60t-109 26q-84 0 -133.5 -46t-49.5 -113q0 -27 11.5 -58t21 -47.5t32.5 -53.5h284v-35h-263q60 -102 24 -198q36 -22 54.5 -32t50 -21t57.5 -11q31 0 54 10t38 30.5t23 37t17 42.5zM131 22
q59 0 87 67q-56 35 -89 35q-25 0 -41.5 -14t-16.5 -36q0 -23 16.5 -37.5t43.5 -14.5z" />
    <glyph glyph-name="currency" unicode="&#xa4;" horiz-adv-x="544" 
d="M394 233q90 -72 101 -83q20 -20 2 -38q-18 -16 -37 3q-11 10 -23.5 25.5t-31.5 39t-29 36.5q-44 -36 -104 -36q-61 0 -105 36q-82 -100 -83 -101q-20 -20 -37 -3q-18 18 2 38q10 10 25.5 23t39 31t36.5 29q-40 45 -40 107t40 107q-13 11 -36.5 29t-39 31t-25.5 23
q-20 20 -2 38q18 16 37 -3q10 -10 23 -25.5t31 -39t29 -36.5q44 36 105 36q60 0 104 -36q73 89 84 101q19 21 37 3t-2 -38q-13 -13 -50 -42t-51 -41q40 -45 40 -107t-40 -107zM272 213q52 0 88 36.5t36 90.5t-36 90.5t-88 36.5t-88 -36.5t-36 -90.5t36 -90.5t88 -36.5z" />
    <glyph glyph-name="yen" unicode="&#xa5;" horiz-adv-x="649" 
d="M393 680h256v-35h-57q-34 0 -53 -30l-185 -303h195v-35h-202v-85h202v-35h-202v-96q0 -15 5.5 -20.5t20.5 -5.5h94v-35h-293v35h94q15 0 20.5 5.5t5.5 20.5v96h-193v35h193v85h-193v35h186l-180 305q-15 28 -51 28h-56v35h266v-35h-83q-17 0 -21.5 -8.5t3.5 -22.5
l162 -281l171 283q8 14 3.5 21.5t-20.5 7.5h-88v35z" />
    <glyph glyph-name="brokenbar" unicode="&#xa6;" horiz-adv-x="235" 
d="M100 776h35v-371h-35v371zM100 275h35v-376h-35v376z" />
    <glyph glyph-name="section" unicode="&#xa7;" horiz-adv-x="531" 
d="M481 282q0 -71 -82 -106q15 -26 15 -59q0 -57 -42 -92t-113 -35q-78 0 -123.5 41.5t-45.5 85.5q0 21 13 35t31 14q17 0 28.5 -11.5t11.5 -28.5q0 -15 -12.5 -25.5t-29.5 -12.5q36 -68 122 -68q54 0 85 24t31 64q0 38 -33 67t-80 49t-94 41.5t-80 56.5t-33 82q0 71 82 106
q-12 22 -12 53q0 58 42.5 92.5t112.5 34.5q73 0 116.5 -41t43.5 -84q0 -21 -11.5 -33.5t-29.5 -12.5q-17 0 -28.5 10t-11.5 26t12 26t30 11q-37 68 -116 68q-52 0 -84 -24t-32 -64q0 -38 32.5 -66t79 -47.5t93.5 -40t79.5 -55t32.5 -81.5zM386 196q50 25 50 74
q0 42 -35.5 72.5t-81 46.5t-98 42.5t-76.5 57.5q-50 -26 -50 -74q0 -41 35 -72t80 -47.5t98 -43t78 -56.5z" />
    <glyph glyph-name="dieresis" unicode="&#xa8;" horiz-adv-x="346" 
d="M79 585q-19 0 -31.5 12t-12.5 31t12.5 31.5t31.5 12.5q18 0 30 -12.5t12 -31.5t-12 -31t-30 -12zM269 585q-19 0 -31.5 12t-12.5 31t12.5 31.5t31.5 12.5q18 0 30 -12.5t12 -31.5t-12 -31t-30 -12z" />
    <glyph glyph-name="copyright" unicode="&#xa9;" horiz-adv-x="757" 
d="M378 690q147 0 248 -100.5t101 -248.5q0 -149 -101 -250t-248 -101t-247.5 101t-100.5 250q0 147 101 248t247 101zM378 17q135 0 227.5 94t92.5 230q0 135 -92.5 229t-227.5 94q-132 0 -225.5 -94t-93.5 -229t93.5 -229.5t225.5 -94.5zM499 411q0 23 27 28
q-12 30 -44 54t-87 24q-74 0 -118.5 -47.5t-44.5 -129.5q0 -81 43 -128.5t116 -47.5q111 0 144 118l25 -7q-15 -66 -59.5 -103t-111.5 -37q-88 0 -145 58t-57 147q0 90 57.5 147.5t145.5 57.5q76 0 123.5 -43t47.5 -84q0 -16 -9.5 -25.5t-22.5 -9.5q-12 0 -21 8t-9 20z" />
    <glyph glyph-name="ordfeminine" unicode="&#xaa;" horiz-adv-x="451" 
d="M377 311h39v-29h-90l-8 61q-16 -32 -49 -50.5t-75 -18.5q-62 0 -99 34.5t-37 88.5q0 53 37 87t99 34q86 0 122 -65v94q0 55 -28.5 86t-78.5 31q-66 0 -94 -37q28 -2 28 -31q0 -14 -9 -23t-23 -9t-23 10t-9 25q0 35 39 63t97 28q66 0 104 -38t38 -104v-217q0 -12 4.5 -16
t15.5 -4zM207 303q46 0 77.5 27t31.5 68q0 40 -31.5 66.5t-77.5 26.5q-48 0 -76 -26.5t-28 -67.5t28 -67.5t76 -26.5zM83 153v33h318v-33h-318z" />
    <glyph glyph-name="guillemotleft" unicode="&#xab;" horiz-adv-x="475" 
d="M245 79l-17 -17l-188 182v30l188 182l17 -17l-160 -178zM435 79l-17 -17l-188 182v30l188 182l17 -17l-160 -178z" />
    <glyph glyph-name="registered" unicode="&#xae;" horiz-adv-x="531" 
d="M265 690q101 0 168.5 -68t67.5 -168q0 -101 -68 -169.5t-168 -68.5t-167.5 68.5t-67.5 169.5q0 100 67.5 168t167.5 68zM265 242q89 0 149.5 61t60.5 151q0 89 -60.5 150t-149.5 61q-88 0 -148 -61t-60 -150q0 -90 60 -151t148 -61zM345 369q5 -11 25 -11h28v-22h-75
l-33 70q-8 17 -18 21.5t-32 4.5h-12v-65q0 -9 11 -9h38v-22h-120v22h27q10 0 10 9v186q0 10 -10 10h-27v22h116q41 0 67.5 -22t26.5 -54q0 -27 -19 -47.5t-50 -26.5q19 -12 28 -31zM228 454h41q28 0 45 16t17 39t-17 38.5t-45 15.5h-41v-109z" />
    <glyph glyph-name="macron" unicode="&#xaf;" horiz-adv-x="370" 
d="M58 642h255v-41h-255v41z" />
    <glyph glyph-name="degree" unicode="&#xb0;" horiz-adv-x="360" 
d="M180 385q-64 0 -107 44t-43 109t43 108.5t107 43.5t107 -43.5t43 -108.5t-43 -109t-107 -44zM180 419q49 0 81.5 34t32.5 85q0 50 -32.5 84.5t-81.5 34.5t-81.5 -34.5t-32.5 -84.5q0 -51 32.5 -85t81.5 -34z" />
    <glyph glyph-name="plusminus" unicode="&#xb1;" 
d="M280 367h-200v33h200v169h37v-169h199v-33h-199v-169h-37v169zM80 76v34h436v-34h-436z" />
    <glyph glyph-name="uni00B2" unicode="&#xb2;" horiz-adv-x="302" 
d="M252 414h30v-104h-256v24q25 26 73 71t67 64.5t36.5 50.5t17.5 59q0 37 -22 60.5t-60 23.5q-61 0 -84 -49q13 -1 21 -9.5t8 -19.5q0 -13 -9 -22t-22 -9q-14 0 -23 9.5t-9 26.5q0 35 34.5 67.5t97.5 32.5q52 0 86.5 -29.5t34.5 -81.5q0 -23 -8.5 -45t-20 -38.5
t-34.5 -37.5t-41 -34.5t-51 -39t-54 -41.5l144 4q28 1 35 14.5t9 52.5z" />
    <glyph glyph-name="uni00B3" unicode="&#xb3;" horiz-adv-x="296" 
d="M165 501q51 -5 81 -30.5t30 -64.5q0 -45 -35.5 -73.5t-91.5 -28.5q-61 0 -95 31t-34 66q0 16 9 25.5t23 9.5q13 0 22 -8.5t9 -21.5q0 -24 -30 -29q28 -45 83 -45q39 0 62.5 20.5t23.5 54.5q0 36 -26.5 58t-70.5 22h-16v29h16q42 0 67 20.5t25 53.5t-22.5 53t-59.5 20
q-55 0 -81 -42q29 -5 29 -29q0 -13 -8.5 -21t-22.5 -8t-23 9.5t-9 24.5q0 33 34 63t93 30q53 0 88 -28t35 -71q0 -36 -28 -60.5t-77 -29.5z" />
    <glyph glyph-name="acute" unicode="&#xb4;" horiz-adv-x="242" 
d="M66 577q84 133 99 150q22 25 45 6t2 -45q-33 -40 -130 -125z" />
    <glyph glyph-name="paragraph" unicode="&#xb6;" horiz-adv-x="652" 
d="M335 680h277v-35h-86q-15 0 -20.5 -5.5t-5.5 -20.5v-652q0 -157 -205 -157q-84 0 -122.5 24.5t-38.5 57.5q0 23 13 36t34 13q18 0 30.5 -11.5t12.5 -29.5q0 -16 -11 -27.5t-28 -14.5q22 -16 52 -16q48 0 68 29t20 96v327q-121 1 -193 51t-72 145q0 91 68.5 140.5
t206.5 49.5zM460 -33v678h-95v-678q0 -91 -38 -125q62 6 97.5 33.5t35.5 91.5z" />
    <glyph glyph-name="periodcentered" unicode="&#xb7;" horiz-adv-x="298" 
d="M150 387q18 0 30 -12t12 -31t-12 -31.5t-30 -12.5q-19 0 -31.5 12.5t-12.5 31.5t12.5 31t31.5 12z" />
    <glyph glyph-name="cedilla" unicode="&#xb8;" horiz-adv-x="249" 
d="M110 -72q52 2 83.5 -20.5t31.5 -57.5t-29.5 -58t-74.5 -23q-52 0 -97 30l13 25q40 -25 81 -25q29 0 47 14t18 37q0 30 -31 43t-82 7l-9 13l58 92h31z" />
    <glyph glyph-name="uni00B9" unicode="&#xb9;" horiz-adv-x="258" 
d="M166 332h72v-29h-218v29h71q8 0 10.5 3t2.5 11v256h-79v23q52 4 66.5 12.5t21.5 42.5h39v-334q0 -8 3 -11t11 -3z" />
    <glyph glyph-name="ordmasculine" unicode="&#xba;" horiz-adv-x="500" 
d="M250 690q86 0 143 -58.5t57 -147.5q0 -90 -57 -150t-143 -60t-143 60t-57 150q0 89 57 147.5t143 58.5zM251 303q68 0 109.5 49.5t41.5 131.5q0 81 -41.5 129.5t-109.5 48.5q-69 0 -111 -48.5t-42 -129.5q0 -82 42 -131.5t111 -49.5zM82 186h336v-33h-336v33z" />
    <glyph glyph-name="guillemotright" unicode="&#xbb;" horiz-adv-x="475" 
d="M40 79l160 182l-160 178l17 17l188 -182v-30l-188 -182zM230 79l160 182l-160 178l17 17l188 -182v-30l-188 -182z" />
    <glyph glyph-name="onequarter" unicode="&#xbc;" horiz-adv-x="716" 
d="M595 676q19 -13 -1 -40q-2 -2 -51 -67t-100 -131.5t-65 -82.5l-10 8q15 26 97.5 156.5t91.5 142.5q21 27 38 14zM238 332v-29h-218v29h71q8 0 10.5 3t2.5 11v256h-79v23q52 4 66.5 12.5t21.5 42.5h39v-334q0 -8 3 -11t11 -3h72zM696 105h-65v-62q0 -8 3 -11t11 -3h41v-29
h-187v29h72q8 0 11 3t3 11v62h-175v28q58 61 83 108t28 106q2 35 26 35q23 0 23 -33q0 -103 -133 -216h148v83q19 28 22 59h24v-142h65v-28zM124 46q1 2 50 67t99.5 130.5t64.5 81.5l11 -9q-17 -28 -98.5 -156.5t-89.5 -139.5q-20 -28 -38 -13q-19 12 1 39z" />
    <glyph glyph-name="onehalf" unicode="&#xbd;" horiz-adv-x="762" 
d="M595 676q19 -13 -1 -40q-2 -2 -51 -67t-100 -131.5t-65 -82.5l-10 8q15 26 97.5 156.5t91.5 142.5q21 27 38 14zM238 332v-29h-218v29h71q8 0 10.5 3t2.5 11v256h-79v23q52 4 66.5 12.5t21.5 42.5h39v-334q0 -8 3 -11t11 -3h72zM712 104h30v-104h-256v24q25 26 73 71
t67 64.5t36.5 50.5t17.5 59q0 37 -22 60.5t-60 23.5q-61 0 -84 -49q13 -1 21 -9.5t8 -19.5q0 -13 -9 -22t-22 -9q-14 0 -23 9.5t-9 26.5q0 35 34.5 67.5t97.5 32.5q52 0 86.5 -29.5t34.5 -81.5q0 -23 -8.5 -45t-20 -38.5t-34.5 -37.5t-41 -34.5t-51 -39t-54 -41.5l144 4
q28 1 35 14.5t9 52.5zM124 46q1 2 50 67t99.5 130.5t64.5 81.5l11 -9q-17 -28 -98.5 -156.5t-89.5 -139.5q-20 -28 -38 -13q-19 12 1 39z" />
    <glyph glyph-name="threequarters" unicode="&#xbe;" horiz-adv-x="739" 
d="M165 501q51 -5 81 -30.5t30 -64.5q0 -45 -35.5 -73.5t-91.5 -28.5q-61 0 -95 31t-34 66q0 16 9 25.5t23 9.5q13 0 22 -8.5t9 -21.5q0 -24 -30 -29q28 -45 83 -45q39 0 62.5 20.5t23.5 54.5q0 36 -26.5 58t-70.5 22h-16v29h16q42 0 67 20.5t25 53.5t-22.5 53t-59.5 20
q-55 0 -81 -42q29 -5 29 -29q0 -13 -8.5 -21t-22.5 -8t-23 9.5t-9 24.5q0 33 34 63t93 30q53 0 88 -28t35 -71q0 -36 -28 -60.5t-77 -29.5zM396 363q15 26 97.5 156.5t91.5 142.5q21 27 38 14q19 -13 -1 -40q-2 -2 -51 -67t-100 -131.5t-65 -82.5zM719 105h-65v-62
q0 -8 3 -11t11 -3h41v-29h-187v29h72q8 0 11 3t3 11v62h-175v28q58 61 83 108t28 106q2 35 26 35q23 0 23 -33q0 -103 -133 -216h148v83q19 28 22 59h24v-142h65v-28zM377 316q-17 -28 -98.5 -156.5t-89.5 -139.5q-20 -28 -38 -13q-19 12 1 39q1 2 50 67t99.5 130.5
t64.5 81.5z" />
    <glyph glyph-name="questiondown" unicode="&#xbf;" horiz-adv-x="473" 
d="M230 419q-18 0 -30 12.5t-12 31.5t12 31.5t30 12.5q19 0 31.5 -13t12.5 -32q0 -18 -12.5 -30.5t-31.5 -12.5zM390 36q19 0 32 -13.5t13 -39.5q0 -25 -11.5 -53t-34.5 -56t-65.5 -46t-96.5 -18q-88 0 -145 48t-57 123q0 165 244 280l14 -18q-33 -21 -54.5 -35.5
t-52.5 -41.5t-49 -51.5t-31.5 -59t-13.5 -70.5q0 -62 42.5 -100.5t110.5 -38.5q69 0 109 33t51 74q-19 -1 -33.5 10.5t-14.5 30.5t12 30.5t31 11.5z" />
    <glyph glyph-name="Agrave" unicode="&#xc0;" horiz-adv-x="720" 
d="M398 743q-97 85 -130 125q-21 26 2 45t45 -6q15 -17 99 -150zM683 35h37v-35h-241v35h78q34 0 21 31l-58 137h-334l-57 -137q-12 -31 21 -31h84v-35h-234v35h38q34 0 48 34l258 611h28l263 -613q15 -32 48 -32zM199 236h307l-154 367z" />
    <glyph glyph-name="Aacute" unicode="&#xc1;" horiz-adv-x="720" 
d="M492 868q-33 -40 -130 -125l-16 14q84 133 99 150q22 25 45 6t2 -45zM683 35h37v-35h-241v35h78q34 0 21 31l-58 137h-334l-57 -137q-12 -31 21 -31h84v-35h-234v35h38q34 0 48 34l258 611h28l263 -613q15 -32 48 -32zM199 236h307l-154 367z" />
    <glyph glyph-name="Acircumflex" unicode="&#xc2;" horiz-adv-x="720" 
d="M358 850l-108 -104l-17 14l104 140q11 16 21 16q11 0 21 -16l104 -140l-16 -14zM683 35h37v-35h-241v35h78q34 0 21 31l-58 137h-334l-57 -137q-12 -31 21 -31h84v-35h-234v35h38q34 0 48 34l258 611h28l263 -613q15 -32 48 -32zM199 236h307l-154 367z" />
    <glyph glyph-name="Atilde" unicode="&#xc3;" horiz-adv-x="720" 
d="M285 819q-21 0 -31.5 -14t-17.5 -41l-27 9q15 87 79 87q32 0 78 -33t66 -33q32 0 46 53l27 -5q-14 -89 -78 -89q-31 0 -75 33t-67 33zM683 35h37v-35h-241v35h78q34 0 21 31l-58 137h-334l-57 -137q-12 -31 21 -31h84v-35h-234v35h38q34 0 48 34l258 611h28l263 -613
q15 -32 48 -32zM199 236h307l-154 367z" />
    <glyph glyph-name="Adieresis" unicode="&#xc4;" horiz-adv-x="720" 
d="M264 765q-19 0 -31.5 12t-12.5 31t12.5 31.5t31.5 12.5q18 0 30 -12.5t12 -31.5t-12 -31t-30 -12zM454 765q-19 0 -31.5 12t-12.5 31t12.5 31.5t31.5 12.5q18 0 30 -12.5t12 -31.5t-12 -31t-30 -12zM683 35h37v-35h-241v35h78q34 0 21 31l-58 137h-334l-57 -137
q-12 -31 21 -31h84v-35h-234v35h38q34 0 48 34l258 611h28l263 -613q15 -32 48 -32zM199 236h307l-154 367z" />
    <glyph glyph-name="Aring" unicode="&#xc5;" horiz-adv-x="720" 
d="M358 738q-42 0 -70 27t-28 67t28 67t70 27q41 0 69 -27t28 -67t-28 -67t-69 -27zM358 897q-27 0 -45.5 -18.5t-18.5 -46.5q0 -27 18.5 -45t45.5 -18t45 17.5t18 45.5t-18 46.5t-45 18.5zM683 35h37v-35h-241v35h78q34 0 21 31l-58 137h-334l-57 -137q-12 -31 21 -31h84
v-35h-234v35h38q34 0 48 34l258 611h28l263 -613q15 -32 48 -32zM199 236h307l-154 367z" />
    <glyph glyph-name="AE" unicode="&#xc6;" horiz-adv-x="988" 
d="M888 165h35v-165h-545v35h84q15 0 20.5 5.5t5.5 20.5v142h-267l-89 -137q-10 -16 -3.5 -23.5t24.5 -7.5h83v-35h-236v35h38q18 0 27 7.5t21 26.5l362 554q8 12 3 18q-3 4 -25 4h-86v35h553v-165h-35q-4 76 -12 94q-18 36 -79 36h-227v-331h163q8 0 15 1.5t12.5 2.5
t9.5 5.5t7 6t5.5 8.5t3.5 9t2.5 12t1.5 12t1 14t1 14h31v-206h-31q0 4 -1 18t-1.5 17t-2.5 13.5t-4 13.5t-6.5 9.5t-10 8.5t-14 4t-19.5 2h-163v-244h257q40 0 60 15t24 33.5t6 65.5v5t0.5 5t0.5 6zM242 236h246v380z" />
    <glyph glyph-name="Ccedilla" unicode="&#xc7;" horiz-adv-x="729" 
d="M394 -10q-21 0 -31 1l-33 -63q52 2 83.5 -20.5t31.5 -57.5t-29.5 -58t-74.5 -23q-52 0 -97 30l13 25q40 -25 81 -25q29 0 47 14t18 37q0 30 -31 43t-82 7l-9 13l52 82q-123 21 -200.5 116.5t-77.5 228.5q0 150 96.5 250t243.5 100q66 0 122 -22.5t89 -56t51 -68.5t18 -64
q0 -26 -13.5 -38.5t-32.5 -12.5q-20 0 -32 11t-12 29q0 39 48 39q-18 53 -76.5 99.5t-154.5 46.5q-127 0 -206.5 -87t-79.5 -226t77 -226t200 -87q94 0 158.5 54t90.5 150l36 -8q-26 -111 -100 -172t-184 -61z" />
    <glyph glyph-name="Egrave" unicode="&#xc8;" horiz-adv-x="640" 
d="M376 757l-16 -14q-97 85 -130 125q-21 26 2 45t45 -6q15 -17 99 -150zM540 165h35v-165h-540v35h79q15 0 20.5 5.5t5.5 20.5v558q0 15 -5.5 20.5t-20.5 5.5h-79v35h510v-165h-35q-4 76 -12 94q-18 36 -79 36h-226v-331h162q10 0 17.5 1t13 4.5t9.5 5.5t7 8.5t4.5 9
t3 12.5t2 13t1.5 15.5t1 15.5h31v-206h-31q0 4 -1 18t-1.5 17t-2.5 13.5t-4 13.5t-6.5 9.5t-10 8.5t-14 4t-19.5 2h-162v-244h256q40 0 60 15t24 33.5t6 65.5v5t0.5 5t0.5 6z" />
    <glyph glyph-name="Eacute" unicode="&#xc9;" horiz-adv-x="640" 
d="M308 757q84 133 99 150q22 25 45 6t2 -45q-33 -40 -130 -125zM540 165h35v-165h-540v35h79q15 0 20.5 5.5t5.5 20.5v558q0 15 -5.5 20.5t-20.5 5.5h-79v35h510v-165h-35q-4 76 -12 94q-18 36 -79 36h-226v-331h162q10 0 17.5 1t13 4.5t9.5 5.5t7 8.5t4.5 9t3 12.5t2 13
t1.5 15.5t1 15.5h31v-206h-31q0 4 -1 18t-1.5 17t-2.5 13.5t-4 13.5t-6.5 9.5t-10 8.5t-14 4t-19.5 2h-162v-244h256q40 0 60 15t24 33.5t6 65.5v5t0.5 5t0.5 6z" />
    <glyph glyph-name="Ecircumflex" unicode="&#xca;" horiz-adv-x="640" 
d="M212 746l-17 14l104 140q11 16 21 16q11 0 21 -16l104 -140l-16 -14l-109 104zM540 165h35v-165h-540v35h79q15 0 20.5 5.5t5.5 20.5v558q0 15 -5.5 20.5t-20.5 5.5h-79v35h510v-165h-35q-4 76 -12 94q-18 36 -79 36h-226v-331h162q10 0 17.5 1t13 4.5t9.5 5.5t7 8.5
t4.5 9t3 12.5t2 13t1.5 15.5t1 15.5h31v-206h-31q0 4 -1 18t-1.5 17t-2.5 13.5t-4 13.5t-6.5 9.5t-10 8.5t-14 4t-19.5 2h-162v-244h256q40 0 60 15t24 33.5t6 65.5v5t0.5 5t0.5 6z" />
    <glyph glyph-name="Edieresis" unicode="&#xcb;" horiz-adv-x="640" 
d="M226 765q-19 0 -31.5 12t-12.5 31t12.5 31.5t31.5 12.5q18 0 30 -12.5t12 -31.5t-12 -31t-30 -12zM416 765q-19 0 -31.5 12t-12.5 31t12.5 31.5t31.5 12.5q18 0 30 -12.5t12 -31.5t-12 -31t-30 -12zM540 165h35v-165h-540v35h79q15 0 20.5 5.5t5.5 20.5v558
q0 15 -5.5 20.5t-20.5 5.5h-79v35h510v-165h-35q-4 76 -12 94q-18 36 -79 36h-226v-331h162q10 0 17.5 1t13 4.5t9.5 5.5t7 8.5t4.5 9t3 12.5t2 13t1.5 15.5t1 15.5h31v-206h-31q0 4 -1 18t-1.5 17t-2.5 13.5t-4 13.5t-6.5 9.5t-10 8.5t-14 4t-19.5 2h-162v-244h256
q40 0 60 15t24 33.5t6 65.5v5t0.5 5t0.5 6z" />
    <glyph glyph-name="Igrave" unicode="&#xcc;" horiz-adv-x="389" 
d="M251 757l-16 -14q-97 85 -130 125q-21 26 2 45t45 -6q15 -17 99 -150zM247 645q-15 0 -20.5 -5.5t-5.5 -20.5v-558q0 -15 5.5 -20.5t20.5 -5.5h97v-35h-299v35h98q15 0 20.5 5.5t5.5 20.5v558q0 15 -5.5 20.5t-20.5 5.5h-98v35h299v-35h-97z" />
    <glyph glyph-name="Iacute" unicode="&#xcd;" horiz-adv-x="389" 
d="M183 757q84 133 99 150q22 25 45 6t2 -45q-33 -40 -130 -125zM247 645q-15 0 -20.5 -5.5t-5.5 -20.5v-558q0 -15 5.5 -20.5t20.5 -5.5h97v-35h-299v35h98q15 0 20.5 5.5t5.5 20.5v558q0 15 -5.5 20.5t-20.5 5.5h-98v35h299v-35h-97z" />
    <glyph glyph-name="Icircumflex" unicode="&#xce;" horiz-adv-x="389" 
d="M87 746l-17 14l104 140q11 16 21 16q11 0 21 -16l104 -140l-16 -14l-109 104zM247 645q-15 0 -20.5 -5.5t-5.5 -20.5v-558q0 -15 5.5 -20.5t20.5 -5.5h97v-35h-299v35h98q15 0 20.5 5.5t5.5 20.5v558q0 15 -5.5 20.5t-20.5 5.5h-98v35h299v-35h-97z" />
    <glyph glyph-name="Idieresis" unicode="&#xcf;" horiz-adv-x="389" 
d="M101 765q-19 0 -31.5 12t-12.5 31t12.5 31.5t31.5 12.5q18 0 30 -12.5t12 -31.5t-12 -31t-30 -12zM291 765q-19 0 -31.5 12t-12.5 31t12.5 31.5t31.5 12.5q18 0 30 -12.5t12 -31.5t-12 -31t-30 -12zM247 645q-15 0 -20.5 -5.5t-5.5 -20.5v-558q0 -15 5.5 -20.5t20.5 -5.5
h97v-35h-299v35h98q15 0 20.5 5.5t5.5 20.5v558q0 15 -5.5 20.5t-20.5 5.5h-98v35h299v-35h-97z" />
    <glyph glyph-name="Eth" unicode="&#xd0;" horiz-adv-x="747" 
d="M345 680q150 0 248.5 -95.5t98.5 -244.5t-98.5 -244.5t-248.5 -95.5h-310v35h79q15 0 20.5 5.5t5.5 20.5v256h-95v35h95v267q0 15 -5.5 20.5t-20.5 5.5h-79v35h310zM345 35q124 0 205.5 85.5t81.5 219.5t-81.5 219.5t-205.5 85.5h-152v-293h217v-35h-217v-282h152z" />
    <glyph glyph-name="Ntilde" unicode="&#xd1;" horiz-adv-x="765" 
d="M530 842q-14 -89 -78 -89q-31 0 -75 33t-67 33q-21 0 -31.5 -14t-17.5 -41l-27 9q14 87 79 87q33 0 78 -33t66 -33q32 0 46 53zM735 680v-35h-84q-15 0 -20.5 -5.5t-5.5 -20.5v-619h-19l-427 615v-554q0 -15 5.5 -20.5t20.5 -5.5h79v-35h-249v35h79q15 0 20.5 5.5
t5.5 20.5v558q0 15 -5.5 20.5t-20.5 5.5h-79v35h154l397 -567v506q0 15 -5.5 20.5t-20.5 5.5h-79v35h254z" />
    <glyph glyph-name="Ograve" unicode="&#xd2;" horiz-adv-x="784" 
d="M448 757l-16 -14q-97 85 -130 125q-21 26 2 45t45 -6q15 -17 99 -150zM392 690q145 0 241 -100.5t96 -249.5q0 -148 -96 -249t-241 -101t-241 101t-96 249q0 149 96 249.5t241 100.5zM392 27q123 0 200 88t77 225t-77 225t-200 88t-199.5 -88t-76.5 -225t76.5 -225
t199.5 -88z" />
    <glyph glyph-name="Oacute" unicode="&#xd3;" horiz-adv-x="784" 
d="M380 757q84 133 99 150q22 25 45 6t2 -45q-33 -40 -130 -125zM392 690q145 0 241 -100.5t96 -249.5q0 -148 -96 -249t-241 -101t-241 101t-96 249q0 149 96 249.5t241 100.5zM392 27q123 0 200 88t77 225t-77 225t-200 88t-199.5 -88t-76.5 -225t76.5 -225t199.5 -88z
" />
    <glyph glyph-name="Ocircumflex" unicode="&#xd4;" horiz-adv-x="784" 
d="M284 746l-17 14l104 140q11 16 21 16q11 0 21 -16l104 -140l-16 -14l-109 104zM392 690q145 0 241 -100.5t96 -249.5q0 -148 -96 -249t-241 -101t-241 101t-96 249q0 149 96 249.5t241 100.5zM392 27q123 0 200 88t77 225t-77 225t-200 88t-199.5 -88t-76.5 -225
t76.5 -225t199.5 -88z" />
    <glyph glyph-name="Otilde" unicode="&#xd5;" horiz-adv-x="784" 
d="M539 842q-14 -89 -78 -89q-31 0 -75 33t-67 33q-21 0 -31.5 -14t-17.5 -41l-27 9q15 87 79 87q32 0 78 -33t66 -33q32 0 46 53zM392 690q145 0 241 -100.5t96 -249.5q0 -148 -96 -249t-241 -101t-241 101t-96 249q0 149 96 249.5t241 100.5zM392 27q123 0 200 88t77 225
t-77 225t-200 88t-199.5 -88t-76.5 -225t76.5 -225t199.5 -88z" />
    <glyph glyph-name="Odieresis" unicode="&#xd6;" horiz-adv-x="784" 
d="M298 765q-19 0 -31.5 12t-12.5 31t12.5 31.5t31.5 12.5q18 0 30 -12.5t12 -31.5t-12 -31t-30 -12zM488 765q-19 0 -31.5 12t-12.5 31t12.5 31.5t31.5 12.5q18 0 30 -12.5t12 -31.5t-12 -31t-30 -12zM392 690q145 0 241 -100.5t96 -249.5q0 -148 -96 -249t-241 -101
t-241 101t-96 249q0 149 96 249.5t241 100.5zM392 27q123 0 200 88t77 225t-77 225t-200 88t-199.5 -88t-76.5 -225t76.5 -225t199.5 -88z" />
    <glyph glyph-name="multiply" unicode="&#xd7;" horiz-adv-x="598" 
d="M484 138l-24 -25l-161 161l-160 -160l-24 24l160 161l-160 160l24 24l160 -160l160 160l24 -24l-160 -160z" />
    <glyph glyph-name="Oslash" unicode="&#xd8;" horiz-adv-x="795" 
d="M749 659l-93 -90q78 -97 78 -229q0 -148 -96 -249t-241 -101q-140 0 -235 95l-93 -91l-23 30l91 88q-77 96 -77 228q0 149 96 249.5t241 100.5q141 0 236 -95l92 89zM121 340q0 -111 52 -193l427 415q-78 91 -203 91q-123 0 -199.5 -88t-76.5 -225zM674 340
q0 113 -53 194l-426 -417q79 -90 202 -90t200 88t77 225z" />
    <glyph glyph-name="Ugrave" unicode="&#xd9;" horiz-adv-x="697" 
d="M415 757l-16 -14q-97 85 -130 125q-21 26 2 45t45 -6q15 -17 99 -150zM682 680v-35h-69q-15 0 -20.5 -5.5t-5.5 -20.5v-409q0 -98 -63.5 -159t-169.5 -61q-109 0 -176.5 62.5t-67.5 157.5v409q0 15 -5.5 20.5t-20.5 5.5h-69v35h255v-35h-81q-15 0 -20.5 -5.5t-5.5 -20.5
v-409q0 -80 52.5 -131.5t140.5 -51.5q87 0 139.5 50.5t52.5 132.5v409q0 15 -5.5 20.5t-20.5 5.5h-75v35h235z" />
    <glyph glyph-name="Uacute" unicode="&#xda;" horiz-adv-x="697" 
d="M347 757q84 133 99 150q22 25 45 6t2 -45q-33 -40 -130 -125zM682 680v-35h-69q-15 0 -20.5 -5.5t-5.5 -20.5v-409q0 -98 -63.5 -159t-169.5 -61q-109 0 -176.5 62.5t-67.5 157.5v409q0 15 -5.5 20.5t-20.5 5.5h-69v35h255v-35h-81q-15 0 -20.5 -5.5t-5.5 -20.5v-409
q0 -80 52.5 -131.5t140.5 -51.5q87 0 139.5 50.5t52.5 132.5v409q0 15 -5.5 20.5t-20.5 5.5h-75v35h235z" />
    <glyph glyph-name="Ucircumflex" unicode="&#xdb;" horiz-adv-x="697" 
d="M251 746l-17 14l104 140q11 16 21 16q11 0 21 -16l104 -140l-16 -14l-109 104zM682 680v-35h-69q-15 0 -20.5 -5.5t-5.5 -20.5v-409q0 -98 -63.5 -159t-169.5 -61q-109 0 -176.5 62.5t-67.5 157.5v409q0 15 -5.5 20.5t-20.5 5.5h-69v35h255v-35h-81q-15 0 -20.5 -5.5
t-5.5 -20.5v-409q0 -80 52.5 -131.5t140.5 -51.5q87 0 139.5 50.5t52.5 132.5v409q0 15 -5.5 20.5t-20.5 5.5h-75v35h235z" />
    <glyph glyph-name="Udieresis" unicode="&#xdc;" horiz-adv-x="697" 
d="M265 765q-19 0 -31.5 12t-12.5 31t12.5 31.5t31.5 12.5q18 0 30 -12.5t12 -31.5t-12 -31t-30 -12zM455 765q-19 0 -31.5 12t-12.5 31t12.5 31.5t31.5 12.5q18 0 30 -12.5t12 -31.5t-12 -31t-30 -12zM682 680v-35h-69q-15 0 -20.5 -5.5t-5.5 -20.5v-409q0 -98 -63.5 -159
t-169.5 -61q-109 0 -176.5 62.5t-67.5 157.5v409q0 15 -5.5 20.5t-20.5 5.5h-69v35h255v-35h-81q-15 0 -20.5 -5.5t-5.5 -20.5v-409q0 -80 52.5 -131.5t140.5 -51.5q87 0 139.5 50.5t52.5 132.5v409q0 15 -5.5 20.5t-20.5 5.5h-75v35h235z" />
    <glyph glyph-name="Yacute" unicode="&#xdd;" horiz-adv-x="649" 
d="M463 868q-33 -40 -130 -125l-16 14q84 133 99 150q22 25 45 6t2 -45zM393 680h256v-35h-57q-37 0 -53 -30l-192 -330v-224q0 -15 5.5 -20.5t20.5 -5.5h79v-35h-263v35h79q15 0 20.5 5.5t5.5 20.5v224l-187 332q-15 28 -51 28h-56v35h266v-35h-83q-34 0 -18 -31l162 -297
l171 299q8 14 3.5 21.5t-20.5 7.5h-88v35z" />
    <glyph glyph-name="Thorn" unicode="&#xde;" horiz-adv-x="615" 
d="M325 554q116 0 185.5 -59t69.5 -148q0 -87 -69.5 -145.5t-185.5 -58.5h-132v-82q0 -15 5.5 -20.5t20.5 -5.5h86v-35h-270v35h79q15 0 20.5 5.5t5.5 20.5v558q0 15 -5.5 20.5t-20.5 5.5h-79v35h270v-35h-86q-15 0 -20.5 -5.5t-5.5 -20.5v-65h132zM325 177q93 0 145.5 50
t52.5 120q0 71 -52.5 121.5t-145.5 50.5h-132v-342h132z" />
    <glyph glyph-name="germandbls" unicode="&#xdf;" horiz-adv-x="580" 
d="M359 360q0 -20 20.5 -36.5t50.5 -31t59.5 -31.5t50 -47t20.5 -70q0 -68 -50.5 -111t-130.5 -43q-75 0 -114.5 38.5t-39.5 85.5q0 24 11.5 37.5t29.5 13.5q17 0 28 -11t11 -29t-12 -28t-33 -9q12 -30 44 -48.5t76 -18.5q58 0 94.5 30.5t36.5 80.5q0 34 -19.5 57.5
t-47.5 37.5t-55.5 28t-47 36t-19.5 53q0 25 12.5 44t30.5 32t36 27t30.5 36t12.5 52q0 54 -36 88.5t-95 34.5q-68 0 -108.5 -46.5t-40.5 -122.5v-489h-144v35h69q15 0 20.5 5.5t5.5 20.5v378q0 15 -5.5 20.5t-20.5 5.5h-69v35h96v5q0 83 56 134t143 51q78 0 127.5 -43
t49.5 -111q0 -42 -21 -70.5t-45.5 -40t-45.5 -28.5t-21 -37z" />
    <glyph glyph-name="agrave" unicode="&#xe0;" horiz-adv-x="543" 
d="M292 563q-97 85 -130 125q-21 26 2 45t45 -6q15 -17 99 -150zM461 35h55v-35h-115l-12 77q-21 -40 -64 -63.5t-97 -23.5q-80 0 -131.5 43.5t-51.5 109.5t51.5 109t131.5 43q53 0 95 -21.5t63 -59.5v118q0 66 -39 104.5t-105 38.5q-78 0 -118 -44q15 -2 25 -14t10 -27
q0 -18 -12 -30t-30 -12q-19 0 -31 12.5t-12 32.5q0 44 52 79t126 35q84 0 133.5 -47t49.5 -128v-271q0 -15 5.5 -20.5t20.5 -5.5zM239 26q61 0 104 33.5t43 84.5q0 50 -43 83.5t-104 33.5q-62 0 -102 -33.5t-40 -84.5q0 -50 40 -83.5t102 -33.5z" />
    <glyph glyph-name="aacute" unicode="&#xe1;" horiz-adv-x="543" 
d="M386 688q-33 -40 -130 -125l-16 14q84 133 99 150q22 25 45 6t2 -45zM461 35h55v-35h-115l-12 77q-21 -40 -64 -63.5t-97 -23.5q-80 0 -131.5 43.5t-51.5 109.5t51.5 109t131.5 43q53 0 95 -21.5t63 -59.5v118q0 66 -39 104.5t-105 38.5q-78 0 -118 -44q15 -2 25 -14
t10 -27q0 -18 -12 -30t-30 -12q-19 0 -31 12.5t-12 32.5q0 44 52 79t126 35q84 0 133.5 -47t49.5 -128v-271q0 -15 5.5 -20.5t20.5 -5.5zM239 26q61 0 104 33.5t43 84.5q0 50 -43 83.5t-104 33.5q-62 0 -102 -33.5t-40 -84.5q0 -50 40 -83.5t102 -33.5z" />
    <glyph glyph-name="acircumflex" unicode="&#xe2;" horiz-adv-x="543" 
d="M252 670l-108 -104l-17 14l104 140q11 16 21 16q11 0 21 -16l104 -140l-16 -14zM461 35h55v-35h-115l-12 77q-21 -40 -64 -63.5t-97 -23.5q-80 0 -131.5 43.5t-51.5 109.5t51.5 109t131.5 43q53 0 95 -21.5t63 -59.5v118q0 66 -39 104.5t-105 38.5q-78 0 -118 -44
q15 -2 25 -14t10 -27q0 -18 -12 -30t-30 -12q-19 0 -31 12.5t-12 32.5q0 44 52 79t126 35q84 0 133.5 -47t49.5 -128v-271q0 -15 5.5 -20.5t20.5 -5.5zM239 26q61 0 104 33.5t43 84.5q0 50 -43 83.5t-104 33.5q-62 0 -102 -33.5t-40 -84.5q0 -50 40 -83.5t102 -33.5z" />
    <glyph glyph-name="atilde" unicode="&#xe3;" horiz-adv-x="543" 
d="M179 639q-21 0 -31.5 -14t-17.5 -41l-27 9q15 87 79 87q32 0 78 -33t66 -33q32 0 46 53l27 -5q-14 -89 -78 -89q-31 0 -75 33t-67 33zM461 35h55v-35h-115l-12 77q-21 -40 -64 -63.5t-97 -23.5q-80 0 -131.5 43.5t-51.5 109.5t51.5 109t131.5 43q53 0 95 -21.5t63 -59.5
v118q0 66 -39 104.5t-105 38.5q-78 0 -118 -44q15 -2 25 -14t10 -27q0 -18 -12 -30t-30 -12q-19 0 -31 12.5t-12 32.5q0 44 52 79t126 35q84 0 133.5 -47t49.5 -128v-271q0 -15 5.5 -20.5t20.5 -5.5zM239 26q61 0 104 33.5t43 84.5q0 50 -43 83.5t-104 33.5
q-62 0 -102 -33.5t-40 -84.5q0 -50 40 -83.5t102 -33.5z" />
    <glyph glyph-name="adieresis" unicode="&#xe4;" horiz-adv-x="543" 
d="M158 585q-19 0 -31.5 12t-12.5 31t12.5 31.5t31.5 12.5q18 0 30 -12.5t12 -31.5t-12 -31t-30 -12zM348 585q-19 0 -31.5 12t-12.5 31t12.5 31.5t31.5 12.5q18 0 30 -12.5t12 -31.5t-12 -31t-30 -12zM461 35h55v-35h-115l-12 77q-21 -40 -64 -63.5t-97 -23.5
q-80 0 -131.5 43.5t-51.5 109.5t51.5 109t131.5 43q53 0 95 -21.5t63 -59.5v118q0 66 -39 104.5t-105 38.5q-78 0 -118 -44q15 -2 25 -14t10 -27q0 -18 -12 -30t-30 -12q-19 0 -31 12.5t-12 32.5q0 44 52 79t126 35q84 0 133.5 -47t49.5 -128v-271q0 -15 5.5 -20.5
t20.5 -5.5zM239 26q61 0 104 33.5t43 84.5q0 50 -43 83.5t-104 33.5q-62 0 -102 -33.5t-40 -84.5q0 -50 40 -83.5t102 -33.5z" />
    <glyph glyph-name="aring" unicode="&#xe5;" horiz-adv-x="543" 
d="M252 558q-42 0 -70 27t-28 67t28 67t70 27q41 0 69 -27t28 -67t-28 -67t-69 -27zM252 717q-27 0 -45.5 -18.5t-18.5 -46.5q0 -27 18.5 -45t45.5 -18t45 17.5t18 45.5t-18 46.5t-45 18.5zM461 35h55v-35h-115l-12 77q-21 -40 -64 -63.5t-97 -23.5q-80 0 -131.5 43.5
t-51.5 109.5t51.5 109t131.5 43q53 0 95 -21.5t63 -59.5v118q0 66 -39 104.5t-105 38.5q-78 0 -118 -44q15 -2 25 -14t10 -27q0 -18 -12 -30t-30 -12q-19 0 -31 12.5t-12 32.5q0 44 52 79t126 35q84 0 133.5 -47t49.5 -128v-271q0 -15 5.5 -20.5t20.5 -5.5zM239 26
q61 0 104 33.5t43 84.5q0 50 -43 83.5t-104 33.5q-62 0 -102 -33.5t-40 -84.5q0 -50 40 -83.5t102 -33.5z" />
    <glyph glyph-name="ae" unicode="&#xe6;" horiz-adv-x="875" 
d="M835 250v-11h-396q3 -94 54 -153t134 -59q64 0 108 35t62 94l34 -8q-21 -72 -76 -115t-134 -43q-70 0 -124 35t-83 96q-11 -55 -61.5 -93t-118.5 -38q-83 0 -136 43.5t-53 109.5t51.5 109t131.5 43q53 0 94.5 -21t63.5 -59v117q0 66 -39 104.5t-105 38.5q-78 0 -118 -44
q15 -2 25 -14t10 -27q0 -18 -12 -30t-30 -12q-19 0 -31 12.5t-12 32.5q0 44 52 79t126 35q67 0 112 -30.5t61 -86.5q31 54 82 85.5t114 31.5q97 0 155.5 -72t58.5 -185zM440 271h342q-5 93 -46 148t-114 55q-76 0 -126 -57t-56 -146zM239 26q62 0 104 34t42 84t-42.5 83.5
t-103.5 33.5q-62 0 -102 -33.5t-40 -84.5q0 -50 40 -83.5t102 -33.5z" />
    <glyph glyph-name="ccedilla" unicode="&#xe7;" horiz-adv-x="541" 
d="M289 -10h-5l-32 -62q52 2 83.5 -20.5t31.5 -57.5t-29.5 -58t-74.5 -23q-52 0 -97 30l13 25q40 -25 81 -25q29 0 47 14t18 37q0 30 -31 43t-82 7l-9 13l50 79q-95 13 -154 83.5t-59 172.5q0 113 72 186t179 73q90 0 147 -50.5t57 -110.5q0 -22 -11.5 -34.5t-29.5 -12.5
q-20 0 -32 10.5t-12 28.5t13.5 29t30.5 11h1q-15 42 -54.5 68t-102.5 26q-95 0 -150 -61t-55 -161t54 -161.5t147 -61.5q68 0 112.5 35t61.5 100l33 -7q-19 -79 -75 -122t-137 -43z" />
    <glyph glyph-name="egrave" unicode="&#xe8;" horiz-adv-x="529" 
d="M316 563q-97 85 -130 125q-21 26 2 45t45 -6q15 -17 99 -150zM93 239q2 -93 53.5 -152.5t134.5 -59.5q64 0 108 35t62 94l33 -8q-21 -72 -75.5 -115t-133.5 -43q-103 0 -169 73t-66 183q0 111 66.5 186t167.5 75q98 0 156.5 -72t58.5 -185v-11h-396zM275 474
q-76 0 -125.5 -57t-55.5 -146h341q-5 94 -45.5 148.5t-114.5 54.5z" />
    <glyph glyph-name="eacute" unicode="&#xe9;" horiz-adv-x="529" 
d="M410 688q-33 -40 -130 -125l-16 14q84 133 99 150q22 25 45 6t2 -45zM93 239q2 -93 53.5 -152.5t134.5 -59.5q64 0 108 35t62 94l33 -8q-21 -72 -75.5 -115t-133.5 -43q-103 0 -169 73t-66 183q0 111 66.5 186t167.5 75q98 0 156.5 -72t58.5 -185v-11h-396zM275 474
q-76 0 -125.5 -57t-55.5 -146h341q-5 94 -45.5 148.5t-114.5 54.5z" />
    <glyph glyph-name="ecircumflex" unicode="&#xea;" horiz-adv-x="529" 
d="M276 670l-108 -104l-17 14l104 140q11 16 21 16q11 0 21 -16l104 -140l-16 -14zM93 239q2 -93 53.5 -152.5t134.5 -59.5q64 0 108 35t62 94l33 -8q-21 -72 -75.5 -115t-133.5 -43q-103 0 -169 73t-66 183q0 111 66.5 186t167.5 75q98 0 156.5 -72t58.5 -185v-11h-396z
M275 474q-76 0 -125.5 -57t-55.5 -146h341q-5 94 -45.5 148.5t-114.5 54.5z" />
    <glyph glyph-name="edieresis" unicode="&#xeb;" horiz-adv-x="529" 
d="M182 585q-19 0 -31.5 12t-12.5 31t12.5 31.5t31.5 12.5q18 0 30 -12.5t12 -31.5t-12 -31t-30 -12zM372 585q-19 0 -31.5 12t-12.5 31t12.5 31.5t31.5 12.5q18 0 30 -12.5t12 -31.5t-12 -31t-30 -12zM93 239q2 -93 53.5 -152.5t134.5 -59.5q64 0 108 35t62 94l33 -8
q-21 -72 -75.5 -115t-133.5 -43q-103 0 -169 73t-66 183q0 111 66.5 186t167.5 75q98 0 156.5 -72t58.5 -185v-11h-396zM275 474q-76 0 -125.5 -57t-55.5 -146h341q-5 94 -45.5 148.5t-114.5 54.5z" />
    <glyph glyph-name="igrave" unicode="&#xec;" horiz-adv-x="299" 
d="M206 577l-16 -14q-97 85 -130 125q-21 26 2 45t45 -6q15 -17 99 -150zM210 35h64v-35h-229v35h64q15 0 20.5 5.5t5.5 20.5v378q0 15 -5.5 20.5t-20.5 5.5h-64v35h139v-439q0 -15 5.5 -20.5t20.5 -5.5z" />
    <glyph glyph-name="iacute" unicode="&#xed;" horiz-adv-x="299" 
d="M138 577q84 133 99 150q22 25 45 6t2 -45q-33 -40 -130 -125zM210 35h64v-35h-229v35h64q15 0 20.5 5.5t5.5 20.5v378q0 15 -5.5 20.5t-20.5 5.5h-64v35h139v-439q0 -15 5.5 -20.5t20.5 -5.5z" />
    <glyph glyph-name="icircumflex" unicode="&#xee;" horiz-adv-x="299" 
d="M42 566l-17 14l104 140q11 16 21 16q11 0 21 -16l104 -140l-16 -14l-109 104zM210 35h64v-35h-229v35h64q15 0 20.5 5.5t5.5 20.5v378q0 15 -5.5 20.5t-20.5 5.5h-64v35h139v-439q0 -15 5.5 -20.5t20.5 -5.5z" />
    <glyph glyph-name="idieresis" unicode="&#xef;" horiz-adv-x="299" 
d="M56 585q-19 0 -31.5 12t-12.5 31t12.5 31.5t31.5 12.5q18 0 30 -12.5t12 -31.5t-12 -31t-30 -12zM246 585q-19 0 -31.5 12t-12.5 31t12.5 31.5t31.5 12.5q18 0 30 -12.5t12 -31.5t-12 -31t-30 -12zM210 35h64v-35h-229v35h64q15 0 20.5 5.5t5.5 20.5v378q0 15 -5.5 20.5
t-20.5 5.5h-64v35h139v-439q0 -15 5.5 -20.5t20.5 -5.5z" />
    <glyph glyph-name="eth" unicode="&#xf0;" horiz-adv-x="571" 
d="M377 620q154 -116 154 -369q0 -112 -70.5 -186.5t-174.5 -74.5t-175 74.5t-71 186.5q0 111 71 183.5t175 72.5q60 0 108.5 -30.5t74.5 -84.5q-28 138 -140 216l-152 -44l-9 29l127 35q-43 24 -97 42l50 19q53 -19 95 -46l119 33l8 -29zM286 23q85 0 139 63.5t54 164.5
q0 100 -53.5 161.5t-139.5 61.5t-139.5 -61.5t-53.5 -161.5q0 -101 54 -164.5t139 -63.5z" />
    <glyph glyph-name="ntilde" unicode="&#xf1;" horiz-adv-x="631" 
d="M463 662q-14 -89 -78 -89q-31 0 -75 33t-67 33q-21 0 -31.5 -14t-17.5 -41l-27 9q15 87 79 87q32 0 78 -33t66 -33q32 0 46 53zM545 35h59v-35h-209v35h49q15 0 20.5 5.5t5.5 20.5v284q0 52 -35.5 86.5t-89.5 34.5q-68 0 -117 -51t-49 -144v-210q0 -15 5.5 -20.5
t20.5 -5.5h49v-35h-209v35h59q15 0 20.5 5.5t5.5 20.5v378q0 15 -5.5 20.5t-20.5 5.5h-59v35h134v-118q25 57 73 91t108 34q68 0 113.5 -45t45.5 -112v-289q0 -15 5.5 -20.5t20.5 -5.5z" />
    <glyph glyph-name="ograve" unicode="&#xf2;" horiz-adv-x="571" 
d="M342 577l-16 -14q-97 85 -130 125q-21 26 2 45t45 -6q15 -17 99 -150zM286 507q104 0 174.5 -72.5t70.5 -183.5q0 -112 -70.5 -186.5t-174.5 -74.5t-175 74.5t-71 186.5q0 111 71 183.5t175 72.5zM286 23q85 0 139 63.5t54 164.5q0 100 -53.5 161.5t-139.5 61.5
t-139.5 -61.5t-53.5 -161.5q0 -101 54 -164.5t139 -63.5z" />
    <glyph glyph-name="oacute" unicode="&#xf3;" horiz-adv-x="571" 
d="M274 577q84 133 99 150q22 25 45 6t2 -45q-33 -40 -130 -125zM286 507q104 0 174.5 -72.5t70.5 -183.5q0 -112 -70.5 -186.5t-174.5 -74.5t-175 74.5t-71 186.5q0 111 71 183.5t175 72.5zM286 23q85 0 139 63.5t54 164.5q0 100 -53.5 161.5t-139.5 61.5t-139.5 -61.5
t-53.5 -161.5q0 -101 54 -164.5t139 -63.5z" />
    <glyph glyph-name="ocircumflex" unicode="&#xf4;" horiz-adv-x="571" 
d="M178 566l-17 14l104 140q11 16 21 16q11 0 21 -16l104 -140l-16 -14l-109 104zM286 507q104 0 174.5 -72.5t70.5 -183.5q0 -112 -70.5 -186.5t-174.5 -74.5t-175 74.5t-71 186.5q0 111 71 183.5t175 72.5zM286 23q85 0 139 63.5t54 164.5q0 100 -53.5 161.5t-139.5 61.5
t-139.5 -61.5t-53.5 -161.5q0 -101 54 -164.5t139 -63.5z" />
    <glyph glyph-name="otilde" unicode="&#xf5;" horiz-adv-x="571" 
d="M433 662q-14 -89 -78 -89q-31 0 -75 33t-67 33q-21 0 -31.5 -14t-17.5 -41l-27 9q15 87 79 87q32 0 78 -33t66 -33q32 0 46 53zM286 507q104 0 174.5 -72.5t70.5 -183.5q0 -112 -70.5 -186.5t-174.5 -74.5t-175 74.5t-71 186.5q0 111 71 183.5t175 72.5zM286 23
q85 0 139 63.5t54 164.5q0 100 -53.5 161.5t-139.5 61.5t-139.5 -61.5t-53.5 -161.5q0 -101 54 -164.5t139 -63.5z" />
    <glyph glyph-name="odieresis" unicode="&#xf6;" horiz-adv-x="571" 
d="M192 585q-19 0 -31.5 12t-12.5 31t12.5 31.5t31.5 12.5q18 0 30 -12.5t12 -31.5t-12 -31t-30 -12zM382 585q-19 0 -31.5 12t-12.5 31t12.5 31.5t31.5 12.5q18 0 30 -12.5t12 -31.5t-12 -31t-30 -12zM286 507q104 0 174.5 -72.5t70.5 -183.5q0 -112 -70.5 -186.5
t-174.5 -74.5t-175 74.5t-71 186.5q0 111 71 183.5t175 72.5zM286 23q85 0 139 63.5t54 164.5q0 100 -53.5 161.5t-139.5 61.5t-139.5 -61.5t-53.5 -161.5q0 -101 54 -164.5t139 -63.5z" />
    <glyph glyph-name="divide" unicode="&#xf7;" 
d="M299 429q-18 0 -30.5 12t-12.5 30t12.5 30.5t30.5 12.5q17 0 29 -12t12 -31q0 -18 -12 -30t-29 -12zM74 281v34h447v-34h-447zM299 167q17 0 29 -12t12 -30q0 -19 -12 -31t-29 -12q-18 0 -30.5 12.5t-12.5 30.5t12.5 30t30.5 12z" />
    <glyph glyph-name="oslash" unicode="&#xf8;" horiz-adv-x="579" 
d="M549 478l-66 -65q52 -68 52 -162q0 -112 -70.5 -186.5t-174.5 -74.5q-99 0 -170 69l-66 -65l-24 30l66 64q-52 69 -52 163q0 111 71 183.5t175 72.5q99 0 168 -67l66 64zM97 251q0 -75 31 -132l301 293q-54 62 -139 62q-86 0 -139.5 -61.5t-53.5 -161.5zM483 251
q0 73 -32 131l-301 -294q54 -65 140 -65q85 0 139 63.5t54 164.5z" />
    <glyph glyph-name="ugrave" unicode="&#xf9;" horiz-adv-x="595" 
d="M349 577l-16 -14q-97 85 -130 125q-21 26 2 45t45 -6q15 -17 99 -150zM516 35h59v-35h-134v117q-25 -58 -73 -92t-108 -34q-68 0 -114 45.5t-46 112.5v295q-1 13 -6 17t-19 4h-60v35h134v-346q0 -52 36 -86.5t89 -34.5q68 0 117.5 51t49.5 144v211q0 15 -5.5 20.5
t-20.5 5.5h-51v35h126v-439q0 -15 5.5 -20.5t20.5 -5.5z" />
    <glyph glyph-name="uacute" unicode="&#xfa;" horiz-adv-x="595" 
d="M427 688q-33 -40 -130 -125l-16 14q84 133 99 150q22 25 45 6t2 -45zM516 35h59v-35h-134v117q-25 -58 -73 -92t-108 -34q-68 0 -114 45.5t-46 112.5v295q-1 13 -6 17t-19 4h-60v35h134v-346q0 -52 36 -86.5t89 -34.5q68 0 117.5 51t49.5 144v211q0 15 -5.5 20.5
t-20.5 5.5h-51v35h126v-439q0 -15 5.5 -20.5t20.5 -5.5z" />
    <glyph glyph-name="ucircumflex" unicode="&#xfb;" horiz-adv-x="595" 
d="M185 566l-17 14l104 140q11 16 21 16q11 0 21 -16l104 -140l-16 -14l-109 104zM516 35h59v-35h-134v117q-25 -58 -73 -92t-108 -34q-68 0 -114 45.5t-46 112.5v295q-1 13 -6 17t-19 4h-60v35h134v-346q0 -52 36 -86.5t89 -34.5q68 0 117.5 51t49.5 144v211
q0 15 -5.5 20.5t-20.5 5.5h-51v35h126v-439q0 -15 5.5 -20.5t20.5 -5.5z" />
    <glyph glyph-name="udieresis" unicode="&#xfc;" horiz-adv-x="595" 
d="M199 585q-19 0 -31.5 12t-12.5 31t12.5 31.5t31.5 12.5q18 0 30 -12.5t12 -31.5t-12 -31t-30 -12zM389 585q-19 0 -31.5 12t-12.5 31t12.5 31.5t31.5 12.5q18 0 30 -12.5t12 -31.5t-12 -31t-30 -12zM516 35h59v-35h-134v117q-25 -58 -73 -92t-108 -34q-68 0 -114 45.5
t-46 112.5v295q-1 13 -6 17t-19 4h-60v35h134v-346q0 -52 36 -86.5t89 -34.5q68 0 117.5 51t49.5 144v211q0 15 -5.5 20.5t-20.5 5.5h-51v35h126v-439q0 -15 5.5 -20.5t20.5 -5.5z" />
    <glyph glyph-name="yacute" unicode="&#xfd;" horiz-adv-x="587" 
d="M448 688q-33 -40 -130 -125l-16 14q84 133 99 150q22 25 45 6t2 -45zM398 500h182v-35h-30q-34 0 -48 -32l-207 -476q-34 -77 -71.5 -112t-90.5 -35q-41 0 -70 22t-29 54q0 20 12 33t31 13q17 0 28.5 -11t11.5 -28q0 -16 -10 -26.5t-26 -11.5q20 -15 47 -15q44 0 74 28.5
t58 94.5l20 46l-191 429q-13 27 -41 27h-40v35h236v-35h-82q-30 0 -20 -25l162 -375l160 371q13 29 -17 29h-49v35z" />
    <glyph glyph-name="thorn" unicode="&#xfe;" horiz-adv-x="647" 
d="M377 507q101 0 165.5 -72.5t64.5 -185.5q0 -114 -64.5 -186.5t-165.5 -72.5q-64 0 -117 33.5t-81 97.5v-240q0 -15 5.5 -20.5t20.5 -5.5h94v-35h-254v35h59q15 0 20.5 5.5t5.5 20.5v738q0 15 -5.5 20.5t-20.5 5.5h-59v35h134v-304q28 63 81 97t117 34zM368 26
q83 0 135 61.5t52 161.5q0 99 -52 160.5t-135 61.5q-84 0 -136.5 -61.5t-52.5 -160.5q0 -100 52 -161.5t137 -61.5z" />
    <glyph glyph-name="ydieresis" unicode="&#xff;" horiz-adv-x="587" 
d="M220 585q-19 0 -31.5 12t-12.5 31t12.5 31.5t31.5 12.5q18 0 30 -12.5t12 -31.5t-12 -31t-30 -12zM410 585q-19 0 -31.5 12t-12.5 31t12.5 31.5t31.5 12.5q18 0 30 -12.5t12 -31.5t-12 -31t-30 -12zM398 500h182v-35h-30q-34 0 -48 -32l-207 -476q-34 -77 -71.5 -112
t-90.5 -35q-41 0 -70 22t-29 54q0 20 12 33t31 13q17 0 28.5 -11t11.5 -28q0 -16 -10 -26.5t-26 -11.5q20 -15 47 -15q44 0 74 28.5t58 94.5l20 46l-191 429q-13 27 -41 27h-40v35h236v-35h-82q-30 0 -20 -25l162 -375l160 371q13 29 -17 29h-49v35z" />
    <glyph glyph-name="Amacron" unicode="&#x100;" horiz-adv-x="720" 
d="M486 822v-41h-255v41h255zM683 35h37v-35h-241v35h78q34 0 21 31l-58 137h-334l-57 -137q-12 -31 21 -31h84v-35h-234v35h38q34 0 48 34l258 611h28l263 -613q15 -32 48 -32zM199 236h307l-154 367z" />
    <glyph glyph-name="amacron" unicode="&#x101;" horiz-adv-x="543" 
d="M380 642v-41h-255v41h255zM461 35h55v-35h-115l-12 77q-21 -40 -64 -63.5t-97 -23.5q-80 0 -131.5 43.5t-51.5 109.5t51.5 109t131.5 43q53 0 95 -21.5t63 -59.5v118q0 66 -39 104.5t-105 38.5q-78 0 -118 -44q15 -2 25 -14t10 -27q0 -18 -12 -30t-30 -12q-19 0 -31 12.5
t-12 32.5q0 44 52 79t126 35q84 0 133.5 -47t49.5 -128v-271q0 -15 5.5 -20.5t20.5 -5.5zM239 26q61 0 104 33.5t43 84.5q0 50 -43 83.5t-104 33.5q-62 0 -102 -33.5t-40 -84.5q0 -50 40 -83.5t102 -33.5z" />
    <glyph glyph-name="Abreve" unicode="&#x102;" horiz-adv-x="720" 
d="M358 767q-50 0 -83 32.5t-39 92.5l30 4q19 -85 92 -85t92 85l29 -4q-6 -60 -38.5 -92.5t-82.5 -32.5zM683 35h37v-35h-241v35h78q34 0 21 31l-58 137h-334l-57 -137q-12 -31 21 -31h84v-35h-234v35h38q34 0 48 34l258 611h28l263 -613q15 -32 48 -32zM199 236h307
l-154 367z" />
    <glyph glyph-name="abreve" unicode="&#x103;" horiz-adv-x="543" 
d="M252 587q-50 0 -83 32.5t-39 92.5l30 4q19 -85 92 -85t92 85l29 -4q-6 -60 -38.5 -92.5t-82.5 -32.5zM461 35h55v-35h-115l-12 77q-21 -40 -64 -63.5t-97 -23.5q-80 0 -131.5 43.5t-51.5 109.5t51.5 109t131.5 43q53 0 95 -21.5t63 -59.5v118q0 66 -39 104.5t-105 38.5
q-78 0 -118 -44q15 -2 25 -14t10 -27q0 -18 -12 -30t-30 -12q-19 0 -31 12.5t-12 32.5q0 44 52 79t126 35q84 0 133.5 -47t49.5 -128v-271q0 -15 5.5 -20.5t20.5 -5.5zM239 26q61 0 104 33.5t43 84.5q0 50 -43 83.5t-104 33.5q-62 0 -102 -33.5t-40 -84.5q0 -50 40 -83.5
t102 -33.5z" />
    <glyph glyph-name="Aogonek" unicode="&#x104;" horiz-adv-x="720" 
d="M680 0q-62 0 -101 -28t-39 -66q0 -28 18 -43.5t48 -15.5q26 0 66 20l12 -25q-45 -32 -89 -32q-43 0 -72.5 23.5t-29.5 62.5q0 32 22 59.5t60 44.5h-96v35h78q34 0 21 31l-58 137h-334l-57 -137q-12 -31 21 -31h84v-35h-234v35h38q34 0 48 34l258 611h28l263 -613
q15 -32 48 -32h37v-35h-40zM199 236h307l-154 367z" />
    <glyph glyph-name="aogonek" unicode="&#x105;" horiz-adv-x="543" 
d="M495 0q-62 0 -101 -28t-39 -66q0 -28 18 -43.5t48 -15.5q26 0 66 20l12 -25q-45 -32 -89 -32q-43 0 -72.5 23.5t-29.5 62.5q0 34 24.5 62.5t67.5 45.5l-11 73q-21 -40 -64 -63.5t-97 -23.5q-80 0 -131.5 43.5t-51.5 109.5t51.5 109t131.5 43q53 0 95 -21.5t63 -59.5v118
q0 66 -39 104.5t-105 38.5q-78 0 -118 -44q15 -2 25 -14t10 -27q0 -18 -12 -30t-30 -12q-19 0 -31 12.5t-12 32.5q0 44 52 79t126 35q84 0 133.5 -47t49.5 -128v-271q0 -15 5.5 -20.5t20.5 -5.5h55v-35h-21zM239 26q61 0 104 33.5t43 84.5q0 50 -43 83.5t-104 33.5
q-62 0 -102 -33.5t-40 -84.5q0 -50 40 -83.5t102 -33.5z" />
    <glyph glyph-name="Cacute" unicode="&#x106;" horiz-adv-x="729" 
d="M529 868q-33 -40 -130 -125l-16 14q84 133 99 150q22 25 45 6t2 -45zM642 231l36 -8q-26 -111 -100 -172t-184 -61q-146 0 -242.5 100t-96.5 250t96.5 250t243.5 100q66 0 122 -22.5t89 -56t51 -68.5t18 -64q0 -26 -13.5 -38.5t-32.5 -12.5q-20 0 -32 11t-12 29
q0 39 48 39q-18 53 -76.5 99.5t-154.5 46.5q-127 0 -206.5 -87t-79.5 -226t77 -226t200 -87q94 0 158.5 54t90.5 150z" />
    <glyph glyph-name="cacute" unicode="&#x107;" horiz-adv-x="541" 
d="M428 688q-33 -40 -130 -125l-16 14q84 133 99 150q22 25 45 6t2 -45zM468 162l33 -7q-19 -79 -75 -122t-137 -43q-110 0 -179.5 73t-69.5 185q0 113 72 186t179 73q90 0 147 -50.5t57 -110.5q0 -22 -11.5 -34.5t-29.5 -12.5q-20 0 -32 10.5t-12 28.5t13.5 29t30.5 11h1
q-15 42 -54.5 68t-102.5 26q-95 0 -150 -61t-55 -161t54 -161.5t147 -61.5q68 0 112.5 35t61.5 100z" />
    <glyph glyph-name="Cdotaccent" unicode="&#x10a;" horiz-adv-x="729" 
d="M395 765q-19 0 -31.5 12t-12.5 31t12.5 31.5t31.5 12.5q18 0 30 -12.5t12 -31.5t-12 -31t-30 -12zM642 231l36 -8q-26 -111 -100 -172t-184 -61q-146 0 -242.5 100t-96.5 250t96.5 250t243.5 100q66 0 122 -22.5t89 -56t51 -68.5t18 -64q0 -26 -13.5 -38.5t-32.5 -12.5
q-20 0 -32 11t-12 29q0 39 48 39q-18 53 -76.5 99.5t-154.5 46.5q-127 0 -206.5 -87t-79.5 -226t77 -226t200 -87q94 0 158.5 54t90.5 150z" />
    <glyph glyph-name="cdotaccent" unicode="&#x10b;" horiz-adv-x="541" 
d="M294 585q-19 0 -31.5 12t-12.5 31t12.5 31.5t31.5 12.5q18 0 30 -12.5t12 -31.5t-12 -31t-30 -12zM468 162l33 -7q-19 -79 -75 -122t-137 -43q-110 0 -179.5 73t-69.5 185q0 113 72 186t179 73q90 0 147 -50.5t57 -110.5q0 -22 -11.5 -34.5t-29.5 -12.5q-20 0 -32 10.5
t-12 28.5t13.5 29t30.5 11h1q-15 42 -54.5 68t-102.5 26q-95 0 -150 -61t-55 -161t54 -161.5t147 -61.5q68 0 112.5 35t61.5 100z" />
    <glyph glyph-name="Ccaron" unicode="&#x10c;" horiz-adv-x="729" 
d="M395 746q-10 0 -21 16l-104 140l17 14l108 -104l109 104l16 -14l-104 -140q-10 -16 -21 -16zM642 231l36 -8q-26 -111 -100 -172t-184 -61q-146 0 -242.5 100t-96.5 250t96.5 250t243.5 100q66 0 122 -22.5t89 -56t51 -68.5t18 -64q0 -26 -13.5 -38.5t-32.5 -12.5
q-20 0 -32 11t-12 29q0 39 48 39q-18 53 -76.5 99.5t-154.5 46.5q-127 0 -206.5 -87t-79.5 -226t77 -226t200 -87q94 0 158.5 54t90.5 150z" />
    <glyph glyph-name="ccaron" unicode="&#x10d;" horiz-adv-x="541" 
d="M294 566q-10 0 -21 16l-104 140l17 14l108 -104l109 104l16 -14l-104 -140q-10 -16 -21 -16zM468 162l33 -7q-19 -79 -75 -122t-137 -43q-110 0 -179.5 73t-69.5 185q0 113 72 186t179 73q90 0 147 -50.5t57 -110.5q0 -22 -11.5 -34.5t-29.5 -12.5q-20 0 -32 10.5
t-12 28.5t13.5 29t30.5 11h1q-15 42 -54.5 68t-102.5 26q-95 0 -150 -61t-55 -161t54 -161.5t147 -61.5q68 0 112.5 35t61.5 100z" />
    <glyph glyph-name="Dcaron" unicode="&#x10e;" horiz-adv-x="747" 
d="M266 916l108 -104l109 104l16 -14l-104 -140q-10 -16 -21 -16q-10 0 -21 16l-104 140zM345 680q150 0 248.5 -95.5t98.5 -244.5t-98.5 -244.5t-248.5 -95.5h-310v35h79q15 0 20.5 5.5t5.5 20.5v558q0 15 -5.5 20.5t-20.5 5.5h-79v35h310zM345 35q124 0 205.5 85.5
t81.5 219.5t-81.5 219.5t-205.5 85.5h-152v-610h152z" />
    <glyph glyph-name="dcaron" unicode="&#x10f;" horiz-adv-x="632" 
d="M671 690q19 0 32 -13t13 -40q0 -125 -110 -187l-13 20q30 19 49 38t26 38.5t8.5 31t1.5 28.5h-8q-20 0 -31 12t-11 29q0 19 12.5 31t30.5 12zM517 61q0 -15 5.5 -20.5t20.5 -5.5h59v-35h-134v121q-28 -64 -81 -97.5t-117 -33.5q-101 0 -165.5 72.5t-64.5 186.5
q0 113 64.5 185.5t165.5 72.5q64 0 117 -34t81 -97v243q0 15 -5.5 20.5t-20.5 5.5h-64v35h139v-619zM279 26q85 0 137 61.5t52 161.5q0 99 -52.5 160.5t-136.5 61.5q-83 0 -135 -61.5t-52 -160.5q0 -100 52 -161.5t135 -61.5z" />
    <glyph glyph-name="Dcroat" unicode="&#x110;" horiz-adv-x="747" 
d="M345 680q150 0 248.5 -95.5t98.5 -244.5t-98.5 -244.5t-248.5 -95.5h-310v35h79q15 0 20.5 5.5t5.5 20.5v256h-95v35h95v267q0 15 -5.5 20.5t-20.5 5.5h-79v35h310zM345 35q124 0 205.5 85.5t81.5 219.5t-81.5 219.5t-205.5 85.5h-152v-293h217v-35h-217v-282h152z" />
    <glyph glyph-name="dcroat" unicode="&#x111;" horiz-adv-x="632" 
d="M602 585h-85v-524q0 -15 5.5 -20.5t20.5 -5.5h59v-35h-134v121q-28 -64 -81 -97.5t-117 -33.5q-101 0 -165.5 72.5t-64.5 186.5q0 113 64.5 185.5t165.5 72.5q64 0 117 -34t81 -97v209h-153v35h153v60h49v-60h85v-35zM279 26q85 0 137 61.5t52 161.5q0 99 -52.5 160.5
t-136.5 61.5q-83 0 -135 -61.5t-52 -160.5q0 -100 52 -161.5t135 -61.5z" />
    <glyph glyph-name="Emacron" unicode="&#x112;" horiz-adv-x="640" 
d="M193 822h255v-41h-255v41zM540 165h35v-165h-540v35h79q15 0 20.5 5.5t5.5 20.5v558q0 15 -5.5 20.5t-20.5 5.5h-79v35h510v-165h-35q-4 76 -12 94q-18 36 -79 36h-226v-331h162q10 0 17.5 1t13 4.5t9.5 5.5t7 8.5t4.5 9t3 12.5t2 13t1.5 15.5t1 15.5h31v-206h-31
q0 4 -1 18t-1.5 17t-2.5 13.5t-4 13.5t-6.5 9.5t-10 8.5t-14 4t-19.5 2h-162v-244h256q40 0 60 15t24 33.5t6 65.5v5t0.5 5t0.5 6z" />
    <glyph glyph-name="emacron" unicode="&#x113;" horiz-adv-x="529" 
d="M404 642v-41h-255v41h255zM93 239q2 -93 53.5 -152.5t134.5 -59.5q64 0 108 35t62 94l33 -8q-21 -72 -75.5 -115t-133.5 -43q-103 0 -169 73t-66 183q0 111 66.5 186t167.5 75q98 0 156.5 -72t58.5 -185v-11h-396zM275 474q-76 0 -125.5 -57t-55.5 -146h341
q-5 94 -45.5 148.5t-114.5 54.5z" />
    <glyph glyph-name="Edotaccent" unicode="&#x116;" horiz-adv-x="640" 
d="M320 765q-19 0 -31.5 12t-12.5 31t12.5 31.5t31.5 12.5q18 0 30 -12.5t12 -31.5t-12 -31t-30 -12zM540 165h35v-165h-540v35h79q15 0 20.5 5.5t5.5 20.5v558q0 15 -5.5 20.5t-20.5 5.5h-79v35h510v-165h-35q-4 76 -12 94q-18 36 -79 36h-226v-331h162q10 0 17.5 1t13 4.5
t9.5 5.5t7 8.5t4.5 9t3 12.5t2 13t1.5 15.5t1 15.5h31v-206h-31q0 4 -1 18t-1.5 17t-2.5 13.5t-4 13.5t-6.5 9.5t-10 8.5t-14 4t-19.5 2h-162v-244h256q40 0 60 15t24 33.5t6 65.5v5t0.5 5t0.5 6z" />
    <glyph glyph-name="edotaccent" unicode="&#x117;" horiz-adv-x="529" 
d="M276 585q-19 0 -31.5 12t-12.5 31t12.5 31.5t31.5 12.5q18 0 30 -12.5t12 -31.5t-12 -31t-30 -12zM93 239q2 -93 53.5 -152.5t134.5 -59.5q64 0 108 35t62 94l33 -8q-21 -72 -75.5 -115t-133.5 -43q-103 0 -169 73t-66 183q0 111 66.5 186t167.5 75q98 0 156.5 -72
t58.5 -185v-11h-396zM275 474q-76 0 -125.5 -57t-55.5 -146h341q-5 94 -45.5 148.5t-114.5 54.5z" />
    <glyph glyph-name="Eogonek" unicode="&#x118;" horiz-adv-x="640" 
d="M567 0q-62 0 -101 -28t-39 -66q0 -28 18 -43.5t48 -15.5q26 0 66 20l12 -25q-45 -32 -89 -32q-43 0 -72.5 23.5t-29.5 62.5q0 32 22 59.5t60 44.5h-427v35h79q15 0 20.5 5.5t5.5 20.5v558q0 15 -5.5 20.5t-20.5 5.5h-79v35h510v-165h-35q-4 76 -12 94q-18 36 -79 36h-226
v-331h162q10 0 17.5 1t13 4.5t9.5 5.5t7 8.5t4.5 9t3 12.5t2 13t1.5 15.5t1 15.5h31v-206h-31q0 4 -1 18t-1.5 17t-2.5 13.5t-4 13.5t-6.5 9.5t-10 8.5t-14 4t-19.5 2h-162v-244h256q40 0 60 15t24 33.5t6 65.5v5t0.5 5t0.5 6h35v-165h-8z" />
    <glyph glyph-name="eogonek" unicode="&#x119;" horiz-adv-x="529" 
d="M93 239q2 -93 53.5 -152.5t134.5 -59.5q64 0 108 35t62 94l33 -8q-19 -64 -63 -104q-52 -47 -74.5 -76t-22.5 -60q0 -23 16 -39.5t45 -16.5q27 0 69 20l11 -25q-42 -32 -90 -32q-44 0 -70.5 23.5t-26.5 59.5q0 53 61 100q-34 -8 -64 -8q-103 0 -169 73t-66 183
q0 111 66.5 186t167.5 75q98 0 156.5 -72t58.5 -185v-11h-396zM275 474q-76 0 -125.5 -57t-55.5 -146h341q-5 94 -45.5 148.5t-114.5 54.5z" />
    <glyph glyph-name="Ecaron" unicode="&#x11a;" horiz-adv-x="640" 
d="M212 916l108 -104l109 104l16 -14l-104 -140q-10 -16 -21 -16q-10 0 -21 16l-104 140zM540 165h35v-165h-540v35h79q15 0 20.5 5.5t5.5 20.5v558q0 15 -5.5 20.5t-20.5 5.5h-79v35h510v-165h-35q-4 76 -12 94q-18 36 -79 36h-226v-331h162q10 0 17.5 1t13 4.5t9.5 5.5
t7 8.5t4.5 9t3 12.5t2 13t1.5 15.5t1 15.5h31v-206h-31q0 4 -1 18t-1.5 17t-2.5 13.5t-4 13.5t-6.5 9.5t-10 8.5t-14 4t-19.5 2h-162v-244h256q40 0 60 15t24 33.5t6 65.5v5t0.5 5t0.5 6z" />
    <glyph glyph-name="ecaron" unicode="&#x11b;" horiz-adv-x="529" 
d="M276 566q-10 0 -21 16l-104 140l17 14l108 -104l109 104l16 -14l-104 -140q-10 -16 -21 -16zM93 239q2 -93 53.5 -152.5t134.5 -59.5q64 0 108 35t62 94l33 -8q-21 -72 -75.5 -115t-133.5 -43q-103 0 -169 73t-66 183q0 111 66.5 186t167.5 75q98 0 156.5 -72t58.5 -185
v-11h-396zM275 474q-76 0 -125.5 -57t-55.5 -146h341q-5 94 -45.5 148.5t-114.5 54.5z" />
    <glyph glyph-name="Gbreve" unicode="&#x11e;" horiz-adv-x="787" 
d="M404 767q-50 0 -83 32.5t-39 92.5l30 4q19 -85 92 -85t92 85l29 -4q-6 -60 -38.5 -92.5t-82.5 -32.5zM415 283h317v-35h-45q-15 0 -20.5 -5.5t-5.5 -20.5v-222h-28l-21 90q-81 -100 -218 -100q-146 0 -242.5 100t-96.5 249q0 151 97 251t243 100q127 0 203.5 -67.5
t76.5 -133.5q0 -26 -13.5 -38.5t-32.5 -12.5q-20 0 -32 11t-12 29q0 39 48 39q-18 50 -75.5 93t-155.5 43q-127 0 -206.5 -87t-79.5 -226t77 -226t200 -87q141 0 215 115v80q0 15 -5.5 20.5t-20.5 5.5h-167v35z" />
    <glyph glyph-name="gbreve" unicode="&#x11f;" horiz-adv-x="524" 
d="M269 587q-50 0 -83 32.5t-39 92.5l30 4q19 -85 92 -85t92 85l29 -4q-6 -60 -38.5 -92.5t-82.5 -32.5zM333 85q67 0 109.5 -35t42.5 -88q0 -68 -62 -110t-156 -42q-99 0 -161.5 37t-62.5 100q0 38 24 66.5t66 39.5q-29 10 -46 30.5t-17 46.5q0 29 19.5 49t52.5 29
q-71 49 -71 133q0 72 54.5 119t140.5 47q74 0 127 -37q50 22 60 64h-1q-19 0 -29.5 12t-10.5 28q0 17 12 29t31 12q18 0 31 -13t13 -37q0 -34 -24 -64t-65 -45q51 -46 51 -115q0 -73 -54.5 -120.5t-140.5 -47.5q-55 0 -98 20q-58 -10 -58 -57q0 -22 19.5 -36.5t49.5 -14.5
h154zM266 476q-62 0 -101 -37.5t-39 -98.5q0 -60 39 -98t101 -38t101.5 38t39.5 98q0 61 -39.5 98.5t-101.5 37.5zM268 -153q73 0 122.5 30.5t49.5 80.5q0 37 -29 60.5t-78 23.5h-151q-41 0 -66.5 -25.5t-25.5 -62.5q0 -50 49 -78.5t129 -28.5z" />
    <glyph glyph-name="Gdotaccent" unicode="&#x120;" horiz-adv-x="787" 
d="M404 765q-19 0 -31.5 12t-12.5 31t12.5 31.5t31.5 12.5q18 0 30 -12.5t12 -31.5t-12 -31t-30 -12zM415 283h317v-35h-45q-15 0 -20.5 -5.5t-5.5 -20.5v-222h-28l-21 90q-81 -100 -218 -100q-146 0 -242.5 100t-96.5 249q0 151 97 251t243 100q127 0 203.5 -67.5
t76.5 -133.5q0 -26 -13.5 -38.5t-32.5 -12.5q-20 0 -32 11t-12 29q0 39 48 39q-18 50 -75.5 93t-155.5 43q-127 0 -206.5 -87t-79.5 -226t77 -226t200 -87q141 0 215 115v80q0 15 -5.5 20.5t-20.5 5.5h-167v35z" />
    <glyph glyph-name="gdotaccent" unicode="&#x121;" horiz-adv-x="524" 
d="M269 585q-19 0 -31.5 12t-12.5 31t12.5 31.5t31.5 12.5q18 0 30 -12.5t12 -31.5t-12 -31t-30 -12zM333 85q67 0 109.5 -35t42.5 -88q0 -68 -62 -110t-156 -42q-99 0 -161.5 37t-62.5 100q0 38 24 66.5t66 39.5q-29 10 -46 30.5t-17 46.5q0 29 19.5 49t52.5 29
q-71 49 -71 133q0 72 54.5 119t140.5 47q74 0 127 -37q50 22 60 64h-1q-19 0 -29.5 12t-10.5 28q0 17 12 29t31 12q18 0 31 -13t13 -37q0 -34 -24 -64t-65 -45q51 -46 51 -115q0 -73 -54.5 -120.5t-140.5 -47.5q-55 0 -98 20q-58 -10 -58 -57q0 -22 19.5 -36.5t49.5 -14.5
h154zM266 476q-62 0 -101 -37.5t-39 -98.5q0 -60 39 -98t101 -38t101.5 38t39.5 98q0 61 -39.5 98.5t-101.5 37.5zM268 -153q73 0 122.5 30.5t49.5 80.5q0 37 -29 60.5t-78 23.5h-151q-41 0 -66.5 -25.5t-25.5 -62.5q0 -50 49 -78.5t129 -28.5z" />
    <glyph glyph-name="Gcommaaccent" unicode="&#x122;" horiz-adv-x="787" 
d="M415 283h317v-35h-45q-15 0 -20.5 -5.5t-5.5 -20.5v-222h-28l-21 90q-81 -100 -218 -100q-146 0 -242.5 100t-96.5 249q0 151 97 251t243 100q127 0 203.5 -67.5t76.5 -133.5q0 -26 -13.5 -38.5t-32.5 -12.5q-20 0 -32 11t-12 29q0 39 48 39q-18 50 -75.5 93t-155.5 43
q-127 0 -206.5 -87t-79.5 -226t77 -226t200 -87q141 0 215 115v80q0 15 -5.5 20.5t-20.5 5.5h-167v35zM389 -71q19 0 32.5 -12.5t13.5 -38.5q0 -109 -103 -148l-11 20q35 16 53.5 36t21.5 32.5t3 30.5q-4 -1 -11 -1q-20 0 -31 11.5t-11 28.5t12.5 29t30.5 12z" />
    <glyph glyph-name="gcommaaccent" unicode="&#x123;" horiz-adv-x="524" 
d="M261 571q-19 0 -32.5 12.5t-13.5 38.5q0 109 103 148l11 -20q-35 -16 -53.5 -36t-21.5 -32.5t-3 -30.5q4 1 11 1q20 0 31 -11.5t11 -28.5t-12.5 -29t-30.5 -12zM333 85q67 0 109.5 -35t42.5 -88q0 -68 -62 -110t-156 -42q-99 0 -161.5 37t-62.5 100q0 38 24 66.5t66 39.5
q-29 10 -46 30.5t-17 46.5q0 29 19.5 49t52.5 29q-71 49 -71 133q0 72 54.5 119t140.5 47q74 0 127 -37q50 22 60 64h-1q-19 0 -29.5 12t-10.5 28q0 17 12 29t31 12q18 0 31 -13t13 -37q0 -34 -24 -64t-65 -45q51 -46 51 -115q0 -73 -54.5 -120.5t-140.5 -47.5q-55 0 -98 20
q-58 -10 -58 -57q0 -22 19.5 -36.5t49.5 -14.5h154zM266 476q-62 0 -101 -37.5t-39 -98.5q0 -60 39 -98t101 -38t101.5 38t39.5 98q0 61 -39.5 98.5t-101.5 37.5zM268 -153q73 0 122.5 30.5t49.5 80.5q0 37 -29 60.5t-78 23.5h-151q-41 0 -66.5 -25.5t-25.5 -62.5
q0 -50 49 -78.5t129 -28.5z" />
    <glyph glyph-name="Hbar" unicode="&#x126;" horiz-adv-x="755" 
d="M641 645q-15 0 -20.5 -5.5t-5.5 -20.5v-129h105v-35h-105v-394q0 -15 5.5 -20.5t20.5 -5.5h79v-35h-252v35h69q15 0 20.5 5.5t5.5 20.5v221h-370v-221q0 -15 5.5 -20.5t20.5 -5.5h69v-35h-253v35h79q15 0 20.5 5.5t5.5 20.5v394h-85v35h85v129q0 15 -5.5 20.5t-20.5 5.5
h-79v35h253v-35h-69q-15 0 -20.5 -5.5t-5.5 -20.5v-129h370v129q0 15 -5.5 20.5t-20.5 5.5h-69v35h252v-35h-79zM563 317v138h-370v-138h370z" />
    <glyph glyph-name="hbar" unicode="&#x127;" horiz-adv-x="624" 
d="M538 35h59v-35h-209v35h49q15 0 20.5 5.5t5.5 20.5v284q0 52 -36 86.5t-89 34.5q-64 0 -111.5 -44.5t-54.5 -126.5v-234q0 -15 5.5 -20.5t20.5 -5.5h49v-35h-209v35h59q15 0 20.5 5.5t5.5 20.5v524h-85v35h85v60h49v-60h153v-35h-153v-201q25 57 72.5 90t107.5 33
q68 0 114 -45t46 -112v-289q0 -15 5.5 -20.5t20.5 -5.5z" />
    <glyph glyph-name="Imacron" unicode="&#x12a;" horiz-adv-x="389" 
d="M68 822h255v-41h-255v41zM247 645q-15 0 -20.5 -5.5t-5.5 -20.5v-558q0 -15 5.5 -20.5t20.5 -5.5h97v-35h-299v35h98q15 0 20.5 5.5t5.5 20.5v558q0 15 -5.5 20.5t-20.5 5.5h-98v35h299v-35h-97z" />
    <glyph glyph-name="imacron" unicode="&#x12b;" horiz-adv-x="299" 
d="M23 642h255v-41h-255v41zM210 35h64v-35h-229v35h64q15 0 20.5 5.5t5.5 20.5v378q0 15 -5.5 20.5t-20.5 5.5h-64v35h139v-439q0 -15 5.5 -20.5t20.5 -5.5z" />
    <glyph glyph-name="Iogonek" unicode="&#x12e;" horiz-adv-x="389" 
d="M247 645q-15 0 -20.5 -5.5t-5.5 -20.5v-558q0 -15 5.5 -20.5t20.5 -5.5h97v-35h-86q-62 0 -101 -28t-39 -66q0 -28 18 -43.5t48 -15.5q26 0 66 20l12 -25q-45 -32 -89 -32q-43 0 -72.5 23.5t-29.5 62.5q0 32 22 59.5t60 44.5h-108v35h98q15 0 20.5 5.5t5.5 20.5v558
q0 15 -5.5 20.5t-20.5 5.5h-98v35h299v-35h-97z" />
    <glyph glyph-name="iogonek" unicode="&#x12f;" horiz-adv-x="299" 
d="M163 585q-19 0 -31.5 12t-12.5 31t12.5 31.5t31.5 12.5q18 0 30 -12.5t12 -31.5t-12 -31t-30 -12zM232 0q-62 0 -101 -28t-39 -66q0 -28 18 -43.5t48 -15.5q26 0 66 20l12 -25q-45 -32 -89 -32q-43 0 -72.5 23.5t-29.5 62.5q0 32 22 59.5t60 44.5h-82v35h64
q15 0 20.5 5.5t5.5 20.5v378q0 15 -5.5 20.5t-20.5 5.5h-64v35h139v-439q0 -15 5.5 -20.5t20.5 -5.5h64v-35h-42z" />
    <glyph glyph-name="Idotaccent" unicode="&#x130;" horiz-adv-x="389" 
d="M195 765q-19 0 -31.5 12t-12.5 31t12.5 31.5t31.5 12.5q18 0 30 -12.5t12 -31.5t-12 -31t-30 -12zM247 645q-15 0 -20.5 -5.5t-5.5 -20.5v-558q0 -15 5.5 -20.5t20.5 -5.5h97v-35h-299v35h98q15 0 20.5 5.5t5.5 20.5v558q0 15 -5.5 20.5t-20.5 5.5h-98v35h299v-35h-97z
" />
    <glyph glyph-name="dotlessi" unicode="&#x131;" horiz-adv-x="299" 
d="M210 35h64v-35h-229v35h64q15 0 20.5 5.5t5.5 20.5v378q0 15 -5.5 20.5t-20.5 5.5h-64v35h139v-439q0 -15 5.5 -20.5t20.5 -5.5z" />
    <glyph glyph-name="Kcommaaccent" unicode="&#x136;" horiz-adv-x="730" 
d="M193 61q0 -15 5.5 -20.5t20.5 -5.5h69v-35h-253v35h79q15 0 20.5 5.5t5.5 20.5v558q0 15 -5.5 20.5t-20.5 5.5h-79v35h253v-35h-69q-15 0 -20.5 -5.5t-5.5 -20.5v-558zM638 35h72v-35h-310v35h95q28 0 7 27l-236 270l261 289q21 24 -9 24h-109v35h278v-35h-41
q-48 0 -73 -28l-248 -276l233 -270q30 -36 80 -36zM374 -71q19 0 32.5 -12.5t13.5 -38.5q0 -109 -103 -148l-11 20q35 16 53.5 36t21.5 32.5t3 30.5q-4 -1 -11 -1q-20 0 -31 11.5t-11 28.5t12.5 29t30.5 12z" />
    <glyph glyph-name="kcommaaccent" unicode="&#x137;" horiz-adv-x="584" 
d="M167 61q0 -15 5.5 -20.5t20.5 -5.5h59v-35h-214v35h54q15 0 20.5 5.5t5.5 20.5v558q0 15 -5.5 20.5t-20.5 5.5h-54v35h129v-619zM540 35h24v-35h-223v35h62q34 0 11 26l-195 215l181 167q10 9 7 15.5t-16 6.5h-90v35h243v-35h-40q-32 0 -63 -29l-169 -155l195 -214
q29 -32 73 -32zM303 -71q19 0 32.5 -12.5t13.5 -38.5q0 -109 -103 -148l-11 20q35 16 53.5 36t21.5 32.5t3 30.5q-4 -1 -11 -1q-20 0 -31 11.5t-11 28.5t12.5 29t30.5 12z" />
    <glyph glyph-name="Lacute" unicode="&#x139;" horiz-adv-x="605" 
d="M161 757q84 133 99 150q22 25 45 6t2 -45q-33 -40 -130 -125zM515 186h35v-186h-515v35h79q15 0 20.5 5.5t5.5 20.5v558q0 15 -5.5 20.5t-20.5 5.5h-79v35h300v-35h-116q-15 0 -20.5 -5.5t-5.5 -20.5v-584h231q25 0 41.5 6.5t25.5 14t14 29t6 34.5t3 48q1 12 1 19z" />
    <glyph glyph-name="lacute" unicode="&#x13a;" horiz-adv-x="314" 
d="M146 757q84 133 99 150q22 25 45 6t2 -45q-33 -40 -130 -125zM215 35h69v-35h-239v35h69q15 0 20.5 5.5t5.5 20.5v558q0 15 -5.5 20.5t-20.5 5.5h-69v35h144v-619q0 -15 5.5 -20.5t20.5 -5.5z" />
    <glyph glyph-name="Lcommaaccent" unicode="&#x13b;" horiz-adv-x="605" 
d="M515 186h35v-186h-515v35h79q15 0 20.5 5.5t5.5 20.5v558q0 15 -5.5 20.5t-20.5 5.5h-79v35h300v-35h-116q-15 0 -20.5 -5.5t-5.5 -20.5v-584h231q25 0 41.5 6.5t25.5 14t14 29t6 34.5t3 48q1 12 1 19zM311 -71q19 0 32.5 -12.5t13.5 -38.5q0 -109 -103 -148l-11 20
q35 16 53.5 36t21.5 32.5t3 30.5q-4 -1 -11 -1q-20 0 -31 11.5t-11 28.5t12.5 29t30.5 12z" />
    <glyph glyph-name="lcommaaccent" unicode="&#x13c;" horiz-adv-x="314" 
d="M215 35h69v-35h-239v35h69q15 0 20.5 5.5t5.5 20.5v558q0 15 -5.5 20.5t-20.5 5.5h-69v35h144v-619q0 -15 5.5 -20.5t20.5 -5.5zM163 -71q19 0 32.5 -12.5t13.5 -38.5q0 -109 -103 -148l-11 20q35 16 53.5 36t21.5 32.5t3 30.5q-4 -1 -11 -1q-20 0 -31 11.5t-11 28.5
t12.5 29t30.5 12z" />
    <glyph glyph-name="Lcaron" unicode="&#x13d;" horiz-adv-x="605" 
d="M401 470q30 19 49 38t26 38.5t8.5 31t1.5 28.5h-8q-20 0 -31 12t-11 29q0 19 12.5 31t30.5 12q19 0 32 -13t13 -40q0 -125 -110 -187zM515 186h35v-186h-515v35h79q15 0 20.5 5.5t5.5 20.5v558q0 15 -5.5 20.5t-20.5 5.5h-79v35h300v-35h-116q-15 0 -20.5 -5.5
t-5.5 -20.5v-584h231q25 0 41.5 6.5t25.5 14t14 29t6 34.5t3 48q1 12 1 19z" />
    <glyph glyph-name="lcaron" unicode="&#x13e;" horiz-adv-x="314" 
d="M338 690q19 0 32 -13t13 -40q0 -125 -110 -187l-13 20q30 19 49 38t26 38.5t8.5 31t1.5 28.5h-8q-20 0 -31 12t-11 29q0 19 12.5 31t30.5 12zM189 61q0 -15 5.5 -20.5t20.5 -5.5h69v-35h-239v35h69q15 0 20.5 5.5t5.5 20.5v558q0 15 -5.5 20.5t-20.5 5.5h-69v35h144v-619
z" />
    <glyph glyph-name="Lslash" unicode="&#x141;" horiz-adv-x="605" 
d="M515 186h35v-186h-515v35h79q15 0 20.5 5.5t5.5 20.5v198l-78 -50l-16 33l94 61v316q0 15 -5.5 20.5t-20.5 5.5h-79v35h300v-35h-116q-15 0 -20.5 -5.5t-5.5 -20.5v-282l230 148l16 -33l-246 -159v-258h231q25 0 41.5 6.5t25.5 14t14 29t6 34.5t3 48q1 12 1 19z" />
    <glyph glyph-name="lslash" unicode="&#x142;" horiz-adv-x="317" 
d="M189 61q0 -15 5.5 -20.5t20.5 -5.5h69v-35h-239v35h69q15 0 20.5 5.5t5.5 20.5v198l-76 -48l-16 33l92 58v317q0 15 -5.5 20.5t-20.5 5.5h-69v35h144v-346l81 51l16 -33l-97 -62v-229z" />
    <glyph glyph-name="Nacute" unicode="&#x143;" horiz-adv-x="765" 
d="M371 757q84 133 99 150q22 25 45 6t2 -45q-33 -40 -130 -125zM735 680v-35h-84q-15 0 -20.5 -5.5t-5.5 -20.5v-619h-19l-427 615v-554q0 -15 5.5 -20.5t20.5 -5.5h79v-35h-249v35h79q15 0 20.5 5.5t5.5 20.5v558q0 15 -5.5 20.5t-20.5 5.5h-79v35h154l397 -567v506
q0 15 -5.5 20.5t-20.5 5.5h-79v35h254z" />
    <glyph glyph-name="nacute" unicode="&#x144;" horiz-adv-x="631" 
d="M450 688q-33 -40 -130 -125l-16 14q84 133 99 150q22 25 45 6t2 -45zM545 35h59v-35h-209v35h49q15 0 20.5 5.5t5.5 20.5v284q0 52 -35.5 86.5t-89.5 34.5q-68 0 -117 -51t-49 -144v-210q0 -15 5.5 -20.5t20.5 -5.5h49v-35h-209v35h59q15 0 20.5 5.5t5.5 20.5v378
q0 15 -5.5 20.5t-20.5 5.5h-59v35h134v-118q25 57 73 91t108 34q68 0 113.5 -45t45.5 -112v-289q0 -15 5.5 -20.5t20.5 -5.5z" />
    <glyph glyph-name="Ncommaaccent" unicode="&#x145;" horiz-adv-x="765" 
d="M481 680h254v-35h-84q-15 0 -20.5 -5.5t-5.5 -20.5v-619h-19l-427 615v-554q0 -15 5.5 -20.5t20.5 -5.5h79v-35h-249v35h79q15 0 20.5 5.5t5.5 20.5v558q0 15 -5.5 20.5t-20.5 5.5h-79v35h154l397 -567v506q0 15 -5.5 20.5t-20.5 5.5h-79v35zM391 -71q19 0 32.5 -12.5
t13.5 -38.5q0 -109 -103 -148l-11 20q35 16 53.5 36t21.5 32.5t3 30.5q-4 -1 -11 -1q-20 0 -31 11.5t-11 28.5t12.5 29t30.5 12z" />
    <glyph glyph-name="ncommaaccent" unicode="&#x146;" horiz-adv-x="631" 
d="M545 35h59v-35h-209v35h49q15 0 20.5 5.5t5.5 20.5v284q0 52 -35.5 86.5t-89.5 34.5q-68 0 -117 -51t-49 -144v-210q0 -15 5.5 -20.5t20.5 -5.5h49v-35h-209v35h59q15 0 20.5 5.5t5.5 20.5v378q0 15 -5.5 20.5t-20.5 5.5h-59v35h134v-118q25 57 73 91t108 34
q68 0 113.5 -45t45.5 -112v-289q0 -15 5.5 -20.5t20.5 -5.5zM324 -71q19 0 32.5 -12.5t13.5 -38.5q0 -109 -103 -148l-11 20q35 16 53.5 36t21.5 32.5t3 30.5q-4 -1 -11 -1q-20 0 -31 11.5t-11 28.5t12.5 29t30.5 12z" />
    <glyph glyph-name="Ncaron" unicode="&#x147;" horiz-adv-x="765" 
d="M275 916l108 -104l109 104l16 -14l-104 -140q-10 -16 -21 -16q-10 0 -21 16l-104 140zM735 680v-35h-84q-15 0 -20.5 -5.5t-5.5 -20.5v-619h-19l-427 615v-554q0 -15 5.5 -20.5t20.5 -5.5h79v-35h-249v35h79q15 0 20.5 5.5t5.5 20.5v558q0 15 -5.5 20.5t-20.5 5.5h-79v35
h154l397 -567v506q0 15 -5.5 20.5t-20.5 5.5h-79v35h254z" />
    <glyph glyph-name="ncaron" unicode="&#x148;" horiz-adv-x="631" 
d="M316 566q-10 0 -21 16l-104 140l17 14l108 -104l109 104l16 -14l-104 -140q-10 -16 -21 -16zM545 35h59v-35h-209v35h49q15 0 20.5 5.5t5.5 20.5v284q0 52 -35.5 86.5t-89.5 34.5q-68 0 -117 -51t-49 -144v-210q0 -15 5.5 -20.5t20.5 -5.5h49v-35h-209v35h59
q15 0 20.5 5.5t5.5 20.5v378q0 15 -5.5 20.5t-20.5 5.5h-59v35h134v-118q25 57 73 91t108 34q68 0 113.5 -45t45.5 -112v-289q0 -15 5.5 -20.5t20.5 -5.5z" />
    <glyph glyph-name="Eng" unicode="&#x14a;" horiz-adv-x="755" 
d="M481 680h254v-35h-84q-15 0 -20.5 -5.5t-5.5 -20.5v-674q0 -63 -34.5 -99t-91.5 -36q-44 0 -73 22t-29 54q0 19 12 31.5t29 12.5t28 -10t11 -28q0 -17 -11.5 -26.5t-28.5 -8.5q19 -20 51 -20q85 0 85 108v103l-394 567v-554q0 -15 5.5 -20.5t20.5 -5.5h79v-35h-249v35h79
q15 0 20.5 5.5t5.5 20.5v558q0 15 -5.5 20.5t-20.5 5.5h-79v35h154l397 -567v506q0 15 -5.5 20.5t-20.5 5.5h-79v35z" />
    <glyph glyph-name="eng" unicode="&#x14b;" horiz-adv-x="599" 
d="M360 507q68 0 113.5 -45t45.5 -112v-405q0 -63 -33 -99t-90 -36q-43 0 -72 22t-29 54q0 19 11.5 31.5t28.5 12.5q18 0 28.5 -10t10.5 -28q0 -17 -11.5 -27t-28.5 -8q19 -20 51 -20q85 0 85 108v400q0 52 -35.5 86.5t-89.5 34.5q-68 0 -117 -51t-49 -144v-210
q0 -15 5.5 -20.5t20.5 -5.5h49v-35h-209v35h59q15 0 20.5 5.5t5.5 20.5v378q0 15 -5.5 20.5t-20.5 5.5h-59v35h134v-118q25 57 73 91t108 34z" />
    <glyph glyph-name="Omacron" unicode="&#x14c;" horiz-adv-x="784" 
d="M265 822h255v-41h-255v41zM392 690q145 0 241 -100.5t96 -249.5q0 -148 -96 -249t-241 -101t-241 101t-96 249q0 149 96 249.5t241 100.5zM392 27q123 0 200 88t77 225t-77 225t-200 88t-199.5 -88t-76.5 -225t76.5 -225t199.5 -88z" />
    <glyph glyph-name="omacron" unicode="&#x14d;" horiz-adv-x="571" 
d="M159 642h255v-41h-255v41zM286 507q104 0 174.5 -72.5t70.5 -183.5q0 -112 -70.5 -186.5t-174.5 -74.5t-175 74.5t-71 186.5q0 111 71 183.5t175 72.5zM286 23q85 0 139 63.5t54 164.5q0 100 -53.5 161.5t-139.5 61.5t-139.5 -61.5t-53.5 -161.5q0 -101 54 -164.5
t139 -63.5z" />
    <glyph glyph-name="Ohungarumlaut" unicode="&#x150;" horiz-adv-x="784" 
d="M300 757q84 133 99 150q22 25 45 6t2 -45q-33 -40 -130 -125zM460 757q84 133 99 150q22 25 45 6t2 -45q-28 -36 -130 -125zM392 690q145 0 241 -100.5t96 -249.5q0 -148 -96 -249t-241 -101t-241 101t-96 249q0 149 96 249.5t241 100.5zM392 27q123 0 200 88t77 225
t-77 225t-200 88t-199.5 -88t-76.5 -225t76.5 -225t199.5 -88z" />
    <glyph glyph-name="ohungarumlaut" unicode="&#x151;" horiz-adv-x="571" 
d="M194 577q84 133 99 150q22 25 45 6t2 -45q-33 -40 -130 -125zM354 577q84 133 99 150q22 25 45 6t2 -45q-28 -36 -130 -125zM286 507q104 0 174.5 -72.5t70.5 -183.5q0 -112 -70.5 -186.5t-174.5 -74.5t-175 74.5t-71 186.5q0 111 71 183.5t175 72.5zM286 23
q85 0 139 63.5t54 164.5q0 100 -53.5 161.5t-139.5 61.5t-139.5 -61.5t-53.5 -161.5q0 -101 54 -164.5t139 -63.5z" />
    <glyph glyph-name="OE" unicode="&#x152;" horiz-adv-x="1055" 
d="M955 165h35v-165h-588q-149 0 -248 95.5t-99 244.5t99 244.5t248 95.5h558v-165h-35q-4 76 -12 94q-18 36 -79 36h-227v-331h163q8 0 15 1.5t12.5 2.5t9.5 5.5t7 6t5.5 8.5t3.5 9t2.5 12t1.5 12t1 14t1 14h31v-206h-31q0 4 -1 18t-1.5 17t-2.5 13.5t-4 13.5t-6.5 9.5
t-10 8.5t-14 4t-19.5 2h-163v-244h257q40 0 60 15t24 33.5t6 65.5v5t0.5 5t0.5 6zM555 645h-153q-124 0 -205 -85.5t-81 -219.5t81 -219.5t205 -85.5h153v610z" />
    <glyph glyph-name="oe" unicode="&#x153;" horiz-adv-x="967" 
d="M532 239q2 -93 53.5 -152.5t134.5 -59.5q64 0 108 35t62 94l33 -8q-21 -72 -75.5 -115t-133.5 -43q-72 0 -127.5 37t-83.5 100q-30 -63 -88 -100t-129 -37q-104 0 -175 74.5t-71 186.5q0 111 71 183.5t175 72.5q72 0 130.5 -37t88.5 -100q29 63 84 100t124 37
q98 0 156.5 -72t58.5 -185v-11h-396zM286 23q85 0 139 63.5t54 164.5q0 100 -53.5 161.5t-139.5 61.5t-139.5 -61.5t-53.5 -161.5q0 -101 54 -164.5t139 -63.5zM714 474q-76 0 -125.5 -57t-55.5 -146h341q-5 94 -45.5 148.5t-114.5 54.5z" />
    <glyph glyph-name="Racute" unicode="&#x154;" horiz-adv-x="688" 
d="M465 868q-33 -40 -130 -125l-16 14q84 133 99 150q22 25 45 6t2 -45zM618 35h67v-35h-166l-103 208q-22 45 -55.5 60t-90.5 15h-77v-222q0 -15 5.5 -20.5t20.5 -5.5h89v-35h-273v35h79q15 0 20.5 5.5t5.5 20.5v558q0 15 -5.5 20.5t-20.5 5.5h-79v35h290
q119 0 189.5 -52.5t70.5 -134.5q0 -80 -57.5 -136t-151.5 -70q70 -19 105 -93l62 -124q10 -20 27 -27.5t48 -7.5zM193 318h132q95 0 149 50.5t54 123.5q0 65 -54 109t-149 44h-132v-327z" />
    <glyph glyph-name="racute" unicode="&#x155;" horiz-adv-x="445" 
d="M357 688q-33 -40 -130 -125l-16 14q84 133 99 150q22 25 45 6t2 -45zM343 507q39 0 60.5 -17t21.5 -42q0 -20 -12 -32.5t-31 -12.5q-17 0 -28.5 11t-11.5 28q0 22 14 30q-5 1 -16 1q-69 0 -114 -62.5t-52 -181.5v-168q0 -15 5.5 -20.5t20.5 -5.5h99v-35h-254v35h54
q15 0 20.5 5.5t5.5 20.5v378q0 15 -5.5 20.5t-20.5 5.5h-54v35h129v-149q43 156 169 156z" />
    <glyph glyph-name="Rcommaaccent" unicode="&#x156;" horiz-adv-x="688" 
d="M618 35h67v-35h-166l-103 208q-22 45 -55.5 60t-90.5 15h-77v-222q0 -15 5.5 -20.5t20.5 -5.5h89v-35h-273v35h79q15 0 20.5 5.5t5.5 20.5v558q0 15 -5.5 20.5t-20.5 5.5h-79v35h290q119 0 189.5 -52.5t70.5 -134.5q0 -80 -57.5 -136t-151.5 -70q70 -19 105 -93l62 -124
q10 -20 27 -27.5t48 -7.5zM193 318h132q95 0 149 50.5t54 123.5q0 65 -54 109t-149 44h-132v-327zM352 -71q19 0 32.5 -12.5t13.5 -38.5q0 -109 -103 -148l-11 20q35 16 53.5 36t21.5 32.5t3 30.5q-4 -1 -11 -1q-20 0 -31 11.5t-11 28.5t12.5 29t30.5 12z" />
    <glyph glyph-name="rcommaaccent" unicode="&#x157;" horiz-adv-x="445" 
d="M343 507q39 0 60.5 -17t21.5 -42q0 -20 -12 -32.5t-31 -12.5q-17 0 -28.5 11t-11.5 28q0 22 14 30q-5 1 -16 1q-69 0 -114 -62.5t-52 -181.5v-168q0 -15 5.5 -20.5t20.5 -5.5h99v-35h-254v35h54q15 0 20.5 5.5t5.5 20.5v378q0 15 -5.5 20.5t-20.5 5.5h-54v35h129v-149
q43 156 169 156zM147 -71q19 0 32.5 -12.5t13.5 -38.5q0 -109 -103 -148l-11 20q35 16 53.5 36t21.5 32.5t3 30.5q-4 -1 -11 -1q-20 0 -31 11.5t-11 28.5t12.5 29t30.5 12z" />
    <glyph glyph-name="Rcaron" unicode="&#x158;" horiz-adv-x="688" 
d="M331 746q-10 0 -21 16l-104 140l17 14l108 -104l109 104l16 -14l-104 -140q-10 -16 -21 -16zM618 35h67v-35h-166l-103 208q-22 45 -55.5 60t-90.5 15h-77v-222q0 -15 5.5 -20.5t20.5 -5.5h89v-35h-273v35h79q15 0 20.5 5.5t5.5 20.5v558q0 15 -5.5 20.5t-20.5 5.5h-79
v35h290q119 0 189.5 -52.5t70.5 -134.5q0 -80 -57.5 -136t-151.5 -70q70 -19 105 -93l62 -124q10 -20 27 -27.5t48 -7.5zM193 318h132q95 0 149 50.5t54 123.5q0 65 -54 109t-149 44h-132v-327z" />
    <glyph glyph-name="rcaron" unicode="&#x159;" horiz-adv-x="445" 
d="M223 566q-10 0 -21 16l-104 140l17 14l108 -104l109 104l16 -14l-104 -140q-10 -16 -21 -16zM343 507q39 0 60.5 -17t21.5 -42q0 -20 -12 -32.5t-31 -12.5q-17 0 -28.5 11t-11.5 28q0 22 14 30q-5 1 -16 1q-69 0 -114 -62.5t-52 -181.5v-168q0 -15 5.5 -20.5t20.5 -5.5
h99v-35h-254v35h54q15 0 20.5 5.5t5.5 20.5v378q0 15 -5.5 20.5t-20.5 5.5h-54v35h129v-149q43 156 169 156z" />
    <glyph glyph-name="Sacute" unicode="&#x15a;" horiz-adv-x="568" 
d="M417 868q-33 -40 -130 -125l-16 14q84 133 99 150q22 25 45 6t2 -45zM127 521q0 -53 40 -86t96.5 -50.5t113 -38t96.5 -63t40 -109.5q0 -80 -59.5 -132t-160.5 -52q-62 0 -110.5 19.5t-75 50.5t-39.5 62.5t-13 60.5q0 28 14 42.5t35 14.5q18 0 29.5 -11t11.5 -28
q0 -20 -14.5 -31.5t-34.5 -9.5q13 -54 59.5 -94t136.5 -40q81 0 126 39.5t45 100.5q0 56 -40 91t-96.5 52.5t-113 36.5t-96.5 59.5t-40 105.5q0 79 57.5 129t154.5 50q107 0 163 -55t56 -114q0 -51 -44 -51q-18 0 -30 11.5t-12 28.5q0 19 13.5 30.5t32.5 11.5
q-39 103 -171 103q-80 0 -125 -37.5t-45 -96.5z" />
    <glyph glyph-name="sacute" unicode="&#x15b;" horiz-adv-x="464" 
d="M366 688q-33 -40 -130 -125l-16 14q84 133 99 150q22 25 45 6t2 -45zM111 383q0 -38 31.5 -61.5t76.5 -35.5t89.5 -26t76 -45.5t31.5 -82.5q0 -66 -48 -104t-128 -38q-84 0 -138 39t-54 89q0 22 11.5 34.5t29.5 12.5q17 0 28 -10.5t11 -28.5q0 -17 -10.5 -27.5
t-29.5 -10.5q17 -30 56.5 -48.5t89.5 -18.5q63 0 99.5 28t36.5 75q0 42 -31.5 67t-76.5 37.5t-90 25.5t-76.5 42.5t-31.5 78.5q0 61 45.5 96.5t126.5 35.5q78 0 125 -31t47 -73q0 -21 -11.5 -33.5t-29.5 -12.5q-17 0 -28 10.5t-11 27.5q0 15 10.5 25t27.5 12q-31 44 -122 44
q-64 0 -98.5 -25.5t-34.5 -67.5z" />
    <glyph glyph-name="Scedilla" unicode="&#x15e;" horiz-adv-x="568" 
d="M293 -10h-13l-32 -62q52 2 83.5 -20.5t31.5 -57.5t-29.5 -58t-74.5 -23q-52 0 -97 30l13 25q40 -25 81 -25q29 0 47 14t18 37q0 30 -31 43t-82 7l-9 13l50 80q-96 12 -145 71t-49 119q0 28 14 42.5t35 14.5q18 0 29.5 -11t11.5 -28q0 -20 -14.5 -31.5t-34.5 -9.5
q13 -54 59.5 -94t136.5 -40q81 0 126 39.5t45 100.5q0 56 -40 91t-96.5 52.5t-113 36.5t-96.5 59.5t-40 105.5q0 79 57.5 129t154.5 50q107 0 163 -55t56 -114q0 -51 -44 -51q-18 0 -30 11.5t-12 28.5q0 19 13.5 30.5t32.5 11.5q-39 103 -171 103q-80 0 -125 -37.5
t-45 -96.5q0 -53 40 -86t96.5 -50.5t113 -38t96.5 -63t40 -109.5q0 -80 -59.5 -132t-160.5 -52z" />
    <glyph glyph-name="scedilla" unicode="&#x15f;" horiz-adv-x="464" 
d="M240 -10h-9l-32 -62q52 2 83.5 -20.5t31.5 -57.5t-29.5 -58t-74.5 -23q-52 0 -97 30l13 25q40 -25 81 -25q29 0 47 14t18 37q0 30 -31 43t-82 7l-9 13l50 80q-68 9 -110 45.5t-42 79.5q0 22 11.5 34.5t29.5 12.5q17 0 28 -10.5t11 -28.5q0 -17 -10.5 -27.5t-29.5 -10.5
q17 -30 56.5 -48.5t89.5 -18.5q63 0 99.5 28t36.5 75q0 42 -31.5 67t-76.5 37.5t-90 25.5t-76.5 42.5t-31.5 78.5q0 61 45.5 96.5t126.5 35.5q78 0 125 -31t47 -73q0 -21 -11.5 -33.5t-29.5 -12.5q-17 0 -28 10.5t-11 27.5q0 15 10.5 25t27.5 12q-31 44 -122 44
q-64 0 -98.5 -25.5t-34.5 -67.5q0 -38 31.5 -61.5t76.5 -35.5t89.5 -26t76 -45.5t31.5 -82.5q0 -66 -48 -104t-128 -38z" />
    <glyph glyph-name="Scaron" unicode="&#x160;" horiz-adv-x="568" 
d="M283 746q-10 0 -21 16l-104 140l17 14l108 -104l109 104l16 -14l-104 -140q-10 -16 -21 -16zM127 521q0 -53 40 -86t96.5 -50.5t113 -38t96.5 -63t40 -109.5q0 -80 -59.5 -132t-160.5 -52q-62 0 -110.5 19.5t-75 50.5t-39.5 62.5t-13 60.5q0 28 14 42.5t35 14.5
q18 0 29.5 -11t11.5 -28q0 -20 -14.5 -31.5t-34.5 -9.5q13 -54 59.5 -94t136.5 -40q81 0 126 39.5t45 100.5q0 56 -40 91t-96.5 52.5t-113 36.5t-96.5 59.5t-40 105.5q0 79 57.5 129t154.5 50q107 0 163 -55t56 -114q0 -51 -44 -51q-18 0 -30 11.5t-12 28.5q0 19 13.5 30.5
t32.5 11.5q-39 103 -171 103q-80 0 -125 -37.5t-45 -96.5z" />
    <glyph glyph-name="scaron" unicode="&#x161;" horiz-adv-x="464" 
d="M232 566q-10 0 -21 16l-104 140l17 14l108 -104l109 104l16 -14l-104 -140q-10 -16 -21 -16zM111 383q0 -38 31.5 -61.5t76.5 -35.5t89.5 -26t76 -45.5t31.5 -82.5q0 -66 -48 -104t-128 -38q-84 0 -138 39t-54 89q0 22 11.5 34.5t29.5 12.5q17 0 28 -10.5t11 -28.5
q0 -17 -10.5 -27.5t-29.5 -10.5q17 -30 56.5 -48.5t89.5 -18.5q63 0 99.5 28t36.5 75q0 42 -31.5 67t-76.5 37.5t-90 25.5t-76.5 42.5t-31.5 78.5q0 61 45.5 96.5t126.5 35.5q78 0 125 -31t47 -73q0 -21 -11.5 -33.5t-29.5 -12.5q-17 0 -28 10.5t-11 27.5q0 15 10.5 25
t27.5 12q-31 44 -122 44q-64 0 -98.5 -25.5t-34.5 -67.5z" />
    <glyph glyph-name="uni0162" unicode="&#x162;" horiz-adv-x="655" 
d="M50 680h555v-185h-35q-4 87 -12 108q-17 42 -79 42h-125v-584q0 -15 5.5 -20.5t20.5 -5.5h116v-35h-156l-37 -72q52 2 83.5 -20.5t31.5 -57.5t-29.5 -58t-74.5 -23q-52 0 -97 30l13 25q40 -25 81 -25q29 0 47 14t18 37q0 30 -31 43t-82 7l-9 13l55 87h-150v35h116
q15 0 20.5 5.5t5.5 20.5v584h-125q-25 0 -41.5 -6.5t-25.5 -14t-14 -28.5t-6 -34.5t-3 -47.5v-6.5t-0.5 -6t-0.5 -6.5h-35v185z" />
    <glyph glyph-name="uni0163" unicode="&#x163;" horiz-adv-x="340" 
d="M209 -10q-11 0 -16 1l-33 -63q52 2 83.5 -20.5t31.5 -57.5t-29.5 -58t-74.5 -23q-52 0 -97 30l13 25q40 -25 81 -25q29 0 47 14t18 37q0 30 -31 43t-82 7l-9 13l53 85q-33 12 -53.5 39.5t-20.5 62.5v365h-80v35h8q46 0 64 19.5t37 80.5h20v-100h164v-35h-164v-365
q0 -31 22.5 -52.5t54.5 -21.5q29 0 51 19t30 50l28 -9q-11 -43 -42.5 -69.5t-73.5 -26.5z" />
    <glyph glyph-name="Tcaron" unicode="&#x164;" horiz-adv-x="655" 
d="M220 916l108 -104l109 104l16 -14l-104 -140q-10 -16 -21 -16q-10 0 -21 16l-104 140zM605 680v-185h-35q-4 87 -12 108q-17 42 -79 42h-125v-584q0 -15 5.5 -20.5t20.5 -5.5h116v-35h-337v35h116q15 0 20.5 5.5t5.5 20.5v584h-125q-25 0 -41.5 -6.5t-25.5 -14t-14 -28.5
t-6 -34.5t-3 -47.5v-6.5t-0.5 -6t-0.5 -6.5h-35v185h555z" />
    <glyph glyph-name="tcaron" unicode="&#x165;" horiz-adv-x="340" 
d="M196 570q30 19 49 38t26 38.5t8.5 31t1.5 28.5h-8q-20 0 -31 12t-11 29q0 19 12.5 31t30.5 12q19 0 32 -13t13 -40q0 -125 -110 -187zM297 95l28 -9q-11 -43 -42.5 -69.5t-73.5 -26.5q-50 0 -84.5 32t-34.5 78v365h-80v35h8q46 0 64 19.5t37 80.5h20v-100h164v-35h-164
v-365q0 -31 22.5 -52.5t54.5 -21.5q29 0 51 19t30 50z" />
    <glyph glyph-name="Tbar" unicode="&#x166;" horiz-adv-x="655" 
d="M50 680h555v-185h-35q-4 87 -12 108q-17 42 -79 42h-125v-313h146v-35h-146v-236q0 -15 5.5 -20.5t20.5 -5.5h116v-35h-337v35h116q15 0 20.5 5.5t5.5 20.5v236h-146v35h146v313h-125q-25 0 -41.5 -6.5t-25.5 -14t-14 -28.5t-6 -34.5t-3 -47.5v-6.5t-0.5 -6t-0.5 -6.5
h-35v185z" />
    <glyph glyph-name="tbar" unicode="&#x167;" horiz-adv-x="340" 
d="M297 95l28 -9q-11 -43 -42.5 -69.5t-73.5 -26.5q-50 0 -84.5 32t-34.5 78v200h-52v35h52v130h-80v35h8q46 0 64 19.5t37 80.5h20v-100h164v-35h-164v-130h141v-35h-141v-200q0 -31 22.5 -52.5t54.5 -21.5q29 0 51 19t30 50z" />
    <glyph glyph-name="Umacron" unicode="&#x16a;" horiz-adv-x="697" 
d="M232 822h255v-41h-255v41zM682 680v-35h-69q-15 0 -20.5 -5.5t-5.5 -20.5v-409q0 -98 -63.5 -159t-169.5 -61q-109 0 -176.5 62.5t-67.5 157.5v409q0 15 -5.5 20.5t-20.5 5.5h-69v35h255v-35h-81q-15 0 -20.5 -5.5t-5.5 -20.5v-409q0 -80 52.5 -131.5t140.5 -51.5
q87 0 139.5 50.5t52.5 132.5v409q0 15 -5.5 20.5t-20.5 5.5h-75v35h235z" />
    <glyph glyph-name="umacron" unicode="&#x16b;" horiz-adv-x="595" 
d="M166 642h255v-41h-255v41zM516 35h59v-35h-134v117q-25 -58 -73 -92t-108 -34q-68 0 -114 45.5t-46 112.5v295q-1 13 -6 17t-19 4h-60v35h134v-346q0 -52 36 -86.5t89 -34.5q68 0 117.5 51t49.5 144v211q0 15 -5.5 20.5t-20.5 5.5h-51v35h126v-439q0 -15 5.5 -20.5
t20.5 -5.5z" />
    <glyph glyph-name="Uring" unicode="&#x16e;" horiz-adv-x="697" 
d="M359 738q-42 0 -70 27t-28 67t28 67t70 27q41 0 69 -27t28 -67t-28 -67t-69 -27zM359 769q27 0 45 17.5t18 45.5t-18 46.5t-45 18.5t-45.5 -18.5t-18.5 -46.5q0 -27 18.5 -45t45.5 -18zM682 680v-35h-69q-15 0 -20.5 -5.5t-5.5 -20.5v-409q0 -98 -63.5 -159t-169.5 -61
q-109 0 -176.5 62.5t-67.5 157.5v409q0 15 -5.5 20.5t-20.5 5.5h-69v35h255v-35h-81q-15 0 -20.5 -5.5t-5.5 -20.5v-409q0 -80 52.5 -131.5t140.5 -51.5q87 0 139.5 50.5t52.5 132.5v409q0 15 -5.5 20.5t-20.5 5.5h-75v35h235z" />
    <glyph glyph-name="uring" unicode="&#x16f;" horiz-adv-x="595" 
d="M293 558q-42 0 -70 27t-28 67t28 67t70 27q41 0 69 -27t28 -67t-28 -67t-69 -27zM293 589q27 0 45 17.5t18 45.5t-18 46.5t-45 18.5t-45.5 -18.5t-18.5 -46.5q0 -27 18.5 -45t45.5 -18zM516 35h59v-35h-134v117q-25 -58 -73 -92t-108 -34q-68 0 -114 45.5t-46 112.5v295
q-1 13 -6 17t-19 4h-60v35h134v-346q0 -52 36 -86.5t89 -34.5q68 0 117.5 51t49.5 144v211q0 15 -5.5 20.5t-20.5 5.5h-51v35h126v-439q0 -15 5.5 -20.5t20.5 -5.5z" />
    <glyph glyph-name="Uhungarumlaut" unicode="&#x170;" horiz-adv-x="697" 
d="M267 757q84 133 99 150q22 25 45 6t2 -45q-33 -40 -130 -125zM427 757q84 133 99 150q22 25 45 6t2 -45q-28 -36 -130 -125zM682 680v-35h-69q-15 0 -20.5 -5.5t-5.5 -20.5v-409q0 -98 -63.5 -159t-169.5 -61q-109 0 -176.5 62.5t-67.5 157.5v409q0 15 -5.5 20.5
t-20.5 5.5h-69v35h255v-35h-81q-15 0 -20.5 -5.5t-5.5 -20.5v-409q0 -80 52.5 -131.5t140.5 -51.5q87 0 139.5 50.5t52.5 132.5v409q0 15 -5.5 20.5t-20.5 5.5h-75v35h235z" />
    <glyph glyph-name="uhungarumlaut" unicode="&#x171;" horiz-adv-x="595" 
d="M201 577q84 133 99 150q22 25 45 6t2 -45q-33 -40 -130 -125zM361 577q84 133 99 150q22 25 45 6t2 -45q-28 -36 -130 -125zM516 35h59v-35h-134v117q-25 -58 -73 -92t-108 -34q-68 0 -114 45.5t-46 112.5v295q-1 13 -6 17t-19 4h-60v35h134v-346q0 -52 36 -86.5
t89 -34.5q68 0 117.5 51t49.5 144v211q0 15 -5.5 20.5t-20.5 5.5h-51v35h126v-439q0 -15 5.5 -20.5t20.5 -5.5z" />
    <glyph glyph-name="Uogonek" unicode="&#x172;" horiz-adv-x="697" 
d="M447 680h235v-35h-69q-15 0 -20.5 -5.5t-5.5 -20.5v-409q0 -68 -31.5 -119t-89.5 -78q-42 -20 -67.5 -48t-25.5 -56q0 -24 16 -40.5t45 -16.5q27 0 69 20l11 -25q-42 -32 -90 -32q-44 0 -70.5 23t-26.5 59q0 52 60 94q-11 -1 -33 -1q-109 0 -176.5 62.5t-67.5 157.5v409
q0 15 -5.5 20.5t-20.5 5.5h-69v35h255v-35h-81q-15 0 -20.5 -5.5t-5.5 -20.5v-409q0 -80 52.5 -131.5t140.5 -51.5q87 0 139.5 50.5t52.5 132.5v409q0 15 -5.5 20.5t-20.5 5.5h-75v35z" />
    <glyph glyph-name="uogonek" unicode="&#x173;" horiz-adv-x="595" 
d="M570 0q-62 0 -101 -28t-39 -66q0 -28 18 -43.5t48 -15.5q26 0 66 20l12 -25q-45 -32 -89 -32q-43 0 -72.5 23.5t-29.5 62.5q0 32 22 59.5t60 44.5h-24v117q-25 -58 -73 -92t-108 -34q-68 0 -114 45.5t-46 112.5v295q-1 13 -6 17t-19 4h-60v35h134v-346q0 -52 36 -86.5
t89 -34.5q68 0 117.5 51t49.5 144v211q0 15 -5.5 20.5t-20.5 5.5h-51v35h126v-439q0 -15 5.5 -20.5t20.5 -5.5h59v-35h-5z" />
    <glyph glyph-name="Wcircumflex" unicode="&#x174;" horiz-adv-x="1081" 
d="M546 850l-108 -104l-17 14l104 140q11 16 21 16q11 0 21 -16l104 -140l-16 -14zM850 680h231v-35h-40q-34 0 -46 -30l-221 -615h-25l-206 576l-197 -576h-25l-235 616q-11 29 -47 29h-39v35h241v-35h-76q-33 0 -21 -33l195 -516l179 518q5 14 -1.5 22.5t-22.5 8.5h-90v35
h283v-35h-84q-15 0 -21.5 -9t-1.5 -23l186 -517l187 517q11 32 -21 32h-82v35z" />
    <glyph glyph-name="wcircumflex" unicode="&#x175;" horiz-adv-x="871" 
d="M342 566l-17 14l104 140q11 16 21 16q11 0 21 -16l104 -140l-16 -14l-109 104zM657 500h207v-35h-35q-31 0 -42 -30l-168 -435h-27l-149 406l-149 -406h-27l-176 436q-12 29 -42 29h-41v35h243v-35h-89q-13 0 -18 -7.5t0 -18.5l142 -365l133 365q4 12 -0.5 19t-16.5 7
h-64v35h222v-35h-64q-11 0 -16.5 -7.5t-1.5 -18.5l133 -365l139 364q5 12 0 19.5t-18 7.5h-75v35z" />
    <glyph glyph-name="Ycircumflex" unicode="&#x176;" horiz-adv-x="649" 
d="M329 850l-108 -104l-17 14l104 140q11 16 21 16q11 0 21 -16l104 -140l-16 -14zM393 680h256v-35h-57q-37 0 -53 -30l-192 -330v-224q0 -15 5.5 -20.5t20.5 -5.5h79v-35h-263v35h79q15 0 20.5 5.5t5.5 20.5v224l-187 332q-15 28 -51 28h-56v35h266v-35h-83q-34 0 -18 -31
l162 -297l171 299q8 14 3.5 21.5t-20.5 7.5h-88v35z" />
    <glyph glyph-name="ycircumflex" unicode="&#x177;" horiz-adv-x="587" 
d="M206 566l-17 14l104 140q11 16 21 16q11 0 21 -16l104 -140l-16 -14l-109 104zM398 500h182v-35h-30q-34 0 -48 -32l-207 -476q-34 -77 -71.5 -112t-90.5 -35q-41 0 -70 22t-29 54q0 20 12 33t31 13q17 0 28.5 -11t11.5 -28q0 -16 -10 -26.5t-26 -11.5q20 -15 47 -15
q44 0 74 28.5t58 94.5l20 46l-191 429q-13 27 -41 27h-40v35h236v-35h-82q-30 0 -20 -25l162 -375l160 371q13 29 -17 29h-49v35z" />
    <glyph glyph-name="Ydieresis" unicode="&#x178;" horiz-adv-x="649" 
d="M235 765q-19 0 -31.5 12t-12.5 31t12.5 31.5t31.5 12.5q18 0 30 -12.5t12 -31.5t-12 -31t-30 -12zM425 765q-19 0 -31.5 12t-12.5 31t12.5 31.5t31.5 12.5q18 0 30 -12.5t12 -31.5t-12 -31t-30 -12zM393 680h256v-35h-57q-37 0 -53 -30l-192 -330v-224q0 -15 5.5 -20.5
t20.5 -5.5h79v-35h-263v35h79q15 0 20.5 5.5t5.5 20.5v224l-187 332q-15 28 -51 28h-56v35h266v-35h-83q-34 0 -18 -31l162 -297l171 299q8 14 3.5 21.5t-20.5 7.5h-88v35z" />
    <glyph glyph-name="Zacute" unicode="&#x179;" horiz-adv-x="577" 
d="M423 868q-33 -40 -130 -125l-16 14q84 133 99 150q22 25 45 6t2 -45zM497 191h35v-191h-482v15l402 632h-300q-19 0 -32 -7t-20 -16t-11 -29t-5.5 -35.5t-2.5 -46.5q-1 -14 -1 -21h-35v188h475v-15l-401 -631h306q23 0 37.5 8.5t21 29.5t8.5 40t4 57q1 15 1 22z" />
    <glyph glyph-name="zacute" unicode="&#x17a;" horiz-adv-x="510" 
d="M389 688q-33 -40 -130 -125l-16 14q84 133 99 150q22 25 45 6t2 -45zM422 154h33v-154h-390v17l324 451h-213q-54 0 -67.5 -22t-16.5 -84q-1 -10 -1 -16h-33v154h393v-19l-322 -449h207q54 0 68 22.5t17 83.5q1 10 1 16z" />
    <glyph glyph-name="Zdotaccent" unicode="&#x17b;" horiz-adv-x="577" 
d="M289 765q-19 0 -31.5 12t-12.5 31t12.5 31.5t31.5 12.5q18 0 30 -12.5t12 -31.5t-12 -31t-30 -12zM497 191h35v-191h-482v15l402 632h-300q-19 0 -32 -7t-20 -16t-11 -29t-5.5 -35.5t-2.5 -46.5q-1 -14 -1 -21h-35v188h475v-15l-401 -631h306q23 0 37.5 8.5t21 29.5
t8.5 40t4 57q1 15 1 22z" />
    <glyph glyph-name="zdotaccent" unicode="&#x17c;" horiz-adv-x="510" 
d="M255 585q-19 0 -31.5 12t-12.5 31t12.5 31.5t31.5 12.5q18 0 30 -12.5t12 -31.5t-12 -31t-30 -12zM422 154h33v-154h-390v17l324 451h-213q-54 0 -67.5 -22t-16.5 -84q-1 -10 -1 -16h-33v154h393v-19l-322 -449h207q54 0 68 22.5t17 83.5q1 10 1 16z" />
    <glyph glyph-name="Zcaron" unicode="&#x17d;" horiz-adv-x="577" 
d="M289 746q-10 0 -21 16l-104 140l17 14l108 -104l109 104l16 -14l-104 -140q-10 -16 -21 -16zM497 191h35v-191h-482v15l402 632h-300q-19 0 -32 -7t-20 -16t-11 -29t-5.5 -35.5t-2.5 -46.5q-1 -14 -1 -21h-35v188h475v-15l-401 -631h306q23 0 37.5 8.5t21 29.5t8.5 40
t4 57q1 15 1 22z" />
    <glyph glyph-name="zcaron" unicode="&#x17e;" horiz-adv-x="510" 
d="M255 566q-10 0 -21 16l-104 140l17 14l108 -104l109 104l16 -14l-104 -140q-10 -16 -21 -16zM422 154h33v-154h-390v17l324 451h-213q-54 0 -67.5 -22t-16.5 -84q-1 -10 -1 -16h-33v154h393v-19l-322 -449h207q54 0 68 22.5t17 83.5q1 10 1 16z" />
    <glyph glyph-name="Scommaaccent" unicode="&#x218;" horiz-adv-x="568" 
d="M127 521q0 -53 40 -86t96.5 -50.5t113 -38t96.5 -63t40 -109.5q0 -80 -59.5 -132t-160.5 -52q-62 0 -110.5 19.5t-75 50.5t-39.5 62.5t-13 60.5q0 28 14 42.5t35 14.5q18 0 29.5 -11t11.5 -28q0 -20 -14.5 -31.5t-34.5 -9.5q13 -54 59.5 -94t136.5 -40q81 0 126 39.5
t45 100.5q0 56 -40 91t-96.5 52.5t-113 36.5t-96.5 59.5t-40 105.5q0 79 57.5 129t154.5 50q107 0 163 -55t56 -114q0 -51 -44 -51q-18 0 -30 11.5t-12 28.5q0 19 13.5 30.5t32.5 11.5q-39 103 -171 103q-80 0 -125 -37.5t-45 -96.5zM291 -71q19 0 32.5 -12.5t13.5 -38.5
q0 -109 -103 -148l-11 20q35 16 53.5 36t21.5 32.5t3 30.5q-4 -1 -11 -1q-20 0 -31 11.5t-11 28.5t12.5 29t30.5 12z" />
    <glyph glyph-name="scommaaccent" unicode="&#x219;" horiz-adv-x="464" 
d="M111 383q0 -38 31.5 -61.5t76.5 -35.5t89.5 -26t76 -45.5t31.5 -82.5q0 -66 -48 -104t-128 -38q-84 0 -138 39t-54 89q0 22 11.5 34.5t29.5 12.5q17 0 28 -10.5t11 -28.5q0 -17 -10.5 -27.5t-29.5 -10.5q17 -30 56.5 -48.5t89.5 -18.5q63 0 99.5 28t36.5 75
q0 42 -31.5 67t-76.5 37.5t-90 25.5t-76.5 42.5t-31.5 78.5q0 61 45.5 96.5t126.5 35.5q78 0 125 -31t47 -73q0 -21 -11.5 -33.5t-29.5 -12.5q-17 0 -28 10.5t-11 27.5q0 15 10.5 25t27.5 12q-31 44 -122 44q-64 0 -98.5 -25.5t-34.5 -67.5zM242 -71q19 0 32.5 -12.5
t13.5 -38.5q0 -109 -103 -148l-11 20q35 16 53.5 36t21.5 32.5t3 30.5q-4 -1 -11 -1q-20 0 -31 11.5t-11 28.5t12.5 29t30.5 12z" />
    <glyph glyph-name="uni021A" unicode="&#x21a;" horiz-adv-x="655" 
d="M50 680h555v-185h-35q-4 87 -12 108q-17 42 -79 42h-125v-584q0 -15 5.5 -20.5t20.5 -5.5h116v-35h-337v35h116q15 0 20.5 5.5t5.5 20.5v584h-125q-25 0 -41.5 -6.5t-25.5 -14t-14 -28.5t-6 -34.5t-3 -47.5v-6.5t-0.5 -6t-0.5 -6.5h-35v185zM324 -71q19 0 32.5 -12.5
t13.5 -38.5q0 -109 -103 -148l-11 20q35 16 53.5 36t21.5 32.5t3 30.5q-4 -1 -11 -1q-20 0 -31 11.5t-11 28.5t12.5 29t30.5 12z" />
    <glyph glyph-name="uni021B" unicode="&#x21b;" horiz-adv-x="340" 
d="M209 -10q-50 0 -84.5 32t-34.5 78v365h-80v35h8q46 0 64 19.5t37 80.5h20v-100h164v-35h-164v-365q0 -31 22.5 -52.5t54.5 -21.5q29 0 51 19t30 50l28 -9q-11 -43 -42.5 -69.5t-73.5 -26.5zM203 -71q19 0 32.5 -12.5t13.5 -38.5q0 -109 -103 -148l-11 20q35 16 53.5 36
t21.5 32.5t3 30.5q-4 -1 -11 -1q-20 0 -31 11.5t-11 28.5t12.5 29t30.5 12z" />
    <glyph glyph-name="circumflex" unicode="&#x2c6;" horiz-adv-x="310" 
d="M47 566l-17 14l104 140q11 16 21 16q11 0 21 -16l104 -140l-16 -14l-109 104z" />
    <glyph glyph-name="caron" unicode="&#x2c7;" horiz-adv-x="310" 
d="M47 736l108 -104l109 104l16 -14l-104 -140q-10 -16 -21 -16q-10 0 -21 16l-104 140z" />
    <glyph glyph-name="breve" unicode="&#x2d8;" horiz-adv-x="313" 
d="M249 716l29 -4q-6 -60 -38.5 -92.5t-82.5 -32.5t-83 32.5t-39 92.5l30 4q19 -85 92 -85t92 85z" />
    <glyph glyph-name="dotaccent" unicode="&#x2d9;" horiz-adv-x="233" 
d="M117 585q-19 0 -31.5 12t-12.5 31t12.5 31.5t31.5 12.5q18 0 30 -12.5t12 -31.5t-12 -31t-30 -12z" />
    <glyph glyph-name="ring" unicode="&#x2da;" horiz-adv-x="269" 
d="M135 558q-42 0 -70 27t-28 67t28 67t70 27q41 0 69 -27t28 -67t-28 -67t-69 -27zM135 589q27 0 45 17.5t18 45.5t-18 46.5t-45 18.5t-45.5 -18.5t-18.5 -46.5q0 -27 18.5 -45t45.5 -18z" />
    <glyph glyph-name="ogonek" unicode="&#x2db;" horiz-adv-x="262" 
d="M152 -190q-43 0 -72.5 23.5t-29.5 62.5q0 52 54 88.5t136 36.5l-3 -21q-62 0 -101 -28t-39 -66q0 -28 18 -43.5t48 -15.5q26 0 66 20l12 -25q-45 -32 -89 -32z" />
    <glyph glyph-name="tilde" unicode="&#x2dc;" horiz-adv-x="376" 
d="M336 662q-14 -89 -78 -89q-31 0 -75 33t-67 33q-21 0 -31.5 -14t-17.5 -41l-27 9q14 87 79 87q33 0 78 -33t66 -33q32 0 46 53z" />
    <glyph glyph-name="hungarumlaut" unicode="&#x2dd;" horiz-adv-x="402" 
d="M66 577q84 133 99 150q22 25 45 6t2 -45q-33 -40 -130 -125zM226 577q84 133 99 150q22 25 45 6t2 -45q-28 -36 -130 -125z" />
    <glyph glyph-name="uni030C" unicode="&#x30c;" horiz-adv-x="0" 
d="M-143 690q19 0 32 -13t13 -40q0 -125 -110 -187l-13 20q30 19 49 38t26 38.5t8.5 31t1.5 28.5h-8q-20 0 -31 12t-11 29q0 19 12.5 31t30.5 12z" />
    <glyph glyph-name="uni0326" unicode="&#x326;" horiz-adv-x="0" 
d="M-112 -71q19 0 32.5 -12.5t13.5 -38.5q0 -109 -103 -148l-11 20q35 16 53.5 36t21.5 32.5t3 30.5q-4 -1 -11 -1q-20 0 -31 11.5t-11 28.5t12.5 29t30.5 12z" />
    <glyph glyph-name="Wgrave" unicode="&#x1e80;" horiz-adv-x="1081" 
d="M586 743q-97 85 -130 125q-21 26 2 45t45 -6q15 -17 99 -150zM850 680h231v-35h-40q-34 0 -46 -30l-221 -615h-25l-206 576l-197 -576h-25l-235 616q-11 29 -47 29h-39v35h241v-35h-76q-33 0 -21 -33l195 -516l179 518q5 14 -1.5 22.5t-22.5 8.5h-90v35h283v-35h-84
q-15 0 -21.5 -9t-1.5 -23l186 -517l187 517q11 32 -21 32h-82v35z" />
    <glyph glyph-name="wgrave" unicode="&#x1e81;" horiz-adv-x="871" 
d="M506 577l-16 -14q-97 85 -130 125q-21 26 2 45t45 -6q15 -17 99 -150zM657 500h207v-35h-35q-31 0 -42 -30l-168 -435h-27l-149 406l-149 -406h-27l-176 436q-12 29 -42 29h-41v35h243v-35h-89q-13 0 -18 -7.5t0 -18.5l142 -365l133 365q4 12 -0.5 19t-16.5 7h-64v35h222
v-35h-64q-11 0 -16.5 -7.5t-1.5 -18.5l133 -365l139 364q5 12 0 19.5t-18 7.5h-75v35z" />
    <glyph glyph-name="Wacute" unicode="&#x1e82;" horiz-adv-x="1081" 
d="M680 868q-33 -40 -130 -125l-16 14q84 133 99 150q22 25 45 6t2 -45zM850 680h231v-35h-40q-34 0 -46 -30l-221 -615h-25l-206 576l-197 -576h-25l-235 616q-11 29 -47 29h-39v35h241v-35h-76q-33 0 -21 -33l195 -516l179 518q5 14 -1.5 22.5t-22.5 8.5h-90v35h283v-35
h-84q-15 0 -21.5 -9t-1.5 -23l186 -517l187 517q11 32 -21 32h-82v35z" />
    <glyph glyph-name="wacute" unicode="&#x1e83;" horiz-adv-x="871" 
d="M584 688q-33 -40 -130 -125l-16 14q84 133 99 150q22 25 45 6t2 -45zM657 500h207v-35h-35q-31 0 -42 -30l-168 -435h-27l-149 406l-149 -406h-27l-176 436q-12 29 -42 29h-41v35h243v-35h-89q-13 0 -18 -7.5t0 -18.5l142 -365l133 365q4 12 -0.5 19t-16.5 7h-64v35h222
v-35h-64q-11 0 -16.5 -7.5t-1.5 -18.5l133 -365l139 364q5 12 0 19.5t-18 7.5h-75v35z" />
    <glyph glyph-name="Wdieresis" unicode="&#x1e84;" horiz-adv-x="1081" 
d="M452 765q-19 0 -31.5 12t-12.5 31t12.5 31.5t31.5 12.5q18 0 30 -12.5t12 -31.5t-12 -31t-30 -12zM642 765q-19 0 -31.5 12t-12.5 31t12.5 31.5t31.5 12.5q18 0 30 -12.5t12 -31.5t-12 -31t-30 -12zM850 680h231v-35h-40q-34 0 -46 -30l-221 -615h-25l-206 576l-197 -576
h-25l-235 616q-11 29 -47 29h-39v35h241v-35h-76q-33 0 -21 -33l195 -516l179 518q5 14 -1.5 22.5t-22.5 8.5h-90v35h283v-35h-84q-15 0 -21.5 -9t-1.5 -23l186 -517l187 517q11 32 -21 32h-82v35z" />
    <glyph glyph-name="wdieresis" unicode="&#x1e85;" horiz-adv-x="871" 
d="M356 585q-19 0 -31.5 12t-12.5 31t12.5 31.5t31.5 12.5q18 0 30 -12.5t12 -31.5t-12 -31t-30 -12zM546 585q-19 0 -31.5 12t-12.5 31t12.5 31.5t31.5 12.5q18 0 30 -12.5t12 -31.5t-12 -31t-30 -12zM657 500h207v-35h-35q-31 0 -42 -30l-168 -435h-27l-149 406l-149 -406
h-27l-176 436q-12 29 -42 29h-41v35h243v-35h-89q-13 0 -18 -7.5t0 -18.5l142 -365l133 365q4 12 -0.5 19t-16.5 7h-64v35h222v-35h-64q-11 0 -16.5 -7.5t-1.5 -18.5l133 -365l139 364q5 12 0 19.5t-18 7.5h-75v35z" />
    <glyph glyph-name="Ygrave" unicode="&#x1ef2;" horiz-adv-x="649" 
d="M369 743q-97 85 -130 125q-21 26 2 45t45 -6q15 -17 99 -150zM393 680h256v-35h-57q-37 0 -53 -30l-192 -330v-224q0 -15 5.5 -20.5t20.5 -5.5h79v-35h-263v35h79q15 0 20.5 5.5t5.5 20.5v224l-187 332q-15 28 -51 28h-56v35h266v-35h-83q-34 0 -18 -31l162 -297l171 299
q8 14 3.5 21.5t-20.5 7.5h-88v35z" />
    <glyph glyph-name="ygrave" unicode="&#x1ef3;" horiz-adv-x="587" 
d="M370 577l-16 -14q-97 85 -130 125q-21 26 2 45t45 -6q15 -17 99 -150zM398 500h182v-35h-30q-34 0 -48 -32l-207 -476q-34 -77 -71.5 -112t-90.5 -35q-41 0 -70 22t-29 54q0 20 12 33t31 13q17 0 28.5 -11t11.5 -28q0 -16 -10 -26.5t-26 -11.5q20 -15 47 -15
q44 0 74 28.5t58 94.5l20 46l-191 429q-13 27 -41 27h-40v35h236v-35h-82q-30 0 -20 -25l162 -375l160 371q13 29 -17 29h-49v35z" />
    <glyph glyph-name="uni2009" unicode="&#x2009;" horiz-adv-x="135" 
 />
    <glyph glyph-name="uni200A" unicode="&#x200a;" horiz-adv-x="75" 
 />
    <glyph glyph-name="endash" unicode="&#x2013;" horiz-adv-x="500" 
d="M60 280h380v-35h-380v35z" />
    <glyph glyph-name="emdash" unicode="&#x2014;" horiz-adv-x="1000" 
d="M60 280h880v-35h-880v35z" />
    <glyph glyph-name="quoteleft" unicode="&#x2018;" horiz-adv-x="218" 
d="M110 462q-19 0 -31.5 13t-12.5 40q0 127 109 188l14 -20q-30 -19 -48.5 -38t-25.5 -38t-8.5 -30.5t-0.5 -29.5h5q20 -1 31 -13t11 -29q0 -19 -12 -31t-31 -12z" />
    <glyph glyph-name="quoteright" unicode="&#x2019;" horiz-adv-x="218" 
d="M108 699q19 0 31.5 -13t12.5 -40q0 -127 -109 -188l-14 20q30 19 48.5 38t25.5 38t8.5 30.5t0.5 29.5h-5q-20 1 -31 13t-11 29q0 19 12 31t31 12z" />
    <glyph glyph-name="quotesinglbase" unicode="&#x201a;" horiz-adv-x="218" 
d="M108 79q19 0 31.5 -13t12.5 -40q0 -127 -109 -188l-14 20q30 19 48.5 38t25.5 38t8.5 30.5t0.5 29.5h-5q-20 1 -31 13t-11 29q0 19 12 31t31 12z" />
    <glyph glyph-name="quotedblleft" unicode="&#x201c;" horiz-adv-x="378" 
d="M110 462q-19 0 -31.5 13t-12.5 40q0 127 109 188l14 -20q-30 -19 -48.5 -38t-25.5 -38t-8.5 -30.5t-0.5 -29.5h5q20 -1 31 -13t11 -29q0 -19 -12 -31t-31 -12zM270 462q-19 0 -31.5 13t-12.5 40q0 127 109 188l14 -20q-30 -19 -48.5 -38t-25.5 -38t-8.5 -30.5t-0.5 -29.5
h5q20 -1 31 -13t11 -29q0 -19 -12 -31t-31 -12z" />
    <glyph glyph-name="quotedblright" unicode="&#x201d;" horiz-adv-x="378" 
d="M108 699q19 0 31.5 -13t12.5 -40q0 -127 -109 -188l-14 20q30 19 48.5 38t25.5 38t8.5 30.5t0.5 29.5h-5q-20 1 -31 13t-11 29q0 19 12 31t31 12zM268 699q19 0 31.5 -13t12.5 -40q0 -127 -109 -188l-14 20q30 19 48.5 38t25.5 38t8.5 30.5t0.5 29.5h-5q-20 1 -31 13
t-11 29q0 19 12 31t31 12z" />
    <glyph glyph-name="quotedblbase" unicode="&#x201e;" horiz-adv-x="377" 
d="M108 79q19 0 31.5 -13t12.5 -40q0 -127 -109 -188l-14 20q30 19 48.5 38t25.5 38t8.5 30.5t0.5 29.5h-5q-20 1 -31 13t-11 29q0 19 12 31t31 12zM267 79q19 0 31.5 -13t12.5 -40q0 -127 -109 -188l-14 20q30 19 48.5 38t25.5 38t8.5 30.5t0.5 29.5h-5q-20 1 -31 13
t-11 29q0 19 12 31t31 12z" />
    <glyph glyph-name="dagger" unicode="&#x2020;" horiz-adv-x="512" 
d="M416 606q30 0 30 -26t-30 -26q-21 0 -71 7t-73 9l-5 -5l18 -88l-21 -231h-17l-22 231l20 88l-5 5q-22 -2 -72.5 -9t-70.5 -7q-31 0 -31 26t31 26q20 0 71 -7t74 -9l4 4q-2 29 -9 77.5t-7 68.5q0 30 26 30t26 -30q0 -21 -6.5 -73t-8.5 -71l5 -5q19 2 71 8.5t73 6.5z" />
    <glyph glyph-name="daggerdbl" unicode="&#x2021;" horiz-adv-x="512" 
d="M416 400q30 0 30 -26t-30 -26q-21 0 -71 7t-74 9l-4 -6q2 -23 6 -54t6.5 -52t2.5 -37q0 -31 -26 -31t-26 31q0 19 7 68t9 77l-4 4q-28 -2 -77 -9t-68 -7q-31 0 -31 26t31 26q16 0 37 -2.5t52 -6.5t54 -6l5 4l-20 88l20 88l-5 5q-22 -2 -72.5 -9t-70.5 -7q-31 0 -31 26
t31 26q20 0 71 -7t74 -9l4 4q-2 29 -9 77.5t-7 68.5q0 30 26 30t26 -30q0 -21 -6.5 -73t-8.5 -71l5 -5q19 2 71 8.5t73 6.5q30 0 30 -26t-30 -26q-21 0 -71 7t-73 9l-5 -5l18 -88l-18 -87l5 -5q19 2 71 8.5t73 6.5z" />
    <glyph glyph-name="bullet" unicode="&#x2022;" horiz-adv-x="407" 
d="M204 245q-41 0 -69.5 29t-28.5 70q0 40 29 69t69 29t68.5 -28.5t28.5 -69.5t-28.5 -70t-68.5 -29z" />
    <glyph glyph-name="ellipsis" unicode="&#x2026;" horiz-adv-x="522" 
d="M110 80q18 0 30 -12t12 -31t-12 -31.5t-30 -12.5q-19 0 -31.5 12.5t-12.5 31.5t12.5 31t31.5 12zM262 80q18 0 30 -12t12 -31t-12 -31.5t-30 -12.5q-19 0 -31.5 12.5t-12.5 31.5t12.5 31t31.5 12zM414 80q18 0 30 -12t12 -31t-12 -31.5t-30 -12.5q-19 0 -31.5 12.5
t-12.5 31.5t12.5 31t31.5 12z" />
    <glyph glyph-name="perthousand" unicode="&#x2030;" horiz-adv-x="1418" 
d="M231 282q-83 0 -137 58t-54 146t54 146t137 58t137 -58t54 -146t-54 -146t-137 -58zM484 363q15 26 97.5 156.5t91.5 142.5q21 27 38 14q19 -13 -1 -40q-2 -2 -51 -67t-100 -131.5t-65 -82.5zM231 310q65 0 105 50.5t40 125.5t-40 125.5t-105 50.5t-105 -50.5t-40 -125.5
t40 -125.5t105 -50.5zM737 -10q-83 0 -137 58t-54 146t54 146t137 58t137 -58t54 -146t-54 -146t-137 -58zM1187 -10q-83 0 -137 58t-54 146t54 146t137 58t137 -58t54 -146t-54 -146t-137 -58zM737 18q65 0 105 50.5t40 125.5t-40 125.5t-105 50.5t-105 -50.5t-40 -125.5
t40 -125.5t105 -50.5zM1187 18q65 0 105 50.5t40 125.5t-40 125.5t-105 50.5t-105 -50.5t-40 -125.5t40 -125.5t105 -50.5zM465 316q-17 -28 -98.5 -156.5t-89.5 -139.5q-20 -28 -38 -13q-19 12 1 39q1 2 50 67t99.5 130.5t64.5 81.5z" />
    <glyph glyph-name="guilsinglleft" unicode="&#x2039;" horiz-adv-x="285" 
d="M245 79l-17 -17l-188 182v30l188 182l17 -17l-160 -178z" />
    <glyph glyph-name="guilsinglright" unicode="&#x203a;" horiz-adv-x="285" 
d="M40 79l160 182l-160 178l17 17l188 -182v-30l-188 -182z" />
    <glyph glyph-name="fraction" unicode="&#x2044;" horiz-adv-x="202" 
d="M110 363q15 26 97.5 156.5t91.5 142.5q21 27 38 14q19 -13 -1 -40q-2 -2 -51 -67t-100 -131.5t-65 -82.5zM91 316q-17 -28 -98.5 -156.5t-89.5 -139.5q-20 -28 -38 -13q-19 12 1 39q1 2 50 67t99.5 130.5t64.5 81.5z" />
    <glyph glyph-name="uni2081" unicode="&#x2081;" horiz-adv-x="258" 
d="M166 -71h72v-29h-218v29h71q8 0 10.5 3t2.5 11v256h-79v23q52 4 66.5 12.5t21.5 42.5h39v-334q0 -8 3 -11t11 -3z" />
    <glyph glyph-name="uni2082" unicode="&#x2082;" horiz-adv-x="302" 
d="M252 4h30v-104h-256v24q25 26 73 71t67 64.5t36.5 50.5t17.5 59q0 37 -22 60.5t-60 23.5q-61 0 -84 -49q13 -1 21 -9.5t8 -19.5q0 -13 -9 -22t-22 -9q-14 0 -23 9.5t-9 26.5q0 35 34.5 67.5t97.5 32.5q52 0 86.5 -29.5t34.5 -81.5q0 -23 -8.5 -45t-20 -38.5t-34.5 -37.5
t-41 -34.5t-51 -39t-54 -41.5l144 4q28 1 35 14.5t9 52.5z" />
    <glyph glyph-name="uni2083" unicode="&#x2083;" horiz-adv-x="296" 
d="M165 91q51 -5 81 -30.5t30 -64.5q0 -45 -35.5 -73.5t-91.5 -28.5q-61 0 -95 31t-34 66q0 16 9 25.5t23 9.5q13 0 22 -8.5t9 -21.5q0 -24 -30 -29q28 -45 83 -45q39 0 62.5 20.5t23.5 54.5q0 36 -26.5 58t-70.5 22h-16v29h16q42 0 67 20.5t25 53.5t-22.5 53t-59.5 20
q-55 0 -81 -42q29 -5 29 -29q0 -13 -8.5 -21t-22.5 -8t-23 9.5t-9 24.5q0 33 34 63t93 30q53 0 88 -28t35 -71q0 -36 -28 -60.5t-77 -29.5z" />
    <glyph glyph-name="Euro" unicode="&#x20ac;" horiz-adv-x="733" 
d="M647 227l36 -9q-23 -108 -89.5 -168.5t-163.5 -60.5q-111 0 -189 67.5t-102 184.5h-99v34h93q-4 27 -4 63q0 30 3 58h-92v35h98q23 119 102 188.5t192 69.5q58 0 107.5 -22t78.5 -55t45.5 -67.5t16.5 -63.5q0 -24 -13 -37.5t-33 -13.5q-19 0 -31 11.5t-12 29.5
q0 39 46 39q-7 22 -21.5 44t-37.5 45.5t-59.5 38t-79.5 14.5q-94 0 -159.5 -58.5t-85.5 -162.5h265v-35h-271q-3 -27 -3 -58q0 -36 4 -63h270v-34h-265q22 -101 85 -157.5t153 -56.5q81 0 136.5 53t78.5 147z" />
    <glyph glyph-name="uni2116" unicode="&#x2116;" horiz-adv-x="1250" 
d="M980 690q86 0 143 -58.5t57 -147.5q0 -90 -57 -150t-143 -60t-143 60t-57 150q0 89 57 147.5t143 58.5zM735 680v-35h-84q-15 0 -20.5 -5.5t-5.5 -20.5v-619h-19l-427 615v-554q0 -15 5.5 -20.5t20.5 -5.5h79v-35h-249v35h79q15 0 20.5 5.5t5.5 20.5v558q0 15 -5.5 20.5
t-20.5 5.5h-79v35h154l397 -567v506q0 15 -5.5 20.5t-20.5 5.5h-79v35h254zM981 303q68 0 109.5 49.5t41.5 131.5q0 81 -41.5 129.5t-109.5 48.5q-69 0 -111 -48.5t-42 -129.5q0 -82 42 -131.5t111 -49.5zM812 186h336v-33h-336v33z" />
    <glyph glyph-name="uni2117" unicode="&#x2117;" horiz-adv-x="757" 
d="M378 -10q-147 0 -247.5 101t-100.5 250q0 147 101 248t247 101q147 0 248 -100.5t101 -248.5q0 -149 -101 -250t-248 -101zM378 17q135 0 227.5 94t92.5 230q0 135 -92.5 229t-227.5 94q-132 0 -225.5 -94t-93.5 -229t93.5 -229.5t225.5 -94.5zM406 299h-72v-102
q0 -15 15 -15h66v-26h-176v26h42q14 0 14 15v287q0 8 -3 11t-11 3h-42v27h167q62 0 100.5 -32.5t38.5 -80.5t-38.5 -80.5t-100.5 -32.5zM334 498v-173h69q46 0 73 25.5t27 61.5t-27 61t-73 25h-69z" />
    <glyph glyph-name="uni2120" unicode="&#x2120;" horiz-adv-x="827" 
d="M95 603q0 -25 20.5 -40.5t49.5 -24.5t57.5 -19t49 -30.5t20.5 -51.5q0 -41 -31 -65t-84 -24q-63 0 -95 29t-32 63q0 15 8 23.5t21 8.5q12 0 19 -7.5t7 -17.5q0 -21 -27 -23q23 -53 94 -53q38 0 60 16.5t22 43.5q0 30 -30.5 48t-67.5 25.5t-67.5 30t-30.5 61.5
q0 41 31 64.5t84 23.5q56 0 86 -25.5t30 -55.5q0 -28 -28 -28q-27 0 -27 25q0 17 23 23q-25 39 -80 39q-37 0 -59.5 -16t-22.5 -43zM733 655q-15 0 -15 -14v-249q0 -15 15 -15h39v-25h-142v25h35q16 0 16 15v239l-122 -209h-15l-125 209v-239q0 -15 15 -15h38v-25h-136v25
h39q15 0 15 15v249q0 14 -15 14h-39v25h90l128 -216l125 216h93v-25h-39z" />
    <glyph glyph-name="trademark" unicode="&#x2122;" horiz-adv-x="878" 
d="M347 680v-103h-23q-2 50 -9.5 64.5t-38.5 14.5h-59v-264q0 -15 15 -15h59v-25h-186v25h59q16 0 16 15v264h-60q-30 0 -37.5 -14.5t-9.5 -64.5h-23v103h297zM784 650q-15 0 -15 -14v-244q0 -15 15 -15h39v-25h-141v25h35q15 0 15 15v240l-122 -210h-14l-126 210v-240
q0 -15 15 -15h38v-25h-135v25h38q16 0 16 15v244q0 14 -16 14h-38v30h89l128 -217l126 217h92v-30h-39z" />
    <glyph glyph-name="arrowup" unicode="&#x2191;" horiz-adv-x="695" 
d="M117 411l221 270h20l220 -270l-11 -11l-205 161q1 -63 2.5 -122.5t2.5 -97.5t1 -86v-255h-40v255q0 48 1 86t2.5 97.5t2.5 122.5l-205 -161z" />
    <glyph glyph-name="arrowdown" unicode="&#x2193;" horiz-adv-x="695" 
d="M117 270l12 11l205 -161q-1 63 -2.5 122.5t-2.5 97.5t-1 86v255h40v-255q0 -48 -1 -86t-2.5 -97.5t-2.5 -122.5l205 161l11 -11l-220 -270h-20z" />
    <glyph glyph-name="arrowupdn" unicode="&#x2195;" horiz-adv-x="695" 
d="M362 120l205 161l11 -11l-220 -270h-20l-221 270l12 11l205 -161q-2 77 -4 95.5t-2 55.5v137q0 37 2 55.5t4 95.5l-205 -161l-12 11l221 270h20l220 -270l-11 -11l-205 161q2 -77 4 -95.5t2 -55.5v-137q0 -37 -2 -55.5t-4 -95.5z" />
    <glyph glyph-name="uni2196" unicode="&#x2196;" horiz-adv-x="764" 
d="M467 609l1 -15l-274 -46q43 -42 88.5 -84.5t72 -68t60.5 -59.5l276 -277l-29 -28l-275 277q-33 33 -59.5 60.5t-67.5 71t-85 88.5l-45 -273l-16 2l-21 359l14 14z" />
    <glyph glyph-name="uni2197" unicode="&#x2197;" horiz-adv-x="763" 
d="M299 609l360 21l14 -14l-21 -359l-16 -2l-45 273q-44 -45 -85 -88.5t-67.5 -71t-59.5 -60.5l-275 -277l-29 28l276 277q34 34 60.5 59.5t72 68t88.5 84.5l-274 46z" />
    <glyph glyph-name="uni2198" unicode="&#x2198;" horiz-adv-x="763" 
d="M299 82l-1 15l274 46q-43 42 -88.5 84.5t-72 68t-60.5 59.5l-276 277l29 28l275 -277q33 -33 59.5 -60.5t67.5 -71t85 -88.5l45 273l16 -2l21 -359l-14 -14z" />
    <glyph glyph-name="uni2199" unicode="&#x2199;" horiz-adv-x="764" 
d="M467 77l-360 -21l-14 14l21 359l16 2l45 -273q44 45 85 88.5t67.5 71t59.5 60.5l275 277l29 -28l-276 -277q-34 -34 -60.5 -59.5t-72 -68t-88.5 -84.5l274 -46z" />
    <glyph glyph-name="minus" unicode="&#x2212;" 
d="M80 281v34h436v-34h-436z" />
    <glyph glyph-name="approxequal" unicode="&#x2248;" 
d="M524 440q-25 -87 -113 -87q-44 0 -118 35.5t-115 35.5q-58 0 -80 -60l-26 11q28 83 112 83q46 0 122.5 -35.5t111.5 -35.5q55 0 79 61zM524 270q-25 -87 -113 -87q-44 0 -118 35.5t-115 35.5q-58 0 -80 -60l-26 11q28 83 112 83q46 0 122.5 -35.5t111.5 -35.5q55 0 79 61
z" />
    <glyph glyph-name="notequal" unicode="&#x2260;" 
d="M516 391h-166l-85 -146h251v-34h-271l-88 -152h-37l88 152h-128v34h148l85 146h-233v34h252l88 151h37l-88 -151h147v-34z" />
    <glyph glyph-name="lessequal" unicode="&#x2264;" 
d="M506 200l-426 168v28l426 169v-40l-379 -143l379 -144v-38zM516 76h-436v34h436v-34z" />
    <glyph glyph-name="greaterequal" unicode="&#x2265;" 
d="M90 200v38l379 144l-379 143v40l426 -169v-28zM80 76v34h436v-34h-436z" />
    <glyph glyph-name="fi" unicode="&#xfb01;" horiz-adv-x="605" 
d="M516 35h64v-35h-229v35h64q15 0 20.5 5.5t5.5 20.5v378q0 15 -5.5 20.5t-20.5 5.5h-241v-404q0 -15 5.5 -20.5t20.5 -5.5h79v-35h-239v35h59q15 0 20.5 5.5t5.5 20.5v404h-95v35h69q26 0 26 21v4q0 79 54 132t139 53q58 0 100 -24t42 -59q0 -18 -12 -31t-30 -13
q-17 0 -29 11t-12 27q0 15 9 25.5t24 11.5q-32 22 -83 22q-71 0 -112 -44.5t-41 -110.5v-25h316v-439q0 -15 5.5 -20.5t20.5 -5.5z" />
    <glyph glyph-name="fl" unicode="&#xfb02;" horiz-adv-x="615" 
d="M516 35h69v-35h-239v35h69q15 0 20.5 5.5t5.5 20.5v404h-267v-404q0 -15 5.5 -20.5t20.5 -5.5h79v-35h-239v35h59q15 0 20.5 5.5t5.5 20.5v404h-95v35h69q26 0 26 21v4q0 79 54 132t139 53q44 0 80.5 -14.5t52.5 -38.5l10 23h29v-619q0 -15 5.5 -20.5t20.5 -5.5zM441 500
v90q-8 -7 -23 -7q-17 0 -29 11t-12 27q0 15 9 25.5t24 11.5q-32 22 -83 22q-71 0 -112 -44.5t-41 -110.5v-25h267z" />
    <glyph glyph-name="A.fina" horiz-adv-x="952" 
d="M872 227q50 0 50 -69q0 -70 -45 -119t-132 -49q-63 0 -120.5 35t-117.5 121l-40 57h-288v-142q0 -15 5.5 -20.5t20.5 -5.5h94v-35h-264v35h79q15 0 20.5 5.5t5.5 20.5v558q0 15 -5.5 20.5t-20.5 5.5h-79v35h165l370 -529q52 -73 94 -99.5t92 -26.5q61 0 97 33.5t32 88.5
q-21 -4 -38 7.5t-17 33.5q0 17 11.5 28t30.5 11zM179 236h265l-265 382v-382z" />
    <glyph glyph-name="Aacute.fina" horiz-adv-x="952" 
d="M304 868q-33 -40 -130 -125l-16 14q84 133 99 150q22 25 45 6t2 -45zM872 227q50 0 50 -69q0 -70 -45 -119t-132 -49q-63 0 -120.5 35t-117.5 121l-40 57h-288v-142q0 -15 5.5 -20.5t20.5 -5.5h94v-35h-264v35h79q15 0 20.5 5.5t5.5 20.5v558q0 15 -5.5 20.5t-20.5 5.5
h-79v35h165l370 -529q52 -73 94 -99.5t92 -26.5q61 0 97 33.5t32 88.5q-21 -4 -38 7.5t-17 33.5q0 17 11.5 28t30.5 11zM179 236h265l-265 382v-382z" />
    <glyph glyph-name="Abreve.fina" horiz-adv-x="952" 
d="M170 767q-50 0 -83 32.5t-39 92.5l30 4q19 -85 92 -85t92 85l29 -4q-6 -60 -38.5 -92.5t-82.5 -32.5zM872 227q50 0 50 -69q0 -70 -45 -119t-132 -49q-63 0 -120.5 35t-117.5 121l-40 57h-288v-142q0 -15 5.5 -20.5t20.5 -5.5h94v-35h-264v35h79q15 0 20.5 5.5t5.5 20.5
v558q0 15 -5.5 20.5t-20.5 5.5h-79v35h165l370 -529q52 -73 94 -99.5t92 -26.5q61 0 97 33.5t32 88.5q-21 -4 -38 7.5t-17 33.5q0 17 11.5 28t30.5 11zM179 236h265l-265 382v-382z" />
    <glyph glyph-name="Acircumflex.fina" horiz-adv-x="952" 
d="M170 850l-108 -104l-17 14l104 140q11 16 21 16q11 0 21 -16l104 -140l-16 -14zM872 227q50 0 50 -69q0 -70 -45 -119t-132 -49q-63 0 -120.5 35t-117.5 121l-40 57h-288v-142q0 -15 5.5 -20.5t20.5 -5.5h94v-35h-264v35h79q15 0 20.5 5.5t5.5 20.5v558q0 15 -5.5 20.5
t-20.5 5.5h-79v35h165l370 -529q52 -73 94 -99.5t92 -26.5q61 0 97 33.5t32 88.5q-21 -4 -38 7.5t-17 33.5q0 17 11.5 28t30.5 11zM179 236h265l-265 382v-382z" />
    <glyph glyph-name="Adieresis.fina" horiz-adv-x="952" 
d="M76 765q-19 0 -31.5 12t-12.5 31t12.5 31.5t31.5 12.5q18 0 30 -12.5t12 -31.5t-12 -31t-30 -12zM266 765q-19 0 -31.5 12t-12.5 31t12.5 31.5t31.5 12.5q18 0 30 -12.5t12 -31.5t-12 -31t-30 -12zM872 227q50 0 50 -69q0 -70 -45 -119t-132 -49q-63 0 -120.5 35
t-117.5 121l-40 57h-288v-142q0 -15 5.5 -20.5t20.5 -5.5h94v-35h-264v35h79q15 0 20.5 5.5t5.5 20.5v558q0 15 -5.5 20.5t-20.5 5.5h-79v35h165l370 -529q52 -73 94 -99.5t92 -26.5q61 0 97 33.5t32 88.5q-21 -4 -38 7.5t-17 33.5q0 17 11.5 28t30.5 11zM179 236h265
l-265 382v-382z" />
    <glyph glyph-name="Agrave.fina" horiz-adv-x="952" 
d="M210 743q-97 85 -130 125q-21 26 2 45t45 -6q15 -17 99 -150zM872 227q50 0 50 -69q0 -70 -45 -119t-132 -49q-63 0 -120.5 35t-117.5 121l-40 57h-288v-142q0 -15 5.5 -20.5t20.5 -5.5h94v-35h-264v35h79q15 0 20.5 5.5t5.5 20.5v558q0 15 -5.5 20.5t-20.5 5.5h-79v35
h165l370 -529q52 -73 94 -99.5t92 -26.5q61 0 97 33.5t32 88.5q-21 -4 -38 7.5t-17 33.5q0 17 11.5 28t30.5 11zM179 236h265l-265 382v-382z" />
    <glyph glyph-name="Amacron.fina" horiz-adv-x="952" 
d="M298 822v-41h-255v41h255zM872 227q50 0 50 -69q0 -70 -45 -119t-132 -49q-63 0 -120.5 35t-117.5 121l-40 57h-288v-142q0 -15 5.5 -20.5t20.5 -5.5h94v-35h-264v35h79q15 0 20.5 5.5t5.5 20.5v558q0 15 -5.5 20.5t-20.5 5.5h-79v35h165l370 -529q52 -73 94 -99.5
t92 -26.5q61 0 97 33.5t32 88.5q-21 -4 -38 7.5t-17 33.5q0 17 11.5 28t30.5 11zM179 236h265l-265 382v-382z" />
    <glyph glyph-name="Aogonek.fina" horiz-adv-x="952" 
d="M824 -148q27 0 69 20l12 -25q-42 -32 -91 -32q-42 0 -69.5 21.5t-27.5 58.5q0 48 63 97q-22 -2 -35 -2q-63 0 -120.5 35t-117.5 121l-40 57h-288v-142q0 -15 5.5 -20.5t20.5 -5.5h94v-35h-264v35h79q15 0 20.5 5.5t5.5 20.5v558q0 15 -5.5 20.5t-20.5 5.5h-79v35h165
l370 -529q52 -73 94 -99.5t92 -26.5q61 0 97 33.5t32 89.5q-21 -5 -38 6.5t-17 33.5q0 17 11.5 28t30.5 11q50 0 50 -69q0 -83 -58 -131q-6 -5 -22.5 -18t-22.5 -18t-17.5 -16t-16 -17t-11 -15.5t-8.5 -18t-2 -18.5q0 -24 16.5 -39t43.5 -15zM179 236h265l-265 382v-382z
" />
    <glyph glyph-name="Aring.fina" horiz-adv-x="952" 
d="M170 738q-42 0 -70 27t-28 67t28 67t70 27q41 0 69 -27t28 -67t-28 -67t-69 -27zM170 897q-27 0 -45.5 -18.5t-18.5 -46.5q0 -27 18.5 -45t45.5 -18t45 17.5t18 45.5t-18 46.5t-45 18.5zM872 227q50 0 50 -69q0 -70 -45 -119t-132 -49q-63 0 -120.5 35t-117.5 121l-40 57
h-288v-142q0 -15 5.5 -20.5t20.5 -5.5h94v-35h-264v35h79q15 0 20.5 5.5t5.5 20.5v558q0 15 -5.5 20.5t-20.5 5.5h-79v35h165l370 -529q52 -73 94 -99.5t92 -26.5q61 0 97 33.5t32 88.5q-21 -4 -38 7.5t-17 33.5q0 17 11.5 28t30.5 11zM179 236h265l-265 382v-382z" />
    <glyph glyph-name="Atilde.fina" horiz-adv-x="952" 
d="M97 819q-21 0 -31.5 -14t-17.5 -41l-27 9q15 87 79 87q32 0 77.5 -33t66.5 -33q32 0 46 53l27 -5q-14 -89 -78 -89q-31 0 -75 33t-67 33zM872 227q50 0 50 -69q0 -70 -45 -119t-132 -49q-63 0 -120.5 35t-117.5 121l-40 57h-288v-142q0 -15 5.5 -20.5t20.5 -5.5h94v-35
h-264v35h79q15 0 20.5 5.5t5.5 20.5v558q0 15 -5.5 20.5t-20.5 5.5h-79v35h165l370 -529q52 -73 94 -99.5t92 -26.5q61 0 97 33.5t32 88.5q-21 -4 -38 7.5t-17 33.5q0 17 11.5 28t30.5 11zM179 236h265l-265 382v-382z" />
    <glyph glyph-name="K.fina" horiz-adv-x="872" 
d="M193 61q0 -15 5.5 -20.5t20.5 -5.5h69v-35h-253v35h79q15 0 20.5 5.5t5.5 20.5v558q0 15 -5.5 20.5t-20.5 5.5h-79v35h253v-35h-69q-15 0 -20.5 -5.5t-5.5 -20.5v-558zM792 227q50 0 50 -69q0 -70 -44.5 -119t-127.5 -49q-63 0 -119 35t-124 116l-161 191l261 289
q21 24 -9 24h-109v35h278v-35h-41q-48 0 -73 -28l-248 -276l165 -195q57 -68 98.5 -94.5t88.5 -26.5q62 0 96.5 33.5t31.5 89.5q-21 -5 -38 6.5t-17 33.5q0 17 11.5 28t30.5 11z" />
    <glyph glyph-name="Kcommaaccent.fina" horiz-adv-x="872" 
d="M193 61q0 -15 5.5 -20.5t20.5 -5.5h69v-35h-253v35h79q15 0 20.5 5.5t5.5 20.5v558q0 15 -5.5 20.5t-20.5 5.5h-79v35h253v-35h-69q-15 0 -20.5 -5.5t-5.5 -20.5v-558zM792 227q50 0 50 -69q0 -70 -44.5 -119t-127.5 -49q-63 0 -119 35t-124 116l-161 191l261 289
q21 24 -9 24h-109v35h278v-35h-41q-48 0 -73 -28l-248 -276l165 -195q57 -68 98.5 -94.5t88.5 -26.5q62 0 96.5 33.5t31.5 89.5q-21 -5 -38 6.5t-17 33.5q0 17 11.5 28t30.5 11zM424 -71q19 0 32.5 -12.5t13.5 -38.5q0 -109 -103 -148l-11 20q35 16 53.5 36t21.5 32.5
t3 30.5q-4 -1 -11 -1q-20 0 -31 11.5t-11 28.5t12.5 29t30.5 12z" />
    <glyph glyph-name="R.fina" horiz-adv-x="857" 
d="M777 227q50 0 50 -69t-47.5 -118.5t-134.5 -49.5q-62 0 -115.5 34.5t-122.5 116.5l-120 142h-94v-222q0 -15 5.5 -20.5t20.5 -5.5h89v-35h-273v35h79q15 0 20.5 5.5t5.5 20.5v558q0 15 -5.5 20.5t-20.5 5.5h-79v35h290q119 0 189.5 -53t70.5 -137q0 -86 -62.5 -141.5
t-170.5 -64.5l118 -138q58 -69 97 -95t85 -26q66 0 103.5 33.5t34.5 89.5q-21 -5 -38 6.5t-17 33.5q0 17 11.5 28t30.5 11zM193 645v-327h132q94 0 148.5 51t54.5 120q0 68 -53.5 112t-149.5 44h-132z" />
    <glyph glyph-name="Racute.fina" horiz-adv-x="857" 
d="M472 868q-33 -40 -130 -125l-16 14q84 133 99 150q22 25 45 6t2 -45zM777 227q50 0 50 -69t-47.5 -118.5t-134.5 -49.5q-62 0 -115.5 34.5t-122.5 116.5l-120 142h-94v-222q0 -15 5.5 -20.5t20.5 -5.5h89v-35h-273v35h79q15 0 20.5 5.5t5.5 20.5v558q0 15 -5.5 20.5
t-20.5 5.5h-79v35h290q119 0 189.5 -53t70.5 -137q0 -86 -62.5 -141.5t-170.5 -64.5l118 -138q58 -69 97 -95t85 -26q66 0 103.5 33.5t34.5 89.5q-21 -5 -38 6.5t-17 33.5q0 17 11.5 28t30.5 11zM193 645v-327h132q94 0 148.5 51t54.5 120q0 68 -53.5 112t-149.5 44h-132z
" />
    <glyph glyph-name="Rcaron.fina" horiz-adv-x="857" 
d="M338 746q-10 0 -21 16l-104 140l17 14l108 -104l109 104l16 -14l-104 -140q-10 -16 -21 -16zM777 227q50 0 50 -69t-47.5 -118.5t-134.5 -49.5q-62 0 -115.5 34.5t-122.5 116.5l-120 142h-94v-222q0 -15 5.5 -20.5t20.5 -5.5h89v-35h-273v35h79q15 0 20.5 5.5t5.5 20.5
v558q0 15 -5.5 20.5t-20.5 5.5h-79v35h290q119 0 189.5 -53t70.5 -137q0 -86 -62.5 -141.5t-170.5 -64.5l118 -138q58 -69 97 -95t85 -26q66 0 103.5 33.5t34.5 89.5q-21 -5 -38 6.5t-17 33.5q0 17 11.5 28t30.5 11zM193 645v-327h132q94 0 148.5 51t54.5 120
q0 68 -53.5 112t-149.5 44h-132z" />
    <glyph glyph-name="Rcommaaccent.fina" horiz-adv-x="857" 
d="M777 227q50 0 50 -69t-47.5 -118.5t-134.5 -49.5q-62 0 -115.5 34.5t-122.5 116.5l-120 142h-94v-222q0 -15 5.5 -20.5t20.5 -5.5h89v-35h-273v35h79q15 0 20.5 5.5t5.5 20.5v558q0 15 -5.5 20.5t-20.5 5.5h-79v35h290q119 0 189.5 -53t70.5 -137q0 -86 -62.5 -141.5
t-170.5 -64.5l118 -138q58 -69 97 -95t85 -26q66 0 103.5 33.5t34.5 89.5q-21 -5 -38 6.5t-17 33.5q0 17 11.5 28t30.5 11zM193 645v-327h132q94 0 148.5 51t54.5 120q0 68 -53.5 112t-149.5 44h-132zM396 -71q19 0 32.5 -12.5t13.5 -38.5q0 -109 -103 -148l-11 20
q35 16 53.5 36t21.5 32.5t3 30.5q-4 -1 -11 -1q-20 0 -31 11.5t-11 28.5t12.5 29t30.5 12z" />
    <glyph glyph-name="A.init" horiz-adv-x="970" 
d="M856 645q-15 0 -20.5 -5.5t-5.5 -20.5v-558q0 -15 5.5 -20.5t20.5 -5.5h79v-35h-277v35h94q15 0 20.5 5.5t5.5 20.5v142h-293l-40 -57q-104 -151 -243 -151q-89 0 -140.5 50t-51.5 118q0 36 14 52.5t36 16.5q19 0 30.5 -11t11.5 -28q0 -22 -17 -33.5t-38 -7.5
q-2 -55 41.5 -88.5t112.5 -33.5q118 0 202 120l375 530h157v-35h-79zM508 236h270v382z" />
    <glyph glyph-name="Aacute.init" horiz-adv-x="970" 
d="M972 913q23 -19 2 -45q-33 -40 -130 -125l-16 14q84 133 99 150q22 25 45 6zM403 150l375 530h157v-35h-79q-15 0 -20.5 -5.5t-5.5 -20.5v-558q0 -15 5.5 -20.5t20.5 -5.5h79v-35h-277v35h94q15 0 20.5 5.5t5.5 20.5v142h-293l-40 -57q-104 -151 -243 -151
q-89 0 -140.5 50t-51.5 118q0 36 14 52.5t36 16.5q19 0 30.5 -11t11.5 -28q0 -22 -17 -33.5t-38 -7.5q-2 -55 41.5 -88.5t112.5 -33.5q118 0 202 120zM508 236h270v382z" />
    <glyph glyph-name="Abreve.init" horiz-adv-x="970" 
d="M840 767q-50 0 -83 32.5t-39 92.5l30 4q19 -85 92 -85t92 85l29 -4q-6 -60 -38.5 -92.5t-82.5 -32.5zM403 150l375 530h157v-35h-79q-15 0 -20.5 -5.5t-5.5 -20.5v-558q0 -15 5.5 -20.5t20.5 -5.5h79v-35h-277v35h94q15 0 20.5 5.5t5.5 20.5v142h-293l-40 -57
q-104 -151 -243 -151q-89 0 -140.5 50t-51.5 118q0 36 14 52.5t36 16.5q19 0 30.5 -11t11.5 -28q0 -22 -17 -33.5t-38 -7.5q-2 -55 41.5 -88.5t112.5 -33.5q118 0 202 120zM508 236h270v382z" />
    <glyph glyph-name="Acircumflex.init" horiz-adv-x="970" 
d="M861 900l104 -140l-16 -14l-109 104l-108 -104l-17 14l104 140q11 16 21 16q11 0 21 -16zM403 150l375 530h157v-35h-79q-15 0 -20.5 -5.5t-5.5 -20.5v-558q0 -15 5.5 -20.5t20.5 -5.5h79v-35h-277v35h94q15 0 20.5 5.5t5.5 20.5v142h-293l-40 -57q-104 -151 -243 -151
q-89 0 -140.5 50t-51.5 118q0 36 14 52.5t36 16.5q19 0 30.5 -11t11.5 -28q0 -22 -17 -33.5t-38 -7.5q-2 -55 41.5 -88.5t112.5 -33.5q118 0 202 120zM508 236h270v382z" />
    <glyph glyph-name="Adieresis.init" horiz-adv-x="970" 
d="M746 765q-19 0 -31.5 12t-12.5 31t12.5 31.5t31.5 12.5q18 0 30 -12.5t12 -31.5t-12 -31t-30 -12zM936 852q18 0 30 -12.5t12 -31.5t-12 -31t-30 -12q-19 0 -31.5 12t-12.5 31t12.5 31.5t31.5 12.5zM403 150l375 530h157v-35h-79q-15 0 -20.5 -5.5t-5.5 -20.5v-558
q0 -15 5.5 -20.5t20.5 -5.5h79v-35h-277v35h94q15 0 20.5 5.5t5.5 20.5v142h-293l-40 -57q-104 -151 -243 -151q-89 0 -140.5 50t-51.5 118q0 36 14 52.5t36 16.5q19 0 30.5 -11t11.5 -28q0 -22 -17 -33.5t-38 -7.5q-2 -55 41.5 -88.5t112.5 -33.5q118 0 202 120zM508 236
h270v382z" />
    <glyph glyph-name="Agrave.init" horiz-adv-x="970" 
d="M880 743q-97 85 -130 125q-21 26 2 45t45 -6q15 -17 99 -150zM856 645q-15 0 -20.5 -5.5t-5.5 -20.5v-558q0 -15 5.5 -20.5t20.5 -5.5h79v-35h-277v35h94q15 0 20.5 5.5t5.5 20.5v142h-293l-40 -57q-104 -151 -243 -151q-89 0 -140.5 50t-51.5 118q0 36 14 52.5t36 16.5
q19 0 30.5 -11t11.5 -28q0 -22 -17 -33.5t-38 -7.5q-2 -55 41.5 -88.5t112.5 -33.5q118 0 202 120l375 530h157v-35h-79zM508 236h270v382z" />
    <glyph glyph-name="Amacron.init" horiz-adv-x="970" 
d="M713 822h255v-41h-255v41zM403 150l375 530h157v-35h-79q-15 0 -20.5 -5.5t-5.5 -20.5v-558q0 -15 5.5 -20.5t20.5 -5.5h79v-35h-277v35h94q15 0 20.5 5.5t5.5 20.5v142h-293l-40 -57q-104 -151 -243 -151q-89 0 -140.5 50t-51.5 118q0 36 14 52.5t36 16.5q19 0 30.5 -11
t11.5 -28q0 -22 -17 -33.5t-38 -7.5q-2 -55 41.5 -88.5t112.5 -33.5q118 0 202 120zM508 236h270v382z" />
    <glyph glyph-name="Aogonek.init" horiz-adv-x="970" 
d="M856 645q-15 0 -20.5 -5.5t-5.5 -20.5v-558q0 -15 5.5 -20.5t20.5 -5.5h79v-35h-73q-62 0 -101 -28t-39 -66q0 -28 18 -43.5t48 -15.5q26 0 66 20l12 -25q-45 -32 -89 -32q-43 0 -72.5 23.5t-29.5 62.5q0 32 22 59.5t60 44.5h-99v35h94q15 0 20.5 5.5t5.5 20.5v142h-293
l-40 -57q-104 -151 -243 -151q-89 0 -140.5 50t-51.5 118q0 36 14 52.5t36 16.5q19 0 30.5 -11t11.5 -28q0 -22 -17 -33.5t-38 -7.5q-2 -55 41.5 -88.5t112.5 -33.5q118 0 202 120l375 530h157v-35h-79zM508 236h270v382z" />
    <glyph glyph-name="Aring.init" horiz-adv-x="970" 
d="M840 738q-42 0 -70 27t-28 67t28 67t70 27q41 0 69 -27t28 -67t-28 -67t-69 -27zM840 897q-27 0 -45.5 -18.5t-18.5 -46.5q0 -27 18.5 -45t45.5 -18t45 17.5t18 45.5t-18 46.5t-45 18.5zM403 150l375 530h157v-35h-79q-15 0 -20.5 -5.5t-5.5 -20.5v-558q0 -15 5.5 -20.5
t20.5 -5.5h79v-35h-277v35h94q15 0 20.5 5.5t5.5 20.5v142h-293l-40 -57q-104 -151 -243 -151q-89 0 -140.5 50t-51.5 118q0 36 14 52.5t36 16.5q19 0 30.5 -11t11.5 -28q0 -22 -17 -33.5t-38 -7.5q-2 -55 41.5 -88.5t112.5 -33.5q118 0 202 120zM508 236h270v382z" />
    <glyph glyph-name="Atilde.init" horiz-adv-x="970" 
d="M960 847l27 -5q-14 -89 -78 -89q-31 0 -75 33t-67 33q-21 0 -31.5 -14t-17.5 -41l-27 9q15 87 79 87q32 0 78 -33t66 -33q32 0 46 53zM403 150l375 530h157v-35h-79q-15 0 -20.5 -5.5t-5.5 -20.5v-558q0 -15 5.5 -20.5t20.5 -5.5h79v-35h-277v35h94q15 0 20.5 5.5
t5.5 20.5v142h-293l-40 -57q-104 -151 -243 -151q-89 0 -140.5 50t-51.5 118q0 36 14 52.5t36 16.5q19 0 30.5 -11t11.5 -28q0 -22 -17 -33.5t-38 -7.5q-2 -55 41.5 -88.5t112.5 -33.5q118 0 202 120zM508 236h270v382z" />
    <glyph glyph-name="T.init" horiz-adv-x="674" 
d="M481 645h-100v-584q0 -15 5.5 -20.5t20.5 -5.5h117v-35h-338v35h117q15 0 20.5 5.5t5.5 20.5v584h-99q-148 0 -169 -93q20 2 35 -10t15 -32q0 -17 -12 -28.5t-31 -11.5t-31.5 14t-12.5 37q0 27 8.5 52t29.5 50.5t64 41t104 15.5h251q80 0 120 27t49 67q-20 -2 -35 9.5
t-15 31.5q0 17 12 28.5t31 11.5t31.5 -13.5t12.5 -36.5q0 -27 -8.5 -52.5t-29.5 -51t-64 -41t-104 -15.5z" />
    <glyph glyph-name="Tbar.init" horiz-adv-x="674" 
d="M481 645h-100v-313h153v-35h-153v-236q0 -15 5.5 -20.5t20.5 -5.5h117v-35h-338v35h117q15 0 20.5 5.5t5.5 20.5v236h-140v35h140v313h-99q-148 0 -169 -93q20 2 35 -10t15 -32q0 -17 -12 -28.5t-31 -11.5t-31.5 14t-12.5 37q0 27 8.5 52t29.5 50.5t64 41t104 15.5h251
q80 0 120 27t49 67q-20 -2 -35 9.5t-15 31.5q0 17 12 28.5t31 11.5t31.5 -13.5t12.5 -36.5q0 -27 -8.5 -52.5t-29.5 -51t-64 -41t-104 -15.5z" />
    <glyph glyph-name="Tcaron.init" horiz-adv-x="674" 
d="M356 746q-10 0 -21 16l-104 140l17 14l108 -104l109 104l16 -14l-104 -140q-10 -16 -21 -16zM481 645h-100v-584q0 -15 5.5 -20.5t20.5 -5.5h117v-35h-338v35h117q15 0 20.5 5.5t5.5 20.5v584h-99q-148 0 -169 -93q20 2 35 -10t15 -32q0 -17 -12 -28.5t-31 -11.5
t-31.5 14t-12.5 37q0 27 8.5 52t29.5 50.5t64 41t104 15.5h251q80 0 120 27t49 67q-20 -2 -35 9.5t-15 31.5q0 17 12 28.5t31 11.5t31.5 -13.5t12.5 -36.5q0 -27 -8.5 -52.5t-29.5 -51t-64 -41t-104 -15.5z" />
    <glyph glyph-name="uni0162.init" horiz-adv-x="674" 
d="M481 645h-100v-584q0 -15 5.5 -20.5t20.5 -5.5h117v-35h-166l-37 -72q52 2 83.5 -20.5t31.5 -57.5t-29.5 -58t-74.5 -23q-52 0 -97 30l13 25q40 -25 81 -25q29 0 47 14t18 37q0 30 -31 43t-82 7l-9 13l55 87h-141v35h117q15 0 20.5 5.5t5.5 20.5v584h-99q-148 0 -169 -93
q20 2 35 -10t15 -32q0 -17 -12 -28.5t-31 -11.5t-31.5 14t-12.5 37q0 27 8.5 52t29.5 50.5t64 41t104 15.5h251q80 0 120 27t49 67q-20 -2 -35 9.5t-15 31.5q0 17 12 28.5t31 11.5t31.5 -13.5t12.5 -36.5q0 -27 -8.5 -52.5t-29.5 -51t-64 -41t-104 -15.5z" />
    <glyph glyph-name="uni021A.init" horiz-adv-x="674" 
d="M481 645h-100v-584q0 -15 5.5 -20.5t20.5 -5.5h117v-35h-338v35h117q15 0 20.5 5.5t5.5 20.5v584h-99q-148 0 -169 -93q20 2 35 -10t15 -32q0 -17 -12 -28.5t-31 -11.5t-31.5 14t-12.5 37q0 27 8.5 52t29.5 50.5t64 41t104 15.5h251q80 0 120 27t49 67q-20 -2 -35 9.5
t-15 31.5q0 17 12 28.5t31 11.5t31.5 -13.5t12.5 -36.5q0 -27 -8.5 -52.5t-29.5 -51t-64 -41t-104 -15.5zM364 -71q19 0 32.5 -12.5t13.5 -38.5q0 -109 -103 -148l-11 20q35 16 53.5 36t21.5 32.5t3 30.5q-4 -1 -11 -1q-20 0 -31 11.5t-11 28.5t12.5 29t30.5 12z" />
    <glyph glyph-name="R.ss03" horiz-adv-x="795" 
d="M737 235q48 0 48 -71t-43 -122.5t-126 -51.5q-108 0 -149 98l-51 120q-18 44 -52.5 59.5t-93.5 15.5h-77v-222q0 -15 5.5 -20.5t20.5 -5.5h89v-35h-273v35h79q15 0 20.5 5.5t5.5 20.5v558q0 15 -5.5 20.5t-20.5 5.5h-79v35h290q119 0 189.5 -53t70.5 -137
q0 -77 -58 -133.5t-151 -69.5q72 -20 105 -93l41 -92q33 -76 112 -76q53 0 83.5 36t30.5 94q-20 -4 -37 7.5t-17 32.5q0 17 11.5 28t31.5 11zM193 318h132q94 0 148.5 50.5t54.5 120.5q0 68 -53.5 112t-149.5 44h-132v-327z" />
    <glyph glyph-name="Racute.ss03" horiz-adv-x="795" 
d="M472 868q-33 -40 -130 -125l-16 14q84 133 99 150q22 25 45 6t2 -45zM737 235q48 0 48 -71t-43 -122.5t-126 -51.5q-108 0 -149 98l-51 120q-18 44 -52.5 59.5t-93.5 15.5h-77v-222q0 -15 5.5 -20.5t20.5 -5.5h89v-35h-273v35h79q15 0 20.5 5.5t5.5 20.5v558
q0 15 -5.5 20.5t-20.5 5.5h-79v35h290q119 0 189.5 -53t70.5 -137q0 -77 -58 -133.5t-151 -69.5q72 -20 105 -93l41 -92q33 -76 112 -76q53 0 83.5 36t30.5 94q-20 -4 -37 7.5t-17 32.5q0 17 11.5 28t31.5 11zM193 318h132q94 0 148.5 50.5t54.5 120.5q0 68 -53.5 112
t-149.5 44h-132v-327z" />
    <glyph glyph-name="Rcaron.ss03" horiz-adv-x="795" 
d="M338 746q-10 0 -21 16l-104 140l17 14l108 -104l109 104l16 -14l-104 -140q-10 -16 -21 -16zM737 235q48 0 48 -71t-43 -122.5t-126 -51.5q-108 0 -149 98l-51 120q-18 44 -52.5 59.5t-93.5 15.5h-77v-222q0 -15 5.5 -20.5t20.5 -5.5h89v-35h-273v35h79q15 0 20.5 5.5
t5.5 20.5v558q0 15 -5.5 20.5t-20.5 5.5h-79v35h290q119 0 189.5 -53t70.5 -137q0 -77 -58 -133.5t-151 -69.5q72 -20 105 -93l41 -92q33 -76 112 -76q53 0 83.5 36t30.5 94q-20 -4 -37 7.5t-17 32.5q0 17 11.5 28t31.5 11zM193 318h132q94 0 148.5 50.5t54.5 120.5
q0 68 -53.5 112t-149.5 44h-132v-327z" />
    <glyph glyph-name="Rcommaaccent.ss03" horiz-adv-x="795" 
d="M737 235q48 0 48 -71t-43 -122.5t-126 -51.5q-108 0 -149 98l-51 120q-18 44 -52.5 59.5t-93.5 15.5h-77v-222q0 -15 5.5 -20.5t20.5 -5.5h89v-35h-273v35h79q15 0 20.5 5.5t5.5 20.5v558q0 15 -5.5 20.5t-20.5 5.5h-79v35h290q119 0 189.5 -53t70.5 -137
q0 -77 -58 -133.5t-151 -69.5q72 -20 105 -93l41 -92q33 -76 112 -76q53 0 83.5 36t30.5 94q-20 -4 -37 7.5t-17 32.5q0 17 11.5 28t31.5 11zM193 318h132q94 0 148.5 50.5t54.5 120.5q0 68 -53.5 112t-149.5 44h-132v-327zM396 -71q19 0 32.5 -12.5t13.5 -38.5
q0 -109 -103 -148l-11 20q35 16 53.5 36t21.5 32.5t3 30.5q-4 -1 -11 -1q-20 0 -31 11.5t-11 28.5t12.5 29t30.5 12z" />
    <glyph glyph-name="T.ss03" horiz-adv-x="674" 
d="M481 645h-100v-584q0 -15 5.5 -20.5t20.5 -5.5h117v-35h-338v35h117q15 0 20.5 5.5t5.5 20.5v584h-99q-148 0 -169 -93q20 2 35 -10t15 -32q0 -17 -12 -28.5t-31 -11.5t-31.5 14t-12.5 37q0 27 8.5 52t29.5 50.5t64 41t104 15.5h251q80 0 120 27t49 67q-20 -2 -35 9.5
t-15 31.5q0 17 12 28.5t31 11.5t31.5 -13.5t12.5 -36.5q0 -27 -8.5 -52.5t-29.5 -51t-64 -41t-104 -15.5z" />
    <glyph glyph-name="Tbar.ss03" horiz-adv-x="674" 
d="M481 645h-100v-313h153v-35h-153v-236q0 -15 5.5 -20.5t20.5 -5.5h117v-35h-338v35h117q15 0 20.5 5.5t5.5 20.5v236h-140v35h140v313h-99q-148 0 -169 -93q20 2 35 -10t15 -32q0 -17 -12 -28.5t-31 -11.5t-31.5 14t-12.5 37q0 27 8.5 52t29.5 50.5t64 41t104 15.5h251
q80 0 120 27t49 67q-20 -2 -35 9.5t-15 31.5q0 17 12 28.5t31 11.5t31.5 -13.5t12.5 -36.5q0 -27 -8.5 -52.5t-29.5 -51t-64 -41t-104 -15.5z" />
    <glyph glyph-name="Tcaron.ss03" horiz-adv-x="674" 
d="M356 746q-10 0 -21 16l-104 140l17 14l108 -104l109 104l16 -14l-104 -140q-10 -16 -21 -16zM481 645h-100v-584q0 -15 5.5 -20.5t20.5 -5.5h117v-35h-338v35h117q15 0 20.5 5.5t5.5 20.5v584h-99q-148 0 -169 -93q20 2 35 -10t15 -32q0 -17 -12 -28.5t-31 -11.5
t-31.5 14t-12.5 37q0 27 8.5 52t29.5 50.5t64 41t104 15.5h251q80 0 120 27t49 67q-20 -2 -35 9.5t-15 31.5q0 17 12 28.5t31 11.5t31.5 -13.5t12.5 -36.5q0 -27 -8.5 -52.5t-29.5 -51t-64 -41t-104 -15.5z" />
    <glyph glyph-name="uni0162.ss03" horiz-adv-x="674" 
d="M481 645h-100v-584q0 -15 5.5 -20.5t20.5 -5.5h117v-35h-166l-37 -72q52 2 83.5 -20.5t31.5 -57.5t-29.5 -58t-74.5 -23q-52 0 -97 30l13 25q40 -25 81 -25q29 0 47 14t18 37q0 30 -31 43t-82 7l-9 13l55 87h-141v35h117q15 0 20.5 5.5t5.5 20.5v584h-99q-148 0 -169 -93
q20 2 35 -10t15 -32q0 -17 -12 -28.5t-31 -11.5t-31.5 14t-12.5 37q0 27 8.5 52t29.5 50.5t64 41t104 15.5h251q80 0 120 27t49 67q-20 -2 -35 9.5t-15 31.5q0 17 12 28.5t31 11.5t31.5 -13.5t12.5 -36.5q0 -27 -8.5 -52.5t-29.5 -51t-64 -41t-104 -15.5z" />
    <glyph glyph-name="uni021A.ss03" horiz-adv-x="674" 
d="M481 645h-100v-584q0 -15 5.5 -20.5t20.5 -5.5h117v-35h-338v35h117q15 0 20.5 5.5t5.5 20.5v584h-99q-148 0 -169 -93q20 2 35 -10t15 -32q0 -17 -12 -28.5t-31 -11.5t-31.5 14t-12.5 37q0 27 8.5 52t29.5 50.5t64 41t104 15.5h251q80 0 120 27t49 67q-20 -2 -35 9.5
t-15 31.5q0 17 12 28.5t31 11.5t31.5 -13.5t12.5 -36.5q0 -27 -8.5 -52.5t-29.5 -51t-64 -41t-104 -15.5zM364 -71q19 0 32.5 -12.5t13.5 -38.5q0 -109 -103 -148l-11 20q35 16 53.5 36t21.5 32.5t3 30.5q-4 -1 -11 -1q-20 0 -31 11.5t-11 28.5t12.5 29t30.5 12z" />
    <glyph glyph-name="Q.ss04" horiz-adv-x="794" 
d="M392 690q145 0 241 -100.5t96 -249.5q0 -148 -96 -249t-241 -101t-241 101t-96 249q0 149 96 249.5t241 100.5zM392 27q123 0 200 88t77 225t-77 225t-200 88t-199.5 -88t-76.5 -225t76.5 -225t199.5 -88zM400 -58l2 21l321 -32q15 -1 25 -8.5t10 -18.5q0 -12 -11.5 -19
t-27.5 -4z" />
    <glyph glyph-name="A.ss08" horiz-adv-x="720" 
d="M683 35h37v-35h-241v35h78q34 0 21 31l-58 137h-334l-57 -137q-12 -31 21 -31h84v-35h-234v35h38q34 0 48 34l245 580l-9 22v9h50l263 -613q15 -32 48 -32zM200 236h306l-154 364z" />
    <glyph glyph-name="Aacute.ss08" horiz-adv-x="720" 
d="M494 868q-33 -40 -130 -125l-16 14q84 133 99 150q22 25 45 6t2 -45zM683 35h37v-35h-241v35h78q34 0 21 31l-58 137h-334l-57 -137q-12 -31 21 -31h84v-35h-234v35h38q34 0 48 34l245 580l-9 22v9h50l263 -613q15 -32 48 -32zM200 236h306l-154 364z" />
    <glyph glyph-name="Abreve.ss08" horiz-adv-x="720" 
d="M360 767q-50 0 -83 32.5t-39 92.5l30 4q19 -85 92 -85t92 85l29 -4q-6 -60 -38.5 -92.5t-82.5 -32.5zM683 35h37v-35h-241v35h78q34 0 21 31l-58 137h-334l-57 -137q-12 -31 21 -31h84v-35h-234v35h38q34 0 48 34l245 580l-9 22v9h50l263 -613q15 -32 48 -32zM200 236
h306l-154 364z" />
    <glyph glyph-name="Acircumflex.ss08" horiz-adv-x="720" 
d="M360 850l-108 -104l-17 14l104 140q11 16 21 16q11 0 21 -16l104 -140l-16 -14zM683 35h37v-35h-241v35h78q34 0 21 31l-58 137h-334l-57 -137q-12 -31 21 -31h84v-35h-234v35h38q34 0 48 34l245 580l-9 22v9h50l263 -613q15 -32 48 -32zM200 236h306l-154 364z" />
    <glyph glyph-name="Adieresis.ss08" horiz-adv-x="720" 
d="M266 765q-19 0 -31.5 12t-12.5 31t12.5 31.5t31.5 12.5q18 0 30 -12.5t12 -31.5t-12 -31t-30 -12zM456 765q-19 0 -31.5 12t-12.5 31t12.5 31.5t31.5 12.5q18 0 30 -12.5t12 -31.5t-12 -31t-30 -12zM683 35h37v-35h-241v35h78q34 0 21 31l-58 137h-334l-57 -137
q-12 -31 21 -31h84v-35h-234v35h38q34 0 48 34l245 580l-9 22v9h50l263 -613q15 -32 48 -32zM200 236h306l-154 364z" />
    <glyph glyph-name="Agrave.ss08" horiz-adv-x="720" 
d="M400 743q-97 85 -130 125q-21 26 2 45t45 -6q15 -17 99 -150zM683 35h37v-35h-241v35h78q34 0 21 31l-58 137h-334l-57 -137q-12 -31 21 -31h84v-35h-234v35h38q34 0 48 34l245 580l-9 22v9h50l263 -613q15 -32 48 -32zM200 236h306l-154 364z" />
    <glyph glyph-name="Amacron.ss08" horiz-adv-x="720" 
d="M488 822v-41h-255v41h255zM683 35h37v-35h-241v35h78q34 0 21 31l-58 137h-334l-57 -137q-12 -31 21 -31h84v-35h-234v35h38q34 0 48 34l245 580l-9 22v9h50l263 -613q15 -32 48 -32zM200 236h306l-154 364z" />
    <glyph glyph-name="Aogonek.ss08" horiz-adv-x="720" 
d="M682 0q-62 0 -101 -28t-39 -66q0 -28 18 -43.5t48 -15.5q26 0 66 20l12 -25q-45 -32 -89 -32q-43 0 -72.5 23.5t-29.5 62.5q0 32 22 59.5t60 44.5h-98v35h78q34 0 21 31l-58 137h-334l-57 -137q-12 -31 21 -31h84v-35h-234v35h38q34 0 48 34l245 580l-9 22v9h50l263 -613
q15 -32 48 -32h37v-35h-38zM200 236h306l-154 364z" />
    <glyph glyph-name="Aring.ss08" horiz-adv-x="720" 
d="M360 738q-42 0 -70 27t-28 67t28 67t70 27q41 0 69 -27t28 -67t-28 -67t-69 -27zM360 897q-27 0 -45.5 -18.5t-18.5 -46.5q0 -27 18.5 -45t45.5 -18t45 17.5t18 45.5t-18 46.5t-45 18.5zM683 35h37v-35h-241v35h78q34 0 21 31l-58 137h-334l-57 -137q-12 -31 21 -31h84
v-35h-234v35h38q34 0 48 34l245 580l-9 22v9h50l263 -613q15 -32 48 -32zM200 236h306l-154 364z" />
    <glyph glyph-name="Atilde.ss08" horiz-adv-x="720" 
d="M287 819q-21 0 -31.5 -14t-17.5 -41l-27 9q15 87 79 87q33 0 78.5 -33t65.5 -33q32 0 46 53l27 -5q-14 -89 -78 -89q-31 0 -75 33t-67 33zM683 35h37v-35h-241v35h78q34 0 21 31l-58 137h-334l-57 -137q-12 -31 21 -31h84v-35h-234v35h38q34 0 48 34l245 580l-9 22v9h50
l263 -613q15 -32 48 -32zM200 236h306l-154 364z" />
    <glyph glyph-name="i.loclTRK" horiz-adv-x="299" 
d="M150 585q-19 0 -31.5 12t-12.5 31t12.5 31.5t31.5 12.5q18 0 30 -12.5t12 -31.5t-12 -31t-30 -12zM210 35h64v-35h-229v35h64q15 0 20.5 5.5t5.5 20.5v378q0 15 -5.5 20.5t-20.5 5.5h-64v35h139v-439q0 -15 5.5 -20.5t20.5 -5.5z" />
    <glyph glyph-name="k.fina" horiz-adv-x="778" 
d="M167 61q0 -15 5.5 -20.5t20.5 -5.5h59v-35h-214v35h54q15 0 20.5 5.5t5.5 20.5v558q0 15 -5.5 20.5t-20.5 5.5h-54v35h129v-619zM699 227q49 0 49 -69q0 -70 -44.5 -119t-127.5 -49q-63 0 -118.5 34.5t-124.5 116.5l-114 135l181 167q10 9 7 15.5t-16 6.5h-90v35h243v-35
h-40q-32 0 -63 -29l-169 -155l119 -140q55 -65 99.5 -90.5t92.5 -25.5q62 0 96.5 33.5t31.5 89.5q-20 -4 -37 7.5t-17 32.5q0 17 11 28t31 11z" />
    <glyph glyph-name="kcommaaccent.fina" horiz-adv-x="778" 
d="M167 61q0 -15 5.5 -20.5t20.5 -5.5h59v-35h-214v35h54q15 0 20.5 5.5t5.5 20.5v558q0 15 -5.5 20.5t-20.5 5.5h-54v35h129v-619zM699 227q49 0 49 -69q0 -70 -44.5 -119t-127.5 -49q-63 0 -118.5 34.5t-124.5 116.5l-114 135l181 167q10 9 7 15.5t-16 6.5h-90v35h243v-35
h-40q-32 0 -63 -29l-169 -155l119 -140q55 -65 99.5 -90.5t92.5 -25.5q62 0 96.5 33.5t31.5 89.5q-20 -4 -37 7.5t-17 32.5q0 17 11 28t31 11zM348 -71q19 0 32.5 -12.5t13.5 -38.5q0 -109 -103 -148l-11 20q35 16 53.5 36t21.5 32.5t3 30.5q-4 -1 -11 -1q-20 0 -31 11.5
t-11 28.5t12.5 29t30.5 12z" />
    <glyph glyph-name="a.ss01" horiz-adv-x="646" 
d="M543 465q-15 0 -20.5 -5.5t-5.5 -20.5v-378q0 -15 5.5 -20.5t20.5 -5.5h59v-35h-134v122q-28 -64 -81 -98t-116 -34q-102 0 -166.5 73t-64.5 185q0 115 64.5 187t166.5 72q64 0 119 -34t83 -98l20 125h109v-35h-59zM279 26q84 0 136.5 61.5t52.5 160.5q0 100 -52 161.5
t-137 61.5q-83 0 -134.5 -61t-51.5 -162q0 -99 51.5 -160.5t134.5 -61.5z" />
    <glyph glyph-name="aacute.ss01" horiz-adv-x="646" 
d="M423 688q-33 -40 -130 -125l-16 14q84 133 99 150q22 25 45 6t2 -45zM543 465q-15 0 -20.5 -5.5t-5.5 -20.5v-378q0 -15 5.5 -20.5t20.5 -5.5h59v-35h-134v122q-28 -64 -81 -98t-116 -34q-102 0 -166.5 73t-64.5 185q0 115 64.5 187t166.5 72q64 0 119 -34t83 -98l20 125
h109v-35h-59zM279 26q84 0 136.5 61.5t52.5 160.5q0 100 -52 161.5t-137 61.5q-83 0 -134.5 -61t-51.5 -162q0 -99 51.5 -160.5t134.5 -61.5z" />
    <glyph glyph-name="abreve.ss01" horiz-adv-x="646" 
d="M407 716l29 -4q-6 -60 -38.5 -92.5t-82.5 -32.5t-83 32.5t-39 92.5l30 4q19 -85 92 -85t92 85zM543 465q-15 0 -20.5 -5.5t-5.5 -20.5v-378q0 -15 5.5 -20.5t20.5 -5.5h59v-35h-134v122q-28 -64 -81 -98t-116 -34q-102 0 -166.5 73t-64.5 185q0 115 64.5 187t166.5 72
q64 0 119 -34t83 -98l20 125h109v-35h-59zM279 26q84 0 136.5 61.5t52.5 160.5q0 100 -52 161.5t-137 61.5q-83 0 -134.5 -61t-51.5 -162q0 -99 51.5 -160.5t134.5 -61.5z" />
    <glyph glyph-name="acircumflex.ss01" horiz-adv-x="646" 
d="M181 566l-17 14l104 140q11 16 21 16q11 0 21 -16l104 -140l-16 -14l-109 104zM543 465q-15 0 -20.5 -5.5t-5.5 -20.5v-378q0 -15 5.5 -20.5t20.5 -5.5h59v-35h-134v122q-28 -64 -81 -98t-116 -34q-102 0 -166.5 73t-64.5 185q0 115 64.5 187t166.5 72q64 0 119 -34
t83 -98l20 125h109v-35h-59zM279 26q84 0 136.5 61.5t52.5 160.5q0 100 -52 161.5t-137 61.5q-83 0 -134.5 -61t-51.5 -162q0 -99 51.5 -160.5t134.5 -61.5z" />
    <glyph glyph-name="adieresis.ss01" horiz-adv-x="646" 
d="M195 585q-19 0 -31.5 12t-12.5 31t12.5 31.5t31.5 12.5q18 0 30 -12.5t12 -31.5t-12 -31t-30 -12zM385 585q-19 0 -31.5 12t-12.5 31t12.5 31.5t31.5 12.5q18 0 30 -12.5t12 -31.5t-12 -31t-30 -12zM543 465q-15 0 -20.5 -5.5t-5.5 -20.5v-378q0 -15 5.5 -20.5t20.5 -5.5
h59v-35h-134v122q-28 -64 -81 -98t-116 -34q-102 0 -166.5 73t-64.5 185q0 115 64.5 187t166.5 72q64 0 119 -34t83 -98l20 125h109v-35h-59zM279 26q84 0 136.5 61.5t52.5 160.5q0 100 -52 161.5t-137 61.5q-83 0 -134.5 -61t-51.5 -162q0 -99 51.5 -160.5t134.5 -61.5z
" />
    <glyph glyph-name="agrave.ss01" horiz-adv-x="646" 
d="M345 577l-16 -14q-97 85 -130 125q-21 26 2 45t45 -6q15 -17 99 -150zM543 465q-15 0 -20.5 -5.5t-5.5 -20.5v-378q0 -15 5.5 -20.5t20.5 -5.5h59v-35h-134v122q-28 -64 -81 -98t-116 -34q-102 0 -166.5 73t-64.5 185q0 115 64.5 187t166.5 72q64 0 119 -34t83 -98
l20 125h109v-35h-59zM279 26q84 0 136.5 61.5t52.5 160.5q0 100 -52 161.5t-137 61.5q-83 0 -134.5 -61t-51.5 -162q0 -99 51.5 -160.5t134.5 -61.5z" />
    <glyph glyph-name="amacron.ss01" horiz-adv-x="646" 
d="M162 642h255v-41h-255v41zM543 465q-15 0 -20.5 -5.5t-5.5 -20.5v-378q0 -15 5.5 -20.5t20.5 -5.5h59v-35h-134v122q-28 -64 -81 -98t-116 -34q-102 0 -166.5 73t-64.5 185q0 115 64.5 187t166.5 72q64 0 119 -34t83 -98l20 125h109v-35h-59zM279 26q84 0 136.5 61.5
t52.5 160.5q0 100 -52 161.5t-137 61.5q-83 0 -134.5 -61t-51.5 -162q0 -99 51.5 -160.5t134.5 -61.5z" />
    <glyph glyph-name="aogonek.ss01" horiz-adv-x="646" 
d="M543 465q-15 0 -20.5 -5.5t-5.5 -20.5v-378q0 -15 5.5 -20.5t20.5 -5.5h59v-35h-4q-62 0 -101 -28t-39 -66q0 -28 18 -43.5t48 -15.5q26 0 66 20l12 -25q-45 -32 -89 -32q-43 0 -72.5 23.5t-29.5 62.5q0 32 22 59.5t60 44.5h-25v122q-28 -64 -81 -98t-116 -34
q-102 0 -166.5 73t-64.5 185q0 115 64.5 187t166.5 72q64 0 119 -34t83 -98l20 125h109v-35h-59zM279 26q84 0 136.5 61.5t52.5 160.5q0 100 -52 161.5t-137 61.5q-83 0 -134.5 -61t-51.5 -162q0 -99 51.5 -160.5t134.5 -61.5z" />
    <glyph glyph-name="aring.ss01" horiz-adv-x="646" 
d="M289 558q-42 0 -70 27t-28 67t28 67t70 27q41 0 69 -27t28 -67t-28 -67t-69 -27zM289 589q27 0 45 17.5t18 45.5t-18 46.5t-45 18.5t-45.5 -18.5t-18.5 -46.5q0 -27 18.5 -45t45.5 -18zM543 465q-15 0 -20.5 -5.5t-5.5 -20.5v-378q0 -15 5.5 -20.5t20.5 -5.5h59v-35h-134
v122q-28 -64 -81 -98t-116 -34q-102 0 -166.5 73t-64.5 185q0 115 64.5 187t166.5 72q64 0 119 -34t83 -98l20 125h109v-35h-59zM279 26q84 0 136.5 61.5t52.5 160.5q0 100 -52 161.5t-137 61.5q-83 0 -134.5 -61t-51.5 -162q0 -99 51.5 -160.5t134.5 -61.5z" />
    <glyph glyph-name="atilde.ss01" horiz-adv-x="646" 
d="M436 662q-14 -89 -78 -89q-31 0 -75 33t-67 33q-21 0 -31.5 -14t-17.5 -41l-27 9q14 87 79 87q33 0 78 -33t66 -33q32 0 46 53zM543 465q-15 0 -20.5 -5.5t-5.5 -20.5v-378q0 -15 5.5 -20.5t20.5 -5.5h59v-35h-134v122q-28 -64 -81 -98t-116 -34q-102 0 -166.5 73
t-64.5 185q0 115 64.5 187t166.5 72q64 0 119 -34t83 -98l20 125h109v-35h-59zM279 26q84 0 136.5 61.5t52.5 160.5q0 100 -52 161.5t-137 61.5q-83 0 -134.5 -61t-51.5 -162q0 -99 51.5 -160.5t134.5 -61.5z" />
    <glyph glyph-name="y.ss02" horiz-adv-x="558" 
d="M362 500h127v-500q0 -81 -59.5 -135.5t-147.5 -54.5q-93 0 -146 38t-53 83q0 21 12 34t31 13q17 0 29 -11.5t12 -28.5t-11 -27.5t-29 -9.5q36 -61 146 -61q71 0 119 46t48 114v163q-25 -57 -72.5 -90t-107.5 -33q-68 0 -114 45t-46 112v247q0 12 -5.5 16.5t-19.5 4.5h-60
v35h134v-298q0 -51 36 -85.5t89 -34.5q68 0 117 51t49 143v163q0 15 -5.5 20.5t-20.5 5.5h-52v35z" />
    <glyph glyph-name="yacute.ss02" horiz-adv-x="558" 
d="M413 688q-33 -40 -130 -125l-16 14q84 133 99 150q22 25 45 6t2 -45zM362 500h127v-500q0 -81 -59.5 -135.5t-147.5 -54.5q-93 0 -146 38t-53 83q0 21 12 34t31 13q17 0 29 -11.5t12 -28.5t-11 -27.5t-29 -9.5q36 -61 146 -61q71 0 119 46t48 114v163q-25 -57 -72.5 -90
t-107.5 -33q-68 0 -114 45t-46 112v247q0 12 -5.5 16.5t-19.5 4.5h-60v35h134v-298q0 -51 36 -85.5t89 -34.5q68 0 117 51t49 143v163q0 15 -5.5 20.5t-20.5 5.5h-52v35z" />
    <glyph glyph-name="ycircumflex.ss02" horiz-adv-x="558" 
d="M171 566l-17 14l104 140q11 16 21 16q11 0 21 -16l104 -140l-16 -14l-109 104zM362 500h127v-500q0 -81 -59.5 -135.5t-147.5 -54.5q-93 0 -146 38t-53 83q0 21 12 34t31 13q17 0 29 -11.5t12 -28.5t-11 -27.5t-29 -9.5q36 -61 146 -61q71 0 119 46t48 114v163
q-25 -57 -72.5 -90t-107.5 -33q-68 0 -114 45t-46 112v247q0 12 -5.5 16.5t-19.5 4.5h-60v35h134v-298q0 -51 36 -85.5t89 -34.5q68 0 117 51t49 143v163q0 15 -5.5 20.5t-20.5 5.5h-52v35z" />
    <glyph glyph-name="ydieresis.ss02" horiz-adv-x="558" 
d="M185 585q-19 0 -31.5 12t-12.5 31t12.5 31.5t31.5 12.5q18 0 30 -12.5t12 -31.5t-12 -31t-30 -12zM375 585q-19 0 -31.5 12t-12.5 31t12.5 31.5t31.5 12.5q18 0 30 -12.5t12 -31.5t-12 -31t-30 -12zM362 500h127v-500q0 -81 -59.5 -135.5t-147.5 -54.5q-93 0 -146 38
t-53 83q0 21 12 34t31 13q17 0 29 -11.5t12 -28.5t-11 -27.5t-29 -9.5q36 -61 146 -61q71 0 119 46t48 114v163q-25 -57 -72.5 -90t-107.5 -33q-68 0 -114 45t-46 112v247q0 12 -5.5 16.5t-19.5 4.5h-60v35h134v-298q0 -51 36 -85.5t89 -34.5q68 0 117 51t49 143v163
q0 15 -5.5 20.5t-20.5 5.5h-52v35z" />
    <glyph glyph-name="ygrave.ss02" horiz-adv-x="558" 
d="M335 577l-16 -14q-97 85 -130 125q-21 26 2 45t45 -6q15 -17 99 -150zM362 500h127v-500q0 -81 -59.5 -135.5t-147.5 -54.5q-93 0 -146 38t-53 83q0 21 12 34t31 13q17 0 29 -11.5t12 -28.5t-11 -27.5t-29 -9.5q36 -61 146 -61q71 0 119 46t48 114v163q-25 -57 -72.5 -90
t-107.5 -33q-68 0 -114 45t-46 112v247q0 12 -5.5 16.5t-19.5 4.5h-60v35h134v-298q0 -51 36 -85.5t89 -34.5q68 0 117 51t49 143v163q0 15 -5.5 20.5t-20.5 5.5h-52v35z" />
    <glyph glyph-name="g.ss06" horiz-adv-x="599" 
d="M470 500h104v-35h-54q-15 0 -20.5 -5.5t-5.5 -20.5v-429q0 -84 -64.5 -142t-164.5 -58q-93 0 -148 38.5t-55 82.5q0 21 12.5 33.5t30.5 12.5t29.5 -11t11.5 -28t-11 -27.5t-29 -9.5q38 -61 151 -61q82 0 135 49t53 121v151q-24 -59 -73 -88.5t-112 -29.5
q-93 0 -156.5 66.5t-63.5 165.5q0 100 63.5 166t156.5 66q63 0 113 -29t76 -87zM272 79q78 0 125.5 54t47.5 142t-47.5 142t-125.5 54q-79 0 -129 -54t-50 -142q0 -87 50 -141.5t129 -54.5z" />
    <glyph glyph-name="gbreve.ss06" horiz-adv-x="599" 
d="M392 716l29 -4q-6 -60 -38.5 -92.5t-82.5 -32.5t-83 32.5t-39 92.5l30 4q19 -85 92 -85t92 85zM470 500h104v-35h-54q-15 0 -20.5 -5.5t-5.5 -20.5v-429q0 -84 -64.5 -142t-164.5 -58q-93 0 -148 38.5t-55 82.5q0 21 12.5 33.5t30.5 12.5t29.5 -11t11.5 -28t-11 -27.5
t-29 -9.5q38 -61 151 -61q82 0 135 49t53 121v151q-24 -59 -73 -88.5t-112 -29.5q-93 0 -156.5 66.5t-63.5 165.5q0 100 63.5 166t156.5 66q63 0 113 -29t76 -87zM272 79q78 0 125.5 54t47.5 142t-47.5 142t-125.5 54q-79 0 -129 -54t-50 -142q0 -87 50 -141.5t129 -54.5z
" />
    <glyph glyph-name="gcommaaccent.ss06" horiz-adv-x="599" 
d="M292 571q-19 0 -32.5 12.5t-13.5 38.5q0 109 103 148l11 -20q-35 -16 -53.5 -36t-21.5 -32.5t-3 -30.5q4 1 11 1q20 0 31 -11.5t11 -28.5t-12.5 -29t-30.5 -12zM470 500h104v-35h-54q-15 0 -20.5 -5.5t-5.5 -20.5v-429q0 -84 -64.5 -142t-164.5 -58q-93 0 -148 38.5
t-55 82.5q0 21 12.5 33.5t30.5 12.5t29.5 -11t11.5 -28t-11 -27.5t-29 -9.5q38 -61 151 -61q82 0 135 49t53 121v151q-24 -59 -73 -88.5t-112 -29.5q-93 0 -156.5 66.5t-63.5 165.5q0 100 63.5 166t156.5 66q63 0 113 -29t76 -87zM272 79q78 0 125.5 54t47.5 142t-47.5 142
t-125.5 54q-79 0 -129 -54t-50 -142q0 -87 50 -141.5t129 -54.5z" />
    <glyph glyph-name="gdotaccent.ss06" horiz-adv-x="599" 
d="M300 585q-19 0 -31.5 12t-12.5 31t12.5 31.5t31.5 12.5q18 0 30 -12.5t12 -31.5t-12 -31t-30 -12zM470 500h104v-35h-54q-15 0 -20.5 -5.5t-5.5 -20.5v-429q0 -84 -64.5 -142t-164.5 -58q-93 0 -148 38.5t-55 82.5q0 21 12.5 33.5t30.5 12.5t29.5 -11t11.5 -28t-11 -27.5
t-29 -9.5q38 -61 151 -61q82 0 135 49t53 121v151q-24 -59 -73 -88.5t-112 -29.5q-93 0 -156.5 66.5t-63.5 165.5q0 100 63.5 166t156.5 66q63 0 113 -29t76 -87zM272 79q78 0 125.5 54t47.5 142t-47.5 142t-125.5 54q-79 0 -129 -54t-50 -142q0 -87 50 -141.5t129 -54.5z
" />
    <glyph glyph-name="T_h" horiz-adv-x="1252" 
d="M1166 35h59v-35h-209v35h49q15 0 20.5 5.5t5.5 20.5v284q0 52 -36 86.5t-89 34.5q-64 0 -111.5 -44.5t-54.5 -126.5v-234q0 -15 5.5 -20.5t20.5 -5.5h49v-35h-209v35h59q15 0 20.5 5.5t5.5 20.5v558q0 15 -5.5 20.5t-20.5 5.5h-318v-584q0 -15 5.5 -20.5t20.5 -5.5h117
v-35h-338v35h117q15 0 20.5 5.5t5.5 20.5v584h-99q-148 0 -169 -93q20 2 35 -10t15 -32q0 -17 -12 -28.5t-31 -11.5t-31.5 14t-12.5 37q0 27 8.5 52t29.5 50.5t64 41t104 15.5h426q80 0 120 27t49 67q-20 -2 -35 9.5t-15 31.5q0 17 12 28.5t31 11.5t31.5 -13.5t12.5 -36.5
q0 -99 -88 -139v-282q25 57 72.5 90t107.5 33q68 0 114 -45t46 -112v-289q0 -15 5.5 -20.5t20.5 -5.5z" />
    <glyph glyph-name="f_b" horiz-adv-x="951" 
d="M681 507q101 0 165.5 -72.5t64.5 -185.5q0 -114 -64.5 -186.5t-165.5 -72.5q-64 0 -118.5 33.5t-83.5 97.5l-20 -121h-25v465h-260v-404q0 -15 5.5 -20.5t20.5 -5.5h79v-35h-239v35h59q15 0 20.5 5.5t5.5 20.5v404h-95v35h69q26 0 26 21v4q0 79 54 132t139 53
q43 0 79.5 -14.5t52.5 -37.5l14 22h19v-305q28 64 81 98t117 34zM434 500v86q-7 -3 -16 -3q-17 0 -29 11t-12 27q0 15 9 25.5t24 11.5q-32 22 -83 22q-71 0 -112 -44.5t-41 -110.5v-25h260zM672 26q83 0 135 61.5t52 161.5q0 99 -52 160.5t-135 61.5q-84 0 -136.5 -61.5
t-52.5 -160.5q0 -100 52 -161.5t137 -61.5z" />
    <glyph glyph-name="f_f_b" horiz-adv-x="1259" 
d="M990 507q101 0 165.5 -72.5t64.5 -185.5q0 -114 -64.5 -186.5t-165.5 -72.5q-64 0 -118.5 33.5t-83.5 97.5l-20 -121h-25v465h-260v-404q0 -15 5.5 -20.5t20.5 -5.5h79v-35h-239v35h59q15 0 20.5 5.5t5.5 20.5v404h-260v-404q0 -15 5.5 -20.5t20.5 -5.5h79v-35h-239v35
h59q15 0 20.5 5.5t5.5 20.5v404h-95v35h69q26 0 26 21v4q0 79 54 132t139 53q58 0 100 -24t42 -59v-6q53 89 167 89q43 0 79.5 -14.5t52.5 -37.5l14 22h19v-305q28 64 81 98t117 34zM434 521v4q0 39 13 69q-13 -11 -29 -11q-17 0 -29 11t-12 27q0 15 9 25.5t24 11.5
q-32 22 -83 22q-71 0 -112 -44.5t-41 -110.5v-25h234q26 0 26 21zM743 500v86q-8 -3 -16 -3q-17 0 -29 11t-12 27q0 15 9 25.5t24 11.5q-32 22 -83 22q-71 0 -112 -44.5t-41 -110.5v-25h260zM981 26q83 0 135 61.5t52 161.5q0 99 -52 160.5t-135 61.5q-84 0 -136.5 -61.5
t-52.5 -160.5q0 -100 52 -161.5t137 -61.5z" />
    <glyph glyph-name="f_f_h" horiz-adv-x="1258" 
d="M1173 35h59v-35h-209v35h49q15 0 20.5 5.5t5.5 20.5v284q0 52 -36 86.5t-89 34.5q-64 0 -111.5 -44.5t-54.5 -126.5v-234q0 -15 5.5 -20.5t20.5 -5.5h49v-35h-209v35h59q15 0 20.5 5.5t5.5 20.5v404h-268v-404q0 -15 5.5 -20.5t20.5 -5.5h79v-35h-239v35h59
q15 0 20.5 5.5t5.5 20.5v404h-267v-404q0 -15 5.5 -20.5t20.5 -5.5h79v-35h-239v35h59q15 0 20.5 5.5t5.5 20.5v404h-95v35h69q26 0 26 21v4q0 79 54 132t139 53q58 0 100 -24t42 -59q0 -18 -12 -31t-30 -13q-17 0 -29 11t-12 27q0 15 9 25.5t24 11.5q-32 22 -83 22
q-71 0 -112 -44.5t-41 -110.5v-25h241q26 0 26 21v4q0 79 54 132t139 53q45 0 81.5 -15t51.5 -39l11 24h29v-296q25 57 72.5 90t107.5 33q68 0 114 -45t46 -112v-289q0 -15 5.5 -20.5t20.5 -5.5zM758 500v90q-12 -7 -24 -7q-17 0 -29 11t-12 27q0 15 9 25.5t24 11.5
q-32 22 -83 22q-71 0 -112 -44.5t-41 -110.5v-25h268z" />
    <glyph glyph-name="f_f_i" horiz-adv-x="921" 
d="M832 35h64v-35h-229v35h64q15 0 20.5 5.5t5.5 20.5v378q0 15 -5.5 20.5t-20.5 5.5h-241v-404q0 -15 5.5 -20.5t20.5 -5.5h79v-35h-239v35h59q15 0 20.5 5.5t5.5 20.5v404h-267v-404q0 -15 5.5 -20.5t20.5 -5.5h79v-35h-239v35h59q15 0 20.5 5.5t5.5 20.5v404h-95v35h69
q26 0 26 21v4q0 79 54 132t139 53q58 0 100 -24t42 -59q0 -18 -12 -31t-30 -13q-17 0 -29 11t-12 27q0 15 9 25.5t24 11.5q-32 22 -83 22q-71 0 -112 -44.5t-41 -110.5v-25h241q26 0 26 21v4q0 79 54 132t139 53q58 0 100 -24t42 -59q0 -18 -12 -31t-30 -13q-17 0 -29 11
t-12 27q0 15 9 25.5t24 11.5q-32 22 -83 22q-71 0 -112 -44.5t-41 -110.5v-25h316v-439q0 -15 5.5 -20.5t20.5 -5.5z" />
    <glyph glyph-name="f_f_j" horiz-adv-x="870" 
d="M807 500v-555q0 -63 -33 -99t-90 -36q-44 0 -73 22t-29 54q0 19 11.5 31.5t29.5 12.5q17 0 28 -10t11 -28q0 -17 -11.5 -26.5t-29.5 -8.5q20 -20 52 -20q85 0 85 108v494q0 15 -5.5 20.5t-20.5 5.5h-242v-404q0 -15 5.5 -20.5t20.5 -5.5h79v-35h-239v35h59q15 0 20.5 5.5
t5.5 20.5v404h-267v-404q0 -15 5.5 -20.5t20.5 -5.5h79v-35h-239v35h59q15 0 20.5 5.5t5.5 20.5v404h-95v35h69q26 0 26 21v4q0 79 54 132t139 53q58 0 100 -24t42 -59q0 -18 -12 -31t-30 -13q-17 0 -29 11t-12 27q0 15 9 25.5t24 11.5q-32 22 -83 22q-71 0 -112 -44.5
t-41 -110.5v-25h241q26 0 26 21v4q0 79 54 132t139 53q58 0 100 -24t42 -59q0 -18 -12 -31t-30 -13q-17 0 -29 11t-12 27q0 15 9 25.5t24 11.5q-32 22 -83 22q-71 0 -112 -44.5t-41 -110.5v-25h317z" />
    <glyph glyph-name="f_f_k" horiz-adv-x="1228" 
d="M807 61q0 -15 5.5 -20.5t20.5 -5.5h59v-35h-214v35h54q15 0 20.5 5.5t5.5 20.5v404h-268v-404q0 -15 5.5 -20.5t20.5 -5.5h79v-35h-239v35h59q15 0 20.5 5.5t5.5 20.5v404h-267v-404q0 -15 5.5 -20.5t20.5 -5.5h79v-35h-239v35h59q15 0 20.5 5.5t5.5 20.5v404h-95v35h69
q26 0 26 21v4q0 79 54 132t139 53q58 0 100 -24t42 -59q0 -18 -12 -31t-30 -13q-17 0 -29 11t-12 27q0 15 9 25.5t24 11.5q-32 22 -83 22q-71 0 -112 -44.5t-41 -110.5v-25h241q26 0 26 21v4q0 79 54 132t139 53q45 0 81.5 -15t51.5 -39l11 24h29v-619zM758 500v90
q-12 -7 -24 -7q-17 0 -29 11t-12 27q0 15 9 25.5t24 11.5q-32 22 -83 22q-71 0 -112 -44.5t-41 -110.5v-25h268zM1184 35h25v-35h-223v35h62q34 0 11 26l-200 215l186 167q10 9 7 15.5t-16 6.5h-90v35h243v-35h-41q-31 0 -63 -29l-173 -155l199 -214q30 -32 73 -32z" />
    <glyph glyph-name="f_f_l" horiz-adv-x="931" 
d="M832 35h69v-35h-239v35h69q15 0 20.5 5.5t5.5 20.5v404h-267v-404q0 -15 5.5 -20.5t20.5 -5.5h79v-35h-239v35h59q15 0 20.5 5.5t5.5 20.5v404h-267v-404q0 -15 5.5 -20.5t20.5 -5.5h79v-35h-239v35h59q15 0 20.5 5.5t5.5 20.5v404h-95v35h69q26 0 26 21v4q0 79 54 132
t139 53q58 0 100 -24t42 -59q0 -18 -12 -31t-30 -13q-17 0 -29 11t-12 27q0 15 9 25.5t24 11.5q-32 22 -83 22q-71 0 -112 -44.5t-41 -110.5v-25h241q26 0 26 21v4q0 79 54 132t139 53q44 0 80.5 -14.5t52.5 -38.5l10 23h29v-619q0 -15 5.5 -20.5t20.5 -5.5zM757 500v90
q-8 -7 -23 -7q-17 0 -29 11t-12 27q0 15 9 25.5t24 11.5q-32 22 -83 22q-71 0 -112 -44.5t-41 -110.5v-25h267z" />
    <glyph glyph-name="f_f_t" horiz-adv-x="1017" 
d="M974 95l28 -9q-11 -43 -42.5 -69.5t-73.5 -26.5q-50 0 -84.5 32t-34.5 78v365h-257v-404q0 -15 5.5 -20.5t20.5 -5.5h79v-35h-239v35h59q15 0 20.5 5.5t5.5 20.5v404h-287v-404q0 -15 5.5 -20.5t20.5 -5.5h79v-35h-239v35h59q15 0 20.5 5.5t5.5 20.5v404h-95v35h69
q15 0 20.5 5.5t5.5 20.5v19q0 65 41.5 105t106.5 40q47 0 80.5 -22t33.5 -54q0 -20 -11.5 -33t-30.5 -13q-17 0 -28.5 11t-11.5 27q0 17 10.5 27.5t29.5 9.5q-25 17 -64 17q-50 0 -78.5 -31.5t-28.5 -83.5v-45h261q15 0 20.5 5.5t5.5 20.5v19q0 65 41.5 105t106.5 40
q47 0 80.5 -22t33.5 -54q0 -20 -11.5 -33t-30.5 -13q-17 0 -28.5 11t-11.5 27q0 17 10.5 27.5t29.5 9.5q-25 17 -64 17q-50 0 -78.5 -31.5t-28.5 -83.5v-45h185q46 0 64 19.5t37 80.5h20v-100h164v-35h-164v-365q0 -31 22.5 -52.5t54.5 -21.5q29 0 51 19t30 50z" />
    <glyph glyph-name="f_h" horiz-adv-x="942" 
d="M857 35h59v-35h-209v35h49q15 0 20.5 5.5t5.5 20.5v284q0 52 -36 86.5t-89 34.5q-64 0 -111.5 -44.5t-54.5 -126.5v-234q0 -15 5.5 -20.5t20.5 -5.5h49v-35h-209v35h59q15 0 20.5 5.5t5.5 20.5v404h-268v-404q0 -15 5.5 -20.5t20.5 -5.5h79v-35h-239v35h59q15 0 20.5 5.5
t5.5 20.5v404h-95v35h69q26 0 26 21v4q0 79 54 132t139 53q45 0 81.5 -15t51.5 -39l11 24h29v-296q25 57 72.5 90t107.5 33q68 0 114 -45t46 -112v-289q0 -15 5.5 -20.5t20.5 -5.5zM442 500v90q-12 -7 -24 -7q-17 0 -29 11t-12 27q0 15 9 25.5t24 11.5q-32 22 -83 22
q-71 0 -112 -44.5t-41 -110.5v-25h268z" />
    <glyph glyph-name="f_j" horiz-adv-x="554" 
d="M491 500v-555q0 -63 -33 -99t-90 -36q-44 0 -73 22t-29 54q0 19 11.5 31.5t29.5 12.5q17 0 28 -10t11 -28q0 -17 -11.5 -26.5t-29.5 -8.5q20 -20 52 -20q85 0 85 108v494q0 15 -5.5 20.5t-20.5 5.5h-242v-404q0 -15 5.5 -20.5t20.5 -5.5h79v-35h-239v35h59q15 0 20.5 5.5
t5.5 20.5v404h-95v35h69q26 0 26 21v4q0 79 54 132t139 53q58 0 100 -24t42 -59q0 -18 -12 -31t-30 -13q-17 0 -29 11t-12 27q0 15 9 25.5t24 11.5q-32 22 -83 22q-71 0 -112 -44.5t-41 -110.5v-25h317z" />
    <glyph glyph-name="f_k" horiz-adv-x="912" 
d="M491 61q0 -15 5.5 -20.5t20.5 -5.5h59v-35h-214v35h54q15 0 20.5 5.5t5.5 20.5v404h-268v-404q0 -15 5.5 -20.5t20.5 -5.5h79v-35h-239v35h59q15 0 20.5 5.5t5.5 20.5v404h-95v35h69q26 0 26 21v4q0 79 54 132t139 53q45 0 81.5 -15t51.5 -39l11 24h29v-619zM442 500v90
q-12 -7 -24 -7q-17 0 -29 11t-12 27q0 15 9 25.5t24 11.5q-32 22 -83 22q-71 0 -112 -44.5t-41 -110.5v-25h268zM868 35h25v-35h-223v35h62q34 0 11 26l-200 215l186 167q10 9 7 15.5t-16 6.5h-90v35h243v-35h-41q-31 0 -63 -29l-173 -155l199 -214q30 -32 73 -32z" />
    <glyph glyph-name="f_t" horiz-adv-x="681" 
d="M638 95l28 -9q-11 -43 -42.5 -69.5t-73.5 -26.5q-50 0 -84.5 32t-34.5 78v365h-257v-404q0 -15 5.5 -20.5t20.5 -5.5h79v-35h-239v35h59q15 0 20.5 5.5t5.5 20.5v404h-95v35h69q15 0 20.5 5.5t5.5 20.5v19q0 65 41.5 105t106.5 40q47 0 80.5 -22t33.5 -54
q0 -20 -11.5 -33t-30.5 -13q-17 0 -28.5 11t-11.5 27q0 17 10.5 27.5t29.5 9.5q-25 17 -64 17q-50 0 -78.5 -31.5t-28.5 -83.5v-45h185q46 0 64 19.5t37 80.5h20v-100h164v-35h-164v-365q0 -31 22.5 -52.5t54.5 -21.5q29 0 51 19t30 50z" />
    <glyph glyph-name="f_t_y" horiz-adv-x="1258" 
d="M1069 500h182v-35h-30q-34 0 -48 -32l-207 -476q-34 -77 -71.5 -112t-90.5 -35q-41 0 -70 22t-29 54q0 20 12 33t31 13q17 0 28.5 -11t11.5 -28q0 -16 -10 -26.5t-26 -11.5q20 -15 47 -15q44 0 74 28.5t58 94.5l20 46l-191 429q-13 27 -41 27h-219v-365q0 -31 22.5 -52.5
t54.5 -21.5q29 0 51 19t30 50l28 -9q-11 -43 -42.5 -69.5t-73.5 -26.5q-50 0 -84.5 32t-34.5 78v365h-277v-404q0 -15 5.5 -20.5t20.5 -5.5h79v-35h-239v35h59q15 0 20.5 5.5t5.5 20.5v404h-95v35h69q15 0 20.5 5.5t5.5 20.5v19q0 65 41.5 105t106.5 40q47 0 80.5 -22
t33.5 -54q0 -20 -11.5 -33t-30.5 -13q-17 0 -28.5 11t-11.5 27q0 17 10.5 27.5t29.5 9.5q-25 17 -64 17q-50 0 -78.5 -31.5t-28.5 -83.5v-45h205q46 0 64 19.5t37 80.5h20v-100h415v-35h-82q-30 0 -20 -25l162 -375l160 371q13 29 -17 29h-49v35z" />
    <glyph glyph-name="t_y" horiz-adv-x="907" 
d="M718 500h182v-35h-30q-34 0 -48 -32l-207 -476q-34 -77 -71.5 -112t-90.5 -35q-41 0 -70 22t-29 54q0 20 12 33t31 13q17 0 28.5 -11t11.5 -28q0 -16 -10 -26.5t-26 -11.5q20 -15 47 -15q44 0 74 28.5t58 94.5l20 46l-191 429q-13 27 -41 27h-229v-365q0 -31 22.5 -52.5
t54.5 -21.5q29 0 51 19t30 50l28 -9q-11 -43 -42.5 -69.5t-73.5 -26.5q-50 0 -84.5 32t-34.5 78v365h-80v35h8q46 0 64 19.5t37 80.5h20v-100h425v-35h-82q-30 0 -20 -25l162 -375l160 371q13 29 -17 29h-49v35z" />
    <glyph glyph-name="a.smcp" 
d="M566 33h30v-33h-206v33h64q28 0 17 24l-44 100h-272l-44 -100q-10 -24 17 -24h68v-33h-196v33h31q27 0 39 26l209 471h36l213 -472q11 -25 38 -25zM168 187h245l-123 277z" />
    <glyph glyph-name="aacute.smcp" 
d="M435 718q-33 -40 -130 -125l-16 14q84 133 99 150q22 25 45 6t2 -45zM566 33h30v-33h-206v33h64q28 0 17 24l-44 100h-272l-44 -100q-10 -24 17 -24h68v-33h-196v33h31q27 0 39 26l209 471h36l213 -472q11 -25 38 -25zM168 187h245l-123 277z" />
    <glyph glyph-name="abreve.smcp" 
d="M393 746l29 -4q-6 -60 -38.5 -92.5t-82.5 -32.5t-83 32.5t-39 92.5l30 4q19 -85 92 -85t92 85zM566 33h30v-33h-206v33h64q28 0 17 24l-44 100h-272l-44 -100q-10 -24 17 -24h68v-33h-196v33h31q27 0 39 26l209 471h36l213 -472q11 -25 38 -25zM168 187h245l-123 277z
" />
    <glyph glyph-name="acircumflex.smcp" 
d="M193 596l-17 14l104 140q11 16 21 16q11 0 21 -16l104 -140l-16 -14l-109 104zM566 33h30v-33h-206v33h64q28 0 17 24l-44 100h-272l-44 -100q-10 -24 17 -24h68v-33h-196v33h31q27 0 39 26l209 471h36l213 -472q11 -25 38 -25zM168 187h245l-123 277z" />
    <glyph glyph-name="adieresis.smcp" 
d="M207 615q-19 0 -31.5 12t-12.5 31t12.5 31.5t31.5 12.5q18 0 30 -12.5t12 -31.5t-12 -31t-30 -12zM397 615q-19 0 -31.5 12t-12.5 31t12.5 31.5t31.5 12.5q18 0 30 -12.5t12 -31.5t-12 -31t-30 -12zM566 33h30v-33h-206v33h64q28 0 17 24l-44 100h-272l-44 -100
q-10 -24 17 -24h68v-33h-196v33h31q27 0 39 26l209 471h36l213 -472q11 -25 38 -25zM168 187h245l-123 277z" />
    <glyph glyph-name="agrave.smcp" 
d="M357 607l-16 -14q-97 85 -130 125q-21 26 2 45t45 -6q15 -17 99 -150zM566 33h30v-33h-206v33h64q28 0 17 24l-44 100h-272l-44 -100q-10 -24 17 -24h68v-33h-196v33h31q27 0 39 26l209 471h36l213 -472q11 -25 38 -25zM168 187h245l-123 277z" />
    <glyph glyph-name="amacron.smcp" 
d="M174 672h255v-41h-255v41zM566 33h30v-33h-206v33h64q28 0 17 24l-44 100h-272l-44 -100q-10 -24 17 -24h68v-33h-196v33h31q27 0 39 26l209 471h36l213 -472q11 -25 38 -25zM168 187h245l-123 277z" />
    <glyph glyph-name="aogonek.smcp" 
d="M570 0q-62 0 -101 -28t-39 -66q0 -28 18 -43.5t48 -15.5q26 0 66 20l12 -25q-45 -32 -89 -32q-43 0 -72.5 23.5t-29.5 62.5q0 32 22 59.5t60 44.5h-75v33h64q28 0 17 24l-44 100h-272l-44 -100q-10 -24 17 -24h68v-33h-196v33h31q27 0 39 26l209 471h36l213 -472
q11 -25 38 -25h30v-33h-26zM168 187h245l-123 277z" />
    <glyph glyph-name="aring.smcp" 
d="M301 588q-42 0 -70 27t-28 67t28 67t70 27q41 0 69 -27t28 -67t-28 -67t-69 -27zM301 619q27 0 45 17.5t18 45.5t-18 46.5t-45 18.5t-45.5 -18.5t-18.5 -46.5q0 -27 18.5 -45t45.5 -18zM566 33h30v-33h-206v33h64q28 0 17 24l-44 100h-272l-44 -100q-10 -24 17 -24h68
v-33h-196v33h31q27 0 39 26l209 471h36l213 -472q11 -25 38 -25zM168 187h245l-123 277z" />
    <glyph glyph-name="atilde.smcp" 
d="M448 692q-14 -89 -78 -89q-31 0 -75 33t-67 33q-21 0 -31.5 -14t-17.5 -41l-27 9q14 87 79 87q33 0 78 -33t66 -33q32 0 46 53zM566 33h30v-33h-206v33h64q28 0 17 24l-44 100h-272l-44 -100q-10 -24 17 -24h68v-33h-196v33h31q27 0 39 26l209 471h36l213 -472
q11 -25 38 -25zM168 187h245l-123 277z" />
    <glyph glyph-name="ae.smcp" horiz-adv-x="826" 
d="M729 130h32v-130h-451v33h65q13 0 16.5 4t3.5 16v102h-218l-67 -98q-16 -24 17 -24h67v-33h-194v33h31q11 0 18 4t10 7.5t12 15.5l290 420q5 9 2 14q-2 3 -19 3h-71v33h464v-129h-32q-4 60 -11 73q-14 23 -63 23h-186v-248h134q6 0 11 1t9 2t7 4t5 4.5t4 6.5t3 7t1.5 8.5
t1 9t1 11t0.5 11.5h26v-164h-26q0 3 -1 14t-1 13.5t-1.5 10.5t-3 10t-4.5 7t-7.5 6.5t-10.5 3t-14 1.5h-134v-183h208q26 0 41 3.5t22.5 19t8.5 24t3 39.5q1 7 1 11zM198 186h197v288z" />
    <glyph glyph-name="b.smcp" horiz-adv-x="526" 
d="M337 275q68 -8 108.5 -44t40.5 -93q0 -62 -49 -100t-134 -38h-268v33h63q12 0 16 4.5t4 15.5v424q0 12 -4 16t-16 4h-63v33h250q87 0 135 -34t48 -92q0 -51 -35.5 -84.5t-95.5 -44.5zM167 497v-208h105q63 0 104 32t41 80q0 45 -36.5 70.5t-101.5 25.5h-112zM294 33
q66 0 103.5 29t37.5 78q0 51 -40 84t-104 33h-124v-224h127z" />
    <glyph glyph-name="c.smcp" horiz-adv-x="617" 
d="M536 183l31 -8q-22 -87 -83 -135t-151 -48q-121 0 -199.5 78.5t-78.5 194.5q0 117 79.5 195t200.5 78q103 0 167 -54.5t64 -108.5q0 -22 -11.5 -33t-29.5 -11q-17 0 -27.5 10t-10.5 26q0 32 35 35q-17 40 -62.5 72t-118.5 32q-102 0 -166.5 -66t-64.5 -173
q0 -106 63.5 -173t162.5 -67q76 0 127 42t73 114z" />
    <glyph glyph-name="cacute.smcp" horiz-adv-x="617" 
d="M469 718q-33 -40 -130 -125l-16 14q84 133 99 150q22 25 45 6t2 -45zM536 183l31 -8q-22 -87 -83 -135t-151 -48q-121 0 -199.5 78.5t-78.5 194.5q0 117 79.5 195t200.5 78q103 0 167 -54.5t64 -108.5q0 -22 -11.5 -33t-29.5 -11q-17 0 -27.5 10t-10.5 26q0 32 35 35
q-17 40 -62.5 72t-118.5 32q-102 0 -166.5 -66t-64.5 -173q0 -106 63.5 -173t162.5 -67q76 0 127 42t73 114z" />
    <glyph glyph-name="ccaron.smcp" horiz-adv-x="617" 
d="M335 596q-10 0 -21 16l-104 140l17 14l108 -104l109 104l16 -14l-104 -140q-10 -16 -21 -16zM536 183l31 -8q-22 -87 -83 -135t-151 -48q-121 0 -199.5 78.5t-78.5 194.5q0 117 79.5 195t200.5 78q103 0 167 -54.5t64 -108.5q0 -22 -11.5 -33t-29.5 -11q-17 0 -27.5 10
t-10.5 26q0 32 35 35q-17 40 -62.5 72t-118.5 32q-102 0 -166.5 -66t-64.5 -173q0 -106 63.5 -173t162.5 -67q76 0 127 42t73 114z" />
    <glyph glyph-name="ccedilla.smcp" horiz-adv-x="617" 
d="M333 -8q-16 0 -24 1l-34 -65q52 2 83.5 -20.5t31.5 -57.5t-29.5 -58t-74.5 -23q-52 0 -97 30l13 25q40 -25 81 -25q29 0 47 14t18 37q0 30 -31 43t-82 7l-9 13l53 84q-100 17 -162 91.5t-62 176.5q0 117 79.5 195t200.5 78q103 0 167 -54.5t64 -108.5q0 -22 -11.5 -33
t-29.5 -11q-17 0 -27.5 10t-10.5 26q0 32 35 35q-17 40 -62.5 72t-118.5 32q-102 0 -166.5 -66t-64.5 -173q0 -106 63.5 -173t162.5 -67q76 0 127 42t73 114l31 -8q-22 -87 -83 -135t-151 -48z" />
    <glyph glyph-name="cdotaccent.smcp" horiz-adv-x="617" 
d="M335 615q-19 0 -31.5 12t-12.5 31t12.5 31.5t31.5 12.5q18 0 30 -12.5t12 -31.5t-12 -31t-30 -12zM536 183l31 -8q-22 -87 -83 -135t-151 -48q-121 0 -199.5 78.5t-78.5 194.5q0 117 79.5 195t200.5 78q103 0 167 -54.5t64 -108.5q0 -22 -11.5 -33t-29.5 -11
q-17 0 -27.5 10t-10.5 26q0 32 35 35q-17 40 -62.5 72t-118.5 32q-102 0 -166.5 -66t-64.5 -173q0 -106 63.5 -173t162.5 -67q76 0 127 42t73 114z" />
    <glyph glyph-name="d.smcp" horiz-adv-x="624" 
d="M282 530q123 0 205 -75t82 -190t-82.5 -190t-204.5 -75h-247v33h63q12 0 16 4.5t4 15.5v424q0 12 -4 16t-16 4h-63v33h247zM282 33q102 0 167 65.5t65 166.5t-65 166.5t-167 65.5h-115v-464h115z" />
    <glyph glyph-name="eth.smcp" horiz-adv-x="624" 
d="M282 530q123 0 205 -75t82 -190t-82.5 -190t-204.5 -75h-247v33h63q12 0 16 4.5t4 15.5v192h-79v32h79v200q0 12 -4 16t-16 4h-63v33h247zM282 33q102 0 167 65.5t65 166.5t-65 166.5t-167 65.5h-115v-220h178v-32h-178v-212h115z" />
    <glyph glyph-name="dcaron.smcp" horiz-adv-x="624" 
d="M205 766l108 -104l109 104l16 -14l-104 -140q-10 -16 -21 -16q-10 0 -21 16l-104 140zM282 530q123 0 205 -75t82 -190t-82.5 -190t-204.5 -75h-247v33h63q12 0 16 4.5t4 15.5v424q0 12 -4 16t-16 4h-63v33h247zM282 33q102 0 167 65.5t65 166.5t-65 166.5t-167 65.5
h-115v-464h115z" />
    <glyph glyph-name="dcroat.smcp" horiz-adv-x="624" 
d="M282 530q123 0 205 -75t82 -190t-82.5 -190t-204.5 -75h-247v33h63q12 0 16 4.5t4 15.5v192h-79v32h79v200q0 12 -4 16t-16 4h-63v33h247zM282 33q102 0 167 65.5t65 166.5t-65 166.5t-167 65.5h-115v-220h178v-32h-178v-212h115z" />
    <glyph glyph-name="e.smcp" horiz-adv-x="547" 
d="M448 131h34v-131h-447v33h63q12 0 16 4.5t4 15.5v424q0 12 -4 16t-16 4h-63v33h423v-129h-34q-4 60 -11 72q-14 24 -63 24h-183v-249h129q6 0 11.5 1t9.5 2t7 4l5 5t4 7t2.5 7t1.5 9t1.5 9.5t1 11t0.5 11.5h29v-166h-29q0 4 -0.5 13t-1 12t-1.5 10t-2 9.5t-3.5 7.5
t-5.5 7t-7 4t-10 3t-13 1h-129v-183h206q55 0 67 31q5 13 8 67z" />
    <glyph glyph-name="eacute.smcp" horiz-adv-x="547" 
d="M260 607q84 133 99 150q22 25 45 6t2 -45q-33 -40 -130 -125zM448 131h34v-131h-447v33h63q12 0 16 4.5t4 15.5v424q0 12 -4 16t-16 4h-63v33h423v-129h-34q-4 60 -11 72q-14 24 -63 24h-183v-249h129q6 0 11.5 1t9.5 2t7 4l5 5t4 7t2.5 7t1.5 9t1.5 9.5t1 11t0.5 11.5
h29v-166h-29q0 4 -0.5 13t-1 12t-1.5 10t-2 9.5t-3.5 7.5t-5.5 7t-7 4t-10 3t-13 1h-129v-183h206q55 0 67 31q5 13 8 67z" />
    <glyph glyph-name="ecaron.smcp" horiz-adv-x="547" 
d="M164 766l108 -104l109 104l16 -14l-104 -140q-10 -16 -21 -16q-10 0 -21 16l-104 140zM448 131h34v-131h-447v33h63q12 0 16 4.5t4 15.5v424q0 12 -4 16t-16 4h-63v33h423v-129h-34q-4 60 -11 72q-14 24 -63 24h-183v-249h129q6 0 11.5 1t9.5 2t7 4l5 5t4 7t2.5 7t1.5 9
t1.5 9.5t1 11t0.5 11.5h29v-166h-29q0 4 -0.5 13t-1 12t-1.5 10t-2 9.5t-3.5 7.5t-5.5 7t-7 4t-10 3t-13 1h-129v-183h206q55 0 67 31q5 13 8 67z" />
    <glyph glyph-name="ecircumflex.smcp" horiz-adv-x="547" 
d="M164 596l-17 14l104 140q11 16 21 16q11 0 21 -16l104 -140l-16 -14l-109 104zM448 131h34v-131h-447v33h63q12 0 16 4.5t4 15.5v424q0 12 -4 16t-16 4h-63v33h423v-129h-34q-4 60 -11 72q-14 24 -63 24h-183v-249h129q6 0 11.5 1t9.5 2t7 4l5 5t4 7t2.5 7t1.5 9t1.5 9.5
t1 11t0.5 11.5h29v-166h-29q0 4 -0.5 13t-1 12t-1.5 10t-2 9.5t-3.5 7.5t-5.5 7t-7 4t-10 3t-13 1h-129v-183h206q55 0 67 31q5 13 8 67z" />
    <glyph glyph-name="edieresis.smcp" horiz-adv-x="547" 
d="M178 615q-19 0 -31.5 12t-12.5 31t12.5 31.5t31.5 12.5q18 0 30 -12.5t12 -31.5t-12 -31t-30 -12zM368 615q-19 0 -31.5 12t-12.5 31t12.5 31.5t31.5 12.5q18 0 30 -12.5t12 -31.5t-12 -31t-30 -12zM448 131h34v-131h-447v33h63q12 0 16 4.5t4 15.5v424q0 12 -4 16t-16 4
h-63v33h423v-129h-34q-4 60 -11 72q-14 24 -63 24h-183v-249h129q6 0 11.5 1t9.5 2t7 4l5 5t4 7t2.5 7t1.5 9t1.5 9.5t1 11t0.5 11.5h29v-166h-29q0 4 -0.5 13t-1 12t-1.5 10t-2 9.5t-3.5 7.5t-5.5 7t-7 4t-10 3t-13 1h-129v-183h206q55 0 67 31q5 13 8 67z" />
    <glyph glyph-name="edotaccent.smcp" horiz-adv-x="547" 
d="M272 615q-19 0 -31.5 12t-12.5 31t12.5 31.5t31.5 12.5q18 0 30 -12.5t12 -31.5t-12 -31t-30 -12zM448 131h34v-131h-447v33h63q12 0 16 4.5t4 15.5v424q0 12 -4 16t-16 4h-63v33h423v-129h-34q-4 60 -11 72q-14 24 -63 24h-183v-249h129q6 0 11.5 1t9.5 2t7 4l5 5t4 7
t2.5 7t1.5 9t1.5 9.5t1 11t0.5 11.5h29v-166h-29q0 4 -0.5 13t-1 12t-1.5 10t-2 9.5t-3.5 7.5t-5.5 7t-7 4t-10 3t-13 1h-129v-183h206q55 0 67 31q5 13 8 67z" />
    <glyph glyph-name="egrave.smcp" horiz-adv-x="547" 
d="M328 607l-16 -14q-97 85 -130 125q-21 26 2 45t45 -6q15 -17 99 -150zM448 131h34v-131h-447v33h63q12 0 16 4.5t4 15.5v424q0 12 -4 16t-16 4h-63v33h423v-129h-34q-4 60 -11 72q-14 24 -63 24h-183v-249h129q6 0 11.5 1t9.5 2t7 4l5 5t4 7t2.5 7t1.5 9t1.5 9.5t1 11
t0.5 11.5h29v-166h-29q0 4 -0.5 13t-1 12t-1.5 10t-2 9.5t-3.5 7.5t-5.5 7t-7 4t-10 3t-13 1h-129v-183h206q55 0 67 31q5 13 8 67z" />
    <glyph glyph-name="emacron.smcp" horiz-adv-x="547" 
d="M145 672h255v-41h-255v41zM448 131h34v-131h-447v33h63q12 0 16 4.5t4 15.5v424q0 12 -4 16t-16 4h-63v33h423v-129h-34q-4 60 -11 72q-14 24 -63 24h-183v-249h129q6 0 11.5 1t9.5 2t7 4l5 5t4 7t2.5 7t1.5 9t1.5 9.5t1 11t0.5 11.5h29v-166h-29q0 4 -0.5 13t-1 12
t-1.5 10t-2 9.5t-3.5 7.5t-5.5 7t-7 4t-10 3t-13 1h-129v-183h206q55 0 67 31q5 13 8 67z" />
    <glyph glyph-name="eogonek.smcp" horiz-adv-x="547" 
d="M475 0q-62 0 -101 -28t-39 -66q0 -28 18 -43.5t48 -15.5q26 0 66 20l12 -25q-45 -32 -89 -32q-43 0 -72.5 23.5t-29.5 62.5q0 32 22 59.5t60 44.5h-335v33h63q12 0 16 4.5t4 15.5v424q0 12 -4 16t-16 4h-63v33h423v-129h-34q-4 60 -11 72q-14 24 -63 24h-183v-249h129
q6 0 11.5 1t9.5 2t7 4l5 5t4 7t2.5 7t1.5 9t1.5 9.5t1 11t0.5 11.5h29v-166h-29q0 4 -0.5 13t-1 12t-1.5 10t-2 9.5t-3.5 7.5t-5.5 7t-7 4t-10 3t-13 1h-129v-183h206q55 0 67 31q5 13 8 67h34v-131h-7z" />
    <glyph glyph-name="f.smcp" horiz-adv-x="518" 
d="M458 530v-129h-33q-4 60 -11 72q-14 24 -63 24h-184v-248h130q8 0 14 1.5t10.5 3t7.5 6t4.5 7t3 10t2 11t1.5 13.5t1 14h30v-166h-30q0 4 -1 14t-1.5 13.5t-2 11t-3 10l-4.5 7.5t-7.5 6.5t-10.5 3t-14 1.5h-130v-163q0 -11 4.5 -15.5t16.5 -4.5h103v-33h-256v33h63
q12 0 16 4.5t4 15.5v424q0 12 -4 16t-16 4h-63v33h423z" />
    <glyph glyph-name="f_b.smcp" horiz-adv-x="1044" 
d="M35 497v33h423v-129h-33q-4 60 -11 72q-14 24 -63 24h-184v-248h130q8 0 14 1.5t10.5 3t7.5 6t4.5 7t3 10t2 11t1.5 13.5t1 14h30v-166h-30q0 4 -1 14t-1.5 13.5t-2 11t-3 10l-4.5 7.5t-7.5 6.5t-10.5 3t-14 1.5h-130v-163q0 -11 4.5 -15.5t16.5 -4.5h103v-33h-256v33h63
q12 0 16 4.5t4 15.5v424q0 12 -4 16t-16 4h-63zM855 275q68 -8 108.5 -44t40.5 -93q0 -62 -49 -100t-134 -38h-268v33h63q12 0 16 4.5t4 15.5v424q0 12 -4 16t-16 4h-63v33h250q87 0 135 -34t48 -92q0 -51 -35.5 -84.5t-95.5 -44.5zM685 497v-208h105q63 0 104 32t41 80
q0 45 -36.5 70.5t-101.5 25.5h-112zM812 33q66 0 103.5 29t37.5 78q0 51 -40 84t-104 33h-124v-224h127z" />
    <glyph glyph-name="f_f.smcp" horiz-adv-x="1036" 
d="M458 530v-129h-33q-4 60 -11 72q-14 24 -63 24h-184v-248h130q8 0 14 1.5t10.5 3t7.5 6t4.5 7t3 10t2 11t1.5 13.5t1 14h30v-166h-30q0 4 -1 14t-1.5 13.5t-2 11t-3 10l-4.5 7.5t-7.5 6.5t-10.5 3t-14 1.5h-130v-163q0 -11 4.5 -15.5t16.5 -4.5h103v-33h-256v33h63
q12 0 16 4.5t4 15.5v424q0 12 -4 16t-16 4h-63v33h423zM976 530v-129h-33q-4 60 -11 72q-14 24 -63 24h-184v-248h130q8 0 14 1.5t10.5 3t7.5 6t4.5 7t3 10t2 11t1.5 13.5t1 14h30v-166h-30q0 4 -1 14t-1.5 13.5t-2 11t-3 10l-4.5 7.5t-7.5 6.5t-10.5 3t-14 1.5h-130v-163
q0 -11 4.5 -15.5t16.5 -4.5h103v-33h-256v33h63q12 0 16 4.5t4 15.5v424q0 12 -4 16t-16 4h-63v33h423z" />
    <glyph glyph-name="f_f_b.smcp" horiz-adv-x="1562" 
d="M35 497v33h423v-129h-33q-4 60 -11 72q-14 24 -63 24h-184v-248h130q8 0 14 1.5t10.5 3t7.5 6t4.5 7t3 10t2 11t1.5 13.5t1 14h30v-166h-30q0 4 -1 14t-1.5 13.5t-2 11t-3 10l-4.5 7.5t-7.5 6.5t-10.5 3t-14 1.5h-130v-163q0 -11 4.5 -15.5t16.5 -4.5h103v-33h-256v33h63
q12 0 16 4.5t4 15.5v424q0 12 -4 16t-16 4h-63zM553 497v33h423v-129h-33q-4 60 -11 72q-14 24 -63 24h-184v-248h130q8 0 14 1.5t10.5 3t7.5 6t4.5 7t3 10t2 11t1.5 13.5t1 14h30v-166h-30q0 4 -1 14t-1.5 13.5t-2 11t-3 10l-4.5 7.5t-7.5 6.5t-10.5 3t-14 1.5h-130v-163
q0 -11 4.5 -15.5t16.5 -4.5h103v-33h-256v33h63q12 0 16 4.5t4 15.5v424q0 12 -4 16t-16 4h-63zM1373 275q68 -8 108.5 -44t40.5 -93q0 -62 -49 -100t-134 -38h-268v33h63q12 0 16 4.5t4 15.5v424q0 12 -4 16t-16 4h-63v33h250q87 0 135 -34t48 -92q0 -51 -35.5 -84.5
t-95.5 -44.5zM1203 497v-208h105q63 0 104 32t41 80q0 45 -36.5 70.5t-101.5 25.5h-112zM1330 33q66 0 103.5 29t37.5 78q0 51 -40 84t-104 33h-124v-224h127z" />
    <glyph glyph-name="f_f_f.smcp" horiz-adv-x="1554" 
d="M458 530v-129h-33q-4 60 -11 72q-14 24 -63 24h-184v-248h130q8 0 14 1.5t10.5 3t7.5 6t4.5 7t3 10t2 11t1.5 13.5t1 14h30v-166h-30q0 4 -1 14t-1.5 13.5t-2 11t-3 10l-4.5 7.5t-7.5 6.5t-10.5 3t-14 1.5h-130v-163q0 -11 4.5 -15.5t16.5 -4.5h103v-33h-256v33h63
q12 0 16 4.5t4 15.5v424q0 12 -4 16t-16 4h-63v33h423zM976 530v-129h-33q-4 60 -11 72q-14 24 -63 24h-184v-248h130q8 0 14 1.5t10.5 3t7.5 6t4.5 7t3 10t2 11t1.5 13.5t1 14h30v-166h-30q0 4 -1 14t-1.5 13.5t-2 11t-3 10l-4.5 7.5t-7.5 6.5t-10.5 3t-14 1.5h-130v-163
q0 -11 4.5 -15.5t16.5 -4.5h103v-33h-256v33h63q12 0 16 4.5t4 15.5v424q0 12 -4 16t-16 4h-63v33h423zM1494 530v-129h-33q-4 60 -11 72q-14 24 -63 24h-184v-248h130q8 0 14 1.5t10.5 3t7.5 6t4.5 7t3 10t2 11t1.5 13.5t1 14h30v-166h-30q0 4 -1 14t-1.5 13.5t-2 11t-3 10
l-4.5 7.5t-7.5 6.5t-10.5 3t-14 1.5h-130v-163q0 -11 4.5 -15.5t16.5 -4.5h103v-33h-256v33h63q12 0 16 4.5t4 15.5v424q0 12 -4 16t-16 4h-63v33h423z" />
    <glyph glyph-name="f_f_h.smcp" horiz-adv-x="1670" 
d="M35 497v33h423v-129h-33q-4 60 -11 72q-14 24 -63 24h-184v-248h130q8 0 14 1.5t10.5 3t7.5 6t4.5 7t3 10t2 11t1.5 13.5t1 14h30v-166h-30q0 4 -1 14t-1.5 13.5t-2 11t-3 10l-4.5 7.5t-7.5 6.5t-10.5 3t-14 1.5h-130v-163q0 -11 4.5 -15.5t16.5 -4.5h103v-33h-256v33h63
q12 0 16 4.5t4 15.5v424q0 12 -4 16t-16 4h-63zM553 497v33h423v-129h-33q-4 60 -11 72q-14 24 -63 24h-184v-248h130q8 0 14 1.5t10.5 3t7.5 6t4.5 7t3 10t2 11t1.5 13.5t1 14h30v-166h-30q0 4 -1 14t-1.5 13.5t-2 11t-3 10l-4.5 7.5t-7.5 6.5t-10.5 3t-14 1.5h-130v-163
q0 -11 4.5 -15.5t16.5 -4.5h103v-33h-256v33h63q12 0 16 4.5t4 15.5v424q0 12 -4 16t-16 4h-63zM1573 497q-13 0 -17 -4t-4 -15v-425q0 -12 4 -16t17 -4h62v-33h-207v33h54q13 0 17 4t4 16v164h-300v-164q0 -12 4 -16t17 -4h55v-33h-208v33h63q12 0 16 4t4 16v425
q0 11 -4 15t-16 4h-63v33h208v-33h-55q-13 0 -17 -4t-4 -15v-228h300v228q0 11 -4 15t-17 4h-54v33h207v-33h-62z" />
    <glyph glyph-name="f_f_i.smcp" horiz-adv-x="1377" 
d="M458 530v-129h-33q-4 60 -11 72q-14 24 -63 24h-184v-248h130q8 0 14 1.5t10.5 3t7.5 6t4.5 7t3 10t2 11t1.5 13.5t1 14h30v-166h-30q0 4 -1 14t-1.5 13.5t-2 11t-3 10l-4.5 7.5t-7.5 6.5t-10.5 3t-14 1.5h-130v-163q0 -11 4.5 -15.5t16.5 -4.5h103v-33h-256v33h63
q12 0 16 4.5t4 15.5v424q0 12 -4 16t-16 4h-63v33h423zM976 530v-129h-33q-4 60 -11 72q-14 24 -63 24h-184v-248h130q8 0 14 1.5t10.5 3t7.5 6t4.5 7t3 10t2 11t1.5 13.5t1 14h30v-166h-30q0 4 -1 14t-1.5 13.5t-2 11t-3 10l-4.5 7.5t-7.5 6.5t-10.5 3t-14 1.5h-130v-163
q0 -11 4.5 -15.5t16.5 -4.5h103v-33h-256v33h63q12 0 16 4.5t4 15.5v424q0 12 -4 16t-16 4h-63v33h423zM1253 497q-13 0 -17.5 -4t-4.5 -16v-424q0 -11 4.5 -15.5t17.5 -4.5h79v-33h-251v33h80q13 0 17 4.5t4 15.5v424q0 12 -4 16t-17 4h-80v33h251v-33h-79z" />
    <glyph glyph-name="f_f_j.smcp" horiz-adv-x="1423" 
d="M35 497v33h423v-129h-33q-4 60 -11 72q-14 24 -63 24h-184v-248h130q8 0 14 1.5t10.5 3t7.5 6t4.5 7t3 10t2 11t1.5 13.5t1 14h30v-166h-30q0 4 -1 14t-1.5 13.5t-2 11t-3 10l-4.5 7.5t-7.5 6.5t-10.5 3t-14 1.5h-130v-163q0 -11 4.5 -15.5t16.5 -4.5h103v-33h-256v33h63
q12 0 16 4.5t4 15.5v424q0 12 -4 16t-16 4h-63zM553 497v33h423v-129h-33q-4 60 -11 72q-14 24 -63 24h-184v-248h130q8 0 14 1.5t10.5 3t7.5 6t4.5 7t3 10t2 11t1.5 13.5t1 14h30v-166h-30q0 4 -1 14t-1.5 13.5t-2 11t-3 10l-4.5 7.5t-7.5 6.5t-10.5 3t-14 1.5h-130v-163
q0 -11 4.5 -15.5t16.5 -4.5h103v-33h-256v33h63q12 0 16 4.5t4 15.5v424q0 12 -4 16t-16 4h-63zM1109 530h299v-33h-72q-13 0 -17 -4t-4 -15v-341q0 -63 -45 -104t-114 -41q-63 0 -103 30t-40 72q0 18 10.5 29.5t26.5 11.5q15 0 25 -9t10 -22q0 -16 -10 -25.5t-25 -9.5
q7 -19 33 -31.5t63 -12.5q53 0 86 31.5t33 80.5v341q0 11 -4 15t-17 4h-135v33z" />
    <glyph glyph-name="f_f_k.smcp" horiz-adv-x="1653" 
d="M458 530v-129h-33q-4 60 -11 72q-14 24 -63 24h-184v-248h130q8 0 14 1.5t10.5 3t7.5 6t4.5 7t3 10t2 11t1.5 13.5t1 14h30v-166h-30q0 4 -1 14t-1.5 13.5t-2 11t-3 10l-4.5 7.5t-7.5 6.5t-10.5 3t-14 1.5h-130v-163q0 -11 4.5 -15.5t16.5 -4.5h103v-33h-256v33h63
q12 0 16 4.5t4 15.5v424q0 12 -4 16t-16 4h-63v33h423zM976 530v-129h-33q-4 60 -11 72q-14 24 -63 24h-184v-248h130q8 0 14 1.5t10.5 3t7.5 6t4.5 7t3 10t2 11t1.5 13.5t1 14h30v-166h-30q0 4 -1 14t-1.5 13.5t-2 11t-3 10l-4.5 7.5t-7.5 6.5t-10.5 3t-14 1.5h-130v-163
q0 -11 4.5 -15.5t16.5 -4.5h103v-33h-256v33h63q12 0 16 4.5t4 15.5v424q0 12 -4 16t-16 4h-63v33h423zM1071 0v33h63q12 0 16 4t4 16v425q0 11 -4 15t-16 4h-63v33h207v-33h-54q-12 0 -16.5 -4t-4.5 -15v-425q0 -12 4.5 -16t16.5 -4h52v-33h-205zM1371 0v33h78q23 0 5 20
l-191 206l217 220q18 18 -7 18h-89v33h231v-33h-34q-35 0 -59 -22l-204 -206l191 -208q25 -28 63 -28h61v-33h-262z" />
    <glyph glyph-name="f_f_l.smcp" horiz-adv-x="1551" 
d="M458 530v-129h-33q-4 60 -11 72q-14 24 -63 24h-184v-248h130q8 0 14 1.5t10.5 3t7.5 6t4.5 7t3 10t2 11t1.5 13.5t1 14h30v-166h-30q0 4 -1 14t-1.5 13.5t-2 11t-3 10l-4.5 7.5t-7.5 6.5t-10.5 3t-14 1.5h-130v-163q0 -11 4.5 -15.5t16.5 -4.5h103v-33h-256v33h63
q12 0 16 4.5t4 15.5v424q0 12 -4 16t-16 4h-63v33h423zM976 530v-129h-33q-4 60 -11 72q-14 24 -63 24h-184v-248h130q8 0 14 1.5t10.5 3t7.5 6t4.5 7t3 10t2 11t1.5 13.5t1 14h30v-166h-30q0 4 -1 14t-1.5 13.5t-2 11t-3 10l-4.5 7.5t-7.5 6.5t-10.5 3t-14 1.5h-130v-163
q0 -11 4.5 -15.5t16.5 -4.5h103v-33h-256v33h63q12 0 16 4.5t4 15.5v424q0 12 -4 16t-16 4h-63v33h423zM1465 153h31v-153h-425v33h63q12 0 16 4t4 16v425q0 11 -4 15t-16 4h-63v33h251v-33h-98q-12 0 -16.5 -4t-4.5 -15v-445h186q53 0 66 33q7 17 10 87z" />
    <glyph glyph-name="f_f_t.smcp" horiz-adv-x="1597" 
d="M458 530v-129h-33q-4 60 -11 72q-14 24 -63 24h-184v-248h130q8 0 14 1.5t10.5 3t7.5 6t4.5 7t3 10t2 11t1.5 13.5t1 14h30v-166h-30q0 4 -1 14t-1.5 13.5t-2 11t-3 10l-4.5 7.5t-7.5 6.5t-10.5 3t-14 1.5h-130v-163q0 -11 4.5 -15.5t16.5 -4.5h103v-33h-256v33h63
q12 0 16 4.5t4 15.5v424q0 12 -4 16t-16 4h-63v33h423zM976 530v-129h-33q-4 60 -11 72q-14 24 -63 24h-184v-248h130q8 0 14 1.5t10.5 3t7.5 6t4.5 7t3 10t2 11t1.5 13.5t1 14h30v-166h-30q0 4 -1 14t-1.5 13.5t-2 11t-3 10l-4.5 7.5t-7.5 6.5t-10.5 3t-14 1.5h-130v-163
q0 -11 4.5 -15.5t16.5 -4.5h103v-33h-256v33h63q12 0 16 4.5t4 15.5v424q0 12 -4 16t-16 4h-63v33h423zM1547 530v-149h-33q-4 74 -11 89q-14 29 -63 29h-99v-446q0 -12 4 -16t16 -4h95v-33h-279v33h94q12 0 16 4t4 16v446h-98q-33 0 -49 -13t-19 -29t-5 -59q-1 -11 -1 -17
h-33v149h461z" />
    <glyph glyph-name="f_h.smcp" horiz-adv-x="1152" 
d="M35 497v33h423v-129h-33q-4 60 -11 72q-14 24 -63 24h-184v-248h130q8 0 14 1.5t10.5 3t7.5 6t4.5 7t3 10t2 11t1.5 13.5t1 14h30v-166h-30q0 4 -1 14t-1.5 13.5t-2 11t-3 10l-4.5 7.5t-7.5 6.5t-10.5 3t-14 1.5h-130v-163q0 -11 4.5 -15.5t16.5 -4.5h103v-33h-256v33h63
q12 0 16 4.5t4 15.5v424q0 12 -4 16t-16 4h-63zM1055 497q-13 0 -17 -4t-4 -15v-425q0 -12 4 -16t17 -4h62v-33h-207v33h54q13 0 17 4t4 16v164h-300v-164q0 -12 4 -16t17 -4h55v-33h-208v33h63q12 0 16 4t4 16v425q0 11 -4 15t-16 4h-63v33h208v-33h-55q-13 0 -17 -4
t-4 -15v-228h300v228q0 11 -4 15t-17 4h-54v33h207v-33h-62z" />
    </font>
</defs>
</svg>
