<?xml version="1.0" standalone="no"?>
<!DOCTYPE svg PUBLIC "-//W3C//DTD SVG 1.1//EN" "http://www.w3.org/Graphics/SVG/1.1/DTD/svg11.dtd" >
<svg xmlns="http://www.w3.org/2000/svg" xmlns:xlink="http://www.w3.org/1999/xlink" version="1.1">
<metadata>
Created by FontForge 20170731 at Tue Oct  4 10:51:06 2016
 By Aleksey,,,
Copyright (c) 2016 by Rene' Bieder. All rights reserved.
</metadata>
<defs>
<font id="Sagona-SemiBold" horiz-adv-x="600" >
  <font-face 
    font-family="Sagona SemiBold"
    font-weight="600"
    font-stretch="normal"
    units-per-em="1000"
    panose-1="2 1 0 4 4 1 1 1 1 3"
    ascent="800"
    descent="-200"
    x-height="505"
    cap-height="680"
    bbox="-235 -285 1824 947.805"
    underline-thickness="50"
    underline-position="-250"
    unicode-range="U+0020-FB02"
  />
<missing-glyph horiz-adv-x="686" 
d="M90 680h506v-680h-506v680zM479 615h-324v-509zM206 65h325v511z" />
    <glyph glyph-name="arrowleft" unicode="&#x3c;&#x2014;" horiz-adv-x="855" 
d="M331 594l27 -19l-92 -202q15 1 88.5 5.5t137.5 4.5h310v-80h-310q-64 0 -137.5 4.5t-88.5 5.5l92 -201l-27 -19l-265 235v30z" />
    <glyph glyph-name="arrowright" unicode="&#x2d;&#x3e;" horiz-adv-x="855" 
d="M537 594l265 -236v-30l-265 -235l-27 19l92 201q-15 -1 -88.5 -5.5t-137.5 -4.5h-310v80h310q64 0 137.5 -4.5t88.5 -5.5l-92 202z" />
    <glyph glyph-name="arrowboth" unicode="&#x3c;&#x2014;&#x3e;" horiz-adv-x="967" 
d="M649 594l265 -236v-30l-265 -235l-27 19l92 201q-35 -1 -90 -5.5t-86 -4.5h-91q-35 0 -91.5 4.5t-89.5 5.5l92 -201l-27 -19l-265 235v30l265 236l27 -19l-92 -202q33 1 89.5 5.5t91.5 4.5h91q31 0 86 -4.5t90 -5.5l-92 202z" />
    <glyph glyph-name="f_f" unicode="ff" horiz-adv-x="805" 
d="M727 609q0 31 23 47h-8q-52 0 -76 -26.5t-24 -91.5v-33h166v-75h-166v-324q0 -31 31 -31h87v-75h-324v75h49q31 0 31 31v324h-272v-324q0 -31 31 -31h87v-75h-324v75h49q31 0 31 31v324h-90v75h59q31 0 31 31v2q0 83 58 129.5t144 46.5q60 0 103.5 -26.5t43.5 -74.5
q0 -32 -18.5 -52t-50.5 -20q-31 0 -50 19t-19 49q0 31 23 47h-8q-52 0 -76 -26.5t-24 -91.5v-33h241q31 0 31 31v2q0 83 58 129.5t144 46.5q60 0 103.5 -26.5t43.5 -74.5q0 -32 -18.5 -52t-50.5 -20q-31 0 -50 19t-19 49z" />
    <glyph glyph-name="f_f_f" unicode="fff" horiz-adv-x="1203" 
d="M1125 609q0 31 23 47h-8q-52 0 -76 -26.5t-24 -91.5v-33h166v-75h-166v-324q0 -31 31 -31h87v-75h-324v75h49q31 0 31 31v324h-272v-324q0 -31 31 -31h87v-75h-324v75h49q31 0 31 31v324h-272v-324q0 -31 31 -31h87v-75h-324v75h49q31 0 31 31v324h-90v75h59q31 0 31 31
v2q0 83 58 129.5t144 46.5q60 0 103.5 -26.5t43.5 -74.5q0 -32 -18.5 -52t-50.5 -20q-31 0 -50 19t-19 49q0 31 23 47h-8q-52 0 -76 -26.5t-24 -91.5v-33h241q31 0 31 31v2q0 83 58 129.5t144 46.5q60 0 103.5 -26.5t43.5 -74.5q0 -32 -18.5 -52t-50.5 -20q-31 0 -50 19
t-19 49q0 31 23 47h-8q-52 0 -76 -26.5t-24 -91.5v-33h241q31 0 31 31v2q0 83 58 129.5t144 46.5q60 0 103.5 -26.5t43.5 -74.5q0 -32 -18.5 -52t-50.5 -20q-31 0 -50 19t-19 49z" />
    <glyph glyph-name=".notdef" horiz-adv-x="686" 
d="M90 680h506v-680h-506v680zM479 615h-324v-509zM206 65h325v511z" />
    <glyph glyph-name=".null" horiz-adv-x="0" 
 />
    <glyph glyph-name="nonmarkingreturn" horiz-adv-x="333" 
 />
    <glyph glyph-name="space" unicode=" " horiz-adv-x="185" 
 />
    <glyph glyph-name="exclam" unicode="!" horiz-adv-x="305" 
d="M128 248q-56 320 -56 360q0 41 22.5 66.5t58.5 25.5q35 0 58 -26t23 -66q0 -37 -56 -360h-50zM153 155q35 0 58 -22.5t23 -57.5t-23 -58.5t-58 -23.5t-58 23t-23 59q0 35 23 57.5t58 22.5z" />
    <glyph glyph-name="quotedbl" unicode="&#x22;" horiz-adv-x="388" 
d="M75 373q-7 46 -17 104.5t-15 92.5t-5 52q0 30 17.5 49t44.5 19q26 0 44 -19t18 -49q0 -19 -5 -52.5t-15.5 -93t-17.5 -103.5h-49zM264 373q-7 46 -17 104.5t-15 92.5t-5 52q0 30 17.5 49t44.5 19q26 0 44 -19t18 -49q0 -19 -5 -52.5t-15.5 -93t-17.5 -103.5h-49z" />
    <glyph glyph-name="numbersign" unicode="#" horiz-adv-x="625" 
d="M625 440h-121l-41 -195h122v-65h-135l-37 -180h-75l37 180h-164l-37 -180h-76l37 180h-115v65h128l41 195h-129v65h142l36 175h76l-36 -175h164l36 175h75l-36 -175h108v-65zM388 245l41 195h-164l-41 -195h164z" />
    <glyph glyph-name="dollar" unicode="$" horiz-adv-x="608" 
d="M565 192q0 -81 -60.5 -135.5t-162.5 -63.5l2 -115h-72l2 115q-109 8 -170 63.5t-61 123.5q0 38 23 60.5t56 22.5q32 0 51 -20t19 -48q0 -26 -18 -43t-44 -21q47 -69 145 -75l5 239q-33 10 -46 14.5t-43 16t-43.5 20.5t-34.5 25t-30.5 32.5t-17 40.5t-7.5 52q0 82 59 133
t157 58l-2 103h72l-2 -104q98 -9 154.5 -57t56.5 -110q0 -36 -20 -54t-53 -18q-32 0 -51.5 17.5t-19.5 47.5q0 49 54 63q-42 46 -122 51l-5 -224q33 -11 47.5 -16t44 -17t44.5 -21.5t36 -26t31 -34t18 -42t8 -53.5zM177 526q0 -37 26.5 -61t75.5 -44l-4 202
q-47 -9 -72.5 -35t-25.5 -62zM340 61q47 10 73.5 37t26.5 65q0 42 -27 67.5t-77 44.5z" />
    <glyph glyph-name="percent" unicode="%" horiz-adv-x="980" 
d="M241 282q-87 0 -144 58.5t-57 145.5t57 145.5t144 58.5q88 0 144.5 -58t56.5 -146t-56.5 -146t-144.5 -58zM494 370q24 51 82 154t75 128q36 51 73 26q34 -25 -3 -77q-18 -25 -94.5 -113t-118.5 -129zM241 332q51 0 78.5 40.5t27.5 113.5q0 74 -27.5 114.5t-78.5 40.5
t-78.5 -40.5t-27.5 -114.5q0 -73 27.5 -113.5t78.5 -40.5zM739 -10q-87 0 -144 58.5t-57 145.5t57 145.5t144 58.5q88 0 144.5 -58t56.5 -146t-56.5 -146t-144.5 -58zM739 40q51 0 78.5 40.5t27.5 113.5q0 74 -27.5 114.5t-78.5 40.5t-78.5 -40.5t-27.5 -114.5
q0 -73 27.5 -113.5t78.5 -40.5zM472 312q-22 -53 -79 -152.5t-78 -129.5q-37 -52 -73 -26q-35 25 2 77q20 26 96.5 113.5t117.5 128.5z" />
    <glyph glyph-name="ampersand" unicode="&#x26;" horiz-adv-x="654" 
d="M649 400q0 -49 -34.5 -73.5t-100.5 -36.5q68 -35 68 -108q0 -81 -79.5 -136.5t-205.5 -55.5q-118 0 -192.5 54t-74.5 139q0 72 51.5 123t135.5 61q-73 10 -113.5 49.5t-40.5 99.5q0 75 60 124.5t158 49.5q97 0 158 -47t61 -112q0 -40 -23 -63.5t-57 -23.5q-35 0 -56.5 22
t-21.5 55q0 54 59 71q-35 27 -88 27q-58 0 -89.5 -30t-31.5 -76q0 -49 37 -80t91 -31h18v-68h-18q-67 0 -107 -39.5t-40 -97.5q0 -60 47.5 -98t120.5 -38q75 0 123 36t48 92q0 32 -15 57.5t-41 36.5q-2 -1 -7 -1t-16.5 -1t-17.5 -1.5t-16.5 -1.5t-16.5 -2t-14 -2.5t-13 -3
t-10.5 -3.5t-8.5 -5t-5 -6q14 7 30 7q25 0 41 -15t16 -39q0 -27 -20.5 -45.5t-49.5 -18.5q-31 0 -51 21t-20 56q0 104 191 118q9 1 32.5 2t34.5 2t27 4t23.5 8t8.5 13q-14 -7 -31 -7q-28 0 -42.5 18t-14.5 42q0 29 20 47t49 18q33 0 53.5 -24.5t20.5 -62.5z" />
    <glyph glyph-name="quotesingle" unicode="'" horiz-adv-x="199" 
d="M75 373q-7 46 -17 104.5t-15 92.5t-5 52q0 30 17.5 49t44.5 19q26 0 44 -19t18 -49q0 -19 -5 -52.5t-15.5 -93t-17.5 -103.5h-49z" />
    <glyph glyph-name="parenleft" unicode="(" horiz-adv-x="387" 
d="M314 -115q-124 63 -197 175t-73 276q0 314 270 451l33 -56q-88 -72 -135.5 -163t-47.5 -232t47 -231t136 -164z" />
    <glyph glyph-name="parenright" unicode=")" horiz-adv-x="367" 
d="M53 -115l-33 56q89 74 136 164t47 231t-47.5 232t-135.5 163l33 56q270 -137 270 -451q0 -164 -73 -276t-197 -175z" />
    <glyph glyph-name="asterisk" unicode="*" horiz-adv-x="498" 
d="M123 409q-20 15 -22 34.5t13 37.5q21 27 96 72l-5 20q-82 -9 -119 3q-51 17 -34 66q14 39 55 32q38 -6 107 -70l16 10q-32 84 -32 113q0 24 13.5 38.5t37.5 14.5t37.5 -14.5t13.5 -38.5q0 -34 -32 -113l16 -10q68 63 107 70q40 8 56 -32q17 -49 -34 -66q-37 -12 -119 -3
l-5 -20q73 -43 96 -72q33 -41 -10 -72q-20 -14 -40 -11t-33 22q-22 33 -40 111h-25q-20 -79 -41 -111q-13 -19 -33 -22t-40 11z" />
    <glyph glyph-name="plus" unicode="+" horiz-adv-x="576" 
d="M249 261h-179v74h179v183h80v-183h177v-74h-177v-184h-80v184z" />
    <glyph glyph-name="comma" unicode="," horiz-adv-x="258" 
d="M130 153q34 0 57 -22.5t23 -64.5q0 -140 -155 -229l-25 35q54 39 72.5 65.5t20.5 56.5q-36 2 -55.5 25t-19.5 54q0 35 23.5 57.5t58.5 22.5z" />
    <glyph glyph-name="hyphen" unicode="-" horiz-adv-x="396" 
d="M60 305h276v-80h-276v80z" />
    <glyph glyph-name="period" unicode="." horiz-adv-x="258" 
d="M130 155q35 0 57.5 -23t22.5 -58q0 -36 -22.5 -58.5t-57.5 -22.5t-58.5 23.5t-23.5 58.5q0 34 23.5 57t58.5 23z" />
    <glyph glyph-name="slash" unicode="/" horiz-adv-x="454" 
d="M379 786h89l-392 -897h-90z" />
    <glyph glyph-name="zero" unicode="0" horiz-adv-x="649" 
d="M325 -10q-127 0 -206 99.5t-79 250.5t79 250.5t206 99.5t205.5 -99.5t78.5 -250.5t-78.5 -250.5t-205.5 -99.5zM325 60q144 0 144 280t-144 280q-145 0 -145 -280t145 -280z" />
    <glyph glyph-name="one" unicode="1" horiz-adv-x="490" 
d="M349 75h126v-75h-440v75h119q31 0 31 31v409h-143v64q96 4 127.5 24.5t43.5 82.5h105v-580q0 -31 31 -31z" />
    <glyph glyph-name="two" unicode="2" horiz-adv-x="594" 
d="M458 236h75v-236h-488v55q15 14 43 40q67 62 98 92t75.5 77.5t64 78.5t34.5 70t15 76q0 56 -36 91.5t-91 35.5q-77 0 -118 -53q27 -5 44 -23.5t17 -45.5q0 -33 -22 -55t-55 -22t-55.5 23t-22.5 62q0 70 66 129t181 59q102 0 168.5 -51.5t66.5 -150.5q0 -22 -3 -42
t-11.5 -40.5t-15.5 -36t-25.5 -37t-30 -35t-39 -37t-43.5 -37t-53.5 -41.5t-57.5 -42.5t-66 -48.5l189 12q30 2 49 11t28 29t12 35t6 48q1 7 1 10z" />
    <glyph glyph-name="three" unicode="3" horiz-adv-x="553" 
d="M328 346q86 -10 137 -54t51 -113q0 -84 -69.5 -136.5t-175.5 -52.5q-111 0 -177 53t-66 122q0 39 22.5 62t56.5 23q33 0 55 -22t22 -54q0 -58 -62 -72q44 -42 115 -42q62 0 97 31.5t35 92.5q0 64 -38 95.5t-106 31.5h-24v72h24q139 0 139 119q0 58 -34 88.5t-94 30.5
q-69 0 -113 -42q61 -16 61 -72q0 -33 -21.5 -54.5t-55.5 -21.5t-56.5 22.5t-22.5 61.5q0 69 66.5 122t175.5 53q103 0 170.5 -51t67.5 -133q0 -64 -48 -107t-132 -53z" />
    <glyph glyph-name="four" unicode="4" horiz-adv-x="579" 
d="M564 178h-110v-72q0 -31 31 -31h61v-75h-355v75h107q31 0 31 31v72h-304v77q101 123 134.5 190t39.5 155q9 90 73 90q29 0 47 -23t18 -65q0 -47 -23 -96.5t-63 -95t-74 -78t-76 -68.5q-7 -6 -11 -9h239v135q63 58 76 110h49v-245h110v-77z" />
    <glyph glyph-name="five" unicode="5" horiz-adv-x="559" 
d="M288 415q112 0 174 -63.5t62 -148.5q0 -92 -70.5 -152.5t-180.5 -60.5q-106 0 -170.5 55.5t-64.5 124.5q0 39 22.5 62t56.5 23q33 0 55 -22t22 -54q0 -60 -67 -74q48 -50 117 -50q64 0 101 42.5t37 111.5q0 66 -36.5 105t-105.5 39q-46 0 -105 -25l-71 25l35 312l49 19
q124 -22 180 -22q91 0 166 25l23 -41q-41 -59 -85.5 -85.5t-113.5 -26.5q-71 0 -159 44l-20 -205q67 42 149 42z" />
    <glyph glyph-name="six" unicode="6" horiz-adv-x="607" 
d="M353 425q96 0 156 -57.5t60 -149.5q0 -99 -69 -163.5t-180 -64.5q-126 0 -200.5 85t-74.5 234q0 162 79 271.5t221 109.5q89 0 149 -43t60 -108q0 -39 -21.5 -59t-53.5 -20q-34 0 -55 20.5t-21 52.5q0 50 47 69q-35 24 -91 24q-91 0 -134.5 -70.5t-48.5 -214.5
q64 84 177 84zM317 55q54 0 84 42.5t30 112.5q0 69 -30 110t-84 41q-55 0 -87 -41.5t-32 -108.5q0 -68 32 -112t87 -44z" />
    <glyph glyph-name="seven" unicode="7" horiz-adv-x="552" 
d="M40 680h499v-39q-40 -53 -71 -95.5t-54 -82t-38.5 -65t-26.5 -58.5t-17 -48.5t-9 -49.5t-3.5 -46t-1.5 -54t-1 -59q-1 -37 -19.5 -65t-56.5 -28q-34 0 -54 25t-20 63q0 108 83.5 253t189.5 247h-207q-35 0 -58.5 -11.5t-35.5 -35.5t-16 -40t-8 -46h-75v235z" />
    <glyph glyph-name="eight" unicode="8" horiz-adv-x="581" 
d="M549 193q1 -94 -74 -148.5t-194 -54.5q-110 0 -179 47.5t-69 122.5q0 50 34 93t105 70q-119 63 -119 175q0 88 69.5 139.5t169.5 51.5q97 0 159.5 -47t62.5 -117q0 -94 -123 -144q73 -32 115 -75t43 -113zM296 629q-50 0 -84.5 -26t-34.5 -68q0 -17 5 -31.5t20 -28
t24 -21t36.5 -20t36.5 -16t43 -17.5q72 49 72 120q0 48 -32 78t-86 30zM287 50q56 0 91.5 28t35.5 76q0 16 -5 30t-17 26t-23.5 21t-32.5 19t-35 16t-40.5 16.5t-39.5 16.5q-74 -49 -74 -126q1 -53 40.5 -88t99.5 -35z" />
    <glyph glyph-name="nine" unicode="9" horiz-adv-x="607" 
d="M289 690q126 0 200.5 -85t74.5 -234q0 -162 -79 -271.5t-221 -109.5q-89 0 -149 43t-60 108q0 39 21.5 59t53.5 20q34 0 55 -20.5t21 -52.5q0 -50 -47 -69q35 -24 91 -24q91 0 134.5 70.5t48.5 214.5q-64 -84 -177 -84q-96 0 -156 57.5t-60 149.5q0 99 69 163.5t180 64.5
zM292 319q55 0 87 41.5t32 108.5q0 68 -32 112t-87 44q-54 0 -84 -42.5t-30 -112.5q0 -69 30 -110t84 -41z" />
    <glyph glyph-name="colon" unicode=":" horiz-adv-x="258" 
d="M130 512q35 0 57.5 -23t22.5 -58q0 -36 -22.5 -58.5t-57.5 -22.5t-58.5 23.5t-23.5 58.5q0 34 23.5 57t58.5 23zM130 155q35 0 57.5 -23t22.5 -58q0 -36 -22.5 -58.5t-57.5 -22.5t-58.5 23.5t-23.5 58.5q0 34 23.5 57t58.5 23z" />
    <glyph glyph-name="semicolon" unicode=";" horiz-adv-x="258" 
d="M129 512q35 0 57.5 -23t22.5 -58q0 -36 -22.5 -58.5t-57.5 -22.5t-58.5 23.5t-23.5 58.5q0 34 23.5 57t58.5 23zM130 153q34 0 57 -22.5t23 -64.5q0 -140 -155 -229l-25 35q54 39 72.5 65.5t20.5 56.5q-36 2 -55.5 25t-19.5 54q0 35 23.5 57.5t58.5 22.5z" />
    <glyph glyph-name="less" unicode="&#x3c;" horiz-adv-x="576" 
d="M70 326l416 189v-95l-329 -128l329 -129v-93l-416 188v68z" />
    <glyph glyph-name="equal" unicode="=" horiz-adv-x="576" 
d="M70 373v74h436v-74h-436zM70 188v74h436v-74h-436z" />
    <glyph glyph-name="greater" unicode="&#x3e;" horiz-adv-x="576" 
d="M506 326v-68l-416 -188v93l329 129l-329 128v95z" />
    <glyph glyph-name="question" unicode="?" horiz-adv-x="518" 
d="M261 695q101 0 165 -47.5t64 -131.5q0 -42 -18.5 -80t-44 -64.5t-65 -52t-67.5 -39.5t-66 -30l-30 35q44 35 71 61t52 71t25 92q0 58 -32 87t-87 29q-72 0 -106 -50q30 -5 48.5 -24.5t18.5 -47.5q0 -33 -23 -55.5t-57 -22.5q-33 0 -56 23.5t-23 65.5q0 68 59 124.5
t172 56.5zM256 155q35 0 58 -22.5t23 -57.5t-23 -58.5t-58 -23.5t-58.5 23t-23.5 59q0 35 23.5 57.5t58.5 22.5z" />
    <glyph glyph-name="at" unicode="@" horiz-adv-x="843" 
d="M592 84q-51 0 -77.5 25t-24.5 68q-50 -93 -144 -93q-64 0 -99.5 40t-35.5 114q0 101 56 176.5t144 75.5q92 0 116 -93l20 86h88l-54 -255q-11 -39 -3 -64.5t41 -25.5q53 0 91 62t38 153q0 130 -82 210t-213 80q-157 0 -257.5 -108.5t-100.5 -272.5q0 -153 90.5 -243
t245.5 -90q140 0 250 78l23 -38q-118 -87 -277 -87q-175 0 -286 102t-111 276q0 186 123 307.5t302 121.5q157 0 257.5 -91t100.5 -243q0 -125 -68 -198t-153 -73zM382 147q60 0 92.5 59t32.5 129q0 46 -19.5 71.5t-52.5 25.5q-53 0 -87.5 -59t-34.5 -132q0 -45 18 -69.5
t51 -24.5z" />
    <glyph glyph-name="A" unicode="A" horiz-adv-x="758" 
d="M720 75h33v-75h-319v75h59q15 0 21.5 8.5t0.5 21.5l-34 81h-269l-33 -80q-5 -13 0.5 -22t20.5 -9h64v-75h-259v75h38q34 0 48 34l243 571h85l253 -575q14 -30 48 -30zM239 252h214l-108 259z" />
    <glyph glyph-name="B" unicode="B" horiz-adv-x="670" 
d="M444 354q91 -9 142.5 -54.5t51.5 -118.5q0 -83 -66 -132t-179 -49h-363v75h67q31 0 31 31v468q0 31 -31 31h-67v75h341q114 0 179.5 -44.5t65.5 -122.5q0 -64 -46 -105t-126 -54zM268 605v-215h68q63 0 100.5 33t37.5 82q0 48 -34 74t-94 26h-78zM353 74q67 0 105 30.5
t38 86.5q0 52 -35 88t-98 36h-95v-241h85z" />
    <glyph glyph-name="C" unicode="C" horiz-adv-x="733" 
d="M623 266l70 -19q-24 -126 -102.5 -191.5t-196.5 -65.5q-154 0 -252 100t-98 250q0 151 99.5 250.5t253.5 99.5q129 0 211.5 -67.5t82.5 -145.5q0 -42 -25 -65.5t-61 -23.5t-59.5 22.5t-23.5 55.5q0 52 48 72q-48 79 -154 79q-99 0 -157.5 -70t-58.5 -199t56.5 -203
t154.5 -74q79 0 133.5 51.5t78.5 143.5z" />
    <glyph glyph-name="D" unicode="D" horiz-adv-x="786" 
d="M375 680q156 0 261.5 -94.5t105.5 -245.5t-105.5 -245.5t-261.5 -94.5h-345v75h67q31 0 31 31v468q0 31 -31 31h-67v75h345zM375 75q100 0 156 72t56 193t-56 193t-156 72h-107v-530h107z" />
    <glyph glyph-name="E" unicode="E" horiz-adv-x="675" 
d="M543 210h80v-210h-593v75h67q31 0 31 31v468q0 31 -31 31h-67v75h568v-210h-80q-8 72 -17 92q-22 42 -81 43h-152v-269h81q11 0 19.5 2.5t14.5 9t9.5 11t6.5 16.5t4 16.5t3 20t3 19.5h62v-265h-62q-1 5 -2.5 19.5t-3 20t-4 17t-6.5 16t-9.5 11t-14.5 9t-20 2.5h-81v-186
h172q26 0 44.5 8.5t28 18t16.5 32t9 34.5t5 42z" />
    <glyph glyph-name="F" unicode="F" horiz-adv-x="643" 
d="M598 680v-210h-80q-8 72 -17 92q-22 42 -81 43h-152v-269h87q10 0 17.5 2.5t13 5.5t10 10.5t7 11.5t5 15t3.5 15.5t2.5 17.5t2.5 17h62v-265h-62q-1 4 -2.5 17t-2.5 17.5t-3.5 15.5t-5 15t-7 11.5t-10 10.5t-13 5.5t-17.5 2.5h-87v-155q0 -31 31 -31h115v-75h-384v75h67
q31 0 31 31v468q0 31 -31 31h-67v75h568z" />
    <glyph glyph-name="G" unicode="G" horiz-adv-x="790" 
d="M394 310h364v-75h-45q-31 0 -31 -31v-204h-38l-63 57q-75 -67 -188 -67q-153 0 -251 100t-98 251q0 150 99.5 249.5t253.5 99.5q130 0 212.5 -63.5t82.5 -139.5q0 -42 -25.5 -65.5t-61.5 -23.5t-59 22.5t-23 55.5q0 53 47 71q-49 70 -155 70q-101 0 -158 -71t-57 -201
q0 -125 56.5 -199.5t152.5 -74.5q79 0 133 45v88q0 31 -31 31h-117v75z" />
    <glyph glyph-name="H" unicode="H" horiz-adv-x="818" 
d="M721 605q-31 0 -31 -31v-468q0 -31 31 -31h67v-75h-328v75h59q31 0 31 31v155h-282v-155q0 -31 31 -31h59v-75h-328v75h67q31 0 31 31v468q0 31 -31 31h-67v75h328v-75h-59q-31 0 -31 -31v-238h282v238q0 31 -31 31h-59v75h328v-75h-67z" />
    <glyph glyph-name="I" unicode="I" horiz-adv-x="412" 
d="M307 605q-31 0 -31 -31v-468q0 -31 31 -31h70v-75h-342v75h70q31 0 31 31v468q0 31 -31 31h-70v75h342v-75h-70z" />
    <glyph glyph-name="J" unicode="J" horiz-adv-x="575" 
d="M138 680h424v-75h-61q-31 0 -31 -31v-374q0 -93 -63.5 -151.5t-169.5 -58.5q-98 0 -155.5 47.5t-57.5 110.5q0 40 22.5 63t56.5 23q35 0 56.5 -20t21.5 -52q0 -29 -18 -50.5t-45 -26.5q34 -24 82 -24q63 0 96.5 39.5t33.5 99.5v374q0 31 -31 31h-161v75z" />
    <glyph glyph-name="K" unicode="K" horiz-adv-x="775" 
d="M30 0v75h67q31 0 31 31v468q0 31 -31 31h-67v75h328v-75h-59q-31 0 -31 -31v-468q0 -31 31 -31h47v-75h-316zM412 0v75h56q32 0 10 30l-175 227l221 244q12 14 10 21.5t-17 7.5h-81v75h308v-75h-35q-52 0 -80 -31l-184 -208l193 -252q30 -39 82 -39h45v-75h-353z" />
    <glyph glyph-name="L" unicode="L" horiz-adv-x="645" 
d="M525 266h75v-266h-570v75h67q31 0 31 31v468q0 31 -31 31h-67v75h365v-75h-96q-31 0 -31 -31v-499h144q32 0 54 14t33.5 43.5t16.5 58.5t9 75z" />
    <glyph glyph-name="M" unicode="M" horiz-adv-x="928" 
d="M832 605q-31 0 -31 -31v-468q0 -31 31 -31h66v-75h-322v75h54q31 0 31 31v424l-191 -383h-48l-210 381v-422q0 -31 31 -31h66v-75h-279v75h67q31 0 31 31v468q0 31 -31 31h-67v75h247l200 -353l182 353h239v-75h-66z" />
    <glyph glyph-name="N" unicode="N" horiz-adv-x="782" 
d="M762 680v-75h-66q-31 0 -31 -31v-574h-59l-394 506v-400q0 -31 31 -31h76v-75h-289v75h67q31 0 31 31v468q0 31 -31 31h-67v75h217l334 -432v326q0 31 -31 31h-74v75h286z" />
    <glyph glyph-name="O" unicode="O" horiz-adv-x="792" 
d="M396 690q154 0 253 -100.5t99 -249.5t-99 -249.5t-253 -100.5t-253 100.5t-99 249.5t99 249.5t253 100.5zM396 63q92 0 144.5 74t52.5 203t-52.5 203t-144.5 74t-144 -74t-52 -203t52 -203t144 -74z" />
    <glyph glyph-name="P" unicode="P" horiz-adv-x="675" 
d="M370 251h-102v-145q0 -31 31 -31h121v-75h-390v75h67q31 0 31 31v468q0 31 -31 31h-67v75h340q121 0 197 -61t76 -151q0 -93 -75.5 -155t-197.5 -62zM268 605v-282h77q71 0 109.5 42t38.5 103q0 58 -38.5 97.5t-109.5 39.5h-77z" />
    <glyph glyph-name="Q" unicode="Q" horiz-adv-x="794" 
d="M748 340q0 -149 -99 -249.5t-253 -100.5t-253 100.5t-99 249.5t99 249.5t253 100.5t253 -100.5t99 -249.5zM200 340q0 -129 52 -203t144 -74t144.5 74t52.5 203t-52.5 203t-144.5 74t-144 -74t-52 -203zM692 -51q30 0 49.5 -20t19.5 -49q0 -37 -28.5 -63t-69.5 -26
q-62 0 -137 65q-16 14 -37 36t-32 29.5t-25 7.5h-6q29 -16 29 -49q0 -27 -18.5 -44t-45.5 -17q-30 0 -49.5 19t-19.5 48q0 38 28 61.5t69 23.5q66 0 140 -66q19 -16 38.5 -37.5t29 -28t24.5 -6.5q13 0 20 2q-42 10 -42 51q0 27 18 45t45 18z" />
    <glyph glyph-name="R" unicode="R" horiz-adv-x="743" 
d="M688 75h47v-75h-246l-77 206q-21 65 -100 65h-44v-165q0 -31 31 -31h64v-75h-333v75h67q31 0 31 31v468q0 31 -31 31h-67v75h348q127 0 198.5 -55t71.5 -137q0 -78 -66.5 -133.5t-147.5 -66.5q100 -22 139 -99l40 -79q10 -20 26.5 -27.5t48.5 -7.5zM353 346
q71 0 109.5 40t38.5 95q0 54 -38 89t-110 35h-85v-259h85z" />
    <glyph glyph-name="S" unicode="S" horiz-adv-x="598" 
d="M184 527q0 -32 20.5 -55t53 -37t72 -27t79.5 -29.5t72.5 -38.5t53 -60t20.5 -88q0 -90 -70 -146t-184 -56q-120 0 -189 57t-69 131q0 40 23.5 63.5t57.5 23.5t53.5 -20.5t19.5 -51.5q0 -27 -17.5 -44.5t-44.5 -21.5q50 -70 151 -70q61 0 98 29t37 75q0 35 -20 60t-52 40
t-71 27.5t-78 28t-71 36t-52 57t-20 85.5q0 89 66.5 142t175.5 53q111 0 177.5 -50t66.5 -120q0 -38 -21 -57t-55 -19q-33 0 -53.5 18.5t-20.5 50.5q0 50 53 66q-48 46 -129 46q-62 0 -97.5 -27.5t-35.5 -70.5z" />
    <glyph glyph-name="T" unicode="T" horiz-adv-x="688" 
d="M650 680v-248h-75q-8 98 -18 124q-20 54 -80 54h-63v-504q0 -31 31 -31h86v-75h-375v75h87q31 0 31 31v504h-63q-40 0 -61 -25t-25.5 -49t-9.5 -83q-1 -3 -1 -5v-5t-0.5 -5.5t-0.5 -5.5h-75v248h612z" />
    <glyph glyph-name="U" unicode="U" horiz-adv-x="739" 
d="M726 680v-75h-61q-31 0 -31 -31v-364q0 -98 -69.5 -159t-183.5 -61q-116 0 -193.5 61t-77.5 154v369q0 31 -31 31h-61v75h335v-75h-72q-31 0 -31 -31v-359q0 -66 41.5 -107t111.5 -41q67 0 108 40t41 108v359q0 31 -31 31h-65v75h270z" />
    <glyph glyph-name="V" unicode="V" horiz-adv-x="743" 
d="M487 680h256v-75h-38q-34 0 -47 -32l-239 -573h-85l-248 575q-14 30 -48 30h-38v75h324v-75h-61q-14 0 -19 -8.5t0 -21.5l164 -403l165 405q5 12 0 20t-18 8h-68v75z" />
    <glyph glyph-name="W" unicode="W" horiz-adv-x="1089" 
d="M834 680h255v-75h-37q-34 0 -47 -33l-210 -572h-70l-176 455l-160 -455h-80l-224 576q-11 29 -48 29h-37v75h318v-75h-49q-32 0 -21 -31l133 -358l123 358q5 14 -1.5 22.5t-21.5 8.5h-67v75h323v-75h-57q-14 0 -20 -9t-1 -22l133 -349l122 349q10 31 -21 31h-59v75z" />
    <glyph glyph-name="X" unicode="X" horiz-adv-x="740" 
d="M689 75h44v-75h-323v75h40q14 0 17.5 7.5t-3.5 20.5l-124 167l-129 -167q-9 -11 -5 -19.5t18 -8.5h49v-75h-260v75h51q33 0 56 28l176 221l-184 246q-27 35 -60 35h-44v75h323v-75h-40q-14 0 -18 -7.5t4 -20.5l123 -167l130 167q9 12 5 20t-18 8h-55v75h261v-75h-46
q-35 0 -56 -28l-176 -221l184 -246q28 -35 60 -35z" />
    <glyph glyph-name="Y" unicode="Y" horiz-adv-x="680" 
d="M416 680h264v-75h-47q-37 0 -56 -32l-168 -279v-188q0 -31 31 -31h79v-75h-360v75h79q31 0 31 31v163l-172 308q-15 28 -51 28h-46v75h319v-75h-51q-34 0 -18 -31l118 -213l126 216q8 13 3 20.5t-20 7.5h-61v75z" />
    <glyph glyph-name="Z" unicode="Z" horiz-adv-x="607" 
d="M495 257h75v-257h-537v40l351 568h-187q-11 0 -20.5 -3t-17 -7t-13.5 -12t-9.5 -14.5t-7 -19t-5.5 -20.5t-4 -23.5t-2.5 -24t-2 -26.5t-2.5 -26h-75v248h520v-45l-354 -563h206q13 0 23 3t18 10.5t13.5 14.5t10 21t7 22.5t5 27t3.5 27t2.5 30.5t2.5 29z" />
    <glyph glyph-name="bracketleft" unicode="[" horiz-adv-x="356" 
d="M85 786h251v-69h-146v-758h146v-70h-251v897z" />
    <glyph glyph-name="backslash" unicode="\" horiz-adv-x="454" 
d="M75 786l393 -897h-90l-392 897h89z" />
    <glyph glyph-name="bracketright" unicode="]" horiz-adv-x="356" 
d="M271 786v-897h-251v70h146v758h-146v69h251z" />
    <glyph glyph-name="asciicircum" unicode="^" horiz-adv-x="434" 
d="M292 433l-74 165l-74 -165h-96l136 247h68l134 -247h-94z" />
    <glyph glyph-name="underscore" unicode="_" horiz-adv-x="419" 
d="M0 -70h419v-70h-419v70z" />
    <glyph glyph-name="grave" unicode="`" horiz-adv-x="265" 
d="M221 573l-27 -23q-130 83 -157 115q-19 21 -17.5 47t24.5 45q22 18 47 15.5t45 -24.5q21 -24 76 -155q3 -6 5 -10.5t4 -9.5z" />
    <glyph glyph-name="a" unicode="a" horiz-adv-x="573" 
d="M508 75h44v-75h-164l-27 64q-46 -74 -148 -74q-78 0 -128 43t-50 109q0 62 50 103t126 41q97 0 142 -60v100q0 59 -28.5 92.5t-82.5 33.5q-39 0 -73 -13q37 -14 37 -57q0 -31 -21 -52t-53 -21t-52 21t-20 52q0 55 60 93.5t146 38.5q96 0 153.5 -49.5t57.5 -134.5v-224
q0 -31 31 -31zM262 63q39 0 65 22.5t26 57.5t-25.5 57.5t-64.5 22.5t-64.5 -23t-25.5 -58q0 -34 25.5 -56.5t63.5 -22.5z" />
    <glyph glyph-name="b" unicode="b" horiz-adv-x="632" 
d="M383 514q96 0 156 -73.5t60 -188.5t-64 -188.5t-162 -73.5q-120 0 -180 94l-52 -84h-61v574q0 31 -31 31h-49v75h207v-272q54 106 176 106zM336 69q57 0 92 48.5t35 134.5q0 84 -35 133t-92 49q-60 0 -94.5 -47.5t-34.5 -134.5q0 -89 34.5 -136t94.5 -47z" />
    <glyph glyph-name="c" unicode="c" horiz-adv-x="561" 
d="M321 65q54 0 92 30t50 89l63 -11q-43 -183 -225 -183q-119 0 -193.5 71.5t-74.5 186.5q0 117 77 191.5t190 74.5q97 0 161.5 -53.5t64.5 -119.5q0 -33 -20.5 -54t-52.5 -21q-33 0 -54.5 20.5t-21.5 52.5q0 47 41 65q-32 43 -98 43q-77 0 -114.5 -51.5t-37.5 -134.5
q0 -95 40.5 -145.5t112.5 -50.5z" />
    <glyph glyph-name="d" unicode="d" horiz-adv-x="652" 
d="M583 75h44v-75h-202v89q-49 -99 -172 -99q-98 0 -159.5 71.5t-61.5 190.5q0 118 61.5 190t159.5 72q122 0 172 -101v161q0 31 -31 31h-44v75h202v-574q0 -31 31 -31zM296 69q60 0 94.5 47.5t34.5 135.5q0 87 -35 134.5t-94 47.5q-57 0 -92.5 -49t-35.5 -133
q0 -86 35.5 -134.5t92.5 -48.5z" />
    <glyph glyph-name="e" unicode="e" horiz-adv-x="563" 
d="M173 230q13 -168 141 -168q58 0 97 33t50 89l63 -11q-20 -87 -78 -135t-152 -48q-118 0 -189.5 72t-71.5 186q0 115 71.5 190.5t185.5 75.5q110 0 175.5 -70.5t65.5 -182.5q0 -11 -3 -31h-355zM294 454q-53 0 -85 -43t-36 -125h228q-4 87 -30 127.5t-77 40.5z" />
    <glyph glyph-name="f" unicode="f" horiz-adv-x="408" 
d="M329 609q0 31 23 47h-8q-52 0 -76 -26.5t-24 -91.5v-33h166v-75h-166v-324q0 -31 31 -31h87v-75h-324v75h49q31 0 31 31v324h-90v75h59q31 0 31 31v2q0 83 58 129.5t144 46.5q60 0 103.5 -26.5t43.5 -74.5q0 -32 -18.5 -52t-50.5 -20q-31 0 -50 19t-19 49z" />
    <glyph glyph-name="g" unicode="g" horiz-adv-x="543" 
d="M347 117q82 0 131 -39t49 -99q0 -74 -72.5 -121.5t-200.5 -47.5q-104 0 -171.5 32t-67.5 92q0 79 109 95q-81 29 -81 95t85 86q-85 48 -85 137q0 76 63 121.5t165 45.5q76 0 133 -27q21 15 29 44q-25 5 -39.5 23.5t-14.5 42.5q0 28 20.5 46.5t51.5 18.5q29 0 48.5 -20
t19.5 -51q0 -37 -22 -70.5t-57 -55.5q59 -45 59 -118q0 -76 -63.5 -122.5t-164.5 -46.5q-53 0 -98 14q-36 -10 -36 -38q0 -17 14.5 -27t37.5 -10h158zM271 464q-90 0 -90 -118q0 -117 90 -117t90 117q0 118 -90 118zM263 -122q69 0 109 21t40 58q0 24 -21 39t-53 15h-144
q-37 0 -59.5 -16.5t-22.5 -42.5q0 -35 41 -54.5t110 -19.5z" />
    <glyph glyph-name="h" unicode="h" horiz-adv-x="650" 
d="M585 75h44v-75h-267v75h34q31 0 31 31v224q0 45 -23.5 71.5t-63.5 26.5q-43 0 -75 -32t-38 -103v-187q0 -31 31 -31h33v-75h-266v75h44q31 0 31 31v468q0 31 -31 31h-44v75h202v-270q57 104 166 104q70 0 115.5 -44.5t45.5 -114.5v-249q0 -31 31 -31z" />
    <glyph glyph-name="i" unicode="i" horiz-adv-x="344" 
d="M181 565q-35 0 -58.5 23t-23.5 57q0 35 23.5 58.5t58.5 23.5t57.5 -22.5t22.5 -58.5q0 -35 -22.5 -58t-57.5 -23zM273 75h51v-75h-291v75h51q31 0 31 31v293q0 31 -31 31h-51v75h209v-399q0 -31 31 -31z" />
    <glyph glyph-name="j" unicode="j" horiz-adv-x="321" 
d="M186 565q-35 0 -58.5 23t-23.5 57q0 35 23.5 58.5t58.5 23.5t57.5 -22.5t22.5 -58.5q0 -35 -22.5 -58t-57.5 -23zM30 430v75h219v-515q0 -88 -49 -134t-131 -46q-57 0 -92 23t-35 63q0 28 17.5 46t43.5 18t42.5 -15t16.5 -40q0 -21 -12 -33t-32 -13q13 -4 29 -4
q47 0 61.5 30t14.5 105v409q0 31 -31 31h-62z" />
    <glyph glyph-name="k" unicode="k" horiz-adv-x="634" 
d="M227 106q0 -31 31 -31h33v-75h-266v75h44q31 0 31 31v468q0 31 -31 31h-44v75h202v-574zM603 75h21v-75h-286v75h33q39 0 16 29l-133 162l149 141q10 9 6.5 16t-17.5 7h-86v75h291v-75h-36q-24 0 -38.5 -8t-33.5 -25l-112 -105l148 -178q32 -39 78 -39z" />
    <glyph glyph-name="l" unicode="l" horiz-adv-x="349" 
d="M273 75h51v-75h-291v75h51q31 0 31 31v468q0 31 -31 31h-51v75h209v-574q0 -31 31 -31z" />
    <glyph glyph-name="m" unicode="m" horiz-adv-x="945" 
d="M880 75h44v-75h-264v75h32q31 0 31 31v235q0 41 -20.5 64t-55.5 23q-44 0 -72 -33.5t-33 -100.5v-188q0 -31 31 -31h30v-75h-251v75h32q31 0 31 31v235q0 41 -20.5 64t-55.5 23q-48 0 -76.5 -40.5t-28.5 -121.5v-160q0 -31 31 -31h30v-75h-262v75h44q31 0 31 31v293
q0 31 -31 31h-44v75h201v-91q52 100 154 100q53 0 93.5 -29t54.5 -78q53 107 159 107q67 0 110.5 -43t43.5 -111v-254q0 -31 31 -31z" />
    <glyph glyph-name="n" unicode="n" horiz-adv-x="657" 
d="M592 75h44v-75h-266v75h34q31 0 31 31v224q0 45 -24 71.5t-63 26.5q-47 0 -80.5 -38t-33.5 -124v-160q0 -31 31 -31h34v-75h-266v75h44q31 0 31 31v293q0 31 -31 31h-44v75h201v-95q57 104 167 104q69 0 114.5 -44.5t45.5 -114.5v-249q0 -31 31 -31z" />
    <glyph glyph-name="o" unicode="o" horiz-adv-x="594" 
d="M297 514q116 0 190.5 -73t74.5 -186q0 -115 -74.5 -190t-190.5 -75t-190 75t-74 190q0 113 74 186t190 73zM297 51q127 0 127 204q0 199 -127 199t-127 -199q0 -204 127 -204z" />
    <glyph glyph-name="p" unicode="p" horiz-adv-x="659" 
d="M406 514q98 0 159.5 -72t61.5 -190q0 -119 -61.5 -190.5t-159.5 -71.5q-123 0 -172 99v-163q0 -31 31 -31h99v-75h-331v75h44q31 0 31 31v473q0 31 -31 31h-44v75h201v-92q50 101 172 101zM363 69q57 0 92.5 48.5t35.5 134.5q0 84 -35.5 133t-92.5 49q-59 0 -94 -47.5
t-35 -134.5q0 -88 34.5 -135.5t94.5 -47.5z" />
    <glyph glyph-name="q" unicode="q" horiz-adv-x="651" 
d="M587 430q-31 0 -31 -31v-473q0 -31 31 -31h44v-75h-307v75h74q31 0 31 31v171q-29 -55 -77.5 -81t-102.5 -26q-96 0 -156 74t-60 189t62 188t159 73q55 0 104 -24.5t78 -77.5l38 93h157v-75h-44zM296 71q60 0 94.5 47.5t34.5 134.5q0 88 -34.5 135t-94.5 47
q-57 0 -92 -48.5t-35 -133.5q0 -84 35 -133t92 -49z" />
    <glyph glyph-name="r" unicode="r" horiz-adv-x="501" 
d="M402 514q39 0 63.5 -23t24.5 -58q0 -34 -22 -56.5t-54 -22.5t-52 17t-20 47q0 6 2 18q-98 -28 -107 -234v-96q0 -31 31 -31h89v-75h-322v75h44q31 0 31 31v293q0 31 -31 31h-44v75h202v-124q49 133 165 133z" />
    <glyph glyph-name="s" unicode="s" horiz-adv-x="482" 
d="M162 391q0 -27 21.5 -45.5t53 -27.5t69 -22t69 -27.5t53 -45.5t21.5 -75q0 -73 -55 -115.5t-153 -42.5q-91 0 -149.5 37t-58.5 94q0 32 18.5 51t49.5 19q30 0 49 -17t19 -44q0 -43 -40 -57q41 -29 94 -29q47 0 72.5 21t25.5 55t-28.5 55.5t-69.5 33.5t-82.5 26.5
t-70 46.5t-28.5 83q0 73 54.5 111t148.5 38q86 0 138.5 -32t52.5 -84q0 -31 -18.5 -49.5t-49.5 -18.5t-49.5 17t-18.5 45q0 35 33 50q-32 19 -73 19q-45 0 -71.5 -19.5t-26.5 -50.5z" />
    <glyph glyph-name="t" unicode="t" horiz-adv-x="396" 
d="M235 -10q-69 0 -113 42.5t-44 102.5v295h-75v75h4q55 0 83.5 24t67.5 86h46v-110h168v-75h-168v-295q0 -26 17 -42.5t42 -16.5q26 0 43.5 16.5t21.5 46.5l58 -13q-12 -67 -51.5 -101.5t-99.5 -34.5z" />
    <glyph glyph-name="u" unicode="u" horiz-adv-x="639" 
d="M570 75h44v-75h-202v94q-57 -104 -167 -104q-69 0 -114.5 44.5t-45.5 114.5v257q-3 24 -30 24h-45v75h201v-331q0 -45 24 -71.5t63 -26.5q47 0 80.5 38t33.5 124v163q0 29 -30 29h-41v75h198v-399q0 -31 31 -31z" />
    <glyph glyph-name="v" unicode="v" horiz-adv-x="624" 
d="M398 505h218v-75h-32q-35 0 -48 -31l-176 -399h-96l-174 399q-13 31 -47 31h-33v75h297v-75h-46q-15 0 -21.5 -8t-1.5 -21l106 -264l116 264q5 13 -1 21t-21 8h-40v75z" />
    <glyph glyph-name="w" unicode="w" horiz-adv-x="893" 
d="M668 505h217v-75h-30q-36 0 -48 -33l-153 -397h-84l-116 298l-117 -298h-88l-159 398q-12 32 -48 32h-32v75h285v-75h-44q-14 0 -20.5 -9t-1.5 -21l87 -254l99 254q5 13 -1 21.5t-21 8.5h-45v75h263v-75h-49q-14 0 -20 -9t-2 -21l97 -254l93 253q5 13 -1 22t-20 9h-41v75
z" />
    <glyph glyph-name="x" unicode="x" horiz-adv-x="597" 
d="M540 75h45v-75h-276v75h28q14 0 17.5 8t-4.5 18l-72 92l-79 -91q-10 -10 -5.5 -18.5t18.5 -8.5h30v-75h-219v75h37q23 0 47 26l133 144l-137 162q-19 23 -44 23h-46v75h276v-75h-29q-14 0 -17.5 -8t4.5 -19l73 -91l80 92q9 11 4.5 18.5t-18.5 7.5h-29v75h218v-75h-37
q-16 0 -25.5 -6t-23.5 -22l-131 -142l135 -159q22 -26 47 -26z" />
    <glyph glyph-name="y" unicode="y" horiz-adv-x="623" 
d="M397 505h218v-75h-31q-35 0 -49 -33l-185 -417q-41 -92 -81.5 -131t-104.5 -39q-54 0 -91 31.5t-37 79.5q0 36 21.5 59t53.5 23q31 0 51.5 -19.5t20.5 -48.5q0 -26 -16 -44.5t-40 -20.5q14 -7 32 -7q45 0 70.5 30t49.5 87l6 14l-195 405q-15 31 -47 31h-33v75h296v-75
h-44q-15 0 -22 -8t-1 -21l114 -249l106 248q6 14 -1 22t-21 8h-40v75z" />
    <glyph glyph-name="z" unicode="z" horiz-adv-x="514" 
d="M403 201h68v-201h-425v42l265 401h-96q-24 0 -41.5 -8.5t-26.5 -18t-15.5 -33t-8.5 -35.5t-5 -43h-69v200h419v-37l-270 -406h108q17 0 31 5t23 10t17 20t11 20.5t7 28t4.5 26t3.5 29.5z" />
    <glyph glyph-name="braceleft" unicode="{" horiz-adv-x="412" 
d="M127 338v-2q70 -7 99.5 -32.5t29.5 -87.5v-171q0 -50 28 -69t108 -19v-69q-148 1 -206.5 35t-54.5 114l10 193q2 30 -16.5 48.5t-59.5 18.5h-45v81h45q41 0 59.5 18t16.5 49l-10 192q-4 80 54.5 114t206.5 35v-69q-80 0 -108 -19t-28 -69v-171q0 -62 -29.5 -87.5
t-99.5 -32.5z" />
    <glyph glyph-name="bar" unicode="|" horiz-adv-x="275" 
d="M100 788h75v-899h-75v899z" />
    <glyph glyph-name="braceright" unicode="}" horiz-adv-x="412" 
d="M347 378h45v-81h-45q-41 0 -59.5 -18.5t-16.5 -48.5l10 -193q4 -80 -54.5 -114t-206.5 -35v69q80 0 108 19t28 69v171q0 62 29.5 87.5t99.5 32.5v2q-70 7 -99.5 32.5t-29.5 87.5v171q0 50 -28 69t-108 19v69q148 -1 206.5 -35t54.5 -114l-10 -192q-2 -31 16.5 -49
t59.5 -18z" />
    <glyph glyph-name="asciitilde" unicode="~" horiz-adv-x="576" 
d="M494 386q-13 -138 -126 -138q-37 0 -91.5 28.5t-85.5 28.5q-27 0 -38 -12t-20 -39l-50 18q17 131 125 131q38 0 95 -28.5t84 -28.5q18 0 30 9t15.5 17t10.5 26z" />
    <glyph glyph-name="exclamdown" unicode="&#xa1;" horiz-adv-x="305" 
d="M153 352q-35 0 -58 22.5t-23 57.5q0 36 23 59t58 23t58 -23.5t23 -58.5t-23 -57.5t-58 -22.5zM128 259h50q56 -323 56 -360q0 -40 -23 -66t-58 -26q-36 0 -58.5 25.5t-22.5 66.5q0 40 56 360z" />
    <glyph glyph-name="cent" unicode="&#xa2;" horiz-adv-x="558" 
d="M317 62q53 0 93.5 30.5t51.5 90.5l60 -10q-20 -91 -78 -137t-145 -46q-29 0 -50 4l-20 -79l-63 15l23 81q-72 29 -114 91.5t-42 145.5q0 116 78 190.5t187 74.5q15 0 22 -1l26 96l63 -15l-26 -93q62 -21 101 -65.5t39 -93.5q0 -32 -19.5 -52.5t-49.5 -20.5
q-32 0 -52.5 20t-20.5 51q0 47 40 62q-20 28 -56 40l-98 -371q24 -8 50 -8zM306 448q-69 -4 -106.5 -56.5t-37.5 -131.5q0 -105 54 -157z" />
    <glyph glyph-name="sterling" unicode="&#xa3;" horiz-adv-x="638" 
d="M572 179l41 -16q-16 -85 -55 -129t-110 -44q-27 0 -64 16t-55.5 27.5t-64.5 42.5q-33 -48 -61 -67t-69 -19q-49 0 -81.5 27.5t-32.5 69.5q0 44 34.5 74.5t88.5 30.5q29 0 87 -18q1 48 -44 102h-149v68h92q-40 54 -40 118q0 99 74 163.5t185 64.5q100 0 163 -46.5
t63 -110.5q0 -33 -20 -52t-52 -19q-33 0 -52.5 17t-19.5 48q0 47 51 61q-43 41 -114 41q-64 0 -104 -37t-40 -92q0 -21 8 -43.5t16.5 -36.5t25 -39t23.5 -37h220v-68h-192q13 -60 -20 -130q112 -44 152 -44q44 0 68 17t48 60zM135 46q52 0 79 62q-49 28 -78 28
q-22 0 -36.5 -12.5t-14.5 -31.5q0 -20 14.5 -33t35.5 -13z" />
    <glyph glyph-name="currency" unicode="&#xa4;" horiz-adv-x="574" 
d="M430 236q75 -43 90 -58q37 -37 1 -73q-35 -35 -71 2q-15 15 -60 91q-46 -30 -103 -30q-58 0 -103 31q-46 -79 -59 -92q-37 -37 -73 -2q-17 18 -16 37t18 36q13 13 90 59q-34 43 -34 103q0 59 34 104q-75 43 -90 58q-36 38 -1 73q36 34 72 -2q14 -14 59 -91q46 30 103 30
t103 -30q47 78 60 91q16 17 35 18t37 -16q35 -36 -2 -73q-11 -11 -90 -58q35 -45 35 -104q0 -58 -35 -104zM287 231q44 0 73.5 31t29.5 78t-29.5 78t-73.5 31t-73 -31t-29 -78q0 -46 29 -77.5t73 -31.5z" />
    <glyph glyph-name="yen" unicode="&#xa5;" horiz-adv-x="678" 
d="M414 680h264v-75h-48q-37 0 -56 -32l-146 -228h141v-65h-166v-63h166v-65h-166v-49q0 -31 31 -31h94v-72h-382v72h94q31 0 31 31v49h-160v65h160v63h-160v65h126l-138 232q-17 28 -51 28h-48v75h314v-75h-53q-34 0 -18 -31l119 -210l132 213q8 13 3 20.5t-20 7.5h-63v75z
" />
    <glyph glyph-name="brokenbar" unicode="&#xa6;" horiz-adv-x="275" 
d="M100 788h75v-383h-75v383zM100 275h75v-386h-75v386z" />
    <glyph glyph-name="section" unicode="&#xa7;" horiz-adv-x="517" 
d="M487 308q0 -73 -77 -108q20 -29 20 -69q0 -64 -46 -102.5t-128 -38.5q-78 0 -128 36.5t-50 86.5q0 28 18.5 46.5t44.5 18.5t43 -17t17 -43q0 -36 -42 -50q35 -31 84 -31q46 0 69.5 19.5t23.5 49.5t-31.5 52.5t-76.5 39.5t-90 37t-76.5 56.5t-31.5 86.5q0 73 80 109
q-15 30 -15 62q0 64 46 102.5t124 38.5q74 0 122.5 -36t48.5 -86q0 -26 -17.5 -43.5t-43.5 -17.5t-43 16t-17 40q0 36 41 50q-34 30 -78 30q-41 0 -64.5 -19.5t-23.5 -49.5q0 -29 30.5 -51t74 -38.5t87.5 -36t74.5 -55t30.5 -85.5zM122 405q0 -38 42.5 -64t111 -52.5
t101.5 -53.5q19 21 19 46q0 30 -28.5 53.5t-66 36.5t-85.5 34.5t-75 44.5q-19 -19 -19 -45z" />
    <glyph glyph-name="dieresis" unicode="&#xa8;" horiz-adv-x="413" 
d="M102 567q-34 0 -56 22t-22 55q0 34 22 56t56 22t55.5 -21.5t21.5 -55.5t-21.5 -56t-55.5 -22zM312 567q-34 0 -56 22t-22 55q0 34 22 56t56 22t55.5 -21.5t21.5 -55.5t-21.5 -56t-55.5 -22z" />
    <glyph glyph-name="copyright" unicode="&#xa9;" horiz-adv-x="758" 
d="M378 690q147 0 248 -100.5t101 -248.5q0 -149 -101 -250t-248 -101t-247.5 101t-100.5 250q0 147 101 248t247 101zM378 37q126 0 212 88t86 216q0 127 -86 215t-212 88q-124 0 -210.5 -88t-86.5 -215t86 -215.5t211 -88.5zM457 405q0 31 27 44q-26 43 -83 43
q-56 0 -88 -37t-32 -112q0 -73 31.5 -112t86.5 -39q89 0 119 109l43 -15q-15 -71 -60.5 -108t-114.5 -37q-90 0 -147 55.5t-57 141.5t58 142t149 56q75 0 124.5 -39.5t49.5 -85.5q0 -25 -16 -40t-38 -15q-21 0 -36.5 14t-15.5 35z" />
    <glyph glyph-name="ordfeminine" unicode="&#xaa;" horiz-adv-x="448" 
d="M397 343h30v-59h-125l-17 51q-34 -59 -113 -59q-58 0 -93.5 33.5t-35.5 86.5q0 49 35 80.5t92 31.5q76 0 109 -49v80q0 103 -81 103q-31 0 -59 -12q28 -9 28 -43q0 -24 -15 -39.5t-39 -15.5t-38.5 15.5t-14.5 39.5q0 43 44.5 73t109.5 30q73 0 117 -40t44 -107v-177
q0 -23 22 -23zM214 332q27 0 46 18.5t19 46.5q0 27 -19 45.5t-46 18.5q-29 0 -46.5 -18.5t-17.5 -46.5t17.5 -46t46.5 -18zM66 138v66h346v-66h-346z" />
    <glyph glyph-name="guillemotleft" unicode="&#xab;" horiz-adv-x="505" 
d="M265 92l-32 -30l-193 167v60l193 167l32 -29l-122 -166zM465 92l-32 -30l-193 167v60l193 167l32 -29l-122 -166z" />
    <glyph glyph-name="registered" unicode="&#xae;" horiz-adv-x="532" 
d="M265 690q100 0 168 -68t68 -168q0 -101 -68 -169.5t-168 -68.5q-99 0 -167 68.5t-68 169.5q0 100 68 168t167 68zM265 253q83 0 140 58t57 143q0 84 -57 142t-140 58q-82 0 -139 -58.5t-57 -141.5q0 -85 57 -143t139 -58zM389 365h16v-28h-94l-22 67q-6 23 -37 23h-12
v-48q0 -11 13 -11h25v-31h-131v31h23q11 0 11 11v163q0 12 -11 12h-23v31h131q43 0 72 -22.5t29 -55.5q0 -25 -17 -45.5t-46 -29.5q26 -8 36 -30l12 -25q6 -12 25 -12zM240 457h25q23 0 36.5 14t13.5 36q0 20 -13.5 33.5t-36.5 13.5h-25v-97z" />
    <glyph glyph-name="macron" unicode="&#xaf;" horiz-adv-x="390" 
d="M45 672h300v-86h-300v86z" />
    <glyph glyph-name="degree" unicode="&#xb0;" horiz-adv-x="399" 
d="M200 354q-73 0 -121.5 48.5t-48.5 119.5q0 72 48.5 120t121.5 48t121 -48t48 -120t-48.5 -120t-120.5 -48zM200 418q40 0 66 29t26 75t-25.5 75.5t-66.5 29.5t-67.5 -29.5t-26.5 -75.5t26.5 -75t67.5 -29z" />
    <glyph glyph-name="plusminus" unicode="&#xb1;" horiz-adv-x="576" 
d="M248 345h-178v71h178v145h81v-145h177v-71h-177v-145h-81v145zM70 57v74h436v-74h-436z" />
    <glyph glyph-name="uni00B2" unicode="&#xb2;" horiz-adv-x="360" 
d="M283 413h57v-137h-314v43q24 24 64 63.5t55.5 55.5t35.5 41t26.5 45t6.5 43q0 32 -17.5 51t-49.5 19t-54 -18q40 -12 40 -51q0 -23 -16 -39.5t-40 -16.5q-25 0 -41 16.5t-16 44.5q0 45 42.5 81t114.5 36q64 0 106 -30t42 -93q0 -41 -23 -76.5t-51 -57.5t-96 -69
q-17 -12 -26 -18l94 4q20 1 32 4.5t17.5 16t6.5 16.5t4 26z" />
    <glyph glyph-name="uni00B3" unicode="&#xb3;" horiz-adv-x="350" 
d="M210 482q56 -6 88 -32t32 -66q0 -51 -44.5 -83t-109.5 -32q-70 0 -113 31.5t-43 76.5q0 26 16.5 43t40.5 17q25 0 40.5 -15.5t15.5 -39.5q0 -37 -37 -49q21 -12 51 -12q33 0 53 16.5t20 50.5q0 30 -18.5 48.5t-51.5 18.5h-13v56h13q32 0 50 17t18 47q0 32 -19.5 48
t-51.5 16q-29 0 -50 -12q37 -14 37 -49q0 -24 -16 -39.5t-40 -15.5t-40.5 16.5t-16.5 42.5q0 45 42.5 76.5t112.5 31.5q64 0 107 -31t43 -81q0 -39 -30 -64t-86 -32z" />
    <glyph glyph-name="acute" unicode="&#xb4;" horiz-adv-x="265" 
d="M44 573q59 139 77 164q4 6 8 11q20 22 45 24.5t47 -15.5q23 -19 24.5 -45t-17.5 -47q-27 -32 -157 -115z" />
    <glyph glyph-name="paragraph" unicode="&#xb6;" horiz-adv-x="697" 
d="M325 680h342v-70h-81q-31 0 -31 -31v-587q0 -182 -238 -182q-118 0 -174.5 37.5t-56.5 87.5q0 38 24 62.5t60 24.5q34 0 57.5 -23t23.5 -56q0 -60 -63 -75q23 -9 51 -9q48 0 62 30t14 103v272q-118 1 -191.5 57.5t-73.5 153.5q0 93 69.5 149t205.5 56zM475 -8v618h-81
v-618q0 -83 -28 -129q109 19 109 129z" />
    <glyph glyph-name="periodcentered" unicode="&#xb7;" horiz-adv-x="338" 
d="M170 412q35 0 57.5 -23t22.5 -58q0 -36 -22.5 -58.5t-57.5 -22.5t-58.5 23.5t-23.5 58.5q0 34 23.5 57t58.5 23z" />
    <glyph glyph-name="cedilla" unicode="&#xb8;" horiz-adv-x="260" 
d="M129 -59q49 0 80.5 -22.5t31.5 -61.5q0 -41 -35 -67.5t-88 -26.5q-48 0 -101 28l18 43q38 -22 74 -22q23 0 37.5 10.5t14.5 28.5q0 24 -26.5 34.5t-69.5 4.5l-11 25l54 90h52z" />
    <glyph glyph-name="uni00B9" unicode="&#xb9;" horiz-adv-x="319" 
d="M236 329h63v-60h-279v60h66q19 0 19 20v212h-79v50q57 4 77 16t26 54h87v-332q0 -20 20 -20z" />
    <glyph glyph-name="ordmasculine" unicode="&#xba;" horiz-adv-x="488" 
d="M244 690q94 0 151.5 -58t57.5 -147q0 -91 -58 -150t-151 -59t-151 59t-58 150q0 89 58 147t151 58zM245 326q50 0 73.5 38.5t23.5 120.5q0 80 -23.5 117.5t-73.5 37.5q-51 0 -75 -37.5t-24 -117.5q0 -82 24 -120.5t75 -38.5zM62 204h364v-66h-364v66z" />
    <glyph glyph-name="guillemotright" unicode="&#xbb;" horiz-adv-x="505" 
d="M40 92l122 169l-122 166l32 29l193 -167v-60l-193 -167zM240 92l122 169l-122 166l32 29l193 -167v-60l-193 -167z" />
    <glyph glyph-name="onequarter" unicode="&#xbc;" horiz-adv-x="834" 
d="M687 678q34 -25 -3 -77q-18 -25 -94.5 -113t-118.5 -129l-14 11q24 51 82 154t75 128q36 51 73 26zM299 329v-60h-279v60h66q19 0 19 20v212h-79v50q57 4 77 16t26 54h87v-332q0 -20 20 -20h63zM814 103h-61v-26q0 -20 20 -20h32v-57h-222v57h53q20 0 20 20v26h-174v58
q92 102 108 192q0 1 1.5 8t2 9.5t2.5 9.5t4 10t5 8.5t6.5 8.5t8.5 6t11 4.5t13 1.5q23 0 36.5 -16t13.5 -40q0 -26 -10.5 -50.5t-35 -50t-38 -38t-46.5 -38t-34 -25.5h126v58q47 42 57 81h40v-139h61v-58zM207 81q20 26 96.5 113.5t117.5 128.5l14 -11q-22 -53 -79 -152.5
t-78 -129.5q-37 -52 -73 -26q-35 25 2 77z" />
    <glyph glyph-name="onehalf" unicode="&#xbd;" horiz-adv-x="887" 
d="M691 678q34 -25 -3 -77q-18 -25 -94.5 -113t-118.5 -129l-14 11q24 51 82 154t75 128q36 51 73 26zM299 329v-60h-279v60h66q19 0 19 20v212h-79v50q57 4 77 16t26 54h87v-332q0 -20 20 -20h63zM810 137h57v-137h-314v43q24 24 64 63.5t55.5 55.5t35.5 41t26.5 45t6.5 43
q0 32 -17.5 51t-49.5 19t-54 -18q40 -12 40 -51q0 -23 -16 -39.5t-40 -16.5q-25 0 -41 16.5t-16 44.5q0 45 42.5 81t114.5 36q64 0 106 -30t42 -93q0 -41 -23 -76.5t-51 -57.5t-96 -69q-17 -12 -26 -18l94 4q20 1 32 4.5t17.5 16t6.5 16.5t4 26zM211 81q20 26 96.5 113.5
t117.5 128.5l14 -11q-22 -53 -79 -152.5t-78 -129.5q-37 -52 -73 -26q-35 25 2 77z" />
    <glyph glyph-name="threequarters" unicode="&#xbe;" horiz-adv-x="840" 
d="M210 482q56 -6 88 -32t32 -66q0 -51 -44.5 -83t-109.5 -32q-70 0 -113 31.5t-43 76.5q0 26 16.5 43t40.5 17q25 0 40.5 -15.5t15.5 -39.5q0 -37 -37 -49q21 -12 51 -12q33 0 53 16.5t20 50.5q0 30 -18.5 48.5t-51.5 18.5h-13v56h13q32 0 50 17t18 47q0 32 -19.5 48
t-51.5 16q-29 0 -50 -12q37 -14 37 -49q0 -24 -16 -39.5t-40 -15.5t-40.5 16.5t-16.5 42.5q0 45 42.5 76.5t112.5 31.5q64 0 107 -31t43 -81q0 -39 -30 -64t-86 -32zM453 370q24 51 82 154t75 128q36 51 73 26q34 -25 -3 -77q-18 -25 -94.5 -113t-118.5 -129zM820 103h-61
v-26q0 -20 20 -20h32v-57h-222v57h53q20 0 20 20v26h-174v58q92 102 108 192q0 1 1.5 8t2 9.5t2.5 9.5t4 10t5 8.5t6.5 8.5t8.5 6t11 4.5t13 1.5q23 0 36.5 -16t13.5 -40q0 -26 -10.5 -50.5t-35 -50t-38 -38t-46.5 -38t-34 -25.5h126v58q47 42 57 81h40v-139h61v-58z
M431 312q-22 -53 -79 -152.5t-78 -129.5q-37 -52 -73 -26q-35 25 2 77q20 26 96.5 113.5t117.5 128.5z" />
    <glyph glyph-name="questiondown" unicode="&#xbf;" horiz-adv-x="518" 
d="M262 352q-35 0 -58 22.5t-23 57.5t23 58.5t58 23.5t58.5 -23t23.5 -59q0 -35 -23.5 -57.5t-58.5 -22.5zM409 82q33 0 56 -23.5t23 -65.5q0 -68 -59 -124.5t-172 -56.5q-101 0 -165 47.5t-64 131.5q0 42 18.5 80t44 64.5t65 52t67.5 39.5t66 30l30 -35q-44 -35 -71 -61
t-52 -71t-25 -92q0 -58 32 -87t87 -29q72 0 106 50q-30 5 -48.5 24.5t-18.5 47.5q0 33 23 55.5t57 22.5z" />
    <glyph glyph-name="Agrave" unicode="&#xc0;" horiz-adv-x="758" 
d="M404 725q-130 83 -157 115q-19 21 -17.5 47t24.5 45q22 18 47 15.5t45 -24.5q21 -24 76 -155q3 -6 5 -10.5t4 -9.5zM720 75h33v-75h-319v75h59q15 0 21.5 8.5t0.5 21.5l-34 81h-269l-33 -80q-5 -13 0.5 -22t20.5 -9h64v-75h-259v75h38q34 0 48 34l243 571h85l253 -575
q14 -30 48 -30zM239 252h214l-108 259z" />
    <glyph glyph-name="Aacute" unicode="&#xc1;" horiz-adv-x="758" 
d="M534 840q-27 -32 -157 -115l-27 23q59 139 77 164q4 6 8 11q20 22 45 24.5t47 -15.5q23 -19 24.5 -45t-17.5 -47zM720 75h33v-75h-319v75h59q15 0 21.5 8.5t0.5 21.5l-34 81h-269l-33 -80q-5 -13 0.5 -22t20.5 -9h64v-75h-259v75h38q34 0 48 34l243 571h85l253 -575
q14 -30 48 -30zM239 252h214l-108 259z" />
    <glyph glyph-name="Acircumflex" unicode="&#xc2;" horiz-adv-x="758" 
d="M378 810l-108 -77l-40 35l111 143q21 26 37 26q15 0 36 -26l112 -143l-40 -35zM720 75h33v-75h-319v75h59q15 0 21.5 8.5t0.5 21.5l-34 81h-269l-33 -80q-5 -13 0.5 -22t20.5 -9h64v-75h-259v75h38q34 0 48 34l243 571h85l253 -575q14 -30 48 -30zM239 252h214l-108 259z
" />
    <glyph glyph-name="Atilde" unicode="&#xc3;" horiz-adv-x="758" 
d="M292 805q-16 0 -26 -7.5t-13 -15t-9 -27.5l-51 17q10 133 114 133q34 0 84.5 -28.5t73.5 -28.5q8 0 15 3t11 5.5t8 9.5t5 9.5t4 12.5l3 9l51 -9q-8 -140 -114 -140q-32 0 -81 28.5t-75 28.5zM720 75h33v-75h-319v75h59q15 0 21.5 8.5t0.5 21.5l-34 81h-269l-33 -80
q-5 -13 0.5 -22t20.5 -9h64v-75h-259v75h38q34 0 48 34l243 571h85l253 -575q14 -30 48 -30zM239 252h214l-108 259z" />
    <glyph glyph-name="Adieresis" unicode="&#xc4;" horiz-adv-x="758" 
d="M273 742q-34 0 -56 22t-22 55q0 34 22 56t56 22t55.5 -21.5t21.5 -55.5t-21.5 -56t-55.5 -22zM483 742q-34 0 -56 22t-22 55q0 34 22 56t56 22t55.5 -21.5t21.5 -55.5t-21.5 -56t-55.5 -22zM720 75h33v-75h-319v75h59q15 0 21.5 8.5t0.5 21.5l-34 81h-269l-33 -80
q-5 -13 0.5 -22t20.5 -9h64v-75h-259v75h38q34 0 48 34l243 571h85l253 -575q14 -30 48 -30zM239 252h214l-108 259z" />
    <glyph glyph-name="Aring" unicode="&#xc5;" horiz-adv-x="758" 
d="M378 730q-52 0 -86.5 30.5t-34.5 76.5t34.5 76.5t86.5 30.5t86 -30t34 -76q0 -47 -34 -77.5t-86 -30.5zM377 892q-22 0 -37 -15.5t-15 -38.5q0 -24 15 -39t38 -15t37.5 15t14.5 38q0 24 -15 39.5t-38 15.5zM720 75h33v-75h-319v75h59q15 0 21.5 8.5t0.5 21.5l-34 81h-269
l-33 -80q-5 -13 0.5 -22t20.5 -9h64v-75h-259v75h38q34 0 48 34l243 571h85l253 -575q14 -30 48 -30zM239 252h214l-108 259z" />
    <glyph glyph-name="AE" unicode="&#xc6;" horiz-adv-x="1023" 
d="M890 210h80v-210h-597v75h71q31 0 31 31v80h-234l-51 -80q-7 -13 -0.5 -22t21.5 -9h64v-75h-270v75h38q26 0 48 34l305 469q10 14 4 22q-3 5 -27 5h-53v75h625v-210h-80q-8 72 -17 92q-22 42 -81 43h-152v-269h81q11 0 19.5 2.5t14.5 9t9.5 11t6.5 16.5t4 16.5t3 20
t3 19.5h62v-265h-62q-1 5 -2.5 19.5t-3 20t-4 17t-6.5 16t-9.5 11t-14.5 9t-20 2.5h-81v-186h172q26 0 44.5 8.5t28 18t16.5 32t9 34.5t5 42zM283 252h192v303z" />
    <glyph glyph-name="Ccedilla" unicode="&#xc7;" horiz-adv-x="733" 
d="M394 -10q-16 0 -24 1l-24 -50q49 0 80.5 -22.5t31.5 -61.5q0 -41 -35 -67.5t-88 -26.5q-49 0 -101 28l18 43q38 -22 74 -22q23 0 37.5 10.5t14.5 28.5q0 24 -26.5 34.5t-69.5 4.5l-11 25l49 82q-124 23 -200 118t-76 225q0 151 99.5 250.5t253.5 99.5q129 0 211.5 -67.5
t82.5 -145.5q0 -42 -25 -65.5t-61 -23.5t-59.5 22.5t-23.5 55.5q0 52 48 72q-48 79 -154 79q-99 0 -157.5 -70t-58.5 -199t56.5 -203t154.5 -74q79 0 133.5 51.5t78.5 143.5l70 -19q-24 -126 -102.5 -191.5t-196.5 -65.5z" />
    <glyph glyph-name="Egrave" unicode="&#xc8;" horiz-adv-x="675" 
d="M416 748l-27 -23q-130 83 -157 115q-19 21 -17.5 47t24.5 45q22 18 47 15.5t45 -24.5q21 -24 76 -155q3 -6 5 -10.5t4 -9.5zM543 210h80v-210h-593v75h67q31 0 31 31v468q0 31 -31 31h-67v75h568v-210h-80q-8 72 -17 92q-22 42 -81 43h-152v-269h81q11 0 19.5 2.5t14.5 9
t9.5 11t6.5 16.5t4 16.5t3 20t3 19.5h62v-265h-62q-1 5 -2.5 19.5t-3 20t-4 17t-6.5 16t-9.5 11t-14.5 9t-20 2.5h-81v-186h172q26 0 44.5 8.5t28 18t16.5 32t9 34.5t5 42z" />
    <glyph glyph-name="Eacute" unicode="&#xc9;" horiz-adv-x="675" 
d="M310 748q59 139 77 164q4 6 8 11q20 22 45 24.5t47 -15.5q23 -19 24.5 -45t-17.5 -47q-27 -32 -157 -115zM543 210h80v-210h-593v75h67q31 0 31 31v468q0 31 -31 31h-67v75h568v-210h-80q-8 72 -17 92q-22 42 -81 43h-152v-269h81q11 0 19.5 2.5t14.5 9t9.5 11t6.5 16.5
t4 16.5t3 20t3 19.5h62v-265h-62q-1 5 -2.5 19.5t-3 20t-4 17t-6.5 16t-9.5 11t-14.5 9t-20 2.5h-81v-186h172q26 0 44.5 8.5t28 18t16.5 32t9 34.5t5 42z" />
    <glyph glyph-name="Ecircumflex" unicode="&#xca;" horiz-adv-x="675" 
d="M230 733l-40 35l111 143q21 26 37 26q15 0 36 -26l112 -143l-40 -35l-108 77zM543 210h80v-210h-593v75h67q31 0 31 31v468q0 31 -31 31h-67v75h568v-210h-80q-8 72 -17 92q-22 42 -81 43h-152v-269h81q11 0 19.5 2.5t14.5 9t9.5 11t6.5 16.5t4 16.5t3 20t3 19.5h62v-265
h-62q-1 5 -2.5 19.5t-3 20t-4 17t-6.5 16t-9.5 11t-14.5 9t-20 2.5h-81v-186h172q26 0 44.5 8.5t28 18t16.5 32t9 34.5t5 42z" />
    <glyph glyph-name="Edieresis" unicode="&#xcb;" horiz-adv-x="675" 
d="M233 742q-34 0 -56 22t-22 55q0 34 22 56t56 22t55.5 -21.5t21.5 -55.5t-21.5 -56t-55.5 -22zM443 742q-34 0 -56 22t-22 55q0 34 22 56t56 22t55.5 -21.5t21.5 -55.5t-21.5 -56t-55.5 -22zM543 210h80v-210h-593v75h67q31 0 31 31v468q0 31 -31 31h-67v75h568v-210h-80
q-8 72 -17 92q-22 42 -81 43h-152v-269h81q11 0 19.5 2.5t14.5 9t9.5 11t6.5 16.5t4 16.5t3 20t3 19.5h62v-265h-62q-1 5 -2.5 19.5t-3 20t-4 17t-6.5 16t-9.5 11t-14.5 9t-20 2.5h-81v-186h172q26 0 44.5 8.5t28 18t16.5 32t9 34.5t5 42z" />
    <glyph glyph-name="Igrave" unicode="&#xcc;" horiz-adv-x="412" 
d="M260 748l-27 -23q-130 83 -157 115q-19 21 -17.5 47t24.5 45q22 18 47 15.5t45 -24.5q21 -24 76 -155q3 -6 5 -10.5t4 -9.5zM307 605q-31 0 -31 -31v-468q0 -31 31 -31h70v-75h-342v75h70q31 0 31 31v468q0 31 -31 31h-70v75h342v-75h-70z" />
    <glyph glyph-name="Iacute" unicode="&#xcd;" horiz-adv-x="412" 
d="M179 748q59 139 77 164q4 6 8 11q20 22 45 24.5t47 -15.5q23 -19 24.5 -45t-17.5 -47q-27 -32 -157 -115zM307 605q-31 0 -31 -31v-468q0 -31 31 -31h70v-75h-342v75h70q31 0 31 31v468q0 31 -31 31h-70v75h342v-75h-70z" />
    <glyph glyph-name="Icircumflex" unicode="&#xce;" horiz-adv-x="412" 
d="M99 733l-40 35l111 143q21 26 37 26q15 0 36 -26l112 -143l-40 -35l-108 77zM307 605q-31 0 -31 -31v-468q0 -31 31 -31h70v-75h-342v75h70q31 0 31 31v468q0 31 -31 31h-70v75h342v-75h-70z" />
    <glyph glyph-name="Idieresis" unicode="&#xcf;" horiz-adv-x="412" 
d="M102 742q-34 0 -56 22t-22 55q0 34 22 56t56 22t55.5 -21.5t21.5 -55.5t-21.5 -56t-55.5 -22zM312 742q-34 0 -56 22t-22 55q0 34 22 56t56 22t55.5 -21.5t21.5 -55.5t-21.5 -56t-55.5 -22zM307 605q-31 0 -31 -31v-468q0 -31 31 -31h70v-75h-342v75h70q31 0 31 31v468
q0 31 -31 31h-70v75h342v-75h-70z" />
    <glyph glyph-name="Eth" unicode="&#xd0;" horiz-adv-x="786" 
d="M375 680q156 0 261.5 -94.5t105.5 -245.5t-105.5 -245.5t-261.5 -94.5h-345v75h67q31 0 31 31v186h-88v80h88v202q0 31 -31 31h-67v75h345zM375 75q100 0 156 72t56 193t-56 193t-156 72h-107v-233h137v-80h-137v-217h107z" />
    <glyph glyph-name="Ntilde" unicode="&#xd1;" horiz-adv-x="782" 
d="M576 888q-8 -140 -114 -140q-32 0 -81 28.5t-75 28.5q-16 0 -26 -7.5t-13 -15t-9 -27.5l-51 17q10 133 114 133q34 0 84.5 -28.5t73.5 -28.5q8 0 15 3t11 5.5t8 9.5t5 9.5t4 12.5l3 9zM762 680v-75h-66q-31 0 -31 -31v-574h-59l-394 506v-400q0 -31 31 -31h76v-75h-289
v75h67q31 0 31 31v468q0 31 -31 31h-67v75h217l334 -432v326q0 31 -31 31h-74v75h286z" />
    <glyph glyph-name="Ograve" unicode="&#xd2;" horiz-adv-x="792" 
d="M450 748l-27 -23q-130 83 -157 115q-19 21 -17.5 47t24.5 45q22 18 47 15.5t45 -24.5q21 -24 76 -155q3 -6 5 -10.5t4 -9.5zM396 690q154 0 253 -100.5t99 -249.5t-99 -249.5t-253 -100.5t-253 100.5t-99 249.5t99 249.5t253 100.5zM396 63q92 0 144.5 74t52.5 203
t-52.5 203t-144.5 74t-144 -74t-52 -203t52 -203t144 -74z" />
    <glyph glyph-name="Oacute" unicode="&#xd3;" horiz-adv-x="792" 
d="M369 748q59 139 77 164q4 6 8 11q20 22 45 24.5t47 -15.5q23 -19 24.5 -45t-17.5 -47q-27 -32 -157 -115zM396 690q154 0 253 -100.5t99 -249.5t-99 -249.5t-253 -100.5t-253 100.5t-99 249.5t99 249.5t253 100.5zM396 63q92 0 144.5 74t52.5 203t-52.5 203t-144.5 74
t-144 -74t-52 -203t52 -203t144 -74z" />
    <glyph glyph-name="Ocircumflex" unicode="&#xd4;" horiz-adv-x="792" 
d="M289 733l-40 35l111 143q21 26 37 26q15 0 36 -26l112 -143l-40 -35l-108 77zM396 690q154 0 253 -100.5t99 -249.5t-99 -249.5t-253 -100.5t-253 100.5t-99 249.5t99 249.5t253 100.5zM396 63q92 0 144.5 74t52.5 203t-52.5 203t-144.5 74t-144 -74t-52 -203t52 -203
t144 -74z" />
    <glyph glyph-name="Otilde" unicode="&#xd5;" horiz-adv-x="792" 
d="M581 888q-8 -140 -114 -140q-33 0 -81 28.5t-75 28.5q-16 0 -26 -7.5t-13 -15t-9 -27.5l-51 17q10 133 114 133q34 0 84.5 -28.5t73.5 -28.5q8 0 15 3t11 5.5t8 9.5t5 9.5t4 12.5l3 9zM396 690q154 0 253 -100.5t99 -249.5t-99 -249.5t-253 -100.5t-253 100.5t-99 249.5
t99 249.5t253 100.5zM396 63q92 0 144.5 74t52.5 203t-52.5 203t-144.5 74t-144 -74t-52 -203t52 -203t144 -74z" />
    <glyph glyph-name="Odieresis" unicode="&#xd6;" horiz-adv-x="792" 
d="M292 742q-34 0 -56 22t-22 55q0 34 22 56t56 22t55.5 -21.5t21.5 -55.5t-21.5 -56t-55.5 -22zM502 742q-34 0 -56 22t-22 55q0 34 22 56t56 22t55.5 -21.5t21.5 -55.5t-21.5 -56t-55.5 -22zM396 690q154 0 253 -100.5t99 -249.5t-99 -249.5t-253 -100.5t-253 100.5
t-99 249.5t99 249.5t253 100.5zM396 63q92 0 144.5 74t52.5 203t-52.5 203t-144.5 74t-144 -74t-52 -203t52 -203t144 -74z" />
    <glyph glyph-name="multiply" unicode="&#xd7;" horiz-adv-x="576" 
d="M482 442l-143 -144l143 -143l-50 -51l-144 144l-143 -144l-51 50l144 144l-144 144l51 50l144 -143l143 143z" />
    <glyph glyph-name="Oslash" unicode="&#xd8;" horiz-adv-x="802" 
d="M772 638l-89 -82q70 -92 70 -216q0 -149 -99 -249.5t-253 -100.5q-143 0 -238 87l-90 -83l-42 54l86 78q-68 93 -68 214q0 149 99 249.5t253 100.5q141 0 239 -87l89 81zM205 340q0 -68 15 -120l336 306q-53 91 -155 91q-92 0 -144 -74t-52 -203zM598 340q0 71 -16 123
l-336 -309q53 -91 155 -91q92 0 144.5 74t52.5 203z" />
    <glyph glyph-name="Ugrave" unicode="&#xd9;" horiz-adv-x="739" 
d="M460 748l-27 -23q-130 83 -157 115q-19 21 -17.5 47t24.5 45q22 18 47 15.5t45 -24.5q21 -24 76 -155q3 -6 5 -10.5t4 -9.5zM726 680v-75h-61q-31 0 -31 -31v-364q0 -98 -69.5 -159t-183.5 -61q-116 0 -193.5 61t-77.5 154v369q0 31 -31 31h-61v75h335v-75h-72
q-31 0 -31 -31v-359q0 -66 41.5 -107t111.5 -41q67 0 108 40t41 108v359q0 31 -31 31h-65v75h270z" />
    <glyph glyph-name="Uacute" unicode="&#xda;" horiz-adv-x="739" 
d="M379 748q59 139 77 164q4 6 8 11q20 22 45 24.5t47 -15.5q23 -19 24.5 -45t-17.5 -47q-27 -32 -157 -115zM726 680v-75h-61q-31 0 -31 -31v-364q0 -98 -69.5 -159t-183.5 -61q-116 0 -193.5 61t-77.5 154v369q0 31 -31 31h-61v75h335v-75h-72q-31 0 -31 -31v-359
q0 -66 41.5 -107t111.5 -41q67 0 108 40t41 108v359q0 31 -31 31h-65v75h270z" />
    <glyph glyph-name="Ucircumflex" unicode="&#xdb;" horiz-adv-x="739" 
d="M299 733l-40 35l111 143q21 26 37 26q15 0 36 -26l112 -143l-40 -35l-108 77zM726 680v-75h-61q-31 0 -31 -31v-364q0 -98 -69.5 -159t-183.5 -61q-116 0 -193.5 61t-77.5 154v369q0 31 -31 31h-61v75h335v-75h-72q-31 0 -31 -31v-359q0 -66 41.5 -107t111.5 -41
q67 0 108 40t41 108v359q0 31 -31 31h-65v75h270z" />
    <glyph glyph-name="Udieresis" unicode="&#xdc;" horiz-adv-x="739" 
d="M302 742q-34 0 -56 22t-22 55q0 34 22 56t56 22t55.5 -21.5t21.5 -55.5t-21.5 -56t-55.5 -22zM512 742q-34 0 -56 22t-22 55q0 34 22 56t56 22t55.5 -21.5t21.5 -55.5t-21.5 -56t-55.5 -22zM726 680v-75h-61q-31 0 -31 -31v-364q0 -98 -69.5 -159t-183.5 -61
q-116 0 -193.5 61t-77.5 154v369q0 31 -31 31h-61v75h335v-75h-72q-31 0 -31 -31v-359q0 -66 41.5 -107t111.5 -41q67 0 108 40t41 108v359q0 31 -31 31h-65v75h270z" />
    <glyph glyph-name="Yacute" unicode="&#xdd;" horiz-adv-x="680" 
d="M522 840q-27 -32 -157 -115l-27 23q59 139 77 164q4 6 8 11q20 22 45 24.5t47 -15.5q23 -19 24.5 -45t-17.5 -47zM416 680h264v-75h-47q-37 0 -56 -32l-168 -279v-188q0 -31 31 -31h79v-75h-360v75h79q31 0 31 31v163l-172 308q-15 28 -51 28h-46v75h319v-75h-51
q-34 0 -18 -31l118 -213l126 216q8 13 3 20.5t-20 7.5h-61v75z" />
    <glyph glyph-name="Thorn" unicode="&#xde;" horiz-adv-x="675" 
d="M370 144h-102v-38q0 -31 31 -31h81v-75h-350v75h67q31 0 31 31v468q0 31 -31 31h-67v75h350v-75h-81q-31 0 -31 -31v-31h102q123 0 198 -54t75 -143q0 -92 -74.5 -147t-198.5 -55zM345 473h-77v-262h77q72 0 110 37.5t38 97.5q0 56 -38 91.5t-110 35.5z" />
    <glyph glyph-name="germandbls" unicode="&#xdf;" horiz-adv-x="650" 
d="M414 366q0 -17 23 -32t55 -30t64.5 -34t55.5 -51.5t23 -74.5q0 -68 -55 -111t-145 -43q-79 0 -123 34.5t-44 86.5q0 34 18.5 54.5t48.5 20.5q27 0 45.5 -17t18.5 -44q0 -44 -44 -55q27 -21 66 -21q38 0 61 19.5t23 50.5q0 25 -17.5 46.5t-42.5 38t-50 33.5t-42.5 41.5
t-17.5 54.5q0 34 25 70.5t50.5 74.5t25.5 77q0 42 -25.5 70.5t-74.5 28.5q-54 0 -83 -38t-29 -110v-506h-209v75h52q31 0 31 31v293q0 31 -31 31h-52v75h84v17q0 83 66.5 137.5t176.5 54.5q94 0 155.5 -41.5t61.5 -114.5q0 -35 -15 -63t-36 -45t-42.5 -30.5t-36.5 -26.5
t-15 -27z" />
    <glyph glyph-name="agrave" unicode="&#xe0;" horiz-adv-x="573" 
d="M318 550q-130 83 -157 115q-19 21 -17.5 47t24.5 45q22 18 47 15.5t45 -24.5q21 -24 76 -155q3 -6 5 -10.5t4 -9.5zM508 75h44v-75h-164l-27 64q-46 -74 -148 -74q-78 0 -128 43t-50 109q0 62 50 103t126 41q97 0 142 -60v100q0 59 -28.5 92.5t-82.5 33.5q-39 0 -73 -13
q37 -14 37 -57q0 -31 -21 -52t-53 -21t-52 21t-20 52q0 55 60 93.5t146 38.5q96 0 153.5 -49.5t57.5 -134.5v-224q0 -31 31 -31zM262 63q39 0 65 22.5t26 57.5t-25.5 57.5t-64.5 22.5t-64.5 -23t-25.5 -58q0 -34 25.5 -56.5t63.5 -22.5z" />
    <glyph glyph-name="aacute" unicode="&#xe1;" horiz-adv-x="573" 
d="M423 665q-27 -32 -157 -115l-27 23q59 139 77 164q4 6 8 11q20 22 45 24.5t47 -15.5q23 -19 24.5 -45t-17.5 -47zM508 75h44v-75h-164l-27 64q-46 -74 -148 -74q-78 0 -128 43t-50 109q0 62 50 103t126 41q97 0 142 -60v100q0 59 -28.5 92.5t-82.5 33.5q-39 0 -73 -13
q37 -14 37 -57q0 -31 -21 -52t-53 -21t-52 21t-20 52q0 55 60 93.5t146 38.5q96 0 153.5 -49.5t57.5 -134.5v-224q0 -31 31 -31zM262 63q39 0 65 22.5t26 57.5t-25.5 57.5t-64.5 22.5t-64.5 -23t-25.5 -58q0 -34 25.5 -56.5t63.5 -22.5z" />
    <glyph glyph-name="acircumflex" unicode="&#xe2;" horiz-adv-x="573" 
d="M267 635l-108 -77l-40 35l111 143q21 26 37 26q15 0 36 -26l112 -143l-40 -35zM508 75h44v-75h-164l-27 64q-46 -74 -148 -74q-78 0 -128 43t-50 109q0 62 50 103t126 41q97 0 142 -60v100q0 59 -28.5 92.5t-82.5 33.5q-39 0 -73 -13q37 -14 37 -57q0 -31 -21 -52
t-53 -21t-52 21t-20 52q0 55 60 93.5t146 38.5q96 0 153.5 -49.5t57.5 -134.5v-224q0 -31 31 -31zM262 63q39 0 65 22.5t26 57.5t-25.5 57.5t-64.5 22.5t-64.5 -23t-25.5 -58q0 -34 25.5 -56.5t63.5 -22.5z" />
    <glyph glyph-name="atilde" unicode="&#xe3;" horiz-adv-x="573" 
d="M181 630q-16 0 -26 -7.5t-13 -15t-9 -27.5l-51 17q10 133 114 133q34 0 84.5 -28.5t73.5 -28.5q8 0 15 3t11 5.5t8 9.5t5 9.5t4 11.5l3 10l51 -9q-8 -140 -114 -140q-33 0 -81 28.5t-75 28.5zM508 75h44v-75h-164l-27 64q-46 -74 -148 -74q-78 0 -128 43t-50 109
q0 62 50 103t126 41q97 0 142 -60v100q0 59 -28.5 92.5t-82.5 33.5q-39 0 -73 -13q37 -14 37 -57q0 -31 -21 -52t-53 -21t-52 21t-20 52q0 55 60 93.5t146 38.5q96 0 153.5 -49.5t57.5 -134.5v-224q0 -31 31 -31zM262 63q39 0 65 22.5t26 57.5t-25.5 57.5t-64.5 22.5
t-64.5 -23t-25.5 -58q0 -34 25.5 -56.5t63.5 -22.5z" />
    <glyph glyph-name="adieresis" unicode="&#xe4;" horiz-adv-x="573" 
d="M162 567q-34 0 -56 22t-22 55q0 34 22 56t56 22t55.5 -21.5t21.5 -55.5t-21.5 -56t-55.5 -22zM372 567q-34 0 -56 22t-22 55q0 34 22 56t56 22t55.5 -21.5t21.5 -55.5t-21.5 -56t-55.5 -22zM508 75h44v-75h-164l-27 64q-46 -74 -148 -74q-78 0 -128 43t-50 109
q0 62 50 103t126 41q97 0 142 -60v100q0 59 -28.5 92.5t-82.5 33.5q-39 0 -73 -13q37 -14 37 -57q0 -31 -21 -52t-53 -21t-52 21t-20 52q0 55 60 93.5t146 38.5q96 0 153.5 -49.5t57.5 -134.5v-224q0 -31 31 -31zM262 63q39 0 65 22.5t26 57.5t-25.5 57.5t-64.5 22.5
t-64.5 -23t-25.5 -58q0 -34 25.5 -56.5t63.5 -22.5z" />
    <glyph glyph-name="aring" unicode="&#xe5;" horiz-adv-x="573" 
d="M267 555q-52 0 -86.5 30.5t-34.5 76.5t34.5 76.5t86.5 30.5t86 -30t34 -76q0 -47 -34 -77.5t-86 -30.5zM266 717q-22 0 -37 -15.5t-15 -38.5q0 -24 15 -39t38 -15t37.5 15t14.5 38q0 24 -15 39.5t-38 15.5zM508 75h44v-75h-164l-27 64q-46 -74 -148 -74q-78 0 -128 43
t-50 109q0 62 50 103t126 41q97 0 142 -60v100q0 59 -28.5 92.5t-82.5 33.5q-39 0 -73 -13q37 -14 37 -57q0 -31 -21 -52t-53 -21t-52 21t-20 52q0 55 60 93.5t146 38.5q96 0 153.5 -49.5t57.5 -134.5v-224q0 -31 31 -31zM262 63q39 0 65 22.5t26 57.5t-25.5 57.5
t-64.5 22.5t-64.5 -23t-25.5 -58q0 -34 25.5 -56.5t63.5 -22.5z" />
    <glyph glyph-name="ae" unicode="&#xe6;" horiz-adv-x="884" 
d="M852 261q0 -11 -3 -31h-355q5 -79 40.5 -123.5t100.5 -44.5q58 0 97 33t50 89l63 -11q-20 -87 -78 -135t-152 -48q-143 0 -208 104q-57 -104 -179 -104q-81 0 -137 43.5t-56 108.5q0 62 50 103t126 41q97 0 142 -60v100q0 59 -28.5 92.5t-82.5 33.5q-38 0 -74 -12
q38 -14 38 -58q0 -31 -21 -52t-53 -21t-52 21t-20 52q0 55 60 93.5t146 38.5q116 0 169 -75q67 75 176 75q110 0 175.5 -70.5t65.5 -182.5zM493 286h228q-3 88 -29 128t-77 40q-53 0 -85.5 -43t-36.5 -125zM262 63q40 0 65.5 22.5t25.5 57.5t-25.5 57.5t-64.5 22.5
t-64.5 -23t-25.5 -58q0 -34 25.5 -56.5t63.5 -22.5z" />
    <glyph glyph-name="ccedilla" unicode="&#xe7;" horiz-adv-x="561" 
d="M321 65q54 0 92 30t50 89l63 -11q-43 -181 -223 -183l-24 -49q49 0 80.5 -22.5t31.5 -61.5q0 -41 -35 -67.5t-88 -26.5q-48 0 -101 28l18 43q38 -22 74 -22q23 0 37.5 10.5t14.5 28.5q0 24 -26.5 34.5t-69.5 4.5l-11 25l47 79q-99 14 -158.5 83t-59.5 171q0 117 77 191.5
t190 74.5q97 0 161.5 -53.5t64.5 -119.5q0 -33 -20.5 -54t-52.5 -21q-33 0 -54.5 20.5t-21.5 52.5q0 47 41 65q-32 43 -98 43q-77 0 -114.5 -51.5t-37.5 -134.5q0 -95 40.5 -145.5t112.5 -50.5z" />
    <glyph glyph-name="egrave" unicode="&#xe8;" horiz-adv-x="563" 
d="M333 550q-130 83 -157 115q-19 21 -17.5 47t24.5 45q22 18 47 15.5t45 -24.5q21 -24 76 -155q3 -6 5 -10.5t4 -9.5zM173 230q13 -168 141 -168q58 0 97 33t50 89l63 -11q-20 -87 -78 -135t-152 -48q-118 0 -189.5 72t-71.5 186q0 115 71.5 190.5t185.5 75.5
q110 0 175.5 -70.5t65.5 -182.5q0 -11 -3 -31h-355zM294 454q-53 0 -85 -43t-36 -125h228q-4 87 -30 127.5t-77 40.5z" />
    <glyph glyph-name="eacute" unicode="&#xe9;" horiz-adv-x="563" 
d="M448 665q-27 -32 -157 -115l-27 23q59 139 77 164q4 6 8 11q20 22 45 24.5t47 -15.5q23 -19 24.5 -45t-17.5 -47zM173 230q13 -168 141 -168q58 0 97 33t50 89l63 -11q-20 -87 -78 -135t-152 -48q-118 0 -189.5 72t-71.5 186q0 115 71.5 190.5t185.5 75.5
q110 0 175.5 -70.5t65.5 -182.5q0 -11 -3 -31h-355zM294 454q-53 0 -85 -43t-36 -125h228q-4 87 -30 127.5t-77 40.5z" />
    <glyph glyph-name="ecircumflex" unicode="&#xea;" horiz-adv-x="563" 
d="M292 635l-108 -77l-40 35l111 143q21 26 37 26q15 0 36 -26l112 -143l-40 -35zM173 230q13 -168 141 -168q58 0 97 33t50 89l63 -11q-20 -87 -78 -135t-152 -48q-118 0 -189.5 72t-71.5 186q0 115 71.5 190.5t185.5 75.5q110 0 175.5 -70.5t65.5 -182.5q0 -11 -3 -31
h-355zM294 454q-53 0 -85 -43t-36 -125h228q-4 87 -30 127.5t-77 40.5z" />
    <glyph glyph-name="edieresis" unicode="&#xeb;" horiz-adv-x="563" 
d="M187 567q-34 0 -56 22t-22 55q0 34 22 56t56 22t55.5 -21.5t21.5 -55.5t-21.5 -56t-55.5 -22zM397 567q-34 0 -56 22t-22 55q0 34 22 56t56 22t55.5 -21.5t21.5 -55.5t-21.5 -56t-55.5 -22zM173 230q13 -168 141 -168q58 0 97 33t50 89l63 -11q-20 -87 -78 -135t-152 -48
q-118 0 -189.5 72t-71.5 186q0 115 71.5 190.5t185.5 75.5q110 0 175.5 -70.5t65.5 -182.5q0 -11 -3 -31h-355zM294 454q-53 0 -85 -43t-36 -125h228q-4 87 -30 127.5t-77 40.5z" />
    <glyph glyph-name="igrave" unicode="&#xec;" horiz-adv-x="344" 
d="M225 573l-27 -23q-130 83 -157 115q-19 21 -17.5 47t24.5 45q22 18 47 15.5t45 -24.5q21 -24 76 -155q3 -6 5 -10.5t4 -9.5zM273 75h51v-75h-291v75h51q31 0 31 31v293q0 31 -31 31h-51v75h209v-399q0 -31 31 -31z" />
    <glyph glyph-name="iacute" unicode="&#xed;" horiz-adv-x="344" 
d="M144 573q59 139 77 164q4 6 8 11q20 22 45 24.5t47 -15.5q23 -19 24.5 -45t-17.5 -47q-27 -32 -157 -115zM273 75h51v-75h-291v75h51q31 0 31 31v293q0 31 -31 31h-51v75h209v-399q0 -31 31 -31z" />
    <glyph glyph-name="icircumflex" unicode="&#xee;" horiz-adv-x="344" 
d="M64 558l-40 35l111 143q21 26 37 26q15 0 36 -26l112 -143l-40 -35l-108 77zM273 75h51v-75h-291v75h51q31 0 31 31v293q0 31 -31 31h-51v75h209v-399q0 -31 31 -31z" />
    <glyph glyph-name="idieresis" unicode="&#xef;" horiz-adv-x="344" 
d="M67 567q-34 0 -56 22t-22 55q0 34 22 56t56 22t55.5 -21.5t21.5 -55.5t-21.5 -56t-55.5 -22zM277 567q-34 0 -56 22t-22 55q0 34 22 56t56 22t55.5 -21.5t21.5 -55.5t-21.5 -56t-55.5 -22zM273 75h51v-75h-291v75h51q31 0 31 31v293q0 31 -31 31h-51v75h209v-399
q0 -31 31 -31z" />
    <glyph glyph-name="eth" unicode="&#xf0;" horiz-adv-x="594" 
d="M395 619q167 -132 167 -364q0 -115 -74.5 -190t-190.5 -75t-190 75t-74 190q0 112 70 185.5t169 73.5q98 0 147 -79q-29 91 -115 160l-151 -40l-15 53l109 29q-48 28 -87 46l94 23q50 -24 81 -44l124 33l14 -54zM297 53q61 0 94 53t33 149q0 89 -33 137.5t-94 48.5
q-60 0 -93.5 -48.5t-33.5 -137.5q0 -96 33.5 -149t93.5 -53z" />
    <glyph glyph-name="ntilde" unicode="&#xf1;" horiz-adv-x="657" 
d="M513 713q-8 -140 -114 -140q-33 0 -81 28.5t-75 28.5q-16 0 -26 -7.5t-13 -15t-9 -27.5l-51 17q10 133 114 133q34 0 84.5 -28.5t73.5 -28.5q8 0 15 3t11 5.5t8 9.5t5 9.5t4 11.5l3 10zM592 75h44v-75h-266v75h34q31 0 31 31v224q0 45 -24 71.5t-63 26.5q-47 0 -80.5 -38
t-33.5 -124v-160q0 -31 31 -31h34v-75h-266v75h44q31 0 31 31v293q0 31 -31 31h-44v75h201v-95q57 104 167 104q69 0 114.5 -44.5t45.5 -114.5v-249q0 -31 31 -31z" />
    <glyph glyph-name="ograve" unicode="&#xf2;" horiz-adv-x="594" 
d="M350 573l-27 -23q-130 83 -157 115q-19 21 -17.5 47t24.5 45q22 18 47 15.5t45 -24.5q21 -24 76 -155q3 -6 5 -10.5t4 -9.5zM297 514q116 0 190.5 -73t74.5 -186q0 -115 -74.5 -190t-190.5 -75t-190 75t-74 190q0 113 74 186t190 73zM297 51q127 0 127 204
q0 199 -127 199t-127 -199q0 -204 127 -204z" />
    <glyph glyph-name="oacute" unicode="&#xf3;" horiz-adv-x="594" 
d="M269 573q59 139 77 164q4 6 8 11q20 22 45 24.5t47 -15.5q23 -19 24.5 -45t-17.5 -47q-27 -32 -157 -115zM297 514q116 0 190.5 -73t74.5 -186q0 -115 -74.5 -190t-190.5 -75t-190 75t-74 190q0 113 74 186t190 73zM297 51q127 0 127 204q0 199 -127 199t-127 -199
q0 -204 127 -204z" />
    <glyph glyph-name="ocircumflex" unicode="&#xf4;" horiz-adv-x="594" 
d="M189 558l-40 35l111 143q21 26 37 26q15 0 36 -26l112 -143l-40 -35l-108 77zM297 514q116 0 190.5 -73t74.5 -186q0 -115 -74.5 -190t-190.5 -75t-190 75t-74 190q0 113 74 186t190 73zM297 51q127 0 127 204q0 199 -127 199t-127 -199q0 -204 127 -204z" />
    <glyph glyph-name="otilde" unicode="&#xf5;" horiz-adv-x="594" 
d="M481 713q-8 -140 -114 -140q-33 0 -81.5 28.5t-74.5 28.5q-16 0 -26 -7.5t-13 -15t-9 -27.5l-51 17q10 133 114 133q34 0 84.5 -28.5t73.5 -28.5q8 0 15 3t11 5.5t8 9.5t5 9.5t4 11.5l3 10zM297 514q116 0 190.5 -73t74.5 -186q0 -115 -74.5 -190t-190.5 -75t-190 75
t-74 190q0 113 74 186t190 73zM297 51q127 0 127 204q0 199 -127 199t-127 -199q0 -204 127 -204z" />
    <glyph glyph-name="odieresis" unicode="&#xf6;" horiz-adv-x="594" 
d="M192 567q-34 0 -56 22t-22 55q0 34 22 56t56 22t55.5 -21.5t21.5 -55.5t-21.5 -56t-55.5 -22zM402 567q-34 0 -56 22t-22 55q0 34 22 56t56 22t55.5 -21.5t21.5 -55.5t-21.5 -56t-55.5 -22zM297 514q116 0 190.5 -73t74.5 -186q0 -115 -74.5 -190t-190.5 -75t-190 75
t-74 190q0 113 74 186t190 73zM297 51q127 0 127 204q0 199 -127 199t-127 -199q0 -204 127 -204z" />
    <glyph glyph-name="divide" unicode="&#xf7;" horiz-adv-x="576" 
d="M289 401q-32 0 -53 21t-21 52q0 32 21 53t53 21t52.5 -20.5t20.5 -52.5t-20.5 -53t-52.5 -21zM53 258v79h469v-79h-469zM289 194q32 0 52.5 -21t20.5 -53t-20.5 -52.5t-52.5 -20.5t-53 21t-21 53q0 31 21 52t53 21z" />
    <glyph glyph-name="oslash" unicode="&#xf8;" horiz-adv-x="597" 
d="M575 472l-61 -57q51 -69 51 -160q0 -115 -74.5 -190t-190.5 -75q-105 0 -175 61l-61 -57l-41 50l59 55q-46 68 -46 156q0 113 74 186t190 73q100 0 172 -56l62 57zM173 255q0 -41 4 -69l225 208q-32 60 -102 60q-127 0 -127 -199zM427 255q0 37 -5 74l-226 -212
q30 -66 104 -66q127 0 127 204z" />
    <glyph glyph-name="ugrave" unicode="&#xf9;" horiz-adv-x="639" 
d="M358 573l-27 -23q-130 83 -157 115q-19 21 -17.5 47t24.5 45q22 18 47 15.5t45 -24.5q21 -24 76 -155q3 -6 5 -10.5t4 -9.5zM570 75h44v-75h-202v94q-57 -104 -167 -104q-69 0 -114.5 44.5t-45.5 114.5v257q-3 24 -30 24h-45v75h201v-331q0 -45 24 -71.5t63 -26.5
q47 0 80.5 38t33.5 124v163q0 29 -30 29h-41v75h198v-399q0 -31 31 -31z" />
    <glyph glyph-name="uacute" unicode="&#xfa;" horiz-adv-x="639" 
d="M461 665q-27 -32 -157 -115l-27 23q59 139 77 164q4 6 8 11q20 22 45 24.5t47 -15.5q23 -19 24.5 -45t-17.5 -47zM570 75h44v-75h-202v94q-57 -104 -167 -104q-69 0 -114.5 44.5t-45.5 114.5v257q-3 24 -30 24h-45v75h201v-331q0 -45 24 -71.5t63 -26.5q47 0 80.5 38
t33.5 124v163q0 29 -30 29h-41v75h198v-399q0 -31 31 -31z" />
    <glyph glyph-name="ucircumflex" unicode="&#xfb;" horiz-adv-x="639" 
d="M197 558l-40 35l111 143q21 26 37 26q15 0 36 -26l112 -143l-40 -35l-108 77zM570 75h44v-75h-202v94q-57 -104 -167 -104q-69 0 -114.5 44.5t-45.5 114.5v257q-3 24 -30 24h-45v75h201v-331q0 -45 24 -71.5t63 -26.5q47 0 80.5 38t33.5 124v163q0 29 -30 29h-41v75h198
v-399q0 -31 31 -31z" />
    <glyph glyph-name="udieresis" unicode="&#xfc;" horiz-adv-x="639" 
d="M200 567q-34 0 -56 22t-22 55q0 34 22 56t56 22t55.5 -21.5t21.5 -55.5t-21.5 -56t-55.5 -22zM410 567q-34 0 -56 22t-22 55q0 34 22 56t56 22t55.5 -21.5t21.5 -55.5t-21.5 -56t-55.5 -22zM570 75h44v-75h-202v94q-57 -104 -167 -104q-69 0 -114.5 44.5t-45.5 114.5v257
q-3 24 -30 24h-45v75h201v-331q0 -45 24 -71.5t63 -26.5q47 0 80.5 38t33.5 124v163q0 29 -30 29h-41v75h198v-399q0 -31 31 -31z" />
    <glyph glyph-name="yacute" unicode="&#xfd;" horiz-adv-x="623" 
d="M490 665q-27 -32 -157 -115l-27 23q59 139 77 164q4 6 8 11q20 22 45 24.5t47 -15.5q23 -19 24.5 -45t-17.5 -47zM397 505h218v-75h-31q-35 0 -49 -33l-185 -417q-41 -92 -81.5 -131t-104.5 -39q-54 0 -91 31.5t-37 79.5q0 36 21.5 59t53.5 23q31 0 51.5 -19.5
t20.5 -48.5q0 -26 -16 -44.5t-40 -20.5q14 -7 32 -7q45 0 70.5 30t49.5 87l6 14l-195 405q-15 31 -47 31h-33v75h296v-75h-44q-15 0 -22 -8t-1 -21l114 -249l106 248q6 14 -1 22t-21 8h-40v75z" />
    <glyph glyph-name="thorn" unicode="&#xfe;" horiz-adv-x="659" 
d="M406 514q98 0 159.5 -72t61.5 -190q0 -119 -61.5 -190.5t-159.5 -71.5q-123 0 -172 99v-163q0 -31 31 -31h99v-75h-331v75h44q31 0 31 31v648q0 31 -31 31h-44v75h201v-267q50 101 172 101zM363 69q57 0 92.5 48.5t35.5 134.5q0 84 -35.5 133t-92.5 49q-59 0 -94 -47.5
t-35 -134.5q0 -88 34.5 -135.5t94.5 -47.5z" />
    <glyph glyph-name="ydieresis" unicode="&#xff;" horiz-adv-x="623" 
d="M229 567q-34 0 -56 22t-22 55q0 34 22 56t56 22t55.5 -21.5t21.5 -55.5t-21.5 -56t-55.5 -22zM439 567q-34 0 -56 22t-22 55q0 34 22 56t56 22t55.5 -21.5t21.5 -55.5t-21.5 -56t-55.5 -22zM397 505h218v-75h-31q-35 0 -49 -33l-185 -417q-41 -92 -81.5 -131t-104.5 -39
q-54 0 -91 31.5t-37 79.5q0 36 21.5 59t53.5 23q31 0 51.5 -19.5t20.5 -48.5q0 -26 -16 -44.5t-40 -20.5q14 -7 32 -7q45 0 70.5 30t49.5 87l6 14l-195 405q-15 31 -47 31h-33v75h296v-75h-44q-15 0 -22 -8t-1 -21l114 -249l106 248q6 14 -1 22t-21 8h-40v75z" />
    <glyph glyph-name="Amacron" unicode="&#x100;" horiz-adv-x="758" 
d="M528 847v-86h-300v86h300zM720 75h33v-75h-319v75h59q15 0 21.5 8.5t0.5 21.5l-34 81h-269l-33 -80q-5 -13 0.5 -22t20.5 -9h64v-75h-259v75h38q34 0 48 34l243 571h85l253 -575q14 -30 48 -30zM239 252h214l-108 259z" />
    <glyph glyph-name="amacron" unicode="&#x101;" horiz-adv-x="573" 
d="M417 672v-86h-300v86h300zM508 75h44v-75h-164l-27 64q-46 -74 -148 -74q-78 0 -128 43t-50 109q0 62 50 103t126 41q97 0 142 -60v100q0 59 -28.5 92.5t-82.5 33.5q-39 0 -73 -13q37 -14 37 -57q0 -31 -21 -52t-53 -21t-52 21t-20 52q0 55 60 93.5t146 38.5
q96 0 153.5 -49.5t57.5 -134.5v-224q0 -31 31 -31zM262 63q39 0 65 22.5t26 57.5t-25.5 57.5t-64.5 22.5t-64.5 -23t-25.5 -58q0 -34 25.5 -56.5t63.5 -22.5z" />
    <glyph glyph-name="Abreve" unicode="&#x102;" horiz-adv-x="758" 
d="M378 749q-67 0 -107 40t-45 118l62 10q20 -79 90 -79q66 0 88 79l61 -10q-4 -78 -44 -118t-105 -40zM720 75h33v-75h-319v75h59q15 0 21.5 8.5t0.5 21.5l-34 81h-269l-33 -80q-5 -13 0.5 -22t20.5 -9h64v-75h-259v75h38q34 0 48 34l243 571h85l253 -575q14 -30 48 -30z
M239 252h214l-108 259z" />
    <glyph glyph-name="abreve" unicode="&#x103;" horiz-adv-x="573" 
d="M267 574q-67 0 -107 40t-45 118l62 10q20 -79 90 -79q66 0 88 79l61 -10q-4 -78 -44 -118t-105 -40zM508 75h44v-75h-164l-27 64q-46 -74 -148 -74q-78 0 -128 43t-50 109q0 62 50 103t126 41q97 0 142 -60v100q0 59 -28.5 92.5t-82.5 33.5q-39 0 -73 -13q37 -14 37 -57
q0 -31 -21 -52t-53 -21t-52 21t-20 52q0 55 60 93.5t146 38.5q96 0 153.5 -49.5t57.5 -134.5v-224q0 -31 31 -31zM262 63q39 0 65 22.5t26 57.5t-25.5 57.5t-64.5 22.5t-64.5 -23t-25.5 -58q0 -34 25.5 -56.5t63.5 -22.5z" />
    <glyph glyph-name="Aogonek" unicode="&#x104;" horiz-adv-x="758" 
d="M693 0q-55 0 -89.5 -26t-34.5 -59q0 -22 13.5 -35t36.5 -13q21 0 51 16l28 -58q-44 -42 -108 -42q-51 0 -85 27.5t-34 71.5q0 37 24 67.5t68 50.5h-129v75h59q15 0 21.5 8.5t0.5 21.5l-34 81h-269l-33 -80q-5 -13 0.5 -22t20.5 -9h64v-75h-259v75h38q34 0 48 34l243 571
h85l253 -575q14 -30 48 -30h33v-75h-60zM239 252h214l-108 259z" />
    <glyph glyph-name="aogonek" unicode="&#x105;" horiz-adv-x="573" 
d="M527 0q-55 0 -89.5 -26t-34.5 -59q0 -22 13.5 -35t36.5 -13q21 0 51 16l28 -58q-44 -42 -108 -42q-51 0 -85 27.5t-34 71.5q0 37 24 67.5t68 50.5h-9l-27 64q-46 -74 -148 -74q-78 0 -128 43t-50 109q0 62 50 103t126 41q97 0 142 -60v100q0 59 -28.5 92.5t-82.5 33.5
q-39 0 -73 -13q37 -14 37 -57q0 -31 -21 -52t-53 -21t-52 21t-20 52q0 55 60 93.5t146 38.5q96 0 153.5 -49.5t57.5 -134.5v-224q0 -31 31 -31h44v-75h-25zM262 63q39 0 65 22.5t26 57.5t-25.5 57.5t-64.5 22.5t-64.5 -23t-25.5 -58q0 -34 25.5 -56.5t63.5 -22.5z" />
    <glyph glyph-name="Cacute" unicode="&#x106;" horiz-adv-x="733" 
d="M556 840q-27 -32 -157 -115l-27 23q59 139 77 164q4 6 8 11q20 22 45 24.5t47 -15.5q23 -19 24.5 -45t-17.5 -47zM623 266l70 -19q-24 -126 -102.5 -191.5t-196.5 -65.5q-154 0 -252 100t-98 250q0 151 99.5 250.5t253.5 99.5q129 0 211.5 -67.5t82.5 -145.5
q0 -42 -25 -65.5t-61 -23.5t-59.5 22.5t-23.5 55.5q0 52 48 72q-48 79 -154 79q-99 0 -157.5 -70t-58.5 -199t56.5 -203t154.5 -74q79 0 133.5 51.5t78.5 143.5z" />
    <glyph glyph-name="cacute" unicode="&#x107;" horiz-adv-x="561" 
d="M464 665q-27 -32 -157 -115l-27 23q59 139 77 164q4 6 8 11q20 22 45 24.5t47 -15.5q23 -19 24.5 -45t-17.5 -47zM321 65q54 0 92 30t50 89l63 -11q-43 -183 -225 -183q-119 0 -193.5 71.5t-74.5 186.5q0 117 77 191.5t190 74.5q97 0 161.5 -53.5t64.5 -119.5
q0 -33 -20.5 -54t-52.5 -21q-33 0 -54.5 20.5t-21.5 52.5q0 47 41 65q-32 43 -98 43q-77 0 -114.5 -51.5t-37.5 -134.5q0 -95 40.5 -145.5t112.5 -50.5z" />
    <glyph glyph-name="Cdotaccent" unicode="&#x10a;" horiz-adv-x="733" 
d="M401 740q-35 0 -58.5 23t-23.5 57q0 35 23.5 58.5t58.5 23.5t57.5 -22.5t22.5 -58.5q0 -35 -22.5 -58t-57.5 -23zM623 266l70 -19q-24 -126 -102.5 -191.5t-196.5 -65.5q-154 0 -252 100t-98 250q0 151 99.5 250.5t253.5 99.5q129 0 211.5 -67.5t82.5 -145.5
q0 -42 -25 -65.5t-61 -23.5t-59.5 22.5t-23.5 55.5q0 52 48 72q-48 79 -154 79q-99 0 -157.5 -70t-58.5 -199t56.5 -203t154.5 -74q79 0 133.5 51.5t78.5 143.5z" />
    <glyph glyph-name="cdotaccent" unicode="&#x10b;" horiz-adv-x="561" 
d="M309 565q-35 0 -58.5 23t-23.5 57q0 35 23.5 58.5t58.5 23.5t57.5 -22.5t22.5 -58.5q0 -35 -22.5 -58t-57.5 -23zM321 65q54 0 92 30t50 89l63 -11q-43 -183 -225 -183q-119 0 -193.5 71.5t-74.5 186.5q0 117 77 191.5t190 74.5q97 0 161.5 -53.5t64.5 -119.5
q0 -33 -20.5 -54t-52.5 -21q-33 0 -54.5 20.5t-21.5 52.5q0 47 41 65q-32 43 -98 43q-77 0 -114.5 -51.5t-37.5 -134.5q0 -95 40.5 -145.5t112.5 -50.5z" />
    <glyph glyph-name="Ccaron" unicode="&#x10c;" horiz-adv-x="733" 
d="M400 733q-16 0 -37 26l-111 143l40 35l108 -77l108 77l40 -35l-112 -143q-21 -26 -36 -26zM623 266l70 -19q-24 -126 -102.5 -191.5t-196.5 -65.5q-154 0 -252 100t-98 250q0 151 99.5 250.5t253.5 99.5q129 0 211.5 -67.5t82.5 -145.5q0 -42 -25 -65.5t-61 -23.5
t-59.5 22.5t-23.5 55.5q0 52 48 72q-48 79 -154 79q-99 0 -157.5 -70t-58.5 -199t56.5 -203t154.5 -74q79 0 133.5 51.5t78.5 143.5z" />
    <glyph glyph-name="ccaron" unicode="&#x10d;" horiz-adv-x="561" 
d="M308 558q-16 0 -37 26l-111 143l40 35l108 -77l108 77l40 -35l-112 -143q-21 -26 -36 -26zM321 65q54 0 92 30t50 89l63 -11q-43 -183 -225 -183q-119 0 -193.5 71.5t-74.5 186.5q0 117 77 191.5t190 74.5q97 0 161.5 -53.5t64.5 -119.5q0 -33 -20.5 -54t-52.5 -21
q-33 0 -54.5 20.5t-21.5 52.5q0 47 41 65q-32 43 -98 43q-77 0 -114.5 -51.5t-37.5 -134.5q0 -95 40.5 -145.5t112.5 -50.5z" />
    <glyph glyph-name="Dcaron" unicode="&#x10e;" horiz-adv-x="786" 
d="M285 937l108 -77l108 77l40 -35l-112 -143q-21 -26 -36 -26q-16 0 -37 26l-111 143zM375 680q156 0 261.5 -94.5t105.5 -245.5t-105.5 -245.5t-261.5 -94.5h-345v75h67q31 0 31 31v468q0 31 -31 31h-67v75h345zM375 75q100 0 156 72t56 193t-56 193t-156 72h-107v-530
h107z" />
    <glyph glyph-name="dcaron" unicode="&#x10f;" horiz-adv-x="652" 
d="M702 689q31 0 52 -20.5t21 -59.5q0 -126 -142 -211l-23 33q36 25 55 46.5t24 34t7 32.5q-33 1 -51 22.5t-18 49.5q0 32 21.5 52.5t53.5 20.5zM552 106q0 -31 31 -31h44v-75h-202v89q-49 -99 -172 -99q-98 0 -159.5 71.5t-61.5 190.5q0 118 61.5 190t159.5 72
q122 0 172 -101v161q0 31 -31 31h-44v75h202v-574zM296 69q60 0 94.5 47.5t34.5 135.5q0 87 -35 134.5t-94 47.5q-57 0 -92.5 -49t-35.5 -133q0 -86 35.5 -134.5t92.5 -48.5z" />
    <glyph glyph-name="Dcroat" unicode="&#x110;" horiz-adv-x="786" 
d="M375 680q156 0 261.5 -94.5t105.5 -245.5t-105.5 -245.5t-261.5 -94.5h-345v75h67q31 0 31 31v186h-88v80h88v202q0 31 -31 31h-67v75h345zM375 75q100 0 156 72t56 193t-56 193t-156 72h-107v-233h137v-80h-137v-217h107z" />
    <glyph glyph-name="dcroat" unicode="&#x111;" horiz-adv-x="652" 
d="M627 562h-75v-456q0 -31 31 -31h44v-75h-202v89q-49 -99 -172 -99q-98 0 -159.5 71.5t-61.5 190.5q0 118 61.5 190t159.5 72q122 0 172 -101v149h-128v60h128v58h127v-58h75v-60zM296 69q60 0 94.5 47.5t34.5 135.5q0 87 -35 134.5t-94 47.5q-57 0 -92.5 -49t-35.5 -133
q0 -86 35.5 -134.5t92.5 -48.5z" />
    <glyph glyph-name="Emacron" unicode="&#x112;" horiz-adv-x="675" 
d="M188 847h300v-86h-300v86zM543 210h80v-210h-593v75h67q31 0 31 31v468q0 31 -31 31h-67v75h568v-210h-80q-8 72 -17 92q-22 42 -81 43h-152v-269h81q11 0 19.5 2.5t14.5 9t9.5 11t6.5 16.5t4 16.5t3 20t3 19.5h62v-265h-62q-1 5 -2.5 19.5t-3 20t-4 17t-6.5 16t-9.5 11
t-14.5 9t-20 2.5h-81v-186h172q26 0 44.5 8.5t28 18t16.5 32t9 34.5t5 42z" />
    <glyph glyph-name="emacron" unicode="&#x113;" horiz-adv-x="563" 
d="M442 672v-86h-300v86h300zM173 230q13 -168 141 -168q58 0 97 33t50 89l63 -11q-20 -87 -78 -135t-152 -48q-118 0 -189.5 72t-71.5 186q0 115 71.5 190.5t185.5 75.5q110 0 175.5 -70.5t65.5 -182.5q0 -11 -3 -31h-355zM294 454q-53 0 -85 -43t-36 -125h228
q-4 87 -30 127.5t-77 40.5z" />
    <glyph glyph-name="Edotaccent" unicode="&#x116;" horiz-adv-x="675" 
d="M339 740q-35 0 -58.5 23t-23.5 57q0 35 23.5 58.5t58.5 23.5t57.5 -22.5t22.5 -58.5q0 -35 -22.5 -58t-57.5 -23zM543 210h80v-210h-593v75h67q31 0 31 31v468q0 31 -31 31h-67v75h568v-210h-80q-8 72 -17 92q-22 42 -81 43h-152v-269h81q11 0 19.5 2.5t14.5 9t9.5 11
t6.5 16.5t4 16.5t3 20t3 19.5h62v-265h-62q-1 5 -2.5 19.5t-3 20t-4 17t-6.5 16t-9.5 11t-14.5 9t-20 2.5h-81v-186h172q26 0 44.5 8.5t28 18t16.5 32t9 34.5t5 42z" />
    <glyph glyph-name="edotaccent" unicode="&#x117;" horiz-adv-x="563" 
d="M293 565q-35 0 -58.5 23t-23.5 57q0 35 23.5 58.5t58.5 23.5t57.5 -22.5t22.5 -58.5q0 -35 -22.5 -58t-57.5 -23zM173 230q13 -168 141 -168q58 0 97 33t50 89l63 -11q-20 -87 -78 -135t-152 -48q-118 0 -189.5 72t-71.5 186q0 115 71.5 190.5t185.5 75.5
q110 0 175.5 -70.5t65.5 -182.5q0 -11 -3 -31h-355zM294 454q-53 0 -85 -43t-36 -125h228q-4 87 -30 127.5t-77 40.5z" />
    <glyph glyph-name="Eogonek" unicode="&#x118;" horiz-adv-x="675" 
d="M611 0q-55 0 -89.5 -26t-34.5 -59q0 -22 13.5 -35t36.5 -13q21 0 51 16l28 -58q-44 -42 -108 -42q-51 0 -85 27.5t-34 71.5q0 37 24 67.5t68 50.5h-451v75h67q31 0 31 31v468q0 31 -31 31h-67v75h568v-210h-80q-8 72 -17 92q-22 42 -81 43h-152v-269h81q11 0 19.5 2.5
t14.5 9t9.5 11t6.5 16.5t4 16.5t3 20t3 19.5h62v-265h-62q-1 5 -2.5 19.5t-3 20t-4 17t-6.5 16t-9.5 11t-14.5 9t-20 2.5h-81v-186h172q26 0 44.5 8.5t28 18t16.5 32t9 34.5t5 42h80v-210h-12z" />
    <glyph glyph-name="eogonek" unicode="&#x119;" horiz-adv-x="563" 
d="M173 230q13 -168 141 -168q58 0 97 33t50 89l63 -11q-15 -65 -51 -107q-37 -46 -51 -64t-26 -42.5t-12 -44.5q0 -22 13.5 -35t34.5 -13q23 0 53 16l27 -58q-41 -42 -108 -42q-51 0 -84.5 27t-33.5 72q0 57 66 113q-30 -5 -58 -5q-118 0 -189.5 72t-71.5 186
q0 115 71.5 190.5t185.5 75.5q110 0 175.5 -70.5t65.5 -182.5q0 -11 -3 -31h-355zM294 454q-53 0 -85 -43t-36 -125h228q-6 168 -107 168z" />
    <glyph glyph-name="Ecaron" unicode="&#x11a;" horiz-adv-x="675" 
d="M230 937l108 -77l108 77l40 -35l-112 -143q-21 -26 -36 -26q-16 0 -37 26l-111 143zM543 210h80v-210h-593v75h67q31 0 31 31v468q0 31 -31 31h-67v75h568v-210h-80q-8 72 -17 92q-22 42 -81 43h-152v-269h81q11 0 19.5 2.5t14.5 9t9.5 11t6.5 16.5t4 16.5t3 20t3 19.5
h62v-265h-62q-1 5 -2.5 19.5t-3 20t-4 17t-6.5 16t-9.5 11t-14.5 9t-20 2.5h-81v-186h172q26 0 44.5 8.5t28 18t16.5 32t9 34.5t5 42z" />
    <glyph glyph-name="ecaron" unicode="&#x11b;" horiz-adv-x="563" 
d="M292 558q-16 0 -37 26l-111 143l40 35l108 -77l108 77l40 -35l-112 -143q-21 -26 -36 -26zM173 230q13 -168 141 -168q58 0 97 33t50 89l63 -11q-20 -87 -78 -135t-152 -48q-118 0 -189.5 72t-71.5 186q0 115 71.5 190.5t185.5 75.5q110 0 175.5 -70.5t65.5 -182.5
q0 -11 -3 -31h-355zM294 454q-53 0 -85 -43t-36 -125h228q-4 87 -30 127.5t-77 40.5z" />
    <glyph glyph-name="Gbreve" unicode="&#x11e;" horiz-adv-x="790" 
d="M415 749q-67 0 -107 40t-45 118l62 10q20 -79 90 -79q66 0 88 79l61 -10q-4 -78 -44 -118t-105 -40zM394 310h364v-75h-45q-31 0 -31 -31v-204h-38l-63 57q-75 -67 -188 -67q-153 0 -251 100t-98 251q0 150 99.5 249.5t253.5 99.5q130 0 212.5 -63.5t82.5 -139.5
q0 -42 -25.5 -65.5t-61.5 -23.5t-59 22.5t-23 55.5q0 53 47 71q-49 70 -155 70q-101 0 -158 -71t-57 -201q0 -125 56.5 -199.5t152.5 -74.5q79 0 133 45v88q0 31 -31 31h-117v75z" />
    <glyph glyph-name="gbreve" unicode="&#x11f;" horiz-adv-x="565" 
d="M272 574q-67 0 -107 40t-45 118l62 10q20 -79 90 -79q66 0 88 79l61 -10q-4 -78 -44 -118t-105 -40zM347 117q82 0 131 -39t49 -99q0 -74 -72.5 -121.5t-200.5 -47.5q-104 0 -171.5 32t-67.5 92q0 79 109 95q-81 29 -81 95t85 86q-85 48 -85 137q0 76 63 121.5t165 45.5
q97 0 161 -43q23 16 31 45q-25 5 -39.5 23.5t-14.5 42.5q0 28 20.5 46.5t51.5 18.5q29 0 48.5 -20t19.5 -51q0 -39 -24.5 -74.5t-62.5 -56.5q37 -42 37 -98q0 -76 -63.5 -122.5t-164.5 -46.5q-53 0 -98 14q-36 -10 -36 -38q0 -17 14.5 -27t37.5 -10h158zM271 464
q-90 0 -90 -118q0 -117 90 -117t90 117q0 118 -90 118zM263 -122q69 0 109 21t40 58q0 24 -21 39t-53 15h-144q-37 0 -59.5 -16.5t-22.5 -42.5q0 -35 41 -54.5t110 -19.5z" />
    <glyph glyph-name="Gdotaccent" unicode="&#x120;" horiz-adv-x="790" 
d="M416 740q-35 0 -58.5 23t-23.5 57q0 35 23.5 58.5t58.5 23.5t57.5 -22.5t22.5 -58.5q0 -35 -22.5 -58t-57.5 -23zM394 310h364v-75h-45q-31 0 -31 -31v-204h-38l-63 57q-75 -67 -188 -67q-153 0 -251 100t-98 251q0 150 99.5 249.5t253.5 99.5q130 0 212.5 -63.5
t82.5 -139.5q0 -42 -25.5 -65.5t-61.5 -23.5t-59 22.5t-23 55.5q0 53 47 71q-49 70 -155 70q-101 0 -158 -71t-57 -201q0 -125 56.5 -199.5t152.5 -74.5q79 0 133 45v88q0 31 -31 31h-117v75z" />
    <glyph glyph-name="gdotaccent" unicode="&#x121;" horiz-adv-x="565" 
d="M273 565q-35 0 -58.5 23t-23.5 57q0 35 23.5 58.5t58.5 23.5t57.5 -22.5t22.5 -58.5q0 -35 -22.5 -58t-57.5 -23zM347 117q82 0 131 -39t49 -99q0 -74 -72.5 -121.5t-200.5 -47.5q-104 0 -171.5 32t-67.5 92q0 79 109 95q-81 29 -81 95t85 86q-85 48 -85 137
q0 76 63 121.5t165 45.5q97 0 161 -43q23 16 31 45q-25 5 -39.5 23.5t-14.5 42.5q0 28 20.5 46.5t51.5 18.5q29 0 48.5 -20t19.5 -51q0 -39 -24.5 -74.5t-62.5 -56.5q37 -42 37 -98q0 -76 -63.5 -122.5t-164.5 -46.5q-53 0 -98 14q-36 -10 -36 -38q0 -17 14.5 -27t37.5 -10
h158zM271 464q-90 0 -90 -118q0 -117 90 -117t90 117q0 118 -90 118zM263 -122q69 0 109 21t40 58q0 24 -21 39t-53 15h-144q-37 0 -59.5 -16.5t-22.5 -42.5q0 -35 41 -54.5t110 -19.5z" />
    <glyph glyph-name="Gcommaaccent" unicode="&#x122;" horiz-adv-x="790" 
d="M394 310h364v-75h-45q-31 0 -31 -31v-204h-38l-63 57q-75 -67 -188 -67q-153 0 -251 100t-98 251q0 150 99.5 249.5t253.5 99.5q130 0 212.5 -63.5t82.5 -139.5q0 -42 -25.5 -65.5t-61.5 -23.5t-59 22.5t-23 55.5q0 53 47 71q-49 70 -155 70q-101 0 -158 -71t-57 -201
q0 -125 56.5 -199.5t152.5 -74.5q79 0 133 45v88q0 31 -31 31h-117v75zM393 -48q32 0 52.5 -21t20.5 -56q0 -50 -37.5 -94t-101.5 -66l-16 31q75 40 82 76h-2q-34 0 -53.5 18.5t-19.5 46.5t21 46.5t54 18.5z" />
    <glyph glyph-name="gcommaaccent" unicode="&#x123;" horiz-adv-x="565" 
d="M267 553q-32 0 -52.5 21t-20.5 56q0 50 37.5 94t101.5 66l16 -31q-75 -40 -82 -76h2q34 0 53.5 -18.5t19.5 -46.5t-21 -46.5t-54 -18.5zM347 117q82 0 131 -39t49 -99q0 -74 -72.5 -121.5t-200.5 -47.5q-104 0 -171.5 32t-67.5 92q0 79 109 95q-81 29 -81 95t85 86
q-85 48 -85 137q0 76 63 121.5t165 45.5q97 0 161 -43q23 16 31 45q-25 5 -39.5 23.5t-14.5 42.5q0 28 20.5 46.5t51.5 18.5q29 0 48.5 -20t19.5 -51q0 -39 -24.5 -74.5t-62.5 -56.5q37 -42 37 -98q0 -76 -63.5 -122.5t-164.5 -46.5q-53 0 -98 14q-36 -10 -36 -38
q0 -17 14.5 -27t37.5 -10h158zM271 464q-90 0 -90 -118q0 -117 90 -117t90 117q0 118 -90 118zM263 -122q69 0 109 21t40 58q0 24 -21 39t-53 15h-144q-37 0 -59.5 -16.5t-22.5 -42.5q0 -35 41 -54.5t110 -19.5z" />
    <glyph glyph-name="Hbar" unicode="&#x126;" horiz-adv-x="818" 
d="M721 605q-31 0 -31 -31v-77h98v-60h-98v-331q0 -31 31 -31h67v-75h-328v75h59q31 0 31 31v155h-282v-155q0 -31 31 -31h59v-75h-328v75h67q31 0 31 31v331h-88v60h88v77q0 31 -31 31h-67v75h328v-75h-59q-31 0 -31 -31v-77h282v77q0 31 -31 31h-59v75h328v-75h-67z
M550 336v101h-282v-101h282z" />
    <glyph glyph-name="hbar" unicode="&#x127;" horiz-adv-x="650" 
d="M585 75h44v-75h-267v75h34q31 0 31 31v224q0 45 -23.5 71.5t-63.5 26.5q-43 0 -75 -32t-38 -103v-187q0 -31 31 -31h33v-75h-266v75h44q31 0 31 31v456h-75v60h75v58h127v-58h128v-60h-128v-152q57 104 166 104q70 0 115.5 -44.5t45.5 -114.5v-249q0 -31 31 -31z" />
    <glyph glyph-name="Imacron" unicode="&#x12a;" horiz-adv-x="412" 
d="M57 847h300v-86h-300v86zM307 605q-31 0 -31 -31v-468q0 -31 31 -31h70v-75h-342v75h70q31 0 31 31v468q0 31 -31 31h-70v75h342v-75h-70z" />
    <glyph glyph-name="imacron" unicode="&#x12b;" horiz-adv-x="344" 
d="M22 672h300v-86h-300v86zM273 75h51v-75h-291v75h51q31 0 31 31v293q0 31 -31 31h-51v75h209v-399q0 -31 31 -31z" />
    <glyph glyph-name="Iogonek" unicode="&#x12e;" horiz-adv-x="412" 
d="M307 605q-31 0 -31 -31v-468q0 -31 31 -31h70v-75h-74q-55 0 -89.5 -26t-34.5 -59q0 -22 13.5 -35t36.5 -13q21 0 51 16l28 -58q-44 -42 -108 -42q-51 0 -85 27.5t-34 71.5q0 37 24 67.5t68 50.5h-138v75h70q31 0 31 31v468q0 31 -31 31h-70v75h342v-75h-70z" />
    <glyph glyph-name="iogonek" unicode="&#x12f;" horiz-adv-x="344" 
d="M181 565q-35 0 -58.5 23t-23.5 57q0 35 23.5 58.5t58.5 23.5t57.5 -22.5t22.5 -58.5q0 -35 -22.5 -58t-57.5 -23zM266 0q-55 0 -89.5 -26t-34.5 -59q0 -22 13.5 -35t36.5 -13q21 0 51 16l28 -58q-43 -42 -108 -42q-51 0 -85 27.5t-34 71.5q0 37 24 67.5t68 50.5h-103v75
h51q31 0 31 31v293q0 31 -31 31h-51v75h209v-399q0 -31 31 -31h51v-75h-58z" />
    <glyph glyph-name="Idotaccent" unicode="&#x130;" horiz-adv-x="412" 
d="M208 740q-35 0 -58.5 23t-23.5 57q0 35 23.5 58.5t58.5 23.5t57.5 -22.5t22.5 -58.5q0 -35 -22.5 -58t-57.5 -23zM307 605q-31 0 -31 -31v-468q0 -31 31 -31h70v-75h-342v75h70q31 0 31 31v468q0 31 -31 31h-70v75h342v-75h-70z" />
    <glyph glyph-name="dotlessi" unicode="&#x131;" horiz-adv-x="344" 
d="M273 75h51v-75h-291v75h51q31 0 31 31v293q0 31 -31 31h-51v75h209v-399q0 -31 31 -31z" />
    <glyph glyph-name="Kcommaaccent" unicode="&#x136;" horiz-adv-x="775" 
d="M346 75v-75h-316v75h67q31 0 31 31v468q0 31 -31 31h-67v75h328v-75h-59q-31 0 -31 -31v-468q0 -31 31 -31h47zM720 75h45v-75h-353v75h56q32 0 10 30l-175 227l221 244q12 14 10 21.5t-17 7.5h-81v75h308v-75h-35q-52 0 -80 -31l-184 -208l193 -252q30 -39 82 -39z
M393 -48q32 0 52.5 -21t20.5 -56q0 -50 -37.5 -94t-101.5 -66l-16 31q75 40 82 76h-2q-34 0 -53.5 18.5t-19.5 46.5t21 46.5t54 18.5z" />
    <glyph glyph-name="kcommaaccent" unicode="&#x137;" horiz-adv-x="634" 
d="M227 106q0 -31 31 -31h33v-75h-266v75h44q31 0 31 31v468q0 31 -31 31h-44v75h202v-574zM603 75h21v-75h-286v75h33q39 0 16 29l-133 162l149 141q10 9 6.5 16t-17.5 7h-86v75h291v-75h-36q-24 0 -38.5 -8t-33.5 -25l-112 -105l148 -178q32 -39 78 -39zM325 -48
q32 0 52.5 -21t20.5 -56q0 -50 -37.5 -94t-101.5 -66l-16 31q75 40 82 76h-2q-34 0 -53.5 18.5t-19.5 46.5t21 46.5t54 18.5z" />
    <glyph glyph-name="Lacute" unicode="&#x139;" horiz-adv-x="645" 
d="M174 748q59 139 77 164q4 6 8 11q20 22 45 24.5t47 -15.5q23 -19 24.5 -45t-17.5 -47q-27 -32 -157 -115zM525 266h75v-266h-570v75h67q31 0 31 31v468q0 31 -31 31h-67v75h365v-75h-96q-31 0 -31 -31v-499h144q32 0 54 14t33.5 43.5t16.5 58.5t9 75z" />
    <glyph glyph-name="lacute" unicode="&#x13a;" horiz-adv-x="349" 
d="M147 748q59 139 77 164q4 6 8 11q20 22 45 24.5t47 -15.5q23 -19 24.5 -45t-17.5 -47q-27 -32 -157 -115zM273 75h51v-75h-291v75h51q31 0 31 31v468q0 31 -31 31h-51v75h209v-574q0 -31 31 -31z" />
    <glyph glyph-name="Lcommaaccent" unicode="&#x13b;" horiz-adv-x="645" 
d="M525 266h75v-266h-570v75h67q31 0 31 31v468q0 31 -31 31h-67v75h365v-75h-96q-31 0 -31 -31v-499h144q32 0 54 14t33.5 43.5t16.5 58.5t9 75zM328 -48q32 0 52.5 -21t20.5 -56q0 -50 -37.5 -94t-101.5 -66l-16 31q75 40 82 76h-2q-34 0 -53.5 18.5t-19.5 46.5t21 46.5
t54 18.5z" />
    <glyph glyph-name="lcommaaccent" unicode="&#x13c;" horiz-adv-x="349" 
d="M273 75h51v-75h-291v75h51q31 0 31 31v468q0 31 -31 31h-51v75h209v-574q0 -31 31 -31zM175 -48q32 0 52.5 -21t20.5 -56q0 -50 -37.5 -94t-101.5 -66l-16 31q75 40 82 76h-2q-34 0 -53.5 18.5t-19.5 46.5t21 46.5t54 18.5z" />
    <glyph glyph-name="Lcaron" unicode="&#x13d;" horiz-adv-x="666" 
d="M447 431q36 25 55 46.5t24 34t7 32.5q-33 1 -51 22.5t-18 49.5q0 32 21.5 52.5t53.5 20.5q31 0 52 -20.5t21 -59.5q0 -126 -142 -211zM412 75q32 0 54 14t33.5 43.5t16.5 58.5t9 75h75v-266h-570v75h67q31 0 31 31v468q0 31 -31 31h-67v75h365v-75h-96q-31 0 -31 -31
v-499h144z" />
    <glyph glyph-name="lcaron" unicode="&#x13e;" horiz-adv-x="349" 
d="M382 689q31 0 52 -20.5t21 -59.5q0 -126 -142 -211l-23 33q36 25 55 46.5t24 34t7 32.5q-33 1 -51 22.5t-18 49.5q0 32 21.5 52.5t53.5 20.5zM242 106q0 -31 31 -31h51v-75h-291v75h51q31 0 31 31v468q0 31 -31 31h-51v75h209v-574z" />
    <glyph glyph-name="Lslash" unicode="&#x141;" horiz-adv-x="645" 
d="M525 266h75v-266h-570v75h67q31 0 31 31v114l-55 -35l-32 58l87 56v275q0 31 -31 31h-67v75h365v-75h-96q-31 0 -31 -31v-186l171 110l31 -57l-202 -130v-236h144q32 0 54 14t33.5 43.5t16.5 58.5t9 75z" />
    <glyph glyph-name="lslash" unicode="&#x142;" horiz-adv-x="352" 
d="M239 106q0 -31 31 -31h51v-75h-291v75h51q31 0 31 31v115l-60 -34l-27 58l87 49v280q0 31 -31 31h-51v75h209v-315l71 40l27 -57l-98 -55v-187z" />
    <glyph glyph-name="Nacute" unicode="&#x143;" horiz-adv-x="782" 
d="M364 748q59 139 77 164q4 6 8 11q20 22 45 24.5t47 -15.5q23 -19 24.5 -45t-17.5 -47q-27 -32 -157 -115zM762 680v-75h-66q-31 0 -31 -31v-574h-59l-394 506v-400q0 -31 31 -31h76v-75h-289v75h67q31 0 31 31v468q0 31 -31 31h-67v75h217l334 -432v326q0 31 -31 31h-74
v75h286z" />
    <glyph glyph-name="nacute" unicode="&#x144;" horiz-adv-x="657" 
d="M485 665q-27 -32 -157 -115l-27 23q59 139 77 164q4 6 8 11q20 22 45 24.5t47 -15.5q23 -19 24.5 -45t-17.5 -47zM592 75h44v-75h-266v75h34q31 0 31 31v224q0 45 -24 71.5t-63 26.5q-47 0 -80.5 -38t-33.5 -124v-160q0 -31 31 -31h34v-75h-266v75h44q31 0 31 31v293
q0 31 -31 31h-44v75h201v-95q57 104 167 104q69 0 114.5 -44.5t45.5 -114.5v-249q0 -31 31 -31z" />
    <glyph glyph-name="Ncommaaccent" unicode="&#x145;" horiz-adv-x="782" 
d="M476 680h286v-75h-66q-31 0 -31 -31v-574h-59l-394 506v-400q0 -31 31 -31h76v-75h-289v75h67q31 0 31 31v468q0 31 -31 31h-67v75h217l334 -432v326q0 31 -31 31h-74v75zM397 -48q32 0 52.5 -21t20.5 -56q0 -50 -37.5 -94t-101.5 -66l-16 31q75 40 82 76h-2
q-34 0 -53.5 18.5t-19.5 46.5t21 46.5t54 18.5z" />
    <glyph glyph-name="ncommaaccent" unicode="&#x146;" horiz-adv-x="657" 
d="M592 75h44v-75h-266v75h34q31 0 31 31v224q0 45 -24 71.5t-63 26.5q-47 0 -80.5 -38t-33.5 -124v-160q0 -31 31 -31h34v-75h-266v75h44q31 0 31 31v293q0 31 -31 31h-44v75h201v-95q57 104 167 104q69 0 114.5 -44.5t45.5 -114.5v-249q0 -31 31 -31zM334 -48
q32 0 52.5 -21t20.5 -56q0 -50 -37.5 -94t-101.5 -66l-16 31q75 40 82 76h-2q-34 0 -53.5 18.5t-19.5 46.5t21 46.5t54 18.5z" />
    <glyph glyph-name="Ncaron" unicode="&#x147;" horiz-adv-x="782" 
d="M284 937l108 -77l108 77l40 -35l-112 -143q-21 -26 -36 -26q-16 0 -37 26l-111 143zM762 680v-75h-66q-31 0 -31 -31v-574h-59l-394 506v-400q0 -31 31 -31h76v-75h-289v75h67q31 0 31 31v468q0 31 -31 31h-67v75h217l334 -432v326q0 31 -31 31h-74v75h286z" />
    <glyph glyph-name="ncaron" unicode="&#x148;" horiz-adv-x="657" 
d="M329 558q-16 0 -37 26l-111 143l40 35l108 -77l108 77l40 -35l-112 -143q-21 -26 -36 -26zM592 75h44v-75h-266v75h34q31 0 31 31v224q0 45 -24 71.5t-63 26.5q-47 0 -80.5 -38t-33.5 -124v-160q0 -31 31 -31h34v-75h-266v75h44q31 0 31 31v293q0 31 -31 31h-44v75h201
v-95q57 104 167 104q69 0 114.5 -44.5t45.5 -114.5v-249q0 -31 31 -31z" />
    <glyph glyph-name="Eng" unicode="&#x14a;" horiz-adv-x="782" 
d="M476 680h286v-75h-66q-31 0 -31 -31v-589q0 -83 -55.5 -129t-138.5 -46q-55 0 -90.5 27.5t-35.5 68.5q0 28 17 46t43 18q27 0 43 -15t16 -41q0 -21 -13.5 -36.5t-34.5 -16.5q13 -6 34 -6q47 0 61 30.5t14 104.5v114l-313 402v-400q0 -31 31 -31h76v-75h-289v75h67
q31 0 31 31v468q0 31 -31 31h-67v75h217l334 -432v326q0 31 -31 31h-74v75z" />
    <glyph glyph-name="eng" unicode="&#x14b;" horiz-adv-x="621" 
d="M401 514q69 0 114.5 -44.5t45.5 -114.5v-365q0 -88 -49 -134t-131 -46q-57 0 -91.5 23t-34.5 63q0 28 17 46t43 18q27 0 43 -15t16 -41q0 -20 -12.5 -32t-31.5 -12q12 -5 30 -5q47 0 61 30.5t14 104.5v340q0 45 -24 71.5t-63 26.5q-47 0 -80.5 -38t-33.5 -124v-160
q0 -31 31 -31h34v-75h-266v75h44q31 0 31 31v293q0 31 -31 31h-44v75h201v-95q57 104 167 104z" />
    <glyph glyph-name="Omacron" unicode="&#x14c;" horiz-adv-x="792" 
d="M247 847h300v-86h-300v86zM396 690q154 0 253 -100.5t99 -249.5t-99 -249.5t-253 -100.5t-253 100.5t-99 249.5t99 249.5t253 100.5zM396 63q92 0 144.5 74t52.5 203t-52.5 203t-144.5 74t-144 -74t-52 -203t52 -203t144 -74z" />
    <glyph glyph-name="omacron" unicode="&#x14d;" horiz-adv-x="594" 
d="M147 672h300v-86h-300v86zM297 514q116 0 190.5 -73t74.5 -186q0 -115 -74.5 -190t-190.5 -75t-190 75t-74 190q0 113 74 186t190 73zM297 51q127 0 127 204q0 199 -127 199t-127 -199q0 -204 127 -204z" />
    <glyph glyph-name="Ohungarumlaut" unicode="&#x150;" horiz-adv-x="792" 
d="M274 748q59 139 77 164q4 6 8 11q20 22 45 24.5t47 -15.5q23 -19 24.5 -45t-17.5 -47q-27 -32 -157 -115zM469 748q59 139 77 164q4 6 8 11q20 22 45 24.5t47 -15.5q23 -19 24.5 -45t-17.5 -47q-27 -32 -157 -115zM396 690q154 0 253 -100.5t99 -249.5t-99 -249.5
t-253 -100.5t-253 100.5t-99 249.5t99 249.5t253 100.5zM396 63q92 0 144.5 74t52.5 203t-52.5 203t-144.5 74t-144 -74t-52 -203t52 -203t144 -74z" />
    <glyph glyph-name="ohungarumlaut" unicode="&#x151;" horiz-adv-x="594" 
d="M174 573q59 139 77 164q4 6 8 11q20 22 45 24.5t47 -15.5q23 -19 24.5 -45t-17.5 -47q-27 -32 -157 -115zM369 573q59 139 77 164q4 6 8 11q20 22 45 24.5t47 -15.5q23 -19 24.5 -45t-17.5 -47q-27 -32 -157 -115zM297 514q116 0 190.5 -73t74.5 -186q0 -115 -74.5 -190
t-190.5 -75t-190 75t-74 190q0 113 74 186t190 73zM297 51q127 0 127 204q0 199 -127 199t-127 -199q0 -204 127 -204z" />
    <glyph glyph-name="OE" unicode="&#x152;" horiz-adv-x="1066" 
d="M934 210h80v-210h-608q-154 2 -258 96t-104 244q0 151 104 244.5t258 95.5h583v-210h-80q-8 72 -17 92q-22 42 -81 43h-152v-269h81q11 0 19.5 2.5t14.5 9t9.5 11t6.5 16.5t4 16.5t3 20t3 19.5h62v-265h-62q-1 5 -2.5 19.5t-3 20t-4 17t-6.5 16t-9.5 11t-14.5 9t-20 2.5
h-81v-186h172q26 0 44.5 8.5t28 18t16.5 32t9 34.5t5 42zM519 605h-108q-100 0 -155.5 -72t-55.5 -193t55.5 -193t155.5 -72h108v530z" />
    <glyph glyph-name="oe" unicode="&#x153;" horiz-adv-x="955" 
d="M565 230q13 -168 141 -168q58 0 97 33t50 89l63 -11q-20 -87 -78 -135t-152 -48q-123 0 -196 78q-75 -78 -193 -78q-116 0 -190 75t-74 190q0 113 74 186t190 73q122 0 196 -79q74 79 189 79q110 0 175.5 -70.5t65.5 -182.5q0 -11 -3 -31h-355zM297 51q127 0 127 204
q0 199 -127 199t-127 -199q0 -204 127 -204zM686 454q-53 0 -85 -43t-36 -125h228q-4 87 -30 127.5t-77 40.5z" />
    <glyph glyph-name="Racute" unicode="&#x154;" horiz-adv-x="743" 
d="M509 840q-27 -32 -157 -115l-27 23q59 139 77 164q4 6 8 11q20 22 45 24.5t47 -15.5q23 -19 24.5 -45t-17.5 -47zM688 75h47v-75h-246l-77 206q-21 65 -100 65h-44v-165q0 -31 31 -31h64v-75h-333v75h67q31 0 31 31v468q0 31 -31 31h-67v75h348q127 0 198.5 -55
t71.5 -137q0 -78 -66.5 -133.5t-147.5 -66.5q100 -22 139 -99l40 -79q10 -20 26.5 -27.5t48.5 -7.5zM353 346q71 0 109.5 40t38.5 95q0 54 -38 89t-110 35h-85v-259h85z" />
    <glyph glyph-name="racute" unicode="&#x155;" horiz-adv-x="501" 
d="M407 665q-27 -32 -157 -115l-27 23q59 139 77 164q4 6 8 11q20 22 45 24.5t47 -15.5q23 -19 24.5 -45t-17.5 -47zM402 514q39 0 63.5 -23t24.5 -58q0 -34 -22 -56.5t-54 -22.5t-52 17t-20 47q0 6 2 18q-98 -28 -107 -234v-96q0 -31 31 -31h89v-75h-322v75h44q31 0 31 31
v293q0 31 -31 31h-44v75h202v-124q49 133 165 133z" />
    <glyph glyph-name="Rcommaaccent" unicode="&#x156;" horiz-adv-x="743" 
d="M688 75h47v-75h-246l-77 206q-21 65 -100 65h-44v-165q0 -31 31 -31h64v-75h-333v75h67q31 0 31 31v468q0 31 -31 31h-67v75h348q127 0 198.5 -55t71.5 -137q0 -78 -66.5 -133.5t-147.5 -66.5q100 -22 139 -99l40 -79q10 -20 26.5 -27.5t48.5 -7.5zM353 346
q71 0 109.5 40t38.5 95q0 54 -38 89t-110 35h-85v-259h85zM377 -48q32 0 52.5 -21t20.5 -56q0 -50 -37.5 -94t-101.5 -66l-16 31q75 40 82 76h-2q-34 0 -53.5 18.5t-19.5 46.5t21 46.5t54 18.5z" />
    <glyph glyph-name="rcommaaccent" unicode="&#x157;" horiz-adv-x="501" 
d="M402 514q39 0 63.5 -23t24.5 -58q0 -34 -22 -56.5t-54 -22.5t-52 17t-20 47q0 6 2 18q-98 -28 -107 -234v-96q0 -31 31 -31h89v-75h-322v75h44q31 0 31 31v293q0 31 -31 31h-44v75h202v-124q49 133 165 133zM169 -48q32 0 52.5 -21t20.5 -56q0 -50 -37.5 -94t-101.5 -66
l-16 31q75 40 82 76h-2q-34 0 -53.5 18.5t-19.5 46.5t21 46.5t54 18.5z" />
    <glyph glyph-name="Rcaron" unicode="&#x158;" horiz-adv-x="743" 
d="M353 733q-16 0 -37 26l-111 143l40 35l108 -77l108 77l40 -35l-112 -143q-21 -26 -36 -26zM688 75h47v-75h-246l-77 206q-21 65 -100 65h-44v-165q0 -31 31 -31h64v-75h-333v75h67q31 0 31 31v468q0 31 -31 31h-67v75h348q127 0 198.5 -55t71.5 -137q0 -78 -66.5 -133.5
t-147.5 -66.5q100 -22 139 -99l40 -79q10 -20 26.5 -27.5t48.5 -7.5zM353 346q71 0 109.5 40t38.5 95q0 54 -38 89t-110 35h-85v-259h85z" />
    <glyph glyph-name="rcaron" unicode="&#x159;" horiz-adv-x="501" 
d="M251 558q-16 0 -37 26l-111 143l40 35l108 -77l108 77l40 -35l-112 -143q-21 -26 -36 -26zM402 514q39 0 63.5 -23t24.5 -58q0 -34 -22 -56.5t-54 -22.5t-52 17t-20 47q0 6 2 18q-98 -28 -107 -234v-96q0 -31 31 -31h89v-75h-322v75h44q31 0 31 31v293q0 31 -31 31h-44
v75h202v-124q49 133 165 133z" />
    <glyph glyph-name="Sacute" unicode="&#x15a;" horiz-adv-x="598" 
d="M454 840q-27 -32 -157 -115l-27 23q59 139 77 164q4 6 8 11q20 22 45 24.5t47 -15.5q23 -19 24.5 -45t-17.5 -47zM184 527q0 -32 20.5 -55t53 -37t72 -27t79.5 -29.5t72.5 -38.5t53 -60t20.5 -88q0 -90 -70 -146t-184 -56q-120 0 -189 57t-69 131q0 40 23.5 63.5
t57.5 23.5t53.5 -20.5t19.5 -51.5q0 -27 -17.5 -44.5t-44.5 -21.5q50 -70 151 -70q61 0 98 29t37 75q0 35 -20 60t-52 40t-71 27.5t-78 28t-71 36t-52 57t-20 85.5q0 89 66.5 142t175.5 53q111 0 177.5 -50t66.5 -120q0 -38 -21 -57t-55 -19q-33 0 -53.5 18.5t-20.5 50.5
q0 50 53 66q-48 46 -129 46q-62 0 -97.5 -27.5t-35.5 -70.5z" />
    <glyph glyph-name="sacute" unicode="&#x15b;" horiz-adv-x="482" 
d="M397 665q-27 -32 -157 -115l-27 23q59 139 77 164q4 6 8 11q20 22 45 24.5t47 -15.5q23 -19 24.5 -45t-17.5 -47zM162 391q0 -27 21.5 -45.5t53 -27.5t69 -22t69 -27.5t53 -45.5t21.5 -75q0 -73 -55 -115.5t-153 -42.5q-91 0 -149.5 37t-58.5 94q0 32 18.5 51t49.5 19
q30 0 49 -17t19 -44q0 -43 -40 -57q41 -29 94 -29q47 0 72.5 21t25.5 55t-28.5 55.5t-69.5 33.5t-82.5 26.5t-70 46.5t-28.5 83q0 73 54.5 111t148.5 38q86 0 138.5 -32t52.5 -84q0 -31 -18.5 -49.5t-49.5 -18.5t-49.5 17t-18.5 45q0 35 33 50q-32 19 -73 19
q-45 0 -71.5 -19.5t-26.5 -50.5z" />
    <glyph glyph-name="Scedilla" unicode="&#x15e;" horiz-adv-x="598" 
d="M301 -10l-24 -49q49 0 80.5 -22.5t31.5 -61.5q0 -41 -35 -67.5t-88 -26.5q-48 0 -101 28l18 43q38 -22 74 -22q23 0 37.5 10.5t14.5 28.5q0 24 -26.5 34.5t-69.5 4.5l-11 25l47 78q-97 13 -151.5 66.5t-54.5 118.5q0 40 23.5 63.5t57.5 23.5t53.5 -20.5t19.5 -51.5
q0 -27 -17.5 -44.5t-44.5 -21.5q50 -70 151 -70q61 0 98 29t37 75q0 35 -20 60t-52 40t-71 27.5t-78 28t-71 36t-52 57t-20 85.5q0 89 66.5 142t175.5 53q111 0 177.5 -50t66.5 -120q0 -38 -21 -57t-55 -19q-33 0 -53.5 18.5t-20.5 50.5q0 50 53 66q-48 46 -129 46
q-62 0 -97.5 -27.5t-35.5 -70.5q0 -32 20.5 -55t53 -37t72 -27t79.5 -29.5t72.5 -38.5t53 -60t20.5 -88q0 -90 -70 -146t-184 -56z" />
    <glyph glyph-name="scedilla" unicode="&#x15f;" horiz-adv-x="482" 
d="M449 148q0 -71 -52.5 -113.5t-144.5 -44.5l-24 -49q49 0 80.5 -22.5t31.5 -61.5q0 -41 -35 -67.5t-88 -26.5q-48 0 -101 28l18 43q38 -22 74 -22q23 0 37.5 10.5t14.5 28.5q0 24 -26.5 34.5t-69.5 4.5l-11 25l46 77q-75 8 -120.5 43.5t-45.5 85.5q0 32 18.5 51t49.5 19
q30 0 49 -17t19 -44q0 -43 -40 -57q41 -29 94 -29q47 0 72.5 21t25.5 55t-28.5 55.5t-69.5 33.5t-82.5 26.5t-70 46.5t-28.5 83q0 73 54.5 111t148.5 38q86 0 138.5 -32t52.5 -84q0 -31 -18.5 -49.5t-49.5 -18.5t-49.5 17t-18.5 45q0 35 33 50q-32 19 -73 19
q-45 0 -71.5 -19.5t-26.5 -50.5q0 -27 21.5 -45.5t53 -27.5t69 -22t69 -27.5t53 -45.5t21.5 -75z" />
    <glyph glyph-name="Scaron" unicode="&#x160;" horiz-adv-x="598" 
d="M298 733q-16 0 -37 26l-111 143l40 35l108 -77l108 77l40 -35l-112 -143q-21 -26 -36 -26zM184 527q0 -32 20.5 -55t53 -37t72 -27t79.5 -29.5t72.5 -38.5t53 -60t20.5 -88q0 -90 -70 -146t-184 -56q-120 0 -189 57t-69 131q0 40 23.5 63.5t57.5 23.5t53.5 -20.5
t19.5 -51.5q0 -27 -17.5 -44.5t-44.5 -21.5q50 -70 151 -70q61 0 98 29t37 75q0 35 -20 60t-52 40t-71 27.5t-78 28t-71 36t-52 57t-20 85.5q0 89 66.5 142t175.5 53q111 0 177.5 -50t66.5 -120q0 -38 -21 -57t-55 -19q-33 0 -53.5 18.5t-20.5 50.5q0 50 53 66
q-48 46 -129 46q-62 0 -97.5 -27.5t-35.5 -70.5z" />
    <glyph glyph-name="scaron" unicode="&#x161;" horiz-adv-x="482" 
d="M241 558q-16 0 -37 26l-111 143l40 35l108 -77l108 77l40 -35l-112 -143q-21 -26 -36 -26zM162 391q0 -27 21.5 -45.5t53 -27.5t69 -22t69 -27.5t53 -45.5t21.5 -75q0 -73 -55 -115.5t-153 -42.5q-91 0 -149.5 37t-58.5 94q0 32 18.5 51t49.5 19q30 0 49 -17t19 -44
q0 -43 -40 -57q41 -29 94 -29q47 0 72.5 21t25.5 55t-28.5 55.5t-69.5 33.5t-82.5 26.5t-70 46.5t-28.5 83q0 73 54.5 111t148.5 38q86 0 138.5 -32t52.5 -84q0 -31 -18.5 -49.5t-49.5 -18.5t-49.5 17t-18.5 45q0 35 33 50q-32 19 -73 19q-45 0 -71.5 -19.5t-26.5 -50.5z
" />
    <glyph glyph-name="uni0162" unicode="&#x162;" horiz-adv-x="688" 
d="M38 680h612v-248h-75q-8 98 -18 124q-20 54 -80 54h-63v-504q0 -31 31 -31h86v-75h-164l-29 -59q49 0 80.5 -22.5t31.5 -61.5q0 -41 -35 -67.5t-88 -26.5q-49 0 -101 28l18 43q38 -22 74 -22q23 0 37.5 10.5t14.5 28.5q0 24 -26.5 34.5t-69.5 4.5l-11 25l51 85h-158v75
h87q31 0 31 31v504h-63q-40 0 -61 -25t-25.5 -49t-9.5 -83q-1 -3 -1 -5v-5t-0.5 -5.5t-0.5 -5.5h-75v248z" />
    <glyph glyph-name="uni0163" unicode="&#x163;" horiz-adv-x="396" 
d="M235 -10h-4l-24 -49q49 0 80.5 -22.5t31.5 -61.5q0 -41 -35 -67.5t-88 -26.5q-49 0 -101 28l18 43q38 -22 74 -22q23 0 37.5 10.5t14.5 28.5q0 24 -26.5 34.5t-69.5 4.5l-11 25l50 83q-48 15 -76 52.5t-28 84.5v295h-75v75h4q55 0 83.5 24t67.5 86h46v-110h168v-75h-168
v-295q0 -26 17 -42.5t42 -16.5q26 0 43.5 16.5t21.5 46.5l58 -13q-12 -67 -51.5 -101.5t-99.5 -34.5z" />
    <glyph glyph-name="Tcaron" unicode="&#x164;" horiz-adv-x="688" 
d="M236 937l108 -77l108 77l40 -35l-112 -143q-21 -26 -36 -26q-16 0 -37 26l-111 143zM650 680v-248h-75q-8 98 -18 124q-20 54 -80 54h-63v-504q0 -31 31 -31h86v-75h-375v75h87q31 0 31 31v504h-63q-40 0 -61 -25t-25.5 -49t-9.5 -83q-1 -3 -1 -5v-5t-0.5 -5.5t-0.5 -5.5
h-75v248h612z" />
    <glyph glyph-name="tcaron" unicode="&#x165;" horiz-adv-x="396" 
d="M252 576q36 25 55 46.5t24 34t7 32.5q-33 1 -51 22.5t-18 49.5q0 32 21.5 52.5t53.5 20.5q31 0 52 -20.5t21 -59.5q0 -126 -142 -211zM263 76q26 0 43.5 16.5t21.5 46.5l58 -13q-12 -67 -51.5 -101.5t-99.5 -34.5q-69 0 -113 42.5t-44 102.5v295h-75v75h4q55 0 83.5 24
t67.5 86h46v-110h168v-75h-168v-295q0 -26 17 -42.5t42 -16.5z" />
    <glyph glyph-name="Tbar" unicode="&#x166;" horiz-adv-x="688" 
d="M38 680h612v-248h-75q-8 98 -18 124q-20 54 -80 54h-63v-268h128v-60h-128v-176q0 -31 31 -31h86v-75h-375v75h87q31 0 31 31v176h-127v60h127v268h-63q-40 0 -61 -25t-25.5 -49t-9.5 -83q-1 -3 -1 -5v-5t-0.5 -5.5t-0.5 -5.5h-75v248z" />
    <glyph glyph-name="tbar" unicode="&#x167;" horiz-adv-x="396" 
d="M328 139l58 -13q-12 -67 -51.5 -101.5t-99.5 -34.5q-69 0 -113 42.5t-44 102.5v146h-53v60h53v89h-75v75h4q55 0 83.5 24t67.5 86h46v-110h168v-75h-168v-89h151v-60h-151v-146q0 -26 17 -42.5t42 -16.5q26 0 43.5 16.5t21.5 46.5z" />
    <glyph glyph-name="Umacron" unicode="&#x16a;" horiz-adv-x="739" 
d="M257 847h300v-86h-300v86zM726 680v-75h-61q-31 0 -31 -31v-364q0 -98 -69.5 -159t-183.5 -61q-116 0 -193.5 61t-77.5 154v369q0 31 -31 31h-61v75h335v-75h-72q-31 0 -31 -31v-359q0 -66 41.5 -107t111.5 -41q67 0 108 40t41 108v359q0 31 -31 31h-65v75h270z" />
    <glyph glyph-name="umacron" unicode="&#x16b;" horiz-adv-x="639" 
d="M155 672h300v-86h-300v86zM570 75h44v-75h-202v94q-57 -104 -167 -104q-69 0 -114.5 44.5t-45.5 114.5v257q-3 24 -30 24h-45v75h201v-331q0 -45 24 -71.5t63 -26.5q47 0 80.5 38t33.5 124v163q0 29 -30 29h-41v75h198v-399q0 -31 31 -31z" />
    <glyph glyph-name="Uring" unicode="&#x16e;" horiz-adv-x="739" 
d="M407 730q-52 0 -86.5 30.5t-34.5 76.5t34.5 76.5t86.5 30.5t86 -30t34 -76q0 -47 -34 -77.5t-86 -30.5zM407 784q23 0 37.5 15t14.5 38q0 24 -15 39.5t-38 15.5q-22 0 -37 -15.5t-15 -38.5q0 -24 15 -39t38 -15zM726 680v-75h-61q-31 0 -31 -31v-364q0 -98 -69.5 -159
t-183.5 -61q-116 0 -193.5 61t-77.5 154v369q0 31 -31 31h-61v75h335v-75h-72q-31 0 -31 -31v-359q0 -66 41.5 -107t111.5 -41q67 0 108 40t41 108v359q0 31 -31 31h-65v75h270z" />
    <glyph glyph-name="uring" unicode="&#x16f;" horiz-adv-x="639" 
d="M305 555q-52 0 -86.5 30.5t-34.5 76.5t34.5 76.5t86.5 30.5t86 -30t34 -76q0 -47 -34 -77.5t-86 -30.5zM305 609q23 0 37.5 15t14.5 38q0 24 -15 39.5t-38 15.5q-22 0 -37 -15.5t-15 -38.5q0 -24 15 -39t38 -15zM570 75h44v-75h-202v94q-57 -104 -167 -104
q-69 0 -114.5 44.5t-45.5 114.5v257q-3 24 -30 24h-45v75h201v-331q0 -45 24 -71.5t63 -26.5q47 0 80.5 38t33.5 124v163q0 29 -30 29h-41v75h198v-399q0 -31 31 -31z" />
    <glyph glyph-name="Uhungarumlaut" unicode="&#x170;" horiz-adv-x="739" 
d="M284 748q59 139 77 164q4 6 8 11q20 22 45 24.5t47 -15.5q23 -19 24.5 -45t-17.5 -47q-27 -32 -157 -115zM479 748q59 139 77 164q4 6 8 11q20 22 45 24.5t47 -15.5q23 -19 24.5 -45t-17.5 -47q-27 -32 -157 -115zM726 680v-75h-61q-31 0 -31 -31v-364q0 -98 -69.5 -159
t-183.5 -61q-116 0 -193.5 61t-77.5 154v369q0 31 -31 31h-61v75h335v-75h-72q-31 0 -31 -31v-359q0 -66 41.5 -107t111.5 -41q67 0 108 40t41 108v359q0 31 -31 31h-65v75h270z" />
    <glyph glyph-name="uhungarumlaut" unicode="&#x171;" horiz-adv-x="639" 
d="M182 573q59 139 77 164q4 6 8 11q20 22 45 24.5t47 -15.5q23 -19 24.5 -45t-17.5 -47q-27 -32 -157 -115zM377 573q59 139 77 164q4 6 8 11q20 22 45 24.5t47 -15.5q23 -19 24.5 -45t-17.5 -47q-27 -32 -157 -115zM570 75h44v-75h-202v94q-57 -104 -167 -104
q-69 0 -114.5 44.5t-45.5 114.5v257q-3 24 -30 24h-45v75h201v-331q0 -45 24 -71.5t63 -26.5q47 0 80.5 38t33.5 124v163q0 29 -30 29h-41v75h198v-399q0 -31 31 -31z" />
    <glyph glyph-name="Uogonek" unicode="&#x172;" horiz-adv-x="739" 
d="M456 680h270v-75h-61q-31 0 -31 -31v-364q0 -124 -107 -183q-101 -60 -101 -112q0 -22 13.5 -35t35.5 -13t52 16l28 -58q-42 -42 -108 -42q-51 0 -84.5 27t-33.5 72q0 54 72 109q-7 -1 -20 -1q-116 0 -193.5 61t-77.5 154v369q0 31 -31 31h-61v75h335v-75h-72
q-31 0 -31 -31v-359q0 -66 41.5 -107t111.5 -41q67 0 108 40t41 108v359q0 31 -31 31h-65v75z" />
    <glyph glyph-name="uogonek" unicode="&#x173;" horiz-adv-x="639" 
d="M607 0q-55 0 -89.5 -26t-34.5 -59q0 -22 13.5 -35t36.5 -13q21 0 51 16l28 -58q-44 -42 -108 -42q-51 0 -85 27.5t-34 71.5q0 37 24 67.5t68 50.5h-65v94q-57 -104 -167 -104q-69 0 -114.5 44.5t-45.5 114.5v257q-3 24 -30 24h-45v75h201v-331q0 -45 24 -71.5t63 -26.5
q47 0 80.5 38t33.5 124v163q0 29 -30 29h-41v75h198v-399q0 -31 31 -31h44v-75h-7z" />
    <glyph glyph-name="Wcircumflex" unicode="&#x174;" horiz-adv-x="1089" 
d="M577 810l-108 -77l-40 35l111 143q21 26 37 26q15 0 36 -26l112 -143l-40 -35zM834 680h255v-75h-37q-34 0 -47 -33l-210 -572h-70l-176 455l-160 -455h-80l-224 576q-11 29 -48 29h-37v75h318v-75h-49q-32 0 -21 -31l133 -358l123 358q5 14 -1.5 22.5t-21.5 8.5h-67v75
h323v-75h-57q-14 0 -20 -9t-1 -22l133 -349l122 349q10 31 -21 31h-59v75z" />
    <glyph glyph-name="wcircumflex" unicode="&#x175;" horiz-adv-x="893" 
d="M368 558l-40 35l111 143q21 26 37 26q15 0 36 -26l112 -143l-40 -35l-108 77zM668 505h217v-75h-30q-36 0 -48 -33l-153 -397h-84l-116 298l-117 -298h-88l-159 398q-12 32 -48 32h-32v75h285v-75h-44q-14 0 -20.5 -9t-1.5 -21l87 -254l99 254q5 13 -1 21.5t-21 8.5h-45
v75h263v-75h-49q-14 0 -20 -9t-2 -21l97 -254l93 253q5 13 -1 22t-20 9h-41v75z" />
    <glyph glyph-name="Ycircumflex" unicode="&#x176;" horiz-adv-x="680" 
d="M366 810l-108 -77l-40 35l111 143q21 26 37 26q15 0 36 -26l112 -143l-40 -35zM416 680h264v-75h-47q-37 0 -56 -32l-168 -279v-188q0 -31 31 -31h79v-75h-360v75h79q31 0 31 31v163l-172 308q-15 28 -51 28h-46v75h319v-75h-51q-34 0 -18 -31l118 -213l126 216
q8 13 3 20.5t-20 7.5h-61v75z" />
    <glyph glyph-name="ycircumflex" unicode="&#x177;" horiz-adv-x="623" 
d="M226 558l-40 35l111 143q21 26 37 26q15 0 36 -26l112 -143l-40 -35l-108 77zM397 505h218v-75h-31q-35 0 -49 -33l-185 -417q-41 -92 -81.5 -131t-104.5 -39q-54 0 -91 31.5t-37 79.5q0 36 21.5 59t53.5 23q31 0 51.5 -19.5t20.5 -48.5q0 -26 -16 -44.5t-40 -20.5
q14 -7 32 -7q45 0 70.5 30t49.5 87l6 14l-195 405q-15 31 -47 31h-33v75h296v-75h-44q-15 0 -22 -8t-1 -21l114 -249l106 248q6 14 -1 22t-21 8h-40v75z" />
    <glyph glyph-name="Ydieresis" unicode="&#x178;" horiz-adv-x="680" 
d="M261 742q-34 0 -56 22t-22 55q0 34 22 56t56 22t55.5 -21.5t21.5 -55.5t-21.5 -56t-55.5 -22zM471 742q-34 0 -56 22t-22 55q0 34 22 56t56 22t55.5 -21.5t21.5 -55.5t-21.5 -56t-55.5 -22zM416 680h264v-75h-47q-37 0 -56 -32l-168 -279v-188q0 -31 31 -31h79v-75h-360
v75h79q31 0 31 31v163l-172 308q-15 28 -51 28h-46v75h319v-75h-51q-34 0 -18 -31l118 -213l126 216q8 13 3 20.5t-20 7.5h-61v75z" />
    <glyph glyph-name="Zacute" unicode="&#x179;" horiz-adv-x="607" 
d="M460 840q-27 -32 -157 -115l-27 23q59 139 77 164q4 6 8 11q20 22 45 24.5t47 -15.5q23 -19 24.5 -45t-17.5 -47zM495 257h75v-257h-537v40l351 568h-187q-11 0 -20.5 -3t-17 -7t-13.5 -12t-9.5 -14.5t-7 -19t-5.5 -20.5t-4 -23.5t-2.5 -24t-2 -26.5t-2.5 -26h-75v248
h520v-45l-354 -563h206q13 0 23 3t18 10.5t13.5 14.5t10 21t7 22.5t5 27t3.5 27t2.5 30.5t2.5 29z" />
    <glyph glyph-name="zacute" unicode="&#x17a;" horiz-adv-x="514" 
d="M413 665q-27 -32 -157 -115l-27 23q59 139 77 164q4 6 8 11q20 22 45 24.5t47 -15.5q23 -19 24.5 -45t-17.5 -47zM403 201h68v-201h-425v42l265 401h-96q-24 0 -41.5 -8.5t-26.5 -18t-15.5 -33t-8.5 -35.5t-5 -43h-69v200h419v-37l-270 -406h108q17 0 31 5t23 10t17 20
t11 20.5t7 28t4.5 26t3.5 29.5z" />
    <glyph glyph-name="Zdotaccent" unicode="&#x17b;" horiz-adv-x="607" 
d="M305 740q-35 0 -58.5 23t-23.5 57q0 35 23.5 58.5t58.5 23.5t57.5 -22.5t22.5 -58.5q0 -35 -22.5 -58t-57.5 -23zM495 257h75v-257h-537v40l351 568h-187q-11 0 -20.5 -3t-17 -7t-13.5 -12t-9.5 -14.5t-7 -19t-5.5 -20.5t-4 -23.5t-2.5 -24t-2 -26.5t-2.5 -26h-75v248
h520v-45l-354 -563h206q13 0 23 3t18 10.5t13.5 14.5t10 21t7 22.5t5 27t3.5 27t2.5 30.5t2.5 29z" />
    <glyph glyph-name="zdotaccent" unicode="&#x17c;" horiz-adv-x="514" 
d="M258 565q-35 0 -58.5 23t-23.5 57q0 35 23.5 58.5t58.5 23.5t57.5 -22.5t22.5 -58.5q0 -35 -22.5 -58t-57.5 -23zM403 201h68v-201h-425v42l265 401h-96q-24 0 -41.5 -8.5t-26.5 -18t-15.5 -33t-8.5 -35.5t-5 -43h-69v200h419v-37l-270 -406h108q17 0 31 5t23 10t17 20
t11 20.5t7 28t4.5 26t3.5 29.5z" />
    <glyph glyph-name="Zcaron" unicode="&#x17d;" horiz-adv-x="607" 
d="M304 733q-16 0 -37 26l-111 143l40 35l108 -77l108 77l40 -35l-112 -143q-21 -26 -36 -26zM495 257h75v-257h-537v40l351 568h-187q-11 0 -20.5 -3t-17 -7t-13.5 -12t-9.5 -14.5t-7 -19t-5.5 -20.5t-4 -23.5t-2.5 -24t-2 -26.5t-2.5 -26h-75v248h520v-45l-354 -563h206
q13 0 23 3t18 10.5t13.5 14.5t10 21t7 22.5t5 27t3.5 27t2.5 30.5t2.5 29z" />
    <glyph glyph-name="zcaron" unicode="&#x17e;" horiz-adv-x="514" 
d="M257 558q-16 0 -37 26l-111 143l40 35l108 -77l108 77l40 -35l-112 -143q-21 -26 -36 -26zM403 201h68v-201h-425v42l265 401h-96q-24 0 -41.5 -8.5t-26.5 -18t-15.5 -33t-8.5 -35.5t-5 -43h-69v200h419v-37l-270 -406h108q17 0 31 5t23 10t17 20t11 20.5t7 28t4.5 26
t3.5 29.5z" />
    <glyph glyph-name="Scommaaccent" unicode="&#x218;" horiz-adv-x="598" 
d="M184 527q0 -32 20.5 -55t53 -37t72 -27t79.5 -29.5t72.5 -38.5t53 -60t20.5 -88q0 -90 -70 -146t-184 -56q-120 0 -189 57t-69 131q0 40 23.5 63.5t57.5 23.5t53.5 -20.5t19.5 -51.5q0 -27 -17.5 -44.5t-44.5 -21.5q50 -70 151 -70q61 0 98 29t37 75q0 35 -20 60t-52 40
t-71 27.5t-78 28t-71 36t-52 57t-20 85.5q0 89 66.5 142t175.5 53q111 0 177.5 -50t66.5 -120q0 -38 -21 -57t-55 -19q-33 0 -53.5 18.5t-20.5 50.5q0 50 53 66q-48 46 -129 46q-62 0 -97.5 -27.5t-35.5 -70.5zM303 -48q32 0 52.5 -21t20.5 -56q0 -50 -37.5 -94t-101.5 -66
l-16 31q75 40 82 76h-2q-34 0 -53.5 18.5t-19.5 46.5t21 46.5t54 18.5z" />
    <glyph glyph-name="scommaaccent" unicode="&#x219;" horiz-adv-x="482" 
d="M162 391q0 -27 21.5 -45.5t53 -27.5t69 -22t69 -27.5t53 -45.5t21.5 -75q0 -73 -55 -115.5t-153 -42.5q-91 0 -149.5 37t-58.5 94q0 32 18.5 51t49.5 19q30 0 49 -17t19 -44q0 -43 -40 -57q41 -29 94 -29q47 0 72.5 21t25.5 55t-28.5 55.5t-69.5 33.5t-82.5 26.5
t-70 46.5t-28.5 83q0 73 54.5 111t148.5 38q86 0 138.5 -32t52.5 -84q0 -31 -18.5 -49.5t-49.5 -18.5t-49.5 17t-18.5 45q0 35 33 50q-32 19 -73 19q-45 0 -71.5 -19.5t-26.5 -50.5zM254 -48q32 0 52.5 -21t20.5 -56q0 -50 -37.5 -94t-101.5 -66l-16 31q75 40 82 76h-2
q-34 0 -53.5 18.5t-19.5 46.5t21 46.5t54 18.5z" />
    <glyph glyph-name="uni021A" unicode="&#x21a;" horiz-adv-x="688" 
d="M38 680h612v-248h-75q-8 98 -18 124q-20 54 -80 54h-63v-504q0 -31 31 -31h86v-75h-375v75h87q31 0 31 31v504h-63q-40 0 -61 -25t-25.5 -49t-9.5 -83q-1 -3 -1 -5v-5t-0.5 -5.5t-0.5 -5.5h-75v248zM329 -48q32 0 52.5 -21t20.5 -56q0 -50 -37.5 -94t-101.5 -66l-16 31
q75 40 82 76h-2q-34 0 -53.5 18.5t-19.5 46.5t21 46.5t54 18.5z" />
    <glyph glyph-name="uni021B" unicode="&#x21b;" horiz-adv-x="396" 
d="M235 -10q-69 0 -113 42.5t-44 102.5v295h-75v75h4q55 0 83.5 24t67.5 86h46v-110h168v-75h-168v-295q0 -26 17 -42.5t42 -16.5q26 0 43.5 16.5t21.5 46.5l58 -13q-12 -67 -51.5 -101.5t-99.5 -34.5zM233 -48q32 0 52.5 -21t20.5 -56q0 -50 -37.5 -94t-101.5 -66l-16 31
q75 40 82 76h-2q-34 0 -53.5 18.5t-19.5 46.5t21 46.5t54 18.5z" />
    <glyph glyph-name="circumflex" unicode="&#x2c6;" horiz-adv-x="336" 
d="M60 558l-40 35l111 143q21 26 37 26q15 0 36 -26l112 -143l-40 -35l-108 77z" />
    <glyph glyph-name="caron" unicode="&#x2c7;" horiz-adv-x="336" 
d="M60 762l108 -77l108 77l40 -35l-112 -143q-21 -26 -36 -26q-16 0 -37 26l-111 143z" />
    <glyph glyph-name="breve" unicode="&#x2d8;" horiz-adv-x="351" 
d="M265 742l61 -10q-4 -78 -44 -118t-105 -40q-67 0 -107 40t-45 118l62 10q20 -79 90 -79q66 0 88 79z" />
    <glyph glyph-name="dotaccent" unicode="&#x2d9;" horiz-adv-x="232" 
d="M117 565q-35 0 -58.5 23t-23.5 57q0 35 23.5 58.5t58.5 23.5t57.5 -22.5t22.5 -58.5q0 -35 -22.5 -58t-57.5 -23z" />
    <glyph glyph-name="ring" unicode="&#x2da;" horiz-adv-x="289" 
d="M145 555q-52 0 -86.5 30.5t-34.5 76.5t34.5 76.5t86.5 30.5t86 -30t34 -76q0 -47 -34 -77.5t-86 -30.5zM145 609q23 0 37.5 15t14.5 38q0 24 -15 39.5t-38 15.5q-22 0 -37 -15.5t-15 -38.5q0 -24 15 -39t38 -15z" />
    <glyph glyph-name="ogonek" unicode="&#x2db;" horiz-adv-x="255" 
d="M147 -217q-51 0 -85 27.5t-34 71.5q0 60 63 102t162 42l-3 -26q-55 0 -89.5 -26t-34.5 -59q0 -22 13.5 -35t36.5 -13q21 0 51 16l28 -58q-43 -42 -108 -42z" />
    <glyph glyph-name="tilde" unicode="&#x2dc;" horiz-adv-x="429" 
d="M399 713q-8 -140 -114 -140q-32 0 -80.5 28.5t-75.5 28.5q-16 0 -26 -7.5t-13 -15t-9 -27.5l-51 17q10 133 114 133q34 0 84.5 -28.5t73.5 -28.5q8 0 15 3t11 5.5t8 9.5t5 9.5t4 11.5l3 10z" />
    <glyph glyph-name="hungarumlaut" unicode="&#x2dd;" horiz-adv-x="460" 
d="M44 573q59 139 77 164q4 6 8 11q20 22 45 24.5t47 -15.5q23 -19 24.5 -45t-17.5 -47q-27 -32 -157 -115zM239 573q59 139 77 164q4 6 8 11q20 22 45 24.5t47 -15.5q23 -19 24.5 -45t-17.5 -47q-27 -32 -157 -115z" />
    <glyph glyph-name="uni030C" unicode="&#x30c;" horiz-adv-x="0" 
d="M-143 690q31 0 52 -20.5t21 -59.5q0 -126 -142 -211l-23 33q36 25 55 46.5t24 34t7 32.5q-33 1 -51 22.5t-18 49.5q0 32 21.5 52.5t53.5 20.5z" />
    <glyph glyph-name="uni0326" unicode="&#x326;" horiz-adv-x="0" 
d="M-123 -48q32 0 52.5 -21t20.5 -56q0 -50 -37.5 -94t-101.5 -66l-16 31q75 40 82 76h-2q-34 0 -53.5 18.5t-19.5 46.5t21 46.5t54 18.5z" />
    <glyph glyph-name="Wgrave" unicode="&#x1e80;" horiz-adv-x="1089" 
d="M603 725q-130 83 -157 115q-19 21 -17.5 47t24.5 45q22 18 47 15.5t45 -24.5q21 -24 76 -155q3 -6 5 -10.5t4 -9.5zM834 680h255v-75h-37q-34 0 -47 -33l-210 -572h-70l-176 455l-160 -455h-80l-224 576q-11 29 -48 29h-37v75h318v-75h-49q-32 0 -21 -31l133 -358
l123 358q5 14 -1.5 22.5t-21.5 8.5h-67v75h323v-75h-57q-14 0 -20 -9t-1 -22l133 -349l122 349q10 31 -21 31h-59v75z" />
    <glyph glyph-name="wgrave" unicode="&#x1e81;" horiz-adv-x="893" 
d="M529 573l-27 -23q-130 83 -157 115q-19 21 -17.5 47t24.5 45q22 18 47 15.5t45 -24.5q21 -24 76 -155q3 -6 5 -10.5t4 -9.5zM668 505h217v-75h-30q-36 0 -48 -33l-153 -397h-84l-116 298l-117 -298h-88l-159 398q-12 32 -48 32h-32v75h285v-75h-44q-14 0 -20.5 -9
t-1.5 -21l87 -254l99 254q5 13 -1 21.5t-21 8.5h-45v75h263v-75h-49q-14 0 -20 -9t-2 -21l97 -254l93 253q5 13 -1 22t-20 9h-41v75z" />
    <glyph glyph-name="Wacute" unicode="&#x1e82;" horiz-adv-x="1089" 
d="M733 840q-27 -32 -157 -115l-27 23q59 139 77 164q4 6 8 11q20 22 45 24.5t47 -15.5q23 -19 24.5 -45t-17.5 -47zM834 680h255v-75h-37q-34 0 -47 -33l-210 -572h-70l-176 455l-160 -455h-80l-224 576q-11 29 -48 29h-37v75h318v-75h-49q-32 0 -21 -31l133 -358l123 358
q5 14 -1.5 22.5t-21.5 8.5h-67v75h323v-75h-57q-14 0 -20 -9t-1 -22l133 -349l122 349q10 31 -21 31h-59v75z" />
    <glyph glyph-name="wacute" unicode="&#x1e83;" horiz-adv-x="893" 
d="M632 665q-27 -32 -157 -115l-27 23q59 139 77 164q4 6 8 11q20 22 45 24.5t47 -15.5q23 -19 24.5 -45t-17.5 -47zM668 505h217v-75h-30q-36 0 -48 -33l-153 -397h-84l-116 298l-117 -298h-88l-159 398q-12 32 -48 32h-32v75h285v-75h-44q-14 0 -20.5 -9t-1.5 -21l87 -254
l99 254q5 13 -1 21.5t-21 8.5h-45v75h263v-75h-49q-14 0 -20 -9t-2 -21l97 -254l93 253q5 13 -1 22t-20 9h-41v75z" />
    <glyph glyph-name="Wdieresis" unicode="&#x1e84;" horiz-adv-x="1089" 
d="M472 742q-34 0 -56 22t-22 55q0 34 22 56t56 22t55.5 -21.5t21.5 -55.5t-21.5 -56t-55.5 -22zM682 742q-34 0 -56 22t-22 55q0 34 22 56t56 22t55.5 -21.5t21.5 -55.5t-21.5 -56t-55.5 -22zM834 680h255v-75h-37q-34 0 -47 -33l-210 -572h-70l-176 455l-160 -455h-80
l-224 576q-11 29 -48 29h-37v75h318v-75h-49q-32 0 -21 -31l133 -358l123 358q5 14 -1.5 22.5t-21.5 8.5h-67v75h323v-75h-57q-14 0 -20 -9t-1 -22l133 -349l122 349q10 31 -21 31h-59v75z" />
    <glyph glyph-name="wdieresis" unicode="&#x1e85;" horiz-adv-x="893" 
d="M371 567q-34 0 -56 22t-22 55q0 34 22 56t56 22t55.5 -21.5t21.5 -55.5t-21.5 -56t-55.5 -22zM581 567q-34 0 -56 22t-22 55q0 34 22 56t56 22t55.5 -21.5t21.5 -55.5t-21.5 -56t-55.5 -22zM668 505h217v-75h-30q-36 0 -48 -33l-153 -397h-84l-116 298l-117 -298h-88
l-159 398q-12 32 -48 32h-32v75h285v-75h-44q-14 0 -20.5 -9t-1.5 -21l87 -254l99 254q5 13 -1 21.5t-21 8.5h-45v75h263v-75h-49q-14 0 -20 -9t-2 -21l97 -254l93 253q5 13 -1 22t-20 9h-41v75z" />
    <glyph glyph-name="Ygrave" unicode="&#x1ef2;" horiz-adv-x="680" 
d="M392 725q-130 83 -157 115q-19 21 -17.5 47t24.5 45q22 18 47 15.5t45 -24.5q21 -24 76 -155q3 -6 5 -10.5t4 -9.5zM416 680h264v-75h-47q-37 0 -56 -32l-168 -279v-188q0 -31 31 -31h79v-75h-360v75h79q31 0 31 31v163l-172 308q-15 28 -51 28h-46v75h319v-75h-51
q-34 0 -18 -31l118 -213l126 216q8 13 3 20.5t-20 7.5h-61v75z" />
    <glyph glyph-name="ygrave" unicode="&#x1ef3;" horiz-adv-x="623" 
d="M387 573l-27 -23q-130 83 -157 115q-19 21 -17.5 47t24.5 45q22 18 47 15.5t45 -24.5q21 -24 76 -155q3 -6 5 -10.5t4 -9.5zM397 505h218v-75h-31q-35 0 -49 -33l-185 -417q-41 -92 -81.5 -131t-104.5 -39q-54 0 -91 31.5t-37 79.5q0 36 21.5 59t53.5 23q31 0 51.5 -19.5
t20.5 -48.5q0 -26 -16 -44.5t-40 -20.5q14 -7 32 -7q45 0 70.5 30t49.5 87l6 14l-195 405q-15 31 -47 31h-33v75h296v-75h-44q-15 0 -22 -8t-1 -21l114 -249l106 248q6 14 -1 22t-21 8h-40v75z" />
    <glyph glyph-name="uni2009" unicode="&#x2009;" horiz-adv-x="145" 
 />
    <glyph glyph-name="uni200A" unicode="&#x200a;" horiz-adv-x="85" 
 />
    <glyph glyph-name="endash" unicode="&#x2013;" horiz-adv-x="500" 
d="M60 303h380v-75h-380v75z" />
    <glyph glyph-name="emdash" unicode="&#x2014;" horiz-adv-x="1000" 
d="M60 303h880v-75h-880v75z" />
    <glyph glyph-name="quoteleft" unicode="&#x2018;" horiz-adv-x="258" 
d="M128 383q-34 0 -57 22.5t-23 64.5q0 140 155 229l25 -35q-54 -39 -72.5 -65.5t-20.5 -56.5q36 -2 55.5 -25t19.5 -54q0 -35 -23.5 -57.5t-58.5 -22.5z" />
    <glyph glyph-name="quoteright" unicode="&#x2019;" horiz-adv-x="258" 
d="M130 698q34 0 57 -22.5t23 -64.5q0 -140 -155 -229l-25 35q54 39 72.5 65.5t20.5 56.5q-36 2 -55.5 25t-19.5 54q0 35 23.5 57.5t58.5 22.5z" />
    <glyph glyph-name="quotesinglbase" unicode="&#x201a;" horiz-adv-x="258" 
d="M130 153q34 0 57 -22.5t23 -64.5q0 -140 -155 -229l-25 35q54 39 72.5 65.5t20.5 56.5q-36 2 -55.5 25t-19.5 54q0 35 23.5 57.5t58.5 22.5z" />
    <glyph glyph-name="quotedblleft" unicode="&#x201c;" horiz-adv-x="478" 
d="M128 383q-34 0 -57 22.5t-23 64.5q0 140 155 229l25 -35q-54 -39 -72.5 -65.5t-20.5 -56.5q36 -2 55.5 -25t19.5 -54q0 -35 -23.5 -57.5t-58.5 -22.5zM348 383q-34 0 -57 22.5t-23 64.5q0 140 155 229l25 -35q-54 -39 -72.5 -65.5t-20.5 -56.5q36 -2 55.5 -25t19.5 -54
q0 -35 -23.5 -57.5t-58.5 -22.5z" />
    <glyph glyph-name="quotedblright" unicode="&#x201d;" horiz-adv-x="478" 
d="M130 698q34 0 57 -22.5t23 -64.5q0 -140 -155 -229l-25 35q54 39 72.5 65.5t20.5 56.5q-36 2 -55.5 25t-19.5 54q0 35 23.5 57.5t58.5 22.5zM350 698q34 0 57 -22.5t23 -64.5q0 -140 -155 -229l-25 35q54 39 72.5 65.5t20.5 56.5q-36 2 -55.5 25t-19.5 54q0 35 23.5 57.5
t58.5 22.5z" />
    <glyph glyph-name="quotedblbase" unicode="&#x201e;" horiz-adv-x="478" 
d="M130 153q34 0 57 -22.5t23 -64.5q0 -140 -155 -229l-25 35q54 39 72.5 65.5t20.5 56.5q-36 2 -55.5 25t-19.5 54q0 35 23.5 57.5t58.5 22.5zM350 153q34 0 57 -22.5t23 -64.5q0 -140 -155 -229l-25 35q54 39 72.5 65.5t20.5 56.5q-36 2 -55.5 25t-19.5 54q0 35 23.5 57.5
t58.5 22.5z" />
    <glyph glyph-name="dagger" unicode="&#x2020;" horiz-adv-x="496" 
d="M393 631q24 0 39.5 -13.5t15.5 -37.5t-15.5 -37.5t-39.5 -13.5q-12 0 -25 4t-38 12.5t-51 15.5l-9 -9l41 -86l-47 -226h-32l-48 226l41 85l-9 9q-27 -7 -51 -15t-37 -12t-25 -4q-24 0 -39.5 13.5t-15.5 37.5t15.5 37.5t39.5 13.5q12 0 25 -3.5t38.5 -12t51.5 -15.5l10 10
q-7 27 -15 52t-12 38t-4 26q0 24 13.5 39t37.5 15t37.5 -15t13.5 -39q0 -13 -4 -26t-12 -38t-15 -52l10 -10q26 7 51.5 15.5t38.5 12t25 3.5z" />
    <glyph glyph-name="daggerdbl" unicode="&#x2021;" horiz-adv-x="496" 
d="M393 402q24 0 39.5 -13.5t15.5 -37.5t-15.5 -37.5t-39.5 -13.5q-12 0 -25 4t-38.5 12t-52.5 15l-9 -10q7 -27 15 -52t12 -38t4 -25q0 -24 -13.5 -39.5t-37.5 -15.5t-37.5 15.5t-13.5 39.5q0 12 4 25t12 38t15 52l-9 10q-27 -7 -52.5 -15t-38.5 -12t-25 -4
q-24 0 -39.5 13.5t-15.5 37.5t15.5 37.5t39.5 13.5q12 0 25 -4t37 -12t51 -14l9 9l-41 85l41 85l-9 9q-27 -7 -51 -15t-37 -12t-25 -4q-24 0 -39.5 13.5t-15.5 37.5t15.5 37.5t39.5 13.5q12 0 25 -3.5t38.5 -12t51.5 -15.5l10 10q-7 27 -15 52t-12 38t-4 26q0 24 13.5 39
t37.5 15t37.5 -15t13.5 -39q0 -13 -4 -26t-12 -38t-15 -52l10 -10q26 7 51.5 15.5t38.5 12t25 3.5q24 0 39.5 -13.5t15.5 -37.5t-15.5 -37.5t-39.5 -13.5q-12 0 -25 4t-38 12.5t-51 15.5l-9 -9l41 -86l-41 -86l9 -9q27 7 51.5 15t37.5 12t25 4z" />
    <glyph glyph-name="bullet" unicode="&#x2022;" horiz-adv-x="465" 
d="M233 186q-60 0 -102.5 42t-42.5 102q0 59 42.5 101.5t102.5 42.5q59 0 101.5 -42.5t42.5 -101.5q0 -60 -42.5 -102t-101.5 -42z" />
    <glyph glyph-name="ellipsis" unicode="&#x2026;" horiz-adv-x="688" 
d="M130 155q35 0 57.5 -23t22.5 -58q0 -36 -22.5 -58.5t-57.5 -22.5t-58.5 23.5t-23.5 58.5q0 34 23.5 57t58.5 23zM345 155q35 0 57.5 -23t22.5 -58q0 -36 -22.5 -58.5t-57.5 -22.5t-58.5 23.5t-23.5 58.5q0 34 23.5 57t58.5 23zM560 155q35 0 57.5 -23t22.5 -58
q0 -36 -22.5 -58.5t-57.5 -22.5t-58.5 23.5t-23.5 58.5q0 34 23.5 57t58.5 23z" />
    <glyph glyph-name="perthousand" unicode="&#x2030;" horiz-adv-x="1438" 
d="M241 282q-87 0 -144 58.5t-57 145.5t57 145.5t144 58.5q88 0 144.5 -58t56.5 -146t-56.5 -146t-144.5 -58zM494 370q24 51 82 154t75 128q36 51 73 26q34 -25 -3 -77q-18 -25 -94.5 -113t-118.5 -129zM241 332q51 0 78.5 40.5t27.5 113.5q0 74 -27.5 114.5t-78.5 40.5
t-78.5 -40.5t-27.5 -114.5q0 -73 27.5 -113.5t78.5 -40.5zM739 -10q-87 0 -144 58.5t-57 145.5t57 145.5t144 58.5q88 0 144.5 -58t56.5 -146t-56.5 -146t-144.5 -58zM1197 -10q-87 0 -144 58.5t-57 145.5t57 145.5t144 58.5q88 0 144.5 -58t56.5 -146t-56.5 -146
t-144.5 -58zM739 40q51 0 78.5 40.5t27.5 113.5q0 74 -27.5 114.5t-78.5 40.5t-78.5 -40.5t-27.5 -114.5q0 -73 27.5 -113.5t78.5 -40.5zM1197 40q51 0 78.5 40.5t27.5 113.5q0 74 -27.5 114.5t-78.5 40.5t-78.5 -40.5t-27.5 -114.5q0 -73 27.5 -113.5t78.5 -40.5zM472 312
q-22 -53 -79 -152.5t-78 -129.5q-37 -52 -73 -26q-35 25 2 77q20 26 96.5 113.5t117.5 128.5z" />
    <glyph glyph-name="guilsinglleft" unicode="&#x2039;" horiz-adv-x="305" 
d="M265 92l-32 -30l-193 167v60l193 167l32 -29l-122 -166z" />
    <glyph glyph-name="guilsinglright" unicode="&#x203a;" horiz-adv-x="305" 
d="M40 92l122 169l-122 166l32 29l193 -167v-60l-193 -167z" />
    <glyph glyph-name="fraction" unicode="&#x2044;" horiz-adv-x="214" 
d="M118 370q24 51 82 154t75 128q36 51 73 26q34 -25 -3 -77q-18 -25 -94.5 -113t-118.5 -129zM96 312q-22 -53 -79 -152.5t-78 -129.5q-37 -52 -73 -26q-35 25 2 77q20 26 96.5 113.5t117.5 128.5z" />
    <glyph glyph-name="uni2081" unicode="&#x2081;" horiz-adv-x="319" 
d="M236 -40h63v-60h-279v60h66q19 0 19 20v212h-79v50q57 4 77 16t26 54h87v-332q0 -20 20 -20z" />
    <glyph glyph-name="uni2082" unicode="&#x2082;" horiz-adv-x="360" 
d="M283 37h57v-137h-314v43q24 24 64 63.5t55.5 55.5t35.5 41t26.5 45t6.5 43q0 32 -17.5 51t-49.5 19t-54 -18q40 -12 40 -51q0 -23 -16 -39.5t-40 -16.5q-25 0 -41 16.5t-16 44.5q0 45 42.5 81t114.5 36q64 0 106 -30t42 -93q0 -41 -23 -76.5t-51 -57.5t-96 -69
q-17 -12 -26 -18l94 4q20 1 32 4.5t17.5 16t6.5 16.5t4 26z" />
    <glyph glyph-name="uni2083" unicode="&#x2083;" horiz-adv-x="350" 
d="M210 106q56 -6 88 -32t32 -66q0 -51 -44.5 -83t-109.5 -32q-70 0 -113 31.5t-43 76.5q0 26 16.5 43t40.5 17q25 0 40.5 -15.5t15.5 -39.5q0 -37 -37 -49q21 -12 51 -12q33 0 53 16.5t20 50.5q0 30 -18.5 48.5t-51.5 18.5h-13v56h13q32 0 50 17t18 47q0 32 -19.5 48
t-51.5 16q-29 0 -50 -12q37 -14 37 -49q0 -24 -16 -39.5t-40 -15.5t-40.5 16.5t-16.5 42.5q0 45 42.5 76.5t112.5 31.5q64 0 107 -31t43 -81q0 -39 -30 -64t-86 -32z" />
    <glyph glyph-name="Euro" unicode="&#x20ac;" horiz-adv-x="748" 
d="M455 66q70 0 118.5 49.5t69.5 140.5l65 -16q-21 -123 -92.5 -186.5t-178.5 -63.5q-112 0 -193.5 63.5t-111.5 170.5h-92v70h79q-2 28 -2 43q0 22 1 32h-78v72h90q28 113 111.5 181t198.5 68q116 0 192 -68t76 -143q0 -40 -23 -62t-58 -22q-33 0 -55 21t-22 53q0 49 47 67
q-42 86 -139 86q-71 0 -122.5 -46.5t-69.5 -134.5h210v-72h-218q-1 -8 -1 -24q0 -19 2 -51h217v-70h-204q22 -76 70 -117t113 -41z" />
    <glyph glyph-name="uni2116" unicode="&#x2116;" horiz-adv-x="1265" 
d="M1001 690q93 0 151 -58t58 -147q0 -91 -58 -150t-151 -59t-151 59t-58 150q0 89 58 147t151 58zM762 680v-75h-66q-31 0 -31 -31v-574h-59l-394 506v-400q0 -31 31 -31h76v-75h-289v75h67q31 0 31 31v468q0 31 -31 31h-67v75h217l334 -432v326q0 31 -31 31h-74v75h286z
M1002 326q50 0 73.5 38.5t23.5 120.5q0 80 -23.5 117.5t-73.5 37.5q-51 0 -75 -37.5t-24 -117.5q0 -82 24 -120.5t75 -38.5zM819 204h364v-66h-364v66z" />
    <glyph glyph-name="uni2117" unicode="&#x2117;" horiz-adv-x="758" 
d="M378 -10q-147 0 -247.5 101t-100.5 250q0 147 101 248t247 101q147 0 248 -100.5t101 -248.5q0 -149 -101 -250t-248 -101zM378 37q126 0 212 88t86 216q0 127 -86 215t-212 88q-124 0 -210.5 -88t-86.5 -215t86 -215.5t211 -88.5zM414 290h-57v-76q0 -17 18 -17h56v-44
h-209v44h36q16 0 16 17v252q0 18 -16 18h-36v43h192q66 0 108 -33.5t42 -83.5q0 -52 -42 -86t-108 -34zM357 484v-151h40q37 0 58 22t21 55q0 32 -21 53t-58 21h-40z" />
    <glyph glyph-name="uni2120" unicode="&#x2120;" horiz-adv-x="889" 
d="M132 606q0 -22 20 -36.5t49 -23.5t57.5 -20t48.5 -34t20 -57q0 -47 -36.5 -75t-98.5 -28q-66 0 -104 28.5t-38 66.5q0 20 12 32t31 12t30 -11t11 -28q0 -25 -29 -32q28 -32 75 -32q31 0 48.5 13.5t17.5 35.5q0 27 -29.5 44t-65.5 25.5t-65.5 33.5t-29.5 67q0 48 36 74
t97 26t96.5 -24.5t35.5 -60.5q0 -40 -43 -40q-41 0 -41 38q0 20 23 32q-23 21 -61 21q-31 0 -49 -13t-18 -34zM800 636q-20 0 -20 -20v-214q0 -21 20 -21h34v-44h-190v44h29q21 0 21 21v181l-92 -178h-27l-104 177v-180q0 -21 20 -21h37v-44h-165v44h33q21 0 21 21v214
q0 20 -21 20h-33v44h124l113 -189l102 189h132v-44h-34z" />
    <glyph glyph-name="trademark" unicode="&#x2122;" horiz-adv-x="943" 
d="M387 680v-141h-44q-7 64 -15 79q-12 21 -41 21h-29v-238q0 -20 21 -20h44l-1 -44h-208v44h44q20 0 20 20v238h-29q-38 0 -48 -44q-3 -12 -7 -56h-44v141h337zM854 631q-20 0 -20 -19v-211q0 -20 20 -20h34v-44h-189v44h29q21 0 21 20v183l-93 -179h-27l-104 178v-182
q0 -20 20 -20h37v-44h-165v44h34q21 0 21 20v211q0 19 -21 19h-34v49h124l113 -190l102 190h132v-49h-34z" />
    <glyph glyph-name="arrowup" unicode="&#x2191;" horiz-adv-x="668" 
d="M83 415l236 265h30l235 -265l-19 -27l-201 87q1 -17 5.5 -87.5t4.5 -133.5v-254h-80v254q0 63 4.5 133.5t5.5 87.5l-202 -87z" />
    <glyph glyph-name="arrowdown" unicode="&#x2193;" horiz-adv-x="668" 
d="M83 265l19 27l202 -87q-1 17 -5.5 87.5t-4.5 133.5v254h80v-254q0 -63 -4.5 -133.5t-5.5 -87.5l201 87l19 -27l-235 -265h-30z" />
    <glyph glyph-name="arrowupdn" unicode="&#x2195;" horiz-adv-x="668" 
d="M364 205l201 87l19 -27l-235 -265h-30l-236 265l19 27l202 -87q-1 10 -5.5 45.5t-4.5 60.5v58q0 25 4.5 60.5t5.5 45.5l-202 -87l-19 27l236 265h30l235 -265l-19 -27l-201 87q1 -10 5.5 -45.5t4.5 -60.5v-58q0 -25 -4.5 -60.5t-5.5 -45.5z" />
    <glyph glyph-name="uni2196" unicode="&#x2196;" horiz-adv-x="755" 
d="M457 619l5 -32l-204 -81q19 -17 48 -42.5t55 -49.5t60 -58l276 -275l-57 -57l-275 276q-44 44 -90 96.5t-59 66.5l-81 -204l-32 6l-21 354l21 21z" />
    <glyph glyph-name="uni2197" unicode="&#x2197;" horiz-adv-x="755" 
d="M300 619l354 21l21 -21l-21 -354l-32 -6l-81 204q-13 -14 -59 -66.5t-90 -96.5l-275 -276l-57 57l276 275q34 34 60 58t55 49.5t48 42.5l-204 81z" />
    <glyph glyph-name="uni2198" unicode="&#x2198;" horiz-adv-x="755" 
d="M300 72l-5 32l204 81q-19 17 -48 42.5t-55 49.5t-60 58l-276 275l57 57l275 -276q44 -44 90 -96.5t59 -66.5l81 204l32 -6l21 -354l-21 -21z" />
    <glyph glyph-name="uni2199" unicode="&#x2199;" horiz-adv-x="755" 
d="M457 67l-354 -21l-21 21l21 354l32 6l81 -204q13 14 59 66.5t90 96.5l275 276l57 -57l-276 -275q-34 -34 -60 -58t-55 -49.5t-48 -42.5l204 -81z" />
    <glyph glyph-name="minus" unicode="&#x2212;" horiz-adv-x="576" 
d="M70 258v79h436v-79h-436z" />
    <glyph glyph-name="approxequal" unicode="&#x2248;" horiz-adv-x="576" 
d="M516 467q-17 -124 -135 -124q-42 0 -105 31t-98 31q-29 0 -43 -13.5t-24 -41.5l-50 19q19 119 134 119q43 0 108.5 -31t96.5 -31q6 0 12 1t10.5 2t9 4.5t7 5t6 6.5t5 6.5t5 7.5t4 7.5t3.5 8t3 7.5zM516 272q-17 -124 -135 -124q-42 0 -105 31t-98 31q-29 0 -43 -13.5
t-24 -41.5l-50 19q19 119 134 119q43 0 108.5 -31t96.5 -31q6 0 12 1t10.5 2t9 4.5t7 5t6 6.5t5 6.5t5 7.5t4 7.5t3.5 8t3 7.5z" />
    <glyph glyph-name="notequal" unicode="&#x2260;" horiz-adv-x="576" 
d="M506 373h-155l-64 -111h219v-74h-262l-75 -129h-82l75 129h-92v74h135l64 111h-199v74h242l75 129h82l-75 -129h112v-74z" />
    <glyph glyph-name="lessequal" unicode="&#x2264;" horiz-adv-x="576" 
d="M501 190l-431 153v68l431 154v-87l-330 -101l330 -102v-85zM506 57h-436v74h436v-74z" />
    <glyph glyph-name="greaterequal" unicode="&#x2265;" horiz-adv-x="576" 
d="M75 190v85l330 102l-330 101v87l431 -154v-68zM70 57v74h436v-74h-436z" />
    <glyph glyph-name="fi" unicode="&#xfb01;" horiz-adv-x="717" 
d="M646 75h51v-75h-291v75h51q31 0 31 31v293q0 31 -31 31h-213v-324q0 -31 31 -31h87v-75h-324v75h49q31 0 31 31v324h-90v75h59q31 0 31 26v2q0 90 67.5 149t172.5 59q85 0 138 -32t53 -86q0 -31 -21.5 -53t-54.5 -22q-32 0 -54 21.5t-22 52.5q0 34 31 51q-21 10 -53 10
q-58 0 -94.5 -40.5t-36.5 -109.5v-28h371v-399q0 -31 31 -31z" />
    <glyph glyph-name="fl" unicode="&#xfb02;" horiz-adv-x="721" 
d="M645 75h51v-75h-291v75h51q31 0 31 31v324h-243v-324q0 -31 31 -31h87v-75h-324v75h49q31 0 31 31v324h-90v75h59q31 0 31 26v2q0 90 67.5 149t172.5 59q69 0 118.5 -21.5t65.5 -60.5l25 21h47v-574q0 -31 31 -31zM487 505v44q-5 -1 -14 -1q-32 0 -54 21.5t-22 52.5
q0 34 31 51q-21 10 -53 10q-58 0 -94.5 -40.5t-36.5 -109.5v-28h243z" />
    <glyph glyph-name="A.fina" horiz-adv-x="1012" 
d="M921 265q34 0 57.5 -23.5t23.5 -68.5q0 -72 -62.5 -127.5t-171.5 -55.5q-97 0 -169 47.5t-134 139.5l-6 9h-247v-80q0 -31 31 -31h94v-75h-307v75h67q31 0 31 31v468q0 31 -31 31h-67v75h272l344 -501q49 -71 84 -96.5t85 -25.5q85 0 111 68q-33 2 -55.5 20.5t-22.5 50.5
q0 30 20.5 49.5t52.5 19.5zM212 252h203l-203 304v-304z" />
    <glyph glyph-name="Aacute.fina" horiz-adv-x="1012" 
d="M359 840q-27 -32 -157 -115l-27 23q59 139 77 164q4 6 8 11q20 22 45 24.5t47 -15.5q23 -19 24.5 -45t-17.5 -47zM921 265q34 0 57.5 -23.5t23.5 -68.5q0 -72 -62.5 -127.5t-171.5 -55.5q-97 0 -169 47.5t-134 139.5l-6 9h-247v-80q0 -31 31 -31h94v-75h-307v75h67
q31 0 31 31v468q0 31 -31 31h-67v75h272l344 -501q49 -71 84 -96.5t85 -25.5q85 0 111 68q-33 2 -55.5 20.5t-22.5 50.5q0 30 20.5 49.5t52.5 19.5zM212 252h203l-203 304v-304z" />
    <glyph glyph-name="Abreve.fina" horiz-adv-x="1012" 
d="M203 749q-67 0 -107 40t-45 118l62 10q20 -79 90 -79q66 0 88 79l61 -10q-4 -78 -44 -118t-105 -40zM921 265q34 0 57.5 -23.5t23.5 -68.5q0 -72 -62.5 -127.5t-171.5 -55.5q-97 0 -169 47.5t-134 139.5l-6 9h-247v-80q0 -31 31 -31h94v-75h-307v75h67q31 0 31 31v468
q0 31 -31 31h-67v75h272l344 -501q49 -71 84 -96.5t85 -25.5q85 0 111 68q-33 2 -55.5 20.5t-22.5 50.5q0 30 20.5 49.5t52.5 19.5zM212 252h203l-203 304v-304z" />
    <glyph glyph-name="Acircumflex.fina" horiz-adv-x="1012" 
d="M203 810l-108 -77l-40 35l111 143q21 26 37 26q15 0 36 -26l112 -143l-40 -35zM921 265q34 0 57.5 -23.5t23.5 -68.5q0 -72 -62.5 -127.5t-171.5 -55.5q-97 0 -169 47.5t-134 139.5l-6 9h-247v-80q0 -31 31 -31h94v-75h-307v75h67q31 0 31 31v468q0 31 -31 31h-67v75h272
l344 -501q49 -71 84 -96.5t85 -25.5q85 0 111 68q-33 2 -55.5 20.5t-22.5 50.5q0 30 20.5 49.5t52.5 19.5zM212 252h203l-203 304v-304z" />
    <glyph glyph-name="Adieresis.fina" horiz-adv-x="1012" 
d="M98 742q-34 0 -56 22t-22 55q0 34 22 56t56 22t55.5 -21.5t21.5 -55.5t-21.5 -56t-55.5 -22zM308 742q-34 0 -56 22t-22 55q0 34 22 56t56 22t55.5 -21.5t21.5 -55.5t-21.5 -56t-55.5 -22zM921 265q34 0 57.5 -23.5t23.5 -68.5q0 -72 -62.5 -127.5t-171.5 -55.5
q-97 0 -169 47.5t-134 139.5l-6 9h-247v-80q0 -31 31 -31h94v-75h-307v75h67q31 0 31 31v468q0 31 -31 31h-67v75h272l344 -501q49 -71 84 -96.5t85 -25.5q85 0 111 68q-33 2 -55.5 20.5t-22.5 50.5q0 30 20.5 49.5t52.5 19.5zM212 252h203l-203 304v-304z" />
    <glyph glyph-name="Agrave.fina" horiz-adv-x="1012" 
d="M229 725q-130 83 -157 115q-19 21 -17.5 47t24.5 45q22 18 47 15.5t45 -24.5q21 -24 76 -155q3 -6 5 -10.5t4 -9.5zM921 265q34 0 57.5 -23.5t23.5 -68.5q0 -72 -62.5 -127.5t-171.5 -55.5q-97 0 -169 47.5t-134 139.5l-6 9h-247v-80q0 -31 31 -31h94v-75h-307v75h67
q31 0 31 31v468q0 31 -31 31h-67v75h272l344 -501q49 -71 84 -96.5t85 -25.5q85 0 111 68q-33 2 -55.5 20.5t-22.5 50.5q0 30 20.5 49.5t52.5 19.5zM212 252h203l-203 304v-304z" />
    <glyph glyph-name="Amacron.fina" horiz-adv-x="1012" 
d="M353 847v-86h-300v86h300zM921 265q34 0 57.5 -23.5t23.5 -68.5q0 -72 -62.5 -127.5t-171.5 -55.5q-97 0 -169 47.5t-134 139.5l-6 9h-247v-80q0 -31 31 -31h94v-75h-307v75h67q31 0 31 31v468q0 31 -31 31h-67v75h272l344 -501q49 -71 84 -96.5t85 -25.5q85 0 111 68
q-33 2 -55.5 20.5t-22.5 50.5q0 30 20.5 49.5t52.5 19.5zM212 252h203l-203 304v-304z" />
    <glyph glyph-name="Aogonek.fina" horiz-adv-x="1012" 
d="M904 -133q23 0 53 16l27 -58q-41 -42 -108 -42q-51 0 -84.5 27t-33.5 72q0 55 69 113q-32 -5 -59 -5q-97 0 -169 47.5t-134 139.5l-6 9h-247v-80q0 -31 31 -31h94v-75h-307v75h67q31 0 31 31v468q0 31 -31 31h-67v75h272l344 -501q49 -71 83.5 -96t85.5 -25q44 0 72 19.5
t39 48.5q-32 1 -55 20t-23 50q0 30 20.5 49.5t52.5 19.5q34 0 57.5 -23.5t23.5 -68.5q0 -71 -57 -124q-37 -39 -51.5 -55.5t-26 -37.5t-11.5 -41q0 -22 13.5 -35t34.5 -13zM212 252h203l-203 304v-304z" />
    <glyph glyph-name="Aring.fina" horiz-adv-x="1012" 
d="M203 730q-52 0 -86.5 30.5t-34.5 76.5t34.5 76.5t86.5 30.5t86 -30t34 -76q0 -47 -34 -77.5t-86 -30.5zM202 892q-22 0 -37 -15.5t-15 -38.5q0 -24 15 -39t38 -15t37.5 15t14.5 38q0 24 -15 39.5t-38 15.5zM921 265q34 0 57.5 -23.5t23.5 -68.5q0 -72 -62.5 -127.5
t-171.5 -55.5q-97 0 -169 47.5t-134 139.5l-6 9h-247v-80q0 -31 31 -31h94v-75h-307v75h67q31 0 31 31v468q0 31 -31 31h-67v75h272l344 -501q49 -71 84 -96.5t85 -25.5q85 0 111 68q-33 2 -55.5 20.5t-22.5 50.5q0 30 20.5 49.5t52.5 19.5zM212 252h203l-203 304v-304z" />
    <glyph glyph-name="Atilde.fina" horiz-adv-x="1012" 
d="M117 805q-16 0 -26 -7.5t-13 -15t-9 -27.5l-51 17q10 133 114 133q34 0 84.5 -28.5t73.5 -28.5q8 0 15 3t11 5.5t8 9.5t5 9.5t4 12.5l3 9l51 -9q-8 -140 -114 -140q-33 0 -81 28.5t-75 28.5zM921 265q34 0 57.5 -23.5t23.5 -68.5q0 -72 -62.5 -127.5t-171.5 -55.5
q-97 0 -169 47.5t-134 139.5l-6 9h-247v-80q0 -31 31 -31h94v-75h-307v75h67q31 0 31 31v468q0 31 -31 31h-67v75h272l344 -501q49 -71 84 -96.5t85 -25.5q85 0 111 68q-33 2 -55.5 20.5t-22.5 50.5q0 30 20.5 49.5t52.5 19.5zM212 252h203l-203 304v-304z" />
    <glyph glyph-name="K.fina" horiz-adv-x="962" 
d="M268 106q0 -31 31 -31h59v-75h-328v75h67q31 0 31 31v468q0 31 -31 31h-67v75h328v-75h-59q-31 0 -31 -31v-468zM871 270q34 0 57.5 -24t23.5 -71q0 -73 -54.5 -129t-159.5 -56q-53 0 -99 15t-85 44t-67.5 58t-61.5 70l-122 155l221 244q12 14 10 21.5t-17 7.5h-81v75
h308v-75h-35q-52 0 -80 -31l-184 -208l148 -187q56 -70 95 -96t87 -26t77 21t36 53q-35 -3 -62.5 16.5t-27.5 53.5q0 30 20.5 49.5t52.5 19.5z" />
    <glyph glyph-name="Kcommaaccent.fina" horiz-adv-x="962" 
d="M268 106q0 -31 31 -31h59v-75h-328v75h67q31 0 31 31v468q0 31 -31 31h-67v75h328v-75h-59q-31 0 -31 -31v-468zM871 270q34 0 57.5 -24t23.5 -71q0 -73 -54.5 -129t-159.5 -56q-53 0 -99 15t-85 44t-67.5 58t-61.5 70l-122 155l221 244q12 14 10 21.5t-17 7.5h-81v75
h308v-75h-35q-52 0 -80 -31l-184 -208l148 -187q56 -70 95 -96t87 -26t77 21t36 53q-35 -3 -62.5 16.5t-27.5 53.5q0 30 20.5 49.5t52.5 19.5zM461 -48q32 0 52.5 -21t20.5 -56q0 -50 -37.5 -94t-101.5 -66l-16 31q75 40 82 76h-2q-34 0 -53.5 18.5t-19.5 46.5t21 46.5
t54 18.5z" />
    <glyph glyph-name="R.fina" horiz-adv-x="947" 
d="M856 270q34 0 57.5 -24t23.5 -71q0 -73 -55.5 -129t-163.5 -56q-69 0 -130.5 29t-100 65.5t-82.5 92.5l-73 94h-20h-44v-165q0 -31 31 -31h79v-75h-348v75h67q31 0 31 31v468q0 31 -31 31h-67v75h348q128 0 199 -55t71 -141q0 -70 -41.5 -120t-126.5 -73l88 -112
q56 -70 95.5 -96t88.5 -26q50 0 81.5 21t39.5 53q-35 -3 -62.5 16.5t-27.5 53.5q0 30 20.5 49.5t52.5 19.5zM268 605v-259h85q71 0 109.5 40t38.5 95q0 54 -38 89t-110 35h-85z" />
    <glyph glyph-name="Racute.fina" horiz-adv-x="947" 
d="M520 840q-27 -32 -157 -115l-27 23q59 139 77 164q4 6 8 11q20 22 45 24.5t47 -15.5q23 -19 24.5 -45t-17.5 -47zM856 270q34 0 57.5 -24t23.5 -71q0 -73 -55.5 -129t-163.5 -56q-69 0 -130.5 29t-100 65.5t-82.5 92.5l-73 94h-20h-44v-165q0 -31 31 -31h79v-75h-348v75
h67q31 0 31 31v468q0 31 -31 31h-67v75h348q128 0 199 -55t71 -141q0 -70 -41.5 -120t-126.5 -73l88 -112q56 -70 95.5 -96t88.5 -26q50 0 81.5 21t39.5 53q-35 -3 -62.5 16.5t-27.5 53.5q0 30 20.5 49.5t52.5 19.5zM268 605v-259h85q71 0 109.5 40t38.5 95q0 54 -38 89
t-110 35h-85z" />
    <glyph glyph-name="Rcaron.fina" horiz-adv-x="947" 
d="M364 733q-16 0 -37 26l-111 143l40 35l108 -77l108 77l40 -35l-112 -143q-21 -26 -36 -26zM856 270q34 0 57.5 -24t23.5 -71q0 -73 -55.5 -129t-163.5 -56q-69 0 -130.5 29t-100 65.5t-82.5 92.5l-73 94h-20h-44v-165q0 -31 31 -31h79v-75h-348v75h67q31 0 31 31v468
q0 31 -31 31h-67v75h348q128 0 199 -55t71 -141q0 -70 -41.5 -120t-126.5 -73l88 -112q56 -70 95.5 -96t88.5 -26q50 0 81.5 21t39.5 53q-35 -3 -62.5 16.5t-27.5 53.5q0 30 20.5 49.5t52.5 19.5zM268 605v-259h85q71 0 109.5 40t38.5 95q0 54 -38 89t-110 35h-85z" />
    <glyph glyph-name="Rcommaaccent.fina" horiz-adv-x="947" 
d="M856 270q34 0 57.5 -24t23.5 -71q0 -73 -55.5 -129t-163.5 -56q-69 0 -130.5 29t-100 65.5t-82.5 92.5l-73 94h-20h-44v-165q0 -31 31 -31h79v-75h-348v75h67q31 0 31 31v468q0 31 -31 31h-67v75h348q128 0 199 -55t71 -141q0 -70 -41.5 -120t-126.5 -73l88 -112
q56 -70 95.5 -96t88.5 -26q50 0 81.5 21t39.5 53q-35 -3 -62.5 16.5t-27.5 53.5q0 30 20.5 49.5t52.5 19.5zM268 605v-259h85q71 0 109.5 40t38.5 95q0 54 -38 89t-110 35h-85zM419 -48q32 0 52.5 -21t20.5 -56q0 -50 -37.5 -94t-101.5 -66l-16 31q75 40 82 76h-2
q-34 0 -53.5 18.5t-19.5 46.5t21 46.5t54 18.5z" />
    <glyph glyph-name="A.init" horiz-adv-x="1018" 
d="M921 605q-31 0 -31 -31v-468q0 -31 31 -31h67v-75h-363v75h94q31 0 31 31v80h-242l-6 -9q-119 -182 -288 -182q-107 0 -160.5 56.5t-53.5 125.5q0 46 24 69.5t58 23.5q31 0 51.5 -20t20.5 -49q0 -31 -23 -50t-56 -21q28 -72 138 -72t193 121l340 501h242v-75h-67z
M551 252h199v304z" />
    <glyph glyph-name="Aacute.init" horiz-adv-x="1018" 
d="M993 932q23 -19 24.5 -45t-17.5 -47q-27 -32 -157 -115l-27 23q59 139 77 164q4 6 8 11q20 22 45 24.5t47 -15.5zM406 179l340 501h242v-75h-67q-31 0 -31 -31v-468q0 -31 31 -31h67v-75h-363v75h94q31 0 31 31v80h-242l-6 -9q-119 -182 -288 -182q-107 0 -160.5 56.5
t-53.5 125.5q0 46 24 69.5t58 23.5q31 0 51.5 -20t20.5 -49q0 -31 -23 -50t-56 -21q28 -72 138 -72t193 121zM750 252v304l-199 -304h199z" />
    <glyph glyph-name="Abreve.init" horiz-adv-x="1018" 
d="M844 749q-67 0 -107 40t-45 118l62 10q20 -79 90 -79q66 0 88 79l61 -10q-4 -78 -44 -118t-105 -40zM406 179l340 501h242v-75h-67q-31 0 -31 -31v-468q0 -31 31 -31h67v-75h-363v75h94q31 0 31 31v80h-242l-6 -9q-119 -182 -288 -182q-107 0 -160.5 56.5t-53.5 125.5
q0 46 24 69.5t58 23.5q31 0 51.5 -20t20.5 -49q0 -31 -23 -50t-56 -21q28 -72 138 -72t193 121zM750 252v304l-199 -304h199z" />
    <glyph glyph-name="Acircumflex.init" horiz-adv-x="1018" 
d="M844 810l-108 -77l-40 35l111 143q21 26 37 26q15 0 36 -26l112 -143l-40 -35zM406 179l340 501h242v-75h-67q-31 0 -31 -31v-468q0 -31 31 -31h67v-75h-363v75h94q31 0 31 31v80h-242l-6 -9q-119 -182 -288 -182q-107 0 -160.5 56.5t-53.5 125.5q0 46 24 69.5t58 23.5
q31 0 51.5 -20t20.5 -49q0 -31 -23 -50t-56 -21q28 -72 138 -72t193 121zM750 252v304l-199 -304h199z" />
    <glyph glyph-name="Adieresis.init" horiz-adv-x="1018" 
d="M739 742q-34 0 -56 22t-22 55q0 34 22 56t56 22t55.5 -21.5t21.5 -55.5t-21.5 -56t-55.5 -22zM949 897q34 0 55.5 -21.5t21.5 -55.5t-21.5 -56t-55.5 -22t-56 22t-22 55q0 34 22 56t56 22zM406 179l340 501h242v-75h-67q-31 0 -31 -31v-468q0 -31 31 -31h67v-75h-363v75
h94q31 0 31 31v80h-242l-6 -9q-119 -182 -288 -182q-107 0 -160.5 56.5t-53.5 125.5q0 46 24 69.5t58 23.5q31 0 51.5 -20t20.5 -49q0 -31 -23 -50t-56 -21q28 -72 138 -72t193 121zM750 252v304l-199 -304h199z" />
    <glyph glyph-name="Agrave.init" horiz-adv-x="1018" 
d="M870 725q-130 83 -157 115q-19 21 -17.5 47t24.5 45q22 18 47 15.5t45 -24.5q21 -24 76 -155q3 -6 5 -10.5t4 -9.5zM921 605q-31 0 -31 -31v-468q0 -31 31 -31h67v-75h-363v75h94q31 0 31 31v80h-242l-6 -9q-119 -182 -288 -182q-107 0 -160.5 56.5t-53.5 125.5
q0 46 24 69.5t58 23.5q31 0 51.5 -20t20.5 -49q0 -31 -23 -50t-56 -21q28 -72 138 -72t193 121l340 501h242v-75h-67zM551 252h199v304z" />
    <glyph glyph-name="Amacron.init" horiz-adv-x="1018" 
d="M694 847h300v-86h-300v86zM406 179l340 501h242v-75h-67q-31 0 -31 -31v-468q0 -31 31 -31h67v-75h-363v75h94q31 0 31 31v80h-242l-6 -9q-119 -182 -288 -182q-107 0 -160.5 56.5t-53.5 125.5q0 46 24 69.5t58 23.5q31 0 51.5 -20t20.5 -49q0 -31 -23 -50t-56 -21
q28 -72 138 -72t193 121zM750 252v304l-199 -304h199z" />
    <glyph glyph-name="Aogonek.init" horiz-adv-x="1018" 
d="M921 605q-31 0 -31 -31v-468q0 -31 31 -31h67v-75h-80q-55 0 -89.5 -26t-34.5 -59q0 -22 13.5 -35t36.5 -13q21 0 51 16l28 -58q-44 -42 -108 -42q-51 0 -85 27.5t-34 71.5q0 37 24 67.5t68 50.5h-153v75h94q31 0 31 31v80h-242l-6 -9q-119 -182 -288 -182
q-107 0 -160.5 56.5t-53.5 125.5q0 46 24 69.5t58 23.5q31 0 51.5 -20t20.5 -49q0 -31 -23 -50t-56 -21q28 -72 138 -72t193 121l340 501h242v-75h-67zM551 252h199v304z" />
    <glyph glyph-name="Aring.init" horiz-adv-x="1018" 
d="M844 730q-52 0 -86.5 30.5t-34.5 76.5t34.5 76.5t86.5 30.5t86 -30t34 -76q0 -47 -34 -77.5t-86 -30.5zM843 892q-22 0 -37 -15.5t-15 -38.5q0 -24 15 -39t38 -15t37.5 15t14.5 38q0 24 -15 39.5t-38 15.5zM921 605q-31 0 -31 -31v-468q0 -31 31 -31h67v-75h-363v75h94
q31 0 31 31v80h-242l-6 -9q-119 -182 -288 -182q-107 0 -160.5 56.5t-53.5 125.5q0 46 24 69.5t58 23.5q31 0 51.5 -20t20.5 -49q0 -31 -23 -50t-56 -21q28 -72 138 -72t193 121l340 501h242v-75h-67zM551 252h199v304z" />
    <glyph glyph-name="Atilde.init" horiz-adv-x="1018" 
d="M977 897l51 -9q-8 -140 -114 -140q-33 0 -81.5 28.5t-74.5 28.5q-16 0 -26 -7.5t-13 -15t-9 -27.5l-51 17q10 133 114 133q34 0 84.5 -28.5t73.5 -28.5q8 0 15 3t11 5.5t8 9.5t5 9.5t4 12.5zM406 179l340 501h242v-75h-67q-31 0 -31 -31v-468q0 -31 31 -31h67v-75h-363
v75h94q31 0 31 31v80h-242l-6 -9q-119 -182 -288 -182q-107 0 -160.5 56.5t-53.5 125.5q0 46 24 69.5t58 23.5q31 0 51.5 -20t20.5 -49q0 -31 -23 -50t-56 -21q28 -72 138 -72t193 121zM750 252v304l-199 -304h199z" />
    <glyph glyph-name="T.init" horiz-adv-x="687" 
d="M493 610h-58v-504q0 -31 31 -31h87v-75h-375v75h86q31 0 31 31v504h-66q-68 0 -102 -8t-48 -32q28 -2 48.5 -20.5t20.5 -46.5q0 -29 -21.5 -49t-52.5 -20q-32 0 -53.5 23t-21.5 60q0 70 56 116.5t174 46.5h264q67 0 97.5 8t42.5 32q-28 2 -48.5 20t-20.5 47t21.5 49
t52.5 20q32 0 53 -23t21 -60q0 -70 -52.5 -116.5t-166.5 -46.5z" />
    <glyph glyph-name="Tbar.init" horiz-adv-x="687" 
d="M493 610h-58v-268h132v-60h-132v-176q0 -31 31 -31h87v-75h-375v75h86q31 0 31 31v176h-123v60h123v268h-66q-68 0 -102 -8t-48 -32q28 -2 48.5 -20.5t20.5 -46.5q0 -29 -21.5 -49t-52.5 -20q-32 0 -53.5 23t-21.5 60q0 70 56 116.5t174 46.5h264q67 0 97.5 8t42.5 32
q-28 2 -48.5 20t-20.5 47t21.5 49t52.5 20q32 0 53 -23t21 -60q0 -70 -52.5 -116.5t-166.5 -46.5z" />
    <glyph glyph-name="Tcaron.init" horiz-adv-x="687" 
d="M364 733q-16 0 -37 26l-111 143l40 35l108 -77l108 77l40 -35l-112 -143q-21 -26 -36 -26zM493 610h-58v-504q0 -31 31 -31h87v-75h-375v75h86q31 0 31 31v504h-66q-68 0 -102 -8t-48 -32q28 -2 48.5 -20.5t20.5 -46.5q0 -29 -21.5 -49t-52.5 -20q-32 0 -53.5 23
t-21.5 60q0 70 56 116.5t174 46.5h264q67 0 97.5 8t42.5 32q-28 2 -48.5 20t-20.5 47t21.5 49t52.5 20q32 0 53 -23t21 -60q0 -70 -52.5 -116.5t-166.5 -46.5z" />
    <glyph glyph-name="uni0162.init" horiz-adv-x="687" 
d="M493 610h-58v-504q0 -31 31 -31h87v-75h-181l-29 -59q49 0 80.5 -22.5t31.5 -61.5q0 -41 -35 -67.5t-88 -26.5q-48 0 -101 28l18 43q38 -22 74 -22q23 0 37.5 10.5t14.5 28.5q0 24 -26.5 34.5t-69.5 4.5l-11 25l51 85h-141v75h86q31 0 31 31v504h-66q-68 0 -102 -8
t-48 -32q28 -2 48.5 -20.5t20.5 -46.5q0 -29 -21.5 -49t-52.5 -20q-32 0 -53.5 23t-21.5 60q0 70 56 116.5t174 46.5h264q67 0 97.5 8t42.5 32q-28 2 -48.5 20t-20.5 47t21.5 49t52.5 20q32 0 53 -23t21 -60q0 -70 -52.5 -116.5t-166.5 -46.5z" />
    <glyph glyph-name="uni021A.init" horiz-adv-x="687" 
d="M493 610h-58v-504q0 -31 31 -31h87v-75h-375v75h86q31 0 31 31v504h-66q-68 0 -102 -8t-48 -32q28 -2 48.5 -20.5t20.5 -46.5q0 -29 -21.5 -49t-52.5 -20q-32 0 -53.5 23t-21.5 60q0 70 56 116.5t174 46.5h264q67 0 97.5 8t42.5 32q-28 2 -48.5 20t-20.5 47t21.5 49
t52.5 20q32 0 53 -23t21 -60q0 -70 -52.5 -116.5t-166.5 -46.5zM369 -48q32 0 52.5 -21t20.5 -56q0 -50 -37.5 -94t-101.5 -66l-16 31q75 40 82 76h-2q-34 0 -53.5 18.5t-19.5 46.5t21 46.5t54 18.5z" />
    <glyph glyph-name="R.ss03" horiz-adv-x="813" 
d="M728 265q34 0 57 -24t23 -76q0 -30 -9 -58t-28.5 -56t-58.5 -44.5t-93 -16.5q-126 0 -170 112l-42 104q-25 65 -95 65h-44v-165q0 -31 31 -31h64v-75h-333v75h67q31 0 31 31v468q0 31 -31 31h-67v75h348q127 0 198.5 -55t71.5 -136q0 -79 -66 -134.5t-147 -66.5
q96 -20 127 -103l33 -79q20 -49 65 -49q31 0 50.5 19t24.5 50q-33 -1 -57 18.5t-24 51.5q0 30 20.5 49.5t53.5 19.5zM353 346q71 0 109.5 40t38.5 95q0 54 -38 89t-110 35h-85v-259h85z" />
    <glyph glyph-name="Racute.ss03" horiz-adv-x="813" 
d="M520 840q-27 -32 -157 -115l-27 23q59 139 77 164q4 6 8 11q20 22 45 24.5t47 -15.5q23 -19 24.5 -45t-17.5 -47zM728 265q34 0 57 -24t23 -76q0 -30 -9 -58t-28.5 -56t-58.5 -44.5t-93 -16.5q-126 0 -170 112l-42 104q-25 65 -95 65h-44v-165q0 -31 31 -31h64v-75h-333
v75h67q31 0 31 31v468q0 31 -31 31h-67v75h348q127 0 198.5 -55t71.5 -136q0 -79 -66 -134.5t-147 -66.5q96 -20 127 -103l33 -79q20 -49 65 -49q31 0 50.5 19t24.5 50q-33 -1 -57 18.5t-24 51.5q0 30 20.5 49.5t53.5 19.5zM353 346q71 0 109.5 40t38.5 95q0 54 -38 89
t-110 35h-85v-259h85z" />
    <glyph glyph-name="Rcaron.ss03" horiz-adv-x="813" 
d="M364 733q-16 0 -37 26l-111 143l40 35l108 -77l108 77l40 -35l-112 -143q-21 -26 -36 -26zM728 265q34 0 57 -24t23 -76q0 -30 -9 -58t-28.5 -56t-58.5 -44.5t-93 -16.5q-126 0 -170 112l-42 104q-25 65 -95 65h-44v-165q0 -31 31 -31h64v-75h-333v75h67q31 0 31 31v468
q0 31 -31 31h-67v75h348q127 0 198.5 -55t71.5 -136q0 -79 -66 -134.5t-147 -66.5q96 -20 127 -103l33 -79q20 -49 65 -49q31 0 50.5 19t24.5 50q-33 -1 -57 18.5t-24 51.5q0 30 20.5 49.5t53.5 19.5zM353 346q71 0 109.5 40t38.5 95q0 54 -38 89t-110 35h-85v-259h85z" />
    <glyph glyph-name="Rcommaaccent.ss03" horiz-adv-x="813" 
d="M728 265q34 0 57 -24t23 -76q0 -30 -9 -58t-28.5 -56t-58.5 -44.5t-93 -16.5q-126 0 -170 112l-42 104q-25 65 -95 65h-44v-165q0 -31 31 -31h64v-75h-333v75h67q31 0 31 31v468q0 31 -31 31h-67v75h348q127 0 198.5 -55t71.5 -136q0 -79 -66 -134.5t-147 -66.5
q96 -20 127 -103l33 -79q20 -49 65 -49q31 0 50.5 19t24.5 50q-33 -1 -57 18.5t-24 51.5q0 30 20.5 49.5t53.5 19.5zM353 346q71 0 109.5 40t38.5 95q0 54 -38 89t-110 35h-85v-259h85zM419 -48q32 0 52.5 -21t20.5 -56q0 -50 -37.5 -94t-101.5 -66l-16 31q75 40 82 76h-2
q-34 0 -53.5 18.5t-19.5 46.5t21 46.5t54 18.5z" />
    <glyph glyph-name="T.ss03" horiz-adv-x="687" 
d="M493 610h-58v-504q0 -31 31 -31h87v-75h-375v75h86q31 0 31 31v504h-66q-68 0 -102 -8t-48 -32q28 -2 48.5 -20.5t20.5 -46.5q0 -29 -21.5 -49t-52.5 -20q-32 0 -53.5 23t-21.5 60q0 70 56 116.5t174 46.5h264q67 0 97.5 8t42.5 32q-28 2 -48.5 20t-20.5 47t21.5 49
t52.5 20q32 0 53 -23t21 -60q0 -70 -52.5 -116.5t-166.5 -46.5z" />
    <glyph glyph-name="Tbar.ss03" horiz-adv-x="687" 
d="M493 610h-58v-268h132v-60h-132v-176q0 -31 31 -31h87v-75h-375v75h86q31 0 31 31v176h-123v60h123v268h-66q-68 0 -102 -8t-48 -32q28 -2 48.5 -20.5t20.5 -46.5q0 -29 -21.5 -49t-52.5 -20q-32 0 -53.5 23t-21.5 60q0 70 56 116.5t174 46.5h264q67 0 97.5 8t42.5 32
q-28 2 -48.5 20t-20.5 47t21.5 49t52.5 20q32 0 53 -23t21 -60q0 -70 -52.5 -116.5t-166.5 -46.5z" />
    <glyph glyph-name="Tcaron.ss03" horiz-adv-x="687" 
d="M364 733q-16 0 -37 26l-111 143l40 35l108 -77l108 77l40 -35l-112 -143q-21 -26 -36 -26zM493 610h-58v-504q0 -31 31 -31h87v-75h-375v75h86q31 0 31 31v504h-66q-68 0 -102 -8t-48 -32q28 -2 48.5 -20.5t20.5 -46.5q0 -29 -21.5 -49t-52.5 -20q-32 0 -53.5 23
t-21.5 60q0 70 56 116.5t174 46.5h264q67 0 97.5 8t42.5 32q-28 2 -48.5 20t-20.5 47t21.5 49t52.5 20q32 0 53 -23t21 -60q0 -70 -52.5 -116.5t-166.5 -46.5z" />
    <glyph glyph-name="uni0162.ss03" horiz-adv-x="687" 
d="M493 610h-58v-504q0 -31 31 -31h87v-75h-181l-29 -59q49 0 80.5 -22.5t31.5 -61.5q0 -41 -35 -67.5t-88 -26.5q-48 0 -101 28l18 43q38 -22 74 -22q23 0 37.5 10.5t14.5 28.5q0 24 -26.5 34.5t-69.5 4.5l-11 25l51 85h-141v75h86q31 0 31 31v504h-66q-68 0 -102 -8
t-48 -32q28 -2 48.5 -20.5t20.5 -46.5q0 -29 -21.5 -49t-52.5 -20q-32 0 -53.5 23t-21.5 60q0 70 56 116.5t174 46.5h264q67 0 97.5 8t42.5 32q-28 2 -48.5 20t-20.5 47t21.5 49t52.5 20q32 0 53 -23t21 -60q0 -70 -52.5 -116.5t-166.5 -46.5z" />
    <glyph glyph-name="uni021A.ss03" horiz-adv-x="687" 
d="M493 610h-58v-504q0 -31 31 -31h87v-75h-375v75h86q31 0 31 31v504h-66q-68 0 -102 -8t-48 -32q28 -2 48.5 -20.5t20.5 -46.5q0 -29 -21.5 -49t-52.5 -20q-32 0 -53.5 23t-21.5 60q0 70 56 116.5t174 46.5h264q67 0 97.5 8t42.5 32q-28 2 -48.5 20t-20.5 47t21.5 49
t52.5 20q32 0 53 -23t21 -60q0 -70 -52.5 -116.5t-166.5 -46.5zM369 -48q32 0 52.5 -21t20.5 -56q0 -50 -37.5 -94t-101.5 -66l-16 31q75 40 82 76h-2q-34 0 -53.5 18.5t-19.5 46.5t21 46.5t54 18.5z" />
    <glyph glyph-name="Q.ss04" horiz-adv-x="794" 
d="M396 690q154 0 253 -100.5t99 -249.5t-99 -249.5t-253 -100.5t-253 100.5t-99 249.5t99 249.5t253 100.5zM396 63q92 0 144.5 74t52.5 203t-52.5 203t-144.5 74t-144 -74t-52 -203t52 -203t144 -74zM398 -68l3 32l304 -4q24 0 40 -13.5t16 -33.5q0 -23 -18.5 -36
t-44.5 -7z" />
    <glyph glyph-name="A.ss08" horiz-adv-x="758" 
d="M720 75h33v-75h-319v75h59q15 0 21.5 8.5t0.5 21.5l-34 81h-269l-33 -80q-5 -13 0.5 -22t20.5 -9h64v-75h-259v75h38q34 0 48 34l213 501l-22 53v17h137l253 -575q14 -30 48 -30zM239 252h215l-108 257z" />
    <glyph glyph-name="Aacute.ss08" horiz-adv-x="758" 
d="M534 840q-27 -32 -157 -115l-27 23q59 139 77 164q4 6 8 11q20 22 45 24.5t47 -15.5q23 -19 24.5 -45t-17.5 -47zM720 75h33v-75h-319v75h59q15 0 21.5 8.5t0.5 21.5l-34 81h-269l-33 -80q-5 -13 0.5 -22t20.5 -9h64v-75h-259v75h38q34 0 48 34l213 501l-22 53v17h137
l253 -575q14 -30 48 -30zM239 252h215l-108 257z" />
    <glyph glyph-name="Abreve.ss08" horiz-adv-x="758" 
d="M378 749q-67 0 -107 40t-45 118l62 10q20 -79 90 -79q66 0 88 79l61 -10q-4 -78 -44 -118t-105 -40zM720 75h33v-75h-319v75h59q15 0 21.5 8.5t0.5 21.5l-34 81h-269l-33 -80q-5 -13 0.5 -22t20.5 -9h64v-75h-259v75h38q34 0 48 34l213 501l-22 53v17h137l253 -575
q14 -30 48 -30zM239 252h215l-108 257z" />
    <glyph glyph-name="Acircumflex.ss08" horiz-adv-x="758" 
d="M378 810l-108 -77l-40 35l111 143q21 26 37 26q15 0 36 -26l112 -143l-40 -35zM720 75h33v-75h-319v75h59q15 0 21.5 8.5t0.5 21.5l-34 81h-269l-33 -80q-5 -13 0.5 -22t20.5 -9h64v-75h-259v75h38q34 0 48 34l213 501l-22 53v17h137l253 -575q14 -30 48 -30zM239 252
h215l-108 257z" />
    <glyph glyph-name="Adieresis.ss08" horiz-adv-x="758" 
d="M273 742q-34 0 -56 22t-22 55q0 34 22 56t56 22t55.5 -21.5t21.5 -55.5t-21.5 -56t-55.5 -22zM483 742q-34 0 -56 22t-22 55q0 34 22 56t56 22t55.5 -21.5t21.5 -55.5t-21.5 -56t-55.5 -22zM720 75h33v-75h-319v75h59q15 0 21.5 8.5t0.5 21.5l-34 81h-269l-33 -80
q-5 -13 0.5 -22t20.5 -9h64v-75h-259v75h38q34 0 48 34l213 501l-22 53v17h137l253 -575q14 -30 48 -30zM239 252h215l-108 257z" />
    <glyph glyph-name="Agrave.ss08" horiz-adv-x="758" 
d="M404 725q-130 83 -157 115q-19 21 -17.5 47t24.5 45q22 18 47 15.5t45 -24.5q21 -24 76 -155q3 -6 5 -10.5t4 -9.5zM720 75h33v-75h-319v75h59q15 0 21.5 8.5t0.5 21.5l-34 81h-269l-33 -80q-5 -13 0.5 -22t20.5 -9h64v-75h-259v75h38q34 0 48 34l213 501l-22 53v17h137
l253 -575q14 -30 48 -30zM239 252h215l-108 257z" />
    <glyph glyph-name="Amacron.ss08" horiz-adv-x="758" 
d="M528 847v-86h-300v86h300zM720 75h33v-75h-319v75h59q15 0 21.5 8.5t0.5 21.5l-34 81h-269l-33 -80q-5 -13 0.5 -22t20.5 -9h64v-75h-259v75h38q34 0 48 34l213 501l-22 53v17h137l253 -575q14 -30 48 -30zM239 252h215l-108 257z" />
    <glyph glyph-name="Aogonek.ss08" horiz-adv-x="758" 
d="M693 0q-55 0 -89.5 -26t-34.5 -59q0 -22 13.5 -35t36.5 -13q21 0 51 16l28 -58q-44 -42 -108 -42q-51 0 -85 27.5t-34 71.5q0 37 24 67.5t68 50.5h-129v75h59q15 0 21.5 8.5t0.5 21.5l-34 81h-269l-33 -80q-5 -13 0.5 -22t20.5 -9h64v-75h-259v75h38q34 0 48 34l213 501
l-22 53v17h137l253 -575q14 -30 48 -30h33v-75h-60zM239 252h215l-108 257z" />
    <glyph glyph-name="Aring.ss08" horiz-adv-x="758" 
d="M378 730q-52 0 -86.5 30.5t-34.5 76.5t34.5 76.5t86.5 30.5t86 -30t34 -76q0 -47 -34 -77.5t-86 -30.5zM377 892q-22 0 -37 -15.5t-15 -38.5q0 -24 15 -39t38 -15t37.5 15t14.5 38q0 24 -15 39.5t-38 15.5zM720 75h33v-75h-319v75h59q15 0 21.5 8.5t0.5 21.5l-34 81h-269
l-33 -80q-5 -13 0.5 -22t20.5 -9h64v-75h-259v75h38q34 0 48 34l213 501l-22 53v17h137l253 -575q14 -30 48 -30zM239 252h215l-108 257z" />
    <glyph glyph-name="Atilde.ss08" horiz-adv-x="758" 
d="M292 805q-16 0 -26 -7.5t-13 -15t-9 -27.5l-51 17q10 133 114 133q34 0 84.5 -28.5t73.5 -28.5q8 0 15 3t11 5.5t8 9.5t5 9.5t4 12.5l3 9l51 -9q-8 -140 -114 -140q-32 0 -81 28.5t-75 28.5zM720 75h33v-75h-319v75h59q15 0 21.5 8.5t0.5 21.5l-34 81h-269l-33 -80
q-5 -13 0.5 -22t20.5 -9h64v-75h-259v75h38q34 0 48 34l213 501l-22 53v17h137l253 -575q14 -30 48 -30zM239 252h215l-108 257z" />
    <glyph glyph-name="i.loclTRK" horiz-adv-x="344" 
d="M173 565q-35 0 -58.5 23t-23.5 57q0 35 23.5 58.5t58.5 23.5t57.5 -22.5t22.5 -58.5q0 -35 -22.5 -58t-57.5 -23zM273 75h51v-75h-291v75h51q31 0 31 31v293q0 31 -31 31h-51v75h209v-399q0 -31 31 -31z" />
    <glyph glyph-name="k.fina" horiz-adv-x="862" 
d="M227 106q0 -31 31 -31h32v-75h-265v75h44q31 0 31 31v468q0 31 -31 31h-44v75h202v-574zM771 270q34 0 57.5 -24t23.5 -71q0 -73 -54.5 -129t-159.5 -56q-99 0 -170 49t-143 138l-71 89l149 141q10 9 6.5 16t-17.5 7h-86v75h291v-75h-36q-24 0 -38.5 -8t-33.5 -25
l-111 -104l94 -119q53 -66 98.5 -92t98.5 -26q47 0 78 21.5t41 53.5q-36 -3 -63 16t-27 54q0 30 20.5 49.5t52.5 19.5z" />
    <glyph glyph-name="kcommaaccent.fina" horiz-adv-x="862" 
d="M227 106q0 -31 31 -31h32v-75h-265v75h44q31 0 31 31v468q0 31 -31 31h-44v75h202v-574zM771 270q34 0 57.5 -24t23.5 -71q0 -73 -54.5 -129t-159.5 -56q-99 0 -170 49t-143 138l-71 89l149 141q10 9 6.5 16t-17.5 7h-86v75h291v-75h-36q-24 0 -38.5 -8t-33.5 -25
l-111 -104l94 -119q53 -66 98.5 -92t98.5 -26q47 0 78 21.5t41 53.5q-36 -3 -63 16t-27 54q0 30 20.5 49.5t52.5 19.5zM385 -48q32 0 52.5 -21t20.5 -56q0 -50 -37.5 -94t-101.5 -66l-16 31q75 40 82 76h-2q-34 0 -53.5 18.5t-19.5 46.5t21 46.5t54 18.5z" />
    <glyph glyph-name="a.ss01" horiz-adv-x="658" 
d="M589 430q-31 0 -31 -31v-293q0 -31 31 -31h39v-75h-199v98q-48 -108 -175 -108q-98 0 -159.5 72.5t-61.5 190.5q0 119 62.5 190t163.5 71q129 0 185 -102l35 93h149v-75h-39zM296 71q60 0 94.5 47.5t34.5 134.5q0 88 -34.5 135t-94.5 47q-57 0 -92 -48.5t-35 -133.5
q0 -84 35 -133t92 -49z" />
    <glyph glyph-name="aacute.ss01" horiz-adv-x="658" 
d="M455 665q-27 -32 -157 -115l-27 23q59 139 77 164q4 6 8 11q20 22 45 24.5t47 -15.5q23 -19 24.5 -45t-17.5 -47zM589 430q-31 0 -31 -31v-293q0 -31 31 -31h39v-75h-199v98q-48 -108 -175 -108q-98 0 -159.5 72.5t-61.5 190.5q0 119 62.5 190t163.5 71q129 0 185 -102
l35 93h149v-75h-39zM296 71q60 0 94.5 47.5t34.5 134.5q0 88 -34.5 135t-94.5 47q-57 0 -92 -48.5t-35 -133.5q0 -84 35 -133t92 -49z" />
    <glyph glyph-name="abreve.ss01" horiz-adv-x="658" 
d="M413 742l61 -10q-4 -78 -44 -118t-105 -40q-67 0 -107 40t-45 118l62 10q20 -79 90 -79q66 0 88 79zM589 430q-31 0 -31 -31v-293q0 -31 31 -31h39v-75h-199v98q-48 -108 -175 -108q-98 0 -159.5 72.5t-61.5 190.5q0 119 62.5 190t163.5 71q129 0 185 -102l35 93h149v-75
h-39zM296 71q60 0 94.5 47.5t34.5 134.5q0 88 -34.5 135t-94.5 47q-57 0 -92 -48.5t-35 -133.5q0 -84 35 -133t92 -49z" />
    <glyph glyph-name="acircumflex.ss01" horiz-adv-x="658" 
d="M191 558l-40 35l111 143q21 26 37 26q15 0 36 -26l112 -143l-40 -35l-108 77zM589 430q-31 0 -31 -31v-293q0 -31 31 -31h39v-75h-199v98q-48 -108 -175 -108q-98 0 -159.5 72.5t-61.5 190.5q0 119 62.5 190t163.5 71q129 0 185 -102l35 93h149v-75h-39zM296 71
q60 0 94.5 47.5t34.5 134.5q0 88 -34.5 135t-94.5 47q-57 0 -92 -48.5t-35 -133.5q0 -84 35 -133t92 -49z" />
    <glyph glyph-name="adieresis.ss01" horiz-adv-x="658" 
d="M194 567q-34 0 -56 22t-22 55q0 34 22 56t56 22t55.5 -21.5t21.5 -55.5t-21.5 -56t-55.5 -22zM404 567q-34 0 -56 22t-22 55q0 34 22 56t56 22t55.5 -21.5t21.5 -55.5t-21.5 -56t-55.5 -22zM589 430q-31 0 -31 -31v-293q0 -31 31 -31h39v-75h-199v98q-48 -108 -175 -108
q-98 0 -159.5 72.5t-61.5 190.5q0 119 62.5 190t163.5 71q129 0 185 -102l35 93h149v-75h-39zM296 71q60 0 94.5 47.5t34.5 134.5q0 88 -34.5 135t-94.5 47q-57 0 -92 -48.5t-35 -133.5q0 -84 35 -133t92 -49z" />
    <glyph glyph-name="agrave.ss01" horiz-adv-x="658" 
d="M352 573l-27 -23q-130 83 -157 115q-19 21 -17.5 47t24.5 45q22 18 47 15.5t45 -24.5q21 -24 76 -155q3 -6 5 -10.5t4 -9.5zM589 430q-31 0 -31 -31v-293q0 -31 31 -31h39v-75h-199v98q-48 -108 -175 -108q-98 0 -159.5 72.5t-61.5 190.5q0 119 62.5 190t163.5 71
q129 0 185 -102l35 93h149v-75h-39zM296 71q60 0 94.5 47.5t34.5 134.5q0 88 -34.5 135t-94.5 47q-57 0 -92 -48.5t-35 -133.5q0 -84 35 -133t92 -49z" />
    <glyph glyph-name="amacron.ss01" horiz-adv-x="658" 
d="M149 672h300v-86h-300v86zM589 430q-31 0 -31 -31v-293q0 -31 31 -31h39v-75h-199v98q-48 -108 -175 -108q-98 0 -159.5 72.5t-61.5 190.5q0 119 62.5 190t163.5 71q129 0 185 -102l35 93h149v-75h-39zM296 71q60 0 94.5 47.5t34.5 134.5q0 88 -34.5 135t-94.5 47
q-57 0 -92 -48.5t-35 -133.5q0 -84 35 -133t92 -49z" />
    <glyph glyph-name="aogonek.ss01" horiz-adv-x="658" 
d="M601 -117l28 -58q-43 -42 -108 -42q-51 0 -85 27.5t-34 71.5q0 37 24 67.5t68 50.5h-65v98q-48 -108 -175 -108q-98 0 -159.5 72.5t-61.5 190.5q0 119 62.5 190t163.5 71q129 0 185 -102l35 93h149v-75h-39q-31 0 -31 -31v-293q0 -31 31 -31h39v-75h-4q-55 0 -89.5 -26
t-34.5 -59q0 -22 13.5 -35t36.5 -13q21 0 51 16zM296 71q60 0 94.5 47.5t34.5 134.5q0 88 -34.5 135t-94.5 47q-57 0 -92 -48.5t-35 -133.5q0 -84 35 -133t92 -49z" />
    <glyph glyph-name="aring.ss01" horiz-adv-x="658" 
d="M299 555q-52 0 -86.5 30.5t-34.5 76.5t34.5 76.5t86.5 30.5t86 -30t34 -76q0 -47 -34 -77.5t-86 -30.5zM299 609q23 0 37.5 15t14.5 38q0 24 -15 39.5t-38 15.5q-22 0 -37 -15.5t-15 -38.5q0 -24 15 -39t38 -15zM589 430q-31 0 -31 -31v-293q0 -31 31 -31h39v-75h-199v98
q-48 -108 -175 -108q-98 0 -159.5 72.5t-61.5 190.5q0 119 62.5 190t163.5 71q129 0 185 -102l35 93h149v-75h-39zM296 71q60 0 94.5 47.5t34.5 134.5q0 88 -34.5 135t-94.5 47q-57 0 -92 -48.5t-35 -133.5q0 -84 35 -133t92 -49z" />
    <glyph glyph-name="atilde.ss01" horiz-adv-x="658" 
d="M483 713q-8 -140 -114 -140q-33 0 -81.5 28.5t-74.5 28.5q-16 0 -26 -7.5t-13 -15t-9 -27.5l-51 17q10 133 114 133q34 0 84.5 -28.5t73.5 -28.5q8 0 15 3t11 5.5t8 9.5t5 9.5t4 11.5l3 10zM589 430q-31 0 -31 -31v-293q0 -31 31 -31h39v-75h-199v98q-48 -108 -175 -108
q-98 0 -159.5 72.5t-61.5 190.5q0 119 62.5 190t163.5 71q129 0 185 -102l35 93h149v-75h-39zM296 71q60 0 94.5 47.5t34.5 134.5q0 88 -34.5 135t-94.5 47q-57 0 -92 -48.5t-35 -133.5q0 -84 35 -133t92 -49z" />
    <glyph glyph-name="y.ss02" horiz-adv-x="594" 
d="M343 505h191v-485q0 -91 -70 -150.5t-181 -59.5q-100 0 -159 37.5t-59 89.5q0 32 21 54t50 22q28 0 48 -19t20 -47q0 -40 -38 -55q38 -22 97 -22q64 0 103 39t39 106v139q-54 -109 -164 -109q-70 0 -115.5 44.5t-45.5 114.5v210q0 21 -27 21h-43v70h199v-271
q0 -46 23 -72t64 -26q47 0 78 37.5t31 124.5v106q0 31 -31 31h-31v70z" />
    <glyph glyph-name="yacute.ss02" horiz-adv-x="594" 
d="M453 665q-27 -32 -157 -115l-27 23q59 139 77 164q4 6 8 11q20 22 45 24.5t47 -15.5q23 -19 24.5 -45t-17.5 -47zM343 505h191v-485q0 -91 -70 -150.5t-181 -59.5q-100 0 -159 37.5t-59 89.5q0 32 21 54t50 22q28 0 48 -19t20 -47q0 -40 -38 -55q38 -22 97 -22
q64 0 103 39t39 106v139q-54 -109 -164 -109q-70 0 -115.5 44.5t-45.5 114.5v210q0 21 -27 21h-43v70h199v-271q0 -46 23 -72t64 -26q47 0 78 37.5t31 124.5v106q0 31 -31 31h-31v70z" />
    <glyph glyph-name="ycircumflex.ss02" horiz-adv-x="594" 
d="M189 558l-40 35l111 143q21 26 37 26q15 0 36 -26l112 -143l-40 -35l-108 77zM343 505h191v-485q0 -91 -70 -150.5t-181 -59.5q-100 0 -159 37.5t-59 89.5q0 32 21 54t50 22q28 0 48 -19t20 -47q0 -40 -38 -55q38 -22 97 -22q64 0 103 39t39 106v139q-54 -109 -164 -109
q-70 0 -115.5 44.5t-45.5 114.5v210q0 21 -27 21h-43v70h199v-271q0 -46 23 -72t64 -26q47 0 78 37.5t31 124.5v106q0 31 -31 31h-31v70z" />
    <glyph glyph-name="ydieresis.ss02" horiz-adv-x="594" 
d="M192 567q-34 0 -56 22t-22 55q0 34 22 56t56 22t55.5 -21.5t21.5 -55.5t-21.5 -56t-55.5 -22zM402 567q-34 0 -56 22t-22 55q0 34 22 56t56 22t55.5 -21.5t21.5 -55.5t-21.5 -56t-55.5 -22zM343 505h191v-485q0 -91 -70 -150.5t-181 -59.5q-100 0 -159 37.5t-59 89.5
q0 32 21 54t50 22q28 0 48 -19t20 -47q0 -40 -38 -55q38 -22 97 -22q64 0 103 39t39 106v139q-54 -109 -164 -109q-70 0 -115.5 44.5t-45.5 114.5v210q0 21 -27 21h-43v70h199v-271q0 -46 23 -72t64 -26q47 0 78 37.5t31 124.5v106q0 31 -31 31h-31v70z" />
    <glyph glyph-name="ygrave.ss02" horiz-adv-x="594" 
d="M350 573l-27 -23q-130 83 -157 115q-19 21 -17.5 47t24.5 45q22 18 47 15.5t45 -24.5q21 -24 76 -155q3 -6 5 -10.5t4 -9.5zM343 505h191v-485q0 -91 -70 -150.5t-181 -59.5q-100 0 -159 37.5t-59 89.5q0 32 21 54t50 22q28 0 48 -19t20 -47q0 -40 -38 -55q38 -22 97 -22
q64 0 103 39t39 106v139q-54 -109 -164 -109q-70 0 -115.5 44.5t-45.5 114.5v210q0 21 -27 21h-43v70h199v-271q0 -46 23 -72t64 -26q47 0 78 37.5t31 124.5v106q0 31 -31 31h-31v70z" />
    <glyph glyph-name="g.ss06" horiz-adv-x="627" 
d="M458 505h149v-75h-40q-28 0 -30 -26v-374q0 -96 -72 -158t-187 -62q-99 0 -158 37.5t-59 89.5q0 31 21 53t50 22q28 0 48 -19t20 -46q0 -39 -36 -55q35 -22 94 -22q67 0 108.5 42t41.5 113v112q-46 -93 -166 -93q-92 0 -150.5 66t-58.5 167q0 102 59.5 169.5t154.5 67.5
q118 0 168 -90zM292 120q53 0 84.5 42.5t31.5 116.5q0 75 -31 117t-85 42t-85.5 -42.5t-31.5 -116.5t31.5 -116.5t85.5 -42.5z" />
    <glyph glyph-name="gbreve.ss06" horiz-adv-x="627" 
d="M402 742l61 -10q-4 -78 -44 -118t-105 -40q-67 0 -107 40t-45 118l62 10q20 -79 90 -79q66 0 88 79zM458 505h149v-75h-40q-28 0 -30 -26v-374q0 -96 -72 -158t-187 -62q-99 0 -158 37.5t-59 89.5q0 31 21 53t50 22q28 0 48 -19t20 -46q0 -39 -36 -55q35 -22 94 -22
q67 0 108.5 42t41.5 113v112q-46 -93 -166 -93q-92 0 -150.5 66t-58.5 167q0 102 59.5 169.5t154.5 67.5q118 0 168 -90zM292 120q53 0 84.5 42.5t31.5 116.5q0 75 -31 117t-85 42t-85.5 -42.5t-31.5 -116.5t31.5 -116.5t85.5 -42.5z" />
    <glyph glyph-name="gcommaaccent.ss06" horiz-adv-x="627" 
d="M309 553q-32 0 -52.5 21t-20.5 56q0 50 37.5 94t101.5 66l16 -31q-75 -40 -82 -76h2q34 0 53.5 -18.5t19.5 -46.5t-21 -46.5t-54 -18.5zM458 505h149v-75h-40q-28 0 -30 -26v-374q0 -96 -72 -158t-187 -62q-99 0 -158 37.5t-59 89.5q0 31 21 53t50 22q28 0 48 -19t20 -46
q0 -39 -36 -55q35 -22 94 -22q67 0 108.5 42t41.5 113v112q-46 -93 -166 -93q-92 0 -150.5 66t-58.5 167q0 102 59.5 169.5t154.5 67.5q118 0 168 -90zM292 120q53 0 84.5 42.5t31.5 116.5q0 75 -31 117t-85 42t-85.5 -42.5t-31.5 -116.5t31.5 -116.5t85.5 -42.5z" />
    <glyph glyph-name="gdotaccent.ss06" horiz-adv-x="627" 
d="M315 565q-35 0 -58.5 23t-23.5 57q0 35 23.5 58.5t58.5 23.5t57.5 -22.5t22.5 -58.5q0 -35 -22.5 -58t-57.5 -23zM458 505h149v-75h-40q-28 0 -30 -26v-374q0 -96 -72 -158t-187 -62q-99 0 -158 37.5t-59 89.5q0 31 21 53t50 22q28 0 48 -19t20 -46q0 -39 -36 -55
q35 -22 94 -22q67 0 108.5 42t41.5 113v112q-46 -93 -166 -93q-92 0 -150.5 66t-58.5 167q0 102 59.5 169.5t154.5 67.5q118 0 168 -90zM292 120q53 0 84.5 42.5t31.5 116.5q0 75 -31 117t-85 42t-85.5 -42.5t-31.5 -116.5t31.5 -116.5t85.5 -42.5z" />
    <glyph glyph-name="T_h" horiz-adv-x="1302" 
d="M1237 75h44v-75h-267v75h34q31 0 31 31v224q0 45 -23.5 71.5t-63.5 26.5q-43 0 -75 -32t-38 -103v-187q0 -31 31 -31h33v-75h-266v75h44q31 0 31 31v468q0 31 -31 31h-247v-499q0 -31 31 -31h86v-75h-375v75h87q31 0 31 31v504h-67q-67 0 -101.5 -8t-48.5 -32
q28 -2 48.5 -20.5t20.5 -46.5q0 -29 -21.5 -49t-52.5 -20q-32 0 -53 23t-21 60q0 70 55.5 116.5t173.5 46.5h429q67 0 97.5 8t42.5 32q-28 2 -48.5 20t-20.5 47t21.5 49t52.5 20q32 0 53.5 -23t21.5 -60q0 -61 -37 -101v-262q57 104 166 104q70 0 115.5 -44.5t45.5 -114.5
v-249q0 -31 31 -31z" />
    <glyph glyph-name="f_b" horiz-adv-x="1024" 
d="M776 514q96 0 156 -73.5t60 -188.5t-64 -188.5t-162 -73.5q-120 0 -180 94l-52 -84h-61v430h-229v-324q0 -31 31 -31h87v-75h-324v75h49q31 0 31 31v324h-90v75h59q31 0 31 26v2q0 90 67.5 149t172.5 59q68 0 117 -21.5t66 -58.5l27 19h32v-272q54 106 176 106zM473 505
v43q-32 0 -54 21.5t-22 52.5q0 34 31 51q-21 10 -53 10q-58 0 -94.5 -40.5t-36.5 -109.5v-28h229zM729 69q57 0 92 48.5t35 134.5q0 84 -35 133t-92 49q-60 0 -94.5 -47.5t-34.5 -134.5q0 -89 34.5 -136t94.5 -47z" />
    <glyph glyph-name="f_f_b" horiz-adv-x="1387" 
d="M1139 514q96 0 156 -73.5t60 -188.5t-64 -188.5t-162 -73.5q-120 0 -180 94l-52 -84h-61v430h-229v-324q0 -31 31 -31h87v-75h-324v75h49q31 0 31 31v324h-237v-324q0 -31 31 -31h87v-75h-324v75h49q31 0 31 31v324h-90v75h59q31 0 31 26v2q0 90 67.5 149t172.5 59
q135 0 178 -71q69 71 185 71q68 0 117 -21.5t66 -58.5l27 19h32v-272q54 106 176 106zM481 531v2q0 10 1 15h-9q-32 0 -54 21.5t-22 52.5q0 34 31 51q-21 10 -53 10q-58 0 -94.5 -40.5t-36.5 -109.5v-28h206q31 0 31 26zM836 505v43q-32 0 -54 21.5t-22 52.5q0 34 31 51
q-21 10 -53 10q-58 0 -94.5 -40.5t-36.5 -109.5v-28h229zM1092 69q57 0 92 48.5t35 134.5q0 84 -35 133t-92 49q-60 0 -94.5 -47.5t-34.5 -134.5q0 -89 34.5 -136t94.5 -47z" />
    <glyph glyph-name="f_f_h" horiz-adv-x="1406" 
d="M1342 75h44v-75h-267v75h34q31 0 31 31v224q0 45 -23.5 71.5t-63.5 26.5q-43 0 -75 -32t-38 -103v-187q0 -31 31 -31h33v-75h-266v75h44q31 0 31 31v324h-243v-324q0 -31 31 -31h87v-75h-324v75h49q31 0 31 31v324h-244v-324q0 -31 31 -31h87v-75h-324v75h49q31 0 31 31
v324h-90v75h59q31 0 31 26v2q0 90 67.5 149t172.5 59q66 0 114 -20t67 -56q68 76 189 76q69 0 119 -22.5t66 -61.5l29 23h42v-270q57 104 166 104q70 0 115.5 -44.5t45.5 -114.5v-249q0 -31 31 -31zM488 531v2q0 11 1 16q-3 0 -8 -0.5t-8 -0.5q-32 0 -54 21.5t-22 52.5
q0 34 31 51q-21 10 -53 10q-58 0 -94.5 -40.5t-36.5 -109.5v-28h213q31 0 31 26zM857 505v44q-5 -1 -14 -1q-32 0 -54 21.5t-22 52.5q0 34 31 51q-21 10 -53 10q-58 0 -94.5 -40.5t-36.5 -109.5v-28h243z" />
    <glyph glyph-name="f_f_i" horiz-adv-x="1087" 
d="M1016 75h51v-75h-291v75h51q31 0 31 31v293q0 31 -31 31h-213v-324q0 -31 31 -31h87v-75h-324v75h49q31 0 31 31v324h-244v-324q0 -31 31 -31h87v-75h-324v75h49q31 0 31 31v324h-90v75h59q31 0 31 26v2q0 90 67.5 149t172.5 59q66 0 114 -20t67 -56q68 76 189 76
q85 0 138 -32t53 -86q0 -31 -21.5 -53t-54.5 -22q-32 0 -54 21.5t-22 52.5q0 34 31 51q-21 10 -53 10q-58 0 -94.5 -40.5t-36.5 -109.5v-28h371v-399q0 -31 31 -31zM488 531v2q0 11 1 16q-3 0 -8 -0.5t-8 -0.5q-32 0 -54 21.5t-22 52.5q0 34 31 51q-21 10 -53 10
q-58 0 -94.5 -40.5t-36.5 -109.5v-28h213q31 0 31 26z" />
    <glyph glyph-name="f_f_j" horiz-adv-x="1039" 
d="M984 505v-515q0 -88 -49 -134t-131 -46q-57 0 -92 23t-35 63q0 28 17.5 46t43.5 18q27 0 43 -15t16 -41q0 -20 -12.5 -32t-32.5 -12q14 -5 31 -5q47 0 61 30.5t14 104.5v409q0 31 -31 31h-213v-324q0 -31 31 -31h87v-75h-324v75h49q31 0 31 31v324h-244v-324
q0 -31 31 -31h87v-75h-324v75h49q31 0 31 31v324h-90v75h59q31 0 31 26v2q0 90 67.5 149t172.5 59q66 0 114 -20t67 -56q68 76 189 76q85 0 138 -32t53 -86q0 -31 -21.5 -53t-54.5 -22q-32 0 -54 21.5t-22 52.5q0 34 31 51q-21 10 -53 10q-58 0 -94.5 -40.5t-36.5 -109.5
v-28h370zM488 531v2q0 11 1 16q-3 0 -8 -0.5t-8 -0.5q-32 0 -54 21.5t-22 52.5q0 34 31 51q-21 10 -53 10q-58 0 -94.5 -40.5t-36.5 -109.5v-28h213q31 0 31 26z" />
    <glyph glyph-name="f_f_k" horiz-adv-x="1395" 
d="M984 106q0 -31 31 -31h32v-75h-265v75h44q31 0 31 31v324h-243v-324q0 -31 31 -31h87v-75h-324v75h49q31 0 31 31v324h-244v-324q0 -31 31 -31h87v-75h-324v75h49q31 0 31 31v324h-90v75h59q31 0 31 26v2q0 90 67.5 149t172.5 59q66 0 114 -20t67 -56q68 76 189 76
q69 0 118.5 -21.5t65.5 -60.5l25 21h47v-574zM488 531v2q0 11 1 16q-3 0 -8 -0.5t-8 -0.5q-32 0 -54 21.5t-22 52.5q0 34 31 51q-21 10 -53 10q-58 0 -94.5 -40.5t-36.5 -109.5v-28h213q31 0 31 26zM857 505v44q-5 -1 -14 -1q-32 0 -54 21.5t-22 52.5q0 34 31 51
q-21 10 -53 10q-58 0 -94.5 -40.5t-36.5 -109.5v-28h243zM1365 75h21v-75h-285v75h32q39 0 16 29l-138 162l154 141q10 9 6.5 16t-17.5 7h-86v75h291v-75h-36q-24 0 -38.5 -8t-33.5 -25l-117 -105l153 -178q32 -39 78 -39z" />
    <glyph glyph-name="f_f_l" horiz-adv-x="1091" 
d="M1015 75h51v-75h-291v75h51q31 0 31 31v324h-243v-324q0 -31 31 -31h87v-75h-324v75h49q31 0 31 31v324h-244v-324q0 -31 31 -31h87v-75h-324v75h49q31 0 31 31v324h-90v75h59q31 0 31 26v2q0 90 67.5 149t172.5 59q66 0 114 -20t67 -56q68 76 189 76q69 0 118.5 -21.5
t65.5 -60.5l25 21h47v-574q0 -31 31 -31zM488 531v2q0 11 1 16q-3 0 -8 -0.5t-8 -0.5q-32 0 -54 21.5t-22 52.5q0 34 31 51q-21 10 -53 10q-58 0 -94.5 -40.5t-36.5 -109.5v-28h213q31 0 31 26zM857 505v44q-5 -1 -14 -1q-32 0 -54 21.5t-22 52.5q0 34 31 51q-21 10 -53 10
q-58 0 -94.5 -40.5t-36.5 -109.5v-28h243z" />
    <glyph glyph-name="f_f_t" horiz-adv-x="1201" 
d="M1134 139l58 -13q-12 -67 -51.5 -101.5t-99.5 -34.5q-69 0 -113 42.5t-44 102.5v295h-242v-324q0 -31 31 -31h87v-75h-324v75h49q31 0 31 31v324h-272v-324q0 -31 31 -31h87v-75h-324v75h49q31 0 31 31v324h-90v75h59q31 0 31 31v2q0 83 58 129.5t144 46.5
q60 0 103.5 -26.5t43.5 -74.5q0 -32 -18.5 -52t-50.5 -20q-31 0 -50 19t-19 49q0 31 23 47h-8q-52 0 -76 -26.5t-24 -91.5v-33h241q31 0 31 31v2q0 83 58 129.5t144 46.5q60 0 103.5 -26.5t43.5 -74.5q0 -32 -18.5 -52t-50.5 -20q-31 0 -50 19t-19 49q0 31 23 47h-8
q-52 0 -76 -26.5t-24 -91.5v-33h171q55 0 83.5 24t67.5 86h46v-110h168v-75h-168v-295q0 -26 17 -42.5t42 -16.5q26 0 43.5 16.5t21.5 46.5z" />
    <glyph glyph-name="f_h" horiz-adv-x="1036" 
d="M972 75h44v-75h-267v75h34q31 0 31 31v224q0 45 -23.5 71.5t-63.5 26.5q-43 0 -75 -32t-38 -103v-187q0 -31 31 -31h33v-75h-266v75h44q31 0 31 31v324h-243v-324q0 -31 31 -31h87v-75h-324v75h49q31 0 31 31v324h-90v75h59q31 0 31 26v2q0 90 67.5 149t172.5 59
q69 0 119 -22.5t66 -61.5l29 23h42v-270q57 104 166 104q70 0 115.5 -44.5t45.5 -114.5v-249q0 -31 31 -31zM487 505v44q-5 -1 -14 -1q-32 0 -54 21.5t-22 52.5q0 34 31 51q-21 10 -53 10q-58 0 -94.5 -40.5t-36.5 -109.5v-28h243z" />
    <glyph glyph-name="f_j" horiz-adv-x="669" 
d="M614 505v-515q0 -88 -49 -134t-131 -46q-57 0 -92 23t-35 63q0 28 17.5 46t43.5 18q27 0 43 -15t16 -41q0 -20 -12.5 -32t-32.5 -12q14 -5 31 -5q47 0 61 30.5t14 104.5v409q0 31 -31 31h-213v-324q0 -31 31 -31h87v-75h-324v75h49q31 0 31 31v324h-90v75h59q31 0 31 26
v2q0 90 67.5 149t172.5 59q85 0 138 -32t53 -86q0 -31 -21.5 -53t-54.5 -22q-32 0 -54 21.5t-22 52.5q0 34 31 51q-21 10 -53 10q-58 0 -94.5 -40.5t-36.5 -109.5v-28h370z" />
    <glyph glyph-name="f_k" horiz-adv-x="1025" 
d="M614 106q0 -31 31 -31h32v-75h-265v75h44q31 0 31 31v324h-243v-324q0 -31 31 -31h87v-75h-324v75h49q31 0 31 31v324h-90v75h59q31 0 31 26v2q0 90 67.5 149t172.5 59q69 0 118.5 -21.5t65.5 -60.5l25 21h47v-574zM487 505v44q-5 -1 -14 -1q-32 0 -54 21.5t-22 52.5
q0 34 31 51q-21 10 -53 10q-58 0 -94.5 -40.5t-36.5 -109.5v-28h243zM995 75h21v-75h-285v75h32q39 0 16 29l-138 162l154 141q10 9 6.5 16t-17.5 7h-86v75h291v-75h-36q-24 0 -38.5 -8t-33.5 -25l-117 -105l153 -178q32 -39 78 -39z" />
    <glyph glyph-name="f_t" horiz-adv-x="803" 
d="M736 139l58 -13q-12 -67 -51.5 -101.5t-99.5 -34.5q-69 0 -113 42.5t-44 102.5v295h-242v-324q0 -31 31 -31h87v-75h-324v75h49q31 0 31 31v324h-90v75h59q31 0 31 31v2q0 83 58 129.5t144 46.5q60 0 103.5 -26.5t43.5 -74.5q0 -32 -18.5 -52t-50.5 -20q-31 0 -50 19
t-19 49q0 31 23 47h-8q-52 0 -76 -26.5t-24 -91.5v-33h171q55 0 83.5 24t67.5 86h46v-110h168v-75h-168v-295q0 -26 17 -42.5t42 -16.5q26 0 43.5 16.5t21.5 46.5z" />
    <glyph glyph-name="f_t_y" horiz-adv-x="1396" 
d="M1170 505h218v-75h-31q-35 0 -49 -33l-185 -417q-41 -92 -81.5 -131t-104.5 -39q-54 0 -91 31.5t-37 79.5q0 36 21.5 59t53.5 23q31 0 51.5 -19.5t20.5 -48.5q0 -26 -16 -44.5t-40 -20.5q14 -7 32 -7q45 0 70.5 30t49.5 87l6 14l-195 405q-15 31 -47 31h-194v-295
q0 -26 17 -42.5t42 -16.5q26 0 43.5 16.5t21.5 46.5l58 -13q-12 -67 -51.5 -101.5t-99.5 -34.5q-69 0 -113 42.5t-44 102.5v295h-252v-324q0 -31 31 -31h87v-75h-324v75h49q31 0 31 31v324h-90v75h59q31 0 31 31v2q0 83 58 129.5t144 46.5q60 0 103.5 -26.5t43.5 -74.5
q0 -32 -18.5 -52t-50.5 -20q-31 0 -50 19t-19 49q0 31 23 47h-8q-52 0 -76 -26.5t-24 -91.5v-33h181q55 0 83.5 24t67.5 86h46v-110h457v-75h-44q-15 0 -22 -8t-1 -21l114 -249l106 248q6 14 -1 22t-21 8h-40v75z" />
    <glyph glyph-name="t_y" horiz-adv-x="978" 
d="M753 505h218v-75h-31q-35 0 -49 -33l-185 -417q-41 -92 -81.5 -131t-104.5 -39q-54 0 -91 31.5t-37 79.5q0 36 21.5 59t53.5 23q31 0 51.5 -19.5t20.5 -48.5q0 -26 -16 -44.5t-40 -20.5q14 -7 32 -7q45 0 70.5 30t49.5 87l6 14l-195 405q-15 31 -47 31h-195v-295
q0 -26 17 -42.5t42 -16.5q26 0 43.5 16.5t21.5 46.5l58 -13q-12 -67 -51.5 -101.5t-99.5 -34.5q-69 0 -113 42.5t-44 102.5v295h-75v75h4q55 0 83.5 24t67.5 86h46v-110h458v-75h-44q-15 0 -22 -8t-1 -21l114 -249l106 248q6 14 -1 22t-21 8h-40v75z" />
    <glyph glyph-name="a.smcp" horiz-adv-x="657" 
d="M624 72h28v-72h-292v72h50q29 0 18 25l-23 53h-219l-23 -53q-5 -11 0.5 -18t18.5 -7h52v-72h-229v72h32q29 0 42 27l201 445h95l209 -447q12 -25 40 -25zM213 211h165l-82 186z" />
    <glyph glyph-name="aacute.smcp" horiz-adv-x="657" 
d="M489 704q-27 -32 -157 -115l-27 23q59 139 77 164q4 6 8 11q20 22 45 24.5t47 -15.5q23 -19 24.5 -45t-17.5 -47zM624 72h28v-72h-292v72h50q29 0 18 25l-23 53h-219l-23 -53q-5 -11 0.5 -18t18.5 -7h52v-72h-229v72h32q29 0 42 27l201 445h95l209 -447q12 -25 40 -25z
M213 211h165l-82 186z" />
    <glyph glyph-name="abreve.smcp" horiz-adv-x="657" 
d="M421 781l61 -10q-4 -78 -44 -118t-105 -40q-67 0 -107 40t-45 118l62 10q20 -79 90 -79q66 0 88 79zM624 72h28v-72h-292v72h50q29 0 18 25l-23 53h-219l-23 -53q-5 -11 0.5 -18t18.5 -7h52v-72h-229v72h32q29 0 42 27l201 445h95l209 -447q12 -25 40 -25zM213 211h165
l-82 186z" />
    <glyph glyph-name="acircumflex.smcp" horiz-adv-x="657" 
d="M225 597l-40 35l111 143q21 26 37 26q15 0 36 -26l112 -143l-40 -35l-108 77zM624 72h28v-72h-292v72h50q29 0 18 25l-23 53h-219l-23 -53q-5 -11 0.5 -18t18.5 -7h52v-72h-229v72h32q29 0 42 27l201 445h95l209 -447q12 -25 40 -25zM213 211h165l-82 186z" />
    <glyph glyph-name="adieresis.smcp" horiz-adv-x="657" 
d="M228 606q-34 0 -56 22t-22 55q0 34 22 56t56 22t55.5 -21.5t21.5 -55.5t-21.5 -56t-55.5 -22zM438 606q-34 0 -56 22t-22 55q0 34 22 56t56 22t55.5 -21.5t21.5 -55.5t-21.5 -56t-55.5 -22zM624 72h28v-72h-292v72h50q29 0 18 25l-23 53h-219l-23 -53q-5 -11 0.5 -18
t18.5 -7h52v-72h-229v72h32q29 0 42 27l201 445h95l209 -447q12 -25 40 -25zM213 211h165l-82 186z" />
    <glyph glyph-name="agrave.smcp" horiz-adv-x="657" 
d="M386 612l-27 -23q-130 83 -157 115q-19 21 -17.5 47t24.5 45q22 18 47 15.5t45 -24.5q21 -24 76 -155q3 -6 5 -10.5t4 -9.5zM624 72h28v-72h-292v72h50q29 0 18 25l-23 53h-219l-23 -53q-5 -11 0.5 -18t18.5 -7h52v-72h-229v72h32q29 0 42 27l201 445h95l209 -447
q12 -25 40 -25zM213 211h165l-82 186z" />
    <glyph glyph-name="amacron.smcp" horiz-adv-x="657" 
d="M183 711h300v-86h-300v86zM624 72h28v-72h-292v72h50q29 0 18 25l-23 53h-219l-23 -53q-5 -11 0.5 -18t18.5 -7h52v-72h-229v72h32q29 0 42 27l201 445h95l209 -447q12 -25 40 -25zM213 211h165l-82 186z" />
    <glyph glyph-name="aogonek.smcp" horiz-adv-x="657" 
d="M607 0q-55 0 -89.5 -26t-34.5 -59q0 -22 13.5 -35t36.5 -13q21 0 51 16l28 -58q-44 -42 -108 -42q-51 0 -85 27.5t-34 71.5q0 37 24 67.5t68 50.5h-117v72h50q29 0 18 25l-23 53h-219l-23 -53q-5 -11 0.5 -18t18.5 -7h52v-72h-229v72h32q29 0 42 27l201 445h95l209 -447
q12 -25 40 -25h28v-72h-45zM213 211h165l-82 186z" />
    <glyph glyph-name="aring.smcp" horiz-adv-x="657" 
d="M333 594q-52 0 -86.5 30.5t-34.5 76.5t34.5 76.5t86.5 30.5t86 -30t34 -76q0 -47 -34 -77.5t-86 -30.5zM333 648q23 0 37.5 15t14.5 38q0 24 -15 39.5t-38 15.5q-22 0 -37 -15.5t-15 -38.5q0 -24 15 -39t38 -15zM624 72h28v-72h-292v72h50q29 0 18 25l-23 53h-219
l-23 -53q-5 -11 0.5 -18t18.5 -7h52v-72h-229v72h32q29 0 42 27l201 445h95l209 -447q12 -25 40 -25zM213 211h165l-82 186z" />
    <glyph glyph-name="atilde.smcp" horiz-adv-x="657" 
d="M517 752q-8 -140 -114 -140q-33 0 -81 28.5t-75 28.5q-16 0 -26 -7.5t-13 -15t-9 -27.5l-51 17q10 133 114 133q34 0 84.5 -28.5t73.5 -28.5q8 0 15 3t11 5.5t8 9.5t5 9.5t4 12.5l3 9zM624 72h28v-72h-292v72h50q29 0 18 25l-23 53h-219l-23 -53q-5 -11 0.5 -18t18.5 -7
h52v-72h-229v72h32q29 0 42 27l201 445h95l209 -447q12 -25 40 -25zM213 211h165l-82 186z" />
    <glyph glyph-name="ae.smcp" horiz-adv-x="886" 
d="M757 171h76v-171h-514v72h53q25 0 25 24v58h-189l-39 -57q-6 -11 -1 -18t18 -7h53v-72h-234v72h32q22 0 42 29l245 349q8 12 3 17q-3 5 -20 5h-46v72h553v-170h-77q-6 56 -15 70q-17 28 -67 28h-138v-189h74q6 0 10.5 1t8 2.5t6.5 5t5 6t4 8t3 8t2.5 10l2 10t1.5 11
t1 11.5h57v-219h-57q0 4 -1.5 12.5t-2 12.5t-1.5 11t-2.5 10.5t-3.5 9t-5 8t-7 5.5t-9.5 4t-11.5 1h-74v-139h150q28 0 46 7t26.5 23t11.5 29.5t6 39.5zM250 215h147v214z" />
    <glyph glyph-name="b.smcp" horiz-adv-x="593" 
d="M400 283q74 -8 117 -44.5t43 -94.5q0 -65 -55 -104.5t-148 -39.5h-327v72h52q26 0 26 25v351q0 24 -26 24h-52v72h308q94 0 148.5 -36t54.5 -97q0 -50 -37.5 -83.5t-103.5 -44.5zM241 472v-156h53q52 0 83.5 23t31.5 60q0 35 -27 54t-75 19h-66zM307 72q57 0 89 22t32 63
q0 39 -29.5 64t-79.5 25h-78v-174h66z" />
    <glyph glyph-name="c.smcp" horiz-adv-x="637" 
d="M362 68q125 0 172 150l63 -19q-21 -102 -88 -154.5t-168 -52.5q-132 0 -214.5 80t-82.5 200q0 121 84.5 200.5t216.5 79.5q110 0 181.5 -51.5t71.5 -117.5q0 -36 -22.5 -57.5t-55.5 -21.5q-32 0 -53.5 20.5t-21.5 50.5q0 41 33 62q-37 49 -115 49q-80 0 -126.5 -51
t-46.5 -152q0 -100 46.5 -157.5t125.5 -57.5z" />
    <glyph glyph-name="cacute.smcp" horiz-adv-x="637" 
d="M509 704q-27 -32 -157 -115l-27 23q59 139 77 164q4 6 8 11q20 22 45 24.5t47 -15.5q23 -19 24.5 -45t-17.5 -47zM362 68q125 0 172 150l63 -19q-21 -102 -88 -154.5t-168 -52.5q-132 0 -214.5 80t-82.5 200q0 121 84.5 200.5t216.5 79.5q110 0 181.5 -51.5t71.5 -117.5
q0 -36 -22.5 -57.5t-55.5 -21.5q-32 0 -53.5 20.5t-21.5 50.5q0 41 33 62q-37 49 -115 49q-80 0 -126.5 -51t-46.5 -152q0 -100 46.5 -157.5t125.5 -57.5z" />
    <glyph glyph-name="ccaron.smcp" horiz-adv-x="637" 
d="M353 597q-16 0 -37 26l-111 143l40 35l108 -77l108 77l40 -35l-112 -143q-21 -26 -36 -26zM362 68q125 0 172 150l63 -19q-21 -102 -88 -154.5t-168 -52.5q-132 0 -214.5 80t-82.5 200q0 121 84.5 200.5t216.5 79.5q110 0 181.5 -51.5t71.5 -117.5q0 -36 -22.5 -57.5
t-55.5 -21.5q-32 0 -53.5 20.5t-21.5 50.5q0 41 33 62q-37 49 -115 49q-80 0 -126.5 -51t-46.5 -152q0 -100 46.5 -157.5t125.5 -57.5z" />
    <glyph glyph-name="ccedilla.smcp" horiz-adv-x="637" 
d="M362 68q125 0 172 150l63 -19q-21 -102 -87.5 -154.5t-167.5 -52.5l-25 -51q49 0 80.5 -22.5t31.5 -61.5q0 -41 -35 -67.5t-88 -26.5q-49 0 -101 28l18 43q38 -22 74 -22q23 0 37.5 10.5t14.5 28.5q0 24 -26.5 34.5t-69.5 4.5l-11 25l48 80q-111 16 -178.5 92.5
t-67.5 184.5q0 121 84.5 200.5t216.5 79.5q110 0 181.5 -51.5t71.5 -117.5q0 -36 -22.5 -57.5t-55.5 -21.5q-32 0 -53.5 20.5t-21.5 50.5q0 41 33 62q-37 49 -115 49q-80 0 -126.5 -51t-46.5 -152q0 -100 46.5 -157.5t125.5 -57.5z" />
    <glyph glyph-name="cdotaccent.smcp" horiz-adv-x="637" 
d="M354 604q-35 0 -58.5 23t-23.5 57q0 35 23.5 58.5t58.5 23.5t57.5 -22.5t22.5 -58.5q0 -35 -22.5 -58t-57.5 -23zM362 68q125 0 172 150l63 -19q-21 -102 -88 -154.5t-168 -52.5q-132 0 -214.5 80t-82.5 200q0 121 84.5 200.5t216.5 79.5q110 0 181.5 -51.5t71.5 -117.5
q0 -36 -22.5 -57.5t-55.5 -21.5q-32 0 -53.5 20.5t-21.5 50.5q0 41 33 62q-37 49 -115 49q-80 0 -126.5 -51t-46.5 -152q0 -100 46.5 -157.5t125.5 -57.5z" />
    <glyph glyph-name="d.smcp" horiz-adv-x="679" 
d="M320 544q132 0 223.5 -76t91.5 -196t-91.5 -196t-223.5 -76h-290v72h52q26 0 26 25v351q0 24 -26 24h-52v72h290zM320 72q83 0 126 54t43 146q0 91 -43.5 145.5t-125.5 54.5h-79v-400h79z" />
    <glyph glyph-name="eth.smcp" horiz-adv-x="679" 
d="M320 544q132 0 223.5 -76t91.5 -196t-91.5 -196t-223.5 -76h-290v72h52q26 0 26 25v133h-74v72h74v146q0 24 -26 24h-52v72h290zM320 72q83 0 126 54t43 146q0 91 -43.5 145.5t-125.5 54.5h-79v-170h113v-72h-113v-158h79z" />
    <glyph glyph-name="dcaron.smcp" horiz-adv-x="679" 
d="M232 800l108 -77l108 77l40 -35l-112 -143q-21 -26 -36 -26q-16 0 -37 26l-111 143zM320 544q132 0 223.5 -76t91.5 -196t-91.5 -196t-223.5 -76h-290v72h52q26 0 26 25v351q0 24 -26 24h-52v72h290zM320 72q83 0 126 54t43 146q0 91 -43.5 145.5t-125.5 54.5h-79v-400
h79z" />
    <glyph glyph-name="dcroat.smcp" horiz-adv-x="679" 
d="M320 544q132 0 223.5 -76t91.5 -196t-91.5 -196t-223.5 -76h-290v72h52q26 0 26 25v133h-74v72h74v146q0 24 -26 24h-52v72h290zM320 72q83 0 126 54t43 146q0 91 -43.5 145.5t-125.5 54.5h-79v-170h113v-72h-113v-158h79z" />
    <glyph glyph-name="e.smcp" horiz-adv-x="596" 
d="M467 171h77v-171h-514v72h52q26 0 26 25v351q0 24 -26 24h-52v72h495v-171h-77q0 3 -1.5 15.5t-2 15.5t-2.5 13.5t-4 14t-5.5 11t-7 10.5t-9.5 8t-13.5 6.5t-17 3t-20.5 1.5h-124v-186h65q24 0 31.5 15.5t11.5 47.5v3t0.5 3t0.5 3h57v-214h-57q0 3 -1 11t-1.5 11t-2 10
t-2.5 9.5t-3 8t-4 8t-5 6t-6.5 5t-8 2.5t-10.5 1h-65v-144h138q27 0 44.5 7t26 24t11 29t6.5 39z" />
    <glyph glyph-name="eacute.smcp" horiz-adv-x="596" 
d="M269 612q59 139 77 164q4 6 8 11q20 22 45 24.5t47 -15.5q23 -19 24.5 -45t-17.5 -47q-27 -32 -157 -115zM467 171h77v-171h-514v72h52q26 0 26 25v351q0 24 -26 24h-52v72h495v-171h-77q0 3 -1.5 15.5t-2 15.5t-2.5 13.5t-4 14t-5.5 11t-7 10.5t-9.5 8t-13.5 6.5t-17 3
t-20.5 1.5h-124v-186h65q24 0 31.5 15.5t11.5 47.5v3t0.5 3t0.5 3h57v-214h-57q0 3 -1 11t-1.5 11t-2 10t-2.5 9.5t-3 8t-4 8t-5 6t-6.5 5t-8 2.5t-10.5 1h-65v-144h138q27 0 44.5 7t26 24t11 29t6.5 39z" />
    <glyph glyph-name="ecaron.smcp" horiz-adv-x="596" 
d="M189 801l108 -77l108 77l40 -35l-112 -143q-21 -26 -36 -26q-16 0 -37 26l-111 143zM467 171h77v-171h-514v72h52q26 0 26 25v351q0 24 -26 24h-52v72h495v-171h-77q0 3 -1.5 15.5t-2 15.5t-2.5 13.5t-4 14t-5.5 11t-7 10.5t-9.5 8t-13.5 6.5t-17 3t-20.5 1.5h-124v-186
h65q24 0 31.5 15.5t11.5 47.5v3t0.5 3t0.5 3h57v-214h-57q0 3 -1 11t-1.5 11t-2 10t-2.5 9.5t-3 8t-4 8t-5 6t-6.5 5t-8 2.5t-10.5 1h-65v-144h138q27 0 44.5 7t26 24t11 29t6.5 39z" />
    <glyph glyph-name="ecircumflex.smcp" horiz-adv-x="596" 
d="M189 597l-40 35l111 143q21 26 37 26q15 0 36 -26l112 -143l-40 -35l-108 77zM467 171h77v-171h-514v72h52q26 0 26 25v351q0 24 -26 24h-52v72h495v-171h-77q0 3 -1.5 15.5t-2 15.5t-2.5 13.5t-4 14t-5.5 11t-7 10.5t-9.5 8t-13.5 6.5t-17 3t-20.5 1.5h-124v-186h65
q24 0 31.5 15.5t11.5 47.5v3t0.5 3t0.5 3h57v-214h-57q0 3 -1 11t-1.5 11t-2 10t-2.5 9.5t-3 8t-4 8t-5 6t-6.5 5t-8 2.5t-10.5 1h-65v-144h138q27 0 44.5 7t26 24t11 29t6.5 39z" />
    <glyph glyph-name="edieresis.smcp" horiz-adv-x="596" 
d="M192 606q-34 0 -56 22t-22 55q0 34 22 56t56 22t55.5 -21.5t21.5 -55.5t-21.5 -56t-55.5 -22zM402 606q-34 0 -56 22t-22 55q0 34 22 56t56 22t55.5 -21.5t21.5 -55.5t-21.5 -56t-55.5 -22zM467 171h77v-171h-514v72h52q26 0 26 25v351q0 24 -26 24h-52v72h495v-171h-77
q0 3 -1.5 15.5t-2 15.5t-2.5 13.5t-4 14t-5.5 11t-7 10.5t-9.5 8t-13.5 6.5t-17 3t-20.5 1.5h-124v-186h65q24 0 31.5 15.5t11.5 47.5v3t0.5 3t0.5 3h57v-214h-57q0 3 -1 11t-1.5 11t-2 10t-2.5 9.5t-3 8t-4 8t-5 6t-6.5 5t-8 2.5t-10.5 1h-65v-144h138q27 0 44.5 7t26 24
t11 29t6.5 39z" />
    <glyph glyph-name="edotaccent.smcp" horiz-adv-x="596" 
d="M298 604q-35 0 -58.5 23t-23.5 57q0 35 23.5 58.5t58.5 23.5t57.5 -22.5t22.5 -58.5q0 -35 -22.5 -58t-57.5 -23zM467 171h77v-171h-514v72h52q26 0 26 25v351q0 24 -26 24h-52v72h495v-171h-77q0 3 -1.5 15.5t-2 15.5t-2.5 13.5t-4 14t-5.5 11t-7 10.5t-9.5 8t-13.5 6.5
t-17 3t-20.5 1.5h-124v-186h65q24 0 31.5 15.5t11.5 47.5v3t0.5 3t0.5 3h57v-214h-57q0 3 -1 11t-1.5 11t-2 10t-2.5 9.5t-3 8t-4 8t-5 6t-6.5 5t-8 2.5t-10.5 1h-65v-144h138q27 0 44.5 7t26 24t11 29t6.5 39z" />
    <glyph glyph-name="egrave.smcp" horiz-adv-x="596" 
d="M350 612l-27 -23q-130 83 -157 115q-19 21 -17.5 47t24.5 45q22 18 47 15.5t45 -24.5q21 -24 76 -155q3 -6 5 -10.5t4 -9.5zM467 171h77v-171h-514v72h52q26 0 26 25v351q0 24 -26 24h-52v72h495v-171h-77q0 3 -1.5 15.5t-2 15.5t-2.5 13.5t-4 14t-5.5 11t-7 10.5t-9.5 8
t-13.5 6.5t-17 3t-20.5 1.5h-124v-186h65q24 0 31.5 15.5t11.5 47.5v3t0.5 3t0.5 3h57v-214h-57q0 3 -1 11t-1.5 11t-2 10t-2.5 9.5t-3 8t-4 8t-5 6t-6.5 5t-8 2.5t-10.5 1h-65v-144h138q27 0 44.5 7t26 24t11 29t6.5 39z" />
    <glyph glyph-name="emacron.smcp" horiz-adv-x="596" 
d="M147 711h300v-86h-300v86zM467 171h77v-171h-514v72h52q26 0 26 25v351q0 24 -26 24h-52v72h495v-171h-77q0 3 -1.5 15.5t-2 15.5t-2.5 13.5t-4 14t-5.5 11t-7 10.5t-9.5 8t-13.5 6.5t-17 3t-20.5 1.5h-124v-186h65q24 0 31.5 15.5t11.5 47.5v3t0.5 3t0.5 3h57v-214h-57
q0 3 -1 11t-1.5 11t-2 10t-2.5 9.5t-3 8t-4 8t-5 6t-6.5 5t-8 2.5t-10.5 1h-65v-144h138q27 0 44.5 7t26 24t11 29t6.5 39z" />
    <glyph glyph-name="eogonek.smcp" horiz-adv-x="596" 
d="M537 0q-55 0 -89.5 -26t-34.5 -59q0 -22 13.5 -35t36.5 -13q21 0 51 16l28 -58q-43 -42 -108 -42q-51 0 -85 27.5t-34 71.5q0 37 24 67.5t68 50.5h-377v72h52q26 0 26 25v351q0 24 -26 24h-52v72h495v-171h-77q0 3 -1.5 15.5t-2 15.5t-2.5 13.5t-4 14t-5.5 11t-7 10.5
t-9.5 8t-13.5 6.5t-17 3t-20.5 1.5h-124v-186h65q24 0 31.5 15.5t11.5 47.5v3t0.5 3t0.5 3h57v-214h-57q0 3 -1 11t-1.5 11t-2 10t-2.5 9.5t-3 8t-4 8t-5 6t-6.5 5t-8 2.5t-10.5 1h-65v-144h138q27 0 44.5 7t26 24t11 29t6.5 39h77v-171h-7z" />
    <glyph glyph-name="f.smcp" horiz-adv-x="572" 
d="M527 544v-171h-77q-6 56 -15 71q-18 28 -67 28h-127v-187h72q8 0 14 1.5t10.5 6.5t7 8t4.5 12t3 12.5t2.5 16t2.5 15.5h56v-215h-56q-1 4 -2.5 15.5t-2.5 15.5t-3 12.5t-4.5 12t-7 8.5t-10.5 6.5t-14 1.5h-72v-117q0 -25 26 -25h103v-72h-340v72h52q26 0 26 25v351
q0 24 -26 24h-52v72h497z" />
    <glyph glyph-name="f_b.smcp" horiz-adv-x="1165" 
d="M30 472v72h497v-171h-77q-6 56 -15 71q-18 28 -67 28h-127v-187h72q8 0 14 1.5t10.5 6.5t7 8t4.5 12t3 12.5t2.5 16t2.5 15.5h56v-215h-56q-1 4 -2.5 15.5t-2.5 15.5t-3 12.5t-4.5 12t-7 8.5t-10.5 6.5t-14 1.5h-72v-117q0 -25 26 -25h103v-72h-340v72h52q26 0 26 25v351
q0 24 -26 24h-52zM972 283q74 -8 117 -44.5t43 -94.5q0 -65 -55 -104.5t-148 -39.5h-327v72h52q26 0 26 25v351q0 24 -26 24h-52v72h308q94 0 148.5 -36t54.5 -97q0 -50 -37.5 -83.5t-103.5 -44.5zM813 472v-156h53q52 0 83.5 23t31.5 60q0 35 -27 54t-75 19h-66zM879 72
q57 0 89 22t32 63q0 39 -29.5 64t-79.5 25h-78v-174h66z" />
    <glyph glyph-name="f_f.smcp" horiz-adv-x="1144" 
d="M527 544v-171h-77q-6 56 -15 71q-18 28 -67 28h-127v-187h72q8 0 14 1.5t10.5 6.5t7 8t4.5 12t3 12.5t2.5 16t2.5 15.5h56v-215h-56q-1 4 -2.5 15.5t-2.5 15.5t-3 12.5t-4.5 12t-7 8.5t-10.5 6.5t-14 1.5h-72v-117q0 -25 26 -25h103v-72h-340v72h52q26 0 26 25v351
q0 24 -26 24h-52v72h497zM1099 544v-171h-77q-6 56 -15 71q-17 28 -67 28h-127v-187h72q8 0 14 1.5t10.5 6.5t7 8t4.5 12t3 12.5t2.5 16t2.5 15.5h56v-215h-56q-1 4 -2.5 15.5t-2.5 15.5t-3 12.5t-4.5 12t-7 8.5t-10.5 6.5t-14 1.5h-72v-117q0 -25 26 -25h103v-72h-340v72
h52q26 0 26 25v351q0 24 -26 24h-52v72h497z" />
    <glyph glyph-name="f_f_b.smcp" horiz-adv-x="1737" 
d="M30 472v72h497v-171h-77q-6 56 -15 71q-18 28 -67 28h-127v-187h72q8 0 14 1.5t10.5 6.5t7 8t4.5 12t3 12.5t2.5 16t2.5 15.5h56v-215h-56q-1 4 -2.5 15.5t-2.5 15.5t-3 12.5t-4.5 12t-7 8.5t-10.5 6.5t-14 1.5h-72v-117q0 -25 26 -25h103v-72h-340v72h52q26 0 26 25v351
q0 24 -26 24h-52zM602 472v72h497v-171h-77q-6 56 -15 71q-17 28 -67 28h-127v-187h72q8 0 14 1.5t10.5 6.5t7 8t4.5 12t3 12.5t2.5 16t2.5 15.5h56v-215h-56q-1 4 -2.5 15.5t-2.5 15.5t-3 12.5t-4.5 12t-7 8.5t-10.5 6.5t-14 1.5h-72v-117q0 -25 26 -25h103v-72h-340v72h52
q26 0 26 25v351q0 24 -26 24h-52zM1544 283q74 -8 117 -44.5t43 -94.5q0 -65 -55 -104.5t-148 -39.5h-327v72h52q26 0 26 25v351q0 24 -26 24h-52v72h308q94 0 148.5 -36t54.5 -97q0 -50 -37.5 -83.5t-103.5 -44.5zM1385 472v-156h53q52 0 83.5 23t31.5 60q0 35 -27 54
t-75 19h-66zM1451 72q57 0 89 22t32 63q0 39 -29.5 64t-79.5 25h-78v-174h66z" />
    <glyph glyph-name="f_f_f.smcp" horiz-adv-x="1716" 
d="M527 544v-171h-77q-6 56 -15 71q-18 28 -67 28h-127v-187h72q8 0 14 1.5t10.5 6.5t7 8t4.5 12t3 12.5t2.5 16t2.5 15.5h56v-215h-56q-1 4 -2.5 15.5t-2.5 15.5t-3 12.5t-4.5 12t-7 8.5t-10.5 6.5t-14 1.5h-72v-117q0 -25 26 -25h103v-72h-340v72h52q26 0 26 25v351
q0 24 -26 24h-52v72h497zM1099 544v-171h-77q-6 56 -15 71q-17 28 -67 28h-127v-187h72q8 0 14 1.5t10.5 6.5t7 8t4.5 12t3 12.5t2.5 16t2.5 15.5h56v-215h-56q-1 4 -2.5 15.5t-2.5 15.5t-3 12.5t-4.5 12t-7 8.5t-10.5 6.5t-14 1.5h-72v-117q0 -25 26 -25h103v-72h-340v72
h52q26 0 26 25v351q0 24 -26 24h-52v72h497zM1671 544v-171h-77q-6 56 -15 71q-17 28 -67 28h-127v-187h72q8 0 14 1.5t10.5 6.5t7 8t4.5 12t3 12.5t2.5 16t2.5 15.5h56v-215h-56q-1 4 -2.5 15.5t-2.5 15.5t-3 12.5t-4.5 12t-7 8.5t-10.5 6.5t-14 1.5h-72v-117q0 -25 26 -25
h103v-72h-340v72h52q26 0 26 25v351q0 24 -26 24h-52v72h497z" />
    <glyph glyph-name="f_f_h.smcp" horiz-adv-x="1854" 
d="M30 472v72h497v-171h-77q-6 56 -15 71q-18 28 -67 28h-127v-187h72q8 0 14 1.5t10.5 6.5t7 8t4.5 12t3 12.5t2.5 16t2.5 15.5h56v-215h-56q-1 4 -2.5 15.5t-2.5 15.5t-3 12.5t-4.5 12t-7 8.5t-10.5 6.5t-14 1.5h-72v-117q0 -25 26 -25h103v-72h-340v72h52q26 0 26 25v351
q0 24 -26 24h-52zM602 472v72h497v-171h-77q-6 56 -15 71q-17 28 -67 28h-127v-187h72q8 0 14 1.5t10.5 6.5t7 8t4.5 12t3 12.5t2.5 16t2.5 15.5h56v-215h-56q-1 4 -2.5 15.5t-2.5 15.5t-3 12.5t-4.5 12t-7 8.5t-10.5 6.5t-14 1.5h-72v-117q0 -25 26 -25h103v-72h-340v72h52
q26 0 26 25v351q0 24 -26 24h-52zM1773 472q-25 0 -25 -24v-351q0 -25 25 -25h51v-72h-283v72h47q26 0 26 25v106h-229v-106q0 -25 26 -25h47v-72h-284v72h52q26 0 26 25v351q0 24 -26 24h-52v72h284v-72h-47q-26 0 -26 -24v-174h229v174q0 24 -26 24h-47v72h283v-72h-51z
" />
    <glyph glyph-name="f_f_i.smcp" horiz-adv-x="1517" 
d="M527 544v-171h-77q-6 56 -15 71q-18 28 -67 28h-127v-187h72q8 0 14 1.5t10.5 6.5t7 8t4.5 12t3 12.5t2.5 16t2.5 15.5h56v-215h-56q-1 4 -2.5 15.5t-2.5 15.5t-3 12.5t-4.5 12t-7 8.5t-10.5 6.5t-14 1.5h-72v-117q0 -25 26 -25h103v-72h-340v72h52q26 0 26 25v351
q0 24 -26 24h-52v72h497zM1099 544v-171h-77q-6 56 -15 71q-17 28 -67 28h-127v-187h72q8 0 14 1.5t10.5 6.5t7 8t4.5 12t3 12.5t2.5 16t2.5 15.5h56v-215h-56q-1 4 -2.5 15.5t-2.5 15.5t-3 12.5t-4.5 12t-7 8.5t-10.5 6.5t-14 1.5h-72v-117q0 -25 26 -25h103v-72h-340v72
h52q26 0 26 25v351q0 24 -26 24h-52v72h497zM1424 472q-26 0 -26 -24v-352q0 -24 26 -24h58v-72h-303v72h59q25 0 25 24v352q0 24 -25 24h-59v72h303v-72h-58z" />
    <glyph glyph-name="f_f_j.smcp" horiz-adv-x="1597" 
d="M30 472v72h497v-171h-77q-6 56 -15 71q-18 28 -67 28h-127v-187h72q8 0 14 1.5t10.5 6.5t7 8t4.5 12t3 12.5t2.5 16t2.5 15.5h56v-215h-56q-1 4 -2.5 15.5t-2.5 15.5t-3 12.5t-4.5 12t-7 8.5t-10.5 6.5t-14 1.5h-72v-117q0 -25 26 -25h103v-72h-340v72h52q26 0 26 25v351
q0 24 -26 24h-52zM602 472v72h497v-171h-77q-6 56 -15 71q-17 28 -67 28h-127v-187h72q8 0 14 1.5t10.5 6.5t7 8t4.5 12t3 12.5t2.5 16t2.5 15.5h56v-215h-56q-1 4 -2.5 15.5t-2.5 15.5t-3 12.5t-4.5 12t-7 8.5t-10.5 6.5t-14 1.5h-72v-117q0 -25 26 -25h103v-72h-340v72h52
q26 0 26 25v351q0 24 -26 24h-52zM1212 544h372v-72h-53q-25 0 -25 -24v-286q0 -73 -55.5 -121.5t-151.5 -48.5q-88 0 -139.5 39.5t-51.5 99.5q0 38 21.5 58.5t53.5 20.5t52 -18.5t20 -46.5q0 -25 -15 -45t-38 -27q29 -11 63 -11q52 0 79 30.5t27 69.5v286q0 24 -25 24h-134
v72z" />
    <glyph glyph-name="f_f_k.smcp" horiz-adv-x="1827" 
d="M527 544v-171h-77q-6 56 -15 71q-18 28 -67 28h-127v-187h72q8 0 14 1.5t10.5 6.5t7 8t4.5 12t3 12.5t2.5 16t2.5 15.5h56v-215h-56q-1 4 -2.5 15.5t-2.5 15.5t-3 12.5t-4.5 12t-7 8.5t-10.5 6.5t-14 1.5h-72v-117q0 -25 26 -25h103v-72h-340v72h52q26 0 26 25v351
q0 24 -26 24h-52v72h497zM1099 544v-171h-77q-6 56 -15 71q-17 28 -67 28h-127v-187h72q8 0 14 1.5t10.5 6.5t7 8t4.5 12t3 12.5t2.5 16t2.5 15.5h56v-215h-56q-1 4 -2.5 15.5t-2.5 15.5t-3 12.5t-4.5 12t-7 8.5t-10.5 6.5t-14 1.5h-72v-117q0 -25 26 -25h103v-72h-340v72
h52q26 0 26 25v351q0 24 -26 24h-52v72h497zM1174 0v72h52q26 0 26 24v352q0 24 -26 24h-52v72h286v-72h-48q-26 0 -26 -24v-352q0 -24 26 -24h33v-72h-271zM1502 0v72h44q26 0 8 24l-139 169l189 184q10 10 8 16.5t-14 6.5h-66v72h269v-72h-31q-40 0 -66 -24l-153 -149
l160 -196q24 -31 66 -31h40v-72h-315z" />
    <glyph glyph-name="f_f_l.smcp" horiz-adv-x="1714" 
d="M527 544v-171h-77q-6 56 -15 71q-18 28 -67 28h-127v-187h72q8 0 14 1.5t10.5 6.5t7 8t4.5 12t3 12.5t2.5 16t2.5 15.5h56v-215h-56q-1 4 -2.5 15.5t-2.5 15.5t-3 12.5t-4.5 12t-7 8.5t-10.5 6.5t-14 1.5h-72v-117q0 -25 26 -25h103v-72h-340v72h52q26 0 26 25v351
q0 24 -26 24h-52v72h497zM1099 544v-171h-77q-6 56 -15 71q-17 28 -67 28h-127v-187h72q8 0 14 1.5t10.5 6.5t7 8t4.5 12t3 12.5t2.5 16t2.5 15.5h56v-215h-56q-1 4 -2.5 15.5t-2.5 15.5t-3 12.5t-4.5 12t-7 8.5t-10.5 6.5t-14 1.5h-72v-117q0 -25 26 -25h103v-72h-340v72
h52q26 0 26 25v351q0 24 -26 24h-52v72h497zM1596 234h73v-234h-495v72h52q26 0 26 24v352q0 24 -26 24h-52v72h323v-72h-85q-26 0 -26 -24v-376h110q53 0 74 40.5t26 121.5z" />
    <glyph glyph-name="f_f_t.smcp" horiz-adv-x="1753" 
d="M527 544v-171h-77q-6 56 -15 71q-18 28 -67 28h-127v-187h72q8 0 14 1.5t10.5 6.5t7 8t4.5 12t3 12.5t2.5 16t2.5 15.5h56v-215h-56q-1 4 -2.5 15.5t-2.5 15.5t-3 12.5t-4.5 12t-7 8.5t-10.5 6.5t-14 1.5h-72v-117q0 -25 26 -25h103v-72h-340v72h52q26 0 26 25v351
q0 24 -26 24h-52v72h497zM1099 544v-171h-77q-6 56 -15 71q-17 28 -67 28h-127v-187h72q8 0 14 1.5t10.5 6.5t7 8t4.5 12t3 12.5t2.5 16t2.5 15.5h56v-215h-56q-1 4 -2.5 15.5t-2.5 15.5t-3 12.5t-4.5 12t-7 8.5t-10.5 6.5t-14 1.5h-72v-117q0 -25 26 -25h103v-72h-340v72
h52q26 0 26 25v351q0 24 -26 24h-52v72h497zM1716 544v-210h-72q-6 84 -15 106q-17 38 -67 38h-46v-382q0 -24 26 -24h70v-72h-326v72h69q25 0 25 24v382h-44q-49 0 -63 -29t-19 -96v-6.5t-0.5 -6t-0.5 -6.5h-71v210h534z" />
    <glyph glyph-name="f_h.smcp" horiz-adv-x="1282" 
d="M30 472v72h497v-171h-77q-6 56 -15 71q-18 28 -67 28h-127v-187h72q8 0 14 1.5t10.5 6.5t7 8t4.5 12t3 12.5t2.5 16t2.5 15.5h56v-215h-56q-1 4 -2.5 15.5t-2.5 15.5t-3 12.5t-4.5 12t-7 8.5t-10.5 6.5t-14 1.5h-72v-117q0 -25 26 -25h103v-72h-340v72h52q26 0 26 25v351
q0 24 -26 24h-52zM1201 472q-25 0 -25 -24v-351q0 -25 25 -25h51v-72h-283v72h47q26 0 26 25v106h-229v-106q0 -25 26 -25h47v-72h-284v72h52q26 0 26 25v351q0 24 -26 24h-52v72h284v-72h-47q-26 0 -26 -24v-174h229v174q0 24 -26 24h-47v72h283v-72h-51z" />
    <glyph glyph-name="f_j.smcp" horiz-adv-x="1025" 
d="M30 472v72h497v-171h-77q-6 56 -15 71q-18 28 -67 28h-127v-187h72q8 0 14 1.5t10.5 6.5t7 8t4.5 12t3 12.5t2.5 16t2.5 15.5h56v-215h-56q-1 4 -2.5 15.5t-2.5 15.5t-3 12.5t-4.5 12t-7 8.5t-10.5 6.5t-14 1.5h-72v-117q0 -25 26 -25h103v-72h-340v72h52q26 0 26 25v351
q0 24 -26 24h-52zM640 544h372v-72h-53q-25 0 -25 -24v-286q0 -73 -55.5 -121.5t-151.5 -48.5q-88 0 -139.5 39.5t-51.5 99.5q0 38 21.5 58.5t53.5 20.5t52 -18.5t20 -46.5q0 -25 -15 -45t-38 -27q29 -11 63 -11q52 0 79 30.5t27 69.5v286q0 24 -25 24h-134v72z" />
    <glyph glyph-name="f_k.smcp" horiz-adv-x="1255" 
d="M527 544v-171h-77q-6 56 -15 71q-18 28 -67 28h-127v-187h72q8 0 14 1.5t10.5 6.5t7 8t4.5 12t3 12.5t2.5 16t2.5 15.5h56v-215h-56q-1 4 -2.5 15.5t-2.5 15.5t-3 12.5t-4.5 12t-7 8.5t-10.5 6.5t-14 1.5h-72v-117q0 -25 26 -25h103v-72h-340v72h52q26 0 26 25v351
q0 24 -26 24h-52v72h497zM602 0v72h52q26 0 26 24v352q0 24 -26 24h-52v72h286v-72h-48q-26 0 -26 -24v-352q0 -24 26 -24h33v-72h-271zM930 0v72h44q26 0 8 24l-139 169l189 184q10 10 8 16.5t-14 6.5h-66v72h269v-72h-31q-40 0 -66 -24l-153 -149l160 -196q24 -31 66 -31
h40v-72h-315z" />
    <glyph glyph-name="f_t.smcp" horiz-adv-x="1181" 
d="M527 544v-171h-77q-6 56 -15 71q-18 28 -67 28h-127v-187h72q8 0 14 1.5t10.5 6.5t7 8t4.5 12t3 12.5t2.5 16t2.5 15.5h56v-215h-56q-1 4 -2.5 15.5t-2.5 15.5t-3 12.5t-4.5 12t-7 8.5t-10.5 6.5t-14 1.5h-72v-117q0 -25 26 -25h103v-72h-340v72h52q26 0 26 25v351
q0 24 -26 24h-52v72h497zM1144 544v-210h-72q-6 84 -15 106q-17 38 -67 38h-46v-382q0 -24 26 -24h70v-72h-326v72h69q25 0 25 24v382h-44q-49 0 -63 -29t-19 -96q0 -12 -1 -19h-71v210h534z" />
    <glyph glyph-name="f_t_y.smcp" horiz-adv-x="1765" 
d="M30 472v72h497v-171h-77q-6 56 -15 71q-18 28 -67 28h-127v-187h72q8 0 14 1.5t10.5 6.5t7 8t4.5 12t3 12.5t2.5 16t2.5 15.5h56v-215h-56q-1 4 -2.5 15.5t-2.5 15.5t-3 12.5t-4.5 12t-7 8.5t-10.5 6.5t-14 1.5h-72v-117q0 -25 26 -25h103v-72h-340v72h52q26 0 26 25v351
q0 24 -26 24h-52zM610 334v210h534v-210h-72q-6 84 -15 106q-17 38 -67 38h-46v-382q0 -24 26 -24h70v-72h-326v72h69q25 0 25 24v382h-44q-49 0 -63 -29t-19 -96q0 -12 -1 -19h-71zM1539 544h226v-72h-36q-32 0 -48 -25l-139 -216v-135q0 -24 26 -24h67v-72h-321v72h67
q26 0 26 24v104l-148 249q-13 23 -43 23h-35v72h285v-72h-42q-29 0 -15 -24l94 -160l100 161q13 23 -15 23h-49v72z" />
    <glyph glyph-name="fi.smcp" horiz-adv-x="945" 
d="M527 544v-171h-77q-6 56 -15 71q-18 28 -67 28h-127v-187h72q8 0 14 1.5t10.5 6.5t7 8t4.5 12t3 12.5t2.5 16t2.5 15.5h56v-215h-56q-1 4 -2.5 15.5t-2.5 15.5t-3 12.5t-4.5 12t-7 8.5t-10.5 6.5t-14 1.5h-72v-117q0 -25 26 -25h103v-72h-340v72h52q26 0 26 25v351
q0 24 -26 24h-52v72h497zM852 472q-26 0 -26 -24v-352q0 -24 26 -24h58v-72h-303v72h59q25 0 25 24v352q0 24 -25 24h-59v72h303v-72h-58z" />
    <glyph glyph-name="fl.smcp" horiz-adv-x="1142" 
d="M527 544v-171h-77q-6 56 -15 71q-18 28 -67 28h-127v-187h72q8 0 14 1.5t10.5 6.5t7 8t4.5 12t3 12.5t2.5 16t2.5 15.5h56v-215h-56q-1 4 -2.5 15.5t-2.5 15.5t-3 12.5t-4.5 12t-7 8.5t-10.5 6.5t-14 1.5h-72v-117q0 -25 26 -25h103v-72h-340v72h52q26 0 26 25v351
q0 24 -26 24h-52v72h497zM1024 234h73v-234h-495v72h52q26 0 26 24v352q0 24 -26 24h-52v72h323v-72h-85q-26 0 -26 -24v-376h110q53 0 74 40.5t26 121.5z" />
    <glyph glyph-name="g.smcp" horiz-adv-x="683" 
d="M339 260h312v-69h-40q-25 0 -25 -23v-168h-31l-53 48q-64 -56 -164 -56q-129 0 -211.5 80t-82.5 201q0 120 84.5 199.5t215.5 79.5q110 0 181 -48.5t71 -111.5q0 -35 -22 -56t-54 -21t-52.5 19.5t-20.5 48.5q0 38 31 58q-37 45 -118 45q-83 0 -129 -53.5t-46 -154.5
q0 -96 47 -154.5t126 -58.5q61 0 104 31v72q0 23 -26 23h-97v69z" />
    <glyph glyph-name="gbreve.smcp" horiz-adv-x="683" 
d="M442 781l61 -10q-4 -78 -44 -118t-105 -40q-67 0 -107 40t-45 118l62 10q20 -79 90 -79q66 0 88 79zM339 260h312v-69h-40q-25 0 -25 -23v-168h-31l-53 48q-64 -56 -164 -56q-129 0 -211.5 80t-82.5 201q0 120 84.5 199.5t215.5 79.5q110 0 181 -48.5t71 -111.5
q0 -35 -22 -56t-54 -21t-52.5 19.5t-20.5 48.5q0 38 31 58q-37 45 -118 45q-83 0 -129 -53.5t-46 -154.5q0 -96 47 -154.5t126 -58.5q61 0 104 31v72q0 23 -26 23h-97v69z" />
    <glyph glyph-name="gcommaaccent.smcp" horiz-adv-x="683" 
d="M339 260h312v-69h-40q-25 0 -25 -23v-168h-31l-53 48q-64 -56 -164 -56q-129 0 -211.5 80t-82.5 201q0 120 84.5 199.5t215.5 79.5q110 0 181 -48.5t71 -111.5q0 -35 -22 -56t-54 -21t-52.5 19.5t-20.5 48.5q0 38 31 58q-37 45 -118 45q-83 0 -129 -53.5t-46 -154.5
q0 -96 47 -154.5t126 -58.5q61 0 104 31v72q0 23 -26 23h-97v69zM345 -48q32 0 52.5 -21t20.5 -56q0 -50 -37.5 -94t-101.5 -66l-16 31q75 40 82 76h-2q-34 0 -53.5 18.5t-19.5 46.5t21 46.5t54 18.5z" />
    <glyph glyph-name="gdotaccent.smcp" horiz-adv-x="683" 
d="M355 604q-35 0 -58.5 23t-23.5 57q0 35 23.5 58.5t58.5 23.5t57.5 -22.5t22.5 -58.5q0 -35 -22.5 -58t-57.5 -23zM339 260h312v-69h-40q-25 0 -25 -23v-168h-31l-53 48q-64 -56 -164 -56q-129 0 -211.5 80t-82.5 201q0 120 84.5 199.5t215.5 79.5q110 0 181 -48.5
t71 -111.5q0 -35 -22 -56t-54 -21t-52.5 19.5t-20.5 48.5q0 38 31 58q-37 45 -118 45q-83 0 -129 -53.5t-46 -154.5q0 -96 47 -154.5t126 -58.5q61 0 104 31v72q0 23 -26 23h-97v69z" />
    <glyph glyph-name="h.smcp" horiz-adv-x="710" 
d="M629 472q-25 0 -25 -24v-351q0 -25 25 -25h51v-72h-283v72h47q26 0 26 25v106h-229v-106q0 -25 26 -25h47v-72h-284v72h52q26 0 26 25v351q0 24 -26 24h-52v72h284v-72h-47q-26 0 -26 -24v-174h229v174q0 24 -26 24h-47v72h283v-72h-51z" />
    <glyph glyph-name="hbar.smcp" horiz-adv-x="710" 
d="M629 472q-25 0 -25 -24v-52h66v-49h-66v-250q0 -25 25 -25h51v-72h-283v72h47q26 0 26 25v106h-229v-106q0 -25 26 -25h47v-72h-284v72h52q26 0 26 25v250h-67v49h67v52q0 24 -26 24h-52v72h284v-72h-47q-26 0 -26 -24v-52h229v52q0 24 -26 24h-47v72h283v-72h-51z
M470 274v73h-229v-73h229z" />
    <glyph glyph-name="i.smcp" horiz-adv-x="373" 
d="M280 472q-26 0 -26 -24v-352q0 -24 26 -24h58v-72h-303v72h59q25 0 25 24v352q0 24 -25 24h-59v72h303v-72h-58z" />
    <glyph glyph-name="iacute.smcp" horiz-adv-x="373" 
d="M159 612q59 139 77 164q4 6 8 11q20 22 45 24.5t47 -15.5q23 -19 24.5 -45t-17.5 -47q-27 -32 -157 -115zM280 472q-26 0 -26 -24v-352q0 -24 26 -24h58v-72h-303v72h59q25 0 25 24v352q0 24 -25 24h-59v72h303v-72h-58z" />
    <glyph glyph-name="icircumflex.smcp" horiz-adv-x="373" 
d="M79 597l-40 35l111 143q21 26 37 26q15 0 36 -26l112 -143l-40 -35l-108 77zM280 472q-26 0 -26 -24v-352q0 -24 26 -24h58v-72h-303v72h59q25 0 25 24v352q0 24 -25 24h-59v72h303v-72h-58z" />
    <glyph glyph-name="idieresis.smcp" horiz-adv-x="373" 
d="M82 606q-34 0 -56 22t-22 55q0 34 22 56t56 22t55.5 -21.5t21.5 -55.5t-21.5 -56t-55.5 -22zM292 606q-34 0 -56 22t-22 55q0 34 22 56t56 22t55.5 -21.5t21.5 -55.5t-21.5 -56t-55.5 -22zM280 472q-26 0 -26 -24v-352q0 -24 26 -24h58v-72h-303v72h59q25 0 25 24v352
q0 24 -25 24h-59v72h303v-72h-58z" />
    <glyph glyph-name="i.loclTRK.smcp" horiz-adv-x="373" 
d="M188 604q-35 0 -58.5 23t-23.5 57q0 35 23.5 58.5t58.5 23.5t57.5 -22.5t22.5 -58.5q0 -35 -22.5 -58t-57.5 -23zM280 472q-26 0 -26 -24v-352q0 -24 26 -24h58v-72h-303v72h59q25 0 25 24v352q0 24 -25 24h-59v72h303v-72h-58z" />
    <glyph glyph-name="igrave.smcp" horiz-adv-x="373" 
d="M240 612l-27 -23q-130 83 -157 115q-19 21 -17.5 47t24.5 45q22 18 47 15.5t45 -24.5q21 -24 76 -155q3 -6 5 -10.5t4 -9.5zM280 472q-26 0 -26 -24v-352q0 -24 26 -24h58v-72h-303v72h59q25 0 25 24v352q0 24 -25 24h-59v72h303v-72h-58z" />
    <glyph glyph-name="imacron.smcp" horiz-adv-x="373" 
d="M37 711h300v-86h-300v86zM280 472q-26 0 -26 -24v-352q0 -24 26 -24h58v-72h-303v72h59q25 0 25 24v352q0 24 -25 24h-59v72h303v-72h-58z" />
    <glyph glyph-name="iogonek.smcp" horiz-adv-x="373" 
d="M280 472q-26 0 -26 -24v-352q0 -24 26 -24h58v-72h-55q-55 0 -89.5 -26t-34.5 -59q0 -22 13.5 -35t36.5 -13q21 0 51 16l28 -58q-44 -42 -108 -42q-51 0 -85 27.5t-34 71.5q0 37 24 67.5t68 50.5h-118v72h59q25 0 25 24v352q0 24 -25 24h-59v72h303v-72h-58z" />
    </font>
</defs>
</svg>
