<?xml version="1.0" standalone="no"?>
<!DOCTYPE svg PUBLIC "-//W3C//DTD SVG 1.1//EN" "http://www.w3.org/Graphics/SVG/1.1/DTD/svg11.dtd" >
<svg xmlns="http://www.w3.org/2000/svg" xmlns:xlink="http://www.w3.org/1999/xlink" version="1.1">
<metadata>
Created by FontForge 20170731 at Thu Oct  6 08:27:59 2016
 By Aleksey,,,
Copyright (c) 2016 by Rene' Bieder. All rights reserved.
</metadata>
<defs>
<font id="Sagona-BoldItalic" horiz-adv-x="600" >
  <font-face 
    font-family="Sagona Book"
    font-weight="700"
    font-style="italic"
    font-stretch="normal"
    units-per-em="1000"
    panose-1="2 1 0 4 4 1 1 1 1 3"
    ascent="800"
    descent="-200"
    x-height="517"
    cap-height="680"
    bbox="-344 -282 2006 960"
    underline-thickness="50"
    underline-position="-250"
    slope="-16"
    unicode-range="U+0020-FB02"
  />
<missing-glyph horiz-adv-x="681" 
d="M207 680h511l-195 -680h-511zM259 608l-140 -490l450 490h-310zM472 73l140 491l-450 -491h310z" />
    <glyph glyph-name="arrowleft" unicode="&#x3c;&#x2014;" horiz-adv-x="855" 
d="M333 604l34 -24l-97 -202q15 1 88.5 5.5t137.5 4.5h310v-90h-310q-64 0 -137.5 4.5t-88.5 5.5l97 -201l-34 -24l-263 243v35z" />
    <glyph glyph-name="arrowright" unicode="&#x2d;&#x3e;" horiz-adv-x="856" 
d="M552 604l263 -243v-35l-263 -243l-34 24l97 201q-15 -1 -88.5 -5.5t-137.5 -4.5h-310v90h310q64 0 137.5 -4.5t88.5 -5.5l-97 202z" />
    <glyph glyph-name="arrowboth" unicode="&#x3c;&#x2014;&#x3e;" horiz-adv-x="954" 
d="M650 604l263 -243v-35l-263 -243l-34 24l97 201q-36 -1 -89.5 -5.5t-81.5 -4.5h-93q-33 0 -88.5 4.5t-89.5 5.5l97 -201l-35 -24l-262 243v35l262 243l35 -24l-97 -202q34 1 89.5 5.5t88.5 4.5h93q28 0 81.5 -4.5t89.5 -5.5l-97 202z" />
    <glyph glyph-name="fi" unicode="fi" horiz-adv-x="714" 
d="M641 205h67q-43 -113 -92 -164.5t-113 -51.5q-63 0 -90.5 42.5t-8.5 109.5l81 279h-161l-123 -434q-25 -87 -85.5 -131.5t-137.5 -44.5q-61 0 -95.5 27t-34.5 72q0 34 19.5 55t51.5 21q28 0 47.5 -17t19.5 -45q0 -24 -15 -40.5t-38 -22.5h7q41 0 66 29.5t44 96.5l123 434
h-113l25 88h82q29 0 39 28l7 24q26 84 102 129t167 45q70 0 127.5 -33.5t57.5 -86.5q0 -33 -21 -58t-58 -25q-32 0 -53 19t-21 50q0 47 41 61q-20 8 -44 8q-111 0 -147 -112l-15 -49h310l-115 -392q-10 -35 15 -35q33 0 82 124z" />
    <glyph glyph-name="fl" unicode="fl" horiz-adv-x="752" 
d="M678 205h67q-45 -115 -92.5 -165.5t-115.5 -50.5q-64 0 -92 42.5t-9 109.5l80 279h-192l-123 -434q-25 -87 -85.5 -131.5t-137.5 -44.5q-61 0 -95.5 27t-34.5 72q0 34 19.5 55t51.5 21q28 0 47.5 -17t19.5 -45q0 -24 -15 -40.5t-38 -22.5h7q41 0 66 29.5t44 96.5l123 434
h-113l25 88h82q29 0 39 28l7 24q26 84 102 129t167 45q57 0 108.5 -23.5t69.5 -62.5l38 32h43l-163 -569q-5 -15 1 -22.5t16 -7.5q32 0 83 124zM349 508h192l9 32q-36 18 -36 60q0 47 41 61q-20 8 -44 8q-111 0 -147 -112z" />
    <glyph glyph-name="T_h" unicode="Th" horiz-adv-x="1282" 
d="M1208 206h67q-46 -112 -95 -164t-113 -52t-92 45t-4 117l55 161q18 54 9.5 80t-39.5 26q-15 0 -28.5 -6.5t-35 -31.5t-43.5 -68t-52 -123t-61 -190h-151l160 565q6 22 -14 27h-184l-135 -473q-9 -31 22 -31h78l-26 -88h-385l26 88h77q31 0 40 31l139 481h-34
q-94 0 -132.5 -6.5t-52.5 -26.5q30 -3 50.5 -23t20.5 -49q0 -32 -23.5 -54t-58.5 -22q-36 0 -59 25.5t-23 65.5q0 72 60.5 120t205.5 50h417q103 0 140 6.5t49 26.5q-31 3 -51.5 23t-20.5 50q0 32 23.5 54t58.5 22t58.5 -26t23.5 -66q0 -111 -124 -150l-66 -194l-49 -133h5
q80 225 223 225q78 0 110 -59.5t0 -154.5l-64 -187q-5 -19 -0.5 -27.5t15.5 -8.5q14 0 32 25t51 100z" />
    <glyph glyph-name="f_b" unicode="fb" horiz-adv-x="998" 
d="M846 517q66 0 101 -42t35 -121q0 -80 -31.5 -162t-95 -142t-140.5 -60q-59 0 -88 32.5t-47 92.5h-5l-108 -115h-70l119 420h-192l-123 -434q-25 -87 -85.5 -131.5t-137.5 -44.5q-61 0 -95.5 27t-34.5 72q0 34 19.5 55t51.5 21q28 0 47.5 -17t19.5 -45q0 -24 -15 -40.5
t-38 -22.5h7q41 0 66 29.5t44 96.5l123 434h-113l25 88h82q29 0 39 28l7 24q26 84 102 129t167 45q57 0 109 -23.5t69 -62.5l39 32h42l-95 -319h6q46 87 93 121.5t101 34.5zM349 508h192l9 32q-36 18 -36 60q0 47 41 61q-20 8 -44 8q-111 0 -147 -112zM676 75q39 0 75.5 50
t56.5 114.5t20 115.5q0 75 -52 75q-37 0 -73 -50t-56.5 -115.5t-20.5 -115.5q0 -74 50 -74z" />
    <glyph glyph-name="f_f" unicode="ff" horiz-adv-x="805" 
d="M811 726q69 0 116 -29t47 -78q0 -35 -21.5 -58.5t-59.5 -23.5q-32 0 -53 19t-21 50q0 46 42 62q-5 1 -17 1q-39 0 -65 -26t-45 -86l-15 -49h158l-24 -88h-159l-123 -434q-25 -87 -85.5 -131.5t-137.5 -44.5q-60 0 -95 28t-35 71q0 34 19.5 55t51.5 21q28 0 47.5 -17
t19.5 -45q0 -24 -15 -40.5t-38 -22.5h7q74 0 110 126l123 434h-219l-123 -434q-25 -87 -85.5 -131.5t-137.5 -44.5q-60 0 -95 28t-35 71q0 34 19.5 55t51.5 21q28 0 47.5 -17t19.5 -45q0 -24 -15 -40.5t-38 -22.5h7q74 0 110 126l123 434h-113l25 88h82q29 0 39 28l7 24
q25 79 86 122.5t142 43.5q69 0 116 -29t47 -78q0 -8 -1 -11q32 57 86.5 87.5t121.5 30.5zM576 536l7 24q0 2 1 2q-23 -25 -61 -25q-32 0 -53 19t-21 50q0 46 42 62q-5 1 -17 1q-39 0 -65 -26t-45 -86l-15 -49h188q29 0 39 28z" />
    <glyph glyph-name="f_f_b" unicode="ffb" horiz-adv-x="1368" 
d="M1216 517q66 0 101 -42t35 -121q0 -80 -31.5 -162t-95 -142t-140.5 -60q-59 0 -88 32.5t-47 92.5h-5l-108 -115h-70l119 420h-192l-123 -434q-25 -87 -85.5 -131.5t-137.5 -44.5q-61 0 -95.5 27t-34.5 72q0 34 19.5 55t51.5 21q28 0 47.5 -17t19.5 -45q0 -24 -15 -40.5
t-38 -22.5h7q41 0 66 29.5t44 96.5l123 434h-219l-123 -434q-25 -87 -85.5 -131.5t-137.5 -44.5q-61 0 -95.5 27t-34.5 72q0 34 19.5 55t51.5 21q28 0 47.5 -17t19.5 -45q0 -24 -15 -40.5t-38 -22.5h7q41 0 66 29.5t44 96.5l123 434h-113l25 88h82q29 0 39 28l7 24
q26 84 102 129t167 45q51 0 98.5 -19t70.5 -51q80 70 201 70q57 0 109 -23.5t69 -62.5l39 32h42l-95 -319h6q46 87 93 121.5t101 34.5zM537 508q27 0 37 24q-27 4 -43.5 22.5t-16.5 45.5q0 47 41 61q-20 8 -44 8q-111 0 -147 -112l-15 -49h188zM719 508h192l9 32
q-36 18 -36 60q0 47 41 61q-20 8 -44 8q-111 0 -147 -112zM1046 75q39 0 75.5 50t56.5 114.5t20 115.5q0 75 -52 75q-37 0 -73 -50t-56.5 -115.5t-20.5 -115.5q0 -74 50 -74z" />
    <glyph glyph-name="f_f_f" unicode="fff" horiz-adv-x="1175" 
d="M1181 726q69 0 116 -29t47 -78q0 -35 -21.5 -58.5t-59.5 -23.5q-32 0 -53 19t-21 50q0 46 42 62q-5 1 -17 1q-39 0 -65 -26t-45 -86l-15 -49h158l-24 -88h-159l-123 -434q-25 -87 -85.5 -131.5t-137.5 -44.5q-60 0 -95 28t-35 71q0 34 19.5 55t51.5 21q28 0 47.5 -17
t19.5 -45q0 -24 -15 -40.5t-38 -22.5h7q74 0 110 126l123 434h-219l-123 -434q-25 -87 -85.5 -131.5t-137.5 -44.5q-60 0 -95 28t-35 71q0 34 19.5 55t51.5 21q28 0 47.5 -17t19.5 -45q0 -24 -15 -40.5t-38 -22.5h7q74 0 110 126l123 434h-219l-123 -434
q-25 -87 -85.5 -131.5t-137.5 -44.5q-60 0 -95 28t-35 71q0 34 19.5 55t51.5 21q28 0 47.5 -17t19.5 -45q0 -24 -15 -40.5t-38 -22.5h7q74 0 110 126l123 434h-113l25 88h82q29 0 39 28l7 24q25 79 86 122.5t142 43.5q69 0 116 -29t47 -78q0 -8 -1 -11q32 57 86.5 87.5
t121.5 30.5q69 0 116 -29t47 -78q0 -8 -1 -11q32 57 86.5 87.5t121.5 30.5zM576 536l7 24q0 2 1 2q-23 -25 -61 -25q-32 0 -53 19t-21 50q0 46 42 62q-5 1 -17 1q-39 0 -65 -26t-45 -86l-15 -49h188q29 0 39 28zM946 536l7 24q0 2 1 2q-23 -25 -61 -25q-32 0 -53 19t-21 50
q0 46 42 62q-5 1 -17 1q-39 0 -65 -26t-45 -86l-15 -49h188q29 0 39 28z" />
    <glyph glyph-name="f_f_h" unicode="ffh" horiz-adv-x="1423" 
d="M1350 205h67q-46 -112 -95 -164t-113 -52t-92 45.5t-4 117.5l55 161q18 54 9.5 80t-39.5 26q-15 0 -28.5 -6.5t-35 -31.5t-43.5 -68t-52 -123t-61 -190h-150l118 420h-192l-123 -434q-25 -87 -85.5 -131.5t-137.5 -44.5q-61 0 -95.5 27t-34.5 72q0 34 19.5 55t51.5 21
q28 0 47.5 -17t19.5 -45q0 -24 -15 -40.5t-38 -22.5h7q41 0 66 29.5t44 96.5l123 434h-219l-123 -434q-25 -87 -85.5 -131.5t-137.5 -44.5q-61 0 -95.5 27t-34.5 72q0 34 19.5 55t51.5 21q28 0 47.5 -17t19.5 -45q0 -24 -15 -40.5t-38 -22.5h7q41 0 66 29.5t44 96.5l123 434
h-113l25 88h82q29 0 39 28l7 24q26 84 102 129t167 45q51 0 98.5 -19t70.5 -51q80 70 201 70q58 0 109.5 -23.5t68.5 -63.5l42 33h42l-87 -254l-49 -133h5q80 225 223 225q78 0 110 -59.5t0 -154.5l-64 -188q-5 -20 -0.5 -27.5t15.5 -7.5q14 0 32 25t51 99zM537 508
q27 0 37 24q-27 4 -43.5 22.5t-16.5 45.5q0 47 41 61q-20 8 -44 8q-111 0 -147 -112l-15 -49h188zM719 508h192l9 32q-36 18 -36 60q0 47 41 61q-20 8 -44 8q-111 0 -147 -112z" />
    <glyph glyph-name="f_f_i" unicode="ffi" horiz-adv-x="1084" 
d="M1011 205h67q-43 -113 -92 -164.5t-113 -51.5q-63 0 -90.5 42.5t-8.5 109.5l81 279h-161l-123 -434q-25 -87 -85.5 -131.5t-137.5 -44.5q-61 0 -95.5 27t-34.5 72q0 34 19.5 55t51.5 21q28 0 47.5 -17t19.5 -45q0 -24 -15 -40.5t-38 -22.5h7q41 0 66 29.5t44 96.5
l123 434h-219l-123 -434q-25 -87 -85.5 -131.5t-137.5 -44.5q-61 0 -95.5 27t-34.5 72q0 34 19.5 55t51.5 21q28 0 47.5 -17t19.5 -45q0 -24 -15 -40.5t-38 -22.5h7q41 0 66 29.5t44 96.5l123 434h-113l25 88h82q29 0 39 28l7 24q26 84 102 129t167 45q51 0 98.5 -19
t70.5 -51q80 70 201 70q70 0 127.5 -33.5t57.5 -86.5q0 -33 -21 -58t-58 -25q-32 0 -53 19t-21 50q0 47 41 61q-20 8 -44 8q-111 0 -147 -112l-15 -49h310l-115 -392q-10 -35 15 -35q33 0 82 124zM537 508q27 0 37 24q-27 4 -43.5 22.5t-16.5 45.5q0 47 41 61q-20 8 -44 8
q-111 0 -147 -112l-15 -49h188z" />
    <glyph glyph-name="f_f_j" unicode="ffj" horiz-adv-x="1042" 
d="M1059 508l-143 -502q-28 -99 -100 -147.5t-151 -48.5q-59 0 -92.5 27t-33.5 72v4q-65 -103 -191 -103q-61 0 -95.5 27t-34.5 72q0 34 19.5 55t51.5 21q28 0 47.5 -17t19.5 -45q0 -24 -15 -40.5t-38 -22.5h7q41 0 66 29.5t44 96.5l123 434h-219l-123 -434
q-25 -87 -85.5 -131.5t-137.5 -44.5q-61 0 -95.5 27t-34.5 72q0 34 19.5 55t51.5 21q28 0 47.5 -17t19.5 -45q0 -24 -15 -40.5t-38 -22.5h7q41 0 66 29.5t44 96.5l123 434h-113l25 88h82q29 0 39 28l7 24q26 84 102 129t167 45q51 0 98.5 -19t70.5 -51q80 70 201 70
q70 0 127.5 -33.5t57.5 -86.5q0 -33 -21 -58t-58 -25q-32 0 -53 19t-21 50q0 47 41 61q-20 8 -44 8q-111 0 -147 -112l-15 -49h340zM537 508q27 0 37 24q-27 4 -43.5 22.5t-16.5 45.5q0 47 41 61q-20 8 -44 8q-111 0 -147 -112l-15 -49h188zM767 6l120 414h-193l-123 -434
q-1 -3 -2.5 -8t-1.5 -6q17 14 43 14q28 0 47 -16.5t19 -45.5q0 -48 -51 -63h2q44 0 81.5 35t58.5 110z" />
    <glyph glyph-name="f_f_k" unicode="ffk" horiz-adv-x="1401" 
d="M1070 680h42l-194 -680h-151l120 420h-193l-123 -434q-25 -87 -85.5 -131.5t-137.5 -44.5q-61 0 -95.5 27t-34.5 72q0 34 19.5 55t51.5 21q28 0 47.5 -17t19.5 -45q0 -24 -15 -40.5t-38 -22.5h7q41 0 66 29.5t44 96.5l123 434h-219l-123 -434q-25 -87 -85.5 -131.5
t-137.5 -44.5q-61 0 -95.5 27t-34.5 72q0 34 19.5 55t51.5 21q28 0 47.5 -17t19.5 -45q0 -24 -15 -40.5t-38 -22.5h7q41 0 66 29.5t44 96.5l123 434h-113l25 88h82q29 0 39 28l7 24q26 84 102 129t167 45q51 0 98.5 -19t70.5 -51q80 70 201 70q58 0 109.5 -23.5t68.5 -63.5z
M537 508q27 0 37 24q-27 4 -43.5 22.5t-16.5 45.5q0 47 41 61q-20 8 -44 8q-111 0 -147 -112l-15 -49h188zM719 508h193l9 31q-37 19 -37 61q0 47 41 61q-20 8 -44 8q-111 0 -147 -112zM1242 81q14 0 31 24t48 100h67q-47 -118 -89 -166.5t-108 -48.5q-116 0 -116 115
q0 12 0.5 33t1 33.5t-0.5 30t-4.5 28t-9 20.5t-16 15t-24.5 5l-7 21q38 26 78 69.5t66 76t65.5 57t84.5 24.5q47 0 73 -23t26 -61q0 -37 -23 -61.5t-58 -24.5q-32 0 -53 19.5t-21 47.5q0 6 2 16q-15 -11 -70.5 -66t-91.5 -71q101 -5 120 -77q5 -22 7 -81q0 -55 22 -55z" />
    <glyph glyph-name="f_f_l" unicode="ffl" horiz-adv-x="1122" 
d="M1048 205h67q-45 -115 -92.5 -165.5t-115.5 -50.5q-64 0 -92 42.5t-9 109.5l80 279h-192l-123 -434q-25 -87 -85.5 -131.5t-137.5 -44.5q-61 0 -95.5 27t-34.5 72q0 34 19.5 55t51.5 21q28 0 47.5 -17t19.5 -45q0 -24 -15 -40.5t-38 -22.5h7q41 0 66 29.5t44 96.5
l123 434h-219l-123 -434q-25 -87 -85.5 -131.5t-137.5 -44.5q-61 0 -95.5 27t-34.5 72q0 34 19.5 55t51.5 21q28 0 47.5 -17t19.5 -45q0 -24 -15 -40.5t-38 -22.5h7q41 0 66 29.5t44 96.5l123 434h-113l25 88h82q29 0 39 28l7 24q26 84 102 129t167 45q51 0 98.5 -19
t70.5 -51q80 70 201 70q57 0 108.5 -23.5t69.5 -62.5l38 32h43l-163 -569q-5 -15 1 -22.5t16 -7.5q32 0 83 124zM537 508q27 0 37 24q-27 4 -43.5 22.5t-16.5 45.5q0 47 41 61q-20 8 -44 8q-111 0 -147 -112l-15 -49h188zM719 508h192l9 32q-36 18 -36 60q0 47 41 61
q-20 8 -44 8q-111 0 -147 -112z" />
    <glyph glyph-name="f_h" unicode="fh" horiz-adv-x="1053" 
d="M980 205h67q-46 -112 -95 -164t-113 -52t-92 45.5t-4 117.5l55 161q18 54 9.5 80t-39.5 26q-15 0 -28.5 -6.5t-35 -31.5t-43.5 -68t-52 -123t-61 -190h-150l118 420h-192l-123 -434q-25 -87 -85.5 -131.5t-137.5 -44.5q-61 0 -95.5 27t-34.5 72q0 34 19.5 55t51.5 21
q28 0 47.5 -17t19.5 -45q0 -24 -15 -40.5t-38 -22.5h7q41 0 66 29.5t44 96.5l123 434h-113l25 88h82q29 0 39 28l7 24q26 84 102 129t167 45q58 0 109.5 -23.5t68.5 -63.5l42 33h42l-87 -254l-49 -133h5q80 225 223 225q78 0 110 -59.5t0 -154.5l-64 -188q-5 -20 -0.5 -27.5
t15.5 -7.5q14 0 32 25t51 99zM349 508h192l9 32q-36 18 -36 60q0 47 41 61q-20 8 -44 8q-111 0 -147 -112z" />
    <glyph glyph-name="f_j" unicode="fj" horiz-adv-x="671" 
d="M689 508l-143 -502q-28 -99 -100 -147.5t-151 -48.5q-59 0 -92.5 27t-33.5 72v4q-65 -103 -191 -103q-61 0 -95.5 27t-34.5 72q0 34 19.5 55t51.5 21q28 0 47.5 -17t19.5 -45q0 -24 -15 -40.5t-38 -22.5h7q41 0 66 29.5t44 96.5l123 434h-113l25 88h82q29 0 39 28l7 24
q26 84 102 129t167 45q70 0 127.5 -33.5t57.5 -86.5q0 -33 -21 -58t-58 -25q-32 0 -53 19t-21 50q0 47 41 61q-20 8 -44 8q-111 0 -147 -112l-15 -49h340zM397 6l120 414h-193l-123 -434q-1 -3 -2.5 -8t-1.5 -6q17 14 43 14q28 0 47 -16.5t19 -45.5q0 -48 -51 -63h2
q44 0 81.5 35t58.5 110z" />
    <glyph glyph-name="f_k" unicode="fk" horiz-adv-x="1031" 
d="M700 680h42l-194 -680h-151l120 420h-193l-123 -434q-25 -87 -85.5 -131.5t-137.5 -44.5q-61 0 -95.5 27t-34.5 72q0 34 19.5 55t51.5 21q28 0 47.5 -17t19.5 -45q0 -24 -15 -40.5t-38 -22.5h7q41 0 66 29.5t44 96.5l123 434h-113l25 88h82q29 0 39 28l7 24
q26 84 102 129t167 45q58 0 109.5 -23.5t68.5 -63.5zM349 508h193l9 31q-37 19 -37 61q0 47 41 61q-20 8 -44 8q-111 0 -147 -112zM872 81q14 0 31 24t48 100h67q-47 -118 -89 -166.5t-108 -48.5q-116 0 -116 115q0 12 0.5 33t1 33.5t-0.5 30t-4.5 28t-9 20.5t-16 15
t-24.5 5l-7 21q38 26 78 69.5t66 76t65.5 57t84.5 24.5q47 0 73 -23t26 -61q0 -37 -23 -61.5t-58 -24.5q-32 0 -53 19.5t-21 47.5q0 6 2 16q-15 -11 -70.5 -66t-91.5 -71q101 -5 120 -77q5 -22 7 -81q0 -55 22 -55z" />
    <glyph glyph-name="f_t" unicode="ft" horiz-adv-x="787" 
d="M668 420l-85 -298q-6 -22 2.5 -31.5t22.5 -9.5q44 0 93 124h66q-79 -215 -220 -215q-67 0 -97.5 43t-11.5 110l78 277h-192l-123 -434q-25 -87 -85.5 -131.5t-137.5 -44.5q-60 0 -95 28t-35 71q0 34 19.5 55t51.5 21q28 0 47.5 -17t19.5 -45q0 -24 -15 -40.5t-38 -22.5h7
q74 0 110 126l123 434h-113l25 88h82q29 0 39 28l7 24q25 79 86 122.5t142 43.5q69 0 116 -29t47 -78q0 -35 -21.5 -58.5t-59.5 -23.5q-32 0 -53 19t-21 50q0 46 42 62q-5 1 -17 1q-39 0 -65 -26t-45 -86l-15 -49h199l120 115h58l-33 -115h128l-26 -88h-127z" />
    <glyph glyph-name=".notdef" horiz-adv-x="681" 
d="M207 680h511l-195 -680h-511zM259 608l-140 -490l450 490h-310zM472 73l140 491l-450 -491h310z" />
    <glyph glyph-name=".null" horiz-adv-x="0" 
 />
    <glyph glyph-name="nonmarkingreturn" horiz-adv-x="333" 
 />
    <glyph glyph-name="space" unicode=" " horiz-adv-x="188" 
 />
    <glyph glyph-name="exclam" unicode="!" horiz-adv-x="312" 
d="M131 265q12 287 29 346q12 43 46.5 64.5t73.5 10.5q40 -11 58 -47.5t5 -80.5q-10 -32 -60 -125t-96 -168h-56zM109 175q40 0 65.5 -25.5t25.5 -65.5t-25.5 -65.5t-65.5 -25.5t-66 26t-26 66t26 65t66 25z" />
    <glyph glyph-name="quotedbl" unicode="&#x22;" horiz-adv-x="416" 
d="M115 380q4 41 7.5 100.5t7 94.5t10.5 57q7 26 27 41.5t45 15.5q32 0 52.5 -21.5t20.5 -52.5q0 -22 -14.5 -54.5t-45.5 -89t-48 -91.5h-62zM316 380q4 41 7.5 100.5t7 94.5t10.5 57q7 26 27 41.5t45 15.5q32 0 52.5 -21.5t20.5 -52.5q0 -22 -14.5 -54.5t-45.5 -89
t-48 -91.5h-62z" />
    <glyph glyph-name="numbersign" unicode="#" horiz-adv-x="638" 
d="M689 430h-124l-87 -177h120l-23 -78h-136l-86 -175h-89l86 175h-149l-86 -175h-89l86 175h-114l22 78h131l87 177h-127l22 78h143l85 172h89l-85 -172h149l85 172h89l-85 -172h107zM389 253l87 177h-149l-87 -177h149z" />
    <glyph glyph-name="dollar" unicode="$" horiz-adv-x="569" 
d="M446 513q0 24 15 43t37 26q-29 22 -73 30l-63 -205q33 -18 48 -26t42.5 -28t40.5 -37t24 -44t11 -58q0 -94 -81 -159.5t-196 -65.5h-2l-29 -110h-80l37 118q-75 17 -124 63.5t-49 109.5q0 45 24.5 72.5t62.5 27.5q35 0 57.5 -22.5t22.5 -55.5q0 -30 -19 -49t-45 -24
q31 -37 92 -48l66 213q-83 44 -109 67q-56 49 -56 120q0 92 77.5 156t191.5 64h6l25 96h80l-33 -105q70 -17 115 -57t45 -95q0 -40 -23.5 -64t-58.5 -24q-34 0 -56.5 20.5t-22.5 50.5zM249 523q0 -47 59 -85l47 178q-49 -5 -77.5 -30.5t-28.5 -62.5zM270 71q45 7 72 34
t27 64q0 47 -51 83z" />
    <glyph glyph-name="percent" unicode="%" horiz-adv-x="1040" 
d="M572 358l-12 13q40 52 140 159t129 133q56 51 86 18q30 -34 -26 -85q-30 -27 -145 -114.5t-172 -123.5zM290 282q-81 0 -132 48.5t-51 123.5q0 96 69 166t164 70q82 0 133 -48t51 -124q0 -96 -69 -166t-165 -70zM290 339q58 0 96 68t38 140q0 87 -84 87q-58 0 -96 -67.5
t-38 -140.5q0 -87 84 -87zM749 -10q-81 0 -132 48.5t-51 123.5q0 96 69 166t164 70q82 0 133 -48t51 -124q0 -96 -69 -166t-165 -70zM749 47q58 0 96 68t38 140q0 87 -84 87q-58 0 -96 -67.5t-38 -140.5q0 -87 84 -87zM163 -2q-31 33 26 85q30 27 146 116.5t172 124.5
l12 -13q-38 -55 -130.5 -153t-138.5 -142q-56 -51 -87 -18z" />
    <glyph glyph-name="ampersand" unicode="&#x26;" horiz-adv-x="685" 
d="M720 383q0 -58 -49 -87.5t-126 -31.5q45 -27 45 -82q0 -82 -82.5 -137t-205.5 -55q-119 0 -205 52.5t-86 141.5q0 82 72 138t177 57q-124 32 -124 132q0 76 66.5 127.5t167.5 51.5q92 0 157.5 -42.5t65.5 -118.5q0 -46 -26.5 -80t-69.5 -34q-34 0 -60.5 20t-26.5 60
q0 35 22 56.5t60 26.5q-29 25 -78 25q-60 0 -94 -31t-34 -74q0 -36 24.5 -61t63.5 -34l12 -3l-23 -73l-26 -3q-68 -8 -110.5 -45t-42.5 -90q0 -56 47 -90t113 -34q71 0 122.5 38.5t51.5 96.5q0 48 -33 67q-57 3 -64 3q-32 0 -46 -6h7q27 0 43.5 -17.5t16.5 -43.5
q0 -28 -21 -47.5t-54 -19.5q-30 0 -53 18t-23 55q0 57 55 87.5t131 30.5q23 0 65.5 -4t55.5 -4q26 0 37 10q-4 -1 -11 -1q-29 0 -42.5 15.5t-13.5 39.5q0 33 22 55.5t56 22.5q30 0 52 -19t22 -59z" />
    <glyph glyph-name="quotesingle" unicode="'" horiz-adv-x="216" 
d="M115 380q4 41 7.5 100.5t7 94.5t10.5 57q7 26 27 41.5t45 15.5q32 0 52.5 -21.5t20.5 -52.5q0 -22 -14.5 -54.5t-45.5 -89t-48 -91.5h-62z" />
    <glyph glyph-name="parenleft" unicode="(" horiz-adv-x="412" 
d="M221 -138q-172 136 -172 348q0 188 118.5 344.5t309.5 217.5l20 -66q-148 -91 -229 -229t-81 -293q0 -78 21.5 -138t66.5 -128z" />
    <glyph glyph-name="parenright" unicode=")" horiz-adv-x="409" 
d="M227 772q172 -136 172 -348q0 -188 -118.5 -344.5t-309.5 -217.5l-20 66q148 91 229 229t81 293q0 78 -21.5 138t-66.5 128z" />
    <glyph glyph-name="asterisk" unicode="*" horiz-adv-x="502" 
d="M169 444q-16 24 -12.5 44.5t23.5 35.5q33 24 113 38l1 22q-88 12 -115 32q-46 35 -14 80q26 36 64 21q24 -8 41.5 -29.5t44.5 -72.5l19 6q-12 87 -3 116q7 26 25.5 37t44.5 4t36 -27t3 -45q-9 -32 -66 -97l14 -15q48 27 75 36.5t52 5.5q40 -8 43 -53q2 -24 -12 -41
t-43 -19q-35 -2 -114 33l-11 -18q61 -56 76 -92q10 -23 1.5 -43.5t-34.5 -29.5q-25 -10 -45.5 -1t-29.5 33q-13 35 -4 118l-25 7q-38 -74 -67 -97q-20 -16 -42.5 -13t-38.5 24z" />
    <glyph glyph-name="plus" unicode="+" horiz-adv-x="566" 
d="M237 254h-172l25 87h172l50 177h94l-51 -177h171l-25 -87h-170l-51 -177h-94z" />
    <glyph glyph-name="comma" unicode="," horiz-adv-x="261" 
d="M83 174q37 0 63.5 -23t26.5 -70q0 -75 -70.5 -135.5t-174.5 -85.5l-15 46q66 23 95 44.5t40 50.5q-57 23 -57 82q0 39 26 65t66 26z" />
    <glyph glyph-name="hyphen" unicode="-" horiz-adv-x="406" 
d="M77 313h286l-26 -93h-286z" />
    <glyph glyph-name="period" unicode="." horiz-adv-x="261" 
d="M83 175q40 0 65.5 -25.5t25.5 -65.5t-25.5 -65.5t-65.5 -25.5t-66 26t-26 66t26 65t66 25z" />
    <glyph glyph-name="slash" unicode="/" horiz-adv-x="466" 
d="M530 791h99l-645 -907h-99z" />
    <glyph glyph-name="zero" unicode="0" horiz-adv-x="652" 
d="M56 248q0 108 45.5 209t128 167t178.5 66q110 0 174.5 -71t64.5 -186q0 -108 -45.5 -209.5t-128.5 -167.5t-179 -66q-110 0 -174 71t-64 187zM286 72q56 0 107 77.5t78.5 175.5t27.5 174q0 52 -21.5 80.5t-60.5 28.5q-44 0 -85 -46t-68.5 -113t-44 -139t-16.5 -128
q0 -50 22 -80t61 -30z" />
    <glyph glyph-name="one" unicode="1" horiz-adv-x="495" 
d="M294 119q-9 -31 22 -31h117l-25 -88h-448l25 88h110q31 0 40 31l113 395q-55 -14 -140 -14l21 74q96 5 133.5 24.5t67.5 87.5h127z" />
    <glyph glyph-name="two" unicode="2" horiz-adv-x="610" 
d="M349 114q13 2 25 5t21 6t17.5 9t14 9.5t11.5 12t9 12.5t8.5 14.5t7 14t6.5 16t6 15.5h87l-65 -228h-503l19 67q20 16 71.5 54t90 67.5t89 73.5t83 81.5t56 81.5t23.5 82q0 44 -28 73t-80 29q-53 0 -96 -26q30 -9 48 -32t18 -52q0 -38 -27 -64.5t-66 -26.5t-63.5 26
t-24.5 68q0 73 73 130.5t180 57.5q101 0 167.5 -52.5t66.5 -134.5q0 -32 -12.5 -64t-29 -58.5t-48.5 -57.5t-56 -51.5t-68 -50.5t-67 -44.5t-70.5 -44t-62.5 -38.5z" />
    <glyph glyph-name="three" unicode="3" horiz-adv-x="551" 
d="M565 511q0 -70 -57 -115.5t-158 -55.5q73 -11 108.5 -53.5t35.5 -99.5q0 -88 -76 -142.5t-178 -54.5q-95 0 -166.5 48t-71.5 125q0 46 25 75t64 29q34 0 57 -22.5t23 -56.5q0 -31 -20.5 -54t-53.5 -30q35 -32 96 -32q62 0 100.5 36.5t38.5 92.5q0 46 -31.5 73.5
t-82.5 27.5h-20l25 86h47q60 0 100.5 36.5t40.5 89.5q0 45 -29 69.5t-78 24.5q-42 0 -73 -17q44 -25 44 -70q0 -33 -24.5 -56.5t-59.5 -23.5q-37 0 -61 25.5t-24 64.5q0 67 71 113t164 46q96 0 160 -51t64 -128z" />
    <glyph glyph-name="four" unicode="4" horiz-adv-x="587" 
d="M446 176l-16 -57q-9 -31 22 -31h59l-26 -88h-365l26 88h96q31 0 40 31l16 57h-293l25 88q48 35 85 70t58.5 58.5t40.5 57t25.5 47.5t19.5 48.5t16 42.5q8 19 14.5 31t20 31.5t32.5 29.5t42 10q24 0 39.5 -18t15.5 -46q0 -54 -30.5 -109t-82 -101.5t-104 -83.5t-110.5 -68
h212l34 119q90 61 118 117h64l-68 -236h105l-26 -88h-105z" />
    <glyph glyph-name="five" unicode="5" horiz-adv-x="573" 
d="M420 514q-76 0 -146 50l-65 -170q46 18 96 18q94 0 159.5 -52.5t65.5 -140.5q0 -97 -76.5 -162.5t-187.5 -65.5q-100 0 -171 51t-71 133q0 46 26.5 75.5t65.5 29.5q34 0 57 -22t23 -56t-24 -56t-62 -26q40 -48 110 -48q63 0 105.5 46t42.5 111q0 61 -37 91t-90 30
q-35 0 -76 -17l-38 41l107 289l60 22q18 -3 46 -8.5t38.5 -7.5t28.5 -5t31.5 -3.5t31.5 -0.5q93 0 178 29l13 -49q-62 -67 -117 -96.5t-124 -29.5z" />
    <glyph glyph-name="six" unicode="6" horiz-adv-x="628" 
d="M478 518q0 29 17.5 48.5t45.5 25.5q-35 24 -89 24q-72 0 -125 -61t-92 -182q65 49 148 49q86 0 142.5 -48t56.5 -132q0 -102 -79.5 -177t-201.5 -75q-110 0 -178 64.5t-68 183.5q0 105 50.5 208.5t141.5 173.5t195 70q83 0 142.5 -42t59.5 -110q0 -42 -23.5 -68.5
t-62.5 -26.5q-35 0 -57.5 21t-22.5 54zM348 357q-44 0 -77.5 -38t-47.5 -83t-15 -83q0 -41 21.5 -65.5t57.5 -24.5q42 0 75 39t48 86t15 86q0 38 -21 60.5t-56 22.5z" />
    <glyph glyph-name="seven" unicode="7" horiz-adv-x="580" 
d="M649 690q25 0 39.5 -15t14.5 -38q0 -39 -35.5 -65.5t-88.5 -32.5q-67 -65 -113 -116.5t-72.5 -84.5t-48 -76t-29 -63.5t-24.5 -75.5q-7 -22 -11 -34q-35 -99 -103 -99q-35 0 -54 24t-19 58q0 94 135 237.5t282 235.5q-74 9 -159 28.5t-119 19.5q-21 0 -36 -3
q30 -7 47.5 -28t15.5 -47q-1 -33 -25.5 -55t-58.5 -22q-37 0 -61.5 26t-24.5 65q0 24 10 50t30 52t57 42.5t84 16.5q52 0 95.5 -17.5t89.5 -43t83 -35.5q40 96 99 96z" />
    <glyph glyph-name="eight" unicode="8" horiz-adv-x="595" 
d="M594 523q0 -110 -160 -149q110 -74 110 -171q0 -92 -78.5 -152.5t-205.5 -60.5q-111 0 -181.5 46.5t-70.5 124.5q0 63 48 107t126 65q-73 61 -73 141q0 92 76 153t185 61q91 0 157.5 -45t66.5 -120zM389 403q99 52 99 126q0 43 -27.5 67.5t-74.5 24.5q-50 0 -82 -27
t-32 -66q0 -20 8.5 -36.5t28.5 -33.5t34.5 -26.5t45.5 -28.5zM252 58q51 0 84 29.5t33 69.5q0 15 -6.5 30t-14 25t-25 24t-27.5 20.5t-34 21.5t-33 21q-43 -24 -68 -59t-25 -75q0 -47 33 -77t83 -30z" />
    <glyph glyph-name="nine" unicode="9" horiz-adv-x="629" 
d="M377 690q110 0 178 -64.5t68 -183.5q0 -105 -50.5 -208.5t-141.5 -173.5t-195 -70q-83 0 -142.5 42t-59.5 110q0 42 23.5 68.5t62.5 26.5q35 0 57.5 -21t22.5 -54q0 -29 -17.5 -48.5t-45.5 -25.5q35 -24 89 -24q72 0 125 61t92 182q-65 -49 -148 -49q-86 0 -142.5 48
t-56.5 132q0 102 79.5 177t201.5 75zM330 323q44 0 77.5 38t47.5 83t15 83q0 41 -21.5 65.5t-57.5 24.5q-42 0 -75 -39t-48 -86t-15 -86q0 -38 21 -60.5t56 -22.5z" />
    <glyph glyph-name="colon" unicode=":" horiz-adv-x="261" 
d="M179 515q40 0 65.5 -25.5t25.5 -65.5t-25.5 -65.5t-65.5 -25.5t-66 26t-26 66t26 65t66 25zM83 175q40 0 65.5 -25.5t25.5 -65.5t-25.5 -65.5t-65.5 -25.5t-66 26t-26 66t26 65t66 25z" />
    <glyph glyph-name="semicolon" unicode=";" horiz-adv-x="262" 
d="M179 515q40 0 65.5 -25.5t25.5 -65.5t-25.5 -65.5t-65.5 -25.5t-66 26t-26 66t26 65t66 25zM83 174q37 0 63.5 -23t26.5 -70q0 -75 -70.5 -135.5t-174.5 -85.5l-15 46q66 23 95 44.5t40 50.5q-57 23 -57 82q0 39 26 65t66 26z" />
    <glyph glyph-name="less" unicode="&#x3c;" horiz-adv-x="566" 
d="M63 249l25 83l468 185l-35 -123l-350 -110l285 -119l-30 -103z" />
    <glyph glyph-name="equal" unicode="=" horiz-adv-x="567" 
d="M98 368l25 87h436l-25 -87h-436zM45 181l24 86h436l-24 -86h-436z" />
    <glyph glyph-name="greater" unicode="&#x3e;" horiz-adv-x="567" 
d="M524 331l-25 -83l-468 -185l35 123l350 110l-285 119l30 103z" />
    <glyph glyph-name="question" unicode="?" horiz-adv-x="554" 
d="M352 690q99 0 169 -45t70 -133q0 -186 -344 -264l-23 44q201 112 201 232q0 48 -29.5 70t-77.5 22t-78 -25q48 -18 48 -69q0 -39 -26.5 -66t-65.5 -27q-38 0 -62 25.5t-24 66.5q0 72 70 120.5t172 48.5zM227 175q40 0 65 -25.5t25 -65.5t-25 -65.5t-65 -25.5t-66.5 26
t-26.5 66q0 39 26.5 64.5t66.5 25.5z" />
    <glyph glyph-name="at" unicode="@" horiz-adv-x="848" 
d="M397 -117q-158 0 -259.5 94.5t-101.5 251.5q0 122 62 228t171 169.5t239 63.5q151 0 245 -83.5t94 -218.5q0 -67 -25.5 -126t-65 -97t-86 -59.5t-90.5 -21.5q-56 0 -75.5 33t-11.5 77h-4q-17 -42 -53.5 -76t-89.5 -34q-50 0 -86.5 33.5t-36.5 102.5q0 41 13.5 86.5
t37.5 87t64.5 69t88.5 27.5q51 0 78.5 -31t23.5 -89h5l31 113h106l-83 -278q-8 -26 1.5 -43t34.5 -17q56 0 104 77t48 169q0 110 -74.5 179.5t-196.5 69.5q-164 0 -281 -122t-117 -289q0 -137 82 -216t214 -79q137 0 252 75l19 -41q-126 -85 -277 -85zM395 157q52 0 86 70.5
t30 131.5q-2 32 -14.5 48.5t-40.5 16.5q-34 0 -62.5 -38.5t-41.5 -85.5t-11 -82q1 -29 16 -45t38 -16z" />
    <glyph glyph-name="A" unicode="A" horiz-adv-x="762" 
d="M679 88h31l-25 -88h-347l25 88h69q14 0 22.5 8.5t7.5 21.5l-7 64h-257l-43 -63q-9 -13 -6 -22t18 -9h54l-25 -88h-265l25 88h38q34 0 58 34l393 558h113l81 -562q5 -30 40 -30zM250 257h196l-29 245z" />
    <glyph glyph-name="B" unicode="B" horiz-adv-x="677" 
d="M704 526q0 -74 -57.5 -122t-150.5 -60q69 -12 106.5 -50t37.5 -96q0 -86 -78 -142t-204 -56h-403l25 88h62q32 0 39 26l128 444q5 17 -1.5 26t-19.5 9h-61l25 87h336q94 0 155 -42t61 -112zM399 395q64 0 105 33t41 82q0 38 -26.5 60.5t-70.5 22.5h-59l-59 -198h69z
M322 87q72 0 115.5 36.5t43.5 89.5q0 43 -27.5 67.5t-74.5 24.5h-75l-62 -218h80z" />
    <glyph glyph-name="C" unicode="C" horiz-adv-x="712" 
d="M532 466q0 32 20 56t51 33q-35 53 -112 53q-61 0 -112 -35.5t-81 -90t-46.5 -114t-16.5 -113.5q0 -81 37 -127.5t105 -46.5q64 0 113 41.5t97 123.5h86q-68 -138 -149 -197t-182 -59q-124 0 -203 75t-79 205q0 107 54 203.5t148.5 156.5t203.5 60q108 0 185 -55.5
t77 -142.5q0 -52 -28.5 -82t-73.5 -30q-41 0 -67.5 24.5t-26.5 61.5z" />
    <glyph glyph-name="D" unicode="D" horiz-adv-x="771" 
d="M454 680q139 0 224.5 -72.5t85.5 -197.5q0 -170 -137.5 -290t-341.5 -120h-328l24 88h61q31 0 39 27l127 444q5 16 -1 25t-20 9h-62l25 87h304zM312 88q116 0 197.5 100t81.5 229q0 84 -43 130t-116 46h-47l-145 -505h72z" />
    <glyph glyph-name="E" unicode="E" horiz-adv-x="676" 
d="M532 218h95l-63 -218h-609l25 88h61q31 0 40 31l126 443q9 31 -22 31h-60l25 87h602l-63 -217h-95q13 70 8 90q-8 40 -68 40h-150l-71 -249h57q10 0 18 2.5t15 9t11.5 11t11 16.5t8.5 16.5t8.5 20.5t8.5 19h71l-79 -278h-71q1 5 3 19t2.5 20t1 17t-1.5 16.5t-5.5 11.5
t-10 8.5t-16.5 2.5h-58l-48 -168h150q32 0 55.5 9.5t40 31.5t25 38.5t22.5 50.5z" />
    <glyph glyph-name="F" unicode="F" horiz-adv-x="674" 
d="M760 680l-63 -217h-95q1 4 2 11q5 25 6.5 37.5t0.5 31t-7.5 27.5t-22 16t-40.5 7h-157l-71 -249h80q10 0 18 2.5t15 9t11.5 11t11 16.5t8.5 16.5t8.5 20.5t8.5 19h71l-80 -278h-71q0 4 2 15.5t2.5 15.5t1 14t-0.5 14t-3 11.5t-6.5 10.5t-10 7t-14.5 5.5t-20 1.5h-58
l-39 -137q-9 -31 22 -31h118l-25 -88h-408l25 88h61q31 0 40 31l126 443q9 31 -22 31h-60l25 87h610z" />
    <glyph glyph-name="G" unicode="G" horiz-adv-x="783" 
d="M398 320h380l-24 -87h-47q-31 0 -40 -31l-58 -202h-40l-55 59q-76 -69 -179 -69q-124 0 -199 76.5t-75 204.5q0 106 51 202t146 156.5t210 60.5q110 0 184.5 -52.5t74.5 -138.5q0 -51 -26.5 -81t-68.5 -30q-40 0 -66.5 24.5t-26.5 61.5q0 31 19.5 52t52.5 27
q-33 54 -117 54q-58 0 -108.5 -35.5t-82.5 -90t-50 -116.5t-18 -118q0 -75 34.5 -120.5t103.5 -45.5q58 0 112 43l22 78q9 31 -23 31h-110z" />
    <glyph glyph-name="H" unicode="H" horiz-adv-x="825" 
d="M576 680h344l-26 -87h-60q-31 0 -39 -31l-127 -443q-9 -31 22 -31h60l-25 -88h-344l25 88h54q30 0 39 31l39 136h-250l-39 -136q-9 -31 22 -31h54l-25 -88h-344l24 88h61q31 0 40 31l128 443q9 31 -23 31h-60l25 87h344l-25 -87h-55q-31 0 -39 -31l-63 -220h250l64 220
q9 31 -22 31h-54z" />
    <glyph glyph-name="I" unicode="I" horiz-adv-x="419" 
d="M421 593q-31 0 -39 -31l-127 -443q-9 -31 22 -31h64l-25 -88h-359l26 88h64q31 0 40 31l127 443q9 31 -22 31h-65l26 87h358l-25 -87h-65z" />
    <glyph glyph-name="J" unicode="J" horiz-adv-x="587" 
d="M250 680h447l-24 -87h-59q-32 0 -41 -31l-100 -359q-26 -94 -95.5 -153.5t-167.5 -59.5q-92 0 -152 51t-60 129q0 51 26.5 81.5t67.5 30.5q36 0 61 -23.5t25 -58.5q0 -37 -27.5 -62.5t-67.5 -27.5q39 -22 86 -22q52 0 87 35.5t51 89.5l99 349q8 31 -22 31h-159z" />
    <glyph glyph-name="K" unicode="K" horiz-adv-x="790" 
d="M-45 0l25 88h61q31 0 40 31l127 443q9 31 -23 31h-60l25 87h344l-25 -87h-54q-31 0 -40 -31l-127 -443q-9 -31 22 -31h37l-25 -88h-327zM342 0l25 88h46q31 0 18 30l-95 214l282 232q28 22 10 28q-4 1 -9 1h-74l25 87h319l-25 -87h-33q-49 0 -89 -31l-232 -194l117 -241
q18 -39 68 -39h43l-25 -88h-371z" />
    <glyph glyph-name="L" unicode="L" horiz-adv-x="653" 
d="M536 290h87l-83 -290h-585l25 88h61q31 0 40 31l126 443q9 31 -22 31h-60l25 87h385l-25 -87h-95q-31 0 -40 -31l-136 -474h118q62 0 103 52t76 150z" />
    <glyph glyph-name="M" unicode="M" horiz-adv-x="924" 
d="M933 593q-31 0 -39 -31l-127 -443q-9 -31 22 -31h60l-25 -88h-337l26 88h46q31 0 40 31l110 385l-274 -367h-58l-90 365l-109 -383q-9 -31 22 -31h60l-25 -88h-280l25 88h61q31 0 40 31l126 443q9 31 -22 31h-60l25 87h271l84 -322l253 322h261l-26 -87h-60z" />
    <glyph glyph-name="N" unicode="N" horiz-adv-x="781" 
d="M886 680l-26 -87h-60q-31 0 -40 -31l-161 -562h-70l-253 460l-98 -341q-9 -31 22 -31h75l-25 -88h-295l25 88h61q31 0 40 31l126 443q9 31 -22 31h-60l25 87h217l217 -395l79 277q9 31 -22 31h-71l25 87h291z" />
    <glyph glyph-name="O" unicode="O" horiz-adv-x="736" 
d="M339 -10q-128 0 -203.5 76.5t-74.5 204.5q1 100 45.5 194.5t135.5 159.5t207 65q128 0 204 -76t75 -204q-1 -75 -28.5 -149t-76 -134.5t-123 -98.5t-161.5 -38zM338 71q52 0 97 44t72 108t42 129.5t14 113.5q-1 65 -32 104t-84 39q-54 0 -99.5 -43t-72 -106t-41 -126.5
t-13.5 -111.5q1 -69 32.5 -110t84.5 -41z" />
    <glyph glyph-name="P" unicode="P" horiz-adv-x="689" 
d="M286 247l-37 -128q-9 -31 21 -31h123l-25 -88h-413l25 88h61q31 0 40 31l126 442q10 32 -22 32h-60l25 87h328q118 0 178.5 -49t60.5 -140q0 -108 -97 -176t-233 -68h-101zM440 593h-56l-75 -263h71q72 0 118 50t46 117q0 96 -104 96z" />
    <glyph glyph-name="Q" unicode="Q" horiz-adv-x="736" 
d="M449 690q128 0 204 -76t75 -204q-1 -75 -28.5 -149t-76 -134.5t-123 -98.5t-161.5 -38q-128 0 -203.5 76.5t-74.5 204.5q1 100 45.5 194.5t135.5 159.5t207 65zM338 71q52 0 97 44t72 108t42 129.5t14 113.5q-1 65 -32 104t-84 39q-54 0 -99.5 -43t-72 -106t-41 -126.5
t-13.5 -111.5q1 -69 32.5 -110t84.5 -41zM551 -53q31 0 52.5 -20.5t21.5 -51.5q0 -39 -33 -66.5t-78 -27.5q-66 0 -138 77q-14 15 -32 40.5t-29 35t-27 9.5q28 -16 28 -51q0 -31 -19.5 -50.5t-49.5 -19.5q-32 0 -53.5 21t-21.5 52q0 40 30.5 63.5t74.5 23.5q74 0 145 -78
q13 -14 28 -33t21.5 -26.5t16.5 -14t21 -6.5q9 0 14 2q-40 10 -40 55q0 29 19 47.5t49 18.5z" />
    <glyph glyph-name="R" unicode="R" horiz-adv-x="754" 
d="M595 121q6 -18 17.5 -25.5t38.5 -7.5h59l-25 -88h-254l-32 191q-7 45 -28 60.5t-54 15.5h-27l-42 -148q-8 -31 22 -31h55l-25 -88h-345l25 88h61q31 0 40 31l126 443q9 31 -22 31h-60l25 87h333q110 0 174 -47.5t64 -131.5q0 -87 -68 -147.5t-172 -76.5q67 -27 94 -103z
M377 354q70 0 121.5 43.5t51.5 102.5q0 40 -26 66.5t-73 26.5h-67l-69 -239h62z" />
    <glyph glyph-name="S" unicode="S" horiz-adv-x="576" 
d="M446 511q0 26 16.5 46t40.5 25q-40 36 -105 36q-55 0 -90 -26.5t-35 -67.5q0 -33 27 -60.5t65.5 -49.5t76.5 -46t65 -63.5t27 -89.5q0 -94 -81.5 -159.5t-198.5 -65.5q-102 0 -176 50.5t-74 128.5q0 46 26 74.5t64 28.5q36 0 59.5 -24t23.5 -57q0 -32 -20 -52t-48 -24
q38 -54 117 -54q53 0 87.5 29t34.5 72q0 31 -18.5 57t-46 42.5t-60 37.5t-60 41t-46 53.5t-18.5 75.5q0 93 79 157t194 64q97 0 169.5 -45t72.5 -118q0 -40 -24.5 -64.5t-60.5 -24.5t-59.5 21.5t-23.5 51.5z" />
    <glyph glyph-name="T" unicode="T" horiz-adv-x="694" 
d="M785 680l-76 -263h-95q22 102 19 130q-4 53 -64 53h-39l-138 -481q-9 -31 22 -31h78l-25 -88h-385l25 88h78q31 0 40 31l138 481h-39q-14 0 -26 -3t-21.5 -6t-19 -11.5t-15.5 -14t-14 -19t-12 -20.5t-11 -25t-10 -25.5t-11 -29t-11 -29.5h-95l76 263h631z" />
    <glyph glyph-name="U" unicode="U" horiz-adv-x="734" 
d="M337 -10q-126 0 -198 79t-33 213l82 280q9 31 -22 31h-58l26 87h359l-25 -87h-64q-31 0 -40 -31l-92 -315q-22 -77 6.5 -124t95.5 -47q57 0 97 35.5t59 102.5l99 348q8 31 -23 31h-60l26 87h273l-26 -87h-57q-31 0 -40 -31l-104 -368q-26 -93 -102 -148.5t-179 -55.5z
" />
    <glyph glyph-name="V" unicode="V" horiz-adv-x="761" 
d="M620 680h264l-26 -87h-37q-33 0 -57 -33l-394 -560h-113l-81 562q-6 31 -40 31h-39l25 87h355l-25 -87h-65q-14 0 -22 -8.5t-7 -21.5l44 -375l258 375q8 12 5 21t-16 9h-54z" />
    <glyph glyph-name="W" unicode="W" horiz-adv-x="1100" 
d="M958 680h265l-26 -87h-37q-36 0 -57 -34l-369 -559h-90l-43 417l-266 -417h-105l-55 563q-3 30 -39 30h-39l25 87h349l-25 -87h-58q-15 0 -23 -8.5t-7 -22.5l25 -323l216 323q8 13 4.5 22t-18.5 9h-62l26 87h331l-25 -87h-68q-14 0 -22.5 -9t-7.5 -22l32 -325l209 324
q9 13 6 22.5t-18 9.5h-53z" />
    <glyph glyph-name="X" unicode="X" horiz-adv-x="753" 
d="M576 680h280l-25 -87h-43q-35 0 -64 -28l-229 -209l110 -233q17 -35 50 -35h47l-26 -88h-354l26 88h38q14 0 21 8t1 20l-62 142l-150 -142q-13 -12 -11 -20t16 -8h44l-25 -88h-281l25 88h51q33 0 64 28l226 206l-110 236q-17 35 -50 35h-44l25 87h354l-25 -87h-41
q-14 0 -20.5 -8t-1.5 -20l64 -141l151 141q13 11 11 19.5t-16 8.5h-51z" />
    <glyph glyph-name="Y" unicode="Y" horiz-adv-x="688" 
d="M535 680h275l-25 -87h-42q-36 0 -65 -32l-237 -265l-50 -177q-9 -31 22 -31h79l-26 -88h-387l25 88h79q31 0 40 31l40 139l-82 307q-7 28 -43 28h-41l25 87h331l-25 -87h-45q-16 0 -23 -8.5t-4 -22.5l47 -195l171 198q12 13 9.5 20.5t-18.5 7.5h-55z" />
    <glyph glyph-name="Z" unicode="Z" horiz-adv-x="617" 
d="M695 680l-17 -57l-477 -538h163q12 0 23.5 3t21 11t17.5 15.5t16 21.5t13.5 23t13 28t11.5 28.5t11.5 30.5t10.5 29h88l-79 -275h-557l14 50l479 546h-144q-12 0 -23 -3t-21 -10t-17.5 -13.5t-15 -19.5t-12.5 -21.5t-12.5 -26.5t-11 -26.5t-11 -29.5t-10.5 -29h-88
l76 263h538z" />
    <glyph glyph-name="bracketleft" unicode="[" horiz-adv-x="364" 
d="M234 791h264l-24 -81h-138l-213 -744h138l-23 -82h-264z" />
    <glyph glyph-name="backslash" unicode="\" horiz-adv-x="422" 
d="M234 791l90 -907h-89l-90 907h89z" />
    <glyph glyph-name="bracketright" unicode="]" horiz-adv-x="364" 
d="M178 -116h-264l24 81h138l213 744h-138l23 82h264z" />
    <glyph glyph-name="asciicircum" unicode="^" horiz-adv-x="431" 
d="M335 432l-22 151l-109 -151h-119l212 248h83l67 -248h-112z" />
    <glyph glyph-name="underscore" unicode="_" horiz-adv-x="432" 
d="M-90 -60h432l-23 -80h-432z" />
    <glyph glyph-name="grave" unicode="`" horiz-adv-x="277" 
d="M302 578h-55q-67 61 -82 83q-19 28 -19 56q0 32 22.5 51.5t52.5 19.5q50 0 68 -56q13 -38 13 -154z" />
    <glyph glyph-name="a" unicode="a" horiz-adv-x="650" 
d="M155 -10q-67 0 -103.5 42t-36.5 123q0 78 31.5 160.5t95 142.5t140.5 60q115 0 117 -132h6l34 122h150l-113 -391q-10 -36 14 -36q32 0 86 124h67q-47 -115 -92 -165t-108 -50q-60 0 -83.5 37t-12.5 95l4 21h-5q-76 -153 -191 -153zM224 77q38 0 73.5 50.5t54.5 114.5
t19 114q0 79 -52 79q-39 0 -74.5 -49.5t-55 -112t-19.5 -109.5q0 -41 14 -64t40 -23z" />
    <glyph glyph-name="b" unicode="b" horiz-adv-x="605" 
d="M453 517q66 0 101 -42t35 -121q0 -80 -31.5 -162t-95 -142t-140.5 -60q-60 0 -93 34.5t-42 90.5h-5l-108 -115h-70l159 562q9 31 -22 31h-45l25 87h227l-95 -319h6q46 87 93 121.5t101 34.5zM283 75q39 0 75.5 50t56.5 114.5t20 115.5q0 75 -52 75q-37 0 -73 -50
t-56.5 -115.5t-20.5 -115.5q0 -74 50 -74z" />
    <glyph glyph-name="c" unicode="c" horiz-adv-x="527" 
d="M356 333q0 30 20.5 51.5t51.5 26.5q-24 26 -65 26q-53 0 -95 -41t-62 -97t-20 -113q0 -58 23.5 -85.5t60.5 -27.5q81 0 139 117h71q-92 -200 -247 -200q-85 0 -146 55.5t-61 155.5q0 123 87 219t210 96q85 0 137 -45.5t52 -112.5q0 -44 -23 -70.5t-59 -26.5
q-32 0 -53 20.5t-21 51.5z" />
    <glyph glyph-name="d" unicode="d" horiz-adv-x="650" 
d="M155 -10q-67 0 -103.5 42t-36.5 123q0 78 31.5 160t95 142t140.5 60q115 0 117 -131h6l47 176q9 31 -22 31h-45l25 87h227l-161 -563q-10 -36 14 -36q32 0 86 124h67q-47 -115 -92 -165t-108 -50q-60 0 -83.5 37t-12.5 95l4 21h-5q-76 -153 -191 -153zM224 78
q38 0 73.5 50.5t54.5 114t19 112.5q0 77 -51 77q-38 0 -74 -48t-56 -110t-20 -111q0 -85 54 -85z" />
    <glyph glyph-name="e" unicode="e" horiz-adv-x="523" 
d="M260 69q95 0 152 136h71q-81 -215 -261 -215q-96 0 -147 55t-51 142q0 56 21 113t59.5 106t99 80t132.5 31q77 0 123.5 -34t46.5 -89q0 -43 -30 -78t-79.5 -57.5t-103 -36t-110.5 -19.5q-2 -26 -2 -36q0 -46 20.5 -72t58.5 -26zM328 447q-49 0 -84.5 -60t-52.5 -140
q82 22 133.5 59.5t51.5 88.5q0 52 -48 52z" />
    <glyph glyph-name="f" unicode="f" horiz-adv-x="435" 
d="M441 726q69 0 116 -29t47 -78q0 -35 -21.5 -58.5t-59.5 -23.5q-32 0 -53 19t-21 50q0 46 42 62q-5 1 -17 1q-39 0 -65 -26t-45 -86l-15 -49h158l-24 -88h-159l-123 -434q-25 -87 -85.5 -131.5t-137.5 -44.5q-60 0 -95 28t-35 71q0 34 19.5 55t51.5 21q28 0 47.5 -17
t19.5 -45q0 -24 -15 -40.5t-38 -22.5h7q74 0 110 126l123 434h-113l25 88h82q29 0 39 28l7 24q25 79 86 122.5t142 43.5z" />
    <glyph glyph-name="g" unicode="g" horiz-adv-x="571" 
d="M440 508h150l-142 -485q-29 -100 -110 -156.5t-192 -56.5q-91 0 -137.5 35.5t-46.5 86.5q0 37 22.5 60.5t57.5 23.5q29 0 48.5 -19t19.5 -48q0 -48 -49 -68q36 -8 65 -8q134 0 184 150l44 135h-5q-64 -123 -168 -123q-71 0 -112.5 43.5t-41.5 118.5q0 76 29.5 148
t88 121.5t131.5 49.5q55 0 89.5 -34t34.5 -97h4zM240 122q55 0 94 78.5t39 154.5q0 38 -17 57t-44 19q-38 0 -69.5 -38.5t-46.5 -89t-15 -97.5q0 -39 15.5 -61.5t43.5 -22.5z" />
    <glyph glyph-name="h" unicode="h" horiz-adv-x="658" 
d="M444 -10q-64 0 -92 45t-4 117l55 161q18 54 9.5 80t-39.5 26q-15 0 -28.5 -6.5t-35 -31.5t-43.5 -68t-52 -123t-61 -190h-151l160 565q7 28 -23 28h-42l25 87h227l-87 -254l-49 -133h5q80 225 223 225q78 0 110 -59.5t0 -154.5l-64 -187q-5 -19 -0.5 -27.5t15.5 -8.5
q14 0 32 25t51 100h67q-46 -112 -95 -164t-113 -52z" />
    <glyph glyph-name="i" unicode="i" horiz-adv-x="395" 
d="M319 565q-40 0 -66 25t-26 65t26 66t66 26t65.5 -25.5t25.5 -65.5t-25.5 -65.5t-65.5 -25.5zM322 206h67q-42 -113 -91 -164.5t-113 -51.5t-93.5 43t-6.5 108l92 257q9 29 -18 29q-32 0 -84 -127h-67q46 117 95.5 167.5t114.5 50.5t93 -44t4 -110l-89 -247q-6 -20 -1 -28
t16 -8q32 0 81 125z" />
    <glyph glyph-name="j" unicode="j" horiz-adv-x="340" 
d="M307 747q40 0 65.5 -25.5t25.5 -65.5t-25.5 -65.5t-65.5 -25.5t-66 25t-26 65t26 66t66 26zM215 518q65 0 91.5 -42.5t6.5 -111.5l-102 -358q-19 -67 -63.5 -113.5t-91.5 -64.5t-96 -18q-61 0 -96 29t-35 76q0 33 20.5 54t51.5 21q27 0 46.5 -16.5t19.5 -44.5t-18 -45.5
t-46 -20.5q12 -2 19 -2q44 0 81.5 35t58.5 110l113 392q5 15 -1 22t-16 7q-16 0 -35 -26t-49 -101h-67q46 118 95 168t113 50z" />
    <glyph glyph-name="k" unicode="k" horiz-adv-x="633" 
d="M122 680h221l-194 -680h-151l160 562q9 31 -22 31h-39zM473 81q14 0 31 24t48 100h67q-47 -118 -89 -166.5t-108 -48.5q-116 0 -116 115q0 12 1 37t0.5 37t-3 31.5t-8.5 29.5t-18 20.5t-30 15.5l-2 15q38 26 78 69.5t66 76t65.5 57t84.5 24.5q47 0 73 -23t26 -61
q0 -37 -23 -61.5t-58 -24.5q-32 0 -53 19.5t-21 47.5q0 6 2 16q-15 -11 -70.5 -66t-91.5 -71q101 -5 120 -77q5 -22 7 -81q0 -55 22 -55z" />
    <glyph glyph-name="l" unicode="l" horiz-adv-x="359" 
d="M202 81q33 0 84 125h67q-45 -115 -92.5 -165.5t-115.5 -50.5q-64 0 -92 42t-9 109l119 421q9 31 -22 31h-45l25 87h227l-163 -569q-8 -30 17 -30z" />
    <glyph glyph-name="m" unicode="m" horiz-adv-x="1008" 
d="M935 206h67q-46 -112 -95.5 -164t-111.5 -52q-67 0 -94.5 45.5t-3.5 116.5l56 161q18 54 9.5 80t-39.5 26q-15 0 -28 -6.5t-34 -31.5t-42.5 -68t-50.5 -123t-60 -190h-153l90 313q29 106 -31 106q-15 0 -28 -6.5t-33.5 -31.5t-42 -68t-50.5 -123t-60 -190h-151l114 387
q13 40 -14 40q-29 0 -77 -127h-66q42 116 86.5 167t105.5 51q22 0 40.5 -6t35 -22t18.5 -44.5t-9 -73.5l-24 -79h5q43 123 95 174t116 51q76 0 102 -58.5t-6 -155.5l-3 -11h5q79 225 218 225q78 0 110 -59.5t0 -154.5l-64 -187q-5 -20 -0.5 -28t15.5 -8q14 0 32 25t51 100z
" />
    <glyph glyph-name="n" unicode="n" horiz-adv-x="705" 
d="M632 206h66q-46 -112 -95 -164t-112 -52q-67 0 -94 46t-3 116l56 161q18 54 9 80t-40 26q-15 0 -28.5 -6.5t-35 -31.5t-43.5 -68t-51.5 -123t-60.5 -190h-151l114 387q11 40 -14 40q-15 0 -32 -25.5t-45 -101.5h-66q42 117 86.5 167.5t106.5 50.5q51 0 79.5 -32.5
t4.5 -111.5l-25 -81h6q80 225 224 225q77 0 109.5 -59.5t0.5 -154.5l-64 -187q-6 -19 -1 -27.5t16 -8.5q14 0 32 25t51 100z" />
    <glyph glyph-name="o" unicode="o" horiz-adv-x="558" 
d="M234 -10q-91 0 -149.5 54.5t-58.5 153.5q0 78 35 150t104.5 120.5t157.5 48.5q92 0 151 -53.5t59 -151.5q0 -78 -35.5 -151t-106 -122t-157.5 -49zM227 58q38 0 70.5 38.5t51.5 93t29.5 103.5t11.5 78q1 37 -15.5 58t-44.5 21q-38 0 -71 -38.5t-52 -92t-29.5 -102
t-11.5 -77.5q-1 -41 16 -61.5t45 -20.5z" />
    <glyph glyph-name="p" unicode="p" horiz-adv-x="649" 
d="M-62 -180l25 87h39q31 0 40 31l131 449q11 40 -14 40q-31 0 -85 -124h-68q47 115 92.5 165t108.5 50q61 0 84.5 -38t12.5 -96l-4 -21h5q78 154 191 154q64 0 100.5 -43.5t36.5 -121.5t-32 -160.5t-94.5 -142t-137.5 -59.5q-60 0 -90 36t-31 93h-5l-50 -181q-9 -31 22 -31
h99l-25 -87h-351zM326 75q40 0 76.5 50t56.5 114t20 115q0 37 -13.5 56.5t-36.5 19.5q-39 0 -75.5 -50.5t-56.5 -115t-20 -115.5q0 -74 49 -74z" />
    <glyph glyph-name="q" unicode="q" horiz-adv-x="594" 
d="M440 -62q-9 -31 22 -31h39l-25 -87h-318l25 87h66q31 0 40 31l59 202h-4q-75 -150 -188 -150q-66 0 -103.5 42.5t-37.5 122.5q0 78 31.5 160t95 142t140.5 60q61 0 96 -36.5t35 -96.5h5l35 124h151zM226 78q38 0 73 50.5t53.5 114t18.5 112.5q0 77 -52 77q-42 0 -78 -49
t-54 -110t-18 -110q0 -40 15.5 -62.5t41.5 -22.5z" />
    <glyph glyph-name="r" unicode="r" horiz-adv-x="533" 
d="M472 518q46 0 69 -24t23 -60q0 -38 -25.5 -64t-63.5 -26q-30 0 -51 17t-21 51v7q-50 -26 -96 -122.5t-107 -296.5h-151l114 385q12 42 -14 42q-29 0 -77 -127h-66q42 116 86.5 167t105.5 51q22 0 41 -6t36 -22.5t18.5 -45t-10.5 -72.5l-26 -79h5q48 123 98.5 174
t111.5 51z" />
    <glyph glyph-name="s" unicode="s" horiz-adv-x="477" 
d="M330 400q0 29 22 46q-19 8 -40 8q-40 0 -63.5 -18t-23.5 -45t20 -47.5t48.5 -36t57.5 -32.5t49 -46t20 -67q0 -72 -64 -122t-158 -50q-77 0 -137 35t-60 96q0 36 22 60t55 24q29 0 49.5 -18t20.5 -48q0 -47 -47 -60q33 -25 74 -25q38 0 61.5 18t23.5 45q0 26 -19 47
t-46.5 36.5t-55 33t-46.5 47t-19 69.5q0 68 51.5 118t150.5 50q46 0 88 -10.5t73.5 -38t31.5 -66.5q0 -31 -18.5 -52t-49.5 -21q-30 0 -50.5 19.5t-20.5 50.5z" />
    <glyph glyph-name="t" unicode="t" horiz-adv-x="390" 
d="M271 420l-85 -298q-6 -22 2.5 -31.5t22.5 -9.5q44 0 93 124h66q-79 -215 -220 -215q-67 0 -97.5 43t-11.5 110l78 277h-69l26 88h75l120 115h58l-33 -115h128l-26 -88h-127z" />
    <glyph glyph-name="u" unicode="u" horiz-adv-x="705" 
d="M73 302h-66q46 112 95 164t112 52q67 0 94 -46t3 -116l-56 -161q-18 -54 -9 -80t40 -26q15 0 28.5 6.5t35 31.5t43.5 68t51.5 123t60.5 190h151l-114 -387q-11 -40 14 -40q15 0 32 25.5t45 101.5h66q-42 -117 -86.5 -167.5t-106.5 -50.5q-51 0 -79.5 32.5t-4.5 111.5
l25 81h-6q-80 -225 -224 -225q-77 0 -109.5 59.5t-0.5 154.5l64 187q6 19 1 27.5t-16 8.5q-14 0 -32 -25t-51 -100z" />
    <glyph glyph-name="v" unicode="v" horiz-adv-x="575" 
d="M468 518q43 0 71 -30.5t28 -91.5q0 -47 -17.5 -103t-50.5 -109t-74.5 -96.5t-94.5 -70.5t-106 -27q-66 0 -101 38t-35 89q0 49 43 163.5t43 128.5q0 18 -16 18t-34.5 -25t-51.5 -99h-66q45 112 95 163.5t114 51.5q50 0 78.5 -27t28.5 -69q0 -40 -41 -142.5t-41 -137.5
q0 -26 14 -40t38 -14q61 0 123 85t85 177q-16 -8 -35 -8q-37 0 -62.5 25t-25.5 64q0 38 25.5 62.5t65.5 24.5z" />
    <glyph glyph-name="w" unicode="w" horiz-adv-x="838" 
d="M730 518q43 0 71 -31t28 -93q0 -47 -16 -101.5t-47 -107.5t-71 -97t-92 -71t-106 -27q-64 0 -93 33.5t-29 81.5q0 18 7 48h-5q-61 -163 -193 -163q-64 0 -96.5 36.5t-32.5 84.5q0 44 29.5 110t59.5 119.5t30 68.5q0 18 -19 18q-9 0 -18 -8t-25.5 -36.5t-39.5 -79.5h-66
q45 111 95.5 163t113.5 52q49 0 77.5 -27t28.5 -67q0 -46 -57 -147.5t-57 -140.5q0 -21 11 -34.5t32 -13.5q30 0 57.5 29t54.5 90.5t50 129t53 171.5h137q-15 -48 -36.5 -116t-30 -95.5t-18.5 -63t-13.5 -53t-3.5 -30.5q0 -30 16.5 -46t42.5 -16q65 0 125.5 84.5t72.5 177.5
q-14 -8 -33 -8q-35 0 -60 26t-25 63t26 62t65 25z" />
    <glyph glyph-name="x" unicode="x" horiz-adv-x="665" 
d="M586 518q48 0 75.5 -27t26.5 -68q-2 -36 -26.5 -60.5t-60.5 -24.5q-35 0 -54.5 23t-17.5 54q2 33 26 54q-61 -27 -100 -116.5t-45 -185.5q-3 -47 5.5 -66.5t33.5 -19.5q23 0 44 25t43 99h67q-38 -124 -87.5 -169.5t-113.5 -45.5t-95.5 51t-17.5 138h-6q-13 -25 -18 -36
t-19.5 -35.5t-24 -36.5t-26.5 -30.5t-33 -27.5t-38 -16t-45 -7q-49 0 -76.5 27t-25.5 68q1 36 26 60t61 24q35 0 54 -22.5t18 -53.5q-2 -32 -26 -55q61 28 100 117t45 185q3 47 -6 67t-33 20q-23 0 -44.5 -25t-43.5 -99h-66q38 124 87.5 169.5t113.5 45.5t95.5 -51
t17.5 -138h6q13 25 18 36t19.5 35.5t24 36.5t26.5 30.5t33 27.5t38 16t45 7z" />
    <glyph glyph-name="y" unicode="y" horiz-adv-x="623" 
d="M513 518q45 0 74 -32.5t29 -94.5q0 -73 -42.5 -174t-106 -191t-147.5 -153t-158 -63q-66 0 -112.5 32.5t-46.5 87.5q0 38 22.5 61.5t56.5 23.5q31 0 50 -19t19 -47q0 -24 -14 -43t-36 -27q29 -12 66 -12q35 0 70 18q20 205 16 325.5t-23 168.5t-55 48q-26 0 -48.5 -26.5
t-45.5 -97.5h-67q31 108 80 161.5t123 53.5q64 0 106.5 -38.5t59.5 -105.5t19 -157.5t-15 -193.5q57 78 98 169.5t50 155.5q-12 -6 -28 -6q-36 0 -61 26t-25 63t25.5 62t66.5 25z" />
    <glyph glyph-name="z" unicode="z" horiz-adv-x="542" 
d="M426 366q-52 -77 -116 -129q-44 -36 -141 -72q90 -81 173 -81h4q-27 25 -24 62q3 30 26 49.5t54 19.5q33 0 56.5 -23.5t23.5 -63.5q0 -55 -43 -96.5t-111 -41.5q-44 0 -84.5 24t-100.5 86q2 -48 -19 -79t-59 -31q-31 0 -45.5 18.5t-13.5 42.5q1 63 92 127l270 194
q-18 6 -52.5 19t-61 21t-50.5 11q18 -18 18 -45q-1 -29 -23.5 -50t-55.5 -21q-35 0 -58.5 24t-23.5 60q0 51 43 89t114 38q99 0 203 -105q19 105 80 105q24 0 37.5 -16.5t13.5 -39.5q0 -33 -30.5 -60t-95.5 -36z" />
    <glyph glyph-name="braceleft" unicode="{" horiz-adv-x="431" 
d="M239 640q19 80 93.5 115t231.5 36l-23 -81q-76 0 -108.5 -17t-46.5 -65l-46 -161q-18 -66 -59 -93.5t-124 -35.5l-1 -1v-1q79 -8 103.5 -35.5t6.5 -93.5l-46 -160q-14 -49 8 -66t99 -17l-24 -81q-156 1 -210 36.5t-27 115.5l66 192q20 60 -57 60h-45l14 50l15 50h45
q77 0 90 60z" />
    <glyph glyph-name="bar" unicode="|" horiz-adv-x="288" 
d="M255 794h87l-260 -910h-88z" />
    <glyph glyph-name="braceright" unicode="}" horiz-adv-x="431" 
d="M403 387h45l-14 -50l-15 -50h-45q-77 0 -90 -60l-45 -193q-19 -80 -93.5 -115t-231.5 -36l23 81q76 0 108.5 17t46.5 65l46 161q18 66 59 93.5t124 35.5l1 1v1q-79 8 -103.5 35.5t-6.5 93.5l46 160q14 49 -8 66t-99 17l24 81q156 -1 210 -36.5t27 -115.5l-66 -192
q-20 -60 57 -60z" />
    <glyph glyph-name="asciitilde" unicode="~" horiz-adv-x="549" 
d="M518 400q-14 -70 -52.5 -113.5t-104.5 -43.5q-36 0 -85.5 28.5t-80.5 28.5q-26 0 -38 -11t-25 -39l-55 19q35 149 155 149q37 0 89.5 -28.5t78.5 -28.5q14 0 24 4t17.5 14t10.5 15t9 19z" />
    <glyph glyph-name="exclamdown" unicode="&#xa1;" horiz-adv-x="311" 
d="M203 336q-40 0 -65.5 25.5t-25.5 65.5t25.5 65.5t65.5 25.5t66 -26t26 -66t-26 -65t-66 -25zM181 246q-12 -287 -29 -346q-12 -43 -46.5 -64.5t-73.5 -10.5q-40 11 -58 47.5t-5 80.5q10 32 60 125t96 168h56z" />
    <glyph glyph-name="cent" unicode="&#xa2;" horiz-adv-x="527" 
d="M367 338q0 25 16 44.5t40 26.5q-20 19 -50 25l-145 -357q12 -4 27 -4q39 0 81 27.5t73 89.5h71q-92 -200 -251 -200q-10 0 -32 2l-30 -76h-62l38 90q-54 22 -85.5 71.5t-31.5 122.5q0 124 87.5 220t212.5 96q16 0 23 -1l40 97h63l-47 -109q51 -17 80 -55t29 -87
q0 -42 -21 -66.5t-55 -24.5q-30 0 -50.5 19t-20.5 49zM320 434q-67 -15 -108 -91t-41 -157q0 -49 18 -78z" />
    <glyph glyph-name="sterling" unicode="&#xa3;" horiz-adv-x="646" 
d="M475 521q0 29 19 47t50 20q-35 35 -94 35q-69 0 -108.5 -43.5t-39.5 -104.5q0 -24 6 -45t19.5 -48.5t16.5 -35.5h200l-22 -78h-168q-9 -51 -64 -116q107 -35 148 -35q61 0 125 71l36 -20q-37 -82 -92.5 -130t-118.5 -48q-32 0 -65.5 15t-52 28t-53.5 41
q-49 -50 -79.5 -67t-65.5 -17q-46 0 -76 28.5t-30 71.5q0 47 36.5 78.5t94.5 31.5q44 0 114 -21q5 15 5 32q0 26 -19 57h-159l22 78h85q-22 41 -22 89q0 106 87 180.5t212 74.5q97 0 157.5 -44.5t60.5 -105.5q0 -38 -24.5 -63t-62.5 -25q-32 0 -55 17.5t-23 51.5zM82 51
q47 0 91 58q-46 30 -77 30q-26 0 -41 -14t-15 -34q0 -17 11.5 -28.5t30.5 -11.5z" />
    <glyph glyph-name="currency" unicode="&#xa4;" horiz-adv-x="681" 
d="M652 577q14 -21 6 -42t-31 -39q-27 -20 -114 -61q17 -31 17 -70q0 -77 -58 -137q54 -29 61 -38q15 -20 9.5 -46t-26.5 -43q-24 -17 -47.5 -14t-37.5 23q-4 5 -7 13.5t-4 15t-3.5 22t-4.5 24.5q-43 -19 -85 -19q-66 0 -112 38q-69 -82 -92 -100q-51 -41 -82 -1
q-13 21 -5.5 42.5t30.5 38.5q21 17 116 62q-16 32 -16 68q0 78 57 137q-53 26 -62 38q-15 20 -9.5 45.5t26.5 42.5q24 18 47.5 15t37.5 -23q4 -5 7 -13.5t4 -15.5t3.5 -22t4.5 -24q42 20 87 20q67 0 110 -37q66 79 92 99q51 41 81 1zM251 321q0 -36 22.5 -59.5t59.5 -23.5
q47 0 80.5 37.5t33.5 83.5q0 36 -23.5 60t-60.5 24q-45 0 -78.5 -37t-33.5 -85z" />
    <glyph glyph-name="yen" unicode="&#xa5;" horiz-adv-x="685" 
d="M541 680h266l-25 -87h-45q-34 0 -65 -32l-197 -217h125l-21 -73h-154l-14 -49h154l-21 -72h-153l-11 -37q-9 -31 22 -31h87l-24 -82h-391l24 82h87q31 0 40 31l10 37h-154l21 72h154l13 48v1h-153l21 73h110l-64 221q-7 28 -43 28h-43l25 87h330l-25 -87h-48
q-16 0 -23.5 -8.5t-3.5 -22.5l51 -185l173 188q12 13 9 20.5t-18 7.5h-51z" />
    <glyph glyph-name="brokenbar" unicode="&#xa6;" horiz-adv-x="288" 
d="M255 794h87l-111 -389h-87zM107 275h87l-112 -391h-88z" />
    <glyph glyph-name="section" unicode="&#xa7;" horiz-adv-x="522" 
d="M289 568q0 -23 23 -43.5t55.5 -38.5t65 -38.5t55.5 -53t23 -74.5q0 -96 -112 -133q8 -21 8 -43q0 -63 -51 -108t-133 -45q-72 0 -128 34.5t-56 91.5q0 33 19.5 55.5t50.5 22.5q26 0 43.5 -16.5t17.5 -41.5q0 -39 -44 -54q32 -32 83 -32q39 0 60.5 16.5t21.5 41.5
q0 24 -23.5 45.5t-57.5 40t-67.5 39.5t-57 55t-23.5 76q0 95 115 132q-5 18 -5 36q0 63 55 110t132 47q67 0 118 -36t51 -92q0 -33 -18.5 -53t-46.5 -20q-24 0 -44 13.5t-20 42.5q0 43 48 55q-30 30 -79 30q-40 0 -59.5 -19t-19.5 -43zM173 400q0 -31 34 -56.5t86.5 -55
t77.5 -56.5q28 23 28 50q0 31 -34 57t-86 55.5t-76 57.5q-30 -23 -30 -52z" />
    <glyph glyph-name="dieresis" unicode="&#xa8;" horiz-adv-x="435" 
d="M215 568q-37 0 -61.5 23.5t-24.5 60.5t24.5 62t61.5 25q38 0 62 -24t24 -62q0 -37 -24 -61t-62 -24zM435 568q-37 0 -61.5 23.5t-24.5 60.5t24.5 62t61.5 25q38 0 62 -24t24 -62q0 -37 -24 -61t-62 -24z" />
    <glyph glyph-name="copyright" unicode="&#xa9;" horiz-adv-x="787" 
d="M418 690q147 0 248 -100.5t101 -248.5q0 -149 -101 -250t-248 -101t-247.5 101t-100.5 250q0 147 101 248t247 101zM418 43q124 0 208 86.5t84 211.5q0 124 -84.5 210t-207.5 86q-121 0 -205.5 -86t-84.5 -210q0 -125 84 -211.5t206 -86.5zM488 403q0 31 26 47
q-23 35 -71 35q-109 0 -109 -140q0 -72 28.5 -108.5t80.5 -36.5q80 0 111 103l48 -17q-15 -72 -61 -108.5t-116 -36.5q-91 0 -147.5 55t-56.5 140q0 86 58 141.5t151 55.5q75 0 125 -37.5t50 -85.5q0 -28 -17 -44.5t-42 -16.5q-24 0 -41 15.5t-17 38.5z" />
    <glyph glyph-name="ordfeminine" unicode="&#xaa;" horiz-adv-x="577" 
d="M199 272q-52 0 -80 33t-28 97q0 63 24.5 127.5t74.5 112t111 47.5q89 0 91 -103h4l28 95l126 -1l-87 -303q-9 -31 10 -31q23 0 68 102h57q-41 -96 -77 -136t-88 -40q-51 0 -69.5 30t-11.5 77l3 19h-3q-62 -126 -153 -126zM260 346q40 0 75 77.5t35 137.5q0 57 -37 57
q-30 0 -57 -37.5t-41 -85.5t-14 -85q0 -29 10.5 -46.5t28.5 -17.5zM30 132l22 78h460l-22 -78h-460z" />
    <glyph glyph-name="guillemotleft" unicode="&#xab;" horiz-adv-x="521" 
d="M228 95l-47 -33l-149 162l20 70l242 162l28 -40l-184 -163zM433 95l-47 -33l-149 162l20 70l242 162l28 -40l-184 -163z" />
    <glyph glyph-name="registered" unicode="&#xae;" horiz-adv-x="551" 
d="M333 690q100 0 168 -68t68 -168q0 -101 -68 -169.5t-168 -68.5q-99 0 -167 68.5t-68 169.5q0 100 68 168t167 68zM333 255q82 0 138.5 57.5t56.5 141.5q0 83 -56.5 140t-138.5 57q-81 0 -137.5 -57.5t-56.5 -139.5q0 -84 56.5 -141.5t137.5 -57.5zM457 368h15v-30h-98
l-17 65q-6 23 -36 23h-12v-44q0 -11 12 -11h23v-33h-131v33h21q10 0 10 11v157q0 11 -10 11h-21v33h134q43 0 71.5 -22t28.5 -55q0 -25 -16.5 -45t-43.5 -29q28 -9 37 -30l11 -23q6 -11 22 -11zM309 459h23q20 0 33 13t13 34q0 19 -13 31.5t-33 12.5h-23v-91z" />
    <glyph glyph-name="macron" unicode="&#xaf;" horiz-adv-x="433" 
d="M180 684h319l-28 -98h-320z" />
    <glyph glyph-name="degree" unicode="&#xb0;" horiz-adv-x="420" 
d="M277 346q-73 0 -120.5 45t-47.5 113q0 78 53.5 132t131.5 54q72 0 119.5 -45t47.5 -112q0 -79 -53 -133t-131 -54zM278 418q40 0 67.5 33.5t27.5 83.5q0 36 -22.5 59.5t-57.5 23.5q-41 0 -69 -33t-28 -84q0 -35 23.5 -59t58.5 -24z" />
    <glyph glyph-name="plusminus" unicode="&#xb1;" horiz-adv-x="567" 
d="M260 335h-171l24 82h171l39 140h95l-39 -140h170l-24 -82h-170l-40 -139h-95zM7 50l25 86h436l-25 -86h-436z" />
    <glyph glyph-name="uni00B2" unicode="&#xb2;" horiz-adv-x="421" 
d="M277 347q30 3 49.5 16t24.5 23t11 27h64l-44 -154h-327l13 45q11 9 50 39t68.5 54.5t63 56.5t52.5 62t19 55q0 23 -17.5 40t-52.5 17q-22 0 -41 -8q18 -8 28.5 -25.5t10.5 -35.5q0 -25 -18.5 -42.5t-45.5 -17.5q-26 0 -44 18t-18 46q0 50 49 87.5t116 37.5t108.5 -33.5
t41.5 -86.5q0 -62 -60.5 -115t-182.5 -115z" />
    <glyph glyph-name="uni00B3" unicode="&#xb3;" horiz-adv-x="384" 
d="M427 580q0 -46 -36.5 -73t-97.5 -34q46 -8 68.5 -34.5t22.5 -61.5q0 -56 -50.5 -90t-118.5 -34q-63 0 -109.5 29.5t-46.5 79.5q0 32 18.5 52t46.5 20q25 0 41 -15.5t16 -39.5q0 -22 -13 -37t-36 -20q22 -13 48 -13q35 0 58.5 23t23.5 55q0 24 -14.5 40.5t-46.5 16.5h-17
l17 61h31q32 0 54.5 21.5t22.5 50.5q0 25 -16.5 40t-46.5 15q-11 0 -31 -4q23 -18 23 -44q0 -24 -17 -40.5t-42 -16.5q-26 0 -42 17t-16 45q0 47 47 74t110 27q64 0 106.5 -30t42.5 -80z" />
    <glyph glyph-name="acute" unicode="&#xb4;" horiz-adv-x="277" 
d="M140 579q47 87 68.5 122.5t41.5 52.5q25 22 53.5 21t50.5 -25q23 -26 20.5 -54t-26.5 -49q-26 -23 -134 -61q-14 -4 -21 -7h-53z" />
    <glyph glyph-name="paragraph" unicode="&#xb6;" horiz-adv-x="712" 
d="M447 680h362l-23 -80h-81q-31 0 -40 -31l-163 -568q-27 -93 -97.5 -142t-208.5 -49q-107 0 -159.5 35.5t-52.5 90.5q0 45 30 76t71 31q37 0 60 -25.5t23 -61.5t-24 -58t-62 -28q22 -7 49 -7q45 0 66.5 30.5t44.5 107.5l75 263q-98 1 -155.5 44.5t-57.5 119.5
q0 106 89.5 179t253.5 73zM412 1l171 599h-81l-171 -599q-24 -85 -66 -133q56 8 92 38.5t55 94.5z" />
    <glyph glyph-name="periodcentered" unicode="&#xb7;" horiz-adv-x="341" 
d="M194 422q40 0 65.5 -25.5t25.5 -65.5t-25.5 -65.5t-65.5 -25.5t-66 26t-26 66t26 65t66 25z" />
    <glyph glyph-name="cedilla" unicode="&#xb8;" horiz-adv-x="276" 
d="M53 -55q46 0 74 -19.5t28 -54.5q0 -46 -40.5 -77t-99.5 -31q-49 0 -98 28l26 47q34 -22 70 -22q23 0 38 10.5t15 29.5q0 21 -23.5 29.5t-63.5 1.5l-9 30l64 88h57z" />
    <glyph glyph-name="uni00B9" unicode="&#xb9;" horiz-adv-x="351" 
d="M271 342q-7 -22 16 -22h68l-20 -69h-303l20 69h62q22 0 29 22l61 211q-35 -6 -85 -6l17 58q66 4 88.5 17.5t42.5 57.5h100z" />
    <glyph glyph-name="ordmasculine" unicode="&#xba;" horiz-adv-x="493" 
d="M281 273q-84 0 -136.5 47.5t-52.5 128.5q0 97 71.5 168.5t173.5 71.5q85 0 138.5 -51t53.5 -132q0 -97 -72.5 -165t-175.5 -68zM273 333q53 0 92 71t39 143q0 82 -58 82q-39 0 -70.5 -42.5t-45.5 -92.5t-14 -88q0 -35 15 -54t42 -19zM22 132l22 78h372l-22 -78h-372z" />
    <glyph glyph-name="guillemotright" unicode="&#xbb;" horiz-adv-x="521" 
d="M91 423l47 33l149 -162l-20 -70l-242 -162l-28 40l184 163zM296 423l47 33l149 -162l-20 -70l-242 -162l-28 40l184 163z" />
    <glyph glyph-name="onequarter" unicode="&#xbc;" horiz-adv-x="919" 
d="M903 655q0 -36 -125.5 -134t-228.5 -163l-12 13q77 99 184 211t144 112q15 0 26.5 -12t11.5 -27zM342 320l-20 -69h-303l20 69h62q22 0 29 22l61 211q-35 -6 -85 -6l17 58q66 4 88.5 17.5t42.5 57.5h100l-96 -338q-7 -22 16 -22h68zM854 311l-40 -143h61l-19 -63h-60
l-6 -20q-7 -22 16 -22h30l-19 -63h-232l18 63h55q22 0 29 22l6 20h-184l19 63q16 15 29.5 28.5t24.5 26.5t19 22t15.5 21.5t11.5 18t10 18t7.5 16l7.5 17.5t7 17q36 76 84 76q19 0 30 -13t11 -35q0 -33 -20 -67t-52.5 -62t-62 -48t-59.5 -36h119l20 70q59 34 84 73h40z
M129 24q0 36 123 133t232 167l11 -13q-58 -83 -174.5 -204.5t-152.5 -121.5q-15 0 -27 11.5t-12 27.5z" />
    <glyph glyph-name="onehalf" unicode="&#xbd;" horiz-adv-x="991" 
d="M905 655q0 -36 -125.5 -134t-228.5 -163l-12 13q77 99 184 211t144 112q15 0 26.5 -12t11.5 -27zM342 320l-20 -69h-303l20 69h62q22 0 29 22l61 211q-35 -6 -85 -6l17 58q66 4 88.5 17.5t42.5 57.5h100l-96 -338q-7 -22 16 -22h68zM793 88q30 3 49.5 16t24.5 23t11 27
h64l-44 -154h-327l13 45q11 9 50 39t68.5 54.5t63 56.5t52.5 62t19 55q0 23 -17.5 40t-52.5 17q-22 0 -41 -8q18 -8 28.5 -25.5t10.5 -35.5q0 -25 -18.5 -42.5t-45.5 -17.5q-26 0 -44 18t-18 46q0 50 49 87.5t116 37.5t108.5 -33.5t41.5 -86.5q0 -62 -60.5 -115t-182.5 -115
zM131 24q0 36 123 133t232 167l11 -13q-58 -83 -174.5 -204.5t-152.5 -121.5q-15 0 -27 11.5t-12 27.5z" />
    <glyph glyph-name="threequarters" unicode="&#xbe;" horiz-adv-x="909" 
d="M891 655q0 -36 -125.5 -134t-228.5 -163l-12 13q77 99 184 211t144 112q15 0 26.5 -12t11.5 -27zM382 377q0 -56 -50.5 -90t-118.5 -34q-63 0 -109.5 29.5t-46.5 79.5q0 32 18.5 52t46.5 20q25 0 41 -15.5t16 -39.5q0 -22 -13 -37t-36 -20q22 -13 48 -13q35 0 58.5 23
t23.5 55q0 24 -14.5 40.5t-46.5 16.5h-17l17 61h31q32 0 54.5 21.5t22.5 50.5q0 25 -16.5 40t-46.5 15q-11 0 -31 -4q23 -18 23 -44q0 -24 -17 -40.5t-42 -16.5q-26 0 -42 17t-16 45q0 47 47 74t110 27q64 0 106.5 -30t42.5 -80q0 -46 -36.5 -73t-97.5 -34q46 -8 68.5 -34.5
t22.5 -61.5zM844 311l-40 -143h61l-19 -63h-60l-6 -20q-7 -22 16 -22h30l-19 -63h-232l18 63h55q22 0 29 22l6 20h-184l19 63q16 15 29.5 28.5t24.5 26.5t19 22t15.5 21.5t11.5 18t10 18t7.5 16l7.5 17.5t7 17q36 76 84 76q19 0 30 -13t11 -35q0 -33 -20 -67t-52.5 -62
t-62 -48t-59.5 -36h119l20 70q59 34 84 73h40zM117 24q0 36 123 133t232 167l11 -13q-58 -83 -174.5 -204.5t-152.5 -121.5q-15 0 -27 11.5t-12 27.5z" />
    <glyph glyph-name="questiondown" unicode="&#xbf;" horiz-adv-x="554" 
d="M327 336q-40 0 -65 25.5t-25 65.5t25 65.5t65 25.5t66.5 -26t26.5 -66q0 -39 -26.5 -64.5t-66.5 -25.5zM358 82q38 0 62 -25.5t24 -66.5q0 -72 -70 -120.5t-172 -48.5q-99 0 -169 45t-70 133q0 186 344 264l23 -44q-201 -112 -201 -232q0 -48 29.5 -70t77.5 -22t78 25
q-48 18 -48 69q0 39 26.5 66t65.5 27z" />
    <glyph glyph-name="Agrave" unicode="&#xc0;" horiz-adv-x="762" 
d="M496 750q-67 61 -82 83q-19 28 -19 56q0 32 22.5 51.5t52.5 19.5q50 0 68 -56q13 -38 13 -154h-55zM679 88h31l-25 -88h-347l25 88h69q14 0 22.5 8.5t7.5 21.5l-7 64h-257l-43 -63q-9 -13 -6 -22t18 -9h54l-25 -88h-265l25 88h38q34 0 58 34l393 558h113l81 -562
q5 -30 40 -30zM250 257h196l-29 245z" />
    <glyph glyph-name="Aacute" unicode="&#xc1;" horiz-adv-x="762" 
d="M691 819q-26 -23 -134 -61q-14 -4 -21 -7h-53q47 87 68.5 122.5t41.5 52.5q25 22 53.5 21t50.5 -25q23 -26 20.5 -54t-26.5 -49zM639 118q5 -30 40 -30h31l-25 -88h-347l25 88h69q14 0 22.5 8.5t7.5 21.5l-7 64h-257l-43 -63q-9 -13 -6 -22t18 -9h54l-25 -88h-265l25 88
h38q34 0 58 34l393 558h113zM250 257h196l-29 245z" />
    <glyph glyph-name="Acircumflex" unicode="&#xc2;" horiz-adv-x="762" 
d="M549 822l-95 -66h-91l170 161q28 27 46 27q17 0 32 -27l87 -162h-90zM679 88h31l-25 -88h-347l25 88h69q14 0 22.5 8.5t7.5 21.5l-7 64h-257l-43 -63q-9 -13 -6 -22t18 -9h54l-25 -88h-265l25 88h38q34 0 58 34l393 558h113l81 -562q5 -30 40 -30zM250 257h196l-29 245z
" />
    <glyph glyph-name="Atilde" unicode="&#xc3;" horiz-adv-x="762" 
d="M448 805q-17 0 -28.5 -7.5t-16.5 -15.5t-13 -27l-56 18q14 67 50.5 109t98.5 42q35 0 84 -28.5t73 -28.5q7 0 13 1.5t10 3t8.5 6t7 6.5t6 8.5t4.5 7.5t5 9l3 8l58 -12q-13 -69 -50.5 -113t-101.5 -44q-33 0 -80 28.5t-75 28.5zM639 118q5 -30 40 -30h31l-25 -88h-347
l25 88h69q14 0 22.5 8.5t7.5 21.5l-7 64h-257l-43 -63q-9 -13 -6 -22t18 -9h54l-25 -88h-265l25 88h38q34 0 58 34l393 558h113zM250 257h196l-29 245z" />
    <glyph glyph-name="Adieresis" unicode="&#xc4;" horiz-adv-x="762" 
d="M423 740q-37 0 -61.5 23.5t-24.5 60.5t24.5 62t61.5 25q38 0 62 -24t24 -62q0 -37 -24 -61t-62 -24zM643 740q-37 0 -61.5 23.5t-24.5 60.5t24.5 62t61.5 25q38 0 62 -24t24 -62q0 -37 -24 -61t-62 -24zM639 118q5 -30 40 -30h31l-25 -88h-347l25 88h69q14 0 22.5 8.5
t7.5 21.5l-7 64h-257l-43 -63q-9 -13 -6 -22t18 -9h54l-25 -88h-265l25 88h38q34 0 58 34l393 558h113zM250 257h196l-29 245z" />
    <glyph glyph-name="Aring" unicode="&#xc5;" horiz-adv-x="762" 
d="M540 727q-52 0 -84.5 28.5t-32.5 71.5q0 53 41 88.5t98 35.5q52 0 85.5 -28.5t33.5 -70.5q0 -52 -41.5 -88.5t-99.5 -36.5zM559 894q-24 0 -42 -18.5t-18 -44.5q0 -21 13 -33t33 -12q24 0 41.5 18.5t17.5 43.5q0 20 -12 33t-33 13zM679 88h31l-25 -88h-347l25 88h69
q14 0 22.5 8.5t7.5 21.5l-7 64h-257l-43 -63q-9 -13 -6 -22t18 -9h54l-25 -88h-265l25 88h38q34 0 58 34l393 558h113l81 -562q5 -30 40 -30zM250 257h196l-29 245z" />
    <glyph glyph-name="AE" unicode="&#xc6;" horiz-adv-x="1048" 
d="M1045 463h-95q13 70 8 90q-8 40 -68 40h-134l-72 -249h58q10 0 18 2.5t15 9t11.5 11t11 16.5t8.5 16.5t8.5 20.5t8.5 19h71l-80 -278h-71q1 5 2.5 15t2.5 15.5t2 14.5t0.5 14t-1 11.5t-3 10t-6.5 7.5t-9.5 5.5t-13.5 1.5h-58l-48 -168h149q32 0 55.5 9.5t40 31t25.5 39
t22 50.5h95l-62 -218h-612l26 88h62q31 0 40 31l18 63h-213l-56 -63q-11 -13 -7 -22t19 -9h59l-25 -88h-316l25 88h61q28 0 58 34l399 442q26 29 -13 29h-49l25 87h671zM492 257l81 282l-250 -282h169z" />
    <glyph glyph-name="Ccedilla" unicode="&#xc7;" horiz-adv-x="712" 
d="M532 466q0 32 20 56t51 33q-35 53 -112 53q-61 0 -112 -35.5t-81 -90t-46.5 -114t-16.5 -113.5q0 -81 37 -127.5t105 -46.5q64 0 113 41.5t97 123.5h86q-68 -138 -149 -197t-182 -59q-14 0 -21 1l-29 -46q46 0 74 -19.5t28 -54.5q0 -46 -40.5 -77t-99.5 -31q-49 0 -98 28
l26 47q34 -22 70 -22q23 0 38 10.5t15 29.5q0 21 -23.5 29.5t-63.5 1.5l-9 30l59 81q-95 21 -151.5 92t-56.5 180q0 107 54 203.5t148.5 156.5t203.5 60q108 0 185 -55.5t77 -142.5q0 -52 -28.5 -82t-73.5 -30q-41 0 -67.5 24.5t-26.5 61.5z" />
    <glyph glyph-name="Egrave" unicode="&#xc8;" horiz-adv-x="676" 
d="M503 750h-55q-67 61 -82 83q-19 28 -19 56q0 32 22.5 51.5t52.5 19.5q50 0 68 -56q13 -38 13 -154zM532 218h95l-63 -218h-609l25 88h61q31 0 40 31l126 443q9 31 -22 31h-60l25 87h602l-63 -217h-95q13 70 8 90q-8 40 -68 40h-150l-71 -249h57q10 0 18 2.5t15 9t11.5 11
t11 16.5t8.5 16.5t8.5 20.5t8.5 19h71l-79 -278h-71q1 5 3 19t2.5 20t1 17t-1.5 16.5t-5.5 11.5t-10 8.5t-16.5 2.5h-58l-48 -168h150q32 0 55.5 9.5t40 31.5t25 38.5t22.5 50.5z" />
    <glyph glyph-name="Eacute" unicode="&#xc9;" horiz-adv-x="676" 
d="M435 751q47 87 68.5 122.5t41.5 52.5q25 22 53.5 21t50.5 -25q23 -26 20.5 -54t-26.5 -49q-26 -23 -134 -61q-14 -4 -21 -7h-53zM532 218h95l-63 -218h-609l25 88h61q31 0 40 31l126 443q9 31 -22 31h-60l25 87h602l-63 -217h-95q13 70 8 90q-8 40 -68 40h-150l-71 -249
h57q10 0 18 2.5t15 9t11.5 11t11 16.5t8.5 16.5t8.5 20.5t8.5 19h71l-79 -278h-71q1 5 3 19t2.5 20t1 17t-1.5 16.5t-5.5 11.5t-10 8.5t-16.5 2.5h-58l-48 -168h150q32 0 55.5 9.5t40 31.5t25 38.5t22.5 50.5z" />
    <glyph glyph-name="Ecircumflex" unicode="&#xca;" horiz-adv-x="676" 
d="M406 756h-91l170 161q28 27 46 27q17 0 32 -27l87 -162h-90l-59 67zM532 218h95l-63 -218h-609l25 88h61q31 0 40 31l126 443q9 31 -22 31h-60l25 87h602l-63 -217h-95q13 70 8 90q-8 40 -68 40h-150l-71 -249h57q10 0 18 2.5t15 9t11.5 11t11 16.5t8.5 16.5t8.5 20.5
t8.5 19h71l-79 -278h-71q1 5 3 19t2.5 20t1 17t-1.5 16.5t-5.5 11.5t-10 8.5t-16.5 2.5h-58l-48 -168h150q32 0 55.5 9.5t40 31.5t25 38.5t22.5 50.5z" />
    <glyph glyph-name="Edieresis" unicode="&#xcb;" horiz-adv-x="676" 
d="M375 740q-37 0 -61.5 23.5t-24.5 60.5t24.5 62t61.5 25q38 0 62 -24t24 -62q0 -37 -24 -61t-62 -24zM595 740q-37 0 -61.5 23.5t-24.5 60.5t24.5 62t61.5 25q38 0 62 -24t24 -62q0 -37 -24 -61t-62 -24zM532 218h95l-63 -218h-609l25 88h61q31 0 40 31l126 443
q9 31 -22 31h-60l25 87h602l-63 -217h-95q13 70 8 90q-8 40 -68 40h-150l-71 -249h57q10 0 18 2.5t15 9t11.5 11t11 16.5t8.5 16.5t8.5 20.5t8.5 19h71l-79 -278h-71q1 5 3 19t2.5 20t1 17t-1.5 16.5t-5.5 11.5t-10 8.5t-16.5 2.5h-58l-48 -168h150q32 0 55.5 9.5t40 31.5
t25 38.5t22.5 50.5z" />
    <glyph glyph-name="Igrave" unicode="&#xcc;" horiz-adv-x="419" 
d="M379 750h-55q-67 61 -82 83q-19 28 -19 56q0 32 22.5 51.5t52.5 19.5q50 0 68 -56q13 -38 13 -154zM421 593q-31 0 -39 -31l-127 -443q-9 -31 22 -31h64l-25 -88h-359l26 88h64q31 0 40 31l127 443q9 31 -22 31h-65l26 87h358l-25 -87h-65z" />
    <glyph glyph-name="Iacute" unicode="&#xcd;" horiz-adv-x="419" 
d="M311 751q47 87 68.5 122.5t41.5 52.5q25 22 53.5 21t50.5 -25q23 -26 20.5 -54t-26.5 -49q-26 -23 -134 -61q-14 -4 -21 -7h-53zM421 593q-31 0 -39 -31l-127 -443q-9 -31 22 -31h64l-25 -88h-359l26 88h64q31 0 40 31l127 443q9 31 -22 31h-65l26 87h358l-25 -87h-65z
" />
    <glyph glyph-name="Icircumflex" unicode="&#xce;" horiz-adv-x="419" 
d="M282 756h-91l170 161q28 27 46 27q17 0 32 -27l87 -162h-90l-59 67zM421 593q-31 0 -39 -31l-127 -443q-9 -31 22 -31h64l-25 -88h-359l26 88h64q31 0 40 31l127 443q9 31 -22 31h-65l26 87h358l-25 -87h-65z" />
    <glyph glyph-name="Idieresis" unicode="&#xcf;" horiz-adv-x="419" 
d="M251 740q-37 0 -61.5 23.5t-24.5 60.5t24.5 62t61.5 25q38 0 62 -24t24 -62q0 -37 -24 -61t-62 -24zM471 740q-37 0 -61.5 23.5t-24.5 60.5t24.5 62t61.5 25q38 0 62 -24t24 -62q0 -37 -24 -61t-62 -24zM421 593q-31 0 -39 -31l-127 -443q-9 -31 22 -31h64l-25 -88h-359
l26 88h64q31 0 40 31l127 443q9 31 -22 31h-65l26 87h358l-25 -87h-65z" />
    <glyph glyph-name="Eth" unicode="&#xd0;" horiz-adv-x="771" 
d="M454 680q139 0 224.5 -72.5t85.5 -197.5q0 -170 -137.5 -290t-341.5 -120h-328l24 88h61q31 0 39 27l49 170h-94l28 95h93l51 179q5 16 -1 25t-20 9h-62l25 87h304zM312 88q116 0 197.5 100t81.5 229q0 84 -43 130t-116 46h-47l-61 -213h112l-27 -95h-112l-57 -197h72z
" />
    <glyph glyph-name="Ntilde" unicode="&#xd1;" horiz-adv-x="781" 
d="M744 905q-13 -69 -50.5 -113t-101.5 -44q-33 0 -80 28.5t-75 28.5q-17 0 -28.5 -7.5t-16.5 -15.5t-13 -27l-56 18q14 67 50.5 109t98.5 42q35 0 84 -28.5t73 -28.5q7 0 13 1.5t10 3t8.5 6t7 6.5t6 8.5t4.5 7.5t4 9l4 8zM886 680l-26 -87h-60q-31 0 -40 -31l-161 -562h-70
l-253 460l-98 -341q-9 -31 22 -31h75l-25 -88h-295l25 88h61q31 0 40 31l126 443q9 31 -22 31h-60l25 87h217l217 -395l79 277q9 31 -22 31h-71l25 87h291z" />
    <glyph glyph-name="Ograve" unicode="&#xd2;" horiz-adv-x="736" 
d="M535 750h-55q-67 61 -82 83q-19 28 -19 56q0 32 22.5 51.5t52.5 19.5q50 0 68 -56q13 -38 13 -154zM339 -10q-128 0 -203.5 76.5t-74.5 204.5q1 100 45.5 194.5t135.5 159.5t207 65q128 0 204 -76t75 -204q-1 -75 -28.5 -149t-76 -134.5t-123 -98.5t-161.5 -38zM338 71
q52 0 97 44t72 108t42 129.5t14 113.5q-1 65 -32 104t-84 39q-54 0 -99.5 -43t-72 -106t-41 -126.5t-13.5 -111.5q1 -69 32.5 -110t84.5 -41z" />
    <glyph glyph-name="Oacute" unicode="&#xd3;" horiz-adv-x="736" 
d="M467 751q47 87 68.5 122.5t41.5 52.5q25 22 53.5 21t50.5 -25q23 -26 20.5 -54t-26.5 -49q-26 -23 -134 -61q-14 -4 -21 -7h-53zM339 -10q-128 0 -203.5 76.5t-74.5 204.5q1 100 45.5 194.5t135.5 159.5t207 65q128 0 204 -76t75 -204q-1 -75 -28.5 -149t-76 -134.5
t-123 -98.5t-161.5 -38zM338 71q52 0 97 44t72 108t42 129.5t14 113.5q-1 65 -32 104t-84 39q-54 0 -99.5 -43t-72 -106t-41 -126.5t-13.5 -111.5q1 -69 32.5 -110t84.5 -41z" />
    <glyph glyph-name="Ocircumflex" unicode="&#xd4;" horiz-adv-x="736" 
d="M438 756h-91l170 161q28 27 46 27q17 0 32 -27l87 -162h-90l-59 67zM339 -10q-128 0 -203.5 76.5t-74.5 204.5q1 100 45.5 194.5t135.5 159.5t207 65q128 0 204 -76t75 -204q-1 -75 -28.5 -149t-76 -134.5t-123 -98.5t-161.5 -38zM338 71q52 0 97 44t72 108t42 129.5
t14 113.5q-1 65 -32 104t-84 39q-54 0 -99.5 -43t-72 -106t-41 -126.5t-13.5 -111.5q1 -69 32.5 -110t84.5 -41z" />
    <glyph glyph-name="Otilde" unicode="&#xd5;" horiz-adv-x="736" 
d="M739 905q-13 -69 -50.5 -113t-101.5 -44q-33 0 -80 28.5t-75 28.5q-17 0 -28.5 -7.5t-16.5 -15.5t-13 -27l-56 18q14 67 50.5 109t98.5 42q35 0 84 -28.5t73 -28.5q7 0 13 1.5t10 3t8.5 6t7 6.5t6 8.5t4.5 7.5t5 9l3 8zM339 -10q-128 0 -203.5 76.5t-74.5 204.5
q1 100 45.5 194.5t135.5 159.5t207 65q128 0 204 -76t75 -204q-1 -75 -28.5 -149t-76 -134.5t-123 -98.5t-161.5 -38zM338 71q52 0 97 44t72 108t42 129.5t14 113.5q-1 65 -32 104t-84 39q-54 0 -99.5 -43t-72 -106t-41 -126.5t-13.5 -111.5q1 -69 32.5 -110t84.5 -41z" />
    <glyph glyph-name="Odieresis" unicode="&#xd6;" horiz-adv-x="736" 
d="M407 740q-37 0 -61.5 23.5t-24.5 60.5t24.5 62t61.5 25q38 0 62 -24t24 -62q0 -37 -24 -61t-62 -24zM627 740q-37 0 -61.5 23.5t-24.5 60.5t24.5 62t61.5 25q38 0 62 -24t24 -62q0 -37 -24 -61t-62 -24zM339 -10q-128 0 -203.5 76.5t-74.5 204.5q1 100 45.5 194.5
t135.5 159.5t207 65q128 0 204 -76t75 -204q-1 -75 -28.5 -149t-76 -134.5t-123 -98.5t-161.5 -38zM338 71q52 0 97 44t72 108t42 129.5t14 113.5q-1 65 -32 104t-84 39q-54 0 -99.5 -43t-72 -106t-41 -126.5t-13.5 -111.5q1 -69 32.5 -110t84.5 -41z" />
    <glyph glyph-name="multiply" unicode="&#xd7;" horiz-adv-x="572" 
d="M533 431l-180 -140l95 -133l-68 -53l-95 133l-177 -138l-41 61l175 137l-100 140l68 54l100 -141l180 141z" />
    <glyph glyph-name="Oslash" unicode="&#xd8;" horiz-adv-x="736" 
d="M807 680l-120 -110q41 -67 41 -160q-1 -75 -28.5 -149t-76 -134.5t-123 -98.5t-161.5 -38q-125 0 -201 73l-68 -63h-89l120 111q-42 66 -40 160q1 100 45.5 194.5t135.5 159.5t207 65q125 0 201 -73l68 63h89zM221 222v-1l332 307q-12 38 -39.5 59.5t-66.5 21.5
q-54 0 -99.5 -43t-72 -106t-41 -126.5t-13.5 -111.5zM338 71q41 0 78 27.5t62.5 71t45 95.5t29 101t10.5 89l-330 -305q28 -79 105 -79z" />
    <glyph glyph-name="Ugrave" unicode="&#xd9;" horiz-adv-x="734" 
d="M578 750h-55q-67 61 -82 83q-19 28 -19 56q0 32 22.5 51.5t52.5 19.5q50 0 68 -56q13 -38 13 -154zM337 -10q-126 0 -198 79t-33 213l82 280q9 31 -22 31h-58l26 87h359l-25 -87h-64q-31 0 -40 -31l-92 -315q-22 -77 6.5 -124t95.5 -47q57 0 97 35.5t59 102.5l99 348
q8 31 -23 31h-60l26 87h273l-26 -87h-57q-31 0 -40 -31l-104 -368q-26 -93 -102 -148.5t-179 -55.5z" />
    <glyph glyph-name="Uacute" unicode="&#xda;" horiz-adv-x="734" 
d="M510 751q47 87 68.5 122.5t41.5 52.5q25 22 53.5 21t50.5 -25q23 -26 20.5 -54t-26.5 -49q-26 -23 -134 -61q-14 -4 -21 -7h-53zM337 -10q-126 0 -198 79t-33 213l82 280q9 31 -22 31h-58l26 87h359l-25 -87h-64q-31 0 -40 -31l-92 -315q-22 -77 6.5 -124t95.5 -47
q57 0 97 35.5t59 102.5l99 348q8 31 -23 31h-60l26 87h273l-26 -87h-57q-31 0 -40 -31l-104 -368q-26 -93 -102 -148.5t-179 -55.5z" />
    <glyph glyph-name="Ucircumflex" unicode="&#xdb;" horiz-adv-x="734" 
d="M481 756h-91l170 161q28 27 46 27q17 0 32 -27l87 -162h-90l-59 67zM337 -10q-126 0 -198 79t-33 213l82 280q9 31 -22 31h-58l26 87h359l-25 -87h-64q-31 0 -40 -31l-92 -315q-22 -77 6.5 -124t95.5 -47q57 0 97 35.5t59 102.5l99 348q8 31 -23 31h-60l26 87h273
l-26 -87h-57q-31 0 -40 -31l-104 -368q-26 -93 -102 -148.5t-179 -55.5z" />
    <glyph glyph-name="Udieresis" unicode="&#xdc;" horiz-adv-x="734" 
d="M450 740q-37 0 -61.5 23.5t-24.5 60.5t24.5 62t61.5 25q38 0 62 -24t24 -62q0 -37 -24 -61t-62 -24zM670 740q-37 0 -61.5 23.5t-24.5 60.5t24.5 62t61.5 25q38 0 62 -24t24 -62q0 -37 -24 -61t-62 -24zM337 -10q-126 0 -198 79t-33 213l82 280q9 31 -22 31h-58l26 87
h359l-25 -87h-64q-31 0 -40 -31l-92 -315q-22 -77 6.5 -124t95.5 -47q57 0 97 35.5t59 102.5l99 348q8 31 -23 31h-60l26 87h273l-26 -87h-57q-31 0 -40 -31l-104 -368q-26 -93 -102 -148.5t-179 -55.5z" />
    <glyph glyph-name="Yacute" unicode="&#xdd;" horiz-adv-x="688" 
d="M479 751q47 87 68.5 122.5t41.5 52.5q25 22 53.5 21t50.5 -25q23 -26 20.5 -54t-26.5 -49q-26 -23 -134 -61q-14 -4 -21 -7h-53zM535 680h275l-25 -87h-42q-36 0 -65 -32l-237 -265l-50 -177q-9 -31 22 -31h79l-26 -88h-387l25 88h79q31 0 40 31l40 139l-82 307
q-7 28 -43 28h-41l25 87h331l-25 -87h-45q-16 0 -23 -8.5t-4 -22.5l47 -195l171 198q12 13 9.5 20.5t-18.5 7.5h-55z" />
    <glyph glyph-name="Thorn" unicode="&#xde;" horiz-adv-x="704" 
d="M458 545q113 0 176 -47.5t63 -130.5q0 -105 -94.5 -161.5t-235.5 -56.5h-110l-9 -30q-9 -31 22 -31h78l-25 -88h-368l25 88h61q31 0 40 31l127 443q8 31 -23 31h-60l25 87h368l-26 -87h-77q-31 0 -40 -31l-5 -17h88zM360 225q72 0 118 42.5t46 99.5q0 42 -27 66t-77 24
h-75l-67 -232h82z" />
    <glyph glyph-name="germandbls" unicode="&#xdf;" horiz-adv-x="702" 
d="M496 354q0 -18 25.5 -37.5t56.5 -36.5t56.5 -51t25.5 -78q0 -71 -60 -116t-147 -45q-74 0 -126.5 33.5t-52.5 90.5q0 37 21 61.5t54 24.5q28 0 47 -18t19 -45q0 -25 -17 -42t-46 -21q20 -23 58 -23q37 0 61 20t24 50q0 28 -25.5 59t-51 64.5t-25.5 66.5q0 27 16.5 53.5
t40.5 48.5t47.5 45t40 53t16.5 62q0 37 -21.5 59t-57.5 22q-40 0 -70.5 -29.5t-46.5 -84.5l-157 -554q-25 -87 -85.5 -131.5t-137.5 -44.5q-61 0 -95.5 27t-34.5 72q0 34 19.5 55t51.5 21q28 0 47.5 -17t19.5 -45q0 -24 -14.5 -41t-38.5 -22h7q41 0 66 29.5t44 96.5l123 434
h-113l25 88h82q26 0 39 28q18 41 37 70.5t50 59t77 44.5t106 15q101 0 161.5 -42.5t60.5 -113.5q0 -41 -21 -72.5t-50.5 -49.5t-59 -32.5t-50.5 -29t-21 -31.5z" />
    <glyph glyph-name="agrave" unicode="&#xe0;" horiz-adv-x="650" 
d="M396 578h-55q-67 61 -82 83q-19 28 -19 56q0 32 22.5 51.5t52.5 19.5q50 0 68 -56q13 -38 13 -154zM155 -10q-67 0 -103.5 42t-36.5 123q0 78 31.5 160.5t95 142.5t140.5 60q115 0 117 -132h6l34 122h150l-113 -391q-10 -36 14 -36q32 0 86 124h67q-47 -115 -92 -165
t-108 -50q-60 0 -83.5 37t-12.5 95l4 21h-5q-76 -153 -191 -153zM224 77q38 0 73.5 50.5t54.5 114.5t19 114q0 79 -52 79q-39 0 -74.5 -49.5t-55 -112t-19.5 -109.5q0 -41 14 -64t40 -23z" />
    <glyph glyph-name="aacute" unicode="&#xe1;" horiz-adv-x="650" 
d="M328 579q47 87 68.5 122.5t41.5 52.5q25 22 53.5 21t50.5 -25q23 -26 20.5 -54t-26.5 -49q-26 -23 -134 -61q-14 -4 -21 -7h-53zM155 -10q-67 0 -103.5 42t-36.5 123q0 78 31.5 160.5t95 142.5t140.5 60q115 0 117 -132h6l34 122h150l-113 -391q-10 -36 14 -36
q32 0 86 124h67q-47 -115 -92 -165t-108 -50q-60 0 -83.5 37t-12.5 95l4 21h-5q-76 -153 -191 -153zM224 77q38 0 73.5 50.5t54.5 114.5t19 114q0 79 -52 79q-39 0 -74.5 -49.5t-55 -112t-19.5 -109.5q0 -41 14 -64t40 -23z" />
    <glyph glyph-name="acircumflex" unicode="&#xe2;" horiz-adv-x="650" 
d="M299 584h-91l170 161q28 27 46 27q17 0 32 -27l87 -162h-90l-59 67zM155 -10q-67 0 -103.5 42t-36.5 123q0 78 31.5 160.5t95 142.5t140.5 60q115 0 117 -132h6l34 122h150l-113 -391q-10 -36 14 -36q32 0 86 124h67q-47 -115 -92 -165t-108 -50q-60 0 -83.5 37t-12.5 95
l4 21h-5q-76 -153 -191 -153zM224 77q38 0 73.5 50.5t54.5 114.5t19 114q0 79 -52 79q-39 0 -74.5 -49.5t-55 -112t-19.5 -109.5q0 -41 14 -64t40 -23z" />
    <glyph glyph-name="atilde" unicode="&#xe3;" horiz-adv-x="650" 
d="M600 733q-13 -69 -50.5 -113t-101.5 -44q-33 0 -80 28.5t-75 28.5q-17 0 -28.5 -7.5t-16.5 -15.5t-13 -27l-56 18q14 67 50.5 109t98.5 42q35 0 84 -28.5t73 -28.5q7 0 13 1.5t10 3t8.5 6t7 6.5t6 8.5t4.5 7.5t4 9l4 8zM155 -10q-67 0 -103.5 42t-36.5 123
q0 78 31.5 160.5t95 142.5t140.5 60q115 0 117 -132h6l34 122h150l-113 -391q-10 -36 14 -36q32 0 86 124h67q-47 -115 -92 -165t-108 -50q-60 0 -83.5 37t-12.5 95l4 21h-5q-76 -153 -191 -153zM224 77q38 0 73.5 50.5t54.5 114.5t19 114q0 79 -52 79q-39 0 -74.5 -49.5
t-55 -112t-19.5 -109.5q0 -41 14 -64t40 -23z" />
    <glyph glyph-name="adieresis" unicode="&#xe4;" horiz-adv-x="650" 
d="M268 568q-37 0 -61.5 23.5t-24.5 60.5t24.5 62t61.5 25q38 0 62 -24t24 -62q0 -37 -24 -61t-62 -24zM488 568q-37 0 -61.5 23.5t-24.5 60.5t24.5 62t61.5 25q38 0 62 -24t24 -62q0 -37 -24 -61t-62 -24zM155 -10q-67 0 -103.5 42t-36.5 123q0 78 31.5 160.5t95 142.5
t140.5 60q115 0 117 -132h6l34 122h150l-113 -391q-10 -36 14 -36q32 0 86 124h67q-47 -115 -92 -165t-108 -50q-60 0 -83.5 37t-12.5 95l4 21h-5q-76 -153 -191 -153zM224 77q38 0 73.5 50.5t54.5 114.5t19 114q0 79 -52 79q-39 0 -74.5 -49.5t-55 -112t-19.5 -109.5
q0 -41 14 -64t40 -23z" />
    <glyph glyph-name="aring" unicode="&#xe5;" horiz-adv-x="650" 
d="M385 555q-52 0 -84.5 28.5t-32.5 71.5q0 53 41 88.5t98 35.5q52 0 85.5 -28.5t33.5 -70.5q0 -52 -41.5 -88.5t-99.5 -36.5zM390 614q24 0 41.5 18.5t17.5 43.5q0 20 -12 33t-33 13q-24 0 -42 -18.5t-18 -44.5q0 -21 13 -33t33 -12zM155 -10q-67 0 -103.5 42t-36.5 123
q0 78 31.5 160.5t95 142.5t140.5 60q115 0 117 -132h6l34 122h150l-113 -391q-10 -36 14 -36q32 0 86 124h67q-47 -115 -92 -165t-108 -50q-60 0 -83.5 37t-12.5 95l4 21h-5q-76 -153 -191 -153zM224 77q38 0 73.5 50.5t54.5 114.5t19 114q0 79 -52 79q-39 0 -74.5 -49.5
t-55 -112t-19.5 -109.5q0 -41 14 -64t40 -23z" />
    <glyph glyph-name="ae" unicode="&#xe6;" horiz-adv-x="832" 
d="M568 69q97 0 153 136h71q-44 -117 -107 -166t-145 -49q-124 0 -163 97q-87 -97 -211 -97q-73 0 -114.5 31t-41.5 87q0 158 335 169q32 173 -93 173q-18 0 -34 -5q24 -18 24 -49t-24 -54.5t-59 -23.5q-34 0 -55.5 22.5t-21.5 57.5q0 56 54 88t124 32q124 0 176 -100
q83 99 215 99q74 0 119 -31.5t45 -85.5q0 -142 -319 -166q-4 -26 -6 -52q-3 -113 78 -113zM642 449q-45 0 -80.5 -49.5t-55.5 -120.5q78 12 129 44t51 82q0 44 -44 44zM208 69q39 0 72.5 45t52.5 114q-88 -18 -129 -48.5t-41 -66.5q0 -20 12 -32t33 -12z" />
    <glyph glyph-name="ccedilla" unicode="&#xe7;" horiz-adv-x="527" 
d="M356 333q0 30 20.5 51.5t51.5 26.5q-24 26 -65 26q-53 0 -95 -41t-62 -97t-20 -113q0 -58 23.5 -85.5t60.5 -27.5q81 0 139 117h71q-92 -200 -247 -200h-13l-29 -45q46 0 74 -19.5t28 -54.5q0 -46 -40.5 -77t-99.5 -31q-49 0 -98 28l26 47q34 -22 70 -22q23 0 38 10.5
t15 29.5q0 21 -23.5 29.5t-63.5 1.5l-9 30l60 82q-63 19 -102.5 70.5t-39.5 131.5q0 123 87 219t210 96q85 0 137 -45.5t52 -112.5q0 -44 -23 -70.5t-59 -26.5q-32 0 -53 20.5t-21 51.5z" />
    <glyph glyph-name="egrave" unicode="&#xe8;" horiz-adv-x="523" 
d="M384 578h-55q-67 61 -82 83q-19 28 -19 56q0 32 22.5 51.5t52.5 19.5q50 0 68 -56q13 -38 13 -154zM260 69q95 0 152 136h71q-81 -215 -261 -215q-96 0 -147 55t-51 142q0 56 21 113t59.5 106t99 80t132.5 31q77 0 123.5 -34t46.5 -89q0 -43 -30 -78t-79.5 -57.5
t-103 -36t-110.5 -19.5q-2 -26 -2 -36q0 -46 20.5 -72t58.5 -26zM328 447q-49 0 -84.5 -60t-52.5 -140q82 22 133.5 59.5t51.5 88.5q0 52 -48 52z" />
    <glyph glyph-name="eacute" unicode="&#xe9;" horiz-adv-x="523" 
d="M530 750q23 -26 20.5 -54t-26.5 -49q-26 -23 -134 -61q-14 -4 -21 -7h-53q47 87 68.5 122.5t41.5 52.5q25 22 53.5 21t50.5 -25zM506 394q0 -43 -30 -78t-79.5 -57.5t-103 -36t-110.5 -19.5q-2 -26 -2 -36q0 -46 20.5 -72t58.5 -26q95 0 152 136h71q-81 -215 -261 -215
q-96 0 -147 55t-51 142q0 56 21 113t59.5 106t99 80t132.5 31q77 0 123.5 -34t46.5 -89zM328 447q-49 0 -84.5 -60t-52.5 -140q82 22 133.5 59.5t51.5 88.5q0 52 -48 52z" />
    <glyph glyph-name="ecircumflex" unicode="&#xea;" horiz-adv-x="523" 
d="M287 584h-91l170 161q28 27 46 27q17 0 32 -27l87 -162h-90l-59 67zM260 69q95 0 152 136h71q-81 -215 -261 -215q-96 0 -147 55t-51 142q0 56 21 113t59.5 106t99 80t132.5 31q77 0 123.5 -34t46.5 -89q0 -43 -30 -78t-79.5 -57.5t-103 -36t-110.5 -19.5q-2 -26 -2 -36
q0 -46 20.5 -72t58.5 -26zM328 447q-49 0 -84.5 -60t-52.5 -140q82 22 133.5 59.5t51.5 88.5q0 52 -48 52z" />
    <glyph glyph-name="edieresis" unicode="&#xeb;" horiz-adv-x="523" 
d="M256 568q-37 0 -61.5 23.5t-24.5 60.5t24.5 62t61.5 25q38 0 62 -24t24 -62q0 -37 -24 -61t-62 -24zM476 568q-37 0 -61.5 23.5t-24.5 60.5t24.5 62t61.5 25q38 0 62 -24t24 -62q0 -37 -24 -61t-62 -24zM260 69q95 0 152 136h71q-81 -215 -261 -215q-96 0 -147 55
t-51 142q0 56 21 113t59.5 106t99 80t132.5 31q77 0 123.5 -34t46.5 -89q0 -43 -30 -78t-79.5 -57.5t-103 -36t-110.5 -19.5q-2 -26 -2 -36q0 -46 20.5 -72t58.5 -26zM328 447q-49 0 -84.5 -60t-52.5 -140q82 22 133.5 59.5t51.5 88.5q0 52 -48 52z" />
    <glyph glyph-name="igrave" unicode="&#xec;" horiz-adv-x="395" 
d="M303 578h-55q-67 61 -82 83q-19 28 -19 56q0 32 22.5 51.5t52.5 19.5q50 0 68 -56q13 -38 13 -154zM322 206h67q-42 -113 -91 -164.5t-113 -51.5t-93.5 43t-6.5 108l90 253q11 33 -16 33q-32 0 -84 -127h-67q46 117 95.5 167.5t114.5 50.5t93 -44t4 -110l-89 -247
q-6 -20 -1 -28t16 -8q32 0 81 125z" />
    <glyph glyph-name="iacute" unicode="&#xed;" horiz-adv-x="395" 
d="M235 579q47 87 68.5 122.5t41.5 52.5q25 22 53.5 21t50.5 -25q23 -26 20.5 -54t-26.5 -49q-26 -23 -134 -61q-14 -4 -21 -7h-53zM322 206h67q-42 -113 -91 -164.5t-113 -51.5t-93.5 43t-6.5 108l90 253q11 33 -16 33q-32 0 -84 -127h-67q46 117 95.5 167.5t114.5 50.5
t93 -44t4 -110l-89 -247q-6 -20 -1 -28t16 -8q32 0 81 125z" />
    <glyph glyph-name="icircumflex" unicode="&#xee;" horiz-adv-x="395" 
d="M206 584h-91l170 161q28 27 46 27q17 0 32 -27l87 -162h-90l-59 67zM322 206h67q-42 -113 -91 -164.5t-113 -51.5t-93.5 43t-6.5 108l90 253q11 33 -16 33q-32 0 -84 -127h-67q46 117 95.5 167.5t114.5 50.5t93 -44t4 -110l-89 -247q-6 -20 -1 -28t16 -8q32 0 81 125z
" />
    <glyph glyph-name="idieresis" unicode="&#xef;" horiz-adv-x="395" 
d="M175 568q-37 0 -61.5 23.5t-24.5 60.5t24.5 62t61.5 25q38 0 62 -24t24 -62q0 -37 -24 -61t-62 -24zM395 568q-37 0 -61.5 23.5t-24.5 60.5t24.5 62t61.5 25q38 0 62 -24t24 -62q0 -37 -24 -61t-62 -24zM322 206h67q-42 -113 -91 -164.5t-113 -51.5t-93.5 43t-6.5 108
l90 253q11 33 -16 33q-32 0 -84 -127h-67q46 117 95.5 167.5t114.5 50.5t93 -44t4 -110l-89 -247q-6 -20 -1 -28t16 -8q32 0 81 125z" />
    <glyph glyph-name="eth" unicode="&#xf0;" horiz-adv-x="551" 
d="M409 621q120 -119 120 -287q0 -86 -34.5 -163.5t-103.5 -129t-156 -51.5q-92 0 -150.5 54t-58.5 153q0 79 32.5 151t96.5 120.5t145 48.5q42 0 72 -15q-25 60 -56 93l-147 -39l-16 60l106 28q-37 25 -82 50l100 20q33 -17 76 -44l135 35l15 -60zM390 363q1 43 -15 65
t-45 22q-38 0 -71 -38.5t-52 -91.5t-29.5 -100t-10.5 -73q-3 -89 61 -89q37 0 69.5 38.5t51.5 91.5t30 101t11 74z" />
    <glyph glyph-name="ntilde" unicode="&#xf1;" horiz-adv-x="705" 
d="M649 733q-13 -69 -50.5 -113t-101.5 -44q-33 0 -80 28.5t-75 28.5q-17 0 -28.5 -7.5t-16.5 -15.5t-13 -27l-56 18q14 67 50.5 109t98.5 42q35 0 84 -28.5t73 -28.5q7 0 13 1.5t10 3t8.5 6t7 6.5t6 8.5t4.5 7.5t5 9l3 8zM632 206h66q-46 -112 -95 -164t-112 -52
q-67 0 -94 46t-3 116l56 161q18 54 9 80t-40 26q-15 0 -28.5 -6.5t-35 -31.5t-43.5 -68t-51.5 -123t-60.5 -190h-151l114 387q11 40 -14 40q-15 0 -32 -25.5t-45 -101.5h-66q42 117 86.5 167.5t106.5 50.5q51 0 79.5 -32.5t4.5 -111.5l-25 -81h6q80 225 224 225
q77 0 109.5 -59.5t0.5 -154.5l-64 -187q-6 -19 -1 -27.5t16 -8.5q14 0 32 25t51 100z" />
    <glyph glyph-name="ograve" unicode="&#xf2;" horiz-adv-x="558" 
d="M406 578h-55q-67 61 -82 83q-19 28 -19 56q0 32 22.5 51.5t52.5 19.5q50 0 68 -56q13 -38 13 -154zM234 -10q-91 0 -149.5 54.5t-58.5 153.5q0 78 35 150t104.5 120.5t157.5 48.5q92 0 151 -53.5t59 -151.5q0 -78 -35.5 -151t-106 -122t-157.5 -49zM227 58
q38 0 70.5 38.5t51.5 93t29.5 103.5t11.5 78q1 37 -15.5 58t-44.5 21q-38 0 -71 -38.5t-52 -92t-29.5 -102t-11.5 -77.5q-1 -41 16 -61.5t45 -20.5z" />
    <glyph glyph-name="oacute" unicode="&#xf3;" horiz-adv-x="558" 
d="M338 579q47 87 68.5 122.5t41.5 52.5q25 22 53.5 21t50.5 -25q23 -26 20.5 -54t-26.5 -49q-26 -23 -134 -61q-14 -4 -21 -7h-53zM234 -10q-91 0 -149.5 54.5t-58.5 153.5q0 78 35 150t104.5 120.5t157.5 48.5q92 0 151 -53.5t59 -151.5q0 -78 -35.5 -151t-106 -122
t-157.5 -49zM227 58q38 0 70.5 38.5t51.5 93t29.5 103.5t11.5 78q1 37 -15.5 58t-44.5 21q-38 0 -71 -38.5t-52 -92t-29.5 -102t-11.5 -77.5q-1 -41 16 -61.5t45 -20.5z" />
    <glyph glyph-name="ocircumflex" unicode="&#xf4;" horiz-adv-x="558" 
d="M309 584h-91l170 161q28 27 46 27q17 0 32 -27l87 -162h-90l-59 67zM234 -10q-91 0 -149.5 54.5t-58.5 153.5q0 78 35 150t104.5 120.5t157.5 48.5q92 0 151 -53.5t59 -151.5q0 -78 -35.5 -151t-106 -122t-157.5 -49zM227 58q38 0 70.5 38.5t51.5 93t29.5 103.5t11.5 78
q1 37 -15.5 58t-44.5 21q-38 0 -71 -38.5t-52 -92t-29.5 -102t-11.5 -77.5q-1 -41 16 -61.5t45 -20.5z" />
    <glyph glyph-name="otilde" unicode="&#xf5;" horiz-adv-x="558" 
d="M610 733q-13 -69 -50.5 -113t-101.5 -44q-33 0 -80 28.5t-75 28.5q-17 0 -28.5 -7.5t-16.5 -15.5t-13 -27l-56 18q14 67 50.5 109t98.5 42q35 0 84 -28.5t73 -28.5q7 0 13 1.5t10 3t8.5 6t7 6.5t6 8.5t4.5 7.5t4 9l4 8zM234 -10q-91 0 -149.5 54.5t-58.5 153.5
q0 78 35 150t104.5 120.5t157.5 48.5q92 0 151 -53.5t59 -151.5q0 -78 -35.5 -151t-106 -122t-157.5 -49zM227 58q38 0 70.5 38.5t51.5 93t29.5 103.5t11.5 78q1 37 -15.5 58t-44.5 21q-38 0 -71 -38.5t-52 -92t-29.5 -102t-11.5 -77.5q-1 -41 16 -61.5t45 -20.5z" />
    <glyph glyph-name="odieresis" unicode="&#xf6;" horiz-adv-x="558" 
d="M278 568q-37 0 -61.5 23.5t-24.5 60.5t24.5 62t61.5 25q38 0 62 -24t24 -62q0 -37 -24 -61t-62 -24zM498 568q-37 0 -61.5 23.5t-24.5 60.5t24.5 62t61.5 25q38 0 62 -24t24 -62q0 -37 -24 -61t-62 -24zM234 -10q-91 0 -149.5 54.5t-58.5 153.5q0 78 35 150t104.5 120.5
t157.5 48.5q92 0 151 -53.5t59 -151.5q0 -78 -35.5 -151t-106 -122t-157.5 -49zM227 58q38 0 70.5 38.5t51.5 93t29.5 103.5t11.5 78q1 37 -15.5 58t-44.5 21q-38 0 -71 -38.5t-52 -92t-29.5 -102t-11.5 -77.5q-1 -41 16 -61.5t45 -20.5z" />
    <glyph glyph-name="divide" unicode="&#xf7;" horiz-adv-x="572" 
d="M338 412q-35 0 -58 22.5t-23 57.5t23 58t58 23q36 0 58.5 -22t22.5 -58t-23 -58.5t-58 -22.5zM52 266l28 94h474l-28 -94h-474zM238 213q35 0 58 -22.5t23 -58.5t-22.5 -58t-58.5 -22q-35 0 -58 23t-23 58t23 57.5t58 22.5z" />
    <glyph glyph-name="oslash" unicode="&#xf8;" horiz-adv-x="558" 
d="M587 508l-84 -79q30 -49 30 -117q0 -78 -35.5 -151t-106 -122t-157.5 -49q-89 0 -145 50l-43 -40h-88l94 86q-26 47 -26 112q0 78 35 150t104.5 120.5t157.5 48.5q90 0 146 -49l43 40h75zM330 450q-41 0 -75.5 -45t-52.5 -98t-29 -110l215 198q-9 55 -58 55zM227 58
q41 0 75.5 46.5t52.5 101t28 111.5l-216 -203q10 -56 60 -56z" />
    <glyph glyph-name="ugrave" unicode="&#xf9;" horiz-adv-x="705" 
d="M471 578h-55q-67 61 -82 83q-19 28 -19 56q0 32 22.5 51.5t52.5 19.5q50 0 68 -56q13 -38 13 -154zM73 302h-66q46 112 95 164t112 52q67 0 94 -46t3 -116l-56 -161q-18 -54 -9 -80t40 -26q15 0 28.5 6.5t35 31.5t43.5 68t51.5 123t60.5 190h151l-114 -387
q-11 -40 14 -40q15 0 32 25.5t45 101.5h66q-42 -117 -86.5 -167.5t-106.5 -50.5q-51 0 -79.5 32.5t-4.5 111.5l25 81h-6q-80 -225 -224 -225q-77 0 -109.5 59.5t-0.5 154.5l64 187q6 19 1 27.5t-16 8.5q-14 0 -32 -25t-51 -100z" />
    <glyph glyph-name="uacute" unicode="&#xfa;" horiz-adv-x="705" 
d="M373 579q47 87 68.5 122.5t41.5 52.5q25 22 53.5 21t50.5 -25q23 -26 20.5 -54t-26.5 -49q-26 -23 -134 -61q-14 -4 -21 -7h-53zM73 302h-66q46 112 95 164t112 52q67 0 94 -46t3 -116l-56 -161q-18 -54 -9 -80t40 -26q15 0 28.5 6.5t35 31.5t43.5 68t51.5 123t60.5 190
h151l-114 -387q-11 -40 14 -40q15 0 32 25.5t45 101.5h66q-42 -117 -86.5 -167.5t-106.5 -50.5q-51 0 -79.5 32.5t-4.5 111.5l25 81h-6q-80 -225 -224 -225q-77 0 -109.5 59.5t-0.5 154.5l64 187q6 19 1 27.5t-16 8.5q-14 0 -32 -25t-51 -100z" />
    <glyph glyph-name="ucircumflex" unicode="&#xfb;" horiz-adv-x="705" 
d="M374 584h-91l170 161q28 27 46 27q17 0 32 -27l87 -162h-90l-59 67zM73 302h-66q46 112 95 164t112 52q67 0 94 -46t3 -116l-56 -161q-18 -54 -9 -80t40 -26q15 0 28.5 6.5t35 31.5t43.5 68t51.5 123t60.5 190h151l-114 -387q-11 -40 14 -40q15 0 32 25.5t45 101.5h66
q-42 -117 -86.5 -167.5t-106.5 -50.5q-51 0 -79.5 32.5t-4.5 111.5l25 81h-6q-80 -225 -224 -225q-77 0 -109.5 59.5t-0.5 154.5l64 187q6 19 1 27.5t-16 8.5q-14 0 -32 -25t-51 -100z" />
    <glyph glyph-name="udieresis" unicode="&#xfc;" horiz-adv-x="705" 
d="M343 568q-37 0 -61.5 23.5t-24.5 60.5t24.5 62t61.5 25q38 0 62 -24t24 -62q0 -37 -24 -61t-62 -24zM563 568q-37 0 -61.5 23.5t-24.5 60.5t24.5 62t61.5 25q38 0 62 -24t24 -62q0 -37 -24 -61t-62 -24zM73 302h-66q46 112 95 164t112 52q67 0 94 -46t3 -116l-56 -161
q-18 -54 -9 -80t40 -26q15 0 28.5 6.5t35 31.5t43.5 68t51.5 123t60.5 190h151l-114 -387q-11 -40 14 -40q15 0 32 25.5t45 101.5h66q-42 -117 -86.5 -167.5t-106.5 -50.5q-51 0 -79.5 32.5t-4.5 111.5l25 81h-6q-80 -225 -224 -225q-77 0 -109.5 59.5t-0.5 154.5l64 187
q6 19 1 27.5t-16 8.5q-14 0 -32 -25t-51 -100z" />
    <glyph glyph-name="yacute" unicode="&#xfd;" horiz-adv-x="623" 
d="M593 647q-26 -23 -134 -61q-14 -4 -21 -7h-53q47 87 68.5 122.5t41.5 52.5q25 22 53.5 21t50.5 -25q23 -26 20.5 -54t-26.5 -49zM513 518q45 0 74 -32.5t29 -94.5q0 -73 -42.5 -174t-106 -191t-147.5 -153t-158 -63q-66 0 -112.5 32.5t-46.5 87.5q0 38 22.5 61.5
t56.5 23.5q31 0 50 -19t19 -47q0 -24 -14 -43t-36 -27q29 -12 66 -12q35 0 70 18q20 205 16 325.5t-23 168.5t-55 48q-26 0 -48.5 -26.5t-45.5 -97.5h-67q31 108 80 161.5t123 53.5q64 0 106.5 -38.5t59.5 -105.5t19 -157.5t-15 -193.5q57 78 98 169.5t50 155.5
q-12 -6 -28 -6q-36 0 -61 26t-25 63t25.5 62t66.5 25z" />
    <glyph glyph-name="thorn" unicode="&#xfe;" horiz-adv-x="599" 
d="M447 517q64 0 100 -42t36 -121q0 -80 -31.5 -162t-95 -142t-141.5 -60q-62 0 -96.5 36.5t-35.5 92.5h-2l-52 -181q-9 -31 22 -31h99l-25 -87h-351l25 87h39q31 0 40 31l179 624q9 31 -22 31h-39l25 87h221l-91 -317h4q78 154 192 154zM277 75q39 0 75.5 50t56.5 114.5
t20 115.5q0 75 -52 75q-37 0 -73 -50t-56.5 -115.5t-20.5 -115.5q0 -74 50 -74z" />
    <glyph glyph-name="ydieresis" unicode="&#xff;" horiz-adv-x="623" 
d="M325 568q-37 0 -61.5 23.5t-24.5 60.5t24.5 62t61.5 25q38 0 62 -24t24 -62q0 -37 -24 -61t-62 -24zM545 568q-37 0 -61.5 23.5t-24.5 60.5t24.5 62t61.5 25q38 0 62 -24t24 -62q0 -37 -24 -61t-62 -24zM513 518q45 0 74 -32.5t29 -94.5q0 -73 -42.5 -174t-106 -191
t-147.5 -153t-158 -63q-66 0 -112.5 32.5t-46.5 87.5q0 38 22.5 61.5t56.5 23.5q31 0 50 -19t19 -47q0 -24 -14 -43t-36 -27q29 -12 66 -12q35 0 70 18q20 205 16 325.5t-23 168.5t-55 48q-26 0 -48.5 -26.5t-45.5 -97.5h-67q31 108 80 161.5t123 53.5q64 0 106.5 -38.5
t59.5 -105.5t19 -157.5t-15 -193.5q57 78 98 169.5t50 155.5q-12 -6 -28 -6q-36 0 -61 26t-25 63t25.5 62t66.5 25z" />
    <glyph glyph-name="Amacron" unicode="&#x100;" horiz-adv-x="762" 
d="M714 856l-28 -98h-320l29 98h319zM639 118q5 -30 40 -30h31l-25 -88h-347l25 88h69q14 0 22.5 8.5t7.5 21.5l-7 64h-257l-43 -63q-9 -13 -6 -22t18 -9h54l-25 -88h-265l25 88h38q34 0 58 34l393 558h113zM250 257h196l-29 245z" />
    <glyph glyph-name="amacron" unicode="&#x101;" horiz-adv-x="650" 
d="M240 684h319l-28 -98h-320zM155 -10q-67 0 -103.5 42t-36.5 123q0 78 31.5 160.5t95 142.5t140.5 60q115 0 117 -132h6l34 122h150l-113 -391q-10 -36 14 -36q32 0 86 124h67q-47 -115 -92 -165t-108 -50q-60 0 -83.5 37t-12.5 95l4 21h-5q-76 -153 -191 -153zM224 77
q38 0 73.5 50.5t54.5 114.5t19 114q0 79 -52 79q-39 0 -74.5 -49.5t-55 -112t-19.5 -109.5q0 -41 14 -64t40 -23z" />
    <glyph glyph-name="Abreve" unicode="&#x102;" horiz-adv-x="762" 
d="M522 744q-73 0 -104 41.5t-12 124.5h76q1 -34 15 -50t45 -16q61 0 104 66h85q-29 -83 -83.5 -124.5t-125.5 -41.5zM639 118q5 -30 40 -30h31l-25 -88h-347l25 88h69q14 0 22.5 8.5t7.5 21.5l-7 64h-257l-43 -63q-9 -13 -6 -22t18 -9h54l-25 -88h-265l25 88h38q34 0 58 34
l393 558h113zM250 257h196l-29 245z" />
    <glyph glyph-name="abreve" unicode="&#x103;" horiz-adv-x="650" 
d="M576 738q-29 -83 -83.5 -124.5t-125.5 -41.5q-73 0 -104 41.5t-12 124.5h76q1 -34 15 -50t45 -16q61 0 104 66h85zM155 -10q-67 0 -103.5 42t-36.5 123q0 78 31.5 160.5t95 142.5t140.5 60q115 0 117 -132h6l34 122h150l-113 -391q-10 -36 14 -36q32 0 86 124h67
q-47 -115 -92 -165t-108 -50q-60 0 -83.5 37t-12.5 95l4 21h-5q-76 -153 -191 -153zM224 77q38 0 73.5 50.5t54.5 114.5t19 114q0 79 -52 79q-39 0 -74.5 -49.5t-55 -112t-19.5 -109.5q0 -41 14 -64t40 -23z" />
    <glyph glyph-name="Aogonek" unicode="&#x104;" horiz-adv-x="762" 
d="M685 0h-107q-42 -43 -56 -63t-14 -40q0 -33 38 -33q19 0 48 11l-23 -83q-36 -17 -77 -17q-43 0 -68 19.5t-25 55.5q0 35 21.5 66.5t90.5 83.5h-175l25 88h69q14 0 22.5 8.5t7.5 21.5l-7 64h-257l-43 -63q-9 -13 -6 -22t18 -9h54l-25 -88h-265l25 88h38q34 0 58 34
l393 558h113l81 -562q5 -30 40 -30h31zM250 257h196l-29 245z" />
    <glyph glyph-name="aogonek" unicode="&#x105;" horiz-adv-x="650" 
d="M536 25q-60 -59 -78 -82.5t-18 -45.5q0 -33 38 -33q19 0 48 11l-23 -83q-37 -17 -78 -17q-43 0 -67.5 19.5t-24.5 55.5q0 34 19.5 63.5t82.5 76.5q-56 3 -77 39.5t-11 92.5l4 21h-5q-76 -153 -191 -153q-67 0 -103.5 42t-36.5 123q0 78 31.5 160.5t95 142.5t140.5 60
q115 0 117 -132h6l34 122h150l-113 -391q-10 -36 14 -36q32 0 86 124h67q-52 -131 -107 -180zM224 77q38 0 73.5 50.5t54.5 114.5t19 114q0 79 -52 79q-39 0 -74.5 -49.5t-55 -112t-19.5 -109.5q0 -41 14 -64t40 -23z" />
    <glyph glyph-name="Cacute" unicode="&#x106;" horiz-adv-x="712" 
d="M672 819q-26 -23 -134 -61q-14 -4 -21 -7h-53q47 87 68.5 122.5t41.5 52.5q25 22 53.5 21t50.5 -25q23 -26 20.5 -54t-26.5 -49zM532 466q0 32 20 56t51 33q-35 53 -112 53q-61 0 -112 -35.5t-81 -90t-46.5 -114t-16.5 -113.5q0 -81 37 -127.5t105 -46.5q64 0 113 41.5
t97 123.5h86q-68 -138 -149 -197t-182 -59q-124 0 -203 75t-79 205q0 107 54 203.5t148.5 156.5t203.5 60q108 0 185 -55.5t77 -142.5q0 -52 -28.5 -82t-73.5 -30q-41 0 -67.5 24.5t-26.5 61.5z" />
    <glyph glyph-name="cacute" unicode="&#x107;" horiz-adv-x="527" 
d="M516 750q23 -26 20.5 -54t-26.5 -49q-26 -23 -134 -61q-14 -4 -21 -7h-53q47 87 68.5 122.5t41.5 52.5q25 22 53.5 21t50.5 -25zM323 516q85 0 137 -45.5t52 -112.5q0 -44 -23 -70.5t-59 -26.5q-32 0 -53 20.5t-21 51.5q0 30 20.5 51.5t51.5 26.5q-24 26 -65 26
q-53 0 -95 -41t-62 -97t-20 -113q0 -58 23.5 -85.5t60.5 -27.5q81 0 139 117h71q-92 -200 -247 -200q-85 0 -146 55.5t-61 155.5q0 123 87 219t210 96z" />
    <glyph glyph-name="Cdotaccent" unicode="&#x10a;" horiz-adv-x="712" 
d="M529 737q-40 0 -66 25t-26 65t26 66t66 26t65.5 -25.5t25.5 -65.5t-25.5 -65.5t-65.5 -25.5zM532 466q0 32 20 56t51 33q-35 53 -112 53q-61 0 -112 -35.5t-81 -90t-46.5 -114t-16.5 -113.5q0 -81 37 -127.5t105 -46.5q64 0 113 41.5t97 123.5h86q-68 -138 -149 -197
t-182 -59q-124 0 -203 75t-79 205q0 107 54 203.5t148.5 156.5t203.5 60q108 0 185 -55.5t77 -142.5q0 -52 -28.5 -82t-73.5 -30q-41 0 -67.5 24.5t-26.5 61.5z" />
    <glyph glyph-name="cdotaccent" unicode="&#x10b;" horiz-adv-x="527" 
d="M367 565q-40 0 -66 25t-26 65t26 66t66 26t65.5 -25.5t25.5 -65.5t-25.5 -65.5t-65.5 -25.5zM356 333q0 30 20.5 51.5t51.5 26.5q-24 26 -65 26q-53 0 -95 -41t-62 -97t-20 -113q0 -58 23.5 -85.5t60.5 -27.5q81 0 139 117h71q-92 -200 -247 -200q-85 0 -146 55.5
t-61 155.5q0 123 87 219t210 96q85 0 137 -45.5t52 -112.5q0 -44 -23 -70.5t-59 -26.5q-32 0 -53 20.5t-21 51.5z" />
    <glyph glyph-name="Ccaron" unicode="&#x10c;" horiz-adv-x="712" 
d="M536 751q-17 0 -32 27l-87 162h90l59 -67l95 66h91l-170 -161q-28 -27 -46 -27zM466 690q108 0 185 -55.5t77 -142.5q0 -52 -28.5 -82t-73.5 -30q-41 0 -67.5 24.5t-26.5 61.5q0 32 20 56t51 33q-35 53 -112 53q-61 0 -112 -35.5t-81 -90t-46.5 -114t-16.5 -113.5
q0 -81 37 -127.5t105 -46.5q64 0 113 41.5t97 123.5h86q-68 -138 -149 -197t-182 -59q-124 0 -203 75t-79 205q0 107 54 203.5t148.5 156.5t203.5 60z" />
    <glyph glyph-name="ccaron" unicode="&#x10d;" horiz-adv-x="527" 
d="M374 579q-17 0 -32 27l-87 162h90l59 -67l95 66h91l-170 -161q-28 -27 -46 -27zM323 516q85 0 137 -45.5t52 -112.5q0 -44 -23 -70.5t-59 -26.5q-32 0 -53 20.5t-21 51.5q0 30 20.5 51.5t51.5 26.5q-24 26 -65 26q-53 0 -95 -41t-62 -97t-20 -113q0 -58 23.5 -85.5
t60.5 -27.5q81 0 139 117h71q-92 -200 -247 -200q-85 0 -146 55.5t-61 155.5q0 123 87 219t210 96z" />
    <glyph glyph-name="Dcaron" unicode="&#x10e;" horiz-adv-x="771" 
d="M603 939h91l-170 -161q-28 -27 -46 -27q-17 0 -32 27l-87 162h90l59 -67zM454 680q139 0 224.5 -72.5t85.5 -197.5q0 -170 -137.5 -290t-341.5 -120h-328l24 88h61q31 0 39 27l127 444q5 16 -1 25t-20 9h-62l25 87h304zM312 88q116 0 197.5 100t81.5 229q0 84 -43 130
t-116 46h-47l-145 -505h72z" />
    <glyph glyph-name="dcaron" unicode="&#x10f;" horiz-adv-x="650" 
d="M742 690q34 0 59 -21.5t25 -64.5q0 -59 -48 -108.5t-125 -78.5l-21 43q36 16 53 32t26 38q-53 22 -53 76q0 36 24 60t60 24zM490 81q32 0 86 124h67q-47 -115 -92 -165t-108 -50q-60 0 -83.5 37t-12.5 95l4 21h-5q-76 -153 -191 -153q-67 0 -103.5 42t-36.5 123
q0 78 31.5 160t95 142t140.5 60q115 0 117 -131h6l47 176q9 31 -22 31h-45l25 87h227l-161 -563q-10 -36 14 -36zM224 78q38 0 73.5 50.5t54.5 114t19 112.5q0 77 -51 77q-38 0 -74 -48t-56 -110t-20 -111q0 -85 54 -85z" />
    <glyph glyph-name="Dcroat" unicode="&#x110;" horiz-adv-x="771" 
d="M454 680q139 0 224.5 -72.5t85.5 -197.5q0 -170 -137.5 -290t-341.5 -120h-328l24 88h61q31 0 39 27l49 170h-94l28 95h93l51 179q5 16 -1 25t-20 9h-62l25 87h304zM312 88q116 0 197.5 100t81.5 229q0 84 -43 130t-116 46h-47l-61 -213h112l-27 -95h-112l-57 -197h72z
" />
    <glyph glyph-name="dcroat" unicode="&#x111;" horiz-adv-x="650" 
d="M603 561l-127 -444q-10 -36 14 -36q32 0 86 124h67q-47 -115 -92 -165t-108 -50q-60 0 -83.5 37t-12.5 95l4 21h-5q-76 -153 -191 -153q-67 0 -103.5 42t-36.5 123q0 78 31.5 160t95 142t140.5 60q115 0 117 -131h6l49 175h-146l19 65h145l15 54h150l-15 -54h59l-18 -65
h-60zM224 78q38 0 73.5 50.5t54.5 114t19 112.5q0 77 -51 77q-38 0 -74 -48t-56 -110t-20 -111q0 -85 54 -85z" />
    <glyph glyph-name="Emacron" unicode="&#x112;" horiz-adv-x="676" 
d="M347 856h319l-28 -98h-320zM532 218h95l-63 -218h-609l25 88h61q31 0 40 31l126 443q9 31 -22 31h-60l25 87h602l-63 -217h-95q13 70 8 90q-8 40 -68 40h-150l-71 -249h57q10 0 18 2.5t15 9t11.5 11t11 16.5t8.5 16.5t8.5 20.5t8.5 19h71l-79 -278h-71q1 5 3 19t2.5 20
t1 17t-1.5 16.5t-5.5 11.5t-10 8.5t-16.5 2.5h-58l-48 -168h150q32 0 55.5 9.5t40 31.5t25 38.5t22.5 50.5z" />
    <glyph glyph-name="emacron" unicode="&#x113;" horiz-adv-x="523" 
d="M228 684h319l-28 -98h-320zM260 69q95 0 152 136h71q-81 -215 -261 -215q-96 0 -147 55t-51 142q0 56 21 113t59.5 106t99 80t132.5 31q77 0 123.5 -34t46.5 -89q0 -43 -30 -78t-79.5 -57.5t-103 -36t-110.5 -19.5q-2 -26 -2 -36q0 -46 20.5 -72t58.5 -26zM328 447
q-49 0 -84.5 -60t-52.5 -140q82 22 133.5 59.5t51.5 88.5q0 52 -48 52z" />
    <glyph glyph-name="Edotaccent" unicode="&#x116;" horiz-adv-x="676" 
d="M500 737q-40 0 -66 25t-26 65t26 66t66 26t65.5 -25.5t25.5 -65.5t-25.5 -65.5t-65.5 -25.5zM532 218h95l-63 -218h-609l25 88h61q31 0 40 31l126 443q9 31 -22 31h-60l25 87h602l-63 -217h-95q13 70 8 90q-8 40 -68 40h-150l-71 -249h57q10 0 18 2.5t15 9t11.5 11
t11 16.5t8.5 16.5t8.5 20.5t8.5 19h71l-79 -278h-71q1 5 3 19t2.5 20t1 17t-1.5 16.5t-5.5 11.5t-10 8.5t-16.5 2.5h-58l-48 -168h150q32 0 55.5 9.5t40 31.5t25 38.5t22.5 50.5z" />
    <glyph glyph-name="edotaccent" unicode="&#x117;" horiz-adv-x="523" 
d="M381 565q-40 0 -66 25t-26 65t26 66t66 26t65.5 -25.5t25.5 -65.5t-25.5 -65.5t-65.5 -25.5zM260 69q95 0 152 136h71q-81 -215 -261 -215q-96 0 -147 55t-51 142q0 56 21 113t59.5 106t99 80t132.5 31q77 0 123.5 -34t46.5 -89q0 -43 -30 -78t-79.5 -57.5t-103 -36
t-110.5 -19.5q-2 -26 -2 -36q0 -46 20.5 -72t58.5 -26zM328 447q-49 0 -84.5 -60t-52.5 -140q82 22 133.5 59.5t51.5 88.5q0 52 -48 52z" />
    <glyph glyph-name="Eogonek" unicode="&#x118;" horiz-adv-x="676" 
d="M689 463h-95q13 70 8 90q-8 40 -68 40h-150l-71 -249h57q10 0 18 2.5t15 9t11.5 11t11 16.5t8.5 16.5t8.5 20.5t8.5 19h71l-79 -278h-71q1 5 3 19t2.5 20t1 17t-1.5 16.5t-5.5 11.5t-10 8.5t-16.5 2.5h-58l-48 -168h150q32 0 55.5 9.5t40 31.5t25 38.5t22.5 50.5h95
l-63 -218h-49q-42 -43 -56 -63t-14 -40q0 -33 38 -33q19 0 48 11l-23 -83q-36 -17 -77 -17q-43 0 -68 19.5t-25 55.5q0 35 21.5 66.5t90.5 83.5h-495l25 88h61q31 0 40 31l126 443q9 31 -22 31h-60l25 87h602z" />
    <glyph glyph-name="eogonek" unicode="&#x119;" horiz-adv-x="523" 
d="M483 205q-34 -93 -88 -145h1q-100 -101 -113 -119q-17 -23 -17 -44q0 -33 38 -33q19 0 48 11l-23 -83q-36 -17 -77 -17q-43 0 -68 19.5t-25 55.5q0 34 19.5 64t83.5 79q-20 -3 -40 -3q-96 0 -147 55t-51 142q0 56 21 113t59.5 106t99 80t132.5 31q77 0 123.5 -34
t46.5 -89q0 -43 -30 -78t-79.5 -57.5t-103 -36t-110.5 -19.5q-2 -26 -2 -36q0 -46 20.5 -72t58.5 -26q95 0 152 136h71zM328 447q-49 0 -84.5 -60t-52.5 -140q82 22 133.5 59.5t51.5 88.5q0 52 -48 52z" />
    <glyph glyph-name="Ecaron" unicode="&#x11a;" horiz-adv-x="676" 
d="M632 939h91l-170 -161q-28 -27 -46 -27q-17 0 -32 27l-87 162h90l59 -67zM532 218h95l-63 -218h-609l25 88h61q31 0 40 31l126 443q9 31 -22 31h-60l25 87h602l-63 -217h-95q13 70 8 90q-8 40 -68 40h-150l-71 -249h57q10 0 18 2.5t15 9t11.5 11t11 16.5t8.5 16.5
t8.5 20.5t8.5 19h71l-79 -278h-71q1 5 3 19t2.5 20t1 17t-1.5 16.5t-5.5 11.5t-10 8.5t-16.5 2.5h-58l-48 -168h150q32 0 55.5 9.5t40 31.5t25 38.5t22.5 50.5z" />
    <glyph glyph-name="ecaron" unicode="&#x11b;" horiz-adv-x="523" 
d="M388 579q-17 0 -32 27l-87 162h90l59 -67l95 66h91l-170 -161q-28 -27 -46 -27zM506 394q0 -43 -30 -78t-79.5 -57.5t-103 -36t-110.5 -19.5q-2 -26 -2 -36q0 -46 20.5 -72t58.5 -26q95 0 152 136h71q-81 -215 -261 -215q-96 0 -147 55t-51 142q0 56 21 113t59.5 106
t99 80t132.5 31q77 0 123.5 -34t46.5 -89zM328 447q-49 0 -84.5 -60t-52.5 -140q82 22 133.5 59.5t51.5 88.5q0 52 -48 52z" />
    <glyph glyph-name="Gbreve" unicode="&#x11e;" horiz-adv-x="783" 
d="M511 744q-73 0 -104 41.5t-12 124.5h76q1 -34 15 -50t45 -16q61 0 104 66h85q-29 -83 -83.5 -124.5t-125.5 -41.5zM398 320h380l-24 -87h-47q-31 0 -40 -31l-58 -202h-40l-55 59q-76 -69 -179 -69q-124 0 -199 76.5t-75 204.5q0 106 51 202t146 156.5t210 60.5
q110 0 184.5 -52.5t74.5 -138.5q0 -51 -26.5 -81t-68.5 -30q-40 0 -66.5 24.5t-26.5 61.5q0 31 19.5 52t52.5 27q-33 54 -117 54q-58 0 -108.5 -35.5t-82.5 -90t-50 -116.5t-18 -118q0 -75 34.5 -120.5t103.5 -45.5q58 0 112 43l22 78q9 31 -23 31h-110z" />
    <glyph glyph-name="gbreve" unicode="&#x11f;" horiz-adv-x="571" 
d="M600 738q-29 -83 -83.5 -124.5t-125.5 -41.5q-73 0 -104 41.5t-12 124.5h76q1 -34 15 -50t45 -16q61 0 104 66h85zM440 508h150l-142 -485q-29 -100 -110 -156.5t-192 -56.5q-91 0 -137.5 35.5t-46.5 86.5q0 37 22.5 60.5t57.5 23.5q29 0 48.5 -19t19.5 -48
q0 -48 -49 -68q36 -8 65 -8q134 0 184 150l44 135h-5q-64 -123 -168 -123q-71 0 -112.5 43.5t-41.5 118.5q0 76 29.5 148t88 121.5t131.5 49.5q55 0 89.5 -34t34.5 -97h4zM240 122q55 0 94 78.5t39 154.5q0 38 -17 57t-44 19q-38 0 -69.5 -38.5t-46.5 -89t-15 -97.5
q0 -39 15.5 -61.5t43.5 -22.5z" />
    <glyph glyph-name="Gdotaccent" unicode="&#x120;" horiz-adv-x="783" 
d="M537 737q-40 0 -66 25t-26 65t26 66t66 26t65.5 -25.5t25.5 -65.5t-25.5 -65.5t-65.5 -25.5zM398 320h380l-24 -87h-47q-31 0 -40 -31l-58 -202h-40l-55 59q-76 -69 -179 -69q-124 0 -199 76.5t-75 204.5q0 106 51 202t146 156.5t210 60.5q110 0 184.5 -52.5t74.5 -138.5
q0 -51 -26.5 -81t-68.5 -30q-40 0 -66.5 24.5t-26.5 61.5q0 31 19.5 52t52.5 27q-33 54 -117 54q-58 0 -108.5 -35.5t-82.5 -90t-50 -116.5t-18 -118q0 -75 34.5 -120.5t103.5 -45.5q58 0 112 43l22 78q9 31 -23 31h-110z" />
    <glyph glyph-name="gdotaccent" unicode="&#x121;" horiz-adv-x="571" 
d="M395 565q-40 0 -66 25t-26 65t26 66t66 26t65.5 -25.5t25.5 -65.5t-25.5 -65.5t-65.5 -25.5zM440 508h150l-142 -485q-29 -100 -110 -156.5t-192 -56.5q-91 0 -137.5 35.5t-46.5 86.5q0 37 22.5 60.5t57.5 23.5q29 0 48.5 -19t19.5 -48q0 -48 -49 -68q36 -8 65 -8
q134 0 184 150l44 135h-5q-64 -123 -168 -123q-71 0 -112.5 43.5t-41.5 118.5q0 76 29.5 148t88 121.5t131.5 49.5q55 0 89.5 -34t34.5 -97h4zM240 122q55 0 94 78.5t39 154.5q0 38 -17 57t-44 19q-38 0 -69.5 -38.5t-46.5 -89t-15 -97.5q0 -39 15.5 -61.5t43.5 -22.5z" />
    <glyph glyph-name="Gcommaaccent" unicode="&#x122;" horiz-adv-x="783" 
d="M398 320h380l-24 -87h-47q-31 0 -40 -31l-58 -202h-40l-55 59q-76 -69 -179 -69q-124 0 -199 76.5t-75 204.5q0 106 51 202t146 156.5t210 60.5q110 0 184.5 -52.5t74.5 -138.5q0 -51 -26.5 -81t-68.5 -30q-40 0 -66.5 24.5t-26.5 61.5q0 31 19.5 52t52.5 27
q-33 54 -117 54q-58 0 -108.5 -35.5t-82.5 -90t-50 -116.5t-18 -118q0 -75 34.5 -120.5t103.5 -45.5q58 0 112 43l22 78q9 31 -23 31h-110zM320 -44q33 0 54.5 -21t21.5 -53q0 -64 -56 -106.5t-140 -57.5l-10 36q86 25 103 63q-25 5 -40 22.5t-15 41.5q0 32 23.5 53.5
t58.5 21.5z" />
    <glyph glyph-name="gcommaaccent" unicode="&#x123;" horiz-adv-x="571" 
d="M354 552q-33 0 -54.5 21t-21.5 53q0 64 56 106.5t140 57.5l10 -36q-86 -25 -103 -63q25 -5 40 -22.5t15 -41.5q0 -32 -23.5 -53.5t-58.5 -21.5zM440 508h150l-142 -485q-29 -100 -110 -156.5t-192 -56.5q-91 0 -137.5 35.5t-46.5 86.5q0 37 22.5 60.5t57.5 23.5
q29 0 48.5 -19t19.5 -48q0 -48 -49 -68q36 -8 65 -8q134 0 184 150l44 135h-5q-64 -123 -168 -123q-71 0 -112.5 43.5t-41.5 118.5q0 76 29.5 148t88 121.5t131.5 49.5q55 0 89.5 -34t34.5 -97h4zM240 122q55 0 94 78.5t39 154.5q0 38 -17 57t-44 19q-38 0 -69.5 -38.5
t-46.5 -89t-15 -97.5q0 -39 15.5 -61.5t43.5 -22.5z" />
    <glyph glyph-name="Hbar" unicode="&#x126;" horiz-adv-x="828" 
d="M835 593q-31 0 -39 -31l-19 -65h92l-19 -65h-91l-90 -313q-9 -31 22 -31h60l-25 -88h-344l25 88h54q30 0 39 31l39 136h-250l-39 -136q-9 -31 22 -31h54l-25 -88h-344l24 88h61q31 0 40 31l90 313h-90l18 65h91l19 65q9 31 -23 31h-60l25 87h344l-25 -87h-55
q-31 0 -39 -31l-19 -65h251l19 65q9 31 -22 31h-54l25 87h344l-26 -87h-60zM564 342l26 90h-250l-26 -90h250z" />
    <glyph glyph-name="hbar" unicode="&#x127;" horiz-adv-x="656" 
d="M582 205h67q-46 -112 -95 -164t-112 -52q-65 0 -93 45.5t-4 117.5l56 161q35 106 -31 106q-15 0 -28.5 -6.5t-35 -31.5t-43.5 -68t-52 -123t-61 -190h-151l158 561h-69l19 65h69l15 54h156l-19 -54h136l-19 -65h-139l-47 -135l-49 -133h6q80 225 222 225q78 0 110 -58.5
t0 -155.5l-64 -188q-5 -20 -0.5 -27.5t15.5 -7.5q14 0 32 25t51 99z" />
    <glyph glyph-name="Imacron" unicode="&#x12a;" horiz-adv-x="419" 
d="M223 856h319l-28 -98h-320zM421 593q-31 0 -39 -31l-127 -443q-9 -31 22 -31h64l-25 -88h-359l26 88h64q31 0 40 31l127 443q9 31 -22 31h-65l26 87h358l-25 -87h-65z" />
    <glyph glyph-name="imacron" unicode="&#x12b;" horiz-adv-x="395" 
d="M147 684h319l-28 -98h-320zM322 206h67q-42 -113 -91 -164.5t-113 -51.5t-93.5 43t-6.5 108l90 253q11 33 -16 33q-32 0 -84 -127h-67q46 117 95.5 167.5t114.5 50.5t93 -44t4 -110l-89 -247q-6 -20 -1 -28t16 -8q32 0 81 125z" />
    <glyph glyph-name="Iogonek" unicode="&#x12e;" horiz-adv-x="419" 
d="M153 680h358l-25 -87h-65q-31 0 -39 -31l-127 -443q-9 -31 22 -31h64l-25 -88h-157q-42 -42 -55.5 -62t-13.5 -41q0 -33 38 -33q18 0 47 11l-23 -83q-36 -17 -77 -17q-43 0 -68 19.5t-25 55.5q0 35 21 66.5t91 83.5h-137l26 88h64q31 0 40 31l127 443q9 31 -22 31h-65z
" />
    <glyph glyph-name="iogonek" unicode="&#x12f;" horiz-adv-x="395" 
d="M319 565q-40 0 -66 25t-26 65t26 66t66 26t65.5 -25.5t25.5 -65.5t-25.5 -65.5t-65.5 -25.5zM241 81q32 0 81 125h67q-50 -134 -112 -183q-57 -57 -75 -80.5t-18 -45.5q0 -33 38 -33q19 0 48 11l-23 -83q-37 -17 -78 -17q-43 0 -67.5 19.5t-24.5 55.5q0 34 19.5 63.5
t82.5 76.5q-61 2 -88.5 45t-5.5 106l92 257q9 29 -18 29q-32 0 -84 -127h-67q46 117 95.5 167.5t114.5 50.5t93 -44t4 -110l-89 -247q-6 -20 -1 -28t16 -8z" />
    <glyph glyph-name="Idotaccent" unicode="&#x130;" horiz-adv-x="419" 
d="M376 737q-40 0 -66 25t-26 65t26 66t66 26t65.5 -25.5t25.5 -65.5t-25.5 -65.5t-65.5 -25.5zM421 593q-31 0 -39 -31l-127 -443q-9 -31 22 -31h64l-25 -88h-359l26 88h64q31 0 40 31l127 443q9 31 -22 31h-65l26 87h358l-25 -87h-65z" />
    <glyph glyph-name="dotlessi" unicode="&#x131;" horiz-adv-x="395" 
d="M322 206h67q-42 -113 -91 -164.5t-113 -51.5t-93.5 43t-6.5 108l90 253q11 33 -16 33q-32 0 -84 -127h-67q46 117 95.5 167.5t114.5 50.5t93 -44t4 -110l-89 -247q-6 -20 -1 -28t16 -8q32 0 81 125z" />
    <glyph glyph-name="Kcommaaccent" unicode="&#x136;" horiz-adv-x="790" 
d="M307 88l-25 -88h-327l25 88h61q31 0 40 31l127 443q9 31 -23 31h-60l25 87h344l-25 -87h-54q-31 0 -40 -31l-127 -443q-9 -31 22 -31h37zM570 680h319l-25 -87h-33q-49 0 -89 -31l-232 -194l117 -241q18 -39 68 -39h43l-25 -88h-371l25 88h46q31 0 18 30l-95 214l282 232
q28 22 10 28q-4 1 -9 1h-74zM342 -44q33 0 54.5 -21t21.5 -53q0 -64 -56 -106.5t-140 -57.5l-10 36q86 25 103 63q-25 5 -40 22.5t-15 41.5q0 32 23.5 53.5t58.5 21.5z" />
    <glyph glyph-name="kcommaaccent" unicode="&#x137;" horiz-adv-x="633" 
d="M122 680h221l-194 -680h-151l160 562q9 31 -22 31h-39zM473 81q14 0 31 24t48 100h67q-47 -118 -89 -166.5t-108 -48.5q-116 0 -116 115q0 12 1 37t0.5 37t-3 31.5t-8.5 29.5t-18 20.5t-30 15.5l-2 15q38 26 78 69.5t66 76t65.5 57t84.5 24.5q47 0 73 -23t26 -61
q0 -37 -23 -61.5t-58 -24.5q-32 0 -53 19.5t-21 47.5q0 6 2 16q-15 -11 -70.5 -66t-91.5 -71q101 -5 120 -77q5 -22 7 -81q0 -55 22 -55zM248 -44q33 0 54.5 -21t21.5 -53q0 -64 -56 -106.5t-140 -57.5l-10 36q86 25 103 63q-25 5 -40 22.5t-15 41.5q0 32 23.5 53.5
t58.5 21.5z" />
    <glyph glyph-name="Lacute" unicode="&#x139;" horiz-adv-x="653" 
d="M307 751q47 87 68.5 122.5t41.5 52.5q25 22 53.5 21t50.5 -25q23 -26 20.5 -54t-26.5 -49q-26 -23 -134 -61q-14 -4 -21 -7h-53zM536 290h87l-83 -290h-585l25 88h61q31 0 40 31l126 443q9 31 -22 31h-60l25 87h385l-25 -87h-95q-31 0 -40 -31l-136 -474h118q62 0 103 52
t76 150z" />
    <glyph glyph-name="lacute" unicode="&#x13a;" horiz-adv-x="359" 
d="M250 751q47 87 68.5 122.5t41.5 52.5q25 22 53.5 21t50.5 -25q23 -26 20.5 -54t-26.5 -49q-26 -23 -134 -61q-14 -4 -21 -7h-53zM202 81q33 0 84 125h67q-45 -115 -92.5 -165.5t-115.5 -50.5q-64 0 -92 42t-9 109l119 421q9 31 -22 31h-45l25 87h227l-163 -569
q-8 -30 17 -30z" />
    <glyph glyph-name="Lcommaaccent" unicode="&#x13b;" horiz-adv-x="653" 
d="M536 290h87l-83 -290h-585l25 88h61q31 0 40 31l126 443q9 31 -22 31h-60l25 87h385l-25 -87h-95q-31 0 -40 -31l-136 -474h118q62 0 103 52t76 150zM273 -44q33 0 54.5 -21t21.5 -53q0 -64 -56 -106.5t-140 -57.5l-10 36q86 25 103 63q-25 5 -40 22.5t-15 41.5
q0 32 23.5 53.5t58.5 21.5z" />
    <glyph glyph-name="lcommaaccent" unicode="&#x13c;" horiz-adv-x="359" 
d="M202 81q33 0 84 125h67q-45 -115 -92.5 -165.5t-115.5 -50.5q-64 0 -92 42t-9 109l119 421q9 31 -22 31h-45l25 87h227l-163 -569q-8 -30 17 -30zM88 -44q33 0 54.5 -21t21.5 -53q0 -64 -56 -106.5t-140 -57.5l-10 36q86 25 103 63q-25 5 -40 22.5t-15 41.5
q0 32 23.5 53.5t58.5 21.5z" />
    <glyph glyph-name="Lcaron" unicode="&#x13d;" horiz-adv-x="695" 
d="M654 689q34 0 59 -21.5t25 -64.5q0 -59 -48 -108.5t-125 -78.5l-21 43q36 16 53 32t26 38q-53 22 -53 76q0 36 24 60t60 24zM357 88q62 0 103 52t76 150h87l-83 -290h-585l25 88h61q31 0 40 31l126 443q9 31 -22 31h-60l25 87h385l-25 -87h-95q-31 0 -40 -31l-136 -474
h118z" />
    <glyph glyph-name="lcaron" unicode="&#x13e;" horiz-adv-x="359" 
d="M466 690q34 0 59 -21.5t25 -64.5q0 -59 -48 -108.5t-125 -78.5l-21 43q36 16 53 32t26 38q-53 22 -53 76q0 36 24 60t60 24zM202 81q33 0 84 125h67q-45 -115 -92.5 -165.5t-115.5 -50.5q-64 0 -92 42t-9 109l119 421q9 31 -22 31h-45l25 87h227l-163 -569q-8 -30 17 -30
z" />
    <glyph glyph-name="Lslash" unicode="&#x141;" horiz-adv-x="653" 
d="M536 290h87l-83 -290h-585l25 88h61q31 0 40 31l26 91l-94 -40l23 76l92 40l79 276q9 31 -22 31h-60l25 87h385l-25 -87h-95q-31 0 -40 -31l-56 -195l170 73l-23 -76l-169 -72l-58 -204h118q62 0 103 52t76 150z" />
    <glyph glyph-name="lslash" unicode="&#x142;" horiz-adv-x="359" 
d="M202 81q33 0 84 125h67q-45 -115 -92.5 -165.5t-115.5 -50.5q-64 0 -92 42t-9 109l19 67l-78 -37l22 77l78 36l78 278q9 31 -22 31h-45l25 87h227l-90 -314l102 48l-21 -76l-103 -49l-51 -178q-8 -30 17 -30z" />
    <glyph glyph-name="Nacute" unicode="&#x143;" horiz-adv-x="781" 
d="M472 751q47 87 68.5 122.5t41.5 52.5q25 22 53.5 21t50.5 -25q23 -26 20.5 -54t-26.5 -49q-26 -23 -134 -61q-14 -4 -21 -7h-53zM886 680l-26 -87h-60q-31 0 -40 -31l-161 -562h-70l-253 460l-98 -341q-9 -31 22 -31h75l-25 -88h-295l25 88h61q31 0 40 31l126 443
q9 31 -22 31h-60l25 87h217l217 -395l79 277q9 31 -22 31h-71l25 87h291z" />
    <glyph glyph-name="nacute" unicode="&#x144;" horiz-adv-x="705" 
d="M377 579q47 87 68.5 122.5t41.5 52.5q25 22 53.5 21t50.5 -25q23 -26 20.5 -54t-26.5 -49q-26 -23 -134 -61q-14 -4 -21 -7h-53zM632 206h66q-46 -112 -95 -164t-112 -52q-67 0 -94 46t-3 116l56 161q18 54 9 80t-40 26q-15 0 -28.5 -6.5t-35 -31.5t-43.5 -68t-51.5 -123
t-60.5 -190h-151l114 387q11 40 -14 40q-15 0 -32 -25.5t-45 -101.5h-66q42 117 86.5 167.5t106.5 50.5q51 0 79.5 -32.5t4.5 -111.5l-25 -81h6q80 225 224 225q77 0 109.5 -59.5t0.5 -154.5l-64 -187q-6 -19 -1 -27.5t16 -8.5q14 0 32 25t51 100z" />
    <glyph glyph-name="Ncommaaccent" unicode="&#x145;" horiz-adv-x="781" 
d="M595 680h291l-26 -87h-60q-31 0 -40 -31l-161 -562h-70l-253 460l-98 -341q-9 -31 22 -31h75l-25 -88h-295l25 88h61q31 0 40 31l126 443q9 31 -22 31h-60l25 87h217l217 -395l79 277q9 31 -22 31h-71zM342 -44q33 0 54.5 -21t21.5 -53q0 -64 -56 -106.5t-140 -57.5
l-10 36q86 25 103 63q-25 5 -40 22.5t-15 41.5q0 32 23.5 53.5t58.5 21.5z" />
    <glyph glyph-name="ncommaaccent" unicode="&#x146;" horiz-adv-x="705" 
d="M632 206h66q-46 -112 -95 -164t-112 -52q-67 0 -94 46t-3 116l56 161q18 54 9 80t-40 26q-15 0 -28.5 -6.5t-35 -31.5t-43.5 -68t-51.5 -123t-60.5 -190h-151l114 387q11 40 -14 40q-15 0 -32 -25.5t-45 -101.5h-66q42 117 86.5 167.5t106.5 50.5q51 0 79.5 -32.5
t4.5 -111.5l-25 -81h6q80 225 224 225q77 0 109.5 -59.5t0.5 -154.5l-64 -187q-6 -19 -1 -27.5t16 -8.5q14 0 32 25t51 100zM294 -44q33 0 54.5 -21t21.5 -53q0 -64 -56 -106.5t-140 -57.5l-10 36q86 25 103 63q-25 5 -40 22.5t-15 41.5q0 32 23.5 53.5t58.5 21.5z" />
    <glyph glyph-name="Ncaron" unicode="&#x147;" horiz-adv-x="781" 
d="M669 939h91l-170 -161q-28 -27 -46 -27q-17 0 -32 27l-87 162h90l59 -67zM886 680l-26 -87h-60q-31 0 -40 -31l-161 -562h-70l-253 460l-98 -341q-9 -31 22 -31h75l-25 -88h-295l25 88h61q31 0 40 31l126 443q9 31 -22 31h-60l25 87h217l217 -395l79 277q9 31 -22 31h-71
l25 87h291z" />
    <glyph glyph-name="ncaron" unicode="&#x148;" horiz-adv-x="705" 
d="M574 767h91l-170 -161q-28 -27 -46 -27q-17 0 -32 27l-87 162h90l59 -67zM632 206h66q-46 -112 -95 -164t-112 -52q-67 0 -94 46t-3 116l56 161q18 54 9 80t-40 26q-15 0 -28.5 -6.5t-35 -31.5t-43.5 -68t-51.5 -123t-60.5 -190h-151l114 387q11 40 -14 40
q-15 0 -32 -25.5t-45 -101.5h-66q42 117 86.5 167.5t106.5 50.5q51 0 79.5 -32.5t4.5 -111.5l-25 -81h6q80 225 224 225q77 0 109.5 -59.5t0.5 -154.5l-64 -187q-6 -19 -1 -27.5t16 -8.5q14 0 32 25t51 100z" />
    <glyph glyph-name="Eng" unicode="&#x14a;" horiz-adv-x="781" 
d="M595 680h291l-26 -87h-60q-31 0 -40 -31l-161 -562l-4 -15q-52 -175 -246 -175q-61 0 -93 27t-32 74q0 30 19 50t47 20q26 0 43.5 -16.5t17.5 -41.5q0 -24 -16.5 -40.5t-42.5 -19.5q12 -2 19 -2q46 0 79.5 26t54.5 98l33 108l-202 367l-98 -341q-9 -31 22 -31h75l-25 -88
h-295l25 88h61q31 0 40 31l126 443q9 31 -22 31h-60l25 87h217l217 -395l79 277q9 31 -22 31h-71z" />
    <glyph glyph-name="eng" unicode="&#x14b;" horiz-adv-x="637" 
d="M488 518q76 0 107 -58.5t3 -155.5l-88 -298q-30 -99 -102 -147.5t-150 -48.5q-54 0 -88.5 28t-34.5 71q0 29 18 48t46 19q25 0 41.5 -15.5t16.5 -39.5q0 -23 -16 -39t-40 -19q12 -2 19 -2q44 0 81 35t60 110l89 307q31 106 -31 106q-15 0 -28.5 -6.5t-35 -31.5t-43.5 -68
t-51.5 -123t-60.5 -190h-151l114 387q11 40 -14 40q-15 0 -32 -25.5t-45 -101.5h-66q42 117 86.5 167.5t106.5 50.5q51 0 79.5 -32.5t4.5 -111.5l-25 -81h6q80 225 224 225z" />
    <glyph glyph-name="Omacron" unicode="&#x14c;" horiz-adv-x="736" 
d="M379 856h319l-28 -98h-320zM339 -10q-128 0 -203.5 76.5t-74.5 204.5q1 100 45.5 194.5t135.5 159.5t207 65q128 0 204 -76t75 -204q-1 -75 -28.5 -149t-76 -134.5t-123 -98.5t-161.5 -38zM338 71q52 0 97 44t72 108t42 129.5t14 113.5q-1 65 -32 104t-84 39
q-54 0 -99.5 -43t-72 -106t-41 -126.5t-13.5 -111.5q1 -69 32.5 -110t84.5 -41z" />
    <glyph glyph-name="omacron" unicode="&#x14d;" horiz-adv-x="558" 
d="M250 684h319l-28 -98h-320zM234 -10q-91 0 -149.5 54.5t-58.5 153.5q0 78 35 150t104.5 120.5t157.5 48.5q92 0 151 -53.5t59 -151.5q0 -78 -35.5 -151t-106 -122t-157.5 -49zM227 58q38 0 70.5 38.5t51.5 93t29.5 103.5t11.5 78q1 37 -15.5 58t-44.5 21q-38 0 -71 -38.5
t-52 -92t-29.5 -102t-11.5 -77.5q-1 -41 16 -61.5t45 -20.5z" />
    <glyph glyph-name="Ohungarumlaut" unicode="&#x150;" horiz-adv-x="736" 
d="M334 751q47 87 68.5 122.5t41.5 52.5q25 22 53.5 21t50.5 -25q23 -26 20.5 -54t-26.5 -49q-26 -23 -134 -61q-14 -4 -21 -7h-53zM542 751q45 87 67 122.5t42 52.5q25 22 53.5 21t50.5 -25q23 -26 20.5 -54t-26.5 -49q-18 -16 -47 -28.5t-86 -32.5q-14 -4 -21 -7h-53z
M339 -10q-128 0 -203.5 76.5t-74.5 204.5q1 100 45.5 194.5t135.5 159.5t207 65q128 0 204 -76t75 -204q-1 -75 -28.5 -149t-76 -134.5t-123 -98.5t-161.5 -38zM338 71q52 0 97 44t72 108t42 129.5t14 113.5q-1 65 -32 104t-84 39q-54 0 -99.5 -43t-72 -106t-41 -126.5
t-13.5 -111.5q1 -69 32.5 -110t84.5 -41z" />
    <glyph glyph-name="ohungarumlaut" unicode="&#x151;" horiz-adv-x="558" 
d="M205 579q47 87 68.5 122.5t41.5 52.5q25 22 53.5 21t50.5 -25q23 -26 20.5 -54t-26.5 -49q-26 -23 -134 -61q-14 -4 -21 -7h-53zM413 579q45 87 67 122.5t42 52.5q25 22 53.5 21t50.5 -25q23 -26 20.5 -54t-26.5 -49q-18 -16 -47 -28.5t-86 -32.5q-4 -1 -5.5 -1.5
l-4.5 -1.5t-5.5 -2t-5.5 -2h-53zM234 -10q-91 0 -149.5 54.5t-58.5 153.5q0 78 35 150t104.5 120.5t157.5 48.5q92 0 151 -53.5t59 -151.5q0 -78 -35.5 -151t-106 -122t-157.5 -49zM227 58q38 0 70.5 38.5t51.5 93t29.5 103.5t11.5 78q1 37 -15.5 58t-44.5 21
q-38 0 -71 -38.5t-52 -92t-29.5 -102t-11.5 -77.5q-1 -41 16 -61.5t45 -20.5z" />
    <glyph glyph-name="OE" unicode="&#x152;" horiz-adv-x="1045" 
d="M369 0q-139 0 -224.5 73t-85.5 197q0 171 137.5 290.5t340.5 119.5h568l-62 -217h-95q13 70 8 90q-8 40 -68 40h-135l-72 -249h58q10 0 18 2.5t15 9t11.5 11t11 16.5t8.5 16.5t8.5 20.5t8.5 19h71l-80 -278h-71q1 5 2.5 15t2.5 15.5t2 14.5t0.5 14t-1 11.5t-3 10
t-6.5 7.5t-9.5 5.5t-13.5 1.5h-58l-48 -168h149q32 0 55.5 9.5t40 31t25.5 39t22 50.5h95l-62 -218h-564zM391 88h49l145 505h-74q-118 0 -198.5 -100t-80.5 -237q0 -168 159 -168z" />
    <glyph glyph-name="oe" unicode="&#x153;" horiz-adv-x="864" 
d="M601 69q95 0 152 136h71q-81 -215 -261 -215q-99 0 -153 62q-78 -62 -176 -62q-91 0 -149.5 54.5t-58.5 153.5q0 78 35 150t104.5 120.5t157.5 48.5q108 0 165 -68q81 68 189 68q77 0 123.5 -34t46.5 -89q0 -43 -30 -78t-79.5 -57.5t-103 -36t-110.5 -19.5q-2 -26 -2 -36
q0 -46 20.5 -72t58.5 -26zM227 58q38 0 70.5 38.5t51.5 93t29.5 103.5t11.5 78q1 37 -15.5 58t-44.5 21q-38 0 -71 -38.5t-52 -92t-29.5 -102t-11.5 -77.5q-1 -41 16 -61.5t45 -20.5zM669 447q-49 0 -84.5 -60t-52.5 -140q82 22 133.5 59.5t51.5 88.5q0 52 -48 52z" />
    <glyph glyph-name="Racute" unicode="&#x154;" horiz-adv-x="754" 
d="M600 819q-26 -23 -134 -61q-14 -4 -21 -7h-53q47 87 68.5 122.5t41.5 52.5q25 22 53.5 21t50.5 -25q23 -26 20.5 -54t-26.5 -49zM595 121q6 -18 17.5 -25.5t38.5 -7.5h59l-25 -88h-254l-32 191q-7 45 -28 60.5t-54 15.5h-27l-42 -148q-8 -31 22 -31h55l-25 -88h-345
l25 88h61q31 0 40 31l126 443q9 31 -22 31h-60l25 87h333q110 0 174 -47.5t64 -131.5q0 -87 -68 -147.5t-172 -76.5q67 -27 94 -103zM377 354q70 0 121.5 43.5t51.5 102.5q0 40 -26 66.5t-73 26.5h-67l-69 -239h62z" />
    <glyph glyph-name="racute" unicode="&#x155;" horiz-adv-x="533" 
d="M504 647q-26 -23 -134 -61q-14 -4 -21 -7h-53q47 87 68.5 122.5t41.5 52.5q25 22 53.5 21t50.5 -25q23 -26 20.5 -54t-26.5 -49zM472 518q46 0 69 -24t23 -60q0 -38 -25.5 -64t-63.5 -26q-30 0 -51 17t-21 51v7q-50 -26 -96 -122.5t-107 -296.5h-151l114 385
q12 42 -14 42q-29 0 -77 -127h-66q42 116 86.5 167t105.5 51q22 0 41 -6t36 -22.5t18.5 -45t-10.5 -72.5l-26 -79h5q48 123 98.5 174t111.5 51z" />
    <glyph glyph-name="Rcommaaccent" unicode="&#x156;" horiz-adv-x="754" 
d="M595 121q6 -18 17.5 -25.5t38.5 -7.5h59l-25 -88h-254l-32 191q-7 45 -28 60.5t-54 15.5h-27l-42 -148q-8 -31 22 -31h55l-25 -88h-345l25 88h61q31 0 40 31l126 443q9 31 -22 31h-60l25 87h333q110 0 174 -47.5t64 -131.5q0 -87 -68 -147.5t-172 -76.5q67 -27 94 -103z
M377 354q70 0 121.5 43.5t51.5 102.5q0 40 -26 66.5t-73 26.5h-67l-69 -239h62zM334 -44q33 0 54.5 -21t21.5 -53q0 -64 -56 -106.5t-140 -57.5l-10 36q86 25 103 63q-25 5 -40 22.5t-15 41.5q0 32 23.5 53.5t58.5 21.5z" />
    <glyph glyph-name="rcommaaccent" unicode="&#x157;" horiz-adv-x="533" 
d="M472 518q46 0 69 -24t23 -60q0 -38 -25.5 -64t-63.5 -26q-30 0 -51 17t-21 51v7q-50 -26 -96 -122.5t-107 -296.5h-151l114 385q12 42 -14 42q-29 0 -77 -127h-66q42 116 86.5 167t105.5 51q22 0 41 -6t36 -22.5t18.5 -45t-10.5 -72.5l-26 -79h5q48 123 98.5 174
t111.5 51zM106 -44q33 0 54.5 -21t21.5 -53q0 -64 -56 -106.5t-140 -57.5l-10 36q86 25 103 63q-25 5 -40 22.5t-15 41.5q0 32 23.5 53.5t58.5 21.5z" />
    <glyph glyph-name="Rcaron" unicode="&#x158;" horiz-adv-x="754" 
d="M464 751q-17 0 -32 27l-87 162h90l59 -67l95 66h91l-170 -161q-28 -27 -46 -27zM595 121q6 -18 17.5 -25.5t38.5 -7.5h59l-25 -88h-254l-32 191q-7 45 -28 60.5t-54 15.5h-27l-42 -148q-8 -31 22 -31h55l-25 -88h-345l25 88h61q31 0 40 31l126 443q9 31 -22 31h-60l25 87
h333q110 0 174 -47.5t64 -131.5q0 -87 -68 -147.5t-172 -76.5q67 -27 94 -103zM377 354q70 0 121.5 43.5t51.5 102.5q0 40 -26 66.5t-73 26.5h-67l-69 -239h62z" />
    <glyph glyph-name="rcaron" unicode="&#x159;" horiz-adv-x="533" 
d="M368 579q-17 0 -32 27l-87 162h90l59 -67l95 66h91l-170 -161q-28 -27 -46 -27zM472 518q46 0 69 -24t23 -60q0 -38 -25.5 -64t-63.5 -26q-30 0 -51 17t-21 51v7q-50 -26 -96 -122.5t-107 -296.5h-151l114 385q12 42 -14 42q-29 0 -77 -127h-66q42 116 86.5 167t105.5 51
q22 0 41 -6t36 -22.5t18.5 -45t-10.5 -72.5l-26 -79h5q48 123 98.5 174t111.5 51z" />
    <glyph glyph-name="Sacute" unicode="&#x15a;" horiz-adv-x="576" 
d="M582 819q-26 -23 -134 -61q-14 -4 -21 -7h-53q47 87 68.5 122.5t41.5 52.5q25 22 53.5 21t50.5 -25q23 -26 20.5 -54t-26.5 -49zM446 511q0 26 16.5 46t40.5 25q-40 36 -105 36q-55 0 -90 -26.5t-35 -67.5q0 -33 27 -60.5t65.5 -49.5t76.5 -46t65 -63.5t27 -89.5
q0 -94 -81.5 -159.5t-198.5 -65.5q-102 0 -176 50.5t-74 128.5q0 46 26 74.5t64 28.5q36 0 59.5 -24t23.5 -57q0 -32 -20 -52t-48 -24q38 -54 117 -54q53 0 87.5 29t34.5 72q0 31 -18.5 57t-46 42.5t-60 37.5t-60 41t-46 53.5t-18.5 75.5q0 93 79 157t194 64q97 0 169.5 -45
t72.5 -118q0 -40 -24.5 -64.5t-60.5 -24.5t-59.5 21.5t-23.5 51.5z" />
    <glyph glyph-name="sacute" unicode="&#x15b;" horiz-adv-x="477" 
d="M485 750q23 -26 20.5 -54t-26.5 -49q-26 -23 -134 -61q-14 -4 -21 -7h-53q47 87 68.5 122.5t41.5 52.5q25 22 53.5 21t50.5 -25zM276 518q46 0 88 -10.5t73.5 -38t31.5 -66.5q0 -31 -18.5 -52t-49.5 -21q-30 0 -50.5 19.5t-20.5 50.5q0 29 22 46q-19 8 -40 8
q-40 0 -63.5 -18t-23.5 -45t20 -47.5t48.5 -36t57.5 -32.5t49 -46t20 -67q0 -72 -64 -122t-158 -50q-77 0 -137 35t-60 96q0 36 22 60t55 24q29 0 49.5 -18t20.5 -48q0 -47 -47 -60q33 -25 74 -25q38 0 61.5 18t23.5 45q0 26 -19 47t-46.5 36.5t-55 33t-46.5 47t-19 69.5
q0 68 51.5 118t150.5 50z" />
    <glyph glyph-name="Scedilla" unicode="&#x15e;" horiz-adv-x="576" 
d="M446 511q0 26 16.5 46t40.5 25q-40 36 -105 36q-55 0 -90 -26.5t-35 -67.5q0 -33 27 -60.5t65.5 -49.5t76.5 -46t65 -63.5t27 -89.5q0 -94 -81 -159t-198 -66l-28 -45q46 0 74 -19.5t28 -54.5q0 -46 -40.5 -77t-99.5 -31q-49 0 -98 28l26 47q34 -22 70 -22q23 0 38 10.5
t15 29.5q0 21 -23.5 29.5t-63.5 1.5l-9 30l56 77q-85 13 -140.5 60.5t-55.5 114.5q0 46 26 74.5t64 28.5q36 0 59.5 -24t23.5 -57q0 -32 -20 -52t-48 -24q38 -54 117 -54q53 0 87.5 29t34.5 72q0 31 -18.5 57t-46 42.5t-60 37.5t-60 41t-46 53.5t-18.5 75.5q0 93 79 157
t194 64q97 0 169.5 -45t72.5 -118q0 -40 -24.5 -64.5t-60.5 -24.5t-59.5 21.5t-23.5 51.5z" />
    <glyph glyph-name="scedilla" unicode="&#x15f;" horiz-adv-x="477" 
d="M330 400q0 29 22 46q-19 8 -40 8q-40 0 -63.5 -18t-23.5 -45t20 -47.5t48.5 -36t57.5 -32.5t49 -46t20 -67q0 -71 -63 -121t-155 -51l-28 -44q46 0 74 -19.5t28 -54.5q0 -46 -40.5 -77t-99.5 -31q-49 0 -98 28l26 47q34 -22 70 -22q23 0 38 10.5t15 29.5q0 21 -23.5 29.5
t-63.5 1.5l-9 30l56 76q-62 11 -104 44t-42 83q0 36 22 60t55 24q29 0 49.5 -18t20.5 -48q0 -47 -47 -60q33 -25 74 -25q38 0 61.5 18t23.5 45q0 26 -19 47t-46.5 36.5t-55 33t-46.5 47t-19 69.5q0 68 51.5 118t150.5 50q46 0 88 -10.5t73.5 -38t31.5 -66.5q0 -31 -18.5 -52
t-49.5 -21q-30 0 -50.5 19.5t-20.5 50.5z" />
    <glyph glyph-name="Scaron" unicode="&#x160;" horiz-adv-x="576" 
d="M446 751q-17 0 -32 27l-87 162h90l59 -67l95 66h91l-170 -161q-28 -27 -46 -27zM372 690q97 0 169.5 -45t72.5 -118q0 -40 -24.5 -64.5t-60.5 -24.5t-59.5 21.5t-23.5 51.5q0 26 16.5 46t40.5 25q-40 36 -105 36q-55 0 -90 -26.5t-35 -67.5q0 -33 27 -60.5t65.5 -49.5
t76.5 -46t65 -63.5t27 -89.5q0 -94 -81.5 -159.5t-198.5 -65.5q-102 0 -176 50.5t-74 128.5q0 46 26 74.5t64 28.5q36 0 59.5 -24t23.5 -57q0 -32 -20 -52t-48 -24q38 -54 117 -54q53 0 87.5 29t34.5 72q0 31 -18.5 57t-46 42.5t-60 37.5t-60 41t-46 53.5t-18.5 75.5
q0 93 79 157t194 64z" />
    <glyph glyph-name="scaron" unicode="&#x161;" horiz-adv-x="477" 
d="M343 579q-17 0 -32 27l-87 162h90l59 -67l95 66h91l-170 -161q-28 -27 -46 -27zM276 518q46 0 88 -10.5t73.5 -38t31.5 -66.5q0 -31 -18.5 -52t-49.5 -21q-30 0 -50.5 19.5t-20.5 50.5q0 29 22 46q-19 8 -40 8q-40 0 -63.5 -18t-23.5 -45t20 -47.5t48.5 -36t57.5 -32.5
t49 -46t20 -67q0 -72 -64 -122t-158 -50q-77 0 -137 35t-60 96q0 36 22 60t55 24q29 0 49.5 -18t20.5 -48q0 -47 -47 -60q33 -25 74 -25q38 0 61.5 18t23.5 45q0 26 -19 47t-46.5 36.5t-55 33t-46.5 47t-19 69.5q0 68 51.5 118t150.5 50z" />
    <glyph glyph-name="uni0162" unicode="&#x162;" horiz-adv-x="694" 
d="M154 680h631l-76 -263h-95q22 102 19 130q-4 53 -64 53h-39l-138 -481q-9 -31 22 -31h78l-25 -88h-157l-35 -55q46 0 74 -19.5t28 -54.5q0 -46 -40.5 -77t-99.5 -31q-49 0 -98 28l26 47q34 -22 70 -22q23 0 38 10.5t15 29.5q0 21 -23.5 29.5t-63.5 1.5l-9 30l60 83h-170
l25 88h78q31 0 40 31l138 481h-39q-14 0 -26 -3t-21.5 -6t-19 -11.5t-15.5 -14t-14 -19t-12 -20.5t-11 -25t-10 -25.5t-11 -29t-11 -29.5h-95z" />
    <glyph glyph-name="uni0163" unicode="&#x163;" horiz-adv-x="390" 
d="M271 420l-85 -298q-6 -22 2.5 -31.5t22.5 -9.5q44 0 93 124h66q-78 -210 -213 -215l-29 -45q46 0 74 -19.5t28 -54.5q0 -46 -40.5 -77t-99.5 -31q-49 0 -98 28l26 47q34 -22 70 -22q23 0 38 10.5t15 29.5q0 21 -23.5 29.5t-63.5 1.5l-9 30l58 80q-43 14 -60.5 53.5
t-1.5 92.5l78 277h-69l26 88h75l120 115h58l-33 -115h128l-26 -88h-127z" />
    <glyph glyph-name="Tcaron" unicode="&#x164;" horiz-adv-x="694" 
d="M618 939h91l-170 -161q-28 -27 -46 -27q-17 0 -32 27l-87 162h90l59 -67zM785 680l-76 -263h-95q22 102 19 130q-4 53 -64 53h-39l-138 -481q-9 -31 22 -31h78l-25 -88h-385l25 88h78q31 0 40 31l138 481h-39q-14 0 -26 -3t-21.5 -6t-19 -11.5t-15.5 -14t-14 -19
t-12 -20.5t-11 -25t-10 -25.5t-11 -29t-11 -29.5h-95l76 263h631z" />
    <glyph glyph-name="tcaron" unicode="&#x165;" horiz-adv-x="390" 
d="M486 848q34 0 59 -21.5t25 -64.5q0 -59 -48 -108.5t-125 -78.5l-21 43q36 16 53 32t26 38q-53 22 -53 76q0 36 24 60t60 24zM329 623l-33 -115h128l-26 -88h-127l-85 -298q-6 -22 2.5 -31.5t22.5 -9.5q44 0 93 124h66q-79 -215 -220 -215q-67 0 -97.5 43t-11.5 110
l78 277h-69l26 88h75l120 115h58z" />
    <glyph glyph-name="Tbar" unicode="&#x166;" horiz-adv-x="694" 
d="M154 680h631l-76 -263h-95q22 102 19 130q-4 53 -64 53h-39l-73 -255h135l-19 -65h-135l-46 -161q-9 -31 22 -31h78l-25 -88h-385l25 88h78q31 0 40 31l46 161h-118l19 65h118l73 255h-39q-14 0 -26 -3t-21.5 -6t-19 -11.5t-15.5 -14t-14 -19t-12 -20.5t-11 -25
t-10 -25.5t-11 -29t-11 -29.5h-95z" />
    <glyph glyph-name="tbar" unicode="&#x167;" horiz-adv-x="390" 
d="M398 420h-127l-22 -77h117l-19 -65h-116l-45 -156q-6 -22 2.5 -31.5t22.5 -9.5q44 0 93 124h66q-79 -215 -220 -215q-67 0 -97.5 43t-11.5 110l38 135h-64l19 65h63l22 77h-69l26 88h75l120 115h58l-33 -115h128z" />
    <glyph glyph-name="Umacron" unicode="&#x16a;" horiz-adv-x="734" 
d="M422 856h319l-28 -98h-320zM337 -10q-126 0 -198 79t-33 213l82 280q9 31 -22 31h-58l26 87h359l-25 -87h-64q-31 0 -40 -31l-92 -315q-22 -77 6.5 -124t95.5 -47q57 0 97 35.5t59 102.5l99 348q8 31 -23 31h-60l26 87h273l-26 -87h-57q-31 0 -40 -31l-104 -368
q-26 -93 -102 -148.5t-179 -55.5z" />
    <glyph glyph-name="umacron" unicode="&#x16b;" horiz-adv-x="705" 
d="M315 684h319l-28 -98h-320zM73 302h-66q46 112 95 164t112 52q67 0 94 -46t3 -116l-56 -161q-18 -54 -9 -80t40 -26q15 0 28.5 6.5t35 31.5t43.5 68t51.5 123t60.5 190h151l-114 -387q-11 -40 14 -40q15 0 32 25.5t45 101.5h66q-42 -117 -86.5 -167.5t-106.5 -50.5
q-51 0 -79.5 32.5t-4.5 111.5l25 81h-6q-80 -225 -224 -225q-77 0 -109.5 59.5t-0.5 154.5l64 187q6 19 1 27.5t-16 8.5q-14 0 -32 -25t-51 -100z" />
    <glyph glyph-name="Uring" unicode="&#x16e;" horiz-adv-x="734" 
d="M567 727q-52 0 -84.5 28.5t-32.5 71.5q0 53 41 88.5t98 35.5q52 0 85.5 -28.5t33.5 -70.5q0 -52 -41.5 -88.5t-99.5 -36.5zM572 786q24 0 41.5 18.5t17.5 43.5q0 20 -12 33t-33 13q-24 0 -42 -18.5t-18 -44.5q0 -21 13 -33t33 -12zM337 -10q-126 0 -198 79t-33 213
l82 280q9 31 -22 31h-58l26 87h359l-25 -87h-64q-31 0 -40 -31l-92 -315q-22 -77 6.5 -124t95.5 -47q57 0 97 35.5t59 102.5l99 348q8 31 -23 31h-60l26 87h273l-26 -87h-57q-31 0 -40 -31l-104 -368q-26 -93 -102 -148.5t-179 -55.5z" />
    <glyph glyph-name="uring" unicode="&#x16f;" horiz-adv-x="705" 
d="M460 555q-52 0 -84.5 28.5t-32.5 71.5q0 53 41 88.5t98 35.5q52 0 85.5 -28.5t33.5 -70.5q0 -52 -41.5 -88.5t-99.5 -36.5zM465 614q24 0 41.5 18.5t17.5 43.5q0 20 -12 33t-33 13q-24 0 -42 -18.5t-18 -44.5q0 -21 13 -33t33 -12zM73 302h-66q46 112 95 164t112 52
q67 0 94 -46t3 -116l-56 -161q-18 -54 -9 -80t40 -26q15 0 28.5 6.5t35 31.5t43.5 68t51.5 123t60.5 190h151l-114 -387q-11 -40 14 -40q15 0 32 25.5t45 101.5h66q-42 -117 -86.5 -167.5t-106.5 -50.5q-51 0 -79.5 32.5t-4.5 111.5l25 81h-6q-80 -225 -224 -225
q-77 0 -109.5 59.5t-0.5 154.5l64 187q6 19 1 27.5t-16 8.5q-14 0 -32 -25t-51 -100z" />
    <glyph glyph-name="Uhungarumlaut" unicode="&#x170;" horiz-adv-x="734" 
d="M377 751q47 87 68.5 122.5t41.5 52.5q25 22 53.5 21t50.5 -25q23 -26 20.5 -54t-26.5 -49q-26 -23 -134 -61q-14 -4 -21 -7h-53zM585 751q45 87 67 122.5t42 52.5q25 22 53.5 21t50.5 -25q23 -26 20.5 -54t-26.5 -49q-18 -16 -47 -28.5t-86 -32.5q-14 -4 -21 -7h-53z
M337 -10q-126 0 -198 79t-33 213l82 280q9 31 -22 31h-58l26 87h359l-25 -87h-64q-31 0 -40 -31l-92 -315q-22 -77 6.5 -124t95.5 -47q57 0 97 35.5t59 102.5l99 348q8 31 -23 31h-60l26 87h273l-26 -87h-57q-31 0 -40 -31l-104 -368q-26 -93 -102 -148.5t-179 -55.5z" />
    <glyph glyph-name="uhungarumlaut" unicode="&#x171;" horiz-adv-x="705" 
d="M270 579q47 87 68.5 122.5t41.5 52.5q25 22 53.5 21t50.5 -25q23 -26 20.5 -54t-26.5 -49q-26 -23 -134 -61q-14 -4 -21 -7h-53zM478 579q45 87 67 122.5t42 52.5q25 22 53.5 21t50.5 -25q23 -26 20.5 -54t-26.5 -49q-18 -16 -47 -28.5t-86 -32.5q-14 -4 -21 -7h-53z
M73 302h-66q46 112 95 164t112 52q67 0 94 -46t3 -116l-56 -161q-18 -54 -9 -80t40 -26q15 0 28.5 6.5t35 31.5t43.5 68t51.5 123t60.5 190h151l-114 -387q-11 -40 14 -40q15 0 32 25.5t45 101.5h66q-42 -117 -86.5 -167.5t-106.5 -50.5q-51 0 -79.5 32.5t-4.5 111.5l25 81
h-6q-80 -225 -224 -225q-77 0 -109.5 59.5t-0.5 154.5l64 187q6 19 1 27.5t-16 8.5q-14 0 -32 -25t-51 -100z" />
    <glyph glyph-name="Uogonek" unicode="&#x172;" horiz-adv-x="734" 
d="M572 680h273l-26 -87h-57q-31 0 -40 -31l-104 -368q-23 -82 -84 -134h1q-100 -101 -113 -119q-17 -23 -17 -44q0 -33 38 -33q19 0 48 11l-23 -83q-36 -17 -77 -17q-43 0 -68 19.5t-25 55.5q0 35 20.5 65.5t88.5 81.5q-32 -7 -70 -7q-126 0 -198 79t-33 213l82 280
q9 31 -22 31h-58l26 87h359l-25 -87h-64q-31 0 -40 -31l-92 -315q-22 -77 6.5 -124t95.5 -47q57 0 97 35.5t59 102.5l99 348q8 31 -23 31h-60z" />
    <glyph glyph-name="uogonek" unicode="&#x173;" horiz-adv-x="705" 
d="M591 20q-45 -38 -60.5 -57.5t-15.5 -40.5q0 -32 38 -32q18 0 48 10l-23 -83q-34 -16 -77 -16t-68 19.5t-25 55.5q0 55 77 115q-43 6 -63.5 39.5t0.5 103.5l25 81h-6q-80 -225 -224 -225q-77 0 -109.5 59.5t-0.5 154.5l64 187q6 19 1 27.5t-16 8.5q-14 0 -32 -25t-51 -100
h-66q46 112 95 164t112 52q67 0 94 -46t3 -116l-56 -161q-18 -54 -9 -80t40 -26q15 0 28.5 6.5t35 31.5t43.5 68t51.5 123t60.5 190h151l-114 -387q-11 -40 14 -40q15 0 32 25.5t45 101.5h66q-50 -140 -108 -188z" />
    <glyph glyph-name="Wcircumflex" unicode="&#x174;" horiz-adv-x="1100" 
d="M761 822l-95 -66h-91l170 161q28 27 46 27q17 0 32 -27l87 -162h-90zM958 680h265l-26 -87h-37q-36 0 -57 -34l-369 -559h-90l-43 417l-266 -417h-105l-55 563q-3 30 -39 30h-39l25 87h349l-25 -87h-58q-15 0 -23 -8.5t-7 -22.5l25 -323l216 323q8 13 4.5 22t-18.5 9h-62
l26 87h331l-25 -87h-68q-14 0 -22.5 -9t-7.5 -22l32 -325l209 324q9 13 6 22.5t-18 9.5h-53z" />
    <glyph glyph-name="wcircumflex" unicode="&#x175;" horiz-adv-x="838" 
d="M467 584h-91l170 161q28 27 46 27q17 0 32 -27l87 -162h-90l-59 67zM730 518q43 0 71 -31t28 -93q0 -47 -16 -101.5t-47 -107.5t-71 -97t-92 -71t-106 -27q-64 0 -93 33.5t-29 81.5q0 18 7 48h-5q-61 -163 -193 -163q-64 0 -96.5 36.5t-32.5 84.5q0 44 29.5 110
t59.5 119.5t30 68.5q0 18 -19 18q-9 0 -18 -8t-25.5 -36.5t-39.5 -79.5h-66q45 111 95.5 163t113.5 52q49 0 77.5 -27t28.5 -67q0 -46 -57 -147.5t-57 -140.5q0 -21 11 -34.5t32 -13.5q30 0 57.5 29t54.5 90.5t50 129t53 171.5h137q-15 -48 -36.5 -116t-30 -95.5t-18.5 -63
t-13.5 -53t-3.5 -30.5q0 -30 16.5 -46t42.5 -16q65 0 125.5 84.5t72.5 177.5q-14 -8 -33 -8q-35 0 -60 26t-25 63t26 62t65 25z" />
    <glyph glyph-name="Ycircumflex" unicode="&#x176;" horiz-adv-x="688" 
d="M450 756h-91l170 161q28 27 46 27q17 0 32 -27l87 -162h-90l-59 67zM535 680h275l-25 -87h-42q-36 0 -65 -32l-237 -265l-50 -177q-9 -31 22 -31h79l-26 -88h-387l25 88h79q31 0 40 31l40 139l-82 307q-7 28 -43 28h-41l25 87h331l-25 -87h-45q-16 0 -23 -8.5t-4 -22.5
l47 -195l171 198q12 13 9.5 20.5t-18.5 7.5h-55z" />
    <glyph glyph-name="ycircumflex" unicode="&#x177;" horiz-adv-x="623" 
d="M356 584h-91l170 161q28 27 46 27q17 0 32 -27l87 -162h-90l-59 67zM513 518q45 0 74 -32.5t29 -94.5q0 -73 -42.5 -174t-106 -191t-147.5 -153t-158 -63q-66 0 -112.5 32.5t-46.5 87.5q0 38 22.5 61.5t56.5 23.5q31 0 50 -19t19 -47q0 -24 -14 -43t-36 -27
q29 -12 66 -12q35 0 70 18q20 205 16 325.5t-23 168.5t-55 48q-26 0 -48.5 -26.5t-45.5 -97.5h-67q31 108 80 161.5t123 53.5q64 0 106.5 -38.5t59.5 -105.5t19 -157.5t-15 -193.5q57 78 98 169.5t50 155.5q-12 -6 -28 -6q-36 0 -61 26t-25 63t25.5 62t66.5 25z" />
    <glyph glyph-name="Ydieresis" unicode="&#x178;" horiz-adv-x="688" 
d="M419 740q-37 0 -61.5 23.5t-24.5 60.5t24.5 62t61.5 25q38 0 62 -24t24 -62q0 -37 -24 -61t-62 -24zM639 740q-37 0 -61.5 23.5t-24.5 60.5t24.5 62t61.5 25q38 0 62 -24t24 -62q0 -37 -24 -61t-62 -24zM535 680h275l-25 -87h-42q-36 0 -65 -32l-237 -265l-50 -177
q-9 -31 22 -31h79l-26 -88h-387l25 88h79q31 0 40 31l40 139l-82 307q-7 28 -43 28h-41l25 87h331l-25 -87h-45q-16 0 -23 -8.5t-4 -22.5l47 -195l171 198q12 13 9.5 20.5t-18.5 7.5h-55z" />
    <glyph glyph-name="Zacute" unicode="&#x179;" horiz-adv-x="617" 
d="M593 820q-26 -23 -134 -61q-14 -4 -21 -7h-53q47 87 68.5 122.5t41.5 52.5q25 22 53.5 21t50.5 -25q23 -26 20.5 -54t-26.5 -49zM695 680l-17 -57l-477 -538h163q12 0 23.5 3t21 11t17.5 15.5t16 21.5t13.5 23t13 28t11.5 28.5t11.5 30.5t10.5 29h88l-79 -275h-557l14 50
l479 546h-144q-12 0 -23 -3t-21 -10t-17.5 -13.5t-15 -19.5t-12.5 -21.5t-12.5 -26.5t-11 -26.5t-11 -29.5t-10.5 -29h-88l76 263h538z" />
    <glyph glyph-name="zacute" unicode="&#x17a;" horiz-adv-x="542" 
d="M495 647q-26 -23 -134 -61q-14 -4 -21 -7h-53q47 87 68.5 122.5t41.5 52.5q25 22 53.5 21t50.5 -25q23 -26 20.5 -54t-26.5 -49zM426 366q-52 -77 -116 -129q-44 -36 -141 -72q90 -81 173 -81h4q-27 25 -24 62q3 30 26 49.5t54 19.5q33 0 56.5 -23.5t23.5 -63.5
q0 -55 -43 -96.5t-111 -41.5q-44 0 -84.5 24t-100.5 86q2 -48 -19 -79t-59 -31q-31 0 -45.5 18.5t-13.5 42.5q1 63 92 127l270 194q-18 6 -52.5 19t-61 21t-50.5 11q18 -18 18 -45q-1 -29 -23.5 -50t-55.5 -21q-35 0 -58.5 24t-23.5 60q0 51 43 89t114 38q99 0 203 -105
q19 105 80 105q24 0 37.5 -16.5t13.5 -39.5q0 -33 -30.5 -60t-95.5 -36z" />
    <glyph glyph-name="Zdotaccent" unicode="&#x17b;" horiz-adv-x="617" 
d="M436 737q-40 0 -66 25t-26 65t26 66t66 26t65.5 -25.5t25.5 -65.5t-25.5 -65.5t-65.5 -25.5zM695 680l-17 -57l-477 -538h163q12 0 23.5 3t21 11t17.5 15.5t16 21.5t13.5 23t13 28t11.5 28.5t11.5 30.5t10.5 29h88l-79 -275h-557l14 50l479 546h-144q-12 0 -23 -3
t-21 -10t-17.5 -13.5t-15 -19.5t-12.5 -21.5t-12.5 -26.5t-11 -26.5t-11 -29.5t-10.5 -29h-88l76 263h538z" />
    <glyph glyph-name="zdotaccent" unicode="&#x17c;" horiz-adv-x="542" 
d="M352 565q-40 0 -66 25t-26 65t26 66t66 26t65.5 -25.5t25.5 -65.5t-25.5 -65.5t-65.5 -25.5zM426 366q-52 -77 -116 -129q-44 -36 -141 -72q90 -81 173 -81h4q-27 25 -24 62q3 30 26 49.5t54 19.5q33 0 56.5 -23.5t23.5 -63.5q0 -55 -43 -96.5t-111 -41.5q-44 0 -84.5 24
t-100.5 86q2 -48 -19 -79t-59 -31q-31 0 -45.5 18.5t-13.5 42.5q1 63 92 127l270 194q-18 6 -52.5 19t-61 21t-50.5 11q18 -18 18 -45q-1 -29 -23.5 -50t-55.5 -21q-35 0 -58.5 24t-23.5 60q0 51 43 89t114 38q99 0 203 -105q19 105 80 105q24 0 37.5 -16.5t13.5 -39.5
q0 -33 -30.5 -60t-95.5 -36z" />
    <glyph glyph-name="Zcaron" unicode="&#x17d;" horiz-adv-x="617" 
d="M443 751q-17 0 -32 27l-87 162h90l59 -67l95 66h91l-170 -161q-28 -27 -46 -27zM695 680l-17 -57l-477 -538h163q12 0 23.5 3t21 11t17.5 15.5t16 21.5t13.5 23t13 28t11.5 28.5t11.5 30.5t10.5 29h88l-79 -275h-557l14 50l479 546h-144q-12 0 -23 -3t-21 -10
t-17.5 -13.5t-15 -19.5t-12.5 -21.5t-12.5 -26.5t-11 -26.5t-11 -29.5t-10.5 -29h-88l76 263h538z" />
    <glyph glyph-name="zcaron" unicode="&#x17e;" horiz-adv-x="542" 
d="M359 579q-17 0 -32 27l-87 162h90l59 -67l95 66h91l-170 -161q-28 -27 -46 -27zM501 518q24 0 37.5 -16.5t13.5 -39.5q0 -33 -30.5 -60t-95.5 -36q-52 -77 -116 -129q-44 -36 -141 -72q90 -81 173 -81h4q-27 25 -24 62q3 30 26 49.5t54 19.5q33 0 56.5 -23.5t23.5 -63.5
q0 -55 -43 -96.5t-111 -41.5q-44 0 -84.5 24t-100.5 86q2 -48 -19 -79t-59 -31q-31 0 -45.5 18.5t-13.5 42.5q1 63 92 127l270 194q-18 6 -52.5 19t-61 21t-50.5 11q18 -18 18 -45q-1 -29 -23.5 -50t-55.5 -21q-35 0 -58.5 24t-23.5 60q0 51 43 89t114 38q99 0 203 -105
q19 105 80 105z" />
    <glyph glyph-name="Scommaaccent" unicode="&#x218;" horiz-adv-x="576" 
d="M446 511q0 26 16.5 46t40.5 25q-40 36 -105 36q-55 0 -90 -26.5t-35 -67.5q0 -33 27 -60.5t65.5 -49.5t76.5 -46t65 -63.5t27 -89.5q0 -94 -81.5 -159.5t-198.5 -65.5q-102 0 -176 50.5t-74 128.5q0 46 26 74.5t64 28.5q36 0 59.5 -24t23.5 -57q0 -32 -20 -52t-48 -24
q38 -54 117 -54q53 0 87.5 29t34.5 72q0 31 -18.5 57t-46 42.5t-60 37.5t-60 41t-46 53.5t-18.5 75.5q0 93 79 157t194 64q97 0 169.5 -45t72.5 -118q0 -40 -24.5 -64.5t-60.5 -24.5t-59.5 21.5t-23.5 51.5zM202 -44q33 0 54.5 -21t21.5 -53q0 -64 -56 -106.5t-140 -57.5
l-10 36q86 25 103 63q-25 5 -40 22.5t-15 41.5q0 32 23.5 53.5t58.5 21.5z" />
    <glyph glyph-name="scommaaccent" unicode="&#x219;" horiz-adv-x="477" 
d="M330 400q0 29 22 46q-19 8 -40 8q-40 0 -63.5 -18t-23.5 -45t20 -47.5t48.5 -36t57.5 -32.5t49 -46t20 -67q0 -72 -64 -122t-158 -50q-77 0 -137 35t-60 96q0 36 22 60t55 24q29 0 49.5 -18t20.5 -48q0 -47 -47 -60q33 -25 74 -25q38 0 61.5 18t23.5 45q0 26 -19 47
t-46.5 36.5t-55 33t-46.5 47t-19 69.5q0 68 51.5 118t150.5 50q46 0 88 -10.5t73.5 -38t31.5 -66.5q0 -31 -18.5 -52t-49.5 -21q-30 0 -50.5 19.5t-20.5 50.5zM162 -43q33 0 54.5 -21t21.5 -53q0 -64 -56 -106.5t-140 -57.5l-10 36q86 25 103 63q-25 5 -40 22.5t-15 41.5
q0 32 23.5 53.5t58.5 21.5z" />
    <glyph glyph-name="uni021A" unicode="&#x21a;" horiz-adv-x="694" 
d="M154 680h631l-76 -263h-95q22 102 19 130q-4 53 -64 53h-39l-138 -481q-9 -31 22 -31h78l-25 -88h-385l25 88h78q31 0 40 31l138 481h-39q-14 0 -26 -3t-21.5 -6t-19 -11.5t-15.5 -14t-14 -19t-12 -20.5t-11 -25t-10 -25.5t-11 -29t-11 -29.5h-95zM261 -44q33 0 54.5 -21
t21.5 -53q0 -64 -56 -106.5t-140 -57.5l-10 36q86 25 103 63q-25 5 -40 22.5t-15 41.5q0 32 23.5 53.5t58.5 21.5z" />
    <glyph glyph-name="uni021B" unicode="&#x21b;" horiz-adv-x="390" 
d="M271 420l-85 -298q-6 -22 2.5 -31.5t22.5 -9.5q44 0 93 124h66q-79 -215 -220 -215q-67 0 -97.5 43t-11.5 110l78 277h-69l26 88h75l120 115h58l-33 -115h128l-26 -88h-127zM126 -44q33 0 54.5 -21t21.5 -53q0 -64 -56 -106.5t-140 -57.5l-10 36q86 25 103 63
q-25 5 -40 22.5t-15 41.5q0 32 23.5 53.5t58.5 21.5z" />
    <glyph glyph-name="circumflex" unicode="&#x2c6;" horiz-adv-x="356" 
d="M201 584h-91l170 161q28 27 46 27q17 0 32 -27l87 -162h-90l-59 67z" />
    <glyph glyph-name="caron" unicode="&#x2c7;" horiz-adv-x="356" 
d="M391 767h91l-170 -161q-28 -27 -46 -27q-17 0 -32 27l-87 162h90l59 -67z" />
    <glyph glyph-name="breve" unicode="&#x2d8;" horiz-adv-x="370" 
d="M486 738q-29 -83 -83.5 -124.5t-125.5 -41.5q-73 0 -104 41.5t-12 124.5h76q1 -34 15 -50t45 -16q61 0 104 66h85z" />
    <glyph glyph-name="dotaccent" unicode="&#x2d9;" horiz-adv-x="258" 
d="M244 565q-40 0 -66 25t-26 65t26 66t66 26t65.5 -25.5t25.5 -65.5t-25.5 -65.5t-65.5 -25.5z" />
    <glyph glyph-name="ring" unicode="&#x2da;" horiz-adv-x="298" 
d="M253 555q-52 0 -84.5 28.5t-32.5 71.5q0 53 41 88.5t98 35.5q52 0 85.5 -28.5t33.5 -70.5q0 -52 -41.5 -88.5t-99.5 -36.5zM258 614q24 0 41.5 18.5t17.5 43.5q0 20 -12 33t-33 13q-24 0 -42 -18.5t-18 -44.5q0 -21 13 -33t33 -12z" />
    <glyph glyph-name="ogonek" unicode="&#x2db;" horiz-adv-x="281" 
d="M95 -218q-36 -17 -77 -17q-43 0 -68 19.5t-25 55.5q0 43 36 84.5t162 125.5h39q-100 -101 -113 -119q-17 -23 -17 -44q0 -33 38 -33q19 0 48 11z" />
    <glyph glyph-name="tilde" unicode="&#x2dc;" horiz-adv-x="481" 
d="M561 733q-13 -69 -50.5 -113t-101.5 -44q-33 0 -80 28.5t-75 28.5q-17 0 -28.5 -7.5t-16.5 -15.5t-13 -27l-56 18q14 67 50.5 109t98.5 42q35 0 84 -28.5t73 -28.5q7 0 13 1.5t10 3t8.5 6t7 6.5t6 8.5t4.5 7.5t5 9l3 8z" />
    <glyph glyph-name="hungarumlaut" unicode="&#x2dd;" horiz-adv-x="484" 
d="M140 579q47 87 68.5 122.5t41.5 52.5q25 22 53.5 21t50.5 -25q23 -26 20.5 -54t-26.5 -49q-26 -23 -134 -61q-14 -4 -21 -7h-53zM348 579q45 87 67 122.5t42 52.5q25 22 53.5 21t50.5 -25q23 -26 20.5 -54t-26.5 -49q-18 -16 -47 -28.5t-86 -32.5q-4 -1 -5.5 -1.5
l-4.5 -1.5t-5.5 -2t-5.5 -2h-53z" />
    <glyph glyph-name="uni030C" unicode="&#x30c;" horiz-adv-x="0" 
d="M-50 690q34 0 59 -21.5t25 -64.5q0 -59 -48 -108.5t-125 -78.5l-21 43q36 16 53 32t26 38q-53 22 -53 76q0 36 24 60t60 24z" />
    <glyph glyph-name="uni0326" unicode="&#x326;" horiz-adv-x="0" 
d="M-214 -44q33 0 54.5 -21t21.5 -53q0 -64 -56 -106.5t-140 -57.5l-10 36q86 25 103 63q-25 5 -40 22.5t-15 41.5q0 32 23.5 53.5t58.5 21.5z" />
    <glyph glyph-name="Wgrave" unicode="&#x1e80;" horiz-adv-x="1100" 
d="M708 750q-67 61 -82 83q-19 28 -19 56q0 32 22.5 51.5t52.5 19.5q50 0 68 -56q13 -38 13 -154h-55zM958 680h265l-26 -87h-37q-36 0 -57 -34l-369 -559h-90l-43 417l-266 -417h-105l-55 563q-3 30 -39 30h-39l25 87h349l-25 -87h-58q-15 0 -23 -8.5t-7 -22.5l25 -323
l216 323q8 13 4.5 22t-18.5 9h-62l26 87h331l-25 -87h-68q-14 0 -22.5 -9t-7.5 -22l32 -325l209 324q9 13 6 22.5t-18 9.5h-53z" />
    <glyph glyph-name="wgrave" unicode="&#x1e81;" horiz-adv-x="838" 
d="M564 578h-55q-67 61 -82 83q-19 28 -19 56q0 32 22.5 51.5t52.5 19.5q50 0 68 -56q13 -38 13 -154zM730 518q43 0 71 -31t28 -93q0 -47 -16 -101.5t-47 -107.5t-71 -97t-92 -71t-106 -27q-64 0 -93 33.5t-29 81.5q0 18 7 48h-5q-61 -163 -193 -163q-64 0 -96.5 36.5
t-32.5 84.5q0 44 29.5 110t59.5 119.5t30 68.5q0 18 -19 18q-9 0 -18 -8t-25.5 -36.5t-39.5 -79.5h-66q45 111 95.5 163t113.5 52q49 0 77.5 -27t28.5 -67q0 -46 -57 -147.5t-57 -140.5q0 -21 11 -34.5t32 -13.5q30 0 57.5 29t54.5 90.5t50 129t53 171.5h137
q-15 -48 -36.5 -116t-30 -95.5t-18.5 -63t-13.5 -53t-3.5 -30.5q0 -30 16.5 -46t42.5 -16q65 0 125.5 84.5t72.5 177.5q-14 -8 -33 -8q-35 0 -60 26t-25 63t26 62t65 25z" />
    <glyph glyph-name="Wacute" unicode="&#x1e82;" horiz-adv-x="1100" 
d="M903 819q-26 -23 -134 -61q-14 -4 -21 -7h-53q47 87 68.5 122.5t41.5 52.5q25 22 53.5 21t50.5 -25q23 -26 20.5 -54t-26.5 -49zM958 680h265l-26 -87h-37q-36 0 -57 -34l-369 -559h-90l-43 417l-266 -417h-105l-55 563q-3 30 -39 30h-39l25 87h349l-25 -87h-58
q-15 0 -23 -8.5t-7 -22.5l25 -323l216 323q8 13 4.5 22t-18.5 9h-62l26 87h331l-25 -87h-68q-14 0 -22.5 -9t-7.5 -22l32 -325l209 324q9 13 6 22.5t-18 9.5h-53z" />
    <glyph glyph-name="wacute" unicode="&#x1e83;" horiz-adv-x="838" 
d="M704 647q-26 -23 -134 -61q-14 -4 -21 -7h-53q47 87 68.5 122.5t41.5 52.5q25 22 53.5 21t50.5 -25q23 -26 20.5 -54t-26.5 -49zM730 518q43 0 71 -31t28 -93q0 -47 -16 -101.5t-47 -107.5t-71 -97t-92 -71t-106 -27q-64 0 -93 33.5t-29 81.5q0 18 7 48h-5
q-61 -163 -193 -163q-64 0 -96.5 36.5t-32.5 84.5q0 44 29.5 110t59.5 119.5t30 68.5q0 18 -19 18q-9 0 -18 -8t-25.5 -36.5t-39.5 -79.5h-66q45 111 95.5 163t113.5 52q49 0 77.5 -27t28.5 -67q0 -46 -57 -147.5t-57 -140.5q0 -21 11 -34.5t32 -13.5q30 0 57.5 29
t54.5 90.5t50 129t53 171.5h137q-15 -48 -36.5 -116t-30 -95.5t-18.5 -63t-13.5 -53t-3.5 -30.5q0 -30 16.5 -46t42.5 -16q65 0 125.5 84.5t72.5 177.5q-14 -8 -33 -8q-35 0 -60 26t-25 63t26 62t65 25z" />
    <glyph glyph-name="Wdieresis" unicode="&#x1e84;" horiz-adv-x="1100" 
d="M635 740q-37 0 -61.5 23.5t-24.5 60.5t24.5 62t61.5 25q38 0 62 -24t24 -62q0 -37 -24 -61t-62 -24zM855 740q-37 0 -61.5 23.5t-24.5 60.5t24.5 62t61.5 25q38 0 62 -24t24 -62q0 -37 -24 -61t-62 -24zM958 680h265l-26 -87h-37q-36 0 -57 -34l-369 -559h-90l-43 417
l-266 -417h-105l-55 563q-3 30 -39 30h-39l25 87h349l-25 -87h-58q-15 0 -23 -8.5t-7 -22.5l25 -323l216 323q8 13 4.5 22t-18.5 9h-62l26 87h331l-25 -87h-68q-14 0 -22.5 -9t-7.5 -22l32 -325l209 324q9 13 6 22.5t-18 9.5h-53z" />
    <glyph glyph-name="wdieresis" unicode="&#x1e85;" horiz-adv-x="838" 
d="M436 568q-37 0 -61.5 23.5t-24.5 60.5t24.5 62t61.5 25q38 0 62 -24t24 -62q0 -37 -24 -61t-62 -24zM656 568q-37 0 -61.5 23.5t-24.5 60.5t24.5 62t61.5 25q38 0 62 -24t24 -62q0 -37 -24 -61t-62 -24zM730 518q43 0 71 -31t28 -93q0 -47 -16 -101.5t-47 -107.5t-71 -97
t-92 -71t-106 -27q-64 0 -93 33.5t-29 81.5q0 18 7 48h-5q-61 -163 -193 -163q-64 0 -96.5 36.5t-32.5 84.5q0 44 29.5 110t59.5 119.5t30 68.5q0 18 -19 18q-9 0 -18 -8t-25.5 -36.5t-39.5 -79.5h-66q45 111 95.5 163t113.5 52q49 0 77.5 -27t28.5 -67q0 -46 -57 -147.5
t-57 -140.5q0 -21 11 -34.5t32 -13.5q30 0 57.5 29t54.5 90.5t50 129t53 171.5h137q-15 -48 -36.5 -116t-30 -95.5t-18.5 -63t-13.5 -53t-3.5 -30.5q0 -30 16.5 -46t42.5 -16q65 0 125.5 84.5t72.5 177.5q-14 -8 -33 -8q-35 0 -60 26t-25 63t26 62t65 25z" />
    <glyph glyph-name="Ygrave" unicode="&#x1ef2;" horiz-adv-x="688" 
d="M547 750h-55q-67 61 -82 83q-19 28 -19 56q0 32 22.5 51.5t52.5 19.5q50 0 68 -56q13 -38 13 -154zM535 680h275l-25 -87h-42q-36 0 -65 -32l-237 -265l-50 -177q-9 -31 22 -31h79l-26 -88h-387l25 88h79q31 0 40 31l40 139l-82 307q-7 28 -43 28h-41l25 87h331l-25 -87
h-45q-16 0 -23 -8.5t-4 -22.5l47 -195l171 198q12 13 9.5 20.5t-18.5 7.5h-55z" />
    <glyph glyph-name="ygrave" unicode="&#x1ef3;" horiz-adv-x="623" 
d="M453 578h-55q-67 61 -82 83q-19 28 -19 56q0 32 22.5 51.5t52.5 19.5q50 0 68 -56q13 -38 13 -154zM513 518q45 0 74 -32.5t29 -94.5q0 -73 -42.5 -174t-106 -191t-147.5 -153t-158 -63q-66 0 -112.5 32.5t-46.5 87.5q0 38 22.5 61.5t56.5 23.5q31 0 50 -19t19 -47
q0 -24 -14 -43t-36 -27q29 -12 66 -12q35 0 70 18q20 205 16 325.5t-23 168.5t-55 48q-26 0 -48.5 -26.5t-45.5 -97.5h-67q31 108 80 161.5t123 53.5q64 0 106.5 -38.5t59.5 -105.5t19 -157.5t-15 -193.5q57 78 98 169.5t50 155.5q-12 -6 -28 -6q-36 0 -61 26t-25 63
t25.5 62t66.5 25z" />
    <glyph glyph-name="uni2009" unicode="&#x2009;" horiz-adv-x="148" 
 />
    <glyph glyph-name="uni200A" unicode="&#x200a;" horiz-adv-x="88" 
 />
    <glyph glyph-name="endash" unicode="&#x2013;" horiz-adv-x="500" 
d="M76 310h380l-25 -87h-380z" />
    <glyph glyph-name="emdash" unicode="&#x2014;" horiz-adv-x="1000" 
d="M76 310h880l-25 -87h-880z" />
    <glyph glyph-name="quoteleft" unicode="&#x2018;" horiz-adv-x="262" 
d="M194 385q-37 0 -63.5 23t-26.5 70q0 75 70.5 135.5t174.5 85.5l15 -46q-66 -23 -95 -44.5t-40 -50.5q57 -23 57 -82q0 -39 -26 -65t-66 -26z" />
    <glyph glyph-name="quoteright" unicode="&#x2019;" horiz-adv-x="261" 
d="M233 699q37 0 63.5 -23t26.5 -70q0 -75 -70.5 -135.5t-174.5 -85.5l-15 46q66 23 95 44.5t40 50.5q-57 23 -57 82q0 39 26 65t66 26z" />
    <glyph glyph-name="quotesinglbase" unicode="&#x201a;" horiz-adv-x="261" 
d="M83 174q37 0 63.5 -23t26.5 -70q0 -75 -70.5 -135.5t-174.5 -85.5l-15 46q66 23 95 44.5t40 50.5q-57 23 -57 82q0 39 26 65t66 26z" />
    <glyph glyph-name="quotedblleft" unicode="&#x201c;" horiz-adv-x="497" 
d="M194 385q-37 0 -63.5 23t-26.5 70q0 75 70.5 135.5t174.5 85.5l15 -46q-66 -23 -95 -44.5t-40 -50.5q57 -23 57 -82q0 -39 -26 -65t-66 -26zM429 385q-37 0 -63.5 23t-26.5 70q0 75 70.5 135.5t174.5 85.5l15 -46q-66 -23 -95 -44.5t-40 -50.5q57 -23 57 -82
q0 -39 -26 -65t-66 -26z" />
    <glyph glyph-name="quotedblright" unicode="&#x201d;" horiz-adv-x="496" 
d="M233 699q37 0 63.5 -23t26.5 -70q0 -75 -70.5 -135.5t-174.5 -85.5l-15 46q66 23 95 44.5t40 50.5q-57 23 -57 82q0 39 26 65t66 26zM468 699q37 0 63.5 -23t26.5 -70q0 -75 -70.5 -135.5t-174.5 -85.5l-15 46q66 23 95 44.5t40 50.5q-57 23 -57 82q0 39 26 65t66 26z
" />
    <glyph glyph-name="quotedblbase" unicode="&#x201e;" horiz-adv-x="496" 
d="M83 174q37 0 63.5 -23t26.5 -70q0 -75 -70.5 -135.5t-174.5 -85.5l-15 46q66 23 95 44.5t40 50.5q-57 23 -57 82q0 39 26 65t66 26zM318 174q37 0 63.5 -23t26.5 -70q0 -75 -70.5 -135.5t-174.5 -85.5l-15 46q66 23 95 44.5t40 50.5q-57 23 -57 82q0 39 26 65t66 26z" />
    <glyph glyph-name="dagger" unicode="&#x2020;" horiz-adv-x="476" 
d="M474 640q26 0 42.5 -15.5t16.5 -41.5t-16.5 -41.5t-42.5 -15.5q-13 0 -24 3.5t-34 13t-44 16.5l-24 -13l19 -82l-107 -204h-39l7 204l70 92l-2 4l-38 -14t-28 -11t-19 -6.5t-20 -2.5q-27 0 -43 15t-16 42t16 42t43 15q12 0 23 -3t35 -12.5t45 -16.5l25 14q-1 25 -3.5 53
t-2.5 33.5t3 26.5q8 25 26.5 36.5t44.5 4.5t36 -27t2 -46q-3 -12 -9.5 -22t-22.5 -30.5t-30 -41.5l2 -3q20 7 39.5 14t29 11t20 6.5t20.5 2.5z" />
    <glyph glyph-name="daggerdbl" unicode="&#x2021;" horiz-adv-x="477" 
d="M474 639q26 0 42.5 -15.5t16.5 -41.5t-16.5 -41.5t-42.5 -15.5q-13 0 -24 3.5t-34.5 13t-44.5 16.5l-22 -12l21 -71l-71 -93l2 -3q25 8 48.5 17t35.5 13t24 4q27 0 43 -15t16 -42t-16 -42t-43 -15q-12 0 -23 3.5t-34.5 13t-45.5 16.5l-26 -15q1 -25 3.5 -52.5t2.5 -33.5
t-3 -27q-7 -25 -26.5 -36.5t-44.5 -4.5q-26 7 -36 27.5t-3 45.5q3 12 10 22t22.5 30t30.5 41l-2 4q-24 -8 -47.5 -17.5t-35.5 -13t-25 -3.5q-26 0 -42.5 15.5t-16.5 41.5t16.5 41.5t42.5 15.5q12 0 23.5 -3.5t33.5 -12t43 -15.5l24 13l-21 80l70 82l-2 2q-24 -8 -47 -17
t-35 -13t-24 -4q-27 0 -43 15t-16 42t16 42t43 15q12 0 23 -3t35 -12.5t45 -16.5l26 15q-1 26 -3.5 53t-3 33t2.5 26q8 26 27 37.5t44 4.5q26 -7 36 -27.5t3 -45.5q-3 -12 -9.5 -22t-22.5 -30.5t-30 -41.5l2 -4q19 6 38.5 13.5t29 11.5t20 6.5t20.5 2.5z" />
    <glyph glyph-name="bullet" unicode="&#x2022;" horiz-adv-x="476" 
d="M258 170q-64 0 -110 46t-46 110q0 65 46 111t110 46q65 0 111 -46t46 -111t-46 -110.5t-111 -45.5z" />
    <glyph glyph-name="ellipsis" unicode="&#x2026;" horiz-adv-x="720" 
d="M83 175q40 0 65.5 -25.5t25.5 -65.5t-25.5 -65.5t-65.5 -25.5t-66 26t-26 66t26 65t66 25zM313 175q40 0 65.5 -25.5t25.5 -65.5t-25.5 -65.5t-65.5 -25.5t-66 26t-26 66t26 65t66 25zM542 175q40 0 65.5 -25.5t25.5 -65.5t-25.5 -65.5t-65.5 -25.5t-66 26t-26 66t26 65
t66 25z" />
    <glyph glyph-name="perthousand" unicode="&#x2030;" horiz-adv-x="1510" 
d="M572 358l-12 13q40 52 140 159t129 133q56 51 86 18q30 -34 -26 -85q-30 -27 -145 -114.5t-172 -123.5zM290 282q-81 0 -132 48.5t-51 123.5q0 96 69 166t164 70q82 0 133 -48t51 -124q0 -96 -69 -166t-165 -70zM290 339q58 0 96 68t38 140q0 87 -84 87q-58 0 -96 -67.5
t-38 -140.5q0 -87 84 -87zM749 -10q-81 0 -132 48.5t-51 123.5q0 96 69 166t164 70q82 0 133 -48t51 -124q0 -96 -69 -166t-165 -70zM1220 -10q-82 0 -132.5 48t-50.5 124q0 96 68.5 166t164.5 70q82 0 133 -48t51 -124q0 -96 -69 -166t-165 -70zM749 47q58 0 96 68t38 140
q0 87 -84 87q-58 0 -96 -67.5t-38 -140.5q0 -87 84 -87zM1220 47q58 0 96 68t38 140q0 42 -22 64.5t-62 22.5q-59 0 -96.5 -67.5t-37.5 -140.5q0 -87 84 -87zM163 -2q-31 33 26 85q30 27 146 116.5t172 124.5l12 -13q-38 -55 -130.5 -153t-138.5 -142q-56 -51 -87 -18z" />
    <glyph glyph-name="guilsinglleft" unicode="&#x2039;" horiz-adv-x="316" 
d="M228 95l-47 -33l-149 162l20 70l242 162l28 -40l-184 -163z" />
    <glyph glyph-name="guilsinglright" unicode="&#x203a;" horiz-adv-x="316" 
d="M91 423l47 33l149 -162l-20 -70l-242 -162l-28 40l184 163z" />
    <glyph glyph-name="fraction" unicode="&#x2044;" horiz-adv-x="236" 
d="M139 371q77 99 184 211t144 112q15 0 26.5 -12t11.5 -27q0 -36 -125.5 -134t-228.5 -163zM97 311q-58 -83 -174.5 -204.5t-152.5 -121.5q-15 0 -27 11.5t-12 27.5q0 36 123 133t232 167z" />
    <glyph glyph-name="uni2081" unicode="&#x2081;" horiz-adv-x="347" 
d="M164 -9q-7 -22 16 -22h68l-20 -69h-303l20 69h62q22 0 29 22l61 211q-35 -6 -85 -6l17 58q66 4 88.5 17.5t42.5 57.5h100z" />
    <glyph glyph-name="uni2082" unicode="&#x2082;" horiz-adv-x="402" 
d="M168 -12q30 3 49.5 16t24.5 23t11 27h64l-44 -154h-327l13 45q11 9 50 39t68.5 54.5t63 56.5t52.5 62t19 55q0 23 -17.5 40t-52.5 17q-22 0 -41 -8q18 -8 28.5 -25.5t10.5 -35.5q0 -25 -18.5 -42.5t-45.5 -17.5q-26 0 -44 18t-18 46q0 50 49 87.5t116 37.5t108.5 -33.5
t41.5 -86.5q0 -62 -60.5 -115t-182.5 -115z" />
    <glyph glyph-name="uni2083" unicode="&#x2083;" horiz-adv-x="371" 
d="M318 221q0 -46 -36.5 -73t-97.5 -34q46 -8 68.5 -34.5t22.5 -61.5q0 -56 -50.5 -90t-118.5 -34q-63 0 -109.5 29.5t-46.5 79.5q0 32 18.5 52t46.5 20q25 0 41 -15.5t16 -39.5q0 -22 -13 -37t-36 -20q22 -13 48 -13q35 0 58.5 23t23.5 55q0 24 -14.5 40.5t-46.5 16.5h-17
l17 61h31q32 0 54.5 21.5t22.5 50.5q0 25 -16.5 40t-46.5 15q-11 0 -31 -4q23 -18 23 -44q0 -24 -17 -40.5t-42 -16.5q-26 0 -42 17t-16 45q0 47 47 74t110 27q64 0 106.5 -30t42.5 -80z" />
    <glyph glyph-name="Euro" unicode="&#x20ac;" horiz-adv-x="768" 
d="M588 466q0 31 20 55t51 34q-35 53 -111 53q-72 0 -126 -45.5t-88 -119.5h201l-23 -81h-206q-9 -35 -12 -67h199l-23 -81h-175q8 -63 43.5 -98.5t94.5 -35.5q64 0 113 41.5t97 124.5h86q-68 -138 -149 -198t-181 -60q-110 0 -186 60t-93 166h-91l23 81h65q1 28 10 67h-56
l24 81h60q51 109 150 178t217 69q108 0 185 -55.5t77 -142.5q0 -52 -28.5 -82t-72.5 -30q-41 0 -68 24.5t-27 61.5z" />
    <glyph glyph-name="uni2116" unicode="&#x2116;" horiz-adv-x="1296" 
d="M1064 273q-84 0 -136.5 47.5t-52.5 128.5q0 97 71.5 168.5t173.5 71.5q85 0 138.5 -51t53.5 -132q0 -97 -72.5 -165t-175.5 -68zM886 680l-26 -87h-60q-31 0 -40 -31l-161 -562h-70l-253 460l-98 -341q-9 -31 22 -31h75l-25 -88h-295l25 88h61q31 0 40 31l126 443
q9 31 -22 31h-60l25 87h217l217 -395l79 277q9 31 -22 31h-71l25 87h291zM1056 333q53 0 92 71t39 143q0 82 -58 82q-39 0 -70.5 -42.5t-45.5 -92.5t-14 -88q0 -35 15 -54t42 -19zM805 132l22 78h372l-22 -78h-372z" />
    <glyph glyph-name="uni2117" unicode="&#x2117;" horiz-adv-x="787" 
d="M418 -10q-147 0 -247.5 101t-100.5 250q0 147 101 248t247 101q147 0 248 -100.5t101 -248.5q0 -149 -101 -250t-248 -101zM418 43q124 0 208 86.5t84 211.5q0 124 -84.5 210t-207.5 86q-121 0 -205.5 -86t-84.5 -210q0 -125 84 -211.5t206 -86.5zM460 289h-58v-69
q0 -17 18 -17h59v-49h-220v49h33q16 0 16 17v240q0 17 -16 17h-33v49h201q64 0 107 -33.5t43 -83.5q0 -52 -42.5 -86t-107.5 -34zM402 477v-141h36q33 0 52.5 20.5t19.5 52.5q0 30 -19.5 49t-52.5 19h-36z" />
    <glyph glyph-name="uni2120" unicode="&#x2120;" horiz-adv-x="916" 
d="M243 602q0 -20 23 -37.5t50.5 -29t50.5 -36.5t23 -58q0 -48 -44.5 -81.5t-105.5 -33.5q-54 0 -97 27t-43 71q0 27 18 45t43 16q36 -3 36 -37q0 -18 -11.5 -29t-29.5 -13q26 -37 72 -37q31 0 47.5 15t16.5 34q0 18 -14.5 32t-35.5 24t-42 22t-35.5 32.5t-14.5 48.5
q0 47 41.5 79.5t101.5 32.5q52 0 93 -24.5t41 -67.5q0 -23 -13.5 -38t-37.5 -15q-19 0 -31 10t-12 28q0 31 34 41q-23 26 -62 26q-29 0 -45.5 -14t-16.5 -33zM835 680h149l-15 -51h-33q-21 0 -28 -21l-57 -202q-7 -21 15 -21h33l-14 -51h-209l15 51h29q23 0 29 21l46 162
l-128 -160h-31l-50 158l-46 -160q-8 -21 15 -21h37l-15 -51h-175l14 51h32q23 0 29 21l58 202q7 21 -17 21h-32l15 51h132l58 -172z" />
    <glyph glyph-name="trademark" unicode="&#x2122;" horiz-adv-x="965" 
d="M523 680l-44 -152h-51q1 7 3 19.5t3 20.5t1.5 19t-0.5 18t-4.5 14t-10.5 10t-17 3h-24l-64 -226q-6 -21 16 -21h38l-15 -51h-211l14 51h37q22 0 28 21l65 226h-24q-14 0 -25 -5.5t-20.5 -19.5t-14 -22.5t-13 -30t-10.5 -26.5h-52l43 152h352zM984 627q-21 0 -28 -22
l-57 -199q-7 -21 15 -21h33l-14 -51h-208l15 51h29q21 0 29 21l46 162l-129 -160h-30l-51 159l-46 -161q-6 -21 15 -21h37l-14 -51h-175l14 51h32q21 0 29 21l57 199q7 22 -17 22h-32l16 53h132l58 -173l145 173h147l-15 -53h-33z" />
    <glyph glyph-name="arrowup" unicode="&#x2191;" horiz-adv-x="662" 
d="M103 418l243 262h35l243 -262l-24 -35l-201 95l5.5 -88t4.5 -136v-254h-90v254q0 64 4.5 136l5.5 88l-202 -95z" />
    <glyph glyph-name="arrowdown" unicode="&#x2193;" horiz-adv-x="662" 
d="M58 262l24 35l202 -95l-5.5 88t-4.5 136v254h90v-254q0 -64 -4.5 -136l-5.5 -88l201 95l24 -35l-243 -262h-35z" />
    <glyph glyph-name="arrowupdn" unicode="&#x2195;" horiz-adv-x="707" 
d="M399 203l201 94l24 -34l-243 -263h-35l-243 263l24 34l202 -94q-1 11 -5.5 48t-4.5 58v63q0 20 4.5 57.5t5.5 48.5l-202 -95l-24 35l243 262h35l243 -262l-24 -35l-201 95q1 -11 5.5 -48.5t4.5 -57.5v-63q0 -21 -4.5 -58t-5.5 -48z" />
    <glyph glyph-name="uni2196" unicode="&#x2196;" horiz-adv-x="974" 
d="M568 626l8 -41l-210 -77q19 -18 48.5 -43t56 -49.5t60.5 -58.5l274 -273l-64 -64l-273 273q-45 45 -92 98.5t-59 66.5l-75 -208l-42 7l-14 357l25 25z" />
    <glyph glyph-name="uni2197" unicode="&#x2197;" horiz-adv-x="759" 
d="M297 626l357 13l25 -25l-14 -357l-42 -7l-75 208q-12 -13 -59 -66.5t-92 -98.5l-273 -273l-64 64l274 273q34 34 60.5 58.5t56 49.5t48.5 43l-210 77z" />
    <glyph glyph-name="uni2198" unicode="&#x2198;" horiz-adv-x="974" 
d="M447 63l-8 41l210 77q-19 18 -48.5 43t-56 49.5t-60.5 58.5l-274 273l64 64l273 -273q45 -45 92 -98.5t59 -66.5l75 208l42 -7l14 -357l-25 -25z" />
    <glyph glyph-name="uni2199" unicode="&#x2199;" horiz-adv-x="758" 
d="M500 60l-357 -13l-25 25l14 357l42 7l75 -208q12 13 59 66.5t92 98.5l273 273l64 -64l-274 -273q-34 -34 -60.5 -58.5t-56 -49.5t-48.5 -43l210 -77z" />
    <glyph glyph-name="minus" unicode="&#x2212;" horiz-adv-x="566" 
d="M65 251l26 94h436l-26 -94h-436z" />
    <glyph glyph-name="approxequal" unicode="&#x2248;" horiz-adv-x="553" 
d="M560 477q-24 -136 -151 -136q-39 0 -96.5 29.5t-91.5 29.5q-28 0 -42 -12.5t-25 -39.5l-56 20q24 133 150 133q40 0 100 -30t90 -30q15 0 26 4t18.5 14t10.5 15.5t9 19.5zM493 270q-24 -137 -151 -137q-40 0 -97.5 30t-91.5 30q-19 0 -32.5 -7.5t-19 -17t-14.5 -28.5
l-57 21q26 132 150 132q41 0 101 -29.5t89 -29.5q6 0 11.5 1t10 2t9 4t7 4.5t6.5 6t5.5 6t4.5 7t4 7t4.5 8t3.5 7.5z" />
    <glyph glyph-name="notequal" unicode="&#x2260;" horiz-adv-x="566" 
d="M581 576l-105 -121h82l-25 -87h-132l-88 -101h191l-24 -86h-241l-106 -122h-97l106 122h-98l24 86h148l88 101h-207l25 87h257l105 121h97z" />
    <glyph glyph-name="lessequal" unicode="&#x2264;" horiz-adv-x="567" 
d="M589 563l-30 -106l-343 -89l292 -89l-27 -96l-391 149l23 83zM7 50l25 86h436l-25 -86h-436z" />
    <glyph glyph-name="greaterequal" unicode="&#x2265;" horiz-adv-x="567" 
d="M48 183l31 109l343 90l-292 89l26 92l391 -149l-23 -83zM7 50l25 86h436l-25 -86h-436z" />
    <glyph glyph-name="A.fina" horiz-adv-x="1026" 
d="M910 269q37 0 62 -27t25 -70q0 -78 -79 -130t-200 -52q-64 0 -114.5 16t-83.5 45t-54 60t-37 71h-233l-18 -63q-9 -31 22 -31h86l-25 -88h-306l25 88h61q31 0 40 31l126 443q9 31 -22 31h-60l25 87h284l187 -475q29 -75 68 -104t96 -29q73 0 112 47q-30 5 -49 26.5
t-19 49.5q0 32 23.5 53t57.5 21zM298 537l-80 -280h183z" />
    <glyph glyph-name="Aacute.fina" horiz-adv-x="1026" 
d="M513 819q-26 -23 -134 -61q-14 -4 -21 -7h-53q47 87 68.5 122.5t41.5 52.5q25 22 53.5 21t50.5 -25q23 -26 20.5 -54t-26.5 -49zM910 269q37 0 62 -27t25 -70q0 -78 -79 -130t-200 -52q-64 0 -114.5 16t-83.5 45t-54 60t-37 71h-233l-18 -63q-9 -31 22 -31h86l-25 -88
h-306l25 88h61q31 0 40 31l126 443q9 31 -22 31h-60l25 87h284l187 -475q29 -75 68 -104t96 -29q73 0 112 47q-30 5 -49 26.5t-19 49.5q0 32 23.5 53t57.5 21zM298 537l-80 -280h183z" />
    <glyph glyph-name="Abreve.fina" horiz-adv-x="1026" 
d="M344 744q-73 0 -104 41.5t-12 124.5h76q1 -34 15 -50t45 -16q61 0 104 66h85q-29 -83 -83.5 -124.5t-125.5 -41.5zM910 269q37 0 62 -27t25 -70q0 -78 -79 -130t-200 -52q-64 0 -114.5 16t-83.5 45t-54 60t-37 71h-233l-18 -63q-9 -31 22 -31h86l-25 -88h-306l25 88h61
q31 0 40 31l126 443q9 31 -22 31h-60l25 87h284l187 -475q29 -75 68 -104t96 -29q73 0 112 47q-30 5 -49 26.5t-19 49.5q0 32 23.5 53t57.5 21zM298 537l-80 -280h183z" />
    <glyph glyph-name="Acircumflex.fina" horiz-adv-x="1026" 
d="M371 822l-95 -66h-91l170 161q28 27 46 27q17 0 32 -27l87 -162h-90zM910 269q37 0 62 -27t25 -70q0 -78 -79 -130t-200 -52q-64 0 -114.5 16t-83.5 45t-54 60t-37 71h-233l-18 -63q-9 -31 22 -31h86l-25 -88h-306l25 88h61q31 0 40 31l126 443q9 31 -22 31h-60l25 87
h284l187 -475q29 -75 68 -104t96 -29q73 0 112 47q-30 5 -49 26.5t-19 49.5q0 32 23.5 53t57.5 21zM298 537l-80 -280h183z" />
    <glyph glyph-name="Adieresis.fina" horiz-adv-x="1026" 
d="M245 740q-37 0 -61.5 23.5t-24.5 60.5t24.5 62t61.5 25q38 0 62 -24t24 -62q0 -37 -24 -61t-62 -24zM465 740q-37 0 -61.5 23.5t-24.5 60.5t24.5 62t61.5 25q38 0 62 -24t24 -62q0 -37 -24 -61t-62 -24zM910 269q37 0 62 -27t25 -70q0 -78 -79 -130t-200 -52
q-64 0 -114.5 16t-83.5 45t-54 60t-37 71h-233l-18 -63q-9 -31 22 -31h86l-25 -88h-306l25 88h61q31 0 40 31l126 443q9 31 -22 31h-60l25 87h284l187 -475q29 -75 68 -104t96 -29q73 0 112 47q-30 5 -49 26.5t-19 49.5q0 32 23.5 53t57.5 21zM298 537l-80 -280h183z" />
    <glyph glyph-name="Agrave.fina" horiz-adv-x="1026" 
d="M318 750q-67 61 -82 83q-19 28 -19 56q0 32 22.5 51.5t52.5 19.5q50 0 68 -56q13 -38 13 -154h-55zM910 269q37 0 62 -27t25 -70q0 -78 -79 -130t-200 -52q-64 0 -114.5 16t-83.5 45t-54 60t-37 71h-233l-18 -63q-9 -31 22 -31h86l-25 -88h-306l25 88h61q31 0 40 31
l126 443q9 31 -22 31h-60l25 87h284l187 -475q29 -75 68 -104t96 -29q73 0 112 47q-30 5 -49 26.5t-19 49.5q0 32 23.5 53t57.5 21zM298 537l-80 -280h183z" />
    <glyph glyph-name="Amacron.fina" horiz-adv-x="1026" 
d="M536 856l-28 -98h-320l29 98h319zM910 269q37 0 62 -27t25 -70q0 -78 -79 -130t-200 -52q-64 0 -114.5 16t-83.5 45t-54 60t-37 71h-233l-18 -63q-9 -31 22 -31h86l-25 -88h-306l25 88h61q31 0 40 31l126 443q9 31 -22 31h-60l25 87h284l187 -475q29 -75 68 -104t96 -29
q73 0 112 47q-30 5 -49 26.5t-19 49.5q0 32 23.5 53t57.5 21zM298 537l-80 -280h183z" />
    <glyph glyph-name="Aogonek.fina" horiz-adv-x="1026" 
d="M997 172q0 -63 -55 -112h1q-100 -101 -113 -119q-17 -23 -17 -44q0 -33 38 -33q19 0 48 11l-23 -83q-36 -17 -77 -17q-43 0 -68 19.5t-25 55.5q0 35 21.5 66.5t92.5 85.5q-46 -12 -102 -12q-64 0 -114.5 16t-83.5 45t-54 60t-37 71h-233l-18 -63q-9 -31 22 -31h86
l-25 -88h-306l25 88h61q31 0 40 31l126 443q9 31 -22 31h-60l25 87h284l187 -475q29 -75 68 -104t96 -29q73 0 112 47q-30 5 -49 26.5t-19 49.5q0 32 23.5 53t57.5 21q37 0 62 -27t25 -70zM298 537l-80 -280h183z" />
    <glyph glyph-name="Aring.fina" horiz-adv-x="1026" 
d="M362 727q-52 0 -84.5 28.5t-32.5 71.5q0 53 41 88.5t98 35.5q52 0 85.5 -28.5t33.5 -70.5q0 -52 -41.5 -88.5t-99.5 -36.5zM381 894q-24 0 -42 -18.5t-18 -44.5q0 -21 13 -33t33 -12q24 0 41.5 18.5t17.5 43.5q0 20 -12 33t-33 13zM910 269q37 0 62 -27t25 -70
q0 -78 -79 -130t-200 -52q-64 0 -114.5 16t-83.5 45t-54 60t-37 71h-233l-18 -63q-9 -31 22 -31h86l-25 -88h-306l25 88h61q31 0 40 31l126 443q9 31 -22 31h-60l25 87h284l187 -475q29 -75 68 -104t96 -29q73 0 112 47q-30 5 -49 26.5t-19 49.5q0 32 23.5 53t57.5 21z
M298 537l-80 -280h183z" />
    <glyph glyph-name="Atilde.fina" horiz-adv-x="1026" 
d="M270 805q-17 0 -28.5 -7.5t-16.5 -15.5t-13 -27l-56 18q14 67 50.5 109t98.5 42q35 0 84 -28.5t73 -28.5q7 0 13 1.5t10 3t8.5 6t7 6.5t6 8.5t4.5 7.5t5 9l3 8l58 -12q-13 -69 -50.5 -113t-101.5 -44q-33 0 -80 28.5t-75 28.5zM910 269q37 0 62 -27t25 -70
q0 -78 -79 -130t-200 -52q-64 0 -114.5 16t-83.5 45t-54 60t-37 71h-233l-18 -63q-9 -31 22 -31h86l-25 -88h-306l25 88h61q31 0 40 31l126 443q9 31 -22 31h-60l25 87h284l187 -475q29 -75 68 -104t96 -29q73 0 112 47q-30 5 -49 26.5t-19 49.5q0 32 23.5 53t57.5 21z
M298 537l-80 -280h183z" />
    <glyph glyph-name="K.fina" horiz-adv-x="1005" 
d="M248 119q-9 -31 22 -31h65l-25 -88h-355l25 88h61q31 0 40 31l126 443q9 31 -22 31h-60l25 87h344l-25 -87h-54q-31 0 -40 -31zM889 276q39 0 63.5 -29t24.5 -73q0 -71 -72 -127.5t-191 -56.5q-57 0 -103 11.5t-76.5 28.5t-57 46.5t-42.5 56t-35 66.5l-64 133l282 232
q28 22 10 28q-4 1 -9 1h-74l25 87h319l-25 -87h-35q-49 0 -89 -31l-240 -193l85 -172q64 -130 186 -130q85 0 121 57q-34 1 -58.5 23.5t-24.5 54.5q0 31 23 52.5t57 21.5z" />
    <glyph glyph-name="Kcommaaccent.fina" horiz-adv-x="1005" 
d="M335 88l-25 -88h-355l25 88h61q31 0 40 31l126 443q9 31 -22 31h-60l25 87h344l-25 -87h-54q-31 0 -40 -31l-127 -443q-9 -31 22 -31h65zM889 276q39 0 63.5 -29t24.5 -73q0 -71 -72 -127.5t-191 -56.5q-57 0 -103 11.5t-76.5 28.5t-57 46.5t-42.5 56t-35 66.5l-64 133
l282 232q28 22 10 28q-4 1 -9 1h-74l25 87h319l-25 -87h-35q-49 0 -89 -31l-240 -193l85 -172q64 -130 186 -130q85 0 121 57q-34 1 -58.5 23.5t-24.5 54.5q0 31 23 52.5t57 21.5zM413 -44q33 0 54.5 -21t21.5 -53q0 -64 -56 -106.5t-140 -57.5l-10 36q86 25 103 63
q-25 5 -40 22.5t-15 41.5q0 32 23.5 53.5t58.5 21.5z" />
    <glyph glyph-name="R.fina" horiz-adv-x="978" 
d="M862 276q38 0 63 -29t25 -73q0 -71 -72.5 -127.5t-191.5 -56.5q-57 0 -103.5 11.5t-77.5 29.5t-58 48.5t-43.5 58.5t-35.5 69l-28 60h-23h-27l-42 -148q-8 -31 22 -31h55l-25 -88h-345l25 88h61q31 0 40 31l126 443q9 31 -22 31h-60l25 87h333q110 0 174 -47.5t64 -131.5
q0 -158 -209 -212l45 -92q64 -130 186 -130q85 0 121 57q-34 1 -58.5 23.5t-24.5 54.5q0 31 23.5 52.5t57.5 21.5zM384 593l-69 -239h62q74 0 123.5 43t49.5 103q0 41 -27.5 67t-78.5 26h-60z" />
    <glyph glyph-name="Racute.fina" horiz-adv-x="978" 
d="M597 819q-26 -23 -134 -61q-14 -4 -21 -7h-53q47 87 68.5 122.5t41.5 52.5q25 22 53.5 21t50.5 -25q23 -26 20.5 -54t-26.5 -49zM862 276q38 0 63 -29t25 -73q0 -71 -72.5 -127.5t-191.5 -56.5q-57 0 -103.5 11.5t-77.5 29.5t-58 48.5t-43.5 58.5t-35.5 69l-28 60h-23
h-27l-42 -148q-8 -31 22 -31h55l-25 -88h-345l25 88h61q31 0 40 31l126 443q9 31 -22 31h-60l25 87h333q110 0 174 -47.5t64 -131.5q0 -158 -209 -212l45 -92q64 -130 186 -130q85 0 121 57q-34 1 -58.5 23.5t-24.5 54.5q0 31 23.5 52.5t57.5 21.5zM384 593l-69 -239h62
q74 0 123.5 43t49.5 103q0 41 -27.5 67t-78.5 26h-60z" />
    <glyph glyph-name="Rcaron.fina" horiz-adv-x="978" 
d="M461 751q-17 0 -32 27l-87 162h90l59 -67l95 66h91l-170 -161q-28 -27 -46 -27zM862 276q38 0 63 -29t25 -73q0 -71 -72.5 -127.5t-191.5 -56.5q-57 0 -103.5 11.5t-77.5 29.5t-58 48.5t-43.5 58.5t-35.5 69l-28 60h-23h-27l-42 -148q-8 -31 22 -31h55l-25 -88h-345
l25 88h61q31 0 40 31l126 443q9 31 -22 31h-60l25 87h333q110 0 174 -47.5t64 -131.5q0 -158 -209 -212l45 -92q64 -130 186 -130q85 0 121 57q-34 1 -58.5 23.5t-24.5 54.5q0 31 23.5 52.5t57.5 21.5zM384 593l-69 -239h62q74 0 123.5 43t49.5 103q0 41 -27.5 67t-78.5 26
h-60z" />
    <glyph glyph-name="Rcommaaccent.fina" horiz-adv-x="978" 
d="M862 276q38 0 63 -29t25 -73q0 -71 -72.5 -127.5t-191.5 -56.5q-57 0 -103.5 11.5t-77.5 29.5t-58 48.5t-43.5 58.5t-35.5 69l-28 60h-23h-27l-42 -148q-8 -31 22 -31h55l-25 -88h-345l25 88h61q31 0 40 31l126 443q9 31 -22 31h-60l25 87h333q110 0 174 -47.5t64 -131.5
q0 -158 -209 -212l45 -92q64 -130 186 -130q85 0 121 57q-34 1 -58.5 23.5t-24.5 54.5q0 31 23.5 52.5t57.5 21.5zM384 593l-69 -239h62q74 0 123.5 43t49.5 103q0 41 -27.5 67t-78.5 26h-60zM371 -44q33 0 54.5 -21t21.5 -53q0 -64 -56 -106.5t-140 -57.5l-10 36
q86 25 103 63q-25 5 -40 22.5t-15 41.5q0 32 23.5 53.5t58.5 21.5z" />
    <glyph glyph-name="A.init" horiz-adv-x="1087" 
d="M915 680h267l-26 -87h-60q-31 0 -40 -31l-127 -443q-9 -31 22 -31h60l-24 -88h-377l25 88h86q31 0 40 31l18 63h-236l-6 -6q-85 -89 -161.5 -136.5t-168.5 -47.5q-105 0 -166 50t-61 123q0 47 25.5 76.5t64.5 29.5q34 0 56.5 -21t22.5 -55q0 -33 -20.5 -53t-51.5 -25
q36 -55 128 -55q106 0 219 116zM801 257l80 280l-267 -280h187z" />
    <glyph glyph-name="Aacute.init" horiz-adv-x="1087" 
d="M1216 922q23 -26 20.5 -54t-26.5 -49q-26 -23 -134 -61q-14 -4 -21 -7h-53q47 87 68.5 122.5t41.5 52.5q25 22 53.5 21t50.5 -25zM424 178l491 502h267l-26 -87h-60q-31 0 -40 -31l-127 -443q-9 -31 22 -31h60l-24 -88h-377l25 88h86q31 0 40 31l18 63h-236l-6 -6
q-85 -89 -161.5 -136.5t-168.5 -47.5q-105 0 -166 50t-61 123q0 47 25.5 76.5t64.5 29.5q34 0 56.5 -21t22.5 -55q0 -33 -20.5 -53t-51.5 -25q36 -55 128 -55q106 0 219 116zM801 257l80 280l-267 -280h187z" />
    <glyph glyph-name="Abreve.init" horiz-adv-x="1087" 
d="M1165 910h85q-29 -83 -83.5 -124.5t-125.5 -41.5q-73 0 -104 41.5t-12 124.5h76q1 -34 15 -50t45 -16q61 0 104 66zM424 178l491 502h267l-26 -87h-60q-31 0 -40 -31l-127 -443q-9 -31 22 -31h60l-24 -88h-377l25 88h86q31 0 40 31l18 63h-236l-6 -6
q-85 -89 -161.5 -136.5t-168.5 -47.5q-105 0 -166 50t-61 123q0 47 25.5 76.5t64.5 29.5q34 0 56.5 -21t22.5 -55q0 -33 -20.5 -53t-51.5 -25q36 -55 128 -55q106 0 219 116zM801 257l80 280l-267 -280h187z" />
    <glyph glyph-name="Acircumflex.init" horiz-adv-x="1087" 
d="M1068 822l-95 -66h-91l170 161q28 27 46 27q17 0 32 -27l87 -162h-90zM424 178l491 502h267l-26 -87h-60q-31 0 -40 -31l-127 -443q-9 -31 22 -31h60l-24 -88h-377l25 88h86q31 0 40 31l18 63h-236l-6 -6q-85 -89 -161.5 -136.5t-168.5 -47.5q-105 0 -166 50t-61 123
q0 47 25.5 76.5t64.5 29.5q34 0 56.5 -21t22.5 -55q0 -33 -20.5 -53t-51.5 -25q36 -55 128 -55q106 0 219 116zM801 257l80 280l-267 -280h187z" />
    <glyph glyph-name="Adieresis.init" horiz-adv-x="1087" 
d="M942 740q-37 0 -61.5 23.5t-24.5 60.5t24.5 62t61.5 25q38 0 62 -24t24 -62q0 -37 -24 -61t-62 -24zM1162 911q38 0 62 -24t24 -62q0 -37 -24 -61t-62 -24q-37 0 -61.5 23.5t-24.5 60.5t24.5 62t61.5 25zM424 178l491 502h267l-26 -87h-60q-31 0 -40 -31l-127 -443
q-9 -31 22 -31h60l-24 -88h-377l25 88h86q31 0 40 31l18 63h-236l-6 -6q-85 -89 -161.5 -136.5t-168.5 -47.5q-105 0 -166 50t-61 123q0 47 25.5 76.5t64.5 29.5q34 0 56.5 -21t22.5 -55q0 -33 -20.5 -53t-51.5 -25q36 -55 128 -55q106 0 219 116zM801 257l80 280l-267 -280
h187z" />
    <glyph glyph-name="Agrave.init" horiz-adv-x="1087" 
d="M1015 750q-67 61 -82 83q-19 28 -19 56q0 32 22.5 51.5t52.5 19.5q50 0 68 -56q13 -38 13 -154h-55zM915 680h267l-26 -87h-60q-31 0 -40 -31l-127 -443q-9 -31 22 -31h60l-24 -88h-377l25 88h86q31 0 40 31l18 63h-236l-6 -6q-85 -89 -161.5 -136.5t-168.5 -47.5
q-105 0 -166 50t-61 123q0 47 25.5 76.5t64.5 29.5q34 0 56.5 -21t22.5 -55q0 -33 -20.5 -53t-51.5 -25q36 -55 128 -55q106 0 219 116zM801 257l80 280l-267 -280h187z" />
    <glyph glyph-name="Amacron.init" horiz-adv-x="1087" 
d="M914 856h319l-28 -98h-320zM424 178l491 502h267l-26 -87h-60q-31 0 -40 -31l-127 -443q-9 -31 22 -31h60l-24 -88h-377l25 88h86q31 0 40 31l18 63h-236l-6 -6q-85 -89 -161.5 -136.5t-168.5 -47.5q-105 0 -166 50t-61 123q0 47 25.5 76.5t64.5 29.5q34 0 56.5 -21
t22.5 -55q0 -33 -20.5 -53t-51.5 -25q36 -55 128 -55q106 0 219 116zM801 257l80 280l-267 -280h187z" />
    <glyph glyph-name="Aogonek.init" horiz-adv-x="1087" 
d="M915 680h267l-26 -87h-60q-31 0 -40 -31l-127 -443q-9 -31 22 -31h60l-24 -88h-144q-42 -43 -56 -63t-14 -40q0 -33 38 -33q19 0 48 11l-23 -83q-37 -17 -78 -17q-43 0 -68 19.5t-25 55.5q0 35 21.5 66.5t90.5 83.5h-167l25 88h86q31 0 40 31l18 63h-236l-6 -6
q-85 -89 -161.5 -136.5t-168.5 -47.5q-105 0 -166 50t-61 123q0 47 25.5 76.5t64.5 29.5q34 0 56.5 -21t22.5 -55q0 -33 -20.5 -53t-51.5 -25q36 -55 128 -55q106 0 219 116zM614 257h187l80 280z" />
    <glyph glyph-name="Aring.init" horiz-adv-x="1087" 
d="M1059 727q-52 0 -84.5 28.5t-32.5 71.5q0 53 41 88.5t98 35.5q52 0 85.5 -28.5t33.5 -70.5q0 -52 -41.5 -88.5t-99.5 -36.5zM1078 894q-24 0 -42 -18.5t-18 -44.5q0 -21 13 -33t33 -12q24 0 41.5 18.5t17.5 43.5q0 20 -12 33t-33 13zM424 178l491 502h267l-26 -87h-60
q-31 0 -40 -31l-127 -443q-9 -31 22 -31h60l-24 -88h-377l25 88h86q31 0 40 31l18 63h-236l-6 -6q-85 -89 -161.5 -136.5t-168.5 -47.5q-105 0 -166 50t-61 123q0 47 25.5 76.5t64.5 29.5q34 0 56.5 -21t22.5 -55q0 -33 -20.5 -53t-51.5 -25q36 -55 128 -55q106 0 219 116z
M801 257l80 280l-267 -280h187z" />
    <glyph glyph-name="Atilde.init" horiz-adv-x="1087" 
d="M1216 917l58 -12q-13 -69 -50.5 -113t-101.5 -44q-33 0 -80 28.5t-75 28.5q-17 0 -28.5 -7.5t-16.5 -15.5t-13 -27l-56 18q14 67 50.5 109t98.5 42q35 0 84 -28.5t73 -28.5q7 0 13 1.5t10 3t8.5 6t7 6.5t6 8.5t4.5 7.5t4 9zM424 178l491 502h267l-26 -87h-60
q-31 0 -40 -31l-127 -443q-9 -31 22 -31h60l-24 -88h-377l25 88h86q31 0 40 31l18 63h-236l-6 -6q-85 -89 -161.5 -136.5t-168.5 -47.5q-105 0 -166 50t-61 123q0 47 25.5 76.5t64.5 29.5q34 0 56.5 -21t22.5 -55q0 -33 -20.5 -53t-51.5 -25q36 -55 128 -55q106 0 219 116z
M801 257l80 280l-267 -280h187z" />
    <glyph glyph-name="M.init" horiz-adv-x="1117" 
d="M951 680h261l-26 -87h-60q-31 0 -39 -31l-127 -443q-9 -31 22 -31h60l-25 -88h-337l26 88h46q31 0 40 31l110 385l-274 -367h-58l-90 365l-85 -297q-28 -99 -92.5 -157t-151.5 -58q-77 0 -126.5 45.5t-49.5 109.5q0 52 28 84.5t70 32.5q36 0 59.5 -22.5t23.5 -57.5
q0 -38 -27.5 -64t-67.5 -28q37 -22 86 -22q53 0 93 37.5t58 99.5l102 357q9 31 -22 31h-60l25 87h271l84 -322z" />
    <glyph glyph-name="N.init" horiz-adv-x="973" 
d="M787 680h291l-25 -87h-61q-31 0 -40 -31l-160 -562h-67l-256 458l-73 -252q-28 -99 -93 -157t-152 -58q-77 0 -126.5 45t-49.5 109q0 53 27.5 85.5t70.5 32.5q35 0 59 -23t24 -57q0 -38 -27 -64t-68 -28q39 -22 86 -22q54 0 93.5 37.5t57.5 99.5l101 356q9 31 -22 31h-60
l25 87h216l219 -395l77 277q9 31 -22 31h-70z" />
    <glyph glyph-name="Nacute.init" horiz-adv-x="973" 
d="M873 819q-26 -23 -134 -61q-14 -4 -21 -7h-53q47 87 68.5 122.5t41.5 52.5q25 22 53.5 21t50.5 -25q23 -26 20.5 -54t-26.5 -49zM787 680h291l-25 -87h-61q-31 0 -40 -31l-160 -562h-67l-256 458l-73 -252q-28 -99 -93 -157t-152 -58q-77 0 -126.5 45t-49.5 109
q0 53 27.5 85.5t70.5 32.5q35 0 59 -23t24 -57q0 -38 -27 -64t-68 -28q39 -22 86 -22q54 0 93.5 37.5t57.5 99.5l101 356q9 31 -22 31h-60l25 87h216l219 -395l77 277q9 31 -22 31h-70z" />
    <glyph glyph-name="Ncaron.init" horiz-adv-x="973" 
d="M737 751q-17 0 -32 27l-87 162h90l59 -67l95 66h91l-170 -161q-28 -27 -46 -27zM787 680h291l-25 -87h-61q-31 0 -40 -31l-160 -562h-67l-256 458l-73 -252q-28 -99 -93 -157t-152 -58q-77 0 -126.5 45t-49.5 109q0 53 27.5 85.5t70.5 32.5q35 0 59 -23t24 -57
q0 -38 -27 -64t-68 -28q39 -22 86 -22q54 0 93.5 37.5t57.5 99.5l101 356q9 31 -22 31h-60l25 87h216l219 -395l77 277q9 31 -22 31h-70z" />
    <glyph glyph-name="Ncommaaccent.init" horiz-adv-x="973" 
d="M787 680h291l-25 -87h-61q-31 0 -40 -31l-160 -562h-67l-256 458l-73 -252q-28 -99 -93 -157t-152 -58q-77 0 -126.5 45t-49.5 109q0 53 27.5 85.5t70.5 32.5q35 0 59 -23t24 -57q0 -38 -27 -64t-68 -28q39 -22 86 -22q54 0 93.5 37.5t57.5 99.5l101 356q9 31 -22 31h-60
l25 87h216l219 -395l77 277q9 31 -22 31h-70zM487 -44q33 0 54.5 -21t21.5 -53q0 -64 -56 -106.5t-140 -57.5l-10 36q86 25 103 63q-25 5 -40 22.5t-15 41.5q0 32 23.5 53.5t58.5 21.5z" />
    <glyph glyph-name="Eng.init" horiz-adv-x="973" 
d="M787 680h291l-25 -87h-61q-31 0 -40 -31l-160 -562l-5 -15q-52 -175 -246 -175q-61 0 -93 27t-32 74q0 30 19 50t47 20q26 0 43.5 -16.5t17.5 -41.5q0 -24 -16.5 -40.5t-42.5 -19.5q12 -2 19 -2q47 0 80.5 26t54.5 98l33 111l-202 362l-73 -252q-28 -99 -93 -157
t-152 -58q-77 0 -126.5 45t-49.5 109q0 53 27.5 85.5t70.5 32.5q35 0 59 -23t24 -57q0 -38 -27 -64t-68 -28q39 -22 86 -22q54 0 93.5 37.5t57.5 99.5l101 356q9 31 -22 31h-60l25 87h216l219 -395l77 277q9 31 -22 31h-70z" />
    <glyph glyph-name="Ntilde.init" horiz-adv-x="973" 
d="M630 805q-17 0 -28.5 -7.5t-16.5 -15.5t-13 -27l-56 18q14 67 50.5 109t98.5 42q35 0 84 -28.5t73 -28.5q7 0 13 1.5t10 3t8.5 6t7 6.5t6 8.5t4.5 7.5t5 9l3 8l58 -12q-13 -69 -50.5 -113t-101.5 -44q-33 0 -80 28.5t-75 28.5zM787 680h291l-25 -87h-61q-31 0 -40 -31
l-160 -562h-67l-256 458l-73 -252q-28 -99 -93 -157t-152 -58q-77 0 -126.5 45t-49.5 109q0 53 27.5 85.5t70.5 32.5q35 0 59 -23t24 -57q0 -38 -27 -64t-68 -28q39 -22 86 -22q54 0 93.5 37.5t57.5 99.5l101 356q9 31 -22 31h-60l25 87h216l219 -395l77 277q9 31 -22 31
h-70z" />
    <glyph glyph-name="Q.init" horiz-adv-x="769" 
d="M817 -61v-1q0 -79 -58.5 -128.5t-158.5 -49.5q-92 0 -167 38.5t-156 105.5q-109 -52 -179 -52q-58 0 -95 29.5t-37 76.5q0 45 37.5 79.5t122.5 34.5t195 -69q92 74 167 195t75 245q0 81 -34 123.5t-99 42.5q-84 0 -137 -75t-53 -187q0 -126 95 -250l-22 -28
q-214 86 -225 272q-10 142 89 245.5t261 103.5q133 0 211.5 -71t78.5 -203q0 -80 -29.5 -151t-82.5 -127.5t-107.5 -97.5t-123.5 -80q111 -79 155 -100q61 -30 113 -30q37 0 63 19q-36 3 -59 27.5t-23 61.5q0 40 26.5 66t66.5 26t65 -25.5t25 -65.5zM110 -87q45 0 116 32
q-83 67 -130 67q-23 0 -39.5 -12.5t-16.5 -33.5q0 -24 20 -38.5t50 -14.5z" />
    <glyph glyph-name="T.init" horiz-adv-x="712" 
d="M558 600l-138 -481q-9 -31 22 -31h78l-25 -88h-385l25 88h78q31 0 40 31l138 481h-34q-94 0 -132.5 -6.5t-52.5 -26.5q30 -3 50.5 -23t20.5 -49q0 -32 -23.5 -54t-58.5 -22t-58 25.5t-23 65.5q0 166 266 170h194q103 0 140 6.5t49 26.5q-31 3 -51.5 23t-20.5 50
q0 32 23.5 54t58.5 22t58 -26t23 -66q0 -164 -262 -170z" />
    <glyph glyph-name="Tbar.init" horiz-adv-x="712" 
d="M820 770q0 -164 -262 -170l-73 -255h131l-18 -65h-132l-46 -161q-9 -31 22 -31h78l-25 -88h-385l25 88h78q31 0 40 31l46 161h-121l18 65h122l73 255h-34q-94 0 -132.5 -6.5t-52.5 -26.5q30 -3 50.5 -23t20.5 -49q0 -32 -23.5 -54t-58.5 -22t-58 25.5t-23 65.5
q0 166 266 170h194q103 0 140 6.5t49 26.5q-31 3 -51.5 23t-20.5 50q0 32 23.5 54t58.5 22t58 -26t23 -66z" />
    <glyph glyph-name="Tcaron.init" horiz-adv-x="712" 
d="M508 751q-17 0 -32 27l-87 162h90l59 -67l95 66h91l-170 -161q-28 -27 -46 -27zM558 600l-138 -481q-9 -31 22 -31h78l-25 -88h-385l25 88h78q31 0 40 31l138 481h-34q-94 0 -132.5 -6.5t-52.5 -26.5q30 -3 50.5 -23t20.5 -49q0 -32 -23.5 -54t-58.5 -22t-58 25.5
t-23 65.5q0 166 266 170h194q103 0 140 6.5t49 26.5q-31 3 -51.5 23t-20.5 50q0 32 23.5 54t58.5 22t58 -26t23 -66q0 -164 -262 -170z" />
    <glyph glyph-name="uni0162.init" horiz-adv-x="712" 
d="M558 600l-138 -481q-9 -31 22 -31h78l-25 -88h-165l-35 -55q46 0 74 -19.5t28 -54.5q0 -46 -40.5 -77t-99.5 -31q-49 0 -98 28l26 47q34 -22 70 -22q23 0 38 10.5t15 29.5q0 21 -23.5 29.5t-63.5 1.5l-9 30l60 83h-162l25 88h78q31 0 40 31l138 481h-34
q-94 0 -132.5 -6.5t-52.5 -26.5q30 -3 50.5 -23t20.5 -49q0 -32 -23.5 -54t-58.5 -22t-58 25.5t-23 65.5q0 166 266 170h194q103 0 140 6.5t49 26.5q-31 3 -51.5 23t-20.5 50q0 32 23.5 54t58.5 22t58 -26t23 -66q0 -164 -262 -170z" />
    <glyph glyph-name="uni021A.init" horiz-adv-x="712" 
d="M558 600l-138 -481q-9 -31 22 -31h78l-25 -88h-385l25 88h78q31 0 40 31l138 481h-34q-94 0 -132.5 -6.5t-52.5 -26.5q30 -3 50.5 -23t20.5 -49q0 -32 -23.5 -54t-58.5 -22t-58 25.5t-23 65.5q0 166 266 170h194q103 0 140 6.5t49 26.5q-31 3 -51.5 23t-20.5 50
q0 32 23.5 54t58.5 22t58 -26t23 -66q0 -164 -262 -170zM305 -44q33 0 54.5 -21t21.5 -53q0 -64 -56 -106.5t-140 -57.5l-10 36q86 25 103 63q-25 5 -40 22.5t-15 41.5q0 32 23.5 53.5t58.5 21.5z" />
    <glyph glyph-name="R.ss03" horiz-adv-x="838" 
d="M720 269q38 0 62.5 -27.5t24.5 -74.5q0 -72 -56.5 -124.5t-151.5 -52.5q-79 0 -122.5 38.5t-69.5 115.5l-15 47q-15 46 -31 61t-44 15h-27l-42 -148q-9 -31 22 -31h70l-25 -88h-360l25 88h61q31 0 40 31l126 443q9 31 -22 31h-60l25 87h348q100 0 161.5 -48t61.5 -130
q0 -88 -69 -149t-174 -77q53 -24 88 -102l25 -59q12 -27 25.5 -40.5t39.5 -13.5q41 0 64 49q-38 2 -59.5 26.5t-21.5 56.5q0 33 23.5 54.5t57.5 21.5zM377 354q70 0 121.5 43.5t51.5 102.5q0 40 -26 66.5t-73 26.5h-67l-69 -239h62z" />
    <glyph glyph-name="Racute.ss03" horiz-adv-x="838" 
d="M597 819q-26 -23 -134 -61q-14 -4 -21 -7h-53q47 87 68.5 122.5t41.5 52.5q25 22 53.5 21t50.5 -25q23 -26 20.5 -54t-26.5 -49zM720 269q38 0 62.5 -27.5t24.5 -74.5q0 -72 -56.5 -124.5t-151.5 -52.5q-79 0 -122.5 38.5t-69.5 115.5l-15 47q-15 46 -31 61t-44 15h-27
l-42 -148q-9 -31 22 -31h70l-25 -88h-360l25 88h61q31 0 40 31l126 443q9 31 -22 31h-60l25 87h348q100 0 161.5 -48t61.5 -130q0 -88 -69 -149t-174 -77q53 -24 88 -102l25 -59q12 -27 25.5 -40.5t39.5 -13.5q41 0 64 49q-38 2 -59.5 26.5t-21.5 56.5q0 33 23.5 54.5
t57.5 21.5zM377 354q70 0 121.5 43.5t51.5 102.5q0 40 -26 66.5t-73 26.5h-67l-69 -239h62z" />
    <glyph glyph-name="Rcaron.ss03" horiz-adv-x="838" 
d="M461 751q-17 0 -32 27l-87 162h90l59 -67l95 66h91l-170 -161q-28 -27 -46 -27zM720 269q38 0 62.5 -27.5t24.5 -74.5q0 -72 -56.5 -124.5t-151.5 -52.5q-79 0 -122.5 38.5t-69.5 115.5l-15 47q-15 46 -31 61t-44 15h-27l-42 -148q-9 -31 22 -31h70l-25 -88h-360l25 88
h61q31 0 40 31l126 443q9 31 -22 31h-60l25 87h348q100 0 161.5 -48t61.5 -130q0 -88 -69 -149t-174 -77q53 -24 88 -102l25 -59q12 -27 25.5 -40.5t39.5 -13.5q41 0 64 49q-38 2 -59.5 26.5t-21.5 56.5q0 33 23.5 54.5t57.5 21.5zM377 354q70 0 121.5 43.5t51.5 102.5
q0 40 -26 66.5t-73 26.5h-67l-69 -239h62z" />
    <glyph glyph-name="Rcommaaccent.ss03" horiz-adv-x="838" 
d="M720 269q38 0 62.5 -27.5t24.5 -74.5q0 -72 -56.5 -124.5t-151.5 -52.5q-79 0 -122.5 38.5t-69.5 115.5l-15 47q-15 46 -31 61t-44 15h-27l-42 -148q-9 -31 22 -31h70l-25 -88h-360l25 88h61q31 0 40 31l126 443q9 31 -22 31h-60l25 87h348q100 0 161.5 -48t61.5 -130
q0 -88 -69 -149t-174 -77q53 -24 88 -102l25 -59q12 -27 25.5 -40.5t39.5 -13.5q41 0 64 49q-38 2 -59.5 26.5t-21.5 56.5q0 33 23.5 54.5t57.5 21.5zM377 354q70 0 121.5 43.5t51.5 102.5q0 40 -26 66.5t-73 26.5h-67l-69 -239h62zM371 -44q33 0 54.5 -21t21.5 -53
q0 -64 -56 -106.5t-140 -57.5l-10 36q86 25 103 63q-25 5 -40 22.5t-15 41.5q0 32 23.5 53.5t58.5 21.5z" />
    <glyph glyph-name="T.ss03" horiz-adv-x="712" 
d="M558 600l-138 -481q-9 -31 22 -31h78l-25 -88h-385l25 88h78q31 0 40 31l138 481h-34q-94 0 -132.5 -6.5t-52.5 -26.5q30 -3 50.5 -23t20.5 -49q0 -32 -23.5 -54t-58.5 -22t-58 25.5t-23 65.5q0 166 266 170h194q103 0 140 6.5t49 26.5q-31 3 -51.5 23t-20.5 50
q0 32 23.5 54t58.5 22t58 -26t23 -66q0 -164 -262 -170z" />
    <glyph glyph-name="Tbar.ss03" horiz-adv-x="712" 
d="M820 770q0 -164 -262 -170l-73 -255h131l-18 -65h-132l-46 -161q-9 -31 22 -31h78l-25 -88h-385l25 88h78q31 0 40 31l46 161h-121l18 65h122l73 255h-34q-94 0 -132.5 -6.5t-52.5 -26.5q30 -3 50.5 -23t20.5 -49q0 -32 -23.5 -54t-58.5 -22t-58 25.5t-23 65.5
q0 166 266 170h194q103 0 140 6.5t49 26.5q-31 3 -51.5 23t-20.5 50q0 32 23.5 54t58.5 22t58 -26t23 -66z" />
    <glyph glyph-name="Tcaron.ss03" horiz-adv-x="712" 
d="M508 751q-17 0 -32 27l-87 162h90l59 -67l95 66h91l-170 -161q-28 -27 -46 -27zM558 600l-138 -481q-9 -31 22 -31h78l-25 -88h-385l25 88h78q31 0 40 31l138 481h-34q-94 0 -132.5 -6.5t-52.5 -26.5q30 -3 50.5 -23t20.5 -49q0 -32 -23.5 -54t-58.5 -22t-58 25.5
t-23 65.5q0 166 266 170h194q103 0 140 6.5t49 26.5q-31 3 -51.5 23t-20.5 50q0 32 23.5 54t58.5 22t58 -26t23 -66q0 -164 -262 -170z" />
    <glyph glyph-name="uni0162.ss03" horiz-adv-x="712" 
d="M558 600l-138 -481q-9 -31 22 -31h78l-25 -88h-165l-35 -55q46 0 74 -19.5t28 -54.5q0 -46 -40.5 -77t-99.5 -31q-49 0 -98 28l26 47q34 -22 70 -22q23 0 38 10.5t15 29.5q0 21 -23.5 29.5t-63.5 1.5l-9 30l60 83h-162l25 88h78q31 0 40 31l138 481h-34
q-94 0 -132.5 -6.5t-52.5 -26.5q30 -3 50.5 -23t20.5 -49q0 -32 -23.5 -54t-58.5 -22t-58 25.5t-23 65.5q0 166 266 170h194q103 0 140 6.5t49 26.5q-31 3 -51.5 23t-20.5 50q0 32 23.5 54t58.5 22t58 -26t23 -66q0 -164 -262 -170z" />
    <glyph glyph-name="uni021A.ss03" horiz-adv-x="712" 
d="M558 600l-138 -481q-9 -31 22 -31h78l-25 -88h-385l25 88h78q31 0 40 31l138 481h-34q-94 0 -132.5 -6.5t-52.5 -26.5q30 -3 50.5 -23t20.5 -49q0 -32 -23.5 -54t-58.5 -22t-58 25.5t-23 65.5q0 166 266 170h194q103 0 140 6.5t49 26.5q-31 3 -51.5 23t-20.5 50
q0 32 23.5 54t58.5 22t58 -26t23 -66q0 -164 -262 -170zM305 -44q33 0 54.5 -21t21.5 -53q0 -64 -56 -106.5t-140 -57.5l-10 36q86 25 103 63q-25 5 -40 22.5t-15 41.5q0 32 23.5 53.5t58.5 21.5z" />
    <glyph glyph-name="Q.ss04" horiz-adv-x="789" 
d="M339 -10q-128 0 -203.5 76.5t-74.5 204.5q1 100 45.5 194.5t135.5 159.5t207 65q128 0 204 -76t75 -204q-1 -75 -28.5 -149t-76 -134.5t-123 -98.5t-161.5 -38zM338 71q52 0 97 44t72 108t42 129.5t14 113.5q-1 65 -32 104t-84 39q-54 0 -99.5 -43t-72 -106t-41 -126.5
t-13.5 -111.5q1 -69 32.5 -110t84.5 -41zM285 -66l12 31l298 -40q25 -3 39.5 -20t11.5 -38q-3 -25 -27 -36.5t-51 -0.5z" />
    <glyph glyph-name="A.ss08" horiz-adv-x="762" 
d="M679 88h31l-25 -88h-347l25 88h61q14 0 22.5 8.5t7.5 21.5l-7 64h-249l-43 -63q-9 -13 -6 -22t18 -9h54l-25 -88h-265l25 88h38q34 0 58 34l345 490l-8 68h169l81 -562q5 -30 40 -30zM250 257h188l-27 235z" />
    <glyph glyph-name="Aacute.ss08" horiz-adv-x="762" 
d="M691 819q-26 -23 -134 -61q-14 -4 -21 -7h-53q47 87 68.5 122.5t41.5 52.5q25 22 53.5 21t50.5 -25q23 -26 20.5 -54t-26.5 -49zM639 118q5 -30 40 -30h31l-25 -88h-347l25 88h61q14 0 22.5 8.5t7.5 21.5l-7 64h-249l-43 -63q-9 -13 -6 -22t18 -9h54l-25 -88h-265l25 88
h38q34 0 58 34l345 490l-8 68h169zM250 257h188l-27 235z" />
    <glyph glyph-name="Abreve.ss08" horiz-adv-x="762" 
d="M522 744q-73 0 -104 41.5t-12 124.5h76q1 -34 15 -50t45 -16q61 0 104 66h85q-29 -83 -83.5 -124.5t-125.5 -41.5zM639 118q5 -30 40 -30h31l-25 -88h-347l25 88h61q14 0 22.5 8.5t7.5 21.5l-7 64h-249l-43 -63q-9 -13 -6 -22t18 -9h54l-25 -88h-265l25 88h38q34 0 58 34
l345 490l-8 68h169zM250 257h188l-27 235z" />
    <glyph glyph-name="Acircumflex.ss08" horiz-adv-x="762" 
d="M549 822l-95 -66h-91l170 161q28 27 46 27q17 0 32 -27l87 -162h-90zM679 88h31l-25 -88h-347l25 88h61q14 0 22.5 8.5t7.5 21.5l-7 64h-249l-43 -63q-9 -13 -6 -22t18 -9h54l-25 -88h-265l25 88h38q34 0 58 34l345 490l-8 68h169l81 -562q5 -30 40 -30zM250 257h188
l-27 235z" />
    <glyph glyph-name="Adieresis.ss08" horiz-adv-x="762" 
d="M423 740q-37 0 -61.5 23.5t-24.5 60.5t24.5 62t61.5 25q38 0 62 -24t24 -62q0 -37 -24 -61t-62 -24zM643 740q-37 0 -61.5 23.5t-24.5 60.5t24.5 62t61.5 25q38 0 62 -24t24 -62q0 -37 -24 -61t-62 -24zM639 118q5 -30 40 -30h31l-25 -88h-347l25 88h61q14 0 22.5 8.5
t7.5 21.5l-7 64h-249l-43 -63q-9 -13 -6 -22t18 -9h54l-25 -88h-265l25 88h38q34 0 58 34l345 490l-8 68h169zM250 257h188l-27 235z" />
    <glyph glyph-name="Agrave.ss08" horiz-adv-x="762" 
d="M496 750q-67 61 -82 83q-19 28 -19 56q0 32 22.5 51.5t52.5 19.5q50 0 68 -56q13 -38 13 -154h-55zM679 88h31l-25 -88h-347l25 88h61q14 0 22.5 8.5t7.5 21.5l-7 64h-249l-43 -63q-9 -13 -6 -22t18 -9h54l-25 -88h-265l25 88h38q34 0 58 34l345 490l-8 68h169l81 -562
q5 -30 40 -30zM250 257h188l-27 235z" />
    <glyph glyph-name="Amacron.ss08" horiz-adv-x="762" 
d="M714 856l-28 -98h-320l29 98h319zM639 118q5 -30 40 -30h31l-25 -88h-347l25 88h61q14 0 22.5 8.5t7.5 21.5l-7 64h-249l-43 -63q-9 -13 -6 -22t18 -9h54l-25 -88h-265l25 88h38q34 0 58 34l345 490l-8 68h169zM250 257h188l-27 235z" />
    <glyph glyph-name="Aogonek.ss08" horiz-adv-x="762" 
d="M685 0h-127q-42 -43 -56 -63t-14 -40q0 -33 38 -33q19 0 48 11l-23 -83q-36 -17 -77 -17q-43 0 -68 19.5t-25 55.5q0 35 21.5 66.5t90.5 83.5h-155l25 88h61q14 0 22.5 8.5t7.5 21.5l-7 64h-249l-43 -63q-9 -13 -6 -22t18 -9h54l-25 -88h-265l25 88h38q34 0 58 34
l345 490l-8 68h169l81 -562q5 -30 40 -30h31zM250 257h188l-27 235z" />
    <glyph glyph-name="Aring.ss08" horiz-adv-x="762" 
d="M540 727q-52 0 -84.5 28.5t-32.5 71.5q0 53 41 88.5t98 35.5q52 0 85.5 -28.5t33.5 -70.5q0 -52 -41.5 -88.5t-99.5 -36.5zM559 894q-24 0 -42 -18.5t-18 -44.5q0 -21 13 -33t33 -12q24 0 41.5 18.5t17.5 43.5q0 20 -12 33t-33 13zM679 88h31l-25 -88h-347l25 88h61
q14 0 22.5 8.5t7.5 21.5l-7 64h-249l-43 -63q-9 -13 -6 -22t18 -9h54l-25 -88h-265l25 88h38q34 0 58 34l345 490l-8 68h169l81 -562q5 -30 40 -30zM250 257h188l-27 235z" />
    <glyph glyph-name="Atilde.ss08" horiz-adv-x="762" 
d="M448 805q-17 0 -28.5 -7.5t-16.5 -15.5t-13 -27l-56 18q14 67 50.5 109t98.5 42q35 0 84 -28.5t73 -28.5q7 0 13 1.5t10 3t8.5 6t7 6.5t6 8.5t4.5 7.5t5 9l3 8l58 -12q-13 -69 -50.5 -113t-101.5 -44q-33 0 -80 28.5t-75 28.5zM639 118q5 -30 40 -30h31l-25 -88h-347
l25 88h61q14 0 22.5 8.5t7.5 21.5l-7 64h-249l-43 -63q-9 -13 -6 -22t18 -9h54l-25 -88h-265l25 88h38q34 0 58 34l345 490l-8 68h169zM250 257h188l-27 235z" />
    <glyph glyph-name="i.loclTRK" horiz-adv-x="395" 
d="M300 565q-40 0 -66 25t-26 65t26 66t66 26t65.5 -25.5t25.5 -65.5t-25.5 -65.5t-65.5 -25.5zM322 206h67q-42 -113 -91 -164.5t-113 -51.5t-93.5 43t-6.5 108l90 253q11 33 -16 33q-32 0 -84 -127h-67q46 117 95.5 167.5t114.5 50.5t93 -44t4 -110l-89 -247
q-6 -20 -1 -28t16 -8q32 0 81 125z" />
    <glyph glyph-name="k.fina" horiz-adv-x="835" 
d="M122 680h221l-194 -680h-151l160 562q9 31 -22 31h-39zM721 276q38 0 62 -26t24 -70q0 -73 -63.5 -131.5t-180.5 -58.5q-60 0 -105.5 16t-79.5 48.5t-56 66.5t-47 86l-27 54q101 121 145 162q102 95 192 95q47 0 73 -23.5t26 -61.5q0 -36 -23 -60.5t-57 -24.5
q-32 0 -53.5 20t-21.5 48q0 12 7 28q-60 -27 -134 -148l51 -99q66 -130 166 -130q70 0 104 57q-34 1 -59 23.5t-25 54.5t23.5 53t58.5 21z" />
    <glyph glyph-name="kcommaaccent.fina" horiz-adv-x="835" 
d="M122 680h221l-194 -680h-151l160 562q9 31 -22 31h-39zM721 276q38 0 62 -26t24 -70q0 -73 -63.5 -131.5t-180.5 -58.5q-60 0 -105.5 16t-79.5 48.5t-56 66.5t-47 86l-27 54q101 121 145 162q102 95 192 95q47 0 73 -23.5t26 -61.5q0 -36 -23 -60.5t-57 -24.5
q-32 0 -53.5 20t-21.5 48q0 12 7 28q-60 -27 -134 -148l51 -99q66 -130 166 -130q70 0 104 57q-34 1 -59 23.5t-25 54.5t23.5 53t58.5 21zM291 -44q33 0 54.5 -21t21.5 -53q0 -64 -56 -106.5t-140 -57.5l-10 36q86 25 103 63q-25 5 -40 22.5t-15 41.5q0 32 23.5 53.5
t58.5 21.5z" />
    <glyph glyph-name="y.ss02" horiz-adv-x="635" 
d="M500 508h154l-139 -473q-30 -106 -113 -165.5t-195 -59.5q-89 0 -135 35.5t-46 86.5q0 36 23.5 59.5t57.5 23.5q31 0 51 -19t20 -48q0 -48 -51 -66q29 -9 62 -9q132 0 188 162l76 212h-7q-79 -225 -218 -225q-78 0 -110 59.5t0 154.5l53 156q6 20 1 28t-16 8q-9 0 -18 -8
t-25.5 -36.5t-39.5 -80.5h-66q45 112 94.5 163.5t112.5 51.5q66 0 93 -45.5t4 -115.5l-45 -130q-36 -106 32 -106q20 0 37 11.5t42 47.5t56 118.5t67 209.5z" />
    <glyph glyph-name="yacute.ss02" horiz-adv-x="635" 
d="M587 647q-26 -23 -134 -61q-14 -4 -21 -7h-53q47 87 68.5 122.5t41.5 52.5q25 22 53.5 21t50.5 -25q23 -26 20.5 -54t-26.5 -49zM500 508h154l-139 -473q-30 -106 -113 -165.5t-195 -59.5q-89 0 -135 35.5t-46 86.5q0 36 23.5 59.5t57.5 23.5q31 0 51 -19t20 -48
q0 -48 -51 -66q29 -9 62 -9q132 0 188 162l76 212h-7q-79 -225 -218 -225q-78 0 -110 59.5t0 154.5l53 156q6 20 1 28t-16 8q-9 0 -18 -8t-25.5 -36.5t-39.5 -80.5h-66q45 112 94.5 163.5t112.5 51.5q66 0 93 -45.5t4 -115.5l-45 -130q-36 -106 32 -106q20 0 37 11.5
t42 47.5t56 118.5t67 209.5z" />
    <glyph glyph-name="ycircumflex.ss02" horiz-adv-x="635" 
d="M350 584h-91l170 161q28 27 46 27q17 0 32 -27l87 -162h-90l-59 67zM500 508h154l-139 -473q-30 -106 -113 -165.5t-195 -59.5q-89 0 -135 35.5t-46 86.5q0 36 23.5 59.5t57.5 23.5q31 0 51 -19t20 -48q0 -48 -51 -66q29 -9 62 -9q132 0 188 162l76 212h-7
q-79 -225 -218 -225q-78 0 -110 59.5t0 154.5l53 156q6 20 1 28t-16 8q-9 0 -18 -8t-25.5 -36.5t-39.5 -80.5h-66q45 112 94.5 163.5t112.5 51.5q66 0 93 -45.5t4 -115.5l-45 -130q-36 -106 32 -106q20 0 37 11.5t42 47.5t56 118.5t67 209.5z" />
    <glyph glyph-name="ydieresis.ss02" horiz-adv-x="635" 
d="M319 568q-37 0 -61.5 23.5t-24.5 60.5t24.5 62t61.5 25q38 0 62 -24t24 -62q0 -37 -24 -61t-62 -24zM539 568q-37 0 -61.5 23.5t-24.5 60.5t24.5 62t61.5 25q38 0 62 -24t24 -62q0 -37 -24 -61t-62 -24zM500 508h154l-139 -473q-30 -106 -113 -165.5t-195 -59.5
q-89 0 -135 35.5t-46 86.5q0 36 23.5 59.5t57.5 23.5q31 0 51 -19t20 -48q0 -48 -51 -66q29 -9 62 -9q132 0 188 162l76 212h-7q-79 -225 -218 -225q-78 0 -110 59.5t0 154.5l53 156q6 20 1 28t-16 8q-9 0 -18 -8t-25.5 -36.5t-39.5 -80.5h-66q45 112 94.5 163.5t112.5 51.5
q66 0 93 -45.5t4 -115.5l-45 -130q-36 -106 32 -106q20 0 37 11.5t42 47.5t56 118.5t67 209.5z" />
    <glyph glyph-name="ygrave.ss02" horiz-adv-x="635" 
d="M447 578h-55q-67 61 -82 83q-19 28 -19 56q0 32 22.5 51.5t52.5 19.5q50 0 68 -56q13 -38 13 -154zM500 508h154l-139 -473q-30 -106 -113 -165.5t-195 -59.5q-89 0 -135 35.5t-46 86.5q0 36 23.5 59.5t57.5 23.5q31 0 51 -19t20 -48q0 -48 -51 -66q29 -9 62 -9
q132 0 188 162l76 212h-7q-79 -225 -218 -225q-78 0 -110 59.5t0 154.5l53 156q6 20 1 28t-16 8q-9 0 -18 -8t-25.5 -36.5t-39.5 -80.5h-66q45 112 94.5 163.5t112.5 51.5q66 0 93 -45.5t4 -115.5l-45 -130q-36 -106 32 -106q20 0 37 11.5t42 47.5t56 118.5t67 209.5z" />
    <glyph glyph-name="f_f_t" horiz-adv-x="1157" 
d="M1038 420l-85 -298q-6 -22 2.5 -31.5t22.5 -9.5q44 0 93 124h66q-79 -215 -220 -215q-67 0 -97.5 43t-11.5 110l78 277h-192l-123 -434q-25 -87 -85.5 -131.5t-137.5 -44.5q-60 0 -95 28t-35 71q0 34 19.5 55t51.5 21q28 0 47.5 -17t19.5 -45q0 -24 -15 -40.5t-38 -22.5
h7q74 0 110 126l123 434h-219l-123 -434q-25 -87 -85.5 -131.5t-137.5 -44.5q-60 0 -95 28t-35 71q0 34 19.5 55t51.5 21q28 0 47.5 -17t19.5 -45q0 -24 -15 -40.5t-38 -22.5h7q74 0 110 126l123 434h-113l25 88h82q29 0 39 28l7 24q25 79 86 122.5t142 43.5q69 0 116 -29
t47 -78q0 -8 -1 -11q32 57 86.5 87.5t121.5 30.5q69 0 116 -29t47 -78q0 -35 -21.5 -58.5t-59.5 -23.5q-32 0 -53 19t-21 50q0 46 42 62q-5 1 -17 1q-39 0 -65 -26t-45 -86l-15 -49h199l120 115h58l-33 -115h128l-26 -88h-127zM576 536l7 24q0 2 1 2q-23 -25 -61 -25
q-32 0 -53 19t-21 50q0 46 42 62q-5 1 -17 1q-39 0 -65 -26t-45 -86l-15 -49h188q29 0 39 28z" />
    <glyph glyph-name="a.smcp" horiz-adv-x="674" 
d="M597 86h26l-25 -86h-318l25 86h57q13 0 19.5 6.5t5.5 17.5l-5 39h-218l-28 -38q-8 -11 -5 -18t16 -7h45l-25 -86h-236l25 86h32q29 0 48 27l326 438h121l78 -440q4 -25 36 -25zM217 221h154l-24 177z" />
    <glyph glyph-name="aacute.smcp" horiz-adv-x="674" 
d="M612 690q-26 -23 -134 -61q-14 -4 -21 -7h-53q47 87 68.5 122.5t41.5 52.5q25 22 53.5 21t50.5 -25q23 -26 20.5 -54t-26.5 -49zM561 111q4 -25 36 -25h26l-25 -86h-318l25 86h57q13 0 19.5 6.5t5.5 17.5l-5 39h-218l-28 -38q-8 -11 -5 -18t16 -7h45l-25 -86h-236l25 86
h32q29 0 48 27l326 438h121zM217 221h154l-24 177z" />
    <glyph glyph-name="abreve.smcp" horiz-adv-x="674" 
d="M652 781q-29 -83 -83.5 -124.5t-125.5 -41.5q-73 0 -104 41.5t-12 124.5h76q1 -34 15 -50t45 -16q61 0 104 66h85zM597 86h26l-25 -86h-318l25 86h57q13 0 19.5 6.5t5.5 17.5l-5 39h-218l-28 -38q-8 -11 -5 -18t16 -7h45l-25 -86h-236l25 86h32q29 0 48 27l326 438h121
l78 -440q4 -25 36 -25zM217 221h154l-24 177z" />
    <glyph glyph-name="acircumflex.smcp" horiz-adv-x="674" 
d="M375 627h-91l170 161q28 27 46 27q17 0 32 -27l87 -162h-90l-59 67zM597 86h26l-25 -86h-318l25 86h57q13 0 19.5 6.5t5.5 17.5l-5 39h-218l-28 -38q-8 -11 -5 -18t16 -7h45l-25 -86h-236l25 86h32q29 0 48 27l326 438h121l78 -440q4 -25 36 -25zM217 221h154l-24 177z
" />
    <glyph glyph-name="adieresis.smcp" horiz-adv-x="674" 
d="M344 611q-37 0 -61.5 23.5t-24.5 60.5t24.5 62t61.5 25q38 0 62 -24t24 -62q0 -37 -24 -61t-62 -24zM564 611q-37 0 -61.5 23.5t-24.5 60.5t24.5 62t61.5 25q38 0 62 -24t24 -62q0 -37 -24 -61t-62 -24zM597 86h26l-25 -86h-318l25 86h57q13 0 19.5 6.5t5.5 17.5l-5 39
h-218l-28 -38q-8 -11 -5 -18t16 -7h45l-25 -86h-236l25 86h32q29 0 48 27l326 438h121l78 -440q4 -25 36 -25zM217 221h154l-24 177z" />
    <glyph glyph-name="agrave.smcp" horiz-adv-x="674" 
d="M472 621h-55q-67 61 -82 83q-19 28 -19 56q0 32 22.5 51.5t52.5 19.5q50 0 68 -56q13 -38 13 -154zM597 86h26l-25 -86h-318l25 86h57q13 0 19.5 6.5t5.5 17.5l-5 39h-218l-28 -38q-8 -11 -5 -18t16 -7h45l-25 -86h-236l25 86h32q29 0 48 27l326 438h121l78 -440
q4 -25 36 -25zM217 221h154l-24 177z" />
    <glyph glyph-name="amacron.smcp" horiz-adv-x="674" 
d="M316 727h319l-28 -98h-320zM597 86h26l-25 -86h-318l25 86h57q13 0 19.5 6.5t5.5 17.5l-5 39h-218l-28 -38q-8 -11 -5 -18t16 -7h45l-25 -86h-236l25 86h32q29 0 48 27l326 438h121l78 -440q4 -25 36 -25zM217 221h154l-24 177z" />
    <glyph glyph-name="aogonek.smcp" horiz-adv-x="674" 
d="M598 0h-109q-40 -42 -53 -59.5t-13 -35.5q0 -30 38 -30q17 0 45 8l-25 -91q-39 -15 -78 -15q-46 0 -72 20.5t-26 58.5q0 31 21.5 61.5t93.5 82.5h-140l25 86h57q13 0 19.5 6.5t5.5 17.5l-5 39h-218l-28 -38q-8 -11 -5 -18t16 -7h45l-25 -86h-236l25 86h32q29 0 48 27
l326 438h121l78 -440q4 -25 36 -25h26zM217 221h154l-24 177z" />
    <glyph glyph-name="aring.smcp" horiz-adv-x="674" 
d="M461 598q-52 0 -84.5 28.5t-32.5 71.5q0 53 41 88.5t98 35.5q52 0 85.5 -28.5t33.5 -70.5q0 -52 -41.5 -88.5t-99.5 -36.5zM466 657q24 0 41.5 18.5t17.5 43.5q0 20 -12 33t-33 13q-24 0 -42 -18.5t-18 -44.5q0 -21 13 -33t33 -12zM597 86h26l-25 -86h-318l25 86h57
q13 0 19.5 6.5t5.5 17.5l-5 39h-218l-28 -38q-8 -11 -5 -18t16 -7h45l-25 -86h-236l25 86h32q29 0 48 27l326 438h121l78 -440q4 -25 36 -25zM217 221h154l-24 177z" />
    <glyph glyph-name="atilde.smcp" horiz-adv-x="674" 
d="M676 776q-13 -69 -50.5 -113t-101.5 -44q-33 0 -80 28.5t-75 28.5q-17 0 -28.5 -7.5t-16.5 -15.5t-13 -27l-56 18q14 67 50.5 109t98.5 42q35 0 84 -28.5t73 -28.5q7 0 13 1.5t10 3t8.5 6t7 6.5t6 8.5t4.5 7.5t4 9l4 8zM597 86h26l-25 -86h-318l25 86h57q13 0 19.5 6.5
t5.5 17.5l-5 39h-218l-28 -38q-8 -11 -5 -18t16 -7h45l-25 -86h-236l25 86h32q29 0 48 27l326 438h121l78 -440q4 -25 36 -25zM217 221h154l-24 177z" />
    <glyph glyph-name="ae.smcp" horiz-adv-x="906" 
d="M883 369h-91q0 2 2.5 15t3 15t1.5 13t0 13.5t-2 10.5t-4.5 10.5t-8 7.5t-11 6.5t-15.5 3t-21 1.5h-124l-53 -180h55q7 0 13.5 2t11.5 7l9 9t8.5 12.5t6.5 13.5t7 16t7 16h66l-63 -224h-66q6 19 3 42.5t-26 23.5h-55l-37 -120h134q37 0 61.5 15.5t34.5 32t25 50.5h90
l-51 -181h-535l23 86h47q25 0 33 25l13 46h-172l-44 -46q-9 -11 -5.5 -18t17.5 -7h49l-23 -86h-265l24 86h31q22 0 49 27l325 329q22 23 -12 23h-41l24 86h602zM270 227h125l55 189z" />
    <glyph glyph-name="b.smcp" horiz-adv-x="611" 
d="M612 420q0 -56 -49.5 -94t-131.5 -49q64 -9 98 -40t34 -79q0 -68 -67.5 -113t-180.5 -45h-360l25 86h47q28 0 33 20l95 330q4 12 -2 20.5t-17 8.5h-47l25 86h311q83 0 135 -35.5t52 -95.5zM342 328q49 0 82 23t33 58q0 26 -19.5 41t-52.5 15h-61l-40 -137h58zM283 86
q59 0 92.5 26t33.5 63q0 31 -22.5 48.5t-61.5 17.5h-66l-44 -155h68z" />
    <glyph glyph-name="c.smcp" horiz-adv-x="634" 
d="M445 379q0 45 42 74q-28 21 -72 21q-50 0 -90.5 -27t-63.5 -68t-35 -84.5t-12 -83.5q0 -60 30 -96.5t85 -36.5q38 0 72.5 21.5t51.5 42.5t46 62h83q-57 -115 -128 -164.5t-161 -49.5q-111 0 -181 61.5t-70 169.5q0 135 103 236.5t246 101.5q95 0 165.5 -46t70.5 -120
q0 -43 -25 -69t-66 -26q-38 0 -64.5 23.5t-26.5 57.5z" />
    <glyph glyph-name="cacute.smcp" horiz-adv-x="634" 
d="M585 690q-26 -23 -134 -61q-14 -4 -21 -7h-53q47 87 68.5 122.5t41.5 52.5q25 22 53.5 21t50.5 -25q23 -26 20.5 -54t-26.5 -49zM445 379q0 45 42 74q-28 21 -72 21q-50 0 -90.5 -27t-63.5 -68t-35 -84.5t-12 -83.5q0 -60 30 -96.5t85 -36.5q38 0 72.5 21.5t51.5 42.5
t46 62h83q-57 -115 -128 -164.5t-161 -49.5q-111 0 -181 61.5t-70 169.5q0 135 103 236.5t246 101.5q95 0 165.5 -46t70.5 -120q0 -43 -25 -69t-66 -26q-38 0 -64.5 23.5t-26.5 57.5z" />
    <glyph glyph-name="ccaron.smcp" horiz-adv-x="634" 
d="M449 622q-17 0 -32 27l-87 162h90l59 -67l95 66h91l-170 -161q-28 -27 -46 -27zM391 559q95 0 165.5 -46t70.5 -120q0 -43 -25 -69t-66 -26q-38 0 -64.5 23.5t-26.5 57.5q0 45 42 74q-28 21 -72 21q-50 0 -90.5 -27t-63.5 -68t-35 -84.5t-12 -83.5q0 -60 30 -96.5
t85 -36.5q38 0 72.5 21.5t51.5 42.5t46 62h83q-57 -115 -128 -164.5t-161 -49.5q-111 0 -181 61.5t-70 169.5q0 135 103 236.5t246 101.5z" />
    <glyph glyph-name="ccedilla.smcp" horiz-adv-x="634" 
d="M445 379q0 45 42 74q-28 21 -72 21q-50 0 -90.5 -27t-63.5 -68t-35 -84.5t-12 -83.5q0 -60 30 -96.5t85 -36.5q38 0 72.5 21.5t51.5 42.5t46 62h83q-57 -115 -128 -164.5t-161 -49.5q-14 0 -20 1l-29 -46q46 0 74 -19.5t28 -54.5q0 -46 -40.5 -77t-99.5 -31q-49 0 -98 28
l26 47q34 -22 70 -22q23 0 38 10.5t15 29.5q0 21 -23.5 29.5t-63.5 1.5l-9 30l59 81q-81 19 -129.5 77t-48.5 146q0 135 103 236.5t246 101.5q95 0 165.5 -46t70.5 -120q0 -43 -25 -69t-66 -26q-38 0 -64.5 23.5t-26.5 57.5z" />
    <glyph glyph-name="cdotaccent.smcp" horiz-adv-x="634" 
d="M442 608q-40 0 -66 25t-26 65t26 66t66 26t65.5 -25.5t25.5 -65.5t-25.5 -65.5t-65.5 -25.5zM445 379q0 45 42 74q-28 21 -72 21q-50 0 -90.5 -27t-63.5 -68t-35 -84.5t-12 -83.5q0 -60 30 -96.5t85 -36.5q38 0 72.5 21.5t51.5 42.5t46 62h83q-57 -115 -128 -164.5
t-161 -49.5q-111 0 -181 61.5t-70 169.5q0 135 103 236.5t246 101.5q95 0 165.5 -46t70.5 -120q0 -43 -25 -69t-66 -26q-38 0 -64.5 23.5t-26.5 57.5z" />
    <glyph glyph-name="d.smcp" horiz-adv-x="688" 
d="M376 551q127 0 206 -60t79 -165q0 -139 -118.5 -232.5t-296.5 -93.5h-291l25 86h50q27 0 33 19l96 331q4 14 -1.5 21.5t-17.5 7.5h-51l25 86h262zM264 86q93 0 160.5 70.5t67.5 172.5q0 67 -34 101.5t-97 34.5h-29l-109 -379h41z" />
    <glyph glyph-name="eth.smcp" horiz-adv-x="688" 
d="M376 551q127 0 206 -60t79 -165q0 -139 -118.5 -232.5t-296.5 -93.5h-291l25 86h50q27 0 33 19l36 125h-72l27 96h73l32 110q4 14 -1.5 21.5t-17.5 7.5h-51l25 86h262zM264 86q93 0 160.5 70.5t67.5 172.5q0 67 -34 101.5t-97 34.5h-29l-40 -139h92l-26 -96h-94l-41 -144
h41z" />
    <glyph glyph-name="dcaron.smcp" horiz-adv-x="688" 
d="M538 810h91l-170 -161q-28 -27 -46 -27q-17 0 -32 27l-87 162h90l59 -67zM376 551q127 0 206 -60t79 -165q0 -139 -118.5 -232.5t-296.5 -93.5h-291l25 86h50q27 0 33 19l96 331q4 14 -1.5 21.5t-17.5 7.5h-51l25 86h262zM264 86q93 0 160.5 70.5t67.5 172.5
q0 67 -34 101.5t-97 34.5h-29l-109 -379h41z" />
    <glyph glyph-name="dcroat.smcp" horiz-adv-x="688" 
d="M376 551q127 0 206 -60t79 -165q0 -139 -118.5 -232.5t-296.5 -93.5h-291l25 86h50q27 0 33 19l36 125h-72l27 96h73l32 110q4 14 -1.5 21.5t-17.5 7.5h-51l25 86h262zM264 86q93 0 160.5 70.5t67.5 172.5q0 67 -34 101.5t-97 34.5h-29l-40 -139h92l-26 -96h-94l-41 -144
h41z" />
    <glyph glyph-name="e.smcp" horiz-adv-x="610" 
d="M457 184h92l-52 -184h-541l24 86h50q27 0 33 24l95 330q8 25 -20 25h-47l23 86h541l-51 -183h-94q9 56 3 72q-11 29 -60 30h-122l-48 -165h56q16 0 27.5 10.5t16.5 20t17 35.5h61l-61 -216h-61q6 27 2 46t-27 19h-55l-41 -140h125q21 0 37 5t25.5 10t18.5 18.5t12.5 20
t11 25.5t9.5 25z" />
    <glyph glyph-name="eacute.smcp" horiz-adv-x="610" 
d="M363 622q47 87 68.5 122.5t41.5 52.5q25 22 53.5 21t50.5 -25q23 -26 20.5 -54t-26.5 -49q-26 -23 -134 -61q-14 -4 -21 -7h-53zM457 184h92l-52 -184h-541l24 86h50q27 0 33 24l95 330q8 25 -20 25h-47l23 86h541l-51 -183h-94q9 56 3 72q-11 29 -60 30h-122l-48 -165
h56q16 0 27.5 10.5t16.5 20t17 35.5h61l-61 -216h-61q6 27 2 46t-27 19h-55l-41 -140h125q21 0 37 5t25.5 10t18.5 18.5t12.5 20t11 25.5t9.5 25z" />
    <glyph glyph-name="ecaron.smcp" horiz-adv-x="610" 
d="M532 811h91l-170 -161q-28 -27 -46 -27q-17 0 -32 27l-87 162h90l59 -67zM457 184h92l-52 -184h-541l24 86h50q27 0 33 24l95 330q8 25 -20 25h-47l23 86h541l-51 -183h-94q9 56 3 72q-11 29 -60 30h-122l-48 -165h56q16 0 27.5 10.5t16.5 20t17 35.5h61l-61 -216h-61
q6 27 2 46t-27 19h-55l-41 -140h125q21 0 37 5t25.5 10t18.5 18.5t12.5 20t11 25.5t9.5 25z" />
    <glyph glyph-name="ecircumflex.smcp" horiz-adv-x="610" 
d="M334 627h-91l170 161q28 27 46 27q17 0 32 -27l87 -162h-90l-59 67zM457 184h92l-52 -184h-541l24 86h50q27 0 33 24l95 330q8 25 -20 25h-47l23 86h541l-51 -183h-94q9 56 3 72q-11 29 -60 30h-122l-48 -165h56q16 0 27.5 10.5t16.5 20t17 35.5h61l-61 -216h-61
q6 27 2 46t-27 19h-55l-41 -140h125q21 0 37 5t25.5 10t18.5 18.5t12.5 20t11 25.5t9.5 25z" />
    <glyph glyph-name="edieresis.smcp" horiz-adv-x="610" 
d="M303 611q-37 0 -61.5 23.5t-24.5 60.5t24.5 62t61.5 25q38 0 62 -24t24 -62q0 -37 -24 -61t-62 -24zM523 611q-37 0 -61.5 23.5t-24.5 60.5t24.5 62t61.5 25q38 0 62 -24t24 -62q0 -37 -24 -61t-62 -24zM457 184h92l-52 -184h-541l24 86h50q27 0 33 24l95 330
q8 25 -20 25h-47l23 86h541l-51 -183h-94q9 56 3 72q-11 29 -60 30h-122l-48 -165h56q16 0 27.5 10.5t16.5 20t17 35.5h61l-61 -216h-61q6 27 2 46t-27 19h-55l-41 -140h125q21 0 37 5t25.5 10t18.5 18.5t12.5 20t11 25.5t9.5 25z" />
    <glyph glyph-name="edotaccent.smcp" horiz-adv-x="610" 
d="M428 608q-40 0 -66 25t-26 65t26 66t66 26t65.5 -25.5t25.5 -65.5t-25.5 -65.5t-65.5 -25.5zM457 184h92l-52 -184h-541l24 86h50q27 0 33 24l95 330q8 25 -20 25h-47l23 86h541l-51 -183h-94q9 56 3 72q-11 29 -60 30h-122l-48 -165h56q16 0 27.5 10.5t16.5 20t17 35.5
h61l-61 -216h-61q6 27 2 46t-27 19h-55l-41 -140h125q21 0 37 5t25.5 10t18.5 18.5t12.5 20t11 25.5t9.5 25z" />
    <glyph glyph-name="egrave.smcp" horiz-adv-x="610" 
d="M431 621h-55q-67 61 -82 83q-19 28 -19 56q0 32 22.5 51.5t52.5 19.5q50 0 68 -56q13 -38 13 -154zM457 184h92l-52 -184h-541l24 86h50q27 0 33 24l95 330q8 25 -20 25h-47l23 86h541l-51 -183h-94q9 56 3 72q-11 29 -60 30h-122l-48 -165h56q16 0 27.5 10.5t16.5 20
t17 35.5h61l-61 -216h-61q6 27 2 46t-27 19h-55l-41 -140h125q21 0 37 5t25.5 10t18.5 18.5t12.5 20t11 25.5t9.5 25z" />
    <glyph glyph-name="emacron.smcp" horiz-adv-x="610" 
d="M275 727h319l-28 -98h-320zM457 184h92l-52 -184h-541l24 86h50q27 0 33 24l95 330q8 25 -20 25h-47l23 86h541l-51 -183h-94q9 56 3 72q-11 29 -60 30h-122l-48 -165h56q16 0 27.5 10.5t16.5 20t17 35.5h61l-61 -216h-61q6 27 2 46t-27 19h-55l-41 -140h125q21 0 37 5
t25.5 10t18.5 18.5t12.5 20t11 25.5t9.5 25z" />
    <glyph glyph-name="eogonek.smcp" horiz-adv-x="610" 
d="M604 368h-94q9 56 3 72q-11 29 -60 30h-122l-48 -165h56q16 0 27.5 10.5t16.5 20t17 35.5h61l-61 -216h-61q6 27 2 46t-27 19h-55l-41 -140h125q21 0 37 5t25.5 10t18.5 18.5t12.5 20t11 25.5t9.5 25h92l-52 -184h-75q-41 -42 -54 -59.5t-13 -35.5q0 -30 39 -30
q16 0 44 8l-25 -91q-39 -15 -78 -15q-45 0 -71 20.5t-26 58.5q0 31 21.5 61.5t92.5 82.5h-396l24 86h50q27 0 33 24l95 330q8 25 -20 25h-47l23 86h541z" />
    <glyph glyph-name="f.smcp" horiz-adv-x="605" 
d="M654 551l-52 -184h-94q10 56 4 71q-11 27 -59 27h-124l-46 -160h70q6 0 11.5 1.5t9.5 3.5t8 6.5t6.5 8t6 10.5t5 11t5.5 13.5t6 13.5h64l-65 -226h-62q7 28 4 50.5t-30 22.5h-63l-32 -109q-8 -25 19 -25h107l-24 -86h-373l24 86h50q27 0 33 24l95 330q8 25 -20 25h-47
l23 86h540z" />
    <glyph glyph-name="f_b.smcp" horiz-adv-x="1216" 
d="M602 367h-94q10 56 4 71q-11 27 -59 27h-124l-46 -160h70q6 0 11.5 1.5t9.5 3.5t8 6.5t6.5 8t6 10.5t5 11t5.5 13.5t6 13.5h64l-65 -226h-62q7 28 4 50.5t-30 22.5h-63l-32 -109q-8 -25 19 -25h107l-24 -86h-373l24 86h50q27 0 33 24l95 330q8 25 -20 25h-47l23 86h540z
M1217 420q0 -56 -49.5 -94t-131.5 -49q64 -9 98 -40t34 -79q0 -68 -67.5 -113t-180.5 -45h-360l25 86h47q28 0 33 20l95 330q4 12 -2 20.5t-17 8.5h-47l25 86h311q83 0 135 -35.5t52 -95.5zM947 328q49 0 82 23t33 58q0 26 -19.5 41t-52.5 15h-61l-40 -137h58zM888 86
q59 0 92.5 26t33.5 63q0 31 -22.5 48.5t-61.5 17.5h-66l-44 -155h68z" />
    <glyph glyph-name="f_f.smcp" horiz-adv-x="1210" 
d="M654 551l-52 -184h-94q10 56 4 71q-11 27 -59 27h-124l-46 -160h70q6 0 11.5 1.5t9.5 3.5t8 6.5t6.5 8t6 10.5t5 11t5.5 13.5t6 13.5h64l-65 -226h-62q7 28 4 50.5t-30 22.5h-63l-32 -109q-8 -25 19 -25h107l-24 -86h-373l24 86h50q27 0 33 24l95 330q8 25 -20 25h-47
l23 86h540zM1259 551l-52 -184h-94q10 56 4 71q-11 27 -59 27h-124l-46 -160h70q6 0 11.5 1.5t9.5 3.5t8 6.5t6.5 8t6 10.5t5 11t5.5 13.5t6 13.5h64l-65 -226h-62q7 28 4 50.5t-30 22.5h-63l-32 -109q-8 -25 19 -25h107l-24 -86h-373l24 86h50q27 0 33 24l95 330
q8 25 -20 25h-47l23 86h540z" />
    </font>
</defs>
</svg>
