<?xml version="1.0" standalone="no"?>
<!DOCTYPE svg PUBLIC "-//W3C//DTD SVG 1.1//EN" "http://www.w3.org/Graphics/SVG/1.1/DTD/svg11.dtd" >
<svg xmlns="http://www.w3.org/2000/svg" xmlns:xlink="http://www.w3.org/1999/xlink" version="1.1">
<metadata>
Created by FontForge 20160407 at Mon Oct 24 16:32:11 2016
 By Jimmy Wärting
COPYRIGHT ESSELTE LETRASET LTD., 1990 
</metadata>
<defs>
<font id="HarlowSolidPlain" horiz-adv-x="400" >
  <font-face 
    font-family="Harlow Solid"
    font-weight="400"
    font-stretch="normal"
    units-per-em="1000"
    panose-1="2 0 5 5 3 0 0 2 0 3"
    ascent="800"
    descent="-200"
    x-height="373"
    cap-height="678"
    bbox="-307 -388 1345 776"
    underline-thickness="50"
    underline-position="-125"
    unicode-range="U+0020-FB02"
  />
<missing-glyph horiz-adv-x="500" 
 />
    <glyph glyph-name=".notdef" horiz-adv-x="500" 
 />
    <glyph glyph-name=".null" horiz-adv-x="0" 
 />
    <glyph glyph-name="nonmarkingreturn" horiz-adv-x="187" 
 />
    <glyph glyph-name="space" unicode=" " horiz-adv-x="187" 
 />
    <glyph glyph-name="dollar" unicode="$" horiz-adv-x="380" 
d="M372 602q-2 16 -3.5 24t-5.5 14q-7 9 -20.5 16t-25.5 7q-18 0 -34 -12t-24 -32l-7 -17q-60 -6 -96.5 -42.5t-36.5 -91.5q0 -16 5 -36t13 -40l7 -15l88 -203q6 -14 6 -24q0 -17 -12 -27.5t-32 -10.5h-99h-13q-30 0 -51.5 -19t-21.5 -47q0 -44 52 -46h12h12q-4 -13 -4 -21
q0 -22 14.5 -36t36.5 -14q20 0 36.5 13t25.5 36l9 22q32 1 59.5 12.5t47.5 30.5t31.5 44t11.5 54q0 23 -6.5 51.5t-20.5 57.5l-80 181q-4 8 -6.5 16.5t-2.5 13.5q0 27 40 27h12h63h13q31 0 53 19.5t22 48.5q0 46 -59 46h-9z" />
    <glyph glyph-name="percent" unicode="%" horiz-adv-x="611" 
d="M174 298q51 0 86 29q18 14 33.5 35.5t27 46.5t17.5 52t6 54q0 42 -24 67t-66 25q-70 0 -120 -71q-26 -35 -40 -74t-14 -75q0 -42 24.5 -65.5t69.5 -23.5zM435 -5q49 0 87 29q18 14 33 35.5t26.5 46.5t17.5 52t6 54q0 42 -24 67t-66 25q-68 0 -120 -70q-26 -35 -40 -74.5
t-14 -75.5q0 -42 24.5 -65.5t69.5 -23.5zM126 47q-8 -11 -10.5 -16.5t-2.5 -12.5q0 -11 8.5 -18t20.5 -7q20 0 36 20l4 6l377 532q8 11 10.5 17t2.5 12q0 11 -8.5 18t-20.5 7q-22 0 -36 -20l-4 -6zM276 514q0 -21 -9 -50t-24 -55q-30 -51 -64 -51q-13 0 -21 9.5t-8 24.5
q0 19 8.5 45.5t22.5 52.5q34 59 68 59q27 0 27 -35zM537 211q0 -21 -9 -49.5t-24 -54.5q-28 -52 -64 -52q-13 0 -21 9.5t-8 24.5q0 19 8.5 46t22.5 52q34 59 68 59q27 0 27 -35z" />
    <glyph glyph-name="ampersand" unicode="&#x26;" horiz-adv-x="785" 
d="M679 369l14 34q8 18 10 27t2 20q0 19 -14 32t-35 13q-46 0 -69 -52l-5 -13l-26 -61h-93q-14 0 -33.5 4t-30.5 9q-18 8 -28.5 25.5t-10.5 38.5q0 27 17.5 53.5t44.5 40.5q32 17 87 17h101h12q29 0 49.5 18t20.5 44q0 42 -51 44h-12h-113q-50 0 -84 -6.5t-68 -23.5
q-51 -25 -83 -74.5t-32 -104.5q0 -28 8.5 -50.5t29.5 -48.5q-39 -7 -61 -13t-42 -16q-35 -16 -62.5 -41.5t-47.5 -57.5t-30.5 -69t-10.5 -77q0 -52 17 -94.5t48.5 -73t75.5 -47t97 -16.5q95 0 165 49t109 143l90 220h42h12q29 0 49 18.5t20 44.5q0 42 -50 44h-12h-17z
M512 262l-81 -197q-20 -48 -60 -76.5t-88 -28.5q-30 0 -55 9.5t-43.5 27t-28.5 41t-10 51.5q0 50 28.5 92.5t74.5 61.5q47 19 132 19h131z" />
    <glyph glyph-name="quotesingle" unicode="'" horiz-adv-x="232" 
d="M141 455l-3 -9q-5 -12 -5 -22q0 -16 12.5 -27.5t29.5 -11.5q27 0 40 30l4 9l45 113l4 8q4 11 4 22q0 17 -12 28.5t-29 11.5q-28 0 -40 -30l-4 -9z" />
    <glyph glyph-name="parenleft" unicode="(" 
d="M267 -59q1 3 0.5 9t-1.5 15l-8 85q-3 28 -3 60v41q0 107 33 211.5t97 199.5q23 33 43 61.5t31 42.5q19 23 24.5 35.5t5.5 26.5q0 20 -15 33.5t-38 13.5q-18 0 -34.5 -9t-36.5 -29q-26 -28 -53.5 -64t-52.5 -75q-67 -104 -98 -207t-31 -219q0 -26 1 -52.5t3 -50.5
q3 -35 8 -68t10 -50q19 -65 64 -65q49 0 51 55z" />
    <glyph glyph-name="parenright" unicode=")" 
d="M229 721q-1 -3 -0.5 -9t1.5 -15l8 -85q2 -14 2.5 -28.5t0.5 -31.5v-41q0 -106 -33 -211t-97 -200q-23 -33 -43 -61.5t-31 -42.5q-18 -23 -24 -35.5t-6 -26.5q0 -20 15 -33.5t38 -13.5q18 0 34.5 9t36.5 29q26 28 53.5 64t52.5 75q67 104 98 207t31 219q0 26 -1 52.5
t-3 50.5q-3 35 -8 68t-10 50q-19 65 -64 65q-48 0 -51 -55z" />
    <glyph glyph-name="asterisk" unicode="*" horiz-adv-x="418" 
d="M324 516l40 100q8 21 8 29q0 15 -16 27t-38 12q-21 0 -38 -12.5t-17 -27.5q0 -6 8 -27l41 -100l-84 68q-23 18 -34 18q-17 0 -32 -20t-15 -43q0 -20 10 -32.5t27 -12.5q5 0 8.5 0.5t8.5 0.5l107 8l-90 -60q-10 -7 -15.5 -11t-8.5 -7t-3.5 -6.5t-0.5 -8.5q0 -12 5 -23
t14 -19.5t20.5 -13.5t23.5 -5q19 0 26.5 8t13.5 34l25 104l26 -104q3 -11 4.5 -18.5t2.5 -8.5q9 -14 34 -14q24 0 43.5 17.5t19.5 39.5q0 11 -4.5 17t-24.5 19l-90 60l107 -10q11 -1 17 -1.5l6 -0.5q13 2 22 15t9 31q0 26 -15 45t-35 19q-5 0 -8.5 -2.5t-21.5 -16.5z" />
    <glyph glyph-name="plus" unicode="+" 
d="M33 0h334v667h-334v-667zM40 7v653h320v-653h-320z" />
    <glyph glyph-name="comma" unicode="," horiz-adv-x="267" 
d="M58 10l-22 -29l-10 -15q-13 -18 -13 -28q0 -8 8.5 -15t18.5 -7q13 0 29 8.5t43 31.5q35 29 49.5 51t14.5 48q0 29 -19 48.5t-48 19.5q-28 0 -48 -19t-20 -45q0 -12 3.5 -23t13.5 -26z" />
    <glyph glyph-name="hyphen" unicode="-" horiz-adv-x="433" 
d="M122 250h-9q-21 0 -33.5 -11.5t-12.5 -30.5q0 -18 12.5 -29.5t33.5 -11.5h9h189h9q21 0 34 11t13 30t-12.5 30t-34.5 12h-9h-189z" />
    <glyph glyph-name="period" unicode="." horiz-adv-x="267" 
d="M108 -13q28 0 48 19.5t20 47.5q0 29 -20 49t-49 20q-28 0 -47.5 -20t-19.5 -48q0 -29 20 -48.5t48 -19.5z" />
    <glyph glyph-name="slash" unicode="/" horiz-adv-x="462" 
d="M43 11q-13 -21 -13 -36q0 -17 12.5 -28t29.5 -11q30 0 57 44l423 670q12 19 12 34q0 17 -11 27t-29 10q-32 0 -58 -42z" />
    <glyph glyph-name="zero" unicode="0" horiz-adv-x="505" 
d="M218 -10q91 0 159 58q33 28 61.5 71t49 93.5t32 105.5t11.5 109q0 83 -43 131.5t-118 48.5q-128 0 -224 -142q-48 -70 -73.5 -149t-25.5 -152t39 -121q23 -29 53.5 -41t78.5 -12zM415 425q0 -23 -4.5 -49.5t-12.5 -55t-19 -57.5t-25 -55q-57 -109 -126 -109
q-27 0 -44.5 21t-17.5 54q0 41 16.5 96.5t43.5 107.5q32 61 66 93t67 32q27 0 41.5 -20.5t14.5 -57.5z" />
    <glyph glyph-name="one" unicode="1" horiz-adv-x="287" 
d="M200 492l-164 -406l-5 -13q-8 -18 -8 -33q0 -20 14.5 -33.5t35.5 -13.5q26 0 44 15.5t32 52.5l187 460q5 11 6.5 17.5t1.5 14.5q0 21 -16.5 34t-42.5 13h-97h-12q-30 0 -51 -18.5t-21 -45.5q0 -44 51 -44h12h33z" />
    <glyph glyph-name="two" unicode="2" horiz-adv-x="445" 
d="M214 108l209 212q24 24 38 56t14 64q0 37 -13 67.5t-36.5 52.5t-56.5 34.5t-72 12.5q-41 0 -76 -14t-61 -38.5t-40.5 -57.5t-14.5 -72q0 -26 7 -48.5t19 -39t28.5 -26t34.5 -9.5q25 0 40.5 15.5t15.5 39.5q0 15 -6 26l-10 22q-8 14 -8 31q0 26 18.5 43.5t45.5 17.5
q25 0 43.5 -17.5t18.5 -40.5q0 -26 -24 -50l-274 -281q-14 -15 -19 -25.5t-5 -26.5q0 -26 17.5 -41t47.5 -15h243h11q30 0 51 18.5t21 45.5q0 42 -51 44h-12h-144z" />
    <glyph glyph-name="three" unicode="3" horiz-adv-x="452" 
d="M360 366l117 127q19 22 19 49q0 30 -18.5 44t-59.5 14h-188h-12q-30 0 -50.5 -18.5t-20.5 -44.5q0 -42 50 -44h12h111l-82 -90l-10 -11q-7 -8 -11 -19t-4 -21q0 -33 41 -46q59 -20 59 -76q0 -26 -9 -50t-24 -42t-34.5 -28.5t-40.5 -10.5q-24 0 -40 14.5t-16 37.5
q0 8 1.5 15t7.5 29l3.5 14t1.5 12q0 19 -15.5 33t-35.5 14q-18 0 -33.5 -9.5t-27 -25.5t-18 -38t-6.5 -47q0 -35 13 -64t36.5 -50t56 -32.5t72.5 -11.5q58 0 104.5 23.5t78.5 69.5q23 32 35 70t12 76q0 87 -75 137z" />
    <glyph glyph-name="four" unicode="4" horiz-adv-x="517" 
d="M410 233l99 244q8 20 11.5 34t3.5 28q0 29 -21.5 48.5t-53.5 19.5q-14 0 -26.5 -3.5t-26 -11.5t-29 -21t-35.5 -33l-264 -261q-23 -23 -32 -40t-9 -39q0 -33 24 -53t65 -20h125l-15 -38l-6 -13q-7 -19 -7 -34q0 -20 14.5 -33.5t35.5 -13.5q23 0 42 14.5t30 40.5l5 14
l26 63h61h12q29 0 50 19t21 45q0 44 -50 44h-12h-38zM285 233h-103l192 200z" />
    <glyph glyph-name="five" unicode="5" horiz-adv-x="447" 
d="M286 489h129h12q30 0 51.5 19.5t21.5 46.5q0 43 -52 45h-12h-164q-20 0 -33 -2t-22 -7t-15.5 -14.5t-12.5 -25.5l-79 -195q-5 -12 -6.5 -19t-1.5 -14q0 -23 16 -38.5t39 -15.5q18 0 33 9l32 17q16 9 35 9q23 0 38 -17t15 -45t-9.5 -53.5t-25.5 -45.5t-36 -32t-42 -12
q-21 0 -35 12.5t-14 31.5v8q0 4 2 9l4 19q3 12 3 23q0 20 -14.5 33.5t-36.5 13.5q-35 0 -57 -30.5t-22 -79.5q0 -33 12 -60.5t34.5 -47t53 -30.5t68.5 -11q49 0 91.5 19.5t74 53.5t49.5 80t18 99q0 73 -39 117.5t-103 44.5q-10 0 -17.5 -1t-19.5 -3z" />
    <glyph glyph-name="six" unicode="6" horiz-adv-x="426" 
d="M273 401l60 93l8 13q16 26 16 48q0 20 -15.5 34t-37.5 14q-24 0 -40.5 -12t-37.5 -46l-140 -224q-33 -52 -46 -89.5t-13 -78.5q0 -36 12.5 -66t34.5 -51.5t53 -33.5t69 -12q48 0 91 21t75.5 56.5t51 83t18.5 100.5q0 32 -10.5 60t-28.5 48.5t-42.5 32t-52.5 11.5h-11
q-6 0 -14 -2zM313 242q0 -27 -9.5 -52.5t-25 -45.5t-35.5 -32.5t-41 -12.5q-23 0 -39 17.5t-16 43.5t9.5 51.5t24.5 45.5t34 32.5t39 12.5q26 0 42.5 -17t16.5 -43z" />
    <glyph glyph-name="seven" unicode="7" horiz-adv-x="382" 
d="M313 490l-241 -393q-13 -21 -17.5 -33t-4.5 -23q0 -20 14.5 -34t36.5 -14q40 0 67 45l8 12l266 440q16 28 16 50q0 14 -7 27t-19 21q-11 7 -23 9.5t-34 2.5h-195h-12q-30 0 -51 -19t-21 -46q0 -43 51 -45h12h154z" />
    <glyph glyph-name="eight" unicode="8" horiz-adv-x="450" 
d="M386 323q53 17 81.5 55t28.5 89q0 63 -42.5 101.5t-113.5 38.5q-43 0 -81.5 -14.5t-67 -40t-45.5 -59t-17 -70.5q0 -26 8 -45.5t28 -39.5q-30 -11 -55 -30t-43 -44t-27.5 -54.5t-9.5 -61.5q0 -36 12.5 -65t35.5 -49.5t55 -32t71 -11.5q46 0 88 18t73.5 49t50 72t18.5 87
q0 34 -11 58.5t-37 48.5zM381 452q0 -16 -7 -31.5t-18.5 -27.5t-26.5 -19t-31 -7q-24 0 -39.5 14.5t-15.5 36.5q0 16 7 32t19 28t27 19.5t31 7.5q25 0 39.5 -14t14.5 -39zM315 220q0 -22 -9 -43.5t-23.5 -38t-33 -26.5t-37.5 -10q-28 0 -45 17t-17 44q0 22 8.5 43t23 37
t32.5 25.5t37 9.5q29 0 46.5 -16t17.5 -42z" />
    <glyph glyph-name="nine" unicode="9" horiz-adv-x="426" 
d="M229 195l-61 -92q-15 -23 -20.5 -35t-5.5 -26q0 -20 15.5 -34.5t36.5 -14.5q23 0 41 13t38 45l162 255q19 29 30.5 69t11.5 74t-13.5 63t-36.5 50t-55 33t-69 12q-93 0 -160 -75q-35 -38 -54 -87t-19 -99q0 -33 10.5 -60.5t29 -48t44 -32t55.5 -11.5q4 0 8.5 0.5
t11.5 0.5zM357 438q0 -15 -6.5 -38t-14.5 -39q-16 -29 -39.5 -46t-49.5 -19q-23 -1 -40 16t-17 43q0 18 6.5 40.5t18.5 42.5q33 58 84 61q23 1 40.5 -17t17.5 -44z" />
    <glyph glyph-name="colon" unicode=":" horiz-adv-x="267" 
d="M181 244q29 0 48.5 19.5t19.5 47.5q0 29 -20 49t-49 20q-27 0 -47 -20t-20 -48t20 -48t48 -20zM108 -13q28 0 48 19.5t20 47.5q0 29 -20 49t-49 20q-28 0 -47.5 -20t-19.5 -48q0 -29 20 -48.5t48 -19.5z" />
    <glyph glyph-name="semicolon" unicode=";" horiz-adv-x="267" 
d="M174 244q29 0 49 19.5t20 47.5q0 29 -20 49t-49 20q-28 0 -47.5 -20t-19.5 -48t19.5 -48t47.5 -20zM58 10l-22 -29l-10 -15q-13 -18 -13 -28q0 -8 8.5 -15t18.5 -7q13 0 29 8.5t43 31.5q35 29 49.5 51t14.5 48q0 29 -19 48.5t-48 19.5q-28 0 -48 -19t-20 -45
q0 -12 3.5 -23t13.5 -26z" />
    <glyph glyph-name="less" unicode="&#x3c;" 
d="M33 0h334v667h-334v-667zM40 7v653h320v-653h-320z" />
    <glyph glyph-name="equal" unicode="=" 
d="M33 0h334v667h-334v-667zM40 7v653h320v-653h-320z" />
    <glyph glyph-name="greater" unicode="&#x3e;" 
d="M33 0h334v667h-334v-667zM40 7v653h320v-653h-320z" />
    <glyph glyph-name="question" unicode="?" horiz-adv-x="493" 
d="M178 -13q28 0 48 19.5t20 47.5q0 29 -20 48.5t-49 19.5q-28 0 -47.5 -19.5t-19.5 -47.5q0 -29 20 -48.5t48 -19.5zM311 623q-42 0 -77.5 -13.5t-61 -38t-40 -58t-14.5 -72.5q0 -46 23 -77t57 -31q22 0 37 15t15 36q0 12 -5 30q-6 19 -7.5 25.5t-1.5 13.5q0 24 20 42
t47 18q24 0 41 -15.5t17 -37.5q0 -20 -18 -41q-5 -7 -15 -16.5t-37 -33.5q-60 -54 -86 -94t-26 -76q0 -23 15 -38t38 -15q32 0 47 32l19 43q3 6 6 10.5t11 12.5t15.5 14.5t15.5 14.5q10 8 21 17t24 19q26 21 44 40t29 37.5t15.5 38t4.5 42.5q0 34 -13 62.5t-36 49.5
t-55 32.5t-69 11.5z" />
    <glyph glyph-name="at" unicode="@" 
d="M33 0h334v667h-334v-667zM40 7v653h320v-653h-320z" />
    <glyph glyph-name="A" unicode="A" horiz-adv-x="1072" 
d="M795 250l-39 -96q-12 -29 -16 -44t-4 -31q0 -35 26 -57t69 -22h105h13q32 0 54.5 20t22.5 49q0 46 -55 48h-13h-79l54 133h62h13q32 0 54.5 20t22.5 49q0 46 -55 48h-13h-37l84 210q6 15 8 23t2 16q0 23 -16.5 37t-43.5 14q-57 0 -112 -9t-89 -23q-57 -24 -107 -74.5
t-89 -122.5l-39 -71h-36q-60 0 -107.5 -3t-87 -9.5t-72.5 -17t-63 -25.5q-48 -24 -87 -57t-67 -72.5t-43 -83t-15 -87.5q0 -51 17.5 -95t47.5 -76.5t71.5 -51t89.5 -18.5q61 0 114.5 28.5t97.5 84.5q16 20 33 44.5t27 41.5l161 280h136zM842 367h-117l19 33q23 39 42.5 65
t39 42t40 23.5t46.5 9.5zM511 250l-145 -250q-5 -9 -14 -21.5t-18 -23.5q-47 -53 -97 -53q-22 0 -40.5 8.5t-32.5 24t-22 36t-8 44.5q0 51 30.5 100.5t83.5 82.5q39 25 96.5 38.5t125.5 13.5h41z" />
    <glyph glyph-name="B" unicode="B" horiz-adv-x="834" 
d="M481 550l-230 -566h-171q-75 0 -127 -23q-24 -10 -43.5 -27t-33.5 -39t-21.5 -48t-7.5 -54q0 -39 14.5 -72.5t40.5 -57.5t62 -37.5t79 -13.5q57 0 109.5 23.5t93.5 67.5q12 13 21.5 25.5t19.5 29t21 39t26 56.5l6 14h72q70 0 128 10t95 29q35 18 64 45.5t49.5 61t32 71
t11.5 76.5q0 53 -21.5 88t-68.5 58q31 11 49.5 23t37.5 32q28 30 43 67.5t15 76.5q0 46 -21.5 82t-59.5 56q-26 14 -51.5 19t-68.5 5h-198h-13q-32 0 -54.5 -20t-22.5 -49q0 -46 55 -48h13h55zM543 367l75 183h5h7q20 0 29 -0.5t17 -2.5q43 -11 43 -55q0 -24 -12 -50
t-31 -43q-20 -18 -42 -24.5t-62 -7.5h-29zM387 -16l109 266h40q32 0 49.5 -2t31.5 -8q22 -8 34.5 -28.5t12.5 -47.5q0 -46 -25 -88t-66 -64q-52 -28 -146 -28h-40zM203 -133q-26 -63 -66 -98.5t-85 -35.5q-30 0 -50.5 19t-20.5 47q0 46 47 62q11 3 20 4.5t28 1.5h127z" />
    <glyph glyph-name="C" unicode="C" horiz-adv-x="594" 
d="M268 333h128q11 0 28.5 0.5t31.5 2.5q42 3 71 9t49 15q51 23 79.5 65.5t28.5 93.5q0 34 -12.5 63t-34.5 50t-53 33t-67 12q-110 0 -204 -86q-73 -65 -119 -141h-71h-13q-32 0 -54.5 -20t-22.5 -49q0 -46 55 -48h13h27q-32 -72 -45.5 -126.5t-13.5 -108.5
q0 -51 16.5 -93.5t46 -73t70.5 -48t89 -17.5l17 1h284h13q32 0 54.5 20t22.5 49q0 46 -55 48h-13h-271q-75 0 -107.5 30t-32.5 100q0 53 15.5 106t49.5 113zM341 450q14 20 28.5 36t37.5 35q50 41 94 41q24 0 40 -13t16 -33q0 -18 -11.5 -33t-31.5 -23q-11 -5 -33 -7.5
t-45 -2.5h-95z" />
    <glyph glyph-name="D" unicode="D" horiz-adv-x="897" 
d="M483 550l-230 -567h-173q-77 0 -127 -22q-24 -10 -43.5 -27t-33.5 -39t-21.5 -48t-7.5 -54q0 -39 15 -72.5t41 -57.5t62.5 -37.5t79.5 -13.5q57 0 110 23.5t94 67.5q12 13 21.5 25.5t19.5 28.5t21 39t26 57l6 14q10 0 19 -0.5t11 -0.5q47 0 86.5 4t73.5 13t64.5 23.5
t60.5 34.5q52 35 96 86.5t76 112.5t49.5 127.5t17.5 132.5q0 74 -28 131.5t-80 90.5q-36 23 -81.5 34t-107.5 11h-143h-13q-32 0 -54.5 -20t-22.5 -49q0 -46 54 -48h13h49zM390 -17l230 567q71 -1 110 -41t39 -112q0 -65 -28.5 -139.5t-77.5 -140.5q-54 -70 -115 -102
t-142 -32h-16zM205 -133q-26 -63 -66.5 -98.5t-85.5 -35.5q-31 0 -51.5 19t-20.5 47q0 46 47 62q10 3 19.5 4.5t28.5 1.5h129z" />
    <glyph glyph-name="E" unicode="E" horiz-adv-x="765" 
d="M408 367h-28h-13q-32 0 -54.5 -20t-22.5 -49q0 -46 55 -48h9h7l-108 -266h-173q-75 0 -127 -23q-24 -10 -43.5 -27t-33.5 -39t-21.5 -48t-7.5 -54q0 -39 15 -72.5t41 -57.5t62.5 -37.5t79.5 -13.5q57 0 110 23.5t94 67.5q12 13 21.5 25.5t19.5 28.5t21 39t26 57l6 14h362
h13q32 0 54.5 20t22.5 49q0 46 -55 48h-13h-337l108 266h86h13q32 0 54.5 20t22.5 49q0 46 -54 48h-13h-61l74 183h208h13q32 0 54.5 20t22.5 49q0 46 -54 48h-13h-252h-16q-30 0 -45.5 -12.5t-30.5 -48.5zM205 -133q-26 -63 -66.5 -98.5t-85.5 -35.5q-31 0 -51.5 19
t-20.5 47q0 46 47 62q10 3 19.5 4.5t28.5 1.5h129z" />
    <glyph glyph-name="F" unicode="F" horiz-adv-x="882" 
d="M681 367l75 183h209h13q32 0 54.5 20t22.5 49q0 46 -55 48h-13h-250h-16q-28 0 -44.5 -12t-27.5 -38l-5 -14l-94 -236q-8 -1 -13 -1h-8l-69 -2q-95 -2 -176.5 -31t-141.5 -77.5t-94.5 -113t-34.5 -139.5q0 -50 17.5 -91.5t49 -72.5t74.5 -48t93 -17q56 0 108.5 23
t89.5 65q28 31 52.5 70.5t41.5 83.5l95 234h88h13q32 0 54.5 20t22.5 49q0 46 -55 48h-13h-63zM503 250l-74 -182q-5 -12 -12.5 -26.5t-15.5 -29t-16.5 -28t-15.5 -23.5q-20 -28 -51 -44t-63 -16q-23 0 -42 9t-33.5 24.5t-22.5 37t-8 46.5q0 28 11 56.5t30.5 54.5t46.5 48.5
t59 37.5q36 17 83 26t98 9h26z" />
    <glyph glyph-name="G" unicode="G" horiz-adv-x="726" 
d="M560 117l38 92q9 23 11.5 31t2.5 20q0 23 -18 39t-44 16q-24 0 -58 -20l-26 -15q-19 -11 -34.5 -15t-33.5 -4q-34 0 -53.5 16.5t-19.5 45.5q0 2 0.5 4.5t0.5 5.5h111q8 0 22 0.5t27 2.5q38 4 65 9.5t46 14.5q48 23 75.5 66t27.5 95q0 34 -12.5 63t-35 49.5t-54 32
t-69.5 11.5q-90 0 -170.5 -60.5t-134.5 -166.5h-70h-13q-32 0 -55 -20t-23 -49q0 -46 55 -48h13h67q1 -45 10.5 -76t32.5 -57t55.5 -40.5t69.5 -14.5q18 0 37.5 3t37.5 10l-17 -41l-78 -1q-38 0 -67.5 -2t-53.5 -6t-44.5 -11t-41.5 -17q-75 -35 -117 -95.5t-42 -134.5
q0 -45 16 -84t44.5 -67t67.5 -44t85 -16q116 0 196 102q12 16 22.5 32t20.5 35t20.5 43.5t24.5 58.5l36 90h97h13q32 0 55 20t23 49q0 46 -55 48h-13h-73zM376 0l-28 -70q-13 -32 -25 -56t-24 -44q-21 -32 -48 -49.5t-55 -17.5q-36 0 -61.5 25.5t-25.5 63.5q0 42 29 76
t81 53q14 5 28.5 8t32.5 5.5t41 3.5t55 2zM361 450q37 53 80 82.5t81 29.5q24 0 40 -13t16 -33q0 -18 -12 -33t-32 -23q-11 -5 -32.5 -7.5t-45.5 -2.5h-95z" />
    <glyph glyph-name="H" unicode="H" horiz-adv-x="1091" 
d="M931 250h63h13q32 0 54.5 20t22.5 49q0 46 -55 48h-13h-37l83 204q8 21 11 31t3 21q0 21 -16 35.5t-39 14.5q-53 0 -78 -60l-6 -14l-95 -232h-155l84 207l6 14q3 9 5 18.5t2 17.5q0 21 -15.5 35.5t-39.5 14.5q-52 0 -78 -59l-6 -14l-95 -234q-8 -1 -13 -1h-8l-69 -2
q-95 -2 -176.5 -31t-141.5 -77.5t-94.5 -113t-34.5 -139.5q0 -50 18 -91.5t49.5 -72.5t75 -48t94.5 -17q57 0 109.5 23t90.5 65q28 31 52.5 70.5t41.5 83.5l95 234h156l-40 -99l-8 -19q-11 -27 -11 -51q0 -23 14 -43t39 -30q11 -5 20.5 -6.5t29.5 -1.5h100h13q32 0 54.5 20
t22.5 49q0 46 -55 48h-13h-84zM503 250l-74 -182q-5 -12 -12.5 -26.5t-15.5 -29t-16.5 -28t-15.5 -23.5q-20 -28 -51 -44.5t-63 -16.5q-23 0 -42 9t-33.5 25t-22.5 37.5t-8 46.5q0 28 11 56.5t30.5 54.5t46.5 48.5t59 37.5q36 17 83 26t98 9h26z" />
    <glyph glyph-name="I" unicode="I" horiz-adv-x="588" 
d="M400 117l115 283q13 31 19 59.5t6 54.5q0 34 -14 64t-39 52.5t-58.5 35t-72.5 12.5q-55 0 -104 -21.5t-85.5 -58.5t-58 -85.5t-21.5 -103.5q0 -36 12 -68t32 -55.5t47.5 -37.5t58.5 -14q30 0 51 19t21 46q0 19 -9 28.5t-38 21.5q-47 19 -47 67q0 27 10.5 53t27.5 45.5
t40 31.5t47 12q27 0 47.5 -19t20.5 -45q0 -8 -2.5 -19t-8.5 -26l-18 -49l-98 -242q-13 -30 -17 -45t-4 -33q0 -47 46 -69q7 -4 12.5 -6t12.5 -3t16 -1.5t23 -0.5h89h13q32 0 54.5 20t22.5 49q0 46 -55 48h-13h-81z" />
    <glyph glyph-name="J" unicode="J" horiz-adv-x="735" 
d="M555 117l113 283q26 62 26 114q0 34 -14 64t-39 52.5t-58 35t-72 12.5q-55 0 -104 -21.5t-85.5 -58.5t-58 -85.5t-21.5 -103.5q0 -36 11.5 -68t32 -56t47.5 -37.5t59 -13.5q30 0 51 19t21 46q0 20 -9 29t-39 21q-47 21 -47 67q0 27 10.5 53t27.5 45.5t40 31.5t47 12
q28 0 48.5 -19t20.5 -45q0 -8 -2.5 -19t-8.5 -26l-19 -49l-113 -283l-78 -1q-38 0 -67.5 -2t-53.5 -6t-44.5 -11t-41.5 -17q-75 -35 -117 -95.5t-42 -134.5q0 -45 16.5 -84t45 -67t67.5 -44t85 -16q117 0 195 102q13 16 23 32t20 35t20.5 43.5t24.5 58.5l37 90h95h13
q32 0 55 20t23 49q0 46 -55 48h-13h-73zM376 0l-28 -70q-35 -88 -71 -127.5t-81 -39.5q-36 0 -61.5 25.5t-25.5 63.5q0 42 29 76t81 53q14 5 28.5 8t32.5 5.5t41 3.5t55 2z" />
    <glyph glyph-name="K" unicode="K" horiz-adv-x="868" 
d="M612 302l234 243l11 12q29 31 29 58q0 25 -15.5 40.5t-41.5 15.5q-31 0 -63 -33l-11 -11l-256 -269l17 42q13 31 19 59.5t6 54.5q0 34 -14.5 64t-39 52.5t-58 35t-72.5 12.5q-55 0 -104.5 -21.5t-86.5 -58.5t-58.5 -85.5t-21.5 -103.5q0 -36 12 -68t32.5 -56t48 -37.5
t59.5 -13.5q29 0 50 18.5t21 44.5q0 14 -6.5 25t-16.5 15l-29 12q-22 9 -34.5 27t-12.5 41q0 27 10.5 52.5t28 45t40.5 31.5t47 12q30 0 51.5 -20.5t21.5 -47.5q0 -14 -10 -41l-19 -49l-127 -313l-5 -14q-8 -19 -8 -37q0 -21 15.5 -35.5t38.5 -14.5q29 0 48 16.5t36 57.5
l100 248l130 -349q10 -29 21 -46.5t26.5 -28t37.5 -14t54 -3.5h162h13q33 0 56 20.5t23 49.5q0 47 -56 49h-13h-158q-25 0 -38 8t-21 28z" />
    <glyph glyph-name="L" unicode="L" horiz-adv-x="753" 
d="M563 343h51q51 0 94 13.5t73.5 37.5t47.5 57.5t17 74.5q0 32 -12 59t-33 46.5t-49.5 30.5t-62.5 11q-67 0 -114.5 -38.5t-79.5 -119.5l-23 -55h-83h-13q-32 0 -54.5 -20t-22.5 -49q0 -46 54 -48h13h59l-146 -359h-172q-74 0 -128 -23q-24 -10 -43.5 -27t-33.5 -39
t-21.5 -48t-7.5 -54q0 -39 15 -72.5t41.5 -57.5t62.5 -37.5t79 -13.5q57 0 110 23.5t94 67.5q12 13 21.5 25.5t19.5 28.5t21 39t26 57l6 14h363h13q32 0 54.5 20t22.5 49q0 46 -54 48h-13h-339zM610 460l14 34q15 36 29 52t32 16q16 0 26 -11t10 -27q0 -13 -7 -26t-18 -20
q-12 -8 -30 -13t-33 -5h-23zM231 -133q-26 -63 -66.5 -98.5t-85.5 -35.5q-30 0 -51 19t-21 47q0 22 12.5 38t34.5 24q11 3 20.5 4.5t28.5 1.5h128z" />
    <glyph glyph-name="M" unicode="M" horiz-adv-x="1131" 
d="M943 117l176 433l11 27q8 19 8 37q0 24 -20.5 41.5t-49.5 17.5q-22 0 -43 -11t-47 -36l-147 -144l-30 112q-11 45 -27 62t-43 17q-23 0 -39 -14t-30 -48l-194 -478q-9 -23 -19 -45.5t-20 -42.5q-17 -34 -30.5 -55.5t-26.5 -35.5q-47 -50 -100 -50q-50 0 -78.5 30.5
t-28.5 82.5q0 45 18.5 85t50.5 70.5t75.5 49.5t94.5 22q59 3 82.5 18t23.5 48q0 29 -24 45t-68 16q-79 0 -150 -29.5t-124.5 -79.5t-85 -116t-31.5 -140q0 -52 17 -94.5t47.5 -73t73.5 -47t96 -16.5q99 0 171.5 60t126.5 188q8 17 20.5 48.5t25.5 61.5l119 294l13 -60
q13 -55 51 -55q31 0 65 37l94 101l-125 -294q-13 -30 -17 -44t-4 -31q0 -21 11.5 -40t30.5 -29q13 -7 27.5 -9.5t36.5 -2.5h93h13q32 0 54.5 20t22.5 49q0 46 -55 48h-13h-79z" />
    <glyph glyph-name="N" unicode="N" horiz-adv-x="1062" 
d="M1079 550h59h13q32 0 54.5 20t22.5 49q0 46 -54 48h-13h-100l-21 -1q-26 -1 -41 -10.5t-26 -34.5l-7 -20l-133 -326l-25 326q-6 72 -67 72q-27 0 -45.5 -15t-32.5 -48l-194 -477q-9 -23 -19 -45.5t-21 -42.5q-17 -34 -30 -55.5t-26 -35.5q-47 -50 -101 -50
q-49 0 -78 30.5t-29 82.5q0 45 18.5 85t50.5 70.5t75.5 49.5t94.5 22q59 3 82.5 18t23.5 48q0 29 -24 45t-68 16q-79 0 -150 -29.5t-124.5 -79.5t-85 -116t-31.5 -140q0 -52 16.5 -94.5t47.5 -73t73.5 -47t95.5 -16.5q99 0 171.5 60t126.5 188q8 17 20.5 48.5t25.5 61.5
l102 252l23 -294q2 -22 3.5 -34t4.5 -21q17 -43 66 -43q46 0 69 48l9 22z" />
    <glyph glyph-name="O" unicode="O" horiz-adv-x="674" 
d="M126 333q-32 -66 -47.5 -123t-15.5 -106q0 -53 17 -97.5t47 -76.5t71.5 -49.5t91.5 -17.5q151 0 262 160q22 31 39.5 65t30 66.5t19.5 62.5t7 54q0 30 -16.5 49t-42.5 19q-49 0 -64 -60l-8 -29q-12 -45 -32 -88.5t-45 -78.5q-36 -52 -72 -76t-77 -24q-45 0 -73 32.5
t-28 84.5q0 45 19 107t53 126h147q8 0 22.5 0.5t28.5 2.5q41 4 68.5 9.5t47.5 14.5q51 24 79.5 66t28.5 94q0 34 -13 63t-36 50t-54.5 32.5t-68.5 11.5q-42 0 -82.5 -15.5t-85.5 -47.5q-20 -14 -36.5 -28t-32.5 -31t-33 -38t-37 -49l-13 -18h-69h-13q-32 0 -54.5 -20
t-22.5 -49q0 -46 55 -48h13h25zM339 450q37 52 79.5 82t80.5 30q24 0 40 -13t16 -33q0 -18 -11.5 -33t-31.5 -23q-11 -5 -33 -7.5t-45 -2.5h-95z" />
    <glyph glyph-name="P" unicode="P" horiz-adv-x="885" 
d="M684 333h67q51 0 84.5 8t58.5 25q38 26 59.5 67.5t21.5 89.5q0 74 -44.5 109t-138.5 35h-186h-13q-32 0 -54.5 -20t-22.5 -49q0 -46 54 -48h13h53l-169 -417q-9 -23 -19.5 -45.5t-20.5 -42.5q-17 -34 -30 -55.5t-26 -35.5q-47 -50 -100 -50q-49 0 -77.5 30.5t-28.5 82.5
q0 45 18.5 85t50.5 70.5t75.5 49.5t94.5 22q59 3 82.5 18t23.5 48q0 29 -24 45t-68 16q-79 0 -150 -29.5t-124.5 -79.5t-85 -116t-31.5 -140q0 -52 16.5 -94.5t47 -73t73.5 -47t95 -16.5q99 0 171 60t127 188q8 18 20.5 49t24.5 61zM731 450l40 100h33q20 0 32 -9.5
t12 -26.5q0 -64 -78 -64h-39z" />
    <glyph glyph-name="Q" unicode="Q" horiz-adv-x="721" 
d="M449 52q37 31 68.5 75.5t54 96t35 106.5t12.5 109q0 53 -14.5 96.5t-41.5 74t-65 47t-85 16.5q-33 0 -66.5 -10t-66 -28.5t-62 -45t-53.5 -59.5q-23 -31 -41.5 -69.5t-32 -80t-21 -84.5t-7.5 -82q0 -110 53.5 -172.5t147.5 -62.5q22 0 39.5 3.5t40.5 11.5l44 -76
q14 -24 36 -37.5t45 -13.5h229h13q32 0 54.5 20t22.5 49q0 46 -54 48h-13h-182q-31 0 -44 5.5t-23 22.5zM388 160l-23 41q-17 30 -30 40t-34 10q-25 0 -41.5 -17t-16.5 -41q0 -14 4.5 -26t17.5 -34l19 -30q-5 -1 -8.5 -1.5t-5.5 -0.5q-34 0 -55.5 31.5t-21.5 82.5
q0 25 5 55.5t14 61.5t21 61t26 55q61 106 142 106q40 0 64 -31.5t24 -82.5q0 -35 -8 -76.5t-22 -80.5q-7 -18 -14 -33.5t-15 -30t-18.5 -29t-23.5 -30.5z" />
    <glyph glyph-name="R" unicode="R" horiz-adv-x="988" 
d="M810 275q29 8 48.5 18t39.5 28q37 33 58 80t21 96q0 63 -33.5 107.5t-90.5 56.5q-8 2 -14.5 3t-15 2t-21.5 1h-31h-162h-13q-32 0 -54.5 -20t-22.5 -49q0 -46 54 -48h13h51l-169 -417q-10 -23 -20 -45.5t-20 -42.5q-17 -34 -30 -55.5t-27 -35.5q-46 -50 -100 -50
q-49 0 -78 30.5t-29 82.5q0 45 18.5 85t51 70.5t76 49.5t94.5 22q59 3 82.5 18t23.5 48q0 29 -24 45t-68 16q-79 0 -150 -29t-125 -79t-85.5 -116.5t-31.5 -140.5q0 -52 17 -94.5t48 -73t74 -47t96 -16.5q99 0 171.5 60t126.5 188q8 18 21 49t25 61l65 161l141 -340
q17 -42 50.5 -64.5t78.5 -22.5h226h13q32 0 54.5 20t22.5 49q0 46 -55 48h-13h-204l-20 -1q-31 -1 -52 47zM700 367l74 183h12q30 0 46.5 -17.5t16.5 -49.5q0 -29 -13.5 -53t-39.5 -41q-16 -11 -32.5 -15t-49.5 -6z" />
    <glyph glyph-name="S" unicode="S" horiz-adv-x="671" 
d="M447 333h49q49 0 81 5.5t55 16.5q44 22 70 63.5t26 90.5q0 36 -13.5 66.5t-38.5 52t-59 33.5t-76 12q-55 0 -103.5 -16.5t-85.5 -46.5t-60 -71t-28 -89h-83h-13q-32 0 -54.5 -20t-22.5 -49q0 -46 54 -48h13h132q6 -11 11.5 -21t13 -20t17.5 -22t24 -27q5 -5 8 -8.5
t7 -7.5q11 -12 15.5 -17.5t6.5 -7.5q10 -11 17.5 -21t14.5 -19q20 -28 28.5 -53t8.5 -51q0 -35 -13 -65.5t-35.5 -53.5t-53 -36.5t-64.5 -13.5q-30 0 -55 10t-43.5 28t-29 42t-10.5 53q0 37 22 74.5t57 58.5l38 24q21 13 30 26t9 30q0 24 -17 39t-43 15q-50 0 -111 -47
q-55 -45 -84 -101t-29 -121q0 -55 19 -101t53.5 -79.5t81.5 -52t104 -18.5q64 0 119.5 22t97 60t65 89t23.5 110q0 48 -20 99.5t-55 96.5l-26 31zM389 450q1 21 13.5 40.5t32 34t44 23.5t50.5 9q35 0 55.5 -13t20.5 -36q0 -28 -26 -43t-73 -15h-117z" />
    <glyph glyph-name="T" unicode="T" horiz-adv-x="787" 
d="M775 550h89h13q32 0 54.5 20t22.5 49q0 46 -55 48h-13h-320h-13q-32 0 -55 -20t-23 -49q0 -46 55 -48h13h95l-169 -417q-9 -23 -19 -45.5t-21 -42.5q-17 -34 -30 -55.5t-27 -35.5q-46 -50 -100 -50q-50 0 -78.5 30.5t-28.5 82.5q0 45 18.5 85t50.5 70.5t75.5 49.5
t94.5 22q59 3 82.5 18t23.5 48q0 29 -24 45t-68 16q-79 0 -150 -29t-124.5 -79t-85 -116.5t-31.5 -140.5q0 -52 17 -94.5t47.5 -73t73.5 -47t96 -16.5q100 0 172.5 60t126.5 188q8 18 21 49t25 61z" />
    <glyph glyph-name="U" unicode="U" horiz-adv-x="861" 
d="M863 550h65h13q32 0 54.5 20t22.5 49q0 46 -55 48h-13h-105q-23 0 -37.5 -2.5t-25 -10t-18.5 -21t-17 -34.5l-161 -395q-24 -59 -46 -82.5t-56 -23.5q-26 0 -42.5 15.5t-16.5 39.5q0 14 3.5 28t12.5 36l74 183q26 63 26 114q0 34 -14.5 64t-39 52.5t-58 35t-72.5 12.5
q-55 0 -104 -21.5t-86 -58.5t-58.5 -85.5t-21.5 -103.5q0 -36 12 -68t32 -56t47.5 -37.5t59.5 -13.5q30 0 50.5 19t20.5 46q0 20 -9 29t-39 21q-49 19 -49 67q0 27 10.5 52.5t27.5 45t40 31.5t47 12q29 0 50.5 -19.5t21.5 -45.5q0 -13 -11 -43l-19 -49l-52 -129
q-17 -43 -24.5 -72t-7.5 -57q0 -34 14 -63.5t39 -51t59 -34t73 -12.5q80 0 134 44.5t93 141.5z" />
    <glyph glyph-name="V" unicode="V" horiz-adv-x="861" 
d="M881 550h56h13q32 0 54.5 20t22.5 49q0 46 -54 48h-13h-87l-19 -1q-15 0 -25.5 -1.5t-18 -5.5t-13.5 -10.5t-12 -17.5l-12 -21l-237 -403v193q0 35 -1 62t-3 48t-5.5 38t-8.5 31q-7 20 -22.5 37.5t-37 30t-47 20t-52.5 7.5q-55 0 -104 -22t-86.5 -59t-59.5 -86t-22 -103
q0 -38 14 -71.5t38 -58t56.5 -38.5t69.5 -14q54 0 88.5 21.5t34.5 56.5q0 19 -16 33.5t-36 13.5l-42 -1q-32 -1 -53.5 20t-21.5 51q0 26 10.5 50.5t28 43t40 30t46.5 11.5q19 0 34 -12t22 -32q3 -7 4.5 -14.5t2.5 -18.5t1.5 -29t1.5 -46l8 -329q1 -24 3.5 -37t9.5 -24
q8 -14 25 -22.5t36 -8.5q28 0 47.5 14.5t40.5 50.5z" />
    <glyph glyph-name="W" unicode="W" horiz-adv-x="1178" 
d="M1200 550h55h13q32 0 54.5 20t22.5 49q0 46 -55 48h-13h-95q-31 0 -48.5 -10.5t-34.5 -36.5l-10 -19l-219 -379l8 372q1 2 1 6q0 33 -21 53t-56 20q-60 0 -89 -64l-174 -379l-3 170q0 32 -1 55.5t-2.5 40.5t-3.5 30t-5 25q-30 123 -165 123q-55 0 -104.5 -22t-87 -59
t-59.5 -86t-22 -103q0 -38 14 -71.5t38.5 -58t57 -38.5t69.5 -14q54 0 88.5 21.5t34.5 56.5q0 19 -16 33.5t-36 13.5l-42 -1q-32 -1 -54 20t-22 51q0 26 10.5 50.5t28.5 43t40.5 30t46.5 11.5q19 0 34 -12t22 -32q5 -15 7.5 -39.5t2.5 -68.5l10 -337q3 -86 78 -86
q25 0 45.5 14.5t32.5 41.5l178 380l-13 -350q-2 -40 19 -64t58 -24q26 0 44.5 13.5t36.5 44.5z" />
    <glyph glyph-name="X" unicode="X" horiz-adv-x="765" 
d="M564 323l179 227h64h13q32 0 54.5 20t22.5 49q0 46 -54 48h-13h-103q-27 0 -39.5 -5.5t-26.5 -24.5q-2 -4 -7 -10t-11 -14l-109 -136l-10 49q-14 67 -58.5 104.5t-110.5 37.5q-53 0 -101.5 -22t-85.5 -59.5t-59 -86.5t-22 -103q0 -38 12 -70t33 -55.5t50 -37t62 -13.5
q38 0 62.5 20t24.5 52q0 19 -12.5 32.5t-34.5 18.5l-24 5q-19 4 -30.5 21t-11.5 40q0 25 10.5 49.5t27.5 43t38.5 30t44.5 11.5q58 0 73 -82l18 -103l-211 -261q-20 -24 -27.5 -39t-7.5 -29q0 -25 16 -40.5t41 -15.5q37 0 69 38l11 13l143 174l44 -228q6 -30 14.5 -50
t23 -32t35 -17t49.5 -5h27h185h13q32 0 54.5 20t22.5 49q0 46 -55 48h-13h-185q-28 0 -38.5 6t-14.5 25z" />
    <glyph glyph-name="Y" unicode="Y" horiz-adv-x="879" 
d="M865 550h71h13q32 0 54.5 20t22.5 49q0 46 -55 48h-13h-115q-36 0 -55.5 -13.5t-33.5 -47.5l-95 -232q-12 -29 -18 -42.5t-17 -27.5q-30 -42 -73 -42q-25 0 -42 15.5t-17 38.5q0 12 3.5 28t13.5 42q18 48 19 52q12 33 12 73q0 35 -14 65.5t-38.5 53t-58 35.5t-72.5 13
q-55 0 -104 -21.5t-86 -58.5t-58.5 -85.5t-21.5 -103.5q0 -36 12 -68t32 -55.5t47.5 -37.5t58.5 -14t51.5 19t20.5 46q0 19 -8.5 28.5t-38.5 21.5q-48 21 -48 67q0 27 10.5 52.5t28 45t40 31.5t46.5 12q28 0 49 -18.5t21 -44.5q0 -15 -12 -45q-6 -15 -13.5 -36.5
t-13.5 -40.5q-9 -29 -13 -45.5t-4 -31.5q0 -30 14 -61t36 -51q20 -19 49 -28.5t61 -9.5q17 0 30.5 2.5t27.5 9.5l-16 -40l-78 -1q-39 0 -68.5 -2t-53.5 -6t-45 -11t-42 -17q-75 -35 -117.5 -95t-42.5 -135q0 -45 16.5 -84t45 -67t67.5 -44t84 -16q118 0 196 102q13 16 23 32
t20 35t20.5 43.5t24.5 58.5l36 90h91h13q32 0 55 20t23 49q0 46 -55 48h-13h-66zM507 0l-28 -70q-13 -32 -25 -56t-24 -44q-21 -32 -48 -49.5t-55 -17.5q-36 0 -61.5 25.5t-25.5 63.5q0 42 29 76t81 53q14 5 28.5 8t32.5 5.5t41 3.5t55 2z" />
    <glyph glyph-name="Z" unicode="Z" horiz-adv-x="747" 
d="M460 306l208 238q28 31 28 58q0 65 -82 65h-282h-13q-32 0 -54.5 -20t-22.5 -49q0 -46 55 -48h13h201l-176 -206q-27 -31 -27 -54q0 -20 11.5 -34t43.5 -31q39 -20 61.5 -46.5t31.5 -61.5h-181q-41 0 -81 -7.5t-70 -21.5q-64 -29 -100.5 -86t-36.5 -128q0 -52 18.5 -95.5
t52 -75.5t79.5 -50t100 -18q69 0 131 28.5t110 78t78.5 116t35.5 142.5h36h13q32 0 54.5 20t22.5 49q0 46 -54 48h-13h-64q-11 103 -127 189zM463 0q-7 -52 -27.5 -97t-50.5 -78t-66.5 -51.5t-76.5 -18.5q-27 0 -50 9t-40.5 24.5t-27 37t-9.5 45.5q0 31 15 57t42 43
q12 7 22.5 11.5t25.5 7.5t36 4.5t53 3.5q17 2 26 2h13h115z" />
    <glyph glyph-name="bracketleft" unicode="[" horiz-adv-x="465" 
d="M468 658h54h13q32 0 55 20t23 49q0 46 -55 48h-13h-99h-15q-31 0 -46.5 -12.5t-30.5 -48.5l-285 -696q-13 -31 -17.5 -46t-4.5 -26q0 -27 21.5 -44t56.5 -17h130q23 0 37 3.5t25 11.5q13 11 20.5 25.5t7.5 29.5q0 45 -54 47h-13h-77z" />
    <glyph glyph-name="backslash" unicode="\" horiz-adv-x="462" 
d="M296 -5q12 -54 54 -54q44 0 44 42q0 5 -1 11.5t-3 13.5l-141 644q-5 22 -7.5 30.5t-6.5 15.5q-11 19 -37 19q-21 0 -34 -12t-13 -30q0 -6 1 -17t5 -28l5 -22z" />
    <glyph glyph-name="bracketright" unicode="]" horiz-adv-x="465" 
d="M124 3h-55h-13q-32 0 -54.5 -20.5t-22.5 -49.5q0 -47 54 -47h13h99l15 -1q31 0 46.5 12.5t30.5 49.5l286 696q13 31 17.5 45.5t4.5 25.5q0 28 -21.5 44.5t-56.5 16.5h-131q-23 0 -37 -3.5t-24 -11.5q-14 -10 -21.5 -25t-7.5 -29q0 -46 55 -48h12h78z" />
    <glyph glyph-name="asciicircum" unicode="^" 
d="M33 0h334v667h-334v-667zM40 7v653h320v-653h-320z" />
    <glyph glyph-name="underscore" unicode="_" horiz-adv-x="500" 
d="M0 -134v-83h500v83h-500z" />
    <glyph glyph-name="grave" unicode="`" horiz-adv-x="279" 
d="M186 538q-7 17 -16.5 22.5t-29.5 5.5h-36q-16 0 -26.5 -10t-10.5 -25q0 -12 5 -19.5t21 -19.5l58 -43q16 -12 31 -12q12 0 21 8.5t9 19.5q0 6 -1.5 13.5t-4.5 13.5z" />
    <glyph glyph-name="a" unicode="a" horiz-adv-x="467" 
d="M346 107l71 173q8 20 10.5 28.5t2.5 19.5q0 19 -15 32t-36 13t-35.5 -8t-27.5 -28q-30 43 -91 43q-41 0 -79 -20t-67.5 -53.5t-47.5 -77t-18 -89.5q0 -63 32.5 -101.5t84.5 -38.5h59q19 0 32.5 5.5t29.5 19.5l9 8q14 -33 56 -33h63h12q29 0 50 18.5t21 44.5q0 42 -50 44
h-12h-54zM232 131q-4 -9 -18.5 -18t-25.5 -9h-19q-19 0 -30 13t-11 36q0 22 9.5 45t24.5 42t33.5 30.5t36.5 11.5t31 -10.5t13 -24.5q0 -10 -4 -18l-3 -8z" />
    <glyph glyph-name="b" unicode="b" horiz-adv-x="434" 
d="M255 373l81 200q8 18 10 27.5t2 20.5q0 20 -14 33t-35 13q-24 0 -42.5 -14.5t-29.5 -40.5l-6 -14l-205 -504l-5 -13q-8 -21 -8 -35q0 -20 15 -33t37 -13q20 0 37 9t25 26q21 -20 40 -27.5t47 -7.5h43q42 0 80 30q47 37 70.5 87t23.5 110q0 69 -35.5 111t-92.5 42
q-10 0 -17.5 -1t-20.5 -6zM158 134l32 81q13 32 33 50t42 18q20 0 33 -13t13 -35q0 -28 -14.5 -60t-37.5 -55q-10 -9 -18.5 -12.5t-23.5 -3.5q-23 0 -34 5.5t-25 24.5z" />
    <glyph glyph-name="c" unicode="c" horiz-adv-x="382" 
d="M293 0h11q29 0 50 18.5t21 44.5q0 42 -50 44h-12h-92q-17 0 -36 2.5t-28 5.5q-29 13 -29 56q0 21 7 40t19 34t27.5 24t31.5 9q14 0 23.5 -9.5t8.5 -23.5v-22q-1 -17 11.5 -29t32.5 -12q29 0 47 23t18 58q0 53 -35.5 85t-93.5 32q-43 0 -81.5 -18t-67.5 -49t-46 -72
t-17 -86q0 -35 10 -63.5t28.5 -48.5t44 -31.5t55.5 -11.5h142z" />
    <glyph glyph-name="d" unicode="d" horiz-adv-x="473" 
d="M348 107l192 473l5 13q8 18 8 34q0 20 -14.5 33.5t-35.5 13.5q-48 0 -73 -56l-5 -13l-109 -267q-35 42 -94 42q-41 0 -78.5 -20.5t-66.5 -54.5t-46.5 -78t-17.5 -92q0 -29 8.5 -53.5t24 -42.5t36 -28.5t44.5 -10.5h78q26 0 57 31q19 -31 56 -31h66h12q29 0 49.5 18.5
t20.5 44.5q0 42 -50 44h-11h-56zM232 131q-4 -10 -17 -18.5t-24 -8.5h-22q-41 0 -41 44q0 24 9 48t24 43t33.5 31t37.5 12q18 0 31 -10.5t13 -24.5q0 -10 -4 -18l-3 -8z" />
    <glyph glyph-name="e" unicode="e" horiz-adv-x="399" 
d="M130 143h98q15 0 26 0.5t19.5 2t16 3.5t15.5 6q30 13 47.5 40.5t17.5 62.5q0 55 -38.5 88.5t-101.5 33.5q-44 0 -83.5 -18t-69 -49.5t-47 -73t-17.5 -88.5q0 -83 57 -126q20 -14 42 -19.5t59 -5.5h138h12q29 0 50 18.5t21 44.5q0 42 -50 44h-12h-145q-55 0 -55 36z
M153 232q26 49 72 49q14 0 23.5 -8t9.5 -19t-12 -16.5t-39 -5.5h-54z" />
    <glyph glyph-name="f" unicode="f" horiz-adv-x="370" 
d="M282 373l46 113q17 40 40 56.5t65 16.5h14h12q30 0 50.5 18.5t20.5 45.5q0 42 -50 44h-12h-56q-36 0 -65 -7.5t-52 -24.5t-41 -44t-34 -65l-62 -153h-56h-11q-29 0 -50 -18.5t-21 -44.5q0 -42 50 -44h12h33l-209 -514q-8 -20 -10.5 -28.5t-2.5 -18.5q0 -20 14.5 -33
t35.5 -13q47 0 72 54l5 14l219 539h90h12q29 0 50 19t21 45q0 43 -50 43h-12h-68z" />
    <glyph glyph-name="g" unicode="g" horiz-adv-x="429" 
d="M301 -13l122 301q8 20 10.5 28.5t2.5 18.5q0 19 -15 32t-36 13q-43 0 -63 -39q-30 39 -91 39q-41 0 -79.5 -20.5t-68 -55t-47.5 -78.5t-18 -92q0 -28 8.5 -51.5t24 -40.5t36.5 -26.5t47 -9.5q17 0 29 4t30 15l-15 -38h-105q-43 0 -71.5 -5t-54.5 -17q-48 -23 -76 -64.5
t-28 -91.5q0 -35 13.5 -64.5t36.5 -51t55 -34t70 -12.5q75 0 128 44.5t91 138.5l20 50h81h12q29 0 50 18.5t21 44.5q0 42 -50 44h-12h-58zM237 133q-5 -11 -20 -18.5t-32 -7.5q-48 0 -48 51q0 23 9 45.5t23 40.5t32.5 29t36.5 11t31 -10t13 -24q0 -5 -1.5 -9l-4.5 -12z
M134 -120q-14 -32 -22.5 -48.5t-18.5 -29.5q-34 -47 -77 -47q-25 0 -42 15.5t-17 39.5q0 33 24.5 51.5t68.5 18.5h84z" />
    <glyph glyph-name="h" unicode="h" horiz-adv-x="510" 
d="M258 352l93 229l5 13q7 19 7 33q0 20 -14 33t-35 13q-26 0 -43.5 -15.5t-32.5 -51.5l-212 -524l-6 -13q-7 -19 -7 -33q0 -20 14 -32.5t35 -12.5q48 0 71 53l5 13l54 135q36 84 85 84q16 0 26.5 -7.5t10.5 -20.5q0 -6 -2 -13t-7 -18l-44 -110l-6 -13q-5 -15 -5 -30
q0 -28 20.5 -46t52.5 -18h98h12q29 0 50 18.5t21 44.5q0 42 -50 44h-12h-56l52 127q5 12 8 27.5t3 27.5q0 39 -30 65t-76 26q-11 0 -19.5 -1t-17.5 -4t-20.5 -8.5t-27.5 -14.5z" />
    <glyph glyph-name="i" unicode="i" horiz-adv-x="272" 
d="M149 107l70 172l5 14q8 18 8 33q0 20 -14.5 33.5t-35.5 13.5q-50 0 -73 -55l-5 -13l-81 -198q-6 -16 -8 -23.5t-2 -17.5q0 -32 24 -49t69 -17h77h12q29 0 50 18.5t21 44.5q0 42 -50 44h-12h-55zM214 394q29 0 48.5 19.5t19.5 47.5q0 29 -20 49t-49 20q-28 0 -47.5 -20
t-19.5 -48t20 -48t48 -20z" />
    <glyph glyph-name="j" unicode="j" horiz-adv-x="294" 
d="M279 394q28 0 48 19.5t20 47.5q0 29 -20 49t-49 20q-28 0 -47.5 -20t-19.5 -48t19.5 -48t48.5 -20zM157 -20l120 287q10 25 10 42q0 24 -15.5 37.5t-43.5 13.5h-117h-12q-30 0 -50 -18t-20 -45q0 -43 50 -43h12h52l-111 -274h-101q-50 0 -86 -7t-63 -21
q-19 -10 -35.5 -26.5t-28.5 -36.5t-18.5 -42.5t-6.5 -44.5q0 -35 13.5 -64.5t37.5 -51t56.5 -34t70.5 -12.5q125 0 194 135l14 29l35 69h76h12q29 0 50 19t21 45q0 41 -50 43h-12h-54zM-11 -127q-14 -28 -23 -44.5t-19 -30.5q-35 -50 -83 -50q-25 0 -40.5 15t-15.5 39
q0 71 112 71h69z" />
    <glyph glyph-name="k" unicode="k" horiz-adv-x="440" 
d="M321 206l72 54q28 20 37.5 34t9.5 34t-13.5 33.5t-33.5 13.5q-13 0 -25 -5.5t-34 -21.5l-110 -81l125 307l5 13q8 18 8 33q0 20 -14.5 33.5t-35.5 13.5q-48 0 -72 -55l-5 -13l-209 -515l-5 -14q-8 -18 -8 -33q0 -20 14.5 -33t35.5 -13q27 0 44.5 15t32.5 52l55 136
l113 -170l6 -9q13 -21 36 -21q12 0 23 5t19.5 13t13.5 18t5 21q0 9 -3 16t-12 21z" />
    <glyph glyph-name="l" unicode="l" horiz-adv-x="274" 
d="M149 107l189 467l6 13q7 19 7 34q0 19 -14.5 32.5t-34.5 13.5q-49 0 -72 -55l-5 -13l-197 -485q-7 -16 -11 -30t-4 -24q0 -27 22 -43.5t57 -16.5h87h12q29 0 50 18.5t21 44.5q0 42 -50 44h-12h-51z" />
    <glyph glyph-name="m" unicode="m" horiz-adv-x="737" 
d="M610 107l53 128q10 28 10 51q0 41 -31 67.5t-79 26.5q-33 0 -65 -14.5t-58 -42.5q-17 31 -39.5 44t-57.5 13q-15 0 -27.5 -2t-24 -7.5t-24.5 -14.5t-30 -23q-9 40 -52 40q-23 0 -37 -11.5t-25 -38.5l-97 -239l-5 -13q-8 -18 -8 -34q0 -20 14.5 -33t35.5 -13q48 0 71 55
l5 13l57 140q14 34 37 55t46 21q14 0 24 -7.5t10 -18.5q0 -12 -7 -29l-55 -136l-6 -13q-7 -19 -7 -34q0 -20 14 -33t35 -13q27 0 44.5 15.5t32.5 52.5l55 135q14 36 38.5 58.5t48.5 22.5q15 0 24 -8.5t9 -23.5q0 -8 -4 -17l-45 -112q-6 -14 -9.5 -29t-3.5 -25q0 -26 20 -43
t52 -17h99h11q30 0 50.5 18.5t20.5 44.5q0 42 -50 44h-12h-58z" />
    <glyph glyph-name="n" unicode="n" horiz-adv-x="512" 
d="M384 107l54 131q5 13 7.5 25.5t2.5 23.5q0 41 -29.5 67t-76.5 26q-26 0 -47.5 -8.5t-51.5 -31.5q-16 34 -53 34q-47 0 -65 -48l-99 -243l-5 -13q-8 -18 -8 -34q0 -20 14.5 -33t35.5 -13q49 0 72 55l6 13l57 141q9 22 26 44q25 32 55 32q15 0 25 -8t10 -20q0 -10 -7 -27
l-43 -106q-8 -21 -11 -31t-3 -21q0 -26 20.5 -44t50.5 -18h101h12q29 0 50 18.5t21 44.5q0 42 -50 44h-12h-59z" />
    <glyph glyph-name="o" unicode="o" horiz-adv-x="414" 
d="M181 0q46 0 71.5 5t47.5 19t40.5 36t32 48t21 55t7.5 58q0 35 -12 64t-34 50t-52.5 33t-66.5 12q-45 0 -85 -18.5t-71 -49.5t-49 -72.5t-18 -86.5q0 -42 17.5 -77.5t48.5 -56.5q17 -11 37.5 -15t64.5 -4zM285 216q0 -27 -13 -55.5t-32 -42.5q-9 -8 -19 -10t-28 -2
q-62 0 -62 55q0 22 8 43t21.5 37t31 25.5t36.5 9.5q25 0 41 -17t16 -43z" />
    <glyph glyph-name="p" unicode="p" horiz-adv-x="453" 
d="M135 38q10 -12 18.5 -20t20 -12t27.5 -5.5t40 -1.5q22 0 38.5 1.5t30 5.5t24.5 10.5t22 16.5q38 35 61 90t23 114q0 65 -31 104t-82 39t-85 -36q-10 17 -20.5 23t-27.5 6q-45 0 -63 -44l-235 -579l-6 -13q-7 -19 -7 -33q0 -20 14.5 -33t34.5 -13q26 0 43.5 15t32.5 52z
M175 137l32 79l7 16q7 18 9 21t7 8q10 11 23.5 17t27.5 6q46 0 46 -48q0 -23 -11 -54t-28 -53q-11 -14 -22.5 -20t-30.5 -6l-7 1q-20 0 -30.5 6.5t-22.5 26.5z" />
    <glyph glyph-name="q" unicode="q" horiz-adv-x="399" 
d="M205 -236l162 398q10 25 14 43.5t4 38.5q0 30 -11 55t-31 43t-48 28t-61 10q-44 0 -83.5 -18.5t-68.5 -51.5q-32 -37 -50.5 -85.5t-18.5 -95.5q0 -28 9 -51.5t24.5 -41t36.5 -27.5t45 -10q34 0 61 22l-102 -250q-6 -15 -9.5 -29.5t-3.5 -23.5q0 -27 20.5 -44t53.5 -17h90
h12q30 0 50.5 19t20.5 45q0 43 -50 43h-12h-54zM232 129q-3 -8 -18.5 -14.5t-29.5 -6.5q-24 0 -38 12.5t-14 34.5q0 21 8.5 42.5t21.5 38.5t29.5 27.5t33.5 10.5q20 0 33.5 -10t13.5 -25q0 -2 -0.5 -6.5t-2.5 -9.5q-2 -8 -3 -11z" />
    <glyph glyph-name="r" unicode="r" horiz-adv-x="411" 
d="M136 266h51q-41 -46 -58 -78.5t-17 -66.5q0 -42 20.5 -73.5t53.5 -40.5q12 -3 22 -5t15 -2h96h12q29 0 49.5 18.5t20.5 44.5q0 42 -50 44h-12h-61q-45 0 -45 41q0 11 5 22.5t19 31.5q6 8 10.5 14.5t10.5 13t13.5 14l18.5 18.5l6 4q21 1 30 2t16 5q14 6 24.5 22.5
t10.5 32.5q0 45 -52 45h-12h-115q-23 0 -28.5 3t-8.5 15l-4 15q-8 34 -45 34q-20 0 -32.5 -11t-23.5 -38l-55 -136q-7 -17 -9 -24t-2 -15q0 -19 15 -32t35 -13t34 12.5t26 42.5z" />
    <glyph glyph-name="s" unicode="s" horiz-adv-x="358" 
d="M183 240l22 -42q7 -14 9.5 -22.5t2.5 -18.5q0 -50 -68 -50h-57h-11q-29 0 -50 -18.5t-21 -44.5q0 -42 50 -44h12h109q4 0 11.5 1t18.5 4q22 5 33 8.5t21 9.5q32 20 50.5 53.5t18.5 70.5q0 51 -42 111l-28 39q-23 32 -23 62q0 5 0.5 10t1.5 10q3 13 3 20q0 17 -14 28.5
t-33 11.5q-36 0 -59 -46l-65 -132q-14 -28 -14 -46q0 -17 16 -31t36 -14q40 0 60 48z" />
    <glyph glyph-name="t" unicode="t" horiz-adv-x="304" 
d="M257 373l18 39q6 13 9 25.5t3 21.5q0 20 -14 33t-35 13q-48 0 -71 -55l-6 -13l-26 -64h-22h-12q-29 0 -50 -18.5t-21 -44.5q0 -44 62 -44l-57 -141l-9 -21q-9 -21 -9 -40q0 -29 21.5 -46.5t58.5 -17.5h87h12q29 0 50 18.5t21 44.5q0 42 -50 44h-12h-54l65 159h35h12
q29 0 50 19t21 45q0 43 -50 43h-12h-15z" />
    <glyph glyph-name="u" unicode="u" horiz-adv-x="512" 
d="M364 107l70 173q8 20 10.5 28.5t2.5 18.5q0 20 -14.5 33t-35.5 13q-27 0 -44.5 -15t-32.5 -53l-62 -153q-5 -13 -17.5 -24.5t-27.5 -17.5q-8 -4 -35 -4q-12 0 -20 6t-8 16q0 4 5 19l5 15l52 125l5 13q8 19 8 34q0 20 -14.5 33t-35.5 13q-26 0 -43.5 -15.5t-32.5 -52.5
l-67 -163q-6 -16 -9.5 -29t-3.5 -26q0 -22 12 -44.5t29 -33.5q9 -5 26 -10.5t26 -5.5h80q39 0 66 32q5 -14 19 -23t29 -9h94h12q29 0 49.5 18.5t20.5 44.5q0 42 -50 44h-12h-56z" />
    <glyph glyph-name="v" unicode="v" horiz-adv-x="373" 
d="M158 171l14 132q1 8 1.5 15t0.5 9q0 20 -12.5 33t-32.5 13q-17 0 -33.5 -9t-25.5 -24q-5 -9 -7.5 -18.5t-4.5 -29.5l-17 -194q-1 -3 -1 -7v-5q0 -40 12 -59q9 -15 27 -25t37 -10q18 0 37 11t33 30l181 233q29 39 29 62t-14.5 37.5t-36.5 14.5q-37 0 -65 -41l-9 -13z" />
    <glyph glyph-name="w" unicode="w" horiz-adv-x="606" 
d="M392 182l13 122q1 5 1 15q0 29 -16.5 45t-45.5 16q-22 0 -43 -13t-38 -37l-108 -155l13 136q1 5 1.5 10.5t0.5 7.5q0 51 -46 51q-28 0 -47 -19t-22 -50l-1 -13l-13 -205q-4 -44 17.5 -72.5t56.5 -28.5q37 0 69 46l100 144l-16 -89q-2 -10 -2 -17q0 -36 22.5 -60t56.5 -24
q16 0 35 13t36 33l183 231l10 12q21 26 21 48t-14.5 36t-37.5 14q-20 0 -35 -10t-37 -38z" />
    <glyph glyph-name="x" unicode="x" horiz-adv-x="380" 
d="M222 276l-26 64q-10 23 -19 31.5t-26 8.5q-12 0 -23.5 -5t-20.5 -13.5t-14.5 -19t-5.5 -22.5q0 -8 2 -15t8 -20l37 -88l-87 -88q-21 -23 -29 -36.5t-8 -28.5q0 -23 14 -37t37 -14q28 0 58 30l11 11l57 61l30 -67q11 -22 20 -29.5t25 -7.5q24 0 43.5 18t19.5 41
q0 10 -5 25l-5 9l-40 95l83 83q22 21 30.5 35.5t8.5 30.5q0 23 -14.5 38t-37.5 15q-17 0 -32 -9.5t-36 -32.5z" />
    <glyph glyph-name="y" unicode="y" horiz-adv-x="456" 
d="M318 -20l122 299l5 14q4 8 5.5 16.5t1.5 16.5q0 20 -14 33.5t-36 13.5q-49 0 -72 -55l-5 -13l-65 -160q-7 -17 -30 -30t-45 -13q-31 0 -31 22q0 6 2 13.5t9 24.5l48 117q8 19 10.5 28.5t2.5 19.5q0 20 -14.5 33t-36.5 13q-27 0 -44.5 -15.5t-33.5 -52.5l-53 -132
q-11 -28 -16 -46t-5 -32q0 -43 32.5 -70t83.5 -27q18 0 33 3.5t35 13.5l-14 -35h-80q-90 0 -138 -18q-52 -19 -83.5 -62.5t-31.5 -96.5q0 -35 13.5 -64.5t37.5 -51.5t56 -34.5t69 -12.5q41 0 78.5 15.5t66.5 44.5q17 17 34 45.5t41 81.5q8 17 11 24.5t8 21.5h79h12
q29 0 50 18.5t21 44.5q0 42 -50 44h-12h-57zM158 -127q-14 -28 -22.5 -44.5t-19.5 -30.5q-35 -50 -82 -50q-25 0 -40.5 15t-15.5 39q0 71 112 71h68z" />
    <glyph glyph-name="z" unicode="z" horiz-adv-x="404" 
d="M205 107l154 149q31 30 31 60q0 57 -67 57h-152h-13q-30 0 -51 -18.5t-21 -45.5q0 -45 52 -45l4 0.5t9 0.5l55 2l-160 -154q-17 -17 -25 -29.5t-8 -26.5q0 -26 18 -41.5t48 -15.5h228h12q29 0 49.5 18.5t20.5 44.5q0 42 -50 44h-11h-123z" />
    <glyph glyph-name="braceleft" unicode="{" 
d="M33 0h334v667h-334v-667zM40 7v653h320v-653h-320z" />
    <glyph glyph-name="bar" unicode="|" 
d="M33 0h334v667h-334v-667zM40 7v653h320v-653h-320z" />
    <glyph glyph-name="braceright" unicode="}" 
d="M33 0h334v667h-334v-667zM40 7v653h320v-653h-320z" />
    <glyph glyph-name="asciitilde" unicode="~" 
d="M33 0h334v667h-334v-667zM40 7v653h320v-653h-320z" />
    <glyph glyph-name="Adieresis" unicode="&#xc4;" 
d="M33 0h334v667h-334v-667zM40 7v653h320v-653h-320z" />
    <glyph glyph-name="Aring" unicode="&#xc5;" 
d="M33 0h334v667h-334v-667zM40 7v653h320v-653h-320z" />
    <glyph glyph-name="Ccedilla" unicode="&#xc7;" horiz-adv-x="594" 
d="M420 -133h172h13q32 0 54.5 20t22.5 49q0 45 -55 48h-13h-271q-76 0 -108.5 30t-32.5 102q0 51 16.5 104t49.5 113h128q37 0 76.5 4t69.5 11q21 5 42.5 16t38.5 25q29 25 45 59t16 71q0 34 -12.5 63t-35 50t-53 33t-67.5 12q-109 0 -203 -86q-73 -65 -119 -141h-71h-13
q-32 0 -54.5 -20t-22.5 -49q0 -46 55 -48h13h27q-32 -72 -46 -126.5t-14 -107.5q0 -51 16.5 -94t46.5 -73.5t71 -48t89 -17.5l17 1h52l-23 -54q-2 -8 -2 -12q0 -12 16 -13l18 -1q14 0 23 -8t9 -19q0 -10 -8 -16t-20 -6q-13 0 -26 9l-9 7q-7 5 -14 5q-11 0 -19 -8t-8 -19
q0 -20 23.5 -35t55.5 -15q39 0 65.5 22.5t26.5 55.5q0 58 -67 67zM341 450q14 20 28.5 36t37.5 35q48 41 94 41q25 0 40.5 -13t15.5 -33q0 -26 -24 -45q-27 -21 -97 -21h-95z" />
    <glyph glyph-name="Eacute" unicode="&#xc9;" 
d="M33 0h334v667h-334v-667zM40 7v653h320v-653h-320z" />
    <glyph glyph-name="Ntilde" unicode="&#xd1;" 
d="M33 0h334v667h-334v-667zM40 7v653h320v-653h-320z" />
    <glyph glyph-name="Odieresis" unicode="&#xd6;" 
d="M33 0h334v667h-334v-667zM40 7v653h320v-653h-320z" />
    <glyph glyph-name="Udieresis" unicode="&#xdc;" 
d="M33 0h334v667h-334v-667zM40 7v653h320v-653h-320z" />
    <glyph glyph-name="aacute" unicode="&#xe1;" horiz-adv-x="467" 
d="M346 107l71 173q8 20 10.5 28.5t2.5 19.5q0 19 -15 32t-36 13t-35.5 -8t-27.5 -28q-30 43 -91 43q-41 0 -79 -20t-67.5 -53.5t-47.5 -77t-18 -89.5q0 -63 32.5 -101.5t84.5 -38.5h59q19 0 32.5 5.5t29.5 19.5l9 8q14 -33 56 -33h63h12q29 0 50 18.5t21 44.5q0 42 -50 44
h-12h-54zM232 131q-4 -9 -18.5 -18t-25.5 -9h-19q-19 0 -30 13t-11 36q0 22 9.5 45t24.5 42t33.5 30.5t36.5 11.5t31 -10.5t13 -24.5q0 -10 -4 -18l-3 -8zM373 500q16 11 16 30q0 35 -47 35h-29q-18 0 -27.5 -6.5t-15.5 -24.5l-19 -50l-5 -10q-1 -2 -1 -9q0 -12 9.5 -21.5
t21.5 -9.5q7 0 16.5 4.5t19.5 12.5z" />
    <glyph glyph-name="agrave" unicode="&#xe0;" horiz-adv-x="467" 
d="M346 107l71 173q8 20 10.5 28.5t2.5 19.5q0 19 -15 32t-36 13t-35.5 -8t-27.5 -28q-30 43 -91 43q-41 0 -79 -20t-67.5 -53.5t-47.5 -77t-18 -89.5q0 -63 32.5 -101.5t84.5 -38.5h59q19 0 32.5 5.5t29.5 19.5l9 8q14 -33 56 -33h63h12q29 0 50 18.5t21 44.5q0 42 -50 44
h-12h-54zM232 131q-4 -9 -18.5 -18t-25.5 -9h-19q-19 0 -30 13t-11 36q0 22 9.5 45t24.5 42t33.5 30.5t36.5 11.5t31 -10.5t13 -24.5q0 -10 -4 -18l-3 -8zM271 538q-7 17 -16.5 22.5t-29.5 5.5h-36q-16 0 -26.5 -10t-10.5 -25q0 -12 5 -19.5t21 -19.5l58 -43q16 -12 31 -12
q12 0 21 8.5t9 19.5q0 6 -1.5 13.5t-4.5 13.5z" />
    <glyph glyph-name="acircumflex" unicode="&#xe2;" horiz-adv-x="467" 
d="M346 107l71 173q8 20 10.5 28.5t2.5 19.5q0 19 -15 32t-36 13t-35.5 -8t-27.5 -28q-30 43 -91 43q-41 0 -79 -20t-67.5 -53.5t-47.5 -77t-18 -89.5q0 -63 32.5 -101.5t84.5 -38.5h59q19 0 32.5 5.5t29.5 19.5l9 8q14 -33 56 -33h63h12q29 0 50 18.5t21 44.5q0 42 -50 44
h-12h-54zM232 131q-4 -9 -18.5 -18t-25.5 -9h-19q-19 0 -30 13t-11 36q0 22 9.5 45t24.5 42t33.5 30.5t36.5 11.5t31 -10.5t13 -24.5q0 -10 -4 -18l-3 -8zM338 483l29 -25q16 -14 21.5 -17.5t16.5 -3.5q18 0 30 11.5t12 28.5q0 24 -25 45l-39 32q-2 2 -4.5 4t-5.5 5
q-8 7 -13.5 9t-12.5 2q-8 0 -22.5 -4.5t-26.5 -10.5l-57 -31q-23 -12 -32 -23.5t-9 -28.5q0 -15 11.5 -27t26.5 -12q7 0 18.5 4t23.5 10z" />
    <glyph glyph-name="adieresis" unicode="&#xe4;" horiz-adv-x="467" 
d="M346 107l71 173q8 20 10.5 28.5t2.5 19.5q0 19 -15 32t-36 13t-35.5 -8t-27.5 -28q-30 43 -91 43q-41 0 -79 -20t-67.5 -53.5t-47.5 -77t-18 -89.5q0 -63 32.5 -101.5t84.5 -38.5h59q19 0 32.5 5.5t29.5 19.5l9 8q14 -33 56 -33h63h12q29 0 50 18.5t21 44.5q0 42 -50 44
h-12h-54zM232 131q-4 -9 -18.5 -18t-25.5 -9h-19q-19 0 -30 13t-11 36q0 22 9.5 45t24.5 42t33.5 30.5t36.5 11.5t31 -10.5t13 -24.5q0 -10 -4 -18l-3 -8zM398 437q27 0 46.5 19t19.5 47q0 27 -19.5 46.5t-46.5 19.5q-28 0 -47.5 -19t-19.5 -46q0 -29 19.5 -48t47.5 -19z
M211 437q28 0 47 19t19 47q0 27 -19 46.5t-47 19.5q-27 0 -46.5 -19t-19.5 -46q0 -29 19 -48t47 -19z" />
    <glyph glyph-name="atilde" unicode="&#xe3;" horiz-adv-x="467" 
d="M346 107l71 173q8 20 10.5 28.5t2.5 19.5q0 19 -15 32t-36 13t-35.5 -8t-27.5 -28q-30 43 -91 43q-41 0 -79 -20t-67.5 -53.5t-47.5 -77t-18 -89.5q0 -63 32.5 -101.5t84.5 -38.5h59q19 0 32.5 5.5t29.5 19.5l9 8q14 -33 56 -33h63h12q29 0 50 18.5t21 44.5q0 42 -50 44
h-12h-54zM232 131q-4 -9 -18.5 -18t-25.5 -9h-19q-19 0 -30 13t-11 36q0 22 9.5 45t24.5 42t33.5 30.5t36.5 11.5t31 -10.5t13 -24.5q0 -10 -4 -18l-3 -8zM422 494q6 7 10 17.5t4 18.5q0 17 -13 28t-32 11q-15 0 -25 -10l-11 -12q-6 -6 -13 -6q-4 0 -11 4l-15 10
q-14 9 -23 13t-19 4q-32 0 -54 -28l-19 -24q-9 -11 -12.5 -20t-3.5 -17q0 -17 10.5 -28t27.5 -11q23 0 42 19q6 6 9 8t7 2t7 -2t12 -10q26 -21 49 -21q25 0 45 22z" />
    <glyph glyph-name="aring" unicode="&#xe5;" horiz-adv-x="467" 
d="M346 107l71 173q8 20 10.5 28.5t2.5 19.5q0 19 -15 32t-36 13t-35.5 -8t-27.5 -28q-30 43 -91 43q-41 0 -79 -20t-67.5 -53.5t-47.5 -77t-18 -89.5q0 -63 32.5 -101.5t84.5 -38.5h59q19 0 32.5 5.5t29.5 19.5l9 8q14 -33 56 -33h63h12q29 0 50 18.5t21 44.5q0 42 -50 44
h-12h-54zM232 131q-4 -9 -18.5 -18t-25.5 -9h-19q-19 0 -30 13t-11 36q0 22 9.5 45t24.5 42t33.5 30.5t36.5 11.5t31 -10.5t13 -24.5q0 -10 -4 -18l-3 -8zM297 420q37 0 63 25.5t26 63.5q0 18 -7 34t-19 28t-28.5 19t-34.5 7t-34 -7t-28 -19t-19 -27.5t-7 -33.5
q0 -38 25.5 -64t62.5 -26zM297 476q-14 0 -23 9.5t-9 23.5q0 13 9 22.5t23 9.5t23.5 -9.5t9.5 -22.5q0 -14 -9.5 -23.5t-23.5 -9.5z" />
    <glyph glyph-name="ccedilla" unicode="&#xe7;" horiz-adv-x="382" 
d="M232 0h61h11q30 0 50.5 18.5t20.5 44.5q0 42 -50 44h-12h-92q-35 0 -51 4t-27 15q-15 15 -15 45q0 21 7 40t19 34t27 24t31 9q15 0 24.5 -9t8.5 -24v-22q-1 -17 11.5 -29t32.5 -12q29 0 47 23t18 58q0 53 -35.5 85t-94.5 32q-42 0 -80.5 -18t-67.5 -49t-46 -72t-17 -86
q0 -35 10 -63.5t28.5 -48.5t44 -31.5t55.5 -11.5h24l-22 -51q-2 -6 -2 -12q0 -11 15 -11l17 -1q13 -1 21.5 -8t8.5 -18q0 -9 -7.5 -15t-18.5 -6q-13 0 -25 9l-8 6q-7 5 -14 5q-11 0 -18 -7.5t-7 -18.5q0 -19 22.5 -33t52.5 -14q37 0 62 21t25 53q0 55 -64 64z" />
    <glyph glyph-name="eacute" unicode="&#xe9;" horiz-adv-x="399" 
d="M130 143h98q15 0 26 0.5t19.5 2t16 3.5t15.5 6q30 13 47.5 40.5t17.5 62.5q0 55 -38.5 88.5t-101.5 33.5q-44 0 -83.5 -18t-69 -49.5t-47 -73t-17.5 -88.5q0 -83 57 -126q20 -14 42 -19.5t59 -5.5h138h12q29 0 50 18.5t21 44.5q0 42 -50 44h-12h-145q-55 0 -55 36z
M153 232q26 49 72 49q14 0 23.5 -8t9.5 -19t-12 -16.5t-39 -5.5h-54zM354 502q16 11 16 30q0 35 -47 35h-29q-18 0 -27.5 -6.5t-15.5 -24.5l-19 -50l-5 -10q-1 -2 -1 -9q0 -12 9.5 -21.5t21.5 -9.5q7 0 16.5 4.5t19.5 12.5z" />
    <glyph glyph-name="egrave" unicode="&#xe8;" horiz-adv-x="399" 
d="M130 143h98q15 0 26 0.5t19.5 2t16 3.5t15.5 6q30 13 47.5 40.5t17.5 62.5q0 55 -38.5 88.5t-101.5 33.5q-44 0 -83.5 -18t-69 -49.5t-47 -73t-17.5 -88.5q0 -83 57 -126q20 -14 42 -19.5t59 -5.5h138h12q29 0 50 18.5t21 44.5q0 42 -50 44h-12h-145q-55 0 -55 36z
M153 232q26 49 72 49q14 0 23.5 -8t9.5 -19t-12 -16.5t-39 -5.5h-54zM261 543q-7 17 -16.5 22.5t-29.5 5.5h-36q-16 0 -26.5 -10t-10.5 -25q0 -12 5 -19.5t21 -19.5l58 -43q16 -12 31 -12q12 0 21 8.5t9 19.5q0 6 -1.5 13.5t-4.5 13.5z" />
    <glyph glyph-name="ecircumflex" unicode="&#xea;" horiz-adv-x="399" 
d="M130 143h98q15 0 26 0.5t19.5 2t16 3.5t15.5 6q30 13 47.5 40.5t17.5 62.5q0 55 -38.5 88.5t-101.5 33.5q-44 0 -83.5 -18t-69 -49.5t-47 -73t-17.5 -88.5q0 -83 57 -126q20 -14 42 -19.5t59 -5.5h138h12q29 0 50 18.5t21 44.5q0 42 -50 44h-12h-145q-55 0 -55 36z
M153 232q26 49 72 49q14 0 23.5 -8t9.5 -19t-12 -16.5t-39 -5.5h-54zM280 483l29 -25q16 -14 21.5 -17.5t16.5 -3.5q18 0 30 11.5t12 28.5q0 24 -25 45l-39 32q-2 2 -4.5 4t-5.5 5q-8 7 -13.5 9t-12.5 2q-8 0 -22.5 -4.5t-26.5 -10.5l-57 -31q-23 -12 -32 -23.5t-9 -28.5
q0 -15 11.5 -27t26.5 -12q7 0 18.5 4t23.5 10z" />
    <glyph glyph-name="edieresis" unicode="&#xeb;" horiz-adv-x="399" 
d="M130 143h98q15 0 26 0.5t19.5 2t16 3.5t15.5 6q30 13 47.5 40.5t17.5 62.5q0 55 -38.5 88.5t-101.5 33.5q-44 0 -83.5 -18t-69 -49.5t-47 -73t-17.5 -88.5q0 -83 57 -126q20 -14 42 -19.5t59 -5.5h138h12q29 0 50 18.5t21 44.5q0 42 -50 44h-12h-145q-55 0 -55 36z
M153 232q26 49 72 49q14 0 23.5 -8t9.5 -19t-12 -16.5t-39 -5.5h-54zM365 437q27 0 46.5 19t19.5 47q0 27 -19.5 46.5t-46.5 19.5q-28 0 -47.5 -19t-19.5 -46q0 -29 19.5 -48t47.5 -19zM178 437q28 0 47 19t19 47q0 27 -19 46.5t-47 19.5q-27 0 -46.5 -19t-19.5 -46
q0 -29 19 -48t47 -19z" />
    <glyph glyph-name="iacute" unicode="&#xed;" horiz-adv-x="272" 
d="M150 107l70 172l5 14q8 18 8 33q0 20 -14.5 33.5t-35.5 13.5q-50 0 -73 -55l-5 -13l-81 -198q-6 -16 -8 -23.5t-2 -17.5q0 -32 24 -49t69 -17h77h12q29 0 50 18.5t21 44.5q0 42 -50 44h-12h-55zM304 493q16 11 16 30q0 35 -47 35h-29q-18 0 -27.5 -6.5t-15.5 -24.5
l-19 -50l-5 -10q-1 -2 -1 -9q0 -12 9.5 -21.5t21.5 -9.5q7 0 16.5 4.5t19.5 12.5z" />
    <glyph glyph-name="igrave" unicode="&#xec;" horiz-adv-x="272" 
d="M150 107l70 172l5 14q8 18 8 33q0 20 -14.5 33.5t-35.5 13.5q-50 0 -73 -55l-5 -13l-81 -198q-6 -16 -8 -23.5t-2 -17.5q0 -32 24 -49t69 -17h77h12q29 0 50 18.5t21 44.5q0 42 -50 44h-12h-55zM232 539q-7 17 -16.5 22.5t-29.5 5.5h-36q-16 0 -26.5 -10t-10.5 -25
q0 -12 5 -19.5t21 -19.5l58 -43q16 -12 31 -12q12 0 21 8.5t9 19.5q0 6 -1.5 13.5t-4.5 13.5z" />
    <glyph glyph-name="icircumflex" unicode="&#xee;" horiz-adv-x="272" 
d="M150 107l70 172l5 14q8 18 8 33q0 20 -14.5 33.5t-35.5 13.5q-50 0 -73 -55l-5 -13l-81 -198q-6 -16 -8 -23.5t-2 -17.5q0 -32 24 -49t69 -17h77h12q29 0 50 18.5t21 44.5q0 42 -50 44h-12h-55zM234 483l29 -25q16 -14 21.5 -17.5t16.5 -3.5q18 0 30 11.5t12 28.5
q0 24 -25 45l-39 32q-2 2 -4.5 4t-5.5 5q-8 7 -13.5 9t-12.5 2q-8 0 -22.5 -4.5t-26.5 -10.5l-57 -31q-23 -12 -32 -23.5t-9 -28.5q0 -15 11.5 -27t26.5 -12q7 0 18.5 4t23.5 10z" />
    <glyph glyph-name="idieresis" unicode="&#xef;" horiz-adv-x="272" 
d="M150 107l70 172l5 14q8 18 8 33q0 20 -14.5 33.5t-35.5 13.5q-50 0 -73 -55l-5 -13l-81 -198q-6 -16 -8 -23.5t-2 -17.5q0 -32 24 -49t69 -17h77h12q29 0 50 18.5t21 44.5q0 42 -50 44h-12h-55zM321 429q27 0 46.5 19t19.5 47q0 27 -19.5 46.5t-46.5 19.5
q-28 0 -47.5 -19t-19.5 -46q0 -29 19.5 -48t47.5 -19zM134 429q28 0 47 19t19 47q0 27 -19 46.5t-47 19.5q-27 0 -46.5 -19t-19.5 -46q0 -29 19 -48t47 -19z" />
    <glyph glyph-name="ntilde" unicode="&#xf1;" horiz-adv-x="512" 
d="M384 107l54 131q5 13 7.5 25.5t2.5 23.5q0 41 -29.5 67t-76.5 26q-26 0 -47.5 -8.5t-51.5 -31.5q-16 34 -53 34q-47 0 -65 -48l-99 -243l-5 -13q-8 -18 -8 -34q0 -20 14.5 -33t35.5 -13q49 0 72 55l6 13l57 141q9 22 26 44q25 32 55 32q15 0 25 -8t10 -20q0 -10 -7 -27
l-43 -106q-8 -21 -11 -31t-3 -21q0 -26 20.5 -44t50.5 -18h101h12q29 0 50 18.5t21 44.5q0 42 -50 44h-12h-59zM469 490q6 7 10 17.5t4 18.5q0 17 -13 28t-32 11q-15 0 -25 -10l-11 -12q-6 -6 -13 -6q-4 0 -11 4l-15 10q-14 9 -23 13t-19 4q-32 0 -54 -28l-19 -24
q-9 -11 -12.5 -20t-3.5 -17q0 -17 10.5 -28t27.5 -11q23 0 42 19q6 6 9 8t7 2t7 -2t12 -10q26 -21 49 -21q25 0 45 22z" />
    <glyph glyph-name="oacute" unicode="&#xf3;" horiz-adv-x="414" 
d="M181 0q46 0 71.5 5t47.5 19t40.5 36t32 48t21 55t7.5 58q0 35 -12 64t-34 50t-52.5 33t-66.5 12q-45 0 -85 -18.5t-71 -49.5t-49 -72.5t-18 -86.5q0 -42 17.5 -77.5t48.5 -56.5q17 -11 37.5 -15t64.5 -4zM285 216q0 -27 -13 -55.5t-32 -42.5q-9 -8 -19 -10t-28 -2
q-62 0 -62 55q0 22 8 43t21.5 37t31 25.5t36.5 9.5q25 0 41 -17t16 -43zM358 500q16 11 16 30q0 35 -47 35h-29q-18 0 -27.5 -6.5t-15.5 -24.5l-19 -50l-5 -10q-1 -2 -1 -9q0 -12 9.5 -21.5t21.5 -9.5q7 0 16.5 4.5t19.5 12.5z" />
    <glyph glyph-name="ograve" unicode="&#xf2;" horiz-adv-x="414" 
d="M181 0q46 0 71.5 5t47.5 19t40.5 36t32 48t21 55t7.5 58q0 35 -12 64t-34 50t-52.5 33t-66.5 12q-45 0 -85 -18.5t-71 -49.5t-49 -72.5t-18 -86.5q0 -42 17.5 -77.5t48.5 -56.5q17 -11 37.5 -15t64.5 -4zM285 216q0 -27 -13 -55.5t-32 -42.5q-9 -8 -19 -10t-28 -2
q-62 0 -62 55q0 22 8 43t21.5 37t31 25.5t36.5 9.5q25 0 41 -17t16 -43zM264 541q-7 17 -16.5 22.5t-29.5 5.5h-36q-16 0 -26.5 -10t-10.5 -25q0 -12 5 -19.5t21 -19.5l58 -43q16 -12 31 -12q12 0 21 8.5t9 19.5q0 6 -1.5 13.5t-4.5 13.5z" />
    <glyph glyph-name="ocircumflex" unicode="&#xf4;" horiz-adv-x="414" 
d="M181 0q46 0 71.5 5t47.5 19t40.5 36t32 48t21 55t7.5 58q0 35 -12 64t-34 50t-52.5 33t-66.5 12q-45 0 -85 -18.5t-71 -49.5t-49 -72.5t-18 -86.5q0 -42 17.5 -77.5t48.5 -56.5q17 -11 37.5 -15t64.5 -4zM285 216q0 -27 -13 -55.5t-32 -42.5q-9 -8 -19 -10t-28 -2
q-62 0 -62 55q0 22 8 43t21.5 37t31 25.5t36.5 9.5q25 0 41 -17t16 -43zM287 483l29 -25q16 -14 21.5 -17.5t16.5 -3.5q18 0 30 11.5t12 28.5q0 24 -25 45l-39 32q-2 2 -4.5 4t-5.5 5q-8 7 -13.5 9t-12.5 2q-8 0 -22.5 -4.5t-26.5 -10.5l-57 -31q-23 -12 -32 -23.5t-9 -28.5
q0 -15 11.5 -27t26.5 -12q7 0 18.5 4t23.5 10z" />
    <glyph glyph-name="odieresis" unicode="&#xf6;" horiz-adv-x="414" 
d="M181 0q46 0 71.5 5t47.5 19t40.5 36t32 48t21 55t7.5 58q0 35 -12 64t-34 50t-52.5 33t-66.5 12q-45 0 -85 -18.5t-71 -49.5t-49 -72.5t-18 -86.5q0 -42 17.5 -77.5t48.5 -56.5q17 -11 37.5 -15t64.5 -4zM285 216q0 -27 -13 -55.5t-32 -42.5q-9 -8 -19 -10t-28 -2
q-62 0 -62 55q0 22 8 43t21.5 37t31 25.5t36.5 9.5q25 0 41 -17t16 -43zM365 434q27 0 46.5 19t19.5 47q0 27 -19.5 46.5t-46.5 19.5q-28 0 -47.5 -19t-19.5 -46q0 -29 19.5 -48t47.5 -19zM178 434q28 0 47 19t19 47q0 27 -19 46.5t-47 19.5q-27 0 -46.5 -19t-19.5 -46
q0 -29 19 -48t47 -19z" />
    <glyph glyph-name="otilde" unicode="&#xf5;" horiz-adv-x="414" 
d="M181 0q46 0 71.5 5t47.5 19t40.5 36t32 48t21 55t7.5 58q0 35 -12 64t-34 50t-52.5 33t-66.5 12q-45 0 -85 -18.5t-71 -49.5t-49 -72.5t-18 -86.5q0 -42 17.5 -77.5t48.5 -56.5q17 -11 37.5 -15t64.5 -4zM285 216q0 -27 -13 -55.5t-32 -42.5q-9 -8 -19 -10t-28 -2
q-62 0 -62 55q0 22 8 43t21.5 37t31 25.5t36.5 9.5q25 0 41 -17t16 -43zM389 490q6 7 10 17.5t4 18.5q0 17 -13 28t-32 11q-15 0 -25 -10l-11 -12q-6 -6 -13 -6q-4 0 -11 4l-15 10q-14 9 -23 13t-19 4q-32 0 -54 -28l-19 -24q-9 -11 -12.5 -20t-3.5 -17q0 -17 10.5 -28
t27.5 -11q23 0 42 19q6 6 9 8t7 2t7 -2t12 -10q26 -21 49 -21q25 0 45 22z" />
    <glyph glyph-name="uacute" unicode="&#xfa;" horiz-adv-x="512" 
d="M364 107l70 173q8 20 10.5 28.5t2.5 18.5q0 20 -14.5 33t-35.5 13q-27 0 -44.5 -15t-32.5 -53l-62 -153q-5 -13 -17.5 -24.5t-27.5 -17.5q-8 -4 -35 -4q-12 0 -20 6t-8 16q0 4 5 19l5 15l52 125l5 13q8 19 8 34q0 20 -14.5 33t-35.5 13q-26 0 -43.5 -15.5t-32.5 -52.5
l-67 -163q-6 -16 -9.5 -29t-3.5 -26q0 -22 12 -44.5t29 -33.5q9 -5 26 -10.5t26 -5.5h80q39 0 66 32q5 -14 19 -23t29 -9h94h12q29 0 49.5 18.5t20.5 44.5q0 42 -50 44h-12h-56zM420 502q16 11 16 30q0 35 -47 35h-29q-18 0 -27.5 -6.5t-15.5 -24.5l-19 -50l-5 -10
q-1 -2 -1 -9q0 -12 9.5 -21.5t21.5 -9.5q7 0 16.5 4.5t19.5 12.5z" />
    <glyph glyph-name="ugrave" unicode="&#xf9;" horiz-adv-x="512" 
d="M364 107l70 173q8 20 10.5 28.5t2.5 18.5q0 20 -14.5 33t-35.5 13q-27 0 -44.5 -15t-32.5 -53l-62 -153q-5 -13 -17.5 -24.5t-27.5 -17.5q-8 -4 -35 -4q-12 0 -20 6t-8 16q0 4 5 19l5 15l52 125l5 13q8 19 8 34q0 20 -14.5 33t-35.5 13q-26 0 -43.5 -15.5t-32.5 -52.5
l-67 -163q-6 -16 -9.5 -29t-3.5 -26q0 -22 12 -44.5t29 -33.5q9 -5 26 -10.5t26 -5.5h80q39 0 66 32q5 -14 19 -23t29 -9h94h12q29 0 49.5 18.5t20.5 44.5q0 42 -50 44h-12h-56zM309 542q-7 17 -16.5 22.5t-29.5 5.5h-36q-16 0 -26.5 -10t-10.5 -25q0 -12 5 -19.5t21 -19.5
l58 -43q16 -12 31 -12q12 0 21 8.5t9 19.5q0 6 -1.5 13.5t-4.5 13.5z" />
    <glyph glyph-name="ucircumflex" unicode="&#xfb;" horiz-adv-x="512" 
d="M364 107l70 173q8 20 10.5 28.5t2.5 18.5q0 20 -14.5 33t-35.5 13q-27 0 -44.5 -15t-32.5 -53l-62 -153q-5 -13 -17.5 -24.5t-27.5 -17.5q-8 -4 -35 -4q-12 0 -20 6t-8 16q0 4 5 19l5 15l52 125l5 13q8 19 8 34q0 20 -14.5 33t-35.5 13q-26 0 -43.5 -15.5t-32.5 -52.5
l-67 -163q-6 -16 -9.5 -29t-3.5 -26q0 -22 12 -44.5t29 -33.5q9 -5 26 -10.5t26 -5.5h80q39 0 66 32q5 -14 19 -23t29 -9h94h12q29 0 49.5 18.5t20.5 44.5q0 42 -50 44h-12h-56zM334 483l29 -25q16 -14 21.5 -17.5t16.5 -3.5q18 0 30 11.5t12 28.5q0 24 -25 45l-39 32
q-2 2 -4.5 4t-5.5 5q-8 7 -13.5 9t-12.5 2q-8 0 -22.5 -4.5t-26.5 -10.5l-57 -31q-23 -12 -32 -23.5t-9 -28.5q0 -15 11.5 -27t26.5 -12q7 0 18.5 4t23.5 10z" />
    <glyph glyph-name="udieresis" unicode="&#xfc;" horiz-adv-x="512" 
d="M364 107l70 173q8 20 10.5 28.5t2.5 18.5q0 20 -14.5 33t-35.5 13q-27 0 -44.5 -15t-32.5 -53l-62 -153q-5 -13 -17.5 -24.5t-27.5 -17.5q-8 -4 -35 -4q-12 0 -20 6t-8 16q0 4 5 19l5 15l52 125l5 13q8 19 8 34q0 20 -14.5 33t-35.5 13q-26 0 -43.5 -15.5t-32.5 -52.5
l-67 -163q-6 -16 -9.5 -29t-3.5 -26q0 -22 12 -44.5t29 -33.5q9 -5 26 -10.5t26 -5.5h80q39 0 66 32q5 -14 19 -23t29 -9h94h12q29 0 49.5 18.5t20.5 44.5q0 42 -50 44h-12h-56zM416 433q27 0 46.5 19t19.5 47q0 27 -19.5 46.5t-46.5 19.5q-28 0 -47.5 -19t-19.5 -46
q0 -29 19.5 -48t47.5 -19zM229 433q28 0 47 19t19 47q0 27 -19 46.5t-47 19.5q-27 0 -46.5 -19t-19.5 -46q0 -29 19 -48t47 -19z" />
    <glyph glyph-name="dagger" unicode="&#x2020;" 
d="M33 0h334v667h-334v-667zM40 7v653h320v-653h-320z" />
    <glyph glyph-name="degree" unicode="&#xb0;" 
d="M33 0h334v667h-334v-667zM40 7v653h320v-653h-320z" />
    <glyph glyph-name="cent" unicode="&#xa2;" horiz-adv-x="397" 
d="M368 472q1 5 1.5 10.5t0.5 7.5q0 23 -14.5 37t-38.5 14q-46 0 -61 -50q-40 -9 -72.5 -30t-55.5 -50t-35.5 -65.5t-12.5 -77.5q0 -45 16.5 -78t53.5 -60q-3 -9 -4 -14.5t-1 -11.5q0 -21 14.5 -34.5t37.5 -13.5q24 0 39 15t20 42q92 6 92 76q0 23 -12 37.5t-31 14.5
q-10 0 -18 -4l-18 -7q-15 -5 -27 -5q-21 0 -34.5 16.5t-13.5 43.5q0 20 7 39t19 34t27 24t31 9q14 0 23.5 -9t9.5 -22v-11q0 -2 -0.5 -4.5t-0.5 -4.5q0 -45 46 -45q29 0 46.5 22.5t17.5 57.5q0 32 -14 58t-38 39z" />
    <glyph glyph-name="sterling" unicode="&#xa3;" horiz-adv-x="451" 
d="M263 316l1 11q1 20 1.5 37.5t0.5 36.5q0 26 3 39.5t14 27.5q19 27 48 27q17 0 28.5 -12t11.5 -30v-9t-2 -8l-8 -23q-5 -17 -5 -28q0 -21 16.5 -36t39.5 -15q18 0 33 9t26 25.5t17 38.5t6 48q0 69 -44.5 110.5t-118.5 41.5q-41 0 -74 -14.5t-56.5 -40.5t-36.5 -63.5
t-14 -83.5l-1 -40q0 -8 -0.5 -17.5t-1.5 -21.5l-1 -10h-7h-12q-31 0 -52 -19t-21 -46q0 -44 58 -45q-11 -26 -30 -51t-51 -52q-18 -16 -24.5 -27t-6.5 -26q0 -31 25 -44q4 -2 8 -3t10 -2t16 -1h27h215h12q29 0 50 18.5t21 44.5q0 42 -50 44h-12h-144q21 23 35.5 46.5
t25.5 52.5h66h12q31 0 52 19.5t21 46.5q0 44 -51 44h-13h-63z" />
    <glyph glyph-name="section" unicode="&#xa7;" 
d="M33 0h334v667h-334v-667zM40 7v653h320v-653h-320z" />
    <glyph glyph-name="bullet" unicode="&#x2022;" horiz-adv-x="428" 
d="M247 480q-30 0 -57 -11.5t-47 -31.5t-31.5 -47t-11.5 -57t11.5 -57t31.5 -47.5t47 -32t57 -11.5q31 0 58 11.5t47 32t31.5 47.5t11.5 57t-11.5 57t-31.5 47t-47 31.5t-58 11.5z" />
    <glyph glyph-name="paragraph" unicode="&#xb6;" 
d="M33 0h334v667h-334v-667zM40 7v653h320v-653h-320z" />
    <glyph glyph-name="germandbls" unicode="&#xdf;" horiz-adv-x="494" 
d="M430 351q57 20 88.5 64.5t31.5 103.5q0 34 -12 61.5t-34.5 47.5t-53.5 31t-68 11q-126 0 -181 -133l-185 -457l-6 -13q-7 -19 -7 -33q0 -20 14.5 -33t34.5 -13q48 0 71 54l5 13l180 443q28 66 77 66q23 0 36.5 -13.5t13.5 -36.5q0 -20 -8.5 -39t-24.5 -33q-6 -6 -11 -10
t-12 -7t-16.5 -5.5t-24.5 -5.5q-46 -9 -46 -50q0 -20 23 -37l18 -12q16 -11 22.5 -27t6.5 -42q0 -28 -9 -53.5t-23.5 -45t-34 -31t-40.5 -11.5h-9t-11 1q-10 1 -16.5 1.5t-10.5 0.5q-22 0 -37 -14.5t-15 -34.5q0 -27 26.5 -46.5t64.5 -19.5q41 0 83 18t74 48
q34 33 54.5 82.5t20.5 97.5q0 37 -11.5 62.5t-37.5 49.5z" />
    <glyph glyph-name="registered" unicode="&#xae;" 
d="M33 0h334v667h-334v-667zM40 7v653h320v-653h-320z" />
    <glyph glyph-name="copyright" unicode="&#xa9;" 
d="M33 0h334v667h-334v-667zM40 7v653h320v-653h-320z" />
    <glyph glyph-name="trademark" unicode="&#x2122;" 
d="M33 0h334v667h-334v-667zM40 7v653h320v-653h-320z" />
    <glyph glyph-name="acute" unicode="&#xb4;" horiz-adv-x="278" 
d="M195 502q16 11 16 30q0 35 -47 35h-29q-18 0 -27.5 -6.5t-15.5 -24.5l-19 -50l-5 -10q-1 -2 -1 -9q0 -12 9.5 -21.5t21.5 -9.5q7 0 16.5 4.5t19.5 12.5z" />
    <glyph glyph-name="dieresis" unicode="&#xa8;" horiz-adv-x="453" 
d="M320 437q27 0 46.5 19t19.5 47q0 27 -19.5 46.5t-46.5 19.5q-28 0 -47.5 -19t-19.5 -46q0 -29 19.5 -48t47.5 -19zM133 437q28 0 47 19t19 47q0 27 -19 46.5t-47 19.5q-27 0 -46.5 -19t-19.5 -46q0 -29 19 -48t47 -19z" />
    <glyph glyph-name="notequal" unicode="&#x2260;" 
d="M33 0h334v667h-334v-667zM40 7v653h320v-653h-320z" />
    <glyph glyph-name="AE" unicode="&#xc6;" 
d="M33 0h334v667h-334v-667zM40 7v653h320v-653h-320z" />
    <glyph glyph-name="Oslash" unicode="&#xd8;" 
d="M33 0h334v667h-334v-667zM40 7v653h320v-653h-320z" />
    <glyph glyph-name="infinity" unicode="&#x221e;" 
d="M33 0h334v667h-334v-667zM40 7v653h320v-653h-320z" />
    <glyph glyph-name="plusminus" unicode="&#xb1;" 
d="M33 0h334v667h-334v-667zM40 7v653h320v-653h-320z" />
    <glyph glyph-name="lessequal" unicode="&#x2264;" 
d="M33 0h334v667h-334v-667zM40 7v653h320v-653h-320z" />
    <glyph glyph-name="greaterequal" unicode="&#x2265;" 
d="M33 0h334v667h-334v-667zM40 7v653h320v-653h-320z" />
    <glyph glyph-name="yen" unicode="&#xa5;" horiz-adv-x="456" 
d="M248 133h46h12q29 0 50 19t21 45q0 41 -49 43h-12h-18l76 93h41h11q30 0 51 19t21 45q0 37 -42 43l42 53q29 39 29 62t-14.5 37.5t-36.5 14.5q-36 0 -65 -41l-9 -13l-113 -155l1 132v12q0 58 -46 58q-29 0 -48.5 -21t-19.5 -51q0 -2 -0.5 -4.5t0.5 -4.5l2 -79h-5h-8
q-30 0 -51 -19t-21 -45q0 -41 49 -43h12h22l1 -68l-10 -25h-31h-12q-30 0 -51 -19t-21 -45q0 -41 49 -43h12h11l-20 -49l-6 -14q-7 -19 -7 -33q0 -20 14 -33t35 -13q27 0 45 15t33 52z" />
    <glyph glyph-name="mu" unicode="&#xb5;" 
d="M33 0h334v667h-334v-667zM40 7v653h320v-653h-320z" />
    <glyph glyph-name="mu" unicode="&#x3bc;" 
d="M33 0h334v667h-334v-667zM40 7v653h320v-653h-320z" />
    <glyph glyph-name="partialdiff" unicode="&#x2202;" 
d="M33 0h334v667h-334v-667zM40 7v653h320v-653h-320z" />
    <glyph glyph-name="summation" unicode="&#x2211;" 
d="M33 0h334v667h-334v-667zM40 7v653h320v-653h-320z" />
    <glyph glyph-name="product" unicode="&#x220f;" 
d="M33 0h334v667h-334v-667zM40 7v653h320v-653h-320z" />
    <glyph glyph-name="pi" unicode="&#x3c0;" 
d="M33 0h334v667h-334v-667zM40 7v653h320v-653h-320z" />
    <glyph glyph-name="integral" unicode="&#x222b;" 
d="M33 0h334v667h-334v-667zM40 7v653h320v-653h-320z" />
    <glyph glyph-name="ordfeminine" unicode="&#xaa;" 
d="M33 0h334v667h-334v-667zM40 7v653h320v-653h-320z" />
    <glyph glyph-name="ordmasculine" unicode="&#xba;" 
d="M33 0h334v667h-334v-667zM40 7v653h320v-653h-320z" />
    <glyph glyph-name="ae" unicode="&#xe6;" horiz-adv-x="625" 
d="M359 145h107q62 0 97 30t35 82q0 55 -37.5 89t-99.5 34q-37 0 -66 -11t-59 -36q-11 12 -19.5 18t-17.5 10q-11 4 -31 8t-30 4h-71h-11q-28 0 -47 -17t-19 -42q0 -40 47 -40h11h58q24 0 36 -9.5t15 -30.5h-92q-53 0 -82 -13q-32 -14 -51 -43t-19 -65q0 -27 10.5 -49
t29 -38.5t44 -25.5t55.5 -9q76 0 132 46q12 -11 20 -16t16 -9q6 -2 14 -4t17 -4t17.5 -3t13.5 -1h154h12q29 0 49.5 18.5t20.5 44.5q0 42 -50 44h-11h-146q-26 0 -38 8.5t-14 29.5zM384 234q23 46 70 46q14 0 23 -7t9 -18q0 -21 -43 -21h-59zM241 145v-12q0 -3 1 -10
q-17 -15 -37 -23.5t-38 -8.5q-37 0 -40 27q-1 12 13.5 19.5t40.5 7.5h60z" />
    <glyph glyph-name="oslash" unicode="&#xf8;" horiz-adv-x="414" 
d="M387 293q14 16 19.5 27t5.5 22q0 17 -16 32t-33 15q-12 0 -23 -5t-27 -19q-20 8 -36 11.5t-36 3.5q-45 0 -86 -18.5t-72 -49.5t-49.5 -72.5t-18.5 -86.5q0 -17 2.5 -31.5t9.5 -35.5q-17 -17 -25 -30t-8 -27q0 -19 15 -33.5t34 -14.5q14 0 27 6.5t28 22.5q16 -6 31.5 -8
t44.5 -2q56 0 88 8.5t56 28.5q39 32 62.5 81.5t23.5 100.5q0 21 -4 37.5t-13 36.5zM287 216q0 -27 -13 -55.5t-32 -42.5q-9 -8 -19.5 -10t-28.5 -2q-61 0 -61 55q0 22 8 43t21.5 37t31 25.5t35.5 9.5q25 0 41.5 -17t16.5 -43z" />
    <glyph glyph-name="questiondown" unicode="&#xbf;" horiz-adv-x="493" 
d="M367 623q-29 0 -49 -20t-20 -48q0 -29 20 -48.5t49 -19.5q28 0 47.5 19.5t19.5 48.5q0 28 -19.5 48t-47.5 20zM233 -13q42 0 77.5 13.5t61 37.5t40 57.5t14.5 72.5q0 47 -22.5 77.5t-57.5 30.5q-22 0 -37 -14.5t-15 -36.5q0 -13 6 -29l6.5 -26t1.5 -14q0 -23 -20 -41
t-46 -18q-24 0 -41 15t-17 37q0 21 17 42q6 7 16 16t36 33q60 54 86.5 94t26.5 77q0 23 -15.5 37.5t-38.5 14.5q-32 0 -46 -32l-20 -43q-2 -6 -5 -10t-11 -12t-16 -15l-16 -14q-10 -8 -21 -17t-24 -20q-26 -21 -44 -40t-29 -37.5t-15.5 -38t-4.5 -42.5q0 -34 13 -62.5
t36 -49t54.5 -32t69.5 -11.5z" />
    <glyph glyph-name="exclamdown" unicode="&#xa1;" horiz-adv-x="307" 
d="M271 624q-28 0 -48 -19.5t-20 -47.5q0 -29 20 -49t49 -20q28 0 47.5 20t19.5 48q0 29 -20 48.5t-48 19.5zM52 97q-7 -19 -9.5 -29.5t-2.5 -20.5q0 -26 18.5 -43t44.5 -17q25 0 43.5 16.5t26.5 45.5l92 334q3 9 4 17t1 14q0 20 -14 33.5t-34 13.5q-35 0 -63 -74z" />
    <glyph glyph-name="logicalnot" unicode="&#xac;" 
d="M33 0h334v667h-334v-667zM40 7v653h320v-653h-320z" />
    <glyph glyph-name="radical" unicode="&#x221a;" 
d="M33 0h334v667h-334v-667zM40 7v653h320v-653h-320z" />
    <glyph glyph-name="florin" unicode="&#x192;" horiz-adv-x="454" 
d="M339 440l46 113q16 40 39.5 56t64.5 16h15h12q29 0 50 19t21 45q0 44 -50 44h-12h-56q-73 0 -117 -32t-75 -108l-62 -153h-56h-12q-29 0 -49.5 -18.5t-20.5 -44.5q0 -42 50 -44h12h33l-209 -514q-8 -20 -10.5 -28.5t-2.5 -19.5q0 -19 14.5 -32.5t34.5 -13.5q49 0 72 55
l6 13l219 540h123h12q29 0 50 18.5t21 44.5q0 42 -50 44h-12h-101z" />
    <glyph glyph-name="approxequal" unicode="&#x2248;" 
d="M33 0h334v667h-334v-667zM40 7v653h320v-653h-320z" />
    <glyph glyph-name="guillemotleft" unicode="&#xab;" horiz-adv-x="436" 
d="M311 208l38 55l7 10q7 10 11 20.5t4 19.5q0 19 -12 31.5t-30 12.5q-15 0 -26 -8t-28 -31l-41 -57q-9 -14 -15 -27t-6 -21q0 -11 7 -28l9 -23l26 -70l4 -9q10 -28 35 -28q20 0 35.5 16t15.5 36q0 8 -1.5 13t-6.5 19zM164 208l38 55l7 10q7 10 11 20.5t4 19.5
q0 19 -12 31.5t-29 12.5q-15 0 -26.5 -8t-28.5 -31l-41 -57q-9 -14 -14.5 -27t-5.5 -21q0 -10 6 -28l9 -23l27 -70l3 -9q10 -28 35 -28q20 0 35.5 16t15.5 36q0 8 -1.5 13t-6.5 19z" />
    <glyph glyph-name="guillemotright" unicode="&#xbb;" horiz-adv-x="436" 
d="M125 203l-37 -55l-7 -10q-15 -20 -15 -39q0 -20 11.5 -32.5t29.5 -12.5q15 0 26.5 8.5t27.5 31.5l41 57q10 13 15.5 26t5.5 21q0 10 -6 28l-9 23l-27 71l-3 9q-11 28 -35 28q-20 0 -35.5 -16.5t-15.5 -36.5q0 -8 1 -12.5t6 -18.5zM272 203l-38 -55l-7 -10
q-7 -10 -11 -20.5t-4 -18.5q0 -20 12 -32.5t30 -12.5q15 0 26 8.5t28 31.5l41 57q9 13 15 26t6 21q0 10 -6 28l-10 23l-26 71l-4 9q-11 28 -35 28q-20 0 -35.5 -16.5t-15.5 -36.5q0 -8 1.5 -12.5t6.5 -18.5z" />
    <glyph glyph-name="ellipsis" unicode="&#x2026;" horiz-adv-x="1000" 
d="M150 -13q28 0 48 19.5t20 47.5q0 29 -20 49t-49 20q-28 0 -47.5 -20t-19.5 -48q0 -29 20 -48.5t48 -19.5zM483 -13q29 0 48.5 19.5t19.5 47.5q0 29 -20 49t-49 20q-27 0 -47 -20t-20 -48q0 -29 20 -48.5t48 -19.5zM816 -13q29 0 49 19.5t20 47.5q0 29 -20 49t-49 20
q-28 0 -47.5 -20t-19.5 -48q0 -29 19.5 -48.5t47.5 -19.5z" />
    <glyph glyph-name="nonbreakingspace" unicode="&#xa0;" horiz-adv-x="187" 
 />
    <glyph glyph-name="Agrave" unicode="&#xc0;" 
d="M33 0h334v667h-334v-667zM40 7v653h320v-653h-320z" />
    <glyph glyph-name="Atilde" unicode="&#xc3;" 
d="M33 0h334v667h-334v-667zM40 7v653h320v-653h-320z" />
    <glyph glyph-name="Otilde" unicode="&#xd5;" 
d="M33 0h334v667h-334v-667zM40 7v653h320v-653h-320z" />
    <glyph glyph-name="OE" unicode="&#x152;" 
d="M33 0h334v667h-334v-667zM40 7v653h320v-653h-320z" />
    <glyph glyph-name="oe" unicode="&#x153;" horiz-adv-x="642" 
d="M380 144h91q15 0 26 0.5t20 1.5t16.5 3t15.5 6q29 13 46.5 40.5t17.5 62.5q0 57 -38 89t-104 32q-42 0 -70.5 -11.5t-48.5 -37.5q-37 50 -117 50q-44 0 -84.5 -18.5t-71 -49.5t-48.5 -72.5t-18 -86.5q0 -75 50 -122q20 -18 41 -25t57 -7t54 1t29 3q20 4 32.5 11t25.5 22
q23 -20 48 -28t65 -8h139q40 0 57 14q11 10 18 23t7 26q0 42 -50 44h-12h-145q-25 0 -36 8.5t-13 28.5zM285 216q0 -27 -13 -55.5t-32 -42.5q-9 -7 -19.5 -9.5t-28.5 -2.5q-61 0 -61 55q0 22 8 43t21.5 37t31 25.5t36.5 9.5q25 0 41 -17t16 -43zM402 232q8 21 26.5 34.5
t41.5 13.5q13 0 22 -7.5t9 -18.5q0 -12 -11.5 -17t-38.5 -5h-49z" />
    <glyph glyph-name="endash" unicode="&#x2013;" horiz-adv-x="611" 
d="M122 250h-9q-21 0 -33.5 -11.5t-12.5 -30.5q0 -18 12.5 -29.5t33.5 -11.5h9h367h9q21 0 34 11t13 30t-12.5 30t-34.5 12h-9h-367z" />
    <glyph glyph-name="emdash" unicode="&#x2014;" horiz-adv-x="1133" 
d="M122 250h-9q-21 0 -33.5 -11.5t-12.5 -30.5q0 -18 12.5 -29.5t33.5 -11.5h9h889h9q21 0 34 11t13 30t-12.5 30t-34.5 12h-9h-889z" />
    <glyph glyph-name="quotedblleft" unicode="&#x201c;" horiz-adv-x="426" 
d="M293 595l20 27l9 13q11 16 11 25q0 8 -7.5 14t-16.5 6q-11 0 -25.5 -8t-39.5 -28q-32 -26 -45 -46t-13 -43q0 -26 17.5 -43.5t43.5 -17.5q25 0 43 17t18 41q0 11 -3.5 20t-11.5 23zM453 595l19 27l9 13q11 16 11 25q0 8 -7.5 14t-16.5 6q-11 0 -25.5 -8t-38.5 -28
q-32 -26 -45 -46t-13 -43q0 -26 17 -43.5t43 -17.5t44 17t18 41q0 11 -3.5 20t-11.5 23z" />
    <glyph glyph-name="quotedblright" unicode="&#x201d;" horiz-adv-x="426" 
d="M226 579l-19 -27l-9 -13q-11 -16 -11 -25q0 -8 7.5 -14t16.5 -6q11 0 25.5 8t39.5 28q32 26 44.5 46t12.5 43q0 26 -17 43.5t-43 17.5t-44 -17t-18 -41q0 -11 3.5 -20t11.5 -23zM386 579l-20 -27l-9 -13q-11 -16 -11 -25q0 -8 7.5 -14t16.5 -6q12 0 26 8t39 28
q32 26 44.5 46t12.5 43q0 26 -17 43.5t-43 17.5q-25 0 -43.5 -17t-18.5 -41q0 -11 4 -20t12 -23z" />
    <glyph glyph-name="quoteleft" unicode="&#x2018;" horiz-adv-x="267" 
d="M293 595l20 27l9 13q11 16 11 25q0 8 -7.5 14t-16.5 6q-11 0 -25.5 -8t-39.5 -28q-32 -26 -45 -46t-13 -43q0 -26 17.5 -43.5t43.5 -17.5q25 0 43 17t18 41q0 11 -3.5 20t-11.5 23z" />
    <glyph glyph-name="quoteright" unicode="&#x2019;" horiz-adv-x="267" 
d="M226 579l-19 -27l-9 -13q-11 -16 -11 -25q0 -8 7.5 -14t16.5 -6q11 0 25.5 8t39.5 28q32 26 44.5 46t12.5 43q0 26 -17 43.5t-43 17.5t-44 -17t-18 -41q0 -11 3.5 -20t11.5 -23z" />
    <glyph glyph-name="divide" unicode="&#xf7;" 
d="M33 0h334v667h-334v-667zM40 7v653h320v-653h-320z" />
    <glyph glyph-name="lozenge" unicode="&#x25ca;" 
d="M33 0h334v667h-334v-667zM40 7v653h320v-653h-320z" />
    <glyph glyph-name="ydieresis" unicode="&#xff;" horiz-adv-x="456" 
d="M318 -20l122 299l5 14q4 8 5.5 16.5t1.5 16.5q0 20 -14 33.5t-36 13.5q-49 0 -72 -55l-5 -13l-65 -160q-7 -17 -30 -30t-45 -13q-31 0 -31 22q0 6 2 13.5t9 24.5l48 117q8 19 10.5 28.5t2.5 19.5q0 20 -14.5 33t-36.5 13q-27 0 -44.5 -15.5t-33.5 -52.5l-53 -132
q-11 -28 -16 -46t-5 -32q0 -43 32.5 -70t83.5 -27q18 0 33 3.5t35 13.5l-14 -35h-80q-90 0 -138 -18q-52 -19 -83.5 -62.5t-31.5 -96.5q0 -35 13.5 -64.5t37.5 -51.5t56 -34.5t69 -12.5q41 0 78.5 15.5t66.5 44.5q17 17 34 45.5t41 81.5q8 17 11 24.5t8 21.5h79h12
q29 0 50 18.5t21 44.5q0 42 -50 44h-12h-57zM158 -127q-14 -28 -22.5 -44.5t-19.5 -30.5q-35 -50 -82 -50q-25 0 -40.5 15t-15.5 39q0 71 112 71h68zM421 437q27 0 46.5 19t19.5 47q0 27 -19.5 46.5t-46.5 19.5q-28 0 -47.5 -19t-19.5 -46q0 -29 19.5 -48t47.5 -19zM234 437
q28 0 47 19t19 47q0 27 -19 46.5t-47 19.5q-27 0 -46.5 -19t-19.5 -46q0 -29 19 -48t47 -19z" />
    <glyph glyph-name="Ydieresis" unicode="&#x178;" 
d="M33 0h334v667h-334v-667zM40 7v653h320v-653h-320z" />
    <glyph glyph-name="currency" unicode="&#xa4;" 
d="M33 0h334v667h-334v-667zM40 7v653h320v-653h-320z" />
    <glyph glyph-name="guilsinglleft" unicode="&#x2039;" horiz-adv-x="290" 
d="M164 208l38 55l7 10q7 10 11 20.5t4 19.5q0 19 -12 31.5t-29 12.5q-15 0 -26.5 -8t-28.5 -31l-41 -57q-9 -14 -15 -27t-6 -21q0 -5 2 -12t5 -16l9 -23l27 -70l3 -9q10 -28 35 -28q20 0 35.5 16t15.5 36q0 8 -1.5 13t-6.5 19z" />
    <glyph glyph-name="guilsinglright" unicode="&#x203a;" horiz-adv-x="290" 
d="M125 203l-37 -55l-7 -10q-16 -21 -16 -39q0 -20 12 -32.5t30 -12.5q15 0 26.5 8.5t27.5 31.5l41 57q10 13 15.5 26t5.5 21q0 10 -6 28l-9 23l-27 71l-3 9q-11 28 -35 28q-20 0 -35.5 -16.5t-15.5 -36.5q0 -8 1 -12.5t6 -18.5z" />
    <glyph glyph-name="fi" unicode="&#xfb01;" horiz-adv-x="567" 
d="M282 373l46 113q17 40 40 56.5t65 16.5h14h12q30 0 50.5 18.5t20.5 45.5q0 42 -50 44h-12h-56q-36 0 -65 -7.5t-52 -24.5t-41 -44t-34 -65l-62 -153h-56h-11q-29 0 -50 -18.5t-21 -44.5q0 -42 50 -44h12h33l-209 -514q-8 -20 -10.5 -28.5t-2.5 -18.5q0 -20 14.5 -33
t35.5 -13q47 0 72 54l5 14l219 539h145l-65 -159q-7 -16 -8.5 -23.5t-1.5 -16.5q0 -32 23.5 -49.5t68.5 -17.5h78h12q29 0 49.5 18.5t20.5 44.5q0 42 -50 44h-12h-55l70 172l6 14q7 19 7 33q0 16 -9.5 28.5t-25.5 16.5q-4 2 -14 2h-22h-174z" />
    <glyph glyph-name="fl" unicode="&#xfb02;" horiz-adv-x="568" 
d="M158 373h-56h-11q-29 0 -50 -18.5t-21 -44.5q0 -42 50 -44h12h33l-209 -514q-8 -20 -10.5 -28.5t-2.5 -18.5q0 -20 14.5 -33t35.5 -13q47 0 72 54l5 14l219 539h57h12q29 0 49.5 19t20.5 45q0 43 -50 43h-12h-34l46 113q17 40 40 56.5t65 16.5h70l-181 -445
q-7 -17 -11 -31.5t-4 -22.5q0 -27 22 -43.5t57 -16.5h88h12q29 0 49.5 18.5t20.5 44.5q0 42 -50 44h-11h-52l190 467l5 13q8 18 8 34q0 24 -18 35t-59 11h-116q-53 0 -80.5 -3.5t-50.5 -13.5q-34 -15 -57.5 -43.5t-44.5 -80.5z" />
    <glyph glyph-name="daggerdbl" unicode="&#x2021;" 
d="M33 0h334v667h-334v-667zM40 7v653h320v-653h-320z" />
    <glyph glyph-name="periodcentered" unicode="&#xb7;" horiz-adv-x="249" 
d="M154 227q29 0 49 19.5t20 47.5q0 29 -20 49t-49 20q-28 0 -47.5 -20t-19.5 -48q0 -29 19.5 -48.5t47.5 -19.5z" />
    <glyph glyph-name="quotesinglbase" unicode="&#x201a;" 
d="M33 0h334v667h-334v-667zM40 7v653h320v-653h-320z" />
    <glyph glyph-name="quotedblbase" unicode="&#x201e;" horiz-adv-x="426" 
d="M73 12l-19 -27l-9 -12q-12 -17 -12 -26q0 -8 7.5 -14t16.5 -6q12 0 26.5 8t38.5 28q32 26 45 46t13 43q0 26 -17.5 43.5t-43.5 17.5q-25 0 -43 -17t-18 -40q0 -11 3.5 -20.5t11.5 -23.5zM232 12l-19 -27l-9 -12q-11 -16 -11 -26q0 -8 7.5 -14t16.5 -6q11 0 25.5 8
t39.5 28q32 26 44.5 46t12.5 43q0 26 -17 43.5t-43 17.5t-44 -17t-18 -40q0 -11 3.5 -20.5t11.5 -23.5z" />
    <glyph glyph-name="perthousand" unicode="&#x2030;" horiz-adv-x="905" 
d="M174 298q51 0 86 29q18 14 33.5 35.5t27 46.5t17.5 52t6 54q0 42 -24 67t-66 25q-70 0 -120 -71q-26 -35 -40 -74t-14 -75q0 -42 24.5 -65.5t69.5 -23.5zM435 -5q49 0 87 29q18 14 33 35.5t26.5 46.5t17.5 52t6 54q0 42 -24 67t-66 25q-68 0 -120 -70q-26 -35 -40 -74.5
t-14 -75.5q0 -42 24.5 -65.5t69.5 -23.5zM126 47q-8 -11 -10.5 -16.5t-2.5 -12.5q0 -11 8.5 -18t20.5 -7q20 0 36 20l4 6l377 532q8 11 10.5 17t2.5 12q0 11 -8.5 18t-20.5 7q-22 0 -36 -20l-4 -6zM729 -5q48 0 86 29q18 14 33 35.5t26.5 46.5t17.5 52t6 54q0 42 -24 67
t-65 25q-69 0 -121 -70q-26 -35 -40 -74.5t-14 -75.5q0 -42 25 -65.5t70 -23.5zM276 514q0 -21 -9 -50t-24 -55q-30 -51 -64 -51q-13 0 -21 9.5t-8 24.5q0 19 8.5 45.5t22.5 52.5q34 59 68 59q27 0 27 -35zM537 211q0 -21 -9 -49.5t-24 -54.5q-28 -52 -64 -52q-13 0 -21 9.5
t-8 24.5q0 19 8.5 46t22.5 52q34 59 68 59q27 0 27 -35zM830 211q0 -21 -9 -49.5t-23 -54.5q-30 -52 -64 -52q-14 0 -22 9.5t-8 24.5q0 19 9 46t23 52q33 59 67 59q27 0 27 -35z" />
    <glyph glyph-name="Acircumflex" unicode="&#xc2;" 
d="M33 0h334v667h-334v-667zM40 7v653h320v-653h-320z" />
    <glyph glyph-name="Ecircumflex" unicode="&#xca;" 
d="M33 0h334v667h-334v-667zM40 7v653h320v-653h-320z" />
    <glyph glyph-name="Aacute" unicode="&#xc1;" 
d="M33 0h334v667h-334v-667zM40 7v653h320v-653h-320z" />
    <glyph glyph-name="Edieresis" unicode="&#xcb;" 
d="M33 0h334v667h-334v-667zM40 7v653h320v-653h-320z" />
    <glyph glyph-name="Egrave" unicode="&#xc8;" 
d="M33 0h334v667h-334v-667zM40 7v653h320v-653h-320z" />
    <glyph glyph-name="Iacute" unicode="&#xcd;" 
d="M33 0h334v667h-334v-667zM40 7v653h320v-653h-320z" />
    <glyph glyph-name="Icircumflex" unicode="&#xce;" 
d="M33 0h334v667h-334v-667zM40 7v653h320v-653h-320z" />
    <glyph glyph-name="Idieresis" unicode="&#xcf;" 
d="M33 0h334v667h-334v-667zM40 7v653h320v-653h-320z" />
    <glyph glyph-name="Igrave" unicode="&#xcc;" 
d="M33 0h334v667h-334v-667zM40 7v653h320v-653h-320z" />
    <glyph glyph-name="Oacute" unicode="&#xd3;" 
d="M33 0h334v667h-334v-667zM40 7v653h320v-653h-320z" />
    <glyph glyph-name="Ocircumflex" unicode="&#xd4;" 
d="M33 0h334v667h-334v-667zM40 7v653h320v-653h-320z" />
    <glyph glyph-name="apple" unicode="&#xf8ff;" 
d="M33 0h334v667h-334v-667zM40 7v653h320v-653h-320z" />
    <glyph glyph-name="Ograve" unicode="&#xd2;" 
d="M33 0h334v667h-334v-667zM40 7v653h320v-653h-320z" />
    <glyph glyph-name="Uacute" unicode="&#xda;" 
d="M33 0h334v667h-334v-667zM40 7v653h320v-653h-320z" />
    <glyph glyph-name="Ucircumflex" unicode="&#xdb;" 
d="M33 0h334v667h-334v-667zM40 7v653h320v-653h-320z" />
    <glyph glyph-name="Ugrave" unicode="&#xd9;" 
d="M33 0h334v667h-334v-667zM40 7v653h320v-653h-320z" />
    <glyph glyph-name="dotlessi" unicode="&#x131;" horiz-adv-x="272" 
d="M149 107l70 172l5 14q8 18 8 33q0 20 -14.5 33.5t-35.5 13.5q-50 0 -73 -55l-5 -13l-81 -198q-6 -16 -8 -23.5t-2 -17.5q0 -32 24 -49t69 -17h77h12q29 0 50 18.5t21 44.5q0 42 -50 44h-12h-55z" />
    <glyph glyph-name="circumflex" unicode="&#x2c6;" horiz-adv-x="381" 
d="M205 483l29 -25q16 -14 21.5 -17.5t16.5 -3.5q18 0 30 11.5t12 28.5q0 24 -25 45l-39 32q-2 2 -4.5 4t-5.5 5q-8 7 -13.5 9t-12.5 2q-8 0 -22.5 -4.5t-26.5 -10.5l-57 -31q-23 -12 -32 -23.5t-9 -28.5q0 -15 11.5 -27t26.5 -12q7 0 18.5 4t23.5 10z" />
    <glyph glyph-name="tilde" unicode="&#x2dc;" horiz-adv-x="385" 
d="M304 490q6 7 10 17.5t4 18.5q0 17 -13 28t-32 11q-15 0 -25 -10l-11 -12q-6 -6 -13 -6q-4 0 -11 4l-15 10q-14 9 -23 13t-19 4q-32 0 -54 -28l-19 -24q-9 -11 -12.5 -20t-3.5 -17q0 -17 10.5 -28t27.5 -11q23 0 42 19q6 6 9 8t7 2t7 -2t12 -10q26 -21 49 -21q25 0 45 22z
" />
    <glyph glyph-name="macron" unicode="&#xaf;" 
d="M33 0h334v667h-334v-667zM40 7v653h320v-653h-320z" />
    <glyph glyph-name="macron" unicode="&#x2c9;" 
d="M33 0h334v667h-334v-667zM40 7v653h320v-653h-320z" />
    <glyph glyph-name="breve" unicode="&#x2d8;" 
d="M33 0h334v667h-334v-667zM40 7v653h320v-653h-320z" />
    <glyph glyph-name="dotaccent" unicode="&#x2d9;" 
d="M33 0h334v667h-334v-667zM40 7v653h320v-653h-320z" />
    <glyph glyph-name="ring" unicode="&#x2da;" horiz-adv-x="310" 
d="M155 420q37 0 63 25.5t26 63.5q0 18 -7 34t-19 28t-28.5 19t-34.5 7t-34 -7t-28 -19t-19 -27.5t-7 -33.5q0 -38 25.5 -64t62.5 -26zM155 476q-14 0 -23 9.5t-9 23.5q0 13 9 22.5t23 9.5t23.5 -9.5t9.5 -22.5q0 -14 -9.5 -23.5t-23.5 -9.5z" />
    <glyph glyph-name="cedilla" unicode="&#xb8;" 
d="M33 0h334v667h-334v-667zM40 7v653h320v-653h-320z" />
    <glyph glyph-name="hungarumlaut" unicode="&#x2dd;" 
d="M33 0h334v667h-334v-667zM40 7v653h320v-653h-320z" />
    <glyph glyph-name="ogonek" unicode="&#x2db;" 
d="M33 0h334v667h-334v-667zM40 7v653h320v-653h-320z" />
    <glyph glyph-name="caron" unicode="&#x2c7;" 
d="M33 0h334v667h-334v-667zM40 7v653h320v-653h-320z" />
    <glyph glyph-name="numbersign" unicode="#" 
d="M33 0h334v667h-334v-667zM40 7v653h320v-653h-320z" />
    <glyph glyph-name="exclam" unicode="!" horiz-adv-x="307" 
d="M108 -13q28 0 48 19.5t20 47.5q0 29 -20 48.5t-49 19.5q-28 0 -47.5 -19.5t-19.5 -47.5q0 -29 20 -48.5t48 -19.5zM327 514q7 19 9.5 29.5t2.5 20.5q0 25 -18.5 42.5t-44.5 17.5q-25 0 -43.5 -16.5t-26.5 -45.5l-92 -334q-3 -9 -4 -17t-1 -14q0 -20 14 -34t34 -14
q35 0 63 75z" />
    <glyph glyph-name="quotedbl" unicode="&#x22;" horiz-adv-x="371" 
d="M141 455l-3 -9q-5 -12 -5 -22q0 -16 12.5 -27.5t29.5 -11.5q27 0 40 30l4 9l45 113l4 8q4 11 4 22q0 17 -12 28.5t-29 11.5q-28 0 -40 -30l-4 -9zM280 455l-3 -9q-5 -12 -5 -22q0 -16 12 -27.5t29 -11.5q28 0 41 30l3 9l46 113l4 8q4 11 4 22q0 17 -12.5 28.5t-29.5 11.5
q-27 0 -40 -30l-3 -9z" />
    <glyph glyph-name="Omega" unicode="&#x3a9;" 
d="M33 0h334v667h-334v-667zM40 7v653h320v-653h-320z" />
    <glyph glyph-name="Delta" unicode="&#x394;" 
d="M33 0h334v667h-334v-667zM40 7v653h320v-653h-320z" />
    <glyph glyph-name="fraction" unicode="&#x2215;" horiz-adv-x="398" 
d="M26 47q-8 -11 -10.5 -16.5t-2.5 -12.5q0 -11 8.5 -18t20.5 -7q20 0 36 20l4 6l377 532q8 11 10.5 17t2.5 12q0 11 -9 18t-21 7q-21 0 -35 -20l-4 -6z" />
    </font>
</defs>
</svg>
