<?xml version="1.0" standalone="no"?>
<!DOCTYPE svg PUBLIC "-//W3C//DTD SVG 1.1//EN" "http://www.w3.org/Graphics/SVG/1.1/DTD/svg11.dtd" >
<svg xmlns="http://www.w3.org/2000/svg" xmlns:xlink="http://www.w3.org/1999/xlink" version="1.1">
<metadata>
Created by FontForge 20161013 at Wed Apr 27 19:07:20 2016
 By ,,,
Copyright (c) 2003 by Henrik Kubel, A2/SW/HK + A2-TYPE. All rights reserved.
</metadata>
<defs>
<font id="GDBoing-Medium" horiz-adv-x="1270" >
  <font-face 
    font-family="GD Boing Medium"
    font-weight="500"
    font-stretch="normal"
    units-per-em="2048"
    panose-1="2 0 6 3 3 0 0 2 0 4"
    ascent="1638"
    descent="-410"
    x-height="1044"
    cap-height="1506"
    bbox="-336.704 -802.03 2975.94 2465"
    underline-thickness="0"
    underline-position="0"
    unicode-range="U+000D-FDFC"
  />
<missing-glyph horiz-adv-x="1206" 
d="M1206 1506v-1506h-1206v1506h1206zM1168 1467h-1129v-1428h1129v1428z" />
    <glyph glyph-name="uniFDFC" unicode="&#xfdfc;" horiz-adv-x="3082" arabic-form="isolated" 
d="M2179 989q97 -50 145.5 -143.5t48.5 -259.5v-204q0 -31 -17.5 -47t-51.5 -16h-629q-120 0 -179.5 57.5t-59.5 173.5v615q0 62 -20 170t-42 157q-14 29 -3 49.5t68 47.5q69 28 94 24t39 -32q31 -70 54 -201.5t23 -214.5v-572q0 -31 12 -46t36 -15h465v54q0 92 -17.5 140
t-60.5 69q-33 17 -37.5 45t22.5 82q26 52 52 67.5t58 -0.5zM1170 182q-91 -98 -226.5 -147t-318.5 -49q-171 0 -290.5 58t-182.5 172q-66 133 -33.5 310.5t136.5 322.5q21 29 51 27t78 -38q53 -36 64 -62t-8 -56q-75 -123 -98.5 -225.5t10.5 -170.5q32 -60 101 -90.5
t172 -30.5q127 0 221 31t156 94q57 65 77 163t4 231q-10 112 -51.5 312t-85.5 361q-67 20 -86 30.5t-33 25.5q-30 26 -47 74t-15 101q0 37 24 53t81 13q62 0 84 -14.5t22 -47.5q0 -20 12.5 -32t36.5 -15q23 -4 57.5 -7.5t155.5 -12.5q13 0 23 -9.5t10 -24.5l-7 -116
q-2 -19 -9.5 -30t-18.5 -11l-62 2q48 -189 83 -358.5t46 -272.5q16 -186 -17.5 -326.5t-115.5 -234.5zM1867 50q-36 -50 -63 -59t-58 12l-86 62q-29 22 -27.5 51t36.5 76q33 48 61 59.5t57 -9.5l86 -62q31 -22 30.5 -51.5t-36.5 -78.5zM1566 -36q-36 -51 -63 -60t-58 13
l-86 62q-29 22 -27.5 51t36.5 76q33 48 61 59.5t57 -9.5l86 -63q31 -22 30.5 -51t-36.5 -78zM2966 412q-22 -131 -124 -276t-248 -256q-98 -73 -185.5 -103t-208.5 -30q-81 0 -158.5 11.5t-138.5 31.5q-31 11 -38.5 38t10.5 91q18 49 31.5 61t35.5 12q11 0 73 -11t71 -12
q163 -26 261 13t228 167q67 68 111 146.5t57 153.5q14 86 -6.5 159.5t-114.5 192.5q-20 26 -11.5 55t52.5 72q40 37 74 41.5t59 -23.5q112 -123 154 -255.5t16 -278.5z" />
    <glyph glyph-name=".notdef" horiz-adv-x="1206" 
d="M1206 1506v-1506h-1206v1506h1206zM1168 1467h-1129v-1428h1129v1428z" />
    <glyph glyph-name=".null" horiz-adv-x="1076" 
 />
    <glyph glyph-name=".null" horiz-adv-x="1076" 
 />
    <glyph glyph-name="nonmarkingreturn" horiz-adv-x="682" 
 />
    <glyph glyph-name="CR" unicode="&#xd;" horiz-adv-x="1076" 
 />
    <glyph glyph-name="space" unicode=" " horiz-adv-x="445" 
 />
    <glyph glyph-name="exclam" unicode="!" horiz-adv-x="594" 
d="M454 1458l-2 -899q0 -18 -15 -32t-35 -14h-210q-19 0 -33.5 14t-14.5 32l-4 899q0 20 14 34t33 14h218q21 0 35 -14t14 -34zM497 170q0 -82 -58.5 -141t-141.5 -59q-82 0 -141 59t-59 141q0 83 59 142.5t141 59.5t141 -59.5t59 -142.5z" />
    <glyph glyph-name="quotedbl" unicode="&#x22;" horiz-adv-x="875" 
d="M367 1463v-534q0 -18 -12.5 -30.5t-30.5 -12.5h-204q-18 0 -30.5 12.5t-12.5 30.5v534q0 17 13 30t30 13h204q18 0 30.5 -12.5t12.5 -30.5zM798 1463v-534q0 -18 -12.5 -30.5t-30.5 -12.5h-204q-18 0 -30.5 12.5t-12.5 30.5v534q0 17 13 30t30 13h204q18 0 30.5 -12.5
t12.5 -30.5z" />
    <glyph glyph-name="numbersign" unicode="#" horiz-adv-x="1440" 
d="M890 887h-291l-49 -269h292zM517 437l-66 -390q-4 -19 -19.5 -33t-34.5 -14h-97q-18 0 -29 14t-7 33l66 390h-228q-19 0 -29.5 13.5t-6.5 33.5l15 88q5 19 20 32.5t33 13.5h229l47 269h-226q-20 0 -31 13.5t-8 33.5l15 88q4 19 19 32t35 13h228l69 394q4 19 20 32t34 13
h97q19 0 30.5 -13t7.5 -32l-71 -394h293l69 394q5 20 20 32.5t34 12.5h97q19 0 30.5 -13t7.5 -32l-71 -394h226q19 0 30.5 -13t8.5 -32l-15 -88q-3 -19 -19.5 -33t-36.5 -14h-224l-49 -269h226q18 0 30 -14t8 -32l-15 -88q-3 -19 -19.5 -33t-36.5 -14h-223l-69 -390
q-4 -19 -19.5 -33t-34.5 -14h-97q-19 0 -29.5 14t-7.5 33l67 390h-293z" />
    <glyph glyph-name="dollar" unicode="$" horiz-adv-x="1291" 
d="M735 -178h-153q-18 0 -31.5 13.5t-13.5 31.5v151q-139 16 -255.5 69.5t-187.5 132.5q-31 31 -33 64.5t28 56.5l125 96q26 20 50.5 16.5t50.5 -31.5q66 -74 156 -112t197 -38q108 0 173.5 44.5t65.5 112.5q0 63 -49.5 104.5t-161.5 69.5l-250 65q-170 44 -260 144.5
t-90 249.5q0 165 121 281.5t320 144.5v135q0 18 13.5 30.5t31.5 12.5h153q19 0 32 -12.5t13 -30.5v-138q111 -15 202.5 -55.5t159.5 -103.5q30 -29 32.5 -58t-20.5 -52l-107 -107q-20 -19 -46.5 -16t-54.5 27q-66 55 -145.5 85.5t-160.5 30.5q-101 0 -164.5 -42t-63.5 -111
q0 -52 37.5 -86.5t115.5 -55.5l273 -73q198 -52 294 -153t96 -256q0 -165 -122 -287.5t-326 -151.5v-153q0 -18 -13 -31.5t-32 -13.5z" />
    <glyph glyph-name="percent" unicode="%" horiz-adv-x="1550" 
d="M327 0h-88q-32 0 -43 22.5t7 48.5l951 1396q17 25 31.5 32t37.5 7h86q33 0 44.5 -22.5t-6.5 -48.5l-951 -1396q-17 -25 -31.5 -32t-37.5 -7zM64 1131q0 178 86 284t234 106t234 -106t86 -284q0 -180 -86 -286.5t-234 -106.5t-234 106.5t-86 286.5zM264 1127
q0 -116 30.5 -175t89.5 -59t89.5 59t30.5 175q0 118 -30.5 178.5t-89.5 60.5t-89.5 -60.5t-30.5 -178.5zM846 378q0 178 86 284t234 106t234 -106t86 -284q0 -180 -86 -286.5t-234 -106.5t-234 106.5t-86 286.5zM1046 374q0 -116 30.5 -175t89.5 -59t89.5 59t30.5 175
q0 118 -30.5 178.5t-89.5 60.5t-89.5 -60.5t-30.5 -178.5z" />
    <glyph glyph-name="ampersand" unicode="&#x26;" horiz-adv-x="1554" 
d="M521 1164q0 -39 22.5 -82.5t63.5 -82.5l17 -18l45 28q61 38 91 79.5t30 88.5q0 57 -37 92t-96 35q-58 0 -97 -39t-39 -101zM379 428q0 -87 68 -144.5t177 -57.5q64 0 128.5 25t116.5 70l-333 344l-26 -19q-66 -50 -98.5 -104t-32.5 -114zM1153 28l-105 110
q-102 -86 -214.5 -127t-250.5 -41q-221 0 -367.5 123.5t-146.5 313.5q0 121 64 222t190 180l45 30q-65 66 -100.5 147.5t-35.5 164.5q0 161 120.5 274.5t308.5 113.5q182 0 294 -100.5t112 -250.5q0 -103 -60.5 -192t-177.5 -157l-41 -23l254 -259q25 60 41 127.5t27 157.5
q2 19 14 28.5t35 9.5h205q20 0 34 -12.5t14 -32.5q-5 -85 -51.5 -230.5t-110.5 -260.5l280 -281q18 -22 10 -42.5t-31 -20.5h-287q-24 0 -38.5 5.5t-30.5 22.5z" />
    <glyph glyph-name="quotesingle" unicode="'" horiz-adv-x="444" 
d="M367 1463v-534q0 -18 -12.5 -30.5t-30.5 -12.5h-204q-18 0 -30.5 12.5t-12.5 30.5v534q0 17 13 30t30 13h204q18 0 30.5 -12.5t12.5 -30.5z" />
    <glyph glyph-name="parenleft" unicode="(" horiz-adv-x="663" 
d="M590 1527q-105 -237 -152.5 -439t-47.5 -401t47.5 -401t152.5 -439q14 -32 18 -45.5t4 -25.5q0 -13 -10 -21.5t-26 -8.5h-107q-24 0 -44 10t-40 33q-138 165 -230.5 415t-92.5 483t92.5 483t230.5 415q20 23 40 33t44 10h107q16 0 26 -8.5t10 -21.5q0 -12 -4 -25.5
t-18 -45.5z" />
    <glyph glyph-name="parenright" unicode=")" horiz-adv-x="663" 
d="M72 -153q105 237 152.5 439t47.5 401t-47.5 401t-152.5 439q-14 32 -18 45.5t-4 25.5q0 13 10 21.5t26 8.5h107q24 0 44 -10t40 -33q138 -165 230.5 -415t92.5 -483t-92.5 -483t-230.5 -415q-20 -23 -40 -33t-44 -10h-107q-16 0 -26 8.5t-10 21.5q0 12 4 25.5t18 45.5z
" />
    <glyph glyph-name="asterisk" unicode="*" horiz-adv-x="833" 
d="M470 964q22 -87 29.5 -120.5t7.5 -43.5q0 -38 -26 -63t-65 -25q-37 0 -62.5 25t-25.5 63q0 10 6.5 41t20.5 86q5 22 16.5 67.5t14.5 59.5q-10 -7 -29 -23t-64 -56q-58 -51 -80.5 -69t-31.5 -23q-33 -18 -67.5 -8t-51.5 43q-16 34 -6.5 68.5t42.5 54.5q10 5 37 12t99 23
q62 14 86.5 20.5t36.5 10.5q-14 6 -44 14.5t-103 26.5q-60 14 -81.5 20t-30.5 10q-32 19 -42.5 54t6.5 68t51.5 43.5t67.5 -7.5q9 -5 29 -21.5t73 -63.5q51 -45 71.5 -62t31.5 -25q-3 13 -14.5 57.5t-16.5 68.5q-14 55 -20.5 86t-6.5 41q0 37 26 63t62 26q38 0 64.5 -26
t26.5 -63q0 -10 -7.5 -44t-30.5 -122q-11 -43 -15.5 -60t-6.5 -27q11 8 31.5 25t71.5 62q53 47 73 63.5t29 21.5q33 18 68 7.5t52 -43.5q16 -33 5.5 -68t-43.5 -54q-9 -4 -30.5 -10t-80.5 -21q-72 -17 -101.5 -25.5t-43.5 -14.5q12 -4 35.5 -10t83.5 -20q72 -17 99.5 -24
t37.5 -12q33 -21 43.5 -55.5t-5.5 -67.5q-17 -33 -52 -43t-68 8q-10 5 -34.5 24.5t-86.5 74.5q-42 37 -58.5 51t-25.5 21q2 -10 6.5 -27.5t16.5 -62.5z" />
    <glyph glyph-name="plus" unicode="+" horiz-adv-x="1268" 
d="M526 1315h213q21 0 34 -13t13 -34v-377h364q21 0 34.5 -14.5t13.5 -35.5v-195q0 -21 -13.5 -35.5t-34.5 -14.5h-364v-377q0 -21 -13.5 -35t-33.5 -14h-213q-20 0 -33.5 14t-13.5 35v377h-362q-20 0 -33.5 14t-13.5 36v195q0 22 13.5 36t33.5 14h362v377q0 21 13 34t34 13
z" />
    <glyph glyph-name="comma" unicode="," horiz-adv-x="549" 
d="M58 -179l127 170q-54 27 -84 74.5t-30 104.5q0 84 58.5 143t143.5 59q88 0 148.5 -61.5t60.5 -153.5q0 -61 -37.5 -136.5t-106.5 -156.5l-118 -136q-25 -29 -49 -32.5t-55 15.5l-47 30q-23 14 -25.5 36t14.5 44z" />
    <glyph glyph-name="hyphen" unicode="-" horiz-adv-x="790" 
d="M641 416h-493q-20 0 -33.5 14t-13.5 35v203q0 21 13.5 35t33.5 14h493q20 0 35 -14.5t15 -34.5v-203q0 -20 -15 -34.5t-35 -14.5z" />
    <glyph glyph-name="period" unicode="." horiz-adv-x="600" 
d="M500 170q0 -82 -58.5 -141t-141.5 -59t-141.5 58.5t-58.5 141.5t58.5 142.5t141.5 59.5q82 0 141 -59.5t59 -142.5z" />
    <glyph glyph-name="slash" unicode="/" horiz-adv-x="1003" 
d="M216 0h-125q-29 0 -39 20.5t3 46.5l682 1405q10 20 21 27t33 7h122q30 0 40.5 -19t-3.5 -45l-676 -1405q-8 -21 -21 -29t-37 -8z" />
    <glyph glyph-name="zero" unicode="0" horiz-adv-x="1304" 
d="M71 758q0 365 154 572t429 207q273 0 426 -207.5t153 -571.5q0 -369 -153 -578.5t-426 -209.5q-275 0 -429 209t-154 579zM383 749q0 -255 70 -389t201 -134q129 0 198 134t69 389q0 260 -69 396t-198 136q-132 0 -201.5 -135.5t-69.5 -396.5z" />
    <glyph glyph-name="one" unicode="1" horiz-adv-x="712" 
d="M28 1117v159q0 26 12.5 39t36.5 13h31q80 0 132 33.5t78 101.5q11 22 28.5 32.5t43.5 10.5h124q21 0 34.5 -13t13.5 -34v-1410q0 -20 -14 -34.5t-34 -14.5h-206q-20 0 -34 14.5t-14 34.5v1023h-185q-21 0 -34 12.5t-13 32.5z" />
    <glyph glyph-name="two" unicode="2" horiz-adv-x="1244" 
d="M607 1537q234 0 387 -131t153 -339q0 -138 -86 -272.5t-291 -305.5l-262 -218h615q19 0 32.5 -13.5t13.5 -33.5v-177q0 -19 -13.5 -33t-32.5 -14h-987q-18 0 -33 14.5t-15 32.5v142q0 24 9.5 44.5t29.5 37.5l422 366q162 141 224 232t62 181q0 95 -65.5 157.5
t-162.5 62.5q-118 0 -186 -68t-68 -180v-58q0 -21 -15.5 -34t-40.5 -13h-192q-22 0 -35.5 15t-13.5 36v63q0 227 150 366.5t401 139.5z" />
    <glyph glyph-name="three" unicode="3" horiz-adv-x="1261" 
d="M1197 468q0 -217 -164 -358t-415 -141q-162 0 -301.5 56t-219.5 151q-17 18 -15.5 41.5t21.5 42.5l110 103q23 20 47.5 20.5t45.5 -18.5q83 -73 152 -101t151 -28q122 0 198.5 61.5t76.5 157.5q0 98 -71.5 157t-192.5 59h-119q-19 0 -33 14.5t-14 34.5v123q0 17 4.5 29
t14.5 22l321 334h-587q-20 0 -35 15t-15 34v179q0 21 14.5 35.5t35.5 14.5h888q20 0 34 -14.5t14 -35.5v-189q0 -25 -7 -43t-23 -35l-299 -300q180 -27 281.5 -141t101.5 -280z" />
    <glyph glyph-name="four" unicode="4" horiz-adv-x="1276" 
d="M60 631l411 832q9 19 26 31t37 12h228q21 0 30 -16t0 -33l-437 -870h342v310q0 19 15 33.5t35 14.5h204q20 0 34 -14t14 -34v-310h191q19 0 33 -14.5t14 -34.5v-168q0 -19 -13.5 -33t-33.5 -14h-191v-274q0 -21 -13.5 -35t-34.5 -14h-204q-20 0 -35 14.5t-15 34.5v274
h-617q-21 0 -35.5 13.5t-14.5 33.5v144q0 29 6.5 55.5t23.5 61.5z" />
    <glyph glyph-name="five" unicode="5" horiz-adv-x="1237" 
d="M1187 507q0 -230 -169.5 -384t-429.5 -154q-162 0 -301.5 56.5t-218.5 150.5q-17 18 -16 41.5t20 42.5l114 103q22 20 47 20t46 -18q77 -68 151 -98.5t156 -30.5q121 0 206 73.5t85 180.5q0 111 -76 179t-193 68q-61 0 -118.5 -22t-107.5 -64q-13 -10 -26.5 -13t-29.5 0
l-185 43q-18 5 -27.5 18t-7.5 30l54 727q2 22 16 36t34 14h843q21 0 35.5 -14.5t14.5 -35.5v-179q0 -19 -15 -34t-35 -15h-650l-24 -309q59 37 132 55.5t155 18.5q219 0 370 -137.5t151 -348.5z" />
    <glyph glyph-name="six" unicode="6" horiz-adv-x="1263" 
d="M1227 511q0 -230 -167 -386t-419 -156q-256 0 -426 158t-170 389q0 187 104 376.5t454 585.5q13 15 29.5 21.5t41.5 6.5h234q31 0 40.5 -26t-10.5 -48l-426 -482q51 25 99 36.5t103 11.5q218 0 365.5 -139.5t147.5 -347.5zM919 498q0 115 -79.5 193.5t-200.5 78.5
q-119 0 -200.5 -79.5t-81.5 -192.5q0 -112 82 -191.5t200 -79.5t199 79.5t81 191.5z" />
    <glyph glyph-name="seven" unicode="7" horiz-adv-x="1169" 
d="M1128 1459v-110q0 -29 -5 -51t-19 -48l-572 -1216q-12 -22 -24 -28t-35 -6h-247q-29 0 -40 21.5t3 45.5l588 1162h-693q-20 0 -36 15t-16 34v179q0 20 15.5 34.5t36.5 14.5h996q20 0 34 -13.5t14 -33.5z" />
    <glyph glyph-name="eight" unicode="8" horiz-adv-x="1341" 
d="M1278 439q0 -206 -167.5 -337.5t-439.5 -131.5q-271 0 -438.5 132t-167.5 337q0 127 74 228.5t197 146.5q-91 42 -145.5 126t-54.5 188q0 181 149.5 295t385.5 114t386 -114t150 -295q0 -104 -54.5 -188.5t-147.5 -125.5q122 -46 197.5 -148t75.5 -227zM428 1111
q0 -82 69 -137t174 -55t174.5 55t69.5 137t-69 136.5t-175 54.5q-105 0 -174 -54t-69 -137zM960 448q0 99 -82 165.5t-207 66.5q-126 0 -208 -66.5t-82 -165.5q0 -98 82 -163t208 -65q125 0 207 65.5t82 162.5z" />
    <glyph glyph-name="nine" unicode="9" horiz-adv-x="1263" 
d="M661 28q-14 -15 -29.5 -21.5t-39.5 -6.5h-237q-31 0 -40 25.5t10 47.5l427 483q-53 -25 -101.5 -36.5t-101.5 -11.5q-216 0 -364 139.5t-148 346.5q0 231 167 387t418 156q256 0 426 -158t170 -389q0 -188 -104.5 -378.5t-452.5 -583.5zM344 1007q0 -114 80 -192.5
t200 -78.5t202 79t82 192q0 112 -82.5 191.5t-201.5 79.5q-117 0 -198.5 -79.5t-81.5 -191.5z" />
    <glyph glyph-name="colon" unicode=":" horiz-adv-x="583" 
d="M493 842q0 -83 -59 -141.5t-143 -58.5q-83 0 -142 58.5t-59 141.5q0 84 59 143t142 59q84 0 143 -59t59 -143zM493 170q0 -82 -59.5 -141t-142.5 -59t-142 59t-59 141q0 83 59.5 142.5t141.5 59.5q83 0 142.5 -59.5t59.5 -142.5z" />
    <glyph glyph-name="semicolon" unicode=";" horiz-adv-x="592" 
d="M495 842q0 -84 -59 -142t-143 -58q-83 0 -141.5 58.5t-58.5 141.5q0 84 58.5 143t141.5 59q84 0 143 -59t59 -143zM77 -180l127 170q-53 28 -83.5 75.5t-30.5 103.5q0 84 59.5 143t145.5 59t146 -61.5t60 -153.5q0 -63 -38 -139.5t-106 -153.5l-116 -136
q-24 -28 -49.5 -32.5t-55.5 15.5l-48 30q-22 15 -24.5 37.5t13.5 42.5z" />
    <glyph glyph-name="less" unicode="&#x3c;" horiz-adv-x="1212" 
d="M1142 429v-219q0 -38 -26.5 -50t-59.5 7l-923 458q-32 17 -47.5 46.5t-15.5 76.5q0 46 15.5 74.5t47.5 45.5l923 459q34 17 60 4t26 -50v-219q0 -22 -13.5 -38t-48.5 -31l-547 -247l547 -246q38 -19 50 -34.5t12 -36.5z" />
    <glyph glyph-name="equal" unicode="=" horiz-adv-x="1268" 
d="M1151 852h-1031q-20 0 -35 14t-15 33v196q0 20 15 35t35 15h1031q19 0 33 -14.5t14 -35.5v-196q0 -19 -14 -33t-33 -14zM1151 344h-1031q-20 0 -35 14t-15 33v196q0 20 15 35t35 15h1031q19 0 33 -14.5t14 -35.5v-196q0 -19 -14 -33t-33 -14z" />
    <glyph glyph-name="greater" unicode="&#x3e;" horiz-adv-x="1210" 
d="M70 210v219q0 21 11 36t49 35l551 246l-551 247q-34 16 -47 32t-13 37v219q0 37 26 50t58 -4l925 -459q31 -17 46 -46t15 -74q0 -47 -15.5 -76.5t-47.5 -46.5l-923 -458q-31 -19 -57.5 -7t-26.5 50z" />
    <glyph glyph-name="question" unicode="?" horiz-adv-x="1072" 
d="M76 1322q69 101 187 159t263 58q208 0 336.5 -115.5t128.5 -288.5q0 -86 -36.5 -169t-145.5 -214q-72 -85 -92.5 -124.5t-20.5 -73.5v-13q0 -21 -12.5 -33t-32.5 -12h-207q-20 0 -32.5 13t-12.5 34v50q0 55 28 114t117 167q80 95 104 143.5t24 91.5q0 65 -48.5 108
t-125.5 43q-59 0 -112 -31t-99 -94q-19 -24 -46.5 -27t-52.5 16l-103 78q-29 21 -32 51.5t23 68.5zM748 171q0 -82 -59.5 -141t-140.5 -59q-84 0 -143.5 58.5t-59.5 141.5t59.5 142.5t143.5 59.5q81 0 140.5 -60t59.5 -142z" />
    <glyph glyph-name="at" unicode="@" horiz-adv-x="2115" 
d="M1730 -241q-107 -100 -273 -153.5t-375 -53.5q-206 0 -392 74t-328 212q-143 140 -220 324t-77 389q0 213 76.5 398.5t219.5 323.5q142 137 330.5 210t399.5 73q194 0 368 -64t305 -184q136 -124 208 -292.5t72 -363.5q0 -276 -121.5 -449t-314.5 -173q-99 0 -168 45.5
t-99 128.5q-48 -81 -136 -127.5t-194 -46.5q-205 0 -345.5 146.5t-140.5 363.5q0 215 140 359t346 144q93 0 173.5 -37.5t134.5 -106.5v60q0 19 14 32.5t34 13.5h154q21 0 34.5 -13t13.5 -33v-570q0 -68 21 -97.5t67 -29.5q71 0 114 104t43 290q0 303 -206 498t-523 195
q-160 0 -306 -60t-254 -171q-107 -109 -163 -253.5t-56 -311.5q0 -162 60.5 -308t173.5 -257q112 -111 259.5 -171.5t306.5 -60.5q83 0 162.5 14t149.5 40q30 12 60 27.5t56 32.5q23 18 39 19.5t30 -8.5l121 -82q13 -8 14.5 -20.5t-8.5 -19.5zM1280 544q0 108 -66.5 180
t-167.5 72q-104 0 -170.5 -71t-66.5 -181q0 -108 67 -180t170 -72q100 0 167 72.5t67 179.5z" />
    <glyph glyph-name="A" unicode="A" horiz-adv-x="1470" 
d="M546 603h364l-181 508zM452 340l-107 -297q-7 -22 -19 -32.5t-30 -10.5h-235q-28 0 -39 20t1 51l535 1388q9 22 25 34.5t36 12.5h232q20 0 35.5 -12.5t24.5 -34.5l538 -1386q13 -32 0 -52.5t-43 -20.5h-249q-18 0 -29.5 10t-18.5 33l-106 297h-551z" />
    <glyph glyph-name="B" unicode="B" horiz-adv-x="1453" 
d="M174 1506h663q228 0 359.5 -108t131.5 -275q0 -104 -52.5 -185.5t-147.5 -124.5q132 -43 204.5 -141t72.5 -229q0 -191 -140 -317t-365 -126h-726q-21 0 -34 13t-13 34v1412q0 21 13 34t34 13zM1009 1080q0 81 -57 129t-156 48h-359v-357h359q99 0 156 49t57 131z
M1080 456q0 91 -66 149t-168 58h-409v-413h409q102 0 168 57t66 149z" />
    <glyph glyph-name="C" unicode="C" horiz-adv-x="1592" 
d="M52 755q0 331 230 557.5t566 226.5q256 0 451 -123t270 -334q10 -25 1.5 -39t-33.5 -19l-222 -51q-18 -4 -31.5 2t-26.5 30q-63 119 -168 183t-239 64q-204 0 -338.5 -142t-134.5 -355q0 -212 135 -354.5t338 -142.5q134 0 239 64.5t168 183.5q13 24 26.5 30t31.5 2
l222 -52q25 -5 33 -18.5t-1 -39.5q-75 -210 -270 -333t-451 -123q-336 0 -566 226t-230 557z" />
    <glyph glyph-name="D" unicode="D" horiz-adv-x="1582" 
d="M174 1506h579q350 0 561.5 -206t211.5 -545t-212.5 -547t-560.5 -208h-579q-20 0 -33.5 14t-13.5 35v1410q0 20 13.5 33.5t33.5 13.5zM437 284h318q197 0 322.5 133t125.5 338q0 206 -125 336.5t-323 130.5h-318v-938z" />
    <glyph glyph-name="E" unicode="E" horiz-adv-x="1356" 
d="M174 1506h1078q20 0 34 -14t14 -35v-187q0 -20 -14 -34t-34 -14h-815v-327h469q21 0 34 -14t13 -35v-177q0 -21 -13 -35t-34 -14h-469v-336h826q20 0 34 -13.5t14 -33.5v-188q0 -20 -14 -34.5t-34 -14.5h-1089q-20 0 -33.5 14t-13.5 35v1410q0 20 13.5 33.5t33.5 13.5z
" />
    <glyph glyph-name="F" unicode="F" horiz-adv-x="1283" 
d="M1057 777v-185q0 -19 -14 -33.5t-34 -14.5h-572v-495q0 -20 -15 -34.5t-35 -14.5h-213q-20 0 -33.5 14t-13.5 35v1410q0 20 13.5 33.5t33.5 13.5h1029q20 0 34.5 -14.5t14.5 -34.5v-187q0 -20 -14.5 -34t-34.5 -14h-766v-400h572q20 0 34 -13t14 -32z" />
    <glyph glyph-name="G" unicode="G" horiz-adv-x="1685" 
d="M1347 50v164q-85 -120 -221 -181t-319 -61q-322 0 -538.5 223.5t-216.5 559.5q0 341 228 562.5t574 221.5q257 0 456.5 -123.5t279.5 -333.5q10 -22 2 -37t-34 -21l-215 -51q-20 -6 -35.5 1.5t-27.5 30.5q-62 119 -171.5 183t-252.5 64q-208 0 -343.5 -141.5
t-135.5 -359.5q0 -214 136 -353.5t348 -139.5q114 0 208 50t140 131h-187q-21 0 -35 14t-14 35v160q0 21 14 35t35 14h555q22 0 36 -13.5t14 -33.5v-600q0 -21 -14.5 -35.5t-35.5 -14.5h-180q-21 0 -35.5 14.5t-14.5 35.5z" />
    <glyph glyph-name="H" unicode="H" horiz-adv-x="1593" 
d="M390 0h-216q-20 0 -33.5 14t-13.5 35v1410q0 20 13.5 33.5t33.5 13.5h216q19 0 33 -14t14 -33v-564h719v564q0 20 13.5 33.5t33.5 13.5h215q20 0 34 -14t14 -33v-1410q0 -20 -14 -34.5t-34 -14.5h-215q-20 0 -33.5 14t-13.5 35v569h-719v-569q0 -20 -14 -34.5t-33 -14.5z
" />
    <glyph glyph-name="I" unicode="I" horiz-adv-x="562" 
d="M390 0h-216q-20 0 -33.5 14t-13.5 35v1410q0 20 13.5 33.5t33.5 13.5h216q19 0 33 -14t14 -33v-1410q0 -20 -14 -34.5t-33 -14.5z" />
    <glyph glyph-name="J" unicode="J" horiz-adv-x="1194" 
d="M536 -31q-129 0 -236 34t-190 102q-21 15 -23.5 38.5t18.5 47.5l119 135q15 17 33 18.5t53 -20.5q54 -37 106 -55t105 -18q116 0 179.5 71t63.5 200v936q0 20 14 34t35 14h214q20 0 33.5 -14t13.5 -34v-964q0 -238 -152 -381.5t-386 -143.5z" />
    <glyph glyph-name="K" unicode="K" horiz-adv-x="1420" 
d="M437 510v-461q0 -20 -15 -34.5t-35 -14.5h-213q-20 0 -33.5 14t-13.5 35v1410q0 20 13.5 33.5t33.5 13.5h213q20 0 35 -14t15 -33v-600l523 604q24 26 42 34.5t44 8.5h243q27 0 36 -21t-8 -43l-523 -581l605 -801q17 -21 8 -40.5t-30 -19.5h-262q-36 0 -54 8t-34 29
l-459 617z" />
    <glyph glyph-name="L" unicode="L" horiz-adv-x="1235" 
d="M1188 237v-188q0 -20 -14 -34.5t-33 -14.5h-967q-20 0 -33.5 13.5t-13.5 33.5v1410q0 21 13 35t34 14h213q20 0 35 -14.5t15 -34.5v-1173h704q20 0 33.5 -13.5t13.5 -33.5z" />
    <glyph glyph-name="M" unicode="M" horiz-adv-x="1874" 
d="M609 1463l331 -753l334 753q9 22 26 32.5t43 10.5h357q20 0 33.5 -13.5t13.5 -33.5v-1412q0 -21 -12.5 -34t-32.5 -13h-213q-21 0 -34 13t-13 34v1066l-349 -775q-11 -26 -26 -36.5t-45 -10.5h-172q-28 0 -43 10.5t-26 36.5l-348 775v-1066q0 -20 -13.5 -33.5
t-32.5 -13.5h-215q-20 0 -32.5 13t-12.5 34v1412q0 20 13.5 33.5t33.5 13.5h366q26 0 43 -10.5t26 -32.5z" />
    <glyph glyph-name="N" unicode="N" horiz-adv-x="1556" 
d="M1035 47l-598 986v-986q0 -20 -13.5 -33.5t-33.5 -13.5h-216q-21 0 -34 13t-13 34v1412q0 20 13.5 33.5t33.5 13.5h295q25 0 41.5 -9t27.5 -29l583 -969v960q0 19 13 33t30 14h218q18 0 33.5 -14.5t15.5 -32.5v-1412q0 -19 -15 -33t-34 -14h-250q-37 0 -60 11.5t-37 35.5
z" />
    <glyph glyph-name="O" unicode="O" horiz-adv-x="1698" 
d="M850 1539q335 0 565.5 -227t230.5 -557t-230.5 -556.5t-565.5 -226.5t-566.5 227t-231.5 556q0 330 231.5 557t566.5 227zM850 258q203 0 338 142.5t135 354.5q0 213 -134.5 355t-338.5 142q-205 0 -339 -141.5t-134 -355.5q0 -213 134 -355t339 -142z" />
    <glyph glyph-name="P" unicode="P" horiz-adv-x="1315" 
d="M437 506v-459q0 -19 -14 -33t-33 -14h-216q-20 0 -33.5 13.5t-13.5 33.5v1412q0 20 13.5 33.5t33.5 13.5h579q243 0 388.5 -139.5t145.5 -361.5q-2 -222 -147 -360.5t-387 -138.5h-316zM437 1235v-458h288q105 0 172 63.5t67 164.5q0 102 -67.5 166t-171.5 64h-288z" />
    <glyph glyph-name="Q" unicode="Q" horiz-adv-x="1718" 
d="M850 258q203 0 338 142.5t135 354.5q0 213 -134.5 355t-338.5 142q-205 0 -339 -141.5t-134 -355.5q0 -213 134 -355t339 -142zM1588 -19h-69q-90 0 -161 20.5t-128 62.5q-86 -45 -182 -68.5t-198 -23.5q-335 0 -566.5 227t-231.5 556q0 330 231.5 557t566.5 227
t565.5 -227t230.5 -557q0 -132 -41 -254t-120 -224q21 -6 43 -9t47 -3h48q38 0 56.5 -17.5t18.5 -53.5v-116q0 -50 -27 -73.5t-83 -23.5z" />
    <glyph glyph-name="R" unicode="R" horiz-adv-x="1446" 
d="M437 818h327q104 0 169.5 59t65.5 154q0 92 -64 148t-167 56h-331v-417zM437 566v-517q0 -20 -14 -34.5t-33 -14.5h-216q-20 0 -33.5 13.5t-13.5 33.5v1412q0 21 12.5 34t34.5 13h627q232 0 377 -128.5t145 -329.5q0 -147 -83 -265t-230 -167l415 -543q17 -22 4.5 -47.5
t-43.5 -25.5h-228q-33 0 -56 11.5t-41 37.5l-379 517h-245z" />
    <glyph glyph-name="S" unicode="S" horiz-adv-x="1317" 
d="M77 1080q0 200 164 329.5t418 129.5q158 0 296 -48t226 -131q32 -31 34.5 -61t-23.5 -55l-101 -103q-25 -25 -55 -25.5t-63 25.5q-86 64 -165.5 94t-162.5 30q-106 0 -170 -44t-64 -119q0 -54 39.5 -90.5t121.5 -58.5l289 -75q207 -53 308 -160t101 -273
q0 -205 -165.5 -339t-441.5 -134q-186 0 -340 59t-250 163q-30 30 -31.5 66.5t29.5 60.5l131 101q27 20 52 17t54 -32q85 -83 176.5 -121.5t198.5 -38.5q112 0 180.5 48t68.5 120q0 62 -38.5 102.5t-116.5 61.5l-329 88q-181 48 -276 153.5t-95 259.5z" />
    <glyph glyph-name="T" unicode="T" horiz-adv-x="1332" 
d="M24 1270v187q0 21 13 35t34 14h1190q21 0 34 -14t13 -35v-187q0 -21 -13 -34.5t-34 -13.5h-435v-1173q0 -20 -14.5 -34.5t-34.5 -14.5h-224q-19 0 -33 14.5t-14 34.5v1173h-435q-21 0 -34 13.5t-13 34.5z" />
    <glyph glyph-name="U" unicode="U" horiz-adv-x="1491" 
d="M1375 1458v-917q0 -266 -173 -419t-457 -153q-283 0 -456 152t-173 418v919q0 20 14 34t34 14h213q21 0 35 -14t14 -34v-897q0 -146 84.5 -228t234.5 -82t235 82.5t85 227.5v897q0 20 14.5 34t35.5 14h213q19 0 33 -14t14 -34z" />
    <glyph glyph-name="V" unicode="V" horiz-adv-x="1463" 
d="M845 0h-224q-20 0 -36.5 12.5t-26.5 34.5l-535 1386q-14 31 -1 52t44 21h247q19 0 31 -10.5t19 -32.5l380 -1073l379 1073q7 21 19 32t29 11h234q29 0 40 -19.5t-1 -51.5l-536 -1388q-8 -22 -25 -34.5t-37 -12.5z" />
    <glyph glyph-name="W" unicode="W" horiz-adv-x="2184" 
d="M1092 692l-230 -645q-7 -22 -24.5 -34.5t-38.5 -12.5h-223q-20 0 -37 12.5t-24 34.5l-495 1386q-11 32 1.5 52.5t41.5 20.5h248q19 0 30.5 -10t18.5 -33l341 -1073l243 716l-117 327q-11 32 1.5 52.5t41.5 20.5h250q18 0 29.5 -10t17.5 -33l339 -1069l335 1069
q7 22 19.5 32.5t29.5 10.5h235q28 0 39 -19.5t0 -51.5l-495 -1388q-7 -22 -24.5 -34.5t-38.5 -12.5h-223q-20 0 -37 12.5t-24 34.5z" />
    <glyph glyph-name="X" unicode="X" horiz-adv-x="1410" 
d="M300 0h-252q-31 0 -40 21.5t6 45.5l501 721l-441 652q-16 22 -3.5 44t40.5 22h258q20 0 33 -7t29 -29l291 -431l282 431q15 22 28.5 29t33.5 7h248q28 0 37 -20t-5 -44l-445 -646l497 -729q15 -24 5 -45.5t-40 -21.5h-262q-21 0 -35 8t-30 33l-338 499l-329 -501
q-12 -21 -28 -30t-41 -9z" />
    <glyph glyph-name="Y" unicode="Y" horiz-adv-x="1399" 
d="M545 49v584l-522 802q-17 25 -6 48t38 23h269q18 0 31.5 -8.5t24.5 -25.5l323 -532h6l323 532q11 17 24 25.5t30 8.5h258q28 0 40 -22t-6 -49l-523 -802v-584q0 -20 -14 -34.5t-33 -14.5h-215q-21 0 -34.5 14t-13.5 35z" />
    <glyph glyph-name="Z" unicode="Z" horiz-adv-x="1315" 
d="M1235 0h-1149q-22 0 -35.5 14t-13.5 35v145q0 16 6 31.5t24 39.5l755 968h-691q-20 0 -33.5 13.5t-13.5 31.5v179q0 21 13 35t34 14h1053q19 0 33 -14.5t14 -34.5v-164q0 -15 -6.5 -32t-17.5 -32l-736 -956h764q19 0 32 -13t13 -32v-179q0 -20 -13.5 -34.5t-31.5 -14.5z
" />
    <glyph glyph-name="bracketleft" unicode="[" horiz-adv-x="742" 
d="M706 1581v-129q0 -20 -13.5 -33t-33.5 -13h-239v-1413h239q20 0 33.5 -13t13.5 -31v-129q0 -19 -13.5 -33t-33.5 -14h-476q-19 0 -33 13t-14 32v1765q0 19 14 32t33 13h476q20 0 33.5 -13.5t13.5 -33.5z" />
    <glyph glyph-name="backslash" unicode="\" horiz-adv-x="1001" 
d="M266 1472l684 -1405q12 -27 1.5 -47t-38.5 -20h-122q-24 0 -38 8t-25 29l-673 1405q-14 26 -4 45t40 19h121q21 0 32.5 -7.5t21.5 -26.5z" />
    <glyph glyph-name="bracketright" unicode="]" horiz-adv-x="742" 
d="M37 1452v129q0 20 13.5 33.5t33.5 13.5h476q18 0 32.5 -13.5t14.5 -31.5v-1765q0 -18 -14.5 -31.5t-32.5 -13.5h-476q-20 0 -33.5 13.5t-13.5 33.5v129q0 19 13.5 31.5t33.5 12.5h239v1413h-239q-21 0 -34 13t-13 33z" />
    <glyph glyph-name="asciicircum" unicode="^" horiz-adv-x="1238" 
d="M342 452h-222q-32 0 -44 19.5t1 49.5l360 938q8 23 23.5 35t36.5 12h250q21 0 36 -12t22 -35l357 -938q13 -30 0.5 -49.5t-45.5 -19.5h-220q-25 0 -41.5 11.5t-22.5 33.5l-211 631l-215 -631q-10 -24 -26 -34.5t-39 -10.5z" />
    <glyph glyph-name="underscore" unicode="_" horiz-adv-x="712" 
d="M656 -378h-598q-21 0 -35 14t-14 35v173q0 19 14.5 33t34.5 14h598q19 0 33.5 -14t14.5 -33v-173q0 -20 -14 -34.5t-34 -14.5z" />
    <glyph glyph-name="grave" unicode="`" horiz-adv-x="585" 
d="M98 1577h254q21 0 36 -10.5t20 -28.5l88 -329q7 -31 -7.5 -49t-46.5 -18h-135q-19 0 -31.5 8t-24.5 29l-196 329q-14 25 -1 47t44 22z" />
    <glyph glyph-name="a" unicode="a" 
d="M613 796q-112 0 -188 -79.5t-76 -195.5t76.5 -196t187.5 -80q112 0 188.5 80t76.5 196t-76.5 195.5t-188.5 79.5zM570 -30q-218 0 -370.5 158t-152.5 397q0 237 152.5 393t372.5 156q102 0 185 -40.5t121 -108.5v72q0 19 13.5 33t31.5 14h207q18 0 31.5 -14t13.5 -33
v-952q0 -19 -13.5 -32t-31.5 -13h-207q-19 0 -32 13t-13 32v71q-41 -67 -124 -106.5t-184 -39.5z" />
    <glyph glyph-name="b" unicode="b" 
d="M706 1074q217 0 366.5 -156t149.5 -393q0 -240 -150.5 -397.5t-369.5 -157.5q-98 0 -180.5 38.5t-129.5 105.5v-69q0 -19 -13 -32t-33 -13h-204q-19 0 -32 13t-13 32v1415q0 20 13 33t32 13h207q18 0 31.5 -13.5t13.5 -32.5v-528q43 65 127 103.5t185 38.5zM656 245
q112 0 188.5 80t76.5 196t-76.5 195.5t-188.5 79.5t-188 -79.5t-76 -195.5t76.5 -196t187.5 -80z" />
    <glyph glyph-name="c" unicode="c" horiz-adv-x="1123" 
d="M609 -30q-240 0 -401 158t-161 393q0 234 162.5 393.5t399.5 159.5q156 0 283 -68.5t193 -187.5q13 -21 5.5 -45t-31.5 -37l-125 -77q-27 -16 -50.5 -12t-42.5 29q-54 65 -107.5 92.5t-122.5 27.5q-113 0 -187.5 -79t-74.5 -196t74.5 -195t187.5 -78q69 0 122.5 27.5
t107.5 92.5q19 25 42.5 29t50.5 -12l125 -77q24 -13 31.5 -37t-5.5 -45q-66 -119 -193 -187.5t-283 -68.5z" />
    <glyph glyph-name="d" unicode="d" 
d="M613 796q-112 0 -188 -79.5t-76 -195.5t76.5 -196t187.5 -80q112 0 188.5 80t76.5 196t-76.5 195.5t-188.5 79.5zM570 -30q-219 0 -371 158t-152 397q0 236 151 392.5t366 156.5q103 0 187.5 -39t124.5 -103v528q0 19 13.5 32.5t31.5 13.5h207q19 0 33 -13.5t14 -32.5
v-1415q0 -19 -14 -32t-33 -13h-205q-19 0 -32 13t-13 32v71q-47 -69 -128 -107.5t-180 -38.5z" />
    <glyph glyph-name="e" unicode="e" horiz-adv-x="1171" 
d="M359 635h478q-17 92 -82.5 147t-154.5 55q-88 0 -154 -55.5t-87 -146.5zM1067 168q-73 -93 -194.5 -145.5t-267.5 -52.5q-241 0 -399.5 156t-158.5 391q0 238 156 397.5t393 159.5q231 0 381.5 -151t150.5 -370v-67q0 -26 -12.5 -39.5t-37.5 -13.5h-722q17 -97 88.5 -155
t166.5 -58q69 0 126 24.5t111 78.5q17 17 38 20t39 -9l132 -93q16 -12 19 -34t-9 -39z" />
    <glyph glyph-name="f" unicode="f" horiz-adv-x="766" 
d="M69 1044h140v122q0 172 99 271.5t258 99.5q58 0 107 -8.5t89 -26.5q29 -14 37.5 -31.5t1.5 -45.5l-39 -138q-7 -26 -25.5 -35.5t-43.5 -1.5q-35 10 -53.5 14t-34.5 4q-46 0 -72.5 -29t-26.5 -77v-118h202q19 0 33 -14t14 -34v-155q0 -18 -14.5 -32.5t-32.5 -14.5h-202
v-747q0 -19 -13 -33t-30 -14h-209q-18 0 -31.5 14t-13.5 33v747h-140q-19 0 -33 14t-14 33v155q0 20 14 34t33 14z" />
    <glyph glyph-name="g" unicode="g" horiz-adv-x="1272" 
d="M613 801q-112 0 -187 -78t-75 -193q0 -117 75 -195.5t187 -78.5q113 0 189 78.5t76 195.5q0 115 -76.5 193t-188.5 78zM334 -101q66 -73 134 -105.5t147 -32.5q118 0 191.5 72.5t73.5 185.5v108q-39 -61 -121 -98t-182 -37q-229 0 -378.5 150.5t-149.5 389.5
q0 238 148 391t367 153q103 0 189.5 -41t126.5 -107v71q0 19 13 32t32 13h205q19 0 32 -13t13 -32v-1003q0 -215 -157.5 -354t-402.5 -139q-163 0 -301 62.5t-206 157.5q-11 16 -9 36t19 32l157 110q16 11 32.5 10.5t26.5 -12.5z" />
    <glyph glyph-name="h" unicode="h" horiz-adv-x="1252" 
d="M872 41v514q0 114 -64 181t-173 67q-107 0 -174 -68.5t-67 -179.5v-514q0 -17 -14.5 -29t-33.5 -12h-206q-18 0 -30.5 13t-12.5 32v1416q0 19 12.5 32t30.5 13h206q19 0 33.5 -12t14.5 -29v-546q53 74 140.5 114.5t197.5 40.5q200 0 318.5 -125t118.5 -329v-579
q0 -17 -14.5 -29t-33.5 -12h-201q-19 0 -33.5 12t-14.5 29z" />
    <glyph glyph-name="i" unicode="i" horiz-adv-x="491" 
d="M426 1326q0 -73 -53.5 -127t-127.5 -54t-127 53.5t-53 127.5t53 127t127 53t127.5 -53t53.5 -127zM349 0h-207q-19 0 -32 14t-13 33v949q0 21 12.5 34.5t32.5 13.5h207q19 0 32 -13.5t13 -34.5v-949q0 -19 -13.5 -33t-31.5 -14z" />
    <glyph glyph-name="j" unicode="j" horiz-adv-x="491" 
d="M426 1326q0 -73 -53.5 -127t-127.5 -54t-127 53.5t-53 127.5t53 127t127 53t127.5 -53t53.5 -127zM97 -85v1082q0 19 12.5 33t30.5 14h209q18 0 31.5 -14.5t13.5 -32.5v-1108q0 -170 -99.5 -269t-257.5 -99q-64 0 -125 12t-99 31q-31 16 -40.5 35t-0.5 47l47 133
q9 25 26 34t43 1q34 -12 61 -18t45 -6q48 0 75.5 33t27.5 92z" />
    <glyph glyph-name="k" unicode="k" horiz-adv-x="1089" 
d="M394 510v-465q0 -19 -13 -32t-32 -13h-207q-19 0 -32 13t-13 32v1416q0 20 13 32.5t32 12.5h207q19 0 32 -13t13 -32v-856l301 404q12 18 27 26.5t33 8.5h218q32 0 41 -23t-11 -48l-312 -403l385 -497q19 -25 7.5 -49t-44.5 -24h-226q-18 0 -34 8t-30 26z" />
    <glyph glyph-name="l" unicode="l" horiz-adv-x="486" 
d="M392 1461v-1414q0 -19 -13.5 -33t-32.5 -14h-206q-19 0 -32 14t-13 33v1414q0 19 13 32t32 13h206q19 0 32.5 -13.5t13.5 -31.5z" />
    <glyph glyph-name="m" unicode="m" horiz-adv-x="1911" 
d="M609 803q-98 0 -156.5 -63.5t-58.5 -167.5v-531q0 -17 -14.5 -29t-33.5 -12h-206q-18 0 -30.5 13t-12.5 32v951q0 21 12.5 34.5t30.5 13.5h202q18 0 33 -13t15 -30v-82q47 69 134.5 112t185.5 43q111 0 195 -46.5t128 -132.5q65 87 158 133t206 46q196 0 312 -121.5
t116 -313.5v-598q0 -17 -13.5 -29t-31.5 -12h-207q-19 0 -32 12t-13 29v531q0 106 -54.5 168.5t-150.5 62.5q-97 0 -155 -63.5t-58 -167.5v-531q0 -17 -14 -29t-33 -12h-202q-18 0 -33 12t-15 29v531q0 107 -54 169t-150 62z" />
    <glyph glyph-name="n" unicode="n" horiz-adv-x="1252" 
d="M635 803q-107 0 -174 -68.5t-67 -179.5v-514q0 -17 -14.5 -29t-33.5 -12h-206q-18 0 -30.5 13t-12.5 32v951q0 21 12.5 34.5t30.5 13.5h206q18 0 33 -13t15 -30v-82q53 74 140.5 114.5t197.5 40.5q200 0 318.5 -125t118.5 -329v-579q0 -17 -14.5 -29t-33.5 -12h-201
q-19 0 -33.5 12t-14.5 29v514q0 114 -64 181t-173 67z" />
    <glyph glyph-name="o" unicode="o" horiz-adv-x="1220" 
d="M611 -30q-237 0 -401.5 159.5t-164.5 389.5q0 233 164.5 394t401.5 161q235 0 399.5 -161t164.5 -394q0 -230 -164.5 -389.5t-399.5 -159.5zM611 796q-113 0 -189 -79.5t-76 -195.5t76 -194.5t189 -78.5q112 0 187.5 78.5t75.5 194.5t-75.5 195.5t-187.5 79.5z" />
    <glyph glyph-name="p" unicode="p" 
d="M659 796q-112 0 -189.5 -80t-77.5 -195q0 -116 77.5 -196t189.5 -80q111 0 186.5 80t75.5 196t-75.5 195.5t-186.5 79.5zM390 996v-69q49 68 133 107.5t185 39.5q217 0 365.5 -155.5t148.5 -393.5q0 -241 -149 -398t-369 -157q-99 0 -184 36.5t-126 98.5v-485
q0 -19 -13 -32t-32 -13h-209q-18 0 -30.5 13t-12.5 32v1376q0 21 12.5 34.5t30.5 13.5h206q19 0 31.5 -14t12.5 -34z" />
    <glyph glyph-name="q" unicode="q" 
d="M570 -30q-218 0 -370.5 158t-152.5 397q0 236 152.5 392.5t368.5 156.5q102 0 186 -39t124 -103v64q0 20 13.5 34t31.5 14h207q18 0 31.5 -14t13.5 -34v-1376q0 -19 -13.5 -32t-31.5 -13h-209q-19 0 -32 13t-13 32v496q-46 -68 -126.5 -107t-179.5 -39zM613 796
q-111 0 -187.5 -80t-76.5 -195q0 -116 76.5 -196t187.5 -80q112 0 188.5 80t76.5 196q0 115 -76.5 195t-188.5 80z" />
    <glyph glyph-name="r" unicode="r" horiz-adv-x="745" 
d="M635 1057q45 0 68.5 -21t19.5 -59l-21 -202q-3 -27 -17.5 -41.5t-36.5 -14.5q-7 0 -16 2t-29 8q-29 10 -46 13t-32 3q-60 0 -95.5 -42.5t-35.5 -115.5v-546q0 -17 -14.5 -29t-33.5 -12h-206q-18 0 -30.5 13t-12.5 32v951q0 21 12.5 34.5t30.5 13.5h183q19 0 34 -13
t17 -30l9 -95q45 73 110.5 112t141.5 39z" />
    <glyph glyph-name="s" unicode="s" horiz-adv-x="1016" 
d="M65 733q0 150 123.5 245.5t321.5 95.5q123 0 232 -35.5t181 -95.5q22 -20 22.5 -44.5t-20.5 -48.5l-73 -77q-20 -26 -43 -29t-54 16q-60 39 -124 60.5t-122 21.5q-62 0 -103.5 -24t-41.5 -59q0 -36 28 -56.5t93 -33.5l171 -34q163 -32 241 -109t78 -204
q0 -157 -126.5 -254.5t-332.5 -97.5q-118 0 -222 30.5t-184 87.5q-59 44 -69 84t30 71l86 69q25 21 48.5 20.5t52.5 -26.5q65 -55 127.5 -79.5t130.5 -24.5q71 0 112 25.5t41 67.5q0 37 -27.5 56.5t-110.5 36.5l-185 38q-133 27 -207 107t-74 200z" />
    <glyph glyph-name="t" unicode="t" horiz-adv-x="874" 
d="M697 288q28 17 50.5 14t35.5 -25l71 -110q14 -20 12.5 -40t-18.5 -35q-51 -52 -132.5 -82t-173.5 -30q-158 0 -253 87.5t-95 243.5v485h-104q-18 0 -31.5 14t-13.5 33v56q0 29 8.5 51t30.5 48l209 258q19 23 36.5 32t42.5 9h73q20 0 33 -13t13 -32v-207h286
q19 0 33 -13.5t14 -33.5v-155q0 -19 -14 -33t-33 -14h-286v-442q0 -49 26 -78t66 -29q25 0 46 6t68 35z" />
    <glyph glyph-name="u" unicode="u" horiz-adv-x="1136" 
d="M568 228q89 0 141.5 54.5t52.5 143.5v575q0 17 14.5 30t32.5 13h205q18 0 32.5 -13t14.5 -30v-590q0 -197 -133.5 -319t-359.5 -122t-359.5 122t-133.5 319v590q0 17 14 30t32 13h206q18 0 31.5 -13t13.5 -30v-575q0 -87 53.5 -142.5t142.5 -55.5z" />
    <glyph glyph-name="v" unicode="v" horiz-adv-x="1119" 
d="M667 0h-213q-21 0 -35.5 11.5t-24.5 35.5l-370 926q-10 28 2 49.5t39 21.5h230q19 0 33 -11t23 -34l221 -601l203 601q7 21 22 33t36 12h221q26 0 38.5 -22t2.5 -49l-370 -926q-9 -24 -23.5 -35.5t-34.5 -11.5z" />
    <glyph glyph-name="w" unicode="w" horiz-adv-x="1793" 
d="M896 474l-171 -427q-9 -23 -24 -35t-34 -12h-213q-21 0 -35.5 11.5t-24.5 35.5l-370 926q-11 27 3 49t42 22h224q20 0 34 -11t22 -34l226 -609l178 442l-56 141q-10 27 4 49t41 22h222q21 0 36 -11.5t22 -33.5l220 -609l208 609q9 24 24 34.5t37 10.5h215q27 0 40 -22
t3 -49l-370 -926q-9 -24 -23.5 -35.5t-34.5 -11.5h-213q-21 0 -36.5 12t-24.5 35z" />
    <glyph glyph-name="x" unicode="x" horiz-adv-x="1110" 
d="M540 316l-187 -279q-14 -20 -29 -28.5t-38 -8.5h-234q-25 0 -35 19.5t5 40.5l337 474l-322 449q-15 20 -5.5 40.5t35.5 20.5h251q21 0 37 -9t30 -30l178 -251l167 251q13 21 28 30t38 9h228q25 0 34 -20t-6 -41l-312 -436l349 -487q15 -21 4.5 -40.5t-36.5 -19.5h-254
q-20 0 -36 9t-31 28z" />
    <glyph glyph-name="y" unicode="y" horiz-adv-x="1128" 
d="M321 -499q-94 0 -175 27.5t-137 77.5q-15 17 -16 39t13 43l74 106q16 24 40.5 27t51.5 -14q40 -26 71 -37t63 -11q49 0 85 27.5t52 78.5l46 135h-87q-20 0 -34 11.5t-22 33.5l-316 928q-10 34 2 52.5t45 18.5h244q18 0 30.5 -12.5t18.5 -34.5l213 -688l196 688
q6 21 20.5 34t35.5 13h228q29 0 40 -19.5t1 -51.5l-372 -1151q-50 -153 -157 -237t-254 -84z" />
    <glyph glyph-name="z" unicode="z" horiz-adv-x="1024" 
d="M955 859q0 -19 -4.5 -31.5t-16.5 -24.5l-484 -547h484q20 0 32.5 -12.5t12.5 -32.5v-166q0 -19 -12.5 -32t-32.5 -13h-839q-18 0 -33 14.5t-15 32.5v138q0 17 5.5 30t18.5 26l489 547h-444q-18 0 -31.5 13.5t-13.5 31.5v163q0 19 13.5 33.5t31.5 14.5h792q19 0 33 -14
t14 -34v-137z" />
    <glyph glyph-name="braceleft" unicode="{" horiz-adv-x="768" 
d="M506 487v-389q0 -56 18.5 -78.5t62.5 -22.5h89q20 0 33.5 -13.5t13.5 -34.5v-127q0 -20 -13.5 -33.5t-33.5 -13.5h-194q-139 0 -209.5 70t-70.5 208v471q0 44 -16.5 62t-58.5 18h-28q-22 0 -36 14.5t-14 40.5v110q0 27 13 41.5t37 14.5h28q42 0 58.5 18t16.5 62v445
q0 138 70.5 208t209.5 70h194q19 0 33 -14t14 -33v-130q0 -19 -14 -33t-33 -14h-89q-45 0 -63 -22.5t-18 -78.5v-359q0 -86 -39.5 -144t-126.5 -87q23 0 61.5 -22.5t63.5 -57.5q20 -29 30.5 -66t10.5 -80z" />
    <glyph glyph-name="bar" unicode="|" horiz-adv-x="467" 
d="M284 -257h-101q-19 0 -33 14t-14 33v1952q0 19 13.5 32t33.5 13h101q20 0 32.5 -12.5t12.5 -32.5v-1952q0 -19 -13 -33t-32 -14z" />
    <glyph glyph-name="braceright" unicode="}" horiz-adv-x="770" 
d="M265 98v389q0 43 10 79.5t30 65.5q25 36 63.5 58.5t61.5 22.5q-86 29 -125.5 87t-39.5 144v359q0 56 -18.5 78.5t-63.5 22.5h-88q-19 0 -33.5 14t-14.5 33v130q0 19 14.5 33t33.5 14h193q139 0 209.5 -70t70.5 -208v-445q0 -44 16.5 -62t58.5 -18h28q24 0 37 -14.5
t13 -41.5v-110q0 -26 -13.5 -40.5t-36.5 -14.5h-28q-41 0 -58 -18.5t-17 -61.5v-471q0 -138 -70.5 -208t-209.5 -70h-193q-20 0 -34 13.5t-14 33.5v127q0 20 14 34t34 14h88q45 0 63.5 23t18.5 78z" />
    <glyph glyph-name="asciitilde" unicode="~" horiz-adv-x="1268" 
d="M1198 720q-7 -50 -88 -108t-166 -58q-35 -1 -106 7.5t-240 34.5q-118 18 -161 23.5t-61 5.5q-28 0 -50 -8t-52 -33q-19 -16 -29.5 -22t-21.5 -8q-14 -4 -27 2t-29 24l-71 99q-13 14 -19.5 30.5t-6.5 34.5q8 50 92.5 108.5t168.5 58.5q31 0 96 -7.5t224 -31.5
q131 -20 179 -26t69 -6q28 0 50.5 8t54.5 32q20 16 30.5 21.5t21.5 7.5q15 5 28.5 -0.5t27.5 -22.5l62 -99q14 -18 19.5 -34t4.5 -33z" />
    <glyph glyph-name="uni00A0" unicode="&#xa0;" horiz-adv-x="585" 
 />
    <glyph glyph-name="exclamdown" unicode="&#xa1;" horiz-adv-x="566" 
d="M82 857q0 83 59 142t141 59q84 0 143 -59t59 -142q0 -84 -59 -143t-143 -59q-83 0 -141.5 59t-58.5 143zM437 466l4 -900q0 -17 -15 -31t-34 -14h-218q-20 0 -34.5 13.5t-14.5 31.5l6 900q0 20 13 33.5t32 13.5h211q21 0 35.5 -13.5t14.5 -33.5z" />
    <glyph glyph-name="cent" unicode="&#xa2;" horiz-adv-x="1166" 
d="M734 417v-168q0 -19 -13.5 -33t-31.5 -14h-140q-20 0 -34 14t-14 33v175q-192 40 -312 189t-120 349t119.5 348.5t312.5 189.5v176q0 18 13.5 30.5t34.5 12.5h140q19 0 32 -12.5t13 -30.5v-170q118 -20 213 -81t153 -153q12 -22 4.5 -46t-28.5 -36l-127 -95
q-21 -15 -43 -10.5t-43 27.5q-44 63 -101 94t-129 31q-113 0 -188 -79t-75 -196t74.5 -195.5t188.5 -78.5q71 0 128 30.5t102 92.5q21 23 43 27.5t43 -10.5l127 -90q22 -17 29 -40t-5 -44q-58 -92 -153 -154t-213 -83z" />
    <glyph glyph-name="sterling" unicode="&#xa3;" horiz-adv-x="1356" 
d="M1261 245v-196q0 -21 -14 -35t-35 -14h-1079q-19 0 -34 14.5t-15 34.5v196q0 19 15 33.5t34 14.5h130v284h-130q-19 0 -34 13.5t-15 31.5v161q0 19 15 33.5t34 14.5h130v202q0 222 148 364t377 142q164 0 293.5 -65t207.5 -185q12 -19 5 -37t-33 -36l-125 -95
q-26 -19 -53 -16.5t-44 22.5q-54 66 -115.5 100t-125.5 34q-106 0 -166 -64t-60 -177v-189h338q21 0 35.5 -14t14.5 -34v-161q0 -18 -14.5 -31.5t-35.5 -13.5h-338v-284h640q21 0 35 -14t14 -34z" />
    <glyph glyph-name="currency" unicode="&#xa4;" horiz-adv-x="1644" 
d="M822 1199q-195 0 -321.5 -130.5t-126.5 -325.5q0 -197 126 -326.5t322 -129.5t322 129.5t126 326.5q0 195 -126.5 325.5t-321.5 130.5zM822 52q-111 0 -215.5 32t-195.5 93l-153 -153q-14 -14 -34 -14t-35 14l-81 82q-16 14 -16 32.5t16 34.5l148 146
q-71 91 -108.5 199.5t-37.5 224.5q0 115 37.5 223.5t108.5 200.5l-148 148q-16 16 -16 34t16 33l81 82q15 14 35 14t34 -14l153 -155q92 62 196 94.5t215 32.5t216.5 -32.5t194.5 -94.5l155 155q14 14 34 13.5t33 -13.5l84 -82q14 -14 13.5 -32.5t-15.5 -34.5l-151 -150
q72 -91 110 -199.5t38 -222.5q-1 -117 -39 -225t-109 -197l151 -148q15 -15 15.5 -35t-13.5 -32l-84 -82q-13 -13 -33 -13.5t-34 13.5l-155 153q-89 -61 -194 -93t-217 -32z" />
    <glyph glyph-name="yen" unicode="&#xa5;" horiz-adv-x="1470" 
d="M890 346v-297q0 -20 -13.5 -34.5t-31.5 -14.5h-218q-19 0 -33 14.5t-14 34.5v297h-347q-20 0 -33.5 14t-13.5 36v116q0 22 13.5 36t33.5 14h347v10l-75 125h-272q-20 0 -33.5 14t-13.5 34v118q0 20 13.5 33.5t33.5 13.5h142l-318 525q-16 25 -5 48t37 23h269
q18 0 31.5 -8.5t24.5 -25.5l325 -553h7l320 553q11 17 24.5 25.5t31.5 8.5h258q28 0 40 -22t-5 -49l-321 -525h140q20 0 33.5 -13.5t13.5 -33.5v-118q0 -20 -14 -34t-33 -14h-267l-77 -125v-10h344q20 0 33.5 -14.5t13.5 -35.5v-116q0 -21 -13.5 -35.5t-33.5 -14.5h-344z
" />
    <glyph glyph-name="brokenbar" unicode="&#xa6;" horiz-adv-x="465" 
d="M329 1742v-762q0 -18 -13.5 -31.5t-31.5 -13.5h-103q-19 0 -33.5 13.5t-14.5 31.5v762q0 19 14.5 32t33.5 13h103q19 0 32 -13t13 -32zM329 552v-762q0 -19 -13.5 -33t-31.5 -14h-103q-18 0 -33 14.5t-15 32.5v762q0 19 14.5 32t33.5 13h103q19 0 32 -13t13 -32z" />
    <glyph glyph-name="section" unicode="&#xa7;" horiz-adv-x="1663" 
d="M663 500l318 -145q56 -24 104.5 -55.5t87.5 -68.5q52 25 81 68.5t29 94.5q0 76 -60 135t-222 132l-319 144q-61 28 -108 59t-85 66q-51 -26 -79.5 -69.5t-28.5 -94.5q0 -74 59.5 -133t222.5 -133zM1311 -92q-2 -194 -152 -322t-380 -128q-147 0 -283 60t-210 151
q-25 34 -25.5 63t23.5 47l123 105q22 19 50 16.5t49 -25.5q60 -67 129 -101t146 -34q86 0 142 45t56 112q0 71 -47.5 122t-158.5 100l-386 172q-160 71 -244.5 184.5t-84.5 258.5q0 134 80 247t224 175q-6 24 -8.5 48t-2.5 49q2 194 152.5 322t380.5 128q146 0 282 -59.5
t209 -149.5q27 -34 28 -63t-24 -49l-122 -106q-24 -18 -51.5 -15.5t-47.5 24.5q-65 70 -132.5 104t-141.5 34q-87 0 -144.5 -46.5t-57.5 -112.5q0 -68 49 -120t161 -102l384 -172q161 -72 245 -184.5t84 -256.5q0 -134 -80 -248.5t-223 -175.5q7 -52 8 -67.5t1 -29.5z" />
    <glyph glyph-name="dieresis" unicode="&#xa8;" horiz-adv-x="945" 
d="M241 1138q-76 0 -130.5 54.5t-54.5 130.5q0 77 54.5 132t130.5 55q77 0 132 -55t55 -132q0 -76 -55 -130.5t-132 -54.5zM702 1138q-77 0 -132.5 54.5t-55.5 130.5q0 77 55.5 132t132.5 55q76 0 130.5 -55t54.5 -132q0 -76 -54.5 -130.5t-130.5 -54.5z" />
    <glyph glyph-name="copyright" unicode="&#xa9;" horiz-adv-x="1967" 
d="M340 115q-130 125 -199.5 289.5t-69.5 346.5t69.5 346.5t199.5 289.5q128 122 294.5 187.5t350.5 65.5t350 -65.5t293 -188.5q129 -124 198.5 -288.5t69.5 -346.5t-69.5 -346.5t-198.5 -288.5q-127 -123 -293 -188.5t-350 -65.5t-350.5 65.5t-294.5 187.5zM985 19
q310 0 521 211t211 521t-211 522t-521 212q-311 0 -523.5 -212t-212.5 -522q0 -309 212 -520.5t524 -211.5zM983 221q-232 0 -388 153t-156 379q0 227 156.5 380.5t387.5 153.5q149 0 270.5 -66t188.5 -180q11 -20 3 -42.5t-29 -36.5l-129 -82q-25 -15 -49 -11t-42 26
q-54 65 -101 89.5t-108 24.5q-106 0 -175.5 -73t-69.5 -183q0 -109 69 -181.5t176 -72.5q62 0 109.5 25t99.5 89q18 22 42 26t49 -11l129 -82q21 -14 29 -37t-3 -44q-67 -113 -189 -178.5t-270 -65.5z" />
    <glyph glyph-name="ordfeminine" unicode="&#xaa;" horiz-adv-x="1276" 
d="M615 1258q-112 0 -189 -80t-77 -195t77.5 -195.5t188.5 -80.5q112 0 188.5 80.5t76.5 195.5q0 116 -76.5 195.5t-188.5 79.5zM570 432q-218 0 -369.5 158t-151.5 397q0 237 152 393t371 156q102 0 185.5 -40t122.5 -106v71q0 18 13.5 31.5t31.5 13.5h207q18 0 30.5 -13
t12.5 -32v-954q0 -19 -12.5 -32t-30.5 -13h-207q-19 0 -32 13t-13 32v73q-40 -67 -124 -107.5t-186 -40.5z" />
    <glyph glyph-name="guillemotleft" unicode="&#xab;" horiz-adv-x="1201" 
d="M600 0h-206q-27 0 -42.5 9.5t-26.5 30.5l-254 445q-10 16 -10 36.5t10 36.5l254 446q10 20 27.5 30t41.5 10h206q21 0 31 -20t0 -42l-230 -461l230 -459q10 -23 0 -42.5t-31 -19.5zM1097 0h-208q-27 0 -42 9t-27 31l-252 445q-10 16 -10 36.5t10 36.5l252 446
q11 20 28 30t41 10h208q20 0 30 -20t-1 -42l-231 -461l231 -459q11 -22 1 -42t-30 -20z" />
    <glyph glyph-name="logicalnot" unicode="&#xac;" horiz-adv-x="1267" 
d="M1197 1096v-683q0 -21 -12.5 -34t-32.5 -13h-215q-20 0 -34 13.5t-14 33.5v439h-772q-20 0 -33.5 13.5t-13.5 34.5v196q0 21 13.5 35t33.5 14h1035q19 0 32 -14t13 -35z" />
    <glyph glyph-name="registered" unicode="&#xae;" horiz-adv-x="1939" 
d="M334 118q-127 124 -195 287.5t-68 345.5t68 345.5t195 287.5q125 124 290 190t347 66t346 -66.5t289 -189.5q127 -125 194.5 -288.5t67.5 -344.5t-67.5 -344.5t-194.5 -288.5q-125 -123 -289 -189.5t-346 -66.5t-347 66t-290 190zM971 19q305 0 512.5 211.5t207.5 520.5
q0 310 -207.5 522t-512.5 212q-307 0 -515.5 -212t-208.5 -522t208.5 -521t515.5 -211zM1145 929q0 65 -42.5 102.5t-114.5 37.5h-170v-282h170q71 2 114 40.5t43 101.5zM783 221h-176q-14 0 -24.5 10.5t-10.5 24.5v988q0 13 11 23.5t24 10.5h389q183 0 294 -98.5
t111 -252.5q0 -95 -53 -176t-145 -126l224 -348q14 -20 5 -36.5t-33 -16.5h-175q-22 0 -37.5 9t-30.5 31l-198 315h-140v-323q0 -14 -10.5 -24.5t-24.5 -10.5z" />
    <glyph glyph-name="macron" unicode="&#xaf;" horiz-adv-x="1076" 
d="M867 1162h-660q-20 0 -34 14t-14 33v151q0 20 13.5 33.5t34.5 13.5h660q21 0 35.5 -13.5t14.5 -33.5v-151q0 -19 -14.5 -33t-35.5 -14z" />
    <glyph glyph-name="degree" unicode="&#xb0;" horiz-adv-x="824" 
d="M768 1159q0 -144 -103.5 -245t-251.5 -101t-252.5 101t-104.5 245t104.5 245.5t252.5 101.5t251.5 -101t103.5 -246zM581 1159q0 74 -48.5 124.5t-119.5 50.5t-119.5 -50.5t-48.5 -124.5t48.5 -124t119.5 -50t119.5 50t48.5 124z" />
    <glyph glyph-name="plusminus" unicode="&#xb1;" horiz-adv-x="1269" 
d="M526 1506h213q21 0 34 -13t13 -34v-377h364q21 0 34.5 -14.5t13.5 -35.5v-195q0 -21 -13.5 -35.5t-34.5 -14.5h-364v-377q0 -21 -13.5 -35t-33.5 -14h-213q-20 0 -33.5 14t-13.5 35v377h-362q-20 0 -33.5 14t-13.5 36v195q0 22 13.5 36t33.5 14h362v377q0 21 13 34t34 13
zM1199 245v-196q0 -20 -14 -34.5t-34 -14.5h-1033q-20 0 -33.5 14t-13.5 35v196q0 20 13.5 34t33.5 14h1033q20 0 34 -14t14 -34z" />
    <glyph glyph-name="twosuperior" unicode="&#xb2;" horiz-adv-x="872" 
d="M755 594h-611q-12 0 -21 8.5t-9 19.5v101q0 7 1 14t4 13q3 7 8.5 15l5.5 8l257 217q104 91 137 139.5t33 95.5q0 52 -37.5 85t-94.5 33q-35 0 -63.5 -14.5t-43.5 -39.5q-11 -9 -19.5 -23t-19.5 -41q-8 -23 -22.5 -31.5t-39.5 -3.5l-104 24q-18 4 -24.5 15.5t-3.5 31.5
q22 117 118 191t233 74q142 0 235.5 -81t93.5 -208q0 -86 -54 -169.5t-176 -180.5l-136 -110h353q12 0 21 -9.5t9 -20.5v-123q0 -12 -8.5 -21t-21.5 -9z" />
    <glyph glyph-name="threesuperior" unicode="&#xb3;" horiz-adv-x="869" 
d="M783 875q0 -130 -102 -214.5t-257 -84.5q-113 0 -201 40.5t-130 110.5q-9 12 -6 26.5t18 24.5l87 67q14 10 27 8t28 -19q36 -41 81 -62.5t96 -21.5q68 0 111.5 33t43.5 84q0 52 -40.5 81.5t-112.5 29.5h-80q-12 0 -20 9.5t-8 23.5v88q0 24 4 36t14 22l172 170h-344
q-12 0 -20 8t-8 20v123q0 12 8 20t20 8h548q13 0 21.5 -8t8.5 -20v-117q0 -16 -4.5 -28.5t-14.5 -22.5l-177 -174q108 -15 172.5 -86t64.5 -175z" />
    <glyph glyph-name="acute" unicode="&#xb4;" horiz-adv-x="585" 
d="M242 1577h254q32 0 44 -22.5t-3 -46.5l-194 -329q-12 -20 -24.5 -28.5t-31.5 -8.5h-135q-32 0 -46.5 18t-7.5 49l86 329q4 18 20 28.5t38 10.5z" />
    <glyph glyph-name="mu" unicode="&#xb5;" horiz-adv-x="1302" 
d="M127 -293v1294q0 17 14.5 30t32.5 13h205q18 0 32.5 -13t14.5 -30v-538q0 -114 57.5 -176.5t164.5 -62.5q104 0 165 63.5t61 170.5v543q0 17 14 30t31 13h209q19 0 32 -13.5t13 -34.5v-951q0 -19 -13 -32t-32 -13h-209q-18 0 -31.5 12t-13.5 29v73q-47 -68 -123 -106
t-166 -38q-63 0 -117.5 18.5t-90.5 50.5v-332q0 -19 -13 -33t-30 -14h-160q-19 0 -33 14t-14 33z" />
    <glyph glyph-name="paragraph" unicode="&#xb6;" horiz-adv-x="1341" 
d="M56 1022q0 206 133 345t336 139h605q20 0 33.5 -13.5t13.5 -33.5v-1410q0 -20 -14 -34.5t-33 -14.5h-134q-21 0 -35 14t-14 35v1266h-202v-1268q0 -20 -14 -33.5t-34 -13.5h-135q-20 0 -34 13.5t-14 33.5v510h-8q-201 0 -325.5 131.5t-124.5 333.5z" />
    <glyph glyph-name="periodcentered" unicode="&#xb7;" horiz-adv-x="562" 
d="M489 766q0 -86 -61 -147.5t-146 -61.5q-86 0 -147.5 61.5t-61.5 147.5q0 85 61.5 145.5t147.5 60.5q85 0 146 -60.5t61 -145.5z" />
    <glyph glyph-name="cedilla" unicode="&#xb8;" horiz-adv-x="572" 
d="M102 -288l114 336l310 -41l-168 -336q-7 -17 -21 -24.5t-37 -5.5l-159 11q-26 2 -36.5 18t-2.5 42z" />
    <glyph glyph-name="onesuperior" unicode="&#xb9;" horiz-adv-x="585" 
d="M65 1261v101q0 17 7 25t23 8h32q47 0 77 19t50 60q9 17 20 24.5t32 7.5h79q14 0 23 -8t9 -20v-854q0 -13 -9.5 -21.5t-24.5 -8.5h-133q-13 0 -23 9t-10 21v605h-122q-12 0 -21 10t-9 22z" />
    <glyph glyph-name="ordmasculine" unicode="&#xba;" horiz-adv-x="1222" 
d="M611 432q-236 0 -400 159.5t-164 389.5q0 233 163.5 394t400.5 161t400.5 -161t163.5 -394q0 -230 -164 -389.5t-400 -159.5zM611 1258q-112 0 -188.5 -79.5t-76.5 -195.5q0 -114 77 -193.5t188 -79.5q112 0 188.5 79t76.5 194q0 116 -76.5 195.5t-188.5 79.5z" />
    <glyph glyph-name="guillemotright" unicode="&#xbb;" horiz-adv-x="1199" 
d="M1131 485l-255 -445q-11 -21 -27 -30.5t-43 -9.5h-206q-19 0 -29.5 20t-0.5 42l230 459l-230 461q-11 21 0 41.5t30 20.5h206q25 0 42 -10t28 -30l255 -446q8 -16 8 -36.5t-8 -36.5zM633 485l-252 -445q-12 -21 -27.5 -30.5t-41.5 -9.5h-206q-21 0 -31 19.5t0 42.5
l229 459l-229 461q-11 22 -0.5 42t31.5 20h206q24 0 41 -10t28 -30l252 -446q11 -16 11 -36.5t-11 -36.5z" />
    <glyph glyph-name="questiondown" unicode="&#xbf;" horiz-adv-x="1054" 
d="M314 858q0 82 59 141t141 59q84 0 143.5 -59t59.5 -141q0 -84 -59.5 -143.5t-143.5 -59.5q-82 0 -141 59.5t-59 143.5zM983 -294q-65 -99 -183.5 -157t-263.5 -58q-210 0 -338.5 114.5t-128.5 287.5q0 86 36.5 169.5t145.5 213.5q71 85 92 124.5t21 73.5v13q0 21 13 33.5
t32 12.5h209q18 0 31.5 -14.5t13.5 -33.5v-49q0 -56 -28 -115t-118 -167q-79 -96 -103 -144t-24 -91q0 -65 47.5 -107.5t124.5 -42.5q60 0 113 31t100 93q19 25 46 28t53 -17l103 -79q30 -25 31 -54t-25 -65z" />
    <glyph glyph-name="Agrave" unicode="&#xc0;" horiz-adv-x="1470" 
d="M546 603h364l-181 508zM452 340l-107 -297q-7 -22 -19 -32.5t-30 -10.5h-235q-28 0 -39 20t1 51l535 1388q9 22 25 34.5t36 12.5h232q20 0 35.5 -12.5t24.5 -34.5l538 -1386q13 -32 0 -52.5t-43 -20.5h-249q-18 0 -29.5 10t-18.5 33l-106 297h-551zM441 2050h254
q21 0 36 -10.5t20 -28.5l88 -329q7 -31 -7.5 -49t-46.5 -18h-135q-19 0 -31.5 8t-24.5 29l-196 329q-14 25 -1 47t44 22z" />
    <glyph glyph-name="Aacute" unicode="&#xc1;" horiz-adv-x="1470" 
d="M546 603h364l-181 508zM452 340l-107 -297q-7 -22 -19 -32.5t-30 -10.5h-235q-28 0 -39 20t1 51l535 1388q9 22 25 34.5t36 12.5h232q20 0 35.5 -12.5t24.5 -34.5l538 -1386q13 -32 0 -52.5t-43 -20.5h-249q-18 0 -29.5 10t-18.5 33l-106 297h-551zM775 2050h254
q32 0 44 -22.5t-3 -46.5l-194 -329q-12 -20 -24.5 -28.5t-31.5 -8.5h-135q-32 0 -46.5 18t-7.5 49l86 329q4 18 20 28.5t38 10.5z" />
    <glyph glyph-name="Acircumflex" unicode="&#xc2;" horiz-adv-x="1470" 
d="M546 603h364l-181 508zM452 340l-107 -297q-7 -22 -19 -32.5t-30 -10.5h-235q-28 0 -39 20t1 51l535 1388q9 22 25 34.5t36 12.5h232q20 0 35.5 -12.5t24.5 -34.5l538 -1386q13 -32 0 -52.5t-43 -20.5h-249q-18 0 -29.5 10t-18.5 33l-106 297h-551zM606 2049h253
q21 0 37 -11t28 -34l198 -323q17 -24 5 -45.5t-33 -21.5h-174q-18 0 -30 5.5t-33 31.5l-124 170l-125 -170q-21 -26 -33 -31.5t-30 -5.5h-172q-23 0 -35 21t3 46l200 323q12 23 28 34t37 11z" />
    <glyph glyph-name="Atilde" unicode="&#xc3;" horiz-adv-x="1470" 
d="M546 603h364l-181 508zM452 340l-107 -297q-7 -22 -19 -32.5t-30 -10.5h-235q-28 0 -39 20t1 51l535 1388q9 22 25 34.5t36 12.5h232q20 0 35.5 -12.5t24.5 -34.5l538 -1386q13 -32 0 -52.5t-43 -20.5h-249q-18 0 -29.5 10t-18.5 33l-106 297h-551zM706 1685
q-64 18 -89 23t-40 5q-26 0 -49 -9t-55 -36q-20 -16 -29.5 -21t-19.5 -5q-12 0 -21 5.5t-22 22.5l-65 93q-9 12 -14 26.5t-5 31.5q0 56 75 113t168 57q29 0 70.5 -7.5t129.5 -31.5q70 -19 98.5 -24.5t45.5 -5.5q26 0 49 9t56 36q20 16 30 21t20 5q12 0 22.5 -6.5t23.5 -23.5
l60 -91q8 -14 12.5 -29.5t4.5 -28.5q0 -57 -74 -113.5t-167 -56.5q-33 0 -78 8t-137 33z" />
    <glyph glyph-name="Adieresis" unicode="&#xc4;" horiz-adv-x="1470" 
d="M546 603h364l-181 508zM452 340l-107 -297q-7 -22 -19 -32.5t-30 -10.5h-235q-28 0 -39 20t1 51l535 1388q9 22 25 34.5t36 12.5h232q20 0 35.5 -12.5t24.5 -34.5l538 -1386q13 -32 0 -52.5t-43 -20.5h-249q-18 0 -29.5 10t-18.5 33l-106 297h-551zM502 1605
q-76 0 -130.5 54.5t-54.5 130.5q0 77 54.5 132t130.5 55q77 0 132 -55t55 -132q0 -76 -55 -130.5t-132 -54.5zM963 1605q-77 0 -132.5 54.5t-55.5 130.5q0 77 55.5 132t132.5 55q76 0 130.5 -55t54.5 -132q0 -76 -54.5 -130.5t-130.5 -54.5z" />
    <glyph glyph-name="Aring" unicode="&#xc5;" horiz-adv-x="1470" 
d="M546 603h364l-181 508zM452 340l-107 -297q-7 -22 -19 -32.5t-30 -10.5h-235q-28 0 -39 20t1 51l535 1388q9 22 25 34.5t36 12.5h232q20 0 35.5 -12.5t24.5 -34.5l538 -1386q13 -32 0 -52.5t-43 -20.5h-249q-18 0 -29.5 10t-18.5 33l-106 297h-551zM732 2225
q138 0 232 -89t95 -221q-1 -132 -95 -221t-232 -89t-231.5 89t-93.5 221t93.5 221t231.5 89zM732 1779q56 0 92.5 38.5t36.5 95.5q0 59 -36 97t-93 38t-93 -38t-36 -97q0 -57 36.5 -95.5t92.5 -38.5z" />
    <glyph glyph-name="AE" unicode="&#xc6;" horiz-adv-x="2012" 
d="M547 607h400l-201 614zM460 340l-95 -293q-8 -23 -23 -35t-35 -12h-241q-31 0 -42.5 18.5t-0.5 50.5l492 1390q8 22 25.5 34.5t37.5 12.5h1336q21 0 35.5 -14t14.5 -35v-194q0 -19 -14.5 -32t-35.5 -13h-826l113 -323h423q20 0 34.5 -14.5t14.5 -34.5v-177
q0 -20 -14.5 -34.5t-34.5 -14.5h-327l116 -332h501q21 0 35.5 -13t14.5 -32v-194q0 -20 -14.5 -34.5t-35.5 -14.5h-719q-26 0 -42 12t-22 35l-96 293h-575z" />
    <glyph glyph-name="Ccedilla" unicode="&#xc7;" horiz-adv-x="1592" 
d="M52 755q0 331 230 557.5t566 226.5q256 0 451 -123t270 -334q10 -25 1.5 -39t-33.5 -19l-222 -51q-18 -4 -31.5 2t-26.5 30q-63 119 -168 183t-239 64q-204 0 -338.5 -142t-134.5 -355q0 -212 135 -354.5t338 -142.5q134 0 239 64.5t168 183.5q13 24 26.5 30t31.5 2
l222 -52q25 -5 33 -18.5t-1 -39.5q-75 -210 -270 -333t-451 -123q-336 0 -566 226t-230 557zM582 -288l114 336l310 -41l-168 -336q-7 -17 -21 -24.5t-37 -5.5l-159 11q-26 2 -36.5 18t-2.5 42z" />
    <glyph glyph-name="Egrave" unicode="&#xc8;" horiz-adv-x="1356" 
d="M174 1506h1078q20 0 34 -14t14 -35v-187q0 -20 -14 -34t-34 -14h-815v-327h469q21 0 34 -14t13 -35v-177q0 -21 -13 -35t-34 -14h-469v-336h826q20 0 34 -13.5t14 -33.5v-188q0 -20 -14 -34.5t-34 -14.5h-1089q-20 0 -33.5 14t-13.5 35v1410q0 20 13.5 33.5t33.5 13.5z
M427 2049h254q21 0 36 -10.5t20 -28.5l88 -329q7 -31 -7.5 -49t-46.5 -18h-135q-19 0 -31.5 8t-24.5 29l-196 329q-14 25 -1 47t44 22z" />
    <glyph glyph-name="Eacute" unicode="&#xc9;" horiz-adv-x="1356" 
d="M174 1506h1078q20 0 34 -14t14 -35v-187q0 -20 -14 -34t-34 -14h-815v-327h469q21 0 34 -14t13 -35v-177q0 -21 -13 -35t-34 -14h-469v-336h826q20 0 34 -13.5t14 -33.5v-188q0 -20 -14 -34.5t-34 -14.5h-1089q-20 0 -33.5 14t-13.5 35v1410q0 20 13.5 33.5t33.5 13.5z
M741 2049h254q32 0 44 -22.5t-3 -46.5l-194 -329q-12 -20 -24.5 -28.5t-31.5 -8.5h-135q-32 0 -46.5 18t-7.5 49l86 329q4 18 20 28.5t38 10.5z" />
    <glyph glyph-name="Ecircumflex" unicode="&#xca;" horiz-adv-x="1356" 
d="M174 1506h1078q20 0 34 -14t14 -35v-187q0 -20 -14 -34t-34 -14h-815v-327h469q21 0 34 -14t13 -35v-177q0 -21 -13 -35t-34 -14h-469v-336h826q20 0 34 -13.5t14 -33.5v-188q0 -20 -14 -34.5t-34 -14.5h-1089q-20 0 -33.5 14t-13.5 35v1410q0 20 13.5 33.5t33.5 13.5z
M582 2049h253q21 0 37 -11t28 -34l198 -323q17 -24 5 -45.5t-33 -21.5h-174q-18 0 -30 5.5t-33 31.5l-124 170l-125 -170q-21 -26 -33 -31.5t-30 -5.5h-172q-23 0 -35 21t3 46l200 323q12 23 28 34t37 11z" />
    <glyph glyph-name="Edieresis" unicode="&#xcb;" horiz-adv-x="1356" 
d="M174 1506h1078q20 0 34 -14t14 -35v-187q0 -20 -14 -34t-34 -14h-815v-327h469q21 0 34 -14t13 -35v-177q0 -21 -13 -35t-34 -14h-469v-336h826q20 0 34 -13.5t14 -33.5v-188q0 -20 -14 -34.5t-34 -14.5h-1089q-20 0 -33.5 14t-13.5 35v1410q0 20 13.5 33.5t33.5 13.5z
M478 1605q-76 0 -130.5 54.5t-54.5 130.5q0 77 54.5 132t130.5 55q77 0 132 -55t55 -132q0 -76 -55 -130.5t-132 -54.5zM939 1605q-77 0 -132.5 54.5t-55.5 130.5q0 77 55.5 132t132.5 55q76 0 130.5 -55t54.5 -132q0 -76 -54.5 -130.5t-130.5 -54.5z" />
    <glyph glyph-name="Igrave" unicode="&#xcc;" horiz-adv-x="562" 
d="M390 0h-216q-20 0 -33.5 14t-13.5 35v1410q0 20 13.5 33.5t33.5 13.5h216q19 0 33 -14t14 -33v-1410q0 -20 -14 -34.5t-33 -14.5zM1 2049h254q21 0 36 -10.5t20 -28.5l88 -329q7 -31 -7.5 -49t-46.5 -18h-135q-19 0 -31.5 8t-24.5 29l-196 329q-14 25 -1 47t44 22z" />
    <glyph glyph-name="Iacute" unicode="&#xcd;" horiz-adv-x="562" 
d="M390 0h-216q-20 0 -33.5 14t-13.5 35v1410q0 20 13.5 33.5t33.5 13.5h216q19 0 33 -14t14 -33v-1410q0 -20 -14 -34.5t-33 -14.5zM315 2049h254q32 0 44 -22.5t-3 -46.5l-194 -329q-12 -20 -24.5 -28.5t-31.5 -8.5h-135q-32 0 -46.5 18t-7.5 49l86 329q4 18 20 28.5
t38 10.5z" />
    <glyph glyph-name="Icircumflex" unicode="&#xce;" horiz-adv-x="562" 
d="M390 0h-216q-20 0 -33.5 14t-13.5 35v1410q0 20 13.5 33.5t33.5 13.5h216q19 0 33 -14t14 -33v-1410q0 -20 -14 -34.5t-33 -14.5zM156 2049h253q21 0 37 -11t28 -34l198 -323q17 -24 5 -45.5t-33 -21.5h-174q-18 0 -30 5.5t-33 31.5l-124 170l-125 -170
q-21 -26 -33 -31.5t-30 -5.5h-172q-23 0 -35 21t3 46l200 323q12 23 28 34t37 11z" />
    <glyph glyph-name="Idieresis" unicode="&#xcf;" horiz-adv-x="562" 
d="M390 0h-216q-20 0 -33.5 14t-13.5 35v1410q0 20 13.5 33.5t33.5 13.5h216q19 0 33 -14t14 -33v-1410q0 -20 -14 -34.5t-33 -14.5zM52 1605q-76 0 -130.5 54.5t-54.5 130.5q0 77 54.5 132t130.5 55q77 0 132 -55t55 -132q0 -76 -55 -130.5t-132 -54.5zM513 1605
q-77 0 -132.5 54.5t-55.5 130.5q0 77 55.5 132t132.5 55q76 0 130.5 -55t54.5 -132q0 -76 -54.5 -130.5t-130.5 -54.5z" />
    <glyph glyph-name="Eth" unicode="&#xd0;" horiz-adv-x="1610" 
d="M1554 755q0 -339 -212.5 -547t-560.5 -208h-579q-20 0 -33.5 14t-13.5 35v586h-116q-20 0 -34 14t-14 35v147q0 19 14.5 33t33.5 14h116v581q0 20 13.5 33.5t33.5 13.5h579q350 0 561.5 -206t211.5 -545zM465 635v-351h318q197 0 322.5 133t125.5 338q0 206 -125 336.5
t-323 130.5h-318v-344h348q20 0 34 -14t14 -33v-147q0 -21 -13.5 -35t-34.5 -14h-348z" />
    <glyph glyph-name="Ntilde" unicode="&#xd1;" horiz-adv-x="1556" 
d="M1035 47l-598 986v-986q0 -20 -13.5 -33.5t-33.5 -13.5h-216q-21 0 -34 13t-13 34v1412q0 20 13.5 33.5t33.5 13.5h295q25 0 41.5 -9t27.5 -29l583 -969v960q0 19 13 33t30 14h218q18 0 33.5 -14.5t15.5 -32.5v-1412q0 -19 -15 -33t-34 -14h-250q-37 0 -60 11.5t-37 35.5
zM753 1685q-64 18 -89 23t-40 5q-26 0 -49 -9t-55 -36q-20 -16 -29.5 -21t-19.5 -5q-12 0 -21 5.5t-22 22.5l-65 93q-9 12 -14 26.5t-5 31.5q0 56 75 113t168 57q29 0 70.5 -7.5t129.5 -31.5q70 -19 98.5 -24.5t45.5 -5.5q26 0 49 9t56 36q20 16 30 21t20 5q12 0 22.5 -6.5
t23.5 -23.5l60 -91q8 -14 12.5 -29.5t4.5 -28.5q0 -57 -74 -113.5t-167 -56.5q-33 0 -78 8t-137 33z" />
    <glyph glyph-name="Ograve" unicode="&#xd2;" horiz-adv-x="1698" 
d="M850 1539q335 0 565.5 -227t230.5 -557t-230.5 -556.5t-565.5 -226.5t-566.5 227t-231.5 556q0 330 231.5 557t566.5 227zM850 258q203 0 338 142.5t135 354.5q0 213 -134.5 355t-338.5 142q-205 0 -339 -141.5t-134 -355.5q0 -213 134 -355t339 -142zM569 2049h254
q21 0 36 -10.5t20 -28.5l88 -329q7 -31 -7.5 -49t-46.5 -18h-135q-19 0 -31.5 8t-24.5 29l-196 329q-14 25 -1 47t44 22z" />
    <glyph glyph-name="Oacute" unicode="&#xd3;" horiz-adv-x="1698" 
d="M850 1539q335 0 565.5 -227t230.5 -557t-230.5 -556.5t-565.5 -226.5t-566.5 227t-231.5 556q0 330 231.5 557t566.5 227zM850 258q203 0 338 142.5t135 354.5q0 213 -134.5 355t-338.5 142q-205 0 -339 -141.5t-134 -355.5q0 -213 134 -355t339 -142zM883 2049h254
q32 0 44 -22.5t-3 -46.5l-194 -329q-12 -20 -24.5 -28.5t-31.5 -8.5h-135q-32 0 -46.5 18t-7.5 49l86 329q4 18 20 28.5t38 10.5z" />
    <glyph glyph-name="Ocircumflex" unicode="&#xd4;" horiz-adv-x="1698" 
d="M850 1539q335 0 565.5 -227t230.5 -557t-230.5 -556.5t-565.5 -226.5t-566.5 227t-231.5 556q0 330 231.5 557t566.5 227zM850 258q203 0 338 142.5t135 354.5q0 213 -134.5 355t-338.5 142q-205 0 -339 -141.5t-134 -355.5q0 -213 134 -355t339 -142zM724 2049h253
q21 0 37 -11t28 -34l198 -323q17 -24 5 -45.5t-33 -21.5h-174q-18 0 -30 5.5t-33 31.5l-124 170l-125 -170q-21 -26 -33 -31.5t-30 -5.5h-172q-23 0 -35 21t3 46l200 323q12 23 28 34t37 11z" />
    <glyph glyph-name="Otilde" unicode="&#xd5;" horiz-adv-x="1698" 
d="M850 1539q335 0 565.5 -227t230.5 -557t-230.5 -556.5t-565.5 -226.5t-566.5 227t-231.5 556q0 330 231.5 557t566.5 227zM850 258q203 0 338 142.5t135 354.5q0 213 -134.5 355t-338.5 142q-205 0 -339 -141.5t-134 -355.5q0 -213 134 -355t339 -142zM824 1685
q-64 18 -89 23t-40 5q-26 0 -49 -9t-55 -36q-20 -16 -29.5 -21t-19.5 -5q-12 0 -21 5.5t-22 22.5l-65 93q-9 12 -14 26.5t-5 31.5q0 56 75 113t168 57q29 0 70.5 -7.5t129.5 -31.5q70 -19 98.5 -24.5t45.5 -5.5q26 0 49 9t56 36q20 16 30 21t20 5q12 0 22.5 -6.5t23.5 -23.5
l60 -91q8 -14 12.5 -29.5t4.5 -28.5q0 -57 -74 -113.5t-167 -56.5q-33 0 -78 8t-137 33z" />
    <glyph glyph-name="Odieresis" unicode="&#xd6;" horiz-adv-x="1698" 
d="M850 1539q335 0 565.5 -227t230.5 -557t-230.5 -556.5t-565.5 -226.5t-566.5 227t-231.5 556q0 330 231.5 557t566.5 227zM850 258q203 0 338 142.5t135 354.5q0 213 -134.5 355t-338.5 142q-205 0 -339 -141.5t-134 -355.5q0 -213 134 -355t339 -142zM620 1605
q-76 0 -130.5 54.5t-54.5 130.5q0 77 54.5 132t130.5 55q77 0 132 -55t55 -132q0 -76 -55 -130.5t-132 -54.5zM1081 1605q-77 0 -132.5 54.5t-55.5 130.5q0 77 55.5 132t132.5 55q76 0 130.5 -55t54.5 -132q0 -76 -54.5 -130.5t-130.5 -54.5z" />
    <glyph glyph-name="multiply" unicode="&#xd7;" horiz-adv-x="1305" 
d="M654 542l-362 -360q-13 -15 -33 -16t-33 14l-142 140q-13 14 -13 34t13 33l361 361l-361 362q-13 12 -13.5 33t11.5 36l142 139q13 14 33.5 14t34.5 -14l362 -361l359 361q17 14 36.5 14t32.5 -14l142 -139q12 -15 11 -36t-13 -33l-359 -362l359 -361q13 -13 13 -33
t-13 -34l-142 -140q-13 -15 -32.5 -14t-34.5 16z" />
    <glyph glyph-name="Oslash" unicode="&#xd8;" horiz-adv-x="1698" 
d="M851 1539q335 0 565.5 -227t230.5 -557t-230.5 -556.5t-565.5 -226.5t-566.5 227t-231.5 556q0 330 231.5 557t566.5 227zM851 1252q-205 0 -339 -141.5t-134 -355.5q0 -60 11.5 -116t34.5 -106l660 660q-52 29 -111 44t-122 15zM851 258q203 0 338 142.5t135 354.5
q0 59 -12 115.5t-35 108.5l-661 -661q53 -30 112.5 -45t122.5 -15z" />
    <glyph glyph-name="Ugrave" unicode="&#xd9;" horiz-adv-x="1491" 
d="M1375 1458v-917q0 -266 -173 -419t-457 -153q-283 0 -456 152t-173 418v919q0 20 14 34t34 14h213q21 0 35 -14t14 -34v-897q0 -146 84.5 -228t234.5 -82t235 82.5t85 227.5v897q0 20 14.5 34t35.5 14h213q19 0 33 -14t14 -34zM464 2049h254q21 0 36 -10.5t20 -28.5
l88 -329q7 -31 -7.5 -49t-46.5 -18h-135q-19 0 -31.5 8t-24.5 29l-196 329q-14 25 -1 47t44 22z" />
    <glyph glyph-name="Uacute" unicode="&#xda;" horiz-adv-x="1491" 
d="M1375 1458v-917q0 -266 -173 -419t-457 -153q-283 0 -456 152t-173 418v919q0 20 14 34t34 14h213q21 0 35 -14t14 -34v-897q0 -146 84.5 -228t234.5 -82t235 82.5t85 227.5v897q0 20 14.5 34t35.5 14h213q19 0 33 -14t14 -34zM778 2049h254q32 0 44 -22.5t-3 -46.5
l-194 -329q-12 -20 -24.5 -28.5t-31.5 -8.5h-135q-32 0 -46.5 18t-7.5 49l86 329q4 18 20 28.5t38 10.5z" />
    <glyph glyph-name="Ucircumflex" unicode="&#xdb;" horiz-adv-x="1491" 
d="M1375 1458v-917q0 -266 -173 -419t-457 -153q-283 0 -456 152t-173 418v919q0 20 14 34t34 14h213q21 0 35 -14t14 -34v-897q0 -146 84.5 -228t234.5 -82t235 82.5t85 227.5v897q0 20 14.5 34t35.5 14h213q19 0 33 -14t14 -34zM619 2049h253q21 0 37 -11t28 -34l198 -323
q17 -24 5 -45.5t-33 -21.5h-174q-18 0 -30 5.5t-33 31.5l-124 170l-125 -170q-21 -26 -33 -31.5t-30 -5.5h-172q-23 0 -35 21t3 46l200 323q12 23 28 34t37 11z" />
    <glyph glyph-name="Udieresis" unicode="&#xdc;" horiz-adv-x="1491" 
d="M1375 1458v-917q0 -266 -173 -419t-457 -153q-283 0 -456 152t-173 418v919q0 20 14 34t34 14h213q21 0 35 -14t14 -34v-897q0 -146 84.5 -228t234.5 -82t235 82.5t85 227.5v897q0 20 14.5 34t35.5 14h213q19 0 33 -14t14 -34zM515 1605q-76 0 -130.5 54.5t-54.5 130.5
q0 77 54.5 132t130.5 55q77 0 132 -55t55 -132q0 -76 -55 -130.5t-132 -54.5zM976 1605q-77 0 -132.5 54.5t-55.5 130.5q0 77 55.5 132t132.5 55q76 0 130.5 -55t54.5 -132q0 -76 -54.5 -130.5t-130.5 -54.5z" />
    <glyph glyph-name="Yacute" unicode="&#xdd;" horiz-adv-x="1399" 
d="M545 49v584l-522 802q-17 25 -6 48t38 23h269q18 0 31.5 -8.5t24.5 -25.5l323 -532h6l323 532q11 17 24 25.5t30 8.5h258q28 0 40 -22t-6 -49l-523 -802v-584q0 -20 -14 -34.5t-33 -14.5h-215q-21 0 -34.5 14t-13.5 35zM730 2049h254q32 0 44 -22.5t-3 -46.5l-194 -329
q-12 -20 -24.5 -28.5t-31.5 -8.5h-135q-32 0 -46.5 18t-7.5 49l86 329q4 18 20 28.5t38 10.5z" />
    <glyph glyph-name="Thorn" unicode="&#xde;" horiz-adv-x="1315" 
d="M390 0h-216q-20 0 -33.5 13.5t-13.5 33.5v1412q0 20 13.5 33.5t33.5 13.5h216q19 0 33 -14t14 -33v-179h316q242 0 388 -140t146 -361q-2 -222 -147.5 -361.5t-386.5 -139.5h-316v-231q0 -19 -14 -33t-33 -14zM437 1007v-456h288q105 0 172 63.5t67 164.5t-67 164.5
t-172 63.5h-288z" />
    <glyph glyph-name="germandbls" unicode="&#xdf;" horiz-adv-x="1205" 
d="M97 47v1003q0 239 137.5 380t370.5 141q207 0 338 -112.5t131 -281.5q0 -67 -25.5 -137t-97.5 -178q-35 -51 -44.5 -71t-9.5 -33q0 -16 14.5 -37.5t65.5 -73.5q107 -109 145 -185.5t38 -157.5q0 -148 -108.5 -241t-291.5 -93q-40 0 -91.5 5.5t-83.5 13.5q-24 6 -36 20.5
t-7 35.5l37 160q3 15 12.5 22t21.5 3q39 -6 64 -9.5t35 -3.5q58 0 91.5 29t33.5 77q0 26 -21 59t-91 104q-90 90 -119 139.5t-29 93.5q0 37 20 83t83 141q59 89 77 130t18 72q0 66 -49.5 112.5t-127.5 46.5q-94 0 -149 -67t-55 -182v-1008q0 -19 -13.5 -33t-31.5 -14h-207
q-19 0 -32 14t-13 33z" />
    <glyph glyph-name="agrave" unicode="&#xe0;" 
d="M613 796q-112 0 -188 -79.5t-76 -195.5t76.5 -196t187.5 -80q112 0 188.5 80t76.5 196t-76.5 195.5t-188.5 79.5zM570 -30q-218 0 -370.5 158t-152.5 397q0 237 152.5 393t372.5 156q102 0 185 -40.5t121 -108.5v72q0 19 13.5 33t31.5 14h207q18 0 31.5 -14t13.5 -33
v-952q0 -19 -13.5 -32t-31.5 -13h-207q-19 0 -32 13t-13 32v71q-41 -67 -124 -106.5t-184 -39.5zM343 1587h254q21 0 36 -10.5t20 -28.5l88 -329q7 -31 -7.5 -49t-46.5 -18h-135q-19 0 -31.5 8t-24.5 29l-196 329q-14 25 -1 47t44 22z" />
    <glyph glyph-name="aacute" unicode="&#xe1;" 
d="M613 796q-112 0 -188 -79.5t-76 -195.5t76.5 -196t187.5 -80q112 0 188.5 80t76.5 196t-76.5 195.5t-188.5 79.5zM570 -30q-218 0 -370.5 158t-152.5 397q0 237 152.5 393t372.5 156q102 0 185 -40.5t121 -108.5v72q0 19 13.5 33t31.5 14h207q18 0 31.5 -14t13.5 -33
v-952q0 -19 -13.5 -32t-31.5 -13h-207q-19 0 -32 13t-13 32v71q-41 -67 -124 -106.5t-184 -39.5zM657 1587h254q32 0 44 -22.5t-3 -46.5l-194 -329q-12 -20 -24.5 -28.5t-31.5 -8.5h-135q-32 0 -46.5 18t-7.5 49l86 329q4 18 20 28.5t38 10.5z" />
    <glyph glyph-name="acircumflex" unicode="&#xe2;" 
d="M613 796q-112 0 -188 -79.5t-76 -195.5t76.5 -196t187.5 -80q112 0 188.5 80t76.5 196t-76.5 195.5t-188.5 79.5zM570 -30q-218 0 -370.5 158t-152.5 397q0 237 152.5 393t372.5 156q102 0 185 -40.5t121 -108.5v72q0 19 13.5 33t31.5 14h207q18 0 31.5 -14t13.5 -33
v-952q0 -19 -13.5 -32t-31.5 -13h-207q-19 0 -32 13t-13 32v71q-41 -67 -124 -106.5t-184 -39.5zM498 1587h253q21 0 37 -11t28 -34l198 -323q17 -24 5 -45.5t-33 -21.5h-174q-18 0 -30 5.5t-33 31.5l-124 170l-125 -170q-21 -26 -33 -31.5t-30 -5.5h-172q-23 0 -35 21t3 46
l200 323q12 23 28 34t37 11z" />
    <glyph glyph-name="atilde" unicode="&#xe3;" 
d="M613 796q-112 0 -188 -79.5t-76 -195.5t76.5 -196t187.5 -80q112 0 188.5 80t76.5 196t-76.5 195.5t-188.5 79.5zM570 -30q-218 0 -370.5 158t-152.5 397q0 237 152.5 393t372.5 156q102 0 185 -40.5t121 -108.5v72q0 19 13.5 33t31.5 14h207q18 0 31.5 -14t13.5 -33
v-952q0 -19 -13.5 -32t-31.5 -13h-207q-19 0 -32 13t-13 32v71q-41 -67 -124 -106.5t-184 -39.5zM598 1223q-64 18 -89 23t-40 5q-26 0 -49 -9t-55 -36q-20 -16 -29.5 -21t-19.5 -5q-12 0 -21 5.5t-22 22.5l-65 93q-9 12 -14 26.5t-5 31.5q0 56 75 113t168 57
q29 0 70.5 -7.5t129.5 -31.5q70 -19 98.5 -24.5t45.5 -5.5q26 0 49 9t56 36q20 16 30 21t20 5q12 0 22.5 -6.5t23.5 -23.5l60 -91q8 -14 12.5 -29.5t4.5 -28.5q0 -57 -74 -113.5t-167 -56.5q-33 0 -78 8t-137 33z" />
    <glyph glyph-name="adieresis" unicode="&#xe4;" 
d="M613 796q-112 0 -188 -79.5t-76 -195.5t76.5 -196t187.5 -80q112 0 188.5 80t76.5 196t-76.5 195.5t-188.5 79.5zM570 -30q-218 0 -370.5 158t-152.5 397q0 237 152.5 393t372.5 156q102 0 185 -40.5t121 -108.5v72q0 19 13.5 33t31.5 14h207q18 0 31.5 -14t13.5 -33
v-952q0 -19 -13.5 -32t-31.5 -13h-207q-19 0 -32 13t-13 32v71q-41 -67 -124 -106.5t-184 -39.5zM394 1143q-76 0 -130.5 54.5t-54.5 130.5q0 77 54.5 132t130.5 55q77 0 132 -55t55 -132q0 -76 -55 -130.5t-132 -54.5zM855 1143q-77 0 -132.5 54.5t-55.5 130.5
q0 77 55.5 132t132.5 55q76 0 130.5 -55t54.5 -132q0 -76 -54.5 -130.5t-130.5 -54.5z" />
    <glyph glyph-name="aring" unicode="&#xe5;" 
d="M613 796q-112 0 -188 -79.5t-76 -195.5t76.5 -196t187.5 -80q112 0 188.5 80t76.5 196t-76.5 195.5t-188.5 79.5zM570 -30q-218 0 -370.5 158t-152.5 397q0 237 152.5 393t372.5 156q102 0 185 -40.5t121 -108.5v72q0 19 13.5 33t31.5 14h207q18 0 31.5 -14t13.5 -33
v-952q0 -19 -13.5 -32t-31.5 -13h-207q-19 0 -32 13t-13 32v71q-41 -67 -124 -106.5t-184 -39.5zM624 1763q138 0 232 -89t95 -221q-1 -132 -95 -221t-232 -89t-231.5 89t-93.5 221t93.5 221t231.5 89zM624 1317q56 0 92.5 38.5t36.5 95.5q0 59 -36 97t-93 38t-93 -38
t-36 -97q0 -57 36.5 -95.5t92.5 -38.5z" />
    <glyph glyph-name="ae" unicode="&#xe6;" horiz-adv-x="1905" 
d="M1095 635h478q-17 92 -82.5 147t-154.5 55q-88 0 -154 -55.5t-87 -146.5zM346 521q0 -115 76.5 -194t188.5 -79q59 0 112 21t91 59q-15 46 -23 93t-8 96q0 51 8 100t24 95q-37 40 -90 62t-114 22q-112 0 -188.5 -79.5t-76.5 -195.5zM1803 168q-73 -93 -194.5 -145.5
t-267.5 -52.5q-106 0 -201 33.5t-170 96.5q-73 -62 -166.5 -96t-192.5 -34q-237 0 -401.5 159.5t-164.5 389.5q0 233 164.5 394t401.5 161q101 0 194.5 -34.5t164.5 -96.5q73 64 165.5 97.5t196.5 33.5q231 0 381.5 -151t150.5 -370v-67q0 -26 -12.5 -39.5t-37.5 -13.5h-722
q17 -97 88.5 -155t166.5 -58q69 0 126 24.5t111 78.5q17 17 38 20t39 -9l132 -93q16 -12 19 -34t-9 -39z" />
    <glyph glyph-name="ccedilla" unicode="&#xe7;" horiz-adv-x="1123" 
d="M609 -30q-240 0 -401 158t-161 393q0 234 162.5 393.5t399.5 159.5q156 0 283 -68.5t193 -187.5q13 -21 5.5 -45t-31.5 -37l-125 -77q-27 -16 -50.5 -12t-42.5 29q-54 65 -107.5 92.5t-122.5 27.5q-113 0 -187.5 -79t-74.5 -196t74.5 -195t187.5 -78q69 0 122.5 27.5
t107.5 92.5q19 25 42.5 29t50.5 -12l125 -77q24 -13 31.5 -37t-5.5 -45q-66 -119 -193 -187.5t-283 -68.5zM335 -288l114 336l310 -41l-168 -336q-7 -17 -21 -24.5t-37 -5.5l-159 11q-26 2 -36.5 18t-2.5 42z" />
    <glyph glyph-name="egrave" unicode="&#xe8;" horiz-adv-x="1171" 
d="M359 635h478q-17 92 -82.5 147t-154.5 55q-88 0 -154 -55.5t-87 -146.5zM1067 168q-73 -93 -194.5 -145.5t-267.5 -52.5q-241 0 -399.5 156t-158.5 391q0 238 156 397.5t393 159.5q231 0 381.5 -151t150.5 -370v-67q0 -26 -12.5 -39.5t-37.5 -13.5h-722q17 -97 88.5 -155
t166.5 -58q69 0 126 24.5t111 78.5q17 17 38 20t39 -9l132 -93q16 -12 19 -34t-9 -39zM306 1587h254q21 0 36 -10.5t20 -28.5l88 -329q7 -31 -7.5 -49t-46.5 -18h-135q-19 0 -31.5 8t-24.5 29l-196 329q-14 25 -1 47t44 22z" />
    <glyph glyph-name="eacute" unicode="&#xe9;" horiz-adv-x="1171" 
d="M359 635h478q-17 92 -82.5 147t-154.5 55q-88 0 -154 -55.5t-87 -146.5zM1067 168q-73 -93 -194.5 -145.5t-267.5 -52.5q-241 0 -399.5 156t-158.5 391q0 238 156 397.5t393 159.5q231 0 381.5 -151t150.5 -370v-67q0 -26 -12.5 -39.5t-37.5 -13.5h-722q17 -97 88.5 -155
t166.5 -58q69 0 126 24.5t111 78.5q17 17 38 20t39 -9l132 -93q16 -12 19 -34t-9 -39zM620 1587h254q32 0 44 -22.5t-3 -46.5l-194 -329q-12 -20 -24.5 -28.5t-31.5 -8.5h-135q-32 0 -46.5 18t-7.5 49l86 329q4 18 20 28.5t38 10.5z" />
    <glyph glyph-name="ecircumflex" unicode="&#xea;" horiz-adv-x="1171" 
d="M359 635h478q-17 92 -82.5 147t-154.5 55q-88 0 -154 -55.5t-87 -146.5zM1067 168q-73 -93 -194.5 -145.5t-267.5 -52.5q-241 0 -399.5 156t-158.5 391q0 238 156 397.5t393 159.5q231 0 381.5 -151t150.5 -370v-67q0 -26 -12.5 -39.5t-37.5 -13.5h-722q17 -97 88.5 -155
t166.5 -58q69 0 126 24.5t111 78.5q17 17 38 20t39 -9l132 -93q16 -12 19 -34t-9 -39zM461 1587h253q21 0 37 -11t28 -34l198 -323q17 -24 5 -45.5t-33 -21.5h-174q-18 0 -30 5.5t-33 31.5l-124 170l-125 -170q-21 -26 -33 -31.5t-30 -5.5h-172q-23 0 -35 21t3 46l200 323
q12 23 28 34t37 11z" />
    <glyph glyph-name="edieresis" unicode="&#xeb;" horiz-adv-x="1171" 
d="M359 635h478q-17 92 -82.5 147t-154.5 55q-88 0 -154 -55.5t-87 -146.5zM1067 168q-73 -93 -194.5 -145.5t-267.5 -52.5q-241 0 -399.5 156t-158.5 391q0 238 156 397.5t393 159.5q231 0 381.5 -151t150.5 -370v-67q0 -26 -12.5 -39.5t-37.5 -13.5h-722q17 -97 88.5 -155
t166.5 -58q69 0 126 24.5t111 78.5q17 17 38 20t39 -9l132 -93q16 -12 19 -34t-9 -39zM357 1143q-76 0 -130.5 54.5t-54.5 130.5q0 77 54.5 132t130.5 55q77 0 132 -55t55 -132q0 -76 -55 -130.5t-132 -54.5zM818 1143q-77 0 -132.5 54.5t-55.5 130.5q0 77 55.5 132
t132.5 55q76 0 130.5 -55t54.5 -132q0 -76 -54.5 -130.5t-130.5 -54.5z" />
    <glyph glyph-name="igrave" unicode="&#xec;" horiz-adv-x="491" 
d="M349 0h-207q-19 0 -32 14t-13 33v949q0 21 12.5 34.5t32.5 13.5h207q19 0 32 -13.5t13 -34.5v-949q0 -19 -13.5 -33t-31.5 -14zM-38 1587h254q21 0 36 -10.5t20 -28.5l88 -329q7 -31 -7.5 -49t-46.5 -18h-135q-19 0 -31.5 8t-24.5 29l-196 329q-14 25 -1 47t44 22z" />
    <glyph glyph-name="iacute" unicode="&#xed;" horiz-adv-x="491" 
d="M349 0h-207q-19 0 -32 14t-13 33v949q0 21 12.5 34.5t32.5 13.5h207q19 0 32 -13.5t13 -34.5v-949q0 -19 -13.5 -33t-31.5 -14zM276 1587h254q32 0 44 -22.5t-3 -46.5l-194 -329q-12 -20 -24.5 -28.5t-31.5 -8.5h-135q-32 0 -46.5 18t-7.5 49l86 329q4 18 20 28.5
t38 10.5z" />
    <glyph glyph-name="icircumflex" unicode="&#xee;" horiz-adv-x="491" 
d="M349 0h-207q-19 0 -32 14t-13 33v949q0 21 12.5 34.5t32.5 13.5h207q19 0 32 -13.5t13 -34.5v-949q0 -19 -13.5 -33t-31.5 -14zM117 1587h253q21 0 37 -11t28 -34l198 -323q17 -24 5 -45.5t-33 -21.5h-174q-18 0 -30 5.5t-33 31.5l-124 170l-125 -170q-21 -26 -33 -31.5
t-30 -5.5h-172q-23 0 -35 21t3 46l200 323q12 23 28 34t37 11z" />
    <glyph glyph-name="idieresis" unicode="&#xef;" horiz-adv-x="491" 
d="M349 0h-207q-19 0 -32 14t-13 33v949q0 21 12.5 34.5t32.5 13.5h207q19 0 32 -13.5t13 -34.5v-949q0 -19 -13.5 -33t-31.5 -14zM13 1143q-76 0 -130.5 54.5t-54.5 130.5q0 77 54.5 132t130.5 55q77 0 132 -55t55 -132q0 -76 -55 -130.5t-132 -54.5zM474 1143
q-77 0 -132.5 54.5t-55.5 130.5q0 77 55.5 132t132.5 55q76 0 130.5 -55t54.5 -132q0 -76 -54.5 -130.5t-130.5 -54.5z" />
    <glyph glyph-name="eth" unicode="&#xf0;" horiz-adv-x="1252" 
d="M1207 575q0 -265 -162.5 -435t-418.5 -170q-247 0 -414 161t-167 396q0 221 150 375.5t369 154.5q59 0 107.5 -9.5t92.5 -28.5q-35 39 -77.5 85.5t-103.5 110.5l-157 -56q-22 -7 -36.5 -0.5t-21.5 26.5l-28 79q-8 21 -0.5 37.5t28.5 23.5l79 28l-32 32t-46 47l-27.5 27.5
l-14.5 14.5q-23 21 -12 47t47 26h227q28 0 45 -5.5t31 -17.5q17 -15 36.5 -32t39.5 -36l223 79q22 7 38 1t22 -24l26 -80q8 -24 0.5 -40t-28.5 -22l-147 -52q163 -184 247.5 -373t84.5 -370zM618 796q-114 0 -190.5 -79t-76.5 -196t76.5 -196.5t190.5 -79.5q113 0 188.5 79
t75.5 197t-75.5 196.5t-188.5 78.5z" />
    <glyph glyph-name="ntilde" unicode="&#xf1;" horiz-adv-x="1252" 
d="M635 803q-107 0 -174 -68.5t-67 -179.5v-514q0 -17 -14.5 -29t-33.5 -12h-206q-18 0 -30.5 13t-12.5 32v951q0 21 12.5 34.5t30.5 13.5h206q18 0 33 -13t15 -30v-82q53 74 140.5 114.5t197.5 40.5q200 0 318.5 -125t118.5 -329v-579q0 -17 -14.5 -29t-33.5 -12h-201
q-19 0 -33.5 12t-14.5 29v514q0 114 -64 181t-173 67zM600 1223q-64 18 -89 23t-40 5q-26 0 -49 -9t-55 -36q-20 -16 -29.5 -21t-19.5 -5q-12 0 -21 5.5t-22 22.5l-65 93q-9 12 -14 26.5t-5 31.5q0 56 75 113t168 57q29 0 70.5 -7.5t129.5 -31.5q70 -19 98.5 -24.5
t45.5 -5.5q26 0 49 9t56 36q20 16 30 21t20 5q12 0 22.5 -6.5t23.5 -23.5l60 -91q8 -14 12.5 -29.5t4.5 -28.5q0 -57 -74 -113.5t-167 -56.5q-33 0 -78 8t-137 33z" />
    <glyph glyph-name="ograve" unicode="&#xf2;" horiz-adv-x="1220" 
d="M611 -30q-237 0 -401.5 159.5t-164.5 389.5q0 233 164.5 394t401.5 161q235 0 399.5 -161t164.5 -394q0 -230 -164.5 -389.5t-399.5 -159.5zM611 796q-113 0 -189 -79.5t-76 -195.5t76 -194.5t189 -78.5q112 0 187.5 78.5t75.5 194.5t-75.5 195.5t-187.5 79.5zM330 1587
h254q21 0 36 -10.5t20 -28.5l88 -329q7 -31 -7.5 -49t-46.5 -18h-135q-19 0 -31.5 8t-24.5 29l-196 329q-14 25 -1 47t44 22z" />
    <glyph glyph-name="oacute" unicode="&#xf3;" horiz-adv-x="1220" 
d="M611 -30q-237 0 -401.5 159.5t-164.5 389.5q0 233 164.5 394t401.5 161q235 0 399.5 -161t164.5 -394q0 -230 -164.5 -389.5t-399.5 -159.5zM611 796q-113 0 -189 -79.5t-76 -195.5t76 -194.5t189 -78.5q112 0 187.5 78.5t75.5 194.5t-75.5 195.5t-187.5 79.5zM644 1587
h254q32 0 44 -22.5t-3 -46.5l-194 -329q-12 -20 -24.5 -28.5t-31.5 -8.5h-135q-32 0 -46.5 18t-7.5 49l86 329q4 18 20 28.5t38 10.5z" />
    <glyph glyph-name="ocircumflex" unicode="&#xf4;" horiz-adv-x="1220" 
d="M611 -30q-237 0 -401.5 159.5t-164.5 389.5q0 233 164.5 394t401.5 161q235 0 399.5 -161t164.5 -394q0 -230 -164.5 -389.5t-399.5 -159.5zM611 796q-113 0 -189 -79.5t-76 -195.5t76 -194.5t189 -78.5q112 0 187.5 78.5t75.5 194.5t-75.5 195.5t-187.5 79.5zM485 1587
h253q21 0 37 -11t28 -34l198 -323q17 -24 5 -45.5t-33 -21.5h-174q-18 0 -30 5.5t-33 31.5l-124 170l-125 -170q-21 -26 -33 -31.5t-30 -5.5h-172q-23 0 -35 21t3 46l200 323q12 23 28 34t37 11z" />
    <glyph glyph-name="otilde" unicode="&#xf5;" horiz-adv-x="1220" 
d="M611 -30q-237 0 -401.5 159.5t-164.5 389.5q0 233 164.5 394t401.5 161q235 0 399.5 -161t164.5 -394q0 -230 -164.5 -389.5t-399.5 -159.5zM611 796q-113 0 -189 -79.5t-76 -195.5t76 -194.5t189 -78.5q112 0 187.5 78.5t75.5 194.5t-75.5 195.5t-187.5 79.5zM585 1223
q-64 18 -89 23t-40 5q-26 0 -49 -9t-55 -36q-20 -16 -29.5 -21t-19.5 -5q-12 0 -21 5.5t-22 22.5l-65 93q-9 12 -14 26.5t-5 31.5q0 56 75 113t168 57q29 0 70.5 -7.5t129.5 -31.5q70 -19 98.5 -24.5t45.5 -5.5q26 0 49 9t56 36q20 16 30 21t20 5q12 0 22.5 -6.5t23.5 -23.5
l60 -91q8 -14 12.5 -29.5t4.5 -28.5q0 -57 -74 -113.5t-167 -56.5q-33 0 -78 8t-137 33z" />
    <glyph glyph-name="odieresis" unicode="&#xf6;" horiz-adv-x="1220" 
d="M611 -30q-237 0 -401.5 159.5t-164.5 389.5q0 233 164.5 394t401.5 161q235 0 399.5 -161t164.5 -394q0 -230 -164.5 -389.5t-399.5 -159.5zM611 796q-113 0 -189 -79.5t-76 -195.5t76 -194.5t189 -78.5q112 0 187.5 78.5t75.5 194.5t-75.5 195.5t-187.5 79.5zM381 1143
q-76 0 -130.5 54.5t-54.5 130.5q0 77 54.5 132t130.5 55q77 0 132 -55t55 -132q0 -76 -55 -130.5t-132 -54.5zM842 1143q-77 0 -132.5 54.5t-55.5 130.5q0 77 55.5 132t132.5 55q76 0 130.5 -55t54.5 -132q0 -76 -54.5 -130.5t-130.5 -54.5z" />
    <glyph glyph-name="divide" unicode="&#xf7;" 
d="M830 1188q0 -81 -57 -138.5t-139 -57.5t-141 58t-59 138q0 82 58.5 140t141.5 58q82 0 139 -57.5t57 -140.5zM1200 842v-196q0 -20 -15 -35t-35 -15h-1033q-19 0 -33 14.5t-14 35.5v196q0 20 14 34.5t33 14.5h1033q20 0 35 -14.5t15 -34.5zM830 293q0 -83 -57 -140.5
t-139 -57.5q-83 0 -141.5 58t-58.5 140q0 81 58.5 138.5t141.5 57.5q82 0 139 -57t57 -139z" />
    <glyph glyph-name="oslash" unicode="&#xf8;" horiz-adv-x="1220" 
d="M611 -30q-237 0 -401.5 159.5t-164.5 389.5q0 233 164.5 394t401.5 161q235 0 399.5 -161t164.5 -394q0 -230 -164.5 -389.5t-399.5 -159.5zM611 796q-113 0 -189 -79.5t-76 -195.5q0 -28 4.5 -54t13.5 -49l358 354q-26 12 -54 18t-57 6zM611 248q112 0 187.5 78.5
t75.5 194.5q0 27 -4.5 52.5t-13.5 49.5l-356 -352q26 -11 54 -17t57 -6z" />
    <glyph glyph-name="ugrave" unicode="&#xf9;" horiz-adv-x="1136" 
d="M568 228q89 0 141.5 54.5t52.5 143.5v575q0 17 14.5 30t32.5 13h205q18 0 32.5 -13t14.5 -30v-590q0 -197 -133.5 -319t-359.5 -122t-359.5 122t-133.5 319v590q0 17 14 30t32 13h206q18 0 31.5 -13t13.5 -30v-575q0 -87 53.5 -142.5t142.5 -55.5zM287 1588h254
q21 0 36 -10.5t20 -28.5l88 -329q7 -31 -7.5 -49t-46.5 -18h-135q-19 0 -31.5 8t-24.5 29l-196 329q-14 25 -1 47t44 22z" />
    <glyph glyph-name="uacute" unicode="&#xfa;" horiz-adv-x="1136" 
d="M568 228q89 0 141.5 54.5t52.5 143.5v575q0 17 14.5 30t32.5 13h205q18 0 32.5 -13t14.5 -30v-590q0 -197 -133.5 -319t-359.5 -122t-359.5 122t-133.5 319v590q0 17 14 30t32 13h206q18 0 31.5 -13t13.5 -30v-575q0 -87 53.5 -142.5t142.5 -55.5zM601 1588h254
q32 0 44 -22.5t-3 -46.5l-194 -329q-12 -20 -24.5 -28.5t-31.5 -8.5h-135q-32 0 -46.5 18t-7.5 49l86 329q4 18 20 28.5t38 10.5z" />
    <glyph glyph-name="ucircumflex" unicode="&#xfb;" horiz-adv-x="1136" 
d="M568 228q89 0 141.5 54.5t52.5 143.5v575q0 17 14.5 30t32.5 13h205q18 0 32.5 -13t14.5 -30v-590q0 -197 -133.5 -319t-359.5 -122t-359.5 122t-133.5 319v590q0 17 14 30t32 13h206q18 0 31.5 -13t13.5 -30v-575q0 -87 53.5 -142.5t142.5 -55.5zM442 1588h253
q21 0 37 -11t28 -34l198 -323q17 -24 5 -45.5t-33 -21.5h-174q-18 0 -30 5.5t-33 31.5l-124 170l-125 -170q-21 -26 -33 -31.5t-30 -5.5h-172q-23 0 -35 21t3 46l200 323q12 23 28 34t37 11z" />
    <glyph glyph-name="udieresis" unicode="&#xfc;" horiz-adv-x="1136" 
d="M568 228q89 0 141.5 54.5t52.5 143.5v575q0 17 14.5 30t32.5 13h205q18 0 32.5 -13t14.5 -30v-590q0 -197 -133.5 -319t-359.5 -122t-359.5 122t-133.5 319v590q0 17 14 30t32 13h206q18 0 31.5 -13t13.5 -30v-575q0 -87 53.5 -142.5t142.5 -55.5zM338 1144
q-76 0 -130.5 54.5t-54.5 130.5q0 77 54.5 132t130.5 55q77 0 132 -55t55 -132q0 -76 -55 -130.5t-132 -54.5zM799 1144q-77 0 -132.5 54.5t-55.5 130.5q0 77 55.5 132t132.5 55q76 0 130.5 -55t54.5 -132q0 -76 -54.5 -130.5t-130.5 -54.5z" />
    <glyph glyph-name="yacute" unicode="&#xfd;" horiz-adv-x="1128" 
d="M321 -499q-94 0 -175 27.5t-137 77.5q-15 17 -16 39t13 43l74 106q16 24 40.5 27t51.5 -14q40 -26 71 -37t63 -11q49 0 85 27.5t52 78.5l46 135h-87q-20 0 -34 11.5t-22 33.5l-316 928q-10 34 2 52.5t45 18.5h244q18 0 30.5 -12.5t18.5 -34.5l213 -688l196 688
q6 21 20.5 34t35.5 13h228q29 0 40 -19.5t1 -51.5l-372 -1151q-50 -153 -157 -237t-254 -84zM597 1587h254q32 0 44 -22.5t-3 -46.5l-194 -329q-12 -20 -24.5 -28.5t-31.5 -8.5h-135q-32 0 -46.5 18t-7.5 49l86 329q4 18 20 28.5t38 10.5z" />
    <glyph glyph-name="thorn" unicode="&#xfe;" 
d="M659 796q-112 0 -189.5 -79.5t-77.5 -195.5t77.5 -195.5t189.5 -79.5q111 0 186.5 79.5t75.5 195.5t-75.5 195.5t-186.5 79.5zM394 1458v-530q49 69 131.5 107.5t182.5 38.5q217 0 365.5 -155.5t148.5 -393.5q0 -241 -149 -398t-369 -157q-99 0 -184 36.5t-126 99.5v-488
q0 -18 -13 -30.5t-32 -12.5h-209q-18 0 -30.5 12.5t-12.5 30.5v1840q0 20 12.5 34t30.5 14h209q18 0 31.5 -14.5t13.5 -33.5z" />
    <glyph glyph-name="ydieresis" unicode="&#xff;" horiz-adv-x="1128" 
d="M321 -499q-94 0 -175 27.5t-137 77.5q-15 17 -16 39t13 43l74 106q16 24 40.5 27t51.5 -14q40 -26 71 -37t63 -11q49 0 85 27.5t52 78.5l46 135h-87q-20 0 -34 11.5t-22 33.5l-316 928q-10 34 2 52.5t45 18.5h244q18 0 30.5 -12.5t18.5 -34.5l213 -688l196 688
q6 21 20.5 34t35.5 13h228q29 0 40 -19.5t1 -51.5l-372 -1151q-50 -153 -157 -237t-254 -84zM334 1143q-76 0 -130.5 54.5t-54.5 130.5q0 77 54.5 132t130.5 55q77 0 132 -55t55 -132q0 -76 -55 -130.5t-132 -54.5zM795 1143q-77 0 -132.5 54.5t-55.5 130.5q0 77 55.5 132
t132.5 55q76 0 130.5 -55t54.5 -132q0 -76 -54.5 -130.5t-130.5 -54.5z" />
    <glyph glyph-name="Amacron" unicode="&#x100;" horiz-adv-x="1470" 
d="M546 603h364l-181 508zM452 340l-107 -297q-7 -22 -19 -32.5t-30 -10.5h-235q-28 0 -39 20t1 51l535 1388q9 22 25 34.5t36 12.5h232q20 0 35.5 -12.5t24.5 -34.5l538 -1386q13 -32 0 -52.5t-43 -20.5h-249q-18 0 -29.5 10t-18.5 33l-106 297h-551zM1061 1657h-660
q-20 0 -34 14t-14 33v151q0 20 13.5 33.5t34.5 13.5h660q21 0 35.5 -13.5t14.5 -33.5v-151q0 -19 -14.5 -33t-35.5 -14z" />
    <glyph glyph-name="amacron" unicode="&#x101;" 
d="M613 796q-112 0 -188 -79.5t-76 -195.5t76.5 -196t187.5 -80q112 0 188.5 80t76.5 196t-76.5 195.5t-188.5 79.5zM570 -30q-218 0 -370.5 158t-152.5 397q0 237 152.5 393t372.5 156q102 0 185 -40.5t121 -108.5v72q0 19 13.5 33t31.5 14h207q18 0 31.5 -14t13.5 -33
v-952q0 -19 -13.5 -32t-31.5 -13h-207q-19 0 -32 13t-13 32v71q-41 -67 -124 -106.5t-184 -39.5zM953 1195h-660q-20 0 -34 14t-14 33v151q0 20 13.5 33.5t34.5 13.5h660q21 0 35.5 -13.5t14.5 -33.5v-151q0 -19 -14.5 -33t-35.5 -14z" />
    <glyph glyph-name="Abreve" unicode="&#x102;" horiz-adv-x="1470" 
d="M546 603h364l-181 508zM452 340l-107 -297q-7 -22 -19 -32.5t-30 -10.5h-235q-28 0 -39 20t1 51l535 1388q9 22 25 34.5t36 12.5h232q20 0 35.5 -12.5t24.5 -34.5l538 -1386q13 -32 0 -52.5t-43 -20.5h-249q-18 0 -29.5 10t-18.5 33l-106 297h-551zM608 1986v-26
q0 -54 34 -86t90 -32t90.5 32t34.5 86v26q0 16 10.5 26.5t24.5 10.5h178q17 0 27 -10t10 -27v-45q0 -158 -99.5 -248t-275.5 -90q-175 0 -273.5 90t-98.5 248v45q0 16 10 26.5t25 10.5h178q15 0 25 -10.5t10 -26.5z" />
    <glyph glyph-name="abreve" unicode="&#x103;" 
d="M613 796q-112 0 -188 -79.5t-76 -195.5t76.5 -196t187.5 -80q112 0 188.5 80t76.5 196t-76.5 195.5t-188.5 79.5zM570 -30q-218 0 -370.5 158t-152.5 397q0 237 152.5 393t372.5 156q102 0 185 -40.5t121 -108.5v72q0 19 13.5 33t31.5 14h207q18 0 31.5 -14t13.5 -33
v-952q0 -19 -13.5 -32t-31.5 -13h-207q-19 0 -32 13t-13 32v71q-41 -67 -124 -106.5t-184 -39.5zM500 1524v-26q0 -54 34 -86t90 -32t90.5 32t34.5 86v26q0 16 10.5 26.5t24.5 10.5h178q17 0 27 -10t10 -27v-45q0 -158 -99.5 -248t-275.5 -90q-175 0 -273.5 90t-98.5 248v45
q0 16 10 26.5t25 10.5h178q15 0 25 -10.5t10 -26.5z" />
    <glyph glyph-name="Aogonek" unicode="&#x104;" horiz-adv-x="1470" 
d="M546 603h364l-181 508zM452 340l-107 -297q-7 -22 -19 -32.5t-30 -10.5h-235q-28 0 -39 20t1 51l535 1388q9 22 25 34.5t36 12.5h232q20 0 35.5 -12.5t24.5 -34.5l538 -1386q13 -32 0 -52.5t-43 -20.5h-249q-18 0 -29.5 10t-18.5 33l-106 297h-551zM1284 -519
q-124 0 -196.5 56t-72.5 153q0 106 99.5 211t212.5 150l82 -8l13 -26q-68 -94 -100.5 -156t-32.5 -98q0 -38 23.5 -58t68.5 -20q17 0 40.5 3.5t26.5 3.5q20 2 29.5 -11t6.5 -39l-6 -86q-3 -36 -53.5 -55.5t-140.5 -19.5z" />
    <glyph glyph-name="aogonek" unicode="&#x105;" 
d="M613 796q-112 0 -188 -79.5t-76 -195.5t76.5 -196t187.5 -80q112 0 188.5 80t76.5 196t-76.5 195.5t-188.5 79.5zM570 -30q-218 0 -370.5 158t-152.5 397q0 237 152.5 393t372.5 156q102 0 185 -40.5t121 -108.5v72q0 19 13.5 33t31.5 14h207q18 0 31.5 -14t13.5 -33
v-952q0 -19 -13.5 -32t-31.5 -13h-207q-19 0 -32 13t-13 32v71q-41 -67 -124 -106.5t-184 -39.5zM1006 -480q-124 0 -196.5 56t-72.5 153q0 106 99.5 211t212.5 150l82 -8l13 -26q-68 -94 -100.5 -156t-32.5 -98q0 -38 23.5 -58t68.5 -20q17 0 40.5 3.5t26.5 3.5
q20 2 29.5 -11t6.5 -39l-6 -86q-3 -36 -53.5 -55.5t-140.5 -19.5z" />
    <glyph glyph-name="Cacute" unicode="&#x106;" horiz-adv-x="1592" 
d="M52 755q0 331 230 557.5t566 226.5q256 0 451 -123t270 -334q10 -25 1.5 -39t-33.5 -19l-222 -51q-18 -4 -31.5 2t-26.5 30q-63 119 -168 183t-239 64q-204 0 -338.5 -142t-134.5 -355q0 -212 135 -354.5t338 -142.5q134 0 239 64.5t168 183.5q13 24 26.5 30t31.5 2
l222 -52q25 -5 33 -18.5t-1 -39.5q-75 -210 -270 -333t-451 -123q-336 0 -566 226t-230 557zM868 2049h254q32 0 44 -22.5t-3 -46.5l-194 -329q-12 -20 -24.5 -28.5t-31.5 -8.5h-135q-32 0 -46.5 18t-7.5 49l86 329q4 18 20 28.5t38 10.5z" />
    <glyph glyph-name="cacute" unicode="&#x107;" horiz-adv-x="1123" 
d="M609 -30q-240 0 -401 158t-161 393q0 234 162.5 393.5t399.5 159.5q156 0 283 -68.5t193 -187.5q13 -21 5.5 -45t-31.5 -37l-125 -77q-27 -16 -50.5 -12t-42.5 29q-54 65 -107.5 92.5t-122.5 27.5q-113 0 -187.5 -79t-74.5 -196t74.5 -195t187.5 -78q69 0 122.5 27.5
t107.5 92.5q19 25 42.5 29t50.5 -12l125 -77q24 -13 31.5 -37t-5.5 -45q-66 -119 -193 -187.5t-283 -68.5zM610 1587h254q32 0 44 -22.5t-3 -46.5l-194 -329q-12 -20 -24.5 -28.5t-31.5 -8.5h-135q-32 0 -46.5 18t-7.5 49l86 329q4 18 20 28.5t38 10.5z" />
    <glyph glyph-name="Ccircumflex" unicode="&#x108;" horiz-adv-x="1592" 
d="M52 755q0 331 230 557.5t566 226.5q256 0 451 -123t270 -334q10 -25 1.5 -39t-33.5 -19l-222 -51q-18 -4 -31.5 2t-26.5 30q-63 119 -168 183t-239 64q-204 0 -338.5 -142t-134.5 -355q0 -212 135 -354.5t338 -142.5q134 0 239 64.5t168 183.5q13 24 26.5 30t31.5 2
l222 -52q25 -5 33 -18.5t-1 -39.5q-75 -210 -270 -333t-451 -123q-336 0 -566 226t-230 557zM709 2049h253q21 0 37 -11t28 -34l198 -323q17 -24 5 -45.5t-33 -21.5h-174q-18 0 -30 5.5t-33 31.5l-124 170l-125 -170q-21 -26 -33 -31.5t-30 -5.5h-172q-23 0 -35 21t3 46
l200 323q12 23 28 34t37 11z" />
    <glyph glyph-name="ccircumflex" unicode="&#x109;" horiz-adv-x="1123" 
d="M609 -30q-240 0 -401 158t-161 393q0 234 162.5 393.5t399.5 159.5q156 0 283 -68.5t193 -187.5q13 -21 5.5 -45t-31.5 -37l-125 -77q-27 -16 -50.5 -12t-42.5 29q-54 65 -107.5 92.5t-122.5 27.5q-113 0 -187.5 -79t-74.5 -196t74.5 -195t187.5 -78q69 0 122.5 27.5
t107.5 92.5q19 25 42.5 29t50.5 -12l125 -77q24 -13 31.5 -37t-5.5 -45q-66 -119 -193 -187.5t-283 -68.5zM451 1587h253q21 0 37 -11t28 -34l198 -323q17 -24 5 -45.5t-33 -21.5h-174q-18 0 -30 5.5t-33 31.5l-124 170l-125 -170q-21 -26 -33 -31.5t-30 -5.5h-172
q-23 0 -35 21t3 46l200 323q12 23 28 34t37 11z" />
    <glyph glyph-name="Cdotaccent" unicode="&#x10a;" horiz-adv-x="1592" 
d="M52 755q0 331 230 557.5t566 226.5q256 0 451 -123t270 -334q10 -25 1.5 -39t-33.5 -19l-222 -51q-18 -4 -31.5 2t-26.5 30q-63 119 -168 183t-239 64q-204 0 -338.5 -142t-134.5 -355q0 -212 135 -354.5t338 -142.5q134 0 239 64.5t168 183.5q13 24 26.5 30t31.5 2
l222 -52q25 -5 33 -18.5t-1 -39.5q-75 -210 -270 -333t-451 -123q-336 0 -566 226t-230 557zM1033 1820q0 -82 -58.5 -141t-139.5 -59q-83 0 -142 59t-59 141t59 140t142 58q81 0 139.5 -58t58.5 -140z" />
    <glyph glyph-name="cdotaccent" unicode="&#x10b;" horiz-adv-x="1123" 
d="M609 -30q-240 0 -401 158t-161 393q0 234 162.5 393.5t399.5 159.5q156 0 283 -68.5t193 -187.5q13 -21 5.5 -45t-31.5 -37l-125 -77q-27 -16 -50.5 -12t-42.5 29q-54 65 -107.5 92.5t-122.5 27.5q-113 0 -187.5 -79t-74.5 -196t74.5 -195t187.5 -78q69 0 122.5 27.5
t107.5 92.5q19 25 42.5 29t50.5 -12l125 -77q24 -13 31.5 -37t-5.5 -45q-66 -119 -193 -187.5t-283 -68.5zM775 1358q0 -82 -58.5 -141t-139.5 -59q-83 0 -142 59t-59 141t59 140t142 58q81 0 139.5 -58t58.5 -140z" />
    <glyph glyph-name="Ccaron" unicode="&#x10c;" horiz-adv-x="1592" 
d="M52 755q0 331 230 557.5t566 226.5q256 0 451 -123t270 -334q10 -25 1.5 -39t-33.5 -19l-222 -51q-18 -4 -31.5 2t-26.5 30q-63 119 -168 183t-239 64q-204 0 -338.5 -142t-134.5 -355q0 -212 135 -354.5t338 -142.5q134 0 239 64.5t168 183.5q13 24 26.5 30t31.5 2
l222 -52q25 -5 33 -18.5t-1 -39.5q-75 -210 -270 -333t-451 -123q-336 0 -566 226t-230 557zM961 1614h-253q-20 0 -36 11.5t-29 33.5l-200 323q-14 27 -3 47t35 20h172q20 0 32 -6t31 -31l125 -168l124 168q19 25 31 31t32 6h174q22 0 33.5 -20.5t-5.5 -46.5l-198 -323
q-13 -22 -29 -33.5t-36 -11.5z" />
    <glyph glyph-name="ccaron" unicode="&#x10d;" horiz-adv-x="1123" 
d="M609 -30q-240 0 -401 158t-161 393q0 234 162.5 393.5t399.5 159.5q156 0 283 -68.5t193 -187.5q13 -21 5.5 -45t-31.5 -37l-125 -77q-27 -16 -50.5 -12t-42.5 29q-54 65 -107.5 92.5t-122.5 27.5q-113 0 -187.5 -79t-74.5 -196t74.5 -195t187.5 -78q69 0 122.5 27.5
t107.5 92.5q19 25 42.5 29t50.5 -12l125 -77q24 -13 31.5 -37t-5.5 -45q-66 -119 -193 -187.5t-283 -68.5zM703 1152h-253q-20 0 -36 11.5t-29 33.5l-200 323q-14 27 -3 47t35 20h172q20 0 32 -6t31 -31l125 -168l124 168q19 25 31 31t32 6h174q22 0 33.5 -20.5t-5.5 -46.5
l-198 -323q-13 -22 -29 -33.5t-36 -11.5z" />
    <glyph glyph-name="Dcaron" unicode="&#x10e;" horiz-adv-x="1582" 
d="M174 1506h579q350 0 561.5 -206t211.5 -545t-212.5 -547t-560.5 -208h-579q-20 0 -33.5 14t-13.5 35v1410q0 20 13.5 33.5t33.5 13.5zM437 284h318q197 0 322.5 133t125.5 338q0 206 -125 336.5t-323 130.5h-318v-938zM922 1614h-253q-20 0 -36 11.5t-29 33.5l-200 323
q-14 27 -3 47t35 20h172q20 0 32 -6t31 -31l125 -168l124 168q19 25 31 31t32 6h174q22 0 33.5 -20.5t-5.5 -46.5l-198 -323q-13 -22 -29 -33.5t-36 -11.5z" />
    <glyph glyph-name="dcaron" unicode="&#x10f;" horiz-adv-x="1453" 
d="M613 796q-112 0 -188 -79.5t-76 -195.5t76.5 -196t187.5 -80q112 0 188.5 80t76.5 196t-76.5 195.5t-188.5 79.5zM570 -30q-219 0 -371 158t-152 397q0 236 151 392.5t366 156.5q103 0 187.5 -39t124.5 -103v528q0 19 13.5 32.5t31.5 13.5h207q19 0 33 -13.5t14 -32.5
v-1415q0 -19 -14 -32t-33 -13h-205q-19 0 -32 13t-13 32v71q-47 -69 -128 -107.5t-180 -38.5zM1271 1059l103 142q-46 22 -73.5 64.5t-27.5 92.5q0 76 52 128.5t129 52.5q79 0 133 -55t54 -139q0 -55 -31.5 -118t-97.5 -138l-95 -110q-23 -28 -47 -32.5t-50 13.5l-40 28
q-19 13 -21 33t12 38z" />
    <glyph glyph-name="Dcroat" unicode="&#x110;" horiz-adv-x="1610" 
d="M1554 755q0 -339 -212.5 -547t-560.5 -208h-579q-20 0 -33.5 14t-13.5 35v586h-116q-20 0 -34 14t-14 35v147q0 19 14.5 33t33.5 14h116v581q0 20 13.5 33.5t33.5 13.5h579q350 0 561.5 -206t211.5 -545zM465 635v-351h318q197 0 322.5 133t125.5 338q0 206 -125 336.5
t-323 130.5h-318v-344h348q20 0 34 -14t14 -33v-147q0 -21 -13.5 -35t-34.5 -14h-348z" />
    <glyph glyph-name="dcroat" unicode="&#x111;" 
d="M613 796q-112 0 -188 -79.5t-76 -195.5t76.5 -196t187.5 -80q112 0 188.5 80t76.5 196t-76.5 195.5t-188.5 79.5zM878 45v71q-47 -69 -128 -107.5t-180 -38.5q-219 0 -371 158t-152 397q0 236 151 392.5t366 156.5q103 0 187.5 -39t124.5 -103v258h-202q-20 0 -34 14
t-14 34v96q0 20 14 35t34 15h202v76q0 19 13.5 32.5t31.5 13.5h207q19 0 33 -13.5t14 -32.5v-76h88q19 0 33.5 -15t14.5 -35v-96q0 -19 -14 -33.5t-34 -14.5h-88v-1145q0 -19 -14 -32t-33 -13h-205q-19 0 -32 13t-13 32z" />
    <glyph glyph-name="Emacron" unicode="&#x112;" horiz-adv-x="1356" 
d="M174 1506h1078q20 0 34 -14t14 -35v-187q0 -20 -14 -34t-34 -14h-815v-327h469q21 0 34 -14t13 -35v-177q0 -21 -13 -35t-34 -14h-469v-336h826q20 0 34 -13.5t14 -33.5v-188q0 -20 -14 -34.5t-34 -14.5h-1089q-20 0 -33.5 14t-13.5 35v1410q0 20 13.5 33.5t33.5 13.5z
M1037 1657h-660q-20 0 -34 14t-14 33v151q0 20 13.5 33.5t34.5 13.5h660q21 0 35.5 -13.5t14.5 -33.5v-151q0 -19 -14.5 -33t-35.5 -14z" />
    <glyph glyph-name="emacron" unicode="&#x113;" horiz-adv-x="1171" 
d="M359 635h478q-17 92 -82.5 147t-154.5 55q-88 0 -154 -55.5t-87 -146.5zM1067 168q-73 -93 -194.5 -145.5t-267.5 -52.5q-241 0 -399.5 156t-158.5 391q0 238 156 397.5t393 159.5q231 0 381.5 -151t150.5 -370v-67q0 -26 -12.5 -39.5t-37.5 -13.5h-722q17 -97 88.5 -155
t166.5 -58q69 0 126 24.5t111 78.5q17 17 38 20t39 -9l132 -93q16 -12 19 -34t-9 -39zM916 1195h-660q-20 0 -34 14t-14 33v151q0 20 13.5 33.5t34.5 13.5h660q21 0 35.5 -13.5t14.5 -33.5v-151q0 -19 -14.5 -33t-35.5 -14z" />
    <glyph glyph-name="Ebreve" unicode="&#x114;" horiz-adv-x="1356" 
d="M174 1506h1078q20 0 34 -14t14 -35v-187q0 -20 -14 -34t-34 -14h-815v-327h469q21 0 34 -14t13 -35v-177q0 -21 -13 -35t-34 -14h-469v-336h826q20 0 34 -13.5t14 -33.5v-188q0 -20 -14 -34.5t-34 -14.5h-1089q-20 0 -33.5 14t-13.5 35v1410q0 20 13.5 33.5t33.5 13.5z
M584 1986v-26q0 -54 34 -86t90 -32t90.5 32t34.5 86v26q0 16 10.5 26.5t24.5 10.5h178q17 0 27 -10t10 -27v-45q0 -158 -99.5 -248t-275.5 -90q-175 0 -273.5 90t-98.5 248v45q0 16 10 26.5t25 10.5h178q15 0 25 -10.5t10 -26.5z" />
    <glyph glyph-name="ebreve" unicode="&#x115;" horiz-adv-x="1171" 
d="M359 635h478q-17 92 -82.5 147t-154.5 55q-88 0 -154 -55.5t-87 -146.5zM1067 168q-73 -93 -194.5 -145.5t-267.5 -52.5q-241 0 -399.5 156t-158.5 391q0 238 156 397.5t393 159.5q231 0 381.5 -151t150.5 -370v-67q0 -26 -12.5 -39.5t-37.5 -13.5h-722q17 -97 88.5 -155
t166.5 -58q69 0 126 24.5t111 78.5q17 17 38 20t39 -9l132 -93q16 -12 19 -34t-9 -39zM463 1524v-26q0 -54 34 -86t90 -32t90.5 32t34.5 86v26q0 16 10.5 26.5t24.5 10.5h178q17 0 27 -10t10 -27v-45q0 -158 -99.5 -248t-275.5 -90q-175 0 -273.5 90t-98.5 248v45
q0 16 10 26.5t25 10.5h178q15 0 25 -10.5t10 -26.5z" />
    <glyph glyph-name="Edotaccent" unicode="&#x116;" horiz-adv-x="1356" 
d="M174 1506h1078q20 0 34 -14t14 -35v-187q0 -20 -14 -34t-34 -14h-815v-327h469q21 0 34 -14t13 -35v-177q0 -21 -13 -35t-34 -14h-469v-336h826q20 0 34 -13.5t14 -33.5v-188q0 -20 -14 -34.5t-34 -14.5h-1089q-20 0 -33.5 14t-13.5 35v1410q0 20 13.5 33.5t33.5 13.5z
M906 1820q0 -82 -58.5 -141t-139.5 -59q-83 0 -142 59t-59 141t59 140t142 58q81 0 139.5 -58t58.5 -140z" />
    <glyph glyph-name="edotaccent" unicode="&#x117;" horiz-adv-x="1171" 
d="M359 635h478q-17 92 -82.5 147t-154.5 55q-88 0 -154 -55.5t-87 -146.5zM1067 168q-73 -93 -194.5 -145.5t-267.5 -52.5q-241 0 -399.5 156t-158.5 391q0 238 156 397.5t393 159.5q231 0 381.5 -151t150.5 -370v-67q0 -26 -12.5 -39.5t-37.5 -13.5h-722q17 -97 88.5 -155
t166.5 -58q69 0 126 24.5t111 78.5q17 17 38 20t39 -9l132 -93q16 -12 19 -34t-9 -39zM785 1358q0 -82 -58.5 -141t-139.5 -59q-83 0 -142 59t-59 141t59 140t142 58q81 0 139.5 -58t58.5 -140z" />
    <glyph glyph-name="Eogonek" unicode="&#x118;" horiz-adv-x="1356" 
d="M174 1506h1078q20 0 34 -14t14 -35v-187q0 -20 -14 -34t-34 -14h-815v-327h469q21 0 34 -14t13 -35v-177q0 -21 -13 -35t-34 -14h-469v-336h826q20 0 34 -13.5t14 -33.5v-188q0 -20 -14 -34.5t-34 -14.5h-1089q-20 0 -33.5 14t-13.5 35v1410q0 20 13.5 33.5t33.5 13.5z
M1017 -519q-124 0 -196.5 56t-72.5 153q0 106 99.5 211t212.5 150l82 -8l13 -26q-68 -94 -100.5 -156t-32.5 -98q0 -38 23.5 -58t68.5 -20q17 0 40.5 3.5t26.5 3.5q20 2 29.5 -11t6.5 -39l-6 -86q-3 -36 -53.5 -55.5t-140.5 -19.5z" />
    <glyph glyph-name="eogonek" unicode="&#x119;" horiz-adv-x="1171" 
d="M359 635h478q-17 92 -82.5 147t-154.5 55q-88 0 -154 -55.5t-87 -146.5zM1067 168q-73 -93 -194.5 -145.5t-267.5 -52.5q-241 0 -399.5 156t-158.5 391q0 238 156 397.5t393 159.5q231 0 381.5 -151t150.5 -370v-67q0 -26 -12.5 -39.5t-37.5 -13.5h-722q17 -97 88.5 -155
t166.5 -58q69 0 126 24.5t111 78.5q17 17 38 20t39 -9l132 -93q16 -12 19 -34t-9 -39zM750 -472q-124 0 -196.5 56t-72.5 153q0 106 99.5 211t212.5 150l82 -8l13 -26q-68 -94 -100.5 -156t-32.5 -98q0 -38 23.5 -58t68.5 -20q17 0 40.5 3.5t26.5 3.5q20 2 29.5 -11t6.5 -39
l-6 -86q-3 -36 -53.5 -55.5t-140.5 -19.5z" />
    <glyph glyph-name="Ecaron" unicode="&#x11a;" horiz-adv-x="1356" 
d="M174 1506h1078q20 0 34 -14t14 -35v-187q0 -20 -14 -34t-34 -14h-815v-327h469q21 0 34 -14t13 -35v-177q0 -21 -13 -35t-34 -14h-469v-336h826q20 0 34 -13.5t14 -33.5v-188q0 -20 -14 -34.5t-34 -14.5h-1089q-20 0 -33.5 14t-13.5 35v1410q0 20 13.5 33.5t33.5 13.5z
M834 1614h-253q-20 0 -36 11.5t-29 33.5l-200 323q-14 27 -3 47t35 20h172q20 0 32 -6t31 -31l125 -168l124 168q19 25 31 31t32 6h174q22 0 33.5 -20.5t-5.5 -46.5l-198 -323q-13 -22 -29 -33.5t-36 -11.5z" />
    <glyph glyph-name="ecaron" unicode="&#x11b;" horiz-adv-x="1171" 
d="M359 635h478q-17 92 -82.5 147t-154.5 55q-88 0 -154 -55.5t-87 -146.5zM1067 168q-73 -93 -194.5 -145.5t-267.5 -52.5q-241 0 -399.5 156t-158.5 391q0 238 156 397.5t393 159.5q231 0 381.5 -151t150.5 -370v-67q0 -26 -12.5 -39.5t-37.5 -13.5h-722q17 -97 88.5 -155
t166.5 -58q69 0 126 24.5t111 78.5q17 17 38 20t39 -9l132 -93q16 -12 19 -34t-9 -39zM713 1152h-253q-20 0 -36 11.5t-29 33.5l-200 323q-14 27 -3 47t35 20h172q20 0 32 -6t31 -31l125 -168l124 168q19 25 31 31t32 6h174q22 0 33.5 -20.5t-5.5 -46.5l-198 -323
q-13 -22 -29 -33.5t-36 -11.5z" />
    <glyph glyph-name="Gcircumflex" unicode="&#x11c;" horiz-adv-x="1685" 
d="M1347 50v164q-85 -120 -221 -181t-319 -61q-322 0 -538.5 223.5t-216.5 559.5q0 341 228 562.5t574 221.5q257 0 456.5 -123.5t279.5 -333.5q10 -22 2 -37t-34 -21l-215 -51q-20 -6 -35.5 1.5t-27.5 30.5q-62 119 -171.5 183t-252.5 64q-208 0 -343.5 -141.5
t-135.5 -359.5q0 -214 136 -353.5t348 -139.5q114 0 208 50t140 131h-187q-21 0 -35 14t-14 35v160q0 21 14 35t35 14h555q22 0 36 -13.5t14 -33.5v-600q0 -21 -14.5 -35.5t-35.5 -14.5h-180q-21 0 -35.5 14.5t-14.5 35.5zM722 2052h253q21 0 37 -11t28 -34l198 -323
q17 -24 5 -45.5t-33 -21.5h-174q-18 0 -30 5.5t-33 31.5l-124 170l-125 -170q-21 -26 -33 -31.5t-30 -5.5h-172q-23 0 -35 21t3 46l200 323q12 23 28 34t37 11z" />
    <glyph glyph-name="gcircumflex" unicode="&#x11d;" horiz-adv-x="1272" 
d="M613 801q-112 0 -187 -78t-75 -193q0 -117 75 -195.5t187 -78.5q113 0 189 78.5t76 195.5q0 115 -76.5 193t-188.5 78zM334 -101q66 -73 134 -105.5t147 -32.5q118 0 191.5 72.5t73.5 185.5v108q-39 -61 -121 -98t-182 -37q-229 0 -378.5 150.5t-149.5 389.5
q0 238 148 391t367 153q103 0 189.5 -41t126.5 -107v71q0 19 13 32t32 13h205q19 0 32 -13t13 -32v-1003q0 -215 -157.5 -354t-402.5 -139q-163 0 -301 62.5t-206 157.5q-11 16 -9 36t19 32l157 110q16 11 32.5 10.5t26.5 -12.5zM494 1587h253q21 0 37 -11t28 -34l198 -323
q17 -24 5 -45.5t-33 -21.5h-174q-18 0 -30 5.5t-33 31.5l-124 170l-125 -170q-21 -26 -33 -31.5t-30 -5.5h-172q-23 0 -35 21t3 46l200 323q12 23 28 34t37 11z" />
    <glyph glyph-name="Gbreve" unicode="&#x11e;" horiz-adv-x="1685" 
d="M1347 50v164q-85 -120 -221 -181t-319 -61q-322 0 -538.5 223.5t-216.5 559.5q0 341 228 562.5t574 221.5q257 0 456.5 -123.5t279.5 -333.5q10 -22 2 -37t-34 -21l-215 -51q-20 -6 -35.5 1.5t-27.5 30.5q-62 119 -171.5 183t-252.5 64q-208 0 -343.5 -141.5
t-135.5 -359.5q0 -214 136 -353.5t348 -139.5q114 0 208 50t140 131h-187q-21 0 -35 14t-14 35v160q0 21 14 35t35 14h555q22 0 36 -13.5t14 -33.5v-600q0 -21 -14.5 -35.5t-35.5 -14.5h-180q-21 0 -35.5 14.5t-14.5 35.5zM724 1989v-26q0 -54 34 -86t90 -32t90.5 32
t34.5 86v26q0 16 10.5 26.5t24.5 10.5h178q17 0 27 -10t10 -27v-45q0 -158 -99.5 -248t-275.5 -90q-175 0 -273.5 90t-98.5 248v45q0 16 10 26.5t25 10.5h178q15 0 25 -10.5t10 -26.5z" />
    <glyph glyph-name="gbreve" unicode="&#x11f;" horiz-adv-x="1272" 
d="M613 801q-112 0 -187 -78t-75 -193q0 -117 75 -195.5t187 -78.5q113 0 189 78.5t76 195.5q0 115 -76.5 193t-188.5 78zM334 -101q66 -73 134 -105.5t147 -32.5q118 0 191.5 72.5t73.5 185.5v108q-39 -61 -121 -98t-182 -37q-229 0 -378.5 150.5t-149.5 389.5
q0 238 148 391t367 153q103 0 189.5 -41t126.5 -107v71q0 19 13 32t32 13h205q19 0 32 -13t13 -32v-1003q0 -215 -157.5 -354t-402.5 -139q-163 0 -301 62.5t-206 157.5q-11 16 -9 36t19 32l157 110q16 11 32.5 10.5t26.5 -12.5zM496 1524v-26q0 -54 34 -86t90 -32t90.5 32
t34.5 86v26q0 16 10.5 26.5t24.5 10.5h178q17 0 27 -10t10 -27v-45q0 -158 -99.5 -248t-275.5 -90q-175 0 -273.5 90t-98.5 248v45q0 16 10 26.5t25 10.5h178q15 0 25 -10.5t10 -26.5z" />
    <glyph glyph-name="Gdotaccent" unicode="&#x120;" horiz-adv-x="1685" 
d="M1347 50v164q-85 -120 -221 -181t-319 -61q-322 0 -538.5 223.5t-216.5 559.5q0 341 228 562.5t574 221.5q257 0 456.5 -123.5t279.5 -333.5q10 -22 2 -37t-34 -21l-215 -51q-20 -6 -35.5 1.5t-27.5 30.5q-62 119 -171.5 183t-252.5 64q-208 0 -343.5 -141.5
t-135.5 -359.5q0 -214 136 -353.5t348 -139.5q114 0 208 50t140 131h-187q-21 0 -35 14t-14 35v160q0 21 14 35t35 14h555q22 0 36 -13.5t14 -33.5v-600q0 -21 -14.5 -35.5t-35.5 -14.5h-180q-21 0 -35.5 14.5t-14.5 35.5zM1046 1823q0 -82 -58.5 -141t-139.5 -59
q-83 0 -142 59t-59 141t59 140t142 58q81 0 139.5 -58t58.5 -140z" />
    <glyph glyph-name="gdotaccent" unicode="&#x121;" horiz-adv-x="1272" 
d="M613 801q-112 0 -187 -78t-75 -193q0 -117 75 -195.5t187 -78.5q113 0 189 78.5t76 195.5q0 115 -76.5 193t-188.5 78zM334 -101q66 -73 134 -105.5t147 -32.5q118 0 191.5 72.5t73.5 185.5v108q-39 -61 -121 -98t-182 -37q-229 0 -378.5 150.5t-149.5 389.5
q0 238 148 391t367 153q103 0 189.5 -41t126.5 -107v71q0 19 13 32t32 13h205q19 0 32 -13t13 -32v-1003q0 -215 -157.5 -354t-402.5 -139q-163 0 -301 62.5t-206 157.5q-11 16 -9 36t19 32l157 110q16 11 32.5 10.5t26.5 -12.5zM818 1358q0 -82 -58.5 -141t-139.5 -59
q-83 0 -142 59t-59 141t59 140t142 58q81 0 139.5 -58t58.5 -140z" />
    <glyph glyph-name="Gcommaaccent" unicode="&#x122;" horiz-adv-x="1685" 
d="M1347 50v164q-85 -120 -221 -181t-319 -61q-322 0 -538.5 223.5t-216.5 559.5q0 341 228 562.5t574 221.5q257 0 456.5 -123.5t279.5 -333.5q10 -22 2 -37t-34 -21l-215 -51q-20 -6 -35.5 1.5t-27.5 30.5q-62 119 -171.5 183t-252.5 64q-208 0 -343.5 -141.5
t-135.5 -359.5q0 -214 136 -353.5t348 -139.5q114 0 208 50t140 131h-187q-21 0 -35 14t-14 35v160q0 21 14 35t35 14h555q22 0 36 -13.5t14 -33.5v-600q0 -21 -14.5 -35.5t-35.5 -14.5h-180q-21 0 -35.5 14.5t-14.5 35.5zM675 -566l99 137q-45 23 -71 64t-26 89
q0 75 50.5 125t125.5 50q76 0 128.5 -53.5t52.5 -134.5q0 -52 -30 -111.5t-97 -137.5l-90 -108q-22 -25 -44.5 -29t-48.5 12l-41 28q-19 13 -21 31.5t13 37.5z" />
    <glyph glyph-name="gcommaaccent" unicode="&#x123;" horiz-adv-x="1272" 
d="M613 801q-112 0 -187 -78t-75 -193q0 -117 75 -195.5t187 -78.5q113 0 189 78.5t76 195.5q0 115 -76.5 193t-188.5 78zM334 -101q66 -73 134 -105.5t147 -32.5q118 0 191.5 72.5t73.5 185.5v108q-39 -61 -121 -98t-182 -37q-229 0 -378.5 150.5t-149.5 389.5
q0 238 148 391t367 153q103 0 189.5 -41t126.5 -107v71q0 19 13 32t32 13h205q19 0 32 -13t13 -32v-1003q0 -215 -157.5 -354t-402.5 -139q-163 0 -301 62.5t-206 157.5q-11 16 -9 36t19 32l157 110q16 11 32.5 10.5t26.5 -12.5zM800 1661l-122 -168q51 -24 81.5 -70.5
t30.5 -101.5q0 -83 -57.5 -139.5t-143.5 -56.5q-85 0 -143.5 60t-58.5 151q0 64 32 129.5t110 154.5l114 131q22 27 47.5 31t56.5 -16l45 -28q21 -13 23 -35t-15 -42z" />
    <glyph glyph-name="Hcircumflex" unicode="&#x124;" horiz-adv-x="1593" 
d="M390 0h-216q-20 0 -33.5 14t-13.5 35v1410q0 20 13.5 33.5t33.5 13.5h216q19 0 33 -14t14 -33v-564h719v564q0 20 13.5 33.5t33.5 13.5h215q20 0 34 -14t14 -33v-1410q0 -20 -14 -34.5t-34 -14.5h-215q-20 0 -33.5 14t-13.5 35v569h-719v-569q0 -20 -14 -34.5t-33 -14.5z
M670 2049h253q21 0 37 -11t28 -34l198 -323q17 -24 5 -45.5t-33 -21.5h-174q-18 0 -30 5.5t-33 31.5l-124 170l-125 -170q-21 -26 -33 -31.5t-30 -5.5h-172q-23 0 -35 21t3 46l200 323q12 23 28 34t37 11z" />
    <glyph glyph-name="hcircumflex" unicode="&#x125;" horiz-adv-x="1252" 
d="M872 41v514q0 114 -64 181t-173 67q-107 0 -174 -68.5t-67 -179.5v-514q0 -17 -14.5 -29t-33.5 -12h-206q-18 0 -30.5 13t-12.5 32v1416q0 19 12.5 32t30.5 13h206q19 0 33.5 -12t14.5 -29v-546q53 74 140.5 114.5t197.5 40.5q200 0 318.5 -125t118.5 -329v-579
q0 -17 -14.5 -29t-33.5 -12h-201q-19 0 -33.5 12t-14.5 29zM120 2048h253q21 0 37 -11t28 -34l198 -323q17 -24 5 -45.5t-33 -21.5h-174q-18 0 -30 5.5t-33 31.5l-124 170l-125 -170q-21 -26 -33 -31.5t-30 -5.5h-172q-23 0 -35 21t3 46l200 323q12 23 28 34t37 11z" />
    <glyph glyph-name="Hbar" unicode="&#x126;" horiz-adv-x="1665" 
d="M473 1085v-190h719v190h-719zM473 618v-569q0 -20 -14 -34.5t-33 -14.5h-216q-20 0 -33.5 14t-13.5 35v1036h-65q-20 0 -34 14t-14 35v121q0 21 14 35t34 14h65v155q0 20 13.5 33.5t33.5 13.5h216q19 0 33 -14t14 -33v-155h719v155q0 20 13.5 33.5t33.5 13.5h215
q20 0 34 -14t14 -33v-155h63q21 0 35.5 -14t14.5 -35v-121q0 -21 -14.5 -35t-35.5 -14h-63v-1036q0 -20 -14 -34.5t-34 -14.5h-215q-20 0 -33.5 14t-13.5 35v569h-719z" />
    <glyph glyph-name="hbar" unicode="&#x127;" horiz-adv-x="1252" 
d="M394 555v-514q0 -17 -14.5 -29t-33.5 -12h-206q-18 0 -30.5 13t-12.5 32v1145h-93q-19 0 -33 14t-14 33v97q0 20 14 35t33 15h93v77q0 19 12.5 32t30.5 13h206q19 0 33.5 -12t14.5 -29v-81h202q19 0 32 -15t13 -35v-97q0 -19 -13 -33t-32 -14h-202v-271
q53 74 140.5 114.5t197.5 40.5q200 0 318.5 -125t118.5 -329v-579q0 -17 -14.5 -29t-33.5 -12h-201q-19 0 -33.5 12t-14.5 29v514q0 114 -64 181t-173 67q-107 0 -174 -68.5t-67 -179.5z" />
    <glyph glyph-name="Itilde" unicode="&#x128;" horiz-adv-x="562" 
d="M390 0h-216q-20 0 -33.5 14t-13.5 35v1410q0 20 13.5 33.5t33.5 13.5h216q19 0 33 -14t14 -33v-1410q0 -20 -14 -34.5t-33 -14.5zM256 1685q-64 18 -89 23t-40 5q-26 0 -49 -9t-55 -36q-20 -16 -29.5 -21t-19.5 -5q-12 0 -21 5.5t-22 22.5l-65 93q-9 12 -14 26.5t-5 31.5
q0 56 75 113t168 57q29 0 70.5 -7.5t129.5 -31.5q70 -19 98.5 -24.5t45.5 -5.5q26 0 49 9t56 36q20 16 30 21t20 5q12 0 22.5 -6.5t23.5 -23.5l60 -91q8 -14 12.5 -29.5t4.5 -28.5q0 -57 -74 -113.5t-167 -56.5q-33 0 -78 8t-137 33z" />
    <glyph glyph-name="itilde" unicode="&#x129;" horiz-adv-x="491" 
d="M349 0h-207q-19 0 -32 14t-13 33v949q0 21 12.5 34.5t32.5 13.5h207q19 0 32 -13.5t13 -34.5v-949q0 -19 -13.5 -33t-31.5 -14zM217 1223q-64 18 -89 23t-40 5q-26 0 -49 -9t-55 -36q-20 -16 -29.5 -21t-19.5 -5q-12 0 -21 5.5t-22 22.5l-65 93q-9 12 -14 26.5t-5 31.5
q0 56 75 113t168 57q29 0 70.5 -7.5t129.5 -31.5q70 -19 98.5 -24.5t45.5 -5.5q26 0 49 9t56 36q20 16 30 21t20 5q12 0 22.5 -6.5t23.5 -23.5l60 -91q8 -14 12.5 -29.5t4.5 -28.5q0 -57 -74 -113.5t-167 -56.5q-33 0 -78 8t-137 33z" />
    <glyph glyph-name="Imacron" unicode="&#x12a;" horiz-adv-x="562" 
d="M390 0h-216q-20 0 -33.5 14t-13.5 35v1410q0 20 13.5 33.5t33.5 13.5h216q19 0 33 -14t14 -33v-1410q0 -20 -14 -34.5t-33 -14.5zM611 1657h-660q-20 0 -34 14t-14 33v151q0 20 13.5 33.5t34.5 13.5h660q21 0 35.5 -13.5t14.5 -33.5v-151q0 -19 -14.5 -33t-35.5 -14z" />
    <glyph glyph-name="imacron" unicode="&#x12b;" horiz-adv-x="491" 
d="M349 0h-207q-19 0 -32 14t-13 33v949q0 21 12.5 34.5t32.5 13.5h207q19 0 32 -13.5t13 -34.5v-949q0 -19 -13.5 -33t-31.5 -14zM572 1195h-660q-20 0 -34 14t-14 33v151q0 20 13.5 33.5t34.5 13.5h660q21 0 35.5 -13.5t14.5 -33.5v-151q0 -19 -14.5 -33t-35.5 -14z" />
    <glyph glyph-name="Ibreve" unicode="&#x12c;" horiz-adv-x="562" 
d="M390 0h-216q-20 0 -33.5 14t-13.5 35v1410q0 20 13.5 33.5t33.5 13.5h216q19 0 33 -14t14 -33v-1410q0 -20 -14 -34.5t-33 -14.5zM158 1986v-26q0 -54 34 -86t90 -32t90.5 32t34.5 86v26q0 16 10.5 26.5t24.5 10.5h178q17 0 27 -10t10 -27v-45q0 -158 -99.5 -248
t-275.5 -90q-175 0 -273.5 90t-98.5 248v45q0 16 10 26.5t25 10.5h178q15 0 25 -10.5t10 -26.5z" />
    <glyph glyph-name="ibreve" unicode="&#x12d;" horiz-adv-x="491" 
d="M349 0h-207q-19 0 -32 14t-13 33v949q0 21 12.5 34.5t32.5 13.5h207q19 0 32 -13.5t13 -34.5v-949q0 -19 -13.5 -33t-31.5 -14zM119 1524v-26q0 -54 34 -86t90 -32t90.5 32t34.5 86v26q0 16 10.5 26.5t24.5 10.5h178q17 0 27 -10t10 -27v-45q0 -158 -99.5 -248
t-275.5 -90q-175 0 -273.5 90t-98.5 248v45q0 16 10 26.5t25 10.5h178q15 0 25 -10.5t10 -26.5z" />
    <glyph glyph-name="Iogonek" unicode="&#x12e;" horiz-adv-x="562" 
d="M390 0h-216q-20 0 -33.5 14t-13.5 35v1410q0 20 13.5 33.5t33.5 13.5h216q19 0 33 -14t14 -33v-1410q0 -20 -14 -34.5t-33 -14.5zM277 -519q-124 0 -196.5 56t-72.5 153q0 106 99.5 211t212.5 150l82 -8l13 -26q-68 -94 -100.5 -156t-32.5 -98q0 -38 23.5 -58t68.5 -20
q17 0 40.5 3.5t26.5 3.5q20 2 29.5 -11t6.5 -39l-6 -86q-3 -36 -53.5 -55.5t-140.5 -19.5z" />
    <glyph glyph-name="iogonek" unicode="&#x12f;" horiz-adv-x="491" 
d="M426 1326q0 -73 -53.5 -127t-127.5 -54t-127 53.5t-53 127.5t53 127t127 53t127.5 -53t53.5 -127zM349 0h-207q-19 0 -32 14t-13 33v949q0 21 12.5 34.5t32.5 13.5h207q19 0 32 -13.5t13 -34.5v-949q0 -19 -13.5 -33t-31.5 -14zM225 -519q-124 0 -196.5 56t-72.5 153
q0 106 99.5 211t212.5 150l82 -8l13 -26q-68 -94 -100.5 -156t-32.5 -98q0 -38 23.5 -58t68.5 -20q17 0 40.5 3.5t26.5 3.5q20 2 29.5 -11t6.5 -39l-6 -86q-3 -36 -53.5 -55.5t-140.5 -19.5z" />
    <glyph glyph-name="Idotaccent" unicode="&#x130;" horiz-adv-x="562" 
d="M390 0h-216q-20 0 -33.5 14t-13.5 35v1410q0 20 13.5 33.5t33.5 13.5h216q19 0 33 -14t14 -33v-1410q0 -20 -14 -34.5t-33 -14.5zM480 1820q0 -82 -58.5 -141t-139.5 -59q-83 0 -142 59t-59 141t59 140t142 58q81 0 139.5 -58t58.5 -140z" />
    <glyph glyph-name="dotlessi" unicode="&#x131;" horiz-adv-x="491" 
d="M349 0h-207q-19 0 -32 14t-13 33v949q0 21 12.5 34.5t32.5 13.5h207q19 0 32 -13.5t13 -34.5v-949q0 -19 -13.5 -33t-31.5 -14z" />
    <glyph glyph-name="IJ" unicode="&#x132;" horiz-adv-x="1685" 
d="M390 1h-216q-20 0 -33.5 14t-13.5 35v1410q0 20 13.5 33.5t33.5 13.5h216q19 0 33 -14t14 -33v-1410q0 -20 -14 -34.5t-33 -14.5zM1029 -30q-129 0 -236 34t-190 102q-21 15 -23.5 38.5t18.5 47.5l119 135q15 17 33 18.5t53 -20.5q54 -37 106 -55t105 -18q116 0 179.5 71
t63.5 200v936q0 20 14 34t35 14h214q20 0 33.5 -14t13.5 -34v-964q0 -238 -152 -381.5t-386 -143.5z" />
    <glyph glyph-name="ij" unicode="&#x133;" horiz-adv-x="979" 
d="M426 1326q0 -73 -53.5 -127t-127.5 -54t-127 53.5t-53 127.5t53 127t127 53t127.5 -53t53.5 -127zM349 0h-207q-19 0 -32 14t-13 33v949q0 21 12.5 34.5t32.5 13.5h207q19 0 32 -13.5t13 -34.5v-949q0 -19 -13.5 -33t-31.5 -14zM915 1326q0 -73 -53.5 -127t-127.5 -54
t-127 53.5t-53 127.5t53 127t127 53t127.5 -53t53.5 -127zM586 -85v1082q0 19 12.5 33t30.5 14h209q18 0 31.5 -14.5t13.5 -32.5v-1108q0 -170 -99.5 -269t-257.5 -99q-64 0 -125 12t-99 31q-31 16 -40.5 35t-0.5 47l47 133q9 25 26 34t43 1q34 -12 61 -18t45 -6
q48 0 75.5 33t27.5 92z" />
    <glyph glyph-name="Jcircumflex" unicode="&#x134;" horiz-adv-x="1194" 
d="M536 -31q-129 0 -236 34t-190 102q-21 15 -23.5 38.5t18.5 47.5l119 135q15 17 33 18.5t53 -20.5q54 -37 106 -55t105 -18q116 0 179.5 71t63.5 200v936q0 20 14 34t35 14h214q20 0 33.5 -14t13.5 -34v-964q0 -238 -152 -381.5t-386 -143.5zM483 2050h253q21 0 37 -11
t28 -34l198 -323q17 -24 5 -45.5t-33 -21.5h-174q-18 0 -30 5.5t-33 31.5l-124 170l-125 -170q-21 -26 -33 -31.5t-30 -5.5h-172q-23 0 -35 21t3 46l200 323q12 23 28 34t37 11z" />
    <glyph glyph-name="jcircumflex" unicode="&#x135;" horiz-adv-x="491" 
d="M97 -85v1082q0 19 12.5 33t30.5 14h209q18 0 31.5 -14.5t13.5 -32.5v-1108q0 -170 -99.5 -269t-257.5 -99q-64 0 -125 12t-99 31q-31 16 -40.5 35t-0.5 47l47 133q9 25 26 34t43 1q34 -12 61 -18t45 -6q48 0 75.5 33t27.5 92zM119 1587h253q21 0 37 -11t28 -34l198 -323
q17 -24 5 -45.5t-33 -21.5h-174q-18 0 -30 5.5t-33 31.5l-124 170l-125 -170q-21 -26 -33 -31.5t-30 -5.5h-172q-23 0 -35 21t3 46l200 323q12 23 28 34t37 11z" />
    <glyph glyph-name="Kcommaaccent" unicode="&#x136;" horiz-adv-x="1420" 
d="M437 510v-461q0 -20 -15 -34.5t-35 -14.5h-213q-20 0 -33.5 14t-13.5 35v1410q0 20 13.5 33.5t33.5 13.5h213q20 0 35 -14t15 -33v-600l523 604q24 26 42 34.5t44 8.5h243q27 0 36 -21t-8 -43l-523 -581l605 -801q17 -21 8 -40.5t-30 -19.5h-262q-36 0 -54 8t-34 29
l-459 617zM550 -568l99 137q-45 23 -71 64t-26 89q0 75 50.5 125t125.5 50q76 0 128.5 -53.5t52.5 -134.5q0 -52 -30 -111.5t-97 -137.5l-90 -108q-22 -25 -44.5 -29t-48.5 12l-41 28q-19 13 -21 31.5t13 37.5z" />
    <glyph glyph-name="kcommaaccent" unicode="&#x137;" horiz-adv-x="1089" 
d="M394 510v-465q0 -19 -13 -32t-32 -13h-207q-19 0 -32 13t-13 32v1416q0 20 13 32.5t32 12.5h207q19 0 32 -13t13 -32v-856l301 404q12 18 27 26.5t33 8.5h218q32 0 41 -23t-11 -48l-312 -403l385 -497q19 -25 7.5 -49t-44.5 -24h-226q-18 0 -34 8t-30 26zM389 -568
l99 137q-45 23 -71 64t-26 89q0 75 50.5 125t125.5 50q76 0 128.5 -53.5t52.5 -134.5q0 -52 -30 -111.5t-97 -137.5l-90 -108q-22 -25 -44.5 -29t-48.5 12l-41 28q-19 13 -21 31.5t13 37.5z" />
    <glyph glyph-name="kgreenlandic" unicode="&#x138;" horiz-adv-x="1089" 
d="M394 499v-454q0 -19 -13 -32t-32 -13h-207q-19 0 -32 13t-13 32v954q0 19 13 32t32 13h207q19 0 32 -13t13 -32v-390l301 402q13 16 29 24.5t34 8.5h217q32 0 41 -23t-11 -48l-316 -405l383 -495q18 -25 6.5 -49t-45.5 -24h-224q-20 0 -35.5 8t-31.5 26z" />
    <glyph glyph-name="Lacute" unicode="&#x139;" horiz-adv-x="1235" 
d="M1188 237v-188q0 -20 -14 -34.5t-33 -14.5h-967q-20 0 -33.5 13.5t-13.5 33.5v1410q0 21 13 35t34 14h213q20 0 35 -14.5t15 -34.5v-1173h704q20 0 33.5 -13.5t13.5 -33.5zM313 2049h254q32 0 44 -22.5t-3 -46.5l-194 -329q-12 -20 -24.5 -28.5t-31.5 -8.5h-135
q-32 0 -46.5 18t-7.5 49l86 329q4 18 20 28.5t38 10.5z" />
    <glyph glyph-name="lacute" unicode="&#x13a;" horiz-adv-x="486" 
d="M392 1461v-1414q0 -19 -13.5 -33t-32.5 -14h-206q-19 0 -32 14t-13 33v1414q0 19 13 32t32 13h206q19 0 32.5 -13.5t13.5 -31.5zM276 2099h254q32 0 44 -22.5t-3 -46.5l-194 -329q-12 -20 -24.5 -28.5t-31.5 -8.5h-135q-32 0 -46.5 18t-7.5 49l86 329q4 18 20 28.5
t38 10.5z" />
    <glyph glyph-name="Lcommaaccent" unicode="&#x13b;" horiz-adv-x="1235" 
d="M1188 237v-188q0 -20 -14 -34.5t-33 -14.5h-967q-20 0 -33.5 13.5t-13.5 33.5v1410q0 21 13 35t34 14h213q20 0 35 -14.5t15 -34.5v-1173h704q20 0 33.5 -13.5t13.5 -33.5zM475 -568l99 137q-45 23 -71 64t-26 89q0 75 50.5 125t125.5 50q76 0 128.5 -53.5t52.5 -134.5
q0 -52 -30 -111.5t-97 -137.5l-90 -108q-22 -25 -44.5 -29t-48.5 12l-41 28q-19 13 -21 31.5t13 37.5z" />
    <glyph glyph-name="lcommaaccent" unicode="&#x13c;" horiz-adv-x="486" 
d="M392 1461v-1414q0 -19 -13.5 -33t-32.5 -14h-206q-19 0 -32 14t-13 33v1414q0 19 13 32t32 13h206q19 0 32.5 -13.5t13.5 -31.5zM70 -568l99 137q-45 23 -71 64t-26 89q0 75 50.5 125t125.5 50q76 0 128.5 -53.5t52.5 -134.5q0 -52 -30 -111.5t-97 -137.5l-90 -108
q-22 -25 -44.5 -29t-48.5 12l-41 28q-19 13 -21 31.5t13 37.5z" />
    <glyph glyph-name="Lcaron" unicode="&#x13d;" horiz-adv-x="1242" 
d="M1188 237v-188q0 -20 -14 -34.5t-33 -14.5h-967q-20 0 -33.5 13.5t-13.5 33.5v1410q0 21 13 35t34 14h213q20 0 35 -14.5t15 -34.5v-1173h704q20 0 33.5 -13.5t13.5 -33.5zM711 1059l103 142q-46 22 -73.5 64.5t-27.5 92.5q0 76 52 128.5t129 52.5q79 0 133 -55t54 -139
q0 -55 -31.5 -118t-97.5 -138l-95 -110q-23 -28 -47 -32.5t-50 13.5l-40 28q-19 13 -21 33t12 38z" />
    <glyph glyph-name="lcaron" unicode="&#x13e;" horiz-adv-x="697" 
d="M392 1461v-1414q0 -19 -13.5 -33t-32.5 -14h-206q-19 0 -32 14t-13 33v1414q0 19 13 32t32 13h206q19 0 32.5 -13.5t13.5 -31.5zM490 1059l103 142q-46 22 -73.5 64.5t-27.5 92.5q0 76 52 128.5t129 52.5q79 0 133 -55t54 -139q0 -55 -31.5 -118t-97.5 -138l-95 -110
q-23 -28 -47 -32.5t-50 13.5l-40 28q-19 13 -21 33t12 38z" />
    <glyph glyph-name="Ldot" unicode="&#x13f;" horiz-adv-x="1237" 
d="M1188 237v-188q0 -20 -14 -34.5t-33 -14.5h-967q-20 0 -33.5 13.5t-13.5 33.5v1410q0 21 13 35t34 14h213q20 0 35 -14.5t15 -34.5v-1173h704q20 0 33.5 -13.5t13.5 -33.5zM1044 800q0 -86 -61 -147.5t-146 -61.5q-86 0 -147.5 61.5t-61.5 147.5q0 85 61.5 145.5
t147.5 60.5q85 0 146 -60.5t61 -145.5z" />
    <glyph glyph-name="ldot" unicode="&#x140;" horiz-adv-x="856" 
d="M392 1461v-1414q0 -19 -13.5 -33t-32.5 -14h-206q-19 0 -32 14t-13 33v1414q0 19 13 32t32 13h206q19 0 32.5 -13.5t13.5 -31.5zM856 618q0 -78 -55.5 -133t-133.5 -55t-133.5 55t-55.5 133q0 79 56 135t133 56t133 -56t56 -135z" />
    <glyph glyph-name="Lslash" unicode="&#x141;" horiz-adv-x="1240" 
d="M1141 0h-967q-20 0 -33.5 13.5t-13.5 33.5v491l-65 -17q-18 -7 -32.5 3.5t-14.5 30.5v155q0 20 9 33.5t28 20.5l75 20v673q0 21 13 35t34 14h213q20 0 35 -14.5t15 -34.5v-591l327 87q21 7 36.5 -4.5t15.5 -33.5v-153q0 -20 -10 -33.5t-29 -18.5l-340 -90v-336h704
q20 0 33.5 -13.5t13.5 -33.5v-188q0 -20 -14 -34.5t-33 -14.5z" />
    <glyph glyph-name="lslash" unicode="&#x142;" horiz-adv-x="579" 
d="M393 0h-206q-19 0 -32 14t-13 33v400l-77 -27q-21 -7 -34.5 1.5t-13.5 28.5v137q0 20 8.5 31.5t28.5 18.5l88 30v794q0 19 13 32t32 13h206q19 0 32.5 -13.5t13.5 -31.5v-691l71 24q22 8 37 -0.5t15 -29.5v-138q0 -17 -8 -27t-29 -18l-86 -30v-504q0 -19 -13.5 -33
t-32.5 -14z" />
    <glyph glyph-name="Nacute" unicode="&#x143;" horiz-adv-x="1556" 
d="M1035 47l-598 986v-986q0 -20 -13.5 -33.5t-33.5 -13.5h-216q-21 0 -34 13t-13 34v1412q0 20 13.5 33.5t33.5 13.5h295q25 0 41.5 -9t27.5 -29l583 -969v960q0 19 13 33t30 14h218q18 0 33.5 -14.5t15.5 -32.5v-1412q0 -19 -15 -33t-34 -14h-250q-37 0 -60 11.5t-37 35.5
zM812 2049h254q32 0 44 -22.5t-3 -46.5l-194 -329q-12 -20 -24.5 -28.5t-31.5 -8.5h-135q-32 0 -46.5 18t-7.5 49l86 329q4 18 20 28.5t38 10.5z" />
    <glyph glyph-name="nacute" unicode="&#x144;" horiz-adv-x="1252" 
d="M635 803q-107 0 -174 -68.5t-67 -179.5v-514q0 -17 -14.5 -29t-33.5 -12h-206q-18 0 -30.5 13t-12.5 32v951q0 21 12.5 34.5t30.5 13.5h206q18 0 33 -13t15 -30v-82q53 74 140.5 114.5t197.5 40.5q200 0 318.5 -125t118.5 -329v-579q0 -17 -14.5 -29t-33.5 -12h-201
q-19 0 -33.5 12t-14.5 29v514q0 114 -64 181t-173 67zM659 1587h254q32 0 44 -22.5t-3 -46.5l-194 -329q-12 -20 -24.5 -28.5t-31.5 -8.5h-135q-32 0 -46.5 18t-7.5 49l86 329q4 18 20 28.5t38 10.5z" />
    <glyph glyph-name="Ncommaaccent" unicode="&#x145;" horiz-adv-x="1556" 
d="M1035 47l-598 986v-986q0 -20 -13.5 -33.5t-33.5 -13.5h-216q-21 0 -34 13t-13 34v1412q0 20 13.5 33.5t33.5 13.5h295q25 0 41.5 -9t27.5 -29l583 -969v960q0 19 13 33t30 14h218q18 0 33.5 -14.5t15.5 -32.5v-1412q0 -19 -15 -33t-34 -14h-250q-37 0 -60 11.5t-37 35.5
zM606 -568l99 137q-45 23 -71 64t-26 89q0 75 50.5 125t125.5 50q76 0 128.5 -53.5t52.5 -134.5q0 -52 -30 -111.5t-97 -137.5l-90 -108q-22 -25 -44.5 -29t-48.5 12l-41 28q-19 13 -21 31.5t13 37.5z" />
    <glyph glyph-name="ncommaaccent" unicode="&#x146;" horiz-adv-x="1252" 
d="M635 803q-107 0 -174 -68.5t-67 -179.5v-514q0 -17 -14.5 -29t-33.5 -12h-206q-18 0 -30.5 13t-12.5 32v951q0 21 12.5 34.5t30.5 13.5h206q18 0 33 -13t15 -30v-82q53 74 140.5 114.5t197.5 40.5q200 0 318.5 -125t118.5 -329v-579q0 -17 -14.5 -29t-33.5 -12h-201
q-19 0 -33.5 12t-14.5 29v514q0 114 -64 181t-173 67zM453 -568l99 137q-45 23 -71 64t-26 89q0 75 50.5 125t125.5 50q76 0 128.5 -53.5t52.5 -134.5q0 -52 -30 -111.5t-97 -137.5l-90 -108q-22 -25 -44.5 -29t-48.5 12l-41 28q-19 13 -21 31.5t13 37.5z" />
    <glyph glyph-name="Ncaron" unicode="&#x147;" horiz-adv-x="1556" 
d="M1035 47l-598 986v-986q0 -20 -13.5 -33.5t-33.5 -13.5h-216q-21 0 -34 13t-13 34v1412q0 20 13.5 33.5t33.5 13.5h295q25 0 41.5 -9t27.5 -29l583 -969v960q0 19 13 33t30 14h218q18 0 33.5 -14.5t15.5 -32.5v-1412q0 -19 -15 -33t-34 -14h-250q-37 0 -60 11.5t-37 35.5
zM905 1614h-253q-20 0 -36 11.5t-29 33.5l-200 323q-14 27 -3 47t35 20h172q20 0 32 -6t31 -31l125 -168l124 168q19 25 31 31t32 6h174q22 0 33.5 -20.5t-5.5 -46.5l-198 -323q-13 -22 -29 -33.5t-36 -11.5z" />
    <glyph glyph-name="ncaron" unicode="&#x148;" horiz-adv-x="1252" 
d="M635 803q-107 0 -174 -68.5t-67 -179.5v-514q0 -17 -14.5 -29t-33.5 -12h-206q-18 0 -30.5 13t-12.5 32v951q0 21 12.5 34.5t30.5 13.5h206q18 0 33 -13t15 -30v-82q53 74 140.5 114.5t197.5 40.5q200 0 318.5 -125t118.5 -329v-579q0 -17 -14.5 -29t-33.5 -12h-201
q-19 0 -33.5 12t-14.5 29v514q0 114 -64 181t-173 67zM752 1152h-253q-20 0 -36 11.5t-29 33.5l-200 323q-14 27 -3 47t35 20h172q20 0 32 -6t31 -31l125 -168l124 168q19 25 31 31t32 6h174q22 0 33.5 -20.5t-5.5 -46.5l-198 -323q-13 -22 -29 -33.5t-36 -11.5z" />
    <glyph glyph-name="napostrophe" unicode="&#x149;" horiz-adv-x="1252" 
d="M635 803q-107 0 -174 -68.5t-67 -179.5v-514q0 -17 -14.5 -29t-33.5 -12h-206q-18 0 -30.5 13t-12.5 32v951q0 21 12.5 34.5t30.5 13.5h206q18 0 33 -13t15 -30v-82q53 74 140.5 114.5t197.5 40.5q200 0 318.5 -125t118.5 -329v-579q0 -17 -14.5 -29t-33.5 -12h-201
q-19 0 -33.5 12t-14.5 29v514q0 114 -64 181t-173 67zM75 1256l103 142q-46 22 -73.5 64.5t-27.5 92.5q0 76 52 128.5t129 52.5q79 0 133 -55t54 -139q0 -55 -31.5 -118t-97.5 -138l-95 -110q-23 -28 -47 -32.5t-50 13.5l-40 28q-19 13 -21 33t12 38z" />
    <glyph glyph-name="Eng" unicode="&#x14a;" horiz-adv-x="1556" 
d="M1061 -499q-78 0 -155 22t-118 58q-17 13 -20.5 32t7.5 39l70 142q10 21 29.5 25.5t41.5 -7.5q24 -12 52 -20.5t45 -8.5q52 0 81 28.5t29 83.5v105q-33 2 -54 13t-34 34l-598 986v-986q0 -20 -13.5 -33.5t-33.5 -13.5h-216q-21 0 -34 13t-13 34v1412q0 20 13.5 33.5
t33.5 13.5h295q25 0 41.5 -9t27.5 -29l583 -969v960q0 19 13 33t30 14h218q18 0 33.5 -14.5t15.5 -32.5v-1581q-1 -177 -102.5 -277t-267.5 -100z" />
    <glyph glyph-name="eng" unicode="&#x14b;" horiz-adv-x="1252" 
d="M809 -479q-62 0 -123 12t-101 31q-29 16 -38 35.5t0 46.5l45 133q10 25 27.5 34t41.5 1q39 -13 63.5 -18.5t41.5 -5.5q50 0 78 32.5t28 92.5v640q0 114 -64 181t-173 67q-107 0 -174 -68.5t-67 -179.5v-514q0 -17 -14.5 -29t-33.5 -12h-206q-18 0 -30.5 13t-12.5 32v951
q0 21 12.5 34.5t30.5 13.5h206q18 0 33 -13t15 -30v-82q53 74 140.5 114.5t197.5 40.5q200 0 318.5 -125t118.5 -329v-731q0 -170 -100.5 -269t-259.5 -99z" />
    <glyph glyph-name="Omacron" unicode="&#x14c;" horiz-adv-x="1698" 
d="M850 1539q335 0 565.5 -227t230.5 -557t-230.5 -556.5t-565.5 -226.5t-566.5 227t-231.5 556q0 330 231.5 557t566.5 227zM850 258q203 0 338 142.5t135 354.5q0 213 -134.5 355t-338.5 142q-205 0 -339 -141.5t-134 -355.5q0 -213 134 -355t339 -142zM1179 1657h-660
q-20 0 -34 14t-14 33v151q0 20 13.5 33.5t34.5 13.5h660q21 0 35.5 -13.5t14.5 -33.5v-151q0 -19 -14.5 -33t-35.5 -14z" />
    <glyph glyph-name="omacron" unicode="&#x14d;" horiz-adv-x="1220" 
d="M611 -30q-237 0 -401.5 159.5t-164.5 389.5q0 233 164.5 394t401.5 161q235 0 399.5 -161t164.5 -394q0 -230 -164.5 -389.5t-399.5 -159.5zM611 796q-113 0 -189 -79.5t-76 -195.5t76 -194.5t189 -78.5q112 0 187.5 78.5t75.5 194.5t-75.5 195.5t-187.5 79.5zM940 1195
h-660q-20 0 -34 14t-14 33v151q0 20 13.5 33.5t34.5 13.5h660q21 0 35.5 -13.5t14.5 -33.5v-151q0 -19 -14.5 -33t-35.5 -14z" />
    <glyph glyph-name="Obreve" unicode="&#x14e;" horiz-adv-x="1698" 
d="M850 1539q335 0 565.5 -227t230.5 -557t-230.5 -556.5t-565.5 -226.5t-566.5 227t-231.5 556q0 330 231.5 557t566.5 227zM850 258q203 0 338 142.5t135 354.5q0 213 -134.5 355t-338.5 142q-205 0 -339 -141.5t-134 -355.5q0 -213 134 -355t339 -142zM726 1986v-26
q0 -54 34 -86t90 -32t90.5 32t34.5 86v26q0 16 10.5 26.5t24.5 10.5h178q17 0 27 -10t10 -27v-45q0 -158 -99.5 -248t-275.5 -90q-175 0 -273.5 90t-98.5 248v45q0 16 10 26.5t25 10.5h178q15 0 25 -10.5t10 -26.5z" />
    <glyph glyph-name="obreve" unicode="&#x14f;" horiz-adv-x="1220" 
d="M611 -30q-237 0 -401.5 159.5t-164.5 389.5q0 233 164.5 394t401.5 161q235 0 399.5 -161t164.5 -394q0 -230 -164.5 -389.5t-399.5 -159.5zM611 796q-113 0 -189 -79.5t-76 -195.5t76 -194.5t189 -78.5q112 0 187.5 78.5t75.5 194.5t-75.5 195.5t-187.5 79.5zM487 1524
v-26q0 -54 34 -86t90 -32t90.5 32t34.5 86v26q0 16 10.5 26.5t24.5 10.5h178q17 0 27 -10t10 -27v-45q0 -158 -99.5 -248t-275.5 -90q-175 0 -273.5 90t-98.5 248v45q0 16 10 26.5t25 10.5h178q15 0 25 -10.5t10 -26.5z" />
    <glyph glyph-name="Ohungarumlaut" unicode="&#x150;" horiz-adv-x="1698" 
d="M850 1539q335 0 565.5 -227t230.5 -557t-230.5 -556.5t-565.5 -226.5t-566.5 227t-231.5 556q0 330 231.5 557t566.5 227zM850 258q203 0 338 142.5t135 354.5q0 213 -134.5 355t-338.5 142q-205 0 -339 -141.5t-134 -355.5q0 -213 134 -355t339 -142zM652 2049h254
q31 0 44 -22t-1 -47l-194 -329q-14 -22 -26 -29.5t-30 -7.5h-136q-32 0 -46.5 18t-6.5 49l86 329q4 18 19.5 28.5t36.5 10.5zM1106 2049h254q31 0 43.5 -22.5t-2.5 -46.5l-194 -329q-12 -20 -24.5 -28.5t-31.5 -8.5h-136q-32 0 -46.5 18.5t-6.5 48.5l88 329q5 18 19.5 28.5
t36.5 10.5z" />
    <glyph glyph-name="ohungarumlaut" unicode="&#x151;" horiz-adv-x="1220" 
d="M611 -30q-237 0 -401.5 159.5t-164.5 389.5q0 233 164.5 394t401.5 161q235 0 399.5 -161t164.5 -394q0 -230 -164.5 -389.5t-399.5 -159.5zM611 796q-113 0 -189 -79.5t-76 -195.5t76 -194.5t189 -78.5q112 0 187.5 78.5t75.5 194.5t-75.5 195.5t-187.5 79.5zM413 1587
h254q31 0 44 -22t-1 -47l-194 -329q-14 -22 -26 -29.5t-30 -7.5h-136q-32 0 -46.5 18t-6.5 49l86 329q4 18 19.5 28.5t36.5 10.5zM867 1587h254q31 0 43.5 -22.5t-2.5 -46.5l-194 -329q-12 -20 -24.5 -28.5t-31.5 -8.5h-136q-32 0 -46.5 18.5t-6.5 48.5l88 329
q5 18 19.5 28.5t36.5 10.5z" />
    <glyph glyph-name="OE" unicode="&#x152;" horiz-adv-x="2536" 
d="M852 253q203 0 336 142.5t133 356.5t-133 357t-336 143q-204 0 -339.5 -143t-135.5 -357q0 -213 135.5 -356t339.5 -143zM1306 50v137q-66 -102 -192.5 -160t-282.5 -58q-330 0 -554.5 226t-224.5 557t222 557.5t548 226.5q156 0 285 -58.5t199 -159.5v140q0 20 14.5 34
t35.5 14h1077q21 0 34.5 -14.5t13.5 -35.5v-186q0 -21 -13.5 -34.5t-34.5 -13.5h-817v-327h469q21 0 34 -14t13 -35v-177q0 -21 -13 -35t-34 -14h-469v-336h827q21 0 34.5 -13t13.5 -34v-187q0 -21 -13.5 -35.5t-34.5 -14.5h-1087q-21 0 -35.5 14.5t-14.5 35.5z" />
    <glyph glyph-name="oe" unicode="&#x153;" horiz-adv-x="1999" 
d="M1188 635h475q-16 92 -81.5 147t-154.5 55q-87 0 -153 -56t-86 -146zM611 796q-113 0 -189 -79.5t-76 -195.5t76 -194.5t189 -78.5q112 0 187.5 78.5t75.5 194.5t-75.5 195.5t-187.5 79.5zM1894 168q-71 -93 -192.5 -145.5t-268.5 -52.5q-127 0 -233 47t-179 136
q-76 -88 -182 -135.5t-228 -47.5q-237 0 -401.5 159.5t-164.5 389.5q0 233 164.5 394t401.5 161q122 0 228 -48t183 -137q72 89 177 137t230 48q230 0 378.5 -150.5t148.5 -370.5v-67q0 -26 -13 -39.5t-38 -13.5h-723q17 -97 89.5 -155t166.5 -58q68 0 125 24.5t111 78.5
q18 17 39 20t39 -9l131 -93q18 -12 21 -34t-10 -39z" />
    <glyph glyph-name="Racute" unicode="&#x154;" horiz-adv-x="1446" 
d="M437 818h327q104 0 169.5 59t65.5 154q0 92 -64 148t-167 56h-331v-417zM437 566v-517q0 -20 -14 -34.5t-33 -14.5h-216q-20 0 -33.5 13.5t-13.5 33.5v1412q0 21 12.5 34t34.5 13h627q232 0 377 -128.5t145 -329.5q0 -147 -83 -265t-230 -167l415 -543q17 -22 4.5 -47.5
t-43.5 -25.5h-228q-33 0 -56 11.5t-41 37.5l-379 517h-245zM763 2049h254q32 0 44 -22.5t-3 -46.5l-194 -329q-12 -20 -24.5 -28.5t-31.5 -8.5h-135q-32 0 -46.5 18t-7.5 49l86 329q4 18 20 28.5t38 10.5z" />
    <glyph glyph-name="racute" unicode="&#x155;" horiz-adv-x="745" 
d="M635 1057q45 0 68.5 -21t19.5 -59l-21 -202q-3 -27 -17.5 -41.5t-36.5 -14.5q-7 0 -16 2t-29 8q-29 10 -46 13t-32 3q-60 0 -95.5 -42.5t-35.5 -115.5v-546q0 -17 -14.5 -29t-33.5 -12h-206q-18 0 -30.5 13t-12.5 32v951q0 21 12.5 34.5t30.5 13.5h183q19 0 34 -13
t17 -30l9 -95q45 73 110.5 112t141.5 39zM405 1587h254q32 0 44 -22.5t-3 -46.5l-194 -329q-12 -20 -24.5 -28.5t-31.5 -8.5h-135q-32 0 -46.5 18t-7.5 49l86 329q4 18 20 28.5t38 10.5z" />
    <glyph glyph-name="Rcommaaccent" unicode="&#x156;" horiz-adv-x="1446" 
d="M437 818h327q104 0 169.5 59t65.5 154q0 92 -64 148t-167 56h-331v-417zM437 566v-517q0 -20 -14 -34.5t-33 -14.5h-216q-20 0 -33.5 13.5t-13.5 33.5v1412q0 21 12.5 34t34.5 13h627q232 0 377 -128.5t145 -329.5q0 -147 -83 -265t-230 -167l415 -543q17 -22 4.5 -47.5
t-43.5 -25.5h-228q-33 0 -56 11.5t-41 37.5l-379 517h-245zM557 -568l99 137q-45 23 -71 64t-26 89q0 75 50.5 125t125.5 50q76 0 128.5 -53.5t52.5 -134.5q0 -52 -30 -111.5t-97 -137.5l-90 -108q-22 -25 -44.5 -29t-48.5 12l-41 28q-19 13 -21 31.5t13 37.5z" />
    <glyph glyph-name="rcommaaccent" unicode="&#x157;" horiz-adv-x="745" 
d="M635 1057q45 0 68.5 -21t19.5 -59l-21 -202q-3 -27 -17.5 -41.5t-36.5 -14.5q-7 0 -16 2t-29 8q-29 10 -46 13t-32 3q-60 0 -95.5 -42.5t-35.5 -115.5v-546q0 -17 -14.5 -29t-33.5 -12h-206q-18 0 -30.5 13t-12.5 32v951q0 21 12.5 34.5t30.5 13.5h183q19 0 34 -13
t17 -30l9 -95q45 73 110.5 112t141.5 39zM70 -568l99 137q-45 23 -71 64t-26 89q0 75 50.5 125t125.5 50q76 0 128.5 -53.5t52.5 -134.5q0 -52 -30 -111.5t-97 -137.5l-90 -108q-22 -25 -44.5 -29t-48.5 12l-41 28q-19 13 -21 31.5t13 37.5z" />
    <glyph glyph-name="Rcaron" unicode="&#x158;" horiz-adv-x="1446" 
d="M437 818h327q104 0 169.5 59t65.5 154q0 92 -64 148t-167 56h-331v-417zM437 566v-517q0 -20 -14 -34.5t-33 -14.5h-216q-20 0 -33.5 13.5t-13.5 33.5v1412q0 21 12.5 34t34.5 13h627q232 0 377 -128.5t145 -329.5q0 -147 -83 -265t-230 -167l415 -543q17 -22 4.5 -47.5
t-43.5 -25.5h-228q-33 0 -56 11.5t-41 37.5l-379 517h-245zM856 1614h-253q-20 0 -36 11.5t-29 33.5l-200 323q-14 27 -3 47t35 20h172q20 0 32 -6t31 -31l125 -168l124 168q19 25 31 31t32 6h174q22 0 33.5 -20.5t-5.5 -46.5l-198 -323q-13 -22 -29 -33.5t-36 -11.5z" />
    <glyph glyph-name="rcaron" unicode="&#x159;" horiz-adv-x="745" 
d="M635 1057q45 0 68.5 -21t19.5 -59l-21 -202q-3 -27 -17.5 -41.5t-36.5 -14.5q-7 0 -16 2t-29 8q-29 10 -46 13t-32 3q-60 0 -95.5 -42.5t-35.5 -115.5v-546q0 -17 -14.5 -29t-33.5 -12h-206q-18 0 -30.5 13t-12.5 32v951q0 21 12.5 34.5t30.5 13.5h183q19 0 34 -13
t17 -30l9 -95q45 73 110.5 112t141.5 39zM499 1152h-253q-20 0 -36 11.5t-29 33.5l-200 323q-14 27 -3 47t35 20h172q20 0 32 -6t31 -31l125 -168l124 168q19 25 31 31t32 6h174q22 0 33.5 -20.5t-5.5 -46.5l-198 -323q-13 -22 -29 -33.5t-36 -11.5z" />
    <glyph glyph-name="Sacute" unicode="&#x15a;" horiz-adv-x="1317" 
d="M77 1080q0 200 164 329.5t418 129.5q158 0 296 -48t226 -131q32 -31 34.5 -61t-23.5 -55l-101 -103q-25 -25 -55 -25.5t-63 25.5q-86 64 -165.5 94t-162.5 30q-106 0 -170 -44t-64 -119q0 -54 39.5 -90.5t121.5 -58.5l289 -75q207 -53 308 -160t101 -273
q0 -205 -165.5 -339t-441.5 -134q-186 0 -340 59t-250 163q-30 30 -31.5 66.5t29.5 60.5l131 101q27 20 52 17t54 -32q85 -83 176.5 -121.5t198.5 -38.5q112 0 180.5 48t68.5 120q0 62 -38.5 102.5t-116.5 61.5l-329 88q-181 48 -276 153.5t-95 259.5zM691 2049h254
q32 0 44 -22.5t-3 -46.5l-194 -329q-12 -20 -24.5 -28.5t-31.5 -8.5h-135q-32 0 -46.5 18t-7.5 49l86 329q4 18 20 28.5t38 10.5z" />
    <glyph glyph-name="sacute" unicode="&#x15b;" horiz-adv-x="1016" 
d="M65 733q0 150 123.5 245.5t321.5 95.5q123 0 232 -35.5t181 -95.5q22 -20 22.5 -44.5t-20.5 -48.5l-73 -77q-20 -26 -43 -29t-54 16q-60 39 -124 60.5t-122 21.5q-62 0 -103.5 -24t-41.5 -59q0 -36 28 -56.5t93 -33.5l171 -34q163 -32 241 -109t78 -204
q0 -157 -126.5 -254.5t-332.5 -97.5q-118 0 -222 30.5t-184 87.5q-59 44 -69 84t30 71l86 69q25 21 48.5 20.5t52.5 -26.5q65 -55 127.5 -79.5t130.5 -24.5q71 0 112 25.5t41 67.5q0 37 -27.5 56.5t-110.5 36.5l-185 38q-133 27 -207 107t-74 200zM543 1587h254
q32 0 44 -22.5t-3 -46.5l-194 -329q-12 -20 -24.5 -28.5t-31.5 -8.5h-135q-32 0 -46.5 18t-7.5 49l86 329q4 18 20 28.5t38 10.5z" />
    <glyph glyph-name="Scircumflex" unicode="&#x15c;" horiz-adv-x="1317" 
d="M77 1080q0 200 164 329.5t418 129.5q158 0 296 -48t226 -131q32 -31 34.5 -61t-23.5 -55l-101 -103q-25 -25 -55 -25.5t-63 25.5q-86 64 -165.5 94t-162.5 30q-106 0 -170 -44t-64 -119q0 -54 39.5 -90.5t121.5 -58.5l289 -75q207 -53 308 -160t101 -273
q0 -205 -165.5 -339t-441.5 -134q-186 0 -340 59t-250 163q-30 30 -31.5 66.5t29.5 60.5l131 101q27 20 52 17t54 -32q85 -83 176.5 -121.5t198.5 -38.5q112 0 180.5 48t68.5 120q0 62 -38.5 102.5t-116.5 61.5l-329 88q-181 48 -276 153.5t-95 259.5zM532 2049h253
q21 0 37 -11t28 -34l198 -323q17 -24 5 -45.5t-33 -21.5h-174q-18 0 -30 5.5t-33 31.5l-124 170l-125 -170q-21 -26 -33 -31.5t-30 -5.5h-172q-23 0 -35 21t3 46l200 323q12 23 28 34t37 11z" />
    <glyph glyph-name="scircumflex" unicode="&#x15d;" horiz-adv-x="1016" 
d="M65 733q0 150 123.5 245.5t321.5 95.5q123 0 232 -35.5t181 -95.5q22 -20 22.5 -44.5t-20.5 -48.5l-73 -77q-20 -26 -43 -29t-54 16q-60 39 -124 60.5t-122 21.5q-62 0 -103.5 -24t-41.5 -59q0 -36 28 -56.5t93 -33.5l171 -34q163 -32 241 -109t78 -204
q0 -157 -126.5 -254.5t-332.5 -97.5q-118 0 -222 30.5t-184 87.5q-59 44 -69 84t30 71l86 69q25 21 48.5 20.5t52.5 -26.5q65 -55 127.5 -79.5t130.5 -24.5q71 0 112 25.5t41 67.5q0 37 -27.5 56.5t-110.5 36.5l-185 38q-133 27 -207 107t-74 200zM384 1587h253q21 0 37 -11
t28 -34l198 -323q17 -24 5 -45.5t-33 -21.5h-174q-18 0 -30 5.5t-33 31.5l-124 170l-125 -170q-21 -26 -33 -31.5t-30 -5.5h-172q-23 0 -35 21t3 46l200 323q12 23 28 34t37 11z" />
    <glyph glyph-name="Scedilla" unicode="&#x15e;" horiz-adv-x="1317" 
d="M77 1080q0 200 164 329.5t418 129.5q158 0 296 -48t226 -131q32 -31 34.5 -61t-23.5 -55l-101 -103q-25 -25 -55 -25.5t-63 25.5q-86 64 -165.5 94t-162.5 30q-106 0 -170 -44t-64 -119q0 -54 39.5 -90.5t121.5 -58.5l289 -75q207 -53 308 -160t101 -273
q0 -205 -165.5 -339t-441.5 -134q-186 0 -340 59t-250 163q-30 30 -31.5 66.5t29.5 60.5l131 101q27 20 52 17t54 -32q85 -83 176.5 -121.5t198.5 -38.5q112 0 180.5 48t68.5 120q0 62 -38.5 102.5t-116.5 61.5l-329 88q-181 48 -276 153.5t-95 259.5zM417 -288l114 336
l310 -41l-168 -336q-7 -17 -21 -24.5t-37 -5.5l-159 11q-26 2 -36.5 18t-2.5 42z" />
    <glyph glyph-name="scedilla" unicode="&#x15f;" horiz-adv-x="1016" 
d="M65 733q0 150 123.5 245.5t321.5 95.5q123 0 232 -35.5t181 -95.5q22 -20 22.5 -44.5t-20.5 -48.5l-73 -77q-20 -26 -43 -29t-54 16q-60 39 -124 60.5t-122 21.5q-62 0 -103.5 -24t-41.5 -59q0 -36 28 -56.5t93 -33.5l171 -34q163 -32 241 -109t78 -204
q0 -157 -126.5 -254.5t-332.5 -97.5q-118 0 -222 30.5t-184 87.5q-59 44 -69 84t30 71l86 69q25 21 48.5 20.5t52.5 -26.5q65 -55 127.5 -79.5t130.5 -24.5q71 0 112 25.5t41 67.5q0 37 -27.5 56.5t-110.5 36.5l-185 38q-133 27 -207 107t-74 200zM268 -288l114 336l310 -41
l-168 -336q-7 -17 -21 -24.5t-37 -5.5l-159 11q-26 2 -36.5 18t-2.5 42z" />
    <glyph glyph-name="Scaron" unicode="&#x160;" horiz-adv-x="1317" 
d="M77 1080q0 200 164 329.5t418 129.5q158 0 296 -48t226 -131q32 -31 34.5 -61t-23.5 -55l-101 -103q-25 -25 -55 -25.5t-63 25.5q-86 64 -165.5 94t-162.5 30q-106 0 -170 -44t-64 -119q0 -54 39.5 -90.5t121.5 -58.5l289 -75q207 -53 308 -160t101 -273
q0 -205 -165.5 -339t-441.5 -134q-186 0 -340 59t-250 163q-30 30 -31.5 66.5t29.5 60.5l131 101q27 20 52 17t54 -32q85 -83 176.5 -121.5t198.5 -38.5q112 0 180.5 48t68.5 120q0 62 -38.5 102.5t-116.5 61.5l-329 88q-181 48 -276 153.5t-95 259.5zM784 1614h-253
q-20 0 -36 11.5t-29 33.5l-200 323q-14 27 -3 47t35 20h172q20 0 32 -6t31 -31l125 -168l124 168q19 25 31 31t32 6h174q22 0 33.5 -20.5t-5.5 -46.5l-198 -323q-13 -22 -29 -33.5t-36 -11.5z" />
    <glyph glyph-name="scaron" unicode="&#x161;" horiz-adv-x="1016" 
d="M65 733q0 150 123.5 245.5t321.5 95.5q123 0 232 -35.5t181 -95.5q22 -20 22.5 -44.5t-20.5 -48.5l-73 -77q-20 -26 -43 -29t-54 16q-60 39 -124 60.5t-122 21.5q-62 0 -103.5 -24t-41.5 -59q0 -36 28 -56.5t93 -33.5l171 -34q163 -32 241 -109t78 -204
q0 -157 -126.5 -254.5t-332.5 -97.5q-118 0 -222 30.5t-184 87.5q-59 44 -69 84t30 71l86 69q25 21 48.5 20.5t52.5 -26.5q65 -55 127.5 -79.5t130.5 -24.5q71 0 112 25.5t41 67.5q0 37 -27.5 56.5t-110.5 36.5l-185 38q-133 27 -207 107t-74 200zM636 1152h-253
q-20 0 -36 11.5t-29 33.5l-200 323q-14 27 -3 47t35 20h172q20 0 32 -6t31 -31l125 -168l124 168q19 25 31 31t32 6h174q22 0 33.5 -20.5t-5.5 -46.5l-198 -323q-13 -22 -29 -33.5t-36 -11.5z" />
    <glyph glyph-name="Tcommaaccent" unicode="&#x162;" horiz-adv-x="1332" 
d="M24 1270v187q0 21 13 35t34 14h1190q21 0 34 -14t13 -35v-187q0 -21 -13 -34.5t-34 -13.5h-435v-1173q0 -20 -14.5 -34.5t-34.5 -14.5h-224q-19 0 -33 14.5t-14 34.5v1173h-435q-21 0 -34 13.5t-13 34.5zM492 -568l99 137q-45 23 -71 64t-26 89q0 75 50.5 125t125.5 50
q76 0 128.5 -53.5t52.5 -134.5q0 -52 -30 -111.5t-97 -137.5l-90 -108q-22 -25 -44.5 -29t-48.5 12l-41 28q-19 13 -21 31.5t13 37.5z" />
    <glyph glyph-name="tcommaaccent" unicode="&#x163;" horiz-adv-x="874" 
d="M697 288q28 17 50.5 14t35.5 -25l71 -110q14 -20 12.5 -40t-18.5 -35q-51 -52 -132.5 -82t-173.5 -30q-158 0 -253 87.5t-95 243.5v485h-104q-18 0 -31.5 14t-13.5 33v56q0 29 8.5 51t30.5 48l209 258q19 23 36.5 32t42.5 9h73q20 0 33 -13t13 -32v-207h286
q19 0 33 -13.5t14 -33.5v-155q0 -19 -14 -33t-33 -14h-286v-442q0 -49 26 -78t66 -29q25 0 46 6t68 35zM298 -568l99 137q-45 23 -71 64t-26 89q0 75 50.5 125t125.5 50q76 0 128.5 -53.5t52.5 -134.5q0 -52 -30 -111.5t-97 -137.5l-90 -108q-22 -25 -44.5 -29t-48.5 12
l-41 28q-19 13 -21 31.5t13 37.5z" />
    <glyph glyph-name="Tcaron" unicode="&#x164;" horiz-adv-x="1332" 
d="M24 1270v187q0 21 13 35t34 14h1190q21 0 34 -14t13 -35v-187q0 -21 -13 -34.5t-34 -13.5h-435v-1173q0 -20 -14.5 -34.5t-34.5 -14.5h-224q-19 0 -33 14.5t-14 34.5v1173h-435q-21 0 -34 13.5t-13 34.5zM791 1614h-253q-20 0 -36 11.5t-29 33.5l-200 323q-14 27 -3 47
t35 20h172q20 0 32 -6t31 -31l125 -168l124 168q19 25 31 31t32 6h174q22 0 33.5 -20.5t-5.5 -46.5l-198 -323q-13 -22 -29 -33.5t-36 -11.5z" />
    <glyph glyph-name="tcaron" unicode="&#x165;" horiz-adv-x="876" 
d="M697 287q28 17 50.5 14t35.5 -25l71 -110q14 -20 12.5 -40t-18.5 -35q-51 -52 -132.5 -82t-173.5 -30q-158 0 -253 87.5t-95 243.5v485h-104q-18 0 -31.5 14t-13.5 33v56q0 29 8.5 51t30.5 48l209 258q19 23 36.5 32t42.5 9h73q20 0 33 -13t13 -32v-207h286
q19 0 33 -13.5t14 -33.5v-155q0 -19 -14 -33t-33 -14h-286v-442q0 -49 26 -78t66 -29q25 0 46 6t68 35zM608 1267l103 142q-46 22 -73.5 64.5t-27.5 92.5q0 76 52 128.5t129 52.5q79 0 133 -55t54 -139q0 -55 -31.5 -118t-97.5 -138l-95 -110q-23 -28 -47 -32.5t-50 13.5
l-40 28q-19 13 -21 33t12 38z" />
    <glyph glyph-name="Tbar" unicode="&#x166;" horiz-adv-x="1332" 
d="M826 596v-547q0 -20 -14.5 -34.5t-34.5 -14.5h-224q-19 0 -33 14.5t-14 34.5v547h-213q-22 0 -36 13.5t-14 33.5v147q0 20 14.5 33.5t35.5 13.5h213v385h-435q-21 0 -34 13.5t-13 34.5v187q0 21 13 35t34 14h1190q21 0 34 -14t13 -35v-187q0 -21 -13 -34.5t-34 -13.5
h-435v-385h216q19 0 33 -14t14 -33v-147q0 -20 -13.5 -33.5t-33.5 -13.5h-216z" />
    <glyph glyph-name="tbar" unicode="&#x167;" horiz-adv-x="876" 
d="M848 91q-51 -52 -132.5 -82t-173.5 -30q-158 0 -253 87.5t-95 243.5v179h-99q-20 0 -35 14.5t-15 33.5v79q0 20 15 35t35 15h99v129h-104q-18 0 -31.5 14t-13.5 33v56q0 29 8.5 51t30.5 48l209 258q19 23 36.5 32t42.5 9h73q20 0 33 -13t13 -32v-207h286q19 0 33 -13.5
t14 -33.5v-155q0 -19 -14 -33t-33 -14h-286v-129h202q21 0 35 -14.5t14 -35.5v-79q0 -20 -14 -34t-35 -14h-202v-136q0 -49 26 -78t66 -29q25 0 46 6t68 35q28 17 50.5 14t35.5 -25l71 -110q14 -20 12.5 -40t-18.5 -35z" />
    <glyph glyph-name="Utilde" unicode="&#x168;" horiz-adv-x="1491" 
d="M1375 1458v-917q0 -266 -173 -419t-457 -153q-283 0 -456 152t-173 418v919q0 20 14 34t34 14h213q21 0 35 -14t14 -34v-897q0 -146 84.5 -228t234.5 -82t235 82.5t85 227.5v897q0 20 14.5 34t35.5 14h213q19 0 33 -14t14 -34zM719 1685q-64 18 -89 23t-40 5
q-26 0 -49 -9t-55 -36q-20 -16 -29.5 -21t-19.5 -5q-12 0 -21 5.5t-22 22.5l-65 93q-9 12 -14 26.5t-5 31.5q0 56 75 113t168 57q29 0 70.5 -7.5t129.5 -31.5q70 -19 98.5 -24.5t45.5 -5.5q26 0 49 9t56 36q20 16 30 21t20 5q12 0 22.5 -6.5t23.5 -23.5l60 -91
q8 -14 12.5 -29.5t4.5 -28.5q0 -57 -74 -113.5t-167 -56.5q-33 0 -78 8t-137 33z" />
    <glyph glyph-name="utilde" unicode="&#x169;" horiz-adv-x="1136" 
d="M568 228q89 0 141.5 54.5t52.5 143.5v575q0 17 14.5 30t32.5 13h205q18 0 32.5 -13t14.5 -30v-590q0 -197 -133.5 -319t-359.5 -122t-359.5 122t-133.5 319v590q0 17 14 30t32 13h206q18 0 31.5 -13t13.5 -30v-575q0 -87 53.5 -142.5t142.5 -55.5zM542 1224
q-64 18 -89 23t-40 5q-26 0 -49 -9t-55 -36q-20 -16 -29.5 -21t-19.5 -5q-12 0 -21 5.5t-22 22.5l-65 93q-9 12 -14 26.5t-5 31.5q0 56 75 113t168 57q29 0 70.5 -7.5t129.5 -31.5q70 -19 98.5 -24.5t45.5 -5.5q26 0 49 9t56 36q20 16 30 21t20 5q12 0 22.5 -6.5t23.5 -23.5
l60 -91q8 -14 12.5 -29.5t4.5 -28.5q0 -57 -74 -113.5t-167 -56.5q-33 0 -78 8t-137 33z" />
    <glyph glyph-name="Umacron" unicode="&#x16a;" horiz-adv-x="1491" 
d="M1375 1458v-917q0 -266 -173 -419t-457 -153q-283 0 -456 152t-173 418v919q0 20 14 34t34 14h213q21 0 35 -14t14 -34v-897q0 -146 84.5 -228t234.5 -82t235 82.5t85 227.5v897q0 20 14.5 34t35.5 14h213q19 0 33 -14t14 -34zM1074 1657h-660q-20 0 -34 14t-14 33v151
q0 20 13.5 33.5t34.5 13.5h660q21 0 35.5 -13.5t14.5 -33.5v-151q0 -19 -14.5 -33t-35.5 -14z" />
    <glyph glyph-name="umacron" unicode="&#x16b;" horiz-adv-x="1136" 
d="M568 228q89 0 141.5 54.5t52.5 143.5v575q0 17 14.5 30t32.5 13h205q18 0 32.5 -13t14.5 -30v-590q0 -197 -133.5 -319t-359.5 -122t-359.5 122t-133.5 319v590q0 17 14 30t32 13h206q18 0 31.5 -13t13.5 -30v-575q0 -87 53.5 -142.5t142.5 -55.5zM897 1196h-660
q-20 0 -34 14t-14 33v151q0 20 13.5 33.5t34.5 13.5h660q21 0 35.5 -13.5t14.5 -33.5v-151q0 -19 -14.5 -33t-35.5 -14z" />
    <glyph glyph-name="Ubreve" unicode="&#x16c;" horiz-adv-x="1491" 
d="M1375 1458v-917q0 -266 -173 -419t-457 -153q-283 0 -456 152t-173 418v919q0 20 14 34t34 14h213q21 0 35 -14t14 -34v-897q0 -146 84.5 -228t234.5 -82t235 82.5t85 227.5v897q0 20 14.5 34t35.5 14h213q19 0 33 -14t14 -34zM621 1986v-26q0 -54 34 -86t90 -32t90.5 32
t34.5 86v26q0 16 10.5 26.5t24.5 10.5h178q17 0 27 -10t10 -27v-45q0 -158 -99.5 -248t-275.5 -90q-175 0 -273.5 90t-98.5 248v45q0 16 10 26.5t25 10.5h178q15 0 25 -10.5t10 -26.5z" />
    <glyph glyph-name="ubreve" unicode="&#x16d;" horiz-adv-x="1136" 
d="M568 228q89 0 141.5 54.5t52.5 143.5v575q0 17 14.5 30t32.5 13h205q18 0 32.5 -13t14.5 -30v-590q0 -197 -133.5 -319t-359.5 -122t-359.5 122t-133.5 319v590q0 17 14 30t32 13h206q18 0 31.5 -13t13.5 -30v-575q0 -87 53.5 -142.5t142.5 -55.5zM444 1525v-26
q0 -54 34 -86t90 -32t90.5 32t34.5 86v26q0 16 10.5 26.5t24.5 10.5h178q17 0 27 -10t10 -27v-45q0 -158 -99.5 -248t-275.5 -90q-175 0 -273.5 90t-98.5 248v45q0 16 10 26.5t25 10.5h178q15 0 25 -10.5t10 -26.5z" />
    <glyph glyph-name="Uring" unicode="&#x16e;" horiz-adv-x="1491" 
d="M1375 1458v-917q0 -266 -173 -419t-457 -153q-283 0 -456 152t-173 418v919q0 20 14 34t34 14h213q21 0 35 -14t14 -34v-897q0 -146 84.5 -228t234.5 -82t235 82.5t85 227.5v897q0 20 14.5 34t35.5 14h213q19 0 33 -14t14 -34zM745 2225q138 0 232 -89t95 -221
q-1 -132 -95 -221t-232 -89t-231.5 89t-93.5 221t93.5 221t231.5 89zM745 1779q56 0 92.5 38.5t36.5 95.5q0 59 -36 97t-93 38t-93 -38t-36 -97q0 -57 36.5 -95.5t92.5 -38.5z" />
    <glyph glyph-name="uring" unicode="&#x16f;" horiz-adv-x="1136" 
d="M568 228q89 0 141.5 54.5t52.5 143.5v575q0 17 14.5 30t32.5 13h205q18 0 32.5 -13t14.5 -30v-590q0 -197 -133.5 -319t-359.5 -122t-359.5 122t-133.5 319v590q0 17 14 30t32 13h206q18 0 31.5 -13t13.5 -30v-575q0 -87 53.5 -142.5t142.5 -55.5zM568 1764
q138 0 232 -89t95 -221q-1 -132 -95 -221t-232 -89t-231.5 89t-93.5 221t93.5 221t231.5 89zM568 1318q56 0 92.5 38.5t36.5 95.5q0 59 -36 97t-93 38t-93 -38t-36 -97q0 -57 36.5 -95.5t92.5 -38.5z" />
    <glyph glyph-name="Uhungarumlaut" unicode="&#x170;" horiz-adv-x="1491" 
d="M1375 1458v-917q0 -266 -173 -419t-457 -153q-283 0 -456 152t-173 418v919q0 20 14 34t34 14h213q21 0 35 -14t14 -34v-897q0 -146 84.5 -228t234.5 -82t235 82.5t85 227.5v897q0 20 14.5 34t35.5 14h213q19 0 33 -14t14 -34zM522 2050h254q31 0 44 -22t-1 -47
l-194 -329q-14 -22 -26 -29.5t-30 -7.5h-136q-32 0 -46.5 18t-6.5 49l86 329q4 18 19.5 28.5t36.5 10.5zM976 2050h254q31 0 43.5 -22.5t-2.5 -46.5l-194 -329q-12 -20 -24.5 -28.5t-31.5 -8.5h-136q-32 0 -46.5 18.5t-6.5 48.5l88 329q5 18 19.5 28.5t36.5 10.5z" />
    <glyph glyph-name="uhungarumlaut" unicode="&#x171;" horiz-adv-x="1136" 
d="M568 228q89 0 141.5 54.5t52.5 143.5v575q0 17 14.5 30t32.5 13h205q18 0 32.5 -13t14.5 -30v-590q0 -197 -133.5 -319t-359.5 -122t-359.5 122t-133.5 319v590q0 17 14 30t32 13h206q18 0 31.5 -13t13.5 -30v-575q0 -87 53.5 -142.5t142.5 -55.5zM370 1588h254
q31 0 44 -22t-1 -47l-194 -329q-14 -22 -26 -29.5t-30 -7.5h-136q-32 0 -46.5 18t-6.5 49l86 329q4 18 19.5 28.5t36.5 10.5zM824 1588h254q31 0 43.5 -22.5t-2.5 -46.5l-194 -329q-12 -20 -24.5 -28.5t-31.5 -8.5h-136q-32 0 -46.5 18.5t-6.5 48.5l88 329q5 18 19.5 28.5
t36.5 10.5z" />
    <glyph glyph-name="Uogonek" unicode="&#x172;" horiz-adv-x="1491" 
d="M1375 1458v-917q0 -266 -173 -419t-457 -153q-283 0 -456 152t-173 418v919q0 20 14 34t34 14h213q21 0 35 -14t14 -34v-897q0 -146 84.5 -228t234.5 -82t235 82.5t85 227.5v897q0 20 14.5 34t35.5 14h213q19 0 33 -14t14 -34zM929 -466q-124 0 -196.5 56t-72.5 153
q0 106 99.5 211t212.5 150l82 -8l13 -26q-68 -94 -100.5 -156t-32.5 -98q0 -38 23.5 -58t68.5 -20q17 0 40.5 3.5t26.5 3.5q20 2 29.5 -11t6.5 -39l-6 -86q-3 -36 -53.5 -55.5t-140.5 -19.5z" />
    <glyph glyph-name="uogonek" unicode="&#x173;" horiz-adv-x="1136" 
d="M568 228q89 0 141.5 54.5t52.5 143.5v575q0 17 14.5 30t32.5 13h205q18 0 32.5 -13t14.5 -30v-590q0 -197 -133.5 -319t-359.5 -122t-359.5 122t-133.5 319v590q0 17 14 30t32 13h206q18 0 31.5 -13t13.5 -30v-575q0 -87 53.5 -142.5t142.5 -55.5zM703 -492
q-124 0 -196.5 56t-72.5 153q0 106 99.5 211t212.5 150l82 -8l13 -26q-68 -94 -100.5 -156t-32.5 -98q0 -38 23.5 -58t68.5 -20q17 0 40.5 3.5t26.5 3.5q20 2 29.5 -11t6.5 -39l-6 -86q-3 -36 -53.5 -55.5t-140.5 -19.5z" />
    <glyph glyph-name="Wcircumflex" unicode="&#x174;" horiz-adv-x="2189" 
d="M1092 692l-230 -645q-7 -22 -24.5 -34.5t-38.5 -12.5h-223q-20 0 -37 12.5t-24 34.5l-495 1386q-11 32 1.5 52.5t41.5 20.5h248q19 0 30.5 -10t18.5 -33l341 -1073l243 716l-117 327q-11 32 1.5 52.5t41.5 20.5h250q18 0 29.5 -10t17.5 -33l339 -1069l335 1069
q7 22 19.5 32.5t29.5 10.5h235q28 0 39 -19.5t0 -51.5l-495 -1388q-7 -22 -24.5 -34.5t-38.5 -12.5h-223q-20 0 -37 12.5t-24 34.5zM968 2040h253q21 0 37 -11t28 -34l198 -323q17 -24 5 -45.5t-33 -21.5h-174q-18 0 -30 5.5t-33 31.5l-124 170l-125 -170q-21 -26 -33 -31.5
t-30 -5.5h-172q-23 0 -35 21t3 46l200 323q12 23 28 34t37 11z" />
    <glyph glyph-name="wcircumflex" unicode="&#x175;" horiz-adv-x="1793" 
d="M896 474l-171 -427q-9 -23 -24 -35t-34 -12h-213q-21 0 -35.5 11.5t-24.5 35.5l-370 926q-11 27 3 49t42 22h224q20 0 34 -11t22 -34l226 -609l178 442l-56 141q-10 27 4 49t41 22h222q21 0 36 -11.5t22 -33.5l220 -609l208 609q9 24 24 34.5t37 10.5h215q27 0 40 -22
t3 -49l-370 -926q-9 -24 -23.5 -35.5t-34.5 -11.5h-213q-21 0 -36.5 12t-24.5 35zM771 1577h253q21 0 37 -11t28 -34l198 -323q17 -24 5 -45.5t-33 -21.5h-174q-18 0 -30 5.5t-33 31.5l-124 170l-125 -170q-21 -26 -33 -31.5t-30 -5.5h-172q-23 0 -35 21t3 46l200 323
q12 23 28 34t37 11z" />
    <glyph glyph-name="Ycircumflex" unicode="&#x176;" horiz-adv-x="1399" 
d="M545 49v584l-522 802q-17 25 -6 48t38 23h269q18 0 31.5 -8.5t24.5 -25.5l323 -532h6l323 532q11 17 24 25.5t30 8.5h258q28 0 40 -22t-6 -49l-523 -802v-584q0 -20 -14 -34.5t-33 -14.5h-215q-21 0 -34.5 14t-13.5 35zM571 2049h253q21 0 37 -11t28 -34l198 -323
q17 -24 5 -45.5t-33 -21.5h-174q-18 0 -30 5.5t-33 31.5l-124 170l-125 -170q-21 -26 -33 -31.5t-30 -5.5h-172q-23 0 -35 21t3 46l200 323q12 23 28 34t37 11z" />
    <glyph glyph-name="ycircumflex" unicode="&#x177;" horiz-adv-x="1128" 
d="M321 -499q-94 0 -175 27.5t-137 77.5q-15 17 -16 39t13 43l74 106q16 24 40.5 27t51.5 -14q40 -26 71 -37t63 -11q49 0 85 27.5t52 78.5l46 135h-87q-20 0 -34 11.5t-22 33.5l-316 928q-10 34 2 52.5t45 18.5h244q18 0 30.5 -12.5t18.5 -34.5l213 -688l196 688
q6 21 20.5 34t35.5 13h228q29 0 40 -19.5t1 -51.5l-372 -1151q-50 -153 -157 -237t-254 -84zM438 1587h253q21 0 37 -11t28 -34l198 -323q17 -24 5 -45.5t-33 -21.5h-174q-18 0 -30 5.5t-33 31.5l-124 170l-125 -170q-21 -26 -33 -31.5t-30 -5.5h-172q-23 0 -35 21t3 46
l200 323q12 23 28 34t37 11z" />
    <glyph glyph-name="Ydieresis" unicode="&#x178;" horiz-adv-x="1399" 
d="M545 49v584l-522 802q-17 25 -6 48t38 23h269q18 0 31.5 -8.5t24.5 -25.5l323 -532h6l323 532q11 17 24 25.5t30 8.5h258q28 0 40 -22t-6 -49l-523 -802v-584q0 -20 -14 -34.5t-33 -14.5h-215q-21 0 -34.5 14t-13.5 35zM467 1605q-76 0 -130.5 54.5t-54.5 130.5
q0 77 54.5 132t130.5 55q77 0 132 -55t55 -132q0 -76 -55 -130.5t-132 -54.5zM928 1605q-77 0 -132.5 54.5t-55.5 130.5q0 77 55.5 132t132.5 55q76 0 130.5 -55t54.5 -132q0 -76 -54.5 -130.5t-130.5 -54.5z" />
    <glyph glyph-name="Zacute" unicode="&#x179;" horiz-adv-x="1315" 
d="M1235 0h-1149q-22 0 -35.5 14t-13.5 35v145q0 16 6 31.5t24 39.5l755 968h-691q-20 0 -33.5 13.5t-13.5 31.5v179q0 21 13 35t34 14h1053q19 0 33 -14.5t14 -34.5v-164q0 -15 -6.5 -32t-17.5 -32l-736 -956h764q19 0 32 -13t13 -32v-179q0 -20 -13.5 -34.5t-31.5 -14.5z
M692 2049h254q32 0 44 -22.5t-3 -46.5l-194 -329q-12 -20 -24.5 -28.5t-31.5 -8.5h-135q-32 0 -46.5 18t-7.5 49l86 329q4 18 20 28.5t38 10.5z" />
    <glyph glyph-name="zacute" unicode="&#x17a;" horiz-adv-x="1024" 
d="M955 859q0 -19 -4.5 -31.5t-16.5 -24.5l-484 -547h484q20 0 32.5 -12.5t12.5 -32.5v-166q0 -19 -12.5 -32t-32.5 -13h-839q-18 0 -33 14.5t-15 32.5v138q0 17 5.5 30t18.5 26l489 547h-444q-18 0 -31.5 13.5t-13.5 31.5v163q0 19 13.5 33.5t31.5 14.5h792q19 0 33 -14
t14 -34v-137zM542 1588h254q32 0 44 -22.5t-3 -46.5l-194 -329q-12 -20 -24.5 -28.5t-31.5 -8.5h-135q-32 0 -46.5 18t-7.5 49l86 329q4 18 20 28.5t38 10.5z" />
    <glyph glyph-name="Zdotaccent" unicode="&#x17b;" horiz-adv-x="1315" 
d="M1235 0h-1149q-22 0 -35.5 14t-13.5 35v145q0 16 6 31.5t24 39.5l755 968h-691q-20 0 -33.5 13.5t-13.5 31.5v179q0 21 13 35t34 14h1053q19 0 33 -14.5t14 -34.5v-164q0 -15 -6.5 -32t-17.5 -32l-736 -956h764q19 0 32 -13t13 -32v-179q0 -20 -13.5 -34.5t-31.5 -14.5z
M857 1820q0 -82 -58.5 -141t-139.5 -59q-83 0 -142 59t-59 141t59 140t142 58q81 0 139.5 -58t58.5 -140z" />
    <glyph glyph-name="zdotaccent" unicode="&#x17c;" horiz-adv-x="1024" 
d="M955 859q0 -19 -4.5 -31.5t-16.5 -24.5l-484 -547h484q20 0 32.5 -12.5t12.5 -32.5v-166q0 -19 -12.5 -32t-32.5 -13h-839q-18 0 -33 14.5t-15 32.5v138q0 17 5.5 30t18.5 26l489 547h-444q-18 0 -31.5 13.5t-13.5 31.5v163q0 19 13.5 33.5t31.5 14.5h792q19 0 33 -14
t14 -34v-137zM712 1358q0 -82 -58.5 -141t-139.5 -59q-83 0 -142 59t-59 141t59 140t142 58q81 0 139.5 -58t58.5 -140z" />
    <glyph glyph-name="Zcaron" unicode="&#x17d;" horiz-adv-x="1315" 
d="M1235 0h-1149q-22 0 -35.5 14t-13.5 35v145q0 16 6 31.5t24 39.5l755 968h-691q-20 0 -33.5 13.5t-13.5 31.5v179q0 21 13 35t34 14h1053q19 0 33 -14.5t14 -34.5v-164q0 -15 -6.5 -32t-17.5 -32l-736 -956h764q19 0 32 -13t13 -32v-179q0 -20 -13.5 -34.5t-31.5 -14.5z
M785 1614h-253q-20 0 -36 11.5t-29 33.5l-200 323q-14 27 -3 47t35 20h172q20 0 32 -6t31 -31l125 -168l124 168q19 25 31 31t32 6h174q22 0 33.5 -20.5t-5.5 -46.5l-198 -323q-13 -22 -29 -33.5t-36 -11.5z" />
    <glyph glyph-name="zcaron" unicode="&#x17e;" horiz-adv-x="1024" 
d="M955 859q0 -19 -4.5 -31.5t-16.5 -24.5l-484 -547h484q20 0 32.5 -12.5t12.5 -32.5v-166q0 -19 -12.5 -32t-32.5 -13h-839q-18 0 -33 14.5t-15 32.5v138q0 17 5.5 30t18.5 26l489 547h-444q-18 0 -31.5 13.5t-13.5 31.5v163q0 19 13.5 33.5t31.5 14.5h792q19 0 33 -14
t14 -34v-137zM640 1152h-253q-20 0 -36 11.5t-29 33.5l-200 323q-14 27 -3 47t35 20h172q20 0 32 -6t31 -31l125 -168l124 168q19 25 31 31t32 6h174q22 0 33.5 -20.5t-5.5 -46.5l-198 -323q-13 -22 -29 -33.5t-36 -11.5z" />
    <glyph glyph-name="longs" unicode="&#x17f;" horiz-adv-x="641" 
d="M69 1044h140v122q0 172 99 271.5t258 99.5q58 0 107 -8.5t89 -26.5q29 -14 37.5 -31.5t1.5 -45.5l-39 -138q-7 -26 -25.5 -35.5t-43.5 -1.5q-35 10 -53.5 14t-34.5 4q-46 0 -72.5 -29t-26.5 -77v-1115q0 -19 -13 -33t-30 -14h-209q-18 0 -31.5 14t-13.5 33v747h-140
q-19 0 -33 14t-14 33v155q0 20 14 34t33 14z" />
    <glyph glyph-name="florin" unicode="&#x192;" horiz-adv-x="1005" 
d="M316 783v392q0 172 105 272t272 100q82 0 165 -28.5t132 -74.5q17 -15 18 -36t-14 -41l-86 -123q-15 -21 -37 -22t-49 18q-25 17 -50 25.5t-47 8.5q-50 0 -81 -33.5t-31 -91.5v-366h203q19 0 33 -13t14 -32v-157q0 -18 -14.5 -31.5t-32.5 -13.5h-203v-635
q0 -170 -104.5 -270t-269.5 -100q-81 0 -164 28t-133 73q-18 17 -19 38t15 40l84 124q16 20 36 21.5t52 -18.5q23 -17 49 -26t48 -9q50 0 79.5 34t29.5 93v607h-170q-18 0 -32.5 13.5t-14.5 31.5v157q0 19 14 32t33 13h170z" />
    <glyph glyph-name="Aringacute" unicode="&#x1fa;" horiz-adv-x="1470" 
d="M546 603h364l-181 508zM452 340l-107 -297q-7 -22 -19 -32.5t-30 -10.5h-235q-28 0 -39 20t1 51l535 1388q9 22 25 34.5t36 12.5h232q20 0 35.5 -12.5t24.5 -34.5l538 -1386q13 -32 0 -52.5t-43 -20.5h-249q-18 0 -29.5 10t-18.5 33l-106 297h-551zM1059 1916
q-1 -132 -95 -221t-232 -89t-231.5 89t-93.5 221t93.5 221t231.5 89q21 0 41.5 -2t39.5 -7l55 209q4 18 20 28.5t38 10.5h254q32 0 44 -22.5t-3 -46.5l-198 -336q17 -33 26 -69.5t10 -74.5zM732 1780q56 0 92.5 38.5t36.5 95.5q0 59 -36 97t-93 38t-93 -38t-36 -97
q0 -57 36.5 -95.5t92.5 -38.5z" />
    <glyph glyph-name="aringacute" unicode="&#x1fb;" 
d="M613 796q-112 0 -188 -79.5t-76 -195.5t76.5 -196t187.5 -80q112 0 188.5 80t76.5 196t-76.5 195.5t-188.5 79.5zM570 -30q-218 0 -370.5 158t-152.5 397q0 237 152.5 393t372.5 156q102 0 185 -40.5t121 -108.5v72q0 19 13.5 33t31.5 14h207q18 0 31.5 -14t13.5 -33
v-952q0 -19 -13.5 -32t-31.5 -13h-207q-19 0 -32 13t-13 32v71q-41 -67 -124 -106.5t-184 -39.5zM951 1454q-1 -132 -95 -221t-232 -89t-231.5 89t-93.5 221t93.5 221t231.5 89q21 0 41.5 -2t39.5 -7l55 209q4 18 20 28.5t38 10.5h254q32 0 44 -22.5t-3 -46.5l-198 -336
q17 -33 26 -69.5t10 -74.5zM624 1318q56 0 92.5 38.5t36.5 95.5q0 59 -36 97t-93 38t-93 -38t-36 -97q0 -57 36.5 -95.5t92.5 -38.5z" />
    <glyph glyph-name="AEacute" unicode="&#x1fc;" horiz-adv-x="2008" 
d="M547 607h400l-201 614zM460 340l-95 -293q-8 -23 -23 -35t-35 -12h-241q-31 0 -42.5 18.5t-0.5 50.5l492 1390q8 22 25.5 34.5t37.5 12.5h1336q21 0 35.5 -14t14.5 -35v-194q0 -19 -14.5 -32t-35.5 -13h-826l113 -323h423q20 0 34.5 -14.5t14.5 -34.5v-177
q0 -20 -14.5 -34.5t-34.5 -14.5h-327l116 -332h501q21 0 35.5 -13t14.5 -32v-194q0 -20 -14.5 -34.5t-35.5 -14.5h-719q-26 0 -42 12t-22 35l-96 293h-575zM1049 2018h254q32 0 44 -22.5t-3 -46.5l-194 -329q-12 -20 -24.5 -28.5t-31.5 -8.5h-135q-32 0 -46.5 18t-7.5 49
l86 329q4 18 20 28.5t38 10.5z" />
    <glyph glyph-name="aeacute" unicode="&#x1fd;" horiz-adv-x="1905" 
d="M1095 635h478q-17 92 -82.5 147t-154.5 55q-88 0 -154 -55.5t-87 -146.5zM346 521q0 -115 76.5 -194t188.5 -79q59 0 112 21t91 59q-15 46 -23 93t-8 96q0 51 8 100t24 95q-37 40 -90 62t-114 22q-112 0 -188.5 -79.5t-76.5 -195.5zM1803 168q-73 -93 -194.5 -145.5
t-267.5 -52.5q-106 0 -201 33.5t-170 96.5q-73 -62 -166.5 -96t-192.5 -34q-237 0 -401.5 159.5t-164.5 389.5q0 233 164.5 394t401.5 161q101 0 194.5 -34.5t164.5 -96.5q73 64 165.5 97.5t196.5 33.5q231 0 381.5 -151t150.5 -370v-67q0 -26 -12.5 -39.5t-37.5 -13.5h-722
q17 -97 88.5 -155t166.5 -58q69 0 126 24.5t111 78.5q17 17 38 20t39 -9l132 -93q16 -12 19 -34t-9 -39zM982 1587h254q32 0 44 -22.5t-3 -46.5l-194 -329q-12 -20 -24.5 -28.5t-31.5 -8.5h-135q-32 0 -46.5 18t-7.5 49l86 329q4 18 20 28.5t38 10.5z" />
    <glyph glyph-name="Oslashacute" unicode="&#x1fe;" horiz-adv-x="1698" 
d="M851 1537q335 0 565.5 -227t230.5 -557t-230.5 -556.5t-565.5 -226.5t-566.5 227t-231.5 556q0 330 231.5 557t566.5 227zM851 1250q-205 0 -339 -141.5t-134 -355.5q0 -60 11.5 -116t34.5 -106l660 660q-52 29 -111 44t-122 15zM851 256q203 0 338 142.5t135 354.5
q0 59 -12 115.5t-35 108.5l-661 -661q53 -30 112.5 -45t122.5 -15zM894 2016h254q32 0 44 -22.5t-3 -46.5l-194 -329q-12 -20 -24.5 -28.5t-31.5 -8.5h-135q-32 0 -46.5 18t-7.5 49l86 329q4 18 20 28.5t38 10.5z" />
    <glyph glyph-name="oslashacute" unicode="&#x1ff;" horiz-adv-x="1220" 
d="M611 -30q-237 0 -401.5 159.5t-164.5 389.5q0 233 164.5 394t401.5 161q235 0 399.5 -161t164.5 -394q0 -230 -164.5 -389.5t-399.5 -159.5zM611 796q-113 0 -189 -79.5t-76 -195.5q0 -28 4.5 -54t13.5 -49l358 354q-26 12 -54 18t-57 6zM611 248q112 0 187.5 78.5
t75.5 194.5q0 27 -4.5 52.5t-13.5 49.5l-356 -352q26 -11 54 -17t57 -6zM644 1587h254q32 0 44 -22.5t-3 -46.5l-194 -329q-12 -20 -24.5 -28.5t-31.5 -8.5h-135q-32 0 -46.5 18t-7.5 49l86 329q4 18 20 28.5t38 10.5z" />
    <glyph glyph-name="Scommaaccent" unicode="&#x218;" horiz-adv-x="1317" 
d="M77 1080q0 200 164 329.5t418 129.5q158 0 296 -48t226 -131q32 -31 34.5 -61t-23.5 -55l-101 -103q-25 -25 -55 -25.5t-63 25.5q-86 64 -165.5 94t-162.5 30q-106 0 -170 -44t-64 -119q0 -54 39.5 -90.5t121.5 -58.5l289 -75q207 -53 308 -160t101 -273
q0 -205 -165.5 -339t-441.5 -134q-186 0 -340 59t-250 163q-30 30 -31.5 66.5t29.5 60.5l131 101q27 20 52 17t54 -32q85 -83 176.5 -121.5t198.5 -38.5q112 0 180.5 48t68.5 120q0 62 -38.5 102.5t-116.5 61.5l-329 88q-181 48 -276 153.5t-95 259.5zM485 -568l99 137
q-45 23 -71 64t-26 89q0 75 50.5 125t125.5 50q76 0 128.5 -53.5t52.5 -134.5q0 -52 -30 -111.5t-97 -137.5l-90 -108q-22 -25 -44.5 -29t-48.5 12l-41 28q-19 13 -21 31.5t13 37.5z" />
    <glyph glyph-name="scommaaccent" unicode="&#x219;" horiz-adv-x="1016" 
d="M65 733q0 150 123.5 245.5t321.5 95.5q123 0 232 -35.5t181 -95.5q22 -20 22.5 -44.5t-20.5 -48.5l-73 -77q-20 -26 -43 -29t-54 16q-60 39 -124 60.5t-122 21.5q-62 0 -103.5 -24t-41.5 -59q0 -36 28 -56.5t93 -33.5l171 -34q163 -32 241 -109t78 -204
q0 -157 -126.5 -254.5t-332.5 -97.5q-118 0 -222 30.5t-184 87.5q-59 44 -69 84t30 71l86 69q25 21 48.5 20.5t52.5 -26.5q65 -55 127.5 -79.5t130.5 -24.5q71 0 112 25.5t41 67.5q0 37 -27.5 56.5t-110.5 36.5l-185 38q-133 27 -207 107t-74 200zM337 -568l99 137
q-45 23 -71 64t-26 89q0 75 50.5 125t125.5 50q76 0 128.5 -53.5t52.5 -134.5q0 -52 -30 -111.5t-97 -137.5l-90 -108q-22 -25 -44.5 -29t-48.5 12l-41 28q-19 13 -21 31.5t13 37.5z" />
    <glyph glyph-name="uni021A" unicode="&#x21a;" horiz-adv-x="1332" 
d="M24 1270v187q0 21 13 35t34 14h1190q21 0 34 -14t13 -35v-187q0 -21 -13 -34.5t-34 -13.5h-435v-1173q0 -20 -14.5 -34.5t-34.5 -14.5h-224q-19 0 -33 14.5t-14 34.5v1173h-435q-21 0 -34 13.5t-13 34.5zM492 -568l99 137q-45 23 -71 64t-26 89q0 75 50.5 125t125.5 50
q76 0 128.5 -53.5t52.5 -134.5q0 -52 -30 -111.5t-97 -137.5l-90 -108q-22 -25 -44.5 -29t-48.5 12l-41 28q-19 13 -21 31.5t13 37.5z" />
    <glyph glyph-name="uni021B" unicode="&#x21b;" horiz-adv-x="874" 
d="M697 288q28 17 50.5 14t35.5 -25l71 -110q14 -20 12.5 -40t-18.5 -35q-51 -52 -132.5 -82t-173.5 -30q-158 0 -253 87.5t-95 243.5v485h-104q-18 0 -31.5 14t-13.5 33v56q0 29 8.5 51t30.5 48l209 258q19 23 36.5 32t42.5 9h73q20 0 33 -13t13 -32v-207h286
q19 0 33 -13.5t14 -33.5v-155q0 -19 -14 -33t-33 -14h-286v-442q0 -49 26 -78t66 -29q25 0 46 6t68 35zM298 -568l99 137q-45 23 -71 64t-26 89q0 75 50.5 125t125.5 50q76 0 128.5 -53.5t52.5 -134.5q0 -52 -30 -111.5t-97 -137.5l-90 -108q-22 -25 -44.5 -29t-48.5 12
l-41 28q-19 13 -21 31.5t13 37.5z" />
    <glyph glyph-name="dotlessj" unicode="&#x237;" horiz-adv-x="491" 
d="M97 -85v1082q0 19 12.5 33t30.5 14h209q18 0 31.5 -14.5t13.5 -32.5v-1108q0 -170 -99.5 -269t-257.5 -99q-64 0 -125 12t-99 31q-31 16 -40.5 35t-0.5 47l47 133q9 25 26 34t43 1q34 -12 61 -18t45 -6q48 0 75.5 33t27.5 92z" />
    <glyph glyph-name="apostrophe" unicode="&#x2bc;" horiz-adv-x="549" 
d="M58 990l127 170q-53 25 -83.5 72t-30.5 104q0 86 58.5 144.5t143.5 58.5q88 0 148.5 -61t60.5 -154q0 -59 -37 -134.5t-107 -158.5l-118 -134q-25 -29 -49.5 -33.5t-54.5 14.5l-47 32q-23 14 -25.5 35.5t14.5 44.5z" />
    <glyph glyph-name="circumflex" unicode="&#x2c6;" horiz-adv-x="921" 
d="M335 1577h253q21 0 37 -11t28 -34l198 -323q17 -24 5 -45.5t-33 -21.5h-174q-18 0 -30 5.5t-33 31.5l-124 170l-125 -170q-21 -26 -33 -31.5t-30 -5.5h-172q-23 0 -35 21t3 46l200 323q12 23 28 34t37 11z" />
    <glyph glyph-name="caron" unicode="&#x2c7;" horiz-adv-x="921" 
d="M587 1142h-253q-20 0 -36 11.5t-29 33.5l-200 323q-14 27 -3 47t35 20h172q20 0 32 -6t31 -31l125 -168l124 168q19 25 31 31t32 6h174q22 0 33.5 -20.5t-5.5 -46.5l-198 -323q-13 -22 -29 -33.5t-36 -11.5z" />
    <glyph glyph-name="breve" unicode="&#x2d8;" horiz-adv-x="861" 
d="M306 1520v-26q0 -54 34 -86t90 -32t90.5 32t34.5 86v26q0 16 10.5 26.5t24.5 10.5h178q17 0 27 -10t10 -27v-45q0 -158 -99.5 -248t-275.5 -90q-175 0 -273.5 90t-98.5 248v45q0 16 10 26.5t25 10.5h178q15 0 25 -10.5t10 -26.5z" />
    <glyph glyph-name="dotaccent" unicode="&#x2d9;" horiz-adv-x="525" 
d="M461 1342q0 -82 -58.5 -141t-139.5 -59q-83 0 -142 59t-59 141t59 140t142 58q81 0 139.5 -58t58.5 -140z" />
    <glyph glyph-name="ring" unicode="&#x2da;" horiz-adv-x="770" 
d="M385 1760q138 0 232 -89t95 -221q-1 -132 -95 -221t-232 -89t-231.5 89t-93.5 221t93.5 221t231.5 89zM385 1314q56 0 92.5 38.5t36.5 95.5q0 59 -36 97t-93 38t-93 -38t-36 -97q0 -57 36.5 -95.5t92.5 -38.5z" />
    <glyph glyph-name="ogonek" unicode="&#x2db;" horiz-adv-x="704" 
d="M387 -519q-124 0 -196.5 56t-72.5 153q0 106 99.5 211t212.5 150l82 -8l13 -26q-68 -94 -100.5 -156t-32.5 -98q0 -38 23.5 -58t68.5 -20q17 0 40.5 3.5t26.5 3.5q20 2 29.5 -11t6.5 -39l-6 -86q-3 -36 -53.5 -55.5t-140.5 -19.5z" />
    <glyph glyph-name="tilde" unicode="&#x2dc;" horiz-adv-x="947" 
d="M450 1199q-64 18 -89 23t-40 5q-26 0 -49 -9t-55 -36q-20 -16 -29.5 -21t-19.5 -5q-12 0 -21 5.5t-22 22.5l-65 93q-9 12 -14 26.5t-5 31.5q0 56 75 113t168 57q29 0 70.5 -7.5t129.5 -31.5q70 -19 98.5 -24.5t45.5 -5.5q26 0 49 9t56 36q20 16 30 21t20 5
q12 0 22.5 -6.5t23.5 -23.5l60 -91q8 -14 12.5 -29.5t4.5 -28.5q0 -57 -74 -113.5t-167 -56.5q-33 0 -78 8t-137 33z" />
    <glyph glyph-name="hungarumlaut" unicode="&#x2dd;" horiz-adv-x="1042" 
d="M250 1577h254q31 0 44 -22t-1 -47l-194 -329q-14 -22 -26 -29.5t-30 -7.5h-136q-32 0 -46.5 18t-6.5 49l86 329q4 18 19.5 28.5t36.5 10.5zM704 1577h254q31 0 43.5 -22.5t-2.5 -46.5l-194 -329q-12 -20 -24.5 -28.5t-31.5 -8.5h-136q-32 0 -46.5 18.5t-6.5 48.5l88 329
q5 18 19.5 28.5t36.5 10.5z" />
    <glyph glyph-name="pi" unicode="&#x3c0;" horiz-adv-x="1468" 
d="M1420 87q-50 -52 -130.5 -81t-172.5 -29q-160 0 -257.5 89t-97.5 245v484h-261v-747q0 -20 -13 -33.5t-32 -13.5h-206q-20 0 -34 14t-14 33v747h-129q-19 0 -32 13.5t-13 33.5v155q0 21 12.5 34t32.5 13h1287q19 0 33 -13.5t14 -33.5v-155q0 -19 -14 -33t-33 -14h-299
v-416q0 -61 30.5 -94t79.5 -33q22 0 47.5 8.5t51.5 24.5q26 17 48.5 14.5t35.5 -23.5l73 -114q12 -20 10.5 -40t-17.5 -35z" />
    <glyph glyph-name="uni0431" unicode="&#x431;" horiz-adv-x="1220" 
d="M1175 519q0 -230 -164.5 -389.5t-399.5 -159.5q-258 0 -420.5 174t-162.5 465q0 203 75 370t215 282q56 46 126 85.5t210 98.5q113 48 161.5 75t81.5 55q15 15 38.5 15.5t41.5 -17.5l99 -103q35 -36 24.5 -73t-67.5 -78q-82 -57 -244 -122t-189 -76
q-92 -38 -158.5 -103.5t-97.5 -145.5q52 55 147.5 92t186.5 37q212 0 354.5 -136.5t142.5 -345.5zM611 758q-112 0 -188.5 -77.5t-76.5 -189.5q0 -113 75.5 -189t189.5 -76q112 0 187.5 76t75.5 189q0 112 -76 189.5t-187 77.5z" />
    <glyph glyph-name="uni0440" unicode="&#x440;" 
d="M659 796q-112 0 -189.5 -80t-77.5 -195q0 -116 77.5 -196t189.5 -80q111 0 186.5 80t75.5 196t-75.5 195.5t-186.5 79.5zM390 996v-69q49 68 133 107.5t185 39.5q217 0 365.5 -155.5t148.5 -393.5q0 -241 -149 -398t-369 -157q-99 0 -184 36.5t-126 98.5v-485
q0 -19 -13 -32t-32 -13h-209q-18 0 -30.5 13t-12.5 32v1376q0 21 12.5 34.5t30.5 13.5h206q19 0 31.5 -14t12.5 -34z" />
    <glyph glyph-name="uni0443" unicode="&#x443;" horiz-adv-x="1128" 
d="M321 -499q-94 0 -175 27.5t-137 77.5q-15 17 -16 39t13 43l74 106q16 24 40.5 27t51.5 -14q40 -26 71 -37t63 -11q49 0 85 27.5t52 78.5l46 135h-87q-20 0 -34 11.5t-22 33.5l-316 928q-10 34 2 52.5t45 18.5h244q18 0 30.5 -12.5t18.5 -34.5l213 -688l196 688
q6 21 20.5 34t35.5 13h228q29 0 40 -19.5t1 -51.5l-372 -1151q-50 -153 -157 -237t-254 -84z" />
    <glyph glyph-name="uni0625" unicode="&#x625;" horiz-adv-x="591" 
d="M415 21q-7 -27 -27 -39t-79 -12q-52 0 -82.5 25.5t-22.5 68.5q7 29 8.5 113t-6.5 180l-82 833q-2 35 19 53t78 24q61 7 88.5 -7t29.5 -51l82 -828q8 -108 6 -205.5t-12 -154.5zM451 -635l-208 -151q-30 -23 -61 -13t-66 56q-28 39 -24 75t41 59l88 53q-89 3 -131 62
t-22 132q19 68 103 111t190 35q30 -2 43 -26t11 -68q-4 -55 -18.5 -71t-52.5 -17q-61 -2 -87.5 -13.5t-18.5 -34.5q5 -12 24 -15t53 1q19 3 48.5 9.5t31.5 6.5q31 4 49.5 -9.5t34.5 -54.5q16 -38 8.5 -72t-36.5 -55z" />
    <glyph glyph-name="uni062F" unicode="&#x62f;" horiz-adv-x="974" 
d="M792 0h-531q-55 0 -100 19.5t-75 54.5q-36 41 -47.5 100.5t0.5 124.5q7 36 36 48.5t84 3.5q60 -11 79 -29.5t12 -52.5q-6 -27 6 -39t41 -12h353v41q0 191 -64 332.5t-177 202.5q-30 16 -31 46.5t27 83.5q27 53 51.5 65.5t55.5 -5.5q166 -90 257.5 -280t91.5 -445v-196
q0 -31 -17.5 -47t-51.5 -16z" />
    <glyph glyph-name="uni0645" unicode="&#x645;" horiz-adv-x="1095" 
d="M353 -677q-69 -15 -94.5 -6t-34.5 42q-31 90 -58.5 180.5t-42.5 149.5q-21 84 -28 135.5t-3 94.5q5 62 32.5 110.5t78.5 85.5q37 27 104 44t168 26q44 4 96.5 6t188.5 5l-73 82q-76 84 -104 101.5t-64 17.5q-30 0 -64 -16.5t-67 -46.5q-25 -25 -54 -21t-67 41
q-35 30 -39 66t26 67q13 18 51 46.5t80 48.5q38 18 78 27t80 9q69 0 140 -42t137 -121l202 -243q18 -23 17.5 -57.5t-19.5 -74.5q-24 -48 -49 -63.5t-71 -15.5q-261 -4 -382.5 -17.5t-160.5 -38.5q-29 -21 -37 -41.5t-6 -53.5q1 -21 6 -48.5t14 -61.5q9 -42 33 -120t49 -153
l12 -47q10 -36 -6.5 -59t-68.5 -38z" />
    <glyph glyph-name="uni0E3F" unicode="&#xe3f;" horiz-adv-x="1453" 
d="M437 1257v-357h153v357h-153zM1009 1080q0 73 -46.5 119.5t-129.5 55.5v-353q83 9 129.5 56.5t46.5 121.5zM437 663v-413h153v413h-153zM1080 456q0 91 -66 149t-168 58h-13v-413h13q102 0 168 57t66 149zM833 0v-134q0 -18 -13.5 -31.5t-31.5 -13.5h-153
q-18 0 -31.5 13.5t-13.5 31.5v134h-416q-21 0 -34 13t-13 34v1412q0 21 13 34t34 13h416v116q0 18 13.5 30.5t31.5 12.5h153q19 0 32 -12.5t13 -30.5v-116h4q228 0 359.5 -108t131.5 -275q0 -104 -52.5 -185.5t-147.5 -124.5q132 -43 204.5 -141t72.5 -229q0 -191 -140 -317
t-365 -126h-67z" />
    <glyph glyph-name="Wgrave" unicode="&#x1e80;" horiz-adv-x="2189" 
d="M1092 692l-230 -645q-7 -22 -24.5 -34.5t-38.5 -12.5h-223q-20 0 -37 12.5t-24 34.5l-495 1386q-11 32 1.5 52.5t41.5 20.5h248q19 0 30.5 -10t18.5 -33l341 -1073l243 716l-117 327q-11 32 1.5 52.5t41.5 20.5h250q18 0 29.5 -10t17.5 -33l339 -1069l335 1069
q7 22 19.5 32.5t29.5 10.5h235q28 0 39 -19.5t0 -51.5l-495 -1388q-7 -22 -24.5 -34.5t-38.5 -12.5h-223q-20 0 -37 12.5t-24 34.5zM812 2040h254q21 0 36 -10.5t20 -28.5l88 -329q7 -31 -7.5 -49t-46.5 -18h-135q-19 0 -31.5 8t-24.5 29l-196 329q-14 25 -1 47t44 22z" />
    <glyph glyph-name="wgrave" unicode="&#x1e81;" horiz-adv-x="1793" 
d="M896 474l-171 -427q-9 -23 -24 -35t-34 -12h-213q-21 0 -35.5 11.5t-24.5 35.5l-370 926q-11 27 3 49t42 22h224q20 0 34 -11t22 -34l226 -609l178 442l-56 141q-10 27 4 49t41 22h222q21 0 36 -11.5t22 -33.5l220 -609l208 609q9 24 24 34.5t37 10.5h215q27 0 40 -22
t3 -49l-370 -926q-9 -24 -23.5 -35.5t-34.5 -11.5h-213q-21 0 -36.5 12t-24.5 35zM576 1577h254q21 0 36 -10.5t20 -28.5l88 -329q7 -31 -7.5 -49t-46.5 -18h-135q-19 0 -31.5 8t-24.5 29l-196 329q-14 25 -1 47t44 22z" />
    <glyph glyph-name="Wacute" unicode="&#x1e82;" horiz-adv-x="2189" 
d="M1092 692l-230 -645q-7 -22 -24.5 -34.5t-38.5 -12.5h-223q-20 0 -37 12.5t-24 34.5l-495 1386q-11 32 1.5 52.5t41.5 20.5h248q19 0 30.5 -10t18.5 -33l341 -1073l243 716l-117 327q-11 32 1.5 52.5t41.5 20.5h250q18 0 29.5 -10t17.5 -33l339 -1069l335 1069
q7 22 19.5 32.5t29.5 10.5h235q28 0 39 -19.5t0 -51.5l-495 -1388q-7 -22 -24.5 -34.5t-38.5 -12.5h-223q-20 0 -37 12.5t-24 34.5zM1126 2040h254q32 0 44 -22.5t-3 -46.5l-194 -329q-12 -20 -24.5 -28.5t-31.5 -8.5h-135q-32 0 -46.5 18t-7.5 49l86 329q4 18 20 28.5
t38 10.5z" />
    <glyph glyph-name="wacute" unicode="&#x1e83;" horiz-adv-x="1793" 
d="M896 474l-171 -427q-9 -23 -24 -35t-34 -12h-213q-21 0 -35.5 11.5t-24.5 35.5l-370 926q-11 27 3 49t42 22h224q20 0 34 -11t22 -34l226 -609l178 442l-56 141q-10 27 4 49t41 22h222q21 0 36 -11.5t22 -33.5l220 -609l208 609q9 24 24 34.5t37 10.5h215q27 0 40 -22
t3 -49l-370 -926q-9 -24 -23.5 -35.5t-34.5 -11.5h-213q-21 0 -36.5 12t-24.5 35zM888 1577h254q32 0 44 -22.5t-3 -46.5l-194 -329q-12 -20 -24.5 -28.5t-31.5 -8.5h-135q-32 0 -46.5 18t-7.5 49l86 329q4 18 20 28.5t38 10.5z" />
    <glyph glyph-name="Wdieresis" unicode="&#x1e84;" horiz-adv-x="2189" 
d="M1092 692l-230 -645q-7 -22 -24.5 -34.5t-38.5 -12.5h-223q-20 0 -37 12.5t-24 34.5l-495 1386q-11 32 1.5 52.5t41.5 20.5h248q19 0 30.5 -10t18.5 -33l341 -1073l243 716l-117 327q-11 32 1.5 52.5t41.5 20.5h250q18 0 29.5 -10t17.5 -33l339 -1069l335 1069
q7 22 19.5 32.5t29.5 10.5h235q28 0 39 -19.5t0 -51.5l-495 -1388q-7 -22 -24.5 -34.5t-38.5 -12.5h-223q-20 0 -37 12.5t-24 34.5zM863 1601q-76 0 -130.5 54.5t-54.5 130.5q0 77 54.5 132t130.5 55q77 0 132 -55t55 -132q0 -76 -55 -130.5t-132 -54.5zM1324 1601
q-77 0 -132.5 54.5t-55.5 130.5q0 77 55.5 132t132.5 55q76 0 130.5 -55t54.5 -132q0 -76 -54.5 -130.5t-130.5 -54.5z" />
    <glyph glyph-name="wdieresis" unicode="&#x1e85;" horiz-adv-x="1793" 
d="M896 474l-171 -427q-9 -23 -24 -35t-34 -12h-213q-21 0 -35.5 11.5t-24.5 35.5l-370 926q-11 27 3 49t42 22h224q20 0 34 -11t22 -34l226 -609l178 442l-56 141q-10 27 4 49t41 22h222q21 0 36 -11.5t22 -33.5l220 -609l208 609q9 24 24 34.5t37 10.5h215q27 0 40 -22
t3 -49l-370 -926q-9 -24 -23.5 -35.5t-34.5 -11.5h-213q-21 0 -36.5 12t-24.5 35zM666 1138q-76 0 -130.5 54.5t-54.5 130.5q0 77 54.5 132t130.5 55q77 0 132 -55t55 -132q0 -76 -55 -130.5t-132 -54.5zM1127 1138q-77 0 -132.5 54.5t-55.5 130.5q0 77 55.5 132t132.5 55
q76 0 130.5 -55t54.5 -132q0 -76 -54.5 -130.5t-130.5 -54.5z" />
    <glyph glyph-name="Ygrave" unicode="&#x1ef2;" horiz-adv-x="1399" 
d="M545 49v584l-522 802q-17 25 -6 48t38 23h269q18 0 31.5 -8.5t24.5 -25.5l323 -532h6l323 532q11 17 24 25.5t30 8.5h258q28 0 40 -22t-6 -49l-523 -802v-584q0 -20 -14 -34.5t-33 -14.5h-215q-21 0 -34.5 14t-13.5 35zM416 2049h254q21 0 36 -10.5t20 -28.5l88 -329
q7 -31 -7.5 -49t-46.5 -18h-135q-19 0 -31.5 8t-24.5 29l-196 329q-14 25 -1 47t44 22z" />
    <glyph glyph-name="ygrave" unicode="&#x1ef3;" horiz-adv-x="1128" 
d="M321 -499q-94 0 -175 27.5t-137 77.5q-15 17 -16 39t13 43l74 106q16 24 40.5 27t51.5 -14q40 -26 71 -37t63 -11q49 0 85 27.5t52 78.5l46 135h-87q-20 0 -34 11.5t-22 33.5l-316 928q-10 34 2 52.5t45 18.5h244q18 0 30.5 -12.5t18.5 -34.5l213 -688l196 688
q6 21 20.5 34t35.5 13h228q29 0 40 -19.5t1 -51.5l-372 -1151q-50 -153 -157 -237t-254 -84zM283 1587h254q21 0 36 -10.5t20 -28.5l88 -329q7 -31 -7.5 -49t-46.5 -18h-135q-19 0 -31.5 8t-24.5 29l-196 329q-14 25 -1 47t44 22z" />
    <glyph glyph-name="endash" unicode="&#x2013;" horiz-adv-x="1390" 
d="M1240 416h-1092q-20 0 -33.5 14t-13.5 35v203q0 21 13.5 35t33.5 14h1092q19 0 33 -14.5t14 -34.5v-203q0 -20 -14 -34.5t-33 -14.5z" />
    <glyph glyph-name="emdash" unicode="&#x2014;" horiz-adv-x="2122" 
d="M1973 416h-1825q-20 0 -33.5 14t-13.5 35v203q0 21 13.5 35t33.5 14h1825q20 0 35 -14.5t15 -34.5v-203q0 -20 -15 -34.5t-35 -14.5z" />
    <glyph glyph-name="quoteleft" unicode="&#x2018;" horiz-adv-x="549" 
d="M491 1414l-127 -170q53 -26 83.5 -74t30.5 -105q0 -85 -59 -142.5t-146 -57.5q-86 0 -146 61t-60 152q0 62 37.5 138.5t106.5 154.5l116 133q24 29 49.5 34t56.5 -14l47 -31q22 -14 24.5 -35.5t-13.5 -43.5z" />
    <glyph glyph-name="quoteright" unicode="&#x2019;" horiz-adv-x="549" 
d="M58 990l127 170q-53 25 -83.5 72t-30.5 104q0 86 58.5 144.5t143.5 58.5q88 0 148.5 -61t60.5 -154q0 -59 -37 -134.5t-107 -158.5l-116 -134q-26 -29 -51.5 -33t-54.5 14l-47 32q-23 14 -25.5 35.5t14.5 44.5z" />
    <glyph glyph-name="quotesinglbase" unicode="&#x201a;" horiz-adv-x="549" 
d="M58 -179l127 170q-54 27 -84 74.5t-30 104.5q0 84 58.5 143t143.5 59q88 0 148.5 -61.5t60.5 -153.5q0 -61 -37.5 -136.5t-106.5 -156.5l-118 -136q-25 -29 -49 -32.5t-55 15.5l-47 30q-23 14 -25.5 36t14.5 44z" />
    <glyph glyph-name="quotedblleft" unicode="&#x201c;" horiz-adv-x="1022" 
d="M966 1414l-127 -170q52 -26 82 -74t30 -105q0 -85 -58 -142.5t-144 -57.5q-88 0 -147.5 60.5t-59.5 152.5q0 61 37 136.5t105 156.5l119 133q22 29 48 34t57 -14l47 -31q22 -14 25 -35.5t-14 -43.5zM491 1414l-127 -170q53 -26 83.5 -74t30.5 -105q0 -85 -59 -142.5
t-146 -57.5q-86 0 -146 61t-60 152q0 62 37.5 138.5t106.5 154.5l116 133q24 29 49.5 34t56.5 -14l47 -31q22 -14 24.5 -35.5t-13.5 -43.5z" />
    <glyph glyph-name="quotedblright" unicode="&#x201d;" horiz-adv-x="1022" 
d="M534 990l127 170q-53 24 -83.5 71.5t-30.5 104.5q0 86 58 144.5t144 58.5q88 0 147 -61t59 -154q0 -61 -37 -137t-105 -156l-116 -134q-25 -29 -50.5 -33t-56.5 14l-48 32q-21 15 -23 36.5t15 43.5zM58 990l127 170q-53 25 -83.5 72t-30.5 104q0 86 58.5 144.5
t143.5 58.5q88 0 148.5 -61t60.5 -154q0 -59 -37 -134.5t-107 -158.5l-116 -134q-26 -29 -51.5 -33t-54.5 14l-47 32q-23 14 -25.5 35.5t14.5 44.5z" />
    <glyph glyph-name="quotedblbase" unicode="&#x201e;" horiz-adv-x="1039" 
d="M73 -180l127 170q-53 26 -83.5 74t-30.5 104q0 85 58.5 144t143.5 59q87 0 148 -62t61 -153q0 -63 -38 -139.5t-106 -153.5l-116 -134q-25 -29 -50.5 -33.5t-55.5 14.5l-47 30q-23 14 -25.5 36t14.5 44zM549 -180l129 170q-53 26 -83.5 74t-30.5 104q0 85 58 144t144 59
q87 0 147 -61.5t60 -153.5q0 -62 -37 -138t-105 -155l-117 -134q-24 -29 -50.5 -33.5t-56.5 14.5l-47 30q-21 14 -24 36t13 44z" />
    <glyph glyph-name="dagger" unicode="&#x2020;" horiz-adv-x="988" 
d="M880 914h-260v-566q0 -18 -11.5 -30.5t-27.5 -12.5h-172q-17 0 -29 12.5t-12 30.5v566h-258q-16 0 -27.5 11.5t-11.5 27.5v159q0 17 11.5 28t27.5 11h258v316q0 16 12 27.5t29 11.5h172q17 0 28 -11t11 -28v-316h260q17 0 28 -11t11 -28v-159q0 -16 -11 -27.5t-28 -11.5z
" />
    <glyph glyph-name="daggerdbl" unicode="&#x2021;" horiz-adv-x="994" 
d="M882 383h-260v-344q0 -17 -11 -28t-30 -11h-170q-18 0 -29.5 11t-11.5 28v344h-256q-18 0 -30.5 11.5t-12.5 29.5v157q0 16 12.5 27.5t30.5 11.5h256v267h-256q-18 0 -30.5 11t-12.5 27v157q0 18 12.5 29.5t30.5 11.5h256v345q0 16 11.5 27t29.5 11h170q18 0 29.5 -10.5
t11.5 -27.5v-345h260q18 0 29.5 -11.5t11.5 -29.5v-157q0 -16 -11.5 -27t-29.5 -11h-260v-267h260q18 0 29.5 -11t11.5 -28v-157q0 -18 -11.5 -29.5t-29.5 -11.5z" />
    <glyph glyph-name="bullet" unicode="&#x2022;" horiz-adv-x="783" 
d="M676 503q0 -117 -83 -199.5t-201 -82.5q-117 0 -200.5 82.5t-83.5 199.5t83.5 200.5t200.5 83.5q118 0 201 -83t83 -201z" />
    <glyph glyph-name="ellipsis" unicode="&#x2026;" horiz-adv-x="1782" 
d="M471 170q0 -82 -58.5 -141t-141.5 -59t-141.5 58.5t-58.5 141.5t58.5 142.5t141.5 59.5q82 0 141 -59.5t59 -142.5zM1093 170q0 -82 -58.5 -141t-141.5 -59q-84 0 -143 58.5t-59 141.5t59.5 142.5t142.5 59.5q82 0 141 -59.5t59 -142.5zM1713 170q0 -82 -58.5 -141
t-141.5 -59t-141.5 58.5t-58.5 141.5t58.5 142.5t141.5 59.5q82 0 141 -59.5t59 -142.5z" />
    <glyph glyph-name="perthousand" unicode="&#x2030;" horiz-adv-x="2280" 
d="M327 0h-88q-32 0 -43 22.5t7 48.5l951 1396q17 25 31.5 32t37.5 7h86q33 0 44.5 -22.5t-6.5 -48.5l-951 -1396q-17 -25 -31.5 -32t-37.5 -7zM64 1131q0 178 86 284t234 106t234 -106t86 -284q0 -180 -86 -286.5t-234 -106.5t-234 106.5t-86 286.5zM264 1127
q0 -116 30.5 -175t89.5 -59t89.5 59t30.5 175q0 118 -30.5 178.5t-89.5 60.5t-89.5 -60.5t-30.5 -178.5zM846 378q0 178 86 284t234 106t234 -106t86 -284q0 -180 -86 -286.5t-234 -106.5t-234 106.5t-86 286.5zM1046 374q0 -116 30.5 -175t89.5 -59t89.5 59t30.5 175
q0 118 -30.5 178.5t-89.5 60.5t-89.5 -60.5t-30.5 -178.5zM1576 378q0 178 86 284t234 106t234 -106t86 -284q0 -180 -86 -286.5t-234 -106.5t-234 106.5t-86 286.5zM1776 374q0 -116 30.5 -175t89.5 -59t89.5 59t30.5 175q0 118 -30.5 178.5t-89.5 60.5t-89.5 -60.5
t-30.5 -178.5z" />
    <glyph glyph-name="guilsinglleft" unicode="&#x2039;" horiz-adv-x="706" 
d="M600 0h-206q-27 0 -42.5 9.5t-26.5 30.5l-254 445q-10 16 -10 36.5t10 36.5l254 446q10 20 27.5 30t41.5 10h206q21 0 31 -20t0 -42l-230 -461l230 -459q10 -23 0 -42.5t-31 -19.5z" />
    <glyph glyph-name="guilsinglright" unicode="&#x203a;" horiz-adv-x="705" 
d="M633 485l-252 -445q-12 -21 -27.5 -30.5t-41.5 -9.5h-206q-21 0 -31 19.5t0 42.5l229 459l-229 461q-11 22 -0.5 42t31.5 20h206q24 0 41 -10t28 -30l252 -446q11 -16 11 -36.5t-11 -36.5z" />
    <glyph glyph-name="fraction" unicode="&#x2044;" horiz-adv-x="398" 
d="M722 1438l-889 -1397q-17 -25 -31 -33t-36 -8h-58q-31 0 -41 22t7 47l889 1397q16 25 30.5 32.5t36.5 7.5h58q31 0 41 -21.5t-7 -46.5z" />
    <glyph glyph-name="uni20A9" unicode="&#x20a9;" horiz-adv-x="2184" 
d="M942 1106h-470l62 -194h343zM1728 1106h-449l62 -194h326zM571 794l129 -404l137 404h-266zM1378 794l127 -400l125 400h-252zM1091 692l-230 -645q-7 -22 -24.5 -34.5t-38.5 -12.5h-223q-20 0 -37 12.5t-24 34.5l-267 747h-198q-20 0 -34.5 14.5t-14.5 35.5v21
q0 19 14.5 33t34.5 14h156l-69 194h-87q-20 0 -34.5 14.5t-14.5 35.5v21q0 19 14.5 33t34.5 14h45l-75 209q-11 32 1.5 52.5t41.5 20.5h248q19 0 30.5 -10t18.5 -33l76 -239h466l-75 209q-11 32 1.5 52.5t41.5 20.5h250q18 0 29.5 -10t17.5 -33l76 -239h523l75 239
q7 22 19.5 32.5t29.5 10.5h235q28 0 39 -19.5t0 -51.5l-75 -211h49q20 0 33.5 -13.5t13.5 -33.5v-21q0 -21 -13.5 -35.5t-33.5 -14.5h-91l-70 -194h161q20 0 33.5 -13.5t13.5 -33.5v-21q0 -21 -13.5 -35.5t-33.5 -14.5h-203l-266 -747q-7 -22 -24.5 -34.5t-38.5 -12.5h-223
q-20 0 -37 12.5t-24 34.5z" />
    <glyph glyph-name="uni20AA" unicode="&#x20aa;" horiz-adv-x="1879" 
d="M174 1506h743q188 0 293 -103t105 -288v-667q0 -20 -13.5 -34t-33.5 -14h-214q-20 0 -34.5 14t-14.5 34v643q0 65 -35 99t-101 34h-432v-1177q0 -19 -14.5 -33t-35.5 -14h-213q-19 0 -33 14t-14 33v1412q0 20 14 33.5t33 13.5zM1754 1459v-1067q0 -185 -105 -288.5
t-293 -103.5h-743q-19 0 -33 14t-14 33v1012q0 20 14 33.5t33 13.5h213q21 0 35.5 -13.5t14.5 -33.5v-777h432q66 0 101 34t35 99v1044q0 19 14.5 33t34.5 14h214q20 0 33.5 -13.5t13.5 -33.5z" />
    <glyph glyph-name="uni20AB" unicode="&#x20ab;" 
d="M613 796q-112 0 -188 -79.5t-76 -195.5t76.5 -196t187.5 -80q112 0 188.5 80t76.5 196t-76.5 195.5t-188.5 79.5zM878 45v71q-47 -69 -128 -107.5t-180 -38.5q-219 0 -371 158t-152 397q0 236 151 392.5t366 156.5q103 0 187.5 -39t124.5 -103v258h-202q-21 0 -34.5 13.5
t-13.5 33.5v97q0 20 14 35t34 15h202v76q0 19 13.5 32.5t31.5 13.5h207q19 0 33 -13.5t14 -32.5v-76h88q19 0 33.5 -15t14.5 -35v-97q0 -19 -14 -33t-34 -14h-88v-1145q0 -19 -14 -32t-33 -13h-205q-19 0 -32 13t-13 32zM1128 -323h-990q-20 0 -34 14t-14 33v97q0 20 14 35
t34 15h990q19 0 33 -15t14 -35v-97q0 -19 -14 -33t-33 -14z" />
    <glyph glyph-name="Euro" unicode="&#x20ac;" horiz-adv-x="1498" 
d="M1410 170q-65 -86 -206.5 -142t-299.5 -56q-262 0 -449.5 143t-241.5 386h-101q-20 0 -33.5 13.5t-13.5 34.5v86q0 20 14 33.5t33 13.5h67q-3 21 -4 38.5t-1 34.5q0 16 1 33.5t4 39.5h-67q-19 0 -33 14t-14 32v88q0 20 13.5 33.5t33.5 13.5h101q57 246 241 388t452 142
q157 0 298 -56t208 -142q13 -18 13 -39t-13 -34l-110 -119q-23 -24 -50.5 -23.5t-57.5 25.5q-59 52 -132 79t-156 27q-124 0 -215 -65t-134 -183h437q22 0 36 -13.5t14 -33.5v-88q0 -19 -15 -32.5t-35 -13.5h-493q-3 -32 -3.5 -46.5t-0.5 -26.5q0 -13 1 -28l3 -45h493
q21 0 35.5 -13.5t14.5 -33.5v-86q0 -21 -14.5 -34.5t-35.5 -13.5h-437q43 -116 135.5 -181.5t213.5 -65.5q82 0 154 26.5t134 78.5q30 26 56.5 26.5t49.5 -23.5l110 -119q13 -13 13 -34t-13 -39z" />
    <glyph glyph-name="uni20B1" unicode="&#x20b1;" horiz-adv-x="1474" 
d="M682 1235h-202v-118h488q-35 60 -105.5 89t-180.5 29zM1007 945q0 14 -0.5 27.5t-2.5 26.5h-524v-108h524q2 13 2.5 26.5t0.5 27.5zM480 773v-119h202q110 0 180.5 29.5t106.5 89.5h-489zM480 383v-336q0 -19 -14 -33t-33 -14h-216q-20 0 -33.5 13.5t-13.5 33.5v726h-99
q-21 0 -35 14t-14 35v22q0 19 14.5 33t34.5 14h99v108h-99q-21 0 -35 14t-14 35v22q0 19 14.5 33t34.5 14h99v342q0 20 13.5 33.5t33.5 13.5h536q214 0 360.5 -103t194.5 -286h97q19 0 33.5 -14t14.5 -33v-22q0 -21 -14 -35t-34 -14h-77q1 -22 1.5 -33.5t0.5 -20.5
t-0.5 -20.5t-1.5 -33.5h77q19 0 33.5 -14t14.5 -33v-22q0 -21 -14 -35t-34 -14h-97q-48 -183 -195 -286.5t-360 -103.5h-273z" />
    <glyph glyph-name="uni20B4" unicode="&#x20b4;" horiz-adv-x="1474" 
d="M1302 194q-99 -108 -253 -165t-350 -57q-260 0 -416 127t-156 325q0 35 5 69t14 66h-97q-20 0 -34.5 14.5t-14.5 35.5v22q0 19 14.5 33t34.5 14h156q52 71 135.5 121.5t195.5 78.5l58 15h-545q-20 0 -34.5 14.5t-14.5 35.5v21q0 19 14.5 33t34.5 14h897q20 18 30 40.5
t10 50.5q0 74 -66 118.5t-173 44.5q-80 0 -159 -30t-164 -94q-33 -26 -63 -25.5t-55 25.5l-102 103q-26 26 -23.5 55.5t34.5 60.5q86 80 234 129.5t311 49.5q245 0 402 -121.5t157 -315.5q0 -24 -2 -46.5t-7 -44.5h117q20 0 33.5 -13.5t13.5 -33.5v-21q0 -21 -13.5 -35.5
t-33.5 -14.5h-160q-42 -75 -113 -130t-167 -85h440q19 0 33 -14t14 -33v-22q0 -21 -13.5 -35.5t-33.5 -14.5h-864q-50 -23 -74 -58.5t-24 -85.5q0 -70 71 -119t181 -49q98 0 176.5 33.5t173.5 126.5q30 29 54.5 32t51.5 -17l131 -101q31 -24 30 -60.5t-32 -66.5z" />
    <glyph glyph-name="uni2113" unicode="&#x2113;" horiz-adv-x="936" 
d="M891 187q-48 -98 -135 -151t-199 -53q-154 0 -248 90t-94 233v174q-3 -2 -10 -6t-27 -15q-21 -12 -28 -15.5t-8 -4.5q-15 -7 -28.5 -1.5t-20.5 21.5l-52 92q-9 17 -4.5 32.5t21.5 27.5q9 5 77.5 45.5t77.5 45.5v478q0 166 92.5 262.5t249.5 96.5q140 0 230.5 -94
t90.5 -242q0 -176 -95.5 -314.5t-326.5 -292.5v-247q0 -62 32 -99t84 -37q39 0 71.5 22t51.5 60q10 23 24.5 29t33.5 -3l121 -69q17 -11 22 -29t-3 -36zM659 1190q0 62 -28 99t-76 37q-46 0 -73.5 -39.5t-27.5 -102.5v-342q102 79 153.5 167t51.5 181z" />
    <glyph glyph-name="uni2116" unicode="&#x2116;" horiz-adv-x="2703" 
d="M2087 424q-237 0 -401.5 159.5t-164.5 389.5q0 233 164.5 394t401.5 161q235 0 399.5 -161t164.5 -394q0 -230 -164.5 -389.5t-399.5 -159.5zM2087 1250q-113 0 -189 -79.5t-76 -195.5t76 -194.5t189 -78.5q112 0 187.5 78.5t75.5 194.5t-75.5 195.5t-187.5 79.5z
M1035 47l-598 986v-986q0 -20 -13.5 -33.5t-33.5 -13.5h-216q-21 0 -34 13t-13 34v1412q0 20 13.5 33.5t33.5 13.5h295q25 0 41.5 -9t27.5 -29l583 -969v960q0 19 13 33t30 14h218q18 0 33.5 -14.5t15.5 -32.5v-1412q0 -19 -15 -33t-34 -14h-250q-37 0 -60 11.5t-37 35.5z
M2516 0h-857q-21 0 -35 14t-14 35v173q0 19 14.5 33t34.5 14h857q19 0 33 -14t14 -33v-173q0 -20 -14 -34.5t-33 -14.5z" />
    <glyph glyph-name="trademark" unicode="&#x2122;" horiz-adv-x="1818" 
d="M67 1383v95q0 11 8.5 19.5t19.5 8.5h628q10 0 18 -8.5t8 -19.5v-95q0 -12 -7.5 -20t-18.5 -8h-230v-568q0 -12 -7.5 -20t-18.5 -8h-118q-11 0 -18.5 8t-7.5 20v568h-228q-12 0 -20 8t-8 20zM1104 1478l164 -373l167 373q7 13 16.5 20.5t20.5 7.5h189q11 0 19.5 -8.5
t8.5 -19.5v-691q0 -11 -8 -18.5t-20 -7.5h-112q-10 0 -17.5 8t-7.5 20v517l-168 -364q-7 -14 -16 -20t-23 -6h-103q-14 0 -22 5.5t-15 20.5l-168 364v-517q0 -13 -7 -20.5t-19 -7.5h-114q-12 0 -20 7.5t-8 18.5v691q0 11 8.5 19.5t19.5 8.5h198q10 0 20 -7.5t17 -20.5z" />
    <glyph glyph-name="Omega" unicode="&#x2126;" horiz-adv-x="1608" 
d="M71 906q0 274 201.5 453.5t530.5 179.5q331 0 532.5 -179t201.5 -454q0 -191 -106.5 -333t-287.5 -209v-101h269q20 0 33.5 -14.5t13.5 -35.5v-164q0 -20 -14 -34.5t-33 -14.5h-472q-21 0 -35 14t-14 35v375q0 39 10.5 55t34.5 29q162 87 221 172t59 209
q0 160 -118 262.5t-295 102.5q-176 0 -293.5 -102.5t-117.5 -262.5q0 -123 58.5 -208.5t220.5 -172.5q25 -13 35.5 -29t10.5 -55v-375q0 -20 -14 -34.5t-34 -14.5h-473q-21 0 -34.5 14t-13.5 35v164q0 21 13.5 35.5t34.5 14.5h269v101q-181 67 -287.5 209t-106.5 333z" />
    <glyph glyph-name="estimated" unicode="&#x212e;" horiz-adv-x="1878" 
d="M1763 741h-1332q-11 0 -15.5 -6t-4.5 -20v-369q0 -64 55.5 -122.5t157.5 -104.5q77 -34 164 -54.5t154 -20.5q163 0 304.5 55.5t243.5 159.5q18 17 26 20.5t19 3.5h45q10 0 14 -9t-2 -17q-120 -136 -287.5 -208t-362.5 -72q-165 0 -317 57t-271 162q-126 111 -194 257.5
t-68 306.5q0 164 67 310t192 254q116 101 268 154.5t323 53.5q376 0 608 -209.5t246 -549.5q0 -13 -10 -22.5t-23 -9.5zM411 1124v-298q0 -11 4 -14.5t16 -3.5h1024q12 0 16 3.5t4 14.5v298q0 164 -143 254t-390 90q-239 0 -385 -91t-146 -253z" />
    <glyph glyph-name="partialdiff" unicode="&#x2202;" horiz-adv-x="1252" 
d="M1207 575q0 -265 -162.5 -435t-418.5 -170q-247 0 -414 161t-167 396q0 221 150 375.5t369 154.5q59 0 107.5 -9.5t92.5 -28.5q-44 50 -97 107.5t-118 123.5q-53 55 -130 132l-92 92q-23 21 -12 47t47 26h227q28 0 45 -5.5t31 -17.5q253 -215 397.5 -463.5t144.5 -485.5z
M618 796q-114 0 -190.5 -79t-76.5 -196t76.5 -196.5t190.5 -79.5q113 0 188.5 79t75.5 197t-75.5 196.5t-188.5 78.5z" />
    <glyph glyph-name="Delta" unicode="&#x2206;" horiz-adv-x="1663" 
d="M86 306l564 1153q11 23 29 35t40 12h224q23 0 40 -11.5t28 -35.5l569 -1153q12 -24 16.5 -44t4.5 -45v-168q0 -20 -14 -34.5t-33 -14.5h-1444q-21 0 -34.5 14t-13.5 35v168q0 28 5.5 47.5t18.5 41.5zM1237 284l-413 904l-415 -904h828z" />
    <glyph glyph-name="summation" unicode="&#x2211;" horiz-adv-x="1321" 
d="M527 1222l334 -381q19 -21 29 -43t10 -45t-10 -45t-29 -43l-334 -381h678q20 0 32.5 -13t12.5 -34v-188q0 -21 -13 -35t-32 -14h-1082q-20 0 -34 14.5t-14 34.5v160q0 11 5 23.5t15 23.5l430 497l-430 497q-9 9 -14.5 22t-5.5 26v161q0 19 14 33t34 14h1082q19 0 32 -14
t13 -35v-187q0 -21 -12.5 -34.5t-32.5 -13.5h-678z" />
    <glyph glyph-name="minus" unicode="&#x2212;" horiz-adv-x="1268" 
d="M117 891h1033q21 0 34.5 -14.5t13.5 -35.5v-195q0 -21 -13.5 -35.5t-34.5 -14.5h-1033q-20 0 -33.5 14t-13.5 36v195q0 22 13.5 36t33.5 14z" />
    <glyph glyph-name="radical" unicode="&#x221a;" horiz-adv-x="1543" 
d="M964 -289h-290q-20 0 -35.5 12t-23.5 33l-320 747l-164 -71q-20 -8 -38.5 -0.5t-25.5 26.5l-63 148q-6 21 1 39t25 24l366 157q36 15 67 4.5t43 -39.5l310 -755l413 1549q5 19 18 31t29 12h222q29 0 41 -18.5t4 -47.5l-519 -1806q-7 -20 -23.5 -32.5t-36.5 -12.5z" />
    <glyph glyph-name="infinity" unicode="&#x221e;" horiz-adv-x="2273" 
d="M221 1158q76 86 181.5 135t208.5 49q158 0 286 -86t241 -263q110 176 238 262.5t285 86.5q104 0 210 -48.5t182 -134.5q70 -79 106 -183t36 -228t-36 -228t-106 -183q-75 -85 -181 -133t-211 -48q-159 0 -286.5 85.5t-236.5 260.5q-112 -176 -239.5 -261t-287.5 -85
q-104 0 -209.5 48.5t-180.5 133.5q-70 79 -105.5 182.5t-35.5 227.5q0 123 36 227t105 183zM964 748q-85 148 -163 215t-170 67q-96 0 -163.5 -78t-67.5 -204q0 -125 68.5 -202.5t164.5 -77.5q94 0 171 66.5t160 213.5zM1311 748q81 -146 158.5 -213t172.5 -67q94 0 162 78
t68 202q0 126 -67.5 204t-162.5 78q-91 0 -169.5 -68t-161.5 -214z" />
    <glyph glyph-name="integral" unicode="&#x222b;" horiz-adv-x="1001" 
d="M242 -198q50 0 79.5 34t29.5 93v1246q0 172 105 272t272 100q82 0 165 -28.5t132 -74.5q17 -15 18 -36t-14 -41l-86 -123q-15 -21 -37 -22t-49 18q-25 17 -50 25.5t-47 8.5q-50 0 -81 -33.5t-31 -91.5v-1248q0 -170 -104.5 -270t-269.5 -100q-81 0 -164 28t-133 73
q-18 17 -19 38t15 40l84 124q16 20 36 21.5t52 -18.5q23 -17 49 -26t48 -9z" />
    <glyph glyph-name="approxequal" unicode="&#x2248;" horiz-adv-x="1266" 
d="M1195 995q-4 -48 -86.5 -107.5t-167.5 -60.5q-34 0 -102.5 8.5t-232.5 33.5q-124 20 -169 25.5t-64 5.5q-27 0 -49.5 -8t-52.5 -33q-19 -16 -30 -22t-23 -8q-12 -3 -24 2.5t-27 21.5l-76 101q-12 13 -17.5 30t-3.5 34q4 49 88 108.5t170 59.5q32 0 96.5 -7.5t222.5 -31.5
q131 -20 179.5 -26t69.5 -6q28 0 51 8t55 34q20 15 30.5 20.5t20.5 8.5q14 4 28 -3t26 -23l67 -99q11 -16 16.5 -33.5t4.5 -32.5zM1195 487q-4 -48 -86.5 -107.5t-167.5 -60.5q-34 0 -102.5 8.5t-232.5 33.5q-124 20 -169 25.5t-64 5.5q-27 0 -49.5 -8t-52.5 -33
q-19 -16 -30 -22t-23 -8t-23.5 3t-27.5 21l-76 101q-12 15 -17.5 31t-3.5 34q4 48 88 107.5t170 59.5q32 0 96.5 -7.5t222.5 -31.5q131 -20 179.5 -26t69.5 -6q28 0 51 8t55 34q20 15 30.5 20.5t20.5 8.5q13 3 27 -3t27 -20l67 -101q12 -18 17 -34t4 -33z" />
    <glyph glyph-name="notequal" unicode="&#x2260;" horiz-adv-x="1268" 
d="M789 344v-147q0 -20 -13.5 -33.5t-33.5 -13.5h-215q-20 0 -34 13.5t-14 33.5v147h-359q-20 0 -35 14t-15 33v196q0 20 15 34.5t35 14.5h359v216h-359q-20 0 -35 14t-15 33v196q0 20 15 34.5t35 14.5h359v144q0 20 14 34t34 14h215q20 0 33.5 -13.5t13.5 -34.5v-144h362
q19 0 33 -14.5t14 -34.5v-196q0 -19 -14 -33t-33 -14h-362v-216h362q19 0 33 -14.5t14 -34.5v-196q0 -19 -14 -33t-33 -14h-362z" />
    <glyph glyph-name="lessequal" unicode="&#x2264;" horiz-adv-x="1211" 
d="M1141 767v-219q0 -38 -26.5 -50t-59.5 7l-923 458q-32 17 -47 45.5t-15 77.5q0 46 14.5 75t45.5 45l925 456q33 19 59.5 7t26.5 -50v-219q0 -21 -13 -37t-49 -34l-549 -245l549 -246q38 -19 50 -34.5t12 -36.5zM1141 245v-196q0 -21 -14 -35t-35 -14h-962q-19 0 -33 14.5
t-14 34.5v196q0 20 14 34t33 14h962q21 0 35 -14t14 -34z" />
    <glyph glyph-name="greaterequal" unicode="&#x2265;" horiz-adv-x="1210" 
d="M70 548v219q0 21 11 36t49 35l551 246l-551 245q-36 19 -48 34.5t-12 36.5v219q0 38 26 50t58 -7l925 -456q31 -16 46 -44.5t15 -75.5q0 -50 -15 -78.5t-48 -44.5l-923 -458q-32 -19 -58 -7t-26 50zM1079 0h-962q-19 0 -33 14.5t-14 34.5v196q0 19 14 33.5t33 14.5h962
q21 0 35.5 -14t14.5 -34v-196q0 -20 -14.5 -34.5t-35.5 -14.5z" />
    <glyph glyph-name="lozenge" unicode="&#x25ca;" horiz-adv-x="1521" 
d="M785 1703l653 -912q8 -13 8 -26t-8 -22l-653 -912q-7 -11 -22 -10.5t-25 10.5l-654 912q-9 12 -9 25.5t9 22.5l654 912q8 11 23 10.5t24 -10.5zM775 343l284 413q4 7 4 12.5t-4 11.5l-284 413q-6 6 -12.5 6t-11.5 -6l-286 -413q-4 -8 -4 -13.5t4 -10.5l286 -413
q6 -6 12.5 -6t11.5 6z" />
    <glyph glyph-name="commaaccent" unicode="&#xf6c3;" horiz-adv-x="555" 
d="M111 -501l99 137q-45 23 -71 64t-26 89q0 75 50.5 125t125.5 50q76 0 128.5 -53.5t52.5 -134.5q0 -52 -30 -111.5t-97 -137.5l-90 -108q-22 -25 -44.5 -29t-48.5 12l-41 28q-19 13 -21 31.5t13 37.5z" />
    <glyph glyph-name="fi" unicode="&#xfb01;" horiz-adv-x="1257" 
d="M69 1044h140v122q0 172 99 271.5t258 99.5q58 0 107 -8.5t89 -26.5q29 -14 37.5 -31.5t1.5 -45.5l-39 -138q-7 -26 -25.5 -35.5t-43.5 -1.5q-35 10 -53.5 14t-34.5 4q-46 0 -72.5 -29t-26.5 -77v-118h202q19 0 33 -14t14 -34v-155q0 -18 -14.5 -32.5t-32.5 -14.5h-202
v-747q0 -19 -13 -33t-30 -14h-209q-18 0 -31.5 14t-13.5 33v747h-140q-19 0 -33 14t-14 33v155q0 20 14 34t33 14zM1192 1326q0 -73 -53.5 -127t-127.5 -54t-127 53.5t-53 127.5t53 127t127 53t127.5 -53t53.5 -127zM1115 0h-207q-19 0 -32 14t-13 33v949q0 21 12.5 34.5
t32.5 13.5h207q19 0 32 -13.5t13 -34.5v-949q0 -19 -13.5 -33t-31.5 -14z" />
    <glyph glyph-name="fl" unicode="&#xfb02;" horiz-adv-x="1252" 
d="M69 1044h140v122q0 172 99 271.5t258 99.5q58 0 107 -8.5t89 -26.5q29 -14 37.5 -31.5t1.5 -45.5l-39 -138q-7 -26 -25.5 -35.5t-43.5 -1.5q-35 10 -53.5 14t-34.5 4q-46 0 -72.5 -29t-26.5 -77v-118h202q19 0 33 -14t14 -34v-155q0 -18 -14.5 -32.5t-32.5 -14.5h-202
v-747q0 -19 -13 -33t-30 -14h-209q-18 0 -31.5 14t-13.5 33v747h-140q-19 0 -33 14t-14 33v155q0 20 14 34t33 14zM1158 1461v-1414q0 -19 -13.5 -33t-32.5 -14h-206q-19 0 -32 14t-13 33v1414q0 19 13 32t32 13h206q19 0 32.5 -13.5t13.5 -31.5z" />
    <glyph glyph-name="i.locl" horiz-adv-x="491" 
d="M426 1326q0 -73 -53.5 -127t-127.5 -54t-127 53.5t-53 127.5t53 127t127 53t127.5 -53t53.5 -127zM349 0h-207q-19 0 -32 14t-13 33v949q0 21 12.5 34.5t32.5 13.5h207q19 0 32 -13.5t13 -34.5v-949q0 -19 -13.5 -33t-31.5 -14z" />
    <glyph glyph-name="i.dot" horiz-adv-x="491" 
d="M426 1326q0 -73 -53.5 -127t-127.5 -54t-127 53.5t-53 127.5t53 127t127 53t127.5 -53t53.5 -127zM349 0h-207q-19 0 -32 14t-13 33v949q0 21 12.5 34.5t32.5 13.5h207q19 0 32 -13.5t13 -34.5v-949q0 -19 -13.5 -33t-31.5 -14z" />
    <glyph glyph-name="i.TRK" horiz-adv-x="491" 
d="M426 1326q0 -73 -53.5 -127t-127.5 -54t-127 53.5t-53 127.5t53 127t127 53t127.5 -53t53.5 -127zM349 0h-207q-19 0 -32 14t-13 33v949q0 21 12.5 34.5t32.5 13.5h207q19 0 32 -13.5t13 -34.5v-949q0 -19 -13.5 -33t-31.5 -14z" />
    <glyph glyph-name="caron.alt" horiz-adv-x="740" 
d="M199 1026l103 142q-46 22 -73.5 64.5t-27.5 92.5q0 76 52 128.5t129 52.5q79 0 133 -55t54 -139q0 -55 -31.5 -118t-97.5 -138l-95 -110q-23 -28 -47 -32.5t-50 13.5l-40 28q-19 13 -21 33t12 38z" />
    <glyph glyph-name="apostrophemod" horiz-adv-x="740" 
d="M199 1059l103 142q-46 22 -73.5 64.5t-27.5 92.5q0 76 52 128.5t129 52.5q79 0 133 -55t54 -139q0 -55 -31.5 -118t-97.5 -138l-95 -110q-23 -28 -47 -32.5t-50 13.5l-40 28q-19 13 -21 33t12 38z" />
    <glyph glyph-name="revcommaaccent" horiz-adv-x="551" 
d="M486 1402l-122 -168q51 -24 81.5 -70.5t30.5 -101.5q0 -83 -57.5 -139.5t-143.5 -56.5q-85 0 -143.5 60t-58.5 151q0 64 32 129.5t110 154.5l114 131q22 27 47.5 31t56.5 -16l45 -28q21 -13 23 -35t-15 -42z" />
    <glyph glyph-name="ringacute" horiz-adv-x="1022" 
d="M835 1454q-1 -132 -95 -221t-232 -89t-231.5 89t-93.5 221t93.5 221t231.5 89q21 0 41.5 -2t39.5 -7l55 209q4 18 20 28.5t38 10.5h254q32 0 44 -22.5t-3 -46.5l-198 -336q17 -33 26 -69.5t10 -74.5zM508 1318q56 0 92.5 38.5t36.5 95.5q0 59 -36 97t-93 38t-93 -38
t-36 -97q0 -57 36.5 -95.5t92.5 -38.5z" />
    <glyph glyph-name="logo" horiz-adv-x="2680" 
d="M437 1641q177 172 411 264t492 92q257 0 490.5 -92.5t411.5 -263.5q180 -174 276.5 -404t96.5 -489q0 -258 -96.5 -488.5t-276.5 -404.5q-178 -172 -411.5 -264.5t-490.5 -92.5q-258 0 -491.5 92.5t-411.5 263.5q-180 174 -276.5 404.5t-96.5 489.5t96 489.5t277 403.5z
M647 1441q-137 -135 -209.5 -313.5t-72.5 -379.5t72.5 -379.5t208.5 -314.5q136 -135 316 -208t378 -73t377.5 73t315.5 209q136 135 208.5 313.5t72.5 379.5t-72.5 379.5t-208.5 313.5t-315.5 208t-377.5 73t-377.5 -73t-315.5 -208zM1750 185v218h-6
q-63 -137 -193.5 -214.5t-295.5 -77.5q-275 0 -459.5 185.5t-184.5 468.5q0 280 199 474t491 194q216 0 384.5 -94t241.5 -258q15 -32 0 -55t-58 -31l-193 -36q-24 -4 -42.5 2.5t-35.5 27.5q-60 75 -130.5 108.5t-162.5 33.5q-160 0 -258.5 -103t-98.5 -263t101.5 -263
t253.5 -103q117 0 213.5 64t120.5 149h-246q-18 0 -32.5 13t-14.5 30v138q0 19 14.5 34t32.5 15h564q18 0 31.5 -14.5t13.5 -34.5v-608q0 -20 -13 -34.5t-32 -14.5h-162q-17 0 -30 14.5t-13 34.5z" />
    </font>
</defs>
</svg>
