<?xml version="1.0" standalone="no"?>
<!DOCTYPE svg PUBLIC "-//W3C//DTD SVG 1.1//EN" "http://www.w3.org/Graphics/SVG/1.1/DTD/svg11.dtd" >
<svg xmlns="http://www.w3.org/2000/svg" xmlns:xlink="http://www.w3.org/1999/xlink" version="1.1">
<metadata>
Created by FontForge 20170731 at Thu Feb  2 14:52:51 2017
 By Aleksey,,,
Copyright (c) 2017 by MendozaVergara. All rights reserved.
</metadata>
<defs>
<font id="DarwinPro-Regular" horiz-adv-x="0" >
  <font-face 
    font-family="Darwin Pro"
    font-weight="400"
    font-stretch="normal"
    units-per-em="1000"
    panose-1="0 0 5 0 0 0 0 0 0 0"
    ascent="750"
    descent="-250"
    x-height="520"
    cap-height="700"
    bbox="-579 -264 1332 1009"
    underline-thickness="50"
    underline-position="-200"
    unicode-range="U+0020-FB02"
  />
<missing-glyph horiz-adv-x="334" 
 />
    <glyph glyph-name="fi" unicode="fi" horiz-adv-x="532" 
d="M467 520v-520h-100v437h-180v-437h-97v437h-61v83h61v57q0 179 174 179q46 0 74 -14l-16 -79q-20 8 -47 8q-88 0 -88 -96v-55h280zM417 724q30 0 48.5 -16.5t18.5 -47.5t-18.5 -47t-48.5 -16q-31 0 -49 16t-18 47t18 47.5t49 16.5z" />
    <glyph glyph-name="fl" unicode="fl" horiz-adv-x="532" 
d="M367 750h100v-750h-100v437h-180v-437h-97v437h-61v83h61v57q0 179 174 179q43 0 72 -13l-16 -79q-20 7 -45 7q-88 0 -88 -96v-55h180v230z" />
    <glyph glyph-name="f_f" unicode="ff" horiz-adv-x="636" 
d="M572 671q-88 0 -88 -96v-55h135v-83h-135v-437h-97v437h-200v-437h-97v437h-61v83h61v57q0 179 174 179q55 0 93 -19l-16 -79q-28 13 -66 13q-88 0 -88 -96v-55h200v57q0 179 174 179q55 0 93 -19l-16 -79q-28 13 -66 13z" />
    <glyph glyph-name=".notdef" horiz-adv-x="334" 
 />
    <glyph glyph-name=".null" 
 />
    <glyph glyph-name="nonmarkingreturn" horiz-adv-x="333" 
 />
    <glyph glyph-name="space" unicode=" " horiz-adv-x="208" 
 />
    <glyph glyph-name="exclam" unicode="!" horiz-adv-x="243" 
d="M72 525v175h99v-175l-9 -347h-81zM187 51q0 -30 -18 -46t-48 -16t-48 16t-18 46t18 46.5t48 16.5q29 0 47.5 -16.5t18.5 -46.5z" />
    <glyph glyph-name="quotedbl" unicode="&#x22;" horiz-adv-x="317" 
d="M45 750h95l-13 -195h-70zM177 750h94l-12 -195h-71z" />
    <glyph glyph-name="numbersign" unicode="#" horiz-adv-x="644" 
d="M599 422h-111l-29 -143h112l-18 -83h-111l-41 -196h-90l40 196h-127l-40 -196h-89l40 196h-109l19 83h107l29 143h-109l18 83h108l40 195h90l-40 -195h127l40 195h91l-40 -195h111zM368 279l30 143h-127l-30 -143h127z" />
    <glyph glyph-name="dollar" unicode="$" horiz-adv-x="512" 
d="M482 197q0 -82 -47.5 -138t-135.5 -69v-88h-69v84q-121 4 -203 64l46 83q78 -48 157 -52v232q-87 20 -134 66.5t-47 138.5q0 79 48.5 132t132.5 62v90h69v-91q85 -8 163 -59l-46 -78q-68 37 -117 43v-217q84 -21 133.5 -66t49.5 -137zM150 521q0 -44 19.5 -67.5
t60.5 -36.5v199q-39 -8 -59.5 -33.5t-20.5 -61.5zM299 89q80 24 80 100q0 42 -19.5 66.5t-60.5 39.5v-206z" />
    <glyph glyph-name="percent" unicode="%" horiz-adv-x="851" 
d="M205 -49l-71 49l510 749l73 -49zM189 285q-71 0 -114 41.5t-43 110.5v124q0 69 43 110t114 41q70 0 112.5 -41t42.5 -110v-124q0 -69 -42.5 -110.5t-112.5 -41.5zM189 362q30 0 48 21t18 61v108q0 40 -18 61.5t-48 21.5q-31 0 -49 -21.5t-18 -61.5v-108q0 -40 18 -61
t49 -21zM665 -11q-71 0 -114 41t-43 111v124q0 70 42.5 111t114.5 41q70 0 112 -41t42 -111v-124q0 -69 -42.5 -110.5t-111.5 -41.5zM665 67q30 0 48 21t18 61v107q0 40 -18 61.5t-48 21.5q-32 0 -50 -21t-18 -62v-107q0 -40 18 -61t50 -21z" />
    <glyph glyph-name="ampersand" unicode="&#x26;" horiz-adv-x="607" 
d="M586 49l-71 -64l-70 79q-85 -78 -198 -78q-218 0 -218 174q0 116 139 216q-82 93 -82 174q-1 67 49 115.5t135 48.5q93 0 137 -41t45 -107q1 -63 -35.5 -109t-105.5 -94l135 -154q37 73 37 125l92 -10q-2 -30 -19 -82t-49 -102zM270 628q-41 0 -62.5 -21t-21.5 -58
q0 -21 10 -42.5t19.5 -33t31.5 -36.5q5 -5 7 -8q102 67 103 121q0 78 -87 78zM251 74q78 0 136 55l-159 180q-95 -74 -95 -145q0 -90 118 -90z" />
    <glyph glyph-name="quotesingle" unicode="'" horiz-adv-x="185" 
d="M45 750h95l-13 -195h-70z" />
    <glyph glyph-name="parenleft" unicode="(" horiz-adv-x="293" 
d="M55 506q0 97 53.5 165.5t144.5 82.5l18 -86q-54 -7 -86 -55.5t-32 -119.5v-386q0 -71 32 -119.5t86 -55.5l-18 -86q-91 14 -144.5 82t-53.5 166v412z" />
    <glyph glyph-name="parenright" unicode=")" horiz-adv-x="293" 
d="M41 753q90 -14 143.5 -82.5t53.5 -165.5v-410q0 -98 -53.5 -166t-143.5 -82l-19 86q55 7 87 55.5t32 119.5v384q0 71 -32 119.5t-87 55.5z" />
    <glyph glyph-name="asterisk" unicode="*" horiz-adv-x="436" 
d="M162 515l-127 37l25 81l123 -46l-4 136h80l-4 -135l120 45l26 -81l-126 -38l80 -108l-65 -49l-72 114l-72 -114l-66 50z" />
    <glyph glyph-name="plus" unicode="+" horiz-adv-x="519" 
d="M213 257h-185v92h185v213h93v-213h185v-92h-185v-213h-93v213z" />
    <glyph glyph-name="comma" unicode="," horiz-adv-x="221" 
d="M110 114q30 0 48 -17.5t18 -52.5q0 -55 -21 -98.5t-77 -89.5l-37 37q24 26 35.5 53.5t9.5 45.5q-42 11 -42 59q0 30 18 46.5t48 16.5z" />
    <glyph glyph-name="hyphen" unicode="-" horiz-adv-x="402" 
d="M59 348h284v-92h-284v92z" />
    <glyph glyph-name="period" unicode="." horiz-adv-x="218" 
d="M175 51q0 -30 -18 -46t-48 -16t-48 16t-18 46t18 46.5t48 16.5q29 0 47.5 -16.5t18.5 -46.5z" />
    <glyph glyph-name="slash" unicode="/" horiz-adv-x="497" 
d="M395 784l84 -34l-378 -893l-83 33z" />
    <glyph glyph-name="zero" unicode="0" horiz-adv-x="559" 
d="M55 493q0 102 61.5 161.5t162.5 59.5t163 -59.5t62 -161.5v-286q0 -102 -62 -161.5t-163 -59.5t-162.5 59.5t-61.5 161.5v286zM158 220q0 -68 32.5 -104t88.5 -36q57 0 88.5 35.5t31.5 104.5v260q0 68 -32 104t-88 36t-88.5 -36t-32.5 -104v-260z" />
    <glyph glyph-name="one" unicode="1" horiz-adv-x="409" 
d="M283 90h108v-90h-333v90h122v486l-111 -58l-48 75l174 107h88v-610z" />
    <glyph glyph-name="two" unicode="2" horiz-adv-x="520" 
d="M183 93h304v-93h-453v65q181 190 251 284t70 162q0 52 -30.5 81t-87.5 29q-75 0 -159 -50l-45 73q85 69 211 69q107 0 161.5 -53t54.5 -145q0 -88 -63 -180t-214 -242z" />
    <glyph glyph-name="three" unicode="3" horiz-adv-x="517" 
d="M382 375q41 -19 66.5 -65.5t25.5 -95.5v-19q0 -93 -64.5 -151t-176.5 -58q-116 0 -205 57l38 80q74 -44 161 -44q70 0 106 32.5t36 90.5q0 64 -34.5 95.5t-91.5 31.5h-71v81h74q50 0 74.5 30t23.5 80q-2 102 -115 102q-77 0 -153 -45l-41 73q92 64 205 64q105 0 156 -52
t51 -138q0 -95 -65 -149z" />
    <glyph glyph-name="four" unicode="4" horiz-adv-x="552" 
d="M458 226h68v-93h-68v-133h-103v133h-334v64l200 503h109l-187 -474h212l1 260h102v-260z" />
    <glyph glyph-name="five" unicode="5" horiz-adv-x="512" 
d="M273 432q95 0 148 -51t53 -155v-34q0 -93 -60 -149.5t-167 -56.5q-119 0 -215 70l38 76q90 -53 173 -53q57 0 90 31t33 85v20q0 125 -114 125q-72 0 -132 -41l-67 49l43 352h343v-92h-253l-23 -204q48 28 110 28z" />
    <glyph glyph-name="six" unicode="6" horiz-adv-x="551" 
d="M306 422q205 0 205 -196v-31q0 -101 -62 -155t-165 -54q-104 0 -166 51t-62 151v305q0 101 62.5 161t165.5 60q123 0 213 -64l-44 -74q-76 46 -159 46q-64 0 -99.5 -36t-35.5 -104v-103q58 43 147 43zM284 79q58 0 91.5 32t33.5 99q0 69 -26.5 94t-86.5 25
q-83 0 -137 -44v-82q0 -124 125 -124z" />
    <glyph glyph-name="seven" unicode="7" horiz-adv-x="464" 
d="M21 700h426v-63l-258 -637h-109l249 603h-308v97z" />
    <glyph glyph-name="eight" unicode="8" horiz-adv-x="561" 
d="M425 374q37 -22 63.5 -68t26.5 -91v-20q0 -92 -59 -150.5t-176 -58.5t-176 58.5t-59 150.5v20q0 45 26.5 91t63.5 68q-34 27 -54 68t-20 82q0 87 55 138.5t164 51.5t164.5 -51.5t55.5 -138.5q0 -41 -20 -82t-55 -68zM280 626q-58 0 -88 -30t-30 -77q0 -46 30.5 -77.5
t78.5 -31.5h14q49 0 81 31.5t32 77.5q0 47 -30 77t-88 30zM407 198v7q0 53 -32.5 88.5t-82.5 35.5h-24q-49 0 -82 -35.5t-33 -88.5v-7q0 -52 31 -85.5t96 -33.5t96 33.5t31 85.5z" />
    <glyph glyph-name="nine" unicode="9" horiz-adv-x="551" 
d="M267 714q104 0 165.5 -50t61.5 -150v-309q0 -102 -60.5 -160.5t-169.5 -58.5q-121 0 -214 67l43 74q79 -49 168 -49q61 0 96 35.5t35 103.5v97q-54 -32 -144 -32q-94 0 -150 48.5t-56 147.5v29q0 101 61 154t164 53zM257 376q84 0 134 30v90q0 125 -124 125
q-122 0 -122 -128q0 -63 27 -90t85 -27z" />
    <glyph glyph-name="colon" unicode=":" horiz-adv-x="250" 
d="M191 463q0 -30 -18 -46t-48 -16t-48 16t-18 46t18 46.5t48 16.5q29 0 47.5 -16.5t18.5 -46.5zM191 51q0 -30 -18 -46t-48 -16t-48 16t-18 46t18 46.5t48 16.5q29 0 47.5 -16.5t18.5 -46.5z" />
    <glyph glyph-name="semicolon" unicode=";" horiz-adv-x="254" 
d="M193 463q0 -30 -18 -46t-48 -16t-48 16t-18 46t18 46.5t48 16.5q29 0 47.5 -16.5t18.5 -46.5zM127 114q30 0 48 -17.5t18 -52.5q0 -55 -21 -98.5t-77 -89.5l-37 37q24 26 35.5 53.5t9.5 45.5q-42 11 -42 59q0 30 18 46.5t48 16.5z" />
    <glyph glyph-name="less" unicode="&#x3c;" horiz-adv-x="339" 
d="M299 135l-54 -65l-206 192v75l206 194l54 -66l-167 -165z" />
    <glyph glyph-name="equal" unicode="=" horiz-adv-x="578" 
d="M60 464h458v-92h-458v92zM60 240h458v-92h-458v92z" />
    <glyph glyph-name="greater" unicode="&#x3e;" horiz-adv-x="341" 
d="M40 138l172 162l-172 162l56 69l206 -194v-75l-206 -192z" />
    <glyph glyph-name="question" unicode="?" horiz-adv-x="453" 
d="M318 534q0 38 -25.5 63t-76.5 25q-32 0 -60 -7.5t-45 -15.5t-47 -26l-43 74q90 67 203 67q96 0 146 -48t50 -124v-16q0 -40 -16 -74t-34 -53.5t-53 -50.5q-38 -42 -51.5 -70.5t-13.5 -71.5v-32h-97v34q0 65 21.5 103t74.5 91q36 35 51.5 61t15.5 63v8zM269 51
q0 -30 -18 -46t-48 -16t-48 16t-18 46t18 46.5t48 16.5q29 0 47.5 -16.5t18.5 -46.5z" />
    <glyph glyph-name="at" unicode="@" horiz-adv-x="724" 
d="M79 398q14 104 106 163.5t222 59.5q122 0 202.5 -62t67.5 -161l-27 -209q-8 -59 -42 -93t-91 -34q-64 0 -87 45q-47 -45 -105 -45q-68 0 -99.5 36.5t-22.5 105.5l15 116q9 67 47.5 102.5t99.5 35.5h171l-35 -278q-6 -45 25 -45q34 0 41 54l27 209q9 70 -48.5 109
t-144.5 39q-88 0 -157.5 -39.5t-78.5 -108.5l-38 -267q-6 -43 6.5 -74t41 -48t64.5 -24.5t82 -7.5q72 0 140 25l21 -70q-73 -31 -166 -31q-153 0 -220 60t-52 170zM289 201q-9 -68 45 -68q22 0 44.5 10.5t33.5 26.5l29 217h-70q-57 0 -67 -78z" />
    <glyph glyph-name="A" unicode="A" horiz-adv-x="567" 
d="M337 700l226 -700h-114l-55 189q-111 -19 -222 0l-54 -189h-114l225 700h108zM196 273q88 -18 174 0l-87 302z" />
    <glyph glyph-name="B" unicode="B" horiz-adv-x="587" 
d="M453 369q36 -14 62 -55t26 -89v-49q0 -79 -53 -127.5t-154 -48.5h-257v700h247q101 0 149.5 -42.5t48.5 -133.5v-30q0 -33 -18.5 -69.5t-50.5 -55.5zM320 607h-140v-202h156q37 0 59 24.5t22 72.5v8q0 57 -22 77t-75 20zM437 186v35q0 46 -24 73t-65 27h-168v-229h139
q55 0 86.5 26t31.5 68z" />
    <glyph glyph-name="C" unicode="C" horiz-adv-x="521" 
d="M498 53q-94 -67 -202 -67q-106 0 -174 61t-68 162v282q0 101 68 162t174 61q108 0 202 -67l-46 -76q-29 18 -47 26.5t-46.5 16t-62.5 7.5q-62 0 -99.5 -38.5t-37.5 -104.5v-255q0 -68 37.5 -106t99.5 -38q48 0 80 12t76 38z" />
    <glyph glyph-name="D" unicode="D" horiz-adv-x="600" 
d="M324 700q102 0 161.5 -60.5t59.5 -162.5v-254q0 -102 -59.5 -162.5t-161.5 -60.5h-247v700h247zM441 236v228q0 69 -30 105t-87 36h-143v-510h143q57 0 87 36t30 105z" />
    <glyph glyph-name="E" unicode="E" horiz-adv-x="526" 
d="M181 94h304v-94h-408v700h401v-95h-297v-202h248v-93h-248v-216z" />
    <glyph glyph-name="F" unicode="F" horiz-adv-x="504" 
d="M479 605h-298v-226h248v-94h-248v-285h-104v700h402v-95z" />
    <glyph glyph-name="G" unicode="G" horiz-adv-x="568" 
d="M280 376h235v-386h-77l-17 66q-72 -70 -163 -70q-94 0 -146.5 59.5t-52.5 162.5v283q0 101 68 162t174 61q108 0 202 -67l-46 -76q-29 18 -47 26.5t-46.5 16t-62.5 7.5q-62 0 -99.5 -38.5t-37.5 -104.5v-256q0 -69 30.5 -106t84.5 -37q83 0 132 71v136h-131v90z" />
    <glyph glyph-name="H" unicode="H" horiz-adv-x="643" 
d="M462 700h104v-700h-104v312h-281v-312h-104v700h104v-294h281v294z" />
    <glyph glyph-name="I" unicode="I" horiz-adv-x="258" 
d="M77 700h104v-700h-104v700z" />
    <glyph glyph-name="J" unicode="J" horiz-adv-x="258" 
d="M32 -81q45 45 45 129v652h104v-660q0 -128 -90 -190z" />
    <glyph glyph-name="K" unicode="K" horiz-adv-x="563" 
d="M521 73q16 0 29 5v-82q-37 -5 -57 -5q-44 0 -75 22.5t-64 80.5l-112 197l-62 -73v-218h-103v700h103v-339l234 339h125l-230 -322l152 -264q23 -41 60 -41z" />
    <glyph glyph-name="L" unicode="L" horiz-adv-x="497" 
d="M181 94h301v-94h-405v700h104v-606z" />
    <glyph glyph-name="M" unicode="M" horiz-adv-x="730" 
d="M573 700h80v-700h-100l6 470l-167 -339h-58l-163 337l7 -468h-101v700h85l205 -435z" />
    <glyph glyph-name="N" unicode="N" horiz-adv-x="623" 
d="M442 700h104v-700h-95l-277 508l6 -508h-103v700h95l277 -515z" />
    <glyph glyph-name="O" unicode="O" horiz-adv-x="616" 
d="M308 -14q-109 0 -181.5 61t-72.5 163v281q0 101 72.5 162t181.5 61t181.5 -61t72.5 -162v-281q0 -102 -72.5 -163t-181.5 -61zM308 80q66 0 108 37.5t42 105.5v255q0 67 -42 104.5t-108 37.5q-65 0 -107.5 -37.5t-42.5 -104.5v-255q0 -68 42.5 -105.5t107.5 -37.5z" />
    <glyph glyph-name="P" unicode="P" horiz-adv-x="577" 
d="M329 700q101 0 158.5 -60t57.5 -163v-29q0 -103 -57.5 -163t-158.5 -60h-149v-225h-103v700h252zM324 320q117 0 117 143q0 142 -117 142h-144v-285h144z" />
    <glyph glyph-name="Q" unicode="Q" horiz-adv-x="616" 
d="M562 210q0 -72 -38.5 -125t-103.5 -79q29 -42 88 -88l-52 -56q-69 52 -119 125q-9 -1 -29 -1q-109 0 -181.5 61t-72.5 163v281q0 101 72.5 162t181.5 61t181.5 -61t72.5 -162v-281zM458 223v255q0 67 -42 104.5t-108 37.5q-65 0 -107.5 -37.5t-42.5 -104.5v-255
q0 -63 37 -99.5t95 -42.5l-1 1q-17 37 -31 87l73 26q16 -54 36 -97l4 -7q87 32 87 132z" />
    <glyph glyph-name="R" unicode="R" horiz-adv-x="589" 
d="M517 74q18 0 35 5v-83q-28 -6 -65 -6q-45 0 -73.5 22t-56.5 82l-83 178q-55 3 -93 14v-286h-104v700h251q97 0 155.5 -55.5t58.5 -141.5v-36q0 -75 -44 -124t-117 -65l81 -164q19 -40 55 -40zM181 605v-227q57 -15 121 -15q70 0 102.5 32t32.5 85v11q0 51 -29 82.5
t-80 31.5h-147z" />
    <glyph glyph-name="S" unicode="S" horiz-adv-x="518" 
d="M74 133q84 -52 169 -52q64 0 100.5 29.5t36.5 78.5q0 53 -32 79.5t-101 40.5q-95 19 -146 65.5t-51 143.5q0 87 58.5 141.5t157.5 53.5q106 -1 197 -61l-46 -78q-80 45 -153 45q-55 0 -84 -27t-29 -71q0 -55 30.5 -79t96.5 -37q44 -9 76 -21.5t63.5 -35t48.5 -61
t17 -90.5q0 -94 -61.5 -152.5t-174.5 -58.5q-131 0 -219 64z" />
    <glyph glyph-name="T" unicode="T" horiz-adv-x="501" 
d="M487 700v-94h-184v-606h-104v606h-185v94h473z" />
    <glyph glyph-name="U" unicode="U" horiz-adv-x="617" 
d="M435 700h105l-1 -700h-89l-12 61q-69 -75 -168 -75q-198 0 -198 209v505h105v-491q0 -69 27 -100t86 -31q44 0 84 23.5t61 56.5v542z" />
    <glyph glyph-name="V" unicode="V" horiz-adv-x="567" 
d="M456 700h105l-221 -700h-110l-228 700h112l174 -574z" />
    <glyph glyph-name="W" unicode="W" horiz-adv-x="884" 
d="M205 0l-201 700h109l144 -572l131 572h109l132 -572l143 572h108l-201 -700h-105l-132 558l-131 -558h-106z" />
    <glyph glyph-name="X" unicode="X" horiz-adv-x="571" 
d="M560 0h-121l-152 283l-161 -283h-119l215 352l-203 348h120l147 -271l152 271h118l-203 -342z" />
    <glyph glyph-name="Y" unicode="Y" horiz-adv-x="533" 
d="M416 700h115l-212 -446v-254h-105v253l-213 447h115l151 -338z" />
    <glyph glyph-name="Z" unicode="Z" horiz-adv-x="533" 
d="M166 94h336v-94h-469l-1 69l325 537h-314v94h444v-71z" />
    <glyph glyph-name="bracketleft" unicode="[" horiz-adv-x="282" 
d="M74 750h178v-87h-86v-722h86v-87h-178v896z" />
    <glyph glyph-name="backslash" unicode="\" horiz-adv-x="497" 
d="M102 784l377 -894l-83 -33l-378 893z" />
    <glyph glyph-name="bracketright" unicode="]" horiz-adv-x="283" 
d="M30 -59h87v722h-87v87h179v-896h-179v87z" />
    <glyph glyph-name="asciicircum" unicode="^" horiz-adv-x="366" 
d="M140 738h87l110 -214l-79 -27l-75 165l-76 -165l-78 27z" />
    <glyph glyph-name="underscore" unicode="_" horiz-adv-x="473" 
d="M2 -49h469v-73h-469v73z" />
    <glyph glyph-name="grave" unicode="`" horiz-adv-x="604" 
d="M141 751l114 -140l-54 -55l-135 121z" />
    <glyph glyph-name="a" unicode="a" horiz-adv-x="484" 
d="M231 530q192 0 192 -188v-342h-83l-6 51q-23 -27 -60.5 -44t-77.5 -17q-75 0 -119 38t-44 112q0 75 47.5 112.5t131.5 37.5q56 0 113 -15v57q0 60 -24.5 85t-80.5 25q-68 0 -130 -37l-33 73q82 52 174 52zM212 71q36 0 66 18t47 49v68q-57 11 -106 11q-85 0 -85 -72
q0 -74 78 -74z" />
    <glyph glyph-name="b" unicode="b" horiz-adv-x="528" 
d="M308 530q171 0 171 -197v-133q0 -97 -55.5 -153.5t-150.5 -56.5q-69 0 -132 39l-7 -29h-69v750h100v-279q56 59 143 59zM379 203v115q0 63 -21 92.5t-72 29.5q-71 0 -121 -67v-265q47 -30 105 -30q109 0 109 125z" />
    <glyph glyph-name="c" unicode="c" horiz-adv-x="440" 
d="M148 210q0 -132 102 -132q67 0 126 36l39 -72q-75 -52 -168 -52q-92 0 -145.5 55.5t-53.5 152.5v124q0 97 53.5 152.5t145.5 55.5t166 -51l-39 -72q-58 35 -124 35q-102 0 -102 -132v-100z" />
    <glyph glyph-name="d" unicode="d" horiz-adv-x="526" 
d="M361 750h100v-750h-79l-7 50q-58 -60 -145 -60q-91 0 -136.5 53.5t-45.5 154.5v129q0 95 54.5 149t143.5 54q65 0 115 -25v245zM250 79q32 0 62.5 16.5t48.5 44.5v276q-49 25 -106 25q-107 0 -107 -123v-108q0 -67 24.5 -99t77.5 -32z" />
    <glyph glyph-name="e" unicode="e" horiz-adv-x="488" 
d="M146 229v-24q0 -128 103 -128q73 0 147 46l38 -70q-83 -63 -190 -63q-92 0 -144 55t-52 153v124q0 97 53.5 152.5t146.5 55.5t146 -55.5t53 -152.5v-93h-301zM248 443q-102 0 -102 -129v-12h203v12q0 129 -101 129z" />
    <glyph glyph-name="f" unicode="f" horiz-adv-x="339" 
d="M275 671q-88 0 -88 -96v-55h135v-83h-135v-437h-97v437h-61v83h61v57q0 179 174 179q55 0 93 -19l-16 -79q-28 13 -66 13z" />
    <glyph glyph-name="g" unicode="g" horiz-adv-x="497" 
d="M310 124q80 -7 123.5 -37.5t43.5 -96.5q0 -72 -48.5 -111t-133.5 -39h-89q-89 0 -131.5 30.5t-42.5 94.5q0 79 81 139q-20 17 -20 51q0 36 29 68q-66 47 -66 135q0 80 49.5 126t138.5 46q70 0 117 -29l58 97l73 -53l-87 -87q27 -40 27 -99q0 -82 -52.5 -126.5
t-135.5 -44.5q-28 0 -61 7q-10 -13 -10 -30q0 -28 30 -31zM244 449q-44 0 -68 -23t-24 -67t24 -67t68 -23t68 23t24 67t-24 67t-68 23zM289 -86q90 0 90 65q0 34 -20.5 47.5t-57.5 16.5l-138 11q-34 -30 -34 -79q0 -31 21 -46t72 -15h67z" />
    <glyph glyph-name="h" unicode="h" horiz-adv-x="533" 
d="M301 530q89 0 130 -47.5t41 -141.5v-341h-100v328q0 60 -21 86.5t-70 26.5q-32 0 -63.5 -19t-52.5 -47v-375h-100v750h100v-281q61 61 136 61z" />
    <glyph glyph-name="i" unicode="i" horiz-adv-x="230" 
d="M182 660q0 -31 -18.5 -47t-48.5 -16q-31 0 -49 16t-18 47t18 47.5t49 16.5q30 0 48.5 -16.5t18.5 -47.5zM165 520v-520h-100v520h100z" />
    <glyph glyph-name="j" unicode="j" horiz-adv-x="238" 
d="M190 660q0 -31 -18.5 -47t-48.5 -16q-31 0 -49 16t-18 47t18 47.5t49 16.5q30 0 48.5 -16.5t18.5 -47.5zM173 520v-484q0 -92 -51 -141.5t-147 -54.5l-14 80q60 2 86.5 33t26.5 94l-1 473h100z" />
    <glyph glyph-name="k" unicode="k" horiz-adv-x="504" 
d="M454 71q20 0 35 5l-1 -80q-34 -6 -61 -6q-45 0 -78.5 23t-64.5 81l-65 135l-54 -59v-170h-100v750h100v-460l191 230h118l-186 -215l97 -192q21 -42 69 -42z" />
    <glyph glyph-name="l" unicode="l" horiz-adv-x="230" 
d="M65 0v750h100v-750h-100z" />
    <glyph glyph-name="m" unicode="m" horiz-adv-x="802" 
d="M586 530q82 0 118.5 -45.5t36.5 -142.5v-342h-100v328q0 62 -14.5 88t-58.5 26q-70 0 -115 -75v-367h-100v325q0 56 -20.5 86t-56.5 30q-64 0 -111 -69v-372h-100v520h86l9 -56q61 66 136 66q46 0 79.5 -21.5t49.5 -60.5q68 82 161 82z" />
    <glyph glyph-name="n" unicode="n" horiz-adv-x="533" 
d="M303 530q169 0 169 -192v-338h-100v325q0 61 -20 88.5t-70 27.5q-32 0 -64 -20t-53 -49v-372h-100v520h86l9 -56q64 66 143 66z" />
    <glyph glyph-name="o" unicode="o" horiz-adv-x="515" 
d="M48 322q0 97 56 152.5t154 55.5t153.5 -55.5t55.5 -152.5v-124q0 -97 -56 -152.5t-153 -55.5q-98 0 -154 55.5t-56 152.5v124zM148 207q0 -64 28.5 -97.5t81.5 -33.5t81 33.5t28 97.5v106q0 64 -28 97.5t-81 33.5t-81.5 -33.5t-28.5 -97.5v-106z" />
    <glyph glyph-name="p" unicode="p" horiz-adv-x="527" 
d="M302 530q176 0 176 -200v-129q0 -97 -55 -154t-149 -57q-53 0 -109 18v-158h-100v670h85l9 -54q59 64 143 64zM378 206v112q0 62 -21 92t-73 30q-67 0 -119 -66v-277q47 -19 107 -19q106 0 106 128z" />
    <glyph glyph-name="q" unicode="q" horiz-adv-x="526" 
d="M389 520h72v-670h-100v190q-57 -50 -133 -50q-180 0 -180 203v134q0 95 53 149t140 54q75 0 134 -33zM248 79q30 0 63 18.5t50 45.5v273q-49 25 -106 25q-107 0 -107 -123v-113q0 -67 23.5 -96.5t76.5 -29.5z" />
    <glyph glyph-name="r" unicode="r" horiz-adv-x="337" 
d="M319 423q-93 0 -154 -61v-362h-100v520h86l10 -62q28 33 68.5 52.5t81.5 19.5z" />
    <glyph glyph-name="s" unicode="s" horiz-adv-x="452" 
d="M68 116q73 -43 149 -43q47 0 72 19t25 49q0 36 -23 52.5t-81 27.5q-36 7 -60.5 15t-50 25t-39 47t-13.5 72q0 68 46 109t133 41q99 0 181 -54l-39 -72q-74 43 -139 43q-42 0 -62 -17t-20 -44q0 -14 5 -25t11.5 -17.5t21 -12t25 -8.5t32.5 -8q8 -2 13 -3q37 -9 60 -17.5
t48.5 -26.5t38 -48.5t12.5 -73.5q0 -71 -50.5 -113.5t-140.5 -42.5q-112 0 -192 54z" />
    <glyph glyph-name="t" unicode="t" horiz-adv-x="363" 
d="M334 86l15 -79q-38 -20 -96 -20q-91 0 -128 41t-37 139v270h-65v83h68l22 99h74v-99h152v-83h-152v-260q0 -59 15.5 -82t62.5 -23q45 0 69 14z" />
    <glyph glyph-name="u" unicode="u" horiz-adv-x="530" 
d="M365 520h100v-520h-85l-11 55q-67 -65 -145 -65q-86 0 -123.5 50t-37.5 150v330h100v-316q0 -67 18 -97.5t65 -30.5q70 0 119 70v374z" />
    <glyph glyph-name="v" unicode="v" horiz-adv-x="478" 
d="M363 520h105l-181 -520h-96l-180 520h105l125 -397z" />
    <glyph glyph-name="w" unicode="w" horiz-adv-x="743" 
d="M165 0l-153 520h104l100 -393l103 393h104l107 -391l99 391h103l-154 -520h-100l-109 390l-104 -390h-100z" />
    <glyph glyph-name="x" unicode="x" horiz-adv-x="484" 
d="M471 0h-114l-115 199l-115 -199h-114l167 266l-159 254h115l107 -186l106 186h115l-159 -252z" />
    <glyph glyph-name="y" unicode="y" horiz-adv-x="477" 
d="M364 520h105l-162 -450l-19 -52l-62 -169h-103l69 173l-180 498h106l125 -379z" />
    <glyph glyph-name="z" unicode="z" horiz-adv-x="460" 
d="M155 86h272v-86h-391v69l257 365h-251v86h373v-64z" />
    <glyph glyph-name="braceleft" unicode="{" horiz-adv-x="314" 
d="M116 155q0 49 -20 73.5t-53 24.5h-30v94h30q33 0 53 24.5t20 73.5v157q0 76 35 111t105 35h27v-84h-10q-38 0 -51 -17t-13 -57v-149q0 -103 -69 -141q69 -35 69 -141v-149q0 -40 13 -57t51 -17h10v-84h-27q-70 0 -105 35t-35 111v157z" />
    <glyph glyph-name="bar" unicode="|" horiz-adv-x="235" 
d="M74 770h87v-940h-87v940z" />
    <glyph glyph-name="braceright" unicode="}" horiz-adv-x="315" 
d="M272 253q-33 0 -53 -24.5t-20 -73.5v-157q0 -146 -140 -146h-28v84h11q37 0 50.5 17t13.5 57v149q0 106 69 141q-69 38 -69 141v149q0 40 -13.5 57t-50.5 17h-11v84h28q140 0 140 -146v-157q0 -49 20 -73.5t53 -24.5h30v-94h-30z" />
    <glyph glyph-name="asciitilde" unicode="~" horiz-adv-x="575" 
d="M53 254q9 53 44.5 87t90.5 34q41 0 107.5 -32t90.5 -32q25 0 40 16t18 41l78 -12q-7 -56 -41 -89.5t-94 -33.5q-40 0 -104.5 31.5t-94.5 31.5q-26 0 -40.5 -15.5t-17.5 -40.5z" />
    <glyph glyph-name="uni00A0" unicode="&#xa0;" horiz-adv-x="208" 
 />
    <glyph glyph-name="exclamdown" unicode="&#xa1;" horiz-adv-x="235" 
d="M183 477q0 -30 -18.5 -46.5t-47.5 -16.5q-30 0 -48 16.5t-18 46.5t18 46t48 16t48 -16t18 -46zM68 3l9 347h81l9 -347v-175h-99v175z" />
    <glyph glyph-name="cent" unicode="&#xa2;" horiz-adv-x="470" 
d="M393 239l45 -64q-63 -54 -139 -70v-105h-67v99q-89 3 -140 59t-51 149v84q0 94 51 150t140 59v100h67v-106q76 -16 139 -70l-45 -64q-47 34 -94 45v-311q47 11 94 45zM141 318q0 -124 91 -131v325q-91 -7 -91 -131v-63z" />
    <glyph glyph-name="sterling" unicode="&#xa3;" horiz-adv-x="509" 
d="M171 93h309v-93h-441v77q77 49 77 139v86h-77v89h77v126q0 193 195 193q86 0 158 -33l-32 -76q-52 24 -114 24q-56 0 -81.5 -26t-25.5 -83v-125h155v-89h-155v-70q0 -41 -11 -76t-23 -49z" />
    <glyph glyph-name="currency" unicode="&#xa4;" horiz-adv-x="573" 
d="M482 319q0 -52 -21 -96l68 -71l-63 -66l-66 69q-47 -30 -113 -30q-68 0 -115 30l-65 -70l-63 67l67 71q-20 42 -20 96v44q0 53 20 95l-67 72l63 66l66 -69q47 30 114 30q68 0 113 -30l66 69l63 -66l-68 -72q21 -40 21 -95v-44zM287 208q50 0 79 30.5t29 89.5v25
q0 59 -29 90t-79 31q-51 0 -80 -31t-29 -90v-25q0 -59 29 -89.5t80 -30.5z" />
    <glyph glyph-name="yen" unicode="&#xa5;" horiz-adv-x="586" 
d="M557 700l-184 -372h150v-82h-178v-72h178v-82h-178v-92h-105v92h-175v82h175v72h-175v82h147l-185 372h115l154 -336l146 336h115z" />
    <glyph glyph-name="brokenbar" unicode="&#xa6;" horiz-adv-x="241" 
d="M77 770h87v-350h-87v350zM77 178h87v-348h-87v348z" />
    <glyph glyph-name="section" unicode="&#xa7;" horiz-adv-x="492" 
d="M453 300q0 -31 -23 -64.5t-54 -54.5q64 -37 64 -108v-14q0 -69 -50.5 -113.5t-141.5 -44.5q-113 0 -200 62l38 71q78 -48 159 -48q48 0 71 21t23 55v10q0 51 -109 73q-31 6 -55 13t-50 20t-43 30t-28 42t-11 57v12q0 33 19.5 67t50.5 53q-57 40 -57 106v15
q0 69 47.5 111.5t137.5 42.5q102 0 188 -63l-40 -67q-75 45 -146 45q-86 0 -86 -71v-10q0 -56 113 -78q37 -8 64.5 -17.5t57 -26.5t45.5 -45.5t16 -66.5v-14zM145 315q0 -21 9 -36t32.5 -25.5t44.5 -16.5t64 -16q23 14 40 36t17 42v6q0 26 -19.5 43.5t-41 24t-56 14
t-44.5 10.5q-19 -11 -32.5 -32t-13.5 -44v-6z" />
    <glyph glyph-name="dieresis" unicode="&#xa8;" horiz-adv-x="432" 
d="M120 585q-26 0 -40.5 16t-14.5 42q0 28 14.5 44.5t40.5 16.5q27 0 42 -16.5t15 -44.5q0 -26 -15 -42t-42 -16zM311 585q-26 0 -40.5 16t-14.5 42q0 28 14.5 44.5t40.5 16.5q27 0 42 -16.5t15 -44.5q0 -26 -15 -42t-42 -16z" />
    <glyph glyph-name="copyright" unicode="&#xa9;" horiz-adv-x="701" 
d="M351 -14q-81 0 -147 23.5t-108 74.5t-42 122v285q0 105 85.5 162t211.5 57t211 -57t85 -162v-285q0 -106 -85 -163t-211 -57zM351 64q85 0 149 38t64 104v285q0 65 -64 103t-149 38t-149.5 -38t-64.5 -103v-285q0 -66 64.5 -104t149.5 -38zM360 138q-157 0 -157 158v105
q0 80 38 119t119 39q68 0 129 -46l-38 -59q-46 33 -90 33q-43 0 -60 -22.5t-17 -73.5v-84q0 -51 17.5 -73.5t59.5 -22.5q47 0 90 34l38 -58q-63 -49 -129 -49z" />
    <glyph glyph-name="ordfeminine" unicode="&#xaa;" horiz-adv-x="467" 
d="M234 758q174 0 174 -172v-316h-79l-5 47q-51 -56 -134 -56q-71 0 -112 34t-41 104q0 76 42 107t125 31q57 0 110 -13v53q0 53 -23 75t-72 22q-70 0 -128 -35l-30 68q80 51 173 51zM209 338q33 0 61 16.5t44 42.5v61q-45 12 -102 12q-41 0 -60 -14.5t-19 -52.5
q0 -65 76 -65z" />
    <glyph glyph-name="guillemotleft" unicode="&#xab;" horiz-adv-x="455" 
d="M227 159l-58 -58l-135 147v63l135 147l58 -58l-113 -121zM409 159l-58 -58l-135 147v63l135 147l58 -58l-113 -121z" />
    <glyph glyph-name="logicalnot" unicode="&#xac;" horiz-adv-x="633" 
d="M53 383h516v-242h-91v156h-425v86z" />
    <glyph glyph-name="uni00AD" unicode="&#xad;" horiz-adv-x="402" 
d="M59 348h284v-92h-284v92z" />
    <glyph glyph-name="registered" unicode="&#xae;" horiz-adv-x="701" 
d="M351 710q126 0 211 -57t85 -162v-285q0 -106 -85 -163t-211 -57q-81 0 -147 23.5t-108 74.5t-42 122v285q0 105 85.5 162t211.5 57zM564 206v285q0 65 -64 103t-149 38t-149.5 -38t-64.5 -103v-285q0 -66 64.5 -104t149.5 -38t149 38t64 104zM498 407q0 -86 -74 -112
l86 -149h-92l-77 139h-52v-139h-76v406h150q63 0 99 -31.5t36 -90.5v-23zM289 484v-134h67q33 0 49 14.5t16 48.5v9q0 34 -15.5 48t-49.5 14h-67z" />
    <glyph glyph-name="macron" unicode="&#xaf;" horiz-adv-x="604" 
d="M51 679h284v-81h-284v81z" />
    <glyph glyph-name="degree" unicode="&#xb0;" horiz-adv-x="351" 
d="M40 584q0 59 36.5 95t97.5 36q63 0 100 -36t37 -95v-16q0 -62 -36.5 -96.5t-100.5 -34.5q-61 0 -97.5 34.5t-36.5 96.5v16zM173 506q60 0 60 68q0 71 -60 71q-54 0 -54 -71q0 -68 54 -68z" />
    <glyph glyph-name="plusminus" unicode="&#xb1;" horiz-adv-x="567" 
d="M52 377h187v154h89v-154h187v-86h-187v-156h-89v156h-187v86zM52 86h463v-86h-463v86z" />
    <glyph glyph-name="uni00B2" unicode="&#xb2;" horiz-adv-x="392" 
d="M170 423h182v-79h-308v57l166 192q39 46 39 82q0 24 -15.5 40.5t-45.5 16.5q-54 0 -122 -36l-32 62q78 53 159 53q72 0 108.5 -35.5t36.5 -93.5q0 -67 -71 -148z" />
    <glyph glyph-name="uni00B3" unicode="&#xb3;" horiz-adv-x="385" 
d="M289 582q21 -13 34.5 -41.5t13.5 -56.5v-12q0 -65 -41 -104t-115 -39q-87 0 -149 43l26 65q53 -29 116 -29q32 0 51 17.5t19 47.5v6q0 32 -13.5 49.5t-36.5 17.5h-58v66h59q20 0 32 20.5t12 42.5q0 59 -58 59q-63 0 -111 -26l-26 62q59 42 143 42q70 0 106 -35.5
t36 -94.5q0 -25 -10.5 -53.5t-29.5 -46.5z" />
    <glyph glyph-name="acute" unicode="&#xb4;" horiz-adv-x="307" 
d="M174 751l75 -74l-135 -121l-54 55z" />
    <glyph glyph-name="uni00B5" unicode="&#xb5;" horiz-adv-x="540" 
d="M476 520v-322q-1 -97 -52.5 -152.5t-140.5 -55.5q-70 0 -109 49l-1 -54q0 -44 -11.5 -82t-21.5 -53l-87 30q21 52 21 133v507h100l-1 -311q0 -131 102 -131q48 0 74.5 33.5t26.5 97.5v311h100z" />
    <glyph glyph-name="paragraph" unicode="&#xb6;" horiz-adv-x="541" 
d="M257 269h-29q-93 0 -147 53t-54 149v27q0 97 54.5 149.5t155.5 52.5h224v-810h-65v734h-74v-734h-65v379z" />
    <glyph glyph-name="periodcentered" unicode="&#xb7;" horiz-adv-x="234" 
d="M117 381q29 0 47.5 -16.5t18.5 -46.5t-18 -46t-48 -16t-48 16t-18 46t18 46.5t48 16.5z" />
    <glyph glyph-name="cedilla" unicode="&#xb8;" horiz-adv-x="604" 
d="M52 -117q17 -5 37 -5q36 0 36 29q0 15 -13.5 22t-27.5 7h-14l25 64h69l-12 -35q61 -8 61 -69q0 -42 -30 -60t-73 -18q-36 0 -63 10z" />
    <glyph glyph-name="uni00B9" unicode="&#xb9;" horiz-adv-x="318" 
d="M218 418h73v-74h-245v74h85v281l-61 -42l-39 64l117 83h70v-386z" />
    <glyph glyph-name="ordmasculine" unicode="&#xba;" horiz-adv-x="488" 
d="M45 566q0 89 53.5 140.5t145.5 51.5q93 0 146 -51.5t53 -140.5v-114q0 -89 -53.5 -140t-145.5 -51t-145.5 51t-53.5 140v114zM140 463q0 -58 27 -88.5t77 -30.5t77 30.5t27 88.5v92q0 119 -104 119t-104 -119v-92z" />
    <glyph glyph-name="guillemotright" unicode="&#xbb;" horiz-adv-x="455" 
d="M46 159l113 120l-113 121l58 58l135 -147v-63l-135 -147zM228 159l113 120l-113 121l58 58l135 -147v-63l-135 -147z" />
    <glyph glyph-name="onequarter" unicode="&#xbc;" horiz-adv-x="916" 
d="M644 775l74 -37l-427 -811l-74 37zM46 318h91v281l-66 -42l-41 64l124 83h71v-386h79v-74h-258v74zM845 157h46v-75h-46v-82h-87v82h-228v59l164 319h89l-148 -303h123l1 154h86v-154z" />
    <glyph glyph-name="onehalf" unicode="&#xbd;" horiz-adv-x="940" 
d="M621 775l74 -37l-427 -811l-74 37zM43 318h91v281l-66 -42l-41 64l124 83h71v-386h79v-74h-258v74zM713 79h199v-79h-327v57l185 196q39 42 39 82q0 24 -18 40.5t-51 16.5q-58 0 -130 -36l-33 62q81 53 168 53q76 0 114.5 -35.5t38.5 -93.5q0 -66 -76 -148z" />
    <glyph glyph-name="threequarters" unicode="&#xbe;" horiz-adv-x="942" 
d="M672 775l74 -37l-427 -811l-74 37zM353 371q0 -64 -44.5 -102t-122.5 -38q-92 0 -159 43l28 65q58 -29 124 -29q87 0 87 62v6q0 67 -66 67h-62v66h54q31 0 47 20t16 44q0 61 -74 61q-62 0 -114 -26l-28 62q63 42 153 42q74 0 112.5 -35.5t38.5 -94.5q0 -26 -12 -55.5
t-33 -47.5q24 -13 39.5 -41.5t15.5 -56.5v-12zM871 157h46v-75h-46v-82h-87v82h-228v59l164 319h89l-148 -303h123l1 154h86v-154z" />
    <glyph glyph-name="questiondown" unicode="&#xbf;" horiz-adv-x="450" 
d="M183 486q0 30 18 46t48 16t48 -16t18 -46t-18 -46.5t-48 -16.5q-29 0 -47.5 16.5t-18.5 46.5zM134 3q0 -38 25.5 -63t76.5 -25q32 0 60 7.5t45 15.5t47 26l43 -74q-90 -67 -203 -67q-96 0 -146 48t-50 124v16q0 40 16 74t34 53.5t53 50.5q38 42 51.5 70.5t13.5 71.5v32
h97v-34q0 -65 -21.5 -103t-74.5 -91q-36 -35 -51.5 -61t-15.5 -63v-8z" />
    <glyph glyph-name="Agrave" unicode="&#xc0;" horiz-adv-x="567" 
d="M393 812l-42 -63l-175 100l59 89zM337 700l226 -700h-114l-55 189q-111 -19 -222 0l-54 -189h-114l225 700h108zM196 273q88 -18 174 0l-87 302z" />
    <glyph glyph-name="Aacute" unicode="&#xc1;" horiz-adv-x="567" 
d="M389 849l-175 -100l-42 63l158 126zM337 700l226 -700h-114l-55 189q-111 -19 -222 0l-54 -189h-114l225 700h108zM196 273q88 -18 174 0l-87 302z" />
    <glyph glyph-name="Acircumflex" unicode="&#xc2;" horiz-adv-x="567" 
d="M283 839l-72 -88l-85 37l101 115h112l101 -115l-85 -37zM337 700l226 -700h-114l-55 189q-111 -19 -222 0l-54 -189h-114l225 700h108zM196 273q88 -18 174 0l-87 302z" />
    <glyph glyph-name="Atilde" unicode="&#xc3;" horiz-adv-x="567" 
d="M226 786q-26 0 -33 -31l-71 16q5 44 32 71t72 27q32 0 65.5 -14.5t49.5 -14.5q15 0 21 7.5t10 22.5l72 -16q-4 -43 -30 -70t-66 -27q-34 0 -71 14.5t-51 14.5zM337 700l226 -700h-114l-55 189q-111 -19 -222 0l-54 -189h-114l225 700h108zM196 273q88 -18 174 0l-87 302z
" />
    <glyph glyph-name="Adieresis" unicode="&#xc4;" horiz-adv-x="567" 
d="M174 752q-26 0 -40.5 16t-14.5 42q0 28 14.5 44.5t40.5 16.5q27 0 42 -16.5t15 -44.5q0 -26 -15 -42t-42 -16zM389 752q-26 0 -40.5 16t-14.5 42q0 28 14.5 44.5t40.5 16.5q27 0 42 -16.5t15 -44.5q0 -26 -15 -42t-42 -16zM337 700l226 -700h-114l-55 189
q-111 -19 -222 0l-54 -189h-114l225 700h108zM196 273q88 -18 174 0l-87 302z" />
    <glyph glyph-name="Aring" unicode="&#xc5;" horiz-adv-x="567" 
d="M283 726q-42 0 -66.5 23.5t-24.5 64.5v10q0 40 25 64t66 24t66 -24t25 -64v-10q0 -41 -24.5 -64.5t-66.5 -23.5zM283 858q-35 0 -35 -40q0 -39 35 -39t35 39q0 40 -35 40zM337 700l226 -700h-114l-55 189q-111 -19 -222 0l-54 -189h-114l225 700h108zM196 273
q88 -18 174 0l-87 302z" />
    <glyph glyph-name="AE" unicode="&#xc6;" horiz-adv-x="859" 
d="M514 94h304v-94h-408v186h-205l-90 -186h-126l364 700h458v-95h-297v-202h248v-93h-248v-216zM251 280h159v327z" />
    <glyph glyph-name="Ccedilla" unicode="&#xc7;" horiz-adv-x="521" 
d="M498 53q-82 -58 -164 -65l-8 -23q61 -8 61 -69q0 -42 -30 -60t-73 -18q-36 0 -63 10l5 55q17 -5 37 -5q36 0 36 29q0 15 -13.5 22t-27.5 7h-14l20 52q-94 9 -152 69t-58 152v282q0 101 68 162t174 61q108 0 202 -67l-46 -76q-29 18 -47 26.5t-46.5 16t-62.5 7.5
q-62 0 -99.5 -38.5t-37.5 -104.5v-255q0 -68 37.5 -106t99.5 -38q48 0 80 12t76 38z" />
    <glyph glyph-name="Egrave" unicode="&#xc8;" horiz-adv-x="526" 
d="M397 812l-42 -63l-175 100l59 89zM181 94h304v-94h-408v700h401v-95h-297v-202h248v-93h-248v-216z" />
    <glyph glyph-name="Eacute" unicode="&#xc9;" horiz-adv-x="526" 
d="M393 849l-175 -100l-42 63l158 126zM181 94h304v-94h-408v700h401v-95h-297v-202h248v-93h-248v-216z" />
    <glyph glyph-name="Ecircumflex" unicode="&#xca;" horiz-adv-x="526" 
d="M287 839l-72 -88l-85 37l101 115h112l101 -115l-85 -37zM181 94h304v-94h-408v700h401v-95h-297v-202h248v-93h-248v-216z" />
    <glyph glyph-name="Edieresis" unicode="&#xcb;" horiz-adv-x="526" 
d="M178 752q-26 0 -40.5 16t-14.5 42q0 28 14.5 44.5t40.5 16.5q27 0 42 -16.5t15 -44.5q0 -26 -15 -42t-42 -16zM393 752q-26 0 -40.5 16t-14.5 42q0 28 14.5 44.5t40.5 16.5q27 0 42 -16.5t15 -44.5q0 -26 -15 -42t-42 -16zM181 94h304v-94h-408v700h401v-95h-297v-202
h248v-93h-248v-216z" />
    <glyph glyph-name="Igrave" unicode="&#xcc;" horiz-adv-x="258" 
d="M24 938l158 -126l-42 -63l-175 100zM77 700h104v-700h-104v700z" />
    <glyph glyph-name="Iacute" unicode="&#xcd;" horiz-adv-x="258" 
d="M242 938l59 -89l-175 -100l-42 63zM77 700h104v-700h-104v700z" />
    <glyph glyph-name="Icircumflex" unicode="&#xce;" horiz-adv-x="258" 
d="M73 903h112l101 -115l-85 -37l-72 88l-72 -88l-85 37zM77 700h104v-700h-104v700z" />
    <glyph glyph-name="Idieresis" unicode="&#xcf;" horiz-adv-x="258" 
d="M51 752q-26 0 -40.5 16t-14.5 42q0 28 14.5 44.5t40.5 16.5q27 0 42.5 -16.5t15.5 -44.5q0 -26 -15.5 -42t-42.5 -16zM205 752q-26 0 -40.5 16t-14.5 42q0 28 14.5 44.5t40.5 16.5q27 0 42.5 -16.5t15.5 -44.5q0 -26 -15.5 -42t-42.5 -16zM77 700h104v-700h-104v700z" />
    <glyph glyph-name="Eth" unicode="&#xd0;" horiz-adv-x="602" 
d="M326 700q102 0 161.5 -60.5t59.5 -162.5v-254q0 -102 -59.5 -162.5t-161.5 -60.5h-247v311h-51v78h51v311h247zM443 236v228q0 69 -30 105t-87 36h-143v-216h144v-78h-144v-216h143q57 0 87 36t30 105z" />
    <glyph glyph-name="Ntilde" unicode="&#xd1;" horiz-adv-x="623" 
d="M254 786q-26 0 -33 -31l-71 16q5 44 32 71t72 27q32 0 65.5 -14.5t49.5 -14.5q15 0 21 7.5t10 22.5l72 -16q-4 -43 -30 -70t-66 -27q-34 0 -71 14.5t-51 14.5zM442 700h104v-700h-95l-277 508l6 -508h-103v700h95l277 -515z" />
    <glyph glyph-name="Ograve" unicode="&#xd2;" horiz-adv-x="616" 
d="M259 938l158 -126l-42 -63l-175 100zM308 -14q-109 0 -181.5 61t-72.5 163v281q0 101 72.5 162t181.5 61t181.5 -61t72.5 -162v-281q0 -102 -72.5 -163t-181.5 -61zM308 80q66 0 108 37.5t42 105.5v255q0 67 -42 104.5t-108 37.5q-65 0 -107.5 -37.5t-42.5 -104.5v-255
q0 -68 42.5 -105.5t107.5 -37.5z" />
    <glyph glyph-name="Oacute" unicode="&#xd3;" horiz-adv-x="616" 
d="M354 938l59 -89l-175 -100l-42 63zM308 -14q-109 0 -181.5 61t-72.5 163v281q0 101 72.5 162t181.5 61t181.5 -61t72.5 -162v-281q0 -102 -72.5 -163t-181.5 -61zM308 80q66 0 108 37.5t42 105.5v255q0 67 -42 104.5t-108 37.5q-65 0 -107.5 -37.5t-42.5 -104.5v-255
q0 -68 42.5 -105.5t107.5 -37.5z" />
    <glyph glyph-name="Ocircumflex" unicode="&#xd4;" horiz-adv-x="616" 
d="M251 903h112l101 -115l-85 -37l-72 88l-72 -88l-85 37zM308 -14q-109 0 -181.5 61t-72.5 163v281q0 101 72.5 162t181.5 61t181.5 -61t72.5 -162v-281q0 -102 -72.5 -163t-181.5 -61zM308 80q66 0 108 37.5t42 105.5v255q0 67 -42 104.5t-108 37.5q-65 0 -107.5 -37.5
t-42.5 -104.5v-255q0 -68 42.5 -105.5t107.5 -37.5z" />
    <glyph glyph-name="Otilde" unicode="&#xd5;" horiz-adv-x="616" 
d="M146 771q5 44 32 71t72 27q32 0 65.5 -14.5t49.5 -14.5q15 0 21 7.5t10 22.5l72 -16q-4 -43 -30 -70t-66 -27q-34 0 -71 14.5t-51 14.5q-26 0 -33 -31zM308 -14q-109 0 -181.5 61t-72.5 163v281q0 101 72.5 162t181.5 61t181.5 -61t72.5 -162v-281q0 -102 -72.5 -163
t-181.5 -61zM308 80q66 0 108 37.5t42 105.5v255q0 67 -42 104.5t-108 37.5q-65 0 -107.5 -37.5t-42.5 -104.5v-255q0 -68 42.5 -105.5t107.5 -37.5z" />
    <glyph glyph-name="Odieresis" unicode="&#xd6;" horiz-adv-x="616" 
d="M198 752q-26 0 -40.5 16t-14.5 42q0 28 14.5 44.5t40.5 16.5q27 0 42 -16.5t15 -44.5q0 -26 -15 -42t-42 -16zM413 752q-26 0 -40.5 16t-14.5 42q0 28 14.5 44.5t40.5 16.5q27 0 42 -16.5t15 -44.5q0 -26 -15 -42t-42 -16zM308 -14q-109 0 -181.5 61t-72.5 163v281
q0 101 72.5 162t181.5 61t181.5 -61t72.5 -162v-281q0 -102 -72.5 -163t-181.5 -61zM308 80q66 0 108 37.5t42 105.5v255q0 67 -42 104.5t-108 37.5q-65 0 -107.5 -37.5t-42.5 -104.5v-255q0 -68 42.5 -105.5t107.5 -37.5z" />
    <glyph glyph-name="multiply" unicode="&#xd7;" horiz-adv-x="535" 
d="M99 66l-60 64l168 177l-168 177l60 64l168 -177l169 177l60 -64l-169 -177l169 -177l-60 -64l-169 177z" />
    <glyph glyph-name="Oslash" unicode="&#xd8;" horiz-adv-x="616" 
d="M568 682l-43 -68q37 -55 37 -123v-281q0 -102 -72.5 -163t-181.5 -61q-91 0 -157 43l-37 -57l-66 42l45 70q-39 53 -39 126v281q0 101 72.5 162t181.5 61q90 0 159 -44l33 52zM158 223q0 -17 3 -32l252 394q-41 35 -105 35q-65 0 -107.5 -37.5t-42.5 -104.5v-255z
M458 478q0 12 -2 28l-251 -392q40 -34 103 -34q66 0 108 37.5t42 105.5v255z" />
    <glyph glyph-name="Ugrave" unicode="&#xd9;" horiz-adv-x="617" 
d="M416 812l-42 -63l-175 100l59 89zM435 700h105l-1 -700h-89l-12 61q-69 -75 -168 -75q-198 0 -198 209v505h105v-491q0 -69 27 -100t86 -31q44 0 84 23.5t61 56.5v542z" />
    <glyph glyph-name="Uacute" unicode="&#xda;" horiz-adv-x="617" 
d="M412 849l-175 -100l-42 63l158 126zM435 700h105l-1 -700h-89l-12 61q-69 -75 -168 -75q-198 0 -198 209v505h105v-491q0 -69 27 -100t86 -31q44 0 84 23.5t61 56.5v542z" />
    <glyph glyph-name="Ucircumflex" unicode="&#xdb;" horiz-adv-x="617" 
d="M306 839l-72 -88l-85 37l101 115h112l101 -115l-85 -37zM435 700h105l-1 -700h-89l-12 61q-69 -75 -168 -75q-198 0 -198 209v505h105v-491q0 -69 27 -100t86 -31q44 0 84 23.5t61 56.5v542z" />
    <glyph glyph-name="Udieresis" unicode="&#xdc;" horiz-adv-x="617" 
d="M197 752q-26 0 -40.5 16t-14.5 42q0 28 14.5 44.5t40.5 16.5q27 0 42 -16.5t15 -44.5q0 -26 -15 -42t-42 -16zM412 752q-26 0 -40.5 16t-14.5 42q0 28 14.5 44.5t40.5 16.5q27 0 42 -16.5t15 -44.5q0 -26 -15 -42t-42 -16zM435 700h105l-1 -700h-89l-12 61
q-69 -75 -168 -75q-198 0 -198 209v505h105v-491q0 -69 27 -100t86 -31q44 0 84 23.5t61 56.5v542z" />
    <glyph glyph-name="Yacute" unicode="&#xdd;" horiz-adv-x="533" 
d="M372 849l-175 -100l-42 63l158 126zM416 700h115l-212 -446v-254h-105v253l-213 447h115l151 -338z" />
    <glyph glyph-name="Thorn" unicode="&#xde;" horiz-adv-x="576" 
d="M315 575q103 0 162 -54.5t59 -154.5v-32q0 -100 -59 -154.5t-162 -54.5h-134v-125h-104v700h104v-125h134zM431 345v10q0 128 -116 128h-134v-267h134q116 0 116 129z" />
    <glyph glyph-name="germandbls" unicode="&#xdf;" horiz-adv-x="591" 
d="M90 369h-58v86h58v94q0 98 53 152.5t151 54.5q84 0 132 -37.5t48 -106.5q0 -34 -18 -63.5t-39 -47t-39 -42t-18 -49.5q0 -24 21.5 -46t52 -42.5t60.5 -43.5t51.5 -59t21.5 -79q0 -69 -51.5 -111.5t-154.5 -42.5q-35 0 -84 14l-4 85q53 -10 103 -10q39 0 64 17.5t25 50.5
q0 19 -15.5 36.5t-39 31.5t-50.5 33t-50.5 38.5t-39 51.5t-15.5 70t18.5 70t40.5 50.5t40.5 42.5t18.5 48q0 23 -20 38.5t-61 15.5q-54 0 -78 -32.5t-24 -98.5v-538h-99z" />
    <glyph glyph-name="agrave" unicode="&#xe0;" horiz-adv-x="484" 
d="M303 611l-54 -55l-135 121l75 74zM231 530q192 0 192 -188v-342h-83l-6 51q-23 -27 -60.5 -44t-77.5 -17q-75 0 -119 38t-44 112q0 75 47.5 112.5t131.5 37.5q56 0 113 -15v57q0 60 -24.5 85t-80.5 25q-68 0 -130 -37l-33 73q82 52 174 52zM212 71q36 0 66 18t47 49v68
q-57 11 -106 11q-85 0 -85 -72q0 -74 78 -74z" />
    <glyph glyph-name="aacute" unicode="&#xe1;" horiz-adv-x="484" 
d="M364 677l-135 -121l-54 55l114 140zM231 530q192 0 192 -188v-342h-83l-6 51q-23 -27 -60.5 -44t-77.5 -17q-75 0 -119 38t-44 112q0 75 47.5 112.5t131.5 37.5q56 0 113 -15v57q0 60 -24.5 85t-80.5 25q-68 0 -130 -37l-33 73q82 52 174 52zM212 71q36 0 66 18t47 49v68
q-57 11 -106 11q-85 0 -85 -72q0 -74 78 -74z" />
    <glyph glyph-name="acircumflex" unicode="&#xe2;" horiz-adv-x="484" 
d="M235 656l-74 -88l-80 37l102 114h104l102 -114l-80 -37zM231 530q192 0 192 -188v-342h-83l-6 51q-23 -27 -60.5 -44t-77.5 -17q-75 0 -119 38t-44 112q0 75 47.5 112.5t131.5 37.5q56 0 113 -15v57q0 60 -24.5 85t-80.5 25q-68 0 -130 -37l-33 73q82 52 174 52zM212 71
q36 0 66 18t47 49v68q-57 11 -106 11q-85 0 -85 -72q0 -74 78 -74z" />
    <glyph glyph-name="atilde" unicode="&#xe3;" horiz-adv-x="484" 
d="M178 619q-29 0 -36 -30l-67 15q4 43 31 69.5t72 26.5q32 0 65.5 -16.5t49.5 -16.5q27 0 33 32l69 -15q-4 -42 -29.5 -70t-65.5 -28q-34 0 -71 16.5t-51 16.5zM231 530q192 0 192 -188v-342h-83l-6 51q-23 -27 -60.5 -44t-77.5 -17q-75 0 -119 38t-44 112q0 75 47.5 112.5
t131.5 37.5q56 0 113 -15v57q0 60 -24.5 85t-80.5 25q-68 0 -130 -37l-33 73q82 52 174 52zM212 71q36 0 66 18t47 49v68q-57 11 -106 11q-85 0 -85 -72q0 -74 78 -74z" />
    <glyph glyph-name="adieresis" unicode="&#xe4;" horiz-adv-x="484" 
d="M138 585q-26 0 -40.5 16t-14.5 42q0 28 14.5 44.5t40.5 16.5q27 0 42 -16.5t15 -44.5q0 -26 -15 -42t-42 -16zM329 585q-26 0 -40.5 16t-14.5 42q0 28 14.5 44.5t40.5 16.5q27 0 42 -16.5t15 -44.5q0 -26 -15 -42t-42 -16zM231 530q192 0 192 -188v-342h-83l-6 51
q-23 -27 -60.5 -44t-77.5 -17q-75 0 -119 38t-44 112q0 75 47.5 112.5t131.5 37.5q56 0 113 -15v57q0 60 -24.5 85t-80.5 25q-68 0 -130 -37l-33 73q82 52 174 52zM212 71q36 0 66 18t47 49v68q-57 11 -106 11q-85 0 -85 -72q0 -74 78 -74z" />
    <glyph glyph-name="aring" unicode="&#xe5;" horiz-adv-x="484" 
d="M233 558q-39 0 -63 23t-24 64v10q0 39 24 63t63 24q40 0 65 -24t25 -63v-10q0 -41 -25 -64t-65 -23zM233 690q-33 0 -33 -41q0 -40 33 -40q36 0 36 40q0 41 -36 41zM231 530q192 0 192 -188v-342h-83l-6 51q-23 -27 -60.5 -44t-77.5 -17q-75 0 -119 38t-44 112
q0 75 47.5 112.5t131.5 37.5q56 0 113 -15v57q0 60 -24.5 85t-80.5 25q-68 0 -130 -37l-33 73q82 52 174 52zM212 71q36 0 66 18t47 49v68q-57 11 -106 11q-85 0 -85 -72q0 -74 78 -74z" />
    <glyph glyph-name="ae" unicode="&#xe6;" horiz-adv-x="771" 
d="M429 229v-24q0 -128 103 -128q73 0 147 46l38 -70q-83 -63 -190 -63q-113 0 -164 80q-72 -80 -163 -80q-78 0 -122.5 36.5t-44.5 113.5q0 83 45 116.5t134 33.5q57 0 119 -14v58q0 59 -24.5 83.5t-77.5 24.5q-73 0 -139 -39l-32 72q89 55 186 55t144 -52q52 52 143 52
q93 0 146 -55.5t53 -152.5v-93h-301zM531 443q-102 0 -102 -129v-12h203v12q0 129 -101 129zM218 71q65 0 119 67q-4 16 -6 51v17q-57 12 -111 12q-45 0 -65.5 -15.5t-20.5 -57.5q0 -74 84 -74z" />
    <glyph glyph-name="ccedilla" unicode="&#xe7;" horiz-adv-x="440" 
d="M278 -35q61 -8 61 -69q0 -42 -30 -60t-73 -18q-36 0 -63 10l5 55q17 -5 37 -5q36 0 36 29q0 15 -13.5 22t-27.5 7h-14l22 56q-80 8 -125 63t-45 143v124q0 97 53.5 152.5t145.5 55.5t166 -51l-39 -72q-58 35 -124 35q-102 0 -102 -132v-100q0 -132 102 -132q67 0 126 36
l39 -72q-56 -38 -127 -49z" />
    <glyph glyph-name="egrave" unicode="&#xe8;" horiz-adv-x="488" 
d="M314 611l-54 -55l-135 121l75 74zM146 229v-24q0 -128 103 -128q73 0 147 46l38 -70q-83 -63 -190 -63q-92 0 -144 55t-52 153v124q0 97 53.5 152.5t146.5 55.5t146 -55.5t53 -152.5v-93h-301zM248 443q-102 0 -102 -129v-12h203v12q0 129 -101 129z" />
    <glyph glyph-name="eacute" unicode="&#xe9;" horiz-adv-x="488" 
d="M375 677l-135 -121l-54 55l114 140zM146 229v-24q0 -128 103 -128q73 0 147 46l38 -70q-83 -63 -190 -63q-92 0 -144 55t-52 153v124q0 97 53.5 152.5t146.5 55.5t146 -55.5t53 -152.5v-93h-301zM248 443q-102 0 -102 -129v-12h203v12q0 129 -101 129z" />
    <glyph glyph-name="ecircumflex" unicode="&#xea;" horiz-adv-x="488" 
d="M246 656l-74 -88l-80 37l102 114h104l102 -114l-80 -37zM146 229v-24q0 -128 103 -128q73 0 147 46l38 -70q-83 -63 -190 -63q-92 0 -144 55t-52 153v124q0 97 53.5 152.5t146.5 55.5t146 -55.5t53 -152.5v-93h-301zM248 443q-102 0 -102 -129v-12h203v12q0 129 -101 129
z" />
    <glyph glyph-name="edieresis" unicode="&#xeb;" horiz-adv-x="488" 
d="M149 585q-26 0 -40.5 16t-14.5 42q0 28 14.5 44.5t40.5 16.5q27 0 42 -16.5t15 -44.5q0 -26 -15 -42t-42 -16zM340 585q-26 0 -40.5 16t-14.5 42q0 28 14.5 44.5t40.5 16.5q27 0 42 -16.5t15 -44.5q0 -26 -15 -42t-42 -16zM146 229v-24q0 -128 103 -128q73 0 147 46
l38 -70q-83 -63 -190 -63q-92 0 -144 55t-52 153v124q0 97 53.5 152.5t146.5 55.5t146 -55.5t53 -152.5v-93h-301zM248 443q-102 0 -102 -129v-12h203v12q0 129 -101 129z" />
    <glyph glyph-name="igrave" unicode="&#xec;" horiz-adv-x="230" 
d="M51 751l114 -140l-54 -55l-135 121zM165 520v-520h-100v520h100z" />
    <glyph glyph-name="iacute" unicode="&#xed;" horiz-adv-x="230" 
d="M169 751l75 -74l-135 -121l-54 55zM165 520v-520h-100v520h100z" />
    <glyph glyph-name="icircumflex" unicode="&#xee;" horiz-adv-x="230" 
d="M167 719l102 -114l-80 -37l-74 88l-74 -88l-80 37l102 114h104zM165 520v-520h-100v520h100z" />
    <glyph glyph-name="idieresis" unicode="&#xef;" horiz-adv-x="230" 
d="M34 586q-26 0 -40.5 16t-14.5 42q0 28 14.5 44.5t40.5 16.5q27 0 42 -16.5t15 -44.5q0 -26 -15 -42t-42 -16zM195 586q-26 0 -40.5 16t-14.5 42q0 28 14.5 44.5t40.5 16.5q27 0 42 -16.5t15 -44.5q0 -26 -15 -42t-42 -16zM165 520v-520h-100v520h100z" />
    <glyph glyph-name="eth" unicode="&#xf0;" horiz-adv-x="521" 
d="M474 695l-52 -43q38 -54 38 -126v-332q0 -96 -54.5 -150t-153.5 -54q-94 0 -148.5 52t-54.5 147v149q0 192 182 192q77 0 133 -46v25q0 47 -19 79l-53 -45l-43 58l42 34q-28 13 -62 13q-31 0 -58 -9l-21 81q40 15 84 15q83 0 134 -36l64 53zM252 73q112 0 112 138v180
q-20 23 -54.5 39.5t-67.5 16.5q-54 0 -77 -32t-23 -100v-104q0 -138 110 -138z" />
    <glyph glyph-name="ntilde" unicode="&#xf1;" horiz-adv-x="533" 
d="M214 619q-29 0 -36 -30l-67 15q4 43 31 69.5t72 26.5q32 0 65.5 -16.5t49.5 -16.5q27 0 33 32l69 -15q-4 -42 -29.5 -70t-65.5 -28q-34 0 -71 16.5t-51 16.5zM303 530q169 0 169 -192v-338h-100v325q0 61 -20 88.5t-70 27.5q-32 0 -64 -20t-53 -49v-372h-100v520h86
l9 -56q64 66 143 66z" />
    <glyph glyph-name="ograve" unicode="&#xf2;" horiz-adv-x="515" 
d="M191 751l114 -140l-54 -55l-135 121zM48 322q0 97 56 152.5t154 55.5t153.5 -55.5t55.5 -152.5v-124q0 -97 -56 -152.5t-153 -55.5q-98 0 -154 55.5t-56 152.5v124zM148 207q0 -64 28.5 -97.5t81.5 -33.5t81 33.5t28 97.5v106q0 64 -28 97.5t-81 33.5t-81.5 -33.5
t-28.5 -97.5v-106z" />
    <glyph glyph-name="oacute" unicode="&#xf3;" horiz-adv-x="515" 
d="M321 751l75 -74l-135 -121l-54 55zM48 322q0 97 56 152.5t154 55.5t153.5 -55.5t55.5 -152.5v-124q0 -97 -56 -152.5t-153 -55.5q-98 0 -154 55.5t-56 152.5v124zM148 207q0 -64 28.5 -97.5t81.5 -33.5t81 33.5t28 97.5v106q0 64 -28 97.5t-81 33.5t-81.5 -33.5
t-28.5 -97.5v-106z" />
    <glyph glyph-name="ocircumflex" unicode="&#xf4;" horiz-adv-x="515" 
d="M309 719l102 -114l-80 -37l-74 88l-74 -88l-80 37l102 114h104zM48 322q0 97 56 152.5t154 55.5t153.5 -55.5t55.5 -152.5v-124q0 -97 -56 -152.5t-153 -55.5q-98 0 -154 55.5t-56 152.5v124zM148 207q0 -64 28.5 -97.5t81.5 -33.5t81 33.5t28 97.5v106q0 64 -28 97.5
t-81 33.5t-81.5 -33.5t-28.5 -97.5v-106z" />
    <glyph glyph-name="otilde" unicode="&#xf5;" horiz-adv-x="515" 
d="M97 604q4 43 31 69.5t72 26.5q32 0 65.5 -16.5t49.5 -16.5q27 0 33 32l69 -15q-4 -42 -29.5 -70t-65.5 -28q-34 0 -71 16.5t-51 16.5q-29 0 -36 -30zM48 322q0 97 56 152.5t154 55.5t153.5 -55.5t55.5 -152.5v-124q0 -97 -56 -152.5t-153 -55.5q-98 0 -154 55.5
t-56 152.5v124zM148 207q0 -64 28.5 -97.5t81.5 -33.5t81 33.5t28 97.5v106q0 64 -28 97.5t-81 33.5t-81.5 -33.5t-28.5 -97.5v-106z" />
    <glyph glyph-name="odieresis" unicode="&#xf6;" horiz-adv-x="515" 
d="M160 585q-26 0 -40.5 16t-14.5 42q0 28 14.5 44.5t40.5 16.5q27 0 42 -16.5t15 -44.5q0 -26 -15 -42t-42 -16zM351 585q-26 0 -40.5 16t-14.5 42q0 28 14.5 44.5t40.5 16.5q27 0 42 -16.5t15 -44.5q0 -26 -15 -42t-42 -16zM48 322q0 97 56 152.5t154 55.5t153.5 -55.5
t55.5 -152.5v-124q0 -97 -56 -152.5t-153 -55.5q-98 0 -154 55.5t-56 152.5v124zM148 207q0 -64 28.5 -97.5t81.5 -33.5t81 33.5t28 97.5v106q0 64 -28 97.5t-81 33.5t-81.5 -33.5t-28.5 -97.5v-106z" />
    <glyph glyph-name="divide" unicode="&#xf7;" horiz-adv-x="548" 
d="M340 532q0 -30 -18 -46t-48 -16t-48 16t-18 46t18 46.5t48 16.5q29 0 47.5 -16.5t18.5 -46.5zM41 351h466v-92h-466v92zM340 77q0 -30 -18 -46t-48 -16t-48 16t-18 46t18 46.5t48 16.5q29 0 47.5 -16.5t18.5 -46.5z" />
    <glyph glyph-name="oslash" unicode="&#xf8;" horiz-adv-x="515" 
d="M424 461q43 -54 43 -139v-124q0 -97 -56 -152.5t-153 -55.5q-64 0 -110 24l-30 -49l-64 39l36 58q-42 53 -42 136v124q0 97 56 152.5t154 55.5q59 0 106 -22l33 54l64 -40zM148 207q0 -25 4 -44l164 267q-25 14 -58 14q-53 0 -81.5 -33.5t-28.5 -97.5v-106zM367 207v106
q0 25 -5 48l-166 -269q25 -16 62 -16q53 0 81 33.5t28 97.5z" />
    <glyph glyph-name="ugrave" unicode="&#xf9;" horiz-adv-x="530" 
d="M333 611l-54 -55l-135 121l75 74zM365 520h100v-520h-85l-11 55q-67 -65 -145 -65q-86 0 -123.5 50t-37.5 150v330h100v-316q0 -67 18 -97.5t65 -30.5q70 0 119 70v374z" />
    <glyph glyph-name="uacute" unicode="&#xfa;" horiz-adv-x="530" 
d="M384 677l-135 -121l-54 55l114 140zM365 520h100v-520h-85l-11 55q-67 -65 -145 -65q-86 0 -123.5 50t-37.5 150v330h100v-316q0 -67 18 -97.5t65 -30.5q70 0 119 70v374z" />
    <glyph glyph-name="ucircumflex" unicode="&#xfb;" horiz-adv-x="530" 
d="M265 656l-74 -88l-80 37l102 114h104l102 -114l-80 -37zM365 520h100v-520h-85l-11 55q-67 -65 -145 -65q-86 0 -123.5 50t-37.5 150v330h100v-316q0 -67 18 -97.5t65 -30.5q70 0 119 70v374z" />
    <glyph glyph-name="udieresis" unicode="&#xfc;" horiz-adv-x="530" 
d="M168 585q-26 0 -40.5 16t-14.5 42q0 28 14.5 44.5t40.5 16.5q27 0 42 -16.5t15 -44.5q0 -26 -15 -42t-42 -16zM359 585q-26 0 -40.5 16t-14.5 42q0 28 14.5 44.5t40.5 16.5q27 0 42 -16.5t15 -44.5q0 -26 -15 -42t-42 -16zM365 520h100v-520h-85l-11 55q-67 -65 -145 -65
q-86 0 -123.5 50t-37.5 150v330h100v-316q0 -67 18 -97.5t65 -30.5q70 0 119 70v374z" />
    <glyph glyph-name="yacute" unicode="&#xfd;" horiz-adv-x="477" 
d="M387 677l-135 -121l-54 55l114 140zM364 520h105l-162 -450l-19 -52l-62 -169h-103l69 173l-180 498h106l125 -379z" />
    <glyph glyph-name="thorn" unicode="&#xfe;" horiz-adv-x="526" 
d="M300 530q177 0 177 -200v-132q0 -98 -53 -153t-147 -55q-58 0 -112 19v-159h-100v900h100v-280q62 60 135 60zM377 318q1 62 -21.5 92t-72.5 30q-32 0 -64.5 -19.5t-53.5 -47.5v-275q41 -20 105 -20q104 0 106 131z" />
    <glyph glyph-name="ydieresis" unicode="&#xff;" horiz-adv-x="477" 
d="M151 585q-26 0 -40.5 16t-14.5 42q0 28 14.5 44.5t40.5 16.5q27 0 42 -16.5t15 -44.5q0 -26 -15 -42t-42 -16zM342 585q-26 0 -40.5 16t-14.5 42q0 28 14.5 44.5t40.5 16.5q27 0 42 -16.5t15 -44.5q0 -26 -15 -42t-42 -16zM364 520h105l-162 -450l-19 -52l-62 -169h-103
l69 173l-180 498h106l125 -379z" />
    <glyph glyph-name="Amacron" unicode="&#x100;" horiz-adv-x="567" 
d="M425 846v-83h-284v83h284zM337 700l226 -700h-114l-55 189q-111 -19 -222 0l-54 -189h-114l225 700h108zM196 273q88 -18 174 0l-87 302z" />
    <glyph glyph-name="amacron" unicode="&#x101;" horiz-adv-x="484" 
d="M377 679v-81h-284v81h284zM231 530q192 0 192 -188v-342h-83l-6 51q-23 -27 -60.5 -44t-77.5 -17q-75 0 -119 38t-44 112q0 75 47.5 112.5t131.5 37.5q56 0 113 -15v57q0 60 -24.5 85t-80.5 25q-68 0 -130 -37l-33 73q82 52 174 52zM212 71q36 0 66 18t47 49v68
q-57 11 -106 11q-85 0 -85 -72q0 -74 78 -74z" />
    <glyph glyph-name="Abreve" unicode="&#x102;" horiz-adv-x="567" 
d="M283 752q-130 0 -130 124v9h81q0 -60 49 -60t49 60h81v-9q0 -124 -130 -124zM337 700l226 -700h-114l-55 189q-111 -19 -222 0l-54 -189h-114l225 700h108zM196 273q88 -18 174 0l-87 302z" />
    <glyph glyph-name="abreve" unicode="&#x103;" horiz-adv-x="484" 
d="M235 573q-59 0 -93.5 30.5t-34.5 93.5v9h81q0 -60 47 -60t47 60h81v-9q0 -63 -34.5 -93.5t-93.5 -30.5zM231 530q192 0 192 -188v-342h-83l-6 51q-23 -27 -60.5 -44t-77.5 -17q-75 0 -119 38t-44 112q0 75 47.5 112.5t131.5 37.5q56 0 113 -15v57q0 60 -24.5 85t-80.5 25
q-68 0 -130 -37l-33 73q82 52 174 52zM212 71q36 0 66 18t47 49v68q-57 11 -106 11q-85 0 -85 -72q0 -74 78 -74z" />
    <glyph glyph-name="Aogonek" unicode="&#x104;" horiz-adv-x="567" 
d="M515 -105q14 0 23 4l13 -68q-28 -13 -69 -13q-39 0 -64 21t-25 58q0 34 19.5 62t48.5 41h-12l-55 189q-111 -19 -222 0l-54 -189h-114l225 700h108l226 -700h-24q-53 -28 -53 -70q0 -35 29 -35zM196 273q88 -18 174 0l-87 302z" />
    <glyph glyph-name="aogonek" unicode="&#x105;" horiz-adv-x="484" 
d="M430 -101l13 -68q-32 -13 -68 -13q-45 0 -71.5 23t-26.5 64q0 31 19.5 57t48.5 38h-5l-6 51q-23 -27 -60.5 -44t-77.5 -17q-75 0 -119 38t-44 112q0 75 47.5 112.5t131.5 37.5q56 0 113 -15v57q0 60 -24.5 85t-80.5 25q-68 0 -130 -37l-33 73q82 52 174 52
q192 0 192 -188v-342q-53 -28 -53 -70q0 -18 9.5 -27t23.5 -9t27 5zM212 71q36 0 66 18t47 49v68q-57 11 -106 11q-85 0 -85 -72q0 -74 78 -74z" />
    <glyph glyph-name="Cacute" unicode="&#x106;" horiz-adv-x="521" 
d="M343 938l59 -89l-175 -100l-42 63zM498 53q-94 -67 -202 -67q-106 0 -174 61t-68 162v282q0 101 68 162t174 61q108 0 202 -67l-46 -76q-29 18 -47 26.5t-46.5 16t-62.5 7.5q-62 0 -99.5 -38.5t-37.5 -104.5v-255q0 -68 37.5 -106t99.5 -38q48 0 80 12t76 38z" />
    <glyph glyph-name="cacute" unicode="&#x107;" horiz-adv-x="440" 
d="M309 751l75 -74l-135 -121l-54 55zM148 210q0 -132 102 -132q67 0 126 36l39 -72q-75 -52 -168 -52q-92 0 -145.5 55.5t-53.5 152.5v124q0 97 53.5 152.5t145.5 55.5t166 -51l-39 -72q-58 35 -124 35q-102 0 -102 -132v-100z" />
    <glyph glyph-name="Ccircumflex" unicode="&#x108;" horiz-adv-x="521" 
d="M240 903h112l101 -115l-85 -37l-72 88l-72 -88l-85 37zM498 53q-94 -67 -202 -67q-106 0 -174 61t-68 162v282q0 101 68 162t174 61q108 0 202 -67l-46 -76q-29 18 -47 26.5t-46.5 16t-62.5 7.5q-62 0 -99.5 -38.5t-37.5 -104.5v-255q0 -68 37.5 -106t99.5 -38
q48 0 80 12t76 38z" />
    <glyph glyph-name="ccircumflex" unicode="&#x109;" horiz-adv-x="440" 
d="M297 719l102 -114l-80 -37l-74 88l-74 -88l-80 37l102 114h104zM148 210q0 -132 102 -132q67 0 126 36l39 -72q-75 -52 -168 -52q-92 0 -145.5 55.5t-53.5 152.5v124q0 97 53.5 152.5t145.5 55.5t166 -51l-39 -72q-58 35 -124 35q-102 0 -102 -132v-100z" />
    <glyph glyph-name="Cdotaccent" unicode="&#x10a;" horiz-adv-x="521" 
d="M363 824q0 -31 -18.5 -47t-48.5 -16q-31 0 -49 16t-18 47t18 47.5t49 16.5q30 0 48.5 -16.5t18.5 -47.5zM498 53q-94 -67 -202 -67q-106 0 -174 61t-68 162v282q0 101 68 162t174 61q108 0 202 -67l-46 -76q-29 18 -47 26.5t-46.5 16t-62.5 7.5q-62 0 -99.5 -38.5
t-37.5 -104.5v-255q0 -68 37.5 -106t99.5 -38q48 0 80 12t76 38z" />
    <glyph glyph-name="cdotaccent" unicode="&#x10b;" horiz-adv-x="440" 
d="M312 660q0 -31 -18.5 -47t-48.5 -16q-31 0 -49 16t-18 47t18 47.5t49 16.5q30 0 48.5 -16.5t18.5 -47.5zM148 210q0 -132 102 -132q67 0 126 36l39 -72q-75 -52 -168 -52q-92 0 -145.5 55.5t-53.5 152.5v124q0 97 53.5 152.5t145.5 55.5t166 -51l-39 -72q-58 35 -124 35
q-102 0 -102 -132v-100z" />
    <glyph glyph-name="Ccaron" unicode="&#x10c;" horiz-adv-x="521" 
d="M240 751l-101 115l85 37l72 -88l72 88l85 -37l-101 -115h-112zM498 53q-94 -67 -202 -67q-106 0 -174 61t-68 162v282q0 101 68 162t174 61q108 0 202 -67l-46 -76q-29 18 -47 26.5t-46.5 16t-62.5 7.5q-62 0 -99.5 -38.5t-37.5 -104.5v-255q0 -68 37.5 -106t99.5 -38
q48 0 80 12t76 38z" />
    <glyph glyph-name="ccaron" unicode="&#x10d;" horiz-adv-x="440" 
d="M189 573l-101 115l85 37l72 -88l72 88l85 -37l-101 -115h-112zM148 210q0 -132 102 -132q67 0 126 36l39 -72q-75 -52 -168 -52q-92 0 -145.5 55.5t-53.5 152.5v124q0 97 53.5 152.5t145.5 55.5t166 -51l-39 -72q-58 35 -124 35q-102 0 -102 -132v-100z" />
    <glyph glyph-name="Dcaron" unicode="&#x10e;" horiz-adv-x="600" 
d="M356 751h-112l-101 115l85 37l72 -88l72 88l85 -37zM324 700q102 0 161.5 -60.5t59.5 -162.5v-254q0 -102 -59.5 -162.5t-161.5 -60.5h-247v700h247zM441 236v228q0 69 -30 105t-87 36h-143v-510h143q57 0 87 36t30 105z" />
    <glyph glyph-name="dcaron" unicode="&#x10f;" horiz-adv-x="534" 
d="M570 762q30 0 48 -17.5t18 -52.5q0 -93 -79 -150l-41 33q35 36 30 65q-42 11 -42 59q0 30 18 46.5t48 16.5zM361 505v245h100v-750h-79l-7 50q-58 -60 -145 -60q-91 0 -136.5 53.5t-45.5 154.5v129q0 95 54.5 149t143.5 54q65 0 115 -25zM250 79q32 0 62.5 16.5
t48.5 44.5v276q-49 25 -106 25q-107 0 -107 -123v-108q0 -67 24.5 -99t77.5 -32z" />
    <glyph glyph-name="Dcroat" unicode="&#x110;" horiz-adv-x="602" 
d="M326 700q102 0 161.5 -60.5t59.5 -162.5v-254q0 -102 -59.5 -162.5t-161.5 -60.5h-247v311h-51v78h51v311h247zM443 236v228q0 69 -30 105t-87 36h-143v-216h144v-78h-144v-216h143q57 0 87 36t30 105z" />
    <glyph glyph-name="dcroat" unicode="&#x111;" horiz-adv-x="526" 
d="M524 684v-78h-63v-606h-79l-7 50q-58 -60 -145 -60q-91 0 -136.5 53.5t-45.5 154.5v129q0 95 54.5 149t143.5 54q65 0 115 -25v101h-97v78h97v66h100v-66h63zM250 79q32 0 62.5 16.5t48.5 44.5v276q-49 25 -106 25q-107 0 -107 -123v-108q0 -67 24.5 -99t77.5 -32z" />
    <glyph glyph-name="Emacron" unicode="&#x112;" horiz-adv-x="526" 
d="M429 846v-83h-284v83h284zM181 94h304v-94h-408v700h401v-95h-297v-202h248v-93h-248v-216z" />
    <glyph glyph-name="emacron" unicode="&#x113;" horiz-adv-x="488" 
d="M388 679v-81h-284v81h284zM146 229v-24q0 -128 103 -128q73 0 147 46l38 -70q-83 -63 -190 -63q-92 0 -144 55t-52 153v124q0 97 53.5 152.5t146.5 55.5t146 -55.5t53 -152.5v-93h-301zM248 443q-102 0 -102 -129v-12h203v12q0 129 -101 129z" />
    <glyph glyph-name="Ebreve" unicode="&#x114;" horiz-adv-x="526" 
d="M287 752q-130 0 -130 124v9h81q0 -60 49 -60t49 60h81v-9q0 -124 -130 -124zM181 94h304v-94h-408v700h401v-95h-297v-202h248v-93h-248v-216z" />
    <glyph glyph-name="ebreve" unicode="&#x115;" horiz-adv-x="488" 
d="M246 573q-59 0 -93.5 30.5t-34.5 93.5v9h81q0 -60 47 -60t47 60h81v-9q0 -63 -34.5 -93.5t-93.5 -30.5zM146 229v-24q0 -128 103 -128q73 0 147 46l38 -70q-83 -63 -190 -63q-92 0 -144 55t-52 153v124q0 97 53.5 152.5t146.5 55.5t146 -55.5t53 -152.5v-93h-301z
M248 443q-102 0 -102 -129v-12h203v12q0 129 -101 129z" />
    <glyph glyph-name="Edotaccent" unicode="&#x116;" horiz-adv-x="526" 
d="M287 761q-31 0 -49 16t-18 47t18 47.5t49 16.5q30 0 48.5 -16.5t18.5 -47.5t-18.5 -47t-48.5 -16zM181 94h304v-94h-408v700h401v-95h-297v-202h248v-93h-248v-216z" />
    <glyph glyph-name="edotaccent" unicode="&#x117;" horiz-adv-x="488" 
d="M246 597q-31 0 -49 16t-18 47t18 47.5t49 16.5q30 0 48.5 -16.5t18.5 -47.5t-18.5 -47t-48.5 -16zM146 229v-24q0 -128 103 -128q73 0 147 46l38 -70q-83 -63 -190 -63q-92 0 -144 55t-52 153v124q0 97 53.5 152.5t146.5 55.5t146 -55.5t53 -152.5v-93h-301zM248 443
q-102 0 -102 -129v-12h203v12q0 129 -101 129z" />
    <glyph glyph-name="Eogonek" unicode="&#x118;" horiz-adv-x="526" 
d="M484 -101l13 -68q-28 -13 -69 -13q-39 0 -64 21t-25 58q0 34 19.5 62t48.5 41h-330v700h401v-95h-297v-202h248v-93h-248v-216h304v-94q-53 -28 -53 -70q0 -35 29 -35q14 0 23 4z" />
    <glyph glyph-name="eogonek" unicode="&#x119;" horiz-adv-x="488" 
d="M146 229v-24q0 -128 103 -128q73 0 147 46l38 -70q-38 -30 -82 -45q-49 -27 -49 -68q0 -35 29 -35q14 0 23 4l13 -68q-28 -13 -69 -13q-39 0 -64 21t-25 58q0 49 37 83h-3q-92 0 -144 55t-52 153v124q0 97 53.5 152.5t146.5 55.5t146 -55.5t53 -152.5v-93h-301zM248 443
q-102 0 -102 -129v-12h203v12q0 129 -101 129z" />
    <glyph glyph-name="Ecaron" unicode="&#x11a;" horiz-adv-x="526" 
d="M343 751h-112l-101 115l85 37l72 -88l72 88l85 -37zM181 94h304v-94h-408v700h401v-95h-297v-202h248v-93h-248v-216z" />
    <glyph glyph-name="ecaron" unicode="&#x11b;" horiz-adv-x="488" 
d="M302 573h-112l-101 115l85 37l72 -88l72 88l85 -37zM146 229v-24q0 -128 103 -128q73 0 147 46l38 -70q-83 -63 -190 -63q-92 0 -144 55t-52 153v124q0 97 53.5 152.5t146.5 55.5t146 -55.5t53 -152.5v-93h-301zM248 443q-102 0 -102 -129v-12h203v12q0 129 -101 129z
" />
    <glyph glyph-name="Gcircumflex" unicode="&#x11c;" horiz-adv-x="568" 
d="M287 839l-72 -88l-85 37l101 115h112l101 -115l-85 -37zM280 376h235v-386h-77l-17 66q-72 -70 -163 -70q-94 0 -146.5 59.5t-52.5 162.5v283q0 101 68 162t174 61q108 0 202 -67l-46 -76q-29 18 -47 26.5t-46.5 16t-62.5 7.5q-62 0 -99.5 -38.5t-37.5 -104.5v-256
q0 -69 30.5 -106t84.5 -37q83 0 132 71v136h-131v90z" />
    <glyph glyph-name="gcircumflex" unicode="&#x11d;" horiz-adv-x="497" 
d="M242 656l-74 -88l-80 37l102 114h104l102 -114l-80 -37zM310 124q80 -7 123.5 -37.5t43.5 -96.5q0 -72 -48.5 -111t-133.5 -39h-89q-89 0 -131.5 30.5t-42.5 94.5q0 79 81 139q-20 17 -20 51q0 36 29 68q-66 47 -66 135q0 80 49.5 126t138.5 46q70 0 117 -29l58 97
l73 -53l-87 -87q27 -40 27 -99q0 -82 -52.5 -126.5t-135.5 -44.5q-28 0 -61 7q-10 -13 -10 -30q0 -28 30 -31zM244 449q-44 0 -68 -23t-24 -67t24 -67t68 -23t68 23t24 67t-24 67t-68 23zM289 -86q90 0 90 65q0 34 -20.5 47.5t-57.5 16.5l-138 11q-34 -30 -34 -79
q0 -31 21 -46t72 -15h67z" />
    <glyph glyph-name="Gbreve" unicode="&#x11e;" horiz-adv-x="568" 
d="M287 752q-130 0 -130 124v9h81q0 -60 49 -60t49 60h81v-9q0 -124 -130 -124zM280 376h235v-386h-77l-17 66q-72 -70 -163 -70q-94 0 -146.5 59.5t-52.5 162.5v283q0 101 68 162t174 61q108 0 202 -67l-46 -76q-29 18 -47 26.5t-46.5 16t-62.5 7.5q-62 0 -99.5 -38.5
t-37.5 -104.5v-256q0 -69 30.5 -106t84.5 -37q83 0 132 71v136h-131v90z" />
    <glyph glyph-name="gbreve" unicode="&#x11f;" horiz-adv-x="497" 
d="M242 573q-59 0 -93.5 30.5t-34.5 93.5v9h81q0 -60 47 -60t47 60h81v-9q0 -63 -34.5 -93.5t-93.5 -30.5zM310 124q80 -7 123.5 -37.5t43.5 -96.5q0 -72 -48.5 -111t-133.5 -39h-89q-89 0 -131.5 30.5t-42.5 94.5q0 79 81 139q-20 17 -20 51q0 36 29 68q-66 47 -66 135
q0 80 49.5 126t138.5 46q70 0 117 -29l58 97l73 -53l-87 -87q27 -40 27 -99q0 -82 -52.5 -126.5t-135.5 -44.5q-28 0 -61 7q-10 -13 -10 -30q0 -28 30 -31zM244 449q-44 0 -68 -23t-24 -67t24 -67t68 -23t68 23t24 67t-24 67t-68 23zM289 -86q90 0 90 65q0 34 -20.5 47.5
t-57.5 16.5l-138 11q-34 -30 -34 -79q0 -31 21 -46t72 -15h67z" />
    <glyph glyph-name="Gdotaccent" unicode="&#x120;" horiz-adv-x="568" 
d="M287 761q-31 0 -49 16t-18 47t18 47.5t49 16.5q30 0 48.5 -16.5t18.5 -47.5t-18.5 -47t-48.5 -16zM280 376h235v-386h-77l-17 66q-72 -70 -163 -70q-94 0 -146.5 59.5t-52.5 162.5v283q0 101 68 162t174 61q108 0 202 -67l-46 -76q-29 18 -47 26.5t-46.5 16t-62.5 7.5
q-62 0 -99.5 -38.5t-37.5 -104.5v-256q0 -69 30.5 -106t84.5 -37q83 0 132 71v136h-131v90z" />
    <glyph glyph-name="gdotaccent" unicode="&#x121;" horiz-adv-x="497" 
d="M242 597q-31 0 -49 16t-18 47t18 47.5t49 16.5q30 0 48.5 -16.5t18.5 -47.5t-18.5 -47t-48.5 -16zM310 124q80 -7 123.5 -37.5t43.5 -96.5q0 -72 -48.5 -111t-133.5 -39h-89q-89 0 -131.5 30.5t-42.5 94.5q0 79 81 139q-20 17 -20 51q0 36 29 68q-66 47 -66 135
q0 80 49.5 126t138.5 46q70 0 117 -29l58 97l73 -53l-87 -87q27 -40 27 -99q0 -82 -52.5 -126.5t-135.5 -44.5q-28 0 -61 7q-10 -13 -10 -30q0 -28 30 -31zM244 449q-44 0 -68 -23t-24 -67t24 -67t68 -23t68 23t24 67t-24 67t-68 23zM289 -86q90 0 90 65q0 34 -20.5 47.5
t-57.5 16.5l-138 11q-34 -30 -34 -79q0 -31 21 -46t72 -15h67z" />
    <glyph glyph-name="Gcommaaccent" unicode="&#x122;" horiz-adv-x="568" 
d="M280 376h235v-386h-77l-17 66q-72 -70 -163 -70q-94 0 -146.5 59.5t-52.5 162.5v283q0 101 68 162t174 61q108 0 202 -67l-46 -76q-29 18 -47 26.5t-46.5 16t-62.5 7.5q-62 0 -99.5 -38.5t-37.5 -104.5v-256q0 -69 30.5 -106t84.5 -37q83 0 132 71v136h-131v90zM287 -44
q30 0 48 -17.5t18 -52.5q0 -93 -79 -150l-41 33q35 36 30 65q-42 11 -42 59q0 30 18 46.5t48 16.5z" />
    <glyph glyph-name="gcommaaccent" unicode="&#x123;" horiz-adv-x="497" 
d="M247 583q-30 0 -48 17.5t-18 52.5q0 93 79 150l41 -33q-35 -36 -30 -65q42 -11 42 -59q0 -30 -18 -46.5t-48 -16.5zM310 124q80 -7 123.5 -37.5t43.5 -96.5q0 -72 -48.5 -111t-133.5 -39h-89q-89 0 -131.5 30.5t-42.5 94.5q0 79 81 139q-20 17 -20 51q0 36 29 68
q-66 47 -66 135q0 80 49.5 126t138.5 46q70 0 117 -29l58 97l73 -53l-87 -87q27 -40 27 -99q0 -82 -52.5 -126.5t-135.5 -44.5q-28 0 -61 7q-10 -13 -10 -30q0 -28 30 -31zM244 449q-44 0 -68 -23t-24 -67t24 -67t68 -23t68 23t24 67t-24 67t-68 23zM289 -86q90 0 90 65
q0 34 -20.5 47.5t-57.5 16.5l-138 11q-34 -30 -34 -79q0 -31 21 -46t72 -15h67z" />
    <glyph glyph-name="Hcircumflex" unicode="&#x124;" horiz-adv-x="643" 
d="M322 839l-72 -88l-85 37l101 115h112l101 -115l-85 -37zM462 700h104v-700h-104v312h-281v-312h-104v700h104v-294h281v294z" />
    <glyph glyph-name="hcircumflex" unicode="&#x125;" horiz-adv-x="533" 
d="M182 801l-72 88l-72 -88l-85 37l101 115h112l101 -115zM301 530q89 0 130 -47.5t41 -141.5v-341h-100v328q0 60 -21 86.5t-70 26.5q-32 0 -63.5 -19t-52.5 -47v-375h-100v750h100v-281q61 61 136 61z" />
    <glyph glyph-name="Hbar" unicode="&#x126;" horiz-adv-x="643" 
d="M599 601v-78h-33v-523h-104v312h-281v-312h-104v523h-32v78h32v99h104v-99h281v99h104v-99h33zM462 406v117h-281v-117h281z" />
    <glyph glyph-name="hbar" unicode="&#x127;" horiz-adv-x="533" 
d="M301 530q89 0 130 -47.5t41 -141.5v-341h-100v328q0 60 -21 86.5t-70 26.5q-32 0 -63.5 -19t-52.5 -47v-375h-100v585h-60v78h60v87h100v-87h100v-78h-100v-116q61 61 136 61z" />
    <glyph glyph-name="Itilde" unicode="&#x128;" horiz-adv-x="258" 
d="M-32 771q5 44 32 71t72 27q32 0 65.5 -14.5t49.5 -14.5q15 0 21 7.5t10 22.5l72 -16q-4 -43 -30 -70t-66 -27q-34 0 -71 14.5t-51 14.5q-26 0 -33 -31zM77 700h104v-700h-104v700z" />
    <glyph glyph-name="itilde" unicode="&#x129;" horiz-adv-x="230" 
d="M-29 604q3 43 27.5 69.5t64.5 26.5q29 0 59.5 -16.5t44.5 -16.5q24 0 30 32l62 -15q-4 -43 -27 -70.5t-59 -27.5q-30 0 -63.5 16.5t-46.5 16.5q-25 0 -32 -30zM165 520v-520h-100v520h100z" />
    <glyph glyph-name="Imacron" unicode="&#x12a;" horiz-adv-x="258" 
d="M-13 846h284v-83h-284v83zM77 700h104v-700h-104v700z" />
    <glyph glyph-name="imacron" unicode="&#x12b;" horiz-adv-x="230" 
d="M-27 679h284v-81h-284v81zM165 520v-520h-100v520h100z" />
    <glyph glyph-name="Ibreve" unicode="&#x12c;" horiz-adv-x="258" 
d="M-1 885h81q0 -60 49 -60t49 60h81v-9q0 -124 -130 -124t-130 124v9zM77 700h104v-700h-104v700z" />
    <glyph glyph-name="ibreve" unicode="&#x12d;" horiz-adv-x="230" 
d="M-13 706h81q0 -60 47 -60t47 60h81v-9q0 -63 -34.5 -93.5t-93.5 -30.5t-93.5 30.5t-34.5 93.5v9zM165 520v-520h-100v520h100z" />
    <glyph glyph-name="Iogonek" unicode="&#x12e;" horiz-adv-x="258" 
d="M171 -101l13 -68q-32 -13 -68 -13q-40 0 -65 22t-25 55q0 35 19.5 63.5t48.5 41.5h-17v700h104v-700h-9q-53 -28 -53 -70q0 -35 30 -35q10 0 22 4z" />
    <glyph glyph-name="iogonek" unicode="&#x12f;" horiz-adv-x="230" 
d="M115 597q-31 0 -49 16t-18 47t18 47.5t49 16.5q30 0 48.5 -16.5t18.5 -47.5t-18.5 -47t-48.5 -16zM139 -105q10 0 22 4l13 -68q-32 -13 -68 -13q-40 0 -65 22t-25 55q0 35 19.5 63.5t48.5 41.5h-19v520h100v-520h-3q-53 -28 -53 -70q0 -35 30 -35z" />
    <glyph glyph-name="Idotaccent" unicode="&#x130;" horiz-adv-x="258" 
d="M196 824q0 -31 -18.5 -47t-48.5 -16q-31 0 -49 16t-18 47t18 47.5t49 16.5q30 0 48.5 -16.5t18.5 -47.5zM77 700h104v-700h-104v700z" />
    <glyph glyph-name="dotlessi" unicode="&#x131;" horiz-adv-x="230" 
d="M165 520v-520h-100v520h100z" />
    <glyph glyph-name="IJ" unicode="&#x132;" horiz-adv-x="547" 
d="M77 700h104v-700h-104v700zM321 -81q45 45 45 129v652h104v-660q0 -128 -90 -190z" />
    <glyph glyph-name="ij" unicode="&#x133;" horiz-adv-x="463" 
d="M182 660q0 -31 -18.5 -47t-48.5 -16q-31 0 -49 16t-18 47t18 47.5t49 16.5q30 0 48.5 -16.5t18.5 -47.5zM415 660q0 -31 -18.5 -47t-48.5 -16q-31 0 -49 16t-18 47t18 47.5t49 16.5q30 0 48.5 -16.5t18.5 -47.5zM165 520v-520h-100v520h100zM398 520v-484
q0 -92 -51 -141.5t-147 -54.5l-14 80q60 2 86.5 33t26.5 94l-1 473h100z" />
    <glyph glyph-name="Jcircumflex" unicode="&#x134;" horiz-adv-x="258" 
d="M73 903h112l101 -115l-85 -37l-72 88l-72 -88l-85 37zM32 -81q45 45 45 129v652h104v-660q0 -128 -90 -190z" />
    <glyph glyph-name="jcircumflex" unicode="&#x135;" horiz-adv-x="238" 
d="M175 719l102 -114l-80 -37l-74 88l-74 -88l-80 37l102 114h104zM173 520v-484q0 -92 -51 -141.5t-147 -54.5l-14 80q60 2 86.5 33t26.5 94l-1 473h100z" />
    <glyph glyph-name="Kcommaaccent" unicode="&#x136;" horiz-adv-x="563" 
d="M521 73q16 0 29 5v-82q-37 -5 -57 -5q-44 0 -75 22.5t-64 80.5l-112 197l-62 -73v-218h-103v700h103v-339l234 339h125l-230 -322l152 -264q23 -41 60 -41zM281 -44q30 0 48 -17.5t18 -52.5q0 -93 -79 -150l-41 33q35 36 30 65q-42 11 -42 59q0 30 18 46.5t48 16.5z" />
    <glyph glyph-name="kcommaaccent" unicode="&#x137;" horiz-adv-x="504" 
d="M454 71q20 0 35 5l-1 -80q-34 -6 -61 -6q-45 0 -78.5 23t-64.5 81l-65 135l-54 -59v-170h-100v750h100v-460l191 230h118l-186 -215l97 -192q21 -42 69 -42zM249 -44q30 0 48 -17.5t18 -52.5q0 -93 -79 -150l-41 33q35 36 30 65q-42 11 -42 59q0 30 18 46.5t48 16.5z" />
    <glyph glyph-name="kgreenlandic" unicode="&#x138;" horiz-adv-x="496" 
d="M448 71q16 0 31 5l-1 -80q-35 -6 -61 -6q-44 0 -74 22.5t-59 81.5l-62 128l-57 -69v-153h-100v520h100v-230l186 230h121l-183 -218l96 -189q23 -42 63 -42z" />
    <glyph glyph-name="Lacute" unicode="&#x139;" horiz-adv-x="497" 
d="M176 938l59 -89l-175 -100l-42 63zM181 94h301v-94h-405v700h104v-606z" />
    <glyph glyph-name="lacute" unicode="&#x13a;" horiz-adv-x="230" 
d="M182 978l59 -89l-175 -100l-42 63zM65 0v750h100v-750h-100z" />
    <glyph glyph-name="Lcommaaccent" unicode="&#x13b;" horiz-adv-x="497" 
d="M181 94h301v-94h-405v700h104v-606zM301 -44q30 0 48 -17.5t18 -52.5q0 -93 -79 -150l-41 33q35 36 30 65q-42 11 -42 59q0 30 18 46.5t48 16.5z" />
    <glyph glyph-name="lcommaaccent" unicode="&#x13c;" horiz-adv-x="230" 
d="M65 0v750h100v-750h-100zM61 -231q35 36 30 65q-42 11 -42 59q0 30 18 46.5t48 16.5t48 -17.5t18 -52.5q0 -93 -79 -150z" />
    <glyph glyph-name="Lcaron" unicode="&#x13d;" horiz-adv-x="501" 
d="M354 610q-42 11 -42 59q0 30 18 46.5t48 16.5t48 -17.5t18 -52.5q0 -93 -79 -150l-41 33q35 36 30 65zM181 94h301v-94h-405v700h104v-606z" />
    <glyph glyph-name="lcaron" unicode="&#x13e;" horiz-adv-x="238" 
d="M220 585q35 36 30 65q-42 11 -42 59q0 30 18 46.5t48 16.5t48 -17.5t18 -52.5q0 -93 -79 -150zM65 0v750h100v-750h-100z" />
    <glyph glyph-name="Ldot" unicode="&#x13f;" horiz-adv-x="498" 
d="M181 94h301v-94h-405v700h104v-606zM364 332q-30 0 -48 16t-18 46t18 46.5t48 16.5q29 0 47.5 -16.5t18.5 -46.5t-18 -46t-48 -16z" />
    <glyph glyph-name="ldot" unicode="&#x140;" horiz-adv-x="378" 
d="M65 0v750h100v-750h-100zM302 462q29 0 47.5 -16.5t18.5 -46.5t-18 -46t-48 -16t-48 16t-18 46t18 46.5t48 16.5z" />
    <glyph glyph-name="Lslash" unicode="&#x141;" horiz-adv-x="524" 
d="M208 94h301v-94h-405v293l-75 -34l-29 90l104 47v304h104v-257l85 39l35 -87l-120 -55v-246z" />
    <glyph glyph-name="lslash" unicode="&#x142;" horiz-adv-x="285" 
d="M256 363l-63 -26v-337h-100v297l-36 -15l-34 84l70 29v355h100v-313l25 11z" />
    <glyph glyph-name="Nacute" unicode="&#x143;" horiz-adv-x="623" 
d="M417 849l-175 -100l-42 63l158 126zM442 700h104v-700h-95l-277 508l6 -508h-103v700h95l277 -515z" />
    <glyph glyph-name="nacute" unicode="&#x144;" horiz-adv-x="533" 
d="M390 677l-135 -121l-54 55l114 140zM303 530q169 0 169 -192v-338h-100v325q0 61 -20 88.5t-70 27.5q-32 0 -64 -20t-53 -49v-372h-100v520h86l9 -56q64 66 143 66z" />
    <glyph glyph-name="Ncommaaccent" unicode="&#x145;" horiz-adv-x="623" 
d="M442 700h104v-700h-95l-277 508l6 -508h-103v700h95l277 -515zM316 -44q30 0 48 -17.5t18 -52.5q0 -93 -79 -150l-41 33q35 36 30 65q-42 11 -42 59q0 30 18 46.5t48 16.5z" />
    <glyph glyph-name="ncommaaccent" unicode="&#x146;" horiz-adv-x="533" 
d="M303 530q169 0 169 -192v-338h-100v325q0 61 -20 88.5t-70 27.5q-32 0 -64 -20t-53 -49v-372h-100v520h86l9 -56q64 66 143 66zM268 -44q30 0 48 -17.5t18 -52.5q0 -93 -79 -150l-41 33q35 36 30 65q-42 11 -42 59q0 30 18 46.5t48 16.5z" />
    <glyph glyph-name="Ncaron" unicode="&#x147;" horiz-adv-x="623" 
d="M367 751h-112l-101 115l85 37l72 -88l72 88l85 -37zM442 700h104v-700h-95l-277 508l6 -508h-103v700h95l277 -515z" />
    <glyph glyph-name="ncaron" unicode="&#x148;" horiz-adv-x="533" 
d="M327 573h-112l-101 115l85 37l72 -88l72 88l85 -37zM303 530q169 0 169 -192v-338h-100v325q0 61 -20 88.5t-70 27.5q-32 0 -64 -20t-53 -49v-372h-100v520h86l9 -56q64 66 143 66z" />
    <glyph glyph-name="napostrophe" unicode="&#x149;" horiz-adv-x="533" 
d="M-35 546l-12 195h95l-13 -195h-70zM303 530q169 0 169 -192v-338h-100v325q0 61 -20 88.5t-70 27.5q-32 0 -64 -20t-53 -49v-372h-100v520h86l9 -56q64 66 143 66z" />
    <glyph glyph-name="Eng" unicode="&#x14a;" horiz-adv-x="640" 
d="M77 700h98l287 -494l-2 494h103v-700q1 -170 -171 -180l-15 80q88 8 88 91v7l-288 494l3 -492h-103v700z" />
    <glyph glyph-name="eng" unicode="&#x14b;" horiz-adv-x="533" 
d="M303 530q169 0 169 -192v-302q0 -92 -51 -141.5t-147 -54.5l-13 80q58 2 83.5 30.5t27.5 87.5v287q0 61 -20 88.5t-70 27.5q-32 0 -64 -20t-53 -49v-372h-100v520h86l9 -56q64 66 143 66z" />
    <glyph glyph-name="Omacron" unicode="&#x14c;" horiz-adv-x="616" 
d="M165 846h284v-83h-284v83zM308 -14q-109 0 -181.5 61t-72.5 163v281q0 101 72.5 162t181.5 61t181.5 -61t72.5 -162v-281q0 -102 -72.5 -163t-181.5 -61zM308 80q66 0 108 37.5t42 105.5v255q0 67 -42 104.5t-108 37.5q-65 0 -107.5 -37.5t-42.5 -104.5v-255
q0 -68 42.5 -105.5t107.5 -37.5z" />
    <glyph glyph-name="omacron" unicode="&#x14d;" horiz-adv-x="515" 
d="M115 679h284v-81h-284v81zM48 322q0 97 56 152.5t154 55.5t153.5 -55.5t55.5 -152.5v-124q0 -97 -56 -152.5t-153 -55.5q-98 0 -154 55.5t-56 152.5v124zM148 207q0 -64 28.5 -97.5t81.5 -33.5t81 33.5t28 97.5v106q0 64 -28 97.5t-81 33.5t-81.5 -33.5t-28.5 -97.5v-106
z" />
    <glyph glyph-name="Obreve" unicode="&#x14e;" horiz-adv-x="616" 
d="M177 885h81q0 -60 49 -60t49 60h81v-9q0 -124 -130 -124t-130 124v9zM308 -14q-109 0 -181.5 61t-72.5 163v281q0 101 72.5 162t181.5 61t181.5 -61t72.5 -162v-281q0 -102 -72.5 -163t-181.5 -61zM308 80q66 0 108 37.5t42 105.5v255q0 67 -42 104.5t-108 37.5
q-65 0 -107.5 -37.5t-42.5 -104.5v-255q0 -68 42.5 -105.5t107.5 -37.5z" />
    <glyph glyph-name="obreve" unicode="&#x14f;" horiz-adv-x="515" 
d="M129 706h81q0 -60 47 -60t47 60h81v-9q0 -63 -34.5 -93.5t-93.5 -30.5t-93.5 30.5t-34.5 93.5v9zM48 322q0 97 56 152.5t154 55.5t153.5 -55.5t55.5 -152.5v-124q0 -97 -56 -152.5t-153 -55.5q-98 0 -154 55.5t-56 152.5v124zM148 207q0 -64 28.5 -97.5t81.5 -33.5
t81 33.5t28 97.5v106q0 64 -28 97.5t-81 33.5t-81.5 -33.5t-28.5 -97.5v-106z" />
    <glyph glyph-name="Ohungarumlaut" unicode="&#x150;" horiz-adv-x="616" 
d="M228 932l71 -72l-131 -116l-49 49zM424 932l71 -72l-131 -116l-49 49zM308 -14q-109 0 -181.5 61t-72.5 163v281q0 101 72.5 162t181.5 61t181.5 -61t72.5 -162v-281q0 -102 -72.5 -163t-181.5 -61zM308 80q66 0 108 37.5t42 105.5v255q0 67 -42 104.5t-108 37.5
q-65 0 -107.5 -37.5t-42.5 -104.5v-255q0 -68 42.5 -105.5t107.5 -37.5z" />
    <glyph glyph-name="ohungarumlaut" unicode="&#x151;" horiz-adv-x="515" 
d="M210 748l88 -61l-114 -135l-61 42zM382 748l88 -61l-114 -135l-61 42zM48 322q0 97 56 152.5t154 55.5t153.5 -55.5t55.5 -152.5v-124q0 -97 -56 -152.5t-153 -55.5q-98 0 -154 55.5t-56 152.5v124zM148 207q0 -64 28.5 -97.5t81.5 -33.5t81 33.5t28 97.5v106
q0 64 -28 97.5t-81 33.5t-81.5 -33.5t-28.5 -97.5v-106z" />
    <glyph glyph-name="OE" unicode="&#x152;" horiz-adv-x="887" 
d="M542 94h304v-94h-408v37q-64 -51 -153 -51q-95 0 -163 61.5t-68 162.5v281q0 100 68 161.5t163 61.5q89 0 153 -51v37h401v-95h-297v-202h248v-93h-248v-216zM298 80q61 0 100.5 33.5t39.5 95.5v280q0 61 -38 96t-102 35q-60 0 -100 -37.5t-40 -104.5v-255
q0 -68 39.5 -105.5t100.5 -37.5z" />
    <glyph glyph-name="oe" unicode="&#x153;" horiz-adv-x="809" 
d="M467 229v-24q0 -128 103 -128q73 0 147 46l38 -70q-83 -63 -190 -63q-97 0 -149 60q-55 -60 -158 -60q-98 0 -154 55.5t-56 152.5v124q0 97 56 152.5t154 55.5q103 0 159 -61q55 61 152 61q93 0 146 -55.5t53 -152.5v-93h-301zM367 207v106q0 64 -28 97.5t-81 33.5
t-81.5 -33.5t-28.5 -97.5v-106q0 -64 28.5 -97.5t81.5 -33.5t81 33.5t28 97.5zM569 443q-102 0 -102 -129v-12h203v12q0 129 -101 129z" />
    <glyph glyph-name="Racute" unicode="&#x154;" horiz-adv-x="589" 
d="M406 849l-175 -100l-42 63l158 126zM517 74q18 0 35 5v-83q-28 -6 -65 -6q-45 0 -73.5 22t-56.5 82l-83 178q-55 3 -93 14v-286h-104v700h251q97 0 155.5 -55.5t58.5 -141.5v-36q0 -75 -44 -124t-117 -65l81 -164q19 -40 55 -40zM181 605v-227q57 -15 121 -15
q70 0 102.5 32t32.5 85v11q0 51 -29 82.5t-80 31.5h-147z" />
    <glyph glyph-name="racute" unicode="&#x155;" horiz-adv-x="337" 
d="M317 677l-135 -121l-54 55l114 140zM319 423q-93 0 -154 -61v-362h-100v520h86l10 -62q28 33 68.5 52.5t81.5 19.5z" />
    <glyph glyph-name="Rcommaaccent" unicode="&#x156;" horiz-adv-x="589" 
d="M517 74q18 0 35 5v-83q-28 -6 -65 -6q-45 0 -73.5 22t-56.5 82l-83 178q-55 3 -93 14v-286h-104v700h251q97 0 155.5 -55.5t58.5 -141.5v-36q0 -75 -44 -124t-117 -65l81 -164q19 -40 55 -40zM181 605v-227q57 -15 121 -15q70 0 102.5 32t32.5 85v11q0 51 -29 82.5
t-80 31.5h-147zM290 -44q30 0 48 -17.5t18 -52.5q0 -93 -79 -150l-41 33q35 36 30 65q-42 11 -42 59q0 30 18 46.5t48 16.5z" />
    <glyph glyph-name="rcommaaccent" unicode="&#x157;" horiz-adv-x="337" 
d="M165 362v-362h-100v520h86l10 -62q28 33 68.5 52.5t81.5 19.5l8 -107q-93 0 -154 -61zM119 -44q30 0 48 -17.5t18 -52.5q0 -93 -79 -150l-41 33q35 36 30 65q-42 11 -42 59q0 30 18 46.5t48 16.5z" />
    <glyph glyph-name="Rcaron" unicode="&#x158;" horiz-adv-x="589" 
d="M356 751h-112l-101 115l85 37l72 -88l72 88l85 -37zM517 74q18 0 35 5v-83q-28 -6 -65 -6q-45 0 -73.5 22t-56.5 82l-83 178q-55 3 -93 14v-286h-104v700h251q97 0 155.5 -55.5t58.5 -141.5v-36q0 -75 -44 -124t-117 -65l81 -164q19 -40 55 -40zM181 605v-227
q57 -15 121 -15q70 0 102.5 32t32.5 85v11q0 51 -29 82.5t-80 31.5h-147z" />
    <glyph glyph-name="rcaron" unicode="&#x159;" horiz-adv-x="337" 
d="M254 573h-112l-101 115l85 37l72 -88l72 88l85 -37zM161 458q28 33 68.5 52.5t81.5 19.5l8 -107q-93 0 -154 -61v-362h-100v520h86z" />
    <glyph glyph-name="Sacute" unicode="&#x15a;" horiz-adv-x="518" 
d="M308 938l59 -89l-175 -100l-42 63zM74 133q84 -52 169 -52q64 0 100.5 29.5t36.5 78.5q0 53 -32 79.5t-101 40.5q-95 19 -146 65.5t-51 143.5q0 87 58.5 141.5t157.5 53.5q106 -1 197 -61l-46 -78q-80 45 -153 45q-55 0 -84 -27t-29 -71q0 -55 30.5 -79t96.5 -37
q44 -9 76 -21.5t63.5 -35t48.5 -61t17 -90.5q0 -94 -61.5 -152.5t-174.5 -58.5q-131 0 -219 64z" />
    <glyph glyph-name="sacute" unicode="&#x15b;" horiz-adv-x="452" 
d="M280 751l75 -74l-135 -121l-54 55zM68 116q73 -43 149 -43q47 0 72 19t25 49q0 36 -23 52.5t-81 27.5q-36 7 -60.5 15t-50 25t-39 47t-13.5 72q0 68 46 109t133 41q99 0 181 -54l-39 -72q-74 43 -139 43q-42 0 -62 -17t-20 -44q0 -14 5 -25t11.5 -17.5t21 -12t25 -8.5
t32.5 -8q8 -2 13 -3q37 -9 60 -17.5t48.5 -26.5t38 -48.5t12.5 -73.5q0 -71 -50.5 -113.5t-140.5 -42.5q-112 0 -192 54z" />
    <glyph glyph-name="Scircumflex" unicode="&#x15c;" horiz-adv-x="518" 
d="M205 903h112l101 -115l-85 -37l-72 88l-72 -88l-85 37zM74 133q84 -52 169 -52q64 0 100.5 29.5t36.5 78.5q0 53 -32 79.5t-101 40.5q-95 19 -146 65.5t-51 143.5q0 87 58.5 141.5t157.5 53.5q106 -1 197 -61l-46 -78q-80 45 -153 45q-55 0 -84 -27t-29 -71
q0 -55 30.5 -79t96.5 -37q44 -9 76 -21.5t63.5 -35t48.5 -61t17 -90.5q0 -94 -61.5 -152.5t-174.5 -58.5q-131 0 -219 64z" />
    <glyph glyph-name="scircumflex" unicode="&#x15d;" horiz-adv-x="452" 
d="M288 719l102 -114l-80 -37l-74 88l-74 -88l-80 37l102 114h104zM68 116q73 -43 149 -43q47 0 72 19t25 49q0 36 -23 52.5t-81 27.5q-36 7 -60.5 15t-50 25t-39 47t-13.5 72q0 68 46 109t133 41q99 0 181 -54l-39 -72q-74 43 -139 43q-42 0 -62 -17t-20 -44q0 -14 5 -25
t11.5 -17.5t21 -12t25 -8.5t32.5 -8q8 -2 13 -3q37 -9 60 -17.5t48.5 -26.5t38 -48.5t12.5 -73.5q0 -71 -50.5 -113.5t-140.5 -42.5q-112 0 -192 54z" />
    <glyph glyph-name="Scedilla" unicode="&#x15e;" horiz-adv-x="518" 
d="M483 197q0 -84 -49.5 -140.5t-142.5 -67.5l-8 -24q61 -8 61 -69q0 -42 -30 -60t-73 -18q-36 0 -63 10l5 55q17 -5 37 -5q36 0 36 29q0 15 -14 22t-28 7h-13l20 51q-116 7 -193 63l46 83q84 -52 169 -52q64 0 100.5 29.5t36.5 78.5q0 53 -32 79.5t-101 40.5
q-95 19 -146 65.5t-51 143.5q0 87 58.5 141.5t157.5 53.5q106 -1 197 -61l-46 -78q-80 45 -153 45q-55 0 -84 -27t-29 -71q0 -55 30.5 -79t96.5 -37q44 -9 76 -21.5t63.5 -35t48.5 -61t17 -90.5z" />
    <glyph glyph-name="scedilla" unicode="&#x15f;" horiz-adv-x="452" 
d="M414 146q0 -62 -39 -102.5t-111 -50.5l-9 -28q61 -8 61 -69q0 -42 -30 -60t-73 -18q-36 0 -63 10l5 55q17 -5 37 -5q36 0 36 29q0 15 -14 22t-28 7h-13l21 55q-95 7 -163 53l37 72q73 -43 149 -43q47 0 72 19t25 49q0 36 -23 52.5t-81 27.5q-36 7 -60.5 15t-50 25t-39 47
t-13.5 72q0 68 46 109t133 41q99 0 181 -54l-39 -72q-74 43 -139 43q-42 0 -62 -17t-20 -44q0 -14 5 -25t11.5 -17.5t21 -12t25 -8.5t32.5 -8q8 -2 13 -3q37 -9 60 -17.5t48.5 -26.5t38 -48.5t12.5 -73.5z" />
    <glyph glyph-name="Scaron" unicode="&#x160;" horiz-adv-x="518" 
d="M205 751l-101 115l85 37l72 -88l72 88l85 -37l-101 -115h-112zM74 133q84 -52 169 -52q64 0 100.5 29.5t36.5 78.5q0 53 -32 79.5t-101 40.5q-95 19 -146 65.5t-51 143.5q0 87 58.5 141.5t157.5 53.5q106 -1 197 -61l-46 -78q-80 45 -153 45q-55 0 -84 -27t-29 -71
q0 -55 30.5 -79t96.5 -37q44 -9 76 -21.5t63.5 -35t48.5 -61t17 -90.5q0 -94 -61.5 -152.5t-174.5 -58.5q-131 0 -219 64z" />
    <glyph glyph-name="scaron" unicode="&#x161;" horiz-adv-x="452" 
d="M180 573l-101 115l85 37l72 -88l72 88l85 -37l-101 -115h-112zM68 116q73 -43 149 -43q47 0 72 19t25 49q0 36 -23 52.5t-81 27.5q-36 7 -60.5 15t-50 25t-39 47t-13.5 72q0 68 46 109t133 41q99 0 181 -54l-39 -72q-74 43 -139 43q-42 0 -62 -17t-20 -44q0 -14 5 -25
t11.5 -17.5t21 -12t25 -8.5t32.5 -8q8 -2 13 -3q37 -9 60 -17.5t48.5 -26.5t38 -48.5t12.5 -73.5q0 -71 -50.5 -113.5t-140.5 -42.5q-112 0 -192 54z" />
    <glyph glyph-name="uni0162" unicode="&#x162;" horiz-adv-x="501" 
d="M303 0h-20l-12 -35q26 -3 43.5 -19t17.5 -45q0 -42 -30.5 -60.5t-72.5 -18.5q-36 0 -63 10l5 51q17 -5 37 -5q36 0 36 29q0 15 -14 22t-28 7h-13l25 64h-15v606h-185v94h473v-94h-184v-606z" />
    <glyph glyph-name="uni0163" unicode="&#x163;" horiz-adv-x="363" 
d="M246 -35q61 -8 61 -69q0 -42 -30 -60t-73 -18q-36 0 -63 10l5 55q17 -5 37 -5q36 0 36 29q0 15 -13.5 22t-27.5 7h-14l23 58q-54 13 -76.5 54t-22.5 119v270h-65v83h68l22 99h74v-99h152v-83h-152v-260q0 -59 15.5 -82t62.5 -23q45 0 69 14l15 -79q-38 -20 -95 -20z" />
    <glyph glyph-name="Tcaron" unicode="&#x164;" horiz-adv-x="501" 
d="M306 751h-112l-101 115l85 37l72 -88l72 88l85 -37zM487 700v-94h-184v-606h-104v606h-185v94h473z" />
    <glyph glyph-name="tcaron" unicode="&#x165;" horiz-adv-x="363" 
d="M274 635q-42 11 -42 59q0 30 18 46.5t48 16.5t48 -17.5t18 -52.5q0 -93 -79 -150l-41 33q35 36 30 65zM265 72q45 0 69 14l15 -79q-38 -20 -96 -20q-91 0 -128 41t-37 139v270h-65v83h68l22 99h74v-99h152v-83h-152v-260q0 -59 15.5 -82t62.5 -23z" />
    <glyph glyph-name="Tbar" unicode="&#x166;" horiz-adv-x="525" 
d="M499 606h-184v-224h131v-78h-131v-304h-104v304h-134v78h134v224h-185v94h473v-94z" />
    <glyph glyph-name="tbar" unicode="&#x167;" horiz-adv-x="367" 
d="M336 86l15 -79q-38 -20 -96 -20q-91 0 -128 41t-37 139v85h-55v78h55v107h-65v83h68l22 99h74v-99h152v-83h-152v-107h148v-78h-148v-75q0 -59 15.5 -82t62.5 -23q45 0 69 14z" />
    <glyph glyph-name="Utilde" unicode="&#x168;" horiz-adv-x="617" 
d="M249 786q-26 0 -33 -31l-71 16q5 44 32 71t72 27q32 0 65.5 -14.5t49.5 -14.5q15 0 21 7.5t10 22.5l72 -16q-4 -43 -30 -70t-66 -27q-34 0 -71 14.5t-51 14.5zM435 700h105l-1 -700h-89l-12 61q-69 -75 -168 -75q-198 0 -198 209v505h105v-491q0 -69 27 -100t86 -31
q44 0 84 23.5t61 56.5v542z" />
    <glyph glyph-name="utilde" unicode="&#x169;" horiz-adv-x="530" 
d="M208 619q-29 0 -36 -30l-67 15q4 43 31 69.5t72 26.5q32 0 65.5 -16.5t49.5 -16.5q27 0 33 32l69 -15q-4 -42 -29.5 -70t-65.5 -28q-34 0 -71 16.5t-51 16.5zM365 520h100v-520h-85l-11 55q-67 -65 -145 -65q-86 0 -123.5 50t-37.5 150v330h100v-316q0 -67 18 -97.5
t65 -30.5q70 0 119 70v374z" />
    <glyph glyph-name="Umacron" unicode="&#x16a;" horiz-adv-x="617" 
d="M448 846v-83h-284v83h284zM435 700h105l-1 -700h-89l-12 61q-69 -75 -168 -75q-198 0 -198 209v505h105v-491q0 -69 27 -100t86 -31q44 0 84 23.5t61 56.5v542z" />
    <glyph glyph-name="umacron" unicode="&#x16b;" horiz-adv-x="530" 
d="M407 679v-81h-284v81h284zM365 520h100v-520h-85l-11 55q-67 -65 -145 -65q-86 0 -123.5 50t-37.5 150v330h100v-316q0 -67 18 -97.5t65 -30.5q70 0 119 70v374z" />
    <glyph glyph-name="Ubreve" unicode="&#x16c;" horiz-adv-x="617" 
d="M306 752q-130 0 -130 124v9h81q0 -60 49 -60t49 60h81v-9q0 -124 -130 -124zM435 700h105l-1 -700h-89l-12 61q-69 -75 -168 -75q-198 0 -198 209v505h105v-491q0 -69 27 -100t86 -31q44 0 84 23.5t61 56.5v542z" />
    <glyph glyph-name="ubreve" unicode="&#x16d;" horiz-adv-x="530" 
d="M265 573q-59 0 -93.5 30.5t-34.5 93.5v9h81q0 -60 47 -60t47 60h81v-9q0 -63 -34.5 -93.5t-93.5 -30.5zM365 520h100v-520h-85l-11 55q-67 -65 -145 -65q-86 0 -123.5 50t-37.5 150v330h100v-316q0 -67 18 -97.5t65 -30.5q70 0 119 70v374z" />
    <glyph glyph-name="Uring" unicode="&#x16e;" horiz-adv-x="617" 
d="M306 726q-42 0 -66.5 23.5t-24.5 64.5v10q0 40 25 64t66 24t66 -24t25 -64v-10q0 -41 -24.5 -64.5t-66.5 -23.5zM306 858q-35 0 -35 -40q0 -39 35 -39t35 39q0 40 -35 40zM435 700h105l-1 -700h-89l-12 61q-69 -75 -168 -75q-198 0 -198 209v505h105v-491q0 -69 27 -100
t86 -31q44 0 84 23.5t61 56.5v542z" />
    <glyph glyph-name="uring" unicode="&#x16f;" horiz-adv-x="530" 
d="M263 558q-39 0 -63 23t-24 64v10q0 39 24 63t63 24q40 0 65 -24t25 -63v-10q0 -41 -25 -64t-65 -23zM263 690q-33 0 -33 -41q0 -40 33 -40q36 0 36 40q0 41 -36 41zM365 520h100v-520h-85l-11 55q-67 -65 -145 -65q-86 0 -123.5 50t-37.5 150v330h100v-316
q0 -67 18 -97.5t65 -30.5q70 0 119 70v374z" />
    <glyph glyph-name="Uhungarumlaut" unicode="&#x170;" horiz-adv-x="617" 
d="M298 860l-131 -116l-49 49l109 139zM494 860l-131 -116l-49 49l109 139zM435 700h105l-1 -700h-89l-12 61q-69 -75 -168 -75q-198 0 -198 209v505h105v-491q0 -69 27 -100t86 -31q44 0 84 23.5t61 56.5v542z" />
    <glyph glyph-name="uhungarumlaut" unicode="&#x171;" horiz-adv-x="530" 
d="M300 687l-114 -135l-61 42l87 154zM358 552l-61 42l87 154l88 -61zM365 146v374h100v-520h-85l-11 55q-67 -65 -145 -65q-86 0 -123.5 50t-37.5 150v330h100v-316q0 -67 18 -97.5t65 -30.5q70 0 119 70z" />
    <glyph glyph-name="Uogonek" unicode="&#x172;" horiz-adv-x="617" 
d="M528 -101l13 -68q-32 -13 -69 -13q-40 0 -64.5 21.5t-24.5 56.5q0 66 73 104h-6l-12 61q-69 -75 -168 -75q-198 0 -198 209v505h105v-491q0 -69 27 -100t86 -31q44 0 84 23.5t61 56.5v542h105l-1 -700q-31 -5 -47 -26t-16 -45q0 -16 8.5 -25t19.5 -9q15 0 24 4z" />
    <glyph glyph-name="uogonek" unicode="&#x173;" horiz-adv-x="530" 
d="M472 -101l13 -68q-32 -13 -68 -13q-45 0 -71.5 23t-26.5 64q0 31 19.5 57t48.5 38h-7l-11 55q-67 -65 -145 -65q-86 0 -123.5 50t-37.5 150v330h100v-316q0 -67 18 -97.5t65 -30.5q70 0 119 70v374h100v-520q-53 -28 -53 -70q0 -18 9.5 -27t23.5 -9t27 5z" />
    <glyph glyph-name="Wcircumflex" unicode="&#x174;" horiz-adv-x="884" 
d="M386 903h112l101 -115l-85 -37l-72 88l-72 -88l-85 37zM205 0l-201 700h109l144 -572l131 572h109l132 -572l143 572h108l-201 -700h-105l-132 558l-131 -558h-106z" />
    <glyph glyph-name="wcircumflex" unicode="&#x175;" horiz-adv-x="743" 
d="M424 719l102 -114l-80 -37l-74 88l-74 -88l-80 37l102 114h104zM165 0l-153 520h104l100 -393l103 393h104l107 -391l99 391h103l-154 -520h-100l-109 390l-104 -390h-100z" />
    <glyph glyph-name="Ycircumflex" unicode="&#x176;" horiz-adv-x="533" 
d="M266 839l-72 -88l-85 37l101 115h112l101 -115l-85 -37zM416 700h115l-212 -446v-254h-105v253l-213 447h115l151 -338z" />
    <glyph glyph-name="ycircumflex" unicode="&#x177;" horiz-adv-x="477" 
d="M248 656l-74 -88l-80 37l102 114h104l102 -114l-80 -37zM364 520h105l-162 -450l-19 -52l-62 -169h-103l69 173l-180 498h106l125 -379z" />
    <glyph glyph-name="Ydieresis" unicode="&#x178;" horiz-adv-x="533" 
d="M157 752q-26 0 -40.5 16t-14.5 42q0 28 14.5 44.5t40.5 16.5q27 0 42 -16.5t15 -44.5q0 -26 -15 -42t-42 -16zM372 752q-26 0 -40.5 16t-14.5 42q0 28 14.5 44.5t40.5 16.5q27 0 42 -16.5t15 -44.5q0 -26 -15 -42t-42 -16zM416 700h115l-212 -446v-254h-105v253l-213 447
h115l151 -338z" />
    <glyph glyph-name="Zacute" unicode="&#x179;" horiz-adv-x="533" 
d="M373 849l-175 -100l-42 63l158 126zM166 94h336v-94h-469l-1 69l325 537h-314v94h444v-71z" />
    <glyph glyph-name="zacute" unicode="&#x17a;" horiz-adv-x="460" 
d="M349 677l-135 -121l-54 55l114 140zM155 86h272v-86h-391v69l257 365h-251v86h373v-64z" />
    <glyph glyph-name="Zdotaccent" unicode="&#x17b;" horiz-adv-x="533" 
d="M267 761q-31 0 -49 16t-18 47t18 47.5t49 16.5q30 0 48.5 -16.5t18.5 -47.5t-18.5 -47t-48.5 -16zM166 94h336v-94h-469l-1 69l325 537h-314v94h444v-71z" />
    <glyph glyph-name="zdotaccent" unicode="&#x17c;" horiz-adv-x="460" 
d="M229 597q-31 0 -49 16t-18 47t18 47.5t49 16.5q30 0 48.5 -16.5t18.5 -47.5t-18.5 -47t-48.5 -16zM155 86h272v-86h-391v69l257 365h-251v86h373v-64z" />
    <glyph glyph-name="Zcaron" unicode="&#x17d;" horiz-adv-x="533" 
d="M323 751h-112l-101 115l85 37l72 -88l72 88l85 -37zM166 94h336v-94h-469l-1 69l325 537h-314v94h444v-71z" />
    <glyph glyph-name="zcaron" unicode="&#x17e;" horiz-adv-x="460" 
d="M285 573h-112l-101 115l85 37l72 -88l72 88l85 -37zM155 86h272v-86h-391v69l257 365h-251v86h373v-64z" />
    <glyph glyph-name="longs" unicode="&#x17f;" horiz-adv-x="275" 
d="M89 436h-58v84h58v41q0 195 172 195q40 0 87 -15l-16 -81q-35 10 -63 10q-44 0 -62 -27.5t-18 -92.5v-550h-99z" />
    <glyph glyph-name="uni018F" unicode="&#x18f;" horiz-adv-x="607" 
d="M299 -14q-109 0 -181.5 61t-72.5 162v172l404 -1v97q0 68 -42 105.5t-108 37.5q-49 0 -86.5 -24.5t-53.5 -70.5l-103 26q23 76 89 119.5t154 43.5q109 0 181.5 -61t72.5 -163v-281q0 -101 -72.5 -162t-181.5 -61zM299 80q66 0 108 37.5t42 104.5v65h-300v-65
q0 -67 42.5 -104.5t107.5 -37.5z" />
    <glyph glyph-name="florin" unicode="&#x192;" horiz-adv-x="392" 
d="M336 625q-60 0 -93 -38.5t-35 -108.5h146l-12 -87h-134v-348q0 -94 -60 -148.5t-155 -54.5q-25 0 -35 3l13 83q5 -1 17 -1q52 0 88 35.5t36 98.5l1 332h-78l13 87h65v8q0 103 63 164.5t165 61.5q21 0 38 -5l-15 -84q-8 2 -28 2z" />
    <glyph glyph-name="uni019D" unicode="&#x19d;" horiz-adv-x="622" 
d="M442 700h103v-700h-95l-276 506l6 -506q1 -170 -176 -180l-15 80q88 8 88 91v709h95l277 -514z" />
    <glyph glyph-name="Gcaron" unicode="&#x1e6;" horiz-adv-x="568" 
d="M343 751h-112l-101 115l85 37l72 -88l72 88l85 -37zM280 376h235v-386h-77l-17 66q-72 -70 -163 -70q-94 0 -146.5 59.5t-52.5 162.5v283q0 101 68 162t174 61q108 0 202 -67l-46 -76q-29 18 -47 26.5t-46.5 16t-62.5 7.5q-62 0 -99.5 -38.5t-37.5 -104.5v-256
q0 -69 30.5 -106t84.5 -37q83 0 132 71v136h-131v90z" />
    <glyph glyph-name="gcaron" unicode="&#x1e7;" horiz-adv-x="497" 
d="M298 573h-112l-101 115l85 37l72 -88l72 88l85 -37zM310 124q80 -7 123.5 -37.5t43.5 -96.5q0 -72 -48.5 -111t-133.5 -39h-89q-89 0 -131.5 30.5t-42.5 94.5q0 79 81 139q-20 17 -20 51q0 36 29 68q-66 47 -66 135q0 80 49.5 126t138.5 46q70 0 117 -29l58 97l73 -53
l-87 -87q27 -40 27 -99q0 -82 -52.5 -126.5t-135.5 -44.5q-28 0 -61 7q-10 -13 -10 -30q0 -28 30 -31zM244 449q-44 0 -68 -23t-24 -67t24 -67t68 -23t68 23t24 67t-24 67t-68 23zM289 -86q90 0 90 65q0 34 -20.5 47.5t-57.5 16.5l-138 11q-34 -30 -34 -79q0 -31 21 -46
t72 -15h67z" />
    <glyph glyph-name="uni01EA" unicode="&#x1ea;" horiz-adv-x="616" 
d="M308 714q109 0 181.5 -61t72.5 -162v-281q0 -85 -51.5 -142t-134.5 -75q-41 -25 -41 -63q0 -35 29 -35q14 0 23 4l13 -68q-28 -13 -69 -13q-39 0 -64 21t-25 58q0 55 45 90q-101 6 -167 66.5t-66 156.5v281q0 101 72.5 162t181.5 61zM458 223v255q0 67 -42 104.5
t-108 37.5q-65 0 -107.5 -37.5t-42.5 -104.5v-255q0 -68 42.5 -105.5t107.5 -37.5q66 0 108 37.5t42 105.5z" />
    <glyph glyph-name="uni01EB" unicode="&#x1eb;" horiz-adv-x="515" 
d="M258 530q98 0 153.5 -55.5t55.5 -152.5v-124q0 -77 -35 -128t-99 -70q-43 -25 -43 -64q0 -35 29 -35q14 0 23 4l13 -68q-28 -13 -69 -13q-39 0 -64 21t-25 58q0 52 43 88q-90 5 -141 59.5t-51 147.5v124q0 97 56 152.5t154 55.5zM367 207v106q0 64 -28 97.5t-81 33.5
t-81.5 -33.5t-28.5 -97.5v-106q0 -64 28.5 -97.5t81.5 -33.5t81 33.5t28 97.5z" />
    <glyph glyph-name="Aringacute" unicode="&#x1fa;" horiz-adv-x="567" 
d="M283 726q-42 0 -66.5 23.5t-24.5 64.5v10q0 40 25 64t66 24q19 0 36 -6l129 103l59 -89l-135 -77q2 -12 2 -19v-10q0 -41 -24.5 -64.5t-66.5 -23.5zM283 858q-35 0 -35 -40q0 -39 35 -39t35 39q0 40 -35 40zM337 700l226 -700h-114l-55 189q-111 -19 -222 0l-54 -189
h-114l225 700h108zM196 273q88 -18 174 0l-87 302z" />
    <glyph glyph-name="aringacute" unicode="&#x1fb;" horiz-adv-x="484" 
d="M225 558q-39 0 -63 23t-24 64v10q0 39 24 63t63 24q9 0 21 -2l90 110l81 -80l-104 -93q2 -14 2 -22v-10q0 -41 -25 -64t-65 -23zM225 690q-33 0 -33 -41q0 -40 33 -40q36 0 36 40q0 41 -36 41zM231 530q192 0 192 -188v-342h-83l-6 51q-23 -27 -60.5 -44t-77.5 -17
q-75 0 -119 38t-44 112q0 75 47.5 112.5t131.5 37.5q56 0 113 -15v57q0 60 -24.5 85t-80.5 25q-68 0 -130 -37l-33 73q82 52 174 52zM212 71q36 0 66 18t47 49v68q-57 11 -106 11q-85 0 -85 -72q0 -74 78 -74z" />
    <glyph glyph-name="AEacute" unicode="&#x1fc;" horiz-adv-x="859" 
d="M622 849l-175 -100l-42 63l158 126zM514 94h304v-94h-408v186h-205l-90 -186h-126l364 700h458v-95h-297v-202h248v-93h-248v-216zM251 280h159v327z" />
    <glyph glyph-name="aeacute" unicode="&#x1fd;" horiz-adv-x="771" 
d="M511 677l-135 -121l-54 55l114 140zM429 229v-24q0 -128 103 -128q73 0 147 46l38 -70q-83 -63 -190 -63q-113 0 -164 80q-72 -80 -163 -80q-78 0 -122.5 36.5t-44.5 113.5q0 83 45 116.5t134 33.5q57 0 119 -14v58q0 59 -24.5 83.5t-77.5 24.5q-73 0 -139 -39l-32 72
q89 55 186 55t144 -52q52 52 143 52q93 0 146 -55.5t53 -152.5v-93h-301zM531 443q-102 0 -102 -129v-12h203v12q0 129 -101 129zM218 71q65 0 119 67q-4 16 -6 51v17q-57 12 -111 12q-45 0 -65.5 -15.5t-20.5 -57.5q0 -74 84 -74z" />
    <glyph glyph-name="Oslashacute" unicode="&#x1fe;" horiz-adv-x="616" 
d="M413 849l-175 -100l-42 63l158 126zM568 682l-43 -68q37 -55 37 -123v-281q0 -102 -72.5 -163t-181.5 -61q-91 0 -157 43l-37 -57l-66 42l45 70q-39 53 -39 126v281q0 101 72.5 162t181.5 61q90 0 159 -44l33 52zM158 223q0 -17 3 -32l252 394q-41 35 -105 35
q-65 0 -107.5 -37.5t-42.5 -104.5v-255zM458 478q0 12 -2 28l-251 -392q40 -34 103 -34q66 0 108 37.5t42 105.5v255z" />
    <glyph glyph-name="oslashacute" unicode="&#x1ff;" horiz-adv-x="515" 
d="M386 677l-135 -121l-54 55l114 140zM424 461q43 -54 43 -139v-124q0 -97 -56 -152.5t-153 -55.5q-64 0 -110 24l-30 -49l-64 39l36 58q-42 53 -42 136v124q0 97 56 152.5t154 55.5q59 0 106 -22l33 54l64 -40zM148 207q0 -25 4 -44l164 267q-25 14 -58 14
q-53 0 -81.5 -33.5t-28.5 -97.5v-106zM367 207v106q0 25 -5 48l-166 -269q25 -16 62 -16q53 0 81 33.5t28 97.5z" />
    <glyph glyph-name="Scommaaccent" unicode="&#x218;" horiz-adv-x="518" 
d="M74 133q84 -52 169 -52q64 0 100.5 29.5t36.5 78.5q0 53 -32 79.5t-101 40.5q-95 19 -146 65.5t-51 143.5q0 87 58.5 141.5t157.5 53.5q106 -1 197 -61l-46 -78q-80 45 -153 45q-55 0 -84 -27t-29 -71q0 -55 30.5 -79t96.5 -37q44 -9 76 -21.5t63.5 -35t48.5 -61
t17 -90.5q0 -94 -61.5 -152.5t-174.5 -58.5q-131 0 -219 64zM207 -231q35 36 30 65q-42 11 -42 59q0 30 18 46.5t48 16.5t48 -17.5t18 -52.5q0 -93 -79 -150z" />
    <glyph glyph-name="scommaaccent" unicode="&#x219;" horiz-adv-x="452" 
d="M68 116q73 -43 149 -43q47 0 72 19t25 49q0 36 -23 52.5t-81 27.5q-36 7 -60.5 15t-50 25t-39 47t-13.5 72q0 68 46 109t133 41q99 0 181 -54l-39 -72q-74 43 -139 43q-42 0 -62 -17t-20 -44q0 -14 5 -25t11.5 -17.5t21 -12t25 -8.5t32.5 -8q8 -2 13 -3q37 -9 60 -17.5
t48.5 -26.5t38 -48.5t12.5 -73.5q0 -71 -50.5 -113.5t-140.5 -42.5q-112 0 -192 54zM179 -231q35 36 30 65q-42 11 -42 59q0 30 18 46.5t48 16.5t48 -17.5t18 -52.5q0 -93 -79 -150z" />
    <glyph glyph-name="uni021A" unicode="&#x21a;" horiz-adv-x="501" 
d="M14 700h473v-94h-184v-606h-104v606h-185v94zM250 -44q30 0 48 -17.5t18 -52.5q0 -93 -79 -150l-41 33q35 36 30 65q-42 11 -42 59q0 30 18 46.5t48 16.5z" />
    <glyph glyph-name="uni021B" unicode="&#x21b;" horiz-adv-x="363" 
d="M349 7q-38 -20 -96 -20q-91 0 -128 41t-37 139v270h-65v83h68l22 99h74v-99h152v-83h-152v-260q0 -59 15.5 -82t62.5 -23q45 0 69 14zM224 -44q30 0 48 -17.5t18 -52.5q0 -93 -79 -150l-41 33q35 36 30 65q-42 11 -42 59q0 30 18 46.5t48 16.5z" />
    <glyph glyph-name="uni0232" unicode="&#x232;" horiz-adv-x="533" 
d="M408 846v-83h-284v83h284zM416 700h115l-212 -446v-254h-105v253l-213 447h115l151 -338z" />
    <glyph glyph-name="uni0233" unicode="&#x233;" horiz-adv-x="477" 
d="M390 679v-81h-284v81h284zM364 520h105l-162 -450l-19 -52l-62 -169h-103l69 173l-180 498h106l125 -379z" />
    <glyph glyph-name="uni0237" unicode="&#x237;" horiz-adv-x="238" 
d="M173 520v-484q0 -92 -51 -141.5t-147 -54.5l-14 80q60 2 86.5 33t26.5 94l-1 473h100z" />
    <glyph glyph-name="uni0259" unicode="&#x259;" horiz-adv-x="488" 
d="M244 530q92 0 144 -55t52 -153v-124q0 -97 -53.5 -152.5t-146.5 -55.5t-146 55.5t-53 152.5v93h301v24q0 128 -103 128q-73 0 -147 -46l-38 70q83 63 190 63zM240 77q102 0 102 129v12h-203v-12q0 -129 101 -129z" />
    <glyph glyph-name="uni0272" unicode="&#x272;" horiz-adv-x="533" 
d="M303 530q169 0 169 -192v-338h-100v325q0 61 -20 88.5t-70 27.5q-32 0 -64 -20t-53 -49v-336q0 -92 -51 -141.5t-147 -54.5l-13 80q58 2 83.5 30.5t27.5 87.5v482h86l9 -56q64 66 143 66z" />
    <glyph glyph-name="circumflex" unicode="&#x2c6;" horiz-adv-x="604" 
d="M230 719l102 -114l-80 -37l-74 88l-74 -88l-80 37l102 114h104z" />
    <glyph glyph-name="caron" unicode="&#x2c7;" horiz-adv-x="604" 
d="M122 573l-101 115l85 37l72 -88l72 88l85 -37l-101 -115h-112z" />
    <glyph glyph-name="breve" unicode="&#x2d8;" horiz-adv-x="604" 
d="M45 706h81q0 -60 47 -60t47 60h81v-9q0 -63 -34.5 -93.5t-93.5 -30.5t-93.5 30.5t-34.5 93.5v9z" />
    <glyph glyph-name="dotaccent" unicode="&#x2d9;" horiz-adv-x="604" 
d="M171 660q0 -31 -18.5 -47t-48.5 -16q-31 0 -49 16t-18 47t18 47.5t49 16.5q30 0 48.5 -16.5t18.5 -47.5z" />
    <glyph glyph-name="ring" unicode="&#x2da;" horiz-adv-x="604" 
d="M39 655q0 39 24 63t63 24q40 0 65 -24t25 -63v-10q0 -41 -25 -64t-65 -23q-39 0 -63 23t-24 64v10zM126 609q36 0 36 40q0 41 -36 41q-33 0 -33 -41q0 -40 33 -40z" />
    <glyph glyph-name="ogonek" unicode="&#x2db;" horiz-adv-x="604" 
d="M193 0q-53 -28 -53 -70q0 -35 29 -35q14 0 23 4l13 -68q-28 -13 -69 -13q-39 0 -64 21t-25 58q0 34 19.5 62t48.5 41h78z" />
    <glyph glyph-name="tilde" unicode="&#x2dc;" horiz-adv-x="604" 
d="M63 604q4 43 31 69.5t72 26.5q32 0 65.5 -16.5t49.5 -16.5q27 0 33 32l69 -15q-4 -42 -29.5 -70t-65.5 -28q-34 0 -71 16.5t-51 16.5q-29 0 -36 -30z" />
    <glyph glyph-name="hungarumlaut" unicode="&#x2dd;" horiz-adv-x="604" 
d="M106 748l88 -61l-114 -135l-61 42zM278 748l88 -61l-114 -135l-61 42z" />
    <glyph glyph-name="gravecomb" unicode="&#x300;" 
d="M-150 751l114 -140l-54 -55l-135 121z" />
    <glyph glyph-name="acutecomb" unicode="&#x301;" 
d="M-117 751l75 -74l-135 -121l-54 55z" />
    <glyph glyph-name="uni0302" unicode="&#x302;" 
d="M-125 719l102 -114l-80 -37l-74 88l-74 -88l-80 37l102 114h104z" />
    <glyph glyph-name="tildecomb" unicode="&#x303;" 
d="M-373 604q4 43 31 69.5t72 26.5q32 0 65.5 -16.5t49.5 -16.5q27 0 33 32l69 -15q-4 -42 -29.5 -70t-65.5 -28q-34 0 -71 16.5t-51 16.5q-29 0 -36 -30z" />
    <glyph glyph-name="uni0304" unicode="&#x304;" 
d="M-333 679h284v-81h-284v81z" />
    <glyph glyph-name="uni0306" unicode="&#x306;" 
d="M-303 706h81q0 -60 47 -60t47 60h81v-9q0 -63 -34.5 -93.5t-93.5 -30.5t-93.5 30.5t-34.5 93.5v9z" />
    <glyph glyph-name="uni0307" unicode="&#x307;" 
d="M-37 660q0 -31 -18.5 -47t-48.5 -16q-31 0 -49 16t-18 47t18 47.5t49 16.5q30 0 48.5 -16.5t18.5 -47.5z" />
    <glyph glyph-name="uni0308" unicode="&#x308;" 
d="M-313 585q-26 0 -40.5 16t-14.5 42q0 28 14.5 44.5t40.5 16.5q27 0 42 -16.5t15 -44.5q0 -26 -15 -42t-42 -16zM-122 585q-26 0 -40.5 16t-14.5 42q0 28 14.5 44.5t40.5 16.5q27 0 42 -16.5t15 -44.5q0 -26 -15 -42t-42 -16z" />
    <glyph glyph-name="uni030A" unicode="&#x30a;" 
d="M-216 655q0 39 24 63t63 24q40 0 65 -24t25 -63v-10q0 -41 -25 -64t-65 -23q-39 0 -63 23t-24 64v10zM-129 609q36 0 36 40q0 41 -36 41q-33 0 -33 -41q0 -40 33 -40z" />
    <glyph glyph-name="uni030B" unicode="&#x30b;" 
d="M-267 748l88 -61l-114 -135l-61 42zM-95 748l88 -61l-114 -135l-61 42z" />
    <glyph glyph-name="uni030C" unicode="&#x30c;" 
d="M-234 573l-101 115l85 37l72 -88l72 88l85 -37l-101 -115h-112z" />
    <glyph glyph-name="dotbelowcomb" unicode="&#x323;" 
d="M-102 -181q-30 0 -48 16t-18 46t18 46.5t48 16.5q29 0 47.5 -16.5t18.5 -46.5t-18 -46t-48 -16z" />
    <glyph glyph-name="uni0326" unicode="&#x326;" 
d="M-192 -231q35 36 30 65q-42 11 -42 59q0 30 18 46.5t48 16.5t48 -17.5t18 -52.5q0 -93 -79 -150z" />
    <glyph glyph-name="uni0327" unicode="&#x327;" 
d="M-210 -117q17 -5 37 -5q36 0 36 29q0 15 -13.5 22t-27.5 7h-14l25 64h69l-12 -35q61 -8 61 -69q0 -42 -30 -60t-73 -18q-36 0 -63 10z" />
    <glyph glyph-name="uni0328" unicode="&#x328;" 
d="M-67 0q-53 -28 -53 -70q0 -35 29 -35q14 0 23 4l13 -68q-28 -13 -69 -13q-39 0 -64 21t-25 58q0 34 19.5 62t48.5 41h78z" />
    <glyph glyph-name="uni0335" unicode="&#x335;" 
d="M-312 425v78h260v-78h-260z" />
    <glyph glyph-name="uni0336" unicode="&#x336;" 
d="M-579 515v78h554v-78h-554z" />
    <glyph glyph-name="uni0337" unicode="&#x337;" 
d="M-60 437l38 -85l-199 -81l-34 84z" />
    <glyph glyph-name="uni0338" unicode="&#x338;" 
d="M-424 -45l-64 39l343 558l64 -40z" />
    <glyph glyph-name="pi" unicode="&#x3c0;" horiz-adv-x="668" 
d="M38 80h30q84 0 84 120v261q-59 1 -91 -23l-33 82q21 16 63 28t88 12h356q28 0 55.5 4t41.5 8l13 5l7 -90q-48 -18 -107 -18v-338q0 -36 4.5 -68.5t8.5 -47.5l4 -15h-98q-19 54 -19 135v332h-193v-278q0 -95 -47 -143t-158 -48z" />
    <glyph glyph-name="Wgrave" unicode="&#x1e80;" horiz-adv-x="884" 
d="M394 938l158 -126l-42 -63l-175 100zM205 0l-201 700h109l144 -572l131 572h109l132 -572l143 572h108l-201 -700h-105l-132 558l-131 -558h-106z" />
    <glyph glyph-name="wgrave" unicode="&#x1e81;" horiz-adv-x="743" 
d="M326 751l114 -140l-54 -55l-135 121zM165 0l-153 520h104l100 -393l103 393h104l107 -391l99 391h103l-154 -520h-100l-109 390l-104 -390h-100z" />
    <glyph glyph-name="Wacute" unicode="&#x1e82;" horiz-adv-x="884" 
d="M489 938l59 -89l-175 -100l-42 63zM205 0l-201 700h109l144 -572l131 572h109l132 -572l143 572h108l-201 -700h-105l-132 558l-131 -558h-106z" />
    <glyph glyph-name="wacute" unicode="&#x1e83;" horiz-adv-x="743" 
d="M416 751l75 -74l-135 -121l-54 55zM165 0l-153 520h104l100 -393l103 393h104l107 -391l99 391h103l-154 -520h-100l-109 390l-104 -390h-100z" />
    <glyph glyph-name="Wdieresis" unicode="&#x1e84;" horiz-adv-x="884" 
d="M333 752q-26 0 -40.5 16t-14.5 42q0 28 14.5 44.5t40.5 16.5q27 0 42 -16.5t15 -44.5q0 -26 -15 -42t-42 -16zM548 752q-26 0 -40.5 16t-14.5 42q0 28 14.5 44.5t40.5 16.5q27 0 42 -16.5t15 -44.5q0 -26 -15 -42t-42 -16zM205 0l-201 700h109l144 -572l131 572h109
l132 -572l143 572h108l-201 -700h-105l-132 558l-131 -558h-106z" />
    <glyph glyph-name="wdieresis" unicode="&#x1e85;" horiz-adv-x="743" 
d="M275 585q-26 0 -40.5 16t-14.5 42q0 28 14.5 44.5t40.5 16.5q27 0 42 -16.5t15 -44.5q0 -26 -15 -42t-42 -16zM466 585q-26 0 -40.5 16t-14.5 42q0 28 14.5 44.5t40.5 16.5q27 0 42 -16.5t15 -44.5q0 -26 -15 -42t-42 -16zM165 0l-153 520h104l100 -393l103 393h104
l107 -391l99 391h103l-154 -520h-100l-109 390l-104 -390h-100z" />
    <glyph glyph-name="uni1E9E" unicode="&#x1e9e;" horiz-adv-x="617" 
d="M460 367q48 -16 81 -63.5t33 -121.5q0 -88 -53 -142t-146 -54t-159 57l44 83q57 -45 110 -45q52 0 76.5 30t24.5 81q0 60 -38 92t-99 32h-64v94h67q44 0 76 26t32 71q0 46 -32.5 72t-78.5 26h-154v-605h-103v700h262q89 0 150 -54t61 -136q0 -50 -24.5 -87t-65.5 -56z
" />
    <glyph glyph-name="uni1EA0" unicode="&#x1ea0;" horiz-adv-x="567" 
d="M337 700l226 -700h-114l-55 189q-111 -19 -222 0l-54 -189h-114l225 700h108zM196 273q88 -18 174 0l-87 302zM283 -56q29 0 47.5 -16.5t18.5 -46.5t-18 -46t-48 -16t-48 16t-18 46t18 46.5t48 16.5z" />
    <glyph glyph-name="uni1EA1" unicode="&#x1ea1;" horiz-adv-x="484" 
d="M231 530q192 0 192 -188v-342h-83l-6 51q-23 -27 -60.5 -44t-77.5 -17q-75 0 -119 38t-44 112q0 75 47.5 112.5t131.5 37.5q56 0 113 -15v57q0 60 -24.5 85t-80.5 25q-68 0 -130 -37l-33 73q82 52 174 52zM212 71q36 0 66 18t47 49v68q-57 11 -106 11q-85 0 -85 -72
q0 -74 78 -74zM239 -56q29 0 47.5 -16.5t18.5 -46.5t-18 -46t-48 -16t-48 16t-18 46t18 46.5t48 16.5z" />
    <glyph glyph-name="uni1EB8" unicode="&#x1eb8;" horiz-adv-x="526" 
d="M181 94h304v-94h-408v700h401v-95h-297v-202h248v-93h-248v-216zM285 -56q29 0 47.5 -16.5t18.5 -46.5t-18 -46t-48 -16t-48 16t-18 46t18 46.5t48 16.5z" />
    <glyph glyph-name="uni1EB9" unicode="&#x1eb9;" horiz-adv-x="488" 
d="M146 229v-24q0 -128 103 -128q73 0 147 46l38 -70q-83 -63 -190 -63q-92 0 -144 55t-52 153v124q0 97 53.5 152.5t146.5 55.5t146 -55.5t53 -152.5v-93h-301zM248 443q-102 0 -102 -129v-12h203v12q0 129 -101 129zM257 -50q29 0 47.5 -16.5t18.5 -46.5t-18 -46t-48 -16
t-48 16t-18 46t18 46.5t48 16.5z" />
    <glyph glyph-name="uni1EBC" unicode="&#x1ebc;" horiz-adv-x="526" 
d="M230 786q-26 0 -33 -31l-71 16q5 44 32 71t72 27q32 0 65.5 -14.5t49.5 -14.5q15 0 21 7.5t10 22.5l72 -16q-4 -43 -30 -70t-66 -27q-34 0 -71 14.5t-51 14.5zM181 94h304v-94h-408v700h401v-95h-297v-202h248v-93h-248v-216z" />
    <glyph glyph-name="uni1EBD" unicode="&#x1ebd;" horiz-adv-x="488" 
d="M189 619q-29 0 -36 -30l-67 15q4 43 31 69.5t72 26.5q32 0 65.5 -16.5t49.5 -16.5q27 0 33 32l69 -15q-4 -42 -29.5 -70t-65.5 -28q-34 0 -71 16.5t-51 16.5zM146 229v-24q0 -128 103 -128q73 0 147 46l38 -70q-83 -63 -190 -63q-92 0 -144 55t-52 153v124
q0 97 53.5 152.5t146.5 55.5t146 -55.5t53 -152.5v-93h-301zM248 443q-102 0 -102 -129v-12h203v12q0 129 -101 129z" />
    <glyph glyph-name="uni1ECA" unicode="&#x1eca;" horiz-adv-x="258" 
d="M77 700h104v-700h-104v700zM126 -181q-30 0 -48 16t-18 46t18 46.5t48 16.5q29 0 47.5 -16.5t18.5 -46.5t-18 -46t-48 -16z" />
    <glyph glyph-name="uni1ECB" unicode="&#x1ecb;" horiz-adv-x="230" 
d="M182 660q0 -31 -18.5 -47t-48.5 -16q-31 0 -49 16t-18 47t18 47.5t49 16.5q30 0 48.5 -16.5t18.5 -47.5zM165 520v-520h-100v520h100zM115 -181q-30 0 -48 16t-18 46t18 46.5t48 16.5q29 0 47.5 -16.5t18.5 -46.5t-18 -46t-48 -16z" />
    <glyph glyph-name="uni1ECC" unicode="&#x1ecc;" horiz-adv-x="616" 
d="M308 -14q-109 0 -181.5 61t-72.5 163v281q0 101 72.5 162t181.5 61t181.5 -61t72.5 -162v-281q0 -102 -72.5 -163t-181.5 -61zM308 80q66 0 108 37.5t42 105.5v255q0 67 -42 104.5t-108 37.5q-65 0 -107.5 -37.5t-42.5 -104.5v-255q0 -68 42.5 -105.5t107.5 -37.5z
M305 -181q-30 0 -48 16t-18 46t18 46.5t48 16.5q29 0 47.5 -16.5t18.5 -46.5t-18 -46t-48 -16z" />
    <glyph glyph-name="uni1ECD" unicode="&#x1ecd;" horiz-adv-x="515" 
d="M48 322q0 97 56 152.5t154 55.5t153.5 -55.5t55.5 -152.5v-124q0 -97 -56 -152.5t-153 -55.5q-98 0 -154 55.5t-56 152.5v124zM148 207q0 -64 28.5 -97.5t81.5 -33.5t81 33.5t28 97.5v106q0 64 -28 97.5t-81 33.5t-81.5 -33.5t-28.5 -97.5v-106zM253 -175q-30 0 -48 16
t-18 46t18 46.5t48 16.5q29 0 47.5 -16.5t18.5 -46.5t-18 -46t-48 -16z" />
    <glyph glyph-name="uni1EE4" unicode="&#x1ee4;" horiz-adv-x="617" 
d="M435 700h105l-1 -700h-89l-12 61q-69 -75 -168 -75q-198 0 -198 209v505h105v-491q0 -69 27 -100t86 -31q44 0 84 23.5t61 56.5v542zM292 -56q29 0 47.5 -16.5t18.5 -46.5t-18 -46t-48 -16t-48 16t-18 46t18 46.5t48 16.5z" />
    <glyph glyph-name="uni1EE5" unicode="&#x1ee5;" horiz-adv-x="530" 
d="M365 520h100v-520h-85l-11 55q-67 -65 -145 -65q-86 0 -123.5 50t-37.5 150v330h100v-316q0 -67 18 -97.5t65 -30.5q70 0 119 70v374zM262 -56q29 0 47.5 -16.5t18.5 -46.5t-18 -46t-48 -16t-48 16t-18 46t18 46.5t48 16.5z" />
    <glyph glyph-name="Ygrave" unicode="&#x1ef2;" horiz-adv-x="533" 
d="M376 812l-42 -63l-175 100l59 89zM416 700h115l-212 -446v-254h-105v253l-213 447h115l151 -338z" />
    <glyph glyph-name="ygrave" unicode="&#x1ef3;" horiz-adv-x="477" 
d="M296 611l-54 -55l-135 121l75 74zM364 520h105l-162 -450l-19 -52l-62 -169h-103l69 173l-180 498h106l125 -379z" />
    <glyph glyph-name="uni1EF8" unicode="&#x1ef8;" horiz-adv-x="533" 
d="M209 786q-26 0 -33 -31l-71 16q5 44 32 71t72 27q32 0 65.5 -14.5t49.5 -14.5q15 0 21 7.5t10 22.5l72 -16q-4 -43 -30 -70t-66 -27q-34 0 -71 14.5t-51 14.5zM416 700h115l-212 -446v-254h-105v253l-213 447h115l151 -338z" />
    <glyph glyph-name="uni1EF9" unicode="&#x1ef9;" horiz-adv-x="477" 
d="M191 619q-29 0 -36 -30l-67 15q4 43 31 69.5t72 26.5q32 0 65.5 -16.5t49.5 -16.5q27 0 33 32l69 -15q-4 -42 -29.5 -70t-65.5 -28q-34 0 -71 16.5t-51 16.5zM364 520h105l-162 -450l-19 -52l-62 -169h-103l69 173l-180 498h106l125 -379z" />
    <glyph glyph-name="endash" unicode="&#x2013;" horiz-adv-x="589" 
d="M59 348h471v-92h-471v92z" />
    <glyph glyph-name="emdash" unicode="&#x2014;" horiz-adv-x="899" 
d="M59 348h781v-92h-781v92z" />
    <glyph glyph-name="quoteleft" unicode="&#x2018;" horiz-adv-x="212" 
d="M103 534q-30 0 -48 17.5t-18 52.5q0 55 21 98.5t77 89.5l37 -37q-24 -26 -35.5 -53.5t-9.5 -45.5q42 -11 42 -59q0 -30 -18 -46.5t-48 -16.5z" />
    <glyph glyph-name="quoteright" unicode="&#x2019;" horiz-adv-x="209" 
d="M110 792q30 0 48 -17.5t18 -52.5q0 -55 -21 -98.5t-77 -89.5l-37 37q24 26 35.5 53.5t9.5 45.5q-42 11 -42 59q0 30 18 46.5t48 16.5z" />
    <glyph glyph-name="quotesinglbase" unicode="&#x201a;" horiz-adv-x="221" 
d="M110 114q30 0 48 -17.5t18 -52.5q0 -55 -21 -98.5t-77 -89.5l-37 37q24 26 35.5 53.5t9.5 45.5q-42 11 -42 59q0 30 18 46.5t48 16.5z" />
    <glyph glyph-name="quotedblleft" unicode="&#x201c;" horiz-adv-x="382" 
d="M103 534q-30 0 -48 17.5t-18 52.5q0 55 21 98.5t77 89.5l37 -37q-24 -26 -35.5 -53.5t-9.5 -45.5q42 -11 42 -59q0 -30 -18 -46.5t-48 -16.5zM273 534q-30 0 -48 17.5t-18 52.5q0 55 21 98.5t77 89.5l37 -37q-24 -26 -35.5 -53.5t-9.5 -45.5q42 -11 42 -59
q0 -30 -18 -46.5t-48 -16.5z" />
    <glyph glyph-name="quotedblright" unicode="&#x201d;" horiz-adv-x="379" 
d="M110 792q30 0 48 -17.5t18 -52.5q0 -55 -21 -98.5t-77 -89.5l-37 37q24 26 35.5 53.5t9.5 45.5q-42 11 -42 59q0 30 18 46.5t48 16.5zM280 792q30 0 48 -17.5t18 -52.5q0 -55 -21 -98.5t-77 -89.5l-37 37q24 26 35.5 53.5t9.5 45.5q-42 11 -42 59q0 30 18 46.5t48 16.5z
" />
    <glyph glyph-name="quotedblbase" unicode="&#x201e;" horiz-adv-x="391" 
d="M110 114q30 0 48 -17.5t18 -52.5q0 -55 -21 -98.5t-77 -89.5l-37 37q24 26 35.5 53.5t9.5 45.5q-42 11 -42 59q0 30 18 46.5t48 16.5zM280 114q30 0 48 -17.5t18 -52.5q0 -55 -21 -98.5t-77 -89.5l-37 37q24 26 35.5 53.5t9.5 45.5q-42 11 -42 59q0 30 18 46.5t48 16.5z
" />
    <glyph glyph-name="dagger" unicode="&#x2020;" horiz-adv-x="459" 
d="M419 506v-92h-140v-524h-99v524h-140v92h140v194h99v-194h140z" />
    <glyph glyph-name="daggerdbl" unicode="&#x2021;" horiz-adv-x="459" 
d="M419 414h-140v-203h140v-92h-140v-229h-99v229h-140v92h140v203h-140v92h140v194h99v-194h140v-92z" />
    <glyph glyph-name="bullet" unicode="&#x2022;" horiz-adv-x="408" 
d="M201 175q-62 0 -98 37.5t-36 109.5q0 76 35.5 114.5t98.5 38.5q66 0 103 -38.5t37 -114.5q0 -72 -37.5 -109.5t-102.5 -37.5z" />
    <glyph glyph-name="ellipsis" unicode="&#x2026;" horiz-adv-x="572" 
d="M175 51q0 -30 -18 -46t-48 -16t-48 16t-18 46t18 46.5t48 16.5q29 0 47.5 -16.5t18.5 -46.5zM352 51q0 -30 -18 -46t-48 -16t-48 16t-18 46t18 46.5t48 16.5q29 0 47.5 -16.5t18.5 -46.5zM529 51q0 -30 -18 -46t-48 -16t-48 16t-18 46t18 46.5t48 16.5q29 0 47.5 -16.5
t18.5 -46.5z" />
    <glyph glyph-name="perthousand" unicode="&#x2030;" horiz-adv-x="1190" 
d="M199 -49l-71 49l510 749l73 -49zM189 285q-71 0 -113.5 41.5t-42.5 110.5v124q0 69 42.5 110t113.5 41q70 0 112.5 -41t42.5 -110v-124q0 -69 -42.5 -110.5t-112.5 -41.5zM189 362q30 0 48 21t18 61v108q0 40 -18 61.5t-48 21.5q-31 0 -48.5 -21.5t-17.5 -61.5v-108
q0 -40 17.5 -61t48.5 -21zM652 -11q-70 0 -113 41.5t-43 110.5v124q0 70 43 111t113 41t112.5 -41t42.5 -111v-124q0 -69 -42.5 -110.5t-112.5 -41.5zM1005 -11q-71 0 -114 41.5t-43 110.5v124q0 70 43 111t114 41q70 0 113 -41t43 -111v-124q0 -69 -43 -110.5t-113 -41.5z
M652 67q31 0 48.5 21t17.5 61v107q0 40 -17.5 61.5t-48.5 21.5t-49 -21.5t-18 -61.5v-107q0 -40 18 -61t49 -21zM1005 67q30 0 48.5 21.5t18.5 60.5v107q0 40 -18.5 61.5t-48.5 21.5q-31 0 -49 -21.5t-18 -61.5v-107q0 -40 18 -61t49 -21z" />
    <glyph glyph-name="guilsinglleft" unicode="&#x2039;" horiz-adv-x="273" 
d="M227 159l-58 -58l-135 147v63l135 147l58 -58l-113 -121z" />
    <glyph glyph-name="guilsinglright" unicode="&#x203a;" horiz-adv-x="273" 
d="M46 159l113 120l-113 121l58 58l135 -147v-63l-135 -147z" />
    <glyph glyph-name="fraction" unicode="&#x2044;" horiz-adv-x="269" 
d="M-42 -73l-74 37l427 811l74 -37z" />
    <glyph glyph-name="uni2070" unicode="&#x2070;" horiz-adv-x="437" 
d="M51 652q0 74 45.5 117t123.5 43q77 0 121.5 -43t44.5 -117v-165q0 -74 -44.5 -116.5t-121.5 -42.5q-78 0 -123.5 43t-45.5 116v165zM301 639q0 95 -81 95q-42 0 -61.5 -23t-19.5 -72v-140q0 -47 19.5 -69.5t61.5 -22.5q81 0 81 92v140z" />
    <glyph glyph-name="Euro" unicode="&#x20ac;" horiz-adv-x="496" 
d="M350 79q43 0 78 12l37 -81q-56 -24 -118 -24q-105 0 -173 61t-68 157v32h-78l27 83h51v68h-78l27 83h51v26q0 96 68 157t173 61q65 0 121 -21l-40 -84q-35 12 -78 12q-64 0 -101.5 -38t-37.5 -98v-15h188l-24 -83h-164v-68h188l-24 -83h-164v-21q0 -60 37.5 -98
t101.5 -38z" />
    <glyph glyph-name="trademark" unicode="&#x2122;" horiz-adv-x="895" 
d="M26 619v81h345v-81h-120v-339h-95v339h-130zM744 700h83v-420h-83v249l-94 -187h-49l-89 179v-241h-86v420h88l113 -219z" />
    <glyph glyph-name="uni2126" unicode="&#x2126;" horiz-adv-x="644" 
d="M41 93h82q-52 60 -52 168v230q0 102 70 162.5t181 60.5t181 -60.5t70 -162.5v-230q0 -106 -53 -168h82v-93h-223v65q90 61 90 185v228q0 68 -40 104.5t-107 36.5t-107 -36.5t-40 -104.5v-228q0 -124 90 -185v-65h-224v93z" />
    <glyph glyph-name="uni2153" unicode="&#x2153;" horiz-adv-x="914" 
d="M620 775l74 -37l-427 -811l-74 37zM42 318h91v281l-66 -42l-41 64l124 83h71v-386h79v-74h-258v74zM830 237q24 -13 39.5 -41.5t15.5 -56.5v-12q0 -64 -44.5 -102t-122.5 -38q-92 0 -159 43l28 65q58 -29 124 -29q87 0 87 62v6q0 67 -66 67h-62v66h54q31 0 47 20t16 44
q0 61 -74 61q-62 0 -114 -26l-28 62q63 42 153 42q74 0 112.5 -35.5t38.5 -94.5q0 -26 -12 -55.5t-33 -47.5z" />
    <glyph glyph-name="oneeighth" unicode="&#x215b;" horiz-adv-x="943" 
d="M630 775l74 -37l-427 -811l-74 37zM42 318h91v281l-66 -42l-41 64l124 83h71v-386h79v-74h-258v74zM851 242q63 -32 63 -106v-13q0 -59 -45 -99t-131 -40q-88 0 -132 38.5t-44 100.5v13q0 32 18.5 60.5t46.5 43.5q-53 34 -53 94q0 62 41.5 98t122.5 36q82 0 123 -36
t41 -98q0 -25 -13.5 -50.5t-37.5 -41.5zM738 399q-40 0 -61 -19t-21 -50q0 -26 21 -44t55 -18h10q34 0 56 18t22 44q0 31 -20.5 50t-61.5 19zM826 128v5q0 32 -22.5 52.5t-57.5 20.5h-16q-35 0 -57.5 -20.5t-22.5 -52.5v-5q0 -30 21.5 -51t66.5 -21t66.5 21t21.5 51z" />
    <glyph glyph-name="threeeighths" unicode="&#x215c;" horiz-adv-x="917" 
d="M630 775l74 -37l-427 -811l-74 37zM351 371q0 -64 -44.5 -102t-122.5 -38q-92 0 -159 43l28 65q58 -29 124 -29q87 0 87 62v6q0 67 -66 67h-62v66h54q31 0 47 20t16 44q0 61 -74 61q-62 0 -114 -26l-28 62q63 42 153 42q74 0 112.5 -35.5t38.5 -94.5q0 -26 -12 -55.5
t-33 -47.5q24 -13 39.5 -41.5t15.5 -56.5v-12zM824 242q63 -32 63 -106v-13q0 -59 -45 -99t-131 -40q-88 0 -132 38.5t-44 100.5v13q0 32 18.5 60.5t46.5 43.5q-53 34 -53 94q0 62 41.5 98t122.5 36q82 0 123 -36t41 -98q0 -25 -13.5 -50.5t-37.5 -41.5zM711 399
q-40 0 -61 -19t-21 -50q0 -26 21 -44t55 -18h10q34 0 56 18t22 44q0 31 -20.5 50t-61.5 19zM799 128v5q0 32 -22.5 52.5t-57.5 20.5h-16q-35 0 -57.5 -20.5t-22.5 -52.5v-5q0 -30 21.5 -51t66.5 -21t66.5 21t21.5 51z" />
    <glyph glyph-name="fiveeighths" unicode="&#x215d;" horiz-adv-x="954" 
d="M654 775l74 -37l-427 -811l-74 37zM356 373q0 -63 -44.5 -102.5t-124.5 -39.5q-90 0 -161 46l29 62q67 -36 128 -36q39 0 62.5 20.5t23.5 52.5v12q0 76 -80 76q-53 0 -94 -26l-54 38l32 227h258v-72h-185l-16 -112q35 19 77 19q71 0 110 -36t39 -106v-23zM862 242
q63 -32 63 -106v-13q0 -59 -45 -99t-131 -40q-88 0 -132 38.5t-44 100.5v13q0 32 18.5 60.5t46.5 43.5q-53 34 -53 94q0 62 41.5 98t122.5 36q82 0 123 -36t41 -98q0 -25 -13.5 -50.5t-37.5 -41.5zM749 399q-40 0 -61 -19t-21 -50q0 -26 21 -44t55 -18h10q34 0 56 18t22 44
q0 31 -20.5 50t-61.5 19zM837 128v5q0 32 -22.5 52.5t-57.5 20.5h-16q-35 0 -57.5 -20.5t-22.5 -52.5v-5q0 -30 21.5 -51t66.5 -21t66.5 21t21.5 51z" />
    <glyph glyph-name="seveneighths" unicode="&#x215e;" horiz-adv-x="916" 
d="M569 775l74 -37l-427 -811l-74 37zM161 244h-90l161 378h-207v81h303v-48zM821 242q63 -32 63 -106v-13q0 -59 -45 -99t-131 -40q-88 0 -132 38.5t-44 100.5v13q0 32 18.5 60.5t46.5 43.5q-53 34 -53 94q0 62 41.5 98t122.5 36q82 0 123 -36t41 -98q0 -25 -13.5 -50.5
t-37.5 -41.5zM708 399q-40 0 -61 -19t-21 -50q0 -26 21 -44t55 -18h10q34 0 56 18t22 44q0 31 -20.5 50t-61.5 19zM796 128v5q0 32 -22.5 52.5t-57.5 20.5h-16q-35 0 -57.5 -20.5t-22.5 -52.5v-5q0 -30 21.5 -51t66.5 -21t66.5 21t21.5 51z" />
    <glyph glyph-name="partialdiff" unicode="&#x2202;" horiz-adv-x="537" 
d="M317 765q102 0 152.5 -55t35.5 -158l-47 -356q-13 -96 -75.5 -151t-157.5 -55q-96 0 -143.5 55t-36.5 148l10 93q13 96 67 149t139 53q81 0 128 -55l17 118q9 61 -19.5 92.5t-85.5 31.5q-47 0 -97 -14l-23 74q24 12 64.5 21t71.5 9zM233 78q53 0 85.5 34.5t41.5 99.5
l17 127q-18 26 -48 43.5t-63 17.5q-96 0 -113 -129l-8 -68q-8 -60 14 -92.5t74 -32.5z" />
    <glyph glyph-name="uni2206" unicode="&#x2206;" horiz-adv-x="602" 
d="M25 81l228 619h97l227 -619v-81h-552v81zM463 92l-163 487l-163 -487h326z" />
    <glyph glyph-name="product" unicode="&#x220f;" horiz-adv-x="660" 
d="M99 607h-71v93h604v-93h-71v-717h-103v717h-256v-717h-103v717z" />
    <glyph glyph-name="summation" unicode="&#x2211;" horiz-adv-x="542" 
d="M30 -26l268 325l-268 320v81h480l-2 -88l-351 1l261 -312l-266 -324h356l2 -87h-480v84z" />
    <glyph glyph-name="minus" unicode="&#x2212;" horiz-adv-x="588" 
d="M61 348h466v-92h-466v92z" />
    <glyph glyph-name="radical" unicode="&#x221a;" horiz-adv-x="628" 
d="M96 202l-68 -31l-33 83l161 73l126 -318l254 741l97 -29l-300 -831h-107z" />
    <glyph glyph-name="infinity" unicode="&#x221e;" horiz-adv-x="1030" 
d="M247 66q-94 0 -148 57.5t-54 156.5t54 156.5t148 57.5q149 0 269 -146q64 78 127 113t139 35q94 0 148.5 -57.5t54.5 -156.5t-54.5 -156.5t-148.5 -57.5q-77 0 -141.5 34.5t-126.5 111.5q-63 -78 -126.5 -113t-140.5 -35zM255 155q59 0 105.5 28.5t99.5 96.5
q-54 68 -100 97.5t-105 29.5q-58 0 -88 -33.5t-30 -93.5t30 -92.5t88 -32.5zM775 155q58 0 88 33.5t30 93.5q0 59 -30 92t-88 33q-59 0 -105.5 -28.5t-99.5 -96.5q53 -69 99.5 -98t105.5 -29z" />
    <glyph glyph-name="integral" unicode="&#x222b;" horiz-adv-x="301" 
d="M93 552q0 208 177 208q12 0 24 -3l-10 -83q-48 0 -69.5 -29.5t-21.5 -94.5q0 -71 9 -227t9 -225q0 -208 -177 -208q-12 0 -24 3l6 83q50 -1 72.5 29t22.5 95q0 71 -9 227t-9 225z" />
    <glyph glyph-name="approxequal" unicode="&#x2248;" horiz-adv-x="585" 
d="M59 358q9 53 44.5 87t90.5 34q41 0 107.5 -31.5t90.5 -31.5q25 0 40 15.5t18 40.5l78 -12q-7 -56 -41 -89.5t-94 -33.5q-41 0 -105 32t-94 32q-51 0 -58 -57zM59 146q9 53 44.5 87t90.5 34q41 0 107.5 -32t90.5 -32q25 0 40 16t18 41l78 -13q-7 -55 -41 -88.5t-94 -33.5
q-41 0 -105 31.5t-94 31.5q-26 0 -40.5 -15.5t-17.5 -40.5z" />
    <glyph glyph-name="notequal" unicode="&#x2260;" horiz-adv-x="578" 
d="M518 372h-149l-63 -133h212v-91h-256l-70 -146l-83 29l56 117h-105v91h148l64 133h-212v91h255l73 152l81 -35l-56 -117h105v-91z" />
    <glyph glyph-name="lessequal" unicode="&#x2264;" horiz-adv-x="350" 
d="M243 111l-193 183v69l193 183l60 -63l-170 -155l170 -153zM40 0v74h261v-74h-261z" />
    <glyph glyph-name="greaterequal" unicode="&#x2265;" horiz-adv-x="352" 
d="M104 111l-56 64l166 153l-166 155l56 63l193 -183v-69zM46 0v74h271v-74h-271z" />
    <glyph glyph-name="lozenge" unicode="&#x25ca;" horiz-adv-x="565" 
d="M20 350l263 380l261 -380l-261 -380zM437 350l-154 234l-155 -234l155 -234z" />
    <glyph glyph-name="uniF8FF" unicode="&#xf8ff;" horiz-adv-x="1434" 
d="M677 548q-19 -39 -46 -39q-29 0 -33 30q0 1 -0.5 3t-0.5 3q0 12 8 22q12 15 30 15q16 0 38 -19q8 22 21 87q1 9 5 25h-7q-28 0 -45.5 16t-19.5 32q-1 3 -1 8q0 6 2 11t4.5 7.5t5 4.5t4.5 2l2 1q4 0 6 -4q0 -5 -4 -5q-13 -6 -10 -24q2 -14 19.5 -28t44.5 -11q16 73 43 77
h5q8 0 13 -4q8 -8 8 -21q0 -17 -14 -33q-18 -22 -47 -27q-4 -21 -5 -28q-12 -66 -22 -92l3 -3q50 -46 96 -46q13 0 19 1q56 9 76 51q4 10 6 20.5t2 15.5v6q0 5 4 5q5 0 5 -4q0 -28 -8 -46q-22 -47 -83 -57q-16 -2 -21 -2q-23 0 -44 9t-31 16.5t-28 23.5v1zM747 754h-1l-2 -1
q-20 -2 -34 -67q23 6 38 23q12 15 12 28q0 9 -5 14q-3 3 -8 3zM1331 533q1 -4 1 -13q0 -28 -16.5 -56t-33 -43.5t-46.5 -39.5q0 -2 -2 -2q35 -44 35 -73q0 -25 -14 -41q-17 -18 -42 -18q-26 0 -41 12t-15 34q0 15 10 31.5t20.5 27t31.5 29.5l-9 10q-4 6 -14 18
q-17 22 -31 45q-12 -34 -34 -72q-57 -92 -108 -98h-4q-17 0 -29 16q-22 -14 -40 -15h-6q-17 0 -28 7q-20 14 -23 47q0 1 -0.5 4t-0.5 5q0 1 0.5 5t0.5 6q-15 -35 -22.5 -50.5t-20.5 -30t-30 -16.5h-4q-16 0 -26 10q-5 5 -10 15q-26 -41 -54 -41q-25 0 -25 34q0 25 20 81
q16 46 16 60q0 23 -17 23q-33 0 -72 -54l-15 -26q-3 -54 -18 -101q-22 -65 -43 -67h-1q-3 0 -5 2q-4 9 6 47q13 44 29 81l21 41q3 69 -21 89q-4 4 0 8q3 5 7 1q25 -20 25 -79q44 69 87 69q28 0 28 -33q0 -20 -17 -65q-19 -57 -19 -79q0 -21 13 -21t25.5 11.5t18 21t7.5 14.5
q-1 2 -1 8q-1 6 -1 18q0 52 29 96q31 46 73 46q24 0 36 -24q10 42 25 90q19 66 39 113q21 53 33 53h3q13 0 13 -17q0 -36 -82 -215l-30 -67q-9 -42 -9 -61q0 -32 18 -42q9 -6 22 -6q17 0 40 13q-12 23 -16 55q-1 5 -1 16q0 54 31 88q22 24 48 24q17 0 27 -10.5t10 -27.5
q0 -42 -24.5 -83.5t-59.5 -64.5q11 -12 23 -11q48 6 99 93q26 43 37 79q-12 22 -12 39q0 6 1 9q3 7 14 9q16 0 16 -20q0 -10 -7 -36q13 -24 35 -52q4 -6 14 -18l9 -10l1 1q30 25 45 39t31 40t16 52q0 2 -0.5 5.5t-0.5 5.5q-1 25 -19 30q-3 1 -9 1q-17 0 -23 -6q-4 -5 -8 -1
t-1 8q9 11 32 11q4 0 12 -2q25 -9 27 -39zM984 642q-19 -49 -38 -111q-4 -13 -10.5 -37.5t-8.5 -30.5l6 13q43 94 62 142q25 64 18 75q-1 1 -2 1q-8 -4 -27 -52zM736 648q8 8 23 8q21 0 24 -21q0 -1 1 -2q14 5 19 10q-6 10 -3 17q2 5 9 6q5 0 8 -3q5 -7 1 -15q0 -1 -4 -7
q1 -2 5.5 -8t6.5 -8q19 -26 21 -37v-4q0 -12 -6 -21q-9 -11 -23 -12q-3 -1 -8 -1q-11 0 -18 4q-13 6 -14 18v4q0 19 17 21h3q7 0 12 -5q5 -6 1 -15q-1 -3 -4 -3q-2 0 -3.5 2t-0.5 4q1 4 -1 6t-4 2q-11 0 -11 -13q0 -9 9 -13q6 -3 12 -3q18 0 26 10q6 7 4 18q-1 7 -19 32
q-5 6 -11 16q-11 -8 -24 -11q-2 -18 -9 -32q-15 -32 -38 -32q-18 0 -23 22q-3 24 10 43q2 5 6 1q5 -2 1 -6q-8 -14 -8 -30q0 -20 12 -20q16 0 26.5 16.5t12.5 34.5q-4 0 -7 -1q-2 0 -6 -0.5t-5 -0.5q-5 0 -13 2q-12 3 -12 13v3q0 6 5 11zM775 631q-1 1 -1 3q-3 13 -14 13h-4
q-9 -1 -14 -6q-1 -1 -2 -2.5t0 -2.5q0 -5 6 -7q1 0 3.5 -0.5t4.5 -0.5t6 0.5t6 0.5zM499 303q-1 0 -19.5 -1.5t-27.5 -1.5q-20 0 -30 1q-43 -75 -88 -124q-63 -71 -121 -77h-10q-35 0 -61 23q-40 32 -40 98q0 42 23 74q33 47 88 47q30 0 44 -20q9 -12 9 -30q0 -19 -10 -38
q-2 -2 -5 -2q-7 0 -5 7q9 18 9 33t-7 23q-11 16 -37 16q-46 0 -77 -42q-21 -30 -21 -69q0 -54 27 -81.5t64 -27.5q94 0 206 192q-50 6 -91 29q-68 38 -88 106q0 6 4 7q5 2 7 -4q19 -64 83 -99q42 -23 92 -29q15 25 29 54q30 60 48 105q2 63 13 109.5t25 57.5q6 3 10 3
q11 0 11 -16q0 -40 -48 -156q-2 -62 4 -121v-1q0 -26 1 -38v-1q5 -80 24 -128q24 -62 75 -62q12 0 22 2.5t17 6t12.5 8t8.5 9t5.5 8.5t3.5 7l1 2q0 3 4 3q7 0 6 -6q0 -3 -5.5 -13.5t-25.5 -24t-49 -13.5q-57 0 -86 69q-19 46 -24 126zM542 631q-2 0 -3 -1q-22 -17 -32 -126
l14 38q26 76 21 89zM633 573q-13 -3 -21 -12q-5 -8 -5 -17q0 -13 7.5 -19.5t16.5 -6.5q24 0 38 36q-21 19 -33 19h-3zM1157 510l-1 -2v-2q0 -6 7 -23q3 15 3 24q-1 6 -4 6q-4 0 -5 -3zM979 365q8 -38 14 -50q19 13 36 33q43 51 43 106q0 27 -26 27q-21 0 -39 -21
q-29 -32 -29 -80q0 -10 1 -15zM901 404l6 24q-2 2 -2 3q0 2 -1.5 8t-8.5 14t-18 8h-4q-36 -5 -61 -42q-27 -40 -27 -90q0 -11 1 -16q2 -23 12 -33q7 -7 18 -7q14 0 26 12.5t19.5 27.5t21.5 50zM494 443q-28 -64 -54 -110l-12 -21q8 -1 25 -1q22 0 46 3q-1 11 -1 34
q-5 56 -4 95zM1247 272q14 16 11 40q-2 21 -32 60q-58 -49 -58 -79q0 -35 45 -35q20 0 34 14zM575 209q15 11 29 58q12 36 16 72q-39 -80 -45 -130zM1148 -132q2 6 6 5q15 -1 28.5 -11t13.5 -31q0 -52 -72 -52q-79 0 -198 39l-4 -12q-21 -63 -41 -63h-1q-6 0 -9 5
q-3 4 -3 16q0 20 12 68q-18 5 -31 8q-24 -69 -67 -69q-17 0 -30.5 10.5t-13.5 31.5t16 34t41 13q21 0 47 -6q7 20 17 66q-24 -29 -47 -29t-26 24q-22 -26 -60 -29h-4q-14 0 -26 10q-12 13 -13 33v9q-87 -169 -202 -169q-68 0 -107 41q-38 40 -38 96q0 48 28 84t87 36
q42 0 67.5 -24t25.5 -66t-30 -61q-4 -4 -8 2q-2 5 2 7q25 16 25 54q0 11 -3 23q-17 54 -79 54q-53 0 -78.5 -33t-25.5 -76q0 -53 35 -88q36 -38 99 -38q120 0 208 196q11 52 30 114q-29 -5 -55 -13q-35 -12 -35 -32q0 -17 18 -17l16 4q6 2 7 -2q3 -4 -1 -8l-3 -1
q-3 -1 -8 -2.5t-11 -1.5q-12 0 -20.5 7.5t-8.5 20.5q0 29 42 42q20 6 63 15q27 89 42 106q4 4 8 4q8 0 13 -7q3 -5 3 -14q0 -25 -26 -83q12 2 38 4q64 6 93 15q31 8 31 34q0 13 -7 20.5t-16 7.5q-11 0 -21 -8.5t-12 -22.5q0 -5 -6 -5q-5 2 -5 7q2 18 15.5 29t28.5 11
q13 0 23.5 -10.5t10.5 -28.5q0 -34 -39 -45q-30 -9 -95 -15q-14 -1 -44 -5l-30 -64q-11 -22 -27 -58l-1 -1q-6 -31 -6 -43q2 -19 10 -26q10 -8 22 -7q45 4 65 44v1q10 23 18 37q27 50 27 70q0 8 -4 14q-4 4 -10 4q-9 0 -14 -7q-4 -4 -4 -15q0 -8 1 -13q2 -5 -4 -7
q-5 -2 -7 4q-1 5 -1 14q0 15 6 24q7 9 22 11h3q10 0 16 -8q7 -7 7 -22q0 -23 -28 -75q-22 -40 -22 -54q0 -17 16 -17q22 0 51 43q0 4 2 10q6 31 9.5 47.5t9.5 35.5t13 27.5t17 9.5q4 0 7 -3q2 -2 2 -9q0 -10 -6 -27q-7 -25 -22 -56q-17 -32 -22 -39q-12 -64 -21 -90l30 -9
l6 19q29 84 63 153q1 12 1 33q0 46 -11 56q-3 3 0 8q4 3 7 0q17 -15 15 -75q38 64 63 64q15 0 22 -14t7 -47q0 -35 -12 -64q-16 -42 -46 -45q-26 -1 -42 21q-10 -64 -27 -123q118 -38 195 -38q61 0 61 41q0 13 -8 20.5t-14.5 9t-9.5 1.5q-5 2 -5 6zM777 199q-2 2 -4 2
q-11 -11 -38 -97q10 2 15 2l14 34q19 47 13 59zM1227 50q1 3 5 3q7 0 5 -7t-11 -24t-35.5 -40t-58.5 -25h-4q-20 0 -35 13.5t-16 39.5q-5 58 29 92q20 23 46 23q36 0 36 -32q3 -27 -32 -52q-32 -21 -69 -24q0 -4 1 -6q3 -45 44 -43q28 2 52 23t33.5 38.5t9.5 20.5zM1152 115
q-20 0 -38 -21q-25 -25 -27 -66q35 3 63 22q29 21 27 42v1q0 22 -25 22zM731 92q-1 -3 -2.5 -8.5t-2.5 -8.5l-14 -50l6 12l26 57q-3 0 -13 -2zM1027 89q-23 0 -64 -78q-1 -14 -5 -42q14 -28 37 -28q22 0 36 31.5t14 67.5q0 30 -6 41q-4 8 -12 8zM880 -26q33 61 33 89
q-16 -5 -33 -89zM949 -17q-13 -26 -30 -70q-18 -46 -25 -74l24 -8q19 61 29 138v1q2 8 2 13zM749 -187q0 -31 33 -31q34 0 57 61q-25 6 -44 6q-20 0 -33 -10t-13 -26zM880 -246q13 0 32 56l3 11l-6 2q-12 4 -18 5l-6 -22q-6 -26 -6 -42z" />
    <glyph glyph-name="A.ss01" horiz-adv-x="582" 
d="M-5 0l250 615l-28 85h105l253 -700h-115l-51 149h-244l-56 -149h-114zM197 235h183l-87 254z" />
    <glyph glyph-name="Aacute.ss01" horiz-adv-x="582" 
d="M332 938l59 -89l-175 -100l-42 63zM-5 0l250 615l-28 85h105l253 -700h-115l-51 149h-244l-56 -149h-114zM197 235h183l-87 254z" />
    <glyph glyph-name="Abreve.ss01" horiz-adv-x="582" 
d="M155 885h81q0 -60 49 -60t49 60h81v-9q0 -124 -130 -124t-130 124v9zM-5 0l250 615l-28 85h105l253 -700h-115l-51 149h-244l-56 -149h-114zM197 235h183l-87 254z" />
    <glyph glyph-name="Acircumflex.ss01" horiz-adv-x="582" 
d="M229 903h112l101 -115l-85 -37l-72 88l-72 -88l-85 37zM-5 0l250 615l-28 85h105l253 -700h-115l-51 149h-244l-56 -149h-114zM197 235h183l-87 254z" />
    <glyph glyph-name="Adieresis.ss01" horiz-adv-x="582" 
d="M176 752q-26 0 -40.5 16t-14.5 42q0 28 14.5 44.5t40.5 16.5q27 0 42 -16.5t15 -44.5q0 -26 -15 -42t-42 -16zM391 752q-26 0 -40.5 16t-14.5 42q0 28 14.5 44.5t40.5 16.5q27 0 42 -16.5t15 -44.5q0 -26 -15 -42t-42 -16zM-5 0l250 615l-28 85h105l253 -700h-115
l-51 149h-244l-56 -149h-114zM197 235h183l-87 254z" />
    <glyph glyph-name="uni1EA0.ss01" horiz-adv-x="582" 
d="M-5 0l250 615l-28 85h105l253 -700h-115l-51 149h-244l-56 -149h-114zM197 235h183l-87 254zM285 -181q-30 0 -48 16t-18 46t18 46.5t48 16.5q29 0 47.5 -16.5t18.5 -46.5t-18 -46t-48 -16z" />
    <glyph glyph-name="Agrave.ss01" horiz-adv-x="582" 
d="M237 938l158 -126l-42 -63l-175 100zM-5 0l250 615l-28 85h105l253 -700h-115l-51 149h-244l-56 -149h-114zM197 235h183l-87 254z" />
    <glyph glyph-name="Amacron.ss01" horiz-adv-x="582" 
d="M143 846h284v-83h-284v83zM-5 0l250 615l-28 85h105l253 -700h-115l-51 149h-244l-56 -149h-114zM197 235h183l-87 254z" />
    <glyph glyph-name="Aogonek.ss01" horiz-adv-x="582" 
d="M525 -105q14 0 23 4l13 -68q-28 -13 -69 -13q-39 0 -64 21t-25 58q0 34 19.5 62t48.5 41h-11l-51 149h-244l-56 -149h-114l250 615l-28 85h105l253 -700h-26q-53 -28 -53 -70q0 -35 29 -35zM197 235h183l-87 254z" />
    <glyph glyph-name="Aring.ss01" horiz-adv-x="582" 
d="M194 824q0 40 25 64t66 24t66 -24t25 -64v-10q0 -41 -24.5 -64.5t-66.5 -23.5t-66.5 23.5t-24.5 64.5v10zM285 779q35 0 35 39q0 40 -35 40t-35 -40q0 -39 35 -39zM-5 0l250 615l-28 85h105l253 -700h-115l-51 149h-244l-56 -149h-114zM197 235h183l-87 254z" />
    <glyph glyph-name="Aringacute.ss01" horiz-adv-x="582" 
d="M274 726q-42 0 -66.5 23.5t-24.5 64.5v10q0 40 25 64t66 24q20 0 36 -6l129 103l59 -89l-135 -77q2 -12 2 -19v-10q0 -41 -24.5 -64.5t-66.5 -23.5zM274 858q-35 0 -35 -40q0 -39 35 -39t35 39q0 40 -35 40zM322 700l253 -700h-115l-51 149h-244l-56 -149h-114l250 615
l-28 85h105zM197 235h183l-87 254z" />
    <glyph glyph-name="Atilde.ss01" horiz-adv-x="582" 
d="M124 771q5 44 32 71t72 27q32 0 65.5 -14.5t49.5 -14.5q15 0 21 7.5t10 22.5l72 -16q-4 -43 -30 -70t-66 -27q-34 0 -71 14.5t-51 14.5q-26 0 -33 -31zM-5 0l250 615l-28 85h105l253 -700h-115l-51 149h-244l-56 -149h-114zM197 235h183l-87 254z" />
    <glyph glyph-name="B.ss01" horiz-adv-x="586" 
d="M325 0q-130 0 -249 35v665h247q100 0 149 -42t49 -133v-32q0 -33 -18.5 -69t-50.5 -55q37 -13 62.5 -54.5t25.5 -86.5v-53q0 -78 -57.5 -126.5t-157.5 -48.5zM179 405h155q37 0 59.5 24.5t22.5 72.5v9q0 55 -22.5 75t-75.5 20h-139v-201zM311 93q59 1 92 26.5t33 67.5v34
q0 46 -24 73t-66 27h-167v-211q77 -18 132 -17z" />
    <glyph glyph-name="D.ss01" horiz-adv-x="599" 
d="M315 0q-131 0 -239 37v663h247q102 0 161.5 -60.5t59.5 -162.5v-254q0 -103 -60 -163t-169 -60zM311 93q129 0 129 143v228q0 69 -30 105t-87 36h-143v-496q61 -16 131 -16z" />
    <glyph glyph-name="Dcaron.ss01" horiz-adv-x="599" 
d="M251 751l-101 115l85 37l72 -88l72 88l85 -37l-101 -115h-112zM315 0q-131 0 -239 37v663h247q102 0 161.5 -60.5t59.5 -162.5v-254q0 -103 -60 -163t-169 -60zM311 93q129 0 129 143v228q0 69 -30 105t-87 36h-143v-496q61 -16 131 -16z" />
    <glyph glyph-name="Dcroat.ss01" horiz-adv-x="601" 
d="M325 700q102 0 161.5 -60.5t59.5 -162.5v-254q0 -103 -60 -163t-169 -60q-131 0 -239 37v274h-51v78h51v311h247zM442 236v228q0 69 -30 105t-87 36h-143v-216h144v-78h-144v-202q61 -16 131 -16q129 0 129 143z" />
    <glyph glyph-name="P.ss01" horiz-adv-x="588" 
d="M77 0v700h257q105 0 163 -60t58 -163v-46q0 -103 -62.5 -163t-168.5 -60q-80 0 -144 23v-231h-103zM324 301q61 0 94 36.5t33 105.5v21q0 141 -121 141h-150v-284q59 -20 144 -20z" />
    <glyph glyph-name="Q.ss01" horiz-adv-x="616" 
d="M308 -14q-109 0 -181.5 61t-72.5 163v281q0 101 72.5 162t181.5 61t181.5 -61t72.5 -162v-281q0 -102 -72.5 -163t-181.5 -61zM308 80q66 0 108 37.5t42 105.5v255q0 67 -42 104.5t-108 37.5q-65 0 -107.5 -37.5t-42.5 -104.5v-255q0 -68 42.5 -105.5t107.5 -37.5z
M445 -174q-37 0 -81.5 23.5t-68.5 23.5q-40 0 -77 -23l-30 56q14 18 45 33.5t64 15.5q36 0 81 -24t64 -24q42 0 81 24l29 -57q-16 -20 -45.5 -34t-61.5 -14z" />
    <glyph glyph-name="R.ss01" horiz-adv-x="578" 
d="M542 467q0 -76 -43 -125.5t-110 -64.5l141 -277h-116l-134 272q-63 4 -99 13v-285h-104v700h251q97 0 155.5 -55.5t58.5 -141.5v-36zM437 480v11q0 51 -29 82.5t-80 31.5h-147v-227q54 -15 143 -15q54 0 83.5 33t29.5 84z" />
    <glyph glyph-name="Racute.ss01" horiz-adv-x="578" 
d="M406 849l-175 -100l-42 63l158 126zM542 467q0 -76 -43 -125.5t-110 -64.5l141 -277h-116l-134 272q-63 4 -99 13v-285h-104v700h251q97 0 155.5 -55.5t58.5 -141.5v-36zM437 480v11q0 51 -29 82.5t-80 31.5h-147v-227q54 -15 143 -15q54 0 83.5 33t29.5 84z" />
    <glyph glyph-name="Rcaron.ss01" horiz-adv-x="578" 
d="M356 751h-112l-101 115l85 37l72 -88l72 88l85 -37zM542 467q0 -76 -43 -125.5t-110 -64.5l141 -277h-116l-134 272q-63 4 -99 13v-285h-104v700h251q97 0 155.5 -55.5t58.5 -141.5v-36zM437 480v11q0 51 -29 82.5t-80 31.5h-147v-227q54 -15 143 -15q54 0 83.5 33
t29.5 84z" />
    <glyph glyph-name="Rcommaaccent.ss01" horiz-adv-x="578" 
d="M542 467q0 -76 -43 -125.5t-110 -64.5l141 -277h-116l-134 272q-63 4 -99 13v-285h-104v700h251q97 0 155.5 -55.5t58.5 -141.5v-36zM437 480v11q0 51 -29 82.5t-80 31.5h-147v-227q54 -15 143 -15q54 0 83.5 33t29.5 84zM302 -44q30 0 48 -17.5t18 -52.5q0 -93 -79 -150
l-41 33q35 36 30 65q-42 11 -42 59q0 30 18 46.5t48 16.5z" />
    <glyph glyph-name="U.ss01" horiz-adv-x="629" 
d="M270 -14q-198 0 -198 209v505h105v-491q0 -69 26.5 -100t85.5 -31q45 0 85 23.5t61 56.5v542h104v-590q0 -52 58 -33v-80q-70 -13 -105.5 1t-46.5 66q-70 -78 -175 -78z" />
    <glyph glyph-name="Uacute.ss01" horiz-adv-x="629" 
d="M358 938l59 -89l-175 -100l-42 63zM270 -14q-198 0 -198 209v505h105v-491q0 -69 26.5 -100t85.5 -31q45 0 85 23.5t61 56.5v542h104v-590q0 -52 58 -33v-80q-70 -13 -105.5 1t-46.5 66q-70 -78 -175 -78z" />
    <glyph glyph-name="Ubreve.ss01" horiz-adv-x="629" 
d="M181 885h81q0 -60 49 -60t49 60h81v-9q0 -124 -130 -124t-130 124v9zM270 -14q-198 0 -198 209v505h105v-491q0 -69 26.5 -100t85.5 -31q45 0 85 23.5t61 56.5v542h104v-590q0 -52 58 -33v-80q-70 -13 -105.5 1t-46.5 66q-70 -78 -175 -78z" />
    <glyph glyph-name="Ucircumflex.ss01" horiz-adv-x="629" 
d="M255 903h112l101 -115l-85 -37l-72 88l-72 -88l-85 37zM270 -14q-198 0 -198 209v505h105v-491q0 -69 26.5 -100t85.5 -31q45 0 85 23.5t61 56.5v542h104v-590q0 -52 58 -33v-80q-70 -13 -105.5 1t-46.5 66q-70 -78 -175 -78z" />
    <glyph glyph-name="Udieresis.ss01" horiz-adv-x="629" 
d="M202 752q-26 0 -40.5 16t-14.5 42q0 28 14.5 44.5t40.5 16.5q27 0 42 -16.5t15 -44.5q0 -26 -15 -42t-42 -16zM417 752q-26 0 -40.5 16t-14.5 42q0 28 14.5 44.5t40.5 16.5q27 0 42 -16.5t15 -44.5q0 -26 -15 -42t-42 -16zM270 -14q-198 0 -198 209v505h105v-491
q0 -69 26.5 -100t85.5 -31q45 0 85 23.5t61 56.5v542h104v-590q0 -52 58 -33v-80q-70 -13 -105.5 1t-46.5 66q-70 -78 -175 -78z" />
    <glyph glyph-name="uni1EE4.ss01" horiz-adv-x="629" 
d="M270 -14q-198 0 -198 209v505h105v-491q0 -69 26.5 -100t85.5 -31q45 0 85 23.5t61 56.5v542h104v-590q0 -52 58 -33v-80q-70 -13 -105.5 1t-46.5 66q-70 -78 -175 -78zM311 -181q-30 0 -48 16t-18 46t18 46.5t48 16.5q29 0 47.5 -16.5t18.5 -46.5t-18 -46t-48 -16z" />
    <glyph glyph-name="Ugrave.ss01" horiz-adv-x="629" 
d="M263 938l158 -126l-42 -63l-175 100zM270 -14q-198 0 -198 209v505h105v-491q0 -69 26.5 -100t85.5 -31q45 0 85 23.5t61 56.5v542h104v-590q0 -52 58 -33v-80q-70 -13 -105.5 1t-46.5 66q-70 -78 -175 -78z" />
    <glyph glyph-name="Uhungarumlaut.ss01" horiz-adv-x="629" 
d="M232 932l71 -72l-131 -116l-49 49zM428 932l71 -72l-131 -116l-49 49zM270 -14q-198 0 -198 209v505h105v-491q0 -69 26.5 -100t85.5 -31q45 0 85 23.5t61 56.5v542h104v-590q0 -52 58 -33v-80q-70 -13 -105.5 1t-46.5 66q-70 -78 -175 -78z" />
    <glyph glyph-name="Umacron.ss01" horiz-adv-x="629" 
d="M169 846h284v-83h-284v83zM270 -14q-198 0 -198 209v505h105v-491q0 -69 26.5 -100t85.5 -31q45 0 85 23.5t61 56.5v542h104v-590q0 -52 58 -33v-80q-70 -13 -105.5 1t-46.5 66q-70 -78 -175 -78z" />
    <glyph glyph-name="Uogonek.ss01" horiz-adv-x="629" 
d="M596 -104l13 -68q-28 -13 -69 -13q-39 0 -64 21t-25 58q0 31 16.5 57.5t42.5 40.5q-52 10 -65 72q-70 -78 -175 -78q-198 0 -198 209v505h105v-491q0 -69 26.5 -100t85.5 -31q45 0 85 23.5t61 56.5v542h104v-590q0 -52 58 -33v-80q-53 -28 -53 -70q0 -35 29 -35
q14 0 23 4z" />
    <glyph glyph-name="Uring.ss01" horiz-adv-x="629" 
d="M220 824q0 40 25 64t66 24t66 -24t25 -64v-10q0 -41 -24.5 -64.5t-66.5 -23.5t-66.5 23.5t-24.5 64.5v10zM311 779q35 0 35 39q0 40 -35 40t-35 -40q0 -39 35 -39zM270 -14q-198 0 -198 209v505h105v-491q0 -69 26.5 -100t85.5 -31q45 0 85 23.5t61 56.5v542h104v-590
q0 -52 58 -33v-80q-70 -13 -105.5 1t-46.5 66q-70 -78 -175 -78z" />
    <glyph glyph-name="Utilde.ss01" horiz-adv-x="629" 
d="M150 771q5 44 32 71t72 27q32 0 65.5 -14.5t49.5 -14.5q15 0 21 7.5t10 22.5l72 -16q-4 -43 -30 -70t-66 -27q-34 0 -71 14.5t-51 14.5q-26 0 -33 -31zM270 -14q-198 0 -198 209v505h105v-491q0 -69 26.5 -100t85.5 -31q45 0 85 23.5t61 56.5v542h104v-590q0 -52 58 -33
v-80q-70 -13 -105.5 1t-46.5 66q-70 -78 -175 -78z" />
    <glyph glyph-name="W.ss01" horiz-adv-x="808" 
d="M698 700h106l-209 -700h-94l-97 271l-95 -271h-95l-211 700h109l151 -574l90 270l-113 304h102l62 -188l64 188h101l-115 -298l96 -277z" />
    <glyph glyph-name="Wacute.ss01" horiz-adv-x="808" 
d="M513 849l-175 -100l-42 63l158 126zM698 700h106l-209 -700h-94l-97 271l-95 -271h-95l-211 700h109l151 -574l90 270l-113 304h102l62 -188l64 188h101l-115 -298l96 -277z" />
    <glyph glyph-name="Wcircumflex.ss01" horiz-adv-x="808" 
d="M407 839l-72 -88l-85 37l101 115h112l101 -115l-85 -37zM698 700h106l-209 -700h-94l-97 271l-95 -271h-95l-211 700h109l151 -574l90 270l-113 304h102l62 -188l64 188h101l-115 -298l96 -277z" />
    <glyph glyph-name="Wdieresis.ss01" horiz-adv-x="808" 
d="M298 752q-26 0 -40.5 16t-14.5 42q0 28 14.5 44.5t40.5 16.5q27 0 42 -16.5t15 -44.5q0 -26 -15 -42t-42 -16zM513 752q-26 0 -40.5 16t-14.5 42q0 28 14.5 44.5t40.5 16.5q27 0 42 -16.5t15 -44.5q0 -26 -15 -42t-42 -16zM698 700h106l-209 -700h-94l-97 271l-95 -271
h-95l-211 700h109l151 -574l90 270l-113 304h102l62 -188l64 188h101l-115 -298l96 -277z" />
    <glyph glyph-name="Wgrave.ss01" horiz-adv-x="808" 
d="M517 812l-42 -63l-175 100l59 89zM698 700h106l-209 -700h-94l-97 271l-95 -271h-95l-211 700h109l151 -574l90 270l-113 304h102l62 -188l64 188h101l-115 -298l96 -277z" />
    <glyph glyph-name="Z.ss01" horiz-adv-x="533" 
d="M180 94h321v-94h-469l-1 69q125 148 208.5 274.5t125.5 262.5h-323v94h444v-71q-86 -253 -306 -535z" />
    <glyph glyph-name="Zacute.ss01" horiz-adv-x="533" 
d="M372 849l-175 -100l-42 63l158 126zM180 94h321v-94h-469l-1 69q125 148 208.5 274.5t125.5 262.5h-323v94h444v-71q-86 -253 -306 -535z" />
    <glyph glyph-name="Zcaron.ss01" horiz-adv-x="533" 
d="M322 751h-112l-101 115l85 37l72 -88l72 88l85 -37zM180 94h321v-94h-469l-1 69q125 148 208.5 274.5t125.5 262.5h-323v94h444v-71q-86 -253 -306 -535z" />
    <glyph glyph-name="Zdotaccent.ss01" horiz-adv-x="533" 
d="M266 761q-31 0 -49 16t-18 47t18 47.5t49 16.5q30 0 48.5 -16.5t18.5 -47.5t-18.5 -47t-48.5 -16zM180 94h321v-94h-469l-1 69q125 148 208.5 274.5t125.5 262.5h-323v94h444v-71q-86 -253 -306 -535z" />
    <glyph glyph-name="U.ss02" horiz-adv-x="611" 
d="M305 -14q-100 0 -166.5 60t-66.5 161v493h105v-480q0 -68 36.5 -104t91.5 -36q58 0 94 38.5t36 115.5v466h104v-481q0 -110 -66 -171.5t-168 -61.5z" />
    <glyph glyph-name="Uacute.ss02" horiz-adv-x="611" 
d="M352 938l59 -89l-175 -100l-42 63zM305 -14q-100 0 -166.5 60t-66.5 161v493h105v-480q0 -68 36.5 -104t91.5 -36q58 0 94 38.5t36 115.5v466h104v-481q0 -110 -66 -171.5t-168 -61.5z" />
    <glyph glyph-name="Ubreve.ss02" horiz-adv-x="611" 
d="M175 885h81q0 -60 49 -60t49 60h81v-9q0 -124 -130 -124t-130 124v9zM305 -14q-100 0 -166.5 60t-66.5 161v493h105v-480q0 -68 36.5 -104t91.5 -36q58 0 94 38.5t36 115.5v466h104v-481q0 -110 -66 -171.5t-168 -61.5z" />
    <glyph glyph-name="Ucircumflex.ss02" horiz-adv-x="611" 
d="M249 903h112l101 -115l-85 -37l-72 88l-72 -88l-85 37zM305 -14q-100 0 -166.5 60t-66.5 161v493h105v-480q0 -68 36.5 -104t91.5 -36q58 0 94 38.5t36 115.5v466h104v-481q0 -110 -66 -171.5t-168 -61.5z" />
    <glyph glyph-name="Udieresis.ss02" horiz-adv-x="611" 
d="M196 752q-26 0 -40.5 16t-14.5 42q0 28 14.5 44.5t40.5 16.5q27 0 42 -16.5t15 -44.5q0 -26 -15 -42t-42 -16zM411 752q-26 0 -40.5 16t-14.5 42q0 28 14.5 44.5t40.5 16.5q27 0 42 -16.5t15 -44.5q0 -26 -15 -42t-42 -16zM305 -14q-100 0 -166.5 60t-66.5 161v493h105
v-480q0 -68 36.5 -104t91.5 -36q58 0 94 38.5t36 115.5v466h104v-481q0 -110 -66 -171.5t-168 -61.5z" />
    <glyph glyph-name="uni1EE4.ss02" horiz-adv-x="611" 
d="M305 -14q-100 0 -166.5 60t-66.5 161v493h105v-480q0 -68 36.5 -104t91.5 -36q58 0 94 38.5t36 115.5v466h104v-481q0 -110 -66 -171.5t-168 -61.5zM305 -181q-30 0 -48 16t-18 46t18 46.5t48 16.5q29 0 47.5 -16.5t18.5 -46.5t-18 -46t-48 -16z" />
    <glyph glyph-name="Ugrave.ss02" horiz-adv-x="611" 
d="M257 938l158 -126l-42 -63l-175 100zM305 -14q-100 0 -166.5 60t-66.5 161v493h105v-480q0 -68 36.5 -104t91.5 -36q58 0 94 38.5t36 115.5v466h104v-481q0 -110 -66 -171.5t-168 -61.5z" />
    <glyph glyph-name="Uhungarumlaut.ss02" horiz-adv-x="611" 
d="M226 932l71 -72l-131 -116l-49 49zM422 932l71 -72l-131 -116l-49 49zM305 -14q-100 0 -166.5 60t-66.5 161v493h105v-480q0 -68 36.5 -104t91.5 -36q58 0 94 38.5t36 115.5v466h104v-481q0 -110 -66 -171.5t-168 -61.5z" />
    <glyph glyph-name="Umacron.ss02" horiz-adv-x="611" 
d="M163 846h284v-83h-284v83zM305 -14q-100 0 -166.5 60t-66.5 161v493h105v-480q0 -68 36.5 -104t91.5 -36q58 0 94 38.5t36 115.5v466h104v-481q0 -110 -66 -171.5t-168 -61.5z" />
    <glyph glyph-name="Uogonek.ss02" horiz-adv-x="611" 
d="M435 700h104v-481q0 -84 -39.5 -140t-106.5 -79q-53 -28 -53 -70q0 -35 29 -35q14 0 23 4l13 -68q-28 -13 -69 -13q-39 0 -64 21t-25 58q0 54 45 89q-95 5 -157.5 64t-62.5 157v493h105v-480q0 -68 36.5 -104t91.5 -36q58 0 94 38.5t36 115.5v466z" />
    <glyph glyph-name="Uring.ss02" horiz-adv-x="611" 
d="M214 824q0 40 25 64t66 24t66 -24t25 -64v-10q0 -41 -24.5 -64.5t-66.5 -23.5t-66.5 23.5t-24.5 64.5v10zM305 779q35 0 35 39q0 40 -35 40t-35 -40q0 -39 35 -39zM305 -14q-100 0 -166.5 60t-66.5 161v493h105v-480q0 -68 36.5 -104t91.5 -36q58 0 94 38.5t36 115.5v466
h104v-481q0 -110 -66 -171.5t-168 -61.5z" />
    <glyph glyph-name="Utilde.ss02" horiz-adv-x="611" 
d="M144 771q5 44 32 71t72 27q32 0 65.5 -14.5t49.5 -14.5q15 0 21 7.5t10 22.5l72 -16q-4 -43 -30 -70t-66 -27q-34 0 -71 14.5t-51 14.5q-26 0 -33 -31zM305 -14q-100 0 -166.5 60t-66.5 161v493h105v-480q0 -68 36.5 -104t91.5 -36q58 0 94 38.5t36 115.5v466h104v-481
q0 -110 -66 -171.5t-168 -61.5z" />
    <glyph glyph-name="i.loclTRK" horiz-adv-x="230" 
d="M182 660q0 -31 -18.5 -47t-48.5 -16q-31 0 -49 16t-18 47t18 47.5t49 16.5q30 0 48.5 -16.5t18.5 -47.5zM165 520v-520h-100v520h100z" />
    <glyph glyph-name="a.ss01" horiz-adv-x="544" 
d="M230 -10q-90 0 -136 53.5t-46 151.5v132q0 94 53.5 148.5t144.5 54.5q76 0 128 -35l14 25h73v-410q0 -39 30 -39q13 0 28 5v-79q-30 -6 -54 -6q-73 0 -88 61q-57 -62 -147 -62zM244 78q72 0 117 62v275q-44 25 -107 25q-106 0 -106 -121v-111q0 -130 96 -130z" />
    <glyph glyph-name="aacute.ss01" horiz-adv-x="544" 
d="M315 751l75 -74l-135 -121l-54 55zM230 -10q-90 0 -136 53.5t-46 151.5v132q0 94 53.5 148.5t144.5 54.5q76 0 128 -35l14 25h73v-410q0 -39 30 -39q13 0 28 5v-79q-30 -6 -54 -6q-73 0 -88 61q-57 -62 -147 -62zM244 78q72 0 117 62v275q-44 25 -107 25
q-106 0 -106 -121v-111q0 -130 96 -130z" />
    <glyph glyph-name="abreve.ss01" horiz-adv-x="544" 
d="M135 706h81q0 -60 47 -60t47 60h81v-9q0 -63 -34.5 -93.5t-93.5 -30.5t-93.5 30.5t-34.5 93.5v9zM230 -10q-90 0 -136 53.5t-46 151.5v132q0 94 53.5 148.5t144.5 54.5q76 0 128 -35l14 25h73v-410q0 -39 30 -39q13 0 28 5v-79q-30 -6 -54 -6q-73 0 -88 61
q-57 -62 -147 -62zM244 78q72 0 117 62v275q-44 25 -107 25q-106 0 -106 -121v-111q0 -130 96 -130z" />
    <glyph glyph-name="acircumflex.ss01" horiz-adv-x="544" 
d="M315 719l102 -114l-80 -37l-74 88l-74 -88l-80 37l102 114h104zM230 -10q-90 0 -136 53.5t-46 151.5v132q0 94 53.5 148.5t144.5 54.5q76 0 128 -35l14 25h73v-410q0 -39 30 -39q13 0 28 5v-79q-30 -6 -54 -6q-73 0 -88 61q-57 -62 -147 -62zM244 78q72 0 117 62v275
q-44 25 -107 25q-106 0 -106 -121v-111q0 -130 96 -130z" />
    <glyph glyph-name="adieresis.ss01" horiz-adv-x="544" 
d="M166 585q-26 0 -40.5 16t-14.5 42q0 28 14.5 44.5t40.5 16.5q27 0 42 -16.5t15 -44.5q0 -26 -15 -42t-42 -16zM357 585q-26 0 -40.5 16t-14.5 42q0 28 14.5 44.5t40.5 16.5q27 0 42 -16.5t15 -44.5q0 -26 -15 -42t-42 -16zM230 -10q-90 0 -136 53.5t-46 151.5v132
q0 94 53.5 148.5t144.5 54.5q76 0 128 -35l14 25h73v-410q0 -39 30 -39q13 0 28 5v-79q-30 -6 -54 -6q-73 0 -88 61q-57 -62 -147 -62zM244 78q72 0 117 62v275q-44 25 -107 25q-106 0 -106 -121v-111q0 -130 96 -130z" />
    <glyph glyph-name="uni1EA1.ss01" horiz-adv-x="544" 
d="M230 -10q-90 0 -136 53.5t-46 151.5v132q0 94 53.5 148.5t144.5 54.5q76 0 128 -35l14 25h73v-410q0 -39 30 -39q13 0 28 5v-79q-30 -6 -54 -6q-73 0 -88 61q-57 -62 -147 -62zM244 78q72 0 117 62v275q-44 25 -107 25q-106 0 -106 -121v-111q0 -130 96 -130zM265 -181
q-30 0 -48 16t-18 46t18 46.5t48 16.5q29 0 47.5 -16.5t18.5 -46.5t-18 -46t-48 -16z" />
    <glyph glyph-name="agrave.ss01" horiz-adv-x="544" 
d="M206 751l114 -140l-54 -55l-135 121zM230 -10q-90 0 -136 53.5t-46 151.5v132q0 94 53.5 148.5t144.5 54.5q76 0 128 -35l14 25h73v-410q0 -39 30 -39q13 0 28 5v-79q-30 -6 -54 -6q-73 0 -88 61q-57 -62 -147 -62zM244 78q72 0 117 62v275q-44 25 -107 25
q-106 0 -106 -121v-111q0 -130 96 -130z" />
    <glyph glyph-name="amacron.ss01" horiz-adv-x="544" 
d="M121 679h284v-81h-284v81zM230 -10q-90 0 -136 53.5t-46 151.5v132q0 94 53.5 148.5t144.5 54.5q76 0 128 -35l14 25h73v-410q0 -39 30 -39q13 0 28 5v-79q-30 -6 -54 -6q-73 0 -88 61q-57 -62 -147 -62zM244 78q72 0 117 62v275q-44 25 -107 25q-106 0 -106 -121v-111
q0 -130 96 -130z" />
    <glyph glyph-name="aogonek.ss01" horiz-adv-x="544" 
d="M518 -104l13 -68q-28 -13 -69 -13q-39 0 -64 21t-25 58q0 32 17.5 59t44.5 41q-46 10 -58 58q-57 -62 -147 -62t-136 53.5t-46 151.5v132q0 94 53.5 148.5t144.5 54.5q76 0 128 -35l14 25h73v-410q0 -39 30 -39q13 0 28 5v-79q-53 -28 -53 -70q0 -35 29 -35q14 0 23 4z
M361 140v275q-44 25 -107 25q-106 0 -106 -121v-111q0 -130 96 -130q72 0 117 62z" />
    <glyph glyph-name="aring.ss01" horiz-adv-x="544" 
d="M174 655q0 39 24 63t63 24q40 0 65 -24t25 -63v-10q0 -41 -25 -64t-65 -23q-39 0 -63 23t-24 64v10zM261 609q36 0 36 40q0 41 -36 41q-33 0 -33 -41q0 -40 33 -40zM230 -10q-90 0 -136 53.5t-46 151.5v132q0 94 53.5 148.5t144.5 54.5q76 0 128 -35l14 25h73v-410
q0 -39 30 -39q13 0 28 5v-79q-30 -6 -54 -6q-73 0 -88 61q-57 -62 -147 -62zM244 78q72 0 117 62v275q-44 25 -107 25q-106 0 -106 -121v-111q0 -130 96 -130z" />
    <glyph glyph-name="aringacute.ss01" horiz-adv-x="544" 
d="M261 558q-39 0 -63 23t-24 64v10q0 39 24 63t63 24q9 0 13 -1l98 120l81 -80l-107 -96q5 -15 5 -30v-10q0 -41 -25 -64t-65 -23zM261 690q-33 0 -33 -41q0 -40 33 -40q36 0 36 40q0 41 -36 41zM491 71q13 0 28 5v-79q-30 -6 -54 -6q-73 0 -88 61q-57 -62 -147 -62
t-136 53.5t-46 151.5v132q0 94 53.5 148.5t144.5 54.5q76 0 128 -35l14 25h73v-410q0 -39 30 -39zM361 140v275q-44 25 -107 25q-106 0 -106 -121v-111q0 -130 96 -130q72 0 117 62z" />
    <glyph glyph-name="atilde.ss01" horiz-adv-x="544" 
d="M103 604q4 43 31 69.5t72 26.5q32 0 65.5 -16.5t49.5 -16.5q27 0 33 32l69 -15q-4 -42 -29.5 -70t-65.5 -28q-34 0 -71 16.5t-51 16.5q-29 0 -36 -30zM230 -10q-90 0 -136 53.5t-46 151.5v132q0 94 53.5 148.5t144.5 54.5q76 0 128 -35l14 25h73v-410q0 -39 30 -39
q13 0 28 5v-79q-30 -6 -54 -6q-73 0 -88 61q-57 -62 -147 -62zM244 78q72 0 117 62v275q-44 25 -107 25q-106 0 -106 -121v-111q0 -130 96 -130z" />
    <glyph glyph-name="d.ss01" horiz-adv-x="543" 
d="M231 -10q-91 0 -137 53.5t-46 151.5v127q0 100 54.5 154t147.5 54q63 0 111 -25v245h99v-640q0 -39 31 -39q13 0 28 5v-79q-30 -6 -54 -6q-71 0 -87 59q-65 -60 -147 -60zM247 79q70 0 114 61v276q-47 25 -104 25q-109 0 -109 -124v-108q0 -130 99 -130z" />
    <glyph glyph-name="dcaron.ss01" horiz-adv-x="550" 
d="M515 575q35 36 30 65q-42 11 -42 59q0 30 18 46.5t48 16.5t48 -17.5t18 -52.5q0 -93 -79 -150zM231 -10q-91 0 -137 53.5t-46 151.5v127q0 100 54.5 154t147.5 54q63 0 111 -25v245h99v-640q0 -39 31 -39q13 0 28 5v-79q-30 -6 -54 -6q-71 0 -87 59q-65 -60 -147 -60z
M247 79q70 0 114 61v276q-47 25 -104 25q-109 0 -109 -124v-108q0 -130 99 -130z" />
    <glyph glyph-name="dcroat.ss01" horiz-adv-x="543" 
d="M524 606h-64v-496q0 -39 31 -39q13 0 28 5v-79q-30 -6 -54 -6q-71 0 -87 59q-65 -60 -147 -60q-91 0 -137 53.5t-46 151.5v127q0 100 54.5 154t147.5 54q63 0 111 -25v101h-97v78h97v66h99v-66h64v-78zM361 140v276q-47 25 -104 25q-109 0 -109 -124v-108q0 -130 99 -130
q70 0 114 61z" />
    <glyph glyph-name="f.ss01" horiz-adv-x="339" 
d="M275 671q-88 0 -88 -96v-55h135v-83h-135v-587h-97v587h-61v83h61v57q0 179 174 179q55 0 93 -19l-16 -79q-28 13 -66 13z" />
    <glyph glyph-name="g.ss01" horiz-adv-x="526" 
d="M253 -160q-116 0 -197 52l38 76q73 -40 154 -40q113 0 113 109v45q-52 -52 -126 -52q-187 0 -187 211v87q0 91 50.5 146.5t143.5 55.5q77 0 132 -34l14 24h73v-493q0 -91 -56 -139t-152 -48zM249 119q67 0 112 61v235q-47 26 -104 26q-109 0 -109 -123v-72q0 -63 24 -95
t77 -32z" />
    <glyph glyph-name="gbreve.ss01" horiz-adv-x="526" 
d="M129 706h81q0 -60 47 -60t47 60h81v-9q0 -63 -34.5 -93.5t-93.5 -30.5t-93.5 30.5t-34.5 93.5v9zM253 -160q-116 0 -197 52l38 76q73 -40 154 -40q113 0 113 109v45q-52 -52 -126 -52q-187 0 -187 211v87q0 91 50.5 146.5t143.5 55.5q77 0 132 -34l14 24h73v-493
q0 -91 -56 -139t-152 -48zM249 119q67 0 112 61v235q-47 26 -104 26q-109 0 -109 -123v-72q0 -63 24 -95t77 -32z" />
    <glyph glyph-name="gcaron.ss01" horiz-adv-x="526" 
d="M201 573l-101 115l85 37l72 -88l72 88l85 -37l-101 -115h-112zM253 -160q-116 0 -197 52l38 76q73 -40 154 -40q113 0 113 109v45q-52 -52 -126 -52q-187 0 -187 211v87q0 91 50.5 146.5t143.5 55.5q77 0 132 -34l14 24h73v-493q0 -91 -56 -139t-152 -48zM249 119
q67 0 112 61v235q-47 26 -104 26q-109 0 -109 -123v-72q0 -63 24 -95t77 -32z" />
    <glyph glyph-name="gcircumflex.ss01" horiz-adv-x="526" 
d="M309 719l102 -114l-80 -37l-74 88l-74 -88l-80 37l102 114h104zM253 -160q-116 0 -197 52l38 76q73 -40 154 -40q113 0 113 109v45q-52 -52 -126 -52q-187 0 -187 211v87q0 91 50.5 146.5t143.5 55.5q77 0 132 -34l14 24h73v-493q0 -91 -56 -139t-152 -48zM249 119
q67 0 112 61v235q-47 26 -104 26q-109 0 -109 -123v-72q0 -63 24 -95t77 -32z" />
    <glyph glyph-name="gcommaaccent.ss01" horiz-adv-x="526" 
d="M319 770q-35 -36 -30 -65q42 -11 42 -59q0 -30 -18 -46.5t-48 -16.5t-48 17.5t-18 52.5q0 93 79 150zM253 -160q-116 0 -197 52l38 76q73 -40 154 -40q113 0 113 109v45q-52 -52 -126 -52q-187 0 -187 211v87q0 91 50.5 146.5t143.5 55.5q77 0 132 -34l14 24h73v-493
q0 -91 -56 -139t-152 -48zM249 119q67 0 112 61v235q-47 26 -104 26q-109 0 -109 -123v-72q0 -63 24 -95t77 -32z" />
    <glyph glyph-name="gdotaccent.ss01" horiz-adv-x="526" 
d="M324 660q0 -31 -18.5 -47t-48.5 -16q-31 0 -49 16t-18 47t18 47.5t49 16.5q30 0 48.5 -16.5t18.5 -47.5zM253 -160q-116 0 -197 52l38 76q73 -40 154 -40q113 0 113 109v45q-52 -52 -126 -52q-187 0 -187 211v87q0 91 50.5 146.5t143.5 55.5q77 0 132 -34l14 24h73v-493
q0 -91 -56 -139t-152 -48zM249 119q67 0 112 61v235q-47 26 -104 26q-109 0 -109 -123v-72q0 -63 24 -95t77 -32z" />
    <glyph glyph-name="h.ss01" horiz-adv-x="545" 
d="M466 -10q-93 0 -93 86v252q0 60 -21 86.5t-71 26.5q-32 0 -63.5 -19t-52.5 -47v-375h-100v750h100v-281q59 61 136 61q89 0 130 -47.5t41 -141.5v-239q0 -31 30 -31q12 0 29 5v-79q-34 -7 -65 -7z" />
    <glyph glyph-name="hbar.ss01" horiz-adv-x="545" 
d="M502 71q12 0 29 5v-79q-34 -7 -65 -7q-93 0 -93 86v252q0 60 -21 86.5t-71 26.5q-32 0 -63.5 -19t-52.5 -47v-375h-100v585h-60v78h60v87h100v-87h100v-78h-100v-116q59 61 136 61q89 0 130 -47.5t41 -141.5v-239q0 -31 30 -31z" />
    <glyph glyph-name="hcircumflex.ss01" horiz-adv-x="545" 
d="M55 913h112l101 -115l-85 -37l-72 88l-72 -88l-85 37zM466 -10q-93 0 -93 86v252q0 60 -21 86.5t-71 26.5q-32 0 -63.5 -19t-52.5 -47v-375h-100v750h100v-281q59 61 136 61q89 0 130 -47.5t41 -141.5v-239q0 -31 30 -31q12 0 29 5v-79q-34 -7 -65 -7z" />
    <glyph glyph-name="l.ss01" horiz-adv-x="247" 
d="M157 -10q-93 0 -93 86v674h100v-648q0 -31 30 -31q12 0 29 5l-1 -79q-34 -7 -65 -7z" />
    <glyph glyph-name="lacute.ss01" horiz-adv-x="247" 
d="M160 988l59 -89l-175 -100l-42 63zM157 -10q-93 0 -93 86v674h100v-648q0 -31 30 -31q12 0 29 5l-1 -79q-34 -7 -65 -7z" />
    <glyph glyph-name="lcaron.ss01" horiz-adv-x="254" 
d="M219 585q35 36 30 65q-42 11 -42 59q0 30 18 46.5t48 16.5t48 -17.5t18 -52.5q0 -93 -79 -150zM157 -10q-93 0 -93 86v674h100v-648q0 -31 30 -31q12 0 29 5l-1 -79q-34 -7 -65 -7z" />
    <glyph glyph-name="lcommaaccent.ss01" horiz-adv-x="247" 
d="M157 -10q-93 0 -93 86v674h100v-648q0 -31 30 -31q12 0 29 5l-1 -79q-34 -7 -65 -7zM91 -231q35 36 30 65q-42 11 -42 59q0 30 18 46.5t48 16.5t48 -17.5t18 -52.5q0 -93 -79 -150z" />
    <glyph glyph-name="ldot.ss01" horiz-adv-x="299" 
d="M157 -10q-93 0 -93 86v674h100v-648q0 -31 30 -31q12 0 29 5l-1 -79q-34 -7 -65 -7zM261 444q29 0 47.5 -16.5t18.5 -46.5t-18 -46t-48 -16t-48 16t-18 46t18 46.5t48 16.5z" />
    <glyph glyph-name="lslash.ss01" horiz-adv-x="294" 
d="M190 102q0 -31 30 -31q12 0 29 5l-1 -79q-34 -7 -65 -7q-93 0 -93 86v219l-29 -12l-34 84l63 26v357h100v-314l32 13l38 -85l-70 -28v-234z" />
    <glyph glyph-name="m.ss01" horiz-adv-x="815" 
d="M734 -10q-93 0 -93 86v252q0 62 -15 88t-59 26q-69 0 -114 -74v-368h-99v325q0 56 -20.5 86t-57.5 30q-64 0 -111 -69v-372h-100v520h86l9 -56q61 66 135 66q96 0 129 -81q70 81 161 81q82 0 119 -45.5t37 -142.5v-240q0 -31 30 -31q12 0 29 5l-1 -79q-32 -7 -65 -7z" />
    <glyph glyph-name="n.ss01" horiz-adv-x="545" 
d="M466 -10q-93 0 -93 86v249q0 61 -20.5 88.5t-70.5 27.5q-32 0 -64 -20t-53 -49v-372h-100v520h86l9 -56q64 66 143 66q169 0 169 -192v-236q0 -31 30 -31q12 0 29 5v-79q-34 -7 -65 -7z" />
    <glyph glyph-name="nacute.ss01" horiz-adv-x="545" 
d="M319 751l75 -74l-135 -121l-54 55zM466 -10q-93 0 -93 86v249q0 61 -20.5 88.5t-70.5 27.5q-32 0 -64 -20t-53 -49v-372h-100v520h86l9 -56q64 66 143 66q169 0 169 -192v-236q0 -31 30 -31q12 0 29 5v-79q-34 -7 -65 -7z" />
    <glyph glyph-name="napostrophe.ss01" horiz-adv-x="545" 
d="M-47 741h95l-13 -195h-70zM466 -10q-93 0 -93 86v249q0 61 -20.5 88.5t-70.5 27.5q-32 0 -64 -20t-53 -49v-372h-100v520h86l9 -56q64 66 143 66q169 0 169 -192v-236q0 -31 30 -31q12 0 29 5v-79q-34 -7 -65 -7z" />
    <glyph glyph-name="ncaron.ss01" horiz-adv-x="545" 
d="M219 573l-101 115l85 37l72 -88l72 88l85 -37l-101 -115h-112zM466 -10q-93 0 -93 86v249q0 61 -20.5 88.5t-70.5 27.5q-32 0 -64 -20t-53 -49v-372h-100v520h86l9 -56q64 66 143 66q169 0 169 -192v-236q0 -31 30 -31q12 0 29 5v-79q-34 -7 -65 -7z" />
    <glyph glyph-name="ncommaaccent.ss01" horiz-adv-x="545" 
d="M466 -10q-93 0 -93 86v249q0 61 -20.5 88.5t-70.5 27.5q-32 0 -64 -20t-53 -49v-372h-100v520h86l9 -56q64 66 143 66q169 0 169 -192v-236q0 -31 30 -31q12 0 29 5v-79q-34 -7 -65 -7zM221 -231q35 36 30 65q-42 11 -42 59q0 30 18 46.5t48 16.5t48 -17.5t18 -52.5
q0 -93 -79 -150z" />
    <glyph glyph-name="eng.ss01" horiz-adv-x="529" 
d="M303 530q169 0 169 -192v-302q0 -92 -51 -141.5t-147 -54.5l-13 80q58 2 83.5 30.5t27.5 87.5v287q0 61 -20 88.5t-70 27.5q-32 0 -64 -20t-53 -49v-372h-100v520h86l9 -56q64 66 143 66z" />
    <glyph glyph-name="uni0272.ss01" horiz-adv-x="554" 
d="M501 71q12 0 29 5v-79q-34 -7 -65 -7q-93 0 -93 86v249q0 61 -20 88.5t-70 27.5q-32 0 -64 -20t-53 -49v-336q0 -92 -51 -141.5t-147 -54.5l-13 80q58 2 83.5 30.5t27.5 87.5v482h86l9 -56q64 66 143 66q169 0 169 -192v-236q0 -31 29 -31z" />
    <glyph glyph-name="ntilde.ss01" horiz-adv-x="545" 
d="M115 604q4 43 31 69.5t72 26.5q32 0 65.5 -16.5t49.5 -16.5q27 0 33 32l69 -15q-4 -42 -29.5 -70t-65.5 -28q-34 0 -71 16.5t-51 16.5q-29 0 -36 -30zM466 -10q-93 0 -93 86v249q0 61 -20.5 88.5t-70.5 27.5q-32 0 -64 -20t-53 -49v-372h-100v520h86l9 -56q64 66 143 66
q169 0 169 -192v-236q0 -31 30 -31q12 0 29 5v-79q-34 -7 -65 -7z" />
    <glyph glyph-name="t.ss01" horiz-adv-x="324" 
d="M164 0q-60 71 -60 191v246h-84v83h84v99h99v-99h102v-83h-102v-239q0 -111 73 -198h-112z" />
    <glyph glyph-name="tbar.ss01" horiz-adv-x="329" 
d="M307 437h-102v-108h91v-78h-91v-53q0 -111 73 -198h-112q-60 71 -60 191v60h-70v78h70v108h-84v83h84v99h99v-99h102v-83z" />
    <glyph glyph-name="tcaron.ss01" horiz-adv-x="324" 
d="M248 575q35 36 30 65q-42 11 -42 59q0 30 18 46.5t48 16.5t48 -17.5t18 -52.5q0 -93 -79 -150zM164 0q-60 71 -60 191v246h-84v83h84v99h99v-99h102v-83h-102v-239q0 -111 73 -198h-112z" />
    <glyph glyph-name="uni0163.ss01" horiz-adv-x="324" 
d="M305 437h-102v-239q0 -111 73 -198h-30l-12 -35q61 -8 61 -69q0 -42 -30 -60t-73 -18q-36 0 -63 10l5 55q17 -5 37 -5q36 0 36 29q0 15 -13.5 22t-27.5 7h-14l25 64h-13q-60 71 -60 191v246h-84v83h84v99h99v-99h102v-83z" />
    <glyph glyph-name="uni021B.ss01" horiz-adv-x="324" 
d="M164 0q-60 71 -60 191v246h-84v83h84v99h99v-99h102v-83h-102v-239q0 -111 73 -198h-112zM158 -231q35 36 30 65q-42 11 -42 59q0 30 18 46.5t48 16.5t48 -17.5t18 -52.5q0 -93 -79 -150z" />
    <glyph glyph-name="u.ss01" horiz-adv-x="548" 
d="M223 -10q-160 0 -160 193v337h100v-328q0 -60 19 -88t64 -28q35 0 67 20t52 51v373h100v-410q0 -39 30 -39q13 0 28 5v-79q-37 -7 -56 -7q-77 0 -93 66q-66 -66 -151 -66z" />
    <glyph glyph-name="uacute.ss01" horiz-adv-x="548" 
d="M308 751l75 -74l-135 -121l-54 55zM223 -10q-160 0 -160 193v337h100v-328q0 -60 19 -88t64 -28q35 0 67 20t52 51v373h100v-410q0 -39 30 -39q13 0 28 5v-79q-37 -7 -56 -7q-77 0 -93 66q-66 -66 -151 -66z" />
    <glyph glyph-name="ubreve.ss01" horiz-adv-x="548" 
d="M136 706h81q0 -60 47 -60t47 60h81v-9q0 -63 -34.5 -93.5t-93.5 -30.5t-93.5 30.5t-34.5 93.5v9zM223 -10q-160 0 -160 193v337h100v-328q0 -60 19 -88t64 -28q35 0 67 20t52 51v373h100v-410q0 -39 30 -39q13 0 28 5v-79q-37 -7 -56 -7q-77 0 -93 66q-66 -66 -151 -66z
" />
    <glyph glyph-name="ucircumflex.ss01" horiz-adv-x="548" 
d="M316 719l102 -114l-80 -37l-74 88l-74 -88l-80 37l102 114h104zM223 -10q-160 0 -160 193v337h100v-328q0 -60 19 -88t64 -28q35 0 67 20t52 51v373h100v-410q0 -39 30 -39q13 0 28 5v-79q-37 -7 -56 -7q-77 0 -93 66q-66 -66 -151 -66z" />
    <glyph glyph-name="udieresis.ss01" horiz-adv-x="548" 
d="M167 585q-26 0 -40.5 16t-14.5 42q0 28 14.5 44.5t40.5 16.5q27 0 42 -16.5t15 -44.5q0 -26 -15 -42t-42 -16zM358 585q-26 0 -40.5 16t-14.5 42q0 28 14.5 44.5t40.5 16.5q27 0 42 -16.5t15 -44.5q0 -26 -15 -42t-42 -16zM223 -10q-160 0 -160 193v337h100v-328
q0 -60 19 -88t64 -28q35 0 67 20t52 51v373h100v-410q0 -39 30 -39q13 0 28 5v-79q-37 -7 -56 -7q-77 0 -93 66q-66 -66 -151 -66z" />
    <glyph glyph-name="uni1EE5.ss01" horiz-adv-x="548" 
d="M223 -10q-160 0 -160 193v337h100v-328q0 -60 19 -88t64 -28q35 0 67 20t52 51v373h100v-410q0 -39 30 -39q13 0 28 5v-79q-37 -7 -56 -7q-77 0 -93 66q-66 -66 -151 -66zM264 -181q-30 0 -48 16t-18 46t18 46.5t48 16.5q29 0 47.5 -16.5t18.5 -46.5t-18 -46t-48 -16z
" />
    <glyph glyph-name="ugrave.ss01" horiz-adv-x="548" 
d="M218 751l114 -140l-54 -55l-135 121zM223 -10q-160 0 -160 193v337h100v-328q0 -60 19 -88t64 -28q35 0 67 20t52 51v373h100v-410q0 -39 30 -39q13 0 28 5v-79q-37 -7 -56 -7q-77 0 -93 66q-66 -66 -151 -66z" />
    <glyph glyph-name="uhungarumlaut.ss01" horiz-adv-x="548" 
d="M208 748l88 -61l-114 -135l-61 42zM380 748l88 -61l-114 -135l-61 42zM223 -10q-160 0 -160 193v337h100v-328q0 -60 19 -88t64 -28q35 0 67 20t52 51v373h100v-410q0 -39 30 -39q13 0 28 5v-79q-37 -7 -56 -7q-77 0 -93 66q-66 -66 -151 -66z" />
    <glyph glyph-name="umacron.ss01" horiz-adv-x="548" 
d="M122 679h284v-81h-284v81zM223 -10q-160 0 -160 193v337h100v-328q0 -60 19 -88t64 -28q35 0 67 20t52 51v373h100v-410q0 -39 30 -39q13 0 28 5v-79q-37 -7 -56 -7q-77 0 -93 66q-66 -66 -151 -66z" />
    <glyph glyph-name="uogonek.ss01" horiz-adv-x="548" 
d="M522 -104l13 -68q-28 -13 -69 -13q-39 0 -64 21t-25 58q0 32 17 58.5t43 40.5q-49 12 -63 63q-66 -66 -151 -66q-160 0 -160 193v337h100v-328q0 -60 19 -88t64 -28q35 0 67 20t52 51v373h100v-410q0 -39 30 -39q13 0 28 5v-79q-53 -28 -53 -70q0 -35 29 -35q14 0 23 4z
" />
    <glyph glyph-name="uring.ss01" horiz-adv-x="548" 
d="M175 655q0 39 24 63t63 24q40 0 65 -24t25 -63v-10q0 -41 -25 -64t-65 -23q-39 0 -63 23t-24 64v10zM262 609q36 0 36 40q0 41 -36 41q-33 0 -33 -41q0 -40 33 -40zM223 -10q-160 0 -160 193v337h100v-328q0 -60 19 -88t64 -28q35 0 67 20t52 51v373h100v-410
q0 -39 30 -39q13 0 28 5v-79q-37 -7 -56 -7q-77 0 -93 66q-66 -66 -151 -66z" />
    <glyph glyph-name="utilde.ss01" horiz-adv-x="548" 
d="M104 604q4 43 31 69.5t72 26.5q32 0 65.5 -16.5t49.5 -16.5q27 0 33 32l69 -15q-4 -42 -29.5 -70t-65.5 -28q-34 0 -71 16.5t-51 16.5q-29 0 -36 -30zM223 -10q-160 0 -160 193v337h100v-328q0 -60 19 -88t64 -28q35 0 67 20t52 51v373h100v-410q0 -39 30 -39q13 0 28 5
v-79q-37 -7 -56 -7q-77 0 -93 66q-66 -66 -151 -66z" />
    <glyph glyph-name="w.ss01" horiz-adv-x="696" 
d="M581 520h105l-165 -520h-96l-72 238l-83 -238h-95l-165 520h105l110 -417l86 273l-44 144h106l101 -414z" />
    <glyph glyph-name="wacute.ss01" horiz-adv-x="696" 
d="M471 677l-135 -121l-54 55l114 140zM581 520h105l-165 -520h-96l-72 238l-83 -238h-95l-165 520h105l110 -417l86 273l-44 144h106l101 -414z" />
    <glyph glyph-name="wcircumflex.ss01" horiz-adv-x="696" 
d="M352 656l-74 -88l-80 37l102 114h104l102 -114l-80 -37zM581 520h105l-165 -520h-96l-72 238l-83 -238h-95l-165 520h105l110 -417l86 273l-44 144h106l101 -414z" />
    <glyph glyph-name="wdieresis.ss01" horiz-adv-x="696" 
d="M255 585q-26 0 -40.5 16t-14.5 42q0 28 14.5 44.5t40.5 16.5q27 0 42 -16.5t15 -44.5q0 -26 -15 -42t-42 -16zM446 585q-26 0 -40.5 16t-14.5 42q0 28 14.5 44.5t40.5 16.5q27 0 42 -16.5t15 -44.5q0 -26 -15 -42t-42 -16zM581 520h105l-165 -520h-96l-72 238l-83 -238
h-95l-165 520h105l110 -417l86 273l-44 144h106l101 -414z" />
    <glyph glyph-name="wgrave.ss01" horiz-adv-x="696" 
d="M420 611l-54 -55l-135 121l75 74zM581 520h105l-165 -520h-96l-72 238l-83 -238h-95l-165 520h105l110 -417l86 273l-44 144h106l101 -414z" />
    <glyph glyph-name="y.ss01" horiz-adv-x="534" 
d="M266 -160q-115 0 -201 57l32 73q79 -44 163 -44q114 0 114 112v64q-59 -62 -148 -62q-84 0 -124.5 44t-40.5 137v299h99v-277q0 -60 20 -86.5t71 -26.5q33 0 66 17.5t53 43.5v329h99v-492q0 -91 -54 -139.5t-149 -48.5z" />
    <glyph glyph-name="yacute.ss01" horiz-adv-x="534" 
d="M304 751l75 -74l-135 -121l-54 55zM266 -160q-115 0 -201 57l32 73q79 -44 163 -44q114 0 114 112v64q-59 -62 -148 -62q-84 0 -124.5 44t-40.5 137v299h99v-277q0 -60 20 -86.5t71 -26.5q33 0 66 17.5t53 43.5v329h99v-492q0 -91 -54 -139.5t-149 -48.5z" />
    <glyph glyph-name="ycircumflex.ss01" horiz-adv-x="534" 
d="M312 719l102 -114l-80 -37l-74 88l-74 -88l-80 37l102 114h104zM266 -160q-115 0 -201 57l32 73q79 -44 163 -44q114 0 114 112v64q-59 -62 -148 -62q-84 0 -124.5 44t-40.5 137v299h99v-277q0 -60 20 -86.5t71 -26.5q33 0 66 17.5t53 43.5v329h99v-492q0 -91 -54 -139.5
t-149 -48.5z" />
    <glyph glyph-name="ydieresis.ss01" horiz-adv-x="534" 
d="M163 585q-26 0 -40.5 16t-14.5 42q0 28 14.5 44.5t40.5 16.5q27 0 42 -16.5t15 -44.5q0 -26 -15 -42t-42 -16zM354 585q-26 0 -40.5 16t-14.5 42q0 28 14.5 44.5t40.5 16.5q27 0 42 -16.5t15 -44.5q0 -26 -15 -42t-42 -16zM266 -160q-115 0 -201 57l32 73q79 -44 163 -44
q114 0 114 112v64q-59 -62 -148 -62q-84 0 -124.5 44t-40.5 137v299h99v-277q0 -60 20 -86.5t71 -26.5q33 0 66 17.5t53 43.5v329h99v-492q0 -91 -54 -139.5t-149 -48.5z" />
    <glyph glyph-name="ygrave.ss01" horiz-adv-x="534" 
d="M214 751l114 -140l-54 -55l-135 121zM266 -160q-115 0 -201 57l32 73q79 -44 163 -44q114 0 114 112v64q-59 -62 -148 -62q-84 0 -124.5 44t-40.5 137v299h99v-277q0 -60 20 -86.5t71 -26.5q33 0 66 17.5t53 43.5v329h99v-492q0 -91 -54 -139.5t-149 -48.5z" />
    <glyph glyph-name="uni0233.ss01" horiz-adv-x="534" 
d="M118 679h284v-81h-284v81zM266 -160q-115 0 -201 57l32 73q79 -44 163 -44q114 0 114 112v64q-59 -62 -148 -62q-84 0 -124.5 44t-40.5 137v299h99v-277q0 -60 20 -86.5t71 -26.5q33 0 66 17.5t53 43.5v329h99v-492q0 -91 -54 -139.5t-149 -48.5z" />
    <glyph glyph-name="uni1EF9.ss01" horiz-adv-x="534" 
d="M100 604q4 43 31 69.5t72 26.5q32 0 65.5 -16.5t49.5 -16.5q27 0 33 32l69 -15q-4 -42 -29.5 -70t-65.5 -28q-34 0 -71 16.5t-51 16.5q-29 0 -36 -30zM266 -160q-115 0 -201 57l32 73q79 -44 163 -44q114 0 114 112v64q-59 -62 -148 -62q-84 0 -124.5 44t-40.5 137v299
h99v-277q0 -60 20 -86.5t71 -26.5q33 0 66 17.5t53 43.5v329h99v-492q0 -91 -54 -139.5t-149 -48.5z" />
    <glyph glyph-name="z.ss01" horiz-adv-x="464" 
d="M187 86h241v-86h-391v69q105 96 170 179t99 186h-263v86h373v-64q-33 -110 -88 -195.5t-141 -174.5z" />
    <glyph glyph-name="zacute.ss01" horiz-adv-x="464" 
d="M360 677l-135 -121l-54 55l114 140zM187 86h241v-86h-391v69q105 96 170 179t99 186h-263v86h373v-64q-33 -110 -88 -195.5t-141 -174.5z" />
    <glyph glyph-name="zcaron.ss01" horiz-adv-x="464" 
d="M286 573h-112l-101 115l85 37l72 -88l72 88l85 -37zM187 86h241v-86h-391v69q105 96 170 179t99 186h-263v86h373v-64q-33 -110 -88 -195.5t-141 -174.5z" />
    <glyph glyph-name="zdotaccent.ss01" horiz-adv-x="464" 
d="M230 597q-31 0 -49 16t-18 47t18 47.5t49 16.5q30 0 48.5 -16.5t18.5 -47.5t-18.5 -47t-48.5 -16zM187 86h241v-86h-391v69q105 96 170 179t99 186h-263v86h373v-64q-33 -110 -88 -195.5t-141 -174.5z" />
    <glyph glyph-name="f_t" horiz-adv-x="638" 
d="M609 86l15 -79q-38 -20 -96 -20q-91 0 -128 41t-37 139v270h-176v-437h-97v437h-61v83h61v57q0 179 174 179q55 0 93 -19l-16 -79q-28 13 -66 13q-88 0 -88 -96v-55h179l22 99h74v-99h152v-83h-152v-260q0 -59 15.5 -82t62.5 -23q45 0 69 14z" />
    <glyph glyph-name="zero.osf" horiz-adv-x="543" 
d="M48 319q0 102 61 161.5t162 59.5t162.5 -59.5t61.5 -161.5v-112q0 -102 -61.5 -161.5t-162.5 -59.5t-162 59.5t-61 161.5v112zM150 220q0 -68 32.5 -104t88.5 -36q57 0 88.5 35.5t31.5 104.5v86q0 68 -32 104t-88 36t-88.5 -36t-32.5 -104v-86z" />
    <glyph glyph-name="one.osf" horiz-adv-x="419" 
d="M289 94h107v-94h-340v94h130v312l-111 -66l-42 85l168 105h88v-436z" />
    <glyph glyph-name="two.osf" horiz-adv-x="514" 
d="M220 94h261v-94h-427v82q44 34 104.5 78t84.5 62.5t52 44.5t36.5 46t8.5 45q0 40 -27 65t-75 25q-82 0 -165 -52l-43 71q99 73 211 73q104 0 155 -49t51 -125q0 -35 -12.5 -67.5t-29.5 -56.5t-51.5 -52.5t-60 -46.5t-73.5 -49z" />
    <glyph glyph-name="three.osf" horiz-adv-x="501" 
d="M372 216q40 -19 64 -64.5t24 -93.5v-19q0 -90 -63 -144.5t-174 -54.5q-114 0 -201 57l38 80q71 -44 156 -44q61 0 98 30.5t37 82.5q0 63 -32.5 93.5t-85.5 30.5h-66v81h69q50 0 74.5 29t23.5 76q-1 46 -26 69t-84 23q-73 0 -144 -45l-41 73q89 64 196 64q103 0 152.5 -48
t49.5 -132q0 -93 -65 -144z" />
    <glyph glyph-name="four.osf" horiz-adv-x="549" 
d="M457 93h68v-93h-68v-150h-103v150h-334v64l240 476h111l-223 -447h206l1 233h102v-233z" />
    <glyph glyph-name="five.osf" horiz-adv-x="506" 
d="M270 272q96 0 149.5 -49t53.5 -147v-34q0 -91 -60 -146.5t-167 -55.5q-119 0 -215 70l38 76q90 -53 173 -53q58 0 90.5 30t32.5 82v20q0 115 -114 115q-72 0 -132 -41l-67 49l43 342h343v-92h-253l-23 -194q48 28 108 28z" />
    <glyph glyph-name="six.osf" horiz-adv-x="551" 
d="M306 422q94 0 149.5 -48.5t55.5 -147.5v-31q0 -101 -62 -155t-165 -54q-104 0 -166 51t-62 151v305q0 101 62 161t165 60q124 0 214 -64l-44 -74q-76 46 -159 46q-64 0 -99.5 -36t-35.5 -104v-103q58 43 147 43zM284 79q58 0 91.5 32t33.5 99q0 64 -27.5 91.5t-85.5 27.5
q-83 0 -137 -44v-82q0 -124 125 -124z" />
    <glyph glyph-name="seven.osf" horiz-adv-x="458" 
d="M14 530h426v-63l-250 -617h-111l243 587h-308v93z" />
    <glyph glyph-name="eight.osf" horiz-adv-x="561" 
d="M425 374q37 -22 63.5 -68t26.5 -91v-20q0 -92 -59 -150.5t-176 -58.5t-176 58.5t-59 150.5v20q0 45 26.5 91t63.5 68q-34 27 -54 68t-20 82q0 87 55 138.5t164 51.5t164.5 -51.5t55.5 -138.5q0 -41 -20 -82t-55 -68zM280 626q-58 0 -88 -30t-30 -77q0 -46 30.5 -77.5
t78.5 -31.5h14q49 0 81 31.5t32 77.5q0 47 -30 77t-88 30zM407 198v7q0 53 -32.5 88.5t-82.5 35.5h-24q-49 0 -82 -35.5t-33 -88.5v-7q0 -52 31 -85.5t96 -33.5t96 33.5t31 85.5z" />
    <glyph glyph-name="nine.osf" horiz-adv-x="543" 
d="M264 540q104 0 165.5 -50t61.5 -150v-281q0 -102 -60.5 -160.5t-169.5 -58.5q-121 0 -214 67l43 74q79 -49 168 -49q61 0 96 35.5t35 103.5v69q-54 -32 -144 -32q-94 0 -150 48.5t-56 147.5v29q0 101 61 154t164 53zM254 202q84 0 134 30v90q0 125 -124 125
q-122 0 -122 -128q0 -63 27 -90t85 -27z" />
    <glyph glyph-name="zero.sinf" horiz-adv-x="437" 
d="M43 211q0 74 47.5 117t129.5 43q81 0 127.5 -43t46.5 -117v-165q0 -74 -46.5 -116.5t-127.5 -42.5q-82 0 -129.5 43t-47.5 116v165zM309 198q0 95 -89 95t-89 -95v-140q0 -92 89 -92t89 92v140z" />
    <glyph glyph-name="one.sinf" horiz-adv-x="318" 
d="M219 -26h79v-74h-258v74h91v281l-66 -42l-41 64l124 83h71v-386z" />
    <glyph glyph-name="two.sinf" horiz-adv-x="392" 
d="M162 -21h199v-79h-327v57l185 196q39 42 39 82q0 24 -18 40.5t-51 16.5q-58 0 -130 -36l-33 62q81 53 168 53q76 0 114.5 -35.5t38.5 -93.5q0 -66 -76 -148z" />
    <glyph glyph-name="three.sinf" horiz-adv-x="385" 
d="M293 138q24 -13 39.5 -41.5t15.5 -56.5v-12q0 -64 -44.5 -102t-122.5 -38q-92 0 -159 43l28 65q58 -29 124 -29q87 0 87 62v6q0 67 -66 67h-62v66h54q31 0 47 20t16 44q0 61 -74 61q-62 0 -114 -26l-28 62q63 42 153 42q74 0 112.5 -35.5t38.5 -94.5q0 -26 -12 -55.5
t-33 -47.5z" />
    <glyph glyph-name="four.sinf" horiz-adv-x="407" 
d="M336 57h46v-75h-46v-82h-87v82h-228v59l164 319h89l-148 -303h123l1 154h86v-154z" />
    <glyph glyph-name="five.sinf" horiz-adv-x="388" 
d="M207 194q71 0 110 -36t39 -106v-23q0 -63 -44.5 -102.5t-124.5 -39.5q-90 0 -161 46l29 62q67 -36 128 -36q39 0 62.5 20.5t23.5 52.5v12q0 76 -80 76q-53 0 -94 -26l-54 38l32 227h258v-72h-185l-16 -112q35 19 77 19z" />
    <glyph glyph-name="six.sinf" horiz-adv-x="409" 
d="M222 182q153 0 153 -134v-20q0 -68 -46 -104.5t-123 -36.5q-73 0 -117.5 34.5t-44.5 102.5v198q0 68 46.5 108.5t122.5 40.5q88 0 157 -46l-35 -59q-61 33 -117 33q-44 0 -67.5 -22.5t-23.5 -63.5v-55q38 24 95 24zM207 -41q85 0 85 79q0 38 -18.5 54t-59.5 16
q-51 0 -87 -23v-52q0 -74 80 -74z" />
    <glyph glyph-name="seven.sinf" horiz-adv-x="342" 
d="M21 359h303v-48l-167 -411h-90l161 378h-207v81z" />
    <glyph glyph-name="eight.sinf" horiz-adv-x="426" 
d="M326 142q63 -32 63 -106v-13q0 -59 -45 -99t-131 -40q-88 0 -132 38.5t-44 100.5v13q0 32 18.5 60.5t46.5 43.5q-53 34 -53 94q0 62 41.5 98t122.5 36q82 0 123 -36t41 -98q0 -57 -51 -92zM213 299q-40 0 -61 -19t-21 -50q0 -26 21 -44t55 -18h10q34 0 56 18t22 44
q0 31 -20.5 50t-61.5 19zM301 28v5q0 32 -22.5 52.5t-57.5 20.5h-16q-35 0 -57.5 -20.5t-22.5 -52.5v-5q0 -30 21.5 -51t66.5 -21t66.5 21t21.5 51z" />
    <glyph glyph-name="nine.sinf" horiz-adv-x="410" 
d="M200 371q76 0 121 -34t45 -102v-201q0 -69 -45 -108t-128 -39q-91 0 -156 45l34 58q57 -31 119 -31q43 0 67.5 21t24.5 61v46q-35 -19 -97 -19q-67 0 -108 34t-41 108v20q0 68 45 104.5t119 36.5zM193 140q52 0 89 19v65q0 75 -82 75q-81 0 -81 -78q0 -44 17.5 -62.5
t56.5 -18.5z" />
    <glyph glyph-name="zero.tf" horiz-adv-x="574" 
d="M64 493q0 102 61 161.5t162 59.5q100 0 161.5 -59.5t61.5 -161.5v-286q0 -102 -61.5 -161.5t-161.5 -59.5q-101 0 -162 59.5t-61 161.5v286zM166 220q0 -68 32.5 -104t88.5 -36t87.5 36t31.5 104v260q0 68 -31.5 104t-87.5 36t-88.5 -36t-32.5 -104v-260z" />
    <glyph glyph-name="one.tf" horiz-adv-x="574" 
d="M365 90h108v-90h-333v90h122v486l-111 -58l-48 75l174 107h88v-610z" />
    <glyph glyph-name="two.tf" horiz-adv-x="574" 
d="M216 93h296v-93h-452v65q179 183 250.5 280t71.5 166q0 51 -30.5 79.5t-87.5 28.5q-74 0 -158 -48l-45 73q85 69 213 69q106 0 160 -53.5t54 -145.5q0 -90 -61.5 -181.5t-210.5 -239.5z" />
    <glyph glyph-name="three.tf" horiz-adv-x="574" 
d="M411 375q41 -19 66.5 -65.5t25.5 -95.5v-19q0 -93 -64 -151t-176 -58q-117 0 -206 57l38 80q74 -44 161 -44q62 0 100 33.5t38 89.5q0 64 -33.5 95.5t-88.5 31.5h-71v81h74q50 0 74.5 30t23.5 80q-2 102 -115 102q-77 0 -153 -45l-41 73q92 64 205 64q105 0 156 -52
t51 -138q0 -95 -65 -149z" />
    <glyph glyph-name="four.tf" horiz-adv-x="574" 
d="M469 226h68v-93h-68v-133h-103v133h-334v64l200 503h109l-187 -474h212l1 260h102v-260z" />
    <glyph glyph-name="five.tf" horiz-adv-x="574" 
d="M302 432q96 0 149.5 -51.5t53.5 -154.5v-34q0 -93 -60 -149.5t-167 -56.5q-119 0 -215 70l38 76q90 -53 173 -53q57 0 90 31t33 85v20q0 125 -114 125q-72 0 -132 -41l-67 49l43 352h343v-92h-253l-23 -204q48 28 108 28z" />
    <glyph glyph-name="six.tf" horiz-adv-x="574" 
d="M318 422q94 0 149.5 -48.5t55.5 -147.5v-31q0 -101 -62 -155t-165 -54q-104 0 -166 51t-62 151v305q0 101 62 161t165 60q124 0 214 -64l-44 -74q-76 46 -159 46q-64 0 -99.5 -36t-35.5 -104v-103q58 43 147 43zM296 79q58 0 91.5 32t33.5 99q0 64 -27.5 91.5t-85.5 27.5
q-83 0 -137 -44v-82q0 -124 125 -124z" />
    <glyph glyph-name="seven.tf" horiz-adv-x="574" 
d="M64 700h450v-63l-268 -637h-111l259 604h-330v96z" />
    <glyph glyph-name="eight.tf" horiz-adv-x="574" 
d="M432 375q37 -22 62 -68t25 -92v-20q0 -92 -58 -150.5t-174 -58.5t-174 58.5t-58 150.5v20q0 45 26 91t61 68q-34 26 -54 67.5t-20 82.5q0 87 55 138.5t164 51.5t164.5 -51.5t55.5 -138.5q0 -41 -19.5 -81.5t-55.5 -67.5zM287 626q-58 0 -88 -30t-30 -77q0 -46 30.5 -77.5
t78.5 -31.5h14q49 0 81 31.5t32 77.5q0 47 -30 77t-88 30zM411 198v7q0 53 -31.5 88.5t-80.5 35.5h-24q-48 0 -80 -35.5t-32 -88.5v-7q0 -52 30 -85.5t94 -33.5t94 33.5t30 85.5z" />
    <glyph glyph-name="nine.tf" horiz-adv-x="574" 
d="M279 714q104 0 165.5 -50t61.5 -150v-309q0 -102 -60.5 -160.5t-169.5 -58.5q-121 0 -214 67l43 74q79 -49 168 -49q61 0 96 35.5t35 103.5v97q-54 -32 -144 -32q-94 0 -150 48.5t-56 147.5v29q0 101 61 154t164 53zM269 376q84 0 134 30v90q0 125 -124 125
q-122 0 -122 -128q0 -63 27 -90t85 -27z" />
    <glyph glyph-name="zero.dnom" horiz-adv-x="437" 
d="M43 311q0 74 47.5 117t129.5 43q81 0 127.5 -43t46.5 -117v-165q0 -74 -46.5 -116.5t-127.5 -42.5q-82 0 -129.5 43t-47.5 116v165zM309 298q0 95 -89 95t-89 -95v-140q0 -92 89 -92t89 92v140z" />
    <glyph glyph-name="one.dnom" horiz-adv-x="318" 
d="M219 74h79v-74h-258v74h91v281l-66 -42l-41 64l124 83h71v-386z" />
    <glyph glyph-name="two.dnom" horiz-adv-x="392" 
d="M162 79h199v-79h-327v57l185 196q39 42 39 82q0 24 -18 40.5t-51 16.5q-58 0 -130 -36l-33 62q81 53 168 53q76 0 114.5 -35.5t38.5 -93.5q0 -66 -76 -148z" />
    <glyph glyph-name="three.dnom" horiz-adv-x="385" 
d="M293 237q24 -13 39.5 -41.5t15.5 -56.5v-12q0 -64 -44.5 -102t-122.5 -38q-92 0 -159 43l28 65q58 -29 124 -29q87 0 87 62v6q0 67 -66 67h-62v66h54q31 0 47 20t16 44q0 61 -74 61q-62 0 -114 -26l-28 62q63 42 153 42q74 0 112.5 -35.5t38.5 -94.5q0 -26 -12 -55.5
t-33 -47.5z" />
    <glyph glyph-name="four.dnom" horiz-adv-x="407" 
d="M336 157h46v-75h-46v-82h-87v82h-228v59l164 319h89l-148 -303h123l1 154h86v-154z" />
    <glyph glyph-name="five.dnom" horiz-adv-x="388" 
d="M207 294q71 0 110 -36t39 -106v-23q0 -63 -44.5 -102.5t-124.5 -39.5q-90 0 -161 46l29 62q67 -36 128 -36q39 0 62.5 20.5t23.5 52.5v12q0 76 -80 76q-53 0 -94 -26l-54 38l32 227h258v-72h-185l-16 -112q35 19 77 19z" />
    <glyph glyph-name="six.dnom" horiz-adv-x="409" 
d="M222 282q153 0 153 -134v-20q0 -68 -46 -104.5t-123 -36.5q-73 0 -117.5 34.5t-44.5 102.5v198q0 68 46.5 108.5t122.5 40.5q88 0 157 -46l-35 -59q-61 33 -117 33q-44 0 -67.5 -22.5t-23.5 -63.5v-55q38 24 95 24zM207 59q85 0 85 79q0 38 -18.5 54t-59.5 16
q-51 0 -87 -23v-52q0 -74 80 -74z" />
    <glyph glyph-name="seven.dnom" horiz-adv-x="342" 
d="M21 459h303v-48l-167 -411h-90l161 378h-207v81z" />
    <glyph glyph-name="eight.dnom" horiz-adv-x="426" 
d="M326 242q63 -32 63 -106v-13q0 -59 -45 -99t-131 -40q-88 0 -132 38.5t-44 100.5v13q0 32 18.5 60.5t46.5 43.5q-53 34 -53 94q0 62 41.5 98t122.5 36q82 0 123 -36t41 -98q0 -25 -13.5 -50.5t-37.5 -41.5zM213 399q-40 0 -61 -19t-21 -50q0 -26 21 -44t55 -18h10
q34 0 56 18t22 44q0 31 -20.5 50t-61.5 19zM301 128v5q0 32 -22.5 52.5t-57.5 20.5h-16q-35 0 -57.5 -20.5t-22.5 -52.5v-5q0 -30 21.5 -51t66.5 -21t66.5 21t21.5 51z" />
    <glyph glyph-name="nine.dnom" horiz-adv-x="410" 
d="M200 471q76 0 121 -34t45 -102v-201q0 -69 -45 -108t-128 -39q-91 0 -156 45l34 58q57 -31 119 -31q43 0 67.5 21t24.5 61v46q-35 -19 -97 -19q-67 0 -108 34t-41 108v20q0 68 45 104.5t119 36.5zM193 240q52 0 89 19v65q0 75 -82 75q-81 0 -81 -78q0 -44 17.5 -62.5
t56.5 -18.5z" />
    <glyph glyph-name="zero.numr" horiz-adv-x="437" 
d="M43 555q0 74 47.5 117t129.5 43q81 0 127.5 -43t46.5 -117v-165q0 -74 -46.5 -116.5t-127.5 -42.5q-82 0 -129.5 43t-47.5 116v165zM309 542q0 95 -89 95t-89 -95v-140q0 -92 89 -92t89 92v140z" />
    <glyph glyph-name="one.numr" horiz-adv-x="318" 
d="M219 318h79v-74h-258v74h91v281l-66 -42l-41 64l124 83h71v-386z" />
    <glyph glyph-name="two.numr" horiz-adv-x="392" 
d="M162 323h199v-79h-327v57l185 196q39 42 39 82q0 24 -18 40.5t-51 16.5q-58 0 -130 -36l-33 62q81 53 168 53q76 0 114.5 -35.5t38.5 -93.5q0 -66 -76 -148z" />
    <glyph glyph-name="three.numr" horiz-adv-x="385" 
d="M293 481q24 -13 39.5 -41.5t15.5 -56.5v-12q0 -64 -44.5 -102t-122.5 -38q-92 0 -159 43l28 65q58 -29 124 -29q87 0 87 62v6q0 67 -66 67h-62v66h54q31 0 47 20t16 44q0 61 -74 61q-62 0 -114 -26l-28 62q63 42 153 42q74 0 112.5 -35.5t38.5 -94.5q0 -26 -12 -55.5
t-33 -47.5z" />
    <glyph glyph-name="four.numr" horiz-adv-x="407" 
d="M336 401h46v-75h-46v-82h-87v82h-228v59l164 319h89l-148 -303h123l1 154h86v-154z" />
    <glyph glyph-name="five.numr" horiz-adv-x="388" 
d="M207 538q71 0 110 -36t39 -106v-23q0 -63 -44.5 -102.5t-124.5 -39.5q-90 0 -161 46l29 62q67 -36 128 -36q39 0 62.5 20.5t23.5 52.5v12q0 76 -80 76q-53 0 -94 -26l-54 38l32 227h258v-72h-185l-16 -112q35 19 77 19z" />
    <glyph glyph-name="six.numr" horiz-adv-x="409" 
d="M222 526q153 0 153 -134v-20q0 -68 -46 -104.5t-123 -36.5q-73 0 -117.5 34.5t-44.5 102.5v198q0 68 46.5 108.5t122.5 40.5q88 0 157 -46l-35 -59q-61 33 -117 33q-44 0 -67.5 -22.5t-23.5 -63.5v-55q38 24 95 24zM207 303q85 0 85 79q0 38 -18.5 54t-59.5 16
q-51 0 -87 -23v-52q0 -74 80 -74z" />
    <glyph glyph-name="seven.numr" horiz-adv-x="342" 
d="M21 703h303v-48l-167 -411h-90l161 378h-207v81z" />
    <glyph glyph-name="eight.numr" horiz-adv-x="426" 
d="M326 486q63 -32 63 -106v-13q0 -59 -45 -99t-131 -40q-88 0 -132 38.5t-44 100.5v13q0 32 18.5 60.5t46.5 43.5q-53 34 -53 94q0 62 41.5 98t122.5 36q82 0 123 -36t41 -98q0 -25 -13.5 -50.5t-37.5 -41.5zM213 643q-40 0 -61 -19t-21 -50q0 -26 21 -44t55 -18h10
q34 0 56 18t22 44q0 31 -20.5 50t-61.5 19zM301 372v5q0 32 -22.5 52.5t-57.5 20.5h-16q-35 0 -57.5 -20.5t-22.5 -52.5v-5q0 -30 21.5 -51t66.5 -21t66.5 21t21.5 51z" />
    <glyph glyph-name="nine.numr" horiz-adv-x="410" 
d="M200 715q76 0 121 -34t45 -102v-201q0 -69 -45 -108t-128 -39q-91 0 -156 45l34 58q57 -31 119 -31q43 0 67.5 21t24.5 61v46q-35 -19 -97 -19q-67 0 -108 34t-41 108v20q0 68 45 104.5t119 36.5zM193 484q52 0 89 19v65q0 75 -82 75q-81 0 -81 -78q0 -44 17.5 -62.5
t56.5 -18.5z" />
    <glyph glyph-name="zero.sups" horiz-adv-x="437" 
d="M43 655q0 74 47.5 117t129.5 43q81 0 127.5 -43t46.5 -117v-165q0 -74 -46.5 -116.5t-127.5 -42.5q-82 0 -129.5 43t-47.5 116v165zM309 642q0 95 -89 95t-89 -95v-140q0 -92 89 -92t89 92v140z" />
    <glyph glyph-name="one.sups" horiz-adv-x="318" 
d="M219 418h79v-74h-258v74h91v281l-66 -42l-41 64l124 83h71v-386z" />
    <glyph glyph-name="two.sups" horiz-adv-x="392" 
d="M162 423h199v-79h-327v57l185 196q39 42 39 82q0 24 -18 40.5t-51 16.5q-58 0 -130 -36l-33 62q81 53 168 53q76 0 114.5 -35.5t38.5 -93.5q0 -66 -76 -148z" />
    <glyph glyph-name="three.sups" horiz-adv-x="385" 
d="M293 582q24 -13 39.5 -41.5t15.5 -56.5v-12q0 -64 -44.5 -102t-122.5 -38q-92 0 -159 43l28 65q58 -29 124 -29q87 0 87 62v6q0 67 -66 67h-62v66h54q31 0 47 20t16 44q0 61 -74 61q-62 0 -114 -26l-28 62q63 42 153 42q74 0 112.5 -35.5t38.5 -94.5q0 -26 -12 -55.5
t-33 -47.5z" />
    <glyph glyph-name="four.sups" horiz-adv-x="407" 
d="M336 501h46v-75h-46v-82h-87v82h-228v59l164 319h89l-148 -303h123l1 154h86v-154z" />
    <glyph glyph-name="five.sups" horiz-adv-x="388" 
d="M207 638q71 0 110 -36t39 -106v-23q0 -63 -44.5 -102.5t-124.5 -39.5q-90 0 -161 46l29 62q67 -36 128 -36q39 0 62.5 20.5t23.5 52.5v12q0 76 -80 76q-53 0 -94 -26l-54 38l32 227h258v-72h-185l-16 -112q35 19 77 19z" />
    <glyph glyph-name="six.sups" horiz-adv-x="409" 
d="M222 626q153 0 153 -134v-20q0 -68 -46 -104.5t-123 -36.5q-73 0 -117.5 34.5t-44.5 102.5v198q0 68 46.5 108.5t122.5 40.5q88 0 157 -46l-35 -59q-61 33 -117 33q-44 0 -67.5 -22.5t-23.5 -63.5v-55q38 24 95 24zM207 403q85 0 85 79q0 38 -18.5 54t-59.5 16
q-51 0 -87 -23v-52q0 -74 80 -74z" />
    <glyph glyph-name="seven.sups" horiz-adv-x="342" 
d="M21 803h303v-48l-167 -411h-90l161 378h-207v81z" />
    <glyph glyph-name="eight.sups" horiz-adv-x="426" 
d="M326 586q63 -32 63 -106v-13q0 -59 -45 -99t-131 -40q-88 0 -132 38.5t-44 100.5v13q0 32 18.5 60.5t46.5 43.5q-53 34 -53 94q0 62 41.5 98t122.5 36q82 0 123 -36t41 -98q0 -25 -13.5 -50.5t-37.5 -41.5zM213 743q-40 0 -61 -19t-21 -50q0 -26 21 -44t55 -18h10
q34 0 56 18t22 44q0 31 -20.5 50t-61.5 19zM301 472v5q0 32 -22.5 52.5t-57.5 20.5h-16q-35 0 -57.5 -20.5t-22.5 -52.5v-5q0 -30 21.5 -51t66.5 -21t66.5 21t21.5 51z" />
    <glyph glyph-name="nine.sups" horiz-adv-x="410" 
d="M200 815q76 0 121 -34t45 -102v-201q0 -69 -45 -108t-128 -39q-91 0 -156 45l34 58q57 -31 119 -31q43 0 67.5 21t24.5 61v46q-35 -19 -97 -19q-67 0 -108 34t-41 108v20q0 68 45 104.5t119 36.5zM193 584q52 0 89 19v65q0 75 -82 75q-81 0 -81 -78q0 -44 17.5 -62.5
t56.5 -18.5z" />
    <glyph glyph-name="exclam.case" horiz-adv-x="249" 
d="M75 525v175h99v-175l-9 -347h-81zM190 51q0 -30 -18 -46t-48 -16t-48 16t-18 46t18 46.5t48 16.5q29 0 47.5 -16.5t18.5 -46.5z" />
    <glyph glyph-name="exclamdown.case" horiz-adv-x="249" 
d="M190 649q0 -30 -18.5 -46.5t-47.5 -16.5q-30 0 -48 16.5t-18 46.5t18 46t48 16t48 -16t18 -46zM75 175l9 347h81l9 -347v-175h-99v175z" />
    <glyph glyph-name="question.case" horiz-adv-x="453" 
d="M318 534q0 38 -25.5 63t-76.5 25q-32 0 -60 -7.5t-45 -15.5t-47 -26l-43 74q90 67 203 67q96 0 146 -48t50 -124v-16q0 -40 -16 -74t-34 -53.5t-53 -50.5q-38 -42 -51.5 -70.5t-13.5 -71.5v-32h-97v34q0 65 21.5 103t74.5 91q36 35 51.5 61t15.5 63v8zM269 51
q0 -30 -18 -46t-48 -16t-48 16t-18 46t18 46.5t48 16.5q29 0 47.5 -16.5t18.5 -46.5z" />
    <glyph glyph-name="questiondown.case" horiz-adv-x="456" 
d="M185 648q0 30 18 46t48 16t48 -16t18 -46t-18 -46.5t-48 -16.5q-29 0 -47.5 16.5t-18.5 46.5zM136 165q0 -38 25.5 -63t76.5 -25q32 0 60 7.5t45 15.5t47 26l43 -74q-90 -67 -203 -67q-96 0 -146 48t-50 124v16q0 40 16 74t34 53.5t53 50.5q38 42 51.5 70.5t13.5 71.5v32
h97v-34q0 -65 -21.5 -103t-74.5 -91q-36 -35 -51.5 -61t-15.5 -63v-8z" />
    <glyph glyph-name="braceleft.case" horiz-adv-x="315" 
d="M117 185q0 49 -20 73.5t-53 24.5h-30v94h30q33 0 53 24.5t20 73.5v157q0 76 35 111t105 35h27v-84h-10q-38 0 -51 -17t-13 -57v-149q0 -103 -69 -141q69 -35 69 -141v-149q0 -40 13 -57t51 -17h10v-84h-27q-70 0 -105 35t-35 111v157z" />
    <glyph glyph-name="braceright.case" horiz-adv-x="316" 
d="M272 283q-33 0 -53 -24.5t-20 -73.5v-157q0 -146 -140 -146h-28v84h11q37 0 50.5 17t13.5 57v149q0 106 69 141q-69 38 -69 141v149q0 40 -13.5 57t-50.5 17h-11v84h28q140 0 140 -146v-157q0 -49 20 -73.5t53 -24.5h30v-94h-30z" />
    <glyph glyph-name="bracketleft.case" horiz-adv-x="286" 
d="M77 780h178v-87h-86v-722h86v-87h-178v896z" />
    <glyph glyph-name="bracketright.case" horiz-adv-x="287" 
d="M31 -29h87v722h-87v87h179v-896h-179v87z" />
    <glyph glyph-name="parenleft.case" horiz-adv-x="294" 
d="M55 536q0 97 53.5 165.5t144.5 82.5l18 -86q-54 -7 -86 -55.5t-32 -119.5v-386q0 -71 32 -119.5t86 -55.5l-18 -86q-91 14 -144.5 82t-53.5 166v412z" />
    <glyph glyph-name="parenright.case" horiz-adv-x="294" 
d="M41 783q90 -14 143.5 -82.5t53.5 -165.5v-410q0 -98 -53.5 -166t-143.5 -82l-19 86q55 7 87 55.5t32 119.5v384q0 71 -32 119.5t-87 55.5z" />
    <glyph glyph-name="emdash.case" horiz-adv-x="901" 
d="M60 398h781v-92h-781v92z" />
    <glyph glyph-name="endash.case" horiz-adv-x="591" 
d="M60 398h471v-92h-471v92z" />
    <glyph glyph-name="hyphen.case" horiz-adv-x="404" 
d="M60 398h284v-92h-284v92z" />
    <glyph glyph-name="guillemotleft.case" horiz-adv-x="460" 
d="M230 209l-58 -58l-135 147v63l135 147l58 -58l-113 -121zM412 209l-58 -58l-135 147v63l135 147l58 -58l-113 -121z" />
    <glyph glyph-name="guillemotright.case" horiz-adv-x="460" 
d="M48 209l113 120l-113 121l58 58l135 -147v-63l-135 -147zM230 209l113 120l-113 121l58 58l135 -147v-63l-135 -147z" />
    <glyph glyph-name="guilsinglleft.case" horiz-adv-x="278" 
d="M230 209l-58 -58l-135 147v63l135 147l58 -58l-113 -121z" />
    <glyph glyph-name="guilsinglright.case" horiz-adv-x="278" 
d="M48 209l113 120l-113 121l58 58l135 -147v-63l-135 -147z" />
    <glyph glyph-name="cent.osf" horiz-adv-x="474" 
d="M397 154l45 -64q-58 -50 -130 -68v-97h-86v90q-85 6 -133 61.5t-48 145.5v84q0 91 48 146.5t133 61.5v91h86v-98q72 -18 130 -68l-45 -64q-69 49 -144 52q-55 2 -81.5 -32.5t-26.5 -98.5v-63q0 -64 26.5 -98.5t81.5 -32.5q75 3 144 52z" />
    <glyph glyph-name="currency.osf" horiz-adv-x="567" 
d="M479 254q0 -52 -21 -96l68 -71l-63 -66l-66 69q-47 -30 -113 -30q-68 0 -115 30l-65 -70l-63 67l67 71q-20 42 -20 96v24q0 53 20 95l-67 72l63 66l66 -69q47 30 114 30q68 0 113 -30l66 69l63 -66l-68 -72q21 -41 21 -95v-24zM284 143q50 0 79 30.5t29 89.5v5
q0 59 -29 90t-79 31q-51 0 -80 -31t-29 -90v-5q0 -59 29 -89.5t80 -30.5z" />
    <glyph glyph-name="dollar.osf" horiz-adv-x="446" 
d="M411 146q0 -63 -40.5 -104.5t-114.5 -49.5v-90h-69v89q-93 9 -159 53l37 72q73 -43 149 -43q47 0 72 19t25 49q0 36 -23 52.5t-81 27.5q-36 7 -60.5 15t-50 25t-39 47t-13.5 72q0 60 36.5 99.5t106.5 48.5v102h69v-101q76 -6 148 -53l-39 -72q-74 43 -139 43
q-42 0 -62 -17t-20 -44q0 -14 5 -25t11.5 -17.5t21 -12t25 -8.5t32.5 -8q8 -2 13 -3q37 -9 60 -17.5t48.5 -26.5t38 -48.5t12.5 -73.5z" />
    <glyph glyph-name="Euro.osf" horiz-adv-x="522" 
d="M373 78q44 0 78 13l37 -81q-56 -24 -118 -24q-89 0 -152 44.5t-82 117.5h-111l26 83h78v48h-71l26 83h52q19 73 82 117.5t152 44.5q65 0 121 -21l-40 -84q-34 13 -78 13q-90 0 -126 -70h191l-24 -83h-182v-48h173l-24 -83h-134q36 -70 126 -70z" />
    <glyph glyph-name="sterling.osf" horiz-adv-x="491" 
d="M173 92h279v-92h-411v76q34 21 55 57.5t22 78.5h-77v89h77v46q0 98 50.5 145.5t141.5 47.5q69 0 141 -33l-32 -76q-48 24 -104 24q-51 0 -74 -26t-23 -83v-45h145v-89h-146q-2 -36 -13 -66t-21 -42z" />
    <glyph glyph-name="yen.osf" horiz-adv-x="534" 
d="M496 525l-134 -246h114v-82h-158v-63h158v-82h-158v-52h-105v52h-155v82h155v63h-155v82h111l-132 246h115l114 -225l115 225h115z" />
    <glyph glyph-name="at.case" horiz-adv-x="710" 
d="M79 485q14 104 106 163.5t222 59.5q122 0 202.5 -62t67.5 -161l-27 -209q-8 -59 -42 -93t-91 -34q-64 0 -87 45q-47 -45 -105 -45q-68 0 -99.5 36.5t-22.5 105.5l15 116q9 67 47.5 102.5t99.5 35.5h171l-35 -278q-6 -45 25 -45q34 0 41 54l27 209q9 70 -48.5 109
t-144.5 39q-88 0 -157.5 -39.5t-78.5 -108.5l-38 -267q-6 -43 6.5 -74t41 -48t64.5 -24.5t82 -7.5q72 0 140 25l21 -70q-73 -31 -166 -31q-153 0 -220 60t-52 170zM289 288q-9 -68 45 -68q22 0 44.5 10.5t33.5 26.5l29 217h-70q-57 0 -67 -78z" />
    <glyph glyph-name="ampersand.ss01" horiz-adv-x="657" 
d="M627 7q-35 -20 -76 -20q-87 0 -128 35q-70 -36 -150 -36q-113 0 -172.5 57.5t-59.5 151.5v19q0 48 28.5 96.5t71.5 65.5q-34 27 -51.5 66.5t-17.5 79.5q0 86 53 139t160 53q78 0 147 -43l-35 -74q-55 26 -107 26q-58 0 -87 -28.5t-30 -76.5q-1 -49 25.5 -78.5t77.5 -29.5
h106l21 99h72v-99h142v-81h-142v-152q0 -59 13.5 -82t54.5 -23t69 14zM148 202q0 -58 35.5 -90.5t104.5 -32.5q49 0 96 22q-5 32 -5 66v162h-100q-131 0 -131 -127z" />
    <glyph glyph-name="caroncomb.alt" 
d="M-200 565q35 36 30 65q-42 11 -42 59q0 30 18 46.5t48 16.5t48 -17.5t18 -52.5q0 -93 -79 -150z" />
    <glyph glyph-name="uni0308.case" 
d="M-324 752q-26 0 -40.5 16t-14.5 42q0 28 14.5 44.5t40.5 16.5q27 0 42 -16.5t15 -44.5q0 -26 -15 -42t-42 -16zM-109 752q-26 0 -40.5 16t-14.5 42q0 28 14.5 44.5t40.5 16.5q27 0 42 -16.5t15 -44.5q0 -26 -15 -42t-42 -16z" />
    <glyph glyph-name="uni0307.case" 
d="M-37 824q0 -31 -18.5 -47t-48.5 -16q-31 0 -49 16t-18 47t18 47.5t49 16.5q30 0 48.5 -16.5t18.5 -47.5z" />
    <glyph glyph-name="gravecomb.case" 
d="M-206 938l158 -126l-42 -63l-175 100z" />
    <glyph glyph-name="acutecomb.case" 
d="M-85 938l59 -89l-175 -100l-42 63z" />
    <glyph glyph-name="uni030B.case" 
d="M-297 932l71 -72l-131 -116l-49 49zM-101 932l71 -72l-131 -116l-49 49z" />
    <glyph glyph-name="uni0302.case" 
d="M-233 903h112l101 -115l-85 -37l-72 88l-72 -88l-85 37z" />
    <glyph glyph-name="uni030C.case" 
d="M-233 751l-101 115l85 37l72 -88l72 88l85 -37l-101 -115h-112z" />
    <glyph glyph-name="uni0306.case" 
d="M-303 885h81q0 -60 49 -60t49 60h81v-9q0 -124 -130 -124t-130 124v9z" />
    <glyph glyph-name="uni030A.case" 
d="M-220 824q0 40 25 64t66 24t66 -24t25 -64v-10q0 -41 -24.5 -64.5t-66.5 -23.5t-66.5 23.5t-24.5 64.5v10zM-129 779q35 0 35 39q0 40 -35 40t-35 -40q0 -39 35 -39z" />
    <glyph glyph-name="tildecomb.case" 
d="M-374 771q5 44 32 71t72 27q32 0 65.5 -14.5t49.5 -14.5q15 0 21 7.5t10 22.5l72 -16q-4 -43 -30 -70t-66 -27q-34 0 -71 14.5t-51 14.5q-26 0 -33 -31z" />
    <glyph glyph-name="uni0304.case" 
d="M-333 846h284v-83h-284v83z" />
    <glyph glyph-name="uni0337.case" 
d="M-57 473l35 -87l-299 -136l-29 90z" />
    <glyph glyph-name="uni0338.case" 
d="M-116 715l68 -40l-454 -710l-66 42z" />
    <glyph glyph-name="caron.alt" horiz-adv-x="604" 
d="M92 565q35 36 30 65q-42 11 -42 59q0 30 18 46.5t48 16.5t48 -17.5t18 -52.5q0 -93 -79 -150z" />
    <glyph glyph-name="acute.case" horiz-adv-x="604" 
d="M206 938l59 -89l-175 -100l-42 63z" />
    <glyph glyph-name="breve.case" horiz-adv-x="604" 
d="M43 885h81q0 -60 49 -60t49 60h81v-9q0 -124 -130 -124t-130 124v9z" />
    <glyph glyph-name="caron.case" horiz-adv-x="604" 
d="M122 751l-101 115l85 37l72 -88l72 88l85 -37l-101 -115h-112z" />
    <glyph glyph-name="circumflex.case" horiz-adv-x="604" 
d="M122 903h112l101 -115l-85 -37l-72 88l-72 -88l-85 37z" />
    <glyph glyph-name="dieresis.case" horiz-adv-x="604" 
d="M108 752q-26 0 -40.5 16t-14.5 42q0 28 14.5 44.5t40.5 16.5q27 0 42 -16.5t15 -44.5q0 -26 -15 -42t-42 -16zM323 752q-26 0 -40.5 16t-14.5 42q0 28 14.5 44.5t40.5 16.5q27 0 42 -16.5t15 -44.5q0 -26 -15 -42t-42 -16z" />
    <glyph glyph-name="dotaccent.case" horiz-adv-x="604" 
d="M171 824q0 -31 -18.5 -47t-48.5 -16q-31 0 -49 16t-18 47t18 47.5t49 16.5q30 0 48.5 -16.5t18.5 -47.5z" />
    <glyph glyph-name="grave.case" horiz-adv-x="604" 
d="M85 938l158 -126l-42 -63l-175 100z" />
    <glyph glyph-name="hungarumlaut.case" horiz-adv-x="604" 
d="M119 932l71 -72l-131 -116l-49 49zM315 932l71 -72l-131 -116l-49 49z" />
    <glyph glyph-name="macron.case" horiz-adv-x="604" 
d="M51 846h284v-83h-284v83z" />
    <glyph glyph-name="ring.case" horiz-adv-x="604" 
d="M36 824q0 40 25 64t66 24t66 -24t25 -64v-10q0 -41 -24.5 -64.5t-66.5 -23.5t-66.5 23.5t-24.5 64.5v10zM127 779q35 0 35 39q0 40 -35 40t-35 -40q0 -39 35 -39z" />
    <glyph glyph-name="tilde.case" horiz-adv-x="604" 
d="M52 771q5 44 32 71t72 27q32 0 65.5 -14.5t49.5 -14.5q15 0 21 7.5t10 22.5l72 -16q-4 -43 -30 -70t-66 -27q-34 0 -71 14.5t-51 14.5q-26 0 -33 -31z" />
    <glyph glyph-name="IJacute" horiz-adv-x="547" 
d="M202 938l59 -89l-175 -100l-42 63zM495 938l59 -89l-175 -100l-42 63zM77 700h104v-700h-104v700zM321 -81q45 45 45 129v652h104v-660q0 -128 -90 -190z" />
    <glyph glyph-name="ijacute" horiz-adv-x="463" 
d="M169 751l75 -74l-135 -121l-54 55zM402 751l75 -74l-135 -121l-54 55zM165 520v-520h-100v520h100zM398 520v-484q0 -92 -51 -141.5t-147 -54.5l-14 80q60 2 86.5 33t26.5 94l-1 473h100z" />
    </font>
</defs>
</svg>
