<?xml version="1.0" standalone="no"?>
<!DOCTYPE svg PUBLIC "-//W3C//DTD SVG 1.1//EN" "http://www.w3.org/Graphics/SVG/1.1/DTD/svg11.dtd" >
<svg xmlns="http://www.w3.org/2000/svg" xmlns:xlink="http://www.w3.org/1999/xlink" version="1.1">
<metadata>
Created by FontForge 20170731 at Thu Feb  2 14:52:55 2017
 By Aleksey,,,
Copyright (c) 2017 by MendozaVergara. All rights reserved.
</metadata>
<defs>
<font id="DarwinPro-Bold" horiz-adv-x="600" >
  <font-face 
    font-family="Darwin Pro Bold"
    font-weight="700"
    font-stretch="normal"
    units-per-em="1000"
    panose-1="0 0 8 0 0 0 0 0 0 0"
    ascent="750"
    descent="-250"
    x-height="520"
    cap-height="700"
    bbox="-596 -298 1330 1054"
    underline-thickness="50"
    underline-position="-200"
    unicode-range="U+0020-FB02"
  />
<missing-glyph horiz-adv-x="333" 
 />
    <glyph glyph-name="fi" unicode="fi" horiz-adv-x="562" 
d="M511 520v-520h-152v400h-132v-400h-151v400h-47v120h47v56q0 180 178 180q50 0 84 -16l-23 -117q-12 6 -37 6q-51 0 -51 -60v-49h284zM436 586q-40 0 -62.5 20.5t-22.5 60.5q0 84 85 84q40 0 63 -21t23 -63q0 -40 -23 -60.5t-63 -20.5z" />
    <glyph glyph-name="fl" unicode="fl" horiz-adv-x="562" 
d="M359 750h152v-750h-152v400h-132v-400h-151v400h-47v120h47v56q0 180 178 180q50 0 84 -16l-23 -117q-12 6 -37 6q-51 0 -51 -60v-49h132v230z" />
    <glyph glyph-name="f_f" unicode="ff" horiz-adv-x="635" 
d="M580 629q-32 0 -46 -14.5t-14 -45.5v-49h101v-120h-101v-400h-151v400h-142v-400h-151v400h-47v120h47v56q0 180 187 180q60 0 97 -20l-23 -117q-17 10 -50 10q-32 0 -46 -14.5t-14 -45.5v-49h142v56q0 180 187 180q59 0 96 -20l-23 -117q-17 10 -49 10z" />
    <glyph glyph-name=".notdef" horiz-adv-x="333" 
 />
    <glyph glyph-name=".null" horiz-adv-x="0" 
 />
    <glyph glyph-name="nonmarkingreturn" horiz-adv-x="333" 
 />
    <glyph glyph-name="space" unicode=" " horiz-adv-x="186" 
 />
    <glyph glyph-name="exclam" unicode="!" horiz-adv-x="266" 
d="M57 516v184h152v-184l-14 -315h-124zM224 67q0 -40 -25 -60.5t-66 -20.5q-40 0 -64.5 20.5t-24.5 60.5q0 41 24.5 62t64.5 21t65.5 -21t25.5 -62z" />
    <glyph glyph-name="quotedbl" unicode="&#x22;" horiz-adv-x="360" 
d="M33 750h133l-16 -206h-102zM195 750h133l-16 -206h-102z" />
    <glyph glyph-name="numbersign" unicode="#" horiz-adv-x="655" 
d="M605 397h-79l-20 -94h80l-27 -125h-79l-37 -178h-139l37 178h-101l-37 -178h-139l37 178h-79l27 125h78l20 94h-80l27 124h79l37 179h138l-37 -179h102l37 179h139l-37 -179h80zM367 303l20 94h-102l-19 -94h101z" />
    <glyph glyph-name="dollar" unicode="$" horiz-adv-x="599" 
d="M555 211q0 -89 -47.5 -144t-134.5 -72v-95h-117v88q-106 7 -199 66l57 118q97 -47 177 -47q109 0 109 75q0 39 -29 54.5t-88 24.5q-97 16 -150.5 66t-53.5 153q0 87 47 140.5t130 67.5v94h117v-92q73 -6 158 -55l-57 -118q-90 40 -158 40q-85 0 -85 -72q0 -40 27.5 -57.5
t86.5 -25.5q210 -30 210 -209z" />
    <glyph glyph-name="percent" unicode="%" horiz-adv-x="940" 
d="M282 -73l-111 73l482 769l116 -69zM204 287q-81 0 -130.5 44t-49.5 119v100q0 74 49 118t131 44t131 -44t49 -118v-100q0 -75 -49.5 -119t-130.5 -44zM204 406q37 0 37 51v85q0 51 -37 51q-36 0 -36 -51v-85q0 -51 36 -51zM737 -12q-82 0 -131.5 44t-49.5 119v100
q0 75 49.5 119t131.5 44q80 0 129.5 -44t49.5 -119v-100q0 -74 -49.5 -118.5t-129.5 -44.5zM737 107q16 0 26 13.5t10 37.5v85q0 51 -36 51q-38 0 -38 -51v-85q0 -51 38 -51z" />
    <glyph glyph-name="ampersand" unicode="&#x26;" horiz-adv-x="610" 
d="M599 64l-106 -90l-59 68q-78 -56 -183 -56q-117 0 -171.5 47t-54.5 142q0 115 120 199q-67 80 -67 158q0 77 53.5 129.5t146.5 52.5q104 0 152.5 -45t48.5 -119q0 -58 -35 -104t-98 -89l86 -99q19 52 22 100l129 -18q-9 -107 -56 -192zM278 589q-56 0 -56 -54
q0 -37 45 -86q73 43 73 87q0 53 -62 53zM266 115q46 0 82 25l-114 132q-53 -37 -53 -80q0 -77 85 -77z" />
    <glyph glyph-name="quotesingle" unicode="'" horiz-adv-x="198" 
d="M33 750h133l-16 -206h-102z" />
    <glyph glyph-name="parenleft" unicode="(" horiz-adv-x="310" 
d="M44 514q0 98 59.5 167.5t164.5 87.5l26 -127q-50 -7 -75.5 -45t-25.5 -95v-384q0 -57 25.5 -95t75.5 -45l-26 -126q-105 17 -164.5 86t-59.5 168v408z" />
    <glyph glyph-name="parenright" unicode=")" horiz-adv-x="310" 
d="M42 769q105 -18 164.5 -87.5t59.5 -167.5v-408q0 -99 -59.5 -168t-164.5 -86l-26 126q51 7 76 45t25 95v384q0 58 -25.5 96t-75.5 44z" />
    <glyph glyph-name="asterisk" unicode="*" horiz-adv-x="437" 
d="M143 502l-118 31l33 110l114 -44l-6 124h108l-6 -122l111 43l34 -111l-117 -32l76 -96l-88 -68l-65 105l-64 -105l-90 69z" />
    <glyph glyph-name="plus" unicode="+" horiz-adv-x="523" 
d="M191 235h-167v136h167v189h140v-189h168v-136h-168v-189h-140v189z" />
    <glyph glyph-name="comma" unicode="," horiz-adv-x="245" 
d="M121 150q41 0 66 -22.5t25 -69.5q0 -118 -122 -204l-50 50q48 46 48 86q-56 15 -56 77q0 41 24.5 62t64.5 21z" />
    <glyph glyph-name="hyphen" unicode="-" horiz-adv-x="417" 
d="M49 366h319v-132h-319v132z" />
    <glyph glyph-name="period" unicode="." horiz-adv-x="243" 
d="M212 67q0 -40 -25 -60.5t-66 -20.5q-40 0 -64.5 20.5t-24.5 60.5q0 41 24.5 62t64.5 21t65.5 -21t25.5 -62z" />
    <glyph glyph-name="slash" unicode="/" horiz-adv-x="527" 
d="M381 804l132 -54l-368 -912l-131 52z" />
    <glyph glyph-name="zero" unicode="0" horiz-adv-x="571" 
d="M45 488q0 104 66 165t174 61t174.5 -61t66.5 -165v-276q0 -104 -66.5 -165t-174.5 -61t-174 61t-66 165v276zM202 224q0 -50 22.5 -77t60.5 -27q39 0 61.5 26.5t22.5 77.5v252q0 50 -22.5 77t-61.5 27q-38 0 -60.5 -27t-22.5 -77v-252z" />
    <glyph glyph-name="one" unicode="1" horiz-adv-x="424" 
d="M318 137h89v-137h-343v137h99v383l-84 -53l-71 117l178 116h132v-563z" />
    <glyph glyph-name="two" unicode="2" horiz-adv-x="536" 
d="M263 133h244v-133h-475v90q148 145 221.5 240t73.5 160q0 43 -26.5 65t-73.5 22q-71 0 -153 -41l-54 116q102 62 228 62q115 0 176 -56.5t61 -155.5q0 -83 -49 -166t-173 -203z" />
    <glyph glyph-name="three" unicode="3" horiz-adv-x="522" 
d="M395 375q43 -21 67.5 -63t24.5 -101v-13q0 -93 -63.5 -152.5t-176.5 -59.5q-135 0 -229 58l48 114q80 -38 156 -38q46 0 74.5 23.5t28.5 66.5q0 101 -107 101h-66v108h70q44 0 68 21t23 62q1 40 -23 60.5t-70 20.5q-78 0 -144 -34l-47 110q102 55 227 55q106 0 160 -54
t52 -131q0 -101 -73 -154z" />
    <glyph glyph-name="four" unicode="4" horiz-adv-x="568" 
d="M488 255h59v-133h-59v-122h-147v122h-328v86l223 492h167l-205 -445h143v220h147v-220z" />
    <glyph glyph-name="five" unicode="5" horiz-adv-x="525" 
d="M298 443q93 0 145 -53t52 -160v-33q0 -95 -66.5 -153t-181.5 -58q-133 0 -229 58l51 114q80 -38 153 -38q52 0 82.5 22.5t30.5 64.5v15q0 43 -22 67t-64 24q-57 0 -110 -35l-92 69l43 353h371v-132h-234l-17 -144q38 19 88 19z" />
    <glyph glyph-name="six" unicode="6" horiz-adv-x="562" 
d="M317 432q41 0 77.5 -11t67.5 -33.5t49.5 -63.5t18.5 -95v-28q0 -104 -66 -159.5t-176 -55.5t-176.5 53.5t-66.5 156.5v292q0 103 68.5 164.5t183.5 61.5q127 0 225 -67l-56 -111q-77 46 -151 46q-61 0 -87.5 -27t-26.5 -79v-69q45 25 116 25zM288 118q88 0 88 94
q0 45 -19.5 66t-61.5 21q-56 0 -94 -23v-70q0 -88 87 -88z" />
    <glyph glyph-name="seven" unicode="7" horiz-adv-x="488" 
d="M18 700h459v-85l-247 -615h-159l232 554h-285v146z" />
    <glyph glyph-name="eight" unicode="8" horiz-adv-x="572" 
d="M461 373q34 -26 54.5 -69.5t20.5 -83.5v-15q0 -98 -63 -158.5t-186 -60.5q-126 0 -188.5 60t-62.5 159v15q0 39 22 84.5t53 67.5q-26 26 -43 67.5t-17 76.5q0 94 58.5 146t177.5 52q117 0 176 -52t59 -146q0 -36 -16 -76.5t-45 -66.5zM287 588q-39 0 -61.5 -22t-22.5 -59
q0 -36 21 -60.5t52 -24.5h16q32 0 54 24.5t23 60.5q0 37 -22.5 59t-59.5 22zM375 208v7q0 43 -23.5 68t-57.5 25h-15q-36 0 -59 -25t-23 -68v-7q0 -39 23 -64.5t67 -25.5q42 0 65 26t23 64z" />
    <glyph glyph-name="nine" unicode="9" horiz-adv-x="563" 
d="M274 714q110 0 176.5 -53t66.5 -157v-297q0 -106 -63.5 -163.5t-191.5 -57.5q-129 0 -225 64l55 113q80 -45 152 -45q117 0 117 98v73q-45 -24 -113 -24q-42 0 -78.5 10.5t-68 33t-50 63t-18.5 95.5v30q0 104 65.5 160.5t175.5 56.5zM269 398q54 0 92 22v70q0 92 -87 92
q-85 0 -85 -96q0 -48 18.5 -68t61.5 -20z" />
    <glyph glyph-name="colon" unicode=":" horiz-adv-x="276" 
d="M228 447q0 -40 -25 -60.5t-66 -20.5q-40 0 -64.5 20.5t-24.5 60.5q0 41 24.5 62t64.5 21t65.5 -21t25.5 -62zM228 67q0 -40 -25 -60.5t-66 -20.5q-40 0 -64.5 20.5t-24.5 60.5q0 41 24.5 62t64.5 21t65.5 -21t25.5 -62z" />
    <glyph glyph-name="semicolon" unicode=";" horiz-adv-x="277" 
d="M228 447q0 -40 -25 -60.5t-66 -20.5q-40 0 -64.5 20.5t-24.5 60.5q0 41 24.5 62t64.5 21t65.5 -21t25.5 -62zM137 150q41 0 66 -22.5t25 -69.5q0 -118 -122 -204l-50 50q48 46 48 86q-56 15 -56 77q0 41 24.5 62t64.5 21z" />
    <glyph glyph-name="less" unicode="&#x3c;" horiz-adv-x="357" 
d="M326 157l-70 -103l-232 179v92l232 181l70 -103l-159 -124z" />
    <glyph glyph-name="equal" unicode="=" horiz-adv-x="578" 
d="M51 457h476v-122h-476v122zM51 243h476v-122h-476v122z" />
    <glyph glyph-name="greater" unicode="&#x3e;" horiz-adv-x="357" 
d="M31 157l159 122l-159 124l70 103l232 -181v-92l-232 -179z" />
    <glyph glyph-name="question" unicode="?" horiz-adv-x="474" 
d="M287 517q0 26 -20 42t-51 16q-71 0 -138 -39l-60 113q90 65 209 65q107 0 162.5 -49t55.5 -135v-14q0 -60 -24 -98.5t-73 -79.5q-65 -53 -65 -115v-25h-151v33q0 69 19 104.5t68 72.5q68 51 68 102v7zM297 67q0 -40 -25 -60.5t-66 -20.5q-40 0 -64.5 20.5t-24.5 60.5
q0 41 24.5 62t64.5 21t65.5 -21t25.5 -62z" />
    <glyph glyph-name="at" unicode="@" horiz-adv-x="751" 
d="M65 380q16 117 117.5 181.5t239.5 64.5q132 0 219.5 -69t72.5 -178l-25 -190q-9 -59 -50 -95t-107 -36q-62 0 -93 33q-41 -33 -112 -33q-142 0 -123 140l17 121q10 69 49.5 105t102.5 36h189l-35 -282q-2 -18 0.5 -22.5t12.5 -4.5q12 0 22 11.5t13 30.5l25 187
q9 73 -41.5 108t-143.5 35q-89 0 -156.5 -37t-77.5 -106l-33 -235q-10 -69 38.5 -107.5t151.5 -38.5q74 0 143 21l26 -95q-81 -31 -184 -31q-151 0 -228 66.5t-61 182.5zM325 209q-5 -32 2.5 -46.5t30.5 -14.5q37 0 54 20l27 198h-53q-40 0 -48 -61z" />
    <glyph glyph-name="A" unicode="A" 
d="M374 700l233 -700h-174l-38 144q-96 -15 -190 0l-36 -144h-175l230 700h150zM237 265q62 -12 124 0l-62 240z" />
    <glyph glyph-name="B" unicode="B" horiz-adv-x="593" 
d="M471 364q36 -11 62.5 -52.5t26.5 -89.5v-34q0 -86 -54 -137t-165 -51h-277v700h255q112 0 165.5 -48t53.5 -146v-18q0 -32 -18 -69t-49 -55zM310 564h-90v-147h110q48 0 48 72v5q0 40 -15.5 55t-52.5 15zM401 196v35q0 30 -14.5 47.5t-41.5 17.5h-125v-161h91
q41 0 65.5 17t24.5 44z" />
    <glyph glyph-name="C" unicode="C" horiz-adv-x="520" 
d="M507 51q-95 -65 -220 -65q-108 0 -175 61t-67 172v263q0 111 67 171.5t175 60.5q125 0 220 -65l-60 -113q-76 41 -147 41q-44 0 -69.5 -29t-25.5 -78v-239q0 -52 25 -80t68 -28q73 0 149 41z" />
    <glyph glyph-name="D" unicode="D" horiz-adv-x="613" 
d="M329 700q111 0 175.5 -62.5t64.5 -169.5v-236q0 -107 -64.5 -169.5t-175.5 -62.5h-265v700h265zM410 244v212q0 106 -81 106h-107v-424h107q81 0 81 106z" />
    <glyph glyph-name="E" unicode="E" horiz-adv-x="527" 
d="M222 137h269v-137h-427v700h421v-138h-263v-139h217v-136h-217v-150z" />
    <glyph glyph-name="F" unicode="F" horiz-adv-x="509" 
d="M487 562h-265v-165h218v-137h-218v-260h-158v700h423v-138z" />
    <glyph glyph-name="G" unicode="G" horiz-adv-x="592" 
d="M294 389h254v-399h-113l-22 62q-30 -31 -72.5 -48.5t-81.5 -17.5q-104 0 -158 59.5t-54 168.5v268q0 106 73.5 169t196.5 63q127 0 219 -65l-58 -113q-76 41 -161 41q-54 0 -82 -27.5t-28 -79.5v-242q0 -106 84 -106q61 0 102 51v83h-99v133z" />
    <glyph glyph-name="H" unicode="H" horiz-adv-x="637" 
d="M414 700h159v-700h-159v286h-192v-286h-158v700h158v-277h192v277z" />
    <glyph glyph-name="I" unicode="I" horiz-adv-x="286" 
d="M64 700h158v-700h-158v700z" />
    <glyph glyph-name="J" unicode="J" horiz-adv-x="288" 
d="M10 -60q55 59 55 137v623h159v-624q0 -83 -32.5 -141.5t-82.5 -84.5z" />
    <glyph glyph-name="K" unicode="K" horiz-adv-x="615" 
d="M498 162q25 -48 63 -48q20 0 38 5l-1 -122q-52 -7 -79 -7q-60 0 -97 25t-72 92l-80 151l-48 -54v-204h-158v700h158v-287l193 287h187l-226 -309z" />
    <glyph glyph-name="L" unicode="L" horiz-adv-x="497" 
d="M222 137h265v-137h-423v700h158v-563z" />
    <glyph glyph-name="M" unicode="M" horiz-adv-x="734" 
d="M528 700h142v-700h-155l10 395l-122 -298h-73l-122 297l10 -394h-154v700h152l152 -374z" />
    <glyph glyph-name="N" unicode="N" horiz-adv-x="634" 
d="M414 700h156v-700h-130l-225 408l5 -408h-156v700h133l223 -417z" />
    <glyph glyph-name="O" unicode="O" horiz-adv-x="613" 
d="M307 -14q-112 0 -187.5 64t-75.5 169v263q0 105 75.5 168.5t187.5 63.5q111 0 186.5 -63.5t75.5 -168.5v-263q0 -105 -75.5 -169t-186.5 -64zM307 124q44 0 73 28t29 79v239q0 51 -29 79t-73 28q-45 0 -74 -28t-29 -79v-239q0 -51 29 -79t74 -28z" />
    <glyph glyph-name="P" unicode="P" horiz-adv-x="581" 
d="M329 700q109 0 169.5 -62t60.5 -170v-24q0 -108 -60.5 -170t-169.5 -62h-107v-212h-158v700h265zM319 350q81 0 81 106t-81 106h-98l1 -212h97z" />
    <glyph glyph-name="Q" unicode="Q" horiz-adv-x="613" 
d="M569 219q0 -68 -32.5 -119.5t-89.5 -80.5q27 -47 83 -88l-65 -71q-67 47 -119 128q-26 -2 -39 -2q-112 0 -187.5 64t-75.5 169v263q0 105 75.5 168.5t187.5 63.5q111 0 186.5 -63.5t75.5 -168.5v-263zM204 231q0 -43 21 -69.5t55 -34.5q-11 34 -22 82l93 28
q10 -46 26 -88q32 29 32 82v239q0 51 -29 79t-73 28q-45 0 -74 -28t-29 -79v-239z" />
    <glyph glyph-name="R" unicode="R" horiz-adv-x="609" 
d="M539 112q25 0 43 5l-1 -118q-47 -9 -89 -9q-57 0 -94.5 24.5t-67.5 91.5l-61 139q-21 3 -47 8v-253h-158v700h266q106 0 170.5 -59.5t64.5 -152.5v-33q0 -75 -37 -123.5t-97 -71.5l50 -108q18 -40 58 -40zM222 562v-171q56 -14 97 -14q45 0 68.5 24t23.5 62v13
q0 38 -21.5 62t-59.5 24h-108z" />
    <glyph glyph-name="S" unicode="S" horiz-adv-x="541" 
d="M76 172q94 -47 173 -47q113 0 113 75q0 34 -26 52t-89 26q-206 28 -206 220q0 95 62.5 154.5t171.5 59.5q124 0 218 -59l-57 -118q-83 40 -158 40q-43 0 -64 -20t-21 -52q0 -40 28 -57t83 -25q213 -29 213 -210q0 -100 -66 -162t-196 -62t-236 66z" />
    <glyph glyph-name="T" unicode="T" horiz-adv-x="519" 
d="M508 700v-137h-169v-563h-159v563h-169v137h497z" />
    <glyph glyph-name="U" unicode="U" horiz-adv-x="628" 
d="M405 700h159v-700h-149l-10 43q-59 -57 -148 -57q-105 0 -151 56.5t-46 167.5v490h160v-477q0 -53 18.5 -77.5t60.5 -24.5q32 0 60.5 16t45.5 40v523z" />
    <glyph glyph-name="V" unicode="V" horiz-adv-x="593" 
d="M430 700h168l-223 -700h-155l-226 700h173l133 -506z" />
    <glyph glyph-name="W" unicode="W" horiz-adv-x="900" 
d="M195 0l-200 700h164l111 -501l103 501h153l105 -500l113 500h162l-201 -700h-150l-107 475l-103 -475h-150z" />
    <glyph glyph-name="X" unicode="X" horiz-adv-x="603" 
d="M602 0h-181l-118 242l-121 -242h-180l198 353l-191 347h181l110 -228l115 228h180l-193 -338z" />
    <glyph glyph-name="Y" unicode="Y" horiz-adv-x="570" 
d="M403 700h175l-213 -438v-262h-160v261l-214 439h175l121 -278z" />
    <glyph glyph-name="Z" unicode="Z" horiz-adv-x="536" 
d="M219 137h288v-137h-476v109l275 454h-268v137h456v-112z" />
    <glyph glyph-name="bracketleft" unicode="[" horiz-adv-x="306" 
d="M60 760h220v-128h-84v-644h84v-128h-220v900z" />
    <glyph glyph-name="backslash" unicode="\" horiz-adv-x="527" 
d="M146 804l367 -914l-131 -52l-368 912z" />
    <glyph glyph-name="bracketright" unicode="]" horiz-adv-x="306" 
d="M26 -12h84v644h-84v128h220v-900h-220v128z" />
    <glyph glyph-name="asciicircum" unicode="^" horiz-adv-x="412" 
d="M146 738h121l121 -234l-121 -35l-61 152l-61 -152l-121 35z" />
    <glyph glyph-name="underscore" unicode="_" horiz-adv-x="482" 
d="M0 -36h482v-101h-482v101z" />
    <glyph glyph-name="grave" unicode="`" 
d="M164 793l123 -162l-74 -71l-157 134z" />
    <glyph glyph-name="a" unicode="a" horiz-adv-x="504" 
d="M247 530q209 0 209 -192v-338h-130l-7 48q-19 -25 -59.5 -41.5t-81.5 -16.5q-70 0 -113 38t-43 111q0 77 46.5 115.5t131.5 38.5q49 0 104 -13v46q0 75 -81 75q-65 0 -127 -30l-45 105q86 54 196 54zM223 106q52 0 81 50v30q-36 10 -74 10q-54 0 -54 -45t47 -45z" />
    <glyph glyph-name="b" unicode="b" horiz-adv-x="533" 
d="M320 530q175 0 175 -208v-129q0 -99 -49.5 -151t-143.5 -52q-78 0 -140 39l-8 -29h-103v750h152v-257q50 37 117 37zM343 200v116q0 85 -62 85q-47 0 -78 -38v-226q34 -15 69 -15q71 0 71 78z" />
    <glyph glyph-name="c" unicode="c" horiz-adv-x="447" 
d="M188 215q0 -49 17 -72.5t56 -23.5q64 0 124 30l46 -109q-80 -50 -181 -50t-157.5 57.5t-56.5 157.5v110q0 100 56.5 157.5t157.5 57.5q98 0 180 -51l-46 -108q-60 30 -120 30q-76 0 -76 -97v-89z" />
    <glyph glyph-name="d" unicode="d" horiz-adv-x="533" 
d="M330 750h152v-750h-125l-6 41q-56 -51 -133 -51q-86 0 -133 54t-47 154v129q0 99 49 151t138 52q57 0 105 -21v241zM255 119q56 0 75 48v216q-32 16 -71 16q-69 0 -69 -78v-109q0 -48 15 -70.5t50 -22.5z" />
    <glyph glyph-name="e" unicode="e" horiz-adv-x="498" 
d="M188 211v-7q0 -87 78 -87q66 0 139 37l50 -104q-89 -60 -204 -60q-101 0 -158 57t-57 157v111q0 100 58.5 157.5t159.5 57.5q98 0 155.5 -57.5t57.5 -157.5v-104h-279zM254 403q-66 0 -66 -89v-5h131v5q0 89 -65 89z" />
    <glyph glyph-name="f" unicode="f" horiz-adv-x="342" 
d="M283 629q-32 0 -44 -14.5t-12 -45.5v-49h101v-120h-101v-400h-151v400h-47v120h47v58q0 92 45 135t137 43q64 0 101 -20l-23 -117q-20 10 -53 10z" />
    <glyph glyph-name="g" unicode="g" horiz-adv-x="501" 
d="M346 136q69 -5 106.5 -41t37.5 -97q0 -158 -196 -158h-95q-174 0 -174 122q0 43 18.5 73t55.5 57q-27 21 -27 62q0 43 40 73q-70 42 -70 131q0 86 53 129t151 43q62 0 107 -17l60 117l98 -66l-92 -99q31 -42 31 -106q0 -82 -57.5 -123t-146.5 -41q-22 0 -43 3
q-8 -11 -8 -23q0 -27 32 -30zM246 421q-60 0 -60 -60t60 -60t60 60t-60 60zM300 -69q24 0 36.5 14.5t12.5 37.5q0 39 -50 42l-118 6q-22 -17 -22 -48q0 -23 15.5 -37.5t45.5 -14.5h80z" />
    <glyph glyph-name="h" unicode="h" horiz-adv-x="540" 
d="M327 530q91 0 128 -47.5t37 -141.5v-341h-152v328q0 36 -13.5 52t-45.5 16q-41 0 -78 -39v-357h-152v750h152v-269q20 21 55 35t69 14z" />
    <glyph glyph-name="i" unicode="i" horiz-adv-x="254" 
d="M212 667q0 -40 -23 -60.5t-63 -20.5t-62.5 20.5t-22.5 60.5q0 84 85 84q40 0 63 -21t23 -63zM203 520v-520h-152v520h152z" />
    <glyph glyph-name="j" unicode="j" horiz-adv-x="263" 
d="M221 667q0 -40 -23 -60.5t-63 -20.5t-62.5 20.5t-22.5 60.5q0 84 85 84q40 0 63 -21t23 -63zM212 520v-478q0 -95 -61.5 -146.5t-178.5 -55.5l-19 119q57 2 82 22.5t25 69.5v469h152z" />
    <glyph glyph-name="k" unicode="k" horiz-adv-x="521" 
d="M425 141q18 -31 53 -31q17 0 30 5l-1 -118q-42 -6 -82 -6q-51 0 -81.5 21t-55.5 67l-55 101l-30 -31v-149h-152v750h152v-407l128 177h180l-179 -222z" />
    <glyph glyph-name="l" unicode="l" horiz-adv-x="254" 
d="M51 0v750h152v-750h-152z" />
    <glyph glyph-name="m" unicode="m" horiz-adv-x="794" 
d="M589 530q157 0 157 -182v-348h-151v340q0 32 -10 46.5t-35 14.5q-42 0 -75 -46v-355h-152v340q0 56 -45 56q-39 0 -75 -43v-353h-152v520h133l11 -43q22 23 57 38t71 15q81 0 117 -63q63 63 149 63z" />
    <glyph glyph-name="n" unicode="n" horiz-adv-x="540" 
d="M327 530q88 0 126.5 -48.5t38.5 -140.5v-341h-152v328q0 36 -13 52t-45 16q-43 0 -79 -44v-352h-152v520h133l11 -43q23 23 60 38t72 15z" />
    <glyph glyph-name="o" unicode="o" horiz-adv-x="521" 
d="M36 316q0 100 60 157t164 57t164.5 -57t60.5 -157v-112q1 -99 -59.5 -156.5t-165.5 -57.5q-104 0 -164 57t-60 157v112zM188 215q-2 -96 72 -96q36 0 55 24.5t18 71.5v90q0 96 -73 96q-72 0 -72 -96v-90z" />
    <glyph glyph-name="p" unicode="p" horiz-adv-x="533" 
d="M329 530q166 0 166 -206v-129q0 -99 -51 -152t-146 -53q-50 0 -95 17v-157h-152v670h133l11 -43q54 53 134 53zM343 205v113q0 83 -64 83q-43 0 -76 -37v-228q32 -16 66 -16q37 0 55.5 19.5t18.5 65.5z" />
    <glyph glyph-name="q" unicode="q" horiz-adv-x="533" 
d="M373 522h109v-670h-152v166q-43 -28 -112 -28q-83 0 -131.5 52.5t-48.5 159.5v120q0 208 178 208q35 0 74 -10.5t63 -24.5zM254 119q43 0 76 31v232q-30 16 -72 16q-36 0 -52 -21t-16 -67v-106q0 -46 15 -65.5t49 -19.5z" />
    <glyph glyph-name="r" unicode="r" horiz-adv-x="365" 
d="M355 374q-95 0 -152 -42v-332h-152v520h133l13 -54q24 25 66.5 44.5t79.5 19.5z" />
    <glyph glyph-name="s" unicode="s" horiz-adv-x="464" 
d="M70 154q82 -45 147 -45q69 0 69 43q0 8 -2.5 14t-8 10t-11.5 7t-17.5 6t-20.5 4.5t-24.5 4.5t-27.5 6q-138 30 -138 157q0 78 49.5 123.5t141.5 45.5q112 0 203 -56l-52 -100q-74 37 -136 37q-53 0 -53 -36q0 -21 16 -29t58 -17l15 -3q33 -7 56 -15.5t49 -26t40 -49.5
t14 -76q0 -79 -55 -124t-149 -45q-119 0 -213 60z" />
    <glyph glyph-name="t" unicode="t" horiz-adv-x="374" 
d="M338 126l22 -115q-45 -21 -109 -21q-98 0 -136.5 43.5t-38.5 145.5v221h-57v120h65l24 99h120v-99h126v-120h-126v-210q0 -40 12 -56.5t42 -16.5q32 0 56 9z" />
    <glyph glyph-name="u" unicode="u" horiz-adv-x="534" 
d="M331 520h152v-520h-133l-11 43q-26 -24 -63 -38.5t-69 -14.5q-87 0 -122 50.5t-35 155.5v324h152v-313q0 -48 11 -68t39 -20q57 0 79 48v353z" />
    <glyph glyph-name="v" unicode="v" horiz-adv-x="506" 
d="M347 520h160l-187 -520h-134l-186 520h161l95 -324z" />
    <glyph glyph-name="w" unicode="w" horiz-adv-x="765" 
d="M150 0l-148 520h158l66 -321l79 321h148l88 -316l66 316h156l-148 -520h-151l-85 309l-78 -309h-151z" />
    <glyph glyph-name="x" unicode="x" horiz-adv-x="520" 
d="M517 0h-171l-88 169l-85 -169h-171l162 266l-155 254h173l78 -155l79 155h172l-156 -252z" />
    <glyph glyph-name="y" unicode="y" horiz-adv-x="506" 
d="M349 520h160l-187 -510l-58 -160l-158 1l73 182l-177 487h161l95 -316z" />
    <glyph glyph-name="z" unicode="z" horiz-adv-x="478" 
d="M214 126h237v-126h-419v96l231 298h-229v126h402v-100z" />
    <glyph glyph-name="braceleft" unicode="{" horiz-adv-x="322" 
d="M87 181q0 32 -12 42t-32 10h-31v134h31q20 0 32 10t12 42v184q0 82 40.5 119.5t120.5 37.5h46v-127h-19q-47 0 -47 -41v-164q0 -88 -65 -128q31 -17 48 -53t17 -76v-163q0 -41 47 -41h19v-127h-46q-80 0 -120.5 38t-40.5 120v183z" />
    <glyph glyph-name="bar" unicode="|" horiz-adv-x="256" 
d="M60 770h136v-940h-136v940z" />
    <glyph glyph-name="braceright" unicode="}" horiz-adv-x="322" 
d="M279 233q-20 0 -32 -10t-12 -42v-183q0 -82 -40.5 -120t-120.5 -38h-46v127h20q46 0 46 41v163q0 41 18 76.5t52 52.5q-70 39 -70 128v164q0 41 -46 41h-20v127h46q80 0 120.5 -37.5t40.5 -119.5v-184q0 -32 12 -42t32 -10h31v-134h-31z" />
    <glyph glyph-name="asciitilde" unicode="~" horiz-adv-x="561" 
d="M41 252q10 62 47.5 99t98.5 37q42 0 101 -22.5t75 -22.5q47 0 49 45l110 -16q-20 -139 -147 -139q-43 0 -99.5 22.5t-77.5 22.5q-49 0 -49 -45z" />
    <glyph glyph-name="uni00A0" unicode="&#xa0;" horiz-adv-x="186" 
 />
    <glyph glyph-name="exclamdown" unicode="&#xa1;" horiz-adv-x="255" 
d="M218 467q0 -41 -25.5 -62t-65.5 -21t-64.5 21t-24.5 62q0 40 24.5 60.5t64.5 20.5q41 0 66 -20.5t25 -60.5zM51 18l14 315h124l14 -315v-184h-152v184z" />
    <glyph glyph-name="cent" unicode="&#xa2;" horiz-adv-x="472" 
d="M396 271l51 -101q-57 -43 -123 -59v-111h-88v100q-100 1 -155 59t-55 160v62q0 102 55 160t155 59v100h88v-111q66 -16 123 -59l-51 -101q-37 22 -72 32v-222q35 10 72 32zM177 323q0 -82 59 -92v238q-59 -10 -59 -92v-54z" />
    <glyph glyph-name="sterling" unicode="&#xa3;" horiz-adv-x="521" 
d="M258 236q0 -28 -8 -54t-16 -38l-7 -11h266v-133h-459v105q72 44 72 117v69h-72v128h72v90q0 200 205 200q106 0 184 -46l-48 -107q-49 26 -109 26q-44 0 -62 -18t-18 -62v-83h131v-128h-131v-55z" />
    <glyph glyph-name="currency" unicode="&#xa4;" horiz-adv-x="591" 
d="M508 316q0 -41 -17 -85l68 -68l-95 -102l-68 70q-46 -17 -100 -17t-100 17l-67 -71l-96 103l67 68q-17 40 -17 85v40q0 43 17 82l-67 70l96 102l67 -70q46 17 100 17q60 0 100 -17l68 70l95 -102l-68 -69q17 -37 17 -83v-40zM377 324v23q0 40 -23 61t-58 21t-59 -21
t-24 -61v-23q0 -40 24 -60.5t59 -20.5t58 20.5t23 60.5z" />
    <glyph glyph-name="yen" unicode="&#xa5;" horiz-adv-x="618" 
d="M594 700l-179 -352h134v-106h-160v-55h160v-106h-160v-81h-156v81h-160v106h160v55h-160v106h131l-182 352h168l123 -259l122 259h159z" />
    <glyph glyph-name="brokenbar" unicode="&#xa6;" horiz-adv-x="262" 
d="M63 770h136v-366h-136v366zM63 191h136v-361h-136v361z" />
    <glyph glyph-name="section" unicode="&#xa7;" horiz-adv-x="509" 
d="M479 301q0 -26 -19.5 -55.5t-47.5 -51.5q24 -16 39.5 -44.5t15.5 -58.5v-19q0 -74 -55.5 -122.5t-154.5 -48.5q-126 0 -225 65l52 109q91 -48 168 -48q31 0 46 13.5t15 34.5v13q0 33 -78 47q-41 7 -71.5 17t-62 28.5t-48.5 48.5t-17 71v18q0 29 17.5 60t43.5 50
q-22 17 -35.5 44t-13.5 55v20q0 74 51.5 120.5t150.5 46.5q114 0 211 -66l-54 -103q-46 23 -78 33t-74 10q-26 0 -39.5 -12t-13.5 -31v-14q0 -36 81 -51q196 -38 196 -159v-20zM191 314q0 -14 6 -23.5t19.5 -15.5t23 -8.5t29.5 -6t26 -4.5q30 21 30 44v6q0 9 -4.5 16.5
t-13 12.5t-17 9t-21.5 6.5t-21.5 4t-21.5 3.5t-17 3q-18 -16 -18 -41v-6z" />
    <glyph glyph-name="dieresis" unicode="&#xa8;" 
d="M129 584q-36 0 -54.5 22.5t-18.5 55.5q0 34 18.5 57t54.5 23q38 0 57 -23t19 -57t-19 -56t-57 -22zM360 584q-36 0 -54 22t-18 56t18 57t54 23q38 0 57.5 -23t19.5 -57q0 -33 -19.5 -55.5t-57.5 -22.5z" />
    <glyph glyph-name="copyright" unicode="&#xa9;" horiz-adv-x="722" 
d="M362 -24q-132 0 -225.5 64.5t-93.5 171.5v273q0 106 93.5 170.5t225.5 64.5t224.5 -64.5t92.5 -170.5v-273q0 -107 -92.5 -171.5t-224.5 -64.5zM362 88q76 0 137 32.5t61 86.5v282q0 53 -61 86t-137 33t-137.5 -33t-61.5 -86v-282q0 -54 61 -86.5t138 -32.5zM372 147
q-86 0 -123.5 36t-37.5 116v99q0 81 37.5 116.5t123.5 35.5q64 0 134 -43l-39 -86q-46 25 -82 25q-29 0 -40.5 -15.5t-11.5 -50.5v-64q0 -36 12 -51.5t40 -15.5q35 0 83 26l36 -87q-69 -41 -132 -41z" />
    <glyph glyph-name="ordfeminine" unicode="&#xaa;" horiz-adv-x="485" 
d="M248 758q189 0 189 -182v-306h-122l-6 45q-18 -24 -55.5 -39t-76.5 -15q-68 0 -109.5 34.5t-41.5 102.5q0 73 43 107t130 34q45 0 95 -11v45q0 36 -19.5 50t-57.5 14q-62 0 -121 -27l-43 98q93 50 195 50zM216 369q51 0 78 46v25q-31 9 -72 9q-27 0 -39.5 -8.5
t-12.5 -31.5q0 -40 46 -40z" />
    <glyph glyph-name="guillemotleft" unicode="&#xab;" horiz-adv-x="504" 
d="M265 166l-86 -89l-149 152v100l149 153l86 -89l-115 -114zM475 166l-86 -89l-149 152v100l149 153l86 -89l-115 -114z" />
    <glyph glyph-name="logicalnot" unicode="&#xac;" horiz-adv-x="628" 
d="M43 393h531v-270h-140v139h-391v131z" />
    <glyph glyph-name="uni00AD" unicode="&#xad;" horiz-adv-x="417" 
d="M49 366h319v-132h-319v132z" />
    <glyph glyph-name="registered" unicode="&#xae;" horiz-adv-x="722" 
d="M362 720q132 0 224.5 -64.5t92.5 -170.5v-273q0 -107 -92.5 -171.5t-224.5 -64.5t-225.5 64.5t-93.5 171.5v273q0 106 93.5 170.5t225.5 64.5zM560 207v282q0 53 -61 86t-137 33t-137.5 -33t-61.5 -86v-282q0 -54 61 -86.5t138 -32.5q76 0 137 32.5t61 86.5zM519 403
q0 -83 -64 -108l76 -142h-126l-66 126h-15v-126h-113v393l169 -1q66 0 102.5 -31.5t36.5 -91.5v-19zM324 458v-95h39q23 0 34 9.5t11 34.5v8q0 24 -10.5 33.5t-34.5 9.5h-39z" />
    <glyph glyph-name="macron" unicode="&#xaf;" 
d="M38 715h320v-124h-320v124z" />
    <glyph glyph-name="degree" unicode="&#xb0;" horiz-adv-x="348" 
d="M28 578q0 63 39.5 101.5t103.5 38.5q68 0 108.5 -38.5t40.5 -101.5v-17q0 -66 -40 -103t-109 -37q-65 0 -104 37t-39 103v17zM170 507q56 0 56 60q0 62 -56 62q-49 0 -49 -62q0 -28 12.5 -44t36.5 -16z" />
    <glyph glyph-name="plusminus" unicode="&#xb1;" horiz-adv-x="560" 
d="M43 415h174v134h128v-134h173v-121h-173v-134h-128v134h-174v121zM43 118h475v-118h-475v118z" />
    <glyph glyph-name="uni00B2" unicode="&#xb2;" horiz-adv-x="402" 
d="M235 453h142v-124h-344v88l166 185q28 31 28 57q0 30 -40 30q-50 0 -131 -43l-44 103q95 63 187 63q85 0 126.5 -41.5t41.5 -110.5q0 -64 -73 -143z" />
    <glyph glyph-name="uni00B3" unicode="&#xb3;" horiz-adv-x="388" 
d="M314 573q47 -32 47 -91v-6q0 -76 -46 -118.5t-131 -42.5q-102 0 -169 32l28 102q59 -14 129 -14q47 0 47 43v3q0 25 -12.5 34t-42.5 9h-39v88h37q45 0 45 41q0 22 -8.5 31.5t-34.5 9.5q-52 0 -105 -14l-28 99q62 33 162 33q75 0 115.5 -39.5t40.5 -103.5q0 -58 -35 -96z
" />
    <glyph glyph-name="acute" unicode="&#xb4;" 
d="M169 793l108 -99l-157 -134l-74 71z" />
    <glyph glyph-name="uni00B5" unicode="&#xb5;" horiz-adv-x="546" 
d="M494 520v-316q-1 -100 -53.5 -157t-143.5 -57q-50 0 -84 25v-33q-1 -33 -12 -71t-28 -61l-135 44q23 66 23 160v466h152v-305q-1 -49 13.5 -72.5t50.5 -23.5q30 0 47.5 25t17.5 71v305h152z" />
    <glyph glyph-name="paragraph" unicode="&#xb6;" horiz-adv-x="561" 
d="M238 258h-13q-89 0 -146 55t-57 154v24q0 101 59 155t168 54h242v-810h-87v712h-80v-712h-86v368z" />
    <glyph glyph-name="periodcentered" unicode="&#xb7;" horiz-adv-x="252" 
d="M125 437q40 0 65.5 -21t25.5 -62q0 -40 -25 -60.5t-66 -20.5q-40 0 -64.5 20.5t-24.5 60.5q0 41 24.5 62t64.5 21z" />
    <glyph glyph-name="cedilla" unicode="&#xb8;" 
d="M38 -117q18 -6 40 -6q35 0 35 27q0 16 -15.5 23t-31.5 7l-15 -1l29 67h94l-11 -31q61 -14 61 -73q0 -48 -32.5 -69.5t-83.5 -21.5q-44 0 -77 11z" />
    <glyph glyph-name="uni00B9" unicode="&#xb9;" horiz-adv-x="358" 
d="M260 443h70v-114h-279v114h71v204l-44 -28l-52 97l121 88h113v-361z" />
    <glyph glyph-name="ordmasculine" unicode="&#xba;" horiz-adv-x="491" 
d="M33 560q0 92 56.5 145t155.5 53t156 -53t57 -145v-102q0 -92 -57 -144.5t-156 -52.5t-155.5 52.5t-56.5 144.5v102zM175 468q0 -87 70 -87q71 0 71 87v82q0 87 -71 87q-70 0 -70 -87v-82z" />
    <glyph glyph-name="guillemotright" unicode="&#xbb;" horiz-adv-x="504" 
d="M29 166l115 113l-115 114l86 89l149 -153v-100l-149 -152zM239 166l115 113l-115 114l86 89l149 -153v-100l-149 -152z" />
    <glyph glyph-name="onequarter" unicode="&#xbc;" horiz-adv-x="1040" 
d="M620 781l127 -51l-343 -809l-127 51zM50 356h87v183l-52 -32l-63 107l140 92h113v-350h84v-114h-309v114zM979 183h39v-107h-40v-76h-137v76h-225v85l133 302h137l-117 -280h72v128h138v-128z" />
    <glyph glyph-name="onehalf" unicode="&#xbd;" horiz-adv-x="1037" 
d="M612 781l127 -51l-343 -809l-127 51zM49 356h87v183l-52 -32l-63 107l140 92h113v-350h84v-114h-309v114zM863 124h146v-124h-344v88l166 178q28 31 28 52q0 35 -40 35q-50 0 -131 -43l-44 103q95 63 187 63q85 0 126.5 -41.5t41.5 -110.5q0 -77 -73 -143z" />
    <glyph glyph-name="threequarters" unicode="&#xbe;" horiz-adv-x="1002" 
d="M613 781l127 -51l-343 -809l-127 51zM377 379q0 -69 -48.5 -110t-138.5 -41q-103 0 -167 31l30 107q65 -21 121 -21q61 0 61 45v3q0 38 -58 38h-55v94h53q24 0 36 11t12 28q0 36 -55 36q-47 0 -99 -14l-30 99q62 33 160 33q166 0 166 -143q0 -52 -38 -90q50 -32 50 -100
v-6zM941 183h39v-107h-40v-76h-137v76h-225v85l133 302h137l-117 -280h72v128h138v-128z" />
    <glyph glyph-name="questiondown" unicode="&#xbf;" horiz-adv-x="469" 
d="M175 471q0 40 25 60.5t66 20.5q40 0 64.5 -20.5t24.5 -60.5q0 -41 -24.5 -62t-64.5 -21t-65.5 21t-25.5 62zM185 21q0 -26 20 -42t51 -16q71 0 138 39l60 -113q-90 -65 -209 -65q-107 0 -162.5 49t-55.5 135v14q0 60 24 98.5t73 79.5q65 53 65 115v25h151v-33
q0 -69 -19 -104.5t-68 -72.5q-68 -51 -68 -102v-7z" />
    <glyph glyph-name="Agrave" unicode="&#xc0;" 
d="M433 824l-43 -83l-218 80l68 135zM374 700l233 -700h-174l-38 144q-96 -15 -190 0l-36 -144h-175l230 700h150zM237 265q62 -12 124 0l-62 240z" />
    <glyph glyph-name="Aacute" unicode="&#xc1;" 
d="M429 821l-218 -81l-42 84l193 132zM374 700l233 -700h-174l-38 144q-96 -15 -190 0l-36 -144h-175l230 700h150zM237 265q62 -12 124 0l-62 240z" />
    <glyph glyph-name="Acircumflex" unicode="&#xc2;" 
d="M301 837l-85 -91l-96 60l103 112h156l103 -112l-96 -60zM374 700l233 -700h-174l-38 144q-96 -15 -190 0l-36 -144h-175l230 700h150zM237 265q62 -12 124 0l-62 240z" />
    <glyph glyph-name="Atilde" unicode="&#xc3;" 
d="M239 788q-17 0 -28.5 -10.5t-11.5 -31.5l-99 23q5 61 39 98.5t91 37.5q31 0 74.5 -23t58.5 -23q16 0 27 10.5t11 31.5l101 -22q-10 -136 -130 -136q-33 0 -75 22.5t-58 22.5zM374 700l233 -700h-174l-38 144q-96 -15 -190 0l-36 -144h-175l230 700h150zM237 265
q62 -12 124 0l-62 240z" />
    <glyph glyph-name="Adieresis" unicode="&#xc4;" 
d="M175 761q-35 0 -53 21.5t-18 54.5t18 55.5t53 22.5q37 0 56 -22.5t19 -55.5t-19 -54.5t-56 -21.5zM422 761q-35 0 -53 21.5t-18 54.5t18 55.5t53 22.5q37 0 56 -22.5t19 -55.5t-19 -54.5t-56 -21.5zM374 700l233 -700h-174l-38 144q-96 -15 -190 0l-36 -144h-175l230 700
h150zM237 265q62 -12 124 0l-62 240z" />
    <glyph glyph-name="Aring" unicode="&#xc5;" 
d="M301 738q-46 0 -76.5 27t-30.5 74v10q0 45 30.5 73t76.5 28t76.5 -28t30.5 -73v-10q0 -47 -30.5 -74t-76.5 -27zM301 879q-33 0 -33 -36q0 -35 33 -35t33 35q0 36 -33 36zM374 700l233 -700h-174l-38 144q-96 -15 -190 0l-36 -144h-175l230 700h150zM237 265
q62 -12 124 0l-62 240z" />
    <glyph glyph-name="AE" unicode="&#xc6;" horiz-adv-x="895" 
d="M590 137h269v-137h-427v146h-192l-67 -146h-190l366 700h504v-138h-263v-139h217v-136h-217v-150zM302 283h130v285z" />
    <glyph glyph-name="Ccedilla" unicode="&#xc7;" horiz-adv-x="520" 
d="M507 51q-75 -52 -166 -62l-7 -20q61 -14 61 -73q0 -48 -32.5 -69.5t-83.5 -21.5q-44 0 -77 11l7 67q18 -6 40 -6q35 0 35 27q0 16 -15.5 23t-30.5 7l-16 -1l24 55q-92 12 -146.5 71.5t-54.5 159.5v263q0 111 67 171.5t175 60.5q125 0 220 -65l-60 -113q-76 41 -147 41
q-44 0 -69.5 -29t-25.5 -78v-239q0 -52 25 -80t68 -28q73 0 149 41z" />
    <glyph glyph-name="Egrave" unicode="&#xc8;" horiz-adv-x="527" 
d="M412 824l-43 -83l-218 80l68 135zM222 137h269v-137h-427v700h421v-138h-263v-139h217v-136h-217v-150z" />
    <glyph glyph-name="Eacute" unicode="&#xc9;" horiz-adv-x="527" 
d="M408 821l-218 -81l-42 84l193 132zM222 137h269v-137h-427v700h421v-138h-263v-139h217v-136h-217v-150z" />
    <glyph glyph-name="Ecircumflex" unicode="&#xca;" horiz-adv-x="527" 
d="M280 837l-85 -91l-96 60l103 112h156l103 -112l-96 -60zM222 137h269v-137h-427v700h421v-138h-263v-139h217v-136h-217v-150z" />
    <glyph glyph-name="Edieresis" unicode="&#xcb;" horiz-adv-x="527" 
d="M154 761q-35 0 -53 21.5t-18 54.5t18 55.5t53 22.5q37 0 56 -22.5t19 -55.5t-19 -54.5t-56 -21.5zM401 761q-35 0 -53 21.5t-18 54.5t18 55.5t53 22.5q37 0 56 -22.5t19 -55.5t-19 -54.5t-56 -21.5zM222 137h269v-137h-427v700h421v-138h-263v-139h217v-136h-217v-150z
" />
    <glyph glyph-name="Igrave" unicode="&#xcc;" horiz-adv-x="286" 
d="M42 956l193 -132l-43 -83l-218 80zM64 700h158v-700h-158v700z" />
    <glyph glyph-name="Iacute" unicode="&#xcd;" horiz-adv-x="286" 
d="M251 956l67 -135l-218 -81l-42 84zM64 700h158v-700h-158v700z" />
    <glyph glyph-name="Icircumflex" unicode="&#xce;" horiz-adv-x="286" 
d="M65 918h156l103 -112l-96 -60l-85 91l-85 -91l-96 60zM64 700h158v-700h-158v700z" />
    <glyph glyph-name="Idieresis" unicode="&#xcf;" horiz-adv-x="286" 
d="M51 748q-35 0 -53 21.5t-18 54.5t18 55.5t53 22.5q37 0 56 -22.5t19 -55.5t-19 -54.5t-56 -21.5zM238 748q-35 0 -53 21.5t-18 54.5t18 55.5t53 22.5q37 0 56 -22.5t19 -55.5t-19 -54.5t-56 -21.5zM64 700h158v-700h-158v700z" />
    <glyph glyph-name="Eth" unicode="&#xd0;" horiz-adv-x="619" 
d="M335 700q111 0 175.5 -62.5t64.5 -169.5v-236q0 -107 -64.5 -169.5t-175.5 -62.5h-265v305h-55v110h55v285h265zM416 244v212q0 106 -81 106h-107v-147h104v-110h-104v-167h107q81 0 81 106z" />
    <glyph glyph-name="Ntilde" unicode="&#xd1;" horiz-adv-x="634" 
d="M255 788q-17 0 -28.5 -10.5t-11.5 -31.5l-99 23q5 61 39 98.5t91 37.5q31 0 74.5 -23t58.5 -23q16 0 27 10.5t11 31.5l101 -22q-10 -136 -130 -136q-33 0 -75 22.5t-58 22.5zM414 700h156v-700h-130l-225 408l5 -408h-156v700h133l223 -417z" />
    <glyph glyph-name="Ograve" unicode="&#xd2;" horiz-adv-x="613" 
d="M245 956l193 -132l-43 -83l-218 80zM307 -14q-112 0 -187.5 64t-75.5 169v263q0 105 75.5 168.5t187.5 63.5q111 0 186.5 -63.5t75.5 -168.5v-263q0 -105 -75.5 -169t-186.5 -64zM307 124q44 0 73 28t29 79v239q0 51 -29 79t-73 28q-45 0 -74 -28t-29 -79v-239
q0 -51 29 -79t74 -28z" />
    <glyph glyph-name="Oacute" unicode="&#xd3;" horiz-adv-x="613" 
d="M367 956l67 -135l-218 -81l-42 84zM307 -14q-112 0 -187.5 64t-75.5 169v263q0 105 75.5 168.5t187.5 63.5q111 0 186.5 -63.5t75.5 -168.5v-263q0 -105 -75.5 -169t-186.5 -64zM307 124q44 0 73 28t29 79v239q0 51 -29 79t-73 28q-45 0 -74 -28t-29 -79v-239
q0 -51 29 -79t74 -28z" />
    <glyph glyph-name="Ocircumflex" unicode="&#xd4;" horiz-adv-x="613" 
d="M228 918h156l103 -112l-96 -60l-85 91l-85 -91l-96 60zM307 -14q-112 0 -187.5 64t-75.5 169v263q0 105 75.5 168.5t187.5 63.5q111 0 186.5 -63.5t75.5 -168.5v-263q0 -105 -75.5 -169t-186.5 -64zM307 124q44 0 73 28t29 79v239q0 51 -29 79t-73 28q-45 0 -74 -28
t-29 -79v-239q0 -51 29 -79t74 -28z" />
    <glyph glyph-name="Otilde" unicode="&#xd5;" horiz-adv-x="613" 
d="M105 769q5 61 39 98.5t91 37.5q31 0 74.5 -23t58.5 -23q16 0 27 10.5t11 31.5l101 -22q-10 -136 -130 -136q-33 0 -75 22.5t-58 22.5q-17 0 -28.5 -10.5t-11.5 -31.5zM307 -14q-112 0 -187.5 64t-75.5 169v263q0 105 75.5 168.5t187.5 63.5q111 0 186.5 -63.5
t75.5 -168.5v-263q0 -105 -75.5 -169t-186.5 -64zM307 124q44 0 73 28t29 79v239q0 51 -29 79t-73 28q-45 0 -74 -28t-29 -79v-239q0 -51 29 -79t74 -28z" />
    <glyph glyph-name="Odieresis" unicode="&#xd6;" horiz-adv-x="613" 
d="M180 761q-35 0 -53 21.5t-18 54.5t18 55.5t53 22.5q37 0 56 -22.5t19 -55.5t-19 -54.5t-56 -21.5zM427 761q-35 0 -53 21.5t-18 54.5t18 55.5t53 22.5q37 0 56 -22.5t19 -55.5t-19 -54.5t-56 -21.5zM307 -14q-112 0 -187.5 64t-75.5 169v263q0 105 75.5 168.5t187.5 63.5
q111 0 186.5 -63.5t75.5 -168.5v-263q0 -105 -75.5 -169t-186.5 -64zM307 124q44 0 73 28t29 79v239q0 51 -29 79t-73 28q-45 0 -74 -28t-29 -79v-239q0 -51 29 -79t74 -28z" />
    <glyph glyph-name="multiply" unicode="&#xd7;" horiz-adv-x="553" 
d="M119 26l-92 100l158 161l-158 162l92 100l157 -162l159 162l91 -100l-158 -162l158 -161l-91 -100l-159 161z" />
    <glyph glyph-name="Oslash" unicode="&#xd8;" horiz-adv-x="613" 
d="M584 683l-50 -79q35 -54 35 -122v-263q0 -105 -75.5 -169t-186.5 -64q-79 0 -144 34l-41 -65l-93 59l51 80q-36 55 -36 125v263q0 105 75.5 168.5t187.5 63.5q81 0 144 -34l37 58zM204 470v-180l168 266q-26 21 -65 21q-45 0 -74 -28t-29 -79zM409 231v176l-167 -263
q28 -20 65 -20q44 0 73 28t29 79z" />
    <glyph glyph-name="Ugrave" unicode="&#xd9;" horiz-adv-x="628" 
d="M444 824l-43 -83l-218 80l68 135zM405 700h159v-700h-149l-10 43q-59 -57 -148 -57q-105 0 -151 56.5t-46 167.5v490h160v-477q0 -53 18.5 -77.5t60.5 -24.5q32 0 60.5 16t45.5 40v523z" />
    <glyph glyph-name="Uacute" unicode="&#xda;" horiz-adv-x="628" 
d="M440 821l-218 -81l-42 84l193 132zM405 700h159v-700h-149l-10 43q-59 -57 -148 -57q-105 0 -151 56.5t-46 167.5v490h160v-477q0 -53 18.5 -77.5t60.5 -24.5q32 0 60.5 16t45.5 40v523z" />
    <glyph glyph-name="Ucircumflex" unicode="&#xdb;" horiz-adv-x="628" 
d="M312 837l-85 -91l-96 60l103 112h156l103 -112l-96 -60zM405 700h159v-700h-149l-10 43q-59 -57 -148 -57q-105 0 -151 56.5t-46 167.5v490h160v-477q0 -53 18.5 -77.5t60.5 -24.5q32 0 60.5 16t45.5 40v523z" />
    <glyph glyph-name="Udieresis" unicode="&#xdc;" horiz-adv-x="628" 
d="M186 761q-35 0 -53 21.5t-18 54.5t18 55.5t53 22.5q37 0 56 -22.5t19 -55.5t-19 -54.5t-56 -21.5zM433 761q-35 0 -53 21.5t-18 54.5t18 55.5t53 22.5q37 0 56 -22.5t19 -55.5t-19 -54.5t-56 -21.5zM405 700h159v-700h-149l-10 43q-59 -57 -148 -57q-105 0 -151 56.5
t-46 167.5v490h160v-477q0 -53 18.5 -77.5t60.5 -24.5q32 0 60.5 16t45.5 40v523z" />
    <glyph glyph-name="Yacute" unicode="&#xdd;" horiz-adv-x="570" 
d="M413 821l-218 -81l-42 84l193 132zM403 700h175l-213 -438v-262h-160v261l-214 439h175l121 -278z" />
    <glyph glyph-name="Thorn" unicode="&#xde;" horiz-adv-x="589" 
d="M320 585q111 0 175 -57.5t64 -162.5v-30q0 -105 -64 -162.5t-175 -57.5h-98v-115h-158v700h158v-115h98zM400 344v12q0 93 -80 93h-98v-199h98q80 0 80 94z" />
    <glyph glyph-name="germandbls" unicode="&#xdf;" horiz-adv-x="589" 
d="M79 335h-47v128h47v79q0 101 57.5 157.5t164.5 56.5q90 0 150.5 -42t60.5 -119q0 -42 -41.5 -97t-41.5 -90q0 -22 15 -45t36 -44.5t42 -46t36 -58t15 -70.5q0 -71 -46 -114.5t-150 -43.5q-62 0 -110 15l24 125q39 -9 72 -9q57 0 57 41q0 20 -15 39.5t-37 37.5t-43.5 39.5
t-36.5 54t-15 72.5q0 29 14 55t31 42t31 37t14 41q0 24 -16 39t-46 15q-70 0 -70 -98v-532h-152v335z" />
    <glyph glyph-name="agrave" unicode="&#xe0;" horiz-adv-x="504" 
d="M344 631l-74 -71l-157 134l108 99zM247 530q209 0 209 -192v-338h-130l-7 48q-19 -25 -59.5 -41.5t-81.5 -16.5q-70 0 -113 38t-43 111q0 77 46.5 115.5t131.5 38.5q49 0 104 -13v46q0 75 -81 75q-65 0 -127 -30l-45 105q86 54 196 54zM223 106q52 0 81 50v30
q-36 10 -74 10q-54 0 -54 -45t47 -45z" />
    <glyph glyph-name="aacute" unicode="&#xe1;" horiz-adv-x="504" 
d="M389 694l-157 -134l-74 71l123 162zM247 530q209 0 209 -192v-338h-130l-7 48q-19 -25 -59.5 -41.5t-81.5 -16.5q-70 0 -113 38t-43 111q0 77 46.5 115.5t131.5 38.5q49 0 104 -13v46q0 75 -81 75q-65 0 -127 -30l-45 105q86 54 196 54zM223 106q52 0 81 50v30
q-36 10 -74 10q-54 0 -54 -45t47 -45z" />
    <glyph glyph-name="acircumflex" unicode="&#xe2;" horiz-adv-x="504" 
d="M249 662l-80 -95l-97 56l114 128h126l114 -128l-97 -56zM247 530q209 0 209 -192v-338h-130l-7 48q-19 -25 -59.5 -41.5t-81.5 -16.5q-70 0 -113 38t-43 111q0 77 46.5 115.5t131.5 38.5q49 0 104 -13v46q0 75 -81 75q-65 0 -127 -30l-45 105q86 54 196 54zM223 106
q52 0 81 50v30q-36 10 -74 10q-54 0 -54 -45t47 -45z" />
    <glyph glyph-name="atilde" unicode="&#xe3;" horiz-adv-x="504" 
d="M187 629q-17 0 -28.5 -10.5t-11.5 -31.5l-99 23q5 61 38.5 98t91.5 37q33 0 75.5 -22.5t57.5 -22.5q16 0 27 10.5t11 31.5l101 -22q-10 -136 -130 -136q-35 0 -76 22.5t-57 22.5zM247 530q209 0 209 -192v-338h-130l-7 48q-19 -25 -59.5 -41.5t-81.5 -16.5q-70 0 -113 38
t-43 111q0 77 46.5 115.5t131.5 38.5q49 0 104 -13v46q0 75 -81 75q-65 0 -127 -30l-45 105q86 54 196 54zM223 106q52 0 81 50v30q-36 10 -74 10q-54 0 -54 -45t47 -45z" />
    <glyph glyph-name="adieresis" unicode="&#xe4;" horiz-adv-x="504" 
d="M131 584q-36 0 -54.5 22.5t-18.5 55.5q0 34 18.5 57t54.5 23q38 0 57 -23t19 -57t-19 -56t-57 -22zM362 584q-36 0 -54 22t-18 56t18 57t54 23q38 0 57.5 -23t19.5 -57q0 -33 -19.5 -55.5t-57.5 -22.5zM247 530q209 0 209 -192v-338h-130l-7 48q-19 -25 -59.5 -41.5
t-81.5 -16.5q-70 0 -113 38t-43 111q0 77 46.5 115.5t131.5 38.5q49 0 104 -13v46q0 75 -81 75q-65 0 -127 -30l-45 105q86 54 196 54zM223 106q52 0 81 50v30q-36 10 -74 10q-54 0 -54 -45t47 -45z" />
    <glyph glyph-name="aring" unicode="&#xe5;" horiz-adv-x="504" 
d="M248 566q-45 0 -74.5 26t-29.5 71v12q0 43 30 70t74 27q46 0 76 -26.5t30 -70.5v-12q0 -45 -30 -71t-76 -26zM248 704q-29 0 -29 -36q0 -35 29 -35q32 0 32 35q0 36 -32 36zM247 530q209 0 209 -192v-338h-130l-7 48q-19 -25 -59.5 -41.5t-81.5 -16.5q-70 0 -113 38
t-43 111q0 77 46.5 115.5t131.5 38.5q49 0 104 -13v46q0 75 -81 75q-65 0 -127 -30l-45 105q86 54 196 54zM223 106q52 0 81 50v30q-36 10 -74 10q-54 0 -54 -45t47 -45z" />
    <glyph glyph-name="ae" unicode="&#xe6;" horiz-adv-x="766" 
d="M456 211v-7q0 -87 78 -87q66 0 139 37l50 -104q-89 -60 -204 -60t-173 74q-62 -74 -165 -74q-71 0 -115 38t-44 111q0 79 45 116.5t137 37.5q46 0 100 -13v49q0 40 -20 56t-60 16q-66 0 -128 -30l-45 105q99 54 206 54q85 0 133 -36q52 36 132 36q98 0 155.5 -57.5
t57.5 -157.5v-104h-279zM522 403q-66 0 -66 -89v-5h131v5q0 89 -65 89zM223 106q57 0 84 56q-2 14 -2 24q-36 10 -75 10q-28 0 -41 -9.5t-13 -35.5q0 -45 47 -45z" />
    <glyph glyph-name="ccedilla" unicode="&#xe7;" horiz-adv-x="447" 
d="M296 -31q61 -14 61 -73q0 -48 -32.5 -69.5t-83.5 -21.5q-44 0 -77 11l7 67q18 -6 40 -6q35 0 35 27q0 16 -15.5 23t-30.5 7l-16 -1l26 60q-83 11 -128.5 67t-45.5 145v110q0 100 56.5 157.5t157.5 57.5q98 0 180 -51l-46 -108q-60 30 -120 30q-76 0 -76 -97v-89
q0 -49 17 -72.5t56 -23.5q64 0 124 30l46 -109q-53 -34 -126 -45z" />
    <glyph glyph-name="egrave" unicode="&#xe8;" horiz-adv-x="498" 
d="M351 631l-74 -71l-157 134l108 99zM188 211v-7q0 -87 78 -87q66 0 139 37l50 -104q-89 -60 -204 -60q-101 0 -158 57t-57 157v111q0 100 58.5 157.5t159.5 57.5q98 0 155.5 -57.5t57.5 -157.5v-104h-279zM254 403q-66 0 -66 -89v-5h131v5q0 89 -65 89z" />
    <glyph glyph-name="eacute" unicode="&#xe9;" horiz-adv-x="498" 
d="M396 694l-157 -134l-74 71l123 162zM188 211v-7q0 -87 78 -87q66 0 139 37l50 -104q-89 -60 -204 -60q-101 0 -158 57t-57 157v111q0 100 58.5 157.5t159.5 57.5q98 0 155.5 -57.5t57.5 -157.5v-104h-279zM254 403q-66 0 -66 -89v-5h131v5q0 89 -65 89z" />
    <glyph glyph-name="ecircumflex" unicode="&#xea;" horiz-adv-x="498" 
d="M256 662l-80 -95l-97 56l114 128h126l114 -128l-97 -56zM188 211v-7q0 -87 78 -87q66 0 139 37l50 -104q-89 -60 -204 -60q-101 0 -158 57t-57 157v111q0 100 58.5 157.5t159.5 57.5q98 0 155.5 -57.5t57.5 -157.5v-104h-279zM254 403q-66 0 -66 -89v-5h131v5
q0 89 -65 89z" />
    <glyph glyph-name="edieresis" unicode="&#xeb;" horiz-adv-x="498" 
d="M138 584q-36 0 -54.5 22.5t-18.5 55.5q0 34 18.5 57t54.5 23q38 0 57 -23t19 -57t-19 -56t-57 -22zM369 584q-36 0 -54 22t-18 56t18 57t54 23q38 0 57.5 -23t19.5 -57q0 -33 -19.5 -55.5t-57.5 -22.5zM188 211v-7q0 -87 78 -87q66 0 139 37l50 -104q-89 -60 -204 -60
q-101 0 -158 57t-57 157v111q0 100 58.5 157.5t159.5 57.5q98 0 155.5 -57.5t57.5 -157.5v-104h-279zM254 403q-66 0 -66 -89v-5h131v5q0 89 -65 89z" />
    <glyph glyph-name="igrave" unicode="&#xec;" horiz-adv-x="254" 
d="M89 793l123 -162l-74 -71l-157 134zM203 520v-520h-152v520h152z" />
    <glyph glyph-name="iacute" unicode="&#xed;" horiz-adv-x="254" 
d="M159 793l108 -99l-157 -134l-74 71zM203 520v-520h-152v520h152z" />
    <glyph glyph-name="icircumflex" unicode="&#xee;" horiz-adv-x="254" 
d="M190 751l114 -128l-97 -56l-80 95l-80 -95l-97 56l114 128h126zM203 520v-520h-152v520h152z" />
    <glyph glyph-name="idieresis" unicode="&#xef;" horiz-adv-x="254" 
d="M33 584q-36 0 -54.5 22.5t-18.5 55.5q0 34 18.5 57t54.5 23q38 0 57 -23t19 -57t-19 -56t-57 -22zM220 584q-36 0 -54 22t-18 56t18 57t54 23q38 0 57.5 -23t19.5 -57q0 -33 -19.5 -55.5t-57.5 -22.5zM203 520v-520h-152v520h152z" />
    <glyph glyph-name="eth" unicode="&#xf0;" horiz-adv-x="525" 
d="M478 703l-41 -36q41 -51 41 -134v-338q0 -99 -57.5 -152t-170.5 -53q-97 0 -155 48t-58 142v128q0 106 52 155.5t141 49.5q63 0 105 -27v27q0 36 -12 55l-40 -34l-52 68l29 25q-16 8 -42 8q-33 0 -58 -8l-26 112q49 16 97 16q83 0 139 -34l58 50zM253 107q45 0 63.5 26
t18.5 87v145q-29 31 -79 31q-48 0 -66 -26.5t-18 -90.5v-59q0 -61 18.5 -87t62.5 -26z" />
    <glyph glyph-name="ntilde" unicode="&#xf1;" horiz-adv-x="540" 
d="M207 629q-17 0 -28.5 -10.5t-11.5 -31.5l-99 23q5 61 38.5 98t91.5 37q34 0 76 -22.5t57 -22.5q16 0 27 10.5t11 31.5l101 -22q-10 -136 -130 -136q-35 0 -76 22.5t-57 22.5zM327 530q88 0 126.5 -48.5t38.5 -140.5v-341h-152v328q0 36 -13 52t-45 16q-43 0 -79 -44v-352
h-152v520h133l11 -43q23 23 60 38t72 15z" />
    <glyph glyph-name="ograve" unicode="&#xf2;" horiz-adv-x="521" 
d="M222 793l123 -162l-74 -71l-157 134zM36 316q0 100 60 157t164 57t164.5 -57t60.5 -157v-112q1 -99 -59.5 -156.5t-165.5 -57.5q-104 0 -164 57t-60 157v112zM188 215q-2 -96 72 -96q36 0 55 24.5t18 71.5v90q0 96 -73 96q-72 0 -72 -96v-90z" />
    <glyph glyph-name="oacute" unicode="&#xf3;" horiz-adv-x="521" 
d="M282 793l108 -99l-157 -134l-74 71zM36 316q0 100 60 157t164 57t164.5 -57t60.5 -157v-112q1 -99 -59.5 -156.5t-165.5 -57.5q-104 0 -164 57t-60 157v112zM188 215q-2 -96 72 -96q36 0 55 24.5t18 71.5v90q0 96 -73 96q-72 0 -72 -96v-90z" />
    <glyph glyph-name="ocircumflex" unicode="&#xf4;" horiz-adv-x="521" 
d="M323 751l114 -128l-97 -56l-80 95l-80 -95l-97 56l114 128h126zM36 316q0 100 60 157t164 57t164.5 -57t60.5 -157v-112q1 -99 -59.5 -156.5t-165.5 -57.5q-104 0 -164 57t-60 157v112zM188 215q-2 -96 72 -96q36 0 55 24.5t18 71.5v90q0 96 -73 96q-72 0 -72 -96v-90z
" />
    <glyph glyph-name="otilde" unicode="&#xf5;" horiz-adv-x="521" 
d="M59 610q5 61 38.5 98t91.5 37q33 0 75 -22.5t58 -22.5t27 10.5t11 31.5l101 -22q-10 -136 -130 -136q-35 0 -76 22.5t-57 22.5q-17 0 -28.5 -10.5t-11.5 -31.5zM36 316q0 100 60 157t164 57t164.5 -57t60.5 -157v-112q1 -99 -59.5 -156.5t-165.5 -57.5q-104 0 -164 57
t-60 157v112zM188 215q-2 -96 72 -96q36 0 55 24.5t18 71.5v90q0 96 -73 96q-72 0 -72 -96v-90z" />
    <glyph glyph-name="odieresis" unicode="&#xf6;" horiz-adv-x="521" 
d="M142 584q-36 0 -54.5 22.5t-18.5 55.5q0 34 18.5 57t54.5 23q38 0 57 -23t19 -57t-19 -56t-57 -22zM373 584q-36 0 -54 22t-18 56t18 57t54 23q38 0 57.5 -23t19.5 -57q0 -33 -19.5 -55.5t-57.5 -22.5zM36 316q0 100 60 157t164 57t164.5 -57t60.5 -157v-112
q1 -99 -59.5 -156.5t-165.5 -57.5q-104 0 -164 57t-60 157v112zM188 215q-2 -96 72 -96q36 0 55 24.5t18 71.5v90q0 96 -73 96q-72 0 -72 -96v-90z" />
    <glyph glyph-name="divide" unicode="&#xf7;" horiz-adv-x="535" 
d="M358 491q0 -40 -25 -60.5t-66 -20.5q-40 0 -64.5 20.5t-24.5 60.5q0 41 24.5 62t64.5 21t65.5 -21t25.5 -62zM27 346h481v-132h-481v132zM358 67q0 -40 -25 -60.5t-66 -20.5q-40 0 -64.5 20.5t-24.5 60.5q0 41 24.5 62t64.5 21t65.5 -21t25.5 -62z" />
    <glyph glyph-name="oslash" unicode="&#xf8;" horiz-adv-x="545" 
d="M485 316v-112q1 -99 -59.5 -156.5t-165.5 -57.5q-36 0 -70 8l-24 -39l-108 60l25 41q-47 56 -47 144v112q0 100 60 157t164 57q57 0 102 -18l28 46l106 -61l-40 -65q29 -49 29 -116zM260 119q36 0 55 24.5t18 71.5v90q0 96 -73 96q-72 0 -72 -96v-90q-2 -96 72 -96z" />
    <glyph glyph-name="ugrave" unicode="&#xf9;" horiz-adv-x="534" 
d="M362 631l-74 -71l-157 134l108 99zM331 520h152v-520h-133l-11 43q-26 -24 -63 -38.5t-69 -14.5q-87 0 -122 50.5t-35 155.5v324h152v-313q0 -48 11 -68t39 -20q57 0 79 48v353z" />
    <glyph glyph-name="uacute" unicode="&#xfa;" horiz-adv-x="534" 
d="M377 694l-157 -134l-74 71l123 162zM331 520h152v-520h-133l-11 43q-26 -24 -63 -38.5t-69 -14.5q-87 0 -122 50.5t-35 155.5v324h152v-313q0 -48 11 -68t39 -20q57 0 79 48v353z" />
    <glyph glyph-name="ucircumflex" unicode="&#xfb;" horiz-adv-x="534" 
d="M267 662l-80 -95l-97 56l114 128h126l114 -128l-97 -56zM331 520h152v-520h-133l-11 43q-26 -24 -63 -38.5t-69 -14.5q-87 0 -122 50.5t-35 155.5v324h152v-313q0 -48 11 -68t39 -20q57 0 79 48v353z" />
    <glyph glyph-name="udieresis" unicode="&#xfc;" horiz-adv-x="534" 
d="M149 584q-36 0 -54.5 22.5t-18.5 55.5q0 34 18.5 57t54.5 23q38 0 57 -23t19 -57t-19 -56t-57 -22zM380 584q-36 0 -54 22t-18 56t18 57t54 23q38 0 57.5 -23t19.5 -57q0 -33 -19.5 -55.5t-57.5 -22.5zM331 520h152v-520h-133l-11 43q-26 -24 -63 -38.5t-69 -14.5
q-87 0 -122 50.5t-35 155.5v324h152v-313q0 -48 11 -68t39 -20q57 0 79 48v353z" />
    <glyph glyph-name="yacute" unicode="&#xfd;" horiz-adv-x="506" 
d="M410 694l-157 -134l-74 71l123 162zM349 520h160l-187 -510l-58 -160l-158 1l73 182l-177 487h161l95 -316z" />
    <glyph glyph-name="thorn" unicode="&#xfe;" horiz-adv-x="535" 
d="M325 530q94 0 133 -49.5t39 -153.5v-123q0 -100 -54.5 -157t-150.5 -57q-56 0 -89 15v-155h-152v900h152v-267q23 20 57 33.5t65 13.5zM345 215v103q0 43 -13 60.5t-46 17.5q-44 0 -83 -44v-219q32 -14 71 -14q71 0 71 96z" />
    <glyph glyph-name="ydieresis" unicode="&#xff;" horiz-adv-x="506" 
d="M152 584q-36 0 -54.5 22.5t-18.5 55.5q0 34 18.5 57t54.5 23q38 0 57 -23t19 -57t-19 -56t-57 -22zM383 584q-36 0 -54 22t-18 56t18 57t54 23q38 0 57.5 -23t19.5 -57q0 -33 -19.5 -55.5t-57.5 -22.5zM349 520h160l-187 -510l-58 -160l-158 1l73 182l-177 487h161
l95 -316z" />
    <glyph glyph-name="Amacron" unicode="&#x100;" 
d="M466 874v-122h-330v122h330zM374 700l233 -700h-174l-38 144q-96 -15 -190 0l-36 -144h-175l230 700h150zM237 265q62 -12 124 0l-62 240z" />
    <glyph glyph-name="amacron" unicode="&#x101;" horiz-adv-x="504" 
d="M409 715v-124h-320v124h320zM247 530q209 0 209 -192v-338h-130l-7 48q-19 -25 -59.5 -41.5t-81.5 -16.5q-70 0 -113 38t-43 111q0 77 46.5 115.5t131.5 38.5q49 0 104 -13v46q0 75 -81 75q-65 0 -127 -30l-45 105q86 54 196 54zM223 106q52 0 81 50v30q-36 10 -74 10
q-54 0 -54 -45t47 -45z" />
    <glyph glyph-name="Abreve" unicode="&#x102;" 
d="M301 739q-74 0 -117 34t-43 95v32h113q0 -62 47 -62t47 62h113v-32q0 -61 -43 -95t-117 -34zM374 700l233 -700h-174l-38 144q-96 -15 -190 0l-36 -144h-175l230 700h150zM237 265q62 -12 124 0l-62 240z" />
    <glyph glyph-name="abreve" unicode="&#x103;" horiz-adv-x="504" 
d="M249 566q-69 0 -116 37t-47 107v21h110q0 -66 53 -66t53 66h110v-21q0 -70 -47 -107t-116 -37zM247 530q209 0 209 -192v-338h-130l-7 48q-19 -25 -59.5 -41.5t-81.5 -16.5q-70 0 -113 38t-43 111q0 77 46.5 115.5t131.5 38.5q49 0 104 -13v46q0 75 -81 75
q-65 0 -127 -30l-45 105q86 54 196 54zM223 106q52 0 81 50v30q-36 10 -74 10q-54 0 -54 -45t47 -45z" />
    <glyph glyph-name="Aogonek" unicode="&#x104;" 
d="M542 -101q16 0 27 6l15 -87q-33 -15 -87 -15q-48 0 -77 22.5t-29 64.5t23 70t52 40h-33l-38 144q-96 -15 -190 0l-36 -144h-175l230 700h150l233 -700h-39q-52 -26 -52 -71q0 -30 26 -30zM237 265q62 -12 124 0l-62 240z" />
    <glyph glyph-name="aogonek" unicode="&#x105;" horiz-adv-x="504" 
d="M466 -95l15 -87q-33 -15 -86 -15t-84.5 25t-31.5 72q0 38 23 63.5t52 36.5h-28l-7 48q-19 -25 -59.5 -41.5t-81.5 -16.5q-70 0 -113 38t-43 111q0 77 46.5 115.5t131.5 38.5q49 0 104 -13v46q0 75 -81 75q-65 0 -127 -30l-45 105q86 54 196 54q209 0 209 -192v-338
q-52 -26 -52 -65q0 -36 35 -36q11 0 27 6zM223 106q52 0 81 50v30q-36 10 -74 10q-54 0 -54 -45t47 -45z" />
    <glyph glyph-name="Cacute" unicode="&#x106;" horiz-adv-x="520" 
d="M355 956l67 -135l-218 -81l-42 84zM507 51q-95 -65 -220 -65q-108 0 -175 61t-67 172v263q0 111 67 171.5t175 60.5q125 0 220 -65l-60 -113q-76 41 -147 41q-44 0 -69.5 -29t-25.5 -78v-239q0 -52 25 -80t68 -28q73 0 149 41z" />
    <glyph glyph-name="cacute" unicode="&#x107;" horiz-adv-x="447" 
d="M284 793l108 -99l-157 -134l-74 71zM188 215q0 -49 17 -72.5t56 -23.5q64 0 124 30l46 -109q-80 -50 -181 -50t-157.5 57.5t-56.5 157.5v110q0 100 56.5 157.5t157.5 57.5q98 0 180 -51l-46 -108q-60 30 -120 30q-76 0 -76 -97v-89z" />
    <glyph glyph-name="Ccircumflex" unicode="&#x108;" horiz-adv-x="520" 
d="M216 918h156l103 -112l-96 -60l-85 91l-85 -91l-96 60zM507 51q-95 -65 -220 -65q-108 0 -175 61t-67 172v263q0 111 67 171.5t175 60.5q125 0 220 -65l-60 -113q-76 41 -147 41q-44 0 -69.5 -29t-25.5 -78v-239q0 -52 25 -80t68 -28q73 0 149 41z" />
    <glyph glyph-name="ccircumflex" unicode="&#x109;" horiz-adv-x="447" 
d="M315 751l114 -128l-97 -56l-80 95l-80 -95l-97 56l114 128h126zM188 215q0 -49 17 -72.5t56 -23.5q64 0 124 30l46 -109q-80 -50 -181 -50t-157.5 57.5t-56.5 157.5v110q0 100 56.5 157.5t157.5 57.5q98 0 180 -51l-46 -108q-60 30 -120 30q-76 0 -76 -97v-89z" />
    <glyph glyph-name="Cdotaccent" unicode="&#x10a;" horiz-adv-x="520" 
d="M379 828q0 -40 -23 -60.5t-63 -20.5t-62.5 20.5t-22.5 60.5q0 84 85 84q40 0 63 -21t23 -63zM507 51q-95 -65 -220 -65q-108 0 -175 61t-67 172v263q0 111 67 171.5t175 60.5q125 0 220 -65l-60 -113q-76 41 -147 41q-44 0 -69.5 -29t-25.5 -78v-239q0 -52 25 -80t68 -28
q73 0 149 41z" />
    <glyph glyph-name="cdotaccent" unicode="&#x10b;" horiz-adv-x="447" 
d="M337 667q0 -40 -23 -60.5t-63 -20.5t-62.5 20.5t-22.5 60.5q0 84 85 84q40 0 63 -21t23 -63zM188 215q0 -49 17 -72.5t56 -23.5q64 0 124 30l46 -109q-80 -50 -181 -50t-157.5 57.5t-56.5 157.5v110q0 100 56.5 157.5t157.5 57.5q98 0 180 -51l-46 -108q-60 30 -120 30
q-76 0 -76 -97v-89z" />
    <glyph glyph-name="Ccaron" unicode="&#x10c;" horiz-adv-x="520" 
d="M216 744l-103 112l96 60l85 -91l85 91l96 -60l-103 -112h-156zM507 51q-95 -65 -220 -65q-108 0 -175 61t-67 172v263q0 111 67 171.5t175 60.5q125 0 220 -65l-60 -113q-76 41 -147 41q-44 0 -69.5 -29t-25.5 -78v-239q0 -52 25 -80t68 -28q73 0 149 41z" />
    <glyph glyph-name="ccaron" unicode="&#x10d;" horiz-adv-x="447" 
d="M189 568l-114 128l97 56l80 -95l80 95l97 -56l-114 -128h-126zM188 215q0 -49 17 -72.5t56 -23.5q64 0 124 30l46 -109q-80 -50 -181 -50t-157.5 57.5t-56.5 157.5v110q0 100 56.5 157.5t157.5 57.5q98 0 180 -51l-46 -108q-60 30 -120 30q-76 0 -76 -97v-89z" />
    <glyph glyph-name="Dcaron" unicode="&#x10e;" horiz-adv-x="613" 
d="M385 744h-156l-103 112l96 60l85 -91l85 91l96 -60zM329 700q111 0 175.5 -62.5t64.5 -169.5v-236q0 -107 -64.5 -169.5t-175.5 -62.5h-265v700h265zM410 244v212q0 106 -81 106h-107v-424h107q81 0 81 106z" />
    <glyph glyph-name="dcaron" unicode="&#x10f;" horiz-adv-x="616" 
d="M606 754q40 0 65.5 -21t25.5 -62q0 -110 -103 -179l-48 42q29 42 27 60q-56 15 -56 77q0 41 24.5 62t64.5 21zM330 509v241h152v-750h-125l-6 41q-56 -51 -133 -51q-86 0 -133 54t-47 154v129q0 99 49 151t138 52q57 0 105 -21zM255 119q56 0 75 48v216q-32 16 -71 16
q-69 0 -69 -78v-109q0 -48 15 -70.5t50 -22.5z" />
    <glyph glyph-name="Dcroat" unicode="&#x110;" horiz-adv-x="619" 
d="M335 700q111 0 175.5 -62.5t64.5 -169.5v-236q0 -107 -64.5 -169.5t-175.5 -62.5h-265v305h-55v110h55v285h265zM416 244v212q0 106 -81 106h-107v-147h104v-110h-104v-167h107q81 0 81 106z" />
    <glyph glyph-name="dcroat" unicode="&#x111;" horiz-adv-x="533" 
d="M540 698v-110h-58v-588h-125l-6 41q-56 -51 -133 -51q-86 0 -133 54t-47 154v129q0 99 49 151t138 52q57 0 105 -21v79h-89v110h89v52h152v-52h58zM255 119q56 0 75 48v216q-32 16 -71 16q-69 0 -69 -78v-109q0 -48 15 -70.5t50 -22.5z" />
    <glyph glyph-name="Emacron" unicode="&#x112;" horiz-adv-x="527" 
d="M445 874v-122h-330v122h330zM222 137h269v-137h-427v700h421v-138h-263v-139h217v-136h-217v-150z" />
    <glyph glyph-name="emacron" unicode="&#x113;" horiz-adv-x="498" 
d="M416 715v-124h-320v124h320zM188 211v-7q0 -87 78 -87q66 0 139 37l50 -104q-89 -60 -204 -60q-101 0 -158 57t-57 157v111q0 100 58.5 157.5t159.5 57.5q98 0 155.5 -57.5t57.5 -157.5v-104h-279zM254 403q-66 0 -66 -89v-5h131v5q0 89 -65 89z" />
    <glyph glyph-name="Ebreve" unicode="&#x114;" horiz-adv-x="527" 
d="M280 739q-74 0 -117 34t-43 95v32h113q0 -62 47 -62t47 62h113v-32q0 -61 -43 -95t-117 -34zM222 137h269v-137h-427v700h421v-138h-263v-139h217v-136h-217v-150z" />
    <glyph glyph-name="ebreve" unicode="&#x115;" horiz-adv-x="498" 
d="M256 566q-69 0 -116 37t-47 107v21h110q0 -66 53 -66t53 66h110v-21q0 -70 -47 -107t-116 -37zM188 211v-7q0 -87 78 -87q66 0 139 37l50 -104q-89 -60 -204 -60q-101 0 -158 57t-57 157v111q0 100 58.5 157.5t159.5 57.5q98 0 155.5 -57.5t57.5 -157.5v-104h-279z
M254 403q-66 0 -66 -89v-5h131v5q0 89 -65 89z" />
    <glyph glyph-name="Edotaccent" unicode="&#x116;" horiz-adv-x="527" 
d="M279 747q-40 0 -62.5 20.5t-22.5 60.5q0 84 85 84q40 0 63 -21t23 -63q0 -40 -23 -60.5t-63 -20.5zM222 137h269v-137h-427v700h421v-138h-263v-139h217v-136h-217v-150z" />
    <glyph glyph-name="edotaccent" unicode="&#x117;" horiz-adv-x="498" 
d="M255 586q-40 0 -62.5 20.5t-22.5 60.5q0 84 85 84q40 0 63 -21t23 -63q0 -40 -23 -60.5t-63 -20.5zM188 211v-7q0 -87 78 -87q66 0 139 37l50 -104q-89 -60 -204 -60q-101 0 -158 57t-57 157v111q0 100 58.5 157.5t159.5 57.5q98 0 155.5 -57.5t57.5 -157.5v-104h-279z
M254 403q-66 0 -66 -89v-5h131v5q0 89 -65 89z" />
    <glyph glyph-name="Eogonek" unicode="&#x118;" horiz-adv-x="527" 
d="M492 -95l15 -87q-33 -15 -87 -15q-48 0 -77 22.5t-29 64.5t23 70t52 40h-325v700h421v-138h-263v-139h217v-136h-217v-150h269v-137q-52 -26 -52 -71q0 -30 26 -30q16 0 27 6z" />
    <glyph glyph-name="eogonek" unicode="&#x119;" horiz-adv-x="498" 
d="M188 211v-7q0 -87 78 -87q66 0 139 37l50 -104q-43 -29 -94 -45q-44 -24 -44 -66q0 -30 26 -30q17 0 27 6l15 -87q-33 -15 -87 -15q-48 0 -77 22.5t-29 64.5q0 56 42 90q-94 5 -146 62t-52 152v111q0 100 58.5 157.5t159.5 57.5q98 0 155.5 -57.5t57.5 -157.5v-104h-279z
M254 403q-66 0 -66 -89v-5h131v5q0 89 -65 89z" />
    <glyph glyph-name="Ecaron" unicode="&#x11a;" horiz-adv-x="527" 
d="M358 744h-156l-103 112l96 60l85 -91l85 91l96 -60zM222 137h269v-137h-427v700h421v-138h-263v-139h217v-136h-217v-150z" />
    <glyph glyph-name="ecaron" unicode="&#x11b;" horiz-adv-x="498" 
d="M319 568h-126l-114 128l97 56l80 -95l80 95l97 -56zM188 211v-7q0 -87 78 -87q66 0 139 37l50 -104q-89 -60 -204 -60q-101 0 -158 57t-57 157v111q0 100 58.5 157.5t159.5 57.5q98 0 155.5 -57.5t57.5 -157.5v-104h-279zM254 403q-66 0 -66 -89v-5h131v5q0 89 -65 89z
" />
    <glyph glyph-name="Gcircumflex" unicode="&#x11c;" horiz-adv-x="592" 
d="M306 837l-85 -91l-96 60l103 112h156l103 -112l-96 -60zM294 389h254v-399h-113l-22 62q-30 -31 -72.5 -48.5t-81.5 -17.5q-104 0 -158 59.5t-54 168.5v268q0 106 73.5 169t196.5 63q127 0 219 -65l-58 -113q-76 41 -161 41q-54 0 -82 -27.5t-28 -79.5v-242
q0 -106 84 -106q61 0 102 51v83h-99v133z" />
    <glyph glyph-name="gcircumflex" unicode="&#x11d;" horiz-adv-x="480" 
d="M235 662l-80 -95l-97 56l114 128h126l114 -128l-97 -56zM337 136q69 -5 106.5 -41t37.5 -97q0 -158 -196 -158h-95q-174 0 -174 122q0 43 18.5 73t55.5 57q-27 21 -27 62q0 43 40 73q-70 42 -70 131q0 86 53 129t151 43q66 0 114 -20l89 94l75 -91l-98 -58q24 -37 24 -96
q0 -82 -57.5 -123t-146.5 -41q-22 0 -43 3q-8 -11 -8 -23q0 -27 32 -30zM237 421q-60 0 -60 -60t60 -60t60 60t-60 60zM291 -69q24 0 36.5 14.5t12.5 37.5q0 39 -50 42l-118 6q-22 -17 -22 -48q0 -23 15.5 -37.5t45.5 -14.5h80z" />
    <glyph glyph-name="Gbreve" unicode="&#x11e;" horiz-adv-x="592" 
d="M306 739q-74 0 -117 34t-43 95v32h113q0 -62 47 -62t47 62h113v-32q0 -61 -43 -95t-117 -34zM294 389h254v-399h-113l-22 62q-30 -31 -72.5 -48.5t-81.5 -17.5q-104 0 -158 59.5t-54 168.5v268q0 106 73.5 169t196.5 63q127 0 219 -65l-58 -113q-76 41 -161 41
q-54 0 -82 -27.5t-28 -79.5v-242q0 -106 84 -106q61 0 102 51v83h-99v133z" />
    <glyph glyph-name="gbreve" unicode="&#x11f;" horiz-adv-x="501" 
d="M244 566q-69 0 -116 37t-47 107v21h110q0 -66 53 -66t53 66h110v-21q0 -70 -47 -107t-116 -37zM346 136q69 -5 106.5 -41t37.5 -97q0 -158 -196 -158h-95q-174 0 -174 122q0 43 18.5 73t55.5 57q-27 21 -27 62q0 43 40 73q-70 42 -70 131q0 86 53 129t151 43
q66 0 114 -20l89 94l75 -91l-98 -59q24 -38 24 -95q0 -82 -57.5 -123t-146.5 -41q-22 0 -43 3q-8 -11 -8 -23q0 -27 32 -30zM246 421q-60 0 -60 -60t60 -60t60 60t-60 60zM300 -69q24 0 36.5 14.5t12.5 37.5q0 39 -50 42l-118 6q-22 -17 -22 -48q0 -23 15.5 -37.5
t45.5 -14.5h80z" />
    <glyph glyph-name="Gdotaccent" unicode="&#x120;" horiz-adv-x="592" 
d="M305 747q-40 0 -62.5 20.5t-22.5 60.5q0 84 85 84q40 0 63 -21t23 -63q0 -40 -23 -60.5t-63 -20.5zM294 389h254v-399h-113l-22 62q-30 -31 -72.5 -48.5t-81.5 -17.5q-104 0 -158 59.5t-54 168.5v268q0 106 73.5 169t196.5 63q127 0 219 -65l-58 -113q-76 41 -161 41
q-54 0 -82 -27.5t-28 -79.5v-242q0 -106 84 -106q61 0 102 51v83h-99v133z" />
    <glyph glyph-name="gdotaccent" unicode="&#x121;" horiz-adv-x="501" 
d="M243 586q-40 0 -62.5 20.5t-22.5 60.5q0 84 85 84q40 0 63 -21t23 -63q0 -40 -23 -60.5t-63 -20.5zM346 136q69 -5 106.5 -41t37.5 -97q0 -158 -196 -158h-95q-174 0 -174 122q0 43 18.5 73t55.5 57q-27 21 -27 62q0 43 40 73q-70 42 -70 131q0 86 53 129t151 43
q62 0 107 -17l60 117l98 -66l-92 -99q31 -42 31 -106q0 -82 -57.5 -123t-146.5 -41q-22 0 -43 3q-8 -11 -8 -23q0 -27 32 -30zM246 421q-60 0 -60 -60t60 -60t60 60t-60 60zM300 -69q24 0 36.5 14.5t12.5 37.5q0 39 -50 42l-118 6q-22 -17 -22 -48q0 -23 15.5 -37.5
t45.5 -14.5h80z" />
    <glyph glyph-name="Gcommaaccent" unicode="&#x122;" horiz-adv-x="592" 
d="M294 389h254v-399h-113l-22 62q-30 -31 -72.5 -48.5t-81.5 -17.5q-104 0 -158 59.5t-54 168.5v268q0 106 73.5 169t196.5 63q127 0 219 -65l-58 -113q-76 41 -161 41q-54 0 -82 -27.5t-28 -79.5v-242q0 -106 84 -106q61 0 102 51v83h-99v133zM312 -36q40 0 65.5 -21
t25.5 -62q0 -110 -103 -179l-48 42q29 42 27 60q-56 15 -56 77q0 41 24.5 62t64.5 21z" />
    <glyph glyph-name="gcommaaccent" unicode="&#x123;" horiz-adv-x="501" 
d="M248 578q-40 0 -65.5 21t-25.5 62q0 110 103 179l48 -42q-29 -42 -27 -60q56 -15 56 -77q0 -41 -24.5 -62t-64.5 -21zM346 136q69 -5 106.5 -41t37.5 -97q0 -158 -196 -158h-95q-174 0 -174 122q0 43 18.5 73t55.5 57q-27 21 -27 62q0 43 40 73q-70 42 -70 131
q0 86 53 129t151 43q62 0 107 -17l60 117l98 -66l-92 -99q31 -42 31 -106q0 -82 -57.5 -123t-146.5 -41q-22 0 -43 3q-8 -11 -8 -23q0 -27 32 -30zM246 421q-60 0 -60 -60t60 -60t60 60t-60 60zM300 -69q24 0 36.5 14.5t12.5 37.5q0 39 -50 42l-118 6q-22 -17 -22 -48
q0 -23 15.5 -37.5t45.5 -14.5h80z" />
    <glyph glyph-name="Hcircumflex" unicode="&#x124;" horiz-adv-x="637" 
d="M318 837l-85 -91l-96 60l103 112h156l103 -112l-96 -60zM414 700h159v-700h-159v286h-192v-286h-158v700h158v-277h192v277z" />
    <glyph glyph-name="hcircumflex" unicode="&#x125;" horiz-adv-x="540" 
d="M212 796l-85 91l-85 -91l-96 60l103 112h156l103 -112zM327 530q91 0 128 -47.5t37 -141.5v-341h-152v328q0 36 -13.5 52t-45.5 16q-41 0 -78 -39v-357h-152v750h152v-269q20 21 55 35t69 14z" />
    <glyph glyph-name="Hbar" unicode="&#x126;" horiz-adv-x="639" 
d="M607 608v-110h-33v-498h-159v286h-192v-286h-158v498h-34v110h34v92h158v-92h192v92h159v-92h33zM415 423v75h-192v-75h192z" />
    <glyph glyph-name="hbar" unicode="&#x127;" horiz-adv-x="540" 
d="M327 530q91 0 128 -47.5t37 -141.5v-341h-152v328q0 36 -13.5 52t-45.5 16q-41 0 -78 -39v-357h-152v583h-61v110h61v57h152v-57h86v-110h-86v-102q20 21 55 35t69 14z" />
    <glyph glyph-name="Itilde" unicode="&#x128;" horiz-adv-x="286" 
d="M-58 769q5 61 39 98.5t91 37.5q31 0 74.5 -23t58.5 -23q16 0 27 10.5t11 31.5l101 -22q-10 -136 -130 -136q-33 0 -75 22.5t-58 22.5q-17 0 -28.5 -10.5t-11.5 -31.5zM64 700h158v-700h-158v700z" />
    <glyph glyph-name="itilde" unicode="&#x129;" horiz-adv-x="254" 
d="M-54 610q5 61 35 98t82 37q30 0 68 -22.5t52 -22.5q34 0 34 42l91 -22q-9 -136 -117 -136q-32 0 -68.5 22.5t-51.5 22.5q-36 0 -36 -42zM203 520v-520h-152v520h152z" />
    <glyph glyph-name="Imacron" unicode="&#x12a;" horiz-adv-x="286" 
d="M-22 874h330v-122h-330v122zM64 700h158v-700h-158v700z" />
    <glyph glyph-name="imacron" unicode="&#x12b;" horiz-adv-x="254" 
d="M-33 715h320v-124h-320v124zM203 520v-520h-152v520h152z" />
    <glyph glyph-name="Ibreve" unicode="&#x12c;" horiz-adv-x="286" 
d="M-17 900h113q0 -62 47 -62t47 62h113v-32q0 -61 -43 -95t-117 -34t-117 34t-43 95v32zM64 700h158v-700h-158v700z" />
    <glyph glyph-name="ibreve" unicode="&#x12d;" horiz-adv-x="254" 
d="M-36 731h110q0 -66 53 -66t53 66h110v-21q0 -70 -47 -107t-116 -37t-116 37t-47 107v21zM203 520v-520h-152v520h152z" />
    <glyph glyph-name="Iogonek" unicode="&#x12e;" horiz-adv-x="286" 
d="M216 -95l15 -87q-33 -15 -86 -15t-84.5 25t-31.5 72q0 38 23 63.5t52 36.5h-40v700h158v-700h-16q-52 -26 -52 -65q0 -36 35 -36q11 0 27 6z" />
    <glyph glyph-name="iogonek" unicode="&#x12f;" horiz-adv-x="254" 
d="M126 586q-40 0 -62.5 20.5t-22.5 60.5q0 84 85 84q40 0 63 -21t23 -63q0 -40 -23 -60.5t-63 -20.5zM198 -95l15 -87q-33 -15 -86 -15t-84.5 25t-31.5 72q0 38 23 63.5t52 36.5h-35v520h152v-520h-15q-52 -26 -52 -65q0 -36 35 -36q11 0 27 6z" />
    <glyph glyph-name="Idotaccent" unicode="&#x130;" horiz-adv-x="286" 
d="M228 828q0 -40 -23 -60.5t-63 -20.5t-62.5 20.5t-22.5 60.5q0 84 85 84q40 0 63 -21t23 -63zM64 700h158v-700h-158v700z" />
    <glyph glyph-name="dotlessi" unicode="&#x131;" horiz-adv-x="254" 
d="M203 520v-520h-152v520h152z" />
    <glyph glyph-name="IJ" unicode="&#x132;" horiz-adv-x="586" 
d="M64 700h158v-700h-158v700zM308 -60q55 59 55 137v623h159v-624q0 -83 -32.5 -141.5t-82.5 -84.5z" />
    <glyph glyph-name="ij" unicode="&#x133;" horiz-adv-x="521" 
d="M212 667q0 -40 -23 -60.5t-63 -20.5t-62.5 20.5t-22.5 60.5q0 84 85 84q40 0 63 -21t23 -63zM479 667q0 -40 -23 -60.5t-63 -20.5t-62.5 20.5t-22.5 60.5q0 84 85 84q40 0 63 -21t23 -63zM203 520v-520h-152v520h152zM470 520v-478q0 -95 -61.5 -146.5t-178.5 -55.5
l-19 119q57 2 82 22.5t25 69.5v469h152z" />
    <glyph glyph-name="Jcircumflex" unicode="&#x134;" horiz-adv-x="288" 
d="M66 918h156l103 -112l-96 -60l-85 91l-85 -91l-96 60zM10 -60q55 59 55 137v623h159v-624q0 -83 -32.5 -141.5t-82.5 -84.5z" />
    <glyph glyph-name="jcircumflex" unicode="&#x135;" horiz-adv-x="263" 
d="M199 751l114 -128l-97 -56l-80 95l-80 -95l-97 56l114 128h126zM212 520v-478q0 -95 -61.5 -146.5t-178.5 -55.5l-19 119q57 2 82 22.5t25 69.5v469h152z" />
    <glyph glyph-name="Kcommaaccent" unicode="&#x136;" horiz-adv-x="615" 
d="M498 162q25 -48 63 -48q20 0 38 5l-1 -122q-52 -7 -79 -7q-60 0 -97 25t-72 92l-80 151l-48 -54v-204h-158v700h158v-287l193 287h187l-226 -309zM316 -36q40 0 65.5 -21t25.5 -62q0 -110 -103 -179l-48 42q29 42 27 60q-56 15 -56 77q0 41 24.5 62t64.5 21z" />
    <glyph glyph-name="kcommaaccent" unicode="&#x137;" horiz-adv-x="521" 
d="M425 141q18 -31 53 -31q17 0 30 5l-1 -118q-42 -6 -82 -6q-51 0 -81.5 21t-55.5 67l-55 101l-30 -31v-149h-152v750h152v-407l128 177h180l-179 -222zM279 -36q40 0 65.5 -21t25.5 -62q0 -110 -103 -179l-48 42q29 42 27 60q-56 15 -56 77q0 41 24.5 62t64.5 21z" />
    <glyph glyph-name="kgreenlandic" unicode="&#x138;" horiz-adv-x="527" 
d="M423 144q19 -34 52 -34q19 0 37 5l-1 -118q-42 -6 -76 -6q-60 0 -93.5 23.5t-70.5 91.5l-40 75l-28 -27v-154h-152v520h152v-178l138 178h180l-185 -221z" />
    <glyph glyph-name="Lacute" unicode="&#x139;" horiz-adv-x="497" 
d="M291 821l-218 -81l-42 84l193 132zM222 137h265v-137h-423v700h158v-563z" />
    <glyph glyph-name="lacute" unicode="&#x13a;" horiz-adv-x="254" 
d="M188 1006l67 -135l-218 -81l-42 84zM51 0v750h152v-750h-152z" />
    <glyph glyph-name="Lcommaaccent" unicode="&#x13b;" horiz-adv-x="497" 
d="M222 137h265v-137h-423v700h158v-563zM285 -36q40 0 65.5 -21t25.5 -62q0 -110 -103 -179l-48 42q29 42 27 60q-56 15 -56 77q0 41 24.5 62t64.5 21z" />
    <glyph glyph-name="lcommaaccent" unicode="&#x13c;" horiz-adv-x="254" 
d="M51 0v750h152v-750h-152zM66 -256q29 42 27 60q-56 15 -56 77q0 41 24.5 62t64.5 21t65.5 -21t25.5 -62q0 -110 -103 -179z" />
    <glyph glyph-name="Lcaron" unicode="&#x13d;" horiz-adv-x="506" 
d="M351 547q-56 15 -56 77q0 41 24.5 62t64.5 21t65.5 -21t25.5 -62q0 -110 -103 -179l-48 42q29 42 27 60zM222 137h265v-137h-423v700h158v-563z" />
    <glyph glyph-name="lcaron" unicode="&#x13e;" horiz-adv-x="337" 
d="M267 559q29 42 27 60q-56 15 -56 77q0 41 24.5 62t64.5 21t65.5 -21t25.5 -62q0 -110 -103 -179zM51 0v750h152v-750h-152z" />
    <glyph glyph-name="Ldot" unicode="&#x13f;" horiz-adv-x="505" 
d="M222 137h265v-137h-423v700h158v-563zM387 316q-40 0 -64.5 20.5t-24.5 60.5q0 41 24.5 62t64.5 21t65.5 -21t25.5 -62q0 -40 -25 -60.5t-66 -20.5z" />
    <glyph glyph-name="ldot" unicode="&#x140;" horiz-adv-x="405" 
d="M51 0v750h152v-750h-152zM330 470q40 0 65.5 -21t25.5 -62q0 -40 -25 -60.5t-66 -20.5q-40 0 -64.5 20.5t-24.5 60.5q0 41 24.5 62t64.5 21z" />
    <glyph glyph-name="Lslash" unicode="&#x141;" horiz-adv-x="514" 
d="M239 137h265v-137h-423v258l-43 -18l-51 119l94 43v298h158v-225l71 33l53 -129l-124 -53v-189z" />
    <glyph glyph-name="lslash" unicode="&#x142;" horiz-adv-x="329" 
d="M321 361l-80 -27v-334h-152v283l-38 -13l-39 125l77 26v329h152v-278l38 13z" />
    <glyph glyph-name="Nacute" unicode="&#x143;" horiz-adv-x="634" 
d="M445 821l-218 -81l-42 84l193 132zM414 700h156v-700h-130l-225 408l5 -408h-156v700h133l223 -417z" />
    <glyph glyph-name="nacute" unicode="&#x144;" horiz-adv-x="540" 
d="M379 694l-157 -134l-74 71l123 162zM327 530q88 0 126.5 -48.5t38.5 -140.5v-341h-152v328q0 36 -13 52t-45 16q-43 0 -79 -44v-352h-152v520h133l11 -43q23 23 60 38t72 15z" />
    <glyph glyph-name="Ncommaaccent" unicode="&#x145;" horiz-adv-x="634" 
d="M414 700h156v-700h-130l-225 408l5 -408h-156v700h133l223 -417zM317 -36q40 0 65.5 -21t25.5 -62q0 -110 -103 -179l-48 42q29 42 27 60q-56 15 -56 77q0 41 24.5 62t64.5 21z" />
    <glyph glyph-name="ncommaaccent" unicode="&#x146;" horiz-adv-x="540" 
d="M327 530q88 0 126.5 -48.5t38.5 -140.5v-341h-152v328q0 36 -13 52t-45 16q-43 0 -79 -44v-352h-152v520h133l11 -43q23 23 60 38t72 15zM268 -36q40 0 65.5 -21t25.5 -62q0 -110 -103 -179l-48 42q29 42 27 60q-56 15 -56 77q0 41 24.5 62t64.5 21z" />
    <glyph glyph-name="Ncaron" unicode="&#x147;" horiz-adv-x="634" 
d="M395 744h-156l-103 112l96 60l85 -91l85 91l96 -60zM414 700h156v-700h-130l-225 408l5 -408h-156v700h133l223 -417z" />
    <glyph glyph-name="ncaron" unicode="&#x148;" horiz-adv-x="540" 
d="M332 568h-126l-114 128l97 56l80 -95l80 95l97 -56zM327 530q88 0 126.5 -48.5t38.5 -140.5v-341h-152v328q0 36 -13 52t-45 16q-43 0 -79 -44v-352h-152v520h133l11 -43q23 23 60 38t72 15z" />
    <glyph glyph-name="napostrophe" unicode="&#x149;" horiz-adv-x="540" 
d="M-78 535l-15 206h133l-16 -206h-102zM327 530q88 0 126.5 -48.5t38.5 -140.5v-341h-152v328q0 36 -13 52t-45 16q-43 0 -79 -44v-352h-152v520h133l11 -43q23 23 60 38t72 15z" />
    <glyph glyph-name="Eng" unicode="&#x14a;" horiz-adv-x="634" 
d="M64 700h133l223 -425l-6 425h156v-700q0 -96 -46 -136.5t-137 -44.5l-19 123q66 4 66 52v6l-219 407l5 -407h-156v700z" />
    <glyph glyph-name="eng" unicode="&#x14b;" horiz-adv-x="540" 
d="M327 530q88 0 126.5 -48.5t38.5 -140.5v-299q0 -95 -61.5 -146.5t-178.5 -55.5l-19 119q57 2 82 22.5t25 68.5v278q0 36 -13 52t-45 16q-43 0 -79 -44v-352h-152v520h133l11 -43q23 23 60 38t72 15z" />
    <glyph glyph-name="Omacron" unicode="&#x14c;" horiz-adv-x="613" 
d="M141 874h330v-122h-330v122zM307 -14q-112 0 -187.5 64t-75.5 169v263q0 105 75.5 168.5t187.5 63.5q111 0 186.5 -63.5t75.5 -168.5v-263q0 -105 -75.5 -169t-186.5 -64zM307 124q44 0 73 28t29 79v239q0 51 -29 79t-73 28q-45 0 -74 -28t-29 -79v-239q0 -51 29 -79
t74 -28z" />
    <glyph glyph-name="omacron" unicode="&#x14d;" horiz-adv-x="521" 
d="M100 715h320v-124h-320v124zM36 316q0 100 60 157t164 57t164.5 -57t60.5 -157v-112q1 -99 -59.5 -156.5t-165.5 -57.5q-104 0 -164 57t-60 157v112zM188 215q-2 -96 72 -96q36 0 55 24.5t18 71.5v90q0 96 -73 96q-72 0 -72 -96v-90z" />
    <glyph glyph-name="Obreve" unicode="&#x14e;" horiz-adv-x="613" 
d="M146 900h113q0 -62 47 -62t47 62h113v-32q0 -61 -43 -95t-117 -34t-117 34t-43 95v32zM307 -14q-112 0 -187.5 64t-75.5 169v263q0 105 75.5 168.5t187.5 63.5q111 0 186.5 -63.5t75.5 -168.5v-263q0 -105 -75.5 -169t-186.5 -64zM307 124q44 0 73 28t29 79v239
q0 51 -29 79t-73 28q-45 0 -74 -28t-29 -79v-239q0 -51 29 -79t74 -28z" />
    <glyph glyph-name="obreve" unicode="&#x14f;" horiz-adv-x="521" 
d="M97 731h110q0 -66 53 -66t53 66h110v-21q0 -70 -47 -107t-116 -37t-116 37t-47 107v21zM36 316q0 100 60 157t164 57t164.5 -57t60.5 -157v-112q1 -99 -59.5 -156.5t-165.5 -57.5q-104 0 -164 57t-60 157v112zM188 215q-2 -96 72 -96q36 0 55 24.5t18 71.5v90
q0 96 -73 96q-72 0 -72 -96v-90z" />
    <glyph glyph-name="Ohungarumlaut" unicode="&#x150;" horiz-adv-x="613" 
d="M204 957l98 -107l-159 -118l-70 76zM440 957l98 -107l-159 -118l-70 76zM307 -14q-112 0 -187.5 64t-75.5 169v263q0 105 75.5 168.5t187.5 63.5q111 0 186.5 -63.5t75.5 -168.5v-263q0 -105 -75.5 -169t-186.5 -64zM307 124q44 0 73 28t29 79v239q0 51 -29 79t-73 28
q-45 0 -74 -28t-29 -79v-239q0 -51 29 -79t74 -28z" />
    <glyph glyph-name="ohungarumlaut" unicode="&#x151;" horiz-adv-x="521" 
d="M170 786l125 -90l-137 -145l-87 64zM379 786l125 -90l-137 -145l-87 64zM36 316q0 100 60 157t164 57t164.5 -57t60.5 -157v-112q1 -99 -59.5 -156.5t-165.5 -57.5q-104 0 -164 57t-60 157v112zM188 215q-2 -96 72 -96q36 0 55 24.5t18 71.5v90q0 96 -73 96
q-72 0 -72 -96v-90z" />
    <glyph glyph-name="OE" unicode="&#x152;" horiz-adv-x="874" 
d="M569 137h269v-137h-427v15q-58 -29 -125 -29q-98 0 -170 64.5t-72 168.5v263q0 104 72.5 168t172.5 64q64 0 122 -32v18h421v-138h-263v-139h217v-136h-217v-150zM409 231v239q0 51 -29 79t-73 28q-45 0 -74 -28t-29 -79v-239q0 -51 29 -79t74 -28q44 0 73 28t29 79z" />
    <glyph glyph-name="oe" unicode="&#x153;" horiz-adv-x="795" 
d="M485 211v-7v-2q1 -85 78 -85q66 0 139 37l50 -104q-88 -60 -204 -60q-85 0 -141 42q-59 -42 -147 -42q-104 0 -164 57t-60 157v112q0 100 60 157t164 57q90 0 148 -43q55 43 143 43q98 0 155.5 -57.5t57.5 -157.5v-104h-279zM551 403q-66 0 -66 -89v-5h131v5q0 89 -65 89
zM260 119q71 0 73 89v97q0 96 -73 96q-72 0 -72 -96v-90q-2 -96 72 -96z" />
    <glyph glyph-name="Racute" unicode="&#x154;" horiz-adv-x="609" 
d="M427 821l-218 -81l-42 84l193 132zM539 112q25 0 43 5l-1 -118q-47 -9 -89 -9q-57 0 -94.5 24.5t-67.5 91.5l-61 139q-21 3 -47 8v-253h-158v700h266q106 0 170.5 -59.5t64.5 -152.5v-33q0 -75 -37 -123.5t-97 -71.5l50 -108q18 -40 58 -40zM222 562v-171q56 -14 97 -14
q45 0 68.5 24t23.5 62v13q0 38 -21.5 62t-59.5 24h-108z" />
    <glyph glyph-name="racute" unicode="&#x155;" horiz-adv-x="365" 
d="M321 694l-157 -134l-74 71l123 162zM355 374q-95 0 -152 -42v-332h-152v520h133l13 -54q24 25 66.5 44.5t79.5 19.5z" />
    <glyph glyph-name="Rcommaaccent" unicode="&#x156;" horiz-adv-x="609" 
d="M539 112q25 0 43 5l-1 -118q-47 -9 -89 -9q-57 0 -94.5 24.5t-67.5 91.5l-61 139q-21 3 -47 8v-253h-158v700h266q106 0 170.5 -59.5t64.5 -152.5v-33q0 -75 -37 -123.5t-97 -71.5l50 -108q18 -40 58 -40zM222 562v-171q56 -14 97 -14q45 0 68.5 24t23.5 62v13
q0 38 -21.5 62t-59.5 24h-108zM323 -36q40 0 65.5 -21t25.5 -62q0 -110 -103 -179l-48 42q29 42 27 60q-56 15 -56 77q0 41 24.5 62t64.5 21z" />
    <glyph glyph-name="rcommaaccent" unicode="&#x157;" horiz-adv-x="365" 
d="M203 332v-332h-152v520h133l13 -54q24 25 66.5 44.5t79.5 19.5l12 -156q-95 0 -152 -42zM124 -36q40 0 65.5 -21t25.5 -62q0 -110 -103 -179l-48 42q29 42 27 60q-56 15 -56 77q0 41 24.5 62t64.5 21z" />
    <glyph glyph-name="Rcaron" unicode="&#x158;" horiz-adv-x="609" 
d="M377 744h-156l-103 112l96 60l85 -91l85 91l96 -60zM539 112q25 0 43 5l-1 -118q-47 -9 -89 -9q-57 0 -94.5 24.5t-67.5 91.5l-61 139q-21 3 -47 8v-253h-158v700h266q106 0 170.5 -59.5t64.5 -152.5v-33q0 -75 -37 -123.5t-97 -71.5l50 -108q18 -40 58 -40zM222 562
v-171q56 -14 97 -14q45 0 68.5 24t23.5 62v13q0 38 -21.5 62t-59.5 24h-108z" />
    <glyph glyph-name="rcaron" unicode="&#x159;" horiz-adv-x="365" 
d="M274 568h-126l-114 128l97 56l80 -95l80 95l97 -56zM343 530l12 -156q-95 0 -152 -42v-332h-152v520h133l13 -54q24 25 66.5 44.5t79.5 19.5z" />
    <glyph glyph-name="Sacute" unicode="&#x15a;" horiz-adv-x="541" 
d="M324 956l67 -135l-218 -81l-42 84zM76 172q94 -47 173 -47q113 0 113 75q0 34 -26 52t-89 26q-206 28 -206 220q0 95 62.5 154.5t171.5 59.5q124 0 218 -59l-57 -118q-83 40 -158 40q-43 0 -64 -20t-21 -52q0 -40 28 -57t83 -25q213 -29 213 -210q0 -100 -66 -162
t-196 -62t-236 66z" />
    <glyph glyph-name="sacute" unicode="&#x15b;" horiz-adv-x="464" 
d="M279 793l108 -99l-157 -134l-74 71zM70 154q82 -45 147 -45q69 0 69 43q0 8 -2.5 14t-8 10t-11.5 7t-17.5 6t-20.5 4.5t-24.5 4.5t-27.5 6q-138 30 -138 157q0 78 49.5 123.5t141.5 45.5q112 0 203 -56l-52 -100q-74 37 -136 37q-53 0 -53 -36q0 -21 16 -29t58 -17l15 -3
q33 -7 56 -15.5t49 -26t40 -49.5t14 -76q0 -79 -55 -124t-149 -45q-119 0 -213 60z" />
    <glyph glyph-name="Scircumflex" unicode="&#x15c;" horiz-adv-x="541" 
d="M185 918h156l103 -112l-96 -60l-85 91l-85 -91l-96 60zM76 172q94 -47 173 -47q113 0 113 75q0 34 -26 52t-89 26q-206 28 -206 220q0 95 62.5 154.5t171.5 59.5q124 0 218 -59l-57 -118q-83 40 -158 40q-43 0 -64 -20t-21 -52q0 -40 28 -57t83 -25q213 -29 213 -210
q0 -100 -66 -162t-196 -62t-236 66z" />
    <glyph glyph-name="scircumflex" unicode="&#x15d;" horiz-adv-x="464" 
d="M301 751l114 -128l-97 -56l-80 95l-80 -95l-97 56l114 128h126zM70 154q82 -45 147 -45q69 0 69 43q0 8 -2.5 14t-8 10t-11.5 7t-17.5 6t-20.5 4.5t-24.5 4.5t-27.5 6q-138 30 -138 157q0 78 49.5 123.5t141.5 45.5q112 0 203 -56l-52 -100q-74 37 -136 37q-53 0 -53 -36
q0 -21 16 -29t58 -17l15 -3q33 -7 56 -15.5t49 -26t40 -49.5t14 -76q0 -79 -55 -124t-149 -45q-119 0 -213 60z" />
    <glyph glyph-name="Scedilla" unicode="&#x15e;" horiz-adv-x="541" 
d="M517 211q0 -86 -49.5 -145t-146.5 -74l-8 -23q61 -14 61 -73q0 -48 -32.5 -69.5t-83.5 -21.5q-44 0 -77 11l7 67q18 -6 40 -6q35 0 35 27q0 16 -15.5 23t-31.5 7l-15 -1l24 55q-111 7 -206 65l57 119q94 -47 173 -47q113 0 113 75q0 34 -26 52t-89 26q-206 28 -206 220
q0 95 62.5 154.5t171.5 59.5q124 0 218 -59l-57 -118q-83 40 -158 40q-43 0 -64 -20t-21 -52q0 -40 28 -57t83 -25q213 -29 213 -210z" />
    <glyph glyph-name="scedilla" unicode="&#x15f;" horiz-adv-x="464" 
d="M437 159q0 -68 -41 -111.5t-114 -54.5l-9 -24q61 -14 61 -73q0 -48 -32.5 -69.5t-83.5 -21.5q-44 0 -77 11l7 67q18 -6 40 -6q35 0 35 27q0 16 -15.5 23t-31.5 7l-15 -1l26 59q-91 10 -167 58l50 104q82 -45 147 -45q69 0 69 43q0 8 -2.5 14t-8 10t-11.5 7t-17.5 6
t-20.5 4.5t-24.5 4.5t-27.5 6q-138 30 -138 157q0 78 49.5 123.5t141.5 45.5q112 0 203 -56l-52 -100q-74 37 -136 37q-53 0 -53 -36q0 -21 16 -29t58 -17l15 -3q33 -7 56 -15.5t49 -26t40 -49.5t14 -76z" />
    <glyph glyph-name="Scaron" unicode="&#x160;" horiz-adv-x="541" 
d="M185 744l-103 112l96 60l85 -91l85 91l96 -60l-103 -112h-156zM76 172q94 -47 173 -47q113 0 113 75q0 34 -26 52t-89 26q-206 28 -206 220q0 95 62.5 154.5t171.5 59.5q124 0 218 -59l-57 -118q-83 40 -158 40q-43 0 -64 -20t-21 -52q0 -40 28 -57t83 -25
q213 -29 213 -210q0 -100 -66 -162t-196 -62t-236 66z" />
    <glyph glyph-name="scaron" unicode="&#x161;" horiz-adv-x="464" 
d="M182 568l-114 128l97 56l80 -95l80 95l97 -56l-114 -128h-126zM70 154q82 -45 147 -45q69 0 69 43q0 8 -2.5 14t-8 10t-11.5 7t-17.5 6t-20.5 4.5t-24.5 4.5t-27.5 6q-138 30 -138 157q0 78 49.5 123.5t141.5 45.5q112 0 203 -56l-52 -100q-74 37 -136 37q-53 0 -53 -36
q0 -21 16 -29t58 -17l15 -3q33 -7 56 -15.5t49 -26t40 -49.5t14 -76q0 -79 -55 -124t-149 -45q-119 0 -213 60z" />
    <glyph glyph-name="uni0162" unicode="&#x162;" horiz-adv-x="519" 
d="M339 0h-37l-11 -31q61 -14 61 -71q0 -46 -35 -66.5t-81 -20.5q-37 0 -70 11l7 65q13 -5 33 -5q35 0 35 24q0 15 -15.5 22t-31.5 6l-15 -1l29 67h-28v563h-169v137h497v-137h-169v-563z" />
    <glyph glyph-name="uni0163" unicode="&#x163;" horiz-adv-x="374" 
d="M269 -31q61 -14 61 -73q0 -48 -32.5 -69.5t-83.5 -21.5q-44 0 -77 11l7 67q18 -6 40 -6q35 0 35 27q0 16 -15.5 23t-31.5 7l-15 -1l27 63q-59 13 -83.5 56.5t-24.5 126.5v221h-57v120h65l24 99h120v-99h126v-120h-126v-210q0 -40 12 -56.5t42 -16.5q32 0 56 9l22 -115
q-30 -14 -83 -20z" />
    <glyph glyph-name="Tcaron" unicode="&#x164;" horiz-adv-x="519" 
d="M328 744h-156l-103 112l96 60l85 -91l85 91l96 -60zM508 700v-137h-169v-563h-159v563h-169v137h497z" />
    <glyph glyph-name="tcaron" unicode="&#x165;" horiz-adv-x="374" 
d="M332 798q40 0 65.5 -21t25.5 -62q0 -110 -103 -179l-48 42q29 42 27 60q-56 15 -56 77q0 41 24.5 62t64.5 21zM282 117q32 0 56 9l22 -115q-45 -21 -109 -21q-98 0 -136.5 43.5t-38.5 145.5v221h-57v120h65l24 99h120v-99h126v-120h-126v-210q0 -40 12 -56.5t42 -16.5z
" />
    <glyph glyph-name="Tbar" unicode="&#x166;" horiz-adv-x="537" 
d="M517 563h-169v-181h114v-110h-114v-272h-159v272h-116v110h116v181h-169v137h497v-137z" />
    <glyph glyph-name="tbar" unicode="&#x167;" horiz-adv-x="377" 
d="M339 126l22 -115q-45 -21 -109 -21q-98 0 -136.5 43.5t-38.5 145.5v51h-47v110h47v60h-57v120h65l24 99h120v-99h126v-120h-126v-60h124v-110h-124v-40q0 -40 12 -56.5t42 -16.5q32 0 56 9z" />
    <glyph glyph-name="Utilde" unicode="&#x168;" horiz-adv-x="628" 
d="M250 788q-17 0 -28.5 -10.5t-11.5 -31.5l-99 23q5 61 39 98.5t91 37.5q31 0 74.5 -23t58.5 -23q16 0 27 10.5t11 31.5l101 -22q-10 -136 -130 -136q-33 0 -75 22.5t-58 22.5zM405 700h159v-700h-149l-10 43q-59 -57 -148 -57q-105 0 -151 56.5t-46 167.5v490h160v-477
q0 -53 18.5 -77.5t60.5 -24.5q32 0 60.5 16t45.5 40v523z" />
    <glyph glyph-name="utilde" unicode="&#x169;" horiz-adv-x="534" 
d="M205 629q-17 0 -28.5 -10.5t-11.5 -31.5l-99 23q5 61 38.5 98t91.5 37q33 0 75.5 -22.5t57.5 -22.5q16 0 27 10.5t11 31.5l101 -22q-10 -136 -130 -136q-35 0 -76 22.5t-57 22.5zM331 520h152v-520h-133l-11 43q-26 -24 -63 -38.5t-69 -14.5q-87 0 -122 50.5t-35 155.5
v324h152v-313q0 -48 11 -68t39 -20q57 0 79 48v353z" />
    <glyph glyph-name="Umacron" unicode="&#x16a;" horiz-adv-x="628" 
d="M477 874v-122h-330v122h330zM405 700h159v-700h-149l-10 43q-59 -57 -148 -57q-105 0 -151 56.5t-46 167.5v490h160v-477q0 -53 18.5 -77.5t60.5 -24.5q32 0 60.5 16t45.5 40v523z" />
    <glyph glyph-name="umacron" unicode="&#x16b;" horiz-adv-x="534" 
d="M427 715v-124h-320v124h320zM331 520h152v-520h-133l-11 43q-26 -24 -63 -38.5t-69 -14.5q-87 0 -122 50.5t-35 155.5v324h152v-313q0 -48 11 -68t39 -20q57 0 79 48v353z" />
    <glyph glyph-name="Ubreve" unicode="&#x16c;" horiz-adv-x="628" 
d="M312 739q-74 0 -117 34t-43 95v32h113q0 -62 47 -62t47 62h113v-32q0 -61 -43 -95t-117 -34zM405 700h159v-700h-149l-10 43q-59 -57 -148 -57q-105 0 -151 56.5t-46 167.5v490h160v-477q0 -53 18.5 -77.5t60.5 -24.5q32 0 60.5 16t45.5 40v523z" />
    <glyph glyph-name="ubreve" unicode="&#x16d;" horiz-adv-x="534" 
d="M267 566q-69 0 -116 37t-47 107v21h110q0 -66 53 -66t53 66h110v-21q0 -70 -47 -107t-116 -37zM331 520h152v-520h-133l-11 43q-26 -24 -63 -38.5t-69 -14.5q-87 0 -122 50.5t-35 155.5v324h152v-313q0 -48 11 -68t39 -20q57 0 79 48v353z" />
    <glyph glyph-name="Uring" unicode="&#x16e;" horiz-adv-x="628" 
d="M312 738q-46 0 -76.5 27t-30.5 74v10q0 45 30.5 73t76.5 28t76.5 -28t30.5 -73v-10q0 -47 -30.5 -74t-76.5 -27zM312 879q-33 0 -33 -36q0 -35 33 -35t33 35q0 36 -33 36zM405 700h159v-700h-149l-10 43q-59 -57 -148 -57q-105 0 -151 56.5t-46 167.5v490h160v-477
q0 -53 18.5 -77.5t60.5 -24.5q32 0 60.5 16t45.5 40v523z" />
    <glyph glyph-name="uring" unicode="&#x16f;" horiz-adv-x="534" 
d="M266 566q-45 0 -74.5 26t-29.5 71v12q0 43 30 70t74 27q46 0 76 -26.5t30 -70.5v-12q0 -45 -30 -71t-76 -26zM266 704q-29 0 -29 -36q0 -35 29 -35q32 0 32 35q0 36 -32 36zM331 520h152v-520h-133l-11 43q-26 -24 -63 -38.5t-69 -14.5q-87 0 -122 50.5t-35 155.5v324
h152v-313q0 -48 11 -68t39 -20q57 0 79 48v353z" />
    <glyph glyph-name="Uhungarumlaut" unicode="&#x170;" horiz-adv-x="628" 
d="M308 850l-159 -118l-70 76l131 149zM544 850l-159 -118l-70 76l131 149zM405 700h159v-700h-149l-10 43q-59 -57 -148 -57q-105 0 -151 56.5t-46 167.5v490h160v-477q0 -53 18.5 -77.5t60.5 -24.5q32 0 60.5 16t45.5 40v523z" />
    <glyph glyph-name="uhungarumlaut" unicode="&#x171;" horiz-adv-x="534" 
d="M294 696l-137 -145l-87 64l99 171zM366 551l-87 64l99 171l125 -90zM331 167v353h152v-520h-133l-11 43q-26 -24 -63 -38.5t-69 -14.5q-87 0 -122 50.5t-35 155.5v324h152v-313q0 -48 11 -68t39 -20q57 0 79 48z" />
    <glyph glyph-name="Uogonek" unicode="&#x172;" horiz-adv-x="628" 
d="M564 0q-32 -1 -50.5 -22.5t-18.5 -49.5q0 -29 27 -29q10 0 26 6l15 -87q-33 -15 -86 -15q-48 0 -77.5 22.5t-29.5 63.5q0 77 67 111h-22l-10 43q-59 -57 -148 -57q-105 0 -151 56.5t-46 167.5v490h160v-477q0 -53 18.5 -77.5t60.5 -24.5q32 0 60.5 16t45.5 40v523h159
v-700z" />
    <glyph glyph-name="uogonek" unicode="&#x173;" horiz-adv-x="534" 
d="M493 -95l15 -87q-33 -15 -86 -15t-84.5 25t-31.5 72q0 38 23 63.5t52 36.5h-31l-11 43q-26 -24 -63 -38.5t-69 -14.5q-87 0 -122 50.5t-35 155.5v324h152v-313q0 -48 11 -68t39 -20q57 0 79 48v353h152v-520q-52 -26 -52 -65q0 -36 35 -36q11 0 27 6z" />
    <glyph glyph-name="Wcircumflex" unicode="&#x174;" horiz-adv-x="900" 
d="M373 918h156l103 -112l-96 -60l-85 91l-85 -91l-96 60zM195 0l-200 700h164l111 -501l103 501h153l105 -500l113 500h162l-201 -700h-150l-107 475l-103 -475h-150z" />
    <glyph glyph-name="wcircumflex" unicode="&#x175;" horiz-adv-x="765" 
d="M446 751l114 -128l-97 -56l-80 95l-80 -95l-97 56l114 128h126zM150 0l-148 520h158l66 -321l79 321h148l88 -316l66 316h156l-148 -520h-151l-85 309l-78 -309h-151z" />
    <glyph glyph-name="Ycircumflex" unicode="&#x176;" horiz-adv-x="570" 
d="M285 837l-85 -91l-96 60l103 112h156l103 -112l-96 -60zM403 700h175l-213 -438v-262h-160v261l-214 439h175l121 -278z" />
    <glyph glyph-name="ycircumflex" unicode="&#x177;" horiz-adv-x="506" 
d="M270 662l-80 -95l-97 56l114 128h126l114 -128l-97 -56zM349 520h160l-187 -510l-58 -160l-158 1l73 182l-177 487h161l95 -316z" />
    <glyph glyph-name="Ydieresis" unicode="&#x178;" horiz-adv-x="570" 
d="M159 761q-35 0 -53 21.5t-18 54.5t18 55.5t53 22.5q37 0 56 -22.5t19 -55.5t-19 -54.5t-56 -21.5zM406 761q-35 0 -53 21.5t-18 54.5t18 55.5t53 22.5q37 0 56 -22.5t19 -55.5t-19 -54.5t-56 -21.5zM403 700h175l-213 -438v-262h-160v261l-214 439h175l121 -278z" />
    <glyph glyph-name="Zacute" unicode="&#x179;" horiz-adv-x="536" 
d="M397 821l-218 -81l-42 84l193 132zM219 137h288v-137h-476v109l275 454h-268v137h456v-112z" />
    <glyph glyph-name="zacute" unicode="&#x17a;" horiz-adv-x="478" 
d="M362 694l-157 -134l-74 71l123 162zM214 126h237v-126h-419v96l231 298h-229v126h402v-100z" />
    <glyph glyph-name="Zdotaccent" unicode="&#x17b;" horiz-adv-x="536" 
d="M268 747q-40 0 -62.5 20.5t-22.5 60.5q0 84 85 84q40 0 63 -21t23 -63q0 -40 -23 -60.5t-63 -20.5zM219 137h288v-137h-476v109l275 454h-268v137h456v-112z" />
    <glyph glyph-name="zdotaccent" unicode="&#x17c;" horiz-adv-x="478" 
d="M231 586q-40 0 -62.5 20.5t-22.5 60.5q0 84 85 84q40 0 63 -21t23 -63q0 -40 -23 -60.5t-63 -20.5zM214 126h237v-126h-419v96l231 298h-229v126h402v-100z" />
    <glyph glyph-name="Zcaron" unicode="&#x17d;" horiz-adv-x="536" 
d="M347 744h-156l-103 112l96 60l85 -91l85 91l96 -60zM219 137h288v-137h-476v109l275 454h-268v137h456v-112z" />
    <glyph glyph-name="zcaron" unicode="&#x17e;" horiz-adv-x="478" 
d="M295 568h-126l-114 128l97 56l80 -95l80 95l97 -56zM214 126h237v-126h-419v96l231 298h-229v126h402v-100z" />
    <glyph glyph-name="longs" unicode="&#x17f;" horiz-adv-x="299" 
d="M76 400h-47v120h47v36q0 101 45 150.5t142 49.5q52 0 98 -16l-24 -119q-31 9 -58 9q-29 0 -40 -18.5t-11 -65.5v-546h-152v400z" />
    <glyph glyph-name="uni018F" unicode="&#x18f;" horiz-adv-x="608" 
d="M302 -14q-112 0 -187.5 63.5t-75.5 168.5v175h365v76q0 51 -29 79t-73 28q-40 0 -68 -23t-34 -65l-158 35q15 88 87.5 139.5t172.5 51.5q111 0 186.5 -64t75.5 -169v-263q0 -105 -75.5 -168.5t-186.5 -63.5zM302 123q44 0 73 28t29 79v27h-205v-27q0 -51 29 -79t74 -28z
" />
    <glyph glyph-name="florin" unicode="&#x192;" horiz-adv-x="422" 
d="M360 582q-41 0 -66 -27.5t-25 -77.5h110l-20 -128h-90v-308q0 -96 -56.5 -148.5t-153.5 -52.5q-48 0 -60 5l21 125q6 -1 22 -1q81 0 81 94l-1 286h-92l20 128h72q1 114 66.5 175t165.5 61q35 0 59 -6l-18 -127q-10 2 -35 2z" />
    <glyph glyph-name="uni019D" unicode="&#x19d;" horiz-adv-x="634" 
d="M412 700h158v-700h-131l-224 407l5 -407q0 -96 -52.5 -136.5t-156.5 -44.5l-19 118q34 2 53 17.5t19 35.5v710h133l223 -419z" />
    <glyph glyph-name="Gcaron" unicode="&#x1e6;" horiz-adv-x="592" 
d="M384 744h-156l-103 112l96 60l85 -91l85 91l96 -60zM294 389h254v-399h-113l-22 62q-30 -31 -72.5 -48.5t-81.5 -17.5q-104 0 -158 59.5t-54 168.5v268q0 106 73.5 169t196.5 63q127 0 219 -65l-58 -113q-76 41 -161 41q-54 0 -82 -27.5t-28 -79.5v-242q0 -106 84 -106
q61 0 102 51v83h-99v133z" />
    <glyph glyph-name="gcaron" unicode="&#x1e7;" horiz-adv-x="501" 
d="M307 568h-126l-114 128l97 56l80 -95l80 95l97 -56zM346 136q69 -5 106.5 -41t37.5 -97q0 -158 -196 -158h-95q-174 0 -174 122q0 43 18.5 73t55.5 57q-27 21 -27 62q0 43 40 73q-70 42 -70 131q0 86 53 129t151 43q62 0 107 -17l60 117l98 -66l-92 -99q31 -42 31 -106
q0 -82 -57.5 -123t-146.5 -41q-22 0 -43 3q-8 -11 -8 -23q0 -27 32 -30zM246 421q-60 0 -60 -60t60 -60t60 60t-60 60zM300 -69q24 0 36.5 14.5t12.5 37.5q0 39 -50 42l-118 6q-22 -17 -22 -48q0 -23 15.5 -37.5t45.5 -14.5h80z" />
    <glyph glyph-name="uni01EA" unicode="&#x1ea;" horiz-adv-x="613" 
d="M307 714q111 0 186.5 -63.5t75.5 -168.5v-263q0 -80 -45.5 -137.5t-120.5 -81.5q-45 -26 -45 -67q0 -30 26 -30q16 0 27 6l15 -87q-33 -15 -87 -15q-48 0 -77 22.5t-29 64.5q0 58 46 93q-102 9 -168.5 71t-66.5 161v263q0 105 75.5 168.5t187.5 63.5zM204 231
q0 -51 29 -79t74 -28q44 0 73 28t29 79v239q0 51 -29 79t-73 28q-45 0 -74 -28t-29 -79v-239z" />
    <glyph glyph-name="uni01EB" unicode="&#x1eb;" horiz-adv-x="521" 
d="M347 2q-42 -25 -42 -65q0 -30 26 -30q17 0 27 6l15 -87q-33 -15 -87 -15q-48 0 -77 22.5t-29 64.5q0 58 47 94q-90 9 -140.5 65t-50.5 147v112q0 100 60 157t164 57t164.5 -57t60.5 -157v-112q1 -76 -35.5 -128.5t-102.5 -73.5zM188 215q-2 -96 72 -96q36 0 55 24.5
t18 71.5v90q0 96 -73 96q-72 0 -72 -96v-90z" />
    <glyph glyph-name="Aringacute" unicode="&#x1fa;" 
d="M301 738q-46 0 -76.5 27t-30.5 74v10q0 45 30.5 73t76.5 28q18 0 36 -5l160 109l67 -135l-157 -58q1 -4 1 -12v-10q0 -47 -30.5 -74t-76.5 -27zM301 879q-33 0 -33 -36q0 -35 33 -35t33 35q0 36 -33 36zM374 700l233 -700h-174l-38 144q-96 -15 -190 0l-36 -144h-175
l230 700h150zM237 265q62 -12 124 0l-62 240z" />
    <glyph glyph-name="aringacute" unicode="&#x1fb;" horiz-adv-x="504" 
d="M248 566q-45 0 -74.5 26t-29.5 71v12q0 43 30 70t74 27q10 0 14 -1l95 125l118 -108l-121 -104v-9v-12q0 -45 -30 -71t-76 -26zM248 704q-29 0 -29 -36q0 -35 29 -35q32 0 32 35q0 36 -32 36zM247 530q209 0 209 -192v-338h-130l-7 48q-19 -25 -59.5 -41.5t-81.5 -16.5
q-70 0 -113 38t-43 111q0 77 46.5 115.5t131.5 38.5q49 0 104 -13v46q0 75 -81 75q-65 0 -127 -30l-45 105q86 54 196 54zM223 106q52 0 81 50v30q-36 10 -74 10q-54 0 -54 -45t47 -45z" />
    <glyph glyph-name="AEacute" unicode="&#x1fc;" horiz-adv-x="895" 
d="M679 821l-218 -81l-42 84l193 132zM590 137h269v-137h-427v146h-192l-67 -146h-190l366 700h504v-138h-263v-139h217v-136h-217v-150zM302 283h130v285z" />
    <glyph glyph-name="aeacute" unicode="&#x1fd;" horiz-adv-x="765" 
d="M510 694l-157 -134l-74 71l123 162zM456 211v-7q0 -87 78 -87q66 0 139 37l50 -104q-89 -60 -204 -60t-173 74q-62 -74 -165 -74q-71 0 -115 38t-44 111q0 79 45 116.5t137 37.5q46 0 100 -13v49q0 40 -20 56t-60 16q-66 0 -128 -30l-45 105q99 54 206 54q85 0 133 -36
q52 36 132 36q98 0 155.5 -57.5t57.5 -157.5v-104h-279zM522 403q-66 0 -66 -89v-5h131v5q0 89 -65 89zM223 106q57 0 84 56q-2 14 -2 24q-36 10 -75 10q-28 0 -41 -9.5t-13 -35.5q0 -45 47 -45z" />
    <glyph glyph-name="Oslashacute" unicode="&#x1fe;" horiz-adv-x="613" 
d="M434 821l-218 -81l-42 84l193 132zM584 683l-50 -79q35 -54 35 -122v-263q0 -105 -75.5 -169t-186.5 -64q-79 0 -144 34l-41 -65l-93 59l51 80q-36 55 -36 125v263q0 105 75.5 168.5t187.5 63.5q81 0 144 -34l37 58zM204 470v-180l168 266q-26 21 -65 21q-45 0 -74 -28
t-29 -79zM409 231v176l-167 -263q28 -20 65 -20q44 0 73 28t29 79z" />
    <glyph glyph-name="oslashacute" unicode="&#x1ff;" horiz-adv-x="521" 
d="M400 694l-157 -134l-74 71l123 162zM485 316v-112q1 -99 -59.5 -156.5t-165.5 -57.5q-36 0 -70 8l-24 -39l-108 60l25 41q-47 56 -47 144v112q0 100 60 157t164 57q57 0 102 -18l28 46l106 -61l-40 -65q29 -49 29 -116zM260 119q36 0 55 24.5t18 71.5v90q0 96 -73 96
q-72 0 -72 -96v-90q-2 -96 72 -96z" />
    <glyph glyph-name="Scommaaccent" unicode="&#x218;" horiz-adv-x="541" 
d="M76 172q94 -47 173 -47q113 0 113 75q0 34 -26 52t-89 26q-206 28 -206 220q0 95 62.5 154.5t171.5 59.5q124 0 218 -59l-57 -118q-83 40 -158 40q-43 0 -64 -20t-21 -52q0 -40 28 -57t83 -25q213 -29 213 -210q0 -100 -66 -162t-196 -62t-236 66zM217 -256q29 42 27 60
q-56 15 -56 77q0 41 24.5 62t64.5 21t65.5 -21t25.5 -62q0 -110 -103 -179z" />
    <glyph glyph-name="scommaaccent" unicode="&#x219;" horiz-adv-x="464" 
d="M70 154q82 -45 147 -45q69 0 69 43q0 8 -2.5 14t-8 10t-11.5 7t-17.5 6t-20.5 4.5t-24.5 4.5t-27.5 6q-138 30 -138 157q0 78 49.5 123.5t141.5 45.5q112 0 203 -56l-52 -100q-74 37 -136 37q-53 0 -53 -36q0 -21 16 -29t58 -17l15 -3q33 -7 56 -15.5t49 -26t40 -49.5
t14 -76q0 -79 -55 -124t-149 -45q-119 0 -213 60zM177 -256q29 42 27 60q-56 15 -56 77q0 41 24.5 62t64.5 21t65.5 -21t25.5 -62q0 -110 -103 -179z" />
    <glyph glyph-name="uni021A" unicode="&#x21a;" horiz-adv-x="519" 
d="M11 700h497v-137h-169v-563h-159v563h-169v137zM258 -36q40 0 65.5 -21t25.5 -62q0 -110 -103 -179l-48 42q29 42 27 60q-56 15 -56 77q0 41 24.5 62t64.5 21z" />
    <glyph glyph-name="uni021B" unicode="&#x21b;" horiz-adv-x="374" 
d="M360 11q-45 -21 -109 -21q-98 0 -136.5 43.5t-38.5 145.5v221h-57v120h65l24 99h120v-99h126v-120h-126v-210q0 -40 12 -56.5t42 -16.5q32 0 56 9zM233 -36q40 0 65.5 -21t25.5 -62q0 -110 -103 -179l-48 42q29 42 27 60q-56 15 -56 77q0 41 24.5 62t64.5 21z" />
    <glyph glyph-name="uni0232" unicode="&#x232;" horiz-adv-x="570" 
d="M450 874v-122h-330v122h330zM403 700h175l-213 -438v-262h-160v261l-214 439h175l121 -278z" />
    <glyph glyph-name="uni0233" unicode="&#x233;" horiz-adv-x="506" 
d="M430 715v-124h-320v124h320zM349 520h160l-187 -510l-58 -160l-158 1l73 182l-177 487h161l95 -316z" />
    <glyph glyph-name="uni0237" unicode="&#x237;" horiz-adv-x="263" 
d="M212 520v-478q0 -95 -61.5 -146.5t-178.5 -55.5l-19 119q57 2 82 22.5t25 69.5v469h152z" />
    <glyph glyph-name="uni0259" unicode="&#x259;" horiz-adv-x="498" 
d="M247 530q101 0 158 -57t57 -157v-111q0 -100 -58.5 -157.5t-159.5 -57.5q-98 0 -155.5 57.5t-57.5 157.5v104h279v7q0 87 -78 87q-66 0 -139 -37l-50 104q89 60 204 60zM244 117q66 0 66 89v5h-131v-5q0 -89 65 -89z" />
    <glyph glyph-name="uni0272" unicode="&#x272;" horiz-adv-x="541" 
d="M328 530q88 0 126.5 -48.5t38.5 -140.5v-341h-152v328q0 36 -13 52t-45 16q-43 0 -79 -44v-310q0 -95 -61.5 -146.5t-178.5 -55.5l-19 119q57 2 82 22.5t25 68.5v470h133l11 -43q23 23 60 38t72 15z" />
    <glyph glyph-name="circumflex" unicode="&#x2c6;" 
d="M265 751l114 -128l-97 -56l-80 95l-80 -95l-97 56l114 128h126z" />
    <glyph glyph-name="caron" unicode="&#x2c7;" 
d="M139 568l-114 128l97 56l80 -95l80 95l97 -56l-114 -128h-126z" />
    <glyph glyph-name="breve" unicode="&#x2d8;" 
d="M20 731h110q0 -66 53 -66t53 66h110v-21q0 -70 -47 -107t-116 -37t-116 37t-47 107v21z" />
    <glyph glyph-name="dotaccent" unicode="&#x2d9;" 
d="M207 667q0 -40 -23 -60.5t-63 -20.5t-62.5 20.5t-22.5 60.5q0 84 85 84q40 0 63 -21t23 -63z" />
    <glyph glyph-name="ring" unicode="&#x2da;" 
d="M22 675q0 43 30 70t74 27q46 0 76 -26.5t30 -70.5v-12q0 -45 -30 -71t-76 -26q-45 0 -74.5 26t-29.5 71v12zM126 633q32 0 32 35q0 36 -32 36q-29 0 -29 -36q0 -35 29 -35z" />
    <glyph glyph-name="ogonek" unicode="&#x2db;" horiz-adv-x="233" 
d="M197 0q-52 -26 -52 -71q0 -30 26 -30q17 0 27 6l15 -87q-33 -15 -87 -15q-48 0 -77 22.5t-29 64.5t23 70t52 40h102z" />
    <glyph glyph-name="tilde" unicode="&#x2dc;" 
d="M48 610q5 61 38.5 98t91.5 37q33 0 75.5 -22.5t57.5 -22.5q16 0 27 10.5t11 31.5l101 -22q-10 -136 -130 -136q-35 0 -76 22.5t-57 22.5q-17 0 -28.5 -10.5t-11.5 -31.5z" />
    <glyph glyph-name="hungarumlaut" unicode="&#x2dd;" 
d="M116 786l125 -90l-137 -145l-87 64zM325 786l125 -90l-137 -145l-87 64z" />
    <glyph glyph-name="gravecomb" unicode="&#x300;" horiz-adv-x="0" 
d="M-164 793l123 -162l-74 -71l-157 134z" />
    <glyph glyph-name="acutecomb" unicode="&#x301;" horiz-adv-x="0" 
d="M-159 793l108 -99l-157 -134l-74 71z" />
    <glyph glyph-name="uni0302" unicode="&#x302;" horiz-adv-x="0" 
d="M-139 751l114 -128l-97 -56l-80 95l-80 -95l-97 56l114 128h126z" />
    <glyph glyph-name="tildecomb" unicode="&#x303;" horiz-adv-x="0" 
d="M-450 610q5 61 38.5 98t91.5 37q34 0 76 -22.5t57 -22.5q16 0 27 10.5t11 31.5l101 -22q-10 -136 -130 -136q-35 0 -76 22.5t-57 22.5q-17 0 -28.5 -10.5t-11.5 -31.5z" />
    <glyph glyph-name="uni0304" unicode="&#x304;" horiz-adv-x="0" 
d="M-357 715h320v-124h-320v124z" />
    <glyph glyph-name="uni0306" unicode="&#x306;" horiz-adv-x="0" 
d="M-346 731h110q0 -66 53 -66t53 66h110v-21q0 -70 -47 -107t-116 -37t-116 37t-47 107v21z" />
    <glyph glyph-name="uni0307" unicode="&#x307;" horiz-adv-x="0" 
d="M-36 667q0 -40 -23 -60.5t-63 -20.5t-62.5 20.5t-22.5 60.5q0 84 85 84q40 0 63 -21t23 -63z" />
    <glyph glyph-name="uni0308" unicode="&#x308;" horiz-adv-x="0" 
d="M-362 584q-36 0 -54.5 22.5t-18.5 55.5q0 34 18.5 57t54.5 23q38 0 57 -23t19 -57t-19 -56t-57 -22zM-131 584q-36 0 -54 22t-18 56t18 57t54 23q38 0 57.5 -23t19.5 -57q0 -33 -19.5 -55.5t-57.5 -22.5z" />
    <glyph glyph-name="uni030A" unicode="&#x30a;" horiz-adv-x="0" 
d="M-230 675q0 43 30 70t74 27q46 0 76 -26.5t30 -70.5v-12q0 -45 -30 -71t-76 -26q-45 0 -74.5 26t-29.5 71v12zM-126 633q32 0 32 35q0 36 -32 36q-29 0 -29 -36q0 -35 29 -35z" />
    <glyph glyph-name="uni030B" unicode="&#x30b;" horiz-adv-x="0" 
d="M-341 786l125 -90l-137 -145l-87 64zM-132 786l125 -90l-137 -145l-87 64z" />
    <glyph glyph-name="uni030C" unicode="&#x30c;" horiz-adv-x="0" 
d="M-265 568l-114 128l97 56l80 -95l80 95l97 -56l-114 -128h-126z" />
    <glyph glyph-name="dotbelowcomb" unicode="&#x323;" horiz-adv-x="0" 
d="M-122 -214q-40 0 -62.5 20.5t-22.5 60.5q0 84 85 84q40 0 63 -21t23 -63q0 -40 -23 -60.5t-63 -20.5z" />
    <glyph glyph-name="uni0326" unicode="&#x326;" horiz-adv-x="0" 
d="M-214 -256q29 42 27 60q-56 15 -56 77q0 41 24.5 62t64.5 21t65.5 -21t25.5 -62q0 -110 -103 -179z" />
    <glyph glyph-name="uni0327" unicode="&#x327;" horiz-adv-x="0" 
d="M-223 -117q18 -6 40 -6q35 0 35 27q0 16 -15.5 23t-30.5 7l-16 -1l29 67h94l-11 -31q61 -14 61 -73q0 -48 -32.5 -69.5t-83.5 -21.5q-44 0 -77 11z" />
    <glyph glyph-name="uni0328" unicode="&#x328;" horiz-adv-x="0" 
d="M-59 0q-52 -26 -52 -71q0 -30 26 -30q17 0 27 6l15 -87q-33 -15 -87 -15q-48 0 -77 22.5t-29 64.5t23 70t52 40h102z" />
    <glyph glyph-name="uni0335" unicode="&#x335;" horiz-adv-x="0" 
d="M-359 407v110h299v-110h-299z" />
    <glyph glyph-name="uni0336" unicode="&#x336;" horiz-adv-x="0" 
d="M-596 508v110h576v-110h-576z" />
    <glyph glyph-name="uni0337" unicode="&#x337;" horiz-adv-x="0" 
d="M-53 454l42 -124l-270 -91l-39 125z" />
    <glyph glyph-name="uni0338" unicode="&#x338;" horiz-adv-x="0" 
d="M-395 -42l-108 60l332 539l106 -61z" />
    <glyph glyph-name="pi" unicode="&#x3c0;" horiz-adv-x="674" 
d="M34 122h48q26 0 41.5 19t15.5 44v225q-25 0 -44 -3.5t-26 -6.5l-7 -4l-45 125q24 18 73 28.5t102 10.5h340q36 0 66.5 5t43.5 11l12 5l10 -130q-39 -21 -99 -21v-302q0 -31 5.5 -63t11.5 -49l5 -16h-149q-25 57 -25 132v295h-122v-251q0 -90 -52.5 -136t-190.5 -46z" />
    <glyph glyph-name="Wgrave" unicode="&#x1e80;" horiz-adv-x="900" 
d="M390 956l193 -132l-43 -83l-218 80zM195 0l-200 700h164l111 -501l103 501h153l105 -500l113 500h162l-201 -700h-150l-107 475l-103 -475h-150z" />
    <glyph glyph-name="wgrave" unicode="&#x1e81;" horiz-adv-x="765" 
d="M355 793l123 -162l-74 -71l-157 134zM150 0l-148 520h158l66 -321l79 321h148l88 -316l66 316h156l-148 -520h-151l-85 309l-78 -309h-151z" />
    <glyph glyph-name="Wacute" unicode="&#x1e82;" horiz-adv-x="900" 
d="M512 956l67 -135l-218 -81l-42 84zM195 0l-200 700h164l111 -501l103 501h153l105 -500l113 500h162l-201 -700h-150l-107 475l-103 -475h-150z" />
    <glyph glyph-name="wacute" unicode="&#x1e83;" horiz-adv-x="765" 
d="M385 793l108 -99l-157 -134l-74 71zM150 0l-148 520h158l66 -321l79 321h148l88 -316l66 316h156l-148 -520h-151l-85 309l-78 -309h-151z" />
    <glyph glyph-name="Wdieresis" unicode="&#x1e84;" horiz-adv-x="900" 
d="M325 761q-35 0 -53 21.5t-18 54.5t18 55.5t53 22.5q37 0 56 -22.5t19 -55.5t-19 -54.5t-56 -21.5zM572 761q-35 0 -53 21.5t-18 54.5t18 55.5t53 22.5q37 0 56 -22.5t19 -55.5t-19 -54.5t-56 -21.5zM195 0l-200 700h164l111 -501l103 501h153l105 -500l113 500h162
l-201 -700h-150l-107 475l-103 -475h-150z" />
    <glyph glyph-name="wdieresis" unicode="&#x1e85;" horiz-adv-x="765" 
d="M265 584q-36 0 -54.5 22.5t-18.5 55.5q0 34 18.5 57t54.5 23q38 0 57 -23t19 -57t-19 -56t-57 -22zM496 584q-36 0 -54 22t-18 56t18 57t54 23q38 0 57.5 -23t19.5 -57q0 -33 -19.5 -55.5t-57.5 -22.5zM150 0l-148 520h158l66 -321l79 321h148l88 -316l66 316h156
l-148 -520h-151l-85 309l-78 -309h-151z" />
    <glyph glyph-name="uni1E9E" unicode="&#x1e9e;" horiz-adv-x="628" 
d="M485 363q44 -12 77.5 -58t33.5 -112q0 -90 -51 -148t-158 -58q-83 0 -140 38l39 128q42 -28 79 -28q76 0 76 81q0 41 -25.5 65.5t-75.5 24.5h-45v121h39q43 0 59 19t16 52q0 35 -21.5 54.5t-58.5 19.5h-108l1 -562h-158v700h275q96 0 163 -55t67 -136q0 -54 -23.5 -91
t-60.5 -55z" />
    <glyph glyph-name="uni1EA0" unicode="&#x1ea0;" 
d="M374 700l233 -700h-174l-38 144q-96 -15 -190 0l-36 -144h-175l230 700h150zM237 265q62 -12 124 0l-62 240zM300 -49q40 0 63 -21t23 -63q0 -40 -23 -60.5t-63 -20.5t-62.5 20.5t-22.5 60.5q0 84 85 84z" />
    <glyph glyph-name="uni1EA1" unicode="&#x1ea1;" horiz-adv-x="504" 
d="M247 530q209 0 209 -192v-338h-130l-7 48q-19 -25 -59.5 -41.5t-81.5 -16.5q-70 0 -113 38t-43 111q0 77 46.5 115.5t131.5 38.5q49 0 104 -13v46q0 75 -81 75q-65 0 -127 -30l-45 105q86 54 196 54zM223 106q52 0 81 50v30q-36 10 -74 10q-54 0 -54 -45t47 -45zM249 -49
q40 0 63 -21t23 -63q0 -40 -23 -60.5t-63 -20.5t-62.5 20.5t-22.5 60.5q0 84 85 84z" />
    <glyph glyph-name="uni1EB8" unicode="&#x1eb8;" horiz-adv-x="527" 
d="M222 137h269v-137h-427v700h421v-138h-263v-139h217v-136h-217v-150zM300 -49q40 0 63 -21t23 -63q0 -40 -23 -60.5t-63 -20.5t-62.5 20.5t-22.5 60.5q0 84 85 84z" />
    <glyph glyph-name="uni1EB9" unicode="&#x1eb9;" horiz-adv-x="498" 
d="M188 211v-7q0 -87 78 -87q66 0 139 37l50 -104q-89 -60 -204 -60q-101 0 -158 57t-57 157v111q0 100 58.5 157.5t159.5 57.5q98 0 155.5 -57.5t57.5 -157.5v-104h-279zM254 403q-66 0 -66 -89v-5h131v5q0 89 -65 89zM255 -43q40 0 63 -21t23 -63q0 -40 -23 -60.5
t-63 -20.5t-62.5 20.5t-22.5 60.5q0 84 85 84z" />
    <glyph glyph-name="uni1EBC" unicode="&#x1ebc;" horiz-adv-x="527" 
d="M218 788q-17 0 -28.5 -10.5t-11.5 -31.5l-99 23q5 61 39 98.5t91 37.5q31 0 74.5 -23t58.5 -23q16 0 27 10.5t11 31.5l101 -22q-10 -136 -130 -136q-33 0 -75 22.5t-58 22.5zM222 137h269v-137h-427v700h421v-138h-263v-139h217v-136h-217v-150z" />
    <glyph glyph-name="uni1EBD" unicode="&#x1ebd;" horiz-adv-x="498" 
d="M194 629q-17 0 -28.5 -10.5t-11.5 -31.5l-99 23q5 61 38.5 98t91.5 37q33 0 75 -22.5t58 -22.5t27 10.5t11 31.5l101 -22q-10 -136 -130 -136q-35 0 -76 22.5t-57 22.5zM188 211v-7q0 -87 78 -87q66 0 139 37l50 -104q-89 -60 -204 -60q-101 0 -158 57t-57 157v111
q0 100 58.5 157.5t159.5 57.5q98 0 155.5 -57.5t57.5 -157.5v-104h-279zM254 403q-66 0 -66 -89v-5h131v5q0 89 -65 89z" />
    <glyph glyph-name="uni1ECA" unicode="&#x1eca;" horiz-adv-x="286" 
d="M64 700h158v-700h-158v700zM138 -214q-40 0 -62.5 20.5t-22.5 60.5q0 84 85 84q40 0 63 -21t23 -63q0 -40 -23 -60.5t-63 -20.5z" />
    <glyph glyph-name="uni1ECB" unicode="&#x1ecb;" horiz-adv-x="254" 
d="M212 667q0 -40 -23 -60.5t-63 -20.5t-62.5 20.5t-22.5 60.5q0 84 85 84q40 0 63 -21t23 -63zM203 520v-520h-152v520h152zM130 -214q-40 0 -62.5 20.5t-22.5 60.5q0 84 85 84q40 0 63 -21t23 -63q0 -40 -23 -60.5t-63 -20.5z" />
    <glyph glyph-name="uni1ECC" unicode="&#x1ecc;" horiz-adv-x="613" 
d="M307 -14q-112 0 -187.5 64t-75.5 169v263q0 105 75.5 168.5t187.5 63.5q111 0 186.5 -63.5t75.5 -168.5v-263q0 -105 -75.5 -169t-186.5 -64zM307 124q44 0 73 28t29 79v239q0 51 -29 79t-73 28q-45 0 -74 -28t-29 -79v-239q0 -51 29 -79t74 -28zM302 -214
q-40 0 -62.5 20.5t-22.5 60.5q0 84 85 84q40 0 63 -21t23 -63q0 -40 -23 -60.5t-63 -20.5z" />
    <glyph glyph-name="uni1ECD" unicode="&#x1ecd;" horiz-adv-x="521" 
d="M36 316q0 100 60 157t164 57t164.5 -57t60.5 -157v-112q1 -99 -59.5 -156.5t-165.5 -57.5q-104 0 -164 57t-60 157v112zM188 215q-2 -96 72 -96q36 0 55 24.5t18 71.5v90q0 96 -73 96q-72 0 -72 -96v-90zM259 -208q-40 0 -62.5 20.5t-22.5 60.5q0 84 85 84q40 0 63 -21
t23 -63q0 -40 -23 -60.5t-63 -20.5z" />
    <glyph glyph-name="uni1EE4" unicode="&#x1ee4;" horiz-adv-x="628" 
d="M405 700h159v-700h-149l-10 43q-59 -57 -148 -57q-105 0 -151 56.5t-46 167.5v490h160v-477q0 -53 18.5 -77.5t60.5 -24.5q32 0 60.5 16t45.5 40v523zM313 -49q40 0 63 -21t23 -63q0 -40 -23 -60.5t-63 -20.5t-62.5 20.5t-22.5 60.5q0 84 85 84z" />
    <glyph glyph-name="uni1EE5" unicode="&#x1ee5;" horiz-adv-x="534" 
d="M331 520h152v-520h-133l-11 43q-26 -24 -63 -38.5t-69 -14.5q-87 0 -122 50.5t-35 155.5v324h152v-313q0 -48 11 -68t39 -20q57 0 79 48v353zM265 -49q40 0 63 -21t23 -63q0 -40 -23 -60.5t-63 -20.5t-62.5 20.5t-22.5 60.5q0 84 85 84z" />
    <glyph glyph-name="Ygrave" unicode="&#x1ef2;" horiz-adv-x="570" 
d="M417 824l-43 -83l-218 80l68 135zM403 700h175l-213 -438v-262h-160v261l-214 439h175l121 -278z" />
    <glyph glyph-name="ygrave" unicode="&#x1ef3;" horiz-adv-x="506" 
d="M335 631l-74 -71l-157 134l108 99zM349 520h160l-187 -510l-58 -160l-158 1l73 182l-177 487h161l95 -316z" />
    <glyph glyph-name="uni1EF8" unicode="&#x1ef8;" horiz-adv-x="570" 
d="M223 788q-17 0 -28.5 -10.5t-11.5 -31.5l-99 23q5 61 39 98.5t91 37.5q31 0 74.5 -23t58.5 -23q16 0 27 10.5t11 31.5l101 -22q-10 -136 -130 -136q-33 0 -75 22.5t-58 22.5zM403 700h175l-213 -438v-262h-160v261l-214 439h175l121 -278z" />
    <glyph glyph-name="uni1EF9" unicode="&#x1ef9;" horiz-adv-x="506" 
d="M208 629q-17 0 -28.5 -10.5t-11.5 -31.5l-99 23q5 61 38.5 98t91.5 37q33 0 75 -22.5t58 -22.5t27 10.5t11 31.5l101 -22q-10 -136 -130 -136q-35 0 -76 22.5t-57 22.5zM349 520h160l-187 -510l-58 -160l-158 1l73 182l-177 487h161l95 -316z" />
    <glyph glyph-name="endash" unicode="&#x2013;" horiz-adv-x="586" 
d="M49 366h488v-132h-488v132z" />
    <glyph glyph-name="emdash" unicode="&#x2014;" horiz-adv-x="876" 
d="M49 366h778v-132h-778v132z" />
    <glyph glyph-name="quoteleft" unicode="&#x2018;" horiz-adv-x="233" 
d="M116 492q-41 0 -66 22.5t-25 69.5q0 118 122 204l50 -50q-48 -46 -48 -86q56 -15 56 -77q0 -41 -24.5 -62t-64.5 -21z" />
    <glyph glyph-name="quoteright" unicode="&#x2019;" horiz-adv-x="229" 
d="M117 788q41 0 66 -22.5t25 -69.5q0 -118 -122 -204l-50 50q48 46 48 86q-56 15 -56 77q0 41 24.5 62t64.5 21z" />
    <glyph glyph-name="quotesinglbase" unicode="&#x201a;" horiz-adv-x="245" 
d="M121 150q41 0 66 -22.5t25 -69.5q0 -118 -122 -204l-50 50q48 46 48 86q-56 15 -56 77q0 41 24.5 62t64.5 21z" />
    <glyph glyph-name="quotedblleft" unicode="&#x201c;" horiz-adv-x="433" 
d="M116 492q-41 0 -66 22.5t-25 69.5q0 118 122 204l50 -50q-48 -46 -48 -86q56 -15 56 -77q0 -41 -24.5 -62t-64.5 -21zM316 492q-41 0 -66 22.5t-25 69.5q0 118 122 204l50 -50q-48 -46 -48 -86q56 -15 56 -77q0 -41 -24.5 -62t-64.5 -21z" />
    <glyph glyph-name="quotedblright" unicode="&#x201d;" horiz-adv-x="429" 
d="M117 788q41 0 66 -22.5t25 -69.5q0 -118 -122 -204l-50 50q48 46 48 86q-56 15 -56 77q0 41 24.5 62t64.5 21zM317 788q41 0 66 -22.5t25 -69.5q0 -118 -122 -204l-50 50q48 46 48 86q-56 15 -56 77q0 41 24.5 62t64.5 21z" />
    <glyph glyph-name="quotedblbase" unicode="&#x201e;" horiz-adv-x="445" 
d="M121 150q41 0 66 -22.5t25 -69.5q0 -118 -122 -204l-50 50q48 46 48 86q-56 15 -56 77q0 41 24.5 62t64.5 21zM321 150q41 0 66 -22.5t25 -69.5q0 -118 -122 -204l-50 50q48 46 48 86q-56 15 -56 77q0 41 24.5 62t64.5 21z" />
    <glyph glyph-name="dagger" unicode="&#x2020;" horiz-adv-x="480" 
d="M447 510v-132h-132v-488h-152v488h-130v132h130v190h152v-190h132z" />
    <glyph glyph-name="daggerdbl" unicode="&#x2021;" horiz-adv-x="480" 
d="M447 378h-132v-137h132v-132h-132v-219h-152v219h-130v132h130v137h-130v132h130v190h152v-190h132v-132z" />
    <glyph glyph-name="bullet" unicode="&#x2022;" horiz-adv-x="450" 
d="M223 151q-78 0 -123.5 43.5t-45.5 128.5q0 88 45.5 133t123.5 45q81 0 127.5 -45t46.5 -133q0 -85 -46.5 -128.5t-127.5 -43.5z" />
    <glyph glyph-name="ellipsis" unicode="&#x2026;" horiz-adv-x="675" 
d="M212 67q0 -40 -25 -60.5t-66 -20.5q-40 0 -64.5 20.5t-24.5 60.5q0 41 24.5 62t64.5 21t65.5 -21t25.5 -62zM428 67q0 -40 -25 -60.5t-66 -20.5q-40 0 -64.5 20.5t-24.5 60.5q0 41 24.5 62t64.5 21t65.5 -21t25.5 -62zM644 67q0 -40 -25 -60.5t-66 -20.5
q-40 0 -64.5 20.5t-24.5 60.5q0 41 24.5 62t64.5 21t65.5 -21t25.5 -62z" />
    <glyph glyph-name="perthousand" unicode="&#x2030;" horiz-adv-x="1315" 
d="M276 -73l-111 73l482 769l116 -69zM199 287q-79 0 -127 44t-48 119v100q0 74 48 118t127 44t127 -44t48 -118v-100q0 -75 -48 -119t-127 -44zM199 406q36 0 36 51v85q0 51 -36 51q-37 0 -37 -51v-85q0 -51 37 -51zM729 -12q-79 0 -127.5 44t-48.5 119v100q0 75 48.5 119
t127.5 44t127 -44t48 -119v-100q0 -75 -48 -119t-127 -44zM1116 -12q-79 0 -127.5 44t-48.5 119v100q0 75 48.5 119t127.5 44q80 0 127.5 -44t47.5 -119v-100q0 -75 -47.5 -119t-127.5 -44zM729 107q36 0 36 51v85q0 51 -36 51q-37 0 -37 -51v-85q0 -24 10 -37.5t27 -13.5z
M1116 107q36 0 36 51v85q0 51 -36 51q-38 0 -38 -51v-85q0 -51 38 -51z" />
    <glyph glyph-name="guilsinglleft" unicode="&#x2039;" horiz-adv-x="294" 
d="M265 166l-86 -89l-149 152v100l149 153l86 -89l-115 -114z" />
    <glyph glyph-name="guilsinglright" unicode="&#x203a;" horiz-adv-x="294" 
d="M29 166l115 113l-115 114l86 89l149 -153v-100l-149 -152z" />
    <glyph glyph-name="fraction" unicode="&#x2044;" horiz-adv-x="300" 
d="M41 -79l-127 51l343 809l127 -51z" />
    <glyph glyph-name="uni2070" unicode="&#x2070;" horiz-adv-x="452" 
d="M34 617q0 91 52 143t143 52q90 0 139.5 -52t49.5 -143v-110q0 -89 -50 -140.5t-139 -51.5q-91 0 -143 51.5t-52 140.5v110zM286 594q0 51 -11.5 73t-45.5 22t-45.5 -22t-11.5 -73v-67q0 -47 12 -67.5t45 -20.5q34 0 45.5 20.5t11.5 67.5v67z" />
    <glyph glyph-name="Euro" unicode="&#x20ac;" horiz-adv-x="517" 
d="M360 123q48 0 85 14l46 -127q-60 -24 -137 -24q-113 0 -182 64.5t-69 162.5v6h-79l38 104h41v57h-76l35 103h41v5q0 98 69 162.5t182 64.5q77 0 137 -24l-46 -127q-37 14 -85 14q-49 0 -75.5 -25.5t-30.5 -69.5h171l-33 -103h-139v-57h172l-33 -104h-138
q4 -45 30.5 -70.5t75.5 -25.5z" />
    <glyph glyph-name="trademark" unicode="&#x2122;" horiz-adv-x="925" 
d="M24 583v117h367v-117h-119v-303h-129v303h-119zM744 700h123v-420h-126l2 206l-64 -139h-73l-63 137l2 -204h-126v420h133l92 -183z" />
    <glyph glyph-name="uni2126" unicode="&#x2126;" horiz-adv-x="655" 
d="M36 133h59q-35 53 -35 134v215q0 106 74.5 169t193.5 63q118 0 193 -63t75 -169v-215q0 -84 -37 -134h59v-133h-249v96q42 28 55 65t13 96v213q0 51 -30 79t-79 28t-79 -28t-30 -79v-213q0 -60 12.5 -96.5t55.5 -64.5v-96h-251v133z" />
    <glyph glyph-name="uni2153" unicode="&#x2153;" horiz-adv-x="1020" 
d="M620 781l127 -51l-343 -809l-127 51zM49 356h87v183l-52 -32l-63 107l140 92h113v-350h84v-114h-309v114zM944 243q50 -32 50 -100v-6q0 -69 -48.5 -110t-138.5 -41q-103 0 -167 31l30 107q65 -21 121 -21q61 0 61 45v3q0 38 -58 38h-55v94h53q24 0 36 11t12 28
q0 36 -55 36q-47 0 -99 -14l-30 99q62 33 160 33q166 0 166 -143q0 -52 -38 -90z" />
    <glyph glyph-name="oneeighth" unicode="&#x215b;" horiz-adv-x="1025" 
d="M609 781l127 -51l-343 -809l-127 51zM49 356h87v183l-52 -32l-63 107l140 92h113v-350h84v-114h-309v114zM934 250q65 -32 65 -115v-10q0 -58 -49 -98.5t-143 -40.5q-96 0 -144 38.5t-48 99.5v10q0 38 19 68t49 46q-57 34 -57 97q0 60 45.5 95.5t135.5 35.5
q88 0 133.5 -36t45.5 -95q0 -64 -52 -95zM807 378q-25 0 -40 -12t-15 -34q0 -46 55 -46h1q24 0 38 12.5t14 33.5q0 22 -14.5 34t-38.5 12zM867 145v4q0 23 -14.5 39t-41.5 16h-8q-28 0 -42 -16t-14 -39v-4q0 -23 15 -38t45 -15t45 15t15 38z" />
    <glyph glyph-name="threeeighths" unicode="&#x215c;" horiz-adv-x="983" 
d="M583 781l127 -51l-343 -809l-127 51zM376 379q0 -69 -48.5 -110t-138.5 -41q-103 0 -167 31l30 107q65 -21 121 -21q61 0 61 45v3q0 38 -58 38h-55v94h53q24 0 36 11t12 28q0 36 -55 36q-47 0 -99 -14l-30 99q62 33 160 33q166 0 166 -143q0 -52 -38 -90q50 -32 50 -100
v-6zM892 250q65 -32 65 -115v-10q0 -58 -49 -98.5t-143 -40.5q-96 0 -144 38.5t-48 99.5v10q0 38 19 68t49 46q-57 34 -57 97q0 60 45.5 95.5t135.5 35.5q88 0 133.5 -36t45.5 -95q0 -64 -52 -95zM765 378q-25 0 -40 -12t-15 -34q0 -46 55 -46h1q24 0 38 12.5t14 33.5
q0 22 -14.5 34t-38.5 12zM825 145v4q0 23 -14.5 39t-41.5 16h-8q-28 0 -42 -16t-14 -39v-4q0 -23 15 -38t45 -15t45 15t15 38z" />
    <glyph glyph-name="fiveeighths" unicode="&#x215d;" horiz-adv-x="1058" 
d="M633 781l127 -51l-343 -809l-127 51zM387 383q0 -70 -50 -112.5t-140 -42.5q-98 0 -174 48l37 94q65 -33 129 -33q28 0 47 13t19 35v9q0 47 -61 47q-44 0 -80 -21l-75 56l33 227h288v-108h-176l-10 -60q28 12 63 12q150 0 150 -145v-19zM968 250q65 -32 65 -115v-10
q0 -58 -49 -98.5t-143 -40.5q-96 0 -144 38.5t-48 99.5v10q0 38 19 68t49 46q-57 34 -57 97q0 60 45.5 95.5t135.5 35.5q88 0 133.5 -36t45.5 -95q0 -64 -52 -95zM841 378q-25 0 -40 -12t-15 -34q0 -46 55 -46h1q24 0 38 12.5t14 33.5q0 22 -14.5 34t-38.5 12zM901 145v4
q0 23 -14.5 39t-41.5 16h-8q-28 0 -42 -16t-14 -39v-4q0 -23 15 -38t45 -15t45 15t15 38z" />
    <glyph glyph-name="seveneighths" unicode="&#x215e;" horiz-adv-x="991" 
d="M553 781l127 -51l-343 -809l-127 51zM373 703v-66l-179 -395h-139l167 343h-200v118h351zM901 250q65 -32 65 -115v-10q0 -58 -49 -98.5t-143 -40.5q-96 0 -144 38.5t-48 99.5v10q0 38 19 68t49 46q-57 34 -57 97q0 60 45.5 95.5t135.5 35.5q88 0 133.5 -36t45.5 -95
q0 -64 -52 -95zM774 378q-25 0 -40 -12t-15 -34q0 -46 55 -46h1q24 0 38 12.5t14 33.5q0 22 -14.5 34t-38.5 12zM834 145v4q0 23 -14.5 39t-41.5 16h-8q-28 0 -42 -16t-14 -39v-4q0 -23 15 -38t45 -15t45 15t15 38z" />
    <glyph glyph-name="partialdiff" unicode="&#x2202;" horiz-adv-x="546" 
d="M332 765q108 0 158.5 -55.5t34.5 -166.5l-46 -343q-13 -97 -79.5 -153t-167.5 -56q-104 0 -157 56t-43 144l11 91q12 97 68.5 151.5t136.5 54.5q72 0 112 -33l16 111q5 34 -14 54.5t-56 20.5q-60 0 -112 -14l-30 99q30 16 82 27.5t86 11.5zM239 120q37 0 60 26.5t30 74.5
l15 110q-28 28 -74 28q-64 0 -77 -97l-8 -63q-5 -34 8 -56.5t46 -22.5z" />
    <glyph glyph-name="uni2206" unicode="&#x2206;" horiz-adv-x="620" 
d="M22 101l220 599h135l221 -599v-101h-576v101zM428 131l-120 386l-120 -386h240z" />
    <glyph glyph-name="product" unicode="&#x220f;" horiz-adv-x="669" 
d="M90 567h-63v133h615v-133h-63v-677h-157v677h-176v-677h-156v677z" />
    <glyph glyph-name="summation" unicode="&#x2211;" horiz-adv-x="564" 
d="M26 -6l236 307l-236 290v109h502v-130h-308l217 -267l-219 -283h320v-130h-512v104z" />
    <glyph glyph-name="minus" unicode="&#x2212;" horiz-adv-x="581" 
d="M50 366h481v-132h-481v132z" />
    <glyph glyph-name="radical" unicode="&#x221a;" horiz-adv-x="635" 
d="M98 176l-62 -32l-50 123l196 91l100 -272l223 664l143 -45l-293 -815h-133z" />
    <glyph glyph-name="infinity" unicode="&#x221e;" horiz-adv-x="988" 
d="M254 60q-102 0 -160.5 59t-58.5 161t58.5 161t160.5 59q68 0 124.5 -28.5t116.5 -87.5q61 63 114 90.5t123 27.5q102 0 161.5 -59.5t59.5 -160.5q0 -102 -59.5 -161t-161.5 -59q-70 0 -125.5 27.5t-114.5 88.5q-59 -62 -113.5 -90t-124.5 -28zM255 190q86 0 165 90
q-80 92 -165 92q-40 0 -63 -25t-23 -67t23 -66t63 -24zM731 190q40 0 63.5 25t23.5 67q0 41 -23.5 65.5t-63.5 24.5q-86 0 -163 -90q78 -92 163 -92z" />
    <glyph glyph-name="integral" unicode="&#x222b;" horiz-adv-x="319" 
d="M75 546q0 214 190 214q22 0 39 -7l-20 -123q-28 0 -42.5 -14t-14.5 -57q0 -73 8.5 -224t8.5 -231q0 -214 -190 -214q-22 0 -39 7l14 124q30 0 46.5 14t16.5 56q0 73 -8.5 224t-8.5 231z" />
    <glyph glyph-name="approxequal" unicode="&#x2248;" horiz-adv-x="571" 
d="M45 325q10 62 47.5 99t98.5 37q42 0 101 -22.5t75 -22.5q47 0 49 45l110 -16q-20 -139 -147 -139q-43 0 -99.5 22.5t-77.5 22.5q-49 0 -49 -45zM45 115q10 62 47.5 99t98.5 37q42 0 101 -22.5t75 -22.5q47 0 49 45l110 -16q-20 -139 -147 -139q-43 0 -99.5 22.5
t-77.5 22.5q-49 0 -49 -45z" />
    <glyph glyph-name="notequal" unicode="&#x2260;" horiz-adv-x="578" 
d="M527 331h-149l-45 -92h194v-122h-253l-77 -159l-118 52l51 107h-79v122h138l44 92h-182v122h241l80 166l118 -57l-53 -109h90v-122z" />
    <glyph glyph-name="lessequal" unicode="&#x2264;" horiz-adv-x="337" 
d="M237 141l-200 148v94l200 149l63 -93l-126 -103l127 -103zM45 0v112h241v-112h-241z" />
    <glyph glyph-name="greaterequal" unicode="&#x2265;" horiz-adv-x="338" 
d="M98 141l-64 92l127 103l-126 103l63 93l200 -149v-94zM57 0v112h241v-112h-241z" />
    <glyph glyph-name="lozenge" unicode="&#x25ca;" horiz-adv-x="570" 
d="M17 350l269 380l267 -380l-267 -380zM395 350l-109 159l-110 -159l110 -159z" />
    <glyph glyph-name="uniF8FF" unicode="&#xf8ff;" horiz-adv-x="1430" 
d="M675 548q-19 -39 -46 -39q-29 0 -33 30q0 1 -0.5 3t-0.5 3q0 12 8 22q12 15 30 15q16 0 38 -19q8 22 21 87q1 9 5 25h-7q-28 0 -45.5 16t-19.5 32q-1 3 -1 8q0 6 2 11t4.5 7.5t5 4.5t4.5 2l2 1q4 0 6 -4q0 -5 -4 -5q-13 -6 -10 -24q2 -14 19.5 -28t44.5 -11q16 73 43 77
h5q8 0 13 -4q8 -8 8 -21q0 -17 -14 -33q-18 -22 -47 -27q-4 -21 -5 -28q-12 -66 -22 -92l3 -3q50 -46 96 -46q13 0 19 1q56 9 76 51q4 10 6 20.5t2 15.5v6q0 5 4 5q5 0 5 -4q0 -28 -8 -46q-22 -47 -83 -57q-16 -2 -21 -2q-23 0 -44 9t-31 16.5t-28 23.5v1zM745 754h-1l-2 -1
q-20 -2 -34 -67q23 6 38 23q12 15 12 28q0 9 -5 14q-3 3 -8 3zM1329 533q1 -4 1 -13q0 -28 -16.5 -56t-33 -43.5t-46.5 -39.5q0 -2 -2 -2q35 -44 35 -73q0 -25 -14 -41q-17 -18 -42 -18q-26 0 -41 12t-15 34q0 15 10 31.5t20.5 27t31.5 29.5l-9 10q-4 6 -14 18
q-17 22 -31 45q-12 -34 -34 -72q-57 -92 -108 -98h-4q-17 0 -29 16q-22 -14 -40 -15h-6q-17 0 -28 7q-20 14 -23 47q0 1 -0.5 4t-0.5 5q0 1 0.5 5t0.5 6q-15 -35 -22.5 -50.5t-20.5 -30t-30 -16.5h-4q-16 0 -26 10q-5 5 -10 15q-26 -41 -54 -41q-25 0 -25 34q0 25 20 81
q16 46 16 60q0 23 -17 23q-33 0 -72 -54l-15 -26q-3 -54 -18 -101q-22 -65 -43 -67h-1q-3 0 -5 2q-4 9 6 47q13 44 29 81l21 41q3 69 -21 89q-4 4 0 8q3 5 7 1q25 -20 25 -79q44 69 87 69q28 0 28 -33q0 -20 -17 -65q-19 -57 -19 -79q0 -21 13 -21t25.5 11.5t18 21t7.5 14.5
q-1 2 -1 8q-1 7 -1 20q0 48 27 91q33 49 75 49q24 0 36 -24q10 42 25 90q19 66 39 113q21 53 33 53h3q13 0 13 -17q0 -36 -82 -215l-30 -67q-9 -42 -9 -61q0 -32 18 -42q9 -6 22 -6q17 0 40 13q-12 23 -16 55q-1 5 -1 16q0 54 31 88q22 24 48 24q17 0 27 -10.5t10 -27.5
q0 -42 -24.5 -83.5t-59.5 -64.5q11 -12 23 -11q48 6 99 93q26 43 37 79q-12 22 -12 39q0 6 1 9q3 7 14 9q16 0 16 -20q0 -10 -7 -36q13 -24 35 -52q4 -6 14 -18l9 -10l1 1q30 25 45 39t31 40t16 52q0 2 -0.5 5.5t-0.5 5.5q-1 25 -19 30q-3 1 -9 1q-17 0 -23 -6q-4 -5 -8 -1
t-1 8q9 11 32 11q4 0 12 -2q25 -9 27 -39zM982 642q-19 -49 -38 -111q-4 -13 -10.5 -37.5t-8.5 -30.5l6 13q43 94 62 142q25 64 18 75q-1 1 -2 1q-8 -4 -27 -52zM734 648q8 8 23 8q21 0 24 -21q0 -1 1 -2q14 5 19 10q-6 10 -3 17q2 5 9 6q5 0 8 -3q5 -7 1 -15q0 -1 -4 -7
q1 -2 5.5 -8t6.5 -8q19 -26 21 -37v-4q0 -12 -6 -21q-9 -11 -23 -12q-3 -1 -8 -1q-11 0 -18 4q-13 6 -14 18v4q0 19 17 21h3q7 0 12 -5q5 -6 1 -15q-1 -3 -4 -3q-2 0 -3.5 2t-0.5 4q1 4 -1 6t-4 2q-11 0 -11 -13q0 -9 9 -13q6 -3 12 -3q18 0 26 10q6 7 4 18q-1 7 -19 32
q-5 6 -11 16q-11 -8 -24 -11q-2 -18 -9 -32q-15 -32 -38 -32q-18 0 -23 22q-3 24 10 43q2 5 6 1q5 -2 1 -6q-8 -14 -8 -30q0 -20 12 -20q16 0 26.5 16.5t12.5 34.5q-4 0 -7 -1q-2 0 -6 -0.5t-5 -0.5q-5 0 -13 2q-12 3 -12 13v3q0 6 5 11zM773 631q-1 1 -1 3q-3 13 -14 13h-4
q-9 -1 -14 -6q-1 -1 -2 -2.5t0 -2.5q0 -5 6 -7q1 0 3.5 -0.5t4.5 -0.5t6 0.5t6 0.5zM497 303q-1 0 -19.5 -1.5t-27.5 -1.5q-20 0 -30 1q-43 -75 -88 -124q-63 -71 -121 -77h-10q-35 0 -61 23q-40 32 -40 98q0 42 23 74q33 47 88 47q30 0 44 -20q9 -12 9 -30q0 -19 -10 -38
q-2 -2 -5 -2q-7 0 -5 7q9 18 9 33t-7 23q-11 16 -37 16q-46 0 -77 -42q-21 -30 -21 -69q0 -54 27 -81.5t64 -27.5q94 0 206 192q-50 6 -91 29q-68 38 -88 106q0 6 4 7q5 2 7 -4q19 -64 83 -99q42 -23 92 -29q15 25 29 54q30 60 48 105q2 63 13 109.5t25 57.5q6 3 10 3
q11 0 11 -16q0 -40 -48 -156q-2 -62 4 -121v-1q0 -26 1 -38v-1q5 -80 24 -128q24 -62 75 -62q12 0 22 2.5t17 6t12.5 8t8.5 9t5.5 8.5t3.5 7l1 2q0 3 4 3q7 0 6 -6q0 -3 -5.5 -13.5t-25.5 -24t-49 -13.5q-57 0 -86 69q-19 46 -24 126zM540 631q-2 0 -3 -1q-22 -17 -32 -126
l14 38q26 76 21 89zM631 573q-13 -3 -21 -12q-5 -8 -5 -17q0 -13 7.5 -19.5t16.5 -6.5q24 0 38 36q-21 19 -33 19h-3zM1155 510l-1 -2v-2q0 -6 7 -23q3 15 3 24q-1 6 -4 6q-4 0 -5 -3zM977 365q8 -38 14 -50q19 13 36 33q43 51 43 106q0 27 -26 27q-21 0 -39 -21
q-29 -32 -29 -80q0 -10 1 -15zM899 404l6 24q-2 2 -2 3q0 2 -1.5 8t-8.5 14t-18 8h-4q-36 -5 -63 -45q-25 -35 -25 -85q0 -12 1 -18q2 -23 12 -33q7 -7 18 -7q14 0 26 12.5t19.5 27.5t21.5 50zM492 443q-28 -64 -54 -110l-12 -21q8 -1 25 -1q22 0 46 3q-1 11 -1 34
q-5 56 -4 95zM1245 272q14 16 11 40q-2 21 -32 60q-58 -49 -58 -79q0 -35 45 -35q20 0 34 14zM573 209q15 11 29 58q12 36 16 72q-39 -80 -45 -130zM1146 -132q2 6 6 5q15 -1 28.5 -11t13.5 -31q0 -52 -72 -52q-79 0 -198 39l-4 -12q-21 -63 -41 -63h-1q-6 0 -9 5
q-3 4 -3 16q0 20 12 68q-18 5 -31 8q-24 -69 -67 -69q-17 0 -30.5 10.5t-13.5 31.5t16 34t41 13q21 0 47 -6q7 20 17 66q-24 -29 -47 -29t-26 24q-22 -26 -60 -29h-4q-14 0 -26 10q-12 13 -13 33v9q-87 -169 -202 -169q-68 0 -107 41q-38 40 -38 96q0 48 28 84t87 36
q42 0 67.5 -24t25.5 -66t-30 -61q-4 -4 -8 2q-2 5 2 7q25 16 25 54q0 11 -3 23q-17 54 -79 54q-53 0 -78.5 -33t-25.5 -76q0 -53 35 -88q36 -38 99 -38q120 0 208 196q11 52 30 114q-29 -5 -55 -13q-35 -12 -35 -32q0 -17 18 -17l16 4q6 2 7 -2q3 -4 -1 -8l-3 -1
q-3 -1 -8 -2.5t-11 -1.5q-12 0 -20.5 7.5t-8.5 20.5q0 29 42 42q20 6 63 15q27 89 42 106q4 4 8 4q8 0 13 -7q3 -5 3 -14q0 -25 -26 -83q12 2 38 4q64 6 93 15q31 8 31 34q0 13 -7 20.5t-16 7.5q-11 0 -21 -8.5t-12 -22.5q0 -5 -6 -5q-5 2 -5 7q2 18 15.5 29t28.5 11
q13 0 23.5 -10.5t10.5 -28.5q0 -34 -39 -45q-30 -9 -95 -15q-14 -1 -44 -5l-30 -64q-11 -22 -27 -58l-1 -1q-6 -31 -6 -43q2 -19 10 -26q10 -8 22 -7q45 4 65 44v1q10 23 18 37q27 50 27 70q0 8 -4 14q-4 4 -10 4q-9 0 -14 -7q-4 -4 -4 -15q0 -8 1 -13q2 -5 -4 -7
q-5 -2 -7 4q-1 5 -1 14q0 15 6 24q7 9 22 11h3q10 0 16 -8q7 -7 7 -22q0 -23 -28 -75q-22 -40 -22 -54q0 -17 16 -17q22 0 51 43q0 4 2 10q6 31 9.5 47.5t9.5 35.5t13 27.5t17 9.5q4 0 7 -3q2 -2 2 -9q0 -10 -6 -27q-7 -25 -22 -56q-17 -32 -22 -39q-12 -64 -21 -90l30 -9
l6 19q29 84 63 153q1 12 1 33q0 46 -11 56q-3 3 0 8q4 3 7 0q17 -15 15 -75q38 64 63 64q15 0 22 -14t7 -47q0 -35 -12 -64q-16 -42 -46 -45q-26 -1 -42 21q-10 -64 -27 -123q118 -38 195 -38q61 0 61 41q0 13 -8 20.5t-14.5 9t-9.5 1.5q-5 2 -5 6zM775 199q-2 2 -4 2
q-11 -11 -38 -97q10 2 15 2l14 34q19 47 13 59zM1225 50q1 3 5 3q7 0 5 -7t-11 -24t-35.5 -40t-58.5 -25h-4q-20 0 -35 13.5t-16 39.5q-5 58 29 92q20 23 46 23q36 0 36 -32q3 -27 -32 -52q-32 -21 -69 -24q0 -4 1 -6q3 -45 44 -43q28 2 52 23t33.5 38.5t9.5 20.5zM1150 115
q-20 0 -38 -21q-25 -25 -27 -66q35 3 63 22q29 21 27 42v1q0 22 -25 22zM729 92q-1 -3 -2.5 -8.5t-2.5 -8.5l-14 -50l6 12l26 57q-3 0 -13 -2zM1025 89q-23 0 -64 -78q-1 -14 -5 -42q14 -28 37 -28q22 0 36 31.5t14 67.5q0 30 -6 41q-4 8 -12 8zM878 -26q33 61 33 89
q-16 -5 -33 -89zM947 -17q-12 -26 -30 -70q-18 -46 -25 -74l24 -8q19 61 29 138v1q2 8 2 13zM747 -187q0 -31 33 -31q34 0 57 61q-25 6 -44 6q-20 0 -33 -10t-13 -26zM878 -246q13 0 32 56l3 11l-6 2q-12 4 -18 5l-6 -22q-6 -26 -6 -42z" />
    <glyph glyph-name="A.ss01" horiz-adv-x="611" 
d="M-9 0l239 600l-33 100h160l260 -700h-174l-36 105h-207l-35 -105h-174zM242 229h122l-61 177z" />
    <glyph glyph-name="Aacute.ss01" horiz-adv-x="611" 
d="M365 956l67 -135l-218 -81l-42 84zM-9 0l239 600l-33 100h160l260 -700h-174l-36 105h-207l-35 -105h-174zM242 229h122l-61 177z" />
    <glyph glyph-name="Abreve.ss01" horiz-adv-x="611" 
d="M144 900h113q0 -62 47 -62t47 62h113v-32q0 -61 -43 -95t-117 -34t-117 34t-43 95v32zM-9 0l239 600l-33 100h160l260 -700h-174l-36 105h-207l-35 -105h-174zM242 229h122l-61 177z" />
    <glyph glyph-name="Acircumflex.ss01" horiz-adv-x="611" 
d="M226 918h156l103 -112l-96 -60l-85 91l-85 -91l-96 60zM-9 0l239 600l-33 100h160l260 -700h-174l-36 105h-207l-35 -105h-174zM242 229h122l-61 177z" />
    <glyph glyph-name="Adieresis.ss01" horiz-adv-x="611" 
d="M178 761q-35 0 -53 21.5t-18 54.5t18 55.5t53 22.5q37 0 56 -22.5t19 -55.5t-19 -54.5t-56 -21.5zM425 761q-35 0 -53 21.5t-18 54.5t18 55.5t53 22.5q37 0 56 -22.5t19 -55.5t-19 -54.5t-56 -21.5zM-9 0l239 600l-33 100h160l260 -700h-174l-36 105h-207l-35 -105h-174z
M242 229h122l-61 177z" />
    <glyph glyph-name="uni1EA0.ss01" horiz-adv-x="611" 
d="M-9 0l239 600l-33 100h160l260 -700h-174l-36 105h-207l-35 -105h-174zM242 229h122l-61 177zM303 -214q-40 0 -62.5 20.5t-22.5 60.5q0 84 85 84q40 0 63 -21t23 -63q0 -40 -23 -60.5t-63 -20.5z" />
    <glyph glyph-name="Agrave.ss01" horiz-adv-x="611" 
d="M243 956l193 -132l-43 -83l-218 80zM-9 0l239 600l-33 100h160l260 -700h-174l-36 105h-207l-35 -105h-174zM242 229h122l-61 177z" />
    <glyph glyph-name="Amacron.ss01" horiz-adv-x="611" 
d="M139 874h330v-122h-330v122zM-9 0l239 600l-33 100h160l260 -700h-174l-36 105h-207l-35 -105h-174zM242 229h122l-61 177z" />
    <glyph glyph-name="Aogonek.ss01" horiz-adv-x="611" 
d="M551 -101q17 0 27 6l15 -87q-33 -15 -87 -15q-48 0 -77 22.5t-29 64.5t23 70t52 40h-32l-36 105h-207l-35 -105h-174l239 600l-33 100h160l260 -700h-40q-52 -26 -52 -71q0 -30 26 -30zM242 229h122l-61 177z" />
    <glyph glyph-name="Aring.ss01" horiz-adv-x="611" 
d="M197 849q0 45 30.5 73t76.5 28t76.5 -28t30.5 -73v-10q0 -47 -30.5 -74t-76.5 -27t-76.5 27t-30.5 74v10zM304 808q33 0 33 35q0 36 -33 36t-33 -36q0 -35 33 -35zM-9 0l239 600l-33 100h160l260 -700h-174l-36 105h-207l-35 -105h-174zM242 229h122l-61 177z" />
    <glyph glyph-name="Aringacute.ss01" horiz-adv-x="611" 
d="M288 738q-46 0 -76.5 27t-30.5 74v10q0 45 30.5 73t76.5 28q18 0 36 -5l160 109l67 -135l-157 -58q1 -4 1 -12v-10q0 -47 -30.5 -74t-76.5 -27zM288 879q-33 0 -33 -36q0 -35 33 -35t33 35q0 36 -33 36zM357 700l260 -700h-174l-36 105h-207l-35 -105h-174l239 600
l-33 100h160zM242 229h122l-61 177z" />
    <glyph glyph-name="Atilde.ss01" horiz-adv-x="611" 
d="M103 769q5 61 39 98.5t91 37.5q31 0 74.5 -23t58.5 -23q16 0 27 10.5t11 31.5l101 -22q-10 -136 -130 -136q-33 0 -75 22.5t-58 22.5q-17 0 -28.5 -10.5t-11.5 -31.5zM-9 0l239 600l-33 100h160l260 -700h-174l-36 105h-207l-35 -105h-174zM242 229h122l-61 177z" />
    <glyph glyph-name="B.ss01" horiz-adv-x="592" 
d="M318 0q-144 0 -255 41v659h255q219 0 219 -194v-20q0 -32 -18 -68t-49 -54q37 -12 63 -52t26 -90v-36q-1 -85 -60.5 -135.5t-180.5 -50.5zM221 417h107q49 0 49 72v5q0 40 -15.5 55t-51.5 15h-89v-147zM301 135q46 0 72.5 17t26.5 44v35q0 30 -14 47.5t-41 17.5h-124
v-150q41 -11 80 -11z" />
    <glyph glyph-name="D.ss01" horiz-adv-x="612" 
d="M327 0q-157 0 -264 41v659h265q111 0 175.5 -62.5t64.5 -169.5v-236q0 -107 -65 -169.5t-176 -62.5zM324 138q85 0 85 106v212q0 106 -81 106h-107v-416q45 -8 103 -8z" />
    <glyph glyph-name="Dcaron.ss01" horiz-adv-x="612" 
d="M235 744l-103 112l96 60l85 -91l85 91l96 -60l-103 -112h-156zM327 0q-157 0 -264 41v659h265q111 0 175.5 -62.5t64.5 -169.5v-236q0 -107 -65 -169.5t-176 -62.5zM324 138q85 0 85 106v212q0 106 -81 106h-107v-416q45 -8 103 -8z" />
    <glyph glyph-name="Dcroat.ss01" horiz-adv-x="619" 
d="M335 700q111 0 175.5 -62.5t64.5 -169.5v-236q0 -107 -65 -169.5t-176 -62.5q-157 0 -264 41v264h-55v110h55v285h265zM416 244v212q0 106 -81 106h-107v-147h104v-110h-104v-159q45 -8 103 -8q85 0 85 106z" />
    <glyph glyph-name="P.ss01" horiz-adv-x="592" 
d="M64 0v700h265q110 0 175 -62.5t65 -169.5v-43q0 -107 -65 -169.5t-175 -62.5q-54 0 -107 22v-215h-158zM329 329q39 0 60 28t21 80v19q0 106 -81 106h-107v-213q48 -20 107 -20z" />
    <glyph glyph-name="Q.ss01" horiz-adv-x="613" 
d="M307 -14q-112 0 -187.5 64t-75.5 169v263q0 105 75.5 168.5t187.5 63.5q111 0 186.5 -63.5t75.5 -168.5v-263q0 -105 -75.5 -169t-186.5 -64zM307 124q44 0 73 28t29 79v239q0 51 -29 79t-73 28q-45 0 -74 -28t-29 -79v-239q0 -51 29 -79t74 -28zM466 -205
q-37 0 -83 24.5t-82 24.5t-67 -28l-45 88q14 18 47 35.5t66 17.5q38 0 84 -25t77 -25q37 0 72 31l42 -93q-16 -20 -47.5 -35t-63.5 -15z" />
    <glyph glyph-name="R.ss01" horiz-adv-x="599" 
d="M399 0l-120 243q-55 3 -57 3v-246h-158v700h266q106 0 170.5 -59.5t64.5 -152.5v-33q0 -69 -35 -117.5t-91 -73.5l134 -264h-174zM222 562v-183q38 -2 97 -2q45 0 68.5 24t23.5 62v13q0 38 -21.5 62t-59.5 24h-108z" />
    <glyph glyph-name="Racute.ss01" horiz-adv-x="599" 
d="M437 821l-218 -81l-42 84l193 132zM399 0l-120 243q-55 3 -57 3v-246h-158v700h266q106 0 170.5 -59.5t64.5 -152.5v-33q0 -69 -35 -117.5t-91 -73.5l134 -264h-174zM222 562v-183q38 -2 97 -2q45 0 68.5 24t23.5 62v13q0 38 -21.5 62t-59.5 24h-108z" />
    <glyph glyph-name="Rcaron.ss01" horiz-adv-x="599" 
d="M387 744h-156l-103 112l96 60l85 -91l85 91l96 -60zM399 0l-120 243q-55 3 -57 3v-246h-158v700h266q106 0 170.5 -59.5t64.5 -152.5v-33q0 -69 -35 -117.5t-91 -73.5l134 -264h-174zM222 562v-183q38 -2 97 -2q45 0 68.5 24t23.5 62v13q0 38 -21.5 62t-59.5 24h-108z
" />
    <glyph glyph-name="Rcommaaccent.ss01" horiz-adv-x="599" 
d="M222 246v-246h-158v700h266q106 0 170.5 -59.5t64.5 -152.5v-33q0 -69 -35 -117.5t-91 -73.5l134 -264h-174l-120 243q-55 3 -57 3zM330 562h-108v-183q38 -2 97 -2q45 0 68.5 24t23.5 62v13q0 38 -21.5 62t-59.5 24zM310 -36q40 0 65.5 -21t25.5 -62q0 -110 -103 -179
l-48 42q29 42 27 60q-56 15 -56 77q0 41 24.5 62t64.5 21z" />
    <glyph glyph-name="U.ss01" horiz-adv-x="644" 
d="M257 -14q-105 0 -151 56.5t-46 167.5v490h160v-477q0 -53 18.5 -77.5t60.5 -24.5q32 0 60.5 16t45.5 40v523h159v-556q0 -47 51 -29v-116q-79 -16 -124.5 -3.5t-62.5 61.5q-65 -71 -171 -71z" />
    <glyph glyph-name="Uacute.ss01" horiz-adv-x="644" 
d="M379 956l67 -135l-218 -81l-42 84zM257 -14q-105 0 -151 56.5t-46 167.5v490h160v-477q0 -53 18.5 -77.5t60.5 -24.5q32 0 60.5 16t45.5 40v523h159v-556q0 -47 51 -29v-116q-79 -16 -124.5 -3.5t-62.5 61.5q-65 -71 -171 -71z" />
    <glyph glyph-name="Ubreve.ss01" horiz-adv-x="644" 
d="M158 900h113q0 -62 47 -62t47 62h113v-32q0 -61 -43 -95t-117 -34t-117 34t-43 95v32zM257 -14q-105 0 -151 56.5t-46 167.5v490h160v-477q0 -53 18.5 -77.5t60.5 -24.5q32 0 60.5 16t45.5 40v523h159v-556q0 -47 51 -29v-116q-79 -16 -124.5 -3.5t-62.5 61.5
q-65 -71 -171 -71z" />
    <glyph glyph-name="Ucircumflex.ss01" horiz-adv-x="644" 
d="M240 918h156l103 -112l-96 -60l-85 91l-85 -91l-96 60zM257 -14q-105 0 -151 56.5t-46 167.5v490h160v-477q0 -53 18.5 -77.5t60.5 -24.5q32 0 60.5 16t45.5 40v523h159v-556q0 -47 51 -29v-116q-79 -16 -124.5 -3.5t-62.5 61.5q-65 -71 -171 -71z" />
    <glyph glyph-name="Udieresis.ss01" horiz-adv-x="644" 
d="M192 761q-35 0 -53 21.5t-18 54.5t18 55.5t53 22.5q37 0 56 -22.5t19 -55.5t-19 -54.5t-56 -21.5zM439 761q-35 0 -53 21.5t-18 54.5t18 55.5t53 22.5q37 0 56 -22.5t19 -55.5t-19 -54.5t-56 -21.5zM257 -14q-105 0 -151 56.5t-46 167.5v490h160v-477q0 -53 18.5 -77.5
t60.5 -24.5q32 0 60.5 16t45.5 40v523h159v-556q0 -47 51 -29v-116q-79 -16 -124.5 -3.5t-62.5 61.5q-65 -71 -171 -71z" />
    <glyph glyph-name="uni1EE4.ss01" horiz-adv-x="644" 
d="M257 -14q-105 0 -151 56.5t-46 167.5v490h160v-477q0 -53 18.5 -77.5t60.5 -24.5q32 0 60.5 16t45.5 40v523h159v-556q0 -47 51 -29v-116q-79 -16 -124.5 -3.5t-62.5 61.5q-65 -71 -171 -71zM317 -214q-40 0 -62.5 20.5t-22.5 60.5q0 84 85 84q40 0 63 -21t23 -63
q0 -40 -23 -60.5t-63 -20.5z" />
    <glyph glyph-name="Ugrave.ss01" horiz-adv-x="644" 
d="M257 956l193 -132l-43 -83l-218 80zM257 -14q-105 0 -151 56.5t-46 167.5v490h160v-477q0 -53 18.5 -77.5t60.5 -24.5q32 0 60.5 16t45.5 40v523h159v-556q0 -47 51 -29v-116q-79 -16 -124.5 -3.5t-62.5 61.5q-65 -71 -171 -71z" />
    <glyph glyph-name="Uhungarumlaut.ss01" horiz-adv-x="644" 
d="M216 957l98 -107l-159 -118l-70 76zM452 957l98 -107l-159 -118l-70 76zM257 -14q-105 0 -151 56.5t-46 167.5v490h160v-477q0 -53 18.5 -77.5t60.5 -24.5q32 0 60.5 16t45.5 40v523h159v-556q0 -47 51 -29v-116q-79 -16 -124.5 -3.5t-62.5 61.5q-65 -71 -171 -71z" />
    <glyph glyph-name="Umacron.ss01" horiz-adv-x="644" 
d="M153 874h330v-122h-330v122zM257 -14q-105 0 -151 56.5t-46 167.5v490h160v-477q0 -53 18.5 -77.5t60.5 -24.5q32 0 60.5 16t45.5 40v523h159v-556q0 -47 51 -29v-116q-79 -16 -124.5 -3.5t-62.5 61.5q-65 -71 -171 -71z" />
    <glyph glyph-name="Uogonek.ss01" horiz-adv-x="644" 
d="M616 -96l15 -87q-33 -15 -87 -15q-48 0 -77 22.5t-29 64.5q0 70 62 104q-53 10 -72 64q-65 -71 -171 -71q-105 0 -151 56.5t-46 167.5v490h160v-477q0 -53 18.5 -77.5t60.5 -24.5q32 0 60.5 16t45.5 40v523h159v-556q0 -47 51 -29v-116q-52 -26 -52 -71q0 -30 26 -30
q17 0 27 6z" />
    <glyph glyph-name="Uring.ss01" horiz-adv-x="644" 
d="M211 849q0 45 30.5 73t76.5 28t76.5 -28t30.5 -73v-10q0 -47 -30.5 -74t-76.5 -27t-76.5 27t-30.5 74v10zM318 808q33 0 33 35q0 36 -33 36t-33 -36q0 -35 33 -35zM257 -14q-105 0 -151 56.5t-46 167.5v490h160v-477q0 -53 18.5 -77.5t60.5 -24.5q32 0 60.5 16t45.5 40
v523h159v-556q0 -47 51 -29v-116q-79 -16 -124.5 -3.5t-62.5 61.5q-65 -71 -171 -71z" />
    <glyph glyph-name="Utilde.ss01" horiz-adv-x="644" 
d="M117 769q5 61 39 98.5t91 37.5q31 0 74.5 -23t58.5 -23q16 0 27 10.5t11 31.5l101 -22q-10 -136 -130 -136q-33 0 -75 22.5t-58 22.5q-17 0 -28.5 -10.5t-11.5 -31.5zM257 -14q-105 0 -151 56.5t-46 167.5v490h160v-477q0 -53 18.5 -77.5t60.5 -24.5q32 0 60.5 16
t45.5 40v523h159v-556q0 -47 51 -29v-116q-79 -16 -124.5 -3.5t-62.5 61.5q-65 -71 -171 -71z" />
    <glyph glyph-name="W.ss01" horiz-adv-x="838" 
d="M685 700h160l-219 -700h-123l-82 224l-84 -224h-123l-222 700h164l126 -510l73 194l-121 316h136l51 -165l49 165h134l-118 -312l77 -199z" />
    <glyph glyph-name="Wacute.ss01" horiz-adv-x="838" 
d="M549 821l-218 -81l-42 84l193 132zM685 700h160l-219 -700h-123l-82 224l-84 -224h-123l-222 700h164l126 -510l73 194l-121 316h136l51 -165l49 165h134l-118 -312l77 -199z" />
    <glyph glyph-name="Wcircumflex.ss01" horiz-adv-x="838" 
d="M421 837l-85 -91l-96 60l103 112h156l103 -112l-96 -60zM685 700h160l-219 -700h-123l-82 224l-84 -224h-123l-222 700h164l126 -510l73 194l-121 316h136l51 -165l49 165h134l-118 -312l77 -199z" />
    <glyph glyph-name="Wdieresis.ss01" horiz-adv-x="838" 
d="M295 761q-35 0 -53 21.5t-18 54.5t18 55.5t53 22.5q37 0 56 -22.5t19 -55.5t-19 -54.5t-56 -21.5zM542 761q-35 0 -53 21.5t-18 54.5t18 55.5t53 22.5q37 0 56 -22.5t19 -55.5t-19 -54.5t-56 -21.5zM685 700h160l-219 -700h-123l-82 224l-84 -224h-123l-222 700h164
l126 -510l73 194l-121 316h136l51 -165l49 165h134l-118 -312l77 -199z" />
    <glyph glyph-name="Wgrave.ss01" horiz-adv-x="838" 
d="M553 824l-43 -83l-218 80l68 135zM685 700h160l-219 -700h-123l-82 224l-84 -224h-123l-222 700h164l126 -510l73 194l-121 316h136l51 -165l49 165h134l-118 -312l77 -199z" />
    <glyph glyph-name="Z.ss01" horiz-adv-x="543" 
d="M259 137h254v-137h-486v109q98 95 174.5 212t114.5 242h-275v137h456v-112q-41 -130 -96 -235.5t-142 -215.5z" />
    <glyph glyph-name="Zacute.ss01" horiz-adv-x="543" 
d="M380 821l-218 -81l-42 84l193 132zM259 137h254v-137h-486v109q98 95 174.5 212t114.5 242h-275v137h456v-112q-41 -130 -96 -235.5t-142 -215.5z" />
    <glyph glyph-name="Zcaron.ss01" horiz-adv-x="543" 
d="M330 744h-156l-103 112l96 60l85 -91l85 91l96 -60zM259 137h254v-137h-486v109q98 95 174.5 212t114.5 242h-275v137h456v-112q-41 -130 -96 -235.5t-142 -215.5z" />
    <glyph glyph-name="Zdotaccent.ss01" horiz-adv-x="543" 
d="M251 747q-40 0 -62.5 20.5t-22.5 60.5q0 84 85 84q40 0 63 -21t23 -63q0 -40 -23 -60.5t-63 -20.5zM259 137h254v-137h-486v109q98 95 174.5 212t114.5 242h-275v137h456v-112q-41 -130 -96 -235.5t-142 -215.5z" />
    <glyph glyph-name="U.ss02" horiz-adv-x="622" 
d="M313 -14q-108 0 -181 64t-73 169v481h160v-469q0 -51 26.5 -79t67.5 -28q39 0 64.5 28.5t25.5 78.5v469h160v-481q0 -105 -72 -169t-178 -64z" />
    <glyph glyph-name="Uacute.ss02" horiz-adv-x="622" 
d="M372 956l67 -135l-218 -81l-42 84zM313 -14q-108 0 -181 64t-73 169v481h160v-469q0 -51 26.5 -79t67.5 -28q39 0 64.5 28.5t25.5 78.5v469h160v-481q0 -105 -72 -169t-178 -64z" />
    <glyph glyph-name="Ubreve.ss02" horiz-adv-x="622" 
d="M151 900h113q0 -62 47 -62t47 62h113v-32q0 -61 -43 -95t-117 -34t-117 34t-43 95v32zM313 -14q-108 0 -181 64t-73 169v481h160v-469q0 -51 26.5 -79t67.5 -28q39 0 64.5 28.5t25.5 78.5v469h160v-481q0 -105 -72 -169t-178 -64z" />
    <glyph glyph-name="Ucircumflex.ss02" horiz-adv-x="622" 
d="M233 918h156l103 -112l-96 -60l-85 91l-85 -91l-96 60zM313 -14q-108 0 -181 64t-73 169v481h160v-469q0 -51 26.5 -79t67.5 -28q39 0 64.5 28.5t25.5 78.5v469h160v-481q0 -105 -72 -169t-178 -64z" />
    <glyph glyph-name="Udieresis.ss02" horiz-adv-x="622" 
d="M185 761q-35 0 -53 21.5t-18 54.5t18 55.5t53 22.5q37 0 56 -22.5t19 -55.5t-19 -54.5t-56 -21.5zM432 761q-35 0 -53 21.5t-18 54.5t18 55.5t53 22.5q37 0 56 -22.5t19 -55.5t-19 -54.5t-56 -21.5zM313 -14q-108 0 -181 64t-73 169v481h160v-469q0 -51 26.5 -79
t67.5 -28q39 0 64.5 28.5t25.5 78.5v469h160v-481q0 -105 -72 -169t-178 -64z" />
    <glyph glyph-name="uni1EE4.ss02" horiz-adv-x="622" 
d="M313 -14q-108 0 -181 64t-73 169v481h160v-469q0 -51 26.5 -79t67.5 -28q39 0 64.5 28.5t25.5 78.5v469h160v-481q0 -105 -72 -169t-178 -64zM310 -214q-40 0 -62.5 20.5t-22.5 60.5q0 84 85 84q40 0 63 -21t23 -63q0 -40 -23 -60.5t-63 -20.5z" />
    <glyph glyph-name="Ugrave.ss02" horiz-adv-x="622" 
d="M250 956l193 -132l-43 -83l-218 80zM313 -14q-108 0 -181 64t-73 169v481h160v-469q0 -51 26.5 -79t67.5 -28q39 0 64.5 28.5t25.5 78.5v469h160v-481q0 -105 -72 -169t-178 -64z" />
    <glyph glyph-name="Uhungarumlaut.ss02" horiz-adv-x="622" 
d="M209 957l98 -107l-159 -118l-70 76zM445 957l98 -107l-159 -118l-70 76zM313 -14q-108 0 -181 64t-73 169v481h160v-469q0 -51 26.5 -79t67.5 -28q39 0 64.5 28.5t25.5 78.5v469h160v-481q0 -105 -72 -169t-178 -64z" />
    <glyph glyph-name="Umacron.ss02" horiz-adv-x="622" 
d="M146 874h330v-122h-330v122zM313 -14q-108 0 -181 64t-73 169v481h160v-469q0 -51 26.5 -79t67.5 -28q39 0 64.5 28.5t25.5 78.5v469h160v-481q0 -105 -72 -169t-178 -64z" />
    <glyph glyph-name="Uogonek.ss02" horiz-adv-x="622" 
d="M403 700h160v-481q0 -81 -44 -138.5t-117 -80.5q-51 -26 -51 -71q0 -30 26 -30q17 0 27 6l15 -87q-33 -15 -87 -15q-48 0 -77 22.5t-29 64.5q0 62 52 98q-95 10 -157 72.5t-62 158.5v481h160v-469q0 -51 26.5 -79t67.5 -28q39 0 64.5 28.5t25.5 78.5v469z" />
    <glyph glyph-name="Uring.ss02" horiz-adv-x="622" 
d="M204 849q0 45 30.5 73t76.5 28t76.5 -28t30.5 -73v-10q0 -47 -30.5 -74t-76.5 -27t-76.5 27t-30.5 74v10zM311 808q33 0 33 35q0 36 -33 36t-33 -36q0 -35 33 -35zM313 -14q-108 0 -181 64t-73 169v481h160v-469q0 -51 26.5 -79t67.5 -28q39 0 64.5 28.5t25.5 78.5v469
h160v-481q0 -105 -72 -169t-178 -64z" />
    <glyph glyph-name="Utilde.ss02" horiz-adv-x="622" 
d="M110 769q5 61 39 98.5t91 37.5q31 0 74.5 -23t58.5 -23q16 0 27 10.5t11 31.5l101 -22q-10 -136 -130 -136q-33 0 -75 22.5t-58 22.5q-17 0 -28.5 -10.5t-11.5 -31.5zM313 -14q-108 0 -181 64t-73 169v481h160v-469q0 -51 26.5 -79t67.5 -28q39 0 64.5 28.5t25.5 78.5
v469h160v-481q0 -105 -72 -169t-178 -64z" />
    <glyph glyph-name="i.loclTRK" horiz-adv-x="254" 
d="M212 667q0 -40 -23 -60.5t-63 -20.5t-62.5 20.5t-22.5 60.5q0 84 85 84q40 0 63 -21t23 -63zM203 520v-520h-152v520h152z" />
    <glyph glyph-name="a.ss01" horiz-adv-x="556" 
d="M218 -10q-90 0 -135 56.5t-45 159.5v121q0 99 49.5 151t147.5 52q73 0 119 -38l19 28h109v-376q0 -35 26 -35q7 0 27 6v-116q-45 -9 -77 -9q-78 0 -105 55q-55 -55 -135 -55zM257 119q54 0 73 48v213q-31 16 -69 16q-72 0 -72 -78v-103q0 -50 15 -73t53 -23z" />
    <glyph glyph-name="aacute.ss01" horiz-adv-x="556" 
d="M296 793l108 -99l-157 -134l-74 71zM218 -10q-90 0 -135 56.5t-45 159.5v121q0 99 49.5 151t147.5 52q73 0 119 -38l19 28h109v-376q0 -35 26 -35q7 0 27 6v-116q-45 -9 -77 -9q-78 0 -105 55q-55 -55 -135 -55zM257 119q54 0 73 48v213q-31 16 -69 16q-72 0 -72 -78
v-103q0 -50 15 -73t53 -23z" />
    <glyph glyph-name="abreve.ss01" horiz-adv-x="556" 
d="M104 731h110q0 -66 53 -66t53 66h110v-21q0 -70 -47 -107t-116 -37t-116 37t-47 107v21zM218 -10q-90 0 -135 56.5t-45 159.5v121q0 99 49.5 151t147.5 52q73 0 119 -38l19 28h109v-376q0 -35 26 -35q7 0 27 6v-116q-45 -9 -77 -9q-78 0 -105 55q-55 -55 -135 -55z
M257 119q54 0 73 48v213q-31 16 -69 16q-72 0 -72 -78v-103q0 -50 15 -73t53 -23z" />
    <glyph glyph-name="acircumflex.ss01" horiz-adv-x="556" 
d="M330 751l114 -128l-97 -56l-80 95l-80 -95l-97 56l114 128h126zM218 -10q-90 0 -135 56.5t-45 159.5v121q0 99 49.5 151t147.5 52q73 0 119 -38l19 28h109v-376q0 -35 26 -35q7 0 27 6v-116q-45 -9 -77 -9q-78 0 -105 55q-55 -55 -135 -55zM257 119q54 0 73 48v213
q-31 16 -69 16q-72 0 -72 -78v-103q0 -50 15 -73t53 -23z" />
    <glyph glyph-name="adieresis.ss01" horiz-adv-x="556" 
d="M149 584q-36 0 -54.5 22.5t-18.5 55.5q0 34 18.5 57t54.5 23q38 0 57 -23t19 -57t-19 -56t-57 -22zM380 584q-36 0 -54 22t-18 56t18 57t54 23q38 0 57.5 -23t19.5 -57q0 -33 -19.5 -55.5t-57.5 -22.5zM218 -10q-90 0 -135 56.5t-45 159.5v121q0 99 49.5 151t147.5 52
q73 0 119 -38l19 28h109v-376q0 -35 26 -35q7 0 27 6v-116q-45 -9 -77 -9q-78 0 -105 55q-55 -55 -135 -55zM257 119q54 0 73 48v213q-31 16 -69 16q-72 0 -72 -78v-103q0 -50 15 -73t53 -23z" />
    <glyph glyph-name="uni1EA1.ss01" horiz-adv-x="556" 
d="M218 -10q-90 0 -135 56.5t-45 159.5v121q0 99 49.5 151t147.5 52q73 0 119 -38l19 28h109v-376q0 -35 26 -35q7 0 27 6v-116q-45 -9 -77 -9q-78 0 -105 55q-55 -55 -135 -55zM257 119q54 0 73 48v213q-31 16 -69 16q-72 0 -72 -78v-103q0 -50 15 -73t53 -23zM267 -214
q-40 0 -62.5 20.5t-22.5 60.5q0 84 85 84q40 0 63 -21t23 -63q0 -40 -23 -60.5t-63 -20.5z" />
    <glyph glyph-name="agrave.ss01" horiz-adv-x="556" 
d="M219 793l123 -162l-74 -71l-157 134zM218 -10q-90 0 -135 56.5t-45 159.5v121q0 99 49.5 151t147.5 52q73 0 119 -38l19 28h109v-376q0 -35 26 -35q7 0 27 6v-116q-45 -9 -77 -9q-78 0 -105 55q-55 -55 -135 -55zM257 119q54 0 73 48v213q-31 16 -69 16q-72 0 -72 -78
v-103q0 -50 15 -73t53 -23z" />
    <glyph glyph-name="amacron.ss01" horiz-adv-x="556" 
d="M107 715h320v-124h-320v124zM218 -10q-90 0 -135 56.5t-45 159.5v121q0 99 49.5 151t147.5 52q73 0 119 -38l19 28h109v-376q0 -35 26 -35q7 0 27 6v-116q-45 -9 -77 -9q-78 0 -105 55q-55 -55 -135 -55zM257 119q54 0 73 48v213q-31 16 -69 16q-72 0 -72 -78v-103
q0 -50 15 -73t53 -23z" />
    <glyph glyph-name="aogonek.ss01" horiz-adv-x="556" 
d="M536 -96l15 -87q-33 -15 -87 -15q-48 0 -77 22.5t-29 64.5q0 70 63 104q-48 10 -68 52q-55 -55 -135 -55q-90 0 -135 56.5t-45 159.5v121q0 99 49.5 151t147.5 52q73 0 119 -38l19 28h109v-376q0 -35 26 -35q7 0 27 6v-116q-52 -26 -52 -71q0 -30 26 -30q17 0 27 6z
M330 167v213q-31 16 -69 16q-72 0 -72 -78v-103q0 -50 15 -73t53 -23q54 0 73 48z" />
    <glyph glyph-name="aring.ss01" horiz-adv-x="556" 
d="M162 675q0 43 30 70t74 27q46 0 76 -26.5t30 -70.5v-12q0 -45 -30 -71t-76 -26q-45 0 -74.5 26t-29.5 71v12zM266 633q32 0 32 35q0 36 -32 36q-29 0 -29 -36q0 -35 29 -35zM218 -10q-90 0 -135 56.5t-45 159.5v121q0 99 49.5 151t147.5 52q73 0 119 -38l19 28h109v-376
q0 -35 26 -35q7 0 27 6v-116q-45 -9 -77 -9q-78 0 -105 55q-55 -55 -135 -55zM257 119q54 0 73 48v213q-31 16 -69 16q-72 0 -72 -78v-103q0 -50 15 -73t53 -23z" />
    <glyph glyph-name="aringacute.ss01" horiz-adv-x="556" 
d="M266 566q-45 0 -74.5 26t-29.5 71v12q0 43 30 70t74 27h5l100 131l118 -108l-119 -101q2 -12 2 -19v-12q0 -45 -30 -71t-76 -26zM266 704q-29 0 -29 -36q0 -35 29 -35q32 0 32 35q0 36 -32 36zM508 109q7 0 27 6v-116q-45 -9 -77 -9q-78 0 -105 55q-55 -55 -135 -55
q-90 0 -135 56.5t-45 159.5v121q0 99 49.5 151t147.5 52q73 0 119 -38l19 28h109v-376q0 -35 26 -35zM330 167v213q-31 16 -69 16q-72 0 -72 -78v-103q0 -50 15 -73t53 -23q54 0 73 48z" />
    <glyph glyph-name="atilde.ss01" horiz-adv-x="556" 
d="M66 610q5 61 38.5 98t91.5 37q33 0 75.5 -22.5t57.5 -22.5q16 0 27 10.5t11 31.5l101 -22q-10 -136 -130 -136q-35 0 -76 22.5t-57 22.5q-17 0 -28.5 -10.5t-11.5 -31.5zM218 -10q-90 0 -135 56.5t-45 159.5v121q0 99 49.5 151t147.5 52q73 0 119 -38l19 28h109v-376
q0 -35 26 -35q7 0 27 6v-116q-45 -9 -77 -9q-78 0 -105 55q-55 -55 -135 -55zM257 119q54 0 73 48v213q-31 16 -69 16q-72 0 -72 -78v-103q0 -50 15 -73t53 -23z" />
    <glyph glyph-name="d.ss01" horiz-adv-x="556" 
d="M217 -10q-86 0 -132.5 55.5t-46.5 155.5v126q0 101 51 152t148 51q49 0 93 -23v243h152v-606q0 -35 26 -35q7 0 27 6l-1 -116q-45 -9 -77 -9q-77 0 -104 55q-53 -55 -136 -55zM256 119q53 0 74 48v216q-35 16 -69 16t-52.5 -17t-18.5 -61v-106q0 -50 14 -73t52 -23z" />
    <glyph glyph-name="dcaron.ss01" horiz-adv-x="609" 
d="M546 534q29 42 27 60q-56 15 -56 77q0 41 24.5 62t64.5 21t65.5 -21t25.5 -62q0 -110 -103 -179zM217 -10q-86 0 -132.5 55.5t-46.5 155.5v126q0 101 51 152t148 51q49 0 93 -23v243h152v-606q0 -35 26 -35q7 0 27 6l-1 -116q-45 -9 -77 -9q-77 0 -104 55
q-53 -55 -136 -55zM256 119q53 0 74 48v216q-35 16 -69 16t-52.5 -17t-18.5 -61v-106q0 -50 14 -73t52 -23z" />
    <glyph glyph-name="dcroat.ss01" horiz-adv-x="556" 
d="M540 588h-58v-444q0 -35 26 -35q7 0 27 6l-1 -116q-45 -9 -77 -9q-77 0 -104 55q-53 -55 -136 -55q-86 0 -132.5 55.5t-46.5 155.5v126q0 101 51 152t148 51q49 0 93 -23v81h-89v110h89v52h152v-52h58v-110zM330 167v216q-35 16 -69 16t-52.5 -17t-18.5 -61v-106
q0 -50 14 -73t52 -23q53 0 74 48z" />
    <glyph glyph-name="f.ss01" horiz-adv-x="342" 
d="M287 629q-32 0 -46 -14.5t-14 -45.5v-49h101v-120h-101v-550h-151v550h-47v120h47v56q0 180 187 180q59 0 96 -20l-23 -117q-17 10 -49 10z" />
    <glyph glyph-name="g.ss01" horiz-adv-x="532" 
d="M249 -160q-114 0 -202 46l43 115q66 -32 147 -32q48 0 70 16t22 56v19q-40 -29 -110 -29q-85 0 -133.5 51.5t-48.5 150.5v94q0 99 49 151t142 52q74 0 125 -35l19 25h109v-486q0 -94 -60 -144t-172 -50zM252 160q50 0 77 31v192q-32 16 -72 16q-68 0 -68 -78v-76
q0 -85 63 -85z" />
    <glyph glyph-name="gbreve.ss01" horiz-adv-x="532" 
d="M103 731h110q0 -66 53 -66t53 66h110v-21q0 -70 -47 -107t-116 -37t-116 37t-47 107v21zM249 -160q-114 0 -202 46l43 115q66 -32 147 -32q48 0 70 16t22 56v19q-40 -29 -110 -29q-85 0 -133.5 51.5t-48.5 150.5v94q0 99 49 151t142 52q74 0 125 -35l19 25h109v-486
q0 -94 -60 -144t-172 -50zM252 160q50 0 77 31v192q-32 16 -72 16q-68 0 -68 -78v-76q0 -85 63 -85z" />
    <glyph glyph-name="gcaron.ss01" horiz-adv-x="532" 
d="M203 568l-114 128l97 56l80 -95l80 95l97 -56l-114 -128h-126zM249 -160q-114 0 -202 46l43 115q66 -32 147 -32q48 0 70 16t22 56v19q-40 -29 -110 -29q-85 0 -133.5 51.5t-48.5 150.5v94q0 99 49 151t142 52q74 0 125 -35l19 25h109v-486q0 -94 -60 -144t-172 -50z
M252 160q50 0 77 31v192q-32 16 -72 16q-68 0 -68 -78v-76q0 -85 63 -85z" />
    <glyph glyph-name="gcircumflex.ss01" horiz-adv-x="532" 
d="M329 751l114 -128l-97 -56l-80 95l-80 -95l-97 56l114 128h126zM249 -160q-114 0 -202 46l43 115q66 -32 147 -32q48 0 70 16t22 56v19q-40 -29 -110 -29q-85 0 -133.5 51.5t-48.5 150.5v94q0 99 49 151t142 52q74 0 125 -35l19 25h109v-486q0 -94 -60 -144t-172 -50z
M252 160q50 0 77 31v192q-32 16 -72 16q-68 0 -68 -78v-76q0 -85 63 -85z" />
    <glyph glyph-name="gcommaaccent.ss01" horiz-adv-x="532" 
d="M326 798q-29 -42 -27 -60q56 -15 56 -77q0 -41 -24.5 -62t-64.5 -21t-65.5 21t-25.5 62q0 110 103 179zM249 -160q-114 0 -202 46l43 115q66 -32 147 -32q48 0 70 16t22 56v19q-40 -29 -110 -29q-85 0 -133.5 51.5t-48.5 150.5v94q0 99 49 151t142 52q74 0 125 -35l19 25
h109v-486q0 -94 -60 -144t-172 -50zM252 160q50 0 77 31v192q-32 16 -72 16q-68 0 -68 -78v-76q0 -85 63 -85z" />
    <glyph glyph-name="gdotaccent.ss01" horiz-adv-x="532" 
d="M351 667q0 -40 -23 -60.5t-63 -20.5t-62.5 20.5t-22.5 60.5q0 84 85 84q40 0 63 -21t23 -63zM249 -160q-114 0 -202 46l43 115q66 -32 147 -32q48 0 70 16t22 56v19q-40 -29 -110 -29q-85 0 -133.5 51.5t-48.5 150.5v94q0 99 49 151t142 52q74 0 125 -35l19 25h109v-486
q0 -94 -60 -144t-172 -50zM252 160q50 0 77 31v192q-32 16 -72 16q-68 0 -68 -78v-76q0 -85 63 -85z" />
    <glyph glyph-name="h.ss01" horiz-adv-x="556" 
d="M454 -10q-57 0 -85.5 23.5t-28.5 79.5v235q0 36 -13.5 52t-45.5 16q-41 0 -78 -39v-357h-152v750h152v-268q21 21 55.5 34.5t68.5 13.5q91 0 128 -47.5t37 -141.5v-198q0 -33 28 -33q8 0 25 5l-1 -116q-51 -9 -90 -9z" />
    <glyph glyph-name="hbar.ss01" horiz-adv-x="556" 
d="M520 110q8 0 25 5l-1 -116q-51 -9 -90 -9q-57 0 -85.5 23.5t-28.5 79.5v235q0 36 -13.5 52t-45.5 16q-41 0 -78 -39v-357h-152v583h-61v110h61v57h152v-57h86v-110h-86v-101q21 21 55.5 34.5t68.5 13.5q91 0 128 -47.5t37 -141.5v-198q0 -33 28 -33z" />
    <glyph glyph-name="hcircumflex.ss01" horiz-adv-x="556" 
d="M48 938h156l103 -112l-96 -60l-85 91l-85 -91l-96 60zM454 -10q-57 0 -85.5 23.5t-28.5 79.5v235q0 36 -13.5 52t-45.5 16q-41 0 -78 -39v-357h-152v750h152v-268q21 21 55.5 34.5t68.5 13.5q91 0 128 -47.5t37 -141.5v-198q0 -33 28 -33q8 0 25 5l-1 -116q-51 -9 -90 -9
z" />
    <glyph glyph-name="l.ss01" horiz-adv-x="276" 
d="M164 -10q-57 0 -85.5 23.5t-28.5 79.5v657h152v-607q0 -33 28 -33q8 0 25 5l-1 -116q-51 -9 -90 -9z" />
    <glyph glyph-name="lacute.ss01" horiz-adv-x="276" 
d="M187 1006l67 -135l-218 -81l-42 84zM164 -10q-57 0 -85.5 23.5t-28.5 79.5v657h152v-607q0 -33 28 -33q8 0 25 5l-1 -116q-51 -9 -90 -9z" />
    <glyph glyph-name="lcaron.ss01" horiz-adv-x="315" 
d="M250 556q29 42 27 60q-56 15 -56 77q0 41 24.5 62t64.5 21t65.5 -21t25.5 -62q0 -110 -103 -179zM164 -10q-57 0 -85.5 23.5t-28.5 79.5v657h152v-607q0 -33 28 -33q8 0 25 5l-1 -116q-51 -9 -90 -9z" />
    <glyph glyph-name="lcommaaccent.ss01" horiz-adv-x="276" 
d="M164 -10q-57 0 -85.5 23.5t-28.5 79.5v657h152v-607q0 -33 28 -33q8 0 25 5l-1 -116q-51 -9 -90 -9zM91 -256q29 42 27 60q-56 15 -56 77q0 41 24.5 62t64.5 21t65.5 -21t25.5 -62q0 -110 -103 -179z" />
    <glyph glyph-name="ldot.ss01" horiz-adv-x="406" 
d="M164 -10q-57 0 -85.5 23.5t-28.5 79.5v657h152v-607q0 -33 28 -33q8 0 25 5l-1 -116q-51 -9 -90 -9zM329 471q40 0 65.5 -21t25.5 -62q0 -40 -25 -60.5t-66 -20.5q-40 0 -64.5 20.5t-24.5 60.5q0 41 24.5 62t64.5 21z" />
    <glyph glyph-name="lslash.ss01" horiz-adv-x="339" 
d="M240 143q0 -33 28 -33q8 0 25 5l-1 -116q-51 -9 -90 -9q-57 0 -85.5 23.5t-28.5 79.5v204l-39 -13l-39 125l78 26v315h152v-263l37 12l42 -124l-79 -27v-205z" />
    <glyph glyph-name="m.ss01" horiz-adv-x="810" 
d="M708 -10q-57 0 -85.5 23.5t-28.5 79.5v247q0 32 -10 46.5t-35 14.5q-42 0 -74 -45v-356h-152v340q0 56 -45 56q-39 0 -75 -43v-353h-152v520h133l11 -43q22 23 57 38t71 15q81 0 117 -63q63 63 149 63q157 0 157 -182v-205q0 -33 28 -33q8 0 25 5l-1 -116q-51 -9 -90 -9z
" />
    <glyph glyph-name="n.ss01" horiz-adv-x="556" 
d="M454 -10q-57 0 -85.5 23.5t-28.5 79.5v235q0 36 -13 52t-45 16q-43 0 -79 -43v-353h-152v520h133l11 -43q23 23 60 38t72 15q88 0 126.5 -48.5t38.5 -140.5v-198q0 -33 28 -33q8 0 25 5l-1 -116q-51 -9 -90 -9z" />
    <glyph glyph-name="nacute.ss01" horiz-adv-x="556" 
d="M273 793l108 -99l-157 -134l-74 71zM454 -10q-57 0 -85.5 23.5t-28.5 79.5v235q0 36 -13 52t-45 16q-43 0 -79 -43v-353h-152v520h133l11 -43q23 23 60 38t72 15q88 0 126.5 -48.5t38.5 -140.5v-198q0 -33 28 -33q8 0 25 5l-1 -116q-51 -9 -90 -9z" />
    <glyph glyph-name="napostrophe.ss01" horiz-adv-x="556" 
d="M-79 741h133l-16 -206h-102zM454 -10q-57 0 -85.5 23.5t-28.5 79.5v235q0 36 -13 52t-45 16q-43 0 -79 -43v-353h-152v520h133l11 -43q23 23 60 38t72 15q88 0 126.5 -48.5t38.5 -140.5v-198q0 -33 28 -33q8 0 25 5l-1 -116q-51 -9 -90 -9z" />
    <glyph glyph-name="ncaron.ss01" horiz-adv-x="556" 
d="M208 568l-114 128l97 56l80 -95l80 95l97 -56l-114 -128h-126zM454 -10q-57 0 -85.5 23.5t-28.5 79.5v235q0 36 -13 52t-45 16q-43 0 -79 -43v-353h-152v520h133l11 -43q23 23 60 38t72 15q88 0 126.5 -48.5t38.5 -140.5v-198q0 -33 28 -33q8 0 25 5l-1 -116
q-51 -9 -90 -9z" />
    <glyph glyph-name="ncommaaccent.ss01" horiz-adv-x="556" 
d="M454 -10q-57 0 -85.5 23.5t-28.5 79.5v235q0 36 -13 52t-45 16q-43 0 -79 -43v-353h-152v520h133l11 -43q23 23 60 38t72 15q88 0 126.5 -48.5t38.5 -140.5v-198q0 -33 28 -33q8 0 25 5l-1 -116q-51 -9 -90 -9zM220 -256q29 42 27 60q-56 15 -56 77q0 41 24.5 62t64.5 21
t65.5 -21t25.5 -62q0 -110 -103 -179z" />
    <glyph glyph-name="eng.ss01" horiz-adv-x="536" 
d="M327 530q88 0 126.5 -48.5t38.5 -140.5v-299q0 -95 -61.5 -146.5t-178.5 -55.5l-19 119q57 2 82 22.5t25 68.5v278q0 36 -13 52t-45 16q-43 0 -79 -44v-352h-152v520h133l11 -43q23 23 60 38t72 15z" />
    <glyph glyph-name="uni0272.ss01" horiz-adv-x="573" 
d="M521 110q8 0 25 5l-1 -116q-51 -9 -90 -9q-57 0 -85.5 23.5t-28.5 79.5v235q0 36 -13 52t-45 16q-43 0 -79 -44v-310q0 -95 -61.5 -146.5t-178.5 -55.5l-19 119q57 2 82 22.5t25 68.5v470h133l11 -43q23 23 60 38t72 15q88 0 126.5 -48.5t38.5 -140.5v-198q0 -33 28 -33z
" />
    <glyph glyph-name="ntilde.ss01" horiz-adv-x="556" 
d="M70 610q5 61 38.5 98t91.5 37q34 0 76 -22.5t57 -22.5q16 0 27 10.5t11 31.5l101 -22q-10 -136 -130 -136q-35 0 -76 22.5t-57 22.5q-17 0 -28.5 -10.5t-11.5 -31.5zM454 -10q-57 0 -85.5 23.5t-28.5 79.5v235q0 36 -13 52t-45 16q-43 0 -79 -43v-353h-152v520h133
l11 -43q23 23 60 38t72 15q88 0 126.5 -48.5t38.5 -140.5v-198q0 -33 28 -33q8 0 25 5l-1 -116q-51 -9 -90 -9z" />
    <glyph glyph-name="t.ss01" horiz-adv-x="347" 
d="M143 0q-53 63 -53 179v221h-74v120h74v99h152v-99h90v-120h-90v-217q0 -101 69 -183h-168z" />
    <glyph glyph-name="tbar.ss01" horiz-adv-x="352" 
d="M333 400h-90v-85h87v-110h-87v-22q0 -101 69 -183h-168q-53 63 -53 179v26h-60v110h60v85h-74v120h74v99h152v-99h90v-120z" />
    <glyph glyph-name="tcaron.ss01" horiz-adv-x="347" 
d="M290 574q29 42 27 60q-56 15 -56 77q0 41 24.5 62t64.5 21t65.5 -21t25.5 -62q0 -110 -103 -179zM143 0q-53 63 -53 179v221h-74v120h74v99h152v-99h90v-120h-90v-217q0 -101 69 -183h-168z" />
    <glyph glyph-name="uni0163.ss01" horiz-adv-x="347" 
d="M332 400h-90v-217q0 -101 69 -183h-49l-11 -31q61 -14 61 -73q0 -48 -32.5 -69.5t-83.5 -21.5q-44 0 -77 11l7 67q18 -6 40 -6q35 0 35 27q0 16 -15.5 23t-31.5 7l-15 -1l29 67h-25q-53 63 -53 179v221h-74v120h74v99h152v-99h90v-120z" />
    <glyph glyph-name="uni021B.ss01" horiz-adv-x="347" 
d="M143 0q-53 63 -53 179v221h-74v120h74v99h152v-99h90v-120h-90v-217q0 -101 69 -183h-168zM155 -256q29 42 27 60q-56 15 -56 77q0 41 24.5 62t64.5 21t65.5 -21t25.5 -62q0 -110 -103 -179z" />
    <glyph glyph-name="u.ss01" horiz-adv-x="555" 
d="M205 -10q-84 0 -119.5 47.5t-35.5 149.5v333h151v-328q0 -73 46 -73q60 0 83 48v353h152v-376q0 -35 25 -35q7 0 27 6v-116q-45 -9 -77 -9q-77 0 -104 55q-58 -55 -148 -55z" />
    <glyph glyph-name="uacute.ss01" horiz-adv-x="555" 
d="M266 793l108 -99l-157 -134l-74 71zM205 -10q-84 0 -119.5 47.5t-35.5 149.5v333h151v-328q0 -73 46 -73q60 0 83 48v353h152v-376q0 -35 25 -35q7 0 27 6v-116q-45 -9 -77 -9q-77 0 -104 55q-58 -55 -148 -55z" />
    <glyph glyph-name="ubreve.ss01" horiz-adv-x="555" 
d="M101 731h110q0 -66 53 -66t53 66h110v-21q0 -70 -47 -107t-116 -37t-116 37t-47 107v21zM205 -10q-84 0 -119.5 47.5t-35.5 149.5v333h151v-328q0 -73 46 -73q60 0 83 48v353h152v-376q0 -35 25 -35q7 0 27 6v-116q-45 -9 -77 -9q-77 0 -104 55q-58 -55 -148 -55z" />
    <glyph glyph-name="ucircumflex.ss01" horiz-adv-x="555" 
d="M327 751l114 -128l-97 -56l-80 95l-80 -95l-97 56l114 128h126zM205 -10q-84 0 -119.5 47.5t-35.5 149.5v333h151v-328q0 -73 46 -73q60 0 83 48v353h152v-376q0 -35 25 -35q7 0 27 6v-116q-45 -9 -77 -9q-77 0 -104 55q-58 -55 -148 -55z" />
    <glyph glyph-name="udieresis.ss01" horiz-adv-x="555" 
d="M146 584q-36 0 -54.5 22.5t-18.5 55.5q0 34 18.5 57t54.5 23q38 0 57 -23t19 -57t-19 -56t-57 -22zM377 584q-36 0 -54 22t-18 56t18 57t54 23q38 0 57.5 -23t19.5 -57q0 -33 -19.5 -55.5t-57.5 -22.5zM205 -10q-84 0 -119.5 47.5t-35.5 149.5v333h151v-328q0 -73 46 -73
q60 0 83 48v353h152v-376q0 -35 25 -35q7 0 27 6v-116q-45 -9 -77 -9q-77 0 -104 55q-58 -55 -148 -55z" />
    <glyph glyph-name="uni1EE5.ss01" horiz-adv-x="555" 
d="M205 -10q-84 0 -119.5 47.5t-35.5 149.5v333h151v-328q0 -73 46 -73q60 0 83 48v353h152v-376q0 -35 25 -35q7 0 27 6v-116q-45 -9 -77 -9q-77 0 -104 55q-58 -55 -148 -55zM265 -214q-40 0 -62.5 20.5t-22.5 60.5q0 84 85 84q40 0 63 -21t23 -63q0 -40 -23 -60.5
t-63 -20.5z" />
    <glyph glyph-name="ugrave.ss01" horiz-adv-x="555" 
d="M236 793l123 -162l-74 -71l-157 134zM205 -10q-84 0 -119.5 47.5t-35.5 149.5v333h151v-328q0 -73 46 -73q60 0 83 48v353h152v-376q0 -35 25 -35q7 0 27 6v-116q-45 -9 -77 -9q-77 0 -104 55q-58 -55 -148 -55z" />
    <glyph glyph-name="uhungarumlaut.ss01" horiz-adv-x="555" 
d="M174 786l125 -90l-137 -145l-87 64zM383 786l125 -90l-137 -145l-87 64zM205 -10q-84 0 -119.5 47.5t-35.5 149.5v333h151v-328q0 -73 46 -73q60 0 83 48v353h152v-376q0 -35 25 -35q7 0 27 6v-116q-45 -9 -77 -9q-77 0 -104 55q-58 -55 -148 -55z" />
    <glyph glyph-name="umacron.ss01" horiz-adv-x="555" 
d="M104 715h320v-124h-320v124zM205 -10q-84 0 -119.5 47.5t-35.5 149.5v333h151v-328q0 -73 46 -73q60 0 83 48v353h152v-376q0 -35 25 -35q7 0 27 6v-116q-45 -9 -77 -9q-77 0 -104 55q-58 -55 -148 -55z" />
    <glyph glyph-name="uogonek.ss01" horiz-adv-x="556" 
d="M535 -96l15 -87q-33 -15 -87 -15q-48 0 -77 22.5t-29 64.5q0 70 63 104q-47 11 -67 52q-58 -55 -148 -55q-84 0 -119.5 47.5t-35.5 149.5v333h151v-328q0 -73 46 -73q60 0 83 48v353h152v-376q0 -35 25 -35q7 0 27 6v-116q-52 -26 -52 -71q0 -30 26 -30q16 0 27 6z" />
    <glyph glyph-name="uring.ss01" horiz-adv-x="555" 
d="M159 675q0 43 30 70t74 27q46 0 76 -26.5t30 -70.5v-12q0 -45 -30 -71t-76 -26q-45 0 -74.5 26t-29.5 71v12zM263 633q32 0 32 35q0 36 -32 36q-29 0 -29 -36q0 -35 29 -35zM205 -10q-84 0 -119.5 47.5t-35.5 149.5v333h151v-328q0 -73 46 -73q60 0 83 48v353h152v-376
q0 -35 25 -35q7 0 27 6v-116q-45 -9 -77 -9q-77 0 -104 55q-58 -55 -148 -55z" />
    <glyph glyph-name="utilde.ss01" horiz-adv-x="555" 
d="M63 610q5 61 38.5 98t91.5 37q34 0 75.5 -22.5t57.5 -22.5t27 10.5t11 31.5l101 -22q-10 -136 -130 -136q-35 0 -76 22.5t-57 22.5q-17 0 -28.5 -10.5t-11.5 -31.5zM205 -10q-84 0 -119.5 47.5t-35.5 149.5v333h151v-328q0 -73 46 -73q60 0 83 48v353h152v-376
q0 -35 25 -35q7 0 27 6v-116q-45 -9 -77 -9q-77 0 -104 55q-58 -55 -148 -55z" />
    <glyph glyph-name="w.ss01" horiz-adv-x="728" 
d="M569 520h160l-173 -520h-127l-65 208l-66 -208h-127l-172 520h161l85 -340l63 208l-41 132h154l71 -343z" />
    <glyph glyph-name="wacute.ss01" horiz-adv-x="728" 
d="M474 694l-157 -134l-74 71l123 162zM569 520h160l-173 -520h-127l-65 208l-66 -208h-127l-172 520h161l85 -340l63 208l-41 132h154l71 -343z" />
    <glyph glyph-name="wcircumflex.ss01" horiz-adv-x="728" 
d="M364 662l-80 -95l-97 56l114 128h126l114 -128l-97 -56zM569 520h160l-173 -520h-127l-65 208l-66 -208h-127l-172 520h161l85 -340l63 208l-41 132h154l71 -343z" />
    <glyph glyph-name="wdieresis.ss01" horiz-adv-x="728" 
d="M246 584q-36 0 -54.5 22.5t-18.5 55.5q0 34 18.5 57t54.5 23q38 0 57 -23t19 -57t-19 -56t-57 -22zM477 584q-36 0 -54 22t-18 56t18 57t54 23q38 0 57.5 -23t19.5 -57q0 -33 -19.5 -55.5t-57.5 -22.5zM569 520h160l-173 -520h-127l-65 208l-66 -208h-127l-172 520h161
l85 -340l63 208l-41 132h154l71 -343z" />
    <glyph glyph-name="wgrave.ss01" horiz-adv-x="728" 
d="M459 631l-74 -71l-157 134l108 99zM569 520h160l-173 -520h-127l-65 208l-66 -208h-127l-172 520h161l85 -340l63 208l-41 132h154l71 -343z" />
    <glyph glyph-name="y.ss01" horiz-adv-x="532" 
d="M269 -160q-128 0 -220 54l44 108q81 -35 162 -35q82 0 82 77v63q-24 -26 -62.5 -41t-77.5 -15q-79 0 -114.5 36.5t-34.5 123.5v309h152v-270q-1 -36 10.5 -50.5t43.5 -14.5q42 0 75 36v299h152v-484q0 -95 -53.5 -145.5t-158.5 -50.5z" />
    <glyph glyph-name="yacute.ss01" horiz-adv-x="532" 
d="M267 793l108 -99l-157 -134l-74 71zM269 -160q-128 0 -220 54l44 108q81 -35 162 -35q82 0 82 77v63q-24 -26 -62.5 -41t-77.5 -15q-79 0 -114.5 36.5t-34.5 123.5v309h152v-270q-1 -36 10.5 -50.5t43.5 -14.5q42 0 75 36v299h152v-484q0 -95 -53.5 -145.5t-158.5 -50.5z
" />
    <glyph glyph-name="ycircumflex.ss01" horiz-adv-x="532" 
d="M328 751l114 -128l-97 -56l-80 95l-80 -95l-97 56l114 128h126zM269 -160q-128 0 -220 54l44 108q81 -35 162 -35q82 0 82 77v63q-24 -26 -62.5 -41t-77.5 -15q-79 0 -114.5 36.5t-34.5 123.5v309h152v-270q-1 -36 10.5 -50.5t43.5 -14.5q42 0 75 36v299h152v-484
q0 -95 -53.5 -145.5t-158.5 -50.5z" />
    <glyph glyph-name="ydieresis.ss01" horiz-adv-x="532" 
d="M147 584q-36 0 -54.5 22.5t-18.5 55.5q0 34 18.5 57t54.5 23q38 0 57 -23t19 -57t-19 -56t-57 -22zM378 584q-36 0 -54 22t-18 56t18 57t54 23q38 0 57.5 -23t19.5 -57q0 -33 -19.5 -55.5t-57.5 -22.5zM269 -160q-128 0 -220 54l44 108q81 -35 162 -35q82 0 82 77v63
q-24 -26 -62.5 -41t-77.5 -15q-79 0 -114.5 36.5t-34.5 123.5v309h152v-270q-1 -36 10.5 -50.5t43.5 -14.5q42 0 75 36v299h152v-484q0 -95 -53.5 -145.5t-158.5 -50.5z" />
    <glyph glyph-name="ygrave.ss01" horiz-adv-x="532" 
d="M237 793l123 -162l-74 -71l-157 134zM269 -160q-128 0 -220 54l44 108q81 -35 162 -35q82 0 82 77v63q-24 -26 -62.5 -41t-77.5 -15q-79 0 -114.5 36.5t-34.5 123.5v309h152v-270q-1 -36 10.5 -50.5t43.5 -14.5q42 0 75 36v299h152v-484q0 -95 -53.5 -145.5t-158.5 -50.5
z" />
    <glyph glyph-name="uni0233.ss01" horiz-adv-x="532" 
d="M105 715h320v-124h-320v124zM269 -160q-128 0 -220 54l44 108q81 -35 162 -35q82 0 82 77v63q-24 -26 -62.5 -41t-77.5 -15q-79 0 -114.5 36.5t-34.5 123.5v309h152v-270q-1 -36 10.5 -50.5t43.5 -14.5q42 0 75 36v299h152v-484q0 -95 -53.5 -145.5t-158.5 -50.5z" />
    <glyph glyph-name="uni1EF9.ss01" horiz-adv-x="532" 
d="M64 610q5 61 38.5 98t91.5 37q34 0 76 -22.5t57 -22.5q16 0 27 10.5t11 31.5l101 -22q-10 -136 -130 -136q-35 0 -76 22.5t-57 22.5q-17 0 -28.5 -10.5t-11.5 -31.5zM269 -160q-128 0 -220 54l44 108q81 -35 162 -35q82 0 82 77v63q-24 -26 -62.5 -41t-77.5 -15
q-79 0 -114.5 36.5t-34.5 123.5v309h152v-270q-1 -36 10.5 -50.5t43.5 -14.5q42 0 75 36v299h152v-484q0 -95 -53.5 -145.5t-158.5 -50.5z" />
    <glyph glyph-name="z.ss01" horiz-adv-x="484" 
d="M260 126h193v-126h-424v96q80 52 149 130.5t103 167.5h-241v126h402v-100q-45 -154 -182 -294z" />
    <glyph glyph-name="zacute.ss01" horiz-adv-x="484" 
d="M384 694l-157 -134l-74 71l123 162zM260 126h193v-126h-424v96q80 52 149 130.5t103 167.5h-241v126h402v-100q-45 -154 -182 -294z" />
    <glyph glyph-name="zcaron.ss01" horiz-adv-x="484" 
d="M301 568h-126l-114 128l97 56l80 -95l80 95l97 -56zM260 126h193v-126h-424v96q80 52 149 130.5t103 167.5h-241v126h402v-100q-45 -154 -182 -294z" />
    <glyph glyph-name="zdotaccent.ss01" horiz-adv-x="484" 
d="M237 586q-40 0 -62.5 20.5t-22.5 60.5q0 84 85 84q40 0 63 -21t23 -63q0 -40 -23 -60.5t-63 -20.5zM260 126h193v-126h-424v96q80 52 149 130.5t103 167.5h-241v126h402v-100q-45 -154 -182 -294z" />
    <glyph glyph-name="f_t" horiz-adv-x="667" 
d="M631 130l22 -119q-45 -21 -109 -21q-98 0 -136.5 43.5t-38.5 145.5v221h-142v-400h-151v400h-47v120h47v56q0 180 187 180q59 0 96 -20l-23 -117q-17 10 -49 10t-46 -14.5t-14 -45.5v-49h150l24 99h120v-99h126v-120h-126v-210q0 -40 12.5 -56.5t44.5 -16.5q33 0 53 13z
" />
    <glyph glyph-name="zero.osf" horiz-adv-x="571" 
d="M38 317q0 104 68 163.5t179 59.5q112 0 180 -59.5t68 -163.5v-107q0 -104 -68 -164t-180 -60q-111 0 -179 60t-68 164v107zM195 217q0 -43 24.5 -67.5t65.5 -24.5q42 0 66.5 24t24.5 68v93q0 43 -24.5 67t-66.5 24q-41 0 -65.5 -24t-24.5 -67v-93z" />
    <glyph glyph-name="one.osf" horiz-adv-x="441" 
d="M322 136h99v-136h-373v136h119v214l-83 -45l-59 129l165 96h132v-394z" />
    <glyph glyph-name="two.osf" horiz-adv-x="524" 
d="M311 133h188v-133h-455v90q153 107 203.5 158t50.5 91q0 69 -88 69q-70 0 -142 -37l-48 115q94 54 218 54q108 0 164.5 -47t56.5 -130q0 -131 -148 -230z" />
    <glyph glyph-name="three.osf" horiz-adv-x="513" 
d="M390 216q43 -20 67 -58t24 -89v-13q0 -98 -62.5 -156.5t-175.5 -58.5q-136 0 -231 58l48 114q85 -38 166 -38q46 0 73.5 22.5t27.5 66.5q0 88 -115 88h-66v108h70q90 0 91 78q1 36 -22.5 53.5t-70.5 17.5q-68 0 -134 -34l-47 110q97 55 217 55q107 0 160.5 -49.5
t51.5 -125.5q0 -98 -72 -149z" />
    <glyph glyph-name="four.osf" horiz-adv-x="568" 
d="M488 133h59v-133h-59v-150h-154v150h-318v86l188 444h160l-160 -397h130v220h154v-220z" />
    <glyph glyph-name="five.osf" horiz-adv-x="515" 
d="M289 293q93 0 147 -52.5t54 -153.5v-32q0 -96 -64 -155t-178 -59q-127 0 -227 68l47 112q92 -46 169 -46q93 0 93 80v22q0 42 -23 63t-63 21q-58 0 -110 -33l-92 69l41 333h373v-132h-236l-15 -124q37 19 84 19z" />
    <glyph glyph-name="six.osf" horiz-adv-x="562" 
d="M317 432q41 0 77.5 -11t67.5 -33.5t49.5 -63.5t18.5 -95v-28q0 -104 -66 -159.5t-176 -55.5t-176.5 53.5t-66.5 156.5v292q0 103 68.5 164.5t183.5 61.5q127 0 225 -67l-56 -111q-77 46 -151 46q-61 0 -87.5 -27t-26.5 -79v-69q45 25 116 25zM288 118q88 0 88 94
q0 45 -19.5 66t-61.5 21q-56 0 -94 -23v-70q0 -88 87 -88z" />
    <glyph glyph-name="seven.osf" horiz-adv-x="474" 
d="M11 530h451v-85l-239 -595h-165l231 547h-278v133z" />
    <glyph glyph-name="eight.osf" horiz-adv-x="572" 
d="M461 373q34 -26 54.5 -69.5t20.5 -83.5v-15q0 -98 -63 -158.5t-186 -60.5q-126 0 -188.5 60t-62.5 159v15q0 39 22 84.5t53 67.5q-26 26 -43 67.5t-17 76.5q0 94 58.5 146t177.5 52q117 0 176 -52t59 -146q0 -36 -16 -76.5t-45 -66.5zM287 588q-39 0 -61.5 -22t-22.5 -59
q0 -36 21 -60.5t52 -24.5h16q32 0 54 24.5t23 60.5q0 37 -22.5 59t-59.5 22zM375 208v7q0 43 -23.5 68t-57.5 25h-15q-36 0 -59 -25t-23 -68v-7q0 -39 23 -64.5t67 -25.5q42 0 65 26t23 64z" />
    <glyph glyph-name="nine.osf" horiz-adv-x="557" 
d="M272 540q110 0 176.5 -53t66.5 -157v-268q0 -106 -63 -163.5t-188 -57.5q-130 0 -230 68l57 115q82 -51 168 -51q100 0 100 98v44q-45 -24 -113 -24q-42 0 -78.5 10.5t-68 33t-50 63t-18.5 95.5v30q0 104 65.5 160.5t175.5 56.5zM267 224q54 0 92 22v70q0 92 -87 92
q-85 0 -85 -96q0 -48 18.5 -68t61.5 -20z" />
    <glyph glyph-name="zero.sinf" horiz-adv-x="452" 
d="M28 181q0 91 53.5 143t147.5 52q92 0 143.5 -52t51.5 -143v-103q0 -89 -51.5 -140.5t-143.5 -51.5q-93 0 -147 51.5t-54 140.5v103zM292 158q0 51 -13 73t-50 22t-50 -22t-13 -73v-60q0 -46 13.5 -67t49.5 -21t49.5 21t13.5 67v60z" />
    <glyph glyph-name="one.sinf" horiz-adv-x="358" 
d="M262 14h84v-114h-309v114h87v183l-52 -32l-63 107l140 92h113v-350z" />
    <glyph glyph-name="two.sinf" horiz-adv-x="402" 
d="M230 24h146v-124h-344v88l166 178q28 31 28 52q0 35 -40 35q-50 0 -131 -43l-44 103q95 63 187 63q85 0 126.5 -41.5t41.5 -110.5q0 -77 -73 -143z" />
    <glyph glyph-name="three.sinf" horiz-adv-x="388" 
d="M314 143q50 -32 50 -100v-6q0 -69 -48.5 -110t-138.5 -41q-103 0 -167 31l30 107q65 -21 121 -21q61 0 61 45v3q0 38 -58 38h-55v94h53q24 0 36 11t12 28q0 36 -55 36q-47 0 -99 -14l-30 99q62 33 160 33q166 0 166 -143q0 -52 -38 -90z" />
    <glyph glyph-name="four.sinf" horiz-adv-x="431" 
d="M376 83h39v-107h-40v-76h-137v76h-225v85l133 302h137l-117 -280h72v128h138v-128z" />
    <glyph glyph-name="five.sinf" horiz-adv-x="397" 
d="M227 205q150 0 150 -145v-19q0 -70 -50 -112.5t-140 -42.5q-98 0 -174 48l37 94q64 -33 129 -33q28 0 47 13t19 35v9q0 47 -61 47q-44 0 -80 -21l-75 56l33 227h288v-108h-176l-10 -60q29 12 63 12z" />
    <glyph glyph-name="six.sinf" horiz-adv-x="420" 
d="M239 202q64 0 111 -34.5t47 -109.5v-19q0 -75 -49.5 -114t-132.5 -39t-133.5 38t-50.5 112v183q0 73 51 115t136 42q102 0 176 -49l-44 -94q-58 37 -122 37q-69 0 -69 -62v-22q34 16 80 16zM215 -8q55 0 55 53q0 50 -50 50q-34 0 -61 -10v-44q0 -49 56 -49z" />
    <glyph glyph-name="seven.sinf" horiz-adv-x="373" 
d="M15 361h351v-66l-179 -395h-139l167 343h-200v118z" />
    <glyph glyph-name="eight.sinf" horiz-adv-x="432" 
d="M343 150q65 -32 65 -115v-10q0 -58 -49 -98.5t-143 -40.5q-96 0 -144 38.5t-48 99.5v10q0 38 19 68t49 46q-57 34 -57 97q0 60 45.5 95.5t135.5 35.5q88 0 133.5 -36t45.5 -95q0 -64 -52 -95zM216 278q-25 0 -40 -12t-15 -34q0 -46 55 -46h1q24 0 38 12.5t14 33.5
q0 22 -14.5 34t-38.5 12zM276 45v4q0 23 -14.5 39t-41.5 16h-8q-28 0 -42 -16t-14 -39v-4q0 -23 15 -38t45 -15t45 15t15 38z" />
    <glyph glyph-name="nine.sinf" horiz-adv-x="426" 
d="M208 376q84 0 135.5 -38.5t51.5 -112.5v-190q0 -71 -48 -110t-146 -39q-100 0 -176 48l48 91q63 -33 125 -33q67 0 67 48v31q-32 -16 -78 -16q-30 0 -57.5 7.5t-52.5 23.5t-39.5 45.5t-14.5 69.5v21q0 75 50 114.5t135 39.5zM206 163q35 0 59 12v41q0 54 -57 54t-57 -56
q0 -28 12.5 -39.5t42.5 -11.5z" />
    <glyph glyph-name="zero.tf" horiz-adv-x="570" 
d="M47 488q0 104 65.5 165t172.5 61q108 0 173.5 -61t65.5 -165v-276q0 -104 -65.5 -165t-173.5 -61q-107 0 -172.5 61t-65.5 165v276zM202 214q0 -45 22.5 -69.5t60.5 -24.5q39 0 61.5 24t22.5 70v272q0 45 -22.5 69.5t-61.5 24.5q-38 0 -60.5 -24.5t-22.5 -69.5v-272z" />
    <glyph glyph-name="one.tf" horiz-adv-x="570" 
d="M392 137h119v-137h-413v137h139v373l-114 -48l-61 142l198 96h132v-563z" />
    <glyph glyph-name="two.tf" horiz-adv-x="570" 
d="M292 133h228v-133h-475v90q152 144 227.5 239.5t75.5 160.5q0 43 -26.5 66t-73.5 23q-74 0 -153 -42l-55 115q99 62 232 62q115 0 174.5 -56t59.5 -156q0 -83 -47.5 -166t-166.5 -203z" />
    <glyph glyph-name="three.tf" horiz-adv-x="570" 
d="M419 375q43 -21 67.5 -63t24.5 -101v-13q0 -93 -63.5 -152.5t-176.5 -59.5q-135 0 -229 58l48 114q80 -38 156 -38q46 0 74.5 23.5t28.5 66.5q0 101 -107 101h-66v108h70q44 0 68 21t23 62q1 40 -23 60.5t-70 20.5q-78 0 -144 -34l-47 110q102 55 227 55q106 0 160 -54
t52 -131q0 -101 -73 -154z" />
    <glyph glyph-name="four.tf" horiz-adv-x="570" 
d="M485 255h59v-133h-59v-122h-154v122h-308v86l160 492h162l-145 -445h131v220h154v-220z" />
    <glyph glyph-name="five.tf" horiz-adv-x="570" 
d="M320 443q93 0 145 -53t52 -160v-33q0 -95 -66.5 -153t-181.5 -58q-133 0 -229 58l51 114q80 -38 153 -38q52 0 82.5 22.5t30.5 64.5v15q0 43 -22 67t-64 24q-58 0 -110 -35l-92 69l43 353h371v-132h-234l-17 -144q38 19 88 19z" />
    <glyph glyph-name="six.tf" horiz-adv-x="570" 
d="M321 432q41 0 77.5 -11t67.5 -33.5t49.5 -63.5t18.5 -95v-28q0 -104 -66 -159.5t-176 -55.5t-176.5 53.5t-66.5 156.5v292q0 103 68.5 164.5t183.5 61.5q127 0 225 -67l-56 -111q-77 46 -151 46q-61 0 -87.5 -27t-26.5 -79v-69q45 25 116 25zM292 118q88 0 88 94
q0 45 -19.5 66t-61.5 21q-56 0 -94 -23v-70q0 -88 87 -88z" />
    <glyph glyph-name="seven.tf" horiz-adv-x="570" 
d="M42 700h489v-85l-257 -615h-165l245 567h-312v133z" />
    <glyph glyph-name="eight.tf" horiz-adv-x="570" 
d="M460 373q34 -26 54.5 -69.5t20.5 -83.5v-15q0 -98 -63 -158.5t-186 -60.5q-126 0 -188.5 60t-62.5 159v15q0 39 22 84.5t53 67.5q-26 26 -43 67.5t-17 76.5q0 93 59 145.5t177 52.5q117 0 176 -52.5t59 -145.5q0 -36 -16 -76.5t-45 -66.5zM286 588q-39 0 -61.5 -22
t-22.5 -59q0 -36 21 -60.5t52 -24.5h16q32 0 54 24.5t23 60.5q0 37 -22.5 59t-59.5 22zM374 208v7q0 37 -24 65t-57 28h-15q-34 0 -58 -28t-24 -65v-7q0 -39 23 -64.5t67 -25.5q42 0 65 26t23 64z" />
    <glyph glyph-name="nine.tf" horiz-adv-x="570" 
d="M278 714q110 0 176.5 -53t66.5 -157v-297q0 -106 -63.5 -163.5t-191.5 -57.5q-129 0 -225 64l55 113q80 -45 152 -45q117 0 117 98v73q-45 -24 -113 -24q-42 0 -78.5 10.5t-68 33t-50 63t-18.5 95.5v30q0 104 65.5 160.5t175.5 56.5zM273 398q54 0 92 22v70q0 92 -87 92
q-85 0 -85 -96q0 -48 18.5 -68t61.5 -20z" />
    <glyph glyph-name="zero.dnom" horiz-adv-x="452" 
d="M28 281q0 91 53.5 143t147.5 52q92 0 143.5 -52t51.5 -143v-103q0 -89 -51.5 -140.5t-143.5 -51.5q-93 0 -147 51.5t-54 140.5v103zM292 258q0 51 -13 73t-50 22t-50 -22t-13 -73v-60q0 -46 13.5 -67t49.5 -21t49.5 21t13.5 67v60z" />
    <glyph glyph-name="one.dnom" horiz-adv-x="358" 
d="M262 114h84v-114h-309v114h87v183l-52 -32l-63 107l140 92h113v-350z" />
    <glyph glyph-name="two.dnom" horiz-adv-x="402" 
d="M230 124h146v-124h-344v88l166 178q28 31 28 52q0 35 -40 35q-50 0 -131 -43l-44 103q95 63 187 63q85 0 126.5 -41.5t41.5 -110.5q0 -77 -73 -143z" />
    <glyph glyph-name="three.dnom" horiz-adv-x="388" 
d="M314 243q50 -32 50 -100v-6q0 -69 -48.5 -110t-138.5 -41q-103 0 -167 31l30 107q65 -21 121 -21q61 0 61 45v3q0 38 -58 38h-55v94h53q24 0 36 11t12 28q0 36 -55 36q-47 0 -99 -14l-30 99q62 33 160 33q166 0 166 -143q0 -52 -38 -90z" />
    <glyph glyph-name="four.dnom" horiz-adv-x="431" 
d="M376 183h39v-107h-40v-76h-137v76h-225v85l133 302h137l-117 -280h72v128h138v-128z" />
    <glyph glyph-name="five.dnom" horiz-adv-x="397" 
d="M227 305q150 0 150 -145v-19q0 -70 -50 -112.5t-140 -42.5q-98 0 -174 48l37 94q65 -33 129 -33q28 0 47 13t19 35v9q0 47 -61 47q-44 0 -80 -21l-75 56l33 227h288v-108h-176l-10 -60q29 12 63 12z" />
    <glyph glyph-name="six.dnom" horiz-adv-x="420" 
d="M239 302q64 0 111 -34.5t47 -109.5v-19q0 -75 -49.5 -114t-132.5 -39t-133.5 38t-50.5 112v183q0 73 51 115t136 42q102 0 176 -49l-44 -94q-58 37 -122 37q-69 0 -69 -62v-22q34 16 80 16zM215 92q55 0 55 53q0 50 -50 50q-34 0 -61 -10v-44q0 -49 56 -49z" />
    <glyph glyph-name="seven.dnom" horiz-adv-x="373" 
d="M14 461h351v-66l-179 -395h-139l167 343h-200v118z" />
    <glyph glyph-name="eight.dnom" horiz-adv-x="432" 
d="M343 250q65 -32 65 -115v-10q0 -58 -49 -98.5t-143 -40.5q-96 0 -144 38.5t-48 99.5v10q0 38 19 68t49 46q-57 34 -57 97q0 60 45.5 95.5t135.5 35.5q88 0 133.5 -36t45.5 -95q0 -64 -52 -95zM216 378q-25 0 -40 -12t-15 -34q0 -46 55 -46h1q24 0 38 12.5t14 33.5
q0 22 -14.5 34t-38.5 12zM276 145v4q0 23 -14.5 39t-41.5 16h-8q-28 0 -42 -16t-14 -39v-4q0 -23 15 -38t45 -15t45 15t15 38z" />
    <glyph glyph-name="nine.dnom" horiz-adv-x="426" 
d="M208 476q84 0 135.5 -38.5t51.5 -112.5v-190q0 -71 -48 -110t-146 -39q-100 0 -176 48l48 91q63 -33 125 -33q67 0 67 48v31q-32 -16 -78 -16q-30 0 -57.5 7.5t-52.5 23.5t-39.5 45.5t-14.5 69.5v21q0 75 50 114.5t135 39.5zM206 263q35 0 59 12v41q0 54 -57 54t-57 -56
q0 -28 12.5 -39.5t42.5 -11.5z" />
    <glyph glyph-name="zero.numr" horiz-adv-x="452" 
d="M28 523q0 91 53.5 143t147.5 52q92 0 143.5 -52t51.5 -143v-103q0 -89 -51.5 -140.5t-143.5 -51.5q-93 0 -147 51.5t-54 140.5v103zM292 500q0 51 -13 73t-50 22t-50 -22t-13 -73v-60q0 -46 13.5 -67t49.5 -21t49.5 21t13.5 67v60z" />
    <glyph glyph-name="one.numr" horiz-adv-x="358" 
d="M263 356h84v-114h-309v114h87v183l-52 -32l-63 107l140 92h113v-350z" />
    <glyph glyph-name="two.numr" horiz-adv-x="402" 
d="M230 366h146v-124h-344v88l166 178q28 31 28 52q0 35 -40 35q-50 0 -131 -43l-44 103q95 63 187 63q85 0 126.5 -41.5t41.5 -110.5q0 -77 -73 -143z" />
    <glyph glyph-name="three.numr" horiz-adv-x="388" 
d="M314 485q50 -32 50 -100v-6q0 -69 -48.5 -110t-138.5 -41q-103 0 -167 31l30 107q65 -21 121 -21q61 0 61 45v3q0 38 -58 38h-55v94h53q24 0 36 11t12 28q0 36 -55 36q-47 0 -99 -14l-30 99q62 33 160 33q166 0 166 -143q0 -52 -38 -90z" />
    <glyph glyph-name="four.numr" horiz-adv-x="431" 
d="M376 425h39v-107h-40v-76h-137v76h-225v85l133 302h137l-117 -280h72v128h138v-128z" />
    <glyph glyph-name="five.numr" horiz-adv-x="397" 
d="M227 547q150 0 150 -145v-19q0 -70 -50 -112.5t-140 -42.5q-98 0 -174 48l37 94q64 -33 129 -33q28 0 47 13t19 35v9q0 47 -61 47q-44 0 -80 -21l-75 56l33 227h288v-108h-176l-10 -60q29 12 63 12z" />
    <glyph glyph-name="six.numr" horiz-adv-x="420" 
d="M239 544q64 0 111 -34.5t47 -109.5v-19q0 -75 -49.5 -114t-132.5 -39t-133.5 38t-50.5 112v183q0 73 51 115t136 42q102 0 176 -49l-44 -94q-58 37 -122 37q-69 0 -69 -62v-22q34 16 80 16zM215 334q55 0 55 53q0 50 -50 50q-34 0 -61 -10v-44q0 -49 56 -49z" />
    <glyph glyph-name="seven.numr" horiz-adv-x="373" 
d="M14 703h351v-66l-179 -395h-139l167 343h-200v118z" />
    <glyph glyph-name="eight.numr" horiz-adv-x="432" 
d="M343 492q65 -32 65 -115v-10q0 -58 -49 -98.5t-143 -40.5q-96 0 -144 38.5t-48 99.5v10q0 38 19 68t49 46q-57 34 -57 97q0 60 45.5 95.5t135.5 35.5q88 0 133.5 -36t45.5 -95q0 -64 -52 -95zM216 620q-25 0 -40 -12t-15 -34q0 -46 55 -46h1q24 0 38 12.5t14 33.5
q0 22 -14.5 34t-38.5 12zM276 387v4q0 23 -14.5 39t-41.5 16h-8q-28 0 -42 -16t-14 -39v-4q0 -23 15 -38t45 -15t45 15t15 38z" />
    <glyph glyph-name="nine.numr" horiz-adv-x="426" 
d="M208 718q84 0 135.5 -38.5t51.5 -112.5v-190q0 -71 -48 -110t-146 -39q-100 0 -176 48l48 91q63 -33 125 -33q67 0 67 48v31q-32 -16 -78 -16q-30 0 -57.5 7.5t-52.5 23.5t-39.5 45.5t-14.5 69.5v21q0 75 50 114.5t135 39.5zM206 505q35 0 59 12v41q0 54 -57 54t-57 -56
q0 -28 12.5 -39.5t42.5 -11.5z" />
    <glyph glyph-name="zero.sups" horiz-adv-x="452" 
d="M28 622q0 91 53.5 143t147.5 52q92 0 143.5 -52t51.5 -143v-103q0 -89 -51.5 -140.5t-143.5 -51.5q-93 0 -147 51.5t-54 140.5v103zM292 599q0 51 -13 73t-50 22t-50 -22t-13 -73v-60q0 -46 13.5 -67t49.5 -21t49.5 21t13.5 67v60z" />
    <glyph glyph-name="one.sups" horiz-adv-x="358" 
d="M262 456h84v-114h-309v114h87v183l-52 -32l-63 107l140 92h113v-350z" />
    <glyph glyph-name="two.sups" horiz-adv-x="402" 
d="M230 466h146v-124h-344v88l166 178q28 31 28 52q0 35 -40 35q-50 0 -131 -43l-44 103q95 63 187 63q85 0 126.5 -41.5t41.5 -110.5q0 -77 -73 -143z" />
    <glyph glyph-name="three.sups" horiz-adv-x="388" 
d="M314 585q50 -32 50 -100v-6q0 -69 -48.5 -110t-138.5 -41q-103 0 -167 31l30 107q65 -21 121 -21q61 0 61 45v3q0 38 -58 38h-55v94h53q24 0 36 11t12 28q0 36 -55 36q-47 0 -99 -14l-30 99q62 33 160 33q166 0 166 -143q0 -52 -38 -90z" />
    <glyph glyph-name="four.sups" horiz-adv-x="431" 
d="M376 525h39v-107h-40v-76h-137v76h-225v85l133 302h137l-117 -280h72v128h138v-128z" />
    <glyph glyph-name="five.sups" horiz-adv-x="397" 
d="M227 646q150 0 150 -145v-19q0 -70 -50 -112.5t-140 -42.5q-98 0 -174 48l37 94q64 -33 129 -33q28 0 47 13t19 35v9q0 47 -61 47q-44 0 -80 -21l-75 56l33 227h288v-108h-176l-10 -60q29 12 63 12z" />
    <glyph glyph-name="six.sups" horiz-adv-x="420" 
d="M239 643q64 0 111 -34.5t47 -109.5v-19q0 -75 -49.5 -114t-132.5 -39t-133.5 38t-50.5 112v183q0 73 51 115t136 42q102 0 176 -49l-44 -94q-58 37 -122 37q-69 0 -69 -62v-22q34 16 80 16zM215 433q55 0 55 53q0 50 -50 50q-34 0 -61 -10v-44q0 -49 56 -49z" />
    <glyph glyph-name="seven.sups" horiz-adv-x="373" 
d="M14 803h351v-66l-179 -395h-139l167 343h-200v118z" />
    <glyph glyph-name="eight.sups" horiz-adv-x="432" 
d="M343 591q65 -33 65 -115v-10q0 -58 -49 -98.5t-143 -40.5q-96 0 -144 38.5t-48 99.5v10q0 38 19 68t49 46q-57 34 -57 97q0 60 45.5 95.5t135.5 35.5q88 0 133.5 -36t45.5 -95q0 -64 -52 -95zM216 719q-25 0 -40 -12.5t-15 -33.5q0 -46 55 -46h1q24 0 38 12.5t14 33.5
q0 22 -14.5 34t-38.5 12zM276 486v4q0 23 -14.5 39t-41.5 16h-8q-28 0 -42 -16t-14 -39v-4q0 -23 15 -38t45 -15t45 15t15 38z" />
    <glyph glyph-name="nine.sups" horiz-adv-x="426" 
d="M208 817q84 0 135.5 -38.5t51.5 -112.5v-190q0 -71 -48 -110t-146 -39q-100 0 -176 48l48 91q63 -33 125 -33q67 0 67 48v31q-32 -16 -78 -16q-30 0 -57.5 7.5t-52.5 23.5t-39.5 45.5t-14.5 69.5v21q0 75 50 114.5t135 39.5zM206 604q35 0 59 12v41q0 54 -57 54t-57 -56
q0 -28 12.5 -39.5t42.5 -11.5z" />
    <glyph glyph-name="exclam.case" horiz-adv-x="275" 
d="M61 516v184h152v-184l-14 -315h-124zM228 67q0 -40 -25 -60.5t-66 -20.5q-40 0 -64.5 20.5t-24.5 60.5q0 41 24.5 62t64.5 21t65.5 -21t25.5 -62z" />
    <glyph glyph-name="exclamdown.case" horiz-adv-x="275" 
d="M228 633q0 -41 -25.5 -62t-65.5 -21t-64.5 21t-24.5 62q0 40 24.5 60.5t64.5 20.5q41 0 66 -20.5t25 -60.5zM61 184l14 315h124l14 -315v-184h-152v184z" />
    <glyph glyph-name="question.case" horiz-adv-x="474" 
d="M287 517q0 26 -20 42t-51 16q-71 0 -138 -39l-60 113q90 65 209 65q107 0 162.5 -49t55.5 -135v-14q0 -60 -24 -98.5t-73 -79.5q-65 -53 -65 -115v-25h-151v33q0 69 19 104.5t68 72.5q68 51 68 102v7zM297 67q0 -40 -25 -60.5t-66 -20.5q-40 0 -64.5 20.5t-24.5 60.5
q0 41 24.5 62t64.5 21t65.5 -21t25.5 -62z" />
    <glyph glyph-name="questiondown.case" horiz-adv-x="474" 
d="M177 632q0 40 25 60.5t66 20.5q40 0 64.5 -20.5t24.5 -60.5q0 -41 -24.5 -62t-64.5 -21t-65.5 21t-25.5 62zM187 182q0 -26 20 -42t51 -16q71 0 138 39l60 -113q-90 -65 -209 -65q-107 0 -162.5 49t-55.5 135v14q0 60 24 98.5t73 79.5q65 53 65 115v25h151v-33
q0 -69 -19 -104.5t-68 -72.5q-68 -51 -68 -102v-7z" />
    <glyph glyph-name="braceleft.case" horiz-adv-x="327" 
d="M90 211q0 32 -12 42t-32 10h-31v134h31q20 0 32 10t12 42v184q0 82 40.5 119.5t120.5 37.5h46v-127h-19q-47 0 -47 -41v-164q0 -88 -65 -128q31 -17 48 -53t17 -76v-163q0 -41 47 -41h19v-127h-46q-80 0 -120.5 38t-40.5 120v183z" />
    <glyph glyph-name="braceright.case" horiz-adv-x="326" 
d="M280 263q-20 0 -32 -10t-12 -42v-183q0 -82 -40.5 -120t-120.5 -38h-46v127h20q46 0 46 41v163q0 41 18 76.5t52 52.5q-70 39 -70 128v164q0 41 -46 41h-20v127h46q80 0 120.5 -37.5t40.5 -119.5v-184q0 -32 12 -42t32 -10h31v-134h-31z" />
    <glyph glyph-name="bracketleft.case" horiz-adv-x="313" 
d="M65 790h220v-128h-84v-644h84v-128h-220v900z" />
    <glyph glyph-name="bracketright.case" horiz-adv-x="313" 
d="M28 18h84v644h-84v128h220v-900h-220v128z" />
    <glyph glyph-name="parenleft.case" horiz-adv-x="314" 
d="M45 544q0 98 59.5 167.5t164.5 87.5l26 -127q-50 -7 -75.5 -45t-25.5 -95v-384q0 -57 25.5 -95t75.5 -45l-26 -126q-105 17 -164.5 86t-59.5 168v408z" />
    <glyph glyph-name="parenright.case" horiz-adv-x="314" 
d="M45 799q105 -18 164.5 -87.5t59.5 -167.5v-408q0 -99 -59.5 -168t-164.5 -86l-26 126q51 7 76 45t25 95v384q0 58 -25.5 96t-75.5 44z" />
    <glyph glyph-name="emdash.case" horiz-adv-x="878" 
d="M50 416h778v-132h-778v132z" />
    <glyph glyph-name="endash.case" horiz-adv-x="588" 
d="M50 416h488v-132h-488v132z" />
    <glyph glyph-name="hyphen.case" horiz-adv-x="419" 
d="M50 416h319v-132h-319v132z" />
    <glyph glyph-name="guillemotleft.case" horiz-adv-x="509" 
d="M267 216l-86 -89l-149 152v100l149 153l86 -89l-115 -114zM477 216l-86 -89l-149 152v100l149 153l86 -89l-115 -114z" />
    <glyph glyph-name="guillemotright.case" horiz-adv-x="509" 
d="M32 216l115 113l-115 114l86 89l149 -153v-100l-149 -152zM242 216l115 113l-115 114l86 89l149 -153v-100l-149 -152z" />
    <glyph glyph-name="guilsinglleft.case" horiz-adv-x="299" 
d="M267 216l-86 -89l-149 152v100l149 153l86 -89l-115 -114z" />
    <glyph glyph-name="guilsinglright.case" horiz-adv-x="299" 
d="M32 216l115 113l-115 114l86 89l149 -153v-100l-149 -152z" />
    <glyph glyph-name="cent.osf" horiz-adv-x="480" 
d="M405 184l51 -101q-57 -43 -123 -59v-101h-130v94q-81 13 -124.5 69t-43.5 146v62q0 90 43.5 146t124.5 69v94h130v-101q66 -16 123 -59l-51 -101q-73 42 -142 42q-77 0 -77 -94v-54q0 -94 77 -94q69 0 142 42z" />
    <glyph glyph-name="currency.osf" horiz-adv-x="581" 
d="M503 238q0 -41 -17 -85l68 -68l-95 -102l-68 70q-46 -17 -100 -17t-100 17l-67 -71l-96 103l67 68q-17 40 -17 85v40q0 43 17 82l-67 70l96 102l67 -70q46 17 100 17q60 0 100 -17l68 70l95 -102l-68 -69q17 -37 17 -83v-40zM372 246v23q0 40 -23 61t-58 21t-59 -21
t-24 -61v-23q0 -40 24 -60.5t59 -20.5t58 20.5t23 60.5z" />
    <glyph glyph-name="dollar.osf" horiz-adv-x="468" 
d="M440 159q0 -68 -41 -111t-114 -54v-94h-97v92q-89 9 -165 58l50 104q82 -45 147 -45q69 0 69 43q0 8 -2.5 14t-8 10t-11.5 7t-17.5 6t-20.5 4.5t-24.5 4.5t-27.5 6q-138 30 -138 157q0 68 38.5 112t110.5 54v101h97v-101q80 -11 148 -53l-52 -100q-74 37 -136 37
q-53 0 -53 -36q0 -21 16 -29t58 -17l15 -3q33 -7 56 -15.5t49 -26t40 -49.5t14 -76z" />
    <glyph glyph-name="Euro.osf" horiz-adv-x="489" 
d="M342 123q48 0 85 14l46 -127q-60 -24 -137 -24q-108 0 -176.5 59.5t-74.5 152.5h-89l48 117h41q6 93 74.5 152.5t176.5 59.5q77 0 137 -24l-46 -127q-37 14 -85 14q-85 0 -103 -75h172l-43 -117h-129q18 -75 103 -75z" />
    <glyph glyph-name="sterling.osf" horiz-adv-x="498" 
d="M253 201q-6 -45 -41 -78h249v-123h-422v105q52 37 63 96h-70v115h72v34q0 190 205 190q88 0 162 -44l-48 -107q-41 24 -97 24q-38 0 -54 -18t-16 -62v-17h121v-115h-124z" />
    <glyph glyph-name="yen.osf" horiz-adv-x="549" 
d="M526 529l-129 -265h88v-89h-130v-43h130v-89h-130v-43h-156v43h-131v89h131v43h-131v89h87l-135 266h168l91 -204l88 203h159z" />
    <glyph glyph-name="at.case" horiz-adv-x="742" 
d="M67 470q16 117 117.5 181.5t239.5 64.5q132 0 219.5 -69t72.5 -178l-25 -190q-9 -59 -50 -95t-107 -36q-62 0 -93 33q-41 -33 -112 -33q-142 0 -123 140l17 121q10 69 49.5 105t102.5 36h189l-35 -282q-2 -18 0.5 -22.5t12.5 -4.5q12 0 22 11.5t13 30.5l25 187
q9 73 -41.5 108t-143.5 35q-89 0 -156.5 -37t-77.5 -106l-33 -235q-10 -69 38.5 -107.5t151.5 -38.5q74 0 143 21l26 -95q-81 -31 -184 -31q-151 0 -228 66.5t-61 182.5zM327 299q-5 -32 2.5 -46.5t30.5 -14.5q37 0 54 20l27 198h-53q-40 0 -48 -61z" />
    <glyph glyph-name="ampersand.ss01" horiz-adv-x="702" 
d="M677 11q-45 -21 -109 -21q-89 0 -130 37q-65 -41 -159 -41q-115 0 -180 60.5t-65 156.5v13q0 42 22.5 88.5t59.5 69.5q-64 48 -64 137q0 90 54.5 146.5t162.5 56.5q84 0 157 -34l-44 -111q-46 14 -100 14q-73 0 -75 -78q-2 -84 84 -84h110l24 99h120v-99h126v-112h-126
v-119q0 -40 12.5 -56.5t44.5 -16.5q33 0 53 13zM196 210q0 -41 28 -65.5t70 -24.5q55 0 100 25q-1 11 -1 34v130h-95q-102 0 -102 -99z" />
    <glyph glyph-name="caroncomb.alt" horiz-adv-x="0" 
d="M-221 534q29 42 27 60q-56 15 -56 77q0 41 24.5 62t64.5 21t65.5 -21t25.5 -62q0 -110 -103 -179z" />
    <glyph glyph-name="uni0308.case" horiz-adv-x="0" 
d="M-370 761q-35 0 -53 21.5t-18 54.5t18 55.5t53 22.5q37 0 56 -22.5t19 -55.5t-19 -54.5t-56 -21.5zM-123 761q-35 0 -53 21.5t-18 54.5t18 55.5t53 22.5q37 0 56 -22.5t19 -55.5t-19 -54.5t-56 -21.5z" />
    <glyph glyph-name="uni0307.case" horiz-adv-x="0" 
d="M-39 828q0 -40 -23 -60.5t-63 -20.5t-62.5 20.5t-22.5 60.5q0 84 85 84q40 0 63 -21t23 -63z" />
    <glyph glyph-name="gravecomb.case" horiz-adv-x="0" 
d="M-209 956l193 -132l-43 -83l-218 80z" />
    <glyph glyph-name="acutecomb.case" horiz-adv-x="0" 
d="M-124 956l67 -135l-218 -81l-42 84z" />
    <glyph glyph-name="uni030B.case" horiz-adv-x="0" 
d="M-330 957l98 -107l-159 -118l-70 76zM-94 957l98 -107l-159 -118l-70 76z" />
    <glyph glyph-name="uni0302.case" horiz-adv-x="0" 
d="M-280 918h156l103 -112l-96 -60l-85 91l-85 -91l-96 60z" />
    <glyph glyph-name="uni030C.case" horiz-adv-x="0" 
d="M-280 744l-103 112l96 60l85 -91l85 91l96 -60l-103 -112h-156z" />
    <glyph glyph-name="uni0306.case" horiz-adv-x="0" 
d="M-333 900h113q0 -62 47 -62t47 62h113v-32q0 -61 -43 -95t-117 -34t-117 34t-43 95v32z" />
    <glyph glyph-name="uni030A.case" horiz-adv-x="0" 
d="M-231 849q0 45 30.5 73t76.5 28t76.5 -28t30.5 -73v-10q0 -47 -30.5 -74t-76.5 -27t-76.5 27t-30.5 74v10zM-124 808q33 0 33 35q0 36 -33 36t-33 -36q0 -35 33 -35z" />
    <glyph glyph-name="tildecomb.case" horiz-adv-x="0" 
d="M-449 769q5 61 39 98.5t91 37.5q31 0 74.5 -23t58.5 -23q16 0 27 10.5t11 31.5l101 -22q-10 -136 -130 -136q-33 0 -75 22.5t-58 22.5q-17 0 -28.5 -10.5t-11.5 -31.5z" />
    <glyph glyph-name="uni0304.case" horiz-adv-x="0" 
d="M-368 874h330v-122h-330v122z" />
    <glyph glyph-name="uni0337.case" horiz-adv-x="0" 
d="M-54 504l53 -129l-325 -139l-51 119z" />
    <glyph glyph-name="uni0338.case" horiz-adv-x="0" 
d="M-120 732l96 -55l-462 -728l-93 59z" />
    <glyph glyph-name="caron.alt" 
d="M100 534q29 42 27 60q-56 15 -56 77q0 41 24.5 62t64.5 21t65.5 -21t25.5 -62q0 -110 -103 -179z" />
    <glyph glyph-name="acute.case" 
d="M244 956l67 -135l-218 -81l-42 84z" />
    <glyph glyph-name="breve.case" 
d="M14 900h113q0 -62 47 -62t47 62h113v-32q0 -61 -43 -95t-117 -34t-117 34t-43 95v32z" />
    <glyph glyph-name="caron.case" 
d="M124 744l-103 112l96 60l85 -91l85 91l96 -60l-103 -112h-156z" />
    <glyph glyph-name="circumflex.case" 
d="M124 918h156l103 -112l-96 -60l-85 91l-85 -91l-96 60z" />
    <glyph glyph-name="dieresis.case" 
d="M121 761q-35 0 -53 21.5t-18 54.5t18 55.5t53 22.5q37 0 56 -22.5t19 -55.5t-19 -54.5t-56 -21.5zM368 761q-35 0 -53 21.5t-18 54.5t18 55.5t53 22.5q37 0 56 -22.5t19 -55.5t-19 -54.5t-56 -21.5z" />
    <glyph glyph-name="dotaccent.case" 
d="M207 828q0 -40 -23 -60.5t-63 -20.5t-62.5 20.5t-22.5 60.5q0 84 85 84q40 0 63 -21t23 -63z" />
    <glyph glyph-name="grave.case" 
d="M119 956l193 -132l-43 -83l-218 80z" />
    <glyph glyph-name="hungarumlaut.case" 
d="M159 957l98 -107l-159 -118l-70 76zM395 957l98 -107l-159 -118l-70 76z" />
    <glyph glyph-name="macron.case" 
d="M38 874h330v-122h-330v122z" />
    <glyph glyph-name="ring.case" 
d="M17 849q0 45 30.5 73t76.5 28t76.5 -28t30.5 -73v-10q0 -47 -30.5 -74t-76.5 -27t-76.5 27t-30.5 74v10zM124 808q33 0 33 35q0 36 -33 36t-33 -36q0 -35 33 -35z" />
    <glyph glyph-name="tilde.case" 
d="M47 769q5 61 39 98.5t91 37.5q31 0 74.5 -23t58.5 -23q16 0 27 10.5t11 31.5l101 -22q-10 -136 -130 -136q-33 0 -75 22.5t-58 22.5q-17 0 -28.5 -10.5t-11.5 -31.5z" />
    <glyph glyph-name="IJacute" horiz-adv-x="586" 
d="M237 956l67 -135l-218 -81l-42 84zM533 956l67 -135l-218 -81l-42 84zM64 700h158v-700h-158v700zM308 -60q55 59 55 137v623h159v-624q0 -83 -32.5 -141.5t-82.5 -84.5z" />
    <glyph glyph-name="ijacute" horiz-adv-x="521" 
d="M149 793l108 -99l-157 -134l-74 71zM426 793l108 -99l-157 -134l-74 71zM203 520v-520h-152v520h152zM470 520v-478q0 -95 -61.5 -146.5t-178.5 -55.5l-19 119q57 2 82 22.5t25 69.5v469h152z" />
    </font>
</defs>
</svg>
