<?xml version="1.0" standalone="no"?>
<!DOCTYPE svg PUBLIC "-//W3C//DTD SVG 1.1//EN" "http://www.w3.org/Graphics/SVG/1.1/DTD/svg11.dtd" >
<svg xmlns="http://www.w3.org/2000/svg" xmlns:xlink="http://www.w3.org/1999/xlink" version="1.1">
<metadata>
Created by FontForge 20161116 at Thu May  9 12:13:19 1996
 By Jimmy Wärting
(c) 1998 The Happy One
</metadata>
<defs>
<font id="MovementBold" horiz-adv-x="561" >
  <font-face 
    font-family="N.O.- Movement"
    font-weight="700"
    font-stretch="normal"
    units-per-em="1000"
    panose-1="0 0 7 0 0 0 0 0 0 0"
    ascent="800"
    descent="-200"
    x-height="460"
    cap-height="739"
    bbox="-75 -263 1100 1000"
    underline-thickness="10"
    underline-position="-70"
    unicode-range="U+0020-2122"
  />
<missing-glyph horiz-adv-x="500" 
d="M63 0v1000h375v-1000h-375zM124 312l251 -249l-3 629l-247 246z" />
    <glyph glyph-name=".notdef" horiz-adv-x="500" 
d="M63 0v1000h375v-1000h-375zM124 312l251 -249l-3 629l-247 246z" />
    <glyph glyph-name="glyph1" horiz-adv-x="0" 
 />
    <glyph glyph-name="glyph2" horiz-adv-x="280" 
 />
    <glyph glyph-name="space" unicode=" " horiz-adv-x="280" 
 />
    <glyph glyph-name="exclam" unicode="!" horiz-adv-x="311" 
d="M220 188h-128v551h129zM228 124v-144h-144v144h144z" />
    <glyph glyph-name="quotedbl" unicode="&#x22;" horiz-adv-x="426" 
d="M360 739l-19 -321h-98l-18 321h135zM203 739l-19 -321h-99l-19 321h137z" />
    <glyph glyph-name="numbersign" unicode="#" 
d="M557 412h-106l-20 -104h93v-112h-115l-38 -196h-115l36 196h-78l-40 -196h-113l36 196h-93v112h116l19 104h-98v112h119l34 181h117l-36 -181h80l33 181h117l-34 -181h86v-112zM334 412h-78l-19 -104h78z" />
    <glyph glyph-name="dollar" unicode="$" 
d="M532 219q0 -79 -55 -150q-57 -74 -133 -85v-93h-89v90q-89 11 -156 76q-70 68 -70 156l125 25q11 -59 28 -86q23 -36 73 -47v249q-86 39 -121 73q-53 50 -53 128q0 74 50.5 132t123.5 69v88h89v-88q102 -11 173 -133l-109 -60q-26 36 -28 38q-14 17 -36 30v-182
q188 -76 188 -230zM255 489v144q-52 -18 -52 -75q0 -37 52 -69zM405 213q0 57 -61 96v-193q26 12 43.5 40t17.5 57z" />
    <glyph glyph-name="percent" unicode="%" horiz-adv-x="686" 
d="M378 575q0 -75 -57 -126.5t-133 -51.5t-133 51t-57 126q0 76 58 126q56 47 132 47q75 0 132.5 -49t57.5 -123zM607 713l-449 -729l-76 45l448 725zM690 168q0 -75 -57 -126t-133 -51q-74 0 -132 52t-58 125t58 126q56 50 131 50q77 0 134 -49.5t57 -126.5zM280 574
q0 36 -27.5 59.5t-64.5 23.5t-65.5 -23t-28.5 -60t28.5 -60t65.5 -23q36 0 64 24t28 59zM594 168q0 38 -28 61t-66 23t-65 -23.5t-27 -60.5q0 -36 27.5 -59.5t64.5 -23.5q36 0 65 23.5t29 59.5z" />
    <glyph glyph-name="ampersand" unicode="&#x26;" horiz-adv-x="670" 
d="M729 -1h-164l-69 85q-58 -50 -101 -72q-56 -28 -119 -28q-91 0 -165 58q-79 63 -79 151q0 83 47 141q30 37 116 97q-69 74 -69 150q0 82 53 129q51 44 134 44q77 0 130 -43q58 -46 58 -121q0 -94 -124 -177l126 -147l45 10h125l-90 -101zM376 592q0 56 -64 56
q-24 0 -43.5 -14.5t-19.5 -38.5q0 -36 52 -95q75 54 75 92zM414 176q-46 55 -141 164q-68 -48 -76 -55q-40 -37 -40 -80q0 -42 39 -74q36 -30 79 -30q57 0 139 75z" />
    <glyph glyph-name="quotesingle" unicode="'" horiz-adv-x="269" 
d="M239 718l-147 -254l-93 31l125 260z" />
    <glyph glyph-name="parenleft" unicode="(" horiz-adv-x="284" 
d="M253 719q-89 -167 -89 -416q0 -232 88 -420l-102 -72q-116 212 -116 490q0 269 116 492z" />
    <glyph glyph-name="parenright" unicode=")" horiz-adv-x="284" 
d="M247 299q0 -268 -112 -488l-105 72q87 171 87 418q0 239 -86 421l102 73q114 -224 114 -496z" />
    <glyph glyph-name="asterisk" unicode="*" horiz-adv-x="419" 
d="M386 551l-55 -82l-65 35v-69h-107v72l-70 -36l-55 79l71 36l-69 37l50 80l73 -36v72h107v-68l65 34l54 -81l-71 -38z" />
    <glyph glyph-name="plus" unicode="+" 
d="M549 193h-207v-193h-123v193h-207v115h207v194h123v-194h207v-115z" />
    <glyph glyph-name="comma" unicode="," horiz-adv-x="280" 
d="M264 120l-136 -260l-99 -3l119 260z" />
    <glyph glyph-name="hyphen" unicode="-" horiz-adv-x="322" 
d="M287 277h-252v73h252v-73z" />
    <glyph glyph-name="hyphen" unicode="&#x2010;" horiz-adv-x="322" 
d="M287 277h-252v73h252v-73z" />
    <glyph glyph-name="period" unicode="." horiz-adv-x="280" 
d="M204 100v-116h-140v114z" />
    <glyph glyph-name="slash" unicode="/" horiz-adv-x="535" 
d="M530 804l-402 -880l-123 -2l399 882h126z" />
    <glyph glyph-name="zero" unicode="0" horiz-adv-x="545" 
d="M513 540v-344q0 -88 -68 -154t-168 -58q-100 -4 -166 60t-78 160v340q8 100 84 154t160 57q92 0 158 -49.5t78 -165.5zM393 200l-1 344q-37 99 -114 99q-76 0 -118 -103v-336q41 -103 117 -103q78 0 116 99z" />
    <glyph glyph-name="one" unicode="1" horiz-adv-x="345" 
d="M305 0h-142l-2 536l-80 -64l-40 88l264 184v-744z" />
    <glyph glyph-name="two" unicode="2" horiz-adv-x="577" 
d="M557 0h-537l358 421q50 59 50 103t-36.5 78t-80.5 34q-57 0 -92.5 -34.5t-35.5 -91.5h-131q24 244 250 244q30 0 51 -3q82 -12 142 -78.5t60 -148.5q0 -88 -56 -154l-214 -252h272v-118z" />
    <glyph glyph-name="three" unicode="3" horiz-adv-x="569" 
d="M534 225q0 -55 -11 -85q-28 -76 -96 -117q-63 -39 -147 -39q-102 0 -171 62q-73 64 -73 164h129q0 -52 36 -82t89 -30q49 0 82.5 34.5t33.5 83.5q0 35 -12 58q-22 42 -59 54q-21 6 -83 6v111q145 0 145 90q0 47 -31 76.5t-79 29.5q-89 0 -101 -102h-133q37 216 241 216
q93 0 160 -55q70 -59 70 -151q0 -102 -76 -160q86 -54 86 -164z" />
    <glyph glyph-name="four" unicode="4" horiz-adv-x="625" 
d="M607 96h-84v-96h-127v96h-378l505 675v-567h84v-108zM396 204v201l-151 -201h151z" />
    <glyph glyph-name="five" unicode="5" horiz-adv-x="617" 
d="M584 261q0 -116 -75.5 -194.5t-191.5 -83.5q-24 -1 -34 -1q-73 0 -138 42q-61 39 -82.5 75.5t-29.5 84.5l131 -3q17 -32 56 -55t76 -23q67 0 114 43.5t47 109.5q0 59 -45.5 103t-104.5 44q-80 0 -131 -62l-67 39l137 359h328v-117l-237 2l-32 -108h-13q14 2 44 2
q100 0 174 -78.5t74 -178.5z" />
    <glyph glyph-name="six" unicode="6" horiz-adv-x="577" 
d="M551 230q0 -99 -77.5 -172.5t-176.5 -73.5q-67 0 -131.5 33t-102.5 87q-10 19 -34 51l-3 -18v95q0 86 83 191l261 331l99 -62l-174 -223q8 1 23 1q98 0 165.5 -71t67.5 -169zM424 229q0 51 -44.5 88t-97.5 37q-45 0 -88 -38t-43 -83q0 -49 40.5 -92.5t89.5 -43.5
q-1 0 16 3q127 22 127 129z" />
    <glyph glyph-name="seven" unicode="7" horiz-adv-x="649" 
d="M619 739l-485 -755l-104 64l371 575h-364v116h582z" />
    <glyph glyph-name="eight" unicode="8" 
d="M529 213q0 -104 -73.5 -166.5t-179.5 -62.5q-102 0 -173 65t-71 167q0 115 95 170q-77 62 -77 168q0 90 71 147q66 54 157 54q99 0 166 -59t67 -157q0 -99 -75 -153q45 -22 70 -73q23 -46 23 -100zM385 540q0 43 -31 72t-74 29q-41 0 -73 -28.5t-32 -69.5
q0 -37 34.5 -70.5t71.5 -33.5q33 0 68.5 34t35.5 67zM403 212q0 49 -36.5 82t-86.5 33q-53 0 -87 -29t-34 -82q0 -47 37.5 -81t85.5 -34q43 0 82 34t39 77z" />
    <glyph glyph-name="nine" unicode="9" horiz-adv-x="577" 
d="M551 520q0 -63 -38 -130q-19 -32 -80 -111l-225 -291h-152l227 291q-14 -2 -22 -2q-96 0 -165.5 72t-69.5 168q0 100 78 172q75 70 176 70q104 0 185 -67q86 -71 86 -172zM423 517q0 55 -40 91t-95 36q-52 0 -93.5 -38t-41.5 -89q0 -53 41 -89.5t94 -36.5q54 0 94.5 36.5
t40.5 89.5z" />
    <glyph glyph-name="colon" unicode=":" horiz-adv-x="280" 
d="M216 472v-140h-156v140h156zM216 128v-144h-156v144h156z" />
    <glyph glyph-name="semicolon" unicode=";" horiz-adv-x="280" 
d="M260 472v-140h-152v140h152zM260 148l-144 -288l-95 -1l87 289h152z" />
    <glyph glyph-name="less" unicode="&#x3c;" 
d="M549 14l-537 194v86l537 194v-121l-338 -116l338 -117v-120z" />
    <glyph glyph-name="equal" unicode="=" 
d="M549 286h-537v107h537v-107zM549 109h-537v106h537v-106z" />
    <glyph glyph-name="greater" unicode="&#x3e;" 
d="M549 210l-537 -194v118l338 117l-338 116v121l537 -194v-84z" />
    <glyph glyph-name="question" unicode="?" horiz-adv-x="439" 
d="M418 588l-2 -196q-24 -140 -112 -200h-168q116 76 150 200l1 172q3 92 -72 92q-52 -4 -63 -61q0 3 -2 -47l-128 -128l1 177q0 74 61 125q58 48 133 48q81 6 141 -44t60 -138zM296 124v-140h-152v140h152z" />
    <glyph glyph-name="at" unicode="@" horiz-adv-x="777" 
d="M613 531l-51 -244q-6 -29 -5 -38l5 -2q4 0 13 7q32 24 51.5 64.5t19.5 82.5q0 73 -33 130zM763 417q0 -96 -61 -181q-66 -93 -158 -93q-52 0 -74 43q-54 -43 -123 -43q-73 0 -128 58.5t-55 132.5q0 94 61.5 167.5t154.5 73.5q74 0 123 -45l9 37h74q-68 76 -184 76
q-110 0 -189 -77t-79 -186q0 -128 82.5 -206t211.5 -78q115 0 172 52l108 -82q-87 -49 -145 -65q-62 -17 -158 -17q-61 0 -130 24q-122 42 -191.5 141.5t-69.5 229.5q3 4 3 16q0 52 14 95q39 119 143 192t231 73q145 0 251.5 -97t106.5 -241zM470 394q0 32 -21 51.5
t-54 19.5q-47 0 -80 -35.5t-33 -82.5q0 -32 18 -61q21 -34 51 -34q119 0 119 142z" />
    <glyph glyph-name="A" unicode="A" horiz-adv-x="754" 
d="M757 0h-141l-49 96h-384l-44 -96h-143l380 771zM511 212l-135 283l-145 -283h280z" />
    <glyph glyph-name="B" unicode="B" horiz-adv-x="535" 
d="M500 206q0 -105 -89 -162q-75 -48 -187 -48h-189v739l186 1q104 0 180 -36q96 -68 84 -160q-12 -76 -36 -106t-80 -58q60 -20 95.5 -65t35.5 -105zM353 532q0 48 -34 70t-106 22l-47 -1v-194l51 3q124 -4 136 100zM369 212q0 59 -50 87q-40 23 -104 23h-49v-205h54
q61 3 97 23q48 20 52 72z" />
    <glyph glyph-name="C" unicode="C" horiz-adv-x="664" 
d="M639 42q-107 -59 -211 -59q-165 0 -284.5 116t-119.5 280q0 157 126 268q121 107 280 107q64 0 108 -11q40 -10 101 -40l-75 -87q-36 22 -141 22t-186.5 -77.5t-81.5 -182.5q0 -113 78 -194t190 -81q96 0 141 41z" />
    <glyph glyph-name="D" unicode="D" horiz-adv-x="676" 
d="M639 379q0 -181 -122 -284q-115 -95 -300 -95h-181v739h172q180 0 299 -88q132 -98 132 -272zM507 371q0 250 -340 250v-503h36q132 0 213 59q91 66 91 194z" />
    <glyph glyph-name="E" unicode="E" horiz-adv-x="425" 
d="M392 0h-353v739l353 1l3 -132h-224v-152h208v-128h-208v-192h224z" />
    <glyph glyph-name="F" unicode="F" horiz-adv-x="429" 
d="M392 624l-221 -3v-158l211 1l-2 -116l-209 -3v-345h-133v739l354 1v-116z" />
    <glyph glyph-name="G" unicode="G" horiz-adv-x="828" 
d="M793 342q0 -112 -59.5 -201t-164.5 -130q-72 -28 -133 -28q-78 0 -118 13q-123 40 -202.5 145t-79.5 234q0 152 119 265.5t271 113.5q112 0 189 -37l37 -17l-87 -95q-56 31 -134 31q-103 0 -184 -76t-81 -178l2 -3q0 -106 72 -189q75 -87 180 -87q81 0 147 45
q71 49 85 125h-189v120h330v-51z" />
    <glyph glyph-name="H" unicode="H" horiz-adv-x="648" 
d="M610 0h-131v337h-309v-337h-131v739h131v-282h309v282h131v-739z" />
    <glyph glyph-name="I" unicode="I" horiz-adv-x="225" 
d="M177 0h-131v739h131v-739z" />
    <glyph glyph-name="J" unicode="J" horiz-adv-x="391" 
d="M354 266q0 -282 -224 -282h-90v120q75 -1 101 -1q82 0 82 163l-3 358h-188l4 116l318 -1v-473z" />
    <glyph glyph-name="K" unicode="K" horiz-adv-x="670" 
d="M629 0h-175l-269 318l-14 -14v-304h-131v739h131v-276l283 276h175l-350 -334z" />
    <glyph glyph-name="L" unicode="L" horiz-adv-x="446" 
d="M400 0h-353v739h131v-621h222v-118z" />
    <glyph glyph-name="M" unicode="M" horiz-adv-x="827" 
d="M779 -4h-132l-3 400l-228 -240l-228 240v-400h-140v772l364 -412l367 408v-768z" />
    <glyph glyph-name="N" unicode="N" horiz-adv-x="658" 
d="M615 -12l-428 428v-424h-144v772l424 -424v408h148v-760z" />
    <glyph glyph-name="O" unicode="O" horiz-adv-x="859" 
d="M832 370q0 -162 -120 -274.5t-283 -112.5q-164 0 -283 111.5t-119 275.5q0 162 121 275q118 109 281 109t282 -109q121 -113 121 -275zM701 370q0 112 -79.5 189t-192.5 77t-192.5 -76.5t-79.5 -189.5q0 -111 80.5 -188t191.5 -77t191.5 77.5t80.5 187.5z" />
    <glyph glyph-name="P" unicode="P" horiz-adv-x="519" 
d="M480 496q6 -104 -24 -152t-114 -92q-80 -24 -168 -24l1 -228h-133l2 739h135q91 9 163 -15q88 -40 114 -90t24 -138zM362 480q-8 128 -144 144h-44v-268h48q140 12 140 124z" />
    <glyph glyph-name="Q" unicode="Q" horiz-adv-x="907" 
d="M870 -17h-167l-58 58q-99 -60 -203 -60q-163 0 -282 108q-123 111 -123 273q0 164 116 278t280 114q162 0 284 -110q125 -113 125 -274q0 -154 -107 -259zM711 385q0 110 -87 183q-82 68 -194 68t-187.5 -80.5t-75.5 -193.5q0 -103 81 -181t184 -78q58 0 119 27l-184 170
h173l106 -101q65 78 65 186z" />
    <glyph glyph-name="R" unicode="R" horiz-adv-x="599" 
d="M353 512q-32 104 -180 100v-316l1 -296h-131v739h151q137 0 211 -59q88 -76 92 -216q-4 -104 -68 -168l-48 -48l176 -248h-158l-206 296q120 16 156 108q24 56 4 108z" />
    <glyph glyph-name="S" unicode="S" horiz-adv-x="569" 
d="M542 221q0 -97 -76.5 -167.5t-174.5 -70.5q-105 0 -176 61q-48 44 -88 84l84 84q76 -92 185 -107q51 0 83 34.5t32 85.5q0 61 -87 102q-81 38 -162 75q-87 57 -87 158q0 89 76 145q69 50 160 50q136 0 204 -79l-76 -88q-63 48 -132 48q-37 0 -67 -20q-34 -22 -34 -58
q0 -44 53 -72q6 -3 89 -33q53 -19 99 -52q56 -40 74 -82q7 -15 15 -50q6 -25 6 -48z" />
    <glyph glyph-name="T" unicode="T" horiz-adv-x="505" 
d="M464 624l-149 -3v-621h-130v621l-153 3l4 116h428v-116z" />
    <glyph glyph-name="U" unicode="U" horiz-adv-x="658" 
d="M617 275q0 -127 -81 -209.5t-208 -82.5q-124 0 -205.5 81.5t-81.5 205.5v469h131v-448q0 -83 36 -132q40 -54 120 -54q158 0 158 193v441h131v-464z" />
    <glyph glyph-name="V" unicode="V" horiz-adv-x="694" 
d="M696 739l-346 -777l-351 777h146l204 -466l204 466h143z" />
    <glyph glyph-name="W" unicode="W" horiz-adv-x="1005" 
d="M1001 740l-289 -769l-208 473l-206 -475l-293 771h144l152 -408l203 423l197 -423l160 408h140z" />
    <glyph glyph-name="X" unicode="X" horiz-adv-x="653" 
d="M639 0h-149l-160 270l-169 -270h-148l242 387l-213 352h150l139 -236l147 236h152l-225 -353z" />
    <glyph glyph-name="Y" unicode="Y" horiz-adv-x="699" 
d="M668 739l-253 -419v-320h-131v320l-253 419h150l168 -281l170 281h149z" />
    <glyph glyph-name="Z" unicode="Z" horiz-adv-x="673" 
d="M630 739l-372 -621h358v-118h-573l369 621l-356 3v116z" />
    <glyph glyph-name="bracketleft" unicode="[" horiz-adv-x="302" 
d="M265 -189h-226v984h226v-120h-97v-747h97v-117z" />
    <glyph glyph-name="backslash" unicode="\" horiz-adv-x="535" 
d="M535 0h-124l-412 852h125z" />
    <glyph glyph-name="bracketright" unicode="]" horiz-adv-x="302" 
d="M265 -189h-226v117h94v749h-94v118h226v-984z" />
    <glyph glyph-name="asciicircum" unicode="^" 
d="M559 303h-134l-145 300l-144 -300h-134l210 436h137z" />
    <glyph glyph-name="underscore" unicode="_" horiz-adv-x="485" 
d="M505 -184h-525v73h525v-73z" />
    <glyph glyph-name="grave" unicode="`" horiz-adv-x="348" 
d="M320 532l-89 -2l-215 190l143 -1z" />
    <glyph glyph-name="a" unicode="a" horiz-adv-x="581" 
d="M542 -1h-127v37q-56 -52 -137 -52q-104 0 -171.5 71t-67.5 176q0 103 68 172t171 69q125 4 181 -60l83 49v-462zM418 233q0 57 -34.5 94t-90.5 37q-55 0 -90.5 -39t-35.5 -94q0 -53 33 -94q35 -44 87 -44q60 0 95.5 39.5t35.5 100.5z" />
    <glyph glyph-name="b" unicode="b" horiz-adv-x="581" 
d="M542 245q0 -106 -61 -181q-65 -80 -169 -80q-141 -8 -197 68l-74 -53l-1 745h128v-308q58 53 136 53q103 0 170.5 -70t67.5 -174zM415 241q0 58 -35.5 97t-93.5 39q-55 0 -88.5 -41t-33.5 -97q0 -60 33 -99q34 -42 92 -42q61 0 95 42q31 39 31 101z" />
    <glyph glyph-name="c" unicode="c" horiz-adv-x="500" 
d="M452 18q-72 -32 -143 -32q-107 0 -184 65q-83 69 -83 174q0 107 81 178q77 67 186 67q77 0 149 -42l-64 -92q-22 23 -95 23q-52 0 -90.5 -37.5t-38.5 -89.5q0 -57 37.5 -95.5t94.5 -38.5q46 0 83 23l15 9z" />
    <glyph glyph-name="d" unicode="d" horiz-adv-x="581" 
d="M540 -8l-68 56q-60 -72 -191 -64q-103 0 -172 73t-69 177q0 108 65 181.5t172 73.5q34 0 64.5 -4.5t74.5 -32.5v284h124v-744zM419 235q0 62 -34 102t-95 40q-56 0 -91 -44q-31 -41 -31 -99q0 -57 32 -95q33 -41 88 -41q61 0 96 37.5t35 99.5z" />
    <glyph glyph-name="e" unicode="e" horiz-adv-x="634" 
d="M569 96q-36 -48 -86 -80t-154 -28q-149 -4 -218 72q-70 64 -64 176q-10 80 70 160t200 80q124 4 202 -82t78 -198h-432q24 -104 164 -112q92 0 136 60zM469 276q-40 88 -148 96q-116 -8 -160 -96h308z" />
    <glyph glyph-name="f" unicode="f" horiz-adv-x="363" 
d="M322 364h-87l-1 -624h-126v624h-66l66 118l-2 70q-4 72 72 132t144 56v-112q-88 -12 -88 -108l1 -38l87 2v-120z" />
    <glyph glyph-name="g" unicode="g" horiz-adv-x="571" 
d="M536 5q0 -268 -238 -268q-99 11 -137 27t-94 52l60 84q48 -32 80.5 -41t98.5 -9q61 14 91 56q16 37 13 116q-47 -51 -142 -51q-106 0 -172 78q-61 74 -61 183q0 99 67 169.5t164 70.5q109 8 205 -64l65 53v-456zM414 226q0 55 -33 94q-36 41 -91 41q-56 0 -91.5 -38.5
t-35.5 -95.5q0 -60 30 -99q34 -44 92 -44q62 0 96 41q33 38 33 101z" />
    <glyph glyph-name="h" unicode="h" horiz-adv-x="507" 
d="M467 0h-127v293q0 48 -19 66t-68 18q-85 0 -85 -118v-259h-127l-1 740h128v-287q44 36 121 36q178 0 178 -196v-293z" />
    <glyph glyph-name="i" unicode="i" horiz-adv-x="246" 
d="M184 716v-132h-128v132h128zM187 0h-127v474h127v-474z" />
    <glyph glyph-name="j" unicode="j" horiz-adv-x="246" 
d="M184 584h-128v132h128v-132zM184 -260h-124v734h127z" />
    <glyph glyph-name="k" unicode="k" horiz-adv-x="545" 
d="M502 0h-167l-155 189l-8 -7v-182h-127l-2 736h128l1 -398l143 140h171l-214 -204z" />
    <glyph glyph-name="l" unicode="l" horiz-adv-x="216" 
d="M171 0h-127v736h124z" />
    <glyph glyph-name="m" unicode="m" horiz-adv-x="745" 
d="M708 0h-127v261q0 48 -11 71q-16 32 -58 32q-75 0 -75 -116v-248h-127v244q0 54 -10 79q-16 41 -60 41q-76 0 -76 -123v-241h-127v462l71 -58q44 64 128 64q111 4 163 -57q52 61 138 61q171 0 171 -195v-277z" />
    <glyph glyph-name="n" unicode="n" horiz-adv-x="507" 
d="M467 0h-127v274q0 50 -14 69q-17 21 -66 21q-92 0 -92 -114v-250h-127v462l67 -58q56 64 148 68q211 0 211 -200v-272z" />
    <glyph glyph-name="o" unicode="o" horiz-adv-x="579" 
d="M551 227q0 -104 -78.5 -173.5t-183.5 -69.5q-103 0 -181 69q-81 72 -81 174q0 106 79 177q76 68 183 68t183 -68q79 -71 79 -177zM424 227q0 55 -39.5 92.5t-95.5 37.5t-96.5 -37.5t-40.5 -93.5q0 -53 43 -90q40 -36 94 -36t94.5 36.5t40.5 90.5z" />
    <glyph glyph-name="p" unicode="p" horiz-adv-x="581" 
d="M540 224q0 -103 -61 -176q-66 -77 -167 -77q-86 0 -144 52v-286h-127v724l70 -61q48 64 168 72q132 0 198 -73q63 -70 63 -175zM415 224q0 59 -35.5 98t-94.5 39q-55 0 -88 -40.5t-33 -96.5q0 -58 31 -97q32 -42 88 -44q4 1 32 4q21 1 42 16q58 40 58 121z" />
    <glyph glyph-name="q" unicode="q" horiz-adv-x="589" 
d="M546 -263h-127v287q-73 -53 -135 -53q-104 0 -172.5 72.5t-68.5 177.5q0 97 62 172q65 79 178 83q124 4 200 -64l63 49v-724zM422 221q0 62 -35 101t-97 39q-51 0 -85 -43t-34 -94q0 -60 33.5 -100t92.5 -40q58 0 93 40q32 38 32 97z" />
    <glyph glyph-name="r" unicode="r" horiz-adv-x="341" 
d="M302 496l-2 -136q-142 -24 -133 -127v-233h-127v462l58 -58q80 68 204 92z" />
    <glyph glyph-name="s" unicode="s" horiz-adv-x="430" 
d="M391 140q0 -64 -52 -110t-136 -42q-104 8 -164 56l56 84q60 -24 120 -35q36 7 48 33q-4 38 -53 57q-89 47 -99 55q-53 40 -53 95q0 59 47 99t107 40q54 0 91 -26q32 -10 60 -38l-60 -68q-44 24 -97 24q-9 0 -17.5 -7.5t-8.5 -17.5q0 -18 55 -41q74 -31 101 -52
q55 -42 55 -106z" />
    <glyph glyph-name="t" unicode="t" horiz-adv-x="353" 
d="M316 355h-87v-355h-127v355l-64 1l64 114v165h127v-165h87v-115z" />
    <glyph glyph-name="u" unicode="u" horiz-adv-x="513" 
d="M467 -20l-56 52q-54 -54 -152 -54q-94 0 -154.5 59t-60.5 152v271h127v-259q0 -45 21 -75q23 -34 67 -34q82 0 82 109v259h127z" />
    <glyph glyph-name="v" unicode="v" horiz-adv-x="520" 
d="M522 460l-260 -476l-263 476h144l118 -227l117 227h144z" />
    <glyph glyph-name="w" unicode="w" horiz-adv-x="810" 
d="M802 438l-263 -454l-135 255l-131 -255l-265 454h144l119 -220l133 266l135 -266l118 220h145z" />
    <glyph glyph-name="x" unicode="x" horiz-adv-x="658" 
d="M622 0h-154l-139 158l-134 -158h-160l221 248l-179 212h154l99 -126l106 126h158l-183 -213z" />
    <glyph glyph-name="y" unicode="y" horiz-adv-x="645" 
d="M604 460l-332 -716h-152l120 256l-200 460h149l131 -308l139 308h145z" />
    <glyph glyph-name="z" unicode="z" horiz-adv-x="631" 
d="M597 460l-306 -347h270v-113h-527l307 347h-231v113h487z" />
    <glyph glyph-name="braceleft" unicode="{" horiz-adv-x="324" 
d="M296 -189h-93q-25 0 -50 22q-54 47 -54 114v183q0 96 -71 125v95q71 23 71 123v187q0 61 51 111q25 24 51 24h95v-118h-59q-8 0 -8 -24v-197q0 -92 -63 -154q29 -26 47 -74q16 -43 16 -86q0 -207 3.5 -210.5t63.5 -3.5v-117z" />
    <glyph glyph-name="bar" unicode="|" horiz-adv-x="553" 
d="M338 0h-123v852h123v-852z" />
    <glyph glyph-name="braceright" unicode="}" horiz-adv-x="324" 
d="M296 254q-73 -25 -73 -146q0 -19 2 -60t2 -61q0 -109 -50 -152q-28 -24 -61 -24h-88v117h59q9 0 9 24v196q0 95 63 154q-63 60 -63 161v188q0 18 -1 20q-3 7 -17 6l-50 -3v121h88q33 0 58 -21q53 -45 53 -153q0 -20 -2 -61.5t-2 -61.5q0 -116 73 -148v-96z" />
    <glyph glyph-name="asciitilde" unicode="~" 
d="M558 276q-80 -117 -184 -117q-39 0 -110 40t-91 40t-74 -71l-97 60q42 40 83 80q44 35 113 35q37 0 106.5 -41t78.5 -41q20 0 77 77z" />
    <glyph glyph-name="dagger" unicode="&#x2020;" 
d="M520 474h-176v-560h-127v560h-176l176 120v258h127v-258h176v-120z" />
    <glyph glyph-name="cent" unicode="&#xa2;" 
d="M485 161q-39 -21 -121 -34v-79h-84v84q-91 19 -147 86.5t-56 160.5q0 84 61 153q58 66 142 84v75h86v-72q49 0 119 -35v-178q-32 45 -50 61q-31 30 -69 37v-258q49 10 119 82v-167zM280 250v244q-33 -11 -55.5 -51.5t-22.5 -77.5q0 -70 78 -115z" />
    <glyph glyph-name="sterling" unicode="&#xa3;" 
d="M589 129q-62 -137 -179 -137q-41 0 -118 29.5t-119 29.5q-50 0 -74 -67l-116 55q39 65 64 88q38 36 97 43q9 41 9 58q0 35 -13 57h-134v91h84q-42 84 -42 143q0 102 79 170q76 65 180 65q86 0 164.5 -51t91.5 -194l-139 -51q11 37 11 51q0 54 -34.5 91t-87.5 37
q-47 0 -91 -36q-47 -38 -47 -84q0 -43 61 -141h152v-91h-115q7 -29 7 -74q0 -15 -9 -53l70 -26q52 -18 71 -18q20 0 43 30q16 22 31 44z" />
    <glyph glyph-name="section" unicode="&#xa7;" 
d="M543 355q0 -80 -78 -151q42 -51 42 -115q0 -89 -77 -146q-70 -52 -163 -52q-113 0 -171 71q-55 65 -55 182h127q0 -138 112 -138q37 0 68.5 25.5t31.5 61.5q0 23 -15 41q-9 10 -35 25q-17 10 -52 29q-58 25 -116 51q-75 34 -108 69q-36 38 -36 100q0 91 86 155
q-37 49 -37 100q0 80 65 136q62 53 143 53q92 0 152.5 -53t60.5 -144h-124q0 81 -86 81q-33 0 -57 -20.5t-24 -53.5q0 -45 90 -87q157 -74 166 -80q90 -58 90 -140zM416 340q0 29 -20 48q-12 10 -47 27l-164 80q-40 -28 -40 -78q0 -29 35 -51q29 -19 96 -48q75 -33 100 -47
q40 32 40 69z" />
    <glyph glyph-name="bullet" unicode="&#x2022;" horiz-adv-x="280" 
d="M217 251q0 -24 -25 -41t-51 -17q-28 0 -51 14q-27 17 -27 44q0 26 27 43q23 14 51 14t50 -14q26 -17 26 -43z" />
    <glyph glyph-name="paragraph" unicode="&#xb6;" 
d="M543 623l-60 -1v-771h-122v771h-19v-771h-123v409q-36 0 -80 23q-119 63 -119 218q0 87 66.5 162.5t152.5 75.5h304v-116z" />
    <glyph glyph-name="germandbls" unicode="&#xdf;" horiz-adv-x="563" 
d="M570 272q0 -60 -11 -92q-26 -76 -87.5 -126.5t-140.5 -63.5q-34 -6 -78 -6v117q75 0 130 41q60 45 60 118q0 78 -58 120q-51 36 -132 36v120q56 0 91 25q41 28 41 82q0 44 -33 72.5t-77 28.5q-102 0 -102 -158v-587h-127v363h-40v117h40v132q0 118 56 183q59 70 173 70
q99 0 167.5 -65.5t68.5 -163.5q0 -90 -71 -146q58 -31 94 -91t36 -126z" />
    <glyph glyph-name="acute" unicode="&#xb4;" horiz-adv-x="348" 
d="M312 669l-193 -139l-74 37l145 152z" />
    <glyph glyph-name="dieresis" unicode="&#xa8;" horiz-adv-x="457" 
d="M408 623q0 -29 -23.5 -44.5t-54.5 -15.5q-30 0 -53 15q-26 17 -26 45t26 45q23 14 52 14q30 0 53 -14q26 -17 26 -45zM203 623q0 -30 -23.5 -45t-54.5 -15q-30 0 -53 15q-26 17 -26 45q0 25 27 43q24 16 51 16q32 0 53 -13q26 -16 26 -46z" />
    <glyph glyph-name="AE" unicode="&#xc6;" horiz-adv-x="966" 
d="M1020 0h-436l-80 175h-308l-82 -175h-146l372 739h345l53 -118h-298l70 -158h292l58 -118h-295l100 -227h303zM453 294l-97 206l-102 -206h199z" />
    <glyph glyph-name="Oslash" unicode="&#xd8;" horiz-adv-x="803" 
d="M821 693l-100 -95q84 -102 84 -228q0 -159 -123 -270q-119 -108 -280 -108q-137 0 -250 80l-98 -93l-68 67l95 90q-81 92 -81 234q0 160 122 270q119 107 280 107q139 0 253 -84l96 92zM674 370q0 77 -47 144l-380 -357q67 -47 155 -47q110 0 191 75.5t81 184.5zM563 580
q-68 51 -161 51q-111 0 -191.5 -75t-80.5 -186q0 -82 46 -151z" />
    <glyph glyph-name="yen" unicode="&#xa5;" 
d="M598 739l-152 -255h129v-91h-185l-47 -78q5 8 3 19h229v-92h-229v-242h-131v242h-229v92h229v-14l-44 73h-185v91h130l-154 255h150l168 -281l170 281h148z" />
    <glyph glyph-name="ordfeminine" unicode="&#xaa;" horiz-adv-x="365" 
d="M333 460h-97q5 7 13 21l-8 -1q-44 -27 -86 -27q-69 0 -116 42t-47 110t45 109t113 41q49 0 86 -25v18h97v-288zM333 362h-341v78h341v-78zM238 603q0 34 -21 53.5t-56 19.5q-30 0 -51.5 -20t-21.5 -50q0 -33 20.5 -53t53.5 -20q34 0 55 18.5t21 51.5z" />
    <glyph glyph-name="ordmasculine" unicode="&#xba;" horiz-adv-x="354" 
d="M354 604q0 -72 -61 -114q-53 -37 -128 -37q-64 0 -114.5 44t-50.5 107q0 69 57 112q52 39 122 39q71 0 121 -39q54 -43 54 -112zM354 362h-354v78h354v-78zM258 604q0 31 -23.5 50t-55.5 19q-33 0 -56 -18q-26 -19 -26 -51q0 -31 24 -50t56 -19q30 0 55.5 20t25.5 49z
" />
    <glyph glyph-name="ae" unicode="&#xe6;" horiz-adv-x="783" 
d="M796 124q-89 -140 -233 -140q-103 0 -178 69q-68 -69 -174 -69q-82 0 -141 39q-68 46 -68 123l2 2q0 42 32 84q53 69 161 69q95 0 119 -18v0v0q0 51 -34 69q-25 13 -81 13q-54 0 -130 -19v112q71 12 142 12q122 0 172 -55q69 57 168 57q236 0 236 -275h-346
q19 -103 123 -103q70 0 122 91zM660 295q-10 33 -38.5 51.5t-64.5 18.5q-33 0 -62 -19.5t-41 -50.5h206zM312 146q0 26 -38 41q-29 10 -61 10q-27 0 -54 -13q-34 -15 -34 -39t35 -39q28 -13 56 -13l6 1q30 0 56 12q34 15 34 40z" />
    <glyph glyph-name="oslash" unicode="&#xf8;" horiz-adv-x="523" 
d="M537 427l-64 -58q51 -67 51 -144q0 -101 -82 -170q-78 -65 -182 -65q-87 0 -154 45l-59 -56l-59 52l60 56q-50 70 -50 142q0 101 83 170q78 66 181 66q86 0 153 -44l64 59zM397 229q0 28 -17 57l-181 -170q26 -14 57 -14q55 0 98 36.5t43 90.5zM323 339q-30 14 -61 14
q-51 0 -94 -37.5t-43 -88.5q0 -22 17 -56z" />
    <glyph glyph-name="questiondown" unicode="&#xbf;" horiz-adv-x="439" 
d="M293 429q0 -30 -23 -53t-54 -23t-53 21t-22 52q0 30 23.5 52t53.5 22q29 0 52 -21t23 -50zM408 -97q0 -70 -58.5 -118t-129.5 -48q-81 0 -138 53q-60 54 -60 134q0 88 63 133q28 20 116 49q63 20 63 49q0 19 -12.5 34t-31.5 15q-52 0 -52 -72h-127q0 82 48.5 135.5
t129.5 53.5q73 0 124.5 -51t51.5 -124q0 -63 -42 -99q-25 -21 -92 -45.5t-89.5 -43t-22.5 -29.5q0 -75 65 -75q27 0 47.5 17.5t20.5 43.5q0 9 -12 50h134q4 -42 4 -62z" />
    <glyph glyph-name="exclamdown" unicode="&#xa1;" horiz-adv-x="311" 
d="M231 425q0 -34 -22.5 -54t-56.5 -20q-73 0 -73 74q0 30 22 52.5t52 22.5q34 0 56 -21t22 -54zM221 -253h-127v578h127v-578z" />
    <glyph glyph-name="florin" unicode="&#x192;" 
d="M547 810l-21 -119q-52 11 -63 11q-55 0 -71 -80l-23 -113h123l-13 -103h-128l-60 -319q-24 -128 -81 -179q-60 -54 -188 -54q1 0 -32 3l21 116l37 -1q59 -2 86 39q17 26 29 94l54 301l-85 2l105 101q24 129 27 144q21 79 60 117q48 49 135 49q21 0 88 -9z" />
    <glyph glyph-name="guillemotleft" unicode="&#xab;" horiz-adv-x="507" 
d="M476 142l-87 -56l-198 228l197 236l88 -56l-149 -180zM289 143l-85 -57l-201 226l200 238l85 -56l-147 -180z" />
    <glyph glyph-name="guillemotright" unicode="&#xbb;" horiz-adv-x="507" 
d="M507 318l-198 -236l-88 56l148 180l-148 169l87 57zM320 317l-198 -236l-88 60l151 175l-151 171l88 59z" />
    <glyph glyph-name="ellipsis" unicode="&#x2026;" horiz-adv-x="970" 
d="M886 42q0 -26 -24.5 -42t-52.5 -16t-51 14q-27 17 -27 44q0 26 27 42q23 14 51 14t52.5 -15t24.5 -41zM562 42h1q0 -26 -27 -43q-23 -15 -51 -15q-29 0 -50 14q-25 17 -25 44q0 26 26 42q21 14 49 14t52.5 -15t24.5 -41zM238 42q0 -26 -24.5 -42t-52.5 -16q-29 0 -51 14
q-26 16 -26 44q0 26 27 42q22 14 50 14t52.5 -15t24.5 -41z" />
    <glyph glyph-name="OE" unicode="&#x152;" horiz-adv-x="1109" 
d="M1100 -1h-422v87q-111 -102 -273 -102t-282 108q-123 112 -123 272q0 166 119 280q116 111 283 111q62 0 127 -20q70 -22 114 -58l35 -29v92h422v-118h-299v-159h291v-118h-291v-228h299v-118zM674 365q0 118 -76.5 194.5t-194.5 76.5t-195.5 -77t-77.5 -195
q0 -108 83 -185q80 -74 189 -74q110 0 191 75.5t81 184.5z" />
    <glyph glyph-name="oe" unicode="&#x153;" horiz-adv-x="869" 
d="M884 125q-79 -142 -235 -142q-125 0 -193 82q-34 -38 -88 -61t-106 -23q-99 0 -178 67q-84 71 -84 168q0 105 72 180.5t177 75.5q120 0 207 -82q71 82 194 82q103 0 165 -67t62 -172v-36h-345q8 -46 39.5 -74.5t77.5 -28.5q78 0 124 90zM743 295q-16 70 -116 70
q-27 0 -52 -21.5t-35 -48.5h203zM397 227q0 54 -39 92t-93 38q-57 0 -95 -32q-42 -34 -42 -90q0 -51 34 -91q36 -43 86 -43q60 0 102 33q47 35 47 93z" />
    <glyph glyph-name="endash" unicode="&#x2013;" horiz-adv-x="485" 
d="M505 277h-525v75h525v-75z" />
    <glyph glyph-name="emdash" unicode="&#x2014;" horiz-adv-x="970" 
d="M990 277h-1010v73h1010v-73z" />
    <glyph glyph-name="quotedblleft" unicode="&#x201c;" horiz-adv-x="426" 
d="M428 722l-120 -260l-115 42l146 250zM269 724l-122 -260l-115 39l143 251z" />
    <glyph glyph-name="quotedblright" unicode="&#x201d;" horiz-adv-x="426" 
d="M396 715l-147 -253l-92 31l124 261zM235 715l-147 -253l-93 31l125 261z" />
    <glyph glyph-name="quoteleft" unicode="&#x2018;" horiz-adv-x="269" 
d="M268 724l-121 -260l-115 39l147 251z" />
    <glyph glyph-name="quoteright" unicode="&#x2019;" horiz-adv-x="269" 
d="M248 756l-156 -292h-96l128 291z" />
    <glyph glyph-name="currency" unicode="&#xa4;" 
d="M556 126l-88 -76l-45 40q-61 -36 -147 -36q-78 0 -137 36l-46 -39l-86 76l43 43q-38 65 -38 119q0 67 38 129l-43 42l87 80l45 -43q59 38 141 38t142 -37l44 42l89 -80l-43 -41q37 -54 37 -128q0 -64 -37 -122zM429 300q0 58 -46 94q-42 33 -102 33q-62 0 -105 -35
q-46 -38 -46 -98q0 -54 47 -94q44 -38 99 -38q64 0 108.5 37.5t44.5 100.5z" />
    <glyph glyph-name="guilsinglleft" unicode="&#x2039;" horiz-adv-x="326" 
d="M281 143l-85 -57l-201 228l198 236l88 -56l-148 -180z" />
    <glyph glyph-name="guilsinglright" unicode="&#x203a;" horiz-adv-x="326" 
d="M331 314l-198 -228l-87 56l147 172l-146 180l84 56z" />
    <glyph glyph-name="daggerdbl" unicode="&#x2021;" 
d="M520 312h-176v-398h-127v398h-176v120h176v75h-176v119h176v226h127v-226h176v-119h-176v-75h176v-120z" />
    <glyph glyph-name="periodcentered" unicode="&#xb7;" 
d="M485 371q0 -81 -61.5 -133.5t-143.5 -52.5q-78 0 -139 53q-64 56 -64 133q0 78 63 133q60 51 140 51q81 0 143 -52t62 -132z" />
    <glyph glyph-name="periodcentered" unicode="&#x2219;" 
d="M485 371q0 -81 -61.5 -133.5t-143.5 -52.5q-78 0 -139 53q-64 56 -64 133q0 78 63 133q60 51 140 51q81 0 143 -52t62 -132z" />
    <glyph glyph-name="quotesinglbase" unicode="&#x201a;" horiz-adv-x="222" 
d="M175 32q0 -64 -23 -95t-85 -55l-44 60q30 8 41 17q17 12 20 38h-43v119h134v-84z" />
    <glyph glyph-name="quotedblbase" unicode="&#x201e;" horiz-adv-x="426" 
d="M420 75l-145 -251l-89 33l119 260zM259 77l-147 -254l-87 35l119 259z" />
    <glyph glyph-name="perthousand" unicode="&#x2030;" horiz-adv-x="1076" 
d="M1078 166q0 -74 -58 -126t-133 -52q-76 0 -133.5 51.5t-57.5 126.5t59 127q56 50 131 50q76 0 134 -51t58 -126zM384 572q0 -74 -58 -125t-133 -51t-132 49q-60 52 -60 127t60 127q56 48 132 48q75 0 132 -49q59 -52 59 -126zM611 713l-446 -731l-79 44l448 728zM696 166
q0 -75 -57.5 -126.5t-133.5 -51.5t-132.5 51.5t-56.5 126.5q0 74 56.5 125.5t131.5 51.5q78 0 135 -50t57 -127zM979 166q0 37 -27.5 61t-64.5 24t-64.5 -24.5t-27.5 -60.5q0 -35 28 -59t64 -24q35 0 63.5 24.5t28.5 58.5zM285 573q0 37 -29 62q-27 22 -65 22
q-36 0 -63.5 -24.5t-27.5 -59.5q0 -37 27 -61t64 -24t65.5 24t28.5 61zM598 166q0 36 -28 60.5t-65 24.5q-36 0 -64.5 -25t-28.5 -60q0 -36 28 -59.5t65 -23.5q35 0 64 24t29 59z" />
    <glyph glyph-name="circumflex" unicode="&#x2c6;" horiz-adv-x="457" 
d="M414 589l-89 -57l-98 72l-97 -72l-88 57l185 130z" />
    <glyph glyph-name="tilde" unicode="&#x2dc;" horiz-adv-x="495" 
d="M459 635q-48 -74 -142 -74q-25 0 -77.5 17.5t-72.5 17.5q-23 0 -52 -39l-78 46q57 72 134 72q29 0 79.5 -18t74.5 -18q25 0 57 41z" />
    <glyph glyph-name="macron" unicode="&#xaf;" horiz-adv-x="552" 
d="M587 765h-622v63h622v-63z" />
    <glyph glyph-name="macron" unicode="&#x2c9;" horiz-adv-x="552" 
d="M587 765h-622v63h622v-63z" />
    <glyph glyph-name="cedilla" unicode="&#xb8;" horiz-adv-x="320" 
d="M269 -52l-128 -127l-86 35l106 126z" />
    <glyph glyph-name=".null" horiz-adv-x="0" 
 />
    <glyph glyph-name="Eth" unicode="&#xd0;" horiz-adv-x="644" 
d="M645 379q0 -181 -122 -284q-115 -95 -300 -95h-181v337h-62v120h62v282h172q180 0 299 -88q132 -98 132 -272zM513 371q0 250 -340 250v-164h131v-120h-131v-219h36q132 0 213 59q91 66 91 194z" />
    <glyph glyph-name="eth" unicode="&#xf0;" horiz-adv-x="523" 
d="M524 234q0 -111 -75 -180.5t-187 -69.5q-108 0 -184 71.5t-76 178.5q0 102 74 177t176 75q11 0 33 -2q-58 81 -99 121l-154 -84l-78 80l155 85l-98 102l112 62l97 -104l143 79l73 -79l-141 -80q67 -76 148 -201.5t81 -230.5zM396 236q0 56 -39 94t-95 38t-96.5 -39.5
t-40.5 -95.5q0 -52 43.5 -93.5t95.5 -41.5q54 0 93 42t39 96z" />
    <glyph glyph-name="Scaron" unicode="&#x160;" horiz-adv-x="521" 
d="M278 938l-7 -10l-9 13l10 -8zM511 254q0 -81 -40.5 -145.5t-113.5 -99.5q-54 -26 -97 -26q-110 0 -177 80q-59 69 -73 184l133 33q0 -159 122 -159q57 0 88 47q27 41 27 100q0 61 -87 106q-152 79 -162 86q-87 67 -87 180q0 96 70 159t166 63q137 0 215 -149l-105 -72
q-47 86 -114 86q-39 0 -70 -25.5t-31 -63.5q0 -49 50 -80q11 -7 92 -40q194 -80 194 -264z" />
    <glyph glyph-name="scaron" unicode="&#x161;" horiz-adv-x="374" 
d="M198 668l-7 -10l-9 13l10 -8zM368 173q0 -71 -48 -128q-52 -61 -121 -61q-137 0 -191 148l112 60q29 -76 72 -76q15 0 31.5 13t16.5 27q0 33 -53 68q-87 57 -99 67q-53 49 -53 116q0 66 44.5 117t109.5 51q56 0 95 -35q28 -26 58 -85l-107 -65q-26 54 -52 54t-26 -30
q0 -22 55 -49q74 -36 101 -62q55 -51 55 -130z" />
    <glyph glyph-name="Yacute" unicode="&#xdd;" horiz-adv-x="555" 
d="M453 938l-194 -170l-74 45l146 185zM597 745l-253 -423v-322h-131v322l-253 423h150l168 -283l170 283h149z" />
    <glyph glyph-name="yacute" unicode="&#xfd;" horiz-adv-x="469" 
d="M371 659l-194 -169l-73 45l145 184zM516 466l-388 -729h-143l187 345l-220 384h149l141 -256l129 256h145z" />
    <glyph glyph-name="HT" horiz-adv-x="280" 
 />
    <glyph glyph-name="Thorn" unicode="&#xde;" horiz-adv-x="479" 
d="M489 391q0 -108 -75 -170q-70 -57 -181 -57h-52v-164h-133l2 739h131v-130h3q1 -1 2 -1q30 -1 90 -6q213 -29 213 -211zM364 389q0 105 -159 105h-24v-214q82 0 121 16q62 25 62 93z" />
    <glyph glyph-name="thorn" unicode="&#xfe;" horiz-adv-x="541" 
d="M533 233q0 -103 -61 -178q-66 -80 -167 -80q-86 0 -144 54v-292h-127v1115h127v-421l4 3q68 51 135 51q105 0 171 -75q62 -71 62 -177zM408 232q0 60 -35.5 100t-94.5 40q-55 0 -88 -41.5t-33 -97.5q0 -59 30 -99q33 -43 89 -45q2 1 10 1q55 0 90 44q32 41 32 98z" />
    <glyph glyph-name="nonmarkingreturn" horiz-adv-x="280" 
 />
    <glyph glyph-name="onehalf" unicode="&#xbd;" horiz-adv-x="841" 
d="M823 6h-369l239 260q26 28 26 52q0 23 -19.5 40.5t-43.5 17.5q-71 0 -71 -69h-105q19 160 171 160q67 0 117 -38q55 -42 55 -107q0 -56 -39 -98l-118 -126h157v-92zM640 714l-447 -730l-82 46l445 724zM205 284h-102v360h-95l55 89h142v-449z" />
    <glyph glyph-name="onequarter" unicode="&#xbc;" horiz-adv-x="841" 
d="M823 65h-47v-60h-102v60h-255l357 449v-358h47v-91zM692 714l-449 -730l-85 45l447 725zM205 283h-102v361h-95l55 89h142v-450zM674 156v80l-64 -80h64z" />
    <glyph glyph-name="onesuperior" unicode="&#xb9;" horiz-adv-x="336" 
d="M229 297h-103v354h-101l61 88h143v-442z" />
    <glyph glyph-name="threequarters" unicode="&#xbe;" horiz-adv-x="841" 
d="M823 65h-47v-59h-102v59h-255l357 450v-359h47v-91zM746 715l-447 -731l-85 45l446 726zM359 412q0 -62 -58 -100q-50 -32 -116 -32q-71 0 -117 38q-49 41 -49 110h102q0 -59 69 -59q26 0 46 15t20 40q0 59 -95 59v88q90 0 90 42q0 21 -19.5 33t-42.5 12
q-30 0 -40.5 -10.5t-10.5 -40.5h-107q12 74 51 108t113 34q65 0 109 -32q48 -37 48 -99q0 -54 -45 -90q52 -38 52 -116zM674 156v81l-64 -81h64z" />
    <glyph glyph-name="threesuperior" unicode="&#xb3;" horiz-adv-x="336" 
d="M338 422q0 -52 -51 -93q-45 -36 -122 -36q-72 0 -117 36q-49 40 -49 110h99q7 -59 72 -59q24 0 45 15.5t21 39.5q0 58 -99 58v86q93 0 93 42q0 22 -19.5 33t-43.5 11q-30 0 -39 -9.5t-13 -40.5h-110q29 140 170 140q63 0 107 -32q49 -35 49 -96q0 -57 -45 -90
q52 -39 52 -115z" />
    <glyph glyph-name="twosuperior" unicode="&#xb2;" horiz-adv-x="336" 
d="M342 297h-370l240 254q26 28 26 52q0 23 -19.5 40.5t-43.5 17.5q-71 0 -71 -68h-105q16 158 171 158q66 0 117 -39q55 -43 55 -107q0 -54 -38 -95l-118 -126h156v-87z" />
    <glyph glyph-name="brokenbar" unicode="&#xa6;" horiz-adv-x="328" 
d="M333 0h-124v848h124v-848z" />
    <glyph glyph-name="minus" unicode="&#xad;" horiz-adv-x="333" 
d="M322 215h-310v88h310v-88z" />
    <glyph glyph-name="minus" unicode="&#x2212;" horiz-adv-x="333" 
d="M322 215h-310v88h310v-88z" />
    <glyph glyph-name="multiply" unicode="&#xd7;" horiz-adv-x="584" 
d="M532 219l-86 -78l-154 135l-154 -134l-87 76l154 135l-154 136l89 76l152 -135l154 136l85 -78l-152 -135z" />
    <glyph glyph-name="Adieresis" unicode="&#xc4;" horiz-adv-x="682" 
d="M522 887q0 -33 -23 -55t-56 -22q-31 0 -55 23t-24 54q0 32 23.5 53.5t55.5 21.5q34 0 56.5 -20.5t22.5 -54.5zM318 888q0 -32 -23.5 -55t-55.5 -23q-33 0 -55.5 22t-22.5 55t22.5 54t55.5 21q32 0 55.5 -21t23.5 -53zM722 0h-142l-84 178h-308l-84 -178h-143l380 805z
M442 298l-101 219l-98 -219h199z" />
    <glyph glyph-name="Aring" unicode="&#xc5;" horiz-adv-x="682" 
d="M450 898q0 -44 -31.5 -75t-75.5 -31q-45 0 -77 30.5t-32 75.5q0 43 33 72.5t76 29.5q44 0 75.5 -29t31.5 -73zM722 0h-141l-85 178h-308l-84 -178h-143l380 807zM366 898q0 23 -23 23q-25 0 -25 -23q0 -25 25 -25q23 0 23 25zM442 298l-101 220l-98 -220h199z" />
    <glyph glyph-name="Ccedilla" unicode="&#xc7;" horiz-adv-x="640" 
d="M430 -20l-126 -159l-86 44l86 131q-128 36 -212 142t-84 241q0 157 126 268q121 107 280 107q64 0 108 -11q40 -10 101 -40v-158q-110 93 -216 93q-104 0 -186 -78.5t-82 -182.5q0 -113 78 -194.5t190 -81.5q98 0 216 94v-155q-98 -55 -196 -59z" />
    <glyph glyph-name="Eacute" unicode="&#xc9;" horiz-adv-x="505" 
d="M401 942l-194 -171l-73 44l145 185zM483 0h-433v745h433v-120h-302v-158h294v-119h-294v-229h302v-119z" />
    <glyph glyph-name="Ntilde" unicode="&#xd1;" horiz-adv-x="762" 
d="M593 899q-21 -43 -57 -69q-39 -29 -84 -29q-25 0 -75 23t-75 23q-22 0 -52 -51l-78 60q57 95 133 95q32 0 82 -23t72 -23q27 0 58 55zM723 -31l-552 539v-482h-130v782l549 -539v477h133v-777z" />
    <glyph glyph-name="Odieresis" unicode="&#xd6;" horiz-adv-x="803" 
d="M584 887q0 -33 -23 -55t-56 -22q-32 0 -55 22.5t-23 54.5q0 31 23.5 53t54.5 22q34 0 56.5 -20.5t22.5 -54.5zM380 887q0 -32 -23 -54.5t-55 -22.5q-33 0 -56 22t-23 55q0 34 22.5 54.5t56.5 20.5q33 0 55.5 -21t22.5 -54zM805 374q0 -162 -120 -276.5t-283 -114.5
q-165 0 -282 112q-120 114 -120 279q0 163 120 277q118 111 282 111t283 -111q120 -114 120 -277zM674 374q0 113 -79.5 191t-192.5 78q-114 0 -193 -77.5t-79 -191.5q0 -111 80.5 -189.5t191.5 -78.5t191.5 79t80.5 189z" />
    <glyph glyph-name="Udieresis" unicode="&#xdc;" horiz-adv-x="650" 
d="M507 887q0 -31 -23.5 -54t-55.5 -23q-31 0 -54.5 23t-23.5 54q0 34 22 54.5t56 20.5q32 0 55.5 -21.5t23.5 -53.5zM302 887q0 -32 -23.5 -54.5t-55.5 -22.5t-55 22.5t-23 54.5q0 34 22 54.5t56 20.5q33 0 56 -21t23 -54zM615 278q0 -129 -80 -212t-209 -83
q-124 0 -205.5 82.5t-81.5 207.5v475h131v-454q0 -188 156 -188q158 0 158 196v446h131v-470z" />
    <glyph glyph-name="aacute" unicode="&#xe1;" horiz-adv-x="541" 
d="M407 660l-194 -167l-73 44l146 182zM507 -1h-127v38q-56 -53 -137 -53q-105 0 -172 72.5t-67 178.5t67 176t172 70q72 0 137 -52v41h127v-471zM383 237q0 56 -34.5 95t-90.5 39q-55 0 -90.5 -40t-35.5 -96q0 -54 32 -95q35 -45 88 -45q62 0 97 41q34 38 34 101z" />
    <glyph glyph-name="agrave" unicode="&#xe0;" horiz-adv-x="541" 
d="M402 537l-74 -44l-191 167l119 59zM507 -1h-127v38q-56 -53 -137 -53q-105 0 -172 72.5t-67 178.5t67 176t172 70q72 0 137 -52v41h127v-471zM383 237q0 56 -34.5 95t-90.5 39q-55 0 -90.5 -40t-35.5 -96q0 -54 32 -95q35 -45 88 -45q62 0 97 41q34 38 34 101z" />
    <glyph glyph-name="acircumflex" unicode="&#xe2;" horiz-adv-x="541" 
d="M457 562l-90 -69l-98 87l-97 -87l-88 69l185 157zM507 -1h-127v38q-56 -53 -137 -53q-105 0 -172 72.5t-67 178.5q0 107 66.5 176t172.5 69q75 0 137 -51v40h127v-470zM383 237q0 58 -34 95.5t-91 37.5q-55 0 -90.5 -40t-35.5 -95q0 -54 32 -95q35 -45 88 -45q62 0 97 41
q34 38 34 101z" />
    <glyph glyph-name="adieresis" unicode="&#xe4;" horiz-adv-x="541" 
d="M452 607q0 -33 -22 -54t-56 -21q-32 0 -56 21.5t-24 53.5q0 31 24 53t55 22t55 -22t24 -53zM247 607q0 -33 -22 -54t-56 -21t-56.5 20.5t-22.5 54.5q0 31 23 53t55 22q31 0 55 -22t24 -53zM507 -1h-127v38q-56 -53 -137 -53q-106 0 -172.5 73t-66.5 180t66.5 176.5
t172.5 69.5q83 0 137 -52v41h127v-473zM383 238q0 56 -34.5 95.5t-90.5 39.5q-54 0 -90 -40.5t-36 -95.5t32 -96q34 -45 88 -45q60 0 97 41q34 40 34 101z" />
    <glyph glyph-name="atilde" unicode="&#xe3;" horiz-adv-x="541" 
d="M481 621q-19 -43 -57 -71.5t-84 -28.5q-26 0 -76.5 23.5t-74.5 23.5t-51 -51l-78 61q60 96 133 96q31 0 81 -24t74 -24t60 54zM507 -1h-127v38q-56 -53 -137 -53q-105 0 -172 72t-67 178q0 107 66.5 176t172.5 69q75 0 137 -51v40h127v-469zM383 236q0 57 -34.5 95.5
t-90.5 38.5q-55 0 -90.5 -40t-35.5 -96q0 -54 32 -95q35 -44 88 -44q61 0 96 40t35 101z" />
    <glyph glyph-name="aring" unicode="&#xe5;" horiz-adv-x="541" 
d="M378 618q0 -45 -31 -75t-76 -30t-77 30.5t-32 74.5q0 42 33.5 71.5t75.5 29.5q43 0 75 -29t32 -72zM507 -1h-127v38q-56 -53 -137 -53q-105 0 -173 75q-66 72 -66 178q0 105 67.5 176.5t171.5 71.5q73 0 137 -51v39h127v-474zM294 618q0 21 -23 21q-26 0 -26 -22
q0 -9 8.5 -16.5t17.5 -7.5q23 0 23 25zM383 239q0 58 -34 96.5t-91 38.5q-55 0 -90.5 -41t-35.5 -96t32 -96q35 -45 88 -45q62 0 98 41q33 39 33 102z" />
    <glyph glyph-name="ccedilla" unicode="&#xe7;" horiz-adv-x="428" 
d="M324 -21l-131 -158l-84 44l86 126q-82 23 -135 83q-56 65 -56 149q0 107 81 178q78 69 186 69q78 0 143 -34v-169q-40 45 -67 63q-40 28 -86 28q-53 0 -91 -38t-38 -91q0 -57 38 -96t94 -39q46 0 83 23q10 7 67 56v-159q-49 -23 -102 -30z" />
    <glyph glyph-name="eacute" unicode="&#xe9;" horiz-adv-x="474" 
d="M375 660l-193 -167l-74 44l145 182zM487 127q-51 -76 -100 -107q-57 -36 -143 -36q-50 0 -99 22q-141 64 -141 245q0 102 71 167q68 63 170 63q118 0 178 -73q56 -67 56 -187q0 -3 -2.5 -10.5t-2.5 -9.5h-339q6 -48 38 -77t81 -29q76 0 122 93zM347 301q-22 71 -97 71
q-84 0 -107 -71h204z" />
    <glyph glyph-name="egrave" unicode="&#xe8;" horiz-adv-x="474" 
d="M368 537l-72 -44l-191 167l119 59zM487 127q-51 -76 -100 -107q-57 -36 -143 -36q-50 0 -99 22q-141 64 -141 245q0 102 71 167q68 63 170 63q118 0 178 -73q56 -67 56 -187q0 -3 -2.5 -10.5t-2.5 -9.5h-339q6 -48 38 -77t81 -29q76 0 122 93zM347 301q-22 71 -97 71
q-84 0 -107 -71h204z" />
    <glyph glyph-name="ecircumflex" unicode="&#xea;" horiz-adv-x="474" 
d="M423 562l-88 -70l-98 88l-97 -87l-88 69l185 157zM487 127q-51 -76 -101 -107q-56 -36 -142 -36q-51 0 -99 22q-141 64 -141 245q0 42 19 89q56 140 222 140q116 0 177 -70q57 -67 57 -184q0 -4 -2 -12q-3 -11 -3 -13h-339q5 -48 38 -77t81 -29q75 0 122 93zM347 301
q-22 70 -97 70q-83 0 -107 -70h204z" />
    <glyph glyph-name="edieresis" unicode="&#xeb;" horiz-adv-x="474" 
d="M416 607q0 -33 -22 -54t-56 -21q-33 0 -56.5 21t-23.5 54q0 31 24 53t55 22t55 -22t24 -53zM211 607q0 -34 -22 -54.5t-56 -20.5q-33 0 -56 20.5t-23 54.5q0 32 23.5 53.5t54.5 21.5t55 -22t24 -53zM487 128q-48 -74 -101 -108q-58 -36 -142 -36q-111 0 -178 81
q-62 75 -62 188q0 41 19 89q56 141 222 141q118 0 178 -73q55 -67 55 -188q0 4 -4 -20h-339q5 -48 38 -77t81 -29q75 0 122 93zM347 303q-24 71 -97 71q-82 0 -107 -71h204z" />
    <glyph glyph-name="iacute" unicode="&#xed;" horiz-adv-x="246" 
d="M258 660l-194 -167l-72 45l145 181zM187 0h-127v470h127v-470z" />
    <glyph glyph-name="igrave" unicode="&#xec;" horiz-adv-x="246" 
d="M252 538l-72 -45l-194 167l122 59zM187 0h-127v470h127v-470z" />
    <glyph glyph-name="icircumflex" unicode="&#xee;" horiz-adv-x="246" 
d="M309 562l-88 -69l-98 87l-97 -87l-89 69l187 157zM187 0h-127v469h127v-469z" />
    <glyph glyph-name="idieresis" unicode="&#xef;" horiz-adv-x="246" 
d="M304 607q0 -32 -23 -53.5t-56 -21.5t-55.5 21t-22.5 54q0 32 22.5 53.5t54.5 21.5t56 -21.5t24 -53.5zM100 607q0 -32 -23.5 -53.5t-55.5 -21.5q-33 0 -56 21.5t-23 53.5t23 53.5t55 21.5q31 0 55.5 -22t24.5 -53zM187 0h-127v472h127v-472z" />
    <glyph glyph-name="ntilde" unicode="&#xf1;" horiz-adv-x="507" 
d="M464 620q-48 -99 -141 -99q-25 0 -77.5 23.5t-72.5 23.5q-25 0 -52 -52l-78 61q58 96 134 96q28 0 61 -13q28 -14 57 -28q14 -1 37 -7q29 3 56 55zM467 0h-127v278q0 51 -14 70q-17 21 -66 21q-92 0 -92 -116v-253h-127v468h127v-28q42 39 121 39q97 0 140 -54
q38 -49 38 -149v-276z" />
    <glyph glyph-name="oacute" unicode="&#xf3;" horiz-adv-x="523" 
d="M399 658l-194 -167l-73 44l145 182zM524 231q0 -104 -78.5 -176t-183.5 -72q-103 0 -181 72q-81 74 -81 176q0 107 77 178.5t185 71.5t185 -71.5t77 -178.5zM397 231q0 56 -39.5 94.5t-95.5 38.5q-55 0 -96 -39t-41 -94q0 -54 41 -91.5t96 -37.5q54 0 94.5 38t40.5 91z
" />
    <glyph glyph-name="ograve" unicode="&#xf2;" horiz-adv-x="523" 
d="M394 537l-74 -44l-192 167l121 59zM524 232q0 -105 -78.5 -177t-183.5 -72q-103 0 -182.5 73.5t-79.5 175.5q0 107 77 178t185 71t185 -71t77 -178zM397 232q0 56 -39 94t-96 38q-55 0 -96 -38.5t-41 -94.5q0 -54 41 -91.5t96 -37.5t95 38t40 92z" />
    <glyph glyph-name="ocircumflex" unicode="&#xf4;" horiz-adv-x="523" 
d="M448 562l-88 -69l-98 87l-98 -88l-90 69l189 158zM524 231q0 -104 -78 -175.5t-184 -71.5q-104 0 -183 72t-79 175q0 107 79 179q76 70 183 70q109 0 185.5 -70.5t76.5 -178.5zM397 231q0 55 -39.5 94t-95.5 39q-55 0 -96 -39t-41 -95q0 -53 42 -91t95 -38q55 0 95 37.5
t40 92.5z" />
    <glyph glyph-name="odieresis" unicode="&#xf6;" horiz-adv-x="523" 
d="M443 607q0 -34 -22.5 -54.5t-56.5 -20.5t-56.5 20.5t-22.5 54.5q0 32 23 53.5t55 21.5q31 0 55.5 -22t24.5 -53zM238 607q0 -33 -23 -54t-56 -21t-55.5 21t-22.5 54q0 31 23 53t54 22q32 0 56 -21.5t24 -53.5zM524 233q0 -105 -78 -177.5t-184 -72.5q-102 0 -182 74
t-80 176q0 108 76.5 179t185.5 71q110 0 186 -70.5t76 -179.5zM397 233q0 56 -39.5 94.5t-95.5 38.5q-55 0 -96 -39t-41 -95q0 -54 41.5 -92t95.5 -38q55 0 95 38t40 93z" />
    <glyph glyph-name="otilde" unicode="&#xf5;" horiz-adv-x="523" 
d="M474 621q-49 -100 -141 -100q-25 0 -76 23.5t-75 23.5q-25 0 -52 -51l-77 61q55 96 132 96q30 0 80.5 -24t76.5 -24q21 0 55 54zM524 231q0 -104 -78 -175.5t-184 -71.5q-104 0 -183 72t-79 175q0 106 79 178q76 70 183 70q108 0 185 -70.5t77 -177.5zM397 231
q0 55 -39.5 93.5t-95.5 38.5q-55 0 -96 -39t-41 -94q0 -54 41.5 -91.5t95.5 -37.5q55 0 95 38t40 92z" />
    <glyph glyph-name="uacute" unicode="&#xfa;" horiz-adv-x="497" 
d="M386 660l-195 -167l-71 44l144 182zM461 201q0 -99 -54 -160q-57 -63 -155 -63q-94 0 -154.5 61t-60.5 155v275h127v-264q0 -46 21 -76q24 -34 67 -34q82 0 82 110v264h127v-268z" />
    <glyph glyph-name="ugrave" unicode="&#xf9;" horiz-adv-x="497" 
d="M381 537l-74 -44l-191 167l119 59zM461 201q0 -99 -54 -160q-57 -63 -155 -63q-94 0 -154.5 61t-60.5 155v275h127v-264q0 -46 21 -76q24 -34 67 -34q82 0 82 110v264h127v-268z" />
    <glyph glyph-name="ucircumflex" unicode="&#xfb;" horiz-adv-x="497" 
d="M434 562l-88 -69l-97 87l-97 -88l-89 70l187 157zM461 201q0 -99 -54 -160q-57 -63 -155 -63q-94 0 -154.5 60.5t-60.5 154.5v276h127v-264q0 -46 21 -76q24 -34 67 -34q82 0 82 110v264h127v-268z" />
    <glyph glyph-name="udieresis" unicode="&#xfc;" horiz-adv-x="497" 
d="M432 605q0 -32 -23.5 -53.5t-55.5 -21.5q-33 0 -56 21t-23 54q0 32 23 53.5t55 21.5q31 0 55.5 -22t24.5 -53zM227 605q0 -34 -22.5 -54.5t-56.5 -20.5t-56.5 20.5t-22.5 54.5q0 32 23 53.5t55 21.5t56 -21.5t24 -53.5zM461 200q0 -101 -53 -161q-56 -63 -156 -63
q-95 0 -155 61t-60 156v277h127v-266q0 -45 21 -76q24 -35 67 -35q82 0 82 111v266h127v-270z" />
    <glyph glyph-name="degree" unicode="&#xb0;" horiz-adv-x="400" 
d="M353 593q0 -60 -47 -98t-108 -38q-60 0 -106 37q-49 40 -49 99q0 60 48 99q45 36 107 36t107 -36q48 -39 48 -99zM260 593q0 24 -19 39t-43 15q-26 0 -44 -14.5t-18 -39.5q0 -23 20 -39t43 -16q25 0 43 15t18 40z" />
    <glyph glyph-name="registered" unicode="&#xae;" horiz-adv-x="777" 
d="M791 370q0 -163 -119.5 -274.5t-283.5 -111.5q-162 0 -282 112.5t-120 273.5q0 162 121 274q118 110 281 110q164 0 282 -109q121 -112 121 -275zM570 141h-90l-110 191h-46v-191h-103v451h205q162 0 162 -126q0 -109 -101 -131l102 -179q99 84 99 214q0 122 -88.5 205
t-211.5 83q-121 0 -209 -83q-91 -85 -91 -205t89.5 -203.5t210.5 -83.5q102 0 182 58zM487 459q0 35 -64 35h-99v-63h108q55 0 55 28z" />
    <glyph glyph-name="copyright" unicode="&#xa9;" horiz-adv-x="777" 
d="M791 370q0 -163 -119.5 -274.5t-283.5 -111.5q-162 0 -282 112.5t-120 273.5q0 162 121 274q118 110 281 110q164 0 282 -109q121 -112 121 -275zM688 370q0 122 -88.5 205t-211.5 83q-121 0 -209 -83q-91 -85 -91 -205t89.5 -203.5t210.5 -83.5q123 0 211.5 82.5
t88.5 204.5zM584 504l-64 -60q-25 29 -49 45t-73 16q-59 0 -91.5 -38.5t-32.5 -99.5q0 -57 37 -91t94 -34q44 0 67.5 19t47.5 59l84 -56q-52 -68 -96 -94.5t-103 -26.5q-96 0 -165 63t-69 158q0 106 64 172.5t170 66.5q139 -15 179 -99z" />
    <glyph glyph-name="trademark" unicode="&#x2122;" horiz-adv-x="911" 
d="M899 327h-102v242l-107 -242h-65l-105 244v-244h-102v412h137l104 -235l107 235h133v-412zM384 646h-135v-319h-102v319h-135v93h372v-93z" />
    <glyph glyph-name="plusminus" unicode="&#xb1;" 
d="M549 277h-207v-157h-123v157h-207v116h207v159h123v-159h207v-116zM549 0h-537v116h537v-116z" />
    <glyph glyph-name="mu" unicode="&#xb5;" horiz-adv-x="497" 
d="M461 190q0 -101 -52 -160t-153 -59q-43 0 -92 26v-260h-127v723h127v-266q0 -106 86 -106q84 0 84 106v266h127v-270z" />
    <glyph glyph-name="mu" unicode="&#x3bc;" horiz-adv-x="497" 
d="M461 190q0 -101 -52 -160t-153 -59q-43 0 -92 26v-260h-127v723h127v-266q0 -106 86 -106q84 0 84 106v266h127v-270z" />
    <glyph glyph-name="logicalnot" unicode="&#xac;" 
d="M549 113h-124v156h-413v108h537v-264z" />
    <glyph glyph-name="nonbreakingspace" unicode="&#xa0;" horiz-adv-x="119" 
 />
    <glyph glyph-name="Agrave" unicode="&#xc0;" horiz-adv-x="682" 
d="M476 815l-75 -44l-191 170l120 59zM722 0h-141l-85 177h-308l-84 -177h-143l380 802zM442 296l-101 219l-98 -219h199z" />
    <glyph glyph-name="Atilde" unicode="&#xc3;" horiz-adv-x="682" 
d="M554 898q-20 -44 -56 -71q-39 -30 -85 -30q-26 0 -75.5 23.5t-75.5 23.5q-25 0 -52 -52l-78 62q55 96 133 96q34 0 84 -23.5t71 -23.5q26 0 57 57zM722 0h-141l-85 176h-308l-84 -176h-143l380 797zM442 295l-101 217l-98 -217h199z" />
    <glyph glyph-name="Otilde" unicode="&#xd5;" horiz-adv-x="803" 
d="M611 898q-20 -44 -55 -72q-39 -30 -85 -30q-24 0 -74.5 24t-76.5 24q-24 0 -50 -52l-79 61q55 97 133 97q37 0 85.5 -23.5t68.5 -23.5q30 0 58 57zM805 370q0 -161 -120 -274t-283 -113q-164 0 -283 111.5t-119 275.5q0 162 121 275q118 110 281 110t282 -110
q121 -113 121 -275zM674 370q0 112 -80 189.5t-192 77.5q-113 0 -192.5 -77.5t-79.5 -189.5q0 -111 80.5 -188t191.5 -77t191.5 77.5t80.5 187.5z" />
    <glyph glyph-name="divide" unicode="&#xf7;" horiz-adv-x="549" 
d="M344 423h-140v127h140v-127zM531 298h-513v110h513v-110zM344 156h-140v127h140v-127z" />
    <glyph glyph-name="ydieresis" unicode="&#xff;" horiz-adv-x="469" 
d="M416 606q0 -32 -23 -54.5t-55 -22.5q-30 0 -55 23.5t-25 53.5q0 32 23.5 54t55.5 22t55.5 -22t23.5 -54zM211 606q0 -33 -22.5 -55t-55.5 -22q-32 0 -55.5 22.5t-23.5 54.5t23 54t55 22t55.5 -22t23.5 -54zM516 469l-388 -732h-143l187 346l-220 386h149l141 -257
l129 257h145z" />
    <glyph glyph-name="Ydieresis" unicode="&#x178;" horiz-adv-x="555" 
d="M468 826q0 -33 -22.5 -54.5t-55.5 -21.5t-55.5 21.5t-22.5 54.5q0 32 22.5 54t54.5 22t55.5 -22t23.5 -54zM263 826q0 -34 -22 -55t-56 -21q-33 0 -56 21.5t-23 54.5q0 30 24 53t54 23q33 0 56 -21.5t23 -54.5zM597 746l-253 -423v-323h-131v323l-253 423h150l168 -284
l170 284h149z" />
    <glyph glyph-name="Acircumflex" unicode="&#xc2;" horiz-adv-x="682" 
d="M528 839l-90 -68l-97 89l-96 -89l-90 68l186 161zM722 0h-141l-85 177h-308l-84 -177h-143l380 801zM442 296l-101 219l-98 -219h199z" />
    <glyph glyph-name="Ecircumflex" unicode="&#xca;" horiz-adv-x="505" 
d="M438 840l-88 -69l-98 90l-98 -90l-87 69l185 160zM483 0h-433v744h433v-118h-302v-160h294v-118h-294v-230h302v-118z" />
    <glyph glyph-name="Aacute" unicode="&#xc1;" horiz-adv-x="682" 
d="M479 941l-195 -170l-72 44l145 185zM722 0h-141l-85 177h-308l-84 -177h-143l380 802zM442 296l-101 219l-98 -219h199z" />
    <glyph glyph-name="Edieresis" unicode="&#xcb;" horiz-adv-x="505" 
d="M446 887q0 -33 -22.5 -55t-55.5 -22t-56 22t-23 55q0 34 22.5 54.5t56.5 20.5t56 -21t22 -54zM242 887q0 -32 -23.5 -54.5t-55.5 -22.5q-33 0 -56 22t-23 55t22.5 54t56.5 21q33 0 56 -21t23 -54zM483 0h-433v748h433v-120h-302v-159h294v-120h-294v-230h302v-119z" />
    <glyph glyph-name="Egrave" unicode="&#xc8;" horiz-adv-x="505" 
d="M384 815l-73 -44l-193 170l121 59zM483 0h-433v745h433v-120h-302v-158h294v-119h-294v-229h302v-119z" />
    <glyph glyph-name="Iacute" unicode="&#xcd;" horiz-adv-x="225" 
d="M250 941l-193 -170l-75 44l146 185zM177 0h-131v745h131v-745z" />
    <glyph glyph-name="Icircumflex" unicode="&#xce;" horiz-adv-x="225" 
d="M298 840l-88 -69l-98 90l-97 -90l-90 68l187 161zM177 0h-131v744h131v-744z" />
    <glyph glyph-name="Idieresis" unicode="&#xcf;" horiz-adv-x="225" 
d="M293 887q0 -32 -23.5 -54.5t-55.5 -22.5t-55.5 23t-23.5 54q0 33 23 54t56 21q34 0 56.5 -20.5t22.5 -54.5zM88 887q0 -32 -23 -54.5t-55 -22.5q-33 0 -56.5 22t-23.5 55q0 34 23 54.5t57 20.5t56 -21t22 -54zM179 0h-131v748h131v-748z" />
    <glyph glyph-name="Igrave" unicode="&#xcc;" horiz-adv-x="225" 
d="M243 815l-74 -44l-193 170l121 59zM179 0h-131v745h131v-745z" />
    <glyph glyph-name="Oacute" unicode="&#xd3;" horiz-adv-x="803" 
d="M539 941l-194 -170l-72 44l145 185zM805 372q0 -162 -120 -275.5t-283 -113.5q-164 0 -283 113t-119 276t119 275t283 112t283.5 -112t119.5 -275zM674 372q0 113 -79.5 190.5t-192.5 77.5t-192.5 -77.5t-79.5 -190.5q0 -110 81 -188.5t191 -78.5q112 0 192 77.5
t80 189.5z" />
    <glyph glyph-name="Ocircumflex" unicode="&#xd4;" horiz-adv-x="803" 
d="M589 838l-89 -67l-98 88l-96 -88l-90 67l186 162zM805 372q0 -162 -120 -275.5t-283 -113.5q-164 0 -283 112.5t-119 276.5q0 163 120 276q118 110 282 110t282 -110q121 -113 121 -276zM674 372q0 112 -80 190t-192 78q-113 0 -192.5 -77.5t-79.5 -190.5
q0 -111 80.5 -189t191.5 -78t191.5 78.5t80.5 188.5z" />
    <glyph glyph-name="Ograve" unicode="&#xd2;" horiz-adv-x="803" 
d="M531 814l-72 -45l-191 171l119 60zM805 372q0 -162 -120 -275.5t-283 -113.5q-164 0 -283 113t-119 276t119 275t283 112t283.5 -112t119.5 -275zM674 372q0 113 -79.5 190.5t-192.5 77.5t-192.5 -77.5t-79.5 -190.5q0 -110 81 -188.5t191 -78.5q112 0 192 77.5t80 189.5
z" />
    <glyph glyph-name="Uacute" unicode="&#xda;" horiz-adv-x="650" 
d="M461 942l-194 -171l-73 44l145 185zM613 277q0 -129 -80 -211.5t-209 -82.5q-124 0 -205.5 82t-81.5 207v473h131v-452q0 -188 156 -188q158 0 158 196v444h131v-468z" />
    <glyph glyph-name="Ucircumflex" unicode="&#xdb;" horiz-adv-x="650" 
d="M512 839l-88 -68l-98 89l-98 -89l-87 68l185 161zM615 276q0 -128 -80.5 -210.5t-208.5 -82.5q-124 0 -205.5 82.5t-81.5 206.5v472h131v-451q0 -188 156 -188q158 0 158 195v444h131v-468z" />
    <glyph glyph-name="Ugrave" unicode="&#xd9;" horiz-adv-x="650" 
d="M446 815l-74 -44l-193 170l121 59zM613 277q0 -129 -80 -211.5t-209 -82.5q-124 0 -205.5 82t-81.5 207v473h131v-452q0 -188 156 -188q158 0 158 196v444h131v-468z" />
    <glyph glyph-name="dotoperator" 
d="M485 371q0 -81 -61.5 -133.5t-143.5 -52.5q-78 0 -139 53q-64 56 -64 133q0 78 63 133q60 51 140 51q81 0 143 -52t62 -132z" />
    <glyph glyph-name="GS" horiz-adv-x="0" 
 />
    <glyph glyph-name="BS" horiz-adv-x="0" 
 />
    <glyph glyph-name="glyph224" horiz-adv-x="449" 
d="M503 0h-167l-155 189l-8 -7v-182h-127l-2 736h128l1 -398l143 140h171l-214 -204z" />
  </font>
</defs>
</svg>
