<?xml version="1.0" standalone="no"?>
<!DOCTYPE svg PUBLIC "-//W3C//DTD SVG 1.1//EN" "http://www.w3.org/Graphics/SVG/1.1/DTD/svg11.dtd" >
<svg xmlns="http://www.w3.org/2000/svg" xmlns:xlink="http://www.w3.org/1999/xlink" version="1.1">
<metadata>
Created by FontForge 20161013 at Fri Mar 20 23:38:28 2015
 By ,,,
Copyright (c) 2011 by GM. All rights reserved.
</metadata>
<defs>
<font id="Louis-Bold" horiz-adv-x="1187" >
  <font-face 
    font-family="Louis Bold"
    font-weight="450"
    font-stretch="normal"
    units-per-em="2048"
    panose-1="0 0 0 0 0 0 0 0 0 0"
    ascent="1536"
    descent="-512"
    x-height="1147"
    cap-height="1536"
    bbox="-166 -500 1831 2132"
    underline-thickness="102"
    underline-position="-306"
    unicode-range="U+0020-FB02"
  />
<missing-glyph horiz-adv-x="748" 
d="M68 0v1365h544v-1365h-544zM136 68h408v1229h-408v-1229z" />
    <glyph glyph-name="uniFB01" unicode="fi" horiz-adv-x="1251" 
d="M37 899v248h170v67q0 212 115.5 314t328.5 102q92 0 146 -6v-270q-50 4 -103 4q-105 0 -151.5 -35.5t-46.5 -126.5v-49h610v-1147h-289v899h-321v-899h-289v899h-170z" />
    <glyph glyph-name="uniFB02" unicode="fl" horiz-adv-x="1286" 
d="M37 899v248h170v67q0 212 115.5 314t328.5 102q250 0 490 -22v-1608h-289v1354q-59 4 -158 4q-105 0 -151.5 -35.5t-46.5 -126.5v-49h231v-248h-231v-899h-289v899h-170z" />
    <glyph glyph-name=".notdef" horiz-adv-x="748" 
d="M68 0v1365h544v-1365h-544zM136 68h408v1229h-408v-1229z" />
    <glyph glyph-name="glyph1" horiz-adv-x="0" 
 />
    <glyph glyph-name="glyph2" horiz-adv-x="682" 
 />
    <glyph glyph-name="space" unicode=" " horiz-adv-x="450" 
 />
    <glyph glyph-name="exclam" unicode="!" horiz-adv-x="581" 
d="M131 1536h320l-48 -1022h-225zM135 0v322h311v-322h-311z" />
    <glyph glyph-name="quotedbl" unicode="&#x22;" horiz-adv-x="851" 
d="M98 954v582h291l-55 -582h-236zM504 954v582h291l-56 -582h-235z" />
    <glyph glyph-name="numbersign" unicode="#" horiz-adv-x="1179" 
d="M61 367v180h195l37 340h-199v180h217l39 367h195l-39 -367h235l39 367h195l-39 -367h180v-180h-198l-37 -340h202v-180h-221l-37 -367h-194l37 367h-236l-37 -367h-194l37 367h-177zM451 547h235l37 340h-236z" />
    <glyph glyph-name="dollar" unicode="$" horiz-adv-x="1179" 
d="M111 504h245q3 -80 55 -143t132 -76v391q-68 26 -111.5 45t-94 46.5t-81 57.5t-58 70.5t-39.5 92.5t-12 116q0 159 109 257t287 116v182h123v-184q182 -16 290 -127.5t101 -309.5h-250q0 77 -36.5 136.5t-104.5 70.5v-350q90 -31 158.5 -67t125.5 -87.5t87 -122.5
t30 -159q0 -167 -112 -275t-289 -127v-200h-123v200q-200 13 -314.5 136.5t-117.5 310.5zM395 1104q0 -113 148 -168v311q-76 -14 -112 -54t-36 -89zM666 289q67 18 108 62t41 110q0 113 -149 172v-344z" />
    <glyph glyph-name="percent" unicode="%" horiz-adv-x="1179" 
d="M8 1219v18q0 145 82 232t209 87t209 -87t82 -232v-18q0 -145 -82 -233.5t-209 -88.5t-209 88.5t-82 233.5zM133 0l739 1536h172l-739 -1536h-172zM201 1219q0 -67 26 -104.5t72 -37.5t72 37.5t26 104.5v18q0 67 -26 104t-72 37t-72 -37t-26 -104v-18zM588 301v18
q0 145 82 232.5t209 87.5t208.5 -87.5t81.5 -232.5v-18q0 -145 -81.5 -233t-208.5 -88t-209 88t-82 233zM780 301q0 -67 26.5 -104t72.5 -37t72 37t26 104v18q0 67 -26 104.5t-72 37.5t-72.5 -37.5t-26.5 -104.5v-18z" />
    <glyph glyph-name="ampersand" unicode="&#x26;" horiz-adv-x="1341" 
d="M78 428q0 234 239 395q-133 170 -133 346q0 121 57.5 211t145.5 133t191 43q184 0 293.5 -97.5t109.5 -262.5q0 -112 -72 -227t-207 -203l209 -244q44 134 50 252h268q-25 -258 -133 -467l241 -276v-31h-333l-97 115q-163 -133 -342 -133q-212 0 -349.5 121.5
t-137.5 324.5zM352 428q0 -91 57.5 -141.5t149.5 -50.5q112 0 191 69l-283 328q-49 -38 -82 -91.5t-33 -113.5zM453 1165q0 -43 27 -103t71 -114q78 45 120 109.5t42 122.5q0 47 -34 85t-93 38q-65 0 -99 -40t-34 -98z" />
    <glyph glyph-name="quotesingle" unicode="'" horiz-adv-x="446" 
d="M98 954v582h291l-55 -582h-236z" />
    <glyph glyph-name="parenleft" unicode="(" horiz-adv-x="761" 
d="M125 684q0 580 373 1059h247q-342 -495 -342 -1059q0 -562 342 -1057h-247q-373 479 -373 1057z" />
    <glyph glyph-name="parenright" unicode=")" horiz-adv-x="761" 
d="M16 -373q342 495 342 1059q0 562 -342 1057h248q373 -479 373 -1057q0 -580 -373 -1059h-248z" />
    <glyph glyph-name="asterisk" unicode="*" horiz-adv-x="954" 
d="M49 1165l68 209l272 -110l-24 292h225l-25 -292l273 110l67 -209l-287 -69q29 -35 94.5 -108.5t98.5 -113.5l-182 -133l-152 248l-151 -248l-183 133l193 222q-43 11 -141 33.5t-146 35.5z" />
    <glyph glyph-name="plus" unicode="+" horiz-adv-x="1179" 
d="M51 494v241h416v453h246v-453h415v-241h-415v-453h-246v453h-416z" />
    <glyph glyph-name="comma" unicode="," horiz-adv-x="522" 
d="M78 -260q102 32 144 95t42 136q0 29 -26 29h-154v354h350v-268q0 -103 -16 -166q-29 -121 -111.5 -203t-228.5 -102v125z" />
    <glyph glyph-name="hyphen" unicode="-" horiz-adv-x="905" 
d="M78 678v242h749v-242h-749z" />
    <glyph glyph-name="period" unicode="." horiz-adv-x="542" 
d="M100 0v354h342v-354h-342z" />
    <glyph glyph-name="slash" unicode="/" horiz-adv-x="901" 
d="M33 -158l598 1805h237l-596 -1805h-239z" />
    <glyph glyph-name="zero" unicode="0" horiz-adv-x="1241" 
d="M129 498v540q0 125 25 205q44 143 173 228t294 85t293.5 -85t172.5 -228q25 -80 25 -205v-540q0 -125 -25 -205q-44 -143 -172.5 -228t-293.5 -85t-294 85t-173 228q-25 80 -25 205zM428 500q0 -82 16 -123q20 -51 67.5 -80t109.5 -29t109 29t67 80q16 41 16 123v536
q0 82 -16 123q-20 51 -67 80t-109 29t-109.5 -29t-67.5 -80q-16 -41 -16 -123v-536z" />
    <glyph glyph-name="one" unicode="1" horiz-adv-x="825" 
d="M41 930v332l356 274h256v-1536h-299v1171z" />
    <glyph glyph-name="two" unicode="2" horiz-adv-x="1142" 
d="M106 0v123q0 94 20 178t50.5 146t78.5 122t91.5 101t102.5 88q136 108 179 150q113 117 115 233q0 72 -44 110.5t-119 38.5q-172 0 -172 -188v-45h-291v45q0 98 33 184q50 124 165 197t265 73q199 0 330.5 -113t131.5 -298q0 -69 -19 -134.5t-49 -118t-76.5 -106
t-90 -93.5t-100.5 -85q-58 -46 -90.5 -73.5t-82 -75.5t-76 -92.5t-30.5 -85.5h616v-281h-938z" />
    <glyph glyph-name="three" unicode="3" horiz-adv-x="1171" 
d="M70 453h290q3 -197 211 -197q92 0 150.5 57t58.5 152q0 87 -66.5 150t-193.5 63h-127v262h127q113 0 169 54t56 136q0 68 -49 112t-121 44q-90 0 -136 -47.5t-46 -132.5h-293q0 199 132 324.5t343 125.5q208 0 337.5 -110.5t129.5 -278.5q0 -240 -206 -348
q63 -28 111 -73.5t75.5 -98.5t41 -106.5t13.5 -104.5q0 -193 -144.5 -324.5t-361.5 -131.5q-231 0 -366 128t-135 345z" />
    <glyph glyph-name="four" unicode="4" horiz-adv-x="1210" 
d="M66 362v242l550 952h351v-925h202v-269h-202v-362h-297v362h-604zM385 631h285v514h-2z" />
    <glyph glyph-name="five" unicode="5" horiz-adv-x="1202" 
d="M127 475h297q3 -106 49.5 -157.5t128.5 -51.5q60 0 107 29.5t69 81.5q17 38 17 117v81q0 61 -11 107q-30 109 -168 109q-128 0 -198 -113l-271 2v856h871v-281h-574v-280q106 96 252 96q142 0 243.5 -81t137.5 -230q17 -67 17 -166v-107q0 -119 -25 -196
q-104 -311 -465 -311q-207 0 -339 134t-138 361z" />
    <glyph glyph-name="six" unicode="6" horiz-adv-x="1222" 
d="M129 498v540q0 125 25 205q44 143 171.5 228t292.5 85q89 0 167.5 -24.5t143.5 -73.5t108.5 -128.5t56.5 -182.5h-314q-33 125 -162 125q-61 0 -107.5 -30t-66.5 -81q-16 -41 -16 -125v-151q105 114 270 114q143 0 248.5 -73.5t145.5 -214.5q20 -67 20 -172v-41
q0 -125 -25 -205q-44 -143 -172.5 -228t-293.5 -85t-294 85t-173 228q-25 80 -25 205zM428 500q0 -82 16 -123q20 -51 67.5 -80t109.5 -29t109 29t67 80q16 41 16 123v18q0 66 -12 107q-26 96 -158 96q-90 0 -152.5 -58.5t-62.5 -154.5v-8z" />
    <glyph glyph-name="seven" unicode="7" horiz-adv-x="1060" 
d="M53 1255v281h946v-236q-182 -341 -299.5 -676.5t-142.5 -623.5h-317q26 278 142 606.5t282 648.5h-611z" />
    <glyph glyph-name="eight" unicode="8" horiz-adv-x="1208" 
d="M92 446q0 123 61 223t162 146q-87 55 -137.5 145.5t-50.5 190.5q0 188 129.5 296.5t347.5 108.5t347.5 -108.5t129.5 -296.5q0 -100 -50.5 -190.5t-137.5 -145.5q100 -46 161.5 -146.5t61.5 -222.5q0 -199 -139 -332.5t-373 -133.5t-373 133.5t-139 332.5zM389 467
q0 -100 58 -160.5t157 -60.5t157 60.5t58 160.5q0 81 -56 140t-159 59t-159 -59t-56 -140zM424 1147q0 -75 48.5 -125.5t131.5 -50.5t131.5 50.5t48.5 125.5t-49.5 117.5t-130.5 42.5t-130.5 -42.5t-49.5 -117.5z" />
    <glyph glyph-name="nine" unicode="9" horiz-adv-x="1222" 
d="M111 997v41q0 128 24 205q44 143 173 228t294 85t294 -85t173 -228q25 -80 25 -205v-540q0 -125 -25 -205q-44 -143 -172 -228t-293 -85q-120 0 -218.5 42t-168.5 136t-88 231h313q34 -125 162 -125q61 0 107.5 30t66.5 81q17 44 17 125v151q-105 -114 -271 -114
q-143 0 -248 73.5t-145 214.5q-20 67 -20 172zM410 1018q0 -66 12 -107q26 -96 158 -96q90 0 152.5 58.5t62.5 154.5v8q0 79 -17 123q-20 51 -67 80t-109 29t-109 -29t-67 -80q-16 -41 -16 -123v-18z" />
    <glyph glyph-name="colon" unicode=":" horiz-adv-x="577" 
d="M119 0v354h342v-354h-342zM119 793v354h342v-354h-342z" />
    <glyph glyph-name="semicolon" unicode=";" horiz-adv-x="577" 
d="M111 -260q102 32 144 95t42 136q0 29 -27 29h-153v354h350v-268q0 -103 -16 -166q-29 -121 -111.5 -203t-228.5 -102v125zM117 793v354h342v-354h-342z" />
    <glyph glyph-name="less" unicode="&#x3c;" horiz-adv-x="1148" 
d="M102 489v250l945 441v-267l-682 -299l682 -299v-266z" />
    <glyph glyph-name="equal" unicode="=" horiz-adv-x="1118" 
d="M92 268v242h934v-242h-934zM92 719v242h934v-242h-934z" />
    <glyph glyph-name="greater" unicode="&#x3e;" horiz-adv-x="1148" 
d="M102 49v266l682 299l-682 299v267l945 -441v-250z" />
    <glyph glyph-name="question" unicode="?" horiz-adv-x="1036" 
d="M61 1077v47q0 187 128 309.5t315 122.5q216 0 336.5 -106t120.5 -262q0 -58 -14.5 -107.5t-38 -83t-54 -64.5t-63 -54t-64 -51t-57 -54.5t-42.5 -65.5t-20.5 -83.5t8.5 -108.5h-266q-23 91 -18 156.5t31.5 121t63.5 94.5t79 77t77.5 68.5t59 68t23.5 76.5q0 58 -45 91.5
t-117 33.5q-74 0 -121 -52.5t-47 -126.5v-47h-275zM338 0v322h311v-322h-311z" />
    <glyph glyph-name="at" unicode="@" horiz-adv-x="1908" 
d="M125 461l29 270q17 167 68.5 302t128.5 227.5t179 155.5t216.5 91.5t242.5 28.5h47q131 0 241 -24t206 -79t162 -139t101.5 -211.5t31.5 -289.5q-4 -145 -32.5 -276.5t-79.5 -236.5t-131.5 -165t-178.5 -54q-77 4 -132.5 50t-80.5 125q-59 -84 -133 -125t-150 -41
q-173 0 -256.5 124t-56.5 302l28 206q30 211 140.5 324t275.5 113q72 0 133 -38.5t101 -109.5l39 121h151l-102 -729q-3 -25 -4.5 -42t-0.5 -46t8 -46.5t25 -31.5t45 -14q69 0 126 93.5t87.5 226t34.5 270.5q5 164 -39 283t-128.5 187t-191 99t-239.5 31h-47
q-102 0 -193.5 -24.5t-173 -77t-144 -129.5t-105 -187.5t-56.5 -245.5l-28 -270q-14 -133 14.5 -246t95 -197.5t177.5 -132t255 -47.5h25q125 0 253.5 33t209.5 82l51 -131q-99 -55 -244 -91t-280 -36h-25q-173 0 -311.5 54t-229.5 152.5t-132 242.5t-23 319zM764 432.5
q3 -38.5 12.5 -71t39 -54.5t75.5 -22q79 0 144.5 71.5t78.5 157.5l23 176q8 62 -2.5 113t-47 86t-96.5 35q-78 0 -131.5 -68t-66.5 -164l-25 -188q-7 -33 -4 -71.5z" />
    <glyph glyph-name="A" unicode="A" horiz-adv-x="1253" 
d="M20 0l431 1536h352l430 -1536h-305l-103 395h-397l-102 -395h-306zM502 674h250l-123 485h-8z" />
    <glyph glyph-name="B" unicode="B" horiz-adv-x="1271" 
d="M152 0v1536h477q137 0 223 -25q132 -41 205 -136t73 -238q0 -215 -208 -330q129 -50 193.5 -147.5t64.5 -213.5q0 -148 -76.5 -259t-210.5 -158q-85 -29 -217 -29h-524zM451 285h213q78 0 120 22q46 23 71.5 65.5t25.5 94.5q0 56 -29.5 99.5t-83.5 66.5q-43 16 -119 16
h-198v-364zM451 911h178q60 0 100 19q47 21 76 64.5t29 101.5q0 103 -103 141q-40 12 -100 12h-180v-338z" />
    <glyph glyph-name="C" unicode="C" horiz-adv-x="1255" 
d="M129 516v504q0 144 39 235q58 142 187.5 221.5t283.5 79.5h16q156 0 287 -79.5t186 -221.5q38 -93 41 -260h-303q-3 119 -24 164q-25 55 -75.5 83t-107.5 28h-24q-58 0 -107 -27.5t-75 -83.5q-25 -52 -25 -139v-500q0 -90 25 -145q26 -55 75 -82t107 -27h24
q58 0 107.5 26.5t75.5 82.5q22 48 22 178h303q-3 -179 -39 -272q-55 -143 -184 -222t-285 -79h-20q-154 0 -283.5 79.5t-187.5 221.5q-39 91 -39 235z" />
    <glyph glyph-name="D" unicode="D" horiz-adv-x="1296" 
d="M152 0v1536h485q181 0 306.5 -77t184.5 -224q39 -98 39 -236v-462q0 -138 -39 -236q-59 -147 -184.5 -224t-306.5 -77h-485zM449 287h196q79 0 127 26t76 84q22 48 22 144v452q0 96 -22 144q-28 58 -76 84t-127 26h-196v-960z" />
    <glyph glyph-name="E" unicode="E" horiz-adv-x="1157" 
d="M152 0v1536h927v-276h-628v-334h518v-277h-518v-373h628v-276h-927z" />
    <glyph glyph-name="F" unicode="F" horiz-adv-x="1150" 
d="M152 0v1536h931v-276h-632v-336h518v-277h-518v-647h-299z" />
    <glyph glyph-name="G" unicode="G" horiz-adv-x="1300" 
d="M129 516v504q0 144 39 235q58 142 187.5 221.5t283.5 79.5h16q156 0 287 -79.5t186 -221.5q33 -88 39 -215h-303q-7 85 -22 119q-25 55 -75.5 83t-107.5 28h-24q-58 0 -107 -27.5t-75 -83.5q-25 -52 -25 -139v-500q0 -90 25 -145q26 -55 76.5 -82t109.5 -27h14
q91 0 153 61.5t62 182.5v39h-231v264h526v-813h-129l-49 170h-2q-54 -92 -145.5 -141t-204.5 -49h-15q-140 0 -266 80t-184 221q-39 91 -39 235z" />
    <glyph glyph-name="H" unicode="H" horiz-adv-x="1363" 
d="M152 0v1536h299v-592h462v592h299v-1536h-299v657h-462v-657h-299z" />
    <glyph glyph-name="I" unicode="I" horiz-adv-x="602" 
d="M152 0v1536h299v-1536h-299z" />
    <glyph glyph-name="J" unicode="J" horiz-adv-x="1161" 
d="M88 500v96h297v-104q0 -97 29 -150q44 -78 139 -78q93 0 139 78q29 53 29 141v1053h297v-1055q0 -134 -43 -239q-53 -124 -162.5 -193t-259.5 -69q-148 0 -257 68.5t-163 193.5q-45 102 -45 258z" />
    <glyph glyph-name="K" unicode="K" horiz-adv-x="1292" 
d="M152 0v1536h297v-580l2 -2q38 49 71 90l398 492h348l-500 -602l518 -934h-342l-375 705l-120 -158v-547h-297z" />
    <glyph glyph-name="L" unicode="L" horiz-adv-x="1150" 
d="M152 0v1536h299v-1251h643v-285h-942z" />
    <glyph glyph-name="M" unicode="M" horiz-adv-x="1605" 
d="M152 0v1536h325l326 -819l325 819h326v-1536h-278v858l2 119h-2l-287 -696h-172l-287 696h-2q2 -68 2 -119v-858h-278z" />
    <glyph glyph-name="N" unicode="N" horiz-adv-x="1363" 
d="M152 0v1536h313l469 -981h2q-2 68 -2 119v862h278v-1536h-315l-467 981h-2q2 -68 2 -119v-862h-278z" />
    <glyph glyph-name="O" unicode="O" horiz-adv-x="1292" 
d="M129 516v504q0 142 37 235q58 143 187 222t282 79h22q152 0 280.5 -79.5t186.5 -221.5q39 -91 39 -235v-504q0 -144 -39 -235q-58 -142 -186.5 -221.5t-280.5 -79.5h-22q-153 0 -282 79t-187 222q-37 93 -37 235zM428 520q0 -102 23 -147q52 -109 184 -109h22
q59 0 109 27t76 82q22 48 22 147v496q0 99 -22 147q-26 55 -76 82t-109 27h-22q-132 0 -184 -109q-23 -45 -23 -147v-496z" />
    <glyph glyph-name="P" unicode="P" horiz-adv-x="1284" 
d="M152 0v1536h497q146 0 242 -35q137 -52 218 -172t81 -282q0 -159 -81 -278.5t-218 -172.5q-79 -33 -232 -33h-208v-563h-299zM451 848h196q94 0 144 26q46 25 73 71.5t27 101.5q0 58 -27 104.5t-73 71.5q-45 26 -144 26h-196v-401z" />
    <glyph glyph-name="Q" unicode="Q" horiz-adv-x="1292" 
d="M129 516v504q0 142 37 235q58 143 187 222t282 79h22q152 0 280.5 -79.5t186.5 -221.5q39 -91 39 -235v-504q0 -144 -39 -235q-40 -98 -114 -166q94 -33 276 -37v-254q-193 6 -325.5 44t-237.5 116q-46 -4 -66 -4h-22q-153 0 -282 79t-187 222q-37 93 -37 235zM428 520
q0 -102 23 -147q52 -109 184 -109h22q59 0 109 27t76 82q22 48 22 147v496q0 99 -22 147q-26 55 -76 82t-109 27h-22q-132 0 -184 -109q-23 -45 -23 -147v-496z" />
    <glyph glyph-name="R" unicode="R" horiz-adv-x="1271" 
d="M152 0v1536h473q102 0 180 -16q155 -35 242.5 -135t87.5 -257q0 -117 -60 -208.5t-174 -143.5v-2q101 -36 153.5 -105t61.5 -186l23 -274q11 -140 86 -197v-12h-320q-49 52 -61 184l-21 242q-9 108 -64 154.5t-173 46.5h-137v-627h-297zM449 899h165q104 0 162 53t58 140
q0 120 -123 149q-45 10 -105 10h-157v-352z" />
    <glyph glyph-name="S" unicode="S" horiz-adv-x="1230" 
d="M84 477h295q4 -99 70 -162t165 -63q97 0 158.5 47t61.5 131q0 127 -201 201l-129 47q-71 26 -121.5 50.5t-102.5 62.5t-83.5 83t-51.5 111t-20 148q0 130 67.5 227.5t179 146.5t249.5 49q110 0 200.5 -28.5t158.5 -85.5q68 -58 104 -152q31 -83 31 -187q0 -15 -1 -30
h-293q0 95 -55 152t-158 57q-89 0 -136.5 -40.5t-47.5 -106.5t41 -108.5t119 -70.5l131 -45q95 -32 167.5 -73.5t130.5 -98.5t89 -134t31 -171q0 -202 -144.5 -328t-367.5 -126q-248 0 -389.5 136.5t-147.5 360.5z" />
    <glyph glyph-name="T" unicode="T" horiz-adv-x="1157" 
d="M41 1249v287h1075v-287h-387v-1249h-299v1249h-389z" />
    <glyph glyph-name="U" unicode="U" horiz-adv-x="1320" 
d="M143 516v1020h299v-1016q0 -102 23 -147q52 -109 184 -109h23q58 0 108 27t76 82q23 50 23 147v1016h299v-1020q0 -144 -39 -235q-58 -142 -186.5 -221.5t-280.5 -79.5h-23q-153 0 -282 79t-187 222q-37 93 -37 235z" />
    <glyph glyph-name="V" unicode="V" horiz-adv-x="1257" 
d="M20 1536h310l295 -1169h4l299 1169h309l-428 -1536h-360z" />
    <glyph glyph-name="W" unicode="W" horiz-adv-x="1880" 
d="M49 1536h318l174 -1069h12l235 1069h304l235 -1069h12l174 1069h318l-313 -1536h-351l-227 1044l-227 -1044h-351z" />
    <glyph glyph-name="X" unicode="X" horiz-adv-x="1286" 
d="M14 0l463 809l-411 727h342l233 -461l236 461h342l-410 -727l463 -809h-342l-289 545l-287 -545h-340z" />
    <glyph glyph-name="Y" unicode="Y" horiz-adv-x="1265" 
d="M2 1536h338l289 -565h4l293 565h338l-482 -862v-674h-299v672z" />
    <glyph glyph-name="Z" unicode="Z" horiz-adv-x="1222" 
d="M88 0v240l649 1009h-631v287h1004v-240l-649 -1011h669v-285h-1042z" />
    <glyph glyph-name="bracketleft" unicode="[" horiz-adv-x="808" 
d="M170 -389v2148h612v-190h-346v-1768h346v-190h-612z" />
    <glyph glyph-name="backslash" unicode="\" horiz-adv-x="901" 
d="M33 1647h237l598 -1805h-239z" />
    <glyph glyph-name="bracketright" unicode="]" horiz-adv-x="808" 
d="M27 -199h346v1768h-346v190h612v-2148h-612v190z" />
    <glyph glyph-name="asciicircum" unicode="^" horiz-adv-x="1040" 
d="M57 799l342 757h242l342 -757h-256l-207 497l-207 -497h-256z" />
    <glyph glyph-name="underscore" unicode="_" horiz-adv-x="905" 
d="M-4 -115h913v-213h-913v213z" />
    <glyph glyph-name="grave" unicode="`" horiz-adv-x="1097" 
d="M203 1704l2 25h317l240 -383h-199z" />
    <glyph glyph-name="a" unicode="a" horiz-adv-x="1142" 
d="M98 360q0 122 61.5 207.5t172.5 124.5q89 29 211 29h172v29q0 190 -156 190q-65 0 -103.5 -32t-49.5 -87h-277q27 170 146 258t305 88q155 0 254 -63.5t141 -181.5q29 -80 29 -211v-711h-177l-30 176h-2q-106 -196 -322 -196q-165 0 -270 98.5t-105 281.5zM385 371
q0 -70 35.5 -109t107.5 -39q83 0 136 66t53 172v47h-154q-62 0 -92 -12q-41 -15 -63.5 -48t-22.5 -77z" />
    <glyph glyph-name="b" unicode="b" 
d="M145 0v1608h289v-447l-2 -119h2q110 125 273 125q126 0 221 -78t131 -215q20 -70 20 -186v-213q0 -113 -18 -186q-37 -150 -140.5 -229.5t-248.5 -79.5q-95 0 -177.5 43t-132.5 122h-2l-24 -145h-191zM434 502q0 -58 10 -103q18 -64 64 -105.5t108 -41.5q60 0 102 33.5
t60 91.5q13 47 13 115v170q0 74 -15 118q-35 113 -151 113q-54 0 -101 -37.5t-71 -93.5q-19 -46 -19 -115v-145z" />
    <glyph glyph-name="c" unicode="c" horiz-adv-x="1107" 
d="M109 469v209q0 115 32 213q47 130 159.5 203t266.5 73t266.5 -73t159.5 -203q26 -79 31 -158h-293q-3 29 -12 53q-19 52 -58.5 80.5t-93.5 28.5q-112 0 -151 -109q-19 -52 -19 -131v-163q0 -80 19 -132q39 -108 151 -108q113 0 152 108q2 6 5.5 19.5t4.5 17.5h293
q-5 -76 -29 -141q-45 -131 -158 -203.5t-268 -72.5q-154 0 -266.5 73t-159.5 203q-32 98 -32 213z" />
    <glyph glyph-name="d" unicode="d" 
d="M109 475v199q0 112 18 186q37 148 135.5 227.5t222.5 79.5q162 0 269 -104h2q-2 68 -2 119v426h288v-1608h-190l-25 145h-2q-50 -79 -132 -122t-177 -43q-145 0 -248.5 79.5t-140.5 229.5q-18 73 -18 186zM397 487q0 -75 15 -118q35 -113 151 -113q54 0 101 37.5t71 93.5
q19 46 19 115v145q0 53 -11 103q-18 64 -64 105.5t-108 41.5q-60 0 -101.5 -33.5t-59.5 -91.5q-13 -47 -13 -115v-170z" />
    <glyph glyph-name="e" unicode="e" horiz-adv-x="1132" 
d="M109 469v209q0 115 32 213q47 130 159.5 203t266.5 73t266.5 -73t159.5 -203q33 -101 33 -213v-182h-629v-29q0 -79 19 -131q39 -109 151 -109q114 0 156 125h293q-6 -49 -23 -96q-45 -131 -158 -203.5t-268 -72.5q-154 0 -266.5 73t-159.5 203q-32 98 -32 213zM397 713
h340q-3 63 -18 104q-19 52 -58.5 80.5t-93.5 28.5q-112 0 -151 -109q-16 -44 -19 -104z" />
    <glyph glyph-name="f" unicode="f" horiz-adv-x="782" 
d="M37 899v248h170v67q0 212 115.5 314t328.5 102q71 0 125 -6v-270q-50 4 -82 4q-105 0 -151.5 -35.5t-46.5 -126.5v-49h252v-248h-252v-899h-289v899h-170z" />
    <glyph glyph-name="g" unicode="g" 
d="M109 479v193q0 112 18 186q37 150 140.5 229.5t248.5 79.5q95 0 176.5 -43.5t132.5 -122.5h2l25 146h190v-1135q0 -115 -20 -182q-43 -149 -159 -233t-279 -84q-179 0 -304 100t-157 283h283q13 -59 62 -94t116 -35q78 0 124 56.5t46 162.5v20l2 119h-2
q-110 -125 -273 -125q-126 0 -221 78t-131 215q-20 70 -20 186zM397 506q0 -76 15 -119q35 -113 149 -113q53 0 99.5 37.5t70.5 94.5q19 46 19 114v125q0 53 -11 103q-18 65 -63 106t-107 41q-60 0 -100.5 -33t-58.5 -92q-13 -47 -13 -115v-149z" />
    <glyph glyph-name="h" unicode="h" horiz-adv-x="1218" 
d="M145 0v1608h289v-447l-2 -119h2q110 125 273 125q126 0 221 -78t131 -215q20 -70 20 -186v-688h-288v662q0 74 -15 118q-35 113 -151 113q-54 0 -101 -37.5t-71 -93.5q-19 -46 -19 -115v-647h-289z" />
    <glyph glyph-name="i" unicode="i" horiz-adv-x="567" 
d="M139 0v1147h289v-1147h-289zM139 1311v288h289v-288h-289z" />
    <glyph glyph-name="j" unicode="j" horiz-adv-x="587" 
d="M-94 -207q50 -4 76 -4q92 0 135 40t43 132v1186h289v-1194q0 -224 -112 -330t-312 -106q-65 0 -119 6v270zM160 1311v288h289v-288h-289z" />
    <glyph glyph-name="k" unicode="k" horiz-adv-x="1146" 
d="M145 0v1608h289v-809l326 348h360l-393 -408l408 -739h-342l-279 553l-80 -86v-467h-289z" />
    <glyph glyph-name="l" unicode="l" horiz-adv-x="579" 
d="M145 0v1608h289v-1608h-289z" />
    <glyph glyph-name="m" unicode="m" horiz-adv-x="1814" 
d="M145 0v1147h183l26 -146h2q51 79 133 122.5t181 43.5q100 0 179.5 -42t129.5 -119q51 76 132.5 118.5t178.5 42.5q139 0 234.5 -77t132.5 -216q18 -74 18 -186v-688h-289v662q0 231 -151 231q-52 0 -95.5 -37t-66.5 -94q-18 -45 -18 -92v-670h-289v662q0 231 -152 231
q-52 0 -95 -37t-66 -94q-19 -46 -19 -115v-647h-289z" />
    <glyph glyph-name="n" unicode="n" horiz-adv-x="1218" 
d="M145 0v1147h191l24 -146h2q51 79 135 122.5t185 43.5q142 0 241 -77.5t136 -215.5q20 -70 20 -186v-688h-288v662q0 74 -15 118q-35 113 -151 113q-54 0 -101 -37.5t-71 -93.5q-19 -46 -19 -115v-647h-289z" />
    <glyph glyph-name="o" unicode="o" horiz-adv-x="1134" 
d="M109 469v209q0 115 32 213q47 130 159.5 203t266.5 73t266.5 -73t159.5 -203q33 -101 33 -213v-209q0 -112 -33 -213q-47 -130 -159.5 -203t-266.5 -73t-266.5 73t-159.5 203q-32 98 -32 213zM397 492q0 -80 19 -132q39 -108 151 -108q113 0 152 108q18 50 18 132v163
q0 81 -18 131q-19 52 -58.5 80.5t-93.5 28.5q-112 0 -151 -109q-19 -52 -19 -131v-163z" />
    <glyph glyph-name="p" unicode="p" 
d="M145 -500v1647h191l24 -146h2q51 79 133 122.5t177 43.5q145 0 248.5 -79.5t140.5 -229.5q18 -74 18 -186v-199q0 -113 -18 -186q-37 -148 -136 -227.5t-223 -79.5q-161 0 -268 104h-2q2 -68 2 -119v-465h-289zM434 500q0 -58 10 -103q18 -64 64 -105.5t108 -41.5
q60 0 102 33.5t60 91.5q13 47 13 114v170q0 75 -15 119q-35 113 -151 113q-54 0 -101 -37.5t-71 -93.5q-19 -46 -19 -115v-145z" />
    <glyph glyph-name="q" unicode="q" 
d="M109 459v213q0 112 18 186q37 150 140.5 229.5t248.5 79.5q95 0 176.5 -43.5t132.5 -122.5h2l25 146h190v-1647h-288v486l2 118h-2q-109 -124 -273 -124q-126 0 -221 77.5t-131 214.5q-20 70 -20 187zM397 485q0 -75 15 -118q35 -113 151 -113q54 0 101 37.5t71 93.5
q19 46 19 115v145q0 53 -11 103q-18 64 -64 105.5t-108 41.5q-60 0 -101.5 -33.5t-59.5 -91.5q-13 -47 -13 -115v-170z" />
    <glyph glyph-name="r" unicode="r" horiz-adv-x="913" 
d="M145 0v1147h191l31 -176h2q123 196 329 196q90 0 172 -20l-6 -289q-76 27 -168 27q-106 0 -184 -90t-78 -226v-569h-289z" />
    <glyph glyph-name="s" unicode="s" horiz-adv-x="1030" 
d="M74 348h282q34 -139 164 -139q63 0 103 33q39 32 39 85q0 61 -46 97q-44 34 -149 53q-96 18 -166.5 51.5t-107 69.5t-58 82t-26.5 78.5t-5 70.5q0 150 119.5 244t286.5 94q180 0 292 -86t130 -247h-283q-21 104 -141 104q-54 0 -89.5 -25.5t-35.5 -68.5q0 -47 39.5 -78
t130.5 -49q68 -14 124 -33t107.5 -50.5t86.5 -71.5t56 -97.5t21 -126.5q0 -159 -119 -258.5t-299 -99.5q-191 0 -311.5 90.5t-144.5 277.5z" />
    <glyph glyph-name="t" unicode="t" horiz-adv-x="827" 
d="M37 899v248h180v287h289v-287h244v-248h-244v-434q0 -49 6 -82.5t23 -64t51 -45.5t86 -15q36 0 88 6v-264q-58 -6 -113 -6q-182 0 -283 65.5t-133 212.5q-14 66 -14 181v446h-180z" />
    <glyph glyph-name="u" unicode="u" horiz-adv-x="1218" 
d="M139 459v688h289v-662q0 -77 14 -118q35 -113 152 -113q54 0 101 37.5t71 93.5q18 43 18 115v647h289v-1147h-190l-25 145h-2q-51 -79 -134 -122t-185 -43q-142 0 -241 77t-136 215q-21 74 -21 187z" />
    <glyph glyph-name="v" unicode="v" horiz-adv-x="1081" 
d="M14 1147h303l222 -793h4l219 793h305l-375 -1147h-303z" />
    <glyph glyph-name="w" unicode="w" horiz-adv-x="1609" 
d="M31 1147h299l155 -744h4l189 744h252l188 -741h4l156 741h301l-303 -1147h-285l-184 700h-4l-185 -700h-286z" />
    <glyph glyph-name="x" unicode="x" horiz-adv-x="1085" 
d="M20 0l371 598l-338 549h318l172 -324l170 324h321l-340 -549l371 -598h-322l-200 375l-203 -375h-320z" />
    <glyph glyph-name="y" unicode="y" horiz-adv-x="1122" 
d="M14 -143q119 -25 176 -25q86 0 135.5 43.5t77.5 126.5l15 41l-402 1104h306l245 -756h4l232 756h305l-424 -1198q-71 -200 -186.5 -295.5t-278.5 -95.5q-109 0 -205 26v273z" />
    <glyph glyph-name="z" unicode="z" horiz-adv-x="1060" 
d="M74 0v227l504 647h-486v273h862v-229l-501 -646h534v-272h-913z" />
    <glyph glyph-name="braceleft" unicode="{" horiz-adv-x="911" 
d="M61 567v232h60q44 0 76 7.5t60 26.5t40.5 52t17.5 83t-8 119l-37 236q-68 432 439 432h182v-190h-100q-24 0 -42 -0.5t-40.5 -3t-40 -6.5t-36.5 -10.5t-32.5 -17t-26.5 -24t-20.5 -32t-12.5 -41t-4.5 -52t5.5 -63.5l37 -223q54 -327 -193 -410q90 -30 140 -92t58 -141
t-5 -175l-37 -229q-5 -34 -5.5 -63.5t4.5 -52t12.5 -40.5t20.5 -31t26.5 -23t33 -16.5t36 -10.5t39.5 -6t41 -2.5t42 -0.5h100v-190h-182q-115 0 -200 21.5t-147 69.5t-86 133t-6 204l37 242q13 69 7.5 119t-18 83t-40 52t-59.5 26.5t-76 7.5h-60z" />
    <glyph glyph-name="bar" unicode="|" horiz-adv-x="696" 
d="M221 -389v2148h254v-2148h-254z" />
    <glyph glyph-name="braceright" unicode="}" horiz-adv-x="911" 
d="M20 -201h101q24 0 42 0.5t41 2.5t39.5 6t36 10.5t33 16.5t26.5 23t20.5 31t12.5 40.5t4.5 52t-5.5 63.5l-37 229q-13 96 -5 175t57.5 141t139.5 92q-246 82 -192 410l37 223q5 34 5.5 63.5t-4.5 52t-12.5 41t-20.5 32t-26.5 24t-32.5 17t-36.5 10.5t-40 6.5t-40.5 3
t-42 0.5h-101v190h183q115 0 200 -22t147 -71t86 -134.5t5 -204.5l-37 -236q-13 -69 -8 -119t18 -83t40.5 -52t60 -26.5t76.5 -7.5h59v-232h-59q-56 0 -93 -12t-65.5 -44.5t-33.5 -88.5t5 -143l37 -242q18 -119 -6 -204t-85.5 -133t-146.5 -69.5t-200 -21.5h-183v190z" />
    <glyph glyph-name="asciitilde" unicode="~" horiz-adv-x="1173" 
d="M82 649q5 80 22.5 146t50 121.5t87 88t127.5 33.5q100 3 221 -80q87 -63 123 -83t71 -19q45 2 68.5 35.5t32.5 116.5h207q-5 -80 -22.5 -146t-50 -122t-87 -88.5t-127.5 -33.5q-100 -3 -221 80q-62 45 -87.5 62t-54 29.5t-53.5 11.5q-45 -2 -68 -35.5t-32 -116.5h-207z
" />
    <glyph glyph-name="uni00A0" unicode="&#xa0;" horiz-adv-x="450" 
 />
    <glyph glyph-name="exclamdown" unicode="&#xa1;" horiz-adv-x="581" 
d="M131 -389l47 1022h225l48 -1022h-320zM135 825v322h311v-322h-311z" />
    <glyph glyph-name="cent" unicode="&#xa2;" horiz-adv-x="1179" 
d="M145 551v209q0 112 33 213q41 115 135 186t224 86v191h122v-191q134 -12 231 -83t140 -189q26 -79 31 -158h-266q-3 36 -17 72q-36 86 -112 110v-684q75 24 112 111q12 29 15 55h266q-5 -76 -29 -141q-41 -118 -137 -189.5t-227 -85.5v-206h-123v206q-132 14 -227 85.5
t-138 189.5q-33 101 -33 213zM410 565q0 -91 20 -141q31 -86 113 -111v684q-82 -25 -113 -110q-20 -50 -20 -142v-180z" />
    <glyph glyph-name="sterling" unicode="&#xa3;" horiz-adv-x="1179" 
d="M45 698v144h166v266q0 208 119 328t309 120q187 0 307 -112t129 -318h-258q-10 101 -52.5 146t-121.5 45t-125.5 -49t-46.5 -140v-286h328v-144h-328v-219q0 -106 -24 -158t-68 -77v-4h319q171 0 181 198h247q-2 -103 -23.5 -180.5t-57 -126t-88 -78.5t-110 -41.5
t-130.5 -11.5h-633v240q68 0 97.5 46t29.5 163v249h-166z" />
    <glyph glyph-name="yen" unicode="&#xa5;" horiz-adv-x="1179" 
d="M-6 1536h317l279 -510l278 510h318l-398 -670h328v-164h-385v-176h385v-164h-385v-362h-282v362h-386v164h386v176h-386v164h330z" />
    <glyph glyph-name="brokenbar" unicode="&#xa6;" horiz-adv-x="696" 
d="M221 -389v919h254v-919h-254zM221 840v919h254v-919h-254z" />
    <glyph glyph-name="section" unicode="&#xa7;" horiz-adv-x="1099" 
d="M98 139h252q37 -164 203 -164q72 0 116 39.5t46 98.5q1 63 -48.5 104.5t-154.5 69.5l-53 14q-89 23 -156.5 59t-105.5 72t-61 79.5t-30.5 77t-7.5 68.5q0 87 51.5 160t147.5 115q-51 32 -85 68t-48.5 72.5t-19.5 63.5t-5 58q0 154 110.5 248t285.5 94q174 0 285.5 -89
t129.5 -263h-250q-26 131 -172 131q-65 0 -104 -33t-39 -82q0 -54 46.5 -92.5t148.5 -69.5l59 -18q362 -113 362 -369q0 -82 -45 -156.5t-127 -117.5q140 -90 140 -254q0 -168 -117 -267.5t-295 -99.5q-192 0 -313.5 98.5t-145.5 284.5zM350 682q-2 -51 38.5 -90.5
t123.5 -65.5l119 -34q57 7 92 46t37 93q0 105 -162 160l-96 30q-62 -8 -106.5 -48t-45.5 -91z" />
    <glyph glyph-name="dieresis" unicode="&#xa8;" horiz-adv-x="1097" 
d="M197 1380v269h256v-269h-256zM645 1380v269h256v-269h-256z" />
    <glyph glyph-name="copyright" unicode="&#xa9;" horiz-adv-x="1748" 
d="M119 768q0 163 54.5 307t151 250.5t239 168.5t310.5 62t310.5 -62t239.5 -168.5t151.5 -250.5t54.5 -307t-54.5 -307t-151.5 -250.5t-239.5 -168.5t-310.5 -62t-310.5 62t-239 168.5t-151 250.5t-54.5 307zM223 768q0 -190 78.5 -346t228.5 -249t344 -93
q146 0 269.5 54.5t206.5 147.5t129.5 218.5t46.5 267.5t-46.5 267.5t-129.5 218.5t-206.5 147.5t-269.5 54.5q-194 0 -344 -93t-228.5 -249t-78.5 -346zM539 637v266q0 98 24 158q39 95 124.5 149t186.5 54h13q101 0 189 -55t122 -148q24 -68 27 -172h-195q-3 83 -16 112
q-14 36 -49 55t-78 19h-13q-41 0 -75.5 -19t-50.5 -55q-17 -38 -17 -98v-266q0 -61 17 -96q17 -37 51.5 -56.5t74.5 -19.5h13q42 0 77.5 19.5t49.5 56.5q16 40 16 121h195q-3 -108 -27 -179q-34 -96 -121.5 -151.5t-189.5 -55.5h-13q-101 0 -186.5 54t-124.5 149
q-24 57 -24 158z" />
    <glyph glyph-name="ordfeminine" unicode="&#xaa;" horiz-adv-x="714" 
d="M78 1073q0 73 37 125t102 74q56 16 127 16h105v19q0 112 -95 112q-39 0 -62.5 -18.5t-29.5 -50.5h-166q17 101 88.5 153.5t182.5 52.5q184 0 237 -147q17 -47 17 -127v-426h-105l-18 107h-2q-65 -119 -193 -119q-99 0 -162 59t-63 170zM250 1079q0 -90 86 -90
q50 0 81.5 40t31.5 104v28h-93q-39 0 -55 -8q-51 -19 -51 -74z" />
    <glyph glyph-name="guillemotleft" unicode="&#xab;" horiz-adv-x="1155" 
d="M53 627l522 542v-297l-251 -245l251 -246v-297zM535 627l522 542v-297l-252 -245l252 -246v-297z" />
    <glyph glyph-name="logicalnot" unicode="&#xac;" 
d="M82 0v1536h1024v-1536h-1024zM184 190l351 576l-351 575v-1151zM246 1434l348 -572l348 572h-696zM248 102h690l-344 566zM653 766l351 -576v1151z" />
    <glyph glyph-name="uni00AD" unicode="&#xad;" horiz-adv-x="905" 
d="M78 678v242h749v-242h-749z" />
    <glyph glyph-name="registered" unicode="&#xae;" horiz-adv-x="995" 
d="M94 1194q0 173 114 293.5t290 120.5t289.5 -120.5t113.5 -293.5t-113.5 -293.5t-289.5 -120.5t-290 120.5t-114 293.5zM156 1194q0 -150 95.5 -253t246.5 -103t246.5 103t95.5 253t-95.5 253t-246.5 103t-246.5 -103t-95.5 -253zM342 961v477h170q76 0 125 -38t49 -106
q0 -101 -90 -137l106 -196h-110l-90 180h-62v-180h-98zM438 1231h82q27 0 45.5 16.5t18.5 46.5q0 25 -20 38.5t-52 13.5h-74v-115z" />
    <glyph glyph-name="macron" unicode="&#xaf;" horiz-adv-x="1097" 
d="M209 1382v195h678v-195h-678z" />
    <glyph glyph-name="degree" unicode="&#xb0;" horiz-adv-x="659" 
d="M78 1307q0 104 74 178t178 74t178 -74t74 -178t-74 -178t-178 -74t-178 74t-74 178zM207 1307q0 -54 36 -91.5t87 -37.5t87 37.5t36 91.5t-36 91.5t-87 37.5t-87 -37.5t-36 -91.5z" />
    <glyph glyph-name="plusminus" unicode="&#xb1;" horiz-adv-x="1179" 
d="M51 -20v241h1077v-241h-1077zM51 760v241h416v433h246v-433h415v-241h-415v-432h-246v432h-416z" />
    <glyph glyph-name="uni00B2" unicode="&#xb2;" 
d="M82 0v1536h1024v-1536h-1024zM184 190l351 576l-351 575v-1151zM246 1434l348 -572l348 572h-696zM248 102h690l-344 566zM653 766l351 -576v1151z" />
    <glyph glyph-name="uni00B3" unicode="&#xb3;" 
d="M82 0v1536h1024v-1536h-1024zM184 190l351 576l-351 575v-1151zM246 1434l348 -572l348 572h-696zM248 102h690l-344 566zM653 766l351 -576v1151z" />
    <glyph glyph-name="acute" unicode="&#xb4;" horiz-adv-x="1097" 
d="M336 1346l239 383h318l2 -25l-360 -358h-199z" />
    <glyph glyph-name="mu" unicode="&#xb5;" horiz-adv-x="1224" 
d="M145 -500v1647h289v-662q0 -75 15 -118q35 -113 151 -113q54 0 101 37.5t71 93.5q19 46 19 115v647h288v-1147h-190l-25 145h-2q-114 -165 -293 -165q-87 0 -163 43q6 -54 6 -140v-383h-267z" />
    <glyph glyph-name="paragraph" unicode="&#xb6;" horiz-adv-x="1298" 
d="M109 1104q0 180 125.5 306t304.5 126h596v-1894h-193v1724h-176v-1724h-197v1036h-30q-178 0 -304 125.5t-126 300.5z" />
    <glyph glyph-name="periodcentered" unicode="&#xb7;" horiz-adv-x="542" 
d="M100 635v354h342v-354h-342z" />
    <glyph glyph-name="cedilla" unicode="&#xb8;" horiz-adv-x="1097" 
d="M299 -291h158q19 -65 88 -65q31 0 49 17.5t18 43.5q0 60 -98 88l-49 14q-45 13 -57.5 32t2.5 65l63 162l135 -23l-33 -131q207 -62 207 -207q0 -94 -64.5 -149.5t-164.5 -55.5q-103 0 -175 57t-79 152z" />
    <glyph glyph-name="uni00B9" unicode="&#xb9;" 
d="M82 0v1536h1024v-1536h-1024zM184 190l351 576l-351 575v-1151zM246 1434l348 -572l348 572h-696zM248 102h690l-344 566zM653 766l351 -576v1151z" />
    <glyph glyph-name="ordmasculine" unicode="&#xba;" horiz-adv-x="712" 
d="M82 1137v127q0 68 18 127q29 78 96.5 121.5t159.5 43.5t159.5 -43.5t96.5 -121.5q19 -63 19 -127v-127q0 -64 -19 -127q-29 -78 -96.5 -122t-159.5 -44t-159.5 44t-96.5 122q-18 59 -18 127zM254 1151q0 -51 12 -78q21 -65 90 -65t90 65q13 29 13 78v98q0 49 -13 78
q-21 66 -90 66t-90 -66q-12 -27 -12 -78v-98z" />
    <glyph glyph-name="guillemotright" unicode="&#xbb;" horiz-adv-x="1155" 
d="M98 84v297l252 246l-252 245v297l523 -542zM580 84v297l251 246l-251 245v297l522 -542z" />
    <glyph glyph-name="onequarter" unicode="&#xbc;" 
d="M82 0v1536h1024v-1536h-1024zM184 190l351 576l-351 575v-1151zM246 1434l348 -572l348 572h-696zM248 102h690l-344 566zM653 766l351 -576v1151z" />
    <glyph glyph-name="onehalf" unicode="&#xbd;" 
d="M82 0v1536h1024v-1536h-1024zM184 190l351 576l-351 575v-1151zM246 1434l348 -572l348 572h-696zM248 102h690l-344 566zM653 766l351 -576v1151z" />
    <glyph glyph-name="threequarters" unicode="&#xbe;" 
d="M82 0v1536h1024v-1536h-1024zM184 190l351 576l-351 575v-1151zM246 1434l348 -572l348 572h-696zM248 102h690l-344 566zM653 766l351 -576v1151z" />
    <glyph glyph-name="questiondown" unicode="&#xbf;" horiz-adv-x="1042" 
d="M74 -41q0 58 14.5 107.5t38 83t54 64.5t62.5 54t63.5 51t57 54.5t42.5 65.5t20.5 83.5t-8.5 108.5h266q21 -75 19 -138.5t-20.5 -111t-48.5 -89.5t-65 -73.5t-70.5 -63t-64.5 -58.5t-47 -60.5t-18 -67.5q0 -58 44.5 -91.5t116.5 -33.5q74 0 121 52.5t47 126.5v47h275v-47
q0 -187 -128 -310t-315 -123q-216 0 -336 106.5t-120 262.5zM385 825v322h311v-322h-311z" />
    <glyph glyph-name="Agrave" unicode="&#xc0;" horiz-adv-x="1253" 
d="M20 0l431 1536h352l430 -1536h-305l-103 395h-397l-102 -395h-306zM240 2011l2 25h317l240 -383h-199zM502 674h250l-123 485h-8z" />
    <glyph glyph-name="Aacute" unicode="&#xc1;" horiz-adv-x="1253" 
d="M20 0l431 1536h352l430 -1536h-305l-103 395h-397l-102 -395h-306zM455 1653l239 383h318l2 -25l-361 -358h-198zM502 674h250l-123 485h-8z" />
    <glyph glyph-name="Acircumflex" unicode="&#xc2;" horiz-adv-x="1253" 
d="M20 0l431 1536h352l430 -1536h-305l-103 395h-397l-102 -395h-306zM186 1655l342 420h197l342 -420h-238l-202 231l-203 -231h-238zM502 674h250l-123 485h-8z" />
    <glyph glyph-name="Atilde" unicode="&#xc3;" horiz-adv-x="1253" 
d="M20 0l431 1536h352l430 -1536h-305l-103 395h-397l-102 -395h-306zM207 1683q9 152 78 237t178 85q92 0 186 -70q15 -11 38 -28.5t32 -23.5t23.5 -14t26.5 -10t28 -1q24 0 45 25.5t26 84.5h181q-9 -152 -78 -236.5t-178 -84.5q-95 0 -187 69q-17 12 -38.5 29t-31 23.5
t-23.5 14t-26 10t-28 1.5q-24 0 -45.5 -26t-26.5 -85h-180zM502 674h250l-123 485h-8z" />
    <glyph glyph-name="Adieresis" unicode="&#xc4;" horiz-adv-x="1253" 
d="M20 0l431 1536h352l430 -1536h-305l-103 395h-397l-102 -395h-306zM274 1688v268h256v-268h-256zM502 674h250l-123 485h-8zM723 1688v268h256v-268h-256z" />
    <glyph glyph-name="Aring" unicode="&#xc5;" horiz-adv-x="1253" 
d="M20 0l431 1536h352l430 -1536h-305l-103 395h-397l-102 -395h-306zM375 1878q0 106 74 180t178 74t178 -74t74 -180t-74 -180t-178 -74t-178 74t-74 180zM502 674h250l-123 485h-8zM530 1878q0 -41 27 -71.5t70 -30.5t69.5 30.5t26.5 71.5t-26.5 71.5t-69.5 30.5
t-70 -30.5t-27 -71.5z" />
    <glyph glyph-name="AE" unicode="&#xc6;" horiz-adv-x="1861" 
d="M-20 0l677 1536h1127v-276h-557v-334h446v-277h-446v-373h557v-276h-856v449h-439l-188 -449h-321zM608 727h320v545h-88z" />
    <glyph glyph-name="Ccedilla" unicode="&#xc7;" horiz-adv-x="1255" 
d="M129 516v504q0 144 39 235q58 142 187.5 221.5t283.5 79.5h16q156 0 287 -79.5t186 -221.5q38 -93 41 -260h-303q-3 119 -24 164q-25 55 -75.5 83t-107.5 28h-24q-58 0 -107 -27.5t-75 -83.5q-25 -52 -25 -139v-500q0 -90 25 -145q26 -55 75 -82t107 -27h24
q58 0 107.5 26.5t75.5 82.5q22 48 22 178h303q-3 -179 -39 -272q-55 -143 -184 -222t-285 -79h-4l-16 -68q207 -62 207 -207q0 -94 -65 -149.5t-165 -55.5q-103 0 -175 57t-79 152h158q19 -65 88 -65q31 0 49.5 17.5t18.5 43.5q0 60 -98 88l-50 14q-45 13 -57.5 32t2.5 65
l35 92q-114 27 -205 100.5t-135 184.5q-39 91 -39 235z" />
    <glyph glyph-name="Egrave" unicode="&#xc8;" horiz-adv-x="1157" 
d="M152 0v1536h927v-276h-628v-334h518v-277h-518v-373h628v-276h-927zM262 2011l2 25h318l239 -383h-198z" />
    <glyph glyph-name="Eacute" unicode="&#xc9;" horiz-adv-x="1157" 
d="M152 0v1536h927v-276h-628v-334h518v-277h-518v-373h628v-276h-927zM408 1653l239 383h318l2 -25l-361 -358h-198z" />
    <glyph glyph-name="Ecircumflex" unicode="&#xca;" horiz-adv-x="1157" 
d="M152 0v1536h927v-276h-628v-334h518v-277h-518v-373h628v-276h-927zM174 1655l342 420h197l342 -420h-238l-203 231l-202 -231h-238z" />
    <glyph glyph-name="Edieresis" unicode="&#xcb;" horiz-adv-x="1157" 
d="M152 0v1536h927v-276h-628v-334h518v-277h-518v-373h628v-276h-927zM254 1688v268h256v-268h-256zM702 1688v268h256v-268h-256z" />
    <glyph glyph-name="Igrave" unicode="&#xcc;" horiz-adv-x="602" 
d="M-106 2011l2 25h317l240 -383h-199zM152 0v1536h299v-1536h-299z" />
    <glyph glyph-name="Iacute" unicode="&#xcd;" horiz-adv-x="602" 
d="M152 0v1536h299v-1536h-299zM158 1653l239 383h318l2 -25l-361 -358h-198z" />
    <glyph glyph-name="Icircumflex" unicode="&#xce;" horiz-adv-x="602" 
d="M-139 1655l342 420h196l342 -420h-237l-203 231l-203 -231h-237zM152 0v1536h299v-1536h-299z" />
    <glyph glyph-name="Idieresis" unicode="&#xcf;" horiz-adv-x="602" 
d="M-51 1688v268h256v-268h-256zM152 0v1536h299v-1536h-299zM397 1688v268h256v-268h-256z" />
    <glyph glyph-name="Eth" unicode="&#xd0;" horiz-adv-x="1363" 
d="M25 700v218h196v618h486q181 0 306.5 -77t184.5 -224q39 -98 39 -236v-462q0 -138 -39 -236q-59 -147 -184.5 -224t-306.5 -77h-486v700h-196zM518 287h197q79 0 127 26t76 84q22 48 22 144v452q0 96 -22 144q-28 58 -76 84t-127 26h-197v-329h248v-218h-248v-413z" />
    <glyph glyph-name="Ntilde" unicode="&#xd1;" horiz-adv-x="1363" 
d="M152 0v1536h313l469 -981h2q-2 68 -2 119v862h278v-1536h-315l-467 981h-2q2 -68 2 -119v-862h-278zM256 1683q9 152 78 237t178 85q92 0 186 -70q15 -11 38 -28.5t32 -23.5t23.5 -14t26.5 -10t28 -1q24 0 45.5 25.5t26.5 84.5h180q-9 -152 -78 -236.5t-178 -84.5
q-95 0 -187 69q-17 12 -38.5 29t-31 23.5t-23.5 14t-26 10t-28 1.5q-24 0 -45.5 -26t-26.5 -85h-180z" />
    <glyph glyph-name="Ograve" unicode="&#xd2;" horiz-adv-x="1292" 
d="M129 516v504q0 142 37 235q58 143 187 222t282 79h22q152 0 280.5 -79.5t186.5 -221.5q39 -91 39 -235v-504q0 -144 -39 -235q-58 -142 -186.5 -221.5t-280.5 -79.5h-22q-153 0 -282 79t-187 222q-37 93 -37 235zM311 2011l2 25h318l239 -383h-198zM428 520
q0 -102 23 -147q52 -109 184 -109h22q59 0 109 27t76 82q22 48 22 147v496q0 99 -22 147q-26 55 -76 82t-109 27h-22q-132 0 -184 -109q-23 -45 -23 -147v-496z" />
    <glyph glyph-name="Oacute" unicode="&#xd3;" horiz-adv-x="1292" 
d="M129 516v504q0 142 37 235q58 143 187 222t282 79h22q152 0 280.5 -79.5t186.5 -221.5q39 -91 39 -235v-504q0 -144 -39 -235q-58 -142 -186.5 -221.5t-280.5 -79.5h-22q-153 0 -282 79t-187 222q-37 93 -37 235zM418 1653l239 383h318l2 -25l-361 -358h-198zM428 520
q0 -102 23 -147q52 -109 184 -109h22q59 0 109 27t76 82q22 48 22 147v496q0 99 -22 147q-26 55 -76 82t-109 27h-22q-132 0 -184 -109q-23 -45 -23 -147v-496z" />
    <glyph glyph-name="Ocircumflex" unicode="&#xd4;" horiz-adv-x="1292" 
d="M129 516v504q0 142 37 235q58 143 187 222t282 79h22q152 0 280.5 -79.5t186.5 -221.5q39 -91 39 -235v-504q0 -144 -39 -235q-58 -142 -186.5 -221.5t-280.5 -79.5h-22q-153 0 -282 79t-187 222q-37 93 -37 235zM205 1634l342 420h196l342 -420h-237l-203 232l-203 -232
h-237zM428 520q0 -102 23 -147q52 -109 184 -109h22q59 0 109 27t76 82q22 48 22 147v496q0 99 -22 147q-26 55 -76 82t-109 27h-22q-132 0 -184 -109q-23 -45 -23 -147v-496z" />
    <glyph glyph-name="Otilde" unicode="&#xd5;" horiz-adv-x="1292" 
d="M129 516v504q0 142 37 235q58 143 187 222t282 79h22q152 0 280.5 -79.5t186.5 -221.5q39 -91 39 -235v-504q0 -144 -39 -235q-58 -142 -186.5 -221.5t-280.5 -79.5h-22q-153 0 -282 79t-187 222q-37 93 -37 235zM229 1683q9 152 78 237t178 85q93 0 187 -70
q16 -12 38.5 -29t31 -23t23 -14t26.5 -10t28 -1q24 0 45.5 25.5t26.5 84.5h180q-9 -152 -78 -236.5t-178 -84.5q-94 0 -186 69q-16 12 -38.5 29t-31.5 23.5t-23 14t-26.5 10t-28.5 1.5q-24 0 -45 -26t-26 -85h-181zM428 520q0 -102 23 -147q52 -109 184 -109h22q59 0 109 27
t76 82q22 48 22 147v496q0 99 -22 147q-26 55 -76 82t-109 27h-22q-132 0 -184 -109q-23 -45 -23 -147v-496z" />
    <glyph glyph-name="Odieresis" unicode="&#xd6;" horiz-adv-x="1292" 
d="M129 516v504q0 142 37 235q58 143 187 222t282 79h22q152 0 280.5 -79.5t186.5 -221.5q39 -91 39 -235v-504q0 -144 -39 -235q-58 -142 -186.5 -221.5t-280.5 -79.5h-22q-153 0 -282 79t-187 222q-37 93 -37 235zM293 1688v268h256v-268h-256zM428 520q0 -102 23 -147
q52 -109 184 -109h22q59 0 109 27t76 82q22 48 22 147v496q0 99 -22 147q-26 55 -76 82t-109 27h-22q-132 0 -184 -109q-23 -45 -23 -147v-496zM741 1688v268h256v-268h-256z" />
    <glyph glyph-name="multiply" unicode="&#xd7;" horiz-adv-x="1179" 
d="M70 256l356 356l-356 357l166 166l356 -357l356 357l164 -166l-354 -357l354 -356l-164 -166l-356 356l-356 -356z" />
    <glyph glyph-name="Oslash" unicode="&#xd8;" horiz-adv-x="1292" 
d="M129 516v504q0 142 37 235q58 143 187 222t282 79h22q128 0 242 -57l51 109h176l-96 -207q59 -62 94 -146q39 -91 39 -235v-504q0 -144 -39 -235q-58 -142 -186.5 -221.5t-280.5 -79.5h-22q-131 0 -244 55l-49 -107h-176l94 205q-60 63 -94 148q-37 93 -37 235zM428 489
l348 748q-49 35 -119 35h-22q-132 0 -184 -109q-23 -45 -23 -147v-527zM514 297q50 -33 121 -33h22q59 0 109 27t76 82q22 48 22 147v524z" />
    <glyph glyph-name="Ugrave" unicode="&#xd9;" horiz-adv-x="1320" 
d="M143 516v1020h299v-1016q0 -102 23 -147q52 -109 184 -109h23q58 0 108 27t76 82q23 50 23 147v1016h299v-1020q0 -144 -39 -235q-58 -142 -186.5 -221.5t-280.5 -79.5h-23q-153 0 -282 79t-187 222q-37 93 -37 235zM285 2011l2 25h317l240 -383h-199z" />
    <glyph glyph-name="Uacute" unicode="&#xda;" horiz-adv-x="1320" 
d="M143 516v1020h299v-1016q0 -102 23 -147q52 -109 184 -109h23q58 0 108 27t76 82q23 50 23 147v1016h299v-1020q0 -144 -39 -235q-58 -142 -186.5 -221.5t-280.5 -79.5h-23q-153 0 -282 79t-187 222q-37 93 -37 235zM487 1653l240 383h317l3 -25l-361 -358h-199z" />
    <glyph glyph-name="Ucircumflex" unicode="&#xdb;" horiz-adv-x="1320" 
d="M143 516v1020h299v-1016q0 -102 23 -147q52 -109 184 -109h23q58 0 108 27t76 82q23 50 23 147v1016h299v-1020q0 -144 -39 -235q-58 -142 -186.5 -221.5t-280.5 -79.5h-23q-153 0 -282 79t-187 222q-37 93 -37 235zM219 1655l342 420h197l342 -420h-238l-203 231
l-202 -231h-238z" />
    <glyph glyph-name="Udieresis" unicode="&#xdc;" horiz-adv-x="1320" 
d="M143 516v1020h299v-1016q0 -102 23 -147q52 -109 184 -109h23q58 0 108 27t76 82q23 50 23 147v1016h299v-1020q0 -144 -39 -235q-58 -142 -186.5 -221.5t-280.5 -79.5h-23q-153 0 -282 79t-187 222q-37 93 -37 235zM307 1688v268h256v-268h-256zM756 1688v268h256v-268
h-256z" />
    <glyph glyph-name="Yacute" unicode="&#xdd;" horiz-adv-x="1265" 
d="M2 1536h338l289 -565h4l293 565h338l-482 -862v-674h-299v672zM481 1653l240 383h317l2 -25l-360 -358h-199z" />
    <glyph glyph-name="Thorn" unicode="&#xde;" horiz-adv-x="1284" 
d="M152 0v1536h299v-272h198q146 0 242 -35q137 -52 218 -172.5t81 -282.5q0 -159 -81 -278t-218 -172q-79 -33 -232 -33h-208v-291h-299zM451 575h196q92 0 144 27q46 25 73 71t27 101q0 58 -27 104.5t-73 71.5q-47 27 -144 27h-196v-402z" />
    <glyph glyph-name="germandbls" unicode="&#xdf;" horiz-adv-x="1277" 
d="M145 0v1055q0 102 33.5 191.5t96 159t161.5 110t221 40.5q203 0 332 -109.5t129 -289.5q0 -226 -205 -340q108 -34 187.5 -138.5t79.5 -250.5q0 -111 -34 -197.5t-93 -140.5t-136.5 -82t-168.5 -28q-131 0 -230 22v254q80 -25 168 -25q94 0 153.5 56.5t59.5 158.5
q0 112 -81.5 174t-203.5 62h-51v240h72q83 0 146 55.5t63 146.5q0 76 -55.5 122t-145.5 46q-109 0 -163 -63.5t-54 -165.5v-1063h-281z" />
    <glyph glyph-name="agrave" unicode="&#xe0;" horiz-adv-x="1142" 
d="M98 360q0 122 61.5 207.5t172.5 124.5q89 29 211 29h172v29q0 190 -156 190q-65 0 -103.5 -32t-49.5 -87h-277q27 170 146 258t305 88q155 0 254 -63.5t141 -181.5q29 -80 29 -211v-711h-177l-30 176h-2q-106 -196 -322 -196q-165 0 -270 98.5t-105 281.5zM231 1642l2 25
h318l240 -383h-199zM385 371q0 -70 35.5 -109t107.5 -39q83 0 136 66t53 172v47h-154q-62 0 -92 -12q-41 -15 -63.5 -48t-22.5 -77z" />
    <glyph glyph-name="aacute" unicode="&#xe1;" horiz-adv-x="1142" 
d="M98 360q0 122 61.5 207.5t172.5 124.5q89 29 211 29h172v29q0 190 -156 190q-65 0 -103.5 -32t-49.5 -87h-277q27 170 146 258t305 88q155 0 254 -63.5t141 -181.5q29 -80 29 -211v-711h-177l-30 176h-2q-106 -196 -322 -196q-165 0 -270 98.5t-105 281.5zM369 1284
l239 383h318l2 -25l-361 -358h-198zM385 371q0 -70 35.5 -109t107.5 -39q83 0 136 66t53 172v47h-154q-62 0 -92 -12q-41 -15 -63.5 -48t-22.5 -77z" />
    <glyph glyph-name="acircumflex" unicode="&#xe2;" horiz-adv-x="1142" 
d="M98 360q0 122 61.5 207.5t172.5 124.5q89 29 211 29h172v29q0 190 -156 190q-65 0 -103.5 -32t-49.5 -87h-277q27 170 146 258t305 88q155 0 254 -63.5t141 -181.5q29 -80 29 -211v-711h-177l-30 176h-2q-106 -196 -322 -196q-165 0 -270 98.5t-105 281.5zM133 1266
l342 420h197l342 -420h-238l-203 231l-202 -231h-238zM385 371q0 -70 35.5 -109t107.5 -39q83 0 136 66t53 172v47h-154q-62 0 -92 -12q-41 -15 -63.5 -48t-22.5 -77z" />
    <glyph glyph-name="atilde" unicode="&#xe3;" horiz-adv-x="1142" 
d="M98 360q0 122 61.5 207.5t172.5 124.5q89 29 211 29h172v29q0 190 -156 190q-65 0 -103.5 -32t-49.5 -87h-277q27 170 146 258t305 88q155 0 254 -63.5t141 -181.5q29 -80 29 -211v-711h-177l-30 176h-2q-106 -196 -322 -196q-165 0 -270 98.5t-105 281.5zM156 1315
q9 152 78 236.5t178 84.5q94 0 186 -69q17 -12 38.5 -29t31 -23.5t23.5 -14t26 -10t28 -1.5q24 0 45.5 25.5t26.5 84.5h180q-9 -152 -78 -236.5t-178 -84.5q-92 0 -186 70q-16 12 -38.5 29t-31 23t-23 14t-26.5 10t-28 1q-24 0 -45.5 -25.5t-26.5 -84.5h-180zM385 371
q0 -70 35.5 -109t107.5 -39q83 0 136 66t53 172v47h-154q-62 0 -92 -12q-41 -15 -63.5 -48t-22.5 -77z" />
    <glyph glyph-name="adieresis" unicode="&#xe4;" horiz-adv-x="1142" 
d="M98 360q0 122 61.5 207.5t172.5 124.5q89 29 211 29h172v29q0 190 -156 190q-65 0 -103.5 -32t-49.5 -87h-277q27 170 146 258t305 88q155 0 254 -63.5t141 -181.5q29 -80 29 -211v-711h-177l-30 176h-2q-106 -196 -322 -196q-165 0 -270 98.5t-105 281.5zM215 1319v268
h256v-268h-256zM385 371q0 -70 35.5 -109t107.5 -39q83 0 136 66t53 172v47h-154q-62 0 -92 -12q-41 -15 -63.5 -48t-22.5 -77zM664 1319v268h256v-268h-256z" />
    <glyph glyph-name="aring" unicode="&#xe5;" horiz-adv-x="1142" 
d="M98 360q0 122 61.5 207.5t172.5 124.5q89 29 211 29h172v29q0 190 -156 190q-65 0 -103.5 -32t-49.5 -87h-277q27 170 146 258t305 88q155 0 254 -63.5t141 -181.5q29 -80 29 -211v-711h-177l-30 176h-2q-106 -196 -322 -196q-165 0 -270 98.5t-105 281.5zM328 1509
q0 106 74 180t178 74t177.5 -74t73.5 -180t-73.5 -180t-177.5 -74t-178 74t-74 180zM385 371q0 -70 35.5 -109t107.5 -39q83 0 136 66t53 172v47h-154q-62 0 -92 -12q-41 -15 -63.5 -48t-22.5 -77zM483 1509q0 -41 27 -71.5t70 -30.5t69.5 30.5t26.5 71.5q0 42 -26.5 72.5
t-69.5 30.5t-70 -31t-27 -72z" />
    <glyph glyph-name="ae" unicode="&#xe6;" horiz-adv-x="1734" 
d="M98 360q0 122 61.5 207.5t172.5 124.5q89 29 211 29h172v29q0 190 -156 190q-65 0 -103.5 -32t-49.5 -87h-277q27 168 143 257t287 89q223 0 311 -166q114 166 332 166q194 0 311 -147.5t117 -374.5v-137h-624v-41q0 -81 18 -131q19 -52 58.5 -80.5t93.5 -28.5
q113 0 155 125h289q-6 -49 -23 -96q-45 -130 -153 -203t-248 -73q-266 0 -365 219q-53 -102 -147 -160.5t-211 -58.5q-165 0 -270 98.5t-105 281.5zM385 371q0 -70 35.5 -109t107.5 -39q83 0 136 66t53 172v47h-154q-62 0 -92 -12q-41 -15 -63.5 -48t-22.5 -77zM1006 721
h340q-3 51 -19 96q-39 109 -151 109q-54 0 -93.5 -28.5t-58.5 -80.5q-15 -41 -18 -96z" />
    <glyph glyph-name="ccedilla" unicode="&#xe7;" horiz-adv-x="1107" 
d="M109 469v209q0 115 32 213q47 130 159.5 203t266.5 73t266.5 -73t159.5 -203q26 -79 31 -158h-293q-3 29 -12 53q-19 52 -58.5 80.5t-93.5 28.5q-112 0 -151 -109q-19 -52 -19 -131v-163q0 -80 19 -132q39 -108 151 -108q113 0 152 108q2 6 5.5 19.5t4.5 17.5h293
q-5 -76 -29 -141q-46 -128 -154 -200.5t-257 -75.5l-17 -68q207 -62 207 -207q0 -94 -64.5 -149.5t-164.5 -55.5q-103 0 -175 57t-79 152h157q19 -65 89 -65q31 0 49 17.5t18 43.5q0 60 -98 88l-49 14q-45 13 -58 32t2 65l35 92q-105 25 -180.5 92t-112.5 168
q-32 98 -32 213z" />
    <glyph glyph-name="egrave" unicode="&#xe8;" horiz-adv-x="1132" 
d="M109 469v209q0 115 32 213q47 130 159.5 203t266.5 73t266.5 -73t159.5 -203q33 -101 33 -213v-182h-629v-29q0 -79 19 -131q39 -109 151 -109q114 0 156 125h293q-6 -49 -23 -96q-45 -131 -158 -203.5t-268 -72.5q-154 0 -266.5 73t-159.5 203q-32 98 -32 213zM221 1642
l2 25h318l239 -383h-198zM397 713h340q-3 63 -18 104q-19 52 -58.5 80.5t-93.5 28.5q-112 0 -151 -109q-16 -44 -19 -104z" />
    <glyph glyph-name="eacute" unicode="&#xe9;" horiz-adv-x="1132" 
d="M109 469v209q0 115 32 213q47 130 159.5 203t266.5 73t266.5 -73t159.5 -203q33 -101 33 -213v-182h-629v-29q0 -79 19 -131q39 -109 151 -109q114 0 156 125h293q-6 -49 -23 -96q-45 -131 -158 -203.5t-268 -72.5q-154 0 -266.5 73t-159.5 203q-32 98 -32 213zM338 1284
l240 383h317l2 -25l-360 -358h-199zM397 713h340q-3 63 -18 104q-19 52 -58.5 80.5t-93.5 28.5q-112 0 -151 -109q-16 -44 -19 -104z" />
    <glyph glyph-name="ecircumflex" unicode="&#xea;" horiz-adv-x="1132" 
d="M109 469v209q0 115 32 213q47 130 159.5 203t266.5 73t266.5 -73t159.5 -203q33 -101 33 -213v-182h-629v-29q0 -79 19 -131q39 -109 151 -109q114 0 156 125h293q-6 -49 -23 -96q-45 -131 -158 -203.5t-268 -72.5q-154 0 -266.5 73t-159.5 203q-32 98 -32 213zM119 1266
l342 420h196l342 -420h-237l-203 231l-203 -231h-237zM397 713h340q-3 63 -18 104q-19 52 -58.5 80.5t-93.5 28.5q-112 0 -151 -109q-16 -44 -19 -104z" />
    <glyph glyph-name="edieresis" unicode="&#xeb;" horiz-adv-x="1112" 
d="M113 469v209q0 115 32 213q47 130 159.5 203t266.5 73t266.5 -73t159.5 -203q33 -101 33 -213v-182h-629v-29q0 -79 19 -131q39 -109 151 -109q114 0 156 125h293q-6 -49 -23 -96q-45 -131 -158 -203.5t-268 -72.5q-154 0 -266.5 73t-159.5 203q-32 98 -32 213zM211 1319
v268h256v-268h-256zM401 713h340q-3 63 -18 104q-19 52 -58.5 80.5t-93.5 28.5q-112 0 -151 -109q-16 -44 -19 -104zM659 1319v268h256v-268h-256z" />
    <glyph glyph-name="igrave" unicode="&#xec;" horiz-adv-x="550" 
d="M-141 1642l2 25h317l240 -383h-199zM131 0v1147h289v-1147h-289z" />
    <glyph glyph-name="iacute" unicode="&#xed;" horiz-adv-x="550" 
d="M131 0v1147h289v-1147h-289zM133 1284l240 383h317l2 -25l-360 -358h-199z" />
    <glyph glyph-name="icircumflex" unicode="&#xee;" horiz-adv-x="550" 
d="M-166 1286l342 420h197l342 -420h-238l-203 232l-202 -232h-238zM131 0v1147h289v-1147h-289z" />
    <glyph glyph-name="idieresis" unicode="&#xef;" horiz-adv-x="550" 
d="M-78 1319v268h256v-268h-256zM131 0v1147h289v-1147h-289zM371 1319v268h256v-268h-256z" />
    <glyph glyph-name="eth" unicode="&#xf0;" horiz-adv-x="1128" 
d="M104 469v92q0 112 33 213q46 128 148 200.5t227 72.5q30 0 80.5 -12t85.5 -38q-10 49 -42 114t-65 112l-239 -90l-58 163l195 74q-69 100 -113 148l236 106q62 -67 129 -158l225 86l60 -161l-187 -72q88 -164 131 -281q72 -204 72 -415v-154q0 -112 -33 -213
q-47 -130 -159.5 -203t-266.5 -73t-266.5 73t-159.5 203q-33 101 -33 213zM393 492q0 -80 19 -132q39 -108 151 -108q113 0 152 108q18 50 18 132v47q0 81 -18 131q-39 108 -152 108q-112 0 -151 -108q-19 -52 -19 -131v-47z" />
    <glyph glyph-name="ntilde" unicode="&#xf1;" horiz-adv-x="1218" 
d="M145 0v1147h191l24 -146h2q51 79 135 122.5t185 43.5q142 0 241 -77.5t136 -215.5q20 -70 20 -186v-688h-288v662q0 74 -15 118q-35 113 -151 113q-54 0 -101 -37.5t-71 -93.5q-19 -46 -19 -115v-647h-289zM180 1319q9 152 78 236.5t178 84.5q95 0 187 -69
q17 -12 38.5 -29t31 -23.5t23.5 -14t26 -10t28 -1.5q24 0 45.5 26t26.5 85h180q-9 -152 -78 -237t-178 -85q-92 0 -186 70q-16 12 -38.5 29t-31.5 23.5t-23 14t-26.5 10t-28.5 1.5q-24 0 -45.5 -26t-26.5 -85h-180z" />
    <glyph glyph-name="ograve" unicode="&#xf2;" horiz-adv-x="1134" 
d="M109 469v209q0 115 32 213q47 130 159.5 203t266.5 73t266.5 -73t159.5 -203q33 -101 33 -213v-209q0 -112 -33 -213q-47 -130 -159.5 -203t-266.5 -73t-266.5 73t-159.5 203q-32 98 -32 213zM229 1642l2 25h318l239 -383h-198zM397 492q0 -80 19 -132q39 -108 151 -108
q113 0 152 108q18 50 18 132v163q0 81 -18 131q-19 52 -58.5 80.5t-93.5 28.5q-112 0 -151 -109q-19 -52 -19 -131v-163z" />
    <glyph glyph-name="oacute" unicode="&#xf3;" horiz-adv-x="1134" 
d="M109 469v209q0 115 32 213q47 130 159.5 203t266.5 73t266.5 -73t159.5 -203q33 -101 33 -213v-209q0 -112 -33 -213q-47 -130 -159.5 -203t-266.5 -73t-266.5 73t-159.5 203q-32 98 -32 213zM350 1284l240 383h317l2 -25l-360 -358h-199zM397 492q0 -80 19 -132
q39 -108 151 -108q113 0 152 108q18 50 18 132v163q0 81 -18 131q-19 52 -58.5 80.5t-93.5 28.5q-112 0 -151 -109q-19 -52 -19 -131v-163z" />
    <glyph glyph-name="ocircumflex" unicode="&#xf4;" horiz-adv-x="1134" 
d="M109 469v209q0 115 32 213q47 130 159.5 203t266.5 73t266.5 -73t159.5 -203q33 -101 33 -213v-209q0 -112 -33 -213q-47 -130 -159.5 -203t-266.5 -73t-266.5 73t-159.5 203q-32 98 -32 213zM127 1266l342 420h197l342 -420h-238l-203 231l-202 -231h-238zM397 492
q0 -80 19 -132q39 -108 151 -108q113 0 152 108q18 50 18 132v163q0 81 -18 131q-19 52 -58.5 80.5t-93.5 28.5q-112 0 -151 -109q-19 -52 -19 -131v-163z" />
    <glyph glyph-name="otilde" unicode="&#xf5;" horiz-adv-x="1134" 
d="M109 469v209q0 115 32 213q47 130 159.5 203t266.5 73t266.5 -73t159.5 -203q33 -101 33 -213v-209q0 -112 -33 -213q-47 -130 -159.5 -203t-266.5 -73t-266.5 73t-159.5 203q-32 98 -32 213zM147 1315q9 152 78 236.5t178 84.5q95 0 187 -69q17 -12 38.5 -29t31 -23.5
t23.5 -14t26 -10t28 -1.5q24 0 45.5 25.5t26.5 84.5h180q-9 -152 -78 -236.5t-178 -84.5q-92 0 -186 70q-15 11 -38 28.5t-32 23.5t-23.5 14t-26.5 10t-28 1q-24 0 -45 -25.5t-26 -84.5h-181zM397 492q0 -80 19 -132q39 -108 151 -108q113 0 152 108q18 50 18 132v163
q0 81 -18 131q-19 52 -58.5 80.5t-93.5 28.5q-112 0 -151 -109q-19 -52 -19 -131v-163z" />
    <glyph glyph-name="odieresis" unicode="&#xf6;" horiz-adv-x="1134" 
d="M109 469v209q0 115 32 213q47 130 159.5 203t266.5 73t266.5 -73t159.5 -203q33 -101 33 -213v-209q0 -112 -33 -213q-47 -130 -159.5 -203t-266.5 -73t-266.5 73t-159.5 203q-32 98 -32 213zM215 1319v268h256v-268h-256zM397 492q0 -80 19 -132q39 -108 151 -108
q113 0 152 108q18 50 18 132v163q0 81 -18 131q-19 52 -58.5 80.5t-93.5 28.5q-112 0 -151 -109q-19 -52 -19 -131v-163zM664 1319v268h256v-268h-256z" />
    <glyph glyph-name="divide" unicode="&#xf7;" horiz-adv-x="1179" 
d="M51 494v241h1077v-241h-1077zM453 61v281h264v-281h-264zM453 887v280h264v-280h-264z" />
    <glyph glyph-name="oslash" unicode="&#xf8;" horiz-adv-x="1134" 
d="M109 469v209q0 115 32 213q47 130 159.5 203t266.5 73q119 0 209 -43l47 95h144l-82 -164q70 -64 108 -164q33 -101 33 -213v-209q0 -112 -33 -213q-47 -130 -159.5 -203t-266.5 -73q-117 0 -207 40l-45 -92h-143l80 160q-74 68 -111 168q-32 98 -32 213zM397 492
q0 -66 13 -113l247 489q-41 27 -90 27q-112 0 -151 -109q-19 -52 -19 -131v-163zM479 274q39 -22 88 -22q113 0 152 108q18 50 18 132v163q0 63 -12 109z" />
    <glyph glyph-name="ugrave" unicode="&#xf9;" horiz-adv-x="1218" 
d="M139 459v688h289v-662q0 -77 14 -118q35 -113 152 -113q54 0 101 37.5t71 93.5q18 43 18 115v647h289v-1147h-190l-25 145h-2q-51 -79 -134 -122t-185 -43q-142 0 -241 77t-136 215q-21 74 -21 187zM248 1642l2 25h317l240 -383h-199z" />
    <glyph glyph-name="uacute" unicode="&#xfa;" horiz-adv-x="1218" 
d="M139 459v688h289v-662q0 -77 14 -118q35 -113 152 -113q54 0 101 37.5t71 93.5q18 43 18 115v647h289v-1147h-190l-25 145h-2q-51 -79 -134 -122t-185 -43q-142 0 -241 77t-136 215q-21 74 -21 187zM420 1284l239 383h318l2 -25l-361 -358h-198z" />
    <glyph glyph-name="ucircumflex" unicode="&#xfb;" horiz-adv-x="1218" 
d="M139 459v688h289v-662q0 -77 14 -118q35 -113 152 -113q54 0 101 37.5t71 93.5q18 43 18 115v647h289v-1147h-190l-25 145h-2q-51 -79 -134 -122t-185 -43q-142 0 -241 77t-136 215q-21 74 -21 187zM168 1286l342 420h197l342 -420h-238l-203 232l-202 -232h-238z" />
    <glyph glyph-name="udieresis" unicode="&#xfc;" horiz-adv-x="1218" 
d="M139 459v688h289v-662q0 -77 14 -118q35 -113 152 -113q54 0 101 37.5t71 93.5q18 43 18 115v647h289v-1147h-190l-25 145h-2q-51 -79 -134 -122t-185 -43q-142 0 -241 77t-136 215q-21 74 -21 187zM256 1319v268h256v-268h-256zM705 1319v268h256v-268h-256z" />
    <glyph glyph-name="yacute" unicode="&#xfd;" horiz-adv-x="1122" 
d="M14 -143q119 -25 176 -25q86 0 135.5 43.5t77.5 126.5l15 41l-402 1104h306l245 -756h4l232 756h305l-424 -1198q-71 -200 -186.5 -295.5t-278.5 -95.5q-109 0 -205 26v273zM401 1284l240 383h317l3 -25l-361 -358h-199z" />
    <glyph glyph-name="thorn" unicode="&#xfe;" horiz-adv-x="1191" 
d="M150 -500v2108h288v-447l-2 -119h2q110 125 273 125q126 0 221 -78t131 -215q20 -70 20 -186v-215q0 -113 -18 -186q-37 -148 -135.5 -227.5t-222.5 -79.5q-162 0 -269 104h-2q2 -68 2 -119v-465h-288zM438 500q0 -54 11 -103q18 -64 64 -105.5t108 -41.5
q60 0 101.5 33.5t59.5 91.5q13 47 13 114v170q0 75 -15 119q-35 113 -151 113q-54 0 -101 -37.5t-71 -93.5q-19 -46 -19 -115v-145z" />
    <glyph glyph-name="ydieresis" unicode="&#xff;" horiz-adv-x="1122" 
d="M14 -143q119 -25 176 -25q86 0 135.5 43.5t77.5 126.5l15 41l-402 1104h306l245 -756h4l232 756h305l-424 -1198q-71 -200 -186.5 -295.5t-278.5 -95.5q-109 0 -205 26v273zM209 1319v268h256v-268h-256zM657 1319v268h256v-268h-256z" />
    <glyph glyph-name="OE" unicode="&#x152;" horiz-adv-x="1810" 
d="M109 537v462q0 145 36 236q41 101 120 171t181 103q80 27 189 27h1073v-276h-571v-334h460v-277h-460v-373h571v-276h-1073q-109 0 -189 27q-102 33 -181 103t-120 171q-36 91 -36 236zM408 532q0 -104 22 -147q33 -66 98 -92q46 -17 107 -17h203v984h-203
q-61 0 -107 -17q-65 -26 -98 -92q-22 -43 -22 -147v-472z" />
    <glyph glyph-name="oe" unicode="&#x153;" horiz-adv-x="1722" 
d="M88 469v209q0 112 33 213q48 133 151 204.5t254 71.5q234 0 336 -180q101 180 342 180q136 0 235 -66.5t147 -176t48 -246.5v-182h-628v-29q0 -81 18 -131q19 -52 58.5 -80.5t93.5 -28.5q113 0 155 125h293q-19 -161 -133.5 -266.5t-273.5 -105.5q-254 0 -355 178
q-100 -178 -336 -178q-151 0 -254 71.5t-151 204.5q-33 101 -33 213zM377 492q0 -82 18 -132q39 -108 152 -108q112 0 151 108q19 52 19 132v163q0 79 -19 131q-39 109 -151 109q-54 0 -93.5 -28.5t-58.5 -80.5q-18 -50 -18 -131v-163zM1006 713h340q-3 60 -19 104
q-39 109 -151 109q-54 0 -93.5 -28.5t-58.5 -80.5q-15 -41 -18 -104z" />
    <glyph glyph-name="Ydieresis" unicode="&#x178;" horiz-adv-x="1265" 
d="M2 1536h338l289 -565h4l293 565h338l-482 -862v-674h-299v672zM281 1688v268h256v-268h-256zM729 1688v268h256v-268h-256z" />
    <glyph glyph-name="circumflex" unicode="&#x2c6;" horiz-adv-x="1097" 
d="M109 1348l342 419h196l342 -419h-237l-203 231l-203 -231h-237z" />
    <glyph glyph-name="tilde" unicode="&#x2dc;" horiz-adv-x="1097" 
d="M129 1376q9 152 78 237t178 85q92 0 186 -70q16 -12 38.5 -29t31.5 -23.5t23 -14t26.5 -10t28.5 -1.5q24 0 45.5 26t26.5 85h180q-9 -152 -78 -237t-178 -85q-93 0 -187 70q-17 12 -38.5 29t-31 23.5t-23.5 14t-26 10t-28 1.5q-24 0 -45.5 -26t-26.5 -85h-180z" />
    <glyph glyph-name="uni2000" unicode="&#x2000;" horiz-adv-x="1066" 
 />
    <glyph glyph-name="uni2001" unicode="&#x2001;" horiz-adv-x="2132" 
 />
    <glyph glyph-name="uni2002" unicode="&#x2002;" horiz-adv-x="1066" 
 />
    <glyph glyph-name="uni2003" unicode="&#x2003;" horiz-adv-x="2132" 
 />
    <glyph glyph-name="uni2004" unicode="&#x2004;" horiz-adv-x="710" 
 />
    <glyph glyph-name="uni2005" unicode="&#x2005;" horiz-adv-x="533" 
 />
    <glyph glyph-name="uni2006" unicode="&#x2006;" horiz-adv-x="355" 
 />
    <glyph glyph-name="uni2007" unicode="&#x2007;" horiz-adv-x="355" 
 />
    <glyph glyph-name="uni2008" unicode="&#x2008;" horiz-adv-x="266" 
 />
    <glyph glyph-name="uni2009" unicode="&#x2009;" horiz-adv-x="426" 
 />
    <glyph glyph-name="uni200A" unicode="&#x200a;" horiz-adv-x="118" 
 />
    <glyph glyph-name="uni2010" unicode="&#x2010;" horiz-adv-x="905" 
d="M78 678v242h749v-242h-749z" />
    <glyph glyph-name="uni2011" unicode="&#x2011;" horiz-adv-x="905" 
d="M78 678v242h749v-242h-749z" />
    <glyph glyph-name="figuredash" unicode="&#x2012;" horiz-adv-x="905" 
d="M78 678v242h749v-242h-749z" />
    <glyph glyph-name="endash" unicode="&#x2013;" horiz-adv-x="1191" 
d="M88 678v242h1016v-242h-1016z" />
    <glyph glyph-name="emdash" unicode="&#x2014;" horiz-adv-x="1427" 
d="M88 678v242h1262v-242h-1262z" />
    <glyph glyph-name="quoteleft" unicode="&#x2018;" horiz-adv-x="505" 
d="M88 948v254q0 101 16 158q27 115 106 193.5t218 97.5v-119q-67 -21 -109 -60t-55.5 -77t-13.5 -82q0 -29 26 -29h146v-336h-334z" />
    <glyph glyph-name="quoteright" unicode="&#x2019;" horiz-adv-x="454" 
d="M57 948v119q98 31 138.5 90.5t40.5 128.5q0 29 -27 29h-146v336h334v-254q0 -101 -16 -158q-27 -115 -106 -193.5t-218 -97.5z" />
    <glyph glyph-name="quotesinglbase" unicode="&#x201a;" horiz-adv-x="522" 
d="M78 -260q102 32 144 95t42 136q0 29 -26 29h-154v354h350v-268q0 -103 -16 -166q-29 -121 -111.5 -203t-228.5 -102v125z" />
    <glyph glyph-name="quotedblleft" unicode="&#x201c;" horiz-adv-x="956" 
d="M82 948v254q0 101 16 158q27 116 105 194t217 97v-119q-96 -31 -136 -90.5t-40 -128.5q0 -29 24 -29h148v-336h-334zM535 948v254q0 108 14 158q27 116 105.5 194t217.5 97v-119q-67 -21 -109 -60t-55.5 -77t-13.5 -82q0 -29 27 -29h145v-336h-331z" />
    <glyph glyph-name="quotedblright" unicode="&#x201d;" horiz-adv-x="956" 
d="M88 948v119q97 31 137.5 90.5t40.5 128.5q0 29 -26 29h-146v336h332v-254q0 -108 -14 -158q-27 -115 -106 -193.5t-218 -97.5zM541 948v119q96 31 136 90.5t40 128.5q0 29 -25 29h-147v336h334v-254q0 -97 -17 -158q-27 -116 -105 -194t-216 -97z" />
    <glyph glyph-name="quotedblbase" unicode="&#x201e;" horiz-adv-x="997" 
d="M78 -260q102 32 144 95t42 136q0 29 -26 29h-154v354h350v-268q0 -103 -16 -166q-29 -121 -111.5 -203t-228.5 -102v125zM553 -260q102 32 144 95t42 136q0 29 -26 29h-154v354h350v-268q0 -103 -16 -166q-29 -121 -111.5 -203t-228.5 -102v125z" />
    <glyph glyph-name="bullet" unicode="&#x2022;" horiz-adv-x="706" 
d="M119 604v486h469v-486h-469z" />
    <glyph glyph-name="ellipsis" unicode="&#x2026;" horiz-adv-x="1533" 
d="M100 0v354h342v-354h-342zM596 0v354h342v-354h-342zM1092 0v354h342v-354h-342z" />
    <glyph glyph-name="uni202F" unicode="&#x202f;" horiz-adv-x="426" 
 />
    <glyph glyph-name="guilsinglleft" unicode="&#x2039;" horiz-adv-x="673" 
d="M53 627l522 542v-297l-251 -245l251 -246v-297z" />
    <glyph glyph-name="guilsinglright" unicode="&#x203a;" horiz-adv-x="673" 
d="M98 84v297l252 246l-252 245v297l523 -542z" />
    <glyph glyph-name="uni205F" unicode="&#x205f;" horiz-adv-x="533" 
 />
    <glyph glyph-name="Euro" unicode="&#x20ac;" horiz-adv-x="1179" 
d="M18 520l54 164h129v143h-183l54 164h131v68q0 113 38.5 207.5t104 157.5t151 97.5t179.5 34.5q90 0 172 -28.5t147 -83t106 -140t48 -192.5h-262q-19 104 -77 152.5t-138 48.5q-86 0 -146.5 -67.5t-60.5 -192.5v-62h436l-59 -164h-379v-143h336l-58 -164h-276v-37
q0 -128 60.5 -194t150.5 -66q76 0 132.5 47t76.5 150h264q-17 -211 -150 -325.5t-327 -114.5q-93 0 -177.5 35t-149.5 97.5t-103.5 157t-38.5 207.5v43h-185z" />
    <glyph glyph-name="trademark" unicode="&#x2122;" horiz-adv-x="1202" 
d="M33 1421v115h446v-115h-160v-499h-122v499h-164zM545 922v614h147l135 -449l140 449h147v-616h-106v423l-136 -421h-86l-135 424v-424h-106z" />
    <glyph glyph-name="uni25FC" unicode="&#x25fc;" horiz-adv-x="1146" 
d="M0 0v1147h1147v-1147h-1147z" />
    </font>
</defs>
</svg>
