<?xml version="1.0" standalone="no"?>
<!DOCTYPE svg PUBLIC "-//W3C//DTD SVG 1.1//EN" "http://www.w3.org/Graphics/SVG/1.1/DTD/svg11.dtd" >
<svg xmlns="http://www.w3.org/2000/svg" xmlns:xlink="http://www.w3.org/1999/xlink" version="1.1">
<metadata>
Created by FontForge 20161013 at Thu Jun 19 20:14:50 2014
 By ,,,
Copyright (c) 2014 by The Foundry. All rights reserved.
</metadata>
<defs>
<font id="LandRoverWeb-Medium" horiz-adv-x="410" >
  <font-face 
    font-family="Land Rover Web Medium"
    font-weight="500"
    font-stretch="normal"
    units-per-em="1000"
    panose-1="0 0 0 0 0 0 0 0 0 0"
    ascent="700"
    descent="-300"
    x-height="484"
    cap-height="667"
    bbox="-187 -232 1539 1026"
    underline-thickness="50"
    underline-position="-200"
    unicode-range="U+0020-FB04"
  />
<missing-glyph horiz-adv-x="237" 
d="M24 0v667h189v-667h-189zM189 24v619h-141v-619h141z" />
    <glyph glyph-name="IJ" unicode="IJ" horiz-adv-x="794" 
d="M173 0h-89v667h89v-667zM716 213q0 -61 -4 -85q-13 -81 -81 -113q-48 -23 -127 -23q-113 0 -163 45t-50 142h85q0 -67 36 -89q27 -17 92 -17q58 0 85 15q25 13 33 45q5 22 5 78v456h89v-454z" />
    <glyph glyph-name="ij" unicode="ij" horiz-adv-x="452" 
d="M163 624q0 -23 -13.5 -36.5t-36.5 -13.5t-36.5 13.5t-13.5 36.5t13.5 36.5t36.5 13.5t36.5 -13.5t13.5 -36.5zM156 0h-85v484h85v-484zM181 -190v72h29q53 0 70 19.5t17 80.5v502h85v-524q0 -99 -64 -132q-35 -18 -106 -18h-31zM389 624q0 -23 -13.5 -36.5t-36.5 -13.5
t-36.5 13.5t-13.5 36.5t13.5 36.5t36.5 13.5t36.5 -13.5t13.5 -36.5z" />
    <glyph glyph-name="f_f" unicode="ff" horiz-adv-x="630" 
d="M601 704v-73h-36q-53 0 -70 -19.5t-17 -80.5v-47h123v-73h-123v-411h-85v411h-208v-411h-85v411h-78v73h78v70q0 99 64 132q35 18 106 18h38v-73h-36q-53 0 -70 -19.5t-17 -80.5v-47h208v70q0 99 64 132q35 18 106 18h38z" />
    <glyph glyph-name="fi" unicode="fi" horiz-adv-x="548" 
d="M308 704v-73h-36q-53 0 -70 -19.5t-17 -80.5v-47h123v-73h-123v-411h-85v411h-78v73h78v70q0 99 64 132q35 18 106 18h38zM485 624q0 -23 -13.5 -36.5t-36.5 -13.5t-36.5 13.5t-13.5 36.5t13.5 36.5t36.5 13.5t36.5 -13.5t13.5 -36.5zM478 0h-85v484h85v-484z" />
    <glyph glyph-name="fl" unicode="fl" horiz-adv-x="565" 
d="M308 704v-73h-36q-53 0 -70 -19.5t-17 -80.5v-47h123v-73h-123v-411h-85v411h-78v73h78v70q0 99 64 132q35 18 106 18h38zM565 68v-73h-23q-79 0 -111 28q-38 33 -38 115v559h85v-529q0 -37 2.5 -54t8.5 -26q13 -20 56 -20h20z" />
    <glyph glyph-name="f_f_i" unicode="ffi" horiz-adv-x="841" 
d="M601 704v-73h-36q-53 0 -70 -19.5t-17 -80.5v-47h123v-73h-123v-411h-85v411h-208v-411h-85v411h-78v73h78v70q0 99 64 132q35 18 106 18h38v-73h-36q-53 0 -70 -19.5t-17 -80.5v-47h208v70q0 99 64 132q35 18 106 18h38zM778 624q0 -23 -13.5 -36.5t-36.5 -13.5
t-36.5 13.5t-13.5 36.5t13.5 36.5t36.5 13.5t36.5 -13.5t13.5 -36.5zM771 0h-85v484h85v-484z" />
    <glyph glyph-name="f_f_l" unicode="ffl" horiz-adv-x="858" 
d="M601 704v-73h-36q-53 0 -70 -19.5t-17 -80.5v-47h123v-73h-123v-411h-85v411h-208v-411h-85v411h-78v73h78v70q0 99 64 132q35 18 106 18h38v-73h-36q-53 0 -70 -19.5t-17 -80.5v-47h208v70q0 99 64 132q35 18 106 18h38zM858 68v-73h-23q-79 0 -111 28q-38 33 -38 115
v559h85v-529q0 -37 2.5 -54t8.5 -26q13 -20 56 -20h20z" />
    <glyph glyph-name="f_j" unicode="fj" horiz-adv-x="548" 
d="M308 704v-73h-36q-53 0 -70 -19.5t-17 -80.5v-47h123v-73h-123v-411h-85v411h-78v73h78v70q0 99 64 132q35 18 106 18h38zM277 -190v72h29q53 0 70 19.5t17 80.5v502h85v-524q0 -99 -64 -132q-35 -18 -106 -18h-31zM485 624q0 -23 -13.5 -36.5t-36.5 -13.5t-36.5 13.5
t-13.5 36.5t13.5 36.5t36.5 13.5t36.5 -13.5t13.5 -36.5z" />
    <glyph glyph-name="f_t" unicode="ft" horiz-adv-x="624" 
d="M600 69v-74h-47q-85 0 -121 34q-39 35 -39 116v266h-208v-411h-85v411h-78v73h78v70q0 99 64 132q35 18 106 18h38v-73h-36q-53 0 -70 -19.5t-17 -80.5v-47h208v183h85v-183h122v-73h-122v-242q0 -37 2.5 -53t10.5 -26q16 -21 69 -21h40z" />
    <glyph glyph-name=".notdef" horiz-adv-x="237" 
d="M24 0v667h189v-667h-189zM189 24v619h-141v-619h141z" />
    <glyph glyph-name="glyph1" horiz-adv-x="0" 
 />
    <glyph glyph-name="glyph2" horiz-adv-x="237" 
 />
    <glyph glyph-name="space" unicode=" " horiz-adv-x="237" 
 />
    <glyph glyph-name="exclam" unicode="!" horiz-adv-x="289" 
d="M186 190h-83v477h83v-477zM199 46q0 -54 -55 -54q-54 0 -54 54q0 56 54 56q26 0 40.5 -14.5t14.5 -41.5z" />
    <glyph glyph-name="quotedbl" unicode="&#x22;" horiz-adv-x="455" 
d="M350 450h-79v217h79v-217zM185 450h-79v217h79v-217z" />
    <glyph glyph-name="numbersign" unicode="#" horiz-adv-x="582" 
d="M565 402h-123l-29 -110h102v-73h-122l-59 -219h-79l59 219h-114l-59 -219h-79l59 219h-103v73h122l29 110h-101v73h122l59 219h80l-60 -219h114l59 219h75l-55 -219h103v-73zM362 402h-113l-28 -110h112z" />
    <glyph glyph-name="dollar" unicode="$" horiz-adv-x="566" 
d="M501 195q0 -103 -51 -150q-44 -39 -131 -45v-99h-77v99q-94 4 -136 41t-42 111h85q0 -42 23 -58q21 -15 70 -16v231q-96 10 -133 50q-40 40 -40 128q0 97 52 140q41 35 121 40v95h77v-95q93 -4 134 -41q41 -36 41 -111h-85q0 43 -22 60q-20 15 -68 16v-207q70 -6 106 -22
q41 -18 58 -56q18 -38 18 -111zM242 389v202q-53 -1 -72 -29q-18 -25 -18 -80q0 -56 24 -75q18 -14 66 -18zM418 199q0 44 -8 64t-27 28.5t-64 12.5v-226q57 2 79 33q20 28 20 88z" />
    <glyph glyph-name="percent" unicode="%" horiz-adv-x="878" 
d="M66 467v33q0 50 5.5 78.5t18.5 47.5q31 47 114 47q94 0 122 -60q17 -35 17 -113v-33q0 -75 -3 -100q-8 -51 -35 -76q-33 -30 -101 -30q-93 0 -122 60q-16 34 -16 113v33zM279 467q0 98 -8 118q-7 17 -23 24t-44 7q-30 0 -45.5 -8t-21.5 -27q-7 -21 -7 -114q0 -96 8 -118
q7 -17 22 -25q15 -7 44 -7q30 0 46 8.5t22 27.5q7 20 7 114zM534 200v33q0 50 5.5 78.5t18.5 47.5q31 47 114 47q94 0 122 -60q17 -35 17 -113v-33q0 -75 -3 -100q-8 -51 -35 -76q-33 -30 -101 -30q-93 0 -122 60q-16 34 -16 113v33zM747 200q0 98 -8 118q-7 17 -23 24
t-44 7q-30 0 -45.5 -8t-21.5 -27q-7 -21 -7 -114q0 -96 8 -118q7 -17 22 -25q15 -7 44 -7q30 0 46 8.5t22 27.5q7 20 7 114zM642 667l-338 -667h-68l336 667h70z" />
    <glyph glyph-name="ampersand" unicode="&#x26;" horiz-adv-x="610" 
d="M581 311h-59v-85q0 -87 -21 -137q-22 -51 -73 -74q-49 -23 -137 -23q-128 0 -179 45t-51 152q0 69 18 107q19 38 59 54q-39 16 -55 50t-16 98q0 104 57 143q48 33 152 33q109 0 159 -38q51 -39 51 -122h-85q0 49 -32 67q-28 15 -92 15q-81 0 -105 -26q-20 -21 -20 -79
q0 -64 34 -85q26 -15 91 -15h161v52h84v-52h59v-80zM438 226v85h-161q-54 0 -80 -9q-28 -10 -39.5 -35.5t-11.5 -78.5q0 -67 31 -92.5t114 -25.5q62 0 93 14q30 14 42 45t12 97z" />
    <glyph glyph-name="quotesingle" unicode="'" horiz-adv-x="291" 
d="M185 450h-79v217h79v-217z" />
    <glyph glyph-name="parenleft" unicode="(" horiz-adv-x="311" 
d="M282 -191q-105 0 -156 30q-47 28 -66 90q-31 101 -31 377q0 280 31 381q21 70 80 97q49 22 142 22v-75q-64 0 -95 -15q-30 -15 -44 -50q-13 -35 -22 -137t-9 -222q0 -113 8 -216q9 -105 23 -142q15 -39 53 -53q30 -11 86 -11v-76z" />
    <glyph glyph-name="parenright" unicode=")" horiz-adv-x="311" 
d="M282 306q0 -276 -31 -377q-21 -70 -80 -97q-50 -23 -142 -23v76q64 0 95 15q30 15 44 49q13 35 22 136.5t9 221.5q0 113 -8 216q-9 106 -23 143q-15 39 -53 54q-30 11 -86 11v75q106 0 156 -30q47 -27 66 -89q31 -101 31 -381z" />
    <glyph glyph-name="asterisk" unicode="*" horiz-adv-x="527" 
d="M509 473l-186 -57l113 -147l-59 -41l-114 147l-113 -147l-60 41l114 147l-186 57l24 67l184 -56v183h74v-183l185 56z" />
    <glyph glyph-name="plus" unicode="+" horiz-adv-x="582" 
d="M544 204h-215v-204h-77v204h-214v77h214v203h77v-203h215v-77z" />
    <glyph glyph-name="comma" unicode="," horiz-adv-x="222" 
d="M155 9q0 -46 -10 -73t-36 -52l-37 -35l-53 51q28 27 35.5 34.5t12.5 17.5q9 18 9 57v93h79v-93z" />
    <glyph glyph-name="hyphen" unicode="-" horiz-adv-x="505" 
d="M431 204h-357v77h357v-77z" />
    <glyph glyph-name="period" unicode="." horiz-adv-x="222" 
d="M165 48q0 -56 -54 -56q-26 0 -40.5 14.5t-14.5 41.5q0 54 55 54q54 0 54 -54z" />
    <glyph glyph-name="slash" unicode="/" horiz-adv-x="492" 
d="M504 770l-433 -868h-83l433 868h83z" />
    <glyph glyph-name="zero" unicode="0" horiz-adv-x="566" 
d="M506 333q0 -95 -0.5 -116t-4.5 -51q-12 -84 -55 -125q-53 -49 -163 -49q-100 0 -152 40q-45 35 -60 105q-11 48 -11 144v52v52q0 96 11 144q15 70 60 105q52 40 152 40t152 -40q45 -35 60 -105q11 -48 11 -144v-52zM420 333q0 116 -5 155q-8 59 -36 83q-29 25 -96 25
t-96 -25q-28 -24 -36 -83q-5 -39 -5 -155t5 -155q8 -59 36 -83q29 -25 96 -25t96 25q28 24 36 83q5 39 5 155z" />
    <glyph glyph-name="one" unicode="1" horiz-adv-x="471" 
d="M297 0h-85v559l-117 -109l-55 58l179 159h78v-667z" />
    <glyph glyph-name="two" unicode="2" horiz-adv-x="553" 
d="M494 479q0 -101 -64 -148q-20 -15 -46 -26.5t-86 -31.5l-87 -30q-34 -13 -46 -34q-14 -22 -14 -70v-62h342v-77h-428v158q0 70 32 109q26 32 81 53l107 33q45 14 63 22.5t31 20.5q29 27 29 83q0 71 -30 95q-28 22 -99 22q-75 0 -102 -19q-25 -18 -25 -62h-85q0 94 66 131
q49 28 144 28q108 0 161 -41q56 -43 56 -154z" />
    <glyph glyph-name="three" unicode="3" horiz-adv-x="554" 
d="M494 196q0 -120 -65 -167q-51 -37 -156 -37q-108 0 -159 35q-56 39 -56 125h86q0 -48 34 -66q30 -16 96 -16q77 0 106 27t29 92q0 53 -10 76q-10 25 -36.5 33.5t-89.5 8.5h-97v78h97q43 0 66 5t37 16q27 23 27 85q0 43 -10 64q-11 22 -38 31.5t-82 9.5q-76 0 -105 -21
q-27 -18 -27 -60h-86q0 94 69 131q52 28 149 28q122 0 170 -45q45 -41 45 -136q0 -59 -13 -90q-16 -36 -54 -54q41 -16 57 -50t16 -103z" />
    <glyph glyph-name="four" unicode="4" horiz-adv-x="560" 
d="M515 180h-97v-180h-84v180h-290v73l293 414h81v-410h97v-77zM334 257v281l-194 -281h194z" />
    <glyph glyph-name="five" unicode="5" horiz-adv-x="568" 
d="M501 210q0 -126 -60 -176q-52 -42 -163 -42q-106 0 -155 38q-51 39 -51 122h83q0 -49 31 -67q28 -15 92 -15q54 0 83 11q30 13 42.5 41.5t12.5 83.5q0 50 -5.5 76t-18.5 42q-26 32 -101 32q-128 0 -128 -78h-82v389h399v-78h-317v-195q17 18 52.5 29t77.5 11
q125 0 171 -61q37 -50 37 -163z" />
    <glyph glyph-name="six" unicode="6" horiz-adv-x="565" 
d="M499 211q0 -119 -59 -172q-53 -47 -156 -47q-80 0 -133 33q-49 30 -69 83q-22 59 -22 197q0 159 13 227q15 79 77 113q51 29 137 29q200 0 200 -159h-84q0 46 -31 65q-27 16 -84 16q-54 0 -80 -13q-31 -16 -45 -61q-15 -47 -16 -142q52 54 141 54q120 0 168 -58
q43 -52 43 -165zM414 210q0 91 -30 121q-26 25 -91 25q-78 0 -113 -39q-30 -35 -30 -102q0 -84 36 -117q31 -28 97 -28q78 0 106 35q25 31 25 105z" />
    <glyph glyph-name="seven" unicode="7" horiz-adv-x="470" 
d="M451 593l-292 -593h-94l293 589h-339v78h432v-74z" />
    <glyph glyph-name="eight" unicode="8" horiz-adv-x="563" 
d="M503 185q0 -115 -65 -159q-51 -34 -156 -34q-120 0 -171 46q-51 45 -51 147q0 69 18 107t59 54q-39 16 -55 51t-16 101q0 104 59 143q50 33 157 33q122 0 170 -44q45 -41 45 -132q0 -65 -15 -98q-17 -37 -56 -54q41 -16 59 -54t18 -107zM411 489q0 63 -27 85t-103 22
q-77 0 -103 -22q-27 -23 -27 -85q0 -68 35 -89q26 -16 95 -16q78 0 104 22t26 83zM417 188q0 69 -28 93.5t-107 24.5q-45 0 -70 -5.5t-39 -19.5q-27 -25 -27 -93q0 -76 36 -99q28 -19 100 -19q80 0 108 26q27 25 27 92z" />
    <glyph glyph-name="nine" unicode="9" horiz-adv-x="564" 
d="M504 361q0 -159 -13 -227q-15 -79 -77 -113q-51 -29 -137 -29q-200 0 -200 159h84q0 -46 31 -65q27 -16 84 -16q54 0 80 13q31 16 45 61q15 47 16 142q-52 -54 -141 -54q-120 0 -168 58q-43 52 -43 165q0 119 59 172q53 47 156 47q80 0 133 -33q49 -30 69 -83
q22 -59 22 -197zM414 451q0 84 -36 117q-31 28 -97 28q-78 0 -106 -35q-25 -31 -25 -105q0 -91 30 -121q26 -25 91 -25q78 0 113 39q30 35 30 102z" />
    <glyph glyph-name="colon" unicode=":" horiz-adv-x="223" 
d="M166 438q0 -56 -54 -56q-26 0 -40.5 14.5t-14.5 41.5q0 54 55 54q54 0 54 -54zM166 48q0 -56 -54 -56q-26 0 -40.5 14.5t-14.5 41.5q0 54 55 54q54 0 54 -54z" />
    <glyph glyph-name="semicolon" unicode=";" horiz-adv-x="222" 
d="M165 438q0 -56 -54 -56q-26 0 -40.5 14.5t-14.5 41.5q0 54 55 54q54 0 54 -54zM148 9q0 -46 -10 -73t-36 -52l-37 -35l-53 51q28 27 35.5 34.5t12.5 17.5q9 18 9 57v93h79v-93z" />
    <glyph glyph-name="less" unicode="&#x3c;" horiz-adv-x="583" 
d="M550 75l-29 -75l-488 205v75l487 204l30 -75l-407 -166z" />
    <glyph glyph-name="equal" unicode="=" horiz-adv-x="582" 
d="M544 298h-506v77h506v-77zM544 113h-506v77h506v-77z" />
    <glyph glyph-name="greater" unicode="&#x3e;" horiz-adv-x="583" 
d="M550 205l-488 -205l-29 75l407 168l-407 166l30 75l487 -204v-75z" />
    <glyph glyph-name="question" unicode="?" horiz-adv-x="442" 
d="M420 505q0 -66 -27 -106q-23 -34 -70 -58q-39 -20 -49 -26.5t-16 -15.5q-11 -17 -11 -67v-42h-86v58q-4 111 84 145q90 31 91 112q0 62 -26 85q-26 22 -88 22q-70 0 -95 -26q-21 -22 -21 -71h-83q0 102 60 142q46 32 137 32q108 0 155 -46q45 -44 45 -138zM259 46
q0 -54 -55 -54q-54 0 -54 54q0 56 54 56q26 0 40.5 -14.5t14.5 -41.5z" />
    <glyph glyph-name="at" unicode="@" horiz-adv-x="768" 
d="M696 379q0 -80 -8 -126q-13 -69 -44 -99q-24 -23 -55 -32.5t-82 -9.5h-14v36q-45 -42 -121 -42q-110 0 -144 67q-22 42 -22 137q0 68 9 104q12 50 45 74q39 28 111 28q76 0 121 -43v36h59v-338q28 0 46 21q37 44 37 195q0 98 -22 145q-22 48 -77 66q-47 15 -148 15
q-114 0 -168 -30q-51 -29 -69 -98q-12 -52 -13 -175q-1 -132 11 -184q16 -71 68 -101q54 -31 175 -31q92 0 139 16q59 19 86 68l53 -30q-40 -75 -136 -101q-55 -14 -147 -14q-142 0 -210 40q-65 38 -87 125q-17 67 -17 217q0 140 21 209q25 80 90 115q68 35 202 35
q126 0 188 -22q68 -24 96 -87q27 -61 27 -186zM492 310q0 89 -32 119q-27 26 -92 26q-66 0 -85 -43q-12 -27 -12 -102q0 -49 3.5 -73t13.5 -39q20 -32 81 -32q73 0 99 34q24 32 24 110z" />
    <glyph glyph-name="A" unicode="A" horiz-adv-x="628" 
d="M616 0h-97l-68 184h-279l-67 -184h-93l258 667h89zM423 261l-111 299l-111 -299h222z" />
    <glyph glyph-name="B" unicode="B" horiz-adv-x="651" 
d="M579 192q0 -138 -92 -175q-27 -10 -58.5 -13.5t-107.5 -3.5h-237v667h231h40q72 0 109 -8q53 -12 79 -45q31 -40 31 -115q0 -126 -67 -155q38 -17 55 -52.5t17 -99.5zM486 485q0 52 -20 75q-18 20 -59 25q-20 2 -99 2h-136v-205h143h51q38 0 58.5 4t33.5 15q27 22 28 84z
M491 190q0 57 -19 82q-18 22 -59 27q-20 3 -100 3h-141v-222h141h47q42 0 64 4.5t37 15.5q30 24 30 90z" />
    <glyph glyph-name="C" unicode="C" horiz-adv-x="647" 
d="M584 179q0 -109 -71 -153q-56 -34 -170 -34q-128 0 -190 44q-54 39 -71 120q-10 52 -10 178t11 177q16 81 70 119q63 44 191 44q130 0 186 -46q54 -44 54 -141h-86q0 41 -13 63q-15 23 -49.5 33t-100.5 10q-83 0 -120 -25q-35 -24 -46 -83q-8 -42 -8 -152t8 -152
q11 -59 46 -82q37 -25 120 -25q102 0 135 25q28 22 28 80h86z" />
    <glyph glyph-name="D" unicode="D" horiz-adv-x="671" 
d="M599 333q0 -107 -8.5 -158.5t-32.5 -87.5q-34 -52 -95 -71q-50 -16 -139 -16h-240v667h240q101 0 153 -21q50 -20 80 -66q24 -37 33 -89t9 -158zM510 333q0 87 -7.5 133.5t-25.5 72.5q-20 29 -60 39q-33 8 -99 8h-146v-505h146q75 0 109 11q32 10 50 35q18 26 25.5 72.5
t7.5 133.5z" />
    <glyph glyph-name="E" unicode="E" horiz-adv-x="593" 
d="M522 0h-438v667h438v-80h-349v-205h339v-80h-339v-222h349v-80z" />
    <glyph glyph-name="F" unicode="F" horiz-adv-x="570" 
d="M512 587h-340v-205h331v-80h-331v-302h-88v667h428v-80z" />
    <glyph glyph-name="G" unicode="G" horiz-adv-x="672" 
d="M331 -8q-118 0 -177 40q-52 37 -70 117q-12 56 -12 184t10 179q17 81 71 119q63 43 192 43q131 0 190 -45q59 -46 59 -142h-88q0 63 -43 86q-37 19 -127 19q-86 0 -124 -27q-35 -25 -45 -85q-6 -37 -6 -147q0 -108 7 -148q10 -59 45 -84q37 -27 119 -27q84 0 122 21
q36 20 47 70q7 34 7 127h-172v78h258v-132q0 -80 -16 -126q-21 -58 -74 -87q-61 -33 -173 -33z" />
    <glyph glyph-name="H" unicode="H" horiz-adv-x="657" 
d="M573 0h-88v302h-312v-302h-89v667h89v-285h312v285h88v-667z" />
    <glyph glyph-name="I" unicode="I" horiz-adv-x="257" 
d="M173 0h-89v667h89v-667z" />
    <glyph glyph-name="J" unicode="J" horiz-adv-x="537" 
d="M459 213q0 -61 -4 -85q-13 -81 -81 -113q-48 -23 -127 -23q-113 0 -163 45t-50 142h85q0 -67 36 -89q27 -17 92 -17q58 0 85 15q25 13 33 45q5 22 5 78v456h89v-454z" />
    <glyph glyph-name="K" unicode="K" horiz-adv-x="607" 
d="M602 0h-132l-297 285v-285h-89v667h88v-288l307 288h121l-361 -332z" />
    <glyph glyph-name="L" unicode="L" horiz-adv-x="520" 
d="M512 0h-428v667h89v-587h339v-80z" />
    <glyph glyph-name="M" unicode="M" horiz-adv-x="824" 
d="M740 0h-85v533l-201 -533h-85l-201 533v-533h-84v667h115l214 -556l212 556h115v-667z" />
    <glyph glyph-name="N" unicode="N" horiz-adv-x="655" 
d="M571 0h-94l-307 520v-520h-86v667h93l308 -517v517h86v-667z" />
    <glyph glyph-name="O" unicode="O" horiz-adv-x="674" 
d="M601 335q0 -127 -11 -181q-17 -82 -70 -119q-61 -43 -184 -43q-125 0 -186 44q-53 38 -69 120q-10 51 -10 178t10 177q15 81 68 119q61 44 186 44q126 0 187 -43q53 -38 69 -119q10 -51 10 -177zM512 334q0 94 -6 137.5t-23 69.5q-18 28 -52 40t-96 12q-66 0 -101 -14
q-31 -13 -47 -39q-16 -25 -22 -68t-6 -139q0 -94 6 -137.5t23 -69.5q17 -28 51.5 -40t96.5 -12q65 0 100 14q30 12 47 38t23 69.5t6 138.5z" />
    <glyph glyph-name="P" unicode="P" horiz-adv-x="615" 
d="M573 477q0 -89 -34 -134q-30 -39 -92 -51q-42 -9 -136 -9h-138v-283h-89v667h227q94 0 135 -8q63 -12 93 -50q34 -44 34 -132zM485 475q0 76 -45 99q-26 13 -92 13h-39h-136v-224h136h39q66 0 92 13q45 23 45 99z" />
    <glyph glyph-name="Q" unicode="Q" horiz-adv-x="674" 
d="M601 335q0 -94 -5.5 -144t-19.5 -82l75 -51l-47 -65l-74 51q-58 -52 -194 -52q-125 0 -186 44q-53 38 -69 120q-10 51 -10 178t10 177q15 81 68 119q61 44 186 44q126 0 187 -43q53 -38 69 -119q10 -51 10 -177zM366 159l47 65l86 -61q13 33 13 171q0 94 -6 137.5
t-23 69.5q-18 28 -52 40t-96 12q-66 0 -101 -14q-31 -13 -47 -39q-16 -25 -22 -68t-6 -139q0 -94 6 -137.5t23 -69.5q17 -28 51.5 -40t96.5 -12q83 0 120 23z" />
    <glyph glyph-name="R" unicode="R" horiz-adv-x="654" 
d="M605 0h-106l-127 193q-29 45 -41 60t-24 22q-10 6 -22.5 7.5t-46.5 1.5h-65v-284h-89v667h226q93 0 135 -8q63 -13 93 -52q35 -44 35 -133q0 -173 -163 -183zM486 473q0 56 -20 82q-18 22 -57 28q-23 4 -90 4h-146v-222h164q57 0 80.5 3.5t38.5 13.5q30 21 30 91z" />
    <glyph glyph-name="S" unicode="S" horiz-adv-x="648" 
d="M588 203q0 -116 -74 -167q-65 -44 -191 -44q-140 0 -200 45q-59 45 -59 142h88q0 -41 15 -63q16 -23 52.5 -33t105.5 -10q106 0 143 34q30 27 30 91q0 69 -42 87q-13 6 -28.5 8t-64.5 4l-139 5q-76 8 -113 42q-47 42 -47 134q0 116 71 160q59 36 186 36q140 0 201 -45
q59 -45 59 -142h-86q0 71 -54 92q-35 14 -122 14q-108 0 -140 -28q-26 -23 -26 -86q0 -66 44 -83q13 -6 28 -8t63 -4l139 -6q76 -8 114 -41q47 -42 47 -134z" />
    <glyph glyph-name="T" unicode="T" horiz-adv-x="541" 
d="M523 588h-208v-588h-89v588h-208v79h505v-79z" />
    <glyph glyph-name="U" unicode="U" horiz-adv-x="652" 
d="M574 335q0 -114 -2 -146q-3 -47 -16 -81q-46 -116 -230 -116t-230 116q-13 34 -16 81q-2 32 -2 146v332h89v-332v-64q0 -59 3.5 -89t12.5 -49q29 -60 143 -60q65 0 100 17q30 14 44 42q9 19 12.5 48.5t3.5 89.5v65v332h88v-332z" />
    <glyph glyph-name="V" unicode="V" horiz-adv-x="593" 
d="M589 667l-251 -667h-86l-248 667h94l199 -548l199 548h93z" />
    <glyph glyph-name="W" unicode="W" horiz-adv-x="884" 
d="M848 667l-163 -667h-94l-149 545l-148 -545h-98l-160 667h90l125 -534l145 534h94l144 -534l127 534h87z" />
    <glyph glyph-name="X" unicode="X" horiz-adv-x="590" 
d="M566 0h-101l-171 273l-170 -273h-100l219 340l-213 327h101l165 -262l164 262h101l-214 -327z" />
    <glyph glyph-name="Y" unicode="Y" horiz-adv-x="568" 
d="M566 667l-237 -376v-291h-89v291l-238 376h102l182 -295l180 295h100z" />
    <glyph glyph-name="Z" unicode="Z" horiz-adv-x="610" 
d="M549 0h-488v78l382 510h-382v79h488v-78l-383 -509h383v-80z" />
    <glyph glyph-name="bracketleft" unicode="[" horiz-adv-x="311" 
d="M282 -191h-231v997h231v-75h-148v-846h148v-76z" />
    <glyph glyph-name="backslash" unicode="\" horiz-adv-x="492" 
d="M504 -98h-83l-433 868h83z" />
    <glyph glyph-name="bracketright" unicode="]" horiz-adv-x="311" 
d="M260 -191h-231v76h148v846h-148v75h231v-997z" />
    <glyph glyph-name="asciicircum" unicode="^" horiz-adv-x="583" 
d="M547 215l-77 -30l-181 388l-177 -388l-76 31l219 460h71z" />
    <glyph glyph-name="underscore" unicode="_" horiz-adv-x="523" 
d="M523 -194h-523v79h523v-79z" />
    <glyph glyph-name="grave" unicode="`" horiz-adv-x="427" 
d="M328 541h-96l-133 126h96z" />
    <glyph glyph-name="a" unicode="a" horiz-adv-x="539" 
d="M474 0h-78v47q-22 -26 -64 -40.5t-97 -14.5q-100 0 -145 39q-43 37 -43 112q0 99 68 132q44 22 132 22h143q0 51 -4 68q-7 27 -31 39q-27 13 -87 13q-62 0 -88 -12q-37 -17 -37 -60h-82q0 88 70 122q51 25 144 25q141 0 181 -75q11 -22 14.5 -45.5t3.5 -74.5v-297z
M391 225h-148q-64 0 -87 -17q-23 -18 -23 -64q0 -45 27 -62q25 -17 83 -17q66 0 99 18q31 16 41 53q8 28 8 89z" />
    <glyph glyph-name="b" unicode="b" horiz-adv-x="557" 
d="M502 241q0 -78 -10 -121q-15 -60 -55 -91q-49 -37 -138 -37q-101 0 -151 55v-47h-78v697h85v-258q46 53 153 53q127 0 167 -79q27 -53 27 -172zM416 242q0 54 -5.5 85.5t-19.5 49.5q-25 35 -93 35q-57 0 -86 -14q-32 -15 -45 -51t-13 -105t13 -105q13 -37 45 -53
q29 -14 86 -14q76 0 100 47q18 36 18 125z" />
    <glyph glyph-name="c" unicode="c" horiz-adv-x="523" 
d="M473 141q0 -149 -201 -149q-142 0 -188 81q-19 34 -25 89q-4 32 -4 81q0 83 13 129q16 59 61 87q50 33 143 33q201 0 201 -149h-81q0 47 -44 63q-25 9 -74 9q-60 0 -89 -18q-28 -17 -37 -57q-7 -30 -7 -97t7 -98q9 -40 37 -57q29 -19 89 -19q57 0 83 13q35 17 35 59h81z
" />
    <glyph glyph-name="d" unicode="d" horiz-adv-x="557" 
d="M487 0h-79v49q-50 -57 -154 -57q-134 0 -175 85q-16 34 -21 88q-3 30 -3 77q0 81 12 127q15 60 54 89q45 34 128 34q107 0 153 -53v258h85v-697zM403 241q0 69 -13 105q-13 37 -45 52q-29 14 -86 14q-50 0 -75 -18q-24 -16 -33.5 -50.5t-9.5 -102.5q0 -55 5.5 -86
t19.5 -50q25 -35 93 -35q57 0 86 14q32 15 45 52q13 36 13 105z" />
    <glyph glyph-name="e" unicode="e" horiz-adv-x="538" 
d="M483 213h-342q0 -55 9 -83q11 -34 39 -49q29 -15 86 -15t86 14q36 18 36 61h80q0 -149 -204 -149q-140 0 -186 76q-32 52 -32 170q0 85 14 133q18 60 62 89q49 32 139 32q97 0 145 -36q43 -31 58 -97q10 -47 10 -146zM399 286q0 50 -9 76q-11 30 -38 43q-28 14 -82 14
q-79 0 -107 -39q-21 -29 -21 -94h257z" />
    <glyph glyph-name="f" unicode="f" horiz-adv-x="335" 
d="M308 704v-73h-36q-53 0 -70 -19.5t-17 -80.5v-47h123v-73h-123v-411h-85v411h-78v73h78v70q0 99 64 132q35 18 106 18h38z" />
    <glyph glyph-name="g" unicode="g" horiz-adv-x="556" 
d="M486 49q0 -82 -4 -109q-12 -79 -88 -112q-51 -22 -128 -22q-94 0 -146 35q-54 36 -54 109h84q0 -36 33 -54q29 -15 80 -15q125 0 135 78q3 21 3 63v31q-47 -53 -149 -53q-131 0 -172 83q-17 34 -22 87q-3 30 -3 76q0 81 12 127q16 58 56 87q45 32 128 32q106 0 156 -54
v46h79v-435zM402 245q0 68 -13 103q-13 37 -45 52q-29 14 -86 14q-50 0 -75 -17q-23 -16 -32.5 -50t-9.5 -102q0 -64 8 -96q10 -37 34 -53q26 -17 75 -17q57 0 86 13q32 14 45 50q13 35 13 103z" />
    <glyph glyph-name="h" unicode="h" horiz-adv-x="543" 
d="M478 0h-85v255v43q0 38 -4 57.5t-15 32.5q-22 25 -87 25q-96 0 -120 -65q-7 -20 -9.5 -43.5t-2.5 -81.5v-223h-85v697h85v-256q51 51 140 51q122 0 161 -66q22 -38 22 -121v-40v-265z" />
    <glyph glyph-name="i" unicode="i" horiz-adv-x="225" 
d="M162 624q0 -23 -13.5 -36.5t-36.5 -13.5t-36.5 13.5t-13.5 36.5t13.5 36.5t36.5 13.5t36.5 -13.5t13.5 -36.5zM155 0h-85v484h85v-484z" />
    <glyph glyph-name="j" unicode="j" horiz-adv-x="225" 
d="M-46 -190v72h29q53 0 70 19.5t17 80.5v502h85v-524q0 -99 -64 -132q-35 -18 -106 -18h-31zM162 624q0 -23 -13.5 -36.5t-36.5 -13.5t-36.5 13.5t-13.5 36.5t13.5 36.5t36.5 13.5t36.5 -13.5t13.5 -36.5z" />
    <glyph glyph-name="k" unicode="k" horiz-adv-x="497" 
d="M496 0h-116l-225 230v-230h-85v697h85v-404l224 191h117l-262 -222z" />
    <glyph glyph-name="l" unicode="l" horiz-adv-x="254" 
d="M242 68v-73h-23q-79 0 -111 28q-38 33 -38 115v559h85v-529q0 -37 2.5 -54t8.5 -26q13 -20 56 -20h20z" />
    <glyph glyph-name="m" unicode="m" horiz-adv-x="805" 
d="M740 0h-85v293q0 44 -2.5 62t-11.5 31q-18 28 -78 28q-77 0 -101 -58q-14 -33 -14 -105v-31v-220h-85v293q0 44 -2.5 62t-11.5 31q-18 28 -78 28q-85 0 -107 -73q-6 -21 -7.5 -41.5t-1.5 -81.5v-218h-85v484h79v-46q48 54 137 54q98 0 135 -64q28 33 64 48.5t87 15.5
q120 0 155 -80q13 -31 13 -86v-35v-291z" />
    <glyph glyph-name="n" unicode="n" horiz-adv-x="543" 
d="M478 0h-85v255v43q0 38 -4 57.5t-15 32.5q-22 25 -87 25q-96 0 -120 -65q-7 -20 -9.5 -43.5t-2.5 -81.5v-223h-85v484h77v-47q50 55 148 55q122 0 161 -66q22 -38 22 -121v-40v-265z" />
    <glyph glyph-name="o" unicode="o" horiz-adv-x="555" 
d="M500 242q0 -83 -11 -127q-12 -43 -38 -69q-54 -54 -173 -54q-120 0 -174 54q-30 30 -41 82q-8 41 -8 114q0 83 11 127q12 43 38 69q54 54 174 54q119 0 173 -54q30 -30 41 -82q8 -41 8 -114zM414 242q0 68 -7 98q-9 40 -37 57q-30 18 -92 18q-63 0 -93 -19
q-28 -17 -37 -57q-7 -30 -7 -97t7 -97q9 -40 37 -57q30 -19 93 -19t93 19q27 17 36 57q7 29 7 97z" />
    <glyph glyph-name="p" unicode="p" horiz-adv-x="557" 
d="M502 241q0 -77 -11 -120q-15 -61 -56 -92q-48 -37 -136 -37q-97 0 -144 54v-237h-85v675h79v-48q52 56 156 56q85 0 130 -32q41 -29 55 -87q12 -46 12 -132zM417 242q0 54 -5.5 85.5t-19.5 49.5q-25 35 -93 35q-57 0 -86 -14q-32 -14 -45 -51q-13 -36 -13 -105t13 -105
q13 -38 45 -53q29 -14 86 -14q76 0 100 47q18 36 18 125z" />
    <glyph glyph-name="q" unicode="q" horiz-adv-x="556" 
d="M486 -191h-85v237q-50 -54 -151 -54q-131 0 -171 85q-17 35 -21 89q-3 29 -3 76q0 82 11 127q15 60 55 89q45 34 129 34q105 0 157 -56v48h79v-675zM401 241q0 69 -13 105q-13 37 -44 52q-30 14 -86 14q-49 0 -75 -18q-23 -16 -32.5 -50.5t-9.5 -102.5q0 -54 5.5 -85.5
t19.5 -50.5q25 -35 92 -35q56 0 86 14q31 15 44 52q13 36 13 105z" />
    <glyph glyph-name="r" unicode="r" horiz-adv-x="450" 
d="M440 345h-82q0 43 -22 58q-19 12 -65 12q-77 0 -102 -64q-14 -36 -14 -111v-30v-210h-85v484h80v-47q46 55 137 55q153 0 153 -147z" />
    <glyph glyph-name="s" unicode="s" horiz-adv-x="513" 
d="M463 343h-79q0 44 -28 60q-25 15 -82 16h-12q-71 0 -97 -19q-20 -15 -21 -46q-1 -52 32 -63q12 -5 37 -6l34 -1l85 -4q69 -7 98 -37q31 -33 31 -104q0 -87 -65 -121q-51 -27 -149 -26q-107 1 -153 37q-44 35 -44 112h79q0 -44 28 -61q26 -15 89 -15q78 0 103 16
q27 17 27 64q0 23 -7 35t-24 18q-16 5 -80 8q-78 3 -101 7q-51 8 -76 36q-29 32 -29 99q1 87 66 120q49 25 148 24q101 -1 146 -37q44 -36 44 -112z" />
    <glyph glyph-name="t" unicode="t" horiz-adv-x="341" 
d="M316 69v-74h-47q-85 0 -121 34q-39 35 -39 116v266h-80v73h80v183h85v-183h122v-73h-122v-242q0 -37 2.5 -53t10.5 -26q16 -21 69 -21h40z" />
    <glyph glyph-name="u" unicode="u" horiz-adv-x="543" 
d="M465 0h-79v48q-51 -56 -148 -56q-132 0 -165 82q-10 25 -13 51t-3 95v264h86v-255v-43q0 -38 4 -57.5t15 -32.5q22 -25 87 -25q95 0 119 65q8 20 10 42.5t2 82.5v223h85v-484z" />
    <glyph glyph-name="v" unicode="v" horiz-adv-x="490" 
d="M477 484l-189 -484h-85l-190 484h91l143 -380l141 380h89z" />
    <glyph glyph-name="w" unicode="w" horiz-adv-x="713" 
d="M693 484l-138 -484h-89l-108 378l-108 -378h-91l-139 484h89l100 -377l105 377h87l106 -377l100 377h86z" />
    <glyph glyph-name="x" unicode="x" horiz-adv-x="495" 
d="M480 0h-102l-131 188l-134 -188h-98l182 247l-175 237h102l124 -178l128 178h99l-177 -236z" />
    <glyph glyph-name="y" unicode="y" horiz-adv-x="543" 
d="M386 34v14q-51 -56 -148 -56q-132 0 -165 82q-10 25 -13 51t-3 95v264h86v-255v-43q0 -38 4 -57.5t15 -32.5q22 -25 87 -25q95 0 119 65q8 20 10 42.5t2 82.5v223h85v-456q0 -68 -9 -102q-13 -56 -54 -85q-50 -35 -144 -35q-92 0 -143 35q-53 36 -53 109h84
q2 -70 109 -70q89 0 115 49q16 30 16 105z" />
    <glyph glyph-name="z" unicode="z" horiz-adv-x="487" 
d="M440 0h-394v72l286 339h-286v73h394v-72l-285 -336h285v-76z" />
    <glyph glyph-name="braceleft" unicode="{" horiz-adv-x="381" 
d="M349 -191q-116 0 -159 54q-37 47 -37 151v162q0 17 -8.5 31t-32.5 37q-25 24 -34 39.5t-9 34.5t9 34t34 39q24 23 32.5 36.5t8.5 30.5v164q0 118 49 163q45 41 147 41v-75q-49 0 -73 -12q-23 -11 -31.5 -36t-8.5 -79v-178q0 -40 -26 -71l-43 -42q-8 -8 -8 -16t7 -15
l35 -33q19 -19 27 -37t8 -43v-177q0 -43 5.5 -66.5t18.5 -36.5q23 -24 89 -24v-76z" />
    <glyph glyph-name="bar" unicode="|" horiz-adv-x="285" 
d="M184 -191h-83v858h83v-858z" />
    <glyph glyph-name="braceright" unicode="}" horiz-adv-x="381" 
d="M312 318q0 -19 -9 -34.5t-34 -39.5q-24 -23 -32.5 -37t-8.5 -31v-162q0 -119 -49 -164q-45 -41 -147 -41v76q48 0 72 12q23 11 32 36.5t9 78.5v177q0 40 23 68l47 45q7 7 7 15t-8 16l-31 30q-38 37 -38 83v178q0 44 -5 67t-18 36q-23 24 -90 24v75q116 0 159 -54
q37 -46 37 -150v-164q0 -17 8.5 -30.5t32.5 -36.5q25 -24 34 -39t9 -34z" />
    <glyph glyph-name="asciitilde" unicode="~" horiz-adv-x="582" 
d="M549 256q-10 -9 -41 -32t-42 -30q-43 -28 -88 -28q-40 0 -76 23q-48 31 -66 39t-36 8q-22 0 -45 -14q-46 -32 -74 -54l-48 58q10 9 40.5 32t42.5 30q44 28 89 28q40 0 75 -23q49 -31 66 -38.5t36 -7.5q21 0 44 14q47 31 74 53z" />
    <glyph glyph-name="nonbreakingspace" unicode="&#xa0;" horiz-adv-x="237" 
 />
    <glyph glyph-name="exclamdown" unicode="&#xa1;" horiz-adv-x="289" 
d="M199 438q0 -56 -54 -56q-26 0 -40.5 14.5t-14.5 41.5q0 54 55 54q54 0 54 -54zM186 -183h-83v477h83v-477z" />
    <glyph glyph-name="cent" unicode="&#xa2;" horiz-adv-x="537" 
d="M487 141q0 -135 -171 -147v-89h-76v89q-118 9 -157 84q-28 52 -28 166q0 80 13 125q15 56 53 85q42 31 119 37v84h76v-84q171 -12 171 -148h-81q0 65 -90 71v-344q90 6 90 71h81zM240 70v344q-66 -7 -86 -55q-14 -34 -14 -116q0 -52 4 -80.5t15 -47.5q21 -38 81 -45z" />
    <glyph glyph-name="sterling" unicode="&#xa3;" horiz-adv-x="578" 
d="M538 0h-485v78h61v221h-61v77h61v82v31q0 48 8 76q9 35 34 59q52 50 167 50q53 0 86 -6t57 -21q63 -37 63 -132h-82q0 46 -24.5 63.5t-89.5 17.5q-61 0 -90 -13q-27 -13 -36 -44q-7 -23 -7 -79v-84h285v-77h-285v-221h338v-78z" />
    <glyph glyph-name="currency" unicode="&#xa4;" horiz-adv-x="574" 
d="M287 572q70 0 133 -45l88 91l54 -54l-89 -90q44 -62 44 -132q0 -69 -43 -134l89 -86l-56 -54l-87 87q-59 -43 -131 -43q-70 0 -135 43l-87 -87l-54 54l87 86q-44 63 -44 135q0 67 44 132l-91 89l57 54l89 -88q60 42 132 42zM288 495q-69 0 -114 -49q-39 -43 -39 -102
q0 -69 50 -114q43 -39 102 -39q67 0 112 50q39 44 39 102q0 67 -50 113q-43 39 -100 39z" />
    <glyph glyph-name="yen" unicode="&#xa5;" horiz-adv-x="581" 
d="M565 667l-148 -242h76v-72h-120l-35 -56h155v-72h-159v-225h-87v225h-159v72h155l-35 56h-121v72h77l-148 242h99l176 -294l175 294h99z" />
    <glyph glyph-name="brokenbar" unicode="&#xa6;" horiz-adv-x="285" 
d="M184 344h-83v323h83v-323zM184 -191h-83v323h83v-323z" />
    <glyph glyph-name="section" unicode="&#xa7;" horiz-adv-x="575" 
d="M495 49q0 -96 -68 -132q-46 -24 -133 -25q-116 -1 -165 37q-48 37 -48 122h85q0 -49 30 -66q28 -16 98 -15q63 0 87 17q27 19 27 67q0 56 -40 70q-19 6 -84 6q-62 0 -92 6q-39 8 -66 30q-45 37 -45 116q0 88 60 114q-61 29 -61 121q0 96 68 132q46 24 133 25
q115 1 164 -37q48 -37 49 -122h-85q0 49 -30 66q-28 16 -98 15q-63 0 -87 -17q-27 -19 -27 -67q0 -57 40 -70q12 -4 26 -5t58 -1q62 0 92 -6q39 -8 66 -30q45 -37 45 -116q0 -88 -60 -114q61 -29 61 -121zM407 285q0 52 -38 67q-22 8 -83 8q-65 0 -88 -13q-31 -18 -31 -67
q0 -52 39 -67q22 -8 83 -8q65 0 88 13q30 18 30 67z" />
    <glyph glyph-name="dieresis" unicode="&#xa8;" horiz-adv-x="427" 
d="M370 619q0 -49 -50 -49q-48 0 -48 49q0 25 11.5 36.5t36.5 11.5q50 0 50 -48zM155 619q0 -49 -50 -49q-48 0 -48 49q0 25 11.5 36.5t36.5 11.5q50 0 50 -48z" />
    <glyph glyph-name="copyright" unicode="&#xa9;" horiz-adv-x="815" 
d="M743 334q0 -134 -29 -205q-30 -75 -103 -106q-70 -31 -204 -31q-135 0 -205 31q-73 31 -102 107q-28 70 -28 206q0 137 28 206q29 73 102 103q69 29 205 29q135 0 205 -29q73 -31 103 -105q28 -70 28 -206zM679 337q0 116 -21 171q-22 60 -80 84q-56 22 -171 22
q-117 0 -172 -23q-58 -24 -80 -85q-19 -55 -19 -173q0 -114 20 -170q23 -61 81 -86q56 -24 170 -24q115 0 171 25q59 25 81 88q20 56 20 171zM601 254q0 -91 -61 -125q-44 -25 -131 -25q-84 0 -129 24q-44 23 -62 75q-15 46 -15 131q0 84 16 130q18 52 61 75q46 25 129 25
q100 0 145 -34q47 -35 47 -116h-64q0 51 -28 70.5t-100 19.5q-63 0 -94 -18q-29 -17 -39 -56q-7 -30 -7 -96t7 -96q10 -39 38 -56q31 -18 95 -18q69 0 96 17q32 20 32 73h64z" />
    <glyph glyph-name="ordfeminine" unicode="&#xaa;" horiz-adv-x="382" 
d="M345 336h-54v37q-27 -23 -52.5 -32.5t-63.5 -9.5q-75 0 -108 26q-32 25 -32 77q0 69 50 93q32 16 95 16h103v1q1 48 -20 62q-18 13 -69 13q-43 0 -64 -9q-24 -11 -24 -36h-61q0 100 155 100q103 0 131 -55q9 -15 11.5 -33.5t2.5 -58.5v-191zM282 488h-105q-45 0 -62 -10
q-19 -12 -19 -43q0 -29 16.5 -39.5t60.5 -10.5q74 0 97 40q7 13 9.5 26t2.5 37z" />
    <glyph glyph-name="guillemotleft" unicode="&#xab;" horiz-adv-x="478" 
d="M439 397l-41 -42q-38 -39 -51 -58q-20 -30 -20 -57q0 -32 29 -68q11 -14 51 -54l31 -31l-55 -52q-71 66 -95 98q-42 55 -42 106q0 56 54 123q24 30 84 88zM236 397l-41 -42q-38 -39 -51 -58q-20 -30 -20 -57q0 -32 29 -68q11 -14 51 -54l31 -31l-55 -52q-71 66 -95 98
q-42 55 -42 106q0 56 54 123q24 30 84 88z" />
    <glyph glyph-name="logicalnot" unicode="&#xac;" horiz-adv-x="582" 
d="M544 0h-81v297h-425v78h506v-375z" />
    <glyph glyph-name="uni00AD" unicode="&#xad;" horiz-adv-x="505" 
d="M431 204h-357v77h357v-77z" />
    <glyph glyph-name="registered" unicode="&#xae;" horiz-adv-x="525" 
d="M489 448q0 -89 -19 -136q-21 -50 -70 -71q-47 -20 -137 -20q-92 0 -139 20q-49 21 -69 71q-19 46 -19 137q0 93 19 139q19 48 69 68q46 18 139 18q92 0 139 -19q49 -19 68 -68q19 -47 19 -139zM441 450q0 76 -13 111q-15 39 -53 53q-36 14 -112 14q-78 0 -114 -14
q-37 -14 -51 -50t-14 -117q0 -76 13 -111q15 -39 53 -55q37 -14 113 -14t112 15q37 16 51.5 52.5t14.5 115.5zM366 314h-46v80q0 25 -8 31.5t-38 6.5h-59v-118h-48v274h96q56 0 76 -12q27 -16 27 -62q0 -22 -6.5 -35.5t-21.5 -23.5q16 -9 22 -23t6 -41v-77zM319 510
q0 24 -7.5 30.5t-32.5 6.5h-20h-45v-73h48h19q22 0 29 7q9 8 9 29z" />
    <glyph glyph-name="macron" unicode="&#xaf;" horiz-adv-x="428" 
d="M386 587h-344v65h344v-65z" />
    <glyph glyph-name="degree" unicode="&#xb0;" horiz-adv-x="537" 
d="M418 517q0 -85 -41 -122q-36 -32 -108 -32q-83 0 -119 42q-31 37 -31 112q0 85 41 120q35 30 108 30q83 0 118 -40q32 -36 32 -110zM354 515q0 54 -20 72q-19 18 -66 18q-53 0 -70 -23q-14 -19 -14 -67q0 -54 19 -72q18 -18 65 -18q53 0 71 23q15 20 15 67z" />
    <glyph glyph-name="plusminus" unicode="&#xb1;" horiz-adv-x="582" 
d="M545 307h-216v-178h-77v178h-215v77h215v177h77v-177h216v-77zM550 0h-518v77h518v-77z" />
    <glyph glyph-name="twosuperior" unicode="&#xb2;" 
d="M346 554q0 -59 -28 -83q-10 -7 -19 -11.5t-43 -17.5l-71 -26q-32 -13 -42 -29q-7 -12 -7 -33v-31h209v-56h-272v97q0 66 55 94q20 10 54 20l44 12q35 10 46 23t11 41q0 39 -18 52q-16 11 -56 11q-44 0 -59 -10q-16 -11 -16 -38h-62q0 62 44 86q32 18 92 18q73 0 106 -30
q32 -28 32 -89z" />
    <glyph glyph-name="threesuperior" unicode="&#xb3;" 
d="M349 381q0 -71 -44 -99q-33 -21 -98 -21q-71 0 -104 25q-34 26 -34 82h62q1 -29 17.5 -40t58.5 -11q51 0 66 12q14 13 14 51q0 47 -19 59q-14 10 -59 10h-59v55h59q45 0 59 10q15 11 15 44q0 35 -15 47q-16 12 -59 12t-59.5 -11t-16.5 -40h-61q0 63 43 88q33 19 94 19
q75 0 107 -29q29 -27 29 -84q0 -35 -7 -53.5t-26 -30.5q20 -12 28.5 -33.5t8.5 -61.5z" />
    <glyph glyph-name="acute" unicode="&#xb4;" horiz-adv-x="427" 
d="M328 667l-133 -126h-96l133 126h96z" />
    <glyph glyph-name="mu" unicode="&#xb5;" horiz-adv-x="548" 
d="M478 0h-79v47q-50 -55 -143 -55q-31 0 -59 7.5t-43 20.5v-211h-84v675h85v-255q0 -71 3 -90q5 -36 26 -51q23 -17 78 -17q95 0 119 65q8 20 10 43t2 82v223h85v-484z" />
    <glyph glyph-name="paragraph" unicode="&#xb6;" horiz-adv-x="590" 
d="M492 0h-78v590h-58v-590h-78v291h-45q-101 0 -147 42q-49 44 -49 145q0 91 39 135q33 37 101 48q37 6 137 6h178v-667zM278 369v221q-65 0 -82 -2q-37 -5 -54 -27q-20 -25 -20 -80q0 -76 33 -98q21 -14 80 -14h43z" />
    <glyph glyph-name="periodcentered" unicode="&#xb7;" horiz-adv-x="221" 
d="M165 337q0 -56 -54 -56q-26 0 -40.5 14.5t-14.5 41.5q0 54 55 54q54 0 54 -54z" />
    <glyph glyph-name="cedilla" unicode="&#xb8;" horiz-adv-x="428" 
d="M292 -110q0 -79 -84 -79q-46 0 -66 19q-18 16 -18 51h47q0 -16 7.5 -22t29.5 -6q20 0 27 7.5t7 27.5q0 31 -35 33q-8 1 -30 1v78h50v-41q34 -1 51 -22q14 -18 14 -47z" />
    <glyph glyph-name="onesuperior" unicode="&#xb9;" 
d="M241 267h-63v313l-63 -55l-38 42l113 100h51v-400z" />
    <glyph glyph-name="ordmasculine" unicode="&#xba;" horiz-adv-x="384" 
d="M351 503q0 -55 -8 -84.5t-28 -48.5q-39 -38 -123 -38q-85 0 -124 38q-20 20 -27.5 49t-7.5 84t7.5 84.5t27.5 49.5q38 37 124 37q85 0 123 -37q20 -19 28 -49t8 -85zM289 503q0 40 -4 60t-14 32q-20 23 -79 23q-45 0 -66 -12q-19 -10 -25 -30.5t-6 -72.5q0 -42 3.5 -60.5
t12.5 -30.5q20 -23 81 -23q68 0 85 31q12 20 12 83z" />
    <glyph glyph-name="guillemotright" unicode="&#xbb;" horiz-adv-x="478" 
d="M435 239q0 -56 -53 -120q-21 -26 -84 -84l-55 52l31 31q45 45 57 62q23 31 23 60q0 25 -14.5 48.5t-56.5 66.5l-41 42l55 53q69 -67 95 -103q43 -58 43 -108zM232 239q0 -56 -53 -120q-21 -26 -84 -84l-55 52l31 31q45 45 57 62q23 31 23 60q0 25 -14.5 48.5t-56.5 66.5
l-41 42l55 53q69 -67 95 -103q43 -58 43 -108z" />
    <glyph glyph-name="onequarter" unicode="&#xbc;" horiz-adv-x="878" 
d="M817 98h-58v-98h-61v98h-181v47l184 255h58v-249h58v-53zM698 151v155l-110 -155h110zM642 667l-338 -667h-68l336 667h70zM241 267h-63v313l-63 -55l-38 42l113 100h51v-400z" />
    <glyph glyph-name="onehalf" unicode="&#xbd;" horiz-adv-x="878" 
d="M814 287q0 -59 -28 -83q-10 -7 -19 -11.5t-43 -17.5l-71 -26q-32 -13 -42 -29q-7 -12 -7 -33v-31h209v-56h-272v97q0 66 55 94q20 10 54 20l44 12q35 10 46 23t11 41q0 39 -18 52q-16 11 -56 11q-44 0 -59 -10q-16 -11 -16 -38h-62q0 62 44 86q32 18 92 18q73 0 106 -30
q32 -28 32 -89zM642 667l-338 -667h-68l336 667h70zM241 267h-63v313l-63 -55l-38 42l113 100h51v-400z" />
    <glyph glyph-name="threequarters" unicode="&#xbe;" horiz-adv-x="878" 
d="M349 381q0 -71 -44 -99q-33 -21 -98 -21q-71 0 -104 25q-34 26 -34 82h62q1 -29 17.5 -40t58.5 -11q51 0 66 12q14 13 14 51q0 47 -19 59q-14 10 -59 10h-59v55h59q45 0 59 10q15 11 15 44q0 35 -15 47q-16 12 -59 12t-59.5 -11t-16.5 -40h-61q0 63 43 88q33 19 94 19
q75 0 107 -29q29 -27 29 -84q0 -35 -7 -53.5t-26 -30.5q20 -12 28.5 -33.5t8.5 -61.5zM817 98h-58v-98h-61v98h-181v47l184 255h58v-249h58v-53zM698 151v155l-110 -155h110zM642 667l-338 -667h-68l336 667h70z" />
    <glyph glyph-name="questiondown" unicode="&#xbf;" horiz-adv-x="442" 
d="M295 438q0 -56 -54 -56q-26 0 -40.5 14.5t-14.5 41.5q0 54 55 54q54 0 54 -54zM422 -31q0 -102 -60 -142q-46 -32 -137 -32q-108 0 -155 46q-45 44 -45 138q0 66 27 106q23 34 70 58q39 20 49 26.5t16 15.5q11 17 11 67v42h86v-58q0 -97 -78 -134q-104 -51 -97 -123
q0 -62 26 -85q26 -22 88 -22q70 0 95 26q21 22 21 71h83z" />
    <glyph glyph-name="Agrave" unicode="&#xc0;" horiz-adv-x="628" 
d="M616 0h-97l-68 184h-279l-67 -184h-93l258 667h89zM423 261l-111 299l-111 -299h222zM418 736h-96l-133 126h96z" />
    <glyph glyph-name="Aacute" unicode="&#xc1;" horiz-adv-x="628" 
d="M616 0h-97l-68 184h-279l-67 -184h-93l258 667h89zM423 261l-111 299l-111 -299h222zM450 862l-133 -126h-96l133 126h96z" />
    <glyph glyph-name="Acircumflex" unicode="&#xc2;" horiz-adv-x="628" 
d="M616 0h-97l-68 184h-279l-67 -184h-93l258 667h89zM423 261l-111 299l-111 -299h222zM489 735h-90l-79 76l-78 -76h-91l131 127h76z" />
    <glyph glyph-name="Atilde" unicode="&#xc3;" horiz-adv-x="628" 
d="M616 0h-97l-68 184h-279l-67 -184h-93l258 667h89zM423 261l-111 299l-111 -299h222zM508 802l-70 -36q-36 -16 -65 -16q-30 0 -59 17q-30 18 -33 20q-15 7 -29 7q-19 0 -43 -12l-59 -30l-31 58q68 35 70 36q36 15 65 15q31 0 60 -17q30 -18 33 -20q15 -7 29 -7
q18 0 42 12l59 31z" />
    <glyph glyph-name="Adieresis" unicode="&#xc4;" horiz-adv-x="628" 
d="M616 0h-97l-68 184h-279l-67 -184h-93l258 667h89zM423 261l-111 299l-111 -299h222zM475 815q0 -49 -50 -49q-48 0 -48 49q0 25 11.5 36.5t36.5 11.5q50 0 50 -48zM260 815q0 -49 -50 -49q-48 0 -48 49q0 25 11.5 36.5t36.5 11.5q50 0 50 -48z" />
    <glyph glyph-name="Aring" unicode="&#xc5;" horiz-adv-x="628" 
d="M615 0h-96l-69 184h-278l-68 -184h-92l242 629q-60 18 -60 110q0 65 32 88q27 20 87 20q69 0 96 -28q24 -25 24 -83q0 -92 -61 -107zM375 732q0 38 -12.5 50.5t-49.5 12.5q-39 0 -51 -15q-9 -13 -9 -48q0 -39 13 -50q12 -9 48 -9q40 0 51 13q10 12 10 46zM422 260
l-111 300l-111 -300h222z" />
    <glyph glyph-name="AE" unicode="&#xc6;" horiz-adv-x="931" 
d="M860 0h-397v184h-238l-121 -184h-102l446 667h412v-80h-310v-205h300v-80h-300v-222h310v-80zM463 262v284l-187 -284h187z" />
    <glyph glyph-name="Ccedilla" unicode="&#xc7;" horiz-adv-x="647" 
d="M584 179q0 -105 -63 -148q-52 -35 -156 -38v-34q34 -1 51 -22q14 -18 14 -47q0 -79 -84 -79q-46 0 -66 19q-18 16 -18 51h47q0 -16 7.5 -22t29.5 -6q20 0 27 7.5t7 27.5q0 31 -35 33q-8 1 -30 1v71q-115 4 -171 49q-48 39 -63 119q-9 50 -9 173q0 126 11 177
q16 81 70 119q63 44 191 44q130 0 186 -46q54 -44 54 -141h-86q0 41 -13 63q-15 23 -49.5 33t-100.5 10q-83 0 -120 -25q-35 -24 -46 -83q-8 -42 -8 -152t8 -152q11 -59 46 -82q37 -25 120 -25q102 0 135 26q28 22 28 79h86z" />
    <glyph glyph-name="Egrave" unicode="&#xc8;" horiz-adv-x="593" 
d="M522 0h-438v667h438v-80h-349v-205h339v-80h-339v-222h349v-80zM401 736h-96l-133 126h96z" />
    <glyph glyph-name="Eacute" unicode="&#xc9;" horiz-adv-x="593" 
d="M522 0h-438v667h438v-80h-349v-205h339v-80h-339v-222h349v-80zM432 862l-133 -126h-96l133 126h96z" />
    <glyph glyph-name="Ecircumflex" unicode="&#xca;" horiz-adv-x="593" 
d="M522 0h-438v667h438v-80h-349v-205h339v-80h-339v-222h349v-80zM474 735h-90l-79 76l-78 -76h-91l131 127h76z" />
    <glyph glyph-name="Edieresis" unicode="&#xcb;" horiz-adv-x="593" 
d="M522 0h-438v667h438v-80h-349v-205h339v-80h-339v-222h349v-80zM469 814q0 -49 -50 -49q-48 0 -48 49q0 25 11.5 36.5t36.5 11.5q50 0 50 -48zM254 814q0 -49 -50 -49q-48 0 -48 49q0 25 11.5 36.5t36.5 11.5q50 0 50 -48z" />
    <glyph glyph-name="Igrave" unicode="&#xcc;" horiz-adv-x="257" 
d="M173 0h-89v667h89v-667zM258 736h-96l-133 126h96z" />
    <glyph glyph-name="Iacute" unicode="&#xcd;" horiz-adv-x="257" 
d="M173 0h-89v667h89v-667zM263 862l-133 -126h-96l133 126h96z" />
    <glyph glyph-name="Icircumflex" unicode="&#xce;" horiz-adv-x="257" 
d="M173 0h-89v667h89v-667zM297 735h-90l-79 76l-78 -76h-91l131 127h76z" />
    <glyph glyph-name="Idieresis" unicode="&#xcf;" horiz-adv-x="257" 
d="M173 0h-89v667h89v-667zM285 814q0 -49 -50 -49q-48 0 -48 49q0 25 11.5 36.5t36.5 11.5q50 0 50 -48zM70 814q0 -49 -50 -49q-48 0 -48 49q0 25 11.5 36.5t36.5 11.5q50 0 50 -48z" />
    <glyph glyph-name="Eth" unicode="&#xd0;" horiz-adv-x="688" 
d="M616 333q0 -107 -8.5 -158.5t-32.5 -87.5q-34 -52 -95 -71q-50 -16 -139 -16h-240v296h-76v80h76v291h240q101 0 153 -21q50 -20 80 -66q24 -37 33 -89t9 -158zM527 333q0 87 -7.5 133.5t-25.5 72.5q-20 29 -60 39q-33 8 -99 8h-146v-210h179v-80h-179v-215h146
q75 0 109 11q32 10 50 35q18 26 25.5 72.5t7.5 133.5z" />
    <glyph glyph-name="Ntilde" unicode="&#xd1;" horiz-adv-x="655" 
d="M571 0h-94l-307 520v-520h-86v667h93l308 -517v517h86v-667zM525 804l-70 -36q-36 -16 -65 -16q-30 0 -59 17q-30 18 -33 20q-15 7 -29 7q-19 0 -43 -12l-59 -30l-31 58q68 35 70 36q36 15 65 15q31 0 60 -17q30 -18 33 -20q15 -7 29 -7q18 0 42 12l59 31z" />
    <glyph glyph-name="Ograve" unicode="&#xd2;" horiz-adv-x="674" 
d="M601 335q0 -127 -11 -181q-17 -82 -70 -119q-61 -43 -184 -43q-125 0 -186 44q-53 38 -69 120q-10 51 -10 178t10 177q15 81 68 119q61 44 186 44q126 0 187 -43q53 -38 69 -119q10 -51 10 -177zM512 334q0 94 -6 137.5t-23 69.5q-18 28 -52 40t-96 12q-66 0 -101 -14
q-31 -13 -47 -39q-16 -25 -22 -68t-6 -139q0 -94 6 -137.5t23 -69.5q17 -28 51.5 -40t96.5 -12q65 0 100 14q30 12 47 38t23 69.5t6 138.5zM456 736h-96l-133 126h96z" />
    <glyph glyph-name="Oacute" unicode="&#xd3;" horiz-adv-x="674" 
d="M601 335q0 -127 -11 -181q-17 -82 -70 -119q-61 -43 -184 -43q-125 0 -186 44q-53 38 -69 120q-10 51 -10 178t10 177q15 81 68 119q61 44 186 44q126 0 187 -43q53 -38 69 -119q10 -51 10 -177zM512 334q0 94 -6 137.5t-23 69.5q-18 28 -52 40t-96 12q-66 0 -101 -14
q-31 -13 -47 -39q-16 -25 -22 -68t-6 -139q0 -94 6 -137.5t23 -69.5q17 -28 51.5 -40t96.5 -12q65 0 100 14q30 12 47 38t23 69.5t6 138.5zM445 862l-133 -126h-96l133 126h96z" />
    <glyph glyph-name="Ocircumflex" unicode="&#xd4;" horiz-adv-x="674" 
d="M601 335q0 -127 -11 -181q-17 -82 -70 -119q-61 -43 -184 -43q-125 0 -186 44q-53 38 -69 120q-10 51 -10 178t10 177q15 81 68 119q61 44 186 44q126 0 187 -43q53 -38 69 -119q10 -51 10 -177zM512 334q0 94 -6 137.5t-23 69.5q-18 28 -52 40t-96 12q-66 0 -101 -14
q-31 -13 -47 -39q-16 -25 -22 -68t-6 -139q0 -94 6 -137.5t23 -69.5q17 -28 51.5 -40t96.5 -12q65 0 100 14q30 12 47 38t23 69.5t6 138.5zM505 735h-90l-79 76l-78 -76h-91l131 127h76z" />
    <glyph glyph-name="Otilde" unicode="&#xd5;" horiz-adv-x="674" 
d="M601 335q0 -127 -11 -181q-17 -82 -70 -119q-61 -43 -184 -43q-125 0 -186 44q-53 38 -69 120q-10 51 -10 178t10 177q15 81 68 119q61 44 186 44q126 0 187 -43q53 -38 69 -119q10 -51 10 -177zM512 334q0 94 -6 137.5t-23 69.5q-18 28 -52 40t-96 12q-66 0 -101 -14
q-31 -13 -47 -39q-16 -25 -22 -68t-6 -139q0 -94 6 -137.5t23 -69.5q17 -28 51.5 -40t96.5 -12q65 0 100 14q30 12 47 38t23 69.5t6 138.5zM531 804l-70 -36q-36 -16 -65 -16q-30 0 -59 17q-30 18 -33 20q-15 7 -29 7q-19 0 -43 -12l-59 -30l-31 58q68 35 70 36q36 15 65 15
q31 0 60 -17q30 -18 33 -20q15 -7 29 -7q18 0 42 12l59 31z" />
    <glyph glyph-name="Odieresis" unicode="&#xd6;" horiz-adv-x="674" 
d="M601 335q0 -127 -11 -181q-17 -82 -70 -119q-61 -43 -184 -43q-125 0 -186 44q-53 38 -69 120q-10 51 -10 178t10 177q15 81 68 119q61 44 186 44q126 0 187 -43q53 -38 69 -119q10 -51 10 -177zM512 334q0 94 -6 137.5t-23 69.5q-18 28 -52 40t-96 12q-66 0 -101 -14
q-31 -13 -47 -39q-16 -25 -22 -68t-6 -139q0 -94 6 -137.5t23 -69.5q17 -28 51.5 -40t96.5 -12q65 0 100 14q30 12 47 38t23 69.5t6 138.5zM497 815q0 -49 -50 -49q-48 0 -48 49q0 25 11.5 36.5t36.5 11.5q50 0 50 -48zM282 815q0 -49 -50 -49q-48 0 -48 49q0 25 11.5 36.5
t36.5 11.5q50 0 50 -48z" />
    <glyph glyph-name="multiply" unicode="&#xd7;" horiz-adv-x="582" 
d="M524 74l-54 -54l-180 179l-178 -179l-54 54l179 178l-179 180l54 54l178 -180l180 180l54 -54l-180 -180z" />
    <glyph glyph-name="Oslash" unicode="&#xd8;" horiz-adv-x="674" 
d="M602 333q-1 -127 -13 -181q-17 -82 -71 -119q-61 -42 -184 -41l-38 1l-31 -136l-74 16l31 132q-101 25 -131 114q-19 56 -19 180v37q1 127 11 177q17 81 70 119q61 43 186 42l38 -1l30 134l74 -18l-29 -127q65 -17 99 -56q31 -35 42 -96q9 -47 9 -135v-42zM513 332v25
q0 81 -5.5 120t-21.5 63q-20 30 -53 40l-117 -505q9 -1 19 -1q65 -1 100 13q30 12 47 38t23.5 70t7.5 137zM357 592q-5 1 -19 1q-65 1 -101 -14q-30 -12 -47 -38t-23 -68.5t-7 -137.5q-1 -93 5 -137.5t22 -70.5q19 -30 54 -40z" />
    <glyph glyph-name="Ugrave" unicode="&#xd9;" horiz-adv-x="652" 
d="M574 335q0 -114 -2 -146q-3 -47 -16 -81q-46 -116 -230 -116t-230 116q-13 34 -16 81q-2 32 -2 146v332h89v-332v-64q0 -59 3.5 -89t12.5 -49q29 -60 143 -60q65 0 100 17q30 14 44 42q9 19 12.5 48.5t3.5 89.5v65v332h88v-332zM432 736h-96l-133 126h96z" />
    <glyph glyph-name="Uacute" unicode="&#xda;" horiz-adv-x="652" 
d="M574 335q0 -114 -2 -146q-3 -47 -16 -81q-46 -116 -230 -116t-230 116q-13 34 -16 81q-2 32 -2 146v332h89v-332v-64q0 -59 3.5 -89t12.5 -49q29 -60 143 -60q65 0 100 17q30 14 44 42q9 19 12.5 48.5t3.5 89.5v65v332h88v-332zM459 862l-133 -126h-96l133 126h96z" />
    <glyph glyph-name="Ucircumflex" unicode="&#xdb;" horiz-adv-x="652" 
d="M574 335q0 -114 -2 -146q-3 -47 -16 -81q-46 -116 -230 -116t-230 116q-13 34 -16 81q-2 32 -2 146v332h89v-332v-64q0 -59 3.5 -89t12.5 -49q29 -60 143 -60q65 0 100 17q30 14 44 42q9 19 12.5 48.5t3.5 89.5v65v332h88v-332zM502 735h-90l-79 76l-78 -76h-91l131 127
h76z" />
    <glyph glyph-name="Udieresis" unicode="&#xdc;" horiz-adv-x="652" 
d="M574 335q0 -114 -2 -146q-3 -47 -16 -81q-46 -116 -230 -116t-230 116q-13 34 -16 81q-2 32 -2 146v332h89v-332v-64q0 -59 3.5 -89t12.5 -49q29 -60 143 -60q65 0 100 17q30 14 44 42q9 19 12.5 48.5t3.5 89.5v65v332h88v-332zM489 815q0 -49 -50 -49q-48 0 -48 49
q0 25 11.5 36.5t36.5 11.5q50 0 50 -48zM274 815q0 -49 -50 -49q-48 0 -48 49q0 25 11.5 36.5t36.5 11.5q50 0 50 -48z" />
    <glyph glyph-name="Yacute" unicode="&#xdd;" horiz-adv-x="568" 
d="M566 667l-237 -376v-291h-89v291l-238 376h102l182 -295l180 295h100zM409 862l-133 -126h-96l133 126h96z" />
    <glyph glyph-name="Thorn" unicode="&#xde;" horiz-adv-x="615" 
d="M573 337q0 -89 -34 -134q-30 -39 -92 -51q-42 -9 -136 -9h-138v-143h-89v667h89v-140h138q94 0 135 -8q63 -12 93 -50q34 -44 34 -132zM485 335q0 76 -45 99q-26 13 -92 13h-39h-136v-224h136h39q66 0 92 13q45 23 45 99z" />
    <glyph glyph-name="germandbls" unicode="&#xdf;" horiz-adv-x="566" 
d="M501 196q0 -118 -67 -162q-50 -34 -155 -34h-61v77h63q82 0 109 28q25 25 25 92q1 55 -12 83q-13 27 -41.5 37.5t-88.5 10.5h-55v77h55q78 0 106 22q31 24 31 90q0 44 -10 66q-11 23 -38 33t-81 10q-58 0 -86 -16q-25 -14 -34 -47q-6 -24 -6 -80v-483h-85v480v32
q0 50 8 79q9 36 34 60q26 25 70 39t99 14q118 0 167 -47q46 -42 46 -134q0 -123 -72 -156q47 -18 65 -68q14 -38 14 -103z" />
    <glyph glyph-name="agrave" unicode="&#xe0;" horiz-adv-x="539" 
d="M474 0h-78v47q-22 -26 -64 -40.5t-97 -14.5q-100 0 -145 39q-43 37 -43 112q0 99 68 132q44 22 132 22h143q0 51 -4 68q-7 27 -31 39q-27 13 -87 13q-62 0 -88 -12q-37 -17 -37 -60h-82q0 88 70 122q51 25 144 25q141 0 181 -75q11 -22 14.5 -45.5t3.5 -74.5v-297z
M391 225h-148q-64 0 -87 -17q-23 -18 -23 -64q0 -45 27 -62q25 -17 83 -17q66 0 99 18q31 16 41 53q8 28 8 89zM376 541h-96l-133 126h96z" />
    <glyph glyph-name="aacute" unicode="&#xe1;" horiz-adv-x="539" 
d="M474 0h-78v47q-22 -26 -64 -40.5t-97 -14.5q-100 0 -145 39q-43 37 -43 112q0 99 68 132q44 22 132 22h143q0 51 -4 68q-7 27 -31 39q-27 13 -87 13q-62 0 -88 -12q-37 -17 -37 -60h-82q0 88 70 122q51 25 144 25q141 0 181 -75q11 -22 14.5 -45.5t3.5 -74.5v-297z
M391 225h-148q-64 0 -87 -17q-23 -18 -23 -64q0 -45 27 -62q25 -17 83 -17q66 0 99 18q31 16 41 53q8 28 8 89zM396 667l-133 -126h-96l133 126h96z" />
    <glyph glyph-name="acircumflex" unicode="&#xe2;" horiz-adv-x="539" 
d="M474 0h-78v47q-22 -26 -64 -40.5t-97 -14.5q-100 0 -145 39q-43 37 -43 112q0 99 68 132q44 22 132 22h143q0 51 -4 68q-7 27 -31 39q-27 13 -87 13q-62 0 -88 -12q-37 -17 -37 -60h-82q0 88 70 122q51 25 144 25q141 0 181 -75q11 -22 14.5 -45.5t3.5 -74.5v-297z
M391 225h-148q-64 0 -87 -17q-23 -18 -23 -64q0 -45 27 -62q25 -17 83 -17q66 0 99 18q31 16 41 53q8 28 8 89zM441 540h-90l-79 76l-78 -76h-91l131 127h76z" />
    <glyph glyph-name="atilde" unicode="&#xe3;" horiz-adv-x="539" 
d="M474 0h-78v47q-22 -26 -64 -40.5t-97 -14.5q-100 0 -145 39q-43 37 -43 112q0 99 68 132q44 22 132 22h143q0 51 -4 68q-7 27 -31 39q-27 13 -87 13q-62 0 -88 -12q-37 -17 -37 -60h-82q0 88 70 122q51 25 144 25q141 0 181 -75q11 -22 14.5 -45.5t3.5 -74.5v-297z
M391 225h-148q-64 0 -87 -17q-23 -18 -23 -64q0 -45 27 -62q25 -17 83 -17q66 0 99 18q31 16 41 53q8 28 8 89zM465 609l-70 -36q-36 -16 -65 -16q-30 0 -59 17q-30 18 -33 20q-15 7 -29 7q-19 0 -43 -12l-59 -30l-31 58q68 35 70 36q36 15 65 15q31 0 60 -17q30 -18 33 -20
q15 -7 29 -7q18 0 42 12l59 31z" />
    <glyph glyph-name="adieresis" unicode="&#xe4;" horiz-adv-x="539" 
d="M474 0h-78v47q-22 -26 -64 -40.5t-97 -14.5q-100 0 -145 39q-43 37 -43 112q0 99 68 132q44 22 132 22h143q0 51 -4 68q-7 27 -31 39q-27 13 -87 13q-62 0 -88 -12q-37 -17 -37 -60h-82q0 88 70 122q51 25 144 25q141 0 181 -75q11 -22 14.5 -45.5t3.5 -74.5v-297z
M391 225h-148q-64 0 -87 -17q-23 -18 -23 -64q0 -45 27 -62q25 -17 83 -17q66 0 99 18q31 16 41 53q8 28 8 89zM428 619q0 -49 -50 -49q-48 0 -48 49q0 25 11.5 36.5t36.5 11.5q50 0 50 -48zM213 619q0 -49 -50 -49q-48 0 -48 49q0 25 11.5 36.5t36.5 11.5q50 0 50 -48z" />
    <glyph glyph-name="aring" unicode="&#xe5;" horiz-adv-x="539" 
d="M474 0h-78v47q-22 -26 -64 -40.5t-97 -14.5q-100 0 -145 39q-43 37 -43 112q0 99 68 132q44 22 132 22h143q0 51 -4 68q-7 27 -31 39q-27 13 -87 13q-62 0 -88 -12q-37 -17 -37 -60h-82q0 110 112 137q-19 17 -19 77q0 64 32 88q27 20 88 20q70 0 96 -27q24 -24 24 -81
q0 -59 -21 -79q72 -22 92 -86q9 -30 9 -97v-297zM335 550q0 39 -13 52t-50 13q-40 0 -52 -16q-9 -13 -9 -49q0 -40 14 -51q12 -10 49 -10q39 0 51 14q10 12 10 47zM391 225h-148q-64 0 -87 -17q-23 -18 -23 -64q0 -45 27 -62q25 -17 83 -17q66 0 99 18q31 16 41 53
q8 28 8 89z" />
    <glyph glyph-name="ae" unicode="&#xe6;" horiz-adv-x="874" 
d="M819 219h-343q0 -56 9 -85q11 -35 39 -51q29 -17 86 -17t86 14q37 18 37 61h80q0 -149 -206 -149q-131 0 -174 73q-53 -73 -195 -73q-101 0 -147 37q-44 36 -44 111q0 98 69 132q44 21 133 21h145q0 52 -7 74q-8 28 -34 39t-83 11q-62 0 -89 -12q-38 -17 -38 -60h-82
q0 86 69 121q50 26 141 26q70 0 112 -16q40 -15 61 -46q47 62 162 62q97 0 145 -34q44 -30 58 -95q10 -45 10 -144zM735 292q0 76 -30 102q-28 25 -100 25q-77 0 -106 -36q-22 -28 -22 -91h258zM394 220h-149q-65 0 -88 -16q-24 -17 -24 -63q0 -44 28 -61q26 -15 84 -15
q67 0 99 16q31 15 41 50q8 27 9 89z" />
    <glyph glyph-name="ccedilla" unicode="&#xe7;" horiz-adv-x="523" 
d="M473 141q0 -140 -176 -148v-34q34 -1 51 -22q14 -18 14 -47q0 -79 -84 -79q-46 0 -66 19q-18 16 -18 51h47q0 -16 7.5 -22t29.5 -6q20 0 27 7.5t7 27.5q0 31 -35 33q-8 1 -30 1v71q-123 7 -163 81q-29 53 -29 169q0 83 13 129q16 59 61 87q50 33 143 33q201 0 201 -149
h-81q0 47 -44 63q-25 9 -74 9q-60 0 -89 -18q-28 -17 -37 -57q-7 -30 -7 -97t7 -98q9 -40 37 -57q29 -19 89 -19q57 0 83 13q35 17 35 59h81z" />
    <glyph glyph-name="egrave" unicode="&#xe8;" horiz-adv-x="538" 
d="M483 213h-342q0 -55 9 -83q11 -34 39 -49q29 -15 86 -15t86 14q36 18 36 61h80q0 -149 -204 -149q-140 0 -186 76q-32 52 -32 170q0 85 14 133q18 60 62 89q49 32 139 32q97 0 145 -36q43 -31 58 -97q10 -47 10 -146zM399 286q0 50 -9 76q-11 30 -38 43q-28 14 -82 14
q-79 0 -107 -39q-21 -29 -21 -94h257zM374 541h-96l-133 126h96z" />
    <glyph glyph-name="eacute" unicode="&#xe9;" horiz-adv-x="538" 
d="M483 213h-342q0 -55 9 -83q11 -34 39 -49q29 -15 86 -15t86 14q36 18 36 61h80q0 -149 -204 -149q-140 0 -186 76q-32 52 -32 170q0 85 14 133q18 60 62 89q49 32 139 32q97 0 145 -36q43 -31 58 -97q10 -47 10 -146zM399 286q0 50 -9 76q-11 30 -38 43q-28 14 -82 14
q-79 0 -107 -39q-21 -29 -21 -94h257zM395 667l-133 -126h-96l133 126h96z" />
    <glyph glyph-name="ecircumflex" unicode="&#xea;" horiz-adv-x="538" 
d="M483 213h-342q0 -55 9 -83q11 -34 39 -49q29 -15 86 -15t86 14q36 18 36 61h80q0 -149 -204 -149q-140 0 -186 76q-32 52 -32 170q0 85 14 133q18 60 62 89q49 32 139 32q97 0 145 -36q43 -31 58 -97q10 -47 10 -146zM399 286q0 50 -9 76q-11 30 -38 43q-28 14 -82 14
q-79 0 -107 -39q-21 -29 -21 -94h257zM439 540h-90l-79 76l-78 -76h-91l131 127h76z" />
    <glyph glyph-name="edieresis" unicode="&#xeb;" horiz-adv-x="538" 
d="M483 213h-342q0 -55 9 -83q11 -34 39 -49q29 -15 86 -15t86 14q36 18 36 61h80q0 -149 -204 -149q-140 0 -186 76q-32 52 -32 170q0 85 14 133q18 60 62 89q49 32 139 32q97 0 145 -36q43 -31 58 -97q10 -47 10 -146zM399 286q0 50 -9 76q-11 30 -38 43q-28 14 -82 14
q-79 0 -107 -39q-21 -29 -21 -94h257zM427 619q0 -49 -50 -49q-48 0 -48 49q0 25 11.5 36.5t36.5 11.5q50 0 50 -48zM212 619q0 -49 -50 -49q-48 0 -48 49q0 25 11.5 36.5t36.5 11.5q50 0 50 -48z" />
    <glyph glyph-name="igrave" unicode="&#xec;" horiz-adv-x="222" 
d="M155 0h-85v484h85v-484zM236 541h-96l-133 126h96z" />
    <glyph glyph-name="iacute" unicode="&#xed;" horiz-adv-x="222" 
d="M155 0h-85v484h85v-484zM234 667l-133 -126h-96l133 126h96z" />
    <glyph glyph-name="icircumflex" unicode="&#xee;" horiz-adv-x="222" 
d="M155 0h-85v484h85v-484zM281 540h-90l-79 76l-78 -76h-91l131 127h76z" />
    <glyph glyph-name="idieresis" unicode="&#xef;" horiz-adv-x="222" 
d="M155 0h-85v484h85v-484zM269 619q0 -49 -50 -49q-48 0 -48 49q0 25 11.5 36.5t36.5 11.5q50 0 50 -48zM54 619q0 -49 -50 -49q-48 0 -48 49q0 25 11.5 36.5t36.5 11.5q50 0 50 -48z" />
    <glyph glyph-name="eth" unicode="&#xf0;" horiz-adv-x="552" 
d="M497 242q0 -89 -17 -139q-19 -57 -66 -84q-49 -27 -138 -27q-91 0 -139 28q-47 26 -65 83q-16 49 -17 140q0 73 10 115q13 56 50 87q42 36 121 40q14 1 26 1q19 0 36 -2l-96 97l-57 -48l-44 44l57 49l-46 46l57 51l46 -47l53 47l43 -44l-52 -46l148 -151q54 -55 72 -109
q18 -51 18 -131zM412 242q0 105 -39 140q-32 28 -109 29q-83 1 -108 -50q-17 -34 -17 -119q0 -69 6 -97q9 -40 37 -57q30 -18 94 -18t93 18q28 17 37 57q6 28 6 97z" />
    <glyph glyph-name="ntilde" unicode="&#xf1;" horiz-adv-x="543" 
d="M478 0h-85v255v43q0 38 -4 57.5t-15 32.5q-22 25 -87 25q-96 0 -120 -65q-7 -20 -9.5 -43.5t-2.5 -81.5v-223h-85v484h77v-47q50 55 148 55q122 0 161 -66q22 -38 22 -121v-40v-265zM467 609l-70 -36q-36 -16 -65 -16q-30 0 -59 17q-30 18 -33 20q-15 7 -29 7
q-19 0 -43 -12l-59 -30l-31 58q68 35 70 36q36 15 65 15q31 0 60 -17q30 -18 33 -20q15 -7 29 -7q18 0 42 12l59 31z" />
    <glyph glyph-name="ograve" unicode="&#xf2;" horiz-adv-x="555" 
d="M500 242q0 -83 -11 -127q-12 -43 -38 -69q-54 -54 -173 -54q-120 0 -174 54q-30 30 -41 82q-8 41 -8 114q0 83 11 127q12 43 38 69q54 54 174 54q119 0 173 -54q30 -30 41 -82q8 -41 8 -114zM414 242q0 68 -7 98q-9 40 -37 57q-30 18 -92 18q-63 0 -93 -19
q-28 -17 -37 -57q-7 -30 -7 -97t7 -97q9 -40 37 -57q30 -19 93 -19t93 19q27 17 36 57q7 29 7 97zM403 541h-96l-133 126h96z" />
    <glyph glyph-name="oacute" unicode="&#xf3;" horiz-adv-x="555" 
d="M500 242q0 -83 -11 -127q-12 -43 -38 -69q-54 -54 -173 -54q-120 0 -174 54q-30 30 -41 82q-8 41 -8 114q0 83 11 127q12 43 38 69q54 54 174 54q119 0 173 -54q30 -30 41 -82q8 -41 8 -114zM414 242q0 68 -7 98q-9 40 -37 57q-30 18 -92 18q-63 0 -93 -19
q-28 -17 -37 -57q-7 -30 -7 -97t7 -97q9 -40 37 -57q30 -19 93 -19t93 19q27 17 36 57q7 29 7 97zM384 667l-133 -126h-96l133 126h96z" />
    <glyph glyph-name="ocircumflex" unicode="&#xf4;" horiz-adv-x="555" 
d="M500 242q0 -83 -11 -127q-12 -43 -38 -69q-54 -54 -173 -54q-120 0 -174 54q-30 30 -41 82q-8 41 -8 114q0 83 11 127q12 43 38 69q54 54 174 54q119 0 173 -54q30 -30 41 -82q8 -41 8 -114zM414 242q0 68 -7 98q-9 40 -37 57q-30 18 -92 18q-63 0 -93 -19
q-28 -17 -37 -57q-7 -30 -7 -97t7 -97q9 -40 37 -57q30 -19 93 -19t93 19q27 17 36 57q7 29 7 97zM449 540h-90l-79 76l-78 -76h-91l131 127h76z" />
    <glyph glyph-name="otilde" unicode="&#xf5;" horiz-adv-x="555" 
d="M500 242q0 -83 -11 -127q-12 -43 -38 -69q-54 -54 -173 -54q-120 0 -174 54q-30 30 -41 82q-8 41 -8 114q0 83 11 127q12 43 38 69q54 54 174 54q119 0 173 -54q30 -30 41 -82q8 -41 8 -114zM414 242q0 68 -7 98q-9 40 -37 57q-30 18 -92 18q-63 0 -93 -19
q-28 -17 -37 -57q-7 -30 -7 -97t7 -97q9 -40 37 -57q30 -19 93 -19t93 19q27 17 36 57q7 29 7 97zM475 609l-70 -36q-36 -16 -65 -16q-30 0 -59 17q-30 18 -33 20q-15 7 -29 7q-19 0 -43 -12l-59 -30l-31 58q68 35 70 36q36 15 65 15q31 0 60 -17q30 -18 33 -20q15 -7 29 -7
q18 0 42 12l59 31z" />
    <glyph glyph-name="odieresis" unicode="&#xf6;" horiz-adv-x="555" 
d="M500 242q0 -83 -11 -127q-12 -43 -38 -69q-54 -54 -173 -54q-120 0 -174 54q-30 30 -41 82q-8 41 -8 114q0 83 11 127q12 43 38 69q54 54 174 54q119 0 173 -54q30 -30 41 -82q8 -41 8 -114zM414 242q0 68 -7 98q-9 40 -37 57q-30 18 -92 18q-63 0 -93 -19
q-28 -17 -37 -57q-7 -30 -7 -97t7 -97q9 -40 37 -57q30 -19 93 -19t93 19q27 17 36 57q7 29 7 97zM437 619q0 -49 -50 -49q-48 0 -48 49q0 25 11.5 36.5t36.5 11.5q50 0 50 -48zM222 619q0 -49 -50 -49q-48 0 -48 49q0 25 11.5 36.5t36.5 11.5q50 0 50 -48z" />
    <glyph glyph-name="divide" unicode="&#xf7;" horiz-adv-x="582" 
d="M346 438q0 -56 -54 -56q-26 0 -40.5 14.5t-14.5 41.5q0 54 55 54q54 0 54 -54zM544 204h-506v77h506v-77zM346 48q0 -56 -54 -56q-26 0 -40.5 14.5t-14.5 41.5q0 54 55 54q54 0 54 -54z" />
    <glyph glyph-name="oslash" unicode="&#xf8;" horiz-adv-x="555" 
d="M500 240q-1 -81 -12 -124q-12 -45 -39 -71q-29 -28 -70.5 -41t-102.5 -12q-34 0 -49 2l-35 -94l-73 26l34 88q-64 28 -85 95q-13 41 -13 115v20q1 83 13 127q12 42 38 68q29 28 70.5 41t103.5 12q34 0 48 -2l33 88l72 -26l-31 -81q64 -27 85 -96q13 -42 13 -116v-19z
M414 241q1 72 -7 101.5t-33 51.5l-118 -324q9 -1 25 -1q62 0 91 18q27 17 36 57q5 28 6 97zM301 414q-9 1 -21 1q-62 0 -93 -18q-28 -17 -38 -57q-7 -30 -8 -97v-18q0 -57 9 -86q10 -31 33 -47q16 42 67 181.5t51 140.5z" />
    <glyph glyph-name="ugrave" unicode="&#xf9;" horiz-adv-x="543" 
d="M465 0h-79v48q-51 -56 -148 -56q-132 0 -165 82q-10 25 -13 51t-3 95v264h86v-255v-43q0 -38 4 -57.5t15 -32.5q22 -25 87 -25q95 0 119 65q8 20 10 42.5t2 82.5v223h85v-484zM388 541h-96l-133 126h96z" />
    <glyph glyph-name="uacute" unicode="&#xfa;" horiz-adv-x="543" 
d="M465 0h-79v48q-51 -56 -148 -56q-132 0 -165 82q-10 25 -13 51t-3 95v264h86v-255v-43q0 -38 4 -57.5t15 -32.5q22 -25 87 -25q95 0 119 65q8 20 10 42.5t2 82.5v223h85v-484zM399 667l-133 -126h-96l133 126h96z" />
    <glyph glyph-name="ucircumflex" unicode="&#xfb;" horiz-adv-x="543" 
d="M465 0h-79v48q-51 -56 -148 -56q-132 0 -165 82q-10 25 -13 51t-3 95v264h86v-255v-43q0 -38 4 -57.5t15 -32.5q22 -25 87 -25q95 0 119 65q8 20 10 42.5t2 82.5v223h85v-484zM442 540h-90l-79 76l-78 -76h-91l131 127h76z" />
    <glyph glyph-name="udieresis" unicode="&#xfc;" horiz-adv-x="543" 
d="M465 0h-79v48q-51 -56 -148 -56q-132 0 -165 82q-10 25 -13 51t-3 95v264h86v-255v-43q0 -38 4 -57.5t15 -32.5q22 -25 87 -25q95 0 119 65q8 20 10 42.5t2 82.5v223h85v-484zM431 619q0 -49 -50 -49q-48 0 -48 49q0 25 11.5 36.5t36.5 11.5q50 0 50 -48zM216 619
q0 -49 -50 -49q-48 0 -48 49q0 25 11.5 36.5t36.5 11.5q50 0 50 -48z" />
    <glyph glyph-name="yacute" unicode="&#xfd;" horiz-adv-x="543" 
d="M386 34v14q-51 -56 -148 -56q-132 0 -165 82q-10 25 -13 51t-3 95v264h86v-255v-43q0 -38 4 -57.5t15 -32.5q22 -25 87 -25q95 0 119 65q8 20 10 42.5t2 82.5v223h85v-456q0 -68 -9 -102q-13 -56 -54 -85q-50 -35 -144 -35q-92 0 -143 35q-53 36 -53 109h84
q2 -70 109 -70q89 0 115 49q16 30 16 105zM399 667l-133 -126h-96l133 126h96z" />
    <glyph glyph-name="thorn" unicode="&#xfe;" horiz-adv-x="557" 
d="M502 241q0 -77 -11 -120q-15 -61 -56 -92q-48 -37 -136 -37q-51 0 -85 13t-59 41v-237h-85v888h84v-259q51 54 151 54q85 0 130 -32q41 -29 55 -87q12 -46 12 -132zM417 242q0 54 -5.5 85.5t-19.5 49.5q-25 35 -93 35q-57 0 -87 -14q-31 -15 -44 -52q-13 -35 -13 -105
q0 -69 13 -105q13 -37 45 -52q29 -14 86 -14q76 0 100 47q18 36 18 125z" />
    <glyph glyph-name="ydieresis" unicode="&#xff;" horiz-adv-x="543" 
d="M386 34v14q-51 -56 -148 -56q-132 0 -165 82q-10 25 -13 51t-3 95v264h86v-255v-43q0 -38 4 -57.5t15 -32.5q22 -25 87 -25q95 0 119 65q8 20 10 42.5t2 82.5v223h85v-456q0 -68 -9 -102q-13 -56 -54 -85q-50 -35 -144 -35q-92 0 -143 35q-53 36 -53 109h84
q2 -70 109 -70q89 0 115 49q16 30 16 105zM431 619q0 -49 -50 -49q-48 0 -48 49q0 25 11.5 36.5t36.5 11.5q50 0 50 -48zM216 619q0 -49 -50 -49q-48 0 -48 49q0 25 11.5 36.5t36.5 11.5q50 0 50 -48z" />
    <glyph glyph-name="Amacron" unicode="&#x100;" horiz-adv-x="628" 
d="M616 0h-97l-68 184h-279l-67 -184h-93l258 667h89zM423 261l-111 299l-111 -299h222zM491 788h-344v65h344v-65z" />
    <glyph glyph-name="amacron" unicode="&#x101;" horiz-adv-x="539" 
d="M474 0h-78v47q-22 -26 -64 -40.5t-97 -14.5q-100 0 -145 39q-43 37 -43 112q0 99 68 132q44 22 132 22h143q0 51 -4 68q-7 27 -31 39q-27 13 -87 13q-62 0 -88 -12q-37 -17 -37 -60h-82q0 88 70 122q51 25 144 25q141 0 181 -75q11 -22 14.5 -45.5t3.5 -74.5v-297z
M391 225h-148q-64 0 -87 -17q-23 -18 -23 -64q0 -45 27 -62q25 -17 83 -17q66 0 99 18q31 16 41 53q8 28 8 89zM443 587h-344v65h344v-65z" />
    <glyph glyph-name="Abreve" unicode="&#x102;" horiz-adv-x="628" 
d="M616 0h-97l-68 184h-279l-67 -184h-93l258 667h89zM423 261l-111 299l-111 -299h222zM457 867q0 -76 -36 -103q-31 -25 -107 -25q-86 0 -116 33q-27 28 -27 95h63q0 -42 16 -55.5t64 -13.5q49 0 64 14q16 14 16 55h63z" />
    <glyph glyph-name="abreve" unicode="&#x103;" horiz-adv-x="539" 
d="M474 0h-78v47q-22 -26 -64 -40.5t-97 -14.5q-100 0 -145 39q-43 37 -43 112q0 99 68 132q44 22 132 22h143q0 51 -4 68q-7 27 -31 39q-27 13 -87 13q-62 0 -88 -12q-37 -17 -37 -60h-82q0 88 70 122q51 25 144 25q141 0 181 -75q11 -22 14.5 -45.5t3.5 -74.5v-297z
M391 225h-148q-64 0 -87 -17q-23 -18 -23 -64q0 -45 27 -62q25 -17 83 -17q66 0 99 18q31 16 41 53q8 28 8 89zM412 667q0 -76 -36 -103q-31 -25 -107 -25q-86 0 -116 33q-27 28 -27 95h63q0 -42 16 -55.5t64 -13.5q49 0 64 14q16 14 16 55h63z" />
    <glyph glyph-name="Aogonek" unicode="&#x104;" horiz-adv-x="628" 
d="M359 667l257 -667q-48 -24 -70.5 -48.5t-22.5 -54.5q0 -65 83 -65q10 0 26 2v-58q-22 -3 -48 -3q-63 0 -99 32q-34 31 -34 86q0 69 66 114l-66 179h-279l-67 -184h-93l258 667h89zM423 261l-111 299l-111 -299h222z" />
    <glyph glyph-name="aogonek" unicode="&#x105;" horiz-adv-x="539" 
d="M391 225h-148q-64 0 -87 -17q-23 -18 -23 -64q0 -45 27 -62q25 -17 83 -17q66 0 99 18q31 16 41 53q8 28 8 89zM396 17v30q-22 -26 -64 -40.5t-97 -14.5q-100 0 -145 39q-43 37 -43 112q0 99 68 132q44 22 132 22h143q0 51 -4 68q-7 27 -31 39q-27 13 -87 13
q-62 0 -88 -12q-37 -17 -37 -60h-82q0 88 70 122q51 25 144 25q141 0 181 -75q11 -22 14.5 -45.5t3.5 -74.5v-297q-48 -24 -70.5 -48.5t-22.5 -54.5q0 -66 83 -66q10 0 26 2v-57q-22 -3 -48 -3q-62 0 -97 32q-34 31 -34 86q0 42 26 77q22 29 59 49z" />
    <glyph glyph-name="Cacute" unicode="&#x106;" horiz-adv-x="647" 
d="M584 179q0 -109 -71 -153q-56 -34 -170 -34q-128 0 -190 44q-54 39 -71 120q-10 52 -10 178t11 177q16 81 70 119q63 44 191 44q130 0 186 -46q54 -44 54 -141h-86q0 41 -13 63q-15 23 -49.5 33t-100.5 10q-83 0 -120 -25q-35 -24 -46 -83q-8 -42 -8 -152t8 -152
q11 -59 46 -82q37 -25 120 -25q102 0 135 25q28 22 28 80h86zM445 862l-133 -126h-96l133 126h96z" />
    <glyph glyph-name="cacute" unicode="&#x107;" horiz-adv-x="523" 
d="M473 141q0 -149 -201 -149q-142 0 -188 81q-19 34 -25 89q-4 32 -4 81q0 83 13 129q16 59 61 87q50 33 143 33q201 0 201 -149h-81q0 47 -44 63q-25 9 -74 9q-60 0 -89 -18q-28 -17 -37 -57q-7 -30 -7 -97t7 -98q9 -40 37 -57q29 -19 89 -19q57 0 83 13q35 17 35 59h81z
M379 667l-133 -126h-96l133 126h96z" />
    <glyph glyph-name="Ccircumflex" unicode="&#x108;" horiz-adv-x="647" 
d="M584 179q0 -109 -71 -153q-56 -34 -170 -34q-128 0 -190 44q-54 39 -71 120q-10 52 -10 178t11 177q16 81 70 119q63 44 191 44q130 0 186 -46q54 -44 54 -141h-86q0 41 -13 63q-15 23 -49.5 33t-100.5 10q-83 0 -120 -25q-35 -24 -46 -83q-8 -42 -8 -152t8 -152
q11 -59 46 -82q37 -25 120 -25q102 0 135 25q28 22 28 80h86zM505 735h-90l-79 76l-78 -76h-91l131 127h76z" />
    <glyph glyph-name="ccircumflex" unicode="&#x109;" horiz-adv-x="523" 
d="M473 141q0 -149 -201 -149q-142 0 -188 81q-19 34 -25 89q-4 32 -4 81q0 83 13 129q16 59 61 87q50 33 143 33q201 0 201 -149h-81q0 47 -44 63q-25 9 -74 9q-60 0 -89 -18q-28 -17 -37 -57q-7 -30 -7 -97t7 -98q9 -40 37 -57q29 -19 89 -19q57 0 83 13q35 17 35 59h81z
M443 540h-90l-79 76l-78 -76h-91l131 127h76z" />
    <glyph glyph-name="Cdotaccent" unicode="&#x10a;" horiz-adv-x="647" 
d="M584 179q0 -109 -71 -153q-56 -34 -170 -34q-128 0 -190 44q-54 39 -71 120q-10 52 -10 178t11 177q16 81 70 119q63 44 191 44q130 0 186 -46q54 -44 54 -141h-86q0 41 -13 63q-15 23 -49.5 33t-100.5 10q-83 0 -120 -25q-35 -24 -46 -83q-8 -42 -8 -152t8 -152
q11 -59 46 -82q37 -25 120 -25q102 0 135 25q28 22 28 80h86zM385 814q0 -49 -50 -49q-48 0 -48 49q0 25 11.5 36.5t36.5 11.5q50 0 50 -48z" />
    <glyph glyph-name="cdotaccent" unicode="&#x10b;" horiz-adv-x="523" 
d="M473 141q0 -149 -201 -149q-142 0 -188 81q-19 34 -25 89q-4 32 -4 81q0 83 13 129q16 59 61 87q50 33 143 33q201 0 201 -149h-81q0 47 -44 63q-25 9 -74 9q-60 0 -89 -18q-28 -17 -37 -57q-7 -30 -7 -97t7 -98q9 -40 37 -57q29 -19 89 -19q57 0 83 13q35 17 35 59h81z
M323 619q0 -49 -50 -49q-48 0 -48 49q0 25 11.5 36.5t36.5 11.5q50 0 50 -48z" />
    <glyph glyph-name="Ccaron" unicode="&#x10c;" horiz-adv-x="647" 
d="M584 179q0 -109 -71 -153q-56 -34 -170 -34q-128 0 -190 44q-54 39 -71 120q-10 52 -10 178t11 177q16 81 70 119q63 44 191 44q130 0 186 -46q54 -44 54 -141h-86q0 41 -13 63q-15 23 -49.5 33t-100.5 10q-83 0 -120 -25q-35 -24 -46 -83q-8 -42 -8 -152t8 -152
q11 -59 46 -82q37 -25 120 -25q102 0 135 25q28 22 28 80h86zM504 863l-131 -127h-76l-131 127h90l79 -76l78 76h91z" />
    <glyph glyph-name="ccaron" unicode="&#x10d;" horiz-adv-x="523" 
d="M473 141q0 -149 -201 -149q-142 0 -188 81q-19 34 -25 89q-4 32 -4 81q0 83 13 129q16 59 61 87q50 33 143 33q201 0 201 -149h-81q0 47 -44 63q-25 9 -74 9q-60 0 -89 -18q-28 -17 -37 -57q-7 -30 -7 -97t7 -98q9 -40 37 -57q29 -19 89 -19q57 0 83 13q35 17 35 59h81z
M443 667l-131 -127h-76l-131 127h90l79 -76l78 76h91z" />
    <glyph glyph-name="Dcaron" unicode="&#x10e;" horiz-adv-x="671" 
d="M599 333q0 -107 -8.5 -158.5t-32.5 -87.5q-34 -52 -95 -71q-50 -16 -139 -16h-240v667h240q101 0 153 -21q50 -20 80 -66q24 -37 33 -89t9 -158zM510 333q0 87 -7.5 133.5t-25.5 72.5q-20 29 -60 39q-33 8 -99 8h-146v-505h146q75 0 109 11q32 10 50 35q18 26 25.5 72.5
t7.5 133.5zM493 863l-131 -127h-76l-131 127h90l79 -76l78 76h91z" />
    <glyph glyph-name="dcaron" unicode="&#x10f;" horiz-adv-x="661" 
d="M487 0h-79v49q-50 -57 -154 -57q-134 0 -175 85q-16 34 -21 88q-3 30 -3 77q0 81 12 127q15 60 54 89q45 34 128 34q107 0 153 -53v258h85v-697zM403 241q0 69 -13 105q-13 37 -45 52q-29 14 -86 14q-50 0 -75 -18q-24 -16 -33.5 -50.5t-9.5 -102.5q0 -55 5.5 -86
t19.5 -50q25 -35 93 -35q57 0 86 14q32 15 45 52q13 36 13 105zM661 668q0 -46 -9.5 -72t-36.5 -53l-37 -37l-53 53q28 27 35.5 34.5t12.5 17.5q9 18 9 57v29h79v-29z" />
    <glyph glyph-name="Dcroat" unicode="&#x110;" horiz-adv-x="688" 
d="M616 333q0 -107 -8.5 -158.5t-32.5 -87.5q-34 -52 -95 -71q-50 -16 -139 -16h-240v296h-76v80h76v291h240q101 0 153 -21q50 -20 80 -66q24 -37 33 -89t9 -158zM527 333q0 87 -7.5 133.5t-25.5 72.5q-20 29 -60 39q-33 8 -99 8h-146v-210h179v-80h-179v-215h146
q75 0 109 11q32 10 50 35q18 26 25.5 72.5t7.5 133.5z" />
    <glyph glyph-name="dcroat" unicode="&#x111;" horiz-adv-x="557" 
d="M249 551v64h153v82h85v-82h85v-64h-85v-551h-79v49q-50 -57 -154 -57q-134 0 -175 85q-16 34 -21 88q-3 30 -3 77q0 81 12 127q15 60 54 89q45 34 128 34q107 0 153 -53v112h-153zM403 241q0 69 -13 105q-13 37 -45 52q-29 14 -86 14q-50 0 -75 -18q-24 -16 -33.5 -50.5
t-9.5 -102.5q0 -55 5.5 -86t19.5 -50q25 -35 93 -35q57 0 86 14q32 15 45 52q13 36 13 105z" />
    <glyph glyph-name="Emacron" unicode="&#x112;" horiz-adv-x="593" 
d="M522 0h-438v667h438v-80h-349v-205h339v-80h-339v-222h349v-80zM475 788h-344v65h344v-65z" />
    <glyph glyph-name="emacron" unicode="&#x113;" horiz-adv-x="538" 
d="M483 213h-342q0 -55 9 -83q11 -34 39 -49q29 -15 86 -15t86 14q36 18 36 61h80q0 -149 -204 -149q-140 0 -186 76q-32 52 -32 170q0 85 14 133q18 60 62 89q49 32 139 32q97 0 145 -36q43 -31 58 -97q10 -47 10 -146zM399 286q0 50 -9 76q-11 30 -38 43q-28 14 -82 14
q-79 0 -107 -39q-21 -29 -21 -94h257zM441 587h-344v65h344v-65z" />
    <glyph glyph-name="Ebreve" unicode="&#x114;" horiz-adv-x="593" 
d="M522 0h-438v667h438v-80h-349v-205h339v-80h-339v-222h349v-80zM446 867q0 -76 -36 -103q-31 -25 -107 -25q-86 0 -116 33q-27 28 -27 95h63q0 -42 16 -55.5t64 -13.5q49 0 64 14q16 14 16 55h63z" />
    <glyph glyph-name="ebreve" unicode="&#x115;" horiz-adv-x="538" 
d="M483 213h-342q0 -55 9 -83q11 -34 39 -49q29 -15 86 -15t86 14q36 18 36 61h80q0 -149 -204 -149q-140 0 -186 76q-32 52 -32 170q0 85 14 133q18 60 62 89q49 32 139 32q97 0 145 -36q43 -31 58 -97q10 -47 10 -146zM399 286q0 50 -9 76q-11 30 -38 43q-28 14 -82 14
q-79 0 -107 -39q-21 -29 -21 -94h257zM412 667q0 -76 -36 -103q-31 -25 -107 -25q-86 0 -116 33q-27 28 -27 95h63q0 -42 16 -55.5t64 -13.5q49 0 64 14q16 14 16 55h63z" />
    <glyph glyph-name="Edotaccent" unicode="&#x116;" horiz-adv-x="593" 
d="M522 0h-438v667h438v-80h-349v-205h339v-80h-339v-222h349v-80zM352 814q0 -49 -50 -49q-48 0 -48 49q0 25 11.5 36.5t36.5 11.5q50 0 50 -48z" />
    <glyph glyph-name="edotaccent" unicode="&#x117;" horiz-adv-x="538" 
d="M483 213h-342q0 -55 9 -83q11 -34 39 -49q29 -15 86 -15t86 14q36 18 36 61h80q0 -149 -204 -149q-140 0 -186 76q-32 52 -32 170q0 85 14 133q18 60 62 89q49 32 139 32q97 0 145 -36q43 -31 58 -97q10 -47 10 -146zM399 286q0 50 -9 76q-11 30 -38 43q-28 14 -82 14
q-79 0 -107 -39q-21 -29 -21 -94h257zM320 619q0 -49 -50 -49q-48 0 -48 49q0 25 11.5 36.5t36.5 11.5q50 0 50 -48z" />
    <glyph glyph-name="Eogonek" unicode="&#x118;" horiz-adv-x="593" 
d="M522 0q-48 -24 -70.5 -48.5t-22.5 -54.5q0 -65 83 -65q10 0 26 2v-58q-22 -3 -48 -3q-63 0 -99 32q-34 31 -34 86q0 34 17 63t47 46h-337v667h438v-80h-349v-205h339v-80h-339v-222h349v-80z" />
    <glyph glyph-name="eogonek" unicode="&#x119;" horiz-adv-x="538" 
d="M399 286q0 50 -9 76q-11 30 -38 43q-28 14 -82 14q-79 0 -107 -39q-21 -29 -21 -94h257zM272 -8q-139 0 -185 76q-32 52 -32 170q0 85 14 133q18 60 62 89q49 32 139 32q97 0 145 -36q43 -31 58 -97q10 -47 10 -146h-342q0 -55 9 -83q11 -34 39 -49q29 -15 86 -15t86 14
q36 18 36 61h80q0 -63 -39 -101q-20 -20 -69 -45q-45 -24 -61 -40q-22 -24 -22 -58q0 -66 83 -66q10 0 26 2v-57q-22 -3 -48 -3q-62 0 -97 32q-34 31 -34 86q0 33 14.5 59.5t41.5 41.5z" />
    <glyph glyph-name="Ecaron" unicode="&#x11a;" horiz-adv-x="593" 
d="M522 0h-438v667h438v-80h-349v-205h339v-80h-339v-222h349v-80zM473 863l-131 -127h-76l-131 127h90l79 -76l78 76h91z" />
    <glyph glyph-name="ecaron" unicode="&#x11b;" horiz-adv-x="538" 
d="M483 213h-342q0 -55 9 -83q11 -34 39 -49q29 -15 86 -15t86 14q36 18 36 61h80q0 -149 -204 -149q-140 0 -186 76q-32 52 -32 170q0 85 14 133q18 60 62 89q49 32 139 32q97 0 145 -36q43 -31 58 -97q10 -47 10 -146zM399 286q0 50 -9 76q-11 30 -38 43q-28 14 -82 14
q-79 0 -107 -39q-21 -29 -21 -94h257zM439 667l-131 -127h-76l-131 127h90l79 -76l78 76h91z" />
    <glyph glyph-name="Gcircumflex" unicode="&#x11c;" horiz-adv-x="672" 
d="M331 -8q-118 0 -177 40q-52 37 -70 117q-12 56 -12 184t10 179q17 81 71 119q63 43 192 43q131 0 190 -45q59 -46 59 -142h-88q0 63 -43 86q-37 19 -127 19q-86 0 -124 -27q-35 -25 -45 -85q-6 -37 -6 -147q0 -108 7 -148q10 -59 45 -84q37 -27 119 -27q84 0 122 21
q36 20 47 70q7 34 7 127h-172v78h258v-132q0 -80 -16 -126q-21 -58 -74 -87q-61 -33 -173 -33zM505 735h-90l-79 76l-78 -76h-91l131 127h76z" />
    <glyph glyph-name="gcircumflex" unicode="&#x11d;" horiz-adv-x="556" 
d="M486 49q0 -82 -4 -109q-12 -79 -88 -112q-51 -22 -128 -22q-94 0 -146 35q-54 36 -54 109h84q0 -36 33 -54q29 -15 80 -15q125 0 135 78q3 21 3 63v31q-47 -53 -149 -53q-131 0 -172 83q-17 34 -22 87q-3 30 -3 76q0 81 12 127q16 58 56 87q45 32 128 32q106 0 156 -54
v46h79v-435zM402 245q0 68 -13 103q-13 37 -45 52q-29 14 -86 14q-50 0 -75 -17q-23 -16 -32.5 -50t-9.5 -102q0 -64 8 -96q10 -37 34 -53q26 -17 75 -17q57 0 86 13q32 14 45 50q13 35 13 103zM440 540h-90l-79 76l-78 -76h-91l131 127h76z" />
    <glyph glyph-name="Gbreve" unicode="&#x11e;" horiz-adv-x="672" 
d="M331 -8q-118 0 -177 40q-52 37 -70 117q-12 56 -12 184t10 179q17 81 71 119q63 43 192 43q131 0 190 -45q59 -46 59 -142h-88q0 63 -43 86q-37 19 -127 19q-86 0 -124 -27q-35 -25 -45 -85q-6 -37 -6 -147q0 -108 7 -148q10 -59 45 -84q37 -27 119 -27q84 0 122 21
q36 20 47 70q7 34 7 127h-172v78h258v-132q0 -80 -16 -126q-21 -58 -74 -87q-61 -33 -173 -33zM479 867q0 -76 -36 -103q-31 -25 -107 -25q-86 0 -116 33q-27 28 -27 95h63q0 -42 16 -55.5t64 -13.5q49 0 64 14q16 14 16 55h63z" />
    <glyph glyph-name="gbreve" unicode="&#x11f;" horiz-adv-x="556" 
d="M486 49q0 -82 -4 -109q-12 -79 -88 -112q-51 -22 -128 -22q-94 0 -146 35q-54 36 -54 109h84q0 -36 33 -54q29 -15 80 -15q125 0 135 78q3 21 3 63v31q-47 -53 -149 -53q-131 0 -172 83q-17 34 -22 87q-3 30 -3 76q0 81 12 127q16 58 56 87q45 32 128 32q106 0 156 -54
v46h79v-435zM402 245q0 68 -13 103q-13 37 -45 52q-29 14 -86 14q-50 0 -75 -17q-23 -16 -32.5 -50t-9.5 -102q0 -64 8 -96q10 -37 34 -53q26 -17 75 -17q57 0 86 13q32 14 45 50q13 35 13 103zM414 667q0 -76 -36 -103q-31 -25 -107 -25q-86 0 -116 33q-27 28 -27 95h63
q0 -42 16 -55.5t64 -13.5q49 0 64 14q16 14 16 55h63z" />
    <glyph glyph-name="Gdotaccent" unicode="&#x120;" horiz-adv-x="672" 
d="M331 -8q-118 0 -177 40q-52 37 -70 117q-12 56 -12 184t10 179q17 81 71 119q63 43 192 43q131 0 190 -45q59 -46 59 -142h-88q0 63 -43 86q-37 19 -127 19q-86 0 -124 -27q-35 -25 -45 -85q-6 -37 -6 -147q0 -108 7 -148q10 -59 45 -84q37 -27 119 -27q84 0 122 21
q36 20 47 70q7 34 7 127h-172v78h258v-132q0 -80 -16 -126q-21 -58 -74 -87q-61 -33 -173 -33zM386 814q0 -49 -50 -49q-48 0 -48 49q0 25 11.5 36.5t36.5 11.5q50 0 50 -48z" />
    <glyph glyph-name="gdotaccent" unicode="&#x121;" horiz-adv-x="556" 
d="M486 49q0 -82 -4 -109q-12 -79 -88 -112q-51 -22 -128 -22q-94 0 -146 35q-54 36 -54 109h84q0 -36 33 -54q29 -15 80 -15q125 0 135 78q3 21 3 63v31q-47 -53 -149 -53q-131 0 -172 83q-17 34 -22 87q-3 30 -3 76q0 81 12 127q16 58 56 87q45 32 128 32q106 0 156 -54
v46h79v-435zM402 245q0 68 -13 103q-13 37 -45 52q-29 14 -86 14q-50 0 -75 -17q-23 -16 -32.5 -50t-9.5 -102q0 -64 8 -96q10 -37 34 -53q26 -17 75 -17q57 0 86 13q32 14 45 50q13 35 13 103zM320 619q0 -49 -50 -49q-48 0 -48 49q0 25 11.5 36.5t36.5 11.5q50 0 50 -48z
" />
    <glyph glyph-name="Gcommaaccent" unicode="&#x122;" horiz-adv-x="672" 
d="M331 -8q-118 0 -177 40q-52 37 -70 117q-12 56 -12 184t10 179q17 81 71 119q63 43 192 43q131 0 190 -45q59 -46 59 -142h-88q0 63 -43 86q-37 19 -127 19q-86 0 -124 -27q-35 -25 -45 -85q-6 -37 -6 -147q0 -108 7 -148q10 -59 45 -84q37 -27 119 -27q84 0 122 21
q36 20 47 70q7 34 7 127h-172v78h258v-132q0 -80 -16 -126q-21 -58 -74 -87q-61 -33 -173 -33zM373 -70q0 -46 -9.5 -72t-36.5 -53l-37 -37l-53 53q28 27 35.5 34.5t12.5 17.5q9 18 9 57v29h79v-29z" />
    <glyph glyph-name="gcommaaccent" unicode="&#x123;" horiz-adv-x="556" 
d="M486 49q0 -82 -4 -109q-12 -79 -88 -112q-51 -22 -128 -22q-94 0 -146 35q-54 36 -54 109h84q0 -36 33 -54q29 -15 80 -15q125 0 135 78q3 21 3 63v31q-47 -53 -149 -53q-131 0 -172 83q-17 34 -22 87q-3 30 -3 76q0 81 12 127q16 58 56 87q45 32 128 32q106 0 156 -54
v46h79v-435zM402 245q0 68 -13 103q-13 37 -45 52q-29 14 -86 14q-50 0 -75 -17q-23 -16 -32.5 -50t-9.5 -102q0 -64 8 -96q10 -37 34 -53q26 -17 75 -17q57 0 86 13q32 14 45 50q13 35 13 103zM217 570q0 46 9.5 72t36.5 53l37 37l53 -53q-28 -27 -35.5 -34.5t-12.5 -17.5
q-9 -18 -9 -57v-29h-79v29z" />
    <glyph glyph-name="Hcircumflex" unicode="&#x124;" horiz-adv-x="657" 
d="M573 0h-88v302h-312v-302h-89v667h89v-285h312v285h88v-667zM497 735h-90l-79 76l-78 -76h-91l131 127h76z" />
    <glyph glyph-name="hcircumflex" unicode="&#x125;" horiz-adv-x="543" 
d="M478 0h-85v255v43q0 38 -4 57.5t-15 32.5q-22 25 -87 25q-96 0 -120 -65q-7 -20 -9.5 -43.5t-2.5 -81.5v-223h-85v697h85v-256q51 51 140 51q122 0 161 -66q22 -38 22 -121v-40v-265zM281 753h-90l-79 76l-78 -76h-91l131 127h76z" />
    <glyph glyph-name="Hbar" unicode="&#x126;" horiz-adv-x="657" 
d="M573 0h-88v302h-312v-302h-89v486h-83v80h83v101h89v-101h312v101h88v-101h83v-80h-83v-486zM173 382h312v104h-312v-104z" />
    <glyph glyph-name="hbar" unicode="&#x127;" horiz-adv-x="543" 
d="M155 551v-110q51 51 140 51q122 0 161 -66q22 -38 22 -121v-40v-265h-85v255v43q0 38 -4 57.5t-15 32.5q-22 25 -87 25q-96 0 -120 -65q-7 -20 -9.5 -43.5t-2.5 -81.5v-223h-85v551h-85v64h85v82h85v-82h153v-64h-153z" />
    <glyph glyph-name="Itilde" unicode="&#x128;" horiz-adv-x="257" 
d="M173 0h-89v667h89v-667zM323 802l-70 -36q-36 -16 -65 -16q-30 0 -59 17q-30 18 -33 20q-15 7 -29 7q-19 0 -43 -12l-59 -30l-31 58q68 35 70 36q36 15 65 15q31 0 60 -17q30 -18 33 -20q15 -7 29 -7q18 0 42 12l59 31z" />
    <glyph glyph-name="itilde" unicode="&#x129;" horiz-adv-x="225" 
d="M155 0h-85v484h85v-484zM307 609l-70 -36q-36 -16 -65 -16q-30 0 -59 17q-30 18 -33 20q-15 7 -29 7q-19 0 -43 -12l-59 -30l-31 58q68 35 70 36q36 15 65 15q31 0 60 -17q30 -18 33 -20q15 -7 29 -7q18 0 42 12l59 31z" />
    <glyph glyph-name="Imacron" unicode="&#x12a;" horiz-adv-x="257" 
d="M173 0h-89v667h89v-667zM301 788h-344v65h344v-65z" />
    <glyph glyph-name="imacron" unicode="&#x12b;" horiz-adv-x="225" 
d="M155 0h-85v484h85v-484zM285 587h-344v65h344v-65z" />
    <glyph glyph-name="Ibreve" unicode="&#x12c;" horiz-adv-x="257" 
d="M173 0h-89v667h89v-667zM272 867q0 -76 -36 -103q-31 -25 -107 -25q-86 0 -116 33q-27 28 -27 95h63q0 -42 16 -55.5t64 -13.5q49 0 64 14q16 14 16 55h63z" />
    <glyph glyph-name="ibreve" unicode="&#x12d;" horiz-adv-x="225" 
d="M155 0h-85v484h85v-484zM256 667q0 -76 -36 -103q-31 -25 -107 -25q-86 0 -116 33q-27 28 -27 95h63q0 -42 16 -55.5t64 -13.5q49 0 64 14q16 14 16 55h63z" />
    <glyph glyph-name="Iogonek" unicode="&#x12e;" horiz-adv-x="257" 
d="M84 14v653h89v-667q-48 -24 -70.5 -48.5t-22.5 -54.5q0 -65 83 -65q10 0 26 2v-58q-22 -3 -48 -3q-63 0 -99 32q-34 31 -34 86q0 73 76 123z" />
    <glyph glyph-name="iogonek" unicode="&#x12f;" horiz-adv-x="225" 
d="M162 624q0 -23 -13.5 -36.5t-36.5 -13.5t-36.5 13.5t-13.5 36.5t13.5 36.5t36.5 13.5t36.5 -13.5t13.5 -36.5zM155 484v-484q-48 -24 -70.5 -48.5t-22.5 -54.5q0 -66 83 -66q10 0 26 2v-57q-22 -3 -48 -3q-62 0 -97 32q-34 31 -34 86q0 76 78 123v470h85z" />
    <glyph glyph-name="Idotaccent" unicode="&#x130;" horiz-adv-x="257" 
d="M173 0h-89v667h89v-667zM178 814q0 -49 -50 -49q-48 0 -48 49q0 25 11.5 36.5t36.5 11.5q50 0 50 -48z" />
    <glyph glyph-name="dotlessi" unicode="&#x131;" horiz-adv-x="225" 
d="M155 0h-85v484h85v-484z" />
    <glyph glyph-name="Jcircumflex" unicode="&#x134;" horiz-adv-x="537" 
d="M459 213q0 -61 -4 -85q-13 -81 -81 -113q-48 -23 -127 -23q-113 0 -163 45t-50 142h85q0 -67 36 -89q27 -17 92 -17q58 0 85 15q25 13 33 45q5 22 5 78v456h89v-454zM583 735h-90l-79 76l-78 -76h-91l131 127h76z" />
    <glyph glyph-name="jcircumflex" unicode="&#x135;" horiz-adv-x="222" 
d="M281 540h-90l-79 76l-78 -76h-91l131 127h76zM-46 -190v72h29q53 0 70 19.5t17 80.5v502h85v-524q0 -99 -64 -132q-35 -18 -106 -18h-31z" />
    <glyph glyph-name="Kcommaaccent" unicode="&#x136;" horiz-adv-x="607" 
d="M602 0h-132l-297 285v-285h-89v667h88v-288l307 288h121l-361 -332zM356 -70q0 -46 -9.5 -72t-36.5 -53l-37 -37l-53 53q28 27 35.5 34.5t12.5 17.5q9 18 9 57v29h79v-29z" />
    <glyph glyph-name="kcommaaccent" unicode="&#x137;" horiz-adv-x="497" 
d="M496 0h-116l-225 230v-230h-85v697h85v-404l224 191h117l-262 -222zM322 -70q0 -46 -9.5 -72t-36.5 -53l-37 -37l-53 53q28 27 35.5 34.5t12.5 17.5q9 18 9 57v29h79v-29z" />
    <glyph glyph-name="Lacute" unicode="&#x139;" horiz-adv-x="520" 
d="M512 0h-428v667h89v-587h339v-80zM312 862l-133 -126h-96l133 126h96z" />
    <glyph glyph-name="lacute" unicode="&#x13a;" horiz-adv-x="248" 
d="M242 68v-73h-23q-79 0 -111 28q-38 33 -38 115v559h85v-529q0 -37 2.5 -54t8.5 -26q13 -20 56 -20h20zM300 862l-133 -126h-96l133 126h96z" />
    <glyph glyph-name="Lcommaaccent" unicode="&#x13b;" horiz-adv-x="520" 
d="M512 0h-428v667h89v-587h339v-80zM337 -70q0 -46 -9.5 -72t-36.5 -53l-37 -37l-53 53q28 27 35.5 34.5t12.5 17.5q9 18 9 57v29h79v-29z" />
    <glyph glyph-name="lcommaaccent" unicode="&#x13c;" horiz-adv-x="254" 
d="M242 68v-73h-23q-79 0 -111 28q-38 33 -38 115v559h85v-529q0 -37 2.5 -54t8.5 -26q13 -20 56 -20h20zM180 -70q0 -46 -9.5 -72t-36.5 -53l-37 -37l-53 53q28 27 35.5 34.5t12.5 17.5q9 18 9 57v29h79v-29z" />
    <glyph glyph-name="Lcaron" unicode="&#x13d;" horiz-adv-x="520" 
d="M512 0h-428v667h89v-587h339v-80zM375 638q0 -46 -9.5 -72t-36.5 -53l-37 -37l-53 53q28 27 35.5 34.5t12.5 17.5q9 18 9 57v29h79v-29z" />
    <glyph glyph-name="lcaron" unicode="&#x13e;" horiz-adv-x="342" 
d="M330 668q0 -46 -9.5 -72t-36.5 -53l-37 -37l-53 53q28 27 35.5 34.5t12.5 17.5q9 18 9 57v29h79v-29zM242 68v-73h-23q-79 0 -111 28q-38 33 -38 115v559h85v-529q0 -37 2.5 -54t8.5 -26q13 -20 56 -20h20z" />
    <glyph glyph-name="Ldot" unicode="&#x13f;" horiz-adv-x="520" 
d="M512 0h-428v667h89v-587h339v-80zM437 344q0 -49 -50 -49q-48 0 -48 49q0 25 11.5 36.5t36.5 11.5q50 0 50 -48z" />
    <glyph glyph-name="ldot" unicode="&#x140;" horiz-adv-x="336" 
d="M324 343q0 -49 -50 -49q-48 0 -48 49q0 25 11.5 36.5t36.5 11.5q50 0 50 -48zM242 68v-73h-23q-79 0 -111 28q-38 33 -38 115v559h85v-529q0 -37 2.5 -54t8.5 -26q13 -20 56 -20h20z" />
    <glyph glyph-name="Lslash" unicode="&#x141;" horiz-adv-x="565" 
d="M557 0h-428v252l-55 -55l-56 55l111 111v304h89v-228l66 66l56 -55l-122 -121v-249h339v-80z" />
    <glyph glyph-name="lslash" unicode="&#x142;" horiz-adv-x="254" 
d="M86 138v119l-45 -46l-55 53l100 102v331h85v-257l49 49l55 -54l-104 -105v-162q0 -37 2.5 -54t8.5 -26q13 -20 56 -20h20v-73h-23q-79 0 -111 28q-38 33 -38 115z" />
    <glyph glyph-name="Nacute" unicode="&#x143;" horiz-adv-x="655" 
d="M571 0h-94l-307 520v-520h-86v667h93l308 -517v517h86v-667zM442 862l-133 -126h-96l133 126h96z" />
    <glyph glyph-name="nacute" unicode="&#x144;" horiz-adv-x="543" 
d="M478 0h-85v255v43q0 38 -4 57.5t-15 32.5q-22 25 -87 25q-96 0 -120 -65q-7 -20 -9.5 -43.5t-2.5 -81.5v-223h-85v484h77v-47q50 55 148 55q122 0 161 -66q22 -38 22 -121v-40v-265zM389 667l-133 -126h-96l133 126h96z" />
    <glyph glyph-name="Ncommaaccent" unicode="&#x145;" horiz-adv-x="655" 
d="M571 0h-94l-307 520v-520h-86v667h93l308 -517v517h86v-667zM367 -70q0 -46 -9.5 -72t-36.5 -53l-37 -37l-53 53q28 27 35.5 34.5t12.5 17.5q9 18 9 57v29h79v-29z" />
    <glyph glyph-name="ncommaaccent" unicode="&#x146;" horiz-adv-x="543" 
d="M478 0h-85v255v43q0 38 -4 57.5t-15 32.5q-22 25 -87 25q-96 0 -120 -65q-7 -20 -9.5 -43.5t-2.5 -81.5v-223h-85v484h77v-47q50 55 148 55q122 0 161 -66q22 -38 22 -121v-40v-265zM316 -70q0 -46 -9.5 -72t-36.5 -53l-37 -37l-53 53q28 27 35.5 34.5t12.5 17.5
q9 18 9 57v29h79v-29z" />
    <glyph glyph-name="Ncaron" unicode="&#x147;" horiz-adv-x="655" 
d="M571 0h-94l-307 520v-520h-86v667h93l308 -517v517h86v-667zM497 863l-131 -127h-76l-131 127h90l79 -76l78 76h91z" />
    <glyph glyph-name="ncaron" unicode="&#x148;" horiz-adv-x="543" 
d="M478 0h-85v255v43q0 38 -4 57.5t-15 32.5q-22 25 -87 25q-96 0 -120 -65q-7 -20 -9.5 -43.5t-2.5 -81.5v-223h-85v484h77v-47q50 55 148 55q122 0 161 -66q22 -38 22 -121v-40v-265zM443 667l-131 -127h-76l-131 127h90l79 -76l78 76h91z" />
    <glyph glyph-name="Eng" unicode="&#x14a;" horiz-adv-x="655" 
d="M486 -28v28l-316 520v-520h-86v667h93l308 -507v507h86v-667v-39q0 -87 -57 -125q-46 -30 -132 -30q-41 0 -72 4v71q27 -3 72 -3q73 0 93 32q11 17 11 62z" />
    <glyph glyph-name="eng" unicode="&#x14b;" horiz-adv-x="543" 
d="M299 -194q-29 0 -51 3v71q16 -2 51 -2q65 0 84 33q10 18 10 63v281v43q0 38 -4 57.5t-15 32.5q-22 25 -87 25q-96 0 -120 -65q-7 -20 -9.5 -43.5t-2.5 -81.5v-223h-85v484h77v-47q50 55 148 55q122 0 161 -66q22 -38 22 -121v-40v-302q0 -157 -179 -157z" />
    <glyph glyph-name="Omacron" unicode="&#x14c;" horiz-adv-x="674" 
d="M601 335q0 -127 -11 -181q-17 -82 -70 -119q-61 -43 -184 -43q-125 0 -186 44q-53 38 -69 120q-10 51 -10 178t10 177q15 81 68 119q61 44 186 44q126 0 187 -43q53 -38 69 -119q10 -51 10 -177zM512 334q0 94 -6 137.5t-23 69.5q-18 28 -52 40t-96 12q-66 0 -101 -14
q-31 -13 -47 -39q-16 -25 -22 -68t-6 -139q0 -94 6 -137.5t23 -69.5q17 -28 51.5 -40t96.5 -12q65 0 100 14q30 12 47 38t23 69.5t6 138.5zM508 788h-344v65h344v-65z" />
    <glyph glyph-name="omacron" unicode="&#x14d;" horiz-adv-x="555" 
d="M500 242q0 -83 -11 -127q-12 -43 -38 -69q-54 -54 -173 -54q-120 0 -174 54q-30 30 -41 82q-8 41 -8 114q0 83 11 127q12 43 38 69q54 54 174 54q119 0 173 -54q30 -30 41 -82q8 -41 8 -114zM414 242q0 68 -7 98q-9 40 -37 57q-30 18 -92 18q-63 0 -93 -19
q-28 -17 -37 -57q-7 -30 -7 -97t7 -97q9 -40 37 -57q30 -19 93 -19t93 19q27 17 36 57q7 29 7 97zM450 587h-344v65h344v-65z" />
    <glyph glyph-name="Obreve" unicode="&#x14e;" horiz-adv-x="674" 
d="M601 335q0 -127 -11 -181q-17 -82 -70 -119q-61 -43 -184 -43q-125 0 -186 44q-53 38 -69 120q-10 51 -10 178t10 177q15 81 68 119q61 44 186 44q126 0 187 -43q53 -38 69 -119q10 -51 10 -177zM512 334q0 94 -6 137.5t-23 69.5q-18 28 -52 40t-96 12q-66 0 -101 -14
q-31 -13 -47 -39q-16 -25 -22 -68t-6 -139q0 -94 6 -137.5t23 -69.5q17 -28 51.5 -40t96.5 -12q65 0 100 14q30 12 47 38t23 69.5t6 138.5zM479 867q0 -76 -36 -103q-31 -25 -107 -25q-86 0 -116 33q-27 28 -27 95h63q0 -42 16 -55.5t64 -13.5q49 0 64 14q16 14 16 55h63z
" />
    <glyph glyph-name="obreve" unicode="&#x14f;" horiz-adv-x="555" 
d="M500 242q0 -83 -11 -127q-12 -43 -38 -69q-54 -54 -173 -54q-120 0 -174 54q-30 30 -41 82q-8 41 -8 114q0 83 11 127q12 43 38 69q54 54 174 54q119 0 173 -54q30 -30 41 -82q8 -41 8 -114zM414 242q0 68 -7 98q-9 40 -37 57q-30 18 -92 18q-63 0 -93 -19
q-28 -17 -37 -57q-7 -30 -7 -97t7 -97q9 -40 37 -57q30 -19 93 -19t93 19q27 17 36 57q7 29 7 97zM421 667q0 -76 -36 -103q-31 -25 -107 -25q-86 0 -116 33q-27 28 -27 95h63q0 -42 16 -55.5t64 -13.5q49 0 64 14q16 14 16 55h63z" />
    <glyph glyph-name="Ohungarumlaut" unicode="&#x150;" horiz-adv-x="674" 
d="M601 335q0 -127 -11 -181q-17 -82 -70 -119q-61 -43 -184 -43q-125 0 -186 44q-53 38 -69 120q-10 51 -10 178t10 177q15 81 68 119q61 44 186 44q126 0 187 -43q53 -38 69 -119q10 -51 10 -177zM512 334q0 94 -6 137.5t-23 69.5q-18 28 -52 40t-96 12q-66 0 -101 -14
q-31 -13 -47 -39q-16 -25 -22 -68t-6 -139q0 -94 6 -137.5t23 -69.5q17 -28 51.5 -40t96.5 -12q65 0 100 14q30 12 47 38t23 69.5t6 138.5zM585 862l-127 -126h-90l127 126h90zM406 862l-127 -126h-90l127 126h90z" />
    <glyph glyph-name="ohungarumlaut" unicode="&#x151;" horiz-adv-x="555" 
d="M500 242q0 -83 -11 -127q-12 -43 -38 -69q-54 -54 -173 -54q-120 0 -174 54q-30 30 -41 82q-8 41 -8 114q0 83 11 127q12 43 38 69q54 54 174 54q119 0 173 -54q30 -30 41 -82q8 -41 8 -114zM414 242q0 68 -7 98q-9 40 -37 57q-30 18 -92 18q-63 0 -93 -19
q-28 -17 -37 -57q-7 -30 -7 -97t7 -97q9 -40 37 -57q30 -19 93 -19t93 19q27 17 36 57q7 29 7 97zM512 667l-127 -126h-90l127 126h90zM333 667l-127 -126h-90l127 126h90z" />
    <glyph glyph-name="OE" unicode="&#x152;" horiz-adv-x="917" 
d="M846 0h-499q-103 0 -155 21q-49 20 -79 66q-26 39 -34 98q-7 49 -7 148q0 106 9 158t33 89q34 52 95 71q50 16 138 16h499v-80h-308v-205h298v-80h-298v-222h308v-80zM450 80v507h-97q-71 0 -105.5 -10.5t-53.5 -37.5q-18 -26 -25.5 -72.5t-7.5 -133.5q0 -85 7.5 -132
t25.5 -74t52.5 -37t106.5 -10h97z" />
    <glyph glyph-name="oe" unicode="&#x153;" horiz-adv-x="897" 
d="M842 213h-342q0 -55 9 -83q11 -34 39 -49q29 -15 86 -15t86 14q36 18 36 61h80q0 -149 -204 -149q-69 0 -116 22q-40 18 -60 52q-23 -38 -74 -57q-44 -17 -104 -17q-120 0 -174 54q-30 30 -41 82q-8 41 -8 114q0 83 11 127q12 43 38 69q54 54 175 54q68 0 115 -22
q42 -19 62 -52q43 74 173 74q97 0 145 -36q43 -31 58 -97q10 -47 10 -146zM758 286q0 50 -9 76q-11 30 -38 43q-28 14 -82 14q-80 0 -107 -39q-21 -29 -21 -94h257zM414 241q0 68 -7 98q-9 40 -37 58q-30 18 -92 18q-63 0 -93 -19q-28 -17 -37 -57q-7 -30 -7 -97t7 -97
q9 -40 37 -57q30 -19 93 -19t93 19q27 17 36 56q7 29 7 97z" />
    <glyph glyph-name="Racute" unicode="&#x154;" horiz-adv-x="654" 
d="M605 0h-106l-127 193q-29 45 -41 60t-24 22q-10 6 -22.5 7.5t-46.5 1.5h-65v-284h-89v667h226q93 0 135 -8q63 -13 93 -52q35 -44 35 -133q0 -173 -163 -183zM486 473q0 56 -20 82q-18 22 -57 28q-23 4 -90 4h-146v-222h164q57 0 80.5 3.5t38.5 13.5q30 21 30 91z
M453 862l-133 -126h-96l133 126h96z" />
    <glyph glyph-name="racute" unicode="&#x155;" horiz-adv-x="450" 
d="M440 345h-82q0 43 -22 58q-19 12 -65 12q-77 0 -102 -64q-14 -36 -14 -111v-30v-210h-85v484h80v-47q46 55 137 55q153 0 153 -147zM369 667l-133 -126h-96l133 126h96z" />
    <glyph glyph-name="Rcommaaccent" unicode="&#x156;" horiz-adv-x="654" 
d="M605 0h-106l-127 193q-29 45 -41 60t-24 22q-10 6 -22.5 7.5t-46.5 1.5h-65v-284h-89v667h226q93 0 135 -8q63 -13 93 -52q35 -44 35 -133q0 -173 -163 -183zM486 473q0 56 -20 82q-18 22 -57 28q-23 4 -90 4h-146v-222h164q57 0 80.5 3.5t38.5 13.5q30 21 30 91z
M363 -70q0 -46 -9.5 -72t-36.5 -53l-37 -37l-53 53q28 27 35.5 34.5t12.5 17.5q9 18 9 57v29h79v-29z" />
    <glyph glyph-name="rcommaaccent" unicode="&#x157;" horiz-adv-x="450" 
d="M440 345h-82q0 43 -22 58q-19 12 -65 12q-77 0 -102 -64q-14 -36 -14 -111v-30v-210h-85v484h80v-47q46 55 137 55q153 0 153 -147zM155 -70q0 -46 -9.5 -72t-36.5 -53l-37 -37l-53 53q28 27 35.5 34.5t12.5 17.5q9 18 9 57v29h79v-29z" />
    <glyph glyph-name="Rcaron" unicode="&#x158;" horiz-adv-x="654" 
d="M605 0h-106l-127 193q-29 45 -41 60t-24 22q-10 6 -22.5 7.5t-46.5 1.5h-65v-284h-89v667h226q93 0 135 -8q63 -13 93 -52q35 -44 35 -133q0 -173 -163 -183zM486 473q0 56 -20 82q-18 22 -57 28q-23 4 -90 4h-146v-222h164q57 0 80.5 3.5t38.5 13.5q30 21 30 91z
M480 863l-131 -127h-76l-131 127h90l79 -76l78 76h91z" />
    <glyph glyph-name="rcaron" unicode="&#x159;" horiz-adv-x="450" 
d="M440 345h-82q0 43 -22 58q-19 12 -65 12q-77 0 -102 -64q-14 -36 -14 -111v-30v-210h-85v484h80v-47q46 55 137 55q153 0 153 -147zM425 667l-131 -127h-76l-131 127h90l79 -76l78 76h91z" />
    <glyph glyph-name="Sacute" unicode="&#x15a;" horiz-adv-x="648" 
d="M588 203q0 -116 -74 -167q-65 -44 -191 -44q-140 0 -200 45q-59 45 -59 142h88q0 -41 15 -63q16 -23 52.5 -33t105.5 -10q106 0 143 34q30 27 30 91q0 69 -42 87q-13 6 -28.5 8t-64.5 4l-139 5q-76 8 -113 42q-47 42 -47 134q0 116 71 160q59 36 186 36q140 0 201 -45
q59 -45 59 -142h-86q0 71 -54 92q-35 14 -122 14q-108 0 -140 -28q-26 -23 -26 -86q0 -66 44 -83q13 -6 28 -8t63 -4l139 -6q76 -8 114 -41q47 -42 47 -134zM460 862l-133 -126h-96l133 126h96z" />
    <glyph glyph-name="sacute" unicode="&#x15b;" horiz-adv-x="513" 
d="M463 343h-79q0 44 -28 60q-25 15 -82 16h-12q-71 0 -97 -19q-20 -15 -21 -46q-1 -52 32 -63q12 -5 37 -6l34 -1l85 -4q69 -7 98 -37q31 -33 31 -104q0 -87 -65 -121q-51 -27 -149 -26q-107 1 -153 37q-44 35 -44 112h79q0 -44 28 -61q26 -15 89 -15q78 0 103 16
q27 17 27 64q0 23 -7 35t-24 18q-16 5 -80 8q-78 3 -101 7q-51 8 -76 36q-29 32 -29 99q1 87 66 120q49 25 148 24q101 -1 146 -37q44 -36 44 -112zM371 667l-133 -126h-96l133 126h96z" />
    <glyph glyph-name="Scircumflex" unicode="&#x15c;" horiz-adv-x="648" 
d="M588 203q0 -116 -74 -167q-65 -44 -191 -44q-140 0 -200 45q-59 45 -59 142h88q0 -41 15 -63q16 -23 52.5 -33t105.5 -10q106 0 143 34q30 27 30 91q0 69 -42 87q-13 6 -28.5 8t-64.5 4l-139 5q-76 8 -113 42q-47 42 -47 134q0 116 71 160q59 36 186 36q140 0 201 -45
q59 -45 59 -142h-86q0 71 -54 92q-35 14 -122 14q-108 0 -140 -28q-26 -23 -26 -86q0 -66 44 -83q13 -6 28 -8t63 -4l139 -6q76 -8 114 -41q47 -42 47 -134zM493 735h-90l-79 76l-78 -76h-91l131 127h76z" />
    <glyph glyph-name="scircumflex" unicode="&#x15d;" horiz-adv-x="513" 
d="M463 343h-79q0 44 -28 60q-25 15 -82 16h-12q-71 0 -97 -19q-20 -15 -21 -46q-1 -52 32 -63q12 -5 37 -6l34 -1l85 -4q69 -7 98 -37q31 -33 31 -104q0 -87 -65 -121q-51 -27 -149 -26q-107 1 -153 37q-44 35 -44 112h79q0 -44 28 -61q26 -15 89 -15q78 0 103 16
q27 17 27 64q0 23 -7 35t-24 18q-16 5 -80 8q-78 3 -101 7q-51 8 -76 36q-29 32 -29 99q1 87 66 120q49 25 148 24q101 -1 146 -37q44 -36 44 -112zM437 540h-90l-79 76l-78 -76h-91l131 127h76z" />
    <glyph glyph-name="Scedilla" unicode="&#x15e;" horiz-adv-x="648" 
d="M407 -110q0 -79 -84 -79q-46 0 -66 19q-18 16 -18 51h47q0 -16 7.5 -22t29.5 -6q20 0 27 7.5t7 27.5q0 31 -35 33q-8 1 -30 1v71q-122 3 -176 50q-52 45 -52 136h88q0 -41 15 -63q16 -23 52.5 -33t105.5 -10q106 0 143 34q30 27 30 91q0 69 -42 87q-14 6 -29.5 8t-64.5 4
l-139 5q-76 8 -113 42q-46 42 -46 134q0 116 71 160q59 36 186 36q140 0 201 -45q59 -45 59 -142h-86q0 71 -54 92q-35 14 -122 14q-108 0 -140 -28q-26 -23 -26 -86q0 -66 43 -83q14 -6 28.5 -8t62.5 -4l139 -6q77 -8 114 -41q48 -42 48 -134q0 -112 -70 -163
q-60 -44 -176 -48v-33q34 -1 51 -22q14 -18 14 -47z" />
    <glyph glyph-name="scedilla" unicode="&#x15f;" horiz-adv-x="513" 
d="M348 -110q0 -79 -84 -79q-46 0 -66 19q-18 16 -18 51h47q0 -16 7.5 -22t29.5 -6q20 0 27 7.5t7 27.5q0 31 -35 33q-8 1 -30 1v70q-99 3 -142 40q-41 35 -41 109h79q0 -44 28 -61q26 -15 89 -15q78 0 103 16q27 17 27 64q0 23 -7 35t-24 18q-16 5 -80 8q-78 3 -101 7
q-51 8 -76 36q-29 32 -29 99q1 87 66 120q49 25 148 24q101 -1 146 -37q44 -36 44 -112h-79q0 44 -28 60q-25 15 -82 16h-12q-71 0 -97 -19q-20 -15 -21 -46q-1 -52 32 -63q12 -5 37 -6l34 -1l85 -4q69 -7 98 -37q31 -33 31 -104q0 -79 -54 -114q-42 -28 -124 -32v-34
q34 -1 51 -22q14 -18 14 -47z" />
    <glyph glyph-name="Scaron" unicode="&#x160;" horiz-adv-x="648" 
d="M588 203q0 -116 -74 -167q-65 -44 -191 -44q-140 0 -200 45q-59 45 -59 142h88q0 -41 15 -63q16 -23 52.5 -33t105.5 -10q106 0 143 34q30 27 30 91q0 69 -42 87q-13 6 -28.5 8t-64.5 4l-139 5q-76 8 -113 42q-47 42 -47 134q0 116 71 160q59 36 186 36q140 0 201 -45
q59 -45 59 -142h-86q0 71 -54 92q-35 14 -122 14q-108 0 -140 -28q-26 -23 -26 -86q0 -66 44 -83q13 -6 28 -8t63 -4l139 -6q76 -8 114 -41q47 -42 47 -134zM493 853l-131 -127h-76l-131 127h90l79 -76l78 76h91z" />
    <glyph glyph-name="scaron" unicode="&#x161;" horiz-adv-x="513" 
d="M463 343h-79q0 44 -28 60q-25 15 -82 16h-12q-71 0 -97 -19q-20 -15 -21 -46q-1 -52 32 -63q12 -5 37 -6l34 -1l85 -4q69 -7 98 -37q31 -33 31 -104q0 -87 -65 -121q-51 -27 -149 -26q-107 1 -153 37q-44 35 -44 112h79q0 -44 28 -61q26 -15 89 -15q78 0 103 16
q27 17 27 64q0 23 -7 35t-24 18q-16 5 -80 8q-78 3 -101 7q-51 8 -76 36q-29 32 -29 99q1 87 66 120q49 25 148 24q101 -1 146 -37q44 -36 44 -112zM437 667l-131 -127h-76l-131 127h90l79 -76l78 76h91z" />
    <glyph glyph-name="Tcommaaccent" unicode="&#x162;" horiz-adv-x="541" 
d="M523 588h-208v-588h-89v588h-208v79h505v-79zM310 -70q0 -46 -9.5 -72t-36.5 -53l-37 -37l-53 53q28 27 35.5 34.5t12.5 17.5q9 18 9 57v29h79v-29z" />
    <glyph glyph-name="tcommaaccent" unicode="&#x163;" horiz-adv-x="341" 
d="M316 69v-74h-47q-85 0 -121 34q-39 35 -39 116v266h-80v73h80v183h85v-183h122v-73h-122v-242q0 -37 2.5 -53t10.5 -26q16 -21 69 -21h40zM260 -70q0 -46 -9.5 -72t-36.5 -53l-37 -37l-53 53q28 27 35.5 34.5t12.5 17.5q9 18 9 57v29h79v-29z" />
    <glyph glyph-name="Tcaron" unicode="&#x164;" horiz-adv-x="541" 
d="M523 588h-208v-588h-89v588h-208v79h505v-79zM440 863l-131 -127h-76l-131 127h90l79 -76l78 76h91z" />
    <glyph glyph-name="tcaron" unicode="&#x165;" horiz-adv-x="477" 
d="M452 668q0 -46 -9.5 -72t-36.5 -53l-37 -37l-53 53q28 27 35.5 34.5t12.5 17.5q9 18 9 57v29h79v-29zM316 69v-74h-47q-85 0 -121 34q-39 35 -39 116v266h-80v73h80v183h85v-183h122v-73h-122v-242q0 -37 2.5 -53t10.5 -26q16 -21 69 -21h40z" />
    <glyph glyph-name="Tbar" unicode="&#x166;" horiz-adv-x="541" 
d="M430 305h-115v-305h-89v305h-115v77h115v206h-208v79h505v-79h-208v-206h115v-77z" />
    <glyph glyph-name="tbar" unicode="&#x167;" horiz-adv-x="341" 
d="M316 69v-74h-47q-85 0 -121 34q-39 35 -39 116v68h-80v73h80v125h-80v73h80v183h85v-183h122v-73h-122v-125h122v-73h-122v-44q0 -37 2.5 -53t10.5 -26q16 -21 69 -21h40z" />
    <glyph glyph-name="Utilde" unicode="&#x168;" horiz-adv-x="652" 
d="M574 335q0 -114 -2 -146q-3 -47 -16 -81q-46 -116 -230 -116t-230 116q-13 34 -16 81q-2 32 -2 146v332h89v-332v-64q0 -59 3.5 -89t12.5 -49q29 -60 143 -60q65 0 100 17q30 14 44 42q9 19 12.5 48.5t3.5 89.5v65v332h88v-332zM520 802l-70 -36q-36 -16 -65 -16
q-30 0 -59 17q-30 18 -33 20q-15 7 -29 7q-19 0 -43 -12l-59 -30l-31 58q68 35 70 36q36 15 65 15q31 0 60 -17q30 -18 33 -20q15 -7 29 -7q18 0 42 12l59 31z" />
    <glyph glyph-name="utilde" unicode="&#x169;" horiz-adv-x="543" 
d="M465 0h-79v48q-51 -56 -148 -56q-132 0 -165 82q-10 25 -13 51t-3 95v264h86v-255v-43q0 -38 4 -57.5t15 -32.5q22 -25 87 -25q95 0 119 65q8 20 10 42.5t2 82.5v223h85v-484zM469 609l-70 -36q-36 -16 -65 -16q-30 0 -59 17q-30 18 -33 20q-15 7 -29 7q-19 0 -43 -12
l-59 -30l-31 58q68 35 70 36q36 15 65 15q31 0 60 -17q30 -18 33 -20q15 -7 29 -7q18 0 42 12l59 31z" />
    <glyph glyph-name="Umacron" unicode="&#x16a;" horiz-adv-x="652" 
d="M574 335q0 -114 -2 -146q-3 -47 -16 -81q-46 -116 -230 -116t-230 116q-13 34 -16 81q-2 32 -2 146v332h89v-332v-64q0 -59 3.5 -89t12.5 -49q29 -60 143 -60q65 0 100 17q30 14 44 42q9 19 12.5 48.5t3.5 89.5v65v332h88v-332zM498 788h-344v65h344v-65z" />
    <glyph glyph-name="umacron" unicode="&#x16b;" horiz-adv-x="543" 
d="M465 0h-79v48q-51 -56 -148 -56q-132 0 -165 82q-10 25 -13 51t-3 95v264h86v-255v-43q0 -38 4 -57.5t15 -32.5q22 -25 87 -25q95 0 119 65q8 20 10 42.5t2 82.5v223h85v-484zM446 587h-344v65h344v-65z" />
    <glyph glyph-name="Ubreve" unicode="&#x16c;" horiz-adv-x="652" 
d="M574 335q0 -114 -2 -146q-3 -47 -16 -81q-46 -116 -230 -116t-230 116q-13 34 -16 81q-2 32 -2 146v332h89v-332v-64q0 -59 3.5 -89t12.5 -49q29 -60 143 -60q65 0 100 17q30 14 44 42q9 19 12.5 48.5t3.5 89.5v65v332h88v-332zM469 867q0 -76 -36 -103q-31 -25 -107 -25
q-86 0 -116 33q-27 28 -27 95h63q0 -42 16 -55.5t64 -13.5q49 0 64 14q16 14 16 55h63z" />
    <glyph glyph-name="ubreve" unicode="&#x16d;" horiz-adv-x="543" 
d="M465 0h-79v48q-51 -56 -148 -56q-132 0 -165 82q-10 25 -13 51t-3 95v264h86v-255v-43q0 -38 4 -57.5t15 -32.5q22 -25 87 -25q95 0 119 65q8 20 10 42.5t2 82.5v223h85v-484zM417 667q0 -76 -36 -103q-31 -25 -107 -25q-86 0 -116 33q-27 28 -27 95h63q0 -42 16 -55.5
t64 -13.5q49 0 64 14q16 14 16 55h63z" />
    <glyph glyph-name="Uring" unicode="&#x16e;" horiz-adv-x="652" 
d="M574 335q0 -114 -2 -146q-3 -47 -16 -81q-46 -116 -230 -116t-230 116q-13 34 -16 81q-2 32 -2 146v332h89v-332v-64q0 -59 3.5 -89t12.5 -49q29 -60 143 -60q65 0 100 17q30 14 44 42q9 19 12.5 48.5t3.5 89.5v65v332h88v-332zM441 801q0 -66 -29 -92q-27 -24 -86 -24
q-67 0 -93 32q-22 26 -22 84q0 64 30 89q26 23 85 23q67 0 93 -30q22 -26 22 -82zM384 800q0 38 -11 50t-47 12q-39 0 -49 -15q-9 -12 -9 -47q0 -39 11 -51.5t47 -12.5q38 0 49 16q9 13 9 48z" />
    <glyph glyph-name="uring" unicode="&#x16f;" horiz-adv-x="543" 
d="M465 0h-79v48q-51 -56 -148 -56q-132 0 -165 82q-10 25 -13 51t-3 95v264h86v-255v-43q0 -38 4 -57.5t15 -32.5q22 -25 87 -25q95 0 119 65q8 20 10 42.5t2 82.5v223h85v-484zM383 625q0 -66 -29 -92q-27 -24 -86 -24q-67 0 -93 32q-22 26 -22 84q0 64 30 89q26 23 85 23
q67 0 93 -30q22 -26 22 -82zM326 624q0 38 -11 50t-47 12q-39 0 -49 -15q-9 -12 -9 -47q0 -39 11 -51.5t47 -12.5q38 0 49 16q9 13 9 48z" />
    <glyph glyph-name="Uhungarumlaut" unicode="&#x170;" horiz-adv-x="652" 
d="M574 335q0 -114 -2 -146q-3 -47 -16 -81q-46 -116 -230 -116t-230 116q-13 34 -16 81q-2 32 -2 146v332h89v-332v-64q0 -59 3.5 -89t12.5 -49q29 -60 143 -60q65 0 100 17q30 14 44 42q9 19 12.5 48.5t3.5 89.5v65v332h88v-332zM568 862l-127 -126h-90l127 126h90z
M389 862l-127 -126h-90l127 126h90z" />
    <glyph glyph-name="uhungarumlaut" unicode="&#x171;" horiz-adv-x="543" 
d="M465 0h-79v48q-51 -56 -148 -56q-132 0 -165 82q-10 25 -13 51t-3 95v264h86v-255v-43q0 -38 4 -57.5t15 -32.5q22 -25 87 -25q95 0 119 65q8 20 10 42.5t2 82.5v223h85v-484zM504 667l-127 -126h-90l127 126h90zM325 667l-127 -126h-90l127 126h90z" />
    <glyph glyph-name="Uogonek" unicode="&#x172;" horiz-adv-x="652" 
d="M338 -8h-12q-184 0 -230 116q-13 34 -16 81q-2 32 -2 146v332h89v-332v-64q0 -59 3.5 -89t12.5 -49q29 -60 143 -60q65 0 100 17q30 14 44 42q9 19 12.5 48.5t3.5 89.5v65v332h88v-332q0 -114 -2 -146q-3 -47 -16 -81q-13 -35 -38 -59t-80 -55q-46 -26 -62 -42
q-22 -23 -22 -55q0 -65 83 -65q10 0 26 2v-58q-22 -3 -48 -3q-63 0 -99 32q-34 31 -34 86q0 63 56 101z" />
    <glyph glyph-name="uogonek" unicode="&#x173;" horiz-adv-x="543" 
d="M386 16v32q-51 -56 -148 -56q-132 0 -165 82q-10 25 -13 51t-3 95v264h86v-255v-43q0 -38 4 -57.5t15 -32.5q22 -25 87 -25q95 0 119 65q8 20 10 42.5t2 82.5v223h85v-484q-48 -24 -70.5 -48.5t-22.5 -54.5q0 -66 83 -66q10 0 26 2v-57q-22 -3 -48 -3q-62 0 -97 32
q-34 31 -34 86q0 43 25 77q22 29 59 48z" />
    <glyph glyph-name="Wcircumflex" unicode="&#x174;" horiz-adv-x="884" 
d="M848 667l-163 -667h-94l-149 545l-148 -545h-98l-160 667h90l125 -534l145 534h94l144 -534l127 534h87zM611 735h-90l-79 76l-78 -76h-91l131 127h76z" />
    <glyph glyph-name="wcircumflex" unicode="&#x175;" horiz-adv-x="713" 
d="M693 484l-138 -484h-89l-108 378l-108 -378h-91l-139 484h89l100 -377l105 377h87l106 -377l100 377h86zM527 540h-90l-79 76l-78 -76h-91l131 127h76z" />
    <glyph glyph-name="Ycircumflex" unicode="&#x176;" horiz-adv-x="568" 
d="M566 667l-237 -376v-291h-89v291l-238 376h102l182 -295l180 295h100zM453 735h-90l-79 76l-78 -76h-91l131 127h76z" />
    <glyph glyph-name="ycircumflex" unicode="&#x177;" horiz-adv-x="543" 
d="M386 34v14q-51 -56 -148 -56q-132 0 -165 82q-10 25 -13 51t-3 95v264h86v-255v-43q0 -38 4 -57.5t15 -32.5q22 -25 87 -25q95 0 119 65q8 20 10 42.5t2 82.5v223h85v-456q0 -68 -9 -102q-13 -56 -54 -85q-50 -35 -144 -35q-92 0 -143 35q-53 36 -53 109h84
q2 -70 109 -70q89 0 115 49q16 30 16 105zM442 540h-90l-79 76l-78 -76h-91l131 127h76z" />
    <glyph glyph-name="Ydieresis" unicode="&#x178;" horiz-adv-x="568" 
d="M566 667l-237 -376v-291h-89v291l-238 376h102l182 -295l180 295h100zM442 814q0 -49 -50 -49q-48 0 -48 49q0 25 11.5 36.5t36.5 11.5q50 0 50 -48zM227 814q0 -49 -50 -49q-48 0 -48 49q0 25 11.5 36.5t36.5 11.5q50 0 50 -48z" />
    <glyph glyph-name="Zacute" unicode="&#x179;" horiz-adv-x="610" 
d="M549 0h-488v78l382 510h-382v79h488v-78l-383 -509h383v-80zM419 862l-133 -126h-96l133 126h96z" />
    <glyph glyph-name="zacute" unicode="&#x17a;" horiz-adv-x="487" 
d="M440 0h-394v72l286 339h-286v73h394v-72l-285 -336h285v-76zM358 667l-133 -126h-96l133 126h96z" />
    <glyph glyph-name="Zdotaccent" unicode="&#x17b;" horiz-adv-x="610" 
d="M549 0h-488v78l382 510h-382v79h488v-78l-383 -509h383v-80zM355 814q0 -49 -50 -49q-48 0 -48 49q0 25 11.5 36.5t36.5 11.5q50 0 50 -48z" />
    <glyph glyph-name="zdotaccent" unicode="&#x17c;" horiz-adv-x="487" 
d="M440 0h-394v72l286 339h-286v73h394v-72l-285 -336h285v-76zM293 619q0 -49 -50 -49q-48 0 -48 49q0 25 11.5 36.5t36.5 11.5q50 0 50 -48z" />
    <glyph glyph-name="Zcaron" unicode="&#x17d;" horiz-adv-x="610" 
d="M549 0h-488v78l382 510h-382v79h488v-78l-383 -509h383v-80zM466 853l-131 -127h-76l-131 127h90l79 -76l78 76h91z" />
    <glyph glyph-name="zcaron" unicode="&#x17e;" horiz-adv-x="487" 
d="M440 0h-394v72l286 339h-286v73h394v-72l-285 -336h285v-76zM418 667l-131 -127h-76l-131 127h90l79 -76l78 76h91z" />
    <glyph glyph-name="uni018F" unicode="&#x18f;" horiz-adv-x="674" 
d="M79 493q13 97 72 138q61 43 185 43q126 0 187 -43q53 -38 69 -119q10 -51 10 -177q0 -127 -11 -181q-17 -82 -70 -119q-61 -43 -184 -43q-125 0 -186 44q-53 38 -69 120q-10 51 -10 178v31l441 -1v18q-1 66 -7.5 101t-21.5 58q-18 28 -52 40t-96 12q-66 0 -101 -14
q-31 -13 -47 -39q-16 -25 -22 -66zM160 284q2 -66 8 -100.5t21 -57.5q17 -28 51.5 -40t96.5 -12q65 0 100 14q30 12 47 38q15 23 21 58t8 100h-353z" />
    <glyph glyph-name="florin" unicode="&#x192;" horiz-adv-x="578" 
d="M537 515h-82q0 46 -24.5 63.5t-89.5 17.5q-61 0 -90 -13q-27 -13 -36 -44q-7 -23 -7 -79v-84h285v-77h-285v-490h-86v490h-61v77h61v82v31q0 48 8 76q9 35 34 59q52 50 167 50q53 0 86 -6t57 -21q63 -37 63 -132z" />
    <glyph glyph-name="uni01DD" unicode="&#x1dd;" horiz-adv-x="538" 
d="M55 271h342q0 55 -9 83q-11 34 -39 49q-29 15 -86 15t-86 -14q-36 -18 -36 -61h-80q0 149 204 149q140 0 186 -76q32 -52 32 -170q0 -85 -14 -133q-18 -60 -62 -89q-49 -32 -139 -32q-97 0 -145 36q-43 31 -58 97q-10 47 -10 146zM139 198q0 -50 9 -76q11 -30 38 -43
q28 -14 82 -14q79 0 107 39q21 29 21 94h-257z" />
    <glyph glyph-name="Aringacute" unicode="&#x1fa;" horiz-adv-x="628" 
d="M615 0h-96l-69 184h-278l-68 -184h-92l242 629q-60 18 -60 110q0 65 32 88q27 20 87 20q69 0 96 -28q24 -25 24 -83q0 -92 -61 -107zM375 732q0 38 -12.5 50.5t-49.5 12.5q-39 0 -51 -15q-9 -13 -9 -48q0 -39 13 -50q12 -9 48 -9q40 0 51 13q10 12 10 46zM422 260
l-111 300l-111 -300h222zM450 1026l-133 -126h-96l133 126h96z" />
    <glyph glyph-name="aringacute" unicode="&#x1fb;" horiz-adv-x="539" 
d="M474 0h-78v47q-22 -26 -64 -40.5t-97 -14.5q-100 0 -145 39q-43 37 -43 112q0 99 68 132q44 22 132 22h143q0 51 -4 68q-7 27 -31 39q-27 13 -87 13q-62 0 -88 -12q-37 -17 -37 -60h-82q0 110 112 137q-19 17 -19 77q0 64 32 88q27 20 88 20q70 0 96 -27q24 -24 24 -81
q0 -59 -21 -79q72 -22 92 -86q9 -30 9 -97v-297zM335 550q0 39 -13 52t-50 13q-40 0 -52 -16q-9 -13 -9 -49q0 -40 14 -51q12 -10 49 -10q39 0 51 14q10 12 10 47zM391 225h-148q-64 0 -87 -17q-23 -18 -23 -64q0 -45 27 -62q25 -17 83 -17q66 0 99 18q31 16 41 53
q8 28 8 89zM396 846l-133 -126h-96l133 126h96z" />
    <glyph glyph-name="AEacute" unicode="&#x1fc;" horiz-adv-x="931" 
d="M860 0h-397v184h-238l-121 -184h-102l446 667h412v-80h-310v-205h300v-80h-300v-222h310v-80zM463 262v284l-187 -284h187zM681 862l-133 -126h-96l133 126h96z" />
    <glyph glyph-name="aeacute" unicode="&#x1fd;" horiz-adv-x="874" 
d="M819 219h-343q0 -56 9 -85q11 -35 39 -51q29 -17 86 -17t86 14q37 18 37 61h80q0 -149 -206 -149q-131 0 -174 73q-53 -73 -195 -73q-101 0 -147 37q-44 36 -44 111q0 98 69 132q44 21 133 21h145q0 52 -7 74q-8 28 -34 39t-83 11q-62 0 -89 -12q-38 -17 -38 -60h-82
q0 86 69 121q50 26 141 26q70 0 112 -16q40 -15 61 -46q47 62 162 62q97 0 145 -34q44 -30 58 -95q10 -45 10 -144zM735 292q0 76 -30 102q-28 25 -100 25q-77 0 -106 -36q-22 -28 -22 -91h258zM394 220h-149q-65 0 -88 -16q-24 -17 -24 -63q0 -44 28 -61q26 -15 84 -15
q67 0 99 16q31 15 41 50q8 27 9 89zM575 667l-133 -126h-96l133 126h96z" />
    <glyph glyph-name="Oslashacute" unicode="&#x1fe;" horiz-adv-x="674" 
d="M602 333q-1 -127 -13 -181q-17 -82 -71 -119q-61 -42 -184 -41l-38 1l-31 -136l-74 16l31 132q-101 25 -131 114q-19 56 -19 180v37q1 127 11 177q17 81 70 119q61 43 186 42l38 -1l30 134l74 -18l-29 -127q65 -17 99 -56q31 -35 42 -96q9 -47 9 -135v-42zM513 332v25
q0 81 -5.5 120t-21.5 63q-20 30 -53 40l-117 -505q9 -1 19 -1q65 -1 100 13q30 12 47 38t23.5 70t7.5 137zM357 592q-5 1 -19 1q-65 1 -101 -14q-30 -12 -47 -38t-23 -68.5t-7 -137.5q-1 -93 5 -137.5t22 -70.5q19 -30 54 -40zM425 862l-133 -126h-96l133 126h96z" />
    <glyph glyph-name="oslashacute" unicode="&#x1ff;" horiz-adv-x="555" 
d="M500 240q-1 -81 -12 -124q-12 -45 -39 -71q-29 -28 -70.5 -41t-102.5 -12q-34 0 -49 2l-35 -94l-73 26l34 88q-64 28 -85 95q-13 41 -13 115v20q1 83 13 127q12 42 38 68q29 28 70.5 41t103.5 12q34 0 48 -2l33 88l72 -26l-31 -81q64 -27 85 -96q13 -42 13 -116v-19z
M414 241q1 72 -7 101.5t-33 51.5l-118 -324q9 -1 25 -1q62 0 91 18q27 17 36 57q5 28 6 97zM301 414q-9 1 -21 1q-62 0 -93 -18q-28 -17 -38 -57q-7 -30 -8 -97v-18q0 -57 9 -86q10 -31 33 -47q16 42 67 181.5t51 140.5zM384 667l-133 -126h-96l133 126h96z" />
    <glyph glyph-name="Scommaaccent" unicode="&#x218;" horiz-adv-x="648" 
d="M588 203q0 -116 -74 -167q-65 -44 -191 -44q-140 0 -200 45q-59 45 -59 142h88q0 -41 15 -63q16 -23 52.5 -33t105.5 -10q106 0 143 34q30 27 30 91q0 69 -42 87q-13 6 -28.5 8t-64.5 4l-139 5q-76 8 -113 42q-47 42 -47 134q0 116 71 160q59 36 186 36q140 0 201 -45
q59 -45 59 -142h-86q0 71 -54 92q-35 14 -122 14q-108 0 -140 -28q-26 -23 -26 -86q0 -66 44 -83q13 -6 28 -8t63 -4l139 -6q76 -8 114 -41q47 -42 47 -134zM361 -70q0 -46 -9.5 -72t-36.5 -53l-37 -37l-53 53q28 27 35.5 34.5t12.5 17.5q9 18 9 57v29h79v-29z" />
    <glyph glyph-name="scommaaccent" unicode="&#x219;" horiz-adv-x="513" 
d="M463 343h-79q0 44 -28 60q-25 15 -82 16h-12q-71 0 -97 -19q-20 -15 -21 -46q-1 -52 32 -63q12 -5 37 -6l34 -1l85 -4q69 -7 98 -37q31 -33 31 -104q0 -87 -65 -121q-51 -27 -149 -26q-107 1 -153 37q-44 35 -44 112h79q0 -44 28 -61q26 -15 89 -15q78 0 103 16
q27 17 27 64q0 23 -7 35t-24 18q-16 5 -80 8q-78 3 -101 7q-51 8 -76 36q-29 32 -29 99q1 87 66 120q49 25 148 24q101 -1 146 -37q44 -36 44 -112zM289 -70q0 -46 -9.5 -72t-36.5 -53l-37 -37l-53 53q28 27 35.5 34.5t12.5 17.5q9 18 9 57v29h79v-29z" />
    <glyph glyph-name="uni021A" unicode="&#x21a;" horiz-adv-x="541" 
d="M523 588h-208v-588h-89v588h-208v79h505v-79zM310 -70q0 -46 -9.5 -72t-36.5 -53l-37 -37l-53 53q28 27 35.5 34.5t12.5 17.5q9 18 9 57v29h79v-29z" />
    <glyph glyph-name="uni021B" unicode="&#x21b;" horiz-adv-x="341" 
d="M316 69v-74h-47q-85 0 -121 34q-39 35 -39 116v266h-80v73h80v183h85v-183h122v-73h-122v-242q0 -37 2.5 -53t10.5 -26q16 -21 69 -21h40zM260 -70q0 -46 -9.5 -72t-36.5 -53l-37 -37l-53 53q28 27 35.5 34.5t12.5 17.5q9 18 9 57v29h79v-29z" />
    <glyph glyph-name="uni0259" unicode="&#x259;" horiz-adv-x="538" 
d="M55 271h342q0 55 -9 83q-11 34 -39 49q-29 15 -86 15t-86 -14q-36 -18 -36 -61h-80q0 149 204 149q140 0 186 -76q32 -52 32 -170q0 -85 -14 -133q-18 -60 -62 -89q-49 -32 -139 -32q-97 0 -145 36q-43 31 -58 97q-10 47 -10 146zM139 198q0 -50 9 -76q11 -30 38 -43
q28 -14 82 -14q79 0 107 39q21 29 21 94h-257z" />
    <glyph glyph-name="circumflex" unicode="&#x2c6;" horiz-adv-x="428" 
d="M383 540h-90l-79 76l-78 -76h-91l131 127h76z" />
    <glyph glyph-name="caron" unicode="&#x2c7;" horiz-adv-x="428" 
d="M383 667l-131 -127h-76l-131 127h90l79 -76l78 76h91z" />
    <glyph glyph-name="uni02C9" unicode="&#x2c9;" horiz-adv-x="428" 
d="M386 587h-344v65h344v-65z" />
    <glyph glyph-name="breve" unicode="&#x2d8;" horiz-adv-x="428" 
d="M357 667q0 -76 -36 -103q-31 -25 -107 -25q-86 0 -116 33q-27 28 -27 95h63q0 -42 16 -55.5t64 -13.5q49 0 64 14q16 14 16 55h63z" />
    <glyph glyph-name="dotaccent" unicode="&#x2d9;" horiz-adv-x="428" 
d="M263 619q0 -49 -50 -49q-48 0 -48 49q0 25 11.5 36.5t36.5 11.5q50 0 50 -48z" />
    <glyph glyph-name="ring" unicode="&#x2da;" horiz-adv-x="478" 
d="M354 588q0 -66 -29 -92q-27 -24 -86 -24q-67 0 -93 32q-22 26 -22 84q0 64 30 89q26 23 85 23q67 0 93 -30q22 -26 22 -82zM297 587q0 38 -11 50t-47 12q-39 0 -49 -15q-9 -12 -9 -47q0 -39 11 -51.5t47 -12.5q38 0 49 16q9 13 9 48z" />
    <glyph glyph-name="ogonek" unicode="&#x2db;" horiz-adv-x="437" 
d="M206 17l78 -17q-48 -24 -70.5 -48.5t-22.5 -54.5q0 -66 83 -66q10 0 26 2v-57q-22 -3 -48 -3q-62 0 -97 32q-34 31 -34 86q0 42 26 77q22 29 59 49z" />
    <glyph glyph-name="tilde" unicode="&#x2dc;" horiz-adv-x="428" 
d="M409 609l-70 -36q-36 -16 -65 -16q-30 0 -59 17q-30 18 -33 20q-15 7 -29 7q-19 0 -43 -12l-59 -30l-31 58q68 35 70 36q36 15 65 15q31 0 60 -17q30 -18 33 -20q15 -7 29 -7q18 0 42 12l59 31z" />
    <glyph glyph-name="hungarumlaut" unicode="&#x2dd;" horiz-adv-x="428" 
d="M423 667l-127 -126h-90l127 126h90zM244 667l-127 -126h-90l127 126h90z" />
    <glyph glyph-name="uni037E" unicode="&#x37e;" horiz-adv-x="222" 
d="M165 438q0 -56 -54 -56q-26 0 -40.5 14.5t-14.5 41.5q0 54 55 54q54 0 54 -54zM148 9q0 -46 -10 -73t-36 -52l-37 -35l-53 51q28 27 35.5 34.5t12.5 17.5q9 18 9 57v93h79v-93z" />
    <glyph glyph-name="tonos" unicode="&#x384;" horiz-adv-x="604" 
d="M341 540h-79v177h79v-177z" />
    <glyph glyph-name="dieresistonos" unicode="&#x385;" horiz-adv-x="604" 
d="M341 540h-79v177h79v-177zM475 629q0 -49 -50 -49q-48 0 -48 49q0 25 11.5 36.5t36.5 11.5q50 0 50 -48zM226 629q0 -49 -50 -49q-48 0 -48 49q0 25 11.5 36.5t36.5 11.5q50 0 50 -48z" />
    <glyph glyph-name="Alphatonos" unicode="&#x386;" horiz-adv-x="628" 
d="M616 0h-97l-68 184h-279l-67 -184h-93l258 667h89zM423 261l-111 299l-111 -299h222zM169 540h-79v177h79v-177z" />
    <glyph glyph-name="uni0387" unicode="&#x387;" horiz-adv-x="221" 
d="M165 337q0 -56 -54 -56q-26 0 -40.5 14.5t-14.5 41.5q0 54 55 54q54 0 54 -54z" />
    <glyph glyph-name="Epsilontonos" unicode="&#x388;" horiz-adv-x="649" 
d="M578 0h-438v667h438v-80h-349v-205h339v-80h-339v-222h349v-80zM86 540h-79v177h79v-177z" />
    <glyph glyph-name="Etatonos" unicode="&#x389;" horiz-adv-x="712" 
d="M628 0h-88v302h-312v-302h-89v667h89v-285h312v285h88v-667zM86 540h-79v177h79v-177z" />
    <glyph glyph-name="Iotatonos" unicode="&#x38a;" horiz-adv-x="313" 
d="M229 0h-89v667h89v-667zM86 540h-79v177h79v-177z" />
    <glyph glyph-name="Omicrontonos" unicode="&#x38c;" horiz-adv-x="722" 
d="M649 335q0 -127 -11 -181q-17 -82 -70 -119q-61 -43 -184 -43q-125 0 -186 44q-53 38 -69 120q-10 51 -10 178t10 177q15 81 68 119q61 44 186 44q126 0 187 -43q53 -38 69 -119q10 -51 10 -177zM560 334q0 94 -6 137.5t-23 69.5q-18 28 -52 40t-96 12q-66 0 -101 -14
q-31 -13 -47 -39q-16 -25 -22 -68t-6 -139q0 -94 6 -137.5t23 -69.5q17 -28 51.5 -40t96.5 -12q65 0 100 14q30 12 47 38t23 69.5t6 138.5zM86 540h-79v177h79v-177z" />
    <glyph glyph-name="Upsilontonos" unicode="&#x38e;" horiz-adv-x="680" 
d="M678 667l-237 -376v-291h-89v291l-238 376h102l182 -295l180 295h100zM86 540h-79v177h79v-177z" />
    <glyph glyph-name="Omegatonos" unicode="&#x38f;" horiz-adv-x="722" 
d="M650 334q0 -118 -10 -163q-13 -63 -53 -92h63v-79h-231v75q44 3 71 15t43 36q17 25 22 62q6 43 6 146q0 94 -6 137.5t-23 69.5q-18 28 -52 40t-96 12q-66 0 -101 -14q-31 -13 -47 -39q-17 -26 -22.5 -68t-5.5 -138q0 -101 5.5 -141t23.5 -67q16 -24 41 -36q27 -12 72 -15
v-75h-230v79h63q-45 32 -57 109q-6 40 -6 146q0 127 10 177q15 81 68 119q61 44 186 44q126 0 187 -43q53 -38 69 -120q10 -50 10 -177zM86 540h-79v177h79v-177z" />
    <glyph glyph-name="iotadieresistonos" unicode="&#x390;" horiz-adv-x="225" 
d="M211 0h-23q-74 0 -98 29q-20 24 -20 84v371h85v-367q0 -27 8 -35q9 -9 35 -9h13v-73zM152 540h-79v177h79v-177zM286 629q0 -49 -50 -49q-48 0 -48 49q0 25 11.5 36.5t36.5 11.5q50 0 50 -48zM37 629q0 -49 -50 -49q-48 0 -48 49q0 25 11.5 36.5t36.5 11.5q50 0 50 -48z
" />
    <glyph glyph-name="Alpha" unicode="&#x391;" horiz-adv-x="628" 
d="M616 0h-97l-68 184h-279l-67 -184h-93l258 667h89zM423 261l-111 299l-111 -299h222z" />
    <glyph glyph-name="Beta" unicode="&#x392;" horiz-adv-x="651" 
d="M579 192q0 -138 -92 -175q-27 -10 -58.5 -13.5t-107.5 -3.5h-237v667h231h40q72 0 109 -8q53 -12 79 -45q31 -40 31 -115q0 -126 -67 -155q38 -17 55 -52.5t17 -99.5zM486 485q0 52 -20 75q-18 20 -59 25q-20 2 -99 2h-136v-205h143h51q38 0 58.5 4t33.5 15q27 22 28 84z
M491 190q0 57 -19 82q-18 22 -59 27q-20 3 -100 3h-141v-222h141h47q42 0 64 4.5t37 15.5q30 24 30 90z" />
    <glyph glyph-name="Gamma" unicode="&#x393;" horiz-adv-x="520" 
d="M512 587h-339v-587h-89v667h428v-80z" />
    <glyph glyph-name="uni0394" unicode="&#x394;" horiz-adv-x="633" 
d="M618 0h-604l258 667h89zM495 80l-180 480l-179 -480h359z" />
    <glyph glyph-name="Epsilon" unicode="&#x395;" horiz-adv-x="593" 
d="M522 0h-438v667h438v-80h-349v-205h339v-80h-339v-222h349v-80z" />
    <glyph glyph-name="Zeta" unicode="&#x396;" horiz-adv-x="610" 
d="M549 0h-488v78l382 510h-382v79h488v-78l-383 -509h383v-80z" />
    <glyph glyph-name="Eta" unicode="&#x397;" horiz-adv-x="657" 
d="M573 0h-88v302h-312v-302h-89v667h89v-285h312v285h88v-667z" />
    <glyph glyph-name="Theta" unicode="&#x398;" horiz-adv-x="674" 
d="M456 380v-77h-240v77h240zM601 335q0 -127 -11 -181q-17 -82 -70 -119q-61 -43 -184 -43q-125 0 -186 44q-53 38 -69 120q-10 51 -10 178t10 177q15 81 68 119q61 44 186 44q126 0 187 -43q53 -38 69 -119q10 -51 10 -177zM512 334q0 94 -6 137.5t-23 69.5q-18 28 -52 40
t-96 12q-66 0 -101 -14q-31 -13 -47 -39q-16 -25 -22 -68t-6 -139q0 -94 6 -137.5t23 -69.5q17 -28 51.5 -40t96.5 -12q65 0 100 14q30 12 47 38t23 69.5t6 138.5z" />
    <glyph glyph-name="Iota" unicode="&#x399;" horiz-adv-x="257" 
d="M173 0h-89v667h89v-667z" />
    <glyph glyph-name="Kappa" unicode="&#x39a;" horiz-adv-x="607" 
d="M602 0h-132l-297 285v-285h-89v667h88v-288l307 288h121l-361 -332z" />
    <glyph glyph-name="Lambda" unicode="&#x39b;" horiz-adv-x="628" 
d="M616 0h-97l-207 560l-207 -560h-93l258 667h89z" />
    <glyph glyph-name="Mu" unicode="&#x39c;" horiz-adv-x="824" 
d="M740 0h-85v533l-201 -533h-85l-201 533v-533h-84v667h115l214 -556l212 556h115v-667z" />
    <glyph glyph-name="Nu" unicode="&#x39d;" horiz-adv-x="655" 
d="M571 0h-94l-307 520v-520h-86v667h93l308 -517v517h86v-667z" />
    <glyph glyph-name="Xi" unicode="&#x39e;" horiz-adv-x="580" 
d="M509 587h-438v80h438v-80zM499 302h-418v80h418v-80zM509 0h-438v80h438v-80z" />
    <glyph glyph-name="Omicron" unicode="&#x39f;" horiz-adv-x="674" 
d="M601 335q0 -127 -11 -181q-17 -82 -70 -119q-61 -43 -184 -43q-125 0 -186 44q-53 38 -69 120q-10 51 -10 178t10 177q15 81 68 119q61 44 186 44q126 0 187 -43q53 -38 69 -119q10 -51 10 -177zM512 334q0 94 -6 137.5t-23 69.5q-18 28 -52 40t-96 12q-66 0 -101 -14
q-31 -13 -47 -39q-16 -25 -22 -68t-6 -139q0 -94 6 -137.5t23 -69.5q17 -28 51.5 -40t96.5 -12q65 0 100 14q30 12 47 38t23 69.5t6 138.5z" />
    <glyph glyph-name="Pi" unicode="&#x3a0;" horiz-adv-x="657" 
d="M573 0h-88v587h-312v-587h-89v667h489v-667z" />
    <glyph glyph-name="Rho" unicode="&#x3a1;" horiz-adv-x="615" 
d="M573 477q0 -89 -34 -134q-30 -39 -92 -51q-42 -9 -136 -9h-138v-283h-89v667h227q94 0 135 -8q63 -12 93 -50q34 -44 34 -132zM485 475q0 76 -45 99q-26 13 -92 13h-39h-136v-224h136h39q66 0 92 13q45 23 45 99z" />
    <glyph glyph-name="Sigma" unicode="&#x3a3;" horiz-adv-x="610" 
d="M549 0h-488v78l225 263l-225 248v78h488v-79h-376l224 -247l-223 -261h375v-80z" />
    <glyph glyph-name="Tau" unicode="&#x3a4;" horiz-adv-x="541" 
d="M523 588h-208v-588h-89v588h-208v79h505v-79z" />
    <glyph glyph-name="Upsilon" unicode="&#x3a5;" horiz-adv-x="568" 
d="M566 667l-237 -376v-291h-89v291l-238 376h102l182 -295l180 295h100z" />
    <glyph glyph-name="Phi" unicode="&#x3a6;" horiz-adv-x="747" 
d="M684 333q0 -106 -28 -164q-27 -57 -87 -82q-54 -22 -152 -25v-76h-87v76q-98 3 -151 25q-61 25 -88 82q-28 58 -28 164q0 105 26 163q27 57 86 82q54 23 155 26v77h87v-77q101 -3 155 -26q59 -25 86 -82q26 -58 26 -163zM595 333q0 63 -8.5 97.5t-28.5 54.5
q-37 37 -141 37v-378q104 0 141 37q20 20 28.5 54.5t8.5 97.5zM330 144v378q-104 0 -141 -37q-20 -20 -28.5 -54.5t-8.5 -97.5t8.5 -98t28.5 -54q37 -37 141 -37z" />
    <glyph glyph-name="Chi" unicode="&#x3a7;" horiz-adv-x="590" 
d="M566 0h-101l-171 273l-170 -273h-100l219 340l-213 327h101l165 -262l164 262h101l-214 -327z" />
    <glyph glyph-name="Psi" unicode="&#x3a8;" horiz-adv-x="803" 
d="M731 482q0 -128 -18 -194q-22 -80 -81 -117q-63 -41 -186 -42v-129h-89v129q-130 2 -197 51q-57 40 -76 120q-12 51 -12 155v212h89v-174q0 -112 5 -151q8 -52 31 -80q45 -52 160 -52v457h89v-457q116 0 159 52q26 31 33 98q4 37 4 133v174h89v-185z" />
    <glyph glyph-name="uni03A9" unicode="&#x3a9;" horiz-adv-x="674" 
d="M601 334q0 -118 -10 -163q-13 -63 -53 -92h63v-79h-231v75q44 3 71 15t43 36q17 25 22 62q6 43 6 146q0 94 -6 137.5t-23 69.5q-18 28 -52 40t-96 12q-66 0 -101 -14q-31 -13 -47 -39q-17 -26 -22.5 -68t-5.5 -138q0 -101 5.5 -141t23.5 -67q16 -24 41 -36q27 -12 72 -15
v-75h-230v79h63q-45 32 -57 109q-6 40 -6 146q0 127 10 177q15 81 68 119q61 44 186 44q126 0 187 -43q53 -38 69 -120q10 -50 10 -177z" />
    <glyph glyph-name="Iotadieresis" unicode="&#x3aa;" horiz-adv-x="257" 
d="M173 0h-89v667h89v-667zM286 814q0 -50 -49 -50q-50 0 -50 50q0 49 50 49q49 0 49 -49zM71 814q0 -50 -50 -50q-49 0 -49 50q0 49 49 49q50 0 50 -49z" />
    <glyph glyph-name="Upsilondieresis" unicode="&#x3ab;" horiz-adv-x="568" 
d="M566 667l-237 -376v-291h-89v291l-238 376h102l182 -295l180 295h100zM442 814q0 -49 -50 -49q-48 0 -48 49q0 25 11.5 36.5t36.5 11.5q50 0 50 -48zM227 814q0 -49 -50 -49q-48 0 -48 49q0 25 11.5 36.5t36.5 11.5q50 0 50 -48z" />
    <glyph glyph-name="alphatonos" unicode="&#x3ac;" horiz-adv-x="587" 
d="M256 492q92 0 134 -41q22 -22 45 -80l21 113h84l-50 -241l51 -243h-85l-22 113q-25 -63 -44 -81q-41 -40 -134 -40q-136 0 -177 83q-16 34 -21 88q-3 29 -3 77q0 82 10 124q14 62 54 92q48 36 137 36zM366 352q-17 39 -44 52q-22 10 -62 10q-78 0 -102 -50
q-17 -35 -17 -122q0 -54 5.5 -84.5t17.5 -49.5q26 -39 96 -39q44 0 67.5 14t38.5 49q20 45 36 110q-16 66 -36 110zM327 540h-79v177h79v-177z" />
    <glyph glyph-name="epsilontonos" unicode="&#x3ad;" horiz-adv-x="526" 
d="M476 141q0 -89 -71 -124q-48 -25 -134 -25q-118 0 -167 34t-49 113q0 47 12 71q15 30 51 43q-30 14 -43.5 39t-13.5 65q0 79 58 110q48 25 152 25q100 0 150 -33q55 -37 55 -116h-80q0 76 -125 76q-77 0 -105 -20q-22 -16 -22 -49q0 -42 33 -54q24 -10 88 -10h44v-73h-44
q-85 0 -107 -15q-20 -14 -20 -57q0 -45 35 -61q30 -14 98 -14q59 0 89 15q36 18 36 60h80zM305 540h-79v177h79v-177z" />
    <glyph glyph-name="etatonos" unicode="&#x3ae;" horiz-adv-x="548" 
d="M146 429q21 30 61 46.5t93 16.5q122 0 161 -66q22 -38 22 -121v-40v-456h-85v446v43q0 38 -4 57.5t-15 32.5q-22 25 -87 25q-96 0 -120 -65q-7 -20 -9.5 -43.5t-2.5 -81.5v-223h-85v358q0 32 -10.5 42.5t-42.5 10.5v73q6 1 13 1q47 0 71 -10q32 -13 40 -46zM317 540h-79
v177h79v-177z" />
    <glyph glyph-name="iotatonos" unicode="&#x3af;" horiz-adv-x="226" 
d="M201 0h-23q-74 0 -98 29q-20 24 -20 84v371h85v-367q0 -27 8 -35q9 -9 35 -9h13v-73zM141 540h-79v177h79v-177z" />
    <glyph glyph-name="upsilondieresistonos" unicode="&#x3b0;" horiz-adv-x="534" 
d="M267 72q82 0 106 42q8 15 10.5 40.5t2.5 91.5v238h85v-234q0 -100 -8 -136q-9 -43 -39 -73q-49 -49 -157 -49q-109 0 -158 49q-29 29 -37.5 67t-8.5 142v234h85v-238q0 -66 2.5 -91.5t10.5 -40.5q25 -42 106 -42zM307 540h-79v177h79v-177zM441 629q0 -49 -50 -49
q-48 0 -48 49q0 25 11.5 36.5t36.5 11.5q50 0 50 -48zM192 629q0 -49 -50 -49q-48 0 -48 49q0 25 11.5 36.5t36.5 11.5q50 0 50 -48z" />
    <glyph glyph-name="alpha" unicode="&#x3b1;" horiz-adv-x="587" 
d="M256 492q92 0 134 -41q22 -22 45 -80l21 113h84l-50 -241l51 -243h-85l-22 113q-25 -63 -44 -81q-41 -40 -134 -40q-136 0 -177 83q-16 34 -21 88q-3 29 -3 77q0 82 10 124q14 62 54 92q48 36 137 36zM366 352q-17 39 -44 52q-22 10 -62 10q-78 0 -102 -50
q-17 -35 -17 -122q0 -54 5.5 -84.5t17.5 -49.5q26 -39 96 -39q44 0 67.5 14t38.5 49q20 45 36 110q-16 66 -36 110z" />
    <glyph glyph-name="beta" unicode="&#x3b2;" horiz-adv-x="560" 
d="M504 197q0 -120 -65 -168q-49 -37 -143 -37q-100 0 -140 51v-234h-85v689q0 62 8 93q13 52 54 79q50 34 146 34q114 0 163 -45q45 -42 45 -131q0 -64 -15 -98q-17 -39 -57 -56q54 -20 74 -69q15 -39 15 -108zM418 194q0 59 -11 88q-12 29 -41 41t-90 12h-43v73h43
q42 0 65 5.5t37 18.5q24 23 24 87t-27 86t-96 22q-56 0 -83 -15q-23 -14 -31.5 -41t-8.5 -88v-242q0 -54 4.5 -81t16.5 -46q30 -45 112 -45q72 0 101 29q28 29 28 96z" />
    <glyph glyph-name="gamma" unicode="&#x3b3;" horiz-adv-x="500" 
d="M24 485q50 0 77 -19t45 -67l111 -295l141 380h89l-189 -484v-191h-85v191l-145 369q-10 24 -21.5 33t-31.5 9h-8v72q6 2 17 2z" />
    <glyph glyph-name="delta" unicode="&#x3b4;" horiz-adv-x="555" 
d="M278 -8q-120 0 -174 54q-30 30 -41 82q-8 41 -8 115q0 82 12 127q11 42 35 66q27 27 62 39.5t85 12.5q9 0 15 -1l-33 25q-29 21 -40 36q-16 23 -16 55q0 56 40 79q25 15 66 15h96v-71h-87q-33 0 -33 -27q0 -11 14 -25l173 -125q32 -33 45 -85q11 -44 11 -112
q0 -92 -11 -136q-11 -43 -38 -70q-54 -54 -173 -54zM414 242q0 68 -7 98q-9 40 -37 57q-30 18 -92 18q-63 0 -93 -19q-28 -17 -37 -57q-7 -30 -7 -97t7 -97q9 -40 37 -57q30 -19 93 -19t93 19q27 17 36 57q7 29 7 97z" />
    <glyph glyph-name="epsilon" unicode="&#x3b5;" horiz-adv-x="526" 
d="M476 141q0 -89 -71 -124q-48 -25 -134 -25q-118 0 -167 34t-49 113q0 47 12 71q15 30 51 43q-30 14 -43.5 39t-13.5 65q0 79 58 110q48 25 152 25q100 0 150 -33q55 -37 55 -116h-80q0 76 -125 76q-77 0 -105 -20q-22 -16 -22 -49q0 -42 33 -54q24 -10 88 -10h44v-73h-44
q-85 0 -107 -15q-20 -14 -20 -57q0 -45 35 -61q30 -14 98 -14q59 0 89 15q36 18 36 60h80z" />
    <glyph glyph-name="zeta" unicode="&#x3b6;" horiz-adv-x="544" 
d="M309 0h-13q-75 0 -120 12q-58 15 -87 54q-34 45 -34 124q0 131 116 273q75 91 175 163h-233v71h341v-69q-94 -83 -132 -120q-181 -179 -181 -314q0 -76 44 -101q33 -18 116 -18q54 0 80.5 -3.5t45.5 -12.5q47 -23 47 -89q0 -37 -18 -81.5t-47 -79.5h-97q34 35 56 78
q20 39 20 69q0 27 -15.5 35.5t-63.5 8.5z" />
    <glyph glyph-name="eta" unicode="&#x3b7;" horiz-adv-x="548" 
d="M146 429q21 30 61 46.5t93 16.5q122 0 161 -66q22 -38 22 -121v-40v-456h-85v446v43q0 38 -4 57.5t-15 32.5q-22 25 -87 25q-96 0 -120 -65q-7 -20 -9.5 -43.5t-2.5 -81.5v-223h-85v358q0 32 -10.5 42.5t-42.5 10.5v73q6 1 13 1q47 0 71 -10q32 -13 40 -46z" />
    <glyph glyph-name="theta" unicode="&#x3b8;" horiz-adv-x="552" 
d="M497 333q0 -102 -3 -145t-13 -75q-21 -64 -74 -93q-49 -28 -131 -28q-94 0 -146 37q-43 30 -60 87q-9 31 -12 71t-3 146q0 122 5 165q6 56 26 91q49 85 190 85t190 -85q20 -34 25.5 -81t5.5 -175zM411 378q0 107 -13 150q-12 38 -40 53q-28 16 -82 16q-61 0 -90 -20
q-22 -16 -32 -49q-12 -38 -13 -150h270zM411 305h-270q0 -137 15 -175q13 -33 41 -47q28 -15 79 -15t79 14.5t41 47.5q15 38 15 175z" />
    <glyph glyph-name="iota" unicode="&#x3b9;" horiz-adv-x="226" 
d="M201 0h-23q-74 0 -98 29q-20 24 -20 84v371h85v-367q0 -27 8 -35q9 -9 35 -9h13v-73z" />
    <glyph glyph-name="kappa" unicode="&#x3ba;" horiz-adv-x="493" 
d="M492 0h-115l-222 221v-221h-85v484h85v-206l224 206h109l-255 -232z" />
    <glyph glyph-name="lambda" unicode="&#x3bb;" horiz-adv-x="485" 
d="M476 73v-73q-8 -2 -22 -2q-47 0 -72 20.5t-47 76.5l-104 270l-130 -365h-91l180 472l-42 111q-11 26 -21 34.5t-31 8.5h-9v71q6 1 20 1q49 0 75.5 -21t48.5 -79q143 -365 190 -487q8 -21 20 -29.5t35 -8.5z" />
    <glyph glyph-name="uni03BC" unicode="&#x3bc;" horiz-adv-x="548" 
d="M478 0h-79v47q-50 -55 -143 -55q-31 0 -59 7.5t-43 20.5v-211h-84v675h85v-255q0 -71 3 -90q5 -36 26 -51q23 -17 78 -17q95 0 119 65q8 20 10 43t2 82v223h85v-484z" />
    <glyph glyph-name="nu" unicode="&#x3bd;" horiz-adv-x="490" 
d="M477 484l-189 -484h-85l-190 484h91l143 -380l141 380h89z" />
    <glyph glyph-name="xi" unicode="&#x3be;" horiz-adv-x="536" 
d="M443 318h-113q-69 0 -97 -6q-40 -8 -57 -34q-18 -27 -18 -85q0 -55 19 -81q17 -24 56 -32q29 -6 95 -6q52 0 77.5 -3.5t44.5 -12.5q45 -23 45 -88q0 -37 -18 -81.5t-47 -79.5h-97q29 29 52 71q24 44 24 76t-24 39q-15 5 -66 5q-90 0 -136 12q-57 15 -83 54
q-28 42 -28 122q0 70 20 109q22 43 72 60q-75 33 -75 140q0 94 60 129h-69v71h374v-74h-101q-53 0 -82.5 -4.5t-50.5 -16.5q-46 -28 -46 -101q0 -52 19 -77q17 -22 54 -29q23 -4 84 -4h112v-73z" />
    <glyph glyph-name="omicron" unicode="&#x3bf;" horiz-adv-x="555" 
d="M500 242q0 -83 -11 -127q-12 -43 -38 -69q-54 -54 -173 -54q-120 0 -174 54q-30 30 -41 82q-8 41 -8 114q0 83 11 127q12 43 38 69q54 54 174 54q119 0 173 -54q30 -30 41 -82q8 -41 8 -114zM414 242q0 68 -7 98q-9 40 -37 57q-30 18 -92 18q-63 0 -93 -19
q-28 -17 -37 -57q-7 -30 -7 -97t7 -97q9 -40 37 -57q30 -19 93 -19t93 19q27 17 36 57q7 29 7 97z" />
    <glyph glyph-name="pi" unicode="&#x3c0;" horiz-adv-x="654" 
d="M567 407h-56v-290q0 -29 7.5 -36.5t35.5 -7.5h12v-73h-33q-58 0 -82 23q-25 24 -25 80v304h-209v-407h-85v407h-56v77h491v-77z" />
    <glyph glyph-name="rho" unicode="&#x3c1;" horiz-adv-x="557" 
d="M502 241q0 -77 -11 -120q-15 -61 -56 -92q-48 -37 -136 -37q-97 0 -144 54v-237h-85v423q0 91 8 130q10 48 39 76q54 54 169 54t168 -53q28 -28 38 -69.5t10 -128.5zM417 242q0 66 -5 92q-8 40 -34 59q-30 21 -92 21t-91 -20q-27 -17 -35 -58q-5 -26 -5 -94
q0 -107 36 -142q30 -30 107 -30q70 0 94.5 35.5t24.5 136.5z" />
    <glyph glyph-name="uni03C2" unicode="&#x3c2;" horiz-adv-x="524" 
d="M474 -30q0 -37 -18 -81.5t-47 -79.5h-97q34 35 56 78q20 39 20 69q0 27 -15.5 35.5t-63.5 8.5h-16q-70 0 -108 9q-49 11 -79 41q-28 28 -39.5 72t-11.5 124q0 82 13 127q17 58 61 87q51 32 144 32q200 0 200 -149h-81q-1 48 -44 63q-25 9 -74 9q-60 0 -89 -18
q-27 -17 -37 -56q-7 -30 -7 -95q0 -75 12 -109q13 -36 44.5 -49t102.5 -13q54 0 80.5 -3.5t46.5 -12.5q47 -23 47 -89z" />
    <glyph glyph-name="sigma" unicode="&#x3c3;" horiz-adv-x="555" 
d="M500 238q0 -82 -12 -124q-11 -43 -38 -69q-28 -28 -69.5 -40.5t-102.5 -12.5q-120 0 -174 54q-30 30 -41 80q-8 40 -8 112q0 81 11 124q12 42 38 68q33 32 79.5 43t146.5 11h204v-73h-84q28 -18 39 -55.5t11 -117.5zM414 239q0 65 -7 94q-9 39 -37 56q-30 18 -92 18
t-93 -19q-28 -17 -37 -56q-7 -29 -7 -93q0 -66 7 -95q9 -39 37 -56q31 -19 93 -19t93 19q27 17 36 57q7 28 7 94z" />
    <glyph glyph-name="tau" unicode="&#x3c4;" horiz-adv-x="451" 
d="M261 411v-294q0 -27 8 -35q9 -9 35 -9h13v-73h-23q-74 0 -98 29q-20 24 -20 84v298h-163v73h425v-73h-177z" />
    <glyph glyph-name="upsilon" unicode="&#x3c5;" horiz-adv-x="536" 
d="M268 72q82 0 106 42q8 15 10.5 40.5t2.5 91.5v238h85v-234q0 -100 -8 -136q-9 -43 -39 -73q-49 -49 -157 -49q-109 0 -158 49q-29 29 -37.5 67t-8.5 142v234h85v-238q0 -66 2.5 -91.5t10.5 -40.5q25 -42 106 -42z" />
    <glyph glyph-name="phi" unicode="&#x3c6;" horiz-adv-x="681" 
d="M243 410q-60 -8 -82 -46q-21 -36 -21 -119q0 -60 8.5 -91t30.5 -48q35 -29 119 -29v415h38q93 0 138 -9q60 -13 97 -47q30 -28 42.5 -71.5t12.5 -118.5q0 -94 -24 -146t-78 -75q-50 -22 -141 -25v-191h-85v191q-91 3 -141 24q-54 23 -78 75q-24 53 -24 148q0 79 15 125
q13 40 42 67q47 44 131 50v-79zM541 247q0 53 -7.5 83.5t-25.5 49.5q-35 35 -125 35v-338q90 0 125 35q18 19 25.5 50t7.5 85z" />
    <glyph glyph-name="chi" unicode="&#x3c7;" horiz-adv-x="506" 
d="M388 484h92l-176 -328l116 -220q22 -41 31 -48q11 -9 37 -9v-73h-30q-38 0 -61 18.5t-50 70.5l-96 185l-142 -271h-93l186 346l-116 218q-11 21 -22.5 29.5t-27.5 8.5h-9v73h21q36 0 58.5 -11t38.5 -37l109 -207z" />
    <glyph glyph-name="psi" unicode="&#x3c8;" horiz-adv-x="685" 
d="M622 251q0 -81 -10 -117q-10 -40 -40 -70q-58 -58 -187 -64v-191h-85v191q-129 6 -187 64q-30 30 -40 67.5t-10 119.5v233h85v-214q0 -77 8 -109q10 -42 41 -61q33 -20 103 -23v407h85v-407q92 4 124 41q16 19 22 50.5t6 101.5v214h85v-233z" />
    <glyph glyph-name="omega" unicode="&#x3c9;" horiz-adv-x="710" 
d="M245 -8q-124 0 -166 98q-24 56 -24 161q0 74 16 121q15 42 45 71q47 46 147 50v-79q-71 -7 -97 -44q-25 -36 -25 -119q0 -94 21 -133q25 -48 88 -48q38 0 50 19.5t12 83.5v110h85v-110q0 -62 12 -81q13 -22 52 -22q70 0 94 61q14 38 14 120q0 94 -33 129q-26 27 -89 34
v79q100 -4 147 -50q32 -31 46.5 -76.5t14.5 -115.5q0 -122 -34 -181q-46 -78 -156 -78q-79 0 -110 46q-31 -46 -110 -46z" />
    <glyph glyph-name="iotadieresis" unicode="&#x3ca;" horiz-adv-x="225" 
d="M209 0h-23q-74 0 -98 29q-20 24 -20 84v371h85v-367q0 -27 8 -35q9 -9 35 -9h13v-73zM269 619q0 -49 -50 -49q-48 0 -48 49q0 25 11.5 36.5t36.5 11.5q50 0 50 -48zM54 619q0 -49 -50 -49q-48 0 -48 49q0 25 11.5 36.5t36.5 11.5q50 0 50 -48z" />
    <glyph glyph-name="upsilondieresis" unicode="&#x3cb;" horiz-adv-x="534" 
d="M267 72q82 0 106 42q8 15 10.5 40.5t2.5 91.5v238h85v-234q0 -100 -8 -136q-9 -43 -39 -73q-49 -49 -157 -49q-109 0 -158 49q-29 29 -37.5 67t-8.5 142v234h85v-238q0 -66 2.5 -91.5t10.5 -40.5q25 -42 106 -42zM422 619q0 -49 -50 -49q-48 0 -48 49q0 25 11.5 36.5
t36.5 11.5q50 0 50 -48zM207 619q0 -49 -50 -49q-48 0 -48 49q0 25 11.5 36.5t36.5 11.5q50 0 50 -48z" />
    <glyph glyph-name="omicrontonos" unicode="&#x3cc;" horiz-adv-x="555" 
d="M500 242q0 -83 -11 -127q-12 -43 -38 -69q-54 -54 -173 -54q-120 0 -174 54q-30 30 -41 82q-8 41 -8 114q0 83 11 127q12 43 38 69q54 54 174 54q119 0 173 -54q30 -30 41 -82q8 -41 8 -114zM414 242q0 68 -7 98q-9 40 -37 57q-30 18 -92 18q-63 0 -93 -19
q-28 -17 -37 -57q-7 -30 -7 -97t7 -97q9 -40 37 -57q30 -19 93 -19t93 19q27 17 36 57q7 29 7 97zM317 540h-79v177h79v-177z" />
    <glyph glyph-name="upsilontonos" unicode="&#x3cd;" horiz-adv-x="534" 
d="M267 72q82 0 106 42q8 15 10.5 40.5t2.5 91.5v238h85v-234q0 -100 -8 -136q-9 -43 -39 -73q-49 -49 -157 -49q-109 0 -158 49q-29 29 -37.5 67t-8.5 142v234h85v-238q0 -66 2.5 -91.5t10.5 -40.5q25 -42 106 -42zM305 520h-79v197h79v-197z" />
    <glyph glyph-name="omegatonos" unicode="&#x3ce;" horiz-adv-x="710" 
d="M245 -8q-124 0 -166 98q-24 56 -24 161q0 74 16 121q15 42 45 71q47 46 147 50v-79q-71 -7 -97 -44q-25 -36 -25 -119q0 -94 21 -133q25 -48 88 -48q38 0 50 19.5t12 83.5v110h85v-110q0 -62 12 -81q13 -22 52 -22q70 0 94 61q14 38 14 120q0 94 -33 129q-26 27 -89 34
v79q100 -4 147 -50q32 -31 46.5 -76.5t14.5 -115.5q0 -122 -34 -181q-46 -78 -156 -78q-79 0 -110 46q-31 -46 -110 -46zM396 540h-79v177h79v-177z" />
    <glyph glyph-name="uni0400" unicode="&#x400;" horiz-adv-x="593" 
d="M522 0h-438v667h438v-80h-349v-205h339v-80h-339v-222h349v-80zM401 736h-96l-133 126h96z" />
    <glyph glyph-name="afii10023" unicode="&#x401;" horiz-adv-x="593" 
d="M522 0h-438v667h438v-80h-349v-205h339v-80h-339v-222h349v-80zM469 814q0 -49 -50 -49q-48 0 -48 49q0 25 11.5 36.5t36.5 11.5q50 0 50 -48zM254 814q0 -49 -50 -49q-48 0 -48 49q0 25 11.5 36.5t36.5 11.5q50 0 50 -48z" />
    <glyph glyph-name="afii10051" unicode="&#x402;" horiz-adv-x="721" 
d="M650 150q0 -140 -12 -194q-12 -56 -48 -92q-54 -54 -194 -54v82q94 0 128 34q21 21 29 68q9 50 9 156q0 68 -6 97q-9 42 -35 60q-30 21 -91 21q-75 0 -140 -30v-298h-89v588h-177v79h474v-79h-208v-207q63 27 146 27q109 0 163 -54q28 -28 39.5 -73.5t11.5 -130.5z" />
    <glyph glyph-name="afii10052" unicode="&#x403;" horiz-adv-x="522" 
d="M84 667h428v-80h-339v-587h-89v667zM422 862l-133 -126h-96l133 126h96z" />
    <glyph glyph-name="afii10053" unicode="&#x404;" horiz-adv-x="647" 
d="M584 179q0 -109 -71 -153q-56 -34 -170 -34q-128 0 -190 44q-54 39 -71 120q-10 52 -10 178t11 177q16 81 70 119q63 44 191 44q130 0 186 -46q54 -44 54 -141h-86q0 41 -13 63q-15 23 -49.5 33t-100.5 10q-76 0 -113 -21q-36 -20 -49 -68q-11 -39 -12 -123h251v-76h-251
q1 -95 10 -135q12 -52 48 -74q37 -22 116 -22q102 0 135 25q28 22 28 80h86z" />
    <glyph glyph-name="afii10054" unicode="&#x405;" horiz-adv-x="652" 
d="M588 203q0 -116 -74 -167q-65 -44 -191 -44q-140 0 -200 45q-59 45 -59 142h88q0 -41 15 -63q16 -23 52.5 -33t105.5 -10q106 0 143 34q30 27 30 91q0 69 -42 87q-13 6 -28.5 8t-64.5 4l-139 5q-76 8 -113 42q-47 42 -47 134q0 116 71 160q59 36 186 36q140 0 201 -45
q59 -45 59 -142h-86q0 71 -54 92q-35 14 -122 14q-108 0 -140 -28q-26 -23 -26 -86q0 -66 44 -83q13 -6 28 -8t63 -4l139 -6q76 -8 114 -41q47 -42 47 -134z" />
    <glyph glyph-name="afii10055" unicode="&#x406;" horiz-adv-x="257" 
d="M173 0h-89v667h89v-667z" />
    <glyph glyph-name="afii10056" unicode="&#x407;" horiz-adv-x="257" 
d="M173 0h-89v667h89v-667zM285 814q0 -49 -50 -49q-48 0 -48 49q0 25 11.5 36.5t36.5 11.5q50 0 50 -48zM70 814q0 -49 -50 -49q-48 0 -48 49q0 25 11.5 36.5t36.5 11.5q50 0 50 -48z" />
    <glyph glyph-name="afii10057" unicode="&#x408;" horiz-adv-x="537" 
d="M459 213q0 -61 -4 -85q-13 -81 -81 -113q-48 -23 -127 -23q-113 0 -163 45t-50 142h85q0 -67 36 -89q27 -17 92 -17q58 0 85 15q25 13 33 45q5 22 5 78v456h89v-454z" />
    <glyph glyph-name="afii10058" unicode="&#x409;" horiz-adv-x="1001" 
d="M959 194q0 -89 -34 -134q-30 -39 -92 -51q-42 -9 -136 -9h-230v588h-171l-99 -435q-10 -47 -22.5 -73.5t-33.5 -47.5q-40 -40 -135 -40v81q39 0 62 17q30 20 44 87l111 490h333v-286h141q96 0 135 -7q63 -12 93 -49q34 -43 34 -131zM871 192q0 74 -45 97q-26 13 -92 13
h-39h-139v-222h139h39q66 0 92 13q45 23 45 99z" />
    <glyph glyph-name="afii10059" unicode="&#x40a;" horiz-adv-x="1025" 
d="M983 194q0 -89 -34 -134q-30 -39 -92 -51q-42 -9 -136 -9h-236v302h-312v-302h-89v667h89v-285h312v285h88v-286h148q96 0 135 -7q63 -12 93 -49q34 -43 34 -131zM895 192q0 74 -45 97q-26 13 -92 13h-39h-146v-222h146h39q66 0 92 13q45 23 45 99z" />
    <glyph glyph-name="afii10060" unicode="&#x40b;" horiz-adv-x="725" 
d="M648 0h-89v155q0 57 -5 85q-7 38 -27 58q-29 29 -96 29q-78 0 -141 -29v-298h-89v588h-177v79h474v-79h-208v-207q63 27 146 27q107 0 161 -54q36 -36 46 -102q5 -34 5 -110v-142z" />
    <glyph glyph-name="afii10061" unicode="&#x40c;" horiz-adv-x="607" 
d="M602 0h-132l-297 285v-285h-89v667h88v-288l307 288h121l-361 -332zM477 862l-133 -126h-96l133 126h96z" />
    <glyph glyph-name="uni040D" unicode="&#x40d;" horiz-adv-x="655" 
d="M571 0h-83v529l-310 -529h-94v667h83v-526l311 526h93v-667zM431 736h-96l-133 126h96z" />
    <glyph glyph-name="afii10062" unicode="&#x40e;" horiz-adv-x="580" 
d="M577 667l-349 -667h-99l115 219l-235 448h101l184 -354l184 354h99zM435 862q0 -76 -36 -103q-31 -25 -107 -25q-86 0 -116 33q-27 28 -27 95h63q0 -42 16 -55.5t64 -13.5q49 0 64 14q16 14 16 55h63z" />
    <glyph glyph-name="afii10145" unicode="&#x40f;" horiz-adv-x="657" 
d="M573 0h-202v-117h-86v117h-201v667h89v-587h311v587h89v-667z" />
    <glyph glyph-name="afii10017" unicode="&#x410;" horiz-adv-x="628" 
d="M616 0h-97l-68 184h-279l-67 -184h-93l258 667h89zM423 261l-111 299l-111 -299h222z" />
    <glyph glyph-name="afii10018" unicode="&#x411;" horiz-adv-x="635" 
d="M576 194q0 -89 -34 -134q-30 -39 -92 -51q-42 -9 -136 -9h-230v667h432v-79h-343v-207h141q96 0 135 -7q63 -12 93 -49q34 -43 34 -131zM488 192q0 74 -45 97q-26 13 -92 13h-39h-139v-222h139h39q66 0 92 13q45 23 45 99z" />
    <glyph glyph-name="afii10019" unicode="&#x412;" horiz-adv-x="651" 
d="M579 192q0 -138 -92 -175q-27 -10 -58.5 -13.5t-107.5 -3.5h-237v667h231h40q72 0 109 -8q53 -12 79 -45q31 -40 31 -115q0 -126 -67 -155q38 -17 55 -52.5t17 -99.5zM486 485q0 52 -20 75q-18 20 -59 25q-20 2 -99 2h-136v-205h143h51q38 0 58.5 4t33.5 15q27 22 28 84z
M491 190q0 57 -19 82q-18 22 -59 27q-20 3 -100 3h-141v-222h141h47q42 0 64 4.5t37 15.5q30 24 30 90z" />
    <glyph glyph-name="afii10020" unicode="&#x413;" horiz-adv-x="522" 
d="M84 667h428v-80h-339v-587h-89v667z" />
    <glyph glyph-name="afii10021" unicode="&#x414;" horiz-adv-x="660" 
d="M619 -117h-86v119h-441v-119h-86v197q51 1 75 28q18 21 29 67l118 492h327v-587h64v-197zM467 80v508h-167l-100 -416q-18 -71 -46 -92h313z" />
    <glyph glyph-name="afii10022" unicode="&#x415;" horiz-adv-x="593" 
d="M522 0h-438v667h438v-80h-349v-205h339v-80h-339v-222h349v-80z" />
    <glyph glyph-name="afii10024" unicode="&#x416;" horiz-adv-x="860" 
d="M855 0h-120l-260 294v-294h-89v294l-263 -294h-118l311 340l-311 327h114l267 -283v283h88v-283l268 283h111l-312 -325z" />
    <glyph glyph-name="afii10025" unicode="&#x417;" horiz-adv-x="655" 
d="M575 186q0 -111 -75 -157q-62 -37 -186 -37q-133 0 -191 42q-60 44 -60 145h86q0 -67 44 -88q35 -17 122 -17q102 0 138 26q35 26 35 89q0 51 -12 74q-13 24 -47 33t-111 9h-78v76h78q95 0 129 24q33 24 33 85q0 43 -11 62q-13 23 -47.5 32t-107.5 9q-99 0 -133 -24
q-32 -23 -32 -82h-86q0 115 81 158q56 29 170 29q145 0 203 -45q51 -41 51 -130q0 -59 -19 -94q-22 -39 -71 -58q55 -16 76 -51t21 -110z" />
    <glyph glyph-name="afii10026" unicode="&#x418;" horiz-adv-x="655" 
d="M571 0h-83v529l-310 -529h-94v667h83v-526l311 526h93v-667z" />
    <glyph glyph-name="afii10027" unicode="&#x419;" horiz-adv-x="655" 
d="M571 0h-83v529l-310 -529h-94v667h83v-526l311 526h93v-667zM470 865q0 -76 -36 -103q-31 -25 -107 -25q-86 0 -116 33q-27 28 -27 95h63q0 -42 16 -55.5t64 -13.5q49 0 64 14q16 14 16 55h63z" />
    <glyph glyph-name="afii10028" unicode="&#x41a;" horiz-adv-x="607" 
d="M602 0h-132l-297 285v-285h-89v667h88v-288l307 288h121l-361 -332z" />
    <glyph glyph-name="afii10029" unicode="&#x41b;" horiz-adv-x="639" 
d="M112 177l111 490h332v-667h-88v588h-171l-99 -435q-10 -47 -22.5 -73.5t-33.5 -47.5q-40 -40 -135 -40v81q39 0 62 17q30 20 44 87z" />
    <glyph glyph-name="afii10030" unicode="&#x41c;" horiz-adv-x="824" 
d="M740 0h-85v533l-201 -533h-85l-201 533v-533h-84v667h115l214 -556l212 556h115v-667z" />
    <glyph glyph-name="afii10031" unicode="&#x41d;" horiz-adv-x="657" 
d="M573 0h-88v302h-312v-302h-89v667h89v-285h312v285h88v-667z" />
    <glyph glyph-name="afii10032" unicode="&#x41e;" horiz-adv-x="674" 
d="M601 335q0 -127 -11 -181q-17 -82 -70 -119q-61 -43 -184 -43q-125 0 -186 44q-53 38 -69 120q-10 51 -10 178t10 177q15 81 68 119q61 44 186 44q126 0 187 -43q53 -38 69 -119q10 -51 10 -177zM512 334q0 94 -6 137.5t-23 69.5q-18 28 -52 40t-96 12q-66 0 -101 -14
q-31 -13 -47 -39q-16 -25 -22 -68t-6 -139q0 -94 6 -137.5t23 -69.5q17 -28 51.5 -40t96.5 -12q65 0 100 14q30 12 47 38t23 69.5t6 138.5z" />
    <glyph glyph-name="afii10033" unicode="&#x41f;" horiz-adv-x="657" 
d="M573 0h-89v588h-311v-588h-89v667h489v-667z" />
    <glyph glyph-name="afii10034" unicode="&#x420;" horiz-adv-x="615" 
d="M573 477q0 -89 -34 -134q-30 -39 -92 -51q-42 -9 -136 -9h-138v-283h-89v667h227q94 0 135 -8q63 -12 93 -50q34 -44 34 -132zM485 475q0 76 -45 99q-26 13 -92 13h-39h-136v-224h136h39q66 0 92 13q45 23 45 99z" />
    <glyph glyph-name="afii10035" unicode="&#x421;" horiz-adv-x="647" 
d="M584 179q0 -109 -71 -153q-56 -34 -170 -34q-128 0 -190 44q-54 39 -71 120q-10 52 -10 178t11 177q16 81 70 119q63 44 191 44q130 0 186 -46q54 -44 54 -141h-86q0 41 -13 63q-15 23 -49.5 33t-100.5 10q-83 0 -120 -25q-35 -24 -46 -83q-8 -42 -8 -152t8 -152
q11 -59 46 -82q37 -25 120 -25q102 0 135 25q28 22 28 80h86z" />
    <glyph glyph-name="afii10036" unicode="&#x422;" horiz-adv-x="541" 
d="M523 588h-208v-588h-89v588h-208v79h505v-79z" />
    <glyph glyph-name="afii10037" unicode="&#x423;" horiz-adv-x="580" 
d="M577 667l-349 -667h-99l115 219l-235 448h101l184 -354l184 354h99z" />
    <glyph glyph-name="afii10038" unicode="&#x424;" horiz-adv-x="786" 
d="M730 336q0 -97 -21 -152q-19 -47 -57 -75q-36 -27 -95 -38q-47 -10 -120 -12v-59h-88v59q-83 3 -133 15q-50 11 -82 35q-43 33 -61 90q-17 52 -17 137q0 98 21 153q19 47 57 75q36 27 95 39q46 9 120 10v54h88v-54q85 -2 135 -13q49 -12 80 -36q44 -32 62 -90
q16 -53 16 -138zM641 338q0 66 -10 102t-34 56q-19 16 -55.5 23.5t-104.5 10.5v-388q67 3 104 11.5t56 24.5q24 20 34 56.5t10 103.5zM349 142v388q-63 -3 -97.5 -9t-53.5 -19q-29 -18 -41 -55.5t-12 -110.5q0 -78 14 -115q12 -32 39 -49q38 -25 151 -30z" />
    <glyph glyph-name="afii10039" unicode="&#x425;" horiz-adv-x="590" 
d="M566 0h-101l-171 273l-170 -273h-100l219 340l-213 327h101l165 -262l164 262h101l-214 -327z" />
    <glyph glyph-name="afii10040" unicode="&#x426;" horiz-adv-x="666" 
d="M637 -117h-86v117h-467v667h89v-587h311v587h89v-587h64v-197z" />
    <glyph glyph-name="afii10041" unicode="&#x427;" horiz-adv-x="629" 
d="M545 0h-89v278q-74 -27 -159 -27q-116 0 -170 54q-32 32 -43 75t-11 137v150h89v-165q0 -64 6.5 -91t25.5 -46q33 -33 108 -33q85 0 154 29v306h89v-667z" />
    <glyph glyph-name="afii10042" unicode="&#x428;" horiz-adv-x="885" 
d="M801 0h-717v667h89v-587h225v587h89v-587h225v587h89v-667z" />
    <glyph glyph-name="afii10043" unicode="&#x429;" horiz-adv-x="895" 
d="M865 -117h-86v117h-695v667h89v-587h225v587h89v-587h225v587h89v-587h64v-197z" />
    <glyph glyph-name="afii10044" unicode="&#x42a;" horiz-adv-x="710" 
d="M668 194q0 -89 -34 -134q-30 -39 -92 -51q-42 -9 -136 -9h-230v588h-178v79h267v-286h141q96 0 135 -7q63 -12 93 -49q34 -43 34 -131zM580 192q0 74 -45 97q-26 13 -92 13h-39h-139v-222h139h39q66 0 92 13q45 23 45 99z" />
    <glyph glyph-name="afii10045" unicode="&#x42b;" horiz-adv-x="843" 
d="M759 0h-89v667h89v-667zM576 194q0 -89 -34 -134q-30 -39 -92 -51q-42 -9 -136 -9h-230v667h89v-286h141q96 0 135 -7q63 -12 93 -49q34 -43 34 -131zM488 192q0 74 -45 97q-26 13 -92 13h-39h-139v-222h139h39q66 0 92 13q45 23 45 99z" />
    <glyph glyph-name="afii10046" unicode="&#x42c;" horiz-adv-x="618" 
d="M576 194q0 -89 -34 -134q-30 -39 -92 -51q-42 -9 -136 -9h-230v667h89v-286h141q96 0 135 -7q63 -12 93 -49q34 -43 34 -131zM488 192q0 74 -45 97q-26 13 -92 13h-39h-139v-222h139h39q66 0 92 13q45 23 45 99z" />
    <glyph glyph-name="afii10047" unicode="&#x42d;" horiz-adv-x="647" 
d="M63 179h86q0 -42 13 -63q15 -23 49 -32.5t101 -9.5q79 0 116 22q36 22 48 74q9 40 10 135h-251v76h251q-1 84 -12 123q-13 48 -49 68q-37 21 -113 21q-102 0 -135 -26q-28 -23 -28 -80h-86q0 110 70 153q56 34 170 34q128 0 191 -44q54 -38 70 -119q11 -51 11 -177
t-10 -178q-17 -81 -71 -120q-62 -44 -190 -44q-130 0 -187 46q-54 44 -54 141z" />
    <glyph glyph-name="afii10048" unicode="&#x42e;" horiz-adv-x="914" 
d="M842 335q0 -127 -11 -181q-17 -82 -70 -119q-61 -43 -184 -43q-120 0 -181 40q-53 35 -71 109q-13 52 -13 161h-139v-302h-89v667h89v-285h139q1 103 15 154q20 69 73 101q60 37 176 37q126 0 187 -43q53 -38 69 -119q10 -51 10 -177zM753 334q0 94 -6 137.5t-23 69.5
q-18 28 -52 40t-96 12q-66 0 -101 -14q-31 -13 -47 -39q-16 -25 -22 -68t-6 -139q0 -94 6 -137.5t23 -69.5q17 -28 51.5 -40t96.5 -12q65 0 100 14q30 12 47 38t23 69.5t6 138.5z" />
    <glyph glyph-name="afii10049" unicode="&#x42f;" horiz-adv-x="653" 
d="M154 0h-106l195 291q-163 10 -163 183q0 89 35 133q30 39 93 52q42 8 135 8h226v-667h-89v284h-65q-37 0 -51 -2.5t-25 -11.5q-16 -12 -58 -77zM167 473q0 -52 15 -75q14 -22 48 -29q23 -4 86 -4h164v222h-146q-67 0 -90 -4q-39 -6 -57 -28q-20 -26 -20 -82z" />
    <glyph glyph-name="afii10065" unicode="&#x430;" horiz-adv-x="539" 
d="M474 0h-78v47q-22 -26 -64 -40.5t-97 -14.5q-100 0 -145 39q-43 37 -43 112q0 99 68 132q44 22 132 22h143q0 51 -4 68q-7 27 -31 39q-27 13 -87 13q-62 0 -88 -12q-37 -17 -37 -60h-82q0 88 70 122q51 25 144 25q141 0 181 -75q11 -22 14.5 -45.5t3.5 -74.5v-297z
M391 225h-148q-64 0 -87 -17q-23 -18 -23 -64q0 -45 27 -62q25 -17 83 -17q66 0 99 18q31 16 41 53q8 28 8 89z" />
    <glyph glyph-name="afii10066" unicode="&#x431;" horiz-adv-x="555" 
d="M500 243q0 -84 -11 -128q-11 -43 -37 -69q-53 -54 -168 -54t-167 52q-28 28 -38.5 70t-10.5 126v193q0 55 9 89q10 44 37 71q25 25 57.5 37t87.5 18q64 6 82 12q35 12 35 38h84q0 -60 -31 -89q-27 -30 -138 -37q-82 -3 -112 -33q-19 -22 -23 -67q-2 -10 -2 -32
q25 27 60.5 39.5t91.5 12.5q128 0 168 -81q26 -51 26 -168zM414 242q0 55 -5.5 86t-18.5 49q-26 35 -94 35q-57 0 -86 -14q-31 -14 -44 -50.5t-13 -107.5q0 -68 7 -97q8 -39 35 -55q28 -18 88 -18t89 18q27 17 36 57q6 29 6 97z" />
    <glyph glyph-name="afii10067" unicode="&#x432;" horiz-adv-x="538" 
d="M483 142q0 -75 -36 -107q-31 -26 -83 -32q-21 -3 -87 -3h-207v484h202q68 0 94.5 -2t47.5 -10q64 -25 64 -112q0 -89 -51 -109q29 -13 42.5 -39t13.5 -70zM394 347q0 38 -19 51t-72 13h-148v-126h128q45 0 57 1q28 3 38 12q16 14 16 49zM396 143q0 39 -16 53
q-13 11 -32 14t-76 3h-117v-140h127q65 0 85 8q29 13 29 62z" />
    <glyph glyph-name="afii10068" unicode="&#x433;" horiz-adv-x="434" 
d="M429 411h-274v-411h-85v484h359v-73z" />
    <glyph glyph-name="afii10069" unicode="&#x434;" horiz-adv-x="549" 
d="M517 -117h-80v120h-350v-120h-81v193q67 0 87 83l79 325h291v-408h54v-193zM378 76v335h-139l-62 -254q-9 -39 -18 -56.5t-23 -24.5h242z" />
    <glyph glyph-name="afii10070" unicode="&#x435;" horiz-adv-x="538" 
d="M483 213h-342q0 -55 9 -83q11 -34 39 -49q29 -15 86 -15t86 14q36 18 36 61h80q0 -149 -204 -149q-140 0 -186 76q-32 52 -32 170q0 85 14 133q18 60 62 89q49 32 139 32q97 0 145 -36q43 -31 58 -97q10 -47 10 -146zM399 286q0 50 -9 76q-11 30 -38 43q-28 14 -82 14
q-79 0 -107 -39q-21 -29 -21 -94h257z" />
    <glyph glyph-name="afii10072" unicode="&#x436;" horiz-adv-x="703" 
d="M697 0h-107l-196 219v-219h-85v219l-196 -219h-107l230 249l-228 235h104l197 -206v206h85v-206l198 206h101l-227 -233z" />
    <glyph glyph-name="afii10073" unicode="&#x437;" horiz-adv-x="534" 
d="M481 139q0 -84 -69 -119q-54 -28 -157 -28q-100 0 -150 33q-55 37 -55 116h81q0 -48 45 -63q26 -9 82 -9q79 0 108 16q28 17 28 56q0 32 -10 46q-10 15 -36 20.5t-86 5.5h-52v73h52q74 0 100 14q27 14 27 52q0 39 -31 51q-28 12 -101 12q-64 0 -91 -13q-35 -17 -35 -59
h-81q0 88 70 124q49 25 135 25q121 0 172 -34q48 -32 48 -100q0 -39 -12 -63q-14 -27 -45 -42q35 -13 49 -38.5t14 -75.5z" />
    <glyph glyph-name="afii10074" unicode="&#x438;" horiz-adv-x="550" 
d="M479 0h-81v363l-236 -363h-91v484h81v-363l237 363h90v-484z" />
    <glyph glyph-name="afii10075" unicode="&#x439;" horiz-adv-x="550" 
d="M479 0h-81v363l-236 -363h-91v484h81v-363l237 363h90v-484zM418 667q0 -76 -36 -103q-31 -25 -107 -25q-86 0 -116 33q-27 28 -27 95h63q0 -42 16 -55.5t64 -13.5q49 0 64 14q16 14 16 55h63z" />
    <glyph glyph-name="afii10076" unicode="&#x43a;" horiz-adv-x="497" 
d="M496 0h-116l-225 230v-230h-85v484h85v-191l224 191h117l-262 -222z" />
    <glyph glyph-name="afii10077" unicode="&#x43b;" horiz-adv-x="535" 
d="M464 0h-85v411h-142l-71 -302q-17 -62 -53 -89q-38 -29 -107 -29v72q36 0 53.5 17t30.5 65l79 339h295v-484z" />
    <glyph glyph-name="afii10078" unicode="&#x43c;" horiz-adv-x="670" 
d="M600 0h-82v348l-145 -348h-78l-144 348v-348h-81v484h107l159 -380l162 380h102v-484z" />
    <glyph glyph-name="afii10079" unicode="&#x43d;" horiz-adv-x="548" 
d="M478 0h-85v213h-238v-213h-85v484h85v-198h238v198h85v-484z" />
    <glyph glyph-name="afii10080" unicode="&#x43e;" horiz-adv-x="555" 
d="M500 242q0 -83 -11 -127q-12 -43 -38 -69q-54 -54 -173 -54q-120 0 -174 54q-30 30 -41 82q-8 41 -8 114q0 83 11 127q12 43 38 69q54 54 174 54q119 0 173 -54q30 -30 41 -82q8 -41 8 -114zM414 242q0 68 -7 98q-9 40 -37 57q-30 18 -92 18q-63 0 -93 -19
q-28 -17 -37 -57q-7 -30 -7 -97t7 -97q9 -40 37 -57q30 -19 93 -19t93 19q27 17 36 57q7 29 7 97z" />
    <glyph glyph-name="afii10081" unicode="&#x43f;" horiz-adv-x="548" 
d="M478 0h-85v411h-238v-411h-85v484h408v-484z" />
    <glyph glyph-name="afii10082" unicode="&#x440;" horiz-adv-x="557" 
d="M502 241q0 -77 -11 -120q-15 -61 -56 -92q-48 -37 -136 -37q-97 0 -144 54v-237h-85v675h79v-48q52 56 156 56q85 0 130 -32q41 -29 55 -87q12 -46 12 -132zM417 242q0 54 -5.5 85.5t-19.5 49.5q-25 35 -93 35q-57 0 -86 -14q-32 -14 -45 -51q-13 -36 -13 -105t13 -105
q13 -38 45 -53q29 -14 86 -14q76 0 100 47q18 36 18 125z" />
    <glyph glyph-name="afii10083" unicode="&#x441;" horiz-adv-x="523" 
d="M473 141q0 -149 -201 -149q-142 0 -188 81q-19 34 -25 89q-4 32 -4 81q0 83 13 129q16 59 61 87q50 33 143 33q201 0 201 -149h-81q0 47 -44 63q-25 9 -74 9q-60 0 -89 -18q-28 -17 -37 -57q-7 -30 -7 -97t7 -98q9 -40 37 -57q29 -19 89 -19q57 0 83 13q35 17 35 59h81z
" />
    <glyph glyph-name="afii10084" unicode="&#x442;" horiz-adv-x="451" 
d="M438 411h-170v-411h-85v411h-170v73h425v-73z" />
    <glyph glyph-name="afii10085" unicode="&#x443;" horiz-adv-x="474" 
d="M460 484l-255 -675h-87l76 197l-180 478h89l135 -379l133 379h89z" />
    <glyph glyph-name="afii10086" unicode="&#x444;" horiz-adv-x="827" 
d="M772 242q0 -81 -12 -127q-16 -60 -55 -90q-44 -33 -124 -33q-39 0 -72.5 12.5t-52.5 34.5v-230h-85v230q-18 -22 -51.5 -34.5t-77.5 -12.5q-124 0 -162 80q-25 51 -25 169q0 84 11 130q14 59 52 88q44 33 124 33q91 0 129 -47v253h85v-253q49 47 130 47q122 0 161 -80
q25 -52 25 -170zM686 242q0 99 -21 134q-23 39 -84 39q-48 0 -74 -15q-28 -16 -41 -53q-12 -37 -12 -105q0 -105 33 -141q28 -31 94 -31q60 0 82.5 36.5t22.5 135.5zM373 242q0 106 -33 142q-27 31 -94 31q-61 0 -83 -36.5t-22 -136.5q0 -99 20 -133q23 -39 85 -39
q48 0 74 15q28 16 41 53q12 37 12 104z" />
    <glyph glyph-name="afii10087" unicode="&#x445;" horiz-adv-x="495" 
d="M480 0h-102l-131 188l-134 -188h-98l182 247l-175 237h102l124 -178l128 178h99l-177 -236z" />
    <glyph glyph-name="afii10088" unicode="&#x446;" horiz-adv-x="562" 
d="M532 -117h-80v117h-382v484h85v-411h238v411h85v-411h54v-190z" />
    <glyph glyph-name="afii10089" unicode="&#x447;" horiz-adv-x="530" 
d="M459 0h-85v192q-54 -23 -134 -23q-100 0 -145 45q-26 26 -35 63t-9 119v88h86v-97q0 -54 6 -77.5t23 -40.5q24 -24 84 -24q77 0 124 23v216h85v-484z" />
    <glyph glyph-name="afii10090" unicode="&#x448;" horiz-adv-x="759" 
d="M689 0h-619v484h85v-411h182v411h85v-411h182v411h85v-484z" />
    <glyph glyph-name="afii10091" unicode="&#x449;" horiz-adv-x="772" 
d="M743 -117h-80v117h-593v484h85v-411h182v411h85v-411h182v411h85v-411h54v-190z" />
    <glyph glyph-name="afii10092" unicode="&#x44a;" horiz-adv-x="558" 
d="M507 144q0 -79 -33 -109q-16 -16 -36 -23t-54 -10q-22 -2 -35 -2h-248v411h-101v73h186v-198h154q56 0 85.5 -7.5t49.5 -27.5q32 -32 32 -107zM418 143q0 34 -10 48q-9 14 -29 18t-74 4h-119v-140h128q37 0 54 2.5t28 9.5q22 14 22 58z" />
    <glyph glyph-name="afii10093" unicode="&#x44b;" horiz-adv-x="714" 
d="M476 144q0 -79 -33 -109q-16 -16 -36 -23t-54 -10q-22 -2 -35 -2h-248v484h85v-198h154q56 0 85.5 -7.5t49.5 -27.5q32 -32 32 -107zM387 143q0 34 -10 48q-9 14 -29 18t-74 4h-119v-140h128q37 0 54 2.5t28 9.5q22 14 22 58zM644 0h-85v484h85v-484z" />
    <glyph glyph-name="afii10094" unicode="&#x44c;" horiz-adv-x="528" 
d="M476 144q0 -79 -33 -109q-16 -16 -36 -23t-54 -10q-22 -2 -35 -2h-248v484h85v-198h154q56 0 85.5 -7.5t49.5 -27.5q32 -32 32 -107zM387 143q0 34 -10 48q-9 14 -29 18t-74 4h-119v-140h128q37 0 54 2.5t28 9.5q22 14 22 58z" />
    <glyph glyph-name="afii10095" unicode="&#x44d;" horiz-adv-x="523" 
d="M50 141h81q0 -47 44 -63q25 -9 74 -9q76 0 103 29.5t30 114.5h-172v73h171q-3 75 -31 102q-29 27 -101 27q-57 0 -83 -13q-35 -17 -35 -59h-81q0 149 201 149q142 0 188 -80q19 -34 25 -88q4 -32 4 -81q0 -84 -13 -129q-16 -60 -61 -89q-50 -33 -143 -33q-201 0 -201 149
z" />
    <glyph glyph-name="afii10096" unicode="&#x44e;" horiz-adv-x="769" 
d="M714 242q0 -83 -11 -127q-12 -43 -38 -69q-54 -54 -173 -54q-120 0 -174 54q-25 25 -36 64t-12 103h-115v-213h-85v484h85v-198h115q2 58 13.5 93.5t34.5 58.5q54 54 174 54q119 0 173 -54q30 -30 41 -82q8 -41 8 -114zM628 242q0 68 -7 98q-9 40 -37 57q-30 18 -92 18
q-63 0 -93 -19q-28 -17 -37 -57q-7 -30 -7 -97t7 -97q9 -40 37 -57q30 -19 93 -19t93 19q27 17 36 57q7 29 7 97z" />
    <glyph glyph-name="afii10097" unicode="&#x44f;" horiz-adv-x="539" 
d="M469 0h-85v204h-39q-38 0 -51.5 -2t-23.5 -10q-8 -6 -15 -15.5t-34 -49.5l-85 -127h-97l141 208q-73 4 -100 45q-19 29 -19 91q0 94 60 123q36 17 123 17h225v-484zM384 277v134h-125q-44 0 -62.5 -2.5t-29.5 -8.5q-22 -13 -22 -58q0 -46 27 -58q17 -7 70 -7h142z" />
    <glyph glyph-name="uni0450" unicode="&#x450;" horiz-adv-x="538" 
d="M483 213h-342q0 -55 9 -83q11 -34 39 -49q29 -15 86 -15t86 14q36 18 36 61h80q0 -149 -204 -149q-140 0 -186 76q-32 52 -32 170q0 85 14 133q18 60 62 89q49 32 139 32q97 0 145 -36q43 -31 58 -97q10 -47 10 -146zM399 286q0 50 -9 76q-11 30 -38 43q-28 14 -82 14
q-79 0 -107 -39q-21 -29 -21 -94h257zM374 541h-96l-133 126h96z" />
    <glyph glyph-name="afii10071" unicode="&#x451;" horiz-adv-x="538" 
d="M483 213h-342q0 -55 9 -83q11 -34 39 -49q29 -15 86 -15t86 14q36 18 36 61h80q0 -149 -204 -149q-140 0 -186 76q-32 52 -32 170q0 85 14 133q18 60 62 89q49 32 139 32q97 0 145 -36q43 -31 58 -97q10 -47 10 -146zM399 286q0 50 -9 76q-11 30 -38 43q-28 14 -82 14
q-79 0 -107 -39q-21 -29 -21 -94h257zM427 619q0 -49 -50 -49q-48 0 -48 49q0 25 11.5 36.5t36.5 11.5q50 0 50 -48zM212 619q0 -49 -50 -49q-48 0 -48 49q0 25 11.5 36.5t36.5 11.5q50 0 50 -48z" />
    <glyph glyph-name="afii10099" unicode="&#x452;" horiz-adv-x="573" 
d="M423 100v155v43q0 38 -4 57.5t-15 32.5q-22 25 -87 25q-96 0 -120 -65q-7 -20 -9.5 -43.5t-2.5 -81.5v-223h-85v547h-78v69h78v81h85v-81h159v-69h-159v-106q51 51 140 51q122 0 161 -66q22 -38 22 -121v-40v-162q0 -109 -13 -161q-16 -68 -63 -99q-52 -34 -155 -34v79
q65 0 97 22q30 20 40 68q9 39 9 122z" />
    <glyph glyph-name="afii10100" unicode="&#x453;" horiz-adv-x="433" 
d="M429 411h-274v-411h-85v484h359v-73zM367 667l-133 -126h-96l133 126h96z" />
    <glyph glyph-name="afii10101" unicode="&#x454;" horiz-adv-x="523" 
d="M473 141q0 -149 -201 -149q-142 0 -188 81q-19 34 -25 89q-4 32 -4 81q0 83 13 129q16 59 61 87q50 33 143 33q201 0 201 -149h-81q0 47 -44 63q-25 9 -74 9q-81 0 -109 -36q-21 -27 -23 -93h171v-73h-172q2 -54 11 -81q11 -33 38 -48q29 -15 84 -15q57 0 83 13
q35 17 35 59h81z" />
    <glyph glyph-name="afii10102" unicode="&#x455;" horiz-adv-x="513" 
d="M463 343h-79q0 44 -28 60q-25 15 -82 16h-12q-71 0 -97 -19q-20 -15 -21 -46q-1 -52 32 -63q12 -5 37 -6l34 -1l85 -4q69 -7 98 -37q31 -33 31 -104q0 -87 -65 -121q-51 -27 -149 -26q-107 1 -153 37q-44 35 -44 112h79q0 -44 28 -61q26 -15 89 -15q78 0 103 16
q27 17 27 64q0 23 -7 35t-24 18q-16 5 -80 8q-78 3 -101 7q-51 8 -76 36q-29 32 -29 99q1 87 66 120q49 25 148 24q101 -1 146 -37q44 -36 44 -112z" />
    <glyph glyph-name="afii10103" unicode="&#x456;" horiz-adv-x="225" 
d="M162 624q0 -23 -13.5 -36.5t-36.5 -13.5t-36.5 13.5t-13.5 36.5t13.5 36.5t36.5 13.5t36.5 -13.5t13.5 -36.5zM155 0h-85v484h85v-484z" />
    <glyph glyph-name="afii10104" unicode="&#x457;" horiz-adv-x="225" 
d="M156 0h-85v484h85v-484zM269 619q0 -49 -50 -49q-48 0 -48 49q0 25 11.5 36.5t36.5 11.5q50 0 50 -48zM54 619q0 -49 -50 -49q-48 0 -48 49q0 25 11.5 36.5t36.5 11.5q50 0 50 -48z" />
    <glyph glyph-name="afii10105" unicode="&#x458;" horiz-adv-x="225" 
d="M-46 -190v72h29q53 0 70 19.5t17 80.5v502h85v-524q0 -99 -64 -132q-35 -18 -106 -18h-31zM162 624q0 -23 -13.5 -36.5t-36.5 -13.5t-36.5 13.5t-13.5 36.5t13.5 36.5t36.5 13.5t36.5 -13.5t13.5 -36.5z" />
    <glyph glyph-name="afii10106" unicode="&#x459;" horiz-adv-x="825" 
d="M784 144q0 -79 -33 -109q-16 -16 -36 -23t-54 -10q-22 -2 -35 -2h-248v411h-141l-71 -302q-17 -62 -53 -89q-38 -29 -107 -29v72q36 0 53.5 17t30.5 65l79 339h294v-198h154q56 0 85.5 -7.5t49.5 -27.5q32 -32 32 -107zM695 143q0 34 -10 48q-9 14 -29 18t-74 4h-119
v-140h128q37 0 54 2.5t28 9.5q22 14 22 58z" />
    <glyph glyph-name="afii10107" unicode="&#x45a;" horiz-adv-x="841" 
d="M800 144q0 -79 -33 -109q-16 -16 -36 -23t-54 -10q-22 -2 -35 -2h-248v213h-238v-213h-85v484h85v-198h238v198h85v-198h154q56 0 85.5 -7.5t49.5 -27.5q32 -32 32 -107zM711 143q0 34 -10 48q-9 14 -29 18t-74 4h-119v-140h128q37 0 54 2.5t28 9.5q22 14 22 58z" />
    <glyph glyph-name="afii10108" unicode="&#x45b;" horiz-adv-x="573" 
d="M22 547v69h78v81h85v-81h159v-69h-159v-106q51 51 140 51q122 0 161 -66q22 -38 22 -121v-40v-265h-85v255v43q0 38 -4 57.5t-15 32.5q-22 25 -87 25q-96 0 -120 -65q-7 -20 -9.5 -43.5t-2.5 -81.5v-223h-85v547h-78z" />
    <glyph glyph-name="afii10109" unicode="&#x45c;" horiz-adv-x="497" 
d="M496 0h-116l-225 230v-230h-85v484h85v-191l224 191h117l-262 -222zM425 667l-133 -126h-96l133 126h96z" />
    <glyph glyph-name="uni045D" unicode="&#x45d;" horiz-adv-x="550" 
d="M479 0h-81v363l-236 -363h-91v484h81v-363l237 363h90v-484zM379 541h-96l-133 126h96z" />
    <glyph glyph-name="afii10110" unicode="&#x45e;" horiz-adv-x="472" 
d="M460 484l-255 -675h-87l76 197l-180 478h89l135 -379l133 379h89zM378 667q0 -76 -36 -103q-31 -25 -107 -25q-86 0 -116 33q-27 28 -27 95h63q0 -42 16 -55.5t64 -13.5q49 0 64 14q16 14 16 55h63z" />
    <glyph glyph-name="afii10193" unicode="&#x45f;" horiz-adv-x="550" 
d="M478 0h-163v-117h-80v117h-165v484h85v-411h238v411h85v-484z" />
    <glyph glyph-name="uni0462" unicode="&#x462;" horiz-adv-x="710" 
d="M668 194q0 -89 -34 -134q-30 -39 -92 -51q-42 -9 -136 -9h-230v486h-178v80h178v101h89v-101h208v-80h-208v-105h141q96 0 135 -7q63 -12 93 -49q34 -43 34 -131zM580 192q0 74 -45 97q-26 13 -92 13h-39h-139v-222h139h39q66 0 92 13q45 23 45 99z" />
    <glyph glyph-name="uni0463" unicode="&#x463;" horiz-adv-x="558" 
d="M507 144q0 -79 -33 -109q-16 -16 -36 -23t-54 -10q-22 -2 -35 -2h-248v411h-101v73h101v183h85v-183h214v-73h-214v-125h154q56 0 85.5 -7.5t49.5 -27.5q32 -32 32 -107zM418 143q0 34 -10 48q-9 14 -29 18t-74 4h-119v-140h128q37 0 54 2.5t28 9.5q22 14 22 58z" />
    <glyph glyph-name="uni0472" unicode="&#x472;" horiz-adv-x="674" 
d="M601 335q0 -127 -11 -181q-17 -82 -70 -119q-61 -43 -184 -43q-125 0 -186 44q-53 38 -69 120q-10 51 -10 178t10 177q15 81 68 119q61 44 186 44q126 0 187 -43q53 -38 69 -119q10 -51 10 -177zM483 126q16 24 22 62.5t7 113.5h-353q1 -75 7 -113.5t22 -62.5
q17 -28 51.5 -40t96.5 -12q65 0 100 14q30 12 47 38zM187 540q-14 -22 -20.5 -56t-7.5 -102h353q-1 66 -7.5 101t-21.5 58q-18 28 -52 40t-96 12q-66 0 -101 -14q-31 -13 -47 -39z" />
    <glyph glyph-name="uni0473" unicode="&#x473;" horiz-adv-x="555" 
d="M500 242q0 -83 -11 -127q-12 -43 -38 -69q-54 -54 -173 -54q-120 0 -174 54q-30 30 -41 82q-8 41 -8 114q0 83 11 127q12 43 38 69q54 54 174 54q119 0 173 -54q30 -30 41 -82q8 -41 8 -114zM278 69q79 0 106.5 29.5t29.5 114.5h-273q1 -54 10 -81q11 -33 39 -47
q30 -16 88 -16zM278 415q-76 0 -105 -27.5t-32 -101.5h272q-3 75 -31 102q-30 27 -104 27z" />
    <glyph glyph-name="uni0474" unicode="&#x474;" horiz-adv-x="613" 
d="M338 0h-86l-248 667h94l199 -548l142 389q24 65 35 88.5t27 40.5q35 37 108 38v-79q-38 0 -59 -34q-9 -16 -30 -72z" />
    <glyph glyph-name="uni0475" unicode="&#x475;" horiz-adv-x="497" 
d="M288 0h-85l-190 484h91l144 -383l102 272q16 44 27 64t24 32q27 24 83 24v-70q-26 -1 -41 -27q-4 -8 -23 -57z" />
    <glyph glyph-name="afii10050" unicode="&#x490;" horiz-adv-x="525" 
d="M512 587h-339v-587h-89v667h345v99h83v-179z" />
    <glyph glyph-name="afii10098" unicode="&#x491;" horiz-adv-x="433" 
d="M428 411h-273v-411h-85v484h278v98h80v-171z" />
    <glyph glyph-name="uni0492" unicode="&#x492;" horiz-adv-x="570" 
d="M172 302v-302h-88v302h-82v80h82v285h428v-80h-340v-205h235v-80h-235z" />
    <glyph glyph-name="uni0493" unicode="&#x493;" horiz-adv-x="433" 
d="M70 286v198h358v-73h-273v-125h203v-73h-203v-213h-85v213h-70v73h70z" />
    <glyph glyph-name="uni049A" unicode="&#x49a;" horiz-adv-x="647" 
d="M515 80h89v-197h-86v117h-48l-297 285v-285h-89v667h88v-288l307 288h121l-361 -332z" />
    <glyph glyph-name="uni049B" unicode="&#x49b;" horiz-adv-x="540" 
d="M423 73h90v-190h-80v117h-53l-225 230v-230h-85v484h85v-191l224 191h117l-262 -222z" />
    <glyph glyph-name="uni04A2" unicode="&#x4a2;" horiz-adv-x="702" 
d="M573 80h83v-197h-86v117h-85v302h-312v-302h-89v667h89v-285h312v285h88v-587z" />
    <glyph glyph-name="uni04A3" unicode="&#x4a3;" horiz-adv-x="582" 
d="M478 73h78v-190h-80v117h-83v213h-238v-213h-85v484h85v-198h238v198h85v-411z" />
    <glyph glyph-name="uni04AE" unicode="&#x4ae;" horiz-adv-x="568" 
d="M566 667l-237 -376v-291h-89v291l-238 376h102l182 -295l180 295h100z" />
    <glyph glyph-name="uni04AF" unicode="&#x4af;" horiz-adv-x="500" 
d="M299 -191h-86v191l-188 484h89l142 -383l142 383h89l-188 -484v-191z" />
    <glyph glyph-name="uni04B0" unicode="&#x4b0;" horiz-adv-x="568" 
d="M240 234v57l-238 376h102l182 -295l180 295h100l-237 -376v-57h157v-79h-157v-155h-89v155h-155v79h155z" />
    <glyph glyph-name="uni04B1" unicode="&#x4b1;" horiz-adv-x="500" 
d="M299 -104v-87h-86v87h-158v72h158v32l-188 484h89l142 -382l142 382h89l-188 -484v-32h161v-72h-161z" />
    <glyph glyph-name="uni04B8" unicode="&#x4b8;" horiz-adv-x="629" 
d="M345 334q60 6 111 27v306h89v-667h-89v278q-53 -19 -111 -25v-149h-89v149q-85 8 -129 52q-32 32 -43 75t-11 137v150h89v-165q0 -64 6.5 -91t25.5 -46q22 -22 62 -29v164h89v-166z" />
    <glyph glyph-name="uni04BA" unicode="&#x4ba;" horiz-adv-x="629" 
d="M84 667h89v-278q74 27 159 27q116 0 170 -54q32 -32 43 -75t11 -137v-150h-89v165q0 64 -6.5 91t-25.5 46q-33 33 -108 33q-85 0 -154 -29v-306h-89v667z" />
    <glyph glyph-name="uni04BB" unicode="&#x4bb;" horiz-adv-x="573" 
d="M100 0v697h85v-256q51 51 140 51q122 0 161 -66q22 -38 22 -121v-40v-265h-85v255v43q0 38 -4 57.5t-15 32.5q-22 25 -87 25q-96 0 -120 -65q-7 -20 -9.5 -43.5t-2.5 -81.5v-223h-85z" />
    <glyph glyph-name="uni04C0" unicode="&#x4c0;" horiz-adv-x="257" 
d="M173 0h-89v667h89v-667z" />
    <glyph glyph-name="uni04CF" unicode="&#x4cf;" horiz-adv-x="257" 
d="M173 0h-89v667h89v-667z" />
    <glyph glyph-name="uni04D8" unicode="&#x4d8;" horiz-adv-x="674" 
d="M79 493q13 97 72 138q61 43 185 43q126 0 187 -43q53 -38 69 -119q10 -51 10 -177q0 -127 -11 -181q-17 -82 -70 -119q-61 -43 -184 -43q-125 0 -186 44q-53 38 -69 120q-10 51 -10 178v31l441 -1v18q-1 66 -7.5 101t-21.5 58q-18 28 -52 40t-96 12q-66 0 -101 -14
q-31 -13 -47 -39q-16 -25 -22 -66zM160 284q2 -66 8 -100.5t21 -57.5q17 -28 51.5 -40t96.5 -12q65 0 100 14q30 12 47 38q15 23 21 58t8 100h-353z" />
    <glyph glyph-name="afii10846" unicode="&#x4d9;" horiz-adv-x="538" 
d="M55 271h342q0 55 -9 83q-11 34 -39 49q-29 15 -86 15t-86 -14q-36 -18 -36 -61h-80q0 149 204 149q140 0 186 -76q32 -52 32 -170q0 -85 -14 -133q-18 -60 -62 -89q-49 -32 -139 -32q-97 0 -145 36q-43 31 -58 97q-10 47 -10 146zM139 198q0 -50 9 -76q11 -30 38 -43
q28 -14 82 -14q79 0 107 39q21 29 21 94h-257z" />
    <glyph glyph-name="uni04E8" unicode="&#x4e8;" horiz-adv-x="674" 
d="M601 335q0 -127 -11 -181q-17 -82 -70 -119q-61 -43 -184 -43q-125 0 -186 44q-53 38 -69 120q-10 51 -10 178t10 177q15 81 68 119q61 44 186 44q126 0 187 -43q53 -38 69 -119q10 -51 10 -177zM512 380q-2 68 -8 103t-21 58q-18 28 -52 40t-96 12q-66 0 -101 -14
q-31 -13 -47 -39q-15 -23 -21 -57.5t-7 -102.5h353zM159 303q1 -77 7 -115t22 -62q17 -28 51.5 -40t96.5 -12q65 0 100 14q30 12 47 38q16 24 22 62t7 115h-353z" />
    <glyph glyph-name="uni04E9" unicode="&#x4e9;" horiz-adv-x="555" 
d="M500 242q0 -83 -11 -127q-12 -43 -38 -69q-54 -54 -173 -54q-120 0 -174 54q-30 30 -41 82q-8 41 -8 114q0 83 11 127q12 43 38 69q54 54 174 54q119 0 173 -54q30 -30 41 -82q8 -41 8 -114zM413 200h-271q1 -48 12 -73q11 -30 39 -44q30 -14 85 -14q76 0 104.5 27.5
t30.5 103.5zM141 279h273q-2 51 -12 77q-11 31 -39 45q-29 14 -85 14q-77 0 -105.5 -28.5t-31.5 -107.5z" />
    <glyph glyph-name="Wgrave" unicode="&#x1e80;" horiz-adv-x="884" 
d="M848 667l-163 -667h-94l-149 545l-148 -545h-98l-160 667h90l125 -534l145 534h94l144 -534l127 534h87zM536 736h-96l-133 126h96z" />
    <glyph glyph-name="wgrave" unicode="&#x1e81;" horiz-adv-x="713" 
d="M693 484l-138 -484h-89l-108 378l-108 -378h-91l-139 484h89l100 -377l105 377h87l106 -377l100 377h86zM461 541h-96l-133 126h96z" />
    <glyph glyph-name="Wacute" unicode="&#x1e82;" horiz-adv-x="884" 
d="M848 667l-163 -667h-94l-149 545l-148 -545h-98l-160 667h90l125 -534l145 534h94l144 -534l127 534h87zM602 862l-133 -126h-96l133 126h96z" />
    <glyph glyph-name="wacute" unicode="&#x1e83;" horiz-adv-x="713" 
d="M693 484l-138 -484h-89l-108 378l-108 -378h-91l-139 484h89l100 -377l105 377h87l106 -377l100 377h86zM499 667l-133 -126h-96l133 126h96z" />
    <glyph glyph-name="Wdieresis" unicode="&#x1e84;" horiz-adv-x="884" 
d="M848 667l-163 -667h-94l-149 545l-148 -545h-98l-160 667h90l125 -534l145 534h94l144 -534l127 534h87zM599 815q0 -49 -50 -49q-48 0 -48 49q0 25 11.5 36.5t36.5 11.5q50 0 50 -48zM384 815q0 -49 -50 -49q-48 0 -48 49q0 25 11.5 36.5t36.5 11.5q50 0 50 -48z" />
    <glyph glyph-name="wdieresis" unicode="&#x1e85;" horiz-adv-x="713" 
d="M693 484l-138 -484h-89l-108 378l-108 -378h-91l-139 484h89l100 -377l105 377h87l106 -377l100 377h86zM515 619q0 -49 -50 -49q-48 0 -48 49q0 25 11.5 36.5t36.5 11.5q50 0 50 -48zM300 619q0 -49 -50 -49q-48 0 -48 49q0 25 11.5 36.5t36.5 11.5q50 0 50 -48z" />
    <glyph glyph-name="Ygrave" unicode="&#x1ef2;" horiz-adv-x="568" 
d="M566 667l-237 -376v-291h-89v291l-238 376h102l182 -295l180 295h100zM390 736h-96l-133 126h96z" />
    <glyph glyph-name="ygrave" unicode="&#x1ef3;" horiz-adv-x="543" 
d="M386 34v14q-51 -56 -148 -56q-132 0 -165 82q-10 25 -13 51t-3 95v264h86v-255v-43q0 -38 4 -57.5t15 -32.5q22 -25 87 -25q95 0 119 65q8 20 10 42.5t2 82.5v223h85v-456q0 -68 -9 -102q-13 -56 -54 -85q-50 -35 -144 -35q-92 0 -143 35q-53 36 -53 109h84
q2 -70 109 -70q89 0 115 49q16 30 16 105zM388 541h-96l-133 126h96z" />
    <glyph glyph-name="uni2011" unicode="&#x2011;" horiz-adv-x="505" 
d="M431 204h-357v77h357v-77z" />
    <glyph glyph-name="figuredash" unicode="&#x2012;" horiz-adv-x="582" 
d="M544 204h-506v77h506v-77z" />
    <glyph glyph-name="endash" unicode="&#x2013;" horiz-adv-x="582" 
d="M544 204h-506v77h506v-77z" />
    <glyph glyph-name="emdash" unicode="&#x2014;" horiz-adv-x="1003" 
d="M904 204h-805v77h805v-77z" />
    <glyph glyph-name="afii00208" unicode="&#x2015;" horiz-adv-x="1003" 
d="M904 204h-805v77h805v-77z" />
    <glyph glyph-name="quoteleft" unicode="&#x2018;" horiz-adv-x="222" 
d="M210 625q-28 -27 -35.5 -34.5t-12.5 -17.5q-9 -18 -9 -57v-93h-79v93q0 46 10 73t36 52l37 35z" />
    <glyph glyph-name="quoteright" unicode="&#x2019;" horiz-adv-x="222" 
d="M148 574q0 -46 -10 -73t-36 -52l-37 -35l-53 51q28 27 35.5 34.5t12.5 17.5q9 18 9 57v93h79v-93z" />
    <glyph glyph-name="quotesinglbase" unicode="&#x201a;" horiz-adv-x="222" 
d="M148 9q0 -46 -10 -73t-36 -52l-37 -35l-53 51q28 27 35.5 34.5t12.5 17.5q9 18 9 57v93h79v-93z" />
    <glyph glyph-name="quotedblleft" unicode="&#x201c;" horiz-adv-x="394" 
d="M382 625q-28 -27 -35.5 -34.5t-12.5 -17.5q-9 -18 -9 -57v-93h-79v93q0 46 10 73t36 52l37 35zM208 626q-39 -37 -47 -52q-8 -17 -8 -57v-94h-79v94q0 49 9 74q9 28 34 51l37 34z" />
    <glyph glyph-name="quotedblright" unicode="&#x201d;" horiz-adv-x="393" 
d="M319 574q0 -49 -9 -74q-9 -27 -34 -51l-37 -35l-53 51q39 36 46 52q8 17 8 57v93h79v-93zM148 574q0 -46 -10 -73t-36 -52l-37 -35l-53 51q28 27 35.5 34.5t12.5 17.5q9 18 9 57v93h79v-93z" />
    <glyph glyph-name="quotedblbase" unicode="&#x201e;" horiz-adv-x="394" 
d="M320 9q0 -49 -9 -74q-9 -27 -34 -51l-37 -35l-54 51q39 37 47 52q8 17 8 57v93h79v-93zM148 9q0 -46 -10 -73t-36 -52l-37 -35l-53 51q28 27 35.5 34.5t12.5 17.5q9 18 9 57v93h79v-93z" />
    <glyph glyph-name="dagger" unicode="&#x2020;" horiz-adv-x="569" 
d="M474 411h-148v-502h-83v502h-148v73h148v183h83v-183h148v-73z" />
    <glyph glyph-name="daggerdbl" unicode="&#x2021;" horiz-adv-x="569" 
d="M474 196h-148v-287h-83v287h-148v73h148v142h-148v73h148v183h83v-183h148v-73h-148v-142h148v-73z" />
    <glyph glyph-name="bullet" unicode="&#x2022;" horiz-adv-x="497" 
d="M356 334q0 -60 -29 -85q-25 -22 -78 -22q-60 0 -86 29q-22 26 -22 78q0 60 30 86q25 22 78 22q60 0 85 -30q22 -25 22 -78z" />
    <glyph glyph-name="ellipsis" unicode="&#x2026;" horiz-adv-x="990" 
d="M880 48q0 -27 -14 -41.5t-40 -14.5q-27 0 -41.5 14.5t-14.5 41.5q0 26 14 40t41 14q55 0 55 -54zM549 48h1q0 -27 -14 -41.5t-40 -14.5q-27 0 -41.5 14.5t-14.5 41.5q0 26 14 40t41 14q54 0 54 -54zM219 48h1q0 -27 -14 -41.5t-40 -14.5q-27 0 -41.5 14.5t-14.5 41.5
q0 26 14 40t41 14q54 0 54 -54z" />
    <glyph glyph-name="perthousand" unicode="&#x2030;" horiz-adv-x="1213" 
d="M66 467v33q0 50 5.5 78.5t18.5 47.5q31 47 114 47q94 0 122 -60q17 -35 17 -113v-33q0 -75 -3 -100q-8 -51 -35 -76q-33 -30 -101 -30q-93 0 -122 60q-16 34 -16 113v33zM279 467q0 98 -8 118q-7 17 -23 24t-44 7q-30 0 -45.5 -8t-21.5 -27q-7 -21 -7 -114q0 -96 8 -118
q7 -17 22 -25q15 -7 44 -7q30 0 46 8.5t22 27.5q7 20 7 114zM534 200v33q0 50 5.5 78.5t18.5 47.5q31 47 114 47q94 0 122 -60q17 -35 17 -113v-33q0 -75 -3 -100q-8 -51 -35 -76q-33 -30 -101 -30q-93 0 -122 60q-16 34 -16 113v33zM747 200q0 98 -8 118q-7 17 -23 24
t-44 7q-30 0 -45.5 -8t-21.5 -27q-7 -21 -7 -114q0 -96 8 -118q7 -17 22 -25q15 -7 44 -7q30 0 46 8.5t22 27.5q7 20 7 114zM869 200v33q0 50 5.5 78.5t18.5 47.5q31 47 114 47q94 0 122 -60q17 -35 17 -113v-33q0 -75 -3 -100q-8 -51 -35 -76q-33 -30 -101 -30
q-93 0 -122 60q-16 34 -16 113v33zM1082 200q0 98 -8 118q-7 17 -23 24t-44 7q-30 0 -45.5 -8t-21.5 -27q-7 -21 -7 -114q0 -96 8 -118q7 -17 22 -25q15 -7 44 -7q30 0 46 8.5t22 27.5q7 20 7 114zM642 667l-338 -667h-68l336 667h70z" />
    <glyph glyph-name="guilsinglleft" unicode="&#x2039;" horiz-adv-x="275" 
d="M236 397l-41 -42q-38 -39 -51 -58q-20 -30 -20 -57q0 -32 29 -68q11 -14 51 -54l31 -31l-55 -52q-71 66 -95 98q-42 55 -42 106q0 56 54 123q24 30 84 88z" />
    <glyph glyph-name="guilsinglright" unicode="&#x203a;" horiz-adv-x="275" 
d="M232 239q0 -56 -53 -120q-21 -26 -84 -84l-55 52l31 31q45 45 57 62q23 31 23 60q0 25 -14.5 48.5t-56.5 66.5l-41 42l55 53q69 -67 95 -103q43 -58 43 -108z" />
    <glyph glyph-name="slash.frac" unicode="&#x2044;" horiz-adv-x="58" 
d="M232 667l-338 -667h-68l336 667h70z" />
    <glyph glyph-name="zerosuperior" unicode="&#x2070;" 
d="M66 467v33q0 50 5.5 78.5t18.5 47.5q31 47 114 47q94 0 122 -60q17 -35 17 -113v-33q0 -75 -3 -100q-8 -51 -35 -76q-33 -30 -101 -30q-93 0 -122 60q-16 34 -16 113v33zM279 467q0 98 -8 118q-7 17 -23 24t-44 7q-30 0 -45.5 -8t-21.5 -27q-7 -21 -7 -114q0 -96 8 -118
q7 -17 22 -25q15 -7 44 -7q30 0 46 8.5t22 27.5q7 20 7 114z" />
    <glyph glyph-name="foursuperior" unicode="&#x2074;" 
d="M349 365h-58v-98h-61v98h-181v47l184 255h58v-249h58v-53zM230 418v155l-110 -155h110z" />
    <glyph glyph-name="fivesuperior" unicode="&#x2075;" 
d="M73 362h62q0 -26 20 -37q17 -8 53 -8q46 0 63 20q15 18 15 57q0 47 -16 64q-17 17 -58 17q-66 0 -70 -42h-61v234h246v-55h-185v-104q25 23 76 23q77 0 106 -38q24 -31 24 -96q0 -78 -41 -110q-33 -26 -99 -26q-69 0 -101 24q-34 24 -34 77z" />
    <glyph glyph-name="sixsuperior" unicode="&#x2076;" 
d="M334 572h-62q-1 24 -15.5 34.5t-46.5 10.5q-56 0 -69 -37q-5 -12 -5.5 -22.5t-1.5 -54.5q32 27 81 27q72 0 101 -35q26 -31 26 -100q0 -73 -37 -105q-32 -29 -96 -29q-81 0 -111 47q-26 42 -26 142q0 104 7 135q17 88 131 88q124 0 124 -101zM279 394q0 48 -17 65
q-15 15 -50 15q-76 0 -76 -77q0 -44 20 -64q18 -16 53 -16q41 0 57 20q13 17 13 57z" />
    <glyph glyph-name="sevensuperior" unicode="&#x2077;" 
d="M347 621l-172 -354h-68l173 344h-200v56h267v-46z" />
    <glyph glyph-name="eightsuperior" unicode="&#x2078;" 
d="M205 500q46 0 60 16q11 12 11 43q0 33 -15.5 46t-55.5 13q-43 0 -59 -16q-12 -13 -12 -43q0 -34 15 -46.5t56 -12.5zM205 316q43 0 60 16q15 15 15 49q0 43 -20 56q-15 10 -55 10q-42 0 -58 -14.5t-16 -51.5q0 -39 20 -53q16 -12 54 -12zM342 380q0 -70 -40 -97
q-32 -22 -97 -22q-74 0 -106 29q-31 29 -31 90q0 75 44 94q-21 10 -30.5 30.5t-9.5 58.5q0 65 37 89q30 21 96 21q75 0 106 -27q28 -26 28 -83q0 -38 -9 -58.5t-31 -30.5q23 -10 33 -32.5t10 -61.5z" />
    <glyph glyph-name="ninesuperior" unicode="&#x2079;" 
d="M76 362h62q1 -24 15.5 -34.5t46.5 -10.5q56 0 69 37q5 12 5.5 22t1.5 54q-31 -26 -81 -26q-72 0 -101 34q-26 31 -26 100q0 73 37 106q32 29 96 29q81 0 111 -47q26 -43 26 -142q0 -103 -7 -135q-17 -88 -131 -88q-124 0 -124 101zM131 539q0 -47 17 -64q15 -15 50 -15
q42 0 60 21q16 19 16 55q0 45 -20 64q-18 16 -53 16q-41 0 -57 -20q-13 -17 -13 -57z" />
    <glyph glyph-name="parenleftsuperior" unicode="&#x207d;" horiz-adv-x="226" 
d="M66 463q0 117 7 164q10 67 43 96q35 31 110 31v-60q-49 0 -69 -22q-20 -20 -24 -73q-3 -29 -3 -136q0 -106 2 -134q5 -53 24 -73q21 -23 70 -23v-60q-75 0 -110 31q-33 29 -43 96q-7 46 -7 163z" />
    <glyph glyph-name="parenrightsuperior" unicode="&#x207e;" horiz-adv-x="226" 
d="M160 463q0 -116 -7 -164q-11 -66 -43 -95q-35 -31 -110 -31v60q49 0 69 22q19 21 24 74q2 27 2 134q0 108 -3 137q-4 52 -23 73q-20 21 -69 21v60q75 0 110 -31q32 -29 43 -96q7 -48 7 -164z" />
    <glyph glyph-name="zeroinferior" unicode="&#x2080;" 
d="M66 200v33q0 50 5.5 78.5t18.5 47.5q31 47 114 47q94 0 122 -60q17 -35 17 -113v-33q0 -75 -3 -100q-8 -51 -35 -76q-33 -30 -101 -30q-93 0 -122 60q-16 34 -16 113v33zM279 200q0 98 -8 118q-7 17 -23 24t-44 7q-30 0 -45.5 -8t-21.5 -27q-7 -21 -7 -114q0 -96 8 -118
q7 -17 22 -25q15 -7 44 -7q30 0 46 8.5t22 27.5q7 20 7 114z" />
    <glyph glyph-name="oneinferior" unicode="&#x2081;" 
d="M241 0h-63v313l-63 -55l-38 42l113 100h51v-400z" />
    <glyph glyph-name="twoinferior" unicode="&#x2082;" 
d="M346 287q0 -59 -28 -83q-10 -7 -19 -11.5t-43 -17.5l-71 -26q-32 -13 -42 -29q-7 -12 -7 -33v-31h209v-56h-272v97q0 66 55 94q20 10 54 20l44 12q35 10 46 23t11 41q0 39 -18 52q-16 11 -56 11q-44 0 -59 -10q-16 -11 -16 -38h-62q0 62 44 86q32 18 92 18q73 0 106 -30
q32 -28 32 -89z" />
    <glyph glyph-name="threeinferior" unicode="&#x2083;" 
d="M349 114q0 -71 -44 -99q-33 -21 -98 -21q-71 0 -104 25q-34 26 -34 82h62q1 -29 17.5 -40t58.5 -11q51 0 66 12q14 13 14 51q0 47 -19 59q-14 10 -59 10h-59v55h59q45 0 59 10q15 11 15 44q0 35 -15 47q-16 12 -59 12t-59.5 -11t-16.5 -40h-61q0 63 43 88q33 19 94 19
q75 0 107 -29q29 -27 29 -84q0 -35 -7 -53.5t-26 -30.5q20 -12 28.5 -33.5t8.5 -61.5z" />
    <glyph glyph-name="fourinferior" unicode="&#x2084;" 
d="M349 98h-58v-98h-61v98h-181v47l184 255h58v-249h58v-53zM230 151v155l-110 -155h110z" />
    <glyph glyph-name="fiveinferior" unicode="&#x2085;" 
d="M73 95h62q0 -26 20 -37q17 -8 53 -8q46 0 63 20q15 18 15 57q0 47 -16 64q-17 17 -58 17q-66 0 -70 -42h-61v234h246v-55h-185v-104q25 23 76 23q77 0 106 -38q24 -31 24 -96q0 -78 -41 -110q-33 -26 -99 -26q-69 0 -101 24q-34 24 -34 77z" />
    <glyph glyph-name="sixinferior" unicode="&#x2086;" 
d="M330 305h-62q-1 24 -15.5 34.5t-46.5 10.5q-56 0 -69 -37q-5 -12 -5.5 -22.5t-1.5 -54.5q32 27 81 27q72 0 101 -35q26 -31 26 -100q0 -73 -37 -105q-32 -29 -96 -29q-81 0 -111 47q-26 42 -26 142q0 103 7 135q17 88 131 88q124 0 124 -101zM275 127q0 48 -17 65
q-15 15 -50 15q-76 0 -76 -77q0 -44 20 -64q18 -16 53 -16q41 0 57 20q13 17 13 57z" />
    <glyph glyph-name="seveninferior" unicode="&#x2087;" 
d="M347 354l-172 -354h-68l173 344h-200v56h267v-46z" />
    <glyph glyph-name="eightinferior" unicode="&#x2088;" 
d="M205 233q46 0 60 16q11 12 11 43q0 33 -15.5 46t-55.5 13q-43 0 -59 -16q-12 -13 -12 -43q0 -34 15 -46.5t56 -12.5zM205 49q43 0 60 16q15 15 15 49q0 43 -20 56q-15 10 -55 10q-42 0 -58 -14.5t-16 -51.5q0 -39 20 -53q16 -12 54 -12zM342 113q0 -70 -40 -97
q-32 -22 -97 -22q-74 0 -106 29q-31 29 -31 90q0 75 44 94q-21 10 -30.5 30.5t-9.5 58.5q0 65 37 89q30 21 96 21q75 0 106 -27q28 -26 28 -83q0 -38 -9 -58.5t-31 -30.5q23 -10 33 -32.5t10 -61.5z" />
    <glyph glyph-name="nineinferior" unicode="&#x2089;" 
d="M76 95h62q1 -24 15.5 -34.5t46.5 -10.5q56 0 69 37q5 12 5.5 22t1.5 54q-31 -26 -81 -26q-72 0 -101 34q-26 31 -26 100q0 73 37 106q32 29 96 29q81 0 111 -47q26 -43 26 -142q0 -104 -7 -135q-17 -88 -131 -88q-124 0 -124 101zM131 272q0 -47 17 -64q15 -15 50 -15
q42 0 60 21q16 19 16 55q0 45 -20 64q-18 16 -53 16q-41 0 -57 -20q-13 -17 -13 -57z" />
    <glyph glyph-name="parenleftinferior" unicode="&#x208d;" horiz-adv-x="226" 
d="M66 196q0 117 7 164q10 67 43 96q35 31 110 31v-60q-49 0 -69 -22q-20 -20 -24 -73q-3 -29 -3 -136q0 -106 2 -134q5 -53 24 -73q21 -23 70 -23v-60q-75 0 -110 31q-33 29 -43 96q-7 46 -7 163z" />
    <glyph glyph-name="parenrightinferior" unicode="&#x208e;" horiz-adv-x="226" 
d="M160 196q0 -116 -7 -164q-11 -66 -43 -95q-35 -31 -110 -31v60q49 0 69 22q19 21 24 74q2 27 2 134q0 108 -3 137q-4 52 -23 73q-20 21 -69 21v60q75 0 110 -31q32 -29 43 -96q7 -48 7 -164z" />
    <glyph glyph-name="franc" unicode="&#x20a3;" horiz-adv-x="956" 
d="M512 587h-340v-205h331v-80h-331v-302h-88v667h428v-80zM946 243h-82q0 43 -22 58q-19 12 -65 12q-77 0 -102 -64q-14 -36 -14 -111v-30v-108h-85v382h80v-47q46 55 137 55q153 0 153 -147z" />
    <glyph glyph-name="lira" unicode="&#x20a4;" horiz-adv-x="578" 
d="M538 0h-485v78h61v128h-61v72h61v57h-61v72h61v51v31q0 48 8 76q9 35 34 59q52 50 167 50q53 0 86 -6t57 -21q63 -37 63 -132h-82q0 46 -24.5 63.5t-89.5 17.5q-61 0 -90 -13q-27 -13 -36 -44q-7 -23 -7 -79v-53h285v-72h-285v-57h285v-72h-285v-128h338v-78z" />
    <glyph glyph-name="peseta" unicode="&#x20a7;" horiz-adv-x="1613" 
d="M573 477q0 -89 -34 -134q-30 -39 -92 -51q-42 -9 -136 -9h-138v-283h-89v667h227q94 0 135 -8q63 -12 93 -50q34 -44 34 -132zM485 475q0 76 -45 99q-26 13 -92 13h-39h-136v-224h136h39q66 0 92 13q45 23 45 99zM1056 141q0 -149 -171 -149q-167 0 -167 151v268h-80v73
h80v183h85v-183h214v-73h-214v-268q0 -45 23 -63q19 -15 63 -15q49 0 70 21q18 18 18 55h79zM1539 343h-79q0 44 -28 60q-25 15 -82 16h-12q-71 0 -97 -19q-20 -15 -21 -46q-1 -52 32 -63q12 -5 37 -6l34 -1l85 -4q69 -7 98 -37q31 -33 31 -104q0 -87 -65 -121
q-51 -27 -149 -26q-107 1 -153 37q-44 35 -44 112h79q0 -44 28 -61q26 -15 89 -15q78 0 103 16q27 17 27 64q0 23 -7 35t-24 18q-16 5 -80 8q-78 3 -101 7q-51 8 -76 36q-29 32 -29 99q1 87 66 120q49 25 148 24q101 -1 146 -37q44 -36 44 -112z" />
    <glyph glyph-name="Euro" unicode="&#x20ac;" horiz-adv-x="582" 
d="M532 152q0 -96 -69 -133q-47 -26 -136 -26q-132 0 -182 72q-37 53 -39 169h-59v72h59v57h-60v72h60q2 83 20 131q21 54 67 80q49 28 134 28q101 0 150 -35q55 -39 55 -124h-86q0 45 -26.5 63t-92.5 18q-89 0 -116 -48q-17 -32 -19 -113h179v-72h-180v-57h179v-72h-178
q1 -60 9 -88q10 -38 37 -55q30 -19 88 -19q66 0 91 16q29 18 29 64h86z" />
    <glyph glyph-name="afii61289" unicode="&#x2113;" horiz-adv-x="500" 
d="M249 269q-23 -117 -28 -149.5t-5 -58.5q0 -25 18 -25q26 0 51 54q8 18 19 18q13 0 13 -15q0 -23 -26 -60q-37 -47 -76 -47q-34 0 -51 26q-16 24 -16 62q0 36 10 127q-41 -38 -49 -38q-5 0 -9.5 5t-4.5 11q0 10 20 27q23 20 50 52q44 230 96 331q45 89 101 89q31 0 48 -25
q15 -22 15 -56q0 -40 -17 -92t-47 -100q-36 -58 -112 -136zM260 333q125 140 125 260q0 20 -6.5 32t-16.5 12q-11 0 -22.5 -12.5t-18.5 -31.5q-31 -86 -61 -260z" />
    <glyph glyph-name="afii61352" unicode="&#x2116;" horiz-adv-x="1044" 
d="M990 318q0 -57 -8 -87t-28 -50q-39 -38 -126 -38q-89 0 -128 38q-20 20 -27.5 50t-7.5 87q0 56 7.5 86t27.5 50q39 38 128 38q87 0 126 -38q20 -20 28 -50t8 -86zM980 0h-305v70h305v-70zM917 318q0 37 -4 55t-14 28q-19 19 -71 19q-63 0 -79 -27q-11 -19 -11 -75
q0 -36 3.5 -53.5t12.5 -27.5q18 -21 74 -21q55 0 72 19.5t17 82.5zM571 0h-94l-307 520v-520h-86v667h93l308 -517v517h86v-667z" />
    <glyph glyph-name="trademark" unicode="&#x2122;" horiz-adv-x="846" 
d="M791 233h-61v321l-118 -321h-64l-115 320v-320h-61v434h80l130 -350l131 350h78v-434zM338 610h-127v-377h-65v377h-128v57h320v-57z" />
    <glyph glyph-name="Omega" unicode="&#x2126;" horiz-adv-x="674" 
d="M601 334q0 -118 -10 -163q-13 -63 -53 -92h63v-79h-231v75q44 3 71 15t43 36q17 25 22 62q6 43 6 146q0 94 -6 137.5t-23 69.5q-18 28 -52 40t-96 12q-66 0 -101 -14q-31 -13 -47 -39q-17 -26 -22.5 -68t-5.5 -138q0 -101 5.5 -141t23.5 -67q16 -24 41 -36q27 -12 72 -15
v-75h-230v79h63q-45 32 -57 109q-6 40 -6 146q0 127 10 177q15 81 68 119q61 44 186 44q126 0 187 -43q53 -38 69 -120q10 -50 10 -177z" />
    <glyph glyph-name="estimated" unicode="&#x212e;" horiz-adv-x="798" 
d="M769 311h-599q-6 0 -6 -4v-181q0 -10 9 -21q47 -49 109 -75q56 -23 118 -23q74 0 141 34q56 28 97 76h54q-55 -64 -137 -99q-74 -31 -156 -31q-100 0 -187 45q-83 45 -132 120q-51 78 -51 168t51 167q49 76 132 120q87 45 187 45t187 -45q83 -44 132 -120q51 -77 51 -167
v-9zM634 335v181q0 12 -10 22q-47 47 -108 72q-56 22 -116 22q-70 0 -133 -30q-52 -25 -93 -67q-10 -10 -10 -23v-177q0 -5 6 -5h459q5 0 5 5z" />
    <glyph glyph-name="onethird" unicode="&#x2153;" horiz-adv-x="878" 
d="M817 114q0 -71 -44 -99q-33 -21 -98 -21q-71 0 -104 25q-34 26 -34 82h62q1 -29 17.5 -40t58.5 -11q51 0 66 12q14 13 14 51q0 47 -19 59q-14 10 -59 10h-59v55h59q45 0 59 10q15 11 15 44q0 35 -15 47q-16 12 -59 12t-59.5 -11t-16.5 -40h-61q0 63 43 88q33 19 94 19
q75 0 107 -29q29 -27 29 -84q0 -35 -7 -53.5t-26 -30.5q20 -12 28.5 -33.5t8.5 -61.5zM642 667l-338 -667h-68l336 667h70zM241 267h-63v313l-63 -55l-38 42l113 100h51v-400z" />
    <glyph glyph-name="twothirds" unicode="&#x2154;" horiz-adv-x="878" 
d="M346 554q0 -59 -28 -83q-10 -7 -19 -11.5t-43 -17.5l-71 -26q-32 -13 -42 -29q-7 -12 -7 -33v-31h209v-56h-272v97q0 66 55 94q20 10 54 20l44 12q35 10 46 23t11 41q0 39 -18 52q-16 11 -56 11q-44 0 -59 -10q-16 -11 -16 -38h-62q0 62 44 86q32 18 92 18q73 0 106 -30
q32 -28 32 -89zM817 114q0 -71 -44 -99q-33 -21 -98 -21q-71 0 -104 25q-34 26 -34 82h62q1 -29 17.5 -40t58.5 -11q51 0 66 12q14 13 14 51q0 47 -19 59q-14 10 -59 10h-59v55h59q45 0 59 10q15 11 15 44q0 35 -15 47q-16 12 -59 12t-59.5 -11t-16.5 -40h-61q0 63 43 88
q33 19 94 19q75 0 107 -29q29 -27 29 -84q0 -35 -7 -53.5t-26 -30.5q20 -12 28.5 -33.5t8.5 -61.5zM642 667l-338 -667h-68l336 667h70z" />
    <glyph glyph-name="oneeighth" unicode="&#x215b;" horiz-adv-x="878" 
d="M673 233q46 0 60 16q11 12 11 43q0 33 -15.5 46t-55.5 13q-43 0 -59 -16q-12 -13 -12 -43q0 -34 15 -46.5t56 -12.5zM673 49q43 0 60 16q15 15 15 49q0 43 -20 56q-15 10 -55 10q-42 0 -58 -14.5t-16 -51.5q0 -39 20 -53q16 -12 54 -12zM810 113q0 -70 -40 -97
q-32 -22 -97 -22q-74 0 -106 29q-31 29 -31 90q0 75 44 94q-21 10 -30.5 30.5t-9.5 58.5q0 65 37 89q30 21 96 21q75 0 106 -27q28 -26 28 -83q0 -38 -9 -58.5t-31 -30.5q23 -10 33 -32.5t10 -61.5zM642 667l-338 -667h-68l336 667h70zM241 267h-63v313l-63 -55l-38 42
l113 100h51v-400z" />
    <glyph glyph-name="threeeighths" unicode="&#x215c;" horiz-adv-x="878" 
d="M673 233q46 0 60 16q11 12 11 43q0 33 -15.5 46t-55.5 13q-43 0 -59 -16q-12 -13 -12 -43q0 -34 15 -46.5t56 -12.5zM673 49q43 0 60 16q15 15 15 49q0 43 -20 56q-15 10 -55 10q-42 0 -58 -14.5t-16 -51.5q0 -39 20 -53q16 -12 54 -12zM810 113q0 -70 -40 -97
q-32 -22 -97 -22q-74 0 -106 29q-31 29 -31 90q0 75 44 94q-21 10 -30.5 30.5t-9.5 58.5q0 65 37 89q30 21 96 21q75 0 106 -27q28 -26 28 -83q0 -38 -9 -58.5t-31 -30.5q23 -10 33 -32.5t10 -61.5zM349 381q0 -71 -44 -99q-33 -21 -98 -21q-71 0 -104 25q-34 26 -34 82h62
q1 -29 17.5 -40t58.5 -11q51 0 66 12q14 13 14 51q0 47 -19 59q-14 10 -59 10h-59v55h59q45 0 59 10q15 11 15 44q0 35 -15 47q-16 12 -59 12t-59.5 -11t-16.5 -40h-61q0 63 43 88q33 19 94 19q75 0 107 -29q29 -27 29 -84q0 -35 -7 -53.5t-26 -30.5q20 -12 28.5 -33.5
t8.5 -61.5zM642 667l-338 -667h-68l336 667h70z" />
    <glyph glyph-name="fiveeighths" unicode="&#x215d;" horiz-adv-x="878" 
d="M673 233q46 0 60 16q11 12 11 43q0 33 -15.5 46t-55.5 13q-43 0 -59 -16q-12 -13 -12 -43q0 -34 15 -46.5t56 -12.5zM673 49q43 0 60 16q15 15 15 49q0 43 -20 56q-15 10 -55 10q-42 0 -58 -14.5t-16 -51.5q0 -39 20 -53q16 -12 54 -12zM810 113q0 -70 -40 -97
q-32 -22 -97 -22q-74 0 -106 29q-31 29 -31 90q0 75 44 94q-21 10 -30.5 30.5t-9.5 58.5q0 65 37 89q30 21 96 21q75 0 106 -27q28 -26 28 -83q0 -38 -9 -58.5t-31 -30.5q23 -10 33 -32.5t10 -61.5zM73 362h62q0 -26 20 -37q17 -8 53 -8q46 0 63 20q15 18 15 57q0 47 -16 64
q-17 17 -58 17q-66 0 -70 -42h-61v234h246v-55h-185v-104q25 23 76 23q77 0 106 -38q24 -31 24 -96q0 -78 -41 -110q-33 -26 -99 -26q-69 0 -101 24q-34 24 -34 77zM642 667l-338 -667h-68l336 667h70z" />
    <glyph glyph-name="seveneighths" unicode="&#x215e;" horiz-adv-x="878" 
d="M673 233q46 0 60 16q11 12 11 43q0 33 -15.5 46t-55.5 13q-43 0 -59 -16q-12 -13 -12 -43q0 -34 15 -46.5t56 -12.5zM673 49q43 0 60 16q15 15 15 49q0 43 -20 56q-15 10 -55 10q-42 0 -58 -14.5t-16 -51.5q0 -39 20 -53q16 -12 54 -12zM810 113q0 -70 -40 -97
q-32 -22 -97 -22q-74 0 -106 29q-31 29 -31 90q0 75 44 94q-21 10 -30.5 30.5t-9.5 58.5q0 65 37 89q30 21 96 21q75 0 106 -27q28 -26 28 -83q0 -38 -9 -58.5t-31 -30.5q23 -10 33 -32.5t10 -61.5zM347 621l-172 -354h-68l173 344h-200v56h267v-46zM642 667l-338 -667h-68
l336 667h70z" />
    <glyph glyph-name="arrowleft" unicode="&#x2190;" horiz-adv-x="721" 
d="M32 329l334 334l58 -57l-240 -235h505v-82h-505l240 -235l-58 -58z" />
    <glyph glyph-name="arrowup" unicode="&#x2191;" horiz-adv-x="726" 
d="M697 323l-58 -58l-235 240v-505h-82v505l-235 -240l-58 58l334 335z" />
    <glyph glyph-name="arrowright" unicode="&#x2192;" horiz-adv-x="720" 
d="M31 289v82h505l-239 235l58 57l334 -334l-335 -333l-58 58l240 235h-505z" />
    <glyph glyph-name="arrowdown" unicode="&#x2193;" horiz-adv-x="725" 
d="M697 335l-334 -335l-334 334l58 58l235 -239v505h82v-505l235 240z" />
    <glyph glyph-name="uni2196" unicode="&#x2196;" horiz-adv-x="710" 
d="M602 232l-58 -58l-358 357l3 -336h-81v472h472v-81l-336 3z" />
    <glyph glyph-name="uni2197" unicode="&#x2197;" horiz-adv-x="710" 
d="M602 195h-81l3 336l-358 -357l-58 58l358 357l-336 -3v81h472v-472z" />
    <glyph glyph-name="uni2198" unicode="&#x2198;" horiz-adv-x="710" 
d="M602 0h-471v81l336 -3l-359 358l59 58l357 -358l-3 337h81v-473z" />
    <glyph glyph-name="uni2199" unicode="&#x2199;" horiz-adv-x="710" 
d="M602 436l-358 -358l336 3v-81h-472v473h81l-3 -337l358 358z" />
    <glyph glyph-name="partialdiff" unicode="&#x2202;" horiz-adv-x="560" 
d="M319 471l-208 203l57 53q120 -120 234 -238q57 -59 77 -114q19 -53 19 -134q0 -83 -11 -126q-11 -41 -38 -68q-28 -29 -69.5 -42t-103.5 -13q-65 0 -107 14q-39 14 -66 41q-29 30 -39 82q-8 39 -8 113q-1 71 9 112q12 55 46 86q39 35 111 42q13 2 28 2q44 0 69 -13z
M412 241q0 106 -39 141q-32 29 -109 30q-83 0 -108 -52q-17 -34 -17 -119q0 -69 6 -97q9 -39 37 -56q30 -18 94 -18t94 18q28 17 36 57q6 27 6 96z" />
    <glyph glyph-name="infinity" unicode="&#x2206;" horiz-adv-x="567" 
d="M243 238q-30 39 -46 50q-19 14 -45 14q-29 0 -40 -14q-12 -15 -12 -51q0 -34 12 -48.5t40 -14.5q21 0 40.5 14t50.5 50zM414 302q-26 0 -44.5 -12.5t-47.5 -50.5q31 -37 51 -51t41 -14q27 0 38 12q14 15 14 51t-11.5 50.5t-40.5 14.5zM414 113q-66 0 -132 81
q-34 -42 -65 -61q-31 -20 -65 -20q-63 0 -91 27q-30 29 -30 97q0 75 38 104q28 22 82 22q44 0 72.5 -17t59.5 -62q33 44 62 61.5t70 17.5q60 0 89 -29q31 -31 31 -97q0 -76 -41 -104q-28 -20 -80 -20z" />
    <glyph glyph-name="product" unicode="&#x220f;" horiz-adv-x="668" 
d="M579 0h-88v587h-312v-587h-89v587h-76v80h641v-80h-76v-587z" />
    <glyph glyph-name="summation" unicode="&#x2211;" horiz-adv-x="576" 
d="M155 587l230 -253l-230 -254h379v-80h-488v78l233 256l-233 255v78h488v-80h-379z" />
    <glyph glyph-name="minus" unicode="&#x2212;" horiz-adv-x="582" 
d="M544 204h-506v77h506v-77z" />
    <glyph glyph-name="fraction" unicode="&#x2215;" horiz-adv-x="58" 
d="M232 667l-338 -667h-68l336 667h70z" />
    <glyph glyph-name="radical" unicode="&#x221a;" horiz-adv-x="660" 
d="M522 748l-220 -748h-94l-93 303h-115v79h176l78 -278l205 723h298v-79h-235z" />
    <glyph glyph-name="glyph146" unicode="&#x221e;" horiz-adv-x="567" 
d="M243 238q-30 39 -46 50q-19 14 -45 14q-29 0 -40 -14q-12 -15 -12 -51q0 -34 12 -48.5t40 -14.5q21 0 40.5 14t50.5 50zM414 302q-26 0 -44.5 -12.5t-47.5 -50.5q31 -37 51 -51t41 -14q27 0 38 12q14 15 14 51t-11.5 50.5t-40.5 14.5zM414 113q-66 0 -132 81
q-34 -42 -65 -61q-31 -20 -65 -20q-63 0 -91 27q-30 29 -30 97q0 75 38 104q28 22 82 22q44 0 72.5 -17t59.5 -62q33 44 62 61.5t70 17.5q60 0 89 -29q31 -31 31 -97q0 -76 -41 -104q-28 -20 -80 -20z" />
    <glyph glyph-name="integral" unicode="&#x222b;" horiz-adv-x="426" 
d="M155 -40q0 -154 -178 -154q-80 0 -122 29t-42 85h83q0 -20 21.5 -32t58.5 -12q59 0 79 26q15 20 15 68v580q0 154 178 154q80 0 122 -29t42 -85h-83q0 20 -21.5 32t-58.5 12q-59 0 -79 -26q-15 -20 -15 -68v-580z" />
    <glyph glyph-name="approxequal" unicode="&#x2248;" horiz-adv-x="582" 
d="M549 353q-10 -9 -41 -32t-42 -30q-43 -28 -88 -28q-40 0 -76 23q-49 30 -66.5 38t-35.5 8q-22 0 -45 -14q-47 -31 -74 -53l-48 58q10 9 40.5 32t42.5 30q44 28 89 28q40 0 75 -23q49 -31 66 -38.5t36 -7.5q21 0 44 14q47 31 74 53zM549 164q-10 -9 -41 -32t-42 -30
q-43 -28 -88 -28q-40 0 -76 23q-48 31 -66 39t-36 8q-22 0 -45 -14q-46 -32 -74 -54l-48 58q10 9 40.5 32t42.5 30q44 28 89 28q40 0 75 -23q49 -31 66 -38.5t36 -7.5q21 0 44 14q47 31 74 53z" />
    <glyph glyph-name="notequal" unicode="&#x2260;" horiz-adv-x="582" 
d="M544 115h-333l-119 -115l-51 51l68 64h-71v75h145l112 108h-257v75h334l116 114l51 -51l-65 -63h70v-75h-145l-111 -108h256v-75z" />
    <glyph glyph-name="lessequal" unicode="&#x2264;" horiz-adv-x="582" 
d="M549 205l-29 -75l-483 181v69l482 181l30 -75l-393 -140zM550 0h-518v77h518v-77z" />
    <glyph glyph-name="greaterequal" unicode="&#x2265;" horiz-adv-x="582" 
d="M545 311l-483 -181l-29 75l393 141l-393 140l30 75l482 -181v-69zM550 0h-518v77h518v-77z" />
    <glyph glyph-name="dotmath" unicode="&#x22c5;" horiz-adv-x="221" 
d="M165 337q0 -56 -54 -56q-26 0 -40.5 14.5t-14.5 41.5q0 54 55 54q54 0 54 -54z" />
    <glyph glyph-name="lozenge" unicode="&#x25ca;" horiz-adv-x="636" 
d="M277 667h78l251 -333l-251 -334h-78l-246 334zM316 576l-179 -242l179 -243l184 243z" />
    <glyph glyph-name="glyph172" horiz-adv-x="566" 
 />
    <glyph glyph-name="glyph210" horiz-adv-x="237" 
 />
    <glyph glyph-name="Caron" horiz-adv-x="428" 
d="M383 863l-131 -127h-76l-131 127h90l79 -76l78 76h91z" />
    <glyph glyph-name="Breve" horiz-adv-x="428" 
d="M357 867q0 -76 -36 -103q-31 -25 -107 -25q-86 0 -116 33q-27 28 -27 95h63q0 -42 16 -55.5t64 -13.5q49 0 64 14q16 14 16 55h63z" />
    <glyph glyph-name="Tilde" horiz-adv-x="428" 
d="M409 802l-70 -36q-36 -16 -65 -16q-30 0 -59 17q-30 18 -33 20q-15 7 -29 7q-19 0 -43 -12l-59 -30l-31 58q68 35 70 36q36 15 65 15q31 0 60 -17q30 -18 33 -20q15 -7 29 -7q18 0 42 12l59 31z" />
    <glyph glyph-name="Hungarumlaut" horiz-adv-x="428" 
d="M498 862l-127 -126h-90l127 126h90zM319 862l-127 -126h-90l127 126h90z" />
    <glyph glyph-name="Cedilla" horiz-adv-x="428" 
d="M292 -110q0 -79 -84 -79q-46 0 -66 19q-18 16 -18 51h47q0 -16 7.5 -22t29.5 -6q20 0 27 7.5t7 27.5q0 31 -35 33q-8 1 -30 1v78h50v-41q34 -1 51 -22q14 -18 14 -47z" />
    <glyph glyph-name="Ogonek" horiz-adv-x="437" 
d="M208 17l78 -17q-48 -24 -70.5 -48.5t-22.5 -54.5q0 -65 83 -65q10 0 26 2v-58q-22 -3 -48 -3q-63 0 -99 32q-34 31 -34 86q0 38 21 70q23 34 66 56z" />
    <glyph glyph-name="Macron" horiz-adv-x="428" 
d="M386 788h-344v65h344v-65z" />
    <glyph glyph-name="Commaaccent" horiz-adv-x="437" 
d="M257 -70q0 -46 -9.5 -72t-36.5 -53l-37 -37l-53 53q28 27 35.5 34.5t12.5 17.5q9 18 9 57v29h79v-29z" />
    <glyph glyph-name="commaaccent" horiz-adv-x="437" 
d="M257 -70q0 -46 -9.5 -72t-36.5 -53l-37 -37l-53 53q28 27 35.5 34.5t12.5 17.5q9 18 9 57v29h79v-29z" />
    <glyph glyph-name="parenleft.numr" horiz-adv-x="226" 
d="M66 463q0 117 7 164q10 67 43 96q35 31 110 31v-60q-49 0 -69 -22q-20 -20 -24 -73q-3 -29 -3 -136q0 -106 2 -134q5 -53 24 -73q21 -23 70 -23v-60q-75 0 -110 31q-33 29 -43 96q-7 46 -7 163z" />
    <glyph glyph-name="one.taboldstyle" horiz-adv-x="563" 
d="M343 0h-85v559l-117 -109l-55 58l179 159h78v-667z" />
    <glyph glyph-name="two.taboldstyle" horiz-adv-x="563" 
d="M499 479q0 -101 -64 -148q-20 -15 -46 -26.5t-86 -31.5l-87 -30q-34 -13 -46 -34q-14 -22 -14 -70v-62h342v-77h-428v158q0 70 32 109q26 32 81 53l107 33q45 14 63 22.5t31 20.5q29 27 29 83q0 71 -30 95q-28 22 -99 22q-75 0 -102 -19q-25 -18 -25 -62h-85q0 94 66 131
q49 28 144 28q108 0 161 -41q56 -43 56 -154z" />
    <glyph glyph-name="zero.dnom" 
d="M66 200v33q0 50 5.5 78.5t18.5 47.5q31 47 114 47q94 0 122 -60q17 -35 17 -113v-33q0 -75 -3 -100q-8 -51 -35 -76q-33 -30 -101 -30q-93 0 -122 60q-16 34 -16 113v33zM279 200q0 98 -8 118q-7 17 -23 24t-44 7q-30 0 -45.5 -8t-21.5 -27q-7 -21 -7 -114q0 -96 8 -118
q7 -17 22 -25q15 -7 44 -7q30 0 46 8.5t22 27.5q7 20 7 114z" />
    <glyph glyph-name="nine.dnom" 
d="M76 95h62q1 -24 15.5 -34.5t46.5 -10.5q56 0 69 37q5 12 5.5 22t1.5 54q-31 -26 -81 -26q-72 0 -101 34q-26 31 -26 100q0 73 37 106q32 29 96 29q81 0 111 -47q26 -43 26 -142q0 -104 -7 -135q-17 -88 -131 -88q-124 0 -124 101zM131 272q0 -47 17 -64q15 -15 50 -15
q42 0 60 21q16 19 16 55q0 45 -20 64q-18 16 -53 16q-41 0 -57 -20q-13 -17 -13 -57z" />
    <glyph glyph-name="eight.dnom" 
d="M205 233q46 0 60 16q11 12 11 43q0 33 -15.5 46t-55.5 13q-43 0 -59 -16q-12 -13 -12 -43q0 -34 15 -46.5t56 -12.5zM205 49q43 0 60 16q15 15 15 49q0 43 -20 56q-15 10 -55 10q-42 0 -58 -14.5t-16 -51.5q0 -39 20 -53q16 -12 54 -12zM342 113q0 -70 -40 -97
q-32 -22 -97 -22q-74 0 -106 29q-31 29 -31 90q0 75 44 94q-21 10 -30.5 30.5t-9.5 58.5q0 65 37 89q30 21 96 21q75 0 106 -27q28 -26 28 -83q0 -38 -9 -58.5t-31 -30.5q23 -10 33 -32.5t10 -61.5z" />
    <glyph glyph-name="seven.dnom" 
d="M347 354l-172 -354h-68l173 344h-200v56h267v-46z" />
    <glyph glyph-name="six.dnom" 
d="M330 305h-62q-1 24 -15.5 34.5t-46.5 10.5q-56 0 -69 -37q-5 -12 -5.5 -22.5t-1.5 -54.5q32 27 81 27q72 0 101 -35q26 -31 26 -100q0 -73 -37 -105q-32 -29 -96 -29q-81 0 -111 47q-26 42 -26 142q0 103 7 135q17 88 131 88q124 0 124 -101zM275 127q0 48 -17 65
q-15 15 -50 15q-76 0 -76 -77q0 -44 20 -64q18 -16 53 -16q41 0 57 20q13 17 13 57z" />
    <glyph glyph-name="five.dnom" 
d="M73 95h62q0 -26 20 -37q17 -8 53 -8q46 0 63 20q15 18 15 57q0 47 -16 64q-17 17 -58 17q-66 0 -70 -42h-61v234h246v-55h-185v-104q25 23 76 23q77 0 106 -38q24 -31 24 -96q0 -78 -41 -110q-33 -26 -99 -26q-69 0 -101 24q-34 24 -34 77z" />
    <glyph glyph-name="four.dnom" 
d="M349 98h-58v-98h-61v98h-181v47l184 255h58v-249h58v-53zM230 151v155l-110 -155h110z" />
    <glyph glyph-name="three.dnom" 
d="M349 114q0 -71 -44 -99q-33 -21 -98 -21q-71 0 -104 25q-34 26 -34 82h62q1 -29 17.5 -40t58.5 -11q51 0 66 12q14 13 14 51q0 47 -19 59q-14 10 -59 10h-59v55h59q45 0 59 10q15 11 15 44q0 35 -15 47q-16 12 -59 12t-59.5 -11t-16.5 -40h-61q0 63 43 88q33 19 94 19
q75 0 107 -29q29 -27 29 -84q0 -35 -7 -53.5t-26 -30.5q20 -12 28.5 -33.5t8.5 -61.5z" />
    <glyph glyph-name="two.dnom" 
d="M346 287q0 -59 -28 -83q-10 -7 -19 -11.5t-43 -17.5l-71 -26q-32 -13 -42 -29q-7 -12 -7 -33v-31h209v-56h-272v97q0 66 55 94q20 10 54 20l44 12q35 10 46 23t11 41q0 39 -18 52q-16 11 -56 11q-44 0 -59 -10q-16 -11 -16 -38h-62q0 62 44 86q32 18 92 18q73 0 106 -30
q32 -28 32 -89z" />
    <glyph glyph-name="one.dnom" 
d="M241 0h-63v313l-63 -55l-38 42l113 100h51v-400z" />
    <glyph glyph-name="zero.numr" 
d="M66 467v33q0 50 5.5 78.5t18.5 47.5q31 47 114 47q94 0 122 -60q17 -35 17 -113v-33q0 -75 -3 -100q-8 -51 -35 -76q-33 -30 -101 -30q-93 0 -122 60q-16 34 -16 113v33zM279 467q0 98 -8 118q-7 17 -23 24t-44 7q-30 0 -45.5 -8t-21.5 -27q-7 -21 -7 -114q0 -96 8 -118
q7 -17 22 -25q15 -7 44 -7q30 0 46 8.5t22 27.5q7 20 7 114z" />
    <glyph glyph-name="nine.numr" 
d="M76 362h62q1 -24 15.5 -34.5t46.5 -10.5q56 0 69 37q5 12 5.5 22t1.5 54q-31 -26 -81 -26q-72 0 -101 34q-26 31 -26 100q0 73 37 106q32 29 96 29q81 0 111 -47q26 -43 26 -142q0 -103 -7 -135q-17 -88 -131 -88q-124 0 -124 101zM131 539q0 -47 17 -64q15 -15 50 -15
q42 0 60 21q16 19 16 55q0 45 -20 64q-18 16 -53 16q-41 0 -57 -20q-13 -17 -13 -57z" />
    <glyph glyph-name="eight.numr" 
d="M205 500q46 0 60 16q11 12 11 43q0 33 -15.5 46t-55.5 13q-43 0 -59 -16q-12 -13 -12 -43q0 -34 15 -46.5t56 -12.5zM205 316q43 0 60 16q15 15 15 49q0 43 -20 56q-15 10 -55 10q-42 0 -58 -14.5t-16 -51.5q0 -39 20 -53q16 -12 54 -12zM342 380q0 -70 -40 -97
q-32 -22 -97 -22q-74 0 -106 29q-31 29 -31 90q0 75 44 94q-21 10 -30.5 30.5t-9.5 58.5q0 65 37 89q30 21 96 21q75 0 106 -27q28 -26 28 -83q0 -38 -9 -58.5t-31 -30.5q23 -10 33 -32.5t10 -61.5z" />
    <glyph glyph-name="seven.numr" 
d="M347 621l-172 -354h-68l173 344h-200v56h267v-46z" />
    <glyph glyph-name="six.numr" 
d="M334 572h-62q-1 24 -15.5 34.5t-46.5 10.5q-56 0 -69 -37q-5 -12 -5.5 -22.5t-1.5 -54.5q32 27 81 27q72 0 101 -35q26 -31 26 -100q0 -73 -37 -105q-32 -29 -96 -29q-81 0 -111 47q-26 42 -26 142q0 104 7 135q17 88 131 88q124 0 124 -101zM279 394q0 48 -17 65
q-15 15 -50 15q-76 0 -76 -77q0 -44 20 -64q18 -16 53 -16q41 0 57 20q13 17 13 57z" />
    <glyph glyph-name="five.numr" 
d="M73 362h62q0 -26 20 -37q17 -8 53 -8q46 0 63 20q15 18 15 57q0 47 -16 64q-17 17 -58 17q-66 0 -70 -42h-61v234h246v-55h-185v-104q25 23 76 23q77 0 106 -38q24 -31 24 -96q0 -78 -41 -110q-33 -26 -99 -26q-69 0 -101 24q-34 24 -34 77z" />
    <glyph glyph-name="four.numr" 
d="M349 365h-58v-98h-61v98h-181v47l184 255h58v-249h58v-53zM230 418v155l-110 -155h110z" />
    <glyph glyph-name="three.numr" 
d="M349 381q0 -71 -44 -99q-33 -21 -98 -21q-71 0 -104 25q-34 26 -34 82h62q1 -29 17.5 -40t58.5 -11q51 0 66 12q14 13 14 51q0 47 -19 59q-14 10 -59 10h-59v55h59q45 0 59 10q15 11 15 44q0 35 -15 47q-16 12 -59 12t-59.5 -11t-16.5 -40h-61q0 63 43 88q33 19 94 19
q75 0 107 -29q29 -27 29 -84q0 -35 -7 -53.5t-26 -30.5q20 -12 28.5 -33.5t8.5 -61.5z" />
    <glyph glyph-name="two.numr" 
d="M346 554q0 -59 -28 -83q-10 -7 -19 -11.5t-43 -17.5l-71 -26q-32 -13 -42 -29q-7 -12 -7 -33v-31h209v-56h-272v97q0 66 55 94q20 10 54 20l44 12q35 10 46 23t11 41q0 39 -18 52q-16 11 -56 11q-44 0 -59 -10q-16 -11 -16 -38h-62q0 62 44 86q32 18 92 18q73 0 106 -30
q32 -28 32 -89z" />
    <glyph glyph-name="one.numr" 
d="M241 267h-63v313l-63 -55l-38 42l113 100h51v-400z" />
    <glyph glyph-name="zerooldstyle" horiz-adv-x="566" 
d="M506 333q0 -95 -0.5 -116t-4.5 -51q-12 -84 -55 -125q-53 -49 -163 -49q-100 0 -152 40q-45 35 -60 105q-11 48 -11 144v52v52q0 96 11 144q15 70 60 105q52 40 152 40t152 -40q45 -35 60 -105q11 -48 11 -144v-52zM420 333q0 116 -5 155q-8 59 -36 83q-29 25 -96 25
t-96 -25q-28 -24 -36 -83q-5 -39 -5 -155t5 -155q8 -59 36 -83q29 -25 96 -25t96 25q28 24 36 83q5 39 5 155z" />
    <glyph glyph-name="nineoldstyle" horiz-adv-x="564" 
d="M504 361q0 -159 -13 -227q-15 -79 -77 -113q-51 -29 -137 -29q-200 0 -200 159h84q0 -46 31 -65q27 -16 84 -16q54 0 80 13q31 16 45 61q15 47 16 142q-52 -54 -141 -54q-120 0 -168 58q-43 52 -43 165q0 119 59 172q53 47 156 47q80 0 133 -33q49 -30 69 -83
q22 -59 22 -197zM414 451q0 84 -36 117q-31 28 -97 28q-78 0 -106 -35q-25 -31 -25 -105q0 -91 30 -121q26 -25 91 -25q78 0 113 39q30 35 30 102z" />
    <glyph glyph-name="eightoldstyle" horiz-adv-x="563" 
d="M503 185q0 -115 -65 -159q-51 -34 -156 -34q-120 0 -171 46q-51 45 -51 147q0 69 18 107t59 54q-39 16 -55 51t-16 101q0 104 59 143q50 33 157 33q122 0 170 -44q45 -41 45 -132q0 -65 -15 -98q-17 -37 -56 -54q41 -16 59 -54t18 -107zM411 489q0 63 -27 85t-103 22
q-77 0 -103 -22q-27 -23 -27 -85q0 -68 35 -89q26 -16 95 -16q78 0 104 22t26 83zM417 188q0 69 -28 93.5t-107 24.5q-45 0 -70 -5.5t-39 -19.5q-27 -25 -27 -93q0 -76 36 -99q28 -19 100 -19q80 0 108 26q27 25 27 92z" />
    <glyph glyph-name="sevenoldstyle" horiz-adv-x="470" 
d="M451 593l-292 -593h-94l293 589h-339v78h432v-74z" />
    <glyph glyph-name="sixoldstyle" horiz-adv-x="565" 
d="M499 211q0 -119 -59 -172q-53 -47 -156 -47q-80 0 -133 33q-49 30 -69 83q-22 59 -22 197q0 159 13 227q15 79 77 113q51 29 137 29q200 0 200 -159h-84q0 46 -31 65q-27 16 -84 16q-54 0 -80 -13q-31 -16 -45 -61q-15 -47 -16 -142q52 54 141 54q120 0 168 -58
q43 -52 43 -165zM414 210q0 91 -30 121q-26 25 -91 25q-78 0 -113 -39q-30 -35 -30 -102q0 -84 36 -117q31 -28 97 -28q78 0 106 35q25 31 25 105z" />
    <glyph glyph-name="three.taboldstyle" horiz-adv-x="563" 
d="M499 196q0 -120 -65 -167q-51 -37 -156 -37q-108 0 -159 35q-56 39 -56 125h86q0 -48 34 -66q30 -16 96 -16q77 0 106 27t29 92q0 53 -10 76q-10 25 -36.5 33.5t-89.5 8.5h-97v78h97q43 0 66 5t37 16q27 23 27 85q0 43 -10 64q-11 22 -38 31.5t-82 9.5q-76 0 -105 -21
q-27 -18 -27 -60h-86q0 94 69 131q52 28 149 28q122 0 170 -45q45 -41 45 -136q0 -59 -13 -90q-16 -36 -54 -54q41 -16 57 -50t16 -103z" />
    <glyph glyph-name="four.taboldstyle" horiz-adv-x="563" 
d="M516 180h-97v-180h-84v180h-290v73l293 414h81v-410h97v-77zM335 257v281l-194 -281h194z" />
    <glyph glyph-name="five.taboldstyle" horiz-adv-x="563" 
d="M499 210q0 -126 -60 -176q-52 -42 -163 -42q-106 0 -155 38q-51 39 -51 122h83q0 -49 31 -67q28 -15 92 -15q54 0 83 11q30 13 42.5 41.5t12.5 83.5q0 50 -5.5 76t-18.5 42q-26 32 -101 32q-128 0 -128 -78h-82v389h399v-78h-317v-195q17 18 52.5 29t77.5 11
q125 0 171 -61q37 -50 37 -163z" />
    <glyph glyph-name="six.taboldstyle" horiz-adv-x="563" 
d="M498 211q0 -119 -59 -172q-53 -47 -156 -47q-80 0 -133 33q-49 30 -69 83q-22 59 -22 197q0 159 13 227q15 79 77 113q51 29 137 29q200 0 200 -159h-84q0 46 -31 65q-27 16 -84 16q-54 0 -80 -13q-31 -16 -45 -61q-15 -47 -16 -142q52 54 141 54q120 0 168 -58
q43 -52 43 -165zM413 210q0 91 -30 121q-26 25 -91 25q-78 0 -113 -39q-30 -35 -30 -102q0 -84 36 -117q31 -28 97 -28q78 0 106 35q25 31 25 105z" />
    <glyph glyph-name="seven.taboldstyle" horiz-adv-x="563" 
d="M497 593l-292 -593h-94l293 589h-339v78h432v-74z" />
    <glyph glyph-name="eight.taboldstyle" horiz-adv-x="563" 
d="M503 185q0 -115 -65 -159q-51 -34 -156 -34q-120 0 -171 46q-51 45 -51 147q0 69 18 107t59 54q-39 16 -55 51t-16 101q0 104 59 143q50 33 157 33q122 0 170 -44q45 -41 45 -132q0 -65 -15 -98q-17 -37 -56 -54q41 -16 59 -54t18 -107zM411 489q0 63 -27 85t-103 22
q-77 0 -103 -22q-27 -23 -27 -85q0 -68 35 -89q26 -16 95 -16q78 0 104 22t26 83zM417 188q0 69 -28 93.5t-107 24.5q-45 0 -70 -5.5t-39 -19.5q-27 -25 -27 -93q0 -76 36 -99q28 -19 100 -19q80 0 108 26q27 25 27 92z" />
    <glyph glyph-name="fiveoldstyle" horiz-adv-x="568" 
d="M501 210q0 -126 -60 -176q-52 -42 -163 -42q-106 0 -155 38q-51 39 -51 122h83q0 -49 31 -67q28 -15 92 -15q54 0 83 11q30 13 42.5 41.5t12.5 83.5q0 50 -5.5 76t-18.5 42q-26 32 -101 32q-128 0 -128 -78h-82v389h399v-78h-317v-195q17 18 52.5 29t77.5 11
q125 0 171 -61q37 -50 37 -163z" />
    <glyph glyph-name="fouroldstyle" horiz-adv-x="560" 
d="M515 180h-97v-180h-84v180h-290v73l293 414h81v-410h97v-77zM334 257v281l-194 -281h194z" />
    </font>
</defs>
</svg>
