<?xml version="1.0" standalone="no"?>
<!DOCTYPE svg PUBLIC "-//W3C//DTD SVG 1.1//EN" "http://www.w3.org/Graphics/SVG/1.1/DTD/svg11.dtd" >
<svg xmlns="http://www.w3.org/2000/svg" xmlns:xlink="http://www.w3.org/1999/xlink" version="1.1">
<metadata>
Created by FontForge 20161013 at Thu Jun 19 19:23:18 2014
 By ,,,
Copyright (c) 2014 by The Foundry. All rights reserved.
</metadata>
<defs>
<font id="LandRoverWeb-Bold" horiz-adv-x="425" >
  <font-face 
    font-family="Land Rover Web Bold"
    font-weight="700"
    font-stretch="normal"
    units-per-em="1000"
    panose-1="0 0 0 0 0 0 0 0 0 0"
    ascent="700"
    descent="-300"
    x-height="488"
    cap-height="667"
    bbox="-193 -263 1571 1018"
    underline-thickness="50"
    underline-position="-200"
    unicode-range="U+0020-FB04"
  />
<missing-glyph horiz-adv-x="225" 
d="M23 0v667h179v-667h-179zM179 23v621h-133v-621h133z" />
    <glyph glyph-name="IJ" unicode="IJ" horiz-adv-x="818" 
d="M194 0h-118v667h118v-667zM746 218v-31q0 -34 -3 -53q-24 -142 -220 -142q-115 0 -168 46q-55 47 -55 148h114q0 -51 23 -69.5t86 -18.5q50 0 73 13q22 11 28 38q4 18 4 67v451h118v-449z" />
    <glyph glyph-name="ij" unicode="ij" horiz-adv-x="473" 
d="M181 613q0 -31 -18 -48q-16 -14 -44 -14q-32 0 -48 19q-14 16 -14 43q0 32 19 47q15 14 43 14q32 0 48 -18q14 -15 14 -43zM176 0h-113v488h113v-488zM415 613q0 -31 -18 -48q-16 -14 -44 -14q-32 0 -48 19q-14 16 -14 43q0 32 19 47q15 14 43 14q32 0 48 -18
q14 -15 14 -43zM175 -190v93h48q46 0 60 18t14 79v488h113v-520q0 -105 -69 -139q-39 -19 -115 -19h-51z" />
    <glyph glyph-name="f_f" unicode="ff" horiz-adv-x="647" 
d="M623 705v-94h-48q-46 0 -60 -18t-14 -79v-26h122v-94h-122v-394h-113v394h-185v-394h-113v394h-78v94h78v59q0 105 69 139q39 19 115 19h51v-94h-48q-46 0 -60 -18t-14 -79v-26h185v59q0 105 69 139q39 19 115 19h51z" />
    <glyph glyph-name="fi" unicode="fi" horiz-adv-x="564" 
d="M325 705v-94h-48q-46 0 -60 -18t-14 -79v-26h122v-94h-122v-394h-113v394h-78v94h78v59q0 105 69 139q39 19 115 19h51zM506 613q0 -31 -18 -48q-16 -14 -44 -14q-32 0 -48 19q-14 16 -14 43q0 32 19 47q15 14 43 14q32 0 48 -18q14 -15 14 -43zM501 0h-113v488h113v-488
z" />
    <glyph glyph-name="fl" unicode="fl" horiz-adv-x="604" 
d="M325 705v-94h-48q-46 0 -60 -18t-14 -79v-26h122v-94h-122v-394h-113v394h-78v94h78v59q0 105 69 139q39 19 115 19h51zM604 88v-93h-32q-89 0 -129 28q-55 37 -55 130v544h113v-512q0 -35 2.5 -51t10.5 -26q15 -20 61 -20h29z" />
    <glyph glyph-name="f_f_i" unicode="ffi" horiz-adv-x="862" 
d="M325 705v-94h-48q-46 0 -60 -18t-14 -79v-26h185v59q0 105 69 139q39 19 115 19h51v-94h-48q-46 0 -60 -18t-14 -79v-26h122v-94h-122v-394h-113v394h-185v-394h-113v394h-78v94h78v59q0 105 69 139q39 19 115 19h51zM804 613q0 -31 -18 -48q-16 -14 -44 -14
q-32 0 -48 19q-14 16 -14 43q0 32 19 47q15 14 43 14q32 0 48 -18q14 -15 14 -43zM799 0h-113v488h113v-488z" />
    <glyph glyph-name="f_f_l" unicode="ffl" horiz-adv-x="902" 
d="M325 705v-94h-48q-46 0 -60 -18t-14 -79v-26h185v59q0 105 69 139q39 19 115 19h51v-94h-48q-46 0 -60 -18t-14 -79v-26h122v-94h-122v-394h-113v394h-185v-394h-113v394h-78v94h78v59q0 105 69 139q39 19 115 19h51zM902 88v-93h-32q-89 0 -129 28q-55 37 -55 130v544
h113v-512q0 -35 2.5 -51t10.5 -26q15 -20 61 -20h29z" />
    <glyph glyph-name="f_j" unicode="fj" horiz-adv-x="564" 
d="M506 613q0 -31 -18 -48q-16 -14 -44 -14q-32 0 -48 19q-14 16 -14 43q0 32 19 47q15 14 43 14q32 0 48 -18q14 -15 14 -43zM266 -190v93h48q46 0 60 18t14 79v488h113v-520q0 -105 -69 -139q-39 -19 -115 -19h-51zM325 705v-94h-48q-46 0 -60 -18t-14 -79v-26h122v-94
h-122v-394h-113v394h-78v94h78v59q0 105 69 139q39 19 115 19h51z" />
    <glyph glyph-name="f_t" unicode="ft" horiz-adv-x="642" 
d="M623 89v-94h-51q-89 0 -129 28q-55 37 -55 130v241h-185v-394h-113v394h-78v94h78v59q0 105 69 139q39 19 115 19h51v-94h-48q-46 0 -60 -18t-14 -79v-26h185v179h113v-179h122v-94h-122v-208q0 -35 2.5 -51t10.5 -26q15 -20 61 -20h48z" />
    <glyph glyph-name=".notdef" horiz-adv-x="225" 
d="M23 0v667h179v-667h-179zM179 23v621h-133v-621h133z" />
    <glyph glyph-name="glyph1" horiz-adv-x="0" 
 />
    <glyph glyph-name="glyph2" horiz-adv-x="225" 
 />
    <glyph glyph-name="space" unicode=" " horiz-adv-x="225" 
 />
    <glyph glyph-name="exclam" unicode="!" horiz-adv-x="298" 
d="M203 190h-110v477h110v-477zM218 63q0 -36 -20 -54q-17 -17 -49 -17q-36 0 -54 22q-15 18 -15 49q0 69 69 69t69 -69z" />
    <glyph glyph-name="quotedbl" unicode="&#x22;" horiz-adv-x="480" 
d="M383 450h-106v217h106v-217zM203 450h-106v217h106v-217z" />
    <glyph glyph-name="numbersign" unicode="#" horiz-adv-x="602" 
d="M583 394h-105l-27 -95h83v-94h-108l-57 -205h-107l57 205h-112l-57 -205h-107l57 205h-81v94h105l27 95h-83v94h109l57 206h107l-58 -206h113l57 206h97l-48 -206h81v-94zM370 394h-111l-27 -95h111z" />
    <glyph glyph-name="dollar" unicode="$" horiz-adv-x="581" 
d="M519 199q0 -104 -52 -151q-42 -39 -130 -48v-99h-100v98q-91 6 -133 43q-45 38 -45 115h114q0 -38 30 -52q27 -13 86 -13q65 0 90 21t25 76q0 46 -13 67q-12 19 -43 26q-16 3 -79 9q-75 7 -107 17q-49 15 -72 51q-27 42 -27 123q0 98 53 142q41 34 121 42v96h100v-95
q91 -7 132 -44q43 -39 43 -117h-114q0 38 -28 52q-24 12 -83 12q-68 0 -91 -24q-18 -19 -18 -67q0 -53 41 -69q15 -5 40 -8l32 -3q95 -9 125 -17q54 -14 77 -52q26 -43 26 -131z" />
    <glyph glyph-name="percent" unicode="%" horiz-adv-x="939" 
d="M681 667l-337 -667h-85l336 667h86zM583 200v26q0 59 6 89q10 44 38 66q34 27 100 27q99 0 128 -63q16 -35 16 -119v-26v-26q0 -59 -6 -89q-10 -44 -38 -66q-34 -27 -100 -27q-99 0 -128 63q-16 35 -16 119v26zM794 200q0 86 -7 109q-6 17 -20 24.5t-40 7.5t-40 -7.5
t-20 -24.5q-7 -23 -7 -109t7 -109q5 -17 19 -24.5t41 -7.5t41 7.5t19 24.5q7 23 7 109zM69 467v26q0 59 6 89q10 44 38 66q34 27 100 27q99 0 128 -63q16 -35 16 -119v-26v-26q0 -59 -6 -89q-10 -44 -38 -66q-34 -27 -100 -27q-99 0 -128 63q-16 35 -16 119v26zM280 467
q0 86 -7 109q-6 17 -20 24.5t-40 7.5t-40 -7.5t-20 -24.5q-7 -23 -7 -109t7 -109q5 -17 19 -24.5t41 -7.5t41 7.5t19 24.5q7 23 7 109z" />
    <glyph glyph-name="ampersand" unicode="&#x26;" horiz-adv-x="618" 
d="M592 288h-58v-58q0 -72 -10 -108q-12 -46 -44 -76q-58 -54 -186 -54q-83 0 -130 14q-55 16 -82 57q-28 44 -28 124q0 62 13 95q16 39 54 56q-40 18 -53 69q-8 30 -8 84q0 106 62 148q51 35 158 35q110 0 162 -38q56 -41 56 -130h-111q0 40 -27 54q-22 11 -80 11
q-64 0 -86.5 -19t-22.5 -73t28 -72q23 -15 81 -15h146v51h108v-51h58v-104zM426 230v58h-146q-42 0 -63 -4.5t-32 -14.5q-20 -20 -20 -80q0 -61 36 -80q27 -15 95 -15q77 0 103.5 27.5t26.5 108.5z" />
    <glyph glyph-name="quotesingle" unicode="'" horiz-adv-x="300" 
d="M203 450h-106v217h106v-217z" />
    <glyph glyph-name="parenleft" unicode="(" horiz-adv-x="366" 
d="M341 -191q-119 0 -174 31q-52 29 -73 95q-32 104 -32 371q0 127 8.5 226t23.5 148q23 75 89 103q54 23 158 23v-100q-61 0 -89 -11q-37 -14 -52 -53q-12 -33 -19.5 -124t-7.5 -211q0 -93 5 -176q7 -117 22 -158q16 -44 62 -57q25 -7 79 -7v-100z" />
    <glyph glyph-name="parenright" unicode=")" horiz-adv-x="366" 
d="M304 306q0 -267 -32 -371q-23 -75 -89 -103q-54 -23 -158 -23v100q61 0 89 11q37 14 52 53q12 33 19.5 123.5t7.5 210.5q0 93 -5 176q-7 118 -22 159q-16 44 -62 57q-25 7 -79 7v100q119 0 174 -31q52 -29 73 -95q15 -49 23.5 -148t8.5 -226z" />
    <glyph glyph-name="asterisk" unicode="*" horiz-adv-x="530" 
d="M514 463l-170 -52l103 -134l-78 -54l-105 134l-103 -134l-79 54l104 134l-170 52l31 88l169 -51v167h97v-167l169 51z" />
    <glyph glyph-name="plus" unicode="+" horiz-adv-x="602" 
d="M569 193h-220v-193h-99v193h-217v102h218v193h98v-193h220v-102z" />
    <glyph glyph-name="comma" unicode="," horiz-adv-x="241" 
d="M175 28q0 -49 -10.5 -79t-37.5 -57l-44 -43l-73 67l35 35q14 16 19.5 32.5t5.5 44.5v106h105v-106z" />
    <glyph glyph-name="hyphen" unicode="-" horiz-adv-x="540" 
d="M475 193h-410v102h410v-102z" />
    <glyph glyph-name="period" unicode="." horiz-adv-x="242" 
d="M190 63q0 -36 -20 -54q-17 -17 -49 -17q-36 0 -54 22q-15 18 -15 49q0 69 69 69t69 -69z" />
    <glyph glyph-name="slash" unicode="/" horiz-adv-x="533" 
d="M518 784l-396 -897h-107l396 897h107z" />
    <glyph glyph-name="zero" unicode="0" horiz-adv-x="572" 
d="M516 333q0 -125 -7 -170q-13 -83 -58 -123q-55 -48 -166 -48q-157 0 -204 100q-15 32 -21 74.5t-6 117.5v49q0 87 1 111.5t5 54.5q12 84 58 125q54 50 167 50t167 -50q46 -41 58 -125q4 -30 5 -54.5t1 -111.5zM402 333q0 145 -11 181q-10 31 -33 43q-25 14 -73 14
t-72.5 -13t-33.5 -44q-11 -36 -11 -181t11 -181q10 -31 33 -43q24 -14 73 -14q48 0 72 13t34 44q11 36 11 181z" />
    <glyph glyph-name="one" unicode="1" horiz-adv-x="494" 
d="M323 0h-113v523l-103 -99l-71 77l184 166h103v-667z" />
    <glyph glyph-name="two" unicode="2" horiz-adv-x="555" 
d="M500 473q0 -77 -30 -121q-25 -37 -80 -60q-26 -11 -117 -37q-43 -12 -63 -21t-30 -21q-14 -17 -14 -66v-46h333v-101h-447v165q0 79 41 121q31 33 99 54l121 36q44 16 59 35.5t15 61.5q0 33 -5.5 51.5t-18.5 29.5q-23 18 -87 18q-66 0 -89 -16q-20 -14 -20 -50h-112
q0 100 72 140q52 28 147 28q127 0 178 -49q48 -47 48 -152z" />
    <glyph glyph-name="three" unicode="3" horiz-adv-x="573" 
d="M506 205q0 -129 -68 -177q-52 -36 -162 -36q-113 0 -167 38q-60 41 -60 130h113q0 -38 29 -52q26 -13 85 -13q70 0 94 22q23 22 23 78q0 47 -7 65q-7 21 -29 27.5t-81 6.5h-94v102h94q39 0 59 4t32 14q20 17 20 70q0 31 -5 47.5t-18 24.5q-22 16 -88 16q-67 0 -92 -17
q-22 -15 -22 -49h-113q0 100 76 140q54 28 151 28q126 0 176 -44q48 -43 48 -143q0 -59 -10 -86q-14 -34 -50 -50q37 -16 51.5 -48.5t14.5 -97.5z" />
    <glyph glyph-name="four" unicode="4" horiz-adv-x="568" 
d="M528 168h-95v-168h-106v168h-288v95l287 404h107v-398h95v-101zM327 269v245l-168 -245h168z" />
    <glyph glyph-name="five" unicode="5" horiz-adv-x="573" 
d="M512 215q0 -130 -66 -181q-54 -42 -167 -42q-107 0 -159 39q-56 41 -56 129h111q0 -40 25 -53q23 -12 79 -12q49 0 73 9q26 10 36.5 34t10.5 73q0 46 -4.5 68.5t-15.5 35.5q-21 25 -87 25q-67 0 -92 -22q-18 -16 -18 -48h-110v397h419v-102h-310v-157q15 15 46.5 24.5
t66.5 9.5q84 0 129 -20q48 -21 69 -71q20 -48 20 -136z" />
    <glyph glyph-name="six" unicode="6" horiz-adv-x="568" 
d="M513 216q0 -120 -63 -175q-55 -49 -162 -49q-82 0 -138 33q-52 31 -73 87q-22 56 -22 194q0 153 12 220q28 148 224 148q101 0 154 -41q55 -42 55 -127h-111q0 39 -26 53q-22 13 -71 13q-80 0 -103 -39q-8 -14 -12 -34t-6 -61q-1 -9 -1 -31q48 35 122 35q126 0 176 -56
q45 -52 45 -170zM400 215q0 81 -25 105q-21 20 -78 20q-70 0 -99 -33q-26 -28 -26 -87q0 -74 31 -102q25 -23 84 -23q69 0 92 28q21 26 21 92z" />
    <glyph glyph-name="seven" unicode="7" horiz-adv-x="485" 
d="M468 570l-292 -570h-124l292 565h-327v102h451v-97z" />
    <glyph glyph-name="eight" unicode="8" horiz-adv-x="572" 
d="M517 186q0 -119 -74 -163q-52 -31 -157 -31q-121 0 -174 43q-57 46 -57 151q0 66 12 100q16 43 54 60q-34 15 -47 47.5t-13 102.5q0 106 64 146q51 32 161 32q125 0 176 -43q49 -42 49 -135q0 -64 -10 -94q-14 -40 -50 -56q43 -19 57 -71q9 -32 9 -89zM399 483
q0 55 -26 73q-24 16 -87 16q-71 0 -94 -22q-19 -18 -19 -67q0 -55 26 -72q24 -16 87 -16q71 0 94 21q19 19 19 67zM404 194q0 64 -32 84q-24 15 -86 15q-70 0 -93 -21q-25 -21 -25 -78q0 -64 32 -84q24 -15 86 -15q70 0 93 21q25 21 25 78z" />
    <glyph glyph-name="nine" unicode="9" horiz-adv-x="568" 
d="M513 360q0 -152 -12 -220q-28 -148 -224 -148q-101 0 -154 41q-55 42 -55 127h111q0 -39 26 -53q22 -13 71 -13q80 0 103 39q8 14 12 34t6 61q1 9 1 31q-48 -35 -122 -35q-126 0 -176 56q-45 52 -45 170q0 120 63 175q55 49 162 49q82 0 138 -33q52 -31 73 -87
q22 -56 22 -194zM396 446q0 74 -31 102q-25 23 -84 23q-69 0 -92 -28q-21 -26 -21 -92q0 -81 25 -105q21 -20 78 -20q70 0 99 33q26 28 26 87z" />
    <glyph glyph-name="colon" unicode=":" horiz-adv-x="241" 
d="M189 427q0 -36 -20 -54q-17 -17 -49 -17q-36 0 -54 22q-15 18 -15 49q0 69 69 69t69 -69zM189 63q0 -36 -20 -54q-17 -17 -49 -17q-36 0 -54 22q-15 18 -15 49q0 69 69 69t69 -69z" />
    <glyph glyph-name="semicolon" unicode=";" horiz-adv-x="241" 
d="M194 427q0 -36 -20 -54q-17 -17 -49 -17q-36 0 -54 22q-15 18 -15 49q0 69 69 69t69 -69zM175 28q0 -49 -10.5 -79t-37.5 -57l-44 -43l-73 67l35 35q14 16 19.5 32.5t5.5 44.5v106h105v-106z" />
    <glyph glyph-name="less" unicode="&#x3c;" horiz-adv-x="592" 
d="M564 98l-38 -98l-498 196v96l497 196l39 -99l-387 -145z" />
    <glyph glyph-name="equal" unicode="=" horiz-adv-x="592" 
d="M564 283h-536v102h536v-102zM564 108h-536v102h536v-102z" />
    <glyph glyph-name="greater" unicode="&#x3e;" horiz-adv-x="592" 
d="M564 196l-497 -196l-39 99l387 145l-387 146l38 98l498 -196v-96z" />
    <glyph glyph-name="question" unicode="?" horiz-adv-x="464" 
d="M443 505q0 -116 -84 -166q-17 -10 -41 -22q-21 -9 -28 -14.5t-12 -13.5q-8 -15 -8 -57v-42h-114v58q0 94 48 135q19 16 55 32q40 18 53 32q19 21 19 58q0 56 -21 77q-22 21 -79 21q-63 0 -86 -27q-17 -22 -17 -70h-110q0 116 66 162q49 35 145 35q115 0 165 -48
q49 -48 49 -150zM283 63q0 -36 -20 -54q-17 -17 -49 -17q-36 0 -54 22q-15 18 -15 49q0 69 69 69t69 -69z" />
    <glyph glyph-name="at" unicode="@" horiz-adv-x="761" 
d="M697 378q0 -77 -9 -126q-13 -69 -45 -100q-25 -24 -57.5 -33.5t-87.5 -9.5h-15v31q-47 -37 -114 -37q-112 0 -148 69q-22 43 -22 138q0 68 9 104q12 51 46 76q40 29 114 29q67 0 114 -38v31h68v-334q39 0 57 50.5t18 157.5q0 96 -22 142t-76 62q-45 13 -145 13
q-110 0 -161 -28q-50 -27 -67 -93q-13 -51 -14 -172q-1 -130 11 -181q16 -69 67 -97q52 -28 168 -28q89 0 135 15q57 18 85 64l62 -36q-44 -75 -142 -100q-54 -14 -145 -14q-141 0 -210 39q-66 37 -89 123q-18 69 -18 220q0 141 23 211q25 80 92 114q68 34 201 34
q127 0 189 -21q70 -24 99 -87q29 -62 29 -188zM482 310q0 85 -30 114q-26 23 -87 23q-62 0 -79 -39q-11 -25 -11 -98q0 -48 3.5 -70.5t12.5 -36.5q18 -29 75 -29q69 0 93 31q23 30 23 105z" />
    <glyph glyph-name="A" unicode="A" horiz-adv-x="651" 
d="M643 0h-129l-62 170h-260l-61 -170h-123l258 667h121zM416 272l-93 264l-94 -264h187z" />
    <glyph glyph-name="B" unicode="B" horiz-adv-x="656" 
d="M591 198q0 -102 -49 -148q-30 -28 -70.5 -39t-109.5 -11h-42h-244v667h238q95 0 128 -4q67 -9 101 -42q42 -40 43 -122q1 -68 -14 -104q-15 -37 -48 -51q36 -17 51.5 -50t15.5 -96zM468 478q0 43 -20 62q-18 16 -57 20q-17 2 -84 2h-114v-169h121h31q66 0 91 15
q32 19 32 70zM473 196q0 54 -20 72q-15 13 -36 16q-28 5 -105 5h-119v-183h119h29q73 0 96 10q19 8 27.5 27t8.5 53z" />
    <glyph glyph-name="C" unicode="C" horiz-adv-x="656" 
d="M596 480h-116q0 35 -12 52q-12 19 -42 27t-89 8q-69 0 -100 -18q-31 -19 -43 -65t-12 -151q0 -101 10 -145q12 -51 45 -70q30 -18 99 -18q91 0 119 21q24 17 24 65h116q0 -114 -77 -159q-59 -35 -173 -35q-132 0 -197 46q-56 40 -73 122q-11 52 -11 174q0 121 11 173
q18 82 74 121q65 46 197 46q131 0 190 -47q60 -46 60 -147z" />
    <glyph glyph-name="D" unicode="D" horiz-adv-x="675" 
d="M611 333q0 -104 -9 -155t-34 -88q-37 -54 -102 -74q-51 -16 -142 -16h-248v667h247q103 0 158 -22q53 -21 86 -69q27 -41 36 -100q8 -49 8 -143zM493 333q0 109 -16 157q-15 47 -55 62q-29 10 -105 10h-125v-456h126q77 0 105 10q39 14 54 60q16 48 16 157z" />
    <glyph glyph-name="E" unicode="E" horiz-adv-x="595" 
d="M535 0h-459v667h459v-105h-343v-169h333v-104h-333v-183h343v-106z" />
    <glyph glyph-name="F" unicode="F" horiz-adv-x="579" 
d="M525 562h-331v-169h322v-104h-322v-289h-118v667h449v-105z" />
    <glyph glyph-name="G" unicode="G" horiz-adv-x="679" 
d="M605 373v-129q0 -81 -13 -123q-19 -61 -74 -92q-64 -37 -186 -37q-123 0 -184 43q-54 38 -72 119q-12 56 -12 180q0 121 11 173q18 82 74 121q65 46 197 46q131 0 193 -46q65 -47 65 -148h-117q0 53 -37 71q-33 16 -113 16q-69 0 -100 -18q-31 -19 -43 -65t-12 -151
q0 -101 10 -145q11 -50 43 -70q30 -17 97 -18q75 0 110 17q32 16 42 55q7 28 7 100h-154v101h268z" />
    <glyph glyph-name="H" unicode="H" horiz-adv-x="660" 
d="M584 0h-118v288h-272v-288h-118v667h118v-273h272v273h118v-667z" />
    <glyph glyph-name="I" unicode="I" horiz-adv-x="270" 
d="M194 0h-118v667h118v-667z" />
    <glyph glyph-name="J" unicode="J" horiz-adv-x="548" 
d="M476 218v-31q0 -34 -3 -53q-24 -142 -220 -142q-115 0 -168 46q-55 47 -55 148h114q0 -51 23 -69.5t86 -18.5q50 0 73 13q22 11 28 38q4 18 4 67v451h118v-449z" />
    <glyph glyph-name="K" unicode="K" horiz-adv-x="642" 
d="M638 0h-172l-272 268v-268h-118v667h118v-270l282 270h159l-355 -331z" />
    <glyph glyph-name="L" unicode="L" horiz-adv-x="531" 
d="M525 0h-449v667h118v-561h331v-106z" />
    <glyph glyph-name="M" unicode="M" horiz-adv-x="824" 
d="M748 0h-110v518l-171 -518h-114l-169 518v-518h-108v667h156l181 -531l180 531h155v-667z" />
    <glyph glyph-name="N" unicode="N" horiz-adv-x="660" 
d="M584 0h-121l-277 479v-479h-110v667h120l278 -475v475h110v-667z" />
    <glyph glyph-name="O" unicode="O" horiz-adv-x="677" 
d="M613 335q0 -126 -13 -183q-18 -81 -74 -118q-62 -42 -187 -42q-128 0 -192 45q-55 39 -72 122q-11 52 -11 175t11 175q16 82 71 120q63 45 192 45t192 -44q55 -39 72 -120q11 -52 11 -175zM495 334q0 101 -10 146q-12 50 -46 69q-31 18 -101 18t-101 -18
q-32 -18 -43.5 -64t-11.5 -152q0 -102 10 -146q12 -50 45 -69q31 -18 101 -18t101 18q32 18 44 64t12 152z" />
    <glyph glyph-name="P" unicode="P" horiz-adv-x="620" 
d="M585 468q0 -91 -38 -138q-32 -40 -99 -54q-46 -10 -138 -10h-116v-266h-118v667h234q93 0 138 -9q66 -13 99 -53q38 -46 38 -137zM467 466q0 68 -42 87q-23 9 -79 9h-38h-114v-190h114h31q64 0 86 9q42 19 42 85z" />
    <glyph glyph-name="Q" unicode="Q" horiz-adv-x="677" 
d="M613 335q0 -80 -3.5 -122t-13.5 -74l86 -64l-62 -81l-75 55q-63 -57 -206 -57q-128 0 -192 45q-55 39 -72 122q-11 52 -11 175t11 175q16 82 71 120q63 45 192 45t192 -44q55 -39 72 -120q11 -52 11 -175zM353 192l63 83l74 -57q5 39 5 116q0 101 -10 146q-12 50 -46 69
q-31 18 -101 18t-101 -18q-32 -18 -43.5 -64t-11.5 -152q0 -102 10 -146q12 -50 45 -69q31 -18 101 -18q78 0 109 23z" />
    <glyph glyph-name="R" unicode="R" horiz-adv-x="657" 
d="M622 0h-140l-112 170q-33 49 -45.5 65t-24.5 23q-11 6 -24.5 8t-48.5 2h-33v-268h-118v667h234q94 0 138 -9q67 -13 99 -52q38 -45 38 -134q0 -80 -33 -130q-39 -56 -118 -65zM469 467q0 46 -14 67q-12 17 -35.5 22.5t-90.5 5.5h-135v-188h148q50 0 69.5 2.5t31.5 11.5
q26 18 26 79z" />
    <glyph glyph-name="S" unicode="S" horiz-adv-x="655" 
d="M599 208q-1 -118 -79 -171q-68 -45 -196 -45q-141 0 -203 45q-65 47 -65 149h118q0 -35 13 -53q13 -19 45 -27t94 -8q98 0 130 29q25 22 25 76q0 42 -16.5 58t-63.5 20l-155 5q-90 7 -133 40q-57 44 -57 145q0 119 76 166q62 37 190 37q141 0 205 -46q65 -47 65 -148
h-116q0 52 -32.5 70t-123.5 18t-118.5 -18t-27.5 -77q0 -40 15.5 -55t59.5 -19l156 -6q92 -6 136 -39q58 -45 58 -146z" />
    <glyph glyph-name="T" unicode="T" horiz-adv-x="560" 
d="M542 562h-203v-562h-118v562h-203v105h524v-105z" />
    <glyph glyph-name="U" unicode="U" horiz-adv-x="652" 
d="M580 335q0 -109 -2 -140q-6 -112 -80 -162q-62 -41 -172 -41q-126 0 -189 54q-58 51 -63 149q-2 31 -2 140v332h118v-332v-53q0 -76 7 -106q9 -41 36 -58q30 -18 93 -18q62 0 92 16q28 16 37 53q7 29 7 96v70v332h118v-332z" />
    <glyph glyph-name="V" unicode="V" horiz-adv-x="622" 
d="M619 667l-251 -667h-116l-249 667h126l183 -518l183 518h124z" />
    <glyph glyph-name="W" unicode="W" horiz-adv-x="898" 
d="M862 667l-155 -667h-124l-135 536l-137 -536h-123l-152 667h115l108 -507l128 507h125l129 -507l109 507h112z" />
    <glyph glyph-name="X" unicode="X" horiz-adv-x="628" 
d="M607 0h-135l-159 253l-158 -253h-134l224 339l-218 328h135l153 -242l152 242h135l-219 -328z" />
    <glyph glyph-name="Y" unicode="Y" horiz-adv-x="611" 
d="M609 667l-245 -379v-288h-118v288l-244 379h137l168 -274l167 274h135z" />
    <glyph glyph-name="Z" unicode="Z" horiz-adv-x="629" 
d="M569 0h-509v102l368 460h-368v105h509v-103l-367 -458h367v-106z" />
    <glyph glyph-name="bracketleft" unicode="[" horiz-adv-x="366" 
d="M341 -191h-257v997h257v-100h-147v-797h147v-100z" />
    <glyph glyph-name="backslash" unicode="\" horiz-adv-x="533" 
d="M518 -113h-107l-396 897h107z" />
    <glyph glyph-name="bracketright" unicode="]" horiz-adv-x="366" 
d="M282 -191h-257v100h147v797h-147v100h257v-997z" />
    <glyph glyph-name="asciicircum" unicode="^" horiz-adv-x="602" 
d="M572 221l-101 -39l-172 355l-168 -355l-101 40l226 454h88z" />
    <glyph glyph-name="underscore" unicode="_" horiz-adv-x="546" 
d="M546 -193h-546v102h546v-102z" />
    <glyph glyph-name="grave" unicode="`" horiz-adv-x="441" 
d="M351 541h-124l-137 126h124z" />
    <glyph glyph-name="a" unicode="a" horiz-adv-x="541" 
d="M485 0h-101v40q-55 -48 -152 -48q-99 0 -145 38q-45 38 -45 118q0 101 73 136q45 22 135 22h125q0 34 -3.5 49.5t-13.5 24.5q-21 20 -86 20q-51 0 -74 -9q-32 -13 -32 -45h-110q0 91 77 126q52 24 145 24q207 0 207 -178v-318zM377 214h-131q-54 0 -72.5 -13t-18.5 -51
q0 -36 22 -50q21 -15 73 -15q86 0 110 37q17 25 17 92z" />
    <glyph glyph-name="b" unicode="b" horiz-adv-x="563" 
d="M514 243q0 -75 -11 -118q-15 -62 -56 -94q-50 -39 -141 -39q-89 0 -141 47v-39h-102v697h113v-245q43 44 148 44q122 0 163 -80q27 -54 27 -173zM401 243q0 93 -23 122q-21 27 -79 27q-50 0 -76 -12q-27 -12 -38 -43t-11 -94q0 -62 11 -93t36.5 -43.5t77.5 -12.5
q42 0 64 13q21 13 29.5 43.5t8.5 92.5z" />
    <glyph glyph-name="c" unicode="c" horiz-adv-x="528" 
d="M481 146q0 -154 -208 -154q-146 0 -194 85q-30 53 -30 169q0 81 13 126q17 60 63 90q52 34 148 34q208 0 208 -154h-107q-1 37 -38 49q-19 5 -60 5q-51 0 -75 -15q-22 -13 -30.5 -42.5t-8.5 -94.5q0 -53 5 -80t17 -43q23 -29 92 -29q48 0 67 8q30 13 31 46h107z" />
    <glyph glyph-name="d" unicode="d" horiz-adv-x="563" 
d="M500 0h-102v39q-25 -22 -64 -34.5t-84 -12.5q-137 0 -178 91q-13 27 -18 62.5t-5 97.5q0 134 40 190q44 63 150 63q105 0 148 -44v245h113v-697zM389 243q0 62 -11 93t-36.5 43.5t-77.5 12.5q-42 0 -64 -13q-21 -13 -29.5 -43.5t-8.5 -92.5q0 -93 23 -122q21 -27 79 -27
q50 0 76 12q27 12 38 43t11 94z" />
    <glyph glyph-name="e" unicode="e" horiz-adv-x="545" 
d="M496 201h-334q0 -69 26 -93q26 -23 92 -23q103 0 104 61h106q0 -93 -81 -130q-51 -24 -133 -24q-143 0 -193 79q-34 53 -34 167q0 83 15 132q18 61 64 92q52 34 145 34q101 0 152 -39q45 -33 61 -104q10 -49 10 -152zM384 293q0 37 -4 55t-15 30q-24 25 -92 25
q-62 0 -85.5 -23.5t-23.5 -86.5h220z" />
    <glyph glyph-name="f" unicode="f" horiz-adv-x="349" 
d="M325 705v-94h-48q-46 0 -60 -18t-14 -79v-26h122v-94h-122v-394h-113v394h-78v94h78v59q0 105 69 139q39 19 115 19h51z" />
    <glyph glyph-name="g" unicode="g" horiz-adv-x="561" 
d="M498 52q0 -79 -4 -106q-13 -83 -95 -117q-53 -23 -131 -23q-95 0 -149 35q-60 40 -60 119h112q0 -29 27 -44q24 -14 67 -14q54 0 85 18q29 17 33 48q2 18 2 45v30q-22 -20 -59 -31.5t-81 -11.5q-131 0 -172 89q-24 51 -24 158q0 83 13 130q16 59 57 87q45 32 125 32
q47 0 87 -12.5t65 -34.5v39h102v-436zM386 247q0 62 -10 93q-11 31 -36 43.5t-77 12.5q-42 0 -64 -13q-20 -13 -28.5 -43.5t-8.5 -92.5q0 -50 5 -77.5t17 -41.5q21 -26 79 -26q51 0 75 10q27 12 37.5 42t10.5 93z" />
    <glyph glyph-name="h" unicode="h" horiz-adv-x="547" 
d="M491 0h-113v257q0 66 -1 78q-4 32 -21 46q-20 15 -67 15q-76 0 -99 -46q-14 -28 -14 -90v-33v-227h-113v697h113v-240q51 39 126 39q137 0 173 -84q10 -25 13 -51.5t3 -94.5v-266z" />
    <glyph glyph-name="i" unicode="i" horiz-adv-x="239" 
d="M181 613q0 -31 -18 -48q-16 -14 -44 -14q-32 0 -48 19q-14 16 -14 43q0 32 19 47q15 14 43 14q32 0 48 -18q14 -15 14 -43zM176 0h-113v488h113v-488z" />
    <glyph glyph-name="j" unicode="j" horiz-adv-x="239" 
d="M181 613q0 -31 -18 -48q-16 -14 -44 -14q-32 0 -48 19q-14 16 -14 43q0 32 19 47q15 14 43 14q32 0 48 -18q14 -15 14 -43zM-59 -190v93h48q46 0 60 18t14 79v488h113v-520q0 -105 -69 -139q-39 -19 -115 -19h-51z" />
    <glyph glyph-name="k" unicode="k" horiz-adv-x="539" 
d="M530 0h-145l-208 228v-228h-114v697h113v-404l210 195h140l-241 -224z" />
    <glyph glyph-name="l" unicode="l" horiz-adv-x="279" 
d="M279 88v-93h-32q-89 0 -129 28q-55 37 -55 130v544h113v-512q0 -35 2.5 -51t10.5 -26q15 -20 61 -20h29z" />
    <glyph glyph-name="m" unicode="m" horiz-adv-x="803" 
d="M747 0h-113v294q0 41 -2 54q-4 24 -18 35q-18 13 -55 13q-64 0 -85 -47q-13 -29 -13 -86v-38v-225h-112v294q0 39 -2 53t-8 24q-16 25 -66 25q-63 0 -84 -47q-13 -28 -13 -85v-41v-223h-113v488h98v-43q51 51 133 51q83 0 128 -51q30 27 64 39t83 12q63 0 106 -23
q40 -22 58 -62q14 -32 14 -88v-31v-292z" />
    <glyph glyph-name="n" unicode="n" horiz-adv-x="547" 
d="M491 0h-113v257q0 66 -1 78q-4 32 -21 46q-20 15 -67 15q-76 0 -99 -46q-14 -28 -14 -90v-33v-227h-113v488h98v-39q53 47 141 47q137 0 173 -84q10 -25 13 -51.5t3 -94.5v-266z" />
    <glyph glyph-name="o" unicode="o" horiz-adv-x="562" 
d="M513 244q0 -81 -11 -124q-12 -46 -41 -73q-56 -55 -180 -55q-66 0 -110 14q-42 13 -70 41q-29 27 -40.5 71.5t-11.5 125.5t11 124q12 46 41 73q32 32 82 45q40 10 98 10q124 0 180 -55q29 -27 40.5 -71.5t11.5 -125.5zM400 244q0 53 -5 79.5t-17 42.5q-24 30 -97 30
q-54 0 -79 -15q-23 -13 -31.5 -42t-8.5 -95q0 -53 5 -79.5t17 -42.5q24 -30 97 -30q54 0 79 15q23 13 31.5 42t8.5 95z" />
    <glyph glyph-name="p" unicode="p" horiz-adv-x="563" 
d="M514 243q0 -122 -40 -179q-50 -72 -170 -72q-47 0 -76.5 10t-51.5 33v-226h-113v679h102v-39q56 49 152 47q84 -1 128 -32q41 -28 57 -87q12 -47 12 -134zM401 243q0 93 -23 124q-21 29 -79 29q-50 0 -75 -13q-27 -13 -38 -45t-11 -95q0 -62 11 -93q10 -32 35.5 -45
t77.5 -13q42 0 64 14q21 13 29.5 44t8.5 93z" />
    <glyph glyph-name="q" unicode="q" horiz-adv-x="559" 
d="M496 -191h-113v226q-46 -43 -142 -43q-131 0 -171 91q-12 28 -16.5 63t-4.5 97q0 83 13 131q15 60 55 89q45 33 125 33q47 0 87.5 -12.5t65.5 -34.5v39h101v-679zM384 243q0 96 -29 127q-26 26 -93 26q-41 0 -62 -14t-29.5 -45.5t-8.5 -93.5q0 -93 22 -123q21 -28 78 -28
q49 0 74 12q26 13 37 44.5t11 94.5z" />
    <glyph glyph-name="r" unicode="r" horiz-adv-x="465" 
d="M453 342h-109q0 34 -19 46q-15 9 -50 9q-32 0 -55 -15t-33 -43q-11 -30 -11 -98v-29v-212h-113v488h98v-44q49 52 134 52t123 -42q35 -38 35 -112z" />
    <glyph glyph-name="s" unicode="s" horiz-adv-x="520" 
d="M476 342h-104q0 37 -23 50q-20 11 -67 13h-16q-53 0 -75 -12t-23 -40q-1 -39 23 -50q13 -6 56 -8q93 -6 109 -9q57 -9 85 -37q33 -36 32 -108q-1 -90 -73 -125q-53 -26 -153 -24q-107 2 -154 38q-49 36 -49 116h104q0 -35 21.5 -48.5t76.5 -15.5h17q53 0 75 12t23 42
q1 42 -25 53q-15 7 -63 9q-82 5 -106 9q-55 10 -81 38q-32 35 -31 105q1 87 69 121q49 25 144 25h13q103 -2 149 -39t46 -115z" />
    <glyph glyph-name="t" unicode="t" horiz-adv-x="350" 
d="M331 89v-94h-51q-89 0 -129 28q-55 37 -55 130v241h-78v94h78v179h113v-179h122v-94h-122v-208q0 -35 2.5 -51t10.5 -26q15 -20 61 -20h48z" />
    <glyph glyph-name="u" unicode="u" horiz-adv-x="547" 
d="M484 0h-98v39q-53 -47 -141 -47q-137 0 -173 84q-10 25 -13 51.5t-3 94.5v266h113v-257v-40q0 -34 3.5 -50.5t12.5 -27.5q19 -21 73 -21q76 0 99 46q14 28 14 90v33v227h113v-488z" />
    <glyph glyph-name="v" unicode="v" horiz-adv-x="524" 
d="M510 488l-191 -488h-113l-192 488h121l129 -358l129 358h117z" />
    <glyph glyph-name="w" unicode="w" horiz-adv-x="733" 
d="M715 488l-132 -488h-113l-100 380l-103 -380h-117l-132 488h111l85 -364l98 364h110l99 -364l85 364h109z" />
    <glyph glyph-name="x" unicode="x" horiz-adv-x="536" 
d="M521 0h-133l-122 176l-123 -176h-128l186 248l-179 240h133l115 -166l117 166h129l-181 -239z" />
    <glyph glyph-name="y" unicode="y" horiz-adv-x="547" 
d="M484 488v-436q0 -79 -4 -106q-22 -140 -209 -140q-95 0 -149 35q-60 40 -60 119h112q2 -58 94 -58q95 0 104 66q2 16 2 65q-19 -19 -53 -30t-76 -11q-137 0 -173 84q-10 25 -13 51.5t-3 94.5v266h113v-257v-40q0 -34 3.5 -50.5t12.5 -27.5q19 -21 73 -21q76 0 99 46
q14 28 14 90v33v227h113z" />
    <glyph glyph-name="z" unicode="z" horiz-adv-x="500" 
d="M455 0h-410v97l270 297h-270v94h410v-97l-268 -295h268v-96z" />
    <glyph glyph-name="braceleft" unicode="{" horiz-adv-x="400" 
d="M371 -191q-70 0 -103 9q-38 9 -64 34q-31 30 -43 67t-12 103v129q0 31 -4 43.5t-20 28.5q-34 34 -42 45q-17 25 -17 50q0 28 22 55q6 8 37 39q16 16 20 28.5t4 43.5v129q0 66 12 102q12 38 43 68q25 25 60.5 34t106.5 9v-100q-44 0 -64.5 -4.5t-30.5 -16.5
q-10 -11 -13.5 -31t-3.5 -58v-164q0 -47 -20 -74q-2 -3 -37 -38q-13 -13 -13 -25q0 -10 10 -20l28 -27q17 -17 24.5 -36.5t7.5 -48.5v-164q0 -52 7 -73q8 -22 29.5 -29.5t75.5 -7.5v-100z" />
    <glyph glyph-name="bar" unicode="|" horiz-adv-x="290" 
d="M200 -191h-110v858h110v-858z" />
    <glyph glyph-name="braceright" unicode="}" horiz-adv-x="400" 
d="M334 318q0 -28 -22 -56q-7 -9 -37 -39q-16 -16 -20 -28.5t-4 -43.5v-129q0 -66 -12 -102q-12 -38 -43 -68q-25 -25 -60.5 -34t-106.5 -9v100q44 0 64.5 4.5t30.5 16.5q10 11 13.5 31t3.5 58v164q0 47 22 74l38 38q10 10 10 20q0 12 -13 25l-28 27q-15 16 -22 36t-7 49
v164q0 52 -7 73q-8 22 -29.5 29.5t-75.5 7.5v100q70 0 103 -9q38 -9 64 -34q31 -30 43 -67t12 -103v-129q0 -31 4 -43.5t20 -28.5q35 -35 42 -45q17 -24 17 -49z" />
    <glyph glyph-name="asciitilde" unicode="~" horiz-adv-x="601" 
d="M569 257q-55 -50 -91 -70q-46 -26 -88 -26q-40 0 -80 23q-45 25 -65 33.5t-36 8.5q-20 0 -41 -12t-69 -51l-67 68q55 50 91 70q46 26 88 26q40 0 80 -23q45 -25 65 -33.5t36 -8.5q20 0 41 12t69 51z" />
    <glyph glyph-name="nonbreakingspace" unicode="&#xa0;" horiz-adv-x="225" 
 />
    <glyph glyph-name="exclamdown" unicode="&#xa1;" horiz-adv-x="298" 
d="M218 425q0 -69 -69 -69t-69 69q0 36 20 54q17 17 49 17q36 0 54 -22q15 -18 15 -49zM203 -179h-110v477h110v-477z" />
    <glyph glyph-name="cent" unicode="&#xa2;" horiz-adv-x="562" 
d="M509 146q0 -138 -174 -152v-89h-98v89q-122 12 -162 93q-26 52 -26 159q0 75 11 118q15 57 53 87q44 36 124 43v81h98v-81q174 -14 174 -152h-123q0 37 -39 49q-19 5 -61 5q-51 0 -77 -15q-26 -13 -36.5 -44.5t-10.5 -92.5q0 -59 9 -89q11 -34 38 -48q26 -15 77 -15
q48 0 69 8q31 13 31 46h123z" />
    <glyph glyph-name="sterling" unicode="&#xa3;" horiz-adv-x="593" 
d="M557 0h-510v102h67v188h-67v102h67v65q0 67 6 93q10 41 41 70q57 54 172 54q98 0 147 -28q69 -40 69 -140h-109q0 37 -21.5 51.5t-76.5 14.5q-53 0 -77 -10q-22 -10 -30 -31t-8 -72v-67h279v-102h-279v-188h330v-102z" />
    <glyph glyph-name="currency" unicode="&#xa4;" horiz-adv-x="595" 
d="M297 575q68 0 124 -39l85 85l70 -70l-85 -85q38 -59 38 -122q0 -69 -37 -127l84 -83l-70 -70l-84 83q-56 -36 -125 -36q-70 0 -126 36l-82 -83l-70 70l83 82q-37 58 -37 128q0 65 36 124l-82 83l70 70l82 -83q58 37 126 37zM297 475q-60 0 -99 -43q-33 -36 -33 -88
q0 -60 43 -99q37 -34 89 -34q59 0 98 44q34 38 34 89q0 58 -44 97q-38 34 -88 34z" />
    <glyph glyph-name="yen" unicode="&#xa5;" horiz-adv-x="629" 
d="M611 667l-148 -232h70v-92h-129l-34 -57h163v-92h-163v-194h-113v194h-164v92h163l-34 57h-129v92h72l-147 232h129l165 -271l169 271h130z" />
    <glyph glyph-name="brokenbar" unicode="&#xa6;" horiz-adv-x="290" 
d="M200 326h-110v341h110v-341zM200 -191h-110v340h110v-340z" />
    <glyph glyph-name="section" unicode="&#xa7;" horiz-adv-x="588" 
d="M516 48q0 -97 -76 -135q-49 -24 -139 -25q-119 -1 -172 38q-55 40 -55 130h113q0 -39 26 -53q25 -14 88 -13q59 0 80 15q19 15 19 53q0 46 -35 56q-15 4 -74 4q-65 0 -96 6q-43 9 -72 32q-50 39 -50 122q0 89 60 115q-61 29 -61 121q0 97 76 135q49 24 139 25
q119 1 172 -38q55 -40 55 -130h-113q0 39 -26 53q-25 14 -88 13q-59 0 -80 -15q-19 -15 -19 -53q0 -46 34 -56q15 -4 75 -4q65 0 96 -6q43 -9 72 -32q50 -39 50 -122q0 -89 -60 -115q61 -29 61 -121zM399 283q0 37 -21.5 49.5t-85.5 12.5q-56 0 -77 -12q-27 -15 -27 -55
q0 -37 21.5 -49.5t85.5 -12.5q56 0 77 12q27 15 27 55z" />
    <glyph glyph-name="dieresis" unicode="&#xa8;" horiz-adv-x="436" 
d="M384 609q0 -59 -59 -59q-58 0 -58 59q0 30 14 44t44 14q31 0 45 -14t14 -44zM168 609q0 -59 -59 -59q-58 0 -58 59q0 30 14 44t44 14q31 0 45 -14t14 -44z" />
    <glyph glyph-name="copyright" unicode="&#xa9;" horiz-adv-x="798" 
d="M734 334q0 -134 -28 -205q-31 -75 -104 -106q-70 -31 -204 -31q-135 0 -205 31q-72 32 -102 107q-27 70 -27 206t27 205q30 74 102 104q69 29 205 29q135 0 205 -29q73 -31 103 -105q28 -70 28 -206zM660 337q0 112 -20 165q-21 57 -78 80q-53 21 -164 21
q-113 0 -166 -22q-56 -23 -76 -82q-18 -52 -18 -166q0 -111 19 -164q21 -59 76 -83q54 -23 165 -23t165 24q56 25 78 85q19 54 19 165zM589 258q0 -88 -57 -121q-43 -26 -132 -26q-81 0 -125 23q-43 22 -61 72q-16 45 -16 128q0 81 16 126q18 50 62 73t124 23q102 0 145 -35
q44 -34 44 -112h-76q0 45 -23.5 61t-89.5 16q-56 0 -83 -16q-24 -13 -32.5 -42t-8.5 -94q0 -61 7 -87q8 -35 34 -50q27 -16 83 -16q66 0 88 14q25 17 25 63h76z" />
    <glyph glyph-name="ordfeminine" unicode="&#xaa;" horiz-adv-x="386" 
d="M350 336h-67v32q-26 -21 -50 -29t-57 -8q-75 0 -110 27q-34 26 -34 79q0 71 53 95q32 15 96 15h94q0 35 -12 46q-18 16 -68 16q-77 0 -77 -36h-75q0 62 63 87q37 14 95 14q76 0 112 -29q37 -29 37 -90v-29v-190zM274 482h-95q-42 0 -57 -10t-15 -35q0 -24 14 -32
q15 -9 54 -9q55 0 78 21q21 21 21 65z" />
    <glyph glyph-name="guillemotleft" unicode="&#xab;" horiz-adv-x="508" 
d="M472 99l-72 -67q-75 67 -101 100q-44 56 -44 109q0 47 32 95.5t112 120.5l73 -68l-39 -39q-40 -40 -49 -53q-20 -27 -20 -55q0 -31 27 -64q10 -11 51 -50zM255 99l-72 -67q-75 67 -101 100q-44 56 -44 109q0 47 32 95.5t112 120.5l73 -68l-39 -39q-40 -40 -49 -53
q-20 -27 -20 -55q0 -31 27 -64q10 -11 51 -50z" />
    <glyph glyph-name="logicalnot" unicode="&#xac;" horiz-adv-x="602" 
d="M569 0h-106v283h-430v102h536v-385z" />
    <glyph glyph-name="uni00AD" unicode="&#xad;" horiz-adv-x="540" 
d="M475 193h-410v102h410v-102z" />
    <glyph glyph-name="registered" unicode="&#xae;" horiz-adv-x="518" 
d="M486 448q0 -73 -10.5 -113.5t-36.5 -65.5q-49 -48 -180 -48q-132 0 -181 48q-25 25 -35.5 65.5t-10.5 114.5q0 78 11 119q11 38 35 61q24 24 67 34.5t114 10.5q92 0 139 -19q49 -20 69 -69q19 -46 19 -138zM428 450q0 59 -7 89.5t-25 47.5q-15 14 -51.5 22.5t-85.5 8.5
t-86 -8.5t-52 -22.5q-17 -16 -24 -48t-7 -92q0 -58 7 -89t24 -48q15 -15 52.5 -24t85.5 -9t85 9t52 24q17 17 24 48q8 33 8 92zM362 318h-54v79q0 19 -3.5 24t-18.5 6h-9l-20 -1h-35v-108h-56v265h94q31 0 46 -2q29 -5 42.5 -21t13.5 -46q0 -43 -28 -59q16 -7 22 -20
q6 -14 6 -45v-72zM306 505q0 19 -5 24q-4 4 -10 4.5t-36 0.5h-35v-58h38h21q14 0 20 2q7 7 7 27z" />
    <glyph glyph-name="macron" unicode="&#xaf;" horiz-adv-x="440" 
d="M397 569h-355v80h355v-80z" />
    <glyph glyph-name="degree" unicode="&#xb0;" horiz-adv-x="511" 
d="M405 524q0 -85 -41 -122q-36 -32 -108 -32q-83 0 -119 42q-31 37 -31 112q0 85 41 120q35 30 108 30q84 0 119 -40q31 -35 31 -110zM331 522q0 46 -16 63t-60 17q-47 0 -62 -20q-13 -18 -13 -60q0 -46 16 -63t59 -17q47 0 63 20q13 17 13 60z" />
    <glyph glyph-name="plusminus" unicode="&#xb1;" horiz-adv-x="602" 
d="M569 321h-220v-167h-99v167h-217v102h218v167h98v-167h220v-102zM569 0h-536v102h536v-102z" />
    <glyph glyph-name="twosuperior" unicode="&#xb2;" 
d="M353 553q0 -66 -44 -96q-23 -16 -90 -34q-50 -14 -61 -23q-12 -10 -12 -40v-25h206v-68h-283v102q0 67 57 97q20 10 56 20l44 12q32 9 41.5 19.5t9.5 35.5q0 33 -13.5 44t-52.5 11t-53 -8.5t-14 -32.5h-76q0 65 47 90q34 18 95 18q75 0 110 -30q33 -30 33 -92z" />
    <glyph glyph-name="threesuperior" unicode="&#xb3;" 
d="M359 382q0 -59 -33 -91q-35 -32 -115 -32q-72 0 -106 25q-37 27 -37 86h75q0 -25 15 -34.5t53 -9.5q48 0 61 12q11 11 11 43q0 40 -15 51q-14 10 -55 10h-60v66h60q40 0 53 9.5t13 39.5t-12 40q-14 11 -54 11t-54 -8.5t-14 -32.5h-74q0 65 47 90q32 18 95 18
q76 0 110 -30q32 -28 32 -86q0 -32 -10 -54.5t-28 -29.5q19 -7 30.5 -32t11.5 -61z" />
    <glyph glyph-name="acute" unicode="&#xb4;" horiz-adv-x="436" 
d="M350 667l-138 -127h-126l138 127h126z" />
    <glyph glyph-name="mu" unicode="&#xb5;" horiz-adv-x="554" 
d="M491 0h-102v37q-50 -45 -132 -45q-22 0 -48 5.5t-37 12.5v-201h-109v679h113v-257v-40q0 -33 3.5 -49.5t12.5 -26.5q18 -20 73 -20q76 0 99 45q14 26 14 89v32v227h113v-488z" />
    <glyph glyph-name="paragraph" unicode="&#xb6;" horiz-adv-x="621" 
d="M534 0h-100v566h-60v-566h-100v279q-131 -1 -184 41q-57 45 -57 152q0 108 61 155q50 39 150 40h63h227v-667zM274 379v187q-48 0 -70 -3.5t-34 -12.5q-24 -18 -24 -75q0 -46 15 -68q12 -17 33.5 -22.5t79.5 -5.5z" />
    <glyph glyph-name="periodcentered" unicode="&#xb7;" horiz-adv-x="242" 
d="M190 337q0 -36 -20 -54q-17 -17 -49 -17q-36 0 -54 22q-15 18 -15 49q0 69 69 69t69 -69z" />
    <glyph glyph-name="cedilla" unicode="&#xb8;" horiz-adv-x="440" 
d="M303 -110q0 -44 -23 -64q-21 -19 -65 -19q-88 0 -88 74h54q0 -14 7 -19t27 -5q18 0 24.5 6.5t6.5 24.5q0 29 -36 31h-29v81h57v-38q65 -4 65 -72z" />
    <glyph glyph-name="onesuperior" unicode="&#xb9;" 
d="M256 267h-77v292l-59 -51l-47 53l123 106h60v-400z" />
    <glyph glyph-name="ordmasculine" unicode="&#xba;" horiz-adv-x="386" 
d="M356 503q0 -52 -8.5 -82.5t-29.5 -50.5q-39 -38 -125 -38q-87 0 -126 38q-21 20 -29 49.5t-8 83.5t8 83.5t29 49.5q39 38 126 38q86 0 125 -38q21 -20 29.5 -50.5t8.5 -82.5zM280 503q0 38 -3 55t-11 27q-18 21 -73 21q-62 0 -77 -28q-10 -17 -10 -75q0 -38 3 -55t11 -27
q18 -21 73 -21q62 0 77 28q10 17 10 75z" />
    <glyph glyph-name="guillemotright" unicode="&#xbb;" horiz-adv-x="508" 
d="M470 241q0 -59 -55 -123q-24 -27 -90 -86l-72 67l30 29q45 43 56 58q22 28 22 56q0 31 -25 62q-7 9 -44 46l-39 39l73 68q71 -64 101 -105q43 -59 43 -111zM253 241q0 -59 -55 -123q-24 -27 -90 -86l-72 67l30 29q45 43 56 58q22 28 22 56q0 31 -25 62q-7 9 -44 46
l-39 39l73 68q71 -64 101 -105q43 -59 43 -111z" />
    <glyph glyph-name="onequarter" unicode="&#xbc;" horiz-adv-x="939" 
d="M866 91h-55v-91h-75v91h-179v54l182 255h72v-244h55v-65zM736 156v131l-93 -131h93zM681 667l-337 -667h-85l336 667h86zM256 267h-77v292l-59 -51l-47 53l123 106h60v-400z" />
    <glyph glyph-name="onehalf" unicode="&#xbd;" horiz-adv-x="939" 
d="M867 286q0 -66 -44 -96q-23 -16 -90 -34q-50 -14 -61 -23q-12 -10 -12 -40v-25h206v-68h-283v102q0 67 57 97q20 10 56 20l44 12q32 9 41.5 19.5t9.5 35.5q0 33 -13.5 44t-52.5 11t-53 -8.5t-14 -32.5h-76q0 65 47 90q34 18 95 18q75 0 110 -30q33 -30 33 -92zM681 667
l-337 -667h-85l336 667h86zM256 267h-77v292l-59 -51l-47 53l123 106h60v-400z" />
    <glyph glyph-name="threequarters" unicode="&#xbe;" horiz-adv-x="939" 
d="M359 382q0 -59 -33 -91q-35 -32 -115 -32q-72 0 -106 25q-37 27 -37 86h75q0 -25 15 -34.5t53 -9.5q48 0 61 12q11 11 11 43q0 40 -15 51q-14 10 -55 10h-60v66h60q40 0 53 9.5t13 39.5t-12 40q-14 11 -54 11t-54 -8.5t-14 -32.5h-74q0 65 47 90q32 18 95 18
q76 0 110 -30q32 -28 32 -86q0 -32 -10 -54.5t-28 -29.5q19 -7 30.5 -32t11.5 -61zM866 91h-55v-91h-75v91h-179v54l182 255h72v-244h55v-65zM736 156v131l-93 -131h93zM681 667l-337 -667h-85l336 667h86z" />
    <glyph glyph-name="questiondown" unicode="&#xbf;" horiz-adv-x="464" 
d="M319 425q0 -69 -69 -69t-69 69q0 36 20 54q17 17 49 17q36 0 54 -22q15 -18 15 -49zM446 -18q0 -116 -66 -162q-49 -35 -145 -35q-115 0 -165 48q-49 48 -49 150q0 117 84 166q17 10 41 22q21 9 28 14.5t12 13.5q8 15 8 57v42h114v-58q0 -94 -48 -135q-19 -17 -64 -36
q-35 -16 -47 -31q-16 -19 -16 -55q0 -56 21 -77q22 -21 79 -21q63 0 86 27q17 22 17 70h110z" />
    <glyph glyph-name="Agrave" unicode="&#xc0;" horiz-adv-x="651" 
d="M643 0h-129l-62 170h-260l-61 -170h-123l258 667h121zM416 272l-93 264l-94 -264h187zM445 736h-124l-137 126h124z" />
    <glyph glyph-name="Aacute" unicode="&#xc1;" horiz-adv-x="651" 
d="M643 0h-129l-62 170h-260l-61 -170h-123l258 667h121zM416 272l-93 264l-94 -264h187zM472 862l-138 -127h-126l138 127h126z" />
    <glyph glyph-name="Acircumflex" unicode="&#xc2;" horiz-adv-x="651" 
d="M643 0h-129l-62 170h-260l-61 -170h-123l258 667h121zM416 272l-93 264l-94 -264h187zM511 735h-113l-71 69l-69 -69h-115l129 127h110z" />
    <glyph glyph-name="Atilde" unicode="&#xc3;" horiz-adv-x="651" 
d="M643 0h-129l-62 170h-260l-61 -170h-123l258 667h121zM416 272l-93 264l-94 -264h187zM531 789l-77 -39q-33 -16 -67 -16q-36 0 -66 18l-30 20q-13 7 -25 7q-18 0 -48 -15l-58 -29l-39 71l76 38q39 17 70 17q34 0 65 -19l31 -19q13 -7 26 -7q20 0 53 17l53 27z" />
    <glyph glyph-name="Adieresis" unicode="&#xc4;" horiz-adv-x="651" 
d="M643 0h-129l-62 170h-260l-61 -170h-123l258 667h121zM416 272l-93 264l-94 -264h187zM492 804q0 -59 -59 -59q-58 0 -58 59q0 30 14 44t44 14q31 0 45 -14t14 -44zM276 804q0 -59 -59 -59q-58 0 -58 59q0 30 14 44t44 14q31 0 45 -14t14 -44z" />
    <glyph glyph-name="Aring" unicode="&#xc5;" horiz-adv-x="651" 
d="M643 0h-129l-62 170h-260l-61 -170h-123l244 634q-48 22 -48 105q0 65 33 89q27 19 88 19q70 0 96 -26q25 -24 25 -82q0 -84 -48 -106zM380 732q0 34 -11 45t-44 11q-36 0 -46 -13q-8 -11 -8 -43q0 -35 12 -44q10 -8 43 -8t43.5 10t10.5 42zM416 272l-94 264l-93 -264
h187z" />
    <glyph glyph-name="AE" unicode="&#xc6;" horiz-adv-x="950" 
d="M890 0h-419v165h-224l-108 -165h-137l446 667h442v-105h-303v-169h293v-104h-293v-183h303v-106zM471 269v239l-155 -239h155z" />
    <glyph glyph-name="Ccedilla" unicode="&#xc7;" horiz-adv-x="656" 
d="M596 480h-116q0 35 -12 52q-12 19 -42 27t-89 8q-69 0 -100 -18q-31 -19 -43 -65t-12 -151q0 -101 10 -145q12 -51 45 -70q30 -18 99 -18q91 0 119 21q24 17 24 65h116q0 -108 -69 -154q-52 -35 -155 -39v-31q65 -4 65 -72q0 -44 -23 -64q-21 -19 -65 -19q-88 0 -88 74
h54q0 -14 7 -19t27 -5q18 0 24.5 6.5t6.5 24.5q0 31 -36 31h-29v74q-117 5 -175 52q-50 41 -65 121q-10 51 -10 168q0 121 11 173q18 82 74 121q65 46 197 46q131 0 190 -47q60 -46 60 -147z" />
    <glyph glyph-name="Egrave" unicode="&#xc8;" horiz-adv-x="595" 
d="M535 0h-459v667h459v-105h-343v-169h333v-104h-333v-183h343v-106zM411 736h-124l-137 126h124z" />
    <glyph glyph-name="Eacute" unicode="&#xc9;" horiz-adv-x="595" 
d="M535 0h-459v667h459v-105h-343v-169h333v-104h-333v-183h343v-106zM440 862l-138 -127h-126l138 127h126z" />
    <glyph glyph-name="Ecircumflex" unicode="&#xca;" horiz-adv-x="595" 
d="M535 0h-459v667h459v-105h-343v-169h333v-104h-333v-183h343v-106zM486 735h-113l-71 69l-69 -69h-115l129 127h110z" />
    <glyph glyph-name="Edieresis" unicode="&#xcb;" horiz-adv-x="595" 
d="M535 0h-459v667h459v-105h-343v-169h333v-104h-333v-183h343v-106zM469 804q0 -59 -59 -59q-58 0 -58 59q0 30 14 44t44 14q31 0 45 -14t14 -44zM253 804q0 -59 -59 -59q-58 0 -58 59q0 30 14 44t44 14q31 0 45 -14t14 -44z" />
    <glyph glyph-name="Igrave" unicode="&#xcc;" horiz-adv-x="270" 
d="M194 0h-118v667h118v-667zM264 736h-124l-137 126h124z" />
    <glyph glyph-name="Iacute" unicode="&#xcd;" horiz-adv-x="270" 
d="M194 0h-118v667h118v-667zM271 862l-138 -127h-126l138 127h126z" />
    <glyph glyph-name="Icircumflex" unicode="&#xce;" horiz-adv-x="270" 
d="M194 0h-118v667h118v-667zM319 735h-113l-71 69l-69 -69h-115l129 127h110z" />
    <glyph glyph-name="Idieresis" unicode="&#xcf;" horiz-adv-x="270" 
d="M194 0h-118v667h118v-667zM302 804q0 -59 -59 -59q-58 0 -58 59q0 30 14 44t44 14q31 0 45 -14t14 -44zM86 804q0 -59 -59 -59q-58 0 -58 59q0 30 14 44t44 14q31 0 45 -14t14 -44z" />
    <glyph glyph-name="Eth" unicode="&#xd0;" horiz-adv-x="687" 
d="M623 333q0 -104 -9 -155t-34 -88q-37 -54 -102 -74q-51 -16 -142 -16h-248v283h-70v106h70v278h247q103 0 158 -22q53 -21 86 -69q27 -41 36 -100q8 -49 8 -143zM505 333q0 109 -16 157q-15 47 -55 62q-29 10 -105 10h-125v-173h179v-106h-179v-177h126q77 0 105 10
q39 14 54 60q16 48 16 157z" />
    <glyph glyph-name="Ntilde" unicode="&#xd1;" horiz-adv-x="660" 
d="M584 0h-121l-277 479v-479h-110v667h120l278 -475v475h110v-667zM535 789l-77 -39q-33 -16 -67 -16q-36 0 -66 18l-30 20q-13 7 -25 7q-18 0 -48 -15l-58 -29l-39 71l76 38q39 17 70 17q34 0 65 -19l31 -19q13 -7 26 -7q20 0 53 17l53 27z" />
    <glyph glyph-name="Ograve" unicode="&#xd2;" horiz-adv-x="677" 
d="M613 335q0 -126 -13 -183q-18 -81 -74 -118q-62 -42 -187 -42q-128 0 -192 45q-55 39 -72 122q-11 52 -11 175t11 175q16 82 71 120q63 45 192 45t192 -44q55 -39 72 -120q11 -52 11 -175zM495 334q0 101 -10 146q-12 50 -46 69q-31 18 -101 18t-101 -18
q-32 -18 -43.5 -64t-11.5 -152q0 -102 10 -146q12 -50 45 -69q31 -18 101 -18t101 18q32 18 44 64t12 152zM472 736h-124l-137 126h124z" />
    <glyph glyph-name="Oacute" unicode="&#xd3;" horiz-adv-x="677" 
d="M613 335q0 -126 -13 -183q-18 -81 -74 -118q-62 -42 -187 -42q-128 0 -192 45q-55 39 -72 122q-11 52 -11 175t11 175q16 82 71 120q63 45 192 45t192 -44q55 -39 72 -120q11 -52 11 -175zM495 334q0 101 -10 146q-12 50 -46 69q-31 18 -101 18t-101 -18
q-32 -18 -43.5 -64t-11.5 -152q0 -102 10 -146q12 -50 45 -69q31 -18 101 -18t101 18q32 18 44 64t12 152zM490 862l-138 -127h-126l138 127h126z" />
    <glyph glyph-name="Ocircumflex" unicode="&#xd4;" horiz-adv-x="677" 
d="M613 335q0 -126 -13 -183q-18 -81 -74 -118q-62 -42 -187 -42q-128 0 -192 45q-55 39 -72 122q-11 52 -11 175t11 175q16 82 71 120q63 45 192 45t192 -44q55 -39 72 -120q11 -52 11 -175zM495 334q0 101 -10 146q-12 50 -46 69q-31 18 -101 18t-101 -18
q-32 -18 -43.5 -64t-11.5 -152q0 -102 10 -146q12 -50 45 -69q31 -18 101 -18t101 18q32 18 44 64t12 152zM522 735h-113l-71 69l-69 -69h-115l129 127h110z" />
    <glyph glyph-name="Otilde" unicode="&#xd5;" horiz-adv-x="677" 
d="M613 335q0 -126 -13 -183q-18 -81 -74 -118q-62 -42 -187 -42q-128 0 -192 45q-55 39 -72 122q-11 52 -11 175t11 175q16 82 71 120q63 45 192 45t192 -44q55 -39 72 -120q11 -52 11 -175zM495 334q0 101 -10 146q-12 50 -46 69q-31 18 -101 18t-101 -18
q-32 -18 -43.5 -64t-11.5 -152q0 -102 10 -146q12 -50 45 -69q31 -18 101 -18t101 18q32 18 44 64t12 152zM542 789l-77 -39q-33 -16 -67 -16q-36 0 -66 18l-30 20q-13 7 -25 7q-18 0 -48 -15l-58 -29l-39 71l76 38q39 17 70 17q34 0 65 -19l31 -19q13 -7 26 -7q20 0 53 17
l53 27z" />
    <glyph glyph-name="Odieresis" unicode="&#xd6;" horiz-adv-x="677" 
d="M613 335q0 -126 -13 -183q-18 -81 -74 -118q-62 -42 -187 -42q-128 0 -192 45q-55 39 -72 122q-11 52 -11 175t11 175q16 82 71 120q63 45 192 45t192 -44q55 -39 72 -120q11 -52 11 -175zM495 334q0 101 -10 146q-12 50 -46 69q-31 18 -101 18t-101 -18
q-32 -18 -43.5 -64t-11.5 -152q0 -102 10 -146q12 -50 45 -69q31 -18 101 -18t101 18q32 18 44 64t12 152zM511 804q0 -59 -59 -59q-58 0 -58 59q0 30 14 44t44 14q31 0 45 -14t14 -44zM295 804q0 -59 -59 -59q-58 0 -58 59q0 30 14 44t44 14q31 0 45 -14t14 -44z" />
    <glyph glyph-name="multiply" unicode="&#xd7;" horiz-adv-x="595" 
d="M536 84l-70 -70l-169 169l-168 -169l-70 70l169 168l-169 169l70 70l168 -169l169 169l70 -70l-169 -169z" />
    <glyph glyph-name="Oslash" unicode="&#xd8;" horiz-adv-x="677" 
d="M613 333q0 -123 -12 -178q-18 -81 -73 -119q-63 -44 -189 -44q-20 0 -33 1l-33 -138l-96 22l34 131q-104 28 -132 134q-9 32 -12 71.5t-3 119.5q0 125 11 176q17 82 72 121q64 44 194 44q25 0 28 -1l33 136l95 -24l-33 -126q107 -26 136 -138q8 -33 10.5 -68.5
t2.5 -119.5zM495 336q0 129 -22 177q-11 25 -38 38l-108 -451h21q66 0 99 25q30 23 40 76q8 42 8 135zM347 567q-74 0 -105 -15q-35 -17 -47.5 -64.5t-12.5 -160.5q0 -109 14 -154q12 -37 41 -55z" />
    <glyph glyph-name="Ugrave" unicode="&#xd9;" horiz-adv-x="652" 
d="M580 335q0 -109 -2 -140q-6 -112 -80 -162q-62 -41 -172 -41q-126 0 -189 54q-58 51 -63 149q-2 31 -2 140v332h118v-332v-53q0 -76 7 -106q9 -41 36 -58q30 -18 93 -18q62 0 92 16q28 16 37 53q7 29 7 96v70v332h118v-332zM446 736h-124l-137 126h124z" />
    <glyph glyph-name="Uacute" unicode="&#xda;" horiz-adv-x="652" 
d="M580 335q0 -109 -2 -140q-6 -112 -80 -162q-62 -41 -172 -41q-126 0 -189 54q-58 51 -63 149q-2 31 -2 140v332h118v-332v-53q0 -76 7 -106q9 -41 36 -58q30 -18 93 -18q62 0 92 16q28 16 37 53q7 29 7 96v70v332h118v-332zM477 862l-138 -127h-126l138 127h126z" />
    <glyph glyph-name="Ucircumflex" unicode="&#xdb;" horiz-adv-x="652" 
d="M580 335q0 -109 -2 -140q-6 -112 -80 -162q-62 -41 -172 -41q-126 0 -189 54q-58 51 -63 149q-2 31 -2 140v332h118v-332v-53q0 -76 7 -106q9 -41 36 -58q30 -18 93 -18q62 0 92 16q28 16 37 53q7 29 7 96v70v332h118v-332zM515 735h-113l-71 69l-69 -69h-115l129 127
h110z" />
    <glyph glyph-name="Udieresis" unicode="&#xdc;" horiz-adv-x="652" 
d="M580 335q0 -109 -2 -140q-6 -112 -80 -162q-62 -41 -172 -41q-126 0 -189 54q-58 51 -63 149q-2 31 -2 140v332h118v-332v-53q0 -76 7 -106q9 -41 36 -58q30 -18 93 -18q62 0 92 16q28 16 37 53q7 29 7 96v70v332h118v-332zM496 804q0 -59 -59 -59q-58 0 -58 59
q0 30 14 44t44 14q31 0 45 -14t14 -44zM280 804q0 -59 -59 -59q-58 0 -58 59q0 30 14 44t44 14q31 0 45 -14t14 -44z" />
    <glyph glyph-name="Yacute" unicode="&#xdd;" horiz-adv-x="611" 
d="M609 667l-245 -379v-288h-118v288l-244 379h137l168 -274l167 274h135zM450 862l-138 -127h-126l138 127h126z" />
    <glyph glyph-name="Thorn" unicode="&#xde;" horiz-adv-x="620" 
d="M585 338q0 -91 -38 -138q-32 -40 -99 -54q-46 -10 -138 -10h-116v-136h-118v108v559h118v-130h115q94 0 139 -9q66 -13 99 -53q38 -47 38 -137zM467 336q0 68 -42 87q-23 9 -79 9h-39h-113v-190h114h31q64 0 86 9q42 19 42 85z" />
    <glyph glyph-name="germandbls" unicode="&#xdf;" horiz-adv-x="570" 
d="M512 196q0 -127 -80 -170q-51 -27 -151 -27h-47v103h49q74 0 97 23q19 20 19 77q0 47 -10 69t-34 30.5t-80 8.5h-41v102h41q37 0 56.5 3.5t32.5 12.5q30 21 30 80q0 33 -5 50t-18 27q-22 17 -88 17q-78 0 -97 -40q-7 -13 -9 -30t-2 -56v-476h-113v473q0 73 5 99
q10 46 41 76q57 56 175 56q120 0 173 -48q49 -45 49 -139q0 -127 -69 -154q39 -15 57.5 -55.5t18.5 -111.5z" />
    <glyph glyph-name="agrave" unicode="&#xe0;" horiz-adv-x="541" 
d="M485 0h-101v40q-55 -48 -152 -48q-99 0 -145 38q-45 38 -45 118q0 101 73 136q45 22 135 22h125q0 34 -3.5 49.5t-13.5 24.5q-21 20 -86 20q-51 0 -74 -9q-32 -13 -32 -45h-110q0 91 77 126q52 24 145 24q207 0 207 -178v-318zM377 214h-131q-54 0 -72.5 -13t-18.5 -51
q0 -36 22 -50q21 -15 73 -15q86 0 110 37q17 25 17 92zM395 541h-124l-137 126h124z" />
    <glyph glyph-name="aacute" unicode="&#xe1;" horiz-adv-x="541" 
d="M485 0h-101v40q-55 -48 -152 -48q-99 0 -145 38q-45 38 -45 118q0 101 73 136q45 22 135 22h125q0 34 -3.5 49.5t-13.5 24.5q-21 20 -86 20q-51 0 -74 -9q-32 -13 -32 -45h-110q0 91 77 126q52 24 145 24q207 0 207 -178v-318zM377 214h-131q-54 0 -72.5 -13t-18.5 -51
q0 -36 22 -50q21 -15 73 -15q86 0 110 37q17 25 17 92zM430 667l-138 -127h-126l138 127h126z" />
    <glyph glyph-name="acircumflex" unicode="&#xe2;" horiz-adv-x="541" 
d="M485 0h-101v40q-55 -48 -152 -48q-99 0 -145 38q-45 38 -45 118q0 101 73 136q45 22 135 22h125q0 34 -3.5 49.5t-13.5 24.5q-21 20 -86 20q-51 0 -74 -9q-32 -13 -32 -45h-110q0 91 77 126q52 24 145 24q207 0 207 -178v-318zM377 214h-131q-54 0 -72.5 -13t-18.5 -51
q0 -36 22 -50q21 -15 73 -15q86 0 110 37q17 25 17 92zM461 540h-113l-71 69l-69 -69h-115l129 127h110z" />
    <glyph glyph-name="atilde" unicode="&#xe3;" horiz-adv-x="541" 
d="M485 0h-101v40q-55 -48 -152 -48q-99 0 -145 38q-45 38 -45 118q0 101 73 136q45 22 135 22h125q0 34 -3.5 49.5t-13.5 24.5q-21 20 -86 20q-51 0 -74 -9q-32 -13 -32 -45h-110q0 91 77 126q52 24 145 24q207 0 207 -178v-318zM377 214h-131q-54 0 -72.5 -13t-18.5 -51
q0 -36 22 -50q21 -15 73 -15q86 0 110 37q17 25 17 92zM482 596l-77 -39q-33 -16 -67 -16q-36 0 -66 18l-30 20q-13 7 -25 7q-18 0 -48 -15l-58 -29l-39 71l76 38q39 17 70 17q34 0 65 -19l31 -19q13 -7 26 -7q20 0 53 17l53 27z" />
    <glyph glyph-name="adieresis" unicode="&#xe4;" horiz-adv-x="541" 
d="M485 0h-101v40q-55 -48 -152 -48q-99 0 -145 38q-45 38 -45 118q0 101 73 136q45 22 135 22h125q0 34 -3.5 49.5t-13.5 24.5q-21 20 -86 20q-51 0 -74 -9q-32 -13 -32 -45h-110q0 91 77 126q52 24 145 24q207 0 207 -178v-318zM377 214h-131q-54 0 -72.5 -13t-18.5 -51
q0 -36 22 -50q21 -15 73 -15q86 0 110 37q17 25 17 92zM443 609q0 -59 -59 -59q-58 0 -58 59q0 30 14 44t44 14q31 0 45 -14t14 -44zM227 609q0 -59 -59 -59q-58 0 -58 59q0 30 14 44t44 14q31 0 45 -14t14 -44z" />
    <glyph glyph-name="aring" unicode="&#xe5;" horiz-adv-x="541" 
d="M485 0h-101v40q-55 -48 -152 -48q-99 0 -145 38q-45 38 -45 118q0 101 73 136q45 22 135 22h125q0 34 -3.5 49.5t-13.5 24.5q-21 20 -86 20q-51 0 -74 -9q-32 -13 -32 -45h-110q0 111 113 139q-16 20 -16 74q0 64 32 88q28 20 90 20q70 0 97 -27q25 -25 25 -81
q0 -54 -16 -74q104 -35 104 -167v-318zM330 549q0 35 -11.5 47t-43.5 12q-35 0 -46 -15q-8 -12 -8 -44q0 -34 10.5 -44.5t44.5 -10.5q35 0 45 13q9 11 9 42zM377 214h-131q-54 0 -72.5 -13t-18.5 -51q0 -36 22 -50q21 -15 73 -15q86 0 110 37q17 25 17 92z" />
    <glyph glyph-name="ae" unicode="&#xe6;" horiz-adv-x="870" 
d="M821 206h-335q0 -70 26 -95q27 -26 92 -26q104 0 105 61h106q0 -93 -81 -130q-51 -24 -133 -24q-120 0 -171 57q-29 -31 -74 -44t-120 -13q-101 0 -147 37q-47 37 -47 116q0 101 75 134q45 20 136 20h126q0 35 -4.5 53t-16.5 28q-22 20 -85 20q-51 0 -74 -9
q-33 -13 -33 -45h-110q0 150 212 150q127 0 175 -54q51 54 155 54q98 0 148 -36q46 -32 63 -100q12 -51 12 -154zM709 298q0 60 -24 83q-25 23 -87 23q-67 0 -92 -32q-18 -25 -18 -74h221zM380 206h-132q-57 0 -75 -12q-18 -13 -18 -48q0 -34 21.5 -47.5t75.5 -13.5
q57 0 84 11q25 11 34 33.5t10 76.5z" />
    <glyph glyph-name="ccedilla" unicode="&#xe7;" horiz-adv-x="528" 
d="M481 146q0 -143 -177 -153v-31q65 -4 65 -72q0 -44 -23 -64q-21 -19 -65 -19q-88 0 -88 74h54q0 -14 7 -19t27 -5q18 0 24.5 6.5t6.5 24.5q0 29 -36 31h-29v74q-128 5 -171 90q-27 53 -27 163q0 81 13 126q17 60 63 90q52 34 148 34q208 0 208 -154h-107q-1 37 -38 49
q-19 5 -60 5q-51 0 -75 -15q-22 -13 -30.5 -42.5t-8.5 -94.5q0 -53 5 -80t17 -43q23 -29 92 -29q48 0 67 8q30 13 31 46h107z" />
    <glyph glyph-name="egrave" unicode="&#xe8;" horiz-adv-x="545" 
d="M496 201h-334q0 -69 26 -93q26 -23 92 -23q103 0 104 61h106q0 -93 -81 -130q-51 -24 -133 -24q-143 0 -193 79q-34 53 -34 167q0 83 15 132q18 61 64 92q52 34 145 34q101 0 152 -39q45 -33 61 -104q10 -49 10 -152zM384 293q0 37 -4 55t-15 30q-24 25 -92 25
q-62 0 -85.5 -23.5t-23.5 -86.5h220zM395 541h-124l-137 126h124z" />
    <glyph glyph-name="eacute" unicode="&#xe9;" horiz-adv-x="545" 
d="M496 201h-334q0 -69 26 -93q26 -23 92 -23q103 0 104 61h106q0 -93 -81 -130q-51 -24 -133 -24q-143 0 -193 79q-34 53 -34 167q0 83 15 132q18 61 64 92q52 34 145 34q101 0 152 -39q45 -33 61 -104q10 -49 10 -152zM384 293q0 37 -4 55t-15 30q-24 25 -92 25
q-62 0 -85.5 -23.5t-23.5 -86.5h220zM419 667l-138 -127h-126l138 127h126z" />
    <glyph glyph-name="ecircumflex" unicode="&#xea;" horiz-adv-x="545" 
d="M496 201h-334q0 -69 26 -93q26 -23 92 -23q103 0 104 61h106q0 -93 -81 -130q-51 -24 -133 -24q-143 0 -193 79q-34 53 -34 167q0 83 15 132q18 61 64 92q52 34 145 34q101 0 152 -39q45 -33 61 -104q10 -49 10 -152zM384 293q0 37 -4 55t-15 30q-24 25 -92 25
q-62 0 -85.5 -23.5t-23.5 -86.5h220zM460 540h-113l-71 69l-69 -69h-115l129 127h110z" />
    <glyph glyph-name="edieresis" unicode="&#xeb;" horiz-adv-x="545" 
d="M496 201h-334q0 -69 26 -93q26 -23 92 -23q103 0 104 61h106q0 -93 -81 -130q-51 -24 -133 -24q-143 0 -193 79q-34 53 -34 167q0 83 15 132q18 61 64 92q52 34 145 34q101 0 152 -39q45 -33 61 -104q10 -49 10 -152zM384 293q0 37 -4 55t-15 30q-24 25 -92 25
q-62 0 -85.5 -23.5t-23.5 -86.5h220zM442 609q0 -59 -59 -59q-58 0 -58 59q0 30 14 44t44 14q31 0 45 -14t14 -44zM226 609q0 -59 -59 -59q-58 0 -58 59q0 30 14 44t44 14q31 0 45 -14t14 -44z" />
    <glyph glyph-name="igrave" unicode="&#xec;" horiz-adv-x="239" 
d="M176 0h-113v488h113v-488zM243 541h-124l-137 126h124z" />
    <glyph glyph-name="iacute" unicode="&#xed;" horiz-adv-x="239" 
d="M176 0h-113v488h113v-488zM267 667l-138 -127h-126l138 127h126z" />
    <glyph glyph-name="icircumflex" unicode="&#xee;" horiz-adv-x="239" 
d="M176 0h-113v488h113v-488zM304 540h-113l-71 69l-69 -69h-115l129 127h110z" />
    <glyph glyph-name="idieresis" unicode="&#xef;" horiz-adv-x="239" 
d="M176 0h-113v488h113v-488zM286 609q0 -59 -59 -59q-58 0 -58 59q0 30 14 44t44 14q31 0 45 -14t14 -44zM70 609q0 -59 -59 -59q-58 0 -58 59q0 30 14 44t44 14q31 0 45 -14t14 -44z" />
    <glyph glyph-name="eth" unicode="&#xf0;" horiz-adv-x="559" 
d="M510 243q0 -82 -11 -123q-12 -43 -41 -71q-57 -57 -179 -57q-123 0 -180 57q-28 27 -38.5 68t-11.5 127q-1 75 11 117q17 59 62 90q53 35 151 35l-88 88l-55 -46l-55 57l54 46l-42 43l74 65l46 -44l51 45l57 -57l-50 -43q137 -126 184 -193q35 -48 49 -102
q12 -46 12 -102zM397 243q0 95 -34 125q-27 23 -96 23q-64 0 -85.5 -29.5t-21.5 -118.5q0 -65 5 -89q8 -33 32 -46q25 -14 82 -14q56 0 81 14q24 13 32 47q5 24 5 88z" />
    <glyph glyph-name="ntilde" unicode="&#xf1;" horiz-adv-x="547" 
d="M491 0h-113v257q0 66 -1 78q-4 32 -21 46q-20 15 -67 15q-76 0 -99 -46q-14 -28 -14 -90v-33v-227h-113v488h98v-39q53 47 141 47q137 0 173 -84q10 -25 13 -51.5t3 -94.5v-266zM481 596l-77 -39q-33 -16 -67 -16q-36 0 -66 18l-30 20q-13 7 -25 7q-18 0 -48 -15l-58 -29
l-39 71l76 38q39 17 70 17q34 0 65 -19l31 -19q13 -7 26 -7q20 0 53 17l53 27z" />
    <glyph glyph-name="ograve" unicode="&#xf2;" horiz-adv-x="562" 
d="M513 244q0 -81 -11 -124q-12 -46 -41 -73q-56 -55 -180 -55q-66 0 -110 14q-42 13 -70 41q-29 27 -40.5 71.5t-11.5 125.5t11 124q12 46 41 73q32 32 82 45q40 10 98 10q124 0 180 -55q29 -27 40.5 -71.5t11.5 -125.5zM400 244q0 53 -5 79.5t-17 42.5q-24 30 -97 30
q-54 0 -79 -15q-23 -13 -31.5 -42t-8.5 -95q0 -53 5 -79.5t17 -42.5q24 -30 97 -30q54 0 79 15q23 13 31.5 42t8.5 95zM424 541h-124l-137 126h124z" />
    <glyph glyph-name="oacute" unicode="&#xf3;" horiz-adv-x="562" 
d="M513 244q0 -81 -11 -124q-12 -46 -41 -73q-56 -55 -180 -55q-66 0 -110 14q-42 13 -70 41q-29 27 -40.5 71.5t-11.5 125.5t11 124q12 46 41 73q32 32 82 45q40 10 98 10q124 0 180 -55q29 -27 40.5 -71.5t11.5 -125.5zM400 244q0 53 -5 79.5t-17 42.5q-24 30 -97 30
q-54 0 -79 -15q-23 -13 -31.5 -42t-8.5 -95q0 -53 5 -79.5t17 -42.5q24 -30 97 -30q54 0 79 15q23 13 31.5 42t8.5 95zM442 667l-138 -127h-126l138 127h126z" />
    <glyph glyph-name="ocircumflex" unicode="&#xf4;" horiz-adv-x="562" 
d="M513 244q0 -81 -11 -124q-12 -46 -41 -73q-56 -55 -180 -55q-66 0 -110 14q-42 13 -70 41q-29 27 -40.5 71.5t-11.5 125.5t11 124q12 46 41 73q32 32 82 45q40 10 98 10q124 0 180 -55q29 -27 40.5 -71.5t11.5 -125.5zM400 244q0 53 -5 79.5t-17 42.5q-24 30 -97 30
q-54 0 -79 -15q-23 -13 -31.5 -42t-8.5 -95q0 -53 5 -79.5t17 -42.5q24 -30 97 -30q54 0 79 15q23 13 31.5 42t8.5 95zM469 540h-113l-71 69l-69 -69h-115l129 127h110z" />
    <glyph glyph-name="otilde" unicode="&#xf5;" horiz-adv-x="562" 
d="M513 244q0 -81 -11 -124q-12 -46 -41 -73q-56 -55 -180 -55q-66 0 -110 14q-42 13 -70 41q-29 27 -40.5 71.5t-11.5 125.5t11 124q12 46 41 73q32 32 82 45q40 10 98 10q124 0 180 -55q29 -27 40.5 -71.5t11.5 -125.5zM400 244q0 53 -5 79.5t-17 42.5q-24 30 -97 30
q-54 0 -79 -15q-23 -13 -31.5 -42t-8.5 -95q0 -53 5 -79.5t17 -42.5q24 -30 97 -30q54 0 79 15q23 13 31.5 42t8.5 95zM490 596l-77 -39q-33 -16 -67 -16q-36 0 -66 18l-30 20q-13 7 -25 7q-18 0 -48 -15l-58 -29l-39 71l76 38q39 17 70 17q34 0 65 -19l31 -19q13 -7 26 -7
q20 0 53 17l53 27z" />
    <glyph glyph-name="odieresis" unicode="&#xf6;" horiz-adv-x="562" 
d="M513 244q0 -81 -11 -124q-12 -46 -41 -73q-56 -55 -180 -55q-66 0 -110 14q-42 13 -70 41q-29 27 -40.5 71.5t-11.5 125.5t11 124q12 46 41 73q32 32 82 45q40 10 98 10q124 0 180 -55q29 -27 40.5 -71.5t11.5 -125.5zM400 244q0 53 -5 79.5t-17 42.5q-24 30 -97 30
q-54 0 -79 -15q-23 -13 -31.5 -42t-8.5 -95q0 -53 5 -79.5t17 -42.5q24 -30 97 -30q54 0 79 15q23 13 31.5 42t8.5 95zM453 609q0 -59 -59 -59q-58 0 -58 59q0 30 14 44t44 14q31 0 45 -14t14 -44zM237 609q0 -59 -59 -59q-58 0 -58 59q0 30 14 44t44 14q31 0 45 -14t14 -44
z" />
    <glyph glyph-name="divide" unicode="&#xf7;" horiz-adv-x="612" 
d="M380 427q0 -36 -20 -54q-17 -17 -49 -17q-36 0 -54 22q-15 18 -15 49q0 69 69 69t69 -69zM574 193h-536v102h536v-102zM380 63q0 -36 -20 -54q-17 -17 -49 -17q-36 0 -54 22q-15 18 -15 49q0 69 69 69t69 -69z" />
    <glyph glyph-name="oslash" unicode="&#xf8;" horiz-adv-x="562" 
d="M513 242q0 -81 -13 -126q-12 -42 -40 -70q-32 -32 -84 -44q-39 -10 -97 -10q-10 0 -46 3l-37 -97l-84 32l34 87q-23 11 -46 32q-29 26 -40 67.5t-11 123.5q0 83 11 126q13 47 43 77q32 31 82 43q39 10 98 10q21 0 45 -2l33 86l86 -32l-31 -79q23 -6 47 -30
q29 -29 39.5 -70t10.5 -127zM400 243q0 57 -5 83t-19 43l-107 -277h15q49 0 73 13t33.5 43.5t9.5 94.5zM294 396h-18q-47 0 -70 -12q-24 -12 -34 -43.5t-10 -95.5q0 -60 5 -84t20 -42z" />
    <glyph glyph-name="ugrave" unicode="&#xf9;" horiz-adv-x="547" 
d="M484 0h-98v39q-53 -47 -141 -47q-137 0 -173 84q-10 25 -13 51.5t-3 94.5v266h113v-257v-40q0 -34 3.5 -50.5t12.5 -27.5q19 -21 73 -21q76 0 99 46q14 28 14 90v33v227h113v-488zM408 541h-124l-137 126h124z" />
    <glyph glyph-name="uacute" unicode="&#xfa;" horiz-adv-x="547" 
d="M484 0h-98v39q-53 -47 -141 -47q-137 0 -173 84q-10 25 -13 51.5t-3 94.5v266h113v-257v-40q0 -34 3.5 -50.5t12.5 -27.5q19 -21 73 -21q76 0 99 46q14 28 14 90v33v227h113v-488zM430 667l-138 -127h-126l138 127h126z" />
    <glyph glyph-name="ucircumflex" unicode="&#xfb;" horiz-adv-x="547" 
d="M484 0h-98v39q-53 -47 -141 -47q-137 0 -173 84q-10 25 -13 51.5t-3 94.5v266h113v-257v-40q0 -34 3.5 -50.5t12.5 -27.5q19 -21 73 -21q76 0 99 46q14 28 14 90v33v227h113v-488zM456 540h-113l-71 69l-69 -69h-115l129 127h110z" />
    <glyph glyph-name="udieresis" unicode="&#xfc;" horiz-adv-x="547" 
d="M484 0h-98v39q-53 -47 -141 -47q-137 0 -173 84q-10 25 -13 51.5t-3 94.5v266h113v-257v-40q0 -34 3.5 -50.5t12.5 -27.5q19 -21 73 -21q76 0 99 46q14 28 14 90v33v227h113v-488zM442 609q0 -59 -59 -59q-58 0 -58 59q0 30 14 44t44 14q31 0 45 -14t14 -44zM226 609
q0 -59 -59 -59q-58 0 -58 59q0 30 14 44t44 14q31 0 45 -14t14 -44z" />
    <glyph glyph-name="yacute" unicode="&#xfd;" horiz-adv-x="519" 
d="M484 488v-436q0 -79 -4 -106q-22 -140 -209 -140q-95 0 -149 35q-60 40 -60 119h112q2 -58 94 -58q95 0 104 66q2 16 2 65q-19 -19 -53 -30t-76 -11q-137 0 -173 84q-10 25 -13 51.5t-3 94.5v266h113v-257v-40q0 -34 3.5 -50.5t12.5 -27.5q19 -21 73 -21q76 0 99 46
q14 28 14 90v33v227h113zM430 667l-138 -127h-126l138 127h126z" />
    <glyph glyph-name="thorn" unicode="&#xfe;" horiz-adv-x="563" 
d="M514 243q0 -122 -40 -179q-50 -72 -170 -72q-47 0 -76.5 10t-51.5 33v-226h-113v888h102v-248q56 49 152 47q84 -1 128 -32q41 -28 57 -87q12 -47 12 -134zM401 243q0 93 -23 124q-21 29 -79 29q-50 0 -75 -13q-27 -13 -38 -45t-11 -95q0 -62 11 -93q10 -32 35.5 -45
t77.5 -13q42 0 64 14q21 13 29.5 44t8.5 93z" />
    <glyph glyph-name="ydieresis" unicode="&#xff;" horiz-adv-x="519" 
d="M484 488v-436q0 -79 -4 -106q-22 -140 -209 -140q-95 0 -149 35q-60 40 -60 119h112q2 -58 94 -58q95 0 104 66q2 16 2 65q-19 -19 -53 -30t-76 -11q-137 0 -173 84q-10 25 -13 51.5t-3 94.5v266h113v-257v-40q0 -34 3.5 -50.5t12.5 -27.5q19 -21 73 -21q76 0 99 46
q14 28 14 90v33v227h113zM442 609q0 -59 -59 -59q-58 0 -58 59q0 30 14 44t44 14q31 0 45 -14t14 -44zM226 609q0 -59 -59 -59q-58 0 -58 59q0 30 14 44t44 14q31 0 45 -14t14 -44z" />
    <glyph glyph-name="Amacron" unicode="&#x100;" horiz-adv-x="651" 
d="M643 0h-129l-62 170h-260l-61 -170h-123l258 667h121zM416 272l-93 264l-94 -264h187zM503 777h-355v80h355v-80z" />
    <glyph glyph-name="amacron" unicode="&#x101;" horiz-adv-x="541" 
d="M485 0h-101v40q-55 -48 -152 -48q-99 0 -145 38q-45 38 -45 118q0 101 73 136q45 22 135 22h125q0 34 -3.5 49.5t-13.5 24.5q-21 20 -86 20q-51 0 -74 -9q-32 -13 -32 -45h-110q0 91 77 126q52 24 145 24q207 0 207 -178v-318zM377 214h-131q-54 0 -72.5 -13t-18.5 -51
q0 -36 22 -50q21 -15 73 -15q86 0 110 37q17 25 17 92zM455 569h-355v80h355v-80z" />
    <glyph glyph-name="Abreve" unicode="&#x102;" horiz-adv-x="651" 
d="M643 0h-129l-62 170h-260l-61 -170h-123l258 667h121zM416 272l-93 264l-94 -264h187zM472 867q0 -80 -37 -107q-32 -24 -110 -24q-88 0 -119 32q-28 28 -28 99h70q0 -37 17 -51t60 -14q42 0 58 12q19 15 19 53h70z" />
    <glyph glyph-name="abreve" unicode="&#x103;" horiz-adv-x="541" 
d="M485 0h-101v40q-55 -48 -152 -48q-99 0 -145 38q-45 38 -45 118q0 101 73 136q45 22 135 22h125q0 34 -3.5 49.5t-13.5 24.5q-21 20 -86 20q-51 0 -74 -9q-32 -13 -32 -45h-110q0 91 77 126q52 24 145 24q207 0 207 -178v-318zM377 214h-131q-54 0 -72.5 -13t-18.5 -51
q0 -36 22 -50q21 -15 73 -15q86 0 110 37q17 25 17 92zM424 667q0 -80 -37 -107q-32 -24 -110 -24q-88 0 -119 32q-28 28 -28 99h70q0 -37 17 -51t60 -14q42 0 58 12q19 15 19 53h70z" />
    <glyph glyph-name="Aogonek" unicode="&#x104;" horiz-adv-x="651" 
d="M416 272l-93 264l-94 -264h187zM660 -161v-78q-27 -6 -56 -6q-72 0 -115 34q-44 35 -44 98q0 39 16 66q16 28 52 51l-61 166h-260l-61 -170h-123l258 667h121l256 -667q-58 -27 -83 -54q-21 -23 -21 -50q0 -59 83 -59q16 0 38 2z" />
    <glyph glyph-name="aogonek" unicode="&#x105;" horiz-adv-x="541" 
d="M377 214h-131q-54 0 -72.5 -13t-18.5 -51q0 -36 22 -50q21 -15 73 -15q86 0 110 37q17 25 17 92zM483 -163l24 1v-80q-16 -3 -45 -3q-69 0 -111 34q-43 35 -43 98q0 79 76 124v29q-55 -48 -152 -48q-99 0 -145 38q-45 38 -45 118q0 101 73 136q45 22 135 22h125
q0 34 -3.5 49.5t-13.5 24.5q-21 20 -86 20q-51 0 -74 -9q-32 -13 -32 -45h-110q0 91 77 126q52 24 145 24q207 0 207 -178v-318q-49 -27 -67 -48q-18 -23 -18 -56q0 -59 83 -59z" />
    <glyph glyph-name="Cacute" unicode="&#x106;" horiz-adv-x="656" 
d="M596 480h-116q0 35 -12 52q-12 19 -42 27t-89 8q-69 0 -100 -18q-31 -19 -43 -65t-12 -151q0 -101 10 -145q12 -51 45 -70q30 -18 99 -18q91 0 119 21q24 17 24 65h116q0 -114 -77 -159q-59 -35 -173 -35q-132 0 -197 46q-56 40 -73 122q-11 52 -11 174q0 121 11 173
q18 82 74 121q65 46 197 46q131 0 190 -47q60 -46 60 -147zM468 862l-138 -127h-126l138 127h126z" />
    <glyph glyph-name="cacute" unicode="&#x107;" horiz-adv-x="528" 
d="M481 146q0 -154 -208 -154q-146 0 -194 85q-30 53 -30 169q0 81 13 126q17 60 63 90q52 34 148 34q208 0 208 -154h-107q-1 37 -38 49q-19 5 -60 5q-51 0 -75 -15q-22 -13 -30.5 -42.5t-8.5 -94.5q0 -53 5 -80t17 -43q23 -29 92 -29q48 0 67 8q30 13 31 46h107zM398 667
l-138 -127h-126l138 127h126z" />
    <glyph glyph-name="Ccircumflex" unicode="&#x108;" horiz-adv-x="656" 
d="M596 480h-116q0 35 -12 52q-12 19 -42 27t-89 8q-69 0 -100 -18q-31 -19 -43 -65t-12 -151q0 -101 10 -145q12 -51 45 -70q30 -18 99 -18q91 0 119 21q24 17 24 65h116q0 -114 -77 -159q-59 -35 -173 -35q-132 0 -197 46q-56 40 -73 122q-11 52 -11 174q0 121 11 173
q18 82 74 121q65 46 197 46q131 0 190 -47q60 -46 60 -147zM522 735h-113l-71 69l-69 -69h-115l129 127h110z" />
    <glyph glyph-name="ccircumflex" unicode="&#x109;" horiz-adv-x="528" 
d="M481 146q0 -154 -208 -154q-146 0 -194 85q-30 53 -30 169q0 81 13 126q17 60 63 90q52 34 148 34q208 0 208 -154h-107q-1 37 -38 49q-19 5 -60 5q-51 0 -75 -15q-22 -13 -30.5 -42.5t-8.5 -94.5q0 -53 5 -80t17 -43q23 -29 92 -29q48 0 67 8q30 13 31 46h107zM458 540
h-113l-71 69l-69 -69h-115l129 127h110z" />
    <glyph glyph-name="Cdotaccent" unicode="&#x10a;" horiz-adv-x="656" 
d="M596 480h-116q0 35 -12 52q-12 19 -42 27t-89 8q-69 0 -100 -18q-31 -19 -43 -65t-12 -151q0 -101 10 -145q12 -51 45 -70q30 -18 99 -18q91 0 119 21q24 17 24 65h116q0 -114 -77 -159q-59 -35 -173 -35q-132 0 -197 46q-56 40 -73 122q-11 52 -11 174q0 121 11 173
q18 82 74 121q65 46 197 46q131 0 190 -47q60 -46 60 -147zM397 804q0 -59 -59 -59q-58 0 -58 59q0 30 14 44t44 14q31 0 45 -14t14 -44z" />
    <glyph glyph-name="cdotaccent" unicode="&#x10b;" horiz-adv-x="528" 
d="M481 146q0 -154 -208 -154q-146 0 -194 85q-30 53 -30 169q0 81 13 126q17 60 63 90q52 34 148 34q208 0 208 -154h-107q-1 37 -38 49q-19 5 -60 5q-51 0 -75 -15q-22 -13 -30.5 -42.5t-8.5 -94.5q0 -53 5 -80t17 -43q23 -29 92 -29q48 0 67 8q30 13 31 46h107zM333 609
q0 -59 -59 -59q-58 0 -58 59q0 30 14 44t44 14q31 0 45 -14t14 -44z" />
    <glyph glyph-name="Ccaron" unicode="&#x10c;" horiz-adv-x="656" 
d="M596 480h-116q0 35 -12 52q-12 19 -42 27t-89 8q-69 0 -100 -18q-31 -19 -43 -65t-12 -151q0 -101 10 -145q12 -51 45 -70q30 -18 99 -18q91 0 119 21q24 17 24 65h116q0 -114 -77 -159q-59 -35 -173 -35q-132 0 -197 46q-56 40 -73 122q-11 52 -11 174q0 121 11 173
q18 82 74 121q65 46 197 46q131 0 190 -47q60 -46 60 -147zM522 863l-129 -127h-110l-129 127h113l71 -69l69 69h115z" />
    <glyph glyph-name="ccaron" unicode="&#x10d;" horiz-adv-x="528" 
d="M481 146q0 -154 -208 -154q-146 0 -194 85q-30 53 -30 169q0 81 13 126q17 60 63 90q52 34 148 34q208 0 208 -154h-107q-1 37 -38 49q-19 5 -60 5q-51 0 -75 -15q-22 -13 -30.5 -42.5t-8.5 -94.5q0 -53 5 -80t17 -43q23 -29 92 -29q48 0 67 8q30 13 31 46h107zM458 667
l-129 -127h-110l-129 127h113l71 -69l69 69h115z" />
    <glyph glyph-name="Dcaron" unicode="&#x10e;" horiz-adv-x="675" 
d="M611 333q0 -104 -9 -155t-34 -88q-37 -54 -102 -74q-51 -16 -142 -16h-248v667h247q103 0 158 -22q53 -21 86 -69q27 -41 36 -100q8 -49 8 -143zM493 333q0 109 -16 157q-15 47 -55 62q-29 10 -105 10h-125v-456h126q77 0 105 10q39 14 54 60q16 48 16 157zM507 863
l-129 -127h-110l-129 127h113l71 -69l69 69h115z" />
    <glyph glyph-name="dcaron" unicode="&#x10f;" horiz-adv-x="724" 
d="M500 0h-102v39q-25 -22 -64 -34.5t-84 -12.5q-137 0 -178 91q-13 27 -18 62.5t-5 97.5q0 134 40 190q44 63 150 63q105 0 148 -44v245h113v-697zM389 243q0 62 -11 93t-36.5 43.5t-77.5 12.5q-42 0 -64 -13q-21 -13 -29.5 -43.5t-8.5 -92.5q0 -93 23 -122q21 -27 79 -27
q50 0 76 12q27 12 38 43t11 94zM700 657q0 -48 -10.5 -78t-37.5 -57l-44 -44l-70 69q30 30 35.5 36.5t10.5 15.5q11 20 11 58v40h105v-40z" />
    <glyph glyph-name="Dcroat" unicode="&#x110;" horiz-adv-x="687" 
d="M623 333q0 -104 -9 -155t-34 -88q-37 -54 -102 -74q-51 -16 -142 -16h-248v283h-70v106h70v278h247q103 0 158 -22q53 -21 86 -69q27 -41 36 -100q8 -49 8 -143zM505 333q0 109 -16 157q-15 47 -55 62q-29 10 -105 10h-125v-173h179v-106h-179v-177h126q77 0 105 10
q39 14 54 60q16 48 16 157z" />
    <glyph glyph-name="dcroat" unicode="&#x111;" horiz-adv-x="563" 
d="M244 549v79h143v69h113v-69h84v-79h-84v-549h-102v39q-25 -22 -64 -34.5t-84 -12.5q-137 0 -178 91q-13 27 -18 62.5t-5 97.5q0 134 40 190q44 63 150 63q105 0 148 -44v97h-143zM389 243q0 62 -11 93t-36.5 43.5t-77.5 12.5q-42 0 -64 -13q-21 -13 -29.5 -43.5
t-8.5 -92.5q0 -93 23 -122q21 -27 79 -27q50 0 76 12q27 12 38 43t11 94z" />
    <glyph glyph-name="Emacron" unicode="&#x112;" horiz-adv-x="595" 
d="M535 0h-459v667h459v-105h-343v-169h333v-104h-333v-183h343v-106zM483 777h-355v80h355v-80z" />
    <glyph glyph-name="emacron" unicode="&#x113;" horiz-adv-x="545" 
d="M496 201h-334q0 -69 26 -93q26 -23 92 -23q103 0 104 61h106q0 -93 -81 -130q-51 -24 -133 -24q-143 0 -193 79q-34 53 -34 167q0 83 15 132q18 61 64 92q52 34 145 34q101 0 152 -39q45 -33 61 -104q10 -49 10 -152zM384 293q0 37 -4 55t-15 30q-24 25 -92 25
q-62 0 -85.5 -23.5t-23.5 -86.5h220zM454 569h-355v80h355v-80z" />
    <glyph glyph-name="Ebreve" unicode="&#x114;" horiz-adv-x="595" 
d="M535 0h-459v667h459v-105h-343v-169h333v-104h-333v-183h343v-106zM451 867q0 -80 -37 -107q-32 -24 -110 -24q-88 0 -119 32q-28 28 -28 99h70q0 -37 17 -51t60 -14q42 0 58 12q19 15 19 53h70z" />
    <glyph glyph-name="ebreve" unicode="&#x115;" horiz-adv-x="545" 
d="M496 201h-334q0 -69 26 -93q26 -23 92 -23q103 0 104 61h106q0 -93 -81 -130q-51 -24 -133 -24q-143 0 -193 79q-34 53 -34 167q0 83 15 132q18 61 64 92q52 34 145 34q101 0 152 -39q45 -33 61 -104q10 -49 10 -152zM384 293q0 37 -4 55t-15 30q-24 25 -92 25
q-62 0 -85.5 -23.5t-23.5 -86.5h220zM423 667q0 -80 -37 -107q-32 -24 -110 -24q-88 0 -119 32q-28 28 -28 99h70q0 -37 17 -51t60 -14q42 0 58 12q19 15 19 53h70z" />
    <glyph glyph-name="Edotaccent" unicode="&#x116;" horiz-adv-x="595" 
d="M535 0h-459v667h459v-105h-343v-169h333v-104h-333v-183h343v-106zM365 804q0 -59 -59 -59q-58 0 -58 59q0 30 14 44t44 14q31 0 45 -14t14 -44z" />
    <glyph glyph-name="edotaccent" unicode="&#x117;" horiz-adv-x="545" 
d="M496 201h-334q0 -69 26 -93q26 -23 92 -23q103 0 104 61h106q0 -93 -81 -130q-51 -24 -133 -24q-143 0 -193 79q-34 53 -34 167q0 83 15 132q18 61 64 92q52 34 145 34q101 0 152 -39q45 -33 61 -104q10 -49 10 -152zM384 293q0 37 -4 55t-15 30q-24 25 -92 25
q-62 0 -85.5 -23.5t-23.5 -86.5h220zM335 609q0 -59 -59 -59q-58 0 -58 59q0 30 14 44t44 14q31 0 45 -14t14 -44z" />
    <glyph glyph-name="Eogonek" unicode="&#x118;" horiz-adv-x="595" 
d="M337 -113q0 35 19 66q18 30 48 47h-328v667h459v-105h-343v-169h333v-104h-333v-183h343v-106q-58 -27 -83 -54q-21 -23 -21 -50q0 -59 83 -59q16 0 38 2v-78q-27 -6 -56 -6q-72 0 -115 34q-44 35 -44 98z" />
    <glyph glyph-name="eogonek" unicode="&#x119;" horiz-adv-x="545" 
d="M384 293q0 37 -4 55t-15 30q-24 25 -92 25q-62 0 -85.5 -23.5t-23.5 -86.5h220zM211 -113q0 70 52 105q-134 2 -182 82q-32 54 -32 164q0 83 15 132q18 61 64 92q52 34 145 34q101 0 152 -39q45 -33 61 -104q10 -49 10 -152h-334q0 -69 26 -93q26 -23 92 -23
q103 0 104 61h106q0 -63 -37 -101q-19 -20 -67 -46q-45 -25 -61 -42q-22 -25 -22 -61q0 -59 83 -59l24 1v-80q-16 -3 -45 -3q-69 0 -111 34q-43 35 -43 98z" />
    <glyph glyph-name="Ecaron" unicode="&#x11a;" horiz-adv-x="595" 
d="M535 0h-459v667h459v-105h-343v-169h333v-104h-333v-183h343v-106zM489 863l-129 -127h-110l-129 127h113l71 -69l69 69h115z" />
    <glyph glyph-name="ecaron" unicode="&#x11b;" horiz-adv-x="545" 
d="M496 201h-334q0 -69 26 -93q26 -23 92 -23q103 0 104 61h106q0 -93 -81 -130q-51 -24 -133 -24q-143 0 -193 79q-34 53 -34 167q0 83 15 132q18 61 64 92q52 34 145 34q101 0 152 -39q45 -33 61 -104q10 -49 10 -152zM384 293q0 37 -4 55t-15 30q-24 25 -92 25
q-62 0 -85.5 -23.5t-23.5 -86.5h220zM460 667l-129 -127h-110l-129 127h113l71 -69l69 69h115z" />
    <glyph glyph-name="Gcircumflex" unicode="&#x11c;" horiz-adv-x="679" 
d="M605 373v-129q0 -81 -13 -123q-19 -61 -74 -92q-64 -37 -186 -37q-123 0 -184 43q-54 38 -72 119q-12 56 -12 180q0 121 11 173q18 82 74 121q65 46 197 46q131 0 193 -46q65 -47 65 -148h-117q0 53 -37 71q-33 16 -113 16q-69 0 -100 -18q-31 -19 -43 -65t-12 -151
q0 -101 10 -145q11 -50 43 -70q30 -17 97 -18q75 0 110 17q32 16 42 55q7 28 7 100h-154v101h268zM523 735h-113l-71 69l-69 -69h-115l129 127h110z" />
    <glyph glyph-name="gcircumflex" unicode="&#x11d;" horiz-adv-x="561" 
d="M498 52q0 -79 -4 -106q-13 -83 -95 -117q-53 -23 -131 -23q-95 0 -149 35q-60 40 -60 119h112q0 -29 27 -44q24 -14 67 -14q54 0 85 18q29 17 33 48q2 18 2 45v30q-22 -20 -59 -31.5t-81 -11.5q-131 0 -172 89q-24 51 -24 158q0 83 13 130q16 59 57 87q45 32 125 32
q47 0 87 -12.5t65 -34.5v39h102v-436zM386 247q0 62 -10 93q-11 31 -36 43.5t-77 12.5q-42 0 -64 -13q-20 -13 -28.5 -43.5t-8.5 -92.5q0 -50 5 -77.5t17 -41.5q21 -26 79 -26q51 0 75 10q27 12 37.5 42t10.5 93zM458 540h-113l-71 69l-69 -69h-115l129 127h110z" />
    <glyph glyph-name="Gbreve" unicode="&#x11e;" horiz-adv-x="679" 
d="M605 373v-129q0 -81 -13 -123q-19 -61 -74 -92q-64 -37 -186 -37q-123 0 -184 43q-54 38 -72 119q-12 56 -12 180q0 121 11 173q18 82 74 121q65 46 197 46q131 0 193 -46q65 -47 65 -148h-117q0 53 -37 71q-33 16 -113 16q-69 0 -100 -18q-31 -19 -43 -65t-12 -151
q0 -101 10 -145q11 -50 43 -70q30 -17 97 -18q75 0 110 17q32 16 42 55q7 28 7 100h-154v101h268zM485 867q0 -80 -37 -107q-32 -24 -110 -24q-88 0 -119 32q-28 28 -28 99h70q0 -37 17 -51t60 -14q42 0 58 12q19 15 19 53h70z" />
    <glyph glyph-name="gbreve" unicode="&#x11f;" horiz-adv-x="561" 
d="M498 52q0 -79 -4 -106q-13 -83 -95 -117q-53 -23 -131 -23q-95 0 -149 35q-60 40 -60 119h112q0 -29 27 -44q24 -14 67 -14q54 0 85 18q29 17 33 48q2 18 2 45v30q-22 -20 -59 -31.5t-81 -11.5q-131 0 -172 89q-24 51 -24 158q0 83 13 130q16 59 57 87q45 32 125 32
q47 0 87 -12.5t65 -34.5v39h102v-436zM386 247q0 62 -10 93q-11 31 -36 43.5t-77 12.5q-42 0 -64 -13q-20 -13 -28.5 -43.5t-8.5 -92.5q0 -50 5 -77.5t17 -41.5q21 -26 79 -26q51 0 75 10q27 12 37.5 42t10.5 93zM421 667q0 -80 -37 -107q-32 -24 -110 -24q-88 0 -119 32
q-28 28 -28 99h70q0 -37 17 -51t60 -14q42 0 58 12q19 15 19 53h70z" />
    <glyph glyph-name="Gdotaccent" unicode="&#x120;" horiz-adv-x="679" 
d="M605 373v-129q0 -81 -13 -123q-19 -61 -74 -92q-64 -37 -186 -37q-123 0 -184 43q-54 38 -72 119q-12 56 -12 180q0 121 11 173q18 82 74 121q65 46 197 46q131 0 193 -46q65 -47 65 -148h-117q0 53 -37 71q-33 16 -113 16q-69 0 -100 -18q-31 -19 -43 -65t-12 -151
q0 -101 10 -145q11 -50 43 -70q30 -17 97 -18q75 0 110 17q32 16 42 55q7 28 7 100h-154v101h268zM397 804q0 -59 -59 -59q-58 0 -58 59q0 30 14 44t44 14q31 0 45 -14t14 -44z" />
    <glyph glyph-name="gdotaccent" unicode="&#x121;" horiz-adv-x="561" 
d="M498 52q0 -79 -4 -106q-13 -83 -95 -117q-53 -23 -131 -23q-95 0 -149 35q-60 40 -60 119h112q0 -29 27 -44q24 -14 67 -14q54 0 85 18q29 17 33 48q2 18 2 45v30q-22 -20 -59 -31.5t-81 -11.5q-131 0 -172 89q-24 51 -24 158q0 83 13 130q16 59 57 87q45 32 125 32
q47 0 87 -12.5t65 -34.5v39h102v-436zM386 247q0 62 -10 93q-11 31 -36 43.5t-77 12.5q-42 0 -64 -13q-20 -13 -28.5 -43.5t-8.5 -92.5q0 -50 5 -77.5t17 -41.5q21 -26 79 -26q51 0 75 10q27 12 37.5 42t10.5 93zM333 609q0 -59 -59 -59q-58 0 -58 59q0 30 14 44t44 14
q31 0 45 -14t14 -44z" />
    <glyph glyph-name="Gcommaaccent" unicode="&#x122;" horiz-adv-x="679" 
d="M605 373v-129q0 -81 -13 -123q-19 -61 -74 -92q-64 -37 -186 -37q-123 0 -184 43q-54 38 -72 119q-12 56 -12 180q0 121 11 173q18 82 74 121q65 46 197 46q131 0 193 -46q65 -47 65 -148h-117q0 53 -37 71q-33 16 -113 16q-69 0 -100 -18q-31 -19 -43 -65t-12 -151
q0 -101 10 -145q11 -50 43 -70q30 -17 97 -18q75 0 110 17q32 16 42 55q7 28 7 100h-154v101h268zM387 -84q0 -48 -10.5 -78t-37.5 -57l-44 -44l-70 69q30 30 35.5 36.5t10.5 15.5q11 20 11 58v40h105v-40z" />
    <glyph glyph-name="gcommaaccent" unicode="&#x123;" horiz-adv-x="561" 
d="M498 52q0 -79 -4 -106q-13 -83 -95 -117q-53 -23 -131 -23q-95 0 -149 35q-60 40 -60 119h112q0 -29 27 -44q24 -14 67 -14q54 0 85 18q29 17 33 48q2 18 2 45v30q-22 -20 -59 -31.5t-81 -11.5q-131 0 -172 89q-24 51 -24 158q0 83 13 130q16 59 57 87q45 32 125 32
q47 0 87 -12.5t65 -34.5v39h102v-436zM386 247q0 62 -10 93q-11 31 -36 43.5t-77 12.5q-42 0 -64 -13q-20 -13 -28.5 -43.5t-8.5 -92.5q0 -50 5 -77.5t17 -41.5q21 -26 79 -26q51 0 75 10q27 12 37.5 42t10.5 93zM191 580q0 48 10.5 78t37.5 57l44 44l70 -69
q-30 -30 -35.5 -36.5t-10.5 -15.5q-11 -20 -11 -58v-40h-105v40z" />
    <glyph glyph-name="Hcircumflex" unicode="&#x124;" horiz-adv-x="660" 
d="M584 0h-118v288h-272v-288h-118v667h118v-273h272v273h118v-667zM514 735h-113l-71 69l-69 -69h-115l129 127h110z" />
    <glyph glyph-name="hcircumflex" unicode="&#x125;" horiz-adv-x="547" 
d="M491 0h-113v257q0 66 -1 78q-4 32 -21 46q-20 15 -67 15q-76 0 -99 -46q-14 -28 -14 -90v-33v-227h-113v697h113v-240q51 39 126 39q137 0 173 -84q10 -25 13 -51.5t3 -94.5v-266zM304 749h-113l-71 69l-69 -69h-115l129 127h110z" />
    <glyph glyph-name="Hbar" unicode="&#x126;" horiz-adv-x="660" 
d="M584 0h-118v288h-272v-288h-118v480h-90v106h90v81h118v-81h272v81h118v-81h90v-106h-90v-480zM194 394h272v86h-272v-86z" />
    <glyph glyph-name="hbar" unicode="&#x127;" horiz-adv-x="547" 
d="M176 549v-92q51 39 126 39q137 0 173 -84q10 -25 13 -51.5t3 -94.5v-266h-113v257q0 66 -1 78q-4 32 -21 46q-20 15 -67 15q-76 0 -99 -46q-14 -28 -14 -90v-33v-227h-113v549h-84v79h84v69h113v-69h143v-79h-143z" />
    <glyph glyph-name="Itilde" unicode="&#x128;" horiz-adv-x="270" 
d="M194 0h-118v667h118v-667zM340 789l-77 -39q-33 -16 -67 -16q-36 0 -66 18l-30 20q-13 7 -25 7q-18 0 -48 -15l-58 -29l-39 71l76 38q39 17 70 17q34 0 65 -19l31 -19q13 -7 26 -7q20 0 53 17l53 27z" />
    <glyph glyph-name="itilde" unicode="&#x129;" horiz-adv-x="239" 
d="M176 0h-113v488h113v-488zM325 596l-77 -39q-33 -16 -67 -16q-36 0 -66 18l-30 20q-13 7 -25 7q-18 0 -48 -15l-58 -29l-39 71l76 38q39 17 70 17q34 0 65 -19l31 -19q13 -7 26 -7q20 0 53 17l53 27z" />
    <glyph glyph-name="Imacron" unicode="&#x12a;" horiz-adv-x="270" 
d="M194 0h-118v667h118v-667zM313 777h-355v80h355v-80z" />
    <glyph glyph-name="imacron" unicode="&#x12b;" horiz-adv-x="239" 
d="M176 0h-113v488h113v-488zM297 569h-355v80h355v-80z" />
    <glyph glyph-name="Ibreve" unicode="&#x12c;" horiz-adv-x="270" 
d="M194 0h-118v667h118v-667zM282 867q0 -80 -37 -107q-32 -24 -110 -24q-88 0 -119 32q-28 28 -28 99h70q0 -37 17 -51t60 -14q42 0 58 12q19 15 19 53h70z" />
    <glyph glyph-name="ibreve" unicode="&#x12d;" horiz-adv-x="239" 
d="M176 0h-113v488h113v-488zM267 667q0 -80 -37 -107q-32 -24 -110 -24q-88 0 -119 32q-28 28 -28 99h70q0 -37 17 -51t60 -14q42 0 58 12q19 15 19 53h70z" />
    <glyph glyph-name="Iogonek" unicode="&#x12e;" horiz-adv-x="270" 
d="M-4 -113q0 41 18 70q19 30 62 54v656h118v-667q-58 -27 -83 -54q-21 -23 -21 -50q0 -59 83 -59q16 0 38 2v-78q-27 -6 -56 -6q-72 0 -115 34q-44 35 -44 98z" />
    <glyph glyph-name="iogonek" unicode="&#x12f;" horiz-adv-x="239" 
d="M176 0q-49 -27 -67 -48q-18 -23 -18 -56q0 -59 83 -59l24 1v-80q-16 -3 -45 -3q-69 0 -111 34q-43 35 -43 98q0 74 64 116v485h113v-488zM181 613q0 -31 -18 -48q-16 -14 -44 -14q-32 0 -48 19q-14 16 -14 43q0 32 19 47q15 14 43 14q32 0 48 -18q14 -15 14 -43z" />
    <glyph glyph-name="Idotaccent" unicode="&#x130;" horiz-adv-x="270" 
d="M194 0h-118v667h118v-667zM194 804q0 -59 -59 -59q-58 0 -58 59q0 30 14 44t44 14q31 0 45 -14t14 -44z" />
    <glyph glyph-name="dotlessi" unicode="&#x131;" horiz-adv-x="239" 
d="M176 0h-113v488h113v-488z" />
    <glyph glyph-name="Jcircumflex" unicode="&#x134;" horiz-adv-x="548" 
d="M476 218v-31q0 -34 -3 -53q-24 -142 -220 -142q-115 0 -168 46q-55 47 -55 148h114q0 -51 23 -69.5t86 -18.5q50 0 73 13q22 11 28 38q4 18 4 67v451h118v-449zM601 735h-113l-71 69l-69 -69h-115l129 127h110z" />
    <glyph glyph-name="jcircumflex" unicode="&#x135;" horiz-adv-x="239" 
d="M304 540h-113l-71 69l-69 -69h-115l129 127h110zM-59 -190v93h48q46 0 60 18t14 79v488h113v-520q0 -105 -69 -139q-39 -19 -115 -19h-51z" />
    <glyph glyph-name="Kcommaaccent" unicode="&#x136;" horiz-adv-x="642" 
d="M638 0h-172l-272 268v-268h-118v667h118v-270l282 270h159l-355 -331zM384 -84q0 -48 -10.5 -78t-37.5 -57l-44 -44l-70 69q30 30 35.5 36.5t10.5 15.5q11 20 11 58v40h105v-40z" />
    <glyph glyph-name="kcommaaccent" unicode="&#x137;" horiz-adv-x="539" 
d="M530 0h-145l-208 228v-228h-114v697h113v-404l210 195h140l-241 -224zM349 -84q0 -48 -10.5 -78t-37.5 -57l-44 -44l-70 69q30 30 35.5 36.5t10.5 15.5q11 20 11 58v40h105v-40z" />
    <glyph glyph-name="Lacute" unicode="&#x139;" horiz-adv-x="531" 
d="M525 0h-449v667h118v-561h331v-106zM339 862l-138 -127h-126l138 127h126z" />
    <glyph glyph-name="lacute" unicode="&#x13a;" horiz-adv-x="279" 
d="M279 88v-93h-32q-89 0 -129 28q-55 37 -55 130v544h113v-512q0 -35 2.5 -51t10.5 -26q15 -20 61 -20h29zM327 863l-138 -127h-126l138 127h126z" />
    <glyph glyph-name="Lcommaaccent" unicode="&#x13b;" horiz-adv-x="531" 
d="M525 0h-449v667h118v-561h331v-106zM355 -84q0 -48 -10.5 -78t-37.5 -57l-44 -44l-70 69q30 30 35.5 36.5t10.5 15.5q11 20 11 58v40h105v-40z" />
    <glyph glyph-name="lcommaaccent" unicode="&#x13c;" horiz-adv-x="279" 
d="M279 88v-93h-32q-89 0 -129 28q-55 37 -55 130v544h113v-512q0 -35 2.5 -51t10.5 -26q15 -20 61 -20h29zM227 -84q0 -48 -10.5 -78t-37.5 -57l-44 -44l-70 69q30 30 35.5 36.5t10.5 15.5q11 20 11 58v40h105v-40z" />
    <glyph glyph-name="Lcaron" unicode="&#x13d;" horiz-adv-x="531" 
d="M525 0h-449v667h118v-561h331v-106zM422 627q0 -48 -10.5 -78t-37.5 -57l-44 -44l-70 69q30 30 35.5 36.5t10.5 15.5q11 20 11 58v40h105v-40z" />
    <glyph glyph-name="lcaron" unicode="&#x13e;" horiz-adv-x="376" 
d="M376 657q0 -48 -10.5 -78t-37.5 -57l-44 -44l-70 69q30 30 35.5 36.5t10.5 15.5q11 20 11 58v40h105v-40zM279 88v-93h-32q-89 0 -129 28q-55 37 -55 130v544h113v-512q0 -35 2.5 -51t10.5 -26q15 -20 61 -20h29z" />
    <glyph glyph-name="Ldot" unicode="&#x13f;" horiz-adv-x="531" 
d="M525 0h-449v667h118v-561h331v-106zM459 341q0 -59 -59 -59q-58 0 -58 59q0 30 14 44t44 14q31 0 45 -14t14 -44z" />
    <glyph glyph-name="ldot" unicode="&#x140;" horiz-adv-x="356" 
d="M356 341q0 -59 -59 -59q-58 0 -58 59q0 30 14 44t44 14q31 0 45 -14t14 -44zM279 88v-93h-32q-89 0 -129 28q-55 37 -55 130v544h113v-512q0 -35 2.5 -51t10.5 -26q15 -20 61 -20h29z" />
    <glyph glyph-name="Lslash" unicode="&#x141;" horiz-adv-x="604" 
d="M598 0h-449v218l-56 -52l-75 74l131 126v301h118v-198l56 54l75 -74l-131 -126v-217h331v-106z" />
    <glyph glyph-name="lslash" unicode="&#x142;" horiz-adv-x="336" 
d="M326 88v-93h-32q-89 0 -129 28q-55 37 -55 130v71l-35 -36l-75 68l110 113v328h113v-229l40 42l73 -70l-113 -117v-138q0 -35 2.5 -51t10.5 -26q15 -20 61 -20h29z" />
    <glyph glyph-name="Nacute" unicode="&#x143;" horiz-adv-x="660" 
d="M584 0h-121l-277 479v-479h-110v667h120l278 -475v475h110v-667zM466 862l-138 -127h-126l138 127h126z" />
    <glyph glyph-name="nacute" unicode="&#x144;" horiz-adv-x="547" 
d="M491 0h-113v257q0 66 -1 78q-4 32 -21 46q-20 15 -67 15q-76 0 -99 -46q-14 -28 -14 -90v-33v-227h-113v488h98v-39q53 47 141 47q137 0 173 -84q10 -25 13 -51.5t3 -94.5v-266zM413 667l-138 -127h-126l138 127h126z" />
    <glyph glyph-name="Ncommaaccent" unicode="&#x145;" horiz-adv-x="660" 
d="M584 0h-121l-277 479v-479h-110v667h120l278 -475v475h110v-667zM383 -84q0 -48 -10.5 -78t-37.5 -57l-44 -44l-70 69q30 30 35.5 36.5t10.5 15.5q11 20 11 58v40h105v-40z" />
    <glyph glyph-name="ncommaaccent" unicode="&#x146;" horiz-adv-x="547" 
d="M491 0h-113v257q0 66 -1 78q-4 32 -21 46q-20 15 -67 15q-76 0 -99 -46q-14 -28 -14 -90v-33v-227h-113v488h98v-39q53 47 141 47q137 0 173 -84q10 -25 13 -51.5t3 -94.5v-266zM330 -84q0 -48 -10.5 -78t-37.5 -57l-44 -44l-70 69q30 30 35.5 36.5t10.5 15.5
q11 20 11 58v40h105v-40z" />
    <glyph glyph-name="Ncaron" unicode="&#x147;" horiz-adv-x="660" 
d="M584 0h-121l-277 479v-479h-110v667h120l278 -475v475h110v-667zM515 863l-129 -127h-110l-129 127h113l71 -69l69 69h115z" />
    <glyph glyph-name="ncaron" unicode="&#x148;" horiz-adv-x="547" 
d="M491 0h-113v257q0 66 -1 78q-4 32 -21 46q-20 15 -67 15q-76 0 -99 -46q-14 -28 -14 -90v-33v-227h-113v488h98v-39q53 47 141 47q137 0 173 -84q10 -25 13 -51.5t3 -94.5v-266zM462 667l-129 -127h-110l-129 127h113l71 -69l69 69h115z" />
    <glyph glyph-name="Eng" unicode="&#x14a;" horiz-adv-x="660" 
d="M330 -191v91q27 -2 66 -2q44 0 61 23q14 19 14 60v19l-285 479v-479h-110v667h120l275 -466v466h113v-695q0 -91 -58 -133q-47 -34 -132 -34q-37 0 -64 4z" />
    <glyph glyph-name="eng" unicode="&#x14b;" horiz-adv-x="547" 
d="M256 -191v90q24 -1 47 -1q44 0 61 23q14 19 14 60v276q0 66 -1 78q-4 32 -21 46q-20 15 -67 15q-76 0 -99 -46q-14 -28 -14 -90v-33v-227h-113v488h98v-39q53 47 141 47q137 0 173 -84q10 -25 13 -51.5t3 -94.5v-294q0 -166 -190 -166q-19 0 -45 3z" />
    <glyph glyph-name="Omacron" unicode="&#x14c;" horiz-adv-x="677" 
d="M613 335q0 -126 -13 -183q-18 -81 -74 -118q-62 -42 -187 -42q-128 0 -192 45q-55 39 -72 122q-11 52 -11 175t11 175q16 82 71 120q63 45 192 45t192 -44q55 -39 72 -120q11 -52 11 -175zM495 334q0 101 -10 146q-12 50 -46 69q-31 18 -101 18t-101 -18
q-32 -18 -43.5 -64t-11.5 -152q0 -102 10 -146q12 -50 45 -69q31 -18 101 -18t101 18q32 18 44 64t12 152zM516 777h-355v80h355v-80z" />
    <glyph glyph-name="omacron" unicode="&#x14d;" horiz-adv-x="562" 
d="M513 244q0 -81 -11 -124q-12 -46 -41 -73q-56 -55 -180 -55q-66 0 -110 14q-42 13 -70 41q-29 27 -40.5 71.5t-11.5 125.5t11 124q12 46 41 73q32 32 82 45q40 10 98 10q124 0 180 -55q29 -27 40.5 -71.5t11.5 -125.5zM400 244q0 53 -5 79.5t-17 42.5q-24 30 -97 30
q-54 0 -79 -15q-23 -13 -31.5 -42t-8.5 -95q0 -53 5 -79.5t17 -42.5q24 -30 97 -30q54 0 79 15q23 13 31.5 42t8.5 95zM458 569h-355v80h355v-80z" />
    <glyph glyph-name="Obreve" unicode="&#x14e;" horiz-adv-x="677" 
d="M613 335q0 -126 -13 -183q-18 -81 -74 -118q-62 -42 -187 -42q-128 0 -192 45q-55 39 -72 122q-11 52 -11 175t11 175q16 82 71 120q63 45 192 45t192 -44q55 -39 72 -120q11 -52 11 -175zM495 334q0 101 -10 146q-12 50 -46 69q-31 18 -101 18t-101 -18
q-32 -18 -43.5 -64t-11.5 -152q0 -102 10 -146q12 -50 45 -69q31 -18 101 -18t101 18q32 18 44 64t12 152zM485 867q0 -80 -37 -107q-32 -24 -110 -24q-88 0 -119 32q-28 28 -28 99h70q0 -37 17 -51t60 -14q42 0 58 12q19 15 19 53h70z" />
    <glyph glyph-name="obreve" unicode="&#x14f;" horiz-adv-x="562" 
d="M513 244q0 -81 -11 -124q-12 -46 -41 -73q-56 -55 -180 -55q-66 0 -110 14q-42 13 -70 41q-29 27 -40.5 71.5t-11.5 125.5t11 124q12 46 41 73q32 32 82 45q40 10 98 10q124 0 180 -55q29 -27 40.5 -71.5t11.5 -125.5zM400 244q0 53 -5 79.5t-17 42.5q-24 30 -97 30
q-54 0 -79 -15q-23 -13 -31.5 -42t-8.5 -95q0 -53 5 -79.5t17 -42.5q24 -30 97 -30q54 0 79 15q23 13 31.5 42t8.5 95zM427 667q0 -80 -37 -107q-32 -24 -110 -24q-88 0 -119 32q-28 28 -28 99h70q0 -37 17 -51t60 -14q42 0 58 12q19 15 19 53h70z" />
    <glyph glyph-name="Ohungarumlaut" unicode="&#x150;" horiz-adv-x="677" 
d="M613 335q0 -126 -13 -183q-18 -81 -74 -118q-62 -42 -187 -42q-128 0 -192 45q-55 39 -72 122q-11 52 -11 175t11 175q16 82 71 120q63 45 192 45t192 -44q55 -39 72 -120q11 -52 11 -175zM495 334q0 101 -10 146q-12 50 -46 69q-31 18 -101 18t-101 -18
q-32 -18 -43.5 -64t-11.5 -152q0 -102 10 -146q12 -50 45 -69q31 -18 101 -18t101 18q32 18 44 64t12 152zM586 862l-126 -126h-113l126 126h113zM403 862l-126 -126h-113l126 126h113z" />
    <glyph glyph-name="ohungarumlaut" unicode="&#x151;" horiz-adv-x="562" 
d="M513 244q0 -81 -11 -124q-12 -46 -41 -73q-56 -55 -180 -55q-66 0 -110 14q-42 13 -70 41q-29 27 -40.5 71.5t-11.5 125.5t11 124q12 46 41 73q32 32 82 45q40 10 98 10q124 0 180 -55q29 -27 40.5 -71.5t11.5 -125.5zM400 244q0 53 -5 79.5t-17 42.5q-24 30 -97 30
q-54 0 -79 -15q-23 -13 -31.5 -42t-8.5 -95q0 -53 5 -79.5t17 -42.5q24 -30 97 -30q54 0 79 15q23 13 31.5 42t8.5 95zM528 667l-125 -126h-113l125 126h113zM345 667l-125 -126h-113l125 126h113z" />
    <glyph glyph-name="OE" unicode="&#x152;" horiz-adv-x="908" 
d="M848 0h-497q-104 0 -158 21q-53 21 -86 69q-27 40 -36 100q-7 48 -7 143q0 102 9.5 153.5t34.5 89.5q37 55 102 75q52 16 142 16h496v-105h-293v-169h283v-104h-283v-183h293v-106zM439 106v456h-81q-76 0 -105 -10q-40 -15 -55 -62q-16 -48 -16 -157t16 -157
q15 -46 54 -60q28 -10 105 -10h82z" />
    <glyph glyph-name="oe" unicode="&#x153;" horiz-adv-x="896" 
d="M847 201h-334q0 -69 26 -93q26 -23 92 -23q103 0 104 61h106q0 -93 -81 -130q-51 -24 -133 -24q-120 0 -171 57q-54 -57 -175 -57q-66 0 -110 14q-42 13 -70 41q-29 27 -40.5 71.5t-11.5 125.5t11 124q12 46 41 73q32 32 82 45q40 10 98 10q121 0 174 -57q51 57 169 57
q101 0 152 -39q45 -33 61 -104q10 -49 10 -152zM735 293q0 37 -4 55t-15 30q-24 25 -92 25q-62 0 -85.5 -23.5t-23.5 -86.5h220zM400 244q0 53 -5 79.5t-17 42.5q-24 30 -97 30q-54 0 -79 -15q-23 -13 -31.5 -42t-8.5 -95q0 -53 5 -79.5t17 -42.5q24 -30 97 -30q54 0 79 15
q23 13 31.5 42t8.5 95z" />
    <glyph glyph-name="Racute" unicode="&#x154;" horiz-adv-x="657" 
d="M622 0h-140l-112 170q-33 49 -45.5 65t-24.5 23q-11 6 -24.5 8t-48.5 2h-33v-268h-118v667h234q94 0 138 -9q67 -13 99 -52q38 -45 38 -134q0 -80 -33 -130q-39 -56 -118 -65zM469 467q0 46 -14 67q-12 17 -35.5 22.5t-90.5 5.5h-135v-188h148q50 0 69.5 2.5t31.5 11.5
q26 18 26 79zM466 862l-138 -127h-126l138 127h126z" />
    <glyph glyph-name="racute" unicode="&#x155;" horiz-adv-x="465" 
d="M453 342h-109q0 34 -19 46q-15 9 -50 9q-32 0 -55 -15t-33 -43q-11 -30 -11 -98v-29v-212h-113v488h98v-44q49 52 134 52t123 -42q35 -38 35 -112zM393 667l-138 -127h-126l138 127h126z" />
    <glyph glyph-name="Rcommaaccent" unicode="&#x156;" horiz-adv-x="657" 
d="M622 0h-140l-112 170q-33 49 -45.5 65t-24.5 23q-11 6 -24.5 8t-48.5 2h-33v-268h-118v667h234q94 0 138 -9q67 -13 99 -52q38 -45 38 -134q0 -80 -33 -130q-39 -56 -118 -65zM469 467q0 46 -14 67q-12 17 -35.5 22.5t-90.5 5.5h-135v-188h148q50 0 69.5 2.5t31.5 11.5
q26 18 26 79zM383 -84q0 -48 -10.5 -78t-37.5 -57l-44 -44l-70 69q30 30 35.5 36.5t10.5 15.5q11 20 11 58v40h105v-40z" />
    <glyph glyph-name="rcommaaccent" unicode="&#x157;" horiz-adv-x="465" 
d="M453 342h-109q0 34 -19 46q-15 9 -50 9q-32 0 -55 -15t-33 -43q-11 -30 -11 -98v-29v-212h-113v488h98v-44q49 52 134 52t123 -42q35 -38 35 -112zM172 -84q0 -48 -10.5 -78t-37.5 -57l-44 -44l-70 69q30 30 35.5 36.5t10.5 15.5q11 20 11 58v40h105v-40z" />
    <glyph glyph-name="Rcaron" unicode="&#x158;" horiz-adv-x="657" 
d="M622 0h-140l-112 170q-33 49 -45.5 65t-24.5 23q-11 6 -24.5 8t-48.5 2h-33v-268h-118v667h234q94 0 138 -9q67 -13 99 -52q38 -45 38 -134q0 -80 -33 -130q-39 -56 -118 -65zM469 467q0 46 -14 67q-12 17 -35.5 22.5t-90.5 5.5h-135v-188h148q50 0 69.5 2.5t31.5 11.5
q26 18 26 79zM494 863l-129 -127h-110l-129 127h113l71 -69l69 69h115z" />
    <glyph glyph-name="rcaron" unicode="&#x159;" horiz-adv-x="465" 
d="M453 342h-109q0 34 -19 46q-15 9 -50 9q-32 0 -55 -15t-33 -43q-11 -30 -11 -98v-29v-212h-113v488h98v-44q49 52 134 52t123 -42q35 -38 35 -112zM443 667l-129 -127h-110l-129 127h113l71 -69l69 69h115z" />
    <glyph glyph-name="Sacute" unicode="&#x15a;" horiz-adv-x="655" 
d="M599 208q-1 -118 -79 -171q-68 -45 -196 -45q-141 0 -203 45q-65 47 -65 149h118q0 -35 13 -53q13 -19 45 -27t94 -8q98 0 130 29q25 22 25 76q0 42 -16.5 58t-63.5 20l-155 5q-90 7 -133 40q-57 44 -57 145q0 119 76 166q62 37 190 37q141 0 205 -46q65 -47 65 -148
h-116q0 52 -32.5 70t-123.5 18t-118.5 -18t-27.5 -77q0 -40 15.5 -55t59.5 -19l156 -6q92 -6 136 -39q58 -45 58 -146zM462 862l-138 -127h-126l138 127h126z" />
    <glyph glyph-name="sacute" unicode="&#x15b;" horiz-adv-x="520" 
d="M476 342h-104q0 37 -23 50q-20 11 -67 13h-16q-53 0 -75 -12t-23 -40q-1 -39 23 -50q13 -6 56 -8q93 -6 109 -9q57 -9 85 -37q33 -36 32 -108q-1 -90 -73 -125q-53 -26 -153 -24q-107 2 -154 38q-49 36 -49 116h104q0 -35 21.5 -48.5t76.5 -15.5h17q53 0 75 12t23 42
q1 42 -25 53q-15 7 -63 9q-82 5 -106 9q-55 10 -81 38q-32 35 -31 105q1 87 69 121q49 25 144 25h13q103 -2 149 -39t46 -115zM394 667l-138 -127h-126l138 127h126z" />
    <glyph glyph-name="Scircumflex" unicode="&#x15c;" horiz-adv-x="655" 
d="M599 208q-1 -118 -79 -171q-68 -45 -196 -45q-141 0 -203 45q-65 47 -65 149h118q0 -35 13 -53q13 -19 45 -27t94 -8q98 0 130 29q25 22 25 76q0 42 -16.5 58t-63.5 20l-155 5q-90 7 -133 40q-57 44 -57 145q0 119 76 166q62 37 190 37q141 0 205 -46q65 -47 65 -148
h-116q0 52 -32.5 70t-123.5 18t-118.5 -18t-27.5 -77q0 -40 15.5 -55t59.5 -19l156 -6q92 -6 136 -39q58 -45 58 -146zM510 735h-113l-71 69l-69 -69h-115l129 127h110z" />
    <glyph glyph-name="scircumflex" unicode="&#x15d;" horiz-adv-x="520" 
d="M476 342h-104q0 37 -23 50q-20 11 -67 13h-16q-53 0 -75 -12t-23 -40q-1 -39 23 -50q13 -6 56 -8q93 -6 109 -9q57 -9 85 -37q33 -36 32 -108q-1 -90 -73 -125q-53 -26 -153 -24q-107 2 -154 38q-49 36 -49 116h104q0 -35 21.5 -48.5t76.5 -15.5h17q53 0 75 12t23 42
q1 42 -25 53q-15 7 -63 9q-82 5 -106 9q-55 10 -81 38q-32 35 -31 105q1 87 69 121q49 25 144 25h13q103 -2 149 -39t46 -115zM452 540h-113l-71 69l-69 -69h-115l129 127h110z" />
    <glyph glyph-name="Scedilla" unicode="&#x15e;" horiz-adv-x="655" 
d="M418 -110q0 -44 -23 -64q-21 -19 -65 -19q-88 0 -88 74h54q0 -14 7 -19t27 -5q18 0 24.5 6.5t6.5 24.5q0 29 -36 31h-29v74q-125 3 -183 50q-57 46 -57 143h118q0 -35 13 -53q13 -19 45 -27t94 -8q98 0 130 29q25 22 25 76q0 42 -16.5 58t-63.5 20l-155 5q-90 7 -133 40
q-57 44 -57 145q0 119 76 166q62 37 190 37q141 0 205 -46q65 -47 65 -148h-116q0 52 -32.5 70t-123.5 18t-118.5 -18t-27.5 -77q0 -40 15.5 -55t59.5 -19l156 -6q92 -6 136 -39q58 -45 58 -146q-1 -207 -246 -215v-31q65 -4 65 -72z" />
    <glyph glyph-name="scedilla" unicode="&#x15f;" horiz-adv-x="520" 
d="M339 -110q0 -44 -23 -64q-21 -19 -65 -19q-88 0 -88 74h54q0 -14 7 -19t27 -5q18 0 24.5 6.5t6.5 24.5q0 29 -36 31h-29v74q-92 7 -132 43q-41 37 -41 110h104q0 -35 21.5 -48.5t76.5 -15.5h17q53 0 75 12t23 42q1 42 -25 53q-15 7 -63 9q-82 5 -106 9q-55 10 -81 38
q-32 35 -31 105q1 87 69 121q49 25 144 25h13q103 -2 149 -39t46 -115h-104q0 37 -23 50q-20 11 -67 13h-16q-53 0 -75 -12t-23 -40q-1 -39 23 -50q13 -6 56 -8q93 -6 109 -9q57 -9 85 -37q33 -36 32 -108q-2 -84 -64 -120q-47 -27 -135 -29v-30q65 -4 65 -72z" />
    <glyph glyph-name="Scaron" unicode="&#x160;" horiz-adv-x="655" 
d="M599 208q-1 -118 -79 -171q-68 -45 -196 -45q-141 0 -203 45q-65 47 -65 149h118q0 -35 13 -53q13 -19 45 -27t94 -8q98 0 130 29q25 22 25 76q0 42 -16.5 58t-63.5 20l-155 5q-90 7 -133 40q-57 44 -57 145q0 119 76 166q62 37 190 37q141 0 205 -46q65 -47 65 -148
h-116q0 52 -32.5 70t-123.5 18t-118.5 -18t-27.5 -77q0 -40 15.5 -55t59.5 -19l156 -6q92 -6 136 -39q58 -45 58 -146zM510 853l-129 -127h-110l-129 127h113l71 -69l69 69h115z" />
    <glyph glyph-name="scaron" unicode="&#x161;" horiz-adv-x="520" 
d="M476 342h-104q0 37 -23 50q-20 11 -67 13h-16q-53 0 -75 -12t-23 -40q-1 -39 23 -50q13 -6 56 -8q93 -6 109 -9q57 -9 85 -37q33 -36 32 -108q-1 -90 -73 -125q-53 -26 -153 -24q-107 2 -154 38q-49 36 -49 116h104q0 -35 21.5 -48.5t76.5 -15.5h17q53 0 75 12t23 42
q1 42 -25 53q-15 7 -63 9q-82 5 -106 9q-55 10 -81 38q-32 35 -31 105q1 87 69 121q49 25 144 25h13q103 -2 149 -39t46 -115zM452 667l-129 -127h-110l-129 127h113l71 -69l69 69h115z" />
    <glyph glyph-name="Tcommaaccent" unicode="&#x162;" horiz-adv-x="560" 
d="M542 562h-203v-562h-118v562h-203v105h524v-105zM333 -84q0 -48 -10.5 -78t-37.5 -57l-44 -44l-70 69q30 30 35.5 36.5t10.5 15.5q11 20 11 58v40h105v-40z" />
    <glyph glyph-name="tcommaaccent" unicode="&#x163;" horiz-adv-x="350" 
d="M331 89v-94h-51q-89 0 -129 28q-55 37 -55 130v241h-78v94h78v179h113v-179h122v-94h-122v-208q0 -35 2.5 -51t10.5 -26q15 -20 61 -20h48zM277 -84q0 -48 -10.5 -78t-37.5 -57l-44 -44l-70 69q30 30 35.5 36.5t10.5 15.5q11 20 11 58v40h105v-40z" />
    <glyph glyph-name="Tcaron" unicode="&#x164;" horiz-adv-x="560" 
d="M542 562h-203v-562h-118v562h-203v105h524v-105zM464 863l-129 -127h-110l-129 127h113l71 -69l69 69h115z" />
    <glyph glyph-name="tcaron" unicode="&#x165;" horiz-adv-x="512" 
d="M493 657q0 -48 -10.5 -78t-37.5 -57l-44 -44l-70 69q30 30 35.5 36.5t10.5 15.5q11 20 11 58v40h105v-40zM331 89v-94h-51q-89 0 -129 28q-55 37 -55 130v241h-78v94h78v179h113v-179h122v-94h-122v-208q0 -35 2.5 -51t10.5 -26q15 -20 61 -20h48z" />
    <glyph glyph-name="Tbar" unicode="&#x166;" horiz-adv-x="560" 
d="M449 288h-110v-288h-118v288h-110v106h110v168h-203v105h524v-105h-203v-168h110v-106z" />
    <glyph glyph-name="tbar" unicode="&#x167;" horiz-adv-x="350" 
d="M18 201v92h78v101h-78v94h78v179h113v-179h122v-94h-122v-101h122v-92h-122v-15q0 -35 2.5 -51t10.5 -26q15 -20 61 -20h48v-94h-51q-89 0 -129 28q-55 37 -55 130v48h-78z" />
    <glyph glyph-name="Utilde" unicode="&#x168;" horiz-adv-x="652" 
d="M580 335q0 -109 -2 -140q-6 -112 -80 -162q-62 -41 -172 -41q-126 0 -189 54q-58 51 -63 149q-2 31 -2 140v332h118v-332v-53q0 -76 7 -106q9 -41 36 -58q30 -18 93 -18q62 0 92 16q28 16 37 53q7 29 7 96v70v332h118v-332zM531 789l-77 -39q-33 -16 -67 -16
q-36 0 -66 18l-30 20q-13 7 -25 7q-18 0 -48 -15l-58 -29l-39 71l76 38q39 17 70 17q34 0 65 -19l31 -19q13 -7 26 -7q20 0 53 17l53 27z" />
    <glyph glyph-name="utilde" unicode="&#x169;" horiz-adv-x="547" 
d="M484 0h-98v39q-53 -47 -141 -47q-137 0 -173 84q-10 25 -13 51.5t-3 94.5v266h113v-257v-40q0 -34 3.5 -50.5t12.5 -27.5q19 -21 73 -21q76 0 99 46q14 28 14 90v33v227h113v-488zM478 596l-77 -39q-33 -16 -67 -16q-36 0 -66 18l-30 20q-13 7 -25 7q-18 0 -48 -15
l-58 -29l-39 71l76 38q39 17 70 17q34 0 65 -19l31 -19q13 -7 26 -7q20 0 53 17l53 27z" />
    <glyph glyph-name="Umacron" unicode="&#x16a;" horiz-adv-x="652" 
d="M580 335q0 -109 -2 -140q-6 -112 -80 -162q-62 -41 -172 -41q-126 0 -189 54q-58 51 -63 149q-2 31 -2 140v332h118v-332v-53q0 -76 7 -106q9 -41 36 -58q30 -18 93 -18q62 0 92 16q28 16 37 53q7 29 7 96v70v332h118v-332zM509 777h-355v80h355v-80z" />
    <glyph glyph-name="umacron" unicode="&#x16b;" horiz-adv-x="547" 
d="M484 0h-98v39q-53 -47 -141 -47q-137 0 -173 84q-10 25 -13 51.5t-3 94.5v266h113v-257v-40q0 -34 3.5 -50.5t12.5 -27.5q19 -21 73 -21q76 0 99 46q14 28 14 90v33v227h113v-488zM450 569h-355v80h355v-80z" />
    <glyph glyph-name="Ubreve" unicode="&#x16c;" horiz-adv-x="652" 
d="M580 335q0 -109 -2 -140q-6 -112 -80 -162q-62 -41 -172 -41q-126 0 -189 54q-58 51 -63 149q-2 31 -2 140v332h118v-332v-53q0 -76 7 -106q9 -41 36 -58q30 -18 93 -18q62 0 92 16q28 16 37 53q7 29 7 96v70v332h118v-332zM478 867q0 -80 -37 -107q-32 -24 -110 -24
q-88 0 -119 32q-28 28 -28 99h70q0 -37 17 -51t60 -14q42 0 58 12q19 15 19 53h70z" />
    <glyph glyph-name="ubreve" unicode="&#x16d;" horiz-adv-x="547" 
d="M484 0h-98v39q-53 -47 -141 -47q-137 0 -173 84q-10 25 -13 51.5t-3 94.5v266h113v-257v-40q0 -34 3.5 -50.5t12.5 -27.5q19 -21 73 -21q76 0 99 46q14 28 14 90v33v227h113v-488zM419 667q0 -80 -37 -107q-32 -24 -110 -24q-88 0 -119 32q-28 28 -28 99h70q0 -37 17 -51
t60 -14q42 0 58 12q19 15 19 53h70z" />
    <glyph glyph-name="Uring" unicode="&#x16e;" horiz-adv-x="652" 
d="M580 335q0 -109 -2 -140q-6 -112 -80 -162q-62 -41 -172 -41q-126 0 -189 54q-58 51 -63 149q-2 31 -2 140v332h118v-332v-53q0 -76 7 -106q9 -41 36 -58q30 -18 93 -18q62 0 92 16q28 16 37 53q7 29 7 96v70v332h118v-332zM454 794q0 -66 -32 -94q-29 -25 -91 -25
q-70 0 -99 33q-24 28 -24 86q0 66 32 93q29 24 91 24q70 0 99 -32q24 -27 24 -85zM386 793q0 35 -11.5 47t-43.5 12q-35 0 -46 -15q-9 -12 -9 -44q0 -35 11.5 -47t43.5 -12q35 0 46 15q9 12 9 44z" />
    <glyph glyph-name="uring" unicode="&#x16f;" horiz-adv-x="547" 
d="M484 0h-98v39q-53 -47 -141 -47q-137 0 -173 84q-10 25 -13 51.5t-3 94.5v266h113v-257v-40q0 -34 3.5 -50.5t12.5 -27.5q19 -21 73 -21q76 0 99 46q14 28 14 90v33v227h113v-488zM391 626q0 -66 -32 -94q-29 -25 -91 -25q-70 0 -99 33q-24 28 -24 86q0 66 32 93
q29 24 91 24q70 0 99 -32q24 -27 24 -85zM323 625q0 35 -11.5 47t-43.5 12q-35 0 -46 -15q-9 -12 -9 -44q0 -35 11.5 -47t43.5 -12q35 0 46 15q9 12 9 44z" />
    <glyph glyph-name="Uhungarumlaut" unicode="&#x170;" horiz-adv-x="652" 
d="M580 335q0 -109 -2 -140q-6 -112 -80 -162q-62 -41 -172 -41q-126 0 -189 54q-58 51 -63 149q-2 31 -2 140v332h118v-332v-53q0 -76 7 -106q9 -41 36 -58q30 -18 93 -18q62 0 92 16q28 16 37 53q7 29 7 96v70v332h118v-332zM573 862l-126 -126h-113l126 126h113zM390 862
l-126 -126h-113l126 126h113z" />
    <glyph glyph-name="uhungarumlaut" unicode="&#x171;" horiz-adv-x="547" 
d="M484 0h-98v39q-53 -47 -141 -47q-137 0 -173 84q-10 25 -13 51.5t-3 94.5v266h113v-257v-40q0 -34 3.5 -50.5t12.5 -27.5q19 -21 73 -21q76 0 99 46q14 28 14 90v33v227h113v-488zM514 664l-125 -126h-113l125 126h113zM331 664l-125 -126h-113l125 126h113z" />
    <glyph glyph-name="Uogonek" unicode="&#x172;" horiz-adv-x="652" 
d="M277 -113q0 65 46 105q-125 1 -186 55q-58 50 -63 148q-2 31 -2 140v332h118v-332v-53q0 -76 7 -106q9 -41 36 -58q30 -18 93 -18q62 0 92 16q28 16 37 53q7 29 7 96v70v332h118v-332q0 -109 -2 -140q-5 -85 -50 -137q-24 -26 -77 -59q-44 -27 -59 -45q-21 -24 -21 -58
q0 -59 83 -59q16 0 38 2v-78q-27 -6 -56 -6q-72 0 -115 34q-44 35 -44 98z" />
    <glyph glyph-name="uogonek" unicode="&#x173;" horiz-adv-x="547" 
d="M386 12v27q-53 -47 -141 -47q-137 0 -173 84q-10 25 -13 51.5t-3 94.5v266h113v-257v-40q0 -34 3.5 -50.5t12.5 -27.5q19 -21 73 -21q76 0 99 46q14 28 14 90v33v227h113v-488q-49 -27 -66 -48q-18 -23 -18 -56q0 -59 83 -59l24 1v-80q-16 -3 -45 -3q-69 0 -111 34
q-43 35 -43 98q0 79 78 125z" />
    <glyph glyph-name="Wcircumflex" unicode="&#x174;" horiz-adv-x="898" 
d="M862 667l-155 -667h-124l-135 536l-137 -536h-123l-152 667h115l108 -507l128 507h125l129 -507l109 507h112zM632 735h-113l-71 69l-69 -69h-115l129 127h110z" />
    <glyph glyph-name="wcircumflex" unicode="&#x175;" horiz-adv-x="733" 
d="M715 488l-132 -488h-113l-100 380l-103 -380h-117l-132 488h111l85 -364l98 364h110l99 -364l85 364h109zM554 540h-113l-71 69l-69 -69h-115l129 127h110z" />
    <glyph glyph-name="Ycircumflex" unicode="&#x176;" horiz-adv-x="611" 
d="M609 667l-245 -379v-288h-118v288l-244 379h137l168 -274l167 274h135zM491 735h-113l-71 69l-69 -69h-115l129 127h110z" />
    <glyph glyph-name="ycircumflex" unicode="&#x177;" horiz-adv-x="519" 
d="M484 488v-436q0 -79 -4 -106q-22 -140 -209 -140q-95 0 -149 35q-60 40 -60 119h112q2 -58 94 -58q95 0 104 66q2 16 2 65q-19 -19 -53 -30t-76 -11q-137 0 -173 84q-10 25 -13 51.5t-3 94.5v266h113v-257v-40q0 -34 3.5 -50.5t12.5 -27.5q19 -21 73 -21q76 0 99 46
q14 28 14 90v33v227h113zM456 540h-113l-71 69l-69 -69h-115l129 127h110z" />
    <glyph glyph-name="Ydieresis" unicode="&#x178;" horiz-adv-x="611" 
d="M609 667l-245 -379v-288h-118v288l-244 379h137l168 -274l167 274h135zM474 804q0 -59 -59 -59q-58 0 -58 59q0 30 14 44t44 14q31 0 45 -14t14 -44zM258 804q0 -59 -59 -59q-58 0 -58 59q0 30 14 44t44 14q31 0 45 -14t14 -44z" />
    <glyph glyph-name="Zacute" unicode="&#x179;" horiz-adv-x="629" 
d="M569 0h-509v102l368 460h-368v105h509v-103l-367 -458h367v-106zM449 862l-138 -127h-126l138 127h126z" />
    <glyph glyph-name="zacute" unicode="&#x17a;" horiz-adv-x="500" 
d="M455 0h-410v97l270 297h-270v94h410v-97l-268 -295h268v-96zM385 667l-138 -127h-126l138 127h126z" />
    <glyph glyph-name="Zdotaccent" unicode="&#x17b;" horiz-adv-x="629" 
d="M569 0h-509v102l368 460h-368v105h509v-103l-367 -458h367v-106zM373 804q0 -59 -59 -59q-58 0 -58 59q0 30 14 44t44 14q31 0 45 -14t14 -44z" />
    <glyph glyph-name="zdotaccent" unicode="&#x17c;" horiz-adv-x="500" 
d="M455 0h-410v97l270 297h-270v94h410v-97l-268 -295h268v-96zM309 609q0 -59 -59 -59q-58 0 -58 59q0 30 14 44t44 14q31 0 45 -14t14 -44z" />
    <glyph glyph-name="Zcaron" unicode="&#x17d;" horiz-adv-x="629" 
d="M569 0h-509v102l368 460h-368v105h509v-103l-367 -458h367v-106zM487 853l-129 -127h-110l-129 127h113l71 -69l69 69h115z" />
    <glyph glyph-name="zcaron" unicode="&#x17e;" horiz-adv-x="500" 
d="M455 0h-410v97l270 297h-270v94h410v-97l-268 -295h268v-96zM438 667l-129 -127h-110l-129 127h113l71 -69l69 69h115z" />
    <glyph glyph-name="uni018F" unicode="&#x18f;" horiz-adv-x="677" 
d="M71 487q14 99 75 142q64 45 192 45q129 0 192 -44q55 -39 72 -120q11 -52 11 -175q0 -126 -13 -183q-18 -81 -74 -118q-62 -42 -187 -42q-128 0 -192 45q-55 39 -72 122q-11 52 -11 175v32h431q0 14 -1 28q-3 72 -16 107q-15 37 -48 52q-30 14 -92 14q-76 0 -107 -22
q-30 -21 -40 -73zM183 260q4 -66 17 -99q14 -34 45 -47.5t93 -13.5q60 0 90 13q32 13 46.5 46t18.5 101h-310z" />
    <glyph glyph-name="florin" unicode="&#x192;" horiz-adv-x="591" 
d="M556 506h-109q0 38 -21 52t-77 14q-53 0 -77 -10q-22 -10 -30 -31t-8 -72v-67h279v-102h-279v-481h-113v481h-67v102h67v65q0 67 6 93q10 41 41 70q57 54 172 54q98 0 147 -28q69 -40 69 -140z" />
    <glyph glyph-name="uni01DD" unicode="&#x1dd;" horiz-adv-x="545" 
d="M49 287h334q0 69 -26 93q-26 23 -92 23q-103 0 -104 -61h-106q0 93 81 130q51 24 133 24q143 0 193 -79q34 -53 34 -167q0 -83 -15 -132q-18 -61 -64 -92q-52 -34 -145 -34q-101 0 -152 39q-45 33 -61 104q-10 49 -10 152zM161 195q0 -37 4 -55t15 -30q24 -25 92 -25
q62 0 85.5 23.5t23.5 86.5h-220z" />
    <glyph glyph-name="Aringacute" unicode="&#x1fa;" horiz-adv-x="651" 
d="M643 0h-129l-62 170h-260l-61 -170h-123l244 634q-48 22 -48 105q0 65 33 89q27 19 88 19q70 0 96 -26q25 -24 25 -82q0 -84 -48 -106zM380 732q0 34 -11 45t-44 11q-36 0 -46 -13q-8 -11 -8 -43q0 -35 12 -44q10 -8 43 -8t43.5 10t10.5 42zM416 272l-94 264l-93 -264
h187zM472 1018l-138 -127h-126l138 127h126z" />
    <glyph glyph-name="aringacute" unicode="&#x1fb;" horiz-adv-x="541" 
d="M485 0h-101v40q-55 -48 -152 -48q-99 0 -145 38q-45 38 -45 118q0 101 73 136q45 22 135 22h125q0 34 -3.5 49.5t-13.5 24.5q-21 20 -86 20q-51 0 -74 -9q-32 -13 -32 -45h-110q0 111 113 139q-16 20 -16 74q0 64 32 88q28 20 90 20q70 0 97 -27q25 -25 25 -81
q0 -54 -16 -74q104 -35 104 -167v-318zM330 549q0 35 -11.5 47t-43.5 12q-35 0 -46 -15q-8 -12 -8 -44q0 -34 10.5 -44.5t44.5 -10.5q35 0 45 13q9 11 9 42zM377 214h-131q-54 0 -72.5 -13t-18.5 -51q0 -36 22 -50q21 -15 73 -15q86 0 110 37q17 25 17 92zM430 838
l-138 -127h-126l138 127h126z" />
    <glyph glyph-name="AEacute" unicode="&#x1fc;" horiz-adv-x="950" 
d="M890 0h-419v165h-224l-108 -165h-137l446 667h442v-105h-303v-169h293v-104h-293v-183h303v-106zM471 269v239l-155 -239h155zM718 862l-138 -127h-126l138 127h126z" />
    <glyph glyph-name="aeacute" unicode="&#x1fd;" horiz-adv-x="870" 
d="M821 206h-335q0 -70 26 -95q27 -26 92 -26q104 0 105 61h106q0 -93 -81 -130q-51 -24 -133 -24q-120 0 -171 57q-29 -31 -74 -44t-120 -13q-101 0 -147 37q-47 37 -47 116q0 101 75 134q45 20 136 20h126q0 35 -4.5 53t-16.5 28q-22 20 -85 20q-51 0 -74 -9
q-33 -13 -33 -45h-110q0 150 212 150q127 0 175 -54q51 54 155 54q98 0 148 -36q46 -32 63 -100q12 -51 12 -154zM709 298q0 60 -24 83q-25 23 -87 23q-67 0 -92 -32q-18 -25 -18 -74h221zM380 206h-132q-57 0 -75 -12q-18 -13 -18 -48q0 -34 21.5 -47.5t75.5 -13.5
q57 0 84 11q25 11 34 33.5t10 76.5zM593 667l-138 -127h-126l138 127h126z" />
    <glyph glyph-name="Oslashacute" unicode="&#x1fe;" horiz-adv-x="677" 
d="M613 333q0 -123 -12 -178q-18 -81 -73 -119q-63 -44 -189 -44q-20 0 -33 1l-33 -138l-96 22l34 131q-104 28 -132 134q-9 32 -12 71.5t-3 119.5q0 125 11 176q17 82 72 121q64 44 194 44q25 0 28 -1l33 136l95 -24l-33 -126q107 -26 136 -138q8 -33 10.5 -68.5
t2.5 -119.5zM495 336q0 129 -22 177q-11 25 -38 38l-108 -451h21q66 0 99 25q30 23 40 76q8 42 8 135zM347 567q-74 0 -105 -15q-35 -17 -47.5 -64.5t-12.5 -160.5q0 -109 14 -154q12 -37 41 -55zM430 862l-138 -127h-126l138 127h126z" />
    <glyph glyph-name="oslashacute" unicode="&#x1ff;" horiz-adv-x="562" 
d="M513 242q0 -81 -13 -126q-12 -42 -40 -70q-32 -32 -84 -44q-39 -10 -97 -10q-10 0 -46 3l-37 -97l-84 32l34 87q-23 11 -46 32q-29 26 -40 67.5t-11 123.5q0 83 11 126q13 47 43 77q32 31 82 43q39 10 98 10q21 0 45 -2l33 86l86 -32l-31 -79q23 -6 47 -30
q29 -29 39.5 -70t10.5 -127zM400 243q0 57 -5 83t-19 43l-107 -277h15q49 0 73 13t33.5 43.5t9.5 94.5zM294 396h-18q-47 0 -70 -12q-24 -12 -34 -43.5t-10 -95.5q0 -60 5 -84t20 -42zM413 667l-138 -127h-126l138 127h126z" />
    <glyph glyph-name="Scommaaccent" unicode="&#x218;" horiz-adv-x="655" 
d="M599 208q-1 -118 -79 -171q-68 -45 -196 -45q-141 0 -203 45q-65 47 -65 149h118q0 -35 13 -53q13 -19 45 -27t94 -8q98 0 130 29q25 22 25 76q0 42 -16.5 58t-63.5 20l-155 5q-90 7 -133 40q-57 44 -57 145q0 119 76 166q62 37 190 37q141 0 205 -46q65 -47 65 -148
h-116q0 52 -32.5 70t-123.5 18t-118.5 -18t-27.5 -77q0 -40 15.5 -55t59.5 -19l156 -6q92 -6 136 -39q58 -45 58 -146zM378 -84q0 -48 -10.5 -78t-37.5 -57l-44 -44l-70 69q30 30 35.5 36.5t10.5 15.5q11 20 11 58v40h105v-40z" />
    <glyph glyph-name="scommaaccent" unicode="&#x219;" horiz-adv-x="520" 
d="M476 342h-104q0 37 -23 50q-20 11 -67 13h-16q-53 0 -75 -12t-23 -40q-1 -39 23 -50q13 -6 56 -8q93 -6 109 -9q57 -9 85 -37q33 -36 32 -108q-1 -90 -73 -125q-53 -26 -153 -24q-107 2 -154 38q-49 36 -49 116h104q0 -35 21.5 -48.5t76.5 -15.5h17q53 0 75 12t23 42
q1 42 -25 53q-15 7 -63 9q-82 5 -106 9q-55 10 -81 38q-32 35 -31 105q1 87 69 121q49 25 144 25h13q103 -2 149 -39t46 -115zM335 -84q0 -48 -10.5 -78t-37.5 -57l-44 -44l-70 69q30 30 35.5 36.5t10.5 15.5q11 20 11 58v40h105v-40z" />
    <glyph glyph-name="uni021A" unicode="&#x21a;" horiz-adv-x="560" 
d="M542 562h-203v-562h-118v562h-203v105h524v-105zM333 -84q0 -48 -10.5 -78t-37.5 -57l-44 -44l-70 69q30 30 35.5 36.5t10.5 15.5q11 20 11 58v40h105v-40z" />
    <glyph glyph-name="uni021B" unicode="&#x21b;" horiz-adv-x="350" 
d="M331 89v-94h-51q-89 0 -129 28q-55 37 -55 130v241h-78v94h78v179h113v-179h122v-94h-122v-208q0 -35 2.5 -51t10.5 -26q15 -20 61 -20h48zM277 -84q0 -48 -10.5 -78t-37.5 -57l-44 -44l-70 69q30 30 35.5 36.5t10.5 15.5q11 20 11 58v40h105v-40z" />
    <glyph glyph-name="uni0259" unicode="&#x259;" horiz-adv-x="545" 
d="M49 287h334q0 69 -26 93q-26 23 -92 23q-103 0 -104 -61h-106q0 93 81 130q51 24 133 24q143 0 193 -79q34 -53 34 -167q0 -83 -15 -132q-18 -61 -64 -92q-52 -34 -145 -34q-101 0 -152 39q-45 33 -61 104q-10 49 -10 152zM161 195q0 -37 4 -55t15 -30q24 -25 92 -25
q62 0 85.5 23.5t23.5 86.5h-220z" />
    <glyph glyph-name="circumflex" unicode="&#x2c6;" horiz-adv-x="440" 
d="M404 540h-113l-71 69l-69 -69h-115l129 127h110z" />
    <glyph glyph-name="caron" unicode="&#x2c7;" horiz-adv-x="440" 
d="M404 667l-129 -127h-110l-129 127h113l71 -69l69 69h115z" />
    <glyph glyph-name="uni02C9" unicode="&#x2c9;" horiz-adv-x="440" 
d="M397 569h-355v80h355v-80z" />
    <glyph glyph-name="breve" unicode="&#x2d8;" horiz-adv-x="440" 
d="M367 667q0 -80 -37 -107q-32 -24 -110 -24q-88 0 -119 32q-28 28 -28 99h70q0 -37 17 -51t60 -14q42 0 58 12q19 15 19 53h70z" />
    <glyph glyph-name="dotaccent" unicode="&#x2d9;" horiz-adv-x="440" 
d="M278 609q0 -59 -59 -59q-58 0 -58 59q0 30 14 44t44 14q31 0 45 -14t14 -44z" />
    <glyph glyph-name="ring" unicode="&#x2da;" horiz-adv-x="540" 
d="M391 626q0 -66 -32 -94q-29 -25 -91 -25q-70 0 -99 33q-24 28 -24 86q0 66 32 93q29 24 91 24q70 0 99 -32q24 -27 24 -85zM323 625q0 35 -11.5 47t-43.5 12q-35 0 -46 -15q-9 -12 -9 -44q0 -35 11.5 -47t43.5 -12q35 0 46 15q9 12 9 44z" />
    <glyph glyph-name="ogonek" unicode="&#x2db;" horiz-adv-x="391" 
d="M77 -113q0 75 64 123h122q-94 -44 -94 -114q0 -59 83 -59h14v-79q-16 -3 -35 -3q-69 0 -111 34q-43 35 -43 98z" />
    <glyph glyph-name="tilde" unicode="&#x2dc;" horiz-adv-x="440" 
d="M425 596l-77 -39q-33 -16 -67 -16q-36 0 -66 18l-30 20q-13 7 -25 7q-18 0 -48 -15l-58 -29l-39 71l76 38q39 17 70 17q34 0 65 -19l31 -19q13 -7 26 -7q20 0 53 17l53 27z" />
    <glyph glyph-name="hungarumlaut" unicode="&#x2dd;" horiz-adv-x="438" 
d="M434 667l-125 -126h-113l125 126h113zM251 667l-125 -126h-113l125 126h113z" />
    <glyph glyph-name="uni037E" unicode="&#x37e;" horiz-adv-x="241" 
d="M194 427q0 -36 -20 -54q-17 -17 -49 -17q-36 0 -54 22q-15 18 -15 49q0 69 69 69t69 -69zM175 28q0 -49 -10.5 -79t-37.5 -57l-44 -43l-73 67l35 35q14 16 19.5 32.5t5.5 44.5v106h105v-106z" />
    <glyph glyph-name="tonos" unicode="&#x384;" horiz-adv-x="604" 
d="M353 541h-106v176h106v-176z" />
    <glyph glyph-name="dieresistonos" unicode="&#x385;" horiz-adv-x="518" 
d="M467 628q0 -59 -59 -59q-58 0 -58 59q0 30 14 44t44 14q31 0 45 -14t14 -44zM313 541h-106v176h106v-176zM168 628q0 -59 -59 -59q-58 0 -58 59q0 30 14 44t44 14q31 0 45 -14t14 -44z" />
    <glyph glyph-name="Alphatonos" unicode="&#x386;" horiz-adv-x="651" 
d="M643 0h-129l-62 170h-260l-61 -170h-123l258 667h121zM416 272l-93 264l-94 -264h187zM164 541h-106v176h106v-176z" />
    <glyph glyph-name="uni0387" unicode="&#x387;" horiz-adv-x="242" 
d="M190 337q0 -36 -20 -54q-17 -17 -49 -17q-36 0 -54 22q-15 18 -15 49q0 69 69 69t69 -69z" />
    <glyph glyph-name="Epsilontonos" unicode="&#x388;" horiz-adv-x="679" 
d="M619 0h-459v667h459v-105h-343v-169h333v-104h-333v-183h343v-106zM106 541h-106v176h106v-176z" />
    <glyph glyph-name="Etatonos" unicode="&#x389;" horiz-adv-x="743" 
d="M667 0h-118v288h-272v-288h-118v667h118v-273h272v273h118v-667zM106 541h-106v176h106v-176z" />
    <glyph glyph-name="Iotatonos" unicode="&#x38a;" horiz-adv-x="353" 
d="M277 0h-118v667h118v-667zM106 541h-106v176h106v-176z" />
    <glyph glyph-name="Omicrontonos" unicode="&#x38c;" horiz-adv-x="752" 
d="M688 335q0 -126 -13 -183q-18 -81 -74 -118q-62 -42 -187 -42q-128 0 -192 45q-55 39 -72 122q-11 52 -11 175t11 175q16 82 71 120q63 45 192 45t192 -44q55 -39 72 -120q11 -52 11 -175zM570 334q0 101 -10 146q-12 50 -46 69q-31 18 -101 18t-101 -18
q-32 -18 -43.5 -64t-11.5 -152q0 -102 10 -146q12 -50 45 -69q31 -18 101 -18t101 18q32 18 44 64t12 152zM106 541h-106v176h106v-176z" />
    <glyph glyph-name="Upsilontonos" unicode="&#x38e;" horiz-adv-x="743" 
d="M741 667l-245 -379v-288h-118v288l-244 379h137l168 -274l167 274h135zM106 541h-106v176h106v-176z" />
    <glyph glyph-name="Omegatonos" unicode="&#x38f;" horiz-adv-x="743" 
d="M679 0h-257v106q51 5 76.5 13.5t37.5 25.5q15 20 19 53q6 41 6 138q0 101 -10 144q-12 51 -45 69q-31 18 -101 18t-101 -18q-33 -18 -45 -63.5t-12 -149.5q0 -96 5 -133t20 -58q12 -17 37.5 -25.5t76.5 -13.5v-106h-257v106h46q-33 34 -41 104q-5 37 -5 128q0 122 11 173
q16 81 71 119q64 44 193 44t193 -44q55 -38 71 -119q11 -51 11 -173q0 -103 -7 -144q-10 -58 -39 -88h46v-106zM106 541h-106v176h106v-176z" />
    <glyph glyph-name="iotadieresistonos" unicode="&#x390;" horiz-adv-x="243" 
d="M227 0q-64 0 -89 4q-40 8 -58 32q-20 27 -20 84v368h113v-351q0 -23 9 -32t32 -9h13v-96zM324 628q0 -59 -59 -59q-58 0 -58 59q0 30 14 44t44 14q31 0 45 -14t14 -44zM170 541h-106v176h106v-176zM25 628q0 -59 -59 -59q-58 0 -58 59q0 30 14 44t44 14q31 0 45 -14
t14 -44z" />
    <glyph glyph-name="Alpha" unicode="&#x391;" horiz-adv-x="651" 
d="M643 0h-129l-62 170h-260l-61 -170h-123l258 667h121zM416 272l-93 264l-94 -264h187z" />
    <glyph glyph-name="Beta" unicode="&#x392;" horiz-adv-x="656" 
d="M591 198q0 -102 -49 -148q-30 -28 -70.5 -39t-109.5 -11h-42h-244v667h238q95 0 128 -4q67 -9 101 -42q42 -40 43 -122q1 -68 -14 -104q-15 -37 -48 -51q36 -17 51.5 -50t15.5 -96zM468 478q0 43 -20 62q-18 16 -57 20q-17 2 -84 2h-114v-169h121h31q66 0 91 15
q32 19 32 70zM473 196q0 54 -20 72q-15 13 -36 16q-28 5 -105 5h-119v-183h119h29q73 0 96 10q19 8 27.5 27t8.5 53z" />
    <glyph glyph-name="Gamma" unicode="&#x393;" horiz-adv-x="531" 
d="M525 561h-331v-561h-118v667h449v-106z" />
    <glyph glyph-name="uni0394" unicode="&#x394;" horiz-adv-x="651" 
d="M643 0h-635l258 667h121zM477 102l-154 434l-155 -434h309z" />
    <glyph glyph-name="Epsilon" unicode="&#x395;" horiz-adv-x="595" 
d="M535 0h-459v667h459v-105h-343v-169h333v-104h-333v-183h343v-106z" />
    <glyph glyph-name="Zeta" unicode="&#x396;" horiz-adv-x="629" 
d="M569 0h-509v102l368 460h-368v105h509v-103l-367 -458h367v-106z" />
    <glyph glyph-name="Eta" unicode="&#x397;" horiz-adv-x="660" 
d="M584 0h-118v288h-272v-288h-118v667h118v-273h272v273h118v-667z" />
    <glyph glyph-name="Theta" unicode="&#x398;" horiz-adv-x="677" 
d="M613 335q0 -126 -13 -183q-18 -81 -74 -118q-62 -42 -187 -42q-128 0 -192 45q-55 39 -72 122q-11 52 -11 175t11 175q16 82 71 120q63 45 192 45t192 -44q55 -39 72 -120q11 -52 11 -175zM495 334q0 101 -10 146q-12 50 -46 69q-31 18 -101 18t-101 -18
q-32 -18 -43.5 -64t-11.5 -152q0 -102 10 -146q12 -50 45 -69q31 -18 101 -18t101 18q32 18 44 64t12 152zM454 288h-229v106h229v-106z" />
    <glyph glyph-name="Iota" unicode="&#x399;" horiz-adv-x="270" 
d="M194 0h-118v667h118v-667z" />
    <glyph glyph-name="Kappa" unicode="&#x39a;" horiz-adv-x="642" 
d="M638 0h-172l-272 268v-268h-118v667h118v-270l282 270h159l-355 -331z" />
    <glyph glyph-name="Lambda" unicode="&#x39b;" horiz-adv-x="651" 
d="M643 0h-129l-191 536l-192 -536h-123l258 667h121z" />
    <glyph glyph-name="Mu" unicode="&#x39c;" horiz-adv-x="824" 
d="M748 0h-110v518l-171 -518h-114l-169 518v-518h-108v667h156l181 -531l180 531h155v-667z" />
    <glyph glyph-name="Nu" unicode="&#x39d;" horiz-adv-x="660" 
d="M584 0h-121l-277 479v-479h-110v667h120l278 -475v475h110v-667z" />
    <glyph glyph-name="Xi" unicode="&#x39e;" horiz-adv-x="579" 
d="M519 562h-459v105h459v-105zM509 289h-440v104h440v-104zM519 0h-459v106h459v-106z" />
    <glyph glyph-name="Omicron" unicode="&#x39f;" horiz-adv-x="677" 
d="M613 335q0 -126 -13 -183q-18 -81 -74 -118q-62 -42 -187 -42q-128 0 -192 45q-55 39 -72 122q-11 52 -11 175t11 175q16 82 71 120q63 45 192 45t192 -44q55 -39 72 -120q11 -52 11 -175zM495 334q0 101 -10 146q-12 50 -46 69q-31 18 -101 18t-101 -18
q-32 -18 -43.5 -64t-11.5 -152q0 -102 10 -146q12 -50 45 -69q31 -18 101 -18t101 18q32 18 44 64t12 152z" />
    <glyph glyph-name="Pi" unicode="&#x3a0;" horiz-adv-x="660" 
d="M584 0h-118v562h-272v-562h-118v667h508v-667z" />
    <glyph glyph-name="Rho" unicode="&#x3a1;" horiz-adv-x="620" 
d="M585 468q0 -91 -38 -138q-32 -40 -99 -54q-46 -10 -138 -10h-116v-266h-118v667h234q93 0 138 -9q66 -13 99 -53q38 -46 38 -137zM467 466q0 68 -42 87q-23 9 -79 9h-38h-114v-190h114h31q64 0 86 9q42 19 42 85z" />
    <glyph glyph-name="Sigma" unicode="&#x3a3;" horiz-adv-x="629" 
d="M569 0h-509v104l209 237l-209 224v102h509v-105h-358l207 -221l-207 -235h358v-106z" />
    <glyph glyph-name="Tau" unicode="&#x3a4;" horiz-adv-x="560" 
d="M542 562h-203v-562h-118v562h-203v105h524v-105z" />
    <glyph glyph-name="Upsilon" unicode="&#x3a5;" horiz-adv-x="611" 
d="M609 667l-245 -379v-288h-118v288l-244 379h137l168 -274l167 274h135z" />
    <glyph glyph-name="Phi" unicode="&#x3a6;" horiz-adv-x="752" 
d="M696 335q0 -91 -19 -142q-17 -46 -54 -76q-61 -49 -189 -55v-76h-116v76q-128 6 -189 55q-42 34 -59 90q-14 48 -14 128q0 97 24 152q26 58 83 85q56 27 155 32v77h116v-77q99 -5 155 -32q57 -27 83 -85q24 -55 24 -152zM578 333q0 64 -10 96q-11 37 -42 52
q-31 16 -93 16v-328q62 0 93 16q29 15 40.5 47.5t11.5 100.5zM319 169v328q-62 0 -93 -16q-29 -15 -40.5 -47.5t-11.5 -100.5q0 -64 10 -96q11 -37 42 -52q31 -16 93 -16z" />
    <glyph glyph-name="Chi" unicode="&#x3a7;" horiz-adv-x="628" 
d="M607 0h-135l-159 253l-158 -253h-134l224 339l-218 328h135l153 -242l152 242h135l-219 -328z" />
    <glyph glyph-name="Psi" unicode="&#x3a8;" horiz-adv-x="806" 
d="M742 451q0 -94 -10 -141q-16 -76 -60 -120q-62 -62 -210 -67v-123h-118v123q-148 5 -210 67q-50 50 -64 139q-6 41 -6 122v216h118v-246q0 -56 6 -88q9 -42 30 -64q40 -40 126 -40v438h118v-438q86 0 126 40q20 20 28 55t8 97v246h118v-216z" />
    <glyph glyph-name="uni03A9" unicode="&#x3a9;" horiz-adv-x="678" 
d="M614 0h-257v106q51 5 76.5 13.5t37.5 25.5q15 20 19 53q6 41 6 138q0 101 -10 144q-12 51 -45 69q-31 18 -101 18t-101 -18q-33 -18 -45 -63.5t-12 -149.5q0 -96 5 -133t20 -58q12 -17 37.5 -25.5t76.5 -13.5v-106h-257v106h46q-33 34 -41 104q-5 37 -5 128q0 122 11 173
q16 81 71 119q64 44 193 44t193 -44q55 -38 71 -119q11 -51 11 -173q0 -103 -7 -144q-10 -58 -39 -88h46v-106z" />
    <glyph glyph-name="Iotadieresis" unicode="&#x3aa;" horiz-adv-x="270" 
d="M194 0h-118v667h118v-667zM302 804q0 -59 -59 -59q-58 0 -58 59q0 30 14 44t44 14q31 0 45 -14t14 -44zM86 804q0 -59 -59 -59q-58 0 -58 59q0 30 14 44t44 14q31 0 45 -14t14 -44z" />
    <glyph glyph-name="Upsilondieresis" unicode="&#x3ab;" horiz-adv-x="611" 
d="M609 667l-245 -379v-288h-118v288l-244 379h137l168 -274l167 274h135zM472 804q0 -59 -59 -59q-58 0 -58 59q0 30 14 44t44 14q31 0 45 -14t14 -44zM256 804q0 -59 -59 -59q-58 0 -58 59q0 30 14 44t44 14q31 0 45 -14t14 -44z" />
    <glyph glyph-name="alphatonos" unicode="&#x3ac;" horiz-adv-x="603" 
d="M565 0h-113l-24 86q-17 -37 -35 -54q-42 -40 -137 -40q-140 0 -182 84q-17 34 -22 88q-3 29 -3 77q0 83 10 126q15 62 56 93q49 36 141 36t137 -42q18 -17 36 -54l25 88h111l-60 -243zM390 245q-27 82 -29 88q-15 35 -34 48q-22 15 -64 15q-43 0 -65 -14q-20 -14 -28 -44
t-8 -94q0 -51 4.5 -79t16.5 -44q21 -29 80 -29q40 0 61 13q19 13 34 47q7 17 32 93zM345 541h-106v176h106v-176z" />
    <glyph glyph-name="epsilontonos" unicode="&#x3ad;" horiz-adv-x="534" 
d="M487 146q0 -92 -74 -129q-51 -25 -139 -25q-122 0 -173 34q-52 35 -52 116q0 45 11 69q13 29 47 44q-27 15 -39.5 40t-12.5 64q0 80 61 111q51 26 158 26q104 0 155 -34q58 -38 58 -120h-107q0 37 -43 50q-25 7 -67 7q-69 0 -93 -15q-19 -11 -19 -36q0 -32 30 -42
q22 -8 78 -8h45v-94h-45q-76 0 -95 -11t-19 -45q0 -36 31 -48q26 -11 87 -11q52 0 76 10q34 13 34 47h107zM322 541h-106v176h106v-176z" />
    <glyph glyph-name="etatonos" unicode="&#x3ae;" horiz-adv-x="556" 
d="M500 -191h-113v448q0 66 -1 78q-4 32 -21 46q-20 15 -67 15q-76 0 -99 -46q-14 -28 -14 -90v-33v-227h-113v337q0 39 -12 48q-10 8 -42 8v95q12 2 27 2q48 0 74 -11q32 -12 43 -43q13 25 54 42q42 18 95 18q137 0 173 -84q10 -25 13 -51.5t3 -94.5v-457zM338 541h-106
v176h106v-176z" />
    <glyph glyph-name="iotatonos" unicode="&#x3af;" horiz-adv-x="243" 
d="M227 0q-64 0 -89 4q-40 8 -58 32q-20 27 -20 84v368h113v-351q0 -23 9 -32t32 -9h13v-96zM170 541h-106v176h106v-176z" />
    <glyph glyph-name="upsilondieresistonos" unicode="&#x3b0;" horiz-adv-x="538" 
d="M483 268q0 -61 -2 -109q-5 -91 -69 -133q-53 -34 -143 -34q-104 0 -157 45q-51 42 -55 122q-2 48 -2 109v220h113v-227q0 -58 1 -80q2 -35 10 -50q20 -35 90 -35t90 35q8 15 10 50q1 22 1 80v227h113v-220zM476 628q0 -59 -59 -59q-58 0 -58 59q0 30 14 44t44 14
q31 0 45 -14t14 -44zM322 541h-106v176h106v-176zM177 628q0 -59 -59 -59q-58 0 -58 59q0 30 14 44t44 14q31 0 45 -14t14 -44z" />
    <glyph glyph-name="alpha" unicode="&#x3b1;" horiz-adv-x="603" 
d="M565 0h-113l-24 86q-17 -37 -35 -54q-42 -40 -137 -40q-140 0 -182 84q-17 34 -22 88q-3 29 -3 77q0 83 10 126q15 62 56 93q49 36 141 36t137 -42q18 -17 36 -54l25 88h111l-60 -243zM390 245q-27 82 -29 88q-15 35 -34 48q-22 15 -64 15q-43 0 -65 -14q-20 -14 -28 -44
t-8 -94q0 -51 4.5 -79t16.5 -44q21 -29 80 -29q40 0 61 13q19 13 34 47q7 17 32 93z" />
    <glyph glyph-name="beta" unicode="&#x3b2;" horiz-adv-x="573" 
d="M515 201q0 -60 -11 -95.5t-38 -63.5q-49 -50 -162 -50q-93 0 -129 44v-227h-113v677q0 68 6 97q13 55 55 84q52 37 156 37q122 0 172 -45q46 -41 46 -131q0 -61 -12 -95q-14 -42 -49 -58q45 -17 62 -55t17 -119zM402 200q0 53 -10 78q-10 26 -35 36t-80 10h-26v95h26
q39 0 59.5 4.5t31.5 15.5q18 19 18 75q0 29 -4.5 45t-16.5 26q-23 20 -86 20q-49 0 -71 -12q-20 -11 -26.5 -33.5t-6.5 -81.5v-230q0 -51 4 -75.5t14 -41.5q25 -39 96 -39q68 0 91 24q22 23 22 84z" />
    <glyph glyph-name="gamma" unicode="&#x3b3;" horiz-adv-x="534" 
d="M520 488l-191 -488v-191h-113v191l-139 355q-8 20 -20.5 29t-32.5 9h-10v95q26 2 27 2q66 0 97 -28q24 -22 46 -82l89 -246l132 354h115z" />
    <glyph glyph-name="delta" unicode="&#x3b4;" horiz-adv-x="562" 
d="M513 244q0 -81 -11 -124q-12 -46 -41 -73q-56 -55 -180 -55q-66 0 -110 14q-42 13 -70 41q-29 27 -40.5 71.5t-11.5 125.5q0 80 12 124q12 45 40 73q48 48 141 48l-10 7q-30 20 -43 42.5t-13 54.5q0 63 46 89q27 15 63 15h111v-93h-89q-23 0 -23 -21q0 -10 11.5 -20.5
t49.5 -33.5q77 -48 115 -86q32 -32 44 -87q9 -43 9 -112zM400 244q0 53 -5 79.5t-17 42.5q-24 30 -97 30q-54 0 -79 -15q-23 -13 -31.5 -42t-8.5 -95q0 -53 5 -79.5t17 -42.5q24 -30 97 -30q54 0 79 15q23 13 31.5 42t8.5 95z" />
    <glyph glyph-name="epsilon" unicode="&#x3b5;" horiz-adv-x="534" 
d="M487 146q0 -92 -74 -129q-51 -25 -139 -25q-122 0 -173 34q-52 35 -52 116q0 45 11 69q13 29 47 44q-27 15 -39.5 40t-12.5 64q0 80 61 111q51 26 158 26q104 0 155 -34q58 -38 58 -120h-107q0 37 -43 50q-25 7 -67 7q-69 0 -93 -15q-19 -11 -19 -36q0 -32 30 -42
q22 -8 78 -8h45v-94h-45q-76 0 -95 -11t-19 -45q0 -36 31 -48q26 -11 87 -11q52 0 76 10q34 13 34 47h107z" />
    <glyph glyph-name="zeta" unicode="&#x3b6;" horiz-adv-x="521" 
d="M486 -16q0 -40 -19.5 -87.5t-53.5 -87.5h-128q44 44 68 90q20 39 20 68q0 25 -20 30q-10 3 -49 3q-136 0 -195 44q-60 45 -60 145q0 118 86 237q70 97 179 172h-209v99h362v-94q-97 -80 -128 -109q-177 -164 -177 -300q0 -63 39 -83q29 -15 103 -15q58 0 86.5 -4
t48.5 -14q47 -25 47 -94z" />
    <glyph glyph-name="eta" unicode="&#x3b7;" horiz-adv-x="556" 
d="M500 -191h-113v448q0 66 -1 78q-4 32 -21 46q-20 15 -67 15q-76 0 -99 -46q-14 -28 -14 -90v-33v-227h-113v337q0 39 -12 48q-10 8 -42 8v95q12 2 27 2q48 0 74 -11q32 -12 43 -43q13 25 54 42q42 18 95 18q137 0 173 -84q10 -25 13 -51.5t3 -94.5v-457z" />
    <glyph glyph-name="theta" unicode="&#x3b8;" horiz-adv-x="562" 
d="M511 333q0 -125 -7 -170q-13 -83 -58 -123q-55 -48 -166 -48q-157 0 -204 100q-15 32 -21 74.5t-6 117.5v49q0 87 1 111.5t5 54.5q12 84 58 125q54 50 167 50t167 -50q46 -41 58 -125q4 -30 5 -54.5t1 -111.5zM397 389q0 90 -11 125q-10 31 -33 43q-25 14 -73 14
t-72.5 -13t-33.5 -44q-11 -35 -11 -125h234zM397 295h-234q0 -106 11 -143q10 -31 33 -43q24 -14 73 -14q48 0 72 13t34 44q11 37 11 143z" />
    <glyph glyph-name="iota" unicode="&#x3b9;" horiz-adv-x="243" 
d="M227 0q-64 0 -89 4q-40 8 -58 32q-20 27 -20 84v368h113v-351q0 -23 9 -32t32 -9h13v-96z" />
    <glyph glyph-name="kappa" unicode="&#x3ba;" horiz-adv-x="539" 
d="M530 0h-147l-206 219v-219h-114v488h114v-203l208 203h141l-241 -233z" />
    <glyph glyph-name="lambda" unicode="&#x3bb;" horiz-adv-x="516" 
d="M510 0q-20 -2 -31 -2q-52 0 -80 20q-25 18 -43 62l-104 259l-122 -339h-116l185 474l-37 95q-8 21 -17.5 27t-32.5 6h-10v95q16 2 27 2q57 0 87 -20q27 -19 46 -64l198 -491q7 -16 17.5 -22t32.5 -6v-96z" />
    <glyph glyph-name="uni03BC" unicode="&#x3bc;" horiz-adv-x="554" 
d="M491 0h-102v37q-50 -45 -132 -45q-22 0 -48 5.5t-37 12.5v-201h-109v679h113v-257v-40q0 -33 3.5 -49.5t12.5 -26.5q18 -20 73 -20q76 0 99 45q14 26 14 89v32v227h113v-488z" />
    <glyph glyph-name="nu" unicode="&#x3bd;" horiz-adv-x="524" 
d="M510 488l-191 -488h-113l-192 488h121l129 -358l129 358h117z" />
    <glyph glyph-name="xi" unicode="&#x3be;" horiz-adv-x="553" 
d="M518 -15q0 -39 -20.5 -88t-52.5 -88h-121q39 52 55 80q26 47 26 78q0 21 -12 27t-57 6q-101 0 -152 13q-60 15 -86 55q-27 41 -27 120q0 70 20 109q22 43 72 60q-23 11 -24 12q-51 34 -51 117q0 48 12.5 76.5t40.5 44.5h-62v90h399v-95h-113q-51 0 -78.5 -4t-45.5 -15
q-42 -24 -42 -90q0 -67 42 -84q23 -9 91 -9h135v-94h-134q-52 0 -77.5 -4t-41.5 -15q-31 -23 -31 -90q0 -45 17 -68q14 -19 43 -26.5t93 -7.5q59 0 87 -3.5t48 -13.5q47 -24 47 -93z" />
    <glyph glyph-name="omicron" unicode="&#x3bf;" horiz-adv-x="562" 
d="M513 244q0 -81 -11 -124q-12 -46 -41 -73q-56 -55 -180 -55q-66 0 -110 14q-42 13 -70 41q-29 27 -40.5 71.5t-11.5 125.5t11 124q12 46 41 73q32 32 82 45q40 10 98 10q124 0 180 -55q29 -27 40.5 -71.5t11.5 -125.5zM400 244q0 53 -5 79.5t-17 42.5q-24 30 -97 30
q-54 0 -79 -15q-23 -13 -31.5 -42t-8.5 -95q0 -53 5 -79.5t17 -42.5q24 -30 97 -30q54 0 79 15q23 13 31.5 42t8.5 95z" />
    <glyph glyph-name="pi" unicode="&#x3c0;" horiz-adv-x="669" 
d="M585 394h-56v-260q0 -25 5 -31q8 -8 34 -8h15v-95h-36q-79 0 -108 32q-23 26 -23 88v274h-173v-394h-113v394h-56v94h511v-94z" />
    <glyph glyph-name="rho" unicode="&#x3c1;" horiz-adv-x="563" 
d="M514 243q0 -122 -40 -179q-50 -72 -170 -72q-47 0 -76.5 10t-51.5 33v-226h-113v435q0 81 11 124q12 46 40 73q32 32 80 45q39 10 95 10q120 0 175 -55q28 -27 39 -71.5t11 -126.5zM401 244q0 54 -4.5 80t-16.5 42q-23 30 -92 30q-51 0 -76 -15q-21 -13 -29 -42t-8 -95
q0 -62 11 -94q10 -32 36 -45t77 -13q42 0 64 14q21 14 29.5 45t8.5 93z" />
    <glyph glyph-name="uni03C2" unicode="&#x3c2;" horiz-adv-x="529" 
d="M482 -15q0 -39 -20.5 -88t-52.5 -88h-128q43 44 68 91q20 39 20 67q0 21 -12 27t-57 6q-72 0 -109 8q-56 12 -88 44q-29 29 -41.5 75t-12.5 122q0 79 13 124q17 59 63 89q52 34 148 34q208 0 208 -154h-107q-1 37 -38 49q-19 5 -60 5q-51 0 -75 -14q-22 -13 -30.5 -41.5
t-8.5 -93.5q0 -66 9 -95q10 -32 37.5 -44t89.5 -12q58 0 87 -4t49 -14q48 -24 48 -93z" />
    <glyph glyph-name="sigma" unicode="&#x3c3;" horiz-adv-x="562" 
d="M548 394h-72q21 -17 29.5 -51.5t8.5 -102.5q0 -80 -11 -122q-12 -44 -41 -71q-56 -55 -180 -55q-66 0 -110 14q-42 13 -70 41q-33 31 -44 83q-9 40 -9 109q0 79 12 122q12 45 41 72q34 32 82 43.5t150 11.5h214v-94zM401 240q0 52 -5 77.5t-17 40.5q-24 30 -97 30
q-54 0 -79 -15q-23 -13 -31.5 -41t-8.5 -92q0 -52 5 -77.5t17 -40.5q24 -30 97 -30q54 0 79 15q23 13 31.5 41t8.5 92z" />
    <glyph glyph-name="tau" unicode="&#x3c4;" horiz-adv-x="457" 
d="M451 394h-172v-257q0 -23 9 -32t32 -9h13v-96q-64 0 -89 4q-40 8 -58 32q-20 27 -20 84v274h-160v94h445v-94z" />
    <glyph glyph-name="upsilon" unicode="&#x3c5;" horiz-adv-x="538" 
d="M483 268q0 -61 -2 -109q-5 -91 -69 -133q-53 -34 -143 -34q-104 0 -157 45q-51 42 -55 122q-2 48 -2 109v220h113v-227q0 -58 1 -80q2 -35 10 -50q20 -35 90 -35t90 35q8 15 10 50q1 22 1 80v227h113v-220z" />
    <glyph glyph-name="phi" unicode="&#x3c6;" horiz-adv-x="689" 
d="M640 248q0 -89 -22 -140q-23 -54 -76 -79q-51 -25 -142 -29v-191h-111v191q-91 4 -142 29q-53 25 -76 79q-22 51 -22 140q0 126 48 182q43 52 137 62v-102q-40 -8 -56 -39.5t-16 -103.5q0 -57 9 -85q10 -33 37 -47q27 -15 81 -15v396h60q92 0 141 -11q61 -13 95 -48
q55 -55 55 -189zM527 247q0 57 -9 86q-10 33 -37 48q-28 15 -81 15v-296q54 0 81 15q25 13 35.5 42.5t10.5 89.5z" />
    <glyph glyph-name="chi" unicode="&#x3c7;" horiz-adv-x="534" 
d="M519 488l-181 -331l123 -228q10 -18 20 -23t35 -5v-95q-20 -3 -35 -3q-51 0 -77 20q-21 16 -43 59l-92 177l-132 -250h-122l190 348l-115 211q-15 28 -46 28h-9v95q14 2 28 2q56 0 83 -20q22 -16 44 -58l83 -161l127 234h119z" />
    <glyph glyph-name="psi" unicode="&#x3c8;" horiz-adv-x="688" 
d="M633 251q0 -81 -10 -117q-10 -40 -40 -70q-58 -58 -183 -64v-191h-112v191q-125 6 -183 64q-30 30 -40 67.5t-10 119.5v237h113v-247q0 -50 5 -74.5t18 -39.5q23 -27 97 -31v392h112v-392q54 3 80 17q23 13 31.5 40t8.5 88v247h113v-237z" />
    <glyph glyph-name="omega" unicode="&#x3c9;" horiz-adv-x="718" 
d="M669 253q0 -123 -36 -183q-47 -78 -161 -78q-81 0 -113 46q-32 -46 -113 -46q-128 0 -172 99q-25 57 -25 162q0 74 17 121q15 43 46 72q53 50 161 50v-102q-44 -5 -66 -17q-24 -14 -34.5 -42.5t-11.5 -82.5q0 -49 2.5 -71t9.5 -40q20 -47 78 -47q32 0 42 15.5t10 66.5
v116h112v-116q0 -50 9 -65q11 -17 43 -17q64 0 82 59q8 28 8 99q-1 83 -29 112q-23 23 -83 30v102q108 0 161 -50q33 -31 48 -77.5t15 -115.5z" />
    <glyph glyph-name="iotadieresis" unicode="&#x3ca;" horiz-adv-x="239" 
d="M227 0q-64 0 -89 4q-40 8 -58 32q-20 27 -20 84v368h113v-351q0 -23 9 -32t32 -9h13v-96zM286 628q0 -59 -59 -59q-58 0 -58 59q0 30 14 44t44 14q31 0 45 -14t14 -44zM70 628q0 -59 -59 -59q-58 0 -58 59q0 30 14 44t44 14q31 0 45 -14t14 -44z" />
    <glyph glyph-name="upsilondieresis" unicode="&#x3cb;" horiz-adv-x="538" 
d="M435 628q0 -59 -59 -59q-58 0 -58 59q0 30 14 44t44 14q31 0 45 -14t14 -44zM219 628q0 -59 -59 -59q-58 0 -58 59q0 30 14 44t44 14q31 0 45 -14t14 -44zM483 268q0 -61 -2 -109q-5 -91 -69 -133q-53 -34 -143 -34q-104 0 -157 45q-51 42 -55 122q-2 48 -2 109v220h113
v-227q0 -58 1 -80q2 -35 10 -50q20 -35 90 -35t90 35q8 15 10 50q1 22 1 80v227h113v-220z" />
    <glyph glyph-name="omicrontonos" unicode="&#x3cc;" horiz-adv-x="562" 
d="M513 244q0 -81 -11 -124q-12 -46 -41 -73q-56 -55 -180 -55q-66 0 -110 14q-42 13 -70 41q-29 27 -40.5 71.5t-11.5 125.5t11 124q12 46 41 73q32 32 82 45q40 10 98 10q124 0 180 -55q29 -27 40.5 -71.5t11.5 -125.5zM400 244q0 53 -5 79.5t-17 42.5q-24 30 -97 30
q-54 0 -79 -15q-23 -13 -31.5 -42t-8.5 -95q0 -53 5 -79.5t17 -42.5q24 -30 97 -30q54 0 79 15q23 13 31.5 42t8.5 95zM334 541h-106v176h106v-176z" />
    <glyph glyph-name="upsilontonos" unicode="&#x3cd;" horiz-adv-x="538" 
d="M483 268q0 -61 -2 -109q-5 -91 -69 -133q-53 -34 -143 -34q-104 0 -157 45q-51 42 -55 122q-2 48 -2 109v220h113v-227q0 -58 1 -80q2 -35 10 -50q20 -35 90 -35t90 35q8 15 10 50q1 22 1 80v227h113v-220zM322 541h-106v176h106v-176z" />
    <glyph glyph-name="omegatonos" unicode="&#x3ce;" horiz-adv-x="718" 
d="M669 253q0 -123 -36 -183q-47 -78 -161 -78q-81 0 -113 46q-32 -46 -113 -46q-128 0 -172 99q-25 57 -25 162q0 74 17 121q15 43 46 72q53 50 161 50v-102q-44 -5 -66 -17q-24 -14 -34.5 -42.5t-11.5 -82.5q0 -49 2.5 -71t9.5 -40q20 -47 78 -47q32 0 42 15.5t10 66.5
v116h112v-116q0 -50 9 -65q11 -17 43 -17q64 0 82 59q8 28 8 99q-1 83 -29 112q-23 23 -83 30v102q108 0 161 -50q33 -31 48 -77.5t15 -115.5zM412 541h-106v176h106v-176z" />
    <glyph glyph-name="uni0400" unicode="&#x400;" horiz-adv-x="595" 
d="M535 0h-459v667h459v-105h-343v-169h333v-104h-333v-183h343v-106zM411 736h-124l-137 126h124z" />
    <glyph glyph-name="afii10023" unicode="&#x401;" horiz-adv-x="595" 
d="M535 0h-459v667h459v-105h-343v-169h333v-104h-333v-183h343v-106zM472 804q0 -59 -59 -59q-58 0 -58 59q0 30 14 44t44 14q31 0 45 -14t14 -44zM256 804q0 -59 -59 -59q-58 0 -58 59q0 30 14 44t44 14q31 0 45 -14t14 -44z" />
    <glyph glyph-name="afii10051" unicode="&#x402;" horiz-adv-x="728" 
d="M662 146q0 -127 -10 -180q-12 -66 -46 -100q-33 -33 -82 -45q-41 -10 -114 -10v104q63 0 89 16q27 18 36.5 62t9.5 155q0 54 -3.5 79t-13.5 43q-24 39 -93 39q-74 0 -121 -21v-288h-118v562h-178v105h495v-105h-199v-168q56 21 129 21q108 0 163 -56q39 -39 50 -108
q6 -36 6 -105z" />
    <glyph glyph-name="afii10052" unicode="&#x403;" horiz-adv-x="531" 
d="M525 561h-331v-561h-118v667h449v-106zM441 863l-138 -127h-126l138 127h126z" />
    <glyph glyph-name="afii10053" unicode="&#x404;" horiz-adv-x="656" 
d="M596 480h-116q0 35 -12 52q-12 19 -42 27t-89 8q-61 0 -92 -14q-32 -14 -45.5 -50.5t-16.5 -111.5h236v-100h-237q2 -81 14 -119q14 -41 46 -57q31 -15 94 -15q91 0 119 21q24 17 24 65h116q0 -114 -77 -159q-59 -35 -173 -35q-132 0 -197 46q-56 40 -73 122
q-11 52 -11 174q0 121 11 173q18 82 74 121q65 46 197 46q131 0 190 -47q60 -46 60 -147z" />
    <glyph glyph-name="afii10054" unicode="&#x405;" horiz-adv-x="656" 
d="M599 208q-1 -118 -79 -171q-68 -45 -196 -45q-141 0 -203 45q-65 47 -65 149h118q0 -35 13 -53q13 -19 45 -27t94 -8q98 0 130 29q25 22 25 76q0 42 -16.5 58t-63.5 20l-155 5q-90 7 -133 40q-57 44 -57 145q0 119 76 166q62 37 190 37q141 0 205 -46q65 -47 65 -148
h-116q0 52 -32.5 70t-123.5 18t-118.5 -18t-27.5 -77q0 -40 15.5 -55t59.5 -19l156 -6q92 -6 136 -39q58 -45 58 -146z" />
    <glyph glyph-name="afii10055" unicode="&#x406;" horiz-adv-x="270" 
d="M194 0h-118v667h118v-667z" />
    <glyph glyph-name="afii10056" unicode="&#x407;" horiz-adv-x="270" 
d="M302 804q0 -59 -59 -59q-58 0 -58 59q0 30 14 44t44 14q31 0 45 -14t14 -44zM86 804q0 -59 -59 -59q-58 0 -58 59q0 30 14 44t44 14q31 0 45 -14t14 -44zM194 0h-118v667h118v-667z" />
    <glyph glyph-name="afii10057" unicode="&#x408;" horiz-adv-x="548" 
d="M476 218v-31q0 -34 -3 -53q-24 -142 -220 -142q-115 0 -168 46q-55 47 -55 148h114q0 -51 23 -69.5t86 -18.5q50 0 73 13q22 11 28 38q4 18 4 67v451h118v-449z" />
    <glyph glyph-name="afii10058" unicode="&#x409;" horiz-adv-x="1017" 
d="M982 195q0 -91 -38 -136q-33 -39 -99 -51q-42 -8 -138 -8h-251v558h-142l-91 -401q-14 -60 -34 -92q-23 -37 -65 -55q-44 -18 -118 -18v108q48 0 71 21t35 74l107 472h355v-274h133q94 0 138 -9q67 -13 99 -52q38 -47 38 -137zM864 197q0 33 -10 52t-32 29q-22 9 -86 9
h-31h-131v-182h131h38q56 0 79 9q42 19 42 83z" />
    <glyph glyph-name="afii10059" unicode="&#x40a;" horiz-adv-x="1027" 
d="M992 195q0 -91 -38 -136q-33 -39 -99 -51q-42 -8 -138 -8h-251v288h-272v-288h-118v667h118v-273h272v273h118v-274h133q94 0 138 -9q67 -13 99 -52q38 -47 38 -137zM874 197q0 33 -10 52t-32 29q-22 9 -86 9h-31h-131v-182h131h38q56 0 79 9q42 19 42 83z" />
    <glyph glyph-name="afii10060" unicode="&#x40b;" horiz-adv-x="728" 
d="M662 0h-118v157q0 54 -4 79.5t-15 40.5q-22 32 -90 32q-74 0 -121 -21v-288h-118v562h-178v105h495v-105h-199v-168q56 21 130 21q109 0 164 -56q31 -32 42.5 -77t11.5 -136v-146z" />
    <glyph glyph-name="afii10061" unicode="&#x40c;" horiz-adv-x="642" 
d="M638 0h-172l-272 268v-268h-118v667h118v-270l282 270h159l-355 -331zM487 863l-138 -127h-126l138 127h126z" />
    <glyph glyph-name="uni040D" unicode="&#x40d;" horiz-adv-x="660" 
d="M584 0h-110v479l-277 -479h-121v667h110v-475l278 475h120v-667zM460 736h-124l-137 126h124z" />
    <glyph glyph-name="afii10062" unicode="&#x40e;" horiz-adv-x="606" 
d="M606 667l-349 -667h-133l116 220l-234 447h134l166 -323l168 323h132zM452 867q0 -80 -37 -107q-32 -24 -110 -24q-88 0 -119 32q-28 28 -28 99h70q0 -37 17 -51t60 -14q42 0 58 12q19 15 19 53h70z" />
    <glyph glyph-name="afii10145" unicode="&#x40f;" horiz-adv-x="660" 
d="M584 0h-197v-117h-114v117h-197v667h118v-561h272v561h118v-667z" />
    <glyph glyph-name="afii10017" unicode="&#x410;" horiz-adv-x="651" 
d="M643 0h-129l-62 170h-260l-61 -170h-123l258 667h121zM416 272l-93 264l-94 -264h187z" />
    <glyph glyph-name="afii10018" unicode="&#x411;" horiz-adv-x="620" 
d="M585 195q0 -91 -38 -136q-33 -39 -99 -51q-42 -8 -138 -8h-234v667h449v-106h-331v-168h150q78 0 122 -12q58 -15 86 -55q33 -46 33 -131zM467 197q0 33 -10 52t-32 29q-22 9 -86 9h-31h-114v-182h114h38q56 0 79 9q42 19 42 83z" />
    <glyph glyph-name="afii10019" unicode="&#x412;" horiz-adv-x="656" 
d="M591 198q0 -102 -49 -148q-30 -28 -70.5 -39t-109.5 -11h-42h-244v667h238q95 0 128 -4q67 -9 101 -42q42 -40 43 -122q1 -68 -14 -104q-15 -37 -48 -51q36 -17 51.5 -50t15.5 -96zM468 478q0 43 -20 62q-18 16 -57 20q-17 2 -84 2h-114v-169h121h31q66 0 91 15
q32 19 32 70zM473 196q0 54 -20 72q-15 13 -36 16q-28 5 -105 5h-119v-183h119h29q73 0 96 10q19 8 27.5 27t8.5 53z" />
    <glyph glyph-name="afii10020" unicode="&#x413;" horiz-adv-x="531" 
d="M525 561h-331v-561h-118v667h449v-106z" />
    <glyph glyph-name="afii10021" unicode="&#x414;" horiz-adv-x="688" 
d="M652 -117h-113v119h-420v-119h-113v222q53 2 77 29q19 20 30 67l111 466h352v-562h76v-222zM458 105v457h-139l-87 -364q-18 -72 -48 -93h274z" />
    <glyph glyph-name="afii10022" unicode="&#x415;" horiz-adv-x="595" 
d="M535 0h-459v667h459v-105h-343v-169h333v-104h-333v-183h343v-106z" />
    <glyph glyph-name="afii10024" unicode="&#x416;" horiz-adv-x="906" 
d="M902 0h-160l-230 268v-268h-118v268l-232 -268h-158l302 334l-302 333h152l238 -270v270h118v-270l240 270h147l-301 -331z" />
    <glyph glyph-name="afii10025" unicode="&#x417;" horiz-adv-x="657" 
d="M593 186q0 -111 -78 -157q-64 -37 -193 -37q-138 0 -199 45q-62 47 -62 149h116q0 -34 12 -52q13 -18 43.5 -26t90.5 -8q97 0 129 21q30 20 30 73q0 44 -10 62q-11 20 -41.5 27.5t-104.5 7.5h-79v100h79q90 0 120 22q27 19 27 70q0 35 -8 50q-11 19 -42 26q-32 8 -101 8
q-91 0 -120 -21q-26 -19 -26 -66h-116q0 115 80 160q62 34 182 34q151 0 211 -45q53 -41 53 -130q0 -59 -20 -94q-23 -39 -74 -58q67 -19 88 -69q13 -30 13 -92z" />
    <glyph glyph-name="afii10026" unicode="&#x418;" horiz-adv-x="660" 
d="M584 0h-110v479l-277 -479h-121v667h110v-475l278 475h120v-667z" />
    <glyph glyph-name="afii10027" unicode="&#x419;" horiz-adv-x="660" 
d="M584 0h-110v479l-277 -479h-121v667h110v-475l278 475h120v-667zM477 868q0 -80 -37 -107q-32 -24 -110 -24q-88 0 -119 32q-28 28 -28 99h70q0 -37 17 -51t60 -14q42 0 58 12q19 15 19 53h70z" />
    <glyph glyph-name="afii10028" unicode="&#x41a;" horiz-adv-x="642" 
d="M638 0h-172l-272 268v-268h-118v667h118v-270l282 270h159l-355 -331z" />
    <glyph glyph-name="afii10029" unicode="&#x41b;" horiz-adv-x="650" 
d="M574 0h-118v558h-142l-91 -401q-14 -60 -34 -92q-23 -37 -65 -55q-44 -18 -118 -18v108q48 0 71 21t35 74l107 472h355v-667z" />
    <glyph glyph-name="afii10030" unicode="&#x41c;" horiz-adv-x="824" 
d="M748 0h-110v518l-171 -518h-114l-169 518v-518h-108v667h156l181 -531l180 531h155v-667z" />
    <glyph glyph-name="afii10031" unicode="&#x41d;" horiz-adv-x="660" 
d="M584 0h-118v288h-272v-288h-118v667h118v-273h272v273h118v-667z" />
    <glyph glyph-name="afii10032" unicode="&#x41e;" horiz-adv-x="677" 
d="M613 335q0 -126 -13 -183q-18 -81 -74 -118q-62 -42 -187 -42q-128 0 -192 45q-55 39 -72 122q-11 52 -11 175t11 175q16 82 71 120q63 45 192 45t192 -44q55 -39 72 -120q11 -52 11 -175zM495 334q0 101 -10 146q-12 50 -46 69q-31 18 -101 18t-101 -18
q-32 -18 -43.5 -64t-11.5 -152q0 -102 10 -146q12 -50 45 -69q31 -18 101 -18t101 18q32 18 44 64t12 152z" />
    <glyph glyph-name="afii10033" unicode="&#x41f;" horiz-adv-x="660" 
d="M584 0h-118v562h-272v-562h-118v667h508v-667z" />
    <glyph glyph-name="afii10034" unicode="&#x420;" horiz-adv-x="620" 
d="M585 468q0 -91 -38 -138q-32 -40 -99 -54q-46 -10 -138 -10h-116v-266h-118v667h234q93 0 138 -9q66 -13 99 -53q38 -46 38 -137zM467 466q0 68 -42 87q-23 9 -79 9h-38h-114v-190h114h31q64 0 86 9q42 19 42 85z" />
    <glyph glyph-name="afii10035" unicode="&#x421;" horiz-adv-x="656" 
d="M596 480h-116q0 35 -12 52q-12 19 -42 27t-89 8q-69 0 -100 -18q-31 -19 -43 -65t-12 -151q0 -101 10 -145q12 -51 45 -70q30 -18 99 -18q91 0 119 21q24 17 24 65h116q0 -114 -77 -159q-59 -35 -173 -35q-132 0 -197 46q-56 40 -73 122q-11 52 -11 174q0 121 11 173
q18 82 74 121q65 46 197 46q131 0 190 -47q60 -46 60 -147z" />
    <glyph glyph-name="afii10036" unicode="&#x422;" horiz-adv-x="560" 
d="M542 562h-203v-562h-118v562h-203v105h524v-105z" />
    <glyph glyph-name="afii10037" unicode="&#x423;" horiz-adv-x="606" 
d="M606 667l-349 -667h-133l116 220l-234 447h134l166 -323l168 323h132z" />
    <glyph glyph-name="afii10038" unicode="&#x424;" horiz-adv-x="790" 
d="M741 334q0 -106 -30 -165q-30 -57 -94 -83q-58 -23 -163 -27v-59h-118v59q-105 4 -163 27q-64 26 -94 83q-30 59 -30 165q0 107 30 167q29 58 93 85q58 23 164 27v54h118v-54q106 -4 164 -27q64 -27 93 -85q30 -60 30 -167zM623 336q0 73 -14 106q-14 34 -52 47
q-29 10 -103 14v-334q74 4 103 14q38 13 52 47q14 33 14 106zM336 169v334q-74 -4 -103 -14q-38 -13 -52 -47q-14 -33 -14 -106t14 -106q14 -34 52 -47q29 -10 103 -14z" />
    <glyph glyph-name="afii10039" unicode="&#x425;" horiz-adv-x="628" 
d="M607 0h-135l-159 253l-158 -253h-134l224 339l-218 328h135l153 -242l152 242h135l-219 -328z" />
    <glyph glyph-name="afii10040" unicode="&#x426;" horiz-adv-x="672" 
d="M660 -117h-114v117h-470v667h118v-562h272v562h118v-562h76v-222z" />
    <glyph glyph-name="afii10041" unicode="&#x427;" horiz-adv-x="633" 
d="M557 0h-118v261q-63 -21 -146 -21q-117 0 -174 56q-40 38 -51 105q-6 35 -6 108v158h117v-163q0 -62 5 -86q8 -35 33 -50q27 -16 85 -16q83 0 137 21v294h118v-667z" />
    <glyph glyph-name="afii10042" unicode="&#x428;" horiz-adv-x="889" 
d="M813 0h-737v667h118v-562h192v562h118v-562h191v562h118v-667z" />
    <glyph glyph-name="afii10043" unicode="&#x429;" horiz-adv-x="901" 
d="M889 -117h-113v117h-700v667h118v-562h192v562h118v-562h191v562h118v-562h76v-222z" />
    <glyph glyph-name="afii10044" unicode="&#x42a;" horiz-adv-x="715" 
d="M680 195q0 -91 -38 -136q-33 -39 -99 -51q-42 -8 -138 -8h-234v562h-177v105h295v-274h150q78 0 122 -12q58 -15 86 -55q33 -46 33 -131zM562 197q0 33 -10 52t-32 29q-22 9 -86 9h-31h-114v-182h114h38q56 0 79 9q42 19 42 83z" />
    <glyph glyph-name="afii10045" unicode="&#x42b;" horiz-adv-x="864" 
d="M788 0h-118v667h118v-667zM585 195q0 -91 -38 -136q-33 -39 -99 -51q-42 -8 -138 -8h-234v667h118v-274h116q94 0 138 -9q67 -13 99 -52q38 -47 38 -137zM467 197q0 33 -10 52t-32 29q-22 9 -86 9h-31h-114v-182h114h38q56 0 79 9q42 19 42 83z" />
    <glyph glyph-name="afii10046" unicode="&#x42c;" horiz-adv-x="620" 
d="M585 195q0 -91 -38 -136q-33 -39 -99 -51q-42 -8 -138 -8h-234v667h118v-274h116q94 0 138 -9q67 -13 99 -52q38 -47 38 -137zM467 197q0 33 -10 52t-32 29q-22 9 -86 9h-31h-114v-182h114h38q56 0 79 9q42 19 42 83z" />
    <glyph glyph-name="afii10047" unicode="&#x42d;" horiz-adv-x="656" 
d="M592 334q0 -122 -11 -174q-17 -82 -73 -122q-65 -46 -197 -46q-131 0 -190 47q-60 46 -60 147h116q0 -35 12 -52q12 -19 41.5 -26.5t89.5 -7.5q63 0 94 15t44.5 53.5t15.5 120.5h-227v104h226q-3 72 -16 107q-14 38 -46 53q-31 14 -92 14q-90 0 -119 -21q-24 -18 -24 -66
h-116q0 114 77 159q59 35 173 35q132 0 197 -46q56 -39 74 -121q11 -52 11 -173z" />
    <glyph glyph-name="afii10048" unicode="&#x42e;" horiz-adv-x="938" 
d="M874 335q0 -126 -13 -183q-18 -81 -74 -118q-62 -42 -187 -42q-119 0 -182 39q-56 33 -76 104q-16 52 -17 153h-131v-288h-118v667h118v-273h131q2 95 18 145q22 67 78 99q62 36 178 36q129 0 192 -44q55 -39 72 -120q11 -52 11 -175zM756 334q0 101 -10 146
q-12 50 -46 69q-31 18 -101 18t-101 -18q-32 -18 -43.5 -64t-11.5 -152q0 -102 10 -146q12 -50 45 -69q31 -18 101 -18t101 18q32 18 44 64t12 152z" />
    <glyph glyph-name="afii10049" unicode="&#x42f;" horiz-adv-x="657" 
d="M175 0h-140l188 277q-90 10 -127 80q-24 46 -24 115q0 89 38 134q32 39 99 52q44 9 138 9h234v-667h-118v268h-33q-39 0 -53.5 -2.5t-26.5 -12.5q-16 -13 -63 -83zM188 467q0 -45 13 -65q11 -18 32.5 -23t81.5 -5h148v188h-135q-55 0 -76.5 -3t-35.5 -11q-28 -19 -28 -81
z" />
    <glyph glyph-name="afii10065" unicode="&#x430;" horiz-adv-x="541" 
d="M485 0h-101v40q-55 -48 -152 -48q-99 0 -145 38q-45 38 -45 118q0 101 73 136q45 22 135 22h125q0 34 -3.5 49.5t-13.5 24.5q-21 20 -86 20q-51 0 -74 -9q-32 -13 -32 -45h-110q0 91 77 126q52 24 145 24q207 0 207 -178v-318zM377 214h-131q-54 0 -72.5 -13t-18.5 -51
q0 -36 22 -50q21 -15 73 -15q86 0 110 37q17 25 17 92z" />
    <glyph glyph-name="afii10066" unicode="&#x431;" horiz-adv-x="553" 
d="M507 244q0 -81 -11 -124q-12 -46 -39 -73q-55 -55 -175 -55q-64 0 -107 14q-40 13 -68 41t-39.5 72.5t-11.5 124.5v181q0 56 7 90q11 51 40 80q24 24 56 35.5t92 17.5q51 5 52 5q26 4 39 13q15 11 15 33h112q0 -40 -8 -65.5t-26 -43.5t-45.5 -26.5t-86.5 -13.5
q-51 -5 -74 -11.5t-37 -20.5q-22 -22 -22 -65q24 24 57.5 33.5t89.5 9.5q122 0 163 -80q27 -53 27 -172zM394 243q0 93 -23 122q-21 27 -79 27q-50 0 -76 -12q-27 -12 -38 -43t-11 -94q0 -53 4.5 -79.5t16.5 -41.5q23 -30 93 -30q51 0 76 15q21 13 29 41.5t8 94.5z" />
    <glyph glyph-name="afii10067" unicode="&#x432;" horiz-adv-x="536" 
d="M496 145q0 -76 -41 -109q-25 -20 -58 -28t-90 -8h-39h-205v488h200q80 0 108 -3q57 -7 85 -31q35 -29 35 -89q0 -50 -12 -76q-12 -27 -40 -37q31 -12 44 -36.5t13 -70.5zM379 343q0 27 -14 37q-12 7 -29.5 9t-71.5 2h-88v-95h88q72 0 89 5q14 5 20 14.5t6 27.5zM379 149
q0 31 -14 41q-12 8 -29 10t-72 2h-88v-105h88q72 0 89 6q26 9 26 46z" />
    <glyph glyph-name="afii10068" unicode="&#x433;" horiz-adv-x="444" 
d="M441 388h-265v-388h-113v488h378v-100z" />
    <glyph glyph-name="afii10069" unicode="&#x434;" horiz-adv-x="569" 
d="M547 -117h-106v119h-329v-119h-106v217q42 0 62 20q17 17 26 53l74 315h316v-388h63v-217zM371 100v288h-112l-49 -208q-15 -64 -44 -80h205z" />
    <glyph glyph-name="afii10070" unicode="&#x435;" horiz-adv-x="545" 
d="M496 201h-334q0 -69 26 -93q26 -23 92 -23q103 0 104 61h106q0 -93 -81 -130q-51 -24 -133 -24q-143 0 -193 79q-34 53 -34 167q0 83 15 132q18 61 64 92q52 34 145 34q101 0 152 -39q45 -33 61 -104q10 -49 10 -152zM384 293q0 37 -4 55t-15 30q-24 25 -92 25
q-62 0 -85.5 -23.5t-23.5 -86.5h220z" />
    <glyph glyph-name="afii10072" unicode="&#x436;" horiz-adv-x="761" 
d="M755 0h-138l-180 219v-219h-113v219l-180 -219h-138l212 253l-211 235h135l182 -204v204h113v-204l182 204h132l-210 -233z" />
    <glyph glyph-name="afii10073" unicode="&#x437;" horiz-adv-x="534" 
d="M485 142q0 -86 -68 -122q-53 -28 -157 -28q-103 0 -155 34q-58 38 -58 120h107q0 -30 25 -42.5t85 -12.5q68 0 93 13t25 44q0 25 -9 36q-9 12 -31 16t-74 4h-55v95h55q64 0 86 10q22 11 22 39q0 29 -26 38q-23 9 -86 9q-53 0 -75 -8q-35 -12 -35 -45h-107q0 93 74 129
q50 25 139 25q122 0 172 -34q47 -32 47 -103q0 -37 -11 -61q-13 -27 -41 -43q32 -14 45 -39.5t13 -73.5z" />
    <glyph glyph-name="afii10074" unicode="&#x438;" horiz-adv-x="554" 
d="M491 0h-104v331l-209 -331h-115v488h104v-329l210 329h114v-488z" />
    <glyph glyph-name="afii10075" unicode="&#x439;" horiz-adv-x="554" 
d="M491 0h-104v331l-209 -331h-115v488h104v-329l210 329h114v-488zM424 672q0 -80 -37 -107q-32 -24 -110 -24q-88 0 -119 32q-28 28 -28 99h70q0 -37 17 -51t60 -14q42 0 58 12q19 15 19 53h70z" />
    <glyph glyph-name="afii10076" unicode="&#x43a;" horiz-adv-x="536" 
d="M530 0h-147l-206 219v-219h-114v488h114v-204l209 204h140l-241 -233z" />
    <glyph glyph-name="afii10077" unicode="&#x43b;" horiz-adv-x="547" 
d="M484 0h-113v388h-113l-53 -227q-15 -65 -25 -89q-19 -40 -55 -59q-41 -21 -119 -21v110q44 0 63 20q16 15 25 52l74 314h316v-488z" />
    <glyph glyph-name="afii10078" unicode="&#x43c;" horiz-adv-x="676" 
d="M613 0h-108v320l-116 -320h-105l-115 319v-319h-106v488h144l132 -350l131 350h143v-488z" />
    <glyph glyph-name="afii10079" unicode="&#x43d;" horiz-adv-x="554" 
d="M491 0h-113v201h-202v-201h-113v488h113v-187h202v187h113v-488z" />
    <glyph glyph-name="afii10080" unicode="&#x43e;" horiz-adv-x="562" 
d="M513 244q0 -81 -11 -124q-12 -46 -41 -73q-56 -55 -180 -55q-66 0 -110 14q-42 13 -70 41q-29 27 -40.5 71.5t-11.5 125.5t11 124q12 46 41 73q32 32 82 45q40 10 98 10q124 0 180 -55q29 -27 40.5 -71.5t11.5 -125.5zM400 244q0 53 -5 79.5t-17 42.5q-24 30 -97 30
q-54 0 -79 -15q-23 -13 -31.5 -42t-8.5 -95q0 -53 5 -79.5t17 -42.5q24 -30 97 -30q54 0 79 15q23 13 31.5 42t8.5 95z" />
    <glyph glyph-name="afii10081" unicode="&#x43f;" horiz-adv-x="554" 
d="M491 0h-113v388h-202v-388h-113v488h428v-488z" />
    <glyph glyph-name="afii10082" unicode="&#x440;" horiz-adv-x="563" 
d="M514 243q0 -122 -40 -179q-50 -72 -170 -72q-47 0 -76.5 10t-51.5 33v-226h-113v679h102v-39q56 49 152 47q84 -1 128 -32q41 -28 57 -87q12 -47 12 -134zM401 243q0 93 -23 124q-21 29 -79 29q-50 0 -75 -13q-27 -13 -38 -45t-11 -95q0 -62 11 -93q10 -32 35.5 -45
t77.5 -13q42 0 64 14q21 13 29.5 44t8.5 93z" />
    <glyph glyph-name="afii10083" unicode="&#x441;" horiz-adv-x="528" 
d="M481 146q0 -154 -208 -154q-146 0 -194 85q-30 53 -30 169q0 81 13 126q17 60 63 90q52 34 148 34q208 0 208 -154h-107q-1 37 -38 49q-19 5 -60 5q-51 0 -75 -15q-22 -13 -30.5 -42.5t-8.5 -94.5q0 -53 5 -80t17 -43q23 -29 92 -29q48 0 67 8q30 13 31 46h107z" />
    <glyph glyph-name="afii10084" unicode="&#x442;" horiz-adv-x="457" 
d="M451 388h-166v-388h-113v388h-166v100h445v-100z" />
    <glyph glyph-name="afii10085" unicode="&#x443;" horiz-adv-x="519" 
d="M502 488l-263 -678h-119l83 202l-186 476h120l125 -351l120 351h120z" />
    <glyph glyph-name="afii10086" unicode="&#x444;" horiz-adv-x="835" 
d="M786 244q0 -127 -44 -186q-49 -66 -160 -66q-31 0 -61.5 10t-46.5 26v-219h-113v219q-13 -17 -44.5 -26.5t-71.5 -9.5q-129 0 -170 81q-26 52 -26 170q0 84 12 131q16 60 56 89q46 33 128 33q40 0 71 -10t45 -27v239h113v-239q50 37 117 37q127 0 168 -81q27 -53 27 -171
zM673 244q0 85 -19 117q-21 35 -74 35q-65 0 -88 -37q-21 -34 -21 -115q0 -92 28 -124q24 -28 81 -28q52 0 72.5 33.5t20.5 118.5zM364 244q0 92 -28 124q-24 28 -81 28q-54 0 -73.5 -32t-19.5 -120q0 -87 18 -117q20 -35 75 -35q65 0 88 37q21 34 21 115z" />
    <glyph glyph-name="afii10087" unicode="&#x445;" horiz-adv-x="536" 
d="M521 0h-133l-122 176l-123 -176h-128l186 248l-179 240h133l115 -166l117 166h129l-181 -239z" />
    <glyph glyph-name="afii10088" unicode="&#x446;" horiz-adv-x="591" 
d="M554 -117h-106v117h-385v488h113v-388h202v388h113v-388h63v-217z" />
    <glyph glyph-name="afii10089" unicode="&#x447;" horiz-adv-x="533" 
d="M470 0h-113v181q-49 -19 -126 -19q-100 0 -145 45q-26 26 -35 63t-9 119v99h113v-90q0 -50 3 -72t13 -36q19 -28 80 -28q69 0 106 16v210h113v-488z" />
    <glyph glyph-name="afii10090" unicode="&#x448;" horiz-adv-x="765" 
d="M702 0h-639v488h113v-388h150v388h113v-388h150v388h113v-488z" />
    <glyph glyph-name="afii10091" unicode="&#x449;" horiz-adv-x="796" 
d="M765 -117h-106v117h-596v488h113v-388h150v388h113v-388h150v388h113v-388h63v-217z" />
    <glyph glyph-name="afii10092" unicode="&#x44a;" horiz-adv-x="567" 
d="M528 151q0 -84 -35 -115q-39 -36 -127 -36h-271v388h-101v100h214v-187h135q62 0 94 -8q35 -8 57 -30q34 -34 34 -112zM411 150q0 31 -14 41q-12 8 -29 10t-72 2h-88v-105h88q72 0 89 6q26 9 26 46z" />
    <glyph glyph-name="afii10093" unicode="&#x44b;" horiz-adv-x="746" 
d="M683 0h-113v488h113v-488zM496 151q0 -84 -35 -115q-39 -36 -127 -36h-271v488h113v-187h135q62 0 94 -8q35 -8 57 -30q34 -34 34 -112zM379 150q0 31 -14 41q-12 8 -29 10t-72 2h-88v-105h88q72 0 89 6q26 9 26 46z" />
    <glyph glyph-name="afii10094" unicode="&#x44c;" horiz-adv-x="535" 
d="M496 151q0 -84 -35 -115q-39 -36 -127 -36h-271v488h113v-187h135q62 0 94 -8q35 -8 57 -30q34 -34 34 -112zM379 150q0 31 -14 41q-12 8 -29 10t-72 2h-88v-105h88q72 0 89 6q26 9 26 46z" />
    <glyph glyph-name="afii10095" unicode="&#x44d;" horiz-adv-x="528" 
d="M479 246q0 -81 -13 -127q-17 -61 -63 -92q-52 -35 -148 -35q-208 0 -208 154h107q1 -37 38 -49q19 -5 60 -5q69 0 93 29q20 24 20 83h-154v94h153q0 57 -28 79q-25 19 -84 19q-48 0 -67 -8q-30 -13 -31 -46h-107q0 154 208 154q146 0 194 -83q20 -34 26 -88q4 -32 4 -79z
" />
    <glyph glyph-name="afii10096" unicode="&#x44e;" horiz-adv-x="784" 
d="M735 244q0 -81 -11 -124q-12 -46 -41 -73q-56 -55 -180 -55q-66 0 -110 14q-42 13 -70 41q-46 45 -51 154h-96v-201h-113v488h113v-187h96q3 51 15 84t36 56q32 32 82 45q40 10 98 10q124 0 180 -55q29 -27 40.5 -71.5t11.5 -125.5zM622 244q0 53 -5 79.5t-17 42.5
q-24 30 -97 30q-54 0 -79 -15q-23 -13 -31.5 -42t-8.5 -95q0 -53 5 -79.5t17 -42.5q24 -30 97 -30q54 0 79 15q23 13 31.5 42t8.5 95z" />
    <glyph glyph-name="afii10097" unicode="&#x44f;" horiz-adv-x="544" 
d="M481 0h-113v185h-21q-26 0 -38 -2t-22 -9q-17 -11 -45 -52l-83 -122h-132l139 195q-108 18 -108 142q0 100 59 131q38 20 135 20h229v-488zM367 279v112h-83q-48 0 -67 -1.5t-29 -7.5q-19 -10 -19 -48q0 -41 26 -50q15 -5 57 -5h32h83z" />
    <glyph glyph-name="uni0450" unicode="&#x450;" horiz-adv-x="545" 
d="M496 201h-334q0 -69 26 -93q26 -23 92 -23q103 0 104 61h106q0 -93 -81 -130q-51 -24 -133 -24q-143 0 -193 79q-34 53 -34 167q0 83 15 132q18 61 64 92q52 34 145 34q101 0 152 -39q45 -33 61 -104q10 -49 10 -152zM384 293q0 37 -4 55t-15 30q-24 25 -92 25
q-62 0 -85.5 -23.5t-23.5 -86.5h220zM395 541h-124l-137 126h124z" />
    <glyph glyph-name="afii10071" unicode="&#x451;" horiz-adv-x="545" 
d="M496 201h-334q0 -69 26 -93q26 -23 92 -23q103 0 104 61h106q0 -93 -81 -130q-51 -24 -133 -24q-143 0 -193 79q-34 53 -34 167q0 83 15 132q18 61 64 92q52 34 145 34q101 0 152 -39q45 -33 61 -104q10 -49 10 -152zM384 293q0 37 -4 55t-15 30q-24 25 -92 25
q-62 0 -85.5 -23.5t-23.5 -86.5h220zM439 609q0 -59 -59 -59q-58 0 -58 59q0 30 14 44t44 14q31 0 45 -14t14 -44zM223 609q0 -59 -59 -59q-58 0 -58 59q0 30 14 44t44 14q31 0 45 -14t14 -44z" />
    <glyph glyph-name="afii10099" unicode="&#x452;" horiz-adv-x="590" 
d="M421 97v160q0 66 -1 78q-4 32 -21 46q-20 15 -67 15q-76 0 -99 -46q-14 -28 -14 -90v-33v-227h-113v549h-88v79h88v70h113v-70h143v-79h-143v-92q51 39 126 39q137 0 173 -84q10 -25 13 -51.5t3 -94.5v-160q0 -110 -14 -162q-18 -69 -70 -100q-57 -34 -169 -34v101
q62 0 92 19q29 18 40 61q8 33 8 106z" />
    <glyph glyph-name="afii10100" unicode="&#x453;" horiz-adv-x="444" 
d="M441 388h-265v-388h-113v488h378v-100zM404 668l-138 -127h-126l138 127h126z" />
    <glyph glyph-name="afii10101" unicode="&#x454;" horiz-adv-x="528" 
d="M481 146q0 -154 -208 -154q-146 0 -194 85q-30 53 -30 169q0 81 13 126q17 60 63 90q52 34 148 34q208 0 208 -154h-107q-1 37 -38 49q-19 5 -60 5q-66 0 -91 -26q-21 -22 -21 -72h156v-94h-157q0 -67 27 -90q25 -22 86 -22q48 0 67 8q30 13 31 46h107z" />
    <glyph glyph-name="afii10102" unicode="&#x455;" horiz-adv-x="520" 
d="M476 342h-104q0 37 -23 50q-20 11 -67 13h-16q-53 0 -75 -12t-23 -40q-1 -39 23 -50q13 -6 56 -8q93 -6 109 -9q57 -9 85 -37q33 -36 32 -108q-1 -90 -73 -125q-53 -26 -153 -24q-107 2 -154 38q-49 36 -49 116h104q0 -35 21.5 -48.5t76.5 -15.5h17q53 0 75 12t23 42
q1 42 -25 53q-15 7 -63 9q-82 5 -106 9q-55 10 -81 38q-32 35 -31 105q1 87 69 121q49 25 144 25h13q103 -2 149 -39t46 -115z" />
    <glyph glyph-name="afii10103" unicode="&#x456;" horiz-adv-x="239" 
d="M181 613q0 -31 -18 -48q-16 -14 -44 -14q-32 0 -48 19q-14 16 -14 43q0 32 19 47q15 14 43 14q32 0 48 -18q14 -15 14 -43zM176 0h-113v488h113v-488z" />
    <glyph glyph-name="afii10104" unicode="&#x457;" horiz-adv-x="239" 
d="M286 609q0 -59 -59 -59q-58 0 -58 59q0 30 14 44t44 14q31 0 45 -14t14 -44zM70 609q0 -59 -59 -59q-58 0 -58 59q0 30 14 44t44 14q31 0 45 -14t14 -44zM176 0h-113v488h113v-488z" />
    <glyph glyph-name="afii10105" unicode="&#x458;" horiz-adv-x="239" 
d="M181 613q0 -31 -18 -48q-16 -14 -44 -14q-32 0 -48 19q-14 16 -14 43q0 32 19 47q15 14 43 14q32 0 48 -18q14 -15 14 -43zM-59 -190v93h48q46 0 60 18t14 79v488h113v-520q0 -105 -69 -139q-39 -19 -115 -19h-51z" />
    <glyph glyph-name="afii10106" unicode="&#x459;" horiz-adv-x="831" 
d="M803 151q0 -84 -35 -115q-39 -36 -127 -36h-270h-1v388h-111l-53 -227q-15 -65 -26 -89q-18 -40 -54 -59q-42 -21 -120 -21v110q43 0 64 20q16 17 24 52l74 314h315v-187h135q62 0 94 -8q35 -8 57 -30q34 -34 34 -112zM686 150q0 31 -14 41q-12 8 -29 10t-72 2h-88v-105
h88q72 0 89 6q26 9 26 46z" />
    <glyph glyph-name="afii10107" unicode="&#x45a;" horiz-adv-x="839" 
d="M811 151q0 -84 -35 -115q-39 -36 -127 -36h-271v201h-202v-201h-113v488h113v-187h202v187h113v-187h135q62 0 94 -8q35 -8 57 -30q34 -34 34 -112zM694 150q0 31 -14 41q-12 8 -29 10t-72 2h-88v-105h88q72 0 89 6q26 9 26 46z" />
    <glyph glyph-name="afii10108" unicode="&#x45b;" horiz-adv-x="590" 
d="M534 0h-113v257q0 66 -1 78q-4 32 -21 46q-20 15 -67 15q-76 0 -99 -46q-14 -28 -14 -90v-33v-227h-113v549h-88v79h88v69h113v-69h143v-79h-143v-92q51 39 126 39q137 0 173 -84q10 -25 13 -51.5t3 -94.5v-266z" />
    <glyph glyph-name="afii10109" unicode="&#x45c;" horiz-adv-x="536" 
d="M530 0h-147l-206 219v-219h-114v488h114v-204l209 204h140l-241 -233zM441 668l-138 -127h-126l138 127h126z" />
    <glyph glyph-name="uni045D" unicode="&#x45d;" horiz-adv-x="554" 
d="M491 0h-104v331l-209 -331h-115v488h104v-329l210 329h114v-488zM397 541h-124l-137 126h124z" />
    <glyph glyph-name="afii10110" unicode="&#x45e;" horiz-adv-x="519" 
d="M502 488l-263 -678h-119l83 202l-186 476h120l125 -351l120 351h120zM407 672q0 -80 -37 -107q-32 -24 -110 -24q-88 0 -119 32q-28 28 -28 99h70q0 -37 17 -51t60 -14q42 0 58 12q19 15 19 53h70z" />
    <glyph glyph-name="afii10193" unicode="&#x45f;" horiz-adv-x="554" 
d="M491 0h-160v-117h-106v117h-162v488h113v-390h202v390h113v-488z" />
    <glyph glyph-name="uni0462" unicode="&#x462;" horiz-adv-x="715" 
d="M680 195q0 -91 -38 -136q-33 -39 -99 -51q-42 -8 -138 -8h-234v480h-177v106h177v81h118v-81h203v-106h-203v-87h150q78 0 122 -12q58 -15 86 -55q33 -46 33 -131zM562 197q0 33 -10 52t-32 29q-22 9 -86 9h-31h-114v-182h114h38q56 0 79 9q42 19 42 83z" />
    <glyph glyph-name="uni0463" unicode="&#x463;" horiz-adv-x="567" 
d="M528 151q0 -84 -35 -115q-39 -36 -127 -36h-271v394h-101v94h101v179h113v-179h199v-94h-199v-93h135q62 0 94 -8q35 -8 57 -30q34 -34 34 -112zM411 150q0 31 -14 41q-12 8 -29 10t-72 2h-88v-105h88q72 0 89 6q26 9 26 46z" />
    <glyph glyph-name="uni0472" unicode="&#x472;" horiz-adv-x="677" 
d="M613 335q0 -126 -13 -183q-18 -81 -74 -118q-62 -42 -187 -42q-128 0 -192 45q-55 39 -72 122q-11 52 -11 175t11 175q16 82 71 120q63 45 192 45t192 -44q55 -39 72 -120q11 -52 11 -175zM338 100q64 0 95 15q32 15 45.5 53.5t15.5 119.5h-312q2 -79 14 -117
q14 -40 47 -56q31 -15 95 -15zM338 567q-62 0 -92 -14q-32 -14 -46 -49.5t-17 -109.5h311q-3 72 -16 107q-15 38 -48 52q-30 14 -92 14z" />
    <glyph glyph-name="uni0473" unicode="&#x473;" horiz-adv-x="562" 
d="M513 244q0 -81 -11 -124q-12 -46 -41 -73q-56 -55 -180 -55q-66 0 -110 14q-42 13 -70 41q-29 27 -40.5 71.5t-11.5 125.5t11 124q12 46 41 73q32 32 82 45q40 10 98 10q124 0 180 -55q29 -27 40.5 -71.5t11.5 -125.5zM281 92q72 0 97 30q20 24 21 81h-236q1 -65 28 -88
q26 -23 90 -23zM281 396q-68 0 -94 -26q-21 -22 -23 -71h234q-2 56 -30 77q-27 20 -87 20z" />
    <glyph glyph-name="uni0474" unicode="&#x474;" horiz-adv-x="639" 
d="M368 0h-116l-249 667h126l183 -518l127 356q21 58 37 87.5t37 47.5q40 34 123 35v-105q-35 -2 -54 -25q-17 -20 -37 -74z" />
    <glyph glyph-name="uni0475" unicode="&#x475;" horiz-adv-x="524" 
d="M319 0h-113l-192 488h121l129 -358l74 198q26 71 39 97t29 41q16 16 40 23t64 7v-106q-29 -1 -44 -19q-11 -14 -27 -57z" />
    <glyph glyph-name="afii10050" unicode="&#x490;" horiz-adv-x="531" 
d="M525 561h-331v-561h-118v667h339v109h110v-215z" />
    <glyph glyph-name="afii10098" unicode="&#x491;" horiz-adv-x="444" 
d="M441 388h-265v-388h-113v488h272v115h106v-215z" />
    <glyph glyph-name="uni0492" unicode="&#x492;" horiz-adv-x="579" 
d="M194 289v-289h-118v289h-76v104h76v274h449v-105h-331v-169h216v-104h-216z" />
    <glyph glyph-name="uni0493" unicode="&#x493;" horiz-adv-x="444" 
d="M63 301v187h378v-100h-265v-87h164v-100h-164v-201h-113v200h-63v101h63z" />
    <glyph glyph-name="uni049A" unicode="&#x49a;" horiz-adv-x="682" 
d="M564 67h63v-184h-106v117h-55l-272 268v-268h-118v667h118v-270l282 270h159l-355 -331z" />
    <glyph glyph-name="uni049B" unicode="&#x49b;" horiz-adv-x="572" 
d="M434 100h106v-217h-106v117h-51l-206 219v-219h-114v488h114v-203l208 203h141l-241 -233z" />
    <glyph glyph-name="uni04A2" unicode="&#x4a2;" horiz-adv-x="741" 
d="M584 67h106v-184h-106v117h-118v288h-272v-288h-118v667h118v-273h272v273h118v-600z" />
    <glyph glyph-name="uni04A3" unicode="&#x4a3;" horiz-adv-x="629" 
d="M491 100h104v-217h-106v117h-111v201h-202v-201h-113v488h113v-187h202v187h113v-388z" />
    <glyph glyph-name="uni04AE" unicode="&#x4ae;" horiz-adv-x="611" 
d="M609 667l-245 -379v-288h-118v288l-244 379h137l168 -274l167 274h135z" />
    <glyph glyph-name="uni04AF" unicode="&#x4af;" horiz-adv-x="611" 
d="M246 -191v192l-244 487h137l168 -343l167 343h135l-245 -487v-192h-118z" />
    <glyph glyph-name="uni04B0" unicode="&#x4b0;" horiz-adv-x="611" 
d="M246 237v51l-244 379h137l168 -274l167 274h135l-245 -379v-51h162v-92h-162v-145h-118v145h-160v92h160z" />
    <glyph glyph-name="uni04B1" unicode="&#x4b1;" horiz-adv-x="611" 
d="M246 -26v27l-244 487h137l168 -348l167 348h135l-245 -487v-27h162v-92h-162v-73h-118v73h-160v92h160z" />
    <glyph glyph-name="uni04B8" unicode="&#x4b8;" horiz-adv-x="605" 
d="M241 254q-78 10 -121 54q-31 31 -42.5 76.5t-11.5 136.5v146h118v-157q0 -76 10 -103q12 -33 47 -43v150h118v-151q31 5 55 16v288h118v-667h-118v273q-25 -10 -55 -15v-159h-118v155z" />
    <glyph glyph-name="uni04BA" unicode="&#x4ba;" horiz-adv-x="605" 
d="M539 0h-118v157q0 54 -4 79.5t-15 40.5q-22 32 -90 32q-74 0 -121 -21v-288h-118v667h118v-273q56 21 130 21q109 0 164 -56q31 -32 42.5 -77t11.5 -136v-146z" />
    <glyph glyph-name="uni04BB" unicode="&#x4bb;" horiz-adv-x="547" 
d="M491 0h-113v257q0 66 -1 78q-4 32 -21 46q-20 15 -67 15q-76 0 -99 -46q-14 -28 -14 -90v-33v-227h-113v697h113v-240q51 39 126 39q137 0 173 -84q10 -25 13 -51.5t3 -94.5v-266z" />
    <glyph glyph-name="uni04C0" unicode="&#x4c0;" horiz-adv-x="270" 
d="M194 0h-118v667h118v-667z" />
    <glyph glyph-name="uni04CF" unicode="&#x4cf;" horiz-adv-x="270" 
d="M194 0h-118v667h118v-667z" />
    <glyph glyph-name="uni04D8" unicode="&#x4d8;" horiz-adv-x="677" 
d="M71 487q14 99 75 142q64 45 192 45q129 0 192 -44q55 -39 72 -120q11 -52 11 -175q0 -126 -13 -183q-18 -81 -74 -118q-62 -42 -187 -42q-128 0 -192 45q-55 39 -72 122q-11 52 -11 175v32h431q0 14 -1 28q-3 72 -16 107q-15 37 -48 52q-30 14 -92 14q-76 0 -107 -22
q-30 -21 -40 -73zM183 260q4 -66 17 -99q14 -34 45 -47.5t93 -13.5q60 0 90 13q32 13 46.5 46t18.5 101h-310z" />
    <glyph glyph-name="afii10846" unicode="&#x4d9;" horiz-adv-x="545" 
d="M49 287h334q0 69 -26 93q-26 23 -92 23q-103 0 -104 -61h-106q0 93 81 130q51 24 133 24q143 0 193 -79q34 -53 34 -167q0 -83 -15 -132q-18 -61 -64 -92q-52 -34 -145 -34q-101 0 -152 39q-45 33 -61 104q-10 49 -10 152zM161 195q0 -37 4 -55t15 -30q24 -25 92 -25
q62 0 85.5 23.5t23.5 86.5h-220z" />
    <glyph glyph-name="uni04E8" unicode="&#x4e8;" horiz-adv-x="677" 
d="M613 335q0 -126 -13 -183q-18 -81 -74 -118q-62 -42 -187 -42q-128 0 -192 45q-55 39 -72 122q-11 52 -11 175t11 175q16 82 71 120q63 45 192 45t192 -44q55 -39 72 -120q11 -52 11 -175zM494 288h-311q1 -80 14 -117q13 -41 46 -56q31 -15 95 -15t95 15
q32 15 45.5 53.5t15.5 119.5zM183 394h311q-3 72 -16 107q-14 38 -47 52q-31 14 -93 14t-92 -14q-32 -14 -46 -49.5t-17 -109.5z" />
    <glyph glyph-name="uni04E9" unicode="&#x4e9;" horiz-adv-x="562" 
d="M513 244q0 -81 -11 -124q-12 -46 -41 -73q-56 -55 -180 -55q-66 0 -110 14q-42 13 -70 41q-29 27 -40.5 71.5t-11.5 125.5t11 124q12 46 41 73q32 32 82 45q40 10 98 10q124 0 180 -55q29 -27 40.5 -71.5t11.5 -125.5zM398 186h-234q5 -55 32 -75q25 -19 85 -19
q67 0 92 25q21 20 25 69zM163 292h236q-4 62 -30 83t-88 21q-70 0 -95 -28q-19 -22 -23 -76z" />
    <glyph glyph-name="Wgrave" unicode="&#x1e80;" horiz-adv-x="898" 
d="M862 667l-155 -667h-124l-135 536l-137 -536h-123l-152 667h115l108 -507l128 507h125l129 -507l109 507h112zM557 736h-124l-137 126h124z" />
    <glyph glyph-name="wgrave" unicode="&#x1e81;" horiz-adv-x="733" 
d="M715 488l-132 -488h-113l-100 380l-103 -380h-117l-132 488h111l85 -364l98 364h110l99 -364l85 364h109zM481 541h-124l-137 126h124z" />
    <glyph glyph-name="Wacute" unicode="&#x1e82;" horiz-adv-x="898" 
d="M862 667l-155 -667h-124l-135 536l-137 -536h-123l-152 667h115l108 -507l128 507h125l129 -507l109 507h112zM620 862l-138 -127h-126l138 127h126z" />
    <glyph glyph-name="wacute" unicode="&#x1e83;" horiz-adv-x="733" 
d="M715 488l-132 -488h-113l-100 380l-103 -380h-117l-132 488h111l85 -364l98 364h110l99 -364l85 364h109zM524 667l-138 -127h-126l138 127h126z" />
    <glyph glyph-name="Wdieresis" unicode="&#x1e84;" horiz-adv-x="898" 
d="M862 667l-155 -667h-124l-135 536l-137 -536h-123l-152 667h115l108 -507l128 507h125l129 -507l109 507h112zM615 804q0 -59 -59 -59q-58 0 -58 59q0 30 14 44t44 14q31 0 45 -14t14 -44zM399 804q0 -59 -59 -59q-58 0 -58 59q0 30 14 44t44 14q31 0 45 -14t14 -44z" />
    <glyph glyph-name="wdieresis" unicode="&#x1e85;" horiz-adv-x="733" 
d="M715 488l-132 -488h-113l-100 380l-103 -380h-117l-132 488h111l85 -364l98 364h110l99 -364l85 364h109zM537 609q0 -59 -59 -59q-58 0 -58 59q0 30 14 44t44 14q31 0 45 -14t14 -44zM321 609q0 -59 -59 -59q-58 0 -58 59q0 30 14 44t44 14q31 0 45 -14t14 -44z" />
    <glyph glyph-name="Ygrave" unicode="&#x1ef2;" horiz-adv-x="611" 
d="M609 667l-245 -379v-288h-118v288l-244 379h137l168 -274l167 274h135zM429 736h-124l-137 126h124z" />
    <glyph glyph-name="ygrave" unicode="&#x1ef3;" horiz-adv-x="519" 
d="M484 488v-436q0 -79 -4 -106q-22 -140 -209 -140q-95 0 -149 35q-60 40 -60 119h112q2 -58 94 -58q95 0 104 66q2 16 2 65q-19 -19 -53 -30t-76 -11q-137 0 -173 84q-10 25 -13 51.5t-3 94.5v266h113v-257v-40q0 -34 3.5 -50.5t12.5 -27.5q19 -21 73 -21q76 0 99 46
q14 28 14 90v33v227h113zM408 541h-124l-137 126h124z" />
    <glyph glyph-name="uni2011" unicode="&#x2011;" horiz-adv-x="540" 
d="M475 193h-410v102h410v-102z" />
    <glyph glyph-name="figuredash" unicode="&#x2012;" horiz-adv-x="602" 
d="M569 193h-536v102h536v-102z" />
    <glyph glyph-name="endash" unicode="&#x2013;" horiz-adv-x="602" 
d="M569 193h-536v102h536v-102z" />
    <glyph glyph-name="emdash" unicode="&#x2014;" horiz-adv-x="1007" 
d="M909 193h-811v102h811v-102z" />
    <glyph glyph-name="afii00208" unicode="&#x2015;" horiz-adv-x="1007" 
d="M909 193h-811v102h811v-102z" />
    <glyph glyph-name="quoteleft" unicode="&#x2018;" horiz-adv-x="241" 
d="M231 609l-35 -35q-14 -16 -19.5 -32.5t-5.5 -44.5v-106h-105v106q0 49 10.5 79t37.5 57l44 43z" />
    <glyph glyph-name="quoteright" unicode="&#x2019;" horiz-adv-x="241" 
d="M175 561q0 -49 -10.5 -79t-37.5 -57l-44 -43l-73 67l35 35q14 16 19.5 32.5t5.5 44.5v106h105v-106z" />
    <glyph glyph-name="quotesinglbase" unicode="&#x201a;" horiz-adv-x="246" 
d="M175 28q0 -49 -10.5 -79t-37.5 -57l-44 -43l-73 67l35 35q14 16 19.5 32.5t5.5 44.5v106h105v-106z" />
    <glyph glyph-name="quotedblleft" unicode="&#x201c;" horiz-adv-x="422" 
d="M412 609l-35 -35q-14 -16 -19.5 -32.5t-5.5 -44.5v-106h-105v106q0 49 10.5 79t37.5 57l44 43zM225 609q-37 -37 -45 -53q-9 -20 -9 -59v-106h-105v106q0 54 8 79q9 32 34 57l44 43z" />
    <glyph glyph-name="quotedblright" unicode="&#x201d;" horiz-adv-x="422" 
d="M356 561q0 -54 -8 -79q-9 -32 -34 -57l-44 -43l-73 67q37 37 45 53q9 20 9 59v106h105v-106zM175 561q0 -49 -10.5 -79t-37.5 -57l-44 -43l-73 67l35 35q14 16 19.5 32.5t5.5 44.5v106h105v-106z" />
    <glyph glyph-name="quotedblbase" unicode="&#x201e;" horiz-adv-x="427" 
d="M356 28q0 -54 -8 -79q-9 -32 -34 -57l-44 -43l-73 67q37 37 45 53q9 20 9 59v106h105v-106zM175 28q0 -49 -10.5 -79t-37.5 -57l-44 -43l-73 67l35 35q14 16 19.5 32.5t5.5 44.5v106h105v-106z" />
    <glyph glyph-name="dagger" unicode="&#x2020;" horiz-adv-x="573" 
d="M488 394h-146v-485h-110v485h-147v94h147v179h110v-179h146v-94z" />
    <glyph glyph-name="daggerdbl" unicode="&#x2021;" horiz-adv-x="573" 
d="M488 194h-146v-285h-110v285h-147v94h147v106h-147v94h147v179h110v-179h146v-94h-146v-105l146 -1v-94z" />
    <glyph glyph-name="bullet" unicode="&#x2022;" horiz-adv-x="493" 
d="M368 334q0 -68 -33 -96q-28 -25 -88 -25q-68 0 -97 33q-25 29 -25 88q0 68 33 97q29 25 89 25q68 0 96 -33q25 -29 25 -89z" />
    <glyph glyph-name="ellipsis" unicode="&#x2026;" horiz-adv-x="984" 
d="M889 63q0 -36 -20 -54q-17 -17 -49 -17q-36 0 -54 22q-15 18 -15 49q0 69 69 69t69 -69zM561 63q0 -36 -20 -54q-17 -17 -49 -17q-36 0 -54 22q-15 18 -15 49q0 69 69 69t69 -69zM233 63q0 -36 -20 -54q-17 -17 -49 -17q-36 0 -54 22q-15 18 -15 49q0 69 69 69t69 -69z
" />
    <glyph glyph-name="perthousand" unicode="&#x2030;" horiz-adv-x="1278" 
d="M681 667l-337 -667h-85l336 667h86zM583 200v26q0 59 6 89q10 44 38 66q34 27 100 27q99 0 128 -63q16 -35 16 -119v-26v-26q0 -59 -6 -89q-10 -44 -38 -66q-34 -27 -100 -27q-99 0 -128 63q-16 35 -16 119v26zM794 200q0 86 -7 109q-6 17 -20 24.5t-40 7.5t-40 -7.5
t-20 -24.5q-7 -23 -7 -109t7 -109q5 -17 19 -24.5t41 -7.5t41 7.5t19 24.5q7 23 7 109zM69 467v26q0 59 6 89q10 44 38 66q34 27 100 27q99 0 128 -63q16 -35 16 -119v-26v-26q0 -59 -6 -89q-10 -44 -38 -66q-34 -27 -100 -27q-99 0 -128 63q-16 35 -16 119v26zM280 467
q0 86 -7 109q-6 17 -20 24.5t-40 7.5t-40 -7.5t-20 -24.5q-7 -23 -7 -109t7 -109q5 -17 19 -24.5t41 -7.5t41 7.5t19 24.5q7 23 7 109zM922 200v26q0 59 6 89q10 44 38 66q34 27 100 27q99 0 128 -63q16 -35 16 -119v-26v-26q0 -59 -6 -89q-10 -44 -38 -66q-34 -27 -100 -27
q-99 0 -128 63q-16 35 -16 119v26zM1133 200q0 86 -7 109q-6 17 -20 24.5t-40 7.5t-40 -7.5t-20 -24.5q-7 -23 -7 -109t7 -109q5 -17 19 -24.5t41 -7.5t41 7.5t19 24.5q7 23 7 109z" />
    <glyph glyph-name="guilsinglleft" unicode="&#x2039;" horiz-adv-x="291" 
d="M255 99l-72 -67q-75 67 -101 100q-44 56 -44 109q0 47 32 95.5t112 120.5l73 -68l-39 -39q-40 -40 -49 -53q-20 -27 -20 -55q0 -31 27 -64q10 -11 51 -50z" />
    <glyph glyph-name="guilsinglright" unicode="&#x203a;" horiz-adv-x="291" 
d="M253 241q0 -59 -55 -123q-24 -27 -90 -86l-72 67l30 29q45 43 56 58q22 28 22 56q0 31 -25 62q-7 9 -44 46l-39 39l73 68q71 -64 101 -105q43 -59 43 -111z" />
    <glyph glyph-name="slash.frac" unicode="&#x2044;" horiz-adv-x="89" 
d="M256 667l-337 -667h-85l336 667h86z" />
    <glyph glyph-name="zerosuperior" unicode="&#x2070;" 
d="M69 467v26q0 59 6 89q10 44 38 66q34 27 100 27q99 0 128 -63q16 -35 16 -119v-26v-26q0 -59 -6 -89q-10 -44 -38 -66q-34 -27 -100 -27q-99 0 -128 63q-16 35 -16 119v26zM280 467q0 86 -7 109q-6 17 -20 24.5t-40 7.5t-40 -7.5t-20 -24.5q-7 -23 -7 -109t7 -109
q5 -17 19 -24.5t41 -7.5t41 7.5t19 24.5q7 23 7 109z" />
    <glyph glyph-name="foursuperior" unicode="&#x2074;" 
d="M352 358h-55v-91h-75v91h-179v54l182 255h72v-244h55v-65zM222 423v131l-93 -131h93z" />
    <glyph glyph-name="fivesuperior" unicode="&#x2075;" 
d="M78 359h76q0 -18 14.5 -25.5t49.5 -7.5q39 0 54 21q11 16 11 50q0 40 -14 55.5t-51 15.5q-50 0 -58 -37h-75v236h253v-64h-178v-88q17 19 68 19q78 0 107 -36q24 -31 24 -99q0 -80 -43 -113q-34 -27 -98 -27q-70 0 -103 22q-37 25 -37 78z" />
    <glyph glyph-name="sixsuperior" unicode="&#x2076;" 
d="M338 574h-77q-1 18 -13 26t-38 8q-47 0 -59 -30q-6 -16 -7 -67q30 23 76 23q70 0 99 -34q27 -32 27 -103q0 -74 -37 -108q-34 -30 -99 -30q-101 0 -130 74q-12 33 -12 116q0 104 6 135q10 51 49 73q33 18 87 18q128 0 128 -101zM270 396q0 39 -13.5 55t-46.5 16
q-65 0 -65 -68q0 -40 18 -58q16 -15 47 -15q36 0 49 18q11 16 11 52z" />
    <glyph glyph-name="sevensuperior" unicode="&#x2077;" 
d="M352 614l-171 -347h-83l167 334h-190v66h277v-53z" />
    <glyph glyph-name="eightsuperior" unicode="&#x2078;" 
d="M354 379q0 -74 -45 -101q-32 -19 -96 -19q-74 0 -107 26q-35 29 -35 94q0 39 9 61q11 25 35 35q-22 8 -31 28.5t-9 62.5q0 65 39 90q31 19 99 19q77 0 108 -26q30 -25 30 -83q0 -39 -8 -59q-9 -23 -32 -31q23 -9 33 -31t10 -66zM213 324q35 0 50.5 14t15.5 45
q0 63 -66 63t-66 -63q0 -31 15.5 -45t50.5 -14zM213 508q37 0 51 15q11 11 11 35q0 28 -15 40q-14 12 -47 12t-47.5 -12t-14.5 -40q0 -27 14.5 -38.5t47.5 -11.5z" />
    <glyph glyph-name="ninesuperior" unicode="&#x2079;" 
d="M87 360h77q1 -18 13 -26t38 -8q47 0 59 30q7 17 7 67q-30 -23 -76 -23q-70 0 -99 34q-27 32 -27 103q0 74 37 108q34 30 99 30q101 0 130 -74q12 -33 12 -116q0 -104 -6 -135q-10 -51 -49 -73q-33 -18 -87 -18q-128 0 -128 101zM155 538q0 -39 13.5 -55t46.5 -16
q65 0 65 68q0 40 -18 58q-16 15 -47 15q-36 0 -49 -18q-11 -16 -11 -52z" />
    <glyph glyph-name="parenleftsuperior" unicode="&#x207d;" horiz-adv-x="239" 
d="M54 466q0 109 7 155q11 73 46 107q40 39 122 39v-70q-46 0 -68 -23q-18 -21 -24 -62t-6 -146q0 -86 3.5 -123.5t12.5 -60.5q12 -28 35 -39q19 -8 47 -8v-70q-82 0 -122 39q-35 34 -46 107q-7 46 -7 155z" />
    <glyph glyph-name="parenrightsuperior" unicode="&#x207e;" horiz-adv-x="239" 
d="M185 466q0 -109 -7 -155q-11 -73 -46 -107q-40 -39 -122 -39v70q46 0 68 23q18 21 24 62t6 146q0 86 -3.5 123.5t-12.5 60.5q-12 28 -35 39q-19 8 -47 8v70q82 0 122 -39q35 -34 46 -107q7 -46 7 -155z" />
    <glyph glyph-name="zeroinferior" unicode="&#x2080;" 
d="M69 200v26q0 59 6 89q10 44 38 66q34 27 100 27q99 0 128 -63q16 -35 16 -119v-26v-26q0 -59 -6 -89q-10 -44 -38 -66q-34 -27 -100 -27q-99 0 -128 63q-16 35 -16 119v26zM280 200q0 86 -7 109q-6 17 -20 24.5t-40 7.5t-40 -7.5t-20 -24.5q-7 -23 -7 -109t7 -109
q5 -17 19 -24.5t41 -7.5t41 7.5t19 24.5q7 23 7 109z" />
    <glyph glyph-name="oneinferior" unicode="&#x2081;" 
d="M256 0h-77v292l-59 -51l-47 53l123 106h60v-400z" />
    <glyph glyph-name="twoinferior" unicode="&#x2082;" 
d="M353 286q0 -66 -44 -96q-23 -16 -90 -34q-50 -14 -61 -23q-12 -10 -12 -40v-25h206v-68h-283v102q0 67 57 97q20 10 56 20l44 12q32 9 41.5 19.5t9.5 35.5q0 33 -13.5 44t-52.5 11t-53 -8.5t-14 -32.5h-76q0 65 47 90q34 18 95 18q75 0 110 -30q33 -30 33 -92z" />
    <glyph glyph-name="threeinferior" unicode="&#x2083;" 
d="M359 115q0 -59 -33 -91q-35 -32 -115 -32q-72 0 -106 25q-37 27 -37 86h75q0 -25 15 -34.5t53 -9.5q48 0 61 12q11 11 11 43q0 40 -15 51q-14 10 -55 10h-60v66h60q40 0 53 9.5t13 39.5t-12 40q-14 11 -54 11t-54 -8.5t-14 -32.5h-74q0 65 47 90q32 18 95 18
q76 0 110 -30q32 -28 32 -86q0 -32 -10 -54.5t-28 -29.5q19 -7 30.5 -32t11.5 -61z" />
    <glyph glyph-name="fourinferior" unicode="&#x2084;" 
d="M352 91h-55v-91h-75v91h-179v54l182 255h72v-244h55v-65zM222 156v131l-93 -131h93z" />
    <glyph glyph-name="fiveinferior" unicode="&#x2085;" 
d="M78 92h76q0 -18 14.5 -25.5t49.5 -7.5q39 0 54 21q11 16 11 50q0 40 -14 55.5t-51 15.5q-50 0 -58 -37h-75v236h253v-64h-178v-88q17 19 68 19q78 0 107 -36q24 -31 24 -99q0 -80 -43 -113q-34 -27 -98 -27q-70 0 -103 22q-37 25 -37 78z" />
    <glyph glyph-name="sixinferior" unicode="&#x2086;" 
d="M338 307h-77q-1 18 -13 26t-38 8q-47 0 -59 -30q-6 -16 -7 -67q30 23 76 23q70 0 99 -34q27 -32 27 -103q0 -74 -37 -108q-34 -30 -99 -30q-101 0 -130 74q-12 33 -12 116q0 104 6 135q10 51 49 73q33 18 87 18q128 0 128 -101zM270 129q0 39 -13.5 55t-46.5 16
q-65 0 -65 -68q0 -40 18 -58q16 -15 47 -15q36 0 49 18q11 16 11 52z" />
    <glyph glyph-name="seveninferior" unicode="&#x2087;" 
d="M352 347l-171 -347h-83l167 334h-190v66h277v-53z" />
    <glyph glyph-name="eightinferior" unicode="&#x2088;" 
d="M354 112q0 -74 -45 -101q-32 -19 -96 -19q-74 0 -107 26q-35 29 -35 94q0 39 9 61q11 25 35 35q-22 8 -31 28.5t-9 62.5q0 65 39 90q31 19 99 19q77 0 108 -26q30 -25 30 -83q0 -39 -8 -59q-9 -23 -32 -31q23 -9 33 -31t10 -66zM213 57q35 0 50.5 14t15.5 45q0 61 -66 61
t-66 -61q0 -31 15.5 -45t50.5 -14zM213 241q37 0 51 15q11 11 11 35q0 28 -15 40q-14 12 -47 12t-47.5 -12t-14.5 -40q0 -27 14.5 -38.5t47.5 -11.5z" />
    <glyph glyph-name="nineinferior" unicode="&#x2089;" 
d="M87 93h77q1 -18 13 -26t38 -8q47 0 59 30q7 17 7 67q-30 -23 -76 -23q-70 0 -99 34q-27 32 -27 103q0 74 37 108q34 30 99 30q101 0 130 -74q12 -33 12 -116q0 -104 -6 -135q-10 -51 -49 -73q-33 -18 -87 -18q-128 0 -128 101zM155 271q0 -39 13.5 -55t46.5 -16
q65 0 65 68q0 40 -18 58q-16 15 -47 15q-36 0 -49 -18q-11 -16 -11 -52z" />
    <glyph glyph-name="parenleftinferior" unicode="&#x208d;" horiz-adv-x="239" 
d="M54 199q0 109 7 155q11 73 46 107q40 39 122 39v-70q-46 0 -68 -23q-18 -21 -24 -62t-6 -146q0 -86 3.5 -123.5t12.5 -60.5q12 -28 35 -39q19 -8 47 -8v-70q-82 0 -122 39q-35 34 -46 107q-7 46 -7 155z" />
    <glyph glyph-name="parenrightinferior" unicode="&#x208e;" horiz-adv-x="239" 
d="M185 199q0 -109 -7 -155q-11 -73 -46 -107q-40 -39 -122 -39v70q46 0 68 23q18 21 24 62t6 146q0 86 -3.5 123.5t-12.5 60.5q-12 28 -35 39q-19 8 -47 8v70q82 0 122 -39q35 -34 46 -107q7 -46 7 -155z" />
    <glyph glyph-name="franc" unicode="&#x20a3;" horiz-adv-x="988" 
d="M525 562h-331v-169h322v-104h-322v-289h-118v667h449v-105zM976 247h-109q0 34 -19 46q-15 9 -50 9q-32 0 -55 -15t-33 -43q-11 -30 -11 -98v-29v-117h-113v393h98v-44q49 52 134 52t123 -42q35 -38 35 -112z" />
    <glyph glyph-name="lira" unicode="&#x20a4;" horiz-adv-x="593" 
d="M402 215h-175v-113h330v-102h-510v102h67v113h-67v91h67v57h-67v91h67v3q0 67 6 93q10 41 41 70q57 54 172 54q98 0 147 -28q69 -40 69 -140h-109q0 37 -21.5 51.5t-76.5 14.5q-53 0 -77 -10q-22 -10 -30 -31t-8 -72v-5h176v-91h-176v-57h175v-91z" />
    <glyph glyph-name="peseta" unicode="&#x20a7;" horiz-adv-x="1615" 
d="M585 468q0 -91 -38 -138q-32 -40 -99 -54q-46 -10 -138 -10h-116v-266h-118v667h234q93 0 138 -9q66 -13 99 -53q38 -46 38 -137zM467 466q0 68 -42 87q-23 9 -79 9h-38h-114v-190h114h31q64 0 86 9q42 19 42 85zM1076 146q0 -87 -61 -125q-46 -29 -121 -29
q-178 0 -178 158v244h-78v94h78v179h113v-179h199v-94h-199v-244q0 -36 16 -51t55 -15q72 0 72 62h104zM1571 342h-104q0 37 -23 50q-20 11 -67 13h-16q-53 0 -75 -12t-23 -40q-1 -39 23 -50q13 -6 56 -8q93 -6 109 -9q57 -9 85 -37q33 -36 32 -108q-1 -90 -73 -125
q-53 -26 -153 -24q-107 2 -154 38q-49 36 -49 116h104q0 -35 21.5 -48.5t76.5 -15.5h17q53 0 75 12t23 42q1 42 -25 53q-15 7 -63 9q-82 5 -106 9q-55 10 -81 38q-32 35 -31 105q1 87 69 121q49 25 144 25h13q103 -2 149 -39t46 -115z" />
    <glyph glyph-name="Euro" unicode="&#x20ac;" horiz-adv-x="602" 
d="M556 160q0 -102 -77 -142q-51 -26 -140 -26q-132 0 -186 68q-41 51 -46 155h-66v91h66v57h-67v91h67q6 118 60 169q55 51 172 51q103 0 156 -36q61 -42 61 -132h-115q0 37 -22 51t-80 14q-66 0 -90 -24t-27 -93h175v-91h-178v-57h177v-91h-174q2 -38 7 -58.5t17 -33.5
q26 -28 93 -28q58 0 79 13q23 15 23 52h115z" />
    <glyph glyph-name="afii61289" unicode="&#x2113;" horiz-adv-x="500" 
d="M249 269q-23 -117 -28 -149.5t-5 -58.5q0 -25 18 -25q26 0 51 54q8 18 19 18q13 0 13 -15q0 -23 -26 -60q-37 -47 -76 -47q-34 0 -51 26q-16 24 -16 62q0 36 10 127q-41 -38 -49 -38q-5 0 -9.5 5t-4.5 11q0 10 20 27q23 20 50 52q44 230 96 331q45 89 101 89q31 0 48 -25
q15 -22 15 -56q0 -40 -17 -92t-47 -100q-36 -58 -112 -136zM260 333q125 140 125 260q0 20 -6.5 32t-16.5 12q-11 0 -22.5 -12.5t-18.5 -31.5q-31 -86 -61 -260z" />
    <glyph glyph-name="afii61352" unicode="&#x2116;" horiz-adv-x="1052" 
d="M1008 318q0 -57 -8.5 -87.5t-29.5 -51.5q-43 -40 -132 -40q-92 0 -133 40q-21 20 -29 50.5t-8 88.5t8 88t29 50q41 40 133 40q89 0 132 -40q24 -23 32 -59q6 -28 6 -79zM998 0h-320v90h320v-90zM584 0h-121l-277 479v-479h-110v667h120l278 -475v475h110v-667zM915 318
q0 31 -3.5 45.5t-11.5 22.5q-18 16 -62 16q-48 0 -62.5 -15.5t-14.5 -68.5q0 -30 3 -44t10 -23q16 -17 64 -17t62.5 16t14.5 68z" />
    <glyph glyph-name="trademark" unicode="&#x2122;" horiz-adv-x="844" 
d="M795 233h-75v295l-102 -295h-76l-98 294v-294h-73v434h96l116 -329l117 329h95v-434zM344 595h-124v-362h-80v362h-124v72h328v-72z" />
    <glyph glyph-name="Omega" unicode="&#x2126;" horiz-adv-x="678" 
d="M614 0h-257v106q51 5 76.5 13.5t37.5 25.5q15 20 19 53q6 41 6 138q0 101 -10 144q-12 51 -45 69q-31 18 -101 18t-101 -18q-33 -18 -45 -63.5t-12 -149.5q0 -96 5 -133t20 -58q12 -17 37.5 -25.5t76.5 -13.5v-106h-257v106h46q-33 34 -41 104q-5 37 -5 128q0 122 11 173
q16 81 71 119q64 44 193 44t193 -44q55 -38 71 -119q11 -51 11 -173q0 -103 -7 -144q-10 -58 -39 -88h46v-106z" />
    <glyph glyph-name="estimated" unicode="&#x212e;" horiz-adv-x="798" 
d="M769 311h-599q-6 0 -6 -4v-181q0 -10 9 -21q47 -49 109 -75q56 -23 118 -23q74 0 141 34q56 28 97 76h54q-55 -64 -137 -99q-74 -31 -156 -31q-100 0 -187 45q-83 45 -132 120q-51 78 -51 168t51 167q49 76 132 120q87 45 187 45t187 -45q83 -44 132 -120q51 -77 51 -167
v-9zM634 335v181q0 12 -10 22q-47 47 -108 72q-56 22 -116 22q-70 0 -133 -30q-52 -25 -93 -67q-10 -10 -10 -23v-177q0 -5 6 -5h459q5 0 5 5z" />
    <glyph glyph-name="onethird" unicode="&#x2153;" horiz-adv-x="939" 
d="M873 115q0 -59 -33 -91q-35 -32 -115 -32q-72 0 -106 25q-37 27 -37 86h75q0 -25 15 -34.5t53 -9.5q48 0 61 12q11 11 11 43q0 40 -15 51q-14 10 -55 10h-60v66h60q40 0 53 9.5t13 39.5t-12 40q-14 11 -54 11t-54 -8.5t-14 -32.5h-74q0 65 47 90q32 18 95 18
q76 0 110 -30q32 -28 32 -86q0 -32 -10 -54.5t-28 -29.5q19 -7 30.5 -32t11.5 -61zM681 667l-337 -667h-85l336 667h86zM256 267h-77v292l-59 -51l-47 53l123 106h60v-400z" />
    <glyph glyph-name="twothirds" unicode="&#x2154;" horiz-adv-x="939" 
d="M353 553q0 -66 -44 -96q-23 -16 -90 -34q-50 -14 -61 -23q-12 -10 -12 -40v-25h206v-68h-283v102q0 67 57 97q20 10 56 20l44 12q32 9 41.5 19.5t9.5 35.5q0 33 -13.5 44t-52.5 11t-53 -8.5t-14 -32.5h-76q0 65 47 90q34 18 95 18q75 0 110 -30q33 -30 33 -92zM873 115
q0 -59 -33 -91q-35 -32 -115 -32q-72 0 -106 25q-37 27 -37 86h75q0 -25 15 -34.5t53 -9.5q48 0 61 12q11 11 11 43q0 40 -15 51q-14 10 -55 10h-60v66h60q40 0 53 9.5t13 39.5t-12 40q-14 11 -54 11t-54 -8.5t-14 -32.5h-74q0 65 47 90q32 18 95 18q76 0 110 -30
q32 -28 32 -86q0 -32 -10 -54.5t-28 -29.5q19 -7 30.5 -32t11.5 -61zM681 667l-337 -667h-85l336 667h86z" />
    <glyph glyph-name="oneeighth" unicode="&#x215b;" horiz-adv-x="939" 
d="M868 112q0 -74 -45 -101q-32 -19 -96 -19q-74 0 -107 26q-35 29 -35 94q0 39 9 61q11 25 35 35q-22 8 -31 28.5t-9 62.5q0 65 39 90q31 19 99 19q77 0 108 -26q30 -25 30 -83q0 -39 -8 -59q-9 -23 -32 -31q23 -9 33 -31t10 -66zM727 57q35 0 50.5 14t15.5 45q0 61 -66 61
t-66 -61q0 -31 15.5 -45t50.5 -14zM727 241q37 0 51 15q11 11 11 35q0 28 -15 40q-14 12 -47 12t-47.5 -12t-14.5 -40q0 -27 14.5 -38.5t47.5 -11.5zM681 667l-337 -667h-85l336 667h86zM256 267h-77v292l-59 -51l-47 53l123 106h60v-400z" />
    <glyph glyph-name="threeeighths" unicode="&#x215c;" horiz-adv-x="939" 
d="M359 382q0 -59 -33 -91q-35 -32 -115 -32q-72 0 -106 25q-37 27 -37 86h75q0 -25 15 -34.5t53 -9.5q48 0 61 12q11 11 11 43q0 40 -15 51q-14 10 -55 10h-60v66h60q40 0 53 9.5t13 39.5t-12 40q-14 11 -54 11t-54 -8.5t-14 -32.5h-74q0 65 47 90q32 18 95 18
q76 0 110 -30q32 -28 32 -86q0 -32 -10 -54.5t-28 -29.5q19 -7 30.5 -32t11.5 -61zM868 112q0 -74 -45 -101q-32 -19 -96 -19q-74 0 -107 26q-35 29 -35 94q0 39 9 61q11 25 35 35q-22 8 -31 28.5t-9 62.5q0 65 39 90q31 19 99 19q77 0 108 -26q30 -25 30 -83q0 -39 -8 -59
q-9 -23 -32 -31q23 -9 33 -31t10 -66zM727 57q35 0 50.5 14t15.5 45q0 61 -66 61t-66 -61q0 -31 15.5 -45t50.5 -14zM727 241q37 0 51 15q11 11 11 35q0 28 -15 40q-14 12 -47 12t-47.5 -12t-14.5 -40q0 -27 14.5 -38.5t47.5 -11.5zM681 667l-337 -667h-85l336 667h86z" />
    <glyph glyph-name="fiveeighths" unicode="&#x215d;" horiz-adv-x="939" 
d="M868 112q0 -74 -45 -101q-32 -19 -96 -19q-74 0 -107 26q-35 29 -35 94q0 39 9 61q11 25 35 35q-22 8 -31 28.5t-9 62.5q0 65 39 90q31 19 99 19q77 0 108 -26q30 -25 30 -83q0 -39 -8 -59q-9 -23 -32 -31q23 -9 33 -31t10 -66zM727 57q35 0 50.5 14t15.5 45q0 61 -66 61
t-66 -61q0 -31 15.5 -45t50.5 -14zM727 241q37 0 51 15q11 11 11 35q0 28 -15 40q-14 12 -47 12t-47.5 -12t-14.5 -40q0 -27 14.5 -38.5t47.5 -11.5zM681 667l-337 -667h-85l336 667h86zM78 359h76q0 -18 14.5 -25.5t49.5 -7.5q39 0 54 21q11 16 11 50q0 40 -14 55.5
t-51 15.5q-50 0 -58 -37h-75v236h253v-64h-178v-88q17 19 68 19q78 0 107 -36q24 -31 24 -99q0 -80 -43 -113q-34 -27 -98 -27q-70 0 -103 22q-37 25 -37 78z" />
    <glyph glyph-name="seveneighths" unicode="&#x215e;" horiz-adv-x="939" 
d="M868 112q0 -74 -45 -101q-32 -19 -96 -19q-74 0 -107 26q-35 29 -35 94q0 39 9 61q11 25 35 35q-22 8 -31 28.5t-9 62.5q0 65 39 90q31 19 99 19q77 0 108 -26q30 -25 30 -83q0 -39 -8 -59q-9 -23 -32 -31q23 -9 33 -31t10 -66zM727 57q35 0 50.5 14t15.5 45q0 61 -66 61
t-66 -61q0 -31 15.5 -45t50.5 -14zM727 241q37 0 51 15q11 11 11 35q0 28 -15 40q-14 12 -47 12t-47.5 -12t-14.5 -40q0 -27 14.5 -38.5t47.5 -11.5zM681 667l-337 -667h-85l336 667h86zM352 614l-171 -347h-83l167 334h-190v66h277v-53z" />
    <glyph glyph-name="arrowleft" unicode="&#x2190;" horiz-adv-x="719" 
d="M691 276h-458l213 -206l-78 -78l-340 339l339 339l78 -77l-212 -207h458v-110z" />
    <glyph glyph-name="arrowup" unicode="&#x2191;" horiz-adv-x="730" 
d="M704 323l-77 -78l-207 213v-458h-110v458l-206 -213l-78 78l339 340z" />
    <glyph glyph-name="arrowright" unicode="&#x2192;" horiz-adv-x="721" 
d="M692 331l-340 -339l-78 78l213 206h-458v110h458l-212 207l78 77z" />
    <glyph glyph-name="arrowdown" unicode="&#x2193;" horiz-adv-x="730" 
d="M704 340l-339 -340l-339 339l77 78l207 -212v458h110v-458l206 213z" />
    <glyph glyph-name="uni2196" unicode="&#x2196;" horiz-adv-x="700" 
d="M604 237l-78 -78l-324 324l4 -296h-110v480h480v-110l-296 4z" />
    <glyph glyph-name="uni2197" unicode="&#x2197;" horiz-adv-x="700" 
d="M604 187h-110l4 296l-324 -324l-78 78l324 324l-296 -4v110h480v-480z" />
    <glyph glyph-name="uni2198" unicode="&#x2198;" horiz-adv-x="701" 
d="M605 0h-480v110l296 -4l-325 324l79 78l324 -324l-4 296h110v-480z" />
    <glyph glyph-name="uni2199" unicode="&#x2199;" horiz-adv-x="701" 
d="M605 430l-325 -324l296 4v-110h-480v480h110l-4 -296l324 324z" />
    <glyph glyph-name="partialdiff" unicode="&#x2202;" horiz-adv-x="559" 
d="M273 486l-186 188l75 71q187 -185 244 -246q56 -61 79 -117q25 -60 25 -139q0 -82 -11 -123q-12 -43 -41 -71q-57 -57 -179 -57q-123 0 -180 57q-28 27 -38.5 68t-11.5 127q-1 75 11 117q17 59 62 90q53 35 151 35zM397 243q0 95 -34 125q-27 23 -96 23
q-64 0 -85.5 -29.5t-21.5 -118.5q0 -65 5 -89q8 -33 32 -46q25 -14 82 -14q56 0 81 14q24 13 32 47q5 24 5 88z" />
    <glyph glyph-name="infinity" unicode="&#x2206;" horiz-adv-x="567" 
d="M413 107q-65 0 -130 76q-67 -76 -129 -76q-70 0 -99 28q-33 31 -33 103q0 79 40 110q30 22 91 22q40 0 70.5 -17t59.5 -55q60 72 131 72q131 0 131 -132q0 -80 -46 -110q-31 -21 -86 -21zM413 293q-20 0 -41.5 -14.5t-39.5 -38.5q22 -26 44 -41t37 -15q23 0 34 13t11 41
q0 29 -10.5 42t-34.5 13zM234 239q-41 54 -80 54q-23 0 -34 -12q-11 -13 -11 -43q0 -28 11 -41t34 -13q33 0 80 55z" />
    <glyph glyph-name="product" unicode="&#x220f;" horiz-adv-x="684" 
d="M596 0h-118v561h-272v-561h-118v561h-70v106h648v-106h-70v-561z" />
    <glyph glyph-name="summation" unicode="&#x2211;" horiz-adv-x="629" 
d="M569 0h-509v104l209 237l-209 224v102h509v-105h-358l207 -221l-207 -235h358v-106z" />
    <glyph glyph-name="minus" unicode="&#x2212;" horiz-adv-x="602" 
d="M569 193h-536v102h536v-102z" />
    <glyph glyph-name="fraction" unicode="&#x2215;" horiz-adv-x="89" 
d="M256 667l-337 -667h-85l336 667h86z" />
    <glyph glyph-name="radical" unicode="&#x221a;" horiz-adv-x="588" 
d="M549 722l-212 -722h-123l-90 289h-124v105h197l75 -264l201 697h309v-105h-233z" />
    <glyph glyph-name="glyph146" unicode="&#x221e;" horiz-adv-x="567" 
d="M413 107q-65 0 -130 76q-67 -76 -129 -76q-70 0 -99 28q-33 31 -33 103q0 79 40 110q30 22 91 22q40 0 70.5 -17t59.5 -55q60 72 131 72q131 0 131 -132q0 -80 -46 -110q-31 -21 -86 -21zM413 293q-20 0 -41.5 -14.5t-39.5 -38.5q22 -26 44 -41t37 -15q23 0 34 13t11 41
q0 29 -10.5 42t-34.5 13zM234 239q-41 54 -80 54q-23 0 -34 -12q-11 -13 -11 -43q0 -28 11 -41t34 -13q33 0 80 55z" />
    <glyph glyph-name="integral" unicode="&#x222b;" horiz-adv-x="438" 
d="M63 539q0 166 190 166q85 0 132 -32q47 -31 47 -92h-110q-2 32 -69 32q-44 0 -60.5 -15.5t-16.5 -57.5v-568q0 -166 -190 -166q-85 0 -132 32q-47 31 -47 92h110q2 -32 69 -32q44 0 60.5 15.5t16.5 57.5v568z" />
    <glyph glyph-name="approxequal" unicode="&#x2248;" horiz-adv-x="603" 
d="M570 350q-55 -50 -91 -70q-46 -26 -88 -26q-40 0 -80 23q-45 25 -65 33.5t-36 8.5q-20 0 -41 -12t-69 -51l-67 68q55 50 91 70q46 26 88 26q40 0 80 -23q45 -25 65 -33.5t36 -8.5q20 0 41 12t69 51zM570 167q-55 -50 -91 -70q-46 -26 -88 -26q-40 0 -80 23
q-45 25 -65 33.5t-36 8.5q-20 0 -41 -12t-69 -51l-67 68q55 50 91 70q46 26 88 26q40 0 80 -23q45 -25 65 -33.5t36 -8.5q20 0 41 12t69 51z" />
    <glyph glyph-name="notequal" unicode="&#x2260;" horiz-adv-x="602" 
d="M569 111h-334l-107 -111l-65 65l43 46h-73v99h167l74 73h-241v99h338l107 111l65 -65l-45 -46h71v-99h-165l-73 -73h238v-99z" />
    <glyph glyph-name="lessequal" unicode="&#x2264;" horiz-adv-x="602" 
d="M569 254l-38 -98l-498 174v84l497 176l39 -99l-367 -119zM569 0h-536v102h536v-102z" />
    <glyph glyph-name="greaterequal" unicode="&#x2265;" horiz-adv-x="602" 
d="M569 330l-498 -174l-38 98l367 118l-367 119l39 99l497 -176v-84zM569 0h-536v102h536v-102z" />
    <glyph glyph-name="dotmath" unicode="&#x22c5;" horiz-adv-x="242" 
d="M190 337q0 -36 -20 -54q-17 -17 -49 -17q-36 0 -54 22q-15 18 -15 49q0 69 69 69t69 -69z" />
    <glyph glyph-name="lozenge" unicode="&#x25ca;" horiz-adv-x="618" 
d="M261 667h90l247 -333l-247 -334h-90l-241 334zM307 537l-145 -203l144 -205l151 205z" />
    <glyph glyph-name="glyph172" horiz-adv-x="572" 
 />
    <glyph glyph-name="glyph210" horiz-adv-x="225" 
 />
    <glyph glyph-name="Caron" horiz-adv-x="440" 
d="M404 863l-129 -127h-110l-129 127h113l71 -69l69 69h115z" />
    <glyph glyph-name="Breve" horiz-adv-x="440" 
d="M367 867q0 -80 -37 -107q-32 -24 -110 -24q-88 0 -119 32q-28 28 -28 99h70q0 -37 17 -51t60 -14q42 0 58 12q19 15 19 53h70z" />
    <glyph glyph-name="Tilde" horiz-adv-x="440" 
d="M425 789l-77 -39q-33 -16 -67 -16q-36 0 -66 18l-30 20q-13 7 -25 7q-18 0 -48 -15l-58 -29l-39 71l76 38q39 17 70 17q34 0 65 -19l31 -19q13 -7 26 -7q20 0 53 17l53 27z" />
    <glyph glyph-name="Hungarumlaut" horiz-adv-x="438" 
d="M422 862l-126 -126h-113l126 126h113zM239 862l-126 -126h-113l126 126h113z" />
    <glyph glyph-name="Cedilla" horiz-adv-x="440" 
d="M303 -110q0 -44 -23 -64q-21 -19 -65 -19q-88 0 -88 74h54q0 -14 7 -19t27 -5q18 0 24.5 6.5t6.5 24.5q0 29 -36 31h-29v81h57v-38q65 -4 65 -72z" />
    <glyph glyph-name="Ogonek" horiz-adv-x="391" 
d="M75 -114q0 76 66 124h122q-94 -44 -94 -114q0 -59 83 -59q16 0 38 2v-78q-27 -6 -56 -6q-72 0 -115 33q-44 35 -44 98z" />
    <glyph glyph-name="Macron" horiz-adv-x="440" 
d="M397 777h-355v80h355v-80z" />
    <glyph glyph-name="Commaaccent" horiz-adv-x="440" 
d="M265 -84q0 -48 -10.5 -78t-37.5 -57l-44 -44l-70 69q30 30 35.5 36.5t10.5 15.5q11 20 11 58v40h105v-40z" />
    <glyph glyph-name="commaaccent" horiz-adv-x="440" 
d="M265 -84q0 -48 -10.5 -78t-37.5 -57l-44 -44l-70 69q30 30 35.5 36.5t10.5 15.5q11 20 11 58v40h105v-40z" />
    <glyph glyph-name="parenleft.numr" horiz-adv-x="239" 
d="M54 466q0 109 7 155q11 73 46 107q40 39 122 39v-70q-46 0 -68 -23q-18 -21 -24 -62t-6 -146q0 -86 3.5 -123.5t12.5 -60.5q12 -28 35 -39q19 -8 47 -8v-70q-82 0 -122 39q-35 34 -46 107q-7 46 -7 155z" />
    <glyph glyph-name="one.taboldstyle" horiz-adv-x="572" 
d="M362 0h-113v523l-103 -99l-71 77l184 166h103v-667z" />
    <glyph glyph-name="two.taboldstyle" horiz-adv-x="572" 
d="M508 473q0 -77 -30 -121q-25 -37 -80 -60q-26 -11 -117 -37q-43 -12 -63 -21t-30 -21q-14 -17 -14 -66v-46h333v-101h-447v165q0 79 41 121q31 33 99 54l121 36q44 16 59 35.5t15 61.5q0 33 -5.5 51.5t-18.5 29.5q-23 18 -87 18q-66 0 -89 -16q-20 -14 -20 -50h-112
q0 100 72 140q52 28 147 28q127 0 178 -49q48 -47 48 -152z" />
    <glyph glyph-name="zero.dnom" 
d="M69 200v26q0 59 6 89q10 44 38 66q34 27 100 27q99 0 128 -63q16 -35 16 -119v-26v-26q0 -59 -6 -89q-10 -44 -38 -66q-34 -27 -100 -27q-99 0 -128 63q-16 35 -16 119v26zM280 200q0 86 -7 109q-6 17 -20 24.5t-40 7.5t-40 -7.5t-20 -24.5q-7 -23 -7 -109t7 -109
q5 -17 19 -24.5t41 -7.5t41 7.5t19 24.5q7 23 7 109z" />
    <glyph glyph-name="nine.dnom" 
d="M87 93h77q1 -18 13 -26t38 -8q47 0 59 30q7 17 7 67q-30 -23 -76 -23q-70 0 -99 34q-27 32 -27 103q0 74 37 108q34 30 99 30q101 0 130 -74q12 -33 12 -116q0 -104 -6 -135q-10 -51 -49 -73q-33 -18 -87 -18q-128 0 -128 101zM155 271q0 -39 13.5 -55t46.5 -16
q65 0 65 68q0 40 -18 58q-16 15 -47 15q-36 0 -49 -18q-11 -16 -11 -52z" />
    <glyph glyph-name="eight.dnom" 
d="M354 112q0 -74 -45 -101q-32 -19 -96 -19q-74 0 -107 26q-35 29 -35 94q0 39 9 61q11 25 35 35q-22 8 -31 28.5t-9 62.5q0 65 39 90q31 19 99 19q77 0 108 -26q30 -25 30 -83q0 -39 -8 -59q-9 -23 -32 -31q23 -9 33 -31t10 -66zM213 57q35 0 50.5 14t15.5 45q0 61 -66 61
t-66 -61q0 -31 15.5 -45t50.5 -14zM213 241q37 0 51 15q11 11 11 35q0 28 -15 40q-14 12 -47 12t-47.5 -12t-14.5 -40q0 -27 14.5 -38.5t47.5 -11.5z" />
    <glyph glyph-name="seven.dnom" 
d="M352 347l-171 -347h-83l167 334h-190v66h277v-53z" />
    <glyph glyph-name="six.dnom" 
d="M338 307h-77q-1 18 -13 26t-38 8q-47 0 -59 -30q-6 -16 -7 -67q30 23 76 23q70 0 99 -34q27 -32 27 -103q0 -74 -37 -108q-34 -30 -99 -30q-101 0 -130 74q-12 33 -12 116q0 104 6 135q10 51 49 73q33 18 87 18q128 0 128 -101zM270 129q0 39 -13.5 55t-46.5 16
q-65 0 -65 -68q0 -40 18 -58q16 -15 47 -15q36 0 49 18q11 16 11 52z" />
    <glyph glyph-name="five.dnom" 
d="M78 92h76q0 -18 14.5 -25.5t49.5 -7.5q39 0 54 21q11 16 11 50q0 40 -14 55.5t-51 15.5q-50 0 -58 -37h-75v236h253v-64h-178v-88q17 19 68 19q78 0 107 -36q24 -31 24 -99q0 -80 -43 -113q-34 -27 -98 -27q-70 0 -103 22q-37 25 -37 78z" />
    <glyph glyph-name="four.dnom" 
d="M352 91h-55v-91h-75v91h-179v54l182 255h72v-244h55v-65zM222 156v131l-93 -131h93z" />
    <glyph glyph-name="three.dnom" 
d="M359 115q0 -59 -33 -91q-35 -32 -115 -32q-72 0 -106 25q-37 27 -37 86h75q0 -25 15 -34.5t53 -9.5q48 0 61 12q11 11 11 43q0 40 -15 51q-14 10 -55 10h-60v66h60q40 0 53 9.5t13 39.5t-12 40q-14 11 -54 11t-54 -8.5t-14 -32.5h-74q0 65 47 90q32 18 95 18
q76 0 110 -30q32 -28 32 -86q0 -32 -10 -54.5t-28 -29.5q19 -7 30.5 -32t11.5 -61z" />
    <glyph glyph-name="two.dnom" 
d="M353 286q0 -66 -44 -96q-23 -16 -90 -34q-50 -14 -61 -23q-12 -10 -12 -40v-25h206v-68h-283v102q0 67 57 97q20 10 56 20l44 12q32 9 41.5 19.5t9.5 35.5q0 33 -13.5 44t-52.5 11t-53 -8.5t-14 -32.5h-76q0 65 47 90q34 18 95 18q75 0 110 -30q33 -30 33 -92z" />
    <glyph glyph-name="one.dnom" 
d="M256 0h-77v292l-59 -51l-47 53l123 106h60v-400z" />
    <glyph glyph-name="zero.numr" 
d="M69 467v26q0 59 6 89q10 44 38 66q34 27 100 27q99 0 128 -63q16 -35 16 -119v-26v-26q0 -59 -6 -89q-10 -44 -38 -66q-34 -27 -100 -27q-99 0 -128 63q-16 35 -16 119v26zM280 467q0 86 -7 109q-6 17 -20 24.5t-40 7.5t-40 -7.5t-20 -24.5q-7 -23 -7 -109t7 -109
q5 -17 19 -24.5t41 -7.5t41 7.5t19 24.5q7 23 7 109z" />
    <glyph glyph-name="nine.numr" 
d="M87 360h77q1 -18 13 -26t38 -8q47 0 59 30q7 17 7 67q-30 -23 -76 -23q-70 0 -99 34q-27 32 -27 103q0 74 37 108q34 30 99 30q101 0 130 -74q12 -33 12 -116q0 -104 -6 -135q-10 -51 -49 -73q-33 -18 -87 -18q-128 0 -128 101zM155 538q0 -39 13.5 -55t46.5 -16
q65 0 65 68q0 40 -18 58q-16 15 -47 15q-36 0 -49 -18q-11 -16 -11 -52z" />
    <glyph glyph-name="eight.numr" 
d="M354 379q0 -74 -45 -101q-32 -19 -96 -19q-74 0 -107 26q-35 29 -35 94q0 39 9 61q11 25 35 35q-22 8 -31 28.5t-9 62.5q0 65 39 90q31 19 99 19q77 0 108 -26q30 -25 30 -83q0 -39 -8 -59q-9 -23 -32 -31q23 -9 33 -31t10 -66zM213 324q35 0 50.5 14t15.5 45
q0 63 -66 63t-66 -63q0 -31 15.5 -45t50.5 -14zM213 508q37 0 51 15q11 11 11 35q0 28 -15 40q-14 12 -47 12t-47.5 -12t-14.5 -40q0 -27 14.5 -38.5t47.5 -11.5z" />
    <glyph glyph-name="seven.numr" 
d="M352 614l-171 -347h-83l167 334h-190v66h277v-53z" />
    <glyph glyph-name="six.numr" 
d="M338 574h-77q-1 18 -13 26t-38 8q-47 0 -59 -30q-6 -16 -7 -67q30 23 76 23q70 0 99 -34q27 -32 27 -103q0 -74 -37 -108q-34 -30 -99 -30q-101 0 -130 74q-12 33 -12 116q0 104 6 135q10 51 49 73q33 18 87 18q128 0 128 -101zM270 396q0 39 -13.5 55t-46.5 16
q-65 0 -65 -68q0 -40 18 -58q16 -15 47 -15q36 0 49 18q11 16 11 52z" />
    <glyph glyph-name="five.numr" 
d="M78 359h76q0 -18 14.5 -25.5t49.5 -7.5q39 0 54 21q11 16 11 50q0 40 -14 55.5t-51 15.5q-50 0 -58 -37h-75v236h253v-64h-178v-88q17 19 68 19q78 0 107 -36q24 -31 24 -99q0 -80 -43 -113q-34 -27 -98 -27q-70 0 -103 22q-37 25 -37 78z" />
    <glyph glyph-name="four.numr" 
d="M352 358h-55v-91h-75v91h-179v54l182 255h72v-244h55v-65zM222 423v131l-93 -131h93z" />
    <glyph glyph-name="three.numr" 
d="M359 382q0 -59 -33 -91q-35 -32 -115 -32q-72 0 -106 25q-37 27 -37 86h75q0 -25 15 -34.5t53 -9.5q48 0 61 12q11 11 11 43q0 40 -15 51q-14 10 -55 10h-60v66h60q40 0 53 9.5t13 39.5t-12 40q-14 11 -54 11t-54 -8.5t-14 -32.5h-74q0 65 47 90q32 18 95 18
q76 0 110 -30q32 -28 32 -86q0 -32 -10 -54.5t-28 -29.5q19 -7 30.5 -32t11.5 -61z" />
    <glyph glyph-name="two.numr" 
d="M353 553q0 -66 -44 -96q-23 -16 -90 -34q-50 -14 -61 -23q-12 -10 -12 -40v-25h206v-68h-283v102q0 67 57 97q20 10 56 20l44 12q32 9 41.5 19.5t9.5 35.5q0 33 -13.5 44t-52.5 11t-53 -8.5t-14 -32.5h-76q0 65 47 90q34 18 95 18q75 0 110 -30q33 -30 33 -92z" />
    <glyph glyph-name="one.numr" 
d="M256 267h-77v292l-59 -51l-47 53l123 106h60v-400z" />
    <glyph glyph-name="zerooldstyle" horiz-adv-x="572" 
d="M516 333q0 -125 -7 -170q-13 -83 -58 -123q-55 -48 -166 -48q-157 0 -204 100q-15 32 -21 74.5t-6 117.5v49q0 87 1 111.5t5 54.5q12 84 58 125q54 50 167 50t167 -50q46 -41 58 -125q4 -30 5 -54.5t1 -111.5zM402 333q0 145 -11 181q-10 31 -33 43q-25 14 -73 14
t-72.5 -13t-33.5 -44q-11 -36 -11 -181t11 -181q10 -31 33 -43q24 -14 73 -14q48 0 72 13t34 44q11 36 11 181z" />
    <glyph glyph-name="nineoldstyle" horiz-adv-x="568" 
d="M513 360q0 -152 -12 -220q-28 -148 -224 -148q-101 0 -154 41q-55 42 -55 127h111q0 -39 26 -53q22 -13 71 -13q80 0 103 39q8 14 12 34t6 61q1 9 1 31q-48 -35 -122 -35q-126 0 -176 56q-45 52 -45 170q0 120 63 175q55 49 162 49q82 0 138 -33q52 -31 73 -87
q22 -56 22 -194zM396 446q0 74 -31 102q-25 23 -84 23q-69 0 -92 -28q-21 -26 -21 -92q0 -81 25 -105q21 -20 78 -20q70 0 99 33q26 28 26 87z" />
    <glyph glyph-name="eightoldstyle" horiz-adv-x="572" 
d="M517 186q0 -119 -74 -163q-52 -31 -157 -31q-121 0 -174 43q-57 46 -57 151q0 66 12 100q16 43 54 60q-34 15 -47 47.5t-13 102.5q0 106 64 146q51 32 161 32q125 0 176 -43q49 -42 49 -135q0 -64 -10 -94q-14 -40 -50 -56q43 -19 57 -71q9 -32 9 -89zM399 483
q0 55 -26 73q-24 16 -87 16q-71 0 -94 -22q-19 -18 -19 -67q0 -55 26 -72q24 -16 87 -16q71 0 94 21q19 19 19 67zM404 194q0 64 -32 84q-24 15 -86 15q-70 0 -93 -21q-25 -21 -25 -78q0 -64 32 -84q24 -15 86 -15q70 0 93 21q25 21 25 78z" />
    <glyph glyph-name="sevenoldstyle" horiz-adv-x="485" 
d="M468 570l-292 -570h-124l292 565h-327v102h451v-97z" />
    <glyph glyph-name="sixoldstyle" horiz-adv-x="568" 
d="M513 216q0 -120 -63 -175q-55 -49 -162 -49q-82 0 -138 33q-52 31 -73 87q-22 56 -22 194q0 153 12 220q28 148 224 148q101 0 154 -41q55 -42 55 -127h-111q0 39 -26 53q-22 13 -71 13q-80 0 -103 -39q-8 -14 -12 -34t-6 -61q-1 -9 -1 -31q48 35 122 35q126 0 176 -56
q45 -52 45 -170zM400 215q0 81 -25 105q-21 20 -78 20q-70 0 -99 -33q-26 -28 -26 -87q0 -74 31 -102q25 -23 84 -23q69 0 92 28q21 26 21 92z" />
    <glyph glyph-name="three.taboldstyle" horiz-adv-x="572" 
d="M505 205q0 -129 -68 -177q-52 -36 -162 -36q-113 0 -167 38q-60 41 -60 130h113q0 -38 29 -52q26 -13 85 -13q70 0 94 22q23 22 23 78q0 47 -7 65q-7 21 -29 27.5t-81 6.5h-94v102h94q39 0 59 4t32 14q20 17 20 70q0 31 -5 47.5t-18 24.5q-22 16 -88 16q-67 0 -92 -17
q-22 -15 -22 -49h-113q0 100 76 140q54 28 151 28q126 0 176 -44q48 -43 48 -143q0 -59 -10 -86q-14 -34 -50 -50q37 -16 51.5 -48.5t14.5 -97.5z" />
    <glyph glyph-name="four.taboldstyle" horiz-adv-x="572" 
d="M530 168h-95v-168h-106v168h-288v95l287 404h107v-398h95v-101zM329 269v245l-168 -245h168z" />
    <glyph glyph-name="five.taboldstyle" horiz-adv-x="572" 
d="M511 215q0 -130 -66 -181q-54 -42 -167 -42q-107 0 -159 39q-56 41 -56 129h111q0 -40 25 -53q23 -12 79 -12q49 0 73 9q26 10 36.5 34t10.5 73q0 46 -4.5 68.5t-15.5 35.5q-21 25 -87 25q-67 0 -92 -22q-18 -16 -18 -48h-110v397h419v-102h-310v-157q15 15 46.5 24.5
t66.5 9.5q84 0 129 -20q48 -21 69 -71q20 -48 20 -136z" />
    <glyph glyph-name="six.taboldstyle" horiz-adv-x="572" 
d="M515 216q0 -120 -63 -175q-55 -49 -162 -49q-82 0 -138 33q-52 31 -73 87q-22 56 -22 194q0 153 12 220q28 148 224 148q101 0 154 -41q55 -42 55 -127h-111q0 39 -26 53q-22 13 -71 13q-80 0 -103 -39q-8 -14 -12 -34t-6 -61q-1 -9 -1 -31q48 35 122 35q126 0 176 -56
q45 -52 45 -170zM402 215q0 81 -25 105q-21 20 -78 20q-70 0 -99 -33q-26 -28 -26 -87q0 -74 31 -102q25 -23 84 -23q69 0 92 28q21 26 21 92z" />
    <glyph glyph-name="seven.taboldstyle" horiz-adv-x="572" 
d="M511 570l-292 -570h-124l292 565h-327v102h451v-97z" />
    <glyph glyph-name="eight.taboldstyle" horiz-adv-x="572" 
d="M517 186q0 -119 -74 -163q-52 -31 -157 -31q-121 0 -174 43q-57 46 -57 151q0 66 12 100q16 43 54 60q-34 15 -47 47.5t-13 102.5q0 106 64 146q51 32 161 32q125 0 176 -43q49 -42 49 -135q0 -64 -10 -94q-14 -40 -50 -56q43 -19 57 -71q9 -32 9 -89zM399 483
q0 55 -26 73q-24 16 -87 16q-71 0 -94 -22q-19 -18 -19 -67q0 -55 26 -72q24 -16 87 -16q71 0 94 21q19 19 19 67zM404 194q0 64 -32 84q-24 15 -86 15q-70 0 -93 -21q-25 -21 -25 -78q0 -64 32 -84q24 -15 86 -15q70 0 93 21q25 21 25 78z" />
    <glyph glyph-name="fiveoldstyle" horiz-adv-x="573" 
d="M512 215q0 -130 -66 -181q-54 -42 -167 -42q-107 0 -159 39q-56 41 -56 129h111q0 -40 25 -53q23 -12 79 -12q49 0 73 9q26 10 36.5 34t10.5 73q0 46 -4.5 68.5t-15.5 35.5q-21 25 -87 25q-67 0 -92 -22q-18 -16 -18 -48h-110v397h419v-102h-310v-157q15 15 46.5 24.5
t66.5 9.5q84 0 129 -20q48 -21 69 -71q20 -48 20 -136z" />
    <glyph glyph-name="fouroldstyle" horiz-adv-x="568" 
d="M528 168h-95v-168h-106v168h-288v95l287 404h107v-398h95v-101zM327 269v245l-168 -245h168z" />
    <glyph glyph-name="threeoldstyle" horiz-adv-x="573" 
d="M506 205q0 -129 -68 -177q-52 -36 -162 -36q-113 0 -167 38q-60 41 -60 130h113q0 -38 29 -52q26 -13 85 -13q70 0 94 22q23 22 23 78q0 47 -7 65q-7 21 -29 27.5t-81 6.5h-94v102h94q39 0 59 4t32 14q20 17 20 70q0 31 -5 47.5t-18 24.5q-22 16 -88 16q-67 0 -92 -17
q-22 -15 -22 -49h-113q0 100 76 140q54 28 151 28q126 0 176 -44q48 -43 48 -143q0 -59 -10 -86q-14 -34 -50 -50q37 -16 51.5 -48.5t14.5 -97.5z" />
    <glyph glyph-name="twooldstyle" horiz-adv-x="555" 
d="M500 473q0 -77 -30 -121q-25 -37 -80 -60q-26 -11 -117 -37q-43 -12 -63 -21t-30 -21q-14 -17 -14 -66v-46h333v-101h-447v165q0 79 41 121q31 33 99 54l121 36q44 16 59 35.5t15 61.5q0 33 -5.5 51.5t-18.5 29.5q-23 18 -87 18q-66 0 -89 -16q-20 -14 -20 -50h-112
q0 100 72 140q52 28 147 28q127 0 178 -49q48 -47 48 -152z" />
    <glyph glyph-name="oneoldstyle" horiz-adv-x="494" 
d="M323 0h-113v523l-103 -99l-71 77l184 166h103v-667z" />
    <glyph glyph-name="yen.fitted" horiz-adv-x="572" 
d="M583 667l-148 -232h70v-92h-129l-34 -57h163v-92h-163v-194h-113v194h-164v92h163l-34 57h-129v92h72l-147 232h129l165 -271l169 271h130z" />
    <glyph glyph-name="Euro.fitted" horiz-adv-x="572" 
d="M541 160q0 -102 -77 -142q-51 -26 -140 -26q-132 0 -186 68q-41 51 -46 155h-66v91h66v57h-67v91h67q6 118 60 169q55 51 172 51q103 0 156 -36q61 -42 61 -132h-115q0 37 -22 51t-80 14q-66 0 -90 -24t-27 -93h175v-91h-178v-57h177v-91h-174q2 -38 7 -58.5t17 -33.5
q26 -28 93 -28q58 0 79 13q23 15 23 52h115z" />
    <glyph glyph-name="florin.fitted" horiz-adv-x="572" 
d="M547 506h-109q0 38 -21 52t-77 14q-53 0 -77 -10q-22 -10 -30 -31t-8 -72v-67h279v-102h-279v-481h-113v481h-67v102h67v65q0 67 6 93q10 41 41 70q57 54 172 54q98 0 147 -28q69 -40 69 -140z" />
    <glyph glyph-name="cent.fitted" horiz-adv-x="572" 
d="M514 146q0 -138 -174 -152v-89h-98v89q-122 12 -162 93q-26 52 -26 159q0 75 11 118q15 57 53 87q44 36 124 43v81h98v-81q174 -14 174 -152h-123q0 37 -39 49q-19 5 -61 5q-51 0 -77 -15q-26 -13 -36.5 -44.5t-10.5 -92.5q0 -59 9 -89q11 -34 38 -48q26 -15 77 -15
q48 0 69 8q31 13 31 46h123z" />
    </font>
</defs>
</svg>
