<?xml version="1.0" standalone="no"?>
<!DOCTYPE svg PUBLIC "-//W3C//DTD SVG 1.1//EN" "http://www.w3.org/Graphics/SVG/1.1/DTD/svg11.dtd" >
<svg xmlns="http://www.w3.org/2000/svg" xmlns:xlink="http://www.w3.org/1999/xlink" version="1.1">
<metadata>
Created by FontForge 20160407 at Fri Aug 26 20:22:02 2016
 By Jimmy Warting
Copyright  :I: 2011 Hyundai Motor Company and YoonDesign Inc. All rights reserved.
</metadata>
<defs>
<font id="ModernH-Bold" horiz-adv-x="920" >
  <font-face 
    font-family="Modern H Bold"
    font-weight="500"
    font-stretch="normal"
    units-per-em="1000"
    panose-1="2 11 6 3 0 0 0 2 0 4"
    ascent="800"
    descent="-200"
    x-height="520"
    cap-height="716"
    bbox="-76 -334 1228 1042"
    underline-thickness="40"
    underline-position="-220"
    unicode-range="U+0020-FFE6"
  />
<missing-glyph horiz-adv-x="1000" 
d="M810 -90h-700v781h700v-781zM159 641v-683h602v683h-602z" />
    <glyph glyph-name=".notdef" horiz-adv-x="1000" 
d="M810 -90h-700v781h700v-781zM159 641v-683h602v683h-602z" />
    <glyph glyph-name="space" unicode=" " horiz-adv-x="300" 
 />
    <glyph glyph-name="exclam" unicode="!" horiz-adv-x="347" 
d="M223 213h-101l-16 527h135zM235 97v-127h-127v127h127z" />
    <glyph glyph-name="quotedbl" unicode="&#x22;" horiz-adv-x="453" 
d="M72 751h120l-13 -271h-42c-35 0 -52 24 -53 50zM249 751h120l-13 -271h-41c-37 0 -53 24 -54 51z" />
    <glyph glyph-name="numbersign" unicode="#" horiz-adv-x="696" 
d="M28 171v92h120l29 182h-96v93h111l31 192h117l-31 -192h138l31 192h117l-31 -192h103v-50c0 -33 -13 -43 -47 -43h-71l-29 -182h95v-50c0 -33 -13 -42 -47 -42h-63l-27 -168c-5 -29 -24 -47 -51 -47h-72l34 215h-139l-27 -168c-4 -29 -24 -47 -51 -47h-72l34 215h-106z
M294 445l-29 -182h138l29 182h-138z" />
    <glyph glyph-name="dollar" unicode="$" horiz-adv-x="535" 
d="M220 760h105v-74h143v-41c0 -48 -21 -53 -68 -53h-75v-216l25 -12c114 -54 147 -105 147 -186c0 -117 -82 -161 -172 -174v-77h-65c-30 0 -40 15 -40 50v23h-180v41c0 35 16 52 69 52h111v221l-47 21c-90 40 -131 100 -131 180c0 94 55 157 178 169v76zM157 515
c0 -44 24 -68 63 -89v161c-35 -8 -63 -27 -63 -72zM382 177c0 31 -9 59 -57 88v-164c40 13 57 39 57 76z" />
    <glyph glyph-name="percent" unicode="%" horiz-adv-x="868" 
d="M606 151c0 -44 10 -80 55 -80s54 36 54 80c0 43 -9 80 -54 80s-55 -37 -55 -80zM491 151c0 109 60 172 170 172c107 0 170 -63 170 -172c0 -110 -62 -172 -170 -172c-110 0 -170 61 -170 172zM546 716h122l-330 -710c-13 -28 -30 -36 -60 -36h-78zM150 532
c0 -43 10 -79 55 -79c46 0 54 36 54 79c0 44 -8 80 -54 80c-45 0 -55 -36 -55 -80zM36 532c0 109 59 173 169 173c108 0 170 -64 170 -173c0 -106 -61 -172 -170 -172c-110 0 -169 61 -169 172z" />
    <glyph glyph-name="ampersand" unicode="&#x26;" horiz-adv-x="712" 
d="M291 437l59 40c28 19 42 51 42 81c0 43 -34 78 -88 78c-56 0 -87 -29 -89 -74c-1 -28 17 -53 29 -68zM439 102l-171 201c-18 -12 -38 -27 -56 -40c-43 -31 -59 -63 -59 -107c0 -66 57 -107 136 -107c58 0 114 20 150 53zM693 -30h-135l-50 55c-56 -43 -116 -69 -219 -69
c-181 0 -252 98 -252 201c0 96 61 151 110 184l55 37l-38 46c-31 37 -65 80 -65 140c0 91 63 166 205 166c127 0 204 -76 204 -172c0 -57 -31 -112 -83 -149l-71 -50l142 -164c12 34 18 85 18 122l106 -12c-1 -77 -20 -147 -48 -195c37 -41 85 -99 121 -140z" />
    <glyph glyph-name="quoteright" unicode="&#x2019;" horiz-adv-x="323" 
d="M139 632v19h-55v117h140v-109c0 -69 -39 -125 -104 -152l-36 48c35 18 55 44 55 77z" />
    <glyph glyph-name="parenleft" unicode="(" horiz-adv-x="398" 
d="M206 202c9 -74 52 -154 119 -193l-62 -70c-97 48 -158 156 -170 260c-6 42 -8 100 -8 153c0 52 3 112 8 154c14 109 62 196 169 259l63 -68c-69 -41 -108 -112 -119 -194c-6 -41 -8 -99 -8 -151c0 -53 2 -108 8 -150z" />
    <glyph glyph-name="parenright" unicode=")" horiz-adv-x="402" 
d="M193 202c6 42 8 97 8 150c0 52 -2 110 -8 151c-11 82 -50 153 -119 194l63 68c107 -63 155 -150 169 -259c5 -42 8 -102 8 -154c0 -53 -2 -111 -8 -153c-12 -104 -73 -212 -170 -260l-62 70c67 39 110 119 119 193z" />
    <glyph glyph-name="asterisk" unicode="*" horiz-adv-x="585" 
d="M473 356l-125 85l14 -146h-121l13 144l-128 -82l-63 101l150 60l-147 71l63 102l125 -93l-14 154h119l-12 -154l128 94l56 -104l-143 -64l143 -66z" />
    <glyph glyph-name="plus" unicode="+" horiz-adv-x="604" 
d="M360 576v-190h190v-94h-190v-194h-117v194h-188v94h188v190h117z" />
    <glyph glyph-name="comma" unicode="," horiz-adv-x="276" 
d="M124 -30h-55v127h140v-118c0 -70 -36 -131 -102 -158l-41 49c35 19 58 49 58 82v18z" />
    <glyph glyph-name="hyphen" unicode="-" horiz-adv-x="559" 
d="M66 293v94h428v-94h-428z" />
    <glyph glyph-name="period" unicode="." horiz-adv-x="273" 
d="M199 97v-127h-126v127h126z" />
    <glyph glyph-name="slash" unicode="/" horiz-adv-x="504" 
d="M337 751h117l-281 -803h-116z" />
    <glyph glyph-name="zero" unicode="0" horiz-adv-x="520" 
d="M259 49c106 0 113 117 113 296c0 173 -7 291 -113 291c-100 0 -111 -118 -111 -291c0 -179 12 -296 111 -296zM259 730c191 0 228 -133 228 -385c0 -275 -54 -389 -228 -389c-179 0 -227 130 -227 389c0 245 42 385 227 385z" />
    <glyph glyph-name="one" unicode="1" horiz-adv-x="520" 
d="M344 672v-702h-55c-43 0 -60 20 -60 65v588h-117v93h184c32 0 48 -15 48 -44z" />
    <glyph glyph-name="two" unicode="2" horiz-adv-x="520" 
d="M416 -30h-302c-55 0 -76 13 -76 68v101c0 59 24 97 69 128l189 128c53 37 63 72 63 128c0 69 -49 114 -133 114c-52 0 -102 -5 -174 -24v94c62 16 101 23 174 23c151 0 249 -76 249 -207c-1 -88 -31 -149 -107 -201l-185 -125c-23 -16 -30 -39 -30 -64v-69h326v-38
c0 -32 -14 -56 -63 -56z" />
    <glyph glyph-name="three" unicode="3" horiz-adv-x="520" 
d="M223 730c133 0 242 -57 239 -199c-1 -81 -28 -137 -82 -170c64 -31 100 -94 100 -167c0 -171 -112 -241 -275 -238c-57 0 -85 3 -163 16v41c0 35 21 53 62 46c37 -5 61 -7 101 -7c94 0 159 33 159 136c0 96 -43 121 -132 121h-104c-29 0 -40 8 -40 35v59h144
c88 0 115 37 115 130c0 64 -49 104 -125 104c-61 0 -110 -9 -162 -22v92c57 15 112 23 163 23z" />
    <glyph glyph-name="four" unicode="4" horiz-adv-x="520" 
d="M450 93h-11v-123h-54c-43 0 -58 20 -58 65v58h-309v88l244 487c15 31 36 48 81 48h96v-531h62v-44c0 -36 -19 -48 -51 -48zM327 575l-193 -390h193v390z" />
    <glyph glyph-name="five" unicode="5" horiz-adv-x="520" 
d="M240 334h-180v382h398v-45c0 -39 -24 -48 -56 -48h-226v-195h70c174 0 228 -88 228 -220c0 -161 -84 -252 -260 -252c-39 0 -98 3 -166 15v43c0 40 34 45 56 42c38 -3 74 -5 108 -6c100 -3 146 59 146 158c0 61 -16 126 -118 126z" />
    <glyph glyph-name="six" unicode="6" horiz-adv-x="520" 
d="M450 705v-46c0 -42 -26 -43 -51 -43c-40 3 -74 5 -107 5c-137 0 -143 -113 -143 -173v-42c21 23 65 46 118 46c145 0 215 -75 215 -200v-92c0 -135 -80 -204 -220 -204c-141 0 -225 68 -225 204v277c0 160 63 279 254 279c53 0 99 -4 159 -11zM369 173v67
c0 87 -36 115 -104 115c-76 0 -116 -29 -116 -112v-71c0 -85 30 -120 113 -120c71 0 107 37 107 121z" />
    <glyph glyph-name="seven" unicode="7" horiz-adv-x="520" 
d="M478 679v-39c0 -19 -6 -34 -13 -53l-205 -579c-7 -20 -21 -38 -53 -38h-75l233 653h-318v93h386c24 0 45 -6 45 -37z" />
    <glyph glyph-name="eight" unicode="8" horiz-adv-x="520" 
d="M258 409c69 0 109 35 109 115c0 79 -48 112 -107 112c-65 0 -106 -35 -106 -112c0 -79 39 -115 104 -115zM259 322c-88 0 -122 -52 -122 -139c0 -84 44 -134 124 -134c93 0 122 66 122 133c0 88 -30 140 -124 140zM261 -44c-148 0 -240 71 -240 218c0 116 44 164 102 196
c-51 28 -85 82 -85 153c0 149 90 207 221 207s223 -62 223 -206c0 -61 -35 -132 -85 -156c69 -32 102 -100 102 -188c0 -132 -66 -224 -238 -224z" />
    <glyph glyph-name="nine" unicode="9" horiz-adv-x="520" 
d="M69 -19v46c0 41 26 44 51 43c40 -3 74 -5 107 -5c137 0 143 117 143 177v38c-21 -23 -65 -46 -118 -46c-145 0 -215 75 -215 200v92c0 135 80 204 220 204c141 0 225 -68 225 -204v-273c0 -160 -63 -283 -254 -283c-53 0 -99 4 -159 11zM150 513v-67
c0 -87 36 -115 104 -115c76 0 116 29 116 112v71c0 85 -30 120 -113 120c-71 0 -107 -37 -107 -121z" />
    <glyph glyph-name="colon" unicode=":" horiz-adv-x="273" 
d="M199 217v-127h-126v127h126zM199 598v-128h-126v128h126z" />
    <glyph glyph-name="semicolon" unicode=";" horiz-adv-x="276" 
d="M81 217h125l-93 -268h-36c-27 0 -38 16 -31 57zM199 598v-128h-126v128h126z" />
    <glyph glyph-name="less" unicode="&#x3c;" horiz-adv-x="500" 
d="M433 90l-80 -72l-289 324l289 319l82 -68l-230 -251z" />
    <glyph glyph-name="equal" unicode="=" horiz-adv-x="586" 
d="M79 194v94h428v-94h-428zM79 418v94h428v-94h-428z" />
    <glyph glyph-name="greater" unicode="&#x3e;" horiz-adv-x="500" 
d="M146 18l-80 72l228 252l-230 251l82 68l289 -319z" />
    <glyph glyph-name="question" unicode="?" horiz-adv-x="543" 
d="M293 181h-115v54c0 60 8 101 45 126l88 60c48 33 67 80 67 123c0 62 -60 102 -145 102c-61 0 -108 -10 -185 -33l-5 94c79 25 126 33 188 33c149 0 263 -73 263 -193c0 -81 -31 -142 -95 -188l-83 -59c-22 -16 -23 -35 -23 -67v-52zM298 97v-127h-126v127h126z" />
    <glyph glyph-name="at" unicode="@" horiz-adv-x="916" 
d="M471 763c267 0 407 -161 407 -379c0 -155 -95 -279 -251 -279h-201c-100 0 -166 55 -166 134v49c0 92 65 136 171 136c49 0 69 -2 104 -5v27c0 28 -10 43 -50 43h-133c-46 0 -56 15 -56 48v46h203c113 0 152 -56 152 -147v-231c62 13 110 80 110 178
c0 161 -85 286 -292 286c-214 0 -317 -150 -317 -328c0 -180 90 -309 313 -309c48 0 120 9 188 31l16 -55c6 -22 -4 -36 -20 -42c-57 -17 -130 -28 -199 -28c-278 0 -414 169 -414 405c0 238 148 420 435 420zM445 331c-46 0 -68 -10 -68 -46v-38c0 -36 21 -48 68 -48h90
v127c-35 4 -53 5 -90 5z" />
    <glyph glyph-name="A" unicode="A" horiz-adv-x="668" 
d="M533 -30l-80 249c-17 -19 -48 -35 -85 -35h-163l-68 -214h-120l250 746h90c27 0 50 -19 57 -41l238 -705h-119zM334 584l-98 -303h195z" />
    <glyph glyph-name="B" unicode="B" horiz-adv-x="644" 
d="M73 716h292c140 0 204 -76 204 -178v-47c0 -53 -27 -109 -72 -132c60 -24 92 -77 92 -136v-66c0 -134 -107 -187 -224 -187h-292v746zM366 621h-177v-218h177c69 0 87 49 87 92v38c0 48 -29 88 -87 88zM365 308h-176v-244h175c74 0 108 45 108 98v47c0 53 -30 99 -107 99
z" />
    <glyph glyph-name="C" unicode="C" horiz-adv-x="583" 
d="M547 64v-37c0 -30 -12 -57 -75 -57h-205c-119 0 -206 78 -206 196v357c0 119 84 193 229 193h247v-36c0 -33 -10 -59 -74 -59h-170c-77 0 -115 -38 -115 -111v-337c0 -57 31 -109 93 -109h276z" />
    <glyph glyph-name="D" unicode="D" horiz-adv-x="665" 
d="M74 716h276c172 0 252 -93 252 -216v-316c0 -123 -80 -214 -252 -214h-276v746zM350 621h-160v-557h160c84 0 136 46 136 120v316c0 79 -52 121 -136 121z" />
    <glyph glyph-name="E" unicode="E" horiz-adv-x="602" 
d="M495 -30h-421v746h472v-34c0 -38 -10 -61 -64 -61h-291v-210h324v-36c0 -32 -10 -58 -63 -58h-261v-253h367v-36c0 -32 -11 -58 -63 -58z" />
    <glyph glyph-name="F" unicode="F" horiz-adv-x="581" 
d="M456 317h-265v-347h-53c-46 0 -64 16 -64 63v683h484v-35c0 -34 -13 -60 -68 -60h-299v-210h335v-36c0 -33 -15 -58 -70 -58z" />
    <glyph glyph-name="G" unicode="G" horiz-adv-x="672" 
d="M286 716h304v-35c0 -41 -17 -60 -71 -60h-233c-58 0 -102 -38 -102 -102v-350c0 -58 34 -105 102 -105h119c57 0 85 44 85 96v121c0 11 -6 20 -23 20h-80c-48 0 -69 11 -69 53v42h203c62 0 86 -28 86 -84v-152c0 -128 -83 -190 -201 -190h-120c-128 0 -219 66 -219 200
v349c0 126 97 197 219 197z" />
    <glyph glyph-name="H" unicode="H" horiz-adv-x="680" 
d="M486 716h117v-746h-53c-45 0 -64 16 -64 61v313c-16 -19 -44 -26 -75 -26h-220v-348h-54c-45 0 -63 16 -63 61v685h117v-304h295v304z" />
    <glyph glyph-name="I" unicode="I" horiz-adv-x="282" 
d="M84 716h118v-746h-55c-45 0 -63 16 -63 61v685z" />
    <glyph glyph-name="J" unicode="J" horiz-adv-x="426" 
d="M80 64h62c62 0 91 26 91 99v553h118v-553c0 -131 -62 -193 -209 -193h-129v39c0 42 18 55 67 55z" />
    <glyph glyph-name="K" unicode="K" horiz-adv-x="645" 
d="M476 4l-263 351l273 361h142l-274 -360l287 -386h-93c-37 0 -56 11 -72 34zM74 716h117v-746h-55c-44 0 -62 18 -62 62v684z" />
    <glyph glyph-name="L" unicode="L" horiz-adv-x="548" 
d="M191 716v-652h339v-36c0 -41 -14 -58 -61 -58h-395v746h117z" />
    <glyph glyph-name="M" unicode="M" horiz-adv-x="886" 
d="M807 716v-746h-54c-44 0 -63 17 -63 60v465c-54 -98 -109 -203 -163 -301c-15 -27 -45 -55 -86 -55c-42 0 -70 28 -84 54l-163 302v-525h-54c-41 0 -63 20 -63 55v691h117l236 -447c5 -10 19 -10 24 0l236 447h117z" />
    <glyph glyph-name="N" unicode="N" horiz-adv-x="677" 
d="M74 31v685h312c143 0 216 -40 216 -199v-547h-53c-44 0 -64 16 -64 61v487c0 80 -25 103 -99 103h-195v-651h-54c-45 0 -63 16 -63 61z" />
    <glyph glyph-name="O" unicode="O" horiz-adv-x="702" 
d="M350 730c200 0 291 -112 291 -312v-151c0 -199 -91 -311 -291 -311c-197 0 -291 112 -291 312v150c0 200 94 312 291 312zM524 268v151c0 61 -11 117 -39 153c-28 37 -63 59 -135 59c-71 0 -107 -21 -136 -61c-28 -40 -38 -89 -38 -152v-151c0 -144 58 -214 174 -211
c116 -3 174 67 174 212z" />
    <glyph glyph-name="P" unicode="P" horiz-adv-x="627" 
d="M349 244h-159v-274h-52c-46 0 -65 16 -65 61v685h276c139 0 221 -51 221 -189v-94c0 -71 -17 -189 -221 -189zM349 619h-159v-279h159c71 0 104 31 104 93v94c0 56 -28 92 -104 92z" />
    <glyph glyph-name="Q" unicode="Q" horiz-adv-x="712" 
d="M350 730c200 0 291 -112 291 -312v-151c0 -109 -26 -192 -85 -244l106 -138h-82c-39 0 -59 13 -72 30l-45 56c-33 -10 -71 -15 -113 -15c-197 0 -291 112 -291 312v150c0 200 94 312 291 312zM524 268v151c0 136 -48 212 -174 212c-125 0 -174 -82 -174 -213v-151
c0 -144 58 -214 174 -211c116 -3 174 67 174 212z" />
    <glyph glyph-name="R" unicode="R" horiz-adv-x="643" 
d="M344 286h-154v-316h-55c-44 0 -62 16 -62 61v685h297c142 0 213 -73 213 -170v-79c0 -72 -35 -143 -121 -167c48 -107 104 -224 153 -330h-127zM370 619h-180v-237h180c62 0 96 32 96 94v54c0 55 -31 89 -96 89z" />
    <glyph glyph-name="S" unicode="S" horiz-adv-x="578" 
d="M280 -30h-240v39c0 38 16 55 68 55h169c90 0 138 35 138 101c0 47 -28 81 -105 115l-126 56c-97 43 -136 109 -136 193c0 111 73 187 237 187h224v-41c0 -44 -22 -54 -70 -54h-154c-62 0 -119 -20 -119 -92c0 -52 28 -83 85 -109l120 -54c125 -56 162 -111 162 -200
c0 -155 -133 -196 -253 -196z" />
    <glyph glyph-name="T" unicode="T" horiz-adv-x="603" 
d="M244 31v590h-226v95h570v-35c0 -42 -10 -60 -66 -60h-161v-651h-54c-44 0 -63 16 -63 61z" />
    <glyph glyph-name="U" unicode="U" horiz-adv-x="684" 
d="M603 716v-746h-312c-143 0 -216 40 -216 199v547h117v-548c0 -80 25 -104 99 -104h195v652h117z" />
    <glyph glyph-name="V" unicode="V" horiz-adv-x="657" 
d="M133 716l195 -613c62 197 133 416 195 613h121l-249 -746h-85c-35 0 -53 15 -62 42l-235 704h120z" />
    <glyph glyph-name="W" unicode="W" horiz-adv-x="913" 
d="M787 716h118l-176 -746h-76c-44 0 -72 23 -83 70l-111 436l-129 -506h-72c-53 0 -74 21 -85 68l-159 678h118l131 -599l139 535h115l138 -534z" />
    <glyph glyph-name="X" unicode="X" horiz-adv-x="671" 
d="M150 -30h-132l250 374l-246 372h128l182 -273l182 273h130l-245 -372l249 -374h-132l-184 275z" />
    <glyph glyph-name="Y" unicode="Y" horiz-adv-x="683" 
d="M396 267v-297h-52c-45 0 -65 15 -65 61v234l-263 451h128l196 -339l197 339h128z" />
    <glyph glyph-name="Z" unicode="Z" horiz-adv-x="626" 
d="M45 716h526v-89l-404 -563h421v-57c0 -28 -16 -37 -43 -37h-512v92l403 559h-391v95z" />
    <glyph glyph-name="bracketleft" unicode="[" horiz-adv-x="453" 
d="M380 17v-93h-247v866h247v-94h-131v-679h131z" />
    <glyph glyph-name="backslash" unicode="\" horiz-adv-x="532" 
d="M60 751h117l280 -803h-116z" />
    <glyph glyph-name="bracketright" unicode="]" horiz-adv-x="453" 
d="M79 -76v93h130v679h-130v94h246v-866h-246z" />
    <glyph glyph-name="asciicircum" unicode="^" horiz-adv-x="628" 
d="M93 579l171 237h103l170 -237h-125l-97 137l-96 -137h-126z" />
    <glyph glyph-name="underscore" unicode="_" horiz-adv-x="614" 
d="M103 -143v94h412v-94h-412z" />
    <glyph glyph-name="quoteleft" unicode="&#x2018;" horiz-adv-x="323" 
d="M170 645v-19h55v-117h-140v109c0 69 38 125 104 152l36 -48c-35 -18 -55 -44 -55 -77z" />
    <glyph glyph-name="a" unicode="a" horiz-adv-x="544" 
d="M479 366v-396h-239c-114 0 -185 51 -185 150v61c0 114 71 163 185 160c49 -1 82 -3 123 -8v33c0 37 -21 61 -67 61h-130c-62 0 -72 23 -72 54v39h202c127 0 183 -54 183 -154zM241 243c-48 0 -70 -18 -70 -66v-53c0 -49 40 -60 70 -60h122v172c-46 5 -87 7 -122 7z" />
    <glyph glyph-name="b" unicode="b" horiz-adv-x="555" 
d="M75 721h116v-201h97c135 0 208 -60 208 -178v-193c0 -120 -73 -179 -208 -179h-213v751zM191 427v-363h97c55 0 93 31 93 94v174c0 65 -38 95 -92 95h-98z" />
    <glyph glyph-name="c" unicode="c" horiz-adv-x="505" 
d="M269 64h196v-37c0 -31 -8 -57 -72 -57h-124c-121 0 -207 68 -207 186v176c0 117 86 188 207 188h191v-34c0 -32 -6 -59 -69 -59h-122c-59 0 -91 -33 -91 -95v-175c0 -56 32 -93 91 -93z" />
    <glyph glyph-name="d" unicode="d" horiz-adv-x="553" 
d="M364 721h116v-751h-214c-135 0 -208 59 -208 179v193c0 118 73 178 208 178h98v201zM364 64v363h-99c-54 0 -91 -30 -91 -95v-174c0 -63 37 -94 92 -94h98z" />
    <glyph glyph-name="e" unicode="e" horiz-adv-x="549" 
d="M250 64h224v-40c0 -32 -8 -54 -71 -54h-153c-118 0 -195 69 -195 179v186c0 142 100 199 217 199c128 0 221 -64 221 -180v-72c0 -48 -28 -84 -87 -84h-235v-49c0 -54 36 -85 79 -85zM171 354v-62h190c9 0 17 8 17 20v42c0 52 -37 86 -106 86c-61 0 -101 -34 -101 -86z
" />
    <glyph glyph-name="f" unicode="f" horiz-adv-x="437" 
d="M246 520h143v-43c0 -36 -36 -50 -66 -50h-77v-457h-53c-44 0 -63 16 -63 62v395h-102v93h102v61c0 85 28 140 145 140h134v-32c0 -40 -26 -61 -73 -61h-61c-25 0 -29 -23 -29 -40v-68z" />
    <glyph glyph-name="g" unicode="g" horiz-adv-x="561" 
d="M174 -145h146c38 0 56 23 56 58v57h-116c-125 0 -200 62 -200 178v195c0 117 79 177 200 177h231v-609c0 -73 -37 -150 -168 -150h-217v40c0 38 21 54 68 54zM176 342v-194c0 -70 49 -84 84 -84h116v363h-116c-57 0 -84 -37 -84 -85z" />
    <glyph glyph-name="h" unicode="h" horiz-adv-x="574" 
d="M320 427h-130v-457h-53c-45 0 -63 16 -63 62v689h116v-201h130c127 0 188 -56 188 -168v-382h-52c-44 0 -64 16 -64 62v319c0 54 -28 76 -72 76z" />
    <glyph glyph-name="i" unicode="i" horiz-adv-x="267" 
d="M74 520h116v-550h-52c-46 0 -64 16 -64 62v488zM72 664v66h120v-134h-44c-41 0 -76 24 -76 68z" />
    <glyph glyph-name="j" unicode="j" horiz-adv-x="327" 
d="M134 664v66h120v-134h-44c-42 0 -76 24 -76 68zM136 -77v597h116v-597c0 -112 -66 -162 -177 -162h-86v39c0 37 25 56 62 56h24c41 0 61 25 61 67z" />
    <glyph glyph-name="k" unicode="k" horiz-adv-x="574" 
d="M75 32v689h116v-751h-52c-47 0 -64 15 -64 62zM211 265l209 255h135l-213 -256l224 -294h-90c-25 0 -49 11 -64 31z" />
    <glyph glyph-name="l" unicode="l" horiz-adv-x="269" 
d="M73 721h116v-751h-53c-44 0 -63 16 -63 62v689z" />
    <glyph glyph-name="m" unicode="m" horiz-adv-x="770" 
d="M524 427h-82v-457h-52c-45 0 -64 16 -64 62v395h-141v-457h-54c-44 0 -62 16 -62 62v488h455c123 0 176 -49 176 -158v-392h-54c-44 0 -62 16 -62 62v330c0 44 -19 65 -60 65z" />
    <glyph glyph-name="n" unicode="n" horiz-adv-x="571" 
d="M70 520h241c142 0 190 -49 190 -175v-375h-53c-44 0 -63 16 -63 62v313c0 64 -19 82 -74 82h-125v-457h-51c-46 0 -65 16 -65 62v488z" />
    <glyph glyph-name="o" unicode="o" horiz-adv-x="574" 
d="M286 534c147 0 226 -67 226 -219v-139c0 -152 -77 -220 -226 -220c-145 0 -226 65 -226 220v139c0 152 81 219 226 219zM396 176v139c0 77 -20 125 -110 125c-73 0 -110 -33 -110 -120v-144c0 -89 37 -127 110 -127s110 34 110 127z" />
    <glyph glyph-name="p" unicode="p" horiz-adv-x="553" 
d="M69 -161v681h218c136 0 204 -61 204 -186v-179c0 -128 -74 -185 -204 -185h-102v-194h-53c-45 0 -63 16 -63 63zM185 427v-363h102c60 0 88 30 88 91v179c0 60 -28 93 -88 93h-102z" />
    <glyph glyph-name="q" unicode="q" horiz-adv-x="551" 
d="M484 -224h-52c-46 0 -64 16 -64 63v131h-102c-131 0 -204 57 -204 185v179c0 125 67 186 204 186h218v-744zM368 64v363h-102c-60 0 -88 -33 -88 -93v-179c0 -61 28 -91 88 -91h102z" />
    <glyph glyph-name="r" unicode="r" horiz-adv-x="418" 
d="M183 379v-409h-53c-44 0 -63 16 -63 62v347c0 90 42 141 150 141h182v-29c0 -49 -34 -64 -79 -64h-103c-26 0 -34 -22 -34 -48z" />
    <glyph glyph-name="s" unicode="s" horiz-adv-x="474" 
d="M232 520h176v-40c0 -38 -22 -53 -72 -53h-104c-49 0 -68 -27 -68 -58c0 -25 13 -49 49 -60l92 -30c94 -29 128 -81 128 -152c0 -100 -74 -157 -193 -157h-189v37c0 38 21 57 68 57h121c45 0 77 20 77 63c0 29 -13 50 -47 61l-88 29c-89 30 -134 73 -134 152
c0 70 54 151 184 151z" />
    <glyph glyph-name="t" unicode="t" horiz-adv-x="367" 
d="M277 -30h-25c-111 0 -151 53 -151 153v304h-87v93h87v180h116v-180h124v-38c0 -32 -13 -55 -74 -55h-50v-304c0 -44 19 -59 49 -59h83v-38c0 -30 -16 -56 -72 -56z" />
    <glyph glyph-name="u" unicode="u" horiz-adv-x="562" 
d="M493 -30h-223c-141 0 -205 49 -205 200v350h115v-350c0 -88 24 -106 90 -106h107v456h116v-550z" />
    <glyph glyph-name="v" unicode="v" horiz-adv-x="518" 
d="M321 -30h-77c-36 0 -54 14 -66 49l-167 501h112l137 -423l134 423h109z" />
    <glyph glyph-name="w" unicode="w" horiz-adv-x="736" 
d="M621 520h108l-141 -550h-63c-37 0 -60 21 -69 56l-89 327l-106 -383h-59c-51 0 -62 22 -71 59l-126 491h108l94 -412l108 390h104l107 -389z" />
    <glyph glyph-name="x" unicode="x" horiz-adv-x="566" 
d="M145 -30h-130l200 276l-194 274h126l132 -189l132 189h130l-195 -274l201 -276h-127l-137 194z" />
    <glyph glyph-name="y" unicode="y" horiz-adv-x="562" 
d="M317 -239h-228v40c0 42 18 58 70 58h158c46 0 60 21 60 54v65c-44 -4 -83 -6 -137 -8c-122 -4 -176 65 -176 179v371h116v-370c0 -57 14 -86 63 -85c51 1 91 5 134 9v446h116v-608c0 -85 -51 -151 -176 -151z" />
    <glyph glyph-name="z" unicode="z" horiz-adv-x="505" 
d="M167 64h295v-52c0 -27 -15 -42 -46 -42h-380v88l282 369h-269v93h401v-88z" />
    <glyph glyph-name="braceleft" unicode="{" horiz-adv-x="452" 
d="M387 14v-87h-79c-87 0 -127 44 -127 129v201c0 37 -37 52 -82 54v89c46 1 82 13 82 53v204c0 87 45 134 131 134h75v-88c-62 -1 -95 -11 -95 -47v-197c0 -53 -16 -85 -42 -106c29 -24 42 -55 42 -102v-190c0 -40 25 -47 95 -47z" />
    <glyph glyph-name="bar" unicode="|" horiz-adv-x="350" 
d="M128 767h107v-819h-107v819z" />
    <glyph glyph-name="braceright" unicode="}" horiz-adv-x="452" 
d="M75 -73v87c70 0 95 7 95 47v190c0 47 13 78 42 102c-26 21 -42 53 -42 106v197c0 36 -33 46 -95 47v88h75c86 0 131 -47 131 -134v-204c0 -40 36 -52 82 -53v-89c-45 -2 -82 -17 -82 -54v-201c0 -85 -40 -129 -127 -129h-79z" />
    <glyph glyph-name="asciitilde" unicode="~" horiz-adv-x="726" 
d="M567 415h107c0 -108 -54 -196 -184 -196c-72 0 -120 31 -161 83c-31 37 -56 53 -79 53c-47 0 -78 -34 -78 -102h-110c4 117 70 196 186 196c76 0 120 -35 171 -95c21 -25 44 -41 69 -41c44 0 76 29 79 102z" />
    <glyph glyph-name="exclamdown" unicode="&#xa1;" horiz-adv-x="347" 
d="M106 -54l16 527h101l18 -527h-135zM108 716h127v-127h-127v127z" />
    <glyph glyph-name="cent" unicode="&#xa2;" horiz-adv-x="504" 
d="M346 641h108l-32 -121h39v-34c0 -31 -6 -57 -63 -59l-94 -363h161v-37c0 -31 -8 -57 -72 -57h-113l-29 -112h-107l33 129c-70 26 -114 86 -114 169v176c0 114 86 188 207 188h45zM179 332v-175c0 -29 8 -52 24 -69l88 339h-21c-59 0 -91 -33 -91 -95z" />
    <glyph glyph-name="sterling" unicode="&#xa3;" horiz-adv-x="571" 
d="M540 64v-37c0 -31 -9 -57 -72 -57h-430v94c45 14 74 71 74 128v97h-69v93h69v149c0 139 94 199 233 199c48 0 122 -11 182 -32l-5 -91c-77 24 -120 29 -179 29c-70 0 -116 -31 -116 -105v-149h148v-36c0 -31 -9 -57 -72 -57h-76v-89c0 -49 -16 -105 -40 -136h353z" />
    <glyph glyph-name="yen" unicode="&#xa5;" horiz-adv-x="694" 
d="M403 98v-128h-52c-45 0 -65 15 -65 61v67h-185v94h185v73l-1 1h-184v93h130l-208 357h128l196 -339l197 339h128l-214 -357h129v-36c0 -31 -8 -57 -72 -57h-112v-74h184v-37c0 -31 -8 -57 -72 -57h-112z" />
    <glyph glyph-name="florin" unicode="&#x192;" horiz-adv-x="440" 
d="M246 427v-483c0 -105 -61 -168 -170 -168h-31v93h24c36 0 61 25 61 74v484h-102v93h102v61c0 85 28 140 145 140h134v-32c0 -40 -26 -61 -73 -61h-61c-25 0 -29 -23 -29 -40v-68h143v-43c0 -36 -38 -50 -68 -50h-75z" />
    <glyph glyph-name="section" unicode="&#xa7;" horiz-adv-x="474" 
d="M225 716h176v-40c0 -38 -22 -53 -71 -53h-105c-49 0 -68 -25 -68 -56c0 -25 13 -49 49 -60l86 -26c91 -28 134 -82 134 -152c0 -57 -24 -101 -67 -128c45 -30 67 -71 67 -120c0 -100 -74 -160 -193 -160h-189v36c0 39 21 57 68 57h121c45 0 77 24 77 67
c0 29 -13 45 -47 56l-86 29c-88 30 -136 73 -136 152c0 45 21 94 70 123c-46 28 -70 69 -70 126c0 70 54 149 184 149zM192 263h41c45 0 77 23 77 66c0 19 -6 34 -20 46h-65c-49 0 -68 -26 -68 -57c0 -22 9 -43 35 -55z" />
    <glyph glyph-name="currency" unicode="&#xa4;" horiz-adv-x="573" 
d="M292 509c49 0 90 -8 124 -24l50 51l73 -70l-50 -51c16 -32 25 -71 25 -119v-31c0 -48 -8 -88 -25 -119l50 -51l-73 -70l-49 50c-34 -16 -75 -24 -125 -24c-53 0 -98 9 -133 29l-53 -55l-74 70l59 59c-14 30 -21 67 -21 111v31c0 43 7 79 20 109l-58 61l74 70l54 -56
c35 20 79 29 132 29zM402 265v31c0 69 -31 124 -110 124c-69 0 -110 -43 -110 -124v-31c0 -81 39 -125 110 -125c69 0 110 42 110 125z" />
    <glyph glyph-name="quotesingle" unicode="'" horiz-adv-x="306" 
d="M94 751h120l-13 -271h-40c-36 0 -52 24 -54 51z" />
    <glyph glyph-name="quotedblleft" unicode="&#x201c;" horiz-adv-x="490" 
d="M167 645v-19h55v-117h-140v109c0 69 39 125 105 152l35 -48c-34 -18 -55 -44 -55 -77zM347 645v-19h55v-117h-140v109c0 69 39 125 104 152l36 -48c-35 -18 -55 -44 -55 -77z" />
    <glyph glyph-name="guillemotleft" unicode="&#xab;" horiz-adv-x="500" 
d="M196 526l86 -49l-127 -220l127 -220l-86 -49l-155 269zM372 526l86 -49l-127 -220l127 -220l-86 -49l-155 269z" />
    <glyph glyph-name="guilsinglleft" unicode="&#x2039;" 
d="M161 300l722 441v-37l-652 -404l652 -403v-39z" />
    <glyph glyph-name="guilsinglright" unicode="&#x203a;" 
d="M37 704v37l722 -441l-722 -442v39l652 403z" />
    <glyph glyph-name="dagger" unicode="&#x2020;" 
d="M478 521c18 0 57 8 85 15c43 12 98 9 98 -31c0 -39 -55 -44 -98 -32c-28 8 -68 17 -85 15c0 -29 5 -64 20 -84c14 -18 19 -22 18 -28s-8 -13 -18 -37c-31 -77 -17 -367 -23 -433c-2 -25 -8 -39 -14 -41c-7 -2 -14 11 -16 41c-6 66 9 357 -23 433c-11 27 -19 33 -18 39
c0 5 6 10 18 26c16 20 22 58 21 84c-18 2 -58 -7 -86 -15c-43 -12 -98 -7 -98 32c0 40 55 43 98 31c28 -7 67 -15 85 -15c1 19 -6 67 -14 95c-12 43 -8 107 32 107s43 -64 31 -107c-8 -28 -14 -77 -13 -95z" />
    <glyph glyph-name="daggerdbl" unicode="&#x2021;" 
d="M442 403v94c-17 2 -55 -7 -83 -14c-42 -12 -96 -7 -96 31c0 39 54 43 96 30c28 -7 66 -14 83 -14c1 18 -5 61 -13 88c-12 42 -8 105 31 105s42 -63 30 -105c-7 -27 -13 -70 -12 -88c17 0 55 7 83 14c42 13 96 9 96 -30c0 -38 -54 -43 -96 -31c-28 7 -67 16 -83 14v-94
c17 0 55 7 83 14c42 13 96 9 96 -30c0 -38 -54 -43 -96 -31c-28 7 -67 16 -83 14c0 -28 4 -62 19 -82c14 -17 18 -21 17 -27s-8 -13 -17 -37c-29 -75 -19 -252 -22 -318c-1 -26 -7 -40 -14 -41s-15 12 -16 41c-4 66 7 243 -22 318c-11 28 -19 34 -18 40c1 5 6 9 18 24
c15 20 20 57 19 82c-17 2 -55 -7 -83 -14c-42 -12 -96 -7 -96 31c0 39 54 43 96 30c28 -7 66 -14 83 -14z" />
    <glyph glyph-name="periodcentered" unicode="&#xb7;" horiz-adv-x="333" 
d="M103 418h127v-128h-127v128z" />
    <glyph glyph-name="paragraph" unicode="&#xb6;" horiz-adv-x="548" 
d="M189 -95v411c-80 13 -165 78 -160 204c3 126 79 196 207 196h240v-872h-46c-45 0 -64 16 -64 61v717h-68v-778h-45c-45 0 -64 16 -64 61z" />
    <glyph glyph-name="bullet" unicode="&#x2022;" 
d="M581 300c0 -68 -54 -122 -121 -122s-121 54 -121 122c0 66 54 120 121 120s121 -54 121 -120z" />
    <glyph glyph-name="quotedblright" unicode="&#x201d;" horiz-adv-x="490" 
d="M318 629v19h-55v117h140v-109c0 -69 -39 -125 -104 -152l-36 48c35 18 55 45 55 77zM138 629v19h-55v117h140v-109c0 -69 -38 -125 -104 -152l-36 48c35 18 55 45 55 77z" />
    <glyph glyph-name="guillemotright" unicode="&#xbb;" horiz-adv-x="500" 
d="M217 477l86 49l155 -269l-155 -269l-86 49l127 220zM41 477l86 49l155 -269l-155 -269l-86 49l127 220z" />
    <glyph glyph-name="ellipsis" unicode="&#x2026;" horiz-adv-x="819" 
d="M73 418h126v-127h-126v127zM346 418h126v-127h-126v127zM619 418h126v-127h-126v127z" />
    <glyph glyph-name="perthousand" unicode="&#x2030;" 
d="M84 -30l340 738h113l-325 -702c-13 -28 -30 -36 -60 -36h-68zM112 517c0 -35 8 -64 45 -64c36 0 44 29 44 64c0 37 -8 67 -44 67c-37 0 -45 -30 -45 -67zM12 517c0 94 51 149 145 149c91 0 145 -55 145 -149c0 -88 -53 -146 -145 -146c-94 0 -145 52 -145 146zM427 166
c0 -37 7 -66 44 -66s45 29 45 66c0 36 -8 66 -45 66s-44 -30 -44 -66zM326 166c0 93 51 148 145 148c92 0 146 -55 146 -148c0 -91 -53 -148 -146 -148c-94 0 -145 52 -145 148zM723 166c0 -37 9 -66 45 -66c37 0 44 29 44 66c0 36 -7 66 -44 66c-36 0 -45 -30 -45 -66z
M623 166c0 93 51 148 145 148c91 0 145 -55 145 -148c0 -91 -53 -148 -145 -148c-94 0 -145 52 -145 148z" />
    <glyph glyph-name="questiondown" unicode="&#xbf;" horiz-adv-x="549" 
d="M244 453v52h115v-54c0 -60 -8 -101 -45 -126l-88 -60c-48 -33 -67 -80 -67 -123c0 -62 60 -102 145 -102c61 0 108 10 185 33l5 -94c-63 -23 -126 -33 -188 -33c-149 0 -263 73 -263 193c0 81 31 142 95 188l83 59c22 16 23 35 23 67zM365 589h-126v127h126v-127z" />
    <glyph glyph-name="grave" unicode="`" horiz-adv-x="331" 
d="M62 785l110 52l105 -249l-35 -16c-33 -15 -57 -2 -71 23z" />
    <glyph glyph-name="acute" unicode="&#xb4;" horiz-adv-x="333" 
d="M66 584l81 146h122l-86 -115c-17 -23 -34 -31 -68 -31h-49z" />
    <glyph glyph-name="circumflex" unicode="&#x2c6;" horiz-adv-x="503" 
d="M253 661l-62 -80h-113l123 144h104l120 -144h-114z" />
    <glyph glyph-name="macron" unicode="&#xaf;" horiz-adv-x="501" 
d="M510 800v-95h-520v95h520z" />
    <glyph glyph-name="breve" unicode="&#x2d8;" horiz-adv-x="353" 
d="M20 716h92c3 -48 37 -60 65 -60c26 0 62 11 64 60h92c-3 -88 -61 -140 -159 -140c-92 0 -152 52 -154 140z" />
    <glyph glyph-name="dotaccent" unicode="&#x2d9;" horiz-adv-x="284" 
d="M81 700h118v-115h-118v115z" />
    <glyph glyph-name="dieresis" unicode="&#xa8;" horiz-adv-x="546" 
d="M73 701h126v-127h-126v127zM346 701h126v-127h-126v127z" />
    <glyph glyph-name="ring" unicode="&#x2da;" horiz-adv-x="313" 
d="M114 676c0 -24 19 -41 41 -41c23 0 42 17 42 41c0 23 -19 42 -42 42c-22 0 -41 -19 -41 -42zM41 676c0 65 50 110 114 110c66 0 115 -45 115 -110s-49 -110 -115 -110c-64 0 -114 45 -114 110z" />
    <glyph glyph-name="cedilla" unicode="&#xb8;" horiz-adv-x="333" 
d="M103 -113l28 93h95l-16 -52c53 -10 71 -35 71 -71c0 -60 -52 -96 -149 -96c-27 0 -55 4 -81 11l12 68c26 -5 54 -6 63 -6c42 0 54 10 54 27c0 12 -8 26 -77 26z" />
    <glyph glyph-name="hungarumlaut" unicode="&#x2dd;" horiz-adv-x="455" 
d="M51 584l77 146h117l-81 -115c-17 -24 -31 -31 -64 -31h-49zM210 584l77 146h118l-81 -115c-17 -24 -31 -31 -65 -31h-49z" />
    <glyph glyph-name="ogonek" unicode="&#x2db;" horiz-adv-x="362" 
d="M131 -22h93c-31 -25 -56 -64 -56 -95c0 -22 12 -39 38 -39c12 0 34 0 55 10v-78c-29 -14 -57 -15 -78 -15c-72 0 -108 45 -108 98c0 40 22 87 56 119z" />
    <glyph glyph-name="caron" unicode="&#x2c7;" horiz-adv-x="503" 
d="M78 725h113l62 -80l58 80h114l-120 -144h-104z" />
    <glyph glyph-name="AE" unicode="&#xc6;" horiz-adv-x="1000" 
d="M918 -30h-421v241c-18 -16 -45 -27 -78 -27h-181l-94 -214h-127l330 746h622v-34c0 -38 -10 -61 -64 -61h-291v-210h324v-36c0 -32 -10 -58 -63 -58h-261v-253h367v-36c0 -32 -11 -58 -63 -58zM497 621h-66l-150 -340h216v340z" />
    <glyph glyph-name="ordfeminine" unicode="&#xaa;" horiz-adv-x="399" 
d="M337 607v-269h-162c-80 0 -129 37 -129 106v38c0 82 49 113 129 113c17 0 45 -2 63 -4v16c0 16 -10 26 -29 26h-80c-52 0 -59 19 -59 46v37h139c89 0 128 -37 128 -109zM175 509c-21 0 -31 -8 -31 -29v-33c0 -20 18 -24 31 -24h63v82c-25 3 -44 4 -63 4z" />
    <glyph glyph-name="Lslash" unicode="&#x141;" horiz-adv-x="656" 
d="M416 466l-130 -101v-301h339v-36c0 -41 -14 -58 -61 -58h-395v304l-79 -61l-64 76l143 111v316h117v-225l66 52z" />
    <glyph glyph-name="Oslash" unicode="&#xd8;" horiz-adv-x="702" 
d="M351 730c35 0 67 -3 96 -10l25 61h118l-44 -108c65 -52 96 -139 96 -255v-151c0 -199 -91 -311 -291 -311c-35 0 -67 4 -95 11l-28 -69h-118l47 115c-66 52 -97 138 -97 255v150c0 200 94 312 291 312zM525 268v151c0 51 -10 96 -30 131l-200 -488c17 -4 36 -6 56 -6
c117 0 174 70 174 212zM351 631c-115 0 -174 -88 -174 -213v-151c0 -57 9 -102 28 -136l202 492c-17 5 -36 8 -56 8z" />
    <glyph glyph-name="OE" unicode="&#x152;" horiz-adv-x="965" 
d="M350 -44c-196 0 -290 105 -290 308v158c0 203 94 308 290 308c36 0 71 -5 103 -14h466v-34c0 -38 -10 -61 -64 -61h-291v-209h324v-36c0 -32 -10 -58 -63 -58h-261v-254h367v-36c0 -32 -11 -58 -64 -58h-412c-32 -9 -67 -14 -105 -14zM350 631c-115 0 -173 -84 -173 -209
v-159c0 -141 58 -207 173 -207c35 0 68 7 97 24v530c-29 15 -62 21 -97 21z" />
    <glyph glyph-name="ordmasculine" unicode="&#xba;" horiz-adv-x="382" 
d="M186 726c99 0 154 -47 154 -149v-97c0 -101 -53 -149 -154 -149c-98 0 -155 47 -155 149v97c0 102 57 149 155 149zM241 480v97c0 36 -16 64 -55 64c-35 0 -55 -22 -55 -64v-97c0 -42 19 -66 55 -66c34 0 55 23 55 66z" />
    <glyph glyph-name="ae" unicode="&#xe6;" horiz-adv-x="855" 
d="M558 64h224v-40c0 -32 -8 -54 -72 -54h-152c-60 0 -107 16 -131 45c-22 -29 -63 -45 -104 -45h-83c-114 0 -185 51 -185 150v61c0 114 71 163 185 160c49 -1 82 -3 123 -8v34c0 37 -21 60 -67 60h-130c-62 0 -72 23 -72 54v39h202c64 0 103 -12 132 -40
c34 34 90 54 152 54c127 0 221 -71 221 -189v-63c0 -51 -23 -84 -85 -84h-237v-54c0 -51 36 -80 79 -80zM241 243c-48 0 -70 -18 -70 -66v-53c0 -49 40 -60 70 -60h65c31 0 57 26 57 58v114c-46 5 -87 7 -122 7zM479 348v-56h189c12 0 17 8 17 20v33c0 53 -36 95 -105 95
c-61 0 -101 -40 -101 -92z" />
    <glyph glyph-name="dotlessi" unicode="&#x131;" horiz-adv-x="257" 
d="M69 32v488h116v-550h-52c-46 0 -64 16 -64 62z" />
    <glyph glyph-name="lslash" unicode="&#x142;" horiz-adv-x="426" 
d="M157 274l-72 -56l-64 76l136 106v321h116v-231l72 56l62 -77l-134 -104v-395h-53c-44 0 -63 16 -63 62v242z" />
    <glyph glyph-name="oslash" unicode="&#xf8;" horiz-adv-x="570" 
d="M286 534c19 0 36 -1 53 -4l34 86h110l-47 -120c50 -35 76 -94 76 -179v-143c0 -149 -78 -218 -226 -218c-22 0 -42 2 -61 5l-35 -90h-109l50 128c-46 34 -71 92 -71 175v143c0 149 82 217 226 217zM396 174v143c0 20 -3 39 -9 56l-127 -322c8 -2 17 -2 26 -2
c70 0 110 42 110 125zM286 440c-68 0 -110 -42 -110 -123v-143c0 -17 2 -33 5 -47l122 312c-5 0 -11 1 -17 1z" />
    <glyph glyph-name="oe" unicode="&#x153;" horiz-adv-x="898" 
d="M512 198v-49c0 -54 36 -85 79 -85h224v-40c0 -32 -8 -54 -71 -54h-153c-55 0 -100 15 -134 42c-38 -38 -95 -56 -171 -56c-144 0 -226 67 -226 218v143c0 149 82 217 226 217c73 0 129 -17 167 -52c41 36 98 52 160 52c128 0 221 -64 221 -180v-72c0 -48 -28 -84 -87 -84
h-235zM396 174v143c0 68 -31 123 -110 123c-68 0 -110 -42 -110 -123v-143c0 -80 40 -125 110 -125s110 42 110 125zM512 354v-62h190c9 0 17 8 17 20v42c0 52 -37 86 -106 86c-61 0 -101 -34 -101 -86z" />
    <glyph glyph-name="germandbls" unicode="&#xdf;" horiz-adv-x="629" 
d="M189 504v-534h-51c-44 0 -63 15 -63 61v477c0 165 78 222 220 222c124 0 202 -67 202 -151c0 -39 -2 -73 -33 -129c-26 -46 -35 -57 -35 -76c0 -14 14 -36 62 -75c82 -67 104 -117 104 -173c0 -95 -73 -170 -193 -170c-75 0 -137 25 -177 88l79 68c25 -41 58 -60 97 -60
c42 0 72 33 72 73c0 30 -9 55 -51 90c-80 66 -114 103 -114 145c0 19 3 48 36 104s37 85 37 106c0 35 -34 70 -88 70c-61 0 -104 -32 -104 -136z" />
    <glyph glyph-name="logicalnot" unicode="&#xac;" horiz-adv-x="635" 
d="M576 500v-286h-116v192h-420v94h536z" />
    <glyph glyph-name="mu" unicode="&#xb5;" horiz-adv-x="571" 
d="M499 -30h-223c-35 0 -65 3 -90 10v-204h-52c-45 0 -64 15 -64 61l1 683h115v-363c0 -77 27 -93 90 -93h107v456h116v-550z" />
    <glyph glyph-name="trademark" unicode="&#x2122;" 
d="M161 364v259h-113v93h343v-35c0 -41 -10 -58 -66 -58h-53v-320h-49c-43 0 -62 16 -62 61zM418 340v376h112l90 -169c7 -7 8 -7 14 0l85 169h113v-413h-70c-26 0 -40 10 -40 37v205l-47 -83c-10 -17 -26 -29 -50 -29s-40 12 -50 29l-47 83v-242h-70c-26 0 -40 10 -40 37z
" />
    <glyph glyph-name="Eth" unicode="&#xd0;" horiz-adv-x="726" 
d="M125 297h-94v95h94v324h286c166 0 242 -89 242 -206v-336c0 -117 -76 -204 -242 -204h-286v327zM411 621h-170v-229h164v-37c0 -31 -9 -58 -73 -58h-91v-233h170c78 0 126 42 126 110v336c0 73 -48 111 -126 111z" />
    <glyph glyph-name="onehalf" unicode="&#xbd;" horiz-adv-x="800" 
d="M80 -44l443 760h114l-444 -760h-113zM220 678v-365h-46c-34 0 -48 15 -48 49v274h-59v80h111c29 0 42 -14 42 -38zM697 -44h-156c-42 0 -57 10 -57 51v44c0 34 18 61 41 78l99 72c18 14 25 30 25 50c0 23 -22 39 -55 39c-24 0 -52 -4 -106 -15v81c37 9 68 15 108 15
c78 0 146 -41 146 -119c0 -47 -23 -84 -58 -111l-98 -72c-6 -5 -9 -14 -9 -25v-8h168v-36c0 -25 -9 -44 -48 -44z" />
    <glyph glyph-name="plusminus" unicode="&#xb1;" horiz-adv-x="618" 
d="M246 603h117v-181h190v-94h-190v-184h-117v184h-188v94h188v181zM544 -30h-477v94h477v-94z" />
    <glyph glyph-name="Thorn" unicode="&#xde;" horiz-adv-x="620" 
d="M191 127v-157h-51c-45 0 -65 15 -65 61v685h116v-157h131c159 0 250 -49 250 -212s-81 -220 -242 -220h-139zM330 463h-139v-242h141c98 0 125 48 125 123c0 96 -43 119 -127 119z" />
    <glyph glyph-name="onequarter" unicode="&#xbc;" horiz-adv-x="800" 
d="M116 -44l443 760h114l-444 -760h-113zM699 100h35v-39c0 -28 -12 -38 -35 -40v-65h-46c-34 0 -47 16 -47 51v14h-184v70l140 235c13 21 25 33 58 33h79v-259zM220 678v-365h-46c-34 0 -48 15 -48 49v274h-59v80h111c29 0 42 -14 42 -38zM606 100v138l-84 -138h84z" />
    <glyph glyph-name="divide" unicode="&#xf7;" horiz-adv-x="507" 
d="M477 294h-448v93h448v-93zM187 227h126v-127h-126v127zM187 582h126v-127h-126v127z" />
    <glyph glyph-name="brokenbar" unicode="&#xa6;" horiz-adv-x="266" 
d="M186 716v-280h-106v280h106zM186 252v-282h-106v282h106z" />
    <glyph glyph-name="degree" unicode="&#xb0;" horiz-adv-x="382" 
d="M48 595c0 80 61 135 143 135c81 0 143 -55 143 -135c0 -81 -62 -135 -143 -135c-82 0 -143 54 -143 135zM139 595c0 -33 20 -53 51 -53s52 20 52 53c0 32 -21 54 -52 54s-51 -22 -51 -54z" />
    <glyph glyph-name="thorn" unicode="&#xfe;" horiz-adv-x="549" 
d="M75 -177v898h116v-201h97c135 0 208 -60 208 -178v-193c0 -120 -73 -179 -208 -179h-97v-209h-54c-43 0 -62 17 -62 62zM289 427h-98v-363h97c55 0 93 31 93 94v174c0 65 -38 95 -92 95z" />
    <glyph glyph-name="threequarters" unicode="&#xbe;" horiz-adv-x="800" 
d="M708 100h35v-39c0 -28 -12 -38 -35 -40v-65h-46c-34 0 -47 16 -47 51v14h-184v70l140 235c13 21 25 33 58 33h79v-259zM615 100v138l-84 -138h84zM141 -44l443 760h114l-444 -760h-113zM161 730c76 0 143 -32 142 -118c-1 -34 -23 -71 -45 -83c33 -16 53 -53 53 -90
c0 -98 -61 -135 -155 -133c-34 1 -57 2 -111 11v35c0 28 17 45 52 40c16 -2 40 -4 59 -4c38 0 61 9 61 48c0 35 -23 48 -57 48h-56c-27 0 -37 8 -37 34v47h93c32 0 48 13 48 48c0 23 -19 35 -48 35c-32 0 -66 -6 -108 -13l-2 79c39 9 72 16 111 16z" />
    <glyph glyph-name="registered" unicode="&#xae;" horiz-adv-x="873" 
d="M38 346c0 232 164 392 398 392c233 0 397 -160 397 -392c0 -233 -164 -392 -397 -392c-234 0 -398 159 -398 392zM134 346c0 -182 121 -304 300 -304c66 0 124 16 171 46h-65l-96 200h-72v-200h-50c-36 0 -54 13 -54 53v448h201c104 0 155 -53 155 -125v-43
c0 -44 -21 -100 -77 -119l93 -188c60 53 95 134 95 232c0 181 -120 302 -301 302c-179 0 -300 -121 -300 -302zM469 500h-97v-123h97c33 0 50 17 50 50v26c0 30 -16 47 -50 47z" />
    <glyph glyph-name="eth" unicode="&#xf0;" horiz-adv-x="589" 
d="M349 720l80 71l68 -70l-52 -46c55 -46 79 -119 79 -209v-305c0 -135 -87 -205 -234 -204c-146 2 -229 70 -229 204v123c0 124 79 205 228 205c50 0 101 -18 123 -38v25c0 38 -6 94 -47 128l-106 -93l-68 69l63 56c-28 0 -52 -4 -86 -4c-32 0 -56 3 -56 42v47
c59 7 95 9 148 9c33 0 63 -4 89 -10zM174 271v-97c0 -83 40 -120 116 -120c88 0 122 34 122 119v102c0 82 -40 118 -121 118c-72 0 -117 -35 -117 -122z" />
    <glyph glyph-name="multiply" unicode="&#xd7;" horiz-adv-x="597" 
d="M299 264l-149 -148l-70 70l147 149l-148 149l72 69l148 -147l148 147l69 -70l-147 -148l148 -148l-70 -71z" />
    <glyph glyph-name="copyright" unicode="&#xa9;" horiz-adv-x="868" 
d="M38 346c0 232 164 392 398 392c233 0 397 -160 397 -392c0 -233 -164 -392 -397 -392c-234 0 -398 159 -398 392zM134 346c0 -182 121 -304 300 -304c181 0 301 122 301 304c0 181 -120 302 -301 302c-179 0 -300 -121 -300 -302zM430 186h156v-37c0 -31 -9 -57 -72 -57
h-84c-122 0 -208 71 -208 186v126c0 114 86 188 208 188h152v-35c0 -32 -7 -59 -69 -59h-83c-59 0 -92 -33 -92 -94v-125c0 -56 33 -93 92 -93z" />
    <glyph glyph-name="Aacute" unicode="&#xc1;" horiz-adv-x="668" 
d="M533 -30l-80 249c-17 -19 -48 -35 -85 -35h-163l-68 -214h-120l250 746h90c27 0 50 -19 57 -41l238 -705h-119zM334 584l-98 -303h195zM318 930h122l-91 -115c-19 -22 -34 -31 -68 -31h-49z" />
    <glyph glyph-name="Acircumflex" unicode="&#xc2;" horiz-adv-x="668" 
d="M533 -30l-80 249c-17 -19 -48 -35 -85 -35h-163l-68 -214h-120l250 746h90c27 0 50 -19 57 -41l238 -705h-119zM334 584l-98 -303h195zM335 861l-62 -80h-113l123 144h104l120 -144h-114z" />
    <glyph glyph-name="Adieresis" unicode="&#xc4;" horiz-adv-x="668" 
d="M533 -30l-80 249c-17 -19 -48 -35 -85 -35h-163l-68 -214h-120l250 746h90c27 0 50 -19 57 -41l238 -705h-119zM334 584l-98 -303h195zM491 900v-119h-121v119h121zM296 900v-119h-121v119h121z" />
    <glyph glyph-name="Agrave" unicode="&#xc0;" horiz-adv-x="668" 
d="M533 -30l-80 249c-17 -19 -48 -35 -85 -35h-163l-68 -214h-120l250 746h90c27 0 50 -19 57 -41l238 -705h-119zM334 584l-98 -303h195zM228 930h122l86 -146h-49c-34 0 -51 8 -68 31z" />
    <glyph glyph-name="Aring" unicode="&#xc5;" horiz-adv-x="668" 
d="M533 -30l-80 249c-17 -19 -48 -35 -85 -35h-163l-68 -214h-120l250 746h90c27 0 50 -19 57 -41l238 -705h-119zM334 584l-98 -303h195zM293 876c0 -24 19 -41 41 -41c23 0 42 17 42 41c0 23 -19 42 -42 42c-22 0 -41 -19 -41 -42zM220 876c0 65 50 110 114 110
c66 0 115 -45 115 -110s-49 -110 -115 -110c-64 0 -114 45 -114 110z" />
    <glyph glyph-name="Atilde" unicode="&#xc3;" horiz-adv-x="668" 
d="M533 -30l-80 249c-17 -19 -48 -35 -85 -35h-163l-68 -214h-120l250 746h90c27 0 50 -19 57 -41l238 -705h-119zM334 584l-98 -303h195zM263 910c33 0 64 -15 87 -27c18 -9 37 -20 51 -20c25 0 35 18 35 47h92c0 -81 -48 -134 -122 -134c-37 0 -62 15 -87 28
c-16 8 -33 20 -51 20c-21 0 -38 -15 -39 -49h-91c0 86 53 135 125 135z" />
    <glyph glyph-name="Ccedilla" unicode="&#xc7;" horiz-adv-x="583" 
d="M547 64v-37c0 -30 -12 -57 -75 -57h-100l-13 -42c53 -10 71 -35 71 -71c0 -60 -52 -96 -149 -96c-27 0 -55 4 -81 11l12 68c26 -5 54 -6 63 -6c42 0 54 10 54 27c0 12 -8 26 -77 26l25 83h-10c-119 0 -206 78 -206 196v357c0 119 84 193 229 193h247v-36
c0 -33 -10 -59 -74 -59h-170c-77 0 -115 -38 -115 -111v-337c0 -57 31 -109 93 -109h276z" />
    <glyph glyph-name="Eacute" unicode="&#xc9;" horiz-adv-x="602" 
d="M495 -30h-421v746h472v-34c0 -38 -10 -61 -64 -61h-291v-210h324v-36c0 -32 -10 -58 -63 -58h-261v-253h367v-36c0 -32 -11 -58 -63 -58zM287 930h122l-91 -115c-19 -22 -34 -31 -68 -31h-49z" />
    <glyph glyph-name="Ecircumflex" unicode="&#xca;" horiz-adv-x="602" 
d="M495 -30h-421v746h472v-34c0 -38 -10 -61 -64 -61h-291v-210h324v-36c0 -32 -10 -58 -63 -58h-261v-253h367v-36c0 -32 -11 -58 -63 -58zM307 861l-62 -80h-113l123 144h104l120 -144h-114z" />
    <glyph glyph-name="Edieresis" unicode="&#xcb;" horiz-adv-x="602" 
d="M495 -30h-421v746h472v-34c0 -38 -10 -61 -64 -61h-291v-210h324v-36c0 -32 -10 -58 -63 -58h-261v-253h367v-36c0 -32 -11 -58 -63 -58zM472 900v-119h-121v119h121zM277 900v-119h-121v119h121z" />
    <glyph glyph-name="Egrave" unicode="&#xc8;" horiz-adv-x="602" 
d="M495 -30h-421v746h472v-34c0 -38 -10 -61 -64 -61h-291v-210h324v-36c0 -32 -10 -58 -63 -58h-261v-253h367v-36c0 -32 -11 -58 -63 -58zM196 930h122l86 -146h-49c-34 0 -51 8 -68 31z" />
    <glyph glyph-name="Iacute" unicode="&#xcd;" horiz-adv-x="282" 
d="M84 716h118v-746h-55c-45 0 -63 16 -63 61v685zM123 930h122l-91 -115c-19 -22 -34 -31 -68 -31h-49z" />
    <glyph glyph-name="Icircumflex" unicode="&#xce;" horiz-adv-x="282" 
d="M84 716h118v-746h-55c-45 0 -63 16 -63 61v685zM143 861l-62 -80h-113l123 144h104l120 -144h-114z" />
    <glyph glyph-name="Idieresis" unicode="&#xcf;" horiz-adv-x="282" 
d="M84 716h118v-746h-55c-45 0 -63 16 -63 61v685zM299 900v-119h-121v119h121zM104 900v-119h-121v119h121z" />
    <glyph glyph-name="Igrave" unicode="&#xcc;" horiz-adv-x="282" 
d="M84 716h118v-746h-55c-45 0 -63 16 -63 61v685zM32 930h122l86 -146h-49c-34 0 -51 8 -68 31z" />
    <glyph glyph-name="Ntilde" unicode="&#xd1;" horiz-adv-x="677" 
d="M74 31v685h312c143 0 216 -40 216 -199v-547h-53c-44 0 -64 16 -64 61v487c0 80 -25 103 -99 103h-195v-651h-54c-45 0 -63 16 -63 61zM263 910c33 0 64 -15 87 -27c18 -9 37 -20 51 -20c25 0 35 18 35 47h92c0 -81 -48 -134 -122 -134c-37 0 -62 15 -87 28
c-16 8 -33 20 -51 20c-21 0 -38 -15 -39 -49h-91c0 86 53 135 125 135z" />
    <glyph glyph-name="Oacute" unicode="&#xd3;" horiz-adv-x="702" 
d="M350 730c200 0 291 -112 291 -312v-151c0 -199 -91 -311 -291 -311c-197 0 -291 112 -291 312v150c0 200 94 312 291 312zM524 268v151c0 61 -11 117 -39 153c-28 37 -63 59 -135 59c-71 0 -107 -21 -136 -61c-28 -40 -38 -89 -38 -152v-151c0 -144 58 -214 174 -211
c116 -3 174 67 174 212zM327 930h122l-91 -115c-19 -22 -34 -31 -68 -31h-49z" />
    <glyph glyph-name="Ocircumflex" unicode="&#xd4;" horiz-adv-x="702" 
d="M350 730c200 0 291 -112 291 -312v-151c0 -199 -91 -311 -291 -311c-197 0 -291 112 -291 312v150c0 200 94 312 291 312zM524 268v151c0 61 -11 117 -39 153c-28 37 -63 59 -135 59c-71 0 -107 -21 -136 -61c-28 -40 -38 -89 -38 -152v-151c0 -144 58 -214 174 -211
c116 -3 174 67 174 212zM347 861l-62 -80h-113l123 144h104l120 -144h-114z" />
    <glyph glyph-name="Odieresis" unicode="&#xd6;" horiz-adv-x="702" 
d="M350 730c200 0 291 -112 291 -312v-151c0 -199 -91 -311 -291 -311c-197 0 -291 112 -291 312v150c0 200 94 312 291 312zM524 268v151c0 61 -11 117 -39 153c-28 37 -63 59 -135 59c-71 0 -107 -21 -136 -61c-28 -40 -38 -89 -38 -152v-151c0 -144 58 -214 174 -211
c116 -3 174 67 174 212zM513 900v-119h-121v119h121zM318 900v-119h-121v119h121z" />
    <glyph glyph-name="Ograve" unicode="&#xd2;" horiz-adv-x="702" 
d="M350 730c200 0 291 -112 291 -312v-151c0 -199 -91 -311 -291 -311c-197 0 -291 112 -291 312v150c0 200 94 312 291 312zM524 268v151c0 61 -11 117 -39 153c-28 37 -63 59 -135 59c-71 0 -107 -21 -136 -61c-28 -40 -38 -89 -38 -152v-151c0 -144 58 -214 174 -211
c116 -3 174 67 174 212zM236 930h122l86 -146h-49c-34 0 -51 8 -68 31z" />
    <glyph glyph-name="Otilde" unicode="&#xd5;" horiz-adv-x="702" 
d="M350 730c200 0 291 -112 291 -312v-151c0 -199 -91 -311 -291 -311c-197 0 -291 112 -291 312v150c0 200 94 312 291 312zM524 268v151c0 61 -11 117 -39 153c-28 37 -63 59 -135 59c-71 0 -107 -21 -136 -61c-28 -40 -38 -89 -38 -152v-151c0 -144 58 -214 174 -211
c116 -3 174 67 174 212zM272 910c33 0 64 -15 87 -27c18 -9 37 -20 51 -20c25 0 35 18 35 47h92c0 -81 -48 -134 -122 -134c-37 0 -62 15 -87 28c-16 8 -33 20 -51 20c-21 0 -38 -15 -39 -49h-91c0 86 53 135 125 135z" />
    <glyph glyph-name="Scaron" unicode="&#x160;" horiz-adv-x="578" 
d="M280 -30h-240v39c0 38 16 55 68 55h169c90 0 138 35 138 101c0 47 -28 81 -105 115l-126 56c-97 43 -136 109 -136 193c0 111 73 187 237 187h224v-41c0 -44 -22 -54 -70 -54h-154c-62 0 -119 -20 -119 -92c0 -52 28 -83 85 -109l120 -54c125 -56 162 -111 162 -200
c0 -155 -133 -196 -253 -196zM233 925l62 -80l58 80h114l-120 -144h-104l-123 144h113z" />
    <glyph glyph-name="Uacute" unicode="&#xda;" horiz-adv-x="684" 
d="M603 716v-746h-312c-143 0 -216 40 -216 199v547h117v-548c0 -80 25 -104 99 -104h195v652h117zM329 930h122l-91 -115c-19 -22 -34 -31 -68 -31h-49z" />
    <glyph glyph-name="Ucircumflex" unicode="&#xdb;" horiz-adv-x="684" 
d="M603 716v-746h-312c-143 0 -216 40 -216 199v547h117v-548c0 -80 25 -104 99 -104h195v652h117zM349 861l-62 -80h-113l123 144h104l120 -144h-114z" />
    <glyph glyph-name="Udieresis" unicode="&#xdc;" horiz-adv-x="684" 
d="M603 716v-746h-312c-143 0 -216 40 -216 199v547h117v-548c0 -80 25 -104 99 -104h195v652h117zM514 900v-119h-121v119h121zM319 900v-119h-121v119h121z" />
    <glyph glyph-name="Ugrave" unicode="&#xd9;" horiz-adv-x="684" 
d="M603 716v-746h-312c-143 0 -216 40 -216 199v547h117v-548c0 -80 25 -104 99 -104h195v652h117zM238 930h122l86 -146h-49c-34 0 -51 8 -68 31z" />
    <glyph glyph-name="Yacute" unicode="&#xdd;" horiz-adv-x="683" 
d="M396 267v-297h-52c-45 0 -65 15 -65 61v234l-263 451h128l196 -339l197 339h128zM328 930h122l-91 -115c-19 -22 -34 -31 -68 -31h-49z" />
    <glyph glyph-name="Ydieresis" unicode="&#x178;" horiz-adv-x="683" 
d="M396 267v-297h-52c-45 0 -65 15 -65 61v234l-263 451h128l196 -339l197 339h128zM499 900v-119h-121v119h121zM304 900v-119h-121v119h121z" />
    <glyph glyph-name="Zcaron" unicode="&#x17d;" horiz-adv-x="626" 
d="M45 716h526v-89l-404 -563h421v-57c0 -28 -16 -37 -43 -37h-512v92l403 559h-391v95zM255 925l62 -80l58 80h114l-120 -144h-104l-123 144h113z" />
    <glyph glyph-name="aacute" unicode="&#xe1;" horiz-adv-x="544" 
d="M479 366v-396h-239c-114 0 -185 51 -185 150v61c0 114 71 163 185 160c49 -1 82 -3 123 -8v33c0 37 -21 61 -67 61h-130c-62 0 -72 23 -72 54v39h202c127 0 183 -54 183 -154zM241 243c-48 0 -70 -18 -70 -66v-53c0 -49 40 -60 70 -60h122v172c-46 5 -87 7 -122 7z
M253 730h122l-91 -115c-19 -22 -34 -31 -68 -31h-49z" />
    <glyph glyph-name="acircumflex" unicode="&#xe2;" horiz-adv-x="544" 
d="M479 366v-396h-239c-114 0 -185 51 -185 150v61c0 114 71 163 185 160c49 -1 82 -3 123 -8v33c0 37 -21 61 -67 61h-130c-62 0 -72 23 -72 54v39h202c127 0 183 -54 183 -154zM241 243c-48 0 -70 -18 -70 -66v-53c0 -49 40 -60 70 -60h122v172c-46 5 -87 7 -122 7z
M273 661l-62 -80h-113l123 144h104l120 -144h-114z" />
    <glyph glyph-name="adieresis" unicode="&#xe4;" horiz-adv-x="544" 
d="M479 366v-396h-239c-114 0 -185 51 -185 150v61c0 114 71 163 185 160c49 -1 82 -3 123 -8v33c0 37 -21 61 -67 61h-130c-62 0 -72 23 -72 54v39h202c127 0 183 -54 183 -154zM241 243c-48 0 -70 -18 -70 -66v-53c0 -49 40 -60 70 -60h122v172c-46 5 -87 7 -122 7z
M439 700v-119h-121v119h121zM244 700v-119h-121v119h121z" />
    <glyph glyph-name="agrave" unicode="&#xe0;" horiz-adv-x="544" 
d="M479 366v-396h-239c-114 0 -185 51 -185 150v61c0 114 71 163 185 160c49 -1 82 -3 123 -8v33c0 37 -21 61 -67 61h-130c-62 0 -72 23 -72 54v39h202c127 0 183 -54 183 -154zM241 243c-48 0 -70 -18 -70 -66v-53c0 -49 40 -60 70 -60h122v172c-46 5 -87 7 -122 7z
M162 730h122l86 -146h-49c-34 0 -51 8 -68 31z" />
    <glyph glyph-name="aring" unicode="&#xe5;" horiz-adv-x="544" 
d="M479 366v-396h-239c-114 0 -185 51 -185 150v61c0 114 71 163 185 160c49 -1 82 -3 123 -8v33c0 37 -21 61 -67 61h-130c-62 0 -72 23 -72 54v39h202c127 0 183 -54 183 -154zM241 243c-48 0 -70 -18 -70 -66v-53c0 -49 40 -60 70 -60h122v172c-46 5 -87 7 -122 7z
M227 676c0 -24 19 -41 41 -41c23 0 42 17 42 41c0 23 -19 42 -42 42c-22 0 -41 -19 -41 -42zM154 676c0 65 50 110 114 110c66 0 115 -45 115 -110s-49 -110 -115 -110c-64 0 -114 45 -114 110z" />
    <glyph glyph-name="atilde" unicode="&#xe3;" horiz-adv-x="544" 
d="M479 366v-396h-239c-114 0 -185 51 -185 150v61c0 114 71 163 185 160c49 -1 82 -3 123 -8v33c0 37 -21 61 -67 61h-130c-62 0 -72 23 -72 54v39h202c127 0 183 -54 183 -154zM241 243c-48 0 -70 -18 -70 -66v-53c0 -49 40 -60 70 -60h122v172c-46 5 -87 7 -122 7z
M198 710c33 0 64 -15 87 -27c18 -9 37 -20 51 -20c25 0 35 18 35 47h92c0 -81 -48 -134 -122 -134c-37 0 -62 15 -87 28c-16 8 -33 20 -51 20c-21 0 -38 -15 -39 -49h-91c0 86 53 135 125 135z" />
    <glyph glyph-name="ccedilla" unicode="&#xe7;" horiz-adv-x="505" 
d="M269 64h196v-37c0 -31 -8 -57 -72 -57h-33l-13 -42c53 -10 71 -35 71 -71c0 -60 -52 -96 -149 -96c-27 0 -55 4 -81 11l12 68c26 -5 54 -6 63 -6c42 0 54 10 54 27c0 12 -8 26 -77 26l25 83c-119 2 -203 69 -203 186v176c0 117 86 188 207 188h191v-34
c0 -32 -6 -59 -69 -59h-122c-59 0 -91 -33 -91 -95v-175c0 -56 32 -93 91 -93z" />
    <glyph glyph-name="eacute" unicode="&#xe9;" horiz-adv-x="549" 
d="M250 64h224v-40c0 -32 -8 -54 -71 -54h-153c-118 0 -195 69 -195 179v186c0 142 100 199 217 199c128 0 221 -64 221 -180v-72c0 -48 -28 -84 -87 -84h-235v-49c0 -54 36 -85 79 -85zM171 354v-62h190c9 0 17 8 17 20v42c0 52 -37 86 -106 86c-61 0 -101 -34 -101 -86z
M267 730h122l-91 -115c-19 -22 -34 -31 -68 -31h-49z" />
    <glyph glyph-name="ecircumflex" unicode="&#xea;" horiz-adv-x="549" 
d="M250 64h224v-40c0 -32 -8 -54 -71 -54h-153c-118 0 -195 69 -195 179v186c0 142 100 199 217 199c128 0 221 -64 221 -180v-72c0 -48 -28 -84 -87 -84h-235v-49c0 -54 36 -85 79 -85zM171 354v-62h190c9 0 17 8 17 20v42c0 52 -37 86 -106 86c-61 0 -101 -34 -101 -86z
M277 661l-62 -80h-113l123 144h104l120 -144h-114z" />
    <glyph glyph-name="edieresis" unicode="&#xeb;" horiz-adv-x="549" 
d="M250 64h224v-40c0 -32 -8 -54 -71 -54h-153c-118 0 -195 69 -195 179v186c0 142 100 199 217 199c128 0 221 -64 221 -180v-72c0 -48 -28 -84 -87 -84h-235v-49c0 -54 36 -85 79 -85zM171 354v-62h190c9 0 17 8 17 20v42c0 52 -37 86 -106 86c-61 0 -101 -34 -101 -86z
M443 700v-119h-121v119h121zM248 700v-119h-121v119h121z" />
    <glyph glyph-name="egrave" unicode="&#xe8;" horiz-adv-x="549" 
d="M250 64h224v-40c0 -32 -8 -54 -71 -54h-153c-118 0 -195 69 -195 179v186c0 142 100 199 217 199c128 0 221 -64 221 -180v-72c0 -48 -28 -84 -87 -84h-235v-49c0 -54 36 -85 79 -85zM171 354v-62h190c9 0 17 8 17 20v42c0 52 -37 86 -106 86c-61 0 -101 -34 -101 -86z
M166 730h122l86 -146h-49c-34 0 -51 8 -68 31z" />
    <glyph glyph-name="iacute" unicode="&#xed;" horiz-adv-x="257" 
d="M105 730h122l-91 -115c-19 -22 -34 -31 -68 -31h-49zM69 520h116v-550h-52c-46 0 -64 16 -64 62v488z" />
    <glyph glyph-name="icircumflex" unicode="&#xee;" horiz-adv-x="257" 
d="M130 661l-62 -80h-113l123 144h104l120 -144h-114zM69 520h116v-550h-52c-46 0 -64 16 -64 62v488z" />
    <glyph glyph-name="idieresis" unicode="&#xef;" horiz-adv-x="257" 
d="M287 700v-119h-121v119h121zM92 700v-119h-121v119h121zM69 520h116v-550h-52c-46 0 -64 16 -64 62v488z" />
    <glyph glyph-name="igrave" unicode="&#xec;" horiz-adv-x="257" 
d="M19 730h122l86 -146h-49c-34 0 -51 8 -68 31zM69 520h116v-550h-52c-46 0 -64 16 -64 62v488z" />
    <glyph glyph-name="ntilde" unicode="&#xf1;" horiz-adv-x="571" 
d="M70 520h241c142 0 190 -49 190 -175v-375h-53c-44 0 -63 16 -63 62v313c0 64 -19 82 -74 82h-125v-457h-51c-46 0 -65 16 -65 62v488zM200 710c33 0 64 -15 87 -27c18 -9 37 -20 51 -20c25 0 35 18 35 47h92c0 -81 -48 -134 -122 -134c-37 0 -62 15 -87 28
c-16 8 -33 20 -51 20c-21 0 -38 -15 -39 -49h-91c0 86 53 135 125 135z" />
    <glyph glyph-name="oacute" unicode="&#xf3;" horiz-adv-x="574" 
d="M286 534c147 0 226 -67 226 -219v-139c0 -152 -77 -220 -226 -220c-145 0 -226 65 -226 220v139c0 152 81 219 226 219zM396 176v139c0 77 -20 125 -110 125c-73 0 -110 -33 -110 -120v-144c0 -89 37 -127 110 -127s110 34 110 127zM260 730h122l-91 -115
c-19 -22 -34 -31 -68 -31h-49z" />
    <glyph glyph-name="ocircumflex" unicode="&#xf4;" horiz-adv-x="574" 
d="M286 534c147 0 226 -67 226 -219v-139c0 -152 -77 -220 -226 -220c-145 0 -226 65 -226 220v139c0 152 81 219 226 219zM396 176v139c0 77 -20 125 -110 125c-73 0 -110 -33 -110 -120v-144c0 -89 37 -127 110 -127s110 34 110 127zM288 661l-62 -80h-113l123 144h104
l120 -144h-114z" />
    <glyph glyph-name="odieresis" unicode="&#xf6;" horiz-adv-x="574" 
d="M286 534c147 0 226 -67 226 -219v-139c0 -152 -77 -220 -226 -220c-145 0 -226 65 -226 220v139c0 152 81 219 226 219zM396 176v139c0 77 -20 125 -110 125c-73 0 -110 -33 -110 -120v-144c0 -89 37 -127 110 -127s110 34 110 127zM446 700v-119h-121v119h121zM251 700
v-119h-121v119h121z" />
    <glyph glyph-name="ograve" unicode="&#xf2;" horiz-adv-x="574" 
d="M286 534c147 0 226 -67 226 -219v-139c0 -152 -77 -220 -226 -220c-145 0 -226 65 -226 220v139c0 152 81 219 226 219zM396 176v139c0 77 -20 125 -110 125c-73 0 -110 -33 -110 -120v-144c0 -89 37 -127 110 -127s110 34 110 127zM169 730h122l86 -146h-49
c-34 0 -51 8 -68 31z" />
    <glyph glyph-name="otilde" unicode="&#xf5;" horiz-adv-x="574" 
d="M286 534c147 0 226 -67 226 -219v-139c0 -152 -77 -220 -226 -220c-145 0 -226 65 -226 220v139c0 152 81 219 226 219zM396 176v139c0 77 -20 125 -110 125c-73 0 -110 -33 -110 -120v-144c0 -89 37 -127 110 -127s110 34 110 127zM215 710c33 0 64 -15 87 -27
c18 -9 37 -20 51 -20c25 0 35 18 35 47h92c0 -81 -48 -134 -122 -134c-37 0 -62 15 -87 28c-16 8 -33 20 -51 20c-21 0 -38 -15 -39 -49h-91c0 86 53 135 125 135z" />
    <glyph glyph-name="scaron" unicode="&#x161;" horiz-adv-x="474" 
d="M232 520h176v-40c0 -38 -22 -53 -72 -53h-104c-49 0 -68 -27 -68 -58c0 -25 13 -49 49 -60l92 -30c94 -29 128 -81 128 -152c0 -100 -74 -157 -193 -157h-189v37c0 38 21 57 68 57h121c45 0 77 20 77 63c0 29 -13 50 -47 61l-88 29c-89 30 -134 73 -134 152
c0 70 54 151 184 151zM182 725l62 -80l58 80h114l-120 -144h-104l-123 144h113z" />
    <glyph glyph-name="uacute" unicode="&#xfa;" horiz-adv-x="562" 
d="M493 -30h-223c-141 0 -205 49 -205 200v350h115v-350c0 -88 24 -106 90 -106h107v456h116v-550zM260 730h122l-91 -115c-19 -22 -34 -31 -68 -31h-49z" />
    <glyph glyph-name="ucircumflex" unicode="&#xfb;" horiz-adv-x="562" 
d="M493 -30h-223c-141 0 -205 49 -205 200v350h115v-350c0 -88 24 -106 90 -106h107v456h116v-550zM280 661l-62 -80h-113l123 144h104l120 -144h-114z" />
    <glyph glyph-name="udieresis" unicode="&#xfc;" horiz-adv-x="562" 
d="M493 -30h-223c-141 0 -205 49 -205 200v350h115v-350c0 -88 24 -106 90 -106h107v456h116v-550zM439 700v-119h-121v119h121zM244 700v-119h-121v119h121z" />
    <glyph glyph-name="ugrave" unicode="&#xf9;" horiz-adv-x="562" 
d="M493 -30h-223c-141 0 -205 49 -205 200v350h115v-350c0 -88 24 -106 90 -106h107v456h116v-550zM169 730h122l86 -146h-49c-34 0 -51 8 -68 31z" />
    <glyph glyph-name="yacute" unicode="&#xfd;" horiz-adv-x="562" 
d="M317 -239h-228v40c0 42 18 58 70 58h158c46 0 60 21 60 54v65c-44 -4 -83 -6 -137 -8c-122 -4 -176 65 -176 179v371h116v-370c0 -57 14 -86 63 -85c51 1 91 5 134 9v446h116v-608c0 -85 -51 -151 -176 -151zM251 730h122l-91 -115c-19 -22 -34 -31 -68 -31h-49z" />
    <glyph glyph-name="ydieresis" unicode="&#xff;" horiz-adv-x="562" 
d="M317 -239h-228v40c0 42 18 58 70 58h158c46 0 60 21 60 54v65c-44 -4 -83 -6 -137 -8c-122 -4 -176 65 -176 179v371h116v-370c0 -57 14 -86 63 -85c51 1 91 5 134 9v446h116v-608c0 -85 -51 -151 -176 -151zM436 700v-119h-121v119h121zM241 700v-119h-121v119h121z" />
    <glyph glyph-name="zcaron" unicode="&#x17e;" horiz-adv-x="505" 
d="M167 64h295v-52c0 -27 -15 -42 -46 -42h-380v88l282 369h-269v93h401v-88zM190 725l62 -80l58 80h114l-120 -144h-104l-123 144h113z" />
    <glyph glyph-name="twodotenleader" unicode="&#x2025;" horiz-adv-x="546" 
d="M73 418h126v-127h-126v127zM346 418h126v-127h-126v127z" />
    <glyph glyph-name="oneeighth" unicode="&#x215b;" horiz-adv-x="800" 
d="M80 -44l443 760h114l-444 -760h-113zM220 678v-365h-46c-34 0 -48 15 -48 49v274h-59v80h111c29 0 42 -14 42 -38zM606 214c28 0 47 16 47 44c0 27 -24 42 -46 42c-26 0 -43 -16 -43 -42c0 -28 16 -44 42 -44zM606 133c-36 0 -52 -24 -52 -56c0 -29 21 -53 53 -53
c39 0 54 30 54 52c0 33 -15 57 -55 57zM607 -48c-83 0 -137 37 -137 120c0 48 11 82 42 104c-19 21 -33 50 -33 82c0 82 55 114 127 114c74 0 131 -33 131 -114c0 -32 -11 -63 -35 -83c30 -16 42 -59 42 -100c0 -73 -40 -123 -137 -123z" />
    <glyph glyph-name="threeeighths" unicode="&#x215c;" horiz-adv-x="800" 
d="M120 -44l443 760h114l-444 -760h-113zM616 214c28 0 47 16 47 44c0 27 -24 42 -46 42c-26 0 -43 -16 -43 -42c0 -28 16 -44 42 -44zM616 133c-36 0 -52 -24 -52 -56c0 -29 21 -53 53 -53c39 0 54 30 54 52c0 33 -15 57 -55 57zM617 -48c-83 0 -137 37 -137 120
c0 48 11 82 42 104c-19 21 -33 50 -33 82c0 82 55 114 127 114c74 0 131 -33 131 -114c0 -32 -11 -63 -35 -83c30 -16 42 -59 42 -100c0 -73 -40 -123 -137 -123zM171 730c76 0 143 -32 142 -118c-1 -34 -23 -71 -45 -83c33 -16 53 -53 53 -90c0 -98 -61 -135 -155 -133
c-34 1 -57 2 -111 11v35c0 28 17 45 52 40c16 -2 40 -4 59 -4c38 0 61 9 61 48c0 35 -23 48 -57 48h-56c-27 0 -37 8 -37 34v47h93c32 0 48 13 48 48c0 23 -19 35 -48 35c-32 0 -66 -6 -108 -13l-2 79c39 9 72 16 111 16z" />
    <glyph glyph-name="fiveeighths" unicode="&#x215d;" horiz-adv-x="800" 
d="M171 485h-114v231h243v-41c0 -30 -8 -37 -43 -37h-109v-76h26c103 0 136 -50 136 -129c0 -96 -50 -146 -151 -146c-22 0 -63 4 -106 11v33c0 31 23 37 50 37c16 0 33 -4 52 -4c44 -1 64 25 64 69c0 24 -7 52 -48 52zM677 716l-444 -760h-113l443 760h114zM616 214
c28 0 47 16 47 44c0 27 -24 42 -46 42c-26 0 -43 -16 -43 -42c0 -28 16 -44 42 -44zM616 133c-36 0 -52 -24 -52 -56c0 -29 21 -53 53 -53c39 0 54 30 54 52c0 33 -15 57 -55 57zM617 -48c-83 0 -137 37 -137 120c0 48 11 82 42 104c-19 21 -33 50 -33 82
c0 82 55 114 127 114c74 0 131 -33 131 -114c0 -32 -11 -63 -35 -83c30 -16 42 -59 42 -100c0 -73 -40 -123 -137 -123z" />
    <glyph glyph-name="seveneighths" unicode="&#x215e;" horiz-adv-x="800" 
d="M359 681v-21c0 -13 -3 -23 -8 -36l-119 -314c-5 -14 -16 -29 -42 -29h-64l135 352h-173v82h232c21 0 39 -6 39 -34zM130 -44l443 760h114l-444 -760h-113zM656 214c28 0 47 16 47 44c0 27 -24 42 -46 42c-26 0 -43 -16 -43 -42c0 -28 16 -44 42 -44zM656 133
c-36 0 -52 -24 -52 -56c0 -29 21 -53 53 -53c39 0 54 30 54 52c0 33 -15 57 -55 57zM657 -48c-83 0 -137 37 -137 120c0 48 11 82 42 104c-19 21 -33 50 -33 82c0 82 55 114 127 114c74 0 131 -33 131 -114c0 -32 -11 -63 -35 -83c30 -16 42 -59 42 -100
c0 -73 -40 -123 -137 -123z" />
    <glyph glyph-name="onethird" unicode="&#x2153;" horiz-adv-x="800" 
d="M80 -44l443 760h114l-444 -760h-113zM599 375c76 0 143 -32 142 -118c-1 -34 -23 -71 -45 -83c33 -16 53 -53 53 -90c0 -98 -61 -135 -155 -133c-34 1 -57 2 -111 11v35c0 28 17 45 52 40c16 -2 40 -4 59 -4c38 0 61 9 61 48c0 35 -23 48 -57 48h-56c-27 0 -37 8 -37 34
v47h93c32 0 48 13 48 48c0 23 -19 35 -48 35c-32 0 -66 -6 -108 -13l-2 79c39 9 72 16 111 16zM220 678v-365h-46c-34 0 -48 15 -48 49v274h-59v80h111c29 0 42 -14 42 -38z" />
    <glyph glyph-name="twothirds" unicode="&#x2154;" horiz-adv-x="800" 
d="M121 -44l443 760h114l-444 -760h-113zM609 375c76 0 143 -32 142 -118c-1 -34 -23 -71 -45 -83c33 -16 53 -53 53 -90c0 -98 -61 -135 -155 -133c-34 1 -57 2 -111 11v35c0 28 17 45 52 40c16 -2 40 -4 59 -4c38 0 61 9 61 48c0 35 -23 48 -57 48h-56c-27 0 -37 8 -37 34
v47h93c32 0 48 13 48 48c0 23 -19 35 -48 35c-32 0 -66 -6 -108 -13l-2 79c39 9 72 16 111 16zM269 311h-156c-42 0 -57 10 -57 51v44c0 34 18 61 41 78l99 72c18 14 25 30 25 50c0 23 -22 39 -55 39c-24 0 -50 -4 -104 -15l-2 81c37 9 68 15 108 15c78 0 146 -41 146 -119
c0 -47 -23 -84 -58 -111l-98 -72c-6 -5 -9 -14 -9 -25v-8h168v-36c0 -25 -9 -44 -48 -44z" />
    <glyph glyph-name="uni00A0" unicode="&#xa0;" horiz-adv-x="300" 
 />
    <glyph glyph-name="uni00AD" unicode="&#xad;" horiz-adv-x="333" 
d="M17 412h299v-95h-299v95z" />
    <glyph glyph-name="uni00B2" unicode="&#xb2;" horiz-adv-x="333" 
d="M249 315h-156c-42 0 -57 10 -57 51v44c0 34 18 61 41 78l99 72c18 14 25 30 25 50c0 23 -22 39 -55 39c-24 0 -52 -4 -106 -15v81c37 9 68 15 108 15c78 0 146 -41 146 -119c0 -47 -23 -84 -58 -111l-98 -72c-6 -5 -9 -14 -9 -25v-8h168v-36c0 -25 -9 -44 -48 -44z" />
    <glyph glyph-name="uni00B3" unicode="&#xb3;" horiz-adv-x="333" 
d="M149 730c76 0 143 -32 142 -118c-1 -34 -23 -71 -45 -83c33 -16 53 -53 53 -90c0 -98 -61 -135 -155 -133c-34 1 -57 2 -111 11v35c0 28 17 45 52 40c16 -2 40 -4 59 -4c38 0 61 9 61 48c0 35 -23 48 -57 48h-56c-27 0 -37 8 -37 34v47h93c32 0 48 13 48 48
c0 23 -19 35 -48 35c-32 0 -66 -6 -108 -13l-2 79c39 9 72 16 111 16z" />
    <glyph glyph-name="uni00B9" unicode="&#xb9;" horiz-adv-x="333" 
d="M243 678v-365h-46c-34 0 -48 15 -48 49v274h-59v80h111c29 0 42 -14 42 -38z" />
    <glyph glyph-name="Amacron" unicode="&#x100;" horiz-adv-x="668" 
d="M533 -30l-80 249c-17 -19 -48 -35 -85 -35h-163l-68 -214h-120l250 746h90c27 0 50 -19 57 -41l238 -705h-119zM334 584l-98 -303h195zM163 886h332v-87h-332v87z" />
    <glyph glyph-name="amacron" unicode="&#x101;" horiz-adv-x="544" 
d="M479 366v-396h-239c-114 0 -185 51 -185 150v61c0 114 71 163 185 160c49 -1 82 -3 123 -8v33c0 37 -21 61 -67 61h-130c-62 0 -72 23 -72 54v39h202c127 0 183 -54 183 -154zM241 243c-48 0 -70 -18 -70 -66v-53c0 -49 40 -60 70 -60h122v172c-46 5 -87 7 -122 7z
M101 686h332v-87h-332v87z" />
    <glyph glyph-name="Abreve" unicode="&#x102;" horiz-adv-x="668" 
d="M533 -30l-80 249c-17 -19 -48 -35 -85 -35h-163l-68 -214h-120l250 746h90c27 0 50 -19 57 -41l238 -705h-119zM334 584l-98 -303h195zM173 916h92c3 -48 37 -60 65 -60c26 0 62 11 64 60h92c-3 -88 -61 -140 -159 -140c-92 0 -152 52 -154 140z" />
    <glyph glyph-name="abreve" unicode="&#x103;" horiz-adv-x="544" 
d="M479 366v-396h-239c-114 0 -185 51 -185 150v61c0 114 71 163 185 160c49 -1 82 -3 123 -8v33c0 37 -21 61 -67 61h-130c-62 0 -72 23 -72 54v39h202c127 0 183 -54 183 -154zM241 243c-48 0 -70 -18 -70 -66v-53c0 -49 40 -60 70 -60h122v172c-46 5 -87 7 -122 7z
M111 716h92c3 -48 37 -60 65 -60c26 0 62 11 64 60h92c-3 -88 -61 -140 -159 -140c-92 0 -152 52 -154 140z" />
    <glyph glyph-name="Aogonek" unicode="&#x104;" horiz-adv-x="668" 
d="M533 -29l-80 248c-17 -19 -48 -35 -85 -35h-163l-68 -214h-120l250 746h90c27 0 50 -19 57 -41l238 -705h-29c-26 -25 -46 -59 -46 -87c0 -22 12 -39 38 -39c12 0 34 0 55 10v-78c-29 -14 -57 -15 -78 -15c-72 0 -108 45 -108 98c0 37 19 81 49 112zM334 584l-98 -303
h195z" />
    <glyph glyph-name="aogonek" unicode="&#x105;" horiz-adv-x="544" 
d="M479 366v-396h-29c-26 -25 -46 -59 -46 -87c0 -22 12 -39 38 -39c12 0 34 0 55 10v-78c-29 -14 -57 -15 -78 -15c-72 0 -108 45 -108 98c0 37 18 80 48 111h-119c-114 0 -185 51 -185 150v61c0 114 71 163 185 160c49 -1 82 -3 123 -8v33c0 37 -21 61 -67 61h-130
c-62 0 -72 23 -72 54v39h202c127 0 183 -54 183 -154zM241 243c-48 0 -70 -18 -70 -66v-53c0 -49 40 -60 70 -60h122v172c-46 5 -87 7 -122 7z" />
    <glyph glyph-name="Cacute" unicode="&#x106;" horiz-adv-x="583" 
d="M547 64v-37c0 -30 -12 -57 -75 -57h-205c-119 0 -206 78 -206 196v357c0 119 84 193 229 193h247v-36c0 -33 -10 -59 -74 -59h-170c-77 0 -115 -38 -115 -111v-337c0 -57 31 -109 93 -109h276zM310 930h122l-91 -115c-19 -22 -34 -31 -68 -31h-49z" />
    <glyph glyph-name="cacute" unicode="&#x107;" horiz-adv-x="505" 
d="M269 64h196v-37c0 -31 -8 -57 -72 -57h-124c-121 0 -207 68 -207 186v176c0 117 86 188 207 188h191v-34c0 -32 -6 -59 -69 -59h-122c-59 0 -91 -33 -91 -95v-175c0 -56 32 -93 91 -93zM272 730h122l-91 -115c-19 -22 -34 -31 -68 -31h-49z" />
    <glyph glyph-name="Ccircumflex" unicode="&#x108;" horiz-adv-x="583" 
d="M547 64v-37c0 -30 -12 -57 -75 -57h-205c-119 0 -206 78 -206 196v357c0 119 84 193 229 193h247v-36c0 -33 -10 -59 -74 -59h-170c-77 0 -115 -38 -115 -111v-337c0 -57 31 -109 93 -109h276zM310 861l-62 -80h-113l123 144h104l120 -144h-114z" />
    <glyph glyph-name="ccircumflex" unicode="&#x109;" horiz-adv-x="505" 
d="M269 64h196v-37c0 -31 -8 -57 -72 -57h-124c-121 0 -207 68 -207 186v176c0 117 86 188 207 188h191v-34c0 -32 -6 -59 -69 -59h-122c-59 0 -91 -33 -91 -95v-175c0 -56 32 -93 91 -93zM272 661l-62 -80h-113l123 144h104l120 -144h-114z" />
    <glyph glyph-name="Cdotaccent" unicode="&#x10a;" horiz-adv-x="583" 
d="M547 64v-37c0 -30 -12 -57 -75 -57h-205c-119 0 -206 78 -206 196v357c0 119 84 193 229 193h247v-36c0 -33 -10 -59 -74 -59h-170c-77 0 -115 -38 -115 -111v-337c0 -57 31 -109 93 -109h276zM375 900v-115h-118v115h118z" />
    <glyph glyph-name="cdotaccent" unicode="&#x10b;" horiz-adv-x="505" 
d="M269 64h196v-37c0 -31 -8 -57 -72 -57h-124c-121 0 -207 68 -207 186v176c0 117 86 188 207 188h191v-34c0 -32 -6 -59 -69 -59h-122c-59 0 -91 -33 -91 -95v-175c0 -56 32 -93 91 -93zM337 700v-115h-118v115h118z" />
    <glyph glyph-name="Ccaron" unicode="&#x10c;" horiz-adv-x="583" 
d="M547 64v-37c0 -30 -12 -57 -75 -57h-205c-119 0 -206 78 -206 196v357c0 119 84 193 229 193h247v-36c0 -33 -10 -59 -74 -59h-170c-77 0 -115 -38 -115 -111v-337c0 -57 31 -109 93 -109h276zM268 925l62 -80l58 80h114l-120 -144h-104l-123 144h113z" />
    <glyph glyph-name="ccaron" unicode="&#x10d;" horiz-adv-x="505" 
d="M269 64h196v-37c0 -31 -8 -57 -72 -57h-124c-121 0 -207 68 -207 186v176c0 117 86 188 207 188h191v-34c0 -32 -6 -59 -69 -59h-122c-59 0 -91 -33 -91 -95v-175c0 -56 32 -93 91 -93zM230 725l62 -80l58 80h114l-120 -144h-104l-123 144h113z" />
    <glyph glyph-name="Dcaron" unicode="&#x10e;" horiz-adv-x="665" 
d="M74 716h276c172 0 252 -93 252 -216v-316c0 -123 -80 -214 -252 -214h-276v746zM350 621h-160v-557h160c84 0 136 46 136 120v316c0 79 -52 121 -136 121zM268 925l62 -80l58 80h114l-120 -144h-104l-123 144h113z" />
    <glyph glyph-name="dcaron" unicode="&#x10f;" horiz-adv-x="727" 
d="M578 475l-35 46c32 17 55 50 57 83h-55v126h138v-94c0 -69 -39 -134 -105 -161zM370 730h116v-751h-214c-135 0 -208 59 -208 179v193c0 118 73 178 208 178h98v201zM370 73v363h-99c-54 0 -91 -30 -91 -95v-174c0 -63 37 -94 92 -94h98z" />
    <glyph glyph-name="Dcroat" unicode="&#x110;" horiz-adv-x="726" 
d="M31 297v95h94v324h286c166 0 242 -89 242 -206v-336c0 -117 -76 -204 -242 -204h-286v327h-94zM411 621h-170v-229h164v-37c0 -31 -9 -58 -73 -58h-91v-233h170c78 0 126 42 126 110v336c0 73 -48 111 -126 111z" />
    <glyph glyph-name="dcroat" unicode="&#x111;" horiz-adv-x="596" 
d="M369 578h-154v92h154v60h116v-60h82v-35c0 -31 -9 -57 -73 -57h-9v-599h-214c-135 0 -208 59 -208 179v193c0 118 73 178 208 178h98v49zM271 73h98v363h-99c-54 0 -91 -30 -91 -95v-174c0 -63 37 -94 92 -94z" />
    <glyph glyph-name="Emacron" unicode="&#x112;" horiz-adv-x="602" 
d="M495 -30h-421v746h472v-34c0 -38 -10 -61 -64 -61h-291v-210h324v-36c0 -32 -10 -58 -63 -58h-261v-253h367v-36c0 -32 -11 -58 -63 -58zM135 886h332v-87h-332v87z" />
    <glyph glyph-name="emacron" unicode="&#x113;" horiz-adv-x="549" 
d="M250 64h224v-40c0 -32 -8 -54 -71 -54h-153c-118 0 -195 69 -195 179v186c0 142 100 199 217 199c128 0 221 -64 221 -180v-72c0 -48 -28 -84 -87 -84h-235v-49c0 -54 36 -85 79 -85zM171 354v-62h190c9 0 17 8 17 20v42c0 52 -37 86 -106 86c-61 0 -101 -34 -101 -86z
M105 686h332v-87h-332v87z" />
    <glyph glyph-name="Ebreve" unicode="&#x114;" horiz-adv-x="602" 
d="M495 -30h-421v746h472v-34c0 -38 -10 -61 -64 -61h-291v-210h324v-36c0 -32 -10 -58 -63 -58h-261v-253h367v-36c0 -32 -11 -58 -63 -58zM145 916h92c3 -48 37 -60 65 -60c26 0 62 11 64 60h92c-3 -88 -61 -140 -159 -140c-92 0 -152 52 -154 140z" />
    <glyph glyph-name="ebreve" unicode="&#x115;" horiz-adv-x="549" 
d="M250 64h224v-40c0 -32 -8 -54 -71 -54h-153c-118 0 -195 69 -195 179v186c0 142 100 199 217 199c128 0 221 -64 221 -180v-72c0 -48 -28 -84 -87 -84h-235v-49c0 -54 36 -85 79 -85zM171 354v-62h190c9 0 17 8 17 20v42c0 52 -37 86 -106 86c-61 0 -101 -34 -101 -86z
M115 716h92c3 -48 37 -60 65 -60c26 0 62 11 64 60h92c-3 -88 -61 -140 -159 -140c-92 0 -152 52 -154 140z" />
    <glyph glyph-name="Edotaccent" unicode="&#x116;" horiz-adv-x="602" 
d="M495 -30h-421v746h472v-34c0 -38 -10 -61 -64 -61h-291v-210h324v-36c0 -32 -10 -58 -63 -58h-261v-253h367v-36c0 -32 -11 -58 -63 -58zM364 900v-115h-118v115h118z" />
    <glyph glyph-name="edotaccent" unicode="&#x117;" horiz-adv-x="549" 
d="M250 64h224v-40c0 -32 -8 -54 -71 -54h-153c-118 0 -195 69 -195 179v186c0 142 100 199 217 199c128 0 221 -64 221 -180v-72c0 -48 -28 -84 -87 -84h-235v-49c0 -54 36 -85 79 -85zM171 354v-62h190c9 0 17 8 17 20v42c0 52 -37 86 -106 86c-61 0 -101 -34 -101 -86z
M334 700v-115h-118v115h118z" />
    <glyph glyph-name="Eogonek" unicode="&#x118;" horiz-adv-x="602" 
d="M397 -30h-323v746h472v-34c0 -38 -10 -61 -64 -61h-291v-210h324v-36c0 -32 -10 -58 -63 -58h-261v-253h367v-36c0 -32 -11 -58 -63 -58h-7c-26 -25 -46 -59 -46 -87c0 -22 12 -39 38 -39c12 0 34 0 55 10v-78c-29 -14 -57 -15 -78 -15c-72 0 -108 45 -108 98
c0 37 18 80 48 111z" />
    <glyph glyph-name="eogonek" unicode="&#x119;" horiz-adv-x="549" 
d="M250 64h224v-40c0 -31 -8 -52 -65 -54c-26 -25 -46 -59 -46 -87c0 -22 12 -39 38 -39c12 0 34 0 55 10v-78c-29 -14 -57 -15 -78 -15c-72 0 -108 45 -108 98c0 37 18 80 48 111h-68c-118 0 -195 69 -195 179v186c0 142 100 199 217 199c128 0 221 -64 221 -180v-72
c0 -48 -28 -84 -87 -84h-235v-49c0 -54 36 -85 79 -85zM171 354v-62h190c9 0 17 8 17 20v42c0 52 -37 86 -106 86c-61 0 -101 -34 -101 -86z" />
    <glyph glyph-name="Ecaron" unicode="&#x11a;" horiz-adv-x="602" 
d="M495 -30h-421v746h472v-34c0 -38 -10 -61 -64 -61h-291v-210h324v-36c0 -32 -10 -58 -63 -58h-261v-253h367v-36c0 -32 -11 -58 -63 -58zM245 925l62 -80l58 80h114l-120 -144h-104l-123 144h113z" />
    <glyph glyph-name="ecaron" unicode="&#x11b;" horiz-adv-x="549" 
d="M250 64h224v-40c0 -32 -8 -54 -71 -54h-153c-118 0 -195 69 -195 179v186c0 142 100 199 217 199c128 0 221 -64 221 -180v-72c0 -48 -28 -84 -87 -84h-235v-49c0 -54 36 -85 79 -85zM171 354v-62h190c9 0 17 8 17 20v42c0 52 -37 86 -106 86c-61 0 -101 -34 -101 -86z
M215 725l62 -80l58 80h114l-120 -144h-104l-123 144h113z" />
    <glyph glyph-name="Gcircumflex" unicode="&#x11c;" horiz-adv-x="672" 
d="M286 716h304v-35c0 -41 -17 -60 -71 -60h-233c-58 0 -102 -38 -102 -102v-350c0 -58 34 -105 102 -105h119c57 0 85 44 85 96v121c0 11 -6 20 -23 20h-80c-48 0 -69 11 -69 53v42h203c62 0 86 -28 86 -84v-152c0 -128 -83 -190 -201 -190h-120c-128 0 -219 66 -219 200
v349c0 126 97 197 219 197zM343 861l-62 -80h-113l123 144h104l120 -144h-114z" />
    <glyph glyph-name="gcircumflex" unicode="&#x11d;" horiz-adv-x="561" 
d="M174 -145h146c38 0 56 23 56 58v57h-116c-125 0 -200 62 -200 178v195c0 117 79 177 200 177h231v-609c0 -73 -37 -150 -168 -150h-217v40c0 38 21 54 68 54zM176 342v-194c0 -70 49 -84 84 -84h116v363h-116c-57 0 -84 -37 -84 -85zM287 661l-62 -80h-113l123 144h104
l120 -144h-114z" />
    <glyph glyph-name="Gbreve" unicode="&#x11e;" horiz-adv-x="672" 
d="M286 716h304v-35c0 -41 -17 -60 -71 -60h-233c-58 0 -102 -38 -102 -102v-350c0 -58 34 -105 102 -105h119c57 0 85 44 85 96v121c0 11 -6 20 -23 20h-80c-48 0 -69 11 -69 53v42h203c62 0 86 -28 86 -84v-152c0 -128 -83 -190 -201 -190h-120c-128 0 -219 66 -219 200
v349c0 126 97 197 219 197zM181 916h92c3 -48 37 -60 65 -60c26 0 62 11 64 60h92c-3 -88 -61 -140 -159 -140c-92 0 -152 52 -154 140z" />
    <glyph glyph-name="gbreve" unicode="&#x11f;" horiz-adv-x="561" 
d="M174 -145h146c38 0 56 23 56 58v57h-116c-125 0 -200 62 -200 178v195c0 117 79 177 200 177h231v-609c0 -73 -37 -150 -168 -150h-217v40c0 38 21 54 68 54zM176 342v-194c0 -70 49 -84 84 -84h116v363h-116c-57 0 -84 -37 -84 -85zM125 716h92c3 -48 37 -60 65 -60
c26 0 62 11 64 60h92c-3 -88 -61 -140 -159 -140c-92 0 -152 52 -154 140z" />
    <glyph glyph-name="Gdotaccent" unicode="&#x120;" horiz-adv-x="672" 
d="M286 716h304v-35c0 -41 -17 -60 -71 -60h-233c-58 0 -102 -38 -102 -102v-350c0 -58 34 -105 102 -105h119c57 0 85 44 85 96v121c0 11 -6 20 -23 20h-80c-48 0 -69 11 -69 53v42h203c62 0 86 -28 86 -84v-152c0 -128 -83 -190 -201 -190h-120c-128 0 -219 66 -219 200
v349c0 126 97 197 219 197zM400 900v-115h-118v115h118z" />
    <glyph glyph-name="gdotaccent" unicode="&#x121;" horiz-adv-x="561" 
d="M174 -145h146c38 0 56 23 56 58v57h-116c-125 0 -200 62 -200 178v195c0 117 79 177 200 177h231v-609c0 -73 -37 -150 -168 -150h-217v40c0 38 21 54 68 54zM176 342v-194c0 -70 49 -84 84 -84h116v363h-116c-57 0 -84 -37 -84 -85zM334 700v-115h-118v115h118z" />
    <glyph glyph-name="Gcommaaccent" unicode="&#x122;" horiz-adv-x="672" 
d="M286 716h304v-35c0 -41 -17 -60 -71 -60h-233c-58 0 -102 -38 -102 -102v-350c0 -58 34 -105 102 -105h119c57 0 85 44 85 96v121c0 11 -6 20 -23 20h-80c-48 0 -69 11 -69 53v42h203c62 0 86 -28 86 -84v-152c0 -128 -83 -190 -201 -190h-120c-128 0 -219 66 -219 200
v349c0 126 97 197 219 197zM314 -334l-35 46c32 17 55 50 57 83h-55v126h138v-94c0 -69 -39 -134 -105 -161z" />
    <glyph glyph-name="gcommaaccent" unicode="&#x123;" horiz-adv-x="561" 
d="M329 836l35 -46c-32 -17 -55 -50 -57 -83h55v-126h-138v94c0 69 39 134 105 161zM174 -145h146c38 0 56 23 56 58v57h-116c-125 0 -200 62 -200 178v195c0 117 79 177 200 177h231v-609c0 -73 -37 -150 -168 -150h-217v40c0 38 21 54 68 54zM176 342v-194
c0 -70 49 -84 84 -84h116v363h-116c-57 0 -84 -37 -84 -85z" />
    <glyph glyph-name="Hcircumflex" unicode="&#x124;" horiz-adv-x="680" 
d="M486 716h117v-746h-53c-45 0 -64 16 -64 61v313c-16 -19 -44 -26 -75 -26h-220v-348h-54c-45 0 -63 16 -63 61v685h117v-304h295v304zM337 861l-62 -80h-113l123 144h104l120 -144h-114z" />
    <glyph glyph-name="hcircumflex" unicode="&#x125;" horiz-adv-x="574" 
d="M320 427h-130v-457h-53c-45 0 -63 16 -63 62v689h116v-201h130c127 0 188 -56 188 -168v-382h-52c-44 0 -64 16 -64 62v319c0 54 -28 76 -72 76zM287 861l-62 -80h-113l123 144h104l120 -144h-114z" />
    <glyph glyph-name="Hbar" unicode="&#x126;" horiz-adv-x="716" 
d="M502 615v101h117v-101h79v-39c0 -31 -9 -57 -73 -57h-6v-549h-53c-45 0 -64 16 -64 61v313c-16 -19 -44 -26 -75 -26h-220v-348h-54c-45 0 -63 16 -63 61v488h-71v96h71v101h117v-101h295zM207 519v-107h295v107h-295z" />
    <glyph glyph-name="hbar" unicode="&#x127;" horiz-adv-x="598" 
d="M338 427h-130v-457h-53c-45 0 -63 16 -63 62v547h-69v94h69v48h116v-48h186v-37c0 -31 -9 -57 -72 -57h-114v-59h130c127 0 188 -56 188 -168v-382h-52c-44 0 -64 16 -64 62v319c0 54 -28 76 -72 76z" />
    <glyph glyph-name="Itilde" unicode="&#x128;" horiz-adv-x="282" 
d="M84 716h118v-746h-55c-45 0 -63 16 -63 61v685zM67 910c33 0 64 -15 87 -27c18 -9 37 -20 51 -20c25 0 35 18 35 47h92c0 -81 -48 -134 -122 -134c-37 0 -62 15 -87 28c-16 8 -33 20 -51 20c-21 0 -38 -15 -39 -49h-91c0 86 53 135 125 135z" />
    <glyph glyph-name="itilde" unicode="&#x129;" horiz-adv-x="257" 
d="M49 710c33 0 64 -15 87 -27c18 -9 37 -20 51 -20c25 0 35 18 35 47h92c0 -81 -48 -134 -122 -134c-37 0 -62 15 -87 28c-16 8 -33 20 -51 20c-21 0 -38 -15 -39 -49h-91c0 86 53 135 125 135zM69 520h116v-550h-52c-46 0 -64 16 -64 62v488z" />
    <glyph glyph-name="Imacron" unicode="&#x12a;" horiz-adv-x="282" 
d="M84 716h118v-746h-55c-45 0 -63 16 -63 61v685zM-27 886h332v-87h-332v87z" />
    <glyph glyph-name="imacron" unicode="&#x12b;" horiz-adv-x="257" 
d="M-52 686h332v-87h-332v87zM69 520h116v-550h-52c-46 0 -64 16 -64 62v488z" />
    <glyph glyph-name="Ibreve" unicode="&#x12c;" horiz-adv-x="282" 
d="M84 716h118v-746h-55c-45 0 -63 16 -63 61v685zM-19 916h92c3 -48 37 -60 65 -60c26 0 62 11 64 60h92c-3 -88 -61 -140 -159 -140c-92 0 -152 52 -154 140z" />
    <glyph glyph-name="ibreve" unicode="&#x12d;" horiz-adv-x="257" 
d="M69 520h116v-550h-52c-46 0 -64 16 -64 62v488zM-36 716h92c3 -48 37 -60 65 -60c26 0 62 11 64 60h92c-3 -88 -61 -140 -159 -140c-92 0 -152 52 -154 140z" />
    <glyph glyph-name="Iogonek" unicode="&#x12e;" horiz-adv-x="282" 
d="M84 716h118v-746h-11c-26 -25 -46 -59 -46 -87c0 -22 12 -39 38 -39c12 0 34 0 55 10v-78c-29 -14 -57 -15 -78 -15c-72 0 -108 45 -108 98c0 40 22 87 55 119c-16 8 -23 25 -23 53v685z" />
    <glyph glyph-name="iogonek" unicode="&#x12f;" horiz-adv-x="267" 
d="M74 520h116v-550h-13c-26 -25 -46 -59 -46 -87c0 -22 12 -39 38 -39c12 0 34 0 55 10v-78c-29 -14 -57 -15 -78 -15c-72 0 -108 45 -108 98c0 40 22 87 56 119h2c-16 9 -22 26 -22 54v488zM72 664v66h120v-134h-44c-41 0 -76 24 -76 68z" />
    <glyph glyph-name="Idotaccent" unicode="&#x130;" horiz-adv-x="282" 
d="M84 716h118v-746h-55c-45 0 -63 16 -63 61v685zM202 900v-115h-118v115h118z" />
    <glyph glyph-name="IJ" unicode="&#x132;" horiz-adv-x="695" 
d="M84 31v685h118v-746h-55c-45 0 -63 16 -63 61zM343 64h62c62 0 91 26 91 99v553h118v-553c0 -131 -62 -193 -209 -193h-129v39c0 42 18 55 67 55z" />
    <glyph glyph-name="ij" unicode="&#x133;" horiz-adv-x="565" 
d="M74 32v488h116v-550h-52c-46 0 -64 16 -64 62zM72 664v66h120v-134h-44c-41 0 -76 24 -76 68zM371 664v66h120v-134h-44c-42 0 -76 24 -76 68zM373 -77v597h116v-597c0 -112 -66 -162 -177 -162h-86v39c0 37 25 56 62 56h24c41 0 61 25 61 67z" />
    <glyph glyph-name="Jcircumflex" unicode="&#x134;" horiz-adv-x="426" 
d="M80 64h62c62 0 91 26 91 99v553h118v-553c0 -131 -62 -193 -209 -193h-129v39c0 42 18 55 67 55zM287 861l-62 -80h-113l123 144h104l120 -144h-114z" />
    <glyph glyph-name="jcircumflex" unicode="&#x135;" horiz-adv-x="330" 
d="M136 -77v597h116v-597c0 -112 -66 -162 -177 -162h-86v39c0 37 25 56 62 56h24c41 0 61 25 61 67zM187 661l-62 -80h-113l123 144h104l120 -144h-114z" />
    <glyph glyph-name="Kcommaaccent" unicode="&#x136;" horiz-adv-x="645" 
d="M476 4l-263 351l273 361h142l-274 -360l287 -386h-93c-37 0 -56 11 -72 34zM74 716h117v-746h-55c-44 0 -62 18 -62 62v684zM282 -334l-35 46c32 17 55 50 57 83h-55v126h138v-94c0 -69 -39 -134 -105 -161z" />
    <glyph glyph-name="kcommaaccent" unicode="&#x137;" horiz-adv-x="574" 
d="M75 32v689h116v-751h-52c-47 0 -64 15 -64 62zM211 265l209 255h135l-213 -256l224 -294h-90c-25 0 -49 11 -64 31zM242 -334l-35 46c32 17 55 50 57 83h-55v126h138v-94c0 -69 -39 -134 -105 -161z" />
    <glyph glyph-name="kgreenlandic" unicode="&#x138;" horiz-adv-x="568" 
d="M75 32v488h116v-550h-52c-46 0 -64 16 -64 62zM430 -30l-216 295l200 255h135l-204 -256l215 -294h-130z" />
    <glyph glyph-name="Lacute" unicode="&#x139;" horiz-adv-x="548" 
d="M191 716v-652h339v-36c0 -41 -14 -58 -61 -58h-395v746h117zM260 930h122l-91 -115c-19 -22 -34 -31 -68 -31h-49z" />
    <glyph glyph-name="lacute" unicode="&#x13a;" horiz-adv-x="269" 
d="M73 721h116v-751h-53c-44 0 -63 16 -63 62v689zM112 930h122l-91 -115c-19 -22 -34 -31 -68 -31h-49z" />
    <glyph glyph-name="Lcommaaccent" unicode="&#x13b;" horiz-adv-x="548" 
d="M191 716v-652h339v-36c0 -41 -14 -58 -61 -58h-395v746h117zM271 -334l-35 46c32 17 55 50 57 83h-55v126h138v-94c0 -69 -39 -134 -105 -161z" />
    <glyph glyph-name="lcommaaccent" unicode="&#x13c;" horiz-adv-x="269" 
d="M73 721h116v-751h-53c-44 0 -63 16 -63 62v689zM96 -334l-35 46c32 17 55 50 57 83h-55v126h138v-94c0 -69 -39 -134 -105 -161z" />
    <glyph glyph-name="Lcaron" unicode="&#x13d;" horiz-adv-x="548" 
d="M191 716v-652h339v-36c0 -41 -14 -58 -61 -58h-395v746h117zM345 475l-35 46c32 17 55 50 57 83h-55v126h138v-94c0 -69 -39 -134 -105 -161z" />
    <glyph glyph-name="lcaron" unicode="&#x13e;" horiz-adv-x="447" 
d="M73 721h116v-751h-53c-44 0 -63 16 -63 62v689zM295 475l-35 46c32 17 55 50 57 83h-55v126h138v-94c0 -69 -39 -134 -105 -161z" />
    <glyph glyph-name="Ldot" unicode="&#x13f;" horiz-adv-x="548" 
d="M74 716h117v-652h339v-36c0 -41 -14 -58 -61 -58h-395v746zM289 434h127v-128h-127v128z" />
    <glyph glyph-name="ldot" unicode="&#x140;" horiz-adv-x="441" 
d="M73 32v689h116v-751h-53c-44 0 -63 16 -63 62zM259 418h127v-128h-127v128z" />
    <glyph glyph-name="Nacute" unicode="&#x143;" horiz-adv-x="677" 
d="M74 31v685h312c143 0 216 -40 216 -199v-547h-53c-44 0 -64 16 -64 61v487c0 80 -25 103 -99 103h-195v-651h-54c-45 0 -63 16 -63 61zM315 930h122l-91 -115c-19 -22 -34 -31 -68 -31h-49z" />
    <glyph glyph-name="nacute" unicode="&#x144;" horiz-adv-x="571" 
d="M70 520h241c142 0 190 -49 190 -175v-375h-53c-44 0 -63 16 -63 62v313c0 64 -19 82 -74 82h-125v-457h-51c-46 0 -65 16 -65 62v488zM255 730h122l-91 -115c-19 -22 -34 -31 -68 -31h-49z" />
    <glyph glyph-name="Ncommaaccent" unicode="&#x145;" horiz-adv-x="677" 
d="M74 31v685h312c143 0 216 -40 216 -199v-547h-53c-44 0 -64 16 -64 61v487c0 80 -25 103 -99 103h-195v-651h-54c-45 0 -63 16 -63 61zM300 -334l-35 46c32 17 55 50 57 83h-55v126h138v-94c0 -69 -39 -134 -105 -161z" />
    <glyph glyph-name="ncommaaccent" unicode="&#x146;" horiz-adv-x="571" 
d="M70 520h241c142 0 190 -49 190 -175v-375h-53c-44 0 -63 16 -63 62v313c0 64 -19 82 -74 82h-125v-457h-51c-46 0 -65 16 -65 62v488zM247 -334l-35 46c32 17 55 50 57 83h-55v126h138v-94c0 -69 -39 -134 -105 -161z" />
    <glyph glyph-name="Ncaron" unicode="&#x147;" horiz-adv-x="677" 
d="M74 31v685h312c143 0 216 -40 216 -199v-547h-53c-44 0 -64 16 -64 61v487c0 80 -25 103 -99 103h-195v-651h-54c-45 0 -63 16 -63 61zM270 925l62 -80l58 80h114l-120 -144h-104l-123 144h113z" />
    <glyph glyph-name="ncaron" unicode="&#x148;" horiz-adv-x="571" 
d="M70 520h241c142 0 190 -49 190 -175v-375h-53c-44 0 -63 16 -63 62v313c0 64 -19 82 -74 82h-125v-457h-51c-46 0 -65 16 -65 62v488zM213 725l62 -80l58 80h114l-120 -144h-104l-123 144h113z" />
    <glyph glyph-name="napostrophe" unicode="&#x149;" horiz-adv-x="734" 
d="M226 32v488h241c142 0 190 -49 190 -175v-375h-53c-44 0 -63 16 -63 62v313c0 64 -19 82 -74 82h-125v-457h-51c-46 0 -65 16 -65 62zM75 461l-35 46c32 17 55 50 57 83h-55v126h138v-94c0 -69 -39 -134 -105 -161z" />
    <glyph glyph-name="Eng" unicode="&#x14a;" horiz-adv-x="677" 
d="M602 517v-563c0 -131 -65 -193 -210 -193h-128v39c0 42 17 56 67 56h61c63 0 93 25 93 98v564c0 80 -25 103 -99 103h-195v-651h-54c-45 0 -63 16 -63 61v685h312c143 0 216 -40 216 -199z" />
    <glyph glyph-name="eng" unicode="&#x14b;" horiz-adv-x="571" 
d="M501 345v-393c0 -129 -67 -191 -209 -191h-128v39c0 41 18 55 67 55h61c62 0 93 25 93 97v393c0 64 -19 82 -74 82h-125v-457h-51c-46 0 -65 16 -65 62v488h241c142 0 190 -49 190 -175z" />
    <glyph glyph-name="Omacron" unicode="&#x14c;" horiz-adv-x="702" 
d="M350 730c200 0 291 -112 291 -312v-151c0 -199 -91 -311 -291 -311c-197 0 -291 112 -291 312v150c0 200 94 312 291 312zM524 268v151c0 61 -11 117 -39 153c-28 37 -63 59 -135 59c-71 0 -107 -21 -136 -61c-28 -40 -38 -89 -38 -152v-151c0 -144 58 -214 174 -211
c116 -3 174 67 174 212zM175 886h332v-87h-332v87z" />
    <glyph glyph-name="omacron" unicode="&#x14d;" horiz-adv-x="574" 
d="M286 534c147 0 226 -67 226 -219v-139c0 -152 -77 -220 -226 -220c-145 0 -226 65 -226 220v139c0 152 81 219 226 219zM396 176v139c0 77 -20 125 -110 125c-73 0 -110 -33 -110 -120v-144c0 -89 37 -127 110 -127s110 34 110 127zM108 686h332v-87h-332v87z" />
    <glyph glyph-name="Obreve" unicode="&#x14e;" horiz-adv-x="702" 
d="M350 730c200 0 291 -112 291 -312v-151c0 -199 -91 -311 -291 -311c-197 0 -291 112 -291 312v150c0 200 94 312 291 312zM524 268v151c0 61 -11 117 -39 153c-28 37 -63 59 -135 59c-71 0 -107 -21 -136 -61c-28 -40 -38 -89 -38 -152v-151c0 -144 58 -214 174 -211
c116 -3 174 67 174 212zM185 916h92c3 -48 37 -60 65 -60c26 0 62 11 64 60h92c-3 -88 -61 -140 -159 -140c-92 0 -152 52 -154 140z" />
    <glyph glyph-name="obreve" unicode="&#x14f;" horiz-adv-x="574" 
d="M286 534c147 0 226 -67 226 -219v-139c0 -152 -77 -220 -226 -220c-145 0 -226 65 -226 220v139c0 152 81 219 226 219zM396 176v139c0 77 -20 125 -110 125c-73 0 -110 -33 -110 -120v-144c0 -89 37 -127 110 -127s110 34 110 127zM118 716h92c3 -48 37 -60 65 -60
c26 0 62 11 64 60h92c-3 -88 -61 -140 -159 -140c-92 0 -152 52 -154 140z" />
    <glyph glyph-name="Ohungarumlaut" unicode="&#x150;" horiz-adv-x="702" 
d="M350 730c200 0 291 -112 291 -312v-151c0 -199 -91 -311 -291 -311c-197 0 -291 112 -291 312v150c0 200 94 312 291 312zM524 268v151c0 61 -11 117 -39 153c-28 37 -63 59 -135 59c-71 0 -107 -21 -136 -61c-28 -40 -38 -89 -38 -152v-151c0 -144 58 -214 174 -211
c116 -3 174 67 174 212zM249 930h117l-81 -115c-17 -24 -31 -31 -64 -31h-49zM408 930h118l-81 -115c-17 -24 -31 -31 -65 -31h-49z" />
    <glyph glyph-name="ohungarumlaut" unicode="&#x151;" horiz-adv-x="574" 
d="M286 534c147 0 226 -67 226 -219v-139c0 -152 -77 -220 -226 -220c-145 0 -226 65 -226 220v139c0 152 81 219 226 219zM396 176v139c0 77 -20 125 -110 125c-73 0 -110 -33 -110 -120v-144c0 -89 37 -127 110 -127s110 34 110 127zM186 730h117l-81 -115
c-17 -24 -31 -31 -64 -31h-49zM345 730h118l-81 -115c-17 -24 -31 -31 -65 -31h-49z" />
    <glyph glyph-name="Racute" unicode="&#x154;" horiz-adv-x="643" 
d="M344 286h-154v-316h-55c-44 0 -62 16 -62 61v685h297c142 0 213 -73 213 -170v-79c0 -72 -35 -143 -121 -167c48 -107 104 -224 153 -330h-127zM370 619h-180v-237h180c62 0 96 32 96 94v54c0 55 -31 89 -96 89zM305 930h122l-91 -115c-19 -22 -34 -31 -68 -31h-49z" />
    <glyph glyph-name="racute" unicode="&#x155;" horiz-adv-x="418" 
d="M183 379v-409h-53c-44 0 -63 16 -63 62v347c0 90 42 141 150 141h182v-29c0 -49 -34 -64 -79 -64h-103c-26 0 -34 -22 -34 -48zM198 730h122l-91 -115c-19 -22 -34 -31 -68 -31h-49z" />
    <glyph glyph-name="Rcommaaccent" unicode="&#x156;" horiz-adv-x="643" 
d="M344 286h-154v-316h-55c-44 0 -62 16 -62 61v685h297c142 0 213 -73 213 -170v-79c0 -72 -35 -143 -121 -167c48 -107 104 -224 153 -330h-127zM370 619h-180v-237h180c62 0 96 32 96 94v54c0 55 -31 89 -96 89zM287 -334l-35 46c32 17 55 50 57 83h-55v126h138v-94
c0 -69 -39 -134 -105 -161z" />
    <glyph glyph-name="rcommaaccent" unicode="&#x157;" horiz-adv-x="418" 
d="M183 379v-409h-53c-44 0 -63 16 -63 62v347c0 90 42 141 150 141h182v-29c0 -49 -34 -64 -79 -64h-103c-26 0 -34 -22 -34 -48zM149 -334l-35 46c32 17 55 50 57 83h-55v126h138v-94c0 -69 -39 -134 -105 -161z" />
    <glyph glyph-name="Rcaron" unicode="&#x158;" horiz-adv-x="643" 
d="M344 286h-154v-316h-55c-44 0 -62 16 -62 61v685h297c142 0 213 -73 213 -170v-79c0 -72 -35 -143 -121 -167c48 -107 104 -224 153 -330h-127zM370 619h-180v-237h180c62 0 96 32 96 94v54c0 55 -31 89 -96 89zM233 925l62 -80l58 80h114l-120 -144h-104l-123 144h113z
" />
    <glyph glyph-name="rcaron" unicode="&#x159;" horiz-adv-x="418" 
d="M183 379v-409h-53c-44 0 -63 16 -63 62v347c0 90 42 141 150 141h182v-29c0 -49 -34 -64 -79 -64h-103c-26 0 -34 -22 -34 -48zM166 725l62 -80l58 80h114l-120 -144h-104l-123 144h113z" />
    <glyph glyph-name="Sacute" unicode="&#x15a;" horiz-adv-x="578" 
d="M280 -30h-240v39c0 38 16 55 68 55h169c90 0 138 35 138 101c0 47 -28 81 -105 115l-126 56c-97 43 -136 109 -136 193c0 111 73 187 237 187h224v-41c0 -44 -22 -54 -70 -54h-154c-62 0 -119 -20 -119 -92c0 -52 28 -83 85 -109l120 -54c125 -56 162 -111 162 -200
c0 -155 -133 -196 -253 -196zM285 930h122l-91 -115c-19 -22 -34 -31 -68 -31h-49z" />
    <glyph glyph-name="sacute" unicode="&#x15b;" horiz-adv-x="474" 
d="M232 520h176v-40c0 -38 -22 -53 -72 -53h-104c-49 0 -68 -27 -68 -58c0 -25 13 -49 49 -60l92 -30c94 -29 128 -81 128 -152c0 -100 -74 -157 -193 -157h-189v37c0 38 21 57 68 57h121c45 0 77 20 77 63c0 29 -13 50 -47 61l-88 29c-89 30 -134 73 -134 152
c0 70 54 151 184 151zM224 730h122l-91 -115c-19 -22 -34 -31 -68 -31h-49z" />
    <glyph glyph-name="Scircumflex" unicode="&#x15c;" horiz-adv-x="578" 
d="M280 -30h-240v39c0 38 16 55 68 55h169c90 0 138 35 138 101c0 47 -28 81 -105 115l-126 56c-97 43 -136 109 -136 193c0 111 73 187 237 187h224v-41c0 -44 -22 -54 -70 -54h-154c-62 0 -119 -20 -119 -92c0 -52 28 -83 85 -109l120 -54c125 -56 162 -111 162 -200
c0 -155 -133 -196 -253 -196zM295 861l-62 -80h-113l123 144h104l120 -144h-114z" />
    <glyph glyph-name="scircumflex" unicode="&#x15d;" horiz-adv-x="474" 
d="M232 520h176v-40c0 -38 -22 -53 -72 -53h-104c-49 0 -68 -27 -68 -58c0 -25 13 -49 49 -60l92 -30c94 -29 128 -81 128 -152c0 -100 -74 -157 -193 -157h-189v37c0 38 21 57 68 57h121c45 0 77 20 77 63c0 29 -13 50 -47 61l-88 29c-89 30 -134 73 -134 152
c0 70 54 151 184 151zM244 661l-62 -80h-113l123 144h104l120 -144h-114z" />
    <glyph glyph-name="Scedilla" unicode="&#x15e;" horiz-adv-x="578" 
d="M280 -30h-240v39c0 38 16 55 68 55h169c90 0 138 35 138 101c0 47 -28 81 -105 115l-126 56c-97 43 -136 109 -136 193c0 111 73 187 237 187h224v-41c0 -44 -22 -54 -70 -54h-154c-62 0 -119 -20 -119 -92c0 -52 28 -83 85 -109l120 -54c125 -56 162 -111 162 -200
c0 -155 -133 -196 -253 -196zM257 -334l-35 46c32 17 55 50 57 83h-55v126h138v-94c0 -69 -39 -134 -105 -161z" />
    <glyph glyph-name="scedilla" unicode="&#x15f;" horiz-adv-x="474" 
d="M232 520h176v-40c0 -38 -22 -53 -72 -53h-104c-49 0 -68 -27 -68 -58c0 -25 13 -49 49 -60l92 -30c94 -29 128 -81 128 -152c0 -100 -74 -157 -193 -157h-189v37c0 38 21 57 68 57h121c45 0 77 20 77 63c0 29 -13 50 -47 61l-88 29c-89 30 -134 73 -134 152
c0 70 54 151 184 151zM205 -334l-35 46c32 17 55 50 57 83h-55v126h138v-94c0 -69 -39 -134 -105 -161z" />
    <glyph glyph-name="Tcommaaccent" unicode="&#x162;" horiz-adv-x="603" 
d="M244 31v590h-226v95h570v-35c0 -42 -10 -60 -66 -60h-161v-651h-54c-44 0 -63 16 -63 61zM270 -334l-35 46c32 17 55 50 57 83h-55v126h138v-94c0 -69 -39 -134 -105 -161z" />
    <glyph glyph-name="tcommaaccent" unicode="&#x163;" horiz-adv-x="367" 
d="M277 -30h-25c-111 0 -151 53 -151 153v304h-87v93h87v180h116v-180h124v-38c0 -32 -13 -55 -74 -55h-50v-304c0 -44 19 -59 49 -59h83v-38c0 -30 -16 -56 -72 -56zM153 -334l-35 46c32 17 55 50 57 83h-55v126h138v-94c0 -69 -39 -134 -105 -161z" />
    <glyph glyph-name="Tcaron" unicode="&#x164;" horiz-adv-x="603" 
d="M244 31v590h-226v95h570v-35c0 -42 -10 -60 -66 -60h-161v-651h-54c-44 0 -63 16 -63 61zM242 925l62 -80l58 80h114l-120 -144h-104l-123 144h113z" />
    <glyph glyph-name="tcaron" unicode="&#x165;" horiz-adv-x="562" 
d="M277 -30h-25c-111 0 -151 53 -151 153v304h-87v93h87v180h116v-180h124v-38c0 -32 -13 -55 -74 -55h-50v-304c0 -44 19 -59 49 -59h83v-38c0 -30 -16 -56 -72 -56zM413 446l-35 46c32 17 55 50 57 83h-55v126h138v-94c0 -69 -39 -134 -105 -161z" />
    <glyph glyph-name="Tbar" unicode="&#x166;" horiz-adv-x="603" 
d="M361 389h152v-37c0 -32 -11 -59 -64 -59h-88v-323h-54c-44 0 -63 16 -63 61v262h-164v96h164v232h-226v95h570v-35c0 -42 -10 -60 -66 -60h-161v-232z" />
    <glyph glyph-name="tbar" unicode="&#x167;" horiz-adv-x="367" 
d="M217 308h117v-37c0 -32 -11 -58 -63 -58h-54v-81c0 -44 19 -59 49 -59h83v-38c0 -30 -16 -56 -72 -56h-25c-111 0 -151 53 -151 153v81h-88v95h88v128h-87v93h87v180h116v-180h124v-38c0 -32 -13 -55 -74 -55h-50v-128z" />
    <glyph glyph-name="Utilde" unicode="&#x168;" horiz-adv-x="684" 
d="M603 716v-746h-312c-143 0 -216 40 -216 199v547h117v-548c0 -80 25 -104 99 -104h195v652h117zM273 910c33 0 64 -15 87 -27c18 -9 37 -20 51 -20c25 0 35 18 35 47h92c0 -81 -48 -134 -122 -134c-37 0 -62 15 -87 28c-16 8 -33 20 -51 20c-21 0 -38 -15 -39 -49h-91
c0 86 53 135 125 135z" />
    <glyph glyph-name="utilde" unicode="&#x169;" horiz-adv-x="562" 
d="M493 -30h-223c-141 0 -205 49 -205 200v350h115v-350c0 -88 24 -106 90 -106h107v456h116v-550zM204 710c33 0 64 -15 87 -27c18 -9 37 -20 51 -20c25 0 35 18 35 47h92c0 -81 -48 -134 -122 -134c-37 0 -62 15 -87 28c-16 8 -33 20 -51 20c-21 0 -38 -15 -39 -49h-91
c0 86 53 135 125 135z" />
    <glyph glyph-name="Umacron" unicode="&#x16a;" horiz-adv-x="684" 
d="M603 716v-746h-312c-143 0 -216 40 -216 199v547h117v-548c0 -80 25 -104 99 -104h195v652h117zM177 886h332v-87h-332v87z" />
    <glyph glyph-name="umacron" unicode="&#x16b;" horiz-adv-x="562" 
d="M493 -30h-223c-141 0 -205 49 -205 200v350h115v-350c0 -88 24 -106 90 -106h107v456h116v-550zM108 686h332v-87h-332v87z" />
    <glyph glyph-name="Ubreve" unicode="&#x16c;" horiz-adv-x="684" 
d="M603 716v-746h-312c-143 0 -216 40 -216 199v547h117v-548c0 -80 25 -104 99 -104h195v652h117zM187 916h92c3 -48 37 -60 65 -60c26 0 62 11 64 60h92c-3 -88 -61 -140 -159 -140c-92 0 -152 52 -154 140z" />
    <glyph glyph-name="ubreve" unicode="&#x16d;" horiz-adv-x="562" 
d="M493 -30h-223c-141 0 -205 49 -205 200v350h115v-350c0 -88 24 -106 90 -106h107v456h116v-550zM118 716h92c3 -48 37 -60 65 -60c26 0 62 11 64 60h92c-3 -88 -61 -140 -159 -140c-92 0 -152 52 -154 140z" />
    <glyph glyph-name="Uring" unicode="&#x16e;" horiz-adv-x="684" 
d="M603 716v-746h-312c-143 0 -216 40 -216 199v547h117v-548c0 -80 25 -104 99 -104h195v652h117zM302 876c0 -24 19 -41 41 -41c23 0 42 17 42 41c0 23 -19 42 -42 42c-22 0 -41 -19 -41 -42zM229 876c0 65 50 110 114 110c66 0 115 -45 115 -110s-49 -110 -115 -110
c-64 0 -114 45 -114 110z" />
    <glyph glyph-name="uring" unicode="&#x16f;" horiz-adv-x="562" 
d="M493 -30h-223c-141 0 -205 49 -205 200v350h115v-350c0 -88 24 -106 90 -106h107v456h116v-550zM233 676c0 -24 19 -41 41 -41c23 0 42 17 42 41c0 23 -19 42 -42 42c-22 0 -41 -19 -41 -42zM160 676c0 65 50 110 114 110c66 0 115 -45 115 -110s-49 -110 -115 -110
c-64 0 -114 45 -114 110z" />
    <glyph glyph-name="Uhungarumlaut" unicode="&#x170;" horiz-adv-x="684" 
d="M603 716v-746h-312c-143 0 -216 40 -216 199v547h117v-548c0 -80 25 -104 99 -104h195v652h117zM245 930h117l-81 -115c-17 -24 -31 -31 -64 -31h-49zM404 930h118l-81 -115c-17 -24 -31 -31 -65 -31h-49z" />
    <glyph glyph-name="uhungarumlaut" unicode="&#x171;" horiz-adv-x="562" 
d="M493 -30h-223c-141 0 -205 49 -205 200v350h115v-350c0 -88 24 -106 90 -106h107v456h116v-550zM176 730h117l-81 -115c-17 -24 -31 -31 -64 -31h-49zM335 730h118l-81 -115c-17 -24 -31 -31 -65 -31h-49z" />
    <glyph glyph-name="Uogonek" unicode="&#x172;" horiz-adv-x="684" 
d="M603 716v-746h-146c-26 -25 -46 -59 -46 -87c0 -22 12 -39 38 -39c12 0 34 0 55 10v-78c-29 -14 -57 -15 -78 -15c-72 0 -108 45 -108 98c0 37 18 80 48 111h-75c-143 0 -216 40 -216 199v547h117v-548c0 -80 25 -104 99 -104h195v652h117z" />
    <glyph glyph-name="uogonek" unicode="&#x173;" horiz-adv-x="562" 
d="M65 170v350h115v-350c0 -88 24 -106 90 -106h107v456h116v-550h-144c-26 -25 -46 -59 -46 -87c0 -22 12 -39 38 -39c12 0 34 0 55 10v-78c-29 -14 -57 -15 -78 -15c-72 0 -108 45 -108 98c0 37 18 80 48 111c-133 3 -193 53 -193 200z" />
    <glyph glyph-name="Wcircumflex" unicode="&#x174;" horiz-adv-x="913" 
d="M787 716h118l-176 -746h-76c-44 0 -72 23 -83 70l-111 436l-129 -506h-72c-53 0 -74 21 -85 68l-159 678h118l131 -599l139 535h115l138 -534zM460 861l-62 -80h-113l123 144h104l120 -144h-114z" />
    <glyph glyph-name="wcircumflex" unicode="&#x175;" horiz-adv-x="736" 
d="M621 520h108l-141 -550h-63c-37 0 -60 21 -69 56l-89 327l-106 -383h-59c-51 0 -62 22 -71 59l-126 491h108l94 -412l108 390h104l107 -389zM370 661l-62 -80h-113l123 144h104l120 -144h-114z" />
    <glyph glyph-name="Ycircumflex" unicode="&#x176;" horiz-adv-x="683" 
d="M396 267v-297h-52c-45 0 -65 15 -65 61v234l-263 451h128l196 -339l197 339h128zM342 861l-62 -80h-113l123 144h104l120 -144h-114z" />
    <glyph glyph-name="ycircumflex" unicode="&#x177;" horiz-adv-x="562" 
d="M317 -239h-228v40c0 42 18 58 70 58h158c46 0 60 21 60 54v65c-44 -4 -83 -6 -137 -8c-122 -4 -176 65 -176 179v371h116v-370c0 -57 14 -86 63 -85c51 1 91 5 134 9v446h116v-608c0 -85 -51 -151 -176 -151zM271 661l-62 -80h-113l123 144h104l120 -144h-114z" />
    <glyph glyph-name="Zacute" unicode="&#x179;" horiz-adv-x="626" 
d="M45 716h526v-89l-404 -563h421v-57c0 -28 -16 -37 -43 -37h-512v92l403 559h-391v95zM307 930h122l-91 -115c-19 -22 -34 -31 -68 -31h-49z" />
    <glyph glyph-name="zacute" unicode="&#x17a;" horiz-adv-x="505" 
d="M167 64h295v-52c0 -27 -15 -42 -46 -42h-380v88l282 369h-269v93h401v-88zM242 730h122l-91 -115c-19 -22 -34 -31 -68 -31h-49z" />
    <glyph glyph-name="Zdotaccent" unicode="&#x17b;" horiz-adv-x="626" 
d="M45 716h526v-89l-404 -563h421v-57c0 -28 -16 -37 -43 -37h-512v92l403 559h-391v95zM384 900v-115h-118v115h118z" />
    <glyph glyph-name="zdotaccent" unicode="&#x17c;" horiz-adv-x="505" 
d="M167 64h295v-52c0 -27 -15 -42 -46 -42h-380v88l282 369h-269v93h401v-88zM309 700v-115h-118v115h118z" />
    <glyph glyph-name="longs" unicode="&#x17f;" horiz-adv-x="438" 
d="M246 588v-618h-53c-44 0 -63 16 -63 62v395h-102v93h102v61c0 85 28 140 145 140h134v-32c0 -40 -26 -61 -73 -61h-61c-25 0 -29 -23 -29 -40z" />
    <glyph glyph-name="uni0180" unicode="&#x180;" horiz-adv-x="584" 
d="M98 721h116v-48h182v-36c0 -32 -11 -58 -63 -58h-119v-59h97c135 0 208 -60 208 -178v-193c0 -120 -73 -179 -208 -179h-213v609h-83v94h83v48zM214 427v-363h97c55 0 93 31 93 94v174c0 65 -38 95 -92 95h-98z" />
    <glyph glyph-name="uni0181" unicode="&#x181;" horiz-adv-x="827" 
d="M243 716h292c140 0 204 -76 204 -178v-47c0 -53 -27 -109 -72 -132c60 -24 92 -77 92 -136v-66c0 -134 -107 -187 -224 -187h-292v651c-60 -1 -96 -13 -96 -62v-52h-116v52c0 117 64 156 212 157zM535 308h-176v-244h175c74 0 108 45 108 98v47c0 53 -30 99 -107 99z
M536 621h-177v-218h177c69 0 87 49 87 92v38c0 48 -29 88 -87 88z" />
    <glyph glyph-name="uni0182" unicode="&#x182;" horiz-adv-x="645" 
d="M523 716v-37c0 -33 -11 -59 -63 -59h-271v-218h176c128 0 224 -46 224 -182v-63c0 -134 -103 -187 -224 -187h-292v746h450zM365 307h-176v-243h175c74 0 108 45 108 98v46c0 53 -30 99 -107 99z" />
    <glyph glyph-name="uni0183" unicode="&#x183;" horiz-adv-x="564" 
d="M450 716v-36c0 -32 -10 -58 -63 -58h-196v-102h97c135 0 208 -60 208 -178v-193c0 -120 -73 -179 -208 -179h-213v746h375zM191 427v-363h97c55 0 93 31 93 94v174c0 65 -38 95 -92 95h-98z" />
    <glyph glyph-name="uni0184" unicode="&#x184;" horiz-adv-x="666" 
d="M91 -30v524l-75 79v23l156 134h35v-327h177c128 0 224 -46 224 -182v-64c0 -134 -101 -187 -225 -187h-292zM383 308h-176v-244h175c74 0 109 45 109 98v47c0 53 -31 99 -108 99z" />
    <glyph glyph-name="uni0185" unicode="&#x185;" horiz-adv-x="581" 
d="M93 496l-75 79v22l155 133h35v-210h97c135 0 208 -60 208 -178v-192c0 -120 -73 -179 -208 -179h-212v525zM208 427v-362h97c55 0 93 31 93 94v173c0 65 -38 95 -92 95h-98z" />
    <glyph glyph-name="uni0186" unicode="&#x186;" horiz-adv-x="582" 
d="M30 -30v39c0 38 16 55 68 55h208c62 0 92 52 92 109v337c0 73 -37 111 -114 111h-244v95h247c145 0 228 -77 228 -193v-357c0 -115 -86 -196 -205 -196h-280z" />
    <glyph glyph-name="uni0187" unicode="&#x187;" horiz-adv-x="631" 
d="M611 855v-94h-21c-32 0 -53 -9 -53 -62v-19c0 -33 -11 -59 -74 -59h-171c-77 0 -114 -38 -114 -111v-337c0 -57 30 -109 93 -109h275v-37c0 -30 -11 -57 -75 -57h-204c-119 0 -206 81 -206 196v357c0 116 84 193 228 193h131c6 104 62 139 171 139h20z" />
    <glyph glyph-name="uni0188" unicode="&#x188;" horiz-adv-x="561" 
d="M542 659v-94h-21c-30 0 -50 -8 -52 -54v-25c0 -32 -7 -59 -70 -59h-121c-59 0 -92 -33 -92 -95v-175c0 -56 33 -93 92 -93h195v-37c0 -31 -9 -57 -73 -57h-122c-122 0 -208 71 -208 186v176c0 114 86 188 208 188h75c5 104 62 139 169 139h20z" />
    <glyph glyph-name="uni0189" unicode="&#x189;" horiz-adv-x="724" 
d="M31 297v95h94v324h286c166 0 242 -89 242 -206v-336c0 -117 -76 -204 -242 -204h-286v327h-94zM411 621h-170v-229h164v-37c0 -31 -9 -58 -73 -58h-91v-233h170c78 0 126 42 126 110v336c0 73 -48 111 -126 111z" />
    <glyph glyph-name="uni018A" unicode="&#x18a;" horiz-adv-x="828" 
d="M242 716h275c166 0 242 -89 242 -206v-336c0 -117 -76 -204 -242 -204h-286v650c-55 -3 -87 -23 -87 -67v-46h-116v46c0 118 65 163 214 163zM517 621h-170v-557h170c78 0 126 42 126 110v336c0 73 -48 111 -126 111z" />
    <glyph glyph-name="uni018B" unicode="&#x18b;" horiz-adv-x="639" 
d="M116 621v95h451v-746h-293c-118 0 -224 53 -224 187v67c0 136 95 182 223 182h178v215h-335zM451 311h-177c-77 0 -107 -46 -107 -99v-50c0 -53 34 -98 108 -98h176v247z" />
    <glyph glyph-name="uni018C" unicode="&#x18c;" horiz-adv-x="546" 
d="M101 622v94h376v-746h-213c-136 0 -209 59 -209 179v193c0 118 73 178 209 178h97v102h-260zM361 64v363h-98c-55 0 -92 -30 -92 -95v-174c0 -63 37 -94 93 -94h97z" />
    <glyph glyph-name="uni018D" unicode="&#x18d;" horiz-adv-x="577" 
d="M287 534c146 0 226 -68 226 -217v-143c0 -81 -23 -139 -68 -174c32 -26 51 -60 51 -97c0 -105 -95 -127 -173 -127h-166v92h156c48 0 67 14 67 35c0 26 -34 53 -94 53c-144 1 -225 67 -225 218v143c0 149 82 217 226 217zM286 49h1c70 0 110 42 110 125v143
c0 68 -31 123 -110 123c-68 0 -110 -42 -110 -123v-143c0 -80 39 -125 109 -125z" />
    <glyph glyph-name="uni018E" unicode="&#x18e;" horiz-adv-x="601" 
d="M53 716h471v-746h-414c-52 0 -68 17 -68 55v39l365 1v253h-255c-52 0 -68 17 -68 55v39h323v210h-286c-52 0 -68 17 -68 55v39z" />
    <glyph glyph-name="uni018F" unicode="&#x18f;" horiz-adv-x="680" 
d="M61 716h324c121 0 219 -71 219 -197v-349c0 -134 -92 -200 -219 -200h-125c-118 0 -201 62 -201 190v148c0 56 27 89 90 89h338v122c0 64 -44 102 -102 102h-251c-62 0 -73 23 -73 55v40zM261 64h124c68 0 102 47 102 105v165c-10 -21 -42 -32 -65 -32h-228
c-11 0 -18 -6 -18 -20v-122c0 -52 28 -96 85 -96z" />
    <glyph glyph-name="uni0190" unicode="&#x190;" horiz-adv-x="531" 
d="M296 730c61 0 121 -7 190 -25v-90c-64 12 -122 21 -189 21c-74 0 -125 -37 -125 -109c0 -87 39 -124 123 -124h158v-60c0 -27 -11 -35 -40 -35h-118c-91 0 -141 -35 -141 -126c0 -105 69 -129 164 -129c63 0 106 5 170 15l6 -55c3 -28 -15 -36 -45 -44
c-13 -3 -66 -13 -130 -13c-166 0 -282 49 -282 232c0 72 35 138 102 170c-53 32 -83 90 -84 167c-2 150 111 205 241 205z" />
    <glyph glyph-name="uni0191" unicode="&#x191;" horiz-adv-x="605" 
d="M223 318v-373c0 -106 -61 -169 -171 -169h-32v94h24c37 0 62 25 62 74v772h484v-35c0 -34 -13 -60 -68 -60h-299v-209h335v-36c0 -33 -15 -58 -70 -58h-265z" />
    <glyph glyph-name="uni0193" unicode="&#x193;" horiz-adv-x="691" 
d="M672 855v-94h-31c-32 0 -53 -19 -53 -72v-8c0 -41 -17 -60 -71 -60h-233c-58 0 -102 -38 -102 -102v-350c0 -58 34 -105 102 -105h119c57 0 85 44 85 96v121c0 11 -6 20 -23 20h-80c-48 0 -69 11 -69 53v42h203c62 0 86 -28 86 -84v-152c0 -128 -83 -190 -201 -190h-120
c-128 0 -219 66 -219 200v349c0 126 97 197 219 197h188c8 98 65 139 170 139h30z" />
    <glyph glyph-name="uni0194" unicode="&#x194;" horiz-adv-x="640" 
d="M508 716h125l-251 -580c28 -60 75 -148 75 -212c0 -86 -50 -134 -137 -134c-84 0 -135 48 -135 134c0 64 48 153 76 210l-254 582h125l188 -444zM346 -78c0 15 -8 35 -26 75c-11 -21 -25 -52 -25 -75c0 -24 10 -35 25 -35s26 11 26 35z" />
    <glyph glyph-name="uni0195" unicode="&#x195;" horiz-adv-x="900" 
d="M612 -30h-9c-142 0 -207 49 -207 200v181c0 54 -28 76 -72 76h-131v-457h-53c-44 0 -62 16 -62 62v689h115v-201h131c127 0 188 -56 188 -168v-182c0 -85 27 -106 91 -106h9c76 0 97 34 97 107v349h116v-356c0 -132 -61 -194 -213 -194z" />
    <glyph glyph-name="uni0196" unicode="&#x196;" horiz-adv-x="318" 
d="M84 716l116 -1v-594c0 -32 16 -58 45 -58h56v-38c0 -30 -6 -56 -63 -56h-3c-111 0 -151 56 -151 152v595z" />
    <glyph glyph-name="uni0197" unicode="&#x197;" horiz-adv-x="436" 
d="M414 417v-58c0 -27 -12 -37 -42 -37h-93v-352h-55c-45 0 -63 16 -63 61v291h-141v95h141v299h118v-299h135z" />
    <glyph glyph-name="uni0198" unicode="&#x198;" horiz-adv-x="661" 
d="M65 716h117v-746h-55c-43 0 -62 18 -62 62v684zM644 730v-94h-31c-61 0 -81 -26 -117 -77l-146 -203l282 -386h-140l-280 386l193 265c46 63 82 109 209 109h30z" />
    <glyph glyph-name="uni0199" unicode="&#x199;" horiz-adv-x="563" 
d="M313 730v-94h-70c-30 0 -52 -18 -52 -70v-596h-52c-46 0 -64 16 -64 62v533c0 118 57 165 169 165h69zM209 265l200 255h135l-204 -256l215 -294h-130z" />
    <glyph glyph-name="uni019A" unicode="&#x19a;" horiz-adv-x="432" 
d="M410 417v-60c0 -27 -10 -34 -39 -34h-95v-353h-54c-44 0 -63 16 -63 61v292h-139v94h139v299h117v-299h134z" />
    <glyph glyph-name="uni019B" unicode="&#x19b;" horiz-adv-x="562" 
d="M226 517l-64 75l51 41h-53c-52 0 -70 15 -70 57v40h223c7 0 14 0 21 -1l107 86l63 -76l-61 -48c32 -28 46 -67 46 -112v-609h-116v427c-43 5 -85 7 -128 8c-50 1 -64 -28 -64 -85v-350h-116v351c0 114 54 183 176 179c58 -2 85 -5 132 -9v87c0 18 -5 34 -17 43z" />
    <glyph glyph-name="uni019C" unicode="&#x19c;" horiz-adv-x="866" 
d="M249 64h122v652h117v-652h182v652h117v-746h-538c-124 0 -177 49 -177 160v586h117v-586c0 -45 19 -66 60 -66z" />
    <glyph glyph-name="uni019D" unicode="&#x19d;" horiz-adv-x="719" 
d="M216 621v-676c0 -106 -62 -169 -172 -169h-32v94h24c37 0 63 25 63 74v772h312c143 0 216 -40 216 -199v-547h-53c-44 0 -64 16 -64 61v487c0 80 -25 103 -99 103h-195z" />
    <glyph glyph-name="uni019E" unicode="&#x19e;" horiz-adv-x="536" 
d="M50 520h227c142 0 205 -61 205 -190v-554h-53c-45 0 -64 16 -64 62v492c0 66 -32 97 -88 97h-111v-457h-51c-45 0 -65 16 -65 62v488z" />
    <glyph glyph-name="uni019F" unicode="&#x19f;" horiz-adv-x="706" 
d="M351 730c200 0 291 -112 291 -312v-151c0 -199 -91 -311 -291 -311c-197 0 -291 112 -291 312v150c0 200 94 312 291 312zM351 56c117 0 174 70 174 212v30h-348v-31c0 -141 59 -211 174 -211zM525 393v26c0 124 -57 212 -174 212c-115 0 -174 -88 -174 -213v-25h348z
" />
    <glyph glyph-name="Ohorn" unicode="&#x1a0;" horiz-adv-x="853" 
d="M350 730c161 0 251 -73 280 -206c71 5 106 34 110 80h-55v126h138v-96c0 -97 -52 -159 -184 -163c1 -17 2 -35 2 -53v-151c0 -199 -91 -311 -291 -311c-197 0 -291 112 -291 312v150c0 200 94 312 291 312zM524 268v151c0 61 -11 117 -39 153c-28 37 -63 59 -135 59
c-71 0 -107 -21 -136 -61c-28 -40 -38 -89 -38 -152v-151c0 -144 58 -214 174 -211c116 -3 174 67 174 212z" />
    <glyph glyph-name="ohorn" unicode="&#x1a1;" horiz-adv-x="739" 
d="M286 534c142 0 221 -63 226 -205c65 6 97 35 101 79h-55v126h138v-96c0 -97 -52 -159 -184 -163v-99c0 -152 -77 -220 -226 -220c-145 0 -226 65 -226 220v139c0 152 81 219 226 219zM396 176v139c0 77 -20 125 -110 125c-73 0 -110 -33 -110 -120v-144
c0 -89 37 -127 110 -127s110 34 110 127z" />
    <glyph glyph-name="uni01A2" unicode="&#x1a2;" horiz-adv-x="907" 
d="M351 716h293c113 0 182 -30 182 -149v-791h-55c-44 0 -63 16 -63 61v730c0 54 -32 54 -63 54h-71v-651h-223c-197 0 -291 101 -291 304v137c0 203 94 305 291 305zM457 69v547h-106c-115 0 -174 -72 -174 -205v-138c0 -141 59 -204 174 -204h106z" />
    <glyph glyph-name="uni01A3" unicode="&#x1a3;" horiz-adv-x="759" 
d="M288 520h223c112 0 181 -37 181 -155v-589h-54c-45 0 -63 16 -63 61v529c-1 52 -32 60 -63 60h-36v-456h-188c-143 0 -225 67 -225 218v115c0 149 82 217 225 217zM360 63v363h-72c-68 0 -110 -42 -110 -123v-115c0 -80 40 -125 110 -125h72z" />
    <glyph glyph-name="uni01A4" unicode="&#x1a4;" horiz-adv-x="791" 
d="M514 244h-159v-274h-52c-46 0 -65 16 -65 61v590c-59 -2 -94 -16 -94 -68v-46h-116v46c0 112 65 163 214 163h272c139 0 221 -51 221 -189v-94c0 -71 -17 -189 -221 -189zM514 619h-159v-279h159c71 0 104 31 104 93v94c0 56 -28 92 -104 92z" />
    <glyph glyph-name="uni01A5" unicode="&#x1a5;" horiz-adv-x="559" 
d="M312 730v-94h-69c-31 0 -52 -16 -52 -62v-54h101c136 0 204 -61 204 -186v-149c0 -128 -74 -185 -204 -185h-101v-224h-53c-45 0 -63 16 -63 63v735c0 114 57 156 169 156h68zM191 427v-333h101c60 0 88 30 88 91v149c0 60 -28 93 -88 93h-101z" />
    <glyph glyph-name="uni01A6" unicode="&#x1a6;" horiz-adv-x="643" 
d="M341 188h-154v-218h-55c-44 0 -62 16 -62 61v685h116l1 -98h180c142 0 213 -72 213 -170v-79c0 -72 -33 -141 -121 -166l154 -333h-127zM367 522h-180v-237h180c62 0 96 32 96 93v55c0 54 -31 89 -96 89z" />
    <glyph glyph-name="uni01A7" unicode="&#x1a7;" horiz-adv-x="586" 
d="M542 -30h-240c-120 0 -253 41 -253 196c0 89 37 144 162 200l120 54c57 26 85 57 85 109c0 72 -57 92 -119 92h-154c-48 0 -70 10 -70 54v41h224c164 0 237 -76 237 -187c0 -84 -39 -150 -136 -193l-126 -56c-77 -34 -105 -68 -105 -115c0 -66 48 -101 138 -101h169
c52 0 68 -17 68 -55v-39z" />
    <glyph glyph-name="uni01A8" unicode="&#x1a8;" horiz-adv-x="474" 
d="M67 520h176c130 0 184 -81 184 -151c0 -79 -45 -122 -134 -152l-88 -29c-34 -11 -47 -32 -47 -61c0 -43 32 -63 77 -63h121c47 0 68 -19 68 -57v-37h-189c-119 0 -193 57 -193 157c0 71 34 123 128 152l92 30c36 11 49 35 49 60c0 31 -19 58 -68 58h-104
c-50 0 -72 15 -72 53v40z" />
    <glyph glyph-name="uni01A9" unicode="&#x1a9;" horiz-adv-x="566" 
d="M527 64v-36c0 -32 -10 -58 -63 -58h-409v91l217 285l-217 277v93h464v-36c0 -33 -11 -59 -64 -59h-267l217 -273l-219 -284h341z" />
    <glyph glyph-name="uni01AA" unicode="&#x1aa;" horiz-adv-x="399" 
d="M334 -224h-15c-111 0 -151 56 -151 152v576c-11 -2 -19 -2 -29 -2c-67 0 -118 47 -118 114c0 69 53 114 120 114c86 0 143 -47 143 -128v-674c0 -32 16 -59 45 -59h78v-37c0 -30 -16 -56 -73 -56zM106 616c0 -20 12 -35 33 -35c19 0 33 14 33 35c0 22 -15 36 -33 36
s-33 -14 -33 -36z" />
    <glyph glyph-name="uni01AB" unicode="&#x1ab;" horiz-adv-x="382" 
d="M350 64v-120c0 -105 -71 -168 -180 -168h-32v93h25c36 0 71 25 71 74v28c-96 6 -132 61 -132 152v304h-87v93h87v180h116v-180h124v-38c0 -32 -13 -55 -74 -55h-50v-304c0 -32 6 -59 36 -59h96z" />
    <glyph glyph-name="uni01AC" unicode="&#x1ac;" horiz-adv-x="681" 
d="M302 31v590h-89c-55 -3 -69 -29 -69 -68v-46h-116v46c0 112 42 163 191 163h438v-35c0 -42 -10 -60 -67 -60h-171v-651h-54c-44 0 -63 16 -63 61z" />
    <glyph glyph-name="uni01AD" unicode="&#x1ad;" horiz-adv-x="381" 
d="M341 730v-94h-72c-31 0 -52 -16 -52 -62v-54h124v-38c0 -32 -13 -55 -74 -55h-50v-304c0 -41 20 -59 56 -59h76v-38c0 -30 -15 -56 -72 -56h-24c-111 0 -152 56 -152 153v304h-87v93h87v54c0 111 57 156 169 156h71z" />
    <glyph glyph-name="uni01AE" unicode="&#x1ae;" horiz-adv-x="603" 
d="M233 -55v676h-215v95h570v-35c0 -42 -10 -60 -66 -60h-172v-677c0 -52 29 -74 72 -74h15v-94h-22c-111 0 -182 48 -182 169z" />
    <glyph glyph-name="Uhorn" unicode="&#x1af;" horiz-adv-x="849" 
d="M603 471v-501h-312c-143 0 -216 40 -216 199v547h117v-548c0 -80 25 -104 99 -104h195v652h117v-192c75 3 112 32 116 80h-55v126h138v-96c0 -101 -55 -163 -199 -163z" />
    <glyph glyph-name="uhorn" unicode="&#x1b0;" horiz-adv-x="736" 
d="M493 -30h-223c-141 0 -205 49 -205 200v350h115v-350c0 -88 24 -106 90 -106h107v456h116v-192c73 4 110 33 114 80h-55v126h138v-96c0 -100 -55 -163 -197 -163v-305z" />
    <glyph glyph-name="uni01B1" unicode="&#x1b1;" horiz-adv-x="707" 
d="M400 621v95h266v-35c0 -42 -10 -60 -67 -60h-29c44 -51 71 -120 71 -210v-138c0 -202 -91 -317 -291 -317c-197 0 -291 115 -291 318v137c0 87 27 158 72 210h-93v95h262v-95h-2c-88 -24 -122 -104 -122 -210v-138c0 -141 59 -217 174 -217c117 0 174 76 174 218v138
c0 104 -33 184 -119 209h-5z" />
    <glyph glyph-name="uni01B2" unicode="&#x1b2;" horiz-adv-x="684" 
d="M360 636v94h69c125 0 181 -46 181 -158v-297c0 -196 -78 -319 -268 -319s-269 88 -269 270v490h117v-490c0 -135 49 -175 152 -175c100 0 151 86 151 224v297c0 47 -23 64 -63 64h-70z" />
    <glyph glyph-name="uni01B3" unicode="&#x1b3;" horiz-adv-x="708" 
d="M693 716v-95h-31c-44 0 -50 -10 -86 -70l-171 -285v-296h-52c-45 0 -65 15 -65 61v234l-263 451h128l196 -339l129 222c47 81 72 117 185 117h30z" />
    <glyph glyph-name="uni01B4" unicode="&#x1b4;" horiz-adv-x="596" 
d="M318 -239h-228v40c0 42 18 58 70 58h158c46 0 60 21 60 54v85c-44 -4 -83 -6 -137 -8c-122 -4 -176 65 -176 179v351h116v-350c0 -57 14 -86 63 -85c51 1 91 5 134 9v480c0 111 59 156 171 156h27v-94h-28c-31 0 -54 -16 -54 -62v-662c0 -85 -51 -151 -176 -151z" />
    <glyph glyph-name="uni01B5" unicode="&#x1b5;" horiz-adv-x="636" 
d="M53 716h526v-89l-157 -219h174v-59c0 -28 -16 -37 -43 -37h-200l-178 -248h421v-57c0 -28 -16 -37 -43 -37h-512v92l180 250h-191v96h260l154 213h-391v95z" />
    <glyph glyph-name="uni01B6" unicode="&#x1b6;" horiz-adv-x="496" 
d="M165 65h295v-53c0 -27 -15 -42 -46 -42h-380v88l111 145h-112v94h184l99 130h-269v93h401v-88l-104 -135h99v-53c0 -27 -16 -41 -47 -41h-125z" />
    <glyph glyph-name="uni01B7" unicode="&#x1b7;" horiz-adv-x="576" 
d="M37 716h479v-90l-215 -246c180 -27 234 -138 234 -299c0 -215 -125 -308 -322 -305c-63 1 -105 4 -186 16v41c0 34 21 53 63 47c37 -5 79 -8 124 -8c97 0 204 45 204 203c0 151 -50 214 -180 214h-31c-29 0 -40 7 -40 35v58l203 238h-333v96z" />
    <glyph glyph-name="uni01B8" unicode="&#x1b8;" horiz-adv-x="576" 
d="M56 716h479v-96h-333c66 -78 136 -159 203 -236v-60c0 -28 -11 -35 -40 -35h-31c-117 0 -180 -63 -180 -214c0 -158 107 -203 204 -203c63 0 123 6 189 19l6 -52c3 -27 -15 -35 -33 -42c-23 -9 -99 -21 -161 -21c-191 0 -322 96 -322 305c0 134 55 272 235 300
c-72 83 -144 162 -216 245v90z" />
    <glyph glyph-name="uni01B9" unicode="&#x1b9;" horiz-adv-x="540" 
d="M55 520h436v-94h-273c60 -48 123 -98 183 -145v-57c0 -27 -11 -35 -40 -35h-30c-122 0 -178 -46 -178 -163c0 -105 78 -155 172 -155c62 0 105 6 168 16l6 -53c3 -27 -12 -36 -42 -44c-13 -3 -68 -14 -131 -14c-180 0 -289 84 -289 256c0 120 80 225 217 243
c-66 52 -134 104 -199 156v89z" />
    <glyph glyph-name="uni01BA" unicode="&#x1ba;" horiz-adv-x="541" 
d="M47 520h437v-88l-188 -137c121 -3 206 -45 206 -153c0 -115 -83 -152 -236 -165c-70 -6 -103 -25 -103 -62c0 -27 10 -60 99 -60h209v-52c0 -27 -15 -42 -46 -42h-165c-169 0 -208 70 -209 155c-1 105 85 143 210 156c80 9 125 25 125 69c0 50 -29 67 -120 67h-82
c-29 0 -40 8 -40 35v56l175 127h-272v94z" />
    <glyph glyph-name="uni01BB" unicode="&#x1bb;" horiz-adv-x="526" 
d="M417 -30h-307c-54 0 -76 14 -76 68v85c0 58 24 96 68 128l89 65h-161v94h287c31 31 40 64 40 99c0 66 -51 114 -132 114c-52 0 -106 -4 -178 -24v94c61 17 107 23 178 23c153 0 249 -79 248 -207c-1 -39 -8 -71 -22 -99h46v-38c0 -32 -13 -56 -63 -56h-70l-186 -135
c-22 -16 -29 -39 -29 -64v-53h331v-38c0 -32 -14 -56 -63 -56z" />
    <glyph glyph-name="uni01BC" unicode="&#x1bc;" horiz-adv-x="557" 
d="M267 327h-176v294h-74v95h479v-46c0 -39 -24 -49 -56 -49h-232v-200h65c175 0 239 -90 239 -224c0 -155 -69 -241 -242 -241c-42 0 -119 6 -188 18v41c0 42 32 47 55 45c38 -3 88 -8 124 -9c105 -3 134 45 134 146c0 62 -25 130 -128 130z" />
    <glyph glyph-name="uni01BD" unicode="&#x1bd;" horiz-adv-x="498" 
d="M245 230h-155v197h-73v93h416v-45c0 -39 -23 -48 -55 -48h-172v-104h44c133 0 199 -60 199 -176c0 -119 -72 -191 -217 -191c-41 0 -91 5 -158 17v40c0 42 34 45 56 44c31 -3 65 -8 93 -8c73 0 110 23 110 98c0 35 -12 83 -88 83z" />
    <glyph glyph-name="uni01BE" unicode="&#x1be;" horiz-adv-x="498" 
d="M252 231c-109 12 -151 56 -151 152v44h-87v93h87v141h116v-141h129v-45c0 -39 -23 -48 -55 -48h-74v-44c0 -32 9 -53 53 -57c124 -11 189 -71 189 -179c0 -119 -65 -191 -211 -191c-42 0 -89 5 -157 17v40c0 42 33 45 55 44c29 -2 65 -8 93 -8c72 0 104 23 104 98
c0 35 -13 75 -91 84z" />
    <glyph glyph-name="uni01BF" unicode="&#x1bf;" horiz-adv-x="545" 
d="M75 -161v681h213c136 0 204 -61 204 -186v-129c0 -115 -81 -168 -158 -216l-144 -90v-123h-52c-45 0 -63 16 -63 63zM190 427v-411l121 77c31 20 65 60 65 112v129c0 60 -28 93 -88 93h-98z" />
    <glyph glyph-name="uni01C0" unicode="&#x1c0;" horiz-adv-x="281" 
d="M84 716h117v-746h-54c-45 0 -63 16 -63 61v685z" />
    <glyph glyph-name="uni01C1" unicode="&#x1c1;" horiz-adv-x="477" 
d="M84 716h117v-746h-54c-44 0 -63 16 -63 61v685zM278 716h117v-746h-54c-45 0 -63 16 -63 61v685z" />
    <glyph glyph-name="uni01C2" unicode="&#x1c2;" horiz-adv-x="432" 
d="M410 525v-47c0 -38 -23 -48 -55 -48h-79v-120h134v-47c0 -38 -23 -48 -55 -48h-79v-245h-54c-44 0 -63 16 -63 61v184h-139v95h139v120h-139v95h139v191h117v-191h134z" />
    <glyph glyph-name="uni01C3" unicode="&#x1c3;" horiz-adv-x="347" 
d="M223 213h-101l-16 527h135zM235 97v-127h-127v127h127z" />
    <glyph glyph-name="uni01C4" unicode="&#x1c4;" horiz-adv-x="1280" 
d="M74 716h276c172 0 252 -93 252 -216v-316c0 -123 -80 -214 -252 -214h-276v746zM350 621h-160v-557h160c84 0 136 46 136 120v316c0 79 -52 121 -136 121zM892 921l62 -80l58 80h114l-120 -144h-104l-123 144h113zM685 716h526v-89l-404 -563h421v-57
c0 -28 -16 -37 -43 -37h-512v92l403 559h-391v95z" />
    <glyph glyph-name="uni01C5" unicode="&#x1c5;" horiz-adv-x="1142" 
d="M74 716h276c172 0 252 -93 252 -216v-316c0 -123 -80 -214 -252 -214h-276v746zM350 621h-160v-557h160c84 0 136 46 136 120v316c0 79 -52 121 -136 121zM806 64h295v-52c0 -27 -15 -42 -46 -42h-380v88l282 369h-269v93h401v-88zM831 725l62 -80l58 80h114l-120 -144
h-104l-123 144h113z" />
    <glyph glyph-name="uni01C6" unicode="&#x1c6;" horiz-adv-x="1018" 
d="M676 64h295v-52c0 -27 -15 -42 -46 -42h-380v88l282 369h-269v93h401v-88zM711 725l62 -80l58 80h114l-120 -144h-104l-123 144h113zM364 721h116v-751h-214c-135 0 -208 59 -208 179v193c0 118 73 178 208 178h98v201zM364 64v363h-99c-54 0 -91 -30 -91 -95v-174
c0 -63 37 -94 92 -94h98z" />
    <glyph glyph-name="uni01C7" unicode="&#x1c7;" horiz-adv-x="979" 
d="M191 716v-652h339v-36c0 -41 -14 -58 -61 -58h-395v746h117zM638 64h62c62 0 91 26 91 99v553h118v-553c0 -131 -62 -193 -209 -193h-129v39c0 42 18 55 67 55z" />
    <glyph glyph-name="uni01C8" unicode="&#x1c8;" horiz-adv-x="872" 
d="M191 716v-652h339v-36c0 -41 -14 -58 -61 -58h-395v746h117zM682 664v66h120v-134h-44c-42 0 -76 24 -76 68zM684 -77v597h116v-597c0 -112 -66 -162 -177 -162h-86v39c0 37 25 56 62 56h24c41 0 61 25 61 67z" />
    <glyph glyph-name="uni01C9" unicode="&#x1c9;" horiz-adv-x="561" 
d="M73 721h116v-751h-53c-44 0 -63 16 -63 62v689zM370 664v66h120v-134h-44c-42 0 -76 24 -76 68zM372 -77v597h116v-597c0 -112 -66 -162 -177 -162h-86v39c0 37 25 56 62 56h24c41 0 61 25 61 67z" />
    <glyph glyph-name="uni01CA" unicode="&#x1ca;" horiz-adv-x="1107" 
d="M74 31v685h312c143 0 216 -40 216 -199v-547h-53c-44 0 -64 16 -64 61v487c0 80 -25 103 -99 103h-195v-651h-54c-45 0 -63 16 -63 61zM765 64h62c62 0 91 26 91 99v553h118v-553c0 -131 -62 -193 -209 -193h-129v39c0 42 18 55 67 55z" />
    <glyph glyph-name="uni01CB" unicode="&#x1cb;" horiz-adv-x="1010" 
d="M74 31v685h312c143 0 216 -40 216 -199v-547h-53c-44 0 -64 16 -64 61v487c0 80 -25 103 -99 103h-195v-651h-54c-45 0 -63 16 -63 61zM819 664v66h120v-134h-44c-42 0 -76 24 -76 68zM821 -77v597h116v-597c0 -112 -66 -162 -177 -162h-86v39c0 37 25 56 62 56h24
c41 0 61 25 61 67z" />
    <glyph glyph-name="uni01CC" unicode="&#x1cc;" horiz-adv-x="851" 
d="M70 520h241c142 0 190 -49 190 -175v-375h-53c-44 0 -63 16 -63 62v313c0 64 -19 82 -74 82h-125v-457h-51c-46 0 -65 16 -65 62v488zM663 664v66h120v-134h-44c-42 0 -76 24 -76 68zM665 -77v597h116v-597c0 -112 -66 -162 -177 -162h-86v39c0 37 25 56 62 56h24
c41 0 61 25 61 67z" />
    <glyph glyph-name="uni01CD" unicode="&#x1cd;" horiz-adv-x="668" 
d="M533 -30l-80 249c-17 -19 -48 -35 -85 -35h-163l-68 -214h-120l250 746h90c27 0 50 -19 57 -41l238 -705h-119zM334 584l-98 -303h195zM273 925l62 -80l58 80h114l-120 -144h-104l-123 144h113z" />
    <glyph glyph-name="uni01CE" unicode="&#x1ce;" horiz-adv-x="544" 
d="M479 366v-396h-239c-114 0 -185 51 -185 150v61c0 114 71 163 185 160c49 -1 82 -3 123 -8v33c0 37 -21 61 -67 61h-130c-62 0 -72 23 -72 54v39h202c127 0 183 -54 183 -154zM241 243c-48 0 -70 -18 -70 -66v-53c0 -49 40 -60 70 -60h122v172c-46 5 -87 7 -122 7z
M211 725l62 -80l58 80h114l-120 -144h-104l-123 144h113z" />
    <glyph glyph-name="uni01CF" unicode="&#x1cf;" horiz-adv-x="282" 
d="M84 716h118v-746h-55c-45 0 -63 16 -63 61v685zM81 925l62 -80l58 80h114l-120 -144h-104l-123 144h113z" />
    <glyph glyph-name="uni01D0" unicode="&#x1d0;" horiz-adv-x="257" 
d="M65 725l62 -80l58 80h114l-120 -144h-104l-123 144h113zM69 520h116v-550h-52c-46 0 -64 16 -64 62v488z" />
    <glyph glyph-name="uni01D1" unicode="&#x1d1;" horiz-adv-x="702" 
d="M350 730c200 0 291 -112 291 -312v-151c0 -199 -91 -311 -291 -311c-197 0 -291 112 -291 312v150c0 200 94 312 291 312zM524 268v151c0 61 -11 117 -39 153c-28 37 -63 59 -135 59c-71 0 -107 -21 -136 -61c-28 -40 -38 -89 -38 -152v-151c0 -144 58 -214 174 -211
c116 -3 174 67 174 212zM285 925l62 -80l58 80h114l-120 -144h-104l-123 144h113z" />
    <glyph glyph-name="uni01D2" unicode="&#x1d2;" horiz-adv-x="574" 
d="M286 534c147 0 226 -67 226 -219v-139c0 -152 -77 -220 -226 -220c-145 0 -226 65 -226 220v139c0 152 81 219 226 219zM396 176v139c0 77 -20 125 -110 125c-73 0 -110 -33 -110 -120v-144c0 -89 37 -127 110 -127s110 34 110 127zM218 725l62 -80l58 80h114l-120 -144
h-104l-123 144h113z" />
    <glyph glyph-name="uni01D3" unicode="&#x1d3;" horiz-adv-x="684" 
d="M603 716v-746h-312c-143 0 -216 40 -216 199v547h117v-548c0 -80 25 -104 99 -104h195v652h117zM287 925l62 -80l58 80h114l-120 -144h-104l-123 144h113z" />
    <glyph glyph-name="uni01D4" unicode="&#x1d4;" horiz-adv-x="562" 
d="M493 -30h-223c-141 0 -205 49 -205 200v350h115v-350c0 -88 24 -106 90 -106h107v456h116v-550zM218 725l62 -80l58 80h114l-120 -144h-104l-123 144h113z" />
    <glyph glyph-name="uni01D5" unicode="&#x1d5;" horiz-adv-x="684" 
d="M603 716v-746h-312c-143 0 -216 40 -216 199v547h117v-548c0 -80 25 -104 99 -104h195v652h117zM505 870v-107h-121v107h121zM310 870v-107h-121v107h121zM177 1010h332v-87h-332v87z" />
    <glyph glyph-name="uni01D6" unicode="&#x1d6;" horiz-adv-x="562" 
d="M493 -30h-223c-141 0 -205 49 -205 200v350h115v-350c0 -88 24 -106 90 -106h107v456h116v-550zM435 700v-119h-121v119h121zM240 700v-119h-121v119h121zM108 844h332v-87h-332v87z" />
    <glyph glyph-name="uni01D7" unicode="&#x1d7;" horiz-adv-x="684" 
d="M603 716v-746h-312c-143 0 -216 40 -216 199v547h117v-548c0 -80 25 -104 99 -104h195v652h117zM514 860v-107h-121v107h121zM319 860v-107h-121v107h121zM329 1030h122l-91 -115c-19 -22 -34 -31 -68 -31h-49z" />
    <glyph glyph-name="uni01D8" unicode="&#x1d8;" horiz-adv-x="562" 
d="M493 -30h-223c-141 0 -205 49 -205 200v350h115v-350c0 -88 24 -106 90 -106h107v456h116v-550zM435 700v-119h-121v119h121zM240 700v-119h-121v119h121zM260 889h122l-91 -115c-19 -22 -34 -31 -68 -31h-49z" />
    <glyph glyph-name="uni01D9" unicode="&#x1d9;" horiz-adv-x="684" 
d="M603 716v-746h-312c-143 0 -216 40 -216 199v547h117v-548c0 -80 25 -104 99 -104h195v652h117zM501 860v-107h-121v107h121zM306 860v-107h-121v107h121zM277 1038l62 -80l58 80h114l-120 -144h-104l-123 144h113z" />
    <glyph glyph-name="uni01DA" unicode="&#x1da;" horiz-adv-x="562" 
d="M493 -30h-223c-141 0 -205 49 -205 200v350h115v-350c0 -88 24 -106 90 -106h107v456h116v-550zM435 700v-119h-121v119h121zM240 700v-119h-121v119h121zM215 889l62 -80l58 80h114l-120 -144h-104l-123 144h113z" />
    <glyph glyph-name="uni01DB" unicode="&#x1db;" horiz-adv-x="684" 
d="M603 716v-746h-312c-143 0 -216 40 -216 199v547h117v-548c0 -80 25 -104 99 -104h195v652h117zM504 860v-107h-121v107h121zM309 860v-107h-121v107h121zM228 1040h122l86 -146h-49c-34 0 -51 8 -68 31z" />
    <glyph glyph-name="uni01DC" unicode="&#x1dc;" horiz-adv-x="562" 
d="M493 -30h-223c-141 0 -205 49 -205 200v350h115v-350c0 -88 24 -106 90 -106h107v456h116v-550zM435 700v-119h-121v119h121zM240 700v-119h-121v119h121zM169 890h122l86 -146h-49c-34 0 -51 8 -68 31z" />
    <glyph glyph-name="uni01DD" unicode="&#x1dd;" horiz-adv-x="554" 
d="M302 440h-155c-62 0 -72 23 -72 54v40h227c118 0 195 -59 195 -169v-196c0 -142 -99 -199 -217 -199c-127 0 -221 61 -221 180v77c0 51 24 79 86 79h237v59c0 54 -30 75 -80 75zM382 150v62h-190c-9 0 -17 -6 -17 -20v-42c0 -53 37 -86 105 -86c62 0 102 33 102 86z" />
    <glyph glyph-name="uni01DE" unicode="&#x1de;" horiz-adv-x="668" 
d="M533 -30l-80 249c-17 -19 -48 -35 -85 -35h-163l-68 -214h-120l250 746h90c27 0 50 -19 57 -41l238 -705h-119zM334 584l-98 -303h195zM493 860v-107h-121v107h121zM298 860v-107h-121v107h121zM168 991h332v-87h-332v87z" />
    <glyph glyph-name="uni01DF" unicode="&#x1df;" horiz-adv-x="544" 
d="M479 366v-396h-239c-114 0 -185 51 -185 150v61c0 114 71 163 185 160c49 -1 82 -3 123 -8v33c0 37 -21 61 -67 61h-130c-62 0 -72 23 -72 54v39h202c127 0 183 -54 183 -154zM241 243c-48 0 -70 -18 -70 -66v-53c0 -49 40 -60 70 -60h122v172c-46 5 -87 7 -122 7z
M428 700v-119h-121v119h121zM233 700v-119h-121v119h121zM101 844h332v-87h-332v87z" />
    <glyph glyph-name="uni01E0" unicode="&#x1e0;" horiz-adv-x="668" 
d="M533 -30l-80 249c-17 -19 -48 -35 -85 -35h-163l-68 -214h-120l250 746h90c27 0 50 -19 57 -41l238 -705h-119zM334 584l-98 -303h195zM163 1001h332v-87h-332v87zM393 869v-115h-118v115h118z" />
    <glyph glyph-name="uni01E1" unicode="&#x1e1;" horiz-adv-x="544" 
d="M479 366v-396h-239c-114 0 -185 51 -185 150v61c0 114 71 163 185 160c49 -1 82 -3 123 -8v33c0 37 -21 61 -67 61h-130c-62 0 -72 23 -72 54v39h202c127 0 183 -54 183 -154zM241 243c-48 0 -70 -18 -70 -66v-53c0 -49 40 -60 70 -60h122v172c-46 5 -87 7 -122 7z
M101 854h332v-87h-332v87zM331 701v-115h-118v115h118z" />
    <glyph glyph-name="uni01E2" unicode="&#x1e2;" horiz-adv-x="1011" 
d="M918 -30h-421v241c-18 -16 -45 -27 -78 -27h-181l-94 -214h-127l330 746h622v-34c0 -38 -10 -61 -64 -61h-291v-210h324v-36c0 -32 -10 -58 -63 -58h-261v-253h367v-36c0 -32 -11 -58 -63 -58zM431 621l-150 -340h216v340h-66zM375 887h332v-87h-332v87z" />
    <glyph glyph-name="uni01E3" unicode="&#x1e3;" horiz-adv-x="855" 
d="M558 64h224v-40c0 -32 -8 -54 -72 -54h-152c-60 0 -107 16 -131 45c-22 -29 -63 -45 -104 -45h-83c-114 0 -185 51 -185 150v61c0 114 71 163 185 160c49 -1 82 -3 123 -8v34c0 37 -21 60 -67 60h-130c-62 0 -72 23 -72 54v39h202c64 0 103 -12 132 -40
c34 34 90 54 152 54c127 0 221 -71 221 -189v-63c0 -51 -23 -84 -85 -84h-237v-54c0 -51 36 -80 79 -80zM241 243c-48 0 -70 -18 -70 -66v-53c0 -49 40 -60 70 -60h65c31 0 57 26 57 58v114c-46 5 -87 7 -122 7zM479 348v-56h189c12 0 17 8 17 20v33c0 53 -36 95 -105 95
c-61 0 -101 -40 -101 -92zM262 686h332v-87h-332v87z" />
    <glyph glyph-name="uni01E4" unicode="&#x1e4;" horiz-adv-x="714" 
d="M278 716h304v-35c0 -41 -17 -60 -71 -60h-233c-58 0 -102 -38 -102 -102v-350c0 -58 34 -105 102 -105h119c49 0 77 32 83 75h-166v96h168v46c0 11 -6 20 -23 20h-80c-48 0 -69 11 -69 53v42h203c62 0 86 -28 86 -84v-77h89v-35c0 -42 -17 -61 -71 -61h-19
c-9 -114 -89 -169 -200 -169h-120c-128 0 -219 66 -219 200v349c0 126 97 197 219 197z" />
    <glyph glyph-name="uni01E5" unicode="&#x1e5;" horiz-adv-x="600" 
d="M179 -145h146c26 0 43 12 51 30h-235v85h240v31h-116c-125 0 -200 62 -200 178v164c0 117 79 177 200 177h231v-550h79v-25c0 -41 -18 -60 -71 -60h-10c-8 -64 -51 -124 -166 -124h-217v40c0 38 21 54 68 54zM181 342v-164c0 -70 49 -84 84 -84h116v333h-116
c-57 0 -84 -37 -84 -85z" />
    <glyph glyph-name="Gcaron" unicode="&#x1e6;" horiz-adv-x="672" 
d="M286 716h304v-35c0 -41 -17 -60 -71 -60h-233c-58 0 -102 -38 -102 -102v-350c0 -58 34 -105 102 -105h119c57 0 85 44 85 96v121c0 11 -6 20 -23 20h-80c-48 0 -69 11 -69 53v42h203c62 0 86 -28 86 -84v-152c0 -128 -83 -190 -201 -190h-120c-128 0 -219 66 -219 200
v349c0 126 97 197 219 197zM281 925l62 -80l58 80h114l-120 -144h-104l-123 144h113z" />
    <glyph glyph-name="gcaron" unicode="&#x1e7;" horiz-adv-x="561" 
d="M174 -145h146c38 0 56 23 56 58v57h-116c-125 0 -200 62 -200 178v195c0 117 79 177 200 177h231v-609c0 -73 -37 -150 -168 -150h-217v40c0 38 21 54 68 54zM176 342v-194c0 -70 49 -84 84 -84h116v363h-116c-57 0 -84 -37 -84 -85zM225 725l62 -80l58 80h114l-120 -144
h-104l-123 144h113z" />
    <glyph glyph-name="uni01E8" unicode="&#x1e8;" horiz-adv-x="645" 
d="M476 4l-263 351l273 361h142l-274 -360l287 -386h-93c-37 0 -56 11 -72 34zM74 716h117v-746h-55c-44 0 -62 18 -62 62v684zM258 925l62 -80l58 80h114l-120 -144h-104l-123 144h113z" />
    <glyph glyph-name="uni01E9" unicode="&#x1e9;" horiz-adv-x="574" 
d="M75 32v689h116v-751h-52c-47 0 -64 15 -64 62zM211 265l209 255h135l-213 -256l224 -294h-90c-25 0 -49 11 -64 31zM261 903l62 -80l58 80h114l-120 -144h-104l-123 144h113z" />
    <glyph glyph-name="uni01EA" unicode="&#x1ea;" horiz-adv-x="702" 
d="M350 730c200 0 291 -112 291 -312v-151c0 -165 -62 -269 -197 -301c-24 -24 -42 -56 -42 -83c0 -22 12 -39 38 -39c12 0 34 0 55 10v-78c-29 -14 -57 -15 -78 -15c-72 0 -108 45 -108 98c0 32 13 68 36 97c-194 2 -286 113 -286 312v150c0 200 94 312 291 312zM524 268
v151c0 61 -11 117 -39 153c-28 37 -63 59 -135 59c-71 0 -107 -21 -136 -61c-28 -40 -38 -89 -38 -152v-151c0 -144 58 -214 174 -211c116 -3 174 67 174 212z" />
    <glyph glyph-name="uni01EB" unicode="&#x1eb;" horiz-adv-x="574" 
d="M286 534c147 0 226 -67 226 -219v-139c0 -122 -50 -189 -146 -211c-24 -24 -41 -56 -41 -82c0 -22 12 -39 38 -39c12 0 34 0 55 10v-78c-29 -14 -57 -15 -78 -15c-72 0 -108 45 -108 98c0 32 13 68 36 98c-134 5 -208 70 -208 219v139c0 152 81 219 226 219zM396 176v139
c0 77 -20 125 -110 125c-73 0 -110 -33 -110 -120v-144c0 -89 37 -127 110 -127s110 34 110 127z" />
    <glyph glyph-name="uni01EC" unicode="&#x1ec;" horiz-adv-x="702" 
d="M350 730c200 0 291 -112 291 -312v-151c0 -170 -66 -275 -209 -303c-23 -24 -40 -55 -40 -81c0 -22 12 -39 38 -39c12 0 34 0 55 10v-78c-29 -14 -57 -15 -78 -15c-72 0 -108 45 -108 98c0 32 13 68 36 97c-187 6 -276 117 -276 312v150c0 200 94 312 291 312zM524 268
v151c0 61 -11 117 -39 153c-28 37 -63 59 -135 59c-71 0 -107 -21 -136 -61c-28 -40 -38 -89 -38 -152v-151c0 -144 58 -214 174 -211c116 -3 174 67 174 212zM181 886h332v-87h-332v87z" />
    <glyph glyph-name="uni01ED" unicode="&#x1ed;" horiz-adv-x="574" 
d="M286 534c147 0 226 -67 226 -219v-139c0 -130 -57 -199 -166 -216c-22 -23 -37 -52 -37 -77c0 -22 12 -39 38 -39c12 0 34 0 55 10v-78c-29 -14 -57 -15 -78 -15c-72 0 -108 45 -108 98c0 32 14 69 37 98c-124 10 -193 76 -193 219v139c0 152 81 219 226 219zM396 176
v139c0 77 -20 125 -110 125c-73 0 -110 -33 -110 -120v-144c0 -89 37 -127 110 -127s110 34 110 127zM118 686h332v-87h-332v87z" />
    <glyph glyph-name="uni01EE" unicode="&#x1ee;" horiz-adv-x="576" 
d="M37 716h479v-90l-215 -246c180 -27 234 -138 234 -299c0 -215 -125 -308 -322 -305c-63 1 -105 4 -186 16v41c0 34 21 53 63 47c37 -5 79 -8 124 -8c97 0 204 45 204 203c0 151 -50 214 -180 214h-31c-29 0 -40 7 -40 35v58l203 238h-333v96zM210 925l62 -80l58 80h114
l-120 -144h-104l-123 144h113z" />
    <glyph glyph-name="uni01EF" unicode="&#x1ef;" horiz-adv-x="540" 
d="M42 520h437v-89l-194 -165c137 -18 212 -108 212 -243c0 -175 -109 -250 -290 -247c-62 1 -95 2 -174 15v42c0 34 20 52 62 46c36 -5 69 -8 113 -8c95 0 173 41 173 146c0 118 -62 160 -178 163h-26c-29 0 -40 8 -40 35v57l180 154h-275v94zM200 725l62 -80l58 80h114
l-120 -144h-104l-123 144h113z" />
    <glyph glyph-name="uni01F0" unicode="&#x1f0;" horiz-adv-x="327" 
d="M127 725l62 -80l58 80h114l-120 -144h-104l-123 144h113zM136 -77v597h116v-597c0 -112 -66 -162 -177 -162h-86v39c0 37 25 56 62 56h24c41 0 61 25 61 67z" />
    <glyph glyph-name="uni01F1" unicode="&#x1f1;" horiz-adv-x="1271" 
d="M74 716h276c172 0 252 -93 252 -216v-316c0 -123 -80 -214 -252 -214h-276v746zM350 621h-160v-557h160c84 0 136 46 136 120v316c0 79 -52 121 -136 121zM684 716h526v-89l-404 -563h421v-57c0 -28 -16 -37 -43 -37h-512v92l403 559h-391v95z" />
    <glyph glyph-name="uni01F2" unicode="&#x1f2;" horiz-adv-x="1150" 
d="M74 716h276c172 0 252 -93 252 -216v-316c0 -123 -80 -214 -252 -214h-276v746zM350 621h-160v-557h160c84 0 136 46 136 120v316c0 79 -52 121 -136 121zM806 64h295v-52c0 -27 -15 -42 -46 -42h-380v88l282 369h-269v93h401v-88z" />
    <glyph glyph-name="uni01F3" unicode="&#x1f3;" horiz-adv-x="1033" 
d="M364 721h116v-751h-214c-135 0 -208 59 -208 179v193c0 118 73 178 208 178h98v201zM364 64v363h-99c-54 0 -91 -30 -91 -95v-174c0 -63 37 -94 92 -94h98zM686 64h295v-52c0 -27 -15 -42 -46 -42h-380v88l282 369h-269v93h401v-88z" />
    <glyph glyph-name="uni01F4" unicode="&#x1f4;" horiz-adv-x="672" 
d="M286 716h304v-35c0 -41 -17 -60 -71 -60h-233c-58 0 -102 -38 -102 -102v-350c0 -58 34 -105 102 -105h119c57 0 85 44 85 96v121c0 11 -6 20 -23 20h-80c-48 0 -69 11 -69 53v42h203c62 0 86 -28 86 -84v-152c0 -128 -83 -190 -201 -190h-120c-128 0 -219 66 -219 200
v349c0 126 97 197 219 197zM323 930h122l-91 -115c-19 -22 -34 -31 -68 -31h-49z" />
    <glyph glyph-name="uni01F5" unicode="&#x1f5;" horiz-adv-x="561" 
d="M174 -145h146c38 0 56 23 56 58v57h-116c-125 0 -200 62 -200 178v195c0 117 79 177 200 177h231v-609c0 -73 -37 -150 -168 -150h-217v40c0 38 21 54 68 54zM176 342v-194c0 -70 49 -84 84 -84h116v363h-116c-57 0 -84 -37 -84 -85zM257 730h122l-91 -115
c-19 -22 -34 -31 -68 -31h-49z" />
    <glyph glyph-name="uni01F6" unicode="&#x1f6;" horiz-adv-x="1050" 
d="M763 -30h-58c-143 0 -219 50 -219 203v173c-16 -20 -44 -28 -75 -28h-220v-348h-54c-45 0 -63 16 -63 61v685h117v-304h295v304h117v-543c0 -86 38 -109 102 -109h58c77 0 98 36 98 110v346h117v-353c0 -134 -61 -197 -215 -197z" />
    <glyph glyph-name="uni01F7" unicode="&#x1f7;" horiz-adv-x="629" 
d="M355 83l-165 -107v-200h-52c-46 0 -65 16 -65 61v879h276c139 0 221 -51 221 -189v-123c0 -149 -49 -213 -215 -321zM349 619h-159v-516l153 100c56 36 110 110 110 201v123c0 56 -28 92 -104 92z" />
    <glyph glyph-name="uni01F8" unicode="&#x1f8;" horiz-adv-x="677" 
d="M74 31v685h312c143 0 216 -40 216 -199v-547h-53c-44 0 -64 16 -64 61v487c0 80 -25 103 -99 103h-195v-651h-54c-45 0 -63 16 -63 61zM247 930h122l86 -146h-49c-34 0 -51 8 -68 31z" />
    <glyph glyph-name="uni01F9" unicode="&#x1f9;" horiz-adv-x="571" 
d="M70 520h241c142 0 190 -49 190 -175v-375h-53c-44 0 -63 16 -63 62v313c0 64 -19 82 -74 82h-125v-457h-51c-46 0 -65 16 -65 62v488zM164 730h122l86 -146h-49c-34 0 -51 8 -68 31z" />
    <glyph glyph-name="Aringacute" unicode="&#x1fa;" horiz-adv-x="668" 
d="M216 759c0 65 50 110 114 110c66 0 115 -45 115 -110c0 -33 -12 -60 -33 -80c1 -1 1 -3 2 -4l238 -705h-119l-80 249c-17 -19 -48 -35 -85 -35h-163l-68 -214h-120l236 705c-23 20 -37 49 -37 84zM334 584l-98 -303h195zM315 1042h122l-91 -115c-19 -22 -34 -31 -68 -31
h-49zM289 759c0 -24 19 -41 41 -41c23 0 42 17 42 41c0 23 -19 42 -42 42c-22 0 -41 -19 -41 -42z" />
    <glyph glyph-name="aringacute" unicode="&#x1fb;" horiz-adv-x="544" 
d="M479 366v-396h-239c-114 0 -185 51 -185 150v61c0 114 71 163 185 160c49 -1 82 -3 123 -8v33c0 37 -21 61 -67 61h-130c-62 0 -72 23 -72 54v39h202c127 0 183 -54 183 -154zM241 243c-48 0 -70 -18 -70 -66v-53c0 -49 40 -60 70 -60h122v172c-46 5 -87 7 -122 7z
M227 676c0 -24 19 -41 41 -41c23 0 42 17 42 41c0 23 -19 42 -42 42c-22 0 -41 -19 -41 -42zM154 676c0 65 50 110 114 110c66 0 115 -45 115 -110s-49 -110 -115 -110c-64 0 -114 45 -114 110zM253 946h122l-91 -115c-19 -22 -34 -31 -68 -31h-49z" />
    <glyph glyph-name="AEacute" unicode="&#x1fc;" horiz-adv-x="1011" 
d="M918 -30h-421v241c-18 -16 -45 -27 -78 -27h-181l-94 -214h-127l330 746h622v-34c0 -38 -10 -61 -64 -61h-291v-210h324v-36c0 -32 -10 -58 -63 -58h-261v-253h367v-36c0 -32 -11 -58 -63 -58zM431 621l-150 -340h216v340h-66zM540 930h122l-91 -115
c-19 -22 -34 -31 -68 -31h-49z" />
    <glyph glyph-name="aeacute" unicode="&#x1fd;" horiz-adv-x="855" 
d="M558 64h224v-40c0 -32 -8 -54 -72 -54h-152c-60 0 -107 16 -131 45c-22 -29 -63 -45 -104 -45h-83c-114 0 -185 51 -185 150v61c0 114 71 163 185 160c49 -1 82 -3 123 -8v34c0 37 -21 60 -67 60h-130c-62 0 -72 23 -72 54v39h202c64 0 103 -12 132 -40
c34 34 90 54 152 54c127 0 221 -71 221 -189v-63c0 -51 -23 -84 -85 -84h-237v-54c0 -51 36 -80 79 -80zM241 243c-48 0 -70 -18 -70 -66v-53c0 -49 40 -60 70 -60h65c31 0 57 26 57 58v114c-46 5 -87 7 -122 7zM479 348v-56h189c12 0 17 8 17 20v33c0 53 -36 95 -105 95
c-61 0 -101 -40 -101 -92zM429 730h122l-91 -115c-19 -22 -34 -31 -68 -31h-49z" />
    <glyph glyph-name="Oslashacute" unicode="&#x1fe;" horiz-adv-x="702" 
d="M351 730c35 0 67 -3 96 -10l25 61h118l-44 -108c65 -52 96 -139 96 -255v-151c0 -199 -91 -311 -291 -311c-35 0 -67 4 -95 11l-28 -69h-118l47 115c-66 52 -97 138 -97 255v150c0 200 94 312 291 312zM525 268v151c0 51 -10 96 -30 131l-200 -488c17 -4 36 -6 56 -6
c117 0 174 70 174 212zM351 631c-115 0 -174 -88 -174 -213v-151c0 -57 9 -102 28 -136l202 492c-17 5 -36 8 -56 8zM327 930h122l-91 -115c-19 -22 -34 -31 -68 -31h-49z" />
    <glyph glyph-name="oslashacute" unicode="&#x1ff;" horiz-adv-x="570" 
d="M286 534c19 0 36 -1 53 -4l34 86h110l-47 -120c50 -35 76 -94 76 -179v-143c0 -149 -78 -218 -226 -218c-22 0 -42 2 -61 5l-35 -90h-109l50 128c-46 34 -71 92 -71 175v143c0 149 82 217 226 217zM396 174v143c0 20 -3 39 -9 56l-127 -322c8 -2 17 -2 26 -2
c70 0 110 42 110 125zM286 440c-68 0 -110 -42 -110 -123v-143c0 -17 2 -33 5 -47l122 312c-5 0 -11 1 -17 1zM260 730h122l-91 -115c-19 -22 -34 -31 -68 -31h-49z" />
    <glyph glyph-name="uni0200" unicode="&#x200;" horiz-adv-x="668" 
d="M533 -30l-80 249c-17 -19 -48 -35 -85 -35h-163l-68 -214h-120l250 746h90c27 0 50 -19 57 -41l238 -705h-119zM334 584l-98 -303h195zM301 920h117l77 -146h-49c-33 0 -47 7 -64 31zM141 920h118l77 -146h-49c-34 0 -48 7 -65 31z" />
    <glyph glyph-name="uni0201" unicode="&#x201;" horiz-adv-x="544" 
d="M479 366v-396h-239c-114 0 -185 51 -185 150v61c0 114 71 163 185 160c49 -1 82 -3 123 -8v33c0 37 -21 61 -67 61h-130c-62 0 -72 23 -72 54v39h202c127 0 183 -54 183 -154zM241 243c-48 0 -70 -18 -70 -66v-53c0 -49 40 -60 70 -60h122v172c-46 5 -87 7 -122 7z
M251 730h117l77 -146h-49c-33 0 -47 7 -64 31zM91 730h118l77 -146h-49c-34 0 -48 7 -65 31z" />
    <glyph glyph-name="uni0202" unicode="&#x202;" horiz-adv-x="668" 
d="M533 -30l-80 249c-17 -19 -48 -35 -85 -35h-163l-68 -214h-120l250 746h90c27 0 50 -19 57 -41l238 -705h-119zM334 584l-98 -303h195zM268 769h-92c2 88 62 140 154 140c98 0 156 -52 159 -140h-92c-2 49 -38 60 -64 60c-28 0 -62 -12 -65 -60z" />
    <glyph glyph-name="uni0203" unicode="&#x203;" horiz-adv-x="544" 
d="M479 366v-396h-239c-114 0 -185 51 -185 150v61c0 114 71 163 185 160c49 -1 82 -3 123 -8v33c0 37 -21 61 -67 61h-130c-62 0 -72 23 -72 54v39h202c127 0 183 -54 183 -154zM241 243c-48 0 -70 -18 -70 -66v-53c0 -49 40 -60 70 -60h122v172c-46 5 -87 7 -122 7z
M212 576h-92c2 88 62 140 154 140c98 0 156 -52 159 -140h-92c-2 49 -38 60 -64 60c-28 0 -62 -12 -65 -60z" />
    <glyph glyph-name="uni0204" unicode="&#x204;" horiz-adv-x="602" 
d="M495 -30h-421v746h472v-34c0 -38 -10 -61 -64 -61h-291v-210h324v-36c0 -32 -10 -58 -63 -58h-261v-253h367v-36c0 -32 -11 -58 -63 -58zM281 920h117l77 -146h-49c-33 0 -47 7 -64 31zM121 920h118l77 -146h-49c-34 0 -48 7 -65 31z" />
    <glyph glyph-name="uni0205" unicode="&#x205;" horiz-adv-x="549" 
d="M250 64h224v-40c0 -32 -8 -54 -71 -54h-153c-118 0 -195 69 -195 179v186c0 142 100 199 217 199c128 0 221 -64 221 -180v-72c0 -48 -28 -84 -87 -84h-235v-49c0 -54 36 -85 79 -85zM171 354v-62h190c9 0 17 8 17 20v42c0 52 -37 86 -106 86c-61 0 -101 -34 -101 -86z
M241 730h117l77 -146h-49c-33 0 -47 7 -64 31zM81 730h118l77 -146h-49c-34 0 -48 7 -65 31z" />
    <glyph glyph-name="uni0206" unicode="&#x206;" horiz-adv-x="602" 
d="M495 -30h-421v746h472v-34c0 -38 -10 -61 -64 -61h-291v-210h324v-36c0 -32 -10 -58 -63 -58h-261v-253h367v-36c0 -32 -11 -58 -63 -58zM248 769h-92c2 88 62 140 154 140c98 0 156 -52 159 -140h-92c-2 49 -38 60 -64 60c-28 0 -62 -12 -65 -60z" />
    <glyph glyph-name="uni0207" unicode="&#x207;" horiz-adv-x="549" 
d="M250 64h224v-40c0 -32 -8 -54 -71 -54h-153c-118 0 -195 69 -195 179v186c0 142 100 199 217 199c128 0 221 -64 221 -180v-72c0 -48 -28 -84 -87 -84h-235v-49c0 -54 36 -85 79 -85zM171 354v-62h190c9 0 17 8 17 20v42c0 52 -37 86 -106 86c-61 0 -101 -34 -101 -86z
M212 576h-92c2 88 62 140 154 140c98 0 156 -52 159 -140h-92c-2 49 -38 60 -64 60c-28 0 -62 -12 -65 -60z" />
    <glyph glyph-name="uni0208" unicode="&#x208;" horiz-adv-x="282" 
d="M84 716h118v-746h-55c-45 0 -63 16 -63 61v685zM121 920h117l77 -146h-49c-33 0 -47 7 -64 31zM-39 920h118l77 -146h-49c-34 0 -48 7 -65 31z" />
    <glyph glyph-name="uni0209" unicode="&#x209;" horiz-adv-x="257" 
d="M95 730h117l77 -146h-49c-33 0 -47 7 -64 31zM-65 730h118l77 -146h-49c-34 0 -48 7 -65 31zM69 520h116v-550h-52c-46 0 -64 16 -64 62v488z" />
    <glyph glyph-name="uni020A" unicode="&#x20a;" horiz-adv-x="282" 
d="M84 716h118v-746h-55c-45 0 -63 16 -63 61v685zM78 769h-92c2 88 62 140 154 140c98 0 156 -52 159 -140h-92c-2 49 -38 60 -64 60c-28 0 -62 -12 -65 -60z" />
    <glyph glyph-name="uni020B" unicode="&#x20b;" horiz-adv-x="257" 
d="M64 576h-92c2 88 62 140 154 140c98 0 156 -52 159 -140h-92c-2 49 -38 60 -64 60c-28 0 -62 -12 -65 -60zM69 520h116v-550h-52c-46 0 -64 16 -64 62v488z" />
    <glyph glyph-name="uni020C" unicode="&#x20c;" horiz-adv-x="702" 
d="M350 730c200 0 291 -112 291 -312v-151c0 -199 -91 -311 -291 -311c-197 0 -291 112 -291 312v150c0 200 94 312 291 312zM524 268v151c0 61 -11 117 -39 153c-28 37 -63 59 -135 59c-71 0 -107 -21 -136 -61c-28 -40 -38 -89 -38 -152v-151c0 -144 58 -214 174 -211
c116 -3 174 67 174 212zM321 920h117l77 -146h-49c-33 0 -47 7 -64 31zM161 920h118l77 -146h-49c-34 0 -48 7 -65 31z" />
    <glyph glyph-name="uni020D" unicode="&#x20d;" horiz-adv-x="574" 
d="M286 534c147 0 226 -67 226 -219v-139c0 -152 -77 -220 -226 -220c-145 0 -226 65 -226 220v139c0 152 81 219 226 219zM396 176v139c0 77 -20 125 -110 125c-73 0 -110 -33 -110 -120v-144c0 -89 37 -127 110 -127s110 34 110 127zM251 730h117l77 -146h-49
c-33 0 -47 7 -64 31zM91 730h118l77 -146h-49c-34 0 -48 7 -65 31z" />
    <glyph glyph-name="uni020E" unicode="&#x20e;" horiz-adv-x="702" 
d="M350 730c200 0 291 -112 291 -312v-151c0 -199 -91 -311 -291 -311c-197 0 -291 112 -291 312v150c0 200 94 312 291 312zM524 268v151c0 61 -11 117 -39 153c-28 37 -63 59 -135 59c-71 0 -107 -21 -136 -61c-28 -40 -38 -89 -38 -152v-151c0 -144 58 -214 174 -211
c116 -3 174 67 174 212zM285 769h-92c2 88 62 140 154 140c98 0 156 -52 159 -140h-92c-2 49 -38 60 -64 60c-28 0 -62 -12 -65 -60z" />
    <glyph glyph-name="uni020F" unicode="&#x20f;" horiz-adv-x="574" 
d="M286 534c147 0 226 -67 226 -219v-139c0 -152 -77 -220 -226 -220c-145 0 -226 65 -226 220v139c0 152 81 219 226 219zM396 176v139c0 77 -20 125 -110 125c-73 0 -110 -33 -110 -120v-144c0 -89 37 -127 110 -127s110 34 110 127zM226 576h-92c2 88 62 140 154 140
c98 0 156 -52 159 -140h-92c-2 49 -38 60 -64 60c-28 0 -62 -12 -65 -60z" />
    <glyph glyph-name="uni0210" unicode="&#x210;" horiz-adv-x="643" 
d="M344 286h-154v-316h-55c-44 0 -62 16 -62 61v685h297c142 0 213 -73 213 -170v-79c0 -72 -35 -143 -121 -167c48 -107 104 -224 153 -330h-127zM370 619h-180v-237h180c62 0 96 32 96 94v54c0 55 -31 89 -96 89zM301 920h117l77 -146h-49c-33 0 -47 7 -64 31zM141 920
h118l77 -146h-49c-34 0 -48 7 -65 31z" />
    <glyph glyph-name="uni0211" unicode="&#x211;" horiz-adv-x="418" 
d="M183 379v-409h-53c-44 0 -63 16 -63 62v347c0 90 42 141 150 141h182v-29c0 -49 -34 -64 -79 -64h-103c-26 0 -34 -22 -34 -48zM205 730h117l77 -146h-49c-33 0 -47 7 -64 31zM45 730h118l77 -146h-49c-34 0 -48 7 -65 31z" />
    <glyph glyph-name="uni0212" unicode="&#x212;" horiz-adv-x="643" 
d="M344 286h-154v-316h-55c-44 0 -62 16 -62 61v685h297c142 0 213 -73 213 -170v-79c0 -72 -35 -143 -121 -167c48 -107 104 -224 153 -330h-127zM370 619h-180v-237h180c62 0 96 32 96 94v54c0 55 -31 89 -96 89zM248 769h-92c2 88 62 140 154 140c98 0 156 -52 159 -140
h-92c-2 49 -38 60 -64 60c-28 0 -62 -12 -65 -60z" />
    <glyph glyph-name="uni0213" unicode="&#x213;" horiz-adv-x="418" 
d="M183 379v-409h-53c-44 0 -63 16 -63 62v347c0 90 42 141 150 141h182v-29c0 -49 -34 -64 -79 -64h-103c-26 0 -34 -22 -34 -48zM169 576h-92c2 88 62 140 154 140c98 0 156 -52 159 -140h-92c-2 49 -38 60 -64 60c-28 0 -62 -12 -65 -60z" />
    <glyph glyph-name="uni0214" unicode="&#x214;" horiz-adv-x="684" 
d="M603 716v-746h-312c-143 0 -216 40 -216 199v547h117v-548c0 -80 25 -104 99 -104h195v652h117zM331 920h117l77 -146h-49c-33 0 -47 7 -64 31zM171 920h118l77 -146h-49c-34 0 -48 7 -65 31z" />
    <glyph glyph-name="uni0215" unicode="&#x215;" horiz-adv-x="562" 
d="M493 -30h-223c-141 0 -205 49 -205 200v350h115v-350c0 -88 24 -106 90 -106h107v456h116v-550zM251 730h117l77 -146h-49c-33 0 -47 7 -64 31zM91 730h118l77 -146h-49c-34 0 -48 7 -65 31z" />
    <glyph glyph-name="uni0216" unicode="&#x216;" horiz-adv-x="684" 
d="M603 716v-746h-312c-143 0 -216 40 -216 199v547h117v-548c0 -80 25 -104 99 -104h195v652h117zM278 769h-92c2 88 62 140 154 140c98 0 156 -52 159 -140h-92c-2 49 -38 60 -64 60c-28 0 -62 -12 -65 -60z" />
    <glyph glyph-name="uni0217" unicode="&#x217;" horiz-adv-x="562" 
d="M493 -30h-223c-141 0 -205 49 -205 200v350h115v-350c0 -88 24 -106 90 -106h107v456h116v-550zM213 576h-92c2 88 62 140 154 140c98 0 156 -52 159 -140h-92c-2 49 -38 60 -64 60c-28 0 -62 -12 -65 -60z" />
    <glyph glyph-name="Scommaaccent" unicode="&#x218;" horiz-adv-x="578" 
d="M280 -30h-240v39c0 38 16 55 68 55h169c90 0 138 35 138 101c0 47 -28 81 -105 115l-126 56c-97 43 -136 109 -136 193c0 111 73 187 237 187h224v-41c0 -44 -22 -54 -70 -54h-154c-62 0 -119 -20 -119 -92c0 -52 28 -83 85 -109l120 -54c125 -56 162 -111 162 -200
c0 -155 -133 -196 -253 -196zM251 -334l-35 46c32 17 55 50 57 83h-55v126h138v-94c0 -69 -39 -134 -105 -161z" />
    <glyph glyph-name="scommaaccent" unicode="&#x219;" horiz-adv-x="474" 
d="M232 520h176v-40c0 -38 -22 -53 -72 -53h-104c-49 0 -68 -27 -68 -58c0 -25 13 -49 49 -60l92 -30c94 -29 128 -81 128 -152c0 -100 -74 -157 -193 -157h-189v37c0 38 21 57 68 57h121c45 0 77 20 77 63c0 29 -13 50 -47 61l-88 29c-89 30 -134 73 -134 152
c0 70 54 151 184 151zM205 -334l-35 46c32 17 55 50 57 83h-55v126h138v-94c0 -69 -39 -134 -105 -161z" />
    <glyph glyph-name="uni021A" unicode="&#x21a;" horiz-adv-x="603" 
d="M244 31v590h-226v95h570v-35c0 -42 -10 -60 -66 -60h-161v-651h-54c-44 0 -63 16 -63 61zM270 -334l-35 46c32 17 55 50 57 83h-55v126h138v-94c0 -69 -39 -134 -105 -161z" />
    <glyph glyph-name="uni021B" unicode="&#x21b;" horiz-adv-x="367" 
d="M277 -30h-25c-111 0 -151 53 -151 153v304h-87v93h87v180h116v-180h124v-38c0 -32 -13 -55 -74 -55h-50v-304c0 -44 19 -59 49 -59h83v-38c0 -30 -16 -56 -72 -56zM153 -334l-35 46c32 17 55 50 57 83h-55v126h138v-94c0 -69 -39 -134 -105 -161z" />
    <glyph glyph-name="uni021C" unicode="&#x21c;" horiz-adv-x="559" 
d="M515 138c0 -152 -71 -220 -241 -280l-232 -82v103l207 77c101 38 150 87 150 181c0 65 -46 123 -95 105l-220 -79v106l212 77c60 22 96 81 96 144c0 95 -45 146 -133 146c-62 0 -112 -10 -189 -33l-7 94c80 25 131 33 194 33c150 0 249 -64 249 -236
c0 -83 -45 -151 -94 -185c66 -23 103 -91 103 -171z" />
    <glyph glyph-name="uni021D" unicode="&#x21d;" horiz-adv-x="508" 
d="M472 89c0 -113 -62 -165 -220 -227l-220 -86v102l196 79c101 41 129 67 129 131c0 37 -22 61 -55 61c-9 0 -19 -2 -30 -6l-199 -77v104l191 76c49 20 85 48 85 94c0 62 -33 100 -102 100c-61 0 -122 -9 -198 -33l-6 94c79 25 140 33 202 33c129 0 217 -61 217 -186
c0 -71 -40 -110 -82 -137c51 -13 92 -55 92 -122z" />
    <glyph glyph-name="uni021E" unicode="&#x21e;" horiz-adv-x="680" 
d="M486 716h117v-746h-53c-45 0 -64 16 -64 61v313c-16 -19 -44 -26 -75 -26h-220v-348h-54c-45 0 -63 16 -63 61v685h117v-304h295v304zM275 925l62 -80l58 80h114l-120 -144h-104l-123 144h113z" />
    <glyph glyph-name="uni021F" unicode="&#x21f;" horiz-adv-x="574" 
d="M320 427h-130v-457h-53c-45 0 -63 16 -63 62v689h116v-201h130c127 0 188 -56 188 -168v-382h-52c-44 0 -64 16 -64 62v319c0 54 -28 76 -72 76zM234 905l62 -80l58 80h114l-120 -144h-104l-123 144h113z" />
    <glyph glyph-name="uni0220" unicode="&#x220;" horiz-adv-x="679" 
d="M73 31v685h309c141 0 214 -39 214 -196v-744h-52c-45 0 -64 16 -64 61v684c0 79 -25 102 -98 102h-194v-653h-53c-44 0 -62 16 -62 61z" />
    <glyph glyph-name="uni0221" unicode="&#x221;" horiz-adv-x="723" 
d="M372 721h116v-724c18 8 50 13 72 13c80 0 134 -38 137 -107c3 -71 -56 -117 -134 -118c-35 -1 -75 9 -102 31c-3 -12 -4 -30 -4 -40h-104c0 48 11 99 39 133c-5 14 -7 37 -8 61h-110c-135 0 -208 59 -208 179v193c0 118 73 178 208 178h98v201zM372 64v363h-99
c-54 0 -91 -30 -91 -95v-174c0 -63 37 -94 92 -94h98zM561 -77c-18 0 -38 -7 -54 -19c13 -19 35 -29 54 -29c20 0 32 10 32 24c0 12 -11 24 -32 24z" />
    <glyph glyph-name="uni0222" unicode="&#x222;" horiz-adv-x="609" 
d="M444 180c0 77 -47 130 -139 130c-104 0 -145 -59 -145 -130c0 -73 47 -129 142 -129c99 0 142 60 142 129zM560 181c0 -136 -73 -225 -258 -225c-182 0 -258 77 -258 225c0 83 40 144 94 175c-50 26 -83 78 -83 150c0 108 69 172 164 172h44v-99h-35
c-36 0 -58 -29 -58 -81c0 -57 39 -94 134 -94c89 0 131 40 131 115c0 63 -28 103 -83 103h-33v94h34c118 0 198 -59 198 -191c0 -78 -36 -136 -88 -167c60 -24 97 -87 97 -177z" />
    <glyph glyph-name="uni0223" unicode="&#x223;" horiz-adv-x="537" 
d="M376 178c0 65 -19 138 -105 138c-88 0 -112 -71 -112 -138c0 -70 30 -129 109 -129c83 0 108 65 108 129zM491 179c0 -148 -66 -223 -223 -223c-144 0 -224 73 -224 223c0 96 35 154 92 187c-48 27 -81 77 -81 168c0 99 61 196 194 196v-93c-50 0 -80 -43 -80 -106
c0 -70 32 -122 101 -122c60 0 98 48 98 119c0 50 -8 99 -74 110v92c140 -8 189 -94 189 -201c0 -87 -41 -143 -81 -162c53 -32 89 -92 89 -188z" />
    <glyph glyph-name="uni0224" unicode="&#x224;" horiz-adv-x="644" 
d="M57 716h526v-89l-404 -563h239c150 0 194 -50 194 -162v-49h-116v49c0 42 -18 67 -78 68h-373v92l403 559h-391v95z" />
    <glyph glyph-name="uni0225" unicode="&#x225;" horiz-adv-x="543" 
d="M180 65h133c148 0 191 -51 191 -162v-50h-114v50c0 42 -17 66 -77 67h-264v88l282 369h-269v93h401v-88z" />
    <glyph glyph-name="uni0226" unicode="&#x226;" horiz-adv-x="668" 
d="M533 -30l-80 249c-17 -19 -48 -35 -85 -35h-163l-68 -214h-120l250 746h90c27 0 50 -19 57 -41l238 -705h-119zM334 584l-98 -303h195zM392 900v-115h-118v115h118z" />
    <glyph glyph-name="uni0227" unicode="&#x227;" horiz-adv-x="544" 
d="M479 366v-396h-239c-114 0 -185 51 -185 150v61c0 114 71 163 185 160c49 -1 82 -3 123 -8v33c0 37 -21 61 -67 61h-130c-62 0 -72 23 -72 54v39h202c127 0 183 -54 183 -154zM241 243c-48 0 -70 -18 -70 -66v-53c0 -49 40 -60 70 -60h122v172c-46 5 -87 7 -122 7z
M330 700v-115h-118v115h118z" />
    <glyph glyph-name="uni0228" unicode="&#x228;" horiz-adv-x="602" 
d="M258 -30h-184v746h472v-34c0 -38 -10 -61 -64 -61h-291v-210h324v-36c0 -32 -10 -58 -63 -58h-261v-253h367v-36c0 -32 -11 -58 -63 -58h-142l-13 -42c53 -10 71 -35 71 -71c0 -60 -52 -96 -149 -96c-27 0 -55 4 -81 11l12 68c26 -5 54 -6 63 -6c42 0 54 10 54 27
c0 12 -8 26 -77 26z" />
    <glyph glyph-name="uni0229" unicode="&#x229;" horiz-adv-x="549" 
d="M250 64h224v-40c0 -32 -8 -54 -71 -54h-60l-13 -42c53 -10 71 -35 71 -71c0 -60 -52 -96 -149 -96c-27 0 -55 4 -81 11l12 68c26 -5 54 -6 63 -6c42 0 54 10 54 27c0 12 -8 26 -77 26l25 83c-117 1 -193 69 -193 179v186c0 142 100 199 217 199c128 0 221 -64 221 -180
v-72c0 -48 -28 -84 -87 -84h-235v-49c0 -54 36 -85 79 -85zM171 354v-62h190c9 0 17 8 17 20v42c0 52 -37 86 -106 86c-61 0 -101 -34 -101 -86z" />
    <glyph glyph-name="uni022A" unicode="&#x22a;" horiz-adv-x="702" 
d="M350 730c200 0 291 -112 291 -312v-151c0 -199 -91 -311 -291 -311c-197 0 -291 112 -291 312v150c0 200 94 312 291 312zM524 268v151c0 61 -11 117 -39 153c-28 37 -63 59 -135 59c-71 0 -107 -21 -136 -61c-28 -40 -38 -89 -38 -152v-151c0 -144 58 -214 174 -211
c116 -3 174 67 174 212zM511 880v-107h-121v107h121zM316 880v-107h-121v107h121zM185 1023h332v-87h-332v87z" />
    <glyph glyph-name="uni022B" unicode="&#x22b;" horiz-adv-x="574" 
d="M286 534c147 0 226 -67 226 -219v-139c0 -152 -77 -220 -226 -220c-145 0 -226 65 -226 220v139c0 152 81 219 226 219zM396 176v139c0 77 -20 125 -110 125c-73 0 -110 -33 -110 -120v-144c0 -89 37 -127 110 -127s110 34 110 127zM446 700v-119h-121v119h121zM251 700
v-119h-121v119h121zM120 847h332v-87h-332v87z" />
    <glyph glyph-name="uni022C" unicode="&#x22c;" horiz-adv-x="702" 
d="M350 730c200 0 291 -112 291 -312v-151c0 -199 -91 -311 -291 -311c-197 0 -291 112 -291 312v150c0 200 94 312 291 312zM524 268v151c0 61 -11 117 -39 153c-28 37 -63 59 -135 59c-71 0 -107 -21 -136 -61c-28 -40 -38 -89 -38 -152v-151c0 -144 58 -214 174 -211
c116 -3 174 67 174 212zM272 889c33 0 64 -14 87 -24c18 -8 37 -18 51 -18c25 0 35 16 35 42h92c0 -73 -48 -121 -122 -121c-37 0 -62 14 -87 26c-16 7 -33 18 -51 18c-21 0 -38 -14 -39 -45h-91c0 78 53 122 125 122zM180 1018h332v-87h-332v87z" />
    <glyph glyph-name="uni022D" unicode="&#x22d;" horiz-adv-x="574" 
d="M286 534c147 0 226 -67 226 -219v-139c0 -152 -77 -220 -226 -220c-145 0 -226 65 -226 220v139c0 152 81 219 226 219zM396 176v139c0 77 -20 125 -110 125c-73 0 -110 -33 -110 -120v-144c0 -89 37 -127 110 -127s110 34 110 127zM215 710c33 0 64 -15 87 -27
c18 -9 37 -20 51 -20c25 0 35 18 35 47h92c0 -81 -48 -134 -122 -134c-37 0 -62 15 -87 28c-16 8 -33 20 -51 20c-21 0 -38 -15 -39 -49h-91c0 86 53 135 125 135zM108 845h332v-87h-332v87z" />
    <glyph glyph-name="uni022E" unicode="&#x22e;" horiz-adv-x="702" 
d="M350 730c200 0 291 -112 291 -312v-151c0 -199 -91 -311 -291 -311c-197 0 -291 112 -291 312v150c0 200 94 312 291 312zM524 268v151c0 61 -11 117 -39 153c-28 37 -63 59 -135 59c-71 0 -107 -21 -136 -61c-28 -40 -38 -89 -38 -152v-151c0 -144 58 -214 174 -211
c116 -3 174 67 174 212zM404 900v-115h-118v115h118z" />
    <glyph glyph-name="uni022F" unicode="&#x22f;" horiz-adv-x="574" 
d="M286 534c147 0 226 -67 226 -219v-139c0 -152 -77 -220 -226 -220c-145 0 -226 65 -226 220v139c0 152 81 219 226 219zM396 176v139c0 77 -20 125 -110 125c-73 0 -110 -33 -110 -120v-144c0 -89 37 -127 110 -127s110 34 110 127zM347 700v-115h-118v115h118z" />
    <glyph glyph-name="uni0230" unicode="&#x230;" horiz-adv-x="702" 
d="M350 730c200 0 291 -112 291 -312v-151c0 -199 -91 -311 -291 -311c-197 0 -291 112 -291 312v150c0 200 94 312 291 312zM524 268v151c0 61 -11 117 -39 153c-28 37 -63 59 -135 59c-71 0 -107 -21 -136 -61c-28 -40 -38 -89 -38 -152v-151c0 -144 58 -214 174 -211
c116 -3 174 67 174 212zM407 890v-115h-118v115h118zM182 1017h332v-87h-332v87z" />
    <glyph glyph-name="uni0231" unicode="&#x231;" horiz-adv-x="574" 
d="M286 534c147 0 226 -67 226 -219v-139c0 -152 -77 -220 -226 -220c-145 0 -226 65 -226 220v139c0 152 81 219 226 219zM396 176v139c0 77 -20 125 -110 125c-73 0 -110 -33 -110 -120v-144c0 -89 37 -127 110 -127s110 34 110 127zM337 700v-115h-118v115h118zM114 845
h332v-87h-332v87z" />
    <glyph glyph-name="uni0232" unicode="&#x232;" horiz-adv-x="683" 
d="M396 267v-297h-52c-45 0 -65 15 -65 61v234l-263 451h128l196 -339l197 339h128zM176 886h332v-87h-332v87z" />
    <glyph glyph-name="uni0233" unicode="&#x233;" horiz-adv-x="562" 
d="M317 -239h-228v40c0 42 18 58 70 58h158c46 0 60 21 60 54v65c-44 -4 -83 -6 -137 -8c-122 -4 -176 65 -176 179v371h116v-370c0 -57 14 -86 63 -85c51 1 91 5 134 9v446h116v-608c0 -85 -51 -151 -176 -151zM111 686h332v-87h-332v87z" />
    <glyph glyph-name="uni0234" unicode="&#x234;" horiz-adv-x="419" 
d="M79 721h115v-721c18 6 44 10 62 10c80 0 134 -38 137 -107c3 -71 -56 -117 -134 -118c-35 -1 -75 9 -102 31c-3 -12 -4 -30 -4 -40h-104c0 48 11 99 39 133c-8 26 -9 81 -9 119v693zM257 -77c-18 0 -38 -7 -54 -19c13 -19 35 -29 54 -29c20 0 32 10 32 24
c0 12 -11 24 -32 24z" />
    <glyph glyph-name="uni0235" unicode="&#x235;" horiz-adv-x="721" 
d="M70 520h241c142 0 190 -49 190 -175v-344c18 6 43 9 61 9c80 0 134 -38 137 -107c3 -71 -56 -117 -134 -118c-35 -1 -75 9 -102 31c-3 -12 -4 -30 -4 -40h-104c0 48 11 99 39 133c-8 26 -9 81 -9 119v317c0 64 -19 82 -74 82h-125v-457h-51c-46 0 -65 16 -65 62v488z
M563 -77c-18 0 -38 -7 -54 -19c13 -19 35 -29 54 -29c20 0 32 10 32 24c0 12 -11 24 -32 24z" />
    <glyph glyph-name="uni0236" unicode="&#x236;" horiz-adv-x="450" 
d="M112 28v398h-88v93h88v181h115v-181h125v-38c0 -32 -14 -55 -74 -55h-51v-426c18 6 44 10 62 10c80 0 134 -38 137 -107c3 -71 -56 -117 -134 -118c-35 -1 -75 9 -102 31c-3 -12 -4 -30 -4 -40h-104c0 48 11 99 39 133c-8 26 -9 81 -9 119zM290 -77c-18 0 -38 -7 -54 -19
c13 -19 35 -29 54 -29c20 0 32 10 32 24c0 12 -11 24 -32 24z" />
    <glyph glyph-name="uni0237" unicode="&#x237;" horiz-adv-x="327" 
d="M136 -77v597h116v-597c0 -112 -66 -162 -177 -162h-86v39c0 37 25 56 62 56h24c41 0 61 25 61 67z" />
    <glyph glyph-name="uni0238" unicode="&#x238;" horiz-adv-x="839" 
d="M357 721h116v-201h92c135 0 209 -60 209 -178v-193c0 -120 -74 -179 -209 -179h-301c-135 0 -208 59 -208 179v193c0 118 73 178 208 178h93v201zM357 64v363h-94c-54 0 -91 -30 -91 -95v-174c0 -63 37 -94 92 -94h93zM473 427v-363h92c55 0 93 31 93 94v174
c0 65 -38 95 -92 95h-93z" />
    <glyph glyph-name="uni0239" unicode="&#x239;" horiz-adv-x="853" 
d="M268 520h311c136 0 204 -61 204 -186v-149c0 -128 -74 -185 -204 -185h-97v-224h-53c-49 0 -63 20 -63 63v161h-98c-130 0 -203 57 -203 185v149c0 125 67 186 203 186zM366 94v333h-98c-60 0 -88 -33 -88 -93v-149c0 -61 28 -91 88 -91h98zM482 427v-333h97
c60 0 88 30 88 91v149c0 60 -28 93 -88 93h-97z" />
    <glyph glyph-name="uni023A" unicode="&#x23a;" horiz-adv-x="661" 
d="M533 -30l-80 249c-17 -19 -48 -35 -85 -35h-6l-116 -286h-113l116 286h-44l-68 -214h-120l250 746h90c27 0 50 -19 57 -41l15 -46l62 152h114l-124 -305l171 -506h-119zM334 584l-98 -303h52l80 196zM401 281h30l-13 40z" />
    <glyph glyph-name="uni023B" unicode="&#x23b;" horiz-adv-x="585" 
d="M397 781h114l-21 -65h47v-36c0 -33 -10 -59 -74 -59h-2l-173 -557h259v-37c0 -30 -12 -57 -75 -57h-214l-22 -72h-113l31 100c-58 32 -93 92 -93 168v357c0 119 84 193 229 193h87zM178 510v-337c0 -21 4 -41 12 -58l157 506h-54c-77 0 -115 -38 -115 -111z" />
    <glyph glyph-name="uni023C" unicode="&#x23c;" horiz-adv-x="514" 
d="M297 64h176v-37c0 -31 -8 -57 -72 -57h-130l-32 -112h-103l37 133c-63 28 -103 84 -103 165v176c0 117 86 188 207 188h46l34 121h104l-35 -121h42v-34c0 -32 -6 -59 -68 -59zM186 332v-175c0 -24 6 -45 17 -61l93 331h-19c-59 0 -91 -33 -91 -95z" />
    <glyph glyph-name="uni023D" unicode="&#x23d;" horiz-adv-x="587" 
d="M227 319v-255h339v-36c0 -41 -14 -58 -61 -58h-395v349h-89v95h89v302h117v-302h184v-37c0 -40 -15 -58 -61 -58h-123z" />
    <glyph glyph-name="uni023E" unicode="&#x23e;" horiz-adv-x="603" 
d="M244 284v337h-226v95h408l24 56h115l-24 -56h47v-35c0 -42 -10 -60 -66 -60h-21l-140 -331v-320h-54c-39 0 -58 13 -62 46l-50 -118h-114zM361 621v-60l25 60h-25z" />
    <glyph glyph-name="uni023F" unicode="&#x23f;" horiz-adv-x="465" 
d="M221 520h176v-40c0 -38 -22 -53 -72 -53h-104c-49 0 -68 -27 -68 -58c0 -25 13 -49 49 -60l92 -30c94 -30 128 -81 128 -152c0 -91 -61 -146 -162 -155c3 -6 6 -13 10 -20c16 -32 30 -83 80 -83c9 0 19 0 52 3l6 -52c5 -42 -49 -44 -58 -44c-111 -1 -139 56 -175 141
c-11 27 -25 47 -59 53h-76v37c0 38 21 57 68 57h121c45 0 77 20 77 63c0 29 -13 50 -47 61l-88 29c-89 30 -134 73 -134 152c0 70 54 151 184 151z" />
    <glyph glyph-name="uni0240" unicode="&#x240;" horiz-adv-x="526" 
d="M46 -30v88l282 369h-269v93h401v-88l-285 -369c111 -3 150 -46 180 -111c16 -35 36 -83 97 -83c9 0 19 0 53 3l5 -54c4 -42 -49 -42 -58 -42c-93 0 -148 33 -188 122c-15 34 -35 72 -99 72h-119z" />
    <glyph glyph-name="uni0241" unicode="&#x241;" horiz-adv-x="558" 
d="M304 -30h-53c-43 0 -63 16 -63 61v139c0 60 9 100 46 125l88 60c52 36 70 88 70 146c0 89 -74 135 -149 135c-68 0 -103 -4 -188 -30l-6 93c74 23 125 31 193 31c153 0 266 -77 266 -225c0 -93 -33 -166 -99 -212l-83 -58c-22 -15 -22 -35 -22 -68v-197z" />
    <glyph glyph-name="uni0242" unicode="&#x242;" horiz-adv-x="494" 
d="M262 -30h-53c-43 0 -63 16 -63 61v54c0 41 14 74 46 93l68 41c58 35 71 74 71 119c0 63 -50 102 -123 102c-58 0 -122 -14 -166 -32l-6 93c39 16 110 33 170 33c143 0 240 -79 240 -192c0 -81 -29 -142 -98 -184l-64 -39c-23 -14 -22 -34 -22 -67v-82z" />
    <glyph glyph-name="uni0243" unicode="&#x243;" horiz-adv-x="685" 
d="M114 716h292c140 0 204 -76 204 -178v-47c0 -53 -27 -109 -72 -132c60 -24 92 -77 92 -136v-66c0 -134 -107 -187 -224 -187h-292v166h-88v95h88v485zM407 621h-177v-218h177c69 0 87 49 87 92v38c0 48 -29 88 -87 88zM406 308h-176v-77h147v-42c0 -37 -22 -53 -71 -53
h-76v-72h175c74 0 108 45 108 98v47c0 53 -30 99 -107 99z" />
    <glyph glyph-name="uni0244" unicode="&#x244;" horiz-adv-x="753" 
d="M636 319v-349h-312c-143 0 -216 40 -216 199v150h-82v95h82v302h117v-302h294v302h117v-302h89v-41c0 -38 -22 -54 -71 -54h-18zM324 64h195v255h-294v-151c0 -80 25 -104 99 -104z" />
    <glyph glyph-name="uni0245" unicode="&#x245;" horiz-adv-x="665" 
d="M527 -30l-193 614c-62 -195 -131 -419 -193 -614h-120l247 746h84c34 0 53 -15 61 -41c75 -223 159 -483 233 -705h-119z" />
    <glyph glyph-name="uni0246" unicode="&#x246;" horiz-adv-x="607" 
d="M92 -30h-17v746h323l23 55h113l-23 -55h36v-34c0 -38 -10 -61 -64 -61h-11l-87 -210h131v-36c0 -32 -10 -58 -63 -58h-106l-104 -253h316v-36c0 -32 -11 -58 -63 -58h-292l-29 -72h-112zM192 621v-210h81l86 210h-167zM192 317v-105l43 105h-43z" />
    <glyph glyph-name="uni0247" unicode="&#x247;" horiz-adv-x="562" 
d="M280 64h204v-40c0 -32 -8 -54 -71 -54h-157l-29 -112h-102l34 133c-59 28 -94 83 -94 158v186c0 142 100 199 217 199c5 0 10 -1 16 -1l28 108h104l-34 -129c65 -27 107 -81 107 -158v-72c0 -48 -28 -84 -87 -84h-101zM181 354v-62h55l38 148c-57 -3 -93 -37 -93 -86z
M339 292h32c9 0 17 8 17 20v42c0 21 -7 40 -19 54zM181 198v-49c0 -16 3 -29 8 -41l23 90h-31z" />
    <glyph glyph-name="uni0248" unicode="&#x248;" horiz-adv-x="479" 
d="M90 64h62c62 0 91 26 91 99v159h-126v95h126v299h118v-299h89v-41c0 -38 -23 -54 -72 -54h-17v-159c0 -131 -62 -193 -209 -193h-129v39c0 42 18 55 67 55z" />
    <glyph glyph-name="uni0249" unicode="&#x249;" horiz-adv-x="371" 
d="M136 308v212h116v-212h93v-42c0 -37 -22 -53 -72 -53h-21v-290c0 -112 -66 -162 -177 -162h-86v39c0 37 25 56 62 56h24c41 0 61 25 61 67v290h-95v95h95zM136 664v66h116v-134h-40c-42 0 -76 24 -76 68z" />
    <glyph glyph-name="uni024A" unicode="&#x24a;" horiz-adv-x="719" 
d="M347 716h241v-773c0 -52 36 -74 81 -74h25v-93h-32c-121 0 -190 57 -190 168v26h-125c-195 0 -287 100 -287 301v144c0 201 92 301 287 301zM472 68v550h-125c-114 0 -171 -79 -171 -203v-145c0 -140 57 -202 171 -202h125z" />
    <glyph glyph-name="uni024B" unicode="&#x24b;" horiz-adv-x="607" 
d="M289 534h206v-591c0 -52 32 -74 72 -74h24v-93h-32c-115 0 -180 60 -180 168v12h-90c-144 0 -226 67 -226 218v143c0 149 82 217 226 217zM379 49v391h-90c-69 0 -110 -42 -110 -123v-143c0 -80 39 -125 110 -125h90z" />
    <glyph glyph-name="uni024C" unicode="&#x24c;" horiz-adv-x="685" 
d="M384 286h-154v-316h-55c-44 0 -62 16 -62 61v255h-95v96h95v334h297c142 0 213 -73 213 -170v-79c0 -63 -33 -133 -121 -167c48 -107 104 -224 153 -330h-127zM410 619h-180v-237h180c62 0 96 32 96 94v54c0 55 -31 89 -96 89z" />
    <glyph glyph-name="uni024D" unicode="&#x24d;" horiz-adv-x="456" 
d="M222 187v-217h-53c-44 0 -63 16 -63 62v155h-90v95h90v97c0 90 42 141 150 141h182v-29c0 -49 -34 -64 -79 -64h-103c-26 0 -34 -22 -34 -48v-97h106v-42c0 -37 -22 -53 -71 -53h-35z" />
    <glyph glyph-name="uni024E" unicode="&#x24e;" horiz-adv-x="686" 
d="M395 267v-297h-52c-45 0 -65 15 -65 61v234l-124 212h-127v94h72l-84 145h128l84 -145h224l85 145h128l-87 -145h78v-41c0 -38 -22 -53 -72 -53h-63zM281 477l58 -100l58 100h-116z" />
    <glyph glyph-name="uni024F" unicode="&#x24f;" horiz-adv-x="645" 
d="M357 -239h-228v40c0 42 18 58 70 58h158c46 0 60 21 60 54v85c-44 -4 -83 -6 -137 -8c-122 -4 -176 65 -176 179v76h-82v95h82v180h116v-180h197v180h116v-180h88v-42c0 -37 -22 -53 -71 -53h-17v-333c0 -85 -51 -151 -176 -151zM283 85c51 1 91 5 134 9v151h-197v-75
c0 -57 14 -86 63 -85z" />
    <glyph glyph-name="uni0292" unicode="&#x292;" horiz-adv-x="540" 
d="M42 520h437v-89l-194 -165c137 -18 212 -108 212 -243c0 -175 -109 -250 -290 -247c-62 1 -95 2 -174 15v42c0 34 20 52 62 46c36 -5 69 -8 113 -8c95 0 173 41 173 146c0 118 -62 160 -178 163h-26c-29 0 -40 8 -40 35v57l180 154h-275v94z" />
    <glyph glyph-name="afii57929" unicode="&#x2bc;" 
d="M762 632v19h-55v117h140v-109c0 -69 -39 -125 -104 -152l-36 48c35 18 55 44 55 77z" />
    <glyph glyph-name="uni02D0" unicode="&#x2d0;" horiz-adv-x="339" 
d="M171 350l-102 170h204zM69 -30l102 169l102 -169h-204z" />
    <glyph glyph-name="gravecomb" unicode="&#x300;" horiz-adv-x="346" 
d="M66 730h122l86 -146h-49c-34 0 -51 8 -68 31z" />
    <glyph glyph-name="acutecomb" unicode="&#x301;" horiz-adv-x="346" 
d="M157 730h122l-91 -115c-19 -22 -34 -31 -68 -31h-49z" />
    <glyph glyph-name="uni0302" unicode="&#x302;" horiz-adv-x="503" 
d="M253 661l-62 -80h-113l123 144h104l120 -144h-114z" />
    <glyph glyph-name="tildecomb" unicode="&#x303;" horiz-adv-x="458" 
d="M158 710c33 0 64 -15 87 -27c18 -9 37 -20 51 -20c25 0 35 18 35 47h92c0 -81 -48 -134 -122 -134c-37 0 -62 15 -87 28c-16 8 -33 20 -51 20c-21 0 -38 -15 -39 -49h-91c0 86 53 135 125 135z" />
    <glyph glyph-name="uni0304" unicode="&#x304;" horiz-adv-x="352" 
d="M10 686h332v-87h-332v87z" />
    <glyph glyph-name="uni0306" unicode="&#x306;" horiz-adv-x="353" 
d="M20 716h92c3 -48 37 -60 65 -60c26 0 62 11 64 60h92c-3 -88 -61 -140 -159 -140c-92 0 -152 52 -154 140z" />
    <glyph glyph-name="uni0307" unicode="&#x307;" horiz-adv-x="284" 
d="M199 700v-115h-118v115h118z" />
    <glyph glyph-name="hookabovecomb" unicode="&#x309;" horiz-adv-x="532" 
d="M270 656c0 14 -11 21 -54 21c-19 0 -47 -4 -63 -7l-9 63c17 4 56 8 79 8c87 0 144 -28 144 -82c0 -34 -21 -74 -82 -79v-29h-84v80c53 0 69 11 69 25z" />
    <glyph glyph-name="uni030A" unicode="&#x30a;" horiz-adv-x="313" 
d="M114 676c0 -24 19 -41 41 -41c23 0 42 17 42 41c0 23 -19 42 -42 42c-22 0 -41 -19 -41 -42zM41 676c0 65 50 110 114 110c66 0 115 -45 115 -110s-49 -110 -115 -110c-64 0 -114 45 -114 110z" />
    <glyph glyph-name="uni030B" unicode="&#x30b;" horiz-adv-x="455" 
d="M128 730h117l-81 -115c-17 -24 -31 -31 -64 -31h-49zM287 730h118l-81 -115c-17 -24 -31 -31 -65 -31h-49z" />
    <glyph glyph-name="uni030C" unicode="&#x30c;" horiz-adv-x="503" 
d="M191 725l62 -80l58 80h114l-120 -144h-104l-123 144h113z" />
    <glyph glyph-name="uni030F" unicode="&#x30f;" horiz-adv-x="456" 
d="M211 730h117l77 -146h-49c-33 0 -47 7 -64 31zM51 730h118l77 -146h-49c-34 0 -48 7 -65 31z" />
    <glyph glyph-name="uni0311" unicode="&#x311;" horiz-adv-x="353" 
d="M112 576h-92c2 88 62 140 154 140c98 0 156 -52 159 -140h-92c-2 49 -38 60 -64 60c-28 0 -62 -12 -65 -60z" />
    <glyph glyph-name="uni0312" unicode="&#x312;" horiz-adv-x="256" 
d="M165 730l35 -46c-32 -17 -55 -50 -57 -83h55v-126h-138v94c0 69 39 134 105 161z" />
    <glyph glyph-name="uni0313" unicode="&#x313;" horiz-adv-x="256" 
d="M95 475l-35 46c32 17 55 50 57 83h-55v126h138v-94c0 -69 -39 -134 -105 -161z" />
    <glyph glyph-name="uni0314" unicode="&#x314;" horiz-adv-x="256" 
d="M200 521l-35 -46c-66 27 -105 92 -105 161v94h138v-126h-55c2 -33 25 -66 57 -83z" />
    <glyph glyph-name="uni031B" unicode="&#x31b;" horiz-adv-x="255" 
d="M-3 275v53c77 3 115 32 119 80h-55v126h138v-96c0 -101 -56 -164 -202 -163z" />
    <glyph glyph-name="dotbelowcomb" unicode="&#x323;" horiz-adv-x="284" 
d="M199 -94v-115h-118v115h118z" />
    <glyph glyph-name="uni0327" unicode="&#x327;" horiz-adv-x="350" 
d="M139 -334l-35 46c32 17 55 50 57 83h-55v126h138v-94c0 -69 -39 -134 -105 -161z" />
    <glyph glyph-name="uni0328" unicode="&#x328;" horiz-adv-x="362" 
d="M141 -22h93c-31 -25 -56 -64 -56 -95c0 -22 12 -39 38 -39c12 0 34 0 55 10v-78c-29 -14 -57 -15 -78 -15c-72 0 -108 45 -108 98c0 40 22 87 56 119z" />
    <glyph glyph-name="uni0338" unicode="&#x338;" horiz-adv-x="510" 
d="M378 781h113l-364 -883h-112z" />
    <glyph glyph-name="uni0374" unicode="&#x374;" horiz-adv-x="346" 
d="M157 730h122l-91 -115c-19 -22 -34 -31 -68 -31h-49z" />
    <glyph glyph-name="uni0375" unicode="&#x375;" horiz-adv-x="346" 
d="M192 -239h-122l90 115c19 22 34 31 68 31h49z" />
    <glyph glyph-name="uni037A" unicode="&#x37a;" horiz-adv-x="328" 
d="M272 -139l15 -80c-24 -12 -60 -20 -88 -20c-92 0 -139 27 -139 131v73h105v-72c0 -36 14 -45 47 -45c15 0 38 3 60 13z" />
    <glyph glyph-name="uni037B" unicode="&#x37b;" horiz-adv-x="584" 
d="M31 27v37h273c62 0 92 51 92 107v342c0 72 -37 110 -113 110h-169c-63 0 -73 26 -73 58v35h245c143 0 226 -76 226 -191v-361c0 -114 -86 -194 -204 -194h-203c-62 0 -74 27 -74 57z" />
    <glyph glyph-name="uni037C" unicode="&#x37c;" horiz-adv-x="588" 
d="M550 64v-37c0 -30 -12 -57 -74 -57h-203c-118 0 -204 80 -204 194v361c0 115 83 191 226 191h245v-35c0 -32 -10 -58 -73 -58h-169c-76 0 -113 -38 -113 -110v-342c0 -56 30 -107 92 -107h273zM438 414v-127h-126v127h126z" />
    <glyph glyph-name="uni037D" unicode="&#x37d;" horiz-adv-x="587" 
d="M31 27v37h273c62 0 92 51 92 107v342c0 72 -37 110 -113 110h-169c-63 0 -73 26 -73 58v35h245c143 0 226 -76 226 -191v-361c0 -114 -86 -194 -204 -194h-203c-62 0 -74 27 -74 57zM264 411v-127h-126v127h126z" />
    <glyph glyph-name="uni037E" unicode="&#x37e;" horiz-adv-x="256" 
d="M81 217h125l-93 -268h-36c-27 0 -38 16 -31 57zM199 598v-128h-126v128h126z" />
    <glyph glyph-name="tonos" unicode="&#x384;" horiz-adv-x="333" 
d="M147 730h122l-86 -115c-19 -22 -34 -31 -68 -31h-49z" />
    <glyph glyph-name="dieresistonos" unicode="&#x385;" horiz-adv-x="407" 
d="M395 700v-119h-117v119h117zM119 700v-119h-118v119h118zM200 800h128l-78 -118c-16 -24 -27 -31 -61 -31h-56z" />
    <glyph glyph-name="Alphatonos" unicode="&#x386;" horiz-adv-x="668" 
d="M533 -30l-80 249c-17 -19 -48 -35 -85 -35h-163l-68 -214h-120l250 746h90c27 0 50 -19 57 -41l238 -705h-119zM334 584l-98 -303h195zM97 716h122l-91 -115c-19 -22 -34 -31 -68 -31h-49z" />
    <glyph glyph-name="anoteleia" unicode="&#x387;" horiz-adv-x="333" 
d="M229 520v-125h-127v125h127z" />
    <glyph glyph-name="Epsilontonos" unicode="&#x388;" horiz-adv-x="731" 
d="M623 -30h-421v746h472v-34c0 -38 -10 -61 -64 -61h-291v-210h324v-36c0 -32 -10 -58 -63 -58h-261v-253h367v-36c0 -32 -11 -58 -63 -58zM45 716h122l-91 -115c-19 -22 -34 -31 -68 -31h-49z" />
    <glyph glyph-name="Etatonos" unicode="&#x389;" horiz-adv-x="803" 
d="M612 716h117v-746h-53c-45 0 -64 16 -64 61v313c-16 -19 -44 -26 -75 -26h-220v-348h-54c-45 0 -63 16 -63 61v685h117v-304h295v304zM41 716h122l-91 -115c-19 -22 -34 -31 -68 -31h-49z" />
    <glyph glyph-name="Iotatonos" unicode="&#x38a;" horiz-adv-x="391" 
d="M199 716h118v-746h-55c-45 0 -63 16 -63 61v685zM42 717h122l-91 -115c-19 -22 -34 -31 -68 -31h-49z" />
    <glyph glyph-name="Omicrontonos" unicode="&#x38c;" horiz-adv-x="748" 
d="M392 730c200 0 291 -112 291 -312v-151c0 -199 -91 -311 -291 -311c-197 0 -291 112 -291 312v150c0 200 94 312 291 312zM566 268v151c0 124 -57 212 -174 212c-115 0 -174 -88 -174 -213v-151c0 -141 59 -211 174 -211c117 0 174 70 174 212zM22 716h122l-91 -115
c-19 -22 -34 -31 -68 -31h-49z" />
    <glyph glyph-name="Upsilontonos" unicode="&#x38e;" horiz-adv-x="852" 
d="M565 267v-297h-52c-45 0 -65 15 -65 61v234l-263 451h128l196 -339l197 339h128zM40 716h122l-91 -115c-19 -22 -34 -31 -68 -31h-49z" />
    <glyph glyph-name="Omegatonos" unicode="&#x38f;" horiz-adv-x="760" 
d="M41 725h122l-91 -115c-19 -22 -34 -31 -68 -31h-49zM452 -30v95h5c86 25 119 105 119 209v138c0 142 -57 218 -174 218c-115 0 -174 -76 -174 -217v-138c0 -106 34 -186 122 -210h2v-95h-262v95h93c-45 52 -72 122 -72 210v137c0 203 94 318 291 318
c200 0 291 -115 291 -317v-138c0 -91 -27 -159 -71 -210h29c57 0 67 -18 67 -60v-35h-266z" />
    <glyph glyph-name="iotadieresistonos" unicode="&#x390;" horiz-adv-x="396" 
d="M257 520v-389c0 -44 8 -66 33 -66c42 0 56 -20 56 -56v-39h-56c-109 0 -149 49 -149 161v389h116zM395 700v-119h-117v119h117zM119 700v-119h-118v119h118zM200 800h128l-78 -118c-16 -24 -27 -31 -61 -31h-56z" />
    <glyph glyph-name="Alpha" unicode="&#x391;" horiz-adv-x="668" 
d="M652 -30h-119l-80 249c-17 -19 -48 -35 -85 -35h-163l-68 -214h-120l250 746h90c27 0 50 -19 57 -41zM431 281l-97 303l-98 -303h195z" />
    <glyph glyph-name="Beta" unicode="&#x392;" horiz-adv-x="644" 
d="M73 -30v746h292c140 0 204 -76 204 -178v-47c0 -53 -27 -109 -72 -132c60 -24 92 -77 92 -136v-66c0 -134 -107 -187 -224 -187h-292zM366 621h-177v-218h177c69 0 87 49 87 92v38c0 48 -29 88 -87 88zM365 308h-176v-244h175c74 0 108 45 108 98v47c0 53 -30 99 -107 99
z" />
    <glyph glyph-name="Gamma" unicode="&#x393;" horiz-adv-x="578" 
d="M490 621h-299v-651h-53c-46 0 -64 16 -64 63v683h484v-35c0 -34 -13 -60 -68 -60z" />
    <glyph glyph-name="uni0394" unicode="&#x394;" horiz-adv-x="669" 
d="M444 -30h-427l250 746h90c27 0 50 -19 57 -41l238 -705h-119l-12 35c-14 -18 -43 -35 -77 -35zM502 66l-168 516l-166 -516h334z" />
    <glyph glyph-name="Epsilon" unicode="&#x395;" horiz-adv-x="602" 
d="M495 -30h-421v746h472v-34c0 -38 -10 -61 -64 -61h-291v-210h324v-36c0 -32 -10 -58 -63 -58h-261v-253h367v-36c0 -32 -11 -58 -63 -58z" />
    <glyph glyph-name="Zeta" unicode="&#x396;" horiz-adv-x="626" 
d="M45 621v95h526v-89l-404 -563h421v-57c0 -28 -16 -37 -43 -37h-512v92l403 559h-391z" />
    <glyph glyph-name="Eta" unicode="&#x397;" horiz-adv-x="680" 
d="M486 412v304h117v-746h-53c-45 0 -64 16 -64 61v313c-16 -19 -44 -26 -75 -26h-220v-348h-54c-45 0 -63 16 -63 61v685h117v-304h295z" />
    <glyph glyph-name="Theta" unicode="&#x398;" horiz-adv-x="705" 
d="M486 303h-271v95h271v-95zM351 730c200 0 291 -112 291 -312v-151c0 -199 -91 -311 -291 -311c-197 0 -291 112 -291 312v150c0 200 94 312 291 312zM525 268v151c0 124 -57 212 -174 212c-115 0 -174 -88 -174 -213v-151c0 -141 59 -211 174 -211c117 0 174 70 174 212z
" />
    <glyph glyph-name="Iota" unicode="&#x399;" horiz-adv-x="282" 
d="M84 31v685h118v-746h-55c-45 0 -63 16 -63 61z" />
    <glyph glyph-name="Kappa" unicode="&#x39a;" horiz-adv-x="645" 
d="M641 -30h-140l-288 385l273 361h142l-274 -360zM74 32v684h117v-746h-55c-44 0 -62 18 -62 62z" />
    <glyph glyph-name="Lambda" unicode="&#x39b;" horiz-adv-x="665" 
d="M646 -30h-119l-193 614c-62 -195 -131 -419 -193 -614h-120l247 746h84c34 0 53 -15 61 -41c75 -223 159 -483 233 -705z" />
    <glyph glyph-name="Mu" unicode="&#x39c;" horiz-adv-x="886" 
d="M690 716h117v-746h-54c-44 0 -63 17 -63 60v465c-54 -98 -109 -203 -163 -301c-15 -27 -45 -55 -86 -55c-42 0 -70 28 -84 54l-163 302v-525h-54c-41 0 -63 20 -63 55v691h117l236 -447c5 -10 19 -10 24 0z" />
    <glyph glyph-name="Nu" unicode="&#x39d;" horiz-adv-x="677" 
d="M74 31v685h312c143 0 216 -40 216 -199v-547h-53c-44 0 -64 16 -64 61v487c0 80 -25 103 -99 103h-195v-651h-54c-45 0 -63 16 -63 61z" />
    <glyph glyph-name="Xi" unicode="&#x39e;" horiz-adv-x="611" 
d="M493 621h-428v95h492v-34c0 -38 -10 -61 -64 -61zM506 -30h-450v94h513v-36c0 -32 -11 -58 -63 -58zM463 318h-370v94h433v-36c0 -32 -10 -58 -63 -58z" />
    <glyph glyph-name="Omicron" unicode="&#x39f;" horiz-adv-x="702" 
d="M350 730c200 0 291 -112 291 -312v-151c0 -199 -91 -311 -291 -311c-197 0 -291 112 -291 312v150c0 200 94 312 291 312zM524 268v151c0 124 -57 212 -174 212c-115 0 -174 -88 -174 -213v-151c0 -141 59 -211 174 -211c117 0 174 70 174 212z" />
    <glyph glyph-name="Pi" unicode="&#x3a0;" horiz-adv-x="756" 
d="M113 31v590h-88v95h707v-34c0 -38 -10 -61 -65 -61h-25v-651h-53c-45 0 -64 16 -64 61v590h-295v-651h-53c-45 0 -64 16 -64 61z" />
    <glyph glyph-name="Rho" unicode="&#x3a1;" horiz-adv-x="627" 
d="M349 244h-159v-274h-52c-46 0 -65 16 -65 61v685h276c139 0 221 -51 221 -189v-94c0 -71 -17 -189 -221 -189zM349 619h-159v-279h159c71 0 104 31 104 93v94c0 56 -28 92 -104 92z" />
    <glyph glyph-name="Sigma" unicode="&#x3a3;" horiz-adv-x="566" 
d="M186 64h341v-36c0 -32 -10 -58 -63 -58h-409v91l217 285l-217 277v93h464v-36c0 -33 -11 -59 -64 -59h-267l217 -273z" />
    <glyph glyph-name="Tau" unicode="&#x3a4;" horiz-adv-x="603" 
d="M244 31v590h-226v95h570v-35c0 -42 -10 -60 -66 -60h-161v-651h-54c-44 0 -63 16 -63 61z" />
    <glyph glyph-name="Upsilon" unicode="&#x3a5;" horiz-adv-x="683" 
d="M665 716l-269 -449v-297h-52c-45 0 -65 15 -65 61v234l-263 451h128l196 -339l197 339h128z" />
    <glyph glyph-name="Phi" unicode="&#x3a6;" horiz-adv-x="687" 
d="M282 616v105h117v-104c148 -16 233 -97 233 -264v-21c0 -167 -85 -247 -233 -263v-99h-53c-44 0 -64 16 -64 62v37c-147 16 -232 97 -232 264v20c0 166 85 247 232 263zM515 333v21c0 88 -38 143 -116 161v-345c78 14 116 60 116 163zM167 353v-21
c0 -102 39 -148 115 -162v344c-76 -18 -115 -73 -115 -161z" />
    <glyph glyph-name="Chi" unicode="&#x3a7;" horiz-adv-x="671" 
d="M332 242l-181 -272h-133l250 374l-246 372h130l180 -271l181 271h131l-245 -372l249 -374h-134z" />
    <glyph glyph-name="Psi" unicode="&#x3a8;" horiz-adv-x="763" 
d="M322 312v409h117v-409c103 5 145 70 145 218v186h115v-206c0 -190 -62 -291 -260 -295v-245h-54c-44 0 -63 16 -63 62v183c-208 4 -260 115 -260 286v215h115v-197c0 -141 31 -203 145 -207z" />
    <glyph glyph-name="uni03A9" unicode="&#x3a9;" horiz-adv-x="707" 
d="M666 -30h-266v95h5c86 25 119 105 119 209v138c0 142 -57 218 -174 218c-115 0 -174 -76 -174 -217v-138c0 -106 34 -186 122 -210h2v-95h-262v95h93c-45 52 -72 122 -72 210v137c0 203 94 318 291 318c200 0 291 -115 291 -317v-138c0 -91 -27 -159 -71 -210h29
c57 0 67 -18 67 -60v-35z" />
    <glyph glyph-name="Iotadieresis" unicode="&#x3aa;" horiz-adv-x="282" 
d="M84 716h118v-746h-55c-45 0 -63 16 -63 61v685zM301 900v-119h-121v119h121zM106 900v-119h-121v119h121z" />
    <glyph glyph-name="Upsilondieresis" unicode="&#x3ab;" horiz-adv-x="683" 
d="M396 267v-297h-52c-45 0 -65 15 -65 61v234l-263 451h128l196 -339l197 339h128zM499 900v-119h-121v119h121zM304 900v-119h-121v119h121z" />
    <glyph glyph-name="alphatonos" unicode="&#x3ac;" horiz-adv-x="608" 
d="M459 520h118c-30 -54 -69 -153 -68 -271c1 -132 38 -219 77 -279h-67c-40 0 -65 11 -78 46c-3 8 -4 10 -7 19c-31 -55 -93 -79 -164 -79c-160 0 -220 101 -220 294c0 198 88 284 221 284c73 0 128 -22 163 -73c3 16 14 43 25 59zM286 440c-75 0 -121 -41 -121 -190
c0 -165 42 -201 116 -201c85 0 117 83 117 205c0 118 -41 186 -112 186zM280 730h122l-91 -115c-19 -22 -34 -31 -68 -31h-49z" />
    <glyph glyph-name="epsilontonos" unicode="&#x3ad;" horiz-adv-x="499" 
d="M281 534c51 0 112 -7 163 -21v-93c-53 13 -110 20 -162 20c-70 0 -101 -19 -101 -61c0 -60 32 -77 112 -77h118v-64c0 -23 0 -30 -30 -30h-88c-89 -1 -130 -18 -130 -76c0 -61 42 -81 124 -81c62 0 105 6 168 16l6 -55c3 -28 -14 -36 -44 -44c-13 -3 -66 -12 -129 -12
c-157 0 -241 33 -241 177c0 55 35 107 90 127c-37 20 -71 61 -72 117c-2 132 113 157 216 157zM239 730h122l-91 -115c-19 -22 -34 -31 -68 -31h-49z" />
    <glyph glyph-name="etatonos" unicode="&#x3ae;" horiz-adv-x="571" 
d="M70 520h241c142 0 190 -49 190 -175v-569h-53c-44 0 -63 16 -63 62v507c0 64 -19 82 -74 82h-125v-457h-51c-46 0 -65 16 -65 62v488zM255 730h122l-91 -115c-19 -22 -34 -31 -68 -31h-49z" />
    <glyph glyph-name="iotatonos" unicode="&#x3af;" horiz-adv-x="332" 
d="M194 520v-394c0 -44 17 -61 54 -61c42 0 56 -20 56 -56v-39h-76c-109 0 -149 41 -149 156v394h115zM140 730h122l-91 -115c-19 -22 -34 -31 -68 -31h-49z" />
    <glyph glyph-name="upsilondieresistonos" unicode="&#x3b0;" horiz-adv-x="551" 
d="M271 -30c-141 0 -211 49 -211 200v350h115v-350c0 -88 30 -106 96 -106c72 0 101 29 101 102v354h115v-353c0 -129 -64 -197 -216 -197zM470 700v-119h-117v119h117zM194 700v-119h-118v119h118zM275 800h128l-78 -118c-16 -24 -27 -31 -61 -31h-56z" />
    <glyph glyph-name="alpha" unicode="&#x3b1;" horiz-adv-x="608" 
d="M459 520h118c-30 -54 -69 -153 -68 -271c1 -132 38 -219 77 -279h-67c-40 0 -65 11 -78 46c-3 8 -4 10 -7 19c-31 -55 -93 -79 -164 -79c-160 0 -220 101 -220 294c0 198 88 284 221 284c73 0 128 -22 163 -73c3 16 14 43 25 59zM286 440c-75 0 -121 -41 -121 -190
c0 -165 42 -201 116 -201c85 0 117 83 117 205c0 118 -41 186 -112 186z" />
    <glyph glyph-name="beta" unicode="&#x3b2;" horiz-adv-x="630" 
d="M187 -1v-223h-53c-43 0 -61 16 -61 62v655c0 164 87 237 250 237c160 0 235 -87 235 -202c0 -79 -45 -137 -102 -160c73 -23 128 -89 128 -183c0 -157 -100 -229 -242 -229c-57 0 -114 12 -155 43zM320 316h-35v92c116 0 160 37 160 119c0 57 -33 114 -126 114
c-102 0 -132 -57 -132 -144v-326c0 -78 53 -125 145 -125c90 0 135 56 135 135c0 87 -43 135 -147 135z" />
    <glyph glyph-name="gamma" unicode="&#x3b3;" horiz-adv-x="586" 
d="M565 520l-215 -539v-205h-52c-45 0 -64 15 -64 61v144l-209 539h124l145 -398l146 398h125z" />
    <glyph glyph-name="delta" unicode="&#x3b4;" horiz-adv-x="568" 
d="M510 317v-143c0 -149 -78 -218 -226 -218c-144 0 -226 67 -226 218v143c0 133 66 202 183 215l-117 99v85h349v-34c0 -33 -12 -59 -67 -59h-120l144 -125c52 -35 80 -94 80 -181zM394 174v143c0 68 -31 123 -110 123c-68 0 -110 -42 -110 -123v-143
c0 -80 40 -125 110 -125s110 42 110 125z" />
    <glyph glyph-name="epsilon" unicode="&#x3b5;" horiz-adv-x="499" 
d="M281 534c51 0 112 -7 163 -21v-93c-53 13 -110 20 -162 20c-70 0 -101 -19 -101 -61c0 -60 32 -77 112 -77h118v-64c0 -23 0 -30 -30 -30h-88c-89 -1 -130 -18 -130 -76c0 -61 42 -81 124 -81c62 0 105 6 168 16l6 -55c3 -28 -14 -36 -44 -44c-13 -3 -66 -12 -129 -12
c-157 0 -241 33 -241 177c0 55 35 107 90 127c-37 20 -71 61 -72 117c-2 132 113 157 216 157z" />
    <glyph glyph-name="zeta" unicode="&#x3b6;" horiz-adv-x="492" 
d="M303 624h-182v92h329v-77c-166 -134 -289 -297 -289 -435c0 -71 24 -99 94 -104c92 -7 195 -36 195 -150c0 -106 -75 -174 -214 -174l8 95c52 6 94 26 94 69c0 41 -29 58 -103 60c-148 3 -190 86 -190 201c0 158 123 302 258 423z" />
    <glyph glyph-name="eta" unicode="&#x3b7;" horiz-adv-x="571" 
d="M70 32v488h241c142 0 190 -49 190 -175v-569h-53c-44 0 -63 16 -63 62v507c0 64 -19 82 -74 82h-125v-457h-51c-46 0 -65 16 -65 62z" />
    <glyph glyph-name="theta" unicode="&#x3b8;" horiz-adv-x="608" 
d="M302 730c183 0 240 -116 240 -317v-142c0 -200 -53 -315 -240 -315c-185 0 -240 115 -240 316v141c0 201 58 317 240 317zM302 54c102 0 124 77 124 218v26h-248v-27c0 -140 26 -217 124 -217zM178 392h248v22c0 129 -25 218 -124 218c-98 0 -124 -89 -124 -219v-21z" />
    <glyph glyph-name="iota" unicode="&#x3b9;" horiz-adv-x="332" 
d="M79 520h115v-394c0 -44 17 -61 54 -61c42 0 56 -20 56 -56v-39h-76c-109 0 -149 41 -149 156v394z" />
    <glyph glyph-name="kappa" unicode="&#x3ba;" horiz-adv-x="568" 
d="M75 32v488h116v-550h-52c-46 0 -64 16 -64 62zM430 -30l-216 295l200 255h135l-204 -256l215 -294h-130z" />
    <glyph glyph-name="lambda" unicode="&#x3bb;" horiz-adv-x="578" 
d="M88 690v40h223c125 0 181 -74 181 -159v-601h-52c-46 0 -64 16 -64 62v366c-45 5 -79 7 -124 8c-49 1 -73 -25 -73 -85v-351h-52c-46 0 -64 16 -64 62v290c0 117 64 183 186 179c57 -2 80 -3 127 -8v77c0 33 -19 63 -65 63h-154c-51 0 -69 15 -69 57z" />
    <glyph glyph-name="uni03BC" unicode="&#x3bc;" horiz-adv-x="571" 
d="M499 520v-550h-223c-35 0 -65 3 -90 10v-204h-52c-45 0 -64 15 -64 61l1 406v277h115v-363c0 -77 27 -93 90 -93h107v456h116z" />
    <glyph glyph-name="nu" unicode="&#x3bd;" horiz-adv-x="518" 
d="M503 520l-182 -550h-77c-36 0 -54 14 -66 49l-167 501h112l137 -423c44 140 89 283 134 423h109z" />
    <glyph glyph-name="xi" unicode="&#x3be;" horiz-adv-x="470" 
d="M42 181c0 96 31 173 102 219c-57 25 -86 91 -86 142c0 108 54 174 184 174h138v-34c0 -33 -13 -59 -68 -59h-62c-66 0 -77 -48 -77 -85c0 -41 19 -82 81 -82h121v-35c0 -33 -13 -59 -68 -59h-44c-66 0 -106 -88 -106 -177c0 -76 64 -112 121 -120
c108 -16 158 -62 158 -144c0 -97 -57 -145 -158 -145h-50v93h42c41 0 54 22 54 46c0 33 -23 51 -74 57c-138 16 -208 68 -208 209z" />
    <glyph glyph-name="omicron" unicode="&#x3bf;" horiz-adv-x="574" 
d="M286 534c146 0 226 -68 226 -217v-143c0 -149 -78 -218 -226 -218c-144 0 -226 67 -226 218v143c0 149 82 217 226 217zM396 174v143c0 68 -31 123 -110 123c-68 0 -110 -42 -110 -123v-143c0 -80 40 -125 110 -125s110 42 110 125z" />
    <glyph glyph-name="pi" unicode="&#x3c0;" horiz-adv-x="592" 
d="M226 427v-457h-51c-45 0 -64 16 -64 62v395h-83v93h517v-34c0 -33 -13 -59 -68 -59h-14v-302c0 -43 16 -61 46 -61h62v-38c0 -30 -15 -56 -72 -56c-112 0 -153 59 -153 155v302h-120z" />
    <glyph glyph-name="rho" unicode="&#x3c1;" horiz-adv-x="591" 
d="M301 534c146 0 226 -68 226 -217v-129c0 -149 -78 -218 -226 -218h-110v-194h-53c-45 0 -63 16 -63 63v478c0 149 82 217 226 217zM411 188v129c0 68 -31 123 -110 123c-68 0 -110 -42 -110 -123v-254h110c70 0 110 42 110 125z" />
    <glyph glyph-name="sigma1" unicode="&#x3c2;" horiz-adv-x="504" 
d="M458 520v-34c0 -33 -12 -59 -67 -59h-49c-119 0 -187 -82 -187 -183c0 -66 26 -111 136 -145c108 -32 165 -76 165 -164c0 -94 -70 -159 -194 -159h-101v36c0 39 21 57 68 57h30c54 0 80 24 80 61c0 34 -17 57 -83 74c-137 35 -214 106 -214 235c0 172 126 281 311 281
h105z" />
    <glyph glyph-name="sigma" unicode="&#x3c3;" horiz-adv-x="633" 
d="M289 534h323v-36c0 -32 -9 -58 -62 -58h-62c18 -32 27 -73 27 -123v-143c0 -149 -78 -218 -226 -218c-144 0 -226 67 -226 218v143c0 149 82 217 226 217zM399 174v143c0 66 -30 120 -104 123h-6c-69 0 -110 -42 -110 -123v-143c0 -80 39 -125 110 -125
c69 0 110 42 110 125z" />
    <glyph glyph-name="tau" unicode="&#x3c4;" horiz-adv-x="503" 
d="M194 31v396h-176v93h468v-34c0 -42 -9 -59 -65 -59h-111v-457h-54c-43 0 -62 16 -62 61z" />
    <glyph glyph-name="upsilon" unicode="&#x3c5;" horiz-adv-x="551" 
d="M271 -30c-141 0 -211 49 -211 200v350h115v-350c0 -88 30 -106 96 -106c72 0 101 29 101 102v354h115v-353c0 -129 -64 -197 -216 -197z" />
    <glyph glyph-name="phi" unicode="&#x3c6;" horiz-adv-x="652" 
d="M483 257c0 113 -33 176 -69 176c-30 0 -35 -21 -35 -67v-306c65 16 104 80 104 197zM597 268c0 -180 -74 -295 -218 -308c0 -57 -1 -127 -1 -184h-53c-43 0 -60 16 -60 61v123c-130 12 -211 103 -211 289s87 283 204 285v-101c-53 0 -88 -68 -88 -181
c0 -120 34 -170 95 -190v303c0 112 50 169 145 169c114 0 187 -97 187 -266z" />
    <glyph glyph-name="chi" unicode="&#x3c7;" horiz-adv-x="645" 
d="M321 49l-170 -273h-132l238 375l-234 368h130l168 -269l168 269h131l-233 -368l237 -375h-133z" />
    <glyph glyph-name="psi" unicode="&#x3c8;" horiz-adv-x="742" 
d="M311 66v454h116v-454c100 5 134 70 134 217v237h114v-257c0 -188 -52 -289 -248 -293v-194h-54c-43 0 -62 16 -62 62v132c-206 4 -247 114 -247 284v266h113v-249c0 -138 22 -201 134 -205z" />
    <glyph glyph-name="omega" unicode="&#x3c9;" horiz-adv-x="839" 
d="M137 520h109c-54 -101 -78 -188 -78 -288c0 -135 40 -181 100 -181c65 0 95 60 95 169v164h113v-164c0 -101 24 -169 95 -169c59 0 100 44 100 181c0 100 -25 195 -78 288h109c52 -63 83 -167 83 -284c0 -214 -85 -280 -205 -280c-73 0 -125 24 -159 78
c-34 -51 -93 -78 -164 -78c-126 0 -205 75 -205 280c0 115 38 222 85 284z" />
    <glyph glyph-name="iotadieresis" unicode="&#x3ca;" horiz-adv-x="332" 
d="M194 520v-394c0 -44 17 -61 54 -61c42 0 56 -20 56 -56v-39h-76c-109 0 -149 41 -149 156v394h115zM296 700v-119h-121v119h121zM101 700v-119h-121v119h121z" />
    <glyph glyph-name="upsilondieresis" unicode="&#x3cb;" horiz-adv-x="551" 
d="M271 -30c-141 0 -211 49 -211 200v350h115v-350c0 -88 30 -106 96 -106c72 0 101 29 101 102v354h115v-353c0 -129 -64 -197 -216 -197zM435 700v-119h-121v119h121zM240 700v-119h-121v119h121z" />
    <glyph glyph-name="omicrontonos" unicode="&#x3cc;" horiz-adv-x="574" 
d="M286 534c146 0 226 -68 226 -217v-143c0 -149 -78 -218 -226 -218c-144 0 -226 67 -226 218v143c0 149 82 217 226 217zM396 174v143c0 68 -31 123 -110 123c-68 0 -110 -42 -110 -123v-143c0 -80 40 -125 110 -125s110 42 110 125zM260 730h122l-91 -115
c-19 -22 -34 -31 -68 -31h-49z" />
    <glyph glyph-name="upsilontonos" unicode="&#x3cd;" horiz-adv-x="551" 
d="M271 -30c-141 0 -211 49 -211 200v350h115v-350c0 -88 30 -106 96 -106c72 0 101 29 101 102v354h115v-353c0 -129 -64 -197 -216 -197zM260 730h122l-91 -115c-19 -22 -34 -31 -68 -31h-49z" />
    <glyph glyph-name="omegatonos" unicode="&#x3ce;" horiz-adv-x="839" 
d="M137 520h109c-54 -101 -78 -188 -78 -288c0 -135 40 -181 100 -181c65 0 95 60 95 169v164h113v-164c0 -101 24 -169 95 -169c59 0 100 44 100 181c0 100 -25 195 -78 288h109c52 -63 83 -167 83 -284c0 -214 -85 -280 -205 -280c-73 0 -125 24 -159 78
c-34 -51 -93 -78 -164 -78c-126 0 -205 75 -205 280c0 115 38 222 85 284zM404 730h122l-91 -115c-19 -22 -34 -31 -68 -31h-49z" />
    <glyph glyph-name="uni03D0" unicode="&#x3d0;" horiz-adv-x="586" 
d="M542 186c0 -145 -72 -230 -234 -230c-129 0 -242 32 -242 227v342c0 136 86 205 227 205c166 0 223 -98 223 -186c0 -90 -40 -142 -83 -165c62 -25 109 -77 109 -193zM309 48c88 3 118 58 118 138c0 75 -22 140 -113 140h-36v95h33c60 0 90 44 90 114
c0 56 -36 100 -110 100c-68 0 -110 -37 -110 -102v-354c0 -86 39 -134 128 -131z" />
    <glyph glyph-name="theta1" unicode="&#x3d1;" horiz-adv-x="638" 
d="M279 48c91 0 139 90 145 265c-127 4 -233 67 -232 212c1 134 67 205 159 205c189 0 189 -170 187 -324h79v-35c0 -32 -9 -58 -62 -58h-17c-2 -242 -85 -357 -259 -357c-119 0 -216 35 -216 204v284h115v-287c0 -80 43 -109 101 -109zM355 634c-28 -1 -48 -34 -48 -109
c0 -69 37 -116 116 -119c0 90 -6 169 -23 203c-12 24 -31 26 -45 25z" />
    <glyph glyph-name="Upsilon1" unicode="&#x3d2;" horiz-adv-x="708" 
d="M693 716v-95h-31c-44 0 -50 -10 -86 -70l-171 -285v-296h-52c-45 0 -65 15 -65 61v234l-263 451h128l196 -339l129 222c47 81 72 117 185 117h30z" />
    <glyph glyph-name="uni03D3" unicode="&#x3d3;" horiz-adv-x="884" 
d="M860 716v-95h-31c-44 0 -50 -10 -86 -70l-171 -285v-296h-52c-45 0 -65 15 -65 61v234l-263 451h128l196 -339l129 222c47 81 72 117 185 117h30zM44 716h122l-91 -115c-19 -22 -34 -31 -68 -31h-49z" />
    <glyph glyph-name="uni03D4" unicode="&#x3d4;" horiz-adv-x="708" 
d="M693 716v-95h-31c-44 0 -50 -10 -86 -70l-171 -285v-296h-52c-45 0 -65 15 -65 61v234l-263 451h128l196 -339l129 222c47 81 72 117 185 117h30zM509 900v-119h-121v119h121zM314 900v-119h-121v119h121z" />
    <glyph glyph-name="phi1" unicode="&#x3d5;" horiz-adv-x="682" 
d="M280 721h116v-174c145 -16 221 -98 221 -263v-78c0 -165 -76 -246 -221 -262v-168h-53c-43 0 -63 16 -63 62v107c-143 16 -220 97 -220 262v77c0 165 77 246 220 262v175zM501 207v78c0 87 -32 142 -105 160v-400c73 14 105 60 105 162zM176 284v-78
c0 -100 32 -147 104 -161v400c-72 -18 -104 -74 -104 -161z" />
    <glyph glyph-name="omega1" unicode="&#x3d6;" horiz-adv-x="882" 
d="M25 427v93h834v-35c0 -32 -9 -58 -62 -58h-26c21 -55 32 -121 32 -191c0 -214 -85 -280 -205 -280c-73 0 -125 24 -159 78c-34 -51 -93 -78 -164 -78c-126 0 -205 75 -205 280c0 69 14 135 35 191h-80zM186 232c0 -135 40 -181 100 -181c65 0 95 60 95 169v164h113v-164
c0 -101 24 -169 95 -169c59 0 100 44 100 181c0 67 -11 131 -35 195h-433c-24 -65 -35 -127 -35 -195z" />
    <glyph glyph-name="uni03D7" unicode="&#x3d7;" horiz-adv-x="687" 
d="M410 257l-237 -287h-141l111 134v216c0 82 -11 107 -44 107h-62v93h81c95 0 143 -42 143 -197v-76l225 273h141l-98 -119v-292c0 -48 18 -56 46 -56h69v-110c0 -155 -68 -167 -163 -167h-74v36c0 39 21 57 68 57h5c35 0 53 21 53 76v15c-73 11 -123 39 -123 146v151z" />
    <glyph glyph-name="uni03D8" unicode="&#x3d8;" horiz-adv-x="703" 
d="M351 730c200 0 291 -112 291 -312v-151c0 -178 -73 -285 -230 -307v-184h-52c-46 0 -64 16 -64 62v122c-160 19 -236 127 -236 308v150c0 200 94 312 291 312zM525 268v151c0 124 -57 212 -174 212c-115 0 -174 -88 -174 -213v-151c0 -141 59 -211 174 -211
c117 0 174 70 174 212z" />
    <glyph glyph-name="uni03D9" unicode="&#x3d9;" horiz-adv-x="574" 
d="M286 534c146 0 226 -68 226 -217v-143c0 -130 -59 -198 -171 -214v-184h-52c-45 0 -64 16 -64 62v123c-106 17 -165 85 -165 213v143c0 149 82 217 226 217zM396 174v143c0 68 -31 123 -110 123c-68 0 -110 -42 -110 -123v-143c0 -80 40 -125 110 -125s110 42 110 125z
" />
    <glyph glyph-name="uni03DA" unicode="&#x3da;" horiz-adv-x="618" 
d="M493 26v-70h-53c-46 0 -64 17 -64 62v4c0 54 -6 68 -69 82c-177 39 -255 119 -255 293c0 218 52 333 277 333c159 0 255 -63 255 -198h-116c0 66 -63 100 -129 100c-144 0 -165 -90 -165 -231c0 -122 45 -167 162 -194c120 -27 156 -69 157 -181z" />
    <glyph glyph-name="uni03DB" unicode="&#x3db;" horiz-adv-x="494" 
d="M301 520h141v-35c0 -32 -7 -58 -70 -58h-82c-91 0 -125 -66 -125 -146c0 -78 26 -119 96 -142c121 -40 179 -78 179 -181c0 -127 -93 -182 -198 -182h-72v36c0 39 21 57 68 57h11c46 0 80 35 80 89c0 41 -32 71 -84 86c-124 36 -193 108 -193 227c0 173 91 249 249 249z
" />
    <glyph glyph-name="uni03DC" unicode="&#x3dc;" horiz-adv-x="581" 
d="M456 317h-265v-347h-53c-46 0 -64 16 -64 63v683h484v-35c0 -34 -13 -60 -68 -60h-299v-210h335v-36c0 -33 -15 -58 -70 -58z" />
    <glyph glyph-name="uni03DD" unicode="&#x3dd;" horiz-adv-x="510" 
d="M373 123h-186v-347h-53c-45 0 -62 16 -62 63v681h401v-34c0 -33 -12 -59 -67 -59h-219v-210h254v-36c0 -32 -14 -58 -68 -58z" />
    <glyph glyph-name="uni03DE" unicode="&#x3de;" horiz-adv-x="649" 
d="M629 65v-37c0 -31 -9 -58 -73 -58h-13c-106 0 -144 58 -144 134c0 15 2 30 4 44l36 237l-255 -215h-97l47 388c5 45 -8 66 -50 66h-63v92h71c119 0 170 -58 155 -166l-31 -227l261 216h97l-60 -394c-7 -49 7 -80 52 -80h63z" />
    <glyph glyph-name="uni03DF" unicode="&#x3df;" horiz-adv-x="563" 
d="M535 394l-142 -424h-116l109 330h-355l135 416h117l-104 -322h356z" />
    <glyph glyph-name="uni03E0" unicode="&#x3e0;" horiz-adv-x="863" 
d="M439 625v-201h-53c-46 0 -64 17 -64 63v144c-80 -6 -175 -59 -234 -122l-70 78c82 87 200 142 355 142c256 0 440 -198 446 -487c4 -218 -132 -406 -324 -478l-54 82c124 54 262 181 262 381c0 31 -1 80 -9 109c-71 0 -125 -2 -125 -96v-201h-54c-46 0 -63 17 -63 63v133
c0 140 38 191 206 200c-38 82 -109 168 -219 190z" />
    <glyph glyph-name="uni03E1" unicode="&#x3e1;" horiz-adv-x="561" 
d="M35 653l62 77c272 -145 427 -412 427 -776c0 -42 -6 -129 -10 -177h-108c7 52 11 148 11 205c0 55 -5 111 -16 165l-115 -69l-52 85l141 86c-13 40 -29 79 -49 116l-140 -88l-52 87l139 84c-59 80 -138 150 -238 205z" />
    <glyph glyph-name="uni03E2" unicode="&#x3e2;" horiz-adv-x="907" 
d="M826 716v-697c0 -203 -64 -243 -245 -243h-508v37c0 39 21 57 69 57h433c99 0 134 24 134 134c-24 -21 -60 -34 -109 -34c-76 0 -129 26 -159 67c-40 -46 -104 -67 -173 -67c-131 0 -196 71 -196 192v554h117v-530c0 -88 32 -120 95 -120c74 0 109 33 109 125v525h117
v-541c0 -76 31 -109 91 -109c77 0 108 37 108 128v522h117z" />
    <glyph glyph-name="uni03E3" unicode="&#x3e3;" horiz-adv-x="845" 
d="M777 520v-491c0 -202 -55 -253 -233 -253h-474v36c0 39 22 57 69 57h399c97 0 123 37 123 135c-18 -17 -53 -34 -97 -34c-78 0 -122 23 -151 66c-38 -50 -90 -66 -159 -66c-131 0 -185 71 -185 190v360h116v-342c0 -87 23 -112 84 -112c74 0 99 32 99 123v331h115v-346
c0 -76 23 -108 82 -108c75 0 96 36 96 126v328h116z" />
    <glyph glyph-name="uni03E4" unicode="&#x3e4;" horiz-adv-x="688" 
d="M614 716v-746h-54c-46 0 -63 16 -63 63v224c-64 -28 -137 -42 -196 -42c-154 0 -253 87 -253 251c0 163 95 250 256 250h81v-35c0 -34 -13 -60 -69 -60h-9c-94 0 -141 -39 -141 -147c0 -106 54 -161 146 -161c59 0 124 9 185 42v361h117z" />
    <glyph glyph-name="uni03E5" unicode="&#x3e5;" horiz-adv-x="593" 
d="M517 716v-746h-53c-46 0 -63 16 -63 63v168c-29 -27 -71 -43 -124 -43c-144 0 -211 56 -211 220v206c0 91 43 132 141 132h80v-34c0 -33 -12 -59 -67 -59c-31 0 -38 -11 -38 -41v-201c0 -87 28 -129 96 -129c85 0 123 29 123 134v330h116z" />
    <glyph glyph-name="uni03E6" unicode="&#x3e6;" horiz-adv-x="681" 
d="M74 33v683h117v-274c58 27 116 39 166 39c196 0 272 -114 272 -348c0 -216 -93 -357 -372 -357h-178v35c0 33 12 59 68 59h107c174 0 258 93 258 255s-31 258 -156 258c-50 0 -111 -10 -165 -39v-374h-54c-46 0 -63 16 -63 63z" />
    <glyph glyph-name="uni03E7" unicode="&#x3e7;" horiz-adv-x="586" 
d="M526 246c0 -175 -87 -290 -237 -290c-37 0 -77 18 -106 32c-18 8 -32 15 -38 15c-16 0 -23 -8 -23 -33h-107c0 86 55 129 124 129c30 0 58 -13 86 -27c24 -11 46 -24 65 -24c81 0 121 80 121 196c0 33 -4 66 -12 86c-42 -57 -121 -84 -179 -84c-99 0 -167 52 -167 143
c0 97 70 145 192 145c49 0 106 -12 155 -44l50 80l83 -53l-59 -95c34 -42 52 -108 52 -176zM223 341c37 0 85 20 117 69c-22 20 -69 31 -94 31c-54 0 -78 -17 -78 -52c0 -28 23 -48 55 -48z" />
    <glyph glyph-name="uni03E8" unicode="&#x3e8;" horiz-adv-x="693" 
d="M632 189c0 -148 -105 -233 -304 -233c-173 0 -276 44 -276 212c0 165 168 202 287 232c146 36 154 85 154 125c0 66 -44 113 -147 113c-105 0 -157 -47 -157 -138h-114c4 139 77 230 275 230c186 0 258 -81 258 -210c0 -99 -62 -171 -237 -212
c-151 -35 -204 -73 -204 -141c0 -92 67 -116 166 -116c111 0 185 44 185 142c0 23 -4 57 -17 86l107 35c18 -37 24 -82 24 -125z" />
    <glyph glyph-name="uni03E9" unicode="&#x3e9;" horiz-adv-x="639" 
d="M564 49v-35c0 -41 -10 -58 -66 -58h-173c-172 0 -273 44 -273 210c0 159 160 200 274 230c128 34 143 82 143 133c0 65 -37 109 -139 109c-101 0 -145 -53 -143 -138h-113c-1 129 70 230 260 230c181 0 249 -84 249 -207c0 -97 -52 -177 -225 -218
c-150 -35 -192 -71 -192 -140c0 -91 66 -116 164 -116h234z" />
    <glyph glyph-name="uni03EA" unicode="&#x3ea;" horiz-adv-x="624" 
d="M594 716v-35c0 -42 -10 -60 -66 -60h-27c-15 0 -34 -9 -43 -25l-89 -160l210 -379l-1 -87h-540v87l208 377l-96 158c-10 16 -20 29 -35 29h-93v95h95c66 0 98 -23 128 -74l63 -108l59 110c27 50 63 72 131 72h96zM159 64h298l-149 268z" />
    <glyph glyph-name="uni03EB" unicode="&#x3eb;" horiz-adv-x="519" 
d="M483 520v-34c0 -42 -10 -59 -66 -59c-18 0 -25 -6 -34 -20l-65 -103l150 -247v-87h-422v87l148 245l-56 95c-10 19 -20 30 -38 30h-63v93h65c68 0 91 -23 120 -72l36 -61l37 60c26 42 49 73 112 73h76zM160 64h193l-97 156z" />
    <glyph glyph-name="uni03EC" unicode="&#x3ec;" horiz-adv-x="725" 
d="M362 574c173 0 297 -81 297 -258v-101c0 -176 -122 -259 -297 -259c-170 0 -296 81 -296 259v113c6 318 130 388 325 388h253v-35c0 -42 -9 -60 -66 -60h-188c-77 0 -127 -12 -158 -68c38 14 82 21 130 21zM542 215v101c0 95 -72 164 -180 164c-96 0 -179 -56 -179 -164
v-101c0 -107 81 -164 179 -164s180 54 180 164z" />
    <glyph glyph-name="uni03ED" unicode="&#x3ed;" horiz-adv-x="617" 
d="M564 154c0 -131 -84 -198 -257 -198c-169 0 -254 89 -254 282c0 182 83 282 309 282h167v-34c0 -42 -10 -59 -66 -59h-99c-162 0 -195 -67 -195 -191c0 -125 45 -187 142 -187c93 0 138 34 138 105c0 67 -27 103 -120 103c-20 0 -70 -4 -105 -16v93c28 11 77 19 108 19
c171 0 232 -67 232 -199z" />
    <glyph glyph-name="uni03EE" unicode="&#x3ee;" horiz-adv-x="595" 
d="M562 417c0 -22 -7 -47 -13 -58h-107c7 20 9 42 9 51c0 35 -15 55 -68 55h-29v-495h-54c-44 0 -63 16 -63 61v434h-29c-53 0 -69 -20 -69 -55c0 -9 1 -25 9 -51h-106c-4 11 -12 35 -12 58c0 95 66 143 178 143h29v156h117v-156h29c114 0 179 -45 179 -143z" />
    <glyph glyph-name="uni03EF" unicode="&#x3ef;" horiz-adv-x="431" 
d="M409 520v-34c0 -42 -9 -59 -65 -59h-70v-479l-116 80v399h-138v93h138v197l116 -69v-128h135z" />
    <glyph glyph-name="uni03F0" unicode="&#x3f0;" horiz-adv-x="669" 
d="M399 244l-226 -274h-141l110 133v217c0 82 -11 105 -44 107h-62v93h81c95 0 143 -42 143 -197v-77l226 274h141l-109 -132v-259c0 -51 18 -65 46 -65h59v-35c0 -33 -2 -59 -58 -59h-42c-85 0 -124 30 -124 145v129z" />
    <glyph glyph-name="uni03F1" unicode="&#x3f1;" horiz-adv-x="579" 
d="M289 534c146 0 226 -68 226 -217v-143c0 -149 -78 -218 -226 -218c-37 0 -69 5 -97 14c19 -46 56 -61 124 -61c110 0 176 -23 184 -133h-103c-9 27 -40 29 -87 29c-165 0 -247 58 -247 355v157c0 149 82 217 226 217zM399 174v143c0 68 -31 123 -110 123
c-68 0 -110 -42 -110 -123v-143c0 -80 40 -125 110 -125s110 42 110 125z" />
    <glyph glyph-name="uni03F2" unicode="&#x3f2;" horiz-adv-x="505" 
d="M269 64h196v-37c0 -31 -8 -57 -72 -57h-124c-121 0 -207 68 -207 186v176c0 117 86 188 207 188h191v-34c0 -32 -6 -59 -69 -59h-122c-59 0 -91 -33 -91 -95v-175c0 -56 32 -93 91 -93z" />
    <glyph glyph-name="uni03F3" unicode="&#x3f3;" horiz-adv-x="327" 
d="M136 664v66h116v-134h-40c-42 0 -76 24 -76 68zM136 -77v597h116v-597c0 -112 -66 -162 -177 -162h-86v39c0 37 25 56 62 56h24c41 0 61 25 61 67z" />
    <glyph glyph-name="uni03F4" unicode="&#x3f4;" horiz-adv-x="706" 
d="M351 730c200 0 291 -112 291 -312v-151c0 -199 -91 -311 -291 -311c-197 0 -291 112 -291 312v150c0 200 94 312 291 312zM351 56c117 0 174 70 174 212v30h-348v-31c0 -141 59 -211 174 -211zM525 393v26c0 124 -57 212 -174 212c-115 0 -174 -88 -174 -213v-25h348z
" />
    <glyph glyph-name="uni03F5" unicode="&#x3f5;" horiz-adv-x="489" 
d="M272 64h195v-37c0 -31 -9 -57 -72 -57h-123c-121 0 -207 71 -207 186v176c0 114 86 188 207 188h191v-34c0 -32 -6 -59 -69 -59h-122c-59 0 -91 -33 -91 -95v-40h249v-35c0 -32 -10 -58 -63 -58h-186v-42c0 -56 32 -93 91 -93z" />
    <glyph glyph-name="uni03F6" unicode="&#x3f6;" horiz-adv-x="499" 
d="M32 64h195c59 0 92 37 92 93v42h-186c-53 0 -63 26 -63 58v35h249v40c0 62 -33 95 -92 95h-121c-63 0 -70 27 -70 59v34h191c122 0 208 -74 208 -188v-176c0 -115 -86 -186 -208 -186h-122c-64 0 -73 26 -73 57v37z" />
    <glyph glyph-name="uni03F7" unicode="&#x3f7;" horiz-adv-x="632" 
d="M190 -30h-52c-43 0 -63 16 -63 61v685h115v-162h149c157 0 247 -38 247 -208c0 -162 -80 -218 -239 -218h-157v-158zM190 460v-239h159c97 0 123 47 123 122c0 99 -42 117 -125 117h-157z" />
    <glyph glyph-name="uni03F8" unicode="&#x3f8;" horiz-adv-x="566" 
d="M75 721h116v-201h101c135 0 208 -60 208 -178v-193c0 -120 -73 -179 -208 -179h-101v-194h-54c-43 0 -62 16 -62 61v884zM191 427v-363h101c55 0 93 31 93 94v174c0 65 -38 95 -92 95h-102z" />
    <glyph glyph-name="uni03F9" unicode="&#x3f9;" horiz-adv-x="583" 
d="M547 64v-37c0 -30 -12 -57 -75 -57h-205c-119 0 -206 78 -206 196v357c0 119 84 193 229 193h247v-36c0 -33 -10 -59 -74 -59h-170c-77 0 -115 -38 -115 -111v-337c0 -57 31 -109 93 -109h276z" />
    <glyph glyph-name="uni03FA" unicode="&#x3fa;" horiz-adv-x="871" 
d="M796 716v-746h-53c-44 0 -62 17 -62 60v517l-165 -197c-15 -17 -43 -42 -82 -42c-38 0 -69 25 -82 41l-163 198v-577h-53c-40 0 -63 20 -63 55v691h116l233 -295c6 -7 20 -7 26 0l233 295h115z" />
    <glyph glyph-name="uni03FB" unicode="&#x3fb;" horiz-adv-x="741" 
d="M669 520v-550h-53c-45 0 -63 17 -63 60v303l-95 -140c-17 -26 -46 -44 -84 -44c-39 0 -65 19 -83 43l-104 141v-533h-53c-40 0 -63 20 -63 55v665h110l181 -257c7 -10 18 -12 26 0l171 257h110z" />
    <glyph glyph-name="uni03FC" unicode="&#x3fc;" horiz-adv-x="599" 
d="M318 534c146 0 226 -68 226 -217v-119c0 -149 -78 -218 -226 -218h-110v-46h160v-38c0 -30 -12 -57 -75 -57h-85v-63h-53c-45 0 -63 16 -63 63h-76v95h76v383c0 149 82 217 226 217zM428 198v119c0 68 -31 123 -110 123c-68 0 -110 -42 -110 -123v-244h110
c70 0 110 42 110 125z" />
    <glyph glyph-name="uni03FD" unicode="&#x3fd;" horiz-adv-x="576" 
d="M31 27v37h273c62 0 92 51 92 107v342c0 72 -37 110 -113 110h-169c-63 0 -73 26 -73 58v35h245c143 0 226 -76 226 -191v-361c0 -114 -86 -194 -204 -194h-203c-62 0 -74 27 -74 57z" />
    <glyph glyph-name="uni03FE" unicode="&#x3fe;" horiz-adv-x="588" 
d="M550 64v-37c0 -30 -12 -57 -74 -57h-203c-118 0 -204 80 -204 194v361c0 115 83 191 226 191h245v-35c0 -32 -10 -58 -73 -58h-169c-76 0 -113 -38 -113 -110v-342c0 -56 30 -107 92 -107h273zM438 414v-127h-126v127h126z" />
    <glyph glyph-name="uni03FF" unicode="&#x3ff;" horiz-adv-x="587" 
d="M31 27v37h273c62 0 92 51 92 107v342c0 72 -37 110 -113 110h-169c-63 0 -73 26 -73 58v35h245c143 0 226 -76 226 -191v-361c0 -114 -86 -194 -204 -194h-203c-62 0 -74 27 -74 57zM264 411v-127h-126v127h126z" />
    <glyph glyph-name="uni0400" unicode="&#x400;" horiz-adv-x="602" 
d="M495 -30h-421v746h472v-34c0 -38 -10 -61 -64 -61h-291v-210h324v-36c0 -32 -10 -58 -63 -58h-261v-253h367v-36c0 -32 -11 -58 -63 -58zM196 930h122l86 -146h-49c-34 0 -51 8 -68 31z" />
    <glyph glyph-name="afii10023" unicode="&#x401;" horiz-adv-x="602" 
d="M495 -30h-421v746h472v-34c0 -38 -10 -61 -64 -61h-291v-210h324v-36c0 -32 -10 -58 -63 -58h-261v-253h367v-36c0 -32 -11 -58 -63 -58zM351 900h121v-119h-121v119zM156 900h121v-119h-121v119z" />
    <glyph glyph-name="afii10051" unicode="&#x402;" horiz-adv-x="860" 
d="M242 31v590h-226v95h570v-35c0 -42 -9 -60 -66 -60h-161v-192c61 27 123 42 177 42c153 0 272 -87 272 -251c0 -162 -85 -250 -246 -250h-81v35c0 33 13 59 69 59h9c94 0 131 52 131 149c0 106 -64 160 -156 160c-59 0 -112 -12 -175 -42v-361h-53c-44 0 -64 16 -64 61z
" />
    <glyph glyph-name="afii10052" unicode="&#x403;" horiz-adv-x="578" 
d="M191 621v-651h-53c-46 0 -64 16 -64 63v683h484v-35c0 -34 -13 -60 -68 -60h-299zM271 930h122l-91 -115c-19 -22 -34 -31 -68 -31h-49z" />
    <glyph glyph-name="afii10053" unicode="&#x404;" horiz-adv-x="602" 
d="M560 64v-37c0 -30 -12 -57 -75 -57h-205c-119 0 -205 81 -205 196v357c0 116 83 193 228 193h247v-36c0 -33 -10 -59 -74 -59h-170c-77 0 -114 -38 -114 -111v-117h309v-36c0 -32 -10 -59 -64 -59h-245v-125c0 -57 30 -109 92 -109h276z" />
    </font>
</defs>
</svg>
