<?xml version="1.0" standalone="no"?>
<!DOCTYPE svg PUBLIC "-//W3C//DTD SVG 1.1//EN" "http://www.w3.org/Graphics/SVG/1.1/DTD/svg11.dtd" >
<svg xmlns="http://www.w3.org/2000/svg" xmlns:xlink="http://www.w3.org/1999/xlink" version="1.1">
<metadata>
Created by FontForge 20170731 at Thu Jun 23 19:33:55 2005
 By Aleksey,,,
Copyright 2002 International Typeface Corporation. All rights reserved.
</metadata>
<defs>
<font id="NewtextITCStd-Regular" horiz-adv-x="700" >
  <font-face 
    font-family="Newtext ITC Std"
    font-weight="450"
    font-stretch="normal"
    units-per-em="1000"
    panose-1="2 0 5 5 4 0 0 2 0 4"
    ascent="800"
    descent="-200"
    x-height="467"
    cap-height="667"
    bbox="-95 -211 1527 926"
    underline-thickness="50"
    underline-position="-200"
    unicode-range="U+0020-FB02"
  />
<missing-glyph horiz-adv-x="500" 
d="M12 0v665h475v-665h-475zM88 618l162 -243l161 243h-323zM60 575v-484l40 61l80 120l41 61zM440 575l-162 -242l162 -243v485zM411 48l-161 242l-162 -242h323z" />
    <glyph glyph-name="f_i" unicode="fi" horiz-adv-x="664" 
d="M626 0h-206q29 22 38 47t9 66v209q0 25 -12.5 32t-46.5 7h-158v-248q0 -42 9 -66t38 -47h-206q29 22 38 46.5t9 66.5v248h-106q-19 0 -37 -13l37 122q13 -17 54 -17h53q-2 36 -2 52q0 84 62.5 131t185.5 47q50 0 114.5 -9t76.5 -9q10 0 25 6l-29 -111q-34 36 -172 36
q-86 0 -122.5 -25.5t-36.5 -82.5q0 -17 9 -35h347q-18 -14 -18 -53v-300q0 -64 47 -100z" />
    <glyph glyph-name="f_l" unicode="fl" horiz-adv-x="664" 
d="M626 0h-206q29 22 38 47t9 66v462q-58 20 -110 20q-56 0 -86 -24t-30 -64q0 -31 9 -54h76q43 0 69 11l-35 -117q-14 14 -59 14h-51v-248q0 -42 9 -66t38 -47h-206q29 22 38 46.5t9 66.5v248h-106q-19 0 -37 -13l37 122q13 -17 54 -17h53q0 9 -1 25.5t-1 20.5
q0 89 57.5 136t151.5 47q28 0 89 -9t93 -9q26 0 70 4q-13 -8 -16 -20t-3 -41v-494q0 -41 8.5 -65.5t38.5 -47.5z" />
    <glyph glyph-name=".notdef" horiz-adv-x="500" 
d="M12 0v665h475v-665h-475zM88 618l162 -243l161 243h-323zM60 575v-484l40 61l80 120l41 61zM440 575l-162 -242l162 -243v485zM411 48l-161 242l-162 -242h323z" />
    <glyph glyph-name=".null" horiz-adv-x="0" 
 />
    <glyph glyph-name="nonmarkingreturn" horiz-adv-x="333" 
 />
    <glyph glyph-name="space" unicode=" " horiz-adv-x="307" 
 />
    <glyph glyph-name="exclam" unicode="!" horiz-adv-x="335" 
d="M247 477q0 -71 -18 -172q-10 -55 -23.5 -79.5t-37.5 -24.5q-29 0 -44 39t-27 130q-11 92 -11 132q0 85 22 131.5t61 46.5q78 0 78 -203zM258 60q0 -31 -23 -52t-65 -21q-91 0 -91 73q0 34 25 54.5t65 20.5q41 0 65 -20.5t24 -54.5z" />
    <glyph glyph-name="quotedbl" unicode="&#x22;" horiz-adv-x="530" 
d="M435 667q-20 -16 -23 -51l-23 -209h-62l-24 210q-3 32 -24 50h156zM251 667q-20 -16 -23 -51l-23 -209h-62l-25 210q-3 32 -23 50h155h1z" />
    <glyph glyph-name="numbersign" unicode="#" 
d="M596 443l-9 -62h-114l-15 -103h115l-9 -62h-114l-25 -178h-66l25 178h-106l-25 -178h-65l25 178h-109l9 62h109l14 103h-109l9 62h109l23 163h65l-23 -163h106l23 163h65l-22 -163h114zM408 381h-107l-14 -103h106z" />
    <glyph glyph-name="dollar" unicode="$" 
d="M606 212q0 -78 -57 -133.5t-155 -60.5v-48q0 -28 14 -38h-100q14 11 14 26v60q-31 4 -88.5 18.5t-87.5 14.5q-27 0 -49 -17v166q100 -84 225 -90v183q-51 14 -82.5 26.5t-62.5 33.5t-45 51.5t-14 73.5q0 68 51 115t153 56v28q0 12 -14 28h100q-14 -11 -14 -28v-28
q14 -4 40 -7q17 -3 51.5 -11t48.5 -8q13 0 27 10v-146q-85 62 -167 71v-172q48 -10 80 -20.5t65.5 -29.5t50 -50t16.5 -74zM322 400v159q-40 -2 -64.5 -22.5t-24.5 -54.5q0 -64 89 -82zM494 199q0 33 -25 51t-75 30v-172q51 5 75.5 30.5t24.5 60.5z" />
    <glyph glyph-name="percent" unicode="%" horiz-adv-x="1061" 
d="M1032 188q0 -95 -59.5 -148t-171.5 -53q-100 0 -159.5 51t-59.5 150q0 92 63.5 144.5t171.5 52.5q100 0 157.5 -51.5t57.5 -145.5zM790 668q-26 -15 -56 -63l-332 -553q-16 -27 -16 -39q0 -7 6 -13h-118q8 5 15 10.5t11 9t10 11.5t7.5 11t8 14t8.5 14l330 549
q15 27 15 29v7q0 6 -7 13h118zM479 483q0 -95 -59.5 -148t-171.5 -53q-101 0 -160 51.5t-59 149.5q0 91 63.5 144t171.5 53q100 0 157.5 -51.5t57.5 -145.5zM940 181q0 135 -127 135q-66 0 -102.5 -34t-36.5 -93q0 -64 35 -98.5t100 -34.5q64 0 97.5 34.5t33.5 90.5z
M387 476q0 135 -127 135q-66 0 -102.5 -34t-36.5 -92q0 -64 35 -99t100 -35q64 0 97.5 34.5t33.5 90.5z" />
    <glyph glyph-name="ampersand" unicode="&#x26;" horiz-adv-x="884" 
d="M857 305h-41q-36 0 -56.5 -9t-34.5 -36l-20 -38q40 -37 63 -74.5t28 -62.5t10.5 -49.5t15.5 -35.5h-162q18 14 18 38q0 53 -34 87q-1 -1 -18 -19.5t-25 -25.5t-28.5 -25t-39.5 -26.5t-46 -19.5t-60.5 -16t-70.5 -5q-144 0 -225.5 60.5t-81.5 163.5q0 42 12 73t36.5 51.5
t42.5 30.5t50 24q-58 50 -58 112q0 83 74 130t216 47q48 0 115 -10.5t80 -10.5q24 0 37 11v-147q-134 66 -235 66q-69 0 -108 -25t-39 -59q0 -33 26 -57.5t63 -40.5t113 -51t141 -73q16 13 16 65q0 35 -16 57h242q-10 -7 -10 -22v-57q0 -11 10 -21zM569 191
q-21 14 -47.5 28.5t-43.5 22.5t-52.5 23.5t-47.5 21.5q-17 8 -51.5 24t-51.5 24q-38 -16 -60.5 -47.5t-22.5 -67.5q0 -60 49 -97.5t123 -37.5q58 0 112.5 26.5t92.5 79.5z" />
    <glyph glyph-name="quotesingle" unicode="'" horiz-adv-x="307" 
d="M231 667q-20 -16 -23 -51l-23 -209h-62l-25 210q-3 31 -22 50h155z" />
    <glyph glyph-name="parenleft" unicode="(" horiz-adv-x="500" 
d="M409 -138q-139 12 -242 127.5t-103 278.5q0 85 29 160t76 127t105.5 84.5t119.5 40.5q-8 -12 -8 -18v-44q0 -11 8 -16q-76 -17 -138 -114.5t-62 -216.5q0 -86 39.5 -165t88.5 -122t87 -47q-7 -7 -7 -17v-41q0 -7 7 -17z" />
    <glyph glyph-name="parenright" unicode=")" horiz-adv-x="500" 
d="M437 264q0 -153 -100 -269.5t-231 -132.5q9 14 9 18v44q0 10 -9 16q76 17 138.5 114.5t62.5 208.5q0 71 -24 136.5t-58.5 108t-70.5 68.5t-63 29q7 7 7 17v41q0 7 -7 17q115 -10 207.5 -92t124.5 -199q14 -51 14 -125z" />
    <glyph glyph-name="asterisk" unicode="*" horiz-adv-x="473" 
d="M411 495q-17 18 -36 18q-4 0 -24 -4l-46 -9q-5 -21 -9 -28l36 -38q19 -21 36 -21q4 0 18 2q-25 -33 -47.5 -49.5t-62.5 -30.5q11 19 11 28t-13 35l-23 41q-1 0 -6.5 -0.5t-7.5 -0.5q-9 0 -17 2l-21 -42q-12 -24 -12 -32q0 -15 9 -29q-38 12 -61 28.5t-49 49.5q6 -1 15 -1
q18 0 37 19l38 38q-6 13 -9 31l-44 7q-3 0 -8.5 1.5t-10.5 1.5q-23 0 -42 -17v23q0 48 39 101q8 -24 18 -32q6 -5 18 -11l47 -22q12 10 24 17l-7 58q-2 19 -9 26t-24 14q43 12 68 12q24 0 70 -12q-18 -4 -24.5 -12.5t-9.5 -29.5l-9 -56q14 -6 25 -17l48 23q20 10 25 17t9 26
q41 -55 41 -125z" />
    <glyph glyph-name="plus" unicode="+" 
d="M601 291h-208v-202h-86v202h-208v84h208v201h86v-201h208v-84z" />
    <glyph glyph-name="comma" unicode="," horiz-adv-x="307" 
d="M249 42q0 -39 -21 -81t-42 -60q-36 -32 -36 -41v-2l-83 50q33 5 50.5 28.5t17.5 41.5q0 16 -38 34q-27 14 -27 51q0 32 23 52t63 20q44 0 68.5 -24.5t24.5 -68.5z" />
    <glyph glyph-name="hyphen" unicode="-" horiz-adv-x="323" 
d="M323 321l-30 -74q-14 -34 -30 -45t-54 -11h-134q-47 0 -75 -19l24 62q14 37 31 47t54 10h102q47 0 66 5t46 25z" />
    <glyph glyph-name="period" unicode="." horiz-adv-x="307" 
d="M243 60q0 -34 -24 -53.5t-65 -19.5q-43 0 -66.5 19t-23.5 53q0 35 23.5 55.5t67.5 20.5q42 0 65 -20.5t23 -54.5z" />
    <glyph glyph-name="slash" unicode="/" horiz-adv-x="397" 
d="M393 667q-17 -10 -26.5 -24.5t-22.5 -45.5l-280 -684q-11 -28 -11 -35q0 -11 9 -18h-121q30 17 48 62l286 702q8 16 8 28q0 7 -8 15h118z" />
    <glyph glyph-name="zero" unicode="0" 
d="M665 337q0 -173 -91 -269q-44 -46 -99 -63.5t-134 -17.5q-155 0 -231 82t-76 251q0 231 144 318q68 42 184 42q303 0 303 -343zM535 342q0 125 -41.5 183t-130.5 58q-102 0 -150.5 -62t-48.5 -200q0 -123 45 -180t136 -57q98 0 144 61.5t46 196.5z" />
    <glyph glyph-name="one" unicode="1" 
d="M506 0h-238q37 31 47 64t10 91v334q-23 -15 -33 -21t-36.5 -15t-51.5 -9q-4 0 -13.5 0.5t-11.5 0.5q-9 0 -17 -5v122q17 -21 44 -21q57 0 102 33t45 73q0 14 -9 20h123q-17 -14 -17 -52v-472q0 -57 14 -87t42 -56z" />
    <glyph glyph-name="two" unicode="2" 
d="M670 0h-636q5 3 8 6.5t5.5 8t4 7t2.5 10t1 10.5t1 13t1 15q11 152 211 245q49 23 71 33.5t56 28t48 28.5t31 26.5t22.5 30t5.5 31.5q0 42 -35.5 66t-102.5 24q-62 0 -152 -28t-132 -60v166q19 -12 45 -12h7q18 0 107 15.5t154 15.5q108 0 173.5 -45.5t65.5 -132.5
q0 -132 -143 -198q-11 -5 -32 -15q-154 -72 -201 -105.5t-50 -87.5h270q41 0 65 2.5t54 16t50 40.5v-106q0 -21 4 -28.5t21 -20.5z" />
    <glyph glyph-name="three" unicode="3" 
d="M646 209q0 -96 -88.5 -159.5t-236.5 -63.5q-60 0 -132.5 10t-88.5 10q-35 0 -51 -13v155q120 -65 250 -65q92 0 154.5 33.5t62.5 95.5q0 49 -51.5 70.5t-153.5 21.5h-102q-43 0 -59 -19v129q8 -10 16 -12t30 -2h93q181 0 181 96q0 87 -134 87q-59 0 -128 -16.5
t-120 -44.5v151q16 -12 39 -12q24 0 104.5 9.5t130.5 9.5q117 0 177.5 -43.5t60.5 -122.5q0 -97 -104 -147q75 -14 112.5 -51t37.5 -107z" />
    <glyph glyph-name="four" unicode="4" 
d="M683 284l-26 -77q-15 -42 -54 -42h-17v-55q0 -40 13.5 -64t47.5 -46h-241q30 20 44 42.5t14 67.5v55h-426q2 6 2 7q0 2 -2 12l-17 77q-2 12 -12 23l367 353q10 10 10 17q0 5 -8 13h226q-13 -11 -15.5 -22.5t-2.5 -42.5v-341h22q22 0 37 3.5t20 7t18 12.5zM464 261v326
l-339 -326h339z" />
    <glyph glyph-name="five" unicode="5" 
d="M644 208q0 -101 -90 -161t-232 -60q-69 0 -140 9l-71 10q-14 0 -27 -13l-39 158q156 -67 271 -67q93 0 145.5 34t52.5 91q0 50 -42.5 77t-116.5 27q-114 0 -213 -48q-1 10 -8 16l-49 41q-5 5 -15 5h-4l26 287q1 8 1 20q0 21 -17 33h513q-9 -9 -9 -21q0 -3 0.5 -5.5
t1.5 -5.5t1 -5l26 -116q-36 35 -83.5 46t-128.5 11h-195l-17 -194q80 33 178 33q281 0 281 -202z" />
    <glyph glyph-name="six" unicode="6" 
d="M650 231q0 -111 -80.5 -178t-211.5 -67q-308 0 -308 344q0 157 94 253.5t259 96.5q45 0 110.5 -11t75.5 -11q14 0 25 6l-25 -135q-91 54 -183 54q-105 0 -163.5 -55.5t-63.5 -141.5q102 50 218 50q123 0 188 -55t65 -150zM527 221q0 56 -38.5 87t-107.5 31
q-117 0 -201 -60v-15q0 -84 46 -132.5t133 -48.5q68 0 118 38t50 100z" />
    <glyph glyph-name="seven" unicode="7" 
d="M684 667q-39 -35 -104 -128q-103 -146 -154 -254t-51 -195q0 -61 29 -90h-208q14 11 18 35t12.5 72t29.5 100q11 26 22.5 51t29 55.5t27 47.5t34 55t31 48t37 55.5t34.5 51.5h-155q-91 0 -151 -10t-118 -46l47 113q5 12 5 19q0 12 -8 20h593z" />
    <glyph glyph-name="eight" unicode="8" 
d="M657 200q0 -96 -85.5 -154.5t-209.5 -58.5q-321 0 -321 205q0 76 41 115t116 67q-27 8 -43.5 15.5t-35.5 22t-28 37.5t-9 56q0 78 75 127t208 49q153 0 219 -72q35 -38 35 -102q0 -101 -120 -133q82 -18 120 -58.5t38 -115.5zM489 500q0 41 -35 62.5t-98 21.5
q-68 0 -106 -23.5t-38 -58.5q0 -95 139 -95q61 0 99.5 25t38.5 68zM527 199q0 117 -167 117q-91 0 -140 -31.5t-49 -82.5q0 -57 46.5 -87.5t137.5 -30.5q80 0 126 33.5t46 81.5z" />
    <glyph glyph-name="nine" unicode="9" 
d="M649 336q0 -156 -96 -253t-252 -97q-52 0 -117.5 12.5t-73.5 12.5q-2 0 -5.5 0.5t-5.5 0.5q-8 0 -16 -7l27 137q80 -59 187 -59q95 0 155.5 55t68.5 145q-108 -52 -218 -52q-123 0 -187.5 55t-64.5 155q0 105 78 172t220 67q76 0 139 -28.5t100 -80.5q61 -85 61 -235z
M519 391v16q0 76 -47 126t-124 50q-74 0 -120.5 -39.5t-46.5 -99.5q0 -55 36.5 -85.5t101.5 -30.5q54 0 109 16.5t91 46.5z" />
    <glyph glyph-name="colon" unicode=":" horiz-adv-x="307" 
d="M243 408q0 -33 -24 -53t-67 -20q-40 0 -64 19t-24 54q0 34 24 54.5t66 20.5q43 0 66 -20t23 -55zM243 60q0 -34 -23.5 -53.5t-67.5 -19.5q-41 0 -64.5 19t-23.5 54q0 34 24 54.5t66 20.5q43 0 66 -20t23 -55z" />
    <glyph glyph-name="semicolon" unicode=";" horiz-adv-x="307" 
d="M244 410q0 -34 -24 -54.5t-67 -20.5t-65.5 19.5t-22.5 53.5q0 33 24 54t67 21q40 0 64 -20t24 -53zM249 42q0 -39 -21 -81t-42 -60q-36 -32 -36 -41v-2l-83 50q33 5 50.5 28.5t17.5 41.5q0 16 -38 34q-27 14 -27 51q0 32 23 52t63 20q44 0 68.5 -24.5t24.5 -68.5z" />
    <glyph glyph-name="less" unicode="&#x3c;" 
d="M601 73l-502 214v89l502 213v-104l-390 -154l390 -153v-105z" />
    <glyph glyph-name="equal" unicode="=" 
d="M601 375h-502v80h502v-80zM601 210h-502v80h502v-80z" />
    <glyph glyph-name="greater" unicode="&#x3e;" 
d="M601 287l-502 -214v105l390 153l-390 154v104l502 -213v-89z" />
    <glyph glyph-name="question" unicode="?" horiz-adv-x="643" 
d="M617 462q0 -99 -79 -158t-206 -64q-112 -4 -125 -10q-9 -3 -14 -12v127q20 -14 67 -14q93 0 143 22q75 33 75 109q0 60 -40 93.5t-117 33.5q-71 0 -152.5 -31.5t-136.5 -77.5v165q12 -13 34 -13q16 0 103.5 24t163.5 24q140 0 212 -61t72 -157zM387 59q0 -31 -23.5 -51.5
t-71.5 -20.5q-38 0 -61 20t-23 52q0 33 23.5 54.5t70.5 21.5q40 0 62.5 -20.5t22.5 -55.5z" />
    <glyph glyph-name="at" unicode="@" horiz-adv-x="776" 
d="M776 361q0 -93 -50.5 -154t-117.5 -61q-63 0 -104 55q-58 -51 -131 -51q-76 0 -129.5 49.5t-53.5 127.5q0 83 53.5 138t133.5 55q83 0 130 -59l15 30h65q-17 -19 -22 -47.5t-8 -89.5q0 -4 -2 -30.5t-2 -41.5q0 -38 17 -58t43 -20q42 0 73 42t31 111q0 120 -83.5 195
t-221.5 75q-151 0 -252 -85.5t-101 -222.5q0 -123 87.5 -199t226.5 -76q107 0 142 32l31 -63l-5 1q-13 0 -64 -12t-103 -12q-165 0 -269.5 93.5t-104.5 237.5q0 161 117 259t293 98q166 0 266 -90.5t100 -226.5zM490 339q0 61 -28 92t-76 31q-51 0 -83 -37t-32 -96
q0 -57 29 -89t77 -32q52 0 82.5 34t30.5 97z" />
    <glyph glyph-name="A" unicode="A" horiz-adv-x="854" 
d="M856 0h-220q24 22 24 51q0 25 -16 59l-17 38h-407l-13 -25q-17 -34 -17 -67q0 -32 36 -56h-228q12 14 23 28.5t21 29.5t16.5 25.5t15 26.5t11.5 22t11 23.5t9 19.5l201 426q12 24 12 32q0 23 -13 34h249q-14 -12 -14 -28q0 -12 14 -40l195 -423q1 -3 6.5 -15.5t8 -17
t8 -16.5t8.5 -18t9 -17t11 -18.5t11.5 -18t13 -19t14.5 -18t17 -18.5zM580 254l-155 326l-157 -326h312z" />
    <glyph glyph-name="B" unicode="B" horiz-adv-x="829" 
d="M787 197q0 -74 -61 -126q-53 -46 -131 -58.5t-227 -12.5h-325q30 23 43 49.5t13 92.5v385q0 65 -12.5 91t-43.5 49h357q69 0 116.5 -4t90.5 -14.5t68 -30t39.5 -51t14.5 -75.5q0 -73 -99 -129q82 -22 119.5 -58t37.5 -108zM586 479q0 19 -6 33t-19.5 23t-28 14.5t-39.5 8
t-46.5 3t-55.5 0.5h-162v-171h133q120 0 172 17t52 72zM644 206q0 88 -163 88h-252v-188h139q50 0 80.5 1t66.5 4t56 9.5t38.5 17.5t26.5 28t8 40z" />
    <glyph glyph-name="C" unicode="C" horiz-adv-x="746" 
d="M714 662l-57 -163q-29 34 -90.5 55t-130.5 21q-115 0 -184.5 -67.5t-69.5 -181.5q0 -111 65.5 -172t189.5 -61q60 0 127.5 20t119.5 51v-159q-6 10 -21 10q-14 0 -99 -14t-151 -14q-175 0 -274.5 87t-99.5 248t104.5 260t275.5 99q62 0 149.5 -13t108.5 -13t37 7z" />
    <glyph glyph-name="D" unicode="D" horiz-adv-x="841" 
d="M803 344q0 -146 -92 -238q-57 -57 -134.5 -81.5t-188.5 -24.5h-345q31 22 44 48t13 90v388q0 64 -13 92t-44 49h357q150 0 238 -46q79 -41 122 -112.5t43 -164.5zM660 340q0 123 -67 172t-204 49h-159v-455h159q101 0 159.5 26t87.5 91q24 53 24 117z" />
    <glyph glyph-name="E" unicode="E" horiz-adv-x="808" 
d="M778 162l-43 -110q-7 -16 -7 -25q0 -13 16 -27h-706q34 14 48 46t14 91v390q0 61 -14.5 93.5t-47.5 46.5h685q-9 -8 -9 -18v-6q0 -4 9 -31l32 -107q-39 32 -81 44t-128 12h-316v-163h301q73 0 107 16l-47 -78q-13 -21 -20 -27.5t-29 -11.5t-66 -5h-246v-186h269
q94 0 156.5 10.5t122.5 45.5z" />
    <glyph glyph-name="F" unicode="F" horiz-adv-x="710" 
d="M693 505q-64 56 -205 56h-258v-182h305q63 0 94 17l-49 -84q-16 -28 -31 -33.5t-57 -5.5h-262v-133q0 -91 26 -114q4 -3 14.5 -13t14.5 -13h-243q31 21 44.5 49t13.5 91v384q0 64 -13.5 93t-44.5 50h642q-16 -9 -16 -32q0 -8 5 -33z" />
    <glyph glyph-name="G" unicode="G" horiz-adv-x="850" 
d="M796 397q-23 -16 -23 -47v-323q-36 12 -55 12q-22 0 -123 -26t-180 -26q-173 0 -274.5 91t-101.5 249q0 65 25 128.5t70 111.5q107 113 311 113q66 0 150 -11.5t107 -11.5q29 0 49 8l-44 -159q-91 68 -254 68q-125 0 -198 -69t-73 -182q0 -109 64 -169.5t184 -60.5
q93 0 153 30q37 18 52.5 43.5t15.5 64.5v60h-200q-31 0 -44 -3t-22 -15l25 88q6 23 16.5 29.5t32.5 6.5h337z" />
    <glyph glyph-name="H" unicode="H" horiz-adv-x="863" 
d="M820 0h-244q32 21 44.5 49t12.5 91v165h-404v-165q0 -64 13 -91.5t44 -48.5h-244q31 21 44 48.5t13 91.5v386q0 64 -13 92t-44 49h244q-31 -21 -44 -49t-13 -92v-115h404v115q0 63 -13 91.5t-44 49.5h244q-21 -15 -31 -26.5t-18 -40t-8 -74.5v-386q0 -45 8.5 -73.5
t18 -39.5t30.5 -27z" />
    <glyph glyph-name="I" unicode="I" horiz-adv-x="329" 
d="M286 0h-244q31 21 44.5 49t13.5 91v387q0 63 -13.5 91.5t-44.5 48.5h244q-30 -22 -43 -48t-13 -92v-387q0 -66 13 -92t43 -48z" />
    <glyph glyph-name="J" unicode="J" horiz-adv-x="579" 
d="M547 667q-32 -19 -45 -48.5t-13 -91.5v-253q0 -78 -8 -120q-15 -77 -77 -122t-155 -45q-68 0 -140.5 17t-73.5 17q-16 0 -28 -10v157q93 -75 211 -75q45 0 74 13t43 39t19 55.5t5 72.5v254q0 45 -7.5 73t-16.5 38t-27 25q-1 1 -2.5 2t-2.5 2h244z" />
    <glyph glyph-name="K" unicode="K" horiz-adv-x="864" 
d="M863 0h-270q21 13 21 29q0 14 -28 48l-196 250l-160 -124v-63q0 -63 13 -91.5t44 -48.5h-245q32 20 45 48.5t13 91.5v387q0 62 -13 91t-45 49h245q-31 -20 -44 -48.5t-13 -91.5v-182l315 243q42 32 42 56q0 12 -11 23h287q-111 -60 -238 -158l-126 -98l200 -251
q89 -114 164 -160z" />
    <glyph glyph-name="L" unicode="L" horiz-adv-x="687" 
d="M683 157l-31 -91q-9 -29 -9 -42q0 -12 14 -24h-618q34 16 47 47.5t13 91.5v388q0 48 -8.5 77t-17 38t-29.5 25h242q-30 -21 -43.5 -48t-13.5 -92v-421h239q74 0 119.5 9t95.5 42z" />
    <glyph glyph-name="M" unicode="M" horiz-adv-x="1078" 
d="M1037 0h-246q32 21 45 49t13 91v441l-221 -542q-5 -15 -5 -18q0 -9 5 -21h-179q8 13 8 21q0 6 -17 46l-218 504v-431q0 -62 13.5 -91t45.5 -49h-240q32 20 45.5 49.5t13.5 90.5v387q0 62 -13 91t-45 49h301q-15 -13 -15 -24q0 -10 16 -46l203 -465l187 455q15 36 15 48
q0 20 -15 32h303q-32 -20 -45 -49t-13 -91v-387q0 -62 13 -91t45 -49z" />
    <glyph glyph-name="N" unicode="N" horiz-adv-x="836" 
d="M794 667q-31 -19 -44.5 -48.5t-13.5 -91.5v-477q0 -33 20 -50h-195q8 16 8 20q0 10 -15 30l-337 447v-357q0 -45 8 -73.5t18 -40t31 -26.5h-231q31 23 44 49.5t13 90.5v387q0 64 -13 91.5t-44 48.5h238q-11 -11 -11 -20q0 -12 19 -38l330 -439v357q0 46 -8.5 75t-17.5 39
t-30 26h231z" />
    <glyph glyph-name="O" unicode="O" horiz-adv-x="863" 
d="M824 336q0 -154 -103.5 -251.5t-290.5 -97.5q-177 0 -284 93t-107 262q0 81 41 158q97 180 364 180q175 0 277.5 -92t102.5 -252zM681 330q0 121 -62 182.5t-179 61.5q-120 0 -189 -62.5t-69 -168.5q0 -122 63.5 -186t184.5 -64q116 0 183.5 65.5t67.5 171.5z" />
    <glyph glyph-name="P" unicode="P" horiz-adv-x="755" 
d="M734 454q0 -70 -37 -121q-42 -58 -113.5 -77t-196.5 -19h-158v-97q0 -90 27 -114q14 -14 29 -26h-243q31 21 44 48.5t13 91.5v386q0 63 -13 92t-44 49h385q94 0 153 -13.5t101 -57.5q53 -54 53 -142zM591 456q0 64 -42 84.5t-131 20.5h-189v-218h153q112 0 160.5 21.5
t48.5 91.5z" />
    <glyph glyph-name="Q" unicode="Q" horiz-adv-x="863" 
d="M832 -109q-75 -40 -133 -40q-70 0 -141 46q-6 4 -24.5 16t-25 16t-21.5 12.5t-24.5 11t-23 5.5t-27.5 3q-104 0 -179 -90q-3 9 -9 18l-43 59q-1 1 -16 11q57 49 107 58q-106 22 -169.5 109t-63.5 216q0 81 41 158q97 180 364 180q175 0 277.5 -92t102.5 -252
q0 -118 -63 -207t-183 -124q15 -8 33.5 -18.5t28 -16t23.5 -9.5t30 -4q37 0 93 30q-1 -7 -1 -8q0 -6 3 -13l27 -56q2 -4 17 -19zM681 330q0 121 -62 182.5t-179 61.5q-120 0 -189 -62.5t-69 -168.5q0 -122 63.5 -186t184.5 -64q116 0 183.5 65.5t67.5 171.5z" />
    <glyph glyph-name="R" unicode="R" horiz-adv-x="837" 
d="M825 0h-242q16 18 16 37q0 40 -43 105q-42 65 -91 90t-121 25h-114v-117q0 -64 13 -90.5t44 -49.5h-246q33 19 46 49t13 91v388q0 60 -13 90.5t-46 48.5h364q145 0 214.5 -14.5t108.5 -68.5q36 -50 36 -118q0 -55 -31 -100q-41 -61 -152 -88q45 -21 78.5 -59t51 -74
t47.5 -77.5t67 -67.5zM621 467q0 56 -43 75t-138 19h-210v-198h198q47 0 77.5 3t59.5 13.5t42.5 32t13.5 55.5z" />
    <glyph glyph-name="S" unicode="S" horiz-adv-x="701" 
d="M670 207q0 -100 -85 -160t-223 -60q-62 0 -137 9t-85 9q-38 0 -59 -15l-41 194q53 -36 140.5 -63.5t191.5 -27.5q67 0 111 29.5t44 75.5q0 40 -36 61.5t-83.5 27.5t-121 17.5t-123.5 29.5q-61 22 -88 55.5t-27 88.5q0 92 83.5 147t236.5 55q64 0 141 -9.5t97 -9.5
q8 0 31 5l-25 -151q-112 59 -238 59q-87 0 -138.5 -22.5t-51.5 -60.5t52 -56q29 -9 175 -32q132 -20 195.5 -61t63.5 -135z" />
    <glyph glyph-name="T" unicode="T" horiz-adv-x="732" 
d="M727 497q-85 64 -210 64h-87v-422q0 -46 8.5 -74.5t17.5 -38t30 -26.5h-244q32 20 45 49t13 90v422h-80q-50 0 -95.5 -11.5t-66.5 -22.5t-52 -30l38 115q8 27 8 30q0 15 -8 25h644q-10 -17 -10 -24q0 -5 9 -32z" />
    <glyph glyph-name="U" unicode="U" horiz-adv-x="831" 
d="M801 667q-31 -20 -44 -48t-13 -92v-226q0 -8 0.5 -25.5t0.5 -24.5q0 -122 -87.5 -193t-250.5 -71q-134 0 -215 51q-55 35 -78.5 89.5t-23.5 137.5v262q0 62 -13 91.5t-45 48.5h244q-1 -1 -10 -8.5t-11 -9.5t-9 -10t-9 -13t-6.5 -15.5t-6 -21.5t-3 -27t-1.5 -35v-229
q0 -59 7.5 -93t34.5 -62q48 -50 156 -50q98 0 150 45q30 26 38 61t8 97v231q0 64 -13 91.5t-44 48.5h244z" />
    <glyph glyph-name="V" unicode="V" horiz-adv-x="840" 
d="M845 667q-50 -40 -109 -161l-220 -450q-11 -22 -11 -26q0 -15 11 -30h-213q12 12 12 26q0 1 -2 5.5t-5 11t-5 9.5l-230 491q-39 85 -77 124h237q-32 -23 -32 -55t24 -83l192 -412l194 410q32 68 32 94q0 24 -31 46h233z" />
    <glyph glyph-name="W" unicode="W" horiz-adv-x="1108" 
d="M1103 667q-35 -58 -67 -160l-137 -451q-1 -3 -3.5 -10t-4 -12t-1.5 -8q0 -12 9 -26h-207q8 12 8 23q0 5 -7 33l-131 478l-149 -484q-7 -19 -7 -27q0 -14 8 -23h-203q9 9 9 23q0 6 -9 33l-140 472q-28 92 -66 139h227q-40 -28 -40 -64q0 -34 13 -77l118 -415l149 492
q10 30 10 40q0 12 -8 24h190q-10 -10 -10 -25q0 -12 8 -40l137 -495l115 398q18 62 18 87q0 28 -7 43t-26 32h204z" />
    <glyph glyph-name="X" unicode="X" horiz-adv-x="838" 
d="M841 0h-273q19 17 19 35q0 4 -0.5 8t-2 8.5t-3 8t-4.5 8.5l-4.5 7.5t-5.5 8t-5.5 7.5t-7 8t-6.5 8l-126 152l-129 -153q-44 -51 -44 -72v-5q0 -16 14 -29h-266q59 28 115 76.5t133 137.5l111 128l-117 147q-49 61 -111 112t-107 66h301q-19 -13 -19 -37q0 -18 28 -53
l112 -137l118 138q30 35 30 57q0 20 -16 32h240q-82 -52 -161 -144l-145 -168l179 -214q29 -35 48 -56t48 -46t57 -39z" />
    <glyph glyph-name="Y" unicode="Y" horiz-adv-x="823" 
d="M834 667q-1 -1 -9.5 -7t-13.5 -10.5t-14.5 -13t-18.5 -17.5t-20.5 -21.5t-24.5 -28.5t-26 -34l-229 -316v-79q0 -46 8.5 -74.5t18 -39t30.5 -26.5h-248q32 20 45 49t13 91v79l-217 308q-74 107 -139 140h275q-26 -13 -26 -41q0 -22 33 -70l151 -218l168 235q26 35 26 61
q0 20 -25 33h243z" />
    <glyph glyph-name="Z" unicode="Z" horiz-adv-x="748" 
d="M728 151l-39 -112q-5 -15 -5 -20q0 -9 10 -19h-670l450 561h-251q-68 0 -104.5 -11.5t-62.5 -37.5l30 90q10 30 10 38q0 17 -14 27h635l-453 -561h274q65 0 105 9t85 36z" />
    <glyph glyph-name="bracketleft" unicode="[" horiz-adv-x="500" 
d="M423 -125h-383q26 19 26 51v696q0 30 -25 46h382q-16 -9 -16 -23v-58q0 -14 16 -25h-227v-581h227q-16 -10 -16 -25v-50q0 -15 16 -31z" />
    <glyph glyph-name="backslash" unicode="\" horiz-adv-x="397" 
d="M457 -140h-118q8 8 8 15q0 12 -8 28l-286 702q-18 46 -48 62h121q-9 -7 -9 -18q0 -8 11 -36l280 -683q13 -32 22 -46t27 -24z" />
    <glyph glyph-name="bracketright" unicode="]" horiz-adv-x="500" 
d="M460 -125h-383q16 16 16 31v50q0 15 -16 25h227v581h-227q16 10 16 25v58q0 14 -16 23h381q-24 -15 -24 -46v-696q0 -33 26 -51z" />
    <glyph glyph-name="asciicircum" unicode="^" 
d="M575 363h-97l-129 233l-128 -233h-96l166 304h118z" />
    <glyph glyph-name="underscore" unicode="_" horiz-adv-x="500" 
d="M500 -126h-500v68h500v-68z" />
    <glyph glyph-name="grave" unicode="`" horiz-adv-x="500" 
d="M321 564q0 -14 -8.5 -22t-20.5 -8q-33 0 -89 48t-56 88q0 14 12.5 25.5t29.5 11.5q36 0 84 -55t48 -88z" />
    <glyph glyph-name="a" unicode="a" horiz-adv-x="680" 
d="M662 0h-82q-17 0 -26.5 1.5t-24 12.5t-24.5 32q-27 -19 -43.5 -28t-66 -21t-114.5 -12q-114 0 -176.5 37.5t-62.5 103.5q0 42 26 72q25 30 61.5 48t100.5 27.5t111.5 12.5t150.5 7q-5 53 -33 78t-89 25q-60 0 -142.5 -19.5t-149.5 -47.5l47 143q16 -9 36 -9h6q15 0 88 10
t129 10q140 0 193 -84q17 -27 21.5 -59.5t4.5 -98.5v-108q0 -97 59 -133zM494 214h-11q-157 0 -234 -20.5t-77 -66.5q0 -55 117 -55q108 0 163 37q25 17 33.5 39.5t8.5 65.5z" />
    <glyph glyph-name="b" unicode="b" horiz-adv-x="697" 
d="M657 239q0 -122 -77 -188t-203 -66q-111 0 -181 55q-13 -26 -25 -33t-34 -7h-100q29 22 38 47t9 66v442q0 86 -47 112h172q-13 -9 -13 -33v-213q69 62 186 62q133 0 204 -63.5t71 -180.5zM534 231q0 82 -42.5 123.5t-116.5 41.5q-76 0 -127.5 -44t-51.5 -120
q0 -80 45 -122t132 -42q74 0 117.5 44.5t43.5 118.5z" />
    <glyph glyph-name="c" unicode="c" horiz-adv-x="573" 
d="M539 477l-33 -137q-41 56 -141 56q-98 0 -150.5 -43t-52.5 -121q0 -82 45.5 -121t137.5 -39q113 0 175 59v-134q-15 6 -26 6q-3 0 -63 -9t-112 -9q-131 0 -205.5 64.5t-74.5 179.5q0 113 85.5 183.5t239.5 70.5q30 0 78.5 -7.5t67.5 -7.5q16 0 29 9z" />
    <glyph glyph-name="d" unicode="d" 
d="M662 0h-102q-23 0 -35.5 9t-21.5 32q-81 -56 -207 -56q-118 0 -187 61.5t-69 175.5q0 129 74 195t218 66q93 0 171 -50v121q0 41 -9 66.5t-38 46.5h173q-13 -13 -13 -30v-524q0 -42 8.5 -66.5t37.5 -46.5zM504 233q0 80 -45.5 121.5t-126.5 41.5q-83 0 -126 -43.5
t-43 -127.5q0 -73 41 -113t121 -40q85 0 132 45t47 116z" />
    <glyph glyph-name="e" unicode="e" horiz-adv-x="630" 
d="M592 246q0 -41 -2 -64q-12 8 -35 8l-11 -1h-389q5 -57 53 -87t130 -30q152 0 229 50v-134q-11 6 -40 6q-15 0 -81.5 -4.5t-118.5 -4.5q-140 0 -214 59.5t-74 168.5q0 130 77.5 200t219.5 70q117 0 189 -63q67 -58 67 -174zM480 268q-4 63 -41 95.5t-99 32.5
q-154 0 -183 -128h323z" />
    <glyph glyph-name="f" unicode="f" horiz-adv-x="481" 
d="M487 677l-27 -111q-41 29 -107 29q-61 0 -86.5 -26t-25.5 -81q0 -17 9 -35h162q43 0 69 11l-35 -117q-14 14 -58 14h-138v-248q0 -42 9 -66t38 -47h-206q29 22 38 46.5t9 66.5v248h-106q-19 0 -37 -13l37 122q13 -17 54 -17h53q0 7 -1 22.5t-1 19.5q0 93 53 140t143 47
q34 0 75.5 -5.5t54.5 -5.5q9 0 24 6z" />
    <glyph glyph-name="g" unicode="g" horiz-adv-x="696" 
d="M658 447q-29 -22 -37.5 -46.5t-8.5 -66.5v-271q0 -79 -32.5 -132t-94.5 -76q-53 -19 -140 -19q-57 0 -135 7.5t-97 7.5q-13 0 -23 -8v131q89 -51 225 -51q186 0 186 132q0 2 -0.5 10t-0.5 10q-73 -53 -193 -53q-132 0 -200 57t-68 148q0 256 293 256q58 0 108 -17.5
t77 -47.5q8 12 11.5 16t11.5 8.5t20 4.5h98zM500 251q0 145 -165 145q-84 0 -128.5 -42t-44.5 -109t39.5 -101.5t113.5 -34.5q185 0 185 142z" />
    <glyph glyph-name="h" unicode="h" horiz-adv-x="697" 
d="M666 0h-206q29 22 38 47t9 66v118v8q0 32 -1 49.5t-7.5 41t-19.5 35.5t-38 21t-62 9q-63 0 -111 -27.5t-63 -67.5q-9 -26 -9 -76v-111q0 -41 9.5 -66t37.5 -47h-206q29 22 38 47t9 66v442q0 40 -9 66t-38 47h175q-16 -15 -16 -59v-191q82 64 205 64q113 0 171 -54
q31 -29 39 -62.5t8 -96.5v-1v-6v-149q0 -42 9 -66.5t38 -46.5z" />
    <glyph glyph-name="i" unicode="i" horiz-adv-x="281" 
d="M214 612q0 -66 -81 -66q-86 0 -86 64q0 72 86 72q81 0 81 -70zM243 0h-206q29 22 38 47t9 66v241q0 41 -9 66.5t-38 46.5h177q-18 -15 -18 -54v-300q0 -42 9 -66.5t38 -46.5z" />
    <glyph glyph-name="j" unicode="j" horiz-adv-x="285" 
d="M220 612q0 -66 -82 -66q-86 0 -86 64q0 72 86 72q82 0 82 -70zM219 467q-17 -16 -17 -46v-352q0 -101 -31 -145q-49 -68 -161 -68q-20 0 -39.5 1.5t-32 3t-14.5 1.5q-6 0 -19 -5v102q32 -16 79 -16q66 0 86 34t20 114v263q0 40 -9 65.5t-38 47.5h176z" />
    <glyph glyph-name="k" unicode="k" horiz-adv-x="743" 
d="M752 0h-247q12 12 12 18q0 20 -39 56l-167 154l-115 -70v-45q0 -42 9 -66.5t38 -46.5h-206q29 22 38 47t9 66v442q0 42 -9 66.5t-38 47.5h174q-15 -15 -15 -61v-341l220 134q44 27 44 44q0 12 -15 22h280q-74 -33 -188 -103l-118 -72l187 -174q30 -28 58 -51.5t43 -34.5
t29 -21t16 -11z" />
    <glyph glyph-name="l" unicode="l" horiz-adv-x="281" 
d="M243 0h-206q29 22 38 47t9 66v442q0 40 -9 66t-38 47h178q-13 -8 -16 -20.5t-3 -40.5v-494q0 -42 9 -66.5t38 -46.5z" />
    <glyph glyph-name="m" unicode="m" horiz-adv-x="1069" 
d="M1039 0h-206q29 22 38 47t9 66v144q0 77 -27.5 108t-104.5 31q-66 0 -111 -34q-25 -19 -33.5 -45t-8.5 -67v-137q0 -42 8.5 -66.5t37.5 -46.5h-205q29 22 38 47t9 66v164q0 65 -29 92t-90 27q-70 0 -113 -30q-54 -37 -54 -117v-136q0 -42 8.5 -66.5t37.5 -46.5h-207
q30 19 39.5 46t9.5 67v241q0 82 -49 113h95q37 0 53 13v-69q103 72 206 72q123 0 180 -77q30 23 50.5 36t66.5 27t98 14q85 0 141.5 -42.5t61.5 -106.5q4 -42 4 -71v-150q0 -42 9 -66.5t38 -46.5z" />
    <glyph glyph-name="n" unicode="n" horiz-adv-x="699" 
d="M668 0h-205q29 22 37.5 46.5t8.5 66.5v141q0 75 -26.5 108.5t-105.5 33.5q-48 0 -82 -11.5t-52.5 -29t-29.5 -45t-13.5 -51t-2.5 -56.5v-90q0 -42 9 -66.5t37 -46.5h-205q29 24 38 47t9 66v241q0 42 -9 65.5t-38 47.5h100q30 0 43 13v-68q5 3 25.5 16t35 19.5t39 16.5
t55 14.5t65.5 4.5q102 0 161 -46.5t59 -137.5v-186q0 -41 9 -66t38 -47z" />
    <glyph glyph-name="o" unicode="o" horiz-adv-x="678" 
d="M639 237q0 -119 -79.5 -185.5t-228.5 -66.5q-130 0 -209 61q-83 65 -83 191q0 114 84.5 180t228.5 66q133 0 210 -64t77 -182zM516 228q0 168 -169 168q-89 0 -137 -42t-48 -115q0 -79 47 -123t133 -44q85 0 129.5 43.5t44.5 112.5z" />
    <glyph glyph-name="p" unicode="p" horiz-adv-x="696" 
d="M656 229q0 -110 -74.5 -176.5t-206.5 -66.5q-99 0 -179 49v-67q0 -42 9 -66.5t38 -46.5h-206q29 22 38 47t9 66v386q0 41 -9 66.5t-38 46.5h104q16 0 26.5 -6t15.5 -13.5t14 -23.5q86 58 205 58q117 0 185 -60q69 -62 69 -193zM533 235q0 78 -40.5 119t-116.5 41
q-85 0 -132.5 -45t-47.5 -123q0 -75 44.5 -114.5t126.5 -39.5q79 0 122.5 42.5t43.5 119.5z" />
    <glyph glyph-name="q" unicode="q" horiz-adv-x="696" 
d="M658 -145h-206q29 22 38 47t9 67v76q-66 -60 -184 -60q-137 0 -206.5 62t-69.5 180q0 119 76 187t217 68q100 0 167 -57q12 19 16 25t14.5 11.5t25.5 5.5h103q-29 -22 -37.5 -47t-8.5 -66v-385q0 -43 8.5 -67.5t37.5 -46.5zM500 239q0 74 -46 115t-127 41
q-76 0 -120.5 -43.5t-44.5 -116.5q0 -80 41 -121.5t114 -41.5q81 0 132 44t51 123z" />
    <glyph glyph-name="r" unicode="r" horiz-adv-x="508" 
d="M507 463l-37 -123q-48 47 -128 47q-63 0 -104.5 -41t-41.5 -123v-110q0 -41 9 -65.5t38 -47.5h-206q29 22 38 47t9 66v241q0 40 -9 66t-38 47h94q25 0 32.5 2t18.5 11v-74q84 78 179 78q42 0 85.5 -13.5t49.5 -13.5q3 0 11 6z" />
    <glyph glyph-name="s" unicode="s" horiz-adv-x="627" 
d="M579 150q0 -88 -70 -128t-210 -40q-39 0 -97 7.5t-75 7.5q-30 0 -46 -19l-28 162q119 -71 270 -71q67 0 102 18t35 49q0 33 -47 45q-28 6 -165 17q-99 7 -148.5 36t-49.5 86q0 62 31 97q62 70 245 70q56 0 130 -10.5t89 -10.5q11 0 15 1l-40 -116q-90 49 -196 49
q-159 0 -159 -57q0 -30 37.5 -39.5t137.5 -16.5q23 -1 36 -2q105 -8 154 -40t49 -95z" />
    <glyph glyph-name="t" unicode="t" horiz-adv-x="495" 
d="M472 471l-39 -124q-7 9 -15.5 11t-41.5 2h-134v-162q0 -65 20 -91.5t78 -26.5q69 0 110 55v-139q-8 5 -21 5h-6q-9 0 -51 -6t-72 -6q-41 0 -78.5 16t-59.5 45q-16 21 -24 47t-9 43.5t-1 50.5v2q0 8 1 20.5t1 20.5v126h-93q-22 0 -31.5 -2t-21.5 -12l38 122q16 -14 49 -14
q31 0 47.5 8.5t28 41t11.5 95.5q0 28 -15 44h114q-15 -16 -15 -78v-109h164q36 0 66 15z" />
    <glyph glyph-name="u" unicode="u" horiz-adv-x="698" 
d="M661 0h-101q-23 0 -33 12.5t-16 36.5q-39 -30 -95.5 -47.5t-102.5 -17.5q-118 0 -178 44q-37 26 -47 62.5t-10 96.5v167q0 41 -9 66.5t-38 46.5h173q-14 -14 -14 -32v-248q0 -59 28 -87.5t104 -28.5q113 0 159 62q21 28 21 81v140q0 41 -8.5 66t-38.5 47h177
q-13 -11 -15.5 -21t-2.5 -36v-297q0 -42 9 -66.5t38 -46.5z" />
    <glyph glyph-name="v" unicode="v" horiz-adv-x="651" 
d="M669 467q-33 -37 -92 -139l-166 -285q-10 -18 -10 -28q0 -6 9 -15h-163q8 8 8 17q0 7 -15 33l-92 171q-8 14 -22.5 37.5t-19.5 32.5q-67 115 -118 176h202q-18 -14 -18 -40q0 -22 20 -58l143 -267l151 261q25 43 25 64q0 19 -25 40h183z" />
    <glyph glyph-name="w" unicode="w" horiz-adv-x="1021" 
d="M1033 467q-37 -29 -85 -129l-136 -281q-15 -30 -15 -41q0 -6 7 -16h-165q9 6 9 15q0 6 -13 36l-129 277l-126 -285q-9 -21 -9 -26t8 -17h-159q8 8 8 17q0 5 -8 21l-150 301q-53 105 -82 128h195q-22 -19 -22 -41q0 -17 12 -41l132 -266l129 290q15 34 15 46q0 6 -6 12
h139q-7 -7 -7 -14q0 -6 13 -35l142 -301l128 268q13 26 13 47q0 20 -24 35h186z" />
    <glyph glyph-name="x" unicode="x" horiz-adv-x="742" 
d="M737 0h-237q17 13 17 26q0 18 -41 54l-112 99l-115 -99q-35 -30 -35 -49q0 -16 20 -31h-240q35 19 118 90l180 155l-185 166q-35 32 -81 56h261q-21 -13 -21 -30q0 -23 33 -53l79 -71l108 93q28 24 28 37q0 12 -14 24h215q-58 -45 -122 -98l-144 -121l151 -136
q95 -87 137 -112z" />
    <glyph glyph-name="y" unicode="y" horiz-adv-x="639" 
d="M655 467q-62 -76 -116 -159l-201 -313q-45 -69 -45 -107q0 -16 13 -33h-226q90 59 151 153l37 56l-175 261q-61 93 -114 142h212q-16 -16 -16 -35q0 -22 25 -60l134 -202l125 192q37 58 37 77q0 17 -15 28h174z" />
    <glyph glyph-name="z" unicode="z" horiz-adv-x="565" 
d="M555 129l-25 -84q-6 -18 -6 -28q0 -3 9 -17h-521l313 371h-130q-50 0 -88 -6.5t-51 -11.5t-34 -16l28 76q7 16 7 30q0 9 -12 24h488l-303 -375h187q94 0 138 37z" />
    <glyph glyph-name="braceleft" unicode="{" horiz-adv-x="500" 
d="M411 -125h-152h-9q-63 0 -95 7.5t-57 37.5q-30 37 -30 104v149q0 45 -9 62.5t-40 35.5q32 18 40.5 36t8.5 62v149q0 66 30 104q23 29 53 37t84 8h24h152q-12 -12 -12 -23v-57q0 -14 12 -26h-130q-52 0 -67.5 -16.5t-15.5 -63.5v-99q0 -44 -10 -67.5t-34 -43.5
q24 -20 34 -43t10 -67v-100q0 -47 15.5 -63.5t67.5 -16.5h130q-12 -12 -12 -25v-58q0 -13 12 -23z" />
    <glyph glyph-name="bar" unicode="|" horiz-adv-x="218" 
d="M152 -168h-86v835h86v-835z" />
    <glyph glyph-name="braceright" unicode="}" horiz-adv-x="500" 
d="M481 270q-31 -17 -40 -35.5t-9 -62.5v-149q0 -67 -30 -104q-23 -29 -52 -36.5t-83 -7.5h-26h-152q12 10 12 23v57q0 14 -12 26h130q53 0 68 16t15 63v100q0 44 10 67.5t34 42.5q-24 20 -34 43.5t-10 67.5v100q0 47 -15 63t-68 16h-130q12 12 12 26v58q0 12 -12 22h152h12
q63 0 94 -7.5t55 -36.5q30 -38 30 -104v-149q0 -45 9 -63.5t40 -35.5z" />
    <glyph glyph-name="asciitilde" unicode="~" 
d="M591 372q-28 -61 -61 -91.5t-80 -30.5q-32 0 -103.5 33.5t-98.5 33.5t-45 -16t-39 -52l-55 43q54 122 141 122q36 0 106 -33.5t96 -33.5q45 0 84 69z" />
    <glyph glyph-name="uni00A0" unicode="&#xa0;" 
 />
    <glyph glyph-name="exclamdown" unicode="&#xa1;" horiz-adv-x="335" 
d="M258 410q0 -34 -25.5 -54.5t-65.5 -20.5t-64 20t-24 54q0 31 22.5 52.5t64.5 21.5q92 0 92 -73zM250 -34q0 -83 -22 -130t-61 -47q-36 0 -57 48.5t-21 127.5q0 142 26 239q16 65 53 65q30 0 44.5 -38.5t26.5 -130.5q11 -86 11 -134z" />
    <glyph glyph-name="cent" unicode="&#xa2;" 
d="M590 565l-44 -119q-51 45 -143 53v-324q116 11 161 56v-132q-16 9 -28 9q-9 0 -25 -4.5t-45.5 -11.5t-62.5 -12v-35q0 -26 3.5 -36.5t16.5 -19.5h-117q14 11 17 20t3 32v38q-60 9 -90 22q-135 57 -135 227q0 112 56 175.5t169 87.5v36q0 20 -3 30.5t-16 23.5h116
q-12 -10 -16 -20.5t-4 -34.5v-35q54 -2 107 -16t59 -14q5 0 21 4zM326 182v310q-110 -22 -110 -163q0 -125 110 -147z" />
    <glyph glyph-name="sterling" unicode="&#xa3;" 
d="M681 170q0 -64 -46 -109q-39 -39 -94.5 -50t-150.5 -11h-364q140 116 140 245q0 20 -6 65h-70q-56 0 -108 -23l49 68q22 32 40.5 41.5t49.5 9.5h12q-11 36 -11 71q0 88 67.5 145.5t176.5 57.5q58 0 124 -15t87 -15q15 0 33 13v-177q-108 88 -227 88q-131 0 -131 -108
q0 -24 14 -60h172q54 0 96 21l-60 -80q-27 -37 -81 -37h-100q3 -16 3 -41q0 -106 -67 -173h169q40 0 67.5 2.5t53 9t38 21t12.5 36.5q0 39 -32 54l121 68q-3 -6 -3 -8q0 -19 13 -49t13 -60z" />
    <glyph glyph-name="currency" unicode="&#xa4;" horiz-adv-x="607" 
d="M525 175l-38 -39l-66 66q-61 -39 -117 -39q-60 0 -118 39l-66 -66l-39 39l67 63q-38 63 -38 116q0 56 38 116l-67 64l39 39l66 -66q61 39 118 39q58 0 117 -39l66 66l38 -39l-66 -64q39 -62 39 -116q0 -52 -39 -116zM443 355q0 58 -42.5 98t-96.5 40q-59 0 -99.5 -40.5
t-40.5 -97.5t41 -98t99 -41q57 0 98 41t41 98z" />
    <glyph glyph-name="yen" unicode="&#xa5;" horiz-adv-x="657" 
d="M657 667q-36 -24 -55.5 -51t-49.5 -91l-59 -127h64q45 0 88 18l-28 -70q-9 -22 -21 -27t-47 -5h-8h-87l-30 -62h120q44 0 88 17l-28 -70q-9 -21 -19.5 -26t-41.5 -5h-15h-137v-45q0 -53 8.5 -77.5t41.5 -45.5h-212q33 22 41.5 45.5t8.5 75.5v47h-163q-53 0 -92 -15l21 57
q11 29 22 35.5t41 6.5h11h123l-32 62h-97q-49 0 -91 -15l21 57q11 29 22 35.5t41 6.5h11h51l-66 135q-3 6 -9.5 19.5t-8.5 18t-7.5 15t-8 14.5t-8 12t-9 12t-9.5 10.5t-12 11t-13.5 10t-16.5 11.5h202q-24 -22 -24 -45q0 -25 36 -99l117 -246l115 244q34 73 34 99
q0 25 -24 47h201z" />
    <glyph glyph-name="brokenbar" unicode="&#xa6;" horiz-adv-x="218" 
d="M152 350h-86v318h86v-318zM152 -125h-86v317h86v-317z" />
    <glyph glyph-name="section" unicode="&#xa7;" horiz-adv-x="567" 
d="M512 270q0 -41 -25 -76.5t-71 -52.5q38 -25 57.5 -53.5t19.5 -76.5q0 -67 -52.5 -110.5t-131.5 -43.5q-50 0 -93.5 11.5t-68 26t-48 26t-37.5 11.5q-2 0 -9 -0.5t-9 -0.5l73 124q16 -44 75.5 -72.5t106.5 -28.5q40 0 61 16t21 38q0 33 -30.5 55t-124.5 70q-7 4 -20 10
q-36 18 -52.5 27t-39 25t-31.5 31t-16 38t-7 52q0 63 77 122q-46 40 -46 100q0 62 55 102t142 40q61 0 113.5 -21.5t70.5 -21.5h5l-63 -112q-16 27 -52 42.5t-71 15.5q-32 0 -53.5 -8t-28 -16.5t-6.5 -17.5q0 -21 21.5 -39.5t78.5 -41.5q79 -31 152 -73q57 -32 57 -117z
M400 266q0 40 -65.5 73t-108.5 33q-26 0 -42 -17t-16 -40q0 -25 15.5 -41.5t53.5 -36.5q57 -30 102 -30q27 0 44 18.5t17 40.5z" />
    <glyph glyph-name="dieresis" unicode="&#xa8;" horiz-adv-x="500" 
d="M425 618q0 -29 -20 -48.5t-48 -19.5t-48 20t-20 47q0 29 20 49t48 20t48 -20.5t20 -47.5zM212 617q0 -27 -20 -47.5t-49 -20.5q-27 0 -47 19.5t-20 48.5q0 27 19.5 47.5t48.5 20.5q28 0 48 -20t20 -48z" />
    <glyph glyph-name="copyright" unicode="&#xa9;" horiz-adv-x="777" 
d="M734 334q0 -145 -101.5 -246t-242.5 -101q-144 0 -245.5 102t-101.5 245q0 144 101.5 245t245.5 101q142 0 243 -101.5t101 -244.5zM682 334q0 124 -85 211.5t-207 87.5q-123 0 -209 -87.5t-86 -211.5t86 -212t209 -88q120 0 206 87.5t86 212.5zM540 524l-26 -80
q-44 33 -110 33q-64 0 -99.5 -38.5t-35.5 -97.5q0 -68 32 -103.5t94 -35.5q60 0 134 38v-91q-13 8 -26 8q-8 0 -42.5 -6.5t-55.5 -6.5q-98 0 -152.5 52t-54.5 141q0 70 37.5 119t106.5 68q39 11 91 11q17 0 47.5 -6.5t43.5 -6.5q6 0 16 2z" />
    <glyph glyph-name="ordfeminine" unicode="&#xaa;" horiz-adv-x="438" 
d="M432 389h-63q-19 0 -28 4.5t-20 20.5q-52 -34 -138 -34q-72 0 -112 22.5t-40 63.5q0 30 20 50.5t61 31t86 14.5t112 6q-6 54 -72 54q-80 0 -186 -42l32 95q11 -6 23 -6h6q9 0 54 5.5t80 5.5q39 0 66.5 -9.5t41 -22t21 -33t9 -34.5t1.5 -36v-11v-64q0 -31 10 -49t36 -32z
M312 515h-3q-190 0 -190 -48q0 -29 69 -29q41 0 68 7t38 20t14.5 24t3.5 26z" />
    <glyph glyph-name="guillemotleft" unicode="&#xab;" horiz-adv-x="454" 
d="M389 73h-76l-84 174l84 174h76l-61 -174zM225 73h-76l-84 174l84 174h76l-61 -174z" />
    <glyph glyph-name="logicalnot" unicode="&#xac;" 
d="M601 210h-102v153h-400v92h502v-245z" />
    <glyph glyph-name="uni00AD" unicode="&#xad;" horiz-adv-x="323" 
d="M323 321l-30 -74q-14 -34 -30 -45t-54 -11h-134q-47 0 -75 -19l24 62q14 37 31 47t54 10h102q47 0 66 5t46 25z" />
    <glyph glyph-name="registered" unicode="&#xae;" horiz-adv-x="478" 
d="M446 491q0 -87 -60.5 -147.5t-145.5 -60.5q-87 0 -147.5 61t-60.5 147t60.5 146.5t147.5 60.5q85 0 145.5 -60.5t60.5 -146.5zM412 491q0 73 -50.5 124.5t-121.5 51.5q-72 0 -123 -52t-51 -124q0 -73 51 -125t123 -52q70 0 121 51.5t51 125.5zM353 383h-65q6 6 6 13
q0 20 -19.5 48.5t-54.5 28.5h-28v-45q0 -32 16 -45h-69q16 14 16 45v135q0 34 -16 46h103q23 0 37 -2t29 -8t22 -20t7 -36q0 -51 -50 -63q20 -14 37 -50t29 -47zM298 542q0 22 -12.5 28t-36.5 6h-57v-70h55q51 0 51 36z" />
    <glyph glyph-name="macron" unicode="&#xaf;" horiz-adv-x="500" 
d="M441 672l-27 -51q-21 -38 -63 -38h-224q-41 0 -67 -13l21 42q11 21 25 30t39 9h195q40 0 58 3t43 18z" />
    <glyph glyph-name="degree" unicode="&#xb0;" horiz-adv-x="500" 
d="M402 526q0 -63 -44 -107.5t-109 -44.5q-61 0 -106 44t-45 108t45 108t107 44q63 0 107.5 -44.5t44.5 -107.5zM350 525q0 42 -29.5 72t-70.5 30q-42 0 -71 -30.5t-29 -71.5q0 -40 29 -70t71 -30q41 0 70.5 29.5t29.5 70.5z" />
    <glyph glyph-name="plusminus" unicode="&#xb1;" 
d="M601 307h-208v-164h-86v164h-208v84h208v202h86v-202h208v-84zM601 12h-502v84h502v-84z" />
    <glyph glyph-name="twosuperior" unicode="&#xb2;" horiz-adv-x="451" 
d="M434 268h-415q4 2 6.5 4l5 4t3.5 3t2.5 3.5t2 3.5t1 5t0.5 5t0.5 7t0.5 8q6 91 132 148q45 20 63.5 28.5t41.5 22.5t31 25.5t8 25.5q0 24 -22 37.5t-61 13.5q-37 0 -93.5 -17.5t-85.5 -39.5v111q15 -10 35 -10q10 0 66 9.5t96 9.5q69 0 109.5 -28t40.5 -81
q0 -81 -89 -120q-110 -49 -139.5 -67.5t-33.5 -48.5h164q42 0 65 7t43 34v-72v-9t2.5 -6t3.5 -4t7 -5.5t9 -6.5z" />
    <glyph glyph-name="threesuperior" unicode="&#xb3;" horiz-adv-x="451" 
d="M412 393q0 -58 -55 -95.5t-149 -37.5q-39 0 -83 5.5t-53 5.5q-23 0 -36 -12v104q75 -40 158 -40q55 0 94 19t39 53q0 52 -125 52h-64q-27 0 -40 -17v94q8 -11 13.5 -13t19.5 -2h55q112 0 112 54q0 49 -81 49q-80 0 -157 -39v101q15 -11 28 -11q15 0 64.5 6t80.5 6
q74 0 112 -27t38 -75q0 -53 -56 -85q85 -20 85 -95z" />
    <glyph glyph-name="acute" unicode="&#xb4;" horiz-adv-x="500" 
d="M366 670q0 -40 -55.5 -88t-88.5 -48q-12 0 -21 8t-9 22q0 33 48.5 88t84.5 55q17 0 29 -11t12 -26z" />
    <glyph glyph-name="mu" unicode="&#xb5;" horiz-adv-x="698" 
d="M661 0h-101q-23 0 -33 12.5t-16 36.5q-39 -30 -95 -47.5t-103 -17.5q-96 0 -143 44v-100q0 -51 20 -73h-132q20 23 20 60v439q0 41 -9 66.5t-38 46.5h173q-14 -14 -14 -32v-248q0 -59 28 -87.5t104 -28.5q113 0 159 62q21 28 21 81v140q0 41 -8.5 66t-38.5 47h177
q-13 -11 -15.5 -21t-2.5 -36v-297q0 -42 9 -66.5t38 -46.5z" />
    <glyph glyph-name="paragraph" unicode="&#xb6;" 
d="M639 668q-27 -27 -34.5 -51t-7.5 -65v-20v-647h-66v721h-73v-721h-67v440h-98q-52 0 -78 1.5t-58 13t-54 34.5q-45 48 -45 124q0 38 15.5 74t42.5 58q31 25 68 31.5t103 6.5h9h343z" />
    <glyph glyph-name="periodcentered" unicode="&#xb7;" 
d="M412 332q0 -26 -18 -44t-44 -18q-25 0 -43 18t-18 44t17.5 44t43.5 18t44 -18t18 -44z" />
    <glyph glyph-name="cedilla" unicode="&#xb8;" horiz-adv-x="500" 
d="M394 -83q0 -39 -36 -63.5t-103 -24.5q-24 0 -60.5 2t-48.5 2q-25 0 -38 -4l28 69q54 -14 120 -14q53 0 53 28q0 32 -60 32q-27 0 -59 -5l22 54q26 3 71 3q51 0 81 -21t30 -58z" />
    <glyph glyph-name="onesuperior" unicode="&#xb9;" horiz-adv-x="451" 
d="M331 267h-165q25 20 33 37.5t8 56.5v192q-38 -24 -71 -24h-16q-4 0 -14 -5v86q13 -18 31 -18q34 0 61 18.5t27 41.5q0 8 -13 15h97q-18 -10 -18 -34v-279q0 -25 7 -43.5t12.5 -24.5t20.5 -19z" />
    <glyph glyph-name="ordmasculine" unicode="&#xba;" horiz-adv-x="437" 
d="M409 532q0 -71 -50.5 -111.5t-145.5 -40.5q-85 0 -135 39t-50 113q0 69 53 108.5t145 39.5q85 0 134 -38.5t49 -109.5zM324 527q0 95 -101 95q-53 0 -81.5 -23.5t-28.5 -65.5q0 -46 27.5 -70.5t79.5 -24.5q51 0 77.5 24.5t26.5 64.5z" />
    <glyph glyph-name="guillemotright" unicode="&#xbb;" horiz-adv-x="454" 
d="M389 247l-84 -174h-76l61 174l-61 174h76zM225 247l-84 -174h-76l61 174l-61 174h76z" />
    <glyph glyph-name="onequarter" unicode="&#xbc;" horiz-adv-x="976" 
d="M960 177l-17 -49q-11 -30 -37 -30h-9v-30q0 -19 5.5 -34t10.5 -20.5t15 -13.5h-138q9 8 12 11.5t8.5 12t7.5 19t2 25.5v30h-262q2 6 2 7q0 3 -1 6l-11 45q-3 10 -8 15l218 204q13 13 13 15q0 5 -10 10h152q-11 -10 -13.5 -16t-2.5 -25v-199h12q23 0 33 6q2 2 9 5.5t9 5.5
zM748 668q-29 -17 -57 -63l-332 -553q-16 -29 -16 -39q0 -7 6 -13h-117q9 5 16.5 11t13.5 14t9.5 12.5t10 16t9.5 16.5l330 549q2 4 6.5 11.5t7 12t2.5 5.5v4q0 8 -8 16h119zM328 267h-159q24 20 32 38t8 56v192q-38 -24 -70 -24q-4 0 -9.5 0.5t-7.5 0.5q-5 0 -13 -4v83
q12 -16 26 -16q36 0 63 17t27 46q0 6 -11 12h92q-16 -10 -16 -35v-279q0 -25 6 -42.5t12.5 -25t19.5 -19.5zM820 160v184l-199 -184h199z" />
    <glyph glyph-name="onehalf" unicode="&#xbd;" horiz-adv-x="975" 
d="M964 0h-405q12 7 15.5 14.5t4.5 29.5q2 88 130 148q98 45 119 62q22 18 22 37q0 54 -77 54q-42 0 -97.5 -16.5t-82.5 -38.5v109q16 -10 35 -10q10 0 64 9.5t95 9.5q67 0 107.5 -28t40.5 -80q0 -45 -27 -75t-85 -56q-87 -39 -114.5 -57.5t-32.5 -49.5h190q49 0 77 40v-70
v-7t1 -5.5t1.5 -4t3 -3.5t3.5 -3t5.5 -4t6.5 -5zM734 668q-28 -17 -56 -63l-332 -553q-16 -27 -16 -39q0 -7 6 -13h-118q7 4 12.5 8t10.5 9t8 8.5t8 10.5t7 10t7 12t7 12l330 549q15 25 15 29v8q0 6 -7 12h118zM328 267h-159q24 20 32 38t8 56v192q-38 -24 -70 -24
q-4 0 -9.5 0.5t-7.5 0.5q-5 0 -13 -4v83q12 -16 26 -16q36 0 63 17t27 46q0 6 -11 12h92q-16 -10 -16 -35v-279q0 -25 6 -42.5t12.5 -25t19.5 -19.5z" />
    <glyph glyph-name="threequarters" unicode="&#xbe;" horiz-adv-x="976" 
d="M960 177l-17 -49q-11 -30 -37 -30h-9v-30q0 -19 5.5 -33.5t10.5 -19.5l15 -15h-138q12 11 16 16t9 18.5t5 33.5v30h-262q2 6 2 7q0 3 -1 6l-11 45q-3 10 -8 15l218 204q13 13 13 15q0 5 -10 10h153q-12 -10 -14.5 -16.5t-2.5 -24.5v-199h12q23 0 33 6q2 2 9 5.5t9 5.5z
M748 668q-28 -17 -56 -63l-333 -553q-16 -29 -16 -39q0 -6 7 -13h-118q9 5 16 10.5t14 14.5t10 12.5t10.5 16.5t9.5 16l329 549q2 4 6.5 11.5t7 12t2.5 5.5v7q0 6 -7 13h118zM407 393q0 -58 -55 -96t-142 -38q-42 0 -87 6t-53 6q-21 0 -33 -11v102q74 -40 155 -40
q54 0 92 19t38 51q0 31 -30.5 43t-92.5 12h-26q-44 0 -55 -2.5t-20 -12.5v90q9 -13 26 -13h6h49q115 0 115 54q0 49 -79 49q-83 0 -154 -38v99q10 -10 23 -10q18 0 67.5 6t78.5 6q73 0 111 -26.5t38 -74.5q0 -52 -58 -86q19 -6 27.5 -9.5t25.5 -13.5t25 -28t8 -44zM820 160
v184l-199 -184h199z" />
    <glyph glyph-name="questiondown" unicode="&#xbf;" horiz-adv-x="643" 
d="M436 411q0 -34 -23.5 -55t-70.5 -21q-40 0 -62.5 20.5t-22.5 55.5q0 31 23 51.5t71 20.5q37 0 61 -19.5t24 -52.5zM611 -175q-11 12 -33 12q-17 0 -104.5 -23.5t-161.5 -23.5q-140 0 -213 60.5t-73 158.5q0 97 79.5 156.5t206.5 64.5q111 4 122 7q11 4 17 14v-126
q-18 13 -56 13h-17q-213 0 -213 -132q0 -57 39.5 -91t113.5 -34q75 0 155 31t138 78v-165z" />
    <glyph glyph-name="Agrave" unicode="&#xc0;" horiz-adv-x="854" 
d="M490 763q0 -13 -9 -22t-22 -9q-34 0 -93 50t-59 92q0 15 12 27t31 12q37 0 88.5 -57.5t51.5 -92.5zM856 0h-220q24 22 24 51q0 25 -16 59l-17 38h-407l-13 -25q-17 -34 -17 -67q0 -32 36 -56h-228q12 14 23 28.5t21 29.5t16.5 25.5t15 26.5t11.5 22t11 23.5t9 19.5
l201 426q12 24 12 32q0 23 -13 34h249q-14 -12 -14 -28q0 -12 14 -40l195 -423q1 -3 6.5 -15.5t8 -17t8 -16.5t8.5 -18t9 -17t11 -18.5t11.5 -18t13 -19t14.5 -18t17 -18.5zM580 254l-155 326l-157 -326h312z" />
    <glyph glyph-name="Aacute" unicode="&#xc1;" horiz-adv-x="854" 
d="M547 874q0 -42 -58.5 -92t-92.5 -50q-13 0 -22.5 8.5t-9.5 22.5q0 35 51.5 92.5t88.5 57.5q18 0 30.5 -12t12.5 -27zM856 0h-220q24 22 24 51q0 25 -16 59l-17 38h-407l-13 -25q-17 -34 -17 -67q0 -32 36 -56h-228q12 14 23 28.5t21 29.5t16.5 25.5t15 26.5t11.5 22
t11 23.5t9 19.5l201 426q12 24 12 32q0 23 -13 34h249q-14 -12 -14 -28q0 -12 14 -40l195 -423q1 -3 6.5 -15.5t8 -17t8 -16.5t8.5 -18t9 -17t11 -18.5t11.5 -18t13 -19t14.5 -18t17 -18.5zM580 254l-155 326l-157 -326h312z" />
    <glyph glyph-name="Acircumflex" unicode="&#xc2;" horiz-adv-x="854" 
d="M647 807l-40 -82q-4 9 -20 18l-160 92l-159 -92q-18 -11 -21 -18l-40 82q1 0 4 -0.5t5 -0.5q8 0 16 5l195 101l195 -101q9 -5 18 -5q1 0 3.5 0.5t3.5 0.5zM856 0h-220q24 22 24 51q0 25 -16 59l-17 38h-407l-13 -25q-17 -34 -17 -67q0 -32 36 -56h-228q12 14 23 28.5
t21 29.5t16.5 25.5t15 26.5t11.5 22t11 23.5t9 19.5l201 426q12 24 12 32q0 23 -13 34h249q-14 -12 -14 -28q0 -12 14 -40l195 -423q1 -3 6.5 -15.5t8 -17t8 -16.5t8.5 -18t9 -17t11 -18.5t11.5 -18t13 -19t14.5 -18t17 -18.5zM580 254l-155 326l-157 -326h312z" />
    <glyph glyph-name="Atilde" unicode="&#xc3;" horiz-adv-x="854" 
d="M655 838q-13 -8 -41 -35.5t-57 -45t-62 -17.5q-35 0 -74 31q-7 6 -19.5 15.5t-17.5 13.5t-13.5 10t-13.5 8t-11.5 4t-12.5 2q-22 0 -48 -21t-33 -47l-52 54q8 5 32 30t50.5 42.5t55.5 17.5q32 0 63 -25q61 -49 77 -55q11 -4 21 -4q27 0 60.5 25.5t40.5 55.5zM856 0h-220
q24 22 24 51q0 25 -16 59l-17 38h-407l-13 -25q-17 -34 -17 -67q0 -32 36 -56h-228q12 14 23 28.5t21 29.5t16.5 25.5t15 26.5t11.5 22t11 23.5t9 19.5l201 426q12 24 12 32q0 23 -13 34h249q-14 -12 -14 -28q0 -12 14 -40l195 -423q1 -3 6.5 -15.5t8 -17t8 -16.5t8.5 -18
t9 -17t11 -18.5t11.5 -18t13 -19t14.5 -18t17 -18.5zM580 254l-155 326l-157 -326h312z" />
    <glyph glyph-name="Adieresis" unicode="&#xc4;" horiz-adv-x="854" 
d="M607 820q0 -30 -20.5 -51t-49.5 -21q-30 0 -50 21t-20 50t20.5 50t50.5 21q29 0 49 -20.5t20 -49.5zM390 819q0 -29 -21.5 -50t-51.5 -21q-29 0 -49.5 20.5t-20.5 50.5q0 28 20.5 49.5t50.5 21.5t51 -20.5t21 -50.5zM856 0h-220q24 22 24 51q0 25 -16 59l-17 38h-407
l-13 -25q-17 -34 -17 -67q0 -32 36 -56h-228q12 14 23 28.5t21 29.5t16.5 25.5t15 26.5t11.5 22t11 23.5t9 19.5l201 426q12 24 12 32q0 23 -13 34h249q-14 -12 -14 -28q0 -12 14 -40l195 -423q1 -3 6.5 -15.5t8 -17t8 -16.5t8.5 -18t9 -17t11 -18.5t11.5 -18t13 -19
t14.5 -18t17 -18.5zM580 254l-155 326l-157 -326h312z" />
    <glyph glyph-name="Aring" unicode="&#xc5;" horiz-adv-x="854" 
d="M528 826q0 -42 -29.5 -71t-71.5 -29t-71 28.5t-29 71.5q0 41 29 70.5t71 29.5t71.5 -29t29.5 -71zM856 0h-220q24 22 24 51q0 25 -16 59l-17 38h-407l-13 -25q-17 -34 -17 -67q0 -32 36 -56h-228q12 14 23 28.5t21 29.5t16.5 25.5t15 26.5t11.5 22t11 23.5t9 19.5
l201 426q12 24 12 32q0 23 -13 34h249q-14 -12 -14 -28q0 -12 14 -40l195 -423q1 -3 6.5 -15.5t8 -17t8 -16.5t8.5 -18t9 -17t11 -18.5t11.5 -18t13 -19t14.5 -18t17 -18.5zM469 826q0 17 -12.5 29.5t-29.5 12.5t-29 -12.5t-12 -29.5t12 -29.5t29 -12.5q18 0 30 12.5
t12 29.5zM580 254l-155 326l-157 -326h312z" />
    <glyph glyph-name="AE" unicode="&#xc6;" horiz-adv-x="1083" 
d="M1053 158l-42 -101q-9 -21 -9 -30q0 -11 13 -27h-541q25 20 31 46t6 74v19h-290l-12 -19q-30 -46 -30 -78q0 -26 24 -42h-212q32 30 100 137l293 465q13 20 13 30q0 19 -13 35h618q-15 -11 -15 -30q0 -4 10 -34l27 -80q-49 25 -98 31.5t-151 6.5h-134v-168h173
q97 0 146 17l-43 -77q-16 -29 -37 -37.5t-70 -8.5h-169v-181h181q87 0 135.5 9t95.5 43zM511 239v358l-226 -358h226z" />
    <glyph glyph-name="Ccedilla" unicode="&#xc7;" horiz-adv-x="746" 
d="M714 662l-57 -163q-29 34 -90.5 55t-130.5 21q-115 0 -184.5 -67.5t-69.5 -181.5q0 -111 65.5 -172t189.5 -61q60 0 127.5 20t119.5 51v-159q-6 10 -21 10q-16 0 -85 -12t-125 -15q95 -11 95 -78q0 -48 -40.5 -75.5t-124.5 -27.5q-21 0 -56 2t-47 2h-14q-17 0 -28 -2
l32 77q49 -16 114 -16q72 0 72 29q0 34 -87 34q-21 0 -44 -7l27 63q-151 17 -232 103t-81 230q0 161 104.5 260t275.5 99q62 0 149.5 -13t108.5 -13t37 7z" />
    <glyph glyph-name="Egrave" unicode="&#xc8;" horiz-adv-x="808" 
d="M467 763q0 -13 -9.5 -22t-22.5 -9q-34 0 -92.5 50t-58.5 92q0 15 12 27t31 12q37 0 88.5 -57.5t51.5 -92.5zM778 162l-43 -110q-7 -16 -7 -25q0 -13 16 -27h-706q34 14 48 46t14 91v390q0 61 -14.5 93.5t-47.5 46.5h685q-9 -8 -9 -18v-6q0 -4 9 -31l32 -107
q-39 32 -81 44t-128 12h-316v-163h301q73 0 107 16l-47 -78q-13 -21 -20 -27.5t-29 -11.5t-66 -5h-246v-186h269q94 0 156.5 10.5t122.5 45.5z" />
    <glyph glyph-name="Eacute" unicode="&#xc9;" horiz-adv-x="808" 
d="M524 874q0 -42 -58.5 -92t-92.5 -50q-13 0 -22.5 8.5t-9.5 22.5q0 35 51.5 92.5t88.5 57.5q18 0 30.5 -12t12.5 -27zM778 162l-43 -110q-7 -16 -7 -25q0 -13 16 -27h-706q34 14 48 46t14 91v390q0 61 -14.5 93.5t-47.5 46.5h685q-9 -8 -9 -18v-6q0 -4 9 -31l32 -107
q-39 32 -81 44t-128 12h-316v-163h301q73 0 107 16l-47 -78q-13 -21 -20 -27.5t-29 -11.5t-66 -5h-246v-186h269q94 0 156.5 10.5t122.5 45.5z" />
    <glyph glyph-name="Ecircumflex" unicode="&#xca;" horiz-adv-x="808" 
d="M624 807l-40 -82q-3 7 -21 18l-159 92l-159 -92q-17 -10 -21 -18l-40 82q2 0 4 -0.5t4 -0.5q9 0 17 5l195 101l195 -101q9 -5 18 -5q1 0 3.5 0.5t3.5 0.5zM778 162l-43 -110q-7 -16 -7 -25q0 -13 16 -27h-706q34 14 48 46t14 91v390q0 61 -14.5 93.5t-47.5 46.5h685
q-9 -8 -9 -18v-6q0 -4 9 -31l32 -107q-39 32 -81 44t-128 12h-316v-163h301q73 0 107 16l-47 -78q-13 -21 -20 -27.5t-29 -11.5t-66 -5h-246v-186h269q94 0 156.5 10.5t122.5 45.5z" />
    <glyph glyph-name="Edieresis" unicode="&#xcb;" horiz-adv-x="808" 
d="M585 820q0 -30 -21 -51t-50 -21q-30 0 -51 21t-21 50t21.5 50t51.5 21q29 0 49.5 -21t20.5 -49zM366 819q0 -29 -21 -50t-51 -21q-29 0 -50 20.5t-21 50.5q0 28 21 49.5t51 21.5q29 0 50 -20.5t21 -50.5zM778 162l-43 -110q-7 -16 -7 -25q0 -13 16 -27h-706q34 14 48 46
t14 91v390q0 61 -14.5 93.5t-47.5 46.5h685q-9 -8 -9 -18v-6q0 -4 9 -31l32 -107q-39 32 -81 44t-128 12h-316v-163h301q73 0 107 16l-47 -78q-13 -21 -20 -27.5t-29 -11.5t-66 -5h-246v-186h269q94 0 156.5 10.5t122.5 45.5z" />
    <glyph glyph-name="Igrave" unicode="&#xcc;" horiz-adv-x="329" 
d="M227 763q0 -14 -9 -22.5t-22 -8.5q-34 0 -93 50t-59 92q0 15 12.5 27t31.5 12q37 0 88 -57.5t51 -92.5zM286 0h-244q31 21 44.5 49t13.5 91v387q0 63 -13.5 91.5t-44.5 48.5h244q-30 -22 -43 -48t-13 -92v-387q0 -66 13 -92t43 -48z" />
    <glyph glyph-name="Iacute" unicode="&#xcd;" horiz-adv-x="329" 
d="M285 874q0 -42 -59 -92t-93 -50q-13 0 -22 8.5t-9 22.5q0 35 51 92.5t88 57.5q18 0 31 -12t13 -27zM286 0h-244q31 21 44.5 49t13.5 91v387q0 63 -13.5 91.5t-44.5 48.5h244q-30 -22 -43 -48t-13 -92v-387q0 -66 13 -92t43 -48z" />
    <glyph glyph-name="Icircumflex" unicode="&#xce;" horiz-adv-x="329" 
d="M367 800l-44 -80q-4 13 -18 21l-140 89l-140 -89q-14 -10 -18 -21l-44 80h4q6 0 20 7l178 102l178 -102q12 -7 21 -7h3zM287 0h-244q31 20 44 48.5t13 91.5v387q0 63 -13 91.5t-44 48.5h244q-21 -15 -31 -26.5t-18 -40t-8 -73.5v-387q0 -46 8 -74t18 -39.5t31 -26.5z" />
    <glyph glyph-name="Idieresis" unicode="&#xcf;" horiz-adv-x="329" 
d="M333 820q0 -30 -21 -51t-50 -21t-50.5 21t-21.5 50t21.5 50t51.5 21q29 0 49.5 -20.5t20.5 -49.5zM141 819q0 -29 -21.5 -50t-51.5 -21q-29 0 -49.5 20.5t-20.5 50.5q0 28 21 49.5t50 21.5t50.5 -20.5t21.5 -50.5zM287 0h-244q32 21 44.5 49.5t12.5 90.5v387
q0 62 -12.5 91t-44.5 49h244q-21 -15 -31 -26.5t-18 -40t-8 -73.5v-387q0 -46 8 -74t18 -39.5t31 -26.5z" />
    <glyph glyph-name="Eth" unicode="&#xd0;" horiz-adv-x="841" 
d="M803 344q0 -148 -91 -238q-57 -57 -134.5 -81.5t-188.5 -24.5h-345q31 22 44 48t13 90v161h-72v77h72v150q0 64 -13 92t-44 49h357q150 0 238 -46q79 -41 121.5 -112.5t42.5 -164.5zM660 340q0 123 -67 172t-204 49h-158v-185h205v-77h-205v-193h159q141 0 202 54
q68 60 68 180z" />
    <glyph glyph-name="Ntilde" unicode="&#xd1;" horiz-adv-x="836" 
d="M646 838q-12 -8 -40.5 -35.5t-57.5 -45t-62 -17.5t-74 31q-5 4 -13.5 11t-12 9.5t-10.5 8t-10.5 7.5t-9 6t-9 5t-7.5 3t-8 2.5t-8 0.5q-22 0 -48 -21t-33 -47l-52 54q8 5 31.5 30t50.5 42.5t56 17.5q32 0 63 -25q6 -4 15.5 -12t14 -11.5t12 -9.5t11 -8.5t9.5 -6t9.5 -5
t8.5 -3.5t9 -2.5t9 -0.5q27 0 60.5 25.5t40.5 55.5zM794 667q-31 -19 -44.5 -48.5t-13.5 -91.5v-477q0 -33 20 -50h-195q8 16 8 20q0 10 -15 30l-337 447v-357q0 -45 8 -73.5t18 -40t31 -26.5h-231q31 23 44 49.5t13 90.5v387q0 64 -13 91.5t-44 48.5h238q-11 -11 -11 -20
q0 -12 19 -38l330 -439v357q0 46 -8.5 75t-17.5 39t-30 26h231z" />
    <glyph glyph-name="Ograve" unicode="&#xd2;" horiz-adv-x="863" 
d="M494 763q0 -14 -9 -22.5t-22 -8.5q-34 0 -93 50t-59 92q0 15 12.5 27t31.5 12q37 0 88 -57.5t51 -92.5zM824 336q0 -154 -103.5 -251.5t-290.5 -97.5q-177 0 -284 93t-107 262q0 81 41 158q97 180 364 180q175 0 277.5 -92t102.5 -252zM681 330q0 121 -62 182.5
t-179 61.5q-120 0 -189 -62.5t-69 -168.5q0 -122 63.5 -186t184.5 -64q116 0 183.5 65.5t67.5 171.5z" />
    <glyph glyph-name="Oacute" unicode="&#xd3;" horiz-adv-x="863" 
d="M552 874q0 -42 -59 -92t-93 -50q-13 0 -22 8.5t-9 22.5q0 35 51 92.5t88 57.5q18 0 31 -12t13 -27zM824 336q0 -154 -103.5 -251.5t-290.5 -97.5q-177 0 -284 93t-107 262q0 81 41 158q97 180 364 180q175 0 277.5 -92t102.5 -252zM681 330q0 121 -62 182.5t-179 61.5
q-120 0 -189 -62.5t-69 -168.5q0 -122 63.5 -186t184.5 -64q116 0 183.5 65.5t67.5 171.5z" />
    <glyph glyph-name="Ocircumflex" unicode="&#xd4;" horiz-adv-x="863" 
d="M651 807l-39 -82q-4 8 -21 18l-160 92l-159 -92q-17 -10 -21 -18l-40 82q1 0 4 -0.5t5 -0.5q8 0 16 5l195 101l195 -101q9 -5 18 -5q1 0 3.5 0.5t3.5 0.5zM824 336q0 -154 -103.5 -251.5t-290.5 -97.5q-177 0 -284 93t-107 262q0 81 41 158q97 180 364 180
q175 0 277.5 -92t102.5 -252zM681 330q0 121 -62 182.5t-179 61.5q-120 0 -189 -62.5t-69 -168.5q0 -122 63.5 -186t184.5 -64q116 0 183.5 65.5t67.5 171.5z" />
    <glyph glyph-name="Otilde" unicode="&#xd5;" horiz-adv-x="863" 
d="M659 838q-12 -8 -40.5 -35.5t-57.5 -45t-62 -17.5t-74 31q-5 4 -13.5 11t-12 9.5t-10.5 8t-10.5 7.5t-9 6t-9 5t-7.5 3t-8 2.5t-8 0.5q-22 0 -48 -21t-33 -47l-52 54q8 5 31.5 30t50.5 42.5t56 17.5q32 0 63 -25q6 -4 15.5 -12t14 -11.5t12 -9.5t11 -8.5t9.5 -6t9.5 -5
t8.5 -3.5t9 -2.5t9 -0.5q27 0 60.5 25.5t40.5 55.5zM824 336q0 -154 -103.5 -251.5t-290.5 -97.5q-177 0 -284 93t-107 262q0 81 41 158q97 180 364 180q175 0 277.5 -92t102.5 -252zM681 330q0 121 -62 182.5t-179 61.5q-120 0 -189 -62.5t-69 -168.5q0 -122 63.5 -186
t184.5 -64q116 0 183.5 65.5t67.5 171.5z" />
    <glyph glyph-name="Odieresis" unicode="&#xd6;" horiz-adv-x="863" 
d="M613 820q0 -30 -21 -51t-50 -21q-30 0 -51 21.5t-21 49.5q0 29 21 50t51 21q29 0 50 -21t21 -49zM394 819q0 -29 -21.5 -50t-51.5 -21q-29 0 -49.5 20.5t-20.5 50.5q0 28 21 49.5t50 21.5q30 0 51 -20.5t21 -50.5zM824 336q0 -154 -103.5 -251.5t-290.5 -97.5
q-177 0 -284 93t-107 262q0 81 41 158q97 180 364 180q175 0 277.5 -92t102.5 -252zM681 330q0 121 -62 182.5t-179 61.5q-120 0 -189 -62.5t-69 -168.5q0 -122 63.5 -186t184.5 -64q116 0 183.5 65.5t67.5 171.5z" />
    <glyph glyph-name="multiply" unicode="&#xd7;" 
d="M566 177l-60 -59l-155 156l-156 -158l-61 61l157 156l-155 155l59 59l155 -155l156 157l60 -61l-157 -156z" />
    <glyph glyph-name="Oslash" unicode="&#xd8;" horiz-adv-x="863" 
d="M824 336q0 -155 -103.5 -252t-290.5 -97q-99 0 -185 33l-30 -39q-9 -13 -9 -18q0 -9 4 -14h-145q8 4 14.5 8.5t11 7.5t10 8t8 7.5t8 9t7 8t8 10t7.5 10.5l32 42q-132 94 -132 282q0 81 41 158q97 180 364 180q91 0 169 -28l33 42q6 8 6 15q0 9 -10 16h156q-6 -2 -11 -4.5
t-10 -6.5t-8.5 -6t-8.5 -7.5t-7.5 -7.5t-8.5 -9.5t-7.5 -9.5t-9 -11.5t-9.5 -11.5l-29 -37q135 -98 135 -278zM681 330q0 121 -63 183l-308 -399q54 -21 120 -21q116 0 183.5 65.5t67.5 171.5zM550 556q-54 18 -110 18q-120 0 -189 -62.5t-69 -168.5q0 -116 61 -183z" />
    <glyph glyph-name="Ugrave" unicode="&#xd9;" horiz-adv-x="831" 
d="M485 763q0 -14 -9.5 -22.5t-22.5 -8.5q-34 0 -92.5 50t-58.5 92q0 16 12 27.5t31 11.5q37 0 88.5 -57.5t51.5 -92.5zM801 667q-31 -20 -44 -48t-13 -92v-226q0 -8 0.5 -25.5t0.5 -24.5q0 -122 -87.5 -193t-250.5 -71q-134 0 -215 51q-55 35 -78.5 89.5t-23.5 137.5v262
q0 62 -13 91.5t-45 48.5h244q-1 -1 -10 -8.5t-11 -9.5t-9 -10t-9 -13t-6.5 -15.5t-6 -21.5t-3 -27t-1.5 -35v-229q0 -59 7.5 -93t34.5 -62q48 -50 156 -50q98 0 150 45q30 26 38 61t8 97v231q0 64 -13 91.5t-44 48.5h244z" />
    <glyph glyph-name="Uacute" unicode="&#xda;" horiz-adv-x="831" 
d="M542 874q0 -42 -59 -92t-93 -50q-13 0 -22 8.5t-9 22.5q0 35 51.5 92.5t88.5 57.5q19 0 31 -11.5t12 -27.5zM801 667q-31 -20 -44 -48t-13 -92v-226q0 -8 0.5 -25.5t0.5 -24.5q0 -122 -87.5 -193t-250.5 -71q-134 0 -215 51q-55 35 -78.5 89.5t-23.5 137.5v262
q0 62 -13 91.5t-45 48.5h244q-1 -1 -10 -8.5t-11 -9.5t-9 -10t-9 -13t-6.5 -15.5t-6 -21.5t-3 -27t-1.5 -35v-229q0 -59 7.5 -93t34.5 -62q48 -50 156 -50q98 0 150 45q30 26 38 61t8 97v231q0 64 -13 91.5t-44 48.5h244z" />
    <glyph glyph-name="Ucircumflex" unicode="&#xdb;" horiz-adv-x="831" 
d="M635 807l-39 -82q-3 7 -21 18l-160 92l-159 -92q-18 -11 -21 -18l-40 82q1 0 4 -0.5t5 -0.5q8 0 16 5l195 101l195 -101q9 -5 18 -5q1 0 3.5 0.5t3.5 0.5zM801 667q-31 -20 -44 -48t-13 -92v-226q0 -8 0.5 -25.5t0.5 -24.5q0 -122 -87.5 -193t-250.5 -71q-134 0 -215 51
q-55 35 -78.5 89.5t-23.5 137.5v262q0 62 -13 91.5t-45 48.5h244q-1 -1 -10 -8.5t-11 -9.5t-9 -10t-9 -13t-6.5 -15.5t-6 -21.5t-3 -27t-1.5 -35v-229q0 -59 7.5 -93t34.5 -62q48 -50 156 -50q98 0 150 45q30 26 38 61t8 97v231q0 64 -13 91.5t-44 48.5h244z" />
    <glyph glyph-name="Udieresis" unicode="&#xdc;" horiz-adv-x="831" 
d="M603 820q0 -30 -21 -51t-50 -21t-50.5 21t-21.5 50t21.5 50t51.5 21q29 0 49.5 -21t20.5 -49zM384 819q0 -29 -21 -50t-51 -21q-29 0 -50 20.5t-21 50.5q0 28 20.5 49.5t50.5 21.5t51 -20.5t21 -50.5zM801 667q-31 -20 -44 -48t-13 -92v-226q0 -8 0.5 -25.5t0.5 -24.5
q0 -122 -87.5 -193t-250.5 -71q-134 0 -215 51q-55 35 -78.5 89.5t-23.5 137.5v262q0 62 -13 91.5t-45 48.5h244q-1 -1 -10 -8.5t-11 -9.5t-9 -10t-9 -13t-6.5 -15.5t-6 -21.5t-3 -27t-1.5 -35v-229q0 -59 7.5 -93t34.5 -62q48 -50 156 -50q98 0 150 45q30 26 38 61t8 97
v231q0 64 -13 91.5t-44 48.5h244z" />
    <glyph glyph-name="Yacute" unicode="&#xdd;" horiz-adv-x="823" 
d="M532 874q0 -42 -59 -92t-93 -50q-13 0 -22 8.5t-9 22.5q0 35 51 92.5t88 57.5q18 0 31 -12t13 -27zM834 667q-1 -1 -9.5 -7t-13.5 -10.5t-14.5 -13t-18.5 -17.5t-20.5 -21.5t-24.5 -28.5t-26 -34l-229 -316v-79q0 -46 8.5 -74.5t18 -39t30.5 -26.5h-248q32 20 45 49
t13 91v79l-217 308q-74 107 -139 140h275q-26 -13 -26 -41q0 -22 33 -70l151 -218l168 235q26 35 26 61q0 20 -25 33h243z" />
    <glyph glyph-name="Thorn" unicode="&#xde;" horiz-adv-x="755" 
d="M734 361q0 -70 -37 -121q-42 -58 -114 -77.5t-196 -19.5h-158v-3q0 -90 27 -114q14 -14 29 -26h-243q31 21 44 48.5t13 91.5v386q0 63 -13 92t-44 49h241q-17 -12 -25.5 -20.5t-17.5 -27.5t-11 -45h198q93 0 152.5 -13.5t101.5 -57.5q53 -54 53 -142zM591 362
q0 64 -42 85t-131 21h-189v-219h153q112 0 160.5 21.5t48.5 91.5z" />
    <glyph glyph-name="germandbls" unicode="&#xdf;" horiz-adv-x="632" 
d="M581 199q0 -89 -50.5 -151.5t-136.5 -62.5q-36 0 -81 5q-36 6 -39 6q-16 0 -29 -11v131q60 -44 117 -44q49 0 72.5 32.5t23.5 83.5q0 38 -12 62.5t-36.5 36t-49.5 15t-62 3.5t-53 -14v127q11 -15 20.5 -18.5t30.5 -3.5q67 0 101 19.5t34 81.5q0 47 -27.5 76.5t-74.5 29.5
q-29 0 -51.5 -8.5t-37 -20t-25 -34.5t-15.5 -39t-7.5 -47t-2.5 -46.5v-47.5v-16v-426q0 -43 15 -56h-146q19 19 19 56v434q0 112 13 164q41 174 240 174q92 0 157.5 -50.5t65.5 -138.5q0 -95 -96 -143q59 -12 91 -55t32 -104z" />
    <glyph glyph-name="agrave" unicode="&#xe0;" horiz-adv-x="680" 
d="M398 564q0 -13 -8.5 -21.5t-20.5 -8.5q-33 0 -89 48t-56 88q0 14 12 25.5t30 11.5q36 0 84 -55t48 -88zM662 0h-82q-17 0 -26.5 1.5t-24 12.5t-24.5 32q-27 -19 -43.5 -28t-66 -21t-114.5 -12q-114 0 -176.5 37.5t-62.5 103.5q0 42 26 72q25 30 61.5 48t100.5 27.5
t111.5 12.5t150.5 7q-5 53 -33 78t-89 25q-60 0 -142.5 -19.5t-149.5 -47.5l47 143q16 -9 36 -9h6q15 0 88 10t129 10q140 0 193 -84q17 -27 21.5 -59.5t4.5 -98.5v-108q0 -97 59 -133zM494 214h-11q-157 0 -234 -20.5t-77 -66.5q0 -55 117 -55q108 0 163 37
q25 17 33.5 39.5t8.5 65.5z" />
    <glyph glyph-name="aacute" unicode="&#xe1;" horiz-adv-x="680" 
d="M456 670q0 -40 -56 -88t-89 -48q-11 0 -20 8t-9 22q0 33 48 88t84 55q18 0 30 -11t12 -26zM662 0h-82q-17 0 -26.5 1.5t-24 12.5t-24.5 32q-27 -19 -43.5 -28t-66 -21t-114.5 -12q-114 0 -176.5 37.5t-62.5 103.5q0 42 26 72q25 30 61.5 48t100.5 27.5t111.5 12.5
t150.5 7q-5 53 -33 78t-89 25q-60 0 -142.5 -19.5t-149.5 -47.5l47 143q16 -9 36 -9h6q15 0 88 10t129 10q140 0 193 -84q17 -27 21.5 -59.5t4.5 -98.5v-108q0 -97 59 -133zM494 214h-11q-157 0 -234 -20.5t-77 -66.5q0 -55 117 -55q108 0 163 37q25 17 33.5 39.5t8.5 65.5z
" />
    <glyph glyph-name="acircumflex" unicode="&#xe2;" horiz-adv-x="680" 
d="M560 605l-40 -78q-4 9 -20 18l-160 87l-159 -87q-17 -10 -21 -18l-40 78h8q10 0 17 5l195 96l195 -96q10 -5 20 -5h5zM662 0h-82q-17 0 -26.5 1.5t-24 12.5t-24.5 32q-27 -19 -43.5 -28t-66 -21t-114.5 -12q-114 0 -176.5 37.5t-62.5 103.5q0 42 26 72q25 30 61.5 48
t100.5 27.5t111.5 12.5t150.5 7q-5 53 -33 78t-89 25q-60 0 -142.5 -19.5t-149.5 -47.5l47 143q16 -9 36 -9h6q15 0 88 10t129 10q140 0 193 -84q17 -27 21.5 -59.5t4.5 -98.5v-108q0 -97 59 -133zM494 214h-11q-157 0 -234 -20.5t-77 -66.5q0 -55 117 -55q108 0 163 37
q25 17 33.5 39.5t8.5 65.5z" />
    <glyph glyph-name="atilde" unicode="&#xe3;" horiz-adv-x="680" 
d="M567 636q-13 -8 -40.5 -34t-56.5 -43t-62 -17q-35 0 -74 30q-6 5 -17 13t-15.5 11.5t-12.5 9t-12 8t-10 5t-11 3.5t-10 1q-21 0 -47.5 -21t-33.5 -45l-52 52q8 5 32 29t50.5 40.5t55.5 16.5q31 0 63 -24q61 -47 79 -54q9 -3 19 -3q27 0 60.5 24.5t40.5 53.5zM662 0h-82
q-17 0 -26.5 1.5t-24 12.5t-24.5 32q-27 -19 -43.5 -28t-66 -21t-114.5 -12q-114 0 -176.5 37.5t-62.5 103.5q0 42 26 72q25 30 61.5 48t100.5 27.5t111.5 12.5t150.5 7q-5 53 -33 78t-89 25q-60 0 -142.5 -19.5t-149.5 -47.5l47 143q16 -9 36 -9h6q15 0 88 10t129 10
q140 0 193 -84q17 -27 21.5 -59.5t4.5 -98.5v-108q0 -97 59 -133zM494 214h-11q-157 0 -234 -20.5t-77 -66.5q0 -55 117 -55q108 0 163 37q25 17 33.5 39.5t8.5 65.5z" />
    <glyph glyph-name="adieresis" unicode="&#xe4;" horiz-adv-x="680" 
d="M515 618q0 -28 -20.5 -48t-47.5 -20q-28 0 -48 19.5t-20 47.5q0 29 20 49t48 20t48 -20.5t20 -47.5zM302 617q0 -28 -20.5 -48t-48.5 -20q-27 0 -47 19.5t-20 48.5q0 28 19.5 48t48.5 20q28 0 48 -19.5t20 -48.5zM662 0h-82q-17 0 -26.5 1.5t-24 12.5t-24.5 32
q-27 -19 -43.5 -28t-66 -21t-114.5 -12q-114 0 -176.5 37.5t-62.5 103.5q0 42 26 72q25 30 61.5 48t100.5 27.5t111.5 12.5t150.5 7q-5 53 -33 78t-89 25q-60 0 -142.5 -19.5t-149.5 -47.5l47 143q16 -9 36 -9h6q15 0 88 10t129 10q140 0 193 -84q17 -27 21.5 -59.5
t4.5 -98.5v-108q0 -97 59 -133zM494 214h-11q-157 0 -234 -20.5t-77 -66.5q0 -55 117 -55q108 0 163 37q25 17 33.5 39.5t8.5 65.5z" />
    <glyph glyph-name="aring" unicode="&#xe5;" horiz-adv-x="680" 
d="M441 628q0 -42 -29.5 -71t-71.5 -29t-71 29t-29 72q0 41 29 70.5t71 29.5t71.5 -29.5t29.5 -71.5zM662 0h-82q-17 0 -26.5 1.5t-24 12.5t-24.5 32q-27 -19 -43.5 -28t-66 -21t-114.5 -12q-114 0 -176.5 37.5t-62.5 103.5q0 42 26 72q25 30 61.5 48t100.5 27.5t111.5 12.5
t150.5 7q-5 53 -33 78t-89 25q-60 0 -142.5 -19.5t-149.5 -47.5l47 143q16 -9 36 -9h6q15 0 88 10t129 10q140 0 193 -84q17 -27 21.5 -59.5t4.5 -98.5v-108q0 -97 59 -133zM382 628q0 17 -12.5 30t-29.5 13t-29 -13t-12 -30t12 -29.5t29 -12.5t29.5 12.5t12.5 29.5z
M494 214h-11q-157 0 -234 -20.5t-77 -66.5q0 -55 117 -55q108 0 163 37q25 17 33.5 39.5t8.5 65.5z" />
    <glyph glyph-name="ae" unicode="&#xe6;" horiz-adv-x="1103" 
d="M1065 182q-18 6 -38 6h-416q3 -35 23.5 -59.5t53 -36t63 -16t64.5 -4.5q139 0 219 50v-122q-16 4 -25 4q-3 0 -84 -9q-75 -10 -135 -10q-78 0 -137 20t-110 70q-73 -90 -264 -90q-38 0 -74 5t-75.5 18t-63.5 41t-24 68q0 27 9.5 50t24.5 39.5t40 29.5t47.5 21.5t56.5 15
t58 9.5t61.5 5t56.5 2t53 0.5t43 0.5q-7 106 -119 106q-71 0 -153 -19.5t-144 -52.5l48 148q23 -13 47 -13t81 11q80 13 130 13q65 0 108.5 -18t85.5 -64q85 82 223 82q96 0 168 -49q42 -30 64 -71.5t26 -71t7 -94.5q1 -10 1 -15zM949 267q-4 64 -42.5 96.5t-103.5 32.5
q-71 0 -125.5 -32t-64.5 -97h336zM495 213h-24h-30.5t-33 -0.5t-37 -1.5t-36.5 -2.5t-37.5 -4t-33.5 -6t-32 -8.5t-25 -11.5t-20 -14.5q-21 -21 -21 -40q0 -52 125 -52q54 0 96 10.5t75 43.5t34 87z" />
    <glyph glyph-name="ccedilla" unicode="&#xe7;" horiz-adv-x="573" 
d="M539 477l-33 -137q-41 56 -141 56q-98 0 -150.5 -43t-52.5 -121q0 -82 45.5 -121t137.5 -39q113 0 175 59v-134q-15 6 -26 6q-5 0 -24 -3.5t-52 -8t-68 -6.5q95 -8 95 -71q0 -41 -35.5 -65t-108.5 -24q-6 0 -42 2t-64 2q-24 0 -35 -3l28 68q43 -11 105 -15h12q55 0 55 30
q0 32 -63 32q-28 0 -57 -7l23 54q-107 14 -165.5 77t-58.5 164q0 113 85.5 183.5t239.5 70.5q30 0 78.5 -7.5t67.5 -7.5q16 0 29 9z" />
    <glyph glyph-name="egrave" unicode="&#xe8;" horiz-adv-x="630" 
d="M387 564q0 -13 -9 -21.5t-21 -8.5q-33 0 -88.5 48t-55.5 88q0 14 11.5 25.5t29.5 11.5q36 0 84.5 -55t48.5 -88zM592 246q0 -41 -2 -64q-12 8 -35 8l-11 -1h-389q5 -57 53 -87t130 -30q152 0 229 50v-134q-11 6 -40 6q-15 0 -81.5 -4.5t-118.5 -4.5q-140 0 -214 59.5
t-74 168.5q0 130 77.5 200t219.5 70q117 0 189 -63q67 -58 67 -174zM480 268q-4 63 -41 95.5t-99 32.5q-154 0 -183 -128h323z" />
    <glyph glyph-name="eacute" unicode="&#xe9;" horiz-adv-x="630" 
d="M431 670q0 -40 -55.5 -88t-88.5 -48q-12 0 -21 8.5t-9 21.5q0 33 48.5 88t84.5 55q18 0 29.5 -11t11.5 -26zM592 246q0 -41 -2 -64q-12 8 -35 8l-11 -1h-389q5 -57 53 -87t130 -30q152 0 229 50v-134q-11 6 -40 6q-15 0 -81.5 -4.5t-118.5 -4.5q-140 0 -214 59.5
t-74 168.5q0 130 77.5 200t219.5 70q117 0 189 -63q67 -58 67 -174zM480 268q-4 63 -41 95.5t-99 32.5q-154 0 -183 -128h323z" />
    <glyph glyph-name="ecircumflex" unicode="&#xea;" horiz-adv-x="630" 
d="M535 605l-39 -78q-4 8 -21 18l-160 87l-159 -87q-17 -10 -21 -18l-40 78h9q8 0 16 5l195 96l195 -96q10 -5 20 -5h5zM592 246q0 -41 -2 -64q-12 8 -35 8l-11 -1h-389q5 -57 53 -87t130 -30q152 0 229 50v-134q-11 6 -40 6q-15 0 -81.5 -4.5t-118.5 -4.5q-140 0 -214 59.5
t-74 168.5q0 130 77.5 200t219.5 70q117 0 189 -63q67 -58 67 -174zM480 268q-4 63 -41 95.5t-99 32.5q-154 0 -183 -128h323z" />
    <glyph glyph-name="edieresis" unicode="&#xeb;" horiz-adv-x="630" 
d="M490 618q0 -28 -20.5 -48t-47.5 -20q-28 0 -48 20t-20 47q0 29 20 49t49 20q27 0 47 -20.5t20 -47.5zM277 617q0 -28 -20.5 -48t-48.5 -20q-27 0 -47 20t-20 48t19.5 48t48.5 20t48.5 -19.5t19.5 -48.5zM592 246q0 -41 -2 -64q-12 8 -35 8l-11 -1h-389q5 -57 53 -87
t130 -30q152 0 229 50v-134q-11 6 -40 6q-15 0 -81.5 -4.5t-118.5 -4.5q-140 0 -214 59.5t-74 168.5q0 130 77.5 200t219.5 70q117 0 189 -63q67 -58 67 -174zM480 268q-4 63 -41 95.5t-99 32.5q-154 0 -183 -128h323z" />
    <glyph glyph-name="igrave" unicode="&#xec;" horiz-adv-x="281" 
d="M201 564q0 -14 -8.5 -22t-20.5 -8q-33 0 -89 48t-56 88q0 14 12.5 25.5t29.5 11.5q36 0 84 -55t48 -88zM243 0h-206q29 22 38 47t9 66v241q0 40 -9 65.5t-38 47.5h177q-18 -14 -18 -54v-300q0 -42 9 -66.5t38 -46.5z" />
    <glyph glyph-name="iacute" unicode="&#xed;" horiz-adv-x="281" 
d="M255 670q0 -40 -56 -88t-89 -48q-12 0 -21 8t-9 22q0 33 48.5 88t84.5 55q18 0 30 -11t12 -26zM243 0h-206q29 22 38 47t9 66v241q0 41 -9 66.5t-38 46.5h177q-18 -15 -18 -54v-300q0 -42 9 -66.5t38 -46.5z" />
    <glyph glyph-name="icircumflex" unicode="&#xee;" horiz-adv-x="281" 
d="M279 605l-42 -70q-2 11 -10 17l-100 80l-100 -80q-8 -6 -10 -17l-42 70h4q7 0 12 4l136 97l136 -97q8 -4 11 -4h5zM243 0h-206q29 22 38 47t9 66v241q0 40 -9 65.5t-38 47.5h177q-18 -14 -18 -54v-300q0 -42 9 -66.5t38 -46.5z" />
    <glyph glyph-name="idieresis" unicode="&#xef;" horiz-adv-x="281" 
d="M293 618q0 -28 -20 -48t-48 -20t-48 20t-20 47q0 29 20 49t48 20t48 -20.5t20 -47.5zM120 617q0 -27 -20 -47.5t-49 -20.5q-27 0 -47 19.5t-20 48.5q0 27 19.5 47.5t48.5 20.5q28 0 48 -20t20 -48zM242 0h-206q29 22 38.5 47t9.5 66v241q0 40 -9.5 65.5t-38.5 47.5h177
q-17 -14 -17 -54v-300q0 -42 8.5 -66.5t37.5 -46.5z" />
    <glyph glyph-name="eth" unicode="&#xf0;" horiz-adv-x="678" 
d="M639 246q0 -128 -78.5 -194.5t-229.5 -66.5q-130 0 -209 61q-83 65 -83 191q0 114 84.5 180t228.5 66q17 0 41 -2q-11 9 -44.5 35t-51.5 42l-12 11l-69 -64l-33 32l63 59l-22 16q-24 17 -59 17h-13l99 85q2 -23 30 -42l25 -18l63 59l33 -33l-57 -53l26 -20
q9 -7 43.5 -33.5t43.5 -33.5t37.5 -30t36.5 -32t29.5 -31t28 -35t19.5 -34.5t17.5 -40.5t8.5 -42.5t4 -48.5zM516 228q0 168 -169 168q-89 0 -137 -42t-48 -115q0 -79 47 -123t133 -44q85 0 129.5 43.5t44.5 112.5z" />
    <glyph glyph-name="ntilde" unicode="&#xf1;" horiz-adv-x="699" 
d="M577 636q-12 -7 -40 -33.5t-57.5 -43.5t-62.5 -17q-35 0 -74 30q-8 6 -23 17t-20.5 15t-15 9.5t-16 7.5t-13.5 2q-21 0 -47.5 -20.5t-33.5 -45.5l-52 52q8 5 32 29t50.5 40.5t55.5 16.5q31 0 63 -24q4 -3 13.5 -10.5t13 -10t10.5 -8t10.5 -7.5t9.5 -6t9 -5.5l8 -4
t8.5 -3.5t7.5 -1.5t8 -0.5q27 0 60.5 25t40.5 53zM668 0h-205q29 22 37.5 46.5t8.5 66.5v141q0 75 -26.5 108.5t-105.5 33.5q-48 0 -82 -11.5t-52.5 -29t-29.5 -45t-13.5 -51t-2.5 -56.5v-90q0 -42 9 -66.5t37 -46.5h-205q29 24 38 47t9 66v241q0 42 -9 65.5t-38 47.5h100
q30 0 43 13v-68q5 3 25.5 16t35 19.5t39 16.5t55 14.5t65.5 4.5q102 0 161 -46.5t59 -137.5v-186q0 -41 9 -66t38 -47z" />
    <glyph glyph-name="ograve" unicode="&#xf2;" horiz-adv-x="678" 
d="M411 564q0 -13 -9 -21.5t-21 -8.5q-33 0 -88.5 48t-55.5 88q0 15 11.5 26t29.5 11q36 0 84.5 -55t48.5 -88zM639 237q0 -119 -79.5 -185.5t-228.5 -66.5q-130 0 -209 61q-83 65 -83 191q0 114 84.5 180t228.5 66q133 0 210 -64t77 -182zM516 228q0 168 -169 168
q-89 0 -137 -42t-48 -115q0 -79 47 -123t133 -44q85 0 129.5 43.5t44.5 112.5z" />
    <glyph glyph-name="oacute" unicode="&#xf3;" horiz-adv-x="678" 
d="M455 670q0 -40 -55.5 -88t-88.5 -48q-12 0 -21 8t-9 22q0 33 48.5 88t84.5 55q18 0 29.5 -11t11.5 -26zM639 237q0 -119 -79.5 -185.5t-228.5 -66.5q-130 0 -209 61q-83 65 -83 191q0 114 84.5 180t228.5 66q133 0 210 -64t77 -182zM516 228q0 168 -169 168
q-89 0 -137 -42t-48 -115q0 -79 47 -123t133 -44q85 0 129.5 43.5t44.5 112.5z" />
    <glyph glyph-name="ocircumflex" unicode="&#xf4;" horiz-adv-x="678" 
d="M559 605l-39 -78q-4 8 -21 18l-160 87l-159 -87q-17 -10 -21 -18l-40 78h9q8 0 16 5l195 96l195 -96q10 -5 20 -5h5zM639 237q0 -119 -79.5 -185.5t-228.5 -66.5q-130 0 -209 61q-83 65 -83 191q0 114 84.5 180t228.5 66q133 0 210 -64t77 -182zM516 228q0 168 -169 168
q-89 0 -137 -42t-48 -115q0 -79 47 -123t133 -44q85 0 129.5 43.5t44.5 112.5z" />
    <glyph glyph-name="otilde" unicode="&#xf5;" horiz-adv-x="678" 
d="M567 636q-13 -7 -40.5 -33.5t-57 -43.5t-62.5 -17q-35 0 -74 30q-6 5 -17 13t-15.5 11.5t-12.5 9t-12 8t-10 5t-11 3.5t-10 1q-21 0 -47.5 -21t-33.5 -45l-52 52q8 5 32 29t50.5 40.5t55.5 16.5q31 0 63 -24q4 -3 13.5 -10.5t13 -10t10.5 -8t10.5 -7.5t9.5 -6t9 -5.5
l8 -4t8.5 -3.5t7.5 -1.5t8 -0.5q27 0 60.5 25t40.5 53zM639 237q0 -119 -79.5 -185.5t-228.5 -66.5q-130 0 -209 61q-83 65 -83 191q0 114 84.5 180t228.5 66q133 0 210 -64t77 -182zM516 228q0 168 -169 168q-89 0 -137 -42t-48 -115q0 -79 47 -123t133 -44
q85 0 129.5 43.5t44.5 112.5z" />
    <glyph glyph-name="odieresis" unicode="&#xf6;" horiz-adv-x="678" 
d="M514 618q0 -28 -20.5 -48t-47.5 -20q-28 0 -48 19.5t-20 47.5q0 29 20 49t48 20t48 -20t20 -48zM301 617q0 -27 -20 -47.5t-49 -20.5q-27 0 -47 19.5t-20 48.5q0 28 19.5 48t48.5 20q28 0 48 -19.5t20 -48.5zM639 237q0 -119 -79.5 -185.5t-228.5 -66.5q-130 0 -209 61
q-83 65 -83 191q0 114 84.5 180t228.5 66q133 0 210 -64t77 -182zM516 228q0 168 -169 168q-89 0 -137 -42t-48 -115q0 -79 47 -123t133 -44q85 0 129.5 43.5t44.5 112.5z" />
    <glyph glyph-name="divide" unicode="&#xf7;" 
d="M412 500q0 -26 -18 -44t-44 -18q-25 0 -43 18t-18 44t17.5 44t43.5 18t44 -18t18 -44zM601 291h-502v84h502v-84zM412 164q0 -26 -18 -44t-44 -18q-25 0 -43 18t-18 44t18 44t43 18q26 0 44 -18t18 -44z" />
    <glyph glyph-name="oslash" unicode="&#xf8;" horiz-adv-x="678" 
d="M639 237q0 -119 -79 -185.5t-229 -66.5q-52 0 -113 16l-25 -32l-2 -3q-2 -2 -3.5 -5t-1.5 -5q0 -8 8 -13h-131q26 13 64 64l18 24q-106 64 -106 206q0 115 84 180.5t229 65.5q60 0 115 -15l19 26q4 5 4 14q0 8 -9 14h135q-32 -21 -54 -51l-25 -34q102 -65 102 -200z
M516 228q0 75 -38 120l-208 -267q32 -9 72 -9q85 0 129.5 43t44.5 113zM413 388q-34 8 -66 8q-89 0 -137 -42t-48 -115q0 -76 43 -120z" />
    <glyph glyph-name="ugrave" unicode="&#xf9;" horiz-adv-x="698" 
d="M421 564q0 -13 -9 -21.5t-21 -8.5q-33 0 -88.5 48t-55.5 88q0 14 11.5 25.5t29.5 11.5q36 0 84.5 -55t48.5 -88zM661 0h-101q-23 0 -33 12.5t-16 36.5q-39 -30 -95.5 -47.5t-102.5 -17.5q-118 0 -178 44q-37 26 -47 62.5t-10 96.5v167q0 41 -9 66.5t-38 46.5h173
q-14 -14 -14 -32v-248q0 -59 28 -87.5t104 -28.5q113 0 159 62q21 28 21 81v140q0 41 -8.5 66t-38.5 47h177q-13 -11 -15.5 -21t-2.5 -36v-297q0 -42 9 -66.5t38 -46.5z" />
    <glyph glyph-name="uacute" unicode="&#xfa;" horiz-adv-x="698" 
d="M465 670q0 -40 -55.5 -88t-88.5 -48q-12 0 -21 8t-9 22q0 33 48.5 88t84.5 55q18 0 29.5 -11t11.5 -26zM661 0h-101q-23 0 -33 12.5t-16 36.5q-39 -30 -95.5 -47.5t-102.5 -17.5q-118 0 -178 44q-37 26 -47 62.5t-10 96.5v167q0 41 -9 66.5t-38 46.5h173q-14 -14 -14 -32
v-248q0 -59 28 -87.5t104 -28.5q113 0 159 62q21 28 21 81v140q0 41 -8.5 66t-38.5 47h177q-13 -11 -15.5 -21t-2.5 -36v-297q0 -42 9 -66.5t38 -46.5z" />
    <glyph glyph-name="ucircumflex" unicode="&#xfb;" horiz-adv-x="698" 
d="M569 605l-39 -78q-4 8 -21 18l-160 87l-159 -87q-17 -10 -21 -18l-39 78h8q8 0 16 5l195 96l195 -96q10 -5 20 -5h5zM661 0h-101q-23 0 -33 12.5t-16 36.5q-39 -30 -95.5 -47.5t-102.5 -17.5q-118 0 -178 44q-37 26 -47 62.5t-10 96.5v167q0 41 -9 66.5t-38 46.5h173
q-14 -14 -14 -32v-248q0 -59 28 -87.5t104 -28.5q113 0 159 62q21 28 21 81v140q0 41 -8.5 66t-38.5 47h177q-13 -11 -15.5 -21t-2.5 -36v-297q0 -42 9 -66.5t38 -46.5z" />
    <glyph glyph-name="udieresis" unicode="&#xfc;" horiz-adv-x="698" 
d="M524 618q0 -28 -20 -48t-47 -20q-28 0 -48.5 20t-20.5 47q0 28 20.5 48.5t48.5 20.5q27 0 47 -20.5t20 -47.5zM312 617q0 -27 -20 -47.5t-49 -20.5q-27 0 -47 19.5t-20 48.5q0 28 19 48t48 20q28 0 48.5 -20t20.5 -48zM661 0h-101q-23 0 -33 12.5t-16 36.5
q-39 -30 -95.5 -47.5t-102.5 -17.5q-118 0 -178 44q-37 26 -47 62.5t-10 96.5v167q0 41 -9 66.5t-38 46.5h173q-14 -14 -14 -32v-248q0 -59 28 -87.5t104 -28.5q113 0 159 62q21 28 21 81v140q0 41 -8.5 66t-38.5 47h177q-13 -11 -15.5 -21t-2.5 -36v-297q0 -42 9 -66.5
t38 -46.5z" />
    <glyph glyph-name="yacute" unicode="&#xfd;" horiz-adv-x="639" 
d="M435 670q0 -40 -55.5 -88t-88.5 -48q-12 0 -21 8.5t-9 21.5q0 33 48.5 88t84.5 55q18 0 29.5 -11t11.5 -26zM655 467q-62 -76 -116 -159l-201 -313q-45 -69 -45 -107q0 -16 13 -33h-226q90 59 151 153l37 56l-175 261q-61 93 -114 142h212q-16 -16 -16 -35q0 -22 25 -60
l134 -202l125 192q37 58 37 77q0 17 -15 28h174z" />
    <glyph glyph-name="thorn" unicode="&#xfe;" horiz-adv-x="696" 
d="M656 229q0 -110 -74.5 -176.5t-206.5 -66.5q-99 0 -179 49v-67q0 -42 9 -66.5t38 -46.5h-206q29 22 38 47t9 66v585q0 42 -9 66.5t-38 47.5h174q-15 -16 -15 -61v-182q88 58 206 58q117 0 185 -60q69 -62 69 -193zM533 235q0 78 -40.5 119t-116.5 41q-85 0 -132.5 -45
t-47.5 -123q0 -75 44.5 -114.5t126.5 -39.5q79 0 122.5 42.5t43.5 119.5z" />
    <glyph glyph-name="ydieresis" unicode="&#xff;" horiz-adv-x="639" 
d="M501 618q0 -28 -20.5 -48t-47.5 -20q-28 0 -48 20t-20 47q0 28 20 48.5t48 20.5t48 -20t20 -48zM288 617q0 -28 -20.5 -48t-48.5 -20q-27 0 -47 20t-20 48q0 27 19.5 47.5t48.5 20.5q28 0 48 -19.5t20 -48.5zM655 467q-62 -76 -116 -159l-201 -313q-45 -69 -45 -107
q0 -16 13 -33h-226q90 59 151 153l37 56l-175 261q-61 93 -114 142h212q-16 -16 -16 -35q0 -22 25 -60l134 -202l125 192q37 58 37 77q0 17 -15 28h174z" />
    <glyph glyph-name="dotlessi" unicode="&#x131;" horiz-adv-x="281" 
d="M243 0h-206q29 22 38 47t9 66v241q0 41 -9 66.5t-38 46.5h177q-18 -15 -18 -54v-300q0 -42 9 -66.5t38 -46.5z" />
    <glyph glyph-name="Lslash" unicode="&#x141;" horiz-adv-x="687" 
d="M683 157l-31 -91q-9 -27 -9 -42q0 -12 14 -24h-618q33 16 46.5 47.5t13.5 91.5v143l-92 -59v83l92 60v161q0 45 -7.5 73t-16.5 38t-27 25l-2 2l-2 2h242q-31 -22 -44 -48.5t-13 -91.5v-98l160 102v-83l-160 -103v-239h239q74 0 119.5 9t95.5 42z" />
    <glyph glyph-name="lslash" unicode="&#x142;" horiz-adv-x="281" 
d="M270 389l-74 -46v-230q0 -41 9 -66t38 -47h-206q29 22 38 47t9 66v171l-69 -44v75l69 44v196q0 41 -9 66.5t-38 46.5h178q-13 -8 -16 -20.5t-3 -40.5v-189l74 47v-76z" />
    <glyph glyph-name="OE" unicode="&#x152;" horiz-adv-x="1093" 
d="M1063 162l-43 -122q-3 -9 -3 -17t9 -23h-495q10 16 10 34v22q-80 -69 -196 -69q-145 0 -225.5 86.5t-80.5 252.5q0 174 84 264t233 90q116 0 185 -66v18q0 21 -14 35h478q-9 -9 -9 -18q0 -10 9 -35l32 -97q-36 26 -91 35t-144 9h-144v-169h171q117 0 149 21l-63 -90
q-17 -24 -33.5 -30.5t-52.5 -6.5h-171v-180h212q70 0 112.5 12t80.5 44zM535 337q0 118 -46.5 177.5t-129.5 59.5t-130 -63.5t-47 -175.5q0 -94 20 -142q19 -47 59 -73.5t93 -26.5q181 0 181 244z" />
    <glyph glyph-name="oe" unicode="&#x153;" horiz-adv-x="1094" 
d="M1056 180q-15 8 -28 8h-10h-411q19 -116 184 -116q127 0 238 50v-126q-16 8 -25 8q-22 0 -101 -9.5t-140 -9.5q-147 0 -233 80q-59 -80 -217 -80q-187 0 -251 124q-23 46 -23 117q0 120 75.5 188.5t219.5 68.5q147 0 206 -84q50 43 104.5 63.5t141.5 20.5q141 0 216 -80
q26 -27 38 -63t14 -64t2 -85v-2v-9zM947 267q-9 129 -156 129q-89 0 -135 -35t-48 -94h339zM487 224q0 172 -160 172q-80 0 -122.5 -45t-42.5 -129q0 -72 40.5 -111t115.5 -39q80 0 124.5 41.5t44.5 110.5z" />
    <glyph glyph-name="Scaron" unicode="&#x160;" horiz-adv-x="701" 
d="M577 829q-1 0 -4 0.5t-4 0.5q-9 0 -17 -5l-195 -100l-195 100q-12 5 -18 5q-1 0 -3 -0.5t-4 -0.5l40 83q5 -11 21 -19l159 -91l160 91q16 8 21 19zM670 207q0 -100 -85 -160t-223 -60q-62 0 -137 9t-85 9q-38 0 -59 -15l-41 194q53 -36 140.5 -63.5t191.5 -27.5
q67 0 111 29.5t44 75.5q0 40 -36 61.5t-83.5 27.5t-121 17.5t-123.5 29.5q-61 22 -88 55.5t-27 88.5q0 92 83.5 147t236.5 55q64 0 141 -9.5t97 -9.5q8 0 31 5l-25 -151q-112 59 -238 59q-87 0 -138.5 -22.5t-51.5 -60.5t52 -56q29 -9 175 -32q132 -20 195.5 -61t63.5 -135z
" />
    <glyph glyph-name="scaron" unicode="&#x161;" horiz-adv-x="627" 
d="M534 627q-2 0 -5 0.5t-4 0.5q-9 0 -16 -5l-195 -96l-195 96q-12 5 -18 5q-2 0 -4 -0.5t-3 -0.5l39 79q4 -8 21 -18l160 -87l159 87q17 8 21 18zM579 150q0 -88 -70 -128t-210 -40q-39 0 -97 7.5t-75 7.5q-30 0 -46 -19l-28 162q119 -71 270 -71q67 0 102 18t35 49
q0 33 -47 45q-28 6 -165 17q-99 7 -148.5 36t-49.5 86q0 62 31 97q62 70 245 70q56 0 130 -10.5t89 -10.5q11 0 15 1l-40 -116q-90 49 -196 49q-159 0 -159 -57q0 -30 37.5 -39.5t137.5 -16.5q23 -1 36 -2q105 -8 154 -40t49 -95z" />
    <glyph glyph-name="Ydieresis" unicode="&#x178;" horiz-adv-x="823" 
d="M606 820q0 -30 -21 -51t-50 -21q-30 0 -51 21.5t-21 49.5q0 29 21 50t51 21q29 0 50 -21t21 -49zM381 819q0 -29 -21.5 -50t-51.5 -21q-29 0 -49.5 20.5t-20.5 50.5q0 28 20.5 49.5t50.5 21.5t51 -20.5t21 -50.5zM834 667q-1 -1 -9.5 -7t-13.5 -10.5t-14.5 -13
t-18.5 -17.5t-20.5 -21.5t-24.5 -28.5t-26 -34l-229 -316v-79q0 -46 8.5 -74.5t18 -39t30.5 -26.5h-248q32 20 45 49t13 91v79l-217 308q-74 107 -139 140h275q-26 -13 -26 -41q0 -22 33 -70l151 -218l168 235q26 35 26 61q0 20 -25 33h243z" />
    <glyph glyph-name="Zcaron" unicode="&#x17d;" horiz-adv-x="748" 
d="M610 829q-2 0 -4 0.5t-4 0.5q-10 0 -17 -5l-195 -100l-195 100q-12 5 -18 5q-1 0 -3 -0.5t-4 -0.5l40 83q4 -9 21 -19l159 -91l160 91q17 10 21 19zM728 151l-39 -112q-5 -15 -5 -20q0 -9 10 -19h-670l450 561h-251q-68 0 -104.5 -11.5t-62.5 -37.5l30 90q10 30 10 38
q0 17 -14 27h635l-453 -561h274q65 0 105 9t85 36z" />
    <glyph glyph-name="zcaron" unicode="&#x17e;" horiz-adv-x="565" 
d="M503 627q-1 0 -3.5 0.5t-4.5 0.5q-10 0 -17 -5l-195 -96l-195 96q-12 5 -18 5q-2 0 -4 -0.5t-3 -0.5l40 79q4 -8 21 -18l159 -87l160 87q18 11 21 18zM555 129l-25 -84q-6 -18 -6 -28q0 -3 9 -17h-521l313 372h-130q-50 0 -88 -6.5t-51 -11.5t-34 -16l28 76q7 16 7 30
q0 9 -12 24h488l-303 -376h187q94 0 138 37z" />
    <glyph glyph-name="florin" unicode="&#x192;" 
d="M684 728l-45 -108q-36 29 -100 29q-70 0 -101 -35.5t-33 -105.5h163h11q45 0 67 15l-60 -121q-9 10 -24.5 12t-56.5 2h-112l-49 -295q-6 -33 -9.5 -52t-12.5 -49.5t-19 -49t-27.5 -41t-39.5 -34.5t-54 -20.5t-71 -8.5q-34 0 -80.5 6.5t-58.5 6.5q-14 0 -22 -4l46 107
q32 -29 96 -29q31 0 53 9t34.5 20.5t22.5 38t13.5 44t10.5 56.5l51 295h-94q-32 0 -52 -14l60 121q11 -15 65 -15h38q11 73 29 112q25 54 78 85t124 31q28 0 73 -6.5t61 -6.5q10 0 25 5z" />
    <glyph glyph-name="circumflex" unicode="&#x2c6;" horiz-adv-x="500" 
d="M470 605l-40 -78q-4 8 -21 18l-159 87l-160 -87q-16 -9 -20 -18l-40 78h8q10 0 17 5l195 96l195 -96q10 -5 20 -5h5z" />
    <glyph glyph-name="caron" unicode="&#x2c7;" horiz-adv-x="500" 
d="M470 627q-2 0 -4 0.5t-4 0.5q-10 0 -17 -5l-195 -96l-195 96q-12 5 -18 5q-2 0 -4 -0.5t-3 -0.5l40 79q4 -9 20 -18l160 -87l159 87q17 10 21 18z" />
    <glyph glyph-name="uni02C9" unicode="&#x2c9;" horiz-adv-x="500" 
d="M441 672l-27 -51q-21 -38 -63 -38h-224q-41 0 -67 -13l21 42q11 21 25 30t39 9h195q40 0 58 3t43 18z" />
    <glyph glyph-name="breve" unicode="&#x2d8;" horiz-adv-x="500" 
d="M458 701q-15 -10 -16 -29q-5 -63 -54.5 -99.5t-137.5 -36.5t-137.5 36.5t-54.5 99.5q-1 18 -16 29h104q-9 -9 -9 -22q0 -36 29.5 -58t83.5 -22q55 0 84.5 22t29.5 58q0 12 -10 22h104z" />
    <glyph glyph-name="dotaccent" unicode="&#x2d9;" horiz-adv-x="500" 
d="M318 617q0 -27 -20 -47.5t-49 -20.5q-27 0 -47 19.5t-20 48.5q0 27 19.5 47.5t48.5 20.5q28 0 48 -20t20 -48z" />
    <glyph glyph-name="ring" unicode="&#x2da;" horiz-adv-x="500" 
d="M351 629q0 -42 -29.5 -71t-71.5 -29t-71 29.5t-29 71.5q0 41 29 70.5t71 29.5t71.5 -29.5t29.5 -71.5zM292 629q0 17 -12.5 30t-29.5 13t-29 -13t-12 -30t12 -29.5t29 -12.5t29.5 12.5t12.5 29.5z" />
    <glyph glyph-name="ogonek" unicode="&#x2db;" horiz-adv-x="500" 
d="M503 -154q-4 1 -14 1l-30 -9q-30 -10 -52 -10q-40 0 -67 24t-27 68q0 18 12 34.5t23.5 25t32.5 20.5h82q-37 -20 -54.5 -35.5t-17.5 -34.5q0 -33 44 -33q40 0 68 16v-67z" />
    <glyph glyph-name="tilde" unicode="&#x2dc;" horiz-adv-x="500" 
d="M478 636q-13 -7 -40.5 -33.5t-57 -43.5t-62.5 -17q-35 0 -74 30q-6 5 -17 13t-15.5 11.5t-12.5 9t-12 8t-10 5t-11 3.5t-10 1q-22 0 -48 -20.5t-33 -45.5l-52 52q8 5 31.5 28.5t50.5 40.5t56 17q31 0 63 -24q6 -5 19 -14.5t17.5 -13t13.5 -10t13.5 -9t11.5 -5.5t12 -4
t11 -1q27 0 60.5 24.5t40.5 53.5z" />
    <glyph glyph-name="hungarumlaut" unicode="&#x2dd;" horiz-adv-x="500" 
d="M457 670q0 -40 -55.5 -88t-88.5 -48q-12 0 -21 8t-9 22q0 33 48.5 88t84.5 55q18 0 29.5 -11t11.5 -26zM275 670q0 -40 -55.5 -88t-88.5 -48q-12 0 -21 8t-9 22q0 33 48.5 88t84.5 55q17 0 29 -11t12 -26z" />
    <glyph glyph-name="uni03A9" unicode="&#x3a9;" horiz-adv-x="849" 
d="M802 0h-303v155q78 27 116.5 98.5t38.5 151.5q0 132 -62.5 199.5t-165.5 67.5q-117 0 -177 -73t-60 -193q0 -97 46.5 -168t127.5 -89v-149h-317v172h32q0 -21 2 -33.5t9 -27.5t25 -22t46 -7h153v33q-110 23 -185 99.5t-75 191.5q0 139 104 222.5t270 83.5
q173 0 271.5 -87t98.5 -216q0 -100 -67.5 -179.5t-180.5 -109.5v-38h139q28 0 46 7t25 22t9 27.5t2 33.5h32v-172z" />
    <glyph glyph-name="uni03BC" unicode="&#x3bc;" horiz-adv-x="698" 
d="M661 0h-101q-23 0 -33 12.5t-16 36.5q-39 -30 -95 -47.5t-103 -17.5q-96 0 -143 44v-100q0 -51 20 -73h-132q20 23 20 60v439q0 41 -9 66.5t-38 46.5h173q-14 -14 -14 -32v-248q0 -59 28 -87.5t104 -28.5q113 0 159 62q21 28 21 81v140q0 41 -8.5 66t-38.5 47h177
q-13 -11 -15.5 -21t-2.5 -36v-297q0 -42 9 -66.5t38 -46.5z" />
    <glyph glyph-name="pi" unicode="&#x3c0;" horiz-adv-x="553" 
d="M523 108q-30 -120 -93 -120q-39 0 -59 31q-24 35 -24 123v245h-127v-170q0 -141 -41 -195q-28 -34 -67 -34q-15 0 -26.5 10t-11.5 26q0 34 35 45q39 8 51.5 47t12.5 121v150h-35q-33 0 -49.5 -13.5t-24.5 -46.5l-29 8q5 147 128 147h343v-95h-112v-195q0 -69 13 -100
q13 -27 36 -27q19 0 31.5 15.5t25.5 44.5z" />
    <glyph glyph-name="endash" unicode="&#x2013;" horiz-adv-x="645" 
d="M622 321l-30 -74q-14 -34 -30 -45t-54 -11h-411q-46 0 -75 -19l24 62q14 37 31 47t54 10h380q47 0 66 5t45 25z" />
    <glyph glyph-name="emdash" unicode="&#x2014;" horiz-adv-x="973" 
d="M973 321l-30 -74q-14 -33 -30.5 -44t-54.5 -11h-783q-45 0 -75 -20l24 62q14 37 31.5 47.5t53.5 10.5h752q47 0 66.5 4.5t45.5 24.5z" />
    <glyph glyph-name="quoteleft" unicode="&#x2018;" horiz-adv-x="307" 
d="M240 630q-33 -5 -50.5 -28.5t-17.5 -41.5q0 -16 38 -34q27 -14 27 -51q0 -32 -23 -52t-63 -20q-44 0 -68.5 24.5t-24.5 68.5q0 39 21 81t42 60q36 32 36 41v2z" />
    <glyph glyph-name="quoteright" unicode="&#x2019;" horiz-adv-x="307" 
d="M249 587q0 -39 -21 -81t-42 -60q-36 -32 -36 -41v-2l-83 50q33 5 50.5 28.5t17.5 41.5q0 16 -38 34q-27 13 -27 51q0 32 23 52t63 20q44 0 68.5 -24.5t24.5 -68.5z" />
    <glyph glyph-name="quotesinglbase" unicode="&#x201a;" horiz-adv-x="307" 
d="M249 42q0 -39 -21 -81t-42 -60q-36 -32 -36 -41v-2l-83 50q33 5 50.5 28.5t17.5 41.5q0 16 -38 34q-27 14 -27 51q0 32 23 52t63 20q44 0 68.5 -24.5t24.5 -68.5z" />
    <glyph glyph-name="quotedblleft" unicode="&#x201c;" horiz-adv-x="530" 
d="M463 630q-33 -5 -50.5 -28.5t-17.5 -41.5q0 -16 38 -34q27 -14 27 -51q0 -32 -23 -52t-63 -20q-44 0 -68.5 24.5t-24.5 68.5q0 39 21 81t42 60q36 32 36 41v2zM240 630q-33 -5 -50.5 -28.5t-17.5 -41.5q0 -16 38 -34q27 -14 27 -51q0 -32 -23 -52t-63 -20
q-44 0 -68.5 24.5t-24.5 68.5q0 39 21 81t42 60q36 32 36 41v2z" />
    <glyph glyph-name="quotedblright" unicode="&#x201d;" horiz-adv-x="530" 
d="M472 587q0 -39 -21 -81t-42 -60q-36 -32 -36 -41v-2l-83 50q33 5 50.5 28.5t17.5 41.5q0 16 -38 34q-27 13 -27 51q0 32 23 52t63 20q44 0 68.5 -24.5t24.5 -68.5zM249 587q0 -39 -21 -81t-42 -60q-36 -32 -36 -41v-2l-83 50q33 5 50.5 28.5t17.5 41.5q0 16 -38 34
q-27 13 -27 51q0 32 23 52t63 20q44 0 68.5 -24.5t24.5 -68.5z" />
    <glyph glyph-name="quotedblbase" unicode="&#x201e;" horiz-adv-x="530" 
d="M472 42q0 -39 -21 -81t-42 -60q-36 -32 -36 -41v-2l-83 50q33 5 50.5 28.5t17.5 41.5q0 16 -38 34q-27 14 -27 51q0 32 23 52t63 20q44 0 68.5 -24.5t24.5 -68.5zM249 42q0 -39 -21 -81t-42 -60q-36 -32 -36 -41v-2l-83 50q33 5 50.5 28.5t17.5 41.5q0 16 -38 34
q-27 14 -27 51q0 32 23 52t63 20q44 0 68.5 -24.5t24.5 -68.5z" />
    <glyph glyph-name="dagger" unicode="&#x2020;" horiz-adv-x="493" 
d="M468 404q-13 14 -45 19l-149 21l32 -178l-25 -361v-9q0 -21 12 -34h-99q15 14 15 36v7l-25 361l33 178l-155 -21q-21 -3 -37 -19v139q15 -17 32 -19l160 -21l-23 130q-7 35 -23 47h148q-17 -13 -23 -47l-22 -130l155 21q26 4 39 20v-140z" />
    <glyph glyph-name="daggerdbl" unicode="&#x2021;" horiz-adv-x="493" 
d="M468 -1q-12 12 -38 16l-155 25l20 -122q4 -25 8 -35.5t15 -20.5h-146q15 13 23 56l22 122l-155 -26q-28 -6 -37 -15v139q14 -13 43 -18l149 -23l-29 171l29 178l-150 -24q-12 -2 -15.5 -3t-10 -3t-9.5 -5t-7 -8v144q14 -15 44 -20l148 -22l-29 143q-4 22 -15 32h145
q-12 -11 -16 -32l-27 -143l158 22q20 2 35 20v-143q-12 16 -35 19l-158 23l27 -178l-27 -171l155 24q21 4 38 17v-139z" />
    <glyph glyph-name="bullet" unicode="&#x2022;" horiz-adv-x="500" 
d="M388 340q0 -58 -40 -99t-97 -41t-98 41.5t-41 98.5t40.5 98.5t97.5 41.5t97.5 -41t40.5 -99z" />
    <glyph glyph-name="ellipsis" unicode="&#x2026;" horiz-adv-x="920" 
d="M857 60q0 -34 -24 -53.5t-65 -19.5q-43 0 -66.5 19t-23.5 53q0 35 24 55.5t67 20.5q42 0 65 -20.5t23 -54.5zM550 60q0 -34 -24 -53.5t-65 -19.5q-43 0 -66.5 19t-23.5 53q0 35 23.5 55.5t67.5 20.5q42 0 65 -20.5t23 -54.5zM243 60q0 -34 -24 -53.5t-65 -19.5
q-43 0 -66.5 19t-23.5 53q0 35 23.5 55.5t67.5 20.5q42 0 65 -20.5t23 -54.5z" />
    <glyph glyph-name="perthousand" unicode="&#x2030;" horiz-adv-x="1557" 
d="M1527 188q0 -95 -59.5 -148t-171.5 -53q-101 0 -160 51.5t-59 149.5q0 92 63.5 144.5t171.5 52.5q100 0 157.5 -51.5t57.5 -145.5zM1032 188q0 -95 -59.5 -148t-171.5 -53q-100 0 -159.5 51t-59.5 150q0 92 63.5 144.5t171.5 52.5q100 0 157.5 -51.5t57.5 -145.5z
M790 668q-26 -15 -56 -63l-332 -553q-16 -27 -16 -39q0 -7 6 -13h-118q8 5 15 10.5t11 9t10 11.5t7.5 11t8 14t8.5 14l330 549q15 27 15 29v7q0 6 -7 13h118zM479 483q0 -95 -59.5 -148t-171.5 -53q-101 0 -160 51.5t-59 149.5q0 91 63.5 144t171.5 53q100 0 157.5 -51.5
t57.5 -145.5zM1435 181q0 135 -127 135q-66 0 -102.5 -34.5t-36.5 -92.5q0 -64 35 -98.5t100 -34.5q64 0 97.5 34.5t33.5 90.5zM940 181q0 135 -127 135q-66 0 -102.5 -34t-36.5 -93q0 -64 35 -98.5t100 -34.5q64 0 97.5 34.5t33.5 90.5zM387 476q0 135 -127 135
q-66 0 -102.5 -34t-36.5 -92q0 -64 35 -99t100 -35q64 0 97.5 34.5t33.5 90.5z" />
    <glyph glyph-name="guilsinglleft" unicode="&#x2039;" horiz-adv-x="290" 
d="M225 73h-76l-84 174l84 174h76l-61 -174z" />
    <glyph glyph-name="guilsinglright" unicode="&#x203a;" horiz-adv-x="290" 
d="M225 247l-84 -174h-76l61 174l-61 174h76z" />
    <glyph glyph-name="fraction" unicode="&#x2044;" horiz-adv-x="399" 
d="M491 668q-28 -17 -56 -63l-332 -553q-16 -29 -16 -39q0 -7 6 -13h-118q7 4 12.5 8t11 9.5l8.5 8.5t8 10.5t6.5 10t7 12t6.5 11.5l330 549q15 24 15 29q0 2 0.5 5t0.5 4q0 5 -8 11h118z" />
    <glyph glyph-name="Euro" unicode="&#x20ac;" 
d="M688 662l-49 -141q-79 62 -183 62q-163 0 -214 -140h234q42 0 83 18l-26 -67q-8 -21 -19.5 -25.5t-45.5 -4.5h-243q-2 -24 -2 -38q0 -16 1 -23h206q43 0 84 18l-27 -67q-9 -21 -20 -26t-44 -5h-187q13 -63 70.5 -101t148.5 -38q98 0 203 66v-145q-6 10 -21 10
q-14 0 -75 -14t-127 -14q-139 0 -223 60.5t-109 175.5h-6q-47 0 -87 -14l20 54q10 26 20 33t30 7h13v19q0 14 2 42q-49 0 -85 -15l20 54q10 27 20.5 33.5t39.5 6.5h19q32 116 119.5 176.5t210.5 60.5q52 0 100 -6t77 -12.5t35 -6.5q21 0 37 7z" />
    <glyph glyph-name="litre" unicode="&#x2113;" horiz-adv-x="422" 
d="M414 122q-46 -134 -158 -134q-65 0 -102 37q-43 43 -43 126v53q-16 -16 -70 -64l-24 32q83 75 94 87v215q0 110 46 174t118 64q51 0 75 -29t24 -75q0 -96 -79 -214q-49 -66 -60 -78v-182q0 -44 15.5 -67t40.5 -23q53 0 85 92zM334 607q0 62 -45 62q-54 0 -54 -130v-157
q12 16 36 53q63 92 63 172z" />
    <glyph glyph-name="trademark" unicode="&#x2122;" horiz-adv-x="1161" 
d="M1133 667q-25 -14 -35 -30t-10 -56v-229q0 -40 9.5 -56t34.5 -29h-176q17 10 24.5 16.5t13 23.5t5.5 45v241l-124 -291q-1 -2 -3 -6.5t-3.5 -8.5t-1.5 -5q0 -9 6 -15h-125q7 11 7 15q0 8 -9 26l-126 280v-236q0 -41 9.5 -56t34.5 -29h-174q26 14 35.5 29.5t9.5 55.5v229
q0 40 -9.5 56t-34.5 30h209q-16 -10 -16 -17q0 -3 10 -26l107 -234q6 -15 15 -39q8 24 14 39l98 228q9 24 9 27q0 11 -15 22h211zM466 553q-63 46 -138 46h-50v-247q0 -29 6 -45.5t11.5 -21.5t23.5 -18h-175q25 14 35 29t10 56v247h-45q-13 0 -26 -1.5t-22.5 -3t-20.5 -5
t-17 -5.5t-16.5 -7.5t-13.5 -7t-13 -7.5t-11 -7l27 78q5 15 5 16q0 7 -9 18h414q-9 -9 -9 -17q0 -2 2 -10l3 -8z" />
    <glyph glyph-name="Omega" unicode="&#x2126;" horiz-adv-x="849" 
d="M802 0h-303v155q78 27 116.5 98.5t38.5 151.5q0 132 -62.5 199.5t-165.5 67.5q-117 0 -177 -73t-60 -193q0 -97 46.5 -168t127.5 -89v-149h-317v172h32q0 -21 2 -33.5t9 -27.5t25 -22t46 -7h153v33q-110 23 -185 99.5t-75 191.5q0 139 104 222.5t270 83.5
q173 0 271.5 -87t98.5 -216q0 -100 -67.5 -179.5t-180.5 -109.5v-38h139q28 0 46 7t25 22t9 27.5t2 33.5h32v-172z" />
    <glyph glyph-name="estimated" unicode="&#x212e;" horiz-adv-x="681" 
d="M648 310h-477v-221q71 -69 169 -69q148 0 236 144l32 -19q-51 -77 -113 -117t-155 -40q-135 0 -218.5 93.5t-83.5 229.5q0 138 83 230.5t221 92.5q139 0 221.5 -92.5t84.5 -231.5zM513 343v189q-73 70 -171 70q-105 0 -171 -69v-190h342z" />
    <glyph glyph-name="partialdiff" unicode="&#x2202;" horiz-adv-x="574" 
d="M550 482q0 -55 -16.5 -129t-40.5 -127q-105 -239 -272 -239q-82 0 -135.5 54.5t-53.5 149.5q0 117 78 196t196 79q63 0 106.5 -28t61.5 -64h3q4 25 4 80q0 75 -40 134.5t-124 59.5q-93 0 -170 -70l-21 24q99 122 231 122q92 0 142.5 -62.5t50.5 -179.5zM466 323
q-14 37 -48.5 66t-81.5 29q-74 0 -129.5 -70t-55.5 -179q0 -60 30.5 -95.5t74.5 -35.5q50 0 94 45t72 107t44 133z" />
    <glyph glyph-name="Delta" unicode="&#x2206;" horiz-adv-x="667" 
d="M649 0h-635l297 712h56zM499 48l-198 496l-209 -496h407z" />
    <glyph glyph-name="product" unicode="&#x220f;" horiz-adv-x="751" 
d="M713 -131h-277v32h20q35 0 46 21.5t11 59.5v671h-277v-671q0 -18 1.5 -30.5t7 -25t17.5 -19t31 -6.5h19v-32h-275v32h19q35 0 46 21.5t11 59.5v605q0 19 -1.5 31t-7 25t-17.5 19t-31 6h-19v32h676v-32h-18q-37 0 -47.5 -20.5t-10.5 -60.5v-605q0 -39 11 -60t47 -21h18
v-32z" />
    <glyph glyph-name="summation" unicode="&#x2211;" horiz-adv-x="582" 
d="M564 53l-19 -184h-552l-2 37l274 363l-263 395v36h525l11 -155h-31q-7 62 -26 84.5t-69 22.5h-268l219 -329l-268 -356h336q55 0 73.5 19t27.5 71z" />
    <glyph glyph-name="minus" unicode="&#x2212;" 
d="M601 291h-502v84h502v-84z" />
    <glyph glyph-name="uni2215" unicode="&#x2215;" horiz-adv-x="399" 
d="M491 668q-28 -17 -56 -63l-332 -553q-16 -29 -16 -39q0 -7 6 -13h-118q7 4 12.5 8t11 9.5l8.5 8.5t8 10.5t6.5 10t7 12t6.5 11.5l330 549q15 24 15 29q0 2 0.5 5t0.5 4q0 5 -8 11h118z" />
    <glyph glyph-name="uni2219" unicode="&#x2219;" 
d="M412 332q0 -26 -18 -44t-44 -18q-25 0 -43 18t-18 44t17.5 44t43.5 18t44 -18t18 -44z" />
    <glyph glyph-name="radical" unicode="&#x221a;" horiz-adv-x="503" 
d="M403 728l-123 -740h-56l-130 333l-57 -34l-20 32l114 70l120 -315h3l112 654h37z" />
    <glyph glyph-name="infinity" unicode="&#x221e;" horiz-adv-x="773" 
d="M568 112q-64 0 -101.5 29.5t-67.5 85.5h-2q-70 -115 -182 -115q-69 0 -115 47.5t-46 119.5q0 75 44.5 122.5t113.5 47.5q62 0 99.5 -31.5t64.5 -81.5h2q34 56 77 84.5t107 28.5q68 0 114 -46.5t46 -119.5t-45 -122t-109 -49zM569 404h1q-15 0 -29 -3.5t-24 -7.5
t-21 -14.5t-17 -16.5t-16.5 -22t-14 -22t-14.5 -26.5t-14 -25.5q51 -109 147 -109q53 0 83 38t30 86q0 54 -28.5 88.5t-82.5 34.5zM214 404q-51 0 -84.5 -34t-33.5 -90q0 -55 30.5 -89t84.5 -34q12 0 24 3t22.5 9.5t18.5 12t17.5 17.5t15 18.5t14 21.5t11.5 20.5t11 21
t10 18.5q-53 105 -141 105z" />
    <glyph glyph-name="integral" unicode="&#x222b;" horiz-adv-x="295" 
d="M295 694q0 -15 -8 -27.5t-26 -12.5q-17 0 -36 16q-16 11 -29 11q-23 0 -25 -37q0 -13 2 -30t6.5 -45t6.5 -47q17 -110 17 -252q0 -164 -11 -246q-12 -112 -29 -156q-30 -79 -97 -79q-30 0 -49.5 15.5t-19.5 37.5q0 17 10 28.5t29 11.5q14 0 31 -15q11 -11 28 -11
q24 0 25 39q2 19 -16 145q-13 114 -13 228q0 122 7 201q12 148 29 197q29 81 98 81q31 0 50.5 -15.5t19.5 -37.5z" />
    <glyph glyph-name="approxequal" unicode="&#x2248;" 
d="M626 479q-21 -73 -61.5 -118t-99.5 -45q-56 0 -141 37q-61 27 -91 27q-38 0 -62 -17t-42 -65l-55 23q25 76 63.5 119t100.5 43q48 0 126 -32q69 -32 109 -32q36 0 58.5 19t40.5 63zM626 299q-22 -72 -62 -117t-99 -45q-56 0 -141 37q-61 27 -91 27q-38 0 -62 -17t-42 -66
l-55 24q25 77 63.5 120t100.5 43q51 0 126 -33q72 -32 109 -32q36 0 58.5 19.5t40.5 63.5z" />
    <glyph glyph-name="notequal" unicode="&#x2260;" 
d="M595 183h-266l-85 -151h-94l85 151h-131v86h178l46 81h-224v86h270l83 146h94l-83 -146h127v-86h-174l-45 -81h219v-86z" />
    <glyph glyph-name="lessequal" unicode="&#x2264;" 
d="M595 0h-491v86h491v-86zM595 133l-491 183v93l491 184v-91l-377 -139l377 -138v-92z" />
    <glyph glyph-name="greaterequal" unicode="&#x2265;" 
d="M595 0h-491v86h491v-86zM595 316l-491 -184v92l377 138l-377 138v92l491 -183v-93z" />
    <glyph glyph-name="lozenge" unicode="&#x25ca;" horiz-adv-x="456" 
d="M449 349l-194 -361h-54l-193 361l193 363h54zM394 349l-166 310l-166 -310l166 -308z" />
    </font>
</defs>
</svg>
