<?xml version="1.0" standalone="no"?>
<!DOCTYPE svg PUBLIC "-//W3C//DTD SVG 1.1//EN" "http://www.w3.org/Graphics/SVG/1.1/DTD/svg11.dtd" >
<svg xmlns="http://www.w3.org/2000/svg" xmlns:xlink="http://www.w3.org/1999/xlink" version="1.1">
<metadata>
Created by FontForge 20170731 at Thu Aug 16 18:08:31 2007
 By Aleksey,,,
(c) 1988, 1990, 1994, 2002 Adobe Systems Incorporated. All rights reserved.
</metadata>
<defs>
<font id="FrutigerLTStd-LightItalic" horiz-adv-x="556" >
  <font-face 
    font-family="Frutiger LT Std 45 Light"
    font-weight="300"
    font-style="italic"
    font-stretch="normal"
    units-per-em="1000"
    panose-1="2 11 4 2 2 2 4 9 2 4"
    ascent="750"
    descent="-250"
    x-height="510"
    cap-height="698"
    bbox="-143 -250 1031 917"
    underline-thickness="50"
    underline-position="-200"
    slope="-12"
    unicode-range="U+0020-FB02"
  />
<missing-glyph horiz-adv-x="597" 
d="M97 0v700h500v-700h-500zM347 395l170 255h-340zM377 350l170 -255v510zM177 50h340l-170 255zM147 605v-510l170 255z" />
    <glyph glyph-name="f_i" unicode="fi" 
d="M73 0l98 456h-110l13 54h109l11 51q7 33 13.5 55.5t20 52.5t30 48.5t44 31.5t61.5 13q42 0 70 -11l-15 -53q-25 10 -51 10q-22 0 -39 -9.5t-27.5 -22.5t-19.5 -37.5t-13 -42t-11 -48.5l-8 -38h127l-13 -54h-126l-98 -456h-66zM362 0l108 510h66l-108 -510h-66zM587 730
l-18 -84h-76l18 84h76z" />
    <glyph glyph-name="f_l" unicode="fl" 
d="M73 0l98 456h-110l13 54h109l11 51q7 33 13.5 55.5t20 52.5t30 48.5t44 31.5t61.5 13q42 0 70 -11l-15 -53q-25 10 -51 10q-22 0 -39 -9.5t-27.5 -22.5t-19.5 -37.5t-13 -42t-11 -48.5l-8 -38h127l-13 -54h-126l-98 -456h-66zM362 0l160 750h66l-160 -750h-66z" />
    <glyph glyph-name=".notdef" horiz-adv-x="597" 
d="M97 0v700h500v-700h-500zM347 395l170 255h-340zM377 350l170 -255v510zM177 50h340l-170 255zM147 605v-510l170 255z" />
    <glyph glyph-name=".null" horiz-adv-x="0" 
 />
    <glyph glyph-name="nonmarkingreturn" horiz-adv-x="333" 
 />
    <glyph glyph-name="space" unicode=" " horiz-adv-x="278" 
 />
    <glyph glyph-name="exclam" unicode="!" horiz-adv-x="389" 
d="M150 169l100 529h84l-125 -529h-59zM102 0l17 84h82l-17 -84h-82z" />
    <glyph glyph-name="quotedbl" unicode="&#x22;" horiz-adv-x="444" 
d="M179 480v218h63v-218h-63zM314 480v218h63v-218h-63z" />
    <glyph glyph-name="numbersign" unicode="#" 
d="M127 0l31 219h-112l8 54h111l22 152h-115l8 54h114l31 219h61l-31 -219h130l31 219h61l-31 -219h104l-8 -54h-103l-21 -152h104l-8 -54h-104l-31 -219h-61l31 219h-130l-31 -219h-61zM357 273l21 152h-130l-21 -152h130z" />
    <glyph glyph-name="dollar" unicode="$" 
d="M289 421l50 225q-53 -10 -88 -41.5t-35 -84.5q0 -50 73 -99zM315 324l-61 -272q64 8 107 44.5t43 100.5q0 40 -23 69t-66 58zM370 786h48l-17 -76q79 -3 144 -31l-21 -63q-63 32 -136 34l-57 -256q33 -21 52 -35t43 -37.5t35.5 -52t11.5 -63.5q0 -95 -68.5 -152.5
t-164.5 -63.5l-18 -80h-48l18 78q-90 5 -152 38l21 66q61 -42 144 -44l68 304q-30 19 -47.5 32.5t-38.5 34t-30.5 44.5t-9.5 52q0 89 58 138t148 55z" />
    <glyph glyph-name="percent" unicode="%" horiz-adv-x="944" 
d="M700 47q42 0 71.5 29.5t41 67t11.5 76.5q0 37 -22.5 63.5t-61.5 26.5q-63 0 -94.5 -55t-31.5 -122q0 -38 23 -62t63 -24zM694 -7q-66 0 -104.5 42.5t-38.5 109.5q0 83 54 151t135 68q66 0 106.5 -39t40.5 -105q0 -92 -52.5 -159.5t-140.5 -67.5zM238 388q42 0 71.5 29.5
t41 67t11.5 76.5q0 37 -22.5 63.5t-61.5 26.5q-63 0 -94.5 -55t-31.5 -122q0 -38 23 -62t63 -24zM232 334q-66 0 -104.5 42.5t-38.5 109.5q0 83 54 151t135 68q66 0 106.5 -39t40.5 -105q0 -92 -52.5 -159.5t-140.5 -67.5zM239 -22l445 742h56l-445 -742h-56z" />
    <glyph glyph-name="ampersand" unicode="&#x26;" horiz-adv-x="667" 
d="M517 0l-51 79q-92 -91 -222 -91q-97 0 -157 49t-60 133q0 89 64 146t161 82q-24 34 -35 51t-21 45.5t-10 57.5q0 79 56 118.5t132 39.5q74 0 122 -37.5t48 -109.5q0 -127 -203 -192l140 -200q62 66 101 211h60q-31 -150 -130 -260l80 -122h-75zM438 127l-156 229
q-186 -55 -186 -186q0 -60 44.5 -94t103.5 -34q104 0 194 85zM481 563q0 46 -30.5 69.5t-81.5 23.5q-47 0 -83.5 -28t-36.5 -75q0 -52 64 -140q34 12 57.5 22.5t52 29t43.5 43.5t15 55z" />
    <glyph glyph-name="quotesingle" unicode="'" horiz-adv-x="278" 
d="M166 480v218h63v-218h-63z" />
    <glyph glyph-name="parenleft" unicode="(" horiz-adv-x="278" 
d="M330 756h59q-123 -145 -190.5 -275.5t-67.5 -280.5q0 -165 68 -340h-45q-86 201 -86 360q0 45 9 91t19 80t36 82t39.5 71.5t52 75t50.5 66.5z" />
    <glyph glyph-name="parenright" unicode=")" horiz-adv-x="278" 
d="M-12 -140h-59q123 145 190.5 275.5t67.5 280.5q0 165 -68 340h45q86 -201 86 -360q0 -45 -9 -91t-19 -80t-36 -82t-39.5 -71.5t-52 -75t-50.5 -66.5z" />
    <glyph glyph-name="asterisk" unicode="*" 
d="M179 379l99 122l-148 42l19 58l144 -56l-6 153h57l-6 -153l148 56l17 -58l-150 -42l89 -122l-46 -35l-81 129l-90 -129z" />
    <glyph glyph-name="plus" unicode="+" horiz-adv-x="600" 
d="M61 219v69h219v219h69v-219h219v-69h-219v-219h-69v219h-219z" />
    <glyph glyph-name="comma" unicode="," horiz-adv-x="278" 
d="M-37 -134l102 218h82l-123 -218h-61z" />
    <glyph glyph-name="hyphen" unicode="-" horiz-adv-x="333" 
d="M39 235l11 69h255l-11 -69h-255z" />
    <glyph glyph-name="period" unicode="." horiz-adv-x="278" 
d="M48 0l17 84h82l-17 -84h-82z" />
    <glyph glyph-name="slash" unicode="/" horiz-adv-x="278" 
d="M-6 -12l271 722h69l-273 -722h-67z" />
    <glyph glyph-name="zero" unicode="0" 
d="M54 225q0 46 10.5 105t34.5 125.5t58 121.5t87 91.5t115 36.5q98 0 143.5 -64.5t45.5 -167.5q0 -46 -10.5 -105t-34.5 -125.5t-58 -121.5t-87 -91.5t-115 -36.5q-98 0 -143.5 64.5t-45.5 167.5zM123 226q0 -32 5 -59.5t16.5 -54.5t35.5 -43t58 -16q59 0 108 50.5
t76.5 122t42 137.5t14.5 109q0 173 -121 173q-57 0 -104.5 -50.5t-74.5 -121.5t-41.5 -137.5t-14.5 -109.5z" />
    <glyph glyph-name="one" unicode="1" 
d="M211 0l130 620l-133 -95l-32 47l196 126h52l-147 -698h-66z" />
    <glyph glyph-name="two" unicode="2" 
d="M2 0l15 54l186 162q113 98 154 144q91 101 91 175q0 50 -34.5 80t-87.5 30q-100 0 -176 -60l6 73q81 47 170 47t140 -44t51 -120q0 -39 -14 -77t-43 -76t-49.5 -60t-57.5 -59l-240 -209h328l-14 -60h-425z" />
    <glyph glyph-name="three" unicode="3" 
d="M159 338l15 60h67q85 0 147.5 34.5t62.5 95.5q0 59 -42 88t-100 29q-53 0 -89 -9t-79 -31l5 67q70 33 163 33q89 0 150 -42.5t61 -128.5q0 -68 -53.5 -114.5t-127.5 -55.5v-2q56 -12 85.5 -52t29.5 -94q0 -72 -44 -124.5t-106.5 -75.5t-132.5 -23q-92 0 -172 31l16 60
q76 -31 156 -31q93 0 153.5 44t60.5 125q0 54 -48.5 85t-113.5 31h-64z" />
    <glyph glyph-name="four" unicode="4" 
d="M304 0l34 161h-337l15 66l416 471h89l-103 -477h103l-12 -60h-104l-35 -161h-66zM87 221h265l90 408h-2z" />
    <glyph glyph-name="five" unicode="5" 
d="M116 345l81 353h367l-12 -60h-305l-51 -221q50 12 89 12q91 0 147 -48.5t56 -133.5q0 -115 -82.5 -184.5t-194.5 -69.5q-96 0 -172 29l13 66q70 -35 143 -35q98 0 161 52.5t63 137.5q0 60 -46 93t-115 33q-67 0 -142 -24z" />
    <glyph glyph-name="six" unicode="6" 
d="M556 671l-18 -61q-63 35 -140 35q-104 0 -175.5 -86t-85.5 -196h2q41 41 81 59.5t99 18.5q85 0 140 -55.5t55 -138.5q0 -105 -68.5 -179.5t-170.5 -74.5q-215 0 -215 260q0 83 21.5 162t62.5 144.5t108 105.5t150 40q84 0 154 -34zM279 53q69 0 117.5 58t48.5 128
q0 61 -39.5 101.5t-116.5 40.5q-65 0 -112.5 -51t-47.5 -120q0 -70 42 -115.5t108 -41.5z" />
    <glyph glyph-name="seven" unicode="7" 
d="M573 698l-10 -54l-413 -644h-79l414 638h-347l12 60h423z" />
    <glyph glyph-name="eight" unicode="8" 
d="M262 47q67 0 119 40t52 104q0 23 -8 43.5t-17.5 33.5t-28.5 27t-29.5 20t-33 17t-27.5 14q-17 -2 -44.5 -13t-60 -29.5t-55.5 -50t-23 -67.5q0 -64 46 -101.5t110 -37.5zM345 651q-58 0 -99.5 -35t-41.5 -95q0 -69 96 -131q35 12 60 22.5t57 29t49 43.5t17 55
q0 55 -41.5 83t-96.5 28zM351 705q87 0 144 -40.5t57 -124.5q0 -67 -59.5 -112.5t-135.5 -61.5v-2q145 -53 145 -172q0 -96 -68 -147.5t-172 -51.5q-100 0 -162.5 48t-62.5 141q0 72 57.5 121.5t140.5 68.5v2q-100 62 -100 147q0 86 64.5 135t151.5 49z" />
    <glyph glyph-name="nine" unicode="9" 
d="M42 27l18 61q63 -35 140 -35q104 0 175.5 86t85.5 196h-2q-41 -41 -81 -59.5t-99 -18.5q-85 0 -140 55.5t-55 138.5q0 105 68.5 179.5t170.5 74.5q215 0 215 -260q0 -83 -21.5 -162t-62.5 -144.5t-108 -105.5t-150 -40q-84 0 -154 34zM319 645q-69 0 -117.5 -58
t-48.5 -128q0 -61 39.5 -101.5t116.5 -40.5q65 0 112.5 51t47.5 120q0 70 -42 115.5t-108 41.5z" />
    <glyph glyph-name="colon" unicode=":" horiz-adv-x="278" 
d="M137 426l17 84h82l-17 -84h-82zM48 0l17 84h82l-17 -84h-82z" />
    <glyph glyph-name="semicolon" unicode=";" horiz-adv-x="278" 
d="M-37 -134l102 218h82l-123 -218h-61zM137 426l17 84h82l-17 -84h-82z" />
    <glyph glyph-name="less" unicode="&#x3c;" horiz-adv-x="600" 
d="M568 514v-66l-430 -195l430 -195v-66l-507 230v62z" />
    <glyph glyph-name="equal" unicode="=" horiz-adv-x="600" 
d="M61 319v69h507v-69h-507zM61 118v69h507v-69h-507z" />
    <glyph glyph-name="greater" unicode="&#x3e;" horiz-adv-x="600" 
d="M62 -8v66l431 195l-431 195v66l507 -230v-62z" />
    <glyph glyph-name="question" unicode="?" horiz-adv-x="500" 
d="M144 624l11 64q80 22 123 22q81 0 135.5 -40.5t54.5 -120.5q0 -54 -29.5 -94t-84.5 -85q-2 -2 -26 -21.5t-31.5 -26.5t-27 -25.5t-28 -31t-18.5 -30t-13 -34.5l-7 -32h-58l8 39q11 54 48.5 97.5t98.5 92.5q33 27 50 43t33 45.5t16 62.5q0 51 -41 76t-93 25
q-64 0 -121 -26zM104 0l17 84h82l-17 -84h-82z" />
    <glyph glyph-name="at" unicode="@" horiz-adv-x="800" 
d="M266 290q1 -45 20.5 -70.5t51.5 -25.5q46 0 85 36t59 84t20 91q0 48 -24 69t-56 21q-53 0 -104.5 -60.5t-51.5 -144.5zM616 538l-85 -272q-10 -28 -10 -49q0 -23 22 -23q57 0 102 64t45 150q0 111 -84.5 176.5t-204.5 65.5q-126 0 -210.5 -85.5t-84.5 -214.5
q0 -131 84 -216.5t211 -85.5q83 0 152 30t112 81h61q-47 -80 -132.5 -125.5t-192.5 -45.5q-115 0 -199 53.5t-123 134t-39 173.5q0 69 23 133t67 115.5t114 82t157 30.5q90 0 169.5 -33.5t132.5 -104t53 -164.5q0 -61 -23.5 -114.5t-58.5 -87t-73 -53t-71 -19.5
q-67 0 -79 61h-2q-16 -19 -28.5 -29.5t-37.5 -21t-57 -10.5q-58 0 -96.5 43.5t-38.5 106.5q0 103 65.5 187t165.5 84q77 0 110 -77l21 60h63z" />
    <glyph glyph-name="A" unicode="A" horiz-adv-x="667" 
d="M493 247l-73 382l-236 -382h309zM-42 0l433 698h82l136 -698h-70l-35 187h-357l-115 -187h-74z" />
    <glyph glyph-name="B" unicode="B" 
d="M32 0l150 698h126q48 0 84 -5.5t71 -20.5t54 -47.5t19 -80.5q0 -73 -49.5 -122.5t-120.5 -56.5v-2q59 -8 90 -45t31 -98q0 -99 -78.5 -159.5t-200.5 -60.5h-176zM173 333l-60 -273h88q96 0 156.5 40.5t60.5 119.5q0 56 -35 84.5t-91 28.5h-119zM238 638l-53 -245h89
q78 1 135.5 37t57.5 111q0 32 -11.5 52.5t-35.5 29.5t-48 12t-63 3h-71z" />
    <glyph glyph-name="C" unicode="C" horiz-adv-x="611" 
d="M677 674l-24 -58q-64 34 -168 34q-151 0 -246.5 -102t-95.5 -255q0 -103 72.5 -174t181.5 -71q25 0 44 1t35 4t24.5 5t24 6.5t21.5 6.5l-8 -61q-1 0 -16.5 -5t-23 -6.5t-23.5 -5t-34 -4.5t-39 -1q-139 0 -233.5 84t-94.5 222q0 183 117 299.5t298 116.5q111 0 188 -36z
" />
    <glyph glyph-name="D" unicode="D" horiz-adv-x="667" 
d="M243 638l-124 -578h123q158 0 247.5 94.5t89.5 263.5q0 113 -66 166.5t-183 53.5h-87zM37 0l148 698h124q74 0 132.5 -14.5t106.5 -45.5t74 -87t26 -133q0 -190 -106 -304t-294 -114h-211z" />
    <glyph glyph-name="E" unicode="E" horiz-adv-x="500" 
d="M37 0l144 698h344l-11 -60h-277l-51 -249h261l-11 -60h-262l-56 -269h287l-10 -60h-358z" />
    <glyph glyph-name="F" unicode="F" horiz-adv-x="444" 
d="M28 0l148 698h334l-13 -60h-267l-51 -249h256l-12 -60h-255l-71 -329h-69z" />
    <glyph glyph-name="G" unicode="G" horiz-adv-x="722" 
d="M701 675l-19 -65q-79 40 -187 40q-152 0 -249.5 -96t-97.5 -249q0 -109 69.5 -183t176.5 -74q75 0 136 29l49 241h-167l14 60h237l-73 -355q-4 -1 -24.5 -8t-39 -12.5t-53.5 -10t-74 -4.5q-145 0 -232.5 89t-87.5 236q0 173 117.5 285t290.5 112q116 0 214 -35z" />
    <glyph glyph-name="H" unicode="H" horiz-adv-x="667" 
d="M37 0l148 698h68l-65 -309h357l66 309h68l-150 -698h-68l71 329h-357l-70 -329h-68z" />
    <glyph glyph-name="I" unicode="I" horiz-adv-x="222" 
d="M28 0l148 698h69l-148 -698h-69z" />
    <glyph glyph-name="J" unicode="J" horiz-adv-x="333" 
d="M-35 0l15 63q35 -15 66 -15q35 0 60 16t40.5 50t21.5 55.5t15 63.5q1 2 1 3t0.5 3t0.5 3l96 456h69l-102 -468q-8 -35 -12 -53t-13.5 -48.5t-18 -46.5t-24 -37t-33 -31.5t-42.5 -18t-55 -7.5q-60 0 -85 12z" />
    <glyph glyph-name="K" unicode="K" horiz-adv-x="611" 
d="M47 0l149 698h68l-65 -304h2l368 304h100l-411 -331l296 -367h-86l-279 349l-72 -349h-70z" />
    <glyph glyph-name="L" unicode="L" horiz-adv-x="444" 
d="M28 0l149 698h71l-137 -638h285l-11 -60h-357z" />
    <glyph glyph-name="M" unicode="M" horiz-adv-x="889" 
d="M37 0l148 698h96l128 -614l388 614h107l-148 -698h-68l135 623h-2l-398 -623h-57l-131 623h-2l-132 -623h-64z" />
    <glyph glyph-name="N" unicode="N" horiz-adv-x="667" 
d="M28 0l151 698h82l233 -614h2l130 614h63l-148 -698h-82l-233 614h-2l-132 -614h-64z" />
    <glyph glyph-name="O" unicode="O" horiz-adv-x="722" 
d="M67 273q0 113 43.5 211.5t129.5 162t198 63.5q126 0 195 -77.5t69 -207.5q0 -113 -43.5 -211.5t-129.5 -162t-198 -63.5q-126 0 -195 77.5t-69 207.5zM136 279q0 -102 50.5 -166.5t146.5 -64.5q89 0 159.5 57.5t105.5 141t35 172.5q0 102 -50.5 166.5t-146.5 64.5
q-89 0 -159.5 -57.5t-105.5 -141t-35 -172.5z" />
    <glyph glyph-name="P" unicode="P" horiz-adv-x="500" 
d="M244 638l-59 -276h78q89 0 149 39t60 122q0 66 -42 90.5t-113 24.5h-73zM37 0l150 698h119q53 0 92 -7t73.5 -25t52 -54t17.5 -89q0 -106 -80 -163.5t-191 -57.5h-98l-66 -302h-69z" />
    <glyph glyph-name="Q" unicode="Q" horiz-adv-x="722" 
d="M565 -132h-86l-103 124q-14 -2 -22 -3q-7 -1 -23 -1q-126 0 -195 77.5t-69 207.5q0 113 43.5 211.5t129.5 162t198 63.5q126 0 195 -77.5t69 -207.5q0 -142 -70.5 -260t-190.5 -159zM136 279q0 -102 50.5 -166.5t146.5 -64.5q89 0 159.5 57.5t105.5 141t35 172.5
q0 102 -50.5 166.5t-146.5 64.5q-89 0 -159.5 -57.5t-105.5 -141t-35 -172.5z" />
    <glyph glyph-name="R" unicode="R" 
d="M37 0l152 698h158q192 5 192 -156q0 -83 -56 -133t-141 -54v-2q21 -4 34.5 -11t21.5 -22t10.5 -23t8.5 -29l66 -268h-68l-61 259q-12 41 -32.5 55.5t-63.5 14.5h-81l-70 -329h-70zM243 638l-53 -249h73q38 0 72 7t65.5 22.5t50.5 45t19 69.5q0 105 -126 105h-101z" />
    <glyph glyph-name="S" unicode="S" horiz-adv-x="500" 
d="M519 679l-21 -63q-66 34 -141 34q-66 0 -116.5 -32.5t-50.5 -97.5q0 -33 26.5 -61t64 -50.5t75.5 -48t64.5 -65t26.5 -89.5q0 -101 -77 -159.5t-180 -58.5q-107 0 -176 38l21 66q64 -44 149 -44q80 0 137 37t57 112q0 40 -26.5 72.5t-64 56.5t-75.5 48.5t-64.5 60.5
t-26.5 80q0 96 68 145.5t168 49.5q90 0 162 -31z" />
    <glyph glyph-name="T" unicode="T" horiz-adv-x="500" 
d="M88 638l13 60h493l-12 -60h-212l-134 -638h-72l136 638h-212z" />
    <glyph glyph-name="U" unicode="U" horiz-adv-x="667" 
d="M687 698l-93 -432q-20 -127 -92.5 -202.5t-189.5 -75.5q-103 0 -166.5 58t-63.5 162q0 66 40 239l55 251h66l-71 -340q-21 -108 -21 -147q0 -76 43 -119.5t117 -43.5q85 0 138.5 54t72.5 141l101 455h64z" />
    <glyph glyph-name="V" unicode="V" horiz-adv-x="611" 
d="M701 698l-408 -698h-75l-114 698h67l96 -629h2l361 629h71z" />
    <glyph glyph-name="W" unicode="W" horiz-adv-x="944" 
d="M166 0l-62 698h67l49 -620h2l306 620h83l40 -620h2l310 620h68l-353 -698h-83l-38 620h-2l-306 -620h-83z" />
    <glyph glyph-name="X" unicode="X" horiz-adv-x="611" 
d="M-43 0l336 367l-169 331h75l142 -287l260 287h84l-308 -333l179 -365h-76l-150 316l-286 -316h-87z" />
    <glyph glyph-name="Y" unicode="Y" horiz-adv-x="611" 
d="M220 0l63 295l-177 403h73l147 -346l294 346h83l-353 -403l-63 -295h-67z" />
    <glyph glyph-name="Z" unicode="Z" horiz-adv-x="500" 
d="M-31 0l12 61l489 577h-355l13 60h437l-13 -61l-488 -577h378l-13 -60h-460z" />
    <glyph glyph-name="bracketleft" unicode="[" horiz-adv-x="278" 
d="M15 -140l190 896h158l-9 -48h-102l-170 -800h100l-9 -48h-158z" />
    <glyph glyph-name="backslash" unicode="\" horiz-adv-x="278" 
d="M65 710l269 -722h-71l-269 722h71z" />
    <glyph glyph-name="bracketright" unicode="]" horiz-adv-x="278" 
d="M306 756l-190 -896h-158l9 48h102l170 800h-100l9 48h158z" />
    <glyph glyph-name="asciicircum" unicode="^" horiz-adv-x="600" 
d="M60 265l218 433h64l218 -433h-70l-181 364l-178 -364h-71z" />
    <glyph glyph-name="underscore" unicode="_" horiz-adv-x="500" 
d="M0 -75h500v-50h-500v50z" />
    <glyph glyph-name="grave" unicode="`" horiz-adv-x="222" 
d="M138 722l85 -144h-42l-122 144h79z" />
    <glyph glyph-name="a" unicode="a" horiz-adv-x="500" 
d="M436 259l-27 -138q-16 -61 -19 -121h-63q7 61 10 75h-2q-58 -87 -174 -87q-60 0 -103 40.5t-43 102.5q0 53 27 90.5t73.5 56t93 26t99.5 7.5q29 0 69 -4q3 23 3 51q0 53 -28.5 81.5t-80.5 28.5q-63 0 -151 -44l7 64q82 34 154 34q82 0 125 -43t43 -123q0 -39 -13 -97z
M84 132q0 -42 29 -66t70 -24q82 0 128 61t58 152q-11 0 -31 1t-31 1q-223 0 -223 -125z" />
    <glyph glyph-name="b" unicode="b" 
d="M248 750l-67 -308h2q62 80 168 80q84 0 128 -58.5t44 -147.5q0 -83 -28.5 -156.5t-89 -122.5t-142.5 -49q-123 0 -157 102h-2q-2 -11 -10.5 -43t-11.5 -47h-65q22 80 27 104l138 646h66zM329 468q-59 0 -105.5 -43t-68.5 -102.5t-22 -118.5q0 -162 130 -162q62 0 107 45
t64.5 105.5t19.5 123.5q0 68 -31 110t-94 42z" />
    <glyph glyph-name="c" unicode="c" horiz-adv-x="444" 
d="M467 502l-18 -57q-15 8 -52 15.5t-66 7.5q-105 0 -164 -68t-59 -174q0 -79 47 -131.5t118 -52.5q38 0 108 24l-8 -63q-45 -15 -116 -15q-103 0 -160.5 71t-57.5 162q0 138 77 219.5t222 81.5q77 0 129 -20z" />
    <glyph glyph-name="d" unicode="d" 
d="M588 750l-134 -650q-14 -64 -17 -100h-65q5 51 16 81h-2q-63 -93 -174 -93q-87 0 -130 62t-43 156q0 74 29 145t89 121t137 50q57 0 99.5 -27.5t56.5 -78.5h2l70 334h66zM108 194q0 -68 31 -110t94 -42q54 0 100.5 43t71 103t24.5 118q0 72 -33.5 117t-96.5 45
q-62 0 -107 -45t-64.5 -105.5t-19.5 -123.5z" />
    <glyph glyph-name="e" unicode="e" horiz-adv-x="500" 
d="M476 237h-371q-3 -19 -3 -41q0 -72 43 -113t112 -41t149 34l-5 -61q-74 -27 -152 -27q-93 0 -151.5 54.5t-58.5 153.5q0 134 72.5 230t191.5 96q88 0 134 -50.5t46 -139.5q0 -20 -7 -95zM116 291h301q0 3 1.5 17.5t1.5 21.5q0 138 -117 138q-71 0 -122.5 -52t-64.5 -125z
" />
    <glyph glyph-name="f" unicode="f" horiz-adv-x="333" 
d="M73 0l98 456h-110l13 54h109l11 51q7 33 13.5 55.5t20 52.5t30 48.5t44 31.5t61.5 13q42 0 70 -11l-15 -53q-25 10 -51 10q-22 0 -39 -9.5t-27.5 -22.5t-19.5 -37.5t-13 -42t-11 -48.5l-8 -38h127l-13 -54h-126l-98 -456h-66z" />
    <glyph glyph-name="g" unicode="g" 
d="M-7 -182l17 64q67 -44 156 -44q54 0 91 12.5t60.5 40t37.5 61t26 85.5l8 37h-2q-67 -74 -171 -74q-87 0 -134.5 60t-47.5 148q0 129 69.5 221.5t190.5 92.5q64 0 109 -28.5t56 -87.5h2q9 52 24 104h63q-8 -34 -24 -104l-76 -351q-13 -60 -24 -97t-31.5 -74t-49 -56.5
t-72.5 -31.5t-105 -12q-96 0 -173 34zM103 208q0 -68 34.5 -111t101.5 -43q89 0 140.5 77.5t51.5 174.5q0 72 -35.5 117t-102.5 45q-58 0 -103 -42.5t-66 -100.5t-21 -117z" />
    <glyph glyph-name="h" unicode="h" 
d="M28 0l161 750h66l-76 -323h2q28 46 65.5 68.5t97.5 26.5q71 0 115.5 -39t44.5 -109q0 -41 -15 -105l-57 -269h-66l58 281q11 52 11 89q0 46 -25.5 72t-72.5 26q-76 0 -122 -62t-66 -156l-55 -250h-66z" />
    <glyph glyph-name="i" unicode="i" horiz-adv-x="222" 
d="M28 0l108 510h66l-108 -510h-66zM253 730l-18 -84h-75l18 84h75z" />
    <glyph glyph-name="j" unicode="j" horiz-adv-x="222" 
d="M201 510l-117 -570q-7 -33 -14.5 -56t-23 -48.5t-41 -38.5t-61.5 -13q-17 0 -64 9l17 57q13 -6 35 -6q36 0 57.5 28.5t28.5 65.5l117 572h66zM251 730l-18 -84h-75l18 84h75z" />
    <glyph glyph-name="k" unicode="k" horiz-adv-x="500" 
d="M28 0l164 750h62l-96 -446h2l265 206h94l-307 -226l227 -284h-82l-207 262l-56 -262h-66z" />
    <glyph glyph-name="l" unicode="l" horiz-adv-x="222" 
d="M28 0l160 750h66l-160 -750h-66z" />
    <glyph glyph-name="m" unicode="m" horiz-adv-x="833" 
d="M28 0l87 424q10 40 13 86h63q-4 -48 -11 -77h2q37 49 71.5 69t86.5 20q55 0 90.5 -30t37.5 -84h2q53 114 173 114q66 0 105 -40t39 -110q0 -27 -15 -96l-58 -276h-66l57 270q13 58 13 99q0 45 -21 72t-64 27q-49 0 -87.5 -34.5t-58 -78.5t-30.5 -96l-53 -259h-66l57 270
q13 58 13 99q0 45 -21 72t-64 27q-49 0 -87.5 -34.5t-58 -78.5t-30.5 -96l-53 -259h-66z" />
    <glyph glyph-name="n" unicode="n" 
d="M28 0l88 429q10 57 12 81h63q-5 -56 -11 -77h2q26 40 70.5 64.5t91.5 24.5q71 0 115.5 -39t44.5 -109q0 -36 -15 -105l-57 -269h-66l58 281q11 52 11 89q0 46 -25.5 72t-72.5 26q-77 0 -125 -64t-68 -162l-50 -242h-66z" />
    <glyph glyph-name="o" unicode="o" 
d="M39 210q0 132 78.5 222t205.5 90q96 0 149.5 -59t53.5 -160q0 -132 -77.5 -223.5t-205.5 -91.5q-93 0 -148.5 62.5t-55.5 159.5zM108 200q0 -68 39 -113t104 -45q63 0 111.5 40.5t71.5 99t23 120.5q0 76 -35.5 121t-106.5 45q-99 0 -153 -80.5t-54 -187.5z" />
    <glyph glyph-name="p" unicode="p" 
d="M-18 -210l125 601q15 71 20 119h63q-2 -34 -11 -76h2q26 41 70.5 64.5t96.5 23.5q84 0 129.5 -58t45.5 -148q0 -82 -28 -155t-88.5 -123t-142.5 -50q-55 0 -95.5 29.5t-56.5 81.5h-2l-62 -309h-66zM136 204q0 -66 33 -114t95 -48t107 45t64 105.5t19 123.5
q0 68 -30.5 110t-93.5 42q-57 0 -103 -44t-68.5 -103.5t-22.5 -116.5z" />
    <glyph glyph-name="q" unicode="q" 
d="M320 -210l64 276h-2q-31 -39 -70.5 -58.5t-100.5 -19.5q-81 0 -126.5 59t-45.5 147q0 83 28.5 156.5t89 122.5t142.5 49q61 0 102 -32t52 -84h2q3 20 12.5 55.5t12.5 48.5h66q-8 -26 -28 -104l-132 -616h-66zM108 194q0 -68 31 -110t94 -42q88 0 142 82.5t54 181.5
q0 67 -34 114.5t-96 47.5t-107 -45t-64.5 -105.5t-19.5 -123.5z" />
    <glyph glyph-name="r" unicode="r" horiz-adv-x="333" 
d="M28 0l86 419q10 48 14 91h63q-5 -56 -11 -77h2q57 89 142 89q15 0 55 -7l-15 -67q-19 8 -54 8q-121 0 -163 -205l-52 -251h-67z" />
    <glyph glyph-name="s" unicode="s" horiz-adv-x="389" 
d="M-14 16l19 63q61 -37 121 -37q35 0 65 8.5t54.5 32.5t24.5 61q0 30 -20.5 54t-50 40.5t-59.5 33.5t-50.5 44.5t-20.5 63.5q0 69 58.5 105.5t130.5 36.5q69 0 131 -25l-21 -59q-52 30 -113 30q-29 0 -54 -6.5t-45.5 -27t-20.5 -53.5q0 -29 32 -54.5t70 -44t70 -53.5
t32 -81q0 -55 -31.5 -92.5t-76 -52.5t-97.5 -15q-79 0 -148 28z" />
    <glyph glyph-name="t" unicode="t" horiz-adv-x="333" 
d="M175 510l24 114l72 25l-31 -139h133l-13 -54h-131l-54 -252q-15 -73 -15 -100q0 -62 58 -62q29 0 54 14l-6 -54q-30 -14 -64 -14q-52 0 -81.5 26.5t-29.5 68.5q0 46 23 147l49 226h-102l14 54h100z" />
    <glyph glyph-name="u" unicode="u" 
d="M533 510l-88 -429q-10 -57 -12 -81h-63q5 56 11 77h-2q-26 -40 -70.5 -64.5t-91.5 -24.5q-71 0 -115.5 39t-44.5 109q0 36 15 105l57 269h66l-58 -281q-11 -52 -11 -89q0 -46 25.5 -72t72.5 -26q77 0 125 64t68 162l50 242h66z" />
    <glyph glyph-name="v" unicode="v" horiz-adv-x="444" 
d="M494 510l-285 -510h-76l-68 510h64l57 -441h2l235 441h71z" />
    <glyph glyph-name="w" unicode="w" horiz-adv-x="778" 
d="M118 0l-53 510h65l38 -441h2l240 441h75l49 -441h2l221 441h71l-265 -510h-77l-52 441h-2l-239 -441h-75z" />
    <glyph glyph-name="x" unicode="x" horiz-adv-x="444" 
d="M-41 0l234 269l-115 241h69l89 -190l162 190h80l-212 -241l121 -269h-72l-93 216l-186 -216h-77z" />
    <glyph glyph-name="y" unicode="y" horiz-adv-x="444" 
d="M492 510l-353 -630q-25 -48 -56.5 -72t-80.5 -24q-37 0 -61 14l15 54q14 -14 41 -14q59 0 97 80l43 81l-72 511h66l52 -439h2l239 439h68z" />
    <glyph glyph-name="z" unicode="z" horiz-adv-x="444" 
d="M-20 0l12 58l380 398h-289l12 54h373l-12 -59l-385 -397h306l-10 -54h-387z" />
    <glyph glyph-name="braceleft" unicode="{" horiz-adv-x="278" 
d="M390 756l-10 -48h-33q-57 0 -76 -93l-34 -165q-13 -63 -49 -98.5t-64 -42.5v-2q20 -6 39.5 -30.5t19.5 -69.5q0 -16 -5 -43l-33 -162q-6 -27 -6 -49q0 -45 30 -45h46l-10 -48h-50q-35 0 -57 22t-22 61q0 25 3 39l35 170q6 27 6 50q0 82 -62 82l10 48q42 0 70.5 37.5
t41.5 97.5l34 168q12 56 47.5 88.5t79.5 32.5h49z" />
    <glyph glyph-name="bar" unicode="|" horiz-adv-x="222" 
d="M101 750h69v-1000h-69v1000z" />
    <glyph glyph-name="braceright" unicode="}" horiz-adv-x="278" 
d="M-61 -140l10 48h33q57 0 76 93l34 165q13 63 49 98.5t64 42.5v2q-20 6 -39.5 30.5t-19.5 69.5q0 16 5 43l33 162q6 27 6 49q0 45 -30 45h-46l10 48h50q35 0 57 -22t22 -61q0 -25 -3 -39l-35 -170q-6 -27 -6 -50q0 -82 62 -82l-10 -48q-42 0 -70.5 -37.5t-41.5 -97.5
l-34 -168q-12 -56 -47.5 -88.5t-79.5 -32.5h-49z" />
    <glyph glyph-name="asciitilde" unicode="~" horiz-adv-x="600" 
d="M495 324l36 -51q-48 -91 -125 -91q-42 0 -114 37q-76 36 -99 36q-19 0 -36 -12t-27 -25t-25 -36l-36 51q48 91 125 91q40 0 114 -36q74 -37 99 -37q19 0 36 12t27 25t25 36z" />
    <glyph glyph-name="uni00A0" unicode="&#xa0;" horiz-adv-x="278" 
 />
    <glyph glyph-name="exclamdown" unicode="&#xa1;" horiz-adv-x="389" 
d="M55 -188l124 529h60l-100 -529h-84zM287 510l-17 -84h-82l18 84h81z" />
    <glyph glyph-name="cent" unicode="&#xa2;" 
d="M248 56l129 412h-5q-105 0 -164 -68t-59 -174q0 -59 27 -104.5t72 -65.5zM428 630h41l-35 -113q47 -5 74 -15l-18 -57q-23 12 -73 19l-132 -419q12 -3 29 -3q38 0 108 24l-8 -63q-45 -15 -116 -15q-10 0 -30 2l-40 -127h-41l43 135q-72 23 -111 86.5t-39 136.5
q0 138 77 219.5t222 81.5q10 0 15 -1z" />
    <glyph glyph-name="sterling" unicode="&#xa3;" 
d="M20 0l13 60h101l61 287h-90l11 54h89l13 56q10 45 22 79.5t32 67.5t46.5 54.5t65 34t87.5 12.5q79 0 125 -26l-20 -58q-48 24 -107 24q-45 0 -77.5 -15t-53 -45t-32 -61t-21.5 -75l-11 -48h171l-11 -54h-169l-61 -287h252l-13 -60h-423z" />
    <glyph glyph-name="currency" unicode="&#xa4;" 
d="M47 142l56 57q-52 64 -52 150q0 93 52 152l-56 55l45 45l56 -57q62 53 151 53t150 -53l56 57l46 -45l-55 -55q51 -58 51 -152q0 -89 -51 -150l55 -57l-46 -45l-56 59q-56 -55 -150 -55q-92 0 -151 55l-56 -59zM120 349q0 -76 52.5 -132t126.5 -56q76 0 127.5 56.5
t51.5 131.5t-52 132t-127 56q-75 1 -127 -55t-52 -133z" />
    <glyph glyph-name="yen" unicode="&#xa5;" 
d="M189 0l37 175h-137l11 48h136l18 81h-144l12 48h110l-139 346h69l134 -346l285 346h79l-295 -346h123l-14 -48h-153l-18 -81h157l-11 -48h-157l-39 -175h-64z" />
    <glyph glyph-name="brokenbar" unicode="&#xa6;" horiz-adv-x="222" 
d="M101 675h69v-350h-69v350zM101 175h69v-350h-69v350z" />
    <glyph glyph-name="section" unicode="&#xa7;" 
d="M523 674l-23 -53q-70 35 -129 35q-61 0 -95.5 -25.5t-34.5 -75.5q0 -30 24.5 -52t59.5 -37t70 -32t59.5 -46t24.5 -68q0 -90 -126 -166q63 -38 63 -113q0 -72 -63.5 -116.5t-144.5 -44.5q-58 0 -91 8.5t-90 32.5l19 59q73 -46 154 -46q62 0 104.5 26t42.5 80
q0 31 -18 53.5t-45 34.5t-59 27t-59 30t-45 44.5t-18 69.5q0 55 38.5 94.5t96.5 60.5q-66 35 -66 109q0 69 55 108t137 39q89 0 159 -36zM416 313q0 29 -24.5 50t-66.5 40.5t-53 27.5q-4 -3 -27 -18.5t-31 -22t-22.5 -21.5t-20 -30t-5.5 -33q0 -21 9 -38.5t27 -30.5
t33.5 -22t40.5 -20t37 -18q103 77 103 136z" />
    <glyph glyph-name="dieresis" unicode="&#xa8;" horiz-adv-x="222" 
d="M50 606l16 84h77l-16 -84h-77zM225 606l16 84h77l-16 -84h-77z" />
    <glyph glyph-name="copyright" unicode="&#xa9;" horiz-adv-x="800" 
d="M131 349q0 -130 84 -218.5t209 -88.5q124 0 207.5 88.5t83.5 218.5t-83.5 218.5t-207.5 88.5q-125 0 -209 -88.5t-84 -218.5zM553 280h61q-15 -72 -63.5 -114t-114.5 -42q-97 0 -156.5 64t-59.5 161q0 100 57.5 163t155.5 63q71 0 120.5 -39.5t59.5 -111.5h-60
q-9 44 -40.5 70.5t-78.5 26.5q-69 0 -107 -47.5t-38 -123.5q0 -72 40.5 -122t106.5 -50q47 0 78 28t39 74zM62 349q0 149 106 255t255 106t255 -106t106 -255t-106 -255t-255 -106t-255 106t-106 255z" />
    <glyph glyph-name="ordfeminine" unicode="&#xaa;" horiz-adv-x="325" 
d="M138 636l5 48q55 26 100 26q52 0 84.5 -26.5t32.5 -76.5q0 -23 -30 -134q-3 -10 -12 -77h-45q4 38 7 46h-2q-39 -54 -113 -54q-41 0 -71 25t-30 65q0 112 198 112h45q2 0 2 18q0 29 -20 44.5t-53 15.5q-38 0 -98 -32zM115 479q0 -22 19 -35.5t45 -13.5q53 0 83 34.5
t38 83.5h-40q-145 0 -145 -69z" />
    <glyph glyph-name="guillemotleft" unicode="&#xab;" horiz-adv-x="500" 
d="M368 64l-153 205l190 205h72l-196 -205l153 -205h-66zM185 64l-153 205l190 205h72l-196 -205l153 -205h-66z" />
    <glyph glyph-name="logicalnot" unicode="&#xac;" horiz-adv-x="600" 
d="M61 319v69h507v-274h-69v205h-438z" />
    <glyph glyph-name="uni00AD" unicode="&#xad;" horiz-adv-x="333" 
d="M39 235l11 69h255l-11 -69h-255z" />
    <glyph glyph-name="registered" unicode="&#xae;" horiz-adv-x="800" 
d="M62 349q0 149 106 255t255 106t255 -106t106 -255t-106 -255t-255 -106t-255 106t-106 255zM131 349q0 -130 84 -218.5t209 -88.5q124 0 207.5 88.5t83.5 218.5t-83.5 218.5t-207.5 88.5q-125 0 -209 -88.5t-84 -218.5zM285 138v423h162q145 0 145 -119q0 -52 -30 -84.5
t-79 -32.5l120 -187h-73l-118 187h-58v-187h-69zM354 507v-128h82q44 0 65.5 13.5t21.5 52.5q0 62 -87 62h-82z" />
    <glyph glyph-name="macron" unicode="&#xaf;" horiz-adv-x="222" 
d="M310 676l-11 -54h-257l11 54h257z" />
    <glyph glyph-name="degree" unicode="&#xb0;" horiz-adv-x="400" 
d="M260 657q-47 0 -77 -27.5t-30 -73.5q0 -42 32.5 -71.5t74.5 -29.5t74.5 29.5t32.5 71.5q0 46 -30 73.5t-77 27.5zM260 705q65 0 111.5 -42t46.5 -107t-46.5 -107t-111.5 -42t-111.5 42t-46.5 107t46.5 107t111.5 42z" />
    <glyph glyph-name="plusminus" unicode="&#xb1;" horiz-adv-x="600" 
d="M61 269v69h219v169h69v-169h219v-69h-219v-169h-69v169h-219zM61 0v69h507v-69h-507z" />
    <glyph glyph-name="twosuperior" unicode="&#xb2;" horiz-adv-x="361" 
d="M44 284l11 36l157 128q84 68 108 105q15 24 15 42q0 32 -23.5 47t-55.5 15q-60 0 -114 -38l3 53q59 33 117 33q55 0 92.5 -27.5t37.5 -82.5q0 -68 -114 -156l-135 -105v-2h187l-9 -48h-277z" />
    <glyph glyph-name="threesuperior" unicode="&#xb3;" horiz-adv-x="361" 
d="M122 476l10 48q180 0 180 75q0 27 -30 42.5t-63 15.5q-60 0 -111 -25l5 53q44 20 107 20q38 0 68.5 -7.5t55.5 -32.5t25 -66q0 -44 -36.5 -68t-87.5 -27v-2q38 -5 59.5 -30.5t21.5 -63.5q0 -44 -33 -75.5t-74.5 -43.5t-84.5 -12q-60 0 -120 17l12 50q43 -19 109 -19
q48 0 91 22.5t43 63.5q0 16 -6 28t-20.5 19t-24 11t-33.5 5.5t-31 1.5h-32z" />
    <glyph glyph-name="acute" unicode="&#xb4;" horiz-adv-x="222" 
d="M119 578l85 144h79l-117 -144h-47z" />
    <glyph glyph-name="mu" unicode="&#xb5;" 
d="M-29 -210l158 720h66l-58 -281q-11 -52 -11 -89q0 -46 25.5 -72t72.5 -26q77 0 125 64t68 162l50 242h66l-88 -429q-10 -57 -12 -81h-63q5 56 11 77h-2q-26 -40 -70.5 -64.5t-91.5 -24.5q-88 0 -127 50l-53 -248h-66z" />
    <glyph glyph-name="paragraph" unicode="&#xb6;" horiz-adv-x="600" 
d="M196 -108l87 428q-80 0 -138 49.5t-58 126.5q0 86 64.5 144t180.5 58h288l-165 -806h-63l154 752h-133l-154 -752h-63z" />
    <glyph glyph-name="periodcentered" unicode="&#xb7;" horiz-adv-x="278" 
d="M111 310q0 20 14.5 34.5t34.5 14.5t35 -14.5t15 -34.5t-15 -35t-35 -15t-34.5 15t-14.5 35z" />
    <glyph glyph-name="cedilla" unicode="&#xb8;" horiz-adv-x="222" 
d="M-15 -158l7 31q39 -28 88 -28q21 0 37.5 11t16.5 35q0 17 -12.5 26.5t-27.5 9.5q-26 0 -41 -7l38 80h32l-24 -47v-2q11 6 32 6q29 0 47.5 -16.5t18.5 -46.5q0 -41 -33 -60t-77 -19q-48 0 -102 27z" />
    <glyph glyph-name="onesuperior" unicode="&#xb9;" horiz-adv-x="361" 
d="M166 284l85 366l-86 -56l-21 34l122 77h53l-96 -421h-57z" />
    <glyph glyph-name="ordmasculine" unicode="&#xba;" horiz-adv-x="361" 
d="M80 524q0 75 54 130.5t136 55.5q62 0 100 -37.5t38 -94.5q0 -76 -53.5 -133t-136.5 -57q-60 0 -99 40t-39 96zM131 518q0 -36 25.5 -62t67.5 -26q59 0 96 46.5t37 100.5q0 40 -23 65.5t-69 25.5q-64 0 -99 -46t-35 -104z" />
    <glyph glyph-name="guillemotright" unicode="&#xbb;" horiz-adv-x="500" 
d="M132 474l153 -205l-190 -205h-72l196 205l-153 205h66zM315 474l153 -205l-190 -205h-72l196 205l-153 205h66z" />
    <glyph glyph-name="onequarter" unicode="&#xbc;" horiz-adv-x="834" 
d="M612 0l21 91h-225l7 45l273 285h79l-66 -282h52l-10 -48h-52l-22 -91h-57zM646 139l53 227h-2l-216 -227h165zM125 -22l445 742h57l-445 -742h-57zM120 284l85 366l-86 -56l-21 34l122 77h53l-96 -421h-57z" />
    <glyph glyph-name="onehalf" unicode="&#xbd;" horiz-adv-x="834" 
d="M103 -22l445 742h57l-445 -742h-57zM136 284l85 366l-86 -56l-21 34l122 77h53l-96 -421h-57zM427 0l11 36l157 128q84 68 108 105q15 24 15 42q0 32 -23.5 47t-55.5 15q-60 0 -114 -38l3 53q59 33 117 33q55 0 92.5 -27.5t37.5 -82.5q0 -68 -114 -156l-135 -105v-2h187
l-9 -48h-277z" />
    <glyph glyph-name="threequarters" unicode="&#xbe;" horiz-adv-x="834" 
d="M652 0l21 91h-225l7 45l273 285h79l-66 -282h52l-10 -48h-52l-22 -91h-57zM686 139l53 227h-2l-216 -227h165zM205 -22l445 742h57l-445 -742h-57zM135 476l10 48q180 0 180 75q0 27 -30 42.5t-63 15.5q-60 0 -111 -25l5 53q44 20 107 20q38 0 68.5 -7.5t55.5 -32.5
t25 -66q0 -44 -36.5 -68t-87.5 -27v-2q38 -5 59.5 -30.5t21.5 -63.5q0 -44 -33 -75.5t-74.5 -43.5t-84.5 -12q-60 0 -120 17l12 50q43 -19 109 -19q48 0 91 22.5t43 63.5q0 16 -6 28t-20.5 19t-24 11t-33.5 5.5t-31 1.5h-32z" />
    <glyph glyph-name="questiondown" unicode="&#xbf;" horiz-adv-x="500" 
d="M356 -114l-11 -64q-80 -22 -123 -22q-81 0 -135.5 40.5t-54.5 120.5q0 54 29.5 94t84.5 85q2 2 26 21.5t31.5 26.5t27 25.5t28 31t18.5 30t13 34.5l7 32h58l-8 -39q-11 -54 -48.5 -97.5t-98.5 -92.5q-33 -27 -50 -43t-33 -45.5t-16 -62.5q0 -51 41 -76t93 -25
q64 0 121 26zM396 510l-16 -84h-83l17 84h82z" />
    <glyph glyph-name="Agrave" unicode="&#xc0;" horiz-adv-x="667" 
d="M493 247l-73 382l-236 -382h309zM-42 0l433 698h82l136 -698h-70l-35 187h-357l-115 -187h-74zM409 883l85 -144h-42l-122 144h79z" />
    <glyph glyph-name="Aacute" unicode="&#xc1;" horiz-adv-x="667" 
d="M493 247l-73 382l-236 -382h309zM-42 0l433 698h82l136 -698h-70l-35 187h-357l-115 -187h-74zM390 739l85 144h79l-117 -144h-47z" />
    <glyph glyph-name="Acircumflex" unicode="&#xc2;" horiz-adv-x="667" 
d="M493 247l-73 382l-236 -382h309zM-42 0l433 698h82l136 -698h-70l-35 187h-357l-115 -187h-74zM303 739l117 144h76l75 -144h-44l-72 102l-108 -102h-44z" />
    <glyph glyph-name="Atilde" unicode="&#xc3;" horiz-adv-x="667" 
d="M493 247l-73 382l-236 -382h309zM-42 0l433 698h82l136 -698h-70l-35 187h-357l-115 -187h-74zM538 854h36q0 -36 -23.5 -63.5t-58.5 -27.5q-18 0 -57 15q-36 14 -55 14q-32 0 -38 -37h-36q0 36 23.5 63.5t58.5 27.5q26 0 57 -14q34 -15 55 -15q33 0 38 37z" />
    <glyph glyph-name="Adieresis" unicode="&#xc4;" horiz-adv-x="667" 
d="M493 247l-73 382l-236 -382h309zM-42 0l433 698h82l136 -698h-70l-35 187h-357l-115 -187h-74zM321 767l16 84h77l-16 -84h-77zM496 767l16 84h77l-16 -84h-77z" />
    <glyph glyph-name="Aring" unicode="&#xc5;" horiz-adv-x="667" 
d="M493 247l-73 382l-236 -382h309zM-42 0l433 698h82l136 -698h-70l-35 187h-357l-115 -187h-74zM350 818q0 40 30 69.5t70 29.5t69.5 -29.5t29.5 -69.5q0 -41 -29 -70.5t-70 -29.5q-40 0 -70 30t-30 70zM386 818q0 -27 17.5 -45.5t46.5 -18.5q28 0 45.5 19t17.5 45
q0 27 -17.5 45t-45.5 18q-29 0 -46.5 -18t-17.5 -45z" />
    <glyph glyph-name="AE" unicode="&#xc6;" horiz-adv-x="889" 
d="M-42 0l528 698h428l-12 -60h-306l-28 -249h264l-13 -60h-258l-35 -269h265l-14 -60h-327l24 187h-293l-143 -187h-80zM481 247l50 397h-2l-304 -397h256z" />
    <glyph glyph-name="Ccedilla" unicode="&#xc7;" horiz-adv-x="611" 
d="M677 674l-24 -58q-64 34 -168 34q-151 0 -246.5 -102t-95.5 -255q0 -103 72.5 -174t181.5 -71q25 0 44 1t35 4t24.5 5t24 6.5t21.5 6.5l-8 -61q-1 0 -16.5 -5t-23 -6.5t-23.5 -5t-34 -4.5t-39 -1q-22 0 -41 3l-19 -38v-2q11 6 32 6q29 0 47.5 -16.5t18.5 -46.5
q0 -41 -33 -60t-77 -19q-48 0 -102 27l7 31q39 -28 88 -28q21 0 37.5 11t16.5 35q0 17 -12.5 26.5t-27.5 9.5q-26 0 -41 -7l36 76q-114 19 -186 99t-72 199q0 183 117 299.5t298 116.5q111 0 188 -36z" />
    <glyph glyph-name="Egrave" unicode="&#xc8;" horiz-adv-x="500" 
d="M37 0l144 698h344l-11 -60h-277l-51 -249h261l-11 -60h-262l-56 -269h287l-10 -60h-358zM325 883l85 -144h-42l-122 144h79z" />
    <glyph glyph-name="Eacute" unicode="&#xc9;" horiz-adv-x="500" 
d="M37 0l144 698h344l-11 -60h-277l-51 -249h261l-11 -60h-262l-56 -269h287l-10 -60h-358zM306 739l85 144h79l-117 -144h-47z" />
    <glyph glyph-name="Ecircumflex" unicode="&#xca;" horiz-adv-x="500" 
d="M37 0l144 698h344l-11 -60h-277l-51 -249h261l-11 -60h-262l-56 -269h287l-10 -60h-358zM219 739l117 144h76l75 -144h-44l-72 102l-108 -102h-44z" />
    <glyph glyph-name="Edieresis" unicode="&#xcb;" horiz-adv-x="500" 
d="M37 0l144 698h344l-11 -60h-277l-51 -249h261l-11 -60h-262l-56 -269h287l-10 -60h-358zM237 767l16 84h77l-16 -84h-77zM412 767l16 84h77l-16 -84h-77z" />
    <glyph glyph-name="Igrave" unicode="&#xcc;" horiz-adv-x="222" 
d="M28 0l148 698h69l-148 -698h-69zM186 883l85 -144h-42l-122 144h79z" />
    <glyph glyph-name="Iacute" unicode="&#xcd;" horiz-adv-x="222" 
d="M28 0l148 698h69l-148 -698h-69zM167 739l85 144h79l-117 -144h-47z" />
    <glyph glyph-name="Icircumflex" unicode="&#xce;" horiz-adv-x="222" 
d="M28 0l148 698h69l-148 -698h-69zM80 739l117 144h76l75 -144h-44l-72 102l-108 -102h-44z" />
    <glyph glyph-name="Idieresis" unicode="&#xcf;" horiz-adv-x="222" 
d="M28 0l148 698h69l-148 -698h-69zM98 767l16 84h77l-16 -84h-77zM273 767l16 84h77l-16 -84h-77z" />
    <glyph glyph-name="Eth" unicode="&#xd0;" horiz-adv-x="667" 
d="M37 0l70 329h-67l12 60h68l65 309h124q74 0 132.5 -14.5t106.5 -45.5t74 -87t26 -133q0 -190 -106 -304t-294 -114h-211zM243 638l-53 -249h194l-14 -60h-193l-58 -269h123q158 0 247.5 94.5t89.5 263.5q0 113 -66 166.5t-183 53.5h-87z" />
    <glyph glyph-name="Ntilde" unicode="&#xd1;" horiz-adv-x="667" 
d="M28 0l151 698h82l233 -614h2l130 614h63l-148 -698h-82l-233 614h-2l-132 -614h-64zM538 854h36q0 -36 -23.5 -63.5t-58.5 -27.5q-18 0 -57 15q-36 14 -55 14q-32 0 -38 -37h-36q0 36 23.5 63.5t58.5 27.5q26 0 57 -14q34 -15 55 -15q33 0 38 37z" />
    <glyph glyph-name="Ograve" unicode="&#xd2;" horiz-adv-x="722" 
d="M67 273q0 113 43.5 211.5t129.5 162t198 63.5q126 0 195 -77.5t69 -207.5q0 -113 -43.5 -211.5t-129.5 -162t-198 -63.5q-126 0 -195 77.5t-69 207.5zM136 279q0 -102 50.5 -166.5t146.5 -64.5q89 0 159.5 57.5t105.5 141t35 172.5q0 102 -50.5 166.5t-146.5 64.5
q-89 0 -159.5 -57.5t-105.5 -141t-35 -172.5zM436 892l85 -144h-42l-122 144h79z" />
    <glyph glyph-name="Oacute" unicode="&#xd3;" horiz-adv-x="722" 
d="M67 273q0 113 43.5 211.5t129.5 162t198 63.5q126 0 195 -77.5t69 -207.5q0 -113 -43.5 -211.5t-129.5 -162t-198 -63.5q-126 0 -195 77.5t-69 207.5zM136 279q0 -102 50.5 -166.5t146.5 -64.5q89 0 159.5 57.5t105.5 141t35 172.5q0 102 -50.5 166.5t-146.5 64.5
q-89 0 -159.5 -57.5t-105.5 -141t-35 -172.5zM417 748l85 144h79l-117 -144h-47z" />
    <glyph glyph-name="Ocircumflex" unicode="&#xd4;" horiz-adv-x="722" 
d="M67 273q0 113 43.5 211.5t129.5 162t198 63.5q126 0 195 -77.5t69 -207.5q0 -113 -43.5 -211.5t-129.5 -162t-198 -63.5q-126 0 -195 77.5t-69 207.5zM136 279q0 -102 50.5 -166.5t146.5 -64.5q89 0 159.5 57.5t105.5 141t35 172.5q0 102 -50.5 166.5t-146.5 64.5
q-89 0 -159.5 -57.5t-105.5 -141t-35 -172.5zM330 748l117 144h76l75 -144h-44l-72 102l-108 -102h-44z" />
    <glyph glyph-name="Otilde" unicode="&#xd5;" horiz-adv-x="722" 
d="M67 273q0 113 43.5 211.5t129.5 162t198 63.5q126 0 195 -77.5t69 -207.5q0 -113 -43.5 -211.5t-129.5 -162t-198 -63.5q-126 0 -195 77.5t-69 207.5zM136 279q0 -102 50.5 -166.5t146.5 -64.5q89 0 159.5 57.5t105.5 141t35 172.5q0 102 -50.5 166.5t-146.5 64.5
q-89 0 -159.5 -57.5t-105.5 -141t-35 -172.5zM565 863h36q0 -36 -23.5 -63.5t-58.5 -27.5q-18 0 -57 15q-36 14 -55 14q-32 0 -38 -37h-36q0 36 23.5 63.5t58.5 27.5q25 0 57 -14q34 -15 55 -15q33 0 38 37z" />
    <glyph glyph-name="Odieresis" unicode="&#xd6;" horiz-adv-x="722" 
d="M67 273q0 113 43.5 211.5t129.5 162t198 63.5q126 0 195 -77.5t69 -207.5q0 -113 -43.5 -211.5t-129.5 -162t-198 -63.5q-126 0 -195 77.5t-69 207.5zM136 279q0 -102 50.5 -166.5t146.5 -64.5q89 0 159.5 57.5t105.5 141t35 172.5q0 102 -50.5 166.5t-146.5 64.5
q-89 0 -159.5 -57.5t-105.5 -141t-35 -172.5zM348 776l16 84h77l-16 -84h-77zM523 776l16 84h77l-16 -84h-77z" />
    <glyph glyph-name="multiply" unicode="&#xd7;" horiz-adv-x="600" 
d="M267 257l-181 180l49 49l181 -181l179 181l50 -49l-180 -180l180 -181l-50 -50l-179 182l-181 -182l-49 50z" />
    <glyph glyph-name="Oslash" unicode="&#xd8;" horiz-adv-x="722" 
d="M161 156l424 425q-53 69 -149 69q-89 0 -159.5 -57.5t-105.5 -141t-35 -172.5q0 -73 25 -123zM608 542l-424 -425q51 -69 149 -69q89 0 159.5 57.5t105.5 141t35 172.5q0 70 -25 123zM716 712l33 -29l-88 -88q41 -68 41 -170q0 -113 -43.5 -211.5t-129.5 -162t-198 -63.5
q-126 0 -197 79l-81 -81l-33 29l88 88q-41 68 -41 170q0 113 43.5 211.5t129.5 162t198 63.5q126 0 197 -79z" />
    <glyph glyph-name="Ugrave" unicode="&#xd9;" horiz-adv-x="667" 
d="M687 698l-93 -432q-20 -127 -92.5 -202.5t-189.5 -75.5q-103 0 -166.5 58t-63.5 162q0 66 40 239l55 251h66l-71 -340q-21 -108 -21 -147q0 -76 43 -119.5t117 -43.5q85 0 138.5 54t72.5 141l101 455h64zM409 883l85 -144h-42l-122 144h79z" />
    <glyph glyph-name="Uacute" unicode="&#xda;" horiz-adv-x="667" 
d="M687 698l-93 -432q-20 -127 -92.5 -202.5t-189.5 -75.5q-103 0 -166.5 58t-63.5 162q0 66 40 239l55 251h66l-71 -340q-21 -108 -21 -147q0 -76 43 -119.5t117 -43.5q85 0 138.5 54t72.5 141l101 455h64zM390 739l85 144h79l-117 -144h-47z" />
    <glyph glyph-name="Ucircumflex" unicode="&#xdb;" horiz-adv-x="667" 
d="M687 698l-93 -432q-20 -127 -92.5 -202.5t-189.5 -75.5q-103 0 -166.5 58t-63.5 162q0 66 40 239l55 251h66l-71 -340q-21 -108 -21 -147q0 -76 43 -119.5t117 -43.5q85 0 138.5 54t72.5 141l101 455h64zM303 739l117 144h76l75 -144h-44l-72 102l-108 -102h-44z" />
    <glyph glyph-name="Udieresis" unicode="&#xdc;" horiz-adv-x="667" 
d="M687 698l-93 -432q-20 -127 -92.5 -202.5t-189.5 -75.5q-103 0 -166.5 58t-63.5 162q0 66 40 239l55 251h66l-71 -340q-21 -108 -21 -147q0 -76 43 -119.5t117 -43.5q85 0 138.5 54t72.5 141l101 455h64zM303 767l16 84h77l-16 -84h-77zM478 767l16 84h77l-16 -84h-77z
" />
    <glyph glyph-name="Yacute" unicode="&#xdd;" horiz-adv-x="611" 
d="M220 0l63 295l-177 403h73l147 -346l294 346h83l-353 -403l-63 -295h-67zM362 739l85 144h79l-117 -144h-47z" />
    <glyph glyph-name="Thorn" unicode="&#xde;" horiz-adv-x="500" 
d="M216 508l-59 -276h78q89 0 149 39t60 122q0 66 -42 90.5t-113 24.5h-73zM37 0l150 698h69l-28 -130h50q53 0 92 -7t73.5 -25t52 -54t17.5 -89q0 -106 -80 -163.5t-191 -57.5h-99l-37 -172h-69z" />
    <glyph glyph-name="germandbls" unicode="&#xdf;" 
d="M273 367l9 54q84 0 140.5 42t56.5 122q0 56 -30 89.5t-84 33.5q-62 0 -100 -53.5t-54 -126.5l-111 -528h-66l107 509q28 136 81 194.5t147 58.5q82 0 130.5 -44t48.5 -128q0 -77 -50.5 -132.5t-127.5 -59.5v-2q66 -7 103 -48.5t37 -104.5q0 -113 -66 -181.5t-174 -68.5
q-67 0 -110 17l18 59q37 -22 90 -22q80 0 126.5 53t46.5 134q0 133 -168 133z" />
    <glyph glyph-name="agrave" unicode="&#xe0;" horiz-adv-x="500" 
d="M436 259l-27 -138q-16 -61 -19 -121h-63q7 61 10 75h-2q-58 -87 -174 -87q-60 0 -103 40.5t-43 102.5q0 53 27 90.5t73.5 56t93 26t99.5 7.5q29 0 69 -4q3 23 3 51q0 53 -28.5 81.5t-80.5 28.5q-63 0 -151 -44l7 64q82 34 154 34q82 0 125 -43t43 -123q0 -39 -13 -97z
M84 132q0 -42 29 -66t70 -24q82 0 128 61t58 152q-11 0 -31 1t-31 1q-223 0 -223 -125zM277 722l85 -144h-42l-122 144h79z" />
    <glyph glyph-name="aacute" unicode="&#xe1;" horiz-adv-x="500" 
d="M436 259l-27 -138q-16 -61 -19 -121h-63q7 61 10 75h-2q-58 -87 -174 -87q-60 0 -103 40.5t-43 102.5q0 53 27 90.5t73.5 56t93 26t99.5 7.5q29 0 69 -4q3 23 3 51q0 53 -28.5 81.5t-80.5 28.5q-63 0 -151 -44l7 64q82 34 154 34q82 0 125 -43t43 -123q0 -39 -13 -97z
M84 132q0 -42 29 -66t70 -24q82 0 128 61t58 152q-11 0 -31 1t-31 1q-223 0 -223 -125zM258 578l85 144h79l-117 -144h-47z" />
    <glyph glyph-name="acircumflex" unicode="&#xe2;" horiz-adv-x="500" 
d="M436 259l-27 -138q-16 -61 -19 -121h-63q7 61 10 75h-2q-58 -87 -174 -87q-60 0 -103 40.5t-43 102.5q0 53 27 90.5t73.5 56t93 26t99.5 7.5q29 0 69 -4q3 23 3 51q0 53 -28.5 81.5t-80.5 28.5q-63 0 -151 -44l7 64q82 34 154 34q82 0 125 -43t43 -123q0 -39 -13 -97z
M84 132q0 -42 29 -66t70 -24q82 0 128 61t58 152q-11 0 -31 1t-31 1q-223 0 -223 -125zM171 578l117 144h76l75 -144h-44l-72 102l-108 -102h-44z" />
    <glyph glyph-name="atilde" unicode="&#xe3;" horiz-adv-x="500" 
d="M436 259l-27 -138q-16 -61 -19 -121h-63q7 61 10 75h-2q-58 -87 -174 -87q-60 0 -103 40.5t-43 102.5q0 53 27 90.5t73.5 56t93 26t99.5 7.5q29 0 69 -4q3 23 3 51q0 53 -28.5 81.5t-80.5 28.5q-63 0 -151 -44l7 64q82 34 154 34q82 0 125 -43t43 -123q0 -39 -13 -97z
M84 132q0 -42 29 -66t70 -24q82 0 128 61t58 152q-11 0 -31 1t-31 1q-223 0 -223 -125zM406 693h36q0 -36 -23.5 -63.5t-58.5 -27.5q-18 0 -57 15q-36 14 -55 14q-32 0 -38 -37h-36q0 36 23.5 63.5t58.5 27.5q26 0 57 -14q34 -15 55 -15q33 0 38 37z" />
    <glyph glyph-name="adieresis" unicode="&#xe4;" horiz-adv-x="500" 
d="M436 259l-27 -138q-16 -61 -19 -121h-63q7 61 10 75h-2q-58 -87 -174 -87q-60 0 -103 40.5t-43 102.5q0 53 27 90.5t73.5 56t93 26t99.5 7.5q29 0 69 -4q3 23 3 51q0 53 -28.5 81.5t-80.5 28.5q-63 0 -151 -44l7 64q82 34 154 34q82 0 125 -43t43 -123q0 -39 -13 -97z
M84 132q0 -42 29 -66t70 -24q82 0 128 61t58 152q-11 0 -31 1t-31 1q-223 0 -223 -125zM364 606l16 84h77l-16 -84h-77zM189 606l16 84h77l-16 -84h-77z" />
    <glyph glyph-name="aring" unicode="&#xe5;" horiz-adv-x="500" 
d="M436 259l-27 -138q-16 -61 -19 -121h-63q7 61 10 75h-2q-58 -87 -174 -87q-60 0 -103 40.5t-43 102.5q0 53 27 90.5t73.5 56t93 26t99.5 7.5q29 0 69 -4q3 23 3 51q0 53 -28.5 81.5t-80.5 28.5q-63 0 -151 -44l7 64q82 34 154 34q82 0 125 -43t43 -123q0 -39 -13 -97z
M84 132q0 -42 29 -66t70 -24q82 0 128 61t58 152q-11 0 -31 1t-31 1q-223 0 -223 -125zM188 660q0 40 30 69.5t70 29.5t69.5 -29.5t29.5 -69.5q0 -41 -29 -70.5t-70 -29.5q-40 0 -70 30t-30 70zM224 660q0 -27 17.5 -45.5t46.5 -18.5q28 0 45.5 19t17.5 45q0 27 -17.5 45
t-45.5 18q-29 0 -46.5 -18t-17.5 -45z" />
    <glyph glyph-name="ae" unicode="&#xe6;" horiz-adv-x="778" 
d="M758 237h-343q-4 -24 -4 -45q0 -60 36.5 -105t104.5 -45q63 0 127 26l-6 -60q-56 -20 -112 -20q-167 0 -199 134h-2q-17 -67 -66 -100.5t-119 -33.5q-67 0 -116 36.5t-49 98.5q0 79 67.5 123.5t198.5 44.5h81q3 48 3 51q3 59 -24 92.5t-78 33.5q-62 0 -136 -42l9 65
q72 31 141 31q54 0 93 -24.5t49 -77.5h3q24 50 72 76t105 26q86 0 129 -46t43 -129q0 -35 -8 -110zM79 131q0 -41 29 -65t69 -24q77 0 118.5 55t53.5 140h-47q-40 0 -75 -4.5t-70.5 -15t-56.5 -32.5t-21 -54zM424 291h274q5 25 5 55q0 122 -109 122q-75 0 -116 -49.5
t-54 -127.5z" />
    <glyph glyph-name="ccedilla" unicode="&#xe7;" horiz-adv-x="444" 
d="M467 502l-18 -57q-15 8 -52 15.5t-66 7.5q-105 0 -164 -68t-59 -174q0 -79 47 -131.5t118 -52.5q38 0 108 24l-8 -63q-45 -15 -116 -15h-7l-18 -35v-2q11 6 32 6q29 0 47.5 -16.5t18.5 -46.5q0 -41 -33 -60t-77 -19q-48 0 -102 27l7 31q39 -28 88 -28q21 0 37.5 11
t16.5 35q0 17 -12.5 26.5t-27.5 9.5q-26 0 -41 -7l34 72q-86 13 -133.5 80t-47.5 149q0 138 77 219.5t222 81.5q77 0 129 -20z" />
    <glyph glyph-name="egrave" unicode="&#xe8;" horiz-adv-x="500" 
d="M476 237h-371q-3 -19 -3 -41q0 -72 43 -113t112 -41t149 34l-5 -61q-74 -27 -152 -27q-93 0 -151.5 54.5t-58.5 153.5q0 134 72.5 230t191.5 96q88 0 134 -50.5t46 -139.5q0 -20 -7 -95zM116 291h301q0 3 1.5 17.5t1.5 21.5q0 138 -117 138q-71 0 -122.5 -52t-64.5 -125z
M277 722l85 -144h-42l-122 144h79z" />
    <glyph glyph-name="eacute" unicode="&#xe9;" horiz-adv-x="500" 
d="M476 237h-371q-3 -19 -3 -41q0 -72 43 -113t112 -41t149 34l-5 -61q-74 -27 -152 -27q-93 0 -151.5 54.5t-58.5 153.5q0 134 72.5 230t191.5 96q88 0 134 -50.5t46 -139.5q0 -20 -7 -95zM116 291h301q0 3 1.5 17.5t1.5 21.5q0 138 -117 138q-71 0 -122.5 -52t-64.5 -125z
M258 578l85 144h79l-117 -144h-47z" />
    <glyph glyph-name="ecircumflex" unicode="&#xea;" horiz-adv-x="500" 
d="M476 237h-371q-3 -19 -3 -41q0 -72 43 -113t112 -41t149 34l-5 -61q-74 -27 -152 -27q-93 0 -151.5 54.5t-58.5 153.5q0 134 72.5 230t191.5 96q88 0 134 -50.5t46 -139.5q0 -20 -7 -95zM116 291h301q0 3 1.5 17.5t1.5 21.5q0 138 -117 138q-71 0 -122.5 -52t-64.5 -125z
M171 578l117 144h76l75 -144h-44l-72 102l-108 -102h-44z" />
    <glyph glyph-name="edieresis" unicode="&#xeb;" horiz-adv-x="500" 
d="M476 237h-371q-3 -19 -3 -41q0 -72 43 -113t112 -41t149 34l-5 -61q-74 -27 -152 -27q-93 0 -151.5 54.5t-58.5 153.5q0 134 72.5 230t191.5 96q88 0 134 -50.5t46 -139.5q0 -20 -7 -95zM116 291h301q0 3 1.5 17.5t1.5 21.5q0 138 -117 138q-71 0 -122.5 -52t-64.5 -125z
M189 606l16 84h77l-16 -84h-77zM364 606l16 84h77l-16 -84h-77z" />
    <glyph glyph-name="igrave" unicode="&#xec;" horiz-adv-x="222" 
d="M28 0l108 510h66l-108 -510h-66zM138 722l85 -144h-42l-122 144h79z" />
    <glyph glyph-name="iacute" unicode="&#xed;" horiz-adv-x="222" 
d="M28 0l108 510h66l-108 -510h-66zM119 578l85 144h79l-117 -144h-47z" />
    <glyph glyph-name="icircumflex" unicode="&#xee;" horiz-adv-x="222" 
d="M28 0l108 510h66l-108 -510h-66zM32 578l117 144h76l75 -144h-44l-72 102l-108 -102h-44z" />
    <glyph glyph-name="idieresis" unicode="&#xef;" horiz-adv-x="222" 
d="M28 0l108 510h66l-108 -510h-66zM50 606l16 84h77l-16 -84h-77zM225 606l16 84h77l-16 -84h-77z" />
    <glyph glyph-name="eth" unicode="&#xf0;" 
d="M108 200q0 -68 39 -113t104 -45q63 0 111.5 40.5t71.5 99t23 120.5q0 76 -35.5 121t-106.5 45q-99 0 -153 -80.5t-54 -187.5zM200 614l108 59q-51 36 -105 51l26 38q77 -21 133 -59l108 59l32 -34l-101 -56q125 -115 125 -334q0 -158 -74 -254t-209 -96
q-93 0 -148.5 62.5t-55.5 159.5q0 132 78.5 222t205.5 90q49 -5 79 -21t49 -47h2q-21 112 -106 187l-113 -63z" />
    <glyph glyph-name="ntilde" unicode="&#xf1;" 
d="M28 0l88 429q10 57 12 81h63q-5 -56 -11 -77h2q26 40 70.5 64.5t91.5 24.5q71 0 115.5 -39t44.5 -109q0 -36 -15 -105l-57 -269h-66l58 281q11 52 11 89q0 46 -25.5 72t-72.5 26q-77 0 -125 -64t-68 -162l-50 -242h-66zM434 693h36q0 -36 -23.5 -63.5t-58.5 -27.5
q-18 0 -57 15q-36 14 -55 14q-32 0 -38 -37h-36q0 36 23.5 63.5t58.5 27.5q26 0 57 -14q34 -15 55 -15q33 0 38 37z" />
    <glyph glyph-name="ograve" unicode="&#xf2;" 
d="M39 210q0 132 78.5 222t205.5 90q96 0 149.5 -59t53.5 -160q0 -132 -77.5 -223.5t-205.5 -91.5q-93 0 -148.5 62.5t-55.5 159.5zM108 200q0 -68 39 -113t104 -45q63 0 111.5 40.5t71.5 99t23 120.5q0 76 -35.5 121t-106.5 45q-99 0 -153 -80.5t-54 -187.5zM305 722
l85 -144h-42l-122 144h79z" />
    <glyph glyph-name="oacute" unicode="&#xf3;" 
d="M39 210q0 132 78.5 222t205.5 90q96 0 149.5 -59t53.5 -160q0 -132 -77.5 -223.5t-205.5 -91.5q-93 0 -148.5 62.5t-55.5 159.5zM108 200q0 -68 39 -113t104 -45q63 0 111.5 40.5t71.5 99t23 120.5q0 76 -35.5 121t-106.5 45q-99 0 -153 -80.5t-54 -187.5zM286 578
l85 144h79l-117 -144h-47z" />
    <glyph glyph-name="ocircumflex" unicode="&#xf4;" 
d="M39 210q0 132 78.5 222t205.5 90q96 0 149.5 -59t53.5 -160q0 -132 -77.5 -223.5t-205.5 -91.5q-93 0 -148.5 62.5t-55.5 159.5zM108 200q0 -68 39 -113t104 -45q63 0 111.5 40.5t71.5 99t23 120.5q0 76 -35.5 121t-106.5 45q-99 0 -153 -80.5t-54 -187.5zM199 578
l117 144h76l75 -144h-44l-72 102l-108 -102h-44z" />
    <glyph glyph-name="otilde" unicode="&#xf5;" 
d="M39 210q0 132 78.5 222t205.5 90q96 0 149.5 -59t53.5 -160q0 -132 -77.5 -223.5t-205.5 -91.5q-93 0 -148.5 62.5t-55.5 159.5zM108 200q0 -68 39 -113t104 -45q63 0 111.5 40.5t71.5 99t23 120.5q0 76 -35.5 121t-106.5 45q-99 0 -153 -80.5t-54 -187.5zM434 693h36
q0 -36 -23.5 -63.5t-58.5 -27.5q-18 0 -57 15q-36 14 -55 14q-32 0 -38 -37h-36q0 36 23.5 63.5t58.5 27.5q26 0 57 -14q34 -15 55 -15q33 0 38 37z" />
    <glyph glyph-name="odieresis" unicode="&#xf6;" 
d="M39 210q0 132 78.5 222t205.5 90q96 0 149.5 -59t53.5 -160q0 -132 -77.5 -223.5t-205.5 -91.5q-93 0 -148.5 62.5t-55.5 159.5zM108 200q0 -68 39 -113t104 -45q63 0 111.5 40.5t71.5 99t23 120.5q0 76 -35.5 121t-106.5 45q-99 0 -153 -80.5t-54 -187.5zM217 606l16 84
h77l-16 -84h-77zM392 606l16 84h77l-16 -84h-77z" />
    <glyph glyph-name="divide" unicode="&#xf7;" horiz-adv-x="600" 
d="M61 219v69h507v-69h-507zM251 450q0 26 19 45t45 19q25 0 44.5 -19t19.5 -45q0 -24 -19.5 -44t-44.5 -20t-44.5 19t-19.5 45zM251 57q0 26 19 45t45 19q25 0 44.5 -19.5t19.5 -44.5q0 -24 -19.5 -44t-44.5 -20t-44.5 19.5t-19.5 44.5z" />
    <glyph glyph-name="oslash" unicode="&#xf8;" 
d="M126 119l296 302q-38 47 -107 47q-99 0 -153 -80.5t-54 -187.5q0 -45 18 -81zM441 390l-295 -301q37 -47 105 -47q63 0 111.5 40.5t71.5 99t23 120.5q0 53 -16 88zM520 521l26 -23l-57 -58q37 -54 37 -137q0 -132 -77.5 -223.5t-205.5 -91.5q-85 0 -141 56l-58 -59
l-26 23l61 63q-40 57 -40 139q0 132 78.5 222t205.5 90q91 0 144 -55z" />
    <glyph glyph-name="ugrave" unicode="&#xf9;" 
d="M533 510l-88 -429q-10 -57 -12 -81h-63q5 56 11 77h-2q-26 -40 -70.5 -64.5t-91.5 -24.5q-71 0 -115.5 39t-44.5 109q0 36 15 105l57 269h66l-58 -281q-11 -52 -11 -89q0 -46 25.5 -72t72.5 -26q77 0 125 64t68 162l50 242h66zM305 722l85 -144h-42l-122 144h79z" />
    <glyph glyph-name="uacute" unicode="&#xfa;" 
d="M533 510l-88 -429q-10 -57 -12 -81h-63q5 56 11 77h-2q-26 -40 -70.5 -64.5t-91.5 -24.5q-71 0 -115.5 39t-44.5 109q0 36 15 105l57 269h66l-58 -281q-11 -52 -11 -89q0 -46 25.5 -72t72.5 -26q77 0 125 64t68 162l50 242h66zM286 578l85 144h79l-117 -144h-47z" />
    <glyph glyph-name="ucircumflex" unicode="&#xfb;" 
d="M533 510l-88 -429q-10 -57 -12 -81h-63q5 56 11 77h-2q-26 -40 -70.5 -64.5t-91.5 -24.5q-71 0 -115.5 39t-44.5 109q0 36 15 105l57 269h66l-58 -281q-11 -52 -11 -89q0 -46 25.5 -72t72.5 -26q77 0 125 64t68 162l50 242h66zM199 578l117 144h76l75 -144h-44l-72 102
l-108 -102h-44z" />
    <glyph glyph-name="udieresis" unicode="&#xfc;" 
d="M533 510l-88 -429q-10 -57 -12 -81h-63q5 56 11 77h-2q-26 -40 -70.5 -64.5t-91.5 -24.5q-71 0 -115.5 39t-44.5 109q0 36 15 105l57 269h66l-58 -281q-11 -52 -11 -89q0 -46 25.5 -72t72.5 -26q77 0 125 64t68 162l50 242h66zM217 606l16 84h77l-16 -84h-77zM392 606
l16 84h77l-16 -84h-77z" />
    <glyph glyph-name="yacute" unicode="&#xfd;" horiz-adv-x="444" 
d="M492 510l-353 -630q-25 -48 -56.5 -72t-80.5 -24q-37 0 -61 14l15 54q14 -14 41 -14q59 0 97 80l43 81l-72 511h66l52 -439h2l239 439h68zM230 578l85 144h79l-117 -144h-47z" />
    <glyph glyph-name="thorn" unicode="&#xfe;" 
d="M-18 -210l202 960h66l-74 -324h2q27 46 72.5 71t97.5 25q84 0 129.5 -58t45.5 -148q0 -82 -28 -155t-88.5 -123t-142.5 -50q-55 0 -95.5 29.5t-56.5 81.5h-2l-62 -309h-66zM136 204q0 -66 33 -114t95 -48t107 45t64 105.5t19 123.5q0 68 -30.5 110t-93.5 42
q-57 0 -103 -44t-68.5 -103.5t-22.5 -116.5z" />
    <glyph glyph-name="ydieresis" unicode="&#xff;" horiz-adv-x="444" 
d="M492 510l-353 -630q-25 -48 -56.5 -72t-80.5 -24q-37 0 -61 14l15 54q14 -14 41 -14q59 0 97 80l43 81l-72 511h66l52 -439h2l239 439h68zM161 606l16 84h77l-16 -84h-77zM336 606l16 84h77l-16 -84h-77z" />
    <glyph glyph-name="dotlessi" unicode="&#x131;" horiz-adv-x="222" 
d="M28 0l108 510h66l-108 -510h-66z" />
    <glyph glyph-name="Lslash" unicode="&#x141;" horiz-adv-x="444" 
d="M28 0l51 237l-70 -43l17 72l68 42l83 390h71l-73 -340l187 115l-17 -72l-185 -114l-49 -227h285l-11 -60h-357z" />
    <glyph glyph-name="lslash" unicode="&#x142;" horiz-adv-x="222" 
d="M28 0l71 333l-72 -44l14 67l72 43l75 351h66l-64 -301l72 47l-14 -66l-72 -47l-82 -383h-66z" />
    <glyph glyph-name="OE" unicode="&#x152;" horiz-adv-x="889" 
d="M432 63l124 570q-72 12 -90 12q-148 0 -239 -94.5t-91 -243.5q0 -107 56 -180.5t159 -73.5q47 0 81 10zM914 698l-12 -60h-278l-52 -249h262l-14 -60h-260l-59 -269h287l-12 -60h-327q-1 0 -43 -3q-28 -4 -43 -4q-140 0 -218 82.5t-78 223.5q0 177 108.5 291.5
t284.5 114.5q1 0 49 -3q32 -4 49 -4h356z" />
    <glyph glyph-name="oe" unicode="&#x153;" horiz-adv-x="833" 
d="M807 237h-328q-3 -11 -3 -38q0 -72 33.5 -114.5t101.5 -42.5q61 0 126 30l-6 -61q-77 -23 -123 -23q-145 0 -184 124h-2q-26 -55 -74.5 -89.5t-111.5 -34.5q-93 0 -147 63t-54 159q0 125 70.5 218.5t192.5 93.5q63 0 108.5 -32.5t61.5 -90.5h2q25 57 73.5 90t111.5 33
q159 0 159 -177q0 -31 -7 -108zM489 291h259q3 29 3 53q0 124 -96 124q-65 0 -107.5 -51t-58.5 -126zM104 207q0 -67 34.5 -116t97.5 -49q60 0 103.5 46t61.5 103t18 111q0 71 -30.5 118.5t-86.5 47.5q-69 0 -115.5 -41t-64.5 -97.5t-18 -122.5z" />
    <glyph glyph-name="Scaron" unicode="&#x160;" horiz-adv-x="500" 
d="M519 679l-21 -63q-66 34 -141 34q-66 0 -116.5 -32.5t-50.5 -97.5q0 -33 26.5 -61t64 -50.5t75.5 -48t64.5 -65t26.5 -89.5q0 -101 -77 -159.5t-180 -58.5q-107 0 -176 38l21 66q64 -44 149 -44q80 0 137 37t57 112q0 40 -26.5 72.5t-64 56.5t-75.5 48.5t-64.5 60.5
t-26.5 80q0 96 68 145.5t168 49.5q90 0 162 -31zM512 892l-117 -144h-76l-75 144h44l72 -102l108 102h44z" />
    <glyph glyph-name="scaron" unicode="&#x161;" horiz-adv-x="389" 
d="M-14 16l19 63q61 -37 121 -37q35 0 65 8.5t54.5 32.5t24.5 61q0 30 -20.5 54t-50 40.5t-59.5 33.5t-50.5 44.5t-20.5 63.5q0 69 58.5 105.5t130.5 36.5q69 0 131 -25l-21 -59q-52 30 -113 30q-29 0 -54 -6.5t-45.5 -27t-20.5 -53.5q0 -29 32 -54.5t70 -44t70 -53.5
t32 -81q0 -55 -31.5 -92.5t-76 -52.5t-97.5 -15q-79 0 -148 28zM409 722l-117 -144h-76l-75 144h44l72 -102l108 102h44z" />
    <glyph glyph-name="Ydieresis" unicode="&#x178;" horiz-adv-x="611" 
d="M220 0l63 295l-177 403h73l147 -346l294 346h83l-353 -403l-63 -295h-67zM293 767l16 84h77l-16 -84h-77zM468 767l16 84h77l-16 -84h-77z" />
    <glyph glyph-name="Zcaron" unicode="&#x17d;" horiz-adv-x="500" 
d="M-31 0l12 61l489 577h-355l13 60h437l-13 -61l-488 -577h378l-13 -60h-460zM512 883l-117 -144h-76l-75 144h44l72 -102l108 102h44z" />
    <glyph glyph-name="zcaron" unicode="&#x17e;" horiz-adv-x="444" 
d="M-20 0l12 58l380 398h-289l12 54h373l-12 -59l-385 -397h306l-10 -54h-387zM436 722l-117 -144h-76l-75 144h44l72 -102l108 102h44z" />
    <glyph glyph-name="florin" unicode="&#x192;" 
d="M453 419l-12 -54h-112l-44 -267q-8 -47 -13 -73.5t-15.5 -69.5t-23.5 -68t-32 -52t-46 -39t-60 -12q-43 0 -69 10l18 58q21 -14 44 -14q22 0 39 10t30.5 32.5t22.5 43t18 61t14 66.5t13 77l39 237h-112l12 54h110l13 66q21 107 62 163.5t115 56.5q37 0 69 -16l-14 -53
q-23 15 -55 15q-26 0 -47.5 -18.5t-35 -48t-21 -55.5t-12.5 -52l-10 -58h115z" />
    <glyph glyph-name="circumflex" unicode="&#x2c6;" horiz-adv-x="222" 
d="M32 578l117 144h76l75 -144h-44l-72 102l-108 -102h-44z" />
    <glyph glyph-name="caron" unicode="&#x2c7;" horiz-adv-x="222" 
d="M325 722l-117 -144h-76l-75 144h44l72 -102l108 102h44z" />
    <glyph glyph-name="uni02C9" unicode="&#x2c9;" horiz-adv-x="222" 
d="M310 676l-11 -54h-257l11 54h257z" />
    <glyph glyph-name="breve" unicode="&#x2d8;" horiz-adv-x="222" 
d="M71 711h30q0 -31 21 -49t52 -18q82 0 141 67h35q-77 -127 -169 -127q-110 0 -110 127z" />
    <glyph glyph-name="dotaccent" unicode="&#x2d9;" horiz-adv-x="222" 
d="M137 606l16 84h77l-16 -84h-77z" />
    <glyph glyph-name="ring" unicode="&#x2da;" horiz-adv-x="222" 
d="M97 660q0 40 30 69.5t70 29.5t69.5 -29.5t29.5 -69.5q0 -41 -29 -70.5t-70 -29.5t-70.5 30t-29.5 70zM133 660q0 -27 17.5 -45.5t46.5 -18.5q28 0 45.5 19t17.5 45q0 27 -17.5 45t-45.5 18q-29 0 -46.5 -18t-17.5 -45z" />
    <glyph glyph-name="ogonek" unicode="&#x2db;" horiz-adv-x="222" 
d="M183 -135l30 -14q-26 -32 -54 -46.5t-70 -14.5q-37 0 -60 16t-23 46q0 44 44 82.5t99 65.5h51q-131 -73 -131 -133q0 -19 10 -30t27 -11q43 0 77 39z" />
    <glyph glyph-name="tilde" unicode="&#x2dc;" horiz-adv-x="222" 
d="M267 693h36q0 -36 -23.5 -63.5t-58.5 -27.5q-18 0 -57 15q-36 14 -55 14q-32 0 -38 -37h-36q0 36 23.5 63.5t58.5 27.5q25 0 57 -14q34 -15 55 -15q33 0 38 37z" />
    <glyph glyph-name="hungarumlaut" unicode="&#x2dd;" horiz-adv-x="222" 
d="M51 578l85 144h79l-117 -144h-47zM189 578l85 144h79l-117 -144h-47z" />
    <glyph glyph-name="uni03A9" unicode="&#x3a9;" horiz-adv-x="724" 
d="M164 52l1 3q-50 52 -72 132t-1 179q31 146 136.5 238.5t233.5 92.5q129 0 190.5 -96t32.5 -231q-22 -102 -80.5 -185t-126.5 -130l-1 -3h154l-11 -52h-235l8 39q75 43 138.5 126.5t86.5 193.5q13 49 7 99.5t-23.5 92t-57.5 67.5t-94 26q-105 0 -187.5 -82.5
t-108.5 -204.5q-22 -105 6.5 -191.5t83.5 -126.5l-8 -39h-236l11 52h153z" />
    <glyph glyph-name="uni03BC" unicode="&#x3bc;" 
d="M-29 -210l158 720h66l-58 -281q-11 -52 -11 -89q0 -46 25.5 -72t72.5 -26q77 0 125 64t68 162l50 242h66l-88 -429q-10 -57 -12 -81h-63q5 56 11 77h-2q-26 -40 -70.5 -64.5t-91.5 -24.5q-88 0 -127 50l-53 -248h-66z" />
    <glyph glyph-name="pi" unicode="&#x3c0;" horiz-adv-x="563" 
d="M582 455h-83l-66 -309q-20 -95 -16 -146h-62q-10 31 13 138l67 317h-190q-29 -110 -81 -250.5t-91 -204.5h-63q44 75 94 210.5t77 244.5q-81 0 -117 -13l-2 42q47 25 144 25h394z" />
    <glyph glyph-name="uni2010" unicode="&#x2010;" horiz-adv-x="333" 
d="M39 235l11 69h255l-11 -69h-255z" />
    <glyph glyph-name="endash" unicode="&#x2013;" horiz-adv-x="500" 
d="M0 242l11 54h500l-11 -54h-500z" />
    <glyph glyph-name="emdash" unicode="&#x2014;" horiz-adv-x="1000" 
d="M0 242l11 54h1000l-11 -54h-1000z" />
    <glyph glyph-name="quoteleft" unicode="&#x2018;" horiz-adv-x="278" 
d="M124 480l121 218h61l-102 -218h-80z" />
    <glyph glyph-name="quoteright" unicode="&#x2019;" horiz-adv-x="278" 
d="M113 480l102 218h80l-121 -218h-61z" />
    <glyph glyph-name="quotesinglbase" unicode="&#x201a;" horiz-adv-x="278" 
d="M-19 -134l102 218h80l-121 -218h-61z" />
    <glyph glyph-name="quotedblleft" unicode="&#x201c;" horiz-adv-x="444" 
d="M118 480l121 218h61l-102 -218h-80zM285 480l121 218h61l-102 -218h-80z" />
    <glyph glyph-name="quotedblright" unicode="&#x201d;" horiz-adv-x="444" 
d="M285 480l102 218h80l-121 -218h-61zM118 480l102 218h80l-121 -218h-61z" />
    <glyph glyph-name="quotedblbase" unicode="&#x201e;" horiz-adv-x="444" 
d="M-19 -134l102 218h80l-121 -218h-61zM148 -134l102 218h80l-121 -218h-61z" />
    <glyph glyph-name="dagger" unicode="&#x2020;" 
d="M116 456l12 54h171l39 188h62l-39 -188h174l-12 -54h-173l-95 -456h-62l95 456h-172z" />
    <glyph glyph-name="daggerdbl" unicode="&#x2021;" 
d="M193 0l40 188h-174l11 54h173l45 214h-174l11 54h175l40 188h62l-40 -188h176l-11 -54h-175l-45 -214h174l-11 -54h-175l-40 -188h-62z" />
    <glyph glyph-name="bullet" unicode="&#x2022;" horiz-adv-x="500" 
d="M87 349q0 72 51 123.5t123 51.5t123.5 -51.5t51.5 -123.5t-51.5 -123t-123.5 -51t-123 51t-51 123z" />
    <glyph glyph-name="ellipsis" unicode="&#x2026;" horiz-adv-x="1000" 
d="M77 0l17 84h82l-17 -84h-82zM410 0l17 84h82l-17 -84h-82zM743 0l17 84h82l-17 -84h-82z" />
    <glyph glyph-name="perthousand" unicode="&#x2030;" horiz-adv-x="1000" 
d="M204 435q44 0 69 47t25 96q0 33 -17 56t-48 23q-49 0 -74 -46t-25 -100q0 -33 19.5 -54.5t50.5 -21.5zM195 387q-57 0 -90.5 36.5t-33.5 94.5q0 72 45.5 129.5t115.5 57.5q58 0 93.5 -34t35.5 -92q0 -76 -45.5 -134t-120.5 -58zM806 -7q-57 0 -90.5 36.5t-33.5 94.5
q0 72 45.5 129.5t115.5 57.5q58 0 93.5 -34t35.5 -92q0 -76 -46 -134t-120 -58zM815 41q44 0 69 47t25 96q0 33 -17 56t-48 23q-49 0 -74 -46t-25 -100q0 -33 19.5 -54.5t50.5 -21.5zM464 -7q-57 0 -90.5 36.5t-33.5 94.5q0 72 45.5 129.5t115.5 57.5q58 0 93.5 -34
t35.5 -92q0 -76 -46 -134t-120 -58zM473 41q44 0 69 47t25 96q0 33 -17 56t-48 23q-49 0 -74 -46t-25 -100q0 -33 19.5 -54.5t50.5 -21.5zM100 -22l445 742h56l-445 -742h-56z" />
    <glyph glyph-name="guilsinglleft" unicode="&#x2039;" horiz-adv-x="333" 
d="M187 64l-153 205l190 205h72l-196 -205l153 -205h-66z" />
    <glyph glyph-name="guilsinglright" unicode="&#x203a;" horiz-adv-x="333" 
d="M146 474l153 -205l-190 -205h-72l196 205l-153 205h66z" />
    <glyph glyph-name="fraction" unicode="&#x2044;" horiz-adv-x="167" 
d="M-143 -22l445 742h57l-445 -742h-57z" />
    <glyph glyph-name="Euro" unicode="&#x20ac;" 
d="M651 685l-26 -63q-45 29 -124 29q-97 0 -173 -57.5t-118 -151.5h341l-21 -48h-339q-16 -53 -20 -90h321l-20 -48h-302q2 -96 54.5 -152t147.5 -56q77 0 137 27l-8 -64q-58 -23 -142 -23q-125 0 -194 71.5t-67 196.5h-90l21 48h73q6 44 20 90h-84l21 48h80
q50 121 150 194.5t226 73.5q82 0 136 -25z" />
    <glyph glyph-name="afii61289" unicode="&#x2113;" horiz-adv-x="478" 
d="M402 146l26 -26q-90 -122 -208 -122q-80 0 -108.5 52t-14.5 133q1 5 3 13q-12 -8 -36 -25t-32 -23l-13 39q69 48 93 68l58 273q14 64 37 112t50.5 73t55 37t55.5 12q59 0 80 -44t7 -113q-35 -165 -286 -366l-6 -30q-17 -81 7 -120.5t73 -39.5q44 0 86 28.5t73 68.5z
M232 535l-49 -232q95 84 153 156t73 143q24 111 -52 111q-35 0 -70.5 -43t-54.5 -135z" />
    <glyph glyph-name="trademark" unicode="&#x2122;" horiz-adv-x="990" 
d="M225 284v366h-131v48h325v-48h-131v-366h-63zM505 284v414h102l122 -319l122 319h102v-414h-63v360h-2l-138 -360h-43l-137 360h-2v-360h-63z" />
    <glyph glyph-name="Omega" unicode="&#x2126;" horiz-adv-x="724" 
d="M164 52l1 3q-50 52 -72 132t-1 179q31 146 136.5 238.5t233.5 92.5q129 0 190.5 -96t32.5 -231q-22 -102 -80.5 -185t-126.5 -130l-1 -3h154l-11 -52h-235l8 39q75 43 138.5 126.5t86.5 193.5q13 49 7 99.5t-23.5 92t-57.5 67.5t-94 26q-105 0 -187.5 -82.5
t-108.5 -204.5q-22 -105 6.5 -191.5t83.5 -126.5l-8 -39h-236l11 52h153z" />
    <glyph glyph-name="estimated" unicode="&#x212e;" horiz-adv-x="957" 
d="M923 339h-641q-5 0 -5 -4v-194q0 -13 9 -22q102 -105 242 -105q153 0 255 118h57q-54 -64 -136.5 -101t-176.5 -37q-164 0 -279.5 104t-115.5 251t116 251.5t279 104.5q164 0 280 -104.5t116 -251.5v-10zM778 364v195q0 13 -10 23q-103 101 -240 101q-139 0 -241 -104
q-10 -9 -10 -24v-191q0 -6 5 -6h491q5 0 5 6z" />
    <glyph glyph-name="partialdiff" unicode="&#x2202;" horiz-adv-x="539" 
d="M193 673l-14 46q79 54 175 54q102 0 154 -96.5t14 -274.5q-37 -176 -128 -290.5t-214 -114.5q-47 0 -80 19.5t-47.5 51.5t-19 72.5t5.5 82.5q24 110 101 179.5t163 69.5q63 0 101 -33t48 -66h1q2 7 6.5 25.5t4.5 19.5q28 135 -10 218.5t-117 83.5q-76 0 -144 -47zM197 50
h1q71 0 134.5 74.5t98.5 182.5q-6 41 -40 77t-89 36q-65 0 -123.5 -57.5t-75.5 -138.5q-16 -76 9.5 -125t84.5 -49z" />
    <glyph glyph-name="uni2206" unicode="&#x2206;" horiz-adv-x="646" 
d="M-18 0l9 46l395 659h73l114 -658l-10 -47h-581zM56 52h449l-69 394q-3 22 -15.5 91t-14.5 94h-4q-10 -20 -48.5 -85t-48.5 -83z" />
    <glyph glyph-name="product" unicode="&#x220f;" horiz-adv-x="788" 
d="M762 628h-112v-723h-62v723h-294v-723h-62v723h-112v58h642v-58z" />
    <glyph glyph-name="summation" unicode="&#x2211;" horiz-adv-x="645" 
d="M623 -95h-506v43l274 346l-261 347v45h478v-55h-389v-4l246 -325l-265 -334v-3h423v-60z" />
    <glyph glyph-name="minus" unicode="&#x2212;" horiz-adv-x="600" 
d="M61 219v69h507v-69h-507z" />
    <glyph glyph-name="uni2215" unicode="&#x2215;" horiz-adv-x="167" 
d="M-143 -22l445 742h57l-445 -742h-57z" />
    <glyph glyph-name="uni2219" unicode="&#x2219;" horiz-adv-x="278" 
d="M111 310q0 20 14.5 34.5t34.5 14.5t35 -14.5t15 -34.5t-15 -35t-35 -15t-34.5 15t-14.5 35z" />
    <glyph glyph-name="radical" unicode="&#x221a;" horiz-adv-x="662" 
d="M663 813l-222 -962h-58l-162 461l-74 -28l-14 40l128 50l133 -378q13 -49 17 -69h1q2 9 6.5 33t6.5 35l189 818h49z" />
    <glyph glyph-name="infinity" unicode="&#x221e;" horiz-adv-x="812" 
d="M761 286v-2q0 -68 -44.5 -111t-105.5 -43q-44 0 -84.5 28t-98.5 91q-26 -29 -41.5 -44.5t-41 -36t-51.5 -29.5t-55 -9q-60 0 -103 44t-43 107q0 67 43.5 111t109.5 44q51 0 94 -32t92 -89q60 67 89 88q47 33 98 33q64 -1 103 -42.5t39 -107.5zM245 172h2q16 0 32 6
t27.5 12t28.5 20.5t24 21.5t24.5 26t20.5 22q-26 32 -36 43t-34 33t-46.5 30.5t-48.5 8.5q-46 0 -73.5 -33.5t-27.5 -81.5q0 -46 30 -77t77 -31zM614 395h-1q-24 0 -50 -14t-40.5 -27t-39.5 -39.5t-29 -30.5q58 -63 91 -87.5t70 -24.5q46 0 74 33.5t28 76.5q0 53 -29 83
t-74 30z" />
    <glyph glyph-name="integral" unicode="&#x222b;" horiz-adv-x="445" 
d="M431 822l-13 -44q-16 10 -36 10q-33 0 -51 -23q-35 -40 -35 -177q0 -76 6.5 -248t6.5 -251q0 -135 -44 -198q-32 -47 -92 -47q-36 0 -63 17l12 46q27 -12 46 -12q29 0 47 23q36 45 36 172q0 80 -7 254t-7 250q0 152 52 205q36 37 88 37q28 0 54 -14z" />
    <glyph glyph-name="approxequal" unicode="&#x2248;" horiz-adv-x="602" 
d="M527 420l28 -24q-50 -92 -127 -92q-19 0 -39.5 6t-33 12.5t-45.5 23.5q-59 34 -95 34q-32 0 -54.5 -19t-46.5 -55l-28 23q48 93 136 93q14 0 27 -2.5t26 -8.5t21 -9.5t21.5 -11.5t16.5 -10t14 -8t14.5 -7.5t12.5 -5.5t13.5 -5.5t12.5 -4t15 -3t15 -0.5q54 0 96 74z
M527 254l28 -24q-50 -92 -127 -92q-20 0 -40 6t-33.5 13t-44.5 24q-64 34 -95 34q-33 0 -55.5 -19.5t-45.5 -55.5l-28 23q23 44 58 68.5t77 24.5q18 0 36.5 -5t27 -9t28.5 -15.5t21 -11.5q4 -2 16 -8.5t16.5 -9t14 -6.5t16 -6t16 -3.5t18.5 -1.5q30 0 52 17.5t44 56.5z" />
    <glyph glyph-name="notequal" unicode="&#x2260;" horiz-adv-x="621" 
d="M455 496l-46 -100h161v-43h-179l-69 -148h248v-43h-266l-55 -118l-34 16l47 102h-153v43h172l68 148h-240v43h258l54 116z" />
    <glyph glyph-name="lessequal" unicode="&#x2264;" horiz-adv-x="637" 
d="M583 92l-452 224v45l452 224v-52l-405 -192v-3l405 -194v-52zM586 7h-461v44h461v-44z" />
    <glyph glyph-name="greaterequal" unicode="&#x2265;" horiz-adv-x="637" 
d="M131 585l453 -224v-45l-453 -224v52l405 193v3l-405 193v52zM585 7h-460v44h460v-44z" />
    <glyph glyph-name="lozenge" unicode="&#x25ca;" horiz-adv-x="664" 
d="M609 342l-203 -387h-51l-201 387l202 388h52zM550 341l-149 285q-9 19 -19 50h-3q-7 -26 -19 -50l-148 -282l150 -287q13 -29 18 -49h3q11 32 18 48z" />
    <glyph glyph-name="fi" unicode="&#xfb01;" 
d="M73 0l98 456h-110l13 54h109l11 51q7 33 13.5 55.5t20 52.5t30 48.5t44 31.5t61.5 13q42 0 70 -11l-15 -53q-25 10 -51 10q-22 0 -39 -9.5t-27.5 -22.5t-19.5 -37.5t-13 -42t-11 -48.5l-8 -38h127l-13 -54h-126l-98 -456h-66zM362 0l108 510h66l-108 -510h-66zM587 730
l-18 -84h-76l18 84h76z" />
    <glyph glyph-name="fl" unicode="&#xfb02;" 
d="M73 0l98 456h-110l13 54h109l11 51q7 33 13.5 55.5t20 52.5t30 48.5t44 31.5t61.5 13q42 0 70 -11l-15 -53q-25 10 -51 10q-22 0 -39 -9.5t-27.5 -22.5t-19.5 -37.5t-13 -42t-11 -48.5l-8 -38h127l-13 -54h-126l-98 -456h-66zM362 0l160 750h66l-160 -750h-66z" />
    <glyph glyph-name="a.superior" horiz-adv-x="325" 
d="M138 636l5 48q55 26 100 26q52 0 84.5 -26.5t32.5 -76.5q0 -23 -30 -134q-3 -10 -12 -77h-45q4 38 7 46h-2q-39 -54 -113 -54q-41 0 -71 25t-30 65q0 112 198 112h45q2 0 2 18q0 29 -20 44.5t-53 15.5q-38 0 -98 -32zM115 479q0 -22 19 -35.5t45 -13.5q53 0 83 34.5
t38 83.5h-40q-145 0 -145 -69z" />
    <glyph glyph-name="o.superior" horiz-adv-x="361" 
d="M80 524q0 75 54 130.5t136 55.5q62 0 100 -37.5t38 -94.5q0 -76 -53.5 -133t-136.5 -57q-60 0 -99 40t-39 96zM131 518q0 -36 25.5 -62t67.5 -26q59 0 96 46.5t37 100.5q0 40 -23 65.5t-69 25.5q-64 0 -99 -46t-35 -104z" />
    <glyph glyph-name="one.superior" horiz-adv-x="361" 
d="M166 284l85 366l-86 -56l-21 34l122 77h53l-96 -421h-57z" />
    <glyph glyph-name="two.superior" horiz-adv-x="361" 
d="M44 284l11 36l157 128q84 68 108 105q15 24 15 42q0 32 -23.5 47t-55.5 15q-60 0 -114 -38l3 53q59 33 117 33q55 0 92.5 -27.5t37.5 -82.5q0 -68 -114 -156l-135 -105v-2h187l-9 -48h-277z" />
    <glyph glyph-name="three.superior" horiz-adv-x="361" 
d="M122 476l10 48q180 0 180 75q0 27 -30 42.5t-63 15.5q-60 0 -111 -25l5 53q44 20 107 20q38 0 68.5 -7.5t55.5 -32.5t25 -66q0 -44 -36.5 -68t-87.5 -27v-2q38 -5 59.5 -30.5t21.5 -63.5q0 -44 -33 -75.5t-74.5 -43.5t-84.5 -12q-60 0 -120 17l12 50q43 -19 109 -19
q48 0 91 22.5t43 63.5q0 16 -6 28t-20.5 19t-24 11t-33.5 5.5t-31 1.5h-32z" />
    </font>
</defs>
</svg>
