<?xml version="1.0" standalone="no"?>
<!DOCTYPE svg PUBLIC "-//W3C//DTD SVG 1.1//EN" "http://www.w3.org/Graphics/SVG/1.1/DTD/svg11.dtd" >
<svg xmlns="http://www.w3.org/2000/svg" xmlns:xlink="http://www.w3.org/1999/xlink" version="1.1">
<metadata>
Created by FontForge 20160407 at Fri Nov 18 14:16:05 2016
 By Jimmy Wärting
Copyright 1993, 2001, 2002 Adobe Systems Incorporated. All rights reserved. ITC and Officina are trademarks of International Typeface Corporation registered in the U.S. Patent and Trademark Office and may be registered in certain other jurisdictions.
</metadata>
<defs>
<font id="OfficinaSerifStd-BoldItalic" horiz-adv-x="556" >
  <font-face 
    font-family="ITC Officina Serif Std"
    font-weight="700"
    font-style="italic"
    font-stretch="normal"
    units-per-em="1000"
    panose-1="2 6 8 6 5 2 3 9 2 4"
    ascent="717"
    descent="-283"
    x-height="494"
    cap-height="685"
    bbox="-147 -259 1113 933"
    underline-thickness="50"
    underline-position="-100"
    slope="-12"
    stemh="100"
    stemv="127"
    unicode-range="U+0020-FB02"
  />
<missing-glyph horiz-adv-x="590" 
d="M90 0v700h500v-700h-500zM340 395l170 255h-340zM370 350l170 -255v510zM170 50h340l-170 255zM140 605v-510l170 255z" />
    <glyph glyph-name="f_i" unicode="fi" horiz-adv-x="611" 
d="M624 642c0 -47 -38 -83 -83 -83s-82 36 -82 83c0 50 42 82 82 82c41 0 83 -33 83 -82zM261 404l-81 -411c-19 -94 -56 -195 -192 -195c-46 0 -89 6 -89 17c0 4 1 7 2 11l21 70c2 5 4 7 7 7s20 -5 41 -5c68 0 80 46 93 110l78 396h-71c-6 0 -14 1 -14 10c0 4 1 8 2 12
l12 56c1 9 3 12 14 12h74l12 63c15 81 37 160 157 160c42 0 101 -13 101 -28c0 -3 -1 -5 -2 -8l-24 -70c-3 -6 -6 -7 -8 -7c-10 0 -30 13 -60 13c-34 0 -39 -40 -47 -80l-9 -43h265c8 0 12 -2 12 -10c0 -5 -1 -9 -2 -13l-81 -381h65c8 0 13 -5 13 -10c0 -4 -1 -8 -2 -12
l-11 -56c-2 -11 -5 -12 -15 -12h-82c-41 0 -90 9 -90 61c0 15 3 30 6 45l64 298h-159z" />
    <glyph glyph-name="f_l" unicode="fl" horiz-adv-x="611" 
d="M261 404l-81 -411c-19 -94 -56 -195 -192 -195c-46 0 -89 6 -89 17c0 4 1 7 2 11l21 70c2 5 4 7 7 7s20 -5 41 -5c68 0 80 46 93 110l78 396h-71c-6 0 -14 1 -14 10c0 4 1 8 2 12l12 56c1 9 3 12 14 12h74l12 63c15 81 41 160 178 160c56 0 110 -17 132 -28l101 24
c4 1 10 4 16 4c9 0 13 -2 13 -10c0 -5 -1 -9 -2 -13l-113 -520c-5 -24 -12 -49 -12 -63s8 -20 23 -20c17 0 32 7 37 7c3 0 6 -1 7 -7l10 -69c0 -3 1 -7 1 -10c0 -15 -62 -29 -101 -29c-58 0 -98 19 -98 84c0 36 5 71 13 106l90 416c-18 13 -53 28 -110 28
c-52 0 -59 -39 -68 -80l-9 -43h88c9 0 12 -5 12 -9s-2 -8 -3 -12l-18 -58c-3 -9 -4 -11 -14 -11h-82z" />
    <glyph glyph-name=".notdef" horiz-adv-x="590" 
d="M90 0v700h500v-700h-500zM340 395l170 255h-340zM370 350l170 -255v510zM170 50h340l-170 255zM140 605v-510l170 255z" />
    <glyph glyph-name="space" unicode=" " horiz-adv-x="315" 
 />
    <glyph glyph-name="exclam" unicode="!" horiz-adv-x="352" 
d="M327 662l-109 -406c-4 -13 -6 -14 -18 -14h-60c-10 0 -17 2 -17 13c0 3 2 15 3 19l62 393c2 16 4 18 18 18h106c11 0 17 -2 17 -11c0 -4 -1 -8 -2 -12zM215 63c0 -44 -36 -80 -80 -80s-80 35 -80 80s36 80 80 80s80 -36 80 -80z" />
    <glyph glyph-name="quotedbl" unicode="&#x22;" horiz-adv-x="481" 
d="M267 678l-19 -213c-1 -17 -4 -20 -21 -20h-43c-17 0 -20 3 -21 20l-19 213c-1 4 -2 19 -2 26c0 13 10 13 20 13h87c10 0 20 0 20 -13c0 -7 -1 -22 -2 -26zM452 678l-19 -213c-1 -17 -4 -20 -21 -20h-43c-17 0 -20 3 -21 20l-19 213c-1 4 -2 19 -2 26c0 13 10 13 20 13h87
c10 0 20 0 20 -13c0 -7 -1 -22 -2 -26z" />
    <glyph glyph-name="numbersign" unicode="#" 
d="M368 146l-59 -185c-4 -12 -5 -13 -16 -13h-51c-11 0 -17 3 -17 11c0 6 2 11 4 16l54 171h-105l-59 -185c-4 -12 -5 -13 -16 -13h-50c-11 0 -18 3 -18 11c0 5 1 10 3 16l55 171h-43c-10 0 -17 1 -17 9c0 5 2 12 3 17l11 49c3 13 5 15 17 15h58l55 174h-44
c-10 0 -17 1 -17 8c0 5 2 13 3 18l10 49c2 13 5 15 18 15h59l54 172c4 12 6 13 19 13h50c10 0 16 -2 16 -11c0 -5 -2 -11 -4 -16l-50 -158h105l55 172c4 12 5 13 18 13h50c10 0 17 -1 17 -8c0 -4 -3 -13 -5 -19l-50 -158h51c10 0 17 -2 17 -11c0 -5 -1 -11 -2 -16l-11 -49
c-3 -13 -5 -14 -18 -14h-65l-56 -174h53c9 0 17 -2 17 -11c0 -5 -2 -10 -3 -15l-11 -50c-3 -13 -6 -14 -17 -14h-68zM312 236l56 174h-106l-55 -174h105z" />
    <glyph glyph-name="dollar" unicode="$" 
d="M254 2l-12 -56c-3 -13 -6 -14 -18 -14h-23c-10 0 -17 2 -17 10c0 5 1 11 2 16l10 42c-49 4 -159 36 -159 56c0 3 3 10 5 13l36 72c3 6 7 8 10 8c14 0 49 -40 132 -49l43 202c-40 20 -138 58 -138 172c0 156 143 190 213 198l10 45c2 12 5 14 18 14h22c11 0 17 -3 17 -11
c0 -5 -1 -10 -2 -15l-7 -33c40 -4 137 -29 137 -50c0 -4 -3 -8 -4 -11l-37 -71c-4 -6 -7 -8 -11 -8c-13 0 -36 35 -108 45l-39 -188c57 -29 133 -63 133 -167c0 -161 -138 -210 -213 -220zM288 412l34 165c-29 -9 -82 -31 -82 -94c0 -42 29 -61 48 -71zM308 281l-38 -179
c26 8 82 26 82 103c0 46 -23 62 -44 76z" />
    <glyph glyph-name="percent" unicode="%" horiz-adv-x="833" 
d="M587 58c48 0 88 68 88 158c0 29 -13 47 -41 47c-48 0 -88 -68 -88 -158c0 -29 13 -47 41 -47zM765 213c0 -129 -80 -230 -190 -230c-77 0 -119 51 -119 125c0 129 80 230 190 230c77 0 119 -51 119 -125zM663 656l-369 -663c-5 -10 -7 -10 -18 -10h-62c-11 0 -17 2 -17 9
c0 6 3 12 6 17l369 665c5 9 7 11 18 11h62c11 0 17 -3 17 -9c0 -7 -3 -15 -6 -20zM405 543c0 -129 -80 -230 -190 -230c-77 0 -119 51 -119 125c0 129 80 230 190 230c77 0 119 -51 119 -125zM227 388c48 0 88 68 88 158c0 29 -13 47 -41 47c-48 0 -88 -68 -88 -158
c0 -29 13 -47 41 -47z" />
    <glyph glyph-name="ampersand" unicode="&#x26;" horiz-adv-x="630" 
d="M464 -5l-40 62c-35 -28 -93 -74 -206 -74c-106 0 -188 46 -188 161c0 146 136 208 185 234c-13 21 -59 81 -59 149c0 111 90 175 214 175c106 0 161 -54 161 -133c0 -112 -117 -177 -168 -207l79 -124c43 66 44 136 62 136c4 0 7 -1 11 -2l72 -18c9 -3 12 -6 12 -12
c0 -48 -60 -159 -93 -203l54 -79c2 -4 4 -8 4 -11c0 -6 -4 -9 -9 -13l-65 -48c-5 -3 -7 -5 -12 -5s-9 4 -14 12zM315 435c35 18 96 55 96 117c0 34 -14 57 -54 57c-48 0 -86 -32 -86 -81c0 -36 35 -79 44 -93zM367 145l-103 159c-30 -16 -104 -51 -104 -125
c0 -52 29 -88 83 -88c64 0 106 37 124 54z" />
    <glyph glyph-name="quoteright" unicode="&#x2019;" horiz-adv-x="222" 
d="M301 690l-170 -234c-3 -4 -6 -9 -11 -9c-6 0 -11 5 -15 7l-36 22c-7 5 -10 7 -10 11c0 6 3 10 6 16l101 203c5 10 7 11 18 11h107c13 0 17 -4 17 -11c0 -6 -4 -12 -7 -16z" />
    <glyph glyph-name="parenleft" unicode="(" horiz-adv-x="463" 
d="M306 -229l-51 -27c-4 -2 -7 -3 -11 -3c-21 0 -133 206 -133 381c0 363 335 629 342 629c3 0 7 -2 10 -4l44 -37c2 -2 6 -6 6 -10c0 -36 -275 -237 -275 -596c0 -192 79 -297 79 -316c0 -9 -4 -13 -11 -17z" />
    <glyph glyph-name="parenright" unicode=")" horiz-adv-x="463" 
d="M157 721l51 27c4 2 7 3 11 3c21 0 133 -206 133 -381c0 -363 -335 -629 -342 -629c-3 0 -7 2 -10 4l-44 37c-2 2 -6 6 -6 10c0 36 275 237 275 596c0 192 -79 297 -79 316c0 9 4 13 11 17z" />
    <glyph glyph-name="asterisk" unicode="*" 
d="M470 367l-52 -37c-5 -4 -10 -8 -15 -8c-6 0 -9 3 -14 14l-57 112l-56 -112c-5 -11 -8 -14 -14 -14c-5 0 -10 4 -15 8l-52 37c-5 3 -11 9 -11 15c0 5 5 11 9 15l90 86l-123 19c-10 1 -19 3 -19 12c0 4 2 9 3 13l20 61c3 9 6 16 13 16c5 0 10 -3 14 -5l111 -59l-21 123
c-1 5 -1 7 -1 11c0 11 11 11 20 11h65c9 0 20 0 20 -11c0 -4 0 -6 -1 -11l-21 -123l111 59c4 2 9 5 14 5c7 0 10 -7 13 -16l20 -61c1 -4 3 -9 3 -13c0 -9 -9 -11 -19 -12l-123 -19l90 -86c4 -4 9 -10 9 -15c0 -6 -6 -12 -11 -15z" />
    <glyph glyph-name="plus" unicode="+" 
d="M328 207v-160c0 -14 -3 -17 -17 -17h-66c-14 0 -17 3 -17 17v160h-160c-14 0 -17 3 -17 17v66c0 14 4 17 17 17h160v160c0 14 3 17 17 17h66c14 0 17 -3 17 -17v-160h160c14 0 17 -3 17 -17v-66c0 -14 -3 -17 -17 -17h-160z" />
    <glyph glyph-name="comma" unicode="," horiz-adv-x="315" 
d="M221 98l-170 -234c-3 -4 -6 -9 -11 -9c-6 0 -11 5 -15 7l-36 22c-7 5 -10 7 -10 11c0 6 3 10 6 16l101 203c5 10 7 11 18 11h107c13 0 17 -4 17 -11c0 -6 -4 -12 -7 -16z" />
    <glyph glyph-name="hyphen" unicode="-" horiz-adv-x="333" 
d="M290 278l-15 -67c-4 -14 -6 -15 -18 -15h-207c-10 0 -17 4 -17 11c0 6 2 16 3 22l15 67c4 14 6 15 18 15h207c11 0 17 -3 17 -11c0 -6 -2 -16 -3 -22z" />
    <glyph glyph-name="period" unicode="." horiz-adv-x="315" 
d="M210 74c0 -50 -42 -91 -91 -91c-50 0 -91 41 -91 91c0 49 41 91 91 91c49 0 91 -42 91 -91z" />
    <glyph glyph-name="slash" unicode="/" horiz-adv-x="481" 
d="M519 691l-513 -880c-6 -10 -10 -13 -23 -13h-65c-12 0 -17 4 -17 11c0 5 3 10 6 15l513 880c6 10 11 13 24 13h64c12 0 17 -5 17 -11s-3 -10 -6 -15z" />
    <glyph glyph-name="zero" unicode="0" 
d="M432 91c-50 -67 -132 -108 -213 -108c-111 0 -180 64 -180 187c0 118 55 329 117 407c51 64 119 108 213 108c110 0 180 -64 180 -187c0 -129 -58 -328 -117 -407zM237 91c127 0 185 276 185 394c0 54 -18 92 -71 92c-127 0 -185 -277 -185 -394c0 -54 18 -92 71 -92z
" />
    <glyph glyph-name="one" unicode="1" 
d="M215 90l94 444l-100 -54c-6 -3 -11 -6 -18 -6c-4 0 -7 3 -11 12l-15 37c-2 5 -5 11 -5 17c0 5 5 8 10 11l180 111c8 5 12 6 22 6h59c10 0 17 -2 17 -10c0 -4 -2 -11 -3 -15l-117 -553h76c8 0 13 -3 13 -9c0 -3 -1 -9 -2 -13l-11 -56c-2 -11 -5 -12 -15 -12h-294
c-8 0 -13 3 -13 10c0 4 2 8 2 12l11 56c3 11 5 12 15 12h105z" />
    <glyph glyph-name="two" unicode="2" 
d="M428 82l-14 -67c-3 -14 -6 -15 -18 -15h-361c-6 0 -11 0 -11 8c0 71 53 164 77 195c106 135 300 172 300 302c0 49 -18 75 -57 75c-90 0 -111 -108 -137 -108c-4 0 -6 1 -10 3l-56 28c-6 3 -9 5 -9 11c0 25 74 171 237 171c102 0 159 -59 159 -161
c0 -116 -57 -162 -161 -240c-103 -78 -169 -95 -192 -176h238c10 0 17 -2 17 -11c0 -5 -1 -10 -2 -15z" />
    <glyph glyph-name="three" unicode="3" 
d="M186 523l-48 46c-3 2 -5 5 -5 8c0 15 83 108 202 108c104 0 161 -59 161 -141c0 -98 -63 -159 -124 -185c32 -17 79 -44 79 -134c0 -145 -102 -242 -262 -242c-89 0 -177 37 -177 51c0 4 1 8 3 11l33 72c3 7 7 9 11 9c11 0 55 -38 137 -38c85 0 135 56 135 130
c0 66 -53 78 -109 78h-31c-11 0 -17 3 -17 10c0 4 1 11 2 16l14 67c3 13 6 15 18 15h38c88 0 130 53 130 116c0 45 -25 65 -61 65c-67 0 -106 -66 -120 -66c-4 0 -7 2 -9 4z" />
    <glyph glyph-name="four" unicode="4" 
d="M407 151l-29 -137c-3 -13 -6 -14 -18 -14h-78c-10 0 -17 2 -17 9c0 4 2 12 3 17l26 125h-244c-11 0 -17 2 -17 10c0 4 2 13 3 16l20 95c2 10 2 9 8 17l326 410c3 3 7 7 12 7s8 -2 13 -4l63 -31c6 -3 11 -6 11 -14c0 -4 -3 -7 -5 -10l-320 -403h152l58 174
c4 11 5 13 18 13h55c10 0 17 -3 17 -10c0 -4 -2 -11 -3 -16l-34 -161h59c10 0 17 -3 17 -11c0 -5 -2 -12 -3 -16l-12 -51c-3 -14 -6 -15 -18 -15h-63z" />
    <glyph glyph-name="five" unicode="5" 
d="M276 563l-51 -157c19 10 47 23 97 23c93 0 163 -62 163 -158c0 -150 -116 -288 -299 -288c-78 0 -170 25 -170 42c0 4 1 8 3 12l28 74c2 7 5 10 12 10c11 0 61 -33 133 -33c111 0 173 83 173 166c0 56 -29 82 -78 82c-82 0 -107 -59 -125 -59c-3 0 -7 1 -9 2l-52 18
c-12 4 -16 6 -16 13c0 5 3 10 4 15l101 330c4 12 6 13 18 13h296c10 0 16 -2 16 -11c0 -5 -1 -10 -2 -15l-13 -64c-3 -14 -7 -15 -18 -15h-211z" />
    <glyph glyph-name="six" unicode="6" 
d="M545 641l-32 -64c-5 -9 -7 -10 -11 -10c-11 0 -34 13 -76 13c-119 0 -185 -135 -203 -173l2 -2c17 19 61 63 131 63c79 0 138 -55 138 -166c0 -190 -111 -319 -261 -319c-100 0 -167 56 -167 189c0 224 138 513 370 513c56 0 112 -13 112 -32c0 -4 -1 -8 -3 -12zM248 88
c77 0 126 99 126 198c0 49 -25 77 -66 77c-74 0 -122 -98 -122 -200c0 -47 25 -75 62 -75z" />
    <glyph glyph-name="seven" unicode="7" 
d="M70 29l326 531h-245c-11 0 -17 2 -17 10c0 4 1 11 2 16l15 68c3 13 5 14 18 14h363c10 0 17 -2 17 -11c0 -5 -1 -10 -2 -15l-5 -22c-1 -7 -4 -13 -8 -20l-352 -607c-4 -6 -6 -10 -12 -10c-5 0 -11 1 -15 2l-77 18c-9 2 -15 6 -15 11c0 6 4 10 7 15z" />
    <glyph glyph-name="eight" unicode="8" 
d="M489 204c0 -126 -107 -221 -262 -221c-120 0 -197 49 -197 153c0 140 131 196 175 216c-20 13 -80 47 -80 137c0 124 99 196 226 196c112 0 184 -64 184 -148c0 -115 -109 -168 -141 -183c30 -17 95 -53 95 -150zM312 399c29 12 103 41 103 119c0 40 -26 67 -74 67
c-53 0 -96 -36 -96 -93c0 -59 42 -79 67 -93zM249 88c66 0 120 36 120 107c0 75 -61 96 -87 109c-35 -15 -132 -53 -132 -138c0 -55 42 -78 99 -78z" />
    <glyph glyph-name="nine" unicode="9" 
d="M65 22l22 69c3 9 7 10 11 10c10 0 30 -13 67 -13c119 0 185 135 203 173l-2 2c-17 -19 -61 -63 -131 -63c-79 0 -138 55 -138 166c0 190 111 319 261 319c100 0 167 -56 167 -189c0 -224 -138 -513 -370 -513c-47 0 -93 13 -93 27c0 4 2 8 3 12zM283 305
c74 0 122 98 122 200c0 47 -25 75 -62 75c-77 0 -126 -99 -126 -198c0 -49 25 -77 66 -77z" />
    <glyph glyph-name="colon" unicode=":" horiz-adv-x="315" 
d="M210 74c0 -50 -42 -91 -91 -91c-50 0 -91 41 -91 91c0 49 41 91 91 91c49 0 91 -42 91 -91zM280 403c0 -50 -42 -91 -91 -91c-50 0 -91 41 -91 91c0 49 41 91 91 91c49 0 91 -42 91 -91z" />
    <glyph glyph-name="semicolon" unicode=";" horiz-adv-x="315" 
d="M221 98l-170 -234c-3 -4 -6 -9 -11 -9c-6 0 -11 5 -15 7l-36 22c-7 5 -10 7 -10 11c0 6 3 10 6 16l101 203c5 10 7 11 18 11h107c13 0 17 -4 17 -11c0 -6 -4 -12 -7 -16zM280 403c0 -50 -42 -91 -91 -91c-50 0 -91 41 -91 91c0 49 41 91 91 91c49 0 91 -42 91 -91z" />
    <glyph glyph-name="less" unicode="&#x3c;" 
d="M199 257l296 -94c8 -3 8 -7 8 -12c0 -3 0 -6 -1 -8l-17 -60c-3 -11 -7 -11 -9 -11s-5 1 -8 2l-407 136c-8 2 -11 4 -11 15v62c0 13 2 15 11 18l407 136c1 0 6 2 8 2c5 0 6 0 9 -10l17 -60s1 -5 1 -8c0 -4 0 -10 -8 -12l-296 -94v-2z" />
    <glyph glyph-name="equal" unicode="=" 
d="M505 210v-66c0 -14 -3 -17 -17 -17h-420c-14 0 -17 3 -17 17v66c0 14 4 17 17 17h420c14 0 17 -3 17 -17zM505 369v-66c0 -14 -3 -17 -17 -17h-420c-14 0 -17 3 -17 17v66c0 14 4 17 17 17h420c14 0 17 -3 17 -17z" />
    <glyph glyph-name="greater" unicode="&#x3e;" 
d="M355 259l-296 94c-8 2 -8 8 -8 12c0 3 1 6 1 8l17 60c3 10 4 10 9 10c2 0 7 -2 8 -2l407 -136c9 -3 11 -5 11 -18v-62c0 -11 -3 -13 -11 -15l-403 -134c-5 -2 -11 -4 -13 -4s-5 0 -8 11l-17 60c0 2 -1 5 -1 8c0 5 0 9 8 12l296 94v2z" />
    <glyph glyph-name="question" unicode="?" horiz-adv-x="463" 
d="M279 332l-16 -74c-3 -13 -5 -14 -17 -14h-81c-9 0 -15 3 -15 10c0 4 2 11 3 15l25 120c2 11 9 18 21 20c42 7 149 30 149 116c0 34 -16 62 -69 62c-59 0 -106 -32 -122 -32c-5 0 -8 3 -9 8l-28 71c-2 4 -4 8 -4 12c0 20 119 56 195 56c107 0 172 -64 172 -153
c0 -147 -130 -202 -204 -217zM250 63c0 -44 -36 -80 -80 -80s-80 35 -80 80s36 80 80 80s80 -36 80 -80z" />
    <glyph glyph-name="at" unicode="@" horiz-adv-x="1000" 
d="M818 -30l16 -41c1 -4 3 -7 3 -12c0 -21 -150 -87 -334 -87c-258 0 -400 135 -400 365c0 272 213 473 478 473c223 0 351 -125 351 -305c0 -198 -144 -308 -278 -308c-73 0 -86 42 -92 69c-17 -23 -52 -69 -117 -69c-58 0 -93 41 -93 122c0 137 82 260 182 260
c47 0 70 -26 78 -34l5 11c3 8 9 10 16 10h66c8 0 12 -5 12 -10c0 -4 -1 -7 -1 -10l-45 -213c-2 -9 -3 -18 -3 -26c0 -23 17 -28 35 -28c65 0 145 76 145 221c0 135 -91 235 -266 235c-225 0 -383 -171 -383 -401c0 -183 112 -287 307 -287c193 0 289 73 308 73
c5 0 7 -2 10 -8zM566 228l24 112c-11 11 -23 22 -48 22c-55 0 -82 -116 -82 -188c0 -23 7 -37 27 -37c47 0 70 52 79 91z" />
    <glyph glyph-name="A" unicode="A" horiz-adv-x="630" 
d="M573 69l-11 -55c-3 -12 -6 -14 -18 -14h-222c-10 0 -13 5 -13 11c0 4 1 8 2 13l11 55c3 12 6 14 18 14h52l-5 89h-179l-40 -89h52c10 0 13 -5 13 -11c0 -4 -1 -8 -2 -13l-11 -55c-3 -12 -6 -14 -18 -14h-222c-10 0 -13 5 -13 11c0 4 1 8 2 13l11 55c3 12 6 14 18 14h43
l294 583c5 9 7 9 18 9h96c12 0 17 0 18 -17l52 -575h43c10 0 13 -5 13 -11c0 -4 -1 -8 -2 -13zM323 445l-76 -173h134l-9 174c-2 34 -4 64 -4 103h-2c-7 -28 -26 -64 -43 -104z" />
    <glyph glyph-name="B" unicode="B" horiz-adv-x="574" 
d="M255 400h44c77 0 131 36 131 123c0 52 -35 62 -81 62h-54zM192 100h47c82 0 144 21 144 129c0 64 -41 71 -99 71h-50zM139 685h226c99 0 195 -29 195 -149c0 -115 -96 -160 -135 -177c35 -16 93 -51 93 -145c0 -166 -130 -214 -289 -214h-234c-10 0 -13 5 -13 11
c0 4 1 8 2 13l11 55c3 12 6 14 18 14h54l106 499h-52c-10 0 -13 5 -13 9s1 10 2 15l11 55c3 12 6 14 18 14z" />
    <glyph glyph-name="C" unicode="C" horiz-adv-x="500" 
d="M455 173l-29 -136c-7 -33 -101 -54 -172 -54c-125 0 -201 67 -201 235c0 249 110 484 340 484c79 0 156 -33 156 -58c0 -6 -2 -14 -3 -18l-25 -120c-3 -15 -7 -15 -18 -15h-67c-11 0 -17 3 -17 12c0 6 2 9 4 19l13 64c-16 4 -33 8 -50 8c-130 0 -198 -212 -198 -376
c0 -98 31 -127 104 -127c15 0 30 2 45 5l19 89c2 9 4 14 17 14h67c11 0 17 -3 17 -11c0 -5 -1 -11 -2 -15z" />
    <glyph glyph-name="D" unicode="D" horiz-adv-x="611" 
d="M139 685h234c124 0 225 -48 225 -212c0 -81 -25 -473 -338 -473h-265c-10 0 -13 5 -13 11c0 4 1 8 2 13l11 55c3 12 6 14 18 14h54l106 499h-52c-10 0 -13 5 -13 11c0 4 1 8 2 13l11 55c3 12 6 14 18 14zM196 105h72c154 0 195 231 195 358c0 106 -51 117 -123 117h-44z
" />
    <glyph glyph-name="E" unicode="E" horiz-adv-x="519" 
d="M236 306l-43 -201h142l17 79c3 13 6 15 18 15h62c11 0 17 -3 17 -10c0 -4 -2 -11 -3 -16l-33 -159c-3 -13 -6 -14 -18 -14h-403c-10 0 -13 5 -13 11c0 4 1 8 2 13l11 55c3 12 6 14 18 14h54l106 499h-52c-10 0 -13 5 -13 11c0 4 1 8 2 13l11 55c3 12 6 14 18 14h396
c10 0 17 -3 17 -11c0 -5 -2 -10 -3 -15l-32 -150c-3 -12 -4 -14 -18 -14h-62c-11 0 -17 2 -17 11c0 5 2 10 3 15l13 59h-139l-36 -169h174c10 0 14 -5 14 -11c0 -5 -1 -9 -2 -14l-14 -66c-3 -13 -5 -14 -18 -14h-176z" />
    <glyph glyph-name="F" unicode="F" horiz-adv-x="500" 
d="M266 69l-11 -55c-3 -12 -6 -14 -18 -14h-242c-10 0 -13 5 -13 11c0 4 1 8 2 13l11 55c3 12 6 14 18 14h54l106 499h-52c-10 0 -13 5 -13 11c0 4 1 8 2 13l11 55c3 12 6 14 18 14h396c10 0 17 -3 17 -11c0 -5 -2 -10 -3 -15l-32 -150c-2 -12 -4 -14 -18 -14h-62
c-11 0 -17 2 -17 9c0 5 2 12 3 17l13 59h-139l-36 -169h174c10 0 14 -5 14 -11c0 -5 -1 -9 -2 -14l-14 -66c-3 -13 -5 -14 -18 -14h-176l-45 -213h61c10 0 13 -5 13 -11c0 -4 -1 -8 -2 -13z" />
    <glyph glyph-name="G" unicode="G" horiz-adv-x="593" 
d="M513 277l-47 -218c-8 -37 -124 -76 -211 -76c-129 0 -207 71 -207 232c0 223 109 487 361 487c82 0 164 -31 164 -56c0 -4 -1 -9 -2 -14l-28 -128c-3 -13 -5 -14 -17 -14h-67c-11 0 -17 3 -17 9c0 5 2 12 3 17l14 65c-8 4 -24 13 -60 13c-156 0 -216 -228 -216 -383
c0 -85 27 -120 92 -120c44 0 68 13 79 18l36 168h-62c-10 0 -13 5 -13 11c0 4 1 8 2 13l11 55c3 12 6 14 18 14h236c10 0 13 -5 13 -11c0 -4 -1 -8 -2 -13l-11 -55c-3 -12 -6 -14 -18 -14h-51z" />
    <glyph glyph-name="H" unicode="H" horiz-adv-x="648" 
d="M574 69l-11 -55c-3 -12 -6 -14 -18 -14h-226c-10 0 -13 5 -13 11c0 4 1 8 2 13l11 55c3 12 6 14 18 14h47l44 208h-190l-44 -208h45c10 0 13 -5 13 -11c0 -4 -1 -8 -2 -13l-11 -55c-3 -12 -6 -14 -18 -14h-226c-10 0 -13 5 -13 11c0 4 1 8 2 13l11 55c3 12 6 14 18 14h54
l106 499h-52c-10 0 -13 5 -13 11c0 4 1 8 2 13l11 55c3 12 6 14 18 14h226c10 0 13 -5 13 -11c0 -4 -1 -8 -2 -13l-11 -55c-3 -12 -6 -14 -18 -14h-47l-39 -183h190l39 183h-45c-10 0 -13 5 -13 11c0 4 1 8 2 13l11 55c3 12 6 14 18 14h226c10 0 13 -5 13 -11
c0 -4 -1 -8 -2 -13l-11 -55c-3 -12 -6 -14 -18 -14h-54l-106 -499h52c10 0 13 -5 13 -11c0 -4 -1 -8 -2 -13z" />
    <glyph glyph-name="I" unicode="I" horiz-adv-x="352" 
d="M273 69l-11 -55c-3 -12 -6 -14 -18 -14h-245c-10 0 -13 5 -13 11c0 4 1 8 2 13l11 55c3 12 6 14 18 14h60l106 499h-58c-10 0 -13 5 -13 11c0 4 1 8 2 13l11 55c3 12 6 14 18 14h245c10 0 13 -5 13 -11c0 -4 -1 -8 -2 -13l-11 -55c-3 -12 -6 -14 -18 -14h-60l-106 -499
h58c10 0 13 -5 13 -11c0 -4 -1 -8 -2 -13z" />
    <glyph glyph-name="J" unicode="J" horiz-adv-x="444" 
d="M453 661l-97 -455c-21 -99 -63 -223 -225 -223c-85 0 -144 47 -144 140c0 48 4 74 18 74h91c6 0 11 0 11 -6s-7 -30 -7 -53c0 -36 18 -50 47 -50c53 0 67 49 77 94l87 410h-142c-10 0 -13 5 -13 11c0 4 1 8 2 13l11 55c3 12 6 14 18 14h255c10 0 13 -5 13 -11
c0 -4 -1 -8 -2 -13z" />
    <glyph glyph-name="K" unicode="K" horiz-adv-x="611" 
d="M557 69l-11 -55c-3 -12 -6 -14 -18 -14h-103c-13 0 -16 2 -23 14l-159 304h-2l-47 -225h52c10 0 13 -5 13 -11c0 -4 -1 -8 -2 -13l-11 -55c-3 -12 -6 -14 -18 -14h-233c-10 0 -13 5 -13 11c0 4 1 8 2 13l11 55c3 12 6 14 18 14h54l106 499h-52c-10 0 -13 5 -13 11
c0 4 1 8 2 13l11 55c3 12 6 14 18 14h233c10 0 13 -5 13 -11c0 -4 -1 -8 -2 -13l-11 -55c-3 -12 -6 -14 -18 -14h-54l-42 -195l2 -2l276 281c7 8 12 9 22 9h105c10 0 13 -5 13 -11c0 -4 -1 -8 -2 -13l-11 -55c-3 -12 -6 -14 -18 -14h-44l-245 -234l154 -265h36
c10 0 13 -5 13 -11c0 -4 -1 -8 -2 -13z" />
    <glyph glyph-name="L" unicode="L" horiz-adv-x="519" 
d="M479 154l-62 -142c-4 -9 -9 -12 -18 -12h-404c-10 0 -13 5 -13 11c0 4 1 8 2 13l11 55c3 12 6 14 18 14h54l106 499h-52c-10 0 -13 5 -13 11c0 4 1 8 2 13l11 55c3 12 6 14 18 14h233c10 0 13 -5 13 -11c0 -4 -1 -8 -2 -13l-11 -55c-3 -12 -6 -14 -18 -14h-54l-104 -487
h149l41 92c3 8 7 12 12 12s9 -3 15 -5l58 -22c10 -4 13 -6 13 -12s-3 -11 -5 -16z" />
    <glyph glyph-name="M" unicode="M" horiz-adv-x="722" 
d="M653 69l-11 -55c-3 -12 -6 -14 -18 -14h-218c-10 0 -13 5 -13 11c0 4 1 8 2 13l11 55c3 12 6 14 18 14h51l55 287c10 50 24 103 34 137l-2 2c-12 -32 -36 -86 -66 -140l-120 -217c-6 -10 -6 -11 -18 -11h-45c-12 0 -16 0 -18 17l-20 202c-4 42 -9 116 -9 149h-2
c-7 -47 -20 -118 -28 -152l-64 -274h53c10 0 13 -5 13 -11c0 -4 -1 -8 -2 -13l-11 -55c-3 -12 -6 -14 -18 -14h-218c-10 0 -13 5 -13 11c0 4 1 8 2 13l11 55c3 12 6 14 18 14h54l131 499h-55c-10 0 -13 5 -13 11c0 4 1 8 2 13l11 55c3 12 6 14 18 14h173c10 0 13 -3 15 -16
l22 -248c2 -23 3 -46 3 -69c0 -20 -2 -39 -2 -58h2c9 31 29 80 53 124l142 257c5 9 11 10 19 10h163c10 0 13 -5 13 -11c0 -4 -1 -8 -2 -13l-11 -55c-3 -12 -6 -14 -18 -14h-54l-82 -499h51c10 0 13 -5 13 -11c0 -4 -1 -8 -2 -13z" />
    <glyph glyph-name="N" unicode="N" horiz-adv-x="648" 
d="M622 592l-125 -578c-3 -13 -4 -14 -16 -14h-65c-12 0 -14 1 -18 13l-115 362c-14 44 -19 75 -25 117h-2c-4 -36 -11 -85 -21 -130l-57 -269h50c10 0 13 -5 13 -11c0 -4 -1 -8 -2 -13l-11 -55c-3 -12 -6 -14 -18 -14h-216c-10 0 -13 5 -13 11c0 4 1 8 2 13l11 55
c3 12 6 14 18 14h54l106 499h-52c-10 0 -13 4 -13 9c0 4 1 10 2 15l11 55c3 12 6 14 18 14h141c13 0 14 -1 18 -13l107 -331c16 -49 25 -91 31 -126h2c4 34 11 90 20 132l53 245h-50c-10 0 -13 5 -13 11c0 4 1 8 2 13l11 55c3 12 6 14 18 14h216c10 0 13 -5 13 -11
c0 -4 -1 -8 -2 -13l-11 -55c-3 -12 -6 -14 -18 -14h-54z" />
    <glyph glyph-name="O" unicode="O" horiz-adv-x="574" 
d="M563 494c0 -233 -102 -511 -331 -511c-118 0 -185 72 -185 207c0 234 103 512 333 512c116 0 183 -73 183 -208zM246 88c119 0 182 240 182 403c0 72 -15 106 -63 106c-119 0 -183 -241 -183 -404c0 -71 15 -105 64 -105z" />
    <glyph glyph-name="P" unicode="P" 
d="M267 69l-11 -55c-3 -12 -6 -14 -18 -14h-243c-10 0 -13 5 -13 11c0 4 1 8 2 13l11 55c3 12 6 14 18 14h54l106 499h-52c-10 0 -13 5 -13 11c0 4 1 8 2 13l11 55c3 12 6 14 18 14h228c108 0 210 -20 210 -154c0 -180 -128 -257 -278 -257h-67l-38 -181h62
c10 0 13 -5 13 -11c0 -4 -1 -8 -2 -13zM255 382h45c92 0 147 38 147 126c0 58 -40 69 -94 69h-57z" />
    <glyph glyph-name="Q" unicode="Q" horiz-adv-x="574" 
d="M503 -31l-81 -50c-4 -2 -8 -3 -12 -3c-23 0 -71 63 -87 83c-13 -6 -28 -10 -43 -13c-15 -2 -31 -3 -48 -3c-118 0 -185 72 -185 207c0 234 103 512 333 512c116 0 183 -73 183 -208c0 -160 -60 -351 -142 -429c19 -23 88 -79 88 -86c0 -4 -2 -7 -6 -10zM246 88
c119 0 182 240 182 403c0 72 -15 106 -63 106c-119 0 -183 -241 -183 -404c0 -71 15 -105 64 -105z" />
    <glyph glyph-name="R" unicode="R" horiz-adv-x="593" 
d="M256 385h35c85 0 142 38 142 133c0 62 -42 67 -94 67h-41zM538 69l-11 -55c-3 -12 -6 -14 -18 -14h-125c-10 0 -15 2 -18 13l-80 267h-53l-39 -187h52c10 0 13 -5 13 -11c0 -4 -1 -8 -2 -13l-11 -55c-3 -12 -6 -14 -18 -14h-233c-10 0 -13 5 -13 11c0 4 1 8 2 13l11 55
c3 12 6 14 18 14h54l106 499h-52c-10 0 -13 5 -13 11c0 4 1 8 2 13l11 55c3 12 6 14 18 14h212c104 0 212 -21 212 -157c0 -159 -116 -209 -161 -231l74 -204h51c10 0 13 -5 13 -11c0 -4 -1 -8 -2 -13z" />
    <glyph glyph-name="S" unicode="S" horiz-adv-x="500" 
d="M513 627l-27 -127c-3 -13 -5 -14 -18 -14h-65c-11 0 -17 3 -17 9c0 5 2 12 3 17l15 68c-11 4 -37 14 -72 14c-64 0 -111 -32 -111 -93c0 -75 93 -93 172 -158c35 -28 58 -67 58 -125c0 -134 -98 -235 -268 -235c-76 0 -179 24 -179 66c0 7 1 14 3 21l28 128
c2 13 4 14 17 14h65c11 0 17 -3 17 -11c0 -5 -1 -10 -2 -15l-16 -74c11 -4 44 -21 85 -21c61 0 115 27 115 100c0 55 -44 82 -93 111c-61 36 -132 75 -132 179c0 144 104 221 257 221c67 0 167 -25 167 -58c0 -6 -1 -11 -2 -17z" />
    <glyph glyph-name="T" unicode="T" horiz-adv-x="537" 
d="M374 69l-11 -55c-3 -12 -6 -14 -18 -14h-260c-10 0 -13 5 -13 11c0 4 1 8 2 13l11 55c3 12 6 14 18 14h66l105 492h-73l-23 -105c-3 -13 -6 -14 -18 -14h-60c-11 0 -17 2 -17 9c0 5 2 12 3 17l38 179c2 13 5 14 18 14h428c11 0 17 -2 17 -11c0 -5 -1 -10 -2 -15l-38 -179
c-3 -13 -5 -14 -18 -14h-60c-11 0 -17 2 -17 9c0 5 2 12 3 17l20 93h-74l-105 -492h67c10 0 13 -5 13 -11c0 -4 -1 -8 -2 -13z" />
    <glyph glyph-name="U" unicode="U" horiz-adv-x="648" 
d="M629 592l-76 -360c-24 -113 -60 -249 -270 -249c-124 0 -202 52 -202 164c0 29 4 57 10 85l76 360h-52c-10 0 -13 5 -13 11c0 4 1 8 2 13l11 55c3 12 6 14 18 14h234c10 0 13 -5 13 -11c0 -4 -1 -8 -2 -13l-11 -55c-3 -12 -6 -14 -18 -14h-55l-77 -361
c-6 -21 -9 -43 -9 -65c0 -55 37 -75 89 -75c89 0 117 70 132 139l77 362h-55c-10 0 -13 5 -13 11c0 4 1 8 2 13l11 55c3 12 6 14 18 14h234c10 0 13 -5 13 -11c0 -4 -1 -8 -2 -13l-11 -55c-3 -12 -6 -14 -18 -14h-56z" />
    <glyph glyph-name="V" unicode="V" horiz-adv-x="611" 
d="M616 592l-290 -591c-5 -10 -6 -11 -18 -11h-114c-12 0 -18 2 -18 16l-35 586h-43c-10 0 -13 5 -13 11c0 4 1 8 2 13l11 55c3 12 6 14 18 14h139c14 0 18 -3 18 -18l-2 -410c0 -57 -4 -120 -4 -161h2c16 45 41 109 64 161l183 417c4 9 7 11 18 11h143c10 0 13 -5 13 -11
c0 -4 -1 -8 -2 -13l-11 -55c-3 -12 -6 -14 -18 -14h-43z" />
    <glyph glyph-name="W" unicode="W" horiz-adv-x="852" 
d="M841 592l-263 -591c-5 -10 -6 -11 -18 -11h-80c-16 0 -18 5 -17 17l6 358c1 31 10 118 14 156l-2 2c-13 -45 -35 -110 -57 -159l-164 -363c-5 -10 -5 -11 -18 -11h-80c-15 0 -17 4 -17 17l7 585h-59c-10 0 -13 5 -13 11c0 4 1 8 2 13l11 55c3 12 6 14 18 14h144
c13 0 18 -3 18 -14c0 -5 -1 -11 -1 -16l-16 -343c-2 -36 -9 -111 -15 -150l2 -2c13 38 37 106 58 153l159 361c4 10 6 11 18 11h76c14 0 16 -3 16 -17v-347c0 -51 -6 -109 -11 -159l2 -2c12 49 28 103 50 161l136 351c4 11 7 13 20 13h140c10 0 13 -5 13 -11
c0 -4 -1 -8 -2 -13l-11 -55c-3 -12 -6 -14 -18 -14h-48z" />
    <glyph glyph-name="X" unicode="X" horiz-adv-x="593" 
d="M260 365l-91 227h-48c-13 0 -16 2 -16 11c0 5 0 7 2 15l11 53c2 13 6 14 12 14h135c8 0 10 -11 11 -15l41 -140c11 -36 14 -58 17 -78h2c9 19 27 51 46 79l98 144c4 7 9 10 13 10h140c13 0 17 -3 17 -11c0 -5 -1 -9 -2 -15l-11 -53c-3 -13 -6 -14 -18 -14h-47l-192 -242
l97 -257h50c9 0 17 -3 17 -12c0 -4 -1 -11 -2 -15l-11 -52c-3 -14 -11 -14 -18 -14h-132c-6 0 -10 5 -12 15l-49 161c-7 24 -13 50 -17 69c-14 -22 -24 -38 -47 -69l-125 -166c-3 -4 -6 -10 -12 -10h-145c-10 0 -17 3 -17 8c0 4 2 13 3 18l11 52c2 9 9 15 17 15h54z" />
    <glyph glyph-name="Y" unicode="Y" horiz-adv-x="574" 
d="M396 69l-11 -55c-3 -12 -6 -14 -18 -14h-260c-10 0 -13 5 -13 11c0 4 1 8 2 13l11 55c3 12 6 14 18 14h66l40 188l-95 311h-48c-10 0 -13 5 -13 11c0 4 1 8 2 13l11 55c3 12 6 14 18 14h124c14 0 16 -3 20 -15l43 -160c12 -45 17 -83 19 -112h2c15 29 36 70 63 107
l119 170c6 8 9 10 20 10h129c10 0 13 -4 13 -9c0 -4 -1 -10 -2 -15l-11 -55c-2 -11 -6 -14 -17 -14h-46l-224 -311l-40 -188h67c10 0 13 -5 13 -11c0 -4 -1 -8 -2 -13z" />
    <glyph glyph-name="Z" unicode="Z" horiz-adv-x="500" 
d="M462 155l-62 -143c-5 -10 -7 -12 -20 -12h-380c-11 0 -17 3 -17 11c0 5 1 10 2 15l16 75l376 476h-161l-17 -83c-3 -13 -5 -14 -18 -14h-68c-12 0 -17 3 -17 10c0 4 1 11 2 16l35 165c2 12 5 14 18 14h372c9 0 17 -1 17 -11c0 -5 -2 -10 -3 -15l-18 -84l-367 -460h181
l35 82c4 10 8 12 12 12c5 0 8 -2 14 -4l61 -23c7 -3 12 -6 12 -12c0 -5 -3 -10 -5 -15z" />
    <glyph glyph-name="bracketleft" unicode="[" horiz-adv-x="481" 
d="M341 -123l-13 -65c-3 -12 -6 -14 -18 -14h-206c-8 0 -13 4 -13 12c0 5 1 9 2 14l188 878c2 13 5 15 17 15h202c10 0 17 -3 17 -12c0 -5 -2 -10 -2 -14l-13 -64c-3 -13 -6 -15 -18 -15h-103l-152 -709h98c10 0 17 -2 17 -11c0 -5 -2 -10 -3 -15z" />
    <glyph glyph-name="backslash" unicode="\" horiz-adv-x="537" 
d="M358 -183l-216 876c-1 4 -2 8 -2 13c0 11 13 11 22 11h63c10 0 16 -8 19 -20l216 -875c1 -3 1 -5 1 -8c0 -9 -3 -16 -9 -16h-76c-8 0 -15 7 -18 19z" />
    <glyph glyph-name="bracketright" unicode="]" horiz-adv-x="481" 
d="M388 691l-188 -878c-2 -13 -5 -15 -17 -15h-202c-10 0 -17 3 -17 12c0 5 2 10 2 14l13 64c3 13 6 15 18 15h103l152 709h-98c-10 0 -17 2 -17 11c0 5 2 10 3 15l13 65c3 12 6 14 18 14h206c8 0 13 -4 13 -12c0 -5 -1 -9 -2 -14z" />
    <glyph glyph-name="asciicircum" unicode="^" 
d="M477 336l-60 -13c-3 -1 -5 -1 -8 -1c-4 0 -10 -1 -13 7l-94 237l-94 -237c-3 -7 -7 -7 -11 -7c-3 0 -7 0 -10 1l-60 13c-10 2 -10 6 -10 9c0 2 4 9 5 12l131 319c3 7 5 9 16 9h66c11 0 13 -2 16 -9l131 -319c1 -3 5 -10 5 -12c0 -3 0 -7 -10 -9z" />
    <glyph glyph-name="underscore" unicode="_" horiz-adv-x="500" 
d="M500 -75v-50h-500v50h500z" />
    <glyph glyph-name="quoteleft" unicode="&#x2018;" horiz-adv-x="222" 
d="M297 661l-101 -203c-5 -10 -7 -11 -18 -11h-107c-13 0 -17 4 -17 11c0 6 4 12 7 16l170 234c3 4 6 9 11 9c6 0 11 -5 15 -7l36 -22c7 -5 10 -7 10 -11c0 -6 -3 -10 -6 -16z" />
    <glyph glyph-name="a" unicode="a" horiz-adv-x="537" 
d="M321 222l35 163c-15 12 -38 36 -74 36c-85 0 -129 -174 -129 -278c0 -39 15 -60 42 -60c74 0 112 76 126 139zM486 68l-11 -56c-2 -11 -5 -12 -15 -12h-63c-90 0 -86 40 -86 93h-2c-19 -32 -75 -110 -165 -110c-73 0 -111 60 -111 165c0 198 110 363 237 363
c65 0 95 -37 111 -54l11 27c3 8 7 10 14 10h79c8 0 11 -4 11 -8s-1 -10 -2 -14l-66 -313c-7 -30 -11 -60 -11 -69h58c7 0 13 -3 13 -10c0 -4 -1 -8 -2 -12z" />
    <glyph glyph-name="b" unicode="b" horiz-adv-x="537" 
d="M201 272l-36 -172c11 -7 42 -27 82 -27c89 0 131 178 131 271c0 43 -16 67 -54 67c-78 0 -110 -75 -123 -139zM293 694l-56 -255l2 -2c13 21 61 74 139 74c89 0 120 -72 120 -155c0 -168 -86 -373 -264 -373c-85 0 -198 56 -198 77c0 6 1 11 2 15l119 552h-59
c-9 0 -13 3 -13 10c0 4 1 8 2 12l11 56c2 11 5 12 15 12h169c9 0 13 -2 13 -10c0 -5 -1 -9 -2 -13z" />
    <glyph glyph-name="c" unicode="c" horiz-adv-x="426" 
d="M328 106l25 -67c1 -3 3 -6 3 -10c0 -18 -79 -46 -136 -46c-110 0 -186 65 -186 195c0 206 126 333 278 333c69 0 125 -28 125 -43c0 -3 -1 -7 -2 -11l-27 -129c-2 -10 -5 -11 -14 -11h-68c-9 0 -14 2 -14 7c0 4 2 11 3 15l15 70c-9 1 -17 2 -25 2
c-90 0 -144 -115 -144 -243c0 -55 25 -80 74 -80c47 0 73 23 85 23c5 0 7 -3 8 -5z" />
    <glyph glyph-name="d" unicode="d" horiz-adv-x="537" 
d="M324 233l35 165c-8 4 -30 20 -64 20c-102 0 -139 -162 -139 -266c0 -43 17 -69 48 -69c61 0 105 78 120 150zM489 68l-11 -56c-2 -11 -5 -12 -15 -12h-65c-89 0 -85 41 -85 93h-2c-24 -36 -72 -110 -166 -110c-71 0 -109 50 -109 150c0 160 81 378 254 378
c49 0 71 -16 87 -25l30 141h-59c-8 0 -13 2 -13 9c0 3 1 9 2 13l11 56c2 11 5 12 15 12h167c9 0 14 -2 14 -10c0 -4 -2 -9 -2 -13l-118 -554c-6 -21 -6 -46 -6 -50h60c9 0 13 -4 13 -10c0 -4 -1 -8 -2 -12z" />
    <glyph glyph-name="e" unicode="e" horiz-adv-x="481" 
d="M372 116l25 -62c1 -3 3 -6 3 -9c0 -13 -93 -62 -195 -62c-120 0 -174 75 -174 186c0 200 129 342 283 342c94 0 148 -52 148 -132c0 -189 -254 -189 -311 -189c0 -30 -8 -107 86 -107c59 0 112 40 127 40c5 0 6 -3 8 -7zM296 421c-94 0 -122 -104 -131 -141
c43 0 177 0 177 92c0 26 -16 49 -46 49z" />
    <glyph glyph-name="f" unicode="f" horiz-adv-x="352" 
d="M261 404l-81 -411c-19 -94 -56 -195 -192 -195c-46 0 -89 6 -89 17c0 4 1 7 2 11l21 70c2 5 4 7 7 7s20 -5 41 -5c68 0 80 46 93 110l78 396h-71c-6 0 -14 1 -14 10c0 4 1 8 2 12l12 56c2 9 3 12 14 12h74l12 63c15 81 41 160 178 160c42 0 101 -13 101 -28
c0 -3 -1 -5 -2 -8l-24 -70c-3 -6 -6 -7 -8 -7c-10 0 -30 13 -60 13c-52 0 -59 -39 -68 -80l-9 -43h114c9 0 12 -5 12 -9s-2 -8 -3 -12l-18 -58c-3 -9 -4 -11 -14 -11h-108z" />
    <glyph glyph-name="g" unicode="g" horiz-adv-x="519" 
d="M464 330l-31 -148c-35 -166 -13 -394 -267 -394c-83 0 -181 31 -181 51c0 4 2 7 3 10l31 73c2 5 5 7 9 7c16 0 67 -41 147 -41c125 0 103 110 131 194l-2 2c-16 -21 -66 -84 -148 -84c-88 0 -126 70 -126 162c0 157 92 349 238 349c68 0 95 -35 118 -59c9 13 39 59 55 59
c5 0 10 -4 14 -6l61 -33c4 -2 7 -6 7 -10c0 -10 -45 -64 -59 -132zM321 222l35 163c-13 12 -38 36 -78 36c-82 0 -128 -160 -128 -262c0 -47 16 -69 51 -69c65 0 104 56 120 132z" />
    <glyph glyph-name="h" unicode="h" horiz-adv-x="537" 
d="M495 68l-11 -56c-2 -11 -5 -12 -15 -12h-82c-41 0 -90 9 -90 61c0 15 4 30 7 45l45 200c4 20 9 40 9 61c0 23 -15 39 -45 39c-76 0 -116 -124 -132 -196l-43 -198c-2 -11 -4 -12 -14 -12h-93c-8 0 -13 2 -13 10c0 6 2 15 3 20l127 597h-59c-9 0 -13 3 -13 10
c0 4 1 8 2 12l11 56c2 11 5 12 15 12h169c9 0 13 -2 13 -10c0 -5 -1 -9 -2 -13l-58 -263l2 -2c21 25 71 82 153 82c68 0 104 -36 104 -105c0 -26 -5 -53 -11 -78l-55 -238h65c9 0 13 -4 13 -10c0 -4 -1 -8 -2 -12z" />
    <glyph glyph-name="i" unicode="i" horiz-adv-x="296" 
d="M248 68l-11 -56c-2 -11 -5 -12 -15 -12h-82c-41 0 -90 9 -90 61c0 15 3 30 6 45l64 298h-77c-9 0 -13 3 -13 10c0 4 1 8 2 12l11 56c2 11 5 12 15 12h185c8 0 12 -2 12 -10c0 -5 -1 -9 -2 -13l-81 -381h65c8 0 13 -5 13 -10c0 -4 -1 -8 -2 -12zM308 642
c0 -47 -38 -83 -83 -83s-82 36 -82 83c0 50 42 82 82 82c41 0 83 -33 83 -82z" />
    <glyph glyph-name="j" unicode="j" horiz-adv-x="278" 
d="M258 471l-97 -461c-20 -94 -48 -243 -210 -243c-47 0 -98 17 -98 27c0 4 1 7 2 10l26 72c3 7 5 9 10 9c10 0 28 -18 59 -18c66 0 78 84 91 143l83 394h-76c-9 0 -13 3 -13 10c0 4 1 8 2 12l11 56c2 11 5 12 15 12h185c8 0 12 -3 12 -10c0 -5 -1 -9 -2 -13zM313 642
c0 -47 -38 -83 -83 -83s-82 36 -82 83c0 50 42 82 82 82c41 0 83 -33 83 -82z" />
    <glyph glyph-name="k" unicode="k" horiz-adv-x="519" 
d="M462 68l-11 -56c-2 -11 -5 -12 -14 -12h-112c-9 0 -11 1 -16 9l-130 233l-50 -230c-2 -11 -4 -12 -14 -12h-93c-8 0 -13 2 -13 10c0 6 2 15 3 20l127 597h-59c-9 0 -13 3 -13 10c0 4 1 8 2 12l11 56c2 11 5 12 15 12h169c9 0 13 -2 13 -10c0 -5 -1 -9 -2 -13l-88 -412
l161 120v2h-54c-9 0 -13 3 -13 10c0 4 1 8 2 12l11 56c2 11 5 12 14 12h230c9 0 13 -3 13 -10c0 -4 -1 -8 -2 -12l-11 -56c-2 -11 -5 -12 -15 -12h-42l-183 -140l102 -174h51c9 0 13 -3 13 -10c0 -4 -1 -8 -2 -12z" />
    <glyph glyph-name="l" unicode="l" horiz-adv-x="296" 
d="M235 91l10 -69c0 -3 1 -7 1 -10c0 -15 -62 -29 -101 -29c-58 0 -97 19 -97 84c0 36 4 71 12 106l98 454h-59c-9 0 -13 2 -13 8c0 4 1 10 2 14l11 56c2 11 5 12 15 12h168c9 0 13 -2 13 -8c0 -4 -1 -11 -2 -15l-113 -520c-5 -24 -12 -49 -12 -63s8 -20 23 -20
c17 0 32 7 37 7c3 0 6 -1 7 -7z" />
    <glyph glyph-name="m" unicode="m" horiz-adv-x="796" 
d="M749 68l-11 -56c-2 -11 -5 -12 -14 -12h-83c-41 0 -90 9 -90 61c0 15 4 30 7 45l45 200c4 20 9 40 9 61c0 23 -9 39 -30 39c-76 0 -116 -124 -132 -196l-43 -198c-2 -11 -4 -12 -14 -12h-93c-8 0 -13 2 -13 10c0 3 0 7 1 11l65 285c5 20 10 40 10 61c0 23 -12 39 -35 39
c-73 0 -113 -124 -129 -196l-43 -198c-2 -11 -4 -12 -14 -12h-93c-8 0 -13 2 -13 10c0 3 0 7 1 11l69 304c5 22 12 47 12 79h-59c-9 0 -13 3 -13 10c0 4 1 8 2 12l11 56c2 11 5 12 15 12h133c23 0 23 -73 23 -86c27 31 84 103 167 103c57 0 86 -35 86 -102h2
c22 33 78 102 165 102c60 0 89 -36 89 -105c0 -26 -5 -53 -11 -78l-55 -238h65c9 0 13 -3 13 -10c0 -4 -1 -8 -2 -12z" />
    <glyph glyph-name="n" unicode="n" 
d="M507 68l-11 -56c-2 -11 -5 -12 -14 -12h-83c-41 0 -90 9 -90 61c0 15 4 30 7 45l45 200c4 20 9 40 9 61c0 23 -14 39 -40 39c-79 0 -115 -124 -131 -196l-43 -198c-2 -11 -4 -12 -14 -12h-93c-8 0 -13 2 -13 10c-1 3 0 7 1 11l69 304c5 22 12 47 12 79h-59
c-9 0 -13 3 -13 10c0 4 1 8 2 12l11 56c2 11 5 12 15 12h133c23 0 23 -73 23 -86h2c24 32 83 103 171 103c54 0 94 -36 94 -105c0 -26 -5 -53 -11 -78l-55 -238h65c9 0 13 -3 13 -10c0 -4 -1 -8 -2 -12z" />
    <glyph glyph-name="o" unicode="o" horiz-adv-x="519" 
d="M480 329c0 -185 -116 -346 -278 -346c-105 0 -170 54 -170 182c0 185 118 346 284 346c101 0 164 -54 164 -182zM220 83c93 0 133 158 133 255c0 47 -18 73 -61 73c-93 0 -133 -158 -133 -255c0 -47 18 -73 61 -73z" />
    <glyph glyph-name="p" unicode="p" horiz-adv-x="537" 
d="M210 261l-35 -164c8 -4 30 -21 63 -21c102 0 139 162 139 266c0 43 -17 69 -48 69c-60 0 -104 -78 -119 -150zM195 -134l-11 -56c-2 -11 -5 -12 -14 -12h-229c-9 0 -13 3 -13 8c0 3 1 10 2 14l11 56c2 11 5 12 14 12h54l100 466c5 21 6 46 6 50h-61c-9 0 -13 3 -13 10
c0 4 1 8 2 12l11 56c2 11 5 12 14 12h136c23 0 23 -72 23 -85h2c21 43 71 102 159 102c71 0 109 -50 109 -150c0 -160 -81 -378 -254 -378c-48 0 -70 15 -86 24l-28 -119h55c9 0 13 -3 13 -10c0 -4 -1 -8 -2 -12z" />
    <glyph glyph-name="q" unicode="q" horiz-adv-x="537" 
d="M326 222l35 163c-16 13 -37 36 -76 36c-85 0 -130 -164 -130 -281c0 -38 14 -57 43 -57c70 0 113 70 128 139zM437 -134l-11 -56c-2 -11 -5 -12 -14 -12h-230c-9 0 -13 3 -13 10c0 4 1 8 2 12l11 56c2 11 5 12 14 12h59l21 101c7 32 15 59 20 75l-2 2
c-17 -23 -66 -83 -149 -83c-66 0 -110 55 -110 162c0 184 102 366 239 366c71 0 103 -45 116 -59c9 13 40 59 56 59c4 0 10 -4 14 -6l61 -33c5 -3 7 -6 7 -10c0 -10 -45 -64 -59 -132l-94 -442h51c9 0 13 -3 13 -10c0 -4 -1 -8 -2 -12z" />
    <glyph glyph-name="r" unicode="r" horiz-adv-x="389" 
d="M199 210l-43 -198c-2 -11 -4 -12 -14 -12h-93c-8 0 -13 2 -13 8c0 4 0 8 1 13l69 304c5 22 12 48 12 80h-59c-9 0 -13 3 -13 10c0 4 1 8 2 12l11 56c2 11 5 12 15 12h133c23 0 23 -73 23 -86c27 30 78 102 155 102c15 0 34 -4 34 -13c0 -3 -1 -5 -2 -8l-42 -101
c-1 -2 -4 -5 -6 -5c-7 0 -18 7 -34 7c-77 0 -121 -114 -136 -181z" />
    <glyph glyph-name="s" unicode="s" horiz-adv-x="407" 
d="M383 461l-21 -99c-2 -11 -4 -12 -14 -12h-65c-9 0 -13 3 -13 8c0 4 1 10 2 15l9 43c-9 4 -18 5 -27 5c-54 0 -78 -28 -78 -62c0 -50 66 -59 110 -84c49 -28 73 -50 73 -115c0 -105 -71 -177 -198 -177c-63 0 -167 26 -167 49c0 3 1 6 1 8l21 99c2 14 4 15 14 15h65
c8 0 14 -1 14 -9c0 -4 -1 -8 -2 -12l-10 -49c19 -7 39 -11 58 -11c59 0 89 24 89 67c0 44 -45 48 -97 77c-53 29 -86 48 -86 117c0 106 77 177 191 177c65 0 132 -23 132 -42c0 -3 0 -6 -1 -8z" />
    <glyph glyph-name="t" unicode="t" horiz-adv-x="370" 
d="M316 99l15 -63c0 -3 1 -6 1 -9c0 -16 -96 -44 -160 -44c-72 0 -120 27 -120 101c0 22 3 43 8 64l54 256h-66c-9 0 -13 3 -13 10c0 5 1 9 2 13l12 55c1 9 6 12 14 12h70l26 124c2 9 7 10 13 11l91 13c4 0 8 1 13 1c4 0 7 -4 7 -9c0 -4 -1 -9 -2 -14l-28 -126h134
c9 0 14 -4 14 -10c0 -5 -3 -9 -4 -14l-20 -56c-4 -9 -5 -10 -14 -10h-129l-48 -237c-4 -16 -7 -32 -7 -48c0 -24 13 -36 39 -36c45 0 84 23 90 23c5 0 6 -2 8 -7z" />
    <glyph glyph-name="u" unicode="u" 
d="M501 68l-11 -56c-2 -11 -5 -12 -15 -12h-72c-83 0 -83 72 -83 85h-2c-24 -32 -83 -102 -172 -102c-54 0 -94 36 -94 105c0 26 5 53 11 78l55 238h-65c-9 0 -13 3 -13 10c0 4 1 8 2 12l11 56c2 11 5 12 14 12h175c10 0 14 -3 14 -10c0 -4 -1 -8 -2 -12l-66 -284
c-5 -20 -9 -40 -9 -61c0 -23 14 -39 40 -39c80 0 116 124 132 196l43 198c1 8 4 10 14 12l82 14c4 1 14 3 19 3c6 0 10 -3 10 -8c0 -4 -1 -10 -2 -14l-74 -320c-5 -22 -12 -47 -12 -79h59c9 0 13 -3 13 -10c0 -4 -1 -8 -2 -12z" />
    <glyph glyph-name="v" unicode="v" horiz-adv-x="500" 
d="M516 465l-261 -465c-4 -7 -6 -9 -14 -9h-83c-7 0 -13 0 -14 13l-49 400h-65c-9 0 -13 5 -13 10c0 4 1 8 2 12l11 56c2 11 5 12 15 12h146c10 0 14 -3 15 -15l15 -226c3 -48 4 -124 4 -134h2c10 29 33 85 58 134l121 242c2 6 5 8 10 8c4 0 11 -2 17 -3l76 -14
c8 -2 12 -4 12 -9c0 -4 -4 -9 -5 -12z" />
    <glyph glyph-name="w" unicode="w" horiz-adv-x="722" 
d="M728 465l-241 -465c-4 -7 -6 -9 -14 -9h-83c-7 0 -15 0 -14 13l7 272c1 24 5 68 7 88l-2 2c-7 -26 -19 -59 -33 -90l-127 -276c-4 -7 -6 -9 -14 -9h-75c-7 0 -13 0 -14 13l-20 400h-65c-9 0 -13 5 -13 10c0 4 1 8 2 12l11 56c2 11 5 12 15 12h146c10 0 15 -3 15 -15
l-3 -226c0 -16 -5 -124 -5 -134h2c8 29 29 85 50 134l99 231c3 8 5 10 14 10h88c11 0 14 -3 14 -14v-244c0 -23 -8 -90 -8 -117h2c8 29 27 85 48 134l101 242c2 6 5 8 10 8c4 0 11 -2 17 -3l76 -14c8 -2 12 -4 12 -9c0 -4 -4 -9 -5 -12z" />
    <glyph glyph-name="x" unicode="x" horiz-adv-x="500" 
d="M475 68l-11 -56c-2 -11 -5 -12 -15 -12h-128c-10 0 -12 2 -16 11l-43 99c-11 26 -19 44 -26 63c-13 -18 -27 -37 -51 -64l-100 -111c-3 -3 -5 -7 -9 -7s-7 2 -9 3l-82 32c-2 1 -8 5 -8 9s3 8 6 11l202 207l-75 151h-67c-8 0 -13 5 -13 10c0 4 1 8 2 12l11 56
c2 11 5 12 14 12h129c10 0 12 -3 16 -11l34 -86c12 -29 21 -52 24 -62c10 12 28 35 50 60l90 102c3 3 6 6 10 6c3 0 6 -2 9 -3l77 -34c5 -2 10 -6 10 -11c0 -4 -3 -7 -6 -10l-188 -190l84 -165h68c9 0 13 -4 13 -10c0 -4 -1 -8 -2 -12z" />
    <glyph glyph-name="y" unicode="y" horiz-adv-x="500" 
d="M515 465l-198 -407c-52 -106 -110 -270 -255 -270c-56 0 -118 29 -118 41c0 3 2 6 3 9l36 63c4 6 5 8 9 8c12 0 37 -21 75 -21c43 0 66 20 85 50l33 62h-40c-7 0 -13 0 -14 13l-46 391h-65c-9 0 -13 5 -13 10c0 4 1 8 2 12l11 56c2 11 5 12 15 12h146c10 0 14 -3 15 -15
l20 -237c7 -58 8 -155 8 -163h2c14 36 43 111 63 159l116 257c2 6 5 8 10 8c4 0 11 -2 17 -3l76 -14c8 -2 12 -4 12 -9c0 -4 -4 -9 -5 -12z" />
    <glyph glyph-name="z" unicode="z" horiz-adv-x="444" 
d="M402 110l-65 -101c-5 -8 -6 -9 -16 -9h-330c-9 0 -14 2 -14 9c0 4 1 7 2 12l13 64l299 309h-122l-13 -60c-3 -12 -5 -12 -14 -12h-65c-9 0 -13 3 -13 10c0 4 1 8 2 13l30 137c2 9 4 12 14 12h323c8 0 13 -3 13 -10c0 -4 -1 -8 -2 -12l-14 -68l-293 -304h153l36 55
c4 6 6 9 11 9s9 -3 14 -6l45 -27c7 -5 11 -6 11 -11c0 -4 -3 -7 -5 -10z" />
    <glyph glyph-name="braceleft" unicode="{" horiz-adv-x="444" 
d="M298 -131l-12 -56c-3 -12 -5 -15 -24 -15c-75 0 -162 22 -162 126c0 20 3 40 7 59l33 159c2 8 3 17 3 25c0 42 -31 46 -65 46h-11c-11 0 -17 2 -17 12c0 5 1 10 2 15l15 67c3 13 6 14 18 14h23c55 0 76 25 85 72l30 139c31 144 125 185 235 185c10 0 17 -3 17 -11
c0 -6 -1 -11 -2 -16l-14 -63c-3 -13 -5 -15 -17 -15c-27 0 -81 5 -96 -71l-33 -153c-16 -75 -47 -98 -94 -120c20 -13 48 -31 48 -76c0 -15 -2 -31 -5 -46l-38 -172c-2 -9 -4 -18 -4 -28c0 -46 53 -43 68 -43c9 0 14 -5 14 -12c0 -6 -3 -16 -4 -22z" />
    <glyph glyph-name="bar" unicode="|" horiz-adv-x="400" 
d="M250 733v-966c0 -14 -3 -17 -17 -17h-66c-14 0 -17 3 -17 17v966c0 14 3 17 17 17h66c14 0 17 -3 17 -17z" />
    <glyph glyph-name="braceright" unicode="}" horiz-adv-x="444" 
d="M251 122l-30 -139c-31 -144 -125 -185 -235 -185c-10 0 -17 3 -17 11c0 6 1 11 2 16l14 63c3 13 5 15 17 15c27 0 81 -5 96 71l33 153c16 75 47 98 94 120c-20 13 -48 31 -48 76c0 15 2 31 5 46l38 172c2 9 4 18 4 28c0 46 -53 43 -68 43c-9 0 -14 5 -14 12
c0 6 3 16 4 22l12 56c3 12 5 15 24 15c75 0 162 -22 162 -126c0 -20 -3 -40 -7 -59l-33 -159c-2 -8 -3 -17 -3 -25c0 -42 31 -46 65 -46h11c11 0 17 -2 17 -12c0 -5 -1 -10 -2 -15l-15 -67c-3 -13 -6 -14 -18 -14h-23c-55 0 -76 -25 -85 -72z" />
    <glyph glyph-name="asciitilde" unicode="~" 
d="M477 342h60c0 -59 -15 -187 -126 -187c-42 0 -83 19 -120 41l-38 22c-36 22 -77 46 -108 46c-48 0 -51 -57 -55 -94h-60c0 59 15 187 126 187c42 0 83 -19 120 -41l38 -22c36 -22 77 -46 108 -46c48 0 51 57 55 94z" />
    <glyph glyph-name="exclamdown" unicode="&#xa1;" horiz-adv-x="352" 
d="M220 209l-62 -393c-2 -16 -4 -18 -18 -18h-106c-11 0 -17 2 -17 11c0 4 1 8 2 12l109 406c4 13 6 14 18 14h60c10 0 17 -2 17 -13c0 -3 -2 -15 -3 -19zM291 431c0 -45 -36 -80 -80 -80s-80 36 -80 80s36 80 80 80s80 -35 80 -80z" />
    <glyph glyph-name="cent" unicode="&#xa2;" 
d="M320 73l-12 -59c-3 -14 -5 -14 -25 -14h-16c-10 0 -17 2 -17 12c0 5 2 9 3 14l10 47c-64 13 -148 50 -148 193c0 248 164 333 260 333l12 59c2 13 6 14 18 14h23c10 0 17 -2 17 -11c0 -5 -2 -10 -3 -15l-10 -49c16 0 95 -27 95 -43c0 -3 -2 -6 -3 -8l-40 -65
c-3 -4 -6 -6 -10 -6c-9 0 -19 20 -62 29l-70 -331c26 7 53 26 60 26c3 0 5 -3 7 -6l26 -66c1 -3 2 -6 2 -9c0 -23 -96 -43 -117 -45zM287 173l70 333c-51 0 -127 -113 -127 -250c0 -64 35 -76 57 -83z" />
    <glyph glyph-name="sterling" unicode="&#xa3;" 
d="M512 77l-31 -65c-5 -10 -6 -12 -17 -12h-441c-14 0 -18 4 -18 10c0 4 2 11 3 16l14 65c2 13 7 14 18 14h76c28 55 46 87 46 192h-88c-10 0 -17 2 -17 11c0 5 2 10 3 15l12 53c2 12 5 14 18 14h67c-2 14 -3 28 -3 42c0 167 125 253 264 253c86 0 168 -35 168 -56
c0 -5 -3 -10 -5 -14l-32 -60c-6 -11 -13 -12 -18 -12c-18 0 -49 37 -120 37c-94 0 -142 -67 -142 -160c0 -10 3 -20 3 -30h145c10 0 17 -2 17 -11c0 -5 -2 -10 -3 -15l-12 -53c-3 -12 -5 -14 -18 -14h-124c0 -11 2 -22 2 -33c0 -79 -32 -136 -43 -159h267c10 0 15 -1 15 -8
s-3 -13 -6 -20z" />
    <glyph glyph-name="fraction" unicode="&#x2044;" horiz-adv-x="278" 
d="M370 656l-369 -663c-5 -10 -7 -10 -18 -10h-62c-11 0 -17 2 -17 9c0 6 3 12 6 17l369 665c5 9 7 11 18 11h62c11 0 17 -3 17 -9c0 -7 -3 -15 -6 -20z" />
    <glyph glyph-name="yen" unicode="&#xa5;" 
d="M390 69l-11 -55c-3 -12 -6 -14 -18 -14h-260c-10 0 -13 5 -13 11c0 4 1 8 2 13l11 55c3 12 6 14 18 14h66l38 173h-145c-10 0 -17 3 -17 10c0 5 1 9 2 13l2 8c4 14 6 15 18 15h139l-13 48h-111c-10 0 -17 3 -17 10c0 5 1 9 2 13l2 8c4 14 6 15 18 15h94l-51 186h-48
c-10 0 -13 5 -13 11c0 4 1 8 2 13l11 55c3 12 6 14 18 14h114c14 0 16 -3 20 -15l43 -160c12 -45 17 -83 19 -112h2c15 29 36 70 63 107l110 170c6 8 9 10 20 10h119c10 0 13 -5 13 -11c0 -4 -1 -8 -2 -13l-11 -55c-3 -11 -6 -14 -17 -14h-46l-129 -186h103
c10 0 17 -2 17 -10c0 -5 -1 -9 -2 -13l-2 -8c-4 -14 -6 -15 -18 -15h-128l-33 -48h146c10 0 17 -2 17 -10c0 -5 -1 -9 -2 -13l-2 -8c-4 -14 -6 -15 -18 -15h-162l-38 -173h67c10 0 13 -5 13 -11c0 -4 -1 -8 -2 -13z" />
    <glyph glyph-name="florin" unicode="&#x192;" 
d="M356 404l-103 -411c-23 -91 -62 -195 -210 -195c-29 0 -82 4 -82 16c0 4 2 8 3 12l24 66c3 7 5 9 9 9c3 0 12 -3 37 -3c72 0 83 44 100 110l102 396h-65c-10 0 -17 3 -17 9c0 4 3 14 4 18l13 49c3 12 5 14 18 14h71l17 63c23 86 51 160 184 160c45 -1 99 -13 99 -26
c0 -3 -2 -7 -3 -10l-27 -69c-2 -4 -3 -7 -8 -7c-11 0 -30 12 -60 12c-51 0 -61 -40 -71 -80l-11 -43h105c11 0 17 -2 17 -12c0 -6 -3 -11 -4 -16l-18 -49c-5 -12 -7 -13 -18 -13h-106z" />
    <glyph glyph-name="section" unicode="&#xa7;" 
d="M495 629l-30 -53c-4 -6 -8 -8 -12 -8c-17 0 -48 41 -116 41c-40 0 -72 -17 -72 -52c0 -42 78 -62 137 -105c46 -33 79 -66 79 -132c0 -100 -86 -136 -130 -152c17 -12 67 -45 67 -119c0 -92 -74 -171 -197 -171c-92 0 -195 51 -195 69c0 6 3 11 6 16l30 55
c4 8 8 10 13 10c17 0 62 -57 146 -57c44 0 67 22 67 61c0 55 -70 69 -141 115c-37 24 -74 61 -74 128c0 105 93 140 135 155c-24 16 -63 43 -63 108c0 94 76 164 193 164c85 0 162 -41 162 -60c0 -4 -3 -9 -5 -13zM269 215c34 14 92 37 92 90c0 41 -45 64 -69 78
c-32 -12 -99 -36 -99 -91c0 -44 50 -64 76 -77z" />
    <glyph glyph-name="currency" unicode="&#xa4;" 
d="M83 118l-30 30l67 67c-33 36 -47 88 -47 136c0 49 17 100 48 138l-70 70l32 31l69 -68c39 28 88 46 137 46c48 0 97 -18 136 -46l69 68l32 -31l-70 -70c35 -36 48 -89 48 -138c0 -48 -15 -100 -47 -136l67 -67l-30 -30l-66 66c-44 -33 -90 -47 -139 -47
c-50 0 -103 18 -140 47zM289 527c-97 0 -175 -80 -175 -176s79 -173 175 -173c95 0 174 78 174 173c0 96 -78 176 -174 176z" />
    <glyph glyph-name="quotesingle" unicode="'" horiz-adv-x="185" 
d="M211 678l-19 -213c-1 -17 -4 -20 -21 -20h-43c-17 0 -20 3 -21 20l-19 213c-1 4 -2 19 -2 26c0 13 10 13 20 13h87c10 0 20 0 20 -13c0 -7 -1 -22 -2 -26z" />
    <glyph glyph-name="quotedblleft" unicode="&#x201c;" horiz-adv-x="500" 
d="M551 661l-101 -203c-5 -10 -7 -11 -18 -11h-107c-13 0 -17 4 -17 11c0 6 4 12 7 16l170 234c3 4 6 9 11 9c6 0 11 -5 15 -7l36 -22c7 -5 10 -7 10 -11c0 -6 -3 -10 -6 -16zM347 661l-101 -203c-5 -10 -7 -11 -18 -11h-107c-13 0 -17 4 -17 11c0 6 4 12 7 16l170 234
c3 4 6 9 11 9c6 0 11 -5 15 -7l36 -22c7 -5 10 -7 10 -11c0 -6 -3 -10 -6 -16z" />
    <glyph glyph-name="guillemotleft" unicode="&#xab;" horiz-adv-x="593" 
d="M176 239l81 -183c1 -4 4 -8 4 -13s-2 -8 -8 -11l-58 -27c-7 -3 -9 -5 -14 -5s-8 2 -12 10l-125 230c-2 3 -3 7 -3 10c0 4 1 8 5 11l231 226c3 3 8 7 12 7c5 0 8 -3 12 -6l42 -36c3 -3 9 -7 9 -12s-5 -9 -7 -12zM416 239l81 -183c1 -4 4 -8 4 -13s-2 -8 -8 -11l-58 -27
c-7 -3 -9 -5 -14 -5s-8 2 -12 10l-125 230c-2 3 -3 7 -3 10c0 4 1 8 5 11l231 226c3 3 8 7 12 7c5 0 8 -3 12 -6l42 -36c3 -3 9 -7 9 -12s-5 -9 -7 -12z" />
    <glyph glyph-name="guilsinglleft" unicode="&#x2039;" horiz-adv-x="352" 
d="M176 239l81 -183c1 -4 4 -8 4 -13s-2 -8 -8 -11l-58 -27c-7 -3 -9 -5 -14 -5s-8 2 -12 10l-125 230c-2 3 -3 7 -3 10c0 4 1 8 5 11l231 226c3 3 8 7 12 7c5 0 8 -3 12 -6l42 -36c3 -3 9 -7 9 -12s-5 -9 -7 -12z" />
    <glyph glyph-name="guilsinglright" unicode="&#x203a;" horiz-adv-x="352" 
d="M306 233l-231 -226c-3 -3 -8 -7 -12 -7c-5 0 -8 3 -12 6l-42 36c-3 3 -9 7 -9 12s5 9 7 12l169 189l-81 183c-1 4 -4 8 -4 13s2 8 8 11l58 27c7 3 9 5 14 5s8 -2 12 -10l125 -230c2 -3 3 -7 3 -10c0 -4 -1 -8 -5 -11z" />
    <glyph glyph-name="fi" unicode="&#xfb01;" horiz-adv-x="611" 
d="M624 642c0 -47 -38 -83 -83 -83s-82 36 -82 83c0 50 42 82 82 82c41 0 83 -33 83 -82zM261 404l-81 -411c-19 -94 -56 -195 -192 -195c-46 0 -89 6 -89 17c0 4 1 7 2 11l21 70c2 5 4 7 7 7s20 -5 41 -5c68 0 80 46 93 110l78 396h-71c-6 0 -14 1 -14 10c0 4 1 8 2 12
l12 56c1 9 3 12 14 12h74l12 63c15 81 37 160 157 160c42 0 101 -13 101 -28c0 -3 -1 -5 -2 -8l-24 -70c-3 -6 -6 -7 -8 -7c-10 0 -30 13 -60 13c-34 0 -39 -40 -47 -80l-9 -43h265c8 0 12 -2 12 -10c0 -5 -1 -9 -2 -13l-81 -381h65c8 0 13 -5 13 -10c0 -4 -1 -8 -2 -12
l-11 -56c-2 -11 -5 -12 -15 -12h-82c-41 0 -90 9 -90 61c0 15 3 30 6 45l64 298h-159z" />
    <glyph glyph-name="fl" unicode="&#xfb02;" horiz-adv-x="611" 
d="M261 404l-81 -411c-19 -94 -56 -195 -192 -195c-46 0 -89 6 -89 17c0 4 1 7 2 11l21 70c2 5 4 7 7 7s20 -5 41 -5c68 0 80 46 93 110l78 396h-71c-6 0 -14 1 -14 10c0 4 1 8 2 12l12 56c1 9 3 12 14 12h74l12 63c15 81 41 160 178 160c56 0 110 -17 132 -28l101 24
c4 1 10 4 16 4c9 0 13 -2 13 -10c0 -5 -1 -9 -2 -13l-113 -520c-5 -24 -12 -49 -12 -63s8 -20 23 -20c17 0 32 7 37 7c3 0 6 -1 7 -7l10 -69c0 -3 1 -7 1 -10c0 -15 -62 -29 -101 -29c-58 0 -98 19 -98 84c0 36 5 71 13 106l90 416c-18 13 -53 28 -110 28
c-52 0 -59 -39 -68 -80l-9 -43h88c9 0 12 -5 12 -9s-2 -8 -3 -12l-18 -58c-3 -9 -4 -11 -14 -11h-82z" />
    <glyph glyph-name="endash" unicode="&#x2013;" 
d="M525 278l-15 -67c-4 -14 -6 -15 -18 -15h-454c-10 0 -17 4 -17 11c0 6 2 16 3 22l15 67c4 14 6 15 18 15h454c11 0 17 -3 17 -11c0 -6 -2 -16 -3 -22z" />
    <glyph glyph-name="dagger" unicode="&#x2020;" 
d="M364 379l-121 -567c-3 -12 -5 -14 -18 -14h-86c-11 0 -16 2 -16 11c0 5 1 10 2 15l119 555h-112c-10 0 -17 2 -17 9c0 5 2 12 3 17l12 59c2 13 5 15 18 15h117l41 192c2 13 5 14 18 14h85c10 0 17 -2 17 -11c0 -5 -2 -10 -3 -15l-38 -180h111c10 0 17 -2 17 -11
c0 -6 -2 -11 -3 -16l-12 -59c-3 -13 -5 -14 -17 -14h-117z" />
    <glyph glyph-name="daggerdbl" unicode="&#x2021;" 
d="M286 16l-43 -204c-3 -12 -5 -14 -18 -14h-86c-11 0 -16 2 -16 11c0 5 1 10 2 15l41 192h-112c-10 0 -17 2 -17 9c0 4 2 12 3 17l12 59c2 13 5 15 18 15h117l57 263h-112c-10 0 -17 2 -17 10c0 4 2 11 3 16l12 59c2 13 5 15 18 15h117l41 192c2 13 5 14 18 14h85
c10 0 17 -2 17 -11c0 -5 -2 -10 -3 -15l-38 -180h111c10 0 17 -2 17 -10c0 -4 -2 -12 -3 -17l-12 -59c-3 -13 -5 -14 -17 -14h-117l-57 -263h111c10 0 17 -2 17 -11c0 -6 -1 -11 -2 -16l-10 -58c-2 -14 -5 -15 -20 -15h-117z" />
    <glyph glyph-name="periodcentered" unicode="&#xb7;" 
d="M354 256c0 -42 -35 -76 -77 -76c-41 0 -76 34 -76 76c0 43 34 77 76 77c43 0 77 -35 77 -77z" />
    <glyph glyph-name="paragraph" unicode="&#xb6;" horiz-adv-x="704" 
d="M621 595v-761c0 -17 -3 -20 -20 -20h-60c-17 0 -20 3 -20 20v761h-68v-761c0 -17 -3 -20 -20 -20h-60c-17 0 -20 3 -20 20v327c-20 -5 -41 -8 -61 -8c-141 0 -218 100 -218 264c0 251 140 268 272 268h332c18 0 21 -3 21 -20v-50c0 -17 -4 -20 -21 -20h-57zM353 251v344
c-80 0 -152 -8 -152 -166c0 -125 28 -183 114 -183c13 0 25 2 38 5z" />
    <glyph glyph-name="bullet" unicode="&#x2022;" horiz-adv-x="500" 
d="M451 360c0 -99 -82 -180 -181 -180c-100 0 -181 81 -181 180c0 100 81 182 181 182c99 0 181 -82 181 -182z" />
    <glyph glyph-name="quotesinglbase" unicode="&#x201a;" horiz-adv-x="222" 
d="M177 98l-170 -234c-3 -4 -6 -9 -11 -9c-6 0 -11 5 -15 7l-36 22c-7 5 -10 7 -10 11c0 6 3 10 6 16l101 203c5 10 7 11 18 11h107c13 0 17 -4 17 -11c0 -6 -4 -12 -7 -16z" />
    <glyph glyph-name="quotedblbase" unicode="&#x201e;" horiz-adv-x="500" 
d="M221 98l-170 -234c-3 -4 -6 -9 -11 -9c-6 0 -11 5 -15 7l-36 22c-7 5 -10 7 -10 11c0 6 3 10 6 16l101 203c5 10 7 11 18 11h107c13 0 17 -4 17 -11c0 -6 -4 -12 -7 -16zM425 98l-170 -234c-3 -4 -6 -9 -11 -9c-6 0 -11 5 -15 7l-36 22c-7 5 -10 7 -10 11c0 6 3 10 6 16
l101 203c5 10 7 11 18 11h107c13 0 17 -4 17 -11c0 -6 -4 -12 -7 -16z" />
    <glyph glyph-name="quotedblright" unicode="&#x201d;" horiz-adv-x="500" 
d="M347 690l-170 -234c-3 -4 -6 -9 -11 -9c-6 0 -11 5 -15 7l-36 22c-7 5 -10 7 -10 11c0 6 3 10 6 16l101 203c5 10 7 11 18 11h107c13 0 17 -4 17 -11c0 -6 -4 -12 -7 -16zM551 690l-170 -234c-3 -4 -6 -9 -11 -9c-6 0 -11 5 -15 7l-36 22c-7 5 -10 7 -10 11
c0 6 3 10 6 16l101 203c5 10 7 11 18 11h107c13 0 17 -4 17 -11c0 -6 -4 -12 -7 -16z" />
    <glyph glyph-name="guillemotright" unicode="&#xbb;" horiz-adv-x="593" 
d="M546 233l-231 -226c-3 -3 -8 -7 -12 -7c-5 0 -8 3 -12 6l-42 36c-3 3 -9 7 -9 12s5 9 7 12l169 189l-81 183c-1 4 -4 8 -4 13s2 8 8 11l58 27c7 3 9 5 14 5s8 -2 12 -10l125 -230c2 -3 3 -7 3 -10c0 -4 -1 -8 -5 -11zM306 233l-231 -226c-3 -3 -8 -7 -12 -7
c-5 0 -8 3 -12 6l-42 36c-3 3 -9 7 -9 12s5 9 7 12l169 189l-81 183c-1 4 -4 8 -4 13s2 8 8 11l58 27c7 3 9 5 14 5s8 -2 12 -10l125 -230c2 -3 3 -7 3 -10c0 -4 -1 -8 -5 -11z" />
    <glyph glyph-name="ellipsis" unicode="&#x2026;" horiz-adv-x="1000" 
d="M219 90c0 -50 -41 -90 -90 -90c-50 0 -90 40 -90 90c0 49 40 90 90 90c49 0 90 -40 90 -90zM885 90c0 -50 -41 -90 -90 -90c-50 0 -90 40 -90 90c0 49 40 90 90 90c49 0 90 -40 90 -90zM552 90c0 -50 -41 -90 -90 -90c-50 0 -90 40 -90 90c0 49 40 90 90 90
c49 0 90 -40 90 -90z" />
    <glyph glyph-name="perthousand" unicode="&#x2030;" horiz-adv-x="1185" 
d="M587 58c48 0 88 68 88 158c0 29 -13 47 -41 47c-48 0 -88 -68 -88 -158c0 -29 13 -47 41 -47zM765 213c0 -129 -80 -230 -190 -230c-77 0 -119 51 -119 125c0 129 80 230 190 230c77 0 119 -51 119 -125zM663 656l-369 -663c-5 -10 -7 -10 -18 -10h-62c-11 0 -17 2 -17 9
c0 6 3 12 6 17l369 665c5 9 7 11 18 11h62c11 0 17 -3 17 -9c0 -7 -3 -15 -6 -20zM405 543c0 -129 -80 -230 -190 -230c-77 0 -119 51 -119 125c0 129 80 230 190 230c77 0 119 -51 119 -125zM227 388c48 0 88 68 88 158c0 29 -13 47 -41 47c-48 0 -88 -68 -88 -158
c0 -29 13 -47 41 -47zM1113 213c0 -129 -80 -230 -190 -230c-77 0 -119 51 -119 125c0 129 80 230 190 230c77 0 119 -51 119 -125zM935 58c48 0 88 68 88 158c0 29 -13 47 -41 47c-48 0 -88 -68 -88 -158c0 -29 13 -47 41 -47z" />
    <glyph glyph-name="questiondown" unicode="&#xbf;" horiz-adv-x="463" 
d="M308 -73l28 -71c2 -4 4 -8 4 -12c0 -20 -119 -56 -195 -56c-107 0 -172 64 -172 153c0 147 130 202 204 217l16 74c3 13 5 14 17 14h81c9 0 15 -4 15 -9c0 -4 -2 -12 -3 -16l-25 -120c-2 -12 -9 -18 -21 -20c-42 -7 -149 -30 -149 -116c0 -34 16 -62 69 -62
c59 0 106 32 122 32c5 0 8 -3 9 -8zM366 431c0 -45 -36 -80 -80 -80s-80 36 -80 80s36 80 80 80s80 -35 80 -80z" />
    <glyph glyph-name="grave" unicode="`" horiz-adv-x="360" 
d="M297 585l-14 -20c-5 -7 -9 -11 -14 -11c-6 0 -11 3 -17 6l-154 74c-5 2 -9 8 -9 13c0 4 2 10 7 16l39 56c4 7 8 11 16 11c6 0 11 -5 15 -8l137 -110c2 -2 5 -5 5 -8c0 -5 -7 -12 -11 -19z" />
    <glyph glyph-name="acute" unicode="&#xb4;" horiz-adv-x="360" 
d="M359 626l-188 -68c-6 -2 -10 -4 -16 -4c-4 0 -7 2 -11 12l-13 29c-3 5 -5 10 -5 15s3 8 11 12l178 96c3 2 10 6 16 6c4 0 7 -2 12 -12l24 -58c2 -5 5 -10 5 -15c0 -6 -2 -9 -13 -13z" />
    <glyph glyph-name="circumflex" unicode="&#x2c6;" horiz-adv-x="360" 
d="M378 593l-26 -29c-5 -5 -8 -10 -13 -10s-8 3 -12 6l-71 52l-95 -52c-6 -3 -10 -6 -16 -6c-4 0 -8 2 -12 10l-16 30c-3 5 -7 10 -7 16c0 5 3 8 9 12l138 92c4 3 10 8 16 8c5 0 9 -4 12 -7l89 -94c4 -5 11 -10 11 -16c0 -4 -4 -8 -7 -12z" />
    <glyph glyph-name="tilde" unicode="&#x2dc;" horiz-adv-x="360" 
d="M366 691l32 -26c3 -3 7 -7 7 -11c0 -11 -50 -84 -114 -84c-53 0 -61 36 -89 36c-29 0 -43 -35 -53 -35c-4 0 -7 3 -10 6l-34 28c-2 1 -5 5 -5 8c0 6 44 83 112 83c50 0 70 -36 94 -36c28 0 41 35 51 35c3 0 6 -2 9 -4z" />
    <glyph glyph-name="macron" unicode="&#xaf;" horiz-adv-x="360" 
d="M387 652l-10 -49c-2 -13 -7 -15 -22 -15h-206c-11 0 -17 2 -17 11c0 5 0 10 2 15l10 49c2 13 6 15 18 15h210c11 0 17 -2 17 -11c0 -5 0 -10 -2 -15z" />
    <glyph glyph-name="breve" unicode="&#x2d8;" horiz-adv-x="360" 
d="M341 703l60 -8c6 -1 10 -4 10 -8c0 -20 -32 -125 -160 -125c-91 0 -120 60 -120 114c0 13 3 18 16 20l56 7c4 0 9 1 11 1c4 0 7 -5 7 -10c0 -12 -3 -52 39 -52c58 0 56 62 72 62c3 0 6 -1 9 -1z" />
    <glyph glyph-name="dotaccent" unicode="&#x2d9;" horiz-adv-x="360" 
d="M319 630c0 -42 -34 -76 -76 -76s-76 34 -76 76s35 76 76 76s76 -34 76 -76z" />
    <glyph glyph-name="dieresis" unicode="&#xa8;" horiz-adv-x="360" 
d="M245 633c0 -39 -31 -69 -69 -69s-70 30 -70 69s31 70 70 70c37 0 69 -31 69 -70zM437 633c0 -39 -31 -69 -69 -69s-70 30 -70 69s31 70 70 70c37 0 69 -31 69 -70z" />
    <glyph glyph-name="ring" unicode="&#x2da;" horiz-adv-x="360" 
d="M349 646c0 -58 -47 -104 -105 -104c-57 0 -104 46 -104 104c0 59 47 105 104 105c58 0 105 -47 105 -105zM244 605c23 0 42 19 42 41c0 23 -18 42 -42 42c-22 0 -41 -18 -41 -42s20 -41 41 -41z" />
    <glyph glyph-name="cedilla" unicode="&#xb8;" horiz-adv-x="360" 
d="M233 0l-17 -56c24 -3 60 -15 60 -63c0 -61 -42 -101 -116 -101c-41 0 -77 8 -77 19c0 4 1 7 2 11l12 38c1 3 3 7 6 7c6 0 23 -10 43 -10c22 0 35 12 35 28c0 19 -18 22 -37 22c-6 0 -18 0 -18 7c0 4 1 7 2 11l25 87h80z" />
    <glyph glyph-name="hungarumlaut" unicode="&#x2dd;" horiz-adv-x="360" 
d="M290 682l-138 -121c-4 -3 -8 -7 -12 -7c-5 0 -9 4 -12 7l-18 18c-3 3 -7 7 -7 12s4 10 8 14l117 136c3 4 7 8 12 8s8 -3 12 -6l38 -36c4 -4 8 -8 8 -13s-5 -9 -8 -12zM449 682l-138 -121c-4 -3 -8 -7 -12 -7c-5 0 -9 4 -12 7l-18 18c-3 3 -7 7 -7 12s4 10 8 14l117 136
c3 4 7 8 12 8s8 -3 12 -6l38 -36c4 -4 8 -8 8 -13s-5 -9 -8 -12z" />
    <glyph glyph-name="ogonek" unicode="&#x2db;" horiz-adv-x="360" 
d="M263 -114l11 -38c1 -4 2 -8 2 -12c0 -15 -60 -38 -105 -38c-49 0 -82 23 -82 71c0 76 79 125 145 160l50 -17c-19 -14 -105 -76 -105 -115c0 -14 8 -19 23 -19c29 0 48 15 55 15c3 0 5 -4 6 -7z" />
    <glyph glyph-name="caron" unicode="&#x2c7;" horiz-adv-x="360" 
d="M375 654l-138 -92c-4 -3 -10 -8 -16 -8c-5 0 -9 4 -12 7l-89 94c-4 5 -11 10 -11 16c0 4 4 8 7 12l26 29c5 5 8 10 13 10s8 -3 12 -6l71 -52l95 52c6 3 10 6 16 6c4 0 8 -2 12 -10l16 -30c3 -5 7 -10 7 -16c0 -5 -3 -8 -9 -12z" />
    <glyph glyph-name="emdash" unicode="&#x2014;" horiz-adv-x="1000" 
d="M971 278l-15 -67c-4 -14 -6 -15 -18 -15h-900c-10 0 -17 4 -17 11c0 6 2 16 3 22l15 67c4 14 6 15 18 15h900c11 0 17 -3 17 -11c0 -6 -2 -16 -3 -22z" />
    <glyph glyph-name="AE" unicode="&#xc6;" horiz-adv-x="815" 
d="M527 306l-43 -201h142l17 79c3 13 6 15 18 15h62c11 0 17 -3 17 -10c0 -4 -2 -11 -3 -16l-33 -159c-3 -13 -6 -14 -18 -14h-403c-10 0 -13 4 -13 9c0 4 1 10 2 15l11 55c3 12 6 14 18 14h54l20 96h-159l-58 -96h52c10 0 13 -4 13 -9c0 -4 -1 -10 -2 -15l-11 -55
c-2 -12 -6 -14 -18 -14h-222c-10 0 -13 5 -13 11c0 4 1 8 2 13l11 55c3 12 6 14 18 14h43l364 572c7 11 16 20 32 20h396c10 0 17 -3 17 -11c0 -5 -2 -10 -3 -15l-32 -150c-2 -12 -4 -14 -18 -14h-62c-11 0 -17 2 -17 9c0 4 2 12 3 17l13 59h-139l-36 -169h174
c10 0 14 -5 14 -11c0 -5 -1 -9 -2 -14l-14 -66c-3 -13 -5 -14 -18 -14h-176zM394 279l73 339l-2 2c-10 -33 -32 -75 -61 -121l-138 -220h128z" />
    <glyph glyph-name="ordfeminine" unicode="&#xaa;" horiz-adv-x="481" 
d="M437 647l-42 -195c-3 -13 -4 -26 -6 -39h36c9 0 15 -4 15 -9c0 -4 -2 -14 -3 -17l-6 -30c-2 -11 -8 -14 -17 -14h-58c-30 0 -53 14 -53 47c0 6 1 11 2 15l-2 2c-11 -19 -47 -74 -112 -74c-52 0 -83 39 -83 113c0 129 76 239 166 239c48 0 65 -32 71 -43l10 22
c3 7 7 9 13 9h61c8 0 11 -5 11 -9c0 -5 -2 -13 -3 -17zM309 492l22 105c-9 6 -22 18 -46 18c-52 0 -77 -108 -77 -174c0 -18 5 -33 22 -33c38 0 68 33 79 84z" />
    <glyph glyph-name="Lslash" unicode="&#x141;" horiz-adv-x="519" 
d="M479 154l-62 -142c-4 -9 -9 -12 -18 -12h-404c-10 0 -13 5 -13 11c0 4 1 8 2 13l11 55c3 12 6 14 18 14h54l43 204l-63 -29c-5 -2 -8 -4 -12 -4s-8 2 -8 9c0 3 1 7 2 11l9 47c1 9 7 13 14 16l76 35l45 210h-52c-10 0 -13 5 -13 11c0 4 1 8 2 13l11 55c3 12 6 14 18 14
h233c10 0 13 -5 13 -11c0 -4 -1 -8 -2 -13l-11 -55c-3 -12 -6 -14 -18 -14h-54l-33 -152l122 55c4 2 8 4 12 4c6 0 9 -4 9 -8c0 -3 -1 -9 -2 -13l-9 -44c-2 -11 -8 -14 -16 -18l-134 -62l-53 -249h149l41 92c3 8 7 12 12 12s9 -3 15 -5l58 -22c10 -4 13 -6 13 -12
s-3 -11 -5 -16z" />
    <glyph glyph-name="Oslash" unicode="&#xd8;" horiz-adv-x="574" 
d="M570 694l-40 -63c12 -19 37 -51 37 -139c0 -221 -100 -509 -334 -509c-56 0 -85 15 -99 23l-31 -51c-4 -6 -7 -9 -12 -9c-4 0 -8 2 -12 4l-33 21c-7 5 -10 8 -10 12s2 9 4 12l39 61c-10 17 -36 51 -36 138c0 226 105 508 333 508c57 0 87 -15 99 -21l33 53c4 6 8 8 12 8
s8 -3 11 -4l34 -21c5 -4 10 -7 10 -11c0 -5 -3 -9 -5 -12zM165 175l258 411c-6 7 -19 21 -55 21c-155 0 -205 -333 -205 -432h2zM445 511l-258 -411c8 -9 21 -22 56 -22c164 0 204 337 204 433h-2z" />
    <glyph glyph-name="OE" unicode="&#x152;" horiz-adv-x="778" 
d="M333 115l96 455c-16 16 -38 27 -64 27c-119 0 -183 -241 -183 -404c0 -71 15 -105 64 -105c45 0 77 19 87 27zM500 306l-43 -201h142l17 79c3 13 6 15 18 15h62c11 0 17 -2 17 -9c0 -4 -2 -12 -3 -17l-33 -159c-3 -13 -6 -14 -18 -14h-336c-7 -1 -15 -5 -29 -9
c-13 -4 -32 -8 -62 -8c-118 0 -185 72 -185 207c0 234 103 512 333 512c34 0 63 -7 84 -17h332c10 0 17 -3 17 -11c0 -5 -2 -10 -3 -15l-32 -150c-3 -12 -4 -14 -18 -14h-62c-11 0 -17 2 -17 10c0 4 2 11 3 16l13 59h-139l-36 -169h174c10 0 14 -5 14 -11c0 -5 -1 -9 -2 -14
l-14 -66c-3 -13 -5 -14 -18 -14h-176z" />
    <glyph glyph-name="ordmasculine" unicode="&#xba;" horiz-adv-x="444" 
d="M425 561c0 -127 -82 -228 -195 -228c-71 0 -121 34 -121 124c0 126 84 228 199 228c69 0 117 -35 117 -124zM244 408c56 0 81 96 81 156c0 32 -11 46 -35 46c-57 0 -81 -95 -81 -156c0 -32 11 -46 35 -46z" />
    <glyph glyph-name="ae" unicode="&#xe6;" horiz-adv-x="722" 
d="M617 116l25 -62c1 -3 3 -6 3 -9c0 -13 -88 -62 -185 -62c-103 0 -138 55 -152 77c-20 -23 -70 -77 -164 -77c-80 0 -130 54 -130 132c0 173 216 178 290 178c3 17 15 61 15 81c0 36 -28 47 -61 47c-61 0 -114 -35 -126 -35c-4 0 -8 1 -11 10l-17 51c-1 4 -2 7 -2 11
c0 21 109 53 169 53c87 0 110 -38 124 -69c52 53 108 69 164 69c92 0 146 -52 146 -132c0 -176 -244 -176 -299 -176c0 -33 -8 -120 86 -120c54 0 103 40 117 40c5 0 6 -3 8 -7zM277 164l9 44c-30 0 -157 11 -157 -84c0 -30 15 -51 48 -51c46 0 87 27 100 91zM420 296
c41 0 168 0 168 76c0 26 -16 49 -47 49c-87 0 -113 -91 -121 -125z" />
    <glyph glyph-name="dotlessi" unicode="&#x131;" horiz-adv-x="296" 
d="M248 68l-11 -56c-2 -11 -5 -12 -15 -12h-82c-41 0 -90 9 -90 61c0 15 3 30 6 45l64 298h-77c-9 0 -13 3 -13 10c0 4 1 8 2 12l11 56c2 11 5 12 15 12h185c8 0 12 -2 12 -10c0 -5 -1 -9 -2 -13l-81 -381h65c8 0 13 -5 13 -10c0 -4 -1 -8 -2 -12z" />
    <glyph glyph-name="lslash" unicode="&#x142;" horiz-adv-x="333" 
d="M255 91l10 -69c0 -3 1 -7 1 -10c0 -15 -62 -29 -101 -29c-58 0 -99 19 -99 84c0 36 5 71 13 106l14 63l-97 -63c-3 -2 -8 -4 -11 -4c-4 0 -7 1 -7 6c0 3 1 7 1 9l12 59c2 7 3 11 10 16l112 73l65 295h-59c-9 0 -13 3 -13 8c0 4 1 10 2 14l11 56c2 11 5 12 15 12h168
c9 0 13 -2 13 -8c0 -4 -1 -11 -2 -15l-59 -272l96 65c3 2 6 4 9 4c4 0 5 -2 5 -5c0 -2 -1 -7 -2 -10l-12 -60c-1 -7 -3 -12 -11 -17l-106 -71l-33 -154c-5 -24 -12 -49 -12 -63s8 -20 23 -20c17 0 32 7 37 7c3 0 6 -1 7 -7z" />
    <glyph glyph-name="oslash" unicode="&#xf8;" horiz-adv-x="519" 
d="M494 501l-44 -55c9 -16 27 -51 27 -116c0 -190 -119 -347 -275 -347c-57 0 -90 18 -99 24l-37 -48c-3 -3 -6 -7 -10 -7s-8 3 -11 6l-25 20c-3 2 -7 5 -7 9s2 7 5 10l41 51c-7 13 -25 46 -25 117c0 189 122 346 277 346c52 0 76 -14 94 -24l41 51c2 3 6 7 10 7
c3 0 6 -2 9 -4l26 -21c2 -2 7 -6 7 -10c0 -3 -2 -6 -4 -9zM151 151l192 252c-9 7 -20 18 -41 18c-84 0 -153 -179 -153 -270h2zM360 347l-193 -254c9 -8 20 -20 49 -20c136 0 146 240 146 274h-2z" />
    <glyph glyph-name="oe" unicode="&#x153;" horiz-adv-x="759" 
d="M655 116l25 -62c1 -3 3 -6 3 -9c0 -13 -93 -62 -195 -62c-81 0 -110 26 -139 64c-30 -22 -78 -64 -147 -64c-105 0 -170 54 -170 182c0 161 102 346 274 346c50 0 96 -18 124 -69c19 30 74 69 167 69c92 0 146 -52 146 -132c0 -191 -252 -191 -309 -191
c0 -30 -8 -105 86 -105c59 0 112 40 127 40c5 0 6 -3 8 -7zM448 281c43 0 178 0 178 91c0 26 -16 49 -47 49c-94 0 -122 -103 -131 -140zM220 83c84 0 118 186 118 255c0 47 -12 73 -46 73c-93 0 -133 -158 -133 -255c0 -47 18 -73 61 -73z" />
    <glyph glyph-name="germandbls" unicode="&#xdf;" horiz-adv-x="593" 
d="M240 505l-109 -509c-17 -80 -44 -198 -193 -198c-43 0 -83 6 -83 17c0 4 1 7 2 11l21 71c2 5 4 7 8 7s16 -6 37 -6c71 0 78 49 93 120l103 480c22 107 66 226 248 226c103 0 173 -42 173 -134c0 -64 -33 -100 -65 -128c-33 -27 -66 -46 -66 -77c0 -28 34 -50 68 -81
c34 -32 68 -73 68 -142c0 -112 -87 -179 -209 -179c-56 0 -128 16 -128 32c0 5 2 12 3 16l20 60c2 7 8 8 11 8c13 0 49 -26 106 -26c56 0 87 28 87 69c0 43 -36 72 -73 103c-36 31 -73 65 -73 117c0 58 34 89 68 117c34 29 68 53 68 96c0 30 -26 49 -67 49
c-88 0 -106 -60 -118 -119z" />
    <glyph glyph-name="onesuperior" unicode="&#xb9;" horiz-adv-x="352" 
d="M156 332l52 243l-54 -27c-4 -2 -9 -5 -14 -5c-7 0 -9 5 -11 10l-10 21c-2 4 -4 8 -4 12c0 7 4 10 10 13l114 65c5 3 10 4 17 4h38c10 0 15 -2 15 -10c0 -4 0 -7 -1 -10l-67 -316h41c8 0 14 -2 14 -8c0 -3 -1 -10 -2 -13l-6 -30c-2 -12 -6 -14 -18 -14h-184
c-8 0 -14 3 -14 11c0 3 1 7 2 10l6 30c2 12 6 14 18 14h58z" />
    <glyph glyph-name="logicalnot" unicode="&#xac;" 
d="M505 369v-225c0 -14 -3 -17 -17 -17h-66c-14 0 -17 3 -17 17v142h-338c-14 0 -17 3 -17 17v66c0 14 4 17 17 17h421c14 0 17 -3 17 -17z" />
    <glyph glyph-name="mu" unicode="&#xb5;" horiz-adv-x="574" 
d="M201 -134l-11 -56c-2 -11 -5 -12 -14 -12h-229c-9 0 -13 3 -13 10c0 4 1 8 2 12l11 56c2 11 5 12 14 12h54l110 516h-65c-9 0 -13 3 -13 10c0 4 1 8 2 12l11 56c2 11 5 12 14 12h176c10 0 14 -3 14 -10c0 -4 -1 -8 -2 -12l-66 -284c-4 -20 -9 -40 -9 -61
c0 -23 14 -39 39 -39c80 0 117 124 132 196l43 198c2 8 4 10 14 12l82 14c5 1 14 3 20 3c5 0 9 -3 9 -8c0 -4 -1 -10 -2 -14l-74 -320c-5 -22 -12 -47 -12 -79h59c9 0 13 -3 13 -10c0 -4 -1 -8 -2 -12l-11 -56c-2 -11 -5 -12 -15 -12h-72c-83 0 -83 72 -83 85h-2
c-19 -28 -71 -102 -125 -102c-20 0 -31 4 -43 17l-22 -112h55c9 0 13 -3 13 -10c0 -4 -1 -8 -2 -12z" />
    <glyph glyph-name="trademark" unicode="&#x2122;" horiz-adv-x="704" 
d="M144 410v18c34 3 53 2 53 47v191c-58 -10 -59 -32 -78 -83h-18l5 102h234l5 -102h-18c-19 51 -20 73 -78 83v-191c0 -44 12 -43 48 -47v-18h-153zM358 410v18c34 6 46 7 46 47v156c0 36 -5 34 -34 36v18h100l55 -181h2l63 181h108v-18c-32 -4 -42 -3 -42 -42v-150
c0 -43 9 -43 37 -47v-18h-124v18c24 5 35 6 35 47v184h-2l-84 -249h-16l-73 240h-2v-175c0 -41 8 -42 29 -47v-18h-98z" />
    <glyph glyph-name="Eth" unicode="&#xd0;" horiz-adv-x="611" 
d="M139 685h234c124 0 225 -48 225 -212c0 -81 -25 -473 -338 -473h-265c-10 0 -13 5 -13 11c0 4 1 8 2 13l11 55c3 12 6 14 18 14h54l47 224h-51c-11 0 -17 3 -17 11c0 4 1 8 2 12l10 47c2 13 5 15 18 15h56l41 190h-52c-10 0 -13 5 -13 11c0 4 1 8 2 13l11 55
c3 12 6 14 18 14zM196 105h72c154 0 195 231 195 358c0 106 -51 117 -123 117h-44l-37 -178h97c10 0 17 -3 17 -11c0 -4 -1 -8 -2 -12l-10 -47c-2 -13 -5 -15 -18 -15h-102z" />
    <glyph glyph-name="onehalf" unicode="&#xbd;" horiz-adv-x="833" 
d="M640 656l-369 -663c-5 -10 -7 -10 -18 -10h-62c-11 0 -17 2 -17 9c0 6 3 12 6 17l369 665c5 9 7 11 18 11h62c11 0 17 -3 17 -9c0 -7 -3 -15 -6 -20zM140 332l52 243l-54 -27c-4 -2 -9 -5 -14 -5c-7 0 -9 5 -11 10l-10 21c-2 4 -4 8 -4 12c0 7 4 10 10 13l114 65
c5 3 10 4 17 4h38c10 0 15 -2 15 -10c0 -4 0 -7 -1 -10l-67 -316h41c8 0 14 -2 14 -8c0 -3 -1 -10 -2 -13l-6 -30c-2 -12 -6 -14 -18 -14h-184c-8 0 -14 3 -14 11c0 3 1 7 2 10l6 30c2 12 6 14 18 14h58zM576 278l-36 16c-5 2 -9 5 -9 11c0 20 52 106 157 106
c65 0 107 -34 107 -101c0 -68 -37 -96 -103 -142c-60 -41 -103 -54 -118 -93h149c10 0 16 -2 16 -10c0 -3 -1 -9 -2 -12l-8 -39c-2 -12 -7 -14 -18 -14h-231c-6 0 -12 2 -12 8c0 48 29 93 50 119c68 82 187 102 187 176c0 20 -12 33 -35 33c-53 0 -62 -60 -85 -60
c-3 0 -5 0 -9 2z" />
    <glyph glyph-name="plusminus" unicode="&#xb1;" 
d="M505 23v-66c0 -14 -3 -17 -17 -17h-420c-14 0 -17 3 -17 17v66c0 14 4 17 17 17h420c14 0 17 -3 17 -17zM328 207v-114c0 -14 -3 -17 -17 -17h-66c-14 0 -17 3 -17 17v114h-160c-14 0 -17 3 -17 17v66c0 14 4 17 17 17h160v160c0 14 3 17 17 17h66c14 0 17 -3 17 -17
v-160h160c14 0 17 -3 17 -17v-66c0 -14 -3 -17 -17 -17h-160z" />
    <glyph glyph-name="Thorn" unicode="&#xde;" 
d="M267 69l-11 -55c-3 -12 -6 -14 -18 -14h-243c-10 0 -13 5 -13 11c0 4 1 8 2 13l11 55c3 12 6 14 18 14h54l106 499h-52c-10 0 -13 5 -13 11c0 4 1 8 2 13l11 55c3 12 6 14 18 14h231c10 0 13 -5 13 -11c0 -4 -1 -8 -2 -13l-11 -55c-3 -12 -6 -14 -18 -14h-52l-12 -54h50
c108 0 210 -20 210 -147c0 -164 -128 -241 -276 -241h-66l-12 -57h62c10 0 13 -5 13 -11c0 -4 -1 -8 -2 -13zM225 243h48c90 0 145 41 145 129c0 62 -40 73 -94 73h-56z" />
    <glyph glyph-name="onequarter" unicode="&#xbc;" horiz-adv-x="833" 
d="M719 87l-16 -73c-2 -11 -6 -14 -18 -14h-51c-10 0 -16 1 -16 11c0 3 1 7 2 10l14 67h-151c-9 0 -15 1 -15 10c0 4 0 7 1 10l12 54c2 10 2 9 9 17l202 237c3 4 7 7 12 7c4 0 8 -2 11 -3l40 -18c4 -2 10 -6 10 -11c0 -4 -2 -8 -5 -11l-194 -227h82l38 97c4 9 5 12 18 12h33
c9 0 15 -1 15 -8c0 -3 -1 -9 -2 -12l-17 -86h30c11 0 16 -2 16 -9c0 -3 -1 -9 -2 -12l-7 -34c-2 -11 -5 -14 -18 -14h-33zM670 656l-369 -663c-5 -10 -7 -10 -18 -10h-62c-11 0 -17 2 -17 9c0 6 3 12 6 17l369 665c5 9 7 11 18 11h62c11 0 17 -3 17 -9c0 -7 -3 -15 -6 -20z
M146 332l52 243l-54 -27c-4 -2 -9 -5 -14 -5c-7 0 -9 5 -11 10l-10 21c-2 4 -4 8 -4 12c0 7 4 10 10 13l114 65c5 3 10 4 17 4h38c10 0 15 -2 15 -10c0 -4 0 -7 -1 -10l-67 -316h41c8 0 14 -2 14 -8c0 -3 -1 -10 -2 -13l-6 -30c-2 -12 -6 -14 -18 -14h-184
c-8 0 -14 3 -14 11c0 3 1 7 2 10l6 30c2 12 6 14 18 14h58z" />
    <glyph glyph-name="divide" unicode="&#xf7;" 
d="M349 85c0 -40 -32 -71 -71 -71s-71 31 -71 71s31 71 71 71c39 0 71 -31 71 -71zM505 290v-66c0 -14 -3 -17 -17 -17h-420c-14 0 -17 3 -17 17v66c0 14 4 17 17 17h420c14 0 17 -3 17 -17zM349 429c0 -41 -32 -71 -71 -71s-71 31 -71 71s31 71 71 71c39 0 71 -32 71 -71z
" />
    <glyph glyph-name="brokenbar" unicode="&#xa6;" horiz-adv-x="400" 
d="M250 658v-316c0 -14 -3 -17 -17 -17h-66c-13 0 -17 3 -17 17v316c0 14 4 17 17 17h66c13 0 17 -3 17 -17zM250 158v-316c0 -14 -3 -17 -17 -17h-66c-13 0 -17 3 -17 17v316c0 15 4 17 17 17h66c13 0 17 -2 17 -17z" />
    <glyph glyph-name="degree" unicode="&#xb0;" 
d="M485 544c0 -87 -71 -157 -158 -157c-86 0 -157 70 -157 157c0 89 72 158 157 158c87 0 158 -69 158 -158zM327 469c43 0 76 34 76 75c0 42 -34 76 -76 76c-41 0 -75 -33 -75 -76c0 -42 33 -75 75 -75z" />
    <glyph glyph-name="thorn" unicode="&#xfe;" horiz-adv-x="519" 
d="M191 261l-35 -164c8 -4 30 -21 63 -21c102 0 139 162 139 266c0 43 -17 69 -48 69c-60 0 -104 -78 -119 -150zM176 -134l-11 -56c-2 -11 -5 -12 -14 -12h-229c-9 0 -13 3 -13 10c0 4 1 8 2 12l11 56c2 11 5 12 14 12h54l159 739h-61c-9 0 -13 3 -13 10c0 4 1 8 2 12
l11 56c2 11 5 12 14 12h173c8 0 11 -4 11 -10c0 -4 -1 -11 -2 -16l-54 -251l2 -2c21 32 63 73 137 73c71 0 109 -50 109 -150c0 -160 -81 -378 -254 -378c-48 0 -70 15 -86 24l-28 -119h55c9 0 13 -3 13 -10c0 -4 -1 -8 -2 -12z" />
    <glyph glyph-name="threequarters" unicode="&#xbe;" horiz-adv-x="833" 
d="M738 87l-16 -73c-2 -11 -6 -14 -18 -14h-51c-10 0 -16 1 -16 11c0 3 1 7 2 10l14 67h-151c-9 0 -15 1 -15 10c0 4 0 7 1 10l12 54c2 10 2 9 9 17l202 237c3 4 7 7 12 7c4 0 8 -2 11 -3l40 -18c4 -2 10 -6 10 -11c0 -4 -2 -8 -5 -11l-194 -227h82l38 97c4 9 5 12 18 12h33
c9 0 15 -1 15 -8c0 -3 -1 -9 -2 -12l-17 -86h30c11 0 16 -2 16 -9c0 -3 -1 -9 -2 -12l-7 -34c-2 -11 -5 -14 -18 -14h-33zM680 656l-369 -663c-5 -10 -7 -10 -18 -10h-62c-11 0 -17 2 -17 9c0 6 3 12 6 17l369 665c5 9 7 11 18 11h62c11 0 17 -3 17 -9c0 -7 -3 -15 -6 -20z
M139 574l-31 26c-3 2 -5 5 -5 8c0 15 58 70 134 70c69 0 111 -34 111 -89c0 -56 -27 -79 -73 -107c22 -14 48 -24 48 -80c0 -88 -70 -145 -172 -145c-53 0 -119 21 -119 35c0 3 1 6 3 9l20 42c2 6 8 9 13 9c9 0 36 -20 89 -20c47 0 76 26 76 66c0 38 -34 41 -65 41h-20
c-10 0 -16 3 -16 10c0 4 1 7 2 11l8 41c1 9 6 13 18 13h25c47 0 73 24 73 60c0 21 -15 29 -32 29c-45 0 -65 -33 -78 -33c-3 0 -7 2 -9 4z" />
    <glyph glyph-name="twosuperior" unicode="&#xb2;" horiz-adv-x="352" 
d="M152 545l-36 16c-5 2 -9 5 -9 11c0 20 52 106 157 106c65 0 107 -34 107 -101c0 -68 -37 -96 -103 -142c-60 -41 -103 -54 -118 -93h149c10 0 16 -2 16 -10c0 -3 -1 -9 -2 -12l-8 -39c-2 -12 -7 -14 -18 -14h-231c-6 0 -12 2 -12 8c0 48 29 93 50 119
c68 82 187 102 187 176c0 20 -12 33 -35 33c-53 0 -62 -60 -85 -60c-3 0 -5 0 -9 2z" />
    <glyph glyph-name="registered" unicode="&#xae;" 
d="M196 353v19c29 3 37 5 37 40v143c0 33 -8 32 -37 36v20h122c62 0 109 -10 109 -65c0 -49 -44 -58 -73 -65c62 -37 42 -92 68 -92c15 0 16 26 16 33h20c0 -22 -9 -69 -53 -69c-86 0 -32 122 -106 122h-11v-60c0 -39 4 -38 38 -43v-19h-130zM288 553v-57h21
c29 0 57 7 57 45c0 30 -9 50 -43 50s-35 -13 -35 -38zM312 252c-126 0 -234 99 -234 225s108 225 234 225s234 -99 234 -225s-108 -225 -234 -225zM113 477c0 -106 91 -190 199 -190s199 84 199 190s-91 190 -199 190s-199 -84 -199 -190z" />
    <glyph glyph-name="minus" unicode="&#x2212;" 
d="M505 290v-66c0 -14 -3 -17 -17 -17h-420c-14 0 -17 3 -17 17v66c0 14 4 17 17 17h420c14 0 17 -3 17 -17z" />
    <glyph glyph-name="eth" unicode="&#xf0;" horiz-adv-x="519" 
d="M513 638l-94 -28c9 -23 61 -161 61 -279c0 -199 -120 -348 -278 -348c-103 0 -168 54 -168 181c0 179 121 330 244 330c34 0 49 -8 70 -18c-6 31 -16 79 -23 104l-94 -28c-3 -1 -8 -3 -11 -3s-6 1 -8 9l-9 30c-1 4 -2 8 -2 11c0 5 3 7 8 9l96 29c-28 68 -46 83 -46 93
c0 6 10 7 20 7h57c38 0 47 -40 63 -71l93 26c3 1 7 2 11 2c2 0 6 -1 8 -8l9 -29c1 -3 2 -7 2 -10c0 -5 -4 -8 -9 -9zM220 83c95 0 133 156 133 254c0 48 -22 72 -60 72c-90 0 -132 -149 -132 -252c0 -48 18 -74 59 -74z" />
    <glyph glyph-name="multiply" unicode="&#xd7;" 
d="M348 256l114 -113c3 -3 8 -7 8 -11c0 -5 -4 -9 -8 -13l-47 -47c-3 -3 -7 -8 -12 -8s-8 4 -12 8l-113 115l-113 -115c-4 -5 -8 -8 -12 -8c-5 0 -9 5 -12 8l-48 47c-3 2 -7 7 -7 12s4 9 7 12l115 113l-115 113c-3 2 -7 7 -7 12s4 9 7 12l48 48c3 3 7 7 11 7c5 0 9 -3 13 -7
l113 -115l113 115c3 3 7 7 12 7c4 0 8 -3 12 -7l47 -47c4 -4 8 -8 8 -12c0 -5 -4 -10 -8 -13z" />
    <glyph glyph-name="threesuperior" unicode="&#xb3;" horiz-adv-x="352" 
d="M145 574l-31 26c-3 2 -5 5 -5 8c0 15 58 70 134 70c69 0 111 -34 111 -89c0 -56 -27 -79 -73 -107c22 -14 48 -24 48 -80c0 -88 -70 -145 -172 -145c-53 0 -119 21 -119 35c0 3 1 6 3 9l20 42c2 6 8 9 13 9c9 0 36 -20 89 -20c47 0 76 26 76 66c0 38 -34 41 -65 41h-20
c-10 0 -16 3 -16 10c0 4 1 7 2 11l8 41c1 9 6 13 18 13h25c47 0 73 24 73 60c0 21 -15 29 -32 29c-45 0 -65 -33 -78 -33c-3 0 -7 2 -9 4z" />
    <glyph glyph-name="copyright" unicode="&#xa9;" 
d="M397 437l21 1c-4 -31 -11 -97 -101 -97c-75 0 -129 56 -129 134c0 83 65 144 123 144c40 0 54 -16 71 -16c8 0 12 9 17 15h15v-102l-15 -3c-13 32 -30 85 -75 85c-47 0 -71 -44 -71 -122c0 -67 25 -112 74 -112c56 0 66 52 70 73zM310 252c-126 0 -234 99 -234 225
s108 225 234 225s234 -99 234 -225s-108 -225 -234 -225zM111 477c0 -106 91 -190 199 -190s199 84 199 190c0 107 -91 190 -199 190s-199 -83 -199 -190z" />
    <glyph glyph-name="Aacute" unicode="&#xc1;" horiz-adv-x="630" 
d="M573 69l-11 -55c-3 -12 -6 -14 -18 -14h-222c-10 0 -13 5 -13 11c0 4 1 8 2 13l11 55c3 12 6 14 18 14h52l-5 89h-179l-40 -89h52c10 0 13 -5 13 -11c0 -4 -1 -8 -2 -13l-11 -55c-3 -12 -6 -14 -18 -14h-222c-10 0 -13 5 -13 11c0 4 1 8 2 13l11 55c3 12 6 14 18 14h43
l294 583c5 9 7 9 18 9h96c12 0 17 0 18 -17l52 -575h43c10 0 13 -5 13 -11c0 -4 -1 -8 -2 -13zM323 445l-76 -173h134l-9 174c-2 34 -4 64 -4 103h-2c-7 -28 -26 -64 -43 -104zM544 808l-188 -68c-6 -2 -10 -4 -16 -4c-4 0 -7 2 -11 12l-13 29c-3 5 -5 10 -5 15s3 8 11 12
l178 96c3 2 10 6 16 6c4 0 7 -2 12 -12l24 -58c2 -5 5 -10 5 -15c0 -6 -2 -9 -13 -13z" />
    <glyph glyph-name="Acircumflex" unicode="&#xc2;" horiz-adv-x="630" 
d="M573 69l-11 -55c-3 -12 -6 -14 -18 -14h-222c-10 0 -13 5 -13 11c0 4 1 8 2 13l11 55c3 12 6 14 18 14h52l-5 89h-179l-40 -89h52c10 0 13 -5 13 -11c0 -4 -1 -8 -2 -13l-11 -55c-3 -12 -6 -14 -18 -14h-222c-10 0 -13 5 -13 11c0 4 1 8 2 13l11 55c3 12 6 14 18 14h43
l294 583c5 9 7 9 18 9h96c12 0 17 0 18 -17l52 -575h43c10 0 13 -5 13 -11c0 -4 -1 -8 -2 -13zM323 445l-76 -173h134l-9 174c-2 34 -4 64 -4 103h-2c-7 -28 -26 -64 -43 -104zM523 775l-26 -29c-5 -5 -8 -10 -13 -10s-8 3 -12 6l-71 52l-95 -52c-6 -3 -10 -6 -16 -6
c-4 0 -8 2 -12 10l-16 30c-3 5 -7 10 -7 16c0 5 3 8 9 12l138 92c4 3 10 8 16 8c5 0 9 -4 12 -7l89 -94c4 -5 11 -10 11 -16c0 -4 -4 -8 -7 -12z" />
    <glyph glyph-name="Adieresis" unicode="&#xc4;" horiz-adv-x="630" 
d="M573 69l-11 -55c-3 -12 -6 -14 -18 -14h-222c-10 0 -13 5 -13 11c0 4 1 8 2 13l11 55c3 12 6 14 18 14h52l-5 89h-179l-40 -89h52c10 0 13 -5 13 -11c0 -4 -1 -8 -2 -13l-11 -55c-3 -12 -6 -14 -18 -14h-222c-10 0 -13 5 -13 11c0 4 1 8 2 13l11 55c3 12 6 14 18 14h43
l294 583c5 9 7 9 18 9h96c12 0 17 0 18 -17l52 -575h43c10 0 13 -5 13 -11c0 -4 -1 -8 -2 -13zM323 445l-76 -173h134l-9 174c-2 34 -4 64 -4 103h-2c-7 -28 -26 -64 -43 -104zM380 815c0 -39 -31 -69 -69 -69s-70 30 -70 69s31 70 70 70c37 0 69 -31 69 -70zM572 815
c0 -39 -31 -69 -69 -69s-70 30 -70 69s31 70 70 70c37 0 69 -31 69 -70z" />
    <glyph glyph-name="Agrave" unicode="&#xc0;" horiz-adv-x="630" 
d="M573 69l-11 -55c-3 -12 -6 -14 -18 -14h-222c-10 0 -13 5 -13 11c0 4 1 8 2 13l11 55c3 12 6 14 18 14h52l-5 89h-179l-40 -89h52c10 0 13 -5 13 -11c0 -4 -1 -8 -2 -13l-11 -55c-3 -12 -6 -14 -18 -14h-222c-10 0 -13 5 -13 11c0 4 1 8 2 13l11 55c3 12 6 14 18 14h43
l294 583c5 9 7 9 18 9h96c12 0 17 0 18 -17l52 -575h43c10 0 13 -5 13 -11c0 -4 -1 -8 -2 -13zM323 445l-76 -173h134l-9 174c-2 34 -4 64 -4 103h-2c-7 -28 -26 -64 -43 -104zM432 767l-14 -20c-5 -7 -9 -11 -14 -11c-6 0 -11 3 -17 6l-154 74c-5 2 -9 8 -9 13
c0 4 2 10 7 16l39 56c4 7 8 11 16 11c6 0 11 -5 15 -8l137 -110c2 -2 5 -5 5 -8c0 -5 -7 -12 -11 -19z" />
    <glyph glyph-name="Aring" unicode="&#xc5;" horiz-adv-x="630" 
d="M573 69l-11 -55c-3 -12 -6 -14 -18 -14h-222c-10 0 -13 5 -13 11c0 4 1 8 2 13l11 55c3 12 6 14 18 14h52l-5 89h-179l-40 -89h52c10 0 13 -5 13 -11c0 -4 -1 -8 -2 -13l-11 -55c-3 -12 -6 -14 -18 -14h-222c-10 0 -13 5 -13 11c0 4 1 8 2 13l11 55c3 12 6 14 18 14h43
l294 583c5 9 7 9 18 9h96c12 0 17 0 18 -17l52 -575h43c10 0 13 -5 13 -11c0 -4 -1 -8 -2 -13zM323 445l-76 -173h134l-9 174c-2 34 -4 64 -4 103h-2c-7 -28 -26 -64 -43 -104zM509 828c0 -58 -47 -104 -105 -104c-57 0 -104 46 -104 104c0 59 47 105 104 105
c58 0 105 -47 105 -105zM404 787c23 0 42 19 42 41c0 23 -18 42 -42 42c-22 0 -41 -18 -41 -42s20 -41 41 -41z" />
    <glyph glyph-name="Atilde" unicode="&#xc3;" horiz-adv-x="630" 
d="M573 69l-11 -55c-3 -12 -6 -14 -18 -14h-222c-10 0 -13 5 -13 11c0 4 1 8 2 13l11 55c3 12 6 14 18 14h52l-5 89h-179l-40 -89h52c10 0 13 -5 13 -11c0 -4 -1 -8 -2 -13l-11 -55c-3 -12 -6 -14 -18 -14h-222c-10 0 -13 5 -13 11c0 4 1 8 2 13l11 55c3 12 6 14 18 14h43
l294 583c5 9 7 9 18 9h96c12 0 17 0 18 -17l52 -575h43c10 0 13 -5 13 -11c0 -4 -1 -8 -2 -13zM323 445l-76 -173h134l-9 174c-2 34 -4 64 -4 103h-2c-7 -28 -26 -64 -43 -104zM521 873l32 -26c3 -3 7 -7 7 -11c0 -11 -50 -84 -114 -84c-53 0 -61 36 -89 36
c-29 0 -43 -35 -53 -35c-4 0 -7 3 -10 6l-34 28c-2 1 -5 5 -5 8c0 6 44 83 112 83c50 0 70 -36 94 -36c28 0 41 35 51 35c3 0 6 -2 9 -4z" />
    <glyph glyph-name="Ccedilla" unicode="&#xc7;" horiz-adv-x="500" 
d="M271 -17l-12 -39c24 -3 60 -15 60 -63c0 -61 -42 -101 -116 -101c-41 0 -77 8 -77 19c0 4 1 7 2 11l12 38c1 3 3 7 6 7c6 0 23 -10 43 -10c22 0 35 12 35 28c0 19 -18 22 -37 22c-6 0 -18 0 -18 7c0 4 1 7 2 11l22 77c-85 22 -140 83 -140 228c0 249 110 484 340 484
c79 0 156 -33 156 -58c0 -6 -2 -14 -3 -18l-25 -120c-3 -15 -7 -15 -18 -15h-67c-11 0 -17 3 -17 12c0 6 2 9 4 19l13 64c-16 4 -32 8 -49 8c-131 0 -199 -212 -199 -376c0 -98 31 -127 105 -127c15 0 29 2 44 5l19 89c2 9 4 14 17 14h67c11 0 17 -3 17 -11
c0 -5 -1 -11 -2 -15l-29 -136c-6 -33 -116 -54 -155 -54z" />
    <glyph glyph-name="Eacute" unicode="&#xc9;" horiz-adv-x="519" 
d="M236 306l-43 -201h142l17 79c3 13 6 15 18 15h62c11 0 17 -3 17 -10c0 -4 -2 -11 -3 -16l-33 -159c-3 -13 -6 -14 -18 -14h-403c-10 0 -13 5 -13 11c0 4 1 8 2 13l11 55c3 12 6 14 18 14h54l106 499h-52c-10 0 -13 5 -13 11c0 4 1 8 2 13l11 55c3 12 6 14 18 14h396
c10 0 17 -3 17 -11c0 -5 -2 -10 -3 -15l-32 -150c-3 -12 -4 -14 -18 -14h-62c-11 0 -17 2 -17 11c0 5 2 10 3 15l13 59h-139l-36 -169h174c10 0 14 -5 14 -11c0 -5 -1 -9 -2 -14l-14 -66c-3 -13 -5 -14 -18 -14h-176zM489 808l-188 -68c-6 -2 -10 -4 -16 -4
c-4 0 -7 2 -11 12l-13 29c-3 5 -5 10 -5 15s3 8 11 12l178 96c3 2 10 6 16 6c4 0 7 -2 12 -12l24 -58c2 -5 5 -10 5 -15c0 -6 -2 -9 -13 -13z" />
    <glyph glyph-name="Ecircumflex" unicode="&#xca;" horiz-adv-x="519" 
d="M236 306l-43 -201h142l17 79c3 13 6 15 18 15h62c11 0 17 -3 17 -10c0 -4 -2 -11 -3 -16l-33 -159c-3 -13 -6 -14 -18 -14h-403c-10 0 -13 5 -13 11c0 4 1 8 2 13l11 55c3 12 6 14 18 14h54l106 499h-52c-10 0 -13 5 -13 11c0 4 1 8 2 13l11 55c3 12 6 14 18 14h396
c10 0 17 -3 17 -11c0 -5 -2 -10 -3 -15l-32 -150c-3 -12 -4 -14 -18 -14h-62c-11 0 -17 2 -17 11c0 5 2 10 3 15l13 59h-139l-36 -169h174c10 0 14 -5 14 -11c0 -5 -1 -9 -2 -14l-14 -66c-3 -13 -5 -14 -18 -14h-176zM468 775l-26 -29c-5 -5 -8 -10 -13 -10s-8 3 -12 6
l-71 52l-95 -52c-6 -3 -10 -6 -16 -6c-4 0 -8 2 -12 10l-16 30c-3 5 -7 10 -7 16c0 5 3 8 9 12l138 92c4 3 10 8 16 8c5 0 9 -4 12 -7l89 -94c4 -5 11 -10 11 -16c0 -4 -4 -8 -7 -12z" />
    <glyph glyph-name="Edieresis" unicode="&#xcb;" horiz-adv-x="519" 
d="M236 306l-43 -201h142l17 79c3 13 6 15 18 15h62c11 0 17 -3 17 -10c0 -4 -2 -11 -3 -16l-33 -159c-3 -13 -6 -14 -18 -14h-403c-10 0 -13 5 -13 11c0 4 1 8 2 13l11 55c3 12 6 14 18 14h54l106 499h-52c-10 0 -13 5 -13 11c0 4 1 8 2 13l11 55c3 12 6 14 18 14h396
c10 0 17 -3 17 -11c0 -5 -2 -10 -3 -15l-32 -150c-3 -12 -4 -14 -18 -14h-62c-11 0 -17 2 -17 11c0 5 2 10 3 15l13 59h-139l-36 -169h174c10 0 14 -5 14 -11c0 -5 -1 -9 -2 -14l-14 -66c-3 -13 -5 -14 -18 -14h-176zM325 815c0 -39 -31 -69 -69 -69s-70 30 -70 69
s31 70 70 70c37 0 69 -31 69 -70zM517 815c0 -39 -31 -69 -69 -69s-70 30 -70 69s31 70 70 70c37 0 69 -31 69 -70z" />
    <glyph glyph-name="Egrave" unicode="&#xc8;" horiz-adv-x="519" 
d="M236 306l-43 -201h142l17 79c3 13 6 15 18 15h62c11 0 17 -3 17 -10c0 -4 -2 -11 -3 -16l-33 -159c-3 -13 -6 -14 -18 -14h-403c-10 0 -13 5 -13 11c0 4 1 8 2 13l11 55c3 12 6 14 18 14h54l106 499h-52c-10 0 -13 5 -13 11c0 4 1 8 2 13l11 55c3 12 6 14 18 14h396
c10 0 17 -3 17 -11c0 -5 -2 -10 -3 -15l-32 -150c-3 -12 -4 -14 -18 -14h-62c-11 0 -17 2 -17 11c0 5 2 10 3 15l13 59h-139l-36 -169h174c10 0 14 -5 14 -11c0 -5 -1 -9 -2 -14l-14 -66c-3 -13 -5 -14 -18 -14h-176zM377 767l-14 -20c-5 -7 -9 -11 -14 -11
c-6 0 -11 3 -17 6l-154 74c-5 2 -9 8 -9 13c0 4 2 10 7 16l39 56c4 7 8 11 16 11c6 0 11 -5 15 -8l137 -110c2 -2 5 -5 5 -8c0 -5 -7 -12 -11 -19z" />
    <glyph glyph-name="Iacute" unicode="&#xcd;" horiz-adv-x="352" 
d="M273 69l-11 -55c-3 -12 -6 -14 -18 -14h-245c-10 0 -13 5 -13 11c0 4 1 8 2 13l11 55c3 12 6 14 18 14h60l106 499h-58c-10 0 -13 5 -13 11c0 4 1 8 2 13l11 55c3 12 6 14 18 14h245c10 0 13 -5 13 -11c0 -4 -1 -8 -2 -13l-11 -55c-3 -12 -6 -14 -18 -14h-60l-106 -499
h58c10 0 13 -5 13 -11c0 -4 -1 -8 -2 -13zM405 808l-188 -68c-6 -2 -10 -4 -16 -4c-4 0 -7 2 -11 12l-13 29c-3 5 -5 10 -5 15s3 8 11 12l178 96c3 2 10 6 16 6c4 0 7 -2 12 -12l24 -58c2 -5 5 -10 5 -15c0 -6 -2 -9 -13 -13z" />
    <glyph glyph-name="Icircumflex" unicode="&#xce;" horiz-adv-x="352" 
d="M273 69l-11 -55c-3 -12 -6 -14 -18 -14h-245c-10 0 -13 5 -13 11c0 4 1 8 2 13l11 55c3 12 6 14 18 14h60l106 499h-58c-10 0 -13 5 -13 11c0 4 1 8 2 13l11 55c3 12 6 14 18 14h245c10 0 13 -5 13 -11c0 -4 -1 -8 -2 -13l-11 -55c-3 -12 -6 -14 -18 -14h-60l-106 -499
h58c10 0 13 -5 13 -11c0 -4 -1 -8 -2 -13zM394 775l-26 -29c-5 -5 -8 -10 -13 -10s-8 3 -12 6l-71 52l-95 -52c-6 -3 -10 -6 -16 -6c-4 0 -8 2 -12 10l-16 30c-3 5 -7 10 -7 16c0 5 3 8 9 12l138 92c4 3 10 8 16 8c5 0 9 -4 12 -7l89 -94c4 -5 11 -10 11 -16
c0 -4 -4 -8 -7 -12z" />
    <glyph glyph-name="Idieresis" unicode="&#xcf;" horiz-adv-x="352" 
d="M273 69l-11 -55c-3 -12 -6 -14 -18 -14h-245c-10 0 -13 5 -13 11c0 4 1 8 2 13l11 55c3 12 6 14 18 14h60l106 499h-58c-10 0 -13 5 -13 11c0 4 1 8 2 13l11 55c3 12 6 14 18 14h245c10 0 13 -5 13 -11c0 -4 -1 -8 -2 -13l-11 -55c-3 -12 -6 -14 -18 -14h-60l-106 -499
h58c10 0 13 -5 13 -11c0 -4 -1 -8 -2 -13zM241 815c0 -39 -31 -69 -69 -69s-70 30 -70 69s31 70 70 70c37 0 69 -31 69 -70zM433 815c0 -39 -31 -69 -69 -69s-70 30 -70 69s31 70 70 70c37 0 69 -31 69 -70z" />
    <glyph glyph-name="Igrave" unicode="&#xcc;" horiz-adv-x="352" 
d="M273 69l-11 -55c-3 -12 -6 -14 -18 -14h-245c-10 0 -13 5 -13 11c0 4 1 8 2 13l11 55c3 12 6 14 18 14h60l106 499h-58c-10 0 -13 5 -13 11c0 4 1 8 2 13l11 55c3 12 6 14 18 14h245c10 0 13 -5 13 -11c0 -4 -1 -8 -2 -13l-11 -55c-3 -12 -6 -14 -18 -14h-60l-106 -499
h58c10 0 13 -5 13 -11c0 -4 -1 -8 -2 -13zM293 767l-14 -20c-5 -7 -9 -11 -14 -11c-6 0 -11 3 -17 6l-154 74c-5 2 -9 8 -9 13c0 4 2 10 7 16l39 56c4 7 8 11 16 11c6 0 11 -5 15 -8l137 -110c2 -2 5 -5 5 -8c0 -5 -7 -12 -11 -19z" />
    <glyph glyph-name="Ntilde" unicode="&#xd1;" horiz-adv-x="648" 
d="M622 592l-125 -578c-3 -13 -4 -14 -16 -14h-65c-12 0 -14 1 -18 13l-115 362c-14 44 -19 75 -25 117h-2c-4 -36 -11 -85 -21 -130l-57 -269h50c10 0 13 -5 13 -11c0 -4 -1 -8 -2 -13l-11 -55c-3 -12 -6 -14 -18 -14h-216c-10 0 -13 5 -13 11c0 4 1 8 2 13l11 55
c3 12 6 14 18 14h54l106 499h-52c-10 0 -13 4 -13 9c0 4 1 10 2 15l11 55c3 12 6 14 18 14h141c13 0 14 -1 18 -13l107 -331c16 -49 25 -91 31 -126h2c4 34 11 90 20 132l53 245h-50c-10 0 -13 5 -13 11c0 4 1 8 2 13l11 55c3 12 6 14 18 14h216c10 0 13 -5 13 -11
c0 -4 -1 -8 -2 -13l-11 -55c-3 -12 -6 -14 -18 -14h-54zM530 873l32 -26c3 -3 7 -7 7 -11c0 -11 -50 -84 -114 -84c-53 0 -61 36 -89 36c-29 0 -43 -35 -53 -35c-4 0 -7 3 -10 6l-34 28c-2 1 -5 5 -5 8c0 6 44 83 112 83c50 0 70 -36 94 -36c28 0 41 35 51 35c3 0 6 -2 9 -4
z" />
    <glyph glyph-name="Oacute" unicode="&#xd3;" horiz-adv-x="574" 
d="M563 494c0 -233 -102 -511 -331 -511c-118 0 -185 72 -185 207c0 234 103 512 333 512c116 0 183 -73 183 -208zM246 88c119 0 182 240 182 403c0 72 -15 106 -63 106c-119 0 -183 -241 -183 -404c0 -71 15 -105 64 -105zM516 808l-188 -68c-6 -2 -10 -4 -16 -4
c-4 0 -7 2 -11 12l-13 29c-3 5 -5 10 -5 15s3 8 11 12l178 96c3 2 10 6 16 6c4 0 7 -2 12 -12l24 -58c2 -5 5 -10 5 -15c0 -6 -2 -9 -13 -13z" />
    <glyph glyph-name="Ocircumflex" unicode="&#xd4;" horiz-adv-x="574" 
d="M563 494c0 -233 -102 -511 -331 -511c-118 0 -185 72 -185 207c0 234 103 512 333 512c116 0 183 -73 183 -208zM246 88c119 0 182 240 182 403c0 72 -15 106 -63 106c-119 0 -183 -241 -183 -404c0 -71 15 -105 64 -105zM505 775l-26 -29c-5 -5 -8 -10 -13 -10
s-8 3 -12 6l-71 52l-95 -52c-6 -3 -10 -6 -16 -6c-4 0 -8 2 -12 10l-16 30c-3 5 -7 10 -7 16c0 5 3 8 9 12l138 92c4 3 10 8 16 8c5 0 9 -4 12 -7l89 -94c4 -5 11 -10 11 -16c0 -4 -4 -8 -7 -12z" />
    <glyph glyph-name="Odieresis" unicode="&#xd6;" horiz-adv-x="574" 
d="M563 494c0 -233 -102 -511 -331 -511c-118 0 -185 72 -185 207c0 234 103 512 333 512c116 0 183 -73 183 -208zM246 88c119 0 182 240 182 403c0 72 -15 106 -63 106c-119 0 -183 -241 -183 -404c0 -71 15 -105 64 -105zM367 815c0 -39 -31 -69 -69 -69s-70 30 -70 69
s31 70 70 70c37 0 69 -31 69 -70zM559 815c0 -39 -31 -69 -69 -69s-70 30 -70 69s31 70 70 70c37 0 69 -31 69 -70z" />
    <glyph glyph-name="Ograve" unicode="&#xd2;" horiz-adv-x="574" 
d="M563 494c0 -233 -102 -511 -331 -511c-118 0 -185 72 -185 207c0 234 103 512 333 512c116 0 183 -73 183 -208zM246 88c119 0 182 240 182 403c0 72 -15 106 -63 106c-119 0 -183 -241 -183 -404c0 -71 15 -105 64 -105zM404 767l-14 -20c-5 -7 -9 -11 -14 -11
c-6 0 -11 3 -17 6l-154 74c-5 2 -9 8 -9 13c0 4 2 10 7 16l39 56c4 7 8 11 16 11c6 0 11 -5 15 -8l137 -110c2 -2 5 -5 5 -8c0 -5 -7 -12 -11 -19z" />
    <glyph glyph-name="Otilde" unicode="&#xd5;" horiz-adv-x="574" 
d="M563 494c0 -233 -102 -511 -331 -511c-118 0 -185 72 -185 207c0 234 103 512 333 512c116 0 183 -73 183 -208zM246 88c119 0 182 240 182 403c0 72 -15 106 -63 106c-119 0 -183 -241 -183 -404c0 -71 15 -105 64 -105zM493 873l32 -26c3 -3 7 -7 7 -11
c0 -11 -50 -84 -114 -84c-53 0 -61 36 -89 36c-29 0 -43 -35 -53 -35c-4 0 -7 3 -10 6l-34 28c-2 1 -5 5 -5 8c0 6 44 83 112 83c50 0 70 -36 94 -36c28 0 41 35 51 35c3 0 6 -2 9 -4z" />
    <glyph glyph-name="Scaron" unicode="&#x160;" horiz-adv-x="500" 
d="M513 627l-27 -127c-3 -13 -5 -14 -18 -14h-65c-11 0 -17 3 -17 9c0 5 2 12 3 17l15 68c-11 4 -37 14 -72 14c-64 0 -111 -32 -111 -93c0 -75 93 -93 172 -158c35 -28 58 -67 58 -125c0 -134 -98 -235 -268 -235c-76 0 -179 24 -179 66c0 7 1 14 3 21l28 128
c2 13 4 14 17 14h65c11 0 17 -3 17 -11c0 -5 -1 -10 -2 -15l-16 -74c11 -4 44 -21 85 -21c61 0 115 27 115 100c0 55 -44 82 -93 111c-61 36 -132 75 -132 179c0 144 104 221 257 221c67 0 167 -25 167 -58c0 -6 -1 -11 -2 -17zM445 836l-138 -92c-4 -3 -10 -8 -16 -8
c-5 0 -9 4 -12 7l-89 94c-4 5 -11 10 -11 16c0 4 4 8 7 12l26 29c5 5 8 10 13 10s8 -3 12 -6l71 -52l95 52c6 3 10 6 16 6c4 0 8 -2 12 -10l16 -30c3 -5 7 -10 7 -16c0 -5 -3 -8 -9 -12z" />
    <glyph glyph-name="Uacute" unicode="&#xda;" horiz-adv-x="648" 
d="M629 592l-76 -360c-24 -113 -60 -249 -270 -249c-124 0 -202 52 -202 164c0 29 4 57 10 85l76 360h-52c-10 0 -13 5 -13 11c0 4 1 8 2 13l11 55c3 12 6 14 18 14h234c10 0 13 -5 13 -11c0 -4 -1 -8 -2 -13l-11 -55c-3 -12 -6 -14 -18 -14h-55l-77 -361
c-6 -21 -9 -43 -9 -65c0 -55 37 -75 89 -75c89 0 117 70 132 139l77 362h-55c-10 0 -13 5 -13 11c0 4 1 8 2 13l11 55c3 12 6 14 18 14h234c10 0 13 -5 13 -11c0 -4 -1 -8 -2 -13l-11 -55c-3 -12 -6 -14 -18 -14h-56zM553 808l-188 -68c-6 -2 -10 -4 -16 -4
c-4 0 -7 2 -11 12l-13 29c-3 5 -5 10 -5 15s3 8 11 12l178 96c3 2 10 6 16 6c4 0 7 -2 12 -12l24 -58c2 -5 5 -10 5 -15c0 -6 -2 -9 -13 -13z" />
    <glyph glyph-name="Ucircumflex" unicode="&#xdb;" horiz-adv-x="648" 
d="M629 592l-76 -360c-24 -113 -60 -249 -270 -249c-124 0 -202 52 -202 164c0 29 4 57 10 85l76 360h-52c-10 0 -13 5 -13 11c0 4 1 8 2 13l11 55c3 12 6 14 18 14h234c10 0 13 -5 13 -11c0 -4 -1 -8 -2 -13l-11 -55c-3 -12 -6 -14 -18 -14h-55l-77 -361
c-6 -21 -9 -43 -9 -65c0 -55 37 -75 89 -75c89 0 117 70 132 139l77 362h-55c-10 0 -13 5 -13 11c0 4 1 8 2 13l11 55c3 12 6 14 18 14h234c10 0 13 -5 13 -11c0 -4 -1 -8 -2 -13l-11 -55c-3 -12 -6 -14 -18 -14h-56zM542 775l-26 -29c-5 -5 -8 -10 -13 -10s-8 3 -12 6
l-71 52l-95 -52c-6 -3 -10 -6 -16 -6c-4 0 -8 2 -12 10l-16 30c-3 5 -7 10 -7 16c0 5 3 8 9 12l138 92c4 3 10 8 16 8c5 0 9 -4 12 -7l89 -94c4 -5 11 -10 11 -16c0 -4 -4 -8 -7 -12z" />
    <glyph glyph-name="Udieresis" unicode="&#xdc;" horiz-adv-x="648" 
d="M629 592l-76 -360c-24 -113 -60 -249 -270 -249c-124 0 -202 52 -202 164c0 29 4 57 10 85l76 360h-52c-10 0 -13 5 -13 11c0 4 1 8 2 13l11 55c3 12 6 14 18 14h234c10 0 13 -5 13 -11c0 -4 -1 -8 -2 -13l-11 -55c-3 -12 -6 -14 -18 -14h-55l-77 -361
c-6 -21 -9 -43 -9 -65c0 -55 37 -75 89 -75c89 0 117 70 132 139l77 362h-55c-10 0 -13 5 -13 11c0 4 1 8 2 13l11 55c3 12 6 14 18 14h234c10 0 13 -5 13 -11c0 -4 -1 -8 -2 -13l-11 -55c-3 -12 -6 -14 -18 -14h-56zM389 815c0 -39 -31 -69 -69 -69s-70 30 -70 69
s31 70 70 70c37 0 69 -31 69 -70zM581 815c0 -39 -31 -69 -69 -69s-70 30 -70 69s31 70 70 70c37 0 69 -31 69 -70z" />
    <glyph glyph-name="Ugrave" unicode="&#xd9;" horiz-adv-x="648" 
d="M629 592l-76 -360c-24 -113 -60 -249 -270 -249c-124 0 -202 52 -202 164c0 29 4 57 10 85l76 360h-52c-10 0 -13 5 -13 11c0 4 1 8 2 13l11 55c3 12 6 14 18 14h234c10 0 13 -5 13 -11c0 -4 -1 -8 -2 -13l-11 -55c-3 -12 -6 -14 -18 -14h-55l-77 -361
c-6 -21 -9 -43 -9 -65c0 -55 37 -75 89 -75c89 0 117 70 132 139l77 362h-55c-10 0 -13 5 -13 11c0 4 1 8 2 13l11 55c3 12 6 14 18 14h234c10 0 13 -5 13 -11c0 -4 -1 -8 -2 -13l-11 -55c-3 -12 -6 -14 -18 -14h-56zM441 767l-14 -20c-5 -7 -9 -11 -14 -11
c-6 0 -11 3 -17 6l-154 74c-5 2 -9 8 -9 13c0 4 2 10 7 16l39 56c4 7 8 11 16 11c6 0 11 -5 15 -8l137 -110c2 -2 5 -5 5 -8c0 -5 -7 -12 -11 -19z" />
    <glyph glyph-name="Yacute" unicode="&#xdd;" horiz-adv-x="574" 
d="M396 69l-11 -55c-3 -12 -6 -14 -18 -14h-260c-10 0 -13 5 -13 11c0 4 1 8 2 13l11 55c3 12 6 14 18 14h66l40 188l-95 311h-48c-10 0 -13 5 -13 11c0 4 1 8 2 13l11 55c3 12 6 14 18 14h124c14 0 16 -3 20 -15l43 -160c12 -45 17 -83 19 -112h2c15 29 36 70 63 107
l119 170c6 8 9 10 20 10h129c10 0 13 -4 13 -9c0 -4 -1 -10 -2 -15l-11 -55c-2 -11 -6 -14 -17 -14h-46l-224 -311l-40 -188h67c10 0 13 -5 13 -11c0 -4 -1 -8 -2 -13zM516 808l-188 -68c-6 -2 -10 -4 -16 -4c-4 0 -7 2 -11 12l-13 29c-3 5 -5 10 -5 15s3 8 11 12l178 96
c3 2 10 6 16 6c4 0 7 -2 12 -12l24 -58c2 -5 5 -10 5 -15c0 -6 -2 -9 -13 -13z" />
    <glyph glyph-name="Ydieresis" unicode="&#x178;" horiz-adv-x="574" 
d="M396 69l-11 -55c-3 -12 -6 -14 -18 -14h-260c-10 0 -13 5 -13 11c0 4 1 8 2 13l11 55c3 12 6 14 18 14h66l40 188l-95 311h-48c-10 0 -13 5 -13 11c0 4 1 8 2 13l11 55c3 12 6 14 18 14h124c14 0 16 -3 20 -15l43 -160c12 -45 17 -83 19 -112h2c15 29 36 70 63 107
l119 170c6 8 9 10 20 10h129c10 0 13 -4 13 -9c0 -4 -1 -10 -2 -15l-11 -55c-2 -11 -6 -14 -17 -14h-46l-224 -311l-40 -188h67c10 0 13 -5 13 -11c0 -4 -1 -8 -2 -13zM352 815c0 -39 -31 -69 -69 -69s-70 30 -70 69s31 70 70 70c37 0 69 -31 69 -70zM544 815
c0 -39 -31 -69 -69 -69s-70 30 -70 69s31 70 70 70c37 0 69 -31 69 -70z" />
    <glyph glyph-name="Zcaron" unicode="&#x17d;" horiz-adv-x="500" 
d="M462 155l-62 -143c-5 -10 -7 -12 -20 -12h-380c-11 0 -17 3 -17 11c0 5 1 10 2 15l16 75l376 476h-161l-17 -83c-3 -13 -5 -14 -18 -14h-68c-12 0 -17 3 -17 10c0 4 1 11 2 16l35 165c2 12 5 14 18 14h372c9 0 17 -1 17 -11c0 -5 -2 -10 -3 -15l-18 -84l-367 -460h181
l35 82c4 10 8 12 12 12c5 0 8 -2 14 -4l61 -23c7 -3 12 -6 12 -12c0 -5 -3 -10 -5 -15zM445 836l-138 -92c-4 -3 -10 -8 -16 -8c-5 0 -9 4 -12 7l-89 94c-4 5 -11 10 -11 16c0 4 4 8 7 12l26 29c5 5 8 10 13 10s8 -3 12 -6l71 -52l95 52c6 3 10 6 16 6c4 0 8 -2 12 -10
l16 -30c3 -5 7 -10 7 -16c0 -5 -3 -8 -9 -12z" />
    <glyph glyph-name="aacute" unicode="&#xe1;" horiz-adv-x="537" 
d="M321 222l35 163c-15 12 -38 36 -74 36c-85 0 -129 -174 -129 -278c0 -39 15 -60 42 -60c74 0 112 76 126 139zM486 68l-11 -56c-2 -11 -5 -12 -15 -12h-63c-90 0 -86 40 -86 93h-2c-19 -32 -75 -110 -165 -110c-73 0 -111 60 -111 165c0 198 110 363 237 363
c65 0 95 -37 111 -54l11 27c3 8 7 10 14 10h79c8 0 11 -4 11 -8s-1 -10 -2 -14l-66 -313c-7 -30 -11 -60 -11 -69h58c7 0 13 -3 13 -10c0 -4 -1 -8 -2 -12zM448 626l-188 -68c-6 -2 -10 -4 -16 -4c-4 0 -7 2 -11 12l-13 29c-3 5 -5 10 -5 15s3 8 11 12l178 96c3 2 10 6 16 6
c4 0 7 -2 12 -12l24 -58c2 -5 5 -10 5 -15c0 -6 -2 -9 -13 -13z" />
    <glyph glyph-name="acircumflex" unicode="&#xe2;" horiz-adv-x="537" 
d="M321 222l35 163c-15 12 -38 36 -74 36c-85 0 -129 -174 -129 -278c0 -39 15 -60 42 -60c74 0 112 76 126 139zM486 68l-11 -56c-2 -11 -5 -12 -15 -12h-63c-90 0 -86 40 -86 93h-2c-19 -32 -75 -110 -165 -110c-73 0 -111 60 -111 165c0 198 110 363 237 363
c65 0 95 -37 111 -54l11 27c3 8 7 10 14 10h79c8 0 11 -4 11 -8s-1 -10 -2 -14l-66 -313c-7 -30 -11 -60 -11 -69h58c7 0 13 -3 13 -10c0 -4 -1 -8 -2 -12zM467 593l-26 -29c-5 -5 -8 -10 -13 -10s-8 3 -12 6l-71 52l-95 -52c-6 -3 -10 -6 -16 -6c-4 0 -8 2 -12 10l-16 30
c-3 5 -7 10 -7 16c0 5 3 8 9 12l138 92c4 3 10 8 16 8c5 0 9 -4 12 -7l89 -94c4 -5 11 -10 11 -16c0 -4 -4 -8 -7 -12z" />
    <glyph glyph-name="adieresis" unicode="&#xe4;" horiz-adv-x="537" 
d="M321 222l35 163c-15 12 -38 36 -74 36c-85 0 -129 -174 -129 -278c0 -39 15 -60 42 -60c74 0 112 76 126 139zM486 68l-11 -56c-2 -11 -5 -12 -15 -12h-63c-90 0 -86 40 -86 93h-2c-19 -32 -75 -110 -165 -110c-73 0 -111 60 -111 165c0 198 110 363 237 363
c65 0 95 -37 111 -54l11 27c3 8 7 10 14 10h79c8 0 11 -4 11 -8s-1 -10 -2 -14l-66 -313c-7 -30 -11 -60 -11 -69h58c7 0 13 -3 13 -10c0 -4 -1 -8 -2 -12zM334 633c0 -39 -31 -69 -69 -69s-70 30 -70 69s31 70 70 70c37 0 69 -31 69 -70zM526 633c0 -39 -31 -69 -69 -69
s-70 30 -70 69s31 70 70 70c37 0 69 -31 69 -70z" />
    <glyph glyph-name="agrave" unicode="&#xe0;" horiz-adv-x="537" 
d="M321 222l35 163c-15 12 -38 36 -74 36c-85 0 -129 -174 -129 -278c0 -39 15 -60 42 -60c74 0 112 76 126 139zM486 68l-11 -56c-2 -11 -5 -12 -15 -12h-63c-90 0 -86 40 -86 93h-2c-19 -32 -75 -110 -165 -110c-73 0 -111 60 -111 165c0 198 110 363 237 363
c65 0 95 -37 111 -54l11 27c3 8 7 10 14 10h79c8 0 11 -4 11 -8s-1 -10 -2 -14l-66 -313c-7 -30 -11 -60 -11 -69h58c7 0 13 -3 13 -10c0 -4 -1 -8 -2 -12zM386 585l-14 -20c-5 -7 -9 -11 -14 -11c-6 0 -11 3 -17 6l-154 74c-5 2 -9 8 -9 13c0 4 2 10 7 16l39 56
c4 7 8 11 16 11c6 0 11 -5 15 -8l137 -110c2 -2 5 -5 5 -8c0 -5 -7 -12 -11 -19z" />
    <glyph glyph-name="aring" unicode="&#xe5;" horiz-adv-x="537" 
d="M321 222l35 163c-15 12 -38 36 -74 36c-85 0 -129 -174 -129 -278c0 -39 15 -60 42 -60c74 0 112 76 126 139zM486 68l-11 -56c-2 -11 -5 -12 -15 -12h-63c-90 0 -86 40 -86 93h-2c-19 -32 -75 -110 -165 -110c-73 0 -111 60 -111 165c0 198 110 363 237 363
c65 0 95 -37 111 -54l11 27c3 8 7 10 14 10h79c8 0 11 -4 11 -8s-1 -10 -2 -14l-66 -313c-7 -30 -11 -60 -11 -69h58c7 0 13 -3 13 -10c0 -4 -1 -8 -2 -12zM468 646c0 -58 -47 -104 -105 -104c-57 0 -104 46 -104 104c0 59 47 105 104 105c58 0 105 -47 105 -105zM363 605
c23 0 42 19 42 41c0 23 -18 42 -42 42c-22 0 -41 -18 -41 -42s20 -41 41 -41z" />
    <glyph glyph-name="atilde" unicode="&#xe3;" horiz-adv-x="537" 
d="M321 222l35 163c-15 12 -38 36 -74 36c-85 0 -129 -174 -129 -278c0 -39 15 -60 42 -60c74 0 112 76 126 139zM486 68l-11 -56c-2 -11 -5 -12 -15 -12h-63c-90 0 -86 40 -86 93h-2c-19 -32 -75 -110 -165 -110c-73 0 -111 60 -111 165c0 198 110 363 237 363
c65 0 95 -37 111 -54l11 27c3 8 7 10 14 10h79c8 0 11 -4 11 -8s-1 -10 -2 -14l-66 -313c-7 -30 -11 -60 -11 -69h58c7 0 13 -3 13 -10c0 -4 -1 -8 -2 -12zM455 691l32 -26c3 -3 7 -7 7 -11c0 -11 -50 -84 -114 -84c-53 0 -61 36 -89 36c-29 0 -43 -35 -53 -35
c-4 0 -7 3 -10 6l-34 28c-2 1 -5 5 -5 8c0 6 44 83 112 83c50 0 70 -36 94 -36c28 0 41 35 51 35c3 0 6 -2 9 -4z" />
    <glyph glyph-name="ccedilla" unicode="&#xe7;" horiz-adv-x="426" 
d="M228 -17l-12 -39c24 -3 60 -15 60 -63c0 -61 -42 -101 -116 -101c-41 0 -77 8 -77 19c0 4 1 7 2 11l12 38c1 3 3 7 6 7c6 0 23 -10 43 -10c22 0 35 12 35 28c0 19 -18 22 -37 22c-6 0 -18 0 -18 7c0 4 1 7 2 11l23 81c-69 22 -117 80 -117 184c0 206 126 333 278 333
c69 0 125 -28 125 -43c0 -4 -1 -7 -2 -11l-27 -129c-2 -10 -5 -11 -14 -11h-68c-9 0 -14 3 -14 9c0 4 2 10 3 13l15 70c-9 1 -17 2 -25 2c-90 0 -144 -115 -144 -243c0 -55 25 -80 74 -80c47 0 73 23 85 23c5 0 7 -3 8 -5l25 -67c1 -3 3 -6 3 -10c0 -18 -83 -46 -128 -46z
" />
    <glyph glyph-name="eacute" unicode="&#xe9;" horiz-adv-x="481" 
d="M372 116l25 -62c1 -3 3 -6 3 -9c0 -13 -93 -62 -195 -62c-120 0 -174 75 -174 186c0 200 129 342 283 342c94 0 148 -52 148 -132c0 -189 -254 -189 -311 -189c0 -30 -8 -107 86 -107c59 0 112 40 127 40c5 0 6 -3 8 -7zM296 421c-94 0 -122 -104 -131 -141
c43 0 177 0 177 92c0 26 -16 49 -46 49zM420 626l-188 -68c-6 -2 -10 -4 -16 -4c-4 0 -7 2 -11 12l-13 29c-3 5 -5 10 -5 15s3 8 11 12l178 96c3 2 10 6 16 6c4 0 7 -2 12 -12l24 -58c2 -5 5 -10 5 -15c0 -6 -2 -9 -13 -13z" />
    <glyph glyph-name="ecircumflex" unicode="&#xea;" horiz-adv-x="481" 
d="M372 116l25 -62c1 -3 3 -6 3 -9c0 -13 -93 -62 -195 -62c-120 0 -174 75 -174 186c0 200 129 342 283 342c94 0 148 -52 148 -132c0 -189 -254 -189 -311 -189c0 -30 -8 -107 86 -107c59 0 112 40 127 40c5 0 6 -3 8 -7zM296 421c-94 0 -122 -104 -131 -141
c43 0 177 0 177 92c0 26 -16 49 -46 49zM439 593l-26 -29c-5 -5 -8 -10 -13 -10s-8 3 -12 6l-71 52l-95 -52c-6 -3 -10 -6 -16 -6c-4 0 -8 2 -12 10l-16 30c-3 5 -7 10 -7 16c0 5 3 8 9 12l138 92c4 3 10 8 16 8c5 0 9 -4 12 -7l89 -94c4 -5 11 -10 11 -16
c0 -4 -4 -8 -7 -12z" />
    <glyph glyph-name="edieresis" unicode="&#xeb;" horiz-adv-x="481" 
d="M372 116l25 -62c1 -3 3 -6 3 -9c0 -13 -93 -62 -195 -62c-120 0 -174 75 -174 186c0 200 129 342 283 342c94 0 148 -52 148 -132c0 -189 -254 -189 -311 -189c0 -30 -8 -107 86 -107c59 0 112 40 127 40c5 0 6 -3 8 -7zM296 421c-94 0 -122 -104 -131 -141
c43 0 177 0 177 92c0 26 -16 49 -46 49zM301 633c0 -39 -31 -69 -69 -69s-70 30 -70 69s31 70 70 70c37 0 69 -31 69 -70zM493 633c0 -39 -31 -69 -69 -69s-70 30 -70 69s31 70 70 70c37 0 69 -31 69 -70z" />
    <glyph glyph-name="egrave" unicode="&#xe8;" horiz-adv-x="481" 
d="M372 116l25 -62c1 -3 3 -6 3 -9c0 -13 -93 -62 -195 -62c-120 0 -174 75 -174 186c0 200 129 342 283 342c94 0 148 -52 148 -132c0 -189 -254 -189 -311 -189c0 -30 -8 -107 86 -107c59 0 112 40 127 40c5 0 6 -3 8 -7zM296 421c-94 0 -122 -104 -131 -141
c43 0 177 0 177 92c0 26 -16 49 -46 49zM358 585l-14 -20c-5 -7 -9 -11 -14 -11c-6 0 -11 3 -17 6l-154 74c-5 2 -9 8 -9 13c0 4 2 10 7 16l39 56c4 7 8 11 16 11c6 0 11 -5 15 -8l137 -110c2 -2 5 -5 5 -8c0 -5 -7 -12 -11 -19z" />
    <glyph glyph-name="iacute" unicode="&#xed;" horiz-adv-x="296" 
d="M248 68l-11 -56c-2 -11 -5 -12 -15 -12h-82c-41 0 -90 9 -90 61c0 15 3 30 6 45l64 298h-77c-9 0 -13 3 -13 10c0 4 1 8 2 12l11 56c2 11 5 12 15 12h185c8 0 12 -2 12 -10c0 -5 -1 -9 -2 -13l-81 -381h65c8 0 13 -5 13 -10c0 -4 -1 -8 -2 -12zM337 626l-188 -68
c-6 -2 -10 -4 -16 -4c-4 0 -7 2 -11 12l-13 29c-3 5 -5 10 -5 15s3 8 11 12l178 96c3 2 10 6 16 6c4 0 7 -2 12 -12l24 -58c2 -5 5 -10 5 -15c0 -6 -2 -9 -13 -13z" />
    <glyph glyph-name="icircumflex" unicode="&#xee;" horiz-adv-x="296" 
d="M248 68l-11 -56c-2 -11 -5 -12 -15 -12h-82c-41 0 -90 9 -90 61c0 15 3 30 6 45l64 298h-77c-9 0 -13 3 -13 10c0 4 1 8 2 12l11 56c2 11 5 12 15 12h185c8 0 12 -2 12 -10c0 -5 -1 -9 -2 -13l-81 -381h65c8 0 13 -5 13 -10c0 -4 -1 -8 -2 -12zM346 593l-26 -29
c-5 -5 -8 -10 -13 -10s-8 3 -12 6l-71 52l-95 -52c-6 -3 -10 -6 -16 -6c-4 0 -8 2 -12 10l-16 30c-3 5 -7 10 -7 16c0 5 3 8 9 12l138 92c4 3 10 8 16 8c5 0 9 -4 12 -7l89 -94c4 -5 11 -10 11 -16c0 -4 -4 -8 -7 -12z" />
    <glyph glyph-name="idieresis" unicode="&#xef;" horiz-adv-x="296" 
d="M248 68l-11 -56c-2 -11 -5 -12 -15 -12h-82c-41 0 -90 9 -90 61c0 15 3 30 6 45l64 298h-77c-9 0 -13 3 -13 10c0 4 1 8 2 12l11 56c2 11 5 12 15 12h185c8 0 12 -2 12 -10c0 -5 -1 -9 -2 -13l-81 -381h65c8 0 13 -5 13 -10c0 -4 -1 -8 -2 -12zM193 633
c0 -39 -31 -69 -69 -69s-70 30 -70 69s31 70 70 70c37 0 69 -31 69 -70zM385 633c0 -39 -31 -69 -69 -69s-70 30 -70 69s31 70 70 70c37 0 69 -31 69 -70z" />
    <glyph glyph-name="igrave" unicode="&#xec;" horiz-adv-x="296" 
d="M248 68l-11 -56c-2 -11 -5 -12 -15 -12h-82c-41 0 -90 9 -90 61c0 15 3 30 6 45l64 298h-77c-9 0 -13 3 -13 10c0 4 1 8 2 12l11 56c2 11 5 12 15 12h185c8 0 12 -2 12 -10c0 -5 -1 -9 -2 -13l-81 -381h65c8 0 13 -5 13 -10c0 -4 -1 -8 -2 -12zM265 585l-14 -20
c-5 -7 -9 -11 -14 -11c-6 0 -11 3 -17 6l-154 74c-5 2 -9 8 -9 13c0 4 2 10 7 16l39 56c4 7 8 11 16 11c6 0 11 -5 15 -8l137 -110c2 -2 5 -5 5 -8c0 -5 -7 -12 -11 -19z" />
    <glyph glyph-name="ntilde" unicode="&#xf1;" 
d="M507 68l-11 -56c-2 -11 -5 -12 -14 -12h-83c-41 0 -90 9 -90 61c0 15 4 30 7 45l45 200c4 20 9 40 9 61c0 23 -14 39 -40 39c-79 0 -115 -124 -131 -196l-43 -198c-2 -11 -4 -12 -14 -12h-93c-8 0 -13 2 -13 10c-1 3 0 7 1 11l69 304c5 22 12 47 12 79h-59
c-9 0 -13 3 -13 10c0 4 1 8 2 12l11 56c2 11 5 12 15 12h133c23 0 23 -73 23 -86h2c24 32 83 103 171 103c54 0 94 -36 94 -105c0 -26 -5 -53 -11 -78l-55 -238h65c9 0 13 -3 13 -10c0 -4 -1 -8 -2 -12zM464 691l32 -26c3 -3 7 -7 7 -11c0 -11 -50 -84 -114 -84
c-53 0 -61 36 -89 36c-29 0 -43 -35 -53 -35c-4 0 -7 3 -10 6l-34 28c-2 1 -5 5 -5 8c0 6 44 83 112 83c50 0 70 -36 94 -36c28 0 41 35 51 35c3 0 6 -2 9 -4z" />
    <glyph glyph-name="oacute" unicode="&#xf3;" horiz-adv-x="519" 
d="M480 329c0 -185 -116 -346 -278 -346c-105 0 -170 54 -170 182c0 185 118 346 284 346c101 0 164 -54 164 -182zM220 83c93 0 133 158 133 255c0 47 -18 73 -61 73c-93 0 -133 -158 -133 -255c0 -47 18 -73 61 -73zM439 626l-188 -68c-6 -2 -10 -4 -16 -4
c-4 0 -7 2 -11 12l-13 29c-3 5 -5 10 -5 15s3 8 11 12l178 96c3 2 10 6 16 6c4 0 7 -2 12 -12l24 -58c2 -5 5 -10 5 -15c0 -6 -2 -9 -13 -13z" />
    <glyph glyph-name="ocircumflex" unicode="&#xf4;" horiz-adv-x="519" 
d="M480 329c0 -185 -116 -346 -278 -346c-105 0 -170 54 -170 182c0 185 118 346 284 346c101 0 164 -54 164 -182zM220 83c93 0 133 158 133 255c0 47 -18 73 -61 73c-93 0 -133 -158 -133 -255c0 -47 18 -73 61 -73zM458 593l-26 -29c-5 -5 -8 -10 -13 -10s-8 3 -12 6
l-71 52l-95 -52c-6 -3 -10 -6 -16 -6c-4 0 -8 2 -12 10l-16 30c-3 5 -7 10 -7 16c0 5 3 8 9 12l138 92c4 3 10 8 16 8c5 0 9 -4 12 -7l89 -94c4 -5 11 -10 11 -16c0 -4 -4 -8 -7 -12z" />
    <glyph glyph-name="odieresis" unicode="&#xf6;" horiz-adv-x="519" 
d="M480 329c0 -185 -116 -346 -278 -346c-105 0 -170 54 -170 182c0 185 118 346 284 346c101 0 164 -54 164 -182zM220 83c93 0 133 158 133 255c0 47 -18 73 -61 73c-93 0 -133 -158 -133 -255c0 -47 18 -73 61 -73zM315 633c0 -39 -31 -69 -69 -69s-70 30 -70 69
s31 70 70 70c37 0 69 -31 69 -70zM507 633c0 -39 -31 -69 -69 -69s-70 30 -70 69s31 70 70 70c37 0 69 -31 69 -70z" />
    <glyph glyph-name="ograve" unicode="&#xf2;" horiz-adv-x="519" 
d="M480 329c0 -185 -116 -346 -278 -346c-105 0 -170 54 -170 182c0 185 118 346 284 346c101 0 164 -54 164 -182zM220 83c93 0 133 158 133 255c0 47 -18 73 -61 73c-93 0 -133 -158 -133 -255c0 -47 18 -73 61 -73zM377 585l-14 -20c-5 -7 -9 -11 -14 -11
c-6 0 -11 3 -17 6l-154 74c-5 2 -9 8 -9 13c0 4 2 10 7 16l39 56c4 7 8 11 16 11c6 0 11 -5 15 -8l137 -110c2 -2 5 -5 5 -8c0 -5 -7 -12 -11 -19z" />
    <glyph glyph-name="otilde" unicode="&#xf5;" horiz-adv-x="519" 
d="M480 329c0 -185 -116 -346 -278 -346c-105 0 -170 54 -170 182c0 185 118 346 284 346c101 0 164 -54 164 -182zM220 83c93 0 133 158 133 255c0 47 -18 73 -61 73c-93 0 -133 -158 -133 -255c0 -47 18 -73 61 -73zM446 691l32 -26c3 -3 7 -7 7 -11
c0 -11 -50 -84 -114 -84c-53 0 -61 36 -89 36c-29 0 -43 -35 -53 -35c-4 0 -7 3 -10 6l-34 28c-2 1 -5 5 -5 8c0 6 44 83 112 83c50 0 70 -36 94 -36c28 0 41 35 51 35c3 0 6 -2 9 -4z" />
    <glyph glyph-name="scaron" unicode="&#x161;" horiz-adv-x="407" 
d="M383 461l-21 -99c-2 -11 -4 -12 -14 -12h-65c-9 0 -13 3 -13 8c0 4 1 10 2 15l9 43c-9 4 -18 5 -27 5c-54 0 -78 -28 -78 -62c0 -50 66 -59 110 -84c49 -28 73 -50 73 -115c0 -105 -71 -177 -198 -177c-63 0 -167 26 -167 49c0 3 1 6 1 8l21 99c2 14 4 15 14 15h65
c8 0 14 -1 14 -9c0 -4 -1 -8 -2 -12l-10 -49c19 -7 39 -11 58 -11c59 0 89 24 89 67c0 44 -45 48 -97 77c-53 29 -86 48 -86 117c0 106 77 177 191 177c65 0 132 -23 132 -42c0 -3 0 -6 -1 -8zM399 654l-138 -92c-4 -3 -10 -8 -16 -8c-5 0 -9 4 -12 7l-89 94
c-4 5 -11 10 -11 16c0 4 4 8 7 12l26 29c5 5 8 10 13 10s8 -3 12 -6l71 -52l95 52c6 3 10 6 16 6c4 0 8 -2 12 -10l16 -30c3 -5 7 -10 7 -16c0 -5 -3 -8 -9 -12z" />
    <glyph glyph-name="uacute" unicode="&#xfa;" 
d="M501 68l-11 -56c-2 -11 -5 -12 -15 -12h-72c-83 0 -83 72 -83 85h-2c-24 -32 -83 -102 -172 -102c-54 0 -94 36 -94 105c0 26 5 53 11 78l55 238h-65c-9 0 -13 3 -13 10c0 4 1 8 2 12l11 56c2 11 5 12 14 12h175c10 0 14 -3 14 -10c0 -4 -1 -8 -2 -12l-66 -284
c-5 -20 -9 -40 -9 -61c0 -23 14 -39 40 -39c80 0 116 124 132 196l43 198c1 8 4 10 14 12l82 14c4 1 14 3 19 3c6 0 10 -3 10 -8c0 -4 -1 -10 -2 -14l-74 -320c-5 -22 -12 -47 -12 -79h59c9 0 13 -3 13 -10c0 -4 -1 -8 -2 -12zM457 626l-188 -68c-6 -2 -10 -4 -16 -4
c-4 0 -7 2 -11 12l-13 29c-3 5 -5 10 -5 15s3 8 11 12l178 96c3 2 10 6 16 6c4 0 7 -2 12 -12l24 -58c2 -5 5 -10 5 -15c0 -6 -2 -9 -13 -13z" />
    <glyph glyph-name="ucircumflex" unicode="&#xfb;" 
d="M501 68l-11 -56c-2 -11 -5 -12 -15 -12h-72c-83 0 -83 72 -83 85h-2c-24 -32 -83 -102 -172 -102c-54 0 -94 36 -94 105c0 26 5 53 11 78l55 238h-65c-9 0 -13 3 -13 10c0 4 1 8 2 12l11 56c2 11 5 12 14 12h175c10 0 14 -3 14 -10c0 -4 -1 -8 -2 -12l-66 -284
c-5 -20 -9 -40 -9 -61c0 -23 14 -39 40 -39c80 0 116 124 132 196l43 198c1 8 4 10 14 12l82 14c4 1 14 3 19 3c6 0 10 -3 10 -8c0 -4 -1 -10 -2 -14l-74 -320c-5 -22 -12 -47 -12 -79h59c9 0 13 -3 13 -10c0 -4 -1 -8 -2 -12zM476 593l-26 -29c-5 -5 -8 -10 -13 -10
s-8 3 -12 6l-71 52l-95 -52c-6 -3 -10 -6 -16 -6c-4 0 -8 2 -12 10l-16 30c-3 5 -7 10 -7 16c0 5 3 8 9 12l138 92c4 3 10 8 16 8c5 0 9 -4 12 -7l89 -94c4 -5 11 -10 11 -16c0 -4 -4 -8 -7 -12z" />
    <glyph glyph-name="udieresis" unicode="&#xfc;" 
d="M501 68l-11 -56c-2 -11 -5 -12 -15 -12h-72c-83 0 -83 72 -83 85h-2c-24 -32 -83 -102 -172 -102c-54 0 -94 36 -94 105c0 26 5 53 11 78l55 238h-65c-9 0 -13 3 -13 10c0 4 1 8 2 12l11 56c2 11 5 12 14 12h175c10 0 14 -3 14 -10c0 -4 -1 -8 -2 -12l-66 -284
c-5 -20 -9 -40 -9 -61c0 -23 14 -39 40 -39c80 0 116 124 132 196l43 198c1 8 4 10 14 12l82 14c4 1 14 3 19 3c6 0 10 -3 10 -8c0 -4 -1 -10 -2 -14l-74 -320c-5 -22 -12 -47 -12 -79h59c9 0 13 -3 13 -10c0 -4 -1 -8 -2 -12zM323 633c0 -39 -31 -69 -69 -69s-70 30 -70 69
s31 70 70 70c37 0 69 -31 69 -70zM515 633c0 -39 -31 -69 -69 -69s-70 30 -70 69s31 70 70 70c37 0 69 -31 69 -70z" />
    <glyph glyph-name="ugrave" unicode="&#xf9;" 
d="M501 68l-11 -56c-2 -11 -5 -12 -15 -12h-72c-83 0 -83 72 -83 85h-2c-24 -32 -83 -102 -172 -102c-54 0 -94 36 -94 105c0 26 5 53 11 78l55 238h-65c-9 0 -13 3 -13 10c0 4 1 8 2 12l11 56c2 11 5 12 14 12h175c10 0 14 -3 14 -10c0 -4 -1 -8 -2 -12l-66 -284
c-5 -20 -9 -40 -9 -61c0 -23 14 -39 40 -39c80 0 116 124 132 196l43 198c1 8 4 10 14 12l82 14c4 1 14 3 19 3c6 0 10 -3 10 -8c0 -4 -1 -10 -2 -14l-74 -320c-5 -22 -12 -47 -12 -79h59c9 0 13 -3 13 -10c0 -4 -1 -8 -2 -12zM395 585l-14 -20c-5 -7 -9 -11 -14 -11
c-6 0 -11 3 -17 6l-154 74c-5 2 -9 8 -9 13c0 4 2 10 7 16l39 56c4 7 8 11 16 11c6 0 11 -5 15 -8l137 -110c2 -2 5 -5 5 -8c0 -5 -7 -12 -11 -19z" />
    <glyph glyph-name="yacute" unicode="&#xfd;" horiz-adv-x="500" 
d="M515 465l-198 -407c-52 -106 -110 -270 -255 -270c-56 0 -118 29 -118 41c0 3 2 6 3 9l36 63c4 6 5 8 9 8c12 0 37 -21 75 -21c43 0 66 20 85 50l33 62h-40c-7 0 -13 0 -14 13l-46 391h-65c-9 0 -13 5 -13 10c0 4 1 8 2 12l11 56c2 11 5 12 15 12h146c10 0 14 -3 15 -15
l20 -237c7 -58 8 -155 8 -163h2c14 36 43 111 63 159l116 257c2 6 5 8 10 8c4 0 11 -2 17 -3l76 -14c8 -2 12 -4 12 -9c0 -4 -4 -9 -5 -12zM429 626l-188 -68c-6 -2 -10 -4 -16 -4c-4 0 -7 2 -11 12l-13 29c-3 5 -5 10 -5 15s3 8 11 12l178 96c3 2 10 6 16 6
c4 0 7 -2 12 -12l24 -58c2 -5 5 -10 5 -15c0 -6 -2 -9 -13 -13z" />
    <glyph glyph-name="ydieresis" unicode="&#xff;" horiz-adv-x="500" 
d="M515 465l-198 -407c-52 -106 -110 -270 -255 -270c-56 0 -118 29 -118 41c0 3 2 6 3 9l36 63c4 6 5 8 9 8c12 0 37 -21 75 -21c43 0 66 20 85 50l33 62h-40c-7 0 -13 0 -14 13l-46 391h-65c-9 0 -13 5 -13 10c0 4 1 8 2 12l11 56c2 11 5 12 15 12h146c10 0 14 -3 15 -15
l20 -237c7 -58 8 -155 8 -163h2c14 36 43 111 63 159l116 257c2 6 5 8 10 8c4 0 11 -2 17 -3l76 -14c8 -2 12 -4 12 -9c0 -4 -4 -9 -5 -12zM295 633c0 -39 -31 -69 -69 -69s-70 30 -70 69s31 70 70 70c37 0 69 -31 69 -70zM487 633c0 -39 -31 -69 -69 -69s-70 30 -70 69
s31 70 70 70c37 0 69 -31 69 -70z" />
    <glyph glyph-name="zcaron" unicode="&#x17e;" horiz-adv-x="444" 
d="M402 110l-65 -101c-5 -8 -6 -9 -16 -9h-330c-9 0 -14 2 -14 9c0 4 1 7 2 12l13 64l299 309h-122l-13 -60c-3 -12 -5 -12 -14 -12h-65c-9 0 -13 3 -13 10c0 4 1 8 2 13l30 137c2 9 4 12 14 12h323c8 0 13 -3 13 -10c0 -4 -1 -8 -2 -12l-14 -68l-293 -304h153l36 55
c4 6 6 9 11 9s9 -3 14 -6l45 -27c7 -5 11 -6 11 -11c0 -4 -3 -7 -5 -10zM417 654l-138 -92c-4 -3 -10 -8 -16 -8c-5 0 -9 4 -12 7l-89 94c-4 5 -11 10 -11 16c0 4 4 8 7 12l26 29c5 5 8 10 13 10s8 -3 12 -6l71 -52l95 52c6 3 10 6 16 6c4 0 8 -2 12 -10l16 -30
c3 -5 7 -10 7 -16c0 -5 -3 -8 -9 -12z" />
    <glyph glyph-name="Omega" unicode="&#x2126;" horiz-adv-x="727" 
d="M673 158l-60 -158h-246l-4 21c59 88 163 222 190 354c43 204 -19 276 -108 276c-93 0 -178 -68 -223 -280c-27 -128 11 -251 39 -350l-13 -21h-246l10 158l30 1c8 -61 21 -72 63 -72h96c-56 54 -140 140 -108 292c40 188 194 307 363 307c171 0 269 -113 229 -300
c-29 -137 -145 -228 -239 -299h106c41 0 55 9 90 72z" />
    <glyph glyph-name="pi" unicode="&#x3c0;" horiz-adv-x="574" 
d="M566 470l26 -9c-14 -40 -42 -88 -60 -106c-17 -5 -40 -6 -65 -6c-19 -62 -34 -136 -48 -204c-13 -61 -5 -87 22 -87c18 0 32 9 51 24l7 -25c-34 -42 -86 -69 -128 -69c-54 0 -92 27 -69 131c19 91 38 159 59 233c-53 0 -97 2 -135 2l-3 -13c-48 -227 -117 -316 -136 -336
c-25 -9 -52 -16 -71 -17l-3 20c92 95 147 251 167 347c-61 1 -89 -13 -135 -40l-9 28c39 39 88 98 196 97c76 -1 175 -3 268 -3c32 0 45 6 66 33z" />
    <glyph glyph-name="Euro" unicode="&#x20ac;" 
d="M388 309c0 -5 -1 -9 -2 -13l-3 -13c-3 -14 -6 -15 -18 -15h-141c-1 -18 -2 -36 -2 -53c0 -84 24 -127 103 -127c15 0 37 5 52 8l19 84c2 9 4 13 17 13h68c11 0 17 -2 17 -10c0 -5 -1 -11 -2 -15l-29 -133c-7 -32 -87 -53 -165 -53c-125 0 -207 81 -207 235
c0 17 1 34 2 51h-66c-10 0 -17 3 -17 10c0 5 1 9 2 13l3 13c3 14 6 15 18 15h65c2 19 6 37 10 55h-57c-10 0 -17 3 -17 10c0 5 1 9 2 13l3 13c3 14 6 15 18 15h64c47 150 150 260 308 260c81 0 154 -31 154 -57c0 -6 -2 -14 -3 -18l-25 -117c-3 -15 -7 -14 -18 -14h-67
c-11 0 -17 2 -17 11c0 6 2 9 4 19l13 62c-16 4 -29 8 -52 8c-82 0 -136 -67 -167 -154h140c10 0 17 -2 17 -10c0 -5 -1 -9 -2 -13l-3 -13c-3 -14 -6 -15 -18 -15h-149c-4 -18 -8 -36 -10 -55h141c10 0 17 -2 17 -10z" />
    <glyph glyph-name="estimated" unicode="&#x212e;" horiz-adv-x="935" 
d="M902 324h-631c-3 0 -5 -1 -5 -4v-191c0 -9 3 -16 8 -22c62 -63 146 -104 239 -104c100 0 190 46 251 116h56c-70 -82 -183 -135 -308 -135c-215 0 -389 156 -389 349c0 194 174 350 389 350s390 -156 390 -350v-9zM759 349v191c0 9 -4 17 -10 23
c-61 60 -144 100 -236 100s-176 -41 -238 -103c-6 -6 -9 -14 -9 -24v-187c0 -3 2 -7 5 -7h483c4 0 5 4 5 7z" />
    <glyph glyph-name="partialdiff" unicode="&#x2202;" horiz-adv-x="542" 
d="M300 421h1c43 0 90 -20 111 -62c11 32 24 70 33 108c13 48 20 102 8 150c-11 40 -45 76 -101 76c-55 0 -114 -33 -156 -63c-18 -1 -35 53 -19 79c38 20 88 40 152 40c99 0 158 -54 186 -141c25 -77 16 -170 3 -232c-16 -77 -50 -171 -101 -242
c-61 -88 -145 -149 -247 -149c-112 0 -170 74 -145 196c15 70 55 129 96 166c47 44 114 74 179 74zM318 375h-1c-34 0 -69 -11 -107 -55c-40 -50 -71 -126 -86 -196c-14 -63 5 -105 56 -105c47 0 92 55 124 103c38 58 61 111 89 191c-6 25 -31 62 -75 62z" />
    <glyph glyph-name="product" unicode="&#x220f;" horiz-adv-x="793" 
d="M766 682v-31c-85 -7 -91 -15 -91 -85v-526c0 -77 7 -85 90 -92v-31h-283v31c74 6 78 11 78 91v569c0 31 -6 35 -37 35h-166c-30 0 -34 -3 -34 -31v-573c0 -74 0 -85 71 -91v-31h-276v31c81 6 90 15 90 91v527c0 71 -7 79 -93 85v31h651z" />
    <glyph glyph-name="summation" unicode="&#x2211;" horiz-adv-x="649" 
d="M627 116l-46 -205h-464v29l218 320l-214 392v30h460c1 -18 7 -102 12 -170l-31 -7c-10 45 -22 79 -36 103c-15 28 -31 36 -105 36h-160l171 -306l-221 -331h241c88 0 100 5 143 117z" />
    <glyph glyph-name="uni2219" unicode="&#x2219;" 
d="M354 256c0 -42 -35 -76 -77 -76c-41 0 -76 34 -76 76c0 43 34 77 76 77c43 0 77 -35 77 -77z" />
    <glyph glyph-name="radical" unicode="&#x221a;" horiz-adv-x="644" 
d="M633 858l-171 -1014l-27 -12l-212 534l-86 -40l-13 37l175 79l151 -399h2l135 825z" />
    <glyph glyph-name="infinity" unicode="&#x221e;" horiz-adv-x="786" 
d="M740 280v-1c0 -104 -76 -166 -155 -166c-55 0 -108 25 -172 109c-50 -61 -100 -109 -178 -109c-80 0 -151 65 -151 161c0 97 68 165 159 165c72 0 124 -44 174 -107c40 46 88 107 174 107c84 -1 149 -63 149 -159zM244 179h1c54 0 95 49 131 92c-39 53 -73 103 -136 103
c-54 0 -88 -43 -88 -101c0 -51 39 -94 92 -94zM584 374h-1c-58 0 -102 -61 -133 -97c58 -72 89 -98 137 -98c54 0 84 52 84 95c0 59 -35 100 -87 100z" />
    <glyph glyph-name="integral" unicode="&#x222b;" horiz-adv-x="482" 
d="M251 -2l-21 392c-18 356 86 430 168 430c31 0 70 -18 71 -54c0 -36 -28 -54 -54 -54c-37 0 -34 58 -55 58c-20 0 -37 -27 -31 -153l18 -364c18 -344 -72 -456 -172 -456c-39 0 -70 25 -70 55c-1 34 32 58 62 58c32 0 31 -63 52 -63c27 0 37 59 32 151z" />
    <glyph glyph-name="approxequal" unicode="&#x2248;" horiz-adv-x="567" 
d="M486 436l45 -41c-31 -57 -77 -98 -132 -98c-39 0 -66 12 -108 38c-27 17 -51 32 -82 32c-43 0 -67 -34 -91 -69l-46 40c29 56 83 98 142 98c46 0 77 -21 102 -35c35 -21 54 -34 83 -34c36 0 61 27 87 69zM486 258l45 -41c-31 -56 -76 -98 -132 -98c-39 0 -67 13 -108 37
c-28 18 -52 33 -82 33c-44 0 -68 -35 -91 -70l-46 41c29 56 83 98 142 98c47 0 77 -21 102 -35c29 -17 51 -35 82 -35c38 0 60 27 88 70z" />
    <glyph glyph-name="notequal" unicode="&#x2260;" horiz-adv-x="585" 
d="M445 494l-37 -85h131v-70h-158l-57 -130h215v-70h-243l-48 -109l-55 23l38 86h-130v70h158l56 130h-214v70h241l47 108z" />
    <glyph glyph-name="lessequal" unicode="&#x2264;" horiz-adv-x="603" 
d="M555 100l-431 214v76l431 213v-81l-360 -169v-2l360 -169v-82zM558 -8h-437v72h437v-72z" />
    <glyph glyph-name="greaterequal" unicode="&#x2265;" horiz-adv-x="604" 
d="M126 603l431 -214v-75l-431 -214v81l359 170v2l-359 169v81zM557 -8h-436v72h436v-72z" />
    <glyph glyph-name="lozenge" unicode="&#x25ca;" horiz-adv-x="653" 
d="M607 327l-192 -397h-86l-192 397l194 399h84zM527 327l-152 325h-4l-154 -325l154 -326h3z" />
    <glyph glyph-name="uni02C9" unicode="&#x2c9;" horiz-adv-x="360" 
d="M387 652l-10 -49c-2 -13 -7 -15 -22 -15h-206c-11 0 -17 2 -17 11c0 5 0 10 2 15l10 49c2 13 6 15 18 15h210c11 0 17 -2 17 -11c0 -5 0 -10 -2 -15z" />
    <glyph glyph-name="uni00AD" unicode="&#xad;" horiz-adv-x="333" 
d="M290 278l-15 -67c-4 -14 -6 -15 -18 -15h-207c-10 0 -17 4 -17 11c0 6 2 16 3 22l15 67c4 14 6 15 18 15h207c11 0 17 -3 17 -11c0 -6 -2 -16 -3 -22z" />
    <glyph glyph-name="uni03A9" unicode="&#x3a9;" horiz-adv-x="727" 
d="M673 158l-60 -158h-246l-4 21c59 88 163 222 190 354c43 204 -19 276 -108 276c-93 0 -178 -68 -223 -280c-27 -128 11 -251 39 -350l-13 -21h-246l10 158l30 1c8 -61 21 -72 63 -72h96c-56 54 -140 140 -108 292c40 188 194 307 363 307c171 0 269 -113 229 -300
c-29 -137 -145 -228 -239 -299h106c41 0 55 9 90 72z" />
    <glyph glyph-name="uni00A0" unicode="&#xa0;" horiz-adv-x="315" 
 />
    <glyph glyph-name="afii61289" unicode="&#x2113;" horiz-adv-x="431" 
d="M364 127l18 -20c-58 -77 -126 -122 -205 -122c-53 0 -84 15 -101 39c-17 29 -24 58 -5 146l15 69l-66 -39l-7 29l81 52l28 132c32 147 54 200 107 251c38 39 79 57 115 57c68 0 88 -61 72 -135c-24 -114 -98 -195 -207 -282l-18 -82c-27 -127 -10 -168 49 -168
c46 0 89 35 124 73zM244 469l-24 -112c60 56 113 137 132 227c12 60 9 103 -20 103c-34 0 -52 -49 -88 -218z" />
    <glyph glyph-name="uni03BC" unicode="&#x3bc;" horiz-adv-x="574" 
d="M201 -134l-11 -56c-2 -11 -5 -12 -14 -12h-229c-9 0 -13 3 -13 10c0 4 1 8 2 12l11 56c2 11 5 12 14 12h54l110 516h-65c-9 0 -13 3 -13 10c0 4 1 8 2 12l11 56c2 11 5 12 14 12h176c10 0 14 -3 14 -10c0 -4 -1 -8 -2 -12l-66 -284c-4 -20 -9 -40 -9 -61
c0 -23 14 -39 39 -39c80 0 117 124 132 196l43 198c2 8 4 10 14 12l82 14c5 1 14 3 20 3c5 0 9 -3 9 -8c0 -4 -1 -10 -2 -14l-74 -320c-5 -22 -12 -47 -12 -79h59c9 0 13 -3 13 -10c0 -4 -1 -8 -2 -12l-11 -56c-2 -11 -5 -12 -15 -12h-72c-83 0 -83 72 -83 85h-2
c-19 -28 -71 -102 -125 -102c-20 0 -31 4 -43 17l-22 -112h55c9 0 13 -3 13 -10c0 -4 -1 -8 -2 -12z" />
    <glyph glyph-name="uni2215" unicode="&#x2215;" horiz-adv-x="278" 
d="M370 656l-369 -663c-5 -10 -7 -10 -18 -10h-62c-11 0 -17 2 -17 9c0 6 3 12 6 17l369 665c5 9 7 11 18 11h62c11 0 17 -3 17 -9c0 -7 -3 -15 -6 -20z" />
    <glyph glyph-name="a.superior" horiz-adv-x="481" 
d="M437 647l-42 -195c-3 -13 -4 -26 -6 -39h36c9 0 15 -4 15 -9c0 -4 -2 -14 -3 -17l-6 -30c-2 -11 -8 -14 -17 -14h-58c-30 0 -53 14 -53 47c0 6 1 11 2 15l-2 2c-11 -19 -47 -74 -112 -74c-52 0 -83 39 -83 113c0 129 76 239 166 239c48 0 65 -32 71 -43l10 22
c3 7 7 9 13 9h61c8 0 11 -5 11 -9c0 -5 -2 -13 -3 -17zM309 492l22 105c-9 6 -22 18 -46 18c-52 0 -77 -108 -77 -174c0 -18 5 -33 22 -33c38 0 68 33 79 84z" />
    <glyph glyph-name="o.superior" horiz-adv-x="444" 
d="M425 561c0 -127 -82 -228 -195 -228c-71 0 -121 34 -121 124c0 126 84 228 199 228c69 0 117 -35 117 -124zM244 408c56 0 81 96 81 156c0 32 -11 46 -35 46c-57 0 -81 -95 -81 -156c0 -32 11 -46 35 -46z" />
    <glyph glyph-name="one.superior" horiz-adv-x="352" 
d="M156 332l52 243l-54 -27c-4 -2 -9 -5 -14 -5c-7 0 -9 5 -11 10l-10 21c-2 4 -4 8 -4 12c0 7 4 10 10 13l114 65c5 3 10 4 17 4h38c10 0 15 -2 15 -10c0 -4 0 -7 -1 -10l-67 -316h41c8 0 14 -2 14 -8c0 -3 -1 -10 -2 -13l-6 -30c-2 -12 -6 -14 -18 -14h-184
c-8 0 -14 3 -14 11c0 3 1 7 2 10l6 30c2 12 6 14 18 14h58z" />
    <glyph glyph-name="two.superior" horiz-adv-x="352" 
d="M152 545l-36 16c-5 2 -9 5 -9 11c0 20 52 106 157 106c65 0 107 -34 107 -101c0 -68 -37 -96 -103 -142c-60 -41 -103 -54 -118 -93h149c10 0 16 -2 16 -10c0 -3 -1 -9 -2 -12l-8 -39c-2 -12 -7 -14 -18 -14h-231c-6 0 -12 2 -12 8c0 48 29 93 50 119
c68 82 187 102 187 176c0 20 -12 33 -35 33c-53 0 -62 -60 -85 -60c-3 0 -5 0 -9 2z" />
    <glyph glyph-name="three.superior" horiz-adv-x="352" 
d="M145 574l-31 26c-3 2 -5 5 -5 8c0 15 58 70 134 70c69 0 111 -34 111 -89c0 -56 -27 -79 -73 -107c22 -14 48 -24 48 -80c0 -88 -70 -145 -172 -145c-53 0 -119 21 -119 35c0 3 1 6 3 9l20 42c2 6 8 9 13 9c9 0 36 -20 89 -20c47 0 76 26 76 66c0 38 -34 41 -65 41h-20
c-10 0 -16 3 -16 10c0 4 1 7 2 11l8 41c1 9 6 13 18 13h25c47 0 73 24 73 60c0 21 -15 29 -32 29c-45 0 -65 -33 -78 -33c-3 0 -7 2 -9 4z" />
    <glyph glyph-name="uni2206" unicode="&#x2206;" horiz-adv-x="644" 
d="M554 0h-574l7 32l393 641l53 13l128 -654zM425 56l-87 472l-283 -472h370z" />
    <glyph glyph-name="uni2010" unicode="&#x2010;" horiz-adv-x="333" 
d="M290 278l-15 -67c-4 -14 -6 -15 -18 -15h-207c-10 0 -17 4 -17 11c0 6 2 16 3 22l15 67c4 14 6 15 18 15h207c11 0 17 -3 17 -11c0 -6 -2 -16 -3 -22z" />
    </font>
</defs>
</svg>
