<?xml version="1.0" standalone="no"?>
<!DOCTYPE svg PUBLIC "-//W3C//DTD SVG 1.1//EN" "http://www.w3.org/Graphics/SVG/1.1/DTD/svg11.dtd" >
<svg xmlns="http://www.w3.org/2000/svg" xmlns:xlink="http://www.w3.org/1999/xlink" version="1.1">
<metadata>
Created by FontForge 20170731 at Thu Jul  7 17:43:53 2011
 By Aleksey,,,
Copyright (c) 2011 by Hannes von Doehren. All rights reserved.
</metadata>
<defs>
<font id="PlutoMedium" horiz-adv-x="600" >
  <font-face 
    font-family="Pluto Medium"
    font-weight="500"
    font-stretch="normal"
    units-per-em="1000"
    panose-1="2 11 6 3 2 2 3 6 2 4"
    ascent="750"
    descent="-250"
    x-height="523"
    cap-height="680"
    bbox="-134 -279 1267 907"
    underline-thickness="50"
    underline-position="-200"
    unicode-range="U+0020-FB02"
  />
<missing-glyph horiz-adv-x="612" 
d="M50 720h512v-720h-512v720zM266 283h48q0 26 14 47t34 36t40 29.5t34 36t14 48.5q0 51 -36.5 85t-101.5 34q-39 0 -67 -14.5t-41.5 -37t-19 -43.5t-5.5 -41h47q0 40 21 66.5t65 26.5q41 0 64 -21.5t23 -54.5q0 -23 -21 -45t-45.5 -38t-45.5 -46t-21 -68zM255 194v-71h68
v71h-68z" />
    <glyph glyph-name=".notdef" horiz-adv-x="612" 
d="M50 720h512v-720h-512v720zM266 283h48q0 26 14 47t34 36t40 29.5t34 36t14 48.5q0 51 -36.5 85t-101.5 34q-39 0 -67 -14.5t-41.5 -37t-19 -43.5t-5.5 -41h47q0 40 21 66.5t65 26.5q41 0 64 -21.5t23 -54.5q0 -23 -21 -45t-45.5 -38t-45.5 -46t-21 -68zM255 194v-71h68
v71h-68z" />
    <glyph glyph-name=".null" horiz-adv-x="0" 
 />
    <glyph glyph-name="nonmarkingreturn" horiz-adv-x="333" 
 />
    <glyph glyph-name="space" unicode=" " horiz-adv-x="250" 
 />
    <glyph glyph-name="exclam" unicode="!" horiz-adv-x="314" 
d="M107 245l-21 435h141l-21 -435h-99zM71 71q0 41 22.5 63t63.5 22t64 -22.5t23 -62.5t-23 -62t-64 -22t-63.5 22t-22.5 62z" />
    <glyph glyph-name="quotedbl" unicode="&#x22;" horiz-adv-x="473" 
d="M182 680l-6 -254h-98l-6 254h110zM401 680l-6 -254h-98l-6 254h110z" />
    <glyph glyph-name="numbersign" unicode="#" horiz-adv-x="704" 
d="M334 11l36 142h-137l-38 -153h-105v11l36 142h-83v104h109l41 162h-79v104h106l40 157h103v-10l-37 -147h138l40 157h103v-10l-37 -147h92v-104h-118l-41 -162h88v-104h-114l-38 -153h-105v11zM300 419l-41 -162h137l41 162h-137z" />
    <glyph glyph-name="dollar" unicode="$" 
d="M260 -129v120q-62 4 -120.5 21t-92.5 37l33 133q82 -53 180 -63v163l-68 19q-156 41 -156 182q0 81 56.5 137t167.5 67v82h84v-81q123 -9 208 -53l-40 -131q-69 44 -168 55v-156l37 -10q94 -27 138.5 -71.5t44.5 -116.5q0 -84 -60 -141t-160 -70v-123h-84zM181 495
q0 -26 17.5 -40.5t56.5 -25.5l5 -2v131q-79 -11 -79 -63zM418 194q0 23 -18.5 38t-55.5 27v-136q74 17 74 71z" />
    <glyph glyph-name="percent" unicode="%" horiz-adv-x="896" 
d="M488 171q0 78 52.5 130.5t132.5 52.5q81 0 133.5 -52.5t52.5 -130.5t-52.5 -129.5t-133.5 -51.5q-80 0 -132.5 51.5t-52.5 129.5zM595 171q0 -33 22 -56t56 -23t56 23t22 56q0 34 -22 57t-56 23t-56 -23t-22 -57zM212 11l349 669h120v-10l-348 -670h-121v11zM37 507
q0 78 52.5 130.5t132.5 52.5q81 0 133.5 -52.5t52.5 -130.5t-52.5 -129.5t-133.5 -51.5q-80 0 -132.5 51.5t-52.5 129.5zM144 507q0 -33 22 -56t56 -23t56 23t22 56q0 34 -22 57t-56 23t-56 -23t-22 -57z" />
    <glyph glyph-name="ampersand" unicode="&#x26;" horiz-adv-x="781" 
d="M754 20v-20h-184l-55 52q-103 -62 -225 -62q-111 0 -175 53t-64 147q0 65 35 105.5t104 69.5q-34 36 -50 69t-16 79q0 74 59.5 125.5t162.5 51.5q99 0 162 -49t63 -126t-41 -120.5t-114 -69.5l114 -102q65 72 102 168l106 -75q-45 -100 -116 -177zM305 109q61 0 119 30
l-146 140q-42 -16 -64 -34t-22 -46q0 -41 31 -65.5t82 -24.5zM261 505q0 -40 61 -95l32 11q44 15 62 31.5t18 47.5q0 30 -23.5 50t-64.5 20q-43 0 -64 -18.5t-21 -46.5z" />
    <glyph glyph-name="quotesingle" unicode="'" horiz-adv-x="254" 
d="M182 680l-6 -254h-98l-6 254h110z" />
    <glyph glyph-name="parenleft" unicode="(" horiz-adv-x="321" 
d="M287 671q-46 -70 -81 -175.5t-35 -234.5q0 -128 35 -233.5t81 -175.5l-79 -45q-58 56 -109 177t-51 278t51 277.5t109 176.5z" />
    <glyph glyph-name="parenright" unicode=")" horiz-adv-x="321" 
d="M34 671l79 45q58 -56 109 -176.5t51 -277.5t-51 -278t-109 -177l-79 45q46 69 81 174.5t35 234.5q0 130 -34.5 235.5t-81.5 174.5z" />
    <glyph glyph-name="asterisk" unicode="*" horiz-adv-x="543" 
d="M238 531q-17 64 -17 125q0 27 15 41.5t36 14.5q20 0 35 -14.5t15 -40.5q0 -50 -19 -120q75 47 122 57q32 7 48 -9t16 -40q0 -41 -41 -51q-59 -14 -132 -14q69 -54 100 -100q18 -28 4.5 -54t-40.5 -26q-33 0 -50 24q-38 54 -58 120q-19 -54 -57 -115q-20 -29 -53 -29
q-32 0 -43 29.5t10 56.5q37 47 89 87q-47 1 -125 24q-38 11 -38 45q0 28 19 45t50 7q46 -15 114 -63z" />
    <glyph glyph-name="plus" unicode="+" 
d="M355 542v-184h184v-110h-184v-184h-110v184h-184v110h184v184h110z" />
    <glyph glyph-name="comma" unicode="," horiz-adv-x="293" 
d="M73 -141l44 130q-57 14 -57 79q0 42 22 65t63 23t64 -24t23 -64q0 -51 -25.5 -121t-54.5 -119z" />
    <glyph glyph-name="hyphen" unicode="-" horiz-adv-x="546" 
d="M73 358h400v-110h-400v110z" />
    <glyph glyph-name="period" unicode="." horiz-adv-x="293" 
d="M60 71q0 41 22.5 63t63.5 22t64 -22.5t23 -62.5t-23 -62t-64 -22t-63.5 22t-22.5 62z" />
    <glyph glyph-name="slash" unicode="/" horiz-adv-x="502" 
d="M17 11l349 669h120v-10l-348 -670h-121v11z" />
    <glyph glyph-name="zero" unicode="0" horiz-adv-x="726" 
d="M65 339q0 164 75.5 257.5t221.5 93.5q147 0 223 -93.5t76 -257.5q0 -163 -76 -256t-223 -93q-146 0 -221.5 93t-75.5 256zM201 339q0 -220 161 -220q163 0 163 220q0 223 -163 223q-161 0 -161 -223z" />
    <glyph glyph-name="one" unicode="1" horiz-adv-x="515" 
d="M15 522l294 158h103v-680h-140v521l-204 -105z" />
    <glyph glyph-name="two" unicode="2" horiz-adv-x="663" 
d="M600 122v-122h-524v105l265 199q52 39 75 74.5t23 77.5q0 46 -30 76t-85 30q-68 0 -103 -38t-35 -101l-128 24q3 112 73.5 177.5t194.5 65.5q123 0 189.5 -65t66.5 -157q0 -71 -28 -125.5t-106 -110.5l-154 -110h306z" />
    <glyph glyph-name="three" unicode="3" horiz-adv-x="642" 
d="M147 288v122h152q56 0 85 21.5t29 57.5q0 39 -35.5 60t-93.5 21q-55 0 -110.5 -13.5t-86.5 -27.5l-32 119q39 15 103 28.5t124 13.5q133 0 203 -48t70 -139q0 -54 -27.5 -95t-77.5 -53q68 -22 98.5 -61.5t30.5 -107.5q0 -91 -77 -143.5t-220 -52.5q-104 0 -226 42l34 117
q91 -40 192 -40q69 0 111 26.5t42 71.5q0 81 -136 81h-152z" />
    <glyph glyph-name="four" unicode="4" horiz-adv-x="716" 
d="M657 131h-116v-131h-133v131h-358v95l315 454h176v-433h116v-116zM193 247h215v307z" />
    <glyph glyph-name="five" unicode="5" horiz-adv-x="640" 
d="M556 680v-122h-322l-11 -142h72q283 0 283 -193q0 -116 -80 -174.5t-214 -58.5q-120 0 -236 45l36 116q89 -42 193 -42q70 0 114 27.5t44 83.5q0 93 -148 93h-195l-6 6l31 361h439z" />
    <glyph glyph-name="six" unicode="6" horiz-adv-x="701" 
d="M614 637l-39 -114q-80 48 -181 48q-167 0 -187 -180q79 62 189 62q119 0 184 -58t65 -162q0 -110 -75.5 -176.5t-193.5 -66.5q-148 0 -230 95t-82 256q0 159 82.5 254t231.5 95q72 0 136 -17t100 -36zM375 339q-86 0 -164 -71q29 -150 165 -150q58 0 94 33t36 82
q0 54 -35.5 80t-95.5 26z" />
    <glyph glyph-name="seven" unicode="7" horiz-adv-x="571" 
d="M112 13l274 545h-351v122h508v-98l-277 -582h-154v13z" />
    <glyph glyph-name="eight" unicode="8" horiz-adv-x="706" 
d="M353 -10q-138 0 -213.5 52.5t-75.5 143.5q0 141 144 169q-58 11 -89.5 52.5t-31.5 95.5q0 91 68.5 139t197.5 48t197.5 -48t68.5 -139q0 -54 -31.5 -95.5t-89.5 -52.5q145 -28 145 -169q0 -91 -76 -143.5t-214 -52.5zM354 288q-74 0 -111.5 -23.5t-37.5 -63.5
q0 -43 40.5 -68t107.5 -25t107.5 25t40.5 68q0 40 -36.5 63.5t-110.5 23.5zM353 575q-60 0 -93.5 -20t-33.5 -60q0 -35 31.5 -57t96.5 -22t95.5 21.5t30.5 57.5q0 40 -33.5 60t-93.5 20z" />
    <glyph glyph-name="nine" unicode="9" horiz-adv-x="701" 
d="M87 43l39 114q82 -48 181 -48q167 0 187 181q-78 -63 -188 -63q-119 0 -184.5 58.5t-65.5 161.5q0 110 75.5 176.5t194.5 66.5q148 0 229.5 -95t81.5 -256q0 -159 -82 -254t-231 -95q-72 0 -136.5 17t-100.5 36zM327 341q90 0 163 71q-13 70 -54 110t-110 40
q-59 0 -94.5 -33t-35.5 -82q0 -54 35 -80t96 -26z" />
    <glyph glyph-name="colon" unicode=":" horiz-adv-x="315" 
d="M72 454q0 40 22 61.5t62 21.5q41 0 63 -21.5t22 -61.5q0 -39 -22.5 -60.5t-62.5 -21.5t-62 21.5t-22 60.5zM72 68q0 40 22 61.5t62 21.5q41 0 63 -21.5t22 -61.5q0 -39 -22.5 -60.5t-62.5 -21.5t-62 21.5t-22 60.5z" />
    <glyph glyph-name="semicolon" unicode=";" horiz-adv-x="318" 
d="M90 -138l43 126q-56 14 -56 77q0 41 22 63.5t61 22.5q40 0 62.5 -23.5t22.5 -62.5q0 -50 -25 -118t-53 -115zM72 454q0 40 22 61.5t62 21.5q41 0 63 -21.5t22 -61.5q0 -39 -22.5 -60.5t-62.5 -21.5t-62 21.5t-22 60.5z" />
    <glyph glyph-name="less" unicode="&#x3c;" 
d="M61 246v108l467 190h11v-106l-367 -136l367 -134v-107h-11z" />
    <glyph glyph-name="equal" unicode="=" 
d="M61 218h478v-110h-478v110zM61 497h478v-110h-478v110z" />
    <glyph glyph-name="greater" unicode="&#x3e;" 
d="M538 354v-108l-467 -185h-10v107l366 134l-366 136v106h10z" />
    <glyph glyph-name="question" unicode="?" horiz-adv-x="491" 
d="M266 245h-115q-11 31 -11 62q0 50 56 84l57 36q25 17 37 33.5t12 42.5q0 33 -22.5 52t-58.5 19q-41 0 -81 -18.5t-64 -44.5l-38 109q80 70 204 70q92 0 146.5 -49.5t54.5 -128.5q0 -59 -23.5 -94t-65.5 -61l-59 -36q-19 -13 -26 -22.5t-7 -26.5q0 -14 4 -27zM123 71
q0 41 22.5 63t63.5 22t64 -22.5t23 -62.5t-23 -62t-64 -22t-63.5 22t-22.5 62z" />
    <glyph glyph-name="at" unicode="@" horiz-adv-x="986" 
d="M720 491v-335q0 -18 2 -27.5t10.5 -16.5t24.5 -7q34 0 63 53.5t29 158.5q0 137 -94.5 222.5t-253.5 85.5q-161 0 -258.5 -99.5t-97.5 -262.5q0 -162 97.5 -262.5t258.5 -100.5q95 0 173 38l35 -86q-95 -46 -208 -46q-198 0 -326 129.5t-128 327.5q0 199 128 327.5
t326 128.5q199 0 322.5 -111t123.5 -290q0 -153 -66 -230t-179 -77q-77 0 -108 58q-50 -57 -147 -57q-98 0 -158.5 68t-60.5 174q0 108 60.5 176.5t158.5 68.5q94 0 138 -50v42h135zM585 342q-40 40 -100 40q-55 0 -87.5 -35t-32.5 -93q0 -57 32.5 -91.5t87.5 -34.5
q57 0 100 40v174z" />
    <glyph glyph-name="A" unicode="A" horiz-adv-x="726" 
d="M12 0l271 680h164l263 -680h-142l-52 136h-309l-53 -136h-142zM365 541l-122 -301h238z" />
    <glyph glyph-name="B" unicode="B" horiz-adv-x="725" 
d="M99 0v680h284q114 0 175 -45t61 -136q0 -105 -105 -145q159 -31 159 -172q0 -85 -63 -133.5t-181 -48.5h-330zM239 120h170q114 0 114 80q0 45 -31.5 64.5t-94.5 19.5h-158v-164zM239 407h121q114 0 114 76q0 42 -27.5 59.5t-83.5 17.5h-124v-153z" />
    <glyph glyph-name="C" unicode="C" horiz-adv-x="741" 
d="M622 205l66 -105q-49 -47 -124 -78.5t-155 -31.5q-154 0 -252 94t-98 255q0 162 98 256.5t252 94.5q130 0 202.5 -68.5t75.5 -188.5l-129 -27q-2 73 -39.5 113.5t-111.5 40.5q-92 0 -147.5 -58.5t-55.5 -162.5q0 -103 56.5 -161t151.5 -58q118 0 210 85z" />
    <glyph glyph-name="D" unicode="D" horiz-adv-x="802" 
d="M99 0v680h293q156 -1 253.5 -90.5t97.5 -250.5q0 -160 -97.5 -249.5t-253.5 -89.5h-293zM386 558h-147v-436h147q96 0 154 57t58 160q0 104 -58 161.5t-154 57.5z" />
    <glyph glyph-name="E" unicode="E" horiz-adv-x="696" 
d="M637 0h-538v680h538v-123h-404v-147h331v-123h-331v-164h404v-123z" />
    <glyph glyph-name="F" unicode="F" horiz-adv-x="661" 
d="M563 239h-330v-239h-134v680h518v-123h-384v-195h330v-123z" />
    <glyph glyph-name="G" unicode="G" horiz-adv-x="779" 
d="M391 402h319v-319q-49 -39 -131.5 -66t-158.5 -27q-156 0 -259 94.5t-103 254.5q0 161 103 256t259 95q150 0 264 -92l-65 -107q-83 69 -196 69q-96 0 -158 -59t-62 -162q0 -102 63 -160.5t163 -58.5q80 0 141 36v125h-179v121z" />
    <glyph glyph-name="H" unicode="H" horiz-adv-x="843" 
d="M604 0v282h-365v-282h-140v680h140v-276h365v276h140v-680h-140z" />
    <glyph glyph-name="I" unicode="I" horiz-adv-x="338" 
d="M99 0v680h140v-680h-140z" />
    <glyph glyph-name="J" unicode="J" horiz-adv-x="657" 
d="M425 680h141v-410q0 -128 -69.5 -204.5t-202.5 -76.5q-253 0 -270 272l139 13q6 -77 36 -116t97 -39q129 0 129 160v401z" />
    <glyph glyph-name="K" unicode="K" horiz-adv-x="788" 
d="M99 0v680h140v-283h134l185 283h145v-21l-225 -327q14 -16 50 -77.5t73.5 -102t79.5 -40.5q43 0 76 15l15 -111q-52 -26 -119 -26q-47 0 -88.5 22.5t-71.5 59.5t-53 73.5t-45.5 75t-36.5 54.5h-119v-275h-140z" />
    <glyph glyph-name="L" unicode="L" horiz-adv-x="616" 
d="M592 0h-493v680h140v-558h353v-122z" />
    <glyph glyph-name="M" unicode="M" horiz-adv-x="958" 
d="M719 0v459l-228 -274h-25l-227 274v-459h-140v680h126l254 -303l254 303h126v-680h-140z" />
    <glyph glyph-name="N" unicode="N" horiz-adv-x="842" 
d="M621 0l-382 457v-457h-140v680h122l382 -458v458h140v-680h-122z" />
    <glyph glyph-name="O" unicode="O" horiz-adv-x="814" 
d="M57 339q0 151 100 251t249 100q151 0 251 -100t100 -251q0 -149 -100 -249t-251 -100q-149 0 -249 100t-100 249zM195 339q0 -93 60 -155.5t152 -62.5q93 0 152.5 62.5t59.5 155.5q0 94 -59.5 156t-152.5 62q-92 0 -152 -62t-60 -156z" />
    <glyph glyph-name="P" unicode="P" horiz-adv-x="712" 
d="M99 0v680h325q107 0 177 -63.5t70 -184.5q0 -111 -71.5 -177.5t-175.5 -66.5h-185v-188h-140zM402 558h-163v-248h163q53 0 88.5 33.5t35.5 89.5q0 59 -35 92t-89 33z" />
    <glyph glyph-name="Q" unicode="Q" horiz-adv-x="815" 
d="M815 -48l15 -113q-55 -19 -125 -19q-55 0 -107 23t-83.5 51t-63.5 58.5t-46 37.5q-149 1 -248 100.5t-99 248.5q0 151 100 251t249 100q151 0 251 -100t100 -251q0 -109 -56 -194.5t-150 -125.5q28 -25 47.5 -39.5t51.5 -28t64 -13.5q63 0 100 14zM195 339q0 -93 60 -155
t152 -62q93 0 152.5 62t59.5 155q0 94 -59.5 156t-152.5 62q-92 0 -152 -62t-60 -156z" />
    <glyph glyph-name="R" unicode="R" horiz-adv-x="777" 
d="M99 0v680h299q53 0 99.5 -11.5t86 -36t62.5 -69t23 -104.5q0 -83 -54 -140.5t-138 -70.5q7 -7 27 -26.5t29 -28t27 -24.5t30 -24t28 -17t30.5 -13t29.5 -4q41 0 76 16l14 -111q-52 -26 -112 -26q-53 0 -107.5 32t-91.5 71t-81.5 86.5t-68.5 65.5h-68v-245h-140zM413 558
h-174v-203h174q49 0 79.5 27t30.5 74q0 49 -30 75.5t-80 26.5z" />
    <glyph glyph-name="S" unicode="S" horiz-adv-x="642" 
d="M343 266l-129 35q-156 41 -156 182q0 90 69 148t203 58q70 0 136 -15.5t108 -38.5l-40 -131q-38 25 -96.5 41t-112.5 16q-122 0 -122 -66q0 -26 17.5 -40.5t56.5 -25.5l126 -36q94 -27 138.5 -71.5t44.5 -116.5q0 -96 -77 -155.5t-200 -59.5q-68 0 -134.5 18.5
t-105.5 40.5l33 133q98 -64 210 -64q60 0 94 21t34 55q0 26 -23.5 42t-73.5 30z" />
    <glyph glyph-name="T" unicode="T" horiz-adv-x="638" 
d="M609 540h-216v-540h-140v540h-224v140h580v-140z" />
    <glyph glyph-name="U" unicode="U" horiz-adv-x="801" 
d="M231 680v-384q0 -83 42.5 -130t125.5 -47q84 0 127.5 48t43.5 130v383h140v-393q0 -126 -82.5 -212t-228.5 -86q-147 0 -227.5 82t-80.5 216v393h140z" />
    <glyph glyph-name="V" unicode="V" horiz-adv-x="737" 
d="M279 0l-263 680h153l198 -551l205 551h153l-270 -680h-176z" />
    <glyph glyph-name="W" unicode="W" horiz-adv-x="1104" 
d="M669 0l-115 291l-123 -291h-152l-263 680h151l200 -523l126 300l-84 223h152l182 -500l196 500h153l-271 -680h-152z" />
    <glyph glyph-name="X" unicode="X" horiz-adv-x="740" 
d="M710 680v-10l-242 -331l242 -328v-11h-162l-178 247l-178 -247h-162v11l241 328l-241 331v10h161l179 -249l180 249h160z" />
    <glyph glyph-name="Y" unicode="Y" horiz-adv-x="686" 
d="M273 0v269l-266 401v10h156l180 -282l180 282h156v-10l-266 -400v-270h-140z" />
    <glyph glyph-name="Z" unicode="Z" horiz-adv-x="654" 
d="M62 98l350 460h-350v122h530v-98l-348 -460h348v-122h-530v98z" />
    <glyph glyph-name="bracketleft" unicode="[" horiz-adv-x="360" 
d="M322 -188h-236v898h236v-110h-125v-678h125v-110z" />
    <glyph glyph-name="backslash" unicode="\" horiz-adv-x="502" 
d="M137 680l349 -669v-11h-121l-348 670v10h120z" />
    <glyph glyph-name="bracketright" unicode="]" horiz-adv-x="359" 
d="M38 710h235v-898h-235v110h125v678h-125v110z" />
    <glyph glyph-name="asciicircum" unicode="^" 
d="M245 680h104l188 -283v-11h-128l-112 185l-111 -185h-127v11z" />
    <glyph glyph-name="underscore" unicode="_" horiz-adv-x="696" 
d="M98 -31h500v-110h-500v110z" />
    <glyph glyph-name="grave" unicode="`" 
d="M299 589l-102 152h139l81 -152h-118z" />
    <glyph glyph-name="a" unicode="a" horiz-adv-x="713" 
d="M590 523v-362q0 -53 36 -53q23 0 53 16l6 -111q-50 -23 -114 -23q-89 0 -111 76q-64 -75 -166 -75q-109 0 -177 75.5t-68 193.5q0 120 68 196t177 76q102 0 156 -54v45h140zM450 159v204q-19 20 -51 33.5t-66 13.5q-65 0 -103.5 -41t-38.5 -109q0 -66 39 -107t103 -41
q66 0 117 47z" />
    <glyph glyph-name="b" unicode="b" horiz-adv-x="673" 
d="M625 262q0 -119 -68 -195.5t-178 -76.5q-100 0 -157 57v-47h-140v710h140v-231q60 53 157 53q110 0 178 -75.5t68 -194.5zM482 262q0 67 -39 107.5t-103 40.5q-69 0 -118 -49v-201q48 -48 118 -48q64 0 103 41t39 109z" />
    <glyph glyph-name="c" unicode="c" horiz-adv-x="602" 
d="M500 167l54 -109q-92 -72 -222 -72q-142 0 -213 75t-71 199q0 121 76 199t200 78q111 0 171.5 -55.5t64.5 -149.5l-124 -28q-8 110 -111 110q-61 0 -97 -42t-36 -108q0 -68 39 -111.5t118 -43.5q37 0 78.5 17t72.5 41z" />
    <glyph glyph-name="d" unicode="d" horiz-adv-x="713" 
d="M450 710h140v-549q0 -53 36 -53q18 0 52 16l7 -111q-48 -23 -115 -23q-86 0 -110 67q-56 -67 -167 -67q-108 0 -176.5 76.5t-68.5 195.5t68.5 194.5t176.5 75.5q96 0 157 -53v231zM190 262q0 -68 39 -109t104 -41q33 0 65.5 14t51.5 33v203q-48 48 -117 48
q-64 0 -103.5 -40.5t-39.5 -107.5z" />
    <glyph glyph-name="e" unicode="e" horiz-adv-x="607" 
d="M499 157l53 -100q-87 -71 -220 -71q-141 0 -213 76t-72 198q0 119 76 198t200 79q114 0 174 -61t60 -157q0 -65 -11 -102h-355q20 -114 145 -114q91 0 163 54zM422 325q1 5 1 18q0 34 -26 56t-77 22q-53 0 -85 -27.5t-40 -68.5h227z" />
    <glyph glyph-name="f" unicode="f" horiz-adv-x="456" 
d="M36 389v109h96v36q0 81 45 133.5t135 52.5q75 0 135 -30l-31 -121q-42 28 -88 28q-56 0 -56 -64v-35h157v-109h-157v-389h-140v389h-96z" />
    <glyph glyph-name="g" unicode="g" horiz-adv-x="673" 
d="M49 280q0 106 68.5 179t176.5 73q101 0 157 -53v44h140v-458q0 -128 -73 -195.5t-195 -67.5q-98 0 -197 49q-2 1 -4 1.5t-3 1.5l30 124q86 -53 174 -53q128 0 128 111v47q-61 -53 -157 -53q-107 0 -176 72.5t-69 177.5zM192 280q0 -57 38.5 -92.5t102.5 -35.5
q70 0 118 48v161q-19 20 -51.5 34.5t-66.5 14.5q-64 0 -102.5 -36t-38.5 -94z" />
    <glyph glyph-name="h" unicode="h" horiz-adv-x="696" 
d="M82 710h140v-249q61 71 168 71q97 0 145.5 -64t48.5 -167v-140q0 -53 36 -53q19 0 53 16l6 -111q-48 -23 -114 -23q-121 0 -121 138v150q0 59 -27 92t-79 33q-41 0 -71.5 -28t-44.5 -64v-311h-140v710z" />
    <glyph glyph-name="i" unicode="i" horiz-adv-x="345" 
d="M220 523v-362q0 -53 36 -53q30 0 52 16l7 -111q-7 -6 -42.5 -14.5t-72.5 -8.5q-120 0 -120 138v395h140zM69 671q0 69 82 69q80 0 80 -69q0 -70 -80 -70q-82 0 -82 70z" />
    <glyph glyph-name="j" unicode="j" horiz-adv-x="304" 
d="M222 523v-475q0 -167 -145 -245l-83 91q42 26 65 59.5t23 88.5v481h140zM72 671q0 69 81 69q80 0 80 -69q0 -70 -80 -70q-81 0 -81 70z" />
    <glyph glyph-name="k" unicode="k" horiz-adv-x="643" 
d="M452 523h140q-27 -187 -142 -262l156 -238v-23h-151l-128 214q-53 -10 -105 -10v-204h-140v710h140v-382q48 0 81.5 7t65 27t52 59.5t31.5 101.5z" />
    <glyph glyph-name="l" unicode="l" horiz-adv-x="345" 
d="M77 710h140v-545q0 -57 43 -57q24 0 56 16l7 -111q-55 -23 -118 -23q-128 0 -128 141v579z" />
    <glyph glyph-name="m" unicode="m" horiz-adv-x="1042" 
d="M82 523h140v-58q61 68 165 68q131 0 168 -93q60 92 184 92q96 0 143.5 -64t47.5 -167v-140q0 -53 35 -53q21 0 53 16l7 -111q-48 -23 -115 -23q-120 0 -120 138v150q0 59 -26.5 92t-77.5 33q-40 0 -68.5 -23t-40.5 -57v-323h-140v279q0 59 -26 91.5t-77 32.5
q-41 0 -70 -23.5t-42 -58.5v-321h-140v523z" />
    <glyph glyph-name="n" unicode="n" horiz-adv-x="696" 
d="M82 523h140v-64q63 73 168 73q97 0 145.5 -64t48.5 -167v-140q0 -53 36 -53q23 0 53 16l6 -111q-46 -23 -114 -23q-121 0 -121 138v150q0 59 -27 92t-79 33q-41 0 -71.5 -28t-44.5 -64v-311h-140v523z" />
    <glyph glyph-name="o" unicode="o" horiz-adv-x="654" 
d="M46 260q0 119 79.5 198t200.5 79q123 0 202.5 -78.5t79.5 -198.5q0 -118 -79.5 -196t-202.5 -78q-121 0 -200.5 78t-79.5 196zM181 260q0 -62 40.5 -104t104.5 -42q65 0 106 42t41 104q0 64 -41 106.5t-106 42.5q-64 0 -104.5 -42.5t-40.5 -106.5z" />
    <glyph glyph-name="p" unicode="p" horiz-adv-x="712" 
d="M262 -188h-140v549q0 53 -36 53q-35 0 -53 -16l-6 112q8 6 42.5 14.5t71.5 8.5q86 0 110 -68q59 67 167 67q109 0 177.5 -76t68.5 -196q0 -118 -68.5 -194t-177.5 -76q-97 0 -156 52v-230zM379 410q-34 0 -66.5 -14t-50.5 -34v-203q49 -47 117 -47q64 0 103.5 40.5
t39.5 107.5q0 68 -39 109t-104 41z" />
    <glyph glyph-name="q" unicode="q" horiz-adv-x="672" 
d="M49 260q0 120 68 196t177 76q98 0 156 -56v47h140v-711h-140v230q-62 -52 -156 -52q-109 0 -177 76t-68 194zM333 112q68 0 117 47v203q-19 20 -51 34t-66 14q-65 0 -103.5 -41t-38.5 -109q0 -67 39 -107.5t103 -40.5z" />
    <glyph glyph-name="r" unicode="r" horiz-adv-x="498" 
d="M122 0v361q0 53 -36 53q-29 0 -53 -15l-6 110q6 6 41.5 14.5t72.5 8.5q92 0 114 -79q40 79 131 79q34 0 61 -10t33 -20l-20 -126q-7 9 -35 18t-61 9q-84 0 -102 -119v-284h-140z" />
    <glyph glyph-name="s" unicode="s" horiz-adv-x="524" 
d="M473 494l-37 -121q-82 42 -166 42q-80 0 -80 -43q0 -18 12.5 -26.5t44.5 -16.5l100 -25q67 -17 97 -53t30 -95q0 -77 -56 -121.5t-157 -44.5q-113 0 -203 45l26 119q92 -48 171 -48q80 0 80 40q0 15 -16 24t-50 17l-91 23q-129 33 -129 151q0 77 63 124t169 47
q49 0 104.5 -11.5t87.5 -26.5z" />
    <glyph glyph-name="t" unicode="t" horiz-adv-x="507" 
d="M137 656h123v-133h191v-109h-191v-213q0 -89 71 -89q54 0 106 38l44 -108q-84 -52 -194 -52q-78 0 -122.5 47t-44.5 136v241h-93v109h93z" />
    <glyph glyph-name="u" unicode="u" horiz-adv-x="700" 
d="M437 523h140v-362q0 -53 35 -53q21 0 53 16l7 -111q-44 -23 -115 -23q-85 0 -110 68q-59 -68 -178 -68q-98 0 -146 61.5t-48 169.5v302h140v-281q0 -67 23 -95.5t83 -28.5q78 0 116 70v335z" />
    <glyph glyph-name="v" unicode="v" horiz-adv-x="673" 
d="M112 221v140q0 53 -36 53q-26 0 -53 -15l-6 110q44 23 114 23q60 0 90.5 -33t30.5 -105v-152q0 -124 102 -124q53 0 85.5 36t32.5 103q0 124 -62 266h148q54 -142 54 -275q0 -118 -69 -188t-189 -70q-119 0 -180.5 61t-61.5 170z" />
    <glyph glyph-name="w" unicode="w" horiz-adv-x="1000" 
d="M453 523h140v-284q0 -121 95 -121q54 0 82.5 39t28.5 103q0 119 -63 263h149q54 -142 54 -275q0 -118 -64.5 -188t-177.5 -70q-69 0 -111 23.5t-67 73.5q-50 -97 -188 -97q-108 0 -163 60.5t-55 170.5v140q0 27 -7.5 40t-29.5 13q-32 0 -53 -16l-6 112q61 22 119 22
q117 0 117 -135v-155q0 -124 95 -124q49 0 77 33.5t28 95.5v276z" />
    <glyph glyph-name="x" unicode="x" horiz-adv-x="605" 
d="M575 523v-10l-176 -253l176 -249v-11h-152l-120 180l-120 -180h-153v11l175 249l-175 253v10h151l122 -183l122 183h150z" />
    <glyph glyph-name="y" unicode="y" horiz-adv-x="596" 
d="M7 523h155l144 -370l139 370h141l-217 -528q-41 -103 -89.5 -148t-132.5 -45q-66 0 -120 35l21 113q54 -30 99 -30q33 0 52 15.5t35 51.5l11 27z" />
    <glyph glyph-name="z" unicode="z" horiz-adv-x="537" 
d="M55 98l253 315h-253v110h428v-98l-251 -315h251v-110h-428v98z" />
    <glyph glyph-name="braceleft" unicode="{" horiz-adv-x="347" 
d="M298 710v-98h-38q-30 0 -45.5 -16t-15.5 -40q0 -25 26 -95.5t26 -108.5q0 -78 -84 -94q84 -16 84 -95q0 -37 -26 -107t-26 -96q0 -24 15.5 -40.5t45.5 -16.5h38v-98h-52q-157 0 -157 128q0 37 26 109.5t26 110.5q0 34 -24.5 49t-80.5 15v83q55 0 80 17.5t25 53.5
q0 37 -26 108.5t-26 108.5q0 58 39 90t118 32h52z" />
    <glyph glyph-name="bar" unicode="|" horiz-adv-x="283" 
d="M86 -188v898h111v-898h-111z" />
    <glyph glyph-name="braceright" unicode="}" horiz-adv-x="346" 
d="M49 710h51q79 0 118.5 -32t39.5 -90q0 -37 -26 -108.5t-26 -108.5q0 -36 24.5 -53.5t79.5 -17.5v-83q-56 0 -80 -15t-24 -49q0 -38 26 -110.5t26 -109.5q0 -128 -158 -128h-51v98h38q30 0 45.5 16.5t15.5 40.5q0 26 -26 96t-26 107q0 79 84 95q-84 16 -84 94
q0 38 26 108.5t26 95.5q0 24 -15.5 40t-45.5 16h-38v98z" />
    <glyph glyph-name="asciitilde" unicode="~" horiz-adv-x="534" 
d="M430 372l47 -66q-14 -43 -46.5 -69t-73.5 -26q-39 0 -92.5 36t-84.5 36q-25 0 -46 -15.5t-31 -42.5l-45 69q11 38 43 64.5t74 26.5q34 0 67 -18t61 -36t50 -18q51 0 77 59z" />
    <glyph glyph-name="uni00A0" unicode="&#xa0;" horiz-adv-x="250" 
 />
    <glyph glyph-name="exclamdown" unicode="&#xa1;" horiz-adv-x="299" 
d="M199 277l21 -435h-141l21 435h99zM236 452q0 -41 -22.5 -63.5t-64.5 -22.5q-41 0 -64.5 23t-23.5 63q0 41 23 63t65 22t64.5 -22t22.5 -63z" />
    <glyph glyph-name="cent" unicode="&#xa2;" 
d="M498 164l52 -106q-92 -72 -222 -72q-20 0 -54 4l-35 -127l-82 22l34 125q-74 31 -110.5 96t-36.5 154q0 121 76 199t200 78q3 0 8.5 -0.5t8.5 -0.5l31 112l83 -22l-29 -105q63 -21 97 -70.5t37 -118.5l-113 -24q-5 72 -53 100l-84 -303q20 -2 34 -2q81 0 158 61zM176 265
q0 -85 51 -127l79 286q-60 -5 -95 -48.5t-35 -110.5z" />
    <glyph glyph-name="sterling" unicode="&#xa3;" 
d="M464 304h-178q11 -70 11 -111q0 -13 -2 -35q6 -4 22 -14.5t27 -17t26 -12.5t26 -6q35 0 48.5 23.5t13.5 73.5v21h110q2 -28 2 -45q0 -89 -36 -140t-111 -51q-21 0 -44.5 9.5t-36 17.5t-41.5 29.5t-35 25.5q-23 -41 -52.5 -61.5t-79.5 -20.5t-78 30.5t-28 78.5
q0 46 29 74.5t75 28.5q24 0 47 -9q0 38 -20 111h-97v85h76q-11 52 -11 104q0 87 54 142t159 55q61 0 119.5 -24.5t88.5 -50.5l-41 -120q-24 21 -35.5 30.5t-42 23t-61.5 13.5q-50 0 -75.5 -28t-25.5 -75q0 -32 6 -70h191v-85zM146 126q-15 0 -24.5 -8.5t-9.5 -21.5
q0 -27 24 -27q29 0 37 49q-12 8 -27 8z" />
    <glyph glyph-name="currency" unicode="&#xa4;" horiz-adv-x="577" 
d="M427 519l79 -78l-58 -57q22 -36 22 -82q0 -45 -21 -82l57 -56l-79 -78l-57 57q-38 -22 -86 -22q-44 0 -79 19l-54 -54l-79 78l51 51q-24 38 -24 87t24 87l-51 52l79 78l54 -55q35 20 79 20q49 0 86 -23zM196 302q0 -38 25 -63.5t63 -25.5q39 0 63.5 25.5t24.5 63.5
t-24.5 63.5t-63.5 25.5q-38 0 -63 -26t-25 -63z" />
    <glyph glyph-name="yen" unicode="&#xa5;" 
d="M517 116h-150v-116h-140v116h-150v84h150v51h-150v85h116l-166 334v10h144l126 -299l132 299h144v-10l-172 -334h116v-85h-150v-51h150v-84z" />
    <glyph glyph-name="brokenbar" unicode="&#xa6;" horiz-adv-x="292" 
d="M201 375h-110v335h110v-335zM91 159h110v-347h-110v347z" />
    <glyph glyph-name="section" unicode="&#xa7;" horiz-adv-x="652" 
d="M80 -50l32 120q40 -20 106 -36t125 -16q99 0 99 41q0 16 -18.5 26t-64.5 19l-137 27q-153 31 -153 155q0 79 73 127q-71 34 -71 110q0 74 64 120.5t188 46.5q146 0 248 -43l-37 -118q-40 19 -106 34t-119 15q-103 0 -103 -41q0 -26 56 -37l143 -27q87 -17 133 -61
t46 -103q0 -82 -76 -130q76 -38 76 -107q0 -75 -70 -121.5t-187 -46.5q-143 0 -247 46zM361 364l-78 14q-41 -4 -62.5 -27t-21.5 -48q0 -26 15.5 -40.5t55.5 -22.5l86 -18q42 2 67 22t25 49q0 56 -87 71z" />
    <glyph glyph-name="dieresis" unicode="&#xa8;" 
d="M104 669q0 66 76 66q75 0 75 -66t-75 -66q-76 0 -76 66zM359 669q0 66 77 66q74 0 74 -66t-74 -66q-77 0 -77 66z" />
    <glyph glyph-name="copyright" unicode="&#xa9;" horiz-adv-x="822" 
d="M61 339q0 151 100 251t249 100q151 0 251 -100t100 -251q0 -149 -100 -249t-251 -100q-149 0 -249 100t-100 249zM139 339q0 -118 77 -196t194 -78q118 0 195 78t77 196q0 119 -77 197.5t-195 78.5q-117 0 -194 -78.5t-77 -197.5zM495 292l58 -73q-59 -55 -140 -55
q-77 0 -126 47t-49 128t49 128t126 47q65 0 101 -34t38 -94l-87 -21q-2 52 -52 52q-31 0 -49.5 -20.5t-18.5 -57.5t19 -57.5t52 -20.5q44 0 79 31z" />
    <glyph glyph-name="ordfeminine" unicode="&#xaa;" horiz-adv-x="508" 
d="M121 582l-17 82q63 23 131 23q78 0 108.5 -29.5t30.5 -89.5v-130q0 -33 23 -33q15 0 34 11l4 -74q-41 -16 -79 -16q-49 0 -67 41q-43 -41 -102 -41q-52 0 -82 29t-30 76q0 56 47 86.5t132 30.5q5 0 13 -0.5t12 -0.5v12q0 28 -14 38.5t-44 10.5q-57 0 -100 -26zM97 250
h315v-76h-315v76zM165 440q0 -37 54 -37q34 0 60 20v65q-6 1 -22 1q-92 0 -92 -49z" />
    <glyph glyph-name="guillemotleft" unicode="&#xab;" horiz-adv-x="563" 
d="M48 288v27l162 205h10l51 -27l-106 -191l106 -191l-51 -27h-10zM281 288v27l162 205h10l51 -27l-106 -191l106 -191l-51 -27h-10z" />
    <glyph glyph-name="logicalnot" unicode="&#xac;" 
d="M428 124v184h-368v110h479l-1 -294h-110z" />
    <glyph glyph-name="uni00AD" unicode="&#xad;" horiz-adv-x="546" 
d="M73 358h400v-110h-400v110z" />
    <glyph glyph-name="registered" unicode="&#xae;" horiz-adv-x="822" 
d="M61 339q0 151 100 251t249 100q151 0 251 -100t100 -251q0 -149 -100 -249t-251 -100q-149 0 -249 100t-100 249zM139 339q0 -118 77 -196t194 -78q118 0 195 78t77 196q0 119 -77 197.5t-195 78.5q-117 0 -194 -78.5t-77 -197.5zM266 169v340h162q57 0 93.5 -30.5
t36.5 -86.5q0 -36 -21 -64t-55 -39q48 -33 79 -33q19 0 36 7l9 -86q-26 -13 -58 -13q-34 0 -67 17.5t-66 45t-45 34.5v-92h-104zM423 424h-53v-68h53q16 0 25 9.5t9 24.5q0 34 -34 34z" />
    <glyph glyph-name="macron" unicode="&#xaf;" 
d="M434 610h-255v96h255v-96z" />
    <glyph glyph-name="degree" unicode="&#xb0;" horiz-adv-x="469" 
d="M49 507q0 78 52.5 130.5t132.5 52.5q81 0 133.5 -52.5t52.5 -130.5t-52.5 -129.5t-133.5 -51.5q-80 0 -132.5 51.5t-52.5 129.5zM146 507q0 -37 25 -63t63 -26q39 0 63.5 25.5t24.5 63.5t-24.5 64t-63.5 26q-38 0 -63 -26t-25 -64z" />
    <glyph glyph-name="plusminus" unicode="&#xb1;" 
d="M355 654v-184h184v-110h-184v-121h-110v121h-184v110h184v184h110zM61 162h478v-110h-478v110z" />
    <glyph glyph-name="twosuperior" unicode="&#xb2;" horiz-adv-x="350" 
d="M311 446h-264v58l129 97q46 33 46 71q0 20 -13 33.5t-38 13.5q-31 0 -47 -17.5t-16 -47.5l-71 13q2 57 37.5 90t97.5 33q64 0 97 -32t33 -86q0 -66 -72 -116l-59 -42h140v-68z" />
    <glyph glyph-name="threesuperior" unicode="&#xb3;" horiz-adv-x="338" 
d="M77 652h78q25 0 39 9.5t14 25.5q0 36 -59 36q-51 0 -97 -19l-17 66q53 20 114 20q67 0 102.5 -24.5t35.5 -70.5q0 -25 -16.5 -45t-44.5 -27q72 -16 72 -84q0 -45 -38 -71.5t-111 -26.5q-54 0 -114 20l20 65q43 -19 94 -19q32 0 50.5 12t18.5 32q0 35 -63 35h-78v66z" />
    <glyph glyph-name="acute" unicode="&#xb4;" 
d="M417 741l-102 -152h-118l81 152h139z" />
    <glyph glyph-name="mu" unicode="&#xb5;" horiz-adv-x="666" 
d="M232 523v-267q0 -76 23 -107t83 -31q78 0 116 70v335h140v-523h-140v47q-58 -57 -168 -57q-30 0 -54 6v-184h-140v711h140z" />
    <glyph glyph-name="paragraph" unicode="&#xb6;" horiz-adv-x="595" 
d="M345 523v-711h-108v433h-60q-64 0 -104 36.5t-40 102.5q0 65 40 101.5t104 37.5h168zM421 -188v711h108v-711h-108z" />
    <glyph glyph-name="periodcentered" unicode="&#xb7;" horiz-adv-x="307" 
d="M67 295q0 41 22.5 63t63.5 22t64 -22.5t23 -62.5t-23 -62t-64 -22t-63.5 22t-22.5 62z" />
    <glyph glyph-name="cedilla" unicode="&#xb8;" 
d="M214 -97l29 97h57l-17 -57q10 3 26 3q41 0 64 -18.5t23 -48.5q0 -36 -32 -56.5t-82 -20.5q-42 0 -78 11l12 46q37 -11 62 -11q54 0 54 29q0 27 -52 27q-34 0 -62 -6z" />
    <glyph glyph-name="onesuperior" unicode="&#xb9;" horiz-adv-x="277" 
d="M13 703l147 81h57v-338h-78v250l-96 -51z" />
    <glyph glyph-name="ordmasculine" unicode="&#xba;" horiz-adv-x="508" 
d="M69 507q0 78 52.5 130.5t132.5 52.5q81 0 133.5 -52.5t52.5 -130.5t-52.5 -129.5t-133.5 -51.5q-80 0 -132.5 51.5t-52.5 129.5zM156 507q0 -42 27.5 -70.5t70.5 -28.5t70.5 28.5t27.5 70.5q0 43 -27.5 71.5t-70.5 28.5t-70.5 -28.5t-27.5 -71.5zM97 250h315v-76h-315v76
z" />
    <glyph glyph-name="guillemotright" unicode="&#xbb;" horiz-adv-x="563" 
d="M282 315v-27l-161 -204h-11l-50 26l105 192l-106 190l51 28h11zM515 315v-27l-161 -204h-11l-50 26l105 192l-106 190l51 28h11z" />
    <glyph glyph-name="onequarter" unicode="&#xbc;" horiz-adv-x="806" 
d="M764 61h-57v-61h-78v61h-183v51l157 226l26 -1v1h78v-219h57v-58zM147 11l369 669h80v-10l-368 -670h-81v11zM31 603l147 81h57v-338h-78v250l-96 -51zM524 119h105v151z" />
    <glyph glyph-name="onehalf" unicode="&#xbd;" horiz-adv-x="800" 
d="M147 11l369 669h80v-10l-368 -670h-81v11zM487 0v58l129 97q46 33 46 71q0 20 -13 33.5t-38 13.5q-31 0 -47 -17.5t-16 -47.5l-71 13q2 57 37.5 90t97.5 33q64 0 97 -32t33 -86q0 -66 -72 -116l-59 -42h140v-68h-264zM31 599l147 81h57v-338h-78v250l-96 -51z" />
    <glyph glyph-name="threequarters" unicode="&#xbe;" horiz-adv-x="851" 
d="M814 61h-57v-61h-78v61h-183v51l157 226l26 -1v1h78v-219h57v-58zM197 11l369 669h80v-10l-368 -670h-81v11zM90 552h78q25 0 39 9.5t14 25.5q0 36 -59 36q-51 0 -97 -19l-17 66q53 20 114 20q67 0 102.5 -24.5t35.5 -70.5q0 -25 -16.5 -45t-44.5 -27q72 -16 72 -84
q0 -45 -38 -71.5t-111 -26.5q-54 0 -114 20l20 65q43 -19 94 -19q32 0 50.5 12t18.5 32q0 35 -63 35h-78v66zM574 119h105v151z" />
    <glyph glyph-name="questiondown" unicode="&#xbf;" horiz-adv-x="481" 
d="M219 277h115q11 -31 11 -62q0 -50 -56 -84l-57 -36q-25 -17 -37 -33.5t-12 -42.5q0 -33 22.5 -52t58.5 -19q42 0 81 18.5t64 44.5l38 -109q-80 -70 -204 -70q-92 0 -146.5 49.5t-54.5 128.5q0 59 23.5 94t65.5 61l59 36q19 13 26 22.5t7 26.5q0 14 -4 27zM363 452
q0 -41 -22.5 -63.5t-64.5 -22.5q-41 0 -64.5 23t-23.5 63q0 41 23 63t65 22t64.5 -22t22.5 -63z" />
    <glyph glyph-name="Agrave" unicode="&#xc0;" horiz-adv-x="726" 
d="M12 0l271 680h164l263 -680h-142l-52 136h-309l-53 -136h-142zM365 541l-122 -301h238zM316 746l-102 152h139l81 -152h-118z" />
    <glyph glyph-name="Aacute" unicode="&#xc1;" horiz-adv-x="726" 
d="M12 0l271 680h164l263 -680h-142l-52 136h-309l-53 -136h-142zM365 541l-122 -301h238zM510 898l-102 -152h-118l81 152h139z" />
    <glyph glyph-name="Acircumflex" unicode="&#xc2;" horiz-adv-x="726" 
d="M12 0l271 680h164l263 -680h-142l-52 136h-309l-53 -136h-142zM365 541l-122 -301h238zM430 746l-66 84l-66 -84h-106l104 152h136l103 -152h-105z" />
    <glyph glyph-name="Atilde" unicode="&#xc3;" horiz-adv-x="726" 
d="M12 0l271 680h164l263 -680h-142l-52 136h-309l-53 -136h-142zM365 541l-122 -301h238zM218 757l-42 55q16 35 46.5 59.5t65.5 24.5q36 0 84.5 -29.5t67.5 -29.5q46 0 69 44l43 -54q-41 -85 -112 -85q-34 0 -83.5 29.5t-67.5 29.5q-43 0 -71 -44z" />
    <glyph glyph-name="Adieresis" unicode="&#xc4;" horiz-adv-x="726" 
d="M12 0l271 680h164l263 -680h-142l-52 136h-309l-53 -136h-142zM365 541l-122 -301h238zM162 826q0 66 76 66q75 0 75 -66t-75 -66q-76 0 -76 66zM417 826q0 66 77 66q74 0 74 -66t-74 -66q-77 0 -77 66z" />
    <glyph glyph-name="Aring" unicode="&#xc5;" horiz-adv-x="726" 
d="M267 732q0 40 28.5 69t69.5 29t69.5 -29t28.5 -69q0 -29 -16 -53l263 -679h-142l-52 136h-309l-53 -136h-142l270 679q-15 23 -15 53zM365 541l-122 -301h238zM324 732q0 -17 12 -29t29 -12t28.5 12t11.5 29q0 16 -11.5 28t-28.5 12t-29 -11.5t-12 -28.5z" />
    <glyph glyph-name="AE" unicode="&#xc6;" horiz-adv-x="1070" 
d="M473 0v136h-250l-79 -136h-149l393 680h623v-123h-404v-152h331v-113h-331v-170h404v-122h-538zM276 240h197v349z" />
    <glyph glyph-name="Ccedilla" unicode="&#xc7;" horiz-adv-x="741" 
d="M315 -97l27 92q-128 20 -205.5 111t-77.5 233q0 162 98 256.5t252 94.5q130 0 202.5 -68.5t75.5 -188.5l-129 -27q-2 73 -39.5 113.5t-111.5 40.5q-92 0 -147.5 -58.5t-55.5 -162.5q0 -103 56.5 -161t151.5 -58q118 0 210 85l66 -105q-49 -47 -124 -78.5t-155 -31.5h-11
l-14 -47q11 3 26 3q41 0 64 -18.5t23 -48.5q0 -36 -32 -56.5t-82 -20.5q-42 0 -78 11l12 46q37 -11 62 -11q54 0 54 29q0 27 -52 27q-34 0 -62 -6z" />
    <glyph glyph-name="Egrave" unicode="&#xc8;" horiz-adv-x="696" 
d="M637 0h-538v680h538v-123h-404v-147h331v-123h-331v-164h404v-123zM319 746l-102 152h139l81 -152h-118z" />
    <glyph glyph-name="Eacute" unicode="&#xc9;" horiz-adv-x="696" 
d="M637 0h-538v680h538v-123h-404v-147h331v-123h-331v-164h404v-123zM515 898l-102 -152h-118l81 152h139z" />
    <glyph glyph-name="Ecircumflex" unicode="&#xca;" horiz-adv-x="696" 
d="M637 0h-538v680h538v-123h-404v-147h331v-123h-331v-164h404v-123zM434 746l-66 84l-66 -84h-106l104 152h136l103 -152h-105z" />
    <glyph glyph-name="Edieresis" unicode="&#xcb;" horiz-adv-x="696" 
d="M637 0h-538v680h538v-123h-404v-147h331v-123h-331v-164h404v-123zM165 826q0 66 76 66q75 0 75 -66t-75 -66q-76 0 -76 66zM420 826q0 66 77 66q74 0 74 -66t-74 -66q-77 0 -77 66z" />
    <glyph glyph-name="Igrave" unicode="&#xcc;" horiz-adv-x="338" 
d="M99 0v680h140v-680h-140zM117 746l-102 152h139l81 -152h-118z" />
    <glyph glyph-name="Iacute" unicode="&#xcd;" horiz-adv-x="338" 
d="M99 0v680h140v-680h-140zM324 898l-102 -152h-118l81 152h139z" />
    <glyph glyph-name="Icircumflex" unicode="&#xce;" horiz-adv-x="338" 
d="M99 0v680h140v-680h-140zM234 746l-66 84l-66 -84h-106l104 152h136l103 -152h-105z" />
    <glyph glyph-name="Idieresis" unicode="&#xcf;" horiz-adv-x="338" 
d="M99 0v680h140v-680h-140zM-35 826q0 66 76 66q75 0 75 -66t-75 -66q-76 0 -76 66zM220 826q0 66 77 66q74 0 74 -66t-74 -66q-77 0 -77 66z" />
    <glyph glyph-name="Eth" unicode="&#xd0;" horiz-adv-x="803" 
d="M100 0v284h-63v110h63v286h293q156 -1 253.5 -90.5t97.5 -250.5q0 -160 -97.5 -249.5t-253.5 -89.5h-293zM374 284h-134v-162h147q96 0 155 57t59 160q0 104 -59 161.5t-155 57.5h-147v-164h134v-110z" />
    <glyph glyph-name="Ntilde" unicode="&#xd1;" horiz-adv-x="842" 
d="M621 0l-382 457v-457h-140v680h122l382 -458v458h140v-680h-122zM278 757l-42 55q16 35 46.5 59.5t65.5 24.5q36 0 84.5 -29.5t67.5 -29.5q46 0 69 44l43 -54q-41 -85 -112 -85q-34 0 -83.5 29.5t-67.5 29.5q-43 0 -71 -44z" />
    <glyph glyph-name="Ograve" unicode="&#xd2;" horiz-adv-x="814" 
d="M57 339q0 151 100 251t249 100q151 0 251 -100t100 -251q0 -149 -100 -249t-251 -100q-149 0 -249 100t-100 249zM195 339q0 -93 60 -155.5t152 -62.5q93 0 152.5 62.5t59.5 155.5q0 94 -59.5 156t-152.5 62q-92 0 -152 -62t-60 -156zM352 746l-102 152h139l81 -152h-118
z" />
    <glyph glyph-name="Oacute" unicode="&#xd3;" horiz-adv-x="814" 
d="M57 339q0 151 100 251t249 100q151 0 251 -100t100 -251q0 -149 -100 -249t-251 -100q-149 0 -249 100t-100 249zM195 339q0 -93 60 -155.5t152 -62.5q93 0 152.5 62.5t59.5 155.5q0 94 -59.5 156t-152.5 62q-92 0 -152 -62t-60 -156zM562 898l-102 -152h-118l81 152h139
z" />
    <glyph glyph-name="Ocircumflex" unicode="&#xd4;" horiz-adv-x="814" 
d="M57 339q0 151 100 251t249 100q151 0 251 -100t100 -251q0 -149 -100 -249t-251 -100q-149 0 -249 100t-100 249zM195 339q0 -93 60 -155.5t152 -62.5q93 0 152.5 62.5t59.5 155.5q0 94 -59.5 156t-152.5 62q-92 0 -152 -62t-60 -156zM472 746l-66 84l-66 -84h-106
l104 152h136l103 -152h-105z" />
    <glyph glyph-name="Otilde" unicode="&#xd5;" horiz-adv-x="814" 
d="M57 339q0 151 100 251t249 100q151 0 251 -100t100 -251q0 -149 -100 -249t-251 -100q-149 0 -249 100t-100 249zM195 339q0 -93 60 -155.5t152 -62.5q93 0 152.5 62.5t59.5 155.5q0 94 -59.5 156t-152.5 62q-92 0 -152 -62t-60 -156zM260 757l-42 55q16 35 46.5 59.5
t65.5 24.5q36 0 84.5 -29.5t67.5 -29.5q46 0 69 44l43 -54q-41 -85 -112 -85q-34 0 -83.5 29.5t-67.5 29.5q-43 0 -71 -44z" />
    <glyph glyph-name="Odieresis" unicode="&#xd6;" horiz-adv-x="814" 
d="M57 339q0 151 100 251t249 100q151 0 251 -100t100 -251q0 -149 -100 -249t-251 -100q-149 0 -249 100t-100 249zM195 339q0 -93 60 -155.5t152 -62.5q93 0 152.5 62.5t59.5 155.5q0 94 -59.5 156t-152.5 62q-92 0 -152 -62t-60 -156zM203 826q0 66 76 66q75 0 75 -66
t-75 -66q-76 0 -76 66zM458 826q0 66 77 66q74 0 74 -66t-74 -66q-77 0 -77 66z" />
    <glyph glyph-name="multiply" unicode="&#xd7;" 
d="M508 432l-131 -129l131 -130l-79 -78l-129 130l-130 -130l-78 78l130 130l-130 129l78 79l130 -131l129 131z" />
    <glyph glyph-name="Oslash" unicode="&#xd8;" horiz-adv-x="814" 
d="M57 339q0 151 100 251t249 100q108 0 193 -55l37 45h100v-10l-72 -88q93 -99 93 -243q0 -149 -100 -249t-251 -100q-101 0 -183 48l-31 -38h-101v11l65 80q-99 99 -99 248zM192 339q0 -83 49 -143l273 335q-48 28 -108 28q-92 0 -153 -63t-61 -157zM620 339q0 77 -43 136
l-269 -332q44 -23 98 -23q93 0 153.5 63t60.5 156z" />
    <glyph glyph-name="Ugrave" unicode="&#xd9;" horiz-adv-x="801" 
d="M231 680v-384q0 -83 42.5 -130t125.5 -47q84 0 127.5 48t43.5 130v383h140v-393q0 -126 -82.5 -212t-228.5 -86q-147 0 -227.5 82t-80.5 216v393h140zM346 746l-102 152h139l81 -152h-118z" />
    <glyph glyph-name="Uacute" unicode="&#xda;" horiz-adv-x="801" 
d="M231 680v-384q0 -83 42.5 -130t125.5 -47q84 0 127.5 48t43.5 130v383h140v-393q0 -126 -82.5 -212t-228.5 -86q-147 0 -227.5 82t-80.5 216v393h140zM556 898l-102 -152h-118l81 152h139z" />
    <glyph glyph-name="Ucircumflex" unicode="&#xdb;" horiz-adv-x="801" 
d="M231 680v-384q0 -83 42.5 -130t125.5 -47q84 0 127.5 48t43.5 130v383h140v-393q0 -126 -82.5 -212t-228.5 -86q-147 0 -227.5 82t-80.5 216v393h140zM466 746l-66 84l-66 -84h-106l104 152h136l103 -152h-105z" />
    <glyph glyph-name="Udieresis" unicode="&#xdc;" horiz-adv-x="801" 
d="M231 680v-384q0 -83 42.5 -130t125.5 -47q84 0 127.5 48t43.5 130v383h140v-393q0 -126 -82.5 -212t-228.5 -86q-147 0 -227.5 82t-80.5 216v393h140zM197 826q0 66 76 66q75 0 75 -66t-75 -66q-76 0 -76 66zM452 826q0 66 77 66q74 0 74 -66t-74 -66q-77 0 -77 66z" />
    <glyph glyph-name="Yacute" unicode="&#xdd;" horiz-adv-x="686" 
d="M273 0v269l-266 401v10h156l180 -282l180 282h156v-10l-266 -400v-270h-140zM498 898l-102 -152h-118l81 152h139z" />
    <glyph glyph-name="Thorn" unicode="&#xde;" horiz-adv-x="713" 
d="M99 0v680h140v-94h185q108 0 177.5 -60t69.5 -180q0 -111 -71 -174t-176 -63h-185v-109h-140zM404 464h-165v-233h165q54 0 89 30.5t35 85.5q0 57 -34.5 87t-89.5 30z" />
    <glyph glyph-name="germandbls" unicode="&#xdf;" horiz-adv-x="691" 
d="M354 720q114 0 176 -62.5t62 -145.5q0 -39 -16 -72t-32.5 -53t-16.5 -28t29.5 -34t59.5 -69t30 -93q0 -85 -52.5 -129t-140.5 -44q-80 0 -151 28l21 113q42 -23 88 -23q40 0 62 18t22 48q0 25 -19.5 51.5t-42.5 44.5t-42.5 38t-19.5 35q0 17 12 35.5t27 33.5t27 39.5
t12 51.5q0 42 -30 68.5t-77 26.5q-57 0 -88.5 -42t-31.5 -113v-443h-140v432q0 143 77.5 215.5t194.5 72.5z" />
    <glyph glyph-name="agrave" unicode="&#xe0;" horiz-adv-x="713" 
d="M590 523v-362q0 -53 36 -53q23 0 53 16l6 -111q-50 -23 -114 -23q-89 0 -111 76q-64 -75 -166 -75q-109 0 -177 75.5t-68 193.5q0 120 68 196t177 76q102 0 156 -54v45h140zM450 159v204q-19 20 -51 33.5t-66 13.5q-65 0 -103.5 -41t-38.5 -109q0 -66 39 -107t103 -41
q66 0 117 47zM305 589l-102 152h139l81 -152h-118z" />
    <glyph glyph-name="aacute" unicode="&#xe1;" horiz-adv-x="713" 
d="M590 523v-362q0 -53 36 -53q23 0 53 16l6 -111q-50 -23 -114 -23q-89 0 -111 76q-64 -75 -166 -75q-109 0 -177 75.5t-68 193.5q0 120 68 196t177 76q102 0 156 -54v45h140zM450 159v204q-19 20 -51 33.5t-66 13.5q-65 0 -103.5 -41t-38.5 -109q0 -66 39 -107t103 -41
q66 0 117 47zM503 741l-102 -152h-118l81 152h139z" />
    <glyph glyph-name="acircumflex" unicode="&#xe2;" horiz-adv-x="713" 
d="M590 523v-362q0 -53 36 -53q23 0 53 16l6 -111q-50 -23 -114 -23q-89 0 -111 76q-64 -75 -166 -75q-109 0 -177 75.5t-68 193.5q0 120 68 196t177 76q102 0 156 -54v45h140zM450 159v204q-19 20 -51 33.5t-66 13.5q-65 0 -103.5 -41t-38.5 -109q0 -66 39 -107t103 -41
q66 0 117 47zM411 589l-66 84l-66 -84h-106l104 152h136l103 -152h-105z" />
    <glyph glyph-name="atilde" unicode="&#xe3;" horiz-adv-x="713" 
d="M590 523v-362q0 -53 36 -53q23 0 53 16l6 -111q-50 -23 -114 -23q-89 0 -111 76q-64 -75 -166 -75q-109 0 -177 75.5t-68 193.5q0 120 68 196t177 76q102 0 156 -54v45h140zM450 159v204q-19 20 -51 33.5t-66 13.5q-65 0 -103.5 -41t-38.5 -109q0 -66 39 -107t103 -41
q66 0 117 47zM205 600l-42 55q16 35 46.5 59.5t65.5 24.5q36 0 84.5 -29.5t67.5 -29.5q46 0 69 44l43 -54q-41 -85 -112 -85q-34 0 -83.5 29.5t-67.5 29.5q-43 0 -71 -44z" />
    <glyph glyph-name="adieresis" unicode="&#xe4;" horiz-adv-x="713" 
d="M590 523v-362q0 -53 36 -53q23 0 53 16l6 -111q-50 -23 -114 -23q-89 0 -111 76q-64 -75 -166 -75q-109 0 -177 75.5t-68 193.5q0 120 68 196t177 76q102 0 156 -54v45h140zM450 159v204q-19 20 -51 33.5t-66 13.5q-65 0 -103.5 -41t-38.5 -109q0 -66 39 -107t103 -41
q66 0 117 47zM154 669q0 66 76 66q75 0 75 -66t-75 -66q-76 0 -76 66zM409 669q0 66 77 66q74 0 74 -66t-74 -66q-77 0 -77 66z" />
    <glyph glyph-name="aring" unicode="&#xe5;" horiz-adv-x="713" 
d="M590 523v-362q0 -53 36 -53q23 0 53 16l6 -111q-50 -23 -114 -23q-89 0 -111 76q-64 -75 -166 -75q-109 0 -177 75.5t-68 193.5q0 120 68 196t177 76q102 0 156 -54v45h140zM450 159v204q-19 20 -51 33.5t-66 13.5q-65 0 -103.5 -41t-38.5 -109q0 -66 39 -107t103 -41
q66 0 117 47zM251 670q0 40 28.5 69t69.5 29t69.5 -29t28.5 -69t-28.5 -69t-69.5 -29t-69.5 29t-28.5 69zM308 670q0 -17 12 -29t29 -12t28.5 12t11.5 29q0 16 -11.5 28t-28.5 12t-29 -11.5t-12 -28.5z" />
    <glyph glyph-name="ae" unicode="&#xe6;" horiz-adv-x="911" 
d="M851 217h-343q3 -59 36 -86.5t109 -27.5q79 0 150 53l53 -99q-87 -71 -216 -71q-142 0 -199 82q-96 -83 -216 -83q-86 0 -136 44.5t-50 116.5q0 85 66 135.5t189 50.5q42 0 72 -5q0 51 -18 70.5t-66 19.5q-97 0 -173 -37l-25 122q98 35 212 35q75 0 110 -23.5t53 -66.5
q59 90 174 90q116 0 172 -61t56 -157q0 -68 -10 -102zM631 421q-49 0 -79.5 -26.5t-32.5 -69.5h214q1 5 1 10q0 40 -26 63t-77 23zM179 159q0 -27 21 -41.5t57 -14.5q59 0 107 39v76q-30 6 -73 6q-112 0 -112 -65z" />
    <glyph glyph-name="ccedilla" unicode="&#xe7;" horiz-adv-x="603" 
d="M245 -97l26 88q-111 16 -166.5 87.5t-55.5 181.5q0 121 76 199t200 78q111 0 171.5 -55.5t64.5 -149.5l-124 -28q-8 110 -111 110q-61 0 -97 -42t-36 -108q0 -68 39 -111.5t118 -43.5q37 0 78.5 17t72.5 41l54 -109q-92 -72 -222 -72h-6l-13 -43q11 3 26 3q41 0 64 -18.5
t23 -48.5q0 -36 -32 -56.5t-82 -20.5q-42 0 -78 11l12 46q37 -11 62 -11q54 0 54 29q0 27 -52 27q-34 0 -62 -6z" />
    <glyph glyph-name="egrave" unicode="&#xe8;" horiz-adv-x="607" 
d="M499 157l53 -100q-87 -71 -220 -71q-141 0 -213 76t-72 198q0 119 76 198t200 79q114 0 174 -61t60 -157q0 -65 -11 -102h-355q20 -114 145 -114q91 0 163 54zM422 325q1 5 1 18q0 34 -26 56t-77 22q-53 0 -85 -27.5t-40 -68.5h227zM285 589l-102 152h139l81 -152h-118z
" />
    <glyph glyph-name="eacute" unicode="&#xe9;" horiz-adv-x="607" 
d="M499 157l53 -100q-87 -71 -220 -71q-141 0 -213 76t-72 198q0 119 76 198t200 79q114 0 174 -61t60 -157q0 -65 -11 -102h-355q20 -114 145 -114q91 0 163 54zM422 325q1 5 1 18q0 34 -26 56t-77 22q-53 0 -85 -27.5t-40 -68.5h227zM476 741l-102 -152h-118l81 152h139z
" />
    <glyph glyph-name="ecircumflex" unicode="&#xea;" horiz-adv-x="607" 
d="M499 157l53 -100q-87 -71 -220 -71q-141 0 -213 76t-72 198q0 119 76 198t200 79q114 0 174 -61t60 -157q0 -65 -11 -102h-355q20 -114 145 -114q91 0 163 54zM422 325q1 5 1 18q0 34 -26 56t-77 22q-53 0 -85 -27.5t-40 -68.5h227zM393 589l-66 84l-66 -84h-106l104 152
h136l103 -152h-105z" />
    <glyph glyph-name="edieresis" unicode="&#xeb;" horiz-adv-x="607" 
d="M499 157l53 -100q-87 -71 -220 -71q-141 0 -213 76t-72 198q0 119 76 198t200 79q114 0 174 -61t60 -157q0 -65 -11 -102h-355q20 -114 145 -114q91 0 163 54zM422 325q1 5 1 18q0 34 -26 56t-77 22q-53 0 -85 -27.5t-40 -68.5h227zM123 669q0 66 76 66q75 0 75 -66
t-75 -66q-76 0 -76 66zM378 669q0 66 77 66q74 0 74 -66t-74 -66q-77 0 -77 66z" />
    <glyph glyph-name="igrave" unicode="&#xec;" horiz-adv-x="345" 
d="M80 523h140v-362q0 -53 36 -53q30 0 52 16l7 -111q-7 -6 -42.5 -14.5t-72.5 -8.5q-120 0 -120 138v395zM109 589l-102 152h139l81 -152h-118z" />
    <glyph glyph-name="iacute" unicode="&#xed;" horiz-adv-x="345" 
d="M80 523h140v-362q0 -53 36 -53q30 0 52 16l7 -111q-7 -6 -42.5 -14.5t-72.5 -8.5q-120 0 -120 138v395zM303 741l-102 -152h-118l81 152h139z" />
    <glyph glyph-name="icircumflex" unicode="&#xee;" horiz-adv-x="345" 
d="M80 523h140v-362q0 -53 36 -53q30 0 52 16l7 -111q-7 -6 -42.5 -14.5t-72.5 -8.5q-120 0 -120 138v395zM216 589l-66 84l-66 -84h-106l104 152h136l103 -152h-105z" />
    <glyph glyph-name="idieresis" unicode="&#xef;" horiz-adv-x="345" 
d="M80 523h140v-362q0 -53 36 -53q30 0 52 16l7 -111q-7 -6 -42.5 -14.5t-72.5 -8.5q-120 0 -120 138v395zM-52 669q0 66 76 66q75 0 75 -66t-75 -66q-76 0 -76 66zM203 669q0 66 77 66q74 0 74 -66t-74 -66q-77 0 -77 66z" />
    <glyph glyph-name="eth" unicode="&#xf0;" horiz-adv-x="623" 
d="M460 700l-46 -49q67 -53 107 -133t40 -177q0 -161 -73.5 -256t-206.5 -95q-106 0 -173.5 66.5t-67.5 176.5q0 97 57 158.5t155 61.5q93 0 165 -66q-14 101 -89 173l-52 -55l-37 32l51 54q-37 27 -78 41l55 88q54 -12 106 -41l49 52zM286 118q109 0 131 153
q-63 68 -132 68q-49 0 -77.5 -27.5t-28.5 -79.5q0 -48 29 -81t78 -33z" />
    <glyph glyph-name="ntilde" unicode="&#xf1;" horiz-adv-x="696" 
d="M82 523h140v-64q63 73 168 73q97 0 145.5 -64t48.5 -167v-140q0 -53 36 -53q23 0 53 16l6 -111q-46 -23 -114 -23q-121 0 -121 138v150q0 59 -27 92t-79 33q-41 0 -71.5 -28t-44.5 -64v-311h-140v523zM195 600l-42 55q16 35 46.5 59.5t65.5 24.5q36 0 84.5 -29.5
t67.5 -29.5q46 0 69 44l43 -54q-41 -85 -112 -85q-34 0 -83.5 29.5t-67.5 29.5q-43 0 -71 -44z" />
    <glyph glyph-name="ograve" unicode="&#xf2;" horiz-adv-x="654" 
d="M46 260q0 119 79.5 198t200.5 79q123 0 202.5 -78.5t79.5 -198.5q0 -118 -79.5 -196t-202.5 -78q-121 0 -200.5 78t-79.5 196zM181 260q0 -62 40.5 -104t104.5 -42q65 0 106 42t41 104q0 64 -41 106.5t-106 42.5q-64 0 -104.5 -42.5t-40.5 -106.5zM272 589l-102 152h139
l81 -152h-118z" />
    <glyph glyph-name="oacute" unicode="&#xf3;" horiz-adv-x="654" 
d="M46 260q0 119 79.5 198t200.5 79q123 0 202.5 -78.5t79.5 -198.5q0 -118 -79.5 -196t-202.5 -78q-121 0 -200.5 78t-79.5 196zM181 260q0 -62 40.5 -104t104.5 -42q65 0 106 42t41 104q0 64 -41 106.5t-106 42.5q-64 0 -104.5 -42.5t-40.5 -106.5zM482 741l-102 -152
h-118l81 152h139z" />
    <glyph glyph-name="ocircumflex" unicode="&#xf4;" horiz-adv-x="654" 
d="M46 260q0 119 79.5 198t200.5 79q123 0 202.5 -78.5t79.5 -198.5q0 -118 -79.5 -196t-202.5 -78q-121 0 -200.5 78t-79.5 196zM181 260q0 -62 40.5 -104t104.5 -42q65 0 106 42t41 104q0 64 -41 106.5t-106 42.5q-64 0 -104.5 -42.5t-40.5 -106.5zM392 589l-66 84
l-66 -84h-106l104 152h136l103 -152h-105z" />
    <glyph glyph-name="otilde" unicode="&#xf5;" horiz-adv-x="654" 
d="M46 260q0 119 79.5 198t200.5 79q123 0 202.5 -78.5t79.5 -198.5q0 -118 -79.5 -196t-202.5 -78q-121 0 -200.5 78t-79.5 196zM181 260q0 -62 40.5 -104t104.5 -42q65 0 106 42t41 104q0 64 -41 106.5t-106 42.5q-64 0 -104.5 -42.5t-40.5 -106.5zM180 600l-42 55
q16 35 46.5 59.5t65.5 24.5q36 0 84.5 -29.5t67.5 -29.5q46 0 69 44l43 -54q-41 -85 -112 -85q-34 0 -83.5 29.5t-67.5 29.5q-43 0 -71 -44z" />
    <glyph glyph-name="odieresis" unicode="&#xf6;" horiz-adv-x="654" 
d="M46 260q0 119 79.5 198t200.5 79q123 0 202.5 -78.5t79.5 -198.5q0 -118 -79.5 -196t-202.5 -78q-121 0 -200.5 78t-79.5 196zM181 260q0 -62 40.5 -104t104.5 -42q65 0 106 42t41 104q0 64 -41 106.5t-106 42.5q-64 0 -104.5 -42.5t-40.5 -106.5zM123 669q0 66 76 66
q75 0 75 -66t-75 -66q-76 0 -76 66zM378 669q0 66 77 66q74 0 74 -66t-74 -66q-77 0 -77 66z" />
    <glyph glyph-name="divide" unicode="&#xf7;" 
d="M61 358h478v-110h-478v110zM221 496q0 36 20 56t57 20t57.5 -20t20.5 -56q0 -37 -20.5 -56.5t-57.5 -19.5t-57 19.5t-20 56.5zM221 108q0 36 20 56t57 20t57.5 -20t20.5 -56q0 -37 -20.5 -56.5t-57.5 -19.5t-57 19.5t-20 56.5z" />
    <glyph glyph-name="oslash" unicode="&#xf8;" horiz-adv-x="654" 
d="M46 260q0 119 79.5 198t200.5 79q91 0 161 -45l26 31h69v-11l-49 -59q75 -78 75 -193q0 -118 -79.5 -196t-202.5 -78q-80 0 -148 37l-19 -23h-71v11l41 49q-83 78 -83 200zM181 260q0 -56 33 -97l188 226q-34 20 -76 20q-64 0 -104.5 -42.5t-40.5 -106.5zM473 260
q0 51 -26 88l-184 -222q26 -13 63 -13q65 0 106 42t41 105z" />
    <glyph glyph-name="ugrave" unicode="&#xf9;" horiz-adv-x="700" 
d="M437 523h140v-362q0 -53 35 -53q21 0 53 16l7 -111q-44 -23 -115 -23q-85 0 -110 68q-59 -68 -178 -68q-98 0 -146 61.5t-48 169.5v302h140v-281q0 -67 23 -95.5t83 -28.5q78 0 116 70v335zM270 589l-102 152h139l81 -152h-118z" />
    <glyph glyph-name="uacute" unicode="&#xfa;" horiz-adv-x="700" 
d="M437 523h140v-362q0 -53 35 -53q21 0 53 16l7 -111q-44 -23 -115 -23q-85 0 -110 68q-59 -68 -178 -68q-98 0 -146 61.5t-48 169.5v302h140v-281q0 -67 23 -95.5t83 -28.5q78 0 116 70v335zM490 741l-102 -152h-118l81 152h139z" />
    <glyph glyph-name="ucircumflex" unicode="&#xfb;" horiz-adv-x="700" 
d="M437 523h140v-362q0 -53 35 -53q21 0 53 16l7 -111q-44 -23 -115 -23q-85 0 -110 68q-59 -68 -178 -68q-98 0 -146 61.5t-48 169.5v302h140v-281q0 -67 23 -95.5t83 -28.5q78 0 116 70v335zM395 589l-66 84l-66 -84h-106l104 152h136l103 -152h-105z" />
    <glyph glyph-name="udieresis" unicode="&#xfc;" horiz-adv-x="700" 
d="M437 523h140v-362q0 -53 35 -53q21 0 53 16l7 -111q-44 -23 -115 -23q-85 0 -110 68q-59 -68 -178 -68q-98 0 -146 61.5t-48 169.5v302h140v-281q0 -67 23 -95.5t83 -28.5q78 0 116 70v335zM127 669q0 66 76 66q75 0 75 -66t-75 -66q-76 0 -76 66zM382 669q0 66 77 66
q74 0 74 -66t-74 -66q-77 0 -77 66z" />
    <glyph glyph-name="yacute" unicode="&#xfd;" horiz-adv-x="596" 
d="M7 523h155l144 -370l139 370h141l-217 -528q-41 -103 -89.5 -148t-132.5 -45q-66 0 -120 35l21 113q54 -30 99 -30q33 0 52 15.5t35 51.5l11 27zM457 741l-102 -152h-118l81 152h139z" />
    <glyph glyph-name="thorn" unicode="&#xfe;" horiz-adv-x="673" 
d="M625 262q0 -119 -68 -195.5t-178 -76.5q-100 0 -157 57v-235h-140v898h140v-231q60 53 157 53q110 0 178 -75.5t68 -194.5zM482 262q0 67 -39 107.5t-103 40.5q-70 0 -118 -50v-200q48 -48 118 -48q64 0 103 41t39 109z" />
    <glyph glyph-name="ydieresis" unicode="&#xff;" horiz-adv-x="596" 
d="M7 523h155l144 -370l139 370h141l-217 -528q-41 -103 -89.5 -148t-132.5 -45q-66 0 -120 35l21 113q54 -30 99 -30q33 0 52 15.5t35 51.5l11 27zM102 669q0 66 76 66q75 0 75 -66t-75 -66q-76 0 -76 66zM357 669q0 66 77 66q74 0 74 -66t-74 -66q-77 0 -77 66z" />
    <glyph glyph-name="Amacron" unicode="&#x100;" horiz-adv-x="726" 
d="M12 0l271 680h164l263 -680h-142l-52 136h-309l-53 -136h-142zM365 541l-122 -301h238zM492 767h-255v96h255v-96z" />
    <glyph glyph-name="amacron" unicode="&#x101;" horiz-adv-x="713" 
d="M590 523v-362q0 -53 36 -53q23 0 53 16l6 -111q-50 -23 -114 -23q-89 0 -111 76q-64 -75 -166 -75q-109 0 -177 75.5t-68 193.5q0 120 68 196t177 76q102 0 156 -54v45h140zM450 159v204q-19 20 -51 33.5t-66 13.5q-65 0 -103.5 -41t-38.5 -109q0 -66 39 -107t103 -41
q66 0 117 47zM476 610h-255v96h255v-96z" />
    <glyph glyph-name="Abreve" unicode="&#x102;" horiz-adv-x="726" 
d="M12 0l271 680h164l263 -680h-142l-52 136h-309l-53 -136h-142zM365 541l-122 -301h238zM217 830l35 55q37 -45 112 -45t111 45l36 -55q-47 -83 -146 -83q-52 0 -90 24t-58 59z" />
    <glyph glyph-name="abreve" unicode="&#x103;" horiz-adv-x="713" 
d="M590 523v-362q0 -53 36 -53q23 0 53 16l6 -111q-50 -23 -114 -23q-89 0 -111 76q-64 -75 -166 -75q-109 0 -177 75.5t-68 193.5q0 120 68 196t177 76q102 0 156 -54v45h140zM450 159v204q-19 20 -51 33.5t-66 13.5q-65 0 -103.5 -41t-38.5 -109q0 -66 39 -107t103 -41
q66 0 117 47zM202 673l35 55q37 -45 112 -45t111 45l36 -55q-47 -83 -146 -83q-52 0 -90 24t-58 59z" />
    <glyph glyph-name="Aogonek" unicode="&#x104;" horiz-adv-x="725" 
d="M12 0l271 680h164l263 -680h-45q-39 -1 -63 -20t-24 -49q0 -24 13.5 -37.5t38.5 -13.5q26 0 54 18l14 -60q-37 -23 -87 -23q-45 0 -72 26.5t-27 70.5q0 30 16.5 53t40.5 35h-1l-52 136h-309l-53 -136h-142zM365 541l-122 -301h238z" />
    <glyph glyph-name="aogonek" unicode="&#x105;" horiz-adv-x="713" 
d="M590 523v-362q0 -53 36 -53q23 0 53 16l6 -111q-29 -14 -77 -20q-55 -21 -55 -62q0 -24 14 -37.5t39 -13.5q26 0 54 18l13 -60q-35 -23 -87 -23q-44 0 -71.5 26.5t-27.5 70.5q0 50 48 81q-59 12 -75 73q-64 -75 -166 -75q-109 0 -177 75.5t-68 193.5q0 120 68 196t177 76
q102 0 156 -54v45h140zM450 159v204q-19 20 -51 33.5t-66 13.5q-65 0 -103.5 -41t-38.5 -109q0 -66 39 -107t103 -41q66 0 117 47z" />
    <glyph glyph-name="Cacute" unicode="&#x106;" horiz-adv-x="741" 
d="M622 205l66 -105q-49 -47 -124 -78.5t-155 -31.5q-154 0 -252 94t-98 255q0 162 98 256.5t252 94.5q130 0 202.5 -68.5t75.5 -188.5l-129 -27q-2 73 -39.5 113.5t-111.5 40.5q-92 0 -147.5 -58.5t-55.5 -162.5q0 -103 56.5 -161t151.5 -58q118 0 210 85zM566 898
l-102 -152h-118l81 152h139z" />
    <glyph glyph-name="cacute" unicode="&#x107;" horiz-adv-x="602" 
d="M500 167l54 -109q-92 -72 -222 -72q-142 0 -213 75t-71 199q0 121 76 199t200 78q111 0 171.5 -55.5t64.5 -149.5l-124 -28q-8 110 -111 110q-61 0 -97 -42t-36 -108q0 -68 39 -111.5t118 -43.5q37 0 78.5 17t72.5 41zM476 741l-102 -152h-118l81 152h139z" />
    <glyph glyph-name="Ccircumflex" unicode="&#x108;" horiz-adv-x="741" 
d="M622 205l66 -105q-49 -47 -124 -78.5t-155 -31.5q-154 0 -252 94t-98 255q0 162 98 256.5t252 94.5q130 0 202.5 -68.5t75.5 -188.5l-129 -27q-2 73 -39.5 113.5t-111.5 40.5q-92 0 -147.5 -58.5t-55.5 -162.5q0 -103 56.5 -161t151.5 -58q118 0 210 85zM474 746l-66 84
l-66 -84h-106l104 152h136l103 -152h-105z" />
    <glyph glyph-name="ccircumflex" unicode="&#x109;" horiz-adv-x="602" 
d="M500 167l54 -109q-92 -72 -222 -72q-142 0 -213 75t-71 199q0 121 76 199t200 78q111 0 171.5 -55.5t64.5 -149.5l-124 -28q-8 110 -111 110q-61 0 -97 -42t-36 -108q0 -68 39 -111.5t118 -43.5q37 0 78.5 17t72.5 41zM391 589l-66 84l-66 -84h-106l104 152h136l103 -152
h-105z" />
    <glyph glyph-name="Cdotaccent" unicode="&#x10a;" horiz-adv-x="741" 
d="M622 205l66 -105q-49 -47 -124 -78.5t-155 -31.5q-154 0 -252 94t-98 255q0 162 98 256.5t252 94.5q130 0 202.5 -68.5t75.5 -188.5l-129 -27q-2 73 -39.5 113.5t-111.5 40.5q-92 0 -147.5 -58.5t-55.5 -162.5q0 -103 56.5 -161t151.5 -58q118 0 210 85zM326 828
q0 69 82 69q80 0 80 -69q0 -70 -80 -70q-82 0 -82 70z" />
    <glyph glyph-name="cdotaccent" unicode="&#x10b;" horiz-adv-x="602" 
d="M500 167l54 -109q-92 -72 -222 -72q-142 0 -213 75t-71 199q0 121 76 199t200 78q111 0 171.5 -55.5t64.5 -149.5l-124 -28q-8 110 -111 110q-61 0 -97 -42t-36 -108q0 -68 39 -111.5t118 -43.5q37 0 78.5 17t72.5 41zM248 671q0 69 82 69q80 0 80 -69q0 -70 -80 -70
q-82 0 -82 70z" />
    <glyph glyph-name="Ccaron" unicode="&#x10c;" horiz-adv-x="741" 
d="M622 205l66 -105q-49 -47 -124 -78.5t-155 -31.5q-154 0 -252 94t-98 255q0 162 98 256.5t252 94.5q130 0 202.5 -68.5t75.5 -188.5l-129 -27q-2 73 -39.5 113.5t-111.5 40.5q-92 0 -147.5 -58.5t-55.5 -162.5q0 -103 56.5 -161t151.5 -58q118 0 210 85zM344 898l66 -83
l66 83h105l-103 -152h-136l-104 152h106z" />
    <glyph glyph-name="ccaron" unicode="&#x10d;" horiz-adv-x="602" 
d="M500 167l54 -109q-92 -72 -222 -72q-142 0 -213 75t-71 199q0 121 76 199t200 78q111 0 171.5 -55.5t64.5 -149.5l-124 -28q-8 110 -111 110q-61 0 -97 -42t-36 -108q0 -68 39 -111.5t118 -43.5q37 0 78.5 17t72.5 41zM263 741l66 -83l66 83h105l-103 -152h-136l-104 152
h106z" />
    <glyph glyph-name="Dcaron" unicode="&#x10e;" horiz-adv-x="802" 
d="M99 0v680h293q156 -1 253.5 -90.5t97.5 -250.5q0 -160 -97.5 -249.5t-253.5 -89.5h-293zM386 558h-147v-436h147q96 0 154 57t58 160q0 104 -58 161.5t-154 57.5zM286 898l66 -83l66 83h105l-103 -152h-136l-104 152h106z" />
    <glyph glyph-name="dcaron" unicode="&#x10f;" horiz-adv-x="743" 
d="M450 710h140v-549q0 -53 36 -53q18 0 52 16l7 -111q-48 -23 -115 -23q-86 0 -110 67q-56 -67 -167 -67q-108 0 -176.5 76.5t-68.5 195.5t68.5 194.5t176.5 75.5q96 0 157 -53v231zM190 262q0 -68 39 -109t104 -41q33 0 65.5 14t51.5 33v203q-48 48 -117 48
q-64 0 -103.5 -40.5t-39.5 -107.5zM677 493l24 65q-56 11 -56 63q0 32 20 50t52 18q85 0 85 -79q0 -65 -58 -141z" />
    <glyph glyph-name="Dcroat" unicode="&#x110;" horiz-adv-x="803" 
d="M100 0v284h-63v110h63v286h293q156 -1 253.5 -90.5t97.5 -250.5q0 -160 -97.5 -249.5t-253.5 -89.5h-293zM374 284h-134v-162h147q96 0 155 57t59 160q0 104 -59 161.5t-155 57.5h-147v-164h134v-110z" />
    <glyph glyph-name="dcroat" unicode="&#x111;" horiz-adv-x="713" 
d="M450 710h140v-49h88v-100h-88v-400q0 -53 36 -53q18 0 52 16l7 -111q-48 -23 -115 -23q-86 0 -110 67q-56 -67 -167 -67q-108 0 -176.5 76.5t-68.5 195.5t68.5 194.5t176.5 75.5q96 0 157 -53v82h-109v100h109v49zM190 262q0 -68 39 -109t104 -41q33 0 65.5 14t51.5 33
v203q-48 48 -117 48q-64 0 -103.5 -40.5t-39.5 -107.5z" />
    <glyph glyph-name="Emacron" unicode="&#x112;" horiz-adv-x="696" 
d="M637 0h-538v680h538v-123h-404v-147h331v-123h-331v-164h404v-123zM495 767h-255v96h255v-96z" />
    <glyph glyph-name="emacron" unicode="&#x113;" horiz-adv-x="607" 
d="M499 157l53 -100q-87 -71 -220 -71q-141 0 -213 76t-72 198q0 119 76 198t200 79q114 0 174 -61t60 -157q0 -65 -11 -102h-355q20 -114 145 -114q91 0 163 54zM422 325q1 5 1 18q0 34 -26 56t-77 22q-53 0 -85 -27.5t-40 -68.5h227zM451 610h-255v96h255v-96z" />
    <glyph glyph-name="Ebreve" unicode="&#x114;" horiz-adv-x="696" 
d="M637 0h-538v680h538v-123h-404v-147h331v-123h-331v-164h404v-123zM220 830l35 55q37 -45 112 -45t111 45l36 -55q-47 -83 -146 -83q-52 0 -90 24t-58 59z" />
    <glyph glyph-name="ebreve" unicode="&#x115;" horiz-adv-x="607" 
d="M499 157l53 -100q-87 -71 -220 -71q-141 0 -213 76t-72 198q0 119 76 198t200 79q114 0 174 -61t60 -157q0 -65 -11 -102h-355q20 -114 145 -114q91 0 163 54zM422 325q1 5 1 18q0 34 -26 56t-77 22q-53 0 -85 -27.5t-40 -68.5h227zM180 673l35 55q37 -45 112 -45t111 45
l36 -55q-47 -83 -146 -83q-52 0 -90 24t-58 59z" />
    <glyph glyph-name="Edotaccent" unicode="&#x116;" horiz-adv-x="696" 
d="M637 0h-538v680h538v-123h-404v-147h331v-123h-331v-164h404v-123zM285 828q0 69 82 69q80 0 80 -69q0 -70 -80 -70q-82 0 -82 70z" />
    <glyph glyph-name="edotaccent" unicode="&#x117;" horiz-adv-x="607" 
d="M499 157l53 -100q-87 -71 -220 -71q-141 0 -213 76t-72 198q0 119 76 198t200 79q114 0 174 -61t60 -157q0 -65 -11 -102h-355q20 -114 145 -114q91 0 163 54zM422 325q1 5 1 18q0 34 -26 56t-77 22q-53 0 -85 -27.5t-40 -68.5h227zM246 671q0 69 82 69q80 0 80 -69
q0 -70 -80 -70q-82 0 -82 70z" />
    <glyph glyph-name="Eogonek" unicode="&#x118;" horiz-adv-x="696" 
d="M637 0h-18q-39 -1 -63 -20t-24 -49q0 -24 13.5 -37.5t38.5 -13.5q26 0 54 18l14 -60q-37 -23 -87 -23q-45 0 -72 26.5t-27 70.5q0 30 16.5 53t40.5 35h-424v680h538v-123h-404v-147h331v-123h-331v-164h404v-123z" />
    <glyph glyph-name="eogonek" unicode="&#x119;" horiz-adv-x="608" 
d="M499 157l53 -100q-61 -50 -149 -65q-56 -19 -56 -61q0 -24 14 -37.5t39 -13.5q26 0 54 18l13 -60q-35 -23 -87 -23q-44 0 -71.5 26.5t-27.5 70.5q0 45 37 74q-135 4 -203 79.5t-68 194.5t76 198t200 79q114 0 174 -61t60 -157q0 -65 -11 -102h-355q20 -114 145 -114
q91 0 163 54zM422 325q1 5 1 18q0 34 -26 56t-77 22q-53 0 -85 -27.5t-40 -68.5h227z" />
    <glyph glyph-name="Ecaron" unicode="&#x11a;" horiz-adv-x="696" 
d="M637 0h-538v680h538v-123h-404v-147h331v-123h-331v-164h404v-123zM302 898l66 -83l66 83h105l-103 -152h-136l-104 152h106z" />
    <glyph glyph-name="ecaron" unicode="&#x11b;" horiz-adv-x="607" 
d="M499 157l53 -100q-87 -71 -220 -71q-141 0 -213 76t-72 198q0 119 76 198t200 79q114 0 174 -61t60 -157q0 -65 -11 -102h-355q20 -114 145 -114q91 0 163 54zM422 325q1 5 1 18q0 34 -26 56t-77 22q-53 0 -85 -27.5t-40 -68.5h227zM258 741l66 -83l66 83h105l-103 -152
h-136l-104 152h106z" />
    <glyph glyph-name="Gcircumflex" unicode="&#x11c;" horiz-adv-x="779" 
d="M391 402h319v-319q-49 -39 -131.5 -66t-158.5 -27q-156 0 -259 94.5t-103 254.5q0 161 103 256t259 95q150 0 264 -92l-65 -107q-83 69 -196 69q-96 0 -158 -59t-62 -162q0 -102 63 -160.5t163 -58.5q80 0 141 36v125h-179v121zM487 746l-66 84l-66 -84h-106l104 152h136
l103 -152h-105z" />
    <glyph glyph-name="gcircumflex" unicode="&#x11d;" horiz-adv-x="673" 
d="M408 589l-66 84l-66 -84h-106l104 152h136l103 -152h-105zM49 280q0 106 68.5 179t176.5 73q101 0 157 -53v44h140v-458q0 -128 -73 -195.5t-195 -67.5q-98 0 -197 49q-2 1 -4 1.5t-3 1.5l30 124q86 -53 174 -53q128 0 128 111v47q-61 -53 -157 -53q-107 0 -176 72.5
t-69 177.5zM192 280q0 -57 38.5 -92.5t102.5 -35.5q70 0 118 48v161q-19 20 -51.5 34.5t-66.5 14.5q-64 0 -102.5 -36t-38.5 -94z" />
    <glyph glyph-name="Gbreve" unicode="&#x11e;" horiz-adv-x="779" 
d="M391 402h319v-319q-49 -39 -131.5 -66t-158.5 -27q-156 0 -259 94.5t-103 254.5q0 161 103 256t259 95q150 0 264 -92l-65 -107q-83 69 -196 69q-96 0 -158 -59t-62 -162q0 -102 63 -160.5t163 -58.5q80 0 141 36v125h-179v121zM275 830l35 55q37 -45 112 -45t111 45
l36 -55q-47 -83 -146 -83q-52 0 -90 24t-58 59z" />
    <glyph glyph-name="gbreve" unicode="&#x11f;" horiz-adv-x="673" 
d="M198 673l35 55q37 -45 112 -45t111 45l36 -55q-47 -83 -146 -83q-52 0 -90 24t-58 59zM49 280q0 106 68.5 179t176.5 73q101 0 157 -53v44h140v-458q0 -128 -73 -195.5t-195 -67.5q-98 0 -197 49q-2 1 -4 1.5t-3 1.5l30 124q86 -53 174 -53q128 0 128 111v47
q-61 -53 -157 -53q-107 0 -176 72.5t-69 177.5zM192 280q0 -57 38.5 -92.5t102.5 -35.5q70 0 118 48v161q-19 20 -51.5 34.5t-66.5 14.5q-64 0 -102.5 -36t-38.5 -94z" />
    <glyph glyph-name="Gdotaccent" unicode="&#x120;" horiz-adv-x="779" 
d="M391 402h319v-319q-49 -39 -131.5 -66t-158.5 -27q-156 0 -259 94.5t-103 254.5q0 161 103 256t259 95q150 0 264 -92l-65 -107q-83 69 -196 69q-96 0 -158 -59t-62 -162q0 -102 63 -160.5t163 -58.5q80 0 141 36v125h-179v121zM338 828q0 69 82 69q80 0 80 -69
q0 -70 -80 -70q-82 0 -82 70z" />
    <glyph glyph-name="gdotaccent" unicode="&#x121;" horiz-adv-x="673" 
d="M271 671q0 69 82 69q80 0 80 -69q0 -70 -80 -70q-82 0 -82 70zM49 280q0 106 68.5 179t176.5 73q101 0 157 -53v44h140v-458q0 -128 -73 -195.5t-195 -67.5q-98 0 -197 49q-2 1 -4 1.5t-3 1.5l30 124q86 -53 174 -53q128 0 128 111v47q-61 -53 -157 -53q-107 0 -176 72.5
t-69 177.5zM192 280q0 -57 38.5 -92.5t102.5 -35.5q70 0 118 48v161q-19 20 -51.5 34.5t-66.5 14.5q-64 0 -102.5 -36t-38.5 -94z" />
    <glyph glyph-name="Gcommaaccent" unicode="&#x122;" horiz-adv-x="779" 
d="M391 402h319v-319q-49 -39 -131.5 -66t-158.5 -27q-156 0 -259 94.5t-103 254.5q0 161 103 256t259 95q150 0 264 -92l-65 -107q-83 69 -196 69q-96 0 -158 -59t-62 -162q0 -102 63 -160.5t163 -58.5q80 0 141 36v125h-179v121zM360 -255l24 65q-56 11 -56 63q0 32 20 50
t52 18q85 0 85 -79q0 -65 -58 -141z" />
    <glyph glyph-name="gcommaaccent" unicode="&#x123;" horiz-adv-x="673" 
d="M49 280q0 106 68.5 179t176.5 73q101 0 157 -53v44h140v-458q0 -128 -73 -195.5t-195 -67.5q-98 0 -197 49q-2 1 -4 1.5t-3 1.5l30 124q86 -53 174 -53q128 0 128 111v47q-61 -53 -157 -53q-107 0 -176 72.5t-69 177.5zM192 280q0 -57 38.5 -92.5t102.5 -35.5
q70 0 118 48v161q-19 20 -51.5 34.5t-66.5 14.5q-64 0 -102.5 -36t-38.5 -94zM387 779l-24 -65q57 -10 57 -63q0 -32 -20.5 -50t-52.5 -18q-85 0 -85 79q0 67 58 141z" />
    <glyph glyph-name="Hcircumflex" unicode="&#x124;" horiz-adv-x="843" 
d="M604 0v282h-365v-282h-140v680h140v-276h365v276h140v-680h-140zM486 746l-66 84l-66 -84h-106l104 152h136l103 -152h-105z" />
    <glyph glyph-name="hcircumflex" unicode="&#x125;" horiz-adv-x="696" 
d="M82 710h140v-249q61 71 168 71q97 0 145.5 -64t48.5 -167v-140q0 -53 36 -53q19 0 53 16l6 -111q-48 -23 -114 -23q-121 0 -121 138v150q0 59 -27 92t-79 33q-41 0 -71.5 -28t-44.5 -64v-311h-140v710zM404 752l-66 84l-66 -84h-106l104 152h136l103 -152h-105z" />
    <glyph glyph-name="Hbar" unicode="&#x126;" horiz-adv-x="843" 
d="M99 0v505h-46v110h46v65h140v-65h365v65h140v-65h49v-110h-49v-505h-140v282h-365v-282h-140zM239 505v-101h365v101h-365z" />
    <glyph glyph-name="hbar" unicode="&#x127;" horiz-adv-x="696" 
d="M82 710h140v-49h126v-100h-126v-100q61 71 168 71q97 0 145.5 -64t48.5 -167v-140q0 -53 36 -53q19 0 53 16l6 -111q-48 -23 -114 -23q-121 0 -121 138v150q0 59 -27 92t-79 33q-41 0 -71.5 -28t-44.5 -64v-311h-140v561h-71v100h71v49z" />
    <glyph glyph-name="Itilde" unicode="&#x128;" horiz-adv-x="338" 
d="M99 0v680h140v-680h-140zM23 757l-42 55q16 35 46.5 59.5t65.5 24.5q36 0 84.5 -29.5t67.5 -29.5q46 0 69 44l43 -54q-41 -85 -112 -85q-34 0 -83.5 29.5t-67.5 29.5q-43 0 -71 -44z" />
    <glyph glyph-name="itilde" unicode="&#x129;" horiz-adv-x="345" 
d="M80 523h140v-362q0 -53 36 -53q30 0 52 16l7 -111q-7 -6 -42.5 -14.5t-72.5 -8.5q-120 0 -120 138v395zM2 600l-42 55q16 35 46.5 59.5t65.5 24.5q36 0 84.5 -29.5t67.5 -29.5q46 0 69 44l43 -54q-41 -85 -112 -85q-34 0 -83.5 29.5t-67.5 29.5q-43 0 -71 -44z" />
    <glyph glyph-name="imacron" unicode="&#x12b;" horiz-adv-x="345" 
d="M80 523h140v-362q0 -53 36 -53q30 0 52 16l7 -111q-7 -6 -42.5 -14.5t-72.5 -8.5q-120 0 -120 138v395zM276 610h-255v96h255v-96z" />
    <glyph glyph-name="Ibreve" unicode="&#x12c;" horiz-adv-x="338" 
d="M99 0v680h140v-680h-140zM21 830l35 55q37 -45 112 -45t111 45l36 -55q-47 -83 -146 -83q-52 0 -90 24t-58 59z" />
    <glyph glyph-name="Iogonek" unicode="&#x12e;" horiz-adv-x="338" 
d="M99 0v680h140v-680h-39q-37 -2 -60 -20.5t-23 -48.5q0 -24 13.5 -37.5t38.5 -13.5q26 0 54 18l14 -60q-37 -23 -87 -23q-45 0 -72 26.5t-27 70.5q0 30 16.5 53t40.5 35h-9z" />
    <glyph glyph-name="iogonek" unicode="&#x12f;" horiz-adv-x="346" 
d="M81 128v395h140v-362q0 -53 36 -53q30 0 52 16l7 -111q-16 -13 -81 -21q-56 -18 -56 -61q0 -24 14 -37.5t39 -13.5q26 0 54 18l14 -60q-37 -23 -88 -23q-44 0 -71.5 26.5t-27.5 70.5q0 50 51 82q-83 18 -83 134zM73 661q0 66 79 66q77 0 77 -66q0 -67 -77 -67
q-79 0 -79 67z" />
    <glyph glyph-name="Idotaccent" unicode="&#x130;" horiz-adv-x="338" 
d="M99 0v680h140v-680h-140zM87 828q0 69 82 69q80 0 80 -69q0 -70 -80 -70q-82 0 -82 70z" />
    <glyph glyph-name="dotlessi" unicode="&#x131;" horiz-adv-x="345" 
d="M80 523h140v-362q0 -53 36 -53q30 0 52 16l7 -111q-7 -6 -42.5 -14.5t-72.5 -8.5q-120 0 -120 138v395z" />
    <glyph glyph-name="IJ" unicode="&#x132;" horiz-adv-x="995" 
d="M99 0v680h140v-680h-140zM763 680h141v-410q0 -128 -69.5 -204.5t-202.5 -76.5q-253 0 -270 272l139 13q6 -77 36 -116t97 -39q129 0 129 160v401z" />
    <glyph glyph-name="ij" unicode="&#x133;" horiz-adv-x="649" 
d="M220 523v-362q0 -53 36 -53q30 0 52 16l7 -111q-7 -6 -42.5 -14.5t-72.5 -8.5q-120 0 -120 138v395h140zM69 671q0 69 82 69q80 0 80 -69q0 -70 -80 -70q-82 0 -82 70zM567 523v-475q0 -167 -145 -245l-83 91q42 26 65 59.5t23 88.5v481h140zM417 671q0 69 81 69
q80 0 80 -69q0 -70 -80 -70q-81 0 -81 70z" />
    <glyph glyph-name="Jcircumflex" unicode="&#x134;" horiz-adv-x="658" 
d="M425 680h141v-410q0 -128 -69.5 -204.5t-202.5 -76.5q-253 0 -270 272l139 13q6 -77 36 -116t97 -39q129 0 129 160v401zM557 746l-66 84l-66 -84h-106l104 152h136l103 -152h-105z" />
    <glyph glyph-name="jcircumflex" unicode="&#x135;" horiz-adv-x="304" 
d="M82 523h140v-475q0 -167 -145 -245l-83 91q42 26 65 59.5t23 88.5v481zM217 589l-66 84l-66 -84h-106l104 152h136l103 -152h-105z" />
    <glyph glyph-name="Kcommaaccent" unicode="&#x136;" horiz-adv-x="788" 
d="M99 0v680h140v-283h134l185 283h145v-21l-225 -327q14 -16 50 -77.5t73.5 -102t79.5 -40.5q43 0 76 15l15 -111q-52 -26 -119 -26q-47 0 -88.5 22.5t-71.5 59.5t-53 73.5t-45.5 75t-36.5 54.5h-119v-275h-140zM318 -255l24 65q-56 11 -56 63q0 32 20 50t52 18
q85 0 85 -79q0 -65 -58 -141z" />
    <glyph glyph-name="kcommaaccent" unicode="&#x137;" horiz-adv-x="642" 
d="M452 523h140q-27 -187 -142 -262l156 -238v-23h-151l-128 214q-53 -10 -105 -10v-204h-140v710h140v-382q48 0 81.5 7t65 27t52 59.5t31.5 101.5zM273 -255l24 65q-56 11 -56 63q0 32 20 50t52 18q85 0 85 -79q0 -65 -58 -141z" />
    <glyph glyph-name="kgreenlandic" unicode="&#x138;" horiz-adv-x="643" 
d="M222 0h-140v523h140v-216q94 1 151 48.5t79 167.5h140q-27 -191 -146 -271l160 -229v-23h-151l-130 203q-46 -10 -103 -10v-193z" />
    <glyph glyph-name="Lacute" unicode="&#x139;" horiz-adv-x="616" 
d="M592 0h-493v680h140v-558h353v-122zM325 898l-102 -152h-118l81 152h139z" />
    <glyph glyph-name="lacute" unicode="&#x13a;" horiz-adv-x="345" 
d="M77 710h140v-545q0 -57 43 -57q24 0 56 16l7 -111q-55 -23 -118 -23q-128 0 -128 141v579zM295 904l-102 -152h-118l81 152h139z" />
    <glyph glyph-name="Lcommaaccent" unicode="&#x13b;" horiz-adv-x="615" 
d="M592 0h-493v680h140v-558h353v-122zM290 -255l24 65q-56 11 -56 63q0 32 20 50t52 18q85 0 85 -79q0 -65 -58 -141z" />
    <glyph glyph-name="lcommaaccent" unicode="&#x13c;" horiz-adv-x="346" 
d="M77 710h140v-545q0 -57 43 -57q24 0 56 16l7 -111q-55 -23 -118 -23q-128 0 -128 141v579zM138 -255l24 65q-56 11 -56 63q0 32 20 50t52 18q85 0 85 -79q0 -65 -58 -141z" />
    <glyph glyph-name="Lcaron" unicode="&#x13d;" horiz-adv-x="621" 
d="M592 0h-493v680h140v-558h353v-122zM421 493l24 65q-56 11 -56 63q0 32 20 50t52 18q85 0 85 -79q0 -65 -58 -141z" />
    <glyph glyph-name="lcaron" unicode="&#x13e;" horiz-adv-x="377" 
d="M77 710h140v-545q0 -57 43 -57q24 0 56 16l7 -111q-55 -23 -118 -23q-128 0 -128 141v579zM304 493l24 65q-56 11 -56 63q0 32 20 50t52 18q85 0 85 -79q0 -65 -58 -141z" />
    <glyph glyph-name="Ldot" unicode="&#x13f;" horiz-adv-x="630" 
d="M592 0h-493v680h140v-558h353v-122zM358 390q0 41 22.5 63t63.5 22t64 -22.5t23 -62.5t-23 -62t-64 -22t-63.5 22t-22.5 62z" />
    <glyph glyph-name="ldot" unicode="&#x140;" horiz-adv-x="443" 
d="M77 710h140v-545q0 -57 43 -57q24 0 56 16l7 -111q-55 -23 -118 -23q-128 0 -128 141v579zM285 390q0 41 22.5 63t63.5 22t64 -22.5t23 -62.5t-23 -62t-64 -22t-63.5 22t-22.5 62z" />
    <glyph glyph-name="Lslash" unicode="&#x141;" horiz-adv-x="617" 
d="M593 0h-493v255l-47 -23v111l47 23v314h140v-243l115 58v-111l-115 -58v-204h353v-122z" />
    <glyph glyph-name="lslash" unicode="&#x142;" horiz-adv-x="353" 
d="M223 710v-248l74 38v-111l-74 -38v-186q0 -57 43 -57q24 0 56 16l7 -111q-55 -23 -118 -23q-128 0 -128 141v148l-46 -23v112l46 23v319h140z" />
    <glyph glyph-name="Nacute" unicode="&#x143;" horiz-adv-x="842" 
d="M621 0l-382 457v-457h-140v680h122l382 -458v458h140v-680h-122zM579 898l-102 -152h-118l81 152h139z" />
    <glyph glyph-name="nacute" unicode="&#x144;" horiz-adv-x="696" 
d="M82 523h140v-64q63 73 168 73q97 0 145.5 -64t48.5 -167v-140q0 -53 36 -53q23 0 53 16l6 -111q-46 -23 -114 -23q-121 0 -121 138v150q0 59 -27 92t-79 33q-41 0 -71.5 -28t-44.5 -64v-311h-140v523zM498 741l-102 -152h-118l81 152h139z" />
    <glyph glyph-name="Ncommaaccent" unicode="&#x145;" horiz-adv-x="842" 
d="M621 0l-382 457v-457h-140v680h122l382 -458v458h140v-680h-122zM362 -255l24 65q-56 11 -56 63q0 32 20 50t52 18q85 0 85 -79q0 -65 -58 -141z" />
    <glyph glyph-name="ncommaaccent" unicode="&#x146;" horiz-adv-x="696" 
d="M82 523h140v-64q63 73 168 73q97 0 145.5 -64t48.5 -167v-140q0 -53 36 -53q23 0 53 16l6 -111q-46 -23 -114 -23q-121 0 -121 138v150q0 59 -27 92t-79 33q-41 0 -71.5 -28t-44.5 -64v-311h-140v523zM298 -255l24 65q-56 11 -56 63q0 32 20 50t52 18q85 0 85 -79
q0 -65 -58 -141z" />
    <glyph glyph-name="Ncaron" unicode="&#x147;" horiz-adv-x="842" 
d="M621 0l-382 457v-457h-140v680h122l382 -458v458h140v-680h-122zM360 898l66 -83l66 83h105l-103 -152h-136l-104 152h106z" />
    <glyph glyph-name="ncaron" unicode="&#x148;" horiz-adv-x="696" 
d="M82 523h140v-64q63 73 168 73q97 0 145.5 -64t48.5 -167v-140q0 -53 36 -53q23 0 53 16l6 -111q-46 -23 -114 -23q-121 0 -121 138v150q0 59 -27 92t-79 33q-41 0 -71.5 -28t-44.5 -64v-311h-140v523zM271 741l66 -83l66 83h105l-103 -152h-136l-104 152h106z" />
    <glyph glyph-name="napostrophe" unicode="&#x149;" horiz-adv-x="778" 
d="M164 523h140v-64q63 73 168 73q97 0 145.5 -64t48.5 -167v-140q0 -53 36 -53q23 0 53 16l6 -111q-46 -23 -114 -23q-121 0 -121 138v150q0 59 -27 92t-79 33q-41 0 -71.5 -28t-44.5 -64v-311h-140v523z" />
    <glyph glyph-name="Eng" unicode="&#x14a;" horiz-adv-x="842" 
d="M603 38l-364 419v-457h-140v680h122l382 -452v452h140v-630q0 -167 -145 -245l-83 81q88 55 88 152z" />
    <glyph glyph-name="eng" unicode="&#x14b;" horiz-adv-x="659" 
d="M444 39v239q0 59 -27 92t-79 33q-41 0 -71.5 -28t-44.5 -64v-311h-140v523h140v-64q63 73 168 73q97 0 145.5 -64t48.5 -167v-251q0 -167 -145 -245l-83 81q88 55 88 153z" />
    <glyph glyph-name="Omacron" unicode="&#x14c;" horiz-adv-x="814" 
d="M57 339q0 151 100 251t249 100q151 0 251 -100t100 -251q0 -149 -100 -249t-251 -100q-149 0 -249 100t-100 249zM195 339q0 -93 60 -155.5t152 -62.5q93 0 152.5 62.5t59.5 155.5q0 94 -59.5 156t-152.5 62q-92 0 -152 -62t-60 -156zM533 767h-255v96h255v-96z" />
    <glyph glyph-name="omacron" unicode="&#x14d;" horiz-adv-x="654" 
d="M46 260q0 119 79.5 198t200.5 79q123 0 202.5 -78.5t79.5 -198.5q0 -118 -79.5 -196t-202.5 -78q-121 0 -200.5 78t-79.5 196zM181 260q0 -62 40.5 -104t104.5 -42q65 0 106 42t41 104q0 64 -41 106.5t-106 42.5q-64 0 -104.5 -42.5t-40.5 -106.5zM453 610h-255v96h255
v-96z" />
    <glyph glyph-name="Obreve" unicode="&#x14e;" horiz-adv-x="814" 
d="M57 339q0 151 100 251t249 100q151 0 251 -100t100 -251q0 -149 -100 -249t-251 -100q-149 0 -249 100t-100 249zM195 339q0 -93 60 -155.5t152 -62.5q93 0 152.5 62.5t59.5 155.5q0 94 -59.5 156t-152.5 62q-92 0 -152 -62t-60 -156zM259 830l35 55q37 -45 112 -45
t111 45l36 -55q-47 -83 -146 -83q-52 0 -90 24t-58 59z" />
    <glyph glyph-name="obreve" unicode="&#x14f;" horiz-adv-x="654" 
d="M46 260q0 119 79.5 198t200.5 79q123 0 202.5 -78.5t79.5 -198.5q0 -118 -79.5 -196t-202.5 -78q-121 0 -200.5 78t-79.5 196zM181 260q0 -62 40.5 -104t104.5 -42q65 0 106 42t41 104q0 64 -41 106.5t-106 42.5q-64 0 -104.5 -42.5t-40.5 -106.5zM179 673l35 55
q37 -45 112 -45t111 45l36 -55q-47 -83 -146 -83q-52 0 -90 24t-58 59z" />
    <glyph glyph-name="Ohungarumlaut" unicode="&#x150;" horiz-adv-x="814" 
d="M57 339q0 151 100 251t249 100q151 0 251 -100t100 -251q0 -149 -100 -249t-251 -100q-149 0 -249 100t-100 249zM195 339q0 -93 60 -155.5t152 -62.5q93 0 152.5 62.5t59.5 155.5q0 94 -59.5 156t-152.5 62q-92 0 -152 -62t-60 -156zM475 898l-103 -152h-117l81 152h139
zM680 898l-102 -152h-117l81 152h138z" />
    <glyph glyph-name="ohungarumlaut" unicode="&#x151;" horiz-adv-x="654" 
d="M46 260q0 119 79.5 198t200.5 79q123 0 202.5 -78.5t79.5 -198.5q0 -118 -79.5 -196t-202.5 -78q-121 0 -200.5 78t-79.5 196zM181 260q0 -62 40.5 -104t104.5 -42q65 0 106 42t41 104q0 64 -41 106.5t-106 42.5q-64 0 -104.5 -42.5t-40.5 -106.5zM382 741l-103 -152
h-117l81 152h139zM587 741l-102 -152h-117l81 152h138z" />
    <glyph glyph-name="OE" unicode="&#x152;" horiz-adv-x="1171" 
d="M574 0v41q-81 -52 -171 -52q-149 0 -247.5 99.5t-98.5 249.5q0 151 98.5 251t247.5 100q94 0 171 -51v42h538v-123h-404v-152h331v-113h-331v-170h404v-122h-538zM192 338q0 -93 62 -155.5t158 -62.5q99 0 162 63v312q-65 63 -164 63q-95 0 -156.5 -63t-61.5 -157z" />
    <glyph glyph-name="oe" unicode="&#x153;" horiz-adv-x="1063" 
d="M1004 217h-359q6 -59 41 -86.5t115 -27.5q83 0 154 53l53 -99q-87 -71 -220 -71q-173 0 -236 120q-33 -56 -92 -88t-134 -32q-121 0 -200.5 78t-79.5 196q0 119 79.5 198t200.5 79q76 0 136 -34t92 -93q31 58 89.5 92.5t135.5 34.5q114 0 174 -62.5t60 -156.5
q0 -65 -9 -101zM181 260q0 -62 40.5 -104.5t104.5 -42.5q65 0 106 42t41 105q0 64 -41 106.5t-106 42.5q-64 0 -104.5 -42.5t-40.5 -106.5zM771 421q-51 0 -84 -25.5t-41 -70.5h238q1 6 1 17q0 38 -33 58.5t-81 20.5z" />
    <glyph glyph-name="Racute" unicode="&#x154;" horiz-adv-x="777" 
d="M99 0v680h299q53 0 99.5 -11.5t86 -36t62.5 -69t23 -104.5q0 -83 -54 -140.5t-138 -70.5q7 -7 27 -26.5t29 -28t27 -24.5t30 -24t28 -17t30.5 -13t29.5 -4q41 0 76 16l14 -111q-52 -26 -112 -26q-53 0 -107.5 32t-91.5 71t-81.5 86.5t-68.5 65.5h-68v-245h-140zM413 558
h-174v-203h174q49 0 79.5 27t30.5 74q0 49 -30 75.5t-80 26.5zM499 898l-102 -152h-118l81 152h139z" />
    <glyph glyph-name="racute" unicode="&#x155;" horiz-adv-x="498" 
d="M122 0v361q0 53 -36 53q-29 0 -53 -15l-6 110q6 6 41.5 14.5t72.5 8.5q92 0 114 -79q40 79 131 79q34 0 61 -10t33 -20l-20 -126q-7 9 -35 18t-61 9q-84 0 -102 -119v-284h-140zM391 741l-102 -152h-118l81 152h139z" />
    <glyph glyph-name="Rcommaaccent" unicode="&#x156;" horiz-adv-x="778" 
d="M99 0v680h299q53 0 99.5 -11.5t86 -36t62.5 -69t23 -104.5q0 -83 -54 -140.5t-138 -70.5q7 -7 27 -26.5t29 -28t27 -24.5t30 -24t28 -17t30.5 -13t29.5 -4q41 0 76 16l14 -111q-52 -26 -112 -26q-53 0 -107.5 32t-91.5 71t-81.5 86.5t-68.5 65.5h-68v-245h-140zM413 558
h-174v-203h174q49 0 79.5 27t30.5 74q0 49 -30 75.5t-80 26.5zM326 -255l24 65q-56 11 -56 63q0 32 20 50t52 18q85 0 85 -79q0 -65 -58 -141z" />
    <glyph glyph-name="rcommaaccent" unicode="&#x157;" horiz-adv-x="498" 
d="M122 0v361q0 53 -36 53q-29 0 -53 -15l-6 110q6 6 41.5 14.5t72.5 8.5q92 0 114 -79q40 79 131 79q34 0 61 -10t33 -20l-20 -126q-7 9 -35 18t-61 9q-84 0 -102 -119v-284h-140zM137 -255l24 65q-56 11 -56 63q0 32 20 50t52 18q85 0 85 -79q0 -65 -58 -141z" />
    <glyph glyph-name="Rcaron" unicode="&#x158;" horiz-adv-x="777" 
d="M99 0v680h299q53 0 99.5 -11.5t86 -36t62.5 -69t23 -104.5q0 -83 -54 -140.5t-138 -70.5q7 -7 27 -26.5t29 -28t27 -24.5t30 -24t28 -17t30.5 -13t29.5 -4q41 0 76 16l14 -111q-52 -26 -112 -26q-53 0 -107.5 32t-91.5 71t-81.5 86.5t-68.5 65.5h-68v-245h-140zM413 558
h-174v-203h174q49 0 79.5 27t30.5 74q0 49 -30 75.5t-80 26.5zM274 898l66 -83l66 83h105l-103 -152h-136l-104 152h106z" />
    <glyph glyph-name="rcaron" unicode="&#x159;" horiz-adv-x="498" 
d="M122 0v361q0 53 -36 53q-29 0 -53 -15l-6 110q6 6 41.5 14.5t72.5 8.5q92 0 114 -79q40 79 131 79q34 0 61 -10t33 -20l-20 -126q-7 9 -35 18t-61 9q-84 0 -102 -119v-284h-140zM184 741l66 -83l66 83h105l-103 -152h-136l-104 152h106z" />
    <glyph glyph-name="Sacute" unicode="&#x15a;" horiz-adv-x="642" 
d="M343 266l-129 35q-156 41 -156 182q0 90 69 148t203 58q70 0 136 -15.5t108 -38.5l-40 -131q-38 25 -96.5 41t-112.5 16q-122 0 -122 -66q0 -26 17.5 -40.5t56.5 -25.5l126 -36q94 -27 138.5 -71.5t44.5 -116.5q0 -96 -77 -155.5t-200 -59.5q-68 0 -134.5 18.5
t-105.5 40.5l33 133q98 -64 210 -64q60 0 94 21t34 55q0 26 -23.5 42t-73.5 30zM487 898l-102 -152h-118l81 152h139z" />
    <glyph glyph-name="sacute" unicode="&#x15b;" horiz-adv-x="524" 
d="M473 494l-37 -121q-82 42 -166 42q-80 0 -80 -43q0 -18 12.5 -26.5t44.5 -16.5l100 -25q67 -17 97 -53t30 -95q0 -77 -56 -121.5t-157 -44.5q-113 0 -203 45l26 119q92 -48 171 -48q80 0 80 40q0 15 -16 24t-50 17l-91 23q-129 33 -129 151q0 77 63 124t169 47
q49 0 104.5 -11.5t87.5 -26.5zM412 741l-102 -152h-118l81 152h139z" />
    <glyph glyph-name="Scircumflex" unicode="&#x15c;" horiz-adv-x="642" 
d="M343 266l-129 35q-156 41 -156 182q0 90 69 148t203 58q70 0 136 -15.5t108 -38.5l-40 -131q-38 25 -96.5 41t-112.5 16q-122 0 -122 -66q0 -26 17.5 -40.5t56.5 -25.5l126 -36q94 -27 138.5 -71.5t44.5 -116.5q0 -96 -77 -155.5t-200 -59.5q-68 0 -134.5 18.5
t-105.5 40.5l33 133q98 -64 210 -64q60 0 94 21t34 55q0 26 -23.5 42t-73.5 30zM390 746l-66 84l-66 -84h-106l104 152h136l103 -152h-105z" />
    <glyph glyph-name="scircumflex" unicode="&#x15d;" horiz-adv-x="524" 
d="M473 494l-37 -121q-82 42 -166 42q-80 0 -80 -43q0 -18 12.5 -26.5t44.5 -16.5l100 -25q67 -17 97 -53t30 -95q0 -77 -56 -121.5t-157 -44.5q-113 0 -203 45l26 119q92 -48 171 -48q80 0 80 40q0 15 -16 24t-50 17l-91 23q-129 33 -129 151q0 77 63 124t169 47
q49 0 104.5 -11.5t87.5 -26.5zM334 589l-66 84l-66 -84h-106l104 152h136l103 -152h-105z" />
    <glyph glyph-name="Scedilla" unicode="&#x15e;" horiz-adv-x="643" 
d="M241 -97l26 89q-121 12 -197 57l33 133q98 -64 210 -64q60 0 94 21t34 55q0 26 -23.5 42t-73.5 30l-129 35q-156 41 -156 182q0 90 69 148t203 58q70 0 136 -15.5t108 -38.5l-40 -131q-38 25 -96.5 41t-112.5 16q-122 0 -122 -66q0 -26 17.5 -40.5t56.5 -25.5l126 -36
q94 -27 138.5 -71.5t44.5 -116.5q0 -93 -72.5 -152t-190.5 -63l-14 -47q10 3 26 3q41 0 64 -18.5t23 -48.5q0 -36 -32 -56.5t-82 -20.5q-42 0 -78 11l12 46q37 -11 62 -11q54 0 54 29q0 27 -52 27q-34 0 -62 -6z" />
    <glyph glyph-name="scedilla" unicode="&#x15f;" horiz-adv-x="526" 
d="M187 -97l26 90q-90 8 -154 42l26 119q92 -48 171 -48q80 0 80 40q0 15 -16 24t-50 17l-91 23q-129 33 -129 151q0 77 63 124t169 47q49 0 104.5 -11.5t87.5 -26.5l-37 -121q-82 42 -166 42q-80 0 -80 -43q0 -18 12.5 -26.5t44.5 -16.5l100 -25q67 -17 97 -53t30 -95
q0 -75 -54 -119.5t-151 -46.5l-14 -47q10 3 26 3q41 0 64 -18.5t23 -48.5q0 -36 -32 -56.5t-82 -20.5q-42 0 -78 11l12 46q37 -11 62 -11q54 0 54 29q0 27 -52 27q-34 0 -62 -6z" />
    <glyph glyph-name="Scaron" unicode="&#x160;" horiz-adv-x="642" 
d="M343 266l-129 35q-156 41 -156 182q0 90 69 148t203 58q70 0 136 -15.5t108 -38.5l-40 -131q-38 25 -96.5 41t-112.5 16q-122 0 -122 -66q0 -26 17.5 -40.5t56.5 -25.5l126 -36q94 -27 138.5 -71.5t44.5 -116.5q0 -96 -77 -155.5t-200 -59.5q-68 0 -134.5 18.5
t-105.5 40.5l33 133q98 -64 210 -64q60 0 94 21t34 55q0 26 -23.5 42t-73.5 30zM252 898l66 -83l66 83h105l-103 -152h-136l-104 152h106z" />
    <glyph glyph-name="scaron" unicode="&#x161;" horiz-adv-x="524" 
d="M473 494l-37 -121q-82 42 -166 42q-80 0 -80 -43q0 -18 12.5 -26.5t44.5 -16.5l100 -25q67 -17 97 -53t30 -95q0 -77 -56 -121.5t-157 -44.5q-113 0 -203 45l26 119q92 -48 171 -48q80 0 80 40q0 15 -16 24t-50 17l-91 23q-129 33 -129 151q0 77 63 124t169 47
q49 0 104.5 -11.5t87.5 -26.5zM201 741l66 -83l66 83h105l-103 -152h-136l-104 152h106z" />
    <glyph glyph-name="Tcommaaccent" unicode="&#x162;" horiz-adv-x="638" 
d="M609 540h-216v-540h-49l-18 -57q10 3 26 3q41 0 64 -18.5t23 -48.5q0 -36 -32 -56.5t-82 -20.5q-42 0 -78 11l12 46q37 -11 62 -11q54 0 54 29q0 27 -52 27q-34 0 -62 -6l-4 5l30 97h-34v540h-224v140h580v-140z" />
    <glyph glyph-name="tcommaaccent" unicode="&#x163;" horiz-adv-x="510" 
d="M212 -97l27 93q-56 13 -86.5 58t-30.5 119v241h-93v109h93l17 133h123v-133h191v-109h-191v-213q0 -89 71 -89q54 0 106 38l44 -108q-83 -51 -188 -52l-14 -47q11 3 26 3q41 0 64 -18.5t23 -48.5q0 -36 -32 -56.5t-82 -20.5q-42 0 -78 11l12 46q37 -11 62 -11q54 0 54 29
q0 27 -52 27q-34 0 -62 -6z" />
    <glyph glyph-name="Tcaron" unicode="&#x164;" horiz-adv-x="638" 
d="M609 540h-216v-540h-140v540h-224v140h580v-140zM256 898l66 -83l66 83h105l-103 -152h-136l-104 152h106z" />
    <glyph glyph-name="tcaron" unicode="&#x165;" horiz-adv-x="536" 
d="M137 656h123v-133h191v-109h-191v-213q0 -89 71 -89q54 0 106 38l44 -108q-84 -52 -194 -52q-78 0 -122.5 47t-44.5 136v241h-93v109h93zM480 493l24 65q-56 11 -56 63q0 32 20 50t52 18q85 0 85 -79q0 -65 -58 -141z" />
    <glyph glyph-name="Tbar" unicode="&#x166;" horiz-adv-x="638" 
d="M609 540h-216v-173h101v-110h-101v-257h-140v257h-96v110h96v173h-224v140h580v-140z" />
    <glyph glyph-name="tbar" unicode="&#x167;" horiz-adv-x="508" 
d="M137 656h123v-133h191v-109h-191v-86h121v-100h-121v-27q0 -89 71 -89q54 0 106 38l44 -108q-84 -52 -194 -52q-78 0 -122.5 47t-44.5 136v55h-76v100h76v86h-93v109h93z" />
    <glyph glyph-name="Utilde" unicode="&#x168;" horiz-adv-x="801" 
d="M231 680v-384q0 -83 42.5 -130t125.5 -47q84 0 127.5 48t43.5 130v383h140v-393q0 -126 -82.5 -212t-228.5 -86q-147 0 -227.5 82t-80.5 216v393h140zM254 757l-42 55q16 35 46.5 59.5t65.5 24.5q36 0 84.5 -29.5t67.5 -29.5q46 0 69 44l43 -54q-41 -85 -112 -85
q-34 0 -83.5 29.5t-67.5 29.5q-43 0 -71 -44z" />
    <glyph glyph-name="utilde" unicode="&#x169;" horiz-adv-x="700" 
d="M437 523h140v-362q0 -53 35 -53q21 0 53 16l7 -111q-44 -23 -115 -23q-85 0 -110 68q-59 -68 -178 -68q-98 0 -146 61.5t-48 169.5v302h140v-281q0 -67 23 -95.5t83 -28.5q78 0 116 70v335zM184 600l-42 55q16 35 46.5 59.5t65.5 24.5q36 0 84.5 -29.5t67.5 -29.5
q46 0 69 44l43 -54q-41 -85 -112 -85q-34 0 -83.5 29.5t-67.5 29.5q-43 0 -71 -44z" />
    <glyph glyph-name="Umacron" unicode="&#x16a;" horiz-adv-x="801" 
d="M231 680v-384q0 -83 42.5 -130t125.5 -47q84 0 127.5 48t43.5 130v383h140v-393q0 -126 -82.5 -212t-228.5 -86q-147 0 -227.5 82t-80.5 216v393h140zM527 767h-255v96h255v-96z" />
    <glyph glyph-name="umacron" unicode="&#x16b;" horiz-adv-x="700" 
d="M437 523h140v-362q0 -53 35 -53q21 0 53 16l7 -111q-44 -23 -115 -23q-85 0 -110 68q-59 -68 -178 -68q-98 0 -146 61.5t-48 169.5v302h140v-281q0 -67 23 -95.5t83 -28.5q78 0 116 70v335zM457 610h-255v96h255v-96z" />
    <glyph glyph-name="Ubreve" unicode="&#x16c;" horiz-adv-x="801" 
d="M231 680v-384q0 -83 42.5 -130t125.5 -47q84 0 127.5 48t43.5 130v383h140v-393q0 -126 -82.5 -212t-228.5 -86q-147 0 -227.5 82t-80.5 216v393h140zM253 830l35 55q37 -45 112 -45t111 45l36 -55q-47 -83 -146 -83q-52 0 -90 24t-58 59z" />
    <glyph glyph-name="ubreve" unicode="&#x16d;" horiz-adv-x="700" 
d="M437 523h140v-362q0 -53 35 -53q21 0 53 16l7 -111q-44 -23 -115 -23q-85 0 -110 68q-59 -68 -178 -68q-98 0 -146 61.5t-48 169.5v302h140v-281q0 -67 23 -95.5t83 -28.5q78 0 116 70v335zM182 673l35 55q37 -45 112 -45t111 45l36 -55q-47 -83 -146 -83q-52 0 -90 24
t-58 59z" />
    <glyph glyph-name="Uring" unicode="&#x16e;" horiz-adv-x="801" 
d="M231 680v-384q0 -83 42.5 -130t125.5 -47q84 0 127.5 48t43.5 130v383h140v-393q0 -126 -82.5 -212t-228.5 -86q-147 0 -227.5 82t-80.5 216v393h140zM302 787q0 41 29 69.5t69 28.5t69 -28.5t29 -69.5t-29 -69.5t-69 -28.5t-69 28.5t-29 69.5zM359 787q0 -17 12 -29
t29 -12t28.5 12t11.5 29t-12 28.5t-28 11.5q-17 0 -29 -11.5t-12 -28.5z" />
    <glyph glyph-name="uring" unicode="&#x16f;" horiz-adv-x="700" 
d="M437 523h140v-362q0 -53 35 -53q21 0 53 16l7 -111q-44 -23 -115 -23q-85 0 -110 68q-59 -68 -178 -68q-98 0 -146 61.5t-48 169.5v302h140v-281q0 -67 23 -95.5t83 -28.5q78 0 116 70v335zM228 670q0 40 29 69t69 29t69 -29t29 -69t-29 -69t-69 -29t-69 29t-29 69z
M285 670q0 -17 12 -29t29 -12t28.5 12t11.5 29q0 16 -12 28t-28 12q-17 0 -29 -11.5t-12 -28.5z" />
    <glyph glyph-name="Uhungarumlaut" unicode="&#x170;" horiz-adv-x="801" 
d="M231 680v-384q0 -83 42.5 -130t125.5 -47q84 0 127.5 48t43.5 130v383h140v-393q0 -126 -82.5 -212t-228.5 -86q-147 0 -227.5 82t-80.5 216v393h140zM453 898l-103 -152h-117l81 152h139zM658 898l-102 -152h-117l81 152h138z" />
    <glyph glyph-name="uhungarumlaut" unicode="&#x171;" horiz-adv-x="700" 
d="M437 523h140v-362q0 -53 35 -53q21 0 53 16l7 -111q-44 -23 -115 -23q-85 0 -110 68q-59 -68 -178 -68q-98 0 -146 61.5t-48 169.5v302h140v-281q0 -67 23 -95.5t83 -28.5q78 0 116 70v335zM386 741l-103 -152h-117l81 152h139zM591 741l-102 -152h-117l81 152h138z" />
    <glyph glyph-name="Uogonek" unicode="&#x172;" horiz-adv-x="802" 
d="M232 680v-384q0 -83 42.5 -131t125.5 -48q84 0 127.5 49t43.5 131v383h140v-393q0 -110 -64 -191t-179 -101q-57 -20 -57 -64q0 -51 53 -51q25 0 54 18l13 -60q-35 -23 -87 -23q-44 0 -71.5 26.5t-27.5 70.5q0 47 41 77q-140 4 -217 86t-77 212v393h140z" />
    <glyph glyph-name="uogonek" unicode="&#x173;" horiz-adv-x="700" 
d="M437 523h140v-362q0 -53 35 -53q21 0 53 16l7 -111q-26 -13 -67 -19q-53 -18 -53 -63q0 -51 53 -51q25 0 54 18l13 -60q-35 -23 -87 -23q-44 0 -71.5 26.5t-27.5 70.5q0 50 46 80q-63 8 -85 66q-59 -68 -178 -68q-98 0 -146 61.5t-48 169.5v302h140v-281q0 -67 23 -95.5
t83 -28.5q78 0 116 70v335z" />
    <glyph glyph-name="Wcircumflex" unicode="&#x174;" horiz-adv-x="1104" 
d="M669 0l-115 291l-123 -291h-152l-263 680h151l200 -523l126 300l-84 223h152l182 -500l196 500h153l-271 -680h-152zM618 746l-66 84l-66 -84h-106l104 152h136l103 -152h-105z" />
    <glyph glyph-name="wcircumflex" unicode="&#x175;" horiz-adv-x="1000" 
d="M453 523h140v-284q0 -121 95 -121q54 0 82.5 39t28.5 103q0 119 -63 263h149q54 -142 54 -275q0 -118 -64.5 -188t-177.5 -70q-69 0 -111 23.5t-67 73.5q-50 -97 -188 -97q-108 0 -163 60.5t-55 170.5v140q0 27 -7.5 40t-29.5 13q-32 0 -53 -16l-6 112q61 22 119 22
q117 0 117 -135v-155q0 -124 95 -124q49 0 77 33.5t28 95.5v276zM586 589l-66 84l-66 -84h-106l104 152h136l103 -152h-105z" />
    <glyph glyph-name="Ycircumflex" unicode="&#x176;" horiz-adv-x="686" 
d="M273 0v269l-266 401v10h156l180 -282l180 282h156v-10l-266 -400v-270h-140zM408 746l-66 84l-66 -84h-106l104 152h136l103 -152h-105z" />
    <glyph glyph-name="ycircumflex" unicode="&#x177;" horiz-adv-x="596" 
d="M7 523h155l144 -370l139 370h141l-217 -528q-41 -103 -89.5 -148t-132.5 -45q-66 0 -120 35l21 113q54 -30 99 -30q33 0 52 15.5t35 51.5l11 27zM370 589l-66 84l-66 -84h-106l104 152h136l103 -152h-105z" />
    <glyph glyph-name="Ydieresis" unicode="&#x178;" horiz-adv-x="686" 
d="M273 0v269l-266 401v10h156l180 -282l180 282h156v-10l-266 -400v-270h-140zM139 826q0 66 76 66q75 0 75 -66t-75 -66q-76 0 -76 66zM394 826q0 66 77 66q74 0 74 -66t-74 -66q-77 0 -77 66z" />
    <glyph glyph-name="Zacute" unicode="&#x179;" horiz-adv-x="654" 
d="M62 98l350 460h-350v122h530v-98l-348 -460h348v-122h-530v98zM482 898l-102 -152h-118l81 152h139z" />
    <glyph glyph-name="zacute" unicode="&#x17a;" horiz-adv-x="537" 
d="M55 98l253 315h-253v110h428v-98l-251 -315h251v-110h-428v98zM423 741l-102 -152h-118l81 152h139z" />
    <glyph glyph-name="Zdotaccent" unicode="&#x17b;" horiz-adv-x="654" 
d="M62 98l350 460h-350v122h530v-98l-348 -460h348v-122h-530v98zM253 828q0 69 82 69q80 0 80 -69q0 -70 -80 -70q-82 0 -82 70z" />
    <glyph glyph-name="zdotaccent" unicode="&#x17c;" horiz-adv-x="537" 
d="M55 98l253 315h-253v110h428v-98l-251 -315h251v-110h-428v98zM198 671q0 69 82 69q80 0 80 -69q0 -70 -80 -70q-82 0 -82 70z" />
    <glyph glyph-name="Zcaron" unicode="&#x17d;" horiz-adv-x="654" 
d="M62 98l350 460h-350v122h530v-98l-348 -460h348v-122h-530v98zM266 898l66 -83l66 83h105l-103 -152h-136l-104 152h106z" />
    <glyph glyph-name="zcaron" unicode="&#x17e;" horiz-adv-x="537" 
d="M55 98l253 315h-253v110h428v-98l-251 -315h251v-110h-428v98zM205 741l66 -83l66 83h105l-103 -152h-136l-104 152h106z" />
    <glyph glyph-name="florin" unicode="&#x192;" horiz-adv-x="473" 
d="M430 304h-131v-326q0 -76 -42 -126t-122 -50q-33 0 -71 9.5t-60 21.5l22 118q39 -26 75 -26q31 0 44.5 13t13.5 42v324h-131v85h131v156q0 76 42 125.5t122 49.5q71 0 131 -31l-21 -122q-45 30 -76 30q-58 0 -58 -60v-148h131v-85z" />
    <glyph glyph-name="Aringacute" unicode="&#x1fa;" horiz-adv-x="726" 
d="M12 0l269 675q-14 19 -14 47q0 39 28 61.5t70 22.5t70 -22.5t28 -61.5q0 -28 -14 -47l261 -675h-142l-52 136h-309l-53 -136h-142zM365 541l-122 -301h238zM472 907l-66 -83h-86l51 83h101zM324 722q0 -31 41 -31q40 0 40 31q0 30 -40 30q-41 0 -41 -30z" />
    <glyph glyph-name="aringacute" unicode="&#x1fb;" horiz-adv-x="713" 
d="M456 839l-66 -83h-86l51 83h101zM251 654q0 39 28 61.5t70 22.5t70 -22.5t28 -61.5t-28 -61.5t-70 -22.5t-70 22.5t-28 61.5zM308 654q0 -31 41 -31q40 0 40 31q0 30 -40 30q-41 0 -41 -30zM590 523v-362q0 -53 36 -53q23 0 53 16l6 -111q-50 -23 -114 -23q-89 0 -111 76
q-64 -75 -166 -75q-109 0 -177 75.5t-68 193.5q0 120 68 196t177 76q102 0 156 -54v45h140zM450 159v204q-19 20 -51 33.5t-66 13.5q-65 0 -103.5 -41t-38.5 -109q0 -66 39 -107t103 -41q66 0 117 47z" />
    <glyph glyph-name="AEacute" unicode="&#x1fc;" horiz-adv-x="1070" 
d="M473 0v136h-250l-79 -136h-149l393 680h623v-123h-404v-152h331v-113h-331v-170h404v-122h-538zM276 240h197v349zM834 898l-102 -152h-118l81 152h139z" />
    <glyph glyph-name="aeacute" unicode="&#x1fd;" horiz-adv-x="911" 
d="M851 217h-343q3 -59 36 -86.5t109 -27.5q79 0 150 53l53 -99q-87 -71 -216 -71q-142 0 -199 82q-96 -83 -216 -83q-86 0 -136 44.5t-50 116.5q0 85 66 135.5t189 50.5q42 0 72 -5q0 51 -18 70.5t-66 19.5q-97 0 -173 -37l-25 122q98 35 212 35q75 0 110 -23.5t53 -66.5
q59 90 174 90q116 0 172 -61t56 -157q0 -68 -10 -102zM631 421q-49 0 -79.5 -26.5t-32.5 -69.5h214q1 5 1 10q0 40 -26 63t-77 23zM179 159q0 -27 21 -41.5t57 -14.5q59 0 107 39v76q-30 6 -73 6q-112 0 -112 -65zM620 741l-102 -152h-118l81 152h139z" />
    <glyph glyph-name="Oslashacute" unicode="&#x1fe;" horiz-adv-x="814" 
d="M57 339q0 151 100 251t249 100q108 0 193 -55l37 45h100v-10l-72 -88q93 -99 93 -243q0 -149 -100 -249t-251 -100q-101 0 -183 48l-31 -38h-101v11l65 80q-99 99 -99 248zM192 339q0 -83 49 -143l273 335q-48 28 -108 28q-92 0 -153 -63t-61 -157zM620 339q0 77 -43 136
l-269 -332q44 -23 98 -23q93 0 153.5 63t60.5 156zM562 898l-102 -152h-118l81 152h139z" />
    <glyph glyph-name="oslashacute" unicode="&#x1ff;" horiz-adv-x="654" 
d="M46 260q0 119 79.5 198t200.5 79q91 0 161 -45l26 31h69v-11l-49 -59q75 -78 75 -193q0 -118 -79.5 -196t-202.5 -78q-80 0 -148 37l-19 -23h-71v11l41 49q-83 78 -83 200zM181 260q0 -56 33 -97l188 226q-34 20 -76 20q-64 0 -104.5 -42.5t-40.5 -106.5zM473 260
q0 51 -26 88l-184 -222q26 -13 63 -13q65 0 106 42t41 105zM482 741l-102 -152h-118l81 152h139z" />
    <glyph glyph-name="Scommaaccent" unicode="&#x218;" horiz-adv-x="642" 
d="M343 266l-129 35q-156 41 -156 182q0 90 69 148t203 58q70 0 136 -15.5t108 -38.5l-40 -131q-38 25 -96.5 41t-112.5 16q-122 0 -122 -66q0 -26 17.5 -40.5t56.5 -25.5l126 -36q94 -27 138.5 -71.5t44.5 -116.5q0 -96 -77 -155.5t-200 -59.5q-68 0 -134.5 18.5
t-105.5 40.5l33 133q98 -64 210 -64q60 0 94 21t34 55q0 26 -23.5 42t-73.5 30zM265 -255l24 65q-56 11 -56 63q0 32 20 50t52 18q85 0 85 -79q0 -65 -58 -141z" />
    <glyph glyph-name="scommaaccent" unicode="&#x219;" horiz-adv-x="525" 
d="M473 494l-37 -121q-82 42 -166 42q-80 0 -80 -43q0 -18 12.5 -26.5t44.5 -16.5l100 -25q67 -17 97 -53t30 -95q0 -77 -56 -121.5t-157 -44.5q-113 0 -203 45l26 119q92 -48 171 -48q80 0 80 40q0 15 -16 24t-50 17l-91 23q-129 33 -129 151q0 77 63 124t169 47
q49 0 104.5 -11.5t87.5 -26.5zM215 -255l24 65q-56 11 -56 63q0 32 20 50t52 18q85 0 85 -79q0 -65 -58 -141z" />
    <glyph glyph-name="uni021A" unicode="&#x21a;" horiz-adv-x="638" 
d="M609 540h-216v-540h-140v540h-224v140h580v-140zM268 -255l24 65q-56 11 -56 63q0 32 20 50t52 18q85 0 85 -79q0 -65 -58 -141z" />
    <glyph glyph-name="uni021B" unicode="&#x21b;" horiz-adv-x="507" 
d="M137 656h123v-133h191v-109h-191v-213q0 -89 71 -89q54 0 106 38l44 -108q-84 -52 -194 -52q-78 0 -122.5 47t-44.5 136v241h-93v109h93zM224 -255l24 65q-56 11 -56 63q0 32 20 50t52 18q85 0 85 -79q0 -65 -58 -141z" />
    <glyph glyph-name="dotlessj" unicode="&#x237;" horiz-adv-x="304" 
d="M82 523h140v-475q0 -167 -145 -245l-83 91q42 26 65 59.5t23 88.5v481z" />
    <glyph glyph-name="circumflex" unicode="&#x2c6;" 
d="M373 589l-66 84l-66 -84h-106l104 152h136l103 -152h-105z" />
    <glyph glyph-name="caron" unicode="&#x2c7;" 
d="M241 741l66 -83l66 83h105l-103 -152h-136l-104 152h106z" />
    <glyph glyph-name="breve" unicode="&#x2d8;" 
d="M160 673l35 55q37 -45 112 -45t111 45l36 -55q-47 -83 -146 -83q-52 0 -90 24t-58 59z" />
    <glyph glyph-name="dotaccent" unicode="&#x2d9;" 
d="M226 671q0 69 82 69q80 0 80 -69q0 -70 -80 -70q-82 0 -82 70z" />
    <glyph glyph-name="ring" unicode="&#x2da;" 
d="M209 630q0 40 28.5 69t69.5 29t69.5 -29t28.5 -69t-28.5 -69t-69.5 -29t-69.5 29t-28.5 69zM266 630q0 -17 12 -29t29 -12t28.5 12t11.5 29q0 16 -11.5 28t-28.5 12t-29 -11.5t-12 -28.5z" />
    <glyph glyph-name="ogonek" unicode="&#x2db;" 
d="M290 9l70 -9q-39 -1 -63 -20t-24 -49q0 -24 13.5 -37.5t38.5 -13.5q26 0 54 18l14 -60q-37 -23 -87 -23q-45 0 -72 26.5t-27 70.5q0 37 25.5 63.5t57.5 33.5z" />
    <glyph glyph-name="tilde" unicode="&#x2dc;" 
d="M161 600l-42 55q16 35 46.5 59.5t65.5 24.5q36 0 84.5 -29.5t67.5 -29.5q46 0 69 44l43 -54q-41 -85 -112 -85q-34 0 -83.5 29.5t-67.5 29.5q-43 0 -71 -44z" />
    <glyph glyph-name="hungarumlaut" unicode="&#x2dd;" 
d="M314 741l-103 -152h-117l81 152h139zM519 741l-102 -152h-117l81 152h138z" />
    <glyph glyph-name="uni0394" unicode="&#x394;" horiz-adv-x="758" 
d="M30 0l271 680h164l262 -680h-697zM382 541l-175 -437h344z" />
    <glyph glyph-name="uni03A9" unicode="&#x3a9;" horiz-adv-x="832" 
d="M468 0v112q73 30 117.5 89.5t44.5 137.5q0 95 -59 157.5t-156 62.5q-95 0 -154 -62.5t-59 -157.5q0 -80 42.5 -137.5t117.5 -89.5v-112h-277v109h116q-61 34 -98 102.5t-37 153.5q0 134 99 229.5t250 95.5q152 0 251.5 -95.5t99.5 -229.5q0 -84 -37 -152.5t-98 -103.5
h115v-109h-278z" />
    <glyph glyph-name="uni03BC" unicode="&#x3bc;" horiz-adv-x="666" 
d="M222 523v-267q0 -76 23 -107t83 -31q78 0 116 70v335h140v-523h-140v47q-58 -57 -168 -57q-30 0 -54 6v-184h-140v711h140z" />
    <glyph glyph-name="pi" unicode="&#x3c0;" horiz-adv-x="749" 
d="M30 523h674v-109h-115v-253q0 -53 36 -53q30 0 52 16l7 -111q-7 -6 -42.5 -14.5t-72.5 -8.5q-120 0 -120 138v286h-166v-414h-140v414h-113v109z" />
    <glyph glyph-name="Wgrave" unicode="&#x1e80;" horiz-adv-x="1104" 
d="M669 0l-115 291l-123 -291h-152l-263 680h151l200 -523l126 300l-84 223h152l182 -500l196 500h153l-271 -680h-152zM504 746l-102 152h139l81 -152h-118z" />
    <glyph glyph-name="wgrave" unicode="&#x1e81;" horiz-adv-x="1000" 
d="M453 523h140v-284q0 -121 95 -121q54 0 82.5 39t28.5 103q0 119 -63 263h149q54 -142 54 -275q0 -118 -64.5 -188t-177.5 -70q-69 0 -111 23.5t-67 73.5q-50 -97 -188 -97q-108 0 -163 60.5t-55 170.5v140q0 27 -7.5 40t-29.5 13q-32 0 -53 -16l-6 112q61 22 119 22
q117 0 117 -135v-155q0 -124 95 -124q49 0 77 33.5t28 95.5v276zM470 589l-102 152h139l81 -152h-118z" />
    <glyph glyph-name="Wacute" unicode="&#x1e82;" horiz-adv-x="1104" 
d="M669 0l-115 291l-123 -291h-152l-263 680h151l200 -523l126 300l-84 223h152l182 -500l196 500h153l-271 -680h-152zM704 898l-102 -152h-118l81 152h139z" />
    <glyph glyph-name="wacute" unicode="&#x1e83;" horiz-adv-x="1000" 
d="M453 523h140v-284q0 -121 95 -121q54 0 82.5 39t28.5 103q0 119 -63 263h149q54 -142 54 -275q0 -118 -64.5 -188t-177.5 -70q-69 0 -111 23.5t-67 73.5q-50 -97 -188 -97q-108 0 -163 60.5t-55 170.5v140q0 27 -7.5 40t-29.5 13q-32 0 -53 -16l-6 112q61 22 119 22
q117 0 117 -135v-155q0 -124 95 -124q49 0 77 33.5t28 95.5v276zM668 741l-102 -152h-118l81 152h139z" />
    <glyph glyph-name="Wdieresis" unicode="&#x1e84;" horiz-adv-x="1104" 
d="M669 0l-115 291l-123 -291h-152l-263 680h151l200 -523l126 300l-84 223h152l182 -500l196 500h153l-271 -680h-152zM349 826q0 66 76 66q75 0 75 -66t-75 -66q-76 0 -76 66zM604 826q0 66 77 66q74 0 74 -66t-74 -66q-77 0 -77 66z" />
    <glyph glyph-name="wdieresis" unicode="&#x1e85;" horiz-adv-x="1000" 
d="M453 523h140v-284q0 -121 95 -121q54 0 82.5 39t28.5 103q0 119 -63 263h149q54 -142 54 -275q0 -118 -64.5 -188t-177.5 -70q-69 0 -111 23.5t-67 73.5q-50 -97 -188 -97q-108 0 -163 60.5t-55 170.5v140q0 27 -7.5 40t-29.5 13q-32 0 -53 -16l-6 112q61 22 119 22
q117 0 117 -135v-155q0 -124 95 -124q49 0 77 33.5t28 95.5v276zM316 669q0 66 76 66q75 0 75 -66t-75 -66q-76 0 -76 66zM571 669q0 66 77 66q74 0 74 -66t-74 -66q-77 0 -77 66z" />
    <glyph glyph-name="Ygrave" unicode="&#x1ef2;" horiz-adv-x="686" 
d="M273 0v269l-266 401v10h156l180 -282l180 282h156v-10l-266 -400v-270h-140zM288 746l-102 152h139l81 -152h-118z" />
    <glyph glyph-name="ygrave" unicode="&#x1ef3;" horiz-adv-x="596" 
d="M7 523h155l144 -370l139 370h141l-217 -528q-41 -103 -89.5 -148t-132.5 -45q-66 0 -120 35l21 113q54 -30 99 -30q33 0 52 15.5t35 51.5l11 27zM252 589l-102 152h139l81 -152h-118z" />
    <glyph glyph-name="endash" unicode="&#x2013;" horiz-adv-x="642" 
d="M73 358h496v-110h-496v110z" />
    <glyph glyph-name="emdash" unicode="&#x2014;" horiz-adv-x="890" 
d="M73 358h744v-110h-744v110z" />
    <glyph glyph-name="quoteleft" unicode="&#x2018;" horiz-adv-x="287" 
d="M213 658l-43 -129q58 -15 58 -80q0 -41 -22.5 -64t-63.5 -23q-40 0 -63 23.5t-23 63.5q0 52 25 123t54 118z" />
    <glyph glyph-name="quoteright" unicode="&#x2019;" horiz-adv-x="284" 
d="M74 392l44 130q-57 14 -57 79q0 42 22 65t63 23t64 -24t23 -64q0 -51 -25.5 -121t-54.5 -119z" />
    <glyph glyph-name="quotesinglbase" unicode="&#x201a;" horiz-adv-x="293" 
d="M73 -141l44 130q-57 14 -57 79q0 42 22 65t63 23t64 -24t23 -64q0 -51 -25.5 -121t-54.5 -119z" />
    <glyph glyph-name="quotedblleft" unicode="&#x201c;" horiz-adv-x="486" 
d="M414 663l-40 -121q52 -12 52 -70q0 -37 -19.5 -57.5t-55.5 -20.5t-56.5 21t-20.5 57q0 46 23.5 111t48.5 107zM197 663l-40 -121q52 -12 52 -70q0 -37 -19.5 -57.5t-56.5 -20.5q-36 0 -56 21t-20 57q0 46 23.5 111t48.5 107z" />
    <glyph glyph-name="quotedblright" unicode="&#x201d;" horiz-adv-x="482" 
d="M72 421l40 120q-52 12 -52 71q0 37 19.5 57t56.5 20q36 0 56 -21t20 -56q0 -47 -23 -112t-48 -107zM290 421l39 120q-52 12 -52 71q0 37 20 57t56 20t56.5 -21t20.5 -56q0 -47 -23 -112t-49 -107z" />
    <glyph glyph-name="quotedblbase" unicode="&#x201e;" horiz-adv-x="491" 
d="M73 -145l40 121q-52 10 -52 70q0 37 19.5 57.5t55.5 20.5t56.5 -21t20.5 -57q0 -47 -23 -111.5t-49 -106.5zM290 -145l40 121q-52 10 -52 70q0 37 19.5 57.5t56.5 20.5q36 0 56 -21t20 -57q0 -47 -23 -111.5t-49 -106.5z" />
    <glyph glyph-name="dagger" unicode="&#x2020;" horiz-adv-x="604" 
d="M571 349h-214v-537h-110v537h-214v110h214v251h110v-251h214v-110z" />
    <glyph glyph-name="daggerdbl" unicode="&#x2021;" horiz-adv-x="650" 
d="M594 49h-214v-237h-110v237h-214v110h214v190h-214v110h214v251h110v-251h214v-110h-214v-190h214v-110z" />
    <glyph glyph-name="bullet" unicode="&#x2022;" horiz-adv-x="365" 
d="M61 302q0 59 31.5 91.5t89.5 32.5t90 -32.5t32 -91.5q0 -60 -32 -92t-90 -32t-89.5 32t-31.5 92z" />
    <glyph glyph-name="ellipsis" unicode="&#x2026;" horiz-adv-x="803" 
d="M61 63q0 38 21 58.5t59 20.5t59.5 -21t21.5 -58q0 -38 -21.5 -58t-59.5 -20q-80 0 -80 78zM321 63q0 38 21 58.5t59 20.5t59.5 -21t21.5 -58q0 -38 -21.5 -58t-59.5 -20q-80 0 -80 78zM581 63q0 38 21 58.5t59 20.5t59.5 -21t21.5 -58q0 -38 -21.5 -58t-59.5 -20
q-80 0 -80 78z" />
    <glyph glyph-name="perthousand" unicode="&#x2030;" horiz-adv-x="1304" 
d="M896 171q0 78 52.5 130.5t133.5 52.5q80 0 132.5 -52.5t52.5 -130.5t-52.5 -129.5t-132.5 -51.5q-81 0 -133.5 51.5t-52.5 129.5zM1003 171q0 -34 22 -56.5t57 -22.5q34 0 55.5 22.5t21.5 56.5t-21.5 57t-55.5 23q-35 0 -57 -23t-22 -57zM488 171q0 78 52.5 130.5
t132.5 52.5q81 0 133.5 -52.5t52.5 -130.5t-52.5 -129.5t-133.5 -51.5q-80 0 -132.5 51.5t-52.5 129.5zM595 171q0 -33 22 -56t56 -23t56 23t22 56q0 34 -22 57t-56 23t-56 -23t-22 -57zM212 11l349 669h120v-10l-348 -670h-121v11zM37 507q0 78 52.5 130.5t132.5 52.5
q81 0 133.5 -52.5t52.5 -130.5t-52.5 -129.5t-133.5 -51.5q-80 0 -132.5 51.5t-52.5 129.5zM144 507q0 -33 22 -56t56 -23t56 23t22 56q0 34 -22 57t-56 23t-56 -23t-22 -57z" />
    <glyph glyph-name="guilsinglleft" unicode="&#x2039;" horiz-adv-x="330" 
d="M48 288v27l162 205h10l51 -27l-106 -191l106 -191l-51 -27h-10z" />
    <glyph glyph-name="guilsinglright" unicode="&#x203a;" horiz-adv-x="330" 
d="M282 315v-27l-161 -204h-11l-50 26l105 192l-106 190l51 28h11z" />
    <glyph glyph-name="fraction" unicode="&#x2044;" horiz-adv-x="180" 
d="M-134 11l369 669h80v-10l-368 -670h-81v11z" />
    <glyph glyph-name="zerosuperior" unicode="&#x2070;" horiz-adv-x="379" 
d="M40 615q0 82 38 128.5t111 46.5q74 0 112 -46.5t38 -128.5q0 -81 -38.5 -127.5t-111.5 -46.5t-111 46.5t-38 127.5zM115 615q0 -102 74 -102t74 102q0 104 -74 104t-74 -104z" />
    <glyph glyph-name="foursuperior" unicode="&#x2074;" horiz-adv-x="368" 
d="M341 507h-57v-61h-78v61h-183v51l157 226h104v-219h57v-58zM101 565h105v152z" />
    <glyph glyph-name="fivesuperior" unicode="&#x2075;" horiz-adv-x="334" 
d="M53 597l-3 3l15 184h220v-67h-154l-6 -63h30q141 0 141 -96q0 -58 -39.5 -87.5t-107.5 -29.5q-61 0 -118 22l20 64q43 -20 93 -20q33 0 53 12.5t20 36.5q0 41 -67 41h-97z" />
    <glyph glyph-name="sixsuperior" unicode="&#x2076;" horiz-adv-x="365" 
d="M205 724q-81 0 -88 -90q37 35 89 35q60 0 92 -28t32 -79q0 -55 -37.5 -88t-97.5 -33q-74 0 -115 47.5t-41 127.5t41 127t116 47q66 0 119 -25l-21 -64q-41 23 -89 23zM194 611q-38 0 -75 -28q14 -71 76 -71q26 0 42 14.5t16 35.5q0 49 -59 49z" />
    <glyph glyph-name="sevensuperior" unicode="&#x2077;" horiz-adv-x="302" 
d="M61 453l133 264h-168v67h255v-53l-135 -285h-85v7z" />
    <glyph glyph-name="eightsuperior" unicode="&#x2078;" horiz-adv-x="370" 
d="M185 441q-71 0 -108.5 26.5t-37.5 71.5q0 69 75 84q-29 6 -46 26.5t-17 45.5q0 95 134 95t134 -95q0 -25 -17 -45.5t-46 -26.5q75 -15 75 -84q0 -45 -37.5 -71.5t-108.5 -26.5zM185 595q-33 0 -50 -12.5t-17 -31.5q0 -21 18.5 -34.5t48.5 -13.5t48.5 13.5t18.5 34.5
q0 19 -17 31.5t-50 12.5zM185 728q-26 0 -41.5 -10.5t-15.5 -29.5q0 -17 14.5 -29t42.5 -12q29 0 43 12t14 29q0 40 -57 40z" />
    <glyph glyph-name="ninesuperior" unicode="&#x2079;" horiz-adv-x="365" 
d="M160 507q80 0 87 89q-38 -34 -88 -34q-60 0 -92 27.5t-32 78.5q0 55 38 88.5t97 33.5q74 0 115 -47.5t41 -127.5q0 -79 -41.5 -126.5t-115.5 -47.5q-68 0 -118 25l21 64q39 -23 88 -23zM170 620q40 0 75 28q-12 71 -75 71q-26 0 -41.5 -14.5t-15.5 -36.5q0 -48 57 -48z
" />
    <glyph glyph-name="zeroinferior" unicode="&#x2080;" horiz-adv-x="379" 
d="M40 69q0 82 38 128.5t111 46.5q74 0 112 -46.5t38 -128.5q0 -81 -38.5 -127.5t-111.5 -46.5t-111 46.5t-38 127.5zM115 69q0 -102 74 -102t74 102q0 104 -74 104t-74 -104z" />
    <glyph glyph-name="oneinferior" unicode="&#x2081;" horiz-adv-x="278" 
d="M13 157l148 81h57v-338h-78v250l-96 -51z" />
    <glyph glyph-name="twoinferior" unicode="&#x2082;" horiz-adv-x="348" 
d="M47 -100v58l129 97q46 33 46 71q0 20 -13 33.5t-38 13.5q-31 0 -47 -17.5t-16 -47.5l-71 13q2 57 37.5 90t97.5 33q64 0 97 -32t33 -86q0 -66 -72 -116l-59 -42h140v-68h-264z" />
    <glyph glyph-name="threeinferior" unicode="&#x2083;" horiz-adv-x="337" 
d="M77 106h78q25 0 39 9.5t14 25.5q0 36 -59 36q-51 0 -97 -19l-17 66q53 20 114 20q67 0 102.5 -24.5t35.5 -70.5q0 -25 -16.5 -45t-44.5 -27q72 -16 72 -84q0 -45 -38 -71.5t-111 -26.5q-54 0 -114 20l20 65q43 -19 94 -19q32 0 50.5 12t18.5 32q0 35 -63 35h-78v66z" />
    <glyph glyph-name="fourinferior" unicode="&#x2084;" horiz-adv-x="369" 
d="M341 -39h-57v-61h-78v61h-183v51l157 226l26 -1v1h78v-219h57v-58zM101 19h105v151z" />
    <glyph glyph-name="fiveinferior" unicode="&#x2085;" horiz-adv-x="335" 
d="M54 51l-4 3l16 184h220v-67h-155l-5 -63h29q142 0 142 -96q0 -58 -39.5 -87.5t-107.5 -29.5q-65 0 -118 22l19 64q45 -20 94 -20q72 0 72 49q0 41 -66 41h-97z" />
    <glyph glyph-name="sixinferior" unicode="&#x2086;" horiz-adv-x="365" 
d="M205 178q-81 0 -88 -90q37 35 89 35q60 0 92 -28t32 -79q0 -55 -37.5 -88t-97.5 -33q-74 0 -115 47.5t-41 127.5t41 127t116 47q66 0 119 -25l-21 -64q-41 23 -89 23zM194 65q-38 0 -75 -28q14 -71 76 -71q26 0 42 14.5t16 35.5q0 49 -59 49z" />
    <glyph glyph-name="seveninferior" unicode="&#x2087;" horiz-adv-x="301" 
d="M61 -93l133 264h-168v67h255v-53l-135 -285h-85v7z" />
    <glyph glyph-name="eightinferior" unicode="&#x2088;" horiz-adv-x="370" 
d="M185 -105q-71 0 -108.5 26.5t-37.5 71.5q0 69 75 84q-29 6 -46 26.5t-17 45.5q0 95 134 95t134 -95q0 -25 -17 -45.5t-46 -26.5q75 -15 75 -84q0 -45 -37.5 -71.5t-108.5 -26.5zM185 49q-33 0 -50 -12.5t-17 -31.5q0 -21 18.5 -34.5t48.5 -13.5t48.5 13.5t18.5 34.5
q0 19 -17 31.5t-50 12.5zM185 182q-26 0 -41.5 -10.5t-15.5 -29.5q0 -17 14.5 -29t42.5 -12q29 0 43 12t14 29q0 40 -57 40z" />
    <glyph glyph-name="nineinferior" unicode="&#x2089;" horiz-adv-x="365" 
d="M160 -39q80 0 87 89q-38 -34 -88 -34q-60 0 -92 27.5t-32 78.5q0 55 38 88.5t97 33.5q74 0 115 -47.5t41 -127.5q0 -79 -41.5 -126.5t-115.5 -47.5q-68 0 -118 25l21 64q39 -23 88 -23zM170 74q40 0 75 28q-12 71 -75 71q-26 0 -41.5 -14.5t-15.5 -36.5q0 -48 57 -48z
" />
    <glyph glyph-name="Euro" unicode="&#x20ac;" 
d="M559 607l-50 -104q-59 59 -133 59q-110 0 -140 -121h245l-38 -84h-218v-18q0 -21 1 -31h197l-33 -84h-151q32 -106 133 -106q74 0 141 51l52 -115q-89 -64 -204 -64q-105 0 -175 60.5t-93 173.5h-58v84h48q-1 10 -1 31v18h-47v84h55q22 120 93 184.5t181 64.5
q107 0 195 -83z" />
    <glyph glyph-name="afii61289" unicode="&#x2113;" horiz-adv-x="429" 
d="M66 123l-30 53l75 52v261q0 100 42 150t117 50q124 0 124 -139q0 -103 -48 -192t-118 -149v-43q0 -44 15.5 -60.5t47.5 -16.5q31 0 66 21l-5 -102q-41 -18 -109 -18q-132 0 -132 134v30zM228 507v-219q99 97 99 265q0 67 -45 67q-54 0 -54 -113z" />
    <glyph glyph-name="uni2117" unicode="&#x2117;" horiz-adv-x="822" 
d="M61 339q0 151 100 251t249 100q151 0 251 -100t100 -251q0 -149 -100 -249t-251 -100q-149 0 -249 100t-100 249zM139 339q0 -118 77 -196t194 -78q118 0 195 78t77 196q0 119 -77 197.5t-195 78.5q-117 0 -194 -78.5t-77 -197.5zM296 169v340h169q54 0 89.5 -32.5
t35.5 -93.5q0 -57 -36.5 -90.5t-88.5 -33.5h-66v-90h-103zM451 424h-52v-80h52q16 0 27 11t11 29t-11 29t-27 11z" />
    <glyph glyph-name="trademark" unicode="&#x2122;" horiz-adv-x="851" 
d="M683 357v187l-92 -112h-14l-92 112v-187h-76v306h64l111 -131l111 131h64v-306h-76zM335 587h-92v-230h-76v230h-93v76h261v-76z" />
    <glyph glyph-name="Omega" unicode="&#x2126;" horiz-adv-x="832" 
d="M468 0v112q73 30 117.5 89.5t44.5 137.5q0 95 -59 157.5t-156 62.5q-95 0 -154 -62.5t-59 -157.5q0 -80 42.5 -137.5t117.5 -89.5v-112h-277v109h116q-61 34 -98 102.5t-37 153.5q0 134 99 229.5t250 95.5q152 0 251.5 -95.5t99.5 -229.5q0 -84 -37 -152.5t-98 -103.5
h115v-109h-278z" />
    <glyph glyph-name="estimated" unicode="&#x212e;" horiz-adv-x="679" 
d="M345 601q71 0 126 -25.5t87.5 -69.5t49 -98t16.5 -114v-26h-431v-169q58 -58 152 -58q130 0 184 104h66q-30 -73 -93 -115t-157 -42q-93 0 -157.5 45t-92.5 112.5t-28 148.5q0 82 28 149.5t92.5 112.5t157.5 45zM345 548q-96 0 -152 -58v-170h305v170q-56 58 -153 58z
" />
    <glyph glyph-name="onethird" unicode="&#x2153;" horiz-adv-x="815" 
d="M147 11l369 669h80v-10l-368 -670h-81v11zM31 599l147 81h57v-338h-78v250l-96 -51zM545 203h78q25 0 39 9.5t14 25.5q0 36 -59 36q-51 0 -97 -19l-17 66q53 20 114 20q67 0 102.5 -24.5t35.5 -70.5q0 -25 -16.5 -45t-44.5 -27q72 -16 72 -84q0 -45 -38 -71.5t-111 -26.5
q-54 0 -114 20l20 65q43 -19 94 -19q32 0 50.5 12t18.5 32q0 35 -63 35h-78v66z" />
    <glyph glyph-name="twothirds" unicode="&#x2154;" horiz-adv-x="870" 
d="M209 11l369 669h80v-10l-368 -670h-81v11zM607 203h78q25 0 39 9.5t14 25.5q0 36 -59 36q-51 0 -97 -19l-17 66q53 20 114 20q67 0 102.5 -24.5t35.5 -70.5q0 -25 -16.5 -45t-44.5 -27q72 -16 72 -84q0 -45 -38 -71.5t-111 -26.5q-54 0 -114 20l20 65q43 -19 94 -19
q32 0 50.5 12t18.5 32q0 35 -63 35h-78v66zM321 346h-264v58l129 97q46 33 46 71q0 20 -13 33.5t-38 13.5q-31 0 -47 -17.5t-16 -47.5l-71 13q2 57 37.5 90t97.5 33q64 0 97 -32t33 -86q0 -66 -72 -116l-59 -42h140v-68z" />
    <glyph glyph-name="oneeighth" unicode="&#x215b;" horiz-adv-x="815" 
d="M147 11l369 669h80v-10l-368 -670h-81v11zM620 -5q-71 0 -108.5 26.5t-37.5 71.5q0 69 75 84q-29 6 -46 26.5t-17 45.5q0 95 134 95t134 -95q0 -25 -17 -45.5t-46 -26.5q75 -15 75 -84q0 -45 -37.5 -71.5t-108.5 -26.5zM620 149q-33 0 -50 -12.5t-17 -31.5
q0 -21 18.5 -34.5t48.5 -13.5t48.5 13.5t18.5 34.5q0 19 -17 31.5t-50 12.5zM620 282q-26 0 -41.5 -10.5t-15.5 -29.5q0 -17 14.5 -29t42.5 -12q29 0 43 12t14 29q0 40 -57 40zM31 603l147 81h57v-338h-78v250l-96 -51z" />
    <glyph glyph-name="threeeighths" unicode="&#x215c;" horiz-adv-x="856" 
d="M195 11l369 669h80v-10l-368 -670h-81v11zM668 -5q-71 0 -108.5 26.5t-37.5 71.5q0 69 75 84q-29 6 -46 26.5t-17 45.5q0 95 134 95t134 -95q0 -25 -17 -45.5t-46 -26.5q75 -15 75 -84q0 -45 -37.5 -71.5t-108.5 -26.5zM668 149q-33 0 -50 -12.5t-17 -31.5
q0 -21 18.5 -34.5t48.5 -13.5t48.5 13.5t18.5 34.5q0 19 -17 31.5t-50 12.5zM668 282q-26 0 -41.5 -10.5t-15.5 -29.5q0 -17 14.5 -29t42.5 -12q29 0 43 12t14 29q0 40 -57 40zM88 552h78q25 0 39 9.5t14 25.5q0 36 -59 36q-51 0 -97 -19l-17 66q52 20 114 20
q67 0 102.5 -24.5t35.5 -70.5q0 -25 -16.5 -45t-44.5 -27q72 -16 72 -84q0 -45 -38 -71.5t-111 -26.5q-54 0 -114 20l20 65q43 -19 94 -19q32 0 50.5 12t18.5 32q0 35 -63 35h-78v66z" />
    <glyph glyph-name="fiveeighths" unicode="&#x215d;" horiz-adv-x="853" 
d="M665 -5q-71 0 -108.5 26.5t-37.5 71.5q0 69 75 84q-29 6 -46 26.5t-17 45.5q0 95 134 95t134 -95q0 -25 -17 -45.5t-46 -26.5q75 -15 75 -84q0 -45 -37.5 -71.5t-108.5 -26.5zM192 11l369 669h80v-10l-368 -670h-81v11zM64 497l-3 3l15 184h220v-67h-154l-6 -63h30
q141 0 141 -96q0 -58 -39.5 -87.5t-107.5 -29.5q-61 0 -118 22l20 64q43 -20 93 -20q33 0 53 12.5t20 36.5q0 41 -67 41h-97zM665 149q-33 0 -50 -12.5t-17 -31.5q0 -21 18.5 -34.5t48.5 -13.5t48.5 13.5t18.5 34.5q0 19 -17 31.5t-50 12.5zM665 282q-26 0 -41.5 -10.5
t-15.5 -29.5q0 -17 14.5 -29t42.5 -12q29 0 43 12t14 29q0 40 -57 40z" />
    <glyph glyph-name="seveneighths" unicode="&#x215e;" horiz-adv-x="806" 
d="M144 11l369 669h80v-10l-368 -670h-81v11zM617 -5q-71 0 -108.5 26.5t-37.5 71.5q0 69 75 84q-29 6 -46 26.5t-17 45.5q0 95 134 95t134 -95q0 -25 -17 -45.5t-46 -26.5q75 -15 75 -84q0 -45 -37.5 -71.5t-108.5 -26.5zM617 149q-33 0 -50 -12.5t-17 -31.5
q0 -21 18.5 -34.5t48.5 -13.5t48.5 13.5t18.5 34.5q0 19 -17 31.5t-50 12.5zM617 282q-26 0 -41.5 -10.5t-15.5 -29.5q0 -17 14.5 -29t42.5 -12q29 0 43 12t14 29q0 40 -57 40zM72 353l133 264h-168v67h255v-53l-135 -285h-85v7z" />
    <glyph glyph-name="arrowleft" unicode="&#x2190;" horiz-adv-x="718" 
d="M242 348h412v-101h-411l147 -142l-67 -70l-259 264l257 260l69 -72z" />
    <glyph glyph-name="arrowup" unicode="&#x2191;" horiz-adv-x="718" 
d="M409 413v-411h-101v410l-142 -147l-69 67l263 259l260 -257l-72 -69z" />
    <glyph glyph-name="arrowright" unicode="&#x2192;" horiz-adv-x="718" 
d="M476 246h-412v101h411l-148 142l68 70l259 -264l-257 -260l-70 72z" />
    <glyph glyph-name="arrowdown" unicode="&#x2193;" horiz-adv-x="718" 
d="M307 179v412h102v-410l141 147l70 -67l-264 -259l-259 257l71 69z" />
    <glyph glyph-name="uni2196" unicode="&#x2196;" horiz-adv-x="718" 
d="M312 416l291 -292l-71 -71l-291 290l5 -204l-98 -2l3 370l366 2l-1 -100z" />
    <glyph glyph-name="uni2197" unicode="&#x2197;" horiz-adv-x="718" 
d="M477 343l-291 -291l-72 71l290 291l-204 -4q0 16 -0.5 48.5t-0.5 48.5l369 -3l2 -366l-99 2z" />
    <glyph glyph-name="uni2198" unicode="&#x2198;" horiz-adv-x="718" 
d="M406 178l-291 291l71 72l290 -290l-4 204l97 2l-3 -370l-366 -2l2 100z" />
    <glyph glyph-name="uni2199" unicode="&#x2199;" horiz-adv-x="718" 
d="M239 250l292 290l72 -70l-291 -291l204 4l2 -97l-370 3l-2 366l100 -2z" />
    <glyph glyph-name="partialdiff" unicode="&#x2202;" horiz-adv-x="622" 
d="M252 453q93 0 165 -66q-13 93 -72.5 156t-132.5 89l55 88q120 -24 207 -127.5t87 -251.5q0 -161 -73.5 -256t-206.5 -95q-106 0 -173.5 66.5t-67.5 176.5q0 97 57 158.5t155 61.5zM286 118q109 0 131 153q-63 68 -132 68q-49 0 -77.5 -27.5t-28.5 -79.5q0 -48 29 -81
t78 -33z" />
    <glyph glyph-name="Delta" unicode="&#x2206;" horiz-adv-x="758" 
d="M30 0l271 680h164l262 -680h-697zM382 541l-175 -437h344z" />
    <glyph glyph-name="product" unicode="&#x220f;" horiz-adv-x="742" 
d="M231 -188h-133v868h546v-868h-133v745h-280v-745z" />
    <glyph glyph-name="summation" unicode="&#x2211;" horiz-adv-x="569" 
d="M63 0v75l184 266l-186 267v72h444v-110h-276l155 -230l-153 -230h274v-110h-442z" />
    <glyph glyph-name="minus" unicode="&#x2212;" 
d="M61 358h478v-110h-478v110z" />
    <glyph glyph-name="uni2215" unicode="&#x2215;" horiz-adv-x="180" 
d="M-134 11l369 669h80v-10l-368 -670h-81v11z" />
    <glyph glyph-name="uni2219" unicode="&#x2219;" horiz-adv-x="307" 
d="M67 295q0 41 22.5 63t63.5 22t64 -22.5t23 -62.5t-23 -62t-64 -22t-63.5 22t-22.5 62z" />
    <glyph glyph-name="radical" unicode="&#x221a;" horiz-adv-x="654" 
d="M214 472l157 -317l177 554l76 -25l-222 -684h-90l-159 320l-93 -46l-47 92z" />
    <glyph glyph-name="infinity" unicode="&#x221e;" horiz-adv-x="826" 
d="M169 300q0 -35 19.5 -54t50.5 -19q25 0 67 37l40 36l-40 36q-40 37 -67 37q-31 0 -50.5 -19t-19.5 -54zM413 236l-43 -38q-41 -36 -73 -52.5t-74 -16.5q-65 0 -110.5 46.5t-45.5 124.5t45 125t111 47q42 0 75 -17t72 -52l42 -38l44 38q41 36 73 52.5t74 16.5
q66 0 111 -47t45 -125t-45.5 -124.5t-110.5 -46.5q-42 0 -73.5 16.5t-73.5 52.5zM655 300q0 35 -19.5 54t-49.5 19q-27 0 -67 -37l-40 -36l40 -36q42 -37 67 -37q30 0 49.5 19t19.5 54z" />
    <glyph glyph-name="integral" unicode="&#x222b;" horiz-adv-x="466" 
d="M163 -20v565q0 76 42 125.5t122 49.5q71 0 131 -31l-21 -122q-45 30 -76 30q-58 0 -58 -60v-559q0 -76 -42 -126t-122 -50q-33 0 -71 9.5t-60 21.5l22 118q39 -26 75 -26q31 0 44.5 13t13.5 42z" />
    <glyph glyph-name="approxequal" unicode="&#x2248;" 
d="M512 500l33 -85q-44 -66 -127 -66q-41 0 -120 26t-112 26q-65 0 -99 -40l-31 89q42 63 124 63q45 0 126.5 -26t107.5 -26q63 0 98 39zM511 233l33 -85q-45 -66 -127 -66q-41 0 -120.5 26t-112.5 26q-65 0 -98 -40l-32 89q43 63 125 63q45 0 126 -26t107 -26q64 0 99 39z
" />
    <glyph glyph-name="notequal" unicode="&#x2260;" 
d="M152 37l25 71h-116v110h156l61 169h-217v110h257l40 109l82 -28l-30 -81h129v-110h-168l-62 -169h230v-110h-270l-35 -98z" />
    <glyph glyph-name="lessequal" unicode="&#x2264;" 
d="M60 162h478v-110h-478v110zM60 361v108l469 158h10v-101l-350 -109l350 -108v-102h-10z" />
    <glyph glyph-name="greaterequal" unicode="&#x2265;" 
d="M61 162h478v-110h-478v110zM539 469v-108l-468 -154h-10v102l349 108l-349 109v101h10z" />
    <glyph glyph-name="lozenge" unicode="&#x25ca;" horiz-adv-x="581" 
d="M544 332l-210 -332h-88l-209 332l209 348h88zM426 331l-136 226l-135 -226l135 -213z" />
    <glyph glyph-name="uniF8FF" unicode="&#xf8ff;" horiz-adv-x="612" 
d="M50 720h512v-720h-512v720zM266 283h48q0 26 14 47t34 36t40 29.5t34 36t14 48.5q0 51 -36.5 85t-101.5 34q-39 0 -67 -14.5t-41.5 -37t-19 -43.5t-5.5 -41h47q0 40 21 66.5t65 26.5q41 0 64 -21.5t23 -54.5q0 -23 -21 -45t-45.5 -38t-45.5 -46t-21 -68zM255 194v-71h68
v71h-68z" />
    <glyph glyph-name="fi" unicode="&#xfb01;" horiz-adv-x="810" 
d="M36 389v109h96v36q0 81 45 133.5t135 52.5q75 0 135 -30l-31 -121q-42 28 -88 28q-56 0 -56 -64v-35h157v-109h-157v-389h-140v389h-96zM685 523v-362q0 -53 36 -53q30 0 52 16l7 -111q-7 -6 -42.5 -14.5t-72.5 -8.5q-120 0 -120 138v395h140zM534 671q0 69 82 69
q80 0 80 -69q0 -70 -80 -70q-82 0 -82 70z" />
    <glyph glyph-name="fl" unicode="&#xfb02;" horiz-adv-x="808" 
d="M36 389v109h96v36q0 81 45 133.5t135 52.5q75 0 135 -30l-31 -121q-42 28 -88 28q-56 0 -56 -64v-35h157v-109h-157v-389h-140v389h-96zM540 710h140v-545q0 -57 43 -57q24 0 56 16l7 -111q-55 -23 -118 -23q-128 0 -128 141v579z" />
    <glyph glyph-name="Imacron" horiz-adv-x="338" 
d="M99 0v680h140v-680h-140zM296 767h-255v96h255v-96z" />
    <glyph glyph-name="ibreve" horiz-adv-x="345" 
d="M80 523h140v-362q0 -53 36 -53q30 0 52 16l7 -111q-7 -6 -42.5 -14.5t-72.5 -8.5q-120 0 -120 138v395zM4 673l35 55q37 -45 112 -45t111 45l36 -55q-47 -83 -146 -83q-52 0 -90 24t-58 59z" />
    <glyph glyph-name="commaaccent" 
d="M255 -255l24 65q-56 11 -56 63q0 32 20 50t52 18q85 0 85 -79q0 -65 -58 -141z" />
    <glyph glyph-name="commaaccent.alt" 
d="M343 761l-24 -65q57 -10 57 -63q0 -32 -20.5 -50t-52.5 -18q-85 0 -85 79q0 67 58 141z" />
    <glyph glyph-name="zero.tf" 
d="M33 339q0 164 68 257.5t197 93.5q131 0 199.5 -93.5t68.5 -257.5q0 -162 -68.5 -255.5t-199.5 -93.5q-129 0 -197 93.5t-68 255.5zM169 339q0 -220 129 -220q131 0 131 220q0 223 -131 223q-129 0 -129 -223z" />
    <glyph glyph-name="one.tf" 
d="M557 0h-504v122h203v405l-166 -79l-47 112l249 120h104v-558h161v-122z" />
    <glyph glyph-name="two.tf" 
d="M555 0h-493v105l245 199q87 72 87 152q0 46 -25.5 76t-74.5 30q-60 0 -91 -38t-32 -101l-126 24q2 112 68.5 177.5t182.5 65.5q119 0 180.5 -61.5t61.5 -160.5q0 -70 -25.5 -125.5t-93.5 -107.5l-147 -113h283v-122z" />
    <glyph glyph-name="three.tf" 
d="M134 409h148q55 0 82.5 21.5t27.5 58.5q0 40 -33.5 60.5t-91.5 20.5q-102 0 -193 -41l-32 119q106 42 223 42q133 0 201 -48t68 -139q0 -53 -34 -94.5t-91 -53.5q70 -15 109.5 -57.5t39.5 -111.5q0 -91 -75 -143.5t-218 -52.5q-99 0 -222 42l34 117q91 -40 188 -40
q69 0 109 26t40 72q0 43 -32 62.5t-100 19.5h-148v120z" />
    <glyph glyph-name="four.tf" 
d="M571 128h-77v-128h-140v128h-326v92l279 460h187v-448h77v-104zM165 232h189v315z" />
    <glyph glyph-name="five.tf" 
d="M88 313l-6 6l30 361h421v-122h-304l-11 -142h65q271 0 271 -193q0 -116 -76.5 -174.5t-205.5 -58.5q-117 0 -226 45l35 116q87 -42 184 -42q65 0 105.5 27.5t40.5 83.5q0 93 -137 93h-186z" />
    <glyph glyph-name="six.tf" 
d="M532 637l-38 -114q-71 48 -157 48q-139 0 -156 -176q68 58 158 58q106 0 163.5 -58t57.5 -162q0 -110 -67.5 -176.5t-173.5 -66.5q-133 0 -206.5 95t-73.5 256q0 159 73.5 254t208.5 95q64 0 121.5 -17t89.5 -36zM313 339q-65 0 -130 -67q22 -154 130 -154q49 0 78.5 33
t29.5 82q0 53 -28.5 79.5t-79.5 26.5z" />
    <glyph glyph-name="seven.tf" 
d="M124 13l271 545h-347v122h503v-98l-273 -582h-154v13z" />
    <glyph glyph-name="eight.tf" 
d="M300 -10q-127 0 -195 52.5t-68 143.5q0 142 125 169q-50 11 -77 52t-27 96q0 91 62 139t180 48t180 -48t62 -139q0 -55 -26.5 -96t-76.5 -52q124 -27 124 -169q0 -91 -68 -143.5t-195 -52.5zM301 288q-61 0 -91.5 -23.5t-30.5 -63.5q0 -43 32.5 -68t88.5 -25t88.5 25
t32.5 68q0 40 -29.5 63.5t-90.5 23.5zM300 575q-103 0 -103 -80q0 -36 25.5 -57.5t78.5 -21.5q52 0 77 22t25 57q0 80 -103 80z" />
    <glyph glyph-name="nine.tf" 
d="M262 109q138 0 155 176q-66 -58 -157 -58q-107 0 -164 58t-57 162q0 110 67 176.5t174 66.5q133 0 206.5 -95t73.5 -256q0 -159 -73.5 -254t-207.5 -95q-65 0 -123 17t-90 36l38 114q73 -48 158 -48zM287 341q68 0 128 67q-10 71 -43 112.5t-86 41.5q-47 0 -77.5 -33
t-30.5 -82q0 -52 29.5 -79t79.5 -27z" />
    <glyph glyph-name="Euro.tf" 
d="M559 607l-50 -104q-59 59 -133 59q-110 0 -140 -121h245l-38 -84h-218v-18q0 -21 1 -31h197l-33 -84h-151q32 -106 133 -106q74 0 141 51l52 -115q-89 -64 -204 -64q-105 0 -175 60.5t-93 173.5h-58v84h48q-1 10 -1 31v18h-47v84h55q22 120 93 184.5t181 64.5
q107 0 195 -83z" />
    <glyph glyph-name="cent.tf" 
d="M498 164l52 -106q-92 -72 -222 -72q-20 0 -54 4l-35 -127l-82 22l34 125q-74 31 -110.5 96t-36.5 154q0 121 76 199t200 78q3 0 8.5 -0.5t8.5 -0.5l31 112l83 -22l-29 -105q63 -21 97 -70.5t37 -118.5l-113 -24q-5 72 -53 100l-84 -303q20 -2 34 -2q81 0 158 61zM176 265
q0 -85 51 -127l79 286q-60 -5 -95 -48.5t-35 -110.5z" />
    <glyph glyph-name="sterling.tf" 
d="M464 304h-178q11 -70 11 -111q0 -13 -2 -35q6 -4 22 -14.5t27 -17t26 -12.5t26 -6q35 0 48.5 23.5t13.5 73.5v21h110q2 -28 2 -45q0 -89 -36 -140t-111 -51q-21 0 -44.5 9.5t-36 17.5t-41.5 29.5t-35 25.5q-23 -41 -52.5 -61.5t-79.5 -20.5t-78 30.5t-28 78.5
q0 46 29 74.5t75 28.5q24 0 47 -9q0 38 -20 111h-97v85h76q-11 52 -11 104q0 87 54 142t159 55q61 0 119.5 -24.5t88.5 -50.5l-41 -120q-24 21 -35.5 30.5t-42 23t-61.5 13.5q-50 0 -75.5 -28t-25.5 -75q0 -32 6 -70h191v-85zM146 126q-15 0 -24.5 -8.5t-9.5 -21.5
q0 -27 24 -27q29 0 37 49q-12 8 -27 8z" />
    <glyph glyph-name="florin.tf" horiz-adv-x="473" 
d="M430 304h-131v-326q0 -76 -42 -126t-122 -50q-33 0 -71 9.5t-60 21.5l22 118q39 -26 75 -26q31 0 44.5 13t13.5 42v324h-131v85h131v156q0 76 42 125.5t122 49.5q71 0 131 -31l-21 -122q-45 30 -76 30q-58 0 -58 -60v-148h131v-85z" />
    <glyph glyph-name="yen.tf" 
d="M517 116h-150v-116h-140v116h-150v84h150v51h-150v85h116l-166 334v10h144l126 -299l132 299h144v-10l-172 -334h116v-85h-150v-51h150v-84z" />
    <glyph glyph-name="dollar.tf" 
d="M260 -129v120q-62 4 -120.5 21t-92.5 37l33 133q82 -53 180 -63v163l-68 19q-156 41 -156 182q0 81 56.5 137t167.5 67v82h84v-81q123 -9 208 -53l-40 -131q-69 44 -168 55v-156l37 -10q94 -27 138.5 -71.5t44.5 -116.5q0 -84 -60 -141t-160 -70v-123h-84zM181 495
q0 -26 17.5 -40.5t56.5 -25.5l5 -2v131q-79 -11 -79 -63zM418 194q0 23 -18.5 38t-55.5 27v-136q74 17 74 71z" />
    <glyph glyph-name="zero.denom" horiz-adv-x="379" 
d="M40 169q0 82 38 128.5t111 46.5q74 0 112 -46.5t38 -128.5q0 -81 -38.5 -127.5t-111.5 -46.5t-111 46.5t-38 127.5zM115 169q0 -102 74 -102t74 102q0 104 -74 104t-74 -104z" />
    <glyph glyph-name="one.denom" horiz-adv-x="278" 
d="M13 257l148 81h57v-338h-78v250l-96 -51z" />
    <glyph glyph-name="two.denom" horiz-adv-x="348" 
d="M47 0v58l129 97q46 33 46 71q0 20 -13 33.5t-38 13.5q-31 0 -47 -17.5t-16 -47.5l-71 13q2 57 37.5 90t97.5 33q64 0 97 -32t33 -86q0 -66 -72 -116l-59 -42h140v-68h-264z" />
    <glyph glyph-name="three.denom" horiz-adv-x="337" 
d="M77 206h78q25 0 39 9.5t14 25.5q0 36 -59 36q-51 0 -97 -19l-17 66q52 20 114 20q67 0 102.5 -24.5t35.5 -70.5q0 -25 -16.5 -45t-44.5 -27q72 -16 72 -84q0 -45 -38 -71.5t-111 -26.5q-54 0 -114 20l20 65q43 -19 94 -19q32 0 50.5 12t18.5 32q0 35 -63 35h-78v66z" />
    <glyph glyph-name="four.denom" horiz-adv-x="369" 
d="M341 61h-57v-61h-78v61h-183v51l157 226l26 -1v1h78v-219h57v-58zM101 119h105v151z" />
    <glyph glyph-name="five.denom" horiz-adv-x="335" 
d="M54 151l-4 3l16 184h220v-67h-155l-5 -63h29q142 0 142 -96q0 -58 -39.5 -87.5t-107.5 -29.5q-65 0 -118 22l19 64q45 -20 94 -20q72 0 72 49q0 41 -66 41h-97z" />
    <glyph glyph-name="six.denom" horiz-adv-x="365" 
d="M205 278q-81 0 -88 -90q37 35 89 35q60 0 92 -28t32 -79q0 -55 -37.5 -88t-97.5 -33q-74 0 -115 47.5t-41 127.5t41 127t116 47q66 0 119 -25l-21 -64q-41 23 -89 23zM194 165q-38 0 -75 -28q14 -71 76 -71q26 0 42 14.5t16 35.5q0 49 -59 49z" />
    <glyph glyph-name="seven.denom" horiz-adv-x="301" 
d="M61 7l133 264h-168v67h255v-53l-135 -285h-85v7z" />
    <glyph glyph-name="eight.denom" horiz-adv-x="370" 
d="M185 -5q-71 0 -108.5 26.5t-37.5 71.5q0 69 75 84q-29 6 -46 26.5t-17 45.5q0 95 134 95t134 -95q0 -25 -17 -45.5t-46 -26.5q75 -15 75 -84q0 -45 -37.5 -71.5t-108.5 -26.5zM185 149q-33 0 -50 -12.5t-17 -31.5q0 -21 18.5 -34.5t48.5 -13.5t48.5 13.5t18.5 34.5
q0 19 -17 31.5t-50 12.5zM185 282q-26 0 -41.5 -10.5t-15.5 -29.5q0 -17 14.5 -29t42.5 -12q29 0 43 12t14 29q0 40 -57 40z" />
    <glyph glyph-name="nine.denom" horiz-adv-x="365" 
d="M160 61q80 0 87 89q-38 -34 -88 -34q-60 0 -92 27.5t-32 78.5q0 55 38 88.5t97 33.5q74 0 115 -47.5t41 -127.5q0 -79 -41.5 -126.5t-115.5 -47.5q-68 0 -118 25l21 64q39 -23 88 -23zM170 174q40 0 75 28q-12 71 -75 71q-26 0 -41.5 -14.5t-15.5 -36.5q0 -48 57 -48z
" />
    <glyph glyph-name="zero.num" horiz-adv-x="379" 
d="M40 510q0 82 38 128.5t111 46.5q74 0 112 -46.5t38 -128.5q0 -81 -38.5 -127.5t-111.5 -46.5t-111 46.5t-38 127.5zM115 510q0 -102 74 -102t74 102q0 104 -74 104t-74 -104z" />
    <glyph glyph-name="one.num" horiz-adv-x="277" 
d="M13 599l147 81h57v-338h-78v250l-96 -51z" />
    <glyph glyph-name="two.num" horiz-adv-x="350" 
d="M311 341h-264v58l129 97q46 33 46 71q0 21 -13 34t-38 13q-31 0 -47 -17.5t-16 -47.5l-71 13q2 57 37.5 90t97.5 33q64 0 97 -32t33 -86q0 -66 -72 -116l-59 -42h140v-68z" />
    <glyph glyph-name="three.num" horiz-adv-x="338" 
d="M77 547h78q25 0 39 9.5t14 25.5q0 36 -59 36q-51 0 -97 -19l-17 66q53 20 114 20q67 0 102.5 -24.5t35.5 -70.5q0 -25 -16.5 -45t-44.5 -27q72 -16 72 -84q0 -45 -38 -71.5t-111 -26.5q-54 0 -114 20l20 65q43 -19 94 -19q32 0 50.5 12t18.5 32q0 35 -63 35h-78v66z" />
    <glyph glyph-name="four.num" horiz-adv-x="368" 
d="M341 403h-57v-61h-78v61h-183v51l157 226h104v-219h57v-58zM101 461h105v152z" />
    <glyph glyph-name="five.num" horiz-adv-x="334" 
d="M53 493l-3 3l15 184h220v-67h-154l-6 -63h30q141 0 141 -96q0 -58 -39.5 -87.5t-107.5 -29.5q-61 0 -118 22l20 64q43 -20 93 -20q33 0 53 12.5t20 36.5q0 41 -67 41h-97z" />
    <glyph glyph-name="six.num" horiz-adv-x="365" 
d="M205 619q-81 0 -88 -90q37 35 89 35q60 0 92 -28t32 -79q0 -55 -37.5 -88t-97.5 -33q-74 0 -115 47.5t-41 127.5t41 127t116 47q66 0 119 -25l-21 -64q-41 23 -89 23zM194 506q-38 0 -75 -28q14 -71 76 -71q26 0 42 14.5t16 35.5q0 49 -59 49z" />
    <glyph glyph-name="seven.num" horiz-adv-x="302" 
d="M61 349l133 264h-168v67h255v-53l-135 -285h-85v7z" />
    <glyph glyph-name="eight.num" horiz-adv-x="370" 
d="M185 336q-71 0 -108.5 26.5t-37.5 71.5q0 69 75 84q-29 6 -46 26.5t-17 45.5q0 95 134 95t134 -95q0 -25 -17 -45.5t-46 -26.5q75 -15 75 -84q0 -45 -37.5 -71.5t-108.5 -26.5zM185 490q-33 0 -50 -12.5t-17 -31.5q0 -21 18.5 -34.5t48.5 -13.5t48.5 13.5t18.5 34.5
q0 19 -17 31.5t-50 12.5zM185 623q-26 0 -41.5 -10.5t-15.5 -29.5q0 -17 14.5 -29t42.5 -12q29 0 43 12t14 29q0 40 -57 40z" />
    <glyph glyph-name="nine.num" horiz-adv-x="365" 
d="M160 402q80 0 87 89q-38 -34 -88 -34q-60 0 -92 27.5t-32 78.5q0 55 38 88.5t97 33.5q74 0 115 -47.5t41 -127.5q0 -79 -41.5 -126.5t-115.5 -47.5q-68 0 -118 25l21 64q39 -23 88 -23zM170 515q40 0 75 28q-12 71 -75 71q-26 0 -41.5 -14.5t-15.5 -36.5q0 -48 57 -48z
" />
    <glyph glyph-name="parenleft.case" horiz-adv-x="321" 
d="M287 751q-46 -70 -81 -175.5t-35 -234.5q0 -128 35 -233.5t81 -175.5l-79 -45q-58 56 -109 177t-51 278t51 277.5t109 176.5z" />
    <glyph glyph-name="parenright.case" horiz-adv-x="321" 
d="M34 751l79 45q58 -56 109 -176.5t51 -277.5t-51 -278t-109 -177l-79 45q46 69 81 174.5t35 234.5q0 130 -34.5 235.5t-81.5 174.5z" />
    <glyph glyph-name="hyphen.case" horiz-adv-x="546" 
d="M73 398h400v-110h-400v110z" />
    <glyph glyph-name="bracketleft.case" horiz-adv-x="360" 
d="M322 -108h-236v898h236v-110h-125v-678h125v-110z" />
    <glyph glyph-name="bracketright.case" horiz-adv-x="359" 
d="M38 790h235v-898h-235v110h125v678h-125v110z" />
    <glyph glyph-name="braceleft.case" horiz-adv-x="347" 
d="M298 790v-98h-38q-30 0 -45.5 -16t-15.5 -40q0 -25 26 -95.5t26 -108.5q0 -78 -84 -94q84 -16 84 -95q0 -38 -26 -107.5t-26 -95.5q0 -24 15.5 -40.5t45.5 -16.5h38v-98h-52q-157 0 -157 128q0 37 26 109.5t26 110.5q0 34 -24.5 49t-80.5 15v83q55 0 80 17.5t25 53.5
q0 37 -26 108.5t-26 108.5q0 58 39 90t118 32h52z" />
    <glyph glyph-name="bar.case" horiz-adv-x="283" 
d="M86 -108v898h111v-898h-111z" />
    <glyph glyph-name="braceright.case" horiz-adv-x="346" 
d="M49 790h51q79 0 118.5 -32t39.5 -90q0 -37 -26 -108.5t-26 -108.5q0 -36 24.5 -53.5t79.5 -17.5v-83q-56 0 -80 -15t-24 -49q0 -38 26 -110.5t26 -109.5q0 -128 -158 -128h-51v98h38q30 0 45.5 16.5t15.5 40.5q0 26 -26 95.5t-26 107.5q0 79 84 95q-84 16 -84 94
q0 38 26 108.5t26 95.5q0 24 -15.5 40t-45.5 16h-38v98z" />
    <glyph glyph-name="guilsinglleft.case" horiz-adv-x="314" 
d="M37 328v27l162 205h10l51 -27l-106 -191l106 -191l-51 -27h-10z" />
    <glyph glyph-name="guilsinglright.case" horiz-adv-x="315" 
d="M277 355v-27l-161 -204h-11l-50 26l105 192l-106 190l51 28h11z" />
    <glyph glyph-name="guillemotleft.case" horiz-adv-x="547" 
d="M37 328v27l162 205h10l51 -27l-106 -191l106 -191l-51 -27h-10zM270 328v27l162 205h10l51 -27l-106 -191l106 -191l-51 -27h-10z" />
    <glyph glyph-name="guillemotright.case" horiz-adv-x="548" 
d="M277 355v-27l-161 -204h-11l-50 26l105 192l-106 190l51 28h11zM510 355v-27l-161 -204h-11l-50 26l105 192l-106 190l51 28h11z" />
    <glyph glyph-name="endash.case" horiz-adv-x="642" 
d="M73 398h496v-110h-496v110z" />
    <glyph glyph-name="emdash.case" horiz-adv-x="890" 
d="M73 398h744v-110h-744v110z" />
    <glyph glyph-name="bullet.case" horiz-adv-x="362" 
d="M60 342q0 59 31.5 91.5t89.5 32.5t90 -32.5t32 -91.5q0 -60 -32 -92t-90 -32t-89.5 32t-31.5 92z" />
    <glyph glyph-name="periodcentered.case" horiz-adv-x="305" 
d="M66 335q0 41 22.5 63t63.5 22t64 -22.5t23 -62.5t-23 -62t-64 -22t-63.5 22t-22.5 62z" />
    <glyph glyph-name="a.alt" horiz-adv-x="620" 
d="M108 374l-24 123q89 35 220 35q106 0 153.5 -45.5t47.5 -134.5v-191q0 -53 37 -53q21 0 53 16l6 -111q-46 -23 -115 -23q-79 0 -106 55q-64 -55 -163 -55q-86 0 -132 42t-46 114q0 91 68.5 138.5t200.5 47.5q21 0 57 -4v9q0 44 -21 58.5t-66 14.5q-91 0 -170 -36z
M179 159q0 -49 78 -49q61 0 108 34v74q-32 6 -58 6q-128 0 -128 -65z" />
    <glyph glyph-name="agrave.alt" horiz-adv-x="620" 
d="M108 374l-24 123q89 35 220 35q106 0 153.5 -45.5t47.5 -134.5v-191q0 -53 37 -53q21 0 53 16l6 -111q-46 -23 -115 -23q-79 0 -106 55q-64 -55 -163 -55q-86 0 -132 42t-46 114q0 91 68.5 138.5t200.5 47.5q21 0 57 -4v9q0 44 -21 58.5t-66 14.5q-91 0 -170 -36z
M257 589l-102 152h139l81 -152h-118zM179 159q0 -49 78 -49q61 0 108 34v74q-32 6 -58 6q-128 0 -128 -65z" />
    <glyph glyph-name="aacute.alt" horiz-adv-x="620" 
d="M108 374l-24 123q89 35 220 35q106 0 153.5 -45.5t47.5 -134.5v-191q0 -53 37 -53q21 0 53 16l6 -111q-46 -23 -115 -23q-79 0 -106 55q-64 -55 -163 -55q-86 0 -132 42t-46 114q0 91 68.5 138.5t200.5 47.5q21 0 57 -4v9q0 44 -21 58.5t-66 14.5q-91 0 -170 -36z
M449 741l-102 -152h-118l81 152h139zM179 159q0 -49 78 -49q61 0 108 34v74q-32 6 -58 6q-128 0 -128 -65z" />
    <glyph glyph-name="acircumflex.alt" horiz-adv-x="620" 
d="M108 374l-24 123q89 35 220 35q106 0 153.5 -45.5t47.5 -134.5v-191q0 -53 37 -53q21 0 53 16l6 -111q-46 -23 -115 -23q-79 0 -106 55q-64 -55 -163 -55q-86 0 -132 42t-46 114q0 91 68.5 138.5t200.5 47.5q21 0 57 -4v9q0 44 -21 58.5t-66 14.5q-91 0 -170 -36z
M371 589l-66 84l-66 -84h-106l104 152h136l103 -152h-105zM179 159q0 -49 78 -49q61 0 108 34v74q-32 6 -58 6q-128 0 -128 -65z" />
    <glyph glyph-name="atilde.alt" horiz-adv-x="620" 
d="M108 374l-24 123q89 35 220 35q106 0 153.5 -45.5t47.5 -134.5v-191q0 -53 37 -53q21 0 53 16l6 -111q-46 -23 -115 -23q-79 0 -106 55q-64 -55 -163 -55q-86 0 -132 42t-46 114q0 91 68.5 138.5t200.5 47.5q21 0 57 -4v9q0 44 -21 58.5t-66 14.5q-91 0 -170 -36z
M169 600l-42 55q16 35 46.5 59.5t65.5 24.5q36 0 84.5 -29.5t67.5 -29.5q46 0 69 44l43 -54q-41 -85 -112 -85q-34 0 -83.5 29.5t-67.5 29.5q-43 0 -71 -44zM179 159q0 -49 78 -49q61 0 108 34v74q-32 6 -58 6q-128 0 -128 -65z" />
    <glyph glyph-name="adieresis.alt" horiz-adv-x="620" 
d="M108 374l-24 123q89 35 220 35q106 0 153.5 -45.5t47.5 -134.5v-191q0 -53 37 -53q21 0 53 16l6 -111q-46 -23 -115 -23q-79 0 -106 55q-64 -55 -163 -55q-86 0 -132 42t-46 114q0 91 68.5 138.5t200.5 47.5q21 0 57 -4v9q0 44 -21 58.5t-66 14.5q-91 0 -170 -36z
M179 159q0 -49 78 -49q61 0 108 34v74q-32 6 -58 6q-128 0 -128 -65zM368 669q0 66 77 66q74 0 74 -66t-74 -66q-77 0 -77 66zM113 669q0 66 76 66q75 0 75 -66t-75 -66q-76 0 -76 66z" />
    <glyph glyph-name="amacron.alt" horiz-adv-x="620" 
d="M108 374l-24 123q89 35 220 35q106 0 153.5 -45.5t47.5 -134.5v-191q0 -53 37 -53q21 0 53 16l6 -111q-46 -23 -115 -23q-79 0 -106 55q-64 -55 -163 -55q-86 0 -132 42t-46 114q0 91 68.5 138.5t200.5 47.5q21 0 57 -4v9q0 44 -21 58.5t-66 14.5q-91 0 -170 -36z
M436 610h-255v96h255v-96zM179 159q0 -49 78 -49q61 0 108 34v74q-32 6 -58 6q-128 0 -128 -65z" />
    <glyph glyph-name="abreve.alt" horiz-adv-x="620" 
d="M108 374l-24 123q89 35 220 35q106 0 153.5 -45.5t47.5 -134.5v-191q0 -53 37 -53q21 0 53 16l6 -111q-46 -23 -115 -23q-79 0 -106 55q-64 -55 -163 -55q-86 0 -132 42t-46 114q0 91 68.5 138.5t200.5 47.5q21 0 57 -4v9q0 44 -21 58.5t-66 14.5q-91 0 -170 -36z
M160 673l35 55q37 -45 112 -45t111 45l36 -55q-47 -83 -146 -83q-52 0 -90 24t-58 59zM179 159q0 -49 78 -49q61 0 108 34v74q-32 6 -58 6q-128 0 -128 -65z" />
    <glyph glyph-name="aring.alt" horiz-adv-x="620" 
d="M108 374l-24 123q89 35 220 35q106 0 153.5 -45.5t47.5 -134.5v-191q0 -53 37 -53q21 0 53 16l6 -111q-46 -23 -115 -23q-79 0 -106 55q-64 -55 -163 -55q-86 0 -132 42t-46 114q0 91 68.5 138.5t200.5 47.5q21 0 57 -4v9q0 44 -21 58.5t-66 14.5q-91 0 -170 -36z
M207 670q0 40 28.5 69t69.5 29t69.5 -29t28.5 -69t-28.5 -69t-69.5 -29t-69.5 29t-28.5 69zM179 159q0 -49 78 -49q61 0 108 34v74q-32 6 -58 6q-128 0 -128 -65zM264 670q0 -17 12 -29t29 -12t28.5 12t11.5 29q0 16 -11.5 28t-28.5 12t-29 -11.5t-12 -28.5z" />
    <glyph glyph-name="aringacute.alt" horiz-adv-x="620" 
d="M108 374l-24 123q89 35 220 35q106 0 153.5 -45.5t47.5 -134.5v-191q0 -53 37 -53q21 0 53 16l6 -111q-46 -23 -115 -23q-79 0 -106 55q-64 -55 -163 -55q-86 0 -132 42t-46 114q0 91 68.5 138.5t200.5 47.5q21 0 57 -4v9q0 44 -21 58.5t-66 14.5q-91 0 -170 -36z
M207 654q0 39 28 61.5t70 22.5t70 -22.5t28 -61.5t-28 -61.5t-70 -22.5t-70 22.5t-28 61.5zM179 159q0 -49 78 -49q61 0 108 34v74q-32 6 -58 6q-128 0 -128 -65zM413 839l-67 -83h-86l52 83h101zM265 654q0 -31 40 -31q41 0 41 31q0 30 -41 30q-40 0 -40 -30z" />
    <glyph glyph-name="aogonek.alt" horiz-adv-x="620" 
d="M108 374l-24 123q89 35 220 35q106 0 153.5 -45.5t47.5 -134.5v-191q0 -53 37 -53q21 0 53 16l6 -111q-28 -14 -78 -21q-48 -20 -48 -61q0 -24 13.5 -37.5t38.5 -13.5q26 0 54 18l14 -60q-37 -23 -87 -23q-45 0 -72 26.5t-27 70.5q0 49 46 80q-53 9 -75 53
q-64 -55 -163 -55q-86 0 -132 42t-46 114q0 91 68.5 138.5t200.5 47.5q21 0 57 -4v9q0 44 -21 58.5t-66 14.5q-91 0 -170 -36zM179 159q0 -49 78 -49q61 0 108 34v74q-32 6 -58 6q-128 0 -128 -65z" />
    <glyph glyph-name="g.alt" horiz-adv-x="656" 
d="M435 523h140v-431q0 -143 -76.5 -216.5t-183.5 -73.5q-82 0 -128 36.5t-46 99.5q0 43 27 77.5t75 46.5q-87 13 -141.5 71.5t-54.5 156.5q0 106 62.5 174t171.5 68q97 0 154 -54v45zM435 169v195q-50 46 -113 46q-62 0 -97.5 -33.5t-35.5 -86.5q0 -61 39 -91t94 -30h113z
M435 53h-29q-64 0 -102.5 -22t-38.5 -57q0 -26 15.5 -40t39.5 -14q48 0 81.5 33t33.5 84v16z" />
    <glyph glyph-name="y.alt" 
d="M26 523h150l136 -373l136 373h140l-198 -516q-43 -116 -90.5 -160.5t-126.5 -44.5q-65 0 -104.5 34.5t-39.5 95.5q0 59 48 102.5t133 50.5zM247 -1l4 13q-60 0 -87.5 -13t-27.5 -42q0 -16 11.5 -26.5t28.5 -10.5q29 0 43.5 18t27.5 61z" />
    <glyph glyph-name="asterisk.alt" horiz-adv-x="492" 
d="M88 354l78 114l-128 31l29 106l132 -46l-8 141h110l-8 -142l132 47l29 -106l-131 -32l80 -112l-83 -59l-75 122l-73 -121z" />
    <glyph glyph-name="gcircumflex.alt" horiz-adv-x="656" 
d="M435 523h140v-431q0 -143 -76.5 -216.5t-183.5 -73.5q-82 0 -128 36.5t-46 99.5q0 43 27 77.5t75 46.5q-87 13 -141.5 71.5t-54.5 156.5q0 106 62.5 174t171.5 68q97 0 154 -54v45zM435 169v195q-50 46 -113 46q-62 0 -97.5 -33.5t-35.5 -86.5q0 -61 39 -91t94 -30h113z
M435 53h-29q-64 0 -102.5 -22t-38.5 -57q0 -26 15.5 -40t39.5 -14q48 0 81.5 33t33.5 84v16zM407 589l-66 84l-66 -84h-106l104 152h136l103 -152h-105z" />
    <glyph glyph-name="gbreve.alt" horiz-adv-x="656" 
d="M194 673l35 55q37 -45 112 -45t111 45l36 -55q-47 -83 -146 -83q-52 0 -90 24t-58 59zM435 523h140v-431q0 -143 -76.5 -216.5t-183.5 -73.5q-82 0 -128 36.5t-46 99.5q0 43 27 77.5t75 46.5q-87 13 -141.5 71.5t-54.5 156.5q0 106 62.5 174t171.5 68q97 0 154 -54v45z
M435 169v195q-50 46 -113 46q-62 0 -97.5 -33.5t-35.5 -86.5q0 -61 39 -91t94 -30h113zM435 53h-29q-64 0 -102.5 -22t-38.5 -57q0 -26 15.5 -40t39.5 -14q48 0 81.5 33t33.5 84v16z" />
    <glyph glyph-name="gdotaccent.alt" horiz-adv-x="656" 
d="M435 523h140v-431q0 -143 -76.5 -216.5t-183.5 -73.5q-82 0 -128 36.5t-46 99.5q0 43 27 77.5t75 46.5q-87 13 -141.5 71.5t-54.5 156.5q0 106 62.5 174t171.5 68q97 0 154 -54v45zM435 169v195q-50 46 -113 46q-62 0 -97.5 -33.5t-35.5 -86.5q0 -61 39 -91t94 -30h113z
M435 53h-29q-64 0 -102.5 -22t-38.5 -57q0 -26 15.5 -40t39.5 -14q48 0 81.5 33t33.5 84v16zM267 671q0 69 82 69q80 0 80 -69q0 -70 -80 -70q-82 0 -82 70z" />
    <glyph glyph-name="gcommaaccent.alt" horiz-adv-x="656" 
d="M435 523h140v-431q0 -143 -76.5 -216.5t-183.5 -73.5q-82 0 -128 36.5t-46 99.5q0 43 27 77.5t75 46.5q-87 13 -141.5 71.5t-54.5 156.5q0 106 62.5 174t171.5 68q97 0 154 -54v45zM435 169v195q-50 46 -113 46q-62 0 -97.5 -33.5t-35.5 -86.5q0 -61 39 -91t94 -30h113z
M435 53h-29q-64 0 -102.5 -22t-38.5 -57q0 -26 15.5 -40t39.5 -14q48 0 81.5 33t33.5 84v16zM384 779l-24 -65q57 -10 57 -63q0 -32 -20.5 -50t-52.5 -18q-85 0 -85 79q0 67 58 141z" />
    <glyph glyph-name="yacute.alt" 
d="M472 741l-102 -152h-118l81 152h139zM26 523h150l136 -373l136 373h140l-198 -516q-43 -116 -90.5 -160.5t-126.5 -44.5q-65 0 -104.5 34.5t-39.5 95.5q0 59 48 102.5t133 50.5zM247 -1l4 13q-60 0 -87.5 -13t-27.5 -42q0 -16 11.5 -26.5t28.5 -10.5q29 0 43.5 18
t27.5 61z" />
    <glyph glyph-name="ycircumflex.alt" 
d="M26 523h150l136 -373l136 373h140l-198 -516q-43 -116 -90.5 -160.5t-126.5 -44.5q-65 0 -104.5 34.5t-39.5 95.5q0 59 48 102.5t133 50.5zM247 -1l4 13q-60 0 -87.5 -13t-27.5 -42q0 -16 11.5 -26.5t28.5 -10.5q29 0 43.5 18t27.5 61zM379 589l-66 84l-66 -84h-106
l104 152h136l103 -152h-105z" />
    <glyph glyph-name="ydieresis.alt" 
d="M26 523h150l136 -373l136 373h140l-198 -516q-43 -116 -90.5 -160.5t-126.5 -44.5q-65 0 -104.5 34.5t-39.5 95.5q0 59 48 102.5t133 50.5zM247 -1l4 13q-60 0 -87.5 -13t-27.5 -42q0 -16 11.5 -26.5t28.5 -10.5q29 0 43.5 18t27.5 61zM119 659q0 63 73 63q72 0 72 -63
t-72 -63q-73 0 -73 63zM374 659q0 63 74 63q71 0 71 -63t-71 -63q-74 0 -74 63z" />
    <glyph glyph-name="ygrave.alt" 
d="M266 589l-102 152h139l81 -152h-118zM26 523h150l136 -373l136 373h140l-198 -516q-43 -116 -90.5 -160.5t-126.5 -44.5q-65 0 -104.5 34.5t-39.5 95.5q0 59 48 102.5t133 50.5zM247 -1l4 13q-60 0 -87.5 -13t-27.5 -42q0 -16 11.5 -26.5t28.5 -10.5q29 0 43.5 18
t27.5 61z" />
    </font>
</defs>
</svg>
