<?xml version="1.0" standalone="no"?>
<!DOCTYPE svg PUBLIC "-//W3C//DTD SVG 1.1//EN" "http://www.w3.org/Graphics/SVG/1.1/DTD/svg11.dtd" >
<svg xmlns="http://www.w3.org/2000/svg" xmlns:xlink="http://www.w3.org/1999/xlink" version="1.1">
<metadata>
Created by FontForge 20170731 at Thu Jul  7 17:43:48 2011
 By Aleksey,,,
Copyright (c) 2011 by Hannes von Doehren. All rights reserved.
</metadata>
<defs>
<font id="PlutoLight" horiz-adv-x="600" >
  <font-face 
    font-family="Pluto Light"
    font-weight="300"
    font-stretch="normal"
    units-per-em="1000"
    panose-1="2 11 3 3 2 2 3 6 2 4"
    ascent="750"
    descent="-250"
    x-height="523"
    cap-height="680"
    bbox="-138 -246 1199 907"
    underline-thickness="50"
    underline-position="-200"
    unicode-range="U+0020-FB02"
  />
<missing-glyph horiz-adv-x="612" 
d="M50 720h512v-720h-512v720zM266 283h48q0 26 14 47t34 36t40 29.5t34 36t14 48.5q0 51 -36.5 85t-101.5 34q-39 0 -67 -14.5t-41.5 -37t-19 -43.5t-5.5 -41h47q0 40 21 66.5t65 26.5q41 0 64 -21.5t23 -54.5q0 -23 -21 -45t-45.5 -38t-45.5 -46t-21 -68zM255 194v-71h68
v71h-68z" />
    <glyph glyph-name=".notdef" horiz-adv-x="612" 
d="M50 720h512v-720h-512v720zM266 283h48q0 26 14 47t34 36t40 29.5t34 36t14 48.5q0 51 -36.5 85t-101.5 34q-39 0 -67 -14.5t-41.5 -37t-19 -43.5t-5.5 -41h47q0 40 21 66.5t65 26.5q41 0 64 -21.5t23 -54.5q0 -23 -21 -45t-45.5 -38t-45.5 -46t-21 -68zM255 194v-71h68
v71h-68z" />
    <glyph glyph-name=".null" horiz-adv-x="0" 
 />
    <glyph glyph-name="nonmarkingreturn" horiz-adv-x="333" 
 />
    <glyph glyph-name="space" unicode=" " horiz-adv-x="250" 
 />
    <glyph glyph-name="exclam" unicode="!" horiz-adv-x="279" 
d="M113 231l-8 448h69l-9 -448h-52zM85 45q0 56 54 56q55 0 55 -56t-55 -56q-54 0 -54 56z" />
    <glyph glyph-name="quotedbl" unicode="&#x22;" horiz-adv-x="423" 
d="M137 680l-2 -240h-52l-2 240h56zM342 680l-3 -240h-51l-2 240h56z" />
    <glyph glyph-name="numbersign" unicode="#" horiz-adv-x="697" 
d="M367 6l39 155h-209l-40 -161h-56v6l39 155h-95v54h108l64 254h-89v54h102l40 157h55v-6l-38 -151h209l40 157h54v-6l-38 -151h102v-54h-115l-64 -254h96v-54h-109l-40 -161h-55v6zM274 469l-64 -254h209l64 254h-209z" />
    <glyph glyph-name="dollar" unicode="$" 
d="M278 -129v119q-64 1 -125 19.5t-96 40.5l17 64q93 -58 204 -61v263l-80 20q-152 37 -152 163q0 75 59.5 128.5t172.5 60.5v81h46v-80q124 -4 218 -55l-22 -64q-33 21 -88 37t-108 18v-252l46 -11q92 -23 138 -63t46 -108q0 -84 -63 -137.5t-167 -61.5v-121h-46zM343 301
l-19 4v-250q73 8 116 42.5t43 88.5q0 44 -34.5 71t-105.5 44zM116 503q0 -79 109 -105l53 -13v240q-80 -6 -121 -40t-41 -82z" />
    <glyph glyph-name="percent" unicode="%" horiz-adv-x="850" 
d="M459 161q0 74 49.5 123.5t124.5 49.5q76 0 125 -49.5t49 -123.5t-49 -122.5t-125 -48.5t-125 48.5t-49 122.5zM514 161q0 -51 33.5 -85t85.5 -34t85.5 34t33.5 85t-33.5 85.5t-85.5 34.5t-85.5 -34.5t-33.5 -85.5zM209 6l360 674h62v-6l-360 -674h-62v6zM44 517
q0 74 49.5 123t124.5 49q76 0 125 -49t49 -123t-49 -122.5t-125 -48.5t-125 48.5t-49 122.5zM99 517q0 -51 33.5 -85t85.5 -34t85.5 34t33.5 85t-33.5 85.5t-85.5 34.5t-85.5 -34.5t-33.5 -85.5z" />
    <glyph glyph-name="ampersand" unicode="&#x26;" horiz-adv-x="728" 
d="M683 10v-10h-88l-80 76q-98 -85 -226 -85q-105 0 -166.5 49t-61.5 134q0 67 44.5 109.5t118.5 72.5q-34 34 -50.5 52.5t-32.5 51.5t-16 66q0 73 53.5 118.5t145.5 45.5q86 0 143 -46t57 -115q0 -68 -36.5 -108.5t-101.5 -64.5l-50 -19l181 -171q72 89 102 214l55 -33
q-37 -134 -112 -223zM295 50q96 0 176 69l-201 193q-65 -25 -103 -55.5t-38 -79.5q0 -57 45 -92t121 -35zM192 524q0 -26 18.5 -55.5t34 -45t45.5 -42.5l69 25q50 18 74 46t24 71q0 45 -38 76t-95 31q-64 0 -98 -29t-34 -77z" />
    <glyph glyph-name="quotesingle" unicode="'" horiz-adv-x="218" 
d="M137 680l-2 -240h-52l-2 240h56z" />
    <glyph glyph-name="parenleft" unicode="(" horiz-adv-x="283" 
d="M247 690q-48 -67 -88 -175.5t-40 -253.5q0 -144 40 -253.5t88 -174.5l-42 -26q-52 56 -100 175.5t-48 278.5q0 160 48 279t100 175z" />
    <glyph glyph-name="parenright" unicode=")" horiz-adv-x="283" 
d="M36 690l42 25q52 -56 100 -175t48 -279q0 -159 -48 -278.5t-100 -175.5l-42 26q48 64 88 174t40 254q0 146 -40 255t-88 174z" />
    <glyph glyph-name="asterisk" unicode="*" horiz-adv-x="529" 
d="M248 517q-13 83 -13 153q0 18 8.5 27.5t20.5 9.5q29 0 29 -36q0 -77 -15 -151q79 42 138 62q21 6 32.5 -3t11.5 -24q0 -24 -26 -32q-68 -20 -149 -31q50 -47 109 -115q14 -19 6.5 -35t-24.5 -16q-19 0 -32 17q-54 71 -81 131q-19 -41 -74 -129q-14 -20 -35 -20
q-18 0 -24 17.5t7 35.5q48 63 101 111q-46 7 -144 38q-26 7 -26 29q0 16 12.5 25.5t32.5 2.5q64 -23 135 -67z" />
    <glyph glyph-name="plus" unicode="+" 
d="M328 531v-201h200v-56h-200v-200h-56v200h-200v56h200v201h56z" />
    <glyph glyph-name="comma" unicode="," horiz-adv-x="259" 
d="M77 -153l47 141q-25 2 -37.5 16.5t-12.5 35.5q0 58 55 58q26 0 41 -16t15 -42q0 -40 -23.5 -107.5t-43.5 -102.5z" />
    <glyph glyph-name="hyphen" unicode="-" horiz-adv-x="530" 
d="M80 331h371v-57h-371v57z" />
    <glyph glyph-name="period" unicode="." horiz-adv-x="258" 
d="M74 45q0 56 54 56q55 0 55 -56t-55 -56q-54 0 -54 56z" />
    <glyph glyph-name="slash" unicode="/" horiz-adv-x="488" 
d="M33 6l361 674h61v-6l-360 -674h-62v6z" />
    <glyph glyph-name="zero" unicode="0" horiz-adv-x="724" 
d="M75 339q0 162 71 256.5t215 94.5q145 0 216.5 -94.5t71.5 -256.5q0 -161 -71.5 -255t-216.5 -94q-144 0 -215 94.5t-71 254.5zM141 339q0 -130 53 -207.5t167 -77.5q59 0 103 21.5t69.5 61t37.5 90t12 112.5q0 131 -53 209.5t-169 78.5q-114 0 -167 -78.5t-53 -209.5z
" />
    <glyph glyph-name="one" unicode="1" horiz-adv-x="480" 
d="M22 543l289 137h54v-680h-68v603l-250 -113z" />
    <glyph glyph-name="two" unicode="2" horiz-adv-x="641" 
d="M578 61v-61h-502v54l288 218q65 49 94.5 95.5t29.5 102.5q0 69 -44 113t-127 44q-90 0 -138.5 -49t-50.5 -129l-63 10q3 105 69 168t184 63q116 0 177.5 -61.5t61.5 -153.5q0 -70 -32.5 -127.5t-109.5 -113.5l-232 -173h395z" />
    <glyph glyph-name="three" unicode="3" horiz-adv-x="646" 
d="M151 321v61h177q72 0 112.5 36t40.5 88q0 58 -51.5 91t-132.5 33q-116 0 -206 -49l-19 59q108 50 224 50q118 0 186 -47t68 -132q0 -57 -35 -102t-94 -54q153 -31 153 -171q0 -90 -75.5 -142t-202.5 -52q-110 0 -227 47l19 58q96 -45 208 -45q91 0 150 38.5t59 104.5
q0 60 -45.5 94t-131.5 34h-177z" />
    <glyph glyph-name="four" unicode="4" horiz-adv-x="707" 
d="M661 151h-148v-151h-65v151h-409v50l388 479h86v-471h148v-58zM111 209h337v414z" />
    <glyph glyph-name="five" unicode="5" horiz-adv-x="642" 
d="M553 680v-61h-371l-17 -214h133q128 0 202.5 -46t74.5 -143q0 -113 -80.5 -169.5t-202.5 -56.5q-125 0 -235 49l20 58q94 -47 213 -47q91 0 153.5 40t62.5 124q0 137 -211 137h-194l-4 5l28 324h428z" />
    <glyph glyph-name="six" unicode="6" horiz-adv-x="702" 
d="M608 626l-25 -56q-78 60 -198 60q-117 0 -180.5 -79t-63.5 -210v-13q36 49 97 87.5t148 38.5q116 0 183 -59.5t67 -165.5t-73.5 -172.5t-185.5 -66.5q-143 0 -223.5 95.5t-80.5 255.5q0 158 81 253.5t225 95.5q73 0 133.5 -20t95.5 -44zM377 396q-138 0 -230 -133
q17 -97 76.5 -153.5t153.5 -56.5q82 0 136.5 50.5t54.5 125.5q0 81 -52.5 124t-138.5 43z" />
    <glyph glyph-name="seven" unicode="7" horiz-adv-x="537" 
d="M132 7l304 612h-409v61h487v-51l-306 -629h-76v7z" />
    <glyph glyph-name="eight" unicode="8" horiz-adv-x="694" 
d="M347 -10q-125 0 -200 52t-75 142q0 72 45 115.5t127 55.5q-67 9 -107.5 54t-40.5 102q0 85 67.5 132t183.5 47t183.5 -47t67.5 -132q0 -57 -40.5 -102t-107.5 -54q82 -12 127 -55.5t45 -115.5q0 -90 -75 -142t-200 -52zM349 320q-104 0 -156 -35t-52 -95q0 -65 58 -103
t148 -38t148 38t58 103q0 60 -50.5 95t-153.5 35zM347 632q-83 0 -133 -32t-50 -92q0 -52 45.5 -87.5t139.5 -35.5q92 0 136.5 35.5t44.5 87.5q0 60 -50 92t-133 32z" />
    <glyph glyph-name="nine" unicode="9" horiz-adv-x="702" 
d="M94 54l24 56q80 -60 199 -60q117 0 180.5 79t63.5 210v13q-96 -126 -245 -126q-116 0 -183 59.5t-67 165.5t73.5 172.5t185.5 66.5q143 0 223.5 -95.5t80.5 -255.5q0 -158 -81 -253.5t-225 -95.5q-73 0 -133.5 20t-95.5 44zM325 284q44 0 83.5 14t68 37t46 42t31.5 39
q-17 97 -76 154t-153 57q-83 0 -137 -50.5t-54 -125.5q0 -81 52.5 -124t138.5 -43z" />
    <glyph glyph-name="colon" unicode=":" horiz-adv-x="266" 
d="M78 483q0 55 54 55t54 -55q0 -56 -54 -56t-54 56zM78 45q0 55 54 55t54 -55q0 -56 -54 -56t-54 56z" />
    <glyph glyph-name="semicolon" unicode=";" horiz-adv-x="274" 
d="M87 -151l47 139q-25 2 -37.5 16.5t-12.5 35.5q0 57 55 57q26 0 40.5 -16t14.5 -41q0 -40 -23.5 -107.5t-42.5 -100.5zM81 483q0 55 54 55t54 -55q0 -56 -54 -56t-54 56z" />
    <glyph glyph-name="less" unicode="&#x3c;" 
d="M72 274v55l449 207h7v-55l-399 -178l399 -178v-56h-7z" />
    <glyph glyph-name="equal" unicode="=" 
d="M72 189h456v-56h-456v56zM72 472h456v-56h-456v56z" />
    <glyph glyph-name="greater" unicode="&#x3e;" 
d="M527 329v-55l-449 -205h-6v56l398 178l-398 178v55h6z" />
    <glyph glyph-name="question" unicode="?" horiz-adv-x="483" 
d="M235 231h-58q-6 18 -6 41q0 47 53 82l59 43q24 17 37 30t23.5 36t10.5 52q0 53 -36.5 85t-91.5 32q-102 0 -154 -81l-26 50q63 89 189 89q83 0 135.5 -47.5t52.5 -123.5q0 -42 -15 -74.5t-31.5 -48t-45.5 -37.5l-62 -44q-22 -16 -30 -27.5t-8 -29.5q0 -14 4 -27zM154 45
q0 56 53 56q55 0 55 -56t-55 -56q-53 0 -53 56z" />
    <glyph glyph-name="at" unicode="@" horiz-adv-x="1003" 
d="M706 491v-370q0 -31 11 -45.5t41 -14.5q56 0 101.5 67.5t45.5 192.5q0 151 -109.5 249.5t-285.5 98.5t-289.5 -114t-113.5 -292q0 -177 113.5 -292t289.5 -115q104 0 189 41l19 -45q-95 -46 -208 -46q-195 0 -324.5 130.5t-129.5 326.5q0 197 129 326.5t325 129.5
t321 -113t125 -285q0 -149 -63.5 -229.5t-156.5 -80.5q-42 0 -63 16.5t-29 49.5q-61 -66 -162 -66q-103 0 -165.5 67.5t-62.5 174.5q0 108 62.5 177t165.5 69q99 0 158 -62v54h66zM640 377q-23 26 -61 44.5t-81 18.5q-81 0 -129 -52t-48 -135q0 -81 48 -132t129 -51
q83 0 142 61v246z" />
    <glyph glyph-name="A" unicode="A" horiz-adv-x="695" 
d="M20 0l292 680h78l277 -680h-69l-68 165h-370l-71 -165h-69zM351 611l-171 -393h332z" />
    <glyph glyph-name="B" unicode="B" horiz-adv-x="696" 
d="M112 0v680h241q107 0 166.5 -44t59.5 -132q0 -57 -32.5 -95t-90.5 -56q177 -26 177 -176q0 -83 -60 -130t-174 -47h-287zM180 60h212q83 0 126 32t43 92q0 134 -191 134h-190v-258zM180 379h158q79 0 125 30t46 89q0 122 -164 122h-165v-241z" />
    <glyph glyph-name="C" unicode="C" horiz-adv-x="754" 
d="M656 152l36 -52q-49 -47 -124 -78.5t-155 -31.5q-154 0 -249.5 94t-95.5 255q0 163 95.5 257t249.5 94q129 0 202 -68.5t76 -188.5l-63 -13q-3 97 -58.5 151.5t-157.5 54.5q-124 0 -199 -76.5t-75 -210.5q0 -133 75.5 -209t200.5 -76q68 0 133 28t109 70z" />
    <glyph glyph-name="D" unicode="D" horiz-adv-x="792" 
d="M112 0v680h261q156 -1 253.5 -90.5t97.5 -250.5q0 -160 -97.5 -249.5t-253.5 -89.5h-261zM370 619h-190v-558h190q127 0 205.5 73t78.5 205q0 134 -78 207t-206 73z" />
    <glyph glyph-name="E" unicode="E" horiz-adv-x="700" 
d="M629 0h-517v680h517v-61h-451v-234h378v-61h-378v-263h451v-61z" />
    <glyph glyph-name="F" unicode="F" horiz-adv-x="648" 
d="M555 282h-377v-282h-66v680h497v-61h-431v-276h377v-61z" />
    <glyph glyph-name="G" unicode="G" horiz-adv-x="789" 
d="M400 360h312v-282q-48 -38 -127.5 -63t-155.5 -25q-156 0 -259 94.5t-103 254.5q0 161 103 256t259 95q146 0 257 -96l-35 -52q-95 84 -221 84t-209.5 -77.5t-83.5 -209.5q0 -131 84 -208t212 -77q125 0 211 60v186h-244v60z" />
    <glyph glyph-name="H" unicode="H" horiz-adv-x="839" 
d="M659 0v311h-479v-311h-68v680h68v-308h479v308h68v-680h-68z" />
    <glyph glyph-name="I" unicode="I" horiz-adv-x="292" 
d="M112 0v680h68v-680h-68z" />
    <glyph glyph-name="J" unicode="J" horiz-adv-x="656" 
d="M484 680h69v-421q0 -122 -69 -196.5t-193 -74.5q-122 0 -186.5 69.5t-72.5 192.5l67 7q15 -205 193 -205q93 0 142.5 56.5t49.5 153.5v418z" />
    <glyph glyph-name="K" unicode="K" horiz-adv-x="768" 
d="M112 0v680h68v-311h179l224 311h72v-10l-243 -332q17 -18 45.5 -70t53 -97.5t65 -82.5t83.5 -37t88 21l9 -56q-52 -26 -108 -26q-47 0 -88.5 27t-71 69t-52.5 84.5t-45.5 83t-38.5 55.5h-172v-309h-68z" />
    <glyph glyph-name="L" unicode="L" horiz-adv-x="597" 
d="M571 0h-459v680h68v-619h391v-61z" />
    <glyph glyph-name="M" unicode="M" horiz-adv-x="948" 
d="M768 0v571l-286 -346h-16l-286 346v-571h-68v680h63l299 -363l300 363h62v-680h-68z" />
    <glyph glyph-name="N" unicode="N" horiz-adv-x="836" 
d="M663 0l-483 571v-571h-68v680h61l483 -573v573h68v-680h-61z" />
    <glyph glyph-name="O" unicode="O" horiz-adv-x="832" 
d="M66 339q0 151 100 251t249 100q151 0 251 -100t100 -251q0 -149 -100 -249t-251 -100q-149 0 -249 100t-100 249zM133 339q0 -122 80.5 -203.5t201.5 -81.5q123 0 203.5 81t80.5 204q0 124 -80 205t-204 81q-122 0 -202 -81t-80 -205z" />
    <glyph glyph-name="P" unicode="P" horiz-adv-x="690" 
d="M112 0v680h292q103 0 170 -61t67 -177q0 -107 -68.5 -171t-168.5 -64h-224v-207h-68zM395 619h-215v-351h215q75 0 125.5 47t50.5 127q0 86 -50 131.5t-126 45.5z" />
    <glyph glyph-name="Q" unicode="Q" horiz-adv-x="832" 
d="M839 -103l10 -58q-55 -19 -125 -19q-58 0 -113 24.5t-87.5 54.5t-63.5 58.5t-45 32.5q-149 0 -249 100t-100 249q0 151 100 251t249 100q151 0 251 -100t100 -251q0 -127 -74.5 -219.5t-193.5 -116.5q3 -3 39.5 -34.5t55 -44t57.5 -28t78 -15.5q63 0 111 16zM133 339
q0 -122 80.5 -203t201.5 -81q123 0 203.5 80.5t80.5 203.5q0 124 -80 205t-204 81q-122 0 -202 -81t-80 -205z" />
    <glyph glyph-name="R" unicode="R" horiz-adv-x="764" 
d="M112 0v680h293q101 0 170 -53.5t69 -160.5q0 -94 -66 -152t-159 -58h-12q14 -15 53 -60t64.5 -71.5t64.5 -50.5t73 -24q40 0 88 22l9 -56q-52 -26 -106 -26q-52 0 -105.5 35t-90 78.5t-77 90.5t-62.5 62h-138v-256h-68zM411 619h-231v-307h231q69 0 116 41t47 111
q0 76 -46.5 115.5t-116.5 39.5z" />
    <glyph glyph-name="S" unicode="S" horiz-adv-x="639" 
d="M363 301l-145 35q-72 18 -112 59t-40 104q0 80 67.5 135t195.5 55q65 0 128.5 -16t104.5 -39l-21 -64q-36 23 -97 39.5t-117 16.5q-93 0 -142 -35.5t-49 -87.5q0 -79 109 -105l145 -36q92 -23 138 -63t46 -108q0 -92 -74 -146.5t-193 -54.5q-66 0 -129 18.5t-101 41.5
l17 64q101 -61 214 -61q88 0 142 36.5t54 96.5q0 44 -35 71t-106 44z" />
    <glyph glyph-name="T" unicode="T" horiz-adv-x="627" 
d="M604 612h-249v-612h-68v612h-263v68h580v-68z" />
    <glyph glyph-name="U" unicode="U" horiz-adv-x="788" 
d="M171 680v-401q0 -105 55.5 -166t166.5 -61t167.5 63.5t56.5 164.5v400h68v-404q0 -123 -76 -205.5t-216 -82.5q-141 0 -215.5 79t-74.5 209v404h68z" />
    <glyph glyph-name="V" unicode="V" horiz-adv-x="698" 
d="M304 0l-277 680h74l244 -619l260 619h73l-291 -680h-83z" />
    <glyph glyph-name="W" unicode="W" horiz-adv-x="1075" 
d="M690 0l-152 367l-161 -367h-73l-277 680h73l245 -603l164 370l-95 233h73l239 -594l256 594h73l-292 -680h-73z" />
    <glyph glyph-name="X" unicode="X" horiz-adv-x="699" 
d="M665 680v-6l-268 -334l268 -334v-6h-79l-236 293l-237 -293h-79v6l267 334l-267 334v6h78l238 -294l237 294h78z" />
    <glyph glyph-name="Y" unicode="Y" horiz-adv-x="667" 
d="M299 0v287l-284 387v6h76l242 -330l243 330h75v-6l-284 -386v-288h-68z" />
    <glyph glyph-name="Z" unicode="Z" horiz-adv-x="616" 
d="M57 51l414 568h-414v61h501v-51l-413 -568h413v-61h-501v51z" />
    <glyph glyph-name="bracketleft" unicode="[" horiz-adv-x="324" 
d="M294 -188h-198v898h198v-56h-141v-785h141v-57z" />
    <glyph glyph-name="backslash" unicode="\" horiz-adv-x="488" 
d="M94 680l361 -674v-6h-62l-360 674v6h61z" />
    <glyph glyph-name="bracketright" unicode="]" horiz-adv-x="324" 
d="M30 710h197v-898h-197v57h141v785h-141v56z" />
    <glyph glyph-name="asciicircum" unicode="^" 
d="M270 680h53l185 -267v-7h-64l-148 220l-144 -220h-64v7z" />
    <glyph glyph-name="underscore" unicode="_" horiz-adv-x="752" 
d="M126 -42h500v-56h-500v56z" />
    <glyph glyph-name="grave" unicode="`" 
d="M321 604l-90 137h70l82 -137h-62z" />
    <glyph glyph-name="a" unicode="a" horiz-adv-x="689" 
d="M557 523v-408q0 -66 48 -66q24 0 58 22l8 -55q-41 -26 -88 -26q-78 0 -90 78q-32 -34 -79 -56t-102 -22q-115 0 -185 75t-70 194q0 120 70 196.5t185 76.5q106 0 177 -71v62h68zM489 121v279q-26 30 -69 50.5t-92 20.5q-92 0 -147 -59t-55 -153q0 -92 55.5 -150
t146.5 -58q48 0 90.5 20.5t70.5 49.5z" />
    <glyph glyph-name="b" unicode="b" horiz-adv-x="653" 
d="M596 262q0 -120 -70.5 -196t-184.5 -76q-108 0 -178 72v-62h-68v710h68v-248q72 70 178 70q115 0 185 -75.5t70 -194.5zM527 262q0 93 -55.5 151t-146.5 58q-48 0 -91.5 -21t-70.5 -52v-276q26 -29 69.5 -50t92.5 -21q91 0 146.5 58.5t55.5 152.5z" />
    <glyph glyph-name="c" unicode="c" horiz-adv-x="608" 
d="M523 114l28 -55q-91 -73 -215 -73q-141 0 -210.5 74.5t-69.5 199.5q0 122 75 199.5t199 77.5q105 0 163.5 -53.5t62.5 -144.5l-62 -14q-4 71 -45 111t-119 40q-94 0 -149 -60t-55 -154q0 -97 53 -156t164 -59q91 0 180 67z" />
    <glyph glyph-name="d" unicode="d" horiz-adv-x="690" 
d="M490 710h68v-596q0 -65 48 -65q23 0 57 22l9 -55q-41 -26 -89 -26q-78 0 -91 75q-71 -75 -180 -75q-114 0 -185 76.5t-71 195.5t71 194.5t185 75.5q105 0 178 -71v249zM125 262q0 -94 55.5 -152.5t147.5 -58.5q49 0 92.5 21t69.5 50v276q-27 31 -70.5 52t-91.5 21
q-91 0 -147 -58t-56 -151z" />
    <glyph glyph-name="e" unicode="e" horiz-adv-x="616" 
d="M521 108l29 -51q-89 -71 -214 -71q-140 0 -210.5 76.5t-70.5 197.5q0 117 75 197t198 80q113 0 171.5 -61.5t58.5 -156.5q0 -48 -9 -82h-425q6 -87 59 -140t155 -53q100 0 183 64zM490 292q3 33 3 37q0 64 -42 107t-124 43q-89 0 -142.5 -54t-58.5 -133h364z" />
    <glyph glyph-name="f" unicode="f" horiz-adv-x="446" 
d="M41 436v55h110v52q0 79 40 128t123 49q80 0 132 -52l-20 -56q-45 47 -106 47q-101 0 -101 -116v-52h196v-55h-196v-436h-68v436h-110z" />
    <glyph glyph-name="g" unicode="g" horiz-adv-x="653" 
d="M57 280q0 107 71.5 179.5t184.5 72.5q106 0 177 -71v62h68v-477q0 -115 -67 -179.5t-171 -64.5q-21 0 -40.5 2t-37 6.5t-30.5 8t-28 10.5t-22 10t-20 10.5t-15 8.5l17 62q87 -57 176 -57q72 0 121 44t49 127v66q-72 -70 -177 -70q-113 0 -184.5 72.5t-71.5 177.5z
M127 280q0 -81 55.5 -135t145.5 -54q49 0 92 20t70 50v237q-26 30 -69.5 51.5t-92.5 21.5q-90 0 -145.5 -54.5t-55.5 -136.5z" />
    <glyph glyph-name="h" unicode="h" horiz-adv-x="678" 
d="M95 710h68v-283q57 105 191 105q97 0 148 -64t51 -167v-186q0 -66 48 -66q23 0 59 22l8 -55q-41 -26 -89 -26q-94 0 -94 112v190q0 79 -39 127.5t-113 48.5q-64 0 -109.5 -37.5t-60.5 -94.5v-336h-68v710z" />
    <glyph glyph-name="i" unicode="i" horiz-adv-x="299" 
d="M163 523v-408q0 -66 48 -66q27 0 57 22l9 -55q-12 -10 -38 -18t-51 -8q-93 0 -93 112v421h68zM81 672q0 46 49 46q47 0 47 -46t-47 -46q-49 0 -49 46z" />
    <glyph glyph-name="j" unicode="j" horiz-adv-x="257" 
d="M163 523v-502q0 -152 -138 -218l-38 47q52 29 80 67.5t28 101.5v504h68zM82 672q0 46 48 46q46 0 46 -46t-46 -46q-48 0 -48 46z" />
    <glyph glyph-name="k" unicode="k" horiz-adv-x="605" 
d="M484 523h68q-36 -188 -173 -256l187 -256v-11h-77l-171 244q-67 -19 -155 -19v-225h-68v710h68v-423q50 0 88.5 5.5t77.5 21t67.5 41t51.5 68t36 100.5z" />
    <glyph glyph-name="l" unicode="l" horiz-adv-x="308" 
d="M92 710h68v-588q0 -73 62 -73q31 0 65 22l9 -55q-41 -26 -96 -26q-108 0 -108 118v602z" />
    <glyph glyph-name="m" unicode="m" horiz-adv-x="1040" 
d="M95 523h68v-98q59 107 184 107q140 0 179 -124q25 56 75.5 90t120.5 34q97 0 145 -63.5t48 -167.5v-186q0 -66 47 -66q24 0 58 22l9 -55q-41 -26 -89 -26q-93 0 -93 112v190q0 80 -36.5 128t-110.5 48q-62 0 -104 -38.5t-57 -95.5v-334h-68v292q0 82 -35.5 129t-109.5 47
q-63 0 -105.5 -38t-57.5 -96v-334h-68v523z" />
    <glyph glyph-name="n" unicode="n" horiz-adv-x="678" 
d="M95 523h68v-96q58 105 191 105q97 0 148 -64t51 -167v-186q0 -66 48 -66q25 0 59 22l8 -55q-40 -26 -89 -26q-94 0 -94 112v190q0 79 -39 127.5t-113 48.5q-64 0 -109.5 -37.5t-60.5 -94.5v-336h-68v523z" />
    <glyph glyph-name="o" unicode="o" horiz-adv-x="666" 
d="M55 260q0 120 78 198.5t199 78.5q122 0 200.5 -78.5t78.5 -198.5q0 -118 -78.5 -196t-200.5 -78q-121 0 -199 78t-78 196zM121 260q0 -91 59.5 -151t151.5 -60q94 0 153.5 60t59.5 151q0 92 -59.5 153t-153.5 61q-92 0 -151.5 -61t-59.5 -153z" />
    <glyph glyph-name="p" unicode="p" horiz-adv-x="689" 
d="M200 -188h-68v596q0 66 -48 66q-29 0 -59 -21l-8 55q35 26 89 26q79 0 91 -77q71 75 180 75q114 0 185 -76t71 -196q0 -119 -71 -194.5t-185 -75.5q-108 0 -177 69v-247zM361 471q-48 0 -91 -21t-70 -51v-279q27 -29 70 -49t91 -20q92 0 147.5 58t55.5 151
q0 94 -55.5 152.5t-147.5 58.5z" />
    <glyph glyph-name="q" unicode="q" horiz-adv-x="652" 
d="M57 260q0 120 70 196t185 76q108 0 177 -73v64h68v-711h-68v247q-71 -69 -177 -69q-114 0 -184.5 75.5t-70.5 194.5zM328 51q49 0 91.5 20t69.5 50v277q-26 30 -69.5 51.5t-91.5 21.5q-91 0 -146.5 -58.5t-55.5 -152.5q0 -93 55 -151t147 -58z" />
    <glyph glyph-name="r" unicode="r" horiz-adv-x="458" 
d="M132 0v407q0 66 -48 66q-27 0 -58 -21l-8 54q30 26 88 26q92 0 94 -108q47 108 142 108q71 0 96 -42l-17 -58q-23 36 -87 36q-96 0 -134 -156v-312h-68z" />
    <glyph glyph-name="s" unicode="s" horiz-adv-x="519" 
d="M457 493l-18 -60q-80 40 -170 40q-65 0 -105.5 -26.5t-40.5 -70.5q0 -34 20.5 -48t72.5 -27l115 -26q66 -15 99 -45.5t33 -82.5q0 -70 -53 -113.5t-148 -43.5q-107 0 -195 45l15 60q90 -47 177 -47q65 0 101 26.5t36 67.5q0 31 -25 47.5t-74 27.5l-111 25
q-67 16 -99.5 45t-32.5 85q0 71 59.5 115.5t159.5 44.5q47 0 100.5 -12t83.5 -27z" />
    <glyph glyph-name="t" unicode="t" horiz-adv-x="472" 
d="M138 656h61v-133h217v-56h-218v-306q0 -110 98 -110q30 0 65 11.5t59 29.5l24 -54q-74 -48 -167 -48q-70 0 -108.5 41t-38.5 118v318h-104v56h105z" />
    <glyph glyph-name="u" unicode="u" horiz-adv-x="677" 
d="M477 523h68v-408q0 -66 47 -66q23 0 59 22l8 -55q-38 -26 -89 -26q-85 0 -93 94q-61 -94 -191 -94q-98 0 -149 62.5t-51 167.5v303h68v-294q0 -83 37.5 -129.5t115.5 -46.5q63 0 107.5 34t62.5 85v351z" />
    <glyph glyph-name="v" unicode="v" horiz-adv-x="681" 
d="M131 220v188q0 65 -48 65q-27 0 -58 -20l-8 54q40 26 88 26q94 0 94 -112v-193q0 -84 44 -129.5t119 -45.5q78 0 129 53t51 144q0 135 -58 273h72q54 -142 54 -276q0 -115 -69.5 -186t-178.5 -71q-107 0 -169 61.5t-62 168.5z" />
    <glyph glyph-name="w" unicode="w" horiz-adv-x="1033" 
d="M511 523h68v-296q0 -79 38 -126.5t111 -47.5q79 0 122 56.5t43 142.5q0 122 -57 271h71q54 -142 54 -276q0 -117 -62 -187t-167 -70q-77 0 -121.5 32t-67.5 100q-47 -132 -201 -132q-103 0 -156.5 60t-53.5 170v188q0 34 -10.5 50t-38.5 16t-58 -21l-8 55q48 24 91 24
q92 0 92 -110v-194q0 -175 149 -175q74 0 118 48.5t44 128.5v293z" />
    <glyph glyph-name="x" unicode="x" horiz-adv-x="567" 
d="M534 523v-6l-203 -257l203 -254v-6h-77l-173 218l-173 -218h-77v6l202 254l-202 257v6h75l175 -221l175 221h75z" />
    <glyph glyph-name="y" unicode="y" horiz-adv-x="576" 
d="M17 523h75l207 -448l189 448h69l-240 -559q-34 -84 -75.5 -123t-112.5 -39q-63 0 -119 36l13 57q52 -34 106 -34q46 0 72.5 24.5t49.5 78.5l17 41z" />
    <glyph glyph-name="z" unicode="z" horiz-adv-x="520" 
d="M51 51l332 416h-332v56h418v-51l-331 -416h331v-56h-418v51z" />
    <glyph glyph-name="braceleft" unicode="{" horiz-adv-x="294" 
d="M246 710v-51h-31q-36 0 -57 -20t-21 -51q0 -29 31.5 -112.5t31.5 -127.5q0 -39 -17 -60t-58 -29q41 -8 58 -30t17 -63q0 -43 -31.5 -126t-31.5 -112q0 -31 21 -51t57 -20h31v-51h-37q-65 0 -96.5 31t-31.5 80q0 36 31.5 119t31.5 127q0 73 -97 73v45q97 0 97 75
q0 44 -31.5 126.5t-31.5 118.5q0 47 31.5 78t96.5 31h37z" />
    <glyph glyph-name="bar" unicode="|" horiz-adv-x="249" 
d="M96 -188v898h57v-898h-57z" />
    <glyph glyph-name="braceright" unicode="}" horiz-adv-x="293" 
d="M47 710h37q65 0 96.5 -31t31.5 -78q0 -36 -31 -118.5t-31 -126.5q0 -75 96 -75v-45q-50 0 -73 -18t-23 -55q0 -44 31 -127t31 -119q0 -49 -31.5 -80t-96.5 -31h-37v51h32q36 0 56.5 20t20.5 51q0 29 -31 112t-31 126q0 41 17 63t58 30q-41 8 -58 29t-17 60q0 44 31 127.5
t31 112.5q0 31 -20.5 51t-56.5 20h-32v51z" />
    <glyph glyph-name="asciitilde" unicode="~" horiz-adv-x="517" 
d="M414 352l29 -29q-8 -41 -34.5 -66t-63.5 -25q-36 0 -88.5 43t-83.5 43q-24 0 -44 -17t-26 -50l-29 30q6 38 32.5 64t64.5 26q30 0 61.5 -21.5t60 -43t50.5 -21.5q54 0 71 67z" />
    <glyph glyph-name="uni00A0" unicode="&#xa0;" horiz-adv-x="250" 
 />
    <glyph glyph-name="exclamdown" unicode="&#xa1;" horiz-adv-x="263" 
d="M158 291l8 -448h-69l8 448h53zM187 480q0 -58 -55 -58q-27 0 -42 15t-15 43q0 57 57 57q55 0 55 -57z" />
    <glyph glyph-name="cent" unicode="&#xa2;" 
d="M517 112l28 -53q-93 -73 -215 -73q-22 0 -60 4l-34 -125l-44 12l34 123q-89 25 -132.5 93t-43.5 167q0 122 75 199.5t199 77.5q29 0 50 -4l29 105l44 -11l-29 -105q61 -21 94.5 -68.5t36.5 -114.5l-57 -12q-6 107 -90 139l-116 -418q22 -3 49 -3q91 0 182 67zM115 262
q0 -161 127 -204l116 419q-16 3 -34 3q-95 0 -152 -61t-57 -157z" />
    <glyph glyph-name="sterling" unicode="&#xa3;" 
d="M457 325h-225q20 -106 20 -151q0 -20 -1 -29q14 -8 46.5 -34t62 -44t52.5 -18q50 0 70.5 41.5t20.5 121.5h55v-22q0 -94 -33.5 -147t-102.5 -53q-31 0 -63.5 18.5t-69.5 49.5t-49 39q-29 -107 -113 -107q-42 0 -65 25.5t-23 67.5t27.5 68t72.5 26q34 0 54 -12v10
q0 40 -26 150h-100v46h90q-13 63 -13 124q0 86 50 140.5t146 54.5q65 0 115.5 -29.5t78.5 -60.5l-26 -57q-17 19 -25 27t-29.5 25t-47 24.5t-55.5 7.5q-68 0 -103.5 -40t-35.5 -105q0 -43 11 -111h234v-46zM144 135q-25 0 -42 -14.5t-17 -38.5q0 -48 43 -48q50 0 61 87
q-20 14 -45 14z" />
    <glyph glyph-name="currency" unicode="&#xa4;" horiz-adv-x="567" 
d="M441 500l41 -40l-60 -59q33 -42 33 -100q0 -56 -32 -98l59 -58l-41 -40l-58 58q-43 -32 -102 -32q-57 0 -98 30l-56 -56l-41 40l56 54q-35 43 -35 102q0 60 35 103l-56 56l41 40l56 -58q42 32 98 32q60 0 102 -34zM158 301q0 -52 34.5 -87t88.5 -35t88.5 35t34.5 87
q0 53 -34.5 88.5t-88.5 35.5t-88.5 -35.5t-34.5 -88.5z" />
    <glyph glyph-name="yen" unicode="&#xa5;" 
d="M507 155h-174v-155h-68v155h-174v46h174v73h-174v46h155l-203 354v6h71l185 -336l186 336h72v-6l-206 -354h156v-46h-174v-73h174v-46z" />
    <glyph glyph-name="brokenbar" unicode="&#xa6;" horiz-adv-x="260" 
d="M158 375h-56v335h56v-335zM102 159h56v-347h-56v347z" />
    <glyph glyph-name="section" unicode="&#xa7;" horiz-adv-x="656" 
d="M88 -52l16 60q106 -48 229 -48q78 0 128 22t50 64q0 31 -28.5 46t-91.5 27l-163 30q-79 15 -115 49.5t-36 92.5q0 44 26.5 81t79.5 59q-103 23 -103 109q0 63 64 106.5t181 43.5q138 0 241 -44l-19 -58q-39 18 -103 32t-125 14q-82 0 -127.5 -26t-45.5 -63q0 -50 76 -62
l175 -29q87 -14 135 -55t48 -102q0 -96 -111 -137q111 -31 111 -108q0 -69 -70.5 -109t-182.5 -40q-134 0 -239 45zM377 399l-85 13q-75 -3 -113 -37t-38 -77q0 -39 24.5 -61t83.5 -33l101 -19q74 1 118.5 29.5t44.5 76.5q0 87 -136 108z" />
    <glyph glyph-name="dieresis" unicode="&#xa8;" 
d="M137 671q0 45 46 45q45 0 45 -45q0 -44 -45 -44q-46 0 -46 44zM386 671q0 45 47 45q44 0 44 -45q0 -44 -44 -44q-47 0 -47 44z" />
    <glyph glyph-name="copyright" unicode="&#xa9;" horiz-adv-x="839" 
d="M69 339q0 151 100 251t249 100q151 0 251 -100t100 -251q0 -149 -100 -249t-251 -100q-149 0 -249 100t-100 249zM113 339q0 -131 87 -219t218 -88q132 0 220 88t88 219q0 133 -87.5 221t-220.5 88q-131 0 -218 -88t-87 -221zM530 257l31 -38q-59 -55 -140 -55
q-77 0 -125 47t-48 128t48 128t125 47q65 0 101 -34t38 -94l-46 -11q-1 42 -25 65.5t-68 23.5q-53 0 -85.5 -33.5t-32.5 -91.5q0 -59 32.5 -92t87.5 -33q60 0 107 43z" />
    <glyph glyph-name="ordfeminine" unicode="&#xaa;" horiz-adv-x="496" 
d="M124 620l-10 45q46 22 110 22q127 0 127 -108v-151q0 -39 29 -39q14 0 35 13l4 -40q-28 -16 -58 -16q-45 0 -56 44q-44 -44 -107 -44q-52 0 -83 28t-31 76q0 55 45 84.5t121 29.5q23 0 51 -6v17q0 37 -18 53t-58 16q-56 0 -101 -24zM98 258h303v-43h-303v43zM132 453
q0 -30 21.5 -47t57.5 -17q49 0 90 36v97q-16 6 -49 6q-120 0 -120 -75z" />
    <glyph glyph-name="guillemotleft" unicode="&#xab;" horiz-adv-x="517" 
d="M53 295v15l159 199h6l24 -21l-130 -185l131 -186l-25 -20h-6zM259 295v15l159 199h6l24 -21l-130 -185l131 -186l-25 -20h-6z" />
    <glyph glyph-name="logicalnot" unicode="&#xac;" 
d="M472 134v200h-401v56h457v-256h-56z" />
    <glyph glyph-name="uni00AD" unicode="&#xad;" horiz-adv-x="530" 
d="M80 331h371v-57h-371v57z" />
    <glyph glyph-name="registered" unicode="&#xae;" horiz-adv-x="839" 
d="M69 339q0 151 100 251t249 100q151 0 251 -100t100 -251q0 -149 -100 -249t-251 -100q-149 0 -249 100t-100 249zM113 339q0 -131 87 -219t218 -88q132 0 220 88t88 219q0 133 -87.5 221t-220.5 88q-131 0 -218 -88t-87 -221zM375 289v4h-39v-124h-53v340h129
q143 0 143 -110q0 -48 -30.5 -73.5t-78.5 -31.5l20 -20t23.5 -23t22 -18.5t26 -15.5t24.5 -5q21 0 43 10l6 -45q-26 -13 -55 -13q-28 0 -57.5 18t-49.5 40.5t-41 43t-33 23.5zM434 464h-98v-132h98q29 0 49 18t20 47q0 33 -19.5 50t-49.5 17z" />
    <glyph glyph-name="macron" unicode="&#xaf;" 
d="M426 636h-239v50h239v-50z" />
    <glyph glyph-name="degree" unicode="&#xb0;" horiz-adv-x="462" 
d="M57 517q0 74 49.5 123t124.5 49q76 0 125 -49t49 -123t-49 -122.5t-125 -48.5t-125 48.5t-49 122.5zM108 517q0 -53 34.5 -87.5t88.5 -34.5t88.5 34.5t34.5 87.5t-34.5 88t-88.5 35t-88.5 -35t-34.5 -88z" />
    <glyph glyph-name="plusminus" unicode="&#xb1;" 
d="M328 641v-200h200v-56h-200v-157h-56v157h-200v56h200v200h56zM72 137h456v-56h-456v56z" />
    <glyph glyph-name="twosuperior" unicode="&#xb2;" horiz-adv-x="330" 
d="M288 466h-239v34l131 99q55 40 55 85q0 29 -18.5 47.5t-53.5 18.5q-39 0 -59.5 -21t-21.5 -56l-40 6q2 51 33.5 81t87.5 30t85.5 -29t29.5 -76q0 -63 -68 -112l-94 -69h172v-38z" />
    <glyph glyph-name="threesuperior" unicode="&#xb3;" horiz-adv-x="327" 
d="M79 648h82q31 0 49 15.5t18 36.5q0 52 -79 52q-50 0 -96 -22l-10 38q55 22 106 22q57 0 89.5 -22.5t32.5 -63.5q0 -27 -16 -47t-44 -25q71 -13 71 -79q0 -43 -35.5 -67.5t-97.5 -24.5q-51 0 -107 21l11 37q46 -20 96 -20q39 0 64 16t25 44q0 52 -77 52h-82v37z" />
    <glyph glyph-name="acute" unicode="&#xb4;" 
d="M383 741l-90 -137h-62l82 137h70z" />
    <glyph glyph-name="mu" unicode="&#xb5;" horiz-adv-x="644" 
d="M172 523v-297q3 -173 152 -173q64 0 109 35t62 87v348h68v-523h-68v85q-62 -95 -192 -95q-81 0 -131 44v-222h-68v711h68z" />
    <glyph glyph-name="paragraph" unicode="&#xb6;" horiz-adv-x="526" 
d="M272 523v-711h-55v482h-58q-53 0 -86 30t-33 84t33 84t86 31h113zM374 -188v711h56v-711h-56z" />
    <glyph glyph-name="periodcentered" unicode="&#xb7;" horiz-adv-x="263" 
d="M77 298q0 56 54 56q55 0 55 -56t-55 -56q-54 0 -54 56z" />
    <glyph glyph-name="cedilla" unicode="&#xb8;" 
d="M228 -96l26 96h35l-18 -67q18 4 33 4q38 0 60.5 -17.5t22.5 -45.5q0 -34 -28.5 -53t-72.5 -19q-37 0 -73 12l8 30q34 -12 64 -12q64 0 64 41q0 35 -58 35q-36 0 -60 -8z" />
    <glyph glyph-name="onesuperior" unicode="&#xb9;" horiz-adv-x="252" 
d="M18 717l135 67h35v-319h-43v272l-110 -54z" />
    <glyph glyph-name="ordmasculine" unicode="&#xba;" horiz-adv-x="509" 
d="M81 517q0 74 49.5 123t124.5 49q76 0 125 -49t49 -123t-49 -122.5t-125 -48.5t-125 48.5t-49 122.5zM128 517q0 -54 35.5 -90t91.5 -36t91 35.5t35 90.5t-35 91t-91 36t-91.5 -36t-35.5 -91zM104 258h303v-43h-303v43z" />
    <glyph glyph-name="guillemotright" unicode="&#xbb;" horiz-adv-x="517" 
d="M259 310v-15l-159 -198h-6l-24 20l129 186l-130 185l25 21h6zM465 310v-15l-159 -198h-6l-24 20l129 186l-130 185l25 21h6z" />
    <glyph glyph-name="onequarter" unicode="&#xbc;" horiz-adv-x="756" 
d="M715 67h-67v-67h-43v67h-189v31l179 221l10 -2v2h43v-218h67v-34zM131 6l369 674h44v-6l-368 -674h-45v6zM35 617l135 67h35v-319h-43v272l-110 -54zM462 101h143v176z" />
    <glyph glyph-name="onehalf" unicode="&#xbd;" horiz-adv-x="733" 
d="M131 6l369 674h44v-6l-368 -674h-45v6zM442 0v34l131 99q55 40 55 85q0 29 -18.5 47.5t-53.5 18.5q-39 0 -59.5 -21t-21.5 -56l-40 6q2 51 33.5 81t87.5 30t85.5 -29t29.5 -76q0 -63 -68 -112l-94 -69h172v-38h-239zM35 612l135 67h35v-319h-43v272l-110 -54z" />
    <glyph glyph-name="threequarters" unicode="&#xbe;" horiz-adv-x="820" 
d="M782 67h-67v-67h-43v67h-189v31l179 221l10 -2v2h43v-218h67v-34zM198 6l369 674h44v-6l-368 -674h-45v6zM94 548h82q31 0 49 15.5t18 36.5q0 52 -79 52q-50 0 -96 -22l-10 38q55 22 106 22q57 0 89.5 -22.5t32.5 -63.5q0 -27 -16 -47t-44 -25q71 -13 71 -79
q0 -43 -35.5 -67.5t-97.5 -24.5q-51 0 -107 21l11 37q46 -20 96 -20q39 0 64 16t25 44q0 52 -77 52h-82v37zM529 101h143v176z" />
    <glyph glyph-name="questiondown" unicode="&#xbf;" horiz-adv-x="475" 
d="M242 291h59q6 -18 6 -41q0 -46 -53 -82l-59 -43q-24 -17 -37 -30t-23.5 -36t-10.5 -52q0 -53 36 -85t91 -32q104 0 154 81l27 -50q-63 -89 -189 -89q-83 0 -135.5 47.5t-52.5 123.5q0 42 15 74.5t31.5 48t45.5 37.5l62 44q22 16 29.5 27.5t7.5 29.5q0 14 -4 27zM326 480
q0 -58 -55 -58q-27 0 -42 15t-15 43q0 57 57 57q55 0 55 -57z" />
    <glyph glyph-name="Agrave" unicode="&#xc0;" horiz-adv-x="695" 
d="M20 0l292 680h78l277 -680h-69l-68 165h-370l-71 -165h-69zM351 611l-171 -393h332zM324 761l-90 137h70l82 -137h-62z" />
    <glyph glyph-name="Aacute" unicode="&#xc1;" horiz-adv-x="695" 
d="M20 0l292 680h78l277 -680h-69l-68 165h-370l-71 -165h-69zM351 611l-171 -393h332zM459 898l-90 -137h-62l82 137h70z" />
    <glyph glyph-name="Acircumflex" unicode="&#xc2;" horiz-adv-x="695" 
d="M20 0l292 680h78l277 -680h-69l-68 165h-370l-71 -165h-69zM351 611l-171 -393h332zM434 761l-84 98l-83 -98h-60l109 137h69l109 -137h-60z" />
    <glyph glyph-name="Atilde" unicode="&#xc3;" horiz-adv-x="695" 
d="M20 0l292 680h78l277 -680h-69l-68 165h-370l-71 -165h-69zM351 611l-171 -393h332zM208 783l-26 30q14 29 39.5 49.5t56.5 20.5q29 0 77 -34t66 -34q46 0 70 49l26 -29q-35 -70 -95 -70q-29 0 -77 34t-66 34q-43 0 -71 -50z" />
    <glyph glyph-name="Adieresis" unicode="&#xc4;" horiz-adv-x="695" 
d="M20 0l292 680h78l277 -680h-69l-68 165h-370l-71 -165h-69zM351 611l-171 -393h332zM181 828q0 45 46 45q45 0 45 -45q0 -44 -45 -44q-46 0 -46 44zM430 828q0 45 47 45q44 0 44 -45q0 -44 -44 -44q-47 0 -47 44z" />
    <glyph glyph-name="Aring" unicode="&#xc5;" horiz-adv-x="695" 
d="M252 748q0 40 29 69t69 29t69 -29t29 -69q0 -27 -14 -50.5t-37 -35.5l270 -662h-69l-68 165h-370l-71 -165h-69l284 661q-52 29 -52 87zM351 611l-171 -393h332zM287 748q0 -26 18.5 -44.5t44.5 -18.5t44.5 18.5t18.5 44.5t-18.5 44.5t-44.5 18.5t-44.5 -18.5
t-18.5 -44.5z" />
    <glyph glyph-name="AE" unicode="&#xc6;" horiz-adv-x="1060" 
d="M472 0v165h-285l-106 -165h-75l432 680h551v-61h-451v-236h378v-57h-378v-265h451v-61h-517zM217 218h255v403z" />
    <glyph glyph-name="Ccedilla" unicode="&#xc7;" horiz-adv-x="755" 
d="M336 -96l24 90q-132 16 -211.5 107.5t-79.5 237.5q0 163 95.5 257t249.5 94q129 0 202 -68.5t76 -188.5l-63 -13q-3 97 -58.5 151.5t-157.5 54.5q-124 0 -199 -76.5t-75 -210.5q0 -133 75.5 -209t200.5 -76q68 0 133 28t109 70l36 -52q-49 -47 -124 -78.5t-155 -31.5
q-13 0 -20 1l-15 -58q18 4 33 4q38 0 60.5 -17.5t22.5 -45.5q0 -34 -28.5 -53t-72.5 -19q-37 0 -73 12l8 30q34 -12 64 -12q64 0 64 41q0 35 -58 35q-36 0 -60 -8z" />
    <glyph glyph-name="Egrave" unicode="&#xc8;" horiz-adv-x="700" 
d="M629 0h-517v680h517v-61h-451v-234h378v-61h-378v-263h451v-61zM343 761l-90 137h70l82 -137h-62z" />
    <glyph glyph-name="Eacute" unicode="&#xc9;" horiz-adv-x="700" 
d="M629 0h-517v680h517v-61h-451v-234h378v-61h-378v-263h451v-61zM481 898l-90 -137h-62l82 137h70z" />
    <glyph glyph-name="Ecircumflex" unicode="&#xca;" horiz-adv-x="700" 
d="M629 0h-517v680h517v-61h-451v-234h378v-61h-378v-263h451v-61zM453 761l-84 98l-83 -98h-60l109 137h69l109 -137h-60z" />
    <glyph glyph-name="Edieresis" unicode="&#xcb;" horiz-adv-x="700" 
d="M629 0h-517v680h517v-61h-451v-234h378v-61h-378v-263h451v-61zM200 828q0 45 46 45q45 0 45 -45q0 -44 -45 -44q-46 0 -46 44zM449 828q0 45 47 45q44 0 44 -45q0 -44 -44 -44q-47 0 -47 44z" />
    <glyph glyph-name="Igrave" unicode="&#xcc;" horiz-adv-x="292" 
d="M112 0v680h68v-680h-68zM123 761l-90 137h70l82 -137h-62z" />
    <glyph glyph-name="Iacute" unicode="&#xcd;" horiz-adv-x="292" 
d="M112 0v680h68v-680h-68zM264 898l-90 -137h-62l82 137h70z" />
    <glyph glyph-name="Icircumflex" unicode="&#xce;" horiz-adv-x="292" 
d="M112 0v680h68v-680h-68zM229 761l-84 98l-83 -98h-60l109 137h69l109 -137h-60z" />
    <glyph glyph-name="Idieresis" unicode="&#xcf;" horiz-adv-x="292" 
d="M112 0v680h68v-680h-68zM-25 828q0 45 46 45q45 0 45 -45q0 -44 -45 -44q-46 0 -46 44zM224 828q0 45 47 45q44 0 44 -45q0 -44 -44 -44q-47 0 -47 44z" />
    <glyph glyph-name="Eth" unicode="&#xd0;" horiz-adv-x="792" 
d="M113 0v313h-65v56h65v311h260q156 -1 253.5 -90.5t97.5 -250.5q0 -160 -97.5 -249.5t-253.5 -89.5h-260zM356 313h-175v-252h190q127 0 205.5 73t78.5 205q0 134 -78.5 207t-205.5 73h-190v-250h175v-56z" />
    <glyph glyph-name="Ntilde" unicode="&#xd1;" horiz-adv-x="836" 
d="M663 0l-483 571v-571h-68v680h61l483 -573v573h68v-680h-61zM283 783l-26 30q14 29 39.5 49.5t56.5 20.5q29 0 77 -34t66 -34q46 0 70 49l26 -29q-35 -70 -95 -70q-29 0 -77 34t-66 34q-43 0 -71 -50z" />
    <glyph glyph-name="Ograve" unicode="&#xd2;" horiz-adv-x="832" 
d="M66 339q0 151 100 251t249 100q151 0 251 -100t100 -251q0 -149 -100 -249t-251 -100q-149 0 -249 100t-100 249zM133 339q0 -122 80.5 -203.5t201.5 -81.5q123 0 203.5 81t80.5 204q0 124 -80 205t-204 81q-122 0 -202 -81t-80 -205zM387 761l-90 137h70l82 -137h-62z
" />
    <glyph glyph-name="Oacute" unicode="&#xd3;" horiz-adv-x="832" 
d="M66 339q0 151 100 251t249 100q151 0 251 -100t100 -251q0 -149 -100 -249t-251 -100q-149 0 -249 100t-100 249zM133 339q0 -122 80.5 -203.5t201.5 -81.5q123 0 203.5 81t80.5 204q0 124 -80 205t-204 81q-122 0 -202 -81t-80 -205zM533 898l-90 -137h-62l82 137h70z
" />
    <glyph glyph-name="Ocircumflex" unicode="&#xd4;" horiz-adv-x="832" 
d="M66 339q0 151 100 251t249 100q151 0 251 -100t100 -251q0 -149 -100 -249t-251 -100q-149 0 -249 100t-100 249zM133 339q0 -122 80.5 -203.5t201.5 -81.5q123 0 203.5 81t80.5 204q0 124 -80 205t-204 81q-122 0 -202 -81t-80 -205zM498 761l-84 98l-83 -98h-60
l109 137h69l109 -137h-60z" />
    <glyph glyph-name="Otilde" unicode="&#xd5;" horiz-adv-x="832" 
d="M66 339q0 151 100 251t249 100q151 0 251 -100t100 -251q0 -149 -100 -249t-251 -100q-149 0 -249 100t-100 249zM133 339q0 -122 80.5 -203.5t201.5 -81.5q123 0 203.5 81t80.5 204q0 124 -80 205t-204 81q-122 0 -202 -81t-80 -205zM273 783l-26 30q14 29 39.5 49.5
t56.5 20.5q29 0 77 -34t66 -34q46 0 70 49l26 -29q-35 -70 -95 -70q-29 0 -77 34t-66 34q-43 0 -71 -50z" />
    <glyph glyph-name="Odieresis" unicode="&#xd6;" horiz-adv-x="832" 
d="M66 339q0 151 100 251t249 100q151 0 251 -100t100 -251q0 -149 -100 -249t-251 -100q-149 0 -249 100t-100 249zM133 339q0 -122 80.5 -203.5t201.5 -81.5q123 0 203.5 81t80.5 204q0 124 -80 205t-204 81q-122 0 -202 -81t-80 -205zM245 828q0 45 46 45q45 0 45 -45
q0 -44 -45 -44q-46 0 -46 44zM494 828q0 45 47 45q44 0 44 -45q0 -44 -44 -44q-47 0 -47 44z" />
    <glyph glyph-name="multiply" unicode="&#xd7;" 
d="M481 443l-142 -141l142 -141l-40 -40l-141 142l-141 -142l-40 40l141 141l-141 141l40 40l141 -141l141 141z" />
    <glyph glyph-name="Oslash" unicode="&#xd8;" horiz-adv-x="832" 
d="M66 339q0 151 100 251t249 100q117 0 207 -63l43 53h54v-6l-62 -76q109 -101 109 -259q0 -149 -100 -249t-251 -100q-114 0 -202 60l-41 -50h-53v6l59 72q-112 101 -112 261zM132 339q0 -129 87 -210l362 447q-74 50 -166 50q-122 0 -202.5 -81.5t-80.5 -205.5zM699 339
q0 125 -83 208l-362 -446q70 -47 161 -47q123 0 203.5 81t80.5 204z" />
    <glyph glyph-name="Ugrave" unicode="&#xd9;" horiz-adv-x="788" 
d="M171 680v-401q0 -105 55.5 -166t166.5 -61t167.5 63.5t56.5 164.5v400h68v-404q0 -123 -76 -205.5t-216 -82.5q-141 0 -215.5 79t-74.5 209v404h68zM365 761l-90 137h70l82 -137h-62z" />
    <glyph glyph-name="Uacute" unicode="&#xda;" horiz-adv-x="788" 
d="M171 680v-401q0 -105 55.5 -166t166.5 -61t167.5 63.5t56.5 164.5v400h68v-404q0 -123 -76 -205.5t-216 -82.5q-141 0 -215.5 79t-74.5 209v404h68zM512 898l-90 -137h-62l82 137h70z" />
    <glyph glyph-name="Ucircumflex" unicode="&#xdb;" horiz-adv-x="788" 
d="M171 680v-401q0 -105 55.5 -166t166.5 -61t167.5 63.5t56.5 164.5v400h68v-404q0 -123 -76 -205.5t-216 -82.5q-141 0 -215.5 79t-74.5 209v404h68zM476 761l-84 98l-83 -98h-60l109 137h69l109 -137h-60z" />
    <glyph glyph-name="Udieresis" unicode="&#xdc;" horiz-adv-x="788" 
d="M171 680v-401q0 -105 55.5 -166t166.5 -61t167.5 63.5t56.5 164.5v400h68v-404q0 -123 -76 -205.5t-216 -82.5q-141 0 -215.5 79t-74.5 209v404h68zM223 828q0 45 46 45q45 0 45 -45q0 -44 -45 -44q-46 0 -46 44zM472 828q0 45 47 45q44 0 44 -45q0 -44 -44 -44
q-47 0 -47 44z" />
    <glyph glyph-name="Yacute" unicode="&#xdd;" horiz-adv-x="667" 
d="M299 0v287l-284 387v6h76l242 -330l243 330h75v-6l-284 -386v-288h-68zM451 898l-90 -137h-62l82 137h70z" />
    <glyph glyph-name="Thorn" unicode="&#xde;" horiz-adv-x="690" 
d="M112 0v680h68v-110h224q105 0 171 -54t66 -169q0 -105 -67.5 -162t-169.5 -57h-224v-128h-68zM396 510h-216v-322h216q77 0 126.5 40.5t49.5 119.5q0 84 -48.5 123t-127.5 39z" />
    <glyph glyph-name="germandbls" unicode="&#xdf;" horiz-adv-x="659" 
d="M335 720q97 0 157 -56t60 -136q0 -33 -14.5 -63.5t-32 -48.5t-32 -34.5t-14.5 -24.5q0 -7 23.5 -24.5t51 -39t51 -59t23.5 -78.5q0 -79 -53.5 -122.5t-139.5 -43.5q-89 0 -151 33l12 57q52 -31 122 -31q60 0 98.5 30t38.5 82q0 35 -23.5 66.5t-52 50.5t-52 39t-23.5 34
q0 15 15.5 33.5t34 35.5t34 45.5t15.5 59.5q0 59 -44 96.5t-108 37.5q-78 0 -123 -54t-45 -146v-459h-68v454q0 125 67 195.5t173 70.5z" />
    <glyph glyph-name="agrave" unicode="&#xe0;" horiz-adv-x="689" 
d="M557 523v-408q0 -66 48 -66q24 0 58 22l8 -55q-41 -26 -88 -26q-78 0 -90 78q-32 -34 -79 -56t-102 -22q-115 0 -185 75t-70 194q0 120 70 196.5t185 76.5q106 0 177 -71v62h68zM489 121v279q-26 30 -69 50.5t-92 20.5q-92 0 -147 -59t-55 -153q0 -92 55.5 -150
t146.5 -58q48 0 90.5 20.5t70.5 49.5zM324 604l-90 137h70l82 -137h-62z" />
    <glyph glyph-name="aacute" unicode="&#xe1;" horiz-adv-x="689" 
d="M557 523v-408q0 -66 48 -66q24 0 58 22l8 -55q-41 -26 -88 -26q-78 0 -90 78q-32 -34 -79 -56t-102 -22q-115 0 -185 75t-70 194q0 120 70 196.5t185 76.5q106 0 177 -71v62h68zM489 121v279q-26 30 -69 50.5t-92 20.5q-92 0 -147 -59t-55 -153q0 -92 55.5 -150
t146.5 -58q48 0 90.5 20.5t70.5 49.5zM460 741l-90 -137h-62l82 137h70z" />
    <glyph glyph-name="acircumflex" unicode="&#xe2;" horiz-adv-x="689" 
d="M557 523v-408q0 -66 48 -66q24 0 58 22l8 -55q-41 -26 -88 -26q-78 0 -90 78q-32 -34 -79 -56t-102 -22q-115 0 -185 75t-70 194q0 120 70 196.5t185 76.5q106 0 177 -71v62h68zM489 121v279q-26 30 -69 50.5t-92 20.5q-92 0 -147 -59t-55 -153q0 -92 55.5 -150
t146.5 -58q48 0 90.5 20.5t70.5 49.5zM418 604l-84 98l-83 -98h-60l109 137h69l109 -137h-60z" />
    <glyph glyph-name="atilde" unicode="&#xe3;" horiz-adv-x="689" 
d="M557 523v-408q0 -66 48 -66q24 0 58 22l8 -55q-41 -26 -88 -26q-78 0 -90 78q-32 -34 -79 -56t-102 -22q-115 0 -185 75t-70 194q0 120 70 196.5t185 76.5q106 0 177 -71v62h68zM489 121v279q-26 30 -69 50.5t-92 20.5q-92 0 -147 -59t-55 -153q0 -92 55.5 -150
t146.5 -58q48 0 90.5 20.5t70.5 49.5zM195 626l-26 30q14 29 39.5 49.5t56.5 20.5q29 0 77 -34t66 -34q46 0 70 49l26 -29q-35 -70 -95 -70q-29 0 -77 34t-66 34q-43 0 -71 -50z" />
    <glyph glyph-name="adieresis" unicode="&#xe4;" horiz-adv-x="689" 
d="M557 523v-408q0 -66 48 -66q24 0 58 22l8 -55q-41 -26 -88 -26q-78 0 -90 78q-32 -34 -79 -56t-102 -22q-115 0 -185 75t-70 194q0 120 70 196.5t185 76.5q106 0 177 -71v62h68zM489 121v279q-26 30 -69 50.5t-92 20.5q-92 0 -147 -59t-55 -153q0 -92 55.5 -150
t146.5 -58q48 0 90.5 20.5t70.5 49.5zM182 671q0 45 46 45q45 0 45 -45q0 -44 -45 -44q-46 0 -46 44zM431 671q0 45 47 45q44 0 44 -45q0 -44 -44 -44q-47 0 -47 44z" />
    <glyph glyph-name="aring" unicode="&#xe5;" horiz-adv-x="689" 
d="M557 523v-408q0 -66 48 -66q24 0 58 22l8 -55q-41 -26 -88 -26q-78 0 -90 78q-32 -34 -79 -56t-102 -22q-115 0 -185 75t-70 194q0 120 70 196.5t185 76.5q106 0 177 -71v62h68zM489 121v279q-26 30 -69 50.5t-92 20.5q-92 0 -147 -59t-55 -153q0 -92 55.5 -150
t146.5 -58q48 0 90.5 20.5t70.5 49.5zM244 670q0 40 29 69t69 29t69 -29t29 -69t-29 -69t-69 -29t-69 29t-29 69zM279 670q0 -26 18.5 -44.5t44.5 -18.5t44.5 18.5t18.5 44.5t-18.5 44.5t-44.5 18.5t-44.5 -18.5t-18.5 -44.5z" />
    <glyph glyph-name="ae" unicode="&#xe6;" horiz-adv-x="930" 
d="M864 237h-384q2 -91 43.5 -142t139.5 -51q90 0 172 63l29 -50q-89 -71 -206 -71q-151 0 -202 104q-28 -28 -51.5 -46.5t-71 -38.5t-97.5 -20q-87 0 -138.5 45.5t-51.5 118.5q0 91 70 138t191 47q65 0 104 -9q0 84 -26 118.5t-102 34.5q-97 0 -173 -37l-14 60
q80 36 194 36q88 0 123 -34t47 -97q22 52 71 91.5t122 39.5q108 0 163.5 -62t55.5 -156q0 -50 -8 -82zM654 479q-80 0 -123.5 -56t-45.5 -131h322l3 33q0 67 -40.5 110.5t-115.5 43.5zM114 154q0 -50 36.5 -80t98.5 -30q78 0 161 78v147q-48 11 -104 10q-192 -2 -192 -125z
" />
    <glyph glyph-name="ccedilla" unicode="&#xe7;" horiz-adv-x="609" 
d="M260 -96l23 86q-114 14 -170 86t-56 184q0 122 75 199.5t199 77.5q105 0 163.5 -53.5t62.5 -144.5l-62 -14q-4 71 -45 111t-119 40q-94 0 -149 -60t-55 -154q0 -97 53 -156t164 -59q91 0 180 67l28 -55q-91 -73 -215 -73q-13 0 -20 1l-14 -54q18 4 33 4q38 0 60.5 -17.5
t22.5 -45.5q0 -34 -28.5 -53t-72.5 -19q-37 0 -73 12l8 30q34 -12 64 -12q64 0 64 41q0 35 -58 35q-36 0 -60 -8z" />
    <glyph glyph-name="egrave" unicode="&#xe8;" horiz-adv-x="616" 
d="M521 108l29 -51q-89 -71 -214 -71q-140 0 -210.5 76.5t-70.5 197.5q0 117 75 197t198 80q113 0 171.5 -61.5t58.5 -156.5q0 -48 -9 -82h-425q6 -87 59 -140t155 -53q100 0 183 64zM490 292q3 33 3 37q0 64 -42 107t-124 43q-89 0 -142.5 -54t-58.5 -133h364zM315 604
l-90 137h70l82 -137h-62z" />
    <glyph glyph-name="eacute" unicode="&#xe9;" horiz-adv-x="616" 
d="M521 108l29 -51q-89 -71 -214 -71q-140 0 -210.5 76.5t-70.5 197.5q0 117 75 197t198 80q113 0 171.5 -61.5t58.5 -156.5q0 -48 -9 -82h-425q6 -87 59 -140t155 -53q100 0 183 64zM490 292q3 33 3 37q0 64 -42 107t-124 43q-89 0 -142.5 -54t-58.5 -133h364zM442 741
l-90 -137h-62l82 137h70z" />
    <glyph glyph-name="ecircumflex" unicode="&#xea;" horiz-adv-x="616" 
d="M521 108l29 -51q-89 -71 -214 -71q-140 0 -210.5 76.5t-70.5 197.5q0 117 75 197t198 80q113 0 171.5 -61.5t58.5 -156.5q0 -48 -9 -82h-425q6 -87 59 -140t155 -53q100 0 183 64zM490 292q3 33 3 37q0 64 -42 107t-124 43q-89 0 -142.5 -54t-58.5 -133h364zM416 604
l-84 98l-83 -98h-60l109 137h69l109 -137h-60z" />
    <glyph glyph-name="edieresis" unicode="&#xeb;" horiz-adv-x="616" 
d="M521 108l29 -51q-89 -71 -214 -71q-140 0 -210.5 76.5t-70.5 197.5q0 117 75 197t198 80q113 0 171.5 -61.5t58.5 -156.5q0 -48 -9 -82h-425q6 -87 59 -140t155 -53q100 0 183 64zM490 292q3 33 3 37q0 64 -42 107t-124 43q-89 0 -142.5 -54t-58.5 -133h364zM162 671
q0 45 46 45q45 0 45 -45q0 -44 -45 -44q-46 0 -46 44zM411 671q0 45 47 45q44 0 44 -45q0 -44 -44 -44q-47 0 -47 44z" />
    <glyph glyph-name="igrave" unicode="&#xec;" horiz-adv-x="299" 
d="M95 523h68v-408q0 -66 48 -66q27 0 57 22l9 -55q-12 -10 -38 -18t-51 -8q-93 0 -93 112v421zM114 604l-90 137h70l82 -137h-62z" />
    <glyph glyph-name="iacute" unicode="&#xed;" horiz-adv-x="299" 
d="M95 523h68v-408q0 -66 48 -66q27 0 57 22l9 -55q-12 -10 -38 -18t-51 -8q-93 0 -93 112v421zM248 741l-90 -137h-62l82 137h70z" />
    <glyph glyph-name="icircumflex" unicode="&#xee;" horiz-adv-x="299" 
d="M95 523h68v-408q0 -66 48 -66q27 0 57 22l9 -55q-12 -10 -38 -18t-51 -8q-93 0 -93 112v421zM212 604l-84 98l-83 -98h-60l109 137h69l109 -137h-60z" />
    <glyph glyph-name="idieresis" unicode="&#xef;" horiz-adv-x="299" 
d="M95 523h68v-408q0 -66 48 -66q27 0 57 22l9 -55q-12 -10 -38 -18t-51 -8q-93 0 -93 112v421zM-41 671q0 45 46 45q45 0 45 -45q0 -44 -45 -44q-46 0 -46 44zM208 671q0 45 47 45q44 0 44 -45q0 -44 -44 -44q-47 0 -47 44z" />
    <glyph glyph-name="eth" unicode="&#xf0;" horiz-adv-x="626" 
d="M485 705l-62 -64q61 -53 97 -130t36 -170q0 -161 -71.5 -256t-198.5 -95q-100 0 -165 66.5t-65 172.5q0 103 58.5 164t158.5 61q131 0 215 -126v13q0 151 -108 255l-67 -69l-23 21l66 69q-50 40 -104 58l27 45q63 -17 120 -59l62 65zM288 53q80 0 130 57t65 155
q-12 20 -27.5 39t-40.5 42t-58.5 36.5t-70.5 13.5q-73 0 -117.5 -44t-44.5 -124q0 -75 46.5 -125t117.5 -50z" />
    <glyph glyph-name="ntilde" unicode="&#xf1;" horiz-adv-x="678" 
d="M95 523h68v-96q58 105 191 105q97 0 148 -64t51 -167v-186q0 -66 48 -66q25 0 59 22l8 -55q-40 -26 -89 -26q-94 0 -94 112v190q0 79 -39 127.5t-113 48.5q-64 0 -109.5 -37.5t-60.5 -94.5v-336h-68v523zM191 626l-26 30q14 29 39.5 49.5t56.5 20.5q29 0 77 -34t66 -34
q46 0 70 49l26 -29q-35 -70 -95 -70q-29 0 -77 34t-66 34q-43 0 -71 -50z" />
    <glyph glyph-name="ograve" unicode="&#xf2;" horiz-adv-x="666" 
d="M55 260q0 120 78 198.5t199 78.5q122 0 200.5 -78.5t78.5 -198.5q0 -118 -78.5 -196t-200.5 -78q-121 0 -199 78t-78 196zM121 260q0 -91 59.5 -151t151.5 -60q94 0 153.5 60t59.5 151q0 92 -59.5 153t-153.5 61q-92 0 -151.5 -61t-59.5 -153zM304 604l-90 137h70
l82 -137h-62z" />
    <glyph glyph-name="oacute" unicode="&#xf3;" horiz-adv-x="666" 
d="M55 260q0 120 78 198.5t199 78.5q122 0 200.5 -78.5t78.5 -198.5q0 -118 -78.5 -196t-200.5 -78q-121 0 -199 78t-78 196zM121 260q0 -91 59.5 -151t151.5 -60q94 0 153.5 60t59.5 151q0 92 -59.5 153t-153.5 61q-92 0 -151.5 -61t-59.5 -153zM450 741l-90 -137h-62
l82 137h70z" />
    <glyph glyph-name="ocircumflex" unicode="&#xf4;" horiz-adv-x="666" 
d="M55 260q0 120 78 198.5t199 78.5q122 0 200.5 -78.5t78.5 -198.5q0 -118 -78.5 -196t-200.5 -78q-121 0 -199 78t-78 196zM121 260q0 -91 59.5 -151t151.5 -60q94 0 153.5 60t59.5 151q0 92 -59.5 153t-153.5 61q-92 0 -151.5 -61t-59.5 -153zM415 604l-84 98l-83 -98
h-60l109 137h69l109 -137h-60z" />
    <glyph glyph-name="otilde" unicode="&#xf5;" horiz-adv-x="666" 
d="M55 260q0 120 78 198.5t199 78.5q122 0 200.5 -78.5t78.5 -198.5q0 -118 -78.5 -196t-200.5 -78q-121 0 -199 78t-78 196zM121 260q0 -91 59.5 -151t151.5 -60q94 0 153.5 60t59.5 151q0 92 -59.5 153t-153.5 61q-92 0 -151.5 -61t-59.5 -153zM190 626l-26 30
q14 29 39.5 49.5t56.5 20.5q29 0 77 -34t66 -34q46 0 70 49l26 -29q-35 -70 -95 -70q-29 0 -77 34t-66 34q-43 0 -71 -50z" />
    <glyph glyph-name="odieresis" unicode="&#xf6;" horiz-adv-x="666" 
d="M55 260q0 120 78 198.5t199 78.5q122 0 200.5 -78.5t78.5 -198.5q0 -118 -78.5 -196t-200.5 -78q-121 0 -199 78t-78 196zM121 260q0 -91 59.5 -151t151.5 -60q94 0 153.5 60t59.5 151q0 92 -59.5 153t-153.5 61q-92 0 -151.5 -61t-59.5 -153zM162 671q0 45 46 45
q45 0 45 -45q0 -44 -45 -44q-46 0 -46 44zM411 671q0 45 47 45q44 0 44 -45q0 -44 -44 -44q-47 0 -47 44z" />
    <glyph glyph-name="divide" unicode="&#xf7;" 
d="M72 330h456v-56h-456v56zM241 478q0 54 51 54q25 0 39 -14.5t14 -39.5q0 -54 -53 -54q-51 0 -51 54zM241 127q0 53 51 53q25 0 39 -14t14 -39q0 -54 -53 -54q-51 0 -51 54z" />
    <glyph glyph-name="oslash" unicode="&#xf8;" horiz-adv-x="666" 
d="M55 260q0 120 78 198.5t199 78.5q100 0 172 -55l33 40h41v-6l-47 -57q80 -78 80 -199q0 -118 -78.5 -196t-200.5 -78q-85 0 -153 41l-22 -27h-42v6l35 42q-95 79 -95 212zM121 260q0 -101 70 -161l272 333q-54 42 -131 42q-92 0 -151.5 -61t-59.5 -153zM545 260
q0 88 -55 148l-270 -330q49 -29 112 -29q94 0 153.5 60t59.5 151z" />
    <glyph glyph-name="ugrave" unicode="&#xf9;" horiz-adv-x="677" 
d="M477 523h68v-408q0 -66 47 -66q23 0 59 22l8 -55q-38 -26 -89 -26q-85 0 -93 94q-61 -94 -191 -94q-98 0 -149 62.5t-51 167.5v303h68v-294q0 -83 37.5 -129.5t115.5 -46.5q63 0 107.5 34t62.5 85v351zM291 604l-90 137h70l82 -137h-62z" />
    <glyph glyph-name="uacute" unicode="&#xfa;" horiz-adv-x="677" 
d="M477 523h68v-408q0 -66 47 -66q23 0 59 22l8 -55q-38 -26 -89 -26q-85 0 -93 94q-61 -94 -191 -94q-98 0 -149 62.5t-51 167.5v303h68v-294q0 -83 37.5 -129.5t115.5 -46.5q63 0 107.5 34t62.5 85v351zM439 741l-90 -137h-62l82 137h70z" />
    <glyph glyph-name="ucircumflex" unicode="&#xfb;" horiz-adv-x="677" 
d="M477 523h68v-408q0 -66 47 -66q23 0 59 22l8 -55q-38 -26 -89 -26q-85 0 -93 94q-61 -94 -191 -94q-98 0 -149 62.5t-51 167.5v303h68v-294q0 -83 37.5 -129.5t115.5 -46.5q63 0 107.5 34t62.5 85v351zM405 604l-84 98l-83 -98h-60l109 137h69l109 -137h-60z" />
    <glyph glyph-name="udieresis" unicode="&#xfc;" horiz-adv-x="677" 
d="M477 523h68v-408q0 -66 47 -66q23 0 59 22l8 -55q-38 -26 -89 -26q-85 0 -93 94q-61 -94 -191 -94q-98 0 -149 62.5t-51 167.5v303h68v-294q0 -83 37.5 -129.5t115.5 -46.5q63 0 107.5 34t62.5 85v351zM150 671q0 45 46 45q45 0 45 -45q0 -44 -45 -44q-46 0 -46 44z
M399 671q0 45 47 45q44 0 44 -45q0 -44 -44 -44q-47 0 -47 44z" />
    <glyph glyph-name="yacute" unicode="&#xfd;" horiz-adv-x="576" 
d="M17 523h75l207 -448l189 448h69l-240 -559q-34 -84 -75.5 -123t-112.5 -39q-63 0 -119 36l13 57q52 -34 106 -34q46 0 72.5 24.5t49.5 78.5l17 41zM410 741l-90 -137h-62l82 137h70z" />
    <glyph glyph-name="thorn" unicode="&#xfe;" horiz-adv-x="653" 
d="M596 262q0 -120 -70.5 -196t-184.5 -76q-108 0 -178 72v-250h-68v898h68v-248q72 70 178 70q115 0 185 -75.5t70 -194.5zM527 262q0 93 -55.5 151t-146.5 58q-49 0 -92 -21.5t-70 -52.5v-275q26 -29 69.5 -50t92.5 -21q91 0 146.5 58.5t55.5 152.5z" />
    <glyph glyph-name="ydieresis" unicode="&#xff;" horiz-adv-x="576" 
d="M17 523h75l207 -448l189 448h69l-240 -559q-34 -84 -75.5 -123t-112.5 -39q-63 0 -119 36l13 57q52 -34 106 -34q46 0 72.5 24.5t49.5 78.5l17 41zM125 671q0 45 46 45q45 0 45 -45q0 -44 -45 -44q-46 0 -46 44zM374 671q0 45 47 45q44 0 44 -45q0 -44 -44 -44
q-47 0 -47 44z" />
    <glyph glyph-name="Amacron" unicode="&#x100;" horiz-adv-x="695" 
d="M20 0l292 680h78l277 -680h-69l-68 165h-370l-71 -165h-69zM351 611l-171 -393h332zM470 793h-239v50h239v-50z" />
    <glyph glyph-name="amacron" unicode="&#x101;" horiz-adv-x="689" 
d="M557 523v-408q0 -66 48 -66q24 0 58 22l8 -55q-41 -26 -88 -26q-78 0 -90 78q-32 -34 -79 -56t-102 -22q-115 0 -185 75t-70 194q0 120 70 196.5t185 76.5q106 0 177 -71v62h68zM489 121v279q-26 30 -69 50.5t-92 20.5q-92 0 -147 -59t-55 -153q0 -92 55.5 -150
t146.5 -58q48 0 90.5 20.5t70.5 49.5zM461 636h-239v50h239v-50z" />
    <glyph glyph-name="Abreve" unicode="&#x102;" horiz-adv-x="695" 
d="M20 0l292 680h78l277 -680h-69l-68 165h-370l-71 -165h-69zM351 611l-171 -393h332zM219 845l24 30q40 -56 108 -56q70 0 107 56l24 -30q-43 -75 -131 -75q-89 0 -132 75z" />
    <glyph glyph-name="abreve" unicode="&#x103;" horiz-adv-x="689" 
d="M557 523v-408q0 -66 48 -66q24 0 58 22l8 -55q-41 -26 -88 -26q-78 0 -90 78q-32 -34 -79 -56t-102 -22q-115 0 -185 75t-70 194q0 120 70 196.5t185 76.5q106 0 177 -71v62h68zM489 121v279q-26 30 -69 50.5t-92 20.5q-92 0 -147 -59t-55 -153q0 -92 55.5 -150
t146.5 -58q48 0 90.5 20.5t70.5 49.5zM210 688l24 30q40 -56 108 -56q70 0 107 56l24 -30q-43 -75 -131 -75q-89 0 -132 75z" />
    <glyph glyph-name="Aogonek" unicode="&#x104;" horiz-adv-x="694" 
d="M20 0l292 680h78l277 -680h-23q-43 -2 -71 -22t-28 -55q0 -28 16.5 -43t44.5 -15q31 0 57 16l8 -36q-32 -18 -73 -18t-66.5 23.5t-25.5 65.5q0 37 27 61.5t61 31.5l-64 156h-370l-71 -165h-69zM351 611l-171 -393h332z" />
    <glyph glyph-name="aogonek" unicode="&#x105;" horiz-adv-x="688" 
d="M557 523v-408q0 -66 48 -66q24 0 58 22l8 -55q-33 -21 -72 -25q-59 -23 -59 -68q0 -28 16.5 -43t44.5 -15q32 0 58 16l7 -36q-32 -18 -73 -18t-66.5 23.5t-25.5 65.5q0 48 52 78q-51 12 -60 74q-32 -34 -79 -56t-102 -22q-115 0 -185 75t-70 194q0 120 70 196.5t185 76.5
q106 0 177 -71v62h68zM489 121v279q-26 30 -69 50.5t-92 20.5q-92 0 -147 -59t-55 -153q0 -92 55.5 -150t146.5 -58q48 0 90.5 20.5t70.5 49.5z" />
    <glyph glyph-name="Cacute" unicode="&#x106;" horiz-adv-x="754" 
d="M656 152l36 -52q-49 -47 -124 -78.5t-155 -31.5q-154 0 -249.5 94t-95.5 255q0 163 95.5 257t249.5 94q129 0 202 -68.5t76 -188.5l-63 -13q-3 97 -58.5 151.5t-157.5 54.5q-124 0 -199 -76.5t-75 -210.5q0 -133 75.5 -209t200.5 -76q68 0 133 28t109 70zM533 898
l-90 -137h-62l82 137h70z" />
    <glyph glyph-name="cacute" unicode="&#x107;" horiz-adv-x="608" 
d="M523 114l28 -55q-91 -73 -215 -73q-141 0 -210.5 74.5t-69.5 199.5q0 122 75 199.5t199 77.5q105 0 163.5 -53.5t62.5 -144.5l-62 -14q-4 71 -45 111t-119 40q-94 0 -149 -60t-55 -154q0 -97 53 -156t164 -59q91 0 180 67zM443 741l-90 -137h-62l82 137h70z" />
    <glyph glyph-name="Ccircumflex" unicode="&#x108;" horiz-adv-x="754" 
d="M656 152l36 -52q-49 -47 -124 -78.5t-155 -31.5q-154 0 -249.5 94t-95.5 255q0 163 95.5 257t249.5 94q129 0 202 -68.5t76 -188.5l-63 -13q-3 97 -58.5 151.5t-157.5 54.5q-124 0 -199 -76.5t-75 -210.5q0 -133 75.5 -209t200.5 -76q68 0 133 28t109 70zM499 761l-84 98
l-83 -98h-60l109 137h69l109 -137h-60z" />
    <glyph glyph-name="ccircumflex" unicode="&#x109;" horiz-adv-x="608" 
d="M523 114l28 -55q-91 -73 -215 -73q-141 0 -210.5 74.5t-69.5 199.5q0 122 75 199.5t199 77.5q105 0 163.5 -53.5t62.5 -144.5l-62 -14q-4 71 -45 111t-119 40q-94 0 -149 -60t-55 -154q0 -97 53 -156t164 -59q91 0 180 67zM414 604l-84 98l-83 -98h-60l109 137h69
l109 -137h-60z" />
    <glyph glyph-name="Cdotaccent" unicode="&#x10a;" horiz-adv-x="754" 
d="M656 152l36 -52q-49 -47 -124 -78.5t-155 -31.5q-154 0 -249.5 94t-95.5 255q0 163 95.5 257t249.5 94q129 0 202 -68.5t76 -188.5l-63 -13q-3 97 -58.5 151.5t-157.5 54.5q-124 0 -199 -76.5t-75 -210.5q0 -133 75.5 -209t200.5 -76q68 0 133 28t109 70zM369 829
q0 46 49 46q47 0 47 -46t-47 -46q-49 0 -49 46z" />
    <glyph glyph-name="cdotaccent" unicode="&#x10b;" horiz-adv-x="608" 
d="M523 114l28 -55q-91 -73 -215 -73q-141 0 -210.5 74.5t-69.5 199.5q0 122 75 199.5t199 77.5q105 0 163.5 -53.5t62.5 -144.5l-62 -14q-4 71 -45 111t-119 40q-94 0 -149 -60t-55 -154q0 -97 53 -156t164 -59q91 0 180 67zM286 672q0 46 49 46q47 0 47 -46t-47 -46
q-49 0 -49 46z" />
    <glyph glyph-name="Ccaron" unicode="&#x10c;" horiz-adv-x="754" 
d="M656 152l36 -52q-49 -47 -124 -78.5t-155 -31.5q-154 0 -249.5 94t-95.5 255q0 163 95.5 257t249.5 94q129 0 202 -68.5t76 -188.5l-63 -13q-3 97 -58.5 151.5t-157.5 54.5q-124 0 -199 -76.5t-75 -210.5q0 -133 75.5 -209t200.5 -76q68 0 133 28t109 70zM334 898l84 -98
l83 98h60l-109 -137h-69l-109 137h60z" />
    <glyph glyph-name="ccaron" unicode="&#x10d;" horiz-adv-x="608" 
d="M523 114l28 -55q-91 -73 -215 -73q-141 0 -210.5 74.5t-69.5 199.5q0 122 75 199.5t199 77.5q105 0 163.5 -53.5t62.5 -144.5l-62 -14q-4 71 -45 111t-119 40q-94 0 -149 -60t-55 -154q0 -97 53 -156t164 -59q91 0 180 67zM252 741l84 -98l83 98h60l-109 -137h-69
l-109 137h60z" />
    <glyph glyph-name="Dcaron" unicode="&#x10e;" horiz-adv-x="792" 
d="M112 0v680h261q156 -1 253.5 -90.5t97.5 -250.5q0 -160 -97.5 -249.5t-253.5 -89.5h-261zM370 619h-190v-558h190q127 0 205.5 73t78.5 205q0 134 -78 207t-206 73zM258 898l84 -98l83 98h60l-109 -137h-69l-109 137h60z" />
    <glyph glyph-name="dcaron" unicode="&#x10f;" horiz-adv-x="699" 
d="M490 710h68v-596q0 -65 48 -65q23 0 57 22l9 -55q-41 -26 -89 -26q-78 0 -91 75q-71 -75 -180 -75q-114 0 -185 76.5t-71 195.5t71 194.5t185 75.5q105 0 178 -71v249zM125 262q0 -94 55.5 -152.5t147.5 -58.5q49 0 92.5 21t69.5 50v276q-27 31 -70.5 52t-91.5 21
q-91 0 -147 -58t-56 -151zM650 526l24 69q-50 5 -50 44q0 24 13.5 37t35.5 13q26 0 40.5 -14.5t14.5 -39.5q0 -61 -41 -123z" />
    <glyph glyph-name="Dcroat" unicode="&#x110;" horiz-adv-x="792" 
d="M113 0v313h-65v56h65v311h260q156 -1 253.5 -90.5t97.5 -250.5q0 -160 -97.5 -249.5t-253.5 -89.5h-260zM356 313h-175v-252h190q127 0 205.5 73t78.5 205q0 134 -78.5 207t-205.5 73h-190v-250h175v-56z" />
    <glyph glyph-name="dcroat" unicode="&#x111;" horiz-adv-x="690" 
d="M490 710h68v-71h104v-52h-104v-473q0 -65 48 -65q23 0 57 22l9 -55q-41 -26 -89 -26q-78 0 -91 75q-71 -75 -180 -75q-114 0 -185 76.5t-71 195.5t71 194.5t185 75.5q105 0 178 -71v126h-136v52h136v71zM125 262q0 -94 55.5 -152.5t147.5 -58.5q49 0 92.5 21t69.5 50v276
q-27 31 -70.5 52t-91.5 21q-91 0 -147 -58t-56 -151z" />
    <glyph glyph-name="Emacron" unicode="&#x112;" horiz-adv-x="700" 
d="M629 0h-517v680h517v-61h-451v-234h378v-61h-378v-263h451v-61zM489 793h-239v50h239v-50z" />
    <glyph glyph-name="emacron" unicode="&#x113;" horiz-adv-x="616" 
d="M521 108l29 -51q-89 -71 -214 -71q-140 0 -210.5 76.5t-70.5 197.5q0 117 75 197t198 80q113 0 171.5 -61.5t58.5 -156.5q0 -48 -9 -82h-425q6 -87 59 -140t155 -53q100 0 183 64zM490 292q3 33 3 37q0 64 -42 107t-124 43q-89 0 -142.5 -54t-58.5 -133h364zM447 636
h-239v50h239v-50z" />
    <glyph glyph-name="Ebreve" unicode="&#x114;" horiz-adv-x="700" 
d="M629 0h-517v680h517v-61h-451v-234h378v-61h-378v-263h451v-61zM237 845l24 30q40 -56 108 -56q70 0 107 56l24 -30q-43 -75 -131 -75q-89 0 -132 75z" />
    <glyph glyph-name="ebreve" unicode="&#x115;" horiz-adv-x="616" 
d="M521 108l29 -51q-89 -71 -214 -71q-140 0 -210.5 76.5t-70.5 197.5q0 117 75 197t198 80q113 0 171.5 -61.5t58.5 -156.5q0 -48 -9 -82h-425q6 -87 59 -140t155 -53q100 0 183 64zM490 292q3 33 3 37q0 64 -42 107t-124 43q-89 0 -142.5 -54t-58.5 -133h364zM199 688
l24 30q40 -56 108 -56q70 0 107 56l24 -30q-43 -75 -131 -75q-89 0 -132 75z" />
    <glyph glyph-name="Edotaccent" unicode="&#x116;" horiz-adv-x="700" 
d="M629 0h-517v680h517v-61h-451v-234h378v-61h-378v-263h451v-61zM320 829q0 46 49 46q47 0 47 -46t-47 -46q-49 0 -49 46z" />
    <glyph glyph-name="edotaccent" unicode="&#x117;" horiz-adv-x="616" 
d="M521 108l29 -51q-89 -71 -214 -71q-140 0 -210.5 76.5t-70.5 197.5q0 117 75 197t198 80q113 0 171.5 -61.5t58.5 -156.5q0 -48 -9 -82h-425q6 -87 59 -140t155 -53q100 0 183 64zM490 292q3 33 3 37q0 64 -42 107t-124 43q-89 0 -142.5 -54t-58.5 -133h364zM283 672
q0 46 49 46q47 0 47 -46t-47 -46q-49 0 -49 46z" />
    <glyph glyph-name="Eogonek" unicode="&#x118;" horiz-adv-x="700" 
d="M629 0h-13q-43 -2 -71 -22t-28 -55q0 -28 16.5 -43t44.5 -15q31 0 57 16l8 -36q-32 -18 -73 -18t-66.5 23.5t-25.5 65.5q0 57 59 84h-425v680h517v-61h-451v-234h378v-61h-378v-263h451v-61z" />
    <glyph glyph-name="eogonek" unicode="&#x119;" horiz-adv-x="616" 
d="M521 108l29 -51q-65 -52 -150 -66q-61 -22 -61 -68q0 -28 17 -43t45 -15q31 0 57 16l8 -36q-32 -18 -73 -18t-66.5 23.5t-25.5 65.5t38 70h-3q-140 0 -210.5 76.5t-70.5 197.5q0 117 75 197t198 80q113 0 171.5 -61.5t58.5 -156.5q0 -48 -9 -82h-425q6 -87 59 -140
t155 -53q100 0 183 64zM490 292q3 33 3 37q0 64 -42 107t-124 43q-89 0 -142.5 -54t-58.5 -133h364z" />
    <glyph glyph-name="Ecaron" unicode="&#x11a;" horiz-adv-x="700" 
d="M629 0h-517v680h517v-61h-451v-234h378v-61h-378v-263h451v-61zM286 898l84 -98l83 98h60l-109 -137h-69l-109 137h60z" />
    <glyph glyph-name="ecaron" unicode="&#x11b;" horiz-adv-x="616" 
d="M521 108l29 -51q-89 -71 -214 -71q-140 0 -210.5 76.5t-70.5 197.5q0 117 75 197t198 80q113 0 171.5 -61.5t58.5 -156.5q0 -48 -9 -82h-425q6 -87 59 -140t155 -53q100 0 183 64zM490 292q3 33 3 37q0 64 -42 107t-124 43q-89 0 -142.5 -54t-58.5 -133h364zM245 741
l84 -98l83 98h60l-109 -137h-69l-109 137h60z" />
    <glyph glyph-name="Gcircumflex" unicode="&#x11c;" horiz-adv-x="789" 
d="M400 360h312v-282q-48 -38 -127.5 -63t-155.5 -25q-156 0 -259 94.5t-103 254.5q0 161 103 256t259 95q146 0 257 -96l-35 -52q-95 84 -221 84t-209.5 -77.5t-83.5 -209.5q0 -131 84 -208t212 -77q125 0 211 60v186h-244v60zM512 761l-84 98l-83 -98h-60l109 137h69
l109 -137h-60z" />
    <glyph glyph-name="gcircumflex" unicode="&#x11d;" horiz-adv-x="653" 
d="M414 604l-84 98l-83 -98h-60l109 137h69l109 -137h-60zM57 280q0 107 71.5 179.5t184.5 72.5q106 0 177 -71v62h68v-477q0 -115 -67 -179.5t-171 -64.5q-21 0 -40.5 2t-37 6.5t-30.5 8t-28 10.5t-22 10t-20 10.5t-15 8.5l17 62q87 -57 176 -57q72 0 121 44t49 127v66
q-72 -70 -177 -70q-113 0 -184.5 72.5t-71.5 177.5zM127 280q0 -81 55.5 -135t145.5 -54q49 0 92 20t70 50v237q-26 30 -69.5 51.5t-92.5 21.5q-90 0 -145.5 -54.5t-55.5 -136.5z" />
    <glyph glyph-name="Gbreve" unicode="&#x11e;" horiz-adv-x="789" 
d="M400 360h312v-282q-48 -38 -127.5 -63t-155.5 -25q-156 0 -259 94.5t-103 254.5q0 161 103 256t259 95q146 0 257 -96l-35 -52q-95 84 -221 84t-209.5 -77.5t-83.5 -209.5q0 -131 84 -208t212 -77q125 0 211 60v186h-244v60zM299 845l24 30q40 -56 108 -56q70 0 107 56
l24 -30q-43 -75 -131 -75q-89 0 -132 75z" />
    <glyph glyph-name="gbreve" unicode="&#x11f;" horiz-adv-x="653" 
d="M203 688l24 30q40 -56 108 -56q70 0 107 56l24 -30q-43 -75 -131 -75q-89 0 -132 75zM57 280q0 107 71.5 179.5t184.5 72.5q106 0 177 -71v62h68v-477q0 -115 -67 -179.5t-171 -64.5q-21 0 -40.5 2t-37 6.5t-30.5 8t-28 10.5t-22 10t-20 10.5t-15 8.5l17 62
q87 -57 176 -57q72 0 121 44t49 127v66q-72 -70 -177 -70q-113 0 -184.5 72.5t-71.5 177.5zM127 280q0 -81 55.5 -135t145.5 -54q49 0 92 20t70 50v237q-26 30 -69.5 51.5t-92.5 21.5q-90 0 -145.5 -54.5t-55.5 -136.5z" />
    <glyph glyph-name="Gdotaccent" unicode="&#x120;" horiz-adv-x="789" 
d="M400 360h312v-282q-48 -38 -127.5 -63t-155.5 -25q-156 0 -259 94.5t-103 254.5q0 161 103 256t259 95q146 0 257 -96l-35 -52q-95 84 -221 84t-209.5 -77.5t-83.5 -209.5q0 -131 84 -208t212 -77q125 0 211 60v186h-244v60zM378 829q0 46 49 46q47 0 47 -46t-47 -46
q-49 0 -49 46z" />
    <glyph glyph-name="gdotaccent" unicode="&#x121;" horiz-adv-x="653" 
d="M292 672q0 46 49 46q47 0 47 -46t-47 -46q-49 0 -49 46zM57 280q0 107 71.5 179.5t184.5 72.5q106 0 177 -71v62h68v-477q0 -115 -67 -179.5t-171 -64.5q-21 0 -40.5 2t-37 6.5t-30.5 8t-28 10.5t-22 10t-20 10.5t-15 8.5l17 62q87 -57 176 -57q72 0 121 44t49 127v66
q-72 -70 -177 -70q-113 0 -184.5 72.5t-71.5 177.5zM127 280q0 -81 55.5 -135t145.5 -54q49 0 92 20t70 50v237q-26 30 -69.5 51.5t-92.5 21.5q-90 0 -145.5 -54.5t-55.5 -136.5z" />
    <glyph glyph-name="Gcommaaccent" unicode="&#x122;" horiz-adv-x="789" 
d="M400 360h312v-282q-48 -38 -127.5 -63t-155.5 -25q-156 0 -259 94.5t-103 254.5q0 161 103 256t259 95q146 0 257 -96l-35 -52q-95 84 -221 84t-209.5 -77.5t-83.5 -209.5q0 -131 84 -208t212 -77q125 0 211 60v186h-244v60zM390 -232l24 69q-50 5 -50 44q0 24 13.5 37
t35.5 13q26 0 40.5 -14.5t14.5 -39.5q0 -61 -41 -123z" />
    <glyph glyph-name="gcommaaccent" unicode="&#x123;" horiz-adv-x="653" 
d="M57 280q0 107 71.5 179.5t184.5 72.5q106 0 177 -71v62h68v-477q0 -115 -67 -179.5t-171 -64.5q-21 0 -40.5 2t-37 6.5t-30.5 8t-28 10.5t-22 10t-20 10.5t-15 8.5l17 62q87 -57 176 -57q72 0 121 44t49 127v66q-72 -70 -177 -70q-113 0 -184.5 72.5t-71.5 177.5z
M127 280q0 -81 55.5 -135t145.5 -54q49 0 92 20t70 50v237q-26 30 -69.5 51.5t-92.5 21.5q-90 0 -145.5 -54.5t-55.5 -136.5zM360 766l-23 -70q24 -1 37 -13.5t13 -30.5q0 -24 -13.5 -36.5t-36.5 -12.5q-26 0 -40.5 14.5t-14.5 38.5q0 64 41 124z" />
    <glyph glyph-name="Hcircumflex" unicode="&#x124;" horiz-adv-x="839" 
d="M659 0v311h-479v-311h-68v680h68v-308h479v308h68v-680h-68zM501 761l-84 98l-83 -98h-60l109 137h69l109 -137h-60z" />
    <glyph glyph-name="hcircumflex" unicode="&#x125;" horiz-adv-x="678" 
d="M95 710h68v-283q57 105 191 105q97 0 148 -64t51 -167v-186q0 -66 48 -66q23 0 59 22l8 -55q-41 -26 -89 -26q-94 0 -94 112v190q0 79 -39 127.5t-113 48.5q-64 0 -109.5 -37.5t-60.5 -94.5v-336h-68v710zM414 753l-84 98l-83 -98h-60l109 137h69l109 -137h-60z" />
    <glyph glyph-name="Hbar" unicode="&#x126;" horiz-adv-x="839" 
d="M112 0v504h-46v56h46v120h68v-120h479v120h68v-120h52v-56h-52v-504h-68v311h-479v-311h-68zM180 504v-132h479v132h-479z" />
    <glyph glyph-name="hbar" unicode="&#x127;" horiz-adv-x="678" 
d="M95 710h68v-71h158v-52h-158v-160q57 105 191 105q97 0 148 -64t51 -167v-186q0 -66 48 -66q23 0 59 22l8 -55q-41 -26 -89 -26q-94 0 -94 112v190q0 79 -39 127.5t-113 48.5q-64 0 -109.5 -37.5t-60.5 -94.5v-336h-68v587h-82v52h82v71z" />
    <glyph glyph-name="Itilde" unicode="&#x128;" horiz-adv-x="292" 
d="M112 0v680h68v-680h-68zM4 783l-26 30q14 29 39.5 49.5t56.5 20.5q29 0 77 -34t66 -34q46 0 70 49l26 -29q-35 -70 -95 -70q-29 0 -77 34t-66 34q-43 0 -71 -50z" />
    <glyph glyph-name="itilde" unicode="&#x129;" horiz-adv-x="299" 
d="M95 523h68v-408q0 -66 48 -66q27 0 57 22l9 -55q-12 -10 -38 -18t-51 -8q-93 0 -93 112v421zM-14 626l-26 30q14 29 39.5 49.5t56.5 20.5q29 0 77 -34t66 -34q46 0 70 49l26 -29q-35 -70 -95 -70q-29 0 -77 34t-66 34q-43 0 -71 -50z" />
    <glyph glyph-name="imacron" unicode="&#x12b;" horiz-adv-x="299" 
d="M95 523h68v-408q0 -66 48 -66q27 0 57 22l9 -55q-12 -10 -38 -18t-51 -8q-93 0 -93 112v421zM248 636h-239v50h239v-50z" />
    <glyph glyph-name="Ibreve" unicode="&#x12c;" horiz-adv-x="292" 
d="M112 0v680h68v-680h-68zM14 845l24 30q40 -56 108 -56q70 0 107 56l24 -30q-43 -75 -131 -75q-89 0 -132 75z" />
    <glyph glyph-name="Iogonek" unicode="&#x12e;" horiz-adv-x="294" 
d="M181 0h-23q-41 -2 -68 -22.5t-27 -54.5q0 -28 16.5 -43t44.5 -15q31 0 57 16l8 -36q-32 -18 -73 -18t-66.5 23.5t-25.5 65.5q0 38 27 62.5t62 30.5v671h68v-680z" />
    <glyph glyph-name="iogonek" unicode="&#x12f;" horiz-adv-x="299" 
d="M96 102v421h68v-408q0 -66 48 -66q27 0 57 22l9 -55q-27 -21 -79 -26q-57 -21 -57 -67q0 -28 17 -43t45 -15q31 0 57 16l8 -36q-32 -18 -73 -18t-66.5 23.5t-25.5 65.5q0 50 54 78q-62 16 -62 108zM86 662q0 42 45 42q43 0 43 -42t-43 -42q-45 0 -45 42z" />
    <glyph glyph-name="Idotaccent" unicode="&#x130;" horiz-adv-x="292" 
d="M112 0v680h68v-680h-68zM97 829q0 46 49 46q47 0 47 -46t-47 -46q-49 0 -49 46z" />
    <glyph glyph-name="dotlessi" unicode="&#x131;" horiz-adv-x="299" 
d="M95 523h68v-408q0 -66 48 -66q27 0 57 22l9 -55q-12 -10 -38 -18t-51 -8q-93 0 -93 112v421z" />
    <glyph glyph-name="IJ" unicode="&#x132;" horiz-adv-x="948" 
d="M112 0v680h68v-680h-68zM776 680h69v-421q0 -122 -69 -196.5t-193 -74.5q-122 0 -186.5 69.5t-72.5 192.5l67 7q15 -205 193 -205q93 0 142.5 56.5t49.5 153.5v418z" />
    <glyph glyph-name="ij" unicode="&#x133;" horiz-adv-x="556" 
d="M163 523v-408q0 -66 48 -66q27 0 57 22l9 -55q-12 -10 -38 -18t-51 -8q-93 0 -93 112v421h68zM81 672q0 46 49 46q47 0 47 -46t-47 -46q-49 0 -49 46zM462 523v-502q0 -152 -138 -218l-38 47q52 29 80 67.5t28 101.5v504h68zM381 672q0 46 48 46q46 0 46 -46t-46 -46
q-48 0 -48 46z" />
    <glyph glyph-name="Jcircumflex" unicode="&#x134;" horiz-adv-x="656" 
d="M484 680h69v-421q0 -122 -69 -196.5t-193 -74.5q-122 0 -186.5 69.5t-72.5 192.5l67 7q15 -205 193 -205q93 0 142.5 56.5t49.5 153.5v418zM600 761l-84 98l-83 -98h-60l109 137h69l109 -137h-60z" />
    <glyph glyph-name="jcircumflex" unicode="&#x135;" horiz-adv-x="257" 
d="M95 523h68v-502q0 -152 -138 -218l-38 47q52 29 80 67.5t28 101.5v504zM210 604l-84 98l-83 -98h-60l109 137h69l109 -137h-60z" />
    <glyph glyph-name="Kcommaaccent" unicode="&#x136;" horiz-adv-x="768" 
d="M112 0v680h68v-311h179l224 311h72v-10l-243 -332q17 -18 45.5 -70t53 -97.5t65 -82.5t83.5 -37t88 21l9 -56q-52 -26 -108 -26q-47 0 -88.5 27t-71 69t-52.5 84.5t-45.5 83t-38.5 55.5h-172v-309h-68zM315 -232l24 69q-50 5 -50 44q0 24 13.5 37t35.5 13
q26 0 40.5 -14.5t14.5 -39.5q0 -61 -41 -123z" />
    <glyph glyph-name="kcommaaccent" unicode="&#x137;" horiz-adv-x="604" 
d="M484 523h68q-36 -188 -173 -256l187 -256v-11h-77l-171 244q-67 -19 -155 -19v-225h-68v710h68v-423q50 0 88.5 5.5t77.5 21t67.5 41t51.5 68t36 100.5zM272 -232l24 69q-50 5 -50 44q0 24 13.5 37t35.5 13q26 0 40.5 -14.5t14.5 -39.5q0 -61 -41 -123z" />
    <glyph glyph-name="kgreenlandic" unicode="&#x138;" horiz-adv-x="605" 
d="M163 0h-68v523h68v-250q127 1 208.5 56t112.5 194h68q-38 -192 -175 -263l189 -249v-11h-77l-173 235q-66 -20 -153 -20v-215z" />
    <glyph glyph-name="Lacute" unicode="&#x139;" horiz-adv-x="597" 
d="M571 0h-459v680h68v-619h391v-61zM264 898l-90 -137h-62l82 137h70z" />
    <glyph glyph-name="lacute" unicode="&#x13a;" horiz-adv-x="308" 
d="M92 710h68v-588q0 -73 62 -73q31 0 65 22l9 -55q-41 -26 -96 -26q-108 0 -108 118v602zM237 890l-90 -137h-62l82 137h70z" />
    <glyph glyph-name="Lcommaaccent" unicode="&#x13b;" horiz-adv-x="598" 
d="M571 0h-459v680h68v-619h391v-61zM307 -232l24 69q-50 5 -50 44q0 24 13.5 37t35.5 13q26 0 40.5 -14.5t14.5 -39.5q0 -61 -41 -123z" />
    <glyph glyph-name="lcommaaccent" unicode="&#x13c;" horiz-adv-x="309" 
d="M92 710h68v-588q0 -73 62 -73q31 0 65 22l9 -55q-41 -26 -96 -26q-108 0 -108 118v602zM150 -232l24 69q-50 5 -50 44q0 24 13.5 37t35.5 13q26 0 40.5 -14.5t14.5 -39.5q0 -61 -41 -123z" />
    <glyph glyph-name="Lcaron" unicode="&#x13d;" horiz-adv-x="601" 
d="M571 0h-459v680h68v-619h391v-61zM426 526l24 69q-50 5 -50 44q0 24 13.5 37t35.5 13q26 0 40.5 -14.5t14.5 -39.5q0 -61 -41 -123z" />
    <glyph glyph-name="lcaron" unicode="&#x13e;" horiz-adv-x="326" 
d="M92 710h68v-588q0 -73 62 -73q31 0 65 22l9 -55q-41 -26 -96 -26q-108 0 -108 118v602zM253 526l24 69q-50 5 -50 44q0 24 13.5 37t35.5 13q26 0 40.5 -14.5t14.5 -39.5q0 -61 -41 -123z" />
    <glyph glyph-name="Ldot" unicode="&#x13f;" horiz-adv-x="607" 
d="M571 0h-459v680h68v-619h391v-61zM345 367q0 56 54 56q55 0 55 -56t-55 -56q-54 0 -54 56z" />
    <glyph glyph-name="ldot" unicode="&#x140;" horiz-adv-x="372" 
d="M92 710h68v-588q0 -73 62 -73q31 0 65 22l9 -55q-41 -26 -96 -26q-108 0 -108 118v602zM255 367q0 56 54 56q55 0 55 -56t-55 -56q-54 0 -54 56z" />
    <glyph glyph-name="Lslash" unicode="&#x141;" horiz-adv-x="597" 
d="M571 0h-458v282l-56 -28v58l56 28v340h68v-305l142 73v-59l-142 -72v-256h390v-61z" />
    <glyph glyph-name="lslash" unicode="&#x142;" horiz-adv-x="313" 
d="M163 710v-291l91 47v-58l-91 -47v-239q0 -73 62 -73q31 0 65 22l9 -55q-41 -26 -96 -26q-108 0 -108 118v218l-51 -26v58l51 26v326h68z" />
    <glyph glyph-name="Nacute" unicode="&#x143;" horiz-adv-x="836" 
d="M663 0l-483 571v-571h-68v680h61l483 -573v573h68v-680h-61zM535 898l-90 -137h-62l82 137h70z" />
    <glyph glyph-name="nacute" unicode="&#x144;" horiz-adv-x="678" 
d="M95 523h68v-96q58 105 191 105q97 0 148 -64t51 -167v-186q0 -66 48 -66q25 0 59 22l8 -55q-40 -26 -89 -26q-94 0 -94 112v190q0 79 -39 127.5t-113 48.5q-64 0 -109.5 -37.5t-60.5 -94.5v-336h-68v523zM451 741l-90 -137h-62l82 137h70z" />
    <glyph glyph-name="Ncommaaccent" unicode="&#x145;" horiz-adv-x="836" 
d="M663 0l-483 571v-571h-68v680h61l483 -573v573h68v-680h-61zM376 -232l24 69q-50 5 -50 44q0 24 13.5 37t35.5 13q26 0 40.5 -14.5t14.5 -39.5q0 -61 -41 -123z" />
    <glyph glyph-name="ncommaaccent" unicode="&#x146;" horiz-adv-x="679" 
d="M95 523h68v-96q58 105 191 105q97 0 148 -64t51 -167v-186q0 -66 48 -66q25 0 59 22l8 -55q-40 -26 -89 -26q-94 0 -94 112v190q0 79 -39 127.5t-113 48.5q-64 0 -109.5 -37.5t-60.5 -94.5v-336h-68v523zM306 -232l24 69q-50 5 -50 44q0 24 13.5 37t35.5 13
q26 0 40.5 -14.5t14.5 -39.5q0 -61 -41 -123z" />
    <glyph glyph-name="Ncaron" unicode="&#x147;" horiz-adv-x="836" 
d="M663 0l-483 571v-571h-68v680h61l483 -573v573h68v-680h-61zM345 898l84 -98l83 98h60l-109 -137h-69l-109 137h60z" />
    <glyph glyph-name="ncaron" unicode="&#x148;" horiz-adv-x="678" 
d="M95 523h68v-96q58 105 191 105q97 0 148 -64t51 -167v-186q0 -66 48 -66q25 0 59 22l8 -55q-40 -26 -89 -26q-94 0 -94 112v190q0 79 -39 127.5t-113 48.5q-64 0 -109.5 -37.5t-60.5 -94.5v-336h-68v523zM246 741l84 -98l83 98h60l-109 -137h-69l-109 137h60z" />
    <glyph glyph-name="napostrophe" unicode="&#x149;" horiz-adv-x="711" 
d="M128 523h68v-96q58 105 191 105q97 0 148 -64t51 -167v-186q0 -66 48 -66q25 0 59 22l8 -55q-40 -26 -89 -26q-94 0 -94 112v190q0 79 -39 127.5t-113 48.5q-64 0 -109.5 -37.5t-60.5 -94.5v-336h-68v523z" />
    <glyph glyph-name="Eng" unicode="&#x14a;" horiz-adv-x="836" 
d="M656 15l-476 556v-571h-68v680h61l483 -571v571h68v-658q0 -152 -138 -218l-38 42q108 61 108 169z" />
    <glyph glyph-name="eng" unicode="&#x14b;" horiz-adv-x="640" 
d="M485 18v274q0 79 -39 127.5t-113 48.5q-64 0 -109.5 -37.5t-60.5 -94.5v-336h-68v523h68v-96q58 105 191 105q97 0 148 -64t51 -167v-279q0 -152 -137 -218l-38 42q107 60 107 172z" />
    <glyph glyph-name="Omacron" unicode="&#x14c;" horiz-adv-x="832" 
d="M66 339q0 151 100 251t249 100q151 0 251 -100t100 -251q0 -149 -100 -249t-251 -100q-149 0 -249 100t-100 249zM133 339q0 -122 80.5 -203.5t201.5 -81.5q123 0 203.5 81t80.5 204q0 124 -80 205t-204 81q-122 0 -202 -81t-80 -205zM534 793h-239v50h239v-50z" />
    <glyph glyph-name="omacron" unicode="&#x14d;" horiz-adv-x="666" 
d="M55 260q0 120 78 198.5t199 78.5q122 0 200.5 -78.5t78.5 -198.5q0 -118 -78.5 -196t-200.5 -78q-121 0 -199 78t-78 196zM121 260q0 -91 59.5 -151t151.5 -60q94 0 153.5 60t59.5 151q0 92 -59.5 153t-153.5 61q-92 0 -151.5 -61t-59.5 -153zM451 636h-239v50h239v-50z
" />
    <glyph glyph-name="Obreve" unicode="&#x14e;" horiz-adv-x="832" 
d="M66 339q0 151 100 251t249 100q151 0 251 -100t100 -251q0 -149 -100 -249t-251 -100q-149 0 -249 100t-100 249zM133 339q0 -122 80.5 -203.5t201.5 -81.5q123 0 203.5 81t80.5 204q0 124 -80 205t-204 81q-122 0 -202 -81t-80 -205zM283 845l24 30q40 -56 108 -56
q70 0 107 56l24 -30q-43 -75 -131 -75q-89 0 -132 75z" />
    <glyph glyph-name="obreve" unicode="&#x14f;" horiz-adv-x="666" 
d="M55 260q0 120 78 198.5t199 78.5q122 0 200.5 -78.5t78.5 -198.5q0 -118 -78.5 -196t-200.5 -78q-121 0 -199 78t-78 196zM121 260q0 -91 59.5 -151t151.5 -60q94 0 153.5 60t59.5 151q0 92 -59.5 153t-153.5 61q-92 0 -151.5 -61t-59.5 -153zM200 688l24 30
q40 -56 108 -56q70 0 107 56l24 -30q-43 -75 -131 -75q-89 0 -132 75z" />
    <glyph glyph-name="Ohungarumlaut" unicode="&#x150;" horiz-adv-x="832" 
d="M66 339q0 151 100 251t249 100q151 0 251 -100t100 -251q0 -149 -100 -249t-251 -100q-149 0 -249 100t-100 249zM133 339q0 -122 80.5 -203.5t201.5 -81.5q123 0 203.5 81t80.5 204q0 124 -80 205t-204 81q-122 0 -202 -81t-80 -205zM465 898l-91 -137h-62l82 137h71z
M633 898l-90 -137h-62l82 137h70z" />
    <glyph glyph-name="ohungarumlaut" unicode="&#x151;" horiz-adv-x="666" 
d="M55 260q0 120 78 198.5t199 78.5q122 0 200.5 -78.5t78.5 -198.5q0 -118 -78.5 -196t-200.5 -78q-121 0 -199 78t-78 196zM121 260q0 -91 59.5 -151t151.5 -60q94 0 153.5 60t59.5 151q0 92 -59.5 153t-153.5 61q-92 0 -151.5 -61t-59.5 -153zM371 741l-91 -137h-62
l82 137h71zM539 741l-90 -137h-62l82 137h70z" />
    <glyph glyph-name="OE" unicode="&#x152;" horiz-adv-x="1212" 
d="M624 0v63q-92 -73 -210 -73q-149 0 -248.5 100t-99.5 249q0 151 99.5 251t248.5 100q116 0 210 -74v64h516v-61h-451v-236h378v-57h-378v-265h451v-61h-516zM132 339q0 -123 81 -204t204 -81q125 0 207 82v406q-83 83 -207 83q-123 0 -204 -81.5t-81 -204.5z" />
    <glyph glyph-name="oe" unicode="&#x153;" horiz-adv-x="1119" 
d="M1053 237h-427q4 -88 57 -140.5t161 -52.5q98 0 180 63l29 -50q-89 -71 -214 -71q-104 0 -168 45t-88 121q-27 -76 -94 -121t-157 -45q-121 0 -199 78t-78 196q0 120 78 198.5t199 78.5q91 0 158 -47t94 -125q26 77 90.5 124.5t156.5 47.5q113 0 171.5 -62t58.5 -156
q0 -50 -8 -82zM121 260q0 -91 59.5 -151t151.5 -60q94 0 153.5 60t59.5 151q0 92 -59.5 153t-153.5 61q-92 0 -151.5 -61t-59.5 -153zM827 479q-87 0 -141 -53t-59 -134h368q3 17 3 36q0 66 -45 108.5t-126 42.5z" />
    <glyph glyph-name="Racute" unicode="&#x154;" horiz-adv-x="764" 
d="M112 0v680h293q101 0 170 -53.5t69 -160.5q0 -94 -66 -152t-159 -58h-12q14 -15 53 -60t64.5 -71.5t64.5 -50.5t73 -24q40 0 88 22l9 -56q-52 -26 -106 -26q-52 0 -105.5 35t-90 78.5t-77 90.5t-62.5 62h-138v-256h-68zM411 619h-231v-307h231q69 0 116 41t47 111
q0 76 -46.5 115.5t-116.5 39.5zM456 898l-90 -137h-62l82 137h70z" />
    <glyph glyph-name="racute" unicode="&#x155;" horiz-adv-x="458" 
d="M132 0v407q0 66 -48 66q-27 0 -58 -21l-8 54q30 26 88 26q92 0 94 -108q47 108 142 108q71 0 96 -42l-17 -58q-23 36 -87 36q-96 0 -134 -156v-312h-68zM322 741l-90 -137h-62l82 137h70z" />
    <glyph glyph-name="Rcommaaccent" unicode="&#x156;" horiz-adv-x="764" 
d="M112 0v680h293q101 0 170 -53.5t69 -160.5q0 -94 -66 -152t-159 -58h-12q14 -15 53 -60t64.5 -71.5t64.5 -50.5t73 -24q40 0 88 22l9 -56q-52 -26 -106 -26q-52 0 -105.5 35t-90 78.5t-77 90.5t-62.5 62h-138v-256h-68zM411 619h-231v-307h231q69 0 116 41t47 111
q0 76 -46.5 115.5t-116.5 39.5zM325 -232l24 69q-50 5 -50 44q0 24 13.5 37t35.5 13q26 0 40.5 -14.5t14.5 -39.5q0 -61 -41 -123z" />
    <glyph glyph-name="rcommaaccent" unicode="&#x157;" horiz-adv-x="457" 
d="M132 0v407q0 66 -48 66q-27 0 -58 -21l-8 54q30 26 88 26q92 0 94 -108q47 108 142 108q71 0 96 -42l-17 -58q-23 36 -87 36q-96 0 -134 -156v-312h-68zM131 -232l24 69q-50 5 -50 44q0 24 13.5 37t35.5 13q26 0 40.5 -14.5t14.5 -39.5q0 -61 -41 -123z" />
    <glyph glyph-name="Rcaron" unicode="&#x158;" horiz-adv-x="764" 
d="M112 0v680h293q101 0 170 -53.5t69 -160.5q0 -94 -66 -152t-159 -58h-12q14 -15 53 -60t64.5 -71.5t64.5 -50.5t73 -24q40 0 88 22l9 -56q-52 -26 -106 -26q-52 0 -105.5 35t-90 78.5t-77 90.5t-62.5 62h-138v-256h-68zM411 619h-231v-307h231q69 0 116 41t47 111
q0 76 -46.5 115.5t-116.5 39.5zM247 898l84 -98l83 98h60l-109 -137h-69l-109 137h60z" />
    <glyph glyph-name="rcaron" unicode="&#x159;" horiz-adv-x="458" 
d="M132 0v407q0 66 -48 66q-27 0 -58 -21l-8 54q30 26 88 26q92 0 94 -108q47 108 142 108q71 0 96 -42l-17 -58q-23 36 -87 36q-96 0 -134 -156v-312h-68zM138 741l84 -98l83 98h60l-109 -137h-69l-109 137h60z" />
    <glyph glyph-name="Sacute" unicode="&#x15a;" horiz-adv-x="639" 
d="M363 301l-145 35q-72 18 -112 59t-40 104q0 80 67.5 135t195.5 55q65 0 128.5 -16t104.5 -39l-21 -64q-36 23 -97 39.5t-117 16.5q-93 0 -142 -35.5t-49 -87.5q0 -79 109 -105l145 -36q92 -23 138 -63t46 -108q0 -92 -74 -146.5t-193 -54.5q-66 0 -129 18.5t-101 41.5
l17 64q101 -61 214 -61q88 0 142 36.5t54 96.5q0 44 -35 71t-106 44zM445 898l-90 -137h-62l82 137h70z" />
    <glyph glyph-name="sacute" unicode="&#x15b;" horiz-adv-x="519" 
d="M457 493l-18 -60q-80 40 -170 40q-65 0 -105.5 -26.5t-40.5 -70.5q0 -34 20.5 -48t72.5 -27l115 -26q66 -15 99 -45.5t33 -82.5q0 -70 -53 -113.5t-148 -43.5q-107 0 -195 45l15 60q90 -47 177 -47q65 0 101 26.5t36 67.5q0 31 -25 47.5t-74 27.5l-111 25
q-67 16 -99.5 45t-32.5 85q0 71 59.5 115.5t159.5 44.5q47 0 100.5 -12t83.5 -27zM374 741l-90 -137h-62l82 137h70z" />
    <glyph glyph-name="Scircumflex" unicode="&#x15c;" horiz-adv-x="639" 
d="M363 301l-145 35q-72 18 -112 59t-40 104q0 80 67.5 135t195.5 55q65 0 128.5 -16t104.5 -39l-21 -64q-36 23 -97 39.5t-117 16.5q-93 0 -142 -35.5t-49 -87.5q0 -79 109 -105l145 -36q92 -23 138 -63t46 -108q0 -92 -74 -146.5t-193 -54.5q-66 0 -129 18.5t-101 41.5
l17 64q101 -61 214 -61q88 0 142 36.5t54 96.5q0 44 -35 71t-106 44zM405 761l-84 98l-83 -98h-60l109 137h69l109 -137h-60z" />
    <glyph glyph-name="scircumflex" unicode="&#x15d;" horiz-adv-x="519" 
d="M457 493l-18 -60q-80 40 -170 40q-65 0 -105.5 -26.5t-40.5 -70.5q0 -34 20.5 -48t72.5 -27l115 -26q66 -15 99 -45.5t33 -82.5q0 -70 -53 -113.5t-148 -43.5q-107 0 -195 45l15 60q90 -47 177 -47q65 0 101 26.5t36 67.5q0 31 -25 47.5t-74 27.5l-111 25
q-67 16 -99.5 45t-32.5 85q0 71 59.5 115.5t159.5 44.5q47 0 100.5 -12t83.5 -27zM349 604l-84 98l-83 -98h-60l109 137h69l109 -137h-60z" />
    <glyph glyph-name="Scedilla" unicode="&#x15e;" horiz-adv-x="639" 
d="M252 -96l23 87q-114 8 -198 59l17 64q101 -61 214 -61q88 0 142 36.5t54 96.5q0 44 -35 71t-106 44l-145 35q-72 18 -112 59t-40 104q0 80 67.5 135t195.5 55q65 0 128.5 -16t104.5 -39l-21 -64q-36 23 -97 39.5t-117 16.5q-93 0 -142 -35.5t-49 -87.5q0 -79 109 -105
l145 -36q92 -23 138 -63t46 -108q0 -91 -73 -145.5t-191 -55.5l-15 -57q18 4 33 4q38 0 60.5 -17.5t22.5 -45.5q0 -34 -28.5 -53t-72.5 -19q-37 0 -73 12l8 30q34 -12 64 -12q64 0 64 41q0 35 -58 35q-36 0 -60 -8z" />
    <glyph glyph-name="scedilla" unicode="&#x15f;" horiz-adv-x="520" 
d="M199 -96l23 88q-86 7 -155 43l15 60q90 -47 177 -47q65 0 101 26.5t36 67.5q0 31 -25 47.5t-74 27.5l-111 25q-67 16 -99.5 45t-32.5 85q0 71 59.5 115.5t159.5 44.5q47 0 100.5 -12t83.5 -27l-18 -60q-80 40 -170 40q-65 0 -105.5 -26.5t-40.5 -70.5q0 -34 20.5 -48
t72.5 -27l115 -26q66 -15 99 -45.5t33 -82.5q0 -70 -53 -113.5t-148 -43.5h-5l-15 -57q18 4 33 4q38 0 60.5 -17.5t22.5 -45.5q0 -34 -28.5 -53t-72.5 -19q-37 0 -73 12l8 30q34 -12 64 -12q64 0 64 41q0 35 -58 35q-36 0 -60 -8z" />
    <glyph glyph-name="Scaron" unicode="&#x160;" horiz-adv-x="639" 
d="M363 301l-145 35q-72 18 -112 59t-40 104q0 80 67.5 135t195.5 55q65 0 128.5 -16t104.5 -39l-21 -64q-36 23 -97 39.5t-117 16.5q-93 0 -142 -35.5t-49 -87.5q0 -79 109 -105l145 -36q92 -23 138 -63t46 -108q0 -92 -74 -146.5t-193 -54.5q-66 0 -129 18.5t-101 41.5
l17 64q101 -61 214 -61q88 0 142 36.5t54 96.5q0 44 -35 71t-106 44zM231 898l84 -98l83 98h60l-109 -137h-69l-109 137h60z" />
    <glyph glyph-name="scaron" unicode="&#x161;" horiz-adv-x="519" 
d="M457 493l-18 -60q-80 40 -170 40q-65 0 -105.5 -26.5t-40.5 -70.5q0 -34 20.5 -48t72.5 -27l115 -26q66 -15 99 -45.5t33 -82.5q0 -70 -53 -113.5t-148 -43.5q-107 0 -195 45l15 60q90 -47 177 -47q65 0 101 26.5t36 67.5q0 31 -25 47.5t-74 27.5l-111 25
q-67 16 -99.5 45t-32.5 85q0 71 59.5 115.5t159.5 44.5q47 0 100.5 -12t83.5 -27zM182 741l84 -98l83 98h60l-109 -137h-69l-109 137h60z" />
    <glyph glyph-name="Tcommaaccent" unicode="&#x162;" horiz-adv-x="627" 
d="M604 612h-249v-612h-20l-17 -67q16 4 32 4q39 0 61.5 -17.5t22.5 -45.5q0 -34 -29 -53t-72 -19q-37 0 -73 12l8 30q33 -12 63 -12q65 0 65 41q0 35 -58 35q-35 0 -61 -8l-3 4l27 96h-14v612h-263v68h580v-68z" />
    <glyph glyph-name="tcommaaccent" unicode="&#x163;" horiz-adv-x="473" 
d="M210 -96l24 91q-103 24 -103 154v318h-104v56h105l7 133h61v-133h217v-56h-218v-306q0 -110 98 -110q30 0 65 11.5t59 29.5l24 -54q-74 -48 -167 -48h-10l-15 -57q18 4 33 4q38 0 60.5 -17.5t22.5 -45.5q0 -34 -28.5 -53t-72.5 -19q-37 0 -73 12l8 30q34 -12 64 -12
q64 0 64 41q0 35 -58 35q-36 0 -60 -8z" />
    <glyph glyph-name="Tcaron" unicode="&#x164;" horiz-adv-x="627" 
d="M604 612h-249v-612h-68v612h-263v68h580v-68zM237 898l84 -98l83 98h60l-109 -137h-69l-109 137h60z" />
    <glyph glyph-name="tcaron" unicode="&#x165;" horiz-adv-x="463" 
d="M138 656h61v-133h217v-56h-218v-306q0 -110 98 -110q30 0 65 11.5t59 29.5l24 -54q-74 -48 -167 -48q-70 0 -108.5 41t-38.5 118v318h-104v56h105zM438 526l24 69q-50 5 -50 44q0 24 13.5 37t35.5 13q26 0 40.5 -14.5t14.5 -39.5q0 -61 -41 -123z" />
    <glyph glyph-name="Tbar" unicode="&#x166;" horiz-adv-x="627" 
d="M604 612h-249v-253h122v-56h-122v-303h-68v303h-119v56h119v253h-263v68h580v-68z" />
    <glyph glyph-name="tbar" unicode="&#x167;" horiz-adv-x="473" 
d="M138 656h61v-133h217v-56h-218v-165h155v-52h-155v-89q0 -110 98 -110q30 0 65 11.5t59 29.5l24 -54q-74 -48 -167 -48q-70 0 -108.5 41t-38.5 118v101h-85v52h85v165h-104v56h105z" />
    <glyph glyph-name="Utilde" unicode="&#x168;" horiz-adv-x="788" 
d="M171 680v-401q0 -105 55.5 -166t166.5 -61t167.5 63.5t56.5 164.5v400h68v-404q0 -123 -76 -205.5t-216 -82.5q-141 0 -215.5 79t-74.5 209v404h68zM251 783l-26 30q14 29 39.5 49.5t56.5 20.5q29 0 77 -34t66 -34q46 0 70 49l26 -29q-35 -70 -95 -70q-29 0 -77 34
t-66 34q-43 0 -71 -50z" />
    <glyph glyph-name="utilde" unicode="&#x169;" horiz-adv-x="677" 
d="M477 523h68v-408q0 -66 47 -66q23 0 59 22l8 -55q-38 -26 -89 -26q-85 0 -93 94q-61 -94 -191 -94q-98 0 -149 62.5t-51 167.5v303h68v-294q0 -83 37.5 -129.5t115.5 -46.5q63 0 107.5 34t62.5 85v351zM179 626l-26 30q14 29 39.5 49.5t56.5 20.5q29 0 77 -34t66 -34
q46 0 70 49l26 -29q-35 -70 -95 -70q-29 0 -77 34t-66 34q-43 0 -71 -50z" />
    <glyph glyph-name="Umacron" unicode="&#x16a;" horiz-adv-x="788" 
d="M171 680v-401q0 -105 55.5 -166t166.5 -61t167.5 63.5t56.5 164.5v400h68v-404q0 -123 -76 -205.5t-216 -82.5q-141 0 -215.5 79t-74.5 209v404h68zM512 793h-239v50h239v-50z" />
    <glyph glyph-name="umacron" unicode="&#x16b;" horiz-adv-x="677" 
d="M477 523h68v-408q0 -66 47 -66q23 0 59 22l8 -55q-38 -26 -89 -26q-85 0 -93 94q-61 -94 -191 -94q-98 0 -149 62.5t-51 167.5v303h68v-294q0 -83 37.5 -129.5t115.5 -46.5q63 0 107.5 34t62.5 85v351zM441 636h-239v50h239v-50z" />
    <glyph glyph-name="Ubreve" unicode="&#x16c;" horiz-adv-x="788" 
d="M171 680v-401q0 -105 55.5 -166t166.5 -61t167.5 63.5t56.5 164.5v400h68v-404q0 -123 -76 -205.5t-216 -82.5q-141 0 -215.5 79t-74.5 209v404h68zM261 845l24 30q40 -56 108 -56q70 0 107 56l24 -30q-43 -75 -131 -75q-89 0 -132 75z" />
    <glyph glyph-name="ubreve" unicode="&#x16d;" horiz-adv-x="677" 
d="M477 523h68v-408q0 -66 47 -66q23 0 59 22l8 -55q-38 -26 -89 -26q-85 0 -93 94q-61 -94 -191 -94q-98 0 -149 62.5t-51 167.5v303h68v-294q0 -83 37.5 -129.5t115.5 -46.5q63 0 107.5 34t62.5 85v351zM190 688l24 30q40 -56 108 -56q70 0 107 56l24 -30
q-43 -75 -131 -75q-89 0 -132 75z" />
    <glyph glyph-name="Uring" unicode="&#x16e;" horiz-adv-x="788" 
d="M171 680v-401q0 -105 55.5 -166t166.5 -61t167.5 63.5t56.5 164.5v400h68v-404q0 -123 -76 -205.5t-216 -82.5q-141 0 -215.5 79t-74.5 209v404h68zM295 787q0 41 28.5 69.5t69.5 28.5t69.5 -28.5t28.5 -69.5t-28.5 -69.5t-69.5 -28.5t-69.5 28.5t-28.5 69.5zM330 787
q0 -26 18.5 -44.5t44.5 -18.5t44.5 18.5t18.5 44.5t-18.5 44.5t-44.5 18.5t-44.5 -18.5t-18.5 -44.5z" />
    <glyph glyph-name="uring" unicode="&#x16f;" horiz-adv-x="677" 
d="M477 523h68v-408q0 -66 47 -66q23 0 59 22l8 -55q-38 -26 -89 -26q-85 0 -93 94q-61 -94 -191 -94q-98 0 -149 62.5t-51 167.5v303h68v-294q0 -83 37.5 -129.5t115.5 -46.5q63 0 107.5 34t62.5 85v351zM219 670q0 40 28.5 69t69.5 29t69.5 -29t28.5 -69t-28.5 -69
t-69.5 -29t-69.5 29t-28.5 69zM254 670q0 -26 18.5 -44.5t44.5 -18.5t44.5 18.5t18.5 44.5t-18.5 44.5t-44.5 18.5t-44.5 -18.5t-18.5 -44.5z" />
    <glyph glyph-name="Uhungarumlaut" unicode="&#x170;" horiz-adv-x="788" 
d="M171 680v-401q0 -105 55.5 -166t166.5 -61t167.5 63.5t56.5 164.5v400h68v-404q0 -123 -76 -205.5t-216 -82.5q-141 0 -215.5 79t-74.5 209v404h68zM428 898l-91 -137h-62l82 137h71zM596 898l-90 -137h-62l82 137h70z" />
    <glyph glyph-name="uhungarumlaut" unicode="&#x171;" horiz-adv-x="677" 
d="M477 523h68v-408q0 -66 47 -66q23 0 59 22l8 -55q-38 -26 -89 -26q-85 0 -93 94q-61 -94 -191 -94q-98 0 -149 62.5t-51 167.5v303h68v-294q0 -83 37.5 -129.5t115.5 -46.5q63 0 107.5 34t62.5 85v351zM352 741l-91 -137h-62l82 137h71zM520 741l-90 -137h-62l82 137h70z
" />
    <glyph glyph-name="Uogonek" unicode="&#x172;" horiz-adv-x="789" 
d="M171 680v-401q0 -105 55.5 -166t166.5 -61t168 63.5t57 164.5v400h68v-404q0 -109 -61.5 -188t-175.5 -96q-60 -21 -60 -69q0 -28 16.5 -43t44.5 -15q30 0 58 16l7 -36q-32 -18 -73 -18t-66.5 23.5t-25.5 65.5q0 45 41 72q-140 1 -214 79.5t-74 208.5v404h68z" />
    <glyph glyph-name="uogonek" unicode="&#x173;" horiz-adv-x="677" 
d="M477 523h68v-408q0 -66 47 -66q23 0 59 22l8 -55q-28 -18 -64 -24q-62 -23 -62 -69q0 -28 16.5 -43t44.5 -15q30 0 58 16l7 -36q-32 -18 -73 -18t-66.5 23.5t-25.5 65.5q0 47 50 77q-61 12 -67 91q-61 -94 -191 -94q-98 0 -149 62.5t-51 167.5v303h68v-294
q0 -83 37.5 -129.5t115.5 -46.5q63 0 107.5 34t62.5 85v351z" />
    <glyph glyph-name="Wcircumflex" unicode="&#x174;" horiz-adv-x="1075" 
d="M690 0l-152 367l-161 -367h-73l-277 680h73l245 -603l164 370l-95 233h73l239 -594l256 594h73l-292 -680h-73zM621 761l-84 98l-83 -98h-60l109 137h69l109 -137h-60z" />
    <glyph glyph-name="wcircumflex" unicode="&#x175;" horiz-adv-x="1033" 
d="M511 523h68v-296q0 -79 38 -126.5t111 -47.5q79 0 122 56.5t43 142.5q0 122 -57 271h71q54 -142 54 -276q0 -117 -62 -187t-167 -70q-77 0 -121.5 32t-67.5 100q-47 -132 -201 -132q-103 0 -156.5 60t-53.5 170v188q0 34 -10.5 50t-38.5 16t-58 -21l-8 55q48 24 91 24
q92 0 92 -110v-194q0 -175 149 -175q74 0 118 48.5t44 128.5v293zM626 604l-84 98l-83 -98h-60l109 137h69l109 -137h-60z" />
    <glyph glyph-name="Ycircumflex" unicode="&#x176;" horiz-adv-x="667" 
d="M299 0v287l-284 387v6h76l242 -330l243 330h75v-6l-284 -386v-288h-68zM416 761l-84 98l-83 -98h-60l109 137h69l109 -137h-60z" />
    <glyph glyph-name="ycircumflex" unicode="&#x177;" horiz-adv-x="576" 
d="M17 523h75l207 -448l189 448h69l-240 -559q-34 -84 -75.5 -123t-112.5 -39q-63 0 -119 36l13 57q52 -34 106 -34q46 0 72.5 24.5t49.5 78.5l17 41zM377 604l-84 98l-83 -98h-60l109 137h69l109 -137h-60z" />
    <glyph glyph-name="Ydieresis" unicode="&#x178;" horiz-adv-x="667" 
d="M299 0v287l-284 387v6h76l242 -330l243 330h75v-6l-284 -386v-288h-68zM162 828q0 45 46 45q45 0 45 -45q0 -44 -45 -44q-46 0 -46 44zM411 828q0 45 47 45q44 0 44 -45q0 -44 -44 -44q-47 0 -47 44z" />
    <glyph glyph-name="Zacute" unicode="&#x179;" horiz-adv-x="616" 
d="M57 51l414 568h-414v61h501v-51l-413 -568h413v-61h-501v51zM425 898l-90 -137h-62l82 137h70z" />
    <glyph glyph-name="zacute" unicode="&#x17a;" horiz-adv-x="520" 
d="M51 51l332 416h-332v56h418v-51l-331 -416h331v-56h-418v51zM375 741l-90 -137h-62l82 137h70z" />
    <glyph glyph-name="Zdotaccent" unicode="&#x17b;" horiz-adv-x="616" 
d="M57 51l414 568h-414v61h501v-51l-413 -568h413v-61h-501v51zM265 829q0 46 49 46q47 0 47 -46t-47 -46q-49 0 -49 46z" />
    <glyph glyph-name="zdotaccent" unicode="&#x17c;" horiz-adv-x="520" 
d="M51 51l332 416h-332v56h418v-51l-331 -416h331v-56h-418v51zM221 672q0 46 49 46q47 0 47 -46t-47 -46q-49 0 -49 46z" />
    <glyph glyph-name="Zcaron" unicode="&#x17d;" horiz-adv-x="616" 
d="M57 51l414 568h-414v61h501v-51l-413 -568h413v-61h-501v51zM229 898l84 -98l83 98h60l-109 -137h-69l-109 137h60z" />
    <glyph glyph-name="zcaron" unicode="&#x17e;" horiz-adv-x="520" 
d="M51 51l332 416h-332v56h418v-51l-331 -416h331v-56h-418v51zM181 741l84 -98l83 98h60l-109 -137h-69l-109 137h60z" />
    <glyph glyph-name="florin" unicode="&#x192;" horiz-adv-x="446" 
d="M406 325h-162v-364q0 -71 -36 -115t-106 -44q-35 0 -66.5 13.5t-48.5 30.5l17 56q41 -39 84 -39q88 0 88 98v364h-161v46h161v193q0 70 35.5 113t105.5 43q69 0 115 -44l-16 -58q-41 41 -85 41q-87 0 -87 -99v-189h162v-46z" />
    <glyph glyph-name="Aringacute" unicode="&#x1fa;" horiz-adv-x="695" 
d="M20 0l283 661q-49 19 -49 71q0 39 27 59t70 20t70 -20t27 -59q0 -54 -50 -72l269 -660h-69l-68 165h-370l-71 -165h-69zM351 611l-171 -393h332zM288 732q0 -47 63 -47t63 47t-63 47t-63 -47zM425 907l-52 -73h-49l45 73h56z" />
    <glyph glyph-name="aringacute" unicode="&#x1fb;" horiz-adv-x="689" 
d="M417 832l-52 -74h-49l46 74h55zM246 657q0 39 27.5 59.5t70.5 20.5t70.5 -20.5t27.5 -59.5t-27.5 -59.5t-70.5 -20.5t-70.5 20.5t-27.5 59.5zM280 657q0 -47 64 -47q62 0 62 47t-62 47q-64 0 -64 -47zM557 523v-408q0 -66 48 -66q24 0 58 22l8 -55q-41 -26 -88 -26
q-78 0 -90 78q-32 -34 -79 -56t-102 -22q-115 0 -185 75t-70 194q0 120 70 196.5t185 76.5q106 0 177 -71v62h68zM489 121v279q-26 30 -69 50.5t-92 20.5q-92 0 -147 -59t-55 -153q0 -92 55.5 -150t146.5 -58q48 0 90.5 20.5t70.5 49.5z" />
    <glyph glyph-name="AEacute" unicode="&#x1fc;" horiz-adv-x="1060" 
d="M472 0v165h-285l-106 -165h-75l432 680h551v-61h-451v-236h378v-57h-378v-265h451v-61h-517zM217 218h255v403zM804 898l-90 -137h-62l82 137h70z" />
    <glyph glyph-name="aeacute" unicode="&#x1fd;" horiz-adv-x="930" 
d="M864 237h-384q2 -91 43.5 -142t139.5 -51q90 0 172 63l29 -50q-89 -71 -206 -71q-151 0 -202 104q-28 -28 -51.5 -46.5t-71 -38.5t-97.5 -20q-87 0 -138.5 45.5t-51.5 118.5q0 91 70 138t191 47q65 0 104 -9q0 84 -26 118.5t-102 34.5q-97 0 -173 -37l-14 60
q80 36 194 36q88 0 123 -34t47 -97q22 52 71 91.5t122 39.5q108 0 163.5 -62t55.5 -156q0 -50 -8 -82zM654 479q-80 0 -123.5 -56t-45.5 -131h322l3 33q0 67 -40.5 110.5t-115.5 43.5zM114 154q0 -50 36.5 -80t98.5 -30q78 0 161 78v147q-48 11 -104 10q-192 -2 -192 -125z
M585 741l-90 -137h-62l82 137h70z" />
    <glyph glyph-name="Oslashacute" unicode="&#x1fe;" horiz-adv-x="832" 
d="M66 339q0 151 100 251t249 100q117 0 207 -63l43 53h54v-6l-62 -76q109 -101 109 -259q0 -149 -100 -249t-251 -100q-114 0 -202 60l-41 -50h-53v6l59 72q-112 101 -112 261zM132 339q0 -129 87 -210l362 447q-74 50 -166 50q-122 0 -202.5 -81.5t-80.5 -205.5zM699 339
q0 125 -83 208l-362 -446q70 -47 161 -47q123 0 203.5 81t80.5 204zM533 898l-90 -137h-62l82 137h70z" />
    <glyph glyph-name="oslashacute" unicode="&#x1ff;" horiz-adv-x="666" 
d="M55 260q0 120 78 198.5t199 78.5q100 0 172 -55l33 40h41v-6l-47 -57q80 -78 80 -199q0 -118 -78.5 -196t-200.5 -78q-85 0 -153 41l-22 -27h-42v6l35 42q-95 79 -95 212zM121 260q0 -101 70 -161l272 333q-54 42 -131 42q-92 0 -151.5 -61t-59.5 -153zM545 260
q0 88 -55 148l-270 -330q49 -29 112 -29q94 0 153.5 60t59.5 151zM450 741l-90 -137h-62l82 137h70z" />
    <glyph glyph-name="Scommaaccent" unicode="&#x218;" horiz-adv-x="640" 
d="M363 301l-145 35q-72 18 -112 59t-40 104q0 80 67.5 135t195.5 55q65 0 128.5 -16t104.5 -39l-21 -64q-36 23 -97 39.5t-117 16.5q-93 0 -142 -35.5t-49 -87.5q0 -79 109 -105l145 -36q92 -23 138 -63t46 -108q0 -92 -74 -146.5t-193 -54.5q-66 0 -129 18.5t-101 41.5
l17 64q101 -61 214 -61q88 0 142 36.5t54 96.5q0 44 -35 71t-106 44zM281 -232l24 69q-50 5 -50 44q0 24 13.5 37t35.5 13q26 0 40.5 -14.5t14.5 -39.5q0 -61 -41 -123z" />
    <glyph glyph-name="scommaaccent" unicode="&#x219;" horiz-adv-x="520" 
d="M457 493l-18 -60q-80 40 -170 40q-65 0 -105.5 -26.5t-40.5 -70.5q0 -34 20.5 -48t72.5 -27l115 -26q66 -15 99 -45.5t33 -82.5q0 -70 -53 -113.5t-148 -43.5q-107 0 -195 45l15 60q90 -47 177 -47q65 0 101 26.5t36 67.5q0 31 -25 47.5t-74 27.5l-111 25
q-67 16 -99.5 45t-32.5 85q0 71 59.5 115.5t159.5 44.5q47 0 100.5 -12t83.5 -27zM230 -232l24 69q-50 5 -50 44q0 24 13.5 37t35.5 13q26 0 40.5 -14.5t14.5 -39.5q0 -61 -41 -123z" />
    <glyph glyph-name="uni021A" unicode="&#x21a;" horiz-adv-x="629" 
d="M604 612h-249v-612h-68v612h-263v68h580v-68zM288 -232l24 69q-50 5 -50 44q0 24 13.5 37t35.5 13q26 0 40.5 -14.5t14.5 -39.5q0 -61 -41 -123z" />
    <glyph glyph-name="uni021B" unicode="&#x21b;" horiz-adv-x="471" 
d="M138 656h61v-133h217v-56h-218v-306q0 -110 98 -110q30 0 65 11.5t59 29.5l24 -54q-74 -48 -167 -48q-70 0 -108.5 41t-38.5 118v318h-104v56h105zM229 -232l24 69q-50 5 -50 44q0 24 13.5 37t35.5 13q26 0 40.5 -14.5t14.5 -39.5q0 -61 -41 -123z" />
    <glyph glyph-name="dotlessj" unicode="&#x237;" horiz-adv-x="257" 
d="M95 523h68v-502q0 -152 -138 -218l-38 47q52 29 80 67.5t28 101.5v504z" />
    <glyph glyph-name="circumflex" unicode="&#x2c6;" 
d="M390 604l-84 98l-83 -98h-60l109 137h69l109 -137h-60z" />
    <glyph glyph-name="caron" unicode="&#x2c7;" 
d="M223 741l84 -98l83 98h60l-109 -137h-69l-109 137h60z" />
    <glyph glyph-name="breve" unicode="&#x2d8;" 
d="M175 688l24 30q40 -56 108 -56q70 0 107 56l24 -30q-43 -75 -131 -75q-89 0 -132 75z" />
    <glyph glyph-name="dotaccent" unicode="&#x2d9;" 
d="M259 672q0 46 49 46q47 0 47 -46t-47 -46q-49 0 -49 46z" />
    <glyph glyph-name="ring" unicode="&#x2da;" 
d="M209 630q0 40 28.5 69t69.5 29t69.5 -29t28.5 -69t-28.5 -69t-69.5 -29t-69.5 29t-28.5 69zM244 630q0 -26 18.5 -44.5t44.5 -18.5t44.5 18.5t18.5 44.5t-18.5 44.5t-44.5 18.5t-44.5 -18.5t-18.5 -44.5z" />
    <glyph glyph-name="ogonek" unicode="&#x2db;" 
d="M318 11l37 -11q-43 -2 -71 -22t-28 -55q0 -28 16.5 -43t44.5 -15q31 0 57 16l8 -36q-32 -18 -73 -18t-66.5 23.5t-25.5 65.5q0 41 32.5 66.5t68.5 28.5z" />
    <glyph glyph-name="tilde" unicode="&#x2dc;" 
d="M165 626l-26 30q14 29 39.5 49.5t56.5 20.5q29 0 77 -34t66 -34q46 0 70 49l26 -29q-35 -70 -95 -70q-29 0 -77 34t-66 34q-43 0 -71 -50z" />
    <glyph glyph-name="hungarumlaut" unicode="&#x2dd;" 
d="M299 741l-91 -137h-62l82 137h71zM467 741l-90 -137h-62l82 137h70z" />
    <glyph glyph-name="uni0394" unicode="&#x394;" horiz-adv-x="714" 
d="M33 0l292 680h78l276 -680h-646zM363 611l-242 -557h471z" />
    <glyph glyph-name="uni03A9" unicode="&#x3a9;" horiz-adv-x="846" 
d="M479 0v57q100 26 164 102.5t64 179.5q0 124 -80 205.5t-205 81.5q-123 0 -202.5 -81.5t-79.5 -205.5q0 -106 62 -182t164 -100v-57h-273v56h164q-83 37 -133.5 115.5t-50.5 177.5q0 144 99.5 242.5t249.5 98.5q152 0 251.5 -98t99.5 -243q0 -97 -50.5 -175.5
t-132.5 -117.5h163v-56h-274z" />
    <glyph glyph-name="uni03BC" unicode="&#x3bc;" horiz-adv-x="648" 
d="M163 523v-297q3 -173 152 -173q64 0 109 35t62 87v348h68v-523h-68v85q-62 -95 -192 -95q-81 0 -131 44v-222h-68v711h68z" />
    <glyph glyph-name="pi" unicode="&#x3c0;" horiz-adv-x="708" 
d="M31 523h648v-56h-139v-352q0 -66 48 -66q27 0 57 22l9 -55q-12 -10 -38 -18t-51 -8q-93 0 -93 112v365h-242v-467h-68v467h-131v56z" />
    <glyph glyph-name="Wgrave" unicode="&#x1e80;" horiz-adv-x="1075" 
d="M690 0l-152 367l-161 -367h-73l-277 680h73l245 -603l164 370l-95 233h73l239 -594l256 594h73l-292 -680h-73zM512 761l-90 137h70l82 -137h-62z" />
    <glyph glyph-name="wgrave" unicode="&#x1e81;" horiz-adv-x="1033" 
d="M511 523h68v-296q0 -79 38 -126.5t111 -47.5q79 0 122 56.5t43 142.5q0 122 -57 271h71q54 -142 54 -276q0 -117 -62 -187t-167 -70q-77 0 -121.5 32t-67.5 100q-47 -132 -201 -132q-103 0 -156.5 60t-53.5 170v188q0 34 -10.5 50t-38.5 16t-58 -21l-8 55q48 24 91 24
q92 0 92 -110v-194q0 -175 149 -175q74 0 118 48.5t44 128.5v293zM512 604l-90 137h70l82 -137h-62z" />
    <glyph glyph-name="Wacute" unicode="&#x1e82;" horiz-adv-x="1075" 
d="M690 0l-152 367l-161 -367h-73l-277 680h73l245 -603l164 370l-95 233h73l239 -594l256 594h73l-292 -680h-73zM649 898l-90 -137h-62l82 137h70z" />
    <glyph glyph-name="wacute" unicode="&#x1e83;" horiz-adv-x="1033" 
d="M511 523h68v-296q0 -79 38 -126.5t111 -47.5q79 0 122 56.5t43 142.5q0 122 -57 271h71q54 -142 54 -276q0 -117 -62 -187t-167 -70q-77 0 -121.5 32t-67.5 100q-47 -132 -201 -132q-103 0 -156.5 60t-53.5 170v188q0 34 -10.5 50t-38.5 16t-58 -21l-8 55q48 24 91 24
q92 0 92 -110v-194q0 -175 149 -175q74 0 118 48.5t44 128.5v293zM656 741l-90 -137h-62l82 137h70z" />
    <glyph glyph-name="Wdieresis" unicode="&#x1e84;" horiz-adv-x="1075" 
d="M690 0l-152 367l-161 -367h-73l-277 680h73l245 -603l164 370l-95 233h73l239 -594l256 594h73l-292 -680h-73zM368 828q0 45 46 45q45 0 45 -45q0 -44 -45 -44q-46 0 -46 44zM617 828q0 45 47 45q44 0 44 -45q0 -44 -44 -44q-47 0 -47 44z" />
    <glyph glyph-name="wdieresis" unicode="&#x1e85;" horiz-adv-x="1033" 
d="M511 523h68v-296q0 -79 38 -126.5t111 -47.5q79 0 122 56.5t43 142.5q0 122 -57 271h71q54 -142 54 -276q0 -117 -62 -187t-167 -70q-77 0 -121.5 32t-67.5 100q-47 -132 -201 -132q-103 0 -156.5 60t-53.5 170v188q0 34 -10.5 50t-38.5 16t-58 -21l-8 55q48 24 91 24
q92 0 92 -110v-194q0 -175 149 -175q74 0 118 48.5t44 128.5v293zM372 671q0 45 46 45q45 0 45 -45q0 -44 -45 -44q-46 0 -46 44zM621 671q0 45 47 45q44 0 44 -45q0 -44 -44 -44q-47 0 -47 44z" />
    <glyph glyph-name="Ygrave" unicode="&#x1ef2;" horiz-adv-x="667" 
d="M299 0v287l-284 387v6h76l242 -330l243 330h75v-6l-284 -386v-288h-68zM304 761l-90 137h70l82 -137h-62z" />
    <glyph glyph-name="ygrave" unicode="&#x1ef3;" horiz-adv-x="576" 
d="M17 523h75l207 -448l189 448h69l-240 -559q-34 -84 -75.5 -123t-112.5 -39q-63 0 -119 36l13 57q52 -34 106 -34q46 0 72.5 24.5t49.5 78.5l17 41zM274 604l-90 137h70l82 -137h-62z" />
    <glyph glyph-name="endash" unicode="&#x2013;" horiz-adv-x="623" 
d="M80 331h463v-57h-463v57z" />
    <glyph glyph-name="emdash" unicode="&#x2014;" horiz-adv-x="855" 
d="M80 331h695v-57h-695v57z" />
    <glyph glyph-name="quoteleft" unicode="&#x2018;" horiz-adv-x="247" 
d="M173 673l-46 -140q25 -3 38 -17.5t13 -35.5q0 -28 -15 -43t-41 -15t-41 16t-15 42q0 41 23 109t43 101z" />
    <glyph glyph-name="quoteright" unicode="&#x2019;" horiz-adv-x="243" 
d="M77 437l47 141q-25 2 -37.5 16.5t-12.5 35.5q0 58 55 58q26 0 41 -16t15 -42q0 -40 -23.5 -107.5t-43.5 -102.5z" />
    <glyph glyph-name="quotesinglbase" unicode="&#x201a;" horiz-adv-x="259" 
d="M77 -153l47 141q-25 2 -37.5 16.5t-12.5 35.5q0 58 55 58q26 0 41 -16t15 -42q0 -40 -23.5 -107.5t-43.5 -102.5z" />
    <glyph glyph-name="quotedblleft" unicode="&#x201c;" horiz-adv-x="422" 
d="M349 675l-45 -137q23 -2 35.5 -15.5t12.5 -33.5q0 -54 -51 -54q-25 0 -38.5 15.5t-13.5 38.5q0 39 22.5 104.5t40.5 96.5zM166 675l-44 -137q23 -2 35.5 -15.5t12.5 -33.5q0 -54 -51 -54q-25 0 -38.5 15.5t-13.5 38.5q0 39 22.5 104.5t40.5 96.5z" />
    <glyph glyph-name="quotedblright" unicode="&#x201d;" horiz-adv-x="416" 
d="M76 449l44 136q-48 6 -48 49q0 54 51 54q25 0 38.5 -15t13.5 -39q0 -38 -22 -104.5t-40 -96.5zM258 449l45 136q-49 6 -49 49q0 54 52 54q25 0 38.5 -15t13.5 -39q0 -38 -22.5 -104t-40.5 -97z" />
    <glyph glyph-name="quotedblbase" unicode="&#x201e;" horiz-adv-x="433" 
d="M78 -155l45 138q-24 1 -36.5 14.5t-12.5 33.5q0 26 13.5 40.5t37.5 14.5q25 0 39 -15.5t14 -39.5q0 -38 -22.5 -103.5t-40.5 -97.5zM260 -155l45 138q-24 1 -36.5 14.5t-12.5 33.5q0 55 52 55q24 0 38 -15.5t14 -39.5q0 -38 -22.5 -103.5t-40.5 -97.5z" />
    <glyph glyph-name="dagger" unicode="&#x2020;" horiz-adv-x="608" 
d="M573 375h-241v-563h-56v563h-241v57h241v278h56v-278h241v-57z" />
    <glyph glyph-name="daggerdbl" unicode="&#x2021;" horiz-adv-x="662" 
d="M600 75h-240v-263h-57v263h-241v57h241v243h-241v57h241v278h57v-278h240v-57h-240v-243h240v-57z" />
    <glyph glyph-name="bullet" unicode="&#x2022;" horiz-adv-x="317" 
d="M75 302q0 43 21.5 65.5t60.5 22.5q41 0 63 -22.5t22 -65.5t-22 -66t-63 -23q-39 0 -60.5 23t-21.5 66z" />
    <glyph glyph-name="ellipsis" unicode="&#x2026;" horiz-adv-x="703" 
d="M75 40q0 55 52 55q26 0 40 -14.5t14 -40.5q0 -55 -54 -55q-52 0 -52 55zM299 40q0 55 52 55q26 0 40 -14.5t14 -40.5q0 -55 -54 -55q-52 0 -52 55zM523 40q0 55 52 55q26 0 40 -14.5t14 -40.5q0 -55 -54 -55q-52 0 -52 55z" />
    <glyph glyph-name="perthousand" unicode="&#x2030;" horiz-adv-x="1240" 
d="M851 161q0 74 49.5 123.5t124.5 49.5q76 0 125 -49.5t49 -123.5t-49 -122.5t-125 -48.5t-125 48.5t-49 122.5zM906 161q0 -51 33.5 -85t85.5 -34q53 0 86 33.5t33 85.5t-33 86t-86 34q-52 0 -85.5 -34.5t-33.5 -85.5zM459 161q0 74 49.5 123.5t124.5 49.5q76 0 125 -49.5
t49 -123.5t-49 -122.5t-125 -48.5t-125 48.5t-49 122.5zM514 161q0 -51 33.5 -85t85.5 -34t85.5 34t33.5 85t-33.5 85.5t-85.5 34.5t-85.5 -34.5t-33.5 -85.5zM209 6l360 674h62v-6l-360 -674h-62v6zM44 517q0 74 49.5 123t124.5 49q76 0 125 -49t49 -123t-49 -122.5
t-125 -48.5t-125 48.5t-49 122.5zM99 517q0 -51 33.5 -85t85.5 -34t85.5 34t33.5 85t-33.5 85.5t-85.5 34.5t-85.5 -34.5t-33.5 -85.5z" />
    <glyph glyph-name="guilsinglleft" unicode="&#x2039;" horiz-adv-x="311" 
d="M53 295v15l159 199h6l24 -21l-130 -185l131 -186l-25 -20h-6z" />
    <glyph glyph-name="guilsinglright" unicode="&#x203a;" horiz-adv-x="311" 
d="M259 310v-15l-159 -198h-6l-24 20l129 186l-130 185l25 21h6z" />
    <glyph glyph-name="fraction" unicode="&#x2044;" horiz-adv-x="138" 
d="M-138 6l369 674h44v-6l-368 -674h-45v6z" />
    <glyph glyph-name="zerosuperior" unicode="&#x2070;" horiz-adv-x="364" 
d="M45 625q0 76 34.5 120.5t102.5 44.5t102.5 -44.5t34.5 -120.5t-34.5 -120t-102.5 -44t-102.5 44t-34.5 120zM87 625q0 -124 95 -124t95 124q0 125 -95 125t-95 -125z" />
    <glyph glyph-name="foursuperior" unicode="&#x2074;" horiz-adv-x="352" 
d="M324 532h-67v-67h-43v67h-189v31l179 221l10 -2v2h43v-218h67v-34zM71 566h143v176z" />
    <glyph glyph-name="fivesuperior" unicode="&#x2075;" horiz-adv-x="324" 
d="M58 624l-2 2l13 158h203v-38h-166l-7 -88h52q131 0 131 -90q0 -54 -37.5 -81t-96.5 -27q-57 0 -110 23l12 36q48 -21 96 -21q39 0 66 17t27 51q0 58 -90 58h-91z" />
    <glyph glyph-name="sixsuperior" unicode="&#x2076;" horiz-adv-x="352" 
d="M194 752q-52 0 -79.5 -34t-27.5 -92q41 51 107 51q56 0 86.5 -27t30.5 -77t-34.5 -81t-88.5 -31q-68 0 -106 45t-38 120q0 74 38.5 119t106.5 45q65 0 109 -29l-14 -35q-38 26 -90 26zM188 643q-58 0 -98 -52q17 -90 98 -90q35 0 58 21t23 51q0 35 -22 52.5t-59 17.5z
" />
    <glyph glyph-name="sevensuperior" unicode="&#x2077;" horiz-adv-x="277" 
d="M69 469l138 277h-182v38h230v-32l-139 -287h-47v4z" />
    <glyph glyph-name="eightsuperior" unicode="&#x2078;" horiz-adv-x="352" 
d="M176 461q-61 0 -96 24.5t-35 67.5q0 65 79 80q-30 4 -49 24.5t-19 46.5q0 41 31.5 63.5t88.5 22.5t88.5 -22.5t31.5 -63.5q0 -26 -18.5 -46.5t-49.5 -24.5q80 -15 80 -80q0 -43 -35.5 -67.5t-96.5 -24.5zM177 615q-88 0 -88 -56q0 -28 24.5 -45.5t62.5 -17.5
q39 0 63.5 17.5t24.5 45.5q0 56 -87 56zM176 754q-35 0 -56 -13.5t-21 -39.5q0 -23 19.5 -39t58.5 -16q38 0 57 16t19 39q0 26 -21 39.5t-56 13.5z" />
    <glyph glyph-name="ninesuperior" unicode="&#x2079;" horiz-adv-x="352" 
d="M159 499q52 0 79 34t27 91q-43 -51 -107 -51q-55 0 -86 27.5t-31 76.5q0 50 35 81.5t89 31.5q67 0 105 -45t38 -120q0 -74 -38 -119t-106 -45q-66 0 -109 28l13 36q37 -26 91 -26zM164 608q58 0 98 51q-7 42 -32 66.5t-65 24.5q-36 0 -58.5 -21t-22.5 -52
q0 -34 21.5 -51.5t58.5 -17.5z" />
    <glyph glyph-name="zeroinferior" unicode="&#x2080;" horiz-adv-x="364" 
d="M45 59q0 76 34.5 120.5t102.5 44.5t102.5 -44.5t34.5 -120.5t-34.5 -120t-102.5 -44t-102.5 44t-34.5 120zM87 59q0 -124 95 -124t95 124q0 125 -95 125t-95 -125z" />
    <glyph glyph-name="oneinferior" unicode="&#x2081;" horiz-adv-x="253" 
d="M19 151l135 68h35v-319h-43v270l-110 -51z" />
    <glyph glyph-name="twoinferior" unicode="&#x2082;" horiz-adv-x="328" 
d="M49 -100v34l131 99q55 40 55 85q0 29 -18.5 47.5t-53.5 18.5q-39 0 -59.5 -21t-21.5 -56l-40 6q2 51 33.5 81t87.5 30t85.5 -29t29.5 -76q0 -63 -68 -112l-94 -69h172v-38h-239z" />
    <glyph glyph-name="threeinferior" unicode="&#x2083;" horiz-adv-x="326" 
d="M79 83h82q31 0 49 15t18 36q0 52 -79 52q-49 0 -96 -21l-10 37q55 22 106 22q57 0 89.5 -22.5t32.5 -63.5q0 -26 -16 -46.5t-44 -25.5q71 -13 71 -79q0 -43 -35.5 -67.5t-97.5 -24.5q-51 0 -107 21l11 37q46 -20 96 -20q39 0 64 16t25 44q0 52 -77 52h-82v38z" />
    <glyph glyph-name="fourinferior" unicode="&#x2084;" horiz-adv-x="352" 
d="M324 -33h-67v-67h-43v67h-189v31l179 221l10 -2v2h43v-218h67v-34zM71 1h143v176z" />
    <glyph glyph-name="fiveinferior" unicode="&#x2085;" horiz-adv-x="324" 
d="M58 59l-3 2l14 158h203v-38h-167l-7 -89h53q131 0 131 -90q0 -53 -37.5 -80t-96.5 -27q-55 0 -111 23l12 36q48 -21 97 -21q39 0 66 16.5t27 51.5q0 58 -90 58h-91z" />
    <glyph glyph-name="sixinferior" unicode="&#x2086;" horiz-adv-x="352" 
d="M194 186q-52 0 -79.5 -34t-27.5 -92q42 52 107 52q56 0 86.5 -27.5t30.5 -76.5q0 -51 -34.5 -82t-88.5 -31q-68 0 -106 45t-38 120q0 74 38.5 119t106.5 45q63 0 109 -28l-14 -36q-35 26 -90 26zM188 77q-58 0 -98 -52q8 -41 33 -65.5t65 -24.5q35 0 58 21t23 52
q0 34 -22 51.5t-59 17.5z" />
    <glyph glyph-name="seveninferior" unicode="&#x2087;" horiz-adv-x="278" 
d="M70 -96l139 277h-184v38h231v-32l-139 -287h-47v4z" />
    <glyph glyph-name="eightinferior" unicode="&#x2088;" horiz-adv-x="351" 
d="M175 -105q-61 0 -96 24.5t-35 67.5q0 67 80 80q-31 4 -50 24.5t-19 46.5q0 41 32 63.5t88 22.5q57 0 89 -22.5t32 -63.5q0 -26 -19 -46.5t-50 -24.5q80 -13 80 -80q0 -43 -35.5 -67.5t-96.5 -24.5zM176 50q-44 0 -66.5 -16t-22.5 -41q0 -28 25 -45t63 -17q39 0 64 17
t25 45q0 25 -22 41t-66 16zM175 188q-35 0 -56.5 -14t-21.5 -39q0 -22 20 -38t59 -16q38 0 57.5 15.5t19.5 38.5q0 26 -21 39.5t-57 13.5z" />
    <glyph glyph-name="nineinferior" unicode="&#x2089;" horiz-adv-x="352" 
d="M159 -67q52 0 79 34.5t27 91.5q-43 -51 -107 -51q-55 0 -86 27t-31 76q0 50 35 81.5t89 31.5q67 0 105 -45t38 -120q0 -74 -38 -119t-106 -45t-109 29l13 35q40 -26 91 -26zM164 42q58 0 98 51q-7 42 -32 66.5t-65 24.5q-36 0 -58.5 -21t-22.5 -52q0 -34 21.5 -51.5
t58.5 -17.5z" />
    <glyph glyph-name="Euro" unicode="&#x20ac;" 
d="M552 612l-26 -53q-74 68 -162 68q-80 0 -131.5 -52.5t-65.5 -156.5h294l-22 -46h-276q-1 -11 -1 -33q0 -28 1 -41h244l-19 -45h-220q15 -99 66 -149t128 -50q92 0 168 59l27 -56q-87 -67 -199 -67q-105 0 -173 68t-86 195h-56v45h51q-1 13 -1 41q0 22 1 33h-51v46h54
q16 132 85.5 202t176.5 70q104 0 193 -78z" />
    <glyph glyph-name="afii61289" unicode="&#x2113;" horiz-adv-x="411" 
d="M78 127l-30 50l67 46v270q0 93 37 144.5t104 51.5q109 0 109 -135q0 -105 -51 -201t-118 -154v-56q0 -44 16.5 -63t50.5 -19q36 0 67 21l-2 -79q-33 -13 -84 -13q-63 0 -96 30.5t-33 98.5v36zM196 502v-228q111 109 111 287q0 69 -47 69q-28 0 -46 -32.5t-18 -95.5z" />
    <glyph glyph-name="uni2117" unicode="&#x2117;" horiz-adv-x="839" 
d="M69 339q0 151 100 251t249 100q151 0 251 -100t100 -251q0 -149 -100 -249t-251 -100q-149 0 -249 100t-100 249zM113 339q0 -131 87 -219t218 -88q132 0 220 88t88 219q0 133 -87.5 221t-220.5 88q-131 0 -218 -88t-87 -221zM317 169v340h152q51 0 85 -31t34 -90
q0 -54 -34.5 -86.5t-84.5 -32.5h-99v-100h-53zM462 464h-92v-149h92q31 0 52.5 20t21.5 54q0 36 -21 55.5t-53 19.5z" />
    <glyph glyph-name="trademark" unicode="&#x2122;" horiz-adv-x="851" 
d="M706 357v240l-120 -148h-9l-120 148v-240h-43v306h38l130 -157l129 157h38v-306h-43zM334 621h-107v-264h-43v264h-111v42h261v-42z" />
    <glyph glyph-name="Omega" unicode="&#x2126;" horiz-adv-x="846" 
d="M479 0v57q100 26 164 102.5t64 179.5q0 124 -80 205.5t-205 81.5q-123 0 -202.5 -81.5t-79.5 -205.5q0 -106 62 -182t164 -100v-57h-273v56h164q-83 37 -133.5 115.5t-50.5 177.5q0 144 99.5 242.5t249.5 98.5q152 0 251.5 -98t99.5 -243q0 -97 -50.5 -175.5
t-132.5 -117.5h163v-56h-274z" />
    <glyph glyph-name="estimated" unicode="&#x212e;" horiz-adv-x="698" 
d="M355 601q71 0 126 -25.5t87.5 -69.5t49 -98t16.5 -114v-26h-431v-169q60 -58 152 -58q130 0 184 104h66q-30 -73 -93 -115t-157 -42q-93 0 -157.5 45t-92.5 112.5t-28 148.5q0 82 28 149.5t92.5 112.5t157.5 45zM355 548q-94 0 -152 -58v-170h304v170q-58 58 -152 58z
" />
    <glyph glyph-name="onethird" unicode="&#x2153;" horiz-adv-x="761" 
d="M131 6l369 674h44v-6l-368 -674h-45v6zM35 612l135 67h35v-319h-43v272l-110 -54zM504 182h82q31 0 49 15t18 36q0 52 -79 52q-49 0 -96 -21l-10 37q55 22 106 22q57 0 89.5 -22.5t32.5 -63.5q0 -26 -16 -46.5t-44 -25.5q71 -13 71 -79q0 -43 -35.5 -67.5t-97.5 -24.5
q-51 0 -107 21l11 37q46 -20 96 -20q39 0 64 16t25 44q0 52 -77 52h-82v38z" />
    <glyph glyph-name="twothirds" unicode="&#x2154;" horiz-adv-x="833" 
d="M207 6l369 674h44v-6l-368 -674h-45v6zM581 182h82q31 0 49 15t18 36q0 52 -79 52q-49 0 -96 -21l-10 37q55 22 106 22q57 0 89.5 -22.5t32.5 -63.5q0 -26 -16 -46.5t-44 -25.5q71 -13 71 -79q0 -43 -35.5 -67.5t-97.5 -24.5q-51 0 -107 21l11 37q46 -20 96 -20
q39 0 64 16t25 44q0 52 -77 52h-82v38zM302 366h-239v34l131 99q55 40 55 85q0 29 -18.5 47.5t-53.5 18.5q-39 0 -59.5 -21t-21.5 -56l-40 6q2 51 33.5 81t87.5 30t85.5 -29t29.5 -76q0 -63 -68 -112l-94 -69h172v-38z" />
    <glyph glyph-name="oneeighth" unicode="&#x215b;" horiz-adv-x="761" 
d="M131 6l369 674h44v-6l-368 -674h-45v6zM575 -6q-61 0 -96 24.5t-35 67.5q0 67 80 80q-31 4 -50 24.5t-19 46.5q0 41 32 63.5t88 22.5q57 0 89 -22.5t32 -63.5q0 -26 -19 -46.5t-50 -24.5q80 -13 80 -80q0 -43 -35.5 -67.5t-96.5 -24.5zM576 149q-44 0 -66.5 -16
t-22.5 -41q0 -28 25 -45t63 -17q39 0 64 17t25 45q0 25 -22 41t-66 16zM575 287q-35 0 -56.5 -14t-21.5 -39q0 -22 20 -38t59 -16q38 0 57.5 15.5t19.5 38.5q0 26 -21 39.5t-57 13.5zM35 617l135 67h35v-319h-43v272l-110 -54z" />
    <glyph glyph-name="threeeighths" unicode="&#x215c;" horiz-adv-x="821" 
d="M196 6l369 674h44v-6l-368 -674h-45v6zM640 -6q-61 0 -96 24.5t-35 67.5q0 67 80 80q-31 4 -50 24.5t-19 46.5q0 41 32 63.5t88 22.5q57 0 89 -22.5t32 -63.5q0 -26 -19 -46.5t-50 -24.5q80 -13 80 -80q0 -43 -35.5 -67.5t-96.5 -24.5zM641 149q-44 0 -66.5 -16
t-22.5 -41q0 -28 25 -45t63 -17q39 0 64 17t25 45q0 25 -22 41t-66 16zM640 287q-35 0 -56.5 -14t-21.5 -39q0 -22 20 -38t59 -16t58 15.5t19 38.5q0 26 -21 39.5t-57 13.5zM92 548h82q31 0 49 15.5t18 36.5q0 52 -79 52q-50 0 -96 -22l-10 38q55 22 106 22q57 0 89.5 -22.5
t32.5 -63.5q0 -27 -16 -47t-44 -25q71 -13 71 -79q0 -43 -35.5 -67.5t-97.5 -24.5q-51 0 -107 21l11 37q46 -20 96 -20q39 0 64 16t25 44q0 52 -77 52h-82v37z" />
    <glyph glyph-name="fiveeighths" unicode="&#x215d;" horiz-adv-x="821" 
d="M639 -6q-61 0 -96 24.5t-35 67.5q0 67 80 80q-31 4 -50 24.5t-19 46.5q0 41 32 63.5t88 22.5q57 0 89 -22.5t32 -63.5q0 -26 -19 -46.5t-50 -24.5q80 -13 80 -80q0 -43 -35.5 -67.5t-96.5 -24.5zM195 6l369 674h44v-6l-368 -674h-45v6zM71 524l-2 2l13 158h203v-38h-166
l-7 -88h52q131 0 131 -90q0 -54 -37.5 -81t-96.5 -27q-57 0 -110 23l12 36q48 -21 96 -21q39 0 66 17t27 51q0 58 -90 58h-91zM640 149q-44 0 -66.5 -16t-22.5 -41q0 -28 25 -45t63 -17q39 0 64 17t25 45q0 25 -22 41t-66 16zM639 287q-35 0 -56.5 -14t-21.5 -39
q0 -22 20 -38t59 -16q38 0 57.5 15.5t19.5 38.5q0 26 -21 39.5t-57 13.5z" />
    <glyph glyph-name="seveneighths" unicode="&#x215e;" horiz-adv-x="763" 
d="M137 6l369 674h44v-6l-368 -674h-45v6zM581 -6q-61 0 -96 24.5t-35 67.5q0 67 80 80q-31 4 -50 24.5t-19 46.5q0 41 32 63.5t88 22.5q57 0 89 -22.5t32 -63.5q0 -26 -19 -46.5t-50 -24.5q80 -13 80 -80q0 -43 -35.5 -67.5t-96.5 -24.5zM582 149q-44 0 -66.5 -16
t-22.5 -41q0 -28 25 -45t63 -17q39 0 64 17t25 45q0 25 -22 41t-66 16zM581 287q-35 0 -56.5 -14t-21.5 -39q0 -22 20 -38t59 -16q38 0 57.5 15.5t19.5 38.5q0 26 -21 39.5t-57 13.5zM83 369l138 277h-182v38h230v-32l-139 -287h-47v4z" />
    <glyph glyph-name="arrowleft" unicode="&#x2190;" horiz-adv-x="723" 
d="M172 327h474v-54h-473l183 -177l-35 -36l-244 241l244 238l36 -39z" />
    <glyph glyph-name="arrowup" unicode="&#x2191;" horiz-adv-x="723" 
d="M389 487v-473h-54v473l-177 -184l-36 36l240 244l238 -244l-38 -36z" />
    <glyph glyph-name="arrowright" unicode="&#x2192;" horiz-adv-x="723" 
d="M550 271h-473v54h473l-184 177l36 37l244 -242l-244 -237l-37 38z" />
    <glyph glyph-name="arrowdown" unicode="&#x2193;" horiz-adv-x="723" 
d="M333 109v474h54v-473l177 184l36 -35l-241 -245l-237 244l38 36z" />
    <glyph glyph-name="uni2196" unicode="&#x2196;" horiz-adv-x="723" 
d="M247 453l335 -336l-37 -38l-335 335l5 -255l-51 -1l-3 344l341 -5l-1 -53z" />
    <glyph glyph-name="uni2197" unicode="&#x2197;" horiz-adv-x="723" 
d="M514 413l-335 -335l-38 37l334 335l-255 -5v51l343 3l-4 -341q-9 0 -26.5 0.5t-26.5 0.5z" />
    <glyph glyph-name="uni2198" unicode="&#x2198;" horiz-adv-x="723" 
d="M476 146l-335 334l37 39l335 -335l-5 255l51 1l3 -343l-342 4l2 53z" />
    <glyph glyph-name="uni2199" unicode="&#x2199;" horiz-adv-x="723" 
d="M207 185l335 334l39 -37l-335 -335l255 5l1 -51l-344 -3l5 341l52 -1z" />
    <glyph glyph-name="partialdiff" unicode="&#x2202;" horiz-adv-x="618" 
d="M265 454q131 0 215 -126v13q0 126 -70.5 214t-165.5 120l27 45q112 -29 194.5 -132t82.5 -247q0 -161 -71.5 -256t-198.5 -95q-100 0 -165 66.5t-65 172.5q0 103 58.5 164t158.5 61zM280 53q81 0 131 57t64 156q-29 48 -78.5 89t-118.5 41q-73 0 -117.5 -44t-44.5 -124
q0 -75 46.5 -125t117.5 -50z" />
    <glyph glyph-name="Delta" unicode="&#x2206;" horiz-adv-x="714" 
d="M33 0l292 680h78l276 -680h-646zM363 611l-242 -557h471z" />
    <glyph glyph-name="product" unicode="&#x220f;" horiz-adv-x="711" 
d="M175 -188h-65v868h491v-868h-65v807h-361v-807z" />
    <glyph glyph-name="summation" unicode="&#x2211;" horiz-adv-x="526" 
d="M59 0v41l211 299l-213 300v40h408v-56h-324l199 -284l-197 -284h322v-56h-406z" />
    <glyph glyph-name="minus" unicode="&#x2212;" 
d="M72 330h456v-56h-456v56z" />
    <glyph glyph-name="uni2215" unicode="&#x2215;" horiz-adv-x="138" 
d="M-138 6l369 674h44v-6l-368 -674h-45v6z" />
    <glyph glyph-name="uni2219" unicode="&#x2219;" horiz-adv-x="263" 
d="M77 298q0 56 54 56q55 0 55 -56t-55 -56q-54 0 -54 56z" />
    <glyph glyph-name="radical" unicode="&#x221a;" horiz-adv-x="634" 
d="M172 442l185 -366l194 622l42 -15l-216 -683h-48l-187 364l-95 -50l-24 47z" />
    <glyph glyph-name="infinity" unicode="&#x221e;" horiz-adv-x="845" 
d="M131 299q0 -53 30.5 -82.5t78.5 -29.5q55 0 103 58l45 54l-45 54q-47 58 -103 58q-48 0 -78.5 -29.5t-30.5 -82.5zM423 264l-46 -54q-66 -74 -143 -74q-68 0 -112 44.5t-44 118.5t44 118.5t112 44.5q79 0 143 -74l45 -54l47 54q67 74 142 74q68 0 112 -44.5t44 -118.5
t-44 -118.5t-112 -44.5q-76 0 -143 74zM714 299q0 53 -30.5 82.5t-78.5 29.5q-54 0 -103 -58l-45 -54l45 -54q49 -58 103 -58q48 0 78.5 29.5t30.5 82.5z" />
    <glyph glyph-name="integral" unicode="&#x222b;" horiz-adv-x="456" 
d="M194 -39v602q0 70 36 113t105 43q67 0 116 -44l-17 -58q-39 41 -85 41q-87 0 -87 -98v-600q0 -71 -36 -115t-106 -44t-115 45l18 56q39 -39 84 -39q87 0 87 98z" />
    <glyph glyph-name="approxequal" unicode="&#x2248;" 
d="M512 473l22 -41q-44 -60 -112 -60q-40 0 -124 33.5t-117 33.5q-61 0 -93 -44l-21 42q39 59 111 59q41 0 126.5 -33.5t114.5 -33.5q57 0 93 44zM512 196l21 -41q-44 -59 -112 -59q-40 0 -124 33t-117 33q-61 0 -93 -44l-21 43q41 58 111 58q42 0 127.5 -33t114.5 -33
q57 0 93 43z" />
    <glyph glyph-name="notequal" unicode="&#x2260;" 
d="M175 42l33 91h-136v56h156l83 227h-239v56h259l41 112l44 -14l-36 -98h148v-56h-168l-82 -227h250v-56h-270l-38 -105z" />
    <glyph glyph-name="lessequal" unicode="&#x2264;" 
d="M71 137h456v-56h-456v56zM71 385v55l451 182h6v-53l-393 -156l393 -154v-54h-6z" />
    <glyph glyph-name="greaterequal" unicode="&#x2265;" 
d="M72 137h456v-56h-456v56zM528 440v-55l-451 -180h-6v54l393 154l-393 156v53h6z" />
    <glyph glyph-name="lozenge" unicode="&#x25ca;" horiz-adv-x="558" 
d="M517 330l-215 -330h-47l-214 330l214 349h47zM456 329l-177 290l-177 -290l177 -271z" />
    <glyph glyph-name="uniF8FF" unicode="&#xf8ff;" horiz-adv-x="612" 
d="M50 720h512v-720h-512v720zM266 283h48q0 26 14 47t34 36t40 29.5t34 36t14 48.5q0 51 -36.5 85t-101.5 34q-39 0 -67 -14.5t-41.5 -37t-19 -43.5t-5.5 -41h47q0 40 21 66.5t65 26.5q41 0 64 -21.5t23 -54.5q0 -23 -21 -45t-45.5 -38t-45.5 -46t-21 -68zM255 194v-71h68
v71h-68z" />
    <glyph glyph-name="fi" unicode="&#xfb01;" horiz-adv-x="764" 
d="M41 436v55h110v52q0 79 40 128t123 49q80 0 132 -52l-20 -56q-45 47 -106 47q-101 0 -101 -116v-52h196v-55h-196v-436h-68v436h-110zM628 523v-408q0 -66 48 -66q27 0 57 22l9 -55q-12 -10 -38 -18t-51 -8q-93 0 -93 112v421h68zM546 672q0 46 49 46q47 0 47 -46
t-47 -46q-49 0 -49 46z" />
    <glyph glyph-name="fl" unicode="&#xfb02;" horiz-adv-x="768" 
d="M41 436v55h110v52q0 79 40 128t123 49q80 0 132 -52l-20 -56q-45 47 -106 47q-101 0 -101 -116v-52h196v-55h-196v-436h-68v436h-110zM551 710h68v-588q0 -73 62 -73q31 0 65 22l9 -55q-41 -26 -96 -26q-108 0 -108 118v602z" />
    <glyph glyph-name="Imacron" horiz-adv-x="292" 
d="M112 0v680h68v-680h-68zM265 793h-239v50h239v-50z" />
    <glyph glyph-name="ibreve" horiz-adv-x="299" 
d="M95 523h68v-408q0 -66 48 -66q27 0 57 22l9 -55q-12 -10 -38 -18t-51 -8q-93 0 -93 112v421zM-2 688l24 30q40 -56 108 -56q70 0 107 56l24 -30q-43 -75 -131 -75q-89 0 -132 75z" />
    <glyph glyph-name="commaaccent" 
d="M277 -232l24 69q-50 5 -50 44q0 24 13.5 37t35.5 13q26 0 40.5 -14.5t14.5 -39.5q0 -61 -41 -123z" />
    <glyph glyph-name="commaaccent.alt" 
d="M321 759l-23 -70q24 -1 37 -13.5t13 -30.5q0 -24 -13.5 -36.5t-36.5 -12.5q-26 0 -40.5 14.5t-14.5 38.5q0 64 41 124z" />
    <glyph glyph-name="zero.tf" 
d="M43 339q0 162 63.5 256.5t192.5 94.5t193 -94.5t64 -256.5q0 -160 -64 -254.5t-193 -94.5q-128 0 -192 94.5t-64 254.5zM110 339q0 -130 45 -207t144 -77q100 0 145.5 77t45.5 207q0 132 -45.5 210t-145.5 78q-99 0 -144 -78t-45 -210z" />
    <glyph glyph-name="one.tf" 
d="M543 0h-482v61h236v544l-216 -99l-23 55l254 119h53v-619h178v-61z" />
    <glyph glyph-name="two.tf" 
d="M546 0h-482v54l275 218q61 49 88.5 95.5t27.5 102.5q0 69 -40.5 113t-119.5 44q-85 0 -131 -49t-48 -129l-62 10q2 105 65.5 168t175.5 63q113 0 171.5 -60t58.5 -155q0 -70 -31 -127.5t-102 -113.5l-224 -173h378v-61z" />
    <glyph glyph-name="three.tf" 
d="M131 381h175q72 0 112 36.5t40 88.5q0 58 -51 91t-132 33q-112 0 -205 -49l-18 59q107 50 223 50q118 0 185 -47t67 -132q0 -57 -38 -101.5t-100 -54.5q76 -12 119 -56t43 -115q0 -90 -75 -142t-201 -52q-109 0 -226 47l19 59q101 -46 207 -46q90 0 148 38.5t58 104.5
q0 60 -44.5 94t-130.5 34h-175v60z" />
    <glyph glyph-name="four.tf" 
d="M566 150h-88v-150h-68v150h-376v48l357 482h87v-477h88v-53zM107 203h303v409z" />
    <glyph glyph-name="five.tf" 
d="M96 351l-3 5l26 324h406v-61h-349l-17 -214h124q122 0 192.5 -46t70.5 -143q0 -113 -76.5 -169.5t-192.5 -56.5q-119 0 -223 49l20 59q96 -48 201 -48q85 0 143 40t58 124q0 137 -197 137h-183z" />
    <glyph glyph-name="six.tf" 
d="M525 626l-24 -56q-27 24 -73.5 42t-99.5 18q-102 0 -156 -78.5t-54 -210.5v-8q82 121 211 121q103 0 161.5 -59.5t58.5 -165.5t-65 -172.5t-164 -66.5q-127 0 -198.5 95t-71.5 256q0 158 72 253.5t200 95.5q64 0 118 -20t85 -44zM318 396q-68 0 -117 -40.5t-78 -88.5
q14 -99 64 -156.5t130 -57.5q72 0 118.5 50.5t46.5 125.5q0 80 -45 123.5t-119 43.5z" />
    <glyph glyph-name="seven.tf" 
d="M164 7l296 612h-397v61h474v-51l-297 -629h-76v7z" />
    <glyph glyph-name="eight.tf" 
d="M300 -10q-116 0 -185.5 52t-69.5 142q0 72 41 115.5t116 55.5q-61 9 -98 53.5t-37 102.5q0 85 62.5 132t170.5 47t170.5 -47t62.5 -132q0 -58 -37 -102.5t-98 -53.5q75 -12 116 -55.5t41 -115.5q0 -90 -69.5 -142t-185.5 -52zM302 320q-94 0 -141 -35t-47 -95
q0 -65 52.5 -103t133.5 -38t133.5 38t52.5 103q0 60 -45.5 95t-138.5 35zM300 632q-75 0 -120 -32t-45 -92q0 -52 41 -87.5t126 -35.5q83 0 123 35.5t40 87.5q0 60 -45 92t-120 32z" />
    <glyph glyph-name="nine.tf" 
d="M271 50q102 0 156 78.5t54 210.5v8q-82 -121 -211 -121q-103 0 -161.5 59.5t-58.5 165.5t64.5 172.5t164.5 66.5q128 0 199 -95t71 -256q0 -158 -71.5 -253.5t-199.5 -95.5q-65 0 -119 20t-85 44l23 56q71 -60 174 -60zM282 284q67 0 116 40.5t78 88.5q-15 99 -65 156.5
t-129 57.5q-70 0 -117.5 -50.5t-47.5 -125.5q0 -80 45.5 -123.5t119.5 -43.5z" />
    <glyph glyph-name="Euro.tf" 
d="M552 612l-26 -53q-74 68 -162 68q-80 0 -131.5 -52.5t-65.5 -156.5h294l-22 -46h-276q-1 -11 -1 -33q0 -28 1 -41h244l-19 -45h-220q15 -99 66 -149t128 -50q92 0 168 59l27 -56q-87 -67 -199 -67q-105 0 -173 68t-86 195h-56v45h51q-1 13 -1 41q0 22 1 33h-51v46h54
q16 132 85.5 202t176.5 70q104 0 193 -78z" />
    <glyph glyph-name="cent.tf" 
d="M517 112l28 -53q-93 -73 -215 -73q-22 0 -60 4l-34 -125l-44 12l34 123q-89 25 -132.5 93t-43.5 167q0 122 75 199.5t199 77.5q29 0 50 -4l29 105l44 -11l-29 -105q61 -21 94.5 -68.5t36.5 -114.5l-57 -12q-6 107 -90 139l-116 -418q22 -3 49 -3q91 0 182 67zM115 262
q0 -161 127 -204l116 419q-16 3 -34 3q-95 0 -152 -61t-57 -157z" />
    <glyph glyph-name="sterling.tf" 
d="M457 325h-225q20 -106 20 -151q0 -20 -1 -29q14 -8 46.5 -34t62 -44t52.5 -18q50 0 70.5 41.5t20.5 121.5h55v-22q0 -94 -33.5 -147t-102.5 -53q-31 0 -63.5 18.5t-69.5 49.5t-49 39q-29 -107 -113 -107q-42 0 -65 25.5t-23 67.5t27.5 68t72.5 26q34 0 54 -12v10
q0 40 -26 150h-100v46h90q-13 63 -13 124q0 86 50 140.5t146 54.5q65 0 115.5 -29.5t78.5 -60.5l-26 -57q-17 19 -25 27t-29.5 25t-47 24.5t-55.5 7.5q-68 0 -103.5 -40t-35.5 -105q0 -43 11 -111h234v-46zM144 135q-25 0 -42 -14.5t-17 -38.5q0 -48 43 -48q50 0 61 87
q-20 14 -45 14z" />
    <glyph glyph-name="florin.tf" horiz-adv-x="446" 
d="M406 325h-162v-364q0 -71 -36 -115t-106 -44q-35 0 -66.5 13.5t-48.5 30.5l17 56q41 -39 84 -39q88 0 88 98v364h-161v46h161v193q0 70 35.5 113t105.5 43q69 0 115 -44l-16 -58q-41 41 -85 41q-87 0 -87 -99v-189h162v-46z" />
    <glyph glyph-name="yen.tf" 
d="M507 155h-174v-155h-68v155h-174v46h174v73h-174v46h155l-203 354v6h71l185 -336l186 336h72v-6l-206 -354h156v-46h-174v-73h174v-46z" />
    <glyph glyph-name="dollar.tf" 
d="M278 -129v119q-64 1 -125 19.5t-96 40.5l17 64q93 -58 204 -61v263l-80 20q-152 37 -152 163q0 75 59.5 128.5t172.5 60.5v81h46v-80q124 -4 218 -55l-22 -64q-33 21 -88 37t-108 18v-252l46 -11q92 -23 138 -63t46 -108q0 -84 -63 -137.5t-167 -61.5v-121h-46zM343 301
l-19 4v-250q73 8 116 42.5t43 88.5q0 44 -34.5 71t-105.5 44zM116 503q0 -79 109 -105l53 -13v240q-80 -6 -121 -40t-41 -82z" />
    <glyph glyph-name="zero.denom" horiz-adv-x="364" 
d="M45 159q0 76 34.5 120.5t102.5 44.5t102.5 -44.5t34.5 -120.5t-34.5 -120t-102.5 -44t-102.5 44t-34.5 120zM87 159q0 -124 95 -124t95 124q0 125 -95 125t-95 -125z" />
    <glyph glyph-name="one.denom" horiz-adv-x="253" 
d="M19 251l135 68h35v-319h-43v270l-110 -51z" />
    <glyph glyph-name="two.denom" horiz-adv-x="328" 
d="M49 0v34l131 99q55 40 55 85q0 29 -18.5 47.5t-53.5 18.5q-39 0 -59.5 -21t-21.5 -56l-40 6q2 51 33.5 81t87.5 30t85.5 -29t29.5 -76q0 -63 -68 -112l-94 -69h172v-38h-239z" />
    <glyph glyph-name="three.denom" horiz-adv-x="326" 
d="M79 183h82q31 0 49 15t18 36q0 52 -79 52q-49 0 -96 -21l-10 37q55 22 106 22q57 0 89.5 -22.5t32.5 -63.5q0 -26 -16 -46.5t-44 -25.5q71 -13 71 -79q0 -43 -35.5 -67.5t-97.5 -24.5q-51 0 -107 21l11 37q46 -20 96 -20q39 0 64 16t25 44q0 52 -77 52h-82v38z" />
    <glyph glyph-name="four.denom" horiz-adv-x="352" 
d="M324 67h-67v-67h-43v67h-189v31l179 221l10 -2v2h43v-218h67v-34zM71 101h143v176z" />
    <glyph glyph-name="five.denom" horiz-adv-x="324" 
d="M58 159l-3 2l14 158h203v-38h-167l-7 -89h53q131 0 131 -90q0 -53 -37.5 -80t-96.5 -27q-55 0 -111 23l12 36q48 -21 97 -21q39 0 66 16.5t27 51.5q0 58 -90 58h-91z" />
    <glyph glyph-name="six.denom" horiz-adv-x="352" 
d="M194 286q-52 0 -79.5 -34t-27.5 -92q42 52 107 52q56 0 86.5 -27.5t30.5 -76.5q0 -51 -34.5 -82t-88.5 -31q-68 0 -106 45t-38 120q0 74 38.5 119t106.5 45q63 0 109 -28l-14 -36q-35 26 -90 26zM188 177q-58 0 -98 -52q17 -90 98 -90q35 0 58 21t23 52q0 34 -22 51.5
t-59 17.5z" />
    <glyph glyph-name="seven.denom" horiz-adv-x="278" 
d="M70 4l139 277h-184v38h231v-32l-139 -287h-47v4z" />
    <glyph glyph-name="eight.denom" horiz-adv-x="351" 
d="M175 -5q-61 0 -96 24.5t-35 67.5q0 67 80 80q-31 4 -50 24.5t-19 46.5q0 41 32 63.5t88 22.5q57 0 89 -22.5t32 -63.5q0 -26 -19 -46.5t-50 -24.5q80 -13 80 -80q0 -43 -35.5 -67.5t-96.5 -24.5zM176 150q-44 0 -66.5 -16t-22.5 -41q0 -28 25 -45t63 -17q39 0 64 17
t25 45q0 25 -22 41t-66 16zM175 288q-35 0 -56.5 -14t-21.5 -39q0 -22 20 -38t59 -16q38 0 57.5 15.5t19.5 38.5q0 26 -21 39.5t-57 13.5z" />
    <glyph glyph-name="nine.denom" horiz-adv-x="352" 
d="M159 33q52 0 79 34.5t27 91.5q-43 -51 -107 -51q-55 0 -86 27t-31 76q0 50 35 81.5t89 31.5q67 0 105 -45t38 -120q0 -74 -38 -119t-106 -45t-109 29l13 35q40 -26 91 -26zM164 142q58 0 98 51q-7 42 -32 66.5t-65 24.5q-36 0 -58.5 -21t-22.5 -52q0 -34 21.5 -51.5
t58.5 -17.5z" />
    <glyph glyph-name="zero.num" horiz-adv-x="364" 
d="M45 520q0 76 34.5 120.5t102.5 44.5t102.5 -44.5t34.5 -120.5t-34.5 -120t-102.5 -44t-102.5 44t-34.5 120zM87 520q0 -124 95 -124t95 124q0 125 -95 125t-95 -125z" />
    <glyph glyph-name="one.num" horiz-adv-x="252" 
d="M19 612l135 67h35v-319h-43v272l-110 -54z" />
    <glyph glyph-name="two.num" horiz-adv-x="329" 
d="M288 361h-239v34l131 99q55 40 55 85q0 29 -18.5 47.5t-53.5 18.5q-39 0 -59.5 -21t-21.5 -56l-40 6q2 51 33.5 81t87.5 30t85.5 -29t29.5 -76q0 -63 -68 -112l-94 -69h172v-38z" />
    <glyph glyph-name="three.num" horiz-adv-x="327" 
d="M79 543h82q31 0 49 15.5t18 36.5q0 52 -79 52q-50 0 -96 -22l-10 38q55 22 106 22q57 0 89.5 -22.5t32.5 -63.5q0 -27 -16 -47t-44 -25q71 -13 71 -79q0 -43 -35.5 -67.5t-97.5 -24.5q-51 0 -107 21l11 37q46 -20 96 -20q39 0 64 16t25 44q0 52 -77 52h-82v37z" />
    <glyph glyph-name="four.num" horiz-adv-x="351" 
d="M323 427h-67v-67h-43v67h-189v31l179 221l10 -2v2h43v-218h67v-34zM70 461h143v176z" />
    <glyph glyph-name="five.num" horiz-adv-x="324" 
d="M57 519l-2 2l13 158h203v-38h-166l-7 -88h52q131 0 131 -90q0 -54 -37.5 -81t-96.5 -27q-57 0 -110 23l12 36q48 -21 96 -21q39 0 66 17t27 51q0 58 -90 58h-91z" />
    <glyph glyph-name="six.num" horiz-adv-x="352" 
d="M194 647q-52 0 -79.5 -34t-27.5 -92q41 51 107 51q56 0 86.5 -27t30.5 -77t-34.5 -81t-88.5 -31q-68 0 -106 45t-38 120q0 74 38.5 119t106.5 45q65 0 109 -29l-14 -35q-38 26 -90 26zM188 538q-58 0 -98 -52q17 -90 98 -90q35 0 58 21t23 51q0 35 -22 52.5t-59 17.5z
" />
    <glyph glyph-name="seven.num" horiz-adv-x="279" 
d="M70 364l138 277h-182v38h230v-32l-139 -287h-47v4z" />
    <glyph glyph-name="eight.num" horiz-adv-x="351" 
d="M175 356q-61 0 -96 24.5t-35 67.5q0 65 79 80q-30 4 -49 24.5t-19 46.5q0 41 31.5 63.5t88.5 22.5t88.5 -22.5t31.5 -63.5q0 -26 -18.5 -46.5t-49.5 -24.5q80 -15 80 -80q0 -43 -35.5 -67.5t-96.5 -24.5zM176 510q-88 0 -88 -56q0 -28 24.5 -45.5t62.5 -17.5
q39 0 63.5 17.5t24.5 45.5q0 56 -87 56zM175 649q-35 0 -56 -13.5t-21 -39.5q0 -23 19.5 -39t58.5 -16q38 0 57 16t19 39q0 26 -21 39.5t-56 13.5z" />
    <glyph glyph-name="nine.num" horiz-adv-x="352" 
d="M159 394q52 0 79 34t27 91q-43 -51 -107 -51q-55 0 -86 27.5t-31 76.5q0 50 35 81.5t89 31.5q67 0 105 -45t38 -120q0 -74 -38 -119t-106 -45q-66 0 -109 28l13 36q37 -26 91 -26zM164 503q58 0 98 51q-7 42 -32 66.5t-65 24.5q-36 0 -58.5 -21t-22.5 -52
q0 -34 21.5 -51.5t58.5 -17.5z" />
    <glyph glyph-name="parenleft.case" horiz-adv-x="283" 
d="M247 770q-48 -67 -88 -175.5t-40 -253.5q0 -144 40 -253.5t88 -174.5l-42 -26q-52 56 -100 175.5t-48 278.5q0 160 48 279t100 175z" />
    <glyph glyph-name="parenright.case" horiz-adv-x="283" 
d="M36 770l42 25q52 -56 100 -175t48 -279q0 -159 -48 -278.5t-100 -175.5l-42 26q48 64 88 174t40 254q0 146 -40 255t-88 174z" />
    <glyph glyph-name="hyphen.case" horiz-adv-x="530" 
d="M80 371h371v-57h-371v57z" />
    <glyph glyph-name="bracketleft.case" horiz-adv-x="324" 
d="M294 -108h-198v898h198v-56h-141v-785h141v-57z" />
    <glyph glyph-name="bracketright.case" horiz-adv-x="324" 
d="M30 790h197v-898h-197v57h141v785h-141v56z" />
    <glyph glyph-name="braceleft.case" horiz-adv-x="294" 
d="M246 790v-51h-31q-36 0 -57 -20t-21 -51q0 -29 31.5 -112.5t31.5 -127.5q0 -39 -17 -60t-58 -29q41 -8 58 -30t17 -63q0 -43 -31.5 -126t-31.5 -112q0 -31 21 -51t57 -20h31v-51h-37q-65 0 -96.5 31t-31.5 80q0 36 31.5 119t31.5 127q0 73 -97 73v45q97 0 97 75
q0 44 -31.5 126.5t-31.5 118.5q0 47 31.5 78t96.5 31h37z" />
    <glyph glyph-name="bar.case" horiz-adv-x="249" 
d="M96 -108v898h57v-898h-57z" />
    <glyph glyph-name="braceright.case" horiz-adv-x="293" 
d="M47 790h37q65 0 96.5 -31t31.5 -78q0 -36 -31 -118.5t-31 -126.5q0 -75 96 -75v-45q-50 0 -73 -18t-23 -55q0 -44 31 -127t31 -119q0 -49 -31.5 -80t-96.5 -31h-37v51h32q36 0 56.5 20t20.5 51q0 29 -31 112t-31 126q0 41 17 63t58 30q-41 8 -58 29t-17 60q0 44 31 127.5
t31 112.5q0 31 -20.5 51t-56.5 20h-32v51z" />
    <glyph glyph-name="guilsinglleft.case" horiz-adv-x="292" 
d="M41 335v15l159 199h6l24 -21l-130 -185l131 -186l-25 -20h-6z" />
    <glyph glyph-name="guilsinglright.case" horiz-adv-x="293" 
d="M252 350v-15l-159 -198h-6l-24 20l129 186l-130 185l25 21h6z" />
    <glyph glyph-name="guillemotleft.case" horiz-adv-x="498" 
d="M41 335v15l159 199h6l24 -21l-130 -185l131 -186l-25 -20h-6zM247 335v15l159 199h6l24 -21l-130 -185l131 -186l-25 -20h-6z" />
    <glyph glyph-name="guillemotright.case" horiz-adv-x="499" 
d="M252 350v-15l-159 -198h-6l-24 20l129 186l-130 185l25 21h6zM458 350v-15l-159 -198h-6l-24 20l129 186l-130 185l25 21h6z" />
    <glyph glyph-name="endash.case" horiz-adv-x="623" 
d="M80 371h463v-57h-463v57z" />
    <glyph glyph-name="emdash.case" horiz-adv-x="855" 
d="M80 371h695v-57h-695v57z" />
    <glyph glyph-name="bullet.case" horiz-adv-x="316" 
d="M74 342q0 43 21.5 65.5t60.5 22.5q41 0 63 -22.5t22 -65.5t-22 -66t-63 -23q-39 0 -60.5 23t-21.5 66z" />
    <glyph glyph-name="periodcentered.case" horiz-adv-x="262" 
d="M76 338q0 56 54 56q55 0 55 -56t-55 -56q-54 0 -54 56z" />
    <glyph glyph-name="a.alt" horiz-adv-x="595" 
d="M109 435l-13 61q79 36 196 36q96 0 141.5 -43.5t45.5 -131.5v-242q0 -66 48 -66q24 0 58 22l8 -55q-38 -26 -88 -26q-75 0 -90 68q-74 -68 -182 -68q-87 0 -137 43t-50 116q0 93 71 139t196 46q52 0 98 -11v28q0 64 -31.5 92t-98.5 28q-98 0 -172 -36zM114 154
q0 -49 36 -76.5t99 -27.5q90 0 162 63v155q-42 11 -99 11q-198 0 -198 -125z" />
    <glyph glyph-name="agrave.alt" horiz-adv-x="595" 
d="M109 435l-13 61q79 36 196 36q96 0 141.5 -43.5t45.5 -131.5v-242q0 -66 48 -66q24 0 58 22l8 -55q-38 -26 -88 -26q-75 0 -90 68q-74 -68 -182 -68q-87 0 -137 43t-50 116q0 93 71 139t196 46q52 0 98 -11v28q0 64 -31.5 92t-98.5 28q-98 0 -172 -36zM114 154
q0 -49 36 -76.5t99 -27.5q90 0 162 63v155q-42 11 -99 11q-198 0 -198 -125zM269 604l-90 137h70l82 -137h-62z" />
    <glyph glyph-name="aacute.alt" horiz-adv-x="595" 
d="M109 435l-13 61q79 36 196 36q96 0 141.5 -43.5t45.5 -131.5v-242q0 -66 48 -66q24 0 58 22l8 -55q-38 -26 -88 -26q-75 0 -90 68q-74 -68 -182 -68q-87 0 -137 43t-50 116q0 93 71 139t196 46q52 0 98 -11v28q0 64 -31.5 92t-98.5 28q-98 0 -172 -36zM114 154
q0 -49 36 -76.5t99 -27.5q90 0 162 63v155q-42 11 -99 11q-198 0 -198 -125zM404 741l-90 -137h-62l82 137h70z" />
    <glyph glyph-name="acircumflex.alt" horiz-adv-x="595" 
d="M109 435l-13 61q79 36 196 36q96 0 141.5 -43.5t45.5 -131.5v-242q0 -66 48 -66q24 0 58 22l8 -55q-38 -26 -88 -26q-75 0 -90 68q-74 -68 -182 -68q-87 0 -137 43t-50 116q0 93 71 139t196 46q52 0 98 -11v28q0 64 -31.5 92t-98.5 28q-98 0 -172 -36zM114 154
q0 -49 36 -76.5t99 -27.5q90 0 162 63v155q-42 11 -99 11q-198 0 -198 -125zM378 604l-84 98l-83 -98h-60l109 137h69l109 -137h-60z" />
    <glyph glyph-name="atilde.alt" horiz-adv-x="595" 
d="M109 435l-13 61q79 36 196 36q96 0 141.5 -43.5t45.5 -131.5v-242q0 -66 48 -66q24 0 58 22l8 -55q-38 -26 -88 -26q-75 0 -90 68q-74 -68 -182 -68q-87 0 -137 43t-50 116q0 93 71 139t196 46q52 0 98 -11v28q0 64 -31.5 92t-98.5 28q-98 0 -172 -36zM114 154
q0 -49 36 -76.5t99 -27.5q90 0 162 63v155q-42 11 -99 11q-198 0 -198 -125zM163 626l-26 30q14 29 39.5 49.5t56.5 20.5q29 0 77 -34t66 -34q46 0 70 49l26 -29q-35 -70 -95 -70q-29 0 -77 34t-66 34q-43 0 -71 -50z" />
    <glyph glyph-name="adieresis.alt" horiz-adv-x="595" 
d="M109 435l-13 61q79 36 196 36q96 0 141.5 -43.5t45.5 -131.5v-242q0 -66 48 -66q24 0 58 22l8 -55q-38 -26 -88 -26q-75 0 -90 68q-74 -68 -182 -68q-87 0 -137 43t-50 116q0 93 71 139t196 46q52 0 98 -11v28q0 64 -31.5 92t-98.5 28q-98 0 -172 -36zM114 154
q0 -49 36 -76.5t99 -27.5q90 0 162 63v155q-42 11 -99 11q-198 0 -198 -125zM390 671q0 45 47 45q44 0 44 -45q0 -44 -44 -44q-47 0 -47 44zM141 671q0 45 46 45q45 0 45 -45q0 -44 -45 -44q-46 0 -46 44z" />
    <glyph glyph-name="amacron.alt" horiz-adv-x="595" 
d="M109 435l-13 61q79 36 196 36q96 0 141.5 -43.5t45.5 -131.5v-242q0 -66 48 -66q24 0 58 22l8 -55q-38 -26 -88 -26q-75 0 -90 68q-74 -68 -182 -68q-87 0 -137 43t-50 116q0 93 71 139t196 46q52 0 98 -11v28q0 64 -31.5 92t-98.5 28q-98 0 -172 -36zM114 154
q0 -49 36 -76.5t99 -27.5q90 0 162 63v155q-42 11 -99 11q-198 0 -198 -125zM414 636h-239v50h239v-50z" />
    <glyph glyph-name="abreve.alt" horiz-adv-x="595" 
d="M109 435l-13 61q79 36 196 36q96 0 141.5 -43.5t45.5 -131.5v-242q0 -66 48 -66q24 0 58 22l8 -55q-38 -26 -88 -26q-75 0 -90 68q-74 -68 -182 -68q-87 0 -137 43t-50 116q0 93 71 139t196 46q52 0 98 -11v28q0 64 -31.5 92t-98.5 28q-98 0 -172 -36zM114 154
q0 -49 36 -76.5t99 -27.5q90 0 162 63v155q-42 11 -99 11q-198 0 -198 -125zM168 688l24 30q40 -56 108 -56q70 0 107 56l24 -30q-43 -75 -131 -75q-89 0 -132 75z" />
    <glyph glyph-name="aring.alt" horiz-adv-x="595" 
d="M109 435l-13 61q79 36 196 36q96 0 141.5 -43.5t45.5 -131.5v-242q0 -66 48 -66q24 0 58 22l8 -55q-38 -26 -88 -26q-75 0 -90 68q-74 -68 -182 -68q-87 0 -137 43t-50 116q0 93 71 139t196 46q52 0 98 -11v28q0 64 -31.5 92t-98.5 28q-98 0 -172 -36zM114 154
q0 -49 36 -76.5t99 -27.5q90 0 162 63v155q-42 11 -99 11q-198 0 -198 -125zM197 670q0 40 28.5 69t69.5 29t69.5 -29t28.5 -69t-28.5 -69t-69.5 -29t-69.5 29t-28.5 69zM232 670q0 -26 18.5 -44.5t44.5 -18.5t44.5 18.5t18.5 44.5t-18.5 44.5t-44.5 18.5t-44.5 -18.5
t-18.5 -44.5z" />
    <glyph glyph-name="aringacute.alt" horiz-adv-x="595" 
d="M109 435l-13 61q79 36 196 36q96 0 141.5 -43.5t45.5 -131.5v-242q0 -66 48 -66q24 0 58 22l8 -55q-38 -26 -88 -26q-75 0 -90 68q-74 -68 -182 -68q-87 0 -137 43t-50 116q0 93 71 139t196 46q52 0 98 -11v28q0 64 -31.5 92t-98.5 28q-98 0 -172 -36zM114 154
q0 -49 36 -76.5t99 -27.5q90 0 162 63v155q-42 11 -99 11q-198 0 -198 -125zM199 657q0 39 27.5 59.5t70.5 20.5t70.5 -20.5t27.5 -59.5t-27.5 -59.5t-70.5 -20.5t-70.5 20.5t-27.5 59.5zM234 657q0 -47 63 -47t63 47t-63 47t-63 -47zM370 832l-52 -74h-49l46 74h55z" />
    <glyph glyph-name="aogonek.alt" horiz-adv-x="594" 
d="M109 435l-13 61q79 36 196 36q96 0 141.5 -43.5t45.5 -131.5v-242q0 -66 48 -66q24 0 58 22l8 -55q-28 -19 -64 -23q-64 -24 -64 -70q0 -28 16.5 -43t44.5 -15q31 0 57 16l8 -36q-32 -18 -73 -18t-66.5 23.5t-25.5 65.5q0 50 51 77q-50 11 -62 65q-74 -68 -182 -68
q-87 0 -137 43t-50 116q0 93 71 139t196 46q52 0 98 -11v28q0 64 -31.5 92t-98.5 28q-98 0 -172 -36zM114 154q0 -49 36 -76.5t99 -27.5q90 0 162 63v155q-42 11 -99 11q-198 0 -198 -125z" />
    <glyph glyph-name="g.alt" horiz-adv-x="642" 
d="M479 523h68v-457q0 -121 -70.5 -192.5t-170.5 -71.5q-79 0 -125 37t-46 101q0 53 32.5 94t99.5 52q-96 7 -154.5 60t-58.5 159q0 99 64.5 163t180.5 64q52 0 101 -19t79 -48v58zM479 134v272q-26 26 -71 45.5t-92 19.5q-92 0 -143 -47t-51 -119q0 -89 57.5 -130
t137.5 -41h162zM479 76h-75q-93 0 -150 -31t-57 -90q0 -43 31 -68.5t80 -25.5q72 0 121.5 52.5t49.5 130.5v32z" />
    <glyph glyph-name="y.alt" horiz-adv-x="575" 
d="M22 523h73l201 -449l190 449h70l-228 -535q-42 -103 -81 -144.5t-103 -41.5q-53 0 -86 29.5t-33 80.5q0 67 58 104t156 40zM259 -12l7 17q-86 0 -131.5 -24t-45.5 -68q0 -22 13.5 -37t38.5 -15q41 0 65 28t53 99z" />
    <glyph glyph-name="asterisk.alt" horiz-adv-x="464" 
d="M110 368l79 131l-144 37l15 54l147 -43l-3 153h56l-3 -153l147 43l15 -54l-148 -38l83 -130l-44 -29l-79 132l-77 -132z" />
    <glyph glyph-name="gcircumflex.alt" horiz-adv-x="642" 
d="M479 523h68v-457q0 -121 -70.5 -192.5t-170.5 -71.5q-79 0 -125 37t-46 101q0 53 32.5 94t99.5 52q-96 7 -154.5 60t-58.5 159q0 99 64.5 163t180.5 64q52 0 101 -19t79 -48v58zM479 134v272q-26 26 -71 45.5t-92 19.5q-92 0 -143 -47t-51 -119q0 -89 57.5 -130
t137.5 -41h162zM479 76h-75q-93 0 -150 -31t-57 -90q0 -43 31 -68.5t80 -25.5q72 0 121.5 52.5t49.5 130.5v32zM410 604l-84 98l-83 -98h-60l109 137h69l109 -137h-60z" />
    <glyph glyph-name="gbreve.alt" horiz-adv-x="642" 
d="M199 688l24 30q40 -56 108 -56q70 0 107 56l24 -30q-43 -75 -131 -75q-89 0 -132 75zM479 523h68v-457q0 -121 -70.5 -192.5t-170.5 -71.5q-79 0 -125 37t-46 101q0 53 32.5 94t99.5 52q-96 7 -154.5 60t-58.5 159q0 99 64.5 163t180.5 64q52 0 101 -19t79 -48v58z
M479 134v272q-26 26 -71 45.5t-92 19.5q-92 0 -143 -47t-51 -119q0 -89 57.5 -130t137.5 -41h162zM479 76h-75q-93 0 -150 -31t-57 -90q0 -43 31 -68.5t80 -25.5q72 0 121.5 52.5t49.5 130.5v32z" />
    <glyph glyph-name="gdotaccent.alt" horiz-adv-x="642" 
d="M479 523h68v-457q0 -121 -70.5 -192.5t-170.5 -71.5q-79 0 -125 37t-46 101q0 53 32.5 94t99.5 52q-96 7 -154.5 60t-58.5 159q0 99 64.5 163t180.5 64q52 0 101 -19t79 -48v58zM479 134v272q-26 26 -71 45.5t-92 19.5q-92 0 -143 -47t-51 -119q0 -89 57.5 -130
t137.5 -41h162zM479 76h-75q-93 0 -150 -31t-57 -90q0 -43 31 -68.5t80 -25.5q72 0 121.5 52.5t49.5 130.5v32zM287 672q0 46 49 46q47 0 47 -46t-47 -46q-49 0 -49 46z" />
    <glyph glyph-name="gcommaaccent.alt" horiz-adv-x="642" 
d="M479 523h68v-457q0 -121 -70.5 -192.5t-170.5 -71.5q-79 0 -125 37t-46 101q0 53 32.5 94t99.5 52q-96 7 -154.5 60t-58.5 159q0 99 64.5 163t180.5 64q52 0 101 -19t79 -48v58zM479 134v272q-26 26 -71 45.5t-92 19.5q-92 0 -143 -47t-51 -119q0 -89 57.5 -130
t137.5 -41h162zM479 76h-75q-93 0 -150 -31t-57 -90q0 -43 31 -68.5t80 -25.5q72 0 121.5 52.5t49.5 130.5v32zM356 766l-23 -70q24 -1 37 -13.5t13 -30.5q0 -24 -13.5 -36.5t-36.5 -12.5q-26 0 -40.5 14.5t-14.5 38.5q0 64 41 124z" />
    <glyph glyph-name="yacute.alt" horiz-adv-x="575" 
d="M413 741l-90 -137h-62l82 137h70zM22 523h73l201 -449l190 449h70l-228 -535q-42 -103 -81 -144.5t-103 -41.5q-53 0 -86 29.5t-33 80.5q0 67 58 104t156 40zM259 -12l7 17q-86 0 -131.5 -24t-45.5 -68q0 -22 13.5 -37t38.5 -15q41 0 65 28t53 99z" />
    <glyph glyph-name="ycircumflex.alt" horiz-adv-x="575" 
d="M22 523h73l201 -449l190 449h70l-228 -535q-42 -103 -81 -144.5t-103 -41.5q-53 0 -86 29.5t-33 80.5q0 67 58 104t156 40zM259 -12l7 17q-86 0 -131.5 -24t-45.5 -68q0 -22 13.5 -37t38.5 -15q41 0 65 28t53 99zM379 604l-84 98l-83 -98h-60l109 137h69l109 -137h-60z
" />
    <glyph glyph-name="ydieresis.alt" horiz-adv-x="575" 
d="M22 523h73l201 -449l190 449h70l-228 -535q-42 -103 -81 -144.5t-103 -41.5q-53 0 -86 29.5t-33 80.5q0 67 58 104t156 40zM259 -12l7 17q-86 0 -131.5 -24t-45.5 -68q0 -22 13.5 -37t38.5 -15q41 0 65 28t53 99zM133 661q0 41 42 41q41 0 41 -41q0 -40 -41 -40
q-42 0 -42 40zM382 661q0 41 43 41q40 0 40 -41q0 -40 -40 -40q-43 0 -43 40z" />
    <glyph glyph-name="ygrave.alt" horiz-adv-x="575" 
d="M277 604l-90 137h70l82 -137h-62zM22 523h73l201 -449l190 449h70l-228 -535q-42 -103 -81 -144.5t-103 -41.5q-53 0 -86 29.5t-33 80.5q0 67 58 104t156 40zM259 -12l7 17q-86 0 -131.5 -24t-45.5 -68q0 -22 13.5 -37t38.5 -15q41 0 65 28t53 99z" />
    </font>
</defs>
</svg>
