<?xml version="1.0" standalone="no"?>
<!DOCTYPE svg PUBLIC "-//W3C//DTD SVG 1.1//EN" "http://www.w3.org/Graphics/SVG/1.1/DTD/svg11.dtd" >
<svg xmlns="http://www.w3.org/2000/svg" xmlns:xlink="http://www.w3.org/1999/xlink" version="1.1">
<metadata>
Created by FontForge 20170731 at Thu Jul  7 17:43:31 2011
 By Aleksey,,,
Copyright (c) 2011 by Hannes von Doehren. All rights reserved.
</metadata>
<defs>
<font id="PlutoBold" horiz-adv-x="600" >
  <font-face 
    font-family="Pluto Bold"
    font-weight="700"
    font-stretch="normal"
    units-per-em="1000"
    panose-1="2 11 8 3 2 2 3 6 2 4"
    ascent="750"
    descent="-250"
    x-height="523"
    cap-height="680"
    bbox="-138 -292 1295 909"
    underline-thickness="50"
    underline-position="-200"
    unicode-range="U+0020-FB02"
  />
<missing-glyph horiz-adv-x="612" 
d="M50 720h512v-720h-512v720zM266 283h48q0 26 14 47t34 36t40 29.5t34 36t14 48.5q0 51 -36.5 85t-101.5 34q-39 0 -67 -14.5t-41.5 -37t-19 -43.5t-5.5 -41h47q0 40 21 66.5t65 26.5q41 0 64 -21.5t23 -54.5q0 -23 -21 -45t-45.5 -38t-45.5 -46t-21 -68zM255 194v-71h68
v71h-68z" />
    <glyph glyph-name=".notdef" horiz-adv-x="612" 
d="M50 720h512v-720h-512v720zM266 283h48q0 26 14 47t34 36t40 29.5t34 36t14 48.5q0 51 -36.5 85t-101.5 34q-39 0 -67 -14.5t-41.5 -37t-19 -43.5t-5.5 -41h47q0 40 21 66.5t65 26.5q41 0 64 -21.5t23 -54.5q0 -23 -21 -45t-45.5 -38t-45.5 -46t-21 -68zM255 194v-71h68
v71h-68z" />
    <glyph glyph-name=".null" horiz-adv-x="0" 
 />
    <glyph glyph-name="nonmarkingreturn" horiz-adv-x="333" 
 />
    <glyph glyph-name="space" unicode=" " horiz-adv-x="250" 
 />
    <glyph glyph-name="exclam" unicode="!" horiz-adv-x="326" 
d="M104 251l-26 429h169l-26 -429h-117zM65 81q0 46 25.5 71.5t72.5 25.5t73.5 -25.5t26.5 -71.5t-26.5 -70.5t-73.5 -24.5t-72.5 24.5t-25.5 70.5z" />
    <glyph glyph-name="quotedbl" unicode="&#x22;" horiz-adv-x="493" 
d="M199 680l-7 -260h-116l-8 260h131zM424 680l-7 -260h-117l-7 260h131z" />
    <glyph glyph-name="numbersign" unicode="#" horiz-adv-x="707" 
d="M339 13l35 137h-144l-37 -150h-107v13l35 137h-78v106h105l41 161h-80v106h107l40 157h105v-12l-37 -145h145l40 157h105v-12l-37 -145h88v-106h-115l-40 -161h89v-106h-116l-37 -150h-107v13zM297 417l-40 -161h144l41 161h-145z" />
    <glyph glyph-name="dollar" unicode="$" 
d="M265 -129v120q-128 6 -222 58l39 152q85 -57 183 -66v138l-75 20q-158 43 -158 184q0 84 60.5 142t172.5 68v82h72v-81q128 -6 219 -53l-48 -149q-73 47 -171 57v-130l48 -14q94 -28 138 -73t44 -115q0 -89 -62 -148t-168 -70v-122h-72zM203 489q0 -21 14.5 -32.5
t47.5 -21.5v107q-62 -10 -62 -53zM395 199q0 34 -58 53v-113q58 15 58 60z" />
    <glyph glyph-name="percent" unicode="%" horiz-adv-x="916" 
d="M501 175q0 80 54 133.5t135 53.5q82 0 136.5 -53.5t54.5 -133.5t-54.5 -132.5t-136.5 -52.5t-135.5 52.5t-53.5 132.5zM616 175q0 -31 21 -53t53 -22t53 22t21 53q0 32 -21 54t-53 22t-53 -22t-21 -54zM220 13l357 667h113v-12l-355 -668h-115v13zM36 503
q0 80 53.5 133.5t135.5 53.5t136.5 -53.5t54.5 -133.5t-54.5 -132.5t-136.5 -52.5t-135.5 52.5t-53.5 132.5zM151 503q0 -31 21 -53t53 -22t53 22t21 53q0 32 -21 54t-53 22t-53 -22t-21 -54z" />
    <glyph glyph-name="ampersand" unicode="&#x26;" horiz-adv-x="799" 
d="M770 20v-24h-198l-53 51q-106 -57 -229 -57q-112 0 -177.5 53.5t-65.5 145.5q0 64 36.5 105.5t108.5 70.5q-34 37 -51 70t-17 78q0 76 59 126.5t172 50.5q106 0 170 -48t64 -126q0 -132 -159 -190l101 -91q65 67 109 159l123 -90q-52 -95 -124 -167zM317 129q49 0 95 21
l-129 125q-65 -29 -65 -68q0 -35 26.5 -56.5t72.5 -21.5zM284 493q0 -34 51 -81l17 5q41 13 59 29.5t18 44.5q0 25 -19.5 41t-54.5 16t-53 -16t-18 -39z" />
    <glyph glyph-name="quotesingle" unicode="'" horiz-adv-x="268" 
d="M199 680l-7 -260h-116l-8 260h131z" />
    <glyph glyph-name="parenleft" unicode="(" horiz-adv-x="336" 
d="M303 664q-46 -71 -78.5 -175t-32.5 -228q0 -122 32.5 -226t78.5 -176l-93 -52q-60 55 -112.5 177.5t-52.5 277.5t52.5 277t112.5 177z" />
    <glyph glyph-name="parenright" unicode=")" horiz-adv-x="336" 
d="M32 664l94 52q60 -55 112 -176.5t52 -277.5t-52 -278t-112 -177l-94 52q46 71 79 175.5t33 226.5q0 124 -33 228.5t-79 174.5z" />
    <glyph glyph-name="asterisk" unicode="*" horiz-adv-x="550" 
d="M235 537q-19 57 -19 114q0 30 17.5 46.5t41.5 16.5t41.5 -16t17.5 -46q0 -41 -21 -108q71 46 116 55q35 6 53.5 -13.5t18.5 -44.5q0 -49 -47 -59q-52 -10 -125 -7q66 -49 96 -94q20 -33 3 -62t-47 -29q-38 0 -56 27q-32 46 -49 115q-16 -55 -50 -108q-22 -33 -60 -33
q-37 0 -50.5 34t10.5 64q31 38 85 78q-46 -1 -118 18q-43 12 -43 54q0 30 21.5 49.5t57.5 9.5q38 -12 106 -61z" />
    <glyph glyph-name="plus" unicode="+" 
d="M365 546v-178h178v-131h-178v-177h-131v177h-177v131h177v178h131z" />
    <glyph glyph-name="comma" unicode="," horiz-adv-x="310" 
d="M74 -136l42 125q-60 18 -60 90q0 47 25.5 73t71.5 26t72.5 -26.5t26.5 -72.5q0 -56 -26 -127t-59 -125z" />
    <glyph glyph-name="hyphen" unicode="-" horiz-adv-x="552" 
d="M70 368h411v-131h-411v131z" />
    <glyph glyph-name="period" unicode="." horiz-adv-x="311" 
d="M56 81q0 46 26 71.5t73 25.5t73.5 -25.5t26.5 -71.5t-26.5 -70.5t-73.5 -24.5t-73 24.5t-26 70.5z" />
    <glyph glyph-name="slash" unicode="/" horiz-adv-x="509" 
d="M20 13l356 667h114v-12l-355 -668h-115v13z" />
    <glyph glyph-name="zero" unicode="0" horiz-adv-x="727" 
d="M61 339q0 165 77.5 258t224.5 93q148 0 225.5 -93t77.5 -258q0 -164 -77.5 -256.5t-225.5 -92.5q-147 0 -224.5 93t-77.5 256zM224 339q0 -195 139 -195q140 0 140 195q0 198 -140 198q-139 0 -139 -198z" />
    <glyph glyph-name="one" unicode="1" horiz-adv-x="529" 
d="M13 514l295 166h123v-680h-168v489l-187 -102z" />
    <glyph glyph-name="two" unicode="2" horiz-adv-x="669" 
d="M607 146v-146h-532v125l256 191q88 66 88 135q0 37 -24.5 61.5t-69.5 24.5q-59 0 -88.5 -33.5t-29.5 -90.5l-153 29q3 115 75 181.5t199 66.5t195 -64.5t68 -159.5q0 -68 -30 -122t-108 -109l-129 -89h283z" />
    <glyph glyph-name="three" unicode="3" horiz-adv-x="643" 
d="M142 280v136h149q48 0 73.5 17.5t25.5 48.5q0 33 -29.5 49.5t-79.5 16.5q-95 0 -192 -39l-38 142q38 14 104 26.5t125 12.5q139 0 209.5 -48.5t70.5 -142.5q0 -51 -28.5 -90.5t-78.5 -53.5q67 -21 99 -61t32 -107q0 -92 -77.5 -144.5t-226.5 -52.5q-99 0 -226 40l40 139
q90 -37 186 -37q60 0 95.5 22t35.5 59q0 67 -120 67h-149z" />
    <glyph glyph-name="four" unicode="4" horiz-adv-x="720" 
d="M664 122h-107v-122h-164v122h-349v110l295 448h218v-427h107v-131zM213 253h180v272z" />
    <glyph glyph-name="five" unicode="5" horiz-adv-x="641" 
d="M559 680v-146h-303l-9 -113h49q285 0 285 -195q0 -117 -79.5 -176.5t-218.5 -59.5q-118 0 -237 43l42 138q91 -39 186 -39q61 0 98 23t37 67q0 76 -123 76h-196l-7 7l33 375h443z" />
    <glyph glyph-name="six" unicode="6" horiz-adv-x="703" 
d="M616 642l-44 -137q-86 43 -175 43q-145 0 -165 -150q72 52 168 52q120 0 184 -56.5t64 -158.5q0 -112 -76 -178.5t-196 -66.5q-150 0 -233 95t-83 256q0 159 83.5 254t234.5 95q134 0 238 -48zM374 320q-72 0 -139 -50q25 -127 141 -127q48 0 76.5 26.5t28.5 65.5
q0 85 -107 85z" />
    <glyph glyph-name="seven" unicode="7" horiz-adv-x="584" 
d="M103 15l263 519h-329v146h516v-116l-265 -564h-185v15z" />
    <glyph glyph-name="eight" unicode="8" horiz-adv-x="711" 
d="M355 -10q-143 0 -219 53t-76 144q0 139 140 168q-55 12 -86 52t-31 92q0 93 69 142t203 49t203 -49t69 -142q0 -52 -31 -92t-85 -52q140 -29 140 -168q0 -91 -76 -144t-220 -53zM356 286q-62 0 -94 -21.5t-32 -55.5q0 -36 33.5 -58.5t91.5 -22.5t92 22.5t34 58.5
q0 34 -31.5 55.5t-93.5 21.5zM355 555q-50 0 -77.5 -17.5t-27.5 -50.5q0 -31 26 -50t80 -19q53 0 78.5 19t25.5 50q0 68 -105 68z" />
    <glyph glyph-name="nine" unicode="9" horiz-adv-x="703" 
d="M86 38l45 137q86 -43 174 -43q145 0 165 149q-71 -51 -166 -51q-121 0 -185.5 56.5t-64.5 158.5q0 112 76.5 178.5t197.5 66.5q150 0 232 -95t82 -256q0 -159 -82.5 -254t-233.5 -95q-72 0 -137.5 15.5t-102.5 32.5zM329 360q73 0 138 50q-25 127 -139 127
q-49 0 -77.5 -26.5t-28.5 -65.5q0 -85 107 -85z" />
    <glyph glyph-name="colon" unicode=":" horiz-adv-x="331" 
d="M67 444q0 44 25.5 69t71.5 25t71.5 -25t25.5 -69q0 -45 -25.5 -69t-71.5 -24q-47 0 -72 24t-25 69zM67 78q0 44 25.5 69t71.5 25t71.5 -25t25.5 -69q0 -45 -25.5 -69t-71.5 -24q-47 0 -72 24t-25 69z" />
    <glyph glyph-name="semicolon" unicode=";" horiz-adv-x="325" 
d="M87 -132l40 120q-58 19 -58 87q0 46 25 71t69 25q45 0 70.5 -26t25.5 -70q0 -54 -25.5 -122.5t-56.5 -120.5zM62 444q0 44 25.5 69t71.5 25t71.5 -25t25.5 -69q0 -45 -25.5 -69t-71.5 -24q-47 0 -72 24t-25 69z" />
    <glyph glyph-name="less" unicode="&#x3c;" 
d="M57 235v129l474 183h12v-126l-354 -119l354 -117v-128h-12z" />
    <glyph glyph-name="equal" unicode="=" 
d="M57 229h486v-131h-486v131zM57 507h486v-131h-486v131z" />
    <glyph glyph-name="greater" unicode="&#x3e;" 
d="M543 364v-129l-474 -178h-12v128l354 117l-354 119v126h12z" />
    <glyph glyph-name="question" unicode="?" horiz-adv-x="499" 
d="M281 251h-136q-13 35 -13 70q0 51 57 84l56 34q21 13 30.5 26t9.5 33q0 25 -17 39.5t-45 14.5q-36 0 -76.5 -17t-65.5 -39l-42 131q87 63 209 63q96 0 151.5 -50t55.5 -130q0 -60 -23.5 -95t-64.5 -59l-58 -33q-31 -18 -31 -46q0 -11 3 -26zM115 81q0 46 25.5 71.5
t72.5 25.5t73.5 -25.5t26.5 -71.5t-26.5 -70.5t-73.5 -24.5t-72.5 24.5t-25.5 70.5z" />
    <glyph glyph-name="at" unicode="@" horiz-adv-x="982" 
d="M726 491v-338q0 -26 7.5 -37.5t29.5 -11.5q36 0 66 54.5t30 158.5q0 142 -98.5 230.5t-261.5 88.5q-166 0 -267.5 -103t-101.5 -270q0 -166 102 -270.5t267 -104.5q97 0 177 40l31 -76q-95 -46 -208 -46q-197 0 -325.5 130t-128.5 327q0 198 128.5 327t325.5 129
t321.5 -112.5t124.5 -288.5q0 -153 -67.5 -230t-187.5 -77q-85 0 -114 60q-49 -59 -142 -59q-96 0 -155.5 68t-59.5 174q0 108 59.5 176.5t155.5 68.5q87 0 131 -50v42h161zM565 328q-35 31 -84 31q-46 0 -72 -28.5t-26 -76.5q0 -47 26.5 -75t71.5 -28q48 0 84 31v146z" />
    <glyph glyph-name="A" unicode="A" horiz-adv-x="739" 
d="M9 0l263 680h197l258 -680h-170l-46 125h-285l-47 -125h-170zM371 514l-103 -266h201z" />
    <glyph glyph-name="B" unicode="B" horiz-adv-x="737" 
d="M94 0v680h301q116 0 178 -45.5t62 -137.5q0 -101 -98 -143q152 -32 152 -170q0 -86 -64.5 -135t-183.5 -49h-347zM262 134h154q94 0 94 70q0 73 -102 73h-146v-143zM262 413h106q94 0 94 66q0 67 -92 67h-108v-133z" />
    <glyph glyph-name="C" unicode="C" horiz-adv-x="735" 
d="M608 225l78 -125q-49 -47 -124 -78.5t-155 -31.5q-154 0 -253 94t-99 255q0 162 98.5 256.5t253.5 94.5q131 0 203 -68t75 -189l-154 -32q-2 134 -126 134q-80 0 -128 -52t-48 -144q0 -91 49.5 -142.5t132.5 -51.5q110 0 197 80z" />
    <glyph glyph-name="D" unicode="D" horiz-adv-x="806" 
d="M94 0v680h305q156 -1 253.5 -90.5t97.5 -250.5q0 -160 -97.5 -249.5t-253.5 -89.5h-305zM392 534h-130v-388h130q84 0 134.5 51t50.5 142q0 93 -50.5 144t-134.5 51z" />
    <glyph glyph-name="E" unicode="E" horiz-adv-x="699" 
d="M640 0h-546v680h546v-146h-386v-117h313v-141h-313v-130h386v-146z" />
    <glyph glyph-name="F" unicode="F" horiz-adv-x="662" 
d="M566 222h-312v-222h-160v680h526v-147h-366v-164h312v-147z" />
    <glyph glyph-name="G" unicode="G" horiz-adv-x="774" 
d="M387 402h322v-317q-48 -39 -132.5 -67t-160.5 -28q-156 0 -259 94.5t-103 254.5q0 161 103 256t259 95q152 0 267 -91l-77 -127q-80 63 -186 63q-84 0 -138 -52.5t-54 -143.5t55 -142.5t144 -51.5q67 0 123 29v100h-163v128z" />
    <glyph glyph-name="H" unicode="H" horiz-adv-x="845" 
d="M583 0v271h-321v-271h-168v680h168v-263h321v263h168v-680h-168z" />
    <glyph glyph-name="I" unicode="I" horiz-adv-x="355" 
d="M94 0v680h168v-680h-168z" />
    <glyph glyph-name="J" unicode="J" horiz-adv-x="658" 
d="M403 680h168v-405q0 -131 -69.5 -208.5t-206.5 -77.5q-256 0 -274 276l166 16q5 -70 29 -105t81 -35q58 0 82 36.5t24 107.5v395z" />
    <glyph glyph-name="K" unicode="K" horiz-adv-x="797" 
d="M94 0v680h168v-273h117l170 273h173v-25l-218 -325q10 -12 45.5 -69.5t69.5 -91.5t71 -34q42 0 71 13l17 -132q-52 -26 -123 -26q-47 0 -88.5 21t-72 56t-53 69t-45.5 72t-36 54h-98v-262h-168z" />
    <glyph glyph-name="L" unicode="L" horiz-adv-x="625" 
d="M600 0h-506v680h168v-534h338v-146z" />
    <glyph glyph-name="M" unicode="M" horiz-adv-x="961" 
d="M700 0v416l-205 -246h-29l-204 246v-416h-168v680h145l242 -284l242 284h145v-680h-168z" />
    <glyph glyph-name="N" unicode="N" horiz-adv-x="844" 
d="M605 0l-343 413v-413h-168v680h146l342 -413v413h168v-680h-145z" />
    <glyph glyph-name="O" unicode="O" horiz-adv-x="807" 
d="M53 339q0 151 100 251t249 100q151 0 251 -100t100 -251q0 -149 -100 -249t-251 -100q-149 0 -249 100t-100 249zM218 339q0 -81 52.5 -136t132.5 -55q82 0 133.5 54.5t51.5 136.5q0 83 -51.5 137.5t-133.5 54.5q-80 0 -132.5 -54.5t-52.5 -137.5z" />
    <glyph glyph-name="P" unicode="P" horiz-adv-x="720" 
d="M94 0v680h338q108 0 179.5 -64.5t71.5 -187.5q0 -113 -73 -180.5t-178 -67.5h-170v-180h-168zM405 534h-143v-208h143q45 0 74.5 28.5t29.5 74.5q0 48 -29.5 76.5t-74.5 28.5z" />
    <glyph glyph-name="Q" unicode="Q" horiz-adv-x="808" 
d="M806 -27l16 -134q-55 -19 -125 -19q-54 0 -105.5 23t-82.5 50t-63.5 58t-46.5 39q-148 2 -246.5 101.5t-98.5 247.5q0 151 100 251t249 100q151 0 251 -100t100 -251q0 -103 -50 -185t-136 -125q25 -22 42.5 -34t45 -23.5t54.5 -11.5q62 0 96 13zM218 339
q0 -81 52.5 -136t132.5 -55q82 0 133.5 54.5t51.5 136.5q0 83 -51.5 137.5t-133.5 54.5q-80 0 -132.5 -54.5t-52.5 -137.5z" />
    <glyph glyph-name="R" unicode="R" horiz-adv-x="783" 
d="M94 0v680h323q70 0 127 -22t95.5 -74t38.5 -128q0 -79 -49.5 -134t-128.5 -71q4 -4 13 -12q38 -35 58.5 -52.5t53 -34.5t59.5 -17q42 0 72 13l16 -132q-52 -26 -115 -26q-54 0 -110 32t-94 71.5t-83.5 86.5t-71.5 65h-36v-245h-168zM414 534h-152v-168h152q41 0 65.5 23
t24.5 61q0 39 -24.5 61.5t-65.5 22.5z" />
    <glyph glyph-name="S" unicode="S" horiz-adv-x="645" 
d="M340 259l-127 34q-157 43 -157 184q0 93 72 152.5t206 59.5q69 0 136 -15.5t110 -38.5l-48 -149q-40 26 -96.5 42.5t-108.5 16.5q-100 0 -100 -56q0 -21 14.5 -32.5t47.5 -21.5l120 -36q94 -28 138 -73t44 -115q0 -99 -76.5 -160t-203.5 -61q-69 0 -137 18.5t-107 40.5
l39 152q41 -28 97.5 -47.5t110.5 -19.5q50 0 77.5 18t27.5 47q0 21 -19.5 35t-59.5 25z" />
    <glyph glyph-name="T" unicode="T" horiz-adv-x="646" 
d="M613 512h-203v-512h-168v512h-209v168h580v-168z" />
    <glyph glyph-name="U" unicode="U" horiz-adv-x="806" 
d="M254 680v-377q0 -75 37.5 -116.5t109.5 -41.5q73 0 111.5 42t38.5 116v377h168v-388q0 -128 -84.5 -215.5t-233.5 -87.5t-232 83.5t-83 219.5v388h168z" />
    <glyph glyph-name="V" unicode="V" horiz-adv-x="753" 
d="M269 0l-257 680h184l179 -520l184 520h185l-262 -680h-213z" />
    <glyph glyph-name="W" unicode="W" horiz-adv-x="1116" 
d="M661 0l-101 262l-108 -262h-183l-257 680h181l182 -492l112 273l-80 219h183l160 -464l173 464h184l-263 -680h-183z" />
    <glyph glyph-name="X" unicode="X" horiz-adv-x="755" 
d="M727 680v-12l-232 -329l232 -326v-13h-193l-156 229l-156 -229h-194v13l231 326l-231 329v12h192l158 -232l158 232h191z" />
    <glyph glyph-name="Y" unicode="Y" horiz-adv-x="693" 
d="M262 0v262l-259 406v12h188l155 -263l156 263h187v-12l-259 -405v-263h-168z" />
    <glyph glyph-name="Z" unicode="Z" horiz-adv-x="664" 
d="M62 116l324 418h-324v146h541v-116l-323 -418h323v-146h-541v116z" />
    <glyph glyph-name="bracketleft" unicode="[" horiz-adv-x="373" 
d="M332 -188h-250v898h250v-131h-118v-636h118v-131z" />
    <glyph glyph-name="backslash" unicode="\" horiz-adv-x="509" 
d="M133 680l357 -667v-13h-115l-355 668v12h113z" />
    <glyph glyph-name="bracketright" unicode="]" horiz-adv-x="373" 
d="M41 710h249v-898h-249v131h118v636h-118v131z" />
    <glyph glyph-name="asciicircum" unicode="^" 
d="M236 680h123l189 -289v-13h-141l-110 183l-110 -183h-139v13z" />
    <glyph glyph-name="underscore" unicode="_" horiz-adv-x="713" 
d="M106 -31h500v-117h-500v117z" />
    <glyph glyph-name="grave" unicode="`" 
d="M291 583l-107 158h165l81 -158h-139z" />
    <glyph glyph-name="a" unicode="a" horiz-adv-x="721" 
d="M603 523v-344q0 -48 32 -48q22 0 50 14l6 -133q-56 -22 -125 -22q-93 0 -119 75q-62 -74 -160 -74q-107 0 -174 75.5t-67 193.5q0 120 67 196t174 76q96 0 148 -55v46h168zM435 174v174q-38 38 -100 38q-55 0 -86.5 -34t-31.5 -92q0 -56 32 -90t86 -34q57 0 100 38z" />
    <glyph glyph-name="b" unicode="b" horiz-adv-x="681" 
d="M636 262q0 -119 -67.5 -195.5t-174.5 -76.5q-94 0 -149 58v-48h-168v710h168v-233q60 55 149 55q108 0 175 -75.5t67 -194.5zM465 262q0 57 -32.5 90.5t-86.5 33.5q-57 0 -101 -39v-173q42 -38 101 -38q54 0 86.5 34t32.5 92z" />
    <glyph glyph-name="c" unicode="c" horiz-adv-x="601" 
d="M491 188l64 -130q-92 -72 -224 -72q-142 0 -214 75t-72 199q0 121 76.5 199t200.5 78q113 0 174.5 -56.5t65.5 -151.5l-149 -33q-6 94 -90 94q-49 0 -77 -35t-28 -90q0 -57 33.5 -94.5t99.5 -37.5q34 0 73.5 16.5t66.5 38.5z" />
    <glyph glyph-name="d" unicode="d" horiz-adv-x="721" 
d="M435 710h168v-531q0 -48 32 -48q17 0 50 14l6 -133q-52 -22 -125 -22q-93 0 -119 71q-56 -71 -161 -71q-106 0 -173.5 76.5t-67.5 195.5t67.5 194.5t173.5 75.5q90 0 149 -54v232zM216 262q0 -58 32 -92t87 -34q59 0 100 37v175q-41 38 -100 38q-54 0 -86.5 -33.5
t-32.5 -90.5z" />
    <glyph glyph-name="e" unicode="e" horiz-adv-x="605" 
d="M491 169l62 -112q-87 -71 -222 -71q-142 0 -214.5 75.5t-72.5 198.5q0 120 77 198.5t201 78.5q114 0 174.5 -61.5t60.5 -156.5q0 -65 -11 -100h-335q8 -47 41 -73.5t89 -26.5q39 0 81 15t69 35zM411 325v12q0 33 -22.5 52.5t-67.5 19.5t-73 -24t-34 -60h197z" />
    <glyph glyph-name="f" unicode="f" horiz-adv-x="466" 
d="M38 371v130h90v29q0 82 47.5 136t139.5 54q73 0 136 -25l-29 -134q-40 22 -78 22q-48 0 -48 -54v-28h142v-130h-142v-371h-168v371h-90z" />
    <glyph glyph-name="g" unicode="g" horiz-adv-x="681" 
d="M46 280q0 106 67.5 179t173.5 73q94 0 149 -53v44h168v-451q0 -131 -76.5 -200.5t-198.5 -69.5q-18 0 -35 1t-33 3.5t-28.5 4.5t-26.5 6.5t-22.5 7t-21.5 7.5t-17 7t-17 7l-12 6l35 134q88 -48 169 -48q116 0 116 99v43q-56 -50 -149 -50q-105 0 -173 72.5t-68 177.5z
M217 280q0 -47 32 -75.5t86 -28.5q57 0 101 39v131q-44 40 -101 40q-54 0 -86 -29t-32 -77z" />
    <glyph glyph-name="h" unicode="h" horiz-adv-x="703" 
d="M77 710h168v-243q62 65 159 65q96 0 144 -64t48 -167v-122q0 -48 32 -48q18 0 51 14l5 -133q-54 -22 -124 -22q-65 0 -98.5 35t-33.5 113v135q0 50 -22.5 77t-65.5 27q-32 0 -57 -19.5t-38 -45.5v-312h-168v710z" />
    <glyph glyph-name="i" unicode="i" horiz-adv-x="363" 
d="M243 523v-344q0 -48 32 -48q14 0 30 5.5t19 8.5l7 -133q-2 -2 -19 -7t-47 -10t-59 -5q-131 0 -131 148v385h168zM68 670q0 76 92 76q90 0 90 -76t-90 -76q-92 0 -92 76z" />
    <glyph glyph-name="j" unicode="j" horiz-adv-x="323" 
d="M246 523v-465q0 -173 -148 -255l-101 102q81 55 81 143v475h168zM71 670q0 76 92 76q90 0 90 -76t-90 -76q-92 0 -92 76z" />
    <glyph glyph-name="k" unicode="k" horiz-adv-x="657" 
d="M440 523h168q-22 -186 -131 -263l145 -232v-28h-180l-114 205q-39 -6 -83 -6v-199h-168v710h168v-369q86 0 131.5 36t63.5 146z" />
    <glyph glyph-name="l" unicode="l" horiz-adv-x="362" 
d="M73 710h168v-528q0 -51 35 -51q23 0 53 14l6 -133q-59 -22 -127 -22q-135 0 -135 150v570z" />
    <glyph glyph-name="m" unicode="m" horiz-adv-x="1043" 
d="M77 523h168v-52q62 62 158 62q123 0 163 -89q63 88 180 88q96 0 143 -64t47 -167v-122q0 -48 30 -48q21 0 51 14l7 -133q-54 -22 -126 -22q-130 0 -130 148v135q0 50 -22.5 77t-65.5 27q-61 0 -88 -56v-321h-168v274q0 103 -87 103q-63 0 -92 -58v-319h-168v523z" />
    <glyph glyph-name="n" unicode="n" horiz-adv-x="703" 
d="M77 523h168v-58q64 67 159 67q96 0 144 -64t48 -167v-122q0 -48 32 -48q21 0 51 14l5 -133q-51 -22 -124 -22q-65 0 -98.5 35t-33.5 113v135q0 50 -22.5 77t-65.5 27q-32 0 -57 -19.5t-38 -45.5v-312h-168v523z" />
    <glyph glyph-name="o" unicode="o" horiz-adv-x="650" 
d="M43 260q0 119 80 198t201 79q123 0 203 -78.5t80 -198.5q0 -118 -80 -196t-203 -78q-121 0 -201 78t-80 196zM205 260q0 -51 33.5 -86.5t85.5 -35.5q54 0 87.5 35.5t33.5 86.5q0 53 -33.5 88.5t-87.5 35.5q-52 0 -85.5 -35.5t-33.5 -88.5z" />
    <glyph glyph-name="p" unicode="p" horiz-adv-x="720" 
d="M286 -188h-168v531q0 48 -32 48q-15 0 -31 -5t-20 -9l-5 134q3 2 19 7t46.5 10t58.5 5q94 0 120 -71q56 70 160 70q107 0 174.5 -76t67.5 -196q0 -118 -67.5 -194t-174.5 -76q-91 0 -148 54v-232zM386 386q-62 0 -100 -38v-175q42 -37 100 -37q54 0 86.5 33.5t32.5 90.5
q0 58 -32 92t-87 34z" />
    <glyph glyph-name="q" unicode="q" horiz-adv-x="680" 
d="M46 260q0 120 67 196t174 76q91 0 148 -57v48h168v-711h-168v232q-59 -54 -148 -54q-107 0 -174 76t-67 194zM335 136q56 0 100 37v175q-40 38 -100 38q-55 0 -86.5 -34t-31.5 -92q0 -57 32 -90.5t86 -33.5z" />
    <glyph glyph-name="r" unicode="r" horiz-adv-x="513" 
d="M118 0v343q0 48 -32 48q-29 0 -51 -13l-5 132q2 3 19 8t47 9.5t58 4.5q96 0 122 -77q41 77 127 77q33 0 61 -9t32 -16l-21 -153q-5 6 -35.5 14.5t-64.5 8.5q-79 0 -89 -104v-273h-168z" />
    <glyph glyph-name="s" unicode="s" horiz-adv-x="526" 
d="M479 494l-43 -134q-79 42 -156 42q-63 0 -63 -35q0 -14 9.5 -21.5t33.5 -13.5l93 -25q68 -19 96.5 -55.5t28.5 -92.5q0 -77 -58 -123t-160 -46q-116 0 -206 45l31 131q94 -49 163 -49q62 0 62 31q0 21 -53 35l-83 23q-127 37 -127 151q0 79 64 127t173 48
q50 0 106.5 -11.5t88.5 -26.5z" />
    <glyph glyph-name="t" unicode="t" horiz-adv-x="521" 
d="M143 656h142v-133h181v-130h-181v-182q0 -75 62 -75q49 0 98 35l51 -128q-86 -53 -203 -53q-83 0 -129.5 49.5t-46.5 142.5v211h-89v130h94z" />
    <glyph glyph-name="u" unicode="u" horiz-adv-x="708" 
d="M422 523h168v-344q0 -48 30 -48q21 0 51 14l6 -133q-48 -22 -125 -22q-90 0 -117 68q-60 -68 -172 -68q-97 0 -144.5 62.5t-47.5 168.5v302h168v-278q0 -54 19.5 -78t68.5 -24q62 0 95 51v329z" />
    <glyph glyph-name="v" unicode="v" horiz-adv-x="672" 
d="M106 222v121q0 48 -31 48q-26 0 -51 -13l-5 132q47 22 124 22q65 0 98 -35t33 -114v-136q0 -104 79 -104q44 0 69 29.5t25 86.5q0 119 -64 264h178q54 -142 54 -274q0 -118 -68.5 -188.5t-193.5 -70.5q-123 0 -185 61t-62 171z" />
    <glyph glyph-name="w" unicode="w" horiz-adv-x="988" 
d="M432 523h168v-279q0 -101 74 -101q44 0 67 32.5t23 87.5q0 115 -65 260h179q54 -142 54 -274q0 -118 -65 -188.5t-182 -70.5q-122 0 -174 88q-52 -88 -182 -88q-111 0 -166.5 61t-55.5 171v121q0 48 -32 48q-34 0 -51 -14l-5 134q63 21 129 21q127 0 127 -145v-140
q0 -54 17.5 -79t56.5 -25q83 0 83 111v269z" />
    <glyph glyph-name="x" unicode="x" horiz-adv-x="622" 
d="M592 523v-12l-165 -251l165 -247v-13h-181l-100 165l-99 -165h-182v13l164 247l-164 251v12h180l101 -168l102 168h179z" />
    <glyph glyph-name="y" unicode="y" horiz-adv-x="605" 
d="M4 523h186l119 -340l120 340h169l-208 -516q-44 -111 -95 -158t-141 -47q-68 0 -120 35l24 128q52 -27 93 -27q30 0 46.5 14t30.5 44l9 21z" />
    <glyph glyph-name="z" unicode="z" horiz-adv-x="542" 
d="M55 116l223 276h-223v131h432v-116l-220 -276h220v-131h-432v116z" />
    <glyph glyph-name="braceleft" unicode="{" horiz-adv-x="368" 
d="M319 710v-116h-40q-27 0 -40.5 -14.5t-13.5 -36.5q0 -23 23.5 -88.5t23.5 -101.5q0 -79 -87 -95q87 -16 87 -96q0 -36 -23.5 -101t-23.5 -89q0 -22 13.5 -36.5t40.5 -14.5h40v-116h-57q-168 0 -168 134q0 37 23.5 105.5t23.5 104.5q0 33 -24.5 47t-82.5 14v97
q56 0 81.5 17t25.5 53q0 34 -23.5 101t-23.5 105q0 127 168 127h57z" />
    <glyph glyph-name="bar" unicode="|" horiz-adv-x="296" 
d="M82 -188v898h132v-898h-132z" />
    <glyph glyph-name="braceright" unicode="}" horiz-adv-x="367" 
d="M48 710h57q169 0 169 -127q0 -38 -24 -105t-24 -101q0 -36 25 -53t82 -17v-97q-58 0 -82.5 -14t-24.5 -47q0 -36 24 -104.5t24 -105.5q0 -134 -169 -134h-57v116h41q27 0 40.5 14.5t13.5 36.5q0 24 -24 89t-24 101q0 80 88 96q-88 16 -88 95q0 36 24 101.5t24 88.5
q0 22 -13.5 36.5t-40.5 14.5h-41v116z" />
    <glyph glyph-name="asciitilde" unicode="~" horiz-adv-x="543" 
d="M438 380l53 -81q-15 -43 -50.5 -69.5t-77.5 -26.5q-40 0 -93.5 33t-85.5 33q-55 0 -80 -55l-51 85q13 38 47.5 65t77.5 27q45 0 100.5 -33.5t79.5 -33.5q50 0 80 56z" />
    <glyph glyph-name="uni00A0" unicode="&#xa0;" horiz-adv-x="250" 
 />
    <glyph glyph-name="exclamdown" unicode="&#xa1;" horiz-adv-x="312" 
d="M215 271l26 -429h-169l26 429h117zM255 441q0 -46 -26 -71.5t-73 -25.5t-74 25.5t-27 71.5t26.5 71t74.5 25q47 0 73 -25t26 -71z" />
    <glyph glyph-name="cent" unicode="&#xa2;" 
d="M491 184l61 -126q-92 -72 -225 -72q-27 0 -53 3l-35 -127l-74 20l34 124q-79 30 -118 96.5t-39 157.5q0 121 76.5 199t200.5 78q5 0 13.5 -0.5t12.5 -0.5l31 110l75 -20l-29 -105q63 -22 98 -72.5t38 -119.5l-134 -28q-5 60 -40 85l-72 -259q10 -2 30 -2q77 0 149 59z
M200 266q0 -70 41 -108l68 245q-49 -4 -79 -41.5t-30 -95.5z" />
    <glyph glyph-name="sterling" unicode="&#xa3;" 
d="M467 307h-162q9 -61 9 -103q0 -15 -2 -41q3 -2 17.5 -11t21.5 -12.5t18.5 -8t20.5 -4.5q30 0 42.5 20.5t12.5 64.5v20h127q3 -27 3 -53q0 -88 -37 -138.5t-114 -50.5q-9 0 -17.5 1t-18 4.5t-16 5.5t-17 8t-15 8.5t-16.5 11t-15 10.5t-16.5 12t-15.5 12
q-25 -38 -56.5 -55.5t-83.5 -17.5q-53 0 -83 32.5t-30 82.5q0 48 29.5 77t76.5 29q21 0 44 -7q0 33 -19 103h-95v77h74q-13 61 -13 108q0 88 55 143t164 55q60 0 121 -22t93 -47l-47 -145q-23 19 -35.5 28.5t-40.5 21t-56 11.5q-43 0 -64.5 -23.5t-21.5 -63.5q0 -26 5 -66
h173v-77zM140 122q-15 0 -23.5 -8t-8.5 -20q0 -25 23 -25q27 0 36 45q-10 8 -27 8z" />
    <glyph glyph-name="currency" unicode="&#xa4;" horiz-adv-x="581" 
d="M421 527l94 -93l-57 -57q18 -34 18 -75q0 -38 -17 -75l56 -55l-94 -93l-56 56q-35 -18 -80 -18q-41 0 -72 15l-53 -53l-94 93l50 49q-20 35 -20 81t20 81l-50 51l94 93l53 -55q32 16 72 16q46 0 80 -19zM205 302q0 -34 23 -58t57 -24q35 0 57.5 24t22.5 58t-22.5 58
t-57.5 24q-34 0 -57 -24t-23 -58z" />
    <glyph glyph-name="yen" unicode="&#xa5;" 
d="M521 115h-141v-115h-168v115h-141v76h141v54h-141v77h113l-163 346v12h172l103 -285l111 285h172v-12l-170 -346h112v-77h-141v-54h141v-76z" />
    <glyph glyph-name="brokenbar" unicode="&#xa6;" horiz-adv-x="305" 
d="M218 375h-131v335h131v-335zM87 159h131v-347h-131v347z" />
    <glyph glyph-name="section" unicode="&#xa7;" horiz-adv-x="650" 
d="M76 -49l38 137q42 -21 104.5 -37t118.5 -16q78 0 78 31q0 23 -69 37l-127 26q-153 33 -153 155q0 75 64 122q-63 36 -63 111q0 77 68 125t193 48q145 0 245 -43l-45 -135q-40 20 -103 35t-116 15q-80 0 -80 -31q0 -21 46 -30l133 -27q89 -19 133 -61t44 -100
q0 -77 -67 -127q67 -39 67 -106q0 -78 -71.5 -127t-191.5 -49q-72 0 -139 14.5t-107 32.5zM354 350l-72 14q-30 -3 -45.5 -21.5t-15.5 -38.5t12.5 -32t44.5 -19l78 -17q30 3 48 19t18 38q0 24 -16.5 37t-51.5 20z" />
    <glyph glyph-name="dieresis" unicode="&#xa8;" 
d="M94 668q0 72 85 72q84 0 84 -72q0 -71 -84 -71q-85 0 -85 71zM351 668q0 72 86 72q83 0 83 -72q0 -71 -83 -71q-86 0 -86 71z" />
    <glyph glyph-name="copyright" unicode="&#xa9;" horiz-adv-x="815" 
d="M57 339q0 151 100 251t249 100q151 0 251 -100t100 -251q0 -149 -100 -249t-251 -100q-149 0 -249 100t-100 249zM131 339q0 -120 78 -199.5t197 -79.5q121 0 199.5 79.5t78.5 199.5q0 121 -78.5 201t-199.5 80q-119 0 -197 -80t-78 -201zM493 299l57 -80
q-59 -55 -140 -55q-77 0 -126.5 47t-49.5 128t49.5 128t126.5 47q65 0 101 -34t38 -94l-96 -22q-2 47 -44 47q-27 0 -44 -19t-17 -53t17.5 -53t47.5 -19q43 0 80 32z" />
    <glyph glyph-name="ordfeminine" unicode="&#xaa;" horiz-adv-x="511" 
d="M120 567l-20 96q70 24 144 24q78 0 108.5 -30.5t30.5 -92.5v-122q0 -31 21 -31q15 0 33 10l4 -87q-43 -16 -87 -16q-50 0 -70 40q-42 -40 -103 -40q-49 0 -79.5 28t-30.5 78q0 62 55.5 89.5t144.5 27.5v12q0 23 -12.5 32t-38.5 9q-58 0 -100 -27zM97 247h320v-83h-320v83
zM178 436q0 -33 39 -33q32 0 54 16v60q-37 0 -65 -10t-28 -33z" />
    <glyph glyph-name="guillemotleft" unicode="&#xab;" horiz-adv-x="579" 
d="M44 286v31l164 207h11l61 -29l-96 -193l96 -193l-61 -30h-11zM288 286v31l163 207h12l61 -29l-97 -193l97 -193l-61 -30h-12z" />
    <glyph glyph-name="logicalnot" unicode="&#xac;" 
d="M411 120v177h-355v131h487l-1 -308h-131z" />
    <glyph glyph-name="uni00AD" unicode="&#xad;" horiz-adv-x="552" 
d="M70 368h411v-131h-411v131z" />
    <glyph glyph-name="registered" unicode="&#xae;" horiz-adv-x="815" 
d="M57 339q0 151 100 251t249 100q151 0 251 -100t100 -251q0 -149 -100 -249t-251 -100q-149 0 -249 100t-100 249zM131 339q0 -120 78 -199.5t197 -79.5q121 0 199.5 79.5t78.5 199.5q0 121 -78.5 201t-199.5 80q-119 0 -197 -80t-78 -201zM259 169v340h175q55 0 90 -31
t35 -86q0 -35 -20 -60.5t-53 -37.5q46 -32 75 -32q18 0 33 5l10 -90q-26 -13 -59 -13q-34 0 -64 15.5t-67 48.5t-43 37v-96h-112zM421 416h-50v-55h50q27 0 27 27q0 28 -27 28z" />
    <glyph glyph-name="macron" unicode="&#xaf;" 
d="M437 605h-261v104h261v-104z" />
    <glyph glyph-name="degree" unicode="&#xb0;" horiz-adv-x="472" 
d="M46 503q0 80 54 133.5t136 53.5t136 -53.5t54 -133.5t-54 -132.5t-136 -52.5t-136 52.5t-54 132.5zM155 503q0 -34 23 -58t58 -24t57.5 24t22.5 58q0 35 -22.5 59t-57.5 24t-58 -24t-23 -59z" />
    <glyph glyph-name="plusminus" unicode="&#xb1;" 
d="M365 659v-177h178v-131h-178v-108h-131v108h-177v131h177v177h131zM57 171h486v-131h-486v131z" />
    <glyph glyph-name="twosuperior" unicode="&#xb2;" horiz-adv-x="357" 
d="M319 438h-273v68l128 96q43 32 43 65q0 17 -11.5 28.5t-31.5 11.5q-28 0 -42.5 -16.5t-14.5 -43.5l-82 15q2 60 38.5 94t101.5 34q67 0 101.5 -32.5t34.5 -86.5q0 -66 -74 -116l-53 -37h135v-80z" />
    <glyph glyph-name="threesuperior" unicode="&#xb3;" horiz-adv-x="343" 
d="M77 651h76q48 0 48 31q0 30 -52 30q-50 0 -97 -19l-19 78q50 19 116 19q145 0 145 -99q0 -25 -16.5 -45t-44.5 -27q72 -18 72 -85q0 -47 -39.5 -74t-116.5 -27q-53 0 -116 20l23 76q46 -19 93 -19q29 0 45.5 10.5t16.5 27.5q0 31 -58 31h-76v72z" />
    <glyph glyph-name="acute" unicode="&#xb4;" 
d="M430 741l-107 -158h-139l81 158h165z" />
    <glyph glyph-name="mu" unicode="&#xb5;" horiz-adv-x="675" 
d="M255 523v-247q0 -75 18 -104t70 -29q62 0 95 49v331h168v-523h-168v45q-60 -55 -159 -55q-5 0 -12.5 0.5t-11.5 0.5v-179h-168v711h168z" />
    <glyph glyph-name="paragraph" unicode="&#xb6;" horiz-adv-x="606" 
d="M352 523v-711h-105v414h-61q-68 0 -111 39t-43 110q0 69 43 108t111 40h166zM429 -188v711h105v-711h-105z" />
    <glyph glyph-name="periodcentered" unicode="&#xb7;" horiz-adv-x="322" 
d="M62 294q0 46 26 71.5t73 25.5t73.5 -25.5t26.5 -71.5t-26.5 -70.5t-73.5 -24.5t-73 24.5t-26 70.5z" />
    <glyph glyph-name="cedilla" unicode="&#xb8;" 
d="M209 -97l30 97h65l-16 -53q12 2 23 2q42 0 65 -18.5t23 -49.5q0 -37 -33 -58t-85 -21q-44 0 -81 11l14 52q37 -11 62 -11q49 0 49 24t-49 24q-41 0 -63 -5z" />
    <glyph glyph-name="onesuperior" unicode="&#xb9;" horiz-adv-x="287" 
d="M11 698l151 86h67v-346h-92v243l-91 -51z" />
    <glyph glyph-name="ordmasculine" unicode="&#xba;" horiz-adv-x="507" 
d="M64 503q0 80 53.5 133.5t135.5 53.5t136.5 -53.5t54.5 -133.5t-54.5 -132.5t-136.5 -52.5t-135.5 52.5t-53.5 132.5zM166 503q0 -37 24.5 -62.5t62.5 -25.5t62.5 25.5t24.5 62.5t-24.5 63t-62.5 26t-62.5 -26t-24.5 -63zM94 247h319v-83h-319v83z" />
    <glyph glyph-name="guillemotright" unicode="&#xbb;" horiz-adv-x="579" 
d="M291 317v-31l-162 -207h-12l-61 29l96 194l-97 192l62 30h12zM535 317v-31l-162 -207h-13l-60 29l96 194l-97 192l61 30h13z" />
    <glyph glyph-name="onequarter" unicode="&#xbc;" horiz-adv-x="827" 
d="M784 59h-54v-59h-91v59h-181v59l150 228l31 -1v1h91v-220h54v-67zM157 13l369 667h88v-12l-368 -668h-89v13zM30 598l151 86h67v-346h-92v243l-91 -51zM549 126h90v138z" />
    <glyph glyph-name="onehalf" unicode="&#xbd;" horiz-adv-x="827" 
d="M157 13l369 667h88v-12l-368 -668h-89v13zM506 0v68l128 96q43 31 43 65q0 17 -11.5 28t-31.5 11q-57 0 -57 -60l-82 16q2 59 38.5 93.5t101.5 34.5q67 0 101.5 -32.5t34.5 -87.5q0 -65 -74 -116l-53 -36h135v-80h-273zM30 594l151 86h67v-346h-92v243l-91 -51z" />
    <glyph glyph-name="threequarters" unicode="&#xbe;" horiz-adv-x="864" 
d="M827 59h-54v-59h-91v59h-181v59l150 228l31 -1v1h91v-220h54v-67zM200 13l369 667h88v-12l-368 -668h-89v13zM89 551h76q48 0 48 31q0 30 -52 30q-49 0 -97 -19l-19 78q50 19 116 19q145 0 145 -99q0 -25 -16.5 -45t-44.5 -27q72 -18 72 -85q0 -47 -39.5 -74t-116.5 -27
q-53 0 -116 20l23 76q46 -19 93 -19q29 0 45.5 10.5t16.5 27.5q0 31 -58 31h-76v72zM592 126h90v138z" />
    <glyph glyph-name="questiondown" unicode="&#xbf;" horiz-adv-x="488" 
d="M212 271h136q13 -35 13 -70q0 -51 -57 -84l-56 -34q-21 -13 -30.5 -26t-9.5 -33q0 -25 17 -39.5t45 -14.5q37 0 77 16.5t65 39.5l42 -131q-85 -63 -209 -63q-96 0 -151.5 50t-55.5 130q0 60 23.5 95t64.5 59l58 33q31 18 31 46q0 11 -3 26zM379 441q0 -46 -25.5 -71.5
t-73.5 -25.5q-47 0 -73.5 25.5t-26.5 71.5t26 71t74 25t73.5 -24.5t25.5 -71.5z" />
    <glyph glyph-name="Agrave" unicode="&#xc0;" horiz-adv-x="739" 
d="M9 0l263 680h197l258 -680h-170l-46 125h-285l-47 -125h-170zM371 514l-103 -266h201zM314 740l-107 158h165l81 -158h-139z" />
    <glyph glyph-name="Aacute" unicode="&#xc1;" horiz-adv-x="739" 
d="M9 0l263 680h197l258 -680h-170l-46 125h-285l-47 -125h-170zM371 514l-103 -266h201zM530 898l-107 -158h-139l81 158h165z" />
    <glyph glyph-name="Acircumflex" unicode="&#xc2;" horiz-adv-x="739" 
d="M9 0l263 680h197l258 -680h-170l-46 125h-285l-47 -125h-170zM371 514l-103 -266h201zM429 740l-59 78l-59 -78h-124l102 158h162l101 -158h-123z" />
    <glyph glyph-name="Atilde" unicode="&#xc3;" horiz-adv-x="739" 
d="M9 0l263 680h197l258 -680h-170l-46 125h-285l-47 -125h-170zM371 514l-103 -266h201zM222 751l-46 56q17 39 48.5 64.5t67.5 25.5q39 0 87.5 -29t68.5 -29q44 0 68 44l48 -55q-46 -90 -117 -90q-35 0 -86 28.5t-68 28.5q-42 0 -71 -44z" />
    <glyph glyph-name="Adieresis" unicode="&#xc4;" horiz-adv-x="739" 
d="M9 0l263 680h197l258 -680h-170l-46 125h-285l-47 -125h-170zM371 514l-103 -266h201zM158 825q0 72 85 72q84 0 84 -72q0 -71 -84 -71q-85 0 -85 71zM415 825q0 72 86 72q83 0 83 -72q0 -71 -83 -71q-86 0 -86 71z" />
    <glyph glyph-name="Aring" unicode="&#xc5;" horiz-adv-x="739" 
d="M272 728q0 40 29 69t69 29t69 -29t29 -69q0 -25 -13 -48h14l258 -680h-170l-46 125h-285l-47 -125h-170l263 680h12q-12 21 -12 48zM371 514l-103 -266h201zM332 728q0 -16 11 -27t27 -11t26.5 11t10.5 27t-10.5 26.5t-26.5 10.5t-27 -10.5t-11 -26.5z" />
    <glyph glyph-name="AE" unicode="&#xc6;" horiz-adv-x="1079" 
d="M474 0v125h-236l-69 -125h-178l378 680h651v-147h-385v-119h312v-135h-312v-133h385v-146h-546zM299 248h175v324z" />
    <glyph glyph-name="Ccedilla" unicode="&#xc7;" horiz-adv-x="735" 
d="M307 -97l28 93q-126 21 -203 111.5t-77 231.5q0 162 98.5 256.5t253.5 94.5q131 0 203 -68t75 -189l-154 -32q-2 134 -126 134q-80 0 -128 -52t-48 -144q0 -91 49.5 -142.5t132.5 -51.5q110 0 197 80l78 -125q-49 -47 -124 -78.5t-155 -31.5h-8l-13 -43q12 2 23 2
q42 0 65 -18.5t23 -49.5q0 -37 -33 -58t-85 -21q-44 0 -81 11l14 52q37 -11 62 -11q49 0 49 24t-49 24q-41 0 -63 -5z" />
    <glyph glyph-name="Egrave" unicode="&#xc8;" horiz-adv-x="699" 
d="M640 0h-546v680h546v-146h-386v-117h313v-141h-313v-130h386v-146zM310 740l-107 158h165l81 -158h-139z" />
    <glyph glyph-name="Eacute" unicode="&#xc9;" horiz-adv-x="699" 
d="M640 0h-546v680h546v-146h-386v-117h313v-141h-313v-130h386v-146zM528 898l-107 -158h-139l81 158h165z" />
    <glyph glyph-name="Ecircumflex" unicode="&#xca;" horiz-adv-x="699" 
d="M640 0h-546v680h546v-146h-386v-117h313v-141h-313v-130h386v-146zM426 740l-59 78l-59 -78h-124l102 158h162l101 -158h-123z" />
    <glyph glyph-name="Edieresis" unicode="&#xcb;" horiz-adv-x="699" 
d="M640 0h-546v680h546v-146h-386v-117h313v-141h-313v-130h386v-146zM154 825q0 72 85 72q84 0 84 -72q0 -71 -84 -71q-85 0 -85 71zM411 825q0 72 86 72q83 0 83 -72q0 -71 -83 -71q-86 0 -86 71z" />
    <glyph glyph-name="Igrave" unicode="&#xcc;" horiz-adv-x="355" 
d="M94 0v680h168v-680h-168zM115 740l-107 158h165l81 -158h-139z" />
    <glyph glyph-name="Iacute" unicode="&#xcd;" horiz-adv-x="355" 
d="M94 0v680h168v-680h-168zM347 898l-107 -158h-139l81 158h165z" />
    <glyph glyph-name="Icircumflex" unicode="&#xce;" horiz-adv-x="355" 
d="M94 0v680h168v-680h-168zM236 740l-59 78l-59 -78h-124l102 158h162l101 -158h-123z" />
    <glyph glyph-name="Idieresis" unicode="&#xcf;" horiz-adv-x="355" 
d="M94 0v680h168v-680h-168zM-36 825q0 72 85 72q84 0 84 -72q0 -71 -84 -71q-85 0 -85 71zM221 825q0 72 86 72q83 0 83 -72q0 -71 -83 -71q-86 0 -86 71z" />
    <glyph glyph-name="Eth" unicode="&#xd0;" horiz-adv-x="808" 
d="M95 0v284h-62v108h62v288h306q156 -1 253.5 -90.5t97.5 -250.5q0 -160 -97.5 -249.5t-253.5 -89.5h-306zM382 284h-119v-138h131q84 0 135 51t51 142q0 92 -51 143.5t-135 51.5h-131v-142h119v-108z" />
    <glyph glyph-name="Ntilde" unicode="&#xd1;" horiz-adv-x="844" 
d="M605 0l-343 413v-413h-168v680h146l342 -413v413h168v-680h-145zM276 751l-46 56q17 39 48.5 64.5t67.5 25.5q39 0 87.5 -29t68.5 -29q44 0 68 44l48 -55q-46 -90 -117 -90q-35 0 -86 28.5t-68 28.5q-42 0 -71 -44z" />
    <glyph glyph-name="Ograve" unicode="&#xd2;" horiz-adv-x="807" 
d="M53 339q0 151 100 251t249 100q151 0 251 -100t100 -251q0 -149 -100 -249t-251 -100q-149 0 -249 100t-100 249zM218 339q0 -81 52.5 -136t132.5 -55q82 0 133.5 54.5t51.5 136.5q0 83 -51.5 137.5t-133.5 54.5q-80 0 -132.5 -54.5t-52.5 -137.5zM339 740l-107 158h165
l81 -158h-139z" />
    <glyph glyph-name="Oacute" unicode="&#xd3;" horiz-adv-x="807" 
d="M53 339q0 151 100 251t249 100q151 0 251 -100t100 -251q0 -149 -100 -249t-251 -100q-149 0 -249 100t-100 249zM218 339q0 -81 52.5 -136t132.5 -55q82 0 133.5 54.5t51.5 136.5q0 83 -51.5 137.5t-133.5 54.5q-80 0 -132.5 -54.5t-52.5 -137.5zM573 898l-107 -158
h-139l81 158h165z" />
    <glyph glyph-name="Ocircumflex" unicode="&#xd4;" horiz-adv-x="807" 
d="M53 339q0 151 100 251t249 100q151 0 251 -100t100 -251q0 -149 -100 -249t-251 -100q-149 0 -249 100t-100 249zM218 339q0 -81 52.5 -136t132.5 -55q82 0 133.5 54.5t51.5 136.5q0 83 -51.5 137.5t-133.5 54.5q-80 0 -132.5 -54.5t-52.5 -137.5zM461 740l-59 78
l-59 -78h-124l102 158h162l101 -158h-123z" />
    <glyph glyph-name="Otilde" unicode="&#xd5;" horiz-adv-x="807" 
d="M53 339q0 151 100 251t249 100q151 0 251 -100t100 -251q0 -149 -100 -249t-251 -100q-149 0 -249 100t-100 249zM218 339q0 -81 52.5 -136t132.5 -55q82 0 133.5 54.5t51.5 136.5q0 83 -51.5 137.5t-133.5 54.5q-80 0 -132.5 -54.5t-52.5 -137.5zM254 751l-46 56
q17 39 48.5 64.5t67.5 25.5q39 0 87.5 -29t68.5 -29q44 0 68 44l48 -55q-46 -90 -117 -90q-35 0 -86 28.5t-68 28.5q-42 0 -71 -44z" />
    <glyph glyph-name="Odieresis" unicode="&#xd6;" horiz-adv-x="807" 
d="M53 339q0 151 100 251t249 100q151 0 251 -100t100 -251q0 -149 -100 -249t-251 -100q-149 0 -249 100t-100 249zM218 339q0 -81 52.5 -136t132.5 -55q82 0 133.5 54.5t51.5 136.5q0 83 -51.5 137.5t-133.5 54.5q-80 0 -132.5 -54.5t-52.5 -137.5zM189 825q0 72 85 72
q84 0 84 -72q0 -71 -84 -71q-85 0 -85 71zM446 825q0 72 86 72q83 0 83 -72q0 -71 -83 -71q-86 0 -86 71z" />
    <glyph glyph-name="multiply" unicode="&#xd7;" 
d="M518 428l-126 -125l126 -125l-93 -94l-125 126l-125 -126l-94 94l126 125l-126 125l94 93l125 -126l125 126z" />
    <glyph glyph-name="Oslash" unicode="&#xd8;" horiz-adv-x="807" 
d="M53 339q0 151 100 251t249 100q106 0 193 -54l36 44h100v-12l-70 -87q92 -100 92 -242q0 -149 -100 -249t-251 -100q-101 0 -183 48l-31 -38h-102v13l65 79q-98 100 -98 247zM216 339q0 -69 38 -120l239 292q-42 22 -91 22q-80 0 -133 -55.5t-53 -138.5zM590 339
q0 66 -34 114l-235 -289q36 -18 81 -18q82 0 135 55.5t53 137.5z" />
    <glyph glyph-name="Ugrave" unicode="&#xd9;" horiz-adv-x="806" 
d="M254 680v-377q0 -75 37.5 -116.5t109.5 -41.5q73 0 111.5 42t38.5 116v377h168v-388q0 -128 -84.5 -215.5t-233.5 -87.5t-232 83.5t-83 219.5v388h168zM339 740l-107 158h165l81 -158h-139z" />
    <glyph glyph-name="Uacute" unicode="&#xda;" horiz-adv-x="806" 
d="M254 680v-377q0 -75 37.5 -116.5t109.5 -41.5q73 0 111.5 42t38.5 116v377h168v-388q0 -128 -84.5 -215.5t-233.5 -87.5t-232 83.5t-83 219.5v388h168zM572 898l-107 -158h-139l81 158h165z" />
    <glyph glyph-name="Ucircumflex" unicode="&#xdb;" horiz-adv-x="806" 
d="M254 680v-377q0 -75 37.5 -116.5t109.5 -41.5q73 0 111.5 42t38.5 116v377h168v-388q0 -128 -84.5 -215.5t-233.5 -87.5t-232 83.5t-83 219.5v388h168zM461 740l-59 78l-59 -78h-124l102 158h162l101 -158h-123z" />
    <glyph glyph-name="Udieresis" unicode="&#xdc;" horiz-adv-x="806" 
d="M254 680v-377q0 -75 37.5 -116.5t109.5 -41.5q73 0 111.5 42t38.5 116v377h168v-388q0 -128 -84.5 -215.5t-233.5 -87.5t-232 83.5t-83 219.5v388h168zM189 825q0 72 85 72q84 0 84 -72q0 -71 -84 -71q-85 0 -85 71zM446 825q0 72 86 72q83 0 83 -72q0 -71 -83 -71
q-86 0 -86 71z" />
    <glyph glyph-name="Yacute" unicode="&#xdd;" horiz-adv-x="693" 
d="M262 0v262l-259 406v12h188l155 -263l156 263h187v-12l-259 -405v-263h-168zM516 898l-107 -158h-139l81 158h165z" />
    <glyph glyph-name="Thorn" unicode="&#xde;" horiz-adv-x="723" 
d="M94 0v680h168v-88h170q109 0 180 -62.5t71 -184.5q0 -113 -72.5 -178t-178.5 -65h-170v-102h-168zM407 446h-145v-198h145q46 0 75 26.5t29 72.5q0 47 -29 73t-75 26z" />
    <glyph glyph-name="germandbls" unicode="&#xdf;" horiz-adv-x="704" 
d="M362 720q120 0 183 -64t63 -145q0 -31 -9.5 -59t-21 -43t-21 -29t-9.5 -20q0 -7 18 -25.5t39 -39.5t39 -56.5t18 -73.5q0 -86 -52 -130.5t-141 -44.5q-78 0 -151 26l24 135q36 -20 75 -20q30 0 47 14t17 37q0 26 -28.5 55.5t-57 56.5t-28.5 46q0 24 35 69t35 87
q0 35 -24.5 56.5t-64.5 21.5q-50 0 -76 -36.5t-26 -99.5v-438h-168v425q0 78 23.5 136.5t64.5 92t90.5 50t106.5 16.5z" />
    <glyph glyph-name="agrave" unicode="&#xe0;" horiz-adv-x="721" 
d="M603 523v-344q0 -48 32 -48q22 0 50 14l6 -133q-56 -22 -125 -22q-93 0 -119 75q-62 -74 -160 -74q-107 0 -174 75.5t-67 193.5q0 120 67 196t174 76q96 0 148 -55v46h168zM435 174v174q-38 38 -100 38q-55 0 -86.5 -34t-31.5 -92q0 -56 32 -90t86 -34q57 0 100 38z
M298 583l-107 158h165l81 -158h-139z" />
    <glyph glyph-name="aacute" unicode="&#xe1;" horiz-adv-x="721" 
d="M603 523v-344q0 -48 32 -48q22 0 50 14l6 -133q-56 -22 -125 -22q-93 0 -119 75q-62 -74 -160 -74q-107 0 -174 75.5t-67 193.5q0 120 67 196t174 76q96 0 148 -55v46h168zM435 174v174q-38 38 -100 38q-55 0 -86.5 -34t-31.5 -92q0 -56 32 -90t86 -34q57 0 100 38z
M519 741l-107 -158h-139l81 158h165z" />
    <glyph glyph-name="acircumflex" unicode="&#xe2;" horiz-adv-x="721" 
d="M603 523v-344q0 -48 32 -48q22 0 50 14l6 -133q-56 -22 -125 -22q-93 0 -119 75q-62 -74 -160 -74q-107 0 -174 75.5t-67 193.5q0 120 67 196t174 76q96 0 148 -55v46h168zM435 174v174q-38 38 -100 38q-55 0 -86.5 -34t-31.5 -92q0 -56 32 -90t86 -34q57 0 100 38z
M408 583l-59 78l-59 -78h-124l102 158h162l101 -158h-123z" />
    <glyph glyph-name="atilde" unicode="&#xe3;" horiz-adv-x="721" 
d="M603 523v-344q0 -48 32 -48q22 0 50 14l6 -133q-56 -22 -125 -22q-93 0 -119 75q-62 -74 -160 -74q-107 0 -174 75.5t-67 193.5q0 120 67 196t174 76q96 0 148 -55v46h168zM435 174v174q-38 38 -100 38q-55 0 -86.5 -34t-31.5 -92q0 -56 32 -90t86 -34q57 0 100 38z
M209 594l-46 56q17 39 48.5 64.5t67.5 25.5q39 0 87.5 -29t68.5 -29q44 0 68 44l48 -55q-46 -90 -117 -90q-36 0 -86 28.5t-68 28.5q-42 0 -71 -44z" />
    <glyph glyph-name="adieresis" unicode="&#xe4;" horiz-adv-x="721" 
d="M603 523v-344q0 -48 32 -48q22 0 50 14l6 -133q-56 -22 -125 -22q-93 0 -119 75q-62 -74 -160 -74q-107 0 -174 75.5t-67 193.5q0 120 67 196t174 76q96 0 148 -55v46h168zM435 174v174q-38 38 -100 38q-55 0 -86.5 -34t-31.5 -92q0 -56 32 -90t86 -34q57 0 100 38z
M146 668q0 72 85 72q84 0 84 -72q0 -71 -84 -71q-85 0 -85 71zM403 668q0 72 86 72q83 0 83 -72q0 -71 -83 -71q-86 0 -86 71z" />
    <glyph glyph-name="aring" unicode="&#xe5;" horiz-adv-x="721" 
d="M603 523v-344q0 -48 32 -48q22 0 50 14l6 -133q-56 -22 -125 -22q-93 0 -119 75q-62 -74 -160 -74q-107 0 -174 75.5t-67 193.5q0 120 67 196t174 76q96 0 148 -55v46h168zM435 174v174q-38 38 -100 38q-55 0 -86.5 -34t-31.5 -92q0 -56 32 -90t86 -34q57 0 100 38z
M254 670q0 40 29 69t69 29t69 -29t29 -69t-29 -69t-69 -29t-69 29t-29 69zM314 670q0 -16 11 -27t27 -11t26.5 11t10.5 27t-10.5 26.5t-26.5 10.5t-27 -10.5t-11 -26.5z" />
    <glyph glyph-name="ae" unicode="&#xe6;" horiz-adv-x="906" 
d="M848 219h-328q8 -100 131 -100q35 0 74.5 15t66.5 35l62 -112q-87 -71 -220 -71q-139 0 -198 79q-94 -80 -213 -80q-86 0 -135.5 44t-49.5 116q0 85 64.5 133.5t193.5 48.5q24 0 54 -2q0 42 -16.5 58t-57.5 16t-90 -11.5t-76 -26.5l-29 141q102 35 218 35q71 0 107 -19.5
t56 -54.5q59 74 165 74q115 0 173 -61.5t58 -156.5q0 -69 -10 -100zM627 409q-42 0 -69 -23.5t-30 -61.5h189v8q0 36 -22.5 56.5t-67.5 20.5zM206 160q0 -46 62 -46q45 0 81 30v70q-45 3 -55 3q-88 -7 -88 -57z" />
    <glyph glyph-name="ccedilla" unicode="&#xe7;" horiz-adv-x="601" 
d="M239 -97l27 88q-110 17 -165 88.5t-55 180.5q0 121 76.5 199t200.5 78q113 0 174.5 -56.5t65.5 -151.5l-149 -33q-6 94 -90 94q-49 0 -77 -35t-28 -90q0 -57 33.5 -94.5t99.5 -37.5q34 0 73.5 16.5t66.5 38.5l64 -130q-92 -72 -224 -72h-2l-12 -39q12 2 23 2
q42 0 65 -18.5t23 -49.5q0 -37 -33 -58t-85 -21q-44 0 -81 11l14 52q37 -11 62 -11q49 0 49 24t-49 24q-41 0 -63 -5z" />
    <glyph glyph-name="egrave" unicode="&#xe8;" horiz-adv-x="605" 
d="M491 169l62 -112q-87 -71 -222 -71q-142 0 -214.5 75.5t-72.5 198.5q0 120 77 198.5t201 78.5q114 0 174.5 -61.5t60.5 -156.5q0 -65 -11 -100h-335q8 -47 41 -73.5t89 -26.5q39 0 81 15t69 35zM411 325v12q0 33 -22.5 52.5t-67.5 19.5t-73 -24t-34 -60h197zM275 583
l-107 158h165l81 -158h-139z" />
    <glyph glyph-name="eacute" unicode="&#xe9;" horiz-adv-x="605" 
d="M491 169l62 -112q-87 -71 -222 -71q-142 0 -214.5 75.5t-72.5 198.5q0 120 77 198.5t201 78.5q114 0 174.5 -61.5t60.5 -156.5q0 -65 -11 -100h-335q8 -47 41 -73.5t89 -26.5q39 0 81 15t69 35zM411 325v12q0 33 -22.5 52.5t-67.5 19.5t-73 -24t-34 -60h197zM489 741
l-107 -158h-139l81 158h165z" />
    <glyph glyph-name="ecircumflex" unicode="&#xea;" horiz-adv-x="605" 
d="M491 169l62 -112q-87 -71 -222 -71q-142 0 -214.5 75.5t-72.5 198.5q0 120 77 198.5t201 78.5q114 0 174.5 -61.5t60.5 -156.5q0 -65 -11 -100h-335q8 -47 41 -73.5t89 -26.5q39 0 81 15t69 35zM411 325v12q0 33 -22.5 52.5t-67.5 19.5t-73 -24t-34 -60h197zM384 583
l-59 78l-59 -78h-124l102 158h162l101 -158h-123z" />
    <glyph glyph-name="edieresis" unicode="&#xeb;" horiz-adv-x="605" 
d="M491 169l62 -112q-87 -71 -222 -71q-142 0 -214.5 75.5t-72.5 198.5q0 120 77 198.5t201 78.5q114 0 174.5 -61.5t60.5 -156.5q0 -65 -11 -100h-335q8 -47 41 -73.5t89 -26.5q39 0 81 15t69 35zM411 325v12q0 33 -22.5 52.5t-67.5 19.5t-73 -24t-34 -60h197zM111 668
q0 72 85 72q84 0 84 -72q0 -71 -84 -71q-85 0 -85 71zM368 668q0 72 86 72q83 0 83 -72q0 -71 -83 -71q-86 0 -86 71z" />
    <glyph glyph-name="igrave" unicode="&#xec;" horiz-adv-x="363" 
d="M75 523h168v-344q0 -48 32 -48q14 0 30 5.5t19 8.5l7 -133q-2 -2 -19 -7t-47 -10t-59 -5q-131 0 -131 148v385zM108 583l-107 158h165l81 -158h-139z" />
    <glyph glyph-name="iacute" unicode="&#xed;" horiz-adv-x="363" 
d="M75 523h168v-344q0 -48 32 -48q14 0 30 5.5t19 8.5l7 -133q-2 -2 -19 -7t-47 -10t-59 -5q-131 0 -131 148v385zM325 741l-107 -158h-139l81 158h165z" />
    <glyph glyph-name="icircumflex" unicode="&#xee;" horiz-adv-x="363" 
d="M75 523h168v-344q0 -48 32 -48q14 0 30 5.5t19 8.5l7 -133q-2 -2 -19 -7t-47 -10t-59 -5q-131 0 -131 148v385zM218 583l-59 78l-59 -78h-124l102 158h162l101 -158h-123z" />
    <glyph glyph-name="idieresis" unicode="&#xef;" horiz-adv-x="363" 
d="M75 523h168v-344q0 -48 32 -48q14 0 30 5.5t19 8.5l7 -133q-2 -2 -19 -7t-47 -10t-59 -5q-131 0 -131 148v385zM-53 668q0 72 85 72q84 0 84 -72q0 -71 -84 -71q-85 0 -85 71zM204 668q0 72 86 72q83 0 83 -72q0 -71 -83 -71q-86 0 -86 71z" />
    <glyph glyph-name="eth" unicode="&#xf0;" horiz-adv-x="625" 
d="M454 698l-41 -43q70 -53 112 -134t42 -180q0 -161 -74 -256t-210 -95q-109 0 -177.5 66.5t-68.5 178.5q0 94 56 154.5t154 60.5q79 0 145 -52q-17 87 -81 148l-46 -49l-42 35l46 49q-30 21 -69 35l66 104q50 -9 99 -35l45 48zM289 143q90 0 105 131q-54 46 -106 46
q-39 0 -61.5 -23t-22.5 -64q0 -38 22.5 -64t62.5 -26z" />
    <glyph glyph-name="ntilde" unicode="&#xf1;" horiz-adv-x="703" 
d="M77 523h168v-58q64 67 159 67q96 0 144 -64t48 -167v-122q0 -48 32 -48q21 0 51 14l5 -133q-51 -22 -124 -22q-65 0 -98.5 35t-33.5 113v135q0 50 -22.5 77t-65.5 27q-32 0 -57 -19.5t-38 -45.5v-312h-168v523zM196 594l-46 56q17 39 48.5 64.5t67.5 25.5q39 0 87.5 -29
t68.5 -29q44 0 68 44l48 -55q-46 -90 -117 -90q-35 0 -86 28.5t-68 28.5q-42 0 -71 -44z" />
    <glyph glyph-name="ograve" unicode="&#xf2;" horiz-adv-x="650" 
d="M43 260q0 119 80 198t201 79q123 0 203 -78.5t80 -198.5q0 -118 -80 -196t-203 -78q-121 0 -201 78t-80 196zM205 260q0 -51 33.5 -86.5t85.5 -35.5q54 0 87.5 35.5t33.5 86.5q0 53 -33.5 88.5t-87.5 35.5q-52 0 -85.5 -35.5t-33.5 -88.5zM261 583l-107 158h165l81 -158
h-139z" />
    <glyph glyph-name="oacute" unicode="&#xf3;" horiz-adv-x="650" 
d="M43 260q0 119 80 198t201 79q123 0 203 -78.5t80 -198.5q0 -118 -80 -196t-203 -78q-121 0 -201 78t-80 196zM205 260q0 -51 33.5 -86.5t85.5 -35.5q54 0 87.5 35.5t33.5 86.5q0 53 -33.5 88.5t-87.5 35.5q-52 0 -85.5 -35.5t-33.5 -88.5zM495 741l-107 -158h-139l81 158
h165z" />
    <glyph glyph-name="ocircumflex" unicode="&#xf4;" horiz-adv-x="650" 
d="M43 260q0 119 80 198t201 79q123 0 203 -78.5t80 -198.5q0 -118 -80 -196t-203 -78q-121 0 -201 78t-80 196zM205 260q0 -51 33.5 -86.5t85.5 -35.5q54 0 87.5 35.5t33.5 86.5q0 53 -33.5 88.5t-87.5 35.5q-52 0 -85.5 -35.5t-33.5 -88.5zM383 583l-59 78l-59 -78h-124
l102 158h162l101 -158h-123z" />
    <glyph glyph-name="otilde" unicode="&#xf5;" horiz-adv-x="650" 
d="M43 260q0 119 80 198t201 79q123 0 203 -78.5t80 -198.5q0 -118 -80 -196t-203 -78q-121 0 -201 78t-80 196zM205 260q0 -51 33.5 -86.5t85.5 -35.5q54 0 87.5 35.5t33.5 86.5q0 53 -33.5 88.5t-87.5 35.5q-52 0 -85.5 -35.5t-33.5 -88.5zM176 594l-46 56
q17 39 48.5 64.5t67.5 25.5q39 0 87.5 -29t68.5 -29q44 0 68 44l48 -55q-46 -90 -117 -90q-35 0 -86 28.5t-68 28.5q-42 0 -71 -44z" />
    <glyph glyph-name="odieresis" unicode="&#xf6;" horiz-adv-x="650" 
d="M43 260q0 119 80 198t201 79q123 0 203 -78.5t80 -198.5q0 -118 -80 -196t-203 -78q-121 0 -201 78t-80 196zM205 260q0 -51 33.5 -86.5t85.5 -35.5q54 0 87.5 35.5t33.5 86.5q0 53 -33.5 88.5t-87.5 35.5q-52 0 -85.5 -35.5t-33.5 -88.5zM111 668q0 72 85 72
q84 0 84 -72q0 -71 -84 -71q-85 0 -85 71zM368 668q0 72 86 72q83 0 83 -72q0 -71 -83 -71q-86 0 -86 71z" />
    <glyph glyph-name="divide" unicode="&#xf7;" 
d="M57 368h486v-131h-486v131zM213 503q0 40 23 62.5t64 22.5t64.5 -22.5t23.5 -62.5t-23 -62t-65 -22q-41 0 -64 22t-23 62zM213 101q0 40 23 62t64 22t64.5 -22t23.5 -62q0 -41 -23 -63t-65 -22q-41 0 -64 22t-23 63z" />
    <glyph glyph-name="oslash" unicode="&#xf8;" horiz-adv-x="650" 
d="M43 260q0 119 80 198t201 79q88 0 160 -45l26 31h68v-12l-47 -57q76 -78 76 -194q0 -118 -80 -196t-203 -78q-82 0 -149 38l-20 -24h-71v13l41 49q-82 77 -82 198zM205 260q0 -43 23 -75l154 185q-26 14 -58 14q-52 0 -85.5 -35.5t-33.5 -88.5zM445 260q0 38 -19 68
l-150 -181q21 -9 48 -9q54 0 87.5 35.5t33.5 86.5z" />
    <glyph glyph-name="ugrave" unicode="&#xf9;" horiz-adv-x="708" 
d="M422 523h168v-344q0 -48 30 -48q21 0 51 14l6 -133q-48 -22 -125 -22q-90 0 -117 68q-60 -68 -172 -68q-97 0 -144.5 62.5t-47.5 168.5v302h168v-278q0 -54 19.5 -78t68.5 -24q62 0 95 51v329zM263 583l-107 158h165l81 -158h-139z" />
    <glyph glyph-name="uacute" unicode="&#xfa;" horiz-adv-x="708" 
d="M422 523h168v-344q0 -48 30 -48q21 0 51 14l6 -133q-48 -22 -125 -22q-90 0 -117 68q-60 -68 -172 -68q-97 0 -144.5 62.5t-47.5 168.5v302h168v-278q0 -54 19.5 -78t68.5 -24q62 0 95 51v329zM510 741l-107 -158h-139l81 158h165z" />
    <glyph glyph-name="ucircumflex" unicode="&#xfb;" horiz-adv-x="708" 
d="M422 523h168v-344q0 -48 30 -48q21 0 51 14l6 -133q-48 -22 -125 -22q-90 0 -117 68q-60 -68 -172 -68q-97 0 -144.5 62.5t-47.5 168.5v302h168v-278q0 -54 19.5 -78t68.5 -24q62 0 95 51v329zM391 583l-59 78l-59 -78h-124l102 158h162l101 -158h-123z" />
    <glyph glyph-name="udieresis" unicode="&#xfc;" horiz-adv-x="708" 
d="M422 523h168v-344q0 -48 30 -48q21 0 51 14l6 -133q-48 -22 -125 -22q-90 0 -117 68q-60 -68 -172 -68q-97 0 -144.5 62.5t-47.5 168.5v302h168v-278q0 -54 19.5 -78t68.5 -24q62 0 95 51v329zM121 668q0 72 85 72q84 0 84 -72q0 -71 -84 -71q-85 0 -85 71zM378 668
q0 72 86 72q83 0 83 -72q0 -71 -83 -71q-86 0 -86 71z" />
    <glyph glyph-name="yacute" unicode="&#xfd;" horiz-adv-x="605" 
d="M4 523h186l119 -340l120 340h169l-208 -516q-44 -111 -95 -158t-141 -47q-68 0 -120 35l24 128q52 -27 93 -27q30 0 46.5 14t30.5 44l9 21zM476 741l-107 -158h-139l81 158h165z" />
    <glyph glyph-name="thorn" unicode="&#xfe;" horiz-adv-x="681" 
d="M636 262q0 -119 -67.5 -195.5t-174.5 -76.5q-94 0 -149 58v-236h-168v898h168v-233q60 55 149 55q108 0 175 -75.5t67 -194.5zM465 262q0 57 -32.5 90.5t-86.5 33.5q-58 0 -100 -40l-1 -171q41 -39 101 -39q54 0 86.5 34t32.5 92z" />
    <glyph glyph-name="ydieresis" unicode="&#xff;" horiz-adv-x="605" 
d="M4 523h186l119 -340l120 340h169l-208 -516q-44 -111 -95 -158t-141 -47q-68 0 -120 35l24 128q52 -27 93 -27q30 0 46.5 14t30.5 44l9 21zM96 668q0 72 85 72q84 0 84 -72q0 -71 -84 -71q-85 0 -85 71zM353 668q0 72 86 72q83 0 83 -72q0 -71 -83 -71q-86 0 -86 71z" />
    <glyph glyph-name="Amacron" unicode="&#x100;" horiz-adv-x="739" 
d="M9 0l263 680h197l258 -680h-170l-46 125h-285l-47 -125h-170zM371 514l-103 -266h201zM501 762h-261v104h261v-104z" />
    <glyph glyph-name="amacron" unicode="&#x101;" horiz-adv-x="721" 
d="M603 523v-344q0 -48 32 -48q22 0 50 14l6 -133q-56 -22 -125 -22q-93 0 -119 75q-62 -74 -160 -74q-107 0 -174 75.5t-67 193.5q0 120 67 196t174 76q96 0 148 -55v46h168zM435 174v174q-38 38 -100 38q-55 0 -86.5 -34t-31.5 -92q0 -56 32 -90t86 -34q57 0 100 38z
M482 605h-261v104h261v-104z" />
    <glyph glyph-name="Abreve" unicode="&#x102;" horiz-adv-x="739" 
d="M9 0l263 680h197l258 -680h-170l-46 125h-285l-47 -125h-170zM371 514l-103 -266h201zM217 829l40 60q40 -46 113 -46t113 46l40 -60q-48 -86 -152 -86t-154 86z" />
    <glyph glyph-name="abreve" unicode="&#x103;" horiz-adv-x="721" 
d="M603 523v-344q0 -48 32 -48q22 0 50 14l6 -133q-56 -22 -125 -22q-93 0 -119 75q-62 -74 -160 -74q-107 0 -174 75.5t-67 193.5q0 120 67 196t174 76q96 0 148 -55v46h168zM435 174v174q-38 38 -100 38q-55 0 -86.5 -34t-31.5 -92q0 -56 32 -90t86 -34q57 0 100 38z
M199 672l40 60q40 -46 113 -46t113 46l40 -60q-48 -86 -152 -86t-154 86z" />
    <glyph glyph-name="Aogonek" unicode="&#x104;" horiz-adv-x="738" 
d="M9 0l263 680h197l258 -680h-53q-37 -1 -59.5 -19t-22.5 -47q0 -22 12.5 -35t35.5 -13q26 0 53 19l16 -70q-39 -25 -92 -25q-47 0 -74.5 28t-27.5 73q0 60 55 89h-13l-46 125h-285l-47 -125h-170zM371 514l-103 -266h201z" />
    <glyph glyph-name="aogonek" unicode="&#x105;" horiz-adv-x="721" 
d="M603 523v-344q0 -48 32 -48q22 0 50 14l6 -133q-33 -13 -80 -19q-53 -21 -53 -59q0 -22 13 -35t37 -13q27 0 52 19l16 -70q-38 -25 -93 -25q-46 0 -74 28t-28 73q0 50 47 83q-61 13 -81 71q-62 -74 -160 -74q-107 0 -174 75.5t-67 193.5q0 120 67 196t174 76
q96 0 148 -55v46h168zM435 174v174q-38 38 -100 38q-55 0 -86.5 -34t-31.5 -92q0 -56 32 -90t86 -34q57 0 100 38z" />
    <glyph glyph-name="Cacute" unicode="&#x106;" horiz-adv-x="735" 
d="M608 225l78 -125q-49 -47 -124 -78.5t-155 -31.5q-154 0 -253 94t-99 255q0 162 98.5 256.5t253.5 94.5q131 0 203 -68t75 -189l-154 -32q-2 134 -126 134q-80 0 -128 -52t-48 -144q0 -91 49.5 -142.5t132.5 -51.5q110 0 197 80zM578 898l-107 -158h-139l81 158h165z" />
    <glyph glyph-name="cacute" unicode="&#x107;" horiz-adv-x="601" 
d="M491 188l64 -130q-92 -72 -224 -72q-142 0 -214 75t-72 199q0 121 76.5 199t200.5 78q113 0 174.5 -56.5t65.5 -151.5l-149 -33q-6 94 -90 94q-49 0 -77 -35t-28 -90q0 -57 33.5 -94.5t99.5 -37.5q34 0 73.5 16.5t66.5 38.5zM489 741l-107 -158h-139l81 158h165z" />
    <glyph glyph-name="Ccircumflex" unicode="&#x108;" horiz-adv-x="735" 
d="M608 225l78 -125q-49 -47 -124 -78.5t-155 -31.5q-154 0 -253 94t-99 255q0 162 98.5 256.5t253.5 94.5q131 0 203 -68t75 -189l-154 -32q-2 134 -126 134q-80 0 -128 -52t-48 -144q0 -91 49.5 -142.5t132.5 -51.5q110 0 197 80zM463 740l-59 78l-59 -78h-124l102 158
h162l101 -158h-123z" />
    <glyph glyph-name="ccircumflex" unicode="&#x109;" horiz-adv-x="601" 
d="M491 188l64 -130q-92 -72 -224 -72q-142 0 -214 75t-72 199q0 121 76.5 199t200.5 78q113 0 174.5 -56.5t65.5 -151.5l-149 -33q-6 94 -90 94q-49 0 -77 -35t-28 -90q0 -57 33.5 -94.5t99.5 -37.5q34 0 73.5 16.5t66.5 38.5zM382 583l-59 78l-59 -78h-124l102 158h162
l101 -158h-123z" />
    <glyph glyph-name="Cdotaccent" unicode="&#x10a;" horiz-adv-x="735" 
d="M608 225l78 -125q-49 -47 -124 -78.5t-155 -31.5q-154 0 -253 94t-99 255q0 162 98.5 256.5t253.5 94.5q131 0 203 -68t75 -189l-154 -32q-2 134 -126 134q-80 0 -128 -52t-48 -144q0 -91 49.5 -142.5t132.5 -51.5q110 0 197 80zM312 827q0 76 92 76q90 0 90 -76t-90 -76
q-92 0 -92 76z" />
    <glyph glyph-name="cdotaccent" unicode="&#x10b;" horiz-adv-x="601" 
d="M491 188l64 -130q-92 -72 -224 -72q-142 0 -214 75t-72 199q0 121 76.5 199t200.5 78q113 0 174.5 -56.5t65.5 -151.5l-149 -33q-6 94 -90 94q-49 0 -77 -35t-28 -90q0 -57 33.5 -94.5t99.5 -37.5q34 0 73.5 16.5t66.5 38.5zM236 670q0 76 92 76q90 0 90 -76t-90 -76
q-92 0 -92 76z" />
    <glyph glyph-name="Ccaron" unicode="&#x10c;" horiz-adv-x="735" 
d="M608 225l78 -125q-49 -47 -124 -78.5t-155 -31.5q-154 0 -253 94t-99 255q0 162 98.5 256.5t253.5 94.5q131 0 203 -68t75 -189l-154 -32q-2 134 -126 134q-80 0 -128 -52t-48 -144q0 -91 49.5 -142.5t132.5 -51.5q110 0 197 80zM348 898l59 -77l59 77h123l-101 -158
h-162l-102 158h124z" />
    <glyph glyph-name="ccaron" unicode="&#x10d;" horiz-adv-x="601" 
d="M491 188l64 -130q-92 -72 -224 -72q-142 0 -214 75t-72 199q0 121 76.5 199t200.5 78q113 0 174.5 -56.5t65.5 -151.5l-149 -33q-6 94 -90 94q-49 0 -77 -35t-28 -90q0 -57 33.5 -94.5t99.5 -37.5q34 0 73.5 16.5t66.5 38.5zM268 741l59 -77l59 77h123l-101 -158h-162
l-102 158h124z" />
    <glyph glyph-name="Dcaron" unicode="&#x10e;" horiz-adv-x="806" 
d="M94 0v680h305q156 -1 253.5 -90.5t97.5 -250.5q0 -160 -97.5 -249.5t-253.5 -89.5h-305zM392 534h-130v-388h130q84 0 134.5 51t50.5 142q0 93 -50.5 144t-134.5 51zM297 898l59 -77l59 77h123l-101 -158h-162l-102 158h124z" />
    <glyph glyph-name="dcaron" unicode="&#x10f;" horiz-adv-x="774" 
d="M435 710h168v-531q0 -48 32 -48q17 0 50 14l6 -133q-52 -22 -125 -22q-93 0 -119 71q-56 -71 -161 -71q-106 0 -173.5 76.5t-67.5 195.5t67.5 194.5t173.5 75.5q90 0 149 -54v232zM216 262q0 -58 32 -92t87 -34q59 0 100 37v175q-41 38 -100 38q-54 0 -86.5 -33.5
t-32.5 -90.5zM688 480l24 63q-59 14 -59 70q0 35 23 55.5t58 20.5q97 0 97 -89q0 -65 -65 -148z" />
    <glyph glyph-name="Dcroat" unicode="&#x110;" horiz-adv-x="808" 
d="M95 0v284h-62v108h62v288h306q156 -1 253.5 -90.5t97.5 -250.5q0 -160 -97.5 -249.5t-253.5 -89.5h-306zM382 284h-119v-138h131q84 0 135 51t51 142q0 92 -51 143.5t-135 51.5h-131v-142h119v-108z" />
    <glyph glyph-name="dcroat" unicode="&#x111;" horiz-adv-x="721" 
d="M435 710h168v-46h82v-101h-82v-384q0 -48 32 -48q17 0 50 14l6 -133q-52 -22 -125 -22q-93 0 -119 71q-56 -71 -161 -71q-106 0 -173.5 76.5t-67.5 195.5t67.5 194.5t173.5 75.5q90 0 149 -54v85h-99v101h99v46zM216 262q0 -58 32 -92t87 -34q59 0 100 37v175
q-41 38 -100 38q-54 0 -86.5 -33.5t-32.5 -90.5z" />
    <glyph glyph-name="Emacron" unicode="&#x112;" horiz-adv-x="699" 
d="M640 0h-546v680h546v-146h-386v-117h313v-141h-313v-130h386v-146zM498 762h-261v104h261v-104z" />
    <glyph glyph-name="emacron" unicode="&#x113;" horiz-adv-x="605" 
d="M491 169l62 -112q-87 -71 -222 -71q-142 0 -214.5 75.5t-72.5 198.5q0 120 77 198.5t201 78.5q114 0 174.5 -61.5t60.5 -156.5q0 -65 -11 -100h-335q8 -47 41 -73.5t89 -26.5q39 0 81 15t69 35zM411 325v12q0 33 -22.5 52.5t-67.5 19.5t-73 -24t-34 -60h197zM453 605
h-261v104h261v-104z" />
    <glyph glyph-name="Ebreve" unicode="&#x114;" horiz-adv-x="699" 
d="M640 0h-546v680h546v-146h-386v-117h313v-141h-313v-130h386v-146zM213 829l40 60q40 -46 113 -46t113 46l40 -60q-48 -86 -152 -86t-154 86z" />
    <glyph glyph-name="ebreve" unicode="&#x115;" horiz-adv-x="605" 
d="M491 169l62 -112q-87 -71 -222 -71q-142 0 -214.5 75.5t-72.5 198.5q0 120 77 198.5t201 78.5q114 0 174.5 -61.5t60.5 -156.5q0 -65 -11 -100h-335q8 -47 41 -73.5t89 -26.5q39 0 81 15t69 35zM411 325v12q0 33 -22.5 52.5t-67.5 19.5t-73 -24t-34 -60h197zM173 672
l40 60q40 -46 113 -46t113 46l40 -60q-48 -86 -152 -86t-154 86z" />
    <glyph glyph-name="Edotaccent" unicode="&#x116;" horiz-adv-x="699" 
d="M640 0h-546v680h546v-146h-386v-117h313v-141h-313v-130h386v-146zM275 827q0 76 92 76q90 0 90 -76t-90 -76q-92 0 -92 76z" />
    <glyph glyph-name="edotaccent" unicode="&#x117;" horiz-adv-x="605" 
d="M491 169l62 -112q-87 -71 -222 -71q-142 0 -214.5 75.5t-72.5 198.5q0 120 77 198.5t201 78.5q114 0 174.5 -61.5t60.5 -156.5q0 -65 -11 -100h-335q8 -47 41 -73.5t89 -26.5q39 0 81 15t69 35zM411 325v12q0 33 -22.5 52.5t-67.5 19.5t-73 -24t-34 -60h197zM235 670
q0 76 92 76q90 0 90 -76t-90 -76q-92 0 -92 76z" />
    <glyph glyph-name="Eogonek" unicode="&#x118;" horiz-adv-x="699" 
d="M640 0h-20q-37 -1 -59.5 -19t-22.5 -47q0 -22 12.5 -35t35.5 -13q26 0 53 19l16 -70q-39 -25 -92 -25q-47 0 -74.5 28t-27.5 73q0 60 55 89h-422v680h546v-146h-386v-117h313v-141h-313v-130h386v-146z" />
    <glyph glyph-name="eogonek" unicode="&#x119;" horiz-adv-x="606" 
d="M491 169l62 -112q-63 -50 -152 -65q-51 -18 -51 -58q0 -22 13 -35t37 -13q27 0 52 19l16 -70q-38 -25 -93 -25q-46 0 -74 28t-28 73q0 46 37 76q-132 6 -199 80.5t-67 192.5q0 120 77 198.5t201 78.5q114 0 174.5 -61.5t60.5 -156.5q0 -65 -11 -100h-335q8 -47 41 -73.5
t89 -26.5q39 0 81 15t69 35zM411 325v12q0 33 -22.5 52.5t-67.5 19.5t-73 -24t-34 -60h197z" />
    <glyph glyph-name="Ecaron" unicode="&#x11a;" horiz-adv-x="699" 
d="M640 0h-546v680h546v-146h-386v-117h313v-141h-313v-130h386v-146zM308 898l59 -77l59 77h123l-101 -158h-162l-102 158h124z" />
    <glyph glyph-name="ecaron" unicode="&#x11b;" horiz-adv-x="605" 
d="M491 169l62 -112q-87 -71 -222 -71q-142 0 -214.5 75.5t-72.5 198.5q0 120 77 198.5t201 78.5q114 0 174.5 -61.5t60.5 -156.5q0 -65 -11 -100h-335q8 -47 41 -73.5t89 -26.5q39 0 81 15t69 35zM411 325v12q0 33 -22.5 52.5t-67.5 19.5t-73 -24t-34 -60h197zM263 741
l59 -77l59 77h123l-101 -158h-162l-102 158h124z" />
    <glyph glyph-name="Gcircumflex" unicode="&#x11c;" horiz-adv-x="774" 
d="M387 402h322v-317q-48 -39 -132.5 -67t-160.5 -28q-156 0 -259 94.5t-103 254.5q0 161 103 256t259 95q152 0 267 -91l-77 -127q-80 63 -186 63q-84 0 -138 -52.5t-54 -143.5t55 -142.5t144 -51.5q67 0 123 29v100h-163v128zM476 740l-59 78l-59 -78h-124l102 158h162
l101 -158h-123z" />
    <glyph glyph-name="gcircumflex" unicode="&#x11d;" horiz-adv-x="681" 
d="M406 583l-59 78l-59 -78h-124l102 158h162l101 -158h-123zM46 280q0 106 67.5 179t173.5 73q94 0 149 -53v44h168v-451q0 -131 -76.5 -200.5t-198.5 -69.5q-18 0 -35 1t-33 3.5t-28.5 4.5t-26.5 6.5t-22.5 7t-21.5 7.5t-17 7t-17 7l-12 6l35 134q88 -48 169 -48
q116 0 116 99v43q-56 -50 -149 -50q-105 0 -173 72.5t-68 177.5zM217 280q0 -47 32 -75.5t86 -28.5q57 0 101 39v131q-44 40 -101 40q-54 0 -86 -29t-32 -77z" />
    <glyph glyph-name="Gbreve" unicode="&#x11e;" horiz-adv-x="774" 
d="M387 402h322v-317q-48 -39 -132.5 -67t-160.5 -28q-156 0 -259 94.5t-103 254.5q0 161 103 256t259 95q152 0 267 -91l-77 -127q-80 63 -186 63q-84 0 -138 -52.5t-54 -143.5t55 -142.5t144 -51.5q67 0 123 29v100h-163v128zM265 829l40 60q40 -46 113 -46t113 46l40 -60
q-48 -86 -152 -86t-154 86z" />
    <glyph glyph-name="gbreve" unicode="&#x11f;" horiz-adv-x="681" 
d="M195 672l40 60q40 -46 113 -46t113 46l40 -60q-48 -86 -152 -86t-154 86zM46 280q0 106 67.5 179t173.5 73q94 0 149 -53v44h168v-451q0 -131 -76.5 -200.5t-198.5 -69.5q-18 0 -35 1t-33 3.5t-28.5 4.5t-26.5 6.5t-22.5 7t-21.5 7.5t-17 7t-17 7l-12 6l35 134
q88 -48 169 -48q116 0 116 99v43q-56 -50 -149 -50q-105 0 -173 72.5t-68 177.5zM217 280q0 -47 32 -75.5t86 -28.5q57 0 101 39v131q-44 40 -101 40q-54 0 -86 -29t-32 -77z" />
    <glyph glyph-name="Gdotaccent" unicode="&#x120;" horiz-adv-x="774" 
d="M387 402h322v-317q-48 -39 -132.5 -67t-160.5 -28q-156 0 -259 94.5t-103 254.5q0 161 103 256t259 95q152 0 267 -91l-77 -127q-80 63 -186 63q-84 0 -138 -52.5t-54 -143.5t55 -142.5t144 -51.5q67 0 123 29v100h-163v128zM325 827q0 76 92 76q90 0 90 -76t-90 -76
q-92 0 -92 76z" />
    <glyph glyph-name="gdotaccent" unicode="&#x121;" horiz-adv-x="681" 
d="M266 670q0 76 92 76q90 0 90 -76t-90 -76q-92 0 -92 76zM46 280q0 106 67.5 179t173.5 73q94 0 149 -53v44h168v-451q0 -131 -76.5 -200.5t-198.5 -69.5q-18 0 -35 1t-33 3.5t-28.5 4.5t-26.5 6.5t-22.5 7t-21.5 7.5t-17 7t-17 7l-12 6l35 134q88 -48 169 -48
q116 0 116 99v43q-56 -50 -149 -50q-105 0 -173 72.5t-68 177.5zM217 280q0 -47 32 -75.5t86 -28.5q57 0 101 39v131q-44 40 -101 40q-54 0 -86 -29t-32 -77z" />
    <glyph glyph-name="Gcommaaccent" unicode="&#x122;" horiz-adv-x="774" 
d="M387 402h322v-317q-48 -39 -132.5 -67t-160.5 -28q-156 0 -259 94.5t-103 254.5q0 161 103 256t259 95q152 0 267 -91l-77 -127q-80 63 -186 63q-84 0 -138 -52.5t-54 -143.5t55 -142.5t144 -51.5q67 0 123 29v100h-163v128zM348 -264l24 63q-59 14 -59 70q0 35 23 55.5
t58 20.5q97 0 97 -89q0 -65 -65 -148z" />
    <glyph glyph-name="gcommaaccent" unicode="&#x123;" horiz-adv-x="681" 
d="M46 280q0 106 67.5 179t173.5 73q94 0 149 -53v44h168v-451q0 -131 -76.5 -200.5t-198.5 -69.5q-18 0 -35 1t-33 3.5t-28.5 4.5t-26.5 6.5t-22.5 7t-21.5 7.5t-17 7t-17 7l-12 6l35 134q88 -48 169 -48q116 0 116 99v43q-56 -50 -149 -50q-105 0 -173 72.5t-68 177.5z
M217 280q0 -47 32 -75.5t86 -28.5q57 0 101 39v131q-44 40 -101 40q-54 0 -86 -29t-32 -77zM397 784l-24 -64q60 -12 60 -70q0 -35 -23 -55t-59 -20q-97 0 -97 89q0 67 65 148z" />
    <glyph glyph-name="Hcircumflex" unicode="&#x124;" horiz-adv-x="845" 
d="M583 0v271h-321v-271h-168v680h168v-263h321v263h168v-680h-168zM480 740l-59 78l-59 -78h-124l102 158h162l101 -158h-123z" />
    <glyph glyph-name="hcircumflex" unicode="&#x125;" horiz-adv-x="703" 
d="M77 710h168v-243q62 65 159 65q96 0 144 -64t48 -167v-122q0 -48 32 -48q18 0 51 14l5 -133q-54 -22 -124 -22q-65 0 -98.5 35t-33.5 113v135q0 50 -22.5 77t-65.5 27q-32 0 -57 -19.5t-38 -45.5v-312h-168v710zM400 751l-59 78l-59 -78h-124l102 158h162l101 -158h-123z
" />
    <glyph glyph-name="Hbar" unicode="&#x126;" horiz-adv-x="845" 
d="M94 0v505h-45v108h45v67h168v-67h321v67h168v-67h48v-108h-48v-505h-168v271h-321v-271h-168zM262 505v-88h321v88h-321z" />
    <glyph glyph-name="hbar" unicode="&#x127;" horiz-adv-x="703" 
d="M77 710h168v-46h113v-101h-113v-96q62 65 159 65q96 0 144 -64t48 -167v-122q0 -48 32 -48q18 0 51 14l5 -133q-54 -22 -124 -22q-65 0 -98.5 35t-33.5 113v135q0 50 -22.5 77t-65.5 27q-32 0 -57 -19.5t-38 -45.5v-312h-168v563h-67v101h67v46z" />
    <glyph glyph-name="Itilde" unicode="&#x128;" horiz-adv-x="355" 
d="M94 0v680h168v-680h-168zM30 751l-46 56q17 39 48.5 64.5t67.5 25.5q39 0 87.5 -29t68.5 -29q44 0 68 44l48 -55q-46 -90 -117 -90q-35 0 -86 28.5t-68 28.5q-42 0 -71 -44z" />
    <glyph glyph-name="itilde" unicode="&#x129;" horiz-adv-x="363" 
d="M75 523h168v-344q0 -48 32 -48q14 0 30 5.5t19 8.5l7 -133q-2 -2 -19 -7t-47 -10t-59 -5q-131 0 -131 148v385zM9 594l-46 56q17 39 48.5 64.5t67.5 25.5q39 0 87.5 -29t68.5 -29q44 0 68 44l48 -55q-46 -90 -117 -90q-36 0 -86.5 28.5t-67.5 28.5q-42 0 -71 -44z" />
    <glyph glyph-name="imacron" unicode="&#x12b;" horiz-adv-x="363" 
d="M75 523h168v-344q0 -48 32 -48q14 0 30 5.5t19 8.5l7 -133q-2 -2 -19 -7t-47 -10t-59 -5q-131 0 -131 148v385zM288 605h-261v104h261v-104z" />
    <glyph glyph-name="Ibreve" unicode="&#x12c;" horiz-adv-x="355" 
d="M94 0v680h168v-680h-168zM24 829l40 60q40 -46 113 -46t113 46l40 -60q-48 -86 -152 -86t-154 86z" />
    <glyph glyph-name="Iogonek" unicode="&#x12e;" horiz-adv-x="355" 
d="M94 0v680h168v-680h-45q-36 -1 -57 -19.5t-21 -46.5q0 -22 12.5 -35t35.5 -13q26 0 53 19l16 -70q-39 -25 -92 -25q-47 0 -74.5 28t-27.5 73q0 60 55 89h-23z" />
    <glyph glyph-name="iogonek" unicode="&#x12f;" horiz-adv-x="364" 
d="M76 138v385h168v-344q0 -48 32 -48q14 0 30 5.5t19 8.5l7 -133q-2 -2 -13 -5t-31.5 -7.5t-41.5 -6.5q-52 -18 -52 -59q0 -22 13 -35t37 -13q25 0 52 19l16 -70q-38 -25 -93 -25q-46 0 -74 28t-28 73q0 52 50 83q-91 19 -91 144zM69 660q0 76 92 76q90 0 90 -76t-90 -76
q-92 0 -92 76z" />
    <glyph glyph-name="Idotaccent" unicode="&#x130;" horiz-adv-x="355" 
d="M94 0v680h168v-680h-168zM86 827q0 76 92 76q90 0 90 -76t-90 -76q-92 0 -92 76z" />
    <glyph glyph-name="dotlessi" unicode="&#x131;" horiz-adv-x="363" 
d="M75 523h168v-344q0 -48 32 -48q14 0 30 5.5t19 8.5l7 -133q-2 -2 -19 -7t-47 -10t-59 -5q-131 0 -131 148v385z" />
    <glyph glyph-name="IJ" unicode="&#x132;" horiz-adv-x="1013" 
d="M94 0v680h168v-680h-168zM758 680h168v-405q0 -131 -69.5 -208.5t-206.5 -77.5q-256 0 -274 276l166 16q5 -70 29 -105t81 -35q58 0 82 36.5t24 107.5v395z" />
    <glyph glyph-name="ij" unicode="&#x133;" horiz-adv-x="686" 
d="M243 523v-344q0 -48 32 -48q14 0 30 5.5t19 8.5l7 -133q-2 -2 -19 -7t-47 -10t-59 -5q-131 0 -131 148v385h168zM68 670q0 76 92 76q90 0 90 -76t-90 -76q-92 0 -92 76zM609 523v-465q0 -173 -148 -255l-101 102q81 55 81 143v475h168zM434 670q0 76 92 76q90 0 90 -76
t-90 -76q-92 0 -92 76z" />
    <glyph glyph-name="Jcircumflex" unicode="&#x134;" horiz-adv-x="658" 
d="M403 680h168v-405q0 -131 -69.5 -208.5t-206.5 -77.5q-256 0 -274 276l166 16q5 -70 29 -105t81 -35q58 0 82 36.5t24 107.5v395zM540 740l-59 78l-59 -78h-124l102 158h162l101 -158h-123z" />
    <glyph glyph-name="jcircumflex" unicode="&#x135;" horiz-adv-x="323" 
d="M78 523h168v-465q0 -173 -148 -255l-101 102q81 55 81 143v475zM220 583l-59 78l-59 -78h-124l102 158h162l101 -158h-123z" />
    <glyph glyph-name="Kcommaaccent" unicode="&#x136;" horiz-adv-x="797" 
d="M94 0v680h168v-273h117l170 273h173v-25l-218 -325q10 -12 45.5 -69.5t69.5 -91.5t71 -34q42 0 71 13l17 -132q-52 -26 -123 -26q-47 0 -88.5 21t-72 56t-53 69t-45.5 72t-36 54h-98v-262h-168zM320 -264l24 63q-59 14 -59 70q0 35 23 55.5t58 20.5q97 0 97 -89
q0 -65 -65 -148z" />
    <glyph glyph-name="kcommaaccent" unicode="&#x137;" horiz-adv-x="656" 
d="M440 523h168q-22 -186 -131 -263l145 -232v-28h-180l-114 205q-39 -6 -83 -6v-199h-168v710h168v-369q86 0 131.5 36t63.5 146zM274 -264l24 63q-59 14 -59 70q0 35 23 55.5t58 20.5q97 0 97 -89q0 -65 -65 -148z" />
    <glyph glyph-name="kgreenlandic" unicode="&#x138;" horiz-adv-x="657" 
d="M245 0h-168v523h168v-203q82 1 129 45.5t66 157.5h168q-23 -191 -135 -274l149 -221v-28h-180l-116 191q-38 -6 -81 -6v-185z" />
    <glyph glyph-name="Lacute" unicode="&#x139;" horiz-adv-x="625" 
d="M600 0h-506v680h168v-534h338v-146zM348 898l-107 -158h-139l81 158h165z" />
    <glyph glyph-name="lacute" unicode="&#x13a;" horiz-adv-x="362" 
d="M73 710h168v-528q0 -51 35 -51q23 0 53 14l6 -133q-59 -22 -127 -22q-135 0 -135 150v570zM319 909l-107 -158h-139l81 158h165z" />
    <glyph glyph-name="Lcommaaccent" unicode="&#x13b;" horiz-adv-x="624" 
d="M600 0h-506v680h168v-534h338v-146zM284 -264l24 63q-59 14 -59 70q0 35 23 55.5t58 20.5q97 0 97 -89q0 -65 -65 -148z" />
    <glyph glyph-name="lcommaaccent" unicode="&#x13c;" horiz-adv-x="363" 
d="M73 710h168v-528q0 -51 35 -51q23 0 53 14l6 -133q-59 -22 -127 -22q-135 0 -135 150v570zM136 -264l24 63q-59 14 -59 70q0 35 23 55.5t58 20.5q97 0 97 -89q0 -65 -65 -148z" />
    <glyph glyph-name="Lcaron" unicode="&#x13d;" horiz-adv-x="630" 
d="M600 0h-506v680h168v-534h338v-146zM420 480l24 63q-59 14 -59 70q0 35 23 55.5t58 20.5q97 0 97 -89q0 -65 -65 -148z" />
    <glyph glyph-name="lcaron" unicode="&#x13e;" horiz-adv-x="417" 
d="M73 710h168v-528q0 -51 35 -51q23 0 53 14l6 -133q-59 -22 -127 -22q-135 0 -135 150v570zM326 480l24 63q-59 14 -59 70q0 35 23 55.5t58 20.5q97 0 97 -89q0 -65 -65 -148z" />
    <glyph glyph-name="Ldot" unicode="&#x13f;" horiz-adv-x="635" 
d="M600 0h-506v680h168v-534h338v-146zM363 399q0 46 26 71.5t73 25.5t73.5 -25.5t26.5 -71.5t-26.5 -70.5t-73.5 -24.5t-73 24.5t-26 70.5z" />
    <glyph glyph-name="ldot" unicode="&#x140;" horiz-adv-x="470" 
d="M73 710h168v-528q0 -51 35 -51q23 0 53 14l6 -133q-59 -22 -127 -22q-135 0 -135 150v570zM299 399q0 46 26 71.5t73 25.5t73.5 -25.5t26.5 -71.5t-26.5 -70.5t-73.5 -24.5t-73 24.5t-26 70.5z" />
    <glyph glyph-name="Lslash" unicode="&#x141;" horiz-adv-x="626" 
d="M601 0h-506v245l-43 -21v131l43 21v304h168v-219l105 53v-132l-105 -53v-183h338v-146z" />
    <glyph glyph-name="lslash" unicode="&#x142;" horiz-adv-x="370" 
d="M247 710v-231l67 34v-131l-67 -35v-165q0 -51 36 -51q22 0 52 14l7 -133q-61 -22 -127 -22q-136 0 -136 150v121l-44 -22v132l44 22v317h168z" />
    <glyph glyph-name="Nacute" unicode="&#x143;" horiz-adv-x="844" 
d="M605 0l-343 413v-413h-168v680h146l342 -413v413h168v-680h-145zM596 898l-107 -158h-139l81 158h165z" />
    <glyph glyph-name="nacute" unicode="&#x144;" horiz-adv-x="703" 
d="M77 523h168v-58q64 67 159 67q96 0 144 -64t48 -167v-122q0 -48 32 -48q21 0 51 14l5 -133q-51 -22 -124 -22q-65 0 -98.5 35t-33.5 113v135q0 50 -22.5 77t-65.5 27q-32 0 -57 -19.5t-38 -45.5v-312h-168v523zM517 741l-107 -158h-139l81 158h165z" />
    <glyph glyph-name="Ncommaaccent" unicode="&#x145;" horiz-adv-x="844" 
d="M605 0l-343 413v-413h-168v680h146l342 -413v413h168v-680h-145zM357 -264l24 63q-59 14 -59 70q0 35 23 55.5t58 20.5q97 0 97 -89q0 -65 -65 -148z" />
    <glyph glyph-name="ncommaaccent" unicode="&#x146;" horiz-adv-x="703" 
d="M77 523h168v-58q64 67 159 67q96 0 144 -64t48 -167v-122q0 -48 32 -48q21 0 51 14l5 -133q-51 -22 -124 -22q-65 0 -98.5 35t-33.5 113v135q0 50 -22.5 77t-65.5 27q-32 0 -57 -19.5t-38 -45.5v-312h-168v523zM296 -264l24 63q-59 14 -59 70q0 35 23 55.5t58 20.5
q97 0 97 -89q0 -65 -65 -148z" />
    <glyph glyph-name="Ncaron" unicode="&#x147;" horiz-adv-x="844" 
d="M605 0l-343 413v-413h-168v680h146l342 -413v413h168v-680h-145zM366 898l59 -77l59 77h123l-101 -158h-162l-102 158h124z" />
    <glyph glyph-name="ncaron" unicode="&#x148;" horiz-adv-x="703" 
d="M77 523h168v-58q64 67 159 67q96 0 144 -64t48 -167v-122q0 -48 32 -48q21 0 51 14l5 -133q-51 -22 -124 -22q-65 0 -98.5 35t-33.5 113v135q0 50 -22.5 77t-65.5 27q-32 0 -57 -19.5t-38 -45.5v-312h-168v523zM281 741l59 -77l59 77h123l-101 -158h-162l-102 158h124z
" />
    <glyph glyph-name="napostrophe" unicode="&#x149;" horiz-adv-x="805" 
d="M179 523h168v-58q64 67 159 67q96 0 144 -64t48 -167v-122q0 -48 32 -48q21 0 51 14l5 -133q-51 -22 -124 -22q-65 0 -98.5 35t-33.5 113v135q0 50 -22.5 77t-65.5 27q-32 0 -57 -19.5t-38 -45.5v-312h-168v523z" />
    <glyph glyph-name="Eng" unicode="&#x14a;" horiz-adv-x="844" 
d="M582 47l-320 366v-413h-168v680h146l342 -406v406h168v-619q0 -173 -147 -255l-101 95q80 55 80 146z" />
    <glyph glyph-name="eng" unicode="&#x14b;" horiz-adv-x="667" 
d="M428 47v226q0 50 -22.5 77t-65.5 27q-32 0 -57 -19.5t-38 -45.5v-312h-168v523h168v-58q64 67 159 67q96 0 144 -64t48 -167v-240q0 -173 -148 -255l-100 95q80 55 80 146z" />
    <glyph glyph-name="Omacron" unicode="&#x14c;" horiz-adv-x="807" 
d="M53 339q0 151 100 251t249 100q151 0 251 -100t100 -251q0 -149 -100 -249t-251 -100q-149 0 -249 100t-100 249zM218 339q0 -81 52.5 -136t132.5 -55q82 0 133.5 54.5t51.5 136.5q0 83 -51.5 137.5t-133.5 54.5q-80 0 -132.5 -54.5t-52.5 -137.5zM532 762h-261v104h261
v-104z" />
    <glyph glyph-name="omacron" unicode="&#x14d;" horiz-adv-x="650" 
d="M43 260q0 119 80 198t201 79q123 0 203 -78.5t80 -198.5q0 -118 -80 -196t-203 -78q-121 0 -201 78t-80 196zM205 260q0 -51 33.5 -86.5t85.5 -35.5q54 0 87.5 35.5t33.5 86.5q0 53 -33.5 88.5t-87.5 35.5q-52 0 -85.5 -35.5t-33.5 -88.5zM454 605h-261v104h261v-104z
" />
    <glyph glyph-name="Obreve" unicode="&#x14e;" horiz-adv-x="807" 
d="M53 339q0 151 100 251t249 100q151 0 251 -100t100 -251q0 -149 -100 -249t-251 -100q-149 0 -249 100t-100 249zM218 339q0 -81 52.5 -136t132.5 -55q82 0 133.5 54.5t51.5 136.5q0 83 -51.5 137.5t-133.5 54.5q-80 0 -132.5 -54.5t-52.5 -137.5zM249 829l40 60
q40 -46 113 -46t113 46l40 -60q-48 -86 -152 -86t-154 86z" />
    <glyph glyph-name="obreve" unicode="&#x14f;" horiz-adv-x="650" 
d="M43 260q0 119 80 198t201 79q123 0 203 -78.5t80 -198.5q0 -118 -80 -196t-203 -78q-121 0 -201 78t-80 196zM205 260q0 -51 33.5 -86.5t85.5 -35.5q54 0 87.5 35.5t33.5 86.5q0 53 -33.5 88.5t-87.5 35.5q-52 0 -85.5 -35.5t-33.5 -88.5zM171 672l40 60q40 -46 113 -46
t113 46l40 -60q-48 -86 -152 -86t-154 86z" />
    <glyph glyph-name="Ohungarumlaut" unicode="&#x150;" horiz-adv-x="807" 
d="M53 339q0 151 100 251t249 100q151 0 251 -100t100 -251q0 -149 -100 -249t-251 -100q-149 0 -249 100t-100 249zM218 339q0 -81 52.5 -136t132.5 -55q82 0 133.5 54.5t51.5 136.5q0 83 -51.5 137.5t-133.5 54.5q-80 0 -132.5 -54.5t-52.5 -137.5zM479 898l-108 -158
h-138l80 158h166zM698 898l-106 -158h-139l81 158h164z" />
    <glyph glyph-name="ohungarumlaut" unicode="&#x151;" horiz-adv-x="650" 
d="M43 260q0 119 80 198t201 79q123 0 203 -78.5t80 -198.5q0 -118 -80 -196t-203 -78q-121 0 -201 78t-80 196zM205 260q0 -51 33.5 -86.5t85.5 -35.5q54 0 87.5 35.5t33.5 86.5q0 53 -33.5 88.5t-87.5 35.5q-52 0 -85.5 -35.5t-33.5 -88.5zM387 741l-108 -158h-138l80 158
h166zM606 741l-106 -158h-139l81 158h164z" />
    <glyph glyph-name="OE" unicode="&#x152;" horiz-adv-x="1160" 
d="M555 0v34q-74 -45 -156 -45q-149 0 -247.5 99.5t-98.5 249.5q0 151 98.5 251t247.5 100q86 0 156 -43v34h546v-147h-385v-119h312v-135h-312v-133h385v-146h-546zM216 338q0 -82 54.5 -137t139.5 -55q91 0 145 56v275q-57 55 -147 55q-84 0 -138 -55.5t-54 -138.5z" />
    <glyph glyph-name="oe" unicode="&#x153;" horiz-adv-x="1043" 
d="M985 219h-338q6 -49 38 -74.5t100 -25.5q36 0 77 15t67 35l62 -112q-87 -71 -222 -71q-160 0 -229 104q-72 -104 -216 -104q-121 0 -201 78t-80 196q0 119 80 198t201 79q71 0 128 -29.5t91 -80.5q33 51 89 80.5t128 29.5q114 0 174.5 -62.5t60.5 -156.5q0 -68 -10 -99z
M205 260q0 -51 33.5 -86.5t85.5 -35.5q54 0 87.5 35.5t33.5 86.5q0 53 -33.5 88.5t-87.5 35.5q-52 0 -85.5 -35.5t-33.5 -88.5zM755 409q-43 0 -71.5 -23t-34.5 -62h204v16q-2 34 -29.5 51.5t-68.5 17.5z" />
    <glyph glyph-name="Racute" unicode="&#x154;" horiz-adv-x="783" 
d="M94 0v680h323q70 0 127 -22t95.5 -74t38.5 -128q0 -79 -49.5 -134t-128.5 -71q4 -4 13 -12q38 -35 58.5 -52.5t53 -34.5t59.5 -17q42 0 72 13l16 -132q-52 -26 -115 -26q-54 0 -110 32t-94 71.5t-83.5 86.5t-71.5 65h-36v-245h-168zM414 534h-152v-168h152q41 0 65.5 23
t24.5 61q0 39 -24.5 61.5t-65.5 22.5zM516 898l-107 -158h-139l81 158h165z" />
    <glyph glyph-name="racute" unicode="&#x155;" horiz-adv-x="513" 
d="M118 0v343q0 48 -32 48q-29 0 -51 -13l-5 132q2 3 19 8t47 9.5t58 4.5q96 0 122 -77q41 77 127 77q33 0 61 -9t32 -16l-21 -153q-5 6 -35.5 14.5t-64.5 8.5q-79 0 -89 -104v-273h-168zM417 741l-107 -158h-139l81 158h165z" />
    <glyph glyph-name="Rcommaaccent" unicode="&#x156;" horiz-adv-x="783" 
d="M94 0v680h323q70 0 127 -22t95.5 -74t38.5 -128q0 -79 -49.5 -134t-128.5 -71q4 -4 13 -12q38 -35 58.5 -52.5t53 -34.5t59.5 -17q42 0 72 13l16 -132q-52 -26 -115 -26q-54 0 -110 32t-94 71.5t-83.5 86.5t-71.5 65h-36v-245h-168zM414 534h-152v-168h152q41 0 65.5 23
t24.5 61q0 39 -24.5 61.5t-65.5 22.5zM327 -264l24 63q-59 14 -59 70q0 35 23 55.5t58 20.5q97 0 97 -89q0 -65 -65 -148z" />
    <glyph glyph-name="rcommaaccent" unicode="&#x157;" horiz-adv-x="513" 
d="M118 0v343q0 48 -32 48q-29 0 -51 -13l-5 132q2 3 19 8t47 9.5t58 4.5q96 0 122 -77q41 77 127 77q33 0 61 -9t32 -16l-21 -153q-5 6 -35.5 14.5t-64.5 8.5q-79 0 -89 -104v-273h-168zM139 -264l24 63q-59 14 -59 70q0 35 23 55.5t58 20.5q97 0 97 -89q0 -65 -65 -148z
" />
    <glyph glyph-name="Rcaron" unicode="&#x158;" horiz-adv-x="783" 
d="M94 0v680h323q70 0 127 -22t95.5 -74t38.5 -128q0 -79 -49.5 -134t-128.5 -71q4 -4 13 -12q38 -35 58.5 -52.5t53 -34.5t59.5 -17q42 0 72 13l16 -132q-52 -26 -115 -26q-54 0 -110 32t-94 71.5t-83.5 86.5t-71.5 65h-36v-245h-168zM414 534h-152v-168h152q41 0 65.5 23
t24.5 61q0 39 -24.5 61.5t-65.5 22.5zM284 898l59 -77l59 77h123l-101 -158h-162l-102 158h124z" />
    <glyph glyph-name="rcaron" unicode="&#x159;" horiz-adv-x="513" 
d="M118 0v343q0 48 -32 48q-29 0 -51 -13l-5 132q2 3 19 8t47 9.5t58 4.5q96 0 122 -77q41 77 127 77q33 0 61 -9t32 -16l-21 -153q-5 6 -35.5 14.5t-64.5 8.5q-79 0 -89 -104v-273h-168zM201 741l59 -77l59 77h123l-101 -158h-162l-102 158h124z" />
    <glyph glyph-name="Sacute" unicode="&#x15a;" horiz-adv-x="645" 
d="M340 259l-127 34q-157 43 -157 184q0 93 72 152.5t206 59.5q69 0 136 -15.5t110 -38.5l-48 -149q-40 26 -96.5 42.5t-108.5 16.5q-100 0 -100 -56q0 -21 14.5 -32.5t47.5 -21.5l120 -36q94 -28 138 -73t44 -115q0 -99 -76.5 -160t-203.5 -61q-69 0 -137 18.5t-107 40.5
l39 152q41 -28 97.5 -47.5t110.5 -19.5q50 0 77.5 18t27.5 47q0 21 -19.5 35t-59.5 25zM504 898l-107 -158h-139l81 158h165z" />
    <glyph glyph-name="sacute" unicode="&#x15b;" horiz-adv-x="526" 
d="M479 494l-43 -134q-79 42 -156 42q-63 0 -63 -35q0 -14 9.5 -21.5t33.5 -13.5l93 -25q68 -19 96.5 -55.5t28.5 -92.5q0 -77 -58 -123t-160 -46q-116 0 -206 45l31 131q94 -49 163 -49q62 0 62 31q0 21 -53 35l-83 23q-127 37 -127 151q0 79 64 127t173 48
q50 0 106.5 -11.5t88.5 -26.5zM426 741l-107 -158h-139l81 158h165z" />
    <glyph glyph-name="Scircumflex" unicode="&#x15c;" horiz-adv-x="645" 
d="M340 259l-127 34q-157 43 -157 184q0 93 72 152.5t206 59.5q69 0 136 -15.5t110 -38.5l-48 -149q-40 26 -96.5 42.5t-108.5 16.5q-100 0 -100 -56q0 -21 14.5 -32.5t47.5 -21.5l120 -36q94 -28 138 -73t44 -115q0 -99 -76.5 -160t-203.5 -61q-69 0 -137 18.5t-107 40.5
l39 152q41 -28 97.5 -47.5t110.5 -19.5q50 0 77.5 18t27.5 47q0 21 -19.5 35t-59.5 25zM384 740l-59 78l-59 -78h-124l102 158h162l101 -158h-123z" />
    <glyph glyph-name="scircumflex" unicode="&#x15d;" horiz-adv-x="526" 
d="M479 494l-43 -134q-79 42 -156 42q-63 0 -63 -35q0 -14 9.5 -21.5t33.5 -13.5l93 -25q68 -19 96.5 -55.5t28.5 -92.5q0 -77 -58 -123t-160 -46q-116 0 -206 45l31 131q94 -49 163 -49q62 0 62 31q0 21 -53 35l-83 23q-127 37 -127 151q0 79 64 127t173 48
q50 0 106.5 -11.5t88.5 -26.5zM327 583l-59 78l-59 -78h-124l102 158h162l101 -158h-123z" />
    <glyph glyph-name="Scedilla" unicode="&#x15e;" horiz-adv-x="646" 
d="M237 -97l27 89q-115 11 -196 57l39 152q41 -28 97.5 -47.5t110.5 -19.5q50 0 77.5 18t27.5 47q0 21 -19.5 35t-59.5 25l-127 34q-157 43 -157 184q0 93 72 152.5t206 59.5q69 0 136 -15.5t110 -38.5l-48 -149q-40 26 -96.5 42.5t-108.5 16.5q-100 0 -100 -56
q0 -21 14.5 -32.5t47.5 -21.5l120 -36q94 -28 138 -73t44 -115q0 -96 -71.5 -156.5t-191.5 -64.5l-13 -43q12 2 23 2q42 0 65 -18.5t23 -49.5q0 -37 -33 -58t-85 -21q-44 0 -81 11l14 52q37 -11 62 -11q49 0 49 24t-49 24q-41 0 -63 -5z" />
    <glyph glyph-name="scedilla" unicode="&#x15f;" horiz-adv-x="528" 
d="M183 -97l27 90q-89 9 -155 42l31 131q94 -49 163 -49q62 0 62 31q0 21 -53 35l-83 23q-127 37 -127 151q0 79 64 127t173 48q50 0 106.5 -11.5t88.5 -26.5l-43 -134q-79 42 -156 42q-63 0 -63 -35q0 -14 9.5 -21.5t33.5 -13.5l93 -25q68 -19 96.5 -55.5t28.5 -92.5
q0 -74 -54 -119.5t-150 -49.5l-13 -43q12 2 23 2q42 0 65 -18.5t23 -49.5q0 -37 -33 -58t-85 -21q-44 0 -81 11l14 52q37 -11 62 -11q49 0 49 24t-49 24q-41 0 -63 -5z" />
    <glyph glyph-name="Scaron" unicode="&#x160;" horiz-adv-x="645" 
d="M340 259l-127 34q-157 43 -157 184q0 93 72 152.5t206 59.5q69 0 136 -15.5t110 -38.5l-48 -149q-40 26 -96.5 42.5t-108.5 16.5q-100 0 -100 -56q0 -21 14.5 -32.5t47.5 -21.5l120 -36q94 -28 138 -73t44 -115q0 -99 -76.5 -160t-203.5 -61q-69 0 -137 18.5t-107 40.5
l39 152q41 -28 97.5 -47.5t110.5 -19.5q50 0 77.5 18t27.5 47q0 21 -19.5 35t-59.5 25zM261 898l59 -77l59 77h123l-101 -158h-162l-102 158h124z" />
    <glyph glyph-name="scaron" unicode="&#x161;" horiz-adv-x="526" 
d="M479 494l-43 -134q-79 42 -156 42q-63 0 -63 -35q0 -14 9.5 -21.5t33.5 -13.5l93 -25q68 -19 96.5 -55.5t28.5 -92.5q0 -77 -58 -123t-160 -46q-116 0 -206 45l31 131q94 -49 163 -49q62 0 62 31q0 21 -53 35l-83 23q-127 37 -127 151q0 79 64 127t173 48
q50 0 106.5 -11.5t88.5 -26.5zM208 741l59 -77l59 77h123l-101 -158h-162l-102 158h124z" />
    <glyph glyph-name="Tcommaaccent" unicode="&#x162;" horiz-adv-x="646" 
d="M613 512h-203v-512h-61l-18 -53q14 2 24 2q42 0 65 -18.5t23 -49.5q0 -37 -33 -58t-86 -21q-43 0 -80 11l14 52q37 -11 61 -11q50 0 50 24t-50 24q-40 0 -62 -5l-5 6l31 97h-41v512h-209v168h580v-168z" />
    <glyph glyph-name="tcommaaccent" unicode="&#x163;" horiz-adv-x="524" 
d="M214 -97l28 93q-59 14 -91 61.5t-32 124.5v211h-89v130h94l21 133h142v-133h181v-130h-181v-182q0 -75 62 -75q49 0 98 35l51 -128q-81 -50 -192 -53l-13 -43q12 2 23 2q42 0 65 -18.5t23 -49.5q0 -37 -33 -58t-85 -21q-44 0 -81 11l14 52q37 -11 62 -11q49 0 49 24
t-49 24q-41 0 -63 -5z" />
    <glyph glyph-name="Tcaron" unicode="&#x164;" horiz-adv-x="646" 
d="M613 512h-203v-512h-168v512h-209v168h580v-168zM266 898l59 -77l59 77h123l-101 -158h-162l-102 158h124z" />
    <glyph glyph-name="tcaron" unicode="&#x165;" horiz-adv-x="571" 
d="M143 656h142v-133h181v-130h-181v-182q0 -75 62 -75q49 0 98 35l51 -128q-86 -53 -203 -53q-83 0 -129.5 49.5t-46.5 142.5v211h-89v130h94zM498 480l24 63q-59 14 -59 70q0 35 23 55.5t58 20.5q97 0 97 -89q0 -65 -65 -148z" />
    <glyph glyph-name="Tbar" unicode="&#x166;" horiz-adv-x="646" 
d="M613 512h-203v-153h93v-108h-93v-251h-168v251h-87v108h87v153h-209v168h580v-168z" />
    <glyph glyph-name="tbar" unicode="&#x167;" horiz-adv-x="522" 
d="M143 656h142v-133h181v-130h-181v-67h109v-101h-109v-14q0 -75 62 -75q49 0 98 35l51 -128q-86 -53 -203 -53q-83 0 -129.5 49.5t-46.5 142.5v43h-72v101h72v67h-89v130h94z" />
    <glyph glyph-name="Utilde" unicode="&#x168;" horiz-adv-x="806" 
d="M254 680v-377q0 -75 37.5 -116.5t109.5 -41.5q73 0 111.5 42t38.5 116v377h168v-388q0 -128 -84.5 -215.5t-233.5 -87.5t-232 83.5t-83 219.5v388h168zM254 751l-46 56q17 39 48.5 64.5t67.5 25.5q39 0 87.5 -29t68.5 -29q44 0 68 44l48 -55q-46 -90 -117 -90
q-35 0 -86 28.5t-68 28.5q-42 0 -71 -44z" />
    <glyph glyph-name="utilde" unicode="&#x169;" horiz-adv-x="708" 
d="M422 523h168v-344q0 -48 30 -48q21 0 51 14l6 -133q-48 -22 -125 -22q-90 0 -117 68q-60 -68 -172 -68q-97 0 -144.5 62.5t-47.5 168.5v302h168v-278q0 -54 19.5 -78t68.5 -24q62 0 95 51v329zM185 594l-46 56q17 39 48.5 64.5t67.5 25.5q39 0 87.5 -29t68.5 -29
q44 0 68 44l48 -55q-46 -90 -117 -90q-36 0 -86 28.5t-68 28.5q-42 0 -71 -44z" />
    <glyph glyph-name="Umacron" unicode="&#x16a;" horiz-adv-x="806" 
d="M254 680v-377q0 -75 37.5 -116.5t109.5 -41.5q73 0 111.5 42t38.5 116v377h168v-388q0 -128 -84.5 -215.5t-233.5 -87.5t-232 83.5t-83 219.5v388h168zM532 762h-261v104h261v-104z" />
    <glyph glyph-name="umacron" unicode="&#x16b;" horiz-adv-x="708" 
d="M422 523h168v-344q0 -48 30 -48q21 0 51 14l6 -133q-48 -22 -125 -22q-90 0 -117 68q-60 -68 -172 -68q-97 0 -144.5 62.5t-47.5 168.5v302h168v-278q0 -54 19.5 -78t68.5 -24q62 0 95 51v329zM463 605h-261v104h261v-104z" />
    <glyph glyph-name="Ubreve" unicode="&#x16c;" horiz-adv-x="806" 
d="M254 680v-377q0 -75 37.5 -116.5t109.5 -41.5q73 0 111.5 42t38.5 116v377h168v-388q0 -128 -84.5 -215.5t-233.5 -87.5t-232 83.5t-83 219.5v388h168zM249 829l40 60q40 -46 113 -46t113 46l40 -60q-48 -86 -152 -86t-154 86z" />
    <glyph glyph-name="ubreve" unicode="&#x16d;" horiz-adv-x="708" 
d="M422 523h168v-344q0 -48 30 -48q21 0 51 14l6 -133q-48 -22 -125 -22q-90 0 -117 68q-60 -68 -172 -68q-97 0 -144.5 62.5t-47.5 168.5v302h168v-278q0 -54 19.5 -78t68.5 -24q62 0 95 51v329zM179 672l40 60q40 -46 113 -46t113 46l40 -60q-48 -86 -152 -86t-154 86z
" />
    <glyph glyph-name="Uring" unicode="&#x16e;" horiz-adv-x="806" 
d="M254 680v-377q0 -75 37.5 -116.5t109.5 -41.5q73 0 111.5 42t38.5 116v377h168v-388q0 -128 -84.5 -215.5t-233.5 -87.5t-232 83.5t-83 219.5v388h168zM304 787q0 41 29 69.5t69 28.5t69 -28.5t29 -69.5t-29 -69.5t-69 -28.5t-69 28.5t-29 69.5zM364 787q0 -17 11 -27.5
t27 -10.5t26.5 11t10.5 27t-10.5 26.5t-26.5 10.5t-27 -10.5t-11 -26.5z" />
    <glyph glyph-name="uring" unicode="&#x16f;" horiz-adv-x="708" 
d="M422 523h168v-344q0 -48 30 -48q21 0 51 14l6 -133q-48 -22 -125 -22q-90 0 -117 68q-60 -68 -172 -68q-97 0 -144.5 62.5t-47.5 168.5v302h168v-278q0 -54 19.5 -78t68.5 -24q62 0 95 51v329zM232 670q0 40 29 69t69 29t69 -29t29 -69t-29 -69t-69 -29t-69 29t-29 69z
M292 670q0 -16 11 -27t27 -11t26.5 11t10.5 27t-10.5 26.5t-26.5 10.5t-27 -10.5t-11 -26.5z" />
    <glyph glyph-name="Uhungarumlaut" unicode="&#x170;" horiz-adv-x="806" 
d="M254 680v-377q0 -75 37.5 -116.5t109.5 -41.5q73 0 111.5 42t38.5 116v377h168v-388q0 -128 -84.5 -215.5t-233.5 -87.5t-232 83.5t-83 219.5v388h168zM462 898l-108 -158h-138l80 158h166zM681 898l-106 -158h-139l81 158h164z" />
    <glyph glyph-name="uhungarumlaut" unicode="&#x171;" horiz-adv-x="708" 
d="M422 523h168v-344q0 -48 30 -48q21 0 51 14l6 -133q-48 -22 -125 -22q-90 0 -117 68q-60 -68 -172 -68q-97 0 -144.5 62.5t-47.5 168.5v302h168v-278q0 -54 19.5 -78t68.5 -24q62 0 95 51v329zM399 741l-108 -158h-138l80 158h166zM618 741l-106 -158h-139l81 158h164z
" />
    <glyph glyph-name="Uogonek" unicode="&#x172;" horiz-adv-x="807" 
d="M255 680v-377q0 -75 38 -117.5t109 -42.5q73 0 111.5 43t38.5 117v377h168v-388q0 -110 -64 -192.5t-179 -103.5q-58 -18 -58 -62q0 -48 50 -48q25 0 52 19l16 -70q-37 -25 -93 -25q-46 0 -73.5 28t-27.5 73q0 48 40 78q-140 6 -218 89t-78 214v388h168z" />
    <glyph glyph-name="uogonek" unicode="&#x173;" horiz-adv-x="708" 
d="M422 523h168v-344q0 -48 30 -48q21 0 51 14l6 -133q-24 -11 -52 -15q-65 -21 -65 -63q0 -22 12.5 -35t36.5 -13q25 0 53 19l15 -70q-38 -25 -92 -25q-46 0 -74 28t-28 73q0 49 44 81q-69 8 -92 66q-60 -68 -172 -68q-97 0 -144.5 62.5t-47.5 168.5v302h168v-278
q0 -54 19.5 -78t68.5 -24q62 0 95 51v329z" />
    <glyph glyph-name="Wcircumflex" unicode="&#x174;" horiz-adv-x="1116" 
d="M661 0l-101 262l-108 -262h-183l-257 680h181l182 -492l112 273l-80 219h183l160 -464l173 464h184l-263 -680h-183zM617 740l-59 78l-59 -78h-124l102 158h162l101 -158h-123z" />
    <glyph glyph-name="wcircumflex" unicode="&#x175;" horiz-adv-x="988" 
d="M432 523h168v-279q0 -101 74 -101q44 0 67 32.5t23 87.5q0 115 -65 260h179q54 -142 54 -274q0 -118 -65 -188.5t-182 -70.5q-122 0 -174 88q-52 -88 -182 -88q-111 0 -166.5 61t-55.5 171v121q0 48 -32 48q-34 0 -51 -14l-5 134q63 21 129 21q127 0 127 -145v-140
q0 -54 17.5 -79t56.5 -25q83 0 83 111v269zM572 583l-59 78l-59 -78h-124l102 158h162l101 -158h-123z" />
    <glyph glyph-name="Ycircumflex" unicode="&#x176;" horiz-adv-x="693" 
d="M262 0v262l-259 406v12h188l155 -263l156 263h187v-12l-259 -405v-263h-168zM404 740l-59 78l-59 -78h-124l102 158h162l101 -158h-123z" />
    <glyph glyph-name="ycircumflex" unicode="&#x177;" horiz-adv-x="605" 
d="M4 523h186l119 -340l120 340h169l-208 -516q-44 -111 -95 -158t-141 -47q-68 0 -120 35l24 128q52 -27 93 -27q30 0 46.5 14t30.5 44l9 21zM367 583l-59 78l-59 -78h-124l102 158h162l101 -158h-123z" />
    <glyph glyph-name="Ydieresis" unicode="&#x178;" horiz-adv-x="693" 
d="M262 0v262l-259 406v12h188l155 -263l156 263h187v-12l-259 -405v-263h-168zM132 825q0 72 85 72q84 0 84 -72q0 -71 -84 -71q-85 0 -85 71zM389 825q0 72 86 72q83 0 83 -72q0 -71 -83 -71q-86 0 -86 71z" />
    <glyph glyph-name="Zacute" unicode="&#x179;" horiz-adv-x="664" 
d="M62 116l324 418h-324v146h541v-116l-323 -418h323v-146h-541v116zM502 898l-107 -158h-139l81 158h165z" />
    <glyph glyph-name="zacute" unicode="&#x17a;" horiz-adv-x="542" 
d="M55 116l223 276h-223v131h432v-116l-220 -276h220v-131h-432v116zM440 741l-107 -158h-139l81 158h165z" />
    <glyph glyph-name="Zdotaccent" unicode="&#x17b;" horiz-adv-x="664" 
d="M62 116l324 418h-324v146h541v-116l-323 -418h323v-146h-541v116zM249 827q0 76 92 76q90 0 90 -76t-90 -76q-92 0 -92 76z" />
    <glyph glyph-name="zdotaccent" unicode="&#x17c;" horiz-adv-x="542" 
d="M55 116l223 276h-223v131h432v-116l-220 -276h220v-131h-432v116zM190 670q0 76 92 76q90 0 90 -76t-90 -76q-92 0 -92 76z" />
    <glyph glyph-name="Zcaron" unicode="&#x17d;" horiz-adv-x="664" 
d="M62 116l324 418h-324v146h541v-116l-323 -418h323v-146h-541v116zM278 898l59 -77l59 77h123l-101 -158h-162l-102 158h124z" />
    <glyph glyph-name="zcaron" unicode="&#x17e;" horiz-adv-x="542" 
d="M55 116l223 276h-223v131h432v-116l-220 -276h220v-131h-432v116zM213 741l59 -77l59 77h123l-101 -158h-162l-102 158h124z" />
    <glyph glyph-name="florin" unicode="&#x192;" horiz-adv-x="486" 
d="M443 307h-121v-322q0 -78 -44.5 -130.5t-128.5 -52.5q-32 0 -73 8t-64 18l23 132q40 -21 69 -21q50 0 50 48v320h-118v77h118v154q0 78 44.5 130t127.5 52q74 0 137 -26l-22 -134q-44 23 -70 23q-49 0 -49 -51v-148h121v-77z" />
    <glyph glyph-name="Aringacute" unicode="&#x1fa;" horiz-adv-x="739" 
d="M9 0l263 680h9q-8 18 -8 38q0 39 28 62t70 23t70 -23t28 -62q0 -22 -9 -38h9l258 -680h-170l-46 125h-285l-47 -125h-170zM371 514l-103 -266h201zM491 907l-72 -87h-100l53 87h119zM333 718q0 -29 38 -29q37 0 37 29q0 28 -37 28q-38 0 -38 -28z" />
    <glyph glyph-name="aringacute" unicode="&#x1fb;" horiz-adv-x="721" 
d="M471 842l-72 -87h-100l54 87h118zM253 653q0 39 28 62t70 23t70 -23t28 -62t-28 -62.5t-70 -23.5t-70 23.5t-28 62.5zM313 653q0 -29 38 -29q37 0 37 29q0 27 -37 27q-38 0 -38 -27zM603 523v-344q0 -48 32 -48q22 0 50 14l6 -133q-56 -22 -125 -22q-93 0 -119 75
q-62 -74 -160 -74q-107 0 -174 75.5t-67 193.5q0 120 67 196t174 76q96 0 148 -55v46h168zM435 174v174q-38 38 -100 38q-55 0 -86.5 -34t-31.5 -92q0 -56 32 -90t86 -34q57 0 100 38z" />
    <glyph glyph-name="AEacute" unicode="&#x1fc;" horiz-adv-x="1079" 
d="M474 0v125h-236l-69 -125h-178l378 680h651v-147h-385v-119h312v-135h-312v-133h385v-146h-546zM299 248h175v324zM846 898l-107 -158h-139l81 158h165z" />
    <glyph glyph-name="aeacute" unicode="&#x1fd;" horiz-adv-x="906" 
d="M848 219h-328q8 -100 131 -100q35 0 74.5 15t66.5 35l62 -112q-87 -71 -220 -71q-139 0 -198 79q-94 -80 -213 -80q-86 0 -135.5 44t-49.5 116q0 85 64.5 133.5t193.5 48.5q24 0 54 -2q0 42 -16.5 58t-57.5 16t-90 -11.5t-76 -26.5l-29 141q102 35 218 35q71 0 107 -19.5
t56 -54.5q59 74 165 74q115 0 173 -61.5t58 -156.5q0 -69 -10 -100zM627 409q-42 0 -69 -23.5t-30 -61.5h189v8q0 36 -22.5 56.5t-67.5 20.5zM206 160q0 -46 62 -46q45 0 81 30v70q-45 3 -55 3q-88 -7 -88 -57zM635 741l-107 -158h-139l81 158h165z" />
    <glyph glyph-name="Oslashacute" unicode="&#x1fe;" horiz-adv-x="807" 
d="M53 339q0 151 100 251t249 100q106 0 193 -54l36 44h100v-12l-70 -87q92 -100 92 -242q0 -149 -100 -249t-251 -100q-101 0 -183 48l-31 -38h-102v13l65 79q-98 100 -98 247zM216 339q0 -69 38 -120l239 292q-42 22 -91 22q-80 0 -133 -55.5t-53 -138.5zM590 339
q0 66 -34 114l-235 -289q36 -18 81 -18q82 0 135 55.5t53 137.5zM573 898l-107 -158h-139l81 158h165z" />
    <glyph glyph-name="oslashacute" unicode="&#x1ff;" horiz-adv-x="650" 
d="M43 260q0 119 80 198t201 79q88 0 160 -45l26 31h68v-12l-47 -57q76 -78 76 -194q0 -118 -80 -196t-203 -78q-82 0 -149 38l-20 -24h-71v13l41 49q-82 77 -82 198zM205 260q0 -43 23 -75l154 185q-26 14 -58 14q-52 0 -85.5 -35.5t-33.5 -88.5zM445 260q0 38 -19 68
l-150 -181q21 -9 48 -9q54 0 87.5 35.5t33.5 86.5zM495 741l-107 -158h-139l81 158h165z" />
    <glyph glyph-name="Scommaaccent" unicode="&#x218;" horiz-adv-x="645" 
d="M340 259l-127 34q-157 43 -157 184q0 93 72 152.5t206 59.5q69 0 136 -15.5t110 -38.5l-48 -149q-40 26 -96.5 42.5t-108.5 16.5q-100 0 -100 -56q0 -21 14.5 -32.5t47.5 -21.5l120 -36q94 -28 138 -73t44 -115q0 -99 -76.5 -160t-203.5 -61q-69 0 -137 18.5t-107 40.5
l39 152q41 -28 97.5 -47.5t110.5 -19.5q50 0 77.5 18t27.5 47q0 21 -19.5 35t-59.5 25zM260 -264l24 63q-59 14 -59 70q0 35 23 55.5t58 20.5q97 0 97 -89q0 -65 -65 -148z" />
    <glyph glyph-name="scommaaccent" unicode="&#x219;" horiz-adv-x="527" 
d="M479 494l-43 -134q-79 42 -156 42q-63 0 -63 -35q0 -14 9.5 -21.5t33.5 -13.5l93 -25q68 -19 96.5 -55.5t28.5 -92.5q0 -77 -58 -123t-160 -46q-116 0 -206 45l31 131q94 -49 163 -49q62 0 62 31q0 21 -53 35l-83 23q-127 37 -127 151q0 79 64 127t173 48
q50 0 106.5 -11.5t88.5 -26.5zM209 -264l24 63q-59 14 -59 70q0 35 23 55.5t58 20.5q97 0 97 -89q0 -65 -65 -148z" />
    <glyph glyph-name="uni021A" unicode="&#x21a;" horiz-adv-x="646" 
d="M613 512h-203v-512h-168v512h-209v168h580v-168zM263 -264l24 63q-59 14 -59 70q0 35 23 55.5t58 20.5q97 0 97 -89q0 -65 -65 -148z" />
    <glyph glyph-name="uni021B" unicode="&#x21b;" horiz-adv-x="521" 
d="M143 656h142v-133h181v-130h-181v-182q0 -75 62 -75q49 0 98 35l51 -128q-86 -53 -203 -53q-83 0 -129.5 49.5t-46.5 142.5v211h-89v130h94zM224 -264l24 63q-59 14 -59 70q0 35 23 55.5t58 20.5q97 0 97 -89q0 -65 -65 -148z" />
    <glyph glyph-name="dotlessj" unicode="&#x237;" horiz-adv-x="323" 
d="M78 523h168v-465q0 -173 -148 -255l-101 102q81 55 81 143v475z" />
    <glyph glyph-name="circumflex" unicode="&#x2c6;" 
d="M366 583l-59 78l-59 -78h-124l102 158h162l101 -158h-123z" />
    <glyph glyph-name="caron" unicode="&#x2c7;" 
d="M248 741l59 -77l59 77h123l-101 -158h-162l-102 158h124z" />
    <glyph glyph-name="breve" unicode="&#x2d8;" 
d="M154 672l40 60q40 -46 113 -46t113 46l40 -60q-48 -86 -152 -86t-154 86z" />
    <glyph glyph-name="dotaccent" unicode="&#x2d9;" 
d="M216 670q0 76 92 76q90 0 90 -76t-90 -76q-92 0 -92 76z" />
    <glyph glyph-name="ring" unicode="&#x2da;" 
d="M209 630q0 40 28.5 69t69.5 29t69.5 -29t28.5 -69t-28.5 -69t-69.5 -29t-69.5 29t-28.5 69zM269 630q0 -16 10.5 -27t27.5 -11q16 0 26.5 11t10.5 27t-10.5 26.5t-26.5 10.5t-27 -10.5t-11 -26.5z" />
    <glyph glyph-name="ogonek" unicode="&#x2db;" 
d="M279 8l83 -8q-37 -1 -59.5 -19t-22.5 -47q0 -22 12.5 -35t35.5 -13q26 0 53 19l16 -70q-39 -25 -92 -25q-47 0 -74.5 28t-27.5 73q0 36 22.5 62.5t53.5 34.5z" />
    <glyph glyph-name="tilde" unicode="&#x2dc;" 
d="M159 594l-46 56q17 39 48.5 64.5t67.5 25.5q39 0 87.5 -29t68.5 -29q44 0 68 44l48 -55q-46 -90 -117 -90q-36 0 -86 28.5t-68 28.5q-42 0 -71 -44z" />
    <glyph glyph-name="hungarumlaut" unicode="&#x2dd;" 
d="M320 741l-108 -158h-138l80 158h166zM539 741l-106 -158h-139l81 158h164z" />
    <glyph glyph-name="uni0394" unicode="&#x394;" horiz-adv-x="775" 
d="M29 0l263 680h197l257 -680h-717zM390 514l-149 -390h294z" />
    <glyph glyph-name="uni03A9" unicode="&#x3a9;" horiz-adv-x="826" 
d="M464 0v127q62 31 99 87t37 125q0 84 -51 139t-137 55q-85 0 -135.5 -55t-50.5 -139q0 -138 134 -212v-127h-278v130h103q-54 34 -88 98.5t-34 142.5q0 130 99 224.5t250 94.5q153 0 252 -94.5t99 -224.5q0 -78 -34 -142.5t-88 -98.5h102v-130h-279z" />
    <glyph glyph-name="uni03BC" unicode="&#x3bc;" horiz-adv-x="674" 
d="M245 523v-247q0 -75 18 -104t70 -29q62 0 95 49v331h168v-523h-168v45q-60 -55 -159 -55q-5 0 -12.5 0.5t-11.5 0.5v-179h-168v711h168z" />
    <glyph glyph-name="pi" unicode="&#x3c0;" horiz-adv-x="763" 
d="M32 523h685v-130h-106v-214q0 -48 31 -48q14 0 30.5 5.5t19.5 8.5l7 -133q-3 -3 -20 -7.5t-46.5 -9.5t-58.5 -5q-131 0 -131 148v255h-137v-393h-168v393h-106v130z" />
    <glyph glyph-name="Wgrave" unicode="&#x1e80;" horiz-adv-x="1116" 
d="M661 0l-101 262l-108 -262h-183l-257 680h181l182 -492l112 273l-80 219h183l160 -464l173 464h184l-263 -680h-183zM502 740l-107 158h165l81 -158h-139z" />
    <glyph glyph-name="wgrave" unicode="&#x1e81;" horiz-adv-x="988" 
d="M432 523h168v-279q0 -101 74 -101q44 0 67 32.5t23 87.5q0 115 -65 260h179q54 -142 54 -274q0 -118 -65 -188.5t-182 -70.5q-122 0 -174 88q-52 -88 -182 -88q-111 0 -166.5 61t-55.5 171v121q0 48 -32 48q-34 0 -51 -14l-5 134q63 21 129 21q127 0 127 -145v-140
q0 -54 17.5 -79t56.5 -25q83 0 83 111v269zM456 583l-107 158h165l81 -158h-139z" />
    <glyph glyph-name="Wacute" unicode="&#x1e82;" horiz-adv-x="1116" 
d="M661 0l-101 262l-108 -262h-183l-257 680h181l182 -492l112 273l-80 219h183l160 -464l173 464h184l-263 -680h-183zM725 898l-107 -158h-139l81 158h165z" />
    <glyph glyph-name="wacute" unicode="&#x1e83;" horiz-adv-x="988" 
d="M432 523h168v-279q0 -101 74 -101q44 0 67 32.5t23 87.5q0 115 -65 260h179q54 -142 54 -274q0 -118 -65 -188.5t-182 -70.5q-122 0 -174 88q-52 -88 -182 -88q-111 0 -166.5 61t-55.5 171v121q0 48 -32 48q-34 0 -51 -14l-5 134q63 21 129 21q127 0 127 -145v-140
q0 -54 17.5 -79t56.5 -25q83 0 83 111v269zM674 741l-107 -158h-139l81 158h165z" />
    <glyph glyph-name="Wdieresis" unicode="&#x1e84;" horiz-adv-x="1116" 
d="M661 0l-101 262l-108 -262h-183l-257 680h181l182 -492l112 273l-80 219h183l160 -464l173 464h184l-263 -680h-183zM345 825q0 72 85 72q84 0 84 -72q0 -71 -84 -71q-85 0 -85 71zM602 825q0 72 86 72q83 0 83 -72q0 -71 -83 -71q-86 0 -86 71z" />
    <glyph glyph-name="wdieresis" unicode="&#x1e85;" horiz-adv-x="988" 
d="M432 523h168v-279q0 -101 74 -101q44 0 67 32.5t23 87.5q0 115 -65 260h179q54 -142 54 -274q0 -118 -65 -188.5t-182 -70.5q-122 0 -174 88q-52 -88 -182 -88q-111 0 -166.5 61t-55.5 171v121q0 48 -32 48q-34 0 -51 -14l-5 134q63 21 129 21q127 0 127 -145v-140
q0 -54 17.5 -79t56.5 -25q83 0 83 111v269zM299 668q0 72 85 72q84 0 84 -72q0 -71 -84 -71q-85 0 -85 71zM556 668q0 72 86 72q83 0 83 -72q0 -71 -83 -71q-86 0 -86 71z" />
    <glyph glyph-name="Ygrave" unicode="&#x1ef2;" horiz-adv-x="693" 
d="M262 0v262l-259 406v12h188l155 -263l156 263h187v-12l-259 -405v-263h-168zM282 740l-107 158h165l81 -158h-139z" />
    <glyph glyph-name="ygrave" unicode="&#x1ef3;" horiz-adv-x="605" 
d="M4 523h186l119 -340l120 340h169l-208 -516q-44 -111 -95 -158t-141 -47q-68 0 -120 35l24 128q52 -27 93 -27q30 0 46.5 14t30.5 44l9 21zM245 583l-107 158h165l81 -158h-139z" />
    <glyph glyph-name="endash" unicode="&#x2013;" horiz-adv-x="649" 
d="M70 368h509v-131h-509v131z" />
    <glyph glyph-name="emdash" unicode="&#x2014;" horiz-adv-x="903" 
d="M70 368h763v-131h-763v131z" />
    <glyph glyph-name="quoteleft" unicode="&#x2018;" horiz-adv-x="303" 
d="M229 652l-42 -124q61 -20 61 -91q0 -47 -25.5 -72.5t-72.5 -25.5q-46 0 -72 26t-26 72q0 56 26 127.5t59 125.5z" />
    <glyph glyph-name="quoteright" unicode="&#x2019;" horiz-adv-x="300" 
d="M74 375l42 125q-60 18 -60 90q0 47 25.5 73t71.5 26t72.5 -26.5t26.5 -72.5q0 -56 -26 -127t-59 -125z" />
    <glyph glyph-name="quotesinglbase" unicode="&#x201a;" horiz-adv-x="310" 
d="M74 -136l42 125q-60 18 -60 90q0 47 25.5 73t71.5 26t72.5 -26.5t26.5 -72.5q0 -56 -26 -127t-59 -125z" />
    <glyph glyph-name="quotedblleft" unicode="&#x201c;" horiz-adv-x="512" 
d="M440 658l-38 -114q54 -15 54 -79q0 -41 -22.5 -64t-62.5 -23q-41 0 -63.5 23.5t-22.5 63.5q0 50 23 114t52 111zM210 658l-38 -114q53 -15 53 -79q0 -41 -22 -64t-63 -23q-40 0 -63 23.5t-23 63.5q0 49 23.5 113.5t51.5 111.5z" />
    <glyph glyph-name="quotedblright" unicode="&#x201d;" horiz-adv-x="508" 
d="M71 410l38 114q-53 15 -53 79q0 41 22 63.5t63 22.5q40 0 63 -23t23 -63q0 -50 -23.5 -115t-51.5 -110zM303 410l37 114q-54 15 -54 79q0 41 23 63.5t63 22.5t63 -23t23 -63q0 -49 -23.5 -113.5t-51.5 -111.5z" />
    <glyph glyph-name="quotedblbase" unicode="&#x201e;" horiz-adv-x="517" 
d="M73 -141l38 114q-54 13 -54 79q0 41 22.5 64t62.5 23q41 0 63.5 -23.5t22.5 -63.5q0 -50 -23.5 -114.5t-51.5 -110.5zM304 -141l38 114q-54 13 -54 79q0 41 22.5 64t63.5 23q40 0 62.5 -23.5t22.5 -63.5q0 -50 -23.5 -114t-51.5 -111z" />
    <glyph glyph-name="dagger" unicode="&#x2020;" horiz-adv-x="603" 
d="M571 338h-204v-526h-131v526h-203v131h203v241h131v-241h204v-131z" />
    <glyph glyph-name="daggerdbl" unicode="&#x2021;" horiz-adv-x="649" 
d="M593 38h-203v-226h-131v226h-204v131h204v169h-204v131h204v241h131v-241h203v-131h-203v-169h203v-131z" />
    <glyph glyph-name="bullet" unicode="&#x2022;" horiz-adv-x="385" 
d="M56 302q0 65 36 101.5t100 36.5q65 0 101 -36.5t36 -101.5q0 -66 -36 -102t-101 -36t-100.5 36t-35.5 102z" />
    <glyph glyph-name="ellipsis" unicode="&#x2026;" horiz-adv-x="845" 
d="M57 72q0 42 24 65t67 23t67 -23t24 -65t-24 -64.5t-67 -22.5q-44 0 -67.5 22.5t-23.5 64.5zM331 72q0 42 24 65t67 23t67 -23t24 -65t-24 -64.5t-67 -22.5q-44 0 -67.5 22.5t-23.5 64.5zM605 72q0 42 24 65t67 23t67 -23t24 -65t-24 -64.5t-67 -22.5q-44 0 -67.5 22.5
t-23.5 64.5z" />
    <glyph glyph-name="perthousand" unicode="&#x2030;" horiz-adv-x="1331" 
d="M915 175q0 80 54 133.5t136 53.5t136 -53.5t54 -133.5t-54 -132.5t-136 -52.5t-136 52.5t-54 132.5zM1031 175q0 -31 21 -53t53 -22t52.5 21.5t20.5 53.5t-20.5 54t-52.5 22t-53 -22t-21 -54zM501 175q0 80 54 133.5t135 53.5q82 0 136.5 -53.5t54.5 -133.5t-54.5 -132.5
t-136.5 -52.5t-135.5 52.5t-53.5 132.5zM616 175q0 -31 21 -53t53 -22t53 22t21 53q0 32 -21 54t-53 22t-53 -22t-21 -54zM220 13l357 667h113v-12l-355 -668h-115v13zM36 503q0 80 53.5 133.5t135.5 53.5t136.5 -53.5t54.5 -133.5t-54.5 -132.5t-136.5 -52.5t-135.5 52.5
t-53.5 132.5zM151 503q0 -31 21 -53t53 -22t53 22t21 53q0 32 -21 54t-53 22t-53 -22t-21 -54z" />
    <glyph glyph-name="guilsinglleft" unicode="&#x2039;" horiz-adv-x="336" 
d="M44 286v31l164 207h11l61 -29l-96 -193l96 -193l-61 -30h-11z" />
    <glyph glyph-name="guilsinglright" unicode="&#x203a;" horiz-adv-x="336" 
d="M291 317v-31l-162 -207h-12l-61 29l96 194l-97 192l62 30h12z" />
    <glyph glyph-name="fraction" unicode="&#x2044;" horiz-adv-x="180" 
d="M-138 13l369 667h88v-12l-368 -668h-89v13z" />
    <glyph glyph-name="zerosuperior" unicode="&#x2070;" horiz-adv-x="385" 
d="M38 611q0 84 39.5 131.5t114.5 47.5t115 -47t40 -132q0 -83 -40 -130.5t-115 -47.5t-114.5 47.5t-39.5 130.5zM126 611q0 -94 66 -94t66 94q0 96 -66 96t-66 -96z" />
    <glyph glyph-name="foursuperior" unicode="&#x2074;" horiz-adv-x="376" 
d="M348 497h-54v-59h-91v59h-181v59l150 228h122v-219h54v-68zM113 565h90v138z" />
    <glyph glyph-name="fivesuperior" unicode="&#x2075;" horiz-adv-x="339" 
d="M52 586l-3 4l16 194h226v-79h-149l-5 -52h20q146 0 146 -99q0 -60 -40.5 -90.5t-112.5 -30.5q-63 0 -120 22l22 75q45 -20 93 -20q65 0 65 42q0 34 -59 34h-99z" />
    <glyph glyph-name="sixsuperior" unicode="&#x2076;" horiz-adv-x="371" 
d="M210 713q-72 0 -80 -76q36 28 81 28q62 0 94 -28t32 -79q0 -57 -38.5 -91t-100.5 -34q-77 0 -119 48.5t-42 130.5t42 130t120 48q65 0 122 -24l-24 -74q-47 21 -87 21zM196 598q-32 0 -65 -20q12 -61 67 -61q22 0 35.5 12t13.5 29q0 40 -51 40z" />
    <glyph glyph-name="sevensuperior" unicode="&#x2077;" horiz-adv-x="311" 
d="M58 447l131 258h-163v79h265v-62l-133 -284h-100v9z" />
    <glyph glyph-name="eightsuperior" unicode="&#x2078;" horiz-adv-x="377" 
d="M188 433q-74 0 -112.5 27.5t-38.5 73.5q0 69 73 85q-28 7 -44.5 27t-16.5 45q0 99 139 99q140 0 140 -99q0 -25 -16.5 -45t-44.5 -27q73 -17 73 -85q0 -46 -39 -73.5t-113 -27.5zM188 587q-29 0 -43.5 -11t-14.5 -28q0 -18 15.5 -30t42.5 -12q28 0 43.5 12t15.5 30
q0 39 -59 39zM188 718q-48 0 -48 -35q0 -16 12 -26t36 -10q49 0 49 36q0 35 -49 35z" />
    <glyph glyph-name="ninesuperior" unicode="&#x2079;" horiz-adv-x="371" 
d="M161 510q71 0 79 74q-33 -27 -80 -27q-62 0 -94.5 28t-32.5 79q0 57 39 91.5t101 34.5q76 0 118.5 -48.5t42.5 -130.5q0 -81 -42.5 -129.5t-119.5 -48.5q-68 0 -122 24l24 75q37 -22 87 -22zM173 625q33 0 66 20q-12 62 -66 62q-23 0 -35.5 -12.5t-12.5 -30.5
q0 -39 48 -39z" />
    <glyph glyph-name="zeroinferior" unicode="&#x2080;" horiz-adv-x="385" 
d="M38 73q0 84 39.5 131.5t114.5 47.5t115 -47.5t40 -131.5t-40 -131t-115 -47t-114.5 47t-39.5 131zM126 73q0 -94 66 -94t66 94q0 95 -66 95t-66 -95z" />
    <glyph glyph-name="oneinferior" unicode="&#x2081;" horiz-adv-x="287" 
d="M11 159l152 87h67v-346h-92v242l-91 -51z" />
    <glyph glyph-name="twoinferior" unicode="&#x2082;" horiz-adv-x="356" 
d="M46 -100v68l128 96q43 31 43 65q0 17 -11.5 28t-31.5 11q-57 0 -57 -60l-82 16q2 59 38.5 93.5t101.5 34.5q67 0 101.5 -32.5t34.5 -87.5q0 -65 -74 -116l-53 -36h135v-80h-273z" />
    <glyph glyph-name="threeinferior" unicode="&#x2083;" horiz-adv-x="342" 
d="M77 113h76q48 0 48 31q0 30 -52 30q-45 0 -97 -19l-19 77q53 20 116 20q145 0 145 -99q0 -25 -16.5 -45t-44.5 -27q72 -18 72 -86q0 -47 -39.5 -73.5t-116.5 -26.5q-53 0 -116 20l23 75q44 -18 93 -18q29 0 45.5 10.5t16.5 27.5q0 30 -58 30h-76v73z" />
    <glyph glyph-name="fourinferior" unicode="&#x2084;" horiz-adv-x="376" 
d="M348 -41h-54v-59h-91v59h-181v59l150 228l31 -1v1h91v-220h54v-67zM113 26h90v138z" />
    <glyph glyph-name="fiveinferior" unicode="&#x2085;" horiz-adv-x="340" 
d="M53 48l-4 4l16 194h227v-79h-150l-4 -52h19q146 0 146 -100q0 -59 -40 -89.5t-112 -30.5q-64 0 -121 22l22 74q45 -19 93 -19q65 0 65 41q0 35 -58 35h-99z" />
    <glyph glyph-name="sixinferior" unicode="&#x2086;" horiz-adv-x="370" 
d="M210 174q-72 0 -80 -75q36 28 81 28q62 0 94 -28t32 -80q0 -56 -38.5 -90t-100.5 -34q-77 0 -119 48t-42 131q0 81 42 129.5t120 48.5q65 0 122 -24l-24 -75q-42 21 -87 21zM196 60q-32 0 -65 -20q12 -62 67 -62q22 0 35.5 12t13.5 29q0 41 -51 41z" />
    <glyph glyph-name="seveninferior" unicode="&#x2087;" horiz-adv-x="310" 
d="M58 -92l131 259h-163v79h265v-62l-133 -284h-100v8z" />
    <glyph glyph-name="eightinferior" unicode="&#x2088;" horiz-adv-x="377" 
d="M188 -105q-74 0 -112.5 27t-38.5 73q0 70 73 86q-28 7 -44.5 27t-16.5 45q0 99 139 99q140 0 140 -99q0 -25 -16.5 -45t-44.5 -27q73 -17 73 -86q0 -46 -38.5 -73t-113.5 -27zM188 49q-29 0 -43.5 -11.5t-14.5 -27.5q0 -18 15.5 -30.5t42.5 -12.5t43 12.5t16 30.5
q0 17 -14.5 28t-44.5 11zM188 180q-48 0 -48 -35q0 -16 12 -26t36 -10q49 0 49 36q0 35 -49 35z" />
    <glyph glyph-name="nineinferior" unicode="&#x2089;" horiz-adv-x="371" 
d="M161 -28q71 0 79 74q-33 -27 -80 -27q-62 0 -94.5 27.5t-32.5 79.5q0 57 39 91.5t101 34.5q76 0 118.5 -48.5t42.5 -130.5t-42.5 -130t-119.5 -48q-68 0 -122 24l24 74q40 -21 87 -21zM173 87q33 0 66 20q-12 61 -66 61q-23 0 -35.5 -12t-12.5 -30q0 -39 48 -39z" />
    <glyph glyph-name="Euro" unicode="&#x20ac;" 
d="M564 605l-59 -125q-54 57 -124 57q-96 0 -123 -107h224l-35 -76h-198v-15q0 -21 1 -30h178l-31 -76h-135q27 -90 114 -90q67 0 130 48l62 -138q-88 -63 -206 -63q-110 0 -181.5 63t-93.5 180h-55v76h47q-1 10 -1 30v15h-46v76h52q19 125 92.5 192.5t189.5 67.5
q113 0 198 -85z" />
    <glyph glyph-name="afii61289" unicode="&#x2113;" horiz-adv-x="439" 
d="M63 122l-30 54l78 54v258q0 102 44.5 151.5t121.5 49.5q130 0 130 -141q0 -101 -47 -188t-118 -148v-37q0 -43 15 -59t47 -16q28 0 65 21l-6 -111q-43 -20 -119 -20q-133 0 -133 136v28zM242 509v-216q95 95 95 257q0 66 -45 66q-50 0 -50 -107z" />
    <glyph glyph-name="uni2117" unicode="&#x2117;" horiz-adv-x="815" 
d="M57 339q0 151 100 251t249 100q151 0 251 -100t100 -251q0 -149 -100 -249t-251 -100q-149 0 -249 100t-100 249zM131 339q0 -120 78 -199.5t197 -79.5q121 0 199.5 79.5t78.5 199.5q0 121 -78.5 201t-199.5 80q-119 0 -197 -80t-78 -201zM288 169v340h176q54 0 90.5 -33
t36.5 -95q0 -57 -37 -91.5t-90 -34.5h-65v-86h-111zM448 416h-49v-68h49q14 0 23 9.5t9 24.5t-9 24.5t-23 9.5z" />
    <glyph glyph-name="trademark" unicode="&#x2122;" horiz-adv-x="851" 
d="M674 357v166l-82 -98h-15l-82 98v-166h-88v306h74l103 -121l104 121h74v-306h-88zM335 574h-86v-217h-89v217h-86v89h261v-89z" />
    <glyph glyph-name="Omega" unicode="&#x2126;" horiz-adv-x="826" 
d="M464 0v127q62 31 99 87t37 125q0 84 -51 139t-137 55q-85 0 -135.5 -55t-50.5 -139q0 -138 134 -212v-127h-278v130h103q-54 34 -88 98.5t-34 142.5q0 130 99 224.5t250 94.5q153 0 252 -94.5t99 -224.5q0 -78 -34 -142.5t-88 -98.5h102v-130h-279z" />
    <glyph glyph-name="estimated" unicode="&#x212e;" horiz-adv-x="672" 
d="M341 601q71 0 126 -25.5t87.5 -69.5t49 -98t16.5 -114v-26h-431v-169q58 -58 152 -58q130 0 184 104h66q-30 -73 -93 -115t-157 -42q-93 0 -157.5 45t-92.5 112.5t-28 148.5q0 82 28 149.5t92.5 112.5t157.5 45zM341 548q-96 0 -152 -58v-170h305v170q-56 58 -153 58z
" />
    <glyph glyph-name="onethird" unicode="&#x2153;" horiz-adv-x="837" 
d="M157 13l369 667h88v-12l-368 -668h-89v13zM30 594l151 86h67v-346h-92v243l-91 -51zM562 209h76q48 0 48 31q0 30 -52 30q-45 0 -97 -19l-19 77q52 20 116 20q145 0 145 -99q0 -25 -16.5 -45t-44.5 -27q72 -18 72 -86q0 -47 -39.5 -73.5t-116.5 -26.5q-53 0 -116 20
l23 75q44 -18 93 -18q29 0 45.5 10.5t16.5 27.5q0 30 -58 30h-76v73z" />
    <glyph glyph-name="twothirds" unicode="&#x2154;" horiz-adv-x="885" 
d="M213 13l369 667h88v-12l-368 -668h-89v13zM618 209h76q48 0 48 31q0 30 -52 30q-45 0 -97 -19l-19 77q52 20 116 20q145 0 145 -99q0 -25 -16.5 -45t-44.5 -27q72 -18 72 -86q0 -47 -39.5 -73.5t-116.5 -26.5q-53 0 -116 20l23 75q44 -18 93 -18q29 0 45.5 10.5
t16.5 27.5q0 30 -58 30h-76v73zM328 338h-273v68l128 96q43 32 43 65q0 17 -11.5 28.5t-31.5 11.5q-28 0 -42.5 -16.5t-14.5 -43.5l-82 15q2 60 38.5 94t101.5 34q67 0 101.5 -32.5t34.5 -86.5q0 -66 -74 -116l-53 -37h135v-80z" />
    <glyph glyph-name="oneeighth" unicode="&#x215b;" horiz-adv-x="837" 
d="M157 13l369 667h88v-12l-368 -668h-89v13zM638 -5q-74 0 -112.5 27t-38.5 73q0 70 73 86q-28 7 -44.5 27t-16.5 45q0 99 139 99q140 0 140 -99q0 -25 -16.5 -45t-44.5 -27q73 -17 73 -86q0 -46 -38.5 -73t-113.5 -27zM638 149q-29 0 -43.5 -11.5t-14.5 -27.5
q0 -18 15.5 -30.5t42.5 -12.5t43 12.5t16 30.5q0 17 -14.5 28t-44.5 11zM638 280q-48 0 -48 -35q0 -16 12 -26t36 -10q49 0 49 36q0 35 -49 35zM30 598l151 86h67v-346h-92v243l-91 -51z" />
    <glyph glyph-name="threeeighths" unicode="&#x215c;" horiz-adv-x="871" 
d="M199 13l369 667h88v-12l-368 -668h-89v13zM679 -5q-74 0 -112.5 27t-38.5 73q0 70 73 86q-28 7 -44.5 27t-16.5 45q0 99 139 99q140 0 140 -99q0 -25 -16.5 -45t-44.5 -27q73 -17 73 -86q0 -46 -38.5 -73t-113.5 -27zM679 149q-29 0 -43.5 -11.5t-14.5 -27.5
q0 -18 15.5 -30.5t42.5 -12.5t43 12.5t16 30.5q0 17 -14.5 28t-44.5 11zM679 280q-48 0 -48 -35q0 -16 12 -26t36 -10q49 0 49 36q0 35 -49 35zM87 551h76q48 0 48 31q0 30 -52 30q-50 0 -97 -19l-19 78q50 19 116 19q145 0 145 -99q0 -25 -16.5 -45t-44.5 -27
q72 -18 72 -85q0 -47 -39.5 -74t-116.5 -27q-53 0 -116 20l23 76q46 -19 93 -19q29 0 45.5 10.5t16.5 27.5q0 31 -58 31h-76v72z" />
    <glyph glyph-name="fiveeighths" unicode="&#x215d;" horiz-adv-x="867" 
d="M675 -5q-74 0 -112.5 27t-38.5 73q0 70 73 86q-28 7 -44.5 27t-16.5 45q0 99 139 99q140 0 140 -99q0 -25 -16.5 -45t-44.5 -27q73 -17 73 -86q0 -46 -38.5 -73t-113.5 -27zM195 13l369 667h88v-12l-368 -668h-89v13zM62 486l-3 4l16 194h226v-79h-149l-5 -52h20
q146 0 146 -99q0 -60 -40.5 -90.5t-112.5 -30.5q-63 0 -120 22l22 75q45 -20 93 -20q65 0 65 42q0 34 -59 34h-99zM675 149q-29 0 -43.5 -11.5t-14.5 -27.5q0 -18 15.5 -30.5t42.5 -12.5t43 12.5t16 30.5q0 17 -14.5 28t-44.5 11zM675 280q-48 0 -48 -35q0 -16 12 -26
t36 -10q49 0 49 36q0 35 -49 35z" />
    <glyph glyph-name="seveneighths" unicode="&#x215e;" horiz-adv-x="823" 
d="M150 13l369 667h88v-12l-368 -668h-89v13zM631 -5q-74 0 -112.5 27t-38.5 73q0 70 73 86q-28 7 -44.5 27t-16.5 45q0 99 139 99q140 0 140 -99q0 -25 -16.5 -45t-44.5 -27q73 -17 73 -86q0 -46 -38.5 -73t-113.5 -27zM631 149q-29 0 -43.5 -11.5t-14.5 -27.5
q0 -18 15.5 -30.5t42.5 -12.5t43 12.5t16 30.5q0 17 -14.5 28t-44.5 11zM631 280q-48 0 -48 -35q0 -16 12 -26t36 -10q49 0 49 36q0 35 -49 35zM68 347l131 258h-163v79h265v-62l-133 -284h-100v9z" />
    <glyph glyph-name="arrowleft" unicode="&#x2190;" horiz-adv-x="716" 
d="M269 356h388v-120h-387l133 -128l-79 -82l-265 272l262 269l82 -85z" />
    <glyph glyph-name="arrowup" unicode="&#x2191;" horiz-adv-x="716" 
d="M417 384v-387h-120v386l-128 -133l-82 80l272 264l269 -262l-85 -82z" />
    <glyph glyph-name="arrowright" unicode="&#x2192;" horiz-adv-x="716" 
d="M447 236h-388v120h387l-134 128l80 83l265 -273l-262 -268l-83 84z" />
    <glyph glyph-name="arrowdown" unicode="&#x2193;" horiz-adv-x="716" 
d="M297 206v388h120v-386l128 133l83 -79l-273 -265l-268 262l84 82z" />
    <glyph glyph-name="uni2196" unicode="&#x2196;" horiz-adv-x="716" 
d="M337 402l274 -275l-84 -85l-274 273l5 -184l-116 -2l5 380l376 5l-1 -119z" />
    <glyph glyph-name="uni2197" unicode="&#x2197;" horiz-adv-x="716" 
d="M463 316l-275 -274l-85 84l273 274l-184 -4q0 19 -0.5 57.5t-0.5 57.5l379 -5l5 -376l-118 2z" />
    <glyph glyph-name="uni2198" unicode="&#x2198;" horiz-adv-x="716" 
d="M379 191l-274 274l84 85l273 -273l-4 184l115 2l-5 -380l-376 -4l2 118z" />
    <glyph glyph-name="uni2199" unicode="&#x2199;" horiz-adv-x="716" 
d="M252 275l274 273l85 -83l-273 -274l184 4l2 -115l-380 5l-4 376l118 -2z" />
    <glyph glyph-name="partialdiff" unicode="&#x2202;" horiz-adv-x="626" 
d="M248 450q79 0 145 -52q-16 83 -70.5 138.5t-121.5 79.5l66 104q124 -22 212.5 -126t88.5 -253q0 -161 -74 -256t-210 -95q-109 0 -177.5 66.5t-68.5 178.5q0 94 56 154.5t154 60.5zM290 143q90 0 105 131q-54 46 -106 46q-39 0 -61.5 -23t-22.5 -64q0 -38 22.5 -64
t62.5 -26z" />
    <glyph glyph-name="Delta" unicode="&#x2206;" horiz-adv-x="775" 
d="M29 0l263 680h197l257 -680h-717zM390 514l-149 -390h294z" />
    <glyph glyph-name="product" unicode="&#x220f;" horiz-adv-x="753" 
d="M252 -188h-159v868h567v-868h-159v721h-249v-721z" />
    <glyph glyph-name="summation" unicode="&#x2211;" horiz-adv-x="584" 
d="M63 0v88l174 253l-176 254v85h458v-131h-256l137 -209l-136 -209h255v-131h-456z" />
    <glyph glyph-name="minus" unicode="&#x2212;" 
d="M57 368h486v-131h-486v131z" />
    <glyph glyph-name="uni2215" unicode="&#x2215;" horiz-adv-x="180" 
d="M-138 13l369 667h88v-12l-368 -668h-89v13z" />
    <glyph glyph-name="uni2219" unicode="&#x2219;" horiz-adv-x="322" 
d="M62 294q0 46 26 71.5t73 25.5t73.5 -25.5t26.5 -71.5t-26.5 -70.5t-73.5 -24.5t-73 24.5t-26 70.5z" />
    <glyph glyph-name="radical" unicode="&#x221a;" horiz-adv-x="662" 
d="M231 484l146 -298l170 528l90 -30l-225 -684h-106l-148 303l-93 -45l-55 110z" />
    <glyph glyph-name="infinity" unicode="&#x221e;" horiz-adv-x="827" 
d="M183 301q0 -30 17 -46.5t42 -16.5q24 0 58 31l34 32l-34 31q-34 31 -58 31q-25 0 -42 -16.5t-17 -45.5zM414 231l-43 -38q-39 -35 -72 -50.5t-76 -15.5q-65 0 -110.5 47.5t-45.5 126.5t45.5 126.5t110.5 47.5q43 0 77 -16t71 -50l42 -38l43 38q39 35 72 50.5t76 15.5
q65 0 110.5 -47.5t45.5 -126.5t-45.5 -126.5t-110.5 -47.5q-44 0 -76.5 15.5t-71.5 50.5zM642 301q0 30 -16 46t-41 16q-24 0 -58 -31l-34 -31l34 -32q34 -31 58 -31q25 0 41 16.5t16 46.5z" />
    <glyph glyph-name="integral" unicode="&#x222b;" horiz-adv-x="478" 
d="M156 -13v551q0 78 44.5 130t128.5 52q74 0 137 -26l-23 -134q-41 23 -69 23q-50 0 -50 -51v-547q0 -78 -44.5 -130.5t-127.5 -52.5q-32 0 -73 8t-64 18l23 132q38 -21 69 -21q49 0 49 48z" />
    <glyph glyph-name="approxequal" unicode="&#x2248;" 
d="M512 510l38 -99q-45 -69 -133 -69q-41 0 -119 23t-110 23q-68 0 -101 -38l-36 105q44 65 130 65q47 0 126 -23.5t105 -23.5q64 0 100 37zM511 245l37 -100q-45 -69 -133 -69q-41 0 -118.5 23.5t-110.5 23.5q-67 0 -101 -38l-36 104q44 65 131 65q46 0 125.5 -23
t104.5 -23q65 0 101 37z" />
    <glyph glyph-name="notequal" unicode="&#x2260;" 
d="M149 32l24 66h-116v131h163l54 147h-217v131h264l38 104l85 -30l-27 -74h126v-131h-174l-53 -147h227v-131h-275l-34 -95z" />
    <glyph glyph-name="lessequal" unicode="&#x2264;" 
d="M56 171h487v-131h-487v131zM56 352v128l475 149h12v-119l-333 -92l333 -89v-121h-12z" />
    <glyph glyph-name="greaterequal" unicode="&#x2265;" 
d="M57 171h486v-131h-486v131zM543 480v-128l-474 -144h-12v121l332 89l-332 92v119h12z" />
    <glyph glyph-name="lozenge" unicode="&#x25ca;" horiz-adv-x="590" 
d="M554 333l-208 -333h-104l-207 333l207 347h104zM414 332l-119 201l-119 -201l119 -191z" />
    <glyph glyph-name="uniF8FF" unicode="&#xf8ff;" horiz-adv-x="612" 
d="M50 720h512v-720h-512v720zM266 283h48q0 26 14 47t34 36t40 29.5t34 36t14 48.5q0 51 -36.5 85t-101.5 34q-39 0 -67 -14.5t-41.5 -37t-19 -43.5t-5.5 -41h47q0 40 21 66.5t65 26.5q41 0 64 -21.5t23 -54.5q0 -23 -21 -45t-45.5 -38t-45.5 -46t-21 -68zM255 194v-71h68
v71h-68z" />
    <glyph glyph-name="fi" unicode="&#xfb01;" horiz-adv-x="831" 
d="M38 371v130h90v29q0 82 47.5 136t139.5 54q73 0 136 -25l-29 -134q-40 22 -78 22q-48 0 -48 -54v-28h142v-130h-142v-371h-168v371h-90zM711 523v-344q0 -48 32 -48q14 0 30 5.5t19 8.5l7 -133q-2 -2 -19 -7t-47 -10t-59 -5q-131 0 -131 148v385h168zM536 670q0 76 92 76
q90 0 90 -76t-90 -76q-92 0 -92 76z" />
    <glyph glyph-name="fl" unicode="&#xfb02;" horiz-adv-x="829" 
d="M38 371v130h90v29q0 82 47.5 136t139.5 54q73 0 136 -25l-29 -134q-40 22 -78 22q-48 0 -48 -54v-28h142v-130h-142v-371h-168v371h-90zM539 710h168v-528q0 -51 35 -51q23 0 53 14l6 -133q-59 -22 -127 -22q-135 0 -135 150v570z" />
    <glyph glyph-name="Imacron" horiz-adv-x="355" 
d="M94 0v680h168v-680h-168zM308 762h-261v104h261v-104z" />
    <glyph glyph-name="ibreve" horiz-adv-x="363" 
d="M75 523h168v-344q0 -48 32 -48q14 0 30 5.5t19 8.5l7 -133q-2 -2 -19 -7t-47 -10t-59 -5q-131 0 -131 148v385zM7 672l40 60q40 -46 113 -46t113 46l40 -60q-48 -86 -152 -86t-154 86z" />
    <glyph glyph-name="commaaccent" 
d="M247 -264l24 63q-59 14 -59 70q0 35 23 55.5t58 20.5q97 0 97 -89q0 -65 -65 -148z" />
    <glyph glyph-name="commaaccent.alt" 
d="M351 762l-24 -64q60 -12 60 -70q0 -35 -23 -55t-59 -20q-97 0 -97 89q0 67 65 148z" />
    <glyph glyph-name="zero.tf" 
d="M29 339q0 164 69.5 257.5t199.5 93.5q132 0 202 -93t70 -258q0 -163 -70 -256t-202 -93q-129 0 -199 93t-70 256zM192 339q0 -195 106 -195q108 0 108 195q0 92 -24 145t-84 53q-106 0 -106 -198z" />
    <glyph glyph-name="one.tf" 
d="M563 0h-513v146h190v351l-146 -71l-57 133l248 121h123v-534h155v-146z" />
    <glyph glyph-name="two.tf" 
d="M558 0h-497v125l234 191q76 65 76 135q0 37 -20 61.5t-57 24.5q-51 0 -76 -33.5t-25 -90.5l-152 29q2 114 70 181t186 67q120 0 183 -62t63 -162q0 -66 -27.5 -121t-95.5 -110l-114 -89h252v-146z" />
    <glyph glyph-name="three.tf" 
d="M129 415h144q95 0 95 67q0 66 -105 66q-89 0 -188 -39l-37 142q105 39 224 39q276 0 276 -191q0 -51 -32 -90.5t-88 -53.5q69 -15 106.5 -57.5t37.5 -110.5q0 -92 -75.5 -144.5t-224.5 -52.5q-95 0 -222 40l40 139q90 -37 182 -37q60 0 93.5 21.5t33.5 59.5q0 36 -28 52
t-88 16h-144v134z" />
    <glyph glyph-name="four.tf" 
d="M573 120h-73v-120h-168v120h-306v108l249 452h225v-437h73v-123zM177 243h155v294z" />
    <glyph glyph-name="five.tf" 
d="M84 298l-7 7l32 375h427v-146h-286l-9 -113h42q274 0 274 -195q0 -117 -76.5 -176.5t-210.5 -59.5q-112 0 -228 43l41 138q88 -39 178 -39q57 0 90.5 23t33.5 67q0 76 -113 76h-188z" />
    <glyph glyph-name="six.tf" 
d="M535 642l-43 -137q-76 43 -152 43q-64 0 -95.5 -38t-38.5 -108q60 48 137 48q108 0 165 -56.5t57 -158.5q0 -112 -68.5 -178.5t-177.5 -66.5q-136 0 -210 94.5t-74 256.5q0 160 74.5 254.5t211.5 94.5q63 0 122 -15.5t92 -32.5zM311 320q-51 0 -104 -47q17 -130 104 -130
q41 0 64 26.5t23 65.5q0 42 -23 63.5t-64 21.5z" />
    <glyph glyph-name="seven.tf" 
d="M108 15l262 519h-328v146h515v-116l-264 -564h-185v15z" />
    <glyph glyph-name="eight.tf" 
d="M300 -10q-132 0 -199 52.5t-67 144.5q0 140 118 168q-46 12 -72 52t-26 92q0 191 246 191q245 0 245 -191q0 -52 -25 -92t-71 -52q61 -15 89 -56t28 -112q0 -92 -67 -144.5t-199 -52.5zM301 286q-48 0 -72.5 -21.5t-24.5 -55.5q0 -36 25.5 -58.5t70.5 -22.5t70.5 22.5
t25.5 58.5q0 34 -24 55.5t-71 21.5zM300 555q-79 0 -79 -68q0 -31 19.5 -50t60.5 -19q39 0 58 19t19 50q0 68 -78 68z" />
    <glyph glyph-name="nine.tf" 
d="M258 132q64 0 95 37t39 108q-61 -47 -136 -47q-108 0 -164.5 56t-56.5 159q0 112 68 178.5t177 66.5q136 0 210.5 -95t74.5 -256q0 -159 -75 -254t-211 -95q-65 0 -124 15.5t-92 32.5l44 137q76 -43 151 -43zM289 360q50 0 102 46q-19 131 -103 131q-38 0 -62 -26.5
t-24 -65.5q0 -42 23 -63.5t64 -21.5z" />
    <glyph glyph-name="Euro.tf" 
d="M564 605l-59 -125q-54 57 -124 57q-96 0 -123 -107h224l-35 -76h-198v-15q0 -21 1 -30h178l-31 -76h-135q27 -90 114 -90q67 0 130 48l62 -138q-88 -63 -206 -63q-110 0 -181.5 63t-93.5 180h-55v76h47q-1 10 -1 30v15h-46v76h52q19 125 92.5 192.5t189.5 67.5
q113 0 198 -85z" />
    <glyph glyph-name="cent.tf" 
d="M491 184l61 -126q-92 -72 -225 -72q-27 0 -53 3l-35 -127l-74 20l34 124q-79 30 -118 96.5t-39 157.5q0 121 76.5 199t200.5 78q5 0 13.5 -0.5t12.5 -0.5l31 110l75 -20l-29 -105q63 -22 98 -72.5t38 -119.5l-134 -28q-5 60 -40 85l-72 -259q10 -2 30 -2q77 0 149 59z
M200 266q0 -70 41 -108l68 245q-49 -4 -79 -41.5t-30 -95.5z" />
    <glyph glyph-name="sterling.tf" 
d="M467 307h-162q9 -61 9 -103q0 -15 -2 -41q3 -2 17.5 -11t21.5 -12.5t18.5 -8t20.5 -4.5q30 0 42.5 20.5t12.5 64.5v20h127q3 -27 3 -53q0 -88 -37 -138.5t-114 -50.5q-9 0 -17.5 1t-18 4.5t-16 5.5t-17 8t-15 8.5t-16.5 11t-15 10.5t-16.5 12t-15.5 12
q-25 -38 -56.5 -55.5t-83.5 -17.5q-53 0 -83 32.5t-30 82.5q0 48 29.5 77t76.5 29q21 0 44 -7q0 33 -19 103h-95v77h74q-13 61 -13 108q0 88 55 143t164 55q60 0 121 -22t93 -47l-47 -145q-23 19 -35.5 28.5t-40.5 21t-56 11.5q-43 0 -64.5 -23.5t-21.5 -63.5q0 -26 5 -66
h173v-77zM140 122q-15 0 -23.5 -8t-8.5 -20q0 -25 23 -25q27 0 36 45q-10 8 -27 8z" />
    <glyph glyph-name="florin.tf" horiz-adv-x="486" 
d="M443 307h-121v-322q0 -78 -44.5 -130.5t-128.5 -52.5q-32 0 -73 8t-64 18l23 132q40 -21 69 -21q50 0 50 48v320h-118v77h118v154q0 78 44.5 130t127.5 52q74 0 137 -26l-22 -134q-44 23 -70 23q-49 0 -49 -51v-148h121v-77z" />
    <glyph glyph-name="yen.tf" 
d="M521 115h-141v-115h-168v115h-141v76h141v54h-141v77h113l-163 346v12h172l103 -285l111 285h172v-12l-170 -346h112v-77h-141v-54h141v-76z" />
    <glyph glyph-name="dollar.tf" 
d="M265 -129v120q-128 6 -222 58l39 152q85 -57 183 -66v138l-75 20q-158 43 -158 184q0 84 60.5 142t172.5 68v82h72v-81q128 -6 219 -53l-48 -149q-73 47 -171 57v-130l48 -14q94 -28 138 -73t44 -115q0 -89 -62 -148t-168 -70v-122h-72zM203 489q0 -21 14.5 -32.5
t47.5 -21.5v107q-62 -10 -62 -53zM395 199q0 34 -58 53v-113q58 15 58 60z" />
    <glyph glyph-name="zero.denom" horiz-adv-x="385" 
d="M38 173q0 84 39.5 131.5t114.5 47.5t115 -47.5t40 -131.5t-40 -131t-115 -47t-114.5 47t-39.5 131zM126 173q0 -94 66 -94t66 94q0 95 -66 95t-66 -95z" />
    <glyph glyph-name="one.denom" horiz-adv-x="287" 
d="M11 259l152 87h67v-346h-92v242l-91 -51z" />
    <glyph glyph-name="two.denom" horiz-adv-x="356" 
d="M46 0v68l128 96q43 31 43 65q0 17 -11.5 28t-31.5 11q-57 0 -57 -60l-82 16q2 59 38.5 93.5t101.5 34.5q67 0 101.5 -32.5t34.5 -87.5q0 -65 -74 -116l-53 -36h135v-80h-273z" />
    <glyph glyph-name="three.denom" horiz-adv-x="342" 
d="M77 213h76q48 0 48 31q0 30 -52 30q-45 0 -97 -19l-19 77q52 20 116 20q145 0 145 -99q0 -25 -16.5 -45t-44.5 -27q72 -18 72 -86q0 -47 -39.5 -73.5t-116.5 -26.5q-53 0 -116 20l23 75q44 -18 93 -18q29 0 45.5 10.5t16.5 27.5q0 30 -58 30h-76v73z" />
    <glyph glyph-name="four.denom" horiz-adv-x="376" 
d="M348 59h-54v-59h-91v59h-181v59l150 228l31 -1v1h91v-220h54v-67zM113 126h90v138z" />
    <glyph glyph-name="five.denom" horiz-adv-x="340" 
d="M53 148l-4 4l16 194h227v-79h-150l-4 -52h19q146 0 146 -100q0 -59 -40 -89.5t-112 -30.5q-64 0 -121 22l22 74q45 -19 93 -19q65 0 65 41q0 35 -58 35h-99z" />
    <glyph glyph-name="six.denom" horiz-adv-x="371" 
d="M210 274q-72 0 -80 -75q36 28 81 28q62 0 94 -28t32 -80q0 -56 -38.5 -90t-100.5 -34q-77 0 -119 48t-42 131q0 81 42 129.5t120 48.5q65 0 122 -24l-24 -75q-42 21 -87 21zM196 160q-32 0 -65 -20q12 -62 67 -62q22 0 35.5 12t13.5 29q0 41 -51 41z" />
    <glyph glyph-name="seven.denom" horiz-adv-x="310" 
d="M58 8l131 259h-163v79h265v-62l-133 -284h-100v8z" />
    <glyph glyph-name="eight.denom" horiz-adv-x="377" 
d="M188 -5q-74 0 -112.5 27t-38.5 73q0 70 73 86q-28 7 -44.5 27t-16.5 45q0 99 139 99q140 0 140 -99q0 -25 -16.5 -45t-44.5 -27q73 -17 73 -86q0 -46 -38.5 -73t-113.5 -27zM188 149q-29 0 -43.5 -11.5t-14.5 -27.5q0 -18 15.5 -30.5t42.5 -12.5t43 12.5t16 30.5
q0 17 -14.5 28t-44.5 11zM188 280q-48 0 -48 -35q0 -16 12 -26t36 -10q49 0 49 36q0 35 -49 35z" />
    <glyph glyph-name="nine.denom" horiz-adv-x="371" 
d="M161 72q71 0 79 74q-33 -27 -80 -27q-62 0 -94.5 27.5t-32.5 79.5q0 57 39 91.5t101 34.5q76 0 118.5 -48.5t42.5 -130.5t-42.5 -130t-119.5 -48q-68 0 -122 24l24 74q40 -21 87 -21zM173 187q33 0 66 20q-12 61 -66 61q-23 0 -35.5 -12t-12.5 -30q0 -39 48 -39z" />
    <glyph glyph-name="zero.num" horiz-adv-x="385" 
d="M38 506q0 84 39.5 131.5t114.5 47.5t115 -47t40 -132q0 -83 -40 -130.5t-115 -47.5t-114.5 47.5t-39.5 130.5zM126 506q0 -94 66 -94t66 94q0 96 -66 96t-66 -96z" />
    <glyph glyph-name="one.num" horiz-adv-x="287" 
d="M11 594l151 86h67v-346h-92v243l-91 -51z" />
    <glyph glyph-name="two.num" horiz-adv-x="357" 
d="M319 333h-273v68l128 96q43 32 43 65q0 17 -11.5 28.5t-31.5 11.5q-28 0 -42.5 -16.5t-14.5 -43.5l-82 15q2 60 38.5 94t101.5 34q67 0 101.5 -32.5t34.5 -86.5q0 -66 -74 -116l-53 -37h135v-80z" />
    <glyph glyph-name="three.num" horiz-adv-x="343" 
d="M77 546h76q48 0 48 31q0 30 -52 30q-50 0 -97 -19l-19 78q50 19 116 19q145 0 145 -99q0 -25 -16.5 -45t-44.5 -27q72 -18 72 -85q0 -47 -39.5 -74t-116.5 -27q-53 0 -116 20l23 76q46 -19 93 -19q29 0 45.5 10.5t16.5 27.5q0 31 -58 31h-76v72z" />
    <glyph glyph-name="four.num" horiz-adv-x="376" 
d="M348 393h-54v-59h-91v59h-181v59l150 228h122v-219h54v-68zM113 461h90v138z" />
    <glyph glyph-name="five.num" horiz-adv-x="339" 
d="M52 482l-3 4l16 194h226v-79h-149l-5 -52h20q146 0 146 -99q0 -60 -40.5 -90.5t-112.5 -30.5q-63 0 -120 22l22 75q45 -20 93 -20q65 0 65 42q0 34 -59 34h-99z" />
    <glyph glyph-name="six.num" horiz-adv-x="370" 
d="M210 608q-72 0 -80 -76q36 28 81 28q62 0 94 -28t32 -79q0 -57 -38.5 -91t-100.5 -34q-77 0 -119 48.5t-42 130.5t42 130t120 48q65 0 122 -24l-24 -74q-47 21 -87 21zM196 493q-32 0 -65 -20q12 -61 67 -61q22 0 35.5 12t13.5 29q0 40 -51 40z" />
    <glyph glyph-name="seven.num" horiz-adv-x="311" 
d="M58 343l131 258h-163v79h265v-62l-133 -284h-100v9z" />
    <glyph glyph-name="eight.num" horiz-adv-x="377" 
d="M188 328q-74 0 -112.5 27.5t-38.5 73.5q0 69 73 85q-28 7 -44.5 27t-16.5 45q0 99 139 99q140 0 140 -99q0 -25 -16.5 -45t-44.5 -27q73 -17 73 -85q0 -46 -39 -73.5t-113 -27.5zM188 482q-29 0 -43.5 -11t-14.5 -28q0 -18 15.5 -30t42.5 -12q28 0 43.5 12t15.5 30
q0 39 -59 39zM188 613q-48 0 -48 -35q0 -16 12 -26t36 -10q49 0 49 36q0 35 -49 35z" />
    <glyph glyph-name="nine.num" horiz-adv-x="371" 
d="M161 405q71 0 79 74q-33 -27 -80 -27q-62 0 -94.5 28t-32.5 79q0 57 39 91.5t101 34.5q76 0 118.5 -48.5t42.5 -130.5q0 -81 -42.5 -129.5t-119.5 -48.5q-68 0 -122 24l24 75q37 -22 87 -22zM173 520q33 0 66 20q-12 62 -66 62q-23 0 -35.5 -12.5t-12.5 -30.5
q0 -39 48 -39z" />
    <glyph glyph-name="parenleft.case" horiz-adv-x="336" 
d="M303 744q-46 -71 -78.5 -175t-32.5 -228q0 -122 32.5 -226t78.5 -176l-93 -52q-60 55 -112.5 177.5t-52.5 277.5t52.5 277t112.5 177z" />
    <glyph glyph-name="parenright.case" horiz-adv-x="336" 
d="M32 744l94 52q60 -55 112 -176.5t52 -277.5t-52 -278t-112 -177l-94 52q46 71 79 175.5t33 226.5q0 124 -33 228.5t-79 174.5z" />
    <glyph glyph-name="hyphen.case" horiz-adv-x="552" 
d="M70 408h411v-131h-411v131z" />
    <glyph glyph-name="bracketleft.case" horiz-adv-x="373" 
d="M332 -108h-250v898h250v-131h-118v-636h118v-131z" />
    <glyph glyph-name="bracketright.case" horiz-adv-x="373" 
d="M41 790h249v-898h-249v131h118v636h-118v131z" />
    <glyph glyph-name="braceleft.case" horiz-adv-x="368" 
d="M319 790v-116h-40q-27 0 -40.5 -14.5t-13.5 -36.5q0 -23 23.5 -88.5t23.5 -101.5q0 -79 -87 -95q87 -16 87 -96q0 -36 -23.5 -101t-23.5 -89q0 -22 13.5 -36.5t40.5 -14.5h40v-116h-57q-168 0 -168 134q0 37 23.5 105.5t23.5 104.5q0 33 -24.5 47t-82.5 14v97
q56 0 81.5 17t25.5 53q0 34 -23.5 101t-23.5 105q0 127 168 127h57z" />
    <glyph glyph-name="bar.case" horiz-adv-x="296" 
d="M82 -108v898h132v-898h-132z" />
    <glyph glyph-name="braceright.case" horiz-adv-x="367" 
d="M48 790h57q169 0 169 -127q0 -38 -24 -105t-24 -101q0 -36 25 -53t82 -17v-97q-58 0 -82.5 -14t-24.5 -47q0 -36 24 -104.5t24 -105.5q0 -134 -169 -134h-57v116h41q27 0 40.5 14.5t13.5 36.5q0 24 -24 89t-24 101q0 80 88 96q-88 16 -88 95q0 36 24 101.5t24 88.5
q0 22 -13.5 36.5t-40.5 14.5h-41v116z" />
    <glyph glyph-name="guilsinglleft.case" horiz-adv-x="323" 
d="M35 326v31l164 207h11l61 -29l-96 -193l96 -193l-61 -30h-11z" />
    <glyph glyph-name="guilsinglright.case" horiz-adv-x="324" 
d="M287 357v-31l-162 -207h-12l-61 29l96 194l-97 192l62 30h12z" />
    <glyph glyph-name="guillemotleft.case" horiz-adv-x="566" 
d="M35 326v31l164 207h11l61 -29l-96 -193l96 -193l-61 -30h-11zM279 326v31l163 207h12l61 -29l-97 -193l97 -193l-61 -30h-12z" />
    <glyph glyph-name="guillemotright.case" horiz-adv-x="567" 
d="M287 357v-31l-162 -207h-12l-61 29l96 194l-97 192l62 30h12zM531 357v-31l-162 -207h-13l-60 29l96 194l-97 192l61 30h13z" />
    <glyph glyph-name="endash.case" horiz-adv-x="649" 
d="M70 408h509v-131h-509v131z" />
    <glyph glyph-name="emdash.case" horiz-adv-x="903" 
d="M70 408h763v-131h-763v131z" />
    <glyph glyph-name="bullet.case" horiz-adv-x="383" 
d="M55 342q0 65 36 101.5t100 36.5q65 0 101 -36.5t36 -101.5q0 -66 -36 -102t-101 -36t-100.5 36t-35.5 102z" />
    <glyph glyph-name="periodcentered.case" horiz-adv-x="321" 
d="M61 334q0 46 26 71.5t73 25.5t73.5 -25.5t26.5 -71.5t-26.5 -70.5t-73.5 -24.5t-73 24.5t-26 70.5z" />
    <glyph glyph-name="a.alt" horiz-adv-x="627" 
d="M109 356l-28 141q93 35 230 35q110 0 158.5 -46.5t48.5 -135.5v-171q0 -48 32 -48q21 0 51 14l5 -133q-51 -22 -125 -22q-84 0 -113 56q-65 -56 -155 -56q-85 0 -130 41.5t-45 113.5q0 89 70 136t206 47q12 0 36 -2v6q0 36 -18.5 48t-57.5 12q-37 0 -86 -11t-79 -25z
M207 162q0 -44 61 -44q45 0 82 29v67q-18 4 -42 4q-101 0 -101 -56z" />
    <glyph glyph-name="agrave.alt" horiz-adv-x="627" 
d="M109 356l-28 141q93 35 230 35q110 0 158.5 -46.5t48.5 -135.5v-171q0 -48 32 -48q21 0 51 14l5 -133q-51 -22 -125 -22q-84 0 -113 56q-65 -56 -155 -56q-85 0 -130 41.5t-45 113.5q0 89 70 136t206 47q12 0 36 -2v6q0 36 -18.5 48t-57.5 12q-37 0 -86 -11t-79 -25z
M207 162q0 -44 61 -44q45 0 82 29v67q-18 4 -42 4q-101 0 -101 -56zM255 583l-107 158h165l81 -158h-139z" />
    <glyph glyph-name="aacute.alt" horiz-adv-x="627" 
d="M109 356l-28 141q93 35 230 35q110 0 158.5 -46.5t48.5 -135.5v-171q0 -48 32 -48q21 0 51 14l5 -133q-51 -22 -125 -22q-84 0 -113 56q-65 -56 -155 -56q-85 0 -130 41.5t-45 113.5q0 89 70 136t206 47q12 0 36 -2v6q0 36 -18.5 48t-57.5 12q-37 0 -86 -11t-79 -25z
M207 162q0 -44 61 -44q45 0 82 29v67q-18 4 -42 4q-101 0 -101 -56zM468 741l-107 -158h-139l81 158h165z" />
    <glyph glyph-name="acircumflex.alt" horiz-adv-x="627" 
d="M109 356l-28 141q93 35 230 35q110 0 158.5 -46.5t48.5 -135.5v-171q0 -48 32 -48q21 0 51 14l5 -133q-51 -22 -125 -22q-84 0 -113 56q-65 -56 -155 -56q-85 0 -130 41.5t-45 113.5q0 89 70 136t206 47q12 0 36 -2v6q0 36 -18.5 48t-57.5 12q-37 0 -86 -11t-79 -25z
M207 162q0 -44 61 -44q45 0 82 29v67q-18 4 -42 4q-101 0 -101 -56zM370 583l-59 78l-59 -78h-124l102 158h162l101 -158h-123z" />
    <glyph glyph-name="atilde.alt" horiz-adv-x="627" 
d="M109 356l-28 141q93 35 230 35q110 0 158.5 -46.5t48.5 -135.5v-171q0 -48 32 -48q21 0 51 14l5 -133q-51 -22 -125 -22q-84 0 -113 56q-65 -56 -155 -56q-85 0 -130 41.5t-45 113.5q0 89 70 136t206 47q12 0 36 -2v6q0 36 -18.5 48t-57.5 12q-37 0 -86 -11t-79 -25z
M207 162q0 -44 61 -44q45 0 82 29v67q-18 4 -42 4q-101 0 -101 -56zM173 594l-46 56q17 39 48.5 64.5t67.5 25.5q39 0 87.5 -29t68.5 -29q44 0 68 44l48 -55q-46 -90 -117 -90q-36 0 -86 28.5t-68 28.5q-42 0 -71 -44z" />
    <glyph glyph-name="adieresis.alt" horiz-adv-x="627" 
d="M109 356l-28 141q93 35 230 35q110 0 158.5 -46.5t48.5 -135.5v-171q0 -48 32 -48q21 0 51 14l5 -133q-51 -22 -125 -22q-84 0 -113 56q-65 -56 -155 -56q-85 0 -130 41.5t-45 113.5q0 89 70 136t206 47q12 0 36 -2v6q0 36 -18.5 48t-57.5 12q-37 0 -86 -11t-79 -25z
M207 162q0 -44 61 -44q45 0 82 29v67q-18 4 -42 4q-101 0 -101 -56zM107 668q0 72 85 72q84 0 84 -72q0 -71 -84 -71q-85 0 -85 71zM364 668q0 72 86 72q83 0 83 -72q0 -71 -83 -71q-86 0 -86 71z" />
    <glyph glyph-name="amacron.alt" horiz-adv-x="627" 
d="M109 356l-28 141q93 35 230 35q110 0 158.5 -46.5t48.5 -135.5v-171q0 -48 32 -48q21 0 51 14l5 -133q-51 -22 -125 -22q-84 0 -113 56q-65 -56 -155 -56q-85 0 -130 41.5t-45 113.5q0 89 70 136t206 47q12 0 36 -2v6q0 36 -18.5 48t-57.5 12q-37 0 -86 -11t-79 -25z
M207 162q0 -44 61 -44q45 0 82 29v67q-18 4 -42 4q-101 0 -101 -56zM447 605h-261v104h261v-104z" />
    <glyph glyph-name="abreve.alt" horiz-adv-x="627" 
d="M109 356l-28 141q93 35 230 35q110 0 158.5 -46.5t48.5 -135.5v-171q0 -48 32 -48q21 0 51 14l5 -133q-51 -22 -125 -22q-84 0 -113 56q-65 -56 -155 -56q-85 0 -130 41.5t-45 113.5q0 89 70 136t206 47q12 0 36 -2v6q0 36 -18.5 48t-57.5 12q-37 0 -86 -11t-79 -25z
M207 162q0 -44 61 -44q45 0 82 29v67q-18 4 -42 4q-101 0 -101 -56zM159 672l40 60q40 -46 113 -46t113 46l40 -60q-48 -86 -152 -86t-154 86z" />
    <glyph glyph-name="aring.alt" horiz-adv-x="627" 
d="M213 670q0 40 28.5 69t69.5 29t69.5 -29t28.5 -69t-28.5 -69t-69.5 -29t-69.5 29t-28.5 69zM273 670q0 -16 10.5 -27t27.5 -11q16 0 26.5 11t10.5 27t-10.5 26.5t-26.5 10.5t-27 -10.5t-11 -26.5zM109 356l-28 141q93 35 230 35q110 0 158.5 -46.5t48.5 -135.5v-171
q0 -48 32 -48q21 0 51 14l5 -133q-51 -22 -125 -22q-84 0 -113 56q-65 -56 -155 -56q-85 0 -130 41.5t-45 113.5q0 89 70 136t206 47q12 0 36 -2v6q0 36 -18.5 48t-57.5 12q-37 0 -86 -11t-79 -25zM207 162q0 -44 61 -44q45 0 82 29v67q-18 4 -42 4q-101 0 -101 -56z" />
    <glyph glyph-name="aringacute.alt" horiz-adv-x="627" 
d="M432 842l-73 -87h-100l54 87h119zM213 653q0 39 28 62t70 23t70 -23t28 -62t-28 -62.5t-70 -23.5t-70 23.5t-28 62.5zM273 653q0 -29 38 -29q37 0 37 29q0 27 -37 27q-38 0 -38 -27zM109 356l-28 141q93 35 230 35q110 0 158.5 -46.5t48.5 -135.5v-171q0 -48 32 -48
q21 0 51 14l5 -133q-51 -22 -125 -22q-84 0 -113 56q-65 -56 -155 -56q-85 0 -130 41.5t-45 113.5q0 89 70 136t206 47q12 0 36 -2v6q0 36 -18.5 48t-57.5 12q-37 0 -86 -11t-79 -25zM207 162q0 -44 61 -44q45 0 82 29v67q-18 4 -42 4q-101 0 -101 -56z" />
    <glyph glyph-name="aogonek.alt" horiz-adv-x="627" 
d="M109 356l-28 141q93 35 230 35q110 0 158.5 -46.5t48.5 -135.5v-171q0 -48 32 -48q21 0 51 14l5 -133q-27 -11 -67 -17q-58 -20 -58 -61q0 -22 12.5 -35t36.5 -13q27 0 52 19l16 -70q-38 -25 -92 -25q-46 0 -74 28t-28 73q0 50 45 82q-58 8 -81 53q-65 -56 -155 -56
q-85 0 -130 41.5t-45 113.5q0 89 70 136t206 47q12 0 36 -2v6q0 36 -18.5 48t-57.5 12q-37 0 -86 -11t-79 -25zM207 162q0 -44 61 -44q45 0 82 29v67q-18 4 -42 4q-101 0 -101 -56z" />
    <glyph glyph-name="g.alt" horiz-adv-x="662" 
d="M44 284q0 110 61.5 179t168.5 69q91 0 144 -55v46h168v-429q0 -75 -24 -133.5t-64 -92t-86 -50t-96 -16.5q-81 0 -127 36.5t-46 98.5q0 40 24 71.5t65 45.5q-84 14 -136 74t-52 156zM215 284q0 -50 32 -75.5t80 -25.5h91v166q-43 37 -94 37q-50 0 -79.5 -28t-29.5 -74z
M324 -72q39 0 66.5 30t27.5 74v12h-19q-56 0 -89 -20t-33 -50q0 -22 13 -34t34 -12z" />
    <glyph glyph-name="y.alt" horiz-adv-x="615" 
d="M32 -61q0 58 43 101.5t122 51.5l-171 431h183l111 -343l114 343h168l-186 -508q-44 -122 -94.5 -167.5t-135.5 -45.5q-70 0 -112 36t-42 101zM182 -72q27 0 40 17.5t24 56.5l4 14q-107 0 -107 -52q0 -17 11 -26.5t28 -9.5z" />
    <glyph glyph-name="asterisk.alt" horiz-adv-x="521" 
d="M89 349l77 107l-122 29l35 126l126 -47l-10 136h131l-10 -137l126 48l34 -126l-124 -30l79 -105l-98 -70l-73 117l-72 -116z" />
    <glyph glyph-name="gcircumflex.alt" horiz-adv-x="662" 
d="M44 284q0 110 61.5 179t168.5 69q91 0 144 -55v46h168v-429q0 -75 -24 -133.5t-64 -92t-86 -50t-96 -16.5q-81 0 -127 36.5t-46 98.5q0 40 24 71.5t65 45.5q-84 14 -136 74t-52 156zM215 284q0 -50 32 -75.5t80 -25.5h91v166q-43 37 -94 37q-50 0 -79.5 -28t-29.5 -74z
M324 -72q39 0 66.5 30t27.5 74v12h-19q-56 0 -89 -20t-33 -50q0 -22 13 -34t34 -12zM406 583l-59 78l-59 -78h-124l102 158h162l101 -158h-123z" />
    <glyph glyph-name="gbreve.alt" horiz-adv-x="662" 
d="M192 672l40 60q40 -46 113 -46t113 46l40 -60q-48 -86 -152 -86t-154 86zM44 284q0 110 61.5 179t168.5 69q91 0 144 -55v46h168v-429q0 -75 -24 -133.5t-64 -92t-86 -50t-96 -16.5q-81 0 -127 36.5t-46 98.5q0 40 24 71.5t65 45.5q-84 14 -136 74t-52 156zM215 284
q0 -50 32 -75.5t80 -25.5h91v166q-43 37 -94 37q-50 0 -79.5 -28t-29.5 -74zM324 -72q39 0 66.5 30t27.5 74v12h-19q-56 0 -89 -20t-33 -50q0 -22 13 -34t34 -12z" />
    <glyph glyph-name="gdotaccent.alt" horiz-adv-x="662" 
d="M44 284q0 110 61.5 179t168.5 69q91 0 144 -55v46h168v-429q0 -75 -24 -133.5t-64 -92t-86 -50t-96 -16.5q-81 0 -127 36.5t-46 98.5q0 40 24 71.5t65 45.5q-84 14 -136 74t-52 156zM215 284q0 -50 32 -75.5t80 -25.5h91v166q-43 37 -94 37q-50 0 -79.5 -28t-29.5 -74z
M324 -72q39 0 66.5 30t27.5 74v12h-19q-56 0 -89 -20t-33 -50q0 -22 13 -34t34 -12zM262 670q0 76 92 76q90 0 90 -76t-90 -76q-92 0 -92 76z" />
    <glyph glyph-name="gcommaaccent.alt" horiz-adv-x="662" 
d="M44 284q0 110 61.5 179t168.5 69q91 0 144 -55v46h168v-429q0 -75 -24 -133.5t-64 -92t-86 -50t-96 -16.5q-81 0 -127 36.5t-46 98.5q0 40 24 71.5t65 45.5q-84 14 -136 74t-52 156zM215 284q0 -50 32 -75.5t80 -25.5h91v166q-43 37 -94 37q-50 0 -79.5 -28t-29.5 -74z
M324 -72q39 0 66.5 30t27.5 74v12h-19q-56 0 -89 -20t-33 -50q0 -22 13 -34t34 -12zM394 784l-24 -64q60 -12 60 -70q0 -35 -23 -55t-59 -20q-97 0 -97 89q0 67 65 148z" />
    <glyph glyph-name="yacute.alt" horiz-adv-x="615" 
d="M496 741l-107 -158h-139l81 158h165zM32 -61q0 58 43 101.5t122 51.5l-171 431h183l111 -343l114 343h168l-186 -508q-44 -122 -94.5 -167.5t-135.5 -45.5q-70 0 -112 36t-42 101zM182 -72q27 0 40 17.5t24 56.5l4 14q-107 0 -107 -52q0 -17 11 -26.5t28 -9.5z" />
    <glyph glyph-name="ycircumflex.alt" horiz-adv-x="615" 
d="M32 -61q0 58 43 101.5t122 51.5l-171 431h183l111 -343l114 343h168l-186 -508q-44 -122 -94.5 -167.5t-135.5 -45.5q-70 0 -112 36t-42 101zM182 -72q27 0 40 17.5t24 56.5l4 14q-107 0 -107 -52q0 -17 11 -26.5t28 -9.5zM380 583l-59 78l-59 -78h-124l102 158h162
l101 -158h-123z" />
    <glyph glyph-name="ydieresis.alt" horiz-adv-x="615" 
d="M32 -61q0 58 43 101.5t122 51.5l-171 431h183l111 -343l114 343h168l-186 -508q-44 -122 -94.5 -167.5t-135.5 -45.5q-70 0 -112 36t-42 101zM182 -72q27 0 40 17.5t24 56.5l4 14q-107 0 -107 -52q0 -17 11 -26.5t28 -9.5zM115 658q0 72 85 72q84 0 84 -72q0 -71 -84 -71
q-85 0 -85 71zM372 658q0 72 86 72q83 0 83 -72q0 -71 -83 -71q-86 0 -86 71z" />
    <glyph glyph-name="ygrave.alt" horiz-adv-x="615" 
d="M264 583l-107 158h165l81 -158h-139zM32 -61q0 58 43 101.5t122 51.5l-171 431h183l111 -343l114 343h168l-186 -508q-44 -122 -94.5 -167.5t-135.5 -45.5q-70 0 -112 36t-42 101zM182 -72q27 0 40 17.5t24 56.5l4 14q-107 0 -107 -52q0 -17 11 -26.5t28 -9.5z" />
    </font>
</defs>
</svg>
