<?xml version="1.0" standalone="no"?>
<!DOCTYPE svg PUBLIC "-//W3C//DTD SVG 1.1//EN" "http://www.w3.org/Graphics/SVG/1.1/DTD/svg11.dtd" >
<svg xmlns="http://www.w3.org/2000/svg" xmlns:xlink="http://www.w3.org/1999/xlink" version="1.1">
<metadata>
Created by FontForge 20170731 at Thu Jul  7 17:43:59 2011
 By Aleksey,,,
Copyright (c) 2011 by Hannes von Doehren. All rights reserved.
</metadata>
<defs>
<font id="PlutoRegular" horiz-adv-x="600" >
  <font-face 
    font-family="Pluto Regular"
    font-weight="400"
    font-stretch="normal"
    units-per-em="1000"
    panose-1="2 11 5 3 2 2 3 6 2 4"
    ascent="750"
    descent="-250"
    x-height="523"
    cap-height="680"
    bbox="-136 -263 1233 907"
    underline-thickness="50"
    underline-position="-200"
    unicode-range="U+0020-FB02"
  />
<missing-glyph horiz-adv-x="612" 
d="M50 720h512v-720h-512v720zM266 283h48q0 26 14 47t34 36t40 29.5t34 36t14 48.5q0 51 -36.5 85t-101.5 34q-39 0 -67 -14.5t-41.5 -37t-19 -43.5t-5.5 -41h47q0 40 21 66.5t65 26.5q41 0 64 -21.5t23 -54.5q0 -23 -21 -45t-45.5 -38t-45.5 -46t-21 -68zM255 194v-71h68
v71h-68z" />
    <glyph glyph-name=".notdef" horiz-adv-x="612" 
d="M50 720h512v-720h-512v720zM266 283h48q0 26 14 47t34 36t40 29.5t34 36t14 48.5q0 51 -36.5 85t-101.5 34q-39 0 -67 -14.5t-41.5 -37t-19 -43.5t-5.5 -41h47q0 40 21 66.5t65 26.5q41 0 64 -21.5t23 -54.5q0 -23 -21 -45t-45.5 -38t-45.5 -46t-21 -68zM255 194v-71h68
v71h-68z" />
    <glyph glyph-name=".null" horiz-adv-x="0" 
 />
    <glyph glyph-name="nonmarkingreturn" horiz-adv-x="333" 
 />
    <glyph glyph-name="space" unicode=" " horiz-adv-x="250" 
 />
    <glyph glyph-name="exclam" unicode="!" horiz-adv-x="296" 
d="M110 238l-15 442h105l-14 -442h-76zM78 58q0 70 70 70q34 0 52.5 -18t18.5 -52q0 -70 -71 -70q-70 0 -70 70z" />
    <glyph glyph-name="quotedbl" unicode="&#x22;" horiz-adv-x="448" 
d="M159 680l-4 -247h-74l-5 247h83zM371 680l-4 -247h-75l-4 247h83z" />
    <glyph glyph-name="numbersign" unicode="#" horiz-adv-x="701" 
d="M350 9l37 148h-172l-39 -157h-80v9l37 148h-89v79h109l52 208h-84v79h104l40 157h79v-8l-38 -149h174l40 157h79v-8l-38 -149h97v-79h-116l-52 -208h91v-79h-111l-39 -157h-81v9zM287 444l-52 -208h172l53 208h-173z" />
    <glyph glyph-name="dollar" unicode="$" 
d="M269 -129v119q-128 6 -217 59l25 99q86 -55 192 -62v213l-74 19q-154 39 -154 173q0 78 58 132.5t170 63.5v82h65v-81q124 -6 213 -53l-31 -98q-73 45 -182 55v-203l41 -11q93 -26 138.5 -68t45.5 -112q0 -85 -61.5 -139.5t-163.5 -65.5v-122h-65zM148 499
q0 -33 22.5 -53t69.5 -32l29 -8v185q-60 -6 -90.5 -31t-30.5 -61zM451 190q0 34 -29.5 55.5t-87.5 36.5v-193q54 8 85.5 34.5t31.5 66.5z" />
    <glyph glyph-name="percent" unicode="%" horiz-adv-x="873" 
d="M474 166q0 76 50.5 127t128.5 51t129 -51t51 -127t-51 -126t-129 -50t-128.5 50t-50.5 126zM554 166q0 -42 28 -70.5t71 -28.5t71 28.5t28 70.5q0 43 -28 71.5t-71 28.5t-71 -28.5t-28 -71.5zM210 9l355 671h91v-8l-354 -672h-92v9zM41 512q0 76 50.5 127t128.5 51
t129 -51t51 -127t-51 -126t-129 -50t-128.5 50t-50.5 126zM121 512q0 -42 28 -70.5t71 -28.5t71 28.5t28 70.5t-28 71t-71 29t-71 -29t-28 -71z" />
    <glyph glyph-name="ampersand" unicode="&#x26;" horiz-adv-x="755" 
d="M719 15v-15h-137l-66 63q-99 -73 -226 -73q-109 0 -171.5 51t-62.5 141q0 66 40 108t111 71q-41 40 -61.5 76t-20.5 83q0 73 56 121.5t154 48.5q92 0 152.5 -47.5t60.5 -120.5t-40.5 -115.5t-111.5 -67.5l-21 -8l148 -136q66 77 102 190l81 -53q-43 -120 -114 -200z
M300 80q78 0 148 48l-174 167q-54 -20 -84 -44.5t-30 -62.5q0 -49 38 -78.5t102 -29.5zM226 514q0 -21 14 -45t27 -37t39 -37l51 18q47 17 68 39.5t21 58.5q0 38 -31 63.5t-80 25.5q-53 0 -81 -24t-28 -62z" />
    <glyph glyph-name="quotesingle" unicode="'" horiz-adv-x="236" 
d="M159 680l-4 -247h-74l-5 247h83z" />
    <glyph glyph-name="parenleft" unicode="(" horiz-adv-x="302" 
d="M267 680q-47 -67 -84.5 -174.5t-37.5 -244.5q0 -136 37.5 -243.5t84.5 -175.5l-61 -35q-55 57 -104.5 177t-49.5 278q0 157 49.5 276.5t104.5 177.5z" />
    <glyph glyph-name="parenright" unicode=")" horiz-adv-x="302" 
d="M35 680l61 36q55 -58 104.5 -177.5t49.5 -276.5q0 -158 -49.5 -278t-104.5 -177l-61 35q47 67 84.5 175t37.5 244q0 138 -37.5 245.5t-84.5 173.5z" />
    <glyph glyph-name="asterisk" unicode="*" horiz-adv-x="536" 
d="M243 524q-15 72 -15 139q0 23 12 34.5t28 11.5t28 -11.5t12 -33.5q0 -57 -18 -136q79 46 130 60q26 6 40.5 -6.5t14.5 -31.5q0 -32 -34 -41q-64 -18 -141 -23q64 -55 105 -108q16 -23 5.5 -44t-32.5 -21q-26 0 -41 20q-45 63 -70 126q-17 -44 -65 -122q-16 -24 -44 -24
q-25 0 -33.5 23.5t8.5 45.5q42 54 95 99q-52 5 -135 31q-32 9 -32 37q0 22 15.5 35t42.5 5q49 -16 124 -65z" />
    <glyph glyph-name="plus" unicode="+" 
d="M341 536v-192h193v-83h-193v-192h-83v192h-192v83h192v192h83z" />
    <glyph glyph-name="comma" unicode="," horiz-adv-x="276" 
d="M75 -147l46 135q-54 10 -54 66q0 73 70 73q34 0 53 -20t19 -53q0 -45 -25 -114t-49 -111z" />
    <glyph glyph-name="hyphen" unicode="-" horiz-adv-x="538" 
d="M76 344h386v-83h-386v83z" />
    <glyph glyph-name="period" unicode="." horiz-adv-x="275" 
d="M67 58q0 70 70 70q34 0 52.5 -18t18.5 -52q0 -70 -71 -70q-70 0 -70 70z" />
    <glyph glyph-name="slash" unicode="/" horiz-adv-x="495" 
d="M25 9l355 671h90v-8l-354 -672h-91v9z" />
    <glyph glyph-name="zero" unicode="0" horiz-adv-x="725" 
d="M70 339q0 163 73 257t218 94q146 0 220 -94t74 -257q0 -161 -74 -255t-220 -94q-145 0 -218 94t-73 255zM171 339q0 -115 45 -184t145 -69q193 0 193 253q0 255 -193 255q-100 0 -145 -69.5t-45 -185.5z" />
    <glyph glyph-name="one" unicode="1" horiz-adv-x="498" 
d="M18 532l292 148h78v-680h-104v562l-227 -109z" />
    <glyph glyph-name="two" unicode="2" horiz-adv-x="652" 
d="M589 91v-91h-513v79l277 209q58 44 84 85t26 90q0 57 -36.5 94t-106.5 37q-79 0 -120.5 -43t-42.5 -115l-95 17q2 109 70 173t190 64q120 0 183.5 -63t63.5 -156q0 -70 -30 -126t-108 -112l-193 -142h351z" />
    <glyph glyph-name="three" unicode="3" horiz-adv-x="644" 
d="M149 304v92h164q64 0 99 28.5t35 72.5q0 49 -43 76t-113 27q-112 0 -202 -45l-26 89q104 46 226 46q126 0 195 -47.5t69 -135.5q0 -56 -31.5 -98.5t-86.5 -53.5q142 -37 142 -170q0 -90 -76.5 -142.5t-211.5 -52.5q-108 0 -226 44l26 88q97 -43 200 -43q80 0 130.5 32.5
t50.5 88.5q0 104 -157 104h-164z" />
    <glyph glyph-name="four" unicode="4" horiz-adv-x="711" 
d="M659 141h-132v-141h-99v141h-384v72l352 467h131v-452h132v-87zM152 228h276v363z" />
    <glyph glyph-name="five" unicode="5" horiz-adv-x="641" 
d="M554 680v-91h-346l-14 -179h102q132 0 206 -46.5t74 -144.5q0 -114 -80 -171.5t-208 -57.5q-123 0 -236 47l29 87q93 -45 202 -45q81 0 134 34t53 104q0 115 -179 115h-195l-4 5l29 343h433z" />
    <glyph glyph-name="six" unicode="6" horiz-adv-x="701" 
d="M611 631l-32 -85q-80 55 -190 55q-103 0 -157 -64.5t-59 -175.5q87 92 218 92q118 0 183.5 -59t65.5 -163q0 -108 -74 -174.5t-190 -66.5q-145 0 -226.5 95t-81.5 256q0 158 82 253.5t228 95.5q73 0 136 -18.5t97 -40.5zM376 367q-111 0 -197 -99q15 -85 65 -133.5
t132 -48.5q71 0 116 41.5t45 103.5q0 67 -44 101.5t-117 34.5z" />
    <glyph glyph-name="seven" unicode="7" horiz-adv-x="554" 
d="M122 10l289 579h-380v91h497v-75l-291 -605h-115v10z" />
    <glyph glyph-name="eight" unicode="8" horiz-adv-x="700" 
d="M350 -10q-132 0 -207 52.5t-75 142.5q0 142 158 170q-62 9 -98.5 52.5t-36.5 99.5q0 88 68.5 135.5t190.5 47.5t190 -47.5t68 -135.5q0 -56 -36 -99.5t-98 -52.5q158 -28 158 -170q0 -90 -75 -142.5t-207 -52.5zM351 304q-89 0 -133.5 -29.5t-44.5 -78.5q0 -54 49 -85.5
t128 -31.5t128 31.5t49 85.5q0 50 -43.5 79t-132.5 29zM350 603q-71 0 -113 -25.5t-42 -75.5q0 -44 38 -72.5t118 -28.5q78 0 116 28.5t38 72.5q0 50 -42 75.5t-113 25.5z" />
    <glyph glyph-name="nine" unicode="9" horiz-adv-x="701" 
d="M90 49l32 85q82 -55 190 -55q103 0 157 64.5t59 175.5q-87 -92 -217 -92q-118 0 -184 59t-66 163q0 108 74.5 174.5t190.5 66.5q145 0 226 -95t81 -256q0 -158 -81.5 -253.5t-227.5 -95.5q-73 0 -136.5 18.5t-97.5 40.5zM326 312q115 0 197 101q-16 84 -66 132.5
t-131 48.5q-71 0 -116 -41.5t-45 -103.5q0 -67 44 -102t117 -35z" />
    <glyph glyph-name="colon" unicode=":" horiz-adv-x="291" 
d="M75 468q0 33 18 51t51 18t51.5 -18t18.5 -51t-18.5 -51t-51.5 -18q-69 0 -69 69zM75 56q0 33 18 51t51 18t51.5 -18t18.5 -51t-18.5 -51t-51.5 -18q-69 0 -69 69z" />
    <glyph glyph-name="semicolon" unicode=";" horiz-adv-x="296" 
d="M89 -145l45 132q-53 11 -53 65q0 72 69 72q33 0 51.5 -20t18.5 -52q0 -44 -24 -111.5t-48 -109.5zM77 468q0 33 18 51t51 18t51.5 -18t18.5 -51t-18.5 -51t-51.5 -18q-69 0 -69 69z" />
    <glyph glyph-name="less" unicode="&#x3c;" 
d="M66 260v82l459 198h8v-81l-383 -157l383 -155v-82h-8z" />
    <glyph glyph-name="equal" unicode="=" 
d="M66 204h468v-83h-468v83zM66 484h468v-83h-468v83z" />
    <glyph glyph-name="greater" unicode="&#x3e;" 
d="M533 342v-82l-459 -195h-8v82l383 155l-383 157v81h8z" />
    <glyph glyph-name="question" unicode="?" horiz-adv-x="487" 
d="M251 238h-87q-9 25 -9 52q0 48 55 83l58 39q30 21 45 42t15 55q0 43 -29.5 68.5t-74.5 25.5q-48 0 -87.5 -20.5t-62.5 -51.5l-32 80q71 79 196 79q88 0 141.5 -48.5t53.5 -126.5q0 -60 -24 -94t-67 -63l-60 -40q-21 -15 -28 -25t-7 -28q0 -14 4 -27zM138 58q0 70 70 70
q34 0 52.5 -18t18.5 -52q0 -70 -71 -70q-70 0 -70 70z" />
    <glyph glyph-name="at" unicode="@" horiz-adv-x="995" 
d="M713 491v-353q0 -28 9 -41.5t36 -13.5q45 0 82 60.5t37 175.5q0 144 -102 236t-270 92q-169 0 -274 -107t-105 -277q0 -169 105.5 -277t273.5 -108q99 0 181 40l27 -66q-95 -46 -208 -46q-196 0 -325 130t-129 327q0 198 128.5 327t325.5 129q198 0 322 -112t124 -288
q0 -151 -64.5 -229.5t-167.5 -78.5q-77 0 -100 62q-55 -61 -154 -61q-100 0 -162 67.5t-62 174.5q0 108 62 176.5t162 68.5q95 0 148 -56v48h100zM613 360q-49 51 -121 51q-68 0 -108.5 -43.5t-40.5 -113.5t40.5 -112.5t108.5 -42.5q70 0 121 51v210z" />
    <glyph glyph-name="A" unicode="A" horiz-adv-x="710" 
d="M16 0l282 680h120l270 -680h-105l-60 150h-339l-62 -150h-106zM358 576l-147 -347h285z" />
    <glyph glyph-name="B" unicode="B" horiz-adv-x="710" 
d="M106 0v680h262q110 0 170.5 -44.5t60.5 -133.5q0 -55 -30 -92.5t-84 -55.5q168 -29 168 -174q0 -84 -61.5 -132t-177.5 -48h-308zM210 90h190q142 0 142 102q0 109 -159 109h-173v-211zM210 393h139q142 0 142 97q0 53 -34.5 76.5t-102.5 23.5h-144v-197z" />
    <glyph glyph-name="C" unicode="C" horiz-adv-x="748" 
d="M639 178l51 -78q-49 -47 -124 -78.5t-155 -31.5q-154 0 -251 94t-97 255q0 163 97 257t251 94q129 0 202 -68.5t76 -188.5l-96 -20q-2 86 -49 133t-135 47q-108 0 -173 -67.5t-65 -186.5q0 -118 66 -185t176 -67q64 0 124 26t102 65z" />
    <glyph glyph-name="D" unicode="D" horiz-adv-x="797" 
d="M106 0v680h276q156 -1 253.5 -90.5t97.5 -250.5q0 -160 -97.5 -249.5t-253.5 -89.5h-276zM378 589h-168v-498h168q112 0 180 65.5t68 182.5q0 119 -68 184t-180 66z" />
    <glyph glyph-name="E" unicode="E" horiz-adv-x="698" 
d="M633 0h-527v680h527v-92h-428v-191h355v-92h-355v-213h428v-92z" />
    <glyph glyph-name="F" unicode="F" horiz-adv-x="655" 
d="M559 261h-354v-261h-99v680h507v-92h-408v-235h354v-92z" />
    <glyph glyph-name="G" unicode="G" horiz-adv-x="784" 
d="M395 381h316v-301q-49 -38 -130 -64t-157 -26q-156 0 -259 94.5t-103 254.5q0 161 103 256t259 95q149 0 261 -94l-50 -80q-88 77 -208 77q-111 0 -184 -68t-73 -186q0 -116 73.5 -184t187.5 -68q101 0 176 48v155h-212v91z" />
    <glyph glyph-name="H" unicode="H" horiz-adv-x="841" 
d="M631 0v297h-421v-297h-104v680h104v-292h421v292h104v-680h-104z" />
    <glyph glyph-name="I" unicode="I" horiz-adv-x="315" 
d="M106 0v680h104v-680h-104z" />
    <glyph glyph-name="J" unicode="J" horiz-adv-x="656" 
d="M455 680h104v-416q0 -125 -69 -200t-198 -75q-126 0 -191 70.5t-73 195.5l103 10q13 -179 163 -179q81 0 121 48.5t40 136.5v409z" />
    <glyph glyph-name="K" unicode="K" horiz-adv-x="778" 
d="M106 0v680h104v-297h156l205 297h108v-16l-234 -330q16 -17 42.5 -63.5t49 -86t59 -71.5t74.5 -32q44 0 82 19l12 -84q-52 -26 -114 -26q-58 0 -108.5 39.5t-78.5 87.5t-59.5 103t-48.5 72h-145v-292h-104z" />
    <glyph glyph-name="L" unicode="L" horiz-adv-x="606" 
d="M581 0h-475v680h104v-589h371v-91z" />
    <glyph glyph-name="M" unicode="M" horiz-adv-x="953" 
d="M744 0v515l-258 -310h-20l-256 310v-515h-104v680h94l277 -333l276 333h95v-680h-104z" />
    <glyph glyph-name="N" unicode="N" horiz-adv-x="839" 
d="M642 0l-432 514v-514h-104v680h91l432 -516v516h104v-680h-91z" />
    <glyph glyph-name="O" unicode="O" horiz-adv-x="823" 
d="M61 339q0 151 100 251t249 100q151 0 251 -100t100 -251q0 -149 -100 -249t-251 -100q-149 0 -249 100t-100 249zM164 339q0 -108 70 -179.5t177 -71.5q108 0 178 71.5t70 179.5q0 109 -70 180.5t-178 71.5q-107 0 -177 -71.5t-70 -180.5z" />
    <glyph glyph-name="P" unicode="P" horiz-adv-x="701" 
d="M106 0v680h308q104 0 173 -62.5t69 -180.5q0 -109 -70.5 -174t-171.5 -65h-204v-198h-104zM398 589h-188v-300h188q64 0 107 40.5t43 107.5q0 73 -42.5 112.5t-107.5 39.5z" />
    <glyph glyph-name="Q" unicode="Q" horiz-adv-x="824" 
d="M827 -75l12 -86q-55 -19 -125 -19q-56 0 -109.5 24t-85.5 53t-63.5 58t-45.5 35q-149 1 -248.5 100.5t-99.5 248.5q0 151 100 251t249 100q151 0 251 -100t100 -251q0 -117 -65 -206t-172 -122q5 -4 24.5 -21t28.5 -24t29 -20.5t34.5 -19.5t36 -11.5t43.5 -5.5
q65 0 106 16zM164 339q0 -108 70 -179.5t177 -71.5q108 0 178 71.5t70 179.5q0 109 -70 180.5t-178 71.5q-107 0 -177 -71.5t-70 -180.5z" />
    <glyph glyph-name="R" unicode="R" horiz-adv-x="770" 
d="M106 0v680h295q51 0 95 -12t81 -36.5t58.5 -68t21.5 -101.5q0 -90 -62 -148.5t-152 -63.5q9 -10 39.5 -42.5t46.5 -48t42.5 -37.5t50.5 -31.5t48 -9.5q44 0 82 19l11 -84q-52 -26 -109 -26q-52 0 -106 33.5t-90.5 74t-79 88t-65.5 64.5h-103v-250h-104zM412 589h-202
v-256h202q59 0 97.5 34.5t38.5 92.5q0 63 -38 96t-98 33z" />
    <glyph glyph-name="S" unicode="S" horiz-adv-x="640" 
d="M353 283l-137 35q-154 39 -154 173q0 85 68.5 141.5t199.5 56.5q67 0 132 -15.5t106 -38.5l-31 -98q-37 23 -96.5 39.5t-114.5 16.5q-78 0 -117.5 -26.5t-39.5 -67.5q0 -62 92 -85l135 -36q93 -26 138.5 -68t45.5 -112q0 -94 -75.5 -151t-196.5 -57q-67 0 -132 18.5
t-103 40.5l25 99q98 -62 212 -62q74 0 118 28.5t44 75.5q0 35 -29.5 56.5t-89.5 36.5z" />
    <glyph glyph-name="T" unicode="T" horiz-adv-x="633" 
d="M606 576h-232v-576h-104v576h-244v104h580v-104z" />
    <glyph glyph-name="U" unicode="U" horiz-adv-x="795" 
d="M201 680v-392q0 -94 49 -148t146 -54q98 0 148 55.5t50 147.5v391h104v-399q0 -124 -79.5 -208t-222.5 -84q-144 0 -221.5 80t-77.5 212v399h104z" />
    <glyph glyph-name="V" unicode="V" horiz-adv-x="717" 
d="M292 0l-270 680h113l222 -587l231 587h114l-281 -680h-129z" />
    <glyph glyph-name="W" unicode="W" horiz-adv-x="1089" 
d="M679 0l-133 329l-142 -329h-112l-270 680h111l223 -563l145 335l-89 228h112l210 -547l226 547h113l-281 -680h-113z" />
    <glyph glyph-name="X" unicode="X" horiz-adv-x="720" 
d="M687 680v-8l-254 -333l254 -330v-9h-120l-207 270l-208 -270h-120v9l254 330l-254 333v8h120l208 -272l209 272h118z" />
    <glyph glyph-name="Y" unicode="Y" horiz-adv-x="676" 
d="M286 0v278l-275 394v8h116l211 -306l211 306h116v-8l-275 -393v-279h-104z" />
    <glyph glyph-name="Z" unicode="Z" horiz-adv-x="635" 
d="M60 75l382 514h-382v91h515v-75l-381 -514h381v-91h-515v75z" />
    <glyph glyph-name="bracketleft" unicode="[" horiz-adv-x="342" 
d="M308 -188h-217v898h217v-83h-133v-732h133v-83z" />
    <glyph glyph-name="backslash" unicode="\" horiz-adv-x="495" 
d="M116 680l354 -671v-9h-91l-354 672v8h91z" />
    <glyph glyph-name="bracketright" unicode="]" horiz-adv-x="341" 
d="M34 710h216v-898h-216v83h133v732h-133v83z" />
    <glyph glyph-name="asciicircum" unicode="^" 
d="M257 680h79l187 -275v-9h-97l-129 202l-128 -202h-95v9z" />
    <glyph glyph-name="underscore" unicode="_" horiz-adv-x="724" 
d="M112 -36h500v-84h-500v84z" />
    <glyph glyph-name="grave" unicode="`" 
d="M310 596l-96 145h105l81 -145h-90z" />
    <glyph glyph-name="a" unicode="a" horiz-adv-x="701" 
d="M573 523v-385q0 -59 42 -59q27 0 56 18l7 -83q-44 -24 -101 -24q-83 0 -101 77q-67 -76 -173 -76q-112 0 -181 75t-69 194q0 120 69 196t181 76q104 0 166 -62v53h104zM469 140v242q-22 24 -60 41.5t-79 17.5q-78 0 -125 -50t-47 -131q0 -79 47.5 -129t124.5 -50
q82 0 139 59z" />
    <glyph glyph-name="b" unicode="b" horiz-adv-x="663" 
d="M611 262q0 -119 -69.5 -195.5t-181.5 -76.5q-105 0 -168 66v-56h-104v710h104v-241q65 63 168 63q112 0 181.5 -75.5t69.5 -194.5zM504 262q0 80 -47 129.5t-125 49.5q-81 0 -140 -61v-240q23 -24 61 -41.5t79 -17.5q78 0 125 50t47 131z" />
    <glyph glyph-name="c" unicode="c" horiz-adv-x="605" 
d="M511 140l41 -82q-92 -72 -218 -72q-142 0 -212 75t-70 199q0 121 75.5 199t199.5 78q108 0 167.5 -54.5t63.5 -146.5l-93 -22q-8 131 -137 131q-78 0 -123.5 -51t-45.5 -131q0 -83 46 -134t141 -51q84 0 165 62z" />
    <glyph glyph-name="d" unicode="d" horiz-adv-x="701" 
d="M470 710h104v-573q0 -58 42 -58q23 0 54 18l8 -83q-42 -24 -102 -24q-82 0 -101 72q-62 -72 -173 -72t-180.5 76.5t-69.5 195.5t69.5 194.5t180.5 75.5q103 0 168 -62v240zM158 262q0 -81 47.5 -131t125.5 -50q41 0 79 17.5t60 41.5v240q-59 61 -139 61
q-78 0 -125.5 -49.5t-47.5 -129.5z" />
    <glyph glyph-name="e" unicode="e" horiz-adv-x="611" 
d="M510 132l41 -75q-87 -71 -217 -71q-141 0 -212 76.5t-71 197.5q0 118 75.5 197.5t198.5 79.5q114 0 173.5 -61.5t59.5 -156.5q0 -57 -11 -92h-389q8 -71 52.5 -112t126.5 -41q96 0 173 58zM456 308q2 16 2 28q0 49 -34 81.5t-101 32.5q-70 0 -113.5 -41t-49.5 -101h296z
" />
    <glyph glyph-name="f" unicode="f" horiz-adv-x="451" 
d="M38 412v83h103v43q0 81 43 131.5t129 50.5q75 0 134 -41l-26 -88q-46 37 -97 37q-79 0 -79 -90v-43h177v-83h-177v-412h-104v412h-103z" />
    <glyph glyph-name="g" unicode="g" horiz-adv-x="663" 
d="M53 280q0 106 70 179t180 73q105 0 167 -62v53h104v-467q0 -122 -70 -188t-183 -66q-17 0 -32.5 1t-30.5 4t-26.5 5t-25 7t-21 7.5t-19.5 8t-16 7.5t-15 8t-12 6l23 93q86 -55 175 -55q65 0 107 35t42 106v56q-66 -61 -167 -61q-110 0 -180 72.5t-70 177.5zM159 280
q0 -69 47.5 -114t124.5 -45q82 0 139 59v200q-24 26 -61 43.5t-78 17.5q-77 0 -124.5 -45.5t-47.5 -115.5z" />
    <glyph glyph-name="h" unicode="h" horiz-adv-x="687" 
d="M88 710h104v-266q59 88 180 88q97 0 147 -64t50 -167v-163q0 -59 42 -59q22 0 55 18l7 -83q-42 -24 -101 -24q-107 0 -107 125v170q0 69 -33 110t-96 41q-52 0 -90.5 -33t-53.5 -80v-323h-104v710z" />
    <glyph glyph-name="i" unicode="i" horiz-adv-x="322" 
d="M191 523v-385q0 -59 42 -59q30 0 55 18l8 -83q-10 -8 -40 -16t-62 -8q-107 0 -107 125v408h104zM75 672q0 58 65 58q64 0 64 -58q0 -59 -64 -59q-65 0 -65 59z" />
    <glyph glyph-name="j" unicode="j" horiz-adv-x="281" 
d="M192 523v-489q0 -159 -141 -231l-61 69q48 27 73 63t25 96v492h104zM76 672q0 58 65 58q64 0 64 -58q0 -59 -64 -59q-65 0 -65 59z" />
    <glyph glyph-name="k" unicode="k" horiz-adv-x="624" 
d="M468 523h104q-32 -188 -157 -259l171 -247v-17h-114l-149 228q-62 -14 -131 -14v-214h-104v710h104v-403q56 0 96 8.5t78 31t63.5 66.5t38.5 110z" />
    <glyph glyph-name="l" unicode="l" horiz-adv-x="327" 
d="M84 710h104v-566q0 -65 53 -65q28 0 61 18l7 -83q-48 -24 -106 -24q-119 0 -119 130v590z" />
    <glyph glyph-name="m" unicode="m" horiz-adv-x="1041" 
d="M88 523h104v-78q60 88 175 88q135 0 174 -109q26 49 75 78.5t115 29.5q96 0 143.5 -63.5t47.5 -167.5v-163q0 -59 41 -59q25 0 56 18l8 -83q-42 -24 -102 -24q-107 0 -107 125v170q0 70 -31.5 110.5t-93.5 40.5q-51 0 -86 -31t-49 -77v-328h-104v286q0 70 -31 110t-93 40
q-52 0 -87.5 -31t-50.5 -78v-327h-104v523z" />
    <glyph glyph-name="n" unicode="n" horiz-adv-x="687" 
d="M88 523h104v-80q61 89 180 89q97 0 147 -64t50 -167v-163q0 -59 42 -59q26 0 55 18l7 -83q-44 -24 -101 -24q-107 0 -107 125v170q0 69 -33 110t-96 41q-52 0 -90.5 -33t-53.5 -80v-323h-104v523z" />
    <glyph glyph-name="o" unicode="o" horiz-adv-x="660" 
d="M50 260q0 120 79 198.5t200 78.5q122 0 201 -78.5t79 -198.5q0 -118 -79 -196t-201 -78q-121 0 -200 78t-79 196zM151 260q0 -76 50 -127t128 -51q79 0 129.5 50.5t50.5 127.5q0 78 -50.5 129.5t-129.5 51.5q-78 0 -128 -51.5t-50 -129.5z" />
    <glyph glyph-name="p" unicode="p" horiz-adv-x="701" 
d="M231 -188h-104v573q0 59 -42 59q-33 0 -56 -19l-7 84q10 8 40 16t61 8q83 0 102 -72q62 71 172 71q112 0 181.5 -76t69.5 -196q0 -119 -69.5 -194.5t-181.5 -75.5q-101 0 -166 60v-238zM370 441q-42 0 -79 -17.5t-60 -43.5v-241q58 -58 139 -58q78 0 125.5 49.5
t47.5 129.5q0 81 -47.5 131t-125.5 50z" />
    <glyph glyph-name="q" unicode="q" horiz-adv-x="662" 
d="M53 260q0 120 69 196t181 76q102 0 166 -64v55h104v-711h-104v238q-65 -60 -166 -60q-112 0 -181 75.5t-69 194.5zM330 81q81 0 139 58v241q-23 26 -60 43.5t-79 17.5q-78 0 -125 -50t-47 -131q0 -80 47 -129.5t125 -49.5z" />
    <glyph glyph-name="r" unicode="r" horiz-adv-x="478" 
d="M127 0v384q0 59 -42 59q-28 0 -56 -17l-7 81q9 8 39.5 16.5t62.5 8.5q91 0 104 -90q44 90 136 90q35 0 60.5 -10.5t34.5 -25.5l-19 -92q-21 32 -91 32q-90 0 -118 -138v-298h-104z" />
    <glyph glyph-name="s" unicode="s" horiz-adv-x="522" 
d="M465 494l-28 -91q-82 41 -168 41q-50 0 -81.5 -18.5t-31.5 -51.5q0 -26 16.5 -37.5t58.5 -21.5l108 -25q67 -17 98.5 -50t31.5 -89q0 -73 -55 -117t-153 -44q-109 0 -199 45l21 90q90 -48 174 -48q52 0 80 17.5t28 49.5q0 23 -20 35.5t-62 22.5l-101 24q-66 16 -98 49
t-32 91q0 74 61 120t164 46q48 0 102.5 -11.5t85.5 -26.5z" />
    <glyph glyph-name="t" unicode="t" horiz-adv-x="489" 
d="M137 656h92v-133h204v-82h-204v-260q0 -100 84 -100q61 0 116 40l34 -81q-81 -50 -181 -50q-74 0 -115.5 44t-41.5 127v280h-98v82h98z" />
    <glyph glyph-name="u" unicode="u" horiz-adv-x="689" 
d="M457 523h104v-385q0 -59 41 -59q25 0 56 18l8 -83q-44 -24 -102 -24q-85 0 -103 79q-60 -79 -184 -79q-98 0 -147 61.5t-49 168.5v303h104v-288q0 -75 30 -112t99 -37q52 0 88.5 27t54.5 66v344z" />
    <glyph glyph-name="v" unicode="v" horiz-adv-x="677" 
d="M122 220v164q0 60 -42 60q-25 0 -56 -18l-7 82q40 24 101 24q108 0 108 -125v-172q0 -73 34 -111t98 -38q66 0 107.5 44.5t41.5 123.5q0 126 -60 269h110q54 -142 54 -276q0 -116 -69 -186.5t-184 -70.5q-113 0 -174.5 61t-61.5 169z" />
    <glyph glyph-name="w" unicode="w" horiz-adv-x="1016" 
d="M482 523h104v-290q0 -68 30.5 -107.5t91.5 -39.5q67 0 102.5 47.5t35.5 122.5q0 121 -60 267h110q54 -142 54 -276q0 -117 -63.5 -187t-172.5 -70q-73 0 -116.5 27.5t-66.5 86.5q-49 -114 -195 -114q-106 0 -160 60t-54 170v165q0 29 -9 44t-33 15q-31 0 -56 -19l-7 84
q54 23 105 23q104 0 104 -122v-175q0 -149 122 -149q62 0 98 41t36 112v284z" />
    <glyph glyph-name="x" unicode="x" horiz-adv-x="586" 
d="M554 523v-8l-189 -255l189 -251v-9h-114l-147 199l-146 -199h-115v9l188 251l-188 255v8h113l148 -202l149 202h112z" />
    <glyph glyph-name="y" unicode="y" horiz-adv-x="586" 
d="M12 523h115l176 -409l163 409h106l-229 -544q-38 -93 -82.5 -135t-122.5 -42q-65 0 -120 36l17 85q52 -32 103 -32q40 0 62.5 19.5t42.5 64.5l14 34z" />
    <glyph glyph-name="z" unicode="z" horiz-adv-x="528" 
d="M53 75l292 365h-292v83h423v-75l-291 -365h291v-83h-423v75z" />
    <glyph glyph-name="braceleft" unicode="{" horiz-adv-x="320" 
d="M272 710v-75h-35q-32 0 -50.5 -18t-18.5 -45t28.5 -104t28.5 -118q0 -40 -18.5 -62t-60.5 -30q42 -8 60.5 -30.5t18.5 -63.5q0 -40 -28.5 -116t-28.5 -104t18 -46t51 -18h35v-75h-45q-72 0 -107 32t-35 88q0 36 28.5 114t28.5 119q0 36 -23.5 52.5t-77.5 16.5v64
q53 0 77 17.5t24 54.5q0 41 -28.5 118t-28.5 113q0 53 35 84.5t107 31.5h45z" />
    <glyph glyph-name="bar" unicode="|" horiz-adv-x="266" 
d="M91 -188v898h84v-898h-84z" />
    <glyph glyph-name="braceright" unicode="}" horiz-adv-x="320" 
d="M48 710h44q72 0 107.5 -31.5t35.5 -84.5q0 -36 -28.5 -113t-28.5 -118q0 -72 100 -72v-64q-53 0 -76.5 -16.5t-23.5 -52.5q0 -41 28.5 -119t28.5 -114q0 -56 -35.5 -88t-107.5 -32h-44v75h35q33 0 51 18t18 46t-28.5 104t-28.5 116q0 41 18.5 63.5t60.5 30.5
q-42 8 -60.5 30t-18.5 62q0 41 28.5 118t28.5 104t-18.5 45t-50.5 18h-35v75z" />
    <glyph glyph-name="asciitilde" unicode="~" horiz-adv-x="525" 
d="M422 362l38 -47q-11 -43 -40.5 -68.5t-68.5 -25.5q-38 0 -91 40t-84 40q-24 0 -44.5 -16.5t-28.5 -46.5l-37 50q9 37 38 63.5t69 26.5q32 0 64.5 -20t60.5 -39.5t50 -19.5q52 0 74 63z" />
    <glyph glyph-name="uni00A0" unicode="&#xa0;" horiz-adv-x="250" 
 />
    <glyph glyph-name="exclamdown" unicode="&#xa1;" horiz-adv-x="281" 
d="M178 284l15 -442h-105l15 442h75zM211 466q0 -72 -71 -72q-34 0 -53 19t-19 53t19 52.5t53 18.5q71 0 71 -71z" />
    <glyph glyph-name="cent" unicode="&#xa2;" 
d="M508 138l39 -80q-92 -72 -218 -72q-33 0 -57 4l-35 -126l-63 17l34 123q-81 28 -121 95t-40 161q0 121 75.5 199t199.5 78q13 0 33 -2l30 108l64 -17l-29 -104q62 -21 96 -69.5t37 -116.5l-85 -19q-6 89 -71 121l-101 -361q20 -3 41 -3q86 0 171 64zM145 263
q0 -123 88 -168l99 358h-10q-80 0 -128.5 -53t-48.5 -137z" />
    <glyph glyph-name="sterling" unicode="&#xa3;" 
d="M461 314h-202q15 -84 15 -131q0 -21 -1 -31q9 -6 37 -27t51.5 -33.5t42.5 -12.5q41 0 58.5 30.5t17.5 91.5v18h83q1 -12 1 -35q0 -91 -35 -142.5t-106 -51.5q-29 0 -57.5 14t-67 44.5t-46.5 35.5q-19 -45 -46.5 -69.5t-75.5 -24.5q-46 0 -71 28t-25 73q0 44 28 71.5
t73 27.5q29 0 51 -11q0 35 -24 135h-98v66h83q-12 62 -12 114q0 87 52 141.5t153 54.5q63 0 117.5 -27t83.5 -56l-33 -88q-1 1 -9 8.5t-10.5 10t-10.5 10t-12.5 10.5l-13.5 9t-15.5 9t-16 7t-18.5 6t-20 3.5t-22 1.5q-59 0 -90 -34t-31 -90q0 -40 8 -90h214v-66zM145 130
q-21 0 -34 -11.5t-13 -29.5q0 -38 34 -38q39 0 49 68q-15 11 -36 11z" />
    <glyph glyph-name="currency" unicode="&#xa4;" horiz-adv-x="572" 
d="M434 509l60 -59l-59 -58q27 -38 27 -90q0 -50 -26 -91l58 -57l-60 -59l-58 58q-40 -27 -94 -27q-50 0 -88 24l-55 -55l-60 59l53 53q-29 42 -29 95q0 54 29 94l-53 54l60 59l55 -56q41 26 88 26q56 0 94 -29zM177 302q0 -45 30 -75.5t75 -30.5q47 0 76.5 30t29.5 76
q0 45 -29.5 75.5t-76.5 30.5q-45 0 -75 -30.5t-30 -75.5z" />
    <glyph glyph-name="yen" unicode="&#xa5;" 
d="M512 135h-162v-135h-104v135h-162v65h162v63h-162v65h135l-184 344v8h107l156 -317l159 317h108v-8l-188 -344h135v-65h-162v-63h162v-65z" />
    <glyph glyph-name="brokenbar" unicode="&#xa6;" horiz-adv-x="276" 
d="M180 375h-84v335h84v-335zM96 159h84v-347h-84v347z" />
    <glyph glyph-name="section" unicode="&#xa7;" horiz-adv-x="654" 
d="M84 -51l24 90q39 -19 103.5 -34.5t126.5 -15.5q61 0 99.5 16t38.5 48q0 23 -23 35.5t-78 22.5l-150 29q-152 30 -152 149q0 87 87 133q-85 30 -85 109q0 69 64.5 114t184.5 45q138 0 245 -43l-28 -89q-39 19 -104.5 33.5t-122.5 14.5q-68 0 -103 -18.5t-35 -46.5
q0 -38 66 -50l159 -27q87 -16 134 -59t47 -102q0 -89 -91 -134q91 -36 91 -107q0 -72 -70 -115.5t-185 -43.5q-133 0 -243 46zM369 382l-79 13q-59 -3 -89.5 -31.5t-30.5 -62.5q0 -33 19.5 -51t69.5 -28l97 -19q57 2 91 26.5t34 62.5q0 72 -112 90z" />
    <glyph glyph-name="dieresis" unicode="&#xa8;" 
d="M120 670q0 56 61 56t61 -56t-61 -56t-61 56zM372 670q0 56 62 56q60 0 60 -56t-60 -56q-62 0 -62 56z" />
    <glyph glyph-name="copyright" unicode="&#xa9;" horiz-adv-x="830" 
d="M65 339q0 151 100 251t249 100q151 0 251 -100t100 -251q0 -149 -100 -249t-251 -100q-149 0 -249 100t-100 249zM126 339q0 -125 82 -208t206 -83q125 0 207.5 83t82.5 208t-82.5 208.5t-207.5 83.5q-124 0 -206 -83.5t-82 -208.5zM513 275l44 -56q-59 -55 -140 -55
q-77 0 -125.5 47t-48.5 128t48.5 128t125.5 47q65 0 101 -34t38 -94l-66 -16q-3 70 -73 70q-43 0 -68 -27t-25 -74q0 -48 25.5 -74.5t69.5 -26.5q53 0 94 37z" />
    <glyph glyph-name="ordfeminine" unicode="&#xaa;" horiz-adv-x="502" 
d="M122 601l-13 64q58 22 124 22q73 -2 101.5 -29.5t28.5 -84.5v-140q0 -36 25 -36q17 0 35 12l4 -57q-37 -16 -69 -16q-46 0 -61 42q-46 -42 -104 -42q-52 0 -83 28.5t-31 75.5q0 57 46 86.5t127 29.5q16 0 38 -4v15q0 32 -16 45.5t-51 13.5q-56 0 -101 -25zM97 254h309
v-59h-309v59zM148 447q0 -51 67 -51q41 0 75 28v81q-12 3 -36 3q-106 0 -106 -61z" />
    <glyph glyph-name="guillemotleft" unicode="&#xab;" horiz-adv-x="540" 
d="M50 291v22l161 201h8l38 -23l-118 -189l118 -188l-38 -24h-8zM270 291v22l160 201h8l38 -23l-118 -189l118 -188l-38 -24h-8z" />
    <glyph glyph-name="logicalnot" unicode="&#xac;" 
d="M450 129v192h-385v83h469l-1 -275h-83z" />
    <glyph glyph-name="uni00AD" unicode="&#xad;" horiz-adv-x="538" 
d="M76 344h386v-83h-386v83z" />
    <glyph glyph-name="registered" unicode="&#xae;" horiz-adv-x="830" 
d="M65 339q0 151 100 251t249 100q151 0 251 -100t100 -251q0 -149 -100 -249t-251 -100q-149 0 -249 100t-100 249zM126 339q0 -125 82 -208t206 -83q125 0 207.5 83t82.5 208t-82.5 208.5t-207.5 83.5q-124 0 -206 -83.5t-82 -208.5zM362 280v8h-9v-119h-79v340h146
q60 0 98 -27.5t38 -86.5q0 -42 -25.5 -68.5t-66.5 -35.5q52 -45 76 -53q11 -4 22 -4q19 0 39 9l7 -66q-26 -13 -56 -13q-37 0 -74.5 26.5t-68.5 56t-47 33.5zM428 444h-75v-100h75q23 0 37.5 13.5t14.5 36.5q0 24 -14.5 37t-37.5 13z" />
    <glyph glyph-name="macron" unicode="&#xaf;" 
d="M430 623h-247v73h247v-73z" />
    <glyph glyph-name="degree" unicode="&#xb0;" horiz-adv-x="466" 
d="M53 512q0 76 50.5 127t128.5 51t129 -51t51 -127t-51 -126t-129 -50t-128.5 50t-50.5 126zM127 512q0 -45 30 -75.5t75 -30.5q47 0 76.5 30.5t29.5 75.5q0 46 -29.5 76.5t-76.5 30.5q-45 0 -75 -31t-30 -76z" />
    <glyph glyph-name="plusminus" unicode="&#xb1;" 
d="M341 647v-192h193v-83h-193v-139h-83v139h-192v83h192v192h83zM66 150h468v-83h-468v83z" />
    <glyph glyph-name="twosuperior" unicode="&#xb2;" horiz-adv-x="340" 
d="M300 456h-252v46l130 98q50 37 50 78q0 25 -16 41t-45 16q-35 0 -53.5 -19.5t-18.5 -52.5l-55 10q1 53 34.5 85t92.5 32q61 0 92 -30.5t31 -80.5q0 -65 -70 -115l-76 -55h156v-53z" />
    <glyph glyph-name="threesuperior" unicode="&#xb3;" horiz-adv-x="333" 
d="M78 650h80q28 0 44 12.5t16 31.5q0 43 -69 43q-51 0 -96 -20l-14 52q53 21 110 21q62 0 96 -23.5t34 -67.5q0 -26 -16.5 -46t-44.5 -26q72 -14 72 -81q0 -44 -37 -69.5t-104 -25.5q-51 0 -111 20l16 51q43 -19 95 -19q35 0 57 14t22 38q0 44 -70 44h-80v51z" />
    <glyph glyph-name="acute" unicode="&#xb4;" 
d="M400 741l-96 -145h-90l81 145h105z" />
    <glyph glyph-name="mu" unicode="&#xb5;" horiz-adv-x="655" 
d="M202 523v-278q0 -82 29.5 -120.5t99.5 -38.5q52 0 89 27t54 66v344h104v-523h-104v63q-61 -73 -179 -73q-52 0 -93 19v-197h-104v711h104z" />
    <glyph glyph-name="paragraph" unicode="&#xb6;" horiz-adv-x="560" 
d="M309 523v-711h-82v457h-59q-58 0 -94.5 33.5t-36.5 93.5t36.5 93t94.5 34h141zM398 -188v711h81v-711h-81z" />
    <glyph glyph-name="periodcentered" unicode="&#xb7;" horiz-adv-x="285" 
d="M72 297q0 70 70 70q34 0 52.5 -18t18.5 -52q0 -70 -71 -70q-70 0 -70 70z" />
    <glyph glyph-name="cedilla" unicode="&#xb8;" 
d="M221 -96l27 96h46l-17 -62q12 3 29 3q40 0 62.5 -17.5t22.5 -46.5q0 -36 -30 -55.5t-77 -19.5q-41 0 -76 12l11 37q35 -11 62 -11q60 0 60 35q0 31 -55 31q-36 0 -62 -7z" />
    <glyph glyph-name="onesuperior" unicode="&#xb9;" horiz-adv-x="265" 
d="M15 710l142 74h45v-328h-60v260l-103 -52z" />
    <glyph glyph-name="ordmasculine" unicode="&#xba;" horiz-adv-x="509" 
d="M75 512q0 76 50.5 127t128.5 51t129 -51t51 -127t-51 -126t-129 -50t-128.5 50t-50.5 126zM142 512q0 -48 31.5 -80.5t80.5 -32.5q50 0 81.5 32t31.5 81t-31.5 81.5t-81.5 32.5q-49 0 -80.5 -32.5t-31.5 -81.5zM100 254h309v-59h-309v59z" />
    <glyph glyph-name="guillemotright" unicode="&#xbb;" horiz-adv-x="540" 
d="M270 313v-22l-160 -201h-8l-37 23l117 189l-118 188l38 24h8zM490 313v-22l-160 -201h-9l-37 23l118 189l-119 188l38 24h9z" />
    <glyph glyph-name="onequarter" unicode="&#xbc;" horiz-adv-x="781" 
d="M739 64h-62v-64h-60v64h-186v41l168 223l18 -2v2h60v-218h62v-46zM139 9l369 671h62v-8l-368 -672h-63v9zM33 610l142 74h45v-328h-60v260l-103 -52zM493 110h124v165z" />
    <glyph glyph-name="onehalf" unicode="&#xbd;" horiz-adv-x="767" 
d="M139 9l369 671h62v-8l-368 -672h-63v9zM464 0v46l130 98q50 37 50 78q0 25 -16 41t-45 16q-35 0 -53.5 -19.5t-18.5 -52.5l-55 10q1 54 34.5 85.5t92.5 31.5q61 0 92 -30t31 -81q0 -65 -70 -115l-76 -55h156v-53h-252zM33 606l142 74h45v-328h-60v260l-103 -52z" />
    <glyph glyph-name="threequarters" unicode="&#xbe;" horiz-adv-x="836" 
d="M797 64h-62v-64h-60v64h-186v41l168 223l18 -2v2h60v-218h62v-46zM197 9l369 671h62v-8l-368 -672h-63v9zM92 550h80q28 0 44 12.5t16 31.5q0 43 -69 43q-51 0 -96 -20l-14 52q53 21 110 21q62 0 96 -23.5t34 -67.5q0 -26 -16.5 -46t-44.5 -26q72 -14 72 -81
q0 -44 -37 -69.5t-104 -25.5q-51 0 -111 20l16 51q43 -19 95 -19q35 0 57 14t22 38q0 44 -70 44h-80v51zM551 110h124v165z" />
    <glyph glyph-name="questiondown" unicode="&#xbf;" horiz-adv-x="478" 
d="M231 284h86q9 -25 9 -52q0 -48 -54 -83l-59 -39q-31 -22 -45.5 -43t-14.5 -54q0 -43 29.5 -68.5t75.5 -25.5q48 0 87 20.5t62 51.5l32 -80q-71 -79 -196 -79q-87 0 -140.5 48.5t-53.5 126.5q0 60 23.5 94.5t66.5 62.5l60 40q21 15 28.5 25.5t7.5 27.5q0 14 -4 27z
M344 466q0 -72 -71 -72q-34 0 -53 19t-19 53t19 52.5t53 18.5q71 0 71 -71z" />
    <glyph glyph-name="Agrave" unicode="&#xc0;" horiz-adv-x="710" 
d="M16 0l282 680h120l270 -680h-105l-60 150h-339l-62 -150h-106zM358 576l-147 -347h285zM320 753l-96 145h105l81 -145h-90z" />
    <glyph glyph-name="Aacute" unicode="&#xc1;" horiz-adv-x="710" 
d="M16 0l282 680h120l270 -680h-105l-60 150h-339l-62 -150h-106zM358 576l-147 -347h285zM484 898l-96 -145h-90l81 145h105z" />
    <glyph glyph-name="Acircumflex" unicode="&#xc2;" horiz-adv-x="710" 
d="M16 0l282 680h120l270 -680h-105l-60 150h-339l-62 -150h-106zM358 576l-147 -347h285zM432 753l-75 92l-75 -92h-83l106 145h103l106 -145h-82z" />
    <glyph glyph-name="Atilde" unicode="&#xc3;" horiz-adv-x="710" 
d="M16 0l282 680h120l270 -680h-105l-60 150h-339l-62 -150h-106zM358 576l-147 -347h285zM213 770l-34 43q15 32 43 54t61 22t81 -31.5t67 -31.5q45 0 69 47l34 -42q-38 -78 -103 -78q-31 0 -80 32t-67 32q-43 0 -71 -47z" />
    <glyph glyph-name="Adieresis" unicode="&#xc4;" horiz-adv-x="710" 
d="M16 0l282 680h120l270 -680h-105l-60 150h-339l-62 -150h-106zM358 576l-147 -347h285zM171 827q0 56 61 56t61 -56t-61 -56t-61 56zM423 827q0 56 62 56q60 0 60 -56t-60 -56q-62 0 -62 56z" />
    <glyph glyph-name="Aring" unicode="&#xc5;" horiz-adv-x="710" 
d="M259 740q0 40 28.5 69t69.5 29t69.5 -29t28.5 -69q0 -43 -32 -73l265 -667h-105l-60 150h-339l-62 -150h-106l276 666q-33 30 -33 74zM358 576l-147 -347h285zM305 740q0 -22 15 -37t37 -15q21 0 36 15t15 37q0 21 -15 36t-36 15q-22 0 -37 -15t-15 -36z" />
    <glyph glyph-name="AE" unicode="&#xc6;" horiz-adv-x="1065" 
d="M473 0v150h-268l-93 -150h-111l412 680h587v-92h-428v-194h355v-85h-355v-218h428v-91h-527zM246 229h227v376z" />
    <glyph glyph-name="Ccedilla" unicode="&#xc7;" horiz-adv-x="748" 
d="M326 -96l25 90q-130 18 -209 109t-79 236q0 163 97 257t251 94q129 0 202 -68.5t76 -188.5l-96 -20q-2 86 -49 133t-135 47q-108 0 -173 -67.5t-65 -186.5q0 -118 66 -185t176 -67q64 0 124 26t102 65l51 -78q-49 -47 -124 -78.5t-155 -31.5h-15l-14 -52q12 3 29 3
q40 0 62.5 -17.5t22.5 -46.5q0 -36 -30 -55.5t-77 -19.5q-41 0 -76 12l11 37q35 -11 62 -11q60 0 60 35q0 31 -55 31q-36 0 -62 -7z" />
    <glyph glyph-name="Egrave" unicode="&#xc8;" horiz-adv-x="698" 
d="M633 0h-527v680h527v-92h-428v-191h355v-92h-355v-213h428v-92zM331 753l-96 145h105l81 -145h-90z" />
    <glyph glyph-name="Eacute" unicode="&#xc9;" horiz-adv-x="698" 
d="M633 0h-527v680h527v-92h-428v-191h355v-92h-355v-213h428v-92zM498 898l-96 -145h-90l81 145h105z" />
    <glyph glyph-name="Ecircumflex" unicode="&#xca;" horiz-adv-x="698" 
d="M633 0h-527v680h527v-92h-428v-191h355v-92h-355v-213h428v-92zM444 753l-75 92l-75 -92h-83l106 145h103l106 -145h-82z" />
    <glyph glyph-name="Edieresis" unicode="&#xcb;" horiz-adv-x="698" 
d="M633 0h-527v680h527v-92h-428v-191h355v-92h-355v-213h428v-92zM182 827q0 56 61 56t61 -56t-61 -56t-61 56zM434 827q0 56 62 56q60 0 60 -56t-60 -56q-62 0 -62 56z" />
    <glyph glyph-name="Igrave" unicode="&#xcc;" horiz-adv-x="315" 
d="M106 0v680h104v-680h-104zM120 753l-96 145h105l81 -145h-90z" />
    <glyph glyph-name="Iacute" unicode="&#xcd;" horiz-adv-x="315" 
d="M106 0v680h104v-680h-104zM294 898l-96 -145h-90l81 145h105z" />
    <glyph glyph-name="Icircumflex" unicode="&#xce;" horiz-adv-x="315" 
d="M106 0v680h104v-680h-104zM232 753l-75 92l-75 -92h-83l106 145h103l106 -145h-82z" />
    <glyph glyph-name="Idieresis" unicode="&#xcf;" horiz-adv-x="315" 
d="M106 0v680h104v-680h-104zM-30 827q0 56 61 56t61 -56t-61 -56t-61 56zM222 827q0 56 62 56q60 0 60 -56t-60 -56q-62 0 -62 56z" />
    <glyph glyph-name="Eth" unicode="&#xd0;" horiz-adv-x="798" 
d="M106 0v299h-64v83h64v298h277q156 -1 253.5 -90.5t97.5 -250.5q0 -160 -97.5 -249.5t-253.5 -89.5h-277zM365 299h-155v-208h169q112 0 180.5 65.5t68.5 182.5q0 118 -68.5 183.5t-180.5 66.5h-169v-207h155v-83z" />
    <glyph glyph-name="Ntilde" unicode="&#xd1;" horiz-adv-x="839" 
d="M642 0l-432 514v-514h-104v680h91l432 -516v516h104v-680h-91zM281 770l-34 43q15 32 43 54t61 22t81 -31.5t67 -31.5q45 0 69 47l34 -42q-38 -78 -103 -78q-31 0 -80 32t-67 32q-43 0 -71 -47z" />
    <glyph glyph-name="Ograve" unicode="&#xd2;" horiz-adv-x="823" 
d="M61 339q0 151 100 251t249 100q151 0 251 -100t100 -251q0 -149 -100 -249t-251 -100q-149 0 -249 100t-100 249zM164 339q0 -108 70 -179.5t177 -71.5q108 0 178 71.5t70 179.5q0 109 -70 180.5t-178 71.5q-107 0 -177 -71.5t-70 -180.5zM369 753l-96 145h105l81 -145
h-90z" />
    <glyph glyph-name="Oacute" unicode="&#xd3;" horiz-adv-x="823" 
d="M61 339q0 151 100 251t249 100q151 0 251 -100t100 -251q0 -149 -100 -249t-251 -100q-149 0 -249 100t-100 249zM164 339q0 -108 70 -179.5t177 -71.5q108 0 178 71.5t70 179.5q0 109 -70 180.5t-178 71.5q-107 0 -177 -71.5t-70 -180.5zM548 898l-96 -145h-90l81 145
h105z" />
    <glyph glyph-name="Ocircumflex" unicode="&#xd4;" horiz-adv-x="823" 
d="M61 339q0 151 100 251t249 100q151 0 251 -100t100 -251q0 -149 -100 -249t-251 -100q-149 0 -249 100t-100 249zM164 339q0 -108 70 -179.5t177 -71.5q108 0 178 71.5t70 179.5q0 109 -70 180.5t-178 71.5q-107 0 -177 -71.5t-70 -180.5zM485 753l-75 92l-75 -92h-83
l106 145h103l106 -145h-82z" />
    <glyph glyph-name="Otilde" unicode="&#xd5;" horiz-adv-x="823" 
d="M61 339q0 151 100 251t249 100q151 0 251 -100t100 -251q0 -149 -100 -249t-251 -100q-149 0 -249 100t-100 249zM164 339q0 -108 70 -179.5t177 -71.5q108 0 178 71.5t70 179.5q0 109 -70 180.5t-178 71.5q-107 0 -177 -71.5t-70 -180.5zM266 770l-34 43q15 32 43 54
t61 22t81 -31.5t67 -31.5q46 0 69 47l34 -42q-38 -78 -103 -78q-31 0 -80 32t-67 32q-43 0 -71 -47z" />
    <glyph glyph-name="Odieresis" unicode="&#xd6;" horiz-adv-x="823" 
d="M61 339q0 151 100 251t249 100q151 0 251 -100t100 -251q0 -149 -100 -249t-251 -100q-149 0 -249 100t-100 249zM164 339q0 -108 70 -179.5t177 -71.5q108 0 178 71.5t70 179.5q0 109 -70 180.5t-178 71.5q-107 0 -177 -71.5t-70 -180.5zM223 827q0 56 61 56t61 -56
t-61 -56t-61 56zM475 827q0 56 62 56q60 0 60 -56t-60 -56q-62 0 -62 56z" />
    <glyph glyph-name="multiply" unicode="&#xd7;" 
d="M494 438l-136 -135l136 -136l-59 -59l-135 136l-136 -136l-59 59l136 136l-136 135l59 59l136 -136l135 136z" />
    <glyph glyph-name="Oslash" unicode="&#xd8;" horiz-adv-x="823" 
d="M61 339q0 151 100 251t249 100q112 0 201 -59l40 49h76v-8l-67 -82q101 -99 101 -251q0 -149 -100 -249t-251 -100q-106 0 -192 54l-36 -44h-77v9l61 75q-105 102 -105 255zM162 339q0 -106 68 -177l318 391q-61 39 -138 39q-107 0 -177.5 -72t-70.5 -181zM660 339
q0 102 -63 173l-317 -390q59 -35 130 -35q108 0 179 72t71 180z" />
    <glyph glyph-name="Ugrave" unicode="&#xd9;" horiz-adv-x="795" 
d="M201 680v-392q0 -94 49 -148t146 -54q98 0 148 55.5t50 147.5v391h104v-399q0 -124 -79.5 -208t-222.5 -84q-144 0 -221.5 80t-77.5 212v399h104zM355 753l-96 145h105l81 -145h-90z" />
    <glyph glyph-name="Uacute" unicode="&#xda;" horiz-adv-x="795" 
d="M201 680v-392q0 -94 49 -148t146 -54q98 0 148 55.5t50 147.5v391h104v-399q0 -124 -79.5 -208t-222.5 -84q-144 0 -221.5 80t-77.5 212v399h104zM534 898l-96 -145h-90l81 145h105z" />
    <glyph glyph-name="Ucircumflex" unicode="&#xdb;" horiz-adv-x="795" 
d="M201 680v-392q0 -94 49 -148t146 -54q98 0 148 55.5t50 147.5v391h104v-399q0 -124 -79.5 -208t-222.5 -84q-144 0 -221.5 80t-77.5 212v399h104zM472 753l-75 92l-75 -92h-83l106 145h103l106 -145h-82z" />
    <glyph glyph-name="Udieresis" unicode="&#xdc;" horiz-adv-x="795" 
d="M201 680v-392q0 -94 49 -148t146 -54q98 0 148 55.5t50 147.5v391h104v-399q0 -124 -79.5 -208t-222.5 -84q-144 0 -221.5 80t-77.5 212v399h104zM210 827q0 56 61 56t61 -56t-61 -56t-61 56zM462 827q0 56 62 56q60 0 60 -56t-60 -56q-62 0 -62 56z" />
    <glyph glyph-name="Yacute" unicode="&#xdd;" horiz-adv-x="676" 
d="M286 0v278l-275 394v8h116l211 -306l211 306h116v-8l-275 -393v-279h-104zM474 898l-96 -145h-90l81 145h105z" />
    <glyph glyph-name="Thorn" unicode="&#xde;" horiz-adv-x="702" 
d="M106 0v680h104v-102h204q106 0 174 -57t68 -174q0 -108 -69.5 -168.5t-172.5 -60.5h-204v-118h-104zM400 487h-190v-277h190q66 0 108 35t42 102q0 71 -41.5 105.5t-108.5 34.5z" />
    <glyph glyph-name="germandbls" unicode="&#xdf;" horiz-adv-x="675" 
d="M345 720q105 0 166 -59.5t61 -140.5q0 -32 -12.5 -61t-27 -46t-27 -32t-12.5 -23q0 -7 21 -25t46 -39t46 -57.5t21 -76.5q0 -82 -53 -126t-140 -44q-81 0 -151 30l17 85q48 -26 105 -26q50 0 80 24t30 64q0 30 -21.5 59t-47 47.5t-47 38.5t-21.5 35q0 16 14 34.5t30 34.5
t30 42.5t14 55.5q0 50 -37.5 82.5t-92.5 32.5q-67 0 -105.5 -48.5t-38.5 -129.5v-451h-104v443q0 134 72.5 205.5t184.5 71.5z" />
    <glyph glyph-name="agrave" unicode="&#xe0;" horiz-adv-x="701" 
d="M573 523v-385q0 -59 42 -59q27 0 56 18l7 -83q-44 -24 -101 -24q-83 0 -101 77q-67 -76 -173 -76q-112 0 -181 75t-69 194q0 120 69 196t181 76q104 0 166 -62v53h104zM469 140v242q-22 24 -60 41.5t-79 17.5q-78 0 -125 -50t-47 -131q0 -79 47.5 -129t124.5 -50
q82 0 139 59zM314 596l-96 145h105l81 -145h-90z" />
    <glyph glyph-name="aacute" unicode="&#xe1;" horiz-adv-x="701" 
d="M573 523v-385q0 -59 42 -59q27 0 56 18l7 -83q-44 -24 -101 -24q-83 0 -101 77q-67 -76 -173 -76q-112 0 -181 75t-69 194q0 120 69 196t181 76q104 0 166 -62v53h104zM469 140v242q-22 24 -60 41.5t-79 17.5q-78 0 -125 -50t-47 -131q0 -79 47.5 -129t124.5 -50
q82 0 139 59zM481 741l-96 -145h-90l81 145h105z" />
    <glyph glyph-name="acircumflex" unicode="&#xe2;" horiz-adv-x="701" 
d="M573 523v-385q0 -59 42 -59q27 0 56 18l7 -83q-44 -24 -101 -24q-83 0 -101 77q-67 -76 -173 -76q-112 0 -181 75t-69 194q0 120 69 196t181 76q104 0 166 -62v53h104zM469 140v242q-22 24 -60 41.5t-79 17.5q-78 0 -125 -50t-47 -131q0 -79 47.5 -129t124.5 -50
q82 0 139 59zM415 596l-75 92l-75 -92h-83l106 145h103l106 -145h-82z" />
    <glyph glyph-name="atilde" unicode="&#xe3;" horiz-adv-x="701" 
d="M573 523v-385q0 -59 42 -59q27 0 56 18l7 -83q-44 -24 -101 -24q-83 0 -101 77q-67 -76 -173 -76q-112 0 -181 75t-69 194q0 120 69 196t181 76q104 0 166 -62v53h104zM469 140v242q-22 24 -60 41.5t-79 17.5q-78 0 -125 -50t-47 -131q0 -79 47.5 -129t124.5 -50
q82 0 139 59zM200 613l-34 43q15 32 43 54t61 22t81 -31.5t67 -31.5q46 0 69 47l34 -42q-38 -78 -103 -78q-31 0 -80 32t-67 32q-43 0 -71 -47z" />
    <glyph glyph-name="adieresis" unicode="&#xe4;" horiz-adv-x="701" 
d="M573 523v-385q0 -59 42 -59q27 0 56 18l7 -83q-44 -24 -101 -24q-83 0 -101 77q-67 -76 -173 -76q-112 0 -181 75t-69 194q0 120 69 196t181 76q104 0 166 -62v53h104zM469 140v242q-22 24 -60 41.5t-79 17.5q-78 0 -125 -50t-47 -131q0 -79 47.5 -129t124.5 -50
q82 0 139 59zM167 670q0 56 61 56t61 -56t-61 -56t-61 56zM419 670q0 56 62 56q60 0 60 -56t-60 -56q-62 0 -62 56z" />
    <glyph glyph-name="aring" unicode="&#xe5;" horiz-adv-x="701" 
d="M573 523v-385q0 -59 42 -59q27 0 56 18l7 -83q-44 -24 -101 -24q-83 0 -101 77q-67 -76 -173 -76q-112 0 -181 75t-69 194q0 120 69 196t181 76q104 0 166 -62v53h104zM469 140v242q-22 24 -60 41.5t-79 17.5q-78 0 -125 -50t-47 -131q0 -79 47.5 -129t124.5 -50
q82 0 139 59zM248 670q0 40 29 69t69 29t69 -29t29 -69t-29 -69t-69 -29t-69 29t-29 69zM294 670q0 -22 15 -37t37 -15q21 0 36 15t15 37q0 21 -15 36t-36 15q-22 0 -37 -15t-15 -36z" />
    <glyph glyph-name="ae" unicode="&#xe6;" horiz-adv-x="921" 
d="M857 227h-363q3 -75 40.5 -114t123.5 -39t161 58l41 -75q-87 -71 -211 -71q-146 0 -201 93q-101 -94 -218 -94q-86 0 -137 44.5t-51 117.5q0 88 68.5 137t190.5 49q56 0 87 -7q0 67 -22 94t-84 27q-99 0 -173 -37l-19 92q87 35 203 35q81 0 116.5 -29t49.5 -82
q25 46 71.5 78.5t112.5 32.5q112 0 168 -61.5t56 -156.5q0 -61 -10 -92zM642 450q-65 0 -101.5 -41.5t-38.5 -100.5h268q2 16 2 22q0 53 -33.5 86.5t-96.5 33.5zM146 157q0 -39 29 -61t78 -22q71 0 134 58v111q-41 9 -89 9q-152 -5 -152 -95z" />
    <glyph glyph-name="ccedilla" unicode="&#xe7;" horiz-adv-x="606" 
d="M252 -96l24 86q-112 15 -167.5 87t-55.5 183q0 121 75.5 199t199.5 78q108 0 167.5 -54.5t63.5 -146.5l-93 -22q-8 131 -137 131q-78 0 -123.5 -51t-45.5 -131q0 -83 46 -134t141 -51q84 0 165 62l41 -82q-92 -72 -218 -72h-14l-13 -48q12 3 29 3q40 0 62.5 -17.5
t22.5 -46.5q0 -36 -30 -55.5t-77 -19.5q-41 0 -76 12l11 37q35 -11 62 -11q60 0 60 35q0 31 -55 31q-36 0 -62 -7z" />
    <glyph glyph-name="egrave" unicode="&#xe8;" horiz-adv-x="611" 
d="M510 132l41 -75q-87 -71 -217 -71q-141 0 -212 76.5t-71 197.5q0 118 75.5 197.5t198.5 79.5q114 0 173.5 -61.5t59.5 -156.5q0 -57 -11 -92h-389q8 -71 52.5 -112t126.5 -41q96 0 173 58zM456 308q2 16 2 28q0 49 -34 81.5t-101 32.5q-70 0 -113.5 -41t-49.5 -101h296z
M300 596l-96 145h105l81 -145h-90z" />
    <glyph glyph-name="eacute" unicode="&#xe9;" horiz-adv-x="611" 
d="M510 132l41 -75q-87 -71 -217 -71q-141 0 -212 76.5t-71 197.5q0 118 75.5 197.5t198.5 79.5q114 0 173.5 -61.5t59.5 -156.5q0 -57 -11 -92h-389q8 -71 52.5 -112t126.5 -41q96 0 173 58zM456 308q2 16 2 28q0 49 -34 81.5t-101 32.5q-70 0 -113.5 -41t-49.5 -101h296z
M459 741l-96 -145h-90l81 145h105z" />
    <glyph glyph-name="ecircumflex" unicode="&#xea;" horiz-adv-x="611" 
d="M510 132l41 -75q-87 -71 -217 -71q-141 0 -212 76.5t-71 197.5q0 118 75.5 197.5t198.5 79.5q114 0 173.5 -61.5t59.5 -156.5q0 -57 -11 -92h-389q8 -71 52.5 -112t126.5 -41q96 0 173 58zM456 308q2 16 2 28q0 49 -34 81.5t-101 32.5q-70 0 -113.5 -41t-49.5 -101h296z
M405 596l-75 92l-75 -92h-83l106 145h103l106 -145h-82z" />
    <glyph glyph-name="edieresis" unicode="&#xeb;" horiz-adv-x="611" 
d="M510 132l41 -75q-87 -71 -217 -71q-141 0 -212 76.5t-71 197.5q0 118 75.5 197.5t198.5 79.5q114 0 173.5 -61.5t59.5 -156.5q0 -57 -11 -92h-389q8 -71 52.5 -112t126.5 -41q96 0 173 58zM456 308q2 16 2 28q0 49 -34 81.5t-101 32.5q-70 0 -113.5 -41t-49.5 -101h296z
M142 670q0 56 61 56t61 -56t-61 -56t-61 56zM394 670q0 56 62 56q60 0 60 -56t-60 -56q-62 0 -62 56z" />
    <glyph glyph-name="igrave" unicode="&#xec;" horiz-adv-x="322" 
d="M87 523h104v-385q0 -59 42 -59q30 0 55 18l8 -83q-10 -8 -40 -16t-62 -8q-107 0 -107 125v408zM111 596l-96 145h105l81 -145h-90z" />
    <glyph glyph-name="iacute" unicode="&#xed;" horiz-adv-x="322" 
d="M87 523h104v-385q0 -59 42 -59q30 0 55 18l8 -83q-10 -8 -40 -16t-62 -8q-107 0 -107 125v408zM275 741l-96 -145h-90l81 145h105z" />
    <glyph glyph-name="icircumflex" unicode="&#xee;" horiz-adv-x="322" 
d="M87 523h104v-385q0 -59 42 -59q30 0 55 18l8 -83q-10 -8 -40 -16t-62 -8q-107 0 -107 125v408zM214 596l-75 92l-75 -92h-83l106 145h103l106 -145h-82z" />
    <glyph glyph-name="idieresis" unicode="&#xef;" horiz-adv-x="322" 
d="M87 523h104v-385q0 -59 42 -59q30 0 55 18l8 -83q-10 -8 -40 -16t-62 -8q-107 0 -107 125v408zM-47 670q0 56 61 56t61 -56t-61 -56t-61 56zM205 670q0 56 62 56q60 0 60 -56t-60 -56q-62 0 -62 56z" />
    <glyph glyph-name="eth" unicode="&#xf0;" horiz-adv-x="624" 
d="M472 702l-54 -56q64 -53 102 -131.5t38 -173.5q0 -161 -72 -256t-203 -95q-102 0 -168.5 66.5t-66.5 174.5q0 100 57.5 161t156.5 61q111 0 191 -94q-5 129 -99 219l-60 -62l-30 27l59 61q-47 34 -91 49l41 67q58 -13 113 -50l55 58zM287 86q69 0 109.5 49t52.5 136
q-70 96 -163 96q-62 0 -98.5 -35.5t-36.5 -101.5q0 -61 38 -102.5t98 -41.5z" />
    <glyph glyph-name="ntilde" unicode="&#xf1;" horiz-adv-x="687" 
d="M88 523h104v-80q61 89 180 89q97 0 147 -64t50 -167v-163q0 -59 42 -59q26 0 55 18l7 -83q-44 -24 -101 -24q-107 0 -107 125v170q0 69 -33 110t-96 41q-52 0 -90.5 -33t-53.5 -80v-323h-104v523zM193 613l-34 43q15 32 43 54t61 22t81 -31.5t67 -31.5q45 0 69 47l34 -42
q-38 -78 -103 -78q-31 0 -80 32t-67 32q-43 0 -71 -47z" />
    <glyph glyph-name="ograve" unicode="&#xf2;" horiz-adv-x="660" 
d="M50 260q0 120 79 198.5t200 78.5q122 0 201 -78.5t79 -198.5q0 -118 -79 -196t-201 -78q-121 0 -200 78t-79 196zM151 260q0 -76 50 -127t128 -51q79 0 129.5 50.5t50.5 127.5q0 78 -50.5 129.5t-129.5 51.5q-78 0 -128 -51.5t-50 -129.5zM288 596l-96 145h105l81 -145
h-90z" />
    <glyph glyph-name="oacute" unicode="&#xf3;" horiz-adv-x="660" 
d="M50 260q0 120 79 198.5t200 78.5q122 0 201 -78.5t79 -198.5q0 -118 -79 -196t-201 -78q-121 0 -200 78t-79 196zM151 260q0 -76 50 -127t128 -51q79 0 129.5 50.5t50.5 127.5q0 78 -50.5 129.5t-129.5 51.5q-78 0 -128 -51.5t-50 -129.5zM466 741l-96 -145h-90l81 145
h105z" />
    <glyph glyph-name="ocircumflex" unicode="&#xf4;" horiz-adv-x="660" 
d="M50 260q0 120 79 198.5t200 78.5q122 0 201 -78.5t79 -198.5q0 -118 -79 -196t-201 -78q-121 0 -200 78t-79 196zM151 260q0 -76 50 -127t128 -51q79 0 129.5 50.5t50.5 127.5q0 78 -50.5 129.5t-129.5 51.5q-78 0 -128 -51.5t-50 -129.5zM404 596l-75 92l-75 -92h-83
l106 145h103l106 -145h-82z" />
    <glyph glyph-name="otilde" unicode="&#xf5;" horiz-adv-x="660" 
d="M50 260q0 120 79 198.5t200 78.5q122 0 201 -78.5t79 -198.5q0 -118 -79 -196t-201 -78q-121 0 -200 78t-79 196zM151 260q0 -76 50 -127t128 -51q79 0 129.5 50.5t50.5 127.5q0 78 -50.5 129.5t-129.5 51.5q-78 0 -128 -51.5t-50 -129.5zM185 613l-34 43q15 32 43 54
t61 22t81 -31.5t67 -31.5q45 0 69 47l34 -42q-38 -78 -103 -78q-31 0 -80 32t-67 32q-43 0 -71 -47z" />
    <glyph glyph-name="odieresis" unicode="&#xf6;" horiz-adv-x="660" 
d="M50 260q0 120 79 198.5t200 78.5q122 0 201 -78.5t79 -198.5q0 -118 -79 -196t-201 -78q-121 0 -200 78t-79 196zM151 260q0 -76 50 -127t128 -51q79 0 129.5 50.5t50.5 127.5q0 78 -50.5 129.5t-129.5 51.5q-78 0 -128 -51.5t-50 -129.5zM142 670q0 56 61 56t61 -56
t-61 -56t-61 56zM394 670q0 56 62 56q60 0 60 -56t-60 -56q-62 0 -62 56z" />
    <glyph glyph-name="divide" unicode="&#xf7;" 
d="M66 344h468v-83h-468v83zM231 487q0 31 16.5 48t47.5 17t48 -17t17 -48t-17 -48t-48 -17q-64 0 -64 65zM231 117q0 31 16.5 48t47.5 17t48 -17t17 -48t-17 -48t-48 -17q-64 0 -64 65z" />
    <glyph glyph-name="oslash" unicode="&#xf8;" horiz-adv-x="660" 
d="M50 260q0 120 79 198.5t200 78.5q96 0 166 -50l30 36h55v-9l-48 -58q77 -77 77 -196q0 -118 -79 -196t-201 -78q-84 0 -150 39l-21 -25h-57v9l38 46q-89 78 -89 205zM151 260q0 -80 51 -129l231 280q-46 30 -104 30q-78 0 -128 -51.5t-50 -129.5zM509 260q0 69 -41 118
l-227 -276q37 -21 88 -21q79 0 129.5 51t50.5 128z" />
    <glyph glyph-name="ugrave" unicode="&#xf9;" horiz-adv-x="689" 
d="M457 523h104v-385q0 -59 41 -59q25 0 56 18l8 -83q-44 -24 -102 -24q-85 0 -103 79q-60 -79 -184 -79q-98 0 -147 61.5t-49 168.5v303h104v-288q0 -75 30 -112t99 -37q52 0 88.5 27t54.5 66v344zM281 596l-96 145h105l81 -145h-90z" />
    <glyph glyph-name="uacute" unicode="&#xfa;" horiz-adv-x="689" 
d="M457 523h104v-385q0 -59 41 -59q25 0 56 18l8 -83q-44 -24 -102 -24q-85 0 -103 79q-60 -79 -184 -79q-98 0 -147 61.5t-49 168.5v303h104v-288q0 -75 30 -112t99 -37q52 0 88.5 27t54.5 66v344zM465 741l-96 -145h-90l81 145h105z" />
    <glyph glyph-name="ucircumflex" unicode="&#xfb;" horiz-adv-x="689" 
d="M457 523h104v-385q0 -59 41 -59q25 0 56 18l8 -83q-44 -24 -102 -24q-85 0 -103 79q-60 -79 -184 -79q-98 0 -147 61.5t-49 168.5v303h104v-288q0 -75 30 -112t99 -37q52 0 88.5 27t54.5 66v344zM400 596l-75 92l-75 -92h-83l106 145h103l106 -145h-82z" />
    <glyph glyph-name="udieresis" unicode="&#xfc;" horiz-adv-x="689" 
d="M457 523h104v-385q0 -59 41 -59q25 0 56 18l8 -83q-44 -24 -102 -24q-85 0 -103 79q-60 -79 -184 -79q-98 0 -147 61.5t-49 168.5v303h104v-288q0 -75 30 -112t99 -37q52 0 88.5 27t54.5 66v344zM138 670q0 56 61 56t61 -56t-61 -56t-61 56zM390 670q0 56 62 56
q60 0 60 -56t-60 -56q-62 0 -62 56z" />
    <glyph glyph-name="yacute" unicode="&#xfd;" horiz-adv-x="586" 
d="M12 523h115l176 -409l163 409h106l-229 -544q-38 -93 -82.5 -135t-122.5 -42q-65 0 -120 36l17 85q52 -32 103 -32q40 0 62.5 19.5t42.5 64.5l14 34zM433 741l-96 -145h-90l81 145h105z" />
    <glyph glyph-name="thorn" unicode="&#xfe;" horiz-adv-x="663" 
d="M611 262q0 -119 -69.5 -195.5t-181.5 -76.5q-105 0 -168 66v-244h-104v898h104v-241q65 63 168 63q112 0 181.5 -75.5t69.5 -194.5zM504 262q0 80 -47 129.5t-125 49.5q-80 0 -140 -62v-239q23 -24 61 -41.5t79 -17.5q78 0 125 50t47 131z" />
    <glyph glyph-name="ydieresis" unicode="&#xff;" horiz-adv-x="586" 
d="M12 523h115l176 -409l163 409h106l-229 -544q-38 -93 -82.5 -135t-122.5 -42q-65 0 -120 36l17 85q52 -32 103 -32q40 0 62.5 19.5t42.5 64.5l14 34zM113 670q0 56 61 56t61 -56t-61 -56t-61 56zM365 670q0 56 62 56q60 0 60 -56t-60 -56q-62 0 -62 56z" />
    <glyph glyph-name="Amacron" unicode="&#x100;" horiz-adv-x="710" 
d="M16 0l282 680h120l270 -680h-105l-60 150h-339l-62 -150h-106zM358 576l-147 -347h285zM481 780h-247v73h247v-73z" />
    <glyph glyph-name="amacron" unicode="&#x101;" horiz-adv-x="701" 
d="M573 523v-385q0 -59 42 -59q27 0 56 18l7 -83q-44 -24 -101 -24q-83 0 -101 77q-67 -76 -173 -76q-112 0 -181 75t-69 194q0 120 69 196t181 76q104 0 166 -62v53h104zM469 140v242q-22 24 -60 41.5t-79 17.5q-78 0 -125 -50t-47 -131q0 -79 47.5 -129t124.5 -50
q82 0 139 59zM469 623h-247v73h247v-73z" />
    <glyph glyph-name="Abreve" unicode="&#x102;" horiz-adv-x="710" 
d="M16 0l282 680h120l270 -680h-105l-60 150h-339l-62 -150h-106zM358 576l-147 -347h285zM217 837l30 43q38 -51 110 -51t109 51l30 -43q-46 -79 -138 -79q-93 0 -141 79z" />
    <glyph glyph-name="abreve" unicode="&#x103;" horiz-adv-x="701" 
d="M573 523v-385q0 -59 42 -59q27 0 56 18l7 -83q-44 -24 -101 -24q-83 0 -101 77q-67 -76 -173 -76q-112 0 -181 75t-69 194q0 120 69 196t181 76q104 0 166 -62v53h104zM469 140v242q-22 24 -60 41.5t-79 17.5q-78 0 -125 -50t-47 -131q0 -79 47.5 -129t124.5 -50
q82 0 139 59zM206 680l30 43q38 -51 110 -51t109 51l30 -43q-46 -79 -138 -79q-93 0 -141 79z" />
    <glyph glyph-name="Aogonek" unicode="&#x104;" horiz-adv-x="710" 
d="M16 0l282 680h120l270 -680h-33q-41 -2 -67.5 -21t-26.5 -52q0 -26 15.5 -40.5t41.5 -14.5q27 0 56 18l11 -49q-36 -20 -81 -20q-43 0 -69 25t-26 68q0 33 21.5 57.5t50.5 33.5l-58 145h-339l-62 -150h-106zM358 576l-147 -347h285z" />
    <glyph glyph-name="aogonek" unicode="&#x105;" horiz-adv-x="701" 
d="M573 523v-385q0 -59 42 -59q27 0 56 18l7 -83q-34 -18 -74 -22q-58 -21 -58 -65q0 -26 15.5 -40.5t42.5 -14.5t55 18l11 -49q-35 -20 -80 -20q-43 0 -69.5 25t-26.5 68q0 49 51 79q-55 12 -69 74q-67 -76 -173 -76q-112 0 -181 75t-69 194q0 120 69 196t181 76
q104 0 166 -62v53h104zM469 140v242q-22 24 -60 41.5t-79 17.5q-78 0 -125 -50t-47 -131q0 -79 47.5 -129t124.5 -50q82 0 139 59z" />
    <glyph glyph-name="Cacute" unicode="&#x106;" horiz-adv-x="748" 
d="M639 178l51 -78q-49 -47 -124 -78.5t-155 -31.5q-154 0 -251 94t-97 255q0 163 97 257t251 94q129 0 202 -68.5t76 -188.5l-96 -20q-2 86 -49 133t-135 47q-108 0 -173 -67.5t-65 -186.5q0 -118 66 -185t176 -67q64 0 124 26t102 65zM550 898l-96 -145h-90l81 145h105z
" />
    <glyph glyph-name="cacute" unicode="&#x107;" horiz-adv-x="605" 
d="M511 140l41 -82q-92 -72 -218 -72q-142 0 -212 75t-70 199q0 121 75.5 199t199.5 78q108 0 167.5 -54.5t63.5 -146.5l-93 -22q-8 131 -137 131q-78 0 -123.5 -51t-45.5 -131q0 -83 46 -134t141 -51q84 0 165 62zM460 741l-96 -145h-90l81 145h105z" />
    <glyph glyph-name="Ccircumflex" unicode="&#x108;" horiz-adv-x="748" 
d="M639 178l51 -78q-49 -47 -124 -78.5t-155 -31.5q-154 0 -251 94t-97 255q0 163 97 257t251 94q129 0 202 -68.5t76 -188.5l-96 -20q-2 86 -49 133t-135 47q-108 0 -173 -67.5t-65 -186.5q0 -118 66 -185t176 -67q64 0 124 26t102 65zM487 753l-75 92l-75 -92h-83l106 145
h103l106 -145h-82z" />
    <glyph glyph-name="ccircumflex" unicode="&#x109;" horiz-adv-x="605" 
d="M511 140l41 -82q-92 -72 -218 -72q-142 0 -212 75t-70 199q0 121 75.5 199t199.5 78q108 0 167.5 -54.5t63.5 -146.5l-93 -22q-8 131 -137 131q-78 0 -123.5 -51t-45.5 -131q0 -83 46 -134t141 -51q84 0 165 62zM403 596l-75 92l-75 -92h-83l106 145h103l106 -145h-82z
" />
    <glyph glyph-name="Cdotaccent" unicode="&#x10a;" horiz-adv-x="748" 
d="M639 178l51 -78q-49 -47 -124 -78.5t-155 -31.5q-154 0 -251 94t-97 255q0 163 97 257t251 94q129 0 202 -68.5t76 -188.5l-96 -20q-2 86 -49 133t-135 47q-108 0 -173 -67.5t-65 -186.5q0 -118 66 -185t176 -67q64 0 124 26t102 65zM347 829q0 58 66 58q64 0 64 -58
q0 -59 -64 -59q-66 0 -66 59z" />
    <glyph glyph-name="cdotaccent" unicode="&#x10b;" horiz-adv-x="605" 
d="M511 140l41 -82q-92 -72 -218 -72q-142 0 -212 75t-70 199q0 121 75.5 199t199.5 78q108 0 167.5 -54.5t63.5 -146.5l-93 -22q-8 131 -137 131q-78 0 -123.5 -51t-45.5 -131q0 -83 46 -134t141 -51q84 0 165 62zM266 672q0 58 66 58q64 0 64 -58q0 -59 -64 -59
q-66 0 -66 59z" />
    <glyph glyph-name="Ccaron" unicode="&#x10c;" horiz-adv-x="748" 
d="M639 178l51 -78q-49 -47 -124 -78.5t-155 -31.5q-154 0 -251 94t-97 255q0 163 97 257t251 94q129 0 202 -68.5t76 -188.5l-96 -20q-2 86 -49 133t-135 47q-108 0 -173 -67.5t-65 -186.5q0 -118 66 -185t176 -67q64 0 124 26t102 65zM339 898l75 -91l75 91h82l-106 -145
h-103l-106 145h83z" />
    <glyph glyph-name="ccaron" unicode="&#x10d;" horiz-adv-x="605" 
d="M511 140l41 -82q-92 -72 -218 -72q-142 0 -212 75t-70 199q0 121 75.5 199t199.5 78q108 0 167.5 -54.5t63.5 -146.5l-93 -22q-8 131 -137 131q-78 0 -123.5 -51t-45.5 -131q0 -83 46 -134t141 -51q84 0 165 62zM257 741l75 -91l75 91h82l-106 -145h-103l-106 145h83z
" />
    <glyph glyph-name="Dcaron" unicode="&#x10e;" horiz-adv-x="797" 
d="M106 0v680h276q156 -1 253.5 -90.5t97.5 -250.5q0 -160 -97.5 -249.5t-253.5 -89.5h-276zM378 589h-168v-498h168q112 0 180 65.5t68 182.5q0 119 -68 184t-180 66zM272 898l75 -91l75 91h82l-106 -145h-103l-106 145h83z" />
    <glyph glyph-name="dcaron" unicode="&#x10f;" horiz-adv-x="721" 
d="M470 710h104v-573q0 -58 42 -58q23 0 54 18l8 -83q-42 -24 -102 -24q-82 0 -101 72q-62 -72 -173 -72t-180.5 76.5t-69.5 195.5t69.5 194.5t180.5 75.5q103 0 168 -62v240zM158 262q0 -81 47.5 -131t125.5 -50q41 0 79 17.5t60 41.5v240q-59 61 -139 61
q-78 0 -125.5 -49.5t-47.5 -129.5zM664 509l24 67q-53 8 -53 54q0 28 17 43.5t44 15.5q33 0 51.5 -17.5t18.5 -49.5q0 -64 -50 -132z" />
    <glyph glyph-name="Dcroat" unicode="&#x110;" horiz-adv-x="798" 
d="M106 0v299h-64v83h64v298h277q156 -1 253.5 -90.5t97.5 -250.5q0 -160 -97.5 -249.5t-253.5 -89.5h-277zM365 299h-155v-208h169q112 0 180.5 65.5t68.5 182.5q0 118 -68.5 183.5t-180.5 66.5h-169v-207h155v-83z" />
    <glyph glyph-name="dcroat" unicode="&#x111;" horiz-adv-x="701" 
d="M470 710h104v-60h96v-76h-96v-437q0 -58 42 -58q23 0 54 18l8 -83q-42 -24 -102 -24q-82 0 -101 72q-62 -72 -173 -72t-180.5 76.5t-69.5 195.5t69.5 194.5t180.5 75.5q103 0 168 -62v104h-122v76h122v60zM158 262q0 -81 47.5 -131t125.5 -50q41 0 79 17.5t60 41.5v240
q-59 61 -139 61q-78 0 -125.5 -49.5t-47.5 -129.5z" />
    <glyph glyph-name="Emacron" unicode="&#x112;" horiz-adv-x="698" 
d="M633 0h-527v680h527v-92h-428v-191h355v-92h-355v-213h428v-92zM492 780h-247v73h247v-73z" />
    <glyph glyph-name="emacron" unicode="&#x113;" horiz-adv-x="611" 
d="M510 132l41 -75q-87 -71 -217 -71q-141 0 -212 76.5t-71 197.5q0 118 75.5 197.5t198.5 79.5q114 0 173.5 -61.5t59.5 -156.5q0 -57 -11 -92h-389q8 -71 52.5 -112t126.5 -41q96 0 173 58zM456 308q2 16 2 28q0 49 -34 81.5t-101 32.5q-70 0 -113.5 -41t-49.5 -101h296z
M449 623h-247v73h247v-73z" />
    <glyph glyph-name="Ebreve" unicode="&#x114;" horiz-adv-x="698" 
d="M633 0h-527v680h527v-92h-428v-191h355v-92h-355v-213h428v-92zM228 837l30 43q38 -51 110 -51t109 51l30 -43q-46 -79 -138 -79q-93 0 -141 79z" />
    <glyph glyph-name="ebreve" unicode="&#x115;" horiz-adv-x="611" 
d="M510 132l41 -75q-87 -71 -217 -71q-141 0 -212 76.5t-71 197.5q0 118 75.5 197.5t198.5 79.5q114 0 173.5 -61.5t59.5 -156.5q0 -57 -11 -92h-389q8 -71 52.5 -112t126.5 -41q96 0 173 58zM456 308q2 16 2 28q0 49 -34 81.5t-101 32.5q-70 0 -113.5 -41t-49.5 -101h296z
M189 680l30 43q38 -51 110 -51t109 51l30 -43q-46 -79 -138 -79q-93 0 -141 79z" />
    <glyph glyph-name="Edotaccent" unicode="&#x116;" horiz-adv-x="698" 
d="M633 0h-527v680h527v-92h-428v-191h355v-92h-355v-213h428v-92zM302 829q0 58 66 58q64 0 64 -58q0 -59 -64 -59q-66 0 -66 59z" />
    <glyph glyph-name="edotaccent" unicode="&#x117;" horiz-adv-x="611" 
d="M510 132l41 -75q-87 -71 -217 -71q-141 0 -212 76.5t-71 197.5q0 118 75.5 197.5t198.5 79.5q114 0 173.5 -61.5t59.5 -156.5q0 -57 -11 -92h-389q8 -71 52.5 -112t126.5 -41q96 0 173 58zM456 308q2 16 2 28q0 49 -34 81.5t-101 32.5q-70 0 -113.5 -41t-49.5 -101h296z
M264 672q0 58 66 58q64 0 64 -58q0 -59 -64 -59q-66 0 -66 59z" />
    <glyph glyph-name="Eogonek" unicode="&#x118;" horiz-adv-x="698" 
d="M633 0h-19q-40 -2 -65 -21.5t-25 -51.5q0 -26 15.5 -40.5t41.5 -14.5q27 0 56 18l11 -49q-36 -20 -81 -20q-43 0 -69 25t-26 68q0 58 58 86h-424v680h527v-92h-428v-191h355v-92h-355v-213h428v-92z" />
    <glyph glyph-name="eogonek" unicode="&#x119;" horiz-adv-x="612" 
d="M510 132l41 -75q-63 -50 -148 -65q-60 -19 -60 -65q0 -26 15.5 -40.5t41.5 -14.5q27 0 56 18l10 -49q-35 -20 -80 -20q-43 0 -69 25t-26 68q0 44 38 72q-94 1 -158 38.5t-92 97.5t-28 138q0 118 75.5 197.5t198.5 79.5q114 0 173.5 -61.5t59.5 -156.5q0 -57 -11 -92h-389
q8 -71 52.5 -112t126.5 -41q96 0 173 58zM456 308q2 16 2 28q0 49 -34 81.5t-101 32.5q-70 0 -113.5 -41t-49.5 -101h296z" />
    <glyph glyph-name="Ecaron" unicode="&#x11a;" horiz-adv-x="698" 
d="M633 0h-527v680h527v-92h-428v-191h355v-92h-355v-213h428v-92zM294 898l75 -91l75 91h82l-106 -145h-103l-106 145h83z" />
    <glyph glyph-name="ecaron" unicode="&#x11b;" horiz-adv-x="611" 
d="M510 132l41 -75q-87 -71 -217 -71q-141 0 -212 76.5t-71 197.5q0 118 75.5 197.5t198.5 79.5q114 0 173.5 -61.5t59.5 -156.5q0 -57 -11 -92h-389q8 -71 52.5 -112t126.5 -41q96 0 173 58zM456 308q2 16 2 28q0 49 -34 81.5t-101 32.5q-70 0 -113.5 -41t-49.5 -101h296z
M251 741l75 -91l75 91h82l-106 -145h-103l-106 145h83z" />
    <glyph glyph-name="Gcircumflex" unicode="&#x11c;" horiz-adv-x="784" 
d="M395 381h316v-301q-49 -38 -130 -64t-157 -26q-156 0 -259 94.5t-103 254.5q0 161 103 256t259 95q149 0 261 -94l-50 -80q-88 77 -208 77q-111 0 -184 -68t-73 -186q0 -116 73.5 -184t187.5 -68q101 0 176 48v155h-212v91zM500 753l-75 92l-75 -92h-83l106 145h103
l106 -145h-82z" />
    <glyph glyph-name="gcircumflex" unicode="&#x11d;" horiz-adv-x="663" 
d="M411 596l-75 92l-75 -92h-83l106 145h103l106 -145h-82zM53 280q0 106 70 179t180 73q105 0 167 -62v53h104v-467q0 -122 -70 -188t-183 -66q-17 0 -32.5 1t-30.5 4t-26.5 5t-25 7t-21 7.5t-19.5 8t-16 7.5t-15 8t-12 6l23 93q86 -55 175 -55q65 0 107 35t42 106v56
q-66 -61 -167 -61q-110 0 -180 72.5t-70 177.5zM159 280q0 -69 47.5 -114t124.5 -45q82 0 139 59v200q-24 26 -61 43.5t-78 17.5q-77 0 -124.5 -45.5t-47.5 -115.5z" />
    <glyph glyph-name="Gbreve" unicode="&#x11e;" horiz-adv-x="784" 
d="M395 381h316v-301q-49 -38 -130 -64t-157 -26q-156 0 -259 94.5t-103 254.5q0 161 103 256t259 95q149 0 261 -94l-50 -80q-88 77 -208 77q-111 0 -184 -68t-73 -186q0 -116 73.5 -184t187.5 -68q101 0 176 48v155h-212v91zM286 837l30 43q38 -51 110 -51t109 51l30 -43
q-46 -79 -138 -79q-93 0 -141 79z" />
    <glyph glyph-name="gbreve" unicode="&#x11f;" horiz-adv-x="663" 
d="M200 680l30 43q38 -51 110 -51t109 51l30 -43q-46 -79 -138 -79q-93 0 -141 79zM53 280q0 106 70 179t180 73q105 0 167 -62v53h104v-467q0 -122 -70 -188t-183 -66q-17 0 -32.5 1t-30.5 4t-26.5 5t-25 7t-21 7.5t-19.5 8t-16 7.5t-15 8t-12 6l23 93q86 -55 175 -55
q65 0 107 35t42 106v56q-66 -61 -167 -61q-110 0 -180 72.5t-70 177.5zM159 280q0 -69 47.5 -114t124.5 -45q82 0 139 59v200q-24 26 -61 43.5t-78 17.5q-77 0 -124.5 -45.5t-47.5 -115.5z" />
    <glyph glyph-name="Gdotaccent" unicode="&#x120;" horiz-adv-x="784" 
d="M395 381h316v-301q-49 -38 -130 -64t-157 -26q-156 0 -259 94.5t-103 254.5q0 161 103 256t259 95q149 0 261 -94l-50 -80q-88 77 -208 77q-111 0 -184 -68t-73 -186q0 -116 73.5 -184t187.5 -68q101 0 176 48v155h-212v91zM357 829q0 58 66 58q64 0 64 -58
q0 -59 -64 -59q-66 0 -66 59z" />
    <glyph glyph-name="gdotaccent" unicode="&#x121;" horiz-adv-x="663" 
d="M281 672q0 58 66 58q64 0 64 -58q0 -59 -64 -59q-66 0 -66 59zM53 280q0 106 70 179t180 73q105 0 167 -62v53h104v-467q0 -122 -70 -188t-183 -66q-17 0 -32.5 1t-30.5 4t-26.5 5t-25 7t-21 7.5t-19.5 8t-16 7.5t-15 8t-12 6l23 93q86 -55 175 -55q65 0 107 35t42 106
v56q-66 -61 -167 -61q-110 0 -180 72.5t-70 177.5zM159 280q0 -69 47.5 -114t124.5 -45q82 0 139 59v200q-24 26 -61 43.5t-78 17.5q-77 0 -124.5 -45.5t-47.5 -115.5z" />
    <glyph glyph-name="Gcommaaccent" unicode="&#x122;" horiz-adv-x="784" 
d="M395 381h316v-301q-49 -38 -130 -64t-157 -26q-156 0 -259 94.5t-103 254.5q0 161 103 256t259 95q149 0 261 -94l-50 -80q-88 77 -208 77q-111 0 -184 -68t-73 -186q0 -116 73.5 -184t187.5 -68q101 0 176 48v155h-212v91zM375 -244l24 67q-53 8 -53 54q0 28 17 43.5
t44 15.5q33 0 51.5 -17.5t18.5 -49.5q0 -64 -50 -132z" />
    <glyph glyph-name="gcommaaccent" unicode="&#x123;" horiz-adv-x="663" 
d="M53 280q0 106 70 179t180 73q105 0 167 -62v53h104v-467q0 -122 -70 -188t-183 -66q-17 0 -32.5 1t-30.5 4t-26.5 5t-25 7t-21 7.5t-19.5 8t-16 7.5t-15 8t-12 6l23 93q86 -55 175 -55q65 0 107 35t42 106v56q-66 -61 -167 -61q-110 0 -180 72.5t-70 177.5zM159 280
q0 -69 47.5 -114t124.5 -45q82 0 139 59v200q-24 26 -61 43.5t-78 17.5q-77 0 -124.5 -45.5t-47.5 -115.5zM374 773l-24 -67q54 -8 54 -54q0 -28 -17 -43.5t-44 -15.5q-34 0 -52 17.5t-18 49.5q0 67 49 132z" />
    <glyph glyph-name="Hcircumflex" unicode="&#x124;" horiz-adv-x="841" 
d="M631 0v297h-421v-297h-104v680h104v-292h421v292h104v-680h-104zM494 753l-75 92l-75 -92h-83l106 145h103l106 -145h-82z" />
    <glyph glyph-name="hcircumflex" unicode="&#x125;" horiz-adv-x="687" 
d="M88 710h104v-266q59 88 180 88q97 0 147 -64t50 -167v-163q0 -59 42 -59q22 0 55 18l7 -83q-42 -24 -101 -24q-107 0 -107 125v170q0 69 -33 110t-96 41q-52 0 -90.5 -33t-53.5 -80v-323h-104v710zM409 752l-75 92l-75 -92h-83l106 145h103l106 -145h-82z" />
    <glyph glyph-name="Hbar" unicode="&#x126;" horiz-adv-x="841" 
d="M106 0v505h-46v83h46v92h104v-92h421v92h104v-92h51v-83h-51v-505h-104v297h-421v-297h-104zM210 505v-117h421v117h-421z" />
    <glyph glyph-name="hbar" unicode="&#x127;" horiz-adv-x="687" 
d="M88 710h104v-60h142v-76h-142v-130q59 88 180 88q97 0 147 -64t50 -167v-163q0 -59 42 -59q22 0 55 18l7 -83q-42 -24 -101 -24q-107 0 -107 125v170q0 69 -33 110t-96 41q-52 0 -90.5 -33t-53.5 -80v-323h-104v574h-76v76h76v60z" />
    <glyph glyph-name="Itilde" unicode="&#x128;" horiz-adv-x="315" 
d="M106 0v680h104v-680h-104zM14 770l-34 43q15 32 43 54t61 22t81 -31.5t67 -31.5q46 0 69 47l34 -42q-38 -78 -103 -78q-31 0 -80 32t-67 32q-43 0 -71 -47z" />
    <glyph glyph-name="itilde" unicode="&#x129;" horiz-adv-x="322" 
d="M87 523h104v-385q0 -59 42 -59q30 0 55 18l8 -83q-10 -8 -40 -16t-62 -8q-107 0 -107 125v408zM-6 613l-34 43q15 32 43 54t61 22t81 -31.5t67 -31.5q46 0 69 47l34 -42q-38 -78 -103 -78q-31 0 -80 32t-67 32q-43 0 -71 -47z" />
    <glyph glyph-name="imacron" unicode="&#x12b;" horiz-adv-x="322" 
d="M87 523h104v-385q0 -59 42 -59q30 0 55 18l8 -83q-10 -8 -40 -16t-62 -8q-107 0 -107 125v408zM262 623h-247v73h247v-73z" />
    <glyph glyph-name="Ibreve" unicode="&#x12c;" horiz-adv-x="315" 
d="M106 0v680h104v-680h-104zM17 837l30 43q38 -51 110 -51t109 51l30 -43q-46 -79 -138 -79q-93 0 -141 79z" />
    <glyph glyph-name="Iogonek" unicode="&#x12e;" horiz-adv-x="316" 
d="M211 0h-31q-40 -2 -65 -21.5t-25 -51.5q0 -26 15.5 -40.5t41.5 -14.5q27 0 56 18l11 -49q-36 -20 -81 -20q-43 0 -69 25t-26 68q0 32 20 56t49 34v676h104v-680z" />
    <glyph glyph-name="iogonek" unicode="&#x12f;" horiz-adv-x="323" 
d="M88 115v408h104v-385q0 -59 42 -59q30 0 55 18l8 -83q-19 -16 -79 -23q-57 -18 -57 -64q0 -26 15.5 -40.5t41.5 -14.5q27 0 56 18l11 -49q-36 -20 -81 -20q-43 0 -69.5 25t-26.5 68q0 50 52 80q-72 17 -72 121zM80 662q0 54 61 54q60 0 60 -54q0 -55 -60 -55
q-61 0 -61 55z" />
    <glyph glyph-name="Idotaccent" unicode="&#x130;" horiz-adv-x="315" 
d="M106 0v680h104v-680h-104zM92 829q0 58 66 58q64 0 64 -58q0 -59 -64 -59q-66 0 -66 59z" />
    <glyph glyph-name="dotlessi" unicode="&#x131;" horiz-adv-x="322" 
d="M87 523h104v-385q0 -59 42 -59q30 0 55 18l8 -83q-10 -8 -40 -16t-62 -8q-107 0 -107 125v408z" />
    <glyph glyph-name="IJ" unicode="&#x132;" horiz-adv-x="972" 
d="M106 0v680h104v-680h-104zM770 680h104v-416q0 -125 -69 -200t-198 -75q-126 0 -191 70.5t-73 195.5l103 10q13 -179 163 -179q81 0 121 48.5t40 136.5v409z" />
    <glyph glyph-name="ij" unicode="&#x133;" horiz-adv-x="602" 
d="M191 523v-385q0 -59 42 -59q30 0 55 18l8 -83q-10 -8 -40 -16t-62 -8q-107 0 -107 125v408h104zM75 672q0 58 65 58q64 0 64 -58q0 -59 -64 -59q-65 0 -65 59zM514 523v-489q0 -159 -141 -231l-61 69q48 27 73 63t25 96v492h104zM398 672q0 58 65 58q64 0 64 -58
q0 -59 -64 -59q-65 0 -65 59z" />
    <glyph glyph-name="Jcircumflex" unicode="&#x134;" horiz-adv-x="657" 
d="M455 680h104v-416q0 -125 -69 -200t-198 -75q-126 0 -191 70.5t-73 195.5l103 10q13 -179 163 -179q81 0 121 48.5t40 136.5v409zM579 753l-75 92l-75 -92h-83l106 145h103l106 -145h-82z" />
    <glyph glyph-name="jcircumflex" unicode="&#x135;" horiz-adv-x="281" 
d="M88 523h104v-489q0 -159 -141 -231l-61 69q48 27 73 63t25 96v492zM214 596l-75 92l-75 -92h-83l106 145h103l106 -145h-82z" />
    <glyph glyph-name="Kcommaaccent" unicode="&#x136;" horiz-adv-x="778" 
d="M106 0v680h104v-297h156l205 297h108v-16l-234 -330q16 -17 42.5 -63.5t49 -86t59 -71.5t74.5 -32q44 0 82 19l12 -84q-52 -26 -114 -26q-58 0 -108.5 39.5t-78.5 87.5t-59.5 103t-48.5 72h-145v-292h-104zM316 -244l24 67q-53 8 -53 54q0 28 17 43.5t44 15.5
q33 0 51.5 -17.5t18.5 -49.5q0 -64 -50 -132z" />
    <glyph glyph-name="kcommaaccent" unicode="&#x137;" horiz-adv-x="623" 
d="M468 523h104q-32 -188 -157 -259l171 -247v-17h-114l-149 228q-62 -14 -131 -14v-214h-104v710h104v-403q56 0 96 8.5t78 31t63.5 66.5t38.5 110zM272 -244l24 67q-53 8 -53 54q0 28 17 43.5t44 15.5q33 0 51.5 -17.5t18.5 -49.5q0 -64 -50 -132z" />
    <glyph glyph-name="kgreenlandic" unicode="&#x138;" horiz-adv-x="624" 
d="M192 0h-104v523h104v-233q111 1 180.5 52.5t95.5 180.5h104q-32 -191 -161 -267l175 -239v-17h-114l-152 219q-58 -15 -128 -15v-204z" />
    <glyph glyph-name="Lacute" unicode="&#x139;" horiz-adv-x="606" 
d="M581 0h-475v680h104v-589h371v-91zM294 898l-96 -145h-90l81 145h105z" />
    <glyph glyph-name="lacute" unicode="&#x13a;" horiz-adv-x="327" 
d="M84 710h104v-566q0 -65 53 -65q28 0 61 18l7 -83q-48 -24 -106 -24q-119 0 -119 130v590zM266 897l-96 -145h-90l81 145h105z" />
    <glyph glyph-name="Lcommaaccent" unicode="&#x13b;" horiz-adv-x="606" 
d="M581 0h-475v680h104v-589h371v-91zM299 -244l24 67q-53 8 -53 54q0 28 17 43.5t44 15.5q33 0 51.5 -17.5t18.5 -49.5q0 -64 -50 -132z" />
    <glyph glyph-name="lcommaaccent" unicode="&#x13c;" horiz-adv-x="328" 
d="M84 710h104v-566q0 -65 53 -65q28 0 61 18l7 -83q-48 -24 -106 -24q-119 0 -119 130v590zM144 -244l24 67q-53 8 -53 54q0 28 17 43.5t44 15.5q33 0 51.5 -17.5t18.5 -49.5q0 -64 -50 -132z" />
    <glyph glyph-name="Lcaron" unicode="&#x13d;" horiz-adv-x="611" 
d="M581 0h-475v680h104v-589h371v-91zM424 509l24 67q-53 8 -53 54q0 28 17 43.5t44 15.5q33 0 51.5 -17.5t18.5 -49.5q0 -64 -50 -132z" />
    <glyph glyph-name="lcaron" unicode="&#x13e;" horiz-adv-x="351" 
d="M84 710h104v-566q0 -65 53 -65q28 0 61 18l7 -83q-48 -24 -106 -24q-119 0 -119 130v590zM278 509l24 67q-53 8 -53 54q0 28 17 43.5t44 15.5q33 0 51.5 -17.5t18.5 -49.5q0 -64 -50 -132z" />
    <glyph glyph-name="Ldot" unicode="&#x13f;" horiz-adv-x="618" 
d="M581 0h-475v680h104v-589h371v-91zM352 379q0 70 70 70q34 0 52.5 -18t18.5 -52q0 -70 -71 -70q-70 0 -70 70z" />
    <glyph glyph-name="ldot" unicode="&#x140;" horiz-adv-x="407" 
d="M84 710h104v-566q0 -65 53 -65q28 0 61 18l7 -83q-48 -24 -106 -24q-119 0 -119 130v590zM270 379q0 70 70 70q34 0 52.5 -18t18.5 -52q0 -70 -71 -70q-70 0 -70 70z" />
    <glyph glyph-name="Lslash" unicode="&#x141;" horiz-adv-x="607" 
d="M582 0h-476v269l-51 -26v84l51 26v327h104v-275l129 66v-84l-129 -66v-230h372v-91z" />
    <glyph glyph-name="lslash" unicode="&#x142;" horiz-adv-x="333" 
d="M193 710v-269l83 42v-84l-83 -43v-212q0 -65 53 -65q29 0 60 18l8 -83q-50 -24 -107 -24q-118 0 -118 130v183l-49 -25v85l49 25v322h104z" />
    <glyph glyph-name="Nacute" unicode="&#x143;" horiz-adv-x="839" 
d="M642 0l-432 514v-514h-104v680h91l432 -516v516h104v-680h-91zM557 898l-96 -145h-90l81 145h105z" />
    <glyph glyph-name="nacute" unicode="&#x144;" horiz-adv-x="687" 
d="M88 523h104v-80q61 89 180 89q97 0 147 -64t50 -167v-163q0 -59 42 -59q26 0 55 18l7 -83q-44 -24 -101 -24q-107 0 -107 125v170q0 69 -33 110t-96 41q-52 0 -90.5 -33t-53.5 -80v-323h-104v523zM474 741l-96 -145h-90l81 145h105z" />
    <glyph glyph-name="Ncommaaccent" unicode="&#x145;" horiz-adv-x="839" 
d="M642 0l-432 514v-514h-104v680h91l432 -516v516h104v-680h-91zM369 -244l24 67q-53 8 -53 54q0 28 17 43.5t44 15.5q33 0 51.5 -17.5t18.5 -49.5q0 -64 -50 -132z" />
    <glyph glyph-name="ncommaaccent" unicode="&#x146;" horiz-adv-x="687" 
d="M88 523h104v-80q61 89 180 89q97 0 147 -64t50 -167v-163q0 -59 42 -59q26 0 55 18l7 -83q-44 -24 -101 -24q-107 0 -107 125v170q0 69 -33 110t-96 41q-52 0 -90.5 -33t-53.5 -80v-323h-104v523zM302 -244l24 67q-53 8 -53 54q0 28 17 43.5t44 15.5q33 0 51.5 -17.5
t18.5 -49.5q0 -64 -50 -132z" />
    <glyph glyph-name="Ncaron" unicode="&#x147;" horiz-adv-x="839" 
d="M642 0l-432 514v-514h-104v680h91l432 -516v516h104v-680h-91zM352 898l75 -91l75 91h82l-106 -145h-103l-106 145h83z" />
    <glyph glyph-name="ncaron" unicode="&#x148;" horiz-adv-x="687" 
d="M88 523h104v-80q61 89 180 89q97 0 147 -64t50 -167v-163q0 -59 42 -59q26 0 55 18l7 -83q-44 -24 -101 -24q-107 0 -107 125v170q0 69 -33 110t-96 41q-52 0 -90.5 -33t-53.5 -80v-323h-104v523zM258 741l75 -91l75 91h82l-106 -145h-103l-106 145h83z" />
    <glyph glyph-name="napostrophe" unicode="&#x149;" horiz-adv-x="744" 
d="M145 523h104v-80q61 89 180 89q97 0 147 -64t50 -167v-163q0 -59 42 -59q26 0 55 18l7 -83q-44 -24 -101 -24q-107 0 -107 125v170q0 69 -33 110t-96 41q-52 0 -90.5 -33t-53.5 -80v-323h-104v523z" />
    <glyph glyph-name="Eng" unicode="&#x14a;" horiz-adv-x="839" 
d="M629 27l-419 487v-514h-104v680h91l432 -511v511h104v-644q0 -161 -141 -232l-61 62q98 56 98 161z" />
    <glyph glyph-name="eng" unicode="&#x14b;" horiz-adv-x="649" 
d="M465 28v257q0 69 -33 110t-96 41q-52 0 -90.5 -33t-53.5 -80v-323h-104v523h104v-80q61 89 180 89q97 0 147 -64t50 -167v-265q0 -160 -142 -232l-60 62q98 57 98 162z" />
    <glyph glyph-name="Omacron" unicode="&#x14c;" horiz-adv-x="823" 
d="M61 339q0 151 100 251t249 100q151 0 251 -100t100 -251q0 -149 -100 -249t-251 -100q-149 0 -249 100t-100 249zM164 339q0 -108 70 -179.5t177 -71.5q108 0 178 71.5t70 179.5q0 109 -70 180.5t-178 71.5q-107 0 -177 -71.5t-70 -180.5zM533 780h-247v73h247v-73z" />
    <glyph glyph-name="omacron" unicode="&#x14d;" horiz-adv-x="660" 
d="M50 260q0 120 79 198.5t200 78.5q122 0 201 -78.5t79 -198.5q0 -118 -79 -196t-201 -78q-121 0 -200 78t-79 196zM151 260q0 -76 50 -127t128 -51q79 0 129.5 50.5t50.5 127.5q0 78 -50.5 129.5t-129.5 51.5q-78 0 -128 -51.5t-50 -129.5zM452 623h-247v73h247v-73z" />
    <glyph glyph-name="Obreve" unicode="&#x14e;" horiz-adv-x="823" 
d="M61 339q0 151 100 251t249 100q151 0 251 -100t100 -251q0 -149 -100 -249t-251 -100q-149 0 -249 100t-100 249zM164 339q0 -108 70 -179.5t177 -71.5q108 0 178 71.5t70 179.5q0 109 -70 180.5t-178 71.5q-107 0 -177 -71.5t-70 -180.5zM270 837l30 43q38 -51 110 -51
t109 51l30 -43q-46 -79 -138 -79q-93 0 -141 79z" />
    <glyph glyph-name="obreve" unicode="&#x14f;" horiz-adv-x="660" 
d="M50 260q0 120 79 198.5t200 78.5q122 0 201 -78.5t79 -198.5q0 -118 -79 -196t-201 -78q-121 0 -200 78t-79 196zM151 260q0 -76 50 -127t128 -51q79 0 129.5 50.5t50.5 127.5q0 78 -50.5 129.5t-129.5 51.5q-78 0 -128 -51.5t-50 -129.5zM189 680l30 43q38 -51 110 -51
t109 51l30 -43q-46 -79 -138 -79q-93 0 -141 79z" />
    <glyph glyph-name="Ohungarumlaut" unicode="&#x150;" horiz-adv-x="823" 
d="M61 339q0 151 100 251t249 100q151 0 251 -100t100 -251q0 -149 -100 -249t-251 -100q-149 0 -249 100t-100 249zM164 339q0 -108 70 -179.5t177 -71.5q108 0 178 71.5t70 179.5q0 109 -70 180.5t-178 71.5q-107 0 -177 -71.5t-70 -180.5zM470 898l-97 -145h-89l82 145
h104zM657 898l-96 -145h-90l82 145h104z" />
    <glyph glyph-name="ohungarumlaut" unicode="&#x151;" horiz-adv-x="660" 
d="M50 260q0 120 79 198.5t200 78.5q122 0 201 -78.5t79 -198.5q0 -118 -79 -196t-201 -78q-121 0 -200 78t-79 196zM151 260q0 -76 50 -127t128 -51q79 0 129.5 50.5t50.5 127.5q0 78 -50.5 129.5t-129.5 51.5q-78 0 -128 -51.5t-50 -129.5zM376 741l-97 -145h-89l82 145
h104zM563 741l-96 -145h-90l82 145h104z" />
    <glyph glyph-name="OE" unicode="&#x152;" horiz-adv-x="1191" 
d="M599 0v52q-87 -63 -191 -63q-149 0 -248 100t-99 249q0 151 99 251t248 100q107 0 191 -62v53h527v-92h-427v-194h354v-85h-354v-218h427v-91h-527zM162 338q0 -108 71.5 -179.5t181.5 -71.5q111 0 184 73v358q-74 74 -186 74q-108 0 -179.5 -72.5t-71.5 -181.5z" />
    <glyph glyph-name="oe" unicode="&#x153;" horiz-adv-x="1091" 
d="M1028 227h-392q10 -153 187 -153q91 0 166 58l41 -75q-87 -71 -217 -71q-96 0 -157.5 38.5t-88.5 104.5q-30 -66 -93 -104.5t-145 -38.5q-121 0 -200 78t-79 196q0 120 79 198.5t200 78.5q83 0 147 -40.5t93 -109.5q28 68 90 109t146 41q113 0 172.5 -62.5t59.5 -156.5
q0 -58 -9 -91zM151 260q0 -77 50 -128t128 -51q79 0 129.5 51t50.5 128q0 78 -50.5 129.5t-129.5 51.5q-78 0 -128 -51.5t-50 -129.5zM799 450q-69 0 -113 -39.5t-50 -102.5h303q2 9 2 27q0 52 -39 83.5t-103 31.5z" />
    <glyph glyph-name="Racute" unicode="&#x154;" horiz-adv-x="770" 
d="M106 0v680h295q51 0 95 -12t81 -36.5t58.5 -68t21.5 -101.5q0 -90 -62 -148.5t-152 -63.5q9 -10 39.5 -42.5t46.5 -48t42.5 -37.5t50.5 -31.5t48 -9.5q44 0 82 19l11 -84q-52 -26 -109 -26q-52 0 -106 33.5t-90.5 74t-79 88t-65.5 64.5h-103v-250h-104zM412 589h-202
v-256h202q59 0 97.5 34.5t38.5 92.5q0 63 -38 96t-98 33zM477 898l-96 -145h-90l81 145h105z" />
    <glyph glyph-name="racute" unicode="&#x155;" horiz-adv-x="478" 
d="M127 0v384q0 59 -42 59q-28 0 -56 -17l-7 81q9 8 39.5 16.5t62.5 8.5q91 0 104 -90q44 90 136 90q35 0 60.5 -10.5t34.5 -25.5l-19 -92q-21 32 -91 32q-90 0 -118 -138v-298h-104zM357 741l-96 -145h-90l81 145h105z" />
    <glyph glyph-name="Rcommaaccent" unicode="&#x156;" horiz-adv-x="771" 
d="M106 0v680h295q51 0 95 -12t81 -36.5t58.5 -68t21.5 -101.5q0 -90 -62 -148.5t-152 -63.5q9 -10 39.5 -42.5t46.5 -48t42.5 -37.5t50.5 -31.5t48 -9.5q44 0 82 19l11 -84q-52 -26 -109 -26q-52 0 -106 33.5t-90.5 74t-79 88t-65.5 64.5h-103v-250h-104zM412 589h-202
v-256h202q59 0 97.5 34.5t38.5 92.5q0 63 -38 96t-98 33zM325 -244l24 67q-53 8 -53 54q0 28 17 43.5t44 15.5q33 0 51.5 -17.5t18.5 -49.5q0 -64 -50 -132z" />
    <glyph glyph-name="rcommaaccent" unicode="&#x157;" horiz-adv-x="477" 
d="M127 0v384q0 59 -42 59q-28 0 -56 -17l-7 81q9 8 39.5 16.5t62.5 8.5q91 0 104 -90q44 90 136 90q35 0 60.5 -10.5t34.5 -25.5l-19 -92q-21 32 -91 32q-90 0 -118 -138v-298h-104zM134 -244l24 67q-53 8 -53 54q0 28 17 43.5t44 15.5q33 0 51.5 -17.5t18.5 -49.5
q0 -64 -50 -132z" />
    <glyph glyph-name="Rcaron" unicode="&#x158;" horiz-adv-x="770" 
d="M106 0v680h295q51 0 95 -12t81 -36.5t58.5 -68t21.5 -101.5q0 -90 -62 -148.5t-152 -63.5q9 -10 39.5 -42.5t46.5 -48t42.5 -37.5t50.5 -31.5t48 -9.5q44 0 82 19l11 -84q-52 -26 -109 -26q-52 0 -106 33.5t-90.5 74t-79 88t-65.5 64.5h-103v-250h-104zM412 589h-202
v-256h202q59 0 97.5 34.5t38.5 92.5q0 63 -38 96t-98 33zM260 898l75 -91l75 91h82l-106 -145h-103l-106 145h83z" />
    <glyph glyph-name="rcaron" unicode="&#x159;" horiz-adv-x="478" 
d="M127 0v384q0 59 -42 59q-28 0 -56 -17l-7 81q9 8 39.5 16.5t62.5 8.5q91 0 104 -90q44 90 136 90q35 0 60.5 -10.5t34.5 -25.5l-19 -92q-21 32 -91 32q-90 0 -118 -138v-298h-104zM161 741l75 -91l75 91h82l-106 -145h-103l-106 145h83z" />
    <glyph glyph-name="Sacute" unicode="&#x15a;" horiz-adv-x="640" 
d="M353 283l-137 35q-154 39 -154 173q0 85 68.5 141.5t199.5 56.5q67 0 132 -15.5t106 -38.5l-31 -98q-37 23 -96.5 39.5t-114.5 16.5q-78 0 -117.5 -26.5t-39.5 -67.5q0 -62 92 -85l135 -36q93 -26 138.5 -68t45.5 -112q0 -94 -75.5 -151t-196.5 -57q-67 0 -132 18.5
t-103 40.5l25 99q98 -62 212 -62q74 0 118 28.5t44 75.5q0 35 -29.5 56.5t-89.5 36.5zM466 898l-96 -145h-90l81 145h105z" />
    <glyph glyph-name="sacute" unicode="&#x15b;" horiz-adv-x="522" 
d="M465 494l-28 -91q-82 41 -168 41q-50 0 -81.5 -18.5t-31.5 -51.5q0 -26 16.5 -37.5t58.5 -21.5l108 -25q67 -17 98.5 -50t31.5 -89q0 -73 -55 -117t-153 -44q-109 0 -199 45l21 90q90 -48 174 -48q52 0 80 17.5t28 49.5q0 23 -20 35.5t-62 22.5l-101 24q-66 16 -98 49
t-32 91q0 74 61 120t164 46q48 0 102.5 -11.5t85.5 -26.5zM393 741l-96 -145h-90l81 145h105z" />
    <glyph glyph-name="Scircumflex" unicode="&#x15c;" horiz-adv-x="640" 
d="M353 283l-137 35q-154 39 -154 173q0 85 68.5 141.5t199.5 56.5q67 0 132 -15.5t106 -38.5l-31 -98q-37 23 -96.5 39.5t-114.5 16.5q-78 0 -117.5 -26.5t-39.5 -67.5q0 -62 92 -85l135 -36q93 -26 138.5 -68t45.5 -112q0 -94 -75.5 -151t-196.5 -57q-67 0 -132 18.5
t-103 40.5l25 99q98 -62 212 -62q74 0 118 28.5t44 75.5q0 35 -29.5 56.5t-89.5 36.5zM398 753l-75 92l-75 -92h-83l106 145h103l106 -145h-82z" />
    <glyph glyph-name="scircumflex" unicode="&#x15d;" horiz-adv-x="522" 
d="M465 494l-28 -91q-82 41 -168 41q-50 0 -81.5 -18.5t-31.5 -51.5q0 -26 16.5 -37.5t58.5 -21.5l108 -25q67 -17 98.5 -50t31.5 -89q0 -73 -55 -117t-153 -44q-109 0 -199 45l21 90q90 -48 174 -48q52 0 80 17.5t28 49.5q0 23 -20 35.5t-62 22.5l-101 24q-66 16 -98 49
t-32 91q0 74 61 120t164 46q48 0 102.5 -11.5t85.5 -26.5zM342 596l-75 92l-75 -92h-83l106 145h103l106 -145h-82z" />
    <glyph glyph-name="Scedilla" unicode="&#x15e;" horiz-adv-x="641" 
d="M246 -96l24 88q-117 10 -196 57l25 99q98 -62 212 -62q74 0 118 28.5t44 75.5q0 35 -29.5 56.5t-89.5 36.5l-137 35q-154 39 -154 173q0 85 68.5 141.5t199.5 56.5q67 0 132 -15.5t106 -38.5l-31 -98q-37 23 -96.5 39.5t-114.5 16.5q-78 0 -117.5 -26.5t-39.5 -67.5
q0 -62 92 -85l135 -36q93 -26 138.5 -68t45.5 -112q0 -92 -73 -149t-192 -59l-14 -52q12 3 29 3q40 0 62.5 -17.5t22.5 -46.5q0 -36 -30 -55.5t-77 -19.5q-41 0 -76 12l11 37q35 -11 62 -11q60 0 60 35q0 31 -55 31q-36 0 -62 -7z" />
    <glyph glyph-name="scedilla" unicode="&#x15f;" horiz-adv-x="523" 
d="M193 -96l24 88q-88 9 -154 43l21 90q90 -48 174 -48q52 0 80 17.5t28 49.5q0 23 -20 35.5t-62 22.5l-101 24q-66 16 -98 49t-32 91q0 74 61 120t164 46q48 0 102.5 -11.5t85.5 -26.5l-28 -91q-82 41 -168 41q-50 0 -81.5 -18.5t-31.5 -51.5q0 -26 16.5 -37.5t58.5 -21.5
l108 -25q67 -17 98.5 -50t31.5 -89q0 -73 -55 -116.5t-152 -44.5l-14 -52q12 3 29 3q40 0 62.5 -17.5t22.5 -46.5q0 -36 -30 -55.5t-77 -19.5q-41 0 -76 12l11 37q35 -11 62 -11q60 0 60 35q0 31 -55 31q-36 0 -62 -7z" />
    <glyph glyph-name="Scaron" unicode="&#x160;" horiz-adv-x="640" 
d="M353 283l-137 35q-154 39 -154 173q0 85 68.5 141.5t199.5 56.5q67 0 132 -15.5t106 -38.5l-31 -98q-37 23 -96.5 39.5t-114.5 16.5q-78 0 -117.5 -26.5t-39.5 -67.5q0 -62 92 -85l135 -36q93 -26 138.5 -68t45.5 -112q0 -94 -75.5 -151t-196.5 -57q-67 0 -132 18.5
t-103 40.5l25 99q98 -62 212 -62q74 0 118 28.5t44 75.5q0 35 -29.5 56.5t-89.5 36.5zM241 898l75 -91l75 91h82l-106 -145h-103l-106 145h83z" />
    <glyph glyph-name="scaron" unicode="&#x161;" horiz-adv-x="522" 
d="M465 494l-28 -91q-82 41 -168 41q-50 0 -81.5 -18.5t-31.5 -51.5q0 -26 16.5 -37.5t58.5 -21.5l108 -25q67 -17 98.5 -50t31.5 -89q0 -73 -55 -117t-153 -44q-109 0 -199 45l21 90q90 -48 174 -48q52 0 80 17.5t28 49.5q0 23 -20 35.5t-62 22.5l-101 24q-66 16 -98 49
t-32 91q0 74 61 120t164 46q48 0 102.5 -11.5t85.5 -26.5zM191 741l75 -91l75 91h82l-106 -145h-103l-106 145h83z" />
    <glyph glyph-name="Tcommaaccent" unicode="&#x162;" horiz-adv-x="633" 
d="M606 576h-232v-576h-34l-18 -62q12 3 29 3q40 0 62.5 -17.5t22.5 -46.5q0 -36 -30 -55.5t-77 -19.5q-43 0 -76 12l10 37q37 -11 63 -11q59 0 59 35q0 31 -55 31q-35 0 -61 -7l-3 5l28 96h-24v576h-244v104h580v-104z" />
    <glyph glyph-name="tcommaaccent" unicode="&#x163;" horiz-adv-x="491" 
d="M211 -96l25 91q-110 26 -110 166v280h-98v82h98l12 133h92v-133h204v-82h-204v-260q0 -100 84 -100q61 0 116 40l34 -81q-81 -50 -181 -50h-2l-14 -52q12 3 29 3q40 0 62.5 -17.5t22.5 -46.5q0 -36 -30 -55.5t-77 -19.5q-41 0 -76 12l11 37q35 -11 62 -11q60 0 60 35
q0 31 -55 31q-36 0 -62 -7z" />
    <glyph glyph-name="Tcaron" unicode="&#x164;" horiz-adv-x="633" 
d="M606 576h-232v-576h-104v576h-244v104h580v-104zM246 898l75 -91l75 91h82l-106 -145h-103l-106 145h83z" />
    <glyph glyph-name="tcaron" unicode="&#x165;" horiz-adv-x="500" 
d="M137 656h92v-133h204v-82h-204v-260q0 -100 84 -100q61 0 116 40l34 -81q-81 -50 -181 -50q-74 0 -115.5 44t-41.5 127v280h-98v82h98zM459 509l24 67q-53 8 -53 54q0 28 17 43.5t44 15.5q33 0 51.5 -17.5t18.5 -49.5q0 -64 -50 -132z" />
    <glyph glyph-name="Tbar" unicode="&#x166;" horiz-adv-x="633" 
d="M606 576h-232v-213h111v-83h-111v-280h-104v280h-107v83h107v213h-244v104h580v-104z" />
    <glyph glyph-name="tbar" unicode="&#x167;" horiz-adv-x="491" 
d="M137 656h92v-133h204v-82h-204v-126h138v-76h-138v-58q0 -100 84 -100q61 0 116 40l34 -81q-81 -50 -181 -50q-74 0 -115.5 44t-41.5 127v78h-81v76h81v126h-98v82h98z" />
    <glyph glyph-name="Utilde" unicode="&#x168;" horiz-adv-x="795" 
d="M201 680v-392q0 -94 49 -148t146 -54q98 0 148 55.5t50 147.5v391h104v-399q0 -124 -79.5 -208t-222.5 -84q-144 0 -221.5 80t-77.5 212v399h104zM253 770l-34 43q15 32 43 54t61 22t81 -31.5t67 -31.5q45 0 69 47l34 -42q-38 -78 -103 -78q-31 0 -80 32t-67 32
q-43 0 -71 -47z" />
    <glyph glyph-name="utilde" unicode="&#x169;" horiz-adv-x="689" 
d="M457 523h104v-385q0 -59 41 -59q25 0 56 18l8 -83q-44 -24 -102 -24q-85 0 -103 79q-60 -79 -184 -79q-98 0 -147 61.5t-49 168.5v303h104v-288q0 -75 30 -112t99 -37q52 0 88.5 27t54.5 66v344zM181 613l-34 43q15 32 43 54t61 22t81 -31.5t67 -31.5q45 0 69 47l34 -42
q-38 -78 -103 -78q-31 0 -80 32t-67 32q-43 0 -71 -47z" />
    <glyph glyph-name="Umacron" unicode="&#x16a;" horiz-adv-x="795" 
d="M201 680v-392q0 -94 49 -148t146 -54q98 0 148 55.5t50 147.5v391h104v-399q0 -124 -79.5 -208t-222.5 -84q-144 0 -221.5 80t-77.5 212v399h104zM520 780h-247v73h247v-73z" />
    <glyph glyph-name="umacron" unicode="&#x16b;" horiz-adv-x="689" 
d="M457 523h104v-385q0 -59 41 -59q25 0 56 18l8 -83q-44 -24 -102 -24q-85 0 -103 79q-60 -79 -184 -79q-98 0 -147 61.5t-49 168.5v303h104v-288q0 -75 30 -112t99 -37q52 0 88.5 27t54.5 66v344zM449 623h-247v73h247v-73z" />
    <glyph glyph-name="Ubreve" unicode="&#x16c;" horiz-adv-x="795" 
d="M201 680v-392q0 -94 49 -148t146 -54q98 0 148 55.5t50 147.5v391h104v-399q0 -124 -79.5 -208t-222.5 -84q-144 0 -221.5 80t-77.5 212v399h104zM257 837l30 43q38 -51 110 -51t109 51l30 -43q-46 -79 -138 -79q-93 0 -141 79z" />
    <glyph glyph-name="ubreve" unicode="&#x16d;" horiz-adv-x="689" 
d="M457 523h104v-385q0 -59 41 -59q25 0 56 18l8 -83q-44 -24 -102 -24q-85 0 -103 79q-60 -79 -184 -79q-98 0 -147 61.5t-49 168.5v303h104v-288q0 -75 30 -112t99 -37q52 0 88.5 27t54.5 66v344zM185 680l30 43q38 -51 110 -51t109 51l30 -43q-46 -79 -138 -79
q-93 0 -141 79z" />
    <glyph glyph-name="Uring" unicode="&#x16e;" horiz-adv-x="795" 
d="M201 680v-392q0 -94 49 -148t146 -54q98 0 148 55.5t50 147.5v391h104v-399q0 -124 -79.5 -208t-222.5 -84q-144 0 -221.5 80t-77.5 212v399h104zM299 787q0 41 28.5 69.5t69.5 28.5t69.5 -28.5t28.5 -69.5t-28.5 -69.5t-69.5 -28.5t-69.5 28.5t-28.5 69.5zM345 787
q0 -22 15 -37t37 -15q21 0 36 15t15 37q0 21 -15 36t-36 15q-22 0 -37 -15t-15 -36z" />
    <glyph glyph-name="uring" unicode="&#x16f;" horiz-adv-x="689" 
d="M457 523h104v-385q0 -59 41 -59q25 0 56 18l8 -83q-44 -24 -102 -24q-85 0 -103 79q-60 -79 -184 -79q-98 0 -147 61.5t-49 168.5v303h104v-288q0 -75 30 -112t99 -37q52 0 88.5 27t54.5 66v344zM223 670q0 40 28.5 69t69.5 29t69.5 -29t28.5 -69t-28.5 -69t-69.5 -29
t-69.5 29t-28.5 69zM269 670q0 -22 15 -37t37 -15q21 0 36 15t15 37q0 21 -15 36t-36 15q-22 0 -37 -15t-15 -36z" />
    <glyph glyph-name="Uhungarumlaut" unicode="&#x170;" horiz-adv-x="795" 
d="M201 680v-392q0 -94 49 -148t146 -54q98 0 148 55.5t50 147.5v391h104v-399q0 -124 -79.5 -208t-222.5 -84q-144 0 -221.5 80t-77.5 212v399h104zM440 898l-97 -145h-89l82 145h104zM627 898l-96 -145h-90l82 145h104z" />
    <glyph glyph-name="uhungarumlaut" unicode="&#x171;" horiz-adv-x="689" 
d="M457 523h104v-385q0 -59 41 -59q25 0 56 18l8 -83q-44 -24 -102 -24q-85 0 -103 79q-60 -79 -184 -79q-98 0 -147 61.5t-49 168.5v303h104v-288q0 -75 30 -112t99 -37q52 0 88.5 27t54.5 66v344zM369 741l-97 -145h-89l82 145h104zM556 741l-96 -145h-90l82 145h104z" />
    <glyph glyph-name="Uogonek" unicode="&#x172;" horiz-adv-x="795" 
d="M202 680v-392q0 -95 49 -149.5t146 -54.5t147 56.5t50 148.5v391h104v-399q0 -110 -62 -189.5t-176 -97.5q-60 -19 -60 -67q0 -26 15.5 -40.5t41.5 -14.5q27 0 56 18l10 -49q-35 -20 -80 -20q-43 0 -69 25t-26 68q0 46 42 75q-141 2 -216.5 82t-75.5 210v399h104z" />
    <glyph glyph-name="uogonek" unicode="&#x173;" horiz-adv-x="688" 
d="M457 523h104v-385q0 -59 41 -59q25 0 56 18l8 -83q-24 -14 -62 -20q-62 -21 -62 -67q0 -26 15.5 -40.5t42.5 -14.5q26 0 55 18l11 -49q-35 -20 -80 -20q-43 0 -69.5 25t-26.5 68q0 48 48 78q-63 11 -77 77q-60 -79 -184 -79q-98 0 -147 61.5t-49 168.5v303h104v-288
q0 -75 30 -112t99 -37q52 0 88.5 27t54.5 66v344z" />
    <glyph glyph-name="Wcircumflex" unicode="&#x174;" horiz-adv-x="1089" 
d="M679 0l-133 329l-142 -329h-112l-270 680h111l223 -563l145 335l-89 228h112l210 -547l226 547h113l-281 -680h-113zM620 753l-75 92l-75 -92h-83l106 145h103l106 -145h-82z" />
    <glyph glyph-name="wcircumflex" unicode="&#x175;" horiz-adv-x="1016" 
d="M482 523h104v-290q0 -68 30.5 -107.5t91.5 -39.5q67 0 102.5 47.5t35.5 122.5q0 121 -60 267h110q54 -142 54 -276q0 -117 -63.5 -187t-172.5 -70q-73 0 -116.5 27.5t-66.5 86.5q-49 -114 -195 -114q-106 0 -160 60t-54 170v165q0 29 -9 44t-33 15q-31 0 -56 -19l-7 84
q54 23 105 23q104 0 104 -122v-175q0 -149 122 -149q62 0 98 41t36 112v284zM607 596l-75 92l-75 -92h-83l106 145h103l106 -145h-82z" />
    <glyph glyph-name="Ycircumflex" unicode="&#x176;" horiz-adv-x="676" 
d="M286 0v278l-275 394v8h116l211 -306l211 306h116v-8l-275 -393v-279h-104zM412 753l-75 92l-75 -92h-83l106 145h103l106 -145h-82z" />
    <glyph glyph-name="ycircumflex" unicode="&#x177;" horiz-adv-x="586" 
d="M12 523h115l176 -409l163 409h106l-229 -544q-38 -93 -82.5 -135t-122.5 -42q-65 0 -120 36l17 85q52 -32 103 -32q40 0 62.5 19.5t42.5 64.5l14 34zM374 596l-75 92l-75 -92h-83l106 145h103l106 -145h-82z" />
    <glyph glyph-name="Ydieresis" unicode="&#x178;" horiz-adv-x="676" 
d="M286 0v278l-275 394v8h116l211 -306l211 306h116v-8l-275 -393v-279h-104zM150 827q0 56 61 56t61 -56t-61 -56t-61 56zM402 827q0 56 62 56q60 0 60 -56t-60 -56q-62 0 -62 56z" />
    <glyph glyph-name="Zacute" unicode="&#x179;" horiz-adv-x="635" 
d="M60 75l382 514h-382v91h515v-75l-381 -514h381v-91h-515v75zM454 898l-96 -145h-90l81 145h105z" />
    <glyph glyph-name="zacute" unicode="&#x17a;" horiz-adv-x="528" 
d="M53 75l292 365h-292v83h423v-75l-291 -365h291v-83h-423v75zM399 741l-96 -145h-90l81 145h105z" />
    <glyph glyph-name="Zdotaccent" unicode="&#x17b;" horiz-adv-x="635" 
d="M60 75l382 514h-382v91h515v-75l-381 -514h381v-91h-515v75zM258 829q0 58 66 58q64 0 64 -58q0 -59 -64 -59q-66 0 -66 59z" />
    <glyph glyph-name="zdotaccent" unicode="&#x17c;" horiz-adv-x="528" 
d="M53 75l292 365h-292v83h423v-75l-291 -365h291v-83h-423v75zM209 672q0 58 66 58q64 0 64 -58q0 -59 -64 -59q-66 0 -66 59z" />
    <glyph glyph-name="Zcaron" unicode="&#x17d;" horiz-adv-x="635" 
d="M60 75l382 514h-382v91h515v-75l-381 -514h381v-91h-515v75zM247 898l75 -91l75 91h82l-106 -145h-103l-106 145h83z" />
    <glyph glyph-name="zcaron" unicode="&#x17e;" horiz-adv-x="528" 
d="M53 75l292 365h-292v83h423v-75l-291 -365h291v-83h-423v75zM193 741l75 -91l75 91h82l-106 -145h-103l-106 145h83z" />
    <glyph glyph-name="florin" unicode="&#x192;" horiz-adv-x="459" 
d="M418 314h-147v-345q0 -74 -39 -120.5t-114 -46.5q-73 0 -123 38l20 87q40 -33 80 -33q72 0 72 77v343h-145v66h145v174q0 74 39 120t114 46q69 0 123 -38l-19 -90q-41 36 -80 36q-73 0 -73 -79v-169h147v-66z" />
    <glyph glyph-name="Aringacute" unicode="&#x1fa;" horiz-adv-x="710" 
d="M16 0l275 664q-30 21 -30 63q0 39 27.5 60.5t69.5 21.5t69.5 -21.5t27.5 -60.5q0 -42 -31 -63l264 -664h-105l-60 150h-339l-62 -150h-106zM358 576l-147 -347h285zM306 727q0 -39 52 -39q51 0 51 39q0 38 -51 38q-52 0 -52 -38zM448 907l-59 -78h-67l48 78h78z" />
    <glyph glyph-name="aringacute" unicode="&#x1fb;" horiz-adv-x="701" 
d="M436 835l-58 -78h-68l48 78h78zM248 655q0 39 28 61t70 22t70 -22t28 -61t-28 -60.5t-70 -21.5t-70 21.5t-28 60.5zM294 655q0 -39 52 -39t52 39t-52 39t-52 -39zM573 523v-385q0 -59 42 -59q27 0 56 18l7 -83q-44 -24 -101 -24q-83 0 -101 77q-67 -76 -173 -76
q-112 0 -181 75t-69 194q0 120 69 196t181 76q104 0 166 -62v53h104zM469 140v242q-22 24 -60 41.5t-79 17.5q-78 0 -125 -50t-47 -131q0 -79 47.5 -129t124.5 -50q82 0 139 59z" />
    <glyph glyph-name="AEacute" unicode="&#x1fc;" horiz-adv-x="1065" 
d="M473 0v150h-268l-93 -150h-111l412 680h587v-92h-428v-194h355v-85h-355v-218h428v-91h-527zM246 229h227v376zM819 898l-96 -145h-90l81 145h105z" />
    <glyph glyph-name="aeacute" unicode="&#x1fd;" horiz-adv-x="921" 
d="M857 227h-363q3 -75 40.5 -114t123.5 -39t161 58l41 -75q-87 -71 -211 -71q-146 0 -201 93q-101 -94 -218 -94q-86 0 -137 44.5t-51 117.5q0 88 68.5 137t190.5 49q56 0 87 -7q0 67 -22 94t-84 27q-99 0 -173 -37l-19 92q87 35 203 35q81 0 116.5 -29t49.5 -82
q25 46 71.5 78.5t112.5 32.5q112 0 168 -61.5t56 -156.5q0 -61 -10 -92zM642 450q-65 0 -101.5 -41.5t-38.5 -100.5h268q2 16 2 22q0 53 -33.5 86.5t-96.5 33.5zM146 157q0 -39 29 -61t78 -22q71 0 134 58v111q-41 9 -89 9q-152 -5 -152 -95zM602 741l-96 -145h-90l81 145
h105z" />
    <glyph glyph-name="Oslashacute" unicode="&#x1fe;" horiz-adv-x="823" 
d="M61 339q0 151 100 251t249 100q112 0 201 -59l40 49h76v-8l-67 -82q101 -99 101 -251q0 -149 -100 -249t-251 -100q-106 0 -192 54l-36 -44h-77v9l61 75q-105 102 -105 255zM162 339q0 -106 68 -177l318 391q-61 39 -138 39q-107 0 -177.5 -72t-70.5 -181zM660 339
q0 102 -63 173l-317 -390q59 -35 130 -35q108 0 179 72t71 180zM548 898l-96 -145h-90l81 145h105z" />
    <glyph glyph-name="oslashacute" unicode="&#x1ff;" horiz-adv-x="660" 
d="M50 260q0 120 79 198.5t200 78.5q96 0 166 -50l30 36h55v-9l-48 -58q77 -77 77 -196q0 -118 -79 -196t-201 -78q-84 0 -150 39l-21 -25h-57v9l38 46q-89 78 -89 205zM151 260q0 -80 51 -129l231 280q-46 30 -104 30q-78 0 -128 -51.5t-50 -129.5zM509 260q0 69 -41 118
l-227 -276q37 -21 88 -21q79 0 129.5 51t50.5 128zM466 741l-96 -145h-90l81 145h105z" />
    <glyph glyph-name="Scommaaccent" unicode="&#x218;" horiz-adv-x="641" 
d="M353 283l-137 35q-154 39 -154 173q0 85 68.5 141.5t199.5 56.5q67 0 132 -15.5t106 -38.5l-31 -98q-37 23 -96.5 39.5t-114.5 16.5q-78 0 -117.5 -26.5t-39.5 -67.5q0 -62 92 -85l135 -36q93 -26 138.5 -68t45.5 -112q0 -94 -75.5 -151t-196.5 -57q-67 0 -132 18.5
t-103 40.5l25 99q98 -62 212 -62q74 0 118 28.5t44 75.5q0 35 -29.5 56.5t-89.5 36.5zM273 -244l24 67q-53 8 -53 54q0 28 17 43.5t44 15.5q33 0 51.5 -17.5t18.5 -49.5q0 -64 -50 -132z" />
    <glyph glyph-name="scommaaccent" unicode="&#x219;" horiz-adv-x="522" 
d="M465 494l-28 -91q-82 41 -168 41q-50 0 -81.5 -18.5t-31.5 -51.5q0 -26 16.5 -37.5t58.5 -21.5l108 -25q67 -17 98.5 -50t31.5 -89q0 -73 -55 -117t-153 -44q-109 0 -199 45l21 90q90 -48 174 -48q52 0 80 17.5t28 49.5q0 23 -20 35.5t-62 22.5l-101 24q-66 16 -98 49
t-32 91q0 74 61 120t164 46q48 0 102.5 -11.5t85.5 -26.5zM223 -244l24 67q-53 8 -53 54q0 28 17 43.5t44 15.5q33 0 51.5 -17.5t18.5 -49.5q0 -64 -50 -132z" />
    <glyph glyph-name="uni021A" unicode="&#x21a;" horiz-adv-x="633" 
d="M606 576h-232v-576h-104v576h-244v104h580v-104zM278 -244l24 67q-53 8 -53 54q0 28 17 43.5t44 15.5q33 0 51.5 -17.5t18.5 -49.5q0 -64 -50 -132z" />
    <glyph glyph-name="uni021B" unicode="&#x21b;" horiz-adv-x="489" 
d="M137 656h92v-133h204v-82h-204v-260q0 -100 84 -100q61 0 116 40l34 -81q-81 -50 -181 -50q-74 0 -115.5 44t-41.5 127v280h-98v82h98zM227 -244l24 67q-53 8 -53 54q0 28 17 43.5t44 15.5q33 0 51.5 -17.5t18.5 -49.5q0 -64 -50 -132z" />
    <glyph glyph-name="dotlessj" unicode="&#x237;" horiz-adv-x="281" 
d="M88 523h104v-489q0 -159 -141 -231l-61 69q48 27 73 63t25 96v492z" />
    <glyph glyph-name="circumflex" unicode="&#x2c6;" 
d="M382 596l-75 92l-75 -92h-83l106 145h103l106 -145h-82z" />
    <glyph glyph-name="caron" unicode="&#x2c7;" 
d="M232 741l75 -91l75 91h82l-106 -145h-103l-106 145h83z" />
    <glyph glyph-name="breve" unicode="&#x2d8;" 
d="M167 680l30 43q38 -51 110 -51t109 51l30 -43q-46 -79 -138 -79q-93 0 -141 79z" />
    <glyph glyph-name="dotaccent" unicode="&#x2d9;" 
d="M242 672q0 58 66 58q64 0 64 -58q0 -59 -64 -59q-66 0 -66 59z" />
    <glyph glyph-name="ring" unicode="&#x2da;" 
d="M209 630q0 40 28.5 69t69.5 29t69.5 -29t28.5 -69t-28.5 -69t-69.5 -29t-69.5 29t-28.5 69zM255 630q0 -22 15 -37t37 -15q21 0 36 15t15 37q0 21 -15 36t-36 15q-22 0 -37 -15t-15 -36z" />
    <glyph glyph-name="ogonek" unicode="&#x2db;" 
d="M304 10l54 -10q-41 -2 -67.5 -21t-26.5 -52q0 -26 15.5 -40.5t41.5 -14.5q27 0 56 18l11 -49q-36 -20 -81 -20q-43 0 -69 25t-26 68q0 39 29 65.5t63 30.5z" />
    <glyph glyph-name="tilde" unicode="&#x2dc;" 
d="M163 613l-34 43q15 32 43 54t61 22t81 -31.5t67 -31.5q45 0 69 47l34 -42q-38 -78 -103 -78q-31 0 -80 32t-67 32q-43 0 -71 -47z" />
    <glyph glyph-name="hungarumlaut" unicode="&#x2dd;" 
d="M306 741l-97 -145h-89l82 145h104zM493 741l-96 -145h-90l82 145h104z" />
    <glyph glyph-name="uni0394" unicode="&#x394;" horiz-adv-x="736" 
d="M31 0l282 680h121l269 -680h-672zM372 576l-208 -497h407z" />
    <glyph glyph-name="uni03A9" unicode="&#x3a9;" horiz-adv-x="839" 
d="M473 0v84q87 28 141 96t54 159q0 110 -69 181.5t-180 71.5q-109 0 -178.5 -71.5t-69.5 -181.5q0 -93 52 -160t141 -95v-84h-275v82h140q-72 36 -115.5 109.5t-43.5 165.5q0 139 99 236t250 97q152 0 251.5 -97t99.5 -236q0 -91 -44 -164.5t-116 -110.5h140v-82h-277z" />
    <glyph glyph-name="uni03BC" unicode="&#x3bc;" horiz-adv-x="657" 
d="M192 523v-278q0 -82 29.5 -120.5t99.5 -38.5q52 0 89 27t54 66v344h104v-523h-104v63q-61 -73 -179 -73q-52 0 -93 19v-197h-104v711h104z" />
    <glyph glyph-name="pi" unicode="&#x3c0;" horiz-adv-x="729" 
d="M31 523h661v-82h-128v-303q0 -59 42 -59q30 0 55 18l8 -83q-10 -8 -40 -16t-62 -8q-107 0 -107 125v326h-203v-441h-104v441h-122v82z" />
    <glyph glyph-name="Wgrave" unicode="&#x1e80;" horiz-adv-x="1089" 
d="M679 0l-133 329l-142 -329h-112l-270 680h111l223 -563l145 335l-89 228h112l210 -547l226 547h113l-281 -680h-113zM508 753l-96 145h105l81 -145h-90z" />
    <glyph glyph-name="wgrave" unicode="&#x1e81;" horiz-adv-x="1016" 
d="M482 523h104v-290q0 -68 30.5 -107.5t91.5 -39.5q67 0 102.5 47.5t35.5 122.5q0 121 -60 267h110q54 -142 54 -276q0 -117 -63.5 -187t-172.5 -70q-73 0 -116.5 27.5t-66.5 86.5q-49 -114 -195 -114q-106 0 -160 60t-54 170v165q0 29 -9 44t-33 15q-31 0 -56 -19l-7 84
q54 23 105 23q104 0 104 -122v-175q0 -149 122 -149q62 0 98 41t36 112v284zM491 596l-96 145h105l81 -145h-90z" />
    <glyph glyph-name="Wacute" unicode="&#x1e82;" horiz-adv-x="1089" 
d="M679 0l-133 329l-142 -329h-112l-270 680h111l223 -563l145 335l-89 228h112l210 -547l226 547h113l-281 -680h-113zM676 898l-96 -145h-90l81 145h105z" />
    <glyph glyph-name="wacute" unicode="&#x1e83;" horiz-adv-x="1016" 
d="M482 523h104v-290q0 -68 30.5 -107.5t91.5 -39.5q67 0 102.5 47.5t35.5 122.5q0 121 -60 267h110q54 -142 54 -276q0 -117 -63.5 -187t-172.5 -70q-73 0 -116.5 27.5t-66.5 86.5q-49 -114 -195 -114q-106 0 -160 60t-54 170v165q0 29 -9 44t-33 15q-31 0 -56 -19l-7 84
q54 23 105 23q104 0 104 -122v-175q0 -149 122 -149q62 0 98 41t36 112v284zM662 741l-96 -145h-90l81 145h105z" />
    <glyph glyph-name="Wdieresis" unicode="&#x1e84;" horiz-adv-x="1089" 
d="M679 0l-133 329l-142 -329h-112l-270 680h111l223 -563l145 335l-89 228h112l210 -547l226 547h113l-281 -680h-113zM358 827q0 56 61 56t61 -56t-61 -56t-61 56zM610 827q0 56 62 56q60 0 60 -56t-60 -56q-62 0 -62 56z" />
    <glyph glyph-name="wdieresis" unicode="&#x1e85;" horiz-adv-x="1016" 
d="M482 523h104v-290q0 -68 30.5 -107.5t91.5 -39.5q67 0 102.5 47.5t35.5 122.5q0 121 -60 267h110q54 -142 54 -276q0 -117 -63.5 -187t-172.5 -70q-73 0 -116.5 27.5t-66.5 86.5q-49 -114 -195 -114q-106 0 -160 60t-54 170v165q0 29 -9 44t-33 15q-31 0 -56 -19l-7 84
q54 23 105 23q104 0 104 -122v-175q0 -149 122 -149q62 0 98 41t36 112v284zM344 670q0 56 61 56t61 -56t-61 -56t-61 56zM596 670q0 56 62 56q60 0 60 -56t-60 -56q-62 0 -62 56z" />
    <glyph glyph-name="Ygrave" unicode="&#x1ef2;" horiz-adv-x="676" 
d="M286 0v278l-275 394v8h116l211 -306l211 306h116v-8l-275 -393v-279h-104zM296 753l-96 145h105l81 -145h-90z" />
    <glyph glyph-name="ygrave" unicode="&#x1ef3;" horiz-adv-x="586" 
d="M12 523h115l176 -409l163 409h106l-229 -544q-38 -93 -82.5 -135t-122.5 -42q-65 0 -120 36l17 85q52 -32 103 -32q40 0 62.5 19.5t42.5 64.5l14 34zM263 596l-96 145h105l81 -145h-90z" />
    <glyph glyph-name="endash" unicode="&#x2013;" horiz-adv-x="632" 
d="M76 344h480v-83h-480v83z" />
    <glyph glyph-name="emdash" unicode="&#x2014;" horiz-adv-x="872" 
d="M76 344h720v-83h-720v83z" />
    <glyph glyph-name="quoteleft" unicode="&#x2018;" horiz-adv-x="267" 
d="M193 665l-45 -134q55 -11 55 -66q0 -35 -18.5 -54t-52.5 -19q-33 0 -52 20t-19 53q0 46 24 115.5t48 109.5z" />
    <glyph glyph-name="quoteright" unicode="&#x2019;" horiz-adv-x="263" 
d="M75 414l46 135q-54 11 -54 66q0 73 70 73q34 0 53 -20t19 -53q0 -45 -25 -114t-49 -111z" />
    <glyph glyph-name="quotesinglbase" unicode="&#x201a;" horiz-adv-x="276" 
d="M75 -147l46 135q-54 10 -54 66q0 73 70 73q34 0 53 -20t19 -53q0 -45 -25 -114t-49 -111z" />
    <glyph glyph-name="quotedblleft" unicode="&#x201c;" horiz-adv-x="454" 
d="M381 669l-42 -129q50 -9 50 -59q0 -32 -16.5 -49.5t-46.5 -17.5t-47.5 18.5t-17.5 48.5q0 42 23 107.5t45 101.5zM182 669l-43 -129q50 -9 50 -59q0 -32 -16.5 -49.5t-46.5 -17.5t-47 18.5t-17 48.5q0 42 22.5 107t44.5 102z" />
    <glyph glyph-name="quotedblright" unicode="&#x201d;" horiz-adv-x="449" 
d="M74 435l42 128q-50 9 -50 60q0 32 16.5 49t47.5 17q29 0 46.5 -18.5t17.5 -47.5q0 -42 -22.5 -107.5t-44.5 -102.5zM274 435l42 128q-50 9 -50 60q0 31 16.5 48.5t46.5 17.5q31 0 48 -18.5t17 -47.5q0 -43 -23 -108.5t-45 -101.5z" />
    <glyph glyph-name="quotedblbase" unicode="&#x201e;" horiz-adv-x="462" 
d="M75 -150l43 129q-50 7 -50 59q0 67 63 67q30 0 47 -18.5t17 -48.5q0 -42 -22.5 -107t-44.5 -102zM275 -150l42 129q-50 8 -50 59q0 67 64 67q30 0 47 -18.5t17 -48.5q0 -42 -23 -107.5t-45 -101.5z" />
    <glyph glyph-name="dagger" unicode="&#x2020;" horiz-adv-x="606" 
d="M572 362h-227v-550h-84v550h-227v83h227v265h84v-265h227v-83z" />
    <glyph glyph-name="daggerdbl" unicode="&#x2021;" horiz-adv-x="656" 
d="M597 62h-227v-250h-84v250h-227v83h227v217h-227v83h227v265h84v-265h227v-83h-227v-217h227v-83z" />
    <glyph glyph-name="bullet" unicode="&#x2022;" horiz-adv-x="341" 
d="M68 302q0 51 26.5 78.5t75.5 27.5t76 -27.5t27 -78.5t-27 -78.5t-76 -27.5t-75.5 27.5t-26.5 78.5z" />
    <glyph glyph-name="ellipsis" unicode="&#x2026;" horiz-adv-x="753" 
d="M68 51q0 32 17 49.5t49 17.5t50 -17.5t18 -49.5t-18 -49t-50 -17q-66 0 -66 66zM310 51q0 32 17 49.5t49 17.5t50 -17.5t18 -49.5t-18 -49t-50 -17q-66 0 -66 66zM552 51q0 32 17 49.5t49 17.5t50 -17.5t18 -49.5t-18 -49t-50 -17q-66 0 -66 66z" />
    <glyph glyph-name="perthousand" unicode="&#x2030;" horiz-adv-x="1272" 
d="M873 166q0 76 51 127t129 51t129 -51t51 -127t-51 -126t-129 -50t-129 50t-51 126zM954 166q0 -42 28 -70.5t71 -28.5q44 0 71 28t27 71t-27 71.5t-71 28.5q-43 0 -71 -28.5t-28 -71.5zM474 166q0 76 50.5 127t128.5 51t129 -51t51 -127t-51 -126t-129 -50t-128.5 50
t-50.5 126zM554 166q0 -42 28 -70.5t71 -28.5t71 28.5t28 70.5q0 43 -28 71.5t-71 28.5t-71 -28.5t-28 -71.5zM210 9l355 671h91v-8l-354 -672h-92v9zM41 512q0 76 50.5 127t128.5 51t129 -51t51 -127t-51 -126t-129 -50t-128.5 50t-50.5 126zM121 512q0 -42 28 -70.5
t71 -28.5t71 28.5t28 70.5t-28 71t-71 29t-71 -29t-28 -71z" />
    <glyph glyph-name="guilsinglleft" unicode="&#x2039;" horiz-adv-x="321" 
d="M50 291v22l161 201h8l38 -23l-118 -189l118 -188l-38 -24h-8z" />
    <glyph glyph-name="guilsinglright" unicode="&#x203a;" horiz-adv-x="321" 
d="M270 313v-22l-160 -201h-8l-37 23l117 189l-118 188l38 24h8z" />
    <glyph glyph-name="fraction" unicode="&#x2044;" horiz-adv-x="159" 
d="M-136 9l369 671h62v-8l-368 -672h-63v9z" />
    <glyph glyph-name="zerosuperior" unicode="&#x2070;" horiz-adv-x="371" 
d="M43 620q0 79 36 124.5t106 45.5q71 0 107.5 -45.5t36.5 -124.5q0 -78 -36.5 -123.5t-107.5 -45.5q-70 0 -106 45.5t-36 123.5zM101 620q0 -113 84 -113q85 0 85 113q0 115 -85 115q-84 0 -84 -115z" />
    <glyph glyph-name="foursuperior" unicode="&#x2074;" horiz-adv-x="360" 
d="M332 520h-62v-64h-60v64h-186v41l168 223l18 -1v1h60v-218h62v-46zM86 566h124v165z" />
    <glyph glyph-name="fivesuperior" unicode="&#x2075;" horiz-adv-x="329" 
d="M55 610l-2 3l14 171h211v-52h-160l-6 -76h41q136 0 136 -93q0 -56 -38.5 -84t-101.5 -28q-58 0 -115 22l16 50q45 -21 95 -21q36 0 59.5 14.5t23.5 44.5q0 49 -78 49h-95z" />
    <glyph glyph-name="sixsuperior" unicode="&#x2076;" horiz-adv-x="359" 
d="M199 738q-47 0 -71 -29t-26 -79q41 43 98 43q58 0 89.5 -27.5t31.5 -77.5q0 -53 -36.5 -85t-92.5 -32q-71 0 -110.5 46t-39.5 124q0 77 39.5 123t110.5 46q64 0 115 -27l-18 -50q-39 25 -90 25zM191 627q-48 0 -87 -39q15 -82 88 -82q30 0 49.5 18t19.5 44q0 29 -19 44
t-51 15z" />
    <glyph glyph-name="sevensuperior" unicode="&#x2077;" horiz-adv-x="290" 
d="M65 461l136 271h-176v52h243v-43l-137 -285h-66v5z" />
    <glyph glyph-name="eightsuperior" unicode="&#x2078;" horiz-adv-x="361" 
d="M180 451q-65 0 -101.5 25.5t-36.5 69.5q0 68 77 82q-29 5 -47.5 25.5t-18.5 45.5q0 44 33 67.5t94 23.5t94.5 -23.5t33.5 -67.5q0 -25 -18.5 -45.5t-47.5 -25.5q77 -14 77 -82q0 -44 -36.5 -69.5t-102.5 -25.5zM181 605q-39 0 -58.5 -14t-19.5 -36q0 -25 21.5 -40
t55.5 -15q35 0 56.5 15t21.5 40q0 22 -19 36t-58 14zM180 741q-31 0 -49 -12.5t-18 -34.5q0 -20 17 -33.5t51 -13.5t50.5 13.5t16.5 33.5q0 22 -18 34.5t-50 12.5z" />
    <glyph glyph-name="ninesuperior" unicode="&#x2079;" horiz-adv-x="359" 
d="M159 503q93 0 98 107q-42 -42 -98 -42q-58 0 -89.5 27t-31.5 77q0 53 36.5 85.5t92.5 32.5q71 0 110.5 -46t39.5 -124q0 -77 -39.5 -123t-111.5 -46q-71 0 -113 27l17 50q39 -25 89 -25zM167 614q48 0 87 39q-6 38 -28.5 60t-58.5 22q-30 0 -49.5 -18t-19.5 -45
q0 -28 19 -43t50 -15z" />
    <glyph glyph-name="zeroinferior" unicode="&#x2080;" horiz-adv-x="371" 
d="M43 64q0 79 36 124.5t106 45.5q71 0 107.5 -45.5t36.5 -124.5q0 -78 -36.5 -123.5t-107.5 -45.5q-70 0 -106 45.5t-36 123.5zM101 64q0 -113 84 -113q85 0 85 113q0 115 -85 115q-84 0 -84 -115z" />
    <glyph glyph-name="oneinferior" unicode="&#x2081;" horiz-adv-x="265" 
d="M16 154l142 74h45v-328h-60v260l-103 -51z" />
    <glyph glyph-name="twoinferior" unicode="&#x2082;" horiz-adv-x="338" 
d="M48 -100v46l130 98q50 37 50 78q0 25 -16 41t-45 16q-35 0 -53.5 -19.5t-18.5 -52.5l-55 10q1 54 34.5 85.5t92.5 31.5q61 0 92 -30t31 -81q0 -65 -70 -115l-76 -55h156v-53h-252z" />
    <glyph glyph-name="threeinferior" unicode="&#x2083;" horiz-adv-x="332" 
d="M78 94h80q28 0 44 12.5t16 31.5q0 43 -69 43q-51 0 -96 -20l-14 52q52 21 110 21q62 0 96 -23.5t34 -66.5q0 -26 -16.5 -46.5t-44.5 -25.5q72 -16 72 -82q0 -44 -37 -69.5t-104 -25.5q-48 0 -111 21l16 50q43 -19 95 -19q35 0 57 14t22 38q0 44 -70 44h-80v51z" />
    <glyph glyph-name="fourinferior" unicode="&#x2084;" horiz-adv-x="361" 
d="M332 -36h-62v-64h-60v64h-186v41l168 223l18 -2v2h60v-218h62v-46zM86 10h124v165z" />
    <glyph glyph-name="fiveinferior" unicode="&#x2085;" horiz-adv-x="330" 
d="M56 55l-3 2l14 171h212v-52h-161l-6 -76h41q136 0 136 -93q0 -55 -38.5 -83.5t-101.5 -28.5q-64 0 -114 22l15 50q49 -20 95 -20q36 0 59.5 14.5t23.5 43.5q0 50 -78 50h-94z" />
    <glyph glyph-name="sixinferior" unicode="&#x2086;" horiz-adv-x="359" 
d="M199 182q-47 0 -71 -29t-26 -79q41 43 98 43q58 0 89.5 -27.5t31.5 -77.5q0 -53 -36.5 -85t-92.5 -32q-71 0 -110.5 46t-39.5 124q0 77 39.5 123t110.5 46q64 0 115 -27l-18 -50q-39 25 -90 25zM191 71q-48 0 -87 -39q15 -82 88 -82q30 0 49.5 18t19.5 44q0 29 -19 44
t-51 15z" />
    <glyph glyph-name="seveninferior" unicode="&#x2087;" horiz-adv-x="289" 
d="M65 -95l136 271h-175v52h243v-42l-138 -286h-66v5z" />
    <glyph glyph-name="eightinferior" unicode="&#x2088;" horiz-adv-x="361" 
d="M180 -105q-65 0 -101.5 25.5t-36.5 69.5q0 68 77 82q-29 5 -47.5 25.5t-18.5 46.5q0 43 33 66.5t94 23.5t94 -23t33 -67q0 -26 -18 -46.5t-47 -25.5q77 -14 77 -82q0 -44 -36.5 -69.5t-102.5 -25.5zM180 49q-39 0 -58 -14t-19 -36q0 -24 21.5 -39.5t55.5 -15.5t56 15.5
t22 39.5q0 50 -78 50zM180 185q-31 0 -49 -12.5t-18 -34.5q0 -20 17 -33.5t50 -13.5q34 0 51 13.5t17 33.5q0 22 -18.5 34.5t-49.5 12.5z" />
    <glyph glyph-name="nineinferior" unicode="&#x2089;" horiz-adv-x="359" 
d="M159 -53q47 0 71.5 29t26.5 79q-41 -43 -98 -43q-58 0 -89.5 27.5t-31.5 77.5q0 52 36.5 84.5t92.5 32.5q71 0 110.5 -46t39.5 -124q0 -77 -39.5 -123t-111.5 -46q-67 0 -113 27l17 50q39 -25 89 -25zM167 58q48 0 87 39q-6 37 -28.5 59.5t-58.5 22.5q-30 0 -49.5 -18
t-19.5 -44q0 -29 19 -44t50 -15z" />
    <glyph glyph-name="Euro" unicode="&#x20ac;" 
d="M555 609l-37 -78q-66 63 -148 63q-66 0 -110.5 -41t-59.5 -124h271l-30 -65h-248v-25q0 -25 1 -36h221l-26 -65h-187q34 -152 165 -152q82 0 155 55l39 -86q-87 -65 -202 -65q-105 0 -174 64t-90 184h-56v65h49q-1 11 -1 36v25h-48v65h54q19 126 89.5 193.5t179.5 67.5
q107 0 193 -81z" />
    <glyph glyph-name="afii61289" unicode="&#x2113;" horiz-adv-x="420" 
d="M72 125l-30 51l71 50v265q0 97 39.5 147.5t110.5 50.5q117 0 117 -137q0 -104 -49.5 -196.5t-118.5 -151.5v-50q0 -43 16.5 -61t48.5 -18q35 0 66 21l-3 -90q-35 -16 -96 -16q-131 0 -131 131v33zM212 504v-223q105 103 105 276q0 68 -46 68q-27 0 -43 -30.5t-16 -90.5z
" />
    <glyph glyph-name="uni2117" unicode="&#x2117;" horiz-adv-x="830" 
d="M65 339q0 151 100 251t249 100q151 0 251 -100t100 -251q0 -149 -100 -249t-251 -100q-149 0 -249 100t-100 249zM126 339q0 -125 82 -208t206 -83q125 0 207.5 83t82.5 208t-82.5 208.5t-207.5 83.5q-124 0 -206 -83.5t-82 -208.5zM306 169v340h161q52 0 87 -31.5
t35 -91.5q0 -56 -35.5 -89t-86.5 -33h-82v-95h-79zM456 444h-71v-115h71q24 0 40 15.5t16 41.5q0 27 -16 42.5t-40 15.5z" />
    <glyph glyph-name="trademark" unicode="&#x2122;" horiz-adv-x="851" 
d="M695 357v214l-106 -130h-12l-106 130v-214h-59v306h50l121 -144l120 144h51v-306h-59zM334 604h-99v-247h-59v247h-103v59h261v-59z" />
    <glyph glyph-name="Omega" unicode="&#x2126;" horiz-adv-x="839" 
d="M473 0v84q87 28 141 96t54 159q0 110 -69 181.5t-180 71.5q-109 0 -178.5 -71.5t-69.5 -181.5q0 -93 52 -160t141 -95v-84h-275v82h140q-72 36 -115.5 109.5t-43.5 165.5q0 139 99 236t250 97q152 0 251.5 -97t99.5 -236q0 -91 -44 -164.5t-116 -110.5h140v-82h-277z" />
    <glyph glyph-name="estimated" unicode="&#x212e;" horiz-adv-x="688" 
d="M350 601q71 0 126 -25.5t87.5 -69.5t49 -98t16.5 -114v-26h-431v-169q58 -58 152 -58q129 0 184 104h66q-30 -73 -93 -115t-157 -42q-93 0 -157.5 45t-92.5 112.5t-28 148.5q0 82 28 149.5t92.5 112.5t157.5 45zM350 548q-96 0 -152 -58v-170h304v170q-56 58 -152 58z
" />
    <glyph glyph-name="onethird" unicode="&#x2153;" horiz-adv-x="788" 
d="M139 9l369 671h62v-8l-368 -672h-63v9zM33 606l142 74h45v-328h-60v260l-103 -52zM525 192h80q28 0 44 12.5t16 31.5q0 43 -69 43q-51 0 -96 -20l-14 52q52 21 110 21q62 0 96 -23.5t34 -66.5q0 -26 -16.5 -46.5t-44.5 -25.5q72 -16 72 -82q0 -44 -37 -69.5t-104 -25.5
q-48 0 -111 21l16 50q43 -19 95 -19q35 0 57 14t22 38q0 44 -70 44h-80v51z" />
    <glyph glyph-name="twothirds" unicode="&#x2154;" horiz-adv-x="851" 
d="M208 9l369 671h62v-8l-368 -672h-63v9zM594 192h80q28 0 44 12.5t16 31.5q0 43 -69 43q-51 0 -96 -20l-14 52q53 21 110 21q62 0 96 -23.5t34 -66.5q0 -26 -16.5 -46.5t-44.5 -25.5q72 -16 72 -82q0 -44 -37 -69.5t-104 -25.5q-48 0 -111 21l16 50q43 -19 95 -19
q35 0 57 14t22 38q0 44 -70 44h-80v51zM312 356h-252v46l130 98q50 37 50 78q0 25 -16 41t-45 16q-35 0 -53.5 -19.5t-18.5 -52.5l-55 10q1 53 34.5 85t92.5 32q61 0 92 -30.5t31 -80.5q0 -65 -70 -115l-76 -55h156v-53z" />
    <glyph glyph-name="oneeighth" unicode="&#x215b;" horiz-adv-x="788" 
d="M139 9l369 671h62v-8l-368 -672h-63v9zM598 -5q-65 0 -101.5 25.5t-36.5 69.5q0 68 77 82q-29 5 -47.5 25.5t-18.5 46.5q0 43 33 66.5t94 23.5t94 -23t33 -67q0 -26 -18 -46.5t-47 -25.5q77 -14 77 -82q0 -44 -36.5 -69.5t-102.5 -25.5zM598 149q-39 0 -58 -14t-19 -36
q0 -24 21.5 -39.5t55.5 -15.5t56 15.5t22 39.5q0 50 -78 50zM598 285q-31 0 -49 -12.5t-18 -34.5q0 -20 17 -33.5t50 -13.5q34 0 51 13.5t17 33.5q0 22 -18.5 34.5t-49.5 12.5zM33 610l142 74h45v-328h-60v260l-103 -52z" />
    <glyph glyph-name="threeeighths" unicode="&#x215c;" horiz-adv-x="839" 
d="M195 9l369 671h62v-8l-368 -672h-63v9zM654 -5q-65 0 -101.5 25.5t-36.5 69.5q0 68 77 82q-29 5 -47.5 25.5t-18.5 46.5q0 43 33 66.5t94 23.5t94 -23t33 -67q0 -26 -18 -46.5t-47 -25.5q77 -14 77 -82q0 -44 -36.5 -69.5t-102.5 -25.5zM654 149q-39 0 -58 -14t-19 -36
q0 -24 21.5 -39.5t55.5 -15.5t56 15.5t22 39.5q0 50 -78 50zM654 285q-31 0 -49 -12.5t-18 -34.5q0 -20 17 -33.5t50 -13.5q34 0 51 13.5t17 33.5q0 22 -18.5 34.5t-49.5 12.5zM90 550h80q28 0 44 12.5t16 31.5q0 43 -69 43q-51 0 -96 -20l-14 52q52 21 110 21
q62 0 96 -23.5t34 -67.5q0 -26 -16.5 -46t-44.5 -26q72 -14 72 -81q0 -44 -37 -69.5t-104 -25.5q-51 0 -111 20l16 51q43 -19 95 -19q35 0 57 14t22 38q0 44 -70 44h-80v51z" />
    <glyph glyph-name="fiveeighths" unicode="&#x215d;" horiz-adv-x="837" 
d="M652 -5q-65 0 -101.5 25.5t-36.5 69.5q0 68 77 82q-29 5 -47.5 25.5t-18.5 46.5q0 43 33 66.5t94 23.5t94 -23t33 -67q0 -26 -18 -46.5t-47 -25.5q77 -14 77 -82q0 -44 -36.5 -69.5t-102.5 -25.5zM194 9l369 671h62v-8l-368 -672h-63v9zM67 510l-2 3l14 171h211v-52h-160
l-6 -76h41q136 0 136 -93q0 -56 -38.5 -84t-101.5 -28q-58 0 -115 22l16 50q45 -21 95 -21q36 0 59.5 14.5t23.5 44.5q0 49 -78 49h-95zM652 149q-39 0 -58 -14t-19 -36q0 -24 21.5 -39.5t55.5 -15.5t56 15.5t22 39.5q0 50 -78 50zM652 285q-31 0 -49 -12.5t-18 -34.5
q0 -20 17 -33.5t50 -13.5q34 0 51 13.5t17 33.5q0 22 -18.5 34.5t-49.5 12.5z" />
    <glyph glyph-name="seveneighths" unicode="&#x215e;" horiz-adv-x="785" 
d="M140 9l369 671h62v-8l-368 -672h-63v9zM599 -5q-65 0 -101.5 25.5t-36.5 69.5q0 68 77 82q-29 5 -47.5 25.5t-18.5 46.5q0 43 33 66.5t94 23.5t94 -23t33 -67q0 -26 -18 -46.5t-47 -25.5q77 -14 77 -82q0 -44 -36.5 -69.5t-102.5 -25.5zM599 149q-39 0 -58 -14t-19 -36
q0 -24 21.5 -39.5t55.5 -15.5t56 15.5t22 39.5q0 50 -78 50zM599 285q-31 0 -49 -12.5t-18 -34.5q0 -20 17 -33.5t50 -13.5q34 0 51 13.5t17 33.5q0 22 -18.5 34.5t-49.5 12.5zM77 361l136 271h-176v52h243v-43l-137 -285h-66v5z" />
    <glyph glyph-name="arrowleft" unicode="&#x2190;" horiz-adv-x="720" 
d="M207 337h443v-77h-442l165 -160l-51 -53l-252 253l251 249l52 -55z" />
    <glyph glyph-name="arrowup" unicode="&#x2191;" horiz-adv-x="720" 
d="M399 450v-442h-78v441l-159 -165l-53 51l252 252l249 -251l-55 -52z" />
    <glyph glyph-name="arrowright" unicode="&#x2192;" horiz-adv-x="720" 
d="M513 259h-443v77h442l-166 160l52 53l252 -253l-251 -249l-53 55z" />
    <glyph glyph-name="arrowdown" unicode="&#x2193;" horiz-adv-x="720" 
d="M320 144v443h78v-441l159 165l53 -51l-253 -252l-248 251l55 52z" />
    <glyph glyph-name="uni2196" unicode="&#x2196;" horiz-adv-x="720" 
d="M280 434l312 -313l-54 -55l-313 312l5 -229l-74 -2v357l353 -1l-1 -76z" />
    <glyph glyph-name="uni2197" unicode="&#x2197;" horiz-adv-x="720" 
d="M496 378l-313 -313l-56 54l313 313l-230 -4q0 12 -0.5 36.5t-0.5 37.5h357l-2 -354l-75 2z" />
    <glyph glyph-name="uni2198" unicode="&#x2198;" horiz-adv-x="720" 
d="M441 162l-313 313l54 55l312 -312l-4 229l74 2v-357l-354 1l2 76z" />
    <glyph glyph-name="uni2199" unicode="&#x2199;" horiz-adv-x="720" 
d="M223 217l314 312l55 -53l-313 -313l229 4l2 -74h-357l1 354l77 -2z" />
    <glyph glyph-name="partialdiff" unicode="&#x2202;" horiz-adv-x="620" 
d="M259 453q110 0 190 -94q-6 112 -71 188.5t-150 105.5l41 67q116 -27 200.5 -130t84.5 -249q0 -161 -72 -256t-203 -95q-102 0 -168.5 66.5t-66.5 174.5q0 100 58 161t157 61zM283 86q69 0 109.5 49t52.5 136q-70 96 -163 96q-62 0 -98.5 -35.5t-36.5 -101.5
q0 -61 38 -102.5t98 -41.5z" />
    <glyph glyph-name="Delta" unicode="&#x2206;" horiz-adv-x="736" 
d="M31 0l282 680h121l269 -680h-672zM372 576l-208 -497h407z" />
    <glyph glyph-name="product" unicode="&#x220f;" horiz-adv-x="726" 
d="M203 -188h-99v868h518v-868h-99v776h-320v-776z" />
    <glyph glyph-name="summation" unicode="&#x2211;" horiz-adv-x="547" 
d="M61 0v58l197 283l-199 283v56h426v-83h-300l177 -257l-175 -257h298v-83h-424z" />
    <glyph glyph-name="minus" unicode="&#x2212;" 
d="M66 344h468v-83h-468v83z" />
    <glyph glyph-name="uni2215" unicode="&#x2215;" horiz-adv-x="159" 
d="M-136 9l369 671h62v-8l-368 -672h-63v9z" />
    <glyph glyph-name="uni2219" unicode="&#x2219;" horiz-adv-x="285" 
d="M72 297q0 70 70 70q34 0 52.5 -18t18.5 -52q0 -70 -71 -70q-70 0 -70 70z" />
    <glyph glyph-name="radical" unicode="&#x221a;" horiz-adv-x="644" 
d="M193 457l171 -341l185 587l59 -20l-219 -683h-69l-173 342l-93 -48l-36 70z" />
    <glyph glyph-name="infinity" unicode="&#x221e;" horiz-adv-x="836" 
d="M150 299q0 -44 25 -68t65 -24q39 0 84 47l43 45l-42 45q-45 48 -85 48t-65 -24.5t-25 -68.5zM418 250l-44 -46q-37 -37 -70 -54.5t-76 -17.5q-67 0 -111.5 45.5t-44.5 121.5q0 77 44.5 122.5t111.5 45.5q76 0 146 -72l43 -45l45 45q36 36 69 54t76 18q67 0 111.5 -45.5
t44.5 -122.5q0 -76 -44.5 -121.5t-111.5 -45.5q-43 0 -75 17.5t-70 54.5zM684 299q0 44 -24.5 68.5t-64.5 24.5q-41 0 -84 -48l-43 -45l43 -45q44 -47 84 -47t64.5 24t24.5 68z" />
    <glyph glyph-name="integral" unicode="&#x222b;" horiz-adv-x="461" 
d="M179 -30v584q0 74 38.5 120t113.5 46q68 0 123 -38l-19 -90q-41 36 -80 36q-72 0 -72 -80v-579q0 -73 -39.5 -120t-113.5 -47q-34 0 -69 11t-55 26l20 87q41 -32 80 -32q73 0 73 76z" />
    <glyph glyph-name="approxequal" unicode="&#x2248;" 
d="M512 486l27 -63q-42 -62 -119 -62q-41 0 -122.5 29.5t-114.5 29.5q-62 0 -96 -42l-26 66q41 60 118 60q43 0 126.5 -29.5t111.5 -29.5q59 0 95 41zM511 215l28 -63q-45 -63 -120 -63q-40 0 -122 29.5t-115 29.5q-64 0 -95 -42l-27 66q41 60 118 60q43 0 126.5 -29.5
t110.5 -29.5q62 0 96 42z" />
    <glyph glyph-name="notequal" unicode="&#x2260;" 
d="M164 40l29 81h-127v83h157l72 197h-229v83h259l40 111l63 -21l-33 -90h139v-83h-169l-71 -197h240v-83h-270l-37 -102z" />
    <glyph glyph-name="lessequal" unicode="&#x2264;" 
d="M65 150h468v-83h-468v83zM65 373v82l461 170h8v-78l-372 -132l372 -131v-78h-8z" />
    <glyph glyph-name="greaterequal" unicode="&#x2265;" 
d="M66 150h468v-83h-468v83zM534 455v-82l-460 -167h-8v78l371 131l-371 132v78h8z" />
    <glyph glyph-name="lozenge" unicode="&#x25ca;" horiz-adv-x="570" 
d="M530 331l-212 -331h-68l-211 331l211 349h68zM441 330l-157 258l-156 -258l156 -242z" />
    <glyph glyph-name="uniF8FF" unicode="&#xf8ff;" horiz-adv-x="612" 
d="M50 720h512v-720h-512v720zM266 283h48q0 26 14 47t34 36t40 29.5t34 36t14 48.5q0 51 -36.5 85t-101.5 34q-39 0 -67 -14.5t-41.5 -37t-19 -43.5t-5.5 -41h47q0 40 21 66.5t65 26.5q41 0 64 -21.5t23 -54.5q0 -23 -21 -45t-45.5 -38t-45.5 -46t-21 -68zM255 194v-71h68
v71h-68z" />
    <glyph glyph-name="fi" unicode="&#xfb01;" horiz-adv-x="787" 
d="M38 412v83h103v43q0 81 43 131.5t129 50.5q75 0 134 -41l-26 -88q-46 37 -97 37q-79 0 -79 -90v-43h177v-83h-177v-412h-104v412h-103zM656 523v-385q0 -59 42 -59q30 0 55 18l8 -83q-10 -8 -40 -16t-62 -8q-107 0 -107 125v408h104zM540 672q0 58 65 58q64 0 64 -58
q0 -59 -64 -59q-65 0 -65 59z" />
    <glyph glyph-name="fl" unicode="&#xfb02;" horiz-adv-x="788" 
d="M38 412v83h103v43q0 81 43 131.5t129 50.5q75 0 134 -41l-26 -88q-46 37 -97 37q-79 0 -79 -90v-43h177v-83h-177v-412h-104v412h-103zM545 710h104v-566q0 -65 53 -65q28 0 61 18l7 -83q-48 -24 -106 -24q-119 0 -119 130v590z" />
    <glyph glyph-name="Imacron" horiz-adv-x="315" 
d="M106 0v680h104v-680h-104zM281 780h-247v73h247v-73z" />
    <glyph glyph-name="ibreve" horiz-adv-x="322" 
d="M87 523h104v-385q0 -59 42 -59q30 0 55 18l8 -83q-10 -8 -40 -16t-62 -8q-107 0 -107 125v408zM0 680l30 43q38 -51 110 -51t109 51l30 -43q-46 -79 -138 -79q-93 0 -141 79z" />
    <glyph glyph-name="commaaccent" 
d="M266 -244l24 67q-53 8 -53 54q0 28 17 43.5t44 15.5q33 0 51.5 -17.5t18.5 -49.5q0 -64 -50 -132z" />
    <glyph glyph-name="commaaccent.alt" 
d="M332 760l-24 -67q26 -4 40 -18.5t14 -35.5q0 -28 -17 -43.5t-44 -15.5q-34 0 -52 17.5t-18 49.5q0 67 49 132z" />
    <glyph glyph-name="zero.tf" 
d="M38 339q0 162 66 256.5t194 94.5q131 0 197 -94t66 -257q0 -161 -66 -255t-197 -94q-128 0 -194 94t-66 255zM139 339q0 -252 159 -252q161 0 161 252q0 255 -161 255q-159 0 -159 -255z" />
    <glyph glyph-name="one.tf" 
d="M550 0h-493v91h220v475l-192 -89l-35 84l252 119h79v-589h169v-91z" />
    <glyph glyph-name="two.tf" 
d="M550 0h-487v79l260 209q54 44 78 85t24 90q0 57 -33.5 94t-97.5 37q-73 0 -111 -43t-39 -115l-95 17q2 108 67 172.5t180 64.5q116 0 175.5 -60.5t59.5 -158.5q0 -69 -28.5 -126t-97.5 -110l-185 -144h330v-91z" />
    <glyph glyph-name="three.tf" 
d="M132 395h162q64 0 97.5 29t33.5 73q0 50 -42 76.5t-112 26.5q-109 0 -199 -45l-25 89q104 46 223 46q125 0 192.5 -47.5t67.5 -135.5q0 -55 -35.5 -98t-95.5 -54q73 -14 114 -57t41 -113q0 -91 -74.5 -143t-209.5 -52q-106 0 -224 44l26 89q94 -44 198 -44
q79 0 128.5 32.5t49.5 88.5q0 105 -154 105h-162v90z" />
    <glyph glyph-name="four.tf" 
d="M568 139h-82v-139h-104v139h-351v70l318 471h137v-462h82v-79zM136 218h246v361z" />
    <glyph glyph-name="five.tf" 
d="M92 332l-5 5l28 343h414v-91h-326l-14 -179h94q126 0 196.5 -46.5t70.5 -144.5q0 -114 -76.5 -171.5t-198.5 -57.5q-118 0 -225 47l28 88q87 -46 192 -46q75 0 124.5 34t49.5 104q0 115 -167 115h-185z" />
    <glyph glyph-name="six.tf" 
d="M528 631l-30 -85q-71 55 -166 55q-88 0 -133.5 -63t-50.5 -173q74 88 186 88q105 0 163 -58.5t58 -163.5q0 -108 -66.5 -174.5t-169.5 -66.5q-130 0 -202.5 95t-72.5 256q0 158 73 253.5t204 95.5q64 0 120.5 -18.5t86.5 -40.5zM316 367q-89 0 -164 -96
q12 -86 53.5 -135.5t109.5 -49.5q60 0 98.5 41.5t38.5 103.5q0 66 -37 101t-99 35z" />
    <glyph glyph-name="seven.tf" 
d="M144 10l283 579h-372v91h489v-75l-285 -605h-115v10z" />
    <glyph glyph-name="eight.tf" 
d="M300 -10q-122 0 -190.5 52.5t-68.5 142.5q0 143 141 170q-56 9 -88 52.5t-32 99.5q0 88 62.5 135.5t175.5 47.5t175 -47.5t62 -135.5q0 -56 -31.5 -99.5t-86.5 -52.5q140 -27 140 -170q0 -90 -68.5 -142.5t-190.5 -52.5zM301 304q-77 0 -115.5 -29t-38.5 -79
q0 -54 42.5 -85.5t110.5 -31.5t110.5 31.5t42.5 85.5q0 50 -37.5 79t-114.5 29zM300 603q-62 0 -98 -25.5t-36 -75.5q0 -44 33 -72.5t102 -28.5q68 0 100.5 28.5t32.5 72.5q0 50 -36 75.5t-98 25.5z" />
    <glyph glyph-name="nine.tf" 
d="M266 79q88 0 134 63t50 173q-74 -88 -185 -88q-105 0 -163 58.5t-58 163.5q0 108 66 174.5t170 66.5q130 0 202.5 -95t72.5 -256q0 -158 -73 -253.5t-203 -95.5q-66 0 -122.5 18.5t-86.5 40.5l31 85q71 -55 165 -55zM284 312q91 0 162 97q-12 85 -54 135t-108 50
q-59 0 -97.5 -41.5t-38.5 -103.5q0 -66 37 -101.5t99 -35.5z" />
    <glyph glyph-name="Euro.tf" 
d="M555 609l-37 -78q-66 63 -148 63q-66 0 -110.5 -41t-59.5 -124h271l-30 -65h-248v-25q0 -25 1 -36h221l-26 -65h-187q34 -152 165 -152q82 0 155 55l39 -86q-87 -65 -202 -65q-105 0 -174 64t-90 184h-56v65h49q-1 11 -1 36v25h-48v65h54q19 126 89.5 193.5t179.5 67.5
q107 0 193 -81z" />
    <glyph glyph-name="cent.tf" 
d="M508 138l39 -80q-92 -72 -218 -72q-33 0 -57 4l-35 -126l-63 17l34 123q-81 28 -121 95t-40 161q0 121 75.5 199t199.5 78q13 0 33 -2l30 108l64 -17l-29 -104q62 -21 96 -69.5t37 -116.5l-85 -19q-6 89 -71 121l-101 -361q20 -3 41 -3q86 0 171 64zM145 263
q0 -123 88 -168l99 358h-10q-80 0 -128.5 -53t-48.5 -137z" />
    <glyph glyph-name="sterling.tf" 
d="M461 314h-202q15 -84 15 -131q0 -21 -1 -31q9 -6 37 -27t51.5 -33.5t42.5 -12.5q41 0 58.5 30.5t17.5 91.5v18h83q1 -12 1 -35q0 -91 -35 -142.5t-106 -51.5q-29 0 -57.5 14t-67 44.5t-46.5 35.5q-19 -45 -46.5 -69.5t-75.5 -24.5q-46 0 -71 28t-25 73q0 44 28 71.5
t73 27.5q29 0 51 -11q0 35 -24 135h-98v66h83q-12 62 -12 114q0 87 52 141.5t153 54.5q63 0 117.5 -27t83.5 -56l-33 -88q-1 1 -9 8.5t-10.5 10t-10.5 10t-12.5 10.5l-13.5 9t-15.5 9t-16 7t-18.5 6t-20 3.5t-22 1.5q-59 0 -90 -34t-31 -90q0 -40 8 -90h214v-66zM145 130
q-21 0 -34 -11.5t-13 -29.5q0 -38 34 -38q39 0 49 68q-15 11 -36 11z" />
    <glyph glyph-name="florin.tf" horiz-adv-x="459" 
d="M418 314h-147v-345q0 -74 -39 -120.5t-114 -46.5q-73 0 -123 38l20 87q40 -33 80 -33q72 0 72 77v343h-145v66h145v174q0 74 39 120t114 46q69 0 123 -38l-19 -90q-41 36 -80 36q-73 0 -73 -79v-169h147v-66z" />
    <glyph glyph-name="yen.tf" 
d="M512 135h-162v-135h-104v135h-162v65h162v63h-162v65h135l-184 344v8h107l156 -317l159 317h108v-8l-188 -344h135v-65h-162v-63h162v-65z" />
    <glyph glyph-name="dollar.tf" 
d="M269 -129v119q-128 6 -217 59l25 99q86 -55 192 -62v213l-74 19q-154 39 -154 173q0 78 58 132.5t170 63.5v82h65v-81q124 -6 213 -53l-31 -98q-73 45 -182 55v-203l41 -11q93 -26 138.5 -68t45.5 -112q0 -85 -61.5 -139.5t-163.5 -65.5v-122h-65zM148 499
q0 -33 22.5 -53t69.5 -32l29 -8v185q-60 -6 -90.5 -31t-30.5 -61zM451 190q0 34 -29.5 55.5t-87.5 36.5v-193q54 8 85.5 34.5t31.5 66.5z" />
    <glyph glyph-name="zero.denom" horiz-adv-x="371" 
d="M43 164q0 79 36 124.5t106 45.5q71 0 107.5 -45.5t36.5 -124.5q0 -78 -36.5 -123.5t-107.5 -45.5q-70 0 -106 45.5t-36 123.5zM101 164q0 -113 84 -113q85 0 85 113q0 115 -85 115q-84 0 -84 -115z" />
    <glyph glyph-name="one.denom" horiz-adv-x="265" 
d="M16 254l142 74h45v-328h-60v260l-103 -51z" />
    <glyph glyph-name="two.denom" horiz-adv-x="338" 
d="M48 0v46l130 98q50 37 50 78q0 25 -16 41t-45 16q-35 0 -53.5 -19.5t-18.5 -52.5l-55 10q1 54 34.5 85.5t92.5 31.5q61 0 92 -30t31 -81q0 -65 -70 -115l-76 -55h156v-53h-252z" />
    <glyph glyph-name="three.denom" horiz-adv-x="332" 
d="M78 194h80q28 0 44 12.5t16 31.5q0 43 -69 43q-51 0 -96 -20l-14 52q53 21 110 21q62 0 96 -23.5t34 -66.5q0 -26 -16.5 -46.5t-44.5 -25.5q72 -16 72 -82q0 -44 -37 -69.5t-104 -25.5q-48 0 -111 21l16 50q43 -19 95 -19q35 0 57 14t22 38q0 44 -70 44h-80v51z" />
    <glyph glyph-name="four.denom" horiz-adv-x="361" 
d="M332 64h-62v-64h-60v64h-186v41l168 223l18 -2v2h60v-218h62v-46zM86 110h124v165z" />
    <glyph glyph-name="five.denom" horiz-adv-x="330" 
d="M56 155l-3 2l14 171h212v-52h-161l-6 -76h41q136 0 136 -93q0 -55 -38.5 -83.5t-101.5 -28.5q-64 0 -114 22l15 50q49 -20 95 -20q36 0 59.5 14.5t23.5 43.5q0 50 -78 50h-94z" />
    <glyph glyph-name="six.denom" horiz-adv-x="359" 
d="M199 282q-47 0 -71 -29t-26 -79q41 43 98 43q58 0 89.5 -27.5t31.5 -77.5q0 -53 -36.5 -85t-92.5 -32q-71 0 -110.5 46t-39.5 124q0 77 39.5 123t110.5 46q64 0 115 -27l-18 -50q-39 25 -90 25zM191 171q-48 0 -87 -39q15 -82 88 -82q30 0 49.5 18t19.5 44q0 29 -19 44
t-51 15z" />
    <glyph glyph-name="seven.denom" horiz-adv-x="289" 
d="M65 5l136 271h-175v52h243v-42l-138 -286h-66v5z" />
    <glyph glyph-name="eight.denom" horiz-adv-x="361" 
d="M180 -5q-65 0 -101.5 25.5t-36.5 69.5q0 68 77 82q-29 5 -47.5 25.5t-18.5 46.5q0 43 33 66.5t94 23.5t94 -23t33 -67q0 -26 -18 -46.5t-47 -25.5q77 -14 77 -82q0 -44 -36.5 -69.5t-102.5 -25.5zM180 149q-39 0 -58 -14t-19 -36q0 -24 21.5 -39.5t55.5 -15.5t56 15.5
t22 39.5q0 50 -78 50zM180 285q-31 0 -49 -12.5t-18 -34.5q0 -20 17 -33.5t50 -13.5q34 0 51 13.5t17 33.5q0 22 -18.5 34.5t-49.5 12.5z" />
    <glyph glyph-name="nine.denom" horiz-adv-x="359" 
d="M159 47q47 0 71.5 29t26.5 79q-41 -43 -98 -43q-58 0 -89.5 27.5t-31.5 77.5q0 52 36.5 84.5t92.5 32.5q71 0 110.5 -46t39.5 -124q0 -77 -39.5 -123t-111.5 -46q-67 0 -113 27l17 50q39 -25 89 -25zM167 158q48 0 87 39q-6 37 -28.5 59.5t-58.5 22.5q-30 0 -49.5 -18
t-19.5 -44q0 -29 19 -44t50 -15z" />
    <glyph glyph-name="zero.num" horiz-adv-x="371" 
d="M43 515q0 79 36 124.5t106 45.5q71 0 107.5 -45.5t36.5 -124.5q0 -78 -36.5 -123.5t-107.5 -45.5q-70 0 -106 45.5t-36 123.5zM101 515q0 -113 84 -113q85 0 85 113q0 115 -85 115q-84 0 -84 -115z" />
    <glyph glyph-name="one.num" horiz-adv-x="265" 
d="M15 606l142 74h45v-328h-60v260l-103 -52z" />
    <glyph glyph-name="two.num" horiz-adv-x="339" 
d="M300 351h-252v46l130 98q50 37 50 78q0 25 -16 41t-45 16q-35 0 -53.5 -19.5t-18.5 -52.5l-55 10q1 53 34.5 85t92.5 32q61 0 92 -30.5t31 -80.5q0 -65 -70 -115l-76 -55h156v-53z" />
    <glyph glyph-name="three.num" horiz-adv-x="332" 
d="M78 545h80q28 0 44 12.5t16 31.5q0 43 -69 43q-51 0 -96 -20l-14 52q53 21 110 21q62 0 96 -23.5t34 -67.5q0 -26 -16.5 -46t-44.5 -26q72 -14 72 -81q0 -44 -37 -69.5t-104 -25.5q-51 0 -111 20l16 51q43 -19 95 -19q35 0 57 14t22 38q0 44 -70 44h-80v51z" />
    <glyph glyph-name="four.num" horiz-adv-x="360" 
d="M332 416h-62v-64h-60v64h-186v41l168 223l18 -1v1h60v-218h62v-46zM86 462h124v165z" />
    <glyph glyph-name="five.num" horiz-adv-x="329" 
d="M55 506l-2 3l14 171h211v-52h-160l-6 -76h41q136 0 136 -93q0 -56 -38.5 -84t-101.5 -28q-58 0 -115 22l16 50q45 -21 95 -21q36 0 59.5 14.5t23.5 44.5q0 49 -78 49h-95z" />
    <glyph glyph-name="six.num" horiz-adv-x="359" 
d="M199 633q-47 0 -71 -29t-26 -79q41 43 98 43q58 0 89.5 -27.5t31.5 -77.5q0 -53 -36.5 -85t-92.5 -32q-71 0 -110.5 46t-39.5 124q0 77 39.5 123t110.5 46q64 0 115 -27l-18 -50q-39 25 -90 25zM191 522q-48 0 -87 -39q15 -82 88 -82q30 0 49.5 18t19.5 44q0 29 -19 44
t-51 15z" />
    <glyph glyph-name="seven.num" horiz-adv-x="290" 
d="M65 357l136 271h-176v52h243v-43l-137 -285h-66v5z" />
    <glyph glyph-name="eight.num" horiz-adv-x="361" 
d="M180 346q-65 0 -101.5 25.5t-36.5 69.5q0 68 77 82q-29 5 -47.5 25.5t-18.5 45.5q0 44 33 67.5t94 23.5t94.5 -23.5t33.5 -67.5q0 -25 -18.5 -45.5t-47.5 -25.5q77 -14 77 -82q0 -44 -36.5 -69.5t-102.5 -25.5zM181 500q-39 0 -58.5 -14t-19.5 -36q0 -25 21.5 -40
t55.5 -15q35 0 56.5 15t21.5 40q0 22 -19 36t-58 14zM180 636q-31 0 -49 -12.5t-18 -34.5q0 -20 17 -33.5t51 -13.5t50.5 13.5t16.5 33.5q0 22 -18 34.5t-50 12.5z" />
    <glyph glyph-name="nine.num" horiz-adv-x="359" 
d="M159 398q93 0 98 107q-42 -42 -98 -42q-58 0 -89.5 27t-31.5 77q0 53 36.5 85.5t92.5 32.5q71 0 110.5 -46t39.5 -124q0 -77 -39.5 -123t-111.5 -46q-71 0 -113 27l17 50q39 -25 89 -25zM167 509q48 0 87 39q-6 38 -28.5 60t-58.5 22q-30 0 -49.5 -18t-19.5 -45
q0 -28 19 -43t50 -15z" />
    <glyph glyph-name="parenleft.case" horiz-adv-x="302" 
d="M267 760q-47 -67 -84.5 -174.5t-37.5 -244.5q0 -136 37.5 -243.5t84.5 -175.5l-61 -35q-55 57 -104.5 177t-49.5 278q0 157 49.5 276.5t104.5 177.5z" />
    <glyph glyph-name="parenright.case" horiz-adv-x="302" 
d="M35 760l61 36q55 -58 104.5 -177.5t49.5 -276.5q0 -158 -49.5 -278t-104.5 -177l-61 35q47 67 84.5 175t37.5 244q0 138 -37.5 245.5t-84.5 173.5z" />
    <glyph glyph-name="hyphen.case" horiz-adv-x="538" 
d="M76 384h386v-83h-386v83z" />
    <glyph glyph-name="bracketleft.case" horiz-adv-x="342" 
d="M308 -108h-217v898h217v-83h-133v-732h133v-83z" />
    <glyph glyph-name="bracketright.case" horiz-adv-x="341" 
d="M34 790h216v-898h-216v83h133v732h-133v83z" />
    <glyph glyph-name="braceleft.case" horiz-adv-x="320" 
d="M272 790v-75h-35q-32 0 -50.5 -18t-18.5 -45t28.5 -104t28.5 -118q0 -40 -18.5 -62t-60.5 -30q42 -8 60.5 -30.5t18.5 -63.5q0 -40 -28.5 -116t-28.5 -104t18 -46t51 -18h35v-75h-45q-72 0 -107 32t-35 88q0 36 28.5 114t28.5 119q0 36 -23.5 52.5t-77.5 16.5v64
q53 0 77 17.5t24 54.5q0 41 -28.5 118t-28.5 113q0 53 35 84.5t107 31.5h45z" />
    <glyph glyph-name="bar.case" horiz-adv-x="266" 
d="M91 -108v898h84v-898h-84z" />
    <glyph glyph-name="braceright.case" horiz-adv-x="320" 
d="M48 790h44q72 0 107.5 -31.5t35.5 -84.5q0 -36 -28.5 -113t-28.5 -118q0 -72 100 -72v-64q-53 0 -76.5 -16.5t-23.5 -52.5q0 -41 28.5 -119t28.5 -114q0 -56 -35.5 -88t-107.5 -32h-44v75h35q33 0 51 18t18 46t-28.5 104t-28.5 116q0 41 18.5 63.5t60.5 30.5
q-42 8 -60.5 30t-18.5 62q0 41 28.5 118t28.5 104t-18.5 45t-50.5 18h-35v75z" />
    <glyph glyph-name="guilsinglleft.case" horiz-adv-x="303" 
d="M38 331v22l161 201h8l38 -23l-118 -189l118 -188l-38 -24h-8z" />
    <glyph glyph-name="guilsinglright.case" horiz-adv-x="304" 
d="M264 353v-22l-160 -201h-8l-37 23l117 189l-118 188l38 24h8z" />
    <glyph glyph-name="guillemotleft.case" horiz-adv-x="523" 
d="M38 331v22l161 201h8l38 -23l-118 -189l118 -188l-38 -24h-8zM258 331v22l160 201h8l38 -23l-118 -189l118 -188l-38 -24h-8z" />
    <glyph glyph-name="guillemotright.case" horiz-adv-x="523" 
d="M264 353v-22l-160 -201h-8l-37 23l117 189l-118 188l38 24h8zM484 353v-22l-160 -201h-9l-37 23l118 189l-119 188l38 24h9z" />
    <glyph glyph-name="endash.case" horiz-adv-x="632" 
d="M76 384h480v-83h-480v83z" />
    <glyph glyph-name="emdash.case" horiz-adv-x="872" 
d="M76 384h720v-83h-720v83z" />
    <glyph glyph-name="bullet.case" horiz-adv-x="339" 
d="M67 342q0 51 26.5 78.5t75.5 27.5t76 -27.5t27 -78.5t-27 -78.5t-76 -27.5t-75.5 27.5t-26.5 78.5z" />
    <glyph glyph-name="periodcentered.case" horiz-adv-x="284" 
d="M71 337q0 70 70 70q34 0 52.5 -18t18.5 -52q0 -70 -71 -70q-70 0 -70 70z" />
    <glyph glyph-name="a.alt" horiz-adv-x="607" 
d="M109 404l-19 92q84 36 208 36q101 0 147.5 -44.5t46.5 -133.5v-216q0 -59 42 -59q25 0 56 18l7 -83q-44 -24 -102 -24q-76 0 -98 61q-71 -61 -172 -61q-87 0 -135 42t-48 115q0 92 70 139t198 47q40 0 78 -8v19q0 54 -26.5 75.5t-82.5 21.5q-94 0 -170 -37zM146 157
q0 -77 107 -77q75 0 135 49v114q-36 9 -78 9q-164 0 -164 -95z" />
    <glyph glyph-name="agrave.alt" horiz-adv-x="607" 
d="M109 404l-19 92q84 36 208 36q101 0 147.5 -44.5t46.5 -133.5v-216q0 -59 42 -59q25 0 56 18l7 -83q-44 -24 -102 -24q-76 0 -98 61q-71 -61 -172 -61q-87 0 -135 42t-48 115q0 92 70 139t198 47q40 0 78 -8v19q0 54 -26.5 75.5t-82.5 21.5q-94 0 -170 -37zM146 157
q0 -77 107 -77q75 0 135 49v114q-36 9 -78 9q-164 0 -164 -95zM263 596l-96 145h105l81 -145h-90z" />
    <glyph glyph-name="aacute.alt" horiz-adv-x="607" 
d="M109 404l-19 92q84 36 208 36q101 0 147.5 -44.5t46.5 -133.5v-216q0 -59 42 -59q25 0 56 18l7 -83q-44 -24 -102 -24q-76 0 -98 61q-71 -61 -172 -61q-87 0 -135 42t-48 115q0 92 70 139t198 47q40 0 78 -8v19q0 54 -26.5 75.5t-82.5 21.5q-94 0 -170 -37zM146 157
q0 -77 107 -77q75 0 135 49v114q-36 9 -78 9q-164 0 -164 -95zM427 741l-96 -145h-90l81 145h105z" />
    <glyph glyph-name="acircumflex.alt" horiz-adv-x="607" 
d="M109 404l-19 92q84 36 208 36q101 0 147.5 -44.5t46.5 -133.5v-216q0 -59 42 -59q25 0 56 18l7 -83q-44 -24 -102 -24q-76 0 -98 61q-71 -61 -172 -61q-87 0 -135 42t-48 115q0 92 70 139t198 47q40 0 78 -8v19q0 54 -26.5 75.5t-82.5 21.5q-94 0 -170 -37zM146 157
q0 -77 107 -77q75 0 135 49v114q-36 9 -78 9q-164 0 -164 -95zM375 596l-75 92l-75 -92h-83l106 145h103l106 -145h-82z" />
    <glyph glyph-name="atilde.alt" horiz-adv-x="607" 
d="M109 404l-19 92q84 36 208 36q101 0 147.5 -44.5t46.5 -133.5v-216q0 -59 42 -59q25 0 56 18l7 -83q-44 -24 -102 -24q-76 0 -98 61q-71 -61 -172 -61q-87 0 -135 42t-48 115q0 92 70 139t198 47q40 0 78 -8v19q0 54 -26.5 75.5t-82.5 21.5q-94 0 -170 -37zM146 157
q0 -77 107 -77q75 0 135 49v114q-36 9 -78 9q-164 0 -164 -95zM166 613l-34 43q15 32 43 54t61 22t81 -31.5t67 -31.5q46 0 69 47l34 -42q-38 -78 -103 -78q-31 0 -80 32t-67 32q-43 0 -71 -47z" />
    <glyph glyph-name="adieresis.alt" horiz-adv-x="607" 
d="M109 404l-19 92q84 36 208 36q101 0 147.5 -44.5t46.5 -133.5v-216q0 -59 42 -59q25 0 56 18l7 -83q-44 -24 -102 -24q-76 0 -98 61q-71 -61 -172 -61q-87 0 -135 42t-48 115q0 92 70 139t198 47q40 0 78 -8v19q0 54 -26.5 75.5t-82.5 21.5q-94 0 -170 -37zM146 157
q0 -77 107 -77q75 0 135 49v114q-36 9 -78 9q-164 0 -164 -95zM379 670q0 56 62 56q60 0 60 -56t-60 -56q-62 0 -62 56zM127 670q0 56 61 56t61 -56t-61 -56t-61 56z" />
    <glyph glyph-name="amacron.alt" horiz-adv-x="607" 
d="M109 404l-19 92q84 36 208 36q101 0 147.5 -44.5t46.5 -133.5v-216q0 -59 42 -59q25 0 56 18l7 -83q-44 -24 -102 -24q-76 0 -98 61q-71 -61 -172 -61q-87 0 -135 42t-48 115q0 92 70 139t198 47q40 0 78 -8v19q0 54 -26.5 75.5t-82.5 21.5q-94 0 -170 -37zM146 157
q0 -77 107 -77q75 0 135 49v114q-36 9 -78 9q-164 0 -164 -95zM425 623h-247v73h247v-73z" />
    <glyph glyph-name="abreve.alt" horiz-adv-x="607" 
d="M109 404l-19 92q84 36 208 36q101 0 147.5 -44.5t46.5 -133.5v-216q0 -59 42 -59q25 0 56 18l7 -83q-44 -24 -102 -24q-76 0 -98 61q-71 -61 -172 -61q-87 0 -135 42t-48 115q0 92 70 139t198 47q40 0 78 -8v19q0 54 -26.5 75.5t-82.5 21.5q-94 0 -170 -37zM146 157
q0 -77 107 -77q75 0 135 49v114q-36 9 -78 9q-164 0 -164 -95zM163 680l30 43q38 -51 110 -51t109 51l30 -43q-46 -79 -138 -79q-93 0 -141 79z" />
    <glyph glyph-name="aring.alt" horiz-adv-x="607" 
d="M109 404l-19 92q84 36 208 36q101 0 147.5 -44.5t46.5 -133.5v-216q0 -59 42 -59q25 0 56 18l7 -83q-44 -24 -102 -24q-76 0 -98 61q-71 -61 -172 -61q-87 0 -135 42t-48 115q0 92 70 139t198 47q40 0 78 -8v19q0 54 -26.5 75.5t-82.5 21.5q-94 0 -170 -37zM146 157
q0 -77 107 -77q75 0 135 49v114q-36 9 -78 9q-164 0 -164 -95zM202 670q0 40 29 69t69 29t69 -29t29 -69t-29 -69t-69 -29t-69 29t-29 69zM248 670q0 -22 15 -37t37 -15q21 0 36 15t15 37q0 21 -15 36t-36 15q-22 0 -37 -15t-15 -36z" />
    <glyph glyph-name="aringacute.alt" horiz-adv-x="607" 
d="M109 404l-19 92q84 36 208 36q101 0 147.5 -44.5t46.5 -133.5v-216q0 -59 42 -59q25 0 56 18l7 -83q-44 -24 -102 -24q-76 0 -98 61q-71 -61 -172 -61q-87 0 -135 42t-48 115q0 92 70 139t198 47q40 0 78 -8v19q0 54 -26.5 75.5t-82.5 21.5q-94 0 -170 -37zM146 157
q0 -77 107 -77q75 0 135 49v114q-36 9 -78 9q-164 0 -164 -95zM203 655q0 39 28 61t70 22t70 -22t28 -61t-28 -60.5t-70 -21.5t-70 21.5t-28 60.5zM249 655q0 -39 52 -39t52 39t-52 39t-52 -39zM392 835l-60 -78h-68l49 78h79z" />
    <glyph glyph-name="aogonek.alt" horiz-adv-x="607" 
d="M109 404l-19 92q84 36 208 36q101 0 147.5 -44.5t46.5 -133.5v-216q0 -59 42 -59q25 0 56 18l7 -83q-28 -15 -69 -21q-58 -21 -58 -66q0 -26 15 -40.5t41 -14.5q28 0 56 18l11 -49q-36 -20 -80 -20q-43 0 -69 25t-26 68q0 49 48 79q-51 9 -69 58q-71 -61 -172 -61
q-87 0 -135 42t-48 115q0 92 70 139t198 47q40 0 78 -8v19q0 54 -26.5 75.5t-82.5 21.5q-94 0 -170 -37zM146 157q0 -77 107 -77q75 0 135 49v114q-36 9 -78 9q-164 0 -164 -95z" />
    <glyph glyph-name="g.alt" horiz-adv-x="649" 
d="M50 297q0 102 64 168.5t176 66.5q102 0 167 -60v51h104v-444q0 -132 -73.5 -204.5t-177.5 -72.5q-80 0 -126 36.5t-46 100.5q0 48 29.5 85.5t86.5 48.5q-91 10 -147.5 66t-56.5 158zM156 297q0 -75 48 -110.5t115 -35.5h138v234q-60 56 -138 56q-77 0 -120 -40.5
t-43 -103.5zM314 -109q60 0 101.5 42.5t41.5 107.5v23h-52q-79 0 -126.5 -26t-47.5 -74q0 -34 23 -53.5t60 -19.5z" />
    <glyph glyph-name="y.alt" horiz-adv-x="588" 
d="M24 523h111l169 -411l163 411h105l-213 -526q-43 -109 -86 -152t-115 -43q-63 0 -97 32.5t-34 87.5q0 68 51.5 108t147.5 45zM253 -6l5 14q-144 0 -144 -73q0 -44 47 -44q31 0 52 24.5t40 78.5z" />
    <glyph glyph-name="asterisk.alt" horiz-adv-x="478" 
d="M99 361l79 123l-136 33l22 80l139 -44l-6 147h84l-6 -148l139 45l23 -80l-140 -34l81 -121l-63 -45l-77 127l-75 -126z" />
    <glyph glyph-name="gcircumflex.alt" horiz-adv-x="649" 
d="M50 297q0 102 64 168.5t176 66.5q102 0 167 -60v51h104v-444q0 -132 -73.5 -204.5t-177.5 -72.5q-80 0 -126 36.5t-46 100.5q0 48 29.5 85.5t86.5 48.5q-91 10 -147.5 66t-56.5 158zM156 297q0 -75 48 -110.5t115 -35.5h138v234q-60 56 -138 56q-77 0 -120 -40.5
t-43 -103.5zM314 -109q60 0 101.5 42.5t41.5 107.5v23h-52q-79 0 -126.5 -26t-47.5 -74q0 -34 23 -53.5t60 -19.5zM409 596l-75 92l-75 -92h-83l106 145h103l106 -145h-82z" />
    <glyph glyph-name="gbreve.alt" horiz-adv-x="649" 
d="M196 680l30 43q38 -51 110 -51t109 51l30 -43q-46 -79 -138 -79q-93 0 -141 79zM50 297q0 102 64 168.5t176 66.5q102 0 167 -60v51h104v-444q0 -132 -73.5 -204.5t-177.5 -72.5q-80 0 -126 36.5t-46 100.5q0 48 29.5 85.5t86.5 48.5q-91 10 -147.5 66t-56.5 158z
M156 297q0 -75 48 -110.5t115 -35.5h138v234q-60 56 -138 56q-77 0 -120 -40.5t-43 -103.5zM314 -109q60 0 101.5 42.5t41.5 107.5v23h-52q-79 0 -126.5 -26t-47.5 -74q0 -34 23 -53.5t60 -19.5z" />
    <glyph glyph-name="gdotaccent.alt" horiz-adv-x="649" 
d="M50 297q0 102 64 168.5t176 66.5q102 0 167 -60v51h104v-444q0 -132 -73.5 -204.5t-177.5 -72.5q-80 0 -126 36.5t-46 100.5q0 48 29.5 85.5t86.5 48.5q-91 10 -147.5 66t-56.5 158zM156 297q0 -75 48 -110.5t115 -35.5h138v234q-60 56 -138 56q-77 0 -120 -40.5
t-43 -103.5zM314 -109q60 0 101.5 42.5t41.5 107.5v23h-52q-79 0 -126.5 -26t-47.5 -74q0 -34 23 -53.5t60 -19.5zM277 672q0 58 66 58q64 0 64 -58q0 -59 -64 -59q-66 0 -66 59z" />
    <glyph glyph-name="gcommaaccent.alt" horiz-adv-x="649" 
d="M50 297q0 102 64 168.5t176 66.5q102 0 167 -60v51h104v-444q0 -132 -73.5 -204.5t-177.5 -72.5q-80 0 -126 36.5t-46 100.5q0 48 29.5 85.5t86.5 48.5q-91 10 -147.5 66t-56.5 158zM156 297q0 -75 48 -110.5t115 -35.5h138v234q-60 56 -138 56q-77 0 -120 -40.5
t-43 -103.5zM314 -109q60 0 101.5 42.5t41.5 107.5v23h-52q-79 0 -126.5 -26t-47.5 -74q0 -34 23 -53.5t60 -19.5zM370 773l-24 -67q54 -8 54 -54q0 -28 -17 -43.5t-44 -15.5q-34 0 -52 17.5t-18 49.5q0 67 49 132z" />
    <glyph glyph-name="yacute.alt" horiz-adv-x="588" 
d="M443 741l-96 -145h-90l81 145h105zM24 523h111l169 -411l163 411h105l-213 -526q-43 -109 -86 -152t-115 -43q-63 0 -97 32.5t-34 87.5q0 68 51.5 108t147.5 45zM253 -6l5 14q-144 0 -144 -73q0 -44 47 -44q31 0 52 24.5t40 78.5z" />
    <glyph glyph-name="ycircumflex.alt" horiz-adv-x="588" 
d="M24 523h111l169 -411l163 411h105l-213 -526q-43 -109 -86 -152t-115 -43q-63 0 -97 32.5t-34 87.5q0 68 51.5 108t147.5 45zM253 -6l5 14q-144 0 -144 -73q0 -44 47 -44q31 0 52 24.5t40 78.5zM379 596l-75 92l-75 -92h-83l106 145h103l106 -145h-82z" />
    <glyph glyph-name="ydieresis.alt" horiz-adv-x="588" 
d="M24 523h111l169 -411l163 411h105l-213 -526q-43 -109 -86 -152t-115 -43q-63 0 -97 32.5t-34 87.5q0 68 51.5 108t147.5 45zM253 -6l5 14q-144 0 -144 -73q0 -44 47 -44q31 0 52 24.5t40 78.5zM126 660q0 52 57 52t57 -52t-57 -52t-57 52zM378 660q0 52 58 52
q56 0 56 -52t-56 -52q-58 0 -58 52z" />
    <glyph glyph-name="ygrave.alt" horiz-adv-x="588" 
d="M272 596l-96 145h105l81 -145h-90zM24 523h111l169 -411l163 411h105l-213 -526q-43 -109 -86 -152t-115 -43q-63 0 -97 32.5t-34 87.5q0 68 51.5 108t147.5 45zM253 -6l5 14q-144 0 -144 -73q0 -44 47 -44q31 0 52 24.5t40 78.5z" />
    </font>
</defs>
</svg>
