<?xml version="1.0" standalone="no"?>
<!DOCTYPE svg PUBLIC "-//W3C//DTD SVG 1.1//EN" "http://www.w3.org/Graphics/SVG/1.1/DTD/svg11.dtd" >
<svg xmlns="http://www.w3.org/2000/svg" xmlns:xlink="http://www.w3.org/1999/xlink" version="1.1">
<metadata>
Created by FontForge 20160407 at Fri Sep  2 16:37:37 2016
 By Jimmy Warting
2000 Steffen Sauerteig, Henning Wagenbreth, published by Fontshop International for the FontFont library.
</metadata>
<defs>
<font id="PraterSansTwo-Bold" horiz-adv-x="545" >
  <font-face 
    font-family="PraterSansTwo-Bold"
    font-weight="500"
    font-stretch="normal"
    units-per-em="1000"
    panose-1="0 0 0 0 0 0 0 0 0 0"
    ascent="800"
    descent="-200"
    x-height="590"
    cap-height="793"
    bbox="-67 -272.502 1144 1033"
    underline-thickness="20"
    underline-position="-133"
    stemh="134"
    stemv="502"
    unicode-range="U+0020-FB02"
  />
<missing-glyph horiz-adv-x="500" 
 />
    <glyph glyph-name=".notdef" horiz-adv-x="500" 
 />
    <glyph glyph-name="space" unicode=" " horiz-adv-x="355" 
 />
    <glyph glyph-name="exclam" unicode="!" horiz-adv-x="302" 
d="M32 806l169 6c2 -166 17 -354 13 -574l-133 -9c-11 152 -20 217 -28 320zM210 176c40 -13 79 -74 38 -159c-100 -79 -195 6 -177 85c19 84 90 90 139 74z" />
    <glyph glyph-name="quotedbl" unicode="&#x22;" horiz-adv-x="454" 
d="M29 795l177 -1c-2 -86 -11 -177 -24 -323l-128 4c-9 139 -29 232 -25 320zM247 795l176 1c1 -96 -13 -178 -22 -321h-130c-2 136 -22 228 -24 320z" />
    <glyph glyph-name="numbersign" unicode="#" horiz-adv-x="657" 
d="M628 130l-77 -1l-1 -133c-21 2 -87 -10 -179 -4l5 123l-86 7c1 -24 -8 -87 -4 -126c-92 -7 -76 -2 -177 -2l2 138h-66c-2 68 -5 54 -12 114c0 0 30 2 86 2c-3 35 1 44 -3 73c-55 -1 -77 -3 -77 -3l-10 141h85l-3 154c52 -1 110 -5 148 -4c10 -2 7 -102 15 -156
c56 1 42 2 93 0c6 89 -3 83 2 152c52 -1 117 -5 177 -4l1 -144h71c3 -44 5 -83 6 -113c1 -10 -50 -4 -81 -7c1 -8 -5 -47 -1 -85c43 -4 78 0 85 -2c0 0 3 -77 1 -120zM273 342l8 -96l94 1l-3 95h-99z" />
    <glyph glyph-name="dollar" unicode="$" horiz-adv-x="460" 
d="M440 691l-94 -97c-40 30 -67 51 -87 48c-86 -13 -7 -117 -7 -117l99 -114c21 -14 60 -67 74 -123c24 -96 8 -165 -28 -230c-33 -60 -92 -60 -122 -69c1 -15 -2 -65 -3 -81c-33 0 -65 -6 -102 -5c0 30 1 57 1 89c-51 13 -103 38 -156 90l99 109c45 -47 49 -43 66 -45
c36 -3 60 5 58 56c-3 97 -59 109 -111 166c-34 26 -72 87 -86 132c-18 56 -38 154 46 245c26 29 57 35 85 39c0 32 1 58 1 88c37 1 58 6 91 6c1 -32 2 -59 1 -90c105 -7 152 -73 175 -97z" />
    <glyph glyph-name="percent" unicode="%" horiz-adv-x="929" 
d="M368 431c-29 -73 -74 -86 -163 -86c-61 0 -98 22 -148 125c-12 72 -13 121 -12 187c1 83 89 128 131 133c39 5 164 6 188 -67c16 -49 43 -195 4 -292zM881 60c-6 -62 -55 -89 -138 -95c-61 -4 -129 18 -173 116c-11 73 -6 125 -5 192c2 82 94 125 137 131
c38 5 141 -21 165 -94c0 0 23 -162 14 -250zM258 512c7 34 9 -15 2 113c-3 59 -87 50 -87 -11c0 -112 1 -94 13 -115c14 -25 64 -28 72 13zM774 120c7 34 2 -25 -5 103c-3 59 -87 51 -87 -10c0 -112 5 -82 11 -105c7 -28 73 -29 81 12zM257 43l62 154
c80 199 131 381 248 655l129 -91c-37 -97 -56 -146 -73 -195c-9 -24 -218 -590 -230 -619z" />
    <glyph glyph-name="ampersand" unicode="&#x26;" horiz-adv-x="581" 
d="M553 299l-85 -143l101 -102l-93 -102l-89 88c-28 -23 -39 -32 -69 -44c-97 -41 -215 -40 -265 47s-54 244 70 356c-81 111 -101 203 -67 312c56 104 150 145 279 96c36 -13 64 -42 87 -89c25 -50 15 -137 -22 -224l-66 -121c-11 -4 46 -86 65 -112c0 0 50 99 58 101
c10 3 35 -15 96 -63zM301 605c3 38 -9 58 -48 66c-53 -6 -48 -24 -53 -50c8 -46 14 -69 46 -120c24 30 52 59 55 104zM297 166c-8 20 -76 102 -76 102c-22 -30 -32 -44 -31 -89c1 -40 11 -55 40 -57c28 -2 70 25 67 44z" />
    <glyph glyph-name="quoteright" unicode="&#x2019;" horiz-adv-x="300" 
d="M109 909c91 -16 84 -24 180 -40c-54 -120 -90 -228 -166 -321l-115 55c44 104 85 219 101 306z" />
    <glyph glyph-name="parenleft" unicode="(" horiz-adv-x="487" 
d="M213 813c67 -34 65 -62 117 -98c-100 -144 -95 -175 -102 -326c-3 -55 34 -159 60 -194c26 -33 30 -35 98 -103l-133 -107c-136 103 -122 156 -151 222c-77 177 -68 416 111 606z" />
    <glyph glyph-name="parenright" unicode=")" horiz-adv-x="487" 
d="M200 -52c-58 38 -89 47 -140 85c105 140 149 180 163 339c5 55 -6 159 -39 209c-22 33 -47 89 -113 159l122 97c119 -107 153 -195 179 -262c71 -180 13 -443 -172 -627z" />
    <glyph glyph-name="asterisk" unicode="*" horiz-adv-x="442" 
d="M350 832c31 -43 36 -57 52 -105c-46 -20 -122 -49 -122 -49c36 -39 63 -76 91 -99c-53 -39 -30 -29 -95 -72l-82 110l-76 -110c-15 8 -18 19 -31 25c-42 36 -30 15 -62 47c9 9 36 55 81 96l-105 44l40 103l105 -48c-2 28 -13 123 -14 134c84 6 50 -2 131 -2l-23 -132
c50 32 105 54 110 58z" />
    <glyph glyph-name="plus" unicode="+" horiz-adv-x="623" 
d="M197 172l4 158l-140 -1c-8 55 5 80 0 136c42 3 104 4 150 6l3 168h153c2 -26 9 -117 11 -156c36 1 88 -3 143 -3c4 -60 5 -94 3 -151h-145c-1 -36 -4 -123 -7 -158c-87 4 -84 0 -175 1z" />
    <glyph glyph-name="comma" unicode="," horiz-adv-x="284" 
d="M59 164c54 1 74 -15 117 -22c37 -6 32 -11 82 -19c-52 -118 -75 -236 -155 -328l-116 50c53 95 57 239 72 319z" />
    <glyph glyph-name="hyphen" unicode="-" horiz-adv-x="523" 
d="M63 466c145 1 177 5 395 5c0 -38 -2 -127 -4 -164l-385 -13z" />
    <glyph glyph-name="period" unicode="." horiz-adv-x="310" 
d="M193 220c59 -16 116 -90 64 -198c-126 -96 -250 13 -228 108c23 101 105 106 164 90z" />
    <glyph glyph-name="slash" unicode="/" horiz-adv-x="604" 
d="M4 26l103 187l271 503c8 15 0 5 45 72c0 0 86 -43 160 -73c-83 -133 -122 -234 -164 -310c-74 -135 -132 -243 -245 -452z" />
    <glyph glyph-name="zero" unicode="0" horiz-adv-x="618" 
d="M326 -16c-188 -7 -248 79 -260 191c-7 67 -11 169 -15 212c-5 55 2 144 3 225c1 71 38 127 80 150c60 33 229 62 327 4c59 -35 87 -99 91 -155c5 -63 12 -174 14 -283c2 -111 -8 -233 -45 -279s-100 -61 -195 -65zM381 239c-4 133 1 191 -10 319c-4 45 -8 79 -75 81
c-70 -8 -62 -54 -65 -84c1 -172 -3 -177 11 -344c3 -39 22 -66 79 -62c52 -1 61 63 60 90z" />
    <glyph glyph-name="one" unicode="1" horiz-adv-x="428" 
d="M156 585c-45 -31 -63 -40 -111 -74c-9 44 -11 112 -17 166l159 106l136 11c4 -164 11 -612 10 -791c-97 -2 -73 1 -179 -2c0 263 1 477 2 584z" />
    <glyph glyph-name="two" unicode="2" horiz-adv-x="507" 
d="M136 606l-73 132c106 62 126 53 219 52c78 -1 121 -33 153 -76c54 -73 50 -180 -1 -252c-25 -35 -51 -62 -81 -92c-32 -31 -67 -56 -94 -107c-2 -4 -20 -41 -16 -89c71 4 139 3 234 3c-6 -81 -8 -95 -7 -175c-185 0 -243 2 -418 0c-3 161 2 187 25 272
c18 68 50 116 95 154c22 19 60 51 81 72c20 20 64 50 25 118c-47 29 -97 15 -142 -12z" />
    <glyph glyph-name="three" unicode="3" horiz-adv-x="474" 
d="M218 -12c-58 3 -94 8 -134 25c-34 15 -37 14 -67 34l43 153c26 -23 85 -40 100 -44c44 -12 98 15 100 65c1 21 -4 83 -44 111c-21 1 -44 7 -106 11l-4 111l77 17c49 11 75 61 72 91c-5 50 -35 74 -66 77c-24 2 -87 -19 -125 -40l-14 147c111 64 153 62 231 45
c53 -11 104 -60 118 -94c34 -86 51 -237 -41 -292c116 -56 63 -266 29 -326c-32 -55 -116 -93 -169 -91z" />
    <glyph glyph-name="four" unicode="4" horiz-adv-x="550" 
d="M259 230c-17 1 -234 7 -234 7c1 53 -7 62 -2 144c15 32 23 60 44 98c21 39 45 77 66 119c41 81 74 148 113 193c59 -3 40 -3 164 -5l21 -397l70 1l12 -166l-90 1l3 -230l-164 5s-3 176 -3 230zM272 390l5 202s-35 -56 -54 -93c-21 -41 -45 -106 -45 -106z" />
    <glyph glyph-name="five" unicode="5" horiz-adv-x="462" 
d="M36 341c-4 1 -2 -71 -18 449h367l-3 -153c-59 0 -144 -4 -207 -3v-145c144 26 169 16 208 -70c30 -65 41 -274 -1 -361c-34 -71 -77 -72 -162 -75c-117 -4 -134 28 -167 51c-18 13 -12 14 -47 40l89 115c16 -18 11 -9 24 -23c22 -25 48 -27 68 -22c43 11 47 35 50 90
c3 52 1 105 -48 110c-46 9 -135 -10 -153 -3z" />
    <glyph glyph-name="six" unicode="6" horiz-adv-x="494" 
d="M53 512c8 38 21 138 93 194c69 54 89 71 274 72l12 -143c-160 13 -214 -49 -229 -197c32 13 51 24 123 18c100 -8 136 -98 134 -243c-2 -171 -82 -192 -155 -219c-231 -7 -235 115 -249 149c-7 88 -29 246 -3 369zM309 197c9 86 -12 124 -65 122c-28 -1 -42 -39 -42 -59
c0 -24 3 -48 2 -60c-1 -14 14 -47 34 -54c34 -12 67 10 71 51z" />
    <glyph glyph-name="seven" unicode="7" horiz-adv-x="463" 
d="M46 281l10 136l109 3c18 70 45 159 59 219c-61 1 -99 -2 -179 -2c-4 71 3 100 7 156c135 2 206 1 395 1c-41 -132 -80 -235 -111 -365l96 -1l-31 -140l-102 -2c-27 -89 -60 -206 -100 -303l-140 34c32 89 54 187 81 268c-27 -3 -66 -5 -94 -4z" />
    <glyph glyph-name="eight" unicode="8" horiz-adv-x="508" 
d="M348 -4c-33 -6 -59 -4 -87 -5c-85 -3 -112 12 -172 66c-5 5 -23 41 -25 55c-7 62 -52 176 27 272c-61 71 -69 266 -18 330l4 5c51 64 145 82 281 61c53 -14 58 -43 88 -82c10 -59 35 -240 -39 -310c85 -74 66 -240 43 -327c-29 -40 -53 -56 -102 -65zM311 565
c-1 50 -8 84 -63 90c-40 -7 -49 -26 -49 -91c0 -64 14 -95 53 -96c55 -1 60 32 59 97zM321 201c6 91 -22 115 -55 117s-70 -11 -61 -104c7 -74 22 -82 58 -86c37 -4 54 21 58 73z" />
    <glyph glyph-name="nine" unicode="9" horiz-adv-x="483" 
d="M49 115c105 28 138 52 169 81c17 16 54 50 58 152c-61 -28 -67 -28 -128 -16c-150 29 -129 261 -111 371c20 43 33 88 114 92c108 5 235 12 264 -99c17 -67 25 -182 24 -287c-2 -18 -14 -149 -25 -177c-56 -142 -174 -224 -353 -256zM277 527c1 25 4 34 5 60
c-5 71 -22 60 -57 64c-47 0 -58 -14 -57 -66c1 -95 9 -98 57 -106c25 -4 51 29 52 48z" />
    <glyph glyph-name="colon" unicode=":" horiz-adv-x="325" 
d="M198 581c58 -16 108 -82 55 -190c-125 -96 -240 7 -219 102c23 103 105 104 164 88zM207 242c58 -15 107 -82 56 -190c-127 -96 -241 9 -219 104c23 101 103 102 163 86z" />
    <glyph glyph-name="semicolon" unicode=";" horiz-adv-x="300" 
d="M68 240c54 -14 56 -20 95 -30c42 -11 54 -13 111 -29c-46 -144 -86 -281 -167 -386l-120 55c55 112 66 298 81 390zM189 593c59 -16 108 -82 56 -190c-126 -96 -242 9 -220 104c23 101 105 102 164 86z" />
    <glyph glyph-name="less" unicode="&#x3c;" horiz-adv-x="639" 
d="M246 536c73 60 83 66 155 117c27 -36 42 -48 60 -70c17 -20 28 -32 48 -57c-42 -30 -98 -85 -175 -138c70 -49 119 -87 179 -132l-91 -128c-127 87 -206 149 -345 256c53 56 119 111 169 152z" />
    <glyph glyph-name="equal" unicode="=" horiz-adv-x="634" 
d="M132 551c145 3 167 0 385 0c0 -55 1 -96 -1 -150l-392 -1zM127 319c145 2 169 -2 387 -2c0 -55 6 -105 3 -158l-398 1z" />
    <glyph glyph-name="greater" unicode="&#x3e;" horiz-adv-x="620" 
d="M289 382c-73 56 -141 109 -188 143c20 25 11 21 28 39c19 20 45 59 82 83c66 -35 141 -118 208 -171c99 -78 50 -54 112 -102c-110 -102 -125 -130 -320 -267l-111 133c47 37 132 98 189 142z" />
    <glyph glyph-name="question" unicode="?" horiz-adv-x="445" 
d="M256 236c-90 8 -85 3 -158 5c4 5 -31 132 37 229c47 67 129 128 53 174c-38 23 -133 -18 -145 -23l-16 146c60 23 106 44 174 37c78 -8 108 -6 151 -44c71 -63 67 -164 39 -217c-3 -31 -76 -95 -115 -168c-25 -46 -20 -106 -20 -139zM227 178c40 -13 79 -74 38 -159
c-100 -79 -195 6 -177 85c19 84 90 90 139 74z" />
    <glyph glyph-name="at" unicode="@" horiz-adv-x="969" 
d="M524 181c-50 16 -80 5 -98 -6c-16 -10 -27 -76 13 -88s78 8 89 60zM715 -68c-37 -3 -71 3 -89 11c-5 2 -26 24 -34 64c-43 -60 -146 -71 -235 -38c-87 50 -76 236 -38 277c29 31 79 90 227 33l-1 95c-6 31 -25 34 -59 39c-9 1 -10 -5 -64 -5c-26 0 -57 -6 -65 -8
c-5 35 -9 57 -23 119c160 11 241 22 282 -9c23 -18 45 -52 48 -64c5 -24 9 -123 12 -228c2 -103 12 -141 12 -141c12 -34 55 -23 66 16c10 38 6 32 2 217c-2 93 -32 191 -51 220c-11 17 -51 40 -94 54c-22 8 -219 7 -280 -16c-54 -21 -76 -45 -90 -91
c-23 -77 -20 -200 -16 -273c4 -76 3 -205 52 -250c50 -46 46 -93 383 -83c3 -5 1 -30 1 -45c0 -29 -11 -87 -8 -93c-1 -14 -279 -3 -402 53c-110 50 -158 160 -161 176c-40 233 -21 432 -4 558c7 56 83 153 133 170c79 27 322 86 518 6c82 -33 111 -104 134 -182
c8 -97 60 -330 7 -486c-27 -80 -127 -93 -163 -96z" />
    <glyph glyph-name="A" unicode="A" horiz-adv-x="592" 
d="M276 796c22 0 58 -1 108 -8c69 -197 111 -401 172 -645c12 -47 22 -91 35 -142l-208 -1c-6 39 -8 65 -23 120c-41 -1 -104 5 -142 4l-22 -126c-81 0 -102 2 -195 3l102 439l67 319l13 39c22 2 52 -2 93 -2zM245 290c-2 0 59 -7 94 -4l-46 270c-8 -41 -20 -98 -29 -152
c-12 -67 -18 -114 -19 -114z" />
    <glyph glyph-name="B" unicode="B" horiz-adv-x="513" 
d="M450 76c-22 -38 -74 -67 -121 -70c-81 -5 -106 -14 -255 -5c1 265 -6 525 -12 692l-4 104c67 1 106 8 182 2c56 -4 158 -11 184 -65c20 -41 65 -237 -3 -336c90 -103 29 -322 29 -322zM226 304l2 -169c24 -8 53 -4 71 17s15 22 16 68c1 34 -3 74 -41 81
c-29 5 -30 2 -48 3zM208 444c51 -4 74 5 86 22c9 12 13 42 14 82c1 44 -1 75 -34 88c-35 14 8 3 -68 8z" />
    <glyph glyph-name="C" unicode="C" horiz-adv-x="497" 
d="M250 574c-11 -135 -10 -234 2 -349c5 -47 55 -56 89 -57c30 -1 47 -3 95 1c5 -70 14 -99 19 -175c-31 -1 -71 -1 -108 -1c-47 0 -80 6 -128 13c-95 14 -142 33 -154 105c-16 97 -36 343 -6 527c15 89 56 123 141 145c77 20 104 15 257 14l-24 -183c-65 -1 -80 1 -114 -3
c-29 -3 -48 -4 -69 -37z" />
    <glyph glyph-name="D" unicode="D" horiz-adv-x="539" 
d="M480 645c40 -180 19 -468 -8 -503c-38 -62 -65 -74 -125 -103c-80 -38 -175 -38 -289 -42c-5 82 -3 288 -11 482c-5 132 -2 256 -2 317c217 0 366 -24 435 -151zM216 605l3 -215l6 -205c47 4 85 27 99 79c9 35 14 98 14 168c0 58 2 114 -40 143c-21 15 -46 29 -82 30z
" />
    <glyph glyph-name="E" unicode="E" horiz-adv-x="508" 
d="M239 611l-3 -132c55 -3 125 -1 194 -5c5 -67 2 -93 -10 -163l-192 7c2 -44 -4 -95 0 -137c89 -7 184 -1 248 -7c-3 -71 6 -110 1 -167c-150 -9 -260 1 -427 -4c-1 147 2 287 3 437c1 108 6 223 7 332c163 8 250 12 421 23c0 -65 -3 -81 1 -167z" />
    <glyph glyph-name="F" unicode="F" horiz-adv-x="526" 
d="M447 498l7 -173l-195 -18c2 -103 7 -173 7 -303l-193 -2l-9 330l-19 445c179 10 282 4 464 11l-4 -172l-255 -8c0 -56 0 -121 10 -121c40 0 187 11 187 11z" />
    <glyph glyph-name="G" unicode="G" horiz-adv-x="568" 
d="M527 583c-33 -2 -99 -4 -152 -12c2 77 -40 67 -72 69c-25 2 -71 -14 -77 -73c-11 -111 -10 -265 13 -360c15 -60 83 -62 133 -49c5 1 14 133 14 133l-76 1c-3 80 0 68 -9 128c96 8 109 1 222 1c-2 -167 -11 -398 -31 -406c-120 -46 -391 -26 -419 88
c-39 157 -29 381 -28 488c2 196 308 263 430 155c34 -30 49 -58 50 -89z" />
    <glyph glyph-name="H" unicode="H" horiz-adv-x="619" 
d="M63 4l-6 653l4 136c96 1 89 -2 181 -3l-4 -289l150 -7c1 82 3 204 3 299c84 0 76 7 171 4c6 -158 -2 -302 -3 -451c0 -110 4 -223 3 -347l-183 3l1 322l-141 8s0 -233 -4 -331c-54 1 -68 0 -172 3z" />
    <glyph glyph-name="I" unicode="I" horiz-adv-x="320" 
d="M60 463c0 160 -2 183 4 330c55 8 98 -4 192 0c8 -275 1 -517 2 -793l-197 6s-1 358 -1 457z" />
    <glyph glyph-name="J" unicode="J" horiz-adv-x="461" 
d="M218 361c0 191 -2 200 -1 421c93 3 95 6 189 12c1 -259 8 -424 -9 -635c-6 -75 -62 -143 -151 -156c-46 -6 -95 -8 -143 -7c-39 0 -51 5 -84 5c4 62 15 84 23 162c83 6 105 -4 151 29c27 40 25 167 25 169z" />
    <glyph glyph-name="K" unicode="K" horiz-adv-x="565" 
d="M254 270l-36 -48c-9 -57 2 -102 2 -223l-176 5l6 406l1 370l175 4c0 -27 3 -179 -2 -312c66 108 154 261 178 301c24 -4 60 -16 155 -34c-86 -157 -119 -233 -171 -329c63 -128 114 -229 186 -408l-192 -3c-41 89 -34 85 -62 142z" />
    <glyph glyph-name="L" unicode="L" horiz-adv-x="482" 
d="M57 658l3 139l177 -18l32 -591c57 0 103 -7 186 -5c4 -72 9 -107 14 -185l-344 6l-48 -2z" />
    <glyph glyph-name="M" unicode="M" horiz-adv-x="849" 
d="M608 -1l-2 293l11 145l-50 -146l-55 -145c-13 -34 -38 -86 -45 -106c-12 -24 -34 -28 -52 -8c-5 16 -77 173 -122 260c-13 24 -47 129 -50 137c0 -20 7 -120 7 -142c-3 -112 -9 -243 -10 -285c-93 0 -81 -5 -180 -2c0 0 -3 247 -1 411c2 144 -3 356 2 376
c0 0 128 -8 196 -9c50 -94 62 -115 128 -253c8 -17 47 -109 59 -169c16 53 28 113 39 152c39 138 108 264 117 271c11 9 96 5 183 9l8 -789h-183z" />
    <glyph glyph-name="N" unicode="N" horiz-adv-x="671" 
d="M240 359c3 -131 4 -284 1 -355l-189 -6l3 476l-3 317l155 2c39 -75 139 -282 215 -434l13 426l184 10c-8 -277 -20 -507 -29 -793c-85 -4 -105 -2 -172 -2c-17 35 -59 110 -97 200c-27 62 -51 101 -81 159z" />
    <glyph glyph-name="O" unicode="O" horiz-adv-x="578" 
d="M363 -24l-70 1c-189 3 -244 110 -253 241c-5 69 -3 138 -4 181c-1 56 5 153 13 228c5 49 26 113 87 138c64 26 238 46 332 -19c55 -38 62 -83 67 -128c7 -63 10 -208 4 -317c-6 -111 -15 -212 -55 -256c-28 -31 -48 -51 -121 -69zM349 243c6 133 8 194 -1 319
c-3 44 -30 56 -61 55c-28 -7 -55 -25 -60 -55c-9 -175 -15 -232 3 -358c5 -37 38 -54 61 -48c43 -7 57 60 58 87z" />
    <glyph glyph-name="P" unicode="P" horiz-adv-x="480" 
d="M202 280l11 -279l-170 -1c-1 151 -6 286 -4 433c2 114 -7 340 7 352c9 7 275 16 305 3c42 -18 75 -34 83 -74c17 -82 22 -291 -12 -358c-35 -70 -87 -62 -106 -68c-38 -11 -114 -8 -114 -8zM208 431c51 -3 70 9 82 26c9 12 10 46 10 86c1 44 10 90 -23 102
c-36 13 8 5 -68 8z" />
    <glyph glyph-name="Q" unicode="Q" horiz-adv-x="589" 
d="M47 205c-6 63 -8 133 -9 193c-1 55 -3 141 7 215c9 71 21 135 81 162c62 28 234 35 321 -12c48 -26 72 -90 74 -147c3 -59 10 -182 10 -284c0 -88 -8 -176 -39 -261l81 -108l-45 -45l-60 -52c-51 65 -60 75 -99 115c-235 -31 -302 25 -322 224zM358 231c1 62 7 125 5 177
c-3 60 -5 108 -12 175c-5 44 -33 48 -64 46c-28 4 -56 -15 -60 -45c-3 -175 -5 -232 9 -400c3 -39 44 -42 71 -36c26 -1 50 28 51 83z" />
    <glyph glyph-name="R" unicode="R" horiz-adv-x="551" 
d="M543 33l-140 -69c-67 154 -88 207 -128 304l-42 1s-8 -257 -8 -270c-91 -2 -75 2 -160 6c-4 178 -4 304 -8 471c-3 93 -3 204 -2 302c93 10 117 9 169 8c73 -1 164 -10 196 -43c63 -65 55 -86 61 -238c2 -40 -1 -78 -17 -127l-48 -73zM232 413c67 -15 73 23 73 23
c7 75 8 142 -8 175s-72 17 -75 17s5 -148 10 -215z" />
    <glyph glyph-name="S" unicode="S" horiz-adv-x="463" 
d="M378 387c66 -123 89 -225 -21 -340c-77 -59 -139 -45 -330 -46l16 185c23 -5 43 -6 53 -5c52 3 99 -6 123 42c8 28 -9 65 -25 89c-16 25 -39 59 -60 81c-42 46 -73 101 -77 154c-6 66 -6 163 100 227c45 27 129 40 259 39l-11 -179c-37 -4 -31 -3 -48 -5
c-20 -3 -47 -14 -60 -21c-24 -14 -16 -61 2 -97c29 -56 61 -91 79 -124z" />
    <glyph glyph-name="T" unicode="T" horiz-adv-x="547" 
d="M378 0l-181 2c3 78 -3 151 -6 252c-4 139 -3 220 -8 352c-46 -3 -67 2 -146 2c-1 83 -10 114 -7 171c195 7 292 8 492 8c4 -59 10 -86 10 -180c-61 -1 -94 0 -152 -3c1 -98 -3 -54 -3 -137c0 -84 3 -322 1 -467z" />
    <glyph glyph-name="U" unicode="U" horiz-adv-x="570" 
d="M536 785c-1 -110 -2 -231 -7 -343c-5 -119 -20 -293 -43 -332c-65 -111 -130 -99 -187 -111c-200 2 -238 37 -260 199c-7 49 -3 155 -5 187c-6 121 7 197 9 396l173 -1l-3 -439c-1 -90 -8 -170 66 -176c60 -5 57 88 60 165l15 451z" />
    <glyph glyph-name="V" unicode="V" horiz-adv-x="616" 
d="M423 800l89 -28l98 -40c-35 -120 -64 -239 -94 -348c-31 -116 -75 -242 -115 -382l-175 -4l-114 375l-106 377l73 16l113 26c27 -84 86 -345 124 -512c33 150 84 419 107 520z" />
    <glyph glyph-name="W" unicode="W" horiz-adv-x="910" 
d="M397 768l137 -6c11 -42 35 -168 62 -307c5 -25 15 -139 20 -164c6 27 14 126 20 152c30 123 58 246 80 340l184 -23c-62 -216 -133 -555 -193 -761c-86 -3 -72 4 -153 0c-13 36 -38 142 -64 258c-7 31 -15 51 -30 135c-9 -90 -23 -100 -31 -139
c-25 -119 -51 -205 -65 -250c-72 -4 -77 -9 -138 -5c-80 257 -140 491 -216 761l180 25c11 -42 27 -91 50 -149c14 -66 33 -137 48 -199c6 -25 12 -127 17 -149c6 22 18 122 26 165c25 140 56 271 66 316z" />
    <glyph glyph-name="X" unicode="X" horiz-adv-x="690" 
d="M598 32c-30 -19 -73 -38 -106 -54c-47 75 -94 172 -151 264c-55 -82 -117 -202 -172 -283l-155 82l209 372c-37 51 -164 254 -199 313c30 24 53 28 87 49c32 20 52 21 87 42c46 -71 97 -175 152 -260c51 83 94 184 148 261l171 -81l-197 -328c65 -99 130 -207 204 -330
c-29 -24 -45 -26 -78 -47z" />
    <glyph glyph-name="Y" unicode="Y" horiz-adv-x="664" 
d="M371 1c-11 0 -66 -1 -122 -1l-8 407l-87 111l-143 146c37 32 67 72 124 121c67 -61 123 -141 190 -214c60 65 119 141 187 209l141 -107l-232 -254l18 -417s2 -4 -68 -1z" />
    <glyph glyph-name="Z" unicode="Z" horiz-adv-x="551" 
d="M47 617c2 35 -5 43 -8 76c-3 32 -11 63 -13 95c179 -6 264 4 462 -6c-3 -14 -1 -27 -4 -40c-50 -196 -95 -364 -140 -562c70 1 85 -7 168 -7c2 -79 14 -92 13 -170c-191 -4 -228 -2 -438 -1c29 114 65 246 103 379c22 75 38 155 60 228c-81 4 -104 5 -203 8z" />
    <glyph glyph-name="bracketleft" unicode="[" horiz-adv-x="507" 
d="M436 966v-75c0 -10 -2 9 -3 -75c-58 -3 -107 -17 -162 -19c10 -136 16 -620 16 -787c47 -3 91 -18 157 -26l-5 -142l-320 13c-8 318 -11 847 -12 1117c160 -3 192 0 329 -6z" />
    <glyph glyph-name="backslash" unicode="\" horiz-adv-x="571" 
d="M214 912l181 -620l79 -288l-185 -49c-71 214 -208 781 -252 903c87 33 92 29 177 54z" />
    <glyph glyph-name="bracketright" unicode="]" horiz-adv-x="485" 
d="M26 -147c-2 66 6 40 6 98c0 9 3 32 7 71c39 0 68 6 123 4c0 170 5 650 0 786l-125 16l6 149c70 -2 164 -10 290 -10l4 -97c9 -230 4 -751 7 -1024z" />
    <glyph glyph-name="asciicircum" unicode="^" horiz-adv-x="635" 
d="M319 681l-111 -151c-55 31 -70 48 -122 82c56 78 151 199 227 288c77 -75 200 -219 262 -298c-52 -33 -57 -37 -111 -66z" />
    <glyph glyph-name="underscore" unicode="_" horiz-adv-x="908" 
d="M99 -24c246 2 430 -4 700 -4c3 -45 -1 -137 -3 -179h-694c-1 43 1 142 -3 183z" />
    <glyph glyph-name="quoteleft" unicode="&#x2018;" horiz-adv-x="300" 
d="M168 895l113 -43c-53 -116 -75 -213 -103 -298c-85 18 -78 18 -170 39c51 119 87 208 160 302z" />
    <glyph glyph-name="a" unicode="a" 
d="M260 472c-47 13 -126 19 -144 13c-5 39 -5 94 -3 127c70 1 119 5 171 0c67 -6 115 -23 140 -51c26 -29 36 -72 38 -90c7 -66 12 -148 15 -186c8 -93 11 -189 18 -282c-58 -8 -92 -11 -136 -15c-2 12 -3 29 -4 51c-67 -32 -184 -68 -255 -14c-80 61 -64 214 -23 262
c35 41 124 53 250 56l-4 58c-2 36 -24 60 -63 71zM330 224c-69 -3 -103 -4 -121 -19c-14 -12 -32 -64 9 -72s74 7 116 23z" />
    <glyph glyph-name="b" unicode="b" horiz-adv-x="525" 
d="M49 -7c-2 61 -3 163 -3 226c-1 128 -3 241 -2 360c0 69 -6 127 -3 222c114 -8 167 -16 167 -17c1 -45 12 -171 12 -243c29 24 63 42 92 45c48 5 90 -11 119 -33c67 -83 55 -242 50 -343c-4 -79 -36 -142 -71 -170c-92 -58 -147 -7 -196 18l-14 -65c-77 -3 -64 1 -151 0z
M230 410c-2 -1 -10 -219 -1 -232c16 -16 14 -20 43 -18c22 2 47 18 47 79l-1 137c0 44 -13 54 -53 58c-28 3 -27 -19 -35 -24z" />
    <glyph glyph-name="c" unicode="c" horiz-adv-x="438" 
d="M204 296c3 -34 3 -78 20 -115c47 -39 92 -38 124 -42c13 -2 26 1 37 0c5 -68 11 -83 17 -151c-44 0 -85 4 -126 8c-49 5 -65 5 -103 16c-60 17 -116 67 -128 162c-7 56 -8 165 -7 212c1 49 6 70 32 117c42 75 179 116 330 100l-14 -84l-11 -74c-68 5 -120 0 -160 -25
c-23 -31 -14 -91 -11 -124z" />
    <glyph glyph-name="d" unicode="d" horiz-adv-x="522" 
d="M86 44c-51 106 -55 268 -50 364c5 107 25 172 151 182c37 -1 65 -11 119 -36l9 243l162 -18c-3 -114 -5 -210 -4 -323c1 -159 9 -304 15 -461l-155 -1l-5 67c-50 -30 -136 -52 -154 -50c-37 4 -50 -5 -88 33zM303 404c-11 25 -26 37 -66 37c-37 0 -29 -30 -32 -75
c-2 -12 13 -156 14 -164c7 -42 20 -38 30 -42s49 9 58 40l2 108z" />
    <glyph glyph-name="e" unicode="e" horiz-adv-x="471" 
d="M206 164c11 -24 82 -34 183 -27l11 -136c-176 -5 -260 -9 -315 53c-58 66 -54 255 -48 348c5 83 19 177 124 202c192 18 226 -20 247 -55c13 -22 23 -57 26 -98s7 -62 3 -115l-5 -67c-87 -2 -165 6 -237 5c0 0 -4 -76 11 -110zM196 378l102 2c3 45 -2 58 0 58
s-2 38 -54 36c-56 -2 -42 -38 -44 -38s-5 -16 -4 -58z" />
    <glyph glyph-name="f" unicode="f" horiz-adv-x="443" 
d="M267 0l-154 2v232v183c-35 2 -63 1 -67 3c-5 2 -8 100 -5 154h80c1 19 2 47 5 60c13 103 45 121 100 146c32 15 61 16 104 20c38 4 34 -1 73 -2c-8 -45 3 -80 -3 -136c-34 -2 -64 0 -100 -28c-16 -28 -18 -58 -19 -64c0 0 18 -2 58 -3h43c1 -60 5 -103 2 -152h-105z" />
    <glyph glyph-name="g" unicode="g" horiz-adv-x="528" 
d="M278 -30c-74 -2 -71 6 -88 22c-32 30 -36 76 -37 142c-69 12 -106 49 -111 89c-14 110 -11 194 5 277c11 59 64 79 111 93c48 6 134 10 168 -7c0 0 91 89 97 81c21 -31 47 -69 64 -102c-25 -23 -51 -47 -75 -67c16 -17 22 -196 -10 -279c-22 -57 -57 -63 -104 -81
c-8 -36 2 -48 26 -50c15 -1 63 -6 71 -8c33 -7 53 -26 80 -63c38 -52 31 -185 -38 -233c-36 -25 -82 -24 -157 -26c-83 -2 -120 0 -212 -1l6 153c58 2 70 0 168 -3c36 -1 46 0 79 3c13 1 20 17 19 27c-1 18 -2 35 -62 33zM186 370c0 -47 2 -54 1 -64s10 -44 48 -42
c34 2 30 31 31 47c1 11 2 56 3 72c2 30 -5 73 -41 75s-42 -57 -42 -88z" />
    <glyph glyph-name="h" unicode="h" horiz-adv-x="548" 
d="M502 484c3 -31 4 -112 6 -145c2 -32 -1 -70 -2 -101l-5 -236c-92 0 -67 -1 -162 -1v173c0 86 -1 170 -3 208c-1 29 -39 38 -61 34c-25 -4 -42 -24 -42 -42c-3 -10 -3 -99 -3 -132c0 -40 -7 -177 -7 -241h-172c3 179 1 334 2 483c0 99 -5 200 -4 299c82 -3 77 -10 168 -8
c4 -58 2 -135 6 -216c56 44 128 58 210 35c57 -16 67 -86 69 -110z" />
    <glyph glyph-name="i" unicode="i" horiz-adv-x="322" 
d="M183 830c49 -9 89 -62 46 -151c-104 -79 -195 4 -177 83c19 84 84 77 131 68zM246 579c9 -57 6 -512 7 -577c-101 -6 -72 2 -182 -1c-13 220 -17 368 -10 579c51 1 69 6 93 5s46 -6 92 -6z" />
    <glyph glyph-name="j" unicode="j" horiz-adv-x="416" 
d="M289 818c43 -13 73 -68 38 -144c-74 -81 -190 -3 -170 74c19 74 80 85 132 70zM170 573c100 5 66 -1 178 -1l2 -297c0 -72 2 -140 -3 -197c-5 -55 -11 -121 -41 -155c-44 -49 -58 -76 -283 -74c4 71 1 76 6 151c17 4 116 -13 137 77c9 143 6 216 4 301
c-1 56 -2 115 0 195z" />
    <glyph glyph-name="k" unicode="k" horiz-adv-x="552" 
d="M223 0l-181 1l3 425l4 375c81 1 87 -10 180 -11c1 -82 2 -247 0 -376c22 33 58 74 81 103c32 41 44 48 58 67c64 -36 67 -41 126 -74c-48 -70 -93 -130 -129 -186c18 -39 40 -76 66 -116c29 -45 53 -98 94 -168c-5 1 -118 -45 -146 -57c-40 74 -82 150 -82 150l-50 86
l-24 -27c-1 -50 -2 -108 0 -192z" />
    <glyph glyph-name="l" unicode="l" horiz-adv-x="382" 
d="M361 149c3 -34 -2 -51 -2 -79c0 -29 -6 -55 -2 -75c-25 -8 -25 -7 -58 -6c-40 1 -100 5 -138 15c-72 19 -89 103 -91 135c-7 140 -9 228 -11 374l-4 285c92 -6 58 -5 168 -10c6 -238 6 -338 12 -548c3 -110 86 -89 126 -91z" />
    <glyph glyph-name="m" unicode="m" horiz-adv-x="813" 
d="M490 2c-50 0 -152 -1 -152 -1s-9 330 -9 332l-2 36c-9 31 -17 39 -55 39c-36 -15 -37 -54 -37 -78v-328l-183 -2c-2 38 -7 192 -9 334c-2 113 -5 220 -4 249c84 -1 83 -5 159 -10c7 -17 13 -37 19 -60c116 109 223 69 273 8c54 38 100 53 144 55c108 5 127 -73 129 -82
c4 -2 5 -165 7 -253c1 -80 -1 -161 1 -239c-28 0 -91 -4 -167 0l-18 348c-3 56 -21 53 -55 55c-24 -16 -39 -26 -38 -64c1 -76 -2 -304 -3 -339z" />
    <glyph glyph-name="n" unicode="n" horiz-adv-x="546" 
d="M431 584c64 -42 71 -96 74 -182c1 -24 0 -71 0 -97c0 -51 -4 -208 -7 -307l-160 3c2 125 5 213 -1 327c0 0 8 91 -35 91c-31 0 -81 -33 -81 -33l-3 -176s-5 -53 -4 -209c-99 -3 -66 1 -168 1v294l-1 289c92 6 72 13 158 18l2 -82c60 84 172 76 226 63z" />
    <glyph glyph-name="o" unicode="o" horiz-adv-x="517" 
d="M273 -14c-81 -2 -186 1 -205 88c-14 64 -34 258 -32 325c2 72 0 97 37 138c40 44 73 51 186 53c127 2 160 -40 175 -58c39 -47 44 -138 47 -268c3 -94 -10 -163 -21 -190c-25 -62 -79 -86 -187 -88zM203 396c0 -2 2 -94 18 -202c5 -32 3 -52 51 -53c0 0 44 -5 42 47
c0 0 8 36 -9 212c-3 34 -19 46 -41 49c-19 3 -69 -1 -61 -53z" />
    <glyph glyph-name="p" unicode="p" horiz-adv-x="536" 
d="M201 582c8 -7 10 -64 10 -64c49 40 60 51 157 57c92 -25 76 -28 104 -66c25 -34 31 -109 30 -137c-2 -65 -5 -127 -17 -225c-8 -64 -37 -90 -62 -107c-32 -22 -99 -70 -203 11c1 -81 3 -172 0 -229l-176 -16c3 72 0 144 -1 226c-2 171 -7 330 -13 533c73 7 164 23 171 17
zM227 394l-6 -106l6 -102c1 -23 36 -44 51 -41c24 6 36 31 36 37s12 107 5 200c2 27 -16 52 -48 48s-43 -13 -44 -36z" />
    <glyph glyph-name="q" unicode="q" horiz-adv-x="541" 
d="M309 390c-9 19 -21 35 -47 37c-42 3 -42 -19 -45 -55l10 -158c3 -43 16 -67 50 -71c20 -2 25 15 32 32v215zM83 54c-32 54 -56 308 -41 426c10 85 165 141 272 27l4 74l157 7c4 -139 21 -650 26 -765c-92 -8 -78 -16 -169 -16c2 49 -11 144 -12 224
c-62 -39 -176 -29 -215 -8c-12 7 -18 24 -22 31z" />
    <glyph glyph-name="r" unicode="r" horiz-adv-x="449" 
d="M52 2c2 117 1 264 0 387s9 225 9 232c6 3 162 4 162 4l8 -76c50 15 99 39 172 52c12 -54 20 -86 34 -131c0 0 -191 -82 -196 -95c-9 -22 -13 -219 -13 -371c-104 -3 -84 -6 -176 -2z" />
    <glyph glyph-name="s" unicode="s" horiz-adv-x="402" 
d="M121 277c-8 8 -70 79 -71 136c-1 48 -12 62 26 118c29 43 95 75 135 87c32 10 123 31 128 23c7 -11 9 -157 9 -157c-46 -12 -16 -3 -48 -12c-39 -11 -64 -32 -58 -69c7 -42 30 -63 66 -104s55 -90 48 -157c-8 -82 -36 -126 -178 -150c-38 -7 -59 -9 -143 -6l2 156
c72 3 27 -1 68 4c29 4 54 12 58 31c10 48 -15 73 -42 100z" />
    <glyph glyph-name="t" unicode="t" horiz-adv-x="412" 
d="M82 444c-27 2 -41 -3 -78 0c0 73 -2 68 -3 146c0 0 87 -3 87 3c0 22 -2 163 -2 163l153 -17l3 -148c49 -3 120 -1 129 -7c0 0 -4 -73 0 -149c-47 3 -67 2 -121 4l8 -225c6 -47 22 -68 53 -68c35 0 0 -2 67 0l-13 -156c-140 -11 -182 8 -202 16c-36 14 -55 81 -59 113
c-6 54 -16 115 -16 182c-1 78 -3 138 -6 143z" />
    <glyph glyph-name="u" unicode="u" horiz-adv-x="577" 
d="M510 593c3 -142 11 -454 9 -603l-165 3l-12 60c-75 -38 -165 -67 -221 -20c-36 31 -35 31 -53 71c-20 81 -17 151 -18 236c-1 78 -7 177 -8 256l173 -14s13 -342 15 -359c4 -30 12 -56 54 -57c44 -1 61 22 63 72c5 106 -1 347 -1 347s74 6 164 8z" />
    <glyph glyph-name="v" unicode="v" horiz-adv-x="579" 
d="M561 556c-47 -178 -97 -348 -151 -558c-82 1 -109 1 -211 -2c-36 105 -70 196 -101 289c-30 87 -52 174 -80 277c58 19 97 24 174 38c7 -36 38 -142 56 -208c16 -59 46 -184 56 -212c8 38 36 178 46 230c15 73 36 149 44 182z" />
    <glyph glyph-name="w" unicode="w" horiz-adv-x="806" 
d="M779 568c-24 -94 -50 -188 -68 -280c-21 -104 -45 -202 -66 -287c-26 0 -138 -1 -169 -4c-12 61 -24 111 -45 192c-5 19 -19 133 -24 165c-2 -47 -12 -105 -25 -156l-51 -199h-156c-26 89 -51 167 -66 245c-21 105 -54 206 -82 322c36 12 127 44 164 52
c16 -74 40 -172 58 -264c8 -44 13 -94 20 -127c0 0 0 82 28 192l41 160c26 0 99 8 129 5c3 6 15 -65 34 -148c12 -56 31 -151 41 -209c2 70 6 102 14 154c16 105 41 202 48 227z" />
    <glyph glyph-name="x" unicode="x" horiz-adv-x="527" 
d="M364 606c87 -50 70 -40 143 -82c-19 -40 -36 -63 -58 -100c-26 -44 -47 -90 -84 -146c37 -66 92 -142 138 -220c-37 -23 -45 -33 -72 -49c-26 -15 -26 -23 -67 -43c-12 22 -30 48 -48 88c-8 17 -44 73 -49 86c-47 -84 -52 -94 -105 -178c-65 35 -79 50 -142 91l130 228
c-23 42 -81 187 -118 238c75 43 84 56 151 91c11 -19 38 -70 53 -106c17 -39 24 -44 37 -71c38 74 60 111 91 173z" />
    <glyph glyph-name="y" unicode="y" horiz-adv-x="596" 
d="M162 -35c14 46 57 163 69 222c-7 24 -69 127 -116 218c-12 24 -46 65 -78 147c71 32 76 39 147 60c19 -33 69 -125 69 -125c21 -38 57 -112 65 -115c39 92 47 166 81 238c27 -3 55 -14 86 -22c26 -7 35 -10 80 -21c-52 -144 -106 -283 -152 -413
c-45 -125 -76 -226 -118 -341c-59 9 -100 18 -174 36c17 36 30 78 41 116z" />
    <glyph glyph-name="z" unicode="z" horiz-adv-x="516" 
d="M33 428c1 46 -11 109 -1 168c119 3 173 -2 237 -1l147 2c-2 -9 -10 -25 -11 -42c-30 -138 -67 -255 -111 -384c107 -8 170 -7 175 -7c10 0 12 -84 15 -108c2 -18 2 -35 2 -52c-164 -3 -236 -6 -416 -4c0 7 0 18 2 27c30 119 70 253 113 399c-60 1 -89 1 -152 2z" />
    <glyph glyph-name="braceleft" unicode="{" horiz-adv-x="549" 
d="M144 815c0 45 2 87 59 128c49 17 62 23 123 26c54 2 109 5 159 6l-6 -157c-37 -1 -128 0 -136 -22c-31 -18 -15 -245 -21 -281c-4 -28 -2 -77 -43 -108c-7 -3 -15 -10 -17 -11l43 -42s17 -38 17 -57c-1 -59 -19 -257 10 -276c34 -22 86 -14 142 -8c10 -66 7 -104 14 -168
c-47 -2 -95 -5 -149 -6c-65 -1 -79 5 -121 20c-61 34 -69 90 -69 131c0 24 1 58 2 90s1 152 -8 193c-27 31 -55 42 -88 42c1 75 -7 92 -1 168c23 2 60 4 92 42c3 58 -2 253 -2 290z" />
    <glyph glyph-name="bar" unicode="|" horiz-adv-x="469" 
d="M126 450c-10 214 4 523 4 523s107 -2 202 -2c7 -362 15 -708 14 -1124l-224 4v139c0 114 13 255 4 460z" />
    <glyph glyph-name="braceright" unicode="}" horiz-adv-x="533" 
d="M181 235c-2 45 -5 88 22 126c9 13 29 30 29 30c-2 1 -7 9 -14 12c-38 28 -24 53 -30 82c-3 17 -2 195 -2 213c0 20 6 34 -7 85c-26 20 -78 29 -146 30l-8 159c49 -1 120 -6 181 -7c29 0 51 -8 92 -22c57 -41 71 -85 69 -130l-2 -54s-17 -238 17 -250
c16 -17 34 -31 65 -24c4 -72 10 -111 3 -186c-32 0 -35 -5 -61 -16c-27 -11 -32 -160 -31 -192s-2 -66 -2 -90c0 -41 -12 -99 -73 -133c-42 -15 -43 -19 -108 -18c-54 1 -106 -4 -153 -2c7 64 14 115 19 180c55 0 102 -7 129 12c19 48 12 171 11 195z" />
    <glyph glyph-name="asciitilde" unicode="~" horiz-adv-x="684" 
d="M235 275c-11 -1 -45 -13 -52 -21c-5 -4 -31 -23 -38 -30c0 0 -30 52 -49 76c-20 25 -47 66 -47 66c69 56 115 93 180 88c37 -3 66 -21 84 -27c19 -6 83 -37 97 -38c37 -3 63 28 119 72c0 0 44 -51 63 -83c12 -20 27 -40 27 -40c-55 -61 -114 -114 -182 -120
c-42 -4 -99 18 -127 34c-42 24 -43 25 -75 23z" />
    <glyph glyph-name="exclamdown" unicode="&#xa1;" horiz-adv-x="292" 
d="M77 385l172 -13c4 -220 24 -413 16 -577c-93 -5 -75 2 -188 2c3 206 -1 382 0 588zM197 627c40 -13 79 -74 38 -159c-100 -79 -195 6 -177 85c19 84 90 90 139 74z" />
    <glyph glyph-name="cent" unicode="&#xa2;" horiz-adv-x="398" 
d="M218 400l-2 -102c-1 -52 17 -132 26 -143c32 -38 29 -26 120 -34c-2 -66 1 -63 -6 -136c-40 -1 -37 -4 -82 6l-3 -66l-102 7l-6 88c-96 23 -116 124 -117 168c-2 59 -8 111 -8 160c0 78 7 228 139 245l3 73l86 4l6 -72l73 -1l-2 -87v-71s-100 16 -125 -39z" />
    <glyph glyph-name="sterling" unicode="&#xa3;" horiz-adv-x="451" 
d="M185 796c78 17 149 10 239 -61l-52 -115c-68 47 -109 33 -121 14c-33 -53 -5 -126 10 -173c38 2 80 2 102 3c1 -16 4 -55 4 -75h-91c0 -51 -4 -158 -11 -211c56 0 85 1 159 3c4 -72 11 -102 17 -181c0 0 -259 1 -301 0c-110 -1 -96 2 -96 2c19 45 51 307 49 389h-89
l-1 70l82 3c-28 125 -21 305 100 332z" />
    <glyph glyph-name="fraction" unicode="&#x2044;" horiz-adv-x="433" 
d="M-67 22c109 275 199 516 338 784l186 -61c-51 -95 -63 -133 -81 -182c-69 -190 -146 -380 -244 -606z" />
    <glyph glyph-name="yen" unicode="&#xa5;" horiz-adv-x="646" 
d="M635 718l-116 -189l98 1c-2 0 -2 -64 -2 -66l-123 -1l-57 -91l1 -47l170 6c-4 -79 3 -40 1 -76c-80 0 -106 0 -173 -3v-250c-32 -14 -139 0 -179 -6l-9 257c-67 2 -120 -1 -198 -3l-2 37l1 30l192 4l-2 48l-55 81l-146 -2l-1 29l1 42l110 2l-135 191s104 94 132 118
c43 -44 136 -208 193 -295c42 81 117 231 160 282z" />
    <glyph glyph-name="florin" unicode="&#x192;" horiz-adv-x="478" 
d="M430 713c-41 -6 -109 4 -128 -33c-11 -22 -12 -62 -10 -73l110 -2c-2 -59 -9 -144 -11 -147c-58 2 -103 5 -103 -5l-10 -462c-2 -82 -30 -108 -96 -153c-38 -14 -156 -27 -196 -24c-4 25 7 117 5 150c41 6 55 -6 93 27c22 53 17 32 18 67l8 402c-28 0 -62 -1 -96 0
c-5 -3 0 108 5 141c19 0 72 1 97 2c5 42 4 216 90 239c40 11 189 14 232 6c4 -25 -10 -102 -8 -135z" />
    <glyph glyph-name="section" unicode="&#xa7;" horiz-adv-x="468" 
d="M432 396c29 -57 14 -157 14 -157c-15 -48 -35 -96 -68 -121c31 -47 34 -62 40 -88c14 -63 4 -107 -8 -129c-26 -48 -39 -65 -98 -80c-97 -25 -172 5 -250 68l88 108c56 -42 72 -48 97 -34c42 24 3 75 -35 105l-74 59c-21 16 -53 53 -70 72c-74 80 -25 216 -2 246
c31 40 16 31 41 54c-34 26 -45 74 -51 89c-23 56 7 129 18 150c21 39 64 60 90 67c89 24 193 -7 257 -74l-96 -100c-55 41 -40 32 -70 28c-35 -5 -21 -62 -7 -80s88 -82 120 -102c6 -4 41 -36 64 -81zM295 293c-20 62 -58 82 -76 98c-13 -9 -29 -33 -28 -58
c1 -55 77 -92 77 -92c18 16 22 23 27 52z" />
    <glyph glyph-name="currency" unicode="&#xa4;" horiz-adv-x="558" 
d="M426 523c1 -33 4 -63 -4 -77l-136 -1c1 -19 1 -68 1 -89c59 -2 138 -2 138 -4c1 -19 -2 -39 0 -73l-133 -4c-3 -10 10 -68 16 -82c21 -51 137 -54 203 -54c3 -37 13 -119 9 -174c-59 1 -363 -2 -394 160c-6 30 -10 110 -14 153c-26 -2 -43 0 -78 -1v79c36 2 42 10 82 7
l1 79c-42 0 -59 3 -86 0l2 81c44 1 46 -1 84 2c-3 41 2 79 9 123c18 71 76 120 114 136c62 26 175 46 258 33l-13 -153c-55 -2 -199 25 -199 -136c0 0 126 -4 140 -5z" />
    <glyph glyph-name="quotesingle" unicode="'" horiz-adv-x="253" 
d="M29 804l192 -3c-2 -86 -26 -149 -40 -295l-127 -3c-10 139 -29 213 -25 301z" />
    <glyph glyph-name="quotedblleft" unicode="&#x201c;" horiz-adv-x="457" 
d="M156 901l131 -53c-59 -106 -81 -207 -109 -292c-85 18 -78 18 -170 39c51 119 75 212 148 306zM226 585c50 119 74 206 144 298l132 -52c-51 -96 -79 -213 -104 -286c-61 13 -28 8 -60 13c-31 2 -46 17 -112 27z" />
    <glyph glyph-name="guillemotleft" unicode="&#xab;" horiz-adv-x="888" 
d="M373 363c79 70 192 183 284 258c51 -39 71 -62 128 -108c-55 -42 -115 -99 -168 -149l173 -143l-123 -105c-72 50 -114 98 -156 127c-41 28 -76 68 -138 120zM173 481c47 42 143 129 191 168c50 -39 84 -72 131 -112c-53 -43 -144 -129 -196 -174
c57 -45 149 -127 184 -156l-105 -101c-118 86 -235 181 -330 259c40 37 82 77 125 116z" />
    <glyph glyph-name="guilsinglleft" unicode="&#x2039;" horiz-adv-x="555" 
d="M322 122c-104 90 -157 144 -274 246c111 93 171 153 272 235c61 -38 72 -73 138 -117c-59 -42 -91 -78 -147 -120c53 -41 92 -80 140 -111z" />
    <glyph glyph-name="guilsinglright" unicode="&#x203a;" horiz-adv-x="555" 
d="M235 371c-52 40 -79 75 -140 128c56 46 74 77 129 117c36 -23 81 -69 113 -97c37 -32 39 -42 73 -72c13 -11 25 -22 81 -81c-115 -101 -166 -151 -271 -243l-116 139c44 33 73 72 131 109z" />
    <glyph glyph-name="fi" unicode="&#xfb01;" horiz-adv-x="620" 
d="M565 2c-37 -2 -128 2 -171 0c-9 193 -1 214 -11 403l-109 2l2 -401l-162 -4l-16 403c-28 0 -42 -1 -77 0c-5 -3 -1 79 1 140c20 0 47 -2 72 7c7 50 -14 180 80 209c39 12 128 25 170 23c4 -25 -1 -96 1 -129c-41 -4 -87 8 -87 -39c0 -36 -2 -55 0 -66l287 -10
c17 -173 19 -339 20 -538zM503 773c32 -6 64 -78 32 -133c-75 -69 -158 3 -144 68c14 67 67 74 112 65z" />
    <glyph glyph-name="fl" unicode="&#xfb02;" horiz-adv-x="629" 
d="M645 -9c-73 0 -231 6 -239 101c-13 149 -17 271 -20 430l-3 138c-24 4 -120 16 -122 -35c-7 -46 -6 -70 -4 -81l83 -6l3 -129h-82l8 -409h-160l-10 405c-28 0 -42 -3 -77 -2c-5 37 -3 75 -1 136c20 0 49 4 74 5c7 50 -17 205 84 232c38 14 91 18 134 20
c0 0 196 -8 211 -16c18 -9 2 -360 22 -594c4 -45 44 -38 83 -40c3 -42 13 -129 16 -155z" />
    <glyph glyph-name="endash" unicode="&#x2013;" horiz-adv-x="843" 
d="M125 478c228 2 425 0 597 0c3 -45 3 -156 1 -198l-594 -1c-2 43 0 158 -4 199z" />
    <glyph glyph-name="dagger" unicode="&#x2020;" horiz-adv-x="495" 
d="M301 -190l-187 -4l-7 633l-87 -5l-8 190c34 1 46 2 93 3l3 161c104 2 92 5 187 7l4 -168h100c0 -71 6 -117 3 -186l-111 -9c0 -304 9 -422 10 -622z" />
    <glyph glyph-name="daggerdbl" unicode="&#x2021;" horiz-adv-x="495" 
d="M311 -192l-195 4v208h-106v153c35 1 65 8 112 8l-2 274l-110 -1v161c34 1 62 5 109 6l1 175c104 -2 88 -7 183 -3v-172h114c-1 -71 1 -90 -1 -160l-109 -2c0 -74 1 -118 2 -276c34 1 62 1 112 1c0 -72 0 -97 -3 -166l-108 -1c0 -56 0 -127 1 -209z" />
    <glyph glyph-name="periodcentered" unicode="&#xb7;" horiz-adv-x="328" 
d="M216 497c65 -18 118 -90 61 -209c-138 -105 -266 10 -242 115c25 111 116 112 181 94z" />
    <glyph glyph-name="paragraph" unicode="&#xb6;" horiz-adv-x="550" 
d="M210 785c30 0 62 1 88 0l-5 -398c-173 33 -221 64 -236 156c-16 103 21 193 67 219c22 12 43 22 86 23zM493 784c3 -240 -20 -547 -16 -780l-159 -4l18 787z" />
    <glyph glyph-name="bullet" unicode="&#x2022;" horiz-adv-x="590" 
d="M473 479c50 -79 6 -250 -44 -276c-145 -75 -391 30 -284 253c72 152 289 85 328 23z" />
    <glyph glyph-name="quotesinglbase" unicode="&#x201a;" horiz-adv-x="296" 
d="M94 229c91 -16 80 -24 172 -48c-54 -120 -96 -214 -172 -307l-111 47c44 104 95 221 111 308z" />
    <glyph glyph-name="quotedblbase" unicode="&#x201e;" horiz-adv-x="472" 
d="M77 237c45 -10 50 -15 91 -25c39 -10 49 -19 95 -31c-46 -120 -74 -210 -148 -310l-132 55c50 92 79 230 94 311zM314 220c45 -11 58 -18 97 -26s33 -9 81 -21c-46 -121 -76 -224 -149 -318l-128 57c47 97 84 227 99 308z" />
    <glyph glyph-name="quotedblright" unicode="&#x201d;" horiz-adv-x="463" 
d="M110 915c45 -10 56 -12 69 -15c38 -10 49 -15 96 -23c-45 -126 -74 -228 -140 -325l-127 48c43 95 86 223 102 315zM328 899c91 -16 84 -24 180 -40c-54 -120 -98 -230 -174 -323l-113 51c44 104 91 225 107 312z" />
    <glyph glyph-name="guillemotright" unicode="&#xbb;" horiz-adv-x="850" 
d="M401 529c56 47 70 63 130 107c69 -64 208 -208 272 -272c-87 -80 -206 -187 -298 -264l-107 116c31 30 117 103 178 154c-53 45 -121 113 -175 159zM262 368c-46 42 -99 93 -162 147c54 45 76 67 124 105c91 -74 203 -180 280 -252l-288 -248l-121 108z" />
    <glyph glyph-name="ellipsis" unicode="&#x2026;" horiz-adv-x="756" 
d="M169 180c48 -13 89 -68 46 -157c-104 -79 -199 6 -181 85c19 84 86 85 135 72zM428 181c32 -13 82 -68 39 -157c-104 -79 -199 6 -181 85c19 84 95 91 142 72zM673 178c48 -13 89 -68 46 -157c-104 -79 -199 6 -181 85c19 84 86 85 135 72z" />
    <glyph glyph-name="perthousand" unicode="&#x2030;" horiz-adv-x="1178" 
d="M344 549c0 -5 -7 -71 -19 -97c-23 -49 -51 -58 -130 -58c-53 0 -131 9 -152 75c-8 25 -8 70 -8 70c0 24 0 62 1 138c1 93 79 108 106 112s163 7 184 -51c21 -57 17 -85 18 -143v-46zM640 769c-13 -23 -129 -329 -139 -358c-62 -177 -156 -427 -156 -427
c-5 -5 -11 -42 -17 -40c-28 9 -145 72 -145 72l84 203c57 138 169 456 233 605zM1144 137c-2 -48 -2 -68 -14 -94c-23 -49 -60 -57 -139 -58c-56 -1 -129 -1 -147 76l-9 73c0 24 -3 61 -2 137c1 93 87 106 114 110s158 9 174 -58c15 -61 17 -49 20 -105c3 -48 3 -87 3 -81z
M809 143c-1 -12 -1 -72 -13 -98c-23 -49 -50 -61 -129 -61c-53 0 -110 -8 -154 78l-9 70c0 24 0 63 1 139c1 93 81 108 108 112s163 8 180 -52c16 -58 13 -85 14 -143c1 -48 3 -39 2 -45zM223 532c1 7 1 86 0 99c-5 48 -63 49 -63 -2c0 -112 10 -107 11 -111
c4 -16 50 -11 52 14zM1018 124c1 7 1 86 0 99c-5 48 -63 49 -63 -2c0 -112 10 -107 11 -111c4 -16 50 -11 52 14zM686 124c1 7 1 86 0 99c-5 48 -63 49 -63 -2c0 -112 10 -107 11 -111c4 -16 50 -11 52 14z" />
    <glyph glyph-name="questiondown" unicode="&#xbf;" horiz-adv-x="433" 
d="M177 367c89 5 88 10 161 11c-4 -5 32 -145 -37 -242c-47 -66 -137 -125 -53 -174c36 -21 127 11 137 4l12 -153c-64 -8 -94 -22 -162 -15c-78 8 -114 18 -157 56c-71 63 -58 147 -30 200c3 31 73 104 112 177c24 46 17 103 17 136zM285 599c36 -12 71 -66 34 -143
c-90 -71 -175 6 -159 77c17 75 81 81 125 66z" />
    <glyph glyph-name="grave" unicode="`" horiz-adv-x="420" 
d="M133 818l138 88c47 -68 57 -168 92 -216l-90 -55c-26 35 -43 56 -61 79c-13 17 -47 63 -79 104z" />
    <glyph glyph-name="acute" unicode="&#xb4;" horiz-adv-x="421" 
d="M318 826c-33 -49 -90 -141 -126 -192l-107 47c27 61 61 174 84 224z" />
    <glyph glyph-name="circumflex" unicode="&#x2c6;" horiz-adv-x="523" 
d="M156 650c-42 27 -61 55 -101 85l216 165c74 -61 117 -107 197 -164l-101 -92c-44 37 -73 73 -104 98c-44 -35 -81 -72 -107 -92z" />
    <glyph glyph-name="tilde" unicode="&#x2dc;" horiz-adv-x="495" 
d="M443 740c-35 -55 -102 -104 -144 -104c-49 0 -89 39 -123 39c-20 -8 -45 -13 -66 -41l-96 80c32 51 97 99 147 99c49 0 95 -43 129 -43c18 0 46 19 73 48z" />
    <glyph glyph-name="macron" unicode="&#xaf;" horiz-adv-x="538" 
d="M59 765c145 1 199 1 417 1c0 -31 5 -105 3 -132l-419 3z" />
    <glyph glyph-name="breve" unicode="&#x2d8;" horiz-adv-x="464" 
d="M415 802c-8 -44 -32 -119 -61 -148c-31 -32 -87 -36 -124 -36c-111 -1 -158 107 -181 183c22 8 91 4 112 7c6 -13 5 -35 13 -49c16 -28 23 -36 64 -36c54 0 53 17 83 84z" />
    <glyph glyph-name="dotaccent" unicode="&#x2d9;" horiz-adv-x="433" 
d="M256 842c71 -17 91 -116 67 -162c-26 -39 -81 -77 -139 -54s-88 92 -84 113c1 8 3 141 156 103z" />
    <glyph glyph-name="dieresis" unicode="&#xa8;" horiz-adv-x="437" 
d="M160 762c36 -23 33 -82 10 -115c-66 -59 -153 -7 -139 63c15 76 87 79 129 52zM354 765c36 -23 33 -82 10 -115c-66 -59 -149 -10 -135 60c15 76 83 82 125 55z" />
    <glyph glyph-name="ring" unicode="&#x2da;" horiz-adv-x="474" 
d="M374 735c2 -44 -16 -98 -41 -116c-39 -36 -126 -42 -180 -9c-27 17 -59 63 -52 128c8 80 71 132 139 127c65 -4 130 -39 134 -130zM275 725c-2 24 -19 40 -38 40s-43 -12 -40 -45c3 -29 14 -31 38 -35c16 0 42 17 40 40z" />
    <glyph glyph-name="cedilla" unicode="&#xb8;" horiz-adv-x="318" 
d="M280 -12c0 0 -72 -207 -84 -217c-23 4 -131 62 -147 70l89 168s166 -24 142 -21z" />
    <glyph glyph-name="hungarumlaut" unicode="&#x2dd;" horiz-adv-x="653" 
d="M182 823l165 -51c-46 -78 -76 -135 -123 -213l-124 31c34 81 32 147 82 233zM388 799l165 -51c-46 -78 -76 -135 -123 -213l-124 31c34 81 32 147 82 233z" />
    <glyph glyph-name="ogonek" unicode="&#x2db;" horiz-adv-x="323" 
d="M58 20l124 -1c-13 -53 -26 -92 -8 -119c22 -34 75 -16 88 -15l14 -113c-64 -26 -170 -16 -209 38c-35 39 -21 188 -9 210z" />
    <glyph glyph-name="caron" unicode="&#x2c7;" horiz-adv-x="582" 
d="M303 545l-248 198c40 30 87 87 129 114c19 -7 68 -75 113 -112c26 17 101 92 112 101l118 -112c-49 -41 -84 -69 -135 -114c-12 -11 -49 -53 -89 -75z" />
    <glyph glyph-name="emdash" unicode="&#x2014;" horiz-adv-x="1036" 
d="M125 484l788 -1c3 -45 5 -159 3 -201l-786 -1c-1 43 -1 161 -5 203z" />
    <glyph glyph-name="AE" unicode="&#xc6;" horiz-adv-x="816" 
d="M583 611v-129c53 -4 111 -7 175 -12c-1 -66 5 -81 -2 -151l-171 2c2 -44 1 -100 4 -142c64 0 99 -2 190 -3c-8 -75 11 -97 7 -171c-145 -2 -220 -4 -376 -3l-5 103l-137 5l-41 -108c-74 0 -108 -7 -207 -1l40 111l272 664c142 6 273 0 443 -4c-10 -63 -3 -74 -11 -153z
M394 546c-17 -46 -12 -31 -26 -76c-15 -48 -52 -147 -66 -191l98 -4z" />
    <glyph glyph-name="ordfeminine" unicode="&#xaa;" horiz-adv-x="421" 
d="M397 339c-10 0 -114 -4 -115 -1l-16 40c-41 -22 -133 -58 -195 -31c-55 39 -51 135 -33 193c19 61 122 84 209 38c-2 18 2 84 -21 99c-28 18 -150 14 -168 14c-1 20 6 73 3 99c58 8 221 3 260 -18c26 -14 43 -54 49 -71c7 -22 17 -70 20 -130c4 -77 0 -160 7 -232z
M46 288c109 3 177 2 357 2c0 -49 4 -83 1 -142l-358 -1v141zM232 497c-13 13 -46 15 -60 9c-15 -6 -27 -1 -35 -28c0 0 9 -31 24 -40c13 -8 58 1 70 15c0 0 18 27 1 44z" />
    <glyph glyph-name="Lslash" unicode="&#x141;" horiz-adv-x="530" 
d="M76 270l-84 -19v190c26 5 45 9 80 18c2 98 -8 209 -10 323l48 9l190 -1l15 -274c36 7 51 10 101 19c8 -87 12 -122 11 -179l-105 -30l8 -136c56 0 95 0 177 3c4 -72 3 -114 10 -193h-391l-48 6z" />
    <glyph glyph-name="Oslash" unicode="&#xd8;" horiz-adv-x="528" 
d="M535 802c-18 -33 -41 -67 -60 -103c21 -25 27 -61 30 -76c22 -105 31 -418 18 -484c-10 -51 -35 -110 -72 -131c-33 -19 -89 -32 -127 -36c-102 -1 -151 33 -189 85c-11 -13 -27 -46 -56 -80l-54 44l70 107c-34 62 -66 212 -69 293c-4 125 -4 286 74 347
c23 18 80 40 139 43c92 4 145 -27 186 -66c7 17 43 71 52 89zM269 647c-34 -4 -57 -22 -66 -46s-10 -153 8 -260c44 78 76 157 123 237c-17 79 -65 69 -65 69zM361 175c-4 0 -4 85 -12 278c-45 -80 -76 -147 -120 -238c2 -46 29 -82 65 -84c51 -3 67 44 67 44z" />
    <glyph glyph-name="OE" unicode="&#x152;" horiz-adv-x="774" 
d="M721 455c4 -45 4 -70 -11 -124l-139 1c2 -59 -2 -88 1 -144c84 4 125 -2 186 -8c-4 -63 3 -104 -5 -174c-122 3 -211 14 -314 17c-18 -18 -45 -20 -56 -24c-29 0 -23 -9 -76 -5c-212 16 -219 2 -253 237c-10 67 -9 134 -11 176c-1 28 -1 65 -3 101c-1 35 -4 89 1 125
c9 70 30 108 90 135c48 21 212 55 297 11c95 4 166 10 329 15l-3 -169l-185 -3l-4 -159c56 -4 91 -2 156 -8zM342 211c2 133 5 253 -8 378c-5 44 -27 41 -58 45c-33 -2 -53 -6 -57 -36c-3 -175 0 -219 14 -387c3 -39 37 -64 62 -56c37 3 47 29 47 56z" />
    <glyph glyph-name="ordmasculine" unicode="&#xba;" horiz-adv-x="421" 
d="M37 423c-7 41 -11 75 -11 114c-1 42 -3 85 4 123c13 70 60 115 106 119c41 4 195 29 238 -65c25 -55 29 -257 9 -299c-34 -72 -75 -71 -170 -77c-65 -4 -123 -5 -176 85zM251 480c3 34 7 37 0 153c-4 65 -83 44 -83 5c0 -110 1 -148 13 -169c14 -25 66 -31 70 11zM60 283
c107 3 171 4 321 4l1 -138l-322 -1v135z" />
    <glyph glyph-name="ae" unicode="&#xe6;" horiz-adv-x="777" 
d="M101 308c31 24 110 38 207 30c4 13 2 98 -9 108c-26 23 -146 23 -192 13c3 69 0 69 6 140c112 9 260 45 304 -52c39 84 229 81 263 19c22 -40 25 -61 30 -106c5 -46 6 -80 4 -121l-4 -68c-73 -2 -147 0 -219 -1c-1 -32 1 -89 8 -114c8 -28 126 -15 193 -9l-2 -142
c-117 -8 -295 -39 -313 67c-18 -98 -246 -97 -288 -53c-51 52 -60 234 12 289zM597 386v55c0 27 -21 38 -48 38c-62 0 -56 -59 -55 -98c38 3 64 2 103 5zM290 215c-36 24 -79 0 -97 -15c-14 -12 -24 -62 6 -69c41 -9 76 7 93 40c0 0 6 38 -2 44z" />
    <glyph glyph-name="dotlessi" unicode="&#x131;" horiz-adv-x="322" 
d="M255 581c9 -57 22 -514 23 -579c-101 -4 -86 0 -196 -3c-13 220 -19 374 -18 579c101 2 99 2 191 3z" />
    <glyph glyph-name="lslash" unicode="&#x142;" horiz-adv-x="418" 
d="M72 294c-21 -14 -65 -33 -86 -45c-6 69 -2 106 -6 184c0 0 97 33 97 39c0 22 -5 324 -5 324l163 8v-284c41 18 106 43 115 37c0 0 9 -101 15 -176c-27 -4 -77 -28 -121 -43l8 -150c3 -47 25 -47 56 -47c35 0 16 -2 83 1l7 -156c-139 -14 -223 0 -244 8
c-36 13 -69 62 -71 94c-7 117 -5 198 -11 206z" />
    <glyph glyph-name="oslash" unicode="&#xf8;" horiz-adv-x="478" 
d="M304 452c-9 29 -32 36 -62 35c-31 -1 -41 -37 -43 -62c-4 -49 -3 -96 0 -163c29 57 73 129 105 190zM332 383c-34 -70 -80 -149 -112 -207c7 -44 13 -71 44 -74c32 -6 56 -3 71 41c8 22 6 136 -3 240zM422 651l46 -30c-12 -23 -24 -46 -39 -71c24 -32 43 -107 45 -124
c11 -86 10 -320 -6 -362c-28 -74 -97 -87 -220 -87c-19 0 -98 27 -122 64l-50 -74c-11 -2 -54 36 -51 36c0 0 45 68 61 92c-20 61 -28 169 -29 228c-1 38 -5 110 7 163c13 59 52 84 63 95c14 14 164 52 253 -8z" />
    <glyph glyph-name="oe" unicode="&#x153;" horiz-adv-x="726" 
d="M576 432c-1 36 -28 43 -55 43c-62 0 -48 -56 -49 -95c28 -2 64 -2 105 -3zM282 171c3 30 8 108 1 236c-4 76 -93 61 -95 8c-5 -112 -3 -254 9 -264c26 -21 81 -22 85 20zM663 135l14 -140c-117 -8 -270 -15 -292 49c-37 -48 -96 -52 -135 -52c-78 0 -199 24 -208 105
c-7 65 -8 131 -8 196c-1 68 -8 146 9 212c31 118 145 106 145 106c9 2 158 22 198 -40c64 71 263 42 285 -19c11 -30 20 -51 23 -106c2 -44 3 -68 -1 -121l-4 -52c-85 -2 -142 -4 -211 -5v-61c0 -5 -3 -61 31 -73c48 -17 135 6 154 1z" />
    <glyph glyph-name="germandbls" unicode="&#xdf;" horiz-adv-x="562" 
d="M507 606c0 -92 -25 -147 -45 -192c-28 -65 139 -309 -37 -432c-38 -27 -55 -33 -69 -41l-64 164c24 17 49 51 38 96c-27 110 -50 163 -9 289c46 42 38 103 20 132c-19 30 -39 32 -52 32c-37 0 -53 -45 -54 -74c-2 -84 -5 -334 -5 -526c0 -128 2 -157 -2 -231
c-17 0 -128 -6 -163 -8c2 156 4 455 11 763c2 71 0 140 58 186c50 40 89 49 137 49c54 0 114 -11 176 -72c28 -38 60 -79 60 -135z" />
    <glyph glyph-name="eth" unicode="&#xf0;" horiz-adv-x="553" 
d="M309 215c-1 56 -17 96 -52 95c-42 -2 -51 -24 -52 -46c-1 -15 3 -68 6 -84c9 -47 44 -31 56 -32c24 -2 42 24 42 67zM289 575l-69 -69l-51 34s-47 37 -57 37l76 72c-25 23 -65 41 -107 59l86 128c44 -21 85 -48 127 -72l65 62c56 -38 82 -52 131 -94
c-17 -14 -42 -37 -67 -58c38 -44 80 -139 82 -163c17 -188 0 -262 -30 -381c-17 -43 -65 -150 -289 -130c-109 35 -135 127 -142 224c-4 49 6 104 25 151c23 56 149 133 272 24c0 0 2 55 -7 88c-10 38 -21 58 -45 88z" />
    <glyph glyph-name="Scaron" unicode="&#x160;" horiz-adv-x="468" 
d="M252 793l-218 164c41 40 65 39 110 75c35 -22 59 -52 110 -88c34 23 56 47 110 89l86 -62c-56 -46 -81 -83 -140 -127c-14 -10 -20 -25 -58 -51zM390 385c73 -118 81 -254 -27 -338c-77 -60 -145 -53 -336 -54l4 167c21 1 37 0 65 1c50 2 111 -2 135 46
c14 46 -9 71 -25 95c-16 25 -49 53 -70 75c-42 46 -71 85 -75 138c-6 66 8 157 114 221c45 27 113 38 249 47l25 -169c-37 -4 -67 -9 -84 -11c-20 -3 -41 -10 -54 -17c-24 -14 -20 -74 6 -105c31 -36 49 -58 73 -96z" />
    <glyph glyph-name="scaron" unicode="&#x161;" horiz-adv-x="451" 
d="M177 268c-8 8 -66 51 -74 107c-9 60 -11 81 26 138c28 43 98 76 138 85c33 8 101 25 113 18c14 -8 38 -137 38 -137c-46 -13 -34 -3 -66 -13c-39 -12 -66 -25 -58 -66c8 -42 39 -53 75 -93c37 -41 60 -75 59 -142c-1 -66 -41 -162 -192 -179c-40 -4 -56 -12 -140 -11
l-11 152c72 5 41 0 82 6c29 4 66 6 68 43c3 49 -31 65 -58 92zM258 627l-224 178c40 30 69 61 105 88c19 -7 72 -63 117 -100c26 17 107 96 118 105l102 -90c-49 -41 -80 -67 -131 -112c-12 -11 -47 -47 -87 -69z" />
    <glyph glyph-name="Yacute" unicode="&#xdd;" horiz-adv-x="664" 
d="M371 1c-11 0 -66 -1 -122 -1l-8 407l-87 111l-143 146c37 32 67 72 124 121c67 -61 123 -141 190 -214c60 65 119 141 187 209l141 -107l-232 -254l18 -417s2 -4 -68 -1zM504 926c-33 -49 -90 -141 -126 -192l-107 47c27 61 61 174 84 224z" />
    <glyph glyph-name="yacute" unicode="&#xfd;" horiz-adv-x="596" 
d="M162 -35c14 46 57 163 69 222c-7 24 -69 127 -116 218c-12 24 -46 65 -78 147c71 32 76 39 147 60c19 -33 69 -125 69 -125c21 -38 57 -112 65 -115c39 92 47 166 81 238c27 -3 55 -14 86 -22c26 -7 35 -10 80 -21c-52 -144 -106 -283 -152 -413
c-45 -125 -76 -226 -118 -341c-59 9 -100 18 -174 36c17 36 30 78 41 116zM454 822c-33 -49 -90 -141 -126 -192l-107 47c27 61 61 174 84 224z" />
    <glyph glyph-name="Thorn" unicode="&#xde;" horiz-adv-x="563" 
d="M223 608l4 -43c119 38 180 36 217 14c54 -26 70 -78 79 -122c5 -24 6 -49 5 -77s1 -63 1 -92c-1 -34 -2 -72 -9 -114c-7 -40 -24 -78 -53 -97c-34 -21 -103 -55 -202 -15l4 -99l-226 -3c2 125 -9 366 -13 643c86 4 121 6 193 5zM245 414l14 -224c13 -20 28 -20 58 -18
s30 34 30 40s1 101 -6 194c2 27 -8 54 -34 54c-30 0 -65 -1 -62 -46z" />
    <glyph glyph-name="thorn" unicode="&#xfe;" horiz-adv-x="572" 
d="M439 604c95 -39 90 -179 93 -212c1 -13 6 -81 6 -111c-1 -36 -6 -104 -11 -159c-8 -85 -34 -90 -58 -110c-32 -27 -111 -61 -211 -14c6 -84 3 -134 4 -187l-220 -5c-5 256 -4 519 -12 989c96 -4 118 6 199 0c1 -87 12 -151 12 -216c126 65 149 38 198 25zM340 404
c-3 88 -75 52 -87 21l6 -264c7 -19 19 -29 28 -34c21 -10 31 -14 45 12c24 46 12 171 8 265z" />
    <glyph glyph-name="Zcaron" unicode="&#x17d;" horiz-adv-x="578" 
d="M275 719l-232 185c40 40 65 57 108 93c35 -22 77 -48 126 -84c32 23 56 51 107 93l122 -108c-53 -46 -110 -94 -168 -135c-13 -9 -26 -18 -63 -44zM37 687c39 3 61 5 64 5c561 0 258 11 434 2c-51 -155 -113 -292 -190 -494c68 2 106 1 185 7c11 -114 15 -127 22 -204
c-186 -11 -315 -4 -519 -3c42 166 111 351 173 507c-76 -1 -80 -1 -173 -1c2 72 8 91 4 181z" />
    <glyph glyph-name="zcaron" unicode="&#x17e;" horiz-adv-x="516" 
d="M33 428c1 46 -11 109 -1 168c119 3 173 -2 237 -1l147 2c-2 -9 -10 -25 -11 -42c-30 -138 -67 -255 -111 -384c107 -8 170 -7 175 -7c10 0 12 -84 15 -108c2 -18 2 -35 2 -52c-164 -3 -236 -6 -416 -4c0 7 0 18 2 27c30 119 70 253 113 399c-60 1 -89 1 -152 2zM303 633
l-248 198c40 30 87 87 129 114c19 -7 68 -75 113 -112c26 17 101 92 112 101l118 -112c-49 -41 -84 -69 -135 -114c-12 -11 -49 -53 -89 -75z" />
    <glyph glyph-name="onehalf" unicode="&#xbd;" horiz-adv-x="889" 
d="M268 274c-11 0 -100 4 -144 0c0 190 9 368 6 383c-21 -13 -70 -50 -68 -48c-18 37 -24 65 -44 91l148 107l108 4c6 -209 -4 -425 -6 -537zM772 258c0 0 -45 -37 -62 -68c-9 -17 -18 -46 -18 -46c104 -4 121 -1 164 -2c5 -38 -1 -102 4 -142c-19 0 -273 1 -308 -2
c-2 117 2 86 2 144c10 53 52 120 84 146c16 14 56 50 68 60c14 12 23 59 -8 78c-35 21 -105 -60 -104 -58l-68 86c42 42 98 104 172 104c48 0 86 -7 114 -44c10 -13 73 -73 28 -166c-21 -42 -68 -90 -68 -90zM217 15l60 184c67 204 95 373 216 641l133 -61
c-45 -93 -66 -157 -83 -206c-9 -24 -189 -599 -201 -628z" />
    <glyph glyph-name="onequarter" unicode="&#xbc;" horiz-adv-x="882" 
d="M270 276c-11 0 -100 2 -144 -2c0 190 7 368 4 383c-21 -13 -70 -50 -68 -48c-18 37 -24 65 -44 91l148 107l100 4c6 -209 6 -423 4 -535zM205 19l68 180c76 201 105 373 226 641l117 -61c-37 -101 -59 -157 -77 -206c-11 -31 -195 -585 -209 -620zM850 241l-1 -112
c-10 -1 -20 1 -63 1v-130c-38 0 -71 2 -117 1c0 36 0 41 -1 128l-211 2c0 10 1 55 2 83c31 75 143 305 166 329c31 -1 105 0 153 0l7 -301c43 -1 57 0 65 -1zM667 386c-23 -64 -36 -74 -68 -146c27 0 20 2 71 2c-1 50 -7 88 -3 144z" />
    <glyph glyph-name="onesuperior" unicode="&#xb9;" horiz-adv-x="412" 
d="M265 258c-11 0 -98 4 -142 0c0 190 11 385 8 400c-21 -13 -70 -38 -68 -36c-18 37 -25 58 -45 84l130 85l114 -1c6 -209 5 -420 3 -532z" />
    <glyph glyph-name="threequarters" unicode="&#xbe;" horiz-adv-x="849" 
d="M306 464c7 -68 -3 -123 -25 -166c-23 -44 -94 -67 -116 -63c-79 3 -94 38 -150 75l60 99c40 -28 58 -45 75 -47c27 -2 52 7 51 50c-5 40 -9 56 -69 59l-35 2l1 105c73 1 108 19 105 66c-3 44 -32 43 -57 36c-16 -4 -19 -5 -59 -33l-62 97c52 43 57 60 136 63
c28 6 97 -12 127 -69c22 -43 27 -78 12 -145c-5 -23 -27 -43 -61 -57c28 -12 64 -41 67 -72zM201 11l68 182l218 641l117 -57c-45 -93 -60 -157 -77 -206c-9 -24 -197 -595 -209 -624zM832 249l-7 -126c-10 -1 -16 -1 -59 -1v-130c-38 0 -79 0 -125 -1c0 36 0 41 -1 128
l-211 -2c0 10 5 63 6 91c31 75 155 311 178 335c31 -1 93 2 141 2l9 -293c43 -1 61 -2 69 -3zM643 380c-23 -64 -30 -60 -62 -132c27 0 10 -2 61 -2c-1 50 -3 78 1 134z" />
    <glyph glyph-name="threesuperior" unicode="&#xb3;" horiz-adv-x="437" 
d="M215 220c-43 2 -77 8 -107 21c-25 11 -53 23 -75 38l61 106c19 -17 66 -32 78 -35c42 -9 73 19 75 57c1 15 -10 59 -41 68c-16 1 -27 6 -72 7v108l55 3c38 2 56 42 54 65c-4 37 -26 52 -49 55c-18 2 -64 -19 -93 -35l-62 92c84 64 165 69 224 57c39 -8 77 -45 88 -71
c26 -64 32 -167 -46 -213c102 -57 63 -205 37 -250c-24 -42 -87 -75 -127 -73z" />
    <glyph glyph-name="twosuperior" unicode="&#xb2;" horiz-adv-x="460" 
d="M237 464c0 -1 37 34 5 -1l-24 -63c180 -6 182 4 187 -2c1 0 -3 -74 6 -141h-353c-2 77 11 144 21 191c14 26 31 47 62 84c21 25 38 36 62 52c-8 3 98 76 7 108c-38 13 -117 -82 -117 -82s-38 55 -56 95c25 21 116 112 174 108c82 -6 103 -7 140 -51
c38 -45 46 -92 28 -148c-15 -47 -47 -59 -82 -94c-23 -23 -33 -33 -60 -56z" />
    <glyph glyph-name="brokenbar" unicode="&#xa6;" horiz-adv-x="450" 
d="M348 795l2 -348h-246c-4 113 -3 180 -3 352c103 -3 150 -2 247 -4zM347 348l2 -347h-246c-4 113 -3 180 -3 351c102 -2 150 -2 247 -4z" />
    <glyph glyph-name="minus" unicode="&#x2212;" horiz-adv-x="575" 
d="M63 500c145 1 229 1 447 1c0 -38 0 -160 -2 -197l-445 -1v197z" />
    <glyph glyph-name="multiply" unicode="&#xd7;" horiz-adv-x="557" 
d="M464 312c-21 -18 -80 -74 -106 -99l-89 82l-84 -84c-24 19 -91 88 -112 107c19 24 44 44 88 88l-94 86l110 108c12 -9 74 -75 96 -97c41 42 65 72 86 93c28 -25 84 -82 105 -104l-88 -93c48 -47 71 -64 88 -87z" />
    <glyph glyph-name="Adieresis" unicode="&#xc4;" horiz-adv-x="602" 
d="M326 716l94 -2l181 -713l-200 -2c-12 61 -16 62 -31 117c-41 -1 -98 -5 -136 -2l-30 -114c-81 0 -107 -2 -203 1l173 706l75 5c12 -2 36 5 77 4zM257 280c-2 0 57 -2 94 0l-54 226c-27 -91 -38 -226 -40 -226zM246 913c36 -23 33 -82 10 -115c-66 -59 -153 -7 -139 63
c15 76 87 79 129 52zM446 914c36 -23 33 -82 10 -115c-66 -59 -149 -10 -135 60c15 76 83 82 125 55z" />
    <glyph glyph-name="Aring" unicode="&#xc5;" horiz-adv-x="602" 
d="M601 -2c-29 0 -188 -1 -202 0l-34 123l-130 -1c-27 -81 -27 -88 -36 -121c-32 8 -157 -4 -198 1c11 66 154 534 171 613c-30 20 -68 91 -61 133c14 84 90 135 175 133c101 -3 181 -48 181 -140c0 -38 -31 -100 -58 -121l109 -336c26 -79 65 -203 83 -284zM332 723
c0 22 -15 41 -36 41s-38 -15 -38 -37c0 -21 3 -37 30 -46c21 0 44 13 44 42zM339 283l-43 268l-53 -268h96z" />
    <glyph glyph-name="Ccedilla" unicode="&#xc7;" horiz-adv-x="498" 
d="M94 -155l95 159c-60 12 -106 45 -118 92c-30 119 -39 340 -1 561c11 66 58 98 121 116c54 23 150 29 267 24l-9 -180c-69 0 -174 9 -202 -64c-14 -148 -15 -176 -6 -312c6 -97 146 -84 205 -79c-2 -39 13 -121 10 -176c-22 0 -86 -6 -131 0c0 0 -66 -199 -78 -209
c-15 4 -137 60 -153 68z" />
    <glyph glyph-name="Eacute" unicode="&#xc9;" horiz-adv-x="519" 
d="M241 557l-4 -112c56 -3 130 7 199 7c-2 -68 10 -94 10 -166l-211 -7c2 -43 3 -66 5 -109c89 5 181 6 245 0c-2 -73 5 -106 4 -174c-150 -10 -269 -5 -435 -10c-10 260 3 475 4 736c164 7 262 3 435 7c-9 -66 -11 -87 -17 -168zM406 940c-34 -50 -83 -128 -121 -173
l-97 49c26 58 53 146 76 199z" />
    <glyph glyph-name="Ntilde" unicode="&#xd1;" horiz-adv-x="676" 
d="M240 393c3 -131 -9 -320 -6 -393h-182l8 727l187 -6c43 -71 111 -214 195 -366l1 368l177 4c6 -277 6 -441 -5 -725c-85 -4 -114 0 -181 0c-29 60 -120 250 -194 391zM531 840c-35 -55 -100 -80 -142 -80c-49 0 -75 47 -109 47c-20 -8 -39 -19 -56 -47l-84 84
c27 42 91 91 131 91c49 0 69 -57 103 -57c18 0 54 23 81 52z" />
    <glyph glyph-name="Odieresis" unicode="&#xd6;" horiz-adv-x="542" 
d="M502 505c7 -88 8 -397 -25 -460c-22 -41 -92 -54 -144 -62c-73 -1 -207 -11 -248 55c-42 67 -43 245 -46 316c-6 125 -10 308 76 354c48 26 273 53 327 -8c45 -51 55 -131 60 -195zM327 191c0 133 5 234 -8 359c-5 44 -37 37 -68 35c-28 -8 -21 -43 -25 -73
c-1 -116 5 -168 12 -337c1 -25 19 -42 44 -34c37 3 45 21 45 50zM220 917c36 -23 33 -82 10 -115c-66 -59 -153 -7 -139 63c15 76 87 79 129 52zM407 921c36 -23 37 -82 14 -115c-66 -59 -149 -10 -135 60c15 76 79 82 121 55z" />
    <glyph glyph-name="Udieresis" unicode="&#xdc;" horiz-adv-x="573" 
d="M240 916c36 -23 33 -82 10 -115c-66 -59 -153 -7 -139 63c15 76 87 79 129 52zM437 917c36 -23 33 -82 10 -115c-66 -59 -149 -10 -135 60c15 76 83 82 125 55zM539 735c2 -222 -4 -71 -1 -295c2 -119 -13 -317 -33 -350c-36 -75 -119 -96 -199 -107
c-189 1 -241 59 -260 199c-7 49 -7 113 -9 145c-6 121 -7 215 1 412l177 -1l-3 -409c-1 -83 22 -179 76 -178c51 1 65 75 66 157l3 429z" />
    <glyph glyph-name="aacute" unicode="&#xe1;" 
d="M260 472c-47 13 -126 19 -144 13c-5 39 -5 94 -3 127c70 1 119 5 171 0c67 -6 115 -23 140 -51c26 -29 36 -72 38 -90c7 -66 12 -148 15 -186c8 -93 11 -189 18 -282c-58 -8 -92 -11 -136 -15c-2 12 -3 29 -4 51c-67 -32 -184 -68 -255 -14c-80 61 -64 214 -23 262
c35 41 124 53 250 56l-4 58c-2 36 -24 60 -63 71zM330 224c-69 -3 -103 -4 -121 -19c-14 -12 -32 -64 9 -72s74 7 116 23zM441 843c-33 -49 -90 -141 -126 -192l-107 47c27 61 61 174 84 224z" />
    <glyph glyph-name="agrave" unicode="&#xe0;" 
d="M260 472c-47 13 -126 19 -144 13c-5 39 -5 94 -3 127c70 1 119 5 171 0c67 -6 115 -23 140 -51c26 -29 36 -72 38 -90c7 -66 12 -148 15 -186c8 -93 11 -189 18 -282c-58 -8 -92 -11 -136 -15c-2 12 -3 29 -4 51c-67 -32 -184 -68 -255 -14c-80 61 -64 214 -23 262
c35 41 124 53 250 56l-4 58c-2 36 -24 60 -63 71zM330 224c-69 -3 -103 -4 -121 -19c-14 -12 -32 -64 9 -72s74 7 116 23zM100 842l138 88c47 -68 57 -168 92 -216l-90 -55c-26 35 -43 56 -61 79c-13 17 -47 63 -79 104z" />
    <glyph glyph-name="acircumflex" unicode="&#xe2;" 
d="M260 472c-47 13 -126 19 -144 13c-5 39 -5 94 -3 127c70 1 119 5 171 0c67 -6 115 -23 140 -51c26 -29 36 -72 38 -90c7 -66 12 -148 15 -186c8 -93 11 -189 18 -282c-58 -8 -92 -11 -136 -15c-2 12 -3 29 -4 51c-67 -32 -184 -68 -255 -14c-80 61 -64 214 -23 262
c35 41 124 53 250 56l-4 58c-2 36 -24 60 -63 71zM330 224c-69 -3 -103 -4 -121 -19c-14 -12 -32 -64 9 -72s74 7 116 23zM189 659c-42 27 -61 55 -101 85l216 165c74 -61 117 -107 197 -164l-101 -92c-44 37 -73 73 -104 98c-44 -35 -81 -72 -107 -92z" />
    <glyph glyph-name="adieresis" unicode="&#xe4;" 
d="M260 472c-47 13 -126 19 -144 13c-5 39 -5 94 -3 127c70 1 119 5 171 0c67 -6 115 -23 140 -51c26 -29 36 -72 38 -90c7 -66 12 -148 15 -186c8 -93 11 -189 18 -282c-58 -8 -92 -11 -136 -15c-2 12 -3 29 -4 51c-67 -32 -184 -68 -255 -14c-80 61 -64 214 -23 262
c35 41 124 53 250 56l-4 58c-2 36 -24 60 -63 71zM330 224c-69 -3 -103 -4 -121 -19c-14 -12 -32 -64 9 -72s74 7 116 23zM223 793c36 -23 33 -82 10 -115c-66 -59 -153 -7 -139 63c15 76 87 79 129 52zM417 796c36 -23 33 -82 10 -115c-66 -59 -149 -10 -135 60
c15 76 83 82 125 55z" />
    <glyph glyph-name="atilde" unicode="&#xe3;" horiz-adv-x="521" 
d="M320 416c-3 36 -21 46 -60 56c0 0 -29 8 -83 8c-24 0 -47 -2 -65 -8c0 64 5 72 1 140c70 1 119 5 171 0c67 -6 115 -23 140 -51c26 -29 34 -72 38 -90c12 -56 8 -150 11 -188l22 -280c-62 -1 -80 0 -128 -1c-6 15 -3 25 -15 62c-37 -46 -163 -75 -248 -47
c-80 61 -57 259 -23 286c42 33 96 78 248 19zM308 219c-32 16 -81 1 -99 -14c-14 -12 -31 -60 9 -72s85 7 93 42c0 0 9 38 -3 44zM480 751c-35 -55 -102 -104 -144 -104c-49 0 -89 39 -123 39c-20 -8 -45 -13 -66 -41l-96 80c32 51 97 99 147 99c49 0 95 -43 129 -43
c18 0 46 19 73 48z" />
    <glyph glyph-name="aring" unicode="&#xe5;" 
d="M260 472c-47 13 -126 19 -144 13c-5 39 -5 94 -3 127c70 1 119 5 171 0c67 -6 115 -23 140 -51c26 -29 36 -72 38 -90c7 -66 12 -148 15 -186c8 -93 11 -189 18 -282c-58 -8 -92 -11 -136 -15c-2 12 -3 29 -4 51c-67 -32 -184 -68 -255 -14c-80 61 -64 214 -23 262
c35 41 124 53 250 56l-4 58c-2 36 -24 60 -63 71zM330 224c-69 -3 -103 -4 -121 -19c-14 -12 -32 -64 9 -72s74 7 116 23zM410 798c2 -44 -16 -98 -41 -116c-39 -36 -126 -42 -180 -9c-27 17 -59 63 -52 128c8 80 71 132 139 127c65 -4 130 -39 134 -130zM311 788
c-2 24 -19 40 -38 40s-43 -12 -40 -45c3 -29 14 -31 38 -35c16 0 42 17 40 40z" />
    <glyph glyph-name="ccedilla" unicode="&#xe7;" horiz-adv-x="438" 
d="M204 296c3 -34 3 -78 20 -115c47 -39 92 -38 124 -42c13 -2 26 1 37 0c5 -68 11 -83 17 -151c-44 0 -85 4 -126 8c-49 5 -65 5 -103 16c-60 17 -116 67 -128 162c-7 56 -8 165 -7 212c1 49 6 70 32 117c42 75 179 116 330 100l-14 -84l-11 -74c-68 5 -120 0 -160 -25
c-23 -31 -14 -91 -11 -124zM314 1c0 0 -72 -207 -84 -217c-23 4 -131 62 -147 70l89 168s166 -24 142 -21z" />
    <glyph glyph-name="eacute" unicode="&#xe9;" horiz-adv-x="471" 
d="M206 164c11 -24 82 -34 183 -27l11 -136c-176 -5 -260 -9 -315 53c-58 66 -54 255 -48 348c5 83 19 177 124 202c192 18 226 -20 247 -55c13 -22 23 -57 26 -98s7 -62 3 -115l-5 -67c-87 -2 -165 6 -237 5c0 0 -4 -76 11 -110zM196 378l102 2c3 45 -2 58 0 58
s-2 38 -54 36c-56 -2 -42 -38 -44 -38s-5 -16 -4 -58zM407 840c-33 -49 -90 -141 -126 -192l-107 47c27 61 61 174 84 224z" />
    <glyph glyph-name="egrave" unicode="&#xe8;" horiz-adv-x="471" 
d="M206 164c11 -24 82 -34 183 -27l11 -136c-176 -5 -260 -9 -315 53c-58 66 -54 255 -48 348c5 83 19 177 124 202c192 18 226 -20 247 -55c13 -22 23 -57 26 -98s7 -62 3 -115l-5 -67c-87 -2 -165 6 -237 5c0 0 -4 -76 11 -110zM196 378l102 2c3 45 -2 58 0 58
s-2 38 -54 36c-56 -2 -42 -38 -44 -38s-5 -16 -4 -58zM224 833l138 88c47 -68 57 -168 92 -216l-90 -55c-26 35 -43 56 -61 79c-13 17 -47 63 -79 104z" />
    <glyph glyph-name="ecircumflex" unicode="&#xea;" horiz-adv-x="471" 
d="M206 164c11 -24 82 -34 183 -27l11 -136c-176 -5 -260 -9 -315 53c-58 66 -54 255 -48 348c5 83 19 177 124 202c192 18 226 -20 247 -55c13 -22 23 -57 26 -98s7 -62 3 -115l-5 -67c-87 -2 -165 6 -237 5c0 0 -4 -76 11 -110zM196 378l102 2c3 45 -2 58 0 58
s-2 38 -54 36c-56 -2 -42 -38 -44 -38s-5 -16 -4 -58zM167 662c-42 27 -61 55 -101 85l216 165c74 -61 117 -107 197 -164l-101 -92c-44 37 -73 73 -104 98c-44 -35 -81 -72 -107 -92z" />
    <glyph glyph-name="edieresis" unicode="&#xeb;" horiz-adv-x="471" 
d="M206 164c11 -24 82 -34 183 -27l11 -136c-176 -5 -260 -9 -315 53c-58 66 -54 255 -48 348c5 83 19 177 124 202c192 18 226 -20 247 -55c13 -22 23 -57 26 -98s7 -62 3 -115l-5 -67c-87 -2 -165 6 -237 5c0 0 -4 -76 11 -110zM196 378l102 2c3 45 -2 58 0 58
s-2 38 -54 36c-56 -2 -42 -38 -44 -38s-5 -16 -4 -58zM192 793c36 -23 33 -82 10 -115c-66 -59 -153 -7 -139 63c15 76 87 79 129 52zM386 796c36 -23 33 -82 10 -115c-66 -59 -149 -10 -135 60c15 76 83 82 125 55z" />
    <glyph glyph-name="iacute" unicode="&#xed;" horiz-adv-x="322" 
d="M255 581c9 -57 22 -514 23 -579c-101 -4 -86 0 -196 -3c-13 220 -19 374 -18 579c101 2 99 2 191 3zM321 843c-33 -49 -90 -141 -126 -192l-107 47c27 61 61 174 84 224z" />
    <glyph glyph-name="igrave" unicode="&#xec;" horiz-adv-x="357" 
d="M269 585c9 -57 22 -518 23 -583c-101 -4 -86 0 -196 -3c-13 221 -19 377 -18 583c101 2 99 2 191 3zM12 846l164 55c32 -76 37 -165 61 -220l-106 -44c-32 39 -42 71 -57 89c-13 16 -40 74 -62 120z" />
    <glyph glyph-name="icircumflex" unicode="&#xee;" horiz-adv-x="380" 
d="M299 581c9 -57 22 -514 23 -579c-101 -4 -86 0 -196 -3c-13 220 -19 374 -18 579c101 2 99 2 191 3zM83 627c-42 27 -61 55 -101 85l216 165c74 -61 117 -107 197 -164l-101 -92c-44 37 -73 73 -104 98c-44 -35 -81 -72 -107 -92z" />
    <glyph glyph-name="idieresis" unicode="&#xef;" horiz-adv-x="340" 
d="M266 581c9 -57 22 -514 23 -579c-101 -4 -86 0 -196 -3c-13 220 -19 374 -18 579c101 2 99 2 191 3zM130 776c36 -23 33 -82 10 -115c-66 -59 -153 -7 -139 63c15 76 87 79 129 52zM316 779c36 -23 33 -82 10 -115c-66 -59 -149 -10 -135 60c15 76 83 82 125 55z" />
    <glyph glyph-name="ntilde" unicode="&#xf1;" horiz-adv-x="546" 
d="M431 584c64 -42 71 -96 74 -182c1 -24 0 -71 0 -97c0 -51 -4 -208 -7 -307l-160 3c2 125 5 213 -1 327c0 0 8 91 -35 91c-31 0 -81 -33 -81 -33l-3 -176s-5 -53 -4 -209c-99 -3 -66 1 -168 1v294l-1 289c92 6 72 13 158 18l2 -82c60 84 172 76 226 63zM474 762
c-35 -55 -102 -104 -144 -104c-49 0 -89 39 -123 39c-20 -8 -45 -13 -66 -41l-96 80c32 51 97 99 147 99c49 0 95 -43 129 -43c18 0 46 19 73 48z" />
    <glyph glyph-name="oacute" unicode="&#xf3;" horiz-adv-x="517" 
d="M273 -14c-81 -2 -186 1 -205 88c-14 64 -34 258 -32 325c2 72 0 97 37 138c40 44 73 51 186 53c127 2 160 -40 175 -58c39 -47 44 -138 47 -268c3 -94 -10 -163 -21 -190c-25 -62 -79 -86 -187 -88zM203 396c0 -2 2 -94 18 -202c5 -32 3 -52 51 -53c0 0 44 -5 42 47
c0 0 8 36 -9 212c-3 34 -19 46 -41 49c-19 3 -69 -1 -61 -53zM422 849c-33 -49 -90 -141 -126 -192l-107 47c27 61 61 174 84 224z" />
    <glyph glyph-name="ograve" unicode="&#xf2;" horiz-adv-x="517" 
d="M273 -14c-81 -2 -186 1 -205 88c-14 64 -34 258 -32 325c2 72 0 97 37 138c40 44 73 51 186 53c127 2 160 -40 175 -58c39 -47 44 -138 47 -268c3 -94 -10 -163 -21 -190c-25 -62 -79 -86 -187 -88zM203 396c0 -2 2 -94 18 -202c5 -32 3 -52 51 -53c0 0 44 -5 42 47
c0 0 8 36 -9 212c-3 34 -19 46 -41 49c-19 3 -69 -1 -61 -53zM239 842l138 88c47 -68 57 -168 92 -216l-90 -55c-26 35 -43 56 -61 79c-13 17 -47 63 -79 104z" />
    <glyph glyph-name="ocircumflex" unicode="&#xf4;" horiz-adv-x="517" 
d="M273 -14c-81 -2 -186 1 -205 88c-14 64 -34 258 -32 325c2 72 0 97 37 138c40 44 73 51 186 53c127 2 160 -40 175 -58c39 -47 44 -138 47 -268c3 -94 -10 -163 -21 -190c-25 -62 -79 -86 -187 -88zM203 396c0 -2 2 -94 18 -202c5 -32 3 -52 51 -53c0 0 44 -5 42 47
c0 0 8 36 -9 212c-3 34 -19 46 -41 49c-19 3 -69 -1 -61 -53zM170 632c-42 27 -61 55 -101 85l216 165c74 -61 117 -107 197 -164l-101 -92c-44 37 -73 73 -104 98c-44 -35 -81 -72 -107 -92z" />
    <glyph glyph-name="odieresis" unicode="&#xf6;" horiz-adv-x="517" 
d="M273 -14c-81 -2 -186 1 -205 88c-14 64 -34 258 -32 325c2 72 0 97 37 138c40 44 73 51 186 53c127 2 160 -40 175 -58c39 -47 44 -138 47 -268c3 -94 -10 -163 -21 -190c-25 -62 -79 -86 -187 -88zM203 396c0 -2 2 -94 18 -202c5 -32 3 -52 51 -53c0 0 44 -5 42 47
c0 0 8 36 -9 212c-3 34 -19 46 -41 49c-19 3 -69 -1 -61 -53zM207 788c36 -23 33 -82 10 -115c-66 -59 -153 -7 -139 63c15 76 87 79 129 52zM401 791c36 -23 33 -82 10 -115c-66 -59 -149 -10 -135 60c15 76 83 82 125 55z" />
    <glyph glyph-name="otilde" unicode="&#xf5;" horiz-adv-x="517" 
d="M273 -14c-81 -2 -186 1 -205 88c-14 64 -34 258 -32 325c2 72 0 97 37 138c40 44 73 51 186 53c127 2 160 -40 175 -58c39 -47 44 -138 47 -268c3 -94 -10 -163 -21 -190c-25 -62 -79 -86 -187 -88zM203 396c0 -2 2 -94 18 -202c5 -32 3 -52 51 -53c0 0 44 -5 42 47
c0 0 8 36 -9 212c-3 34 -19 46 -41 49c-19 3 -69 -1 -61 -53zM465 767c-35 -55 -102 -104 -144 -104c-49 0 -89 39 -123 39c-20 -8 -45 -13 -66 -41l-96 80c32 51 97 99 147 99c49 0 95 -43 129 -43c18 0 46 19 73 48z" />
    <glyph glyph-name="uacute" unicode="&#xfa;" horiz-adv-x="577" 
d="M510 593c3 -142 11 -454 9 -603l-165 3l-12 60c-75 -38 -165 -67 -221 -20c-36 31 -35 31 -53 71c-20 81 -17 151 -18 236c-1 78 -7 177 -8 256l173 -14s13 -342 15 -359c4 -30 12 -56 54 -57c44 -1 61 22 63 72c5 106 -1 347 -1 347s74 6 164 8zM441 854
c-33 -49 -90 -141 -126 -192l-107 47c27 61 61 174 84 224z" />
    <glyph glyph-name="ugrave" unicode="&#xf9;" horiz-adv-x="577" 
d="M510 593c3 -142 11 -454 9 -603l-165 3l-12 60c-75 -38 -165 -67 -221 -20c-36 31 -35 31 -53 71c-20 81 -17 151 -18 236c-1 78 -7 177 -8 256l173 -14s13 -342 15 -359c4 -30 12 -56 54 -57c44 -1 61 22 63 72c5 106 -1 347 -1 347s74 6 164 8zM258 847l138 88
c47 -68 57 -168 92 -216l-90 -55c-26 35 -43 56 -61 79c-13 17 -47 63 -79 104z" />
    <glyph glyph-name="ucircumflex" unicode="&#xfb;" horiz-adv-x="577" 
d="M510 593c3 -142 11 -454 9 -603l-165 3l-12 60c-75 -38 -165 -67 -221 -20c-36 31 -35 31 -53 71c-20 81 -17 151 -18 236c-1 78 -7 177 -8 256l173 -14s13 -342 15 -359c4 -30 12 -56 54 -57c44 -1 61 22 63 72c5 106 -1 347 -1 347s74 6 164 8zM189 680
c-42 27 -61 55 -101 85l216 165c74 -61 117 -107 197 -164l-101 -92c-44 37 -73 73 -104 98c-44 -35 -81 -72 -107 -92z" />
    <glyph glyph-name="udieresis" unicode="&#xfc;" horiz-adv-x="577" 
d="M510 593c3 -142 11 -454 9 -603l-165 3l-12 60c-75 -38 -165 -67 -221 -20c-36 31 -35 31 -53 71c-20 81 -17 151 -18 236c-1 78 -7 177 -8 256l173 -14s13 -342 15 -359c4 -30 12 -56 54 -57c44 -1 61 22 63 72c5 106 -1 347 -1 347s74 6 164 8zM226 793
c36 -23 33 -82 10 -115c-66 -59 -153 -7 -139 63c15 76 87 79 129 52zM420 796c36 -23 33 -82 10 -115c-66 -59 -149 -10 -135 60c15 76 83 82 125 55z" />
    <glyph glyph-name="degree" unicode="&#xb0;" horiz-adv-x="350" 
d="M168 826c108 0 146 -72 146 -132c0 -86 -51 -138 -127 -140c-98 -3 -149 43 -151 141c-1 50 12 131 132 131zM203 691c0 20 -15 34 -34 34s-34 -14 -34 -34c0 -19 4 -33 34 -41c19 0 34 22 34 41z" />
    <glyph glyph-name="registered" unicode="&#xae;" horiz-adv-x="680" 
d="M649 368c0 -73 -8 -154 -22 -205c-33 -116 -154 -169 -258 -170c-110 -2 -250 26 -299 141c-20 48 -36 139 -38 181c-7 117 15 201 39 257c47 109 183 155 303 146c53 -4 113 -28 160 -59c56 -38 86 -103 96 -149c17 -76 19 -97 19 -142zM487 189c20 43 23 75 22 140
c-3 143 -20 171 -26 186c-16 39 -62 82 -116 86c-68 4 -139 -5 -165 -68c-20 -47 -38 -73 -34 -166c1 -36 3 -44 4 -79c4 -34 6 -72 20 -105c17 -40 82 -73 176 -72c59 1 102 41 119 78zM463 194l-71 -32c-7 12 -55 121 -61 128c-2 -19 1 -107 0 -128c-26 0 -56 -2 -79 -1
c-1 129 -7 267 -4 389c44 -2 140 11 163 -12c4 -4 36 -23 42 -77c5 -50 0 -72 -14 -116c-9 -14 -17 -29 -27 -33zM370 432c2 18 -12 24 -19 35c-3 3 -19 4 -24 2c2 -31 0 -54 2 -102c19 2 33 0 36 24z" />
    <glyph glyph-name="copyright" unicode="&#xa9;" horiz-adv-x="726" 
d="M38 369c-2 84 9 160 35 214c57 119 236 163 341 148c142 -21 245 -120 258 -226c10 -77 17 -135 16 -180c-2 -91 -14 -93 -21 -149c-34 -105 -180 -184 -277 -184c-104 0 -255 34 -302 139c-7 21 -46 82 -50 238zM509 191c46 80 28 204 16 303c-8 61 -61 113 -142 119
c-74 5 -149 -8 -178 -77c-20 -47 -27 -79 -23 -172c1 -36 8 -57 12 -91c5 -34 14 -56 28 -89c14 -32 75 -63 158 -62c69 0 123 42 129 69zM358 446c-12 -42 -8 -88 0 -149c9 -19 17 -36 35 -38c15 -2 32 -2 48 -4c3 -27 6 -63 9 -91c-21 1 -45 1 -69 1c-35 0 -69 6 -91 24
c-14 11 -33 33 -35 52c-10 92 -21 205 7 273c22 54 117 70 177 61c-2 0 -5 -95 -5 -95c-8 -1 -45 2 -61 -11c-15 -13 -14 -20 -15 -23z" />
    <glyph glyph-name="trademark" unicode="&#x2122;" horiz-adv-x="1050" 
d="M944 335c-8 -2 -104 3 -141 3c-5 78 -6 159 -10 190c-15 -29 -92 -146 -92 -146s-66 101 -93 144c0 -40 -1 -174 -3 -198c-37 0 -112 6 -134 8l6 454c8 0 103 3 132 2c14 -26 89 -162 93 -177c44 70 55 102 99 176c35 5 133 3 127 3zM443 664c0 -1 -49 -5 -94 -5
c-1 -121 1 -199 0 -321l-145 3v318c-45 3 -93 2 -101 2c4 32 -5 109 -4 127c58 6 256 5 344 5c1 -20 0 -84 0 -129z" />
    <glyph glyph-name="plusminus" unicode="&#xb1;" horiz-adv-x="594" 
d="M71 202c145 2 213 -2 431 -2c0 -63 6 -99 3 -160l-436 9zM519 375h-139c0 -26 2 -155 1 -135c-33 0 -125 -3 -169 -2l-3 140h-138c-6 37 -3 116 -6 151c18 2 72 10 147 10l-4 132l168 6c1 15 -3 -62 -3 -135h144c3 -45 3 -130 2 -167z" />
    <glyph glyph-name="mu" unicode="&#xb5;" horiz-adv-x="587" 
d="M298 190c31 1 55 22 56 55c0 0 2 76 3 125c1 87 7 218 7 218c123 6 73 6 161 3c7 -220 -4 -380 4 -608c-15 -10 -69 -8 -89 -9l-63 -2l-10 72c-41 -50 -111 -45 -139 20l-11 -256l-156 2c2 53 9 230 8 402c-1 169 -5 341 -6 381l174 -7l10 -339c-9 3 20 -58 51 -57z" />
    <glyph glyph-name="logicalnot" unicode="&#xac;" horiz-adv-x="570" 
d="M30 139l-11 183c143 3 157 0 312 0c38 0 127 -5 206 -6c19 -122 7 -237 8 -361c-80 -4 -86 1 -186 -2c-2 75 0 125 -2 185c-114 2 -179 1 -327 1z" />
    <glyph glyph-name="Agrave" unicode="&#xc0;" horiz-adv-x="602" 
d="M330 708l80 2l191 -709l-206 -2c-12 61 -16 64 -31 119c-41 -1 -90 -5 -128 -6l-32 -112c-81 0 -107 -2 -203 1l175 702l71 5c14 -6 42 -1 83 0zM255 280c-2 0 61 -4 96 0l-48 232c-21 -91 -46 -232 -48 -232zM374 812l-102 -64c-40 65 -83 113 -127 173l140 93
c34 -65 59 -146 89 -202z" />
    <glyph glyph-name="Atilde" unicode="&#xc3;" horiz-adv-x="602" 
d="M326 711l98 1l177 -711l-206 -2c-12 61 -16 64 -31 119c-41 -1 -92 -1 -130 -2l-30 -116c-81 0 -107 -2 -203 1l177 704l71 5c12 -2 36 1 77 1zM255 280c-2 0 61 -4 96 0l-48 232c-21 -91 -46 -232 -48 -232zM492 837c-35 -55 -100 -80 -142 -80c-49 0 -75 47 -109 47
c-20 -8 -39 -19 -56 -47l-84 84c27 42 91 91 131 91c49 0 69 -57 103 -57c18 0 54 23 81 52z" />
    <glyph glyph-name="Otilde" unicode="&#xd5;" horiz-adv-x="544" 
d="M506 507c4 -88 4 -399 -29 -462c-22 -41 -92 -54 -144 -62c-73 -1 -207 -11 -248 55c-42 67 -43 245 -46 316c-6 125 -10 308 76 354c48 26 262 45 325 -6c31 -25 63 -131 66 -195zM327 191c0 133 5 234 -8 359c-5 44 -37 37 -68 35c-28 -8 -21 -43 -25 -73
c-1 -116 5 -168 12 -337c1 -25 19 -42 44 -34c37 3 45 21 45 50zM449 860c-35 -55 -100 -80 -142 -80c-49 0 -75 47 -109 47c-20 -8 -39 -19 -56 -47l-84 84c27 42 91 91 131 91c49 0 69 -57 103 -57c18 0 54 23 81 52z" />
    <glyph glyph-name="divide" unicode="&#xf7;" horiz-adv-x="651" 
d="M67 486c145 3 176 -2 405 -2c0 -63 10 -105 7 -164l-416 -1zM302 274c48 -13 85 -76 42 -165c-104 -79 -195 14 -177 93c19 84 86 85 135 72zM302 712c48 -13 89 -68 46 -157c-104 -79 -199 6 -181 85c19 84 86 85 135 72z" />
    <glyph glyph-name="ydieresis" unicode="&#xff;" horiz-adv-x="596" 
d="M162 -35c14 46 57 163 69 222c-7 24 -69 127 -116 218c-12 24 -46 65 -78 147c71 32 76 39 147 60c19 -33 69 -125 69 -125c21 -38 57 -112 65 -115c39 92 47 166 81 238c27 -3 55 -14 86 -22c26 -7 35 -10 80 -21c-52 -144 -106 -283 -152 -413
c-45 -125 -76 -226 -118 -341c-59 9 -100 18 -174 36c17 36 30 78 41 116zM256 806c36 -23 33 -82 10 -115c-66 -59 -153 -7 -139 63c15 76 87 79 129 52zM450 809c36 -23 33 -82 10 -115c-66 -59 -149 -10 -135 60c15 76 83 82 125 55z" />
    <glyph glyph-name="Ydieresis" unicode="&#x178;" horiz-adv-x="692" 
d="M389 1c-11 0 -70 -1 -126 -1l-6 399l-246 279c39 28 75 78 138 123c67 -59 131 -145 204 -216c60 65 113 151 181 219l147 -103l-232 -302l8 -397s2 -4 -68 -1zM307 931c36 -23 33 -82 10 -115c-66 -59 -153 -7 -139 63c15 76 87 79 129 52zM480 932
c36 -23 37 -82 14 -115c-66 -59 -149 -10 -135 60c15 76 79 82 121 55z" />
    <glyph glyph-name="Acircumflex" unicode="&#xc2;" horiz-adv-x="602" 
d="M332 704h96l173 -703l-206 -2c-12 61 -16 64 -31 119c-41 -1 -92 -1 -130 -2l-30 -116c-81 0 -107 -2 -203 1l173 702l71 -1c12 -2 46 2 87 2zM255 280c-2 0 61 -4 96 0l-48 232c-21 -91 -46 -232 -48 -232zM464 817l-80 -75c-30 29 -52 49 -82 76
c-24 -21 -26 -18 -54 -42l-41 -35c-22 22 -59 52 -78 76l175 139c24 -20 44 -29 71 -56c28 -30 66 -59 89 -83z" />
    <glyph glyph-name="Ecircumflex" unicode="&#xca;" horiz-adv-x="516" 
d="M450 836l-86 -71c-30 29 -66 43 -96 70c-24 -21 -33 -20 -60 -44l-33 -29c-22 22 -71 48 -90 72l181 147c24 -20 60 -41 89 -66c30 -26 72 -55 95 -79zM238 557l-4 -112c56 -3 130 7 199 7c-2 -68 10 -94 10 -166l-211 -7c2 -43 3 -66 5 -109c89 5 181 6 245 0
c-2 -73 5 -106 4 -174c-150 -10 -269 -5 -435 -10c-10 260 3 475 4 736c164 7 262 3 435 7c-9 -66 -11 -87 -17 -168z" />
    <glyph glyph-name="Aacute" unicode="&#xc1;" horiz-adv-x="602" 
d="M328 718h104l169 -717l-206 -2c-12 61 -16 64 -31 119c-41 -1 -92 -1 -130 -2l-30 -116c-81 0 -107 -2 -203 1l177 716l71 1c12 -2 38 0 79 0zM255 280c-2 0 61 -4 96 0l-48 232c-21 -91 -46 -232 -48 -232zM438 921c-38 -47 -92 -121 -133 -164l-90 56
c30 56 56 146 82 197z" />
    <glyph glyph-name="Edieresis" unicode="&#xcb;" horiz-adv-x="519" 
d="M221 933c36 -23 33 -82 10 -115c-66 -59 -153 -7 -139 63c15 76 87 79 129 52zM421 934c36 -23 33 -82 10 -115c-66 -59 -149 -10 -135 60c15 76 83 82 125 55zM241 557l-4 -112c56 -3 130 7 199 7c-2 -68 10 -94 10 -166l-211 -7c2 -43 3 -66 5 -109c89 5 181 6 245 0
c-2 -73 5 -106 4 -174c-150 -10 -269 -5 -435 -10c-10 260 3 475 4 736c164 7 262 3 435 7c-9 -66 -11 -87 -17 -168z" />
    <glyph glyph-name="Egrave" unicode="&#xc8;" horiz-adv-x="518" 
d="M324 830l-102 -64c-40 65 -83 113 -127 173l140 93c34 -65 59 -146 89 -202zM241 557l-4 -112c56 -3 130 7 199 7c-2 -68 10 -94 10 -166l-211 -7c2 -43 3 -66 5 -109c89 5 181 6 245 0c-2 -73 5 -106 4 -174c-150 -10 -269 -5 -435 -10c-10 260 3 475 4 736
c164 7 262 3 435 7c-9 -66 -11 -87 -17 -168z" />
    <glyph glyph-name="Iacute" unicode="&#xcd;" horiz-adv-x="333" 
d="M301 948c-34 -50 -83 -128 -121 -173l-95 49c26 58 55 146 78 199zM67 465c0 160 -7 117 1 264c46 1 175 1 191 1c8 -275 6 -454 7 -730l-203 1s4 365 4 464z" />
    <glyph glyph-name="Icircumflex" unicode="&#xce;" horiz-adv-x="295" 
d="M318 881l-72 -83c-30 29 -70 59 -100 86c-24 -21 -26 -18 -54 -42l-51 -43c-22 22 -51 56 -70 80l177 145c22 -22 39 -30 69 -54c32 -26 78 -63 101 -89zM50 453c0 160 -8 157 2 304c55 8 92 -2 186 2c8 -275 13 -485 14 -761l-197 2s-5 354 -5 453z" />
    <glyph glyph-name="Idieresis" unicode="&#xcf;" horiz-adv-x="313" 
d="M46 461c0 160 -12 139 -2 286c55 2 110 -2 204 2c8 -275 11 -473 12 -749h-213s-1 362 -1 461zM112 935c36 -23 33 -82 10 -115c-66 -59 -153 -7 -139 63c15 76 87 79 129 52zM291 936c36 -23 33 -82 10 -115c-66 -59 -149 -10 -135 60c15 76 83 82 125 55z" />
    <glyph glyph-name="Igrave" unicode="&#xcc;" horiz-adv-x="345" 
d="M83 465c0 160 -7 117 1 264c46 1 175 1 191 1c8 -275 6 -454 7 -730l-203 1s4 365 4 464zM252 839l-84 -67c-45 62 -86 110 -134 167l123 91c31 -60 63 -138 95 -191z" />
    <glyph glyph-name="Oacute" unicode="&#xd3;" horiz-adv-x="543" 
d="M505 507c4 -88 4 -399 -29 -462c-22 -41 -92 -54 -144 -62c-73 -1 -207 -11 -248 55c-42 67 -43 245 -46 316c-6 125 -6 308 80 354c48 26 256 39 319 -12c31 -25 65 -125 68 -189zM326 191c0 133 5 234 -8 359c-5 44 -37 37 -68 35c-28 -8 -21 -43 -25 -73
c-1 -116 5 -168 12 -337c1 -25 19 -42 44 -34c37 3 45 21 45 50zM395 943c-34 -50 -83 -128 -121 -173l-97 49c26 58 57 146 80 199z" />
    <glyph glyph-name="Ocircumflex" unicode="&#xd4;" horiz-adv-x="547" 
d="M507 509c9 -85 2 -401 -31 -464c-22 -41 -92 -54 -144 -62c-73 -1 -207 -11 -248 55c-42 67 -43 245 -46 316c-6 125 -8 302 78 348c48 26 262 45 323 -8c34 -30 57 -88 68 -185zM326 191c0 133 5 216 -8 341c-5 44 -35 43 -66 41c-28 -8 -23 -31 -27 -61
c-1 -116 5 -168 12 -337c1 -25 19 -42 44 -34c37 3 45 21 45 50zM441 850l-80 -81c-30 29 -62 51 -92 78c-24 -21 -20 -19 -48 -42l-45 -37c-22 22 -63 56 -82 80l171 147c24 -20 50 -37 79 -62c30 -26 74 -59 97 -83z" />
    <glyph glyph-name="Ograve" unicode="&#xd2;" horiz-adv-x="541" 
d="M503 507c4 -88 6 -399 -27 -462c-22 -41 -92 -54 -144 -62c-73 -1 -207 -11 -248 55c-42 67 -43 245 -46 316c-6 125 -6 304 80 350c48 26 260 40 319 -16c39 -37 64 -147 66 -181zM326 191c0 133 5 234 -8 359c-5 44 -37 35 -68 33c-28 -8 -21 -41 -25 -71
c-1 -116 5 -168 12 -337c1 -25 19 -42 44 -34c37 3 45 21 45 50zM321 830l-94 -64c-44 57 -91 113 -135 173l136 93c34 -65 63 -142 93 -202z" />
    <glyph glyph-name="Uacute" unicode="&#xda;" horiz-adv-x="573" 
d="M539 735c2 -222 -4 -71 -1 -295c2 -119 -13 -317 -33 -350c-36 -75 -119 -96 -199 -107c-189 1 -241 59 -260 199c-7 49 -7 113 -9 145c-6 121 -7 215 1 412l177 -1l-3 -409c-1 -83 22 -179 76 -178c51 1 65 75 66 157l3 429zM411 937c-34 -50 -87 -128 -125 -173l-93 49
c26 58 63 146 86 199z" />
    <glyph glyph-name="Ucircumflex" unicode="&#xdb;" horiz-adv-x="573" 
d="M473 852l-86 -83c-30 29 -66 63 -96 90c-24 -21 -26 -22 -54 -46l-51 -43c-22 22 -69 62 -88 86l189 155c24 -20 59 -45 87 -70zM539 735c2 -222 -4 -71 -1 -295c2 -119 -13 -317 -33 -350c-36 -75 -119 -96 -199 -107c-189 1 -241 59 -260 199c-7 49 -7 113 -9 145
c-6 121 -7 215 1 412l177 -1l-3 -409c-1 -83 22 -179 76 -178c51 1 65 75 66 157l3 429z" />
    <glyph glyph-name="Ugrave" unicode="&#xd9;" horiz-adv-x="573" 
d="M534 725c2 -222 2 -47 5 -271c2 -119 -13 -317 -33 -350c-36 -75 -119 -96 -199 -107c-189 1 -241 59 -260 199c-7 49 -7 113 -9 145c-6 121 -9 187 -1 384l173 1l3 -383c1 -83 22 -179 76 -178c48 0 66 80 66 157l1 403h178zM359 826l-102 -64c-42 63 -87 113 -131 173
l144 93c34 -65 59 -146 89 -202z" />
    <glyph glyph-name="Eth" unicode="&#xd0;" horiz-adv-x="585" 
d="M-21 317v169c19 1 34 2 72 4v305c199 -3 393 -36 459 -164c53 -165 42 -309 18 -435c-19 -101 -241 -195 -471 -200c-4 73 -4 178 -5 322zM233 593v-114h56l-1 -155h-55l-1 -131c45 10 80 13 99 64c18 48 17 99 16 169c-1 58 4 114 -37 144c-21 15 -41 22 -77 23z" />
    <glyph glyph-name="Euro" unicode="&#x20ac;" horiz-adv-x="558" 
d="M426 523c1 -33 4 -63 -4 -77l-136 -1c1 -19 1 -68 1 -89c59 -2 138 -2 138 -4c1 -19 -2 -39 0 -73l-133 -4c-3 -10 10 -68 16 -82c21 -51 137 -54 203 -54c3 -37 13 -119 9 -174c-59 1 -363 -2 -394 160c-6 30 -10 110 -14 153c-26 -2 -43 0 -78 -1v79c36 2 42 10 82 7
l1 79c-42 0 -59 3 -86 0l2 81c44 1 46 -1 84 2c-3 41 2 79 9 123c18 71 76 120 114 136c62 26 175 46 258 33l-13 -153c-55 -2 -199 25 -199 -136c0 0 126 -4 140 -5z" />
    <glyph glyph-name="nbspace" unicode="&#xa0;" horiz-adv-x="355" 
 />
  </font>
</defs>
</svg>
