<?xml version="1.0" standalone="no"?>
<!DOCTYPE svg PUBLIC "-//W3C//DTD SVG 1.1//EN" "http://www.w3.org/Graphics/SVG/1.1/DTD/svg11.dtd" >
<svg xmlns="http://www.w3.org/2000/svg" xmlns:xlink="http://www.w3.org/1999/xlink" version="1.1">
<metadata>
Created by FontForge 20160407 at Fri Dec  2 15:21:35 2016
 By Jimmy Wärting
Copyright 1990-1999 as an unpublished work by Bitstream Inc.  All rights reserved.  Confidential.
</metadata>
<defs>
<font id="FuturaBT-Medium" horiz-adv-x="500" >
  <font-face 
    font-family="Futura"
    font-weight="500"
    font-stretch="normal"
    units-per-em="1000"
    panose-1="0 0 0 0 0 0 0 0 0 0"
    ascent="800"
    descent="-200"
    x-height="463"
    cap-height="715"
    bbox="-167 -236 1141 963"
    underline-thickness="71"
    underline-position="-109"
    stemh="95"
    stemv="100"
    unicode-range="U+0020-FB02"
  />
<missing-glyph horiz-adv-x="302" 
 />
    <glyph glyph-name=".notdef" horiz-adv-x="302" 
 />
    <glyph glyph-name="space" unicode=" " horiz-adv-x="302" 
 />
    <glyph glyph-name="exclam" unicode="!" horiz-adv-x="329" 
d="M100 45c0 35 29 64 64 64c36 0 64 -28 64 -64c0 -35 -28 -64 -64 -64s-64 29 -64 64zM109 731h111v-567h-111v567z" />
    <glyph glyph-name="quotedbl" unicode="&#x22;" horiz-adv-x="314" 
d="M42 701h80v-272h-80v272zM193 701h80v-272h-80v272z" />
    <glyph glyph-name="numbersign" unicode="#" horiz-adv-x="769" 
d="M359 713h93l-75 -213h122l76 213h93l-75 -213h142l-29 -84h-143l-44 -123h151l-30 -84h-150l-76 -212h-93l76 212h-123l-77 -212h-93l76 212h-146l30 84h145l44 123h-154l30 84h154zM346 416l-44 -124h125l44 124h-125z" />
    <glyph glyph-name="dollar" unicode="$" horiz-adv-x="604" 
d="M328 105c54 14 82 48 82 98c0 44 -26 74 -82 101v-199zM277 619c-47 -14 -68 -38 -68 -81c0 -41 21 -69 68 -94v175zM67 155l92 41c16 -56 55 -87 118 -94v223c-129 53 -191 114 -191 206c0 102 70 174 191 189v55h51v-56c94 -8 154 -47 179 -113l-90 -45
c-22 35 -50 54 -89 61v-196c138 -65 202 -113 202 -216c0 -117 -72 -193 -202 -209v-83h-51v81c-117 8 -187 61 -210 156z" />
    <glyph glyph-name="percent" unicode="%" horiz-adv-x="792" 
d="M222 -19h-67l417 741h67zM187 403c48 0 72 43 72 131c0 85 -25 131 -70 131c-48 0 -73 -45 -73 -132c0 -85 26 -130 71 -130zM28 534c0 119 60 188 160 188s159 -67 159 -188c0 -119 -59 -188 -159 -188s-160 68 -160 188zM446 170c0 119 60 188 160 188
s159 -67 159 -188c0 -119 -60 -189 -160 -189s-159 70 -159 189zM604 39c48 0 73 43 73 131c0 85 -26 130 -71 130c-48 0 -73 -44 -73 -131c0 -85 26 -130 71 -130z" />
    <glyph glyph-name="ampersand" unicode="&#x26;" horiz-adv-x="671" 
d="M531 0l-58 68c-67 -58 -136 -85 -221 -85c-134 0 -222 87 -222 204c0 85 53 150 159 216l-29 31c-32 35 -49 77 -49 119c0 92 74 161 184 161s175 -61 175 -151c0 -73 -46 -127 -139 -181l149 -173c32 32 62 70 92 112l68 -73c-27 -43 -59 -80 -95 -112l120 -136h-134z
M407 144l-156 180l-18 -12c-59 -38 -92 -71 -92 -122c0 -62 49 -113 116 -113c48 0 98 22 150 67zM279 456l26 15c37 22 55 50 55 85c0 41 -28 69 -67 69c-44 0 -73 -29 -73 -70c0 -20 8 -39 23 -56z" />
    <glyph glyph-name="quoteright" unicode="&#x2019;" horiz-adv-x="302" 
d="M60 466l93 265l89 -29l-120 -259z" />
    <glyph glyph-name="parenleft" unicode="(" horiz-adv-x="303" 
d="M198 -218c-77 143 -116 303 -116 481c0 185 37 344 116 485l80 -24c-72 -142 -103 -290 -103 -460c0 -176 30 -323 103 -456z" />
    <glyph glyph-name="parenright" unicode=")" horiz-adv-x="303" 
d="M101 -218l-79 26c73 133 103 280 103 456c0 170 -31 318 -103 460l79 24c79 -141 116 -300 116 -485c0 -178 -39 -338 -116 -481z" />
    <glyph glyph-name="asterisk" unicode="*" horiz-adv-x="440" 
d="M87 424l-35 59l110 56l-110 65l35 60l103 -66l-6 117h71l-7 -118l105 67l35 -60l-113 -62l113 -59l-37 -59l-103 68l7 -120h-71l5 119z" />
    <glyph glyph-name="plus" unicode="+" horiz-adv-x="833" 
d="M375 596h83v-257h251v-81h-251v-258h-83v258h-251v81h251v257z" />
    <glyph glyph-name="comma" unicode="," horiz-adv-x="302" 
d="M151 121l95 -35l-127 -262l-63 25z" />
    <glyph glyph-name="hyphen" unicode="-" horiz-adv-x="405" 
d="M72 279h261v-98h-261v98z" />
    <glyph glyph-name="period" unicode="." horiz-adv-x="302" 
d="M87 54c0 36 28 65 64 65s64 -29 64 -65c0 -35 -28 -63 -64 -63s-64 28 -64 63z" />
    <glyph glyph-name="slash" unicode="/" horiz-adv-x="433" 
d="M350 731h83l-350 -824h-83z" />
    <glyph glyph-name="zero" unicode="0" horiz-adv-x="604" 
d="M300 81c95 0 143 91 143 272c0 177 -49 270 -139 270c-94 0 -143 -92 -143 -272c0 -176 51 -270 139 -270zM559 344c0 -230 -99 -363 -257 -363c-160 0 -257 133 -257 371c0 236 98 370 258 370c162 0 256 -132 256 -378z" />
    <glyph glyph-name="one" unicode="1" horiz-adv-x="604" 
d="M264 0v616h-148l45 92h209v-708h-106z" />
    <glyph glyph-name="two" unicode="2" horiz-adv-x="604" 
d="M500 93v-93h-479l267 320c63 76 96 136 96 188c0 70 -44 114 -118 114c-65 0 -111 -44 -116 -111h-112c0 128 92 211 238 211c138 0 223 -76 223 -198c0 -112 -71 -201 -180 -326l-91 -105h272z" />
    <glyph glyph-name="three" unicode="3" horiz-adv-x="604" 
d="M46 191h111v-6c0 -65 48 -108 125 -108c87 0 136 45 136 126c0 86 -49 129 -145 129c-7 0 -14 -1 -22 -1v94c7 0 14 -1 21 -1c84 0 128 35 128 105c0 61 -42 100 -107 100c-70 0 -111 -35 -113 -96h-105c7 121 84 189 221 189c132 0 213 -74 213 -190
c0 -87 -45 -147 -123 -159c90 -16 139 -80 139 -185c0 -124 -92 -207 -247 -207c-137 0 -228 81 -232 210z" />
    <glyph glyph-name="four" unicode="4" horiz-adv-x="604" 
d="M356 0v145h-343l416 577h33v-496h87v-81h-87v-145h-106zM359 483l-182 -257h179v186c0 6 0 30 3 71z" />
    <glyph glyph-name="five" unicode="5" horiz-adv-x="604" 
d="M115 171c34 -62 88 -95 151 -95c94 0 159 65 159 164c0 94 -67 160 -167 160c-60 0 -112 -21 -151 -61l-29 6l89 363h338v-94h-268l-42 -158c38 16 74 24 111 24c136 0 230 -96 230 -236c0 -158 -105 -263 -275 -263c-98 0 -170 33 -223 105z" />
    <glyph glyph-name="six" unicode="6" horiz-adv-x="604" 
d="M231 434c31 15 62 23 93 23c126 0 220 -94 220 -231c0 -147 -101 -245 -253 -245c-143 0 -236 97 -236 239c0 120 73 217 169 352l125 177l89 -45zM166 219c0 -87 54 -142 128 -142c86 0 137 55 137 142c0 89 -50 143 -136 143c-76 0 -129 -58 -129 -143z" />
    <glyph glyph-name="seven" unicode="7" horiz-adv-x="604" 
d="M112 15l292 601h-331v92h493l-360 -735z" />
    <glyph glyph-name="eight" unicode="8" horiz-adv-x="604" 
d="M301 76c85 0 134 48 134 124c0 78 -50 125 -134 125c-83 0 -133 -48 -133 -125c0 -76 48 -124 133 -124zM303 628c-68 0 -109 -39 -109 -99c0 -59 39 -96 107 -96c70 0 108 37 108 96c0 61 -39 99 -106 99zM183 378c-70 30 -103 78 -103 153c0 112 85 191 221 191
c138 0 222 -79 222 -196c0 -71 -36 -122 -103 -148c79 -26 127 -96 127 -186c0 -129 -89 -211 -246 -211c-156 0 -245 83 -245 209c0 93 46 162 127 188z" />
    <glyph glyph-name="nine" unicode="9" horiz-adv-x="604" 
d="M364 269c-31 -15 -62 -22 -93 -22c-126 0 -220 93 -220 230c0 147 101 245 253 245c143 0 237 -96 237 -238c0 -120 -73 -217 -169 -352l-126 -177l-88 45zM429 485c0 87 -53 142 -127 142c-86 0 -138 -55 -138 -142c0 -89 50 -144 136 -144c76 0 129 59 129 144z" />
    <glyph glyph-name="colon" unicode=":" horiz-adv-x="329" 
d="M100 54c0 35 29 64 64 64c36 0 64 -28 64 -64c0 -35 -28 -63 -64 -63s-64 28 -64 63zM100 388c0 35 29 63 64 63c36 0 64 -27 64 -63c0 -35 -28 -64 -64 -64s-64 29 -64 64z" />
    <glyph glyph-name="semicolon" unicode=";" horiz-adv-x="329" 
d="M154 121l95 -35l-127 -262l-64 25zM143 388c0 35 28 63 63 63c36 0 64 -27 64 -63c0 -35 -28 -64 -64 -64s-63 29 -63 64z" />
    <glyph glyph-name="less" unicode="&#x3c;" horiz-adv-x="833" 
d="M704 574v-90l-456 -186l456 -186v-89l-575 236v78z" />
    <glyph glyph-name="equal" unicode="=" horiz-adv-x="833" 
d="M124 440h585v-82h-585v82zM124 238h585v-81h-585v81z" />
    <glyph glyph-name="greater" unicode="&#x3e;" horiz-adv-x="833" 
d="M129 574l575 -237v-78l-575 -236v89l456 186l-456 186v90z" />
    <glyph glyph-name="question" unicode="?" horiz-adv-x="544" 
d="M194 45c0 35 29 64 64 64c36 0 64 -28 64 -64c0 -35 -28 -64 -64 -64s-64 29 -64 64zM186 545h-84c0 6 -1 12 -1 18c0 103 68 169 171 169c107 0 174 -67 174 -168c0 -88 -47 -124 -137 -168c-66 -33 -108 -51 -108 -96c0 -32 28 -61 65 -61c44 0 68 27 69 76h87v-10
c0 -96 -56 -151 -156 -151c-94 0 -159 62 -159 144c0 91 54 130 152 177c59 28 95 47 95 93c0 43 -34 75 -82 75c-53 0 -86 -36 -86 -98z" />
    <glyph glyph-name="at" unicode="@" horiz-adv-x="1000" 
d="M602 345c-9 55 -41 86 -90 86c-82 0 -150 -95 -150 -214c0 -65 31 -100 85 -100c57 0 111 46 128 117zM573 138c-36 -57 -82 -82 -148 -82c-99 0 -153 58 -153 164c0 156 106 272 230 272c58 0 96 -22 121 -69l27 52h75l-72 -286c-2 -10 -4 -18 -4 -24
c0 -25 19 -41 47 -41c31 0 70 19 104 56c46 49 72 117 72 192c0 162 -130 278 -330 278c-89 0 -166 -20 -230 -61c-118 -74 -184 -194 -184 -335c0 -203 148 -335 375 -335c109 0 214 33 300 93l33 -48c-98 -74 -209 -111 -329 -111c-126 0 -230 32 -309 93
c-101 77 -150 179 -150 309c0 108 35 206 100 286c95 116 231 178 397 178c111 0 211 -32 278 -84c87 -67 129 -154 129 -262c0 -106 -44 -200 -122 -263c-45 -36 -99 -55 -155 -55c-69 0 -102 26 -102 81v2z" />
    <glyph glyph-name="A" unicode="A" horiz-adv-x="662" 
d="M554 0l-81 184h-283l-83 -184h-122l346 743l346 -743h-123zM233 281h199l-73 163c-8 19 -17 45 -27 81c-9 -36 -18 -62 -26 -81z" />
    <glyph glyph-name="B" unicode="B" horiz-adv-x="576" 
d="M82 0v715h180c76 0 133 -3 177 -36c44 -32 70 -87 70 -151c0 -76 -36 -129 -103 -149c83 -13 134 -80 134 -176c0 -59 -22 -113 -58 -149c-51 -51 -119 -54 -219 -54h-181zM196 97h40c65 0 111 3 139 22s45 52 45 91c0 45 -19 80 -55 99c-27 14 -59 16 -94 16h-75v-228z
M196 413h44c105 0 152 24 152 99c0 89 -49 106 -152 106h-44v-205z" />
    <glyph glyph-name="C" unicode="C" horiz-adv-x="718" 
d="M656 541c-66 56 -139 84 -220 84c-157 0 -264 -111 -264 -270c0 -157 109 -266 252 -266c85 0 161 30 231 90v-131c-63 -45 -136 -67 -222 -67c-110 0 -204 37 -274 106s-108 165 -108 269c0 105 38 199 109 269s164 107 271 107c86 0 161 -25 231 -74z" />
    <glyph glyph-name="D" unicode="D" horiz-adv-x="740" 
d="M82 0v715h157c134 0 237 0 324 -67c82 -63 126 -163 126 -291s-44 -227 -126 -290c-83 -64 -177 -67 -293 -67h-188zM198 105h98c79 0 140 4 191 47c54 46 81 115 81 206s-27 160 -81 206c-53 44 -119 47 -205 47h-84v-506z" />
    <glyph glyph-name="E" unicode="E" horiz-adv-x="532" 
d="M82 0v715h399v-99h-283v-179h283v-102h-283v-231h283v-104h-399z" />
    <glyph glyph-name="F" unicode="F" horiz-adv-x="525" 
d="M82 0v715h399v-99h-283v-178h283v-102h-283v-336h-116z" />
    <glyph glyph-name="G" unicode="G" horiz-adv-x="803" 
d="M478 366h283c1 -29 2 -51 2 -67c0 -203 -122 -318 -330 -318c-117 0 -208 34 -277 104c-68 69 -105 165 -105 271c0 108 37 200 109 270c70 68 166 105 273 105c113 0 201 -41 270 -125l-85 -64c-48 56 -108 83 -183 83c-153 0 -263 -107 -263 -268
c0 -163 109 -272 264 -272c134 0 214 67 214 173v10h-172v98z" />
    <glyph glyph-name="H" unicode="H" horiz-adv-x="748" 
d="M82 0v715h116v-264h352v264h116v-715h-116v347h-352v-347h-116z" />
    <glyph glyph-name="I" unicode="I" horiz-adv-x="285" 
d="M84 0v715h116v-715h-116z" />
    <glyph glyph-name="J" unicode="J" horiz-adv-x="394" 
d="M76 130c23 -27 44 -41 70 -41c52 0 62 36 62 106v520h115v-558c0 -119 -50 -176 -165 -176c-62 0 -111 23 -156 74z" />
    <glyph glyph-name="K" unicode="K" horiz-adv-x="620" 
d="M82 0v715h116v-296l257 296h142l-283 -318l317 -397h-150l-283 365v-365h-116z" />
    <glyph glyph-name="L" unicode="L" horiz-adv-x="470" 
d="M82 0v715h116v-611h260v-104h-376z" />
    <glyph glyph-name="M" unicode="M" horiz-adv-x="863" 
d="M665 353c-3 13 -6 45 -13 98c-6 -34 -17 -66 -33 -99l-187 -381l-187 389c-14 29 -26 59 -35 91c-1 -34 -6 -67 -13 -99l-77 -352h-107l169 743l211 -449c6 -13 19 -45 39 -97c14 40 30 72 41 97l206 449l173 -743h-108z" />
    <glyph glyph-name="N" unicode="N" horiz-adv-x="803" 
d="M82 0v743l454 -437c29 -28 54 -57 78 -87v496h107v-743l-463 445c-26 25 -49 52 -69 80v-497h-107z" />
    <glyph glyph-name="O" unicode="O" horiz-adv-x="866" 
d="M815 356c0 -102 -39 -194 -112 -265s-168 -110 -270 -110s-199 39 -271 110c-73 71 -111 163 -111 265s38 194 111 266c73 71 168 109 271 109s197 -38 270 -109c73 -72 112 -165 112 -266zM694 356c0 72 -27 139 -77 190c-49 51 -115 78 -184 78s-135 -27 -185 -78
s-76 -118 -76 -190s26 -138 76 -189s115 -78 185 -78s134 27 184 78s77 117 77 189z" />
    <glyph glyph-name="P" unicode="P" horiz-adv-x="532" 
d="M191 321v-321h-109v715h176c73 0 131 -2 179 -37c44 -32 72 -91 72 -160s-28 -129 -72 -161c-48 -34 -106 -36 -179 -36h-67zM198 416h30c107 0 161 12 161 95c0 86 -53 104 -161 104h-30v-199z" />
    <glyph glyph-name="Q" unicode="Q" horiz-adv-x="866" 
d="M707 97l152 -164h-139l-93 101c-65 -35 -130 -51 -200 -51c-96 0 -194 39 -265 109c-73 71 -111 164 -111 265s38 194 111 265c72 71 168 109 271 109s198 -38 270 -109c73 -71 112 -164 112 -265c0 -99 -38 -190 -108 -260zM562 256l69 -74c43 53 63 108 63 175
c0 72 -26 138 -76 189s-116 79 -185 79s-135 -28 -185 -79s-76 -117 -76 -189c0 -148 112 -266 264 -266c41 0 77 9 113 27l-128 138h141z" />
    <glyph glyph-name="R" unicode="R" horiz-adv-x="560" 
d="M191 320v-320h-109v715h162c77 0 134 -6 178 -40c43 -34 69 -90 69 -157c0 -115 -56 -180 -164 -193l246 -325h-131l-238 320h-13zM198 410h21c102 0 153 12 153 98c0 88 -49 107 -153 107h-21v-205z" />
    <glyph glyph-name="S" unicode="S" horiz-adv-x="549" 
d="M41 143l93 43c17 -64 65 -98 138 -98c70 0 113 42 113 106c0 70 -53 87 -127 123c-127 62 -197 110 -197 218c0 115 85 196 215 196c106 0 179 -43 206 -118l-91 -47c-28 44 -61 65 -106 65c-63 0 -102 -36 -102 -90c0 -69 56 -90 136 -127c126 -58 185 -109 185 -212
c0 -133 -89 -221 -237 -221c-122 0 -202 58 -226 162z" />
    <glyph glyph-name="T" unicode="T" horiz-adv-x="509" 
d="M313 616v-616h-116v616h-190v99h495v-99h-189z" />
    <glyph glyph-name="U" unicode="U" horiz-adv-x="744" 
d="M79 715h115v-434c0 -129 60 -194 178 -194s178 65 178 194v434h116v-445c0 -193 -97 -289 -294 -289s-293 96 -293 289v445z" />
    <glyph glyph-name="V" unicode="V" horiz-adv-x="618" 
d="M309 -28l-319 743h121l160 -381c17 -40 30 -77 38 -115c9 37 22 75 39 115l160 381h120z" />
    <glyph glyph-name="W" unicode="W" horiz-adv-x="939" 
d="M-3 715h115l135 -361c14 -38 27 -75 38 -113c21 69 35 108 39 120l144 382l151 -389c13 -34 26 -72 38 -114c8 34 20 70 35 111l134 364h116l-277 -743l-163 408c-14 35 -26 69 -35 100c-10 -35 -21 -69 -34 -102l-160 -406z" />
    <glyph glyph-name="X" unicode="X" horiz-adv-x="572" 
d="M0 0l232 374l-205 341h122l103 -175c10 -16 22 -40 38 -71c11 22 24 45 39 70l109 176h119l-209 -339l225 -376h-128l-120 203c-7 13 -20 37 -38 72c-10 -21 -23 -45 -39 -71l-125 -204h-123z" />
    <glyph glyph-name="Y" unicode="Y" horiz-adv-x="593" 
d="M236 0v327l-241 388h122l150 -243c3 -5 14 -24 30 -57c9 23 19 43 30 60l154 240h116l-246 -388v-327h-115z" />
    <glyph glyph-name="Z" unicode="Z" horiz-adv-x="576" 
d="M9 0l364 616h-303v99h482l-361 -611h365v-104h-547z" />
    <glyph glyph-name="bracketleft" unicode="[" horiz-adv-x="303" 
d="M190 -125h93v-77h-186v933h186v-76h-93v-780z" />
    <glyph glyph-name="backslash" unicode="\" horiz-adv-x="433" 
d="M350 -93l-350 824h83l350 -824h-83z" />
    <glyph glyph-name="bracketright" unicode="]" horiz-adv-x="303" 
d="M113 -125v780h-92v76h185v-933h-185v77h92z" />
    <glyph glyph-name="asciicircum" unicode="^" horiz-adv-x="1000" 
d="M447 713h106l242 -274h-101l-194 194l-195 -194h-101z" />
    <glyph glyph-name="underscore" unicode="_" 
d="M0 -152h500v-84h-500v84z" />
    <glyph glyph-name="quoteleft" unicode="&#x2018;" horiz-adv-x="302" 
d="M242 709l-93 -266l-89 30l120 258z" />
    <glyph glyph-name="a" unicode="a" horiz-adv-x="582" 
d="M406 233c0 97 -48 152 -127 152c-80 0 -129 -58 -129 -156c0 -99 47 -154 127 -154c73 0 129 60 129 158zM509 0h-106v60c-38 -53 -88 -79 -153 -79c-129 0 -211 93 -211 251c0 149 86 247 208 247c76 0 131 -33 156 -92v76h106v-463z" />
    <glyph glyph-name="b" unicode="b" horiz-adv-x="582" 
d="M179 757v-370c25 59 81 92 157 92c122 0 207 -98 207 -247c0 -158 -82 -251 -211 -251c-65 0 -115 26 -153 79v-60h-106v757h106zM176 233c0 -98 56 -158 130 -158c80 0 126 55 126 154c0 98 -49 156 -129 156c-79 0 -127 -55 -127 -152z" />
    <glyph glyph-name="c" unicode="c" horiz-adv-x="454" 
d="M419 331c-32 35 -76 55 -127 55c-86 0 -143 -60 -143 -153c0 -97 56 -155 148 -155c51 0 91 19 122 58v-122c-39 -22 -83 -33 -134 -33c-145 0 -246 102 -246 249c0 149 104 249 257 249c47 0 87 -9 123 -29v-119z" />
    <glyph glyph-name="d" unicode="d" horiz-adv-x="582" 
d="M403 757h106v-757h-106v60c-38 -53 -88 -79 -153 -79c-129 0 -211 93 -211 251c0 149 86 247 208 247c76 0 131 -33 156 -92v370zM406 233c0 97 -48 152 -127 152c-80 0 -129 -58 -129 -156c0 -99 47 -154 127 -154c74 0 129 60 129 158z" />
    <glyph glyph-name="e" unicode="e" horiz-adv-x="556" 
d="M409 287c-8 67 -52 102 -125 102c-69 0 -111 -33 -128 -102h253zM519 216h-370c5 -87 54 -138 131 -138c68 0 111 27 145 91l89 -50c-52 -93 -128 -138 -232 -138c-148 0 -243 98 -243 249c0 144 99 249 243 249c149 0 237 -89 237 -243v-20z" />
    <glyph glyph-name="f" unicode="f" horiz-adv-x="306" 
d="M88 0v370h-81v93h81v124c0 122 49 180 157 180c22 0 46 -3 72 -10v-96c-17 10 -34 15 -52 15c-53 0 -71 -32 -71 -103v-110h111v-93h-111v-370h-106z" />
    <glyph glyph-name="g" unicode="g" horiz-adv-x="582" 
d="M509 29c0 -173 -58 -247 -237 -247c-131 0 -210 61 -211 148h114c3 -39 37 -61 99 -61c97 0 127 43 128 130l1 61c-38 -53 -88 -79 -153 -79c-129 0 -211 93 -211 251c0 149 86 247 208 247c76 0 131 -33 156 -92v76h106v-434zM406 233c0 97 -48 152 -127 152
c-80 0 -129 -58 -129 -156c0 -99 47 -154 127 -154c73 0 129 60 129 158z" />
    <glyph glyph-name="h" unicode="h" horiz-adv-x="588" 
d="M73 0v757h100v-370c43 65 98 92 179 92c69 0 118 -22 145 -65c23 -35 23 -77 23 -133v-281h-107v238c0 103 -13 151 -101 151c-50 0 -90 -19 -112 -52c-19 -28 -21 -68 -21 -126v-211h-106z" />
    <glyph glyph-name="i" unicode="i" horiz-adv-x="262" 
d="M78 0v463h106v-463h-106zM64 663c0 36 30 66 67 66s66 -28 66 -66s-29 -67 -66 -67s-67 31 -67 67z" />
    <glyph glyph-name="j" unicode="j" horiz-adv-x="262" 
d="M78 -218v681h106v-681h-106zM64 663c0 36 30 66 67 66s66 -28 66 -66s-29 -67 -66 -67s-67 31 -67 67z" />
    <glyph glyph-name="k" unicode="k" horiz-adv-x="516" 
d="M73 0v757h106v-486l194 192h131l-210 -204l230 -259h-137l-208 239v-239h-106z" />
    <glyph glyph-name="l" unicode="l" horiz-adv-x="262" 
d="M78 0v757h106v-757h-106z" />
    <glyph glyph-name="m" unicode="m" horiz-adv-x="875" 
d="M179 0h-106v463h100v-76c42 64 93 93 167 93c72 0 119 -30 144 -92c48 63 100 92 172 92c62 0 108 -24 133 -66c15 -25 17 -57 17 -96v-318h-106v238c0 102 -10 152 -90 152c-92 0 -116 -60 -116 -179v-211h-107v238c0 105 -19 152 -92 152c-42 0 -78 -20 -98 -53
c-18 -30 -18 -69 -18 -126v-211z" />
    <glyph glyph-name="n" unicode="n" horiz-adv-x="588" 
d="M73 0v463h100v-76c43 65 98 92 179 92c69 0 118 -22 145 -65c23 -35 23 -77 23 -133v-281h-107v238c0 103 -13 151 -101 151c-50 0 -90 -19 -112 -52c-19 -28 -21 -68 -21 -126v-211h-106z" />
    <glyph glyph-name="o" unicode="o" horiz-adv-x="588" 
d="M39 231c0 67 26 129 75 176c48 47 112 72 179 72c69 0 132 -25 181 -73c48 -47 75 -108 75 -175c0 -69 -26 -130 -74 -176c-50 -48 -113 -74 -182 -74c-67 0 -131 26 -179 73c-49 48 -75 109 -75 177zM437 230c0 87 -64 154 -143 154s-143 -67 -143 -154
s64 -154 143 -154c78 0 143 67 143 154z" />
    <glyph glyph-name="p" unicode="p" horiz-adv-x="582" 
d="M73 -218v681h106v-76c25 59 81 92 157 92c122 0 207 -98 207 -247c0 -158 -82 -251 -211 -251c-65 0 -115 26 -153 79v-278h-106zM176 233c0 -99 55 -158 130 -158c80 0 126 55 126 154c0 98 -49 156 -129 156c-79 0 -127 -55 -127 -152z" />
    <glyph glyph-name="q" unicode="q" horiz-adv-x="582" 
d="M509 -218h-106v278c-38 -53 -88 -79 -153 -79c-129 0 -211 93 -211 251c0 149 86 247 208 247c76 0 131 -33 156 -92v76h106v-681zM406 233c0 97 -48 152 -127 152c-80 0 -129 -58 -129 -156c0 -99 47 -154 127 -154c75 0 129 59 129 158z" />
    <glyph glyph-name="r" unicode="r" horiz-adv-x="368" 
d="M179 389c23 61 59 90 115 90c30 0 59 -7 87 -21l-38 -90c-20 14 -41 19 -65 19c-75 0 -99 -59 -99 -184v-203h-106v464h106v-75z" />
    <glyph glyph-name="s" unicode="s" horiz-adv-x="426" 
d="M20 84l88 48c13 -46 48 -71 104 -71c48 0 76 24 76 61c0 48 -46 52 -110 79c-88 37 -133 73 -133 140c0 80 67 139 177 139c73 0 125 -28 148 -76l-75 -52c-11 29 -40 48 -77 48c-41 0 -67 -21 -67 -53c0 -45 50 -52 122 -81c81 -32 119 -70 119 -137
c0 -90 -68 -148 -189 -148c-90 0 -149 33 -183 103z" />
    <glyph glyph-name="t" unicode="t" horiz-adv-x="303" 
d="M98 0v370h-81v93h81v175h106v-175h81v-93h-81v-370h-106z" />
    <glyph glyph-name="u" unicode="u" horiz-adv-x="588" 
d="M176 463v-261c0 -87 32 -126 118 -126s118 39 118 126v261h106v-229c0 -173 -64 -253 -223 -253c-162 0 -225 79 -225 253v229h106z" />
    <glyph glyph-name="v" unicode="v" horiz-adv-x="472" 
d="M236 -28l-243 491h116l101 -233c6 -13 15 -41 26 -84c6 28 15 56 27 84l101 233h115z" />
    <glyph glyph-name="w" unicode="w" horiz-adv-x="750" 
d="M516 -28l-107 241c-12 28 -24 58 -34 92c-15 -44 -26 -74 -32 -88l-110 -245l-240 491h113l104 -223c7 -16 16 -47 23 -94c1 30 11 56 24 84l113 250h9l115 -250c13 -28 21 -54 22 -84c6 36 15 67 27 93l102 224h112z" />
    <glyph glyph-name="x" unicode="x" horiz-adv-x="453" 
d="M105 0h-117l175 249l-150 214h117l65 -96c11 -16 22 -34 32 -56c10 20 21 38 33 57l64 95h116l-150 -215l174 -248h-116l-86 122c-14 21 -28 41 -36 63c-18 -35 -31 -55 -37 -64z" />
    <glyph glyph-name="y" unicode="y" horiz-adv-x="471" 
d="M153 -218h-109l127 258l-170 423h117l85 -240c11 -31 18 -62 22 -91c7 27 20 55 33 84l114 247h115z" />
    <glyph glyph-name="z" unicode="z" horiz-adv-x="449" 
d="M429 0h-430l258 370h-232v93h404l-252 -370h252v-93z" />
    <glyph glyph-name="braceleft" unicode="{" 
d="M427 721v-87c-8 0 -16 1 -23 1c-77 0 -91 -26 -91 -105v-118c0 -91 -17 -133 -99 -153c82 -20 99 -63 99 -153v-117c0 -79 14 -106 92 -106c7 0 14 1 22 1v-86h-31c-58 0 -101 5 -133 24c-44 26 -50 72 -50 146v121c0 92 -29 128 -113 128c-7 0 -14 -1 -21 -1v87
c7 0 14 -1 21 -1c83 0 113 35 113 127v121c0 74 5 120 50 147c34 20 79 24 142 24h22z" />
    <glyph glyph-name="bar" unicode="|" 
d="M207 764h87v-1000h-87v1000z" />
    <glyph glyph-name="braceright" unicode="}" 
d="M74 721h22c62 0 107 -4 141 -24c45 -27 50 -74 50 -147v-121c0 -92 29 -127 113 -127c6 0 14 1 21 1v-87c-7 0 -14 1 -21 1c-84 0 -113 -36 -113 -128v-121c0 -73 -5 -119 -50 -146c-33 -20 -79 -24 -141 -24h-22v86c8 0 15 -1 22 -1c78 0 91 27 91 106v117
c0 90 18 133 100 153c-83 20 -100 63 -100 153v118c0 79 -14 105 -90 105c-7 0 -15 -1 -23 -1v87z" />
    <glyph glyph-name="asciitilde" unicode="~" horiz-adv-x="833" 
d="M747 383v-90c-65 -45 -126 -69 -186 -69c-29 0 -61 6 -93 17c-69 23 -129 48 -193 48c-58 0 -117 -27 -188 -77v91c69 47 131 70 189 70c57 0 102 -15 143 -29c49 -17 94 -36 143 -36c58 0 117 26 185 75z" />
    <glyph glyph-name="exclamdown" unicode="&#xa1;" horiz-adv-x="329" 
d="M100 668c0 35 28 63 64 63s64 -28 64 -63c0 -36 -28 -64 -64 -64c-35 0 -64 29 -64 64zM109 -19v568h111v-568h-111z" />
    <glyph glyph-name="cent" unicode="&#xa2;" horiz-adv-x="604" 
d="M485 469c-41 26 -83 37 -130 41v-292c58 9 100 23 130 47v-102c-38 -22 -80 -33 -130 -35v-99h-51v101c-128 10 -213 104 -213 229c0 126 79 217 213 237v79h51v-77c41 -1 83 -10 130 -29v-100zM304 509c-70 -12 -117 -71 -117 -143c0 -80 44 -135 117 -148v291z" />
    <glyph glyph-name="sterling" unicode="&#xa3;" horiz-adv-x="604" 
d="M36 24c38 57 79 87 128 91c15 30 23 58 23 87c0 28 -8 55 -23 84h-122v69h92c-29 48 -44 97 -44 146c0 126 94 221 243 221c137 0 218 -76 230 -216l-109 -15c-6 90 -50 137 -126 137c-73 0 -123 -50 -123 -122c0 -43 20 -89 44 -151h175v-69h-153c6 -19 8 -37 8 -53
c0 -42 -16 -85 -47 -118h3c75 0 134 -44 189 -44c45 0 82 19 101 52l65 -58c-31 -56 -84 -86 -146 -86c-89 0 -166 47 -237 47c-37 0 -73 -18 -107 -51z" />
    <glyph glyph-name="fraction" unicode="&#x2044;" horiz-adv-x="167" 
d="M-167 -19l433 741h67l-433 -741h-67z" />
    <glyph glyph-name="yen" unicode="&#xa5;" horiz-adv-x="604" 
d="M240 0v282h-235v71h217l-49 80h-168v71h125l-130 205h117l150 -241c5 -8 16 -28 30 -59c8 22 18 43 30 62l154 238h112l-130 -205h125v-71h-171l-50 -80h221v-71h-241v-282h-107z" />
    <glyph glyph-name="florin" unicode="&#x192;" horiz-adv-x="604" 
d="M354 382l-47 -370c-20 -162 -51 -231 -163 -231c-24 0 -49 4 -77 12l20 99c17 -7 31 -11 41 -11c57 0 63 48 77 161l41 340h-102l7 81h103l10 75c17 126 63 185 152 185c29 0 58 -6 89 -17l-9 -92c-23 9 -42 13 -56 13c-49 0 -60 -35 -71 -111l-7 -53h113l-8 -81h-113z
" />
    <glyph glyph-name="section" unicode="&#xa7;" horiz-adv-x="532" 
d="M75 -43h99c2 -59 32 -89 91 -89s93 30 93 73c0 51 -46 65 -121 97c-63 27 -109 48 -135 73c-42 40 -61 89 -61 152c0 84 46 148 128 180c-59 27 -88 71 -88 132c0 94 69 157 193 157c113 0 175 -58 175 -164v-10h-91c-2 59 -33 89 -91 89c-53 0 -87 -31 -87 -70
c0 -46 42 -66 125 -99c128 -51 188 -102 188 -218c0 -90 -45 -150 -134 -176c62 -29 96 -81 96 -141c0 -98 -70 -163 -193 -163c-114 0 -187 67 -187 167v10zM269 137c66 0 123 54 123 125c0 70 -56 126 -123 126s-122 -55 -122 -126s56 -125 122 -125z" />
    <glyph glyph-name="currency" unicode="&#xa4;" horiz-adv-x="604" 
d="M566 158l-4 -119c-53 -38 -114 -58 -180 -58c-152 0 -270 107 -300 284h-82l12 54h65c-1 12 -1 22 -1 33c0 9 1 22 2 39h-78l12 55h72c31 172 150 276 305 276c64 0 120 -21 173 -64v-118c-45 53 -103 81 -164 81c-96 0 -175 -67 -195 -175h285l-17 -55h-277
c-1 -15 -2 -32 -2 -49v-6c0 -2 0 -7 1 -17h255l-18 -54h-230c21 -115 97 -183 192 -183c62 0 118 25 174 76z" />
    <glyph glyph-name="quotesingle" unicode="'" horiz-adv-x="163" 
d="M42 701h80v-272h-80v272z" />
    <glyph glyph-name="quotedblleft" unicode="&#x201c;" horiz-adv-x="442" 
d="M401 709l-93 -266l-89 30l120 258zM223 709l-92 -266l-90 30l120 258z" />
    <glyph glyph-name="guillemotleft" unicode="&#xab;" horiz-adv-x="454" 
d="M163 428l67 -41l-100 -158l100 -158l-67 -41l-124 199zM348 428l68 -41l-101 -158l101 -158l-68 -41l-124 199z" />
    <glyph glyph-name="guilsinglleft" unicode="&#x2039;" horiz-adv-x="306" 
d="M163 428l68 -41l-101 -158l101 -158l-68 -41l-124 199z" />
    <glyph glyph-name="guilsinglright" unicode="&#x203a;" horiz-adv-x="266" 
d="M107 30l-68 41l101 158l-101 158l68 41l124 -199z" />
    <glyph glyph-name="fi" unicode="&#xfb01;" horiz-adv-x="562" 
d="M88 0v370h-81v93h81v124c0 122 49 180 157 180c22 0 46 -3 72 -10v-96c-17 10 -34 15 -52 15c-53 0 -71 -32 -71 -103v-110h111v-93h-111v-370h-106zM378 0v463h107v-463h-107zM365 663c0 36 30 66 67 66s66 -28 66 -66s-29 -67 -66 -67s-67 31 -67 67z" />
    <glyph glyph-name="fl" unicode="&#xfb02;" horiz-adv-x="562" 
d="M88 0v370h-81v93h81v124c0 122 49 180 157 180c22 0 46 -3 72 -10v-96c-17 10 -34 15 -52 15c-53 0 -71 -32 -71 -103v-110h111v-93h-111v-370h-106zM378 0v757h107v-757h-107z" />
    <glyph glyph-name="endash" unicode="&#x2013;" 
d="M0 266h500v-71h-500v71z" />
    <glyph glyph-name="dagger" unicode="&#x2020;" horiz-adv-x="532" 
d="M216 -218v580h-175v89h175v264h100v-264h176v-89h-176v-580h-100z" />
    <glyph glyph-name="daggerdbl" unicode="&#x2021;" horiz-adv-x="532" 
d="M216 -218v240h-176v88h176v318h-176v88h176v199h100v-199h176v-88h-176v-318h176v-88h-176v-240h-100z" />
    <glyph glyph-name="periodcentered" unicode="&#xb7;" horiz-adv-x="302" 
d="M87 352c0 36 28 64 64 64s64 -28 64 -64c0 -35 -28 -64 -64 -64s-64 29 -64 64z" />
    <glyph glyph-name="paragraph" unicode="&#xb6;" 
d="M473 722v-48h-57v-674h-63v674h-83v-674h-63v383c-112 4 -180 73 -180 169c0 100 73 170 191 170h255z" />
    <glyph glyph-name="bullet" unicode="&#x2022;" horiz-adv-x="590" 
d="M150 372c0 80 65 144 145 144c79 0 144 -64 144 -144c0 -79 -65 -145 -145 -145s-144 65 -144 145z" />
    <glyph glyph-name="quotesinglbase" unicode="&#x201a;" horiz-adv-x="302" 
d="M60 -146l93 266l89 -29l-120 -259z" />
    <glyph glyph-name="quotedblbase" unicode="&#x201e;" horiz-adv-x="442" 
d="M219 -146l93 266l89 -29l-120 -259zM41 -146l93 266l89 -29l-120 -259z" />
    <glyph glyph-name="quotedblright" unicode="&#x201d;" horiz-adv-x="442" 
d="M219 466l93 265l89 -29l-120 -259zM41 466l93 265l89 -29l-120 -259z" />
    <glyph glyph-name="guillemotright" unicode="&#xbb;" horiz-adv-x="454" 
d="M107 30l-67 41l100 158l-100 158l67 41l124 -199zM292 30l-68 41l101 158l-101 158l68 41l124 -199z" />
    <glyph glyph-name="ellipsis" unicode="&#x2026;" horiz-adv-x="1000" 
d="M103 54c0 36 28 65 64 65s64 -29 64 -65c0 -35 -28 -63 -64 -63s-64 28 -64 63zM436 54c0 36 28 65 64 65s64 -29 64 -65c0 -35 -28 -63 -64 -63s-64 28 -64 63zM770 54c0 36 28 65 64 65s64 -29 64 -65c0 -35 -28 -63 -64 -63s-64 28 -64 63z" />
    <glyph glyph-name="perthousand" unicode="&#x2030;" horiz-adv-x="1169" 
d="M222 -19h-67l417 741h67zM28 534c0 119 60 188 160 188s159 -67 159 -188c0 -119 -59 -188 -159 -188s-160 68 -160 188zM187 403c48 0 72 43 72 131c0 85 -25 131 -70 131c-48 0 -73 -45 -73 -132c0 -85 26 -130 71 -130zM604 39c48 0 73 43 73 131
c0 85 -26 130 -71 130c-48 0 -73 -44 -73 -131c0 -85 26 -130 71 -130zM446 170c0 119 60 188 160 188s159 -67 159 -188c0 -119 -60 -189 -160 -189s-159 70 -159 189zM822 170c0 119 60 188 160 188s159 -67 159 -188c0 -119 -60 -189 -160 -189s-159 70 -159 189zM980 39
c48 0 73 43 73 131c0 85 -26 130 -71 130c-48 0 -73 -44 -73 -131c0 -85 26 -130 71 -130z" />
    <glyph glyph-name="questiondown" unicode="&#xbf;" horiz-adv-x="544" 
d="M347 668c0 -35 -29 -64 -64 -64c-36 0 -64 28 -64 64c0 35 28 63 64 63s64 -28 64 -63zM354 168h84c0 -6 1 -12 1 -18c0 -104 -67 -169 -170 -169c-107 0 -175 67 -175 168c0 88 48 124 138 168c66 33 107 51 107 96c0 32 -28 61 -65 61c-44 0 -68 -27 -69 -76h-87v10
c0 96 56 151 156 151c94 0 159 -62 159 -144c0 -91 -54 -130 -152 -177c-59 -28 -94 -47 -94 -93c0 -43 34 -75 82 -75c53 0 85 36 85 98z" />
    <glyph glyph-name="grave" unicode="`" 
d="M319 533h-60l-143 133h110z" />
    <glyph glyph-name="acute" unicode="&#xb4;" 
d="M181 533l93 133h110l-143 -133h-60z" />
    <glyph glyph-name="circumflex" unicode="&#x2c6;" 
d="M105 533l94 133h102l94 -133h-60l-85 77l-85 -77h-60z" />
    <glyph glyph-name="tilde" unicode="&#x2dc;" 
d="M393 655c-12 -66 -48 -102 -95 -102c-9 0 -17 1 -26 3l-61 16c-6 1 -12 2 -18 2c-22 0 -35 -9 -42 -33h-44c15 69 45 102 92 102c9 0 19 -1 30 -4l57 -15c8 -2 16 -2 23 -2c20 0 34 11 40 33h44z" />
    <glyph glyph-name="macron" unicode="&#xaf;" 
d="M121 563v69h257v-69h-257z" />
    <glyph glyph-name="breve" unicode="&#x2d8;" 
d="M104 664h59c6 -43 34 -61 87 -61c54 0 80 19 86 61h58c-10 -89 -53 -129 -144 -129c-90 0 -136 40 -146 129z" />
    <glyph glyph-name="dotaccent" unicode="&#x2d9;" 
d="M188 613c0 33 29 62 62 62c34 0 62 -28 62 -62c0 -36 -26 -62 -62 -62c-35 0 -62 27 -62 62z" />
    <glyph glyph-name="dieresis" unicode="&#xa8;" 
d="M102 613c0 31 27 58 59 58s58 -26 58 -58c0 -35 -24 -60 -58 -60c-33 0 -59 26 -59 60zM280 613c0 31 27 58 59 58s58 -26 58 -58c0 -35 -24 -60 -58 -60c-33 0 -59 26 -59 60z" />
    <glyph glyph-name="ring" unicode="&#x2da;" 
d="M134 627c0 65 52 116 116 116s116 -52 116 -116s-51 -115 -116 -115s-116 50 -116 115zM195 627c0 -31 24 -55 55 -55s56 25 56 55c0 31 -25 56 -56 56s-55 -25 -55 -56z" />
    <glyph glyph-name="cedilla" unicode="&#xb8;" 
d="M134 -192v52c51 -12 89 -18 118 -18c33 0 50 10 50 33c0 26 -21 36 -65 36c-7 0 -13 -1 -20 -1v90h42v-42h8c73 0 109 -28 109 -85c0 -53 -40 -84 -116 -84c-31 0 -73 6 -126 19z" />
    <glyph glyph-name="hungarumlaut" unicode="&#x2dd;" 
d="M149 533l63 133h92l-112 -133h-43zM277 533l76 133h97l-126 -133h-47z" />
    <glyph glyph-name="ogonek" unicode="&#x2db;" 
d="M305 0c-42 -36 -64 -68 -64 -104c0 -28 12 -39 43 -39h46v-76h-47c-76 0 -113 27 -113 88c0 43 31 85 92 131h43z" />
    <glyph glyph-name="caron" unicode="&#x2c7;" 
d="M105 666h60l85 -77l85 77h60l-94 -133h-102z" />
    <glyph glyph-name="emdash" unicode="&#x2014;" horiz-adv-x="1000" 
d="M0 195v71h1000v-71h-1000z" />
    <glyph glyph-name="AE" unicode="&#xc6;" horiz-adv-x="911" 
d="M649 715l41 -99h-262l63 -175h240l38 -102h-239l87 -235h263l39 -104h-377l-68 184h-284l-83 -184h-122l334 715h330zM233 281h206l-60 163c-15 40 -27 79 -35 119c-7 -35 -19 -71 -36 -109z" />
    <glyph glyph-name="ordfeminine" unicode="&#xaa;" horiz-adv-x="437" 
d="M305 554c0 68 -36 106 -96 106s-96 -40 -96 -109s35 -108 95 -108c55 0 97 42 97 111zM382 391h-80v42c-28 -37 -66 -55 -114 -55c-97 0 -159 65 -159 175c0 105 65 173 156 173c57 0 99 -23 117 -64v53h80v-324z" />
    <glyph glyph-name="Lslash" unicode="&#x141;" horiz-adv-x="477" 
d="M89 0v267l-71 -49l-50 70l121 87v340h116v-274l114 80l50 -72l-164 -115v-230h260v-104h-376z" />
    <glyph glyph-name="Oslash" unicode="&#xd8;" horiz-adv-x="866" 
d="M578 579c-45 32 -91 46 -145 46c-69 0 -136 -27 -185 -78c-50 -51 -76 -118 -76 -190c0 -61 16 -111 51 -158zM279 141c43 -34 91 -51 147 -51c78 0 141 26 192 78c50 51 76 117 76 189c0 62 -20 119 -58 167zM114 -36l-61 53l90 96c-63 71 -92 150 -92 244
c0 101 38 194 111 265c72 71 168 110 271 110c77 0 149 -24 222 -71l84 90l63 -51l-86 -92c67 -74 99 -155 99 -251c0 -101 -39 -194 -112 -265c-72 -70 -168 -109 -270 -109c-85 0 -161 25 -231 76z" />
    <glyph glyph-name="OE" unicode="&#x152;" horiz-adv-x="1125" 
d="M687 715h385v-99h-278v-176h278v-102h-278v-234h278v-104h-385l-1 110c-61 -82 -152 -127 -258 -127c-101 0 -194 38 -265 109s-110 163 -110 265s39 194 110 265s164 110 265 110c104 0 190 -41 258 -123zM684 357c0 73 -26 139 -75 190s-114 78 -181 78
c-68 0 -132 -27 -181 -78s-75 -117 -75 -190c0 -72 26 -138 75 -189s113 -78 181 -78s132 27 181 78s75 117 75 189z" />
    <glyph glyph-name="ordmasculine" unicode="&#xba;" horiz-adv-x="441" 
d="M29 553c0 47 20 90 57 123c36 33 84 50 134 50c52 0 99 -17 136 -51c36 -33 56 -75 56 -122c0 -49 -20 -91 -56 -124c-37 -33 -84 -51 -136 -51c-50 0 -98 18 -134 51c-37 33 -57 76 -57 124zM328 552c0 61 -48 108 -107 108c-60 0 -108 -47 -108 -108s48 -108 108 -108
c58 0 107 47 107 108z" />
    <glyph glyph-name="ae" unicode="&#xe6;" horiz-adv-x="862" 
d="M359 146c0 41 -39 70 -107 70s-108 -28 -108 -71c0 -42 36 -69 98 -69c76 0 117 28 117 70zM821 216h-370c5 -87 54 -140 131 -140c68 0 111 29 145 93l89 -50c-52 -93 -127 -138 -232 -138c-77 0 -132 23 -173 76c-43 -48 -111 -76 -192 -76c-115 0 -185 67 -185 162
c0 93 73 154 181 154c54 0 99 -10 139 -34c1 6 1 12 1 18c0 70 -46 108 -135 108c-47 0 -98 -17 -145 -47v99c47 27 96 39 149 39c88 0 145 -21 187 -82c39 53 98 82 173 82c149 0 237 -90 237 -246v-18zM711 287c-8 67 -51 102 -124 102c-69 0 -112 -33 -129 -102h253z" />
    <glyph glyph-name="dotlessi" unicode="&#x131;" horiz-adv-x="262" 
d="M78 0v463h106v-463h-106z" />
    <glyph glyph-name="lslash" unicode="&#x142;" horiz-adv-x="275" 
d="M84 0v272l-54 -38l-47 69l101 72v382h107v-317l54 38l48 -69l-102 -72v-337h-107z" />
    <glyph glyph-name="oslash" unicode="&#xf8;" horiz-adv-x="588" 
d="M73 -26l-39 40l61 62c-37 48 -55 97 -55 153c0 145 109 251 257 251c62 0 114 -19 155 -55l61 62l41 -39l-62 -63c38 -49 56 -98 56 -154c0 -143 -111 -250 -258 -250c-61 0 -113 19 -153 54zM380 353c-24 21 -50 31 -81 31c-87 0 -150 -67 -150 -152c0 -27 7 -54 22 -83
zM207 106c25 -19 52 -28 83 -28c85 0 147 63 147 149c0 28 -7 55 -22 83z" />
    <glyph glyph-name="oe" unicode="&#x153;" horiz-adv-x="949" 
d="M437 230c0 87 -65 154 -144 154s-143 -67 -143 -154s64 -154 143 -154c78 0 144 67 144 154zM485 72c-55 -61 -115 -91 -189 -91c-47 0 -91 12 -129 34c-82 47 -128 125 -128 216c0 66 26 127 73 174c49 48 114 74 187 74c83 0 148 -36 190 -98c40 64 98 98 183 98
c149 0 237 -89 237 -243v-20h-370c5 -87 54 -140 131 -140c68 0 111 29 145 93l89 -50c-52 -93 -128 -138 -232 -138c-83 0 -141 28 -187 91zM799 287c-8 67 -51 102 -124 102c-69 0 -112 -33 -129 -102h253z" />
    <glyph glyph-name="germandbls" unicode="&#xdf;" horiz-adv-x="602" 
d="M250 94c20 -10 41 -15 66 -15c86 0 134 50 134 140c0 95 -55 141 -166 141h-17v98c6 0 11 -1 16 -1c70 0 109 38 109 103c0 74 -36 113 -100 113c-94 0 -106 -60 -106 -174v-499h-106v363h-57v100h57v114c0 110 85 190 216 190c127 0 207 -76 207 -189
c0 -83 -44 -136 -135 -163c124 -6 193 -81 193 -205c0 -145 -80 -229 -227 -229c-32 0 -59 5 -84 19v94z" />
    <glyph glyph-name="Aacute" unicode="&#xc1;" horiz-adv-x="662" 
d="M554 0l-81 184h-283l-83 -184h-122l346 743l346 -743h-123zM233 281h199l-73 163c-8 19 -17 45 -27 81c-9 -36 -18 -62 -26 -81zM262 785l93 133h110l-143 -133h-60z" />
    <glyph glyph-name="Acircumflex" unicode="&#xc2;" horiz-adv-x="662" 
d="M554 0l-81 184h-283l-83 -184h-122l346 743l346 -743h-123zM233 281h199l-73 163c-8 19 -17 45 -27 81c-9 -36 -18 -62 -26 -81zM186 785l94 133h102l94 -133h-60l-85 77l-85 -77h-60z" />
    <glyph glyph-name="Adieresis" unicode="&#xc4;" horiz-adv-x="662" 
d="M554 0l-81 184h-283l-83 -184h-122l346 743l346 -743h-123zM233 281h199l-73 163c-8 19 -17 45 -27 81c-9 -36 -18 -62 -26 -81zM183 865c0 31 27 58 59 58s58 -26 58 -58c0 -35 -24 -60 -58 -60c-33 0 -59 26 -59 60zM361 865c0 31 27 58 59 58s58 -26 58 -58
c0 -35 -24 -60 -58 -60c-33 0 -59 26 -59 60z" />
    <glyph glyph-name="Agrave" unicode="&#xc0;" horiz-adv-x="662" 
d="M554 0l-81 184h-283l-83 -184h-122l346 743l346 -743h-123zM233 281h199l-73 163c-8 19 -17 45 -27 81c-9 -36 -18 -62 -26 -81zM400 785h-60l-143 133h110z" />
    <glyph glyph-name="Aring" unicode="&#xc5;" horiz-adv-x="662" 
d="M233 281h199l-73 163c-8 19 -17 45 -27 81c-9 -36 -18 -62 -26 -81zM554 0l-81 184h-283l-83 -184h-122l334 715h25l333 -715h-123zM216 847c0 65 51 116 115 116s116 -52 116 -116s-51 -115 -116 -115s-115 50 -115 115zM276 847c0 -31 25 -55 56 -55s56 25 56 55
c0 31 -25 56 -56 56s-56 -25 -56 -56z" />
    <glyph glyph-name="Atilde" unicode="&#xc3;" horiz-adv-x="662" 
d="M554 0l-81 184h-283l-83 -184h-122l346 743l346 -743h-123zM233 281h199l-73 163c-8 19 -17 45 -27 81c-9 -36 -18 -62 -26 -81zM474 907c-12 -66 -48 -102 -95 -102c-9 0 -17 1 -26 3l-61 16c-6 1 -12 2 -18 2c-22 0 -35 -9 -42 -33h-44c15 69 45 102 92 102
c9 0 19 -1 30 -4l57 -15c8 -2 16 -2 23 -2c20 0 34 11 40 33h44z" />
    <glyph glyph-name="Ccedilla" unicode="&#xc7;" horiz-adv-x="718" 
d="M656 541c-66 56 -139 84 -220 84c-157 0 -264 -111 -264 -270c0 -157 109 -266 252 -266c85 0 161 30 231 90v-131c-63 -45 -136 -67 -222 -67c-110 0 -204 37 -274 106s-108 165 -108 269c0 105 38 199 109 269s164 107 271 107c86 0 161 -25 231 -74zM308 -192v52
c51 -12 89 -18 118 -18c33 0 50 10 50 33c0 26 -21 36 -65 36c-7 0 -13 -1 -20 -1v90h42v-42h8c73 0 109 -28 109 -85c0 -53 -40 -84 -116 -84c-31 0 -73 6 -126 19z" />
    <glyph glyph-name="Eacute" unicode="&#xc9;" horiz-adv-x="532" 
d="M82 0v715h399v-99h-283v-179h283v-102h-283v-231h283v-104h-399zM214 785l93 133h110l-143 -133h-60z" />
    <glyph glyph-name="Ecircumflex" unicode="&#xca;" horiz-adv-x="532" 
d="M82 0v715h399v-99h-283v-179h283v-102h-283v-231h283v-104h-399zM138 785l94 133h102l94 -133h-60l-85 77l-85 -77h-60z" />
    <glyph glyph-name="Edieresis" unicode="&#xcb;" horiz-adv-x="532" 
d="M82 0v715h399v-99h-283v-179h283v-102h-283v-231h283v-104h-399zM135 865c0 31 27 58 59 58s58 -26 58 -58c0 -35 -24 -60 -58 -60c-33 0 -59 26 -59 60zM313 865c0 31 27 58 59 58s58 -26 58 -58c0 -35 -24 -60 -58 -60c-33 0 -59 26 -59 60z" />
    <glyph glyph-name="Egrave" unicode="&#xc8;" horiz-adv-x="532" 
d="M82 0v715h399v-99h-283v-179h283v-102h-283v-231h283v-104h-399zM352 785h-60l-143 133h110z" />
    <glyph glyph-name="Eth" unicode="&#xd0;" horiz-adv-x="747" 
d="M89 0v353h-89v90h89v272h157c134 0 237 0 324 -67c82 -63 126 -163 126 -291s-44 -227 -126 -290c-83 -64 -177 -67 -293 -67h-188zM205 105h98c79 0 140 4 191 47c54 46 81 115 81 206s-27 160 -81 206c-53 44 -119 47 -205 47h-84v-168h189v-90h-189v-248z" />
    <glyph glyph-name="Euro" unicode="&#x20ac;" horiz-adv-x="604" 
d="M566 158l-4 -119c-53 -38 -114 -58 -180 -58c-152 0 -270 107 -300 284h-82l12 54h65c-1 12 -1 22 -1 33c0 9 1 22 2 39h-78l12 55h72c31 172 150 276 305 276c64 0 120 -21 173 -64v-118c-45 53 -103 81 -164 81c-96 0 -175 -67 -195 -175h285l-17 -55h-277
c-1 -15 -2 -32 -2 -49v-6c0 -2 0 -7 1 -17h255l-18 -54h-230c21 -115 97 -183 192 -183c62 0 118 25 174 76z" />
    <glyph glyph-name="Iacute" unicode="&#xcd;" horiz-adv-x="285" 
d="M84 0v715h116v-715h-116zM74 785l93 133h110l-143 -133h-60z" />
    <glyph glyph-name="Icircumflex" unicode="&#xce;" horiz-adv-x="285" 
d="M84 0v715h116v-715h-116zM-2 785l94 133h102l94 -133h-60l-85 77l-85 -77h-60z" />
    <glyph glyph-name="Idieresis" unicode="&#xcf;" horiz-adv-x="285" 
d="M84 0v715h116v-715h-116zM-5 865c0 31 27 58 59 58s58 -26 58 -58c0 -35 -24 -60 -58 -60c-33 0 -59 26 -59 60zM173 865c0 31 27 58 59 58s58 -26 58 -58c0 -35 -24 -60 -58 -60c-33 0 -59 26 -59 60z" />
    <glyph glyph-name="Igrave" unicode="&#xcc;" horiz-adv-x="285" 
d="M84 0v715h116v-715h-116zM212 785h-60l-143 133h110z" />
    <glyph glyph-name="Ntilde" unicode="&#xd1;" horiz-adv-x="803" 
d="M82 0v743l454 -437c29 -28 54 -57 78 -87v496h107v-743l-463 445c-26 25 -49 52 -69 80v-497h-107zM545 907c-12 -66 -48 -102 -95 -102c-9 0 -17 1 -26 3l-61 16c-6 1 -12 2 -18 2c-22 0 -35 -9 -42 -33h-44c15 69 45 102 92 102c9 0 19 -1 30 -4l57 -15
c8 -2 16 -2 23 -2c20 0 34 11 40 33h44z" />
    <glyph glyph-name="Oacute" unicode="&#xd3;" horiz-adv-x="866" 
d="M815 356c0 -102 -39 -194 -112 -265s-168 -110 -270 -110s-199 39 -271 110c-73 71 -111 163 -111 265s38 194 111 266c73 71 168 109 271 109s197 -38 270 -109c73 -72 112 -165 112 -266zM694 356c0 72 -27 139 -77 190c-49 51 -115 78 -184 78s-135 -27 -185 -78
s-76 -118 -76 -190s26 -138 76 -189s115 -78 185 -78s134 27 184 78s77 117 77 189zM364 785l93 133h110l-143 -133h-60z" />
    <glyph glyph-name="Ocircumflex" unicode="&#xd4;" horiz-adv-x="866" 
d="M815 356c0 -102 -39 -194 -112 -265s-168 -110 -270 -110s-199 39 -271 110c-73 71 -111 163 -111 265s38 194 111 266c73 71 168 109 271 109s197 -38 270 -109c73 -72 112 -165 112 -266zM694 356c0 72 -27 139 -77 190c-49 51 -115 78 -184 78s-135 -27 -185 -78
s-76 -118 -76 -190s26 -138 76 -189s115 -78 185 -78s134 27 184 78s77 117 77 189zM288 785l94 133h102l94 -133h-60l-85 77l-85 -77h-60z" />
    <glyph glyph-name="Odieresis" unicode="&#xd6;" horiz-adv-x="866" 
d="M815 356c0 -102 -39 -194 -112 -265s-168 -110 -270 -110s-199 39 -271 110c-73 71 -111 163 -111 265s38 194 111 266c73 71 168 109 271 109s197 -38 270 -109c73 -72 112 -165 112 -266zM694 356c0 72 -27 139 -77 190c-49 51 -115 78 -184 78s-135 -27 -185 -78
s-76 -118 -76 -190s26 -138 76 -189s115 -78 185 -78s134 27 184 78s77 117 77 189zM285 865c0 31 27 58 59 58s58 -26 58 -58c0 -35 -24 -60 -58 -60c-33 0 -59 26 -59 60zM463 865c0 31 27 58 59 58s58 -26 58 -58c0 -35 -24 -60 -58 -60c-33 0 -59 26 -59 60z" />
    <glyph glyph-name="Ograve" unicode="&#xd2;" horiz-adv-x="866" 
d="M815 356c0 -102 -39 -194 -112 -265s-168 -110 -270 -110s-199 39 -271 110c-73 71 -111 163 -111 265s38 194 111 266c73 71 168 109 271 109s197 -38 270 -109c73 -72 112 -165 112 -266zM694 356c0 72 -27 139 -77 190c-49 51 -115 78 -184 78s-135 -27 -185 -78
s-76 -118 -76 -190s26 -138 76 -189s115 -78 185 -78s134 27 184 78s77 117 77 189zM502 785h-60l-143 133h110z" />
    <glyph glyph-name="Otilde" unicode="&#xd5;" horiz-adv-x="866" 
d="M815 356c0 -102 -39 -194 -112 -265s-168 -110 -270 -110s-199 39 -271 110c-73 71 -111 163 -111 265s38 194 111 266c73 71 168 109 271 109s197 -38 270 -109c73 -72 112 -165 112 -266zM694 356c0 72 -27 139 -77 190c-49 51 -115 78 -184 78s-135 -27 -185 -78
s-76 -118 -76 -190s26 -138 76 -189s115 -78 185 -78s134 27 184 78s77 117 77 189zM576 907c-12 -66 -48 -102 -95 -102c-9 0 -17 1 -26 3l-61 16c-6 1 -12 2 -18 2c-22 0 -35 -9 -42 -33h-44c15 69 45 102 92 102c9 0 19 -1 30 -4l57 -15c8 -2 16 -2 23 -2
c20 0 34 11 40 33h44z" />
    <glyph glyph-name="Scaron" unicode="&#x160;" horiz-adv-x="549" 
d="M41 143l93 43c17 -64 65 -98 138 -98c70 0 113 42 113 106c0 70 -53 87 -127 123c-127 62 -197 110 -197 218c0 115 85 196 215 196c106 0 179 -43 206 -118l-91 -47c-28 44 -61 65 -106 65c-63 0 -102 -36 -102 -90c0 -69 56 -90 136 -127c126 -58 185 -109 185 -212
c0 -133 -89 -221 -237 -221c-122 0 -202 58 -226 162zM130 918h60l85 -77l85 77h60l-94 -133h-102z" />
    <glyph glyph-name="Thorn" unicode="&#xde;" horiz-adv-x="532" 
d="M191 174v-174h-109v715h109v-147h56c78 0 140 -1 190 -37c44 -32 72 -91 72 -160s-28 -129 -72 -161c-48 -34 -106 -36 -179 -36h-67zM191 269h37c107 0 161 12 161 95c0 86 -53 104 -161 104h-37v-199z" />
    <glyph glyph-name="Uacute" unicode="&#xda;" horiz-adv-x="744" 
d="M79 715h115v-434c0 -129 60 -194 178 -194s178 65 178 194v434h116v-445c0 -193 -97 -289 -294 -289s-293 96 -293 289v445zM303 785l93 133h110l-143 -133h-60z" />
    <glyph glyph-name="Ucircumflex" unicode="&#xdb;" horiz-adv-x="744" 
d="M79 715h115v-434c0 -129 60 -194 178 -194s178 65 178 194v434h116v-445c0 -193 -97 -289 -294 -289s-293 96 -293 289v445zM227 785l94 133h102l94 -133h-60l-85 77l-85 -77h-60z" />
    <glyph glyph-name="Udieresis" unicode="&#xdc;" horiz-adv-x="744" 
d="M79 715h115v-434c0 -129 60 -194 178 -194s178 65 178 194v434h116v-445c0 -193 -97 -289 -294 -289s-293 96 -293 289v445zM224 865c0 31 27 58 59 58s58 -26 58 -58c0 -35 -24 -60 -58 -60c-33 0 -59 26 -59 60zM402 865c0 31 27 58 59 58s58 -26 58 -58
c0 -35 -24 -60 -58 -60c-33 0 -59 26 -59 60z" />
    <glyph glyph-name="Ugrave" unicode="&#xd9;" horiz-adv-x="744" 
d="M79 715h115v-434c0 -129 60 -194 178 -194s178 65 178 194v434h116v-445c0 -193 -97 -289 -294 -289s-293 96 -293 289v445zM441 785h-60l-143 133h110z" />
    <glyph glyph-name="Yacute" unicode="&#xdd;" horiz-adv-x="593" 
d="M236 0v327l-241 388h122l150 -243c3 -5 14 -24 30 -57c9 23 19 43 30 60l154 240h116l-246 -388v-327h-115zM228 785l93 133h110l-143 -133h-60z" />
    <glyph glyph-name="Ydieresis" unicode="&#x178;" horiz-adv-x="593" 
d="M236 0v327l-241 388h122l150 -243c3 -5 14 -24 30 -57c9 23 19 43 30 60l154 240h116l-246 -388v-327h-115zM149 865c0 31 27 58 59 58s58 -26 58 -58c0 -35 -24 -60 -58 -60c-33 0 -59 26 -59 60zM327 865c0 31 27 58 59 58s58 -26 58 -58c0 -35 -24 -60 -58 -60
c-33 0 -59 26 -59 60z" />
    <glyph glyph-name="Zcaron" unicode="&#x17d;" horiz-adv-x="576" 
d="M9 0l364 616h-303v99h482l-361 -611h365v-104h-547zM143 918h60l85 -77l85 77h60l-94 -133h-102z" />
    <glyph glyph-name="aacute" unicode="&#xe1;" horiz-adv-x="582" 
d="M406 233c0 97 -48 152 -127 152c-80 0 -129 -58 -129 -156c0 -99 47 -154 127 -154c73 0 129 60 129 158zM509 0h-106v60c-38 -53 -88 -79 -153 -79c-129 0 -211 93 -211 251c0 149 86 247 208 247c76 0 131 -33 156 -92v76h106v-463zM227 533l93 133h110l-143 -133h-60z
" />
    <glyph glyph-name="acircumflex" unicode="&#xe2;" horiz-adv-x="582" 
d="M406 233c0 97 -48 152 -127 152c-80 0 -129 -58 -129 -156c0 -99 47 -154 127 -154c73 0 129 60 129 158zM509 0h-106v60c-38 -53 -88 -79 -153 -79c-129 0 -211 93 -211 251c0 149 86 247 208 247c76 0 131 -33 156 -92v76h106v-463zM151 533l94 133h102l94 -133h-60
l-85 77l-85 -77h-60z" />
    <glyph glyph-name="adieresis" unicode="&#xe4;" horiz-adv-x="582" 
d="M406 233c0 97 -48 152 -127 152c-80 0 -129 -58 -129 -156c0 -99 47 -154 127 -154c73 0 129 60 129 158zM509 0h-106v60c-38 -53 -88 -79 -153 -79c-129 0 -211 93 -211 251c0 149 86 247 208 247c76 0 131 -33 156 -92v76h106v-463zM148 613c0 31 27 58 59 58
s58 -26 58 -58c0 -35 -24 -60 -58 -60c-33 0 -59 26 -59 60zM326 613c0 31 27 58 59 58s58 -26 58 -58c0 -35 -24 -60 -58 -60c-33 0 -59 26 -59 60z" />
    <glyph glyph-name="agrave" unicode="&#xe0;" horiz-adv-x="582" 
d="M406 233c0 97 -48 152 -127 152c-80 0 -129 -58 -129 -156c0 -99 47 -154 127 -154c73 0 129 60 129 158zM509 0h-106v60c-38 -53 -88 -79 -153 -79c-129 0 -211 93 -211 251c0 149 86 247 208 247c76 0 131 -33 156 -92v76h106v-463zM365 533h-60l-143 133h110z" />
    <glyph glyph-name="aring" unicode="&#xe5;" horiz-adv-x="582" 
d="M509 0h-106v60c-38 -53 -88 -79 -153 -79c-129 0 -211 93 -211 251c0 149 86 247 208 247c76 0 131 -33 156 -92v76h106v-463zM406 233c0 97 -48 152 -127 152c-80 0 -129 -58 -129 -156c0 -99 47 -154 127 -154c73 0 129 60 129 158zM161 627c0 65 52 116 116 116
s115 -52 115 -116s-51 -115 -115 -115c-65 0 -116 50 -116 115zM222 627c0 -31 24 -55 55 -55s56 25 56 55c0 31 -25 56 -56 56s-55 -25 -55 -56z" />
    <glyph glyph-name="atilde" unicode="&#xe3;" horiz-adv-x="582" 
d="M406 233c0 97 -48 152 -127 152c-80 0 -129 -58 -129 -156c0 -99 47 -154 127 -154c73 0 129 60 129 158zM509 0h-106v60c-38 -53 -88 -79 -153 -79c-129 0 -211 93 -211 251c0 149 86 247 208 247c76 0 131 -33 156 -92v76h106v-463zM439 655c-12 -66 -48 -102 -95 -102
c-9 0 -17 1 -26 3l-61 16c-6 1 -12 2 -18 2c-22 0 -35 -9 -42 -33h-44c15 69 45 102 92 102c9 0 19 -1 30 -4l57 -15c8 -2 16 -2 23 -2c20 0 34 11 40 33h44z" />
    <glyph glyph-name="brokenbar" unicode="&#xa6;" 
d="M207 699h87v-370h-87v370zM207 199h87v-370h-87v370z" />
    <glyph glyph-name="ccedilla" unicode="&#xe7;" horiz-adv-x="454" 
d="M419 331c-32 35 -76 55 -127 55c-86 0 -143 -60 -143 -153c0 -97 56 -155 148 -155c51 0 91 19 122 58v-122c-39 -22 -83 -33 -134 -33c-145 0 -246 102 -246 249c0 149 104 249 257 249c47 0 87 -9 123 -29v-119zM155 -192v52c51 -12 89 -18 118 -18c33 0 50 10 50 33
c0 26 -21 36 -65 36c-7 0 -13 -1 -20 -1v90h42v-42h8c73 0 109 -28 109 -85c0 -53 -40 -84 -116 -84c-31 0 -73 6 -126 19z" />
    <glyph glyph-name="copyright" unicode="&#xa9;" horiz-adv-x="833" 
d="M416 718c98 0 187 -36 257 -106c68 -68 105 -157 105 -255c0 -99 -36 -188 -104 -254c-71 -70 -163 -108 -258 -108s-185 38 -254 107s-107 159 -107 255c0 95 39 186 108 256c68 69 154 105 253 105zM417 665c-84 0 -159 -30 -217 -89c-59 -60 -91 -138 -91 -219
c0 -82 32 -158 91 -217s136 -91 217 -91s158 32 219 92c58 57 89 131 89 216c0 83 -31 160 -89 218c-59 59 -135 90 -219 90zM589 441h-81c-7 48 -41 75 -93 75c-62 0 -103 -56 -103 -159c0 -100 40 -155 108 -155c51 0 85 29 92 82h81c-5 -87 -75 -146 -176 -146
c-118 0 -194 82 -194 216c0 137 79 222 196 222c96 0 164 -55 170 -135z" />
    <glyph glyph-name="degree" unicode="&#xb0;" horiz-adv-x="329" 
d="M165 713c79 0 144 -65 144 -145c0 -78 -64 -144 -145 -144c-80 0 -143 63 -143 144s64 145 144 145zM165 659c-50 0 -91 -40 -91 -90s41 -91 91 -91c51 0 90 42 90 91c0 50 -40 90 -90 90z" />
    <glyph glyph-name="divide" unicode="&#xf7;" horiz-adv-x="833" 
d="M417 551c37 0 67 -31 67 -68c0 -36 -29 -66 -67 -66s-67 29 -67 66s31 68 67 68zM124 339h585v-81h-585v81zM417 179c37 0 67 -30 67 -67c0 -36 -29 -66 -67 -66s-67 29 -67 66s31 67 67 67z" />
    <glyph glyph-name="eacute" unicode="&#xe9;" horiz-adv-x="556" 
d="M409 287c-8 67 -52 102 -125 102c-69 0 -111 -33 -128 -102h253zM519 216h-370c5 -87 54 -138 131 -138c68 0 111 27 145 91l89 -50c-52 -93 -128 -138 -232 -138c-148 0 -243 98 -243 249c0 144 99 249 243 249c149 0 237 -89 237 -243v-20zM213 533l93 133h110
l-143 -133h-60z" />
    <glyph glyph-name="ecircumflex" unicode="&#xea;" horiz-adv-x="556" 
d="M409 287c-8 67 -52 102 -125 102c-69 0 -111 -33 -128 -102h253zM519 216h-370c5 -87 54 -138 131 -138c68 0 111 27 145 91l89 -50c-52 -93 -128 -138 -232 -138c-148 0 -243 98 -243 249c0 144 99 249 243 249c149 0 237 -89 237 -243v-20zM137 533l94 133h102l94 -133
h-60l-85 77l-85 -77h-60z" />
    <glyph glyph-name="edieresis" unicode="&#xeb;" horiz-adv-x="556" 
d="M409 287c-8 67 -52 102 -125 102c-69 0 -111 -33 -128 -102h253zM519 216h-370c5 -87 54 -138 131 -138c68 0 111 27 145 91l89 -50c-52 -93 -128 -138 -232 -138c-148 0 -243 98 -243 249c0 144 99 249 243 249c149 0 237 -89 237 -243v-20zM134 613c0 31 27 58 59 58
s58 -26 58 -58c0 -35 -24 -60 -58 -60c-33 0 -59 26 -59 60zM312 613c0 31 27 58 59 58s58 -26 58 -58c0 -35 -24 -60 -58 -60c-33 0 -59 26 -59 60z" />
    <glyph glyph-name="egrave" unicode="&#xe8;" horiz-adv-x="556" 
d="M409 287c-8 67 -52 102 -125 102c-69 0 -111 -33 -128 -102h253zM519 216h-370c5 -87 54 -138 131 -138c68 0 111 27 145 91l89 -50c-52 -93 -128 -138 -232 -138c-148 0 -243 98 -243 249c0 144 99 249 243 249c149 0 237 -89 237 -243v-20zM351 533h-60l-143 133h110z
" />
    <glyph glyph-name="eth" unicode="&#xf0;" horiz-adv-x="588" 
d="M422 397c-32 70 -73 125 -121 162l-142 -66l-29 57l117 54c-36 28 -75 50 -115 72l53 78c64 -38 118 -72 160 -106l155 70l29 -56l-131 -60c99 -96 151 -215 151 -343c0 -173 -101 -278 -256 -278c-67 0 -131 25 -180 70c-48 44 -74 104 -74 168c0 63 27 122 75 166
c47 44 104 65 173 65c50 0 95 -18 135 -53zM437 216c0 78 -63 140 -143 140c-81 0 -143 -62 -143 -140c0 -77 63 -140 143 -140c79 0 143 63 143 140z" />
    <glyph glyph-name="iacute" unicode="&#xed;" horiz-adv-x="262" 
d="M78 0v463h106v-463h-106zM62 533l93 133h110l-143 -133h-60z" />
    <glyph glyph-name="icircumflex" unicode="&#xee;" horiz-adv-x="262" 
d="M78 0v463h106v-463h-106zM-14 533l94 133h102l94 -133h-60l-85 77l-85 -77h-60z" />
    <glyph glyph-name="idieresis" unicode="&#xef;" horiz-adv-x="262" 
d="M78 0v463h106v-463h-106zM-17 613c0 31 27 58 59 58s58 -26 58 -58c0 -35 -24 -60 -58 -60c-33 0 -59 26 -59 60zM161 613c0 31 27 58 59 58s58 -26 58 -58c0 -35 -24 -60 -58 -60c-33 0 -59 26 -59 60z" />
    <glyph glyph-name="igrave" unicode="&#xec;" horiz-adv-x="262" 
d="M78 0v463h106v-463h-106zM200 533h-60l-143 133h110z" />
    <glyph glyph-name="logicalnot" unicode="&#xac;" horiz-adv-x="833" 
d="M124 421h585v-245h-81v164h-504v81z" />
    <glyph glyph-name="minus" unicode="&#x2212;" horiz-adv-x="833" 
d="M124 340h585v-83h-585v83z" />
    <glyph glyph-name="mu" unicode="&#xb5;" horiz-adv-x="590" 
d="M100 528h112l-61 -310c-4 -19 -6 -36 -6 -51c0 -63 31 -96 89 -96c83 0 124 59 149 186l53 271h110l-71 -361c-6 -31 -9 -52 -9 -65c0 -23 9 -32 33 -32c5 0 11 0 17 1l-16 -78c-23 -6 -47 -8 -73 -8c-48 0 -73 20 -73 61v7c-27 -44 -73 -69 -124 -69s-87 15 -115 53
l-48 -247h-112z" />
    <glyph glyph-name="multiply" unicode="&#xd7;" horiz-adv-x="833" 
d="M197 580l224 -224l225 224l57 -57l-224 -225l224 -224l-57 -58l-225 225l-224 -225l-57 58l224 224l-224 225z" />
    <glyph glyph-name="ntilde" unicode="&#xf1;" horiz-adv-x="588" 
d="M73 0v463h100v-76c43 65 98 92 179 92c69 0 118 -22 145 -65c23 -35 23 -77 23 -133v-281h-107v238c0 103 -13 151 -101 151c-50 0 -90 -19 -112 -52c-19 -28 -21 -68 -21 -126v-211h-106zM445 655c-12 -66 -48 -102 -95 -102c-9 0 -17 1 -26 3l-61 16c-6 1 -12 2 -18 2
c-22 0 -35 -9 -42 -33h-44c15 69 45 102 92 102c9 0 19 -1 30 -4l57 -15c8 -2 16 -2 23 -2c20 0 34 11 40 33h44z" />
    <glyph glyph-name="oacute" unicode="&#xf3;" horiz-adv-x="588" 
d="M39 231c0 67 26 129 75 176c48 47 112 72 179 72c69 0 132 -25 181 -73c48 -47 75 -108 75 -175c0 -69 -26 -130 -74 -176c-50 -48 -113 -74 -182 -74c-67 0 -131 26 -179 73c-49 48 -75 109 -75 177zM437 230c0 87 -64 154 -143 154s-143 -67 -143 -154
s64 -154 143 -154c78 0 143 67 143 154zM225 533l93 133h110l-143 -133h-60z" />
    <glyph glyph-name="ocircumflex" unicode="&#xf4;" horiz-adv-x="588" 
d="M39 231c0 67 26 129 75 176c48 47 112 72 179 72c69 0 132 -25 181 -73c48 -47 75 -108 75 -175c0 -69 -26 -130 -74 -176c-50 -48 -113 -74 -182 -74c-67 0 -131 26 -179 73c-49 48 -75 109 -75 177zM437 230c0 87 -64 154 -143 154s-143 -67 -143 -154
s64 -154 143 -154c78 0 143 67 143 154zM149 533l94 133h102l94 -133h-60l-85 77l-85 -77h-60z" />
    <glyph glyph-name="odieresis" unicode="&#xf6;" horiz-adv-x="588" 
d="M39 231c0 67 26 129 75 176c48 47 112 72 179 72c69 0 132 -25 181 -73c48 -47 75 -108 75 -175c0 -69 -26 -130 -74 -176c-50 -48 -113 -74 -182 -74c-67 0 -131 26 -179 73c-49 48 -75 109 -75 177zM437 230c0 87 -64 154 -143 154s-143 -67 -143 -154
s64 -154 143 -154c78 0 143 67 143 154zM146 613c0 31 27 58 59 58s58 -26 58 -58c0 -35 -24 -60 -58 -60c-33 0 -59 26 -59 60zM324 613c0 31 27 58 59 58s58 -26 58 -58c0 -35 -24 -60 -58 -60c-33 0 -59 26 -59 60z" />
    <glyph glyph-name="ograve" unicode="&#xf2;" horiz-adv-x="588" 
d="M39 231c0 67 26 129 75 176c48 47 112 72 179 72c69 0 132 -25 181 -73c48 -47 75 -108 75 -175c0 -69 -26 -130 -74 -176c-50 -48 -113 -74 -182 -74c-67 0 -131 26 -179 73c-49 48 -75 109 -75 177zM437 230c0 87 -64 154 -143 154s-143 -67 -143 -154
s64 -154 143 -154c78 0 143 67 143 154zM363 533h-60l-143 133h110z" />
    <glyph glyph-name="onehalf" unicode="&#xbd;" horiz-adv-x="928" 
d="M166 309v345h-93l28 51h132v-396h-67zM214 -19l433 741h67l-433 -741h-67zM863 52v-52h-302l168 179c40 43 61 76 61 105c0 40 -28 64 -74 64c-41 0 -70 -24 -74 -62h-70c0 72 58 118 150 118c87 0 140 -42 140 -111c0 -62 -44 -112 -113 -182l-57 -59h171z" />
    <glyph glyph-name="onequarter" unicode="&#xbc;" horiz-adv-x="928" 
d="M166 309v345h-93l28 51h132v-396h-67zM214 -19l433 741h67l-433 -741h-67zM772 0v81h-216l262 323h21v-277h55v-46h-55v-81h-67zM774 270l-114 -143h112v104c0 3 0 17 2 39z" />
    <glyph glyph-name="onesuperior" unicode="&#xb9;" horiz-adv-x="399" 
d="M175 281v370h-98l30 55h137v-425h-69z" />
    <glyph glyph-name="otilde" unicode="&#xf5;" horiz-adv-x="588" 
d="M39 231c0 67 26 129 75 176c48 47 112 72 179 72c69 0 132 -25 181 -73c48 -47 75 -108 75 -175c0 -69 -26 -130 -74 -176c-50 -48 -113 -74 -182 -74c-67 0 -131 26 -179 73c-49 48 -75 109 -75 177zM437 230c0 87 -64 154 -143 154s-143 -67 -143 -154
s64 -154 143 -154c78 0 143 67 143 154zM437 655c-12 -66 -48 -102 -95 -102c-9 0 -17 1 -26 3l-61 16c-6 1 -12 2 -18 2c-22 0 -35 -9 -42 -33h-44c15 69 45 102 92 102c9 0 19 -1 30 -4l57 -15c8 -2 16 -2 23 -2c20 0 34 11 40 33h44z" />
    <glyph glyph-name="plusminus" unicode="&#xb1;" horiz-adv-x="833" 
d="M375 589h83v-163h251v-81h-251v-163h-83v163h-251v81h251v163zM124 89h585v-82h-585v82z" />
    <glyph glyph-name="registered" unicode="&#xae;" horiz-adv-x="833" 
d="M416 718c99 0 189 -37 259 -108c67 -68 103 -156 103 -253c0 -100 -37 -189 -106 -256c-71 -69 -162 -106 -256 -106c-96 0 -187 39 -256 109c-68 69 -105 158 -105 253c0 96 39 188 109 258c68 68 154 103 252 103zM417 665c-84 0 -157 -30 -215 -88
c-60 -61 -93 -139 -93 -220s31 -157 89 -216c59 -59 136 -92 214 -92c85 0 162 31 223 90c58 56 90 132 90 213c0 87 -30 162 -88 221c-60 60 -135 92 -220 92zM269 566h156c114 0 171 -39 171 -110c0 -59 -32 -99 -90 -112l90 -183h-97l-80 169h-63v-169h-87v405zM356 511
v-127h57c64 0 94 18 94 62c0 46 -32 65 -98 65h-53z" />
    <glyph glyph-name="scaron" unicode="&#x161;" horiz-adv-x="426" 
d="M20 84l88 48c13 -46 48 -71 104 -71c48 0 76 24 76 61c0 48 -46 52 -110 79c-88 37 -133 73 -133 140c0 80 67 139 177 139c73 0 125 -28 148 -76l-75 -52c-11 29 -40 48 -77 48c-41 0 -67 -21 -67 -53c0 -45 50 -52 122 -81c81 -32 119 -70 119 -137
c0 -90 -68 -148 -189 -148c-90 0 -149 33 -183 103zM68 666h60l85 -77l85 77h60l-94 -133h-102z" />
    <glyph glyph-name="thorn" unicode="&#xfe;" horiz-adv-x="582" 
d="M179 60v-278h-106v975h106v-370c25 59 81 92 157 92c122 0 207 -98 207 -247c0 -158 -82 -251 -211 -251c-65 0 -115 26 -153 79zM176 233c0 -99 55 -158 130 -158c80 0 126 55 126 154c0 98 -49 156 -129 156c-79 0 -127 -55 -127 -152z" />
    <glyph glyph-name="threequarters" unicode="&#xbe;" horiz-adv-x="928" 
d="M29 416h70v-3c0 -37 30 -61 79 -61c54 0 85 25 85 71c0 48 -31 72 -91 72c-4 0 -9 -1 -14 -1v53c5 0 9 -1 13 -1c53 0 81 20 81 59c0 34 -26 56 -67 56c-45 0 -70 -19 -72 -54h-66c5 68 53 106 139 106c84 0 135 -41 135 -106c0 -49 -29 -82 -78 -89
c57 -9 88 -45 88 -104c0 -69 -58 -116 -156 -116c-86 0 -144 46 -146 118zM214 -19l433 741h67l-433 -741h-67zM772 0v81h-216l262 323h21v-277h55v-46h-55v-81h-67zM774 270l-114 -143h112v104c0 3 0 17 2 39z" />
    <glyph glyph-name="threesuperior" unicode="&#xb3;" horiz-adv-x="399" 
d="M30 396h74v-4c0 -39 31 -65 82 -65c58 0 90 27 90 76c0 51 -32 77 -96 77h-14v56c4 0 9 -1 14 -1c55 0 84 21 84 63c0 37 -28 60 -71 60c-46 0 -73 -21 -74 -57h-69c4 72 55 113 145 113c87 0 141 -44 141 -114c0 -52 -30 -88 -81 -95c59 -10 92 -48 92 -111
c0 -75 -61 -124 -164 -124c-90 0 -150 48 -153 126z" />
    <glyph glyph-name="trademark" unicode="&#x2122;" horiz-adv-x="833" 
d="M110 713h228v-46h-82v-219h-63v219h-83v46zM395 713h83l69 -176l65 176h83v-265h-56v209l-78 -209h-29l-81 209v-209h-56v265z" />
    <glyph glyph-name="twosuperior" unicode="&#xb2;" horiz-adv-x="399" 
d="M330 337v-56h-316l176 192c42 46 63 82 63 113c0 42 -29 68 -77 68c-43 0 -74 -26 -77 -66h-74c0 76 61 126 157 126c91 0 147 -45 147 -119c0 -67 -47 -120 -118 -195l-61 -63h180z" />
    <glyph glyph-name="uacute" unicode="&#xfa;" horiz-adv-x="588" 
d="M176 463v-261c0 -87 32 -126 118 -126s118 39 118 126v261h106v-229c0 -173 -64 -253 -223 -253c-162 0 -225 79 -225 253v229h106zM225 533l93 133h110l-143 -133h-60z" />
    <glyph glyph-name="ucircumflex" unicode="&#xfb;" horiz-adv-x="588" 
d="M176 463v-261c0 -87 32 -126 118 -126s118 39 118 126v261h106v-229c0 -173 -64 -253 -223 -253c-162 0 -225 79 -225 253v229h106zM149 533l94 133h102l94 -133h-60l-85 77l-85 -77h-60z" />
    <glyph glyph-name="udieresis" unicode="&#xfc;" horiz-adv-x="588" 
d="M176 463v-261c0 -87 32 -126 118 -126s118 39 118 126v261h106v-229c0 -173 -64 -253 -223 -253c-162 0 -225 79 -225 253v229h106zM146 613c0 31 27 58 59 58s58 -26 58 -58c0 -35 -24 -60 -58 -60c-33 0 -59 26 -59 60zM324 613c0 31 27 58 59 58s58 -26 58 -58
c0 -35 -24 -60 -58 -60c-33 0 -59 26 -59 60z" />
    <glyph glyph-name="ugrave" unicode="&#xf9;" horiz-adv-x="588" 
d="M176 463v-261c0 -87 32 -126 118 -126s118 39 118 126v261h106v-229c0 -173 -64 -253 -223 -253c-162 0 -225 79 -225 253v229h106zM363 533h-60l-143 133h110z" />
    <glyph glyph-name="yacute" unicode="&#xfd;" horiz-adv-x="471" 
d="M153 -218h-109l127 258l-170 423h117l85 -240c11 -31 18 -62 22 -91c7 27 20 55 33 84l114 247h115zM167 533l93 133h110l-143 -133h-60z" />
    <glyph glyph-name="ydieresis" unicode="&#xff;" horiz-adv-x="471" 
d="M153 -218h-109l127 258l-170 423h117l85 -240c11 -31 18 -62 22 -91c7 27 20 55 33 84l114 247h115zM88 613c0 31 27 58 59 58s58 -26 58 -58c0 -35 -24 -60 -58 -60c-33 0 -59 26 -59 60zM266 613c0 31 27 58 59 58s58 -26 58 -58c0 -35 -24 -60 -58 -60
c-33 0 -59 26 -59 60z" />
    <glyph glyph-name="zcaron" unicode="&#x17e;" horiz-adv-x="449" 
d="M429 0h-430l258 370h-232v93h404l-252 -370h252v-93zM80 666h60l85 -77l85 77h60l-94 -133h-102z" />
    </font>
</defs>
</svg>
