<?xml version="1.0" standalone="no"?>
<!DOCTYPE svg PUBLIC "-//W3C//DTD SVG 1.1//EN" "http://www.w3.org/Graphics/SVG/1.1/DTD/svg11.dtd" >
<svg xmlns="http://www.w3.org/2000/svg" xmlns:xlink="http://www.w3.org/1999/xlink" version="1.1">
<metadata>
Created by FontForge 20170731 at Fri Jun 13 04:14:47 2014
 By ,,,
Created with FontForge 2.0 (http://fontforge.sf.net)
</metadata>
<defs>
<font id="Eligible-Bold" horiz-adv-x="1379" >
  <font-face 
    font-family="Eligible"
    font-weight="700"
    font-stretch="ultra-condensed"
    units-per-em="2048"
    panose-1="2 6 8 3 0 0 0 0 0 0"
    ascent="1483"
    descent="-565"
    x-height="973"
    cap-height="1373"
    bbox="-407 -897 9037 2553"
    underline-thickness="150"
    underline-position="-500"
    unicode-range="U+0020-FB04"
  />
<missing-glyph horiz-adv-x="2248" 
d="M274 -399h-74v100h-100v74h100v76h-100v74h100v1558h-100v75h100v75h-100v75h100v100h74v-100h76v100h74v-100h1400v100h74v-100h76v100h74v-100h100v-75h-100v-75h100v-75h-100v-1558h100v-74h-100v-76h100v-74h-100v-100h-74v100h-76v-100h-74v100h-1400v-100h-74v100
h-76v-100zM350 1558v75h-76v-75h76zM350 1483h-76v-1558h76v1558zM350 -149h-76v-76h76v76zM1898 -149v-76h76v76h-76zM1898 1483v-1558h76v1558h-76zM1898 1558h76v75h-76v-75zM1824 1633h-1400v-75h1400v75zM1824 1483h-1400v-1558h1400v1558zM1824 -149h-1400v-76h1400
v76zM1169 1433q195 0 319 -136t124 -336q0 -83 -28.5 -159t-77 -133t-111 -99t-132.5 -65v-140h-200v314h25q65 0 121 17.5t101.5 52.5t72 93.5t26.5 135.5q0 107 -71 182t-177 75q-80 0 -139.5 -52.5t-76.5 -126.5l-5 -24l-195 40l6 24q30 148 141.5 242.5t276.5 94.5z
M1161 201q55 0 89 -34t34 -89t-34 -89t-89 -34t-89 34t-34 89t34 89t89 34z" />
    <glyph glyph-name=".notdef" horiz-adv-x="2248" 
d="M274 -399h-74v100h-100v74h100v76h-100v74h100v1558h-100v75h100v75h-100v75h100v100h74v-100h76v100h74v-100h1400v100h74v-100h76v100h74v-100h100v-75h-100v-75h100v-75h-100v-1558h100v-74h-100v-76h100v-74h-100v-100h-74v100h-76v-100h-74v100h-1400v-100h-74v100
h-76v-100zM350 1558v75h-76v-75h76zM350 1483h-76v-1558h76v1558zM350 -149h-76v-76h76v76zM1898 -149v-76h76v76h-76zM1898 1483v-1558h76v1558h-76zM1898 1558h76v75h-76v-75zM1824 1633h-1400v-75h1400v75zM1824 1483h-1400v-1558h1400v1558zM1824 -149h-1400v-76h1400
v76zM1169 1433q195 0 319 -136t124 -336q0 -83 -28.5 -159t-77 -133t-111 -99t-132.5 -65v-140h-200v314h25q65 0 121 17.5t101.5 52.5t72 93.5t26.5 135.5q0 107 -71 182t-177 75q-80 0 -139.5 -52.5t-76.5 -126.5l-5 -24l-195 40l6 24q30 148 141.5 242.5t276.5 94.5z
M1161 201q55 0 89 -34t34 -89t-34 -89t-89 -34t-89 34t-34 89t34 89t89 34z" />
    <glyph glyph-name=".null" horiz-adv-x="0" 
 />
    <glyph glyph-name="nonmarkingreturn" horiz-adv-x="682" 
 />
    <glyph glyph-name="space" unicode=" " horiz-adv-x="512" 
 />
    <glyph glyph-name="exclam" unicode="!" horiz-adv-x="346" 
d="M277 288h-160l-20 1129h200zM75 78q0 58 32.5 90.5t90.5 32.5t90.5 -32.5t32.5 -90.5t-32.5 -90.5t-90.5 -32.5t-90.5 32.5t-32.5 90.5z" />
    <glyph glyph-name="quotedbl" unicode="&#x22;" horiz-adv-x="567" 
d="M295 1400h197v-418h-197v418zM50 1400h197v-418h-197v418z" />
    <glyph glyph-name="numbersign" unicode="#" horiz-adv-x="1150" 
d="M248 1398h200v-356h250v356h200v-356h177v-200h-177v-300h177v-200h-177v-367h-200v367h-250v-367h-200v367h-173v200h173v300h-173v200h173v356zM698 542v300h-250v-300h250z" />
    <glyph glyph-name="dollar" unicode="$" horiz-adv-x="1261" 
d="M742 -20v-176h-219v175q-222 21 -408 104l-15 7v308h197v-182q148 -48 337 -48q66 0 101 1t77 4.5t61.5 12t41 22t30 36t14 52.5t5.5 72q0 57 -19 98t-54.5 65.5t-79.5 40t-102 25.5t-112.5 18t-120 22t-116.5 33q-47 19 -76.5 33.5t-65 41t-55 57.5t-33.5 79t-14 109
q0 111 53.5 197t144 137t209.5 67v177h219v-176q187 -26 340 -119l12 -7v-290h-199v191q-123 53 -257 53q-150 0 -237.5 -57t-87.5 -168q0 -36 14 -64.5t43 -47.5t62 -32.5t82 -24.5t91.5 -18t102 -17.5t102.5 -19.5q284 -66 336 -276q15 -57 15 -139q0 -89 -31.5 -158
t-89 -113.5t-131.5 -70t-167 -34.5z" />
    <glyph glyph-name="percent" unicode="%" horiz-adv-x="1878" 
d="M1396 641q-68 0 -125.5 -65.5t-57.5 -167.5t57.5 -167.5t125.5 -65.5q69 0 125.5 65.5t56.5 167.5t-56.5 167.5t-125.5 65.5zM1396 -25q-85 0 -159.5 36.5t-124.5 96.5t-79 138.5t-29 161.5t29 161.5t79 138.5t124.5 96.5t159.5 36.5q84 0 156.5 -36.5t121 -96.5
t76.5 -138.5t28 -161.5t-28 -161.5t-76.5 -138.5t-121 -96.5t-156.5 -36.5zM482 1328q-69 0 -125.5 -65.5t-56.5 -167.5t56.5 -167.5t125.5 -65.5q68 0 125.5 65.5t57.5 167.5t-57.5 167.5t-125.5 65.5zM482 662q-84 0 -156.5 36.5t-121 96.5t-76.5 138.5t-28 161.5
t28 161.5t76.5 138.5t121 96.5t156.5 36.5q85 0 159.5 -36.5t124.5 -96.5t79 -138.5t29 -161.5t-29 -161.5t-79 -138.5t-124.5 -96.5t-159.5 -36.5zM1537 1446l-1019 -1520l-177 103l1019 1520z" />
    <glyph glyph-name="ampersand" unicode="&#x26;" horiz-adv-x="1301" 
d="M391 808q-10 13 -39 49t-44 56t-39 57.5t-36.5 68t-22.5 71.5t-10 83q0 92 48 169.5t127.5 121.5t170.5 44q96 -1 178 -47.5t131 -127.5t49 -177q0 -49 -13.5 -96t-32.5 -82t-49 -71.5t-53 -59t-54 -50.5l-44 -38l253 -361q15 64 15 178v150h300v-200h-100
q-2 -88 -17 -161t-29.5 -106t-30.5 -57l130 -185l-163 -115l-107 152q-71 -50 -163 -77t-194 -27q-87 0 -170 24t-152.5 69.5t-112 121t-42.5 168.5q0 38 8 74.5t20 65.5t32 60t37.5 52.5t44.5 48t44.5 41.5t45 39t39.5 35zM274 355q0 -88 81.5 -136.5t195.5 -48.5
q146 0 243 67l-286 408l-28 -26q-10 -8 -42.5 -36t-48 -42t-42 -41t-39.5 -47t-23.5 -46.5t-10.5 -51.5zM548 1328q-61 0 -104 -39.5t-43 -96.5q0 -19 4 -38t14 -39.5t18 -35.5t24.5 -37.5t24.5 -33.5t28.5 -35.5t25.5 -30.5l28 25q33 28 51 45.5t41 45.5t33.5 57t10.5 61
q0 62 -46.5 107t-109.5 45z" />
    <glyph glyph-name="quotesingle" unicode="'" horiz-adv-x="297" 
d="M25 1350h197v-418h-197v418z" />
    <glyph glyph-name="parenleft" unicode="(" horiz-adv-x="438" 
d="M291 -254q-266 418 -266 904t266 904l13 22l168 -110l-13 -20q-234 -368 -234 -796q0 -430 234 -796l13 -20l-168 -110z" />
    <glyph glyph-name="parenright" unicode=")" horiz-adv-x="438" 
d="M184 -276l-168 110l13 20q234 366 234 796q0 428 -234 796l-13 20l168 110l13 -22q266 -418 266 -904t-266 -904z" />
    <glyph glyph-name="asterisk" unicode="*" horiz-adv-x="718" 
d="M602 1266l48 -149l-211 -57l141 -165l-130 -94l-116 183l-116 -183l-129 93l140 169l-211 53l48 150l204 -80l-15 217h157l-11 -217z" />
    <glyph glyph-name="plus" unicode="+" horiz-adv-x="950" 
d="M75 517v200h300v300h200v-300h300v-200h-300v-300h-200v300h-300z" />
    <glyph glyph-name="comma" unicode="," horiz-adv-x="306" 
d="M102 296l186 -67l-143 -393l-185 67z" />
    <glyph glyph-name="hyphen" unicode="-" horiz-adv-x="650" 
d="M75 517v200h500v-200h-500z" />
    <glyph glyph-name="period" unicode="." horiz-adv-x="321" 
d="M25 78q0 58 32.5 90.5t90.5 32.5t90.5 -32.5t32.5 -90.5t-32.5 -90.5t-90.5 -32.5t-90.5 32.5t-32.5 90.5z" />
    <glyph glyph-name="slash" unicode="/" horiz-adv-x="936" 
d="M173 -189l-181 83l771 1670l181 -83z" />
    <glyph glyph-name="zero" unicode="0" horiz-adv-x="1202" 
d="M300 721q0 -61 3 -112.5t11.5 -108.5t22 -102t36.5 -87t53.5 -70t74.5 -44.5t98 -16.5q55 0 99.5 17t75.5 45t54.5 70.5t37 88.5t22 103.5t11.5 110t3 114.5q0 74 -8.5 138.5t-30 125.5t-54.5 104.5t-86 69.5t-121 26t-121.5 -27t-87 -71t-55 -106t-30 -127.5
t-8.5 -140.5zM100 725q0 72 7.5 140t25.5 135.5t45 125.5t67 107.5t91 84.5t119 55t147.5 20t147 -19.5t118 -54.5t90.5 -84t67 -106.5t44.5 -124.5t25 -134.5t7.5 -140.5q0 -81 -6 -154t-21.5 -150.5t-39.5 -141t-63.5 -121t-90.5 -97t-122.5 -62.5t-157.5 -23t-157.5 22.5
t-122.5 61.5t-90.5 96t-63.5 120.5t-39.5 140t-21.5 149.5t-6 155z" />
    <glyph glyph-name="one" unicode="1" horiz-adv-x="1016" 
d="M408 197v928l-308 -120v218l540 187v-1213h276v-197h-792v197h284z" />
    <glyph glyph-name="two" unicode="2" horiz-adv-x="1188" 
d="M100 97q1 94 28 174.5t72 139.5t102.5 109.5t120.5 89.5t126 75t120 70.5t101 70.5t70 81t26 97q0 59 -44 103t-111 65.5t-144 21.5q-70 0 -140.5 -17.5t-126.5 -48.5v-161h-200v264l10 8q88 68 210.5 111.5t240.5 43.5q77 0 150.5 -15t138 -46.5t112.5 -75.5t76 -106.5
t28 -134.5q0 -74 -23.5 -138t-63.5 -112.5t-92.5 -91.5t-111.5 -78.5t-119 -69t-117 -69t-103 -72.5t-79.5 -84.5t-44.5 -100.5h576v100h200v-300h-988v97z" />
    <glyph glyph-name="three" unicode="3" horiz-adv-x="1162" 
d="M302 394q19 -95 96.5 -155t194.5 -60q116 0 194.5 67.5t78.5 168.5q0 91 -74.5 154.5t-183.5 63.5q-101 0 -192 -18l-61 -12l368 580h-394v-150h-200v340h943l-330 -564q147 -40 236 -146t89 -261q0 -119 -62.5 -215.5t-173.5 -151t-248 -54.5q-99 0 -183 29t-142.5 80.5
t-97 118.5t-55.5 145l-5 24l197 41z" />
    <glyph glyph-name="four" unicode="4" horiz-adv-x="1224" 
d="M1013 512h111v-200h-111v-312h-200v312h-713v149l735 917h178v-866zM386 512h420v516z" />
    <glyph glyph-name="five" unicode="5" horiz-adv-x="1210" 
d="M346 877q92 48 214 48q114 0 217 -37t178 -100t119.5 -153t44.5 -191q0 -130 -69.5 -237.5t-190 -168.5t-266.5 -61q-167 0 -290 73.5t-190 188.5l-13 22l173 101l13 -21q41 -71 122 -117.5t186 -46.5q88 0 163 35.5t118.5 97t43.5 134.5q0 77 -49 142t-131 102t-177 37
q-70 0 -137 -20.5t-119 -58.5l-160 -121v853h921v-325h-201v125h-520v-301z" />
    <glyph glyph-name="six" unicode="6" horiz-adv-x="1251" 
d="M644 180q127 0 217 73.5t90 178.5q0 71 -43.5 132t-116.5 95.5t-158 34.5q-119 0 -214 -56t-113 -130q16 -149 101.5 -238.5t236.5 -89.5zM305 776q165 118 328 118q105 0 200.5 -36t165 -97t111 -147t41.5 -181q0 -125 -66.5 -229t-183 -164t-256.5 -60
q-117 0 -209.5 35t-154.5 95.5t-103.5 145.5t-59.5 181t-18 207q0 126 20 234.5t67 205t117.5 165t177 108t240.5 39.5q74 0 142 -15t109.5 -33t77.5 -42.5t47 -34.5t18 -17v-1l6 -7v-258h-200v161q-92 47 -199 47q-102 0 -179 -31t-125.5 -88.5t-76.5 -132t-37 -168.5z" />
    <glyph glyph-name="seven" unicode="7" horiz-adv-x="1112" 
d="M1012 1209l-3 -6q-167 -288 -308 -601t-207 -582l-4 -20h-205l5 28q61 308 189 603t308 547h-487v-225h-200v420h912v-164z" />
    <glyph glyph-name="eight" unicode="8" horiz-adv-x="1148" 
d="M578 579q-63 0 -127 -31t-107.5 -86.5t-43.5 -117.5q0 -51 38 -89t99 -56.5t135 -18.5q75 0 137 19.5t100.5 58t38.5 90.5q0 61 -42 115.5t-104 85t-124 30.5zM108 1031q0 83 37.5 153t100.5 115.5t145 71t172 25.5q92 0 175.5 -26t147.5 -72.5t102 -117t38 -155.5
q0 -189 -233 -335q255 -145 255 -346q0 -70 -26 -129.5t-71 -102t-105 -73t-130 -45t-144 -14.5t-142.5 14.5t-128.5 44.5t-105 72t-70.5 101t-25.5 128q0 199 256 346q-49 29 -88 59.5t-78 73t-60.5 97t-21.5 115.5zM308 1025q0 -62 41.5 -116t103.5 -84.5t123 -30.5
q58 0 115 30t95 83t38 113q0 79 -76 126.5t-185 47.5q-106 0 -180.5 -47t-74.5 -122z" />
    <glyph glyph-name="nine" unicode="9" horiz-adv-x="1251" 
d="M607 1196q-127 0 -217 -73.5t-90 -178.5q0 -71 43.5 -132t116.5 -95.5t158 -34.5q119 0 214 56t113 130q-16 149 -101.5 238.5t-236.5 89.5zM946 600q-165 -118 -328 -118q-105 0 -200.5 36t-165 97t-111 147t-41.5 181q0 125 66.5 229t183 164t256.5 60q117 0 209.5 -35
t154.5 -95.5t103.5 -145.5t59.5 -181t18 -207q0 -126 -20 -234.5t-67 -205t-117.5 -165t-177 -108t-240.5 -39.5q-75 0 -143.5 15t-110 33.5t-77.5 43t-46.5 34.5t-16.5 17l-6 7v258h200v-161q92 -47 199 -47q102 0 179 31t125.5 88.5t76.5 132t37 168.5z" />
    <glyph glyph-name="colon" unicode=":" horiz-adv-x="321" 
d="M25 828q0 58 32.5 90.5t90.5 32.5t90.5 -32.5t32.5 -90.5t-32.5 -90.5t-90.5 -32.5t-90.5 32.5t-32.5 90.5zM25 78q0 58 32.5 90.5t90.5 32.5t90.5 -32.5t32.5 -90.5t-32.5 -90.5t-90.5 -32.5t-90.5 32.5t-32.5 90.5z" />
    <glyph glyph-name="semicolon" unicode=";" horiz-adv-x="378" 
d="M135 246l186 -67l-143 -393l-185 67zM82 828q0 58 32.5 90.5t90.5 32.5t90.5 -32.5t32.5 -90.5t-32.5 -90.5t-90.5 -32.5t-90.5 32.5t-32.5 90.5z" />
    <glyph glyph-name="less" unicode="&#x3c;" horiz-adv-x="812" 
d="M744 258l-133 -149l-547 487l542 542l141 -141l-393 -393z" />
    <glyph glyph-name="equal" unicode="=" horiz-adv-x="950" 
d="M75 667v200h800v-200h-800zM75 367v200h800v-200h-800z" />
    <glyph glyph-name="greater" unicode="&#x3e;" horiz-adv-x="812" 
d="M68 258l390 346l-393 393l141 141l542 -542l-547 -487z" />
    <glyph glyph-name="question" unicode="?" horiz-adv-x="962" 
d="M444 1433q195 0 319 -136t124 -336q0 -83 -28.5 -159t-77 -133t-111 -99t-132.5 -65v-140h-200v314h25q65 0 121 17.5t101.5 52.5t72 93.5t26.5 135.5q0 107 -71 182t-177 75q-80 0 -139.5 -52.5t-76.5 -126.5l-5 -24l-195 40l6 24q30 148 141.5 242.5t276.5 94.5z
M436 201q55 0 89 -34t34 -89t-34 -89t-89 -34t-89 34t-34 89t34 89t89 34z" />
    <glyph glyph-name="at" unicode="@" horiz-adv-x="2048" 
d="M991 154q115 0 194 97.5t79 228.5q0 137 -83 238.5t-206 101.5q-118 0 -196.5 -91.5t-78.5 -217.5q0 -143 83.5 -250t207.5 -107zM1973 440q0 -225 -120 -345t-348 -120h-215v138q-30 -34 -58 -59t-66 -49t-84 -37t-98 -13q-139 0 -251.5 79.5t-171.5 204.5t-59 265
q0 134 56.5 249.5t161 186.5t233.5 71q187 0 337 -161v156h192v-831h23q148 0 208 59t60 206q0 160 -59.5 308.5t-160.5 258.5t-243 176t-298 66q-199 0 -369 -104t-269 -279t-99 -376q0 -159 63 -305.5t169.5 -252.5t253.5 -169.5t308 -63.5q26 0 39 1l26 2l1 -26
q1 -24 4 -74t4 -76l1 -24l-24 -2q-17 -1 -50 -1q-135 0 -263.5 36t-237.5 100t-201 156t-156.5 200.5t-100.5 236.5t-36 261q0 191 74.5 368t199.5 306.5t299 207.5t364 78q198 0 377.5 -82.5t306.5 -220t202 -322.5t75 -384z" />
    <glyph glyph-name="A" unicode="A" horiz-adv-x="1660" 
d="M238 197l497 1176h189l498 -1176h138v-197h-448v197h102l-129 302h-510l-129 -302h101v-197h-447v197h138zM1008 696l-178 416l-178 -416h356z" />
    <glyph glyph-name="B" unicode="B" horiz-adv-x="1313" 
d="M535 882q119 0 209.5 17t143 52t52.5 83q0 41 -33 72.5t-89 49.5t-121 26.5t-137 8.5h-140v-309h115zM955 785q46 -21 91.5 -57t83 -81t60.5 -99.5t23 -107.5q0 -98 -36.5 -174.5t-99.5 -126t-153 -81.5t-189.5 -45t-217.5 -13h-417v197h123v994h-123v182h417
q65 0 124.5 -3.5t123.5 -14t117.5 -26.5t102.5 -42.5t83 -60.5t54 -83t20 -108q0 -70 -55.5 -142t-131.5 -108zM493 198q77 0 138.5 4t123.5 13.5t107.5 28t81 45t54 66t18.5 90.5q0 66 -42.5 115.5t-117 78t-165.5 42.5t-198 14h-73v-497h73z" />
    <glyph glyph-name="C" unicode="C" horiz-adv-x="1237" 
d="M763 -20q-159 0 -293.5 52t-226 142.5t-142.5 215t-51 267.5q0 148 59 280t161.5 228t249.5 152t316 56q54 0 129 -14.5t106 -23.5t49 -15l17 -6v-275h-197v127q-48 8 -100 8q-125 0 -235 -40t-188 -109t-123 -165.5t-45 -206.5q0 -100 38.5 -187.5t106 -150.5t164 -99.5
t207.5 -36.5q137 0 241 63l21 13l102 -167l-21 -13q-152 -95 -345 -95z" />
    <glyph glyph-name="D" unicode="D" horiz-adv-x="1457" 
d="M493 1373q146 0 281 -28.5t250 -86.5t200.5 -139t134 -192t48.5 -240q0 -130 -48.5 -241.5t-134 -192.5t-200.5 -138.5t-250 -86t-281 -28.5h-393v197h123v994h-123v182h393zM493 197q112 0 217 21t195.5 62.5t158.5 99.5t106.5 137t38.5 170q0 90 -39.5 170t-108.5 140
t-159 104.5t-195 67t-214 22.5h-73v-994h73z" />
    <glyph glyph-name="E" unicode="E" horiz-adv-x="1230" 
d="M429 770h346v124h207v-443h-207v122h-346v-376h504v98h197v-295h-1030v197h123v998h-123v177h1030v-275h-197v98h-504v-425z" />
    <glyph glyph-name="F" unicode="F" horiz-adv-x="1230" 
d="M429 197h149v-197h-478v197h123v993h-123v182h1030v-280h-197v98h-504v-419h346v123h207v-443h-207v123h-346v-377z" />
    <glyph glyph-name="G" unicode="G" horiz-adv-x="1237" 
d="M840 1174q-125 0 -235 -40t-188 -109t-123 -165.5t-45 -206.5q0 -100 38.5 -187.5t106 -150.5t164 -99.5t209.5 -36.5q61 0 173 31v363h-325v197h522v-691l-12 -7q-152 -92 -354 -92q-162 0 -298 51.5t-228 141.5t-143.5 214.5t-51.5 269.5q0 148 59 280t161.5 228
t249.5 152t316 56q54 0 129 -14.5t106 -23.5t49 -15l17 -6v-275h-197v127q-48 8 -100 8z" />
    <glyph glyph-name="H" unicode="H" horiz-adv-x="1600" 
d="M1500 1373v-182h-123v-994h123v-197h-443v197h123v376h-760v-376h122v-197h-442v197h123v994h-123v182h442v-182h-122v-421h760v421h-123v182h443z" />
    <glyph glyph-name="I" unicode="I" horiz-adv-x="642" 
d="M223 197v996h-123v180h442v-180h-122v-996h122v-197h-442v197h123z" />
    <glyph glyph-name="J" unicode="J" horiz-adv-x="642" 
d="M120 -162h49q99 0 137.5 47.5t38.5 156.5v1151h-245v180h442v-1334q0 -185 -95.5 -291.5t-277.5 -106.5h-49v197z" />
    <glyph glyph-name="K" unicode="K" horiz-adv-x="1453" 
d="M420 710v-513h122v-197h-442v197h123v996h-123v180h442v-180h-122v-289l694 469h204v-180h-140l-475 -320l516 -676h134v-197h-238l-585 791z" />
    <glyph glyph-name="L" unicode="L" horiz-adv-x="1134" 
d="M420 197h417v98h197v-295h-934v197h123v996h-123v180h442v-180h-122v-996z" />
    <glyph glyph-name="M" unicode="M" horiz-adv-x="2127" 
d="M100 197h131l178 979h-113v197h187l133 15l449 -931l449 932l133 -16h185v-197h-112l177 -979h130v-197h-443v197h113l-146 832l-401 -837h-169l-403 839l-147 -834h112v-197h-443v197z" />
    <glyph glyph-name="N" unicode="N" horiz-adv-x="1526" 
d="M1426 1191h-122v-1191h-198v46l-686 997v-846h147v-197h-467v197h123v994h-123v182h320v-46l686 -998v862h-122v182h442v-182z" />
    <glyph glyph-name="O" unicode="O" horiz-adv-x="1503" 
d="M751 178q112 0 207.5 40.5t160 110.5t101 164.5t36.5 200.5q0 104 -36.5 196.5t-101.5 160t-160 106.5t-207 39t-207 -39t-159.5 -106.5t-101 -159.5t-36.5 -197q0 -107 36.5 -201t101 -164t159.5 -110.5t207 -40.5zM751 1393q159 0 292 -54.5t222 -148.5t138.5 -222
t49.5 -274q0 -117 -31 -224.5t-92 -196t-145 -154.5t-195.5 -102.5t-238.5 -36.5t-238.5 36.5t-195.5 102.5t-144.5 155t-91.5 196t-31 224q0 145 49.5 273t138.5 222.5t222 149t291 54.5z" />
    <glyph glyph-name="P" unicode="P" horiz-adv-x="1313" 
d="M493 1373q126 0 229.5 -13t196.5 -44.5t156.5 -81t100.5 -126.5t37 -178q0 -74 -19.5 -135.5t-54.5 -106.5t-87 -80t-112 -58t-134 -37.5t-150 -20.5t-163 -6h-73v-289h128v-197h-448v197h123v991h-123v185h393zM493 683q77 0 139 4t123.5 13.5t107 28t81 45t54 66
t18.5 90.5q0 58 -28.5 103.5t-76 74.5t-116 47t-142 25.5t-160.5 7.5h-73v-505h73z" />
    <glyph glyph-name="Q" unicode="Q" horiz-adv-x="1511" 
d="M50 694q0 145 49.5 273t138.5 222.5t221.5 149t290.5 54.5q159 0 292 -54.5t222.5 -149t139 -222.5t49.5 -274q0 -129 -41.5 -245.5t-111.5 -208.5l171 -139l-126 -146l-187 154q-184 -128 -408 -128q-126 0 -237.5 36.5t-195.5 102.5t-144.5 155t-91.5 196t-31 224z
M1144 367q52 64 82 148.5t30 178.5q0 104 -36.5 196.5t-102 160t-160.5 106.5t-207 39q-111 0 -206 -39t-160 -106.5t-101 -159.5t-36 -197q0 -107 36 -201t101 -164t160 -110.5t206 -40.5q126 0 238 61l-195 149l133 143z" />
    <glyph glyph-name="R" unicode="R" horiz-adv-x="1313" 
d="M100 1373h417q84 -1 157 -8t145 -21.5t130 -36.5t108 -56t84 -78t53 -103t19 -130q0 -148 -88 -248.5t-231 -142.5l196 -352h117v-197h-241l-320 491q-72 -5 -153 -5h-73v-289h122v-197h-442v197h123v991h-123v185zM493 683q75 0 137 4t123 14t107 28.5t82 45t55 66
t19 89.5q0 57 -28.5 102t-77 74t-116.5 47.5t-142 26.5t-159 8h-73v-505h73z" />
    <glyph glyph-name="S" unicode="S" horiz-adv-x="1261" 
d="M634 175q45 0 72.5 0.5t60.5 2t52.5 4.5t42 8.5t34.5 13t25.5 18.5t20 25.5t12.5 33.5t8 42t2 53q0 38 -11.5 68t-39.5 51.5t-53.5 36t-75 26.5t-80 18t-91.5 16q-52 9 -79.5 13.5t-77 15.5t-77 21t-69 28t-65 37t-51.5 48t-43 62.5t-25 77.5t-10 96q0 93 39.5 169.5
t108.5 127t162 78t201 27.5q127 0 247 -38.5t208 -94.5l12 -7v-302h-199v191q-123 53 -257 53q-150 0 -237.5 -54.5t-87.5 -161.5q0 -32 10.5 -57.5t37 -44.5t49.5 -32t69.5 -25.5t75.5 -19t86 -17.5q54 -10 82 -16t79.5 -19t80.5 -24t72.5 -31t68.5 -41t54.5 -51.5t45 -66
t26.5 -82t11 -99.5q0 -82 -27 -146t-74.5 -106t-116 -70t-146 -40t-169.5 -12q-134 0 -273.5 33t-240.5 79l-14 7v317h197v-188q78 -27 154 -39.5t183 -12.5z" />
    <glyph glyph-name="T" unicode="T" horiz-adv-x="1277" 
d="M297 1089h-197v284h1077v-284h-197v98h-227l15 -990h123v-197h-455v197h123l-35 990h-227v-98z" />
    <glyph glyph-name="U" unicode="U" horiz-adv-x="1579" 
d="M420 496q0 -93 20.5 -154t66.5 -97.5t113.5 -51.5t169.5 -15t169.5 15t113.5 51.5t66.5 97.5t20.5 154v695h-123v182h442v-182h-122v-832q0 -110 -75 -197t-204 -134.5t-288 -47.5q-160 0 -289 47.5t-203.5 134.5t-74.5 197v832h-123v182h442v-182h-122v-695z" />
    <glyph glyph-name="V" unicode="V" horiz-adv-x="1660" 
d="M238 1188h-138v185h456v-185h-107l406 -927l356 927h-108v185h457v-185h-138l-476 -1188h-177z" />
    <glyph glyph-name="W" unicode="W" horiz-adv-x="2274" 
d="M1189 1373v-185h-114l367 -927l386 927h-102v185h448v-185h-138l-512 -1188h-161l-251 591l-251 -591h-161l-462 1188h-138v185h447v-185h-101l334 -925l244 521l-172 404h-137v185h474z" />
    <glyph glyph-name="X" unicode="X" horiz-adv-x="1512" 
d="M1252 197h146v-197h-461v197h80l-264 349l-271 -349h79v-197h-461v197h145l353 493l-353 498h-145v185h461v-185h-80l264 -353l271 353h-79v185h463v-185h-148l-353 -498z" />
    <glyph glyph-name="Y" unicode="Y" horiz-adv-x="1498" 
d="M1252 1188l-388 -523v-468h132v-197h-493v197h132v466l-390 525h-145v185h474v-185h-87l262 -343l262 343h-87v185h474v-185h-146z" />
    <glyph glyph-name="Z" unicode="Z" horiz-adv-x="1352" 
d="M100 136l804 1048h-774v190h1060v-131l-813 -1046h677v98h198v-295h-1152v136z" />
    <glyph glyph-name="bracketleft" unicode="[" horiz-adv-x="500" 
d="M525 -50v-200h-450v1850h450v-200h-250v-1450h250z" />
    <glyph glyph-name="backslash" unicode="\" horiz-adv-x="936" 
d="M763 -189l-771 1670l181 83l771 -1670z" />
    <glyph glyph-name="bracketright" unicode="]" horiz-adv-x="500" 
d="M-25 -50h250v1450h-250v200h450v-1850h-450v200z" />
    <glyph glyph-name="asciicircum" unicode="^" horiz-adv-x="718" 
d="M222 721l-157 125l223 279h142l223 -279l-157 -125l-137 173z" />
    <glyph glyph-name="underscore" unicode="_" horiz-adv-x="1124" 
d="M25 -250v200h1074v-200h-1074z" />
    <glyph glyph-name="grave" unicode="`" horiz-adv-x="517" 
d="M452 753l-156 -125l-231 289l156 125z" />
    <glyph glyph-name="a" unicode="a" horiz-adv-x="1302" 
d="M561 -20q-114 0 -211.5 44.5t-162 118t-101 169t-36.5 197.5q0 91 33.5 176.5t93 152.5t149 107.5t193.5 40.5q196 0 363 -163v158h198v-784h122v-197h-320v140q-33 -34 -63 -58.5t-70.5 -49.5t-88 -38.5t-99.5 -13.5zM249 509q0 -85 38.5 -160.5t111 -122.5t161.5 -47
q82 0 150 42t106 111.5t38 148.5q0 82 -39 154t-111.5 116t-160.5 44q-85 0 -153 -40t-104.5 -105t-36.5 -141z" />
    <glyph glyph-name="b" unicode="b" horiz-adv-x="1307" 
d="M789 986q104 0 193.5 -40.5t148.5 -107.5t92.5 -152.5t33.5 -176.5q0 -102 -36 -197t-100.5 -169t-162 -118.5t-211.5 -44.5q-52 0 -99.5 13.5t-88 38.5t-70.5 50t-63 58v-140h-326v197h123v1110h-123v187h326v-671q77 75 165 119t198 44zM748 179q89 0 161 47
t110.5 122.5t38.5 160.5q0 77 -36.5 142t-104.5 104.5t-153 39.5q-88 0 -160 -44t-111.5 -116t-39.5 -154q0 -79 38 -148.5t106.5 -111.5t150.5 -42z" />
    <glyph glyph-name="c" unicode="c" horiz-adv-x="1092" 
d="M588 -21q-121 0 -222.5 40t-170 108.5t-107 161t-38.5 197.5q0 106 39 200.5t107.5 164t169.5 110t218 40.5q228 0 378 -164l7 -7v-237h-197v153q-84 56 -190 56q-152 0 -244.5 -90.5t-92.5 -227.5q0 -61 25.5 -117t70 -97.5t108.5 -66.5t138 -25q77 0 141.5 33t97.5 81
l15 21l161 -113l-15 -20q-61 -88 -164.5 -144.5t-234.5 -56.5z" />
    <glyph glyph-name="d" unicode="d" horiz-adv-x="1307" 
d="M561 -20q-114 0 -211.5 44.5t-162 118.5t-101 169t-36.5 197q0 91 33.5 176.5t93 152.5t149 107.5t193.5 40.5q196 0 363 -163v484h-133v187h336v-1297h122v-197h-325v140q-33 -34 -63 -58.5t-70.5 -49.5t-88 -38.5t-99.5 -13.5zM249 509q0 -85 38.5 -160.5t111 -122.5
t161.5 -47q82 0 150 42t106 111.5t38 148.5q0 82 -39.5 154t-111.5 116t-160 44q-85 0 -153 -39.5t-104.5 -104.5t-36.5 -142z" />
    <glyph glyph-name="e" unicode="e" horiz-adv-x="1259" 
d="M1159 395h-854q31 -92 130 -154t222 -62q81 0 157 35t124 93l15 20l160 -122q-11 -14 -15 -20q-74 -97 -190.5 -151.5t-250.5 -54.5q-116 0 -220 41t-177.5 109.5t-116.5 162t-43 196.5q0 99 41 190.5t111 159t170.5 108t214.5 40.5t211.5 -37.5t165.5 -102.5t106.5 -155
t38.5 -193v-103zM309 595h639q-25 82 -111 136.5t-199 54.5q-112 0 -203.5 -55t-125.5 -136z" />
    <glyph glyph-name="f" unicode="f" horiz-adv-x="771" 
d="M721 1297h-98q-99 0 -150 -67.5t-51 -192.5v-64h195v-189h-195v-587h122v-197h-442v197h123v587h-125v189h125v64q0 206 106 331.5t292 125.5h98v-197z" />
    <glyph glyph-name="g" unicode="g" horiz-adv-x="1302" 
d="M295 -152q0 -115 68.5 -160t202.5 -45q169 0 242.5 47.5t73.5 181.5v268q-158 -160 -363 -160q-140 0 -248.5 66.5t-164.5 174t-56 236.5q0 105 35.5 200.5t99.5 169t161.5 116.5t214.5 43q172 0 321 -157v137h320v-182h-127v-912q0 -426 -509 -426q-225 0 -346.5 98
t-121.5 304v25h197v-25zM560 787q-140 0 -225.5 -97.5t-85.5 -232.5q0 -122 81.5 -204t212.5 -82q137 0 224 92t87 222q0 129 -80 215.5t-214 86.5z" />
    <glyph glyph-name="h" unicode="h" 
d="M959 638q0 87 -34.5 122t-123.5 35q-114 0 -206.5 -36.5t-150.5 -90.5v-471h123v-197h-442v197h122v1110h-147v187h344v-624q40 40 81 65t112.5 42t168.5 17q162 0 256 -87.5t94 -243.5v-466h123v-197h-442v197h122v441z" />
    <glyph glyph-name="i" unicode="i" horiz-adv-x="666" 
d="M247 197v586h-147v190h344v-776h122v-197h-442v197h123zM321 1071q-58 0 -90.5 32.5t-32.5 90.5t32.5 90.5t90.5 32.5t90.5 -32.5t32.5 -90.5t-32.5 -90.5t-90.5 -32.5z" />
    <glyph glyph-name="j" unicode="j" horiz-adv-x="548" 
d="M325 1071q-58 0 -90.5 32.5t-32.5 90.5t32.5 90.5t90.5 32.5t90.5 -32.5t32.5 -90.5t-32.5 -90.5t-90.5 -32.5zM25 -361h50q99 0 137.5 48.5t38.5 162.5v933h-148v190h345v-1123q0 -190 -96 -299.5t-277 -109.5h-50v198z" />
    <glyph glyph-name="k" unicode="k" horiz-adv-x="1261" 
d="M223 197v1110h-123v187h320v-803l486 277h200v-192h-140l-280 -148l341 -431h134v-197h-239l-420 559l-82 -53v-309h122v-197h-442v197h123z" />
    <glyph glyph-name="l" unicode="l" horiz-adv-x="666" 
d="M247 197v1110h-147v187h344v-1297h122v-197h-442v197h123z" />
    <glyph glyph-name="m" unicode="m" horiz-adv-x="2059" 
d="M959 638q0 87 -34.5 122t-123.5 35q-114 0 -206.5 -36.5t-150.5 -90.5v-471h123v-197h-442v197h122v589h-147v187h344v-103q40 40 81 65t112.5 42t168.5 17q204 0 297 -164q25 35 44 56t50 44.5t67.5 35.5t91.5 20t127 8q177 0 264.5 -85.5t87.5 -245.5v-466h124v-197
h-443v197h122v441q0 88 -34.5 122.5t-125.5 34.5q-191 0 -324 -100q2 -21 2 -41v-457h123v-197h-442v197h122v441z" />
    <glyph glyph-name="n" unicode="n" 
d="M959 638q0 87 -34.5 122t-123.5 35q-114 0 -206.5 -36.5t-150.5 -90.5v-471h123v-197h-442v197h122v589h-147v187h344v-103q40 40 81 65t112.5 42t168.5 17q176 0 263 -85.5t87 -245.5v-466h123v-197h-442v197h122v441z" />
    <glyph glyph-name="o" unicode="o" horiz-adv-x="1132" 
d="M566 -21q-156 0 -275 70t-180 185t-61 256t61 256.5t180 185t275 69.5t275 -70t180 -185t61 -256t-61 -256.5t-180 -185t-275 -69.5zM566 177q88 0 162 44t115.5 116t41.5 153t-41 153t-115 116.5t-163 44.5q-88 0 -162 -44.5t-115.5 -116.5t-41.5 -153t41 -153t115 -116
t163 -44z" />
    <glyph glyph-name="p" unicode="p" horiz-adv-x="1307" 
d="M747 986q114 0 211.5 -44.5t162 -118.5t100.5 -169t36 -197q0 -91 -33.5 -176.5t-92.5 -152.5t-148.5 -107.5t-193.5 -40.5q-196 0 -363 163v-500h132v-197h-453v197h123v1136h-123v187h321v-140q33 34 63 58.5t70.5 49.5t88 38.5t99.5 13.5zM1058 457q0 85 -38.5 160.5
t-110.5 122.5t-161 47q-82 0 -150.5 -42t-106.5 -111.5t-38 -148.5q0 -82 39 -154t111.5 -116t160.5 -44q85 0 153 39.5t104.5 104.5t36.5 142z" />
    <glyph glyph-name="q" unicode="q" horiz-adv-x="1302" 
d="M519 -20q-104 0 -193.5 40.5t-149 107.5t-93 152.5t-33.5 176.5q0 102 36.5 197t101 169t162 118.5t211.5 44.5q52 0 100 -13.5t88.5 -38.5t70.5 -50t62 -58v140h320v-182h-122v-1141h122v-197h-453v197h133v500q-76 -75 -164 -119t-199 -44zM560 787q-89 0 -161.5 -47
t-111 -122.5t-38.5 -160.5q0 -77 36.5 -142t104 -104.5t153.5 -39.5q88 0 160.5 44t111.5 116t39 154q0 79 -38 148t-106 111.5t-150 42.5z" />
    <glyph glyph-name="r" unicode="r" horiz-adv-x="1214" 
d="M439 680v-483h123v-197h-437v197h122v589h-147v187h339v-76q62 45 128.5 70.5t155.5 25.5q126 0 212.5 -40.5t154.5 -121.5l24 -28v-233h-200v157q-37 35 -79 50.5t-113 15.5q-53 0 -103.5 -13.5t-87 -34.5t-57.5 -36t-35 -29z" />
    <glyph glyph-name="s" unicode="s" horiz-adv-x="1018" 
d="M721 302q0 27 -21 45.5t-57 29t-83 19t-98 18t-102.5 21t-98.5 32.5t-83 50t-57 75t-21 105q0 71 37 130t97 97t135 58.5t153 20.5q94 0 187.5 -37t159.5 -93l9 -7v-253h-197v155q-75 38 -160 38q-54 0 -105 -15.5t-85 -44t-34 -63.5q0 -21 17.5 -37t47 -26t69.5 -19.5
t84.5 -17t92 -19t92 -24.5t84.5 -35.5t69.5 -50.5t47 -70t17.5 -94q0 -72 -35 -132t-94.5 -98.5t-136.5 -59.5t-163 -21q-99 0 -199.5 34.5t-174.5 88.5l-11 7v240h197v-132q85 -40 188 -40q97 0 164.5 35t67.5 90z" />
    <glyph glyph-name="t" unicode="t" horiz-adv-x="789" 
d="M689 -20h-69q-184 0 -278.5 103t-94.5 282v419h-147v189h147v245h197v-245h245v-189h-245v-411q0 -101 39 -148t137 -47h69v-198z" />
    <glyph glyph-name="u" unicode="u" 
d="M420 335q0 -87 34.5 -122t123.5 -35q116 0 207.5 36.5t149.5 90.5v483h-123v185h442v-185h-122v-591h147v-197h-344v103q-40 -40 -81 -65t-112.5 -42t-168.5 -17q-162 0 -256 87.5t-94 244.5v477h-123v185h442v-185h-122v-453z" />
    <glyph glyph-name="v" unicode="v" horiz-adv-x="1479" 
d="M234 785h-134v188h468v-188h-112l257 -550l284 550h-111v188h468v-188h-134l-409 -785h-199z" />
    <glyph glyph-name="w" unicode="w" horiz-adv-x="2115" 
d="M2015 973v-188h-134l-421 -785h-168l-253 479l-240 -479h-168l-397 785h-134v188h468v-188h-110l258 -546l239 420l-60 126h-134v188h468v-188h-110l259 -545l281 545h-112v188h468z" />
    <glyph glyph-name="x" unicode="x" horiz-adv-x="1309" 
d="M214 785h-139v188h497v-188h-98l181 -192l181 192h-98v188h496v-188h-139l-284 -298l284 -287h139v-200h-496v200h96l-179 181l-180 -181h97v-200h-497v200h139l284 287z" />
    <glyph glyph-name="y" unicode="y" horiz-adv-x="1454" 
d="M739 -554h-492v200h134l199 396l-346 743h-134v188h468v-188h-112l257 -550l284 550h-111v188h468v-188h-134l-612 -1139h131v-200z" />
    <glyph glyph-name="z" unicode="z" horiz-adv-x="1078" 
d="M300 783v-105h-200v295h849v-135l-543 -643h372v100h200v-295h-863v143l541 640h-356z" />
    <glyph glyph-name="braceleft" unicode="{" horiz-adv-x="591" 
d="M590 -250q-69 0 -127 24t-97.5 65.5t-67 97.5t-40.5 118.5t-13 129.5q0 37 4 107t4 98q0 162 -89 231l-106 83l110 77q82 59 82 197q0 32 -6.5 109.5t-6.5 120.5q0 77 20.5 146.5t59 124.5t101.5 88t141 33h30v-200h-30q-61 0 -91.5 -52t-30.5 -141q0 -37 6.5 -111
t6.5 -119q0 -78 -23 -151.5t-62 -127.5q43 -59 65.5 -140t22.5 -169q0 -39 -4 -104.5t-4 -97.5q0 -108 35 -172.5t110 -64.5h26v-200h-26z" />
    <glyph glyph-name="bar" unicode="|" horiz-adv-x="350" 
d="M275 -250h-200v1850h200v-1850z" />
    <glyph glyph-name="braceright" unicode="}" horiz-adv-x="591" 
d="M1 -250h-26v200h26q75 0 110 64.5t35 172.5q0 32 -4 97.5t-4 104.5q0 88 23 169t65 140q-39 54 -62 127.5t-23 151.5q0 45 6.5 119t6.5 111q0 89 -30.5 141t-91.5 52h-30v200h30q78 0 141 -33t101.5 -88t59 -124.5t20.5 -146.5q0 -43 -6.5 -120.5t-6.5 -109.5
q0 -138 82 -197l110 -77l-106 -83q-89 -69 -89 -231q0 -28 4 -98t4 -107q0 -67 -13 -129.5t-40.5 -118.5t-67 -97.5t-97.5 -65.5t-127 -24z" />
    <glyph glyph-name="asciitilde" unicode="~" horiz-adv-x="964" 
d="M303 1025q52 0 97.5 -17t77.5 -41.5t61 -49t60 -41.5t62 -17q12 0 20 7.5t8 17.5q0 9 -7 16l-16 19l149 133l17 -18q57 -65 57 -150q0 -96 -65.5 -160.5t-163.5 -64.5q-64 0 -119 26t-87.5 57t-73 57t-77.5 26q-12 0 -20 -7.5t-8 -17.5q0 -9 7 -16l16 -19l-149 -133
l-17 18q-57 65 -57 150q0 96 65 160.5t163 64.5z" />
    <glyph glyph-name="uni00A0" unicode="&#xa0;" horiz-adv-x="512" 
 />
    <glyph glyph-name="exclamdown" unicode="&#xa1;" horiz-adv-x="296" 
d="M227 1034l20 -1129h-200l20 1129h160zM25 1244q0 58 32.5 90.5t90.5 32.5t90.5 -32.5t32.5 -90.5t-32.5 -90.5t-90.5 -32.5t-90.5 32.5t-32.5 90.5z" />
    <glyph glyph-name="cent" unicode="&#xa2;" horiz-adv-x="1042" 
d="M678 1066q148 -32 259 -154l7 -7v-237h-197v153q-78 56 -171 56q-136 0 -221 -98t-85 -245q0 -136 89 -233.5t221 -97.5q69 0 128.5 33t92.5 81l15 21l161 -113l-15 -20q-47 -68 -121 -119t-163 -72v-179h-200v179q-119 24 -211.5 98.5t-142 185t-49.5 238.5
q0 130 51 242.5t143 188t209 99.5v179h200v-179z" />
    <glyph glyph-name="sterling" unicode="&#xa3;" horiz-adv-x="1157" 
d="M82 692v200h110q-27 107 -27 191q0 197 124 316t325 119q98 0 197 -26.5t182 -72.5l50 -31v-251h-200v134q-108 48 -228 48q-250 0 -250 -236q0 -84 32 -191h405v-200h-340q33 -115 33 -214q0 -40 -8.5 -78.5t-28 -79t-30.5 -60t-37 -60.5q61 -1 178 -23t158 -22
q55 0 106 26.5t82 69.5l14 21l163 -115l-15 -20q-59 -85 -152.5 -133.5t-198.5 -48.5q-75 0 -194 34.5t-171 34.5q-18 0 -35.5 -2.5t-28 -5t-29 -10.5t-24 -10.5t-27 -14.5t-24.5 -14l-21 -11l-106 165l19 14q7 5 20 15l43.5 33t39 32.5t36.5 37t28 41t24 51t13.5 59.5
t5.5 73q0 78 -43 215h-170z" />
    <glyph glyph-name="currency" unicode="&#xa4;" horiz-adv-x="936" 
d="M375 1048q0 -40 28 -68t68 -28t68 28t28 68t-28 68t-68 28t-68 -28t-28 -68zM204 920q-29 61 -29 128q0 63 26 120l-136 136l141 141l132 -132q62 31 133 31q67 0 128 -29l131 130l141 -141l-131 -132q27 -59 27 -124q0 -71 -31 -133l135 -135l-141 -141l-139 139
q-57 -26 -120 -26q-65 0 -124 27l-141 -140l-141 141z" />
    <glyph glyph-name="yen" unicode="&#xa5;" horiz-adv-x="1348" 
d="M300 217v195h276v87h-276v195h255l-336 519h-144v185h474v-185h-90l215 -340l215 340h-90v185h474v-185h-145l-334 -519h256v-195h-277v-87h277v-195h-277v-45h123v-197h-443v197h123v45h-276z" />
    <glyph glyph-name="brokenbar" unicode="&#xa6;" horiz-adv-x="350" 
d="M75 804v796h200v-796h-200zM275 554v-804h-200v804h200z" />
    <glyph glyph-name="section" unicode="&#xa7;" horiz-adv-x="1098" 
d="M741 739q0 80 -56.5 136.5t-135.5 56.5t-135.5 -56.5t-56.5 -136.5t56 -136t136 -56t136 56t56 136zM552 1337q-110 0 -193.5 -55.5t-83.5 -144.5q0 -46 33 -88q107 83 241 83q163 0 277.5 -115t114.5 -278q0 -77 -29 -148q52 -48 81.5 -112t29.5 -139q0 -94 -41.5 -171
t-110.5 -125t-153.5 -73.5t-174.5 -25.5q-216 0 -397 116l-22 13l109 169l21 -13q62 -39 139.5 -63t152.5 -24q110 0 193.5 55.5t83.5 144.5q0 45 -33 87q-107 -83 -241 -83q-163 0 -277.5 114.5t-114.5 277.5q0 78 29 149q-52 48 -81.5 112t-29.5 139q0 94 42 171.5
t111 125.5t153.5 73.5t174.5 25.5q215 0 397 -117l21 -14l-110 -167l-20 13q-62 39 -139.5 63t-152.5 24z" />
    <glyph glyph-name="dieresis" unicode="&#xa8;" horiz-adv-x="671" 
d="M350 828q0 58 32.5 90.5t90.5 32.5t90.5 -32.5t32.5 -90.5t-32.5 -90.5t-90.5 -32.5t-90.5 32.5t-32.5 90.5zM75 828q0 58 32.5 90.5t90.5 32.5t90.5 -32.5t32.5 -90.5t-32.5 -90.5t-90.5 -32.5t-90.5 32.5t-32.5 90.5z" />
    <glyph glyph-name="copyright" unicode="&#xa9;" horiz-adv-x="1803" 
d="M425 686q0 110 38.5 209.5t104.5 172.5t160 115.5t200 42.5q209 0 359 -164l7 -7v-237h-197v154q-69 55 -171 55q-136 0 -221 -98t-85 -245q0 -136 89 -233.5t221 -97.5q69 0 128.5 33t92.5 81l15 21l161 -113l-15 -20q-60 -87 -161 -144t-220 -57q-145 0 -261.5 71.5
t-180.5 193t-64 267.5zM275 694q0 -142 45.5 -268.5t126 -219.5t198.5 -147t256 -54t256.5 54t199 147t126 219.5t45.5 268.5q0 190 -77 343t-221 242t-329 89t-328.5 -89t-220.5 -242t-77 -343zM1728 694q0 -183 -60.5 -345.5t-167.5 -283t-262.5 -190.5t-336.5 -70
t-336.5 70.5t-262 190.5t-167 283t-60.5 345q0 183 61 344t168 278t262 184.5t335 67.5t335 -67.5t262.5 -184.5t168.5 -278t61 -344z" />
    <glyph glyph-name="ordfeminine" unicode="&#xaa;" horiz-adv-x="936" 
d="M75 1164q0 91 40 173t115.5 134t168.5 52q124 0 228 -103v99h149v-584h86v-153h-235v87q-96 -101 -201 -101q-102 0 -183.5 57t-124.5 147t-43 192zM425 947q68 0 115 58.5t47 138.5q0 83 -49.5 144t-122.5 61q-70 0 -117 -55t-47 -131q0 -87 50 -151.5t124 -64.5z" />
    <glyph glyph-name="guillemotleft" unicode="&#xab;" horiz-adv-x="953" 
d="M935 232l-170 -106l-294 471l290 523l176 -96l-234 -421zM535 232l-170 -106l-294 471l290 523l176 -96l-234 -421z" />
    <glyph glyph-name="logicalnot" unicode="&#xac;" horiz-adv-x="1124" 
d="M25 592v200h1074v-454h-200v254h-874z" />
    <glyph glyph-name="uni00AD" unicode="&#xad;" horiz-adv-x="650" 
d="M125 517v200h500v-200h-500z" />
    <glyph glyph-name="registered" unicode="&#xae;" horiz-adv-x="1803" 
d="M824 1231q74 -1 143 -13.5t134 -40t113.5 -67.5t77.5 -100.5t29 -135.5q0 -110 -50.5 -178t-147.5 -117l132 -256h87v-156h-210l-203 371q-39 -3 -97 -3h-46v-212h88v-156h-357v156h88v736h-88v172h307zM1119 871q0 59 -42.5 98t-106.5 54t-149 15h-38v-326h38
q67 0 117 7t93 23.5t65.5 49t22.5 79.5zM275 694q0 -142 45.5 -268.5t126 -219.5t198.5 -147t256 -54t256.5 54t199 147t126 219.5t45.5 268.5q0 190 -77 343t-221 242t-329 89t-328.5 -89t-220.5 -242t-77 -343zM1728 694q0 -183 -60.5 -345.5t-167.5 -283t-262.5 -190.5
t-336.5 -70t-336.5 70.5t-262 190.5t-167 283t-60.5 345q0 183 61 344t168 278t262 184.5t335 67.5t335 -67.5t262.5 -184.5t168.5 -278t61 -344z" />
    <glyph glyph-name="macron" unicode="&#xaf;" horiz-adv-x="950" 
d="M75 742v200h800v-200h-800z" />
    <glyph glyph-name="degree" unicode="&#xb0;" horiz-adv-x="692" 
d="M225 1223q0 -40 28 -68t68 -28t68 28t28 68t-28 68t-68 28t-68 -28t-28 -68zM25 1223q0 122 87 209t209 87t209 -87t87 -209t-87 -209t-209 -87t-209 87t-87 209z" />
    <glyph glyph-name="plusminus" unicode="&#xb1;" horiz-adv-x="950" 
d="M75 217v200h800v-200h-800zM75 742v200h300v300h200v-300h300v-200h-300v-300h-200v300h-300z" />
    <glyph glyph-name="uni00B2" unicode="&#xb2;" horiz-adv-x="821" 
d="M551 1228q0 63 -43.5 97t-113.5 34q-87 0 -164 -43v-116h-155v221l10 8q62 49 145.5 79.5t159.5 30.5q85 0 161 -30.5t128 -97t52 -155.5q0 -73 -23 -133t-60.5 -101t-83 -75t-93.5 -62.5t-89.5 -56t-73 -62t-42.5 -73.5h326v95h155v-275h-672v103q1 74 18 135.5
t44.5 104.5t63.5 78.5t75 60.5t78.5 47t74.5 41.5t62.5 40t43.5 47t16 57.5z" />
    <glyph glyph-name="uni00B3" unicode="&#xb3;" horiz-adv-x="803" 
d="M407 694q141 0 141 140q0 128 -132 128q-59 0 -85.5 -3t-52.5 -17l-75 -39l258 463h-214v-105h-155v278h645l-226 -411q98 -32 158 -110t60 -190q0 -133 -96 -223t-233 -90q-127 0 -213.5 76t-110.5 191l-6 24l179 42l5 -25q12 -66 47 -97.5t106 -31.5z" />
    <glyph glyph-name="acute" unicode="&#xb4;" horiz-adv-x="517" 
d="M65 753l231 289l156 -125l-231 -289z" />
    <glyph glyph-name="uni00B5" unicode="&#xb5;" horiz-adv-x="1474" 
d="M570 154q94 0 175 39.5t139 97.5v523h-123v185h442v-185h-122v-641h147v-197h-344v103q-61 -61 -132 -92.5t-186 -31.5q-88 0 -147 39v-573h-344v197h147v1196h-122v185h442v-185h-123v-490q0 -93 33.5 -131.5t117.5 -38.5z" />
    <glyph glyph-name="paragraph" unicode="&#xb6;" horiz-adv-x="1153" 
d="M75 1044q0 178 100 266t285 88h618v-185h-75v-1041h75v-197h-275v1238h-100v-1238h-319v197h122v498h-48q-187 0 -285 94.5t-98 279.5z" />
    <glyph glyph-name="periodcentered" unicode="&#xb7;" horiz-adv-x="271" 
d="M0 728q0 58 32.5 90.5t90.5 32.5t90.5 -32.5t32.5 -90.5t-32.5 -90.5t-90.5 -32.5t-90.5 32.5t-32.5 90.5z" />
    <glyph glyph-name="cedilla" unicode="&#xb8;" horiz-adv-x="566" 
d="M206 -275l-141 141l226 226v63h200v-145z" />
    <glyph glyph-name="uni00B9" unicode="&#xb9;" horiz-adv-x="701" 
d="M284 1296l-209 -88v202l386 140v-861h190v-178h-559v178h192v607z" />
    <glyph glyph-name="ordmasculine" unicode="&#xba;" horiz-adv-x="852" 
d="M75 1156q0 161 97.5 271.5t253.5 110.5t253.5 -111t97.5 -271q0 -161 -97.5 -272t-253.5 -111t-253.5 111.5t-97.5 271.5zM602 1156q0 82 -52 143t-124 61t-124 -61t-52 -143t52 -143t124 -61t124 61t52 143z" />
    <glyph glyph-name="guillemotright" unicode="&#xbb;" horiz-adv-x="953" 
d="M418 232l232 371l-234 421l176 96l290 -523l-294 -471zM18 232l232 371l-234 421l176 96l290 -523l-294 -471z" />
    <glyph glyph-name="onequarter" unicode="&#xbc;" horiz-adv-x="1671" 
d="M1596 22v-176h-77v-236h-171v236h-448v116l485 662h134v-602h77zM1348 22v288l-212 -288h212zM284 1296l-209 -88v202l386 140v-861h190v-178h-559v178h192v607zM462 -362l-156 79l950 1939l156 -79z" />
    <glyph glyph-name="onehalf" unicode="&#xbd;" horiz-adv-x="1697" 
d="M1426 336q0 63 -43.5 97t-113.5 34q-87 0 -164 -43v-116h-155v221l10 8q62 49 145.5 79.5t159.5 30.5q85 0 161 -30.5t128 -97t52 -155.5q0 -73 -23 -133t-60.5 -101t-83 -75t-93.5 -62.5t-89.5 -56t-73 -62t-42.5 -73.5h326v95h155v-275h-672v103q1 74 18 135.5
t44.5 104.5t63.5 78.5t75 60.5t78.5 47t74.5 41.5t62.5 40t43.5 47t16 57.5zM284 1296l-209 -88v202l386 140v-861h190v-178h-559v178h192v607zM437 -362l-156 79l950 1939l156 -79z" />
    <glyph glyph-name="threequarters" unicode="&#xbe;" horiz-adv-x="1621" 
d="M407 694q141 0 141 140q0 128 -132 128q-59 0 -85.5 -3t-52.5 -17l-75 -39l258 463h-214v-105h-155v278h645l-226 -411q98 -32 158 -110t60 -190q0 -133 -96 -223t-233 -90q-127 0 -213.5 76t-110.5 191l-6 24l179 42l5 -25q12 -66 47 -97.5t106 -31.5zM1546 22v-176h-77
v-236h-171v236h-448v116l485 662h134v-602h77zM1298 22v288l-212 -288h212zM437 -362l-156 79l950 1939l156 -79z" />
    <glyph glyph-name="questiondown" unicode="&#xbf;" horiz-adv-x="962" 
d="M518 -45q-195 0 -319 136t-124 336q0 83 28.5 159t77 133t111 99t132.5 65v140h200v-314h-25q-65 0 -121 -17.5t-101.5 -52.5t-72 -93.5t-26.5 -135.5q0 -107 71 -182t177 -75q80 0 139.5 52.5t76.5 126.5l5 24l195 -40l-6 -24q-30 -148 -141.5 -242.5t-276.5 -94.5z
M526 1187q-55 0 -89 34t-34 89t34 89t89 34t89 -34t34 -89t-34 -89t-89 -34z" />
    <glyph glyph-name="Agrave" unicode="&#xc0;" horiz-adv-x="1660" 
d="M982 1605l-156 -125l-231 289l156 125zM238 197l497 1176h189l498 -1176h138v-197h-448v197h102l-129 302h-510l-129 -302h101v-197h-447v197h138zM1008 696l-178 416l-178 -416h356z" />
    <glyph glyph-name="Aacute" unicode="&#xc1;" horiz-adv-x="1660" 
d="M677 1605l231 289l156 -125l-231 -289zM238 197l497 1176h189l498 -1176h138v-197h-448v197h102l-129 302h-510l-129 -302h101v-197h-447v197h138zM1008 696l-178 416l-178 -416h356z" />
    <glyph glyph-name="Acircumflex" unicode="&#xc2;" horiz-adv-x="1660" 
d="M692 1479l-157 125l223 279h142l223 -279l-157 -125l-137 173zM238 197l497 1176h189l498 -1176h138v-197h-448v197h102l-129 302h-510l-129 -302h101v-197h-447v197h138zM1008 696l-178 416l-178 -416h356z" />
    <glyph glyph-name="Atilde" unicode="&#xc3;" horiz-adv-x="1660" 
d="M651 1873q52 0 97.5 -17t77.5 -41.5t61 -49t60 -41.5t62 -17q12 0 20 7.5t8 17.5q0 9 -7 16l-16 19l149 133l17 -18q57 -65 57 -150q0 -96 -65.5 -160.5t-163.5 -64.5q-64 0 -119 26t-87.5 57t-73 57t-77.5 26q-12 0 -20 -7.5t-8 -17.5q0 -9 7 -16l16 -19l-149 -133
l-17 18q-57 65 -57 150q0 96 65 160.5t163 64.5zM238 197l497 1176h189l498 -1176h138v-197h-448v197h102l-129 302h-510l-129 -302h101v-197h-447v197h138zM1008 696l-178 416l-178 -416h356z" />
    <glyph glyph-name="Adieresis" unicode="&#xc4;" horiz-adv-x="1660" 
d="M844 1613q0 58 32.5 90.5t90.5 32.5t90.5 -32.5t32.5 -90.5t-32.5 -90.5t-90.5 -32.5t-90.5 32.5t-32.5 90.5zM569 1613q0 58 32.5 90.5t90.5 32.5t90.5 -32.5t32.5 -90.5t-32.5 -90.5t-90.5 -32.5t-90.5 32.5t-32.5 90.5zM238 197l497 1176h189l498 -1176h138v-197h-448
v197h102l-129 302h-510l-129 -302h101v-197h-447v197h138zM1008 696l-178 416l-178 -416h356z" />
    <glyph glyph-name="Aring" unicode="&#xc5;" horiz-adv-x="1660" 
d="M666 1223q-74 38 -116 103t-42 143q0 122 94 209t228 87t227 -87t93 -209q0 -78 -42 -143t-115 -103l429 -1026h138v-197h-448v197h102l-129 302h-510l-129 -302h101v-197h-447v197h138zM1008 696l-178 416l-178 -416h356zM724 1469q0 -39 29.5 -67t71.5 -29h9
q42 1 71 29t29 67q0 40 -30 68t-74 28t-75 -28t-31 -68z" />
    <glyph glyph-name="AE" unicode="&#xc6;" horiz-adv-x="2264" 
d="M1250 696v387l-321 -387h321zM243 197l1011 1176h201v-1h709v-275h-197v98h-512v-425h352v124h209v-443h-205v122h-339v-376h495v98h197v-295h-1039v197h125v302h-494l-270 -302h86v-197h-472v197h143z" />
    <glyph glyph-name="Ccedilla" unicode="&#xc7;" horiz-adv-x="1237" 
d="M564 -413l-141 141l226 226v63h200v-145zM763 -20q-159 0 -293.5 52t-226 142.5t-142.5 215t-51 267.5q0 148 59 280t161.5 228t249.5 152t316 56q54 0 129 -14.5t106 -23.5t49 -15l17 -6v-275h-197v127q-48 8 -100 8q-125 0 -235 -40t-188 -109t-123 -165.5t-45 -206.5
q0 -100 38.5 -187.5t106 -150.5t164 -99.5t207.5 -36.5q137 0 241 63l21 13l102 -167l-21 -13q-152 -95 -345 -95z" />
    <glyph glyph-name="Egrave" unicode="&#xc8;" horiz-adv-x="1230" 
d="M767 1605l-156 -125l-231 289l156 125zM429 770h346v124h207v-443h-207v122h-346v-376h504v98h197v-295h-1030v197h123v998h-123v177h1030v-275h-197v98h-504v-425z" />
    <glyph glyph-name="Eacute" unicode="&#xc9;" horiz-adv-x="1230" 
d="M463 1605l231 289l156 -125l-231 -289zM429 770h346v124h207v-443h-207v122h-346v-376h504v98h197v-295h-1030v197h123v998h-123v177h1030v-275h-197v98h-504v-425z" />
    <glyph glyph-name="Ecircumflex" unicode="&#xca;" horiz-adv-x="1230" 
d="M478 1479l-157 125l223 279h142l223 -279l-157 -125l-137 173zM429 770h346v124h207v-443h-207v122h-346v-376h504v98h197v-295h-1030v197h123v998h-123v177h1030v-275h-197v98h-504v-425z" />
    <glyph glyph-name="Edieresis" unicode="&#xcb;" horiz-adv-x="1230" 
d="M630 1613q0 58 32.5 90.5t90.5 32.5t90.5 -32.5t32.5 -90.5t-32.5 -90.5t-90.5 -32.5t-90.5 32.5t-32.5 90.5zM355 1613q0 58 32.5 90.5t90.5 32.5t90.5 -32.5t32.5 -90.5t-32.5 -90.5t-90.5 -32.5t-90.5 32.5t-32.5 90.5zM429 770h346v124h207v-443h-207v122h-346v-376
h504v98h197v-295h-1030v197h123v998h-123v177h1030v-275h-197v98h-504v-425z" />
    <glyph glyph-name="Igrave" unicode="&#xcc;" horiz-adv-x="642" 
d="M473 1605l-156 -125l-231 289l156 125zM223 197v996h-123v180h442v-180h-122v-996h122v-197h-442v197h123z" />
    <glyph glyph-name="Iacute" unicode="&#xcd;" horiz-adv-x="642" 
d="M169 1605l231 289l156 -125l-231 -289zM223 197v996h-123v180h442v-180h-122v-996h122v-197h-442v197h123z" />
    <glyph glyph-name="Icircumflex" unicode="&#xce;" horiz-adv-x="642" 
d="M184 1479l-157 125l223 279h142l223 -279l-157 -125l-137 173zM223 197v996h-123v180h442v-180h-122v-996h122v-197h-442v197h123z" />
    <glyph glyph-name="Idieresis" unicode="&#xcf;" horiz-adv-x="642" 
d="M335 1613q0 58 32.5 90.5t90.5 32.5t90.5 -32.5t32.5 -90.5t-32.5 -90.5t-90.5 -32.5t-90.5 32.5t-32.5 90.5zM60 1613q0 58 32.5 90.5t90.5 32.5t90.5 -32.5t32.5 -90.5t-32.5 -90.5t-90.5 -32.5t-90.5 32.5t-32.5 90.5zM223 197v996h-123v180h442v-180h-122v-996h122
v-197h-442v197h123z" />
    <glyph glyph-name="Eth" unicode="&#xd0;" horiz-adv-x="1457" 
d="M493 197q112 0 217 21t195.5 62.5t158.5 99.5t106.5 137t38.5 170q0 90 -39.5 170t-108.5 140t-159 104.5t-195 67t-214 22.5h-73v-424h399v-200h-399v-370h73zM493 1373q146 0 281 -28.5t250 -86.5t200.5 -139t134 -192t48.5 -240q0 -130 -48.5 -241.5t-134 -192.5
t-200.5 -138.5t-250 -86t-281 -28.5h-393v197h123v370h-125v200h125v424h-123v182h393z" />
    <glyph glyph-name="Ntilde" unicode="&#xd1;" horiz-adv-x="1526" 
d="M584 1873q52 0 97.5 -17t77.5 -41.5t61 -49t60 -41.5t62 -17q12 0 20 7.5t8 17.5q0 9 -7 16l-16 19l149 133l17 -18q57 -65 57 -150q0 -96 -65.5 -160.5t-163.5 -64.5q-64 0 -119 26t-87.5 57t-73 57t-77.5 26q-12 0 -20 -7.5t-8 -17.5q0 -9 7 -16l16 -19l-149 -133
l-17 18q-57 65 -57 150q0 96 65 160.5t163 64.5zM1426 1191h-122v-1191h-198v46l-686 997v-846h147v-197h-467v197h123v994h-123v182h320v-46l686 -998v862h-122v182h442v-182z" />
    <glyph glyph-name="Ograve" unicode="&#xd2;" horiz-adv-x="1503" 
d="M903 1605l-156 -125l-231 289l156 125zM751 178q112 0 207.5 40.5t160 110.5t101 164.5t36.5 200.5q0 104 -36.5 196.5t-101.5 160t-160 106.5t-207 39t-207 -39t-159.5 -106.5t-101 -159.5t-36.5 -197q0 -107 36.5 -201t101 -164t159.5 -110.5t207 -40.5zM751 1393
q159 0 292 -54.5t222 -148.5t138.5 -222t49.5 -274q0 -117 -31 -224.5t-92 -196t-145 -154.5t-195.5 -102.5t-238.5 -36.5t-238.5 36.5t-195.5 102.5t-144.5 155t-91.5 196t-31 224q0 145 49.5 273t138.5 222.5t222 149t291 54.5z" />
    <glyph glyph-name="Oacute" unicode="&#xd3;" horiz-adv-x="1503" 
d="M599 1605l231 289l156 -125l-231 -289zM751 178q112 0 207.5 40.5t160 110.5t101 164.5t36.5 200.5q0 104 -36.5 196.5t-101.5 160t-160 106.5t-207 39t-207 -39t-159.5 -106.5t-101 -159.5t-36.5 -197q0 -107 36.5 -201t101 -164t159.5 -110.5t207 -40.5zM751 1393
q159 0 292 -54.5t222 -148.5t138.5 -222t49.5 -274q0 -117 -31 -224.5t-92 -196t-145 -154.5t-195.5 -102.5t-238.5 -36.5t-238.5 36.5t-195.5 102.5t-144.5 155t-91.5 196t-31 224q0 145 49.5 273t138.5 222.5t222 149t291 54.5z" />
    <glyph glyph-name="Ocircumflex" unicode="&#xd4;" horiz-adv-x="1503" 
d="M614 1479l-157 125l223 279h142l223 -279l-157 -125l-137 173zM751 178q112 0 207.5 40.5t160 110.5t101 164.5t36.5 200.5q0 104 -36.5 196.5t-101.5 160t-160 106.5t-207 39t-207 -39t-159.5 -106.5t-101 -159.5t-36.5 -197q0 -107 36.5 -201t101 -164t159.5 -110.5
t207 -40.5zM751 1393q159 0 292 -54.5t222 -148.5t138.5 -222t49.5 -274q0 -117 -31 -224.5t-92 -196t-145 -154.5t-195.5 -102.5t-238.5 -36.5t-238.5 36.5t-195.5 102.5t-144.5 155t-91.5 196t-31 224q0 145 49.5 273t138.5 222.5t222 149t291 54.5z" />
    <glyph glyph-name="Otilde" unicode="&#xd5;" horiz-adv-x="1503" 
d="M572 1873q52 0 97.5 -17t77.5 -41.5t61 -49t60 -41.5t62 -17q12 0 20 7.5t8 17.5q0 9 -7 16l-16 19l149 133l17 -18q57 -65 57 -150q0 -96 -65.5 -160.5t-163.5 -64.5q-64 0 -119 26t-87.5 57t-73 57t-77.5 26q-12 0 -20 -7.5t-8 -17.5q0 -9 7 -16l16 -19l-149 -133
l-17 18q-57 65 -57 150q0 96 65 160.5t163 64.5zM751 178q112 0 207.5 40.5t160 110.5t101 164.5t36.5 200.5q0 104 -36.5 196.5t-101.5 160t-160 106.5t-207 39t-207 -39t-159.5 -106.5t-101 -159.5t-36.5 -197q0 -107 36.5 -201t101 -164t159.5 -110.5t207 -40.5z
M751 1393q159 0 292 -54.5t222 -148.5t138.5 -222t49.5 -274q0 -117 -31 -224.5t-92 -196t-145 -154.5t-195.5 -102.5t-238.5 -36.5t-238.5 36.5t-195.5 102.5t-144.5 155t-91.5 196t-31 224q0 145 49.5 273t138.5 222.5t222 149t291 54.5z" />
    <glyph glyph-name="Odieresis" unicode="&#xd6;" horiz-adv-x="1503" 
d="M766 1613q0 58 32.5 90.5t90.5 32.5t90.5 -32.5t32.5 -90.5t-32.5 -90.5t-90.5 -32.5t-90.5 32.5t-32.5 90.5zM491 1613q0 58 32.5 90.5t90.5 32.5t90.5 -32.5t32.5 -90.5t-32.5 -90.5t-90.5 -32.5t-90.5 32.5t-32.5 90.5zM751 178q112 0 207.5 40.5t160 110.5t101 164.5
t36.5 200.5q0 104 -36.5 196.5t-101.5 160t-160 106.5t-207 39t-207 -39t-159.5 -106.5t-101 -159.5t-36.5 -197q0 -107 36.5 -201t101 -164t159.5 -110.5t207 -40.5zM751 1393q159 0 292 -54.5t222 -148.5t138.5 -222t49.5 -274q0 -117 -31 -224.5t-92 -196t-145 -154.5
t-195.5 -102.5t-238.5 -36.5t-238.5 36.5t-195.5 102.5t-144.5 155t-91.5 196t-31 224q0 145 49.5 273t138.5 222.5t222 149t291 54.5z" />
    <glyph glyph-name="multiply" unicode="&#xd7;" horiz-adv-x="936" 
d="M478 501l-237 -212l-141 131l212 197l-212 197l141 131l237 -212l237 212l142 -131l-212 -197l212 -197l-142 -131z" />
    <glyph glyph-name="Oslash" unicode="&#xd8;" horiz-adv-x="1503" 
d="M879 1180q-63 16 -128 16q-108 0 -199 -41t-155 -106q-68 -69 -109 -166.5t-41 -213.5q0 -130 49 -237t130 -179zM519 18l-88 -182l-189 83l92 190q-50 36 -95 84q-85 95 -137 224t-52 276q0 146 52 271.5t137 220.5q85 94 218 151t294 57q110 0 217 -31l86 177l190 -83
l-87 -177q64 -42 107 -92q85 -95 137 -220.5t52 -271.5q0 -147 -52.5 -276t-136.5 -224q-87 -94 -220.5 -154.5t-292.5 -60.5q-120 0 -232 38zM1066 1135l-458 -936q70 -21 143 -21q106 0 197.5 42.5t156.5 109.5q67 68 109 170.5t42 218.5q0 133 -52 239.5t-138 176.5z" />
    <glyph glyph-name="Ugrave" unicode="&#xd9;" horiz-adv-x="1579" 
d="M942 1605l-156 -125l-231 289l156 125zM420 496q0 -93 20.5 -154t66.5 -97.5t113.5 -51.5t169.5 -15t169.5 15t113.5 51.5t66.5 97.5t20.5 154v695h-123v182h442v-182h-122v-832q0 -110 -75 -197t-204 -134.5t-288 -47.5q-160 0 -289 47.5t-203.5 134.5t-74.5 197v832
h-123v182h442v-182h-122v-695z" />
    <glyph glyph-name="Uacute" unicode="&#xda;" horiz-adv-x="1579" 
d="M637 1605l231 289l156 -125l-231 -289zM420 496q0 -93 20.5 -154t66.5 -97.5t113.5 -51.5t169.5 -15t169.5 15t113.5 51.5t66.5 97.5t20.5 154v695h-123v182h442v-182h-122v-832q0 -110 -75 -197t-204 -134.5t-288 -47.5q-160 0 -289 47.5t-203.5 134.5t-74.5 197v832
h-123v182h442v-182h-122v-695z" />
    <glyph glyph-name="Ucircumflex" unicode="&#xdb;" horiz-adv-x="1579" 
d="M652 1479l-157 125l223 279h142l223 -279l-157 -125l-137 173zM420 496q0 -93 20.5 -154t66.5 -97.5t113.5 -51.5t169.5 -15t169.5 15t113.5 51.5t66.5 97.5t20.5 154v695h-123v182h442v-182h-122v-832q0 -110 -75 -197t-204 -134.5t-288 -47.5q-160 0 -289 47.5
t-203.5 134.5t-74.5 197v832h-123v182h442v-182h-122v-695z" />
    <glyph glyph-name="Udieresis" unicode="&#xdc;" horiz-adv-x="1579" 
d="M804 1613q0 58 32.5 90.5t90.5 32.5t90.5 -32.5t32.5 -90.5t-32.5 -90.5t-90.5 -32.5t-90.5 32.5t-32.5 90.5zM529 1613q0 58 32.5 90.5t90.5 32.5t90.5 -32.5t32.5 -90.5t-32.5 -90.5t-90.5 -32.5t-90.5 32.5t-32.5 90.5zM420 496q0 -93 20.5 -154t66.5 -97.5
t113.5 -51.5t169.5 -15t169.5 15t113.5 51.5t66.5 97.5t20.5 154v695h-123v182h442v-182h-122v-832q0 -110 -75 -197t-204 -134.5t-288 -47.5q-160 0 -289 47.5t-203.5 134.5t-74.5 197v832h-123v182h442v-182h-122v-695z" />
    <glyph glyph-name="Yacute" unicode="&#xdd;" horiz-adv-x="1498" 
d="M597 1605l231 289l156 -125l-231 -289zM1252 1188l-388 -523v-468h132v-197h-493v197h132v466l-390 525h-145v185h474v-185h-87l262 -343l262 343h-87v185h474v-185h-146z" />
    <glyph glyph-name="Thorn" unicode="&#xde;" horiz-adv-x="1313" 
d="M223 197v996h-123v180h442v-180h-122v-67h73q168 0 284 -15t210 -60q98 -51 162 -144.5t64 -214.5t-64 -214.5t-162 -144.5q-94 -44 -210 -59.5t-284 -15.5h-73v-61h122v-197h-442v197h123zM493 950h-73v-517h73q195 0 311 29t176 108q36 52 36 121q0 70 -36 122
q-60 79 -176 108t-311 29z" />
    <glyph glyph-name="germandbls" unicode="&#xdf;" horiz-adv-x="1290" 
d="M225 1037q0 99 25.5 181t75.5 144t132 97t188 35q197 0 311 -95.5t114 -269.5q0 -87 -35.5 -168t-93.5 -140q109 -63 178.5 -173.5t69.5 -240.5q0 -78 -28 -152t-79 -133t-130 -95t-173 -36q-169 0 -282 109l-18 18l161 128l19 -18q47 -45 120 -45q94 0 152 66t58 158
q0 116 -91.5 200.5t-218.5 89.5l-26 1v182l20 5q84 21 137 86t53 158q0 92 -47.5 129.5t-157.5 37.5h-23q-99 -8 -153 -77t-54 -182v-1037h-329v200h125v584h-125v189h125v64z" />
    <glyph glyph-name="agrave" unicode="&#xe0;" horiz-adv-x="1302" 
d="M679 1213l-156 -125l-231 289l156 125zM561 -20q-114 0 -211.5 44.5t-162 118t-101 169t-36.5 197.5q0 91 33.5 176.5t93 152.5t149 107.5t193.5 40.5q196 0 363 -163v158h198v-784h122v-197h-320v140q-33 -34 -63 -58.5t-70.5 -49.5t-88 -38.5t-99.5 -13.5zM249 509
q0 -85 38.5 -160.5t111 -122.5t161.5 -47q82 0 150 42t106 111.5t38 148.5q0 82 -39 154t-111.5 116t-160.5 44q-85 0 -153 -40t-104.5 -105t-36.5 -141z" />
    <glyph glyph-name="aacute" unicode="&#xe1;" horiz-adv-x="1302" 
d="M375 1213l231 289l156 -125l-231 -289zM561 -20q-114 0 -211.5 44.5t-162 118t-101 169t-36.5 197.5q0 91 33.5 176.5t93 152.5t149 107.5t193.5 40.5q196 0 363 -163v158h198v-784h122v-197h-320v140q-33 -34 -63 -58.5t-70.5 -49.5t-88 -38.5t-99.5 -13.5zM249 509
q0 -85 38.5 -160.5t111 -122.5t161.5 -47q82 0 150 42t106 111.5t38 148.5q0 82 -39 154t-111.5 116t-160.5 44q-85 0 -153 -40t-104.5 -105t-36.5 -141z" />
    <glyph glyph-name="acircumflex" unicode="&#xe2;" horiz-adv-x="1302" 
d="M390 1087l-157 125l223 279h142l223 -279l-157 -125l-137 173zM561 -20q-114 0 -211.5 44.5t-162 118t-101 169t-36.5 197.5q0 91 33.5 176.5t93 152.5t149 107.5t193.5 40.5q196 0 363 -163v158h198v-784h122v-197h-320v140q-33 -34 -63 -58.5t-70.5 -49.5t-88 -38.5
t-99.5 -13.5zM249 509q0 -85 38.5 -160.5t111 -122.5t161.5 -47q82 0 150 42t106 111.5t38 148.5q0 82 -39 154t-111.5 116t-160.5 44q-85 0 -153 -40t-104.5 -105t-36.5 -141z" />
    <glyph glyph-name="atilde" unicode="&#xe3;" horiz-adv-x="1302" 
d="M348 1481q52 0 97.5 -17t77.5 -41.5t61 -49t60 -41.5t62 -17q12 0 20 7.5t8 17.5q0 9 -7 16l-16 19l149 133l17 -18q57 -65 57 -150q0 -96 -65.5 -160.5t-163.5 -64.5q-64 0 -119 26t-87.5 57t-73 57t-77.5 26q-12 0 -20 -7.5t-8 -17.5q0 -9 7 -16l16 -19l-149 -133
l-17 18q-57 65 -57 150q0 96 65 160.5t163 64.5zM561 -20q-114 0 -211.5 44.5t-162 118t-101 169t-36.5 197.5q0 91 33.5 176.5t93 152.5t149 107.5t193.5 40.5q196 0 363 -163v158h198v-784h122v-197h-320v140q-33 -34 -63 -58.5t-70.5 -49.5t-88 -38.5t-99.5 -13.5z
M249 509q0 -85 38.5 -160.5t111 -122.5t161.5 -47q82 0 150 42t106 111.5t38 148.5q0 82 -39 154t-111.5 116t-160.5 44q-85 0 -153 -40t-104.5 -105t-36.5 -141z" />
    <glyph glyph-name="adieresis" unicode="&#xe4;" horiz-adv-x="1302" 
d="M542 1221q0 58 32.5 90.5t90.5 32.5t90.5 -32.5t32.5 -90.5t-32.5 -90.5t-90.5 -32.5t-90.5 32.5t-32.5 90.5zM267 1221q0 58 32.5 90.5t90.5 32.5t90.5 -32.5t32.5 -90.5t-32.5 -90.5t-90.5 -32.5t-90.5 32.5t-32.5 90.5zM561 -20q-114 0 -211.5 44.5t-162 118t-101 169
t-36.5 197.5q0 91 33.5 176.5t93 152.5t149 107.5t193.5 40.5q196 0 363 -163v158h198v-784h122v-197h-320v140q-33 -34 -63 -58.5t-70.5 -49.5t-88 -38.5t-99.5 -13.5zM249 509q0 -85 38.5 -160.5t111 -122.5t161.5 -47q82 0 150 42t106 111.5t38 148.5q0 82 -39 154
t-111.5 116t-160.5 44q-85 0 -153 -40t-104.5 -105t-36.5 -141z" />
    <glyph glyph-name="aring" unicode="&#xe5;" horiz-adv-x="1302" 
d="M431 1394q0 -40 28 -68t68 -28t68 28t28 68t-28 68t-68 28t-68 -28t-28 -68zM231 1394q0 122 87 209t209 87t209 -87t87 -209t-87 -209t-209 -87t-209 87t-87 209zM561 -20q-114 0 -211.5 44.5t-162 118t-101 169t-36.5 197.5q0 91 33.5 176.5t93 152.5t149 107.5
t193.5 40.5q196 0 363 -163v158h198v-784h122v-197h-320v140q-33 -34 -63 -58.5t-70.5 -49.5t-88 -38.5t-99.5 -13.5zM249 509q0 -85 38.5 -160.5t111 -122.5t161.5 -47q82 0 150 42t106 111.5t38 148.5q0 82 -39 154t-111.5 116t-160.5 44q-85 0 -153 -40t-104.5 -105
t-36.5 -141z" />
    <glyph glyph-name="ae" unicode="&#xe6;" horiz-adv-x="1774" 
d="M548 398q-22 0 -59 1t-52 1q-83 0 -136.5 -26.5t-53.5 -79.5t61 -85t152 -32q105 0 168.5 15.5t113.5 57.5v189q-2 -1 -16 -6.5t-17.5 -6.5t-17 -5.5t-20 -6.5t-19.5 -5t-23 -4.5t-23.5 -3.5t-27.5 -2.5t-30 -0.5zM458 -22q-79 0 -152 21.5t-130.5 60.5t-91.5 100
t-34 134q0 72 31.5 131t85 97t122.5 58.5t145 20.5q27 0 72 -2.5t61 -2.5q75 0 143 25v31q-17 60 -77 101.5t-138 41.5q-56 0 -103 -24.5t-75 -62.5v-119h-198v174l3 5q56 100 149.5 162.5t224.5 62.5q101 0 188 -42.5t146 -115.5q128 151 355 151q109 0 201.5 -38
t155 -102.5t97.5 -149.5t35 -178l50 -100h-785v-101q48 -63 127.5 -101t168.5 -38q79 0 153 35t118 93l14 20l161 -114l-15 -20q-69 -99 -183.5 -155.5t-247.5 -56.5q-169 0 -296 89v-69h-197v62q-72 -40 -136.5 -62t-147.5 -22zM916 658v-65h550q-21 94 -96.5 157.5
t-184.5 63.5q-90 0 -159 -42.5t-110 -113.5z" />
    <glyph glyph-name="ccedilla" unicode="&#xe7;" horiz-adv-x="1092" 
d="M396 -414l-141 141l226 226v63h200v-145zM588 -21q-121 0 -222.5 40t-170 108.5t-107 161t-38.5 197.5q0 106 39 200.5t107.5 164t169.5 110t218 40.5q228 0 378 -164l7 -7v-237h-197v153q-84 56 -190 56q-152 0 -244.5 -90.5t-92.5 -227.5q0 -61 25.5 -117t70 -97.5
t108.5 -66.5t138 -25q77 0 141.5 33t97.5 81l15 21l161 -113l-15 -20q-61 -88 -164.5 -144.5t-234.5 -56.5z" />
    <glyph glyph-name="egrave" unicode="&#xe8;" horiz-adv-x="1259" 
d="M788 1213l-156 -125l-231 289l156 125zM1159 395h-854q31 -92 130 -154t222 -62q81 0 157 35t124 93l15 20l160 -122q-11 -14 -15 -20q-74 -97 -190.5 -151.5t-250.5 -54.5q-116 0 -220 41t-177.5 109.5t-116.5 162t-43 196.5q0 99 41 190.5t111 159t170.5 108
t214.5 40.5t211.5 -37.5t165.5 -102.5t106.5 -155t38.5 -193v-103zM309 595h639q-25 82 -111 136.5t-199 54.5q-112 0 -203.5 -55t-125.5 -136z" />
    <glyph glyph-name="eacute" unicode="&#xe9;" horiz-adv-x="1259" 
d="M484 1213l231 289l156 -125l-231 -289zM1159 395h-854q31 -92 130 -154t222 -62q81 0 157 35t124 93l15 20l160 -122q-11 -14 -15 -20q-74 -97 -190.5 -151.5t-250.5 -54.5q-116 0 -220 41t-177.5 109.5t-116.5 162t-43 196.5q0 99 41 190.5t111 159t170.5 108
t214.5 40.5t211.5 -37.5t165.5 -102.5t106.5 -155t38.5 -193v-103zM309 595h639q-25 82 -111 136.5t-199 54.5q-112 0 -203.5 -55t-125.5 -136z" />
    <glyph glyph-name="ecircumflex" unicode="&#xea;" horiz-adv-x="1259" 
d="M499 1088l-157 125l223 279h142l223 -279l-157 -125l-137 173zM1159 395h-854q31 -92 130 -154t222 -62q81 0 157 35t124 93l15 20l160 -122q-11 -14 -15 -20q-74 -97 -190.5 -151.5t-250.5 -54.5q-116 0 -220 41t-177.5 109.5t-116.5 162t-43 196.5q0 99 41 190.5
t111 159t170.5 108t214.5 40.5t211.5 -37.5t165.5 -102.5t106.5 -155t38.5 -193v-103zM309 595h639q-25 82 -111 136.5t-199 54.5q-112 0 -203.5 -55t-125.5 -136z" />
    <glyph glyph-name="edieresis" unicode="&#xeb;" horiz-adv-x="1259" 
d="M650 1221q0 58 32.5 90.5t90.5 32.5t90.5 -32.5t32.5 -90.5t-32.5 -90.5t-90.5 -32.5t-90.5 32.5t-32.5 90.5zM375 1221q0 58 32.5 90.5t90.5 32.5t90.5 -32.5t32.5 -90.5t-32.5 -90.5t-90.5 -32.5t-90.5 32.5t-32.5 90.5zM1159 395h-854q31 -92 130 -154t222 -62
q81 0 157 35t124 93l15 20l160 -122q-11 -14 -15 -20q-74 -97 -190.5 -151.5t-250.5 -54.5q-116 0 -220 41t-177.5 109.5t-116.5 162t-43 196.5q0 99 41 190.5t111 159t170.5 108t214.5 40.5t211.5 -37.5t165.5 -102.5t106.5 -155t38.5 -193v-103zM309 595h639
q-25 82 -111 136.5t-199 54.5q-112 0 -203.5 -55t-125.5 -136z" />
    <glyph glyph-name="igrave" unicode="&#xec;" horiz-adv-x="666" 
d="M497 1213l-156 -125l-231 289l156 125zM247 197v586h-147v190h344v-776h122v-197h-442v197h123z" />
    <glyph glyph-name="iacute" unicode="&#xed;" horiz-adv-x="666" 
d="M193 1213l231 289l156 -125l-231 -289zM247 197v586h-147v190h344v-776h122v-197h-442v197h123z" />
    <glyph glyph-name="icircumflex" unicode="&#xee;" horiz-adv-x="666" 
d="M183 1087l-157 125l223 279h142l223 -279l-157 -125l-137 173zM247 197v586h-147v190h344v-776h122v-197h-442v197h123z" />
    <glyph glyph-name="idieresis" unicode="&#xef;" horiz-adv-x="666" 
d="M335 1221q0 58 32.5 90.5t90.5 32.5t90.5 -32.5t32.5 -90.5t-32.5 -90.5t-90.5 -32.5t-90.5 32.5t-32.5 90.5zM60 1221q0 58 32.5 90.5t90.5 32.5t90.5 -32.5t32.5 -90.5t-32.5 -90.5t-90.5 -32.5t-90.5 32.5t-32.5 90.5zM247 197v586h-147v190h344v-776h122v-197h-442
v197h123z" />
    <glyph glyph-name="eth" unicode="&#xf0;" horiz-adv-x="1263" 
d="M602 -20q-107 0 -202 40t-160 106t-102.5 154.5t-37.5 183.5q0 103 41.5 197.5t113.5 165t175.5 112.5t221.5 42q115 0 220 -42q-55 98 -136 177l-164 -88l-84 129l116 62q-80 52 -163 83l-26 9l85 185l25 -10q153 -57 284 -156l162 90l76 -129l-117 -69
q110 -122 171.5 -278.5t61.5 -340.5q0 -92 -21.5 -180.5t-67.5 -168.5t-111 -141t-158 -97t-203 -36zM648 782q-95 0 -175.5 -44t-126 -117t-45.5 -156q0 -75 39 -140.5t109 -105t153 -39.5q85 0 155 35t114 92.5t68 129.5t24 148q0 52 -44.5 97.5t-117 72.5t-153.5 27z" />
    <glyph glyph-name="ntilde" unicode="&#xf1;" 
d="M511 1481q52 0 97.5 -17t77.5 -41.5t61 -49t60 -41.5t62 -17q12 0 20 7.5t8 17.5q0 9 -7 16l-16 19l149 133l17 -18q57 -65 57 -150q0 -96 -65.5 -160.5t-163.5 -64.5q-64 0 -119 26t-87.5 57t-73 57t-77.5 26q-12 0 -20 -7.5t-8 -17.5q0 -9 7 -16l16 -19l-149 -133
l-17 18q-57 65 -57 150q0 96 65 160.5t163 64.5zM959 638q0 87 -34.5 122t-123.5 35q-114 0 -206.5 -36.5t-150.5 -90.5v-471h123v-197h-442v197h122v589h-147v187h344v-103q40 40 81 65t112.5 42t168.5 17q176 0 263 -85.5t87 -245.5v-466h123v-197h-442v197h122v441z" />
    <glyph glyph-name="ograve" unicode="&#xf2;" horiz-adv-x="1132" 
d="M718 1213l-156 -125l-231 289l156 125zM566 -21q-156 0 -275 70t-180 185t-61 256t61 256.5t180 185t275 69.5t275 -70t180 -185t61 -256t-61 -256.5t-180 -185t-275 -69.5zM566 177q88 0 162 44t115.5 116t41.5 153t-41 153t-115 116.5t-163 44.5q-88 0 -162 -44.5
t-115.5 -116.5t-41.5 -153t41 -153t115 -116t163 -44z" />
    <glyph glyph-name="oacute" unicode="&#xf3;" horiz-adv-x="1132" 
d="M414 1213l231 289l156 -125l-231 -289zM566 -21q-156 0 -275 70t-180 185t-61 256t61 256.5t180 185t275 69.5t275 -70t180 -185t61 -256t-61 -256.5t-180 -185t-275 -69.5zM566 177q88 0 162 44t115.5 116t41.5 153t-41 153t-115 116.5t-163 44.5q-88 0 -162 -44.5
t-115.5 -116.5t-41.5 -153t41 -153t115 -116t163 -44z" />
    <glyph glyph-name="ocircumflex" unicode="&#xf4;" horiz-adv-x="1132" 
d="M429 1088l-157 125l223 279h142l223 -279l-157 -125l-137 173zM566 -21q-156 0 -275 70t-180 185t-61 256t61 256.5t180 185t275 69.5t275 -70t180 -185t61 -256t-61 -256.5t-180 -185t-275 -69.5zM566 177q88 0 162 44t115.5 116t41.5 153t-41 153t-115 116.5t-163 44.5
q-88 0 -162 -44.5t-115.5 -116.5t-41.5 -153t41 -153t115 -116t163 -44z" />
    <glyph glyph-name="otilde" unicode="&#xf5;" horiz-adv-x="1132" 
d="M387 1481q52 0 97.5 -17t77.5 -41.5t61 -49t60 -41.5t62 -17q12 0 20 7.5t8 17.5q0 9 -7 16l-16 19l149 133l17 -18q57 -65 57 -150q0 -96 -65.5 -160.5t-163.5 -64.5q-64 0 -119 26t-87.5 57t-73 57t-77.5 26q-12 0 -20 -7.5t-8 -17.5q0 -9 7 -16l16 -19l-149 -133
l-17 18q-57 65 -57 150q0 96 65 160.5t163 64.5zM566 -21q-156 0 -275 70t-180 185t-61 256t61 256.5t180 185t275 69.5t275 -70t180 -185t61 -256t-61 -256.5t-180 -185t-275 -69.5zM566 177q88 0 162 44t115.5 116t41.5 153t-41 153t-115 116.5t-163 44.5
q-88 0 -162 -44.5t-115.5 -116.5t-41.5 -153t41 -153t115 -116t163 -44z" />
    <glyph glyph-name="odieresis" unicode="&#xf6;" horiz-adv-x="1132" 
d="M580 1221q0 58 32.5 90.5t90.5 32.5t90.5 -32.5t32.5 -90.5t-32.5 -90.5t-90.5 -32.5t-90.5 32.5t-32.5 90.5zM305 1221q0 58 32.5 90.5t90.5 32.5t90.5 -32.5t32.5 -90.5t-32.5 -90.5t-90.5 -32.5t-90.5 32.5t-32.5 90.5zM566 -21q-156 0 -275 70t-180 185t-61 256
t61 256.5t180 185t275 69.5t275 -70t180 -185t61 -256t-61 -256.5t-180 -185t-275 -69.5zM566 177q88 0 162 44t115.5 116t41.5 153t-41 153t-115 116.5t-163 44.5q-88 0 -162 -44.5t-115.5 -116.5t-41.5 -153t41 -153t115 -116t163 -44z" />
    <glyph glyph-name="divide" unicode="&#xf7;" horiz-adv-x="1050" 
d="M523 171q-67 0 -105 32.5t-38 90.5t38 90.5t105 32.5t105 -32.5t38 -90.5t-38 -90.5t-105 -32.5zM523 792q-67 0 -105 32.5t-38 90.5t38 90.5t105 32.5t105 -32.5t38 -90.5t-38 -90.5t-105 -32.5zM950 517h-850v200h850v-200z" />
    <glyph glyph-name="oslash" unicode="&#xf8;" horiz-adv-x="1132" 
d="M201 112q-73 71 -112 168.5t-39 209.5q0 105 36 198t101 162.5t163 110t216 40.5q48 0 96 -8l74 147l191 -81l-63 -135q104 -69 161 -183t57 -250q0 -105 -36 -198t-101 -163t-163 -110.5t-216 -40.5q-99 0 -188 30l-61 -121l-182 87zM298 278l268 526q-88 0 -162 -48
t-115.5 -125.5t-41.5 -165.5q0 -100 51 -187zM885 515q0 76 -30.5 145t-85.5 118l-298 -586q47 -15 95 -15q134 0 226.5 101.5t92.5 236.5z" />
    <glyph glyph-name="ugrave" unicode="&#xf9;" 
d="M829 1213l-156 -125l-231 289l156 125zM420 335q0 -87 34.5 -122t123.5 -35q116 0 207.5 36.5t149.5 90.5v483h-123v185h442v-185h-122v-591h147v-197h-344v103q-40 -40 -81 -65t-112.5 -42t-168.5 -17q-162 0 -256 87.5t-94 244.5v477h-123v185h442v-185h-122v-453z" />
    <glyph glyph-name="uacute" unicode="&#xfa;" 
d="M525 1213l231 289l156 -125l-231 -289zM420 335q0 -87 34.5 -122t123.5 -35q116 0 207.5 36.5t149.5 90.5v483h-123v185h442v-185h-122v-591h147v-197h-344v103q-40 -40 -81 -65t-112.5 -42t-168.5 -17q-162 0 -256 87.5t-94 244.5v477h-123v185h442v-185h-122v-453z" />
    <glyph glyph-name="ucircumflex" unicode="&#xfb;" 
d="M540 1087l-157 125l223 279h142l223 -279l-157 -125l-137 173zM420 335q0 -87 34.5 -122t123.5 -35q116 0 207.5 36.5t149.5 90.5v483h-123v185h442v-185h-122v-591h147v-197h-344v103q-40 -40 -81 -65t-112.5 -42t-168.5 -17q-162 0 -256 87.5t-94 244.5v477h-123v185
h442v-185h-122v-453z" />
    <glyph glyph-name="udieresis" unicode="&#xfc;" 
d="M692 1221q0 58 32.5 90.5t90.5 32.5t90.5 -32.5t32.5 -90.5t-32.5 -90.5t-90.5 -32.5t-90.5 32.5t-32.5 90.5zM417 1221q0 58 32.5 90.5t90.5 32.5t90.5 -32.5t32.5 -90.5t-32.5 -90.5t-90.5 -32.5t-90.5 32.5t-32.5 90.5zM420 335q0 -87 34.5 -122t123.5 -35
q116 0 207.5 36.5t149.5 90.5v483h-123v185h442v-185h-122v-591h147v-197h-344v103q-40 -40 -81 -65t-112.5 -42t-168.5 -17q-162 0 -256 87.5t-94 244.5v477h-123v185h442v-185h-122v-453z" />
    <glyph glyph-name="yacute" unicode="&#xfd;" horiz-adv-x="1454" 
d="M575 1213l231 289l156 -125l-231 -289zM739 -554h-492v200h134l199 396l-346 743h-134v188h468v-188h-112l257 -550l284 550h-111v188h468v-188h-134l-612 -1139h131v-200z" />
    <glyph glyph-name="thorn" unicode="&#xfe;" horiz-adv-x="1381" 
d="M247 -357v1664h-147v187h352v-671q76 75 164 119t198 44q104 0 193 -40.5t148 -107.5t92.5 -152.5t33.5 -176.5q0 -102 -36 -197t-100.5 -169t-161.5 -118.5t-211 -44.5q-52 0 -99.5 13.5t-88 38.5t-70.5 50t-62 58v-497h131v-197h-459v197h123zM773 179q89 0 160.5 47
t110 122.5t38.5 160.5q0 77 -36.5 142t-104 104.5t-152.5 39.5q-88 0 -160 -44t-111 -116t-39 -154q0 -79 38 -148.5t106 -111.5t150 -42z" />
    <glyph glyph-name="ydieresis" unicode="&#xff;" horiz-adv-x="1454" 
d="M742 1221q0 58 32.5 90.5t90.5 32.5t90.5 -32.5t32.5 -90.5t-32.5 -90.5t-90.5 -32.5t-90.5 32.5t-32.5 90.5zM467 1221q0 58 32.5 90.5t90.5 32.5t90.5 -32.5t32.5 -90.5t-32.5 -90.5t-90.5 -32.5t-90.5 32.5t-32.5 90.5zM739 -554h-492v200h134l199 396l-346 743h-134
v188h468v-188h-112l257 -550l284 550h-111v188h468v-188h-134l-612 -1139h131v-200z" />
    <glyph glyph-name="Amacron" unicode="&#x100;" horiz-adv-x="1660" 
d="M429 1490v200h800v-200h-800zM238 197l497 1176h189l498 -1176h138v-197h-448v197h102l-129 302h-510l-129 -302h101v-197h-447v197h138zM1008 696l-178 416l-178 -416h356z" />
    <glyph glyph-name="amacron" unicode="&#x101;" horiz-adv-x="1302" 
d="M127 1098v200h800v-200h-800zM561 -20q-114 0 -211.5 44.5t-162 118t-101 169t-36.5 197.5q0 91 33.5 176.5t93 152.5t149 107.5t193.5 40.5q196 0 363 -163v158h198v-784h122v-197h-320v140q-33 -34 -63 -58.5t-70.5 -49.5t-88 -38.5t-99.5 -13.5zM249 509
q0 -85 38.5 -160.5t111 -122.5t161.5 -47q82 0 150 42t106 111.5t38 148.5q0 82 -39 154t-111.5 116t-160.5 44q-85 0 -153 -40t-104.5 -105t-36.5 -141z" />
    <glyph glyph-name="Abreve" unicode="&#x102;" horiz-adv-x="1660" 
d="M1231 1675q-70 -83 -172 -134t-229 -51t-229.5 51t-171.5 134l-16 19l152 130l16 -19q100 -115 249 -115t249 115l16 19l152 -130zM238 197l497 1176h189l498 -1176h138v-197h-448v197h102l-129 302h-510l-129 -302h101v-197h-447v197h138zM1008 696l-178 416l-178 -416
h356z" />
    <glyph glyph-name="abreve" unicode="&#x103;" horiz-adv-x="1302" 
d="M928 1283q-70 -83 -172 -134t-229 -51t-229.5 51t-171.5 134l-16 19l152 130l16 -19q100 -115 249 -115t249 115l16 19l152 -130zM561 -20q-114 0 -211.5 44.5t-162 118t-101 169t-36.5 197.5q0 91 33.5 176.5t93 152.5t149 107.5t193.5 40.5q196 0 363 -163v158h198
v-784h122v-197h-320v140q-33 -34 -63 -58.5t-70.5 -49.5t-88 -38.5t-99.5 -13.5zM249 509q0 -85 38.5 -160.5t111 -122.5t161.5 -47q82 0 150 42t106 111.5t38 148.5q0 82 -39 154t-111.5 116t-160.5 44q-85 0 -153 -40t-104.5 -105t-36.5 -141z" />
    <glyph glyph-name="Aogonek" unicode="&#x104;" horiz-adv-x="1710" 
d="M1533 -339q-26 -70 -90 -118t-149 -48q-107 0 -182 73.5t-75 183.5q0 44 12.5 83t37 72t44.5 54t52.5 49.5t42.5 39.5l93 92l142 -141l-92 -93q-17 -16 -60.5 -54t-69.5 -64.5t-26 -37.5q0 -40 26 -60t56 -20q21 0 46 11t30 24l7 21l165 -40zM238 197l497 1176h189
l498 -1176h138v-197h-448v197h102l-129 302h-510l-129 -302h101v-197h-447v197h138zM1008 696l-178 416l-178 -416h356z" />
    <glyph glyph-name="aogonek" unicode="&#x105;" horiz-adv-x="1352" 
d="M1175 -339q-26 -70 -90 -118t-149 -48q-107 0 -182 73.5t-75 183.5q0 44 12.5 83t37 72t44.5 54t52.5 49.5t42.5 39.5l93 92l142 -141l-92 -93q-17 -16 -60.5 -54t-69.5 -64.5t-26 -37.5q0 -40 26 -60t56 -20q21 0 46 11t30 24l7 21l165 -40zM561 -20q-114 0 -211.5 44.5
t-162 118t-101 169t-36.5 197.5q0 91 33.5 176.5t93 152.5t149 107.5t193.5 40.5q196 0 363 -163v158h198v-784h122v-197h-320v140q-33 -34 -63 -58.5t-70.5 -49.5t-88 -38.5t-99.5 -13.5zM249 509q0 -85 38.5 -160.5t111 -122.5t161.5 -47q82 0 150 42t106 111.5t38 148.5
q0 82 -39 154t-111.5 116t-160.5 44q-85 0 -153 -40t-104.5 -105t-36.5 -141z" />
    <glyph glyph-name="Cacute" unicode="&#x106;" horiz-adv-x="1237" 
d="M664 1605l231 289l156 -125l-231 -289zM763 -20q-159 0 -293.5 52t-226 142.5t-142.5 215t-51 267.5q0 148 59 280t161.5 228t249.5 152t316 56q54 0 129 -14.5t106 -23.5t49 -15l17 -6v-275h-197v127q-48 8 -100 8q-125 0 -235 -40t-188 -109t-123 -165.5t-45 -206.5
q0 -100 38.5 -187.5t106 -150.5t164 -99.5t207.5 -36.5q137 0 241 63l21 13l102 -167l-21 -13q-152 -95 -345 -95z" />
    <glyph glyph-name="cacute" unicode="&#x107;" horiz-adv-x="1092" 
d="M426 1213l231 289l156 -125l-231 -289zM588 -21q-121 0 -222.5 40t-170 108.5t-107 161t-38.5 197.5q0 106 39 200.5t107.5 164t169.5 110t218 40.5q228 0 378 -164l7 -7v-237h-197v153q-84 56 -190 56q-152 0 -244.5 -90.5t-92.5 -227.5q0 -61 25.5 -117t70 -97.5
t108.5 -66.5t138 -25q77 0 141.5 33t97.5 81l15 21l161 -113l-15 -20q-61 -88 -164.5 -144.5t-234.5 -56.5z" />
    <glyph glyph-name="Ccircumflex" unicode="&#x108;" horiz-adv-x="1237" 
d="M679 1479l-157 125l223 279h142l223 -279l-157 -125l-137 173zM763 -20q-159 0 -293.5 52t-226 142.5t-142.5 215t-51 267.5q0 148 59 280t161.5 228t249.5 152t316 56q54 0 129 -14.5t106 -23.5t49 -15l17 -6v-275h-197v127q-48 8 -100 8q-125 0 -235 -40t-188 -109
t-123 -165.5t-45 -206.5q0 -100 38.5 -187.5t106 -150.5t164 -99.5t207.5 -36.5q137 0 241 63l21 13l102 -167l-21 -13q-152 -95 -345 -95z" />
    <glyph glyph-name="ccircumflex" unicode="&#x109;" horiz-adv-x="1092" 
d="M441 1087l-157 125l223 279h142l223 -279l-157 -125l-137 173zM588 -21q-121 0 -222.5 40t-170 108.5t-107 161t-38.5 197.5q0 106 39 200.5t107.5 164t169.5 110t218 40.5q228 0 378 -164l7 -7v-237h-197v153q-84 56 -190 56q-152 0 -244.5 -90.5t-92.5 -227.5
q0 -61 25.5 -117t70 -97.5t108.5 -66.5t138 -25q77 0 141.5 33t97.5 81l15 21l161 -113l-15 -20q-61 -88 -164.5 -144.5t-234.5 -56.5z" />
    <glyph glyph-name="Cdotaccent" unicode="&#x10a;" horiz-adv-x="1237" 
d="M668 1613q0 58 32.5 90.5t90.5 32.5t90.5 -32.5t32.5 -90.5t-32.5 -90.5t-90.5 -32.5t-90.5 32.5t-32.5 90.5zM763 -20q-159 0 -293.5 52t-226 142.5t-142.5 215t-51 267.5q0 148 59 280t161.5 228t249.5 152t316 56q54 0 129 -14.5t106 -23.5t49 -15l17 -6v-275h-197
v127q-48 8 -100 8q-125 0 -235 -40t-188 -109t-123 -165.5t-45 -206.5q0 -100 38.5 -187.5t106 -150.5t164 -99.5t207.5 -36.5q137 0 241 63l21 13l102 -167l-21 -13q-152 -95 -345 -95z" />
    <glyph glyph-name="cdotaccent" unicode="&#x10b;" horiz-adv-x="1092" 
d="M430 1221q0 58 32.5 90.5t90.5 32.5t90.5 -32.5t32.5 -90.5t-32.5 -90.5t-90.5 -32.5t-90.5 32.5t-32.5 90.5zM588 -21q-121 0 -222.5 40t-170 108.5t-107 161t-38.5 197.5q0 106 39 200.5t107.5 164t169.5 110t218 40.5q228 0 378 -164l7 -7v-237h-197v153
q-84 56 -190 56q-152 0 -244.5 -90.5t-92.5 -227.5q0 -61 25.5 -117t70 -97.5t108.5 -66.5t138 -25q77 0 141.5 33t97.5 81l15 21l161 -113l-15 -20q-61 -88 -164.5 -144.5t-234.5 -56.5z" />
    <glyph glyph-name="Ccaron" unicode="&#x10c;" horiz-adv-x="1237" 
d="M679 1894l-157 -125l223 -279h142l223 279l-157 125l-137 -173zM763 -20q-159 0 -293.5 52t-226 142.5t-142.5 215t-51 267.5q0 148 59 280t161.5 228t249.5 152t316 56q54 0 129 -14.5t106 -23.5t49 -15l17 -6v-275h-197v127q-48 8 -100 8q-125 0 -235 -40t-188 -109
t-123 -165.5t-45 -206.5q0 -100 38.5 -187.5t106 -150.5t164 -99.5t207.5 -36.5q137 0 241 63l21 13l102 -167l-21 -13q-152 -95 -345 -95z" />
    <glyph glyph-name="ccaron" unicode="&#x10d;" horiz-adv-x="1092" 
d="M441 1502l-157 -125l223 -279h142l223 279l-157 125l-137 -173zM588 -21q-121 0 -222.5 40t-170 108.5t-107 161t-38.5 197.5q0 106 39 200.5t107.5 164t169.5 110t218 40.5q228 0 378 -164l7 -7v-237h-197v153q-84 56 -190 56q-152 0 -244.5 -90.5t-92.5 -227.5
q0 -61 25.5 -117t70 -97.5t108.5 -66.5t138 -25q77 0 141.5 33t97.5 81l15 21l161 -113l-15 -20q-61 -88 -164.5 -144.5t-234.5 -56.5z" />
    <glyph glyph-name="Dcaron" unicode="&#x10e;" horiz-adv-x="1457" 
d="M616 1894l-157 -125l223 -279h142l223 279l-157 125l-137 -173zM493 1373q146 0 281 -28.5t250 -86.5t200.5 -139t134 -192t48.5 -240q0 -130 -48.5 -241.5t-134 -192.5t-200.5 -138.5t-250 -86t-281 -28.5h-393v197h123v994h-123v182h393zM493 197q112 0 217 21
t195.5 62.5t158.5 99.5t106.5 137t38.5 170q0 90 -39.5 170t-108.5 140t-159 104.5t-195 67t-214 22.5h-73v-994h73z" />
    <glyph glyph-name="dcaron" unicode="&#x10f;" horiz-adv-x="1457" 
d="M1250 1576l186 -67l-143 -393l-185 67zM561 -20q-114 0 -211.5 44.5t-162 118.5t-101 169t-36.5 197q0 91 33.5 176.5t93 152.5t149 107.5t193.5 40.5q196 0 363 -163v484h-133v187h336v-1297h122v-197h-325v140q-33 -34 -63 -58.5t-70.5 -49.5t-88 -38.5t-99.5 -13.5z
M249 509q0 -85 38.5 -160.5t111 -122.5t161.5 -47q82 0 150 42t106 111.5t38 148.5q0 82 -39.5 154t-111.5 116t-160 44q-85 0 -153 -39.5t-104.5 -104.5t-36.5 -142z" />
    <glyph glyph-name="Dcroat" unicode="&#x110;" horiz-adv-x="1457" 
d="M493 197q112 0 217 21t195.5 62.5t158.5 99.5t106.5 137t38.5 170q0 90 -39.5 170t-108.5 140t-159 104.5t-195 67t-214 22.5h-73v-424h399v-200h-399v-370h73zM493 1373q146 0 281 -28.5t250 -86.5t200.5 -139t134 -192t48.5 -240q0 -130 -48.5 -241.5t-134 -192.5
t-200.5 -138.5t-250 -86t-281 -28.5h-393v197h123v370h-125v200h125v424h-123v182h393z" />
    <glyph glyph-name="dcroat" unicode="&#x111;" horiz-adv-x="1307" 
d="M249 509q0 -85 38.5 -160.5t111 -122.5t161.5 -47q82 0 150 42t106 111.5t38 148.5q0 82 -39.5 154t-111.5 116t-160 44q-85 0 -153 -39.5t-104.5 -104.5t-36.5 -142zM561 -20q-114 0 -211.5 44.5t-162 118.5t-101 169t-36.5 197q0 91 33.5 176.5t93 152.5t149 107.5
t193.5 40.5q196 0 363 -163v219h-528v200h528v65h-133v187h336v-252h115v-200h-115v-845h122v-197h-325v140q-33 -34 -63 -58.5t-70.5 -49.5t-88 -38.5t-99.5 -13.5z" />
    <glyph glyph-name="Emacron" unicode="&#x112;" horiz-adv-x="1230" 
d="M215 1490v200h800v-200h-800zM429 770h346v124h207v-443h-207v122h-346v-376h504v98h197v-295h-1030v197h123v998h-123v177h1030v-275h-197v98h-504v-425z" />
    <glyph glyph-name="emacron" unicode="&#x113;" horiz-adv-x="1259" 
d="M236 1098v200h800v-200h-800zM1159 395h-854q31 -92 130 -154t222 -62q81 0 157 35t124 93l15 20l160 -122q-11 -14 -15 -20q-74 -97 -190.5 -151.5t-250.5 -54.5q-116 0 -220 41t-177.5 109.5t-116.5 162t-43 196.5q0 99 41 190.5t111 159t170.5 108t214.5 40.5
t211.5 -37.5t165.5 -102.5t106.5 -155t38.5 -193v-103zM309 595h639q-25 82 -111 136.5t-199 54.5q-112 0 -203.5 -55t-125.5 -136z" />
    <glyph glyph-name="Ebreve" unicode="&#x114;" horiz-adv-x="1230" 
d="M1016 1675q-70 -83 -172 -134t-229 -51t-229.5 51t-171.5 134l-16 19l152 130l16 -19q100 -115 249 -115t249 115l16 19l152 -130zM429 770h346v124h207v-443h-207v122h-346v-376h504v98h197v-295h-1030v197h123v998h-123v177h1030v-275h-197v98h-504v-425z" />
    <glyph glyph-name="ebreve" unicode="&#x115;" horiz-adv-x="1259" 
d="M1037 1283q-70 -83 -172 -134t-229 -51t-229.5 51t-171.5 134l-16 19l152 130l16 -19q100 -115 249 -115t249 115l16 19l152 -130zM1159 395h-854q31 -92 130 -154t222 -62q81 0 157 35t124 93l15 20l160 -122q-11 -14 -15 -20q-74 -97 -190.5 -151.5t-250.5 -54.5
q-116 0 -220 41t-177.5 109.5t-116.5 162t-43 196.5q0 99 41 190.5t111 159t170.5 108t214.5 40.5t211.5 -37.5t165.5 -102.5t106.5 -155t38.5 -193v-103zM309 595h639q-25 82 -111 136.5t-199 54.5q-112 0 -203.5 -55t-125.5 -136z" />
    <glyph glyph-name="Edotaccent" unicode="&#x116;" horiz-adv-x="1230" 
d="M467 1613q0 58 32.5 90.5t90.5 32.5t90.5 -32.5t32.5 -90.5t-32.5 -90.5t-90.5 -32.5t-90.5 32.5t-32.5 90.5zM429 770h346v124h207v-443h-207v122h-346v-376h504v98h197v-295h-1030v197h123v998h-123v177h1030v-275h-197v98h-504v-425z" />
    <glyph glyph-name="edotaccent" unicode="&#x117;" horiz-adv-x="1259" 
d="M513 1221q0 58 32.5 90.5t90.5 32.5t90.5 -32.5t32.5 -90.5t-32.5 -90.5t-90.5 -32.5t-90.5 32.5t-32.5 90.5zM1159 395h-854q31 -92 130 -154t222 -62q81 0 157 35t124 93l15 20l160 -122q-11 -14 -15 -20q-74 -97 -190.5 -151.5t-250.5 -54.5q-116 0 -220 41
t-177.5 109.5t-116.5 162t-43 196.5q0 99 41 190.5t111 159t170.5 108t214.5 40.5t211.5 -37.5t165.5 -102.5t106.5 -155t38.5 -193v-103zM309 595h639q-25 82 -111 136.5t-199 54.5q-112 0 -203.5 -55t-125.5 -136z" />
    <glyph glyph-name="Eogonek" unicode="&#x118;" horiz-adv-x="1280" 
d="M1103 -339q-26 -70 -90 -118t-149 -48q-107 0 -182 73.5t-75 183.5q0 44 12.5 83t37 72t44.5 54t52.5 49.5t42.5 39.5l93 92l142 -141l-92 -93q-17 -16 -60.5 -54t-69.5 -64.5t-26 -37.5q0 -40 26 -60t56 -20q21 0 46 11t30 24l7 21l165 -40zM429 770h346v124h207v-443
h-207v122h-346v-376h504v98h197v-295h-1030v197h123v998h-123v177h1030v-275h-197v98h-504v-425z" />
    <glyph glyph-name="eogonek" unicode="&#x119;" horiz-adv-x="1259" 
d="M994 -297q-26 -70 -90 -118t-149 -48q-107 0 -182 73.5t-75 183.5q0 44 12.5 83t37 72t44.5 54t52.5 49.5t42.5 39.5l93 92l142 -141l-92 -93q-17 -16 -60.5 -54t-69.5 -64.5t-26 -37.5q0 -40 26 -60t56 -20q21 0 46 11t30 24l7 21l165 -40zM1159 395h-854
q31 -92 130 -154t222 -62q81 0 157 35t124 93l15 20l160 -122q-11 -14 -15 -20q-74 -97 -190.5 -151.5t-250.5 -54.5q-116 0 -220 41t-177.5 109.5t-116.5 162t-43 196.5q0 99 41 190.5t111 159t170.5 108t214.5 40.5t211.5 -37.5t165.5 -102.5t106.5 -155t38.5 -193v-103z
M309 595h639q-25 82 -111 136.5t-199 54.5q-112 0 -203.5 -55t-125.5 -136z" />
    <glyph glyph-name="Ecaron" unicode="&#x11a;" horiz-adv-x="1230" 
d="M478 1894l-157 -125l223 -279h142l223 279l-157 125l-137 -173zM429 770h346v124h207v-443h-207v122h-346v-376h504v98h197v-295h-1030v197h123v998h-123v177h1030v-275h-197v98h-504v-425z" />
    <glyph glyph-name="ecaron" unicode="&#x11b;" horiz-adv-x="1259" 
d="M499 1502l-157 -125l223 -279h142l223 279l-157 125l-137 -173zM1159 395h-854q31 -92 130 -154t222 -62q81 0 157 35t124 93l15 20l160 -122q-11 -14 -15 -20q-74 -97 -190.5 -151.5t-250.5 -54.5q-116 0 -220 41t-177.5 109.5t-116.5 162t-43 196.5q0 99 41 190.5
t111 159t170.5 108t214.5 40.5t211.5 -37.5t165.5 -102.5t106.5 -155t38.5 -193v-103zM309 595h639q-25 82 -111 136.5t-199 54.5q-112 0 -203.5 -55t-125.5 -136z" />
    <glyph glyph-name="Gcircumflex" unicode="&#x11c;" horiz-adv-x="1237" 
d="M679 1479l-157 125l223 279h142l223 -279l-157 -125l-137 173zM840 1174q-125 0 -235 -40t-188 -109t-123 -165.5t-45 -206.5q0 -100 38.5 -187.5t106 -150.5t164 -99.5t209.5 -36.5q61 0 173 31v363h-325v197h522v-691l-12 -7q-152 -92 -354 -92q-162 0 -298 51.5
t-228 141.5t-143.5 214.5t-51.5 269.5q0 148 59 280t161.5 228t249.5 152t316 56q54 0 129 -14.5t106 -23.5t49 -15l17 -6v-275h-197v127q-48 8 -100 8z" />
    <glyph glyph-name="gcircumflex" unicode="&#x11d;" horiz-adv-x="1302" 
d="M429 1087l-157 125l223 279h142l223 -279l-157 -125l-137 173zM295 -152q0 -115 68.5 -160t202.5 -45q169 0 242.5 47.5t73.5 181.5v268q-158 -160 -363 -160q-140 0 -248.5 66.5t-164.5 174t-56 236.5q0 105 35.5 200.5t99.5 169t161.5 116.5t214.5 43q172 0 321 -157
v137h320v-182h-127v-912q0 -426 -509 -426q-225 0 -346.5 98t-121.5 304v25h197v-25zM560 787q-140 0 -225.5 -97.5t-85.5 -232.5q0 -122 81.5 -204t212.5 -82q137 0 224 92t87 222q0 129 -80 215.5t-214 86.5z" />
    <glyph glyph-name="Gbreve" unicode="&#x11e;" horiz-adv-x="1237" 
d="M1217 1675q-70 -83 -172 -134t-229 -51t-229.5 51t-171.5 134l-16 19l152 130l16 -19q100 -115 249 -115t249 115l16 19l152 -130zM840 1174q-125 0 -235 -40t-188 -109t-123 -165.5t-45 -206.5q0 -100 38.5 -187.5t106 -150.5t164 -99.5t209.5 -36.5q61 0 173 31v363
h-325v197h522v-691l-12 -7q-152 -92 -354 -92q-162 0 -298 51.5t-228 141.5t-143.5 214.5t-51.5 269.5q0 148 59 280t161.5 228t249.5 152t316 56q54 0 129 -14.5t106 -23.5t49 -15l17 -6v-275h-197v127q-48 8 -100 8z" />
    <glyph glyph-name="gbreve" unicode="&#x11f;" horiz-adv-x="1302" 
d="M967 1283q-70 -83 -172 -134t-229 -51t-229.5 51t-171.5 134l-16 19l152 130l16 -19q100 -115 249 -115t249 115l16 19l152 -130zM295 -152q0 -115 68.5 -160t202.5 -45q169 0 242.5 47.5t73.5 181.5v268q-158 -160 -363 -160q-140 0 -248.5 66.5t-164.5 174t-56 236.5
q0 105 35.5 200.5t99.5 169t161.5 116.5t214.5 43q172 0 321 -157v137h320v-182h-127v-912q0 -426 -509 -426q-225 0 -346.5 98t-121.5 304v25h197v-25zM560 787q-140 0 -225.5 -97.5t-85.5 -232.5q0 -122 81.5 -204t212.5 -82q137 0 224 92t87 222q0 129 -80 215.5
t-214 86.5z" />
    <glyph glyph-name="Gdotaccent" unicode="&#x120;" horiz-adv-x="1237" 
d="M668 1613q0 58 32.5 90.5t90.5 32.5t90.5 -32.5t32.5 -90.5t-32.5 -90.5t-90.5 -32.5t-90.5 32.5t-32.5 90.5zM840 1174q-125 0 -235 -40t-188 -109t-123 -165.5t-45 -206.5q0 -100 38.5 -187.5t106 -150.5t164 -99.5t209.5 -36.5q61 0 173 31v363h-325v197h522v-691
l-12 -7q-152 -92 -354 -92q-162 0 -298 51.5t-228 141.5t-143.5 214.5t-51.5 269.5q0 148 59 280t161.5 228t249.5 152t316 56q54 0 129 -14.5t106 -23.5t49 -15l17 -6v-275h-197v127q-48 8 -100 8z" />
    <glyph glyph-name="gdotaccent" unicode="&#x121;" horiz-adv-x="1302" 
d="M418 1221q0 58 32.5 90.5t90.5 32.5t90.5 -32.5t32.5 -90.5t-32.5 -90.5t-90.5 -32.5t-90.5 32.5t-32.5 90.5zM295 -152q0 -115 68.5 -160t202.5 -45q169 0 242.5 47.5t73.5 181.5v268q-158 -160 -363 -160q-140 0 -248.5 66.5t-164.5 174t-56 236.5q0 105 35.5 200.5
t99.5 169t161.5 116.5t214.5 43q172 0 321 -157v137h320v-182h-127v-912q0 -426 -509 -426q-225 0 -346.5 98t-121.5 304v25h197v-25zM560 787q-140 0 -225.5 -97.5t-85.5 -232.5q0 -122 81.5 -204t212.5 -82q137 0 224 92t87 222q0 129 -80 215.5t-214 86.5z" />
    <glyph glyph-name="Gcommaaccent" unicode="&#x122;" horiz-adv-x="1237" 
d="M734 -60l186 -67l-143 -393l-185 67zM840 1174q-125 0 -235 -40t-188 -109t-123 -165.5t-45 -206.5q0 -100 38.5 -187.5t106 -150.5t164 -99.5t209.5 -36.5q61 0 173 31v363h-325v197h522v-691l-12 -7q-152 -92 -354 -92q-162 0 -298 51.5t-228 141.5t-143.5 214.5
t-51.5 269.5q0 148 59 280t161.5 228t249.5 152t316 56q54 0 129 -14.5t106 -23.5t49 -15l17 -6v-275h-197v127q-48 8 -100 8z" />
    <glyph glyph-name="gcommaaccent" unicode="&#x123;" horiz-adv-x="1452" 
d="M627 1596l186 -67l-143 -393l-185 67zM295 -152q0 -115 68.5 -160t202.5 -45q169 0 242.5 47.5t73.5 181.5v268q-158 -160 -363 -160q-140 0 -248.5 66.5t-164.5 174t-56 236.5q0 105 35.5 200.5t99.5 169t161.5 116.5t214.5 43q172 0 321 -157v137h320v-182h-127v-912
q0 -426 -509 -426q-225 0 -346.5 98t-121.5 304v25h197v-25zM560 787q-140 0 -225.5 -97.5t-85.5 -232.5q0 -122 81.5 -204t212.5 -82q137 0 224 92t87 222q0 129 -80 215.5t-214 86.5z" />
    <glyph glyph-name="Hcircumflex" unicode="&#x124;" horiz-adv-x="1600" 
d="M663 1479l-157 125l223 279h142l223 -279l-157 -125l-137 173zM1500 1373v-182h-123v-994h123v-197h-443v197h123v376h-760v-376h122v-197h-442v197h123v994h-123v182h442v-182h-122v-421h760v421h-123v182h443z" />
    <glyph glyph-name="hcircumflex" unicode="&#x125;" 
d="M552 1581l-157 125l223 279h142l223 -279l-157 -125l-137 173zM959 638q0 87 -34.5 122t-123.5 35q-114 0 -206.5 -36.5t-150.5 -90.5v-471h123v-197h-442v197h122v1110h-147v187h344v-624q40 40 81 65t112.5 42t168.5 17q162 0 256 -87.5t94 -243.5v-466h123v-197h-442
v197h122v441z" />
    <glyph glyph-name="Hbar" unicode="&#x126;" horiz-adv-x="1600" 
d="M223 885h-173v191h173v115h-123v182h442v-182h-122v-121h760v121h-123v182h443v-182h-123v-115h173v-191h-173v-688h123v-197h-443v197h123v376h-760v-376h122v-197h-442v197h123v688zM1180 770v125h-760v-125h760z" />
    <glyph glyph-name="hbar" unicode="&#x127;" 
d="M959 638q0 87 -34.5 122t-123.5 35q-114 0 -206.5 -36.5t-150.5 -90.5v-471h123v-197h-442v197h122v845h-115v200h115v65h-147v187h344v-252h538v-200h-538v-172q40 40 81 65t112.5 42t168.5 17q162 0 256 -87.5t94 -243.5v-466h123v-197h-442v197h122v441z" />
    <glyph glyph-name="Itilde" unicode="&#x128;" horiz-adv-x="642" 
d="M142 1873q52 0 97.5 -17t77.5 -41.5t61 -49t60 -41.5t62 -17q12 0 20 7.5t8 17.5q0 9 -7 16l-16 19l149 133l17 -18q57 -65 57 -150q0 -96 -65.5 -160.5t-163.5 -64.5q-64 0 -119 26t-87.5 57t-73 57t-77.5 26q-12 0 -20 -7.5t-8 -17.5q0 -9 7 -16l16 -19l-149 -133
l-17 18q-57 65 -57 150q0 96 65 160.5t163 64.5zM223 197v996h-123v180h442v-180h-122v-996h122v-197h-442v197h123z" />
    <glyph glyph-name="itilde" unicode="&#x129;" horiz-adv-x="666" 
d="M141 1481q52 0 97.5 -17t77.5 -41.5t61 -49t60 -41.5t62 -17q12 0 20 7.5t8 17.5q0 9 -7 16l-16 19l149 133l17 -18q57 -65 57 -150q0 -96 -65.5 -160.5t-163.5 -64.5q-64 0 -119 26t-87.5 57t-73 57t-77.5 26q-12 0 -20 -7.5t-8 -17.5q0 -9 7 -16l16 -19l-149 -133
l-17 18q-57 65 -57 150q0 96 65 160.5t163 64.5zM247 197v586h-147v190h344v-776h122v-197h-442v197h123z" />
    <glyph glyph-name="Imacron" unicode="&#x12a;" horiz-adv-x="642" 
d="M-79 1490v200h800v-200h-800zM223 197v996h-123v180h442v-180h-122v-996h122v-197h-442v197h123z" />
    <glyph glyph-name="imacron" unicode="&#x12b;" horiz-adv-x="666" 
d="M-55 1098v200h800v-200h-800zM247 197v586h-147v190h344v-776h122v-197h-442v197h123z" />
    <glyph glyph-name="Ibreve" unicode="&#x12c;" horiz-adv-x="642" 
d="M722 1675q-70 -83 -172 -134t-229 -51t-229.5 51t-171.5 134l-16 19l152 130l16 -19q100 -115 249 -115t249 115l16 19l152 -130zM223 197v996h-123v180h442v-180h-122v-996h122v-197h-442v197h123z" />
    <glyph glyph-name="ibreve" unicode="&#x12d;" horiz-adv-x="666" 
d="M746 1283q-70 -83 -172 -134t-229 -51t-229.5 51t-171.5 134l-16 19l152 130l16 -19q100 -115 249 -115t249 115l16 19l152 -130zM247 197v586h-147v190h344v-776h122v-197h-442v197h123z" />
    <glyph glyph-name="Iogonek" unicode="&#x12e;" horiz-adv-x="642" 
d="M540 -339q-26 -70 -90 -118t-149 -48q-107 0 -182 73.5t-75 183.5q0 44 12.5 83t37 72t44.5 54t52.5 49.5t42.5 39.5l93 92l142 -141l-92 -93q-17 -16 -60.5 -54t-69.5 -64.5t-26 -37.5q0 -40 26 -60t56 -20q21 0 46 11t30 24l7 21l165 -40zM223 197v996h-123v180h442
v-180h-122v-996h122v-197h-442v197h123z" />
    <glyph glyph-name="iogonek" unicode="&#x12f;" horiz-adv-x="666" 
d="M564 -340q-26 -70 -90 -118t-149 -48q-107 0 -182 73.5t-75 183.5q0 44 12.5 83t37 72t44.5 54t52.5 49.5t42.5 39.5l93 92l142 -141l-92 -93q-17 -16 -60.5 -54t-69.5 -64.5t-26 -37.5q0 -40 26 -60t56 -20q21 0 46 11t30 24l7 21l165 -40zM247 197v586h-147v190h344
v-776h122v-197h-442v197h123zM321 1071q-58 0 -90.5 32.5t-32.5 90.5t32.5 90.5t90.5 32.5t90.5 -32.5t32.5 -90.5t-32.5 -90.5t-90.5 -32.5z" />
    <glyph glyph-name="Idotaccent" unicode="&#x130;" horiz-adv-x="642" 
d="M173 1613q0 58 32.5 90.5t90.5 32.5t90.5 -32.5t32.5 -90.5t-32.5 -90.5t-90.5 -32.5t-90.5 32.5t-32.5 90.5zM223 197v996h-123v180h442v-180h-122v-996h122v-197h-442v197h123z" />
    <glyph glyph-name="dotlessi" unicode="&#x131;" horiz-adv-x="666" 
d="M247 197v586h-147v190h344v-776h122v-197h-442v197h123z" />
    <glyph glyph-name="IJ" unicode="&#x132;" horiz-adv-x="1234" 
d="M712 -162h49q99 0 137.5 47.5t38.5 156.5v1151h-245v180h442v-1334q0 -185 -95.5 -291.5t-277.5 -106.5h-49v197zM223 197v996h-123v180h442v-180h-122v-996h122v-197h-442v197h123z" />
    <glyph glyph-name="ij" unicode="&#x133;" horiz-adv-x="1039" 
d="M816 1071q-58 0 -90.5 32.5t-32.5 90.5t32.5 90.5t90.5 32.5t90.5 -32.5t32.5 -90.5t-32.5 -90.5t-90.5 -32.5zM516 -361h50q99 0 137.5 48.5t38.5 162.5v933h-148v190h345v-1123q0 -190 -96 -299.5t-277 -109.5h-50v198zM247 197v586h-147v190h344v-776h122v-197h-442
v197h123zM321 1071q-58 0 -90.5 32.5t-32.5 90.5t32.5 90.5t90.5 32.5t90.5 -32.5t32.5 -90.5t-32.5 -90.5t-90.5 -32.5z" />
    <glyph glyph-name="Jcircumflex" unicode="&#x134;" horiz-adv-x="642" 
d="M184 1479l-157 125l223 279h142l223 -279l-157 -125l-137 173zM120 -162h49q99 0 137.5 47.5t38.5 156.5v1151h-245v180h442v-1334q0 -185 -95.5 -291.5t-277.5 -106.5h-49v197z" />
    <glyph glyph-name="jcircumflex" unicode="&#x135;" horiz-adv-x="548" 
d="M187 1087l-157 125l223 279h142l223 -279l-157 -125l-137 173zM25 -186h50q99 0 137.5 48.5t38.5 162.5v758h-148v190h345v-948q0 -190 -96 -299.5t-277 -109.5h-50v198z" />
    <glyph glyph-name="Kcommaaccent" unicode="&#x136;" horiz-adv-x="1453" 
d="M704 -40l186 -67l-143 -393l-185 67zM420 710v-513h122v-197h-442v197h123v996h-123v180h442v-180h-122v-289l694 469h204v-180h-140l-475 -320l516 -676h134v-197h-238l-585 791z" />
    <glyph glyph-name="kcommaaccent" unicode="&#x137;" horiz-adv-x="1261" 
d="M608 -40l186 -67l-143 -393l-185 67zM223 197v1110h-123v187h320v-803l486 277h200v-192h-140l-280 -148l341 -431h134v-197h-239l-420 559l-82 -53v-309h122v-197h-442v197h123z" />
    <glyph glyph-name="kgreenlandic" unicode="&#x138;" horiz-adv-x="1107" 
d="M364 481v-303h85v-178h-349v178h86v617h-86v166h349v-166h-85v-153l466 319h153v-166h-103l-281 -188l336 -429h72v-178h-178l-398 526z" />
    <glyph glyph-name="Lacute" unicode="&#x139;" horiz-adv-x="1134" 
d="M194 1605l231 289l156 -125l-231 -289zM420 197h417v98h197v-295h-934v197h123v996h-123v180h442v-180h-122v-996z" />
    <glyph glyph-name="lacute" unicode="&#x13a;" horiz-adv-x="666" 
d="M168 1706l231 289l156 -125l-231 -289zM247 197v1110h-147v187h344v-1297h122v-197h-442v197h123z" />
    <glyph glyph-name="Lcommaaccent" unicode="&#x13b;" horiz-adv-x="1134" 
d="M545 -40l186 -67l-143 -393l-185 67zM420 197h417v98h197v-295h-934v197h123v996h-123v180h442v-180h-122v-996z" />
    <glyph glyph-name="lcommaaccent" unicode="&#x13c;" horiz-adv-x="666" 
d="M323 -40l186 -67l-143 -393l-185 67zM247 197v1110h-147v187h344v-1297h122v-197h-442v197h123z" />
    <glyph glyph-name="Lcaron" unicode="&#x13d;" horiz-adv-x="1184" 
d="M806 1475l186 -67l-143 -393l-185 67zM420 197h417v98h197v-295h-934v197h123v996h-123v180h442v-180h-122v-996z" />
    <glyph glyph-name="lcaron" unicode="&#x13e;" horiz-adv-x="716" 
d="M638 1576l186 -67l-143 -393l-185 67zM247 197v1110h-147v187h344v-1297h122v-197h-442v197h123z" />
    <glyph glyph-name="Ldot" unicode="&#x13f;" horiz-adv-x="1134" 
d="M548 696q0 58 32.5 90.5t90.5 32.5t90.5 -32.5t32.5 -90.5t-32.5 -90.5t-90.5 -32.5t-90.5 32.5t-32.5 90.5zM420 197h417v98h197v-295h-934v197h123v996h-123v180h442v-180h-122v-996z" />
    <glyph glyph-name="ldot" unicode="&#x140;" horiz-adv-x="887" 
d="M566 728q0 58 32.5 90.5t90.5 32.5t90.5 -32.5t32.5 -90.5t-32.5 -90.5t-90.5 -32.5t-90.5 32.5t-32.5 90.5zM247 197v1110h-147v187h344v-1297h122v-197h-442v197h123z" />
    <glyph glyph-name="Lslash" unicode="&#x141;" horiz-adv-x="1223" 
d="M321 694l-125 -66l-96 168l221 115v282h-123v180h442v-180h-122v-179l186 90l120 -167l-306 -140l17 -600h400v98h197v-295h-934v197h123v497z" />
    <glyph glyph-name="lslash" unicode="&#x142;" horiz-adv-x="919" 
d="M345 709l-149 -79l-96 169l245 128v380h-147v187h394v-476l149 82l96 -167l-245 -127v-609h122v-197h-492v197h123v512z" />
    <glyph glyph-name="Nacute" unicode="&#x143;" horiz-adv-x="1526" 
d="M611 1605l231 289l156 -125l-231 -289zM1426 1191h-122v-1191h-198v46l-686 997v-846h147v-197h-467v197h123v994h-123v182h320v-46l686 -998v862h-122v182h442v-182z" />
    <glyph glyph-name="nacute" unicode="&#x144;" 
d="M537 1213l231 289l156 -125l-231 -289zM959 638q0 87 -34.5 122t-123.5 35q-114 0 -206.5 -36.5t-150.5 -90.5v-471h123v-197h-442v197h122v589h-147v187h344v-103q40 40 81 65t112.5 42t168.5 17q176 0 263 -85.5t87 -245.5v-466h123v-197h-442v197h122v441z" />
    <glyph glyph-name="Ncommaaccent" unicode="&#x145;" horiz-adv-x="1526" 
d="M680 -40l186 -67l-143 -393l-185 67zM1426 1191h-122v-1191h-198v46l-686 997v-846h147v-197h-467v197h123v994h-123v182h320v-46l686 -998v862h-122v182h442v-182z" />
    <glyph glyph-name="ncommaaccent" unicode="&#x146;" 
d="M680 -40l186 -67l-143 -393l-185 67zM959 638q0 87 -34.5 122t-123.5 35q-114 0 -206.5 -36.5t-150.5 -90.5v-471h123v-197h-442v197h122v589h-147v187h344v-103q40 40 81 65t112.5 42t168.5 17q176 0 263 -85.5t87 -245.5v-466h123v-197h-442v197h122v441z" />
    <glyph glyph-name="Ncaron" unicode="&#x147;" horiz-adv-x="1526" 
d="M626 1894l-157 -125l223 -279h142l223 279l-157 125l-137 -173zM1426 1191h-122v-1191h-198v46l-686 997v-846h147v-197h-467v197h123v994h-123v182h320v-46l686 -998v862h-122v182h442v-182z" />
    <glyph glyph-name="ncaron" unicode="&#x148;" 
d="M552 1502l-157 -125l223 -279h142l223 279l-157 125l-137 -173zM959 638q0 87 -34.5 122t-123.5 35q-114 0 -206.5 -36.5t-150.5 -90.5v-471h123v-197h-442v197h122v589h-147v187h344v-103q40 40 81 65t112.5 42t168.5 17q176 0 263 -85.5t87 -245.5v-466h123v-197h-442
v197h122v441z" />
    <glyph glyph-name="napostrophe" unicode="&#x149;" horiz-adv-x="1529" 
d="M160 1296l186 -67l-143 -393l-185 67zM1159 638q0 87 -34.5 122t-123.5 35q-114 0 -206.5 -36.5t-150.5 -90.5v-471h123v-197h-442v197h122v589h-147v187h344v-103q40 40 81 65t112.5 42t168.5 17q176 0 263 -85.5t87 -245.5v-466h123v-197h-442v197h122v441z" />
    <glyph glyph-name="Eng" unicode="&#x14a;" horiz-adv-x="1526" 
d="M925 -186q102 0 141 48.5t40 162.5v21l-686 997v-846h147v-197h-467v197h123v994h-123v182h320v-46l686 -998v862h-122v182h442v-182h-122v-1166q0 -190 -97 -299.5t-282 -109.5h-55v198h55z" />
    <glyph glyph-name="eng" unicode="&#x14b;" horiz-adv-x="1256" 
d="M444 973v-103q68 61 148 92.5t208 31.5q180 0 268 -86t88 -249v-634q0 -191 -99.5 -300t-295.5 -109h-58v198h58q59 0 97 11t60.5 36.5t31.5 62t9 91.5v618q0 95 -29 124q-40 38 -134 38q-54 0 -110.5 -12t-94.5 -29q-94 -42 -147 -86v-471h123v-197h-442v197h122v589
h-147v187h344z" />
    <glyph glyph-name="Omacron" unicode="&#x14c;" horiz-adv-x="1503" 
d="M351 1490v200h800v-200h-800zM751 178q112 0 207.5 40.5t160 110.5t101 164.5t36.5 200.5q0 104 -36.5 196.5t-101.5 160t-160 106.5t-207 39t-207 -39t-159.5 -106.5t-101 -159.5t-36.5 -197q0 -107 36.5 -201t101 -164t159.5 -110.5t207 -40.5zM751 1393
q159 0 292 -54.5t222 -148.5t138.5 -222t49.5 -274q0 -117 -31 -224.5t-92 -196t-145 -154.5t-195.5 -102.5t-238.5 -36.5t-238.5 36.5t-195.5 102.5t-144.5 155t-91.5 196t-31 224q0 145 49.5 273t138.5 222.5t222 149t291 54.5z" />
    <glyph glyph-name="omacron" unicode="&#x14d;" horiz-adv-x="1132" 
d="M166 1098v200h800v-200h-800zM566 -21q-156 0 -275 70t-180 185t-61 256t61 256.5t180 185t275 69.5t275 -70t180 -185t61 -256t-61 -256.5t-180 -185t-275 -69.5zM566 177q88 0 162 44t115.5 116t41.5 153t-41 153t-115 116.5t-163 44.5q-88 0 -162 -44.5t-115.5 -116.5
t-41.5 -153t41 -153t115 -116t163 -44z" />
    <glyph glyph-name="Obreve" unicode="&#x14e;" horiz-adv-x="1503" 
d="M1152 1675q-70 -83 -172 -134t-229 -51t-229.5 51t-171.5 134l-16 19l152 130l16 -19q100 -115 249 -115t249 115l16 19l152 -130zM751 178q112 0 207.5 40.5t160 110.5t101 164.5t36.5 200.5q0 104 -36.5 196.5t-101.5 160t-160 106.5t-207 39t-207 -39t-159.5 -106.5
t-101 -159.5t-36.5 -197q0 -107 36.5 -201t101 -164t159.5 -110.5t207 -40.5zM751 1393q159 0 292 -54.5t222 -148.5t138.5 -222t49.5 -274q0 -117 -31 -224.5t-92 -196t-145 -154.5t-195.5 -102.5t-238.5 -36.5t-238.5 36.5t-195.5 102.5t-144.5 155t-91.5 196t-31 224
q0 145 49.5 273t138.5 222.5t222 149t291 54.5z" />
    <glyph glyph-name="obreve" unicode="&#x14f;" horiz-adv-x="1132" 
d="M967 1283q-70 -83 -172 -134t-229 -51t-229.5 51t-171.5 134l-16 19l152 130l16 -19q100 -115 249 -115t249 115l16 19l152 -130zM566 -21q-156 0 -275 70t-180 185t-61 256t61 256.5t180 185t275 69.5t275 -70t180 -185t61 -256t-61 -256.5t-180 -185t-275 -69.5z
M566 177q88 0 162 44t115.5 116t41.5 153t-41 153t-115 116.5t-163 44.5q-88 0 -162 -44.5t-115.5 -116.5t-41.5 -153t41 -153t115 -116t163 -44z" />
    <glyph glyph-name="Ohungarumlaut" unicode="&#x150;" horiz-adv-x="1503" 
d="M749 1605l231 289l156 -125l-231 -289zM449 1605l231 289l156 -125l-231 -289zM751 178q112 0 207.5 40.5t160 110.5t101 164.5t36.5 200.5q0 104 -36.5 196.5t-101.5 160t-160 106.5t-207 39t-207 -39t-159.5 -106.5t-101 -159.5t-36.5 -197q0 -107 36.5 -201t101 -164
t159.5 -110.5t207 -40.5zM751 1393q159 0 292 -54.5t222 -148.5t138.5 -222t49.5 -274q0 -117 -31 -224.5t-92 -196t-145 -154.5t-195.5 -102.5t-238.5 -36.5t-238.5 36.5t-195.5 102.5t-144.5 155t-91.5 196t-31 224q0 145 49.5 273t138.5 222.5t222 149t291 54.5z" />
    <glyph glyph-name="ohungarumlaut" unicode="&#x151;" horiz-adv-x="1132" 
d="M564 1213l231 289l156 -125l-231 -289zM264 1213l231 289l156 -125l-231 -289zM566 -21q-156 0 -275 70t-180 185t-61 256t61 256.5t180 185t275 69.5t275 -70t180 -185t61 -256t-61 -256.5t-180 -185t-275 -69.5zM566 177q88 0 162 44t115.5 116t41.5 153t-41 153
t-115 116.5t-163 44.5q-88 0 -162 -44.5t-115.5 -116.5t-41.5 -153t41 -153t115 -116t163 -44z" />
    <glyph glyph-name="OE" unicode="&#x152;" horiz-adv-x="1933" 
d="M743 0q-156 0 -287 54t-219.5 147.5t-137.5 220.5t-49 272t49 269.5t138 215t219.5 142t286.5 51.5h1090v-275h-197v98h-479v-425h327v124h201v-443h-201v122h-327v-376h479v98h197v-295h-1090zM743 1195q-105 0 -198 -40t-158 -108t-102.5 -160t-37.5 -193
q0 -141 60.5 -253.5t174.5 -178t261 -65.5h208v998h-208z" />
    <glyph glyph-name="oe" unicode="&#x153;" horiz-adv-x="1917" 
d="M1380 789q-110 0 -187 -55t-109 -141h575q-21 83 -96 139.5t-183 56.5zM551 177q83 0 154 44t111 116t40 153t-40 153.5t-111 116.5t-154 44q-84 0 -154.5 -44.5t-110 -116.5t-39.5 -153t39.5 -153t110 -116t154.5 -44zM551 -21q-113 0 -207.5 40.5t-158.5 110t-99.5 163
t-35.5 197.5q0 105 35.5 198t99.5 162.5t158.5 110t207.5 40.5q138 0 247.5 -61.5t167.5 -167.5q65 100 170.5 157t243.5 57q108 0 200.5 -38t154.5 -102.5t97 -149.5t35 -178v-100h-799q22 -103 115 -171.5t209 -68.5q74 0 144.5 35t112.5 93l14 20l161 -114l-15 -20
q-69 -99 -180.5 -155.5t-236.5 -56.5q-134 0 -244.5 62.5t-178.5 168.5q-58 -108 -168.5 -170t-249.5 -62z" />
    <glyph glyph-name="Racute" unicode="&#x154;" horiz-adv-x="1313" 
d="M444 1605l231 289l156 -125l-231 -289zM100 1373h417q84 -1 157 -8t145 -21.5t130 -36.5t108 -56t84 -78t53 -103t19 -130q0 -148 -88 -248.5t-231 -142.5l196 -352h117v-197h-241l-320 491q-72 -5 -153 -5h-73v-289h122v-197h-442v197h123v991h-123v185zM493 683
q75 0 137 4t123 14t107 28.5t82 45t55 66t19 89.5q0 57 -28.5 102t-77 74t-116.5 47.5t-142 26.5t-159 8h-73v-505h73z" />
    <glyph glyph-name="racute" unicode="&#x155;" horiz-adv-x="1214" 
d="M455 1213l231 289l156 -125l-231 -289zM439 680v-483h123v-197h-437v197h122v589h-147v187h339v-76q62 45 128.5 70.5t155.5 25.5q126 0 212.5 -40.5t154.5 -121.5l24 -28v-233h-200v157q-37 35 -79 50.5t-113 15.5q-53 0 -103.5 -13.5t-87 -34.5t-57.5 -36t-35 -29z" />
    <glyph glyph-name="Rcommaaccent" unicode="&#x156;" horiz-adv-x="1313" 
d="M632 -40l186 -67l-143 -393l-185 67zM100 1373h417q84 -1 157 -8t145 -21.5t130 -36.5t108 -56t84 -78t53 -103t19 -130q0 -148 -88 -248.5t-231 -142.5l196 -352h117v-197h-241l-320 491q-72 -5 -153 -5h-73v-289h122v-197h-442v197h123v991h-123v185zM493 683
q75 0 137 4t123 14t107 28.5t82 45t55 66t19 89.5q0 57 -28.5 102t-77 74t-116.5 47.5t-142 26.5t-159 8h-73v-505h73z" />
    <glyph glyph-name="rcommaaccent" unicode="&#x157;" horiz-adv-x="1214" 
d="M346 -40l186 -67l-143 -393l-185 67zM439 680v-483h123v-197h-437v197h122v589h-147v187h339v-76q62 45 128.5 70.5t155.5 25.5q126 0 212.5 -40.5t154.5 -121.5l24 -28v-233h-200v157q-37 35 -79 50.5t-113 15.5q-53 0 -103.5 -13.5t-87 -34.5t-57.5 -36t-35 -29z" />
    <glyph glyph-name="Rcaron" unicode="&#x158;" horiz-adv-x="1313" 
d="M459 1894l-157 -125l223 -279h142l223 279l-157 125l-137 -173zM100 1373h417q84 -1 157 -8t145 -21.5t130 -36.5t108 -56t84 -78t53 -103t19 -130q0 -148 -88 -248.5t-231 -142.5l196 -352h117v-197h-241l-320 491q-72 -5 -153 -5h-73v-289h122v-197h-442v197h123v991
h-123v185zM493 683q75 0 137 4t123 14t107 28.5t82 45t55 66t19 89.5q0 57 -28.5 102t-77 74t-116.5 47.5t-142 26.5t-159 8h-73v-505h73z" />
    <glyph glyph-name="rcaron" unicode="&#x159;" horiz-adv-x="1214" 
d="M470 1502l-157 -125l223 -279h142l223 279l-157 125l-137 -173zM439 680v-483h123v-197h-437v197h122v589h-147v187h339v-76q62 45 128.5 70.5t155.5 25.5q126 0 212.5 -40.5t154.5 -121.5l24 -28v-233h-200v157q-37 35 -79 50.5t-113 15.5q-53 0 -103.5 -13.5t-87 -34.5
t-57.5 -36t-35 -29z" />
    <glyph glyph-name="Sacute" unicode="&#x15a;" horiz-adv-x="1261" 
d="M475 1605l231 289l156 -125l-231 -289zM634 175q45 0 72.5 0.5t60.5 2t52.5 4.5t42 8.5t34.5 13t25.5 18.5t20 25.5t12.5 33.5t8 42t2 53q0 38 -11.5 68t-39.5 51.5t-53.5 36t-75 26.5t-80 18t-91.5 16q-52 9 -79.5 13.5t-77 15.5t-77 21t-69 28t-65 37t-51.5 48
t-43 62.5t-25 77.5t-10 96q0 93 39.5 169.5t108.5 127t162 78t201 27.5q127 0 247 -38.5t208 -94.5l12 -7v-302h-199v191q-123 53 -257 53q-150 0 -237.5 -54.5t-87.5 -161.5q0 -32 10.5 -57.5t37 -44.5t49.5 -32t69.5 -25.5t75.5 -19t86 -17.5q54 -10 82 -16t79.5 -19
t80.5 -24t72.5 -31t68.5 -41t54.5 -51.5t45 -66t26.5 -82t11 -99.5q0 -82 -27 -146t-74.5 -106t-116 -70t-146 -40t-169.5 -12q-134 0 -273.5 33t-240.5 79l-14 7v317h197v-188q78 -27 154 -39.5t183 -12.5z" />
    <glyph glyph-name="sacute" unicode="&#x15b;" horiz-adv-x="1018" 
d="M368 1215l231 289l156 -125l-231 -289zM721 302q0 27 -21 45.5t-57 29t-83 19t-98 18t-102.5 21t-98.5 32.5t-83 50t-57 75t-21 105q0 71 37 130t97 97t135 58.5t153 20.5q94 0 187.5 -37t159.5 -93l9 -7v-253h-197v155q-75 38 -160 38q-54 0 -105 -15.5t-85 -44
t-34 -63.5q0 -21 17.5 -37t47 -26t69.5 -19.5t84.5 -17t92 -19t92 -24.5t84.5 -35.5t69.5 -50.5t47 -70t17.5 -94q0 -72 -35 -132t-94.5 -98.5t-136.5 -59.5t-163 -21q-99 0 -199.5 34.5t-174.5 88.5l-11 7v240h197v-132q85 -40 188 -40q97 0 164.5 35t67.5 90z" />
    <glyph glyph-name="Scircumflex" unicode="&#x15c;" horiz-adv-x="1261" 
d="M490 1479l-157 125l223 279h142l223 -279l-157 -125l-137 173zM634 175q45 0 72.5 0.5t60.5 2t52.5 4.5t42 8.5t34.5 13t25.5 18.5t20 25.5t12.5 33.5t8 42t2 53q0 38 -11.5 68t-39.5 51.5t-53.5 36t-75 26.5t-80 18t-91.5 16q-52 9 -79.5 13.5t-77 15.5t-77 21t-69 28
t-65 37t-51.5 48t-43 62.5t-25 77.5t-10 96q0 93 39.5 169.5t108.5 127t162 78t201 27.5q127 0 247 -38.5t208 -94.5l12 -7v-302h-199v191q-123 53 -257 53q-150 0 -237.5 -54.5t-87.5 -161.5q0 -32 10.5 -57.5t37 -44.5t49.5 -32t69.5 -25.5t75.5 -19t86 -17.5
q54 -10 82 -16t79.5 -19t80.5 -24t72.5 -31t68.5 -41t54.5 -51.5t45 -66t26.5 -82t11 -99.5q0 -82 -27 -146t-74.5 -106t-116 -70t-146 -40t-169.5 -12q-134 0 -273.5 33t-240.5 79l-14 7v317h197v-188q78 -27 154 -39.5t183 -12.5z" />
    <glyph glyph-name="scircumflex" unicode="&#x15d;" horiz-adv-x="1018" 
d="M383 1089l-157 125l223 279h142l223 -279l-157 -125l-137 173zM721 302q0 27 -21 45.5t-57 29t-83 19t-98 18t-102.5 21t-98.5 32.5t-83 50t-57 75t-21 105q0 71 37 130t97 97t135 58.5t153 20.5q94 0 187.5 -37t159.5 -93l9 -7v-253h-197v155q-75 38 -160 38
q-54 0 -105 -15.5t-85 -44t-34 -63.5q0 -21 17.5 -37t47 -26t69.5 -19.5t84.5 -17t92 -19t92 -24.5t84.5 -35.5t69.5 -50.5t47 -70t17.5 -94q0 -72 -35 -132t-94.5 -98.5t-136.5 -59.5t-163 -21q-99 0 -199.5 34.5t-174.5 88.5l-11 7v240h197v-132q85 -40 188 -40
q97 0 164.5 35t67.5 90z" />
    <glyph glyph-name="Scedilla" unicode="&#x15e;" horiz-adv-x="1261" 
d="M443 -414l-141 141l226 226v63h200v-145zM634 175q45 0 72.5 0.5t60.5 2t52.5 4.5t42 8.5t34.5 13t25.5 18.5t20 25.5t12.5 33.5t8 42t2 53q0 38 -11.5 68t-39.5 51.5t-53.5 36t-75 26.5t-80 18t-91.5 16q-52 9 -79.5 13.5t-77 15.5t-77 21t-69 28t-65 37t-51.5 48
t-43 62.5t-25 77.5t-10 96q0 93 39.5 169.5t108.5 127t162 78t201 27.5q127 0 247 -38.5t208 -94.5l12 -7v-302h-199v191q-123 53 -257 53q-150 0 -237.5 -54.5t-87.5 -161.5q0 -32 10.5 -57.5t37 -44.5t49.5 -32t69.5 -25.5t75.5 -19t86 -17.5q54 -10 82 -16t79.5 -19
t80.5 -24t72.5 -31t68.5 -41t54.5 -51.5t45 -66t26.5 -82t11 -99.5q0 -82 -27 -146t-74.5 -106t-116 -70t-146 -40t-169.5 -12q-134 0 -273.5 33t-240.5 79l-14 7v317h197v-188q78 -27 154 -39.5t183 -12.5z" />
    <glyph glyph-name="scedilla" unicode="&#x15f;" horiz-adv-x="1018" 
d="M307 -414l-141 141l226 226v63h200v-145zM721 302q0 27 -21 45.5t-57 29t-83 19t-98 18t-102.5 21t-98.5 32.5t-83 50t-57 75t-21 105q0 71 37 130t97 97t135 58.5t153 20.5q94 0 187.5 -37t159.5 -93l9 -7v-253h-197v155q-75 38 -160 38q-54 0 -105 -15.5t-85 -44
t-34 -63.5q0 -21 17.5 -37t47 -26t69.5 -19.5t84.5 -17t92 -19t92 -24.5t84.5 -35.5t69.5 -50.5t47 -70t17.5 -94q0 -72 -35 -132t-94.5 -98.5t-136.5 -59.5t-163 -21q-99 0 -199.5 34.5t-174.5 88.5l-11 7v240h197v-132q85 -40 188 -40q97 0 164.5 35t67.5 90z" />
    <glyph glyph-name="Scaron" unicode="&#x160;" horiz-adv-x="1261" 
d="M490 1894l-157 -125l223 -279h142l223 279l-157 125l-137 -173zM634 175q45 0 72.5 0.5t60.5 2t52.5 4.5t42 8.5t34.5 13t25.5 18.5t20 25.5t12.5 33.5t8 42t2 53q0 38 -11.5 68t-39.5 51.5t-53.5 36t-75 26.5t-80 18t-91.5 16q-52 9 -79.5 13.5t-77 15.5t-77 21t-69 28
t-65 37t-51.5 48t-43 62.5t-25 77.5t-10 96q0 93 39.5 169.5t108.5 127t162 78t201 27.5q127 0 247 -38.5t208 -94.5l12 -7v-302h-199v191q-123 53 -257 53q-150 0 -237.5 -54.5t-87.5 -161.5q0 -32 10.5 -57.5t37 -44.5t49.5 -32t69.5 -25.5t75.5 -19t86 -17.5
q54 -10 82 -16t79.5 -19t80.5 -24t72.5 -31t68.5 -41t54.5 -51.5t45 -66t26.5 -82t11 -99.5q0 -82 -27 -146t-74.5 -106t-116 -70t-146 -40t-169.5 -12q-134 0 -273.5 33t-240.5 79l-14 7v317h197v-188q78 -27 154 -39.5t183 -12.5z" />
    <glyph glyph-name="scaron" unicode="&#x161;" horiz-adv-x="1018" 
d="M383 1504l-157 -125l223 -279h142l223 279l-157 125l-137 -173zM721 302q0 27 -21 45.5t-57 29t-83 19t-98 18t-102.5 21t-98.5 32.5t-83 50t-57 75t-21 105q0 71 37 130t97 97t135 58.5t153 20.5q94 0 187.5 -37t159.5 -93l9 -7v-253h-197v155q-75 38 -160 38
q-54 0 -105 -15.5t-85 -44t-34 -63.5q0 -21 17.5 -37t47 -26t69.5 -19.5t84.5 -17t92 -19t92 -24.5t84.5 -35.5t69.5 -50.5t47 -70t17.5 -94q0 -72 -35 -132t-94.5 -98.5t-136.5 -59.5t-163 -21q-99 0 -199.5 34.5t-174.5 88.5l-11 7v240h197v-132q85 -40 188 -40
q97 0 164.5 35t67.5 90z" />
    <glyph glyph-name="Tcommaaccent" unicode="&#x162;" horiz-adv-x="1277" 
d="M454 -393l-141 141l226 226v63h200v-145zM297 1089h-197v284h1077v-284h-197v98h-227l15 -990h123v-197h-455v197h123l-35 990h-227v-98z" />
    <glyph glyph-name="tcommaaccent" unicode="&#x163;" horiz-adv-x="789" 
d="M404 -405l-141 141l226 226v63h200v-145zM689 -20h-69q-184 0 -278.5 103t-94.5 282v419h-147v189h147v245h197v-245h245v-189h-245v-411q0 -101 39 -148t137 -47h69v-198z" />
    <glyph glyph-name="Tcaron" unicode="&#x164;" horiz-adv-x="1277" 
d="M502 1894l-157 -125l223 -279h142l223 279l-157 125l-137 -173zM297 1089h-197v284h1077v-284h-197v98h-227l15 -990h123v-197h-455v197h123l-35 990h-227v-98z" />
    <glyph glyph-name="tcaron" unicode="&#x165;" horiz-adv-x="839" 
d="M638 1550l186 -67l-143 -393l-185 67zM689 -20h-69q-184 0 -278.5 103t-94.5 282v419h-147v189h147v245h197v-245h245v-189h-245v-411q0 -101 39 -148t137 -47h69v-198z" />
    <glyph glyph-name="Tbar" unicode="&#x166;" horiz-adv-x="1277" 
d="M297 1089h-197v284h1077v-284h-197v98h-227v-242h422v-200h-422l15 -548h123v-197h-455v197h123l-35 548h-399v200h399v242h-227v-98z" />
    <glyph glyph-name="tbar" unicode="&#x167;" horiz-adv-x="789" 
d="M689 -20h-69q-184 0 -278.5 105t-94.5 286v163h-147v189h147v61h-147v189h147v245h197v-245h245v-189h-245v-61h245v-189h-245v-159q0 -102 39 -149.5t137 -47.5h69v-198z" />
    <glyph glyph-name="Utilde" unicode="&#x168;" horiz-adv-x="1579" 
d="M611 1873q52 0 97.5 -17t77.5 -41.5t61 -49t60 -41.5t62 -17q12 0 20 7.5t8 17.5q0 9 -7 16l-16 19l149 133l17 -18q57 -65 57 -150q0 -96 -65.5 -160.5t-163.5 -64.5q-64 0 -119 26t-87.5 57t-73 57t-77.5 26q-12 0 -20 -7.5t-8 -17.5q0 -9 7 -16l16 -19l-149 -133
l-17 18q-57 65 -57 150q0 96 65 160.5t163 64.5zM420 496q0 -93 20.5 -154t66.5 -97.5t113.5 -51.5t169.5 -15t169.5 15t113.5 51.5t66.5 97.5t20.5 154v695h-123v182h442v-182h-122v-832q0 -110 -75 -197t-204 -134.5t-288 -47.5q-160 0 -289 47.5t-203.5 134.5t-74.5 197
v832h-123v182h442v-182h-122v-695z" />
    <glyph glyph-name="utilde" unicode="&#x169;" 
d="M498 1481q52 0 97.5 -17t77.5 -41.5t61 -49t60 -41.5t62 -17q12 0 20 7.5t8 17.5q0 9 -7 16l-16 19l149 133l17 -18q57 -65 57 -150q0 -96 -65.5 -160.5t-163.5 -64.5q-64 0 -119 26t-87.5 57t-73 57t-77.5 26q-12 0 -20 -7.5t-8 -17.5q0 -9 7 -16l16 -19l-149 -133
l-17 18q-57 65 -57 150q0 96 65 160.5t163 64.5zM420 335q0 -87 34.5 -122t123.5 -35q116 0 207.5 36.5t149.5 90.5v483h-123v185h442v-185h-122v-591h147v-197h-344v103q-40 -40 -81 -65t-112.5 -42t-168.5 -17q-162 0 -256 87.5t-94 244.5v477h-123v185h442v-185h-122
v-453z" />
    <glyph glyph-name="Umacron" unicode="&#x16a;" horiz-adv-x="1579" 
d="M389 1490v200h800v-200h-800zM420 496q0 -93 20.5 -154t66.5 -97.5t113.5 -51.5t169.5 -15t169.5 15t113.5 51.5t66.5 97.5t20.5 154v695h-123v182h442v-182h-122v-832q0 -110 -75 -197t-204 -134.5t-288 -47.5q-160 0 -289 47.5t-203.5 134.5t-74.5 197v832h-123v182
h442v-182h-122v-695z" />
    <glyph glyph-name="umacron" unicode="&#x16b;" 
d="M277 1098v200h800v-200h-800zM420 335q0 -87 34.5 -122t123.5 -35q116 0 207.5 36.5t149.5 90.5v483h-123v185h442v-185h-122v-591h147v-197h-344v103q-40 -40 -81 -65t-112.5 -42t-168.5 -17q-162 0 -256 87.5t-94 244.5v477h-123v185h442v-185h-122v-453z" />
    <glyph glyph-name="Ubreve" unicode="&#x16c;" horiz-adv-x="1579" 
d="M1191 1675q-70 -83 -172 -134t-229 -51t-229.5 51t-171.5 134l-16 19l152 130l16 -19q100 -115 249 -115t249 115l16 19l152 -130zM420 496q0 -93 20.5 -154t66.5 -97.5t113.5 -51.5t169.5 -15t169.5 15t113.5 51.5t66.5 97.5t20.5 154v695h-123v182h442v-182h-122v-832
q0 -110 -75 -197t-204 -134.5t-288 -47.5q-160 0 -289 47.5t-203.5 134.5t-74.5 197v832h-123v182h442v-182h-122v-695z" />
    <glyph glyph-name="ubreve" unicode="&#x16d;" 
d="M1078 1283q-70 -83 -172 -134t-229 -51t-229.5 51t-171.5 134l-16 19l152 130l16 -19q100 -115 249 -115t249 115l16 19l152 -130zM420 335q0 -87 34.5 -122t123.5 -35q116 0 207.5 36.5t149.5 90.5v483h-123v185h442v-185h-122v-591h147v-197h-344v103q-40 -40 -81 -65
t-112.5 -42t-168.5 -17q-162 0 -256 87.5t-94 244.5v477h-123v185h442v-185h-122v-453z" />
    <glyph glyph-name="Uring" unicode="&#x16e;" horiz-adv-x="1579" 
d="M694 1786q0 -40 28 -68t68 -28t68 28t28 68t-28 68t-68 28t-68 -28t-28 -68zM494 1786q0 122 87 209t209 87t209 -87t87 -209t-87 -209t-209 -87t-209 87t-87 209zM420 496q0 -93 20.5 -154t66.5 -97.5t113.5 -51.5t169.5 -15t169.5 15t113.5 51.5t66.5 97.5t20.5 154
v695h-123v182h442v-182h-122v-832q0 -110 -75 -197t-204 -134.5t-288 -47.5q-160 0 -289 47.5t-203.5 134.5t-74.5 197v832h-123v182h442v-182h-122v-695z" />
    <glyph glyph-name="uring" unicode="&#x16f;" 
d="M581 1394q0 -40 28 -68t68 -28t68 28t28 68t-28 68t-68 28t-68 -28t-28 -68zM381 1394q0 122 87 209t209 87t209 -87t87 -209t-87 -209t-209 -87t-209 87t-87 209zM420 335q0 -87 34.5 -122t123.5 -35q116 0 207.5 36.5t149.5 90.5v483h-123v185h442v-185h-122v-591h147
v-197h-344v103q-40 -40 -81 -65t-112.5 -42t-168.5 -17q-162 0 -256 87.5t-94 244.5v477h-123v185h442v-185h-122v-453z" />
    <glyph glyph-name="Uhungarumlaut" unicode="&#x170;" horiz-adv-x="1579" 
d="M787 1605l231 289l156 -125l-231 -289zM487 1605l231 289l156 -125l-231 -289zM420 496q0 -93 20.5 -154t66.5 -97.5t113.5 -51.5t169.5 -15t169.5 15t113.5 51.5t66.5 97.5t20.5 154v695h-123v182h442v-182h-122v-832q0 -110 -75 -197t-204 -134.5t-288 -47.5
q-160 0 -289 47.5t-203.5 134.5t-74.5 197v832h-123v182h442v-182h-122v-695z" />
    <glyph glyph-name="uhungarumlaut" unicode="&#x171;" 
d="M675 1213l231 289l156 -125l-231 -289zM375 1213l231 289l156 -125l-231 -289zM420 335q0 -87 34.5 -122t123.5 -35q116 0 207.5 36.5t149.5 90.5v483h-123v185h442v-185h-122v-591h147v-197h-344v103q-40 -40 -81 -65t-112.5 -42t-168.5 -17q-162 0 -256 87.5t-94 244.5
v477h-123v185h442v-185h-122v-453z" />
    <glyph glyph-name="Uogonek" unicode="&#x172;" horiz-adv-x="1579" 
d="M1142 -295q-26 -70 -90 -118t-149 -48q-107 0 -182 73.5t-75 183.5q0 44 12.5 83t37 72t44.5 54t52.5 49.5t42.5 39.5l93 92l142 -141l-92 -93q-17 -16 -60.5 -54t-69.5 -64.5t-26 -37.5q0 -40 26 -60t56 -20q21 0 46 11t30 24l7 21l165 -40zM420 496q0 -93 20.5 -154
t66.5 -97.5t113.5 -51.5t169.5 -15t169.5 15t113.5 51.5t66.5 97.5t20.5 154v695h-123v182h442v-182h-122v-832q0 -110 -75 -197t-204 -134.5t-288 -47.5q-160 0 -289 47.5t-203.5 134.5t-74.5 197v832h-123v182h442v-182h-122v-695z" />
    <glyph glyph-name="uogonek" unicode="&#x173;" horiz-adv-x="1429" 
d="M1252 -339q-26 -70 -90 -118t-149 -48q-107 0 -182 73.5t-75 183.5q0 44 12.5 83t37 72t44.5 54t52.5 49.5t42.5 39.5l93 92l142 -141l-92 -93q-17 -16 -60.5 -54t-69.5 -64.5t-26 -37.5q0 -40 26 -60t56 -20q21 0 46 11t30 24l7 21l165 -40zM420 335q0 -87 34.5 -122
t123.5 -35q116 0 207.5 36.5t149.5 90.5v483h-123v185h442v-185h-122v-591h147v-197h-344v103q-40 -40 -81 -65t-112.5 -42t-168.5 -17q-162 0 -256 87.5t-94 244.5v477h-123v185h442v-185h-122v-453z" />
    <glyph glyph-name="Wcircumflex" unicode="&#x174;" horiz-adv-x="2274" 
d="M1000 1479l-157 125l223 279h142l223 -279l-157 -125l-137 173zM1189 1373v-185h-114l367 -927l386 927h-102v185h448v-185h-138l-512 -1188h-161l-251 591l-251 -591h-161l-462 1188h-138v185h447v-185h-101l334 -925l244 521l-172 404h-137v185h474z" />
    <glyph glyph-name="wcircumflex" unicode="&#x175;" horiz-adv-x="2115" 
d="M921 1087l-157 125l223 279h142l223 -279l-157 -125l-137 173zM2015 973v-188h-134l-421 -785h-168l-253 479l-240 -479h-168l-397 785h-134v188h468v-188h-110l258 -546l239 420l-60 126h-134v188h468v-188h-110l259 -545l281 545h-112v188h468z" />
    <glyph glyph-name="Ycircumflex" unicode="&#x176;" horiz-adv-x="1498" 
d="M612 1479l-157 125l223 279h142l223 -279l-157 -125l-137 173zM1252 1188l-388 -523v-468h132v-197h-493v197h132v466l-390 525h-145v185h474v-185h-87l262 -343l262 343h-87v185h474v-185h-146z" />
    <glyph glyph-name="ycircumflex" unicode="&#x177;" horiz-adv-x="1454" 
d="M590 1087l-157 125l223 279h142l223 -279l-157 -125l-137 173zM739 -554h-492v200h134l199 396l-346 743h-134v188h468v-188h-112l257 -550l284 550h-111v188h468v-188h-134l-612 -1139h131v-200z" />
    <glyph glyph-name="Ydieresis" unicode="&#x178;" horiz-adv-x="1498" 
d="M764 1613q0 58 32.5 90.5t90.5 32.5t90.5 -32.5t32.5 -90.5t-32.5 -90.5t-90.5 -32.5t-90.5 32.5t-32.5 90.5zM489 1613q0 58 32.5 90.5t90.5 32.5t90.5 -32.5t32.5 -90.5t-32.5 -90.5t-90.5 -32.5t-90.5 32.5t-32.5 90.5zM1252 1188l-388 -523v-468h132v-197h-493v197
h132v466l-390 525h-145v185h474v-185h-87l262 -343l262 343h-87v185h474v-185h-146z" />
    <glyph glyph-name="Zacute" unicode="&#x179;" horiz-adv-x="1352" 
d="M480 1605l231 289l156 -125l-231 -289zM100 136l804 1048h-774v190h1060v-131l-813 -1046h677v98h198v-295h-1152v136z" />
    <glyph glyph-name="zacute" unicode="&#x17a;" horiz-adv-x="1078" 
d="M358 1213l231 289l156 -125l-231 -289zM300 783v-105h-200v295h849v-135l-543 -643h372v100h200v-295h-863v143l541 640h-356z" />
    <glyph glyph-name="Zdotaccent" unicode="&#x17b;" horiz-adv-x="1352" 
d="M509 1613q0 58 32.5 90.5t90.5 32.5t90.5 -32.5t32.5 -90.5t-32.5 -90.5t-90.5 -32.5t-90.5 32.5t-32.5 90.5zM100 136l804 1048h-774v190h1060v-131l-813 -1046h677v98h198v-295h-1152v136z" />
    <glyph glyph-name="zdotaccent" unicode="&#x17c;" horiz-adv-x="1078" 
d="M387 1221q0 58 32.5 90.5t90.5 32.5t90.5 -32.5t32.5 -90.5t-32.5 -90.5t-90.5 -32.5t-90.5 32.5t-32.5 90.5zM300 783v-105h-200v295h849v-135l-543 -643h372v100h200v-295h-863v143l541 640h-356z" />
    <glyph glyph-name="Zcaron" unicode="&#x17d;" horiz-adv-x="1352" 
d="M495 1894l-157 -125l223 -279h142l223 279l-157 125l-137 -173zM100 136l804 1048h-774v190h1060v-131l-813 -1046h677v98h198v-295h-1152v136z" />
    <glyph glyph-name="zcaron" unicode="&#x17e;" horiz-adv-x="1078" 
d="M373 1502l-157 -125l223 -279h142l223 279l-157 125l-137 -173zM300 783v-105h-200v295h849v-135l-543 -643h372v100h200v-295h-863v143l541 640h-356z" />
    <glyph glyph-name="longs" unicode="&#x17f;" horiz-adv-x="771" 
d="M721 1297h-98q-99 0 -150 -67.5t-51 -192.5v-1037h-320v197h123v587h-125v189h125v64q0 206 106 331.5t292 125.5h98v-197z" />
    <glyph glyph-name="Ohorn" unicode="&#x1a0;" horiz-adv-x="1503" 
d="M50 694q0 145 49.5 273t138.5 222.5t222 149t291 54.5q117 0 259 -33q84 1 131.5 33.5t47.5 95.5q0 13 -5 30q0 3 -2.5 11.5t-3.5 12.5l195 51l6 -25q11 -43 11 -80q0 -90 -42 -159t-115 -109q99 -95 159.5 -230.5t60.5 -295.5q0 -117 -31 -224.5t-92 -196.5t-145 -155
t-195.5 -102.5t-238.5 -36.5t-238.5 36.5t-195.5 102.5t-144.5 155t-91.5 196t-31 224zM751 178q112 0 207.5 40.5t160 110.5t101 164.5t36.5 200.5q0 104 -36.5 196.5t-101.5 160t-160 106.5t-207 39t-207 -39t-159.5 -106.5t-101 -159.5t-36.5 -197q0 -107 36.5 -201
t101 -164t159.5 -110.5t207 -40.5z" />
    <glyph glyph-name="ohorn" unicode="&#x1a1;" horiz-adv-x="1132" 
d="M50 490q0 105 36 198t100.5 162.5t162 110t214.5 40.5q101 0 212 -26q86 1 133.5 33.5t47.5 95.5q0 9 -5 30l-6 24l194 51l6 -25q11 -43 11 -80q0 -97 -49.5 -169t-134.5 -109q110 -141 110 -334q0 -105 -36 -198.5t-102 -163.5t-164.5 -110.5t-216.5 -40.5
q-117 0 -214.5 40.5t-162 110.5t-100.5 162.5t-36 197.5zM563 177q87 0 161.5 44t116.5 116t42 153t-42 153.5t-116.5 116.5t-161.5 44t-160.5 -44.5t-114.5 -116.5t-41 -153t41 -153t114 -116t161 -44z" />
    <glyph glyph-name="Uhorn" unicode="&#x1af;" horiz-adv-x="1579" 
d="M1545 1529l-6 24l193 51l6 -25q11 -43 11 -80q0 -102 -51 -178t-136 -113.5t-192 -37.5q-10 0 -21 1v-812q0 -110 -78 -197.5t-208 -134.5t-286 -47q-153 0 -279.5 47.5t-200.5 134.5t-74 197v832h-123v182h442v-182h-122v-695q0 -93 20 -154t65 -97.5t110 -51.5t162 -15
q98 0 163.5 15t112 51t67.5 98t21 154v695h-130v182h313h2q22 -3 44 -3q84 0 131.5 32.5t47.5 96.5q0 13 -4 30z" />
    <glyph glyph-name="uhorn" unicode="&#x1b0;" 
d="M427 335q0 -86 36.5 -121.5t128.5 -35.5q103 0 191.5 36.5t151.5 90.5l-25 483h-132v185h318h2q22 -3 46 -3q85 0 132.5 32.5t47.5 96.5q0 17 -3 30l-6 24l192 51q4 -17 6 -25q11 -43 11 -80q0 -102 -51 -178t-136 -113.5t-193 -37.5q-11 0 -23 1l11 -574h147v-197h-344
v103q-67 -61 -144.5 -92.5t-202.5 -31.5q-172 0 -268.5 87t-96.5 245v477h-123v185h442v-185h-122z" />
    <glyph glyph-name="uni01C4" unicode="&#x1c4;" horiz-adv-x="2659" 
d="M1852 1894l-157 -125l223 -279h142l223 279l-157 125l-137 -173zM1457 136l804 1048h-774v190h1060v-131l-813 -1046h677v98h198v-295h-1152v136zM493 1373q146 0 281 -28.5t250 -86.5t200.5 -139t134 -192t48.5 -240q0 -130 -48.5 -241.5t-134 -192.5t-200.5 -138.5
t-250 -86t-281 -28.5h-393v197h123v994h-123v182h393zM493 197q112 0 217 21t195.5 62.5t158.5 99.5t106.5 137t38.5 170q0 90 -39.5 170t-108.5 140t-159 104.5t-195 67t-214 22.5h-73v-994h73z" />
    <glyph glyph-name="uni01C5" unicode="&#x1c5;" horiz-adv-x="2373" 
d="M1730 1502l-157 -125l223 -279h142l223 279l-157 125l-137 -173zM1657 783v-105h-200v295h849v-135l-543 -643h372v100h200v-295h-863v143l541 640h-356zM493 1373q146 0 281 -28.5t250 -86.5t200.5 -139t134 -192t48.5 -240q0 -130 -48.5 -241.5t-134 -192.5
t-200.5 -138.5t-250 -86t-281 -28.5h-393v197h123v994h-123v182h393zM493 197q112 0 217 21t195.5 62.5t158.5 99.5t106.5 137t38.5 170q0 90 -39.5 170t-108.5 140t-159 104.5t-195 67t-214 22.5h-73v-994h73z" />
    <glyph glyph-name="uni01C6" unicode="&#x1c6;" horiz-adv-x="2223" 
d="M1580 1502l-157 -125l223 -279h142l223 279l-157 125l-137 -173zM1507 783v-105h-200v295h849v-135l-543 -643h372v100h200v-295h-863v143l541 640h-356zM561 -20q-114 0 -211.5 44.5t-162 118.5t-101 169t-36.5 197q0 91 33.5 176.5t93 152.5t149 107.5t193.5 40.5
q196 0 363 -163v484h-133v187h336v-1297h122v-197h-325v140q-33 -34 -63 -58.5t-70.5 -49.5t-88 -38.5t-99.5 -13.5zM249 509q0 -85 38.5 -160.5t111 -122.5t161.5 -47q82 0 150 42t106 111.5t38 148.5q0 82 -39.5 154t-111.5 116t-160 44q-85 0 -153 -39.5t-104.5 -104.5
t-36.5 -142z" />
    <glyph glyph-name="uni01C7" unicode="&#x1c7;" horiz-adv-x="1601" 
d="M1079 -162h49q99 0 137.5 47.5t38.5 156.5v1151h-245v180h442v-1334q0 -185 -95.5 -291.5t-277.5 -106.5h-49v197zM420 197h417v98h197v-295h-934v197h123v996h-123v180h442v-180h-122v-996z" />
    <glyph glyph-name="uni01C8" unicode="&#x1c8;" horiz-adv-x="1507" 
d="M1284 1071q-58 0 -90.5 32.5t-32.5 90.5t32.5 90.5t90.5 32.5t90.5 -32.5t32.5 -90.5t-32.5 -90.5t-90.5 -32.5zM984 -361h50q99 0 137.5 48.5t38.5 162.5v933h-148v190h345v-1123q0 -190 -96 -299.5t-277 -109.5h-50v198zM420 197h417v98h197v-295h-934v197h123v996
h-123v180h442v-180h-122v-996z" />
    <glyph glyph-name="uni01C9" unicode="&#x1c9;" horiz-adv-x="1089" 
d="M866 1071q-58 0 -90.5 32.5t-32.5 90.5t32.5 90.5t90.5 32.5t90.5 -32.5t32.5 -90.5t-32.5 -90.5t-90.5 -32.5zM566 -361h50q99 0 137.5 48.5t38.5 162.5v933h-148v190h345v-1123q0 -190 -96 -299.5t-277 -109.5h-50v198zM247 197v1110h-147v187h344v-1297h122v-197h-442
v197h123z" />
    <glyph glyph-name="uni01CA" unicode="&#x1ca;" horiz-adv-x="2068" 
d="M1546 -162h49q99 0 137.5 47.5t38.5 156.5v1151h-245v180h442v-1334q0 -185 -95.5 -291.5t-277.5 -106.5h-49v197zM1426 1191h-122v-1191h-198v46l-686 997v-846h147v-197h-467v197h123v994h-123v182h320v-46l686 -998v862h-122v182h442v-182z" />
    <glyph glyph-name="uni01CB" unicode="&#x1cb;" horiz-adv-x="1899" 
d="M1676 1071q-58 0 -90.5 32.5t-32.5 90.5t32.5 90.5t90.5 32.5t90.5 -32.5t32.5 -90.5t-32.5 -90.5t-90.5 -32.5zM1376 -361h50q99 0 137.5 48.5t38.5 162.5v933h-148v190h345v-1123q0 -190 -96 -299.5t-277 -109.5h-50v198zM1426 1191h-122v-1191h-198v46l-686 997v-846
h147v-197h-467v197h123v994h-123v182h320v-46l686 -998v862h-122v182h442v-182z" />
    <glyph glyph-name="uni01CC" unicode="&#x1cc;" horiz-adv-x="1752" 
d="M1529 1071q-58 0 -90.5 32.5t-32.5 90.5t32.5 90.5t90.5 32.5t90.5 -32.5t32.5 -90.5t-32.5 -90.5t-90.5 -32.5zM1229 -361h50q99 0 137.5 48.5t38.5 162.5v933h-148v190h345v-1123q0 -190 -96 -299.5t-277 -109.5h-50v198zM959 638q0 87 -34.5 122t-123.5 35
q-114 0 -206.5 -36.5t-150.5 -90.5v-471h123v-197h-442v197h122v589h-147v187h344v-103q40 40 81 65t112.5 42t168.5 17q176 0 263 -85.5t87 -245.5v-466h123v-197h-442v197h122v441z" />
    <glyph glyph-name="uni01CD" unicode="&#x1cd;" horiz-adv-x="1660" 
d="M692 1894l-157 -125l223 -279h142l223 279l-157 125l-137 -173zM238 197l497 1176h189l498 -1176h138v-197h-448v197h102l-129 302h-510l-129 -302h101v-197h-447v197h138zM1008 696l-178 416l-178 -416h356z" />
    <glyph glyph-name="uni01CE" unicode="&#x1ce;" horiz-adv-x="1302" 
d="M390 1502l-157 -125l223 -279h142l223 279l-157 125l-137 -173zM561 -20q-114 0 -211.5 44.5t-162 118t-101 169t-36.5 197.5q0 91 33.5 176.5t93 152.5t149 107.5t193.5 40.5q196 0 363 -163v158h198v-784h122v-197h-320v140q-33 -34 -63 -58.5t-70.5 -49.5t-88 -38.5
t-99.5 -13.5zM249 509q0 -85 38.5 -160.5t111 -122.5t161.5 -47q82 0 150 42t106 111.5t38 148.5q0 82 -39 154t-111.5 116t-160.5 44q-85 0 -153 -40t-104.5 -105t-36.5 -141z" />
    <glyph glyph-name="uni01CF" unicode="&#x1cf;" horiz-adv-x="642" 
d="M184 1894l-157 -125l223 -279h142l223 279l-157 125l-137 -173zM223 197v996h-123v180h442v-180h-122v-996h122v-197h-442v197h123z" />
    <glyph glyph-name="uni01D0" unicode="&#x1d0;" horiz-adv-x="666" 
d="M208 1502l-157 -125l223 -279h142l223 279l-157 125l-137 -173zM247 197v586h-147v190h344v-776h122v-197h-442v197h123z" />
    <glyph glyph-name="uni01D1" unicode="&#x1d1;" horiz-adv-x="1503" 
d="M614 1894l-157 -125l223 -279h142l223 279l-157 125l-137 -173zM751 178q112 0 207.5 40.5t160 110.5t101 164.5t36.5 200.5q0 104 -36.5 196.5t-101.5 160t-160 106.5t-207 39t-207 -39t-159.5 -106.5t-101 -159.5t-36.5 -197q0 -107 36.5 -201t101 -164t159.5 -110.5
t207 -40.5zM751 1393q159 0 292 -54.5t222 -148.5t138.5 -222t49.5 -274q0 -117 -31 -224.5t-92 -196t-145 -154.5t-195.5 -102.5t-238.5 -36.5t-238.5 36.5t-195.5 102.5t-144.5 155t-91.5 196t-31 224q0 145 49.5 273t138.5 222.5t222 149t291 54.5z" />
    <glyph glyph-name="uni01D2" unicode="&#x1d2;" horiz-adv-x="1132" 
d="M429 1502l-157 -125l223 -279h142l223 279l-157 125l-137 -173zM566 -21q-156 0 -275 70t-180 185t-61 256t61 256.5t180 185t275 69.5t275 -70t180 -185t61 -256t-61 -256.5t-180 -185t-275 -69.5zM566 177q88 0 162 44t115.5 116t41.5 153t-41 153t-115 116.5
t-163 44.5q-88 0 -162 -44.5t-115.5 -116.5t-41.5 -153t41 -153t115 -116t163 -44z" />
    <glyph glyph-name="uni01D3" unicode="&#x1d3;" horiz-adv-x="1579" 
d="M652 1894l-157 -125l223 -279h142l223 279l-157 125l-137 -173zM420 496q0 -93 20.5 -154t66.5 -97.5t113.5 -51.5t169.5 -15t169.5 15t113.5 51.5t66.5 97.5t20.5 154v695h-123v182h442v-182h-122v-832q0 -110 -75 -197t-204 -134.5t-288 -47.5q-160 0 -289 47.5
t-203.5 134.5t-74.5 197v832h-123v182h442v-182h-122v-695z" />
    <glyph glyph-name="uni01D4" unicode="&#x1d4;" 
d="M540 1502l-157 -125l223 -279h142l223 279l-157 125l-137 -173zM420 335q0 -87 34.5 -122t123.5 -35q116 0 207.5 36.5t149.5 90.5v483h-123v185h442v-185h-122v-591h147v-197h-344v103q-40 -40 -81 -65t-112.5 -42t-168.5 -17q-162 0 -256 87.5t-94 244.5v477h-123v185
h442v-185h-122v-453z" />
    <glyph glyph-name="uni01D5" unicode="&#x1d5;" horiz-adv-x="1579" 
d="M389 1808v200h800v-200h-800zM804 1613q0 58 32.5 90.5t90.5 32.5t90.5 -32.5t32.5 -90.5t-32.5 -90.5t-90.5 -32.5t-90.5 32.5t-32.5 90.5zM529 1613q0 58 32.5 90.5t90.5 32.5t90.5 -32.5t32.5 -90.5t-32.5 -90.5t-90.5 -32.5t-90.5 32.5t-32.5 90.5zM420 496
q0 -93 20.5 -154t66.5 -97.5t113.5 -51.5t169.5 -15t169.5 15t113.5 51.5t66.5 97.5t20.5 154v695h-123v182h442v-182h-122v-832q0 -110 -75 -197t-204 -134.5t-288 -47.5q-160 0 -289 47.5t-203.5 134.5t-74.5 197v832h-123v182h442v-182h-122v-695z" />
    <glyph glyph-name="uni01D6" unicode="&#x1d6;" 
d="M277 1416v200h800v-200h-800zM692 1221q0 58 32.5 90.5t90.5 32.5t90.5 -32.5t32.5 -90.5t-32.5 -90.5t-90.5 -32.5t-90.5 32.5t-32.5 90.5zM417 1221q0 58 32.5 90.5t90.5 32.5t90.5 -32.5t32.5 -90.5t-32.5 -90.5t-90.5 -32.5t-90.5 32.5t-32.5 90.5zM420 335
q0 -87 34.5 -122t123.5 -35q116 0 207.5 36.5t149.5 90.5v483h-123v185h442v-185h-122v-591h147v-197h-344v103q-40 -40 -81 -65t-112.5 -42t-168.5 -17q-162 0 -256 87.5t-94 244.5v477h-123v185h442v-185h-122v-453z" />
    <glyph glyph-name="uni01D7" unicode="&#x1d7;" horiz-adv-x="1579" 
d="M637 1923l231 289l156 -125l-231 -289zM804 1613q0 58 32.5 90.5t90.5 32.5t90.5 -32.5t32.5 -90.5t-32.5 -90.5t-90.5 -32.5t-90.5 32.5t-32.5 90.5zM529 1613q0 58 32.5 90.5t90.5 32.5t90.5 -32.5t32.5 -90.5t-32.5 -90.5t-90.5 -32.5t-90.5 32.5t-32.5 90.5zM420 496
q0 -93 20.5 -154t66.5 -97.5t113.5 -51.5t169.5 -15t169.5 15t113.5 51.5t66.5 97.5t20.5 154v695h-123v182h442v-182h-122v-832q0 -110 -75 -197t-204 -134.5t-288 -47.5q-160 0 -289 47.5t-203.5 134.5t-74.5 197v832h-123v182h442v-182h-122v-695z" />
    <glyph glyph-name="uni01D8" unicode="&#x1d8;" 
d="M525 1531l231 289l156 -125l-231 -289zM692 1221q0 58 32.5 90.5t90.5 32.5t90.5 -32.5t32.5 -90.5t-32.5 -90.5t-90.5 -32.5t-90.5 32.5t-32.5 90.5zM417 1221q0 58 32.5 90.5t90.5 32.5t90.5 -32.5t32.5 -90.5t-32.5 -90.5t-90.5 -32.5t-90.5 32.5t-32.5 90.5zM420 335
q0 -87 34.5 -122t123.5 -35q116 0 207.5 36.5t149.5 90.5v483h-123v185h442v-185h-122v-591h147v-197h-344v103q-40 -40 -81 -65t-112.5 -42t-168.5 -17q-162 0 -256 87.5t-94 244.5v477h-123v185h442v-185h-122v-453z" />
    <glyph glyph-name="uni01D9" unicode="&#x1d9;" horiz-adv-x="1579" 
d="M652 2212l-157 -125l223 -279h142l223 279l-157 125l-137 -173zM804 1613q0 58 32.5 90.5t90.5 32.5t90.5 -32.5t32.5 -90.5t-32.5 -90.5t-90.5 -32.5t-90.5 32.5t-32.5 90.5zM529 1613q0 58 32.5 90.5t90.5 32.5t90.5 -32.5t32.5 -90.5t-32.5 -90.5t-90.5 -32.5
t-90.5 32.5t-32.5 90.5zM420 496q0 -93 20.5 -154t66.5 -97.5t113.5 -51.5t169.5 -15t169.5 15t113.5 51.5t66.5 97.5t20.5 154v695h-123v182h442v-182h-122v-832q0 -110 -75 -197t-204 -134.5t-288 -47.5q-160 0 -289 47.5t-203.5 134.5t-74.5 197v832h-123v182h442v-182
h-122v-695z" />
    <glyph glyph-name="uni01DA" unicode="&#x1da;" 
d="M540 1820l-157 -125l223 -279h142l223 279l-157 125l-137 -173zM692 1221q0 58 32.5 90.5t90.5 32.5t90.5 -32.5t32.5 -90.5t-32.5 -90.5t-90.5 -32.5t-90.5 32.5t-32.5 90.5zM417 1221q0 58 32.5 90.5t90.5 32.5t90.5 -32.5t32.5 -90.5t-32.5 -90.5t-90.5 -32.5
t-90.5 32.5t-32.5 90.5zM420 335q0 -87 34.5 -122t123.5 -35q116 0 207.5 36.5t149.5 90.5v483h-123v185h442v-185h-122v-591h147v-197h-344v103q-40 -40 -81 -65t-112.5 -42t-168.5 -17q-162 0 -256 87.5t-94 244.5v477h-123v185h442v-185h-122v-453z" />
    <glyph glyph-name="uni01DB" unicode="&#x1db;" horiz-adv-x="1579" 
d="M942 1923l-156 -125l-231 289l156 125zM804 1613q0 58 32.5 90.5t90.5 32.5t90.5 -32.5t32.5 -90.5t-32.5 -90.5t-90.5 -32.5t-90.5 32.5t-32.5 90.5zM529 1613q0 58 32.5 90.5t90.5 32.5t90.5 -32.5t32.5 -90.5t-32.5 -90.5t-90.5 -32.5t-90.5 32.5t-32.5 90.5zM420 496
q0 -93 20.5 -154t66.5 -97.5t113.5 -51.5t169.5 -15t169.5 15t113.5 51.5t66.5 97.5t20.5 154v695h-123v182h442v-182h-122v-832q0 -110 -75 -197t-204 -134.5t-288 -47.5q-160 0 -289 47.5t-203.5 134.5t-74.5 197v832h-123v182h442v-182h-122v-695z" />
    <glyph glyph-name="uni01DC" unicode="&#x1dc;" 
d="M829 1531l-156 -125l-231 289l156 125zM692 1221q0 58 32.5 90.5t90.5 32.5t90.5 -32.5t32.5 -90.5t-32.5 -90.5t-90.5 -32.5t-90.5 32.5t-32.5 90.5zM417 1221q0 58 32.5 90.5t90.5 32.5t90.5 -32.5t32.5 -90.5t-32.5 -90.5t-90.5 -32.5t-90.5 32.5t-32.5 90.5zM420 335
q0 -87 34.5 -122t123.5 -35q116 0 207.5 36.5t149.5 90.5v483h-123v185h442v-185h-122v-591h147v-197h-344v103q-40 -40 -81 -65t-112.5 -42t-168.5 -17q-162 0 -256 87.5t-94 244.5v477h-123v185h442v-185h-122v-453z" />
    <glyph glyph-name="uni01DD" unicode="&#x1dd;" horiz-adv-x="1132" 
d="M538 986q116 0 218 -41t173 -110t112 -162t41 -194q0 -102 -36.5 -193t-103.5 -159t-168 -107.5t-222 -39.5q-114 0 -209.5 38t-159 102.5t-98.5 149.5t-35 178v100h828q-21 103 -118.5 171.5t-221.5 68.5q-78 0 -152 -35t-118 -93l-14 -20l-161 114l15 20
q69 99 183.5 155.5t246.5 56.5zM552 177q116 0 197.5 55t112.5 141h-604q21 -83 100 -139.5t194 -56.5z" />
    <glyph glyph-name="uni01DE" unicode="&#x1de;" horiz-adv-x="1660" 
d="M429 1808v200h800v-200h-800zM844 1613q0 58 32.5 90.5t90.5 32.5t90.5 -32.5t32.5 -90.5t-32.5 -90.5t-90.5 -32.5t-90.5 32.5t-32.5 90.5zM569 1613q0 58 32.5 90.5t90.5 32.5t90.5 -32.5t32.5 -90.5t-32.5 -90.5t-90.5 -32.5t-90.5 32.5t-32.5 90.5zM238 197l497 1176
h189l498 -1176h138v-197h-448v197h102l-129 302h-510l-129 -302h101v-197h-447v197h138zM1008 696l-178 416l-178 -416h356z" />
    <glyph glyph-name="uni01DF" unicode="&#x1df;" horiz-adv-x="1302" 
d="M127 1416v200h800v-200h-800zM542 1221q0 58 32.5 90.5t90.5 32.5t90.5 -32.5t32.5 -90.5t-32.5 -90.5t-90.5 -32.5t-90.5 32.5t-32.5 90.5zM267 1221q0 58 32.5 90.5t90.5 32.5t90.5 -32.5t32.5 -90.5t-32.5 -90.5t-90.5 -32.5t-90.5 32.5t-32.5 90.5zM561 -20
q-114 0 -211.5 44.5t-162 118t-101 169t-36.5 197.5q0 91 33.5 176.5t93 152.5t149 107.5t193.5 40.5q196 0 363 -163v158h198v-784h122v-197h-320v140q-33 -34 -63 -58.5t-70.5 -49.5t-88 -38.5t-99.5 -13.5zM249 509q0 -85 38.5 -160.5t111 -122.5t161.5 -47q82 0 150 42
t106 111.5t38 148.5q0 82 -39 154t-111.5 116t-160.5 44q-85 0 -153 -40t-104.5 -105t-36.5 -141z" />
    <glyph glyph-name="uni01E0" unicode="&#x1e0;" horiz-adv-x="1660" 
d="M426 1808v200h800v-200h-800zM707 1613q0 58 32.5 90.5t90.5 32.5t90.5 -32.5t32.5 -90.5t-32.5 -90.5t-90.5 -32.5t-90.5 32.5t-32.5 90.5zM238 197l497 1176h189l498 -1176h138v-197h-448v197h102l-129 302h-510l-129 -302h101v-197h-447v197h138zM1008 696l-178 416
l-178 -416h356z" />
    <glyph glyph-name="uni01E1" unicode="&#x1e1;" horiz-adv-x="1302" 
d="M121 1416v200h800v-200h-800zM404 1221q0 58 32.5 90.5t90.5 32.5t90.5 -32.5t32.5 -90.5t-32.5 -90.5t-90.5 -32.5t-90.5 32.5t-32.5 90.5zM561 -20q-114 0 -211.5 44.5t-162 118t-101 169t-36.5 197.5q0 91 33.5 176.5t93 152.5t149 107.5t193.5 40.5q196 0 363 -163
v158h198v-784h122v-197h-320v140q-33 -34 -63 -58.5t-70.5 -49.5t-88 -38.5t-99.5 -13.5zM249 509q0 -85 38.5 -160.5t111 -122.5t161.5 -47q82 0 150 42t106 111.5t38 148.5q0 82 -39 154t-111.5 116t-160.5 44q-85 0 -153 -40t-104.5 -105t-36.5 -141z" />
    <glyph glyph-name="uni01E2" unicode="&#x1e2;" horiz-adv-x="2264" 
d="M998 1490v200h800v-200h-800zM1250 696v387l-321 -387h321zM243 197l1011 1176h201v-1h709v-275h-197v98h-512v-425h352v124h209v-443h-205v122h-339v-376h495v98h197v-295h-1039v197h125v302h-494l-270 -302h86v-197h-472v197h143z" />
    <glyph glyph-name="uni01E3" unicode="&#x1e3;" horiz-adv-x="1774" 
d="M462 1098v200h800v-200h-800zM548 398q-22 0 -59 1t-52 1q-83 0 -136.5 -26.5t-53.5 -79.5t61 -85t152 -32q105 0 168.5 15.5t113.5 57.5v189q-2 -1 -16 -6.5t-17.5 -6.5t-17 -5.5t-20 -6.5t-19.5 -5t-23 -4.5t-23.5 -3.5t-27.5 -2.5t-30 -0.5zM458 -22q-79 0 -152 21.5
t-130.5 60.5t-91.5 100t-34 134q0 72 31.5 131t85 97t122.5 58.5t145 20.5q27 0 72 -2.5t61 -2.5q75 0 143 25v31q-17 60 -77 101.5t-138 41.5q-56 0 -103 -24.5t-75 -62.5v-119h-198v174l3 5q56 100 149.5 162.5t224.5 62.5q101 0 188 -42.5t146 -115.5q128 151 355 151
q109 0 201.5 -38t155 -102.5t97.5 -149.5t35 -178l50 -100h-785v-101q48 -63 127.5 -101t168.5 -38q79 0 153 35t118 93l14 20l161 -114l-15 -20q-69 -99 -183.5 -155.5t-247.5 -56.5q-169 0 -296 89v-69h-197v62q-72 -40 -136.5 -62t-147.5 -22zM916 658v-65h550
q-21 94 -96.5 157.5t-184.5 63.5q-90 0 -159 -42.5t-110 -113.5z" />
    <glyph glyph-name="uni01E4" unicode="&#x1e4;" horiz-adv-x="1362" 
d="M831 1174q-123 0 -231 -40t-185 -109t-121.5 -165.5t-44.5 -206.5q0 -100 38 -187.5t104.5 -150.5t162 -99.5t205.5 -36.5q55 0 175 28v122h-268v200h268v44h-324v197h527v-241h125v-200h-125v-254l-12 -7q-152 -88 -362 -88q-159 0 -293 51.5t-226 141.5t-143 214.5
t-51 269.5q0 148 58.5 280t160.5 228t247.5 152t311.5 56q56 0 132.5 -14.5t110 -24t49.5 -14.5l17 -6v-275h-203v127q-51 8 -103 8z" />
    <glyph glyph-name="uni01E5" unicode="&#x1e5;" horiz-adv-x="1302" 
d="M560 787q-93 0 -165 -47t-109 -121.5t-37 -161.5q0 -122 81.5 -204t211.5 -82q92 0 164 43.5t110 115t38 155.5q0 129 -80.5 215.5t-213.5 86.5zM566 -357q124 0 194.5 25t99.5 86h-246v200h268v186q-158 -160 -363 -160q-106 0 -195 38.5t-148.5 104.5t-92.5 152.5
t-33 181.5q0 106 35.5 201t99 168.5t161.5 116.5t215 43q172 0 321 -157v137h320v-182h-127v-830h137v-200h-148q-62 -308 -498 -308q-225 0 -346.5 97.5t-121.5 303.5v26h197v-26q0 -62 15 -101.5t50 -62.5t83 -31.5t123 -8.5z" />
    <glyph glyph-name="Gcaron" unicode="&#x1e6;" horiz-adv-x="1237" 
d="M679 1894l-157 -125l223 -279h142l223 279l-157 125l-137 -173zM840 1174q-125 0 -235 -40t-188 -109t-123 -165.5t-45 -206.5q0 -100 38.5 -187.5t106 -150.5t164 -99.5t209.5 -36.5q61 0 173 31v363h-325v197h522v-691l-12 -7q-152 -92 -354 -92q-162 0 -298 51.5
t-228 141.5t-143.5 214.5t-51.5 269.5q0 148 59 280t161.5 228t249.5 152t316 56q54 0 129 -14.5t106 -23.5t49 -15l17 -6v-275h-197v127q-48 8 -100 8z" />
    <glyph glyph-name="gcaron" unicode="&#x1e7;" horiz-adv-x="1302" 
d="M429 1502l-157 -125l223 -279h142l223 279l-157 125l-137 -173zM295 -152q0 -115 68.5 -160t202.5 -45q169 0 242.5 47.5t73.5 181.5v268q-158 -160 -363 -160q-140 0 -248.5 66.5t-164.5 174t-56 236.5q0 105 35.5 200.5t99.5 169t161.5 116.5t214.5 43q172 0 321 -157
v137h320v-182h-127v-912q0 -426 -509 -426q-225 0 -346.5 98t-121.5 304v25h197v-25zM560 787q-140 0 -225.5 -97.5t-85.5 -232.5q0 -122 81.5 -204t212.5 -82q137 0 224 92t87 222q0 129 -80 215.5t-214 86.5z" />
    <glyph glyph-name="uni01E8" unicode="&#x1e8;" horiz-adv-x="1453" 
d="M572 1894l-157 -125l223 -279h142l223 279l-157 125l-137 -173zM420 710v-513h122v-197h-442v197h123v996h-123v180h442v-180h-122v-289l694 469h204v-180h-140l-475 -320l516 -676h134v-197h-238l-585 791z" />
    <glyph glyph-name="uni01E9" unicode="&#x1e9;" horiz-adv-x="1261" 
d="M148 1996l-157 -125l223 -279h142l223 279l-157 125l-137 -173zM223 197v1110h-123v187h320v-803l486 277h200v-192h-140l-280 -148l341 -431h134v-197h-239l-420 559l-82 -53v-309h122v-197h-442v197h123z" />
    <glyph glyph-name="uni01EA" unicode="&#x1ea;" horiz-adv-x="1503" 
d="M1199 -262q-26 -70 -90 -118t-149 -48q-107 0 -182 73.5t-75 183.5q0 44 12.5 83t37 72t44.5 54t52.5 49.5t42.5 39.5l93 92l142 -141l-92 -93q-17 -16 -60.5 -54t-69.5 -64.5t-26 -37.5q0 -40 26 -60t56 -20q21 0 46 11t30 24l7 21l165 -40zM751 178q112 0 207.5 40.5
t160 110.5t101 164.5t36.5 200.5q0 104 -36.5 196.5t-101.5 160t-160 106.5t-207 39t-207 -39t-159.5 -106.5t-101 -159.5t-36.5 -197q0 -107 36.5 -201t101 -164t159.5 -110.5t207 -40.5zM751 1393q159 0 292 -54.5t222 -148.5t138.5 -222t49.5 -274q0 -117 -31 -224.5
t-92 -196t-145 -154.5t-195.5 -102.5t-238.5 -36.5t-238.5 36.5t-195.5 102.5t-144.5 155t-91.5 196t-31 224q0 145 49.5 273t138.5 222.5t222 149t291 54.5z" />
    <glyph glyph-name="uni01EB" unicode="&#x1eb;" horiz-adv-x="1132" 
d="M924 -283q-26 -70 -90 -118t-149 -48q-107 0 -182 73.5t-75 183.5q0 44 12.5 83t37 72t44.5 54t52.5 49.5t42.5 39.5l93 92l142 -141l-92 -93q-17 -16 -60.5 -54t-69.5 -64.5t-26 -37.5q0 -40 26 -60t56 -20q21 0 46 11t30 24l7 21l165 -40zM566 -21q-156 0 -275 70
t-180 185t-61 256t61 256.5t180 185t275 69.5t275 -70t180 -185t61 -256t-61 -256.5t-180 -185t-275 -69.5zM566 177q88 0 162 44t115.5 116t41.5 153t-41 153t-115 116.5t-163 44.5q-88 0 -162 -44.5t-115.5 -116.5t-41.5 -153t41 -153t115 -116t163 -44z" />
    <glyph glyph-name="uni01EC" unicode="&#x1ec;" horiz-adv-x="1503" 
d="M351 1490v200h800v-200h-800zM1199 -262q-26 -70 -90 -118t-149 -48q-107 0 -182 73.5t-75 183.5q0 44 12.5 83t37 72t44.5 54t52.5 49.5t42.5 39.5l93 92l142 -141l-92 -93q-17 -16 -60.5 -54t-69.5 -64.5t-26 -37.5q0 -40 26 -60t56 -20q21 0 46 11t30 24l7 21l165 -40
zM751 178q112 0 207.5 40.5t160 110.5t101 164.5t36.5 200.5q0 104 -36.5 196.5t-101.5 160t-160 106.5t-207 39t-207 -39t-159.5 -106.5t-101 -159.5t-36.5 -197q0 -107 36.5 -201t101 -164t159.5 -110.5t207 -40.5zM751 1393q159 0 292 -54.5t222 -148.5t138.5 -222
t49.5 -274q0 -117 -31 -224.5t-92 -196t-145 -154.5t-195.5 -102.5t-238.5 -36.5t-238.5 36.5t-195.5 102.5t-144.5 155t-91.5 196t-31 224q0 145 49.5 273t138.5 222.5t222 149t291 54.5z" />
    <glyph glyph-name="uni01ED" unicode="&#x1ed;" horiz-adv-x="1132" 
d="M166 1098v200h800v-200h-800zM924 -283q-26 -70 -90 -118t-149 -48q-107 0 -182 73.5t-75 183.5q0 44 12.5 83t37 72t44.5 54t52.5 49.5t42.5 39.5l93 92l142 -141l-92 -93q-17 -16 -60.5 -54t-69.5 -64.5t-26 -37.5q0 -40 26 -60t56 -20q21 0 46 11t30 24l7 21l165 -40z
M566 -21q-156 0 -275 70t-180 185t-61 256t61 256.5t180 185t275 69.5t275 -70t180 -185t61 -256t-61 -256.5t-180 -185t-275 -69.5zM566 177q88 0 162 44t115.5 116t41.5 153t-41 153t-115 116.5t-163 44.5q-88 0 -162 -44.5t-115.5 -116.5t-41.5 -153t41 -153t115 -116
t163 -44z" />
    <glyph glyph-name="uni01F0" unicode="&#x1f0;" horiz-adv-x="548" 
d="M212 1502l-157 -125l223 -279h142l223 279l-157 125l-137 -173zM25 -186h50q99 0 137.5 48.5t38.5 162.5v758h-148v190h345v-948q0 -190 -96 -299.5t-277 -109.5h-50v198z" />
    <glyph glyph-name="uni01F1" unicode="&#x1f1;" horiz-adv-x="2534" 
d="M1332 136l804 1048h-774v190h1060v-131l-813 -1046h677v98h198v-295h-1152v136zM493 1373q146 0 281 -28.5t250 -86.5t200.5 -139t134 -192t48.5 -240q0 -130 -48.5 -241.5t-134 -192.5t-200.5 -138.5t-250 -86t-281 -28.5h-393v197h123v994h-123v182h393zM493 197
q112 0 217 21t195.5 62.5t158.5 99.5t106.5 137t38.5 170q0 90 -39.5 170t-108.5 140t-159 104.5t-195 67t-214 22.5h-73v-994h73z" />
    <glyph glyph-name="uni01F2" unicode="&#x1f2;" horiz-adv-x="2373" 
d="M1657 783v-105h-200v295h849v-135l-543 -643h372v100h200v-295h-863v143l541 640h-356zM493 1373q146 0 281 -28.5t250 -86.5t200.5 -139t134 -192t48.5 -240q0 -130 -48.5 -241.5t-134 -192.5t-200.5 -138.5t-250 -86t-281 -28.5h-393v197h123v994h-123v182h393z
M493 197q112 0 217 21t195.5 62.5t158.5 99.5t106.5 137t38.5 170q0 90 -39.5 170t-108.5 140t-159 104.5t-195 67t-214 22.5h-73v-994h73z" />
    <glyph glyph-name="uni01F3" unicode="&#x1f3;" horiz-adv-x="2223" 
d="M1507 783v-105h-200v295h849v-135l-543 -643h372v100h200v-295h-863v143l541 640h-356zM561 -20q-114 0 -211.5 44.5t-162 118.5t-101 169t-36.5 197q0 91 33.5 176.5t93 152.5t149 107.5t193.5 40.5q196 0 363 -163v484h-133v187h336v-1297h122v-197h-325v140
q-33 -34 -63 -58.5t-70.5 -49.5t-88 -38.5t-99.5 -13.5zM249 509q0 -85 38.5 -160.5t111 -122.5t161.5 -47q82 0 150 42t106 111.5t38 148.5q0 82 -39.5 154t-111.5 116t-160 44q-85 0 -153 -39.5t-104.5 -104.5t-36.5 -142z" />
    <glyph glyph-name="uni01F4" unicode="&#x1f4;" horiz-adv-x="1237" 
d="M664 1605l231 289l156 -125l-231 -289zM840 1174q-125 0 -235 -40t-188 -109t-123 -165.5t-45 -206.5q0 -100 38.5 -187.5t106 -150.5t164 -99.5t209.5 -36.5q61 0 173 31v363h-325v197h522v-691l-12 -7q-152 -92 -354 -92q-162 0 -298 51.5t-228 141.5t-143.5 214.5
t-51.5 269.5q0 148 59 280t161.5 228t249.5 152t316 56q54 0 129 -14.5t106 -23.5t49 -15l17 -6v-275h-197v127q-48 8 -100 8z" />
    <glyph glyph-name="uni01F5" unicode="&#x1f5;" horiz-adv-x="1302" 
d="M414 1213l231 289l156 -125l-231 -289zM295 -152q0 -115 68.5 -160t202.5 -45q169 0 242.5 47.5t73.5 181.5v268q-158 -160 -363 -160q-140 0 -248.5 66.5t-164.5 174t-56 236.5q0 105 35.5 200.5t99.5 169t161.5 116.5t214.5 43q172 0 321 -157v137h320v-182h-127v-912
q0 -426 -509 -426q-225 0 -346.5 98t-121.5 304v25h197v-25zM560 787q-140 0 -225.5 -97.5t-85.5 -232.5q0 -122 81.5 -204t212.5 -82q137 0 224 92t87 222q0 129 -80 215.5t-214 86.5z" />
    <glyph glyph-name="uni01F8" unicode="&#x1f8;" horiz-adv-x="1526" 
d="M915 1605l-156 -125l-231 289l156 125zM1426 1191h-122v-1191h-198v46l-686 997v-846h147v-197h-467v197h123v994h-123v182h320v-46l686 -998v862h-122v182h442v-182z" />
    <glyph glyph-name="uni01F9" unicode="&#x1f9;" 
d="M842 1213l-156 -125l-231 289l156 125zM959 638q0 87 -34.5 122t-123.5 35q-114 0 -206.5 -36.5t-150.5 -90.5v-471h123v-197h-442v197h122v589h-147v187h344v-103q40 40 81 65t112.5 42t168.5 17q176 0 263 -85.5t87 -245.5v-466h123v-197h-442v197h122v441z" />
    <glyph glyph-name="Aringacute" unicode="&#x1fa;" horiz-adv-x="1660" 
d="M678 1977l231 289l156 -125l-231 -289zM666 1223q-74 38 -116 103t-42 143q0 122 94 209t228 87t227 -87t93 -209q0 -78 -42 -143t-115 -103l429 -1026h138v-197h-448v197h102l-129 302h-510l-129 -302h101v-197h-447v197h138zM1008 696l-178 416l-178 -416h356z
M724 1469q0 -39 29.5 -67t71.5 -29h9q42 1 71 29t29 67q0 40 -30 68t-74 28t-75 -28t-31 -68z" />
    <glyph glyph-name="aringacute" unicode="&#x1fb;" horiz-adv-x="1302" 
d="M375 1877l231 289l156 -125l-231 -289zM431 1394q0 -40 28 -68t68 -28t68 28t28 68t-28 68t-68 28t-68 -28t-28 -68zM231 1394q0 122 87 209t209 87t209 -87t87 -209t-87 -209t-209 -87t-209 87t-87 209zM561 -20q-114 0 -211.5 44.5t-162 118t-101 169t-36.5 197.5
q0 91 33.5 176.5t93 152.5t149 107.5t193.5 40.5q196 0 363 -163v158h198v-784h122v-197h-320v140q-33 -34 -63 -58.5t-70.5 -49.5t-88 -38.5t-99.5 -13.5zM249 509q0 -85 38.5 -160.5t111 -122.5t161.5 -47q82 0 150 42t106 111.5t38 148.5q0 82 -39 154t-111.5 116
t-160.5 44q-85 0 -153 -40t-104.5 -105t-36.5 -141z" />
    <glyph glyph-name="AEacute" unicode="&#x1fc;" horiz-adv-x="2264" 
d="M1196 1605l231 289l156 -125l-231 -289zM1250 696v387l-321 -387h321zM243 197l1011 1176h201v-1h709v-275h-197v98h-512v-425h352v124h209v-443h-205v122h-339v-376h495v98h197v-295h-1039v197h125v302h-494l-270 -302h86v-197h-472v197h143z" />
    <glyph glyph-name="aeacute" unicode="&#x1fd;" horiz-adv-x="1774" 
d="M710 1213l231 289l156 -125l-231 -289zM548 398q-22 0 -59 1t-52 1q-83 0 -136.5 -26.5t-53.5 -79.5t61 -85t152 -32q105 0 168.5 15.5t113.5 57.5v189q-2 -1 -16 -6.5t-17.5 -6.5t-17 -5.5t-20 -6.5t-19.5 -5t-23 -4.5t-23.5 -3.5t-27.5 -2.5t-30 -0.5zM458 -22
q-79 0 -152 21.5t-130.5 60.5t-91.5 100t-34 134q0 72 31.5 131t85 97t122.5 58.5t145 20.5q27 0 72 -2.5t61 -2.5q75 0 143 25v31q-17 60 -77 101.5t-138 41.5q-56 0 -103 -24.5t-75 -62.5v-119h-198v174l3 5q56 100 149.5 162.5t224.5 62.5q101 0 188 -42.5t146 -115.5
q128 151 355 151q109 0 201.5 -38t155 -102.5t97.5 -149.5t35 -178l50 -100h-785v-101q48 -63 127.5 -101t168.5 -38q79 0 153 35t118 93l14 20l161 -114l-15 -20q-69 -99 -183.5 -155.5t-247.5 -56.5q-169 0 -296 89v-69h-197v62q-72 -40 -136.5 -62t-147.5 -22zM916 658
v-65h550q-21 94 -96.5 157.5t-184.5 63.5q-90 0 -159 -42.5t-110 -113.5z" />
    <glyph glyph-name="Oslashacute" unicode="&#x1fe;" horiz-adv-x="1503" 
d="M599 1743l231 289l156 -125l-231 -289zM879 1180q-63 16 -128 16q-108 0 -199 -41t-155 -106q-68 -69 -109 -166.5t-41 -213.5q0 -130 49 -237t130 -179zM519 18l-88 -182l-189 83l92 190q-50 36 -95 84q-85 95 -137 224t-52 276q0 146 52 271.5t137 220.5q85 94 218 151
t294 57q110 0 217 -31l86 177l190 -83l-87 -177q64 -42 107 -92q85 -95 137 -220.5t52 -271.5q0 -147 -52.5 -276t-136.5 -224q-87 -94 -220.5 -154.5t-292.5 -60.5q-120 0 -232 38zM1066 1135l-458 -936q70 -21 143 -21q106 0 197.5 42.5t156.5 109.5q67 68 109 170.5
t42 218.5q0 133 -52 239.5t-138 176.5z" />
    <glyph glyph-name="oslashacute" unicode="&#x1ff;" horiz-adv-x="1132" 
d="M414 1344l231 289l156 -125l-231 -289zM201 112q-73 71 -112 168.5t-39 209.5q0 105 36 198t101 162.5t163 110t216 40.5q48 0 96 -8l74 147l191 -81l-63 -135q104 -69 161 -183t57 -250q0 -105 -36 -198t-101 -163t-163 -110.5t-216 -40.5q-99 0 -188 30l-61 -121
l-182 87zM298 278l268 526q-88 0 -162 -48t-115.5 -125.5t-41.5 -165.5q0 -100 51 -187zM885 515q0 76 -30.5 145t-85.5 118l-298 -586q47 -15 95 -15q134 0 226.5 101.5t92.5 236.5z" />
    <glyph glyph-name="uni0200" unicode="&#x200;" horiz-adv-x="1660" 
d="M832 1605l-156 -125l-231 289l156 125zM1132 1605l-156 -125l-231 289l156 125zM238 197l497 1176h189l498 -1176h138v-197h-448v197h102l-129 302h-510l-129 -302h101v-197h-447v197h138zM1008 696l-178 416l-178 -416h356z" />
    <glyph glyph-name="uni0201" unicode="&#x201;" horiz-adv-x="1302" 
d="M529 1213l-156 -125l-231 289l156 125zM829 1213l-156 -125l-231 289l156 125zM561 -20q-114 0 -211.5 44.5t-162 118t-101 169t-36.5 197.5q0 91 33.5 176.5t93 152.5t149 107.5t193.5 40.5q196 0 363 -163v158h198v-784h122v-197h-320v140q-33 -34 -63 -58.5
t-70.5 -49.5t-88 -38.5t-99.5 -13.5zM249 509q0 -85 38.5 -160.5t111 -122.5t161.5 -47q82 0 150 42t106 111.5t38 148.5q0 82 -39 154t-111.5 116t-160.5 44q-85 0 -153 -40t-104.5 -105t-36.5 -141z" />
    <glyph glyph-name="uni0202" unicode="&#x202;" horiz-adv-x="1660" 
d="M1231 1629q-70 83 -172 134t-229 51t-229.5 -51t-171.5 -134l-16 -19l152 -130l16 19q100 115 249 115t249 -115l16 -19l152 130zM238 197l497 1176h189l498 -1176h138v-197h-448v197h102l-129 302h-510l-129 -302h101v-197h-447v197h138zM1008 696l-178 416l-178 -416
h356z" />
    <glyph glyph-name="uni0203" unicode="&#x203;" horiz-adv-x="1302" 
d="M928 1237q-70 83 -172 134t-229 51t-229.5 -51t-171.5 -134l-16 -19l152 -130l16 19q100 115 249 115t249 -115l16 -19l152 130zM561 -20q-114 0 -211.5 44.5t-162 118t-101 169t-36.5 197.5q0 91 33.5 176.5t93 152.5t149 107.5t193.5 40.5q196 0 363 -163v158h198v-784
h122v-197h-320v140q-33 -34 -63 -58.5t-70.5 -49.5t-88 -38.5t-99.5 -13.5zM249 509q0 -85 38.5 -160.5t111 -122.5t161.5 -47q82 0 150 42t106 111.5t38 148.5q0 82 -39 154t-111.5 116t-160.5 44q-85 0 -153 -40t-104.5 -105t-36.5 -141z" />
    <glyph glyph-name="uni0204" unicode="&#x204;" horiz-adv-x="1230" 
d="M617 1605l-156 -125l-231 289l156 125zM917 1605l-156 -125l-231 289l156 125zM429 770h346v124h207v-443h-207v122h-346v-376h504v98h197v-295h-1030v197h123v998h-123v177h1030v-275h-197v98h-504v-425z" />
    <glyph glyph-name="uni0205" unicode="&#x205;" horiz-adv-x="1259" 
d="M638 1213l-156 -125l-231 289l156 125zM938 1213l-156 -125l-231 289l156 125zM1159 395h-854q31 -92 130 -154t222 -62q81 0 157 35t124 93l15 20l160 -122q-11 -14 -15 -20q-74 -97 -190.5 -151.5t-250.5 -54.5q-116 0 -220 41t-177.5 109.5t-116.5 162t-43 196.5
q0 99 41 190.5t111 159t170.5 108t214.5 40.5t211.5 -37.5t165.5 -102.5t106.5 -155t38.5 -193v-103zM309 595h639q-25 82 -111 136.5t-199 54.5q-112 0 -203.5 -55t-125.5 -136z" />
    <glyph glyph-name="uni0206" unicode="&#x206;" horiz-adv-x="1230" 
d="M1016 1629q-70 83 -172 134t-229 51t-229.5 -51t-171.5 -134l-16 -19l152 -130l16 19q100 115 249 115t249 -115l16 -19l152 130zM429 770h346v124h207v-443h-207v122h-346v-376h504v98h197v-295h-1030v197h123v998h-123v177h1030v-275h-197v98h-504v-425z" />
    <glyph glyph-name="uni0207" unicode="&#x207;" horiz-adv-x="1259" 
d="M1037 1237q-70 83 -172 134t-229 51t-229.5 -51t-171.5 -134l-16 -19l152 -130l16 19q100 115 249 115t249 -115l16 -19l152 130zM1159 395h-854q31 -92 130 -154t222 -62q81 0 157 35t124 93l15 20l160 -122q-11 -14 -15 -20q-74 -97 -190.5 -151.5t-250.5 -54.5
q-116 0 -220 41t-177.5 109.5t-116.5 162t-43 196.5q0 99 41 190.5t111 159t170.5 108t214.5 40.5t211.5 -37.5t165.5 -102.5t106.5 -155t38.5 -193v-103zM309 595h639q-25 82 -111 136.5t-199 54.5q-112 0 -203.5 -55t-125.5 -136z" />
    <glyph glyph-name="uni0208" unicode="&#x208;" horiz-adv-x="642" 
d="M323 1605l-156 -125l-231 289l156 125zM623 1605l-156 -125l-231 289l156 125zM223 197v996h-123v180h442v-180h-122v-996h122v-197h-442v197h123z" />
    <glyph glyph-name="uni0209" unicode="&#x209;" horiz-adv-x="666" 
d="M347 1213l-156 -125l-231 289l156 125zM647 1213l-156 -125l-231 289l156 125zM247 197v586h-147v190h344v-776h122v-197h-442v197h123z" />
    <glyph glyph-name="uni020A" unicode="&#x20a;" horiz-adv-x="642" 
d="M722 1629q-70 83 -172 134t-229 51t-229.5 -51t-171.5 -134l-16 -19l152 -130l16 19q100 115 249 115t249 -115l16 -19l152 130zM223 197v996h-123v180h442v-180h-122v-996h122v-197h-442v197h123z" />
    <glyph glyph-name="uni020B" unicode="&#x20b;" horiz-adv-x="666" 
d="M746 1237q-70 83 -172 134t-229 51t-229.5 -51t-171.5 -134l-16 -19l152 -130l16 19q100 115 249 115t249 -115l16 -19l152 130zM247 197v586h-147v190h344v-776h122v-197h-442v197h123z" />
    <glyph glyph-name="uni020C" unicode="&#x20c;" horiz-adv-x="1503" 
d="M753 1605l-156 -125l-231 289l156 125zM1053 1605l-156 -125l-231 289l156 125zM751 178q112 0 207.5 40.5t160 110.5t101 164.5t36.5 200.5q0 104 -36.5 196.5t-101.5 160t-160 106.5t-207 39t-207 -39t-159.5 -106.5t-101 -159.5t-36.5 -197q0 -107 36.5 -201t101 -164
t159.5 -110.5t207 -40.5zM751 1393q159 0 292 -54.5t222 -148.5t138.5 -222t49.5 -274q0 -117 -31 -224.5t-92 -196t-145 -154.5t-195.5 -102.5t-238.5 -36.5t-238.5 36.5t-195.5 102.5t-144.5 155t-91.5 196t-31 224q0 145 49.5 273t138.5 222.5t222 149t291 54.5z" />
    <glyph glyph-name="uni020D" unicode="&#x20d;" horiz-adv-x="1132" 
d="M568 1213l-156 -125l-231 289l156 125zM868 1213l-156 -125l-231 289l156 125zM566 -21q-156 0 -275 70t-180 185t-61 256t61 256.5t180 185t275 69.5t275 -70t180 -185t61 -256t-61 -256.5t-180 -185t-275 -69.5zM566 177q88 0 162 44t115.5 116t41.5 153t-41 153
t-115 116.5t-163 44.5q-88 0 -162 -44.5t-115.5 -116.5t-41.5 -153t41 -153t115 -116t163 -44z" />
    <glyph glyph-name="uni020E" unicode="&#x20e;" horiz-adv-x="1503" 
d="M1152 1629q-70 83 -172 134t-229 51t-229.5 -51t-171.5 -134l-16 -19l152 -130l16 19q100 115 249 115t249 -115l16 -19l152 130zM751 178q112 0 207.5 40.5t160 110.5t101 164.5t36.5 200.5q0 104 -36.5 196.5t-101.5 160t-160 106.5t-207 39t-207 -39t-159.5 -106.5
t-101 -159.5t-36.5 -197q0 -107 36.5 -201t101 -164t159.5 -110.5t207 -40.5zM751 1393q159 0 292 -54.5t222 -148.5t138.5 -222t49.5 -274q0 -117 -31 -224.5t-92 -196t-145 -154.5t-195.5 -102.5t-238.5 -36.5t-238.5 36.5t-195.5 102.5t-144.5 155t-91.5 196t-31 224
q0 145 49.5 273t138.5 222.5t222 149t291 54.5z" />
    <glyph glyph-name="uni020F" unicode="&#x20f;" horiz-adv-x="1132" 
d="M967 1237q-70 83 -172 134t-229 51t-229.5 -51t-171.5 -134l-16 -19l152 -130l16 19q100 115 249 115t249 -115l16 -19l152 130zM566 -21q-156 0 -275 70t-180 185t-61 256t61 256.5t180 185t275 69.5t275 -70t180 -185t61 -256t-61 -256.5t-180 -185t-275 -69.5z
M566 177q88 0 162 44t115.5 116t41.5 153t-41 153t-115 116.5t-163 44.5q-88 0 -162 -44.5t-115.5 -116.5t-41.5 -153t41 -153t115 -116t163 -44z" />
    <glyph glyph-name="uni0210" unicode="&#x210;" horiz-adv-x="1313" 
d="M568 1605l-156 -125l-231 289l156 125zM868 1605l-156 -125l-231 289l156 125zM100 1373h417q84 -1 157 -8t145 -21.5t130 -36.5t108 -56t84 -78t53 -103t19 -130q0 -148 -88 -248.5t-231 -142.5l196 -352h117v-197h-241l-320 491q-72 -5 -153 -5h-73v-289h122v-197h-442
v197h123v991h-123v185zM493 683q75 0 137 4t123 14t107 28.5t82 45t55 66t19 89.5q0 57 -28.5 102t-77 74t-116.5 47.5t-142 26.5t-159 8h-73v-505h73z" />
    <glyph glyph-name="uni0211" unicode="&#x211;" horiz-adv-x="1214" 
d="M609 1213l-156 -125l-231 289l156 125zM909 1213l-156 -125l-231 289l156 125zM439 680v-483h123v-197h-437v197h122v589h-147v187h339v-76q62 45 128.5 70.5t155.5 25.5q126 0 212.5 -40.5t154.5 -121.5l24 -28v-233h-200v157q-37 35 -79 50.5t-113 15.5
q-53 0 -103.5 -13.5t-87 -34.5t-57.5 -36t-35 -29z" />
    <glyph glyph-name="uni0212" unicode="&#x212;" horiz-adv-x="1313" 
d="M1042 1629q-70 83 -172 134t-229 51t-229.5 -51t-171.5 -134l-16 -19l152 -130l16 19q100 115 249 115t249 -115l16 -19l152 130zM100 1373h417q84 -1 157 -8t145 -21.5t130 -36.5t108 -56t84 -78t53 -103t19 -130q0 -148 -88 -248.5t-231 -142.5l196 -352h117v-197h-241
l-320 491q-72 -5 -153 -5h-73v-289h122v-197h-442v197h123v991h-123v185zM493 683q75 0 137 4t123 14t107 28.5t82 45t55 66t19 89.5q0 57 -28.5 102t-77 74t-116.5 47.5t-142 26.5t-159 8h-73v-505h73z" />
    <glyph glyph-name="uni0213" unicode="&#x213;" horiz-adv-x="1214" 
d="M1008 1237q-70 83 -172 134t-229 51t-229.5 -51t-171.5 -134l-16 -19l152 -130l16 19q100 115 249 115t249 -115l16 -19l152 130zM439 680v-483h123v-197h-437v197h122v589h-147v187h339v-76q62 45 128.5 70.5t155.5 25.5q126 0 212.5 -40.5t154.5 -121.5l24 -28v-233
h-200v157q-37 35 -79 50.5t-113 15.5q-53 0 -103.5 -13.5t-87 -34.5t-57.5 -36t-35 -29z" />
    <glyph glyph-name="uni0214" unicode="&#x214;" horiz-adv-x="1579" 
d="M792 1605l-156 -125l-231 289l156 125zM1092 1605l-156 -125l-231 289l156 125zM420 496q0 -93 20.5 -154t66.5 -97.5t113.5 -51.5t169.5 -15t169.5 15t113.5 51.5t66.5 97.5t20.5 154v695h-123v182h442v-182h-122v-832q0 -110 -75 -197t-204 -134.5t-288 -47.5
q-160 0 -289 47.5t-203.5 134.5t-74.5 197v832h-123v182h442v-182h-122v-695z" />
    <glyph glyph-name="uni0215" unicode="&#x215;" 
d="M679 1213l-156 -125l-231 289l156 125zM979 1213l-156 -125l-231 289l156 125zM420 335q0 -87 34.5 -122t123.5 -35q116 0 207.5 36.5t149.5 90.5v483h-123v185h442v-185h-122v-591h147v-197h-344v103q-40 -40 -81 -65t-112.5 -42t-168.5 -17q-162 0 -256 87.5t-94 244.5
v477h-123v185h442v-185h-122v-453z" />
    <glyph glyph-name="uni0216" unicode="&#x216;" horiz-adv-x="1579" 
d="M1191 1629q-70 83 -172 134t-229 51t-229.5 -51t-171.5 -134l-16 -19l152 -130l16 19q100 115 249 115t249 -115l16 -19l152 130zM420 496q0 -93 20.5 -154t66.5 -97.5t113.5 -51.5t169.5 -15t169.5 15t113.5 51.5t66.5 97.5t20.5 154v695h-123v182h442v-182h-122v-832
q0 -110 -75 -197t-204 -134.5t-288 -47.5q-160 0 -289 47.5t-203.5 134.5t-74.5 197v832h-123v182h442v-182h-122v-695z" />
    <glyph glyph-name="uni0217" unicode="&#x217;" 
d="M1078 1237q-70 83 -172 134t-229 51t-229.5 -51t-171.5 -134l-16 -19l152 -130l16 19q100 115 249 115t249 -115l16 -19l152 130zM420 335q0 -87 34.5 -122t123.5 -35q116 0 207.5 36.5t149.5 90.5v483h-123v185h442v-185h-122v-591h147v-197h-344v103q-40 -40 -81 -65
t-112.5 -42t-168.5 -17q-162 0 -256 87.5t-94 244.5v477h-123v185h442v-185h-122v-453z" />
    <glyph glyph-name="Scommaaccent" unicode="&#x218;" horiz-adv-x="1261" 
d="M606 -61l186 -67l-143 -393l-185 67zM634 175q45 0 72.5 0.5t60.5 2t52.5 4.5t42 8.5t34.5 13t25.5 18.5t20 25.5t12.5 33.5t8 42t2 53q0 38 -11.5 68t-39.5 51.5t-53.5 36t-75 26.5t-80 18t-91.5 16q-52 9 -79.5 13.5t-77 15.5t-77 21t-69 28t-65 37t-51.5 48t-43 62.5
t-25 77.5t-10 96q0 93 39.5 169.5t108.5 127t162 78t201 27.5q127 0 247 -38.5t208 -94.5l12 -7v-302h-199v191q-123 53 -257 53q-150 0 -237.5 -54.5t-87.5 -161.5q0 -32 10.5 -57.5t37 -44.5t49.5 -32t69.5 -25.5t75.5 -19t86 -17.5q54 -10 82 -16t79.5 -19t80.5 -24
t72.5 -31t68.5 -41t54.5 -51.5t45 -66t26.5 -82t11 -99.5q0 -82 -27 -146t-74.5 -106t-116 -70t-146 -40t-169.5 -12q-134 0 -273.5 33t-240.5 79l-14 7v317h197v-188q78 -27 154 -39.5t183 -12.5z" />
    <glyph glyph-name="scommaaccent" unicode="&#x219;" horiz-adv-x="1018" 
d="M470 -61l186 -67l-143 -393l-185 67zM721 302q0 27 -21 45.5t-57 29t-83 19t-98 18t-102.5 21t-98.5 32.5t-83 50t-57 75t-21 105q0 71 37 130t97 97t135 58.5t153 20.5q94 0 187.5 -37t159.5 -93l9 -7v-253h-197v155q-75 38 -160 38q-54 0 -105 -15.5t-85 -44t-34 -63.5
q0 -21 17.5 -37t47 -26t69.5 -19.5t84.5 -17t92 -19t92 -24.5t84.5 -35.5t69.5 -50.5t47 -70t17.5 -94q0 -72 -35 -132t-94.5 -98.5t-136.5 -59.5t-163 -21q-99 0 -199.5 34.5t-174.5 88.5l-11 7v240h197v-132q85 -40 188 -40q97 0 164.5 35t67.5 90z" />
    <glyph glyph-name="uni021A" unicode="&#x21a;" horiz-adv-x="1277" 
d="M616 -40l186 -67l-143 -393l-185 67zM297 1089h-197v284h1077v-284h-197v98h-227l15 -990h123v-197h-455v197h123l-35 990h-227v-98z" />
    <glyph glyph-name="uni021B" unicode="&#x21b;" horiz-adv-x="789" 
d="M620 -60l186 -67l-143 -393l-185 67zM689 -20h-69q-184 0 -278.5 103t-94.5 282v419h-147v189h147v245h197v-245h245v-189h-245v-411q0 -101 39 -148t137 -47h69v-198z" />
    <glyph glyph-name="uni021E" unicode="&#x21e;" horiz-adv-x="1600" 
d="M663 1894l-157 -125l223 -279h142l223 279l-157 125l-137 -173zM1500 1373v-182h-123v-994h123v-197h-443v197h123v376h-760v-376h122v-197h-442v197h123v994h-123v182h442v-182h-122v-421h760v421h-123v182h443z" />
    <glyph glyph-name="uni021F" unicode="&#x21f;" 
d="M552 1996l-157 -125l223 -279h142l223 279l-157 125l-137 -173zM959 638q0 87 -34.5 122t-123.5 35q-114 0 -206.5 -36.5t-150.5 -90.5v-471h123v-197h-442v197h122v1110h-147v187h344v-624q40 40 81 65t112.5 42t168.5 17q162 0 256 -87.5t94 -243.5v-466h123v-197h-442
v197h122v441z" />
    <glyph glyph-name="uni0226" unicode="&#x226;" horiz-adv-x="1660" 
d="M707 1613q0 58 32.5 90.5t90.5 32.5t90.5 -32.5t32.5 -90.5t-32.5 -90.5t-90.5 -32.5t-90.5 32.5t-32.5 90.5zM238 197l497 1176h189l498 -1176h138v-197h-448v197h102l-129 302h-510l-129 -302h101v-197h-447v197h138zM1008 696l-178 416l-178 -416h356z" />
    <glyph glyph-name="uni0227" unicode="&#x227;" horiz-adv-x="1302" 
d="M404 1221q0 58 32.5 90.5t90.5 32.5t90.5 -32.5t32.5 -90.5t-32.5 -90.5t-90.5 -32.5t-90.5 32.5t-32.5 90.5zM561 -20q-114 0 -211.5 44.5t-162 118t-101 169t-36.5 197.5q0 91 33.5 176.5t93 152.5t149 107.5t193.5 40.5q196 0 363 -163v158h198v-784h122v-197h-320
v140q-33 -34 -63 -58.5t-70.5 -49.5t-88 -38.5t-99.5 -13.5zM249 509q0 -85 38.5 -160.5t111 -122.5t161.5 -47q82 0 150 42t106 111.5t38 148.5q0 82 -39 154t-111.5 116t-160.5 44q-85 0 -153 -40t-104.5 -105t-36.5 -141z" />
    <glyph glyph-name="uni0228" unicode="&#x228;" horiz-adv-x="1230" 
d="M430 -393l-141 141l226 226v63h200v-145zM429 770h346v124h207v-443h-207v122h-346v-376h504v98h197v-295h-1030v197h123v998h-123v177h1030v-275h-197v98h-504v-425z" />
    <glyph glyph-name="uni0229" unicode="&#x229;" horiz-adv-x="1259" 
d="M470 -414l-141 141l226 226v63h200v-145zM1159 395h-854q31 -92 130 -154t222 -62q81 0 157 35t124 93l15 20l160 -122q-11 -14 -15 -20q-74 -97 -190.5 -151.5t-250.5 -54.5q-116 0 -220 41t-177.5 109.5t-116.5 162t-43 196.5q0 99 41 190.5t111 159t170.5 108
t214.5 40.5t211.5 -37.5t165.5 -102.5t106.5 -155t38.5 -193v-103zM309 595h639q-25 82 -111 136.5t-199 54.5q-112 0 -203.5 -55t-125.5 -136z" />
    <glyph glyph-name="uni022A" unicode="&#x22a;" horiz-adv-x="1503" 
d="M351 1808v200h800v-200h-800zM766 1613q0 58 32.5 90.5t90.5 32.5t90.5 -32.5t32.5 -90.5t-32.5 -90.5t-90.5 -32.5t-90.5 32.5t-32.5 90.5zM491 1613q0 58 32.5 90.5t90.5 32.5t90.5 -32.5t32.5 -90.5t-32.5 -90.5t-90.5 -32.5t-90.5 32.5t-32.5 90.5zM751 178
q112 0 207.5 40.5t160 110.5t101 164.5t36.5 200.5q0 104 -36.5 196.5t-101.5 160t-160 106.5t-207 39t-207 -39t-159.5 -106.5t-101 -159.5t-36.5 -197q0 -107 36.5 -201t101 -164t159.5 -110.5t207 -40.5zM751 1393q159 0 292 -54.5t222 -148.5t138.5 -222t49.5 -274
q0 -117 -31 -224.5t-92 -196t-145 -154.5t-195.5 -102.5t-238.5 -36.5t-238.5 36.5t-195.5 102.5t-144.5 155t-91.5 196t-31 224q0 145 49.5 273t138.5 222.5t222 149t291 54.5z" />
    <glyph glyph-name="uni022B" unicode="&#x22b;" horiz-adv-x="1132" 
d="M166 1416v200h800v-200h-800zM580 1221q0 58 32.5 90.5t90.5 32.5t90.5 -32.5t32.5 -90.5t-32.5 -90.5t-90.5 -32.5t-90.5 32.5t-32.5 90.5zM305 1221q0 58 32.5 90.5t90.5 32.5t90.5 -32.5t32.5 -90.5t-32.5 -90.5t-90.5 -32.5t-90.5 32.5t-32.5 90.5zM566 -21
q-156 0 -275 70t-180 185t-61 256t61 256.5t180 185t275 69.5t275 -70t180 -185t61 -256t-61 -256.5t-180 -185t-275 -69.5zM566 177q88 0 162 44t115.5 116t41.5 153t-41 153t-115 116.5t-163 44.5q-88 0 -162 -44.5t-115.5 -116.5t-41.5 -153t41 -153t115 -116t163 -44z
" />
    <glyph glyph-name="uni022C" unicode="&#x22c;" horiz-adv-x="1503" 
d="M357 1962v200h800v-200h-800zM572 1873q52 0 97.5 -17t77.5 -41.5t61 -49t60 -41.5t62 -17q12 0 20 7.5t8 17.5q0 9 -7 16l-16 19l149 133l17 -18q57 -65 57 -150q0 -96 -65.5 -160.5t-163.5 -64.5q-64 0 -119 26t-87.5 57t-73 57t-77.5 26q-12 0 -20 -7.5t-8 -17.5
q0 -9 7 -16l16 -19l-149 -133l-17 18q-57 65 -57 150q0 96 65 160.5t163 64.5zM751 178q112 0 207.5 40.5t160 110.5t101 164.5t36.5 200.5q0 104 -36.5 196.5t-101.5 160t-160 106.5t-207 39t-207 -39t-159.5 -106.5t-101 -159.5t-36.5 -197q0 -107 36.5 -201t101 -164
t159.5 -110.5t207 -40.5zM751 1393q159 0 292 -54.5t222 -148.5t138.5 -222t49.5 -274q0 -117 -31 -224.5t-92 -196t-145 -154.5t-195.5 -102.5t-238.5 -36.5t-238.5 36.5t-195.5 102.5t-144.5 155t-91.5 196t-31 224q0 145 49.5 273t138.5 222.5t222 149t291 54.5z" />
    <glyph glyph-name="uni022D" unicode="&#x22d;" horiz-adv-x="1132" 
d="M190 1570v200h800v-200h-800zM387 1481q52 0 97.5 -17t77.5 -41.5t61 -49t60 -41.5t62 -17q12 0 20 7.5t8 17.5q0 9 -7 16l-16 19l149 133l17 -18q57 -65 57 -150q0 -96 -65.5 -160.5t-163.5 -64.5q-64 0 -119 26t-87.5 57t-73 57t-77.5 26q-12 0 -20 -7.5t-8 -17.5
q0 -9 7 -16l16 -19l-149 -133l-17 18q-57 65 -57 150q0 96 65 160.5t163 64.5zM566 -21q-156 0 -275 70t-180 185t-61 256t61 256.5t180 185t275 69.5t275 -70t180 -185t61 -256t-61 -256.5t-180 -185t-275 -69.5zM566 177q88 0 162 44t115.5 116t41.5 153t-41 153
t-115 116.5t-163 44.5q-88 0 -162 -44.5t-115.5 -116.5t-41.5 -153t41 -153t115 -116t163 -44z" />
    <glyph glyph-name="uni022E" unicode="&#x22e;" horiz-adv-x="1503" 
d="M628 1613q0 58 32.5 90.5t90.5 32.5t90.5 -32.5t32.5 -90.5t-32.5 -90.5t-90.5 -32.5t-90.5 32.5t-32.5 90.5zM751 178q112 0 207.5 40.5t160 110.5t101 164.5t36.5 200.5q0 104 -36.5 196.5t-101.5 160t-160 106.5t-207 39t-207 -39t-159.5 -106.5t-101 -159.5
t-36.5 -197q0 -107 36.5 -201t101 -164t159.5 -110.5t207 -40.5zM751 1393q159 0 292 -54.5t222 -148.5t138.5 -222t49.5 -274q0 -117 -31 -224.5t-92 -196t-145 -154.5t-195.5 -102.5t-238.5 -36.5t-238.5 36.5t-195.5 102.5t-144.5 155t-91.5 196t-31 224q0 145 49.5 273
t138.5 222.5t222 149t291 54.5z" />
    <glyph glyph-name="uni022F" unicode="&#x22f;" horiz-adv-x="1132" 
d="M443 1221q0 58 32.5 90.5t90.5 32.5t90.5 -32.5t32.5 -90.5t-32.5 -90.5t-90.5 -32.5t-90.5 32.5t-32.5 90.5zM566 -21q-156 0 -275 70t-180 185t-61 256t61 256.5t180 185t275 69.5t275 -70t180 -185t61 -256t-61 -256.5t-180 -185t-275 -69.5zM566 177q88 0 162 44
t115.5 116t41.5 153t-41 153t-115 116.5t-163 44.5q-88 0 -162 -44.5t-115.5 -116.5t-41.5 -153t41 -153t115 -116t163 -44z" />
    <glyph glyph-name="uni0230" unicode="&#x230;" horiz-adv-x="1503" 
d="M326 1808v200h800v-200h-800zM628 1613q0 58 32.5 90.5t90.5 32.5t90.5 -32.5t32.5 -90.5t-32.5 -90.5t-90.5 -32.5t-90.5 32.5t-32.5 90.5zM751 178q112 0 207.5 40.5t160 110.5t101 164.5t36.5 200.5q0 104 -36.5 196.5t-101.5 160t-160 106.5t-207 39t-207 -39
t-159.5 -106.5t-101 -159.5t-36.5 -197q0 -107 36.5 -201t101 -164t159.5 -110.5t207 -40.5zM751 1393q159 0 292 -54.5t222 -148.5t138.5 -222t49.5 -274q0 -117 -31 -224.5t-92 -196t-145 -154.5t-195.5 -102.5t-238.5 -36.5t-238.5 36.5t-195.5 102.5t-144.5 155
t-91.5 196t-31 224q0 145 49.5 273t138.5 222.5t222 149t291 54.5z" />
    <glyph glyph-name="uni0231" unicode="&#x231;" horiz-adv-x="1132" 
d="M141 1416v200h800v-200h-800zM443 1221q0 58 32.5 90.5t90.5 32.5t90.5 -32.5t32.5 -90.5t-32.5 -90.5t-90.5 -32.5t-90.5 32.5t-32.5 90.5zM566 -21q-156 0 -275 70t-180 185t-61 256t61 256.5t180 185t275 69.5t275 -70t180 -185t61 -256t-61 -256.5t-180 -185
t-275 -69.5zM566 177q88 0 162 44t115.5 116t41.5 153t-41 153t-115 116.5t-163 44.5q-88 0 -162 -44.5t-115.5 -116.5t-41.5 -153t41 -153t115 -116t163 -44z" />
    <glyph glyph-name="uni0232" unicode="&#x232;" horiz-adv-x="1498" 
d="M349 1490v200h800v-200h-800zM1252 1188l-388 -523v-468h132v-197h-493v197h132v466l-390 525h-145v185h474v-185h-87l262 -343l262 343h-87v185h474v-185h-146z" />
    <glyph glyph-name="uni0233" unicode="&#x233;" horiz-adv-x="1454" 
d="M327 1098v200h800v-200h-800zM739 -554h-492v200h134l199 396l-346 743h-134v188h468v-188h-112l257 -550l284 550h-111v188h468v-188h-134l-612 -1139h131v-200z" />
    <glyph glyph-name="uni0237" unicode="&#x237;" horiz-adv-x="548" 
d="M25 -186h50q99 0 137.5 48.5t38.5 162.5v758h-148v190h345v-948q0 -190 -96 -299.5t-277 -109.5h-50v198z" />
    <glyph glyph-name="uni02BE" unicode="&#x2be;" horiz-adv-x="471" 
d="M371 927q-122 0 -209 87t-87 209t87 209t209 87h25v-200h-25q-40 0 -68 -28t-28 -68t28 -68t68 -28h25v-200h-25z" />
    <glyph glyph-name="uni02BF" unicode="&#x2bf;" horiz-adv-x="471" 
d="M75 927v200h25q40 0 68 28t28 68t-28 68t-68 28h-25v200h25q122 0 209 -87t87 -209t-87 -209t-209 -87h-25z" />
    <glyph glyph-name="circumflex" unicode="&#x2c6;" horiz-adv-x="718" 
d="M222 721l-157 125l223 279h142l223 -279l-157 -125l-137 173z" />
    <glyph glyph-name="caron" unicode="&#x2c7;" horiz-adv-x="718" 
d="M222 1136l-157 -125l223 -279h142l223 279l-157 125l-137 -173z" />
    <glyph glyph-name="uni02C8" unicode="&#x2c8;" horiz-adv-x="297" 
d="M25 1350h197v-418h-197v418z" />
    <glyph glyph-name="uni02C9" unicode="&#x2c9;" horiz-adv-x="950" 
d="M75 742v200h800v-200h-800z" />
    <glyph glyph-name="uni02CA" unicode="&#x2ca;" horiz-adv-x="517" 
d="M65 753l231 289l156 -125l-231 -289z" />
    <glyph glyph-name="breve" unicode="&#x2d8;" horiz-adv-x="964" 
d="M883 860q-70 -83 -172 -134t-229 -51t-229.5 51t-171.5 134l-16 19l152 130l16 -19q100 -115 249 -115t249 115l16 19l152 -130z" />
    <glyph glyph-name="dotaccent" unicode="&#x2d9;" horiz-adv-x="512" 
d="M-123 220q0 58 32.5 90.5t90.5 32.5t90.5 -32.5t32.5 -90.5t-32.5 -90.5t-90.5 -32.5t-90.5 32.5t-32.5 90.5z" />
    <glyph glyph-name="ring" unicode="&#x2da;" horiz-adv-x="750" 
d="M-96 393q0 -40 28 -68t68 -28t68 28t28 68t-28 68t-68 28t-68 -28t-28 -68zM-296 393q0 122 87 209t209 87t209 -87t87 -209t-87 -209t-209 -87t-209 87t-87 209z" />
    <glyph glyph-name="ogonek" unicode="&#x2db;" horiz-adv-x="522" 
d="M423 -337q-26 -70 -90 -118t-149 -48q-107 0 -182 73.5t-75 183.5q0 44 12.5 83t37 72t44.5 54t52.5 49.5t42.5 39.5l93 92l142 -141l-92 -93q-17 -16 -60.5 -54t-69.5 -64.5t-26 -37.5q0 -40 26 -60t56 -20q21 0 46 11t30 24l7 21l165 -40z" />
    <glyph glyph-name="tilde" unicode="&#x2dc;" horiz-adv-x="750" 
d="M-179 480q52 0 97.5 -17t77.5 -41.5t61 -49t60 -41.5t62 -17q12 0 20 7.5t8 17.5q0 9 -7 16l-16 19l149 133l17 -18q57 -65 57 -150q0 -96 -65.5 -160.5t-163.5 -64.5q-64 0 -119 26t-87.5 57t-73 57t-77.5 26q-12 0 -20 -7.5t-8 -17.5q0 -9 7 -16l16 -19l-149 -133
l-17 18q-57 65 -57 150q0 96 65 160.5t163 64.5z" />
    <glyph glyph-name="hungarumlaut" unicode="&#x2dd;" horiz-adv-x="817" 
d="M365 753l231 289l156 -125l-231 -289zM65 753l231 289l156 -125l-231 -289z" />
    <glyph glyph-name="uni02E1" unicode="&#x2e1;" horiz-adv-x="666" 
 />
    <glyph glyph-name="uni02E2" unicode="&#x2e2;" horiz-adv-x="1018" 
 />
    <glyph glyph-name="uni02E3" unicode="&#x2e3;" horiz-adv-x="1309" 
 />
    <glyph glyph-name="acutecomb" unicode="&#x301;" horiz-adv-x="517" 
d="M65 753l231 289l156 -125l-231 -289z" />
    <glyph glyph-name="uni0302" unicode="&#x302;" horiz-adv-x="718" 
d="M222 721l-157 125l223 279h142l223 -279l-157 -125l-137 173z" />
    <glyph glyph-name="tildecomb" unicode="&#x303;" horiz-adv-x="964" 
d="M303 1025q52 0 97.5 -17t77.5 -41.5t61 -49t60 -41.5t62 -17q12 0 20 7.5t8 17.5q0 9 -7 16l-16 19l149 133l17 -18q57 -65 57 -150q0 -96 -65.5 -160.5t-163.5 -64.5q-64 0 -119 26t-87.5 57t-73 57t-77.5 26q-12 0 -20 -7.5t-8 -17.5q0 -9 7 -16l16 -19l-149 -133
l-17 18q-57 65 -57 150q0 96 65 160.5t163 64.5z" />
    <glyph glyph-name="uni0308" unicode="&#x308;" horiz-adv-x="671" 
d="M350 828q0 58 32.5 90.5t90.5 32.5t90.5 -32.5t32.5 -90.5t-32.5 -90.5t-90.5 -32.5t-90.5 32.5t-32.5 90.5zM75 828q0 58 32.5 90.5t90.5 32.5t90.5 -32.5t32.5 -90.5t-32.5 -90.5t-90.5 -32.5t-90.5 32.5t-32.5 90.5z" />
    <glyph glyph-name="hookabovecomb" unicode="&#x309;" horiz-adv-x="579" 
d="M163 711q0 40 14.5 78.5t35.5 66.5t42 51.5t35.5 43.5t14.5 34q0 1 -2.5 4t-7.5 6t-11 3q-47 0 -56 -17l-14 -24l-147 101l11 20q31 55 84.5 87.5t120.5 32.5q89 0 155 -60.5t66 -152.5q0 -45 -14.5 -82t-35 -60t-41.5 -43.5t-35.5 -43t-14.5 -46.5q0 -13 4 -24l10 -24
l-189 -68l-8 23q-17 45 -17 94z" />
    <glyph glyph-name="uni030A" unicode="&#x30a;" horiz-adv-x="692" 
d="M225 1223q0 -40 28 -68t68 -28t68 28t28 68t-28 68t-68 28t-68 -28t-28 -68zM25 1223q0 122 87 209t209 87t209 -87t87 -209t-87 -209t-209 -87t-209 87t-87 209z" />
    <glyph glyph-name="uni030B" unicode="&#x30b;" horiz-adv-x="567" 
d="M295 1400h197v-418h-197v418zM50 1400h197v-418h-197v418z" />
    <glyph glyph-name="uni030E" unicode="&#x30e;" horiz-adv-x="567" 
d="M295 925h197v-418h-197v418zM50 925h197v-418h-197v418z" />
    <glyph glyph-name="uni030F" unicode="&#x30f;" horiz-adv-x="817" 
d="M452 753l-156 -125l-231 289l156 125zM752 753l-156 -125l-231 289l156 125z" />
    <glyph glyph-name="uni031B" unicode="&#x31b;" horiz-adv-x="612" 
d="M328 1098l193 51l6 -25q11 -43 11 -80q0 -153 -106.5 -241t-265.5 -88q-31 0 -69 5l-25 4l28 197l24 -3q21 -3 42 -3q80 0 126 32.5t46 96.5q0 13 -4 30z" />
    <glyph glyph-name="uni0327" unicode="&#x327;" horiz-adv-x="566" 
d="M206 -275l-141 141l226 226v63h200v-145z" />
    <glyph glyph-name="uni0344" unicode="&#x344;" horiz-adv-x="671" 
d="M700 828q0 58 32.5 90.5t90.5 32.5t90.5 -32.5t32.5 -90.5t-32.5 -90.5t-90.5 -32.5t-90.5 32.5t-32.5 90.5zM75 828q0 58 32.5 90.5t90.5 32.5t90.5 -32.5t32.5 -90.5t-32.5 -90.5t-90.5 -32.5t-90.5 32.5t-32.5 90.5zM333 788l231 289l156 -125l-231 -289z" />
    <glyph glyph-name="Omega" unicode="&#x3a9;" horiz-adv-x="2000" 
d="M1598 715q0 115 -47.5 221.5t-127.5 185t-191 125.5t-232 47t-232 -47t-191 -125.5t-127.5 -185t-47.5 -221.5q0 -90 27 -174t74 -151.5t106.5 -120.5t129.5 -89l14 -7v-173h-653v200h327q-100 108 -163.5 243.5t-63.5 279.5q0 153 63 294.5t169 246.5t255 167.5
t313 62.5t313 -62.5t255.5 -167.5t169 -246.5t62.5 -294.5q0 -144 -64 -280t-163 -243h327v-200h-653v173l14 7q70 36 129.5 89t106.5 120.5t74 151.5t27 174z" />
    <glyph glyph-name="pi" unicode="&#x3c0;" horiz-adv-x="1416" 
d="M972 783h-528v-586h122v-197h-442v197h123v586h-197v190h1316v-190h-197v-586h123v-197h-442v197h122v586z" />
    <glyph glyph-name="uni1E00" unicode="&#x1e00;" horiz-adv-x="1660" 
d="M734 -393q0 -40 28 -68t68 -28t68 28t28 68t-28 68t-68 28t-68 -28t-28 -68zM534 -393q0 122 87 209t209 87t209 -87t87 -209t-87 -209t-209 -87t-209 87t-87 209zM238 197l497 1176h189l498 -1176h138v-197h-448v197h102l-129 302h-510l-129 -302h101v-197h-447v197h138
zM1008 696l-178 416l-178 -416h356z" />
    <glyph glyph-name="uni1E01" unicode="&#x1e01;" horiz-adv-x="1302" 
d="M470 -413q0 -40 28 -68t68 -28t68 28t28 68t-28 68t-68 28t-68 -28t-28 -68zM270 -413q0 122 87 209t209 87t209 -87t87 -209t-87 -209t-209 -87t-209 87t-87 209zM561 -20q-114 0 -211.5 44.5t-162 118t-101 169t-36.5 197.5q0 91 33.5 176.5t93 152.5t149 107.5
t193.5 40.5q196 0 363 -163v158h198v-784h122v-197h-320v140q-33 -34 -63 -58.5t-70.5 -49.5t-88 -38.5t-99.5 -13.5zM249 509q0 -85 38.5 -160.5t111 -122.5t161.5 -47q82 0 150 42t106 111.5t38 148.5q0 82 -39 154t-111.5 116t-160.5 44q-85 0 -153 -40t-104.5 -105
t-36.5 -141z" />
    <glyph glyph-name="uni1E02" unicode="&#x1e02;" horiz-adv-x="1313" 
d="M533 1613q0 58 32.5 90.5t90.5 32.5t90.5 -32.5t32.5 -90.5t-32.5 -90.5t-90.5 -32.5t-90.5 32.5t-32.5 90.5zM535 882q119 0 209.5 17t143 52t52.5 83q0 41 -33 72.5t-89 49.5t-121 26.5t-137 8.5h-140v-309h115zM955 785q46 -21 91.5 -57t83 -81t60.5 -99.5t23 -107.5
q0 -98 -36.5 -174.5t-99.5 -126t-153 -81.5t-189.5 -45t-217.5 -13h-417v197h123v994h-123v182h417q65 0 124.5 -3.5t123.5 -14t117.5 -26.5t102.5 -42.5t83 -60.5t54 -83t20 -108q0 -70 -55.5 -142t-131.5 -108zM493 198q77 0 138.5 4t123.5 13.5t107.5 28t81 45t54 66
t18.5 90.5q0 66 -42.5 115.5t-117 78t-165.5 42.5t-198 14h-73v-497h73z" />
    <glyph glyph-name="uni1E03" unicode="&#x1e03;" horiz-adv-x="1307" 
d="M555 1714q0 58 32.5 90.5t90.5 32.5t90.5 -32.5t32.5 -90.5t-32.5 -90.5t-90.5 -32.5t-90.5 32.5t-32.5 90.5zM789 986q104 0 193.5 -40.5t148.5 -107.5t92.5 -152.5t33.5 -176.5q0 -102 -36 -197t-100.5 -169t-162 -118.5t-211.5 -44.5q-52 0 -99.5 13.5t-88 38.5
t-70.5 50t-63 58v-140h-326v197h123v1110h-123v187h326v-671q77 75 165 119t198 44zM748 179q89 0 161 47t110.5 122.5t38.5 160.5q0 77 -36.5 142t-104.5 104.5t-153 39.5q-88 0 -160 -44t-111.5 -116t-39.5 -154q0 -79 38 -148.5t106.5 -111.5t150.5 -42z" />
    <glyph glyph-name="uni1E04" unicode="&#x1e04;" horiz-adv-x="1313" 
d="M568 -220q0 58 32.5 90.5t90.5 32.5t90.5 -32.5t32.5 -90.5t-32.5 -90.5t-90.5 -32.5t-90.5 32.5t-32.5 90.5zM535 882q119 0 209.5 17t143 52t52.5 83q0 41 -33 72.5t-89 49.5t-121 26.5t-137 8.5h-140v-309h115zM955 785q46 -21 91.5 -57t83 -81t60.5 -99.5t23 -107.5
q0 -98 -36.5 -174.5t-99.5 -126t-153 -81.5t-189.5 -45t-217.5 -13h-417v197h123v994h-123v182h417q65 0 124.5 -3.5t123.5 -14t117.5 -26.5t102.5 -42.5t83 -60.5t54 -83t20 -108q0 -70 -55.5 -142t-131.5 -108zM493 198q77 0 138.5 4t123.5 13.5t107.5 28t81 45t54 66
t18.5 90.5q0 66 -42.5 115.5t-117 78t-165.5 42.5t-198 14h-73v-497h73z" />
    <glyph glyph-name="uni1E05" unicode="&#x1e05;" horiz-adv-x="1307" 
d="M619 -240q0 58 32.5 90.5t90.5 32.5t90.5 -32.5t32.5 -90.5t-32.5 -90.5t-90.5 -32.5t-90.5 32.5t-32.5 90.5zM789 986q104 0 193.5 -40.5t148.5 -107.5t92.5 -152.5t33.5 -176.5q0 -102 -36 -197t-100.5 -169t-162 -118.5t-211.5 -44.5q-52 0 -99.5 13.5t-88 38.5
t-70.5 50t-63 58v-140h-326v197h123v1110h-123v187h326v-671q77 75 165 119t198 44zM748 179q89 0 161 47t110.5 122.5t38.5 160.5q0 77 -36.5 142t-104.5 104.5t-153 39.5q-88 0 -160 -44t-111.5 -116t-39.5 -154q0 -79 38 -148.5t106.5 -111.5t150.5 -42z" />
    <glyph glyph-name="uni1E06" unicode="&#x1e06;" horiz-adv-x="1313" 
d="M191 -297v200h800v-200h-800zM535 882q119 0 209.5 17t143 52t52.5 83q0 41 -33 72.5t-89 49.5t-121 26.5t-137 8.5h-140v-309h115zM955 785q46 -21 91.5 -57t83 -81t60.5 -99.5t23 -107.5q0 -98 -36.5 -174.5t-99.5 -126t-153 -81.5t-189.5 -45t-217.5 -13h-417v197h123
v994h-123v182h417q65 0 124.5 -3.5t123.5 -14t117.5 -26.5t102.5 -42.5t83 -60.5t54 -83t20 -108q0 -70 -55.5 -142t-131.5 -108zM493 198q77 0 138.5 4t123.5 13.5t107.5 28t81 45t54 66t18.5 90.5q0 66 -42.5 115.5t-117 78t-165.5 42.5t-198 14h-73v-497h73z" />
    <glyph glyph-name="uni1E07" unicode="&#x1e07;" horiz-adv-x="1307" 
d="M342 -317v200h800v-200h-800zM789 986q104 0 193.5 -40.5t148.5 -107.5t92.5 -152.5t33.5 -176.5q0 -102 -36 -197t-100.5 -169t-162 -118.5t-211.5 -44.5q-52 0 -99.5 13.5t-88 38.5t-70.5 50t-63 58v-140h-326v197h123v1110h-123v187h326v-671q77 75 165 119t198 44z
M748 179q89 0 161 47t110.5 122.5t38.5 160.5q0 77 -36.5 142t-104.5 104.5t-153 39.5q-88 0 -160 -44t-111.5 -116t-39.5 -154q0 -79 38 -148.5t106.5 -111.5t150.5 -42z" />
    <glyph glyph-name="uni1E08" unicode="&#x1e08;" horiz-adv-x="1237" 
d="M664 1605l231 289l156 -125l-231 -289zM564 -413l-141 141l226 226v63h200v-145zM763 -20q-159 0 -293.5 52t-226 142.5t-142.5 215t-51 267.5q0 148 59 280t161.5 228t249.5 152t316 56q54 0 129 -14.5t106 -23.5t49 -15l17 -6v-275h-197v127q-48 8 -100 8
q-125 0 -235 -40t-188 -109t-123 -165.5t-45 -206.5q0 -100 38.5 -187.5t106 -150.5t164 -99.5t207.5 -36.5q137 0 241 63l21 13l102 -167l-21 -13q-152 -95 -345 -95z" />
    <glyph glyph-name="uni1E09" unicode="&#x1e09;" horiz-adv-x="1092" 
d="M426 1213l231 289l156 -125l-231 -289zM396 -414l-141 141l226 226v63h200v-145zM588 -21q-121 0 -222.5 40t-170 108.5t-107 161t-38.5 197.5q0 106 39 200.5t107.5 164t169.5 110t218 40.5q228 0 378 -164l7 -7v-237h-197v153q-84 56 -190 56q-152 0 -244.5 -90.5
t-92.5 -227.5q0 -61 25.5 -117t70 -97.5t108.5 -66.5t138 -25q77 0 141.5 33t97.5 81l15 21l161 -113l-15 -20q-61 -88 -164.5 -144.5t-234.5 -56.5z" />
    <glyph glyph-name="uni1E0A" unicode="&#x1e0a;" horiz-adv-x="1457" 
d="M605 1613q0 58 32.5 90.5t90.5 32.5t90.5 -32.5t32.5 -90.5t-32.5 -90.5t-90.5 -32.5t-90.5 32.5t-32.5 90.5zM493 1373q146 0 281 -28.5t250 -86.5t200.5 -139t134 -192t48.5 -240q0 -130 -48.5 -241.5t-134 -192.5t-200.5 -138.5t-250 -86t-281 -28.5h-393v197h123v994
h-123v182h393zM493 197q112 0 217 21t195.5 62.5t158.5 99.5t106.5 137t38.5 170q0 90 -39.5 170t-108.5 140t-159 104.5t-195 67t-214 22.5h-73v-994h73z" />
    <glyph glyph-name="uni1E0B" unicode="&#x1e0b;" horiz-adv-x="1307" 
d="M505 1714q0 58 32.5 90.5t90.5 32.5t90.5 -32.5t32.5 -90.5t-32.5 -90.5t-90.5 -32.5t-90.5 32.5t-32.5 90.5zM561 -20q-114 0 -211.5 44.5t-162 118.5t-101 169t-36.5 197q0 91 33.5 176.5t93 152.5t149 107.5t193.5 40.5q196 0 363 -163v484h-133v187h336v-1297h122
v-197h-325v140q-33 -34 -63 -58.5t-70.5 -49.5t-88 -38.5t-99.5 -13.5zM249 509q0 -85 38.5 -160.5t111 -122.5t161.5 -47q82 0 150 42t106 111.5t38 148.5q0 82 -39.5 154t-111.5 116t-160 44q-85 0 -153 -39.5t-104.5 -104.5t-36.5 -142z" />
    <glyph glyph-name="uni1E0C" unicode="&#x1e0c;" horiz-adv-x="1457" 
d="M572 -220q0 58 32.5 90.5t90.5 32.5t90.5 -32.5t32.5 -90.5t-32.5 -90.5t-90.5 -32.5t-90.5 32.5t-32.5 90.5zM493 1373q146 0 281 -28.5t250 -86.5t200.5 -139t134 -192t48.5 -240q0 -130 -48.5 -241.5t-134 -192.5t-200.5 -138.5t-250 -86t-281 -28.5h-393v197h123v994
h-123v182h393zM493 197q112 0 217 21t195.5 62.5t158.5 99.5t106.5 137t38.5 170q0 90 -39.5 170t-108.5 140t-159 104.5t-195 67t-214 22.5h-73v-994h73z" />
    <glyph glyph-name="uni1E0D" unicode="&#x1e0d;" horiz-adv-x="1307" 
d="M443 -240q0 58 32.5 90.5t90.5 32.5t90.5 -32.5t32.5 -90.5t-32.5 -90.5t-90.5 -32.5t-90.5 32.5t-32.5 90.5zM561 -20q-114 0 -211.5 44.5t-162 118.5t-101 169t-36.5 197q0 91 33.5 176.5t93 152.5t149 107.5t193.5 40.5q196 0 363 -163v484h-133v187h336v-1297h122
v-197h-325v140q-33 -34 -63 -58.5t-70.5 -49.5t-88 -38.5t-99.5 -13.5zM249 509q0 -85 38.5 -160.5t111 -122.5t161.5 -47q82 0 150 42t106 111.5t38 148.5q0 82 -39.5 154t-111.5 116t-160 44q-85 0 -153 -39.5t-104.5 -104.5t-36.5 -142z" />
    <glyph glyph-name="uni1E0E" unicode="&#x1e0e;" horiz-adv-x="1457" 
d="M270 -297v200h800v-200h-800zM493 1373q146 0 281 -28.5t250 -86.5t200.5 -139t134 -192t48.5 -240q0 -130 -48.5 -241.5t-134 -192.5t-200.5 -138.5t-250 -86t-281 -28.5h-393v197h123v994h-123v182h393zM493 197q112 0 217 21t195.5 62.5t158.5 99.5t106.5 137
t38.5 170q0 90 -39.5 170t-108.5 140t-159 104.5t-195 67t-214 22.5h-73v-994h73z" />
    <glyph glyph-name="uni1E0F" unicode="&#x1e0f;" horiz-adv-x="1307" 
d="M166 -317v200h800v-200h-800zM561 -20q-114 0 -211.5 44.5t-162 118.5t-101 169t-36.5 197q0 91 33.5 176.5t93 152.5t149 107.5t193.5 40.5q196 0 363 -163v484h-133v187h336v-1297h122v-197h-325v140q-33 -34 -63 -58.5t-70.5 -49.5t-88 -38.5t-99.5 -13.5zM249 509
q0 -85 38.5 -160.5t111 -122.5t161.5 -47q82 0 150 42t106 111.5t38 148.5q0 82 -39.5 154t-111.5 116t-160 44q-85 0 -153 -39.5t-104.5 -104.5t-36.5 -142z" />
    <glyph glyph-name="uni1E10" unicode="&#x1e10;" horiz-adv-x="1457" 
d="M149 -393l-141 141l226 226v63h200v-145zM493 1373q146 0 281 -28.5t250 -86.5t200.5 -139t134 -192t48.5 -240q0 -130 -48.5 -241.5t-134 -192.5t-200.5 -138.5t-250 -86t-281 -28.5h-393v197h123v994h-123v182h393zM493 197q112 0 217 21t195.5 62.5t158.5 99.5
t106.5 137t38.5 170q0 90 -39.5 170t-108.5 140t-159 104.5t-195 67t-214 22.5h-73v-994h73z" />
    <glyph glyph-name="uni1E11" unicode="&#x1e11;" horiz-adv-x="1307" 
d="M381 -413l-141 141l226 226v63h200v-145zM561 -20q-114 0 -211.5 44.5t-162 118.5t-101 169t-36.5 197q0 91 33.5 176.5t93 152.5t149 107.5t193.5 40.5q196 0 363 -163v484h-133v187h336v-1297h122v-197h-325v140q-33 -34 -63 -58.5t-70.5 -49.5t-88 -38.5t-99.5 -13.5z
M249 509q0 -85 38.5 -160.5t111 -122.5t161.5 -47q82 0 150 42t106 111.5t38 148.5q0 82 -39.5 154t-111.5 116t-160 44q-85 0 -153 -39.5t-104.5 -104.5t-36.5 -142z" />
    <glyph glyph-name="uni1E12" unicode="&#x1e12;" horiz-adv-x="1457" 
d="M558 -501l-157 125l223 279h142l223 -279l-157 -125l-137 173zM493 1373q146 0 281 -28.5t250 -86.5t200.5 -139t134 -192t48.5 -240q0 -130 -48.5 -241.5t-134 -192.5t-200.5 -138.5t-250 -86t-281 -28.5h-393v197h123v994h-123v182h393zM493 197q112 0 217 21
t195.5 62.5t158.5 99.5t106.5 137t38.5 170q0 90 -39.5 170t-108.5 140t-159 104.5t-195 67t-214 22.5h-73v-994h73z" />
    <glyph glyph-name="uni1E13" unicode="&#x1e13;" horiz-adv-x="1307" 
d="M429 -521l-157 125l223 279h142l223 -279l-157 -125l-137 173zM561 -20q-114 0 -211.5 44.5t-162 118.5t-101 169t-36.5 197q0 91 33.5 176.5t93 152.5t149 107.5t193.5 40.5q196 0 363 -163v484h-133v187h336v-1297h122v-197h-325v140q-33 -34 -63 -58.5t-70.5 -49.5
t-88 -38.5t-99.5 -13.5zM249 509q0 -85 38.5 -160.5t111 -122.5t161.5 -47q82 0 150 42t106 111.5t38 148.5q0 82 -39.5 154t-111.5 116t-160 44q-85 0 -153 -39.5t-104.5 -104.5t-36.5 -142z" />
    <glyph glyph-name="uni1E14" unicode="&#x1e14;" horiz-adv-x="1230" 
d="M767 1877l-156 -125l-231 289l156 125zM215 1490v200h800v-200h-800zM429 770h346v124h207v-443h-207v122h-346v-376h504v98h197v-295h-1030v197h123v998h-123v177h1030v-275h-197v98h-504v-425z" />
    <glyph glyph-name="uni1E15" unicode="&#x1e15;" horiz-adv-x="1259" 
d="M788 1485l-156 -125l-231 289l156 125zM236 1098v200h800v-200h-800zM1159 395h-854q31 -92 130 -154t222 -62q81 0 157 35t124 93l15 20l160 -122q-11 -14 -15 -20q-74 -97 -190.5 -151.5t-250.5 -54.5q-116 0 -220 41t-177.5 109.5t-116.5 162t-43 196.5q0 99 41 190.5
t111 159t170.5 108t214.5 40.5t211.5 -37.5t165.5 -102.5t106.5 -155t38.5 -193v-103zM309 595h639q-25 82 -111 136.5t-199 54.5q-112 0 -203.5 -55t-125.5 -136z" />
    <glyph glyph-name="uni1E16" unicode="&#x1e16;" horiz-adv-x="1230" 
d="M463 1877l231 289l156 -125l-231 -289zM215 1490v200h800v-200h-800zM429 770h346v124h207v-443h-207v122h-346v-376h504v98h197v-295h-1030v197h123v998h-123v177h1030v-275h-197v98h-504v-425z" />
    <glyph glyph-name="uni1E17" unicode="&#x1e17;" horiz-adv-x="1259" 
d="M484 1485l231 289l156 -125l-231 -289zM236 1098v200h800v-200h-800zM1159 395h-854q31 -92 130 -154t222 -62q81 0 157 35t124 93l15 20l160 -122q-11 -14 -15 -20q-74 -97 -190.5 -151.5t-250.5 -54.5q-116 0 -220 41t-177.5 109.5t-116.5 162t-43 196.5q0 99 41 190.5
t111 159t170.5 108t214.5 40.5t211.5 -37.5t165.5 -102.5t106.5 -155t38.5 -193v-103zM309 595h639q-25 82 -111 136.5t-199 54.5q-112 0 -203.5 -55t-125.5 -136z" />
    <glyph glyph-name="uni1E18" unicode="&#x1e18;" horiz-adv-x="1230" 
d="M478 -501l-157 125l223 279h142l223 -279l-157 -125l-137 173zM429 770h346v124h207v-443h-207v122h-346v-376h504v98h197v-295h-1030v197h123v998h-123v177h1030v-275h-197v98h-504v-425z" />
    <glyph glyph-name="uni1E19" unicode="&#x1e19;" horiz-adv-x="1259" 
d="M518 -522l-157 125l223 279h142l223 -279l-157 -125l-137 173zM1159 395h-854q31 -92 130 -154t222 -62q81 0 157 35t124 93l15 20l160 -122q-11 -14 -15 -20q-74 -97 -190.5 -151.5t-250.5 -54.5q-116 0 -220 41t-177.5 109.5t-116.5 162t-43 196.5q0 99 41 190.5
t111 159t170.5 108t214.5 40.5t211.5 -37.5t165.5 -102.5t106.5 -155t38.5 -193v-103zM309 595h639q-25 82 -111 136.5t-199 54.5q-112 0 -203.5 -55t-125.5 -136z" />
    <glyph glyph-name="uni1E1A" unicode="&#x1e1a;" horiz-adv-x="1230" 
d="M436 -114q52 0 97.5 -17t77.5 -41.5t61 -49t60 -41.5t62 -17q12 0 20 7.5t8 17.5q0 9 -7 16l-16 19l149 133l17 -18q57 -65 57 -150q0 -96 -65.5 -160.5t-163.5 -64.5q-64 0 -119 26t-87.5 57t-73 57t-77.5 26q-12 0 -20 -7.5t-8 -17.5q0 -9 7 -16l16 -19l-149 -133
l-17 18q-57 65 -57 150q0 96 65 160.5t163 64.5zM429 770h346v124h207v-443h-207v122h-346v-376h504v98h197v-295h-1030v197h123v998h-123v177h1030v-275h-197v98h-504v-425z" />
    <glyph glyph-name="uni1E1B" unicode="&#x1e1b;" horiz-adv-x="1259" 
d="M476 -135q52 0 97.5 -17t77.5 -41.5t61 -49t60 -41.5t62 -17q12 0 20 7.5t8 17.5q0 9 -7 16l-16 19l149 133l17 -18q57 -65 57 -150q0 -96 -65.5 -160.5t-163.5 -64.5q-64 0 -119 26t-87.5 57t-73 57t-77.5 26q-12 0 -20 -7.5t-8 -17.5q0 -9 7 -16l16 -19l-149 -133
l-17 18q-57 65 -57 150q0 96 65 160.5t163 64.5zM1159 395h-854q31 -92 130 -154t222 -62q81 0 157 35t124 93l15 20l160 -122q-11 -14 -15 -20q-74 -97 -190.5 -151.5t-250.5 -54.5q-116 0 -220 41t-177.5 109.5t-116.5 162t-43 196.5q0 99 41 190.5t111 159t170.5 108
t214.5 40.5t211.5 -37.5t165.5 -102.5t106.5 -155t38.5 -193v-103zM309 595h639q-25 82 -111 136.5t-199 54.5q-112 0 -203.5 -55t-125.5 -136z" />
    <glyph glyph-name="uni1E1C" unicode="&#x1e1c;" horiz-adv-x="1230" 
d="M1016 1675q-70 -83 -172 -134t-229 -51t-229.5 51t-171.5 134l-16 19l152 130l16 -19q100 -115 249 -115t249 115l16 19l152 -130zM430 -393l-141 141l226 226v63h200v-145zM429 770h346v124h207v-443h-207v122h-346v-376h504v98h197v-295h-1030v197h123v998h-123v177
h1030v-275h-197v98h-504v-425z" />
    <glyph glyph-name="uni1E1D" unicode="&#x1e1d;" horiz-adv-x="1259" 
d="M1037 1283q-70 -83 -172 -134t-229 -51t-229.5 51t-171.5 134l-16 19l152 130l16 -19q100 -115 249 -115t249 115l16 19l152 -130zM470 -414l-141 141l226 226v63h200v-145zM1159 395h-854q31 -92 130 -154t222 -62q81 0 157 35t124 93l15 20l160 -122q-11 -14 -15 -20
q-74 -97 -190.5 -151.5t-250.5 -54.5q-116 0 -220 41t-177.5 109.5t-116.5 162t-43 196.5q0 99 41 190.5t111 159t170.5 108t214.5 40.5t211.5 -37.5t165.5 -102.5t106.5 -155t38.5 -193v-103zM309 595h639q-25 82 -111 136.5t-199 54.5q-112 0 -203.5 -55t-125.5 -136z" />
    <glyph glyph-name="uni1E1E" unicode="&#x1e1e;" horiz-adv-x="1230" 
d="M467 1613q0 58 32.5 90.5t90.5 32.5t90.5 -32.5t32.5 -90.5t-32.5 -90.5t-90.5 -32.5t-90.5 32.5t-32.5 90.5zM429 197h149v-197h-478v197h123v993h-123v182h1030v-280h-197v98h-504v-419h346v123h207v-443h-207v123h-346v-377z" />
    <glyph glyph-name="uni1E1F" unicode="&#x1e1f;" horiz-adv-x="771" 
d="M512 1714q0 58 32.5 90.5t90.5 32.5t90.5 -32.5t32.5 -90.5t-32.5 -90.5t-90.5 -32.5t-90.5 32.5t-32.5 90.5zM721 1297h-98q-99 0 -150 -67.5t-51 -192.5v-64h195v-189h-195v-587h122v-197h-442v197h123v587h-125v189h125v64q0 206 106 331.5t292 125.5h98v-197z" />
    <glyph glyph-name="uni1E20" unicode="&#x1e20;" horiz-adv-x="1237" 
d="M416 1490v200h800v-200h-800zM840 1174q-125 0 -235 -40t-188 -109t-123 -165.5t-45 -206.5q0 -100 38.5 -187.5t106 -150.5t164 -99.5t209.5 -36.5q61 0 173 31v363h-325v197h522v-691l-12 -7q-152 -92 -354 -92q-162 0 -298 51.5t-228 141.5t-143.5 214.5t-51.5 269.5
q0 148 59 280t161.5 228t249.5 152t316 56q54 0 129 -14.5t106 -23.5t49 -15l17 -6v-275h-197v127q-48 8 -100 8z" />
    <glyph glyph-name="uni1E21" unicode="&#x1e21;" horiz-adv-x="1302" 
d="M166 1098v200h800v-200h-800zM295 -152q0 -115 68.5 -160t202.5 -45q169 0 242.5 47.5t73.5 181.5v268q-158 -160 -363 -160q-140 0 -248.5 66.5t-164.5 174t-56 236.5q0 105 35.5 200.5t99.5 169t161.5 116.5t214.5 43q172 0 321 -157v137h320v-182h-127v-912
q0 -426 -509 -426q-225 0 -346.5 98t-121.5 304v25h197v-25zM560 787q-140 0 -225.5 -97.5t-85.5 -232.5q0 -122 81.5 -204t212.5 -82q137 0 224 92t87 222q0 129 -80 215.5t-214 86.5z" />
    <glyph glyph-name="uni1E22" unicode="&#x1e22;" horiz-adv-x="1600" 
d="M652 1613q0 58 32.5 90.5t90.5 32.5t90.5 -32.5t32.5 -90.5t-32.5 -90.5t-90.5 -32.5t-90.5 32.5t-32.5 90.5zM1500 1373v-182h-123v-994h123v-197h-443v197h123v376h-760v-376h122v-197h-442v197h123v994h-123v182h442v-182h-122v-421h760v421h-123v182h443z" />
    <glyph glyph-name="uni1E23" unicode="&#x1e23;" 
d="M222 1714q0 58 32.5 90.5t90.5 32.5t90.5 -32.5t32.5 -90.5t-32.5 -90.5t-90.5 -32.5t-90.5 32.5t-32.5 90.5zM959 638q0 87 -34.5 122t-123.5 35q-114 0 -206.5 -36.5t-150.5 -90.5v-471h123v-197h-442v197h122v1110h-147v187h344v-624q40 40 81 65t112.5 42t168.5 17
q162 0 256 -87.5t94 -243.5v-466h123v-197h-442v197h122v441z" />
    <glyph glyph-name="uni1E24" unicode="&#x1e24;" horiz-adv-x="1600" 
d="M652 -220q0 58 32.5 90.5t90.5 32.5t90.5 -32.5t32.5 -90.5t-32.5 -90.5t-90.5 -32.5t-90.5 32.5t-32.5 90.5zM1500 1373v-182h-123v-994h123v-197h-443v197h123v376h-760v-376h122v-197h-442v197h123v994h-123v182h442v-182h-122v-421h760v421h-123v182h443z" />
    <glyph glyph-name="uni1E25" unicode="&#x1e25;" 
d="M554 -220q0 58 32.5 90.5t90.5 32.5t90.5 -32.5t32.5 -90.5t-32.5 -90.5t-90.5 -32.5t-90.5 32.5t-32.5 90.5zM959 638q0 87 -34.5 122t-123.5 35q-114 0 -206.5 -36.5t-150.5 -90.5v-471h123v-197h-442v197h122v1110h-147v187h344v-624q40 40 81 65t112.5 42t168.5 17
q162 0 256 -87.5t94 -243.5v-466h123v-197h-442v197h122v441z" />
    <glyph glyph-name="uni1E26" unicode="&#x1e26;" horiz-adv-x="1600" 
d="M814 1613q0 58 32.5 90.5t90.5 32.5t90.5 -32.5t32.5 -90.5t-32.5 -90.5t-90.5 -32.5t-90.5 32.5t-32.5 90.5zM539 1613q0 58 32.5 90.5t90.5 32.5t90.5 -32.5t32.5 -90.5t-32.5 -90.5t-90.5 -32.5t-90.5 32.5t-32.5 90.5zM1500 1373v-182h-123v-994h123v-197h-443v197
h123v376h-760v-376h122v-197h-442v197h123v994h-123v182h442v-182h-122v-421h760v421h-123v182h443z" />
    <glyph glyph-name="uni1E27" unicode="&#x1e27;" 
d="M704 1714q0 58 32.5 90.5t90.5 32.5t90.5 -32.5t32.5 -90.5t-32.5 -90.5t-90.5 -32.5t-90.5 32.5t-32.5 90.5zM429 1714q0 58 32.5 90.5t90.5 32.5t90.5 -32.5t32.5 -90.5t-32.5 -90.5t-90.5 -32.5t-90.5 32.5t-32.5 90.5zM959 638q0 87 -34.5 122t-123.5 35
q-114 0 -206.5 -36.5t-150.5 -90.5v-471h123v-197h-442v197h122v1110h-147v187h344v-624q40 40 81 65t112.5 42t168.5 17q162 0 256 -87.5t94 -243.5v-466h123v-197h-442v197h122v441z" />
    <glyph glyph-name="uni1E28" unicode="&#x1e28;" horiz-adv-x="1650" 
d="M162 -393l-141 141l226 226v63h200v-145zM1500 1373v-182h-123v-994h123v-197h-443v197h123v376h-760v-376h122v-197h-442v197h123v994h-123v182h442v-182h-122v-421h760v421h-123v182h443z" />
    <glyph glyph-name="uni1E29" unicode="&#x1e29;" horiz-adv-x="1429" 
d="M186 -393l-141 141l226 226v63h200v-145zM959 638q0 87 -34.5 122t-123.5 35q-114 0 -206.5 -36.5t-150.5 -90.5v-471h123v-197h-442v197h122v1110h-147v187h344v-624q40 40 81 65t112.5 42t168.5 17q162 0 256 -87.5t94 -243.5v-466h123v-197h-442v197h122v441z" />
    <glyph glyph-name="uni1E2A" unicode="&#x1e2a;" horiz-adv-x="1600" 
d="M1201 -236q-70 -83 -172 -134t-229 -51t-229.5 51t-171.5 134l-16 19l152 130l16 -19q100 -115 249 -115t249 115l16 19l152 -130zM1500 1373v-182h-123v-994h123v-197h-443v197h123v376h-760v-376h122v-197h-442v197h123v994h-123v182h442v-182h-122v-421h760v421h-123
v182h443z" />
    <glyph glyph-name="uni1E2B" unicode="&#x1e2b;" 
d="M1103 -236q-70 -83 -172 -134t-229 -51t-229.5 51t-171.5 134l-16 19l152 130l16 -19q100 -115 249 -115t249 115l16 19l152 -130zM959 638q0 87 -34.5 122t-123.5 35q-114 0 -206.5 -36.5t-150.5 -90.5v-471h123v-197h-442v197h122v1110h-147v187h344v-624q40 40 81 65
t112.5 42t168.5 17q162 0 256 -87.5t94 -243.5v-466h123v-197h-442v197h122v441z" />
    <glyph glyph-name="uni1E2C" unicode="&#x1e2c;" horiz-adv-x="642" 
d="M142 -114q52 0 97.5 -17t77.5 -41.5t61 -49t60 -41.5t62 -17q12 0 20 7.5t8 17.5q0 9 -7 16l-16 19l149 133l17 -18q57 -65 57 -150q0 -96 -65.5 -160.5t-163.5 -64.5q-64 0 -119 26t-87.5 57t-73 57t-77.5 26q-12 0 -20 -7.5t-8 -17.5q0 -9 7 -16l16 -19l-149 -133
l-17 18q-57 65 -57 150q0 96 65 160.5t163 64.5zM223 197v996h-123v180h442v-180h-122v-996h122v-197h-442v197h123z" />
    <glyph glyph-name="uni1E2D" unicode="&#x1e2d;" horiz-adv-x="666" 
d="M166 -114q52 0 97.5 -17t77.5 -41.5t61 -49t60 -41.5t62 -17q12 0 20 7.5t8 17.5q0 9 -7 16l-16 19l149 133l17 -18q57 -65 57 -150q0 -96 -65.5 -160.5t-163.5 -64.5q-64 0 -119 26t-87.5 57t-73 57t-77.5 26q-12 0 -20 -7.5t-8 -17.5q0 -9 7 -16l16 -19l-149 -133
l-17 18q-57 65 -57 150q0 96 65 160.5t163 64.5zM247 197v586h-147v190h344v-776h122v-197h-442v197h123zM321 1071q-58 0 -90.5 32.5t-32.5 90.5t32.5 90.5t90.5 32.5t90.5 -32.5t32.5 -90.5t-32.5 -90.5t-90.5 -32.5z" />
    <glyph glyph-name="uni1E2E" unicode="&#x1e2e;" horiz-adv-x="642" 
d="M169 1923l231 289l156 -125l-231 -289zM335 1613q0 58 32.5 90.5t90.5 32.5t90.5 -32.5t32.5 -90.5t-32.5 -90.5t-90.5 -32.5t-90.5 32.5t-32.5 90.5zM60 1613q0 58 32.5 90.5t90.5 32.5t90.5 -32.5t32.5 -90.5t-32.5 -90.5t-90.5 -32.5t-90.5 32.5t-32.5 90.5zM223 197
v996h-123v180h442v-180h-122v-996h122v-197h-442v197h123z" />
    <glyph glyph-name="uni1E2F" unicode="&#x1e2f;" horiz-adv-x="666" 
d="M168 1531l231 289l156 -125l-231 -289zM335 1221q0 58 32.5 90.5t90.5 32.5t90.5 -32.5t32.5 -90.5t-32.5 -90.5t-90.5 -32.5t-90.5 32.5t-32.5 90.5zM60 1221q0 58 32.5 90.5t90.5 32.5t90.5 -32.5t32.5 -90.5t-32.5 -90.5t-90.5 -32.5t-90.5 32.5t-32.5 90.5zM247 197
v586h-147v190h344v-776h122v-197h-442v197h123z" />
    <glyph glyph-name="uni1E30" unicode="&#x1e30;" horiz-adv-x="1453" 
d="M557 1605l231 289l156 -125l-231 -289zM420 710v-513h122v-197h-442v197h123v996h-123v180h442v-180h-122v-289l694 469h204v-180h-140l-475 -320l516 -676h134v-197h-238l-585 791z" />
    <glyph glyph-name="uni1E31" unicode="&#x1e31;" horiz-adv-x="1261" 
d="M194 1706l231 289l156 -125l-231 -289zM223 197v1110h-123v187h320v-803l486 277h200v-192h-140l-280 -148l341 -431h134v-197h-239l-420 559l-82 -53v-309h122v-197h-442v197h123z" />
    <glyph glyph-name="uni1E32" unicode="&#x1e32;" horiz-adv-x="1453" 
d="M579 -220q0 58 32.5 90.5t90.5 32.5t90.5 -32.5t32.5 -90.5t-32.5 -90.5t-90.5 -32.5t-90.5 32.5t-32.5 90.5zM420 710v-513h122v-197h-442v197h123v996h-123v180h442v-180h-122v-289l694 469h204v-180h-140l-475 -320l516 -676h134v-197h-238l-585 791z" />
    <glyph glyph-name="uni1E33" unicode="&#x1e33;" horiz-adv-x="1261" 
d="M483 -220q0 58 32.5 90.5t90.5 32.5t90.5 -32.5t32.5 -90.5t-32.5 -90.5t-90.5 -32.5t-90.5 32.5t-32.5 90.5zM223 197v1110h-123v187h320v-803l486 277h200v-192h-140l-280 -148l341 -431h134v-197h-239l-420 559l-82 -53v-309h122v-197h-442v197h123z" />
    <glyph glyph-name="uni1E34" unicode="&#x1e34;" horiz-adv-x="1453" 
d="M327 -297v200h800v-200h-800zM420 710v-513h122v-197h-442v197h123v996h-123v180h442v-180h-122v-289l694 469h204v-180h-140l-475 -320l516 -676h134v-197h-238l-585 791z" />
    <glyph glyph-name="uni1E35" unicode="&#x1e35;" horiz-adv-x="1261" 
d="M231 -297v200h800v-200h-800zM223 197v1110h-123v187h320v-803l486 277h200v-192h-140l-280 -148l341 -431h134v-197h-239l-420 559l-82 -53v-309h122v-197h-442v197h123z" />
    <glyph glyph-name="uni1E36" unicode="&#x1e36;" horiz-adv-x="1134" 
d="M419 -220q0 58 32.5 90.5t90.5 32.5t90.5 -32.5t32.5 -90.5t-32.5 -90.5t-90.5 -32.5t-90.5 32.5t-32.5 90.5zM420 197h417v98h197v-295h-934v197h123v996h-123v180h442v-180h-122v-996z" />
    <glyph glyph-name="uni1E37" unicode="&#x1e37;" horiz-adv-x="666" 
d="M197 -220q0 58 32.5 90.5t90.5 32.5t90.5 -32.5t32.5 -90.5t-32.5 -90.5t-90.5 -32.5t-90.5 32.5t-32.5 90.5zM247 197v1110h-147v187h344v-1297h122v-197h-442v197h123z" />
    <glyph glyph-name="uni1E38" unicode="&#x1e38;" horiz-adv-x="1134" 
d="M-54 1490v200h800v-200h-800zM419 -220q0 58 32.5 90.5t90.5 32.5t90.5 -32.5t32.5 -90.5t-32.5 -90.5t-90.5 -32.5t-90.5 32.5t-32.5 90.5zM420 197h417v98h197v-295h-934v197h123v996h-123v180h442v-180h-122v-996z" />
    <glyph glyph-name="uni1E39" unicode="&#x1e39;" horiz-adv-x="666" 
d="M-128 1591v200h800v-200h-800zM197 -220q0 58 32.5 90.5t90.5 32.5t90.5 -32.5t32.5 -90.5t-32.5 -90.5t-90.5 -32.5t-90.5 32.5t-32.5 90.5zM247 197v1110h-147v187h344v-1297h122v-197h-442v197h123z" />
    <glyph glyph-name="uni1E3A" unicode="&#x1e3a;" horiz-adv-x="1134" 
d="M167 -297v200h800v-200h-800zM420 197h417v98h197v-295h-934v197h123v996h-123v180h442v-180h-122v-996z" />
    <glyph glyph-name="uni1E3B" unicode="&#x1e3b;" horiz-adv-x="666" 
d="M-55 -297v200h800v-200h-800zM247 197v1110h-147v187h344v-1297h122v-197h-442v197h123z" />
    <glyph glyph-name="uni1E3C" unicode="&#x1e3c;" horiz-adv-x="1134" 
d="M430 -501l-157 125l223 279h142l223 -279l-157 -125l-137 173zM420 197h417v98h197v-295h-934v197h123v996h-123v180h442v-180h-122v-996z" />
    <glyph glyph-name="uni1E3D" unicode="&#x1e3d;" horiz-adv-x="666" 
d="M208 -501l-157 125l223 279h142l223 -279l-157 -125l-137 173zM247 197v1110h-147v187h344v-1297h122v-197h-442v197h123z" />
    <glyph glyph-name="uni1E3E" unicode="&#x1e3e;" horiz-adv-x="2127" 
d="M903 1605l231 289l156 -125l-231 -289zM100 197h131l178 979h-113v197h187l133 15l449 -931l449 932l133 -16h185v-197h-112l177 -979h130v-197h-443v197h113l-146 832l-401 -837h-169l-403 839l-147 -834h112v-197h-443v197z" />
    <glyph glyph-name="uni1E3F" unicode="&#x1e3f;" horiz-adv-x="2059" 
d="M974 1213l231 289l156 -125l-231 -289zM959 638q0 87 -34.5 122t-123.5 35q-114 0 -206.5 -36.5t-150.5 -90.5v-471h123v-197h-442v197h122v589h-147v187h344v-103q40 40 81 65t112.5 42t168.5 17q204 0 297 -164q25 35 44 56t50 44.5t67.5 35.5t91.5 20t127 8
q177 0 264.5 -85.5t87.5 -245.5v-466h124v-197h-443v197h122v441q0 88 -34.5 122.5t-125.5 34.5q-191 0 -324 -100q2 -21 2 -41v-457h123v-197h-442v197h122v441z" />
    <glyph glyph-name="uni1E40" unicode="&#x1e40;" horiz-adv-x="2127" 
d="M907 1613q0 58 32.5 90.5t90.5 32.5t90.5 -32.5t32.5 -90.5t-32.5 -90.5t-90.5 -32.5t-90.5 32.5t-32.5 90.5zM100 197h131l178 979h-113v197h187l133 15l449 -931l449 932l133 -16h185v-197h-112l177 -979h130v-197h-443v197h113l-146 832l-401 -837h-169l-403 839
l-147 -834h112v-197h-443v197z" />
    <glyph glyph-name="uni1E41" unicode="&#x1e41;" horiz-adv-x="2059" 
d="M978 1221q0 58 32.5 90.5t90.5 32.5t90.5 -32.5t32.5 -90.5t-32.5 -90.5t-90.5 -32.5t-90.5 32.5t-32.5 90.5zM959 638q0 87 -34.5 122t-123.5 35q-114 0 -206.5 -36.5t-150.5 -90.5v-471h123v-197h-442v197h122v589h-147v187h344v-103q40 40 81 65t112.5 42t168.5 17
q204 0 297 -164q25 35 44 56t50 44.5t67.5 35.5t91.5 20t127 8q177 0 264.5 -85.5t87.5 -245.5v-466h124v-197h-443v197h122v441q0 88 -34.5 122.5t-125.5 34.5q-191 0 -324 -100q2 -21 2 -41v-457h123v-197h-442v197h122v441z" />
    <glyph glyph-name="uni1E42" unicode="&#x1e42;" horiz-adv-x="2127" 
d="M915 -220q0 58 32.5 90.5t90.5 32.5t90.5 -32.5t32.5 -90.5t-32.5 -90.5t-90.5 -32.5t-90.5 32.5t-32.5 90.5zM100 197h131l178 979h-113v197h187l133 15l449 -931l449 932l133 -16h185v-197h-112l177 -979h130v-197h-443v197h113l-146 832l-401 -837h-169l-403 839
l-147 -834h112v-197h-443v197z" />
    <glyph glyph-name="uni1E43" unicode="&#x1e43;" horiz-adv-x="2059" 
d="M894 -220q0 58 32.5 90.5t90.5 32.5t90.5 -32.5t32.5 -90.5t-32.5 -90.5t-90.5 -32.5t-90.5 32.5t-32.5 90.5zM959 638q0 87 -34.5 122t-123.5 35q-114 0 -206.5 -36.5t-150.5 -90.5v-471h123v-197h-442v197h122v589h-147v187h344v-103q40 40 81 65t112.5 42t168.5 17
q204 0 297 -164q25 35 44 56t50 44.5t67.5 35.5t91.5 20t127 8q177 0 264.5 -85.5t87.5 -245.5v-466h124v-197h-443v197h122v441q0 88 -34.5 122.5t-125.5 34.5q-191 0 -324 -100q2 -21 2 -41v-457h123v-197h-442v197h122v441z" />
    <glyph glyph-name="uni1E44" unicode="&#x1e44;" horiz-adv-x="1526" 
d="M615 1613q0 58 32.5 90.5t90.5 32.5t90.5 -32.5t32.5 -90.5t-32.5 -90.5t-90.5 -32.5t-90.5 32.5t-32.5 90.5zM1426 1191h-122v-1191h-198v46l-686 997v-846h147v-197h-467v197h123v994h-123v182h320v-46l686 -998v862h-122v182h442v-182z" />
    <glyph glyph-name="uni1E45" unicode="&#x1e45;" 
d="M541 1221q0 58 32.5 90.5t90.5 32.5t90.5 -32.5t32.5 -90.5t-32.5 -90.5t-90.5 -32.5t-90.5 32.5t-32.5 90.5zM959 638q0 87 -34.5 122t-123.5 35q-114 0 -206.5 -36.5t-150.5 -90.5v-471h123v-197h-442v197h122v589h-147v187h344v-103q40 40 81 65t112.5 42t168.5 17
q176 0 263 -85.5t87 -245.5v-466h123v-197h-442v197h122v441z" />
    <glyph glyph-name="uni1E46" unicode="&#x1e46;" horiz-adv-x="1526" 
d="M554 -220q0 58 32.5 90.5t90.5 32.5t90.5 -32.5t32.5 -90.5t-32.5 -90.5t-90.5 -32.5t-90.5 32.5t-32.5 90.5zM1426 1191h-122v-1191h-198v46l-686 997v-846h147v-197h-467v197h123v994h-123v182h320v-46l686 -998v862h-122v182h442v-182z" />
    <glyph glyph-name="uni1E47" unicode="&#x1e47;" 
d="M554 -220q0 58 32.5 90.5t90.5 32.5t90.5 -32.5t32.5 -90.5t-32.5 -90.5t-90.5 -32.5t-90.5 32.5t-32.5 90.5zM959 638q0 87 -34.5 122t-123.5 35q-114 0 -206.5 -36.5t-150.5 -90.5v-471h123v-197h-442v197h122v589h-147v187h344v-103q40 40 81 65t112.5 42t168.5 17
q176 0 263 -85.5t87 -245.5v-466h123v-197h-442v197h122v441z" />
    <glyph glyph-name="uni1E48" unicode="&#x1e48;" horiz-adv-x="1526" 
d="M302 -297v200h800v-200h-800zM1426 1191h-122v-1191h-198v46l-686 997v-846h147v-197h-467v197h123v994h-123v182h320v-46l686 -998v862h-122v182h442v-182z" />
    <glyph glyph-name="uni1E49" unicode="&#x1e49;" 
d="M302 -297v200h800v-200h-800zM959 638q0 87 -34.5 122t-123.5 35q-114 0 -206.5 -36.5t-150.5 -90.5v-471h123v-197h-442v197h122v589h-147v187h344v-103q40 40 81 65t112.5 42t168.5 17q176 0 263 -85.5t87 -245.5v-466h123v-197h-442v197h122v441z" />
    <glyph glyph-name="uni1E4A" unicode="&#x1e4a;" horiz-adv-x="1526" 
d="M565 -501l-157 125l223 279h142l223 -279l-157 -125l-137 173zM1426 1191h-122v-1191h-198v46l-686 997v-846h147v-197h-467v197h123v994h-123v182h320v-46l686 -998v862h-122v182h442v-182z" />
    <glyph glyph-name="uni1E4B" unicode="&#x1e4b;" 
d="M565 -501l-157 125l223 279h142l223 -279l-157 -125l-137 173zM959 638q0 87 -34.5 122t-123.5 35q-114 0 -206.5 -36.5t-150.5 -90.5v-471h123v-197h-442v197h122v589h-147v187h344v-103q40 40 81 65t112.5 42t168.5 17q176 0 263 -85.5t87 -245.5v-466h123v-197h-442
v197h122v441z" />
    <glyph glyph-name="uni1E4C" unicode="&#x1e4c;" horiz-adv-x="1503" 
d="M605 2077l231 289l156 -125l-231 -289zM572 1873q52 0 97.5 -17t77.5 -41.5t61 -49t60 -41.5t62 -17q12 0 20 7.5t8 17.5q0 9 -7 16l-16 19l149 133l17 -18q57 -65 57 -150q0 -96 -65.5 -160.5t-163.5 -64.5q-64 0 -119 26t-87.5 57t-73 57t-77.5 26q-12 0 -20 -7.5
t-8 -17.5q0 -9 7 -16l16 -19l-149 -133l-17 18q-57 65 -57 150q0 96 65 160.5t163 64.5zM751 178q112 0 207.5 40.5t160 110.5t101 164.5t36.5 200.5q0 104 -36.5 196.5t-101.5 160t-160 106.5t-207 39t-207 -39t-159.5 -106.5t-101 -159.5t-36.5 -197q0 -107 36.5 -201
t101 -164t159.5 -110.5t207 -40.5zM751 1393q159 0 292 -54.5t222 -148.5t138.5 -222t49.5 -274q0 -117 -31 -224.5t-92 -196t-145 -154.5t-195.5 -102.5t-238.5 -36.5t-238.5 36.5t-195.5 102.5t-144.5 155t-91.5 196t-31 224q0 145 49.5 273t138.5 222.5t222 149t291 54.5
z" />
    <glyph glyph-name="uni1E4D" unicode="&#x1e4d;" horiz-adv-x="1132" 
d="M438 1685l231 289l156 -125l-231 -289zM387 1481q52 0 97.5 -17t77.5 -41.5t61 -49t60 -41.5t62 -17q12 0 20 7.5t8 17.5q0 9 -7 16l-16 19l149 133l17 -18q57 -65 57 -150q0 -96 -65.5 -160.5t-163.5 -64.5q-64 0 -119 26t-87.5 57t-73 57t-77.5 26q-12 0 -20 -7.5
t-8 -17.5q0 -9 7 -16l16 -19l-149 -133l-17 18q-57 65 -57 150q0 96 65 160.5t163 64.5zM566 -21q-156 0 -275 70t-180 185t-61 256t61 256.5t180 185t275 69.5t275 -70t180 -185t61 -256t-61 -256.5t-180 -185t-275 -69.5zM566 177q88 0 162 44t115.5 116t41.5 153t-41 153
t-115 116.5t-163 44.5q-88 0 -162 -44.5t-115.5 -116.5t-41.5 -153t41 -153t115 -116t163 -44z" />
    <glyph glyph-name="uni1E4E" unicode="&#x1e4e;" horiz-adv-x="1503" 
d="M746 2085q0 58 32.5 90.5t90.5 32.5t90.5 -32.5t32.5 -90.5t-32.5 -90.5t-90.5 -32.5t-90.5 32.5t-32.5 90.5zM471 2085q0 58 32.5 90.5t90.5 32.5t90.5 -32.5t32.5 -90.5t-32.5 -90.5t-90.5 -32.5t-90.5 32.5t-32.5 90.5zM572 1873q52 0 97.5 -17t77.5 -41.5t61 -49
t60 -41.5t62 -17q12 0 20 7.5t8 17.5q0 9 -7 16l-16 19l149 133l17 -18q57 -65 57 -150q0 -96 -65.5 -160.5t-163.5 -64.5q-64 0 -119 26t-87.5 57t-73 57t-77.5 26q-12 0 -20 -7.5t-8 -17.5q0 -9 7 -16l16 -19l-149 -133l-17 18q-57 65 -57 150q0 96 65 160.5t163 64.5z
M751 178q112 0 207.5 40.5t160 110.5t101 164.5t36.5 200.5q0 104 -36.5 196.5t-101.5 160t-160 106.5t-207 39t-207 -39t-159.5 -106.5t-101 -159.5t-36.5 -197q0 -107 36.5 -201t101 -164t159.5 -110.5t207 -40.5zM751 1393q159 0 292 -54.5t222 -148.5t138.5 -222
t49.5 -274q0 -117 -31 -224.5t-92 -196t-145 -154.5t-195.5 -102.5t-238.5 -36.5t-238.5 36.5t-195.5 102.5t-144.5 155t-91.5 196t-31 224q0 145 49.5 273t138.5 222.5t222 149t291 54.5z" />
    </font>
</defs>
</svg>
