<?xml version="1.0" standalone="no"?>
<!DOCTYPE svg PUBLIC "-//W3C//DTD SVG 1.1//EN" "http://www.w3.org/Graphics/SVG/1.1/DTD/svg11.dtd" >
<svg xmlns="http://www.w3.org/2000/svg" xmlns:xlink="http://www.w3.org/1999/xlink" version="1.1">
<metadata>
Created by FontForge 20161116 at Fri Nov 27 10:08:13 1992
 By Jimmy Wärting
Copyright (c) 1992 Image Club Graphics, Inc.
</metadata>
<defs>
<font id="CenturyCondBold" horiz-adv-x="847" >
  <font-face 
    font-family="Century Condensed"
    font-weight="7"
    font-stretch="normal"
    units-per-em="1957"
    panose-1="0 0 0 0 0 0 0 0 0 0"
    ascent="1565"
    descent="-392"
    x-height="1076"
    cap-height="1555"
    bbox="-71 -568 2056 2149"
    underline-thickness="20"
    underline-position="-148"
    unicode-range="U+0020-25CA"
  />
<missing-glyph horiz-adv-x="1555" 
d="M97 0v1555h1361v-1555h-1361zM1361 97v1361h-1167v-1361h1167z" />
    <glyph glyph-name=".notdef" horiz-adv-x="1555" 
d="M97 0v1555h1361v-1555h-1361zM1361 97v1361h-1167v-1361h1167z" />
    <glyph glyph-name=".null" unicode="&#xd7;" horiz-adv-x="0" 
 />
    <glyph glyph-name=".null" unicode="&#x141;" horiz-adv-x="0" 
 />
    <glyph glyph-name=".null" unicode="&#xfd;" horiz-adv-x="0" 
 />
    <glyph glyph-name="nonmarkingreturn" horiz-adv-x="420" 
 />
    <glyph glyph-name="space" unicode=" " horiz-adv-x="420" 
 />
    <glyph glyph-name="exclam" unicode="!" horiz-adv-x="476" 
d="M408 1377q0 -89 -7 -163q-3 -34 -17 -134l-79 -577h-99l-92 577q-14 94 -19 139q-8 74 -8 155q0 83 40 143q45 67 119 67q83 0 126 -65q36 -55 36 -142zM246 -8q-74 0 -117 56q-39 51 -39 126q0 76 39 129q43 59 117 59t116 -55q37 -49 37 -123q0 -77 -39 -132
q-43 -60 -114 -60z" />
    <glyph glyph-name="quotedbl" unicode="&#x22;" horiz-adv-x="728" 
d="M650 1293l-48 -287l-16 -114q-15 -60 -57 -60q-40 0 -58 58q-8 26 -19 113l-38 298q-4 27 -7.5 59.5t-3.5 58.5q0 75 25 116q33 53 108 53q71 0 102 -51q25 -41 25 -118q0 -30 -3 -54.5t-10 -71.5zM333 1293l-49 -287q-8 -57 -16 -113q-15 -61 -57 -61q-39 0 -57 58
q-8 27 -19 113l-39 298q-3 22 -6.5 63.5t-3.5 54.5q0 75 25 116q32 53 107 53q71 0 102 -51q26 -42 26 -119q0 -29 -3 -53.5t-10 -71.5z" />
    <glyph glyph-name="numbersign" unicode="#" horiz-adv-x="1159" 
d="M1061 1074l-18 -170h-207l-32 -241h210l-22 -174h-209l-37 -311h-122l37 311h-246l-37 -311h-120l38 311h-212l22 174h207l31 241h-209l20 170h209l39 317h123l-41 -317h247l39 317h121l-41 -317h210zM712 904h-248l-30 -241h249z" />
    <glyph glyph-name="dollar" unicode="$" horiz-adv-x="982" 
d="M917 546q0 -168 -80 -290q-84 -128 -238 -175l-39 -12v-155h-104v145l-39 4q-142 16 -235 111q-96 98 -96 236q0 77 39 127.5t105 50.5q54 0 92.5 -39.5t38.5 -97.5v-11q-2 -8 -2 -12q-12 -82 -52 -110q-24 -17 -67 -17h-11q-17 0 -17 -7q0 -37 75 -83t145 -46h26v491
l-29 15q-98 51 -147 89q-69 53 -103 115q-39 71 -39 166q0 159 71 273q76 121 218 165l24 8v183h99v-173l33 -3q118 -10 199 -83q86 -78 86 -188q0 -69 -38 -118t-98 -49q-56 0 -87.5 45t-31.5 113q0 77 52 109q26 11 52 23q-4 15 -53 36q-55 24 -97 24l-17 -2v-415l32 -15
q71 -34 103 -54q46 -28 90 -72q73 -73 104 -136q36 -73 36 -166zM455 1043v351q-58 -28 -84 -69.5t-26 -112.5q0 -64 28 -105q25 -36 82 -64zM684 402q0 74 -31 120.5t-95 79.5v-419q63 33 94.5 88.5t31.5 130.5z" />
    <glyph glyph-name="percent" unicode="%" horiz-adv-x="1399" 
d="M702 1206q0 -152 -86 -269q-91 -124 -223 -124q-130 0 -222.5 121t-92.5 272q0 140 93 248.5t219 108.5q134 0 225 -109q87 -105 87 -248zM1258 1555l-995 -1555h-101l996 1555h100zM1335 375q0 -152 -86 -269q-91 -124 -223 -124q-130 0 -222.5 121t-92.5 272
q0 140 93 248.5t219 108.5q134 0 225 -109q87 -105 87 -248zM492 1203q0 127 -15 192q-24 102 -84 102q-51 0 -78 -102q-21 -80 -21 -192q0 -125 19 -209q25 -112 80 -112q58 0 82 111q17 79 17 210zM1125 372q0 127 -15 192q-24 102 -84 102q-51 0 -78 -102
q-21 -80 -21 -192q0 -125 19 -209q25 -112 80 -112q58 0 82 111q17 79 17 210z" />
    <glyph glyph-name="ampersand" unicode="&#x26;" horiz-adv-x="1558" 
d="M1491 407q0 -120 -11 -180q-17 -92 -64 -146q-55 -63 -162 -87q-17 -4 -40 -4q-59 0 -125 31.5t-126 91.5l-15 15l-24 -23q-60 -55 -144 -86q-77 -28 -182 -39q-11 -2 -24.5 -2h-20.5q-185 0 -327 129q-147 133 -147 316q0 135 82 237q71 88 211 158l33 16l-14 29
q-40 86 -57 146q-22 79 -22 169q0 168 119.5 289.5t288.5 121.5q150 0 247 -91q93 -87 93 -211q0 -95 -44 -166q-36 -58 -112 -112q-36 -26 -153 -95l-37 -23q48 -73 84 -124t88 -120q44 -58 86 -109.5t90 -108.5l16 32q21 41 34 91t13 81q0 94 -71 134q-48 27 -121 27h-21
v84h556v-87h-18q-42 0 -68 -5.5t-58 -24.5q-39 -23 -73 -124q-18 -53 -35 -106q-25 -70 -29 -80q-16 -37 -40 -77l-12 -20l18 -24q38 -50 85 -87.5t74 -33.5q54 9 75 79q14 48 14 138v30h90v-49zM853 1305q0 78 -36 136q-41 65 -108 65q-76 0 -116 -63q-35 -55 -35 -136
q0 -65 24 -148.5t70 -162.5l15 -25l29 19q77 53 120 150q37 83 37 165zM877 195q-61 66 -106.5 118.5t-101.5 124.5q-70 89 -111.5 148.5t-101.5 154.5l-17 -24q-26 -39 -37 -91.5t-11 -121.5q0 -152 84 -265q91 -122 233 -122q49 0 92.5 17t63.5 43z" />
    <glyph glyph-name="quotesingle" unicode="'" horiz-adv-x="409" 
d="M333 1293l-44 -287q-17 -110 -18 -114q-17 -60 -60 -60q-39 0 -57 58q-8 27 -19 113l-39 298q-3 22 -6.5 63.5t-3.5 54.5q0 75 25 116q32 53 107 53q71 0 102 -51q26 -42 26 -119q0 -29 -3 -53.5t-10 -71.5z" />
    <glyph glyph-name="parenleft" unicode="(" horiz-adv-x="813" 
d="M741 -237l-24 3q-264 33 -446 306q-193 290 -193 711q0 396 182 672q173 262 425 300l50 8v-98l-35 -12q-170 -59 -271 -299t-101 -566q0 -349 99 -591q104 -254 288 -319l26 -9v-106z" />
    <glyph glyph-name="parenright" unicode=")" horiz-adv-x="813" 
d="M743 773q0 -420 -193 -710q-183 -274 -446 -307l-24 -3v106l25 9q185 65 288 318q99 242 99 592q0 327 -99 563q-102 242 -273 302l-34 12v98l49 -8q251 -37 425 -300q183 -277 183 -672z" />
    <glyph glyph-name="asterisk" unicode="*" horiz-adv-x="901" 
d="M826 1047l-95 -162l-219 197l45 -336h-195l45 345l-214 -206l-99 152l262 112l-265 104l97 162l212 -183l-32 319l192 3l-39 -310l210 178l95 -142l-275 -122z" />
    <glyph glyph-name="plus" unicode="+" horiz-adv-x="1002" 
d="M942 436h-352v-440h-163v440h-348v199h352v437h161v-438h350v-198z" />
    <glyph glyph-name="comma" unicode="," horiz-adv-x="480" 
d="M420 121q0 -143 -60.5 -277.5t-180.5 -268.5l-24 -27l-74 58l17 21l58 74q50 65 80 127q24 49 36.5 84t24.5 86q-11 -6 -22.5 -11.5t-38.5 -5.5q-77 0 -121 57q-40 52 -40 128q0 80 42 137q46 63 122 63q93 0 141 -78q40 -66 40 -167z" />
    <glyph glyph-name="hyphen" unicode="-" horiz-adv-x="539" 
d="M492 592h-421v204h421v-204z" />
    <glyph glyph-name="period" unicode="." horiz-adv-x="473" 
d="M244 -24q-78 0 -123 57q-41 52 -41 128q0 78 41 132q46 60 123 60q78 0 124 -59q42 -54 42 -130t-41 -129q-46 -59 -125 -59z" />
    <glyph glyph-name="slash" unicode="/" horiz-adv-x="1173" 
d="M1117 1719l-897 -1890h-141l903 1890h135z" />
    <glyph glyph-name="zero" unicode="0" horiz-adv-x="1144" 
d="M1072 788q0 -197 -54 -376q-59 -197 -165 -309q-120 -128 -283 -128q-169 0 -285 126q-102 111 -153 302q-45 169 -45 367q0 193 53 368q58 192 162 304q117 126 273 126q172 0 291 -122q104 -107 158 -296q48 -168 48 -362zM750 783q0 184 -9 305q-13 178 -47 274
q-42 119 -117 119q-67 0 -110 -122q-35 -100 -52 -281q-13 -139 -13 -313q0 -198 7 -305q12 -177 45 -275q41 -120 116 -120q77 0 121 122q35 98 49 282q10 131 10 314z" />
    <glyph glyph-name="one" unicode="1" horiz-adv-x="948" 
d="M891 0h-805l1 87h11q64 0 102.5 7t81.5 34q37 22 51 62q11 31 11 85v922q0 40 -9.5 66.5t-35.5 50.5q-15 14 -64.5 20t-88.5 6h-23v88h23q70 0 118.5 9.5t121.5 35.5q45 17 83 36t79 47h87v-1299q0 -45 15.5 -77t50.5 -54q43 -26 86 -34q28 -5 92 -5h12v-87z" />
    <glyph glyph-name="two" unicode="2" horiz-adv-x="1043" 
d="M981 593l-25 -593h-870v115q0 30 62.5 151.5t127.5 211.5q19 26 178 220q100 122 142 208q58 119 58 254q0 124 -39 196q-51 94 -164 94q-84 0 -157 -66q-65 -59 -83 -129q8 1 17 2q29 12 52 12q10 0 16 -1q59 -10 89 -65q26 -48 26 -118q0 -65 -42.5 -113.5
t-104.5 -48.5q-73 0 -116 65q-39 60 -39 150q0 177 125.5 303.5t301.5 126.5q202 0 323 -122q115 -116 115 -298q0 -157 -92 -279q-63 -84 -194 -172q-156 -105 -174 -122q-60 -53 -119 -106q-74 -71 -119 -149l-17 -30h277q20 0 40.5 -0.5t40.5 -0.5q69 0 107 10
q53 14 97 54q33 29 53 86q17 48 27 119l5 35h75z" />
    <glyph glyph-name="three" unicode="3" horiz-adv-x="1090" 
d="M1013 453q0 -203 -155 -343q-149 -135 -350 -135q-179 0 -292 90q-128 102 -128 290q0 92 49.5 160t130.5 68q65 0 104 -59q36 -54 36 -129q0 -67 -31 -113q-35 -51 -96 -57q-18 0 -65 23h-15q-5 -51 69.5 -112t150.5 -61q136 0 199 80t63 255q0 144 -44 235
q-51 104 -153 125q-21 -7 -50 -14t-49 -7q-55 0 -82 14t-27 37q0 29 25.5 43t63.5 14q14 0 30.5 -2t40 -10t33.5 -5q100 29 150 118q45 79 45 195q0 121 -49 207q-57 100 -159 100q-74 0 -138 -47.5t-72 -104.5q5 0 11 1q36 10 52 10q8 0 12 -1q53 -8 81 -53t28 -104v-16
q-1 -7 -1 -10q-10 -82 -43.5 -118.5t-96.5 -36.5q-91 0 -131 75q-29 55 -29 143q0 158 127 267q123 105 290 105q173 0 299 -107q131 -111 131 -275q0 -125 -57 -214q-60 -93 -173 -134l-62 -22l64 -16q132 -32 200 -128q63 -89 63 -221z" />
    <glyph glyph-name="four" unicode="4" horiz-adv-x="1122" 
d="M1064 393h-219v-175q0 -35 12.5 -61t36.5 -39t49 -17.5t58 -4.5h17v-96h-687v98l22 1q43 0 75 7.5t61 25.5t40.5 45.5t11.5 65.5v153h-470v155l615 1005h158v-1031h220v-132zM541 525v596l-371 -596h371z" />
    <glyph glyph-name="five" unicode="5" horiz-adv-x="1038" 
d="M970 525q0 -223 -147 -386.5t-339 -163.5q-175 0 -283 89q-122 100 -122 291q0 91 47 152t125 61q64 0 101 -55q32 -48 32 -118q0 -64 -34.5 -112.5t-93.5 -57.5q-7 -1 -20.5 2.5t-28.5 7.5q-8 0 -8 -7q-5 -49 64.5 -103.5t140.5 -54.5q123 0 186 132q56 117 56 308
q0 221 -56 312q-47 76 -136 76q-51 5 -125 -35t-95 -90q-10 -25 -18 -101q-4 -43 -36 -43q-8 0 -21.5 2t-23 15.5t-9.5 36.5q0 14 10 70q5 28 5 44l56 763q94 -29 185.5 -40.5t211.5 -11.5q95 0 161 13q38 7 139 39l5 -40q1 -5 1 -11v-12q0 -54 -22 -111q-25 -65 -67 -96
q-59 -44 -125 -63t-145 -19q-53 0 -109.5 8t-135.5 24l-35 8l-25 -348l40 30q53 40 105 55t125 15q193 0 328.5 -140.5t135.5 -334.5z" />
    <glyph glyph-name="six" unicode="6" horiz-adv-x="1092" 
d="M1029 535q0 -217 -116 -372q-126 -168 -331 -168q-169 0 -287 114q-105 101 -161 279q-50 159 -50 345q0 206 66 395q71 203 194 321q136 131 313 131q133 0 216 -83q79 -79 79 -199q0 -77 -35 -126q-38 -54 -108 -54q-60 0 -104 45t-44 108q1 9 1 14q0 126 101 156
q24 7 36 4q-7 -1 -19 12q-32 35 -118 43q-6 1 -18 1q-89 0 -146 -97q-45 -78 -68 -220q-18 -113 -18 -231l2 -65q53 60 103 89q58 33 130 33q175 0 283 -149q99 -136 99 -326zM708 529v35q0 127 -19 205q-32 131 -114 131q-71 0 -109 -77q-46 -93 -46 -307q0 -124 7 -194
q11 -113 39 -173q34 -75 95 -75q64 0 100 85q29 68 40 187q7 76 7 183z" />
    <glyph glyph-name="seven" unicode="7" horiz-adv-x="1065" 
d="M996 1373l-23 -40q-40 -71 -78.5 -140.5t-67.5 -131.5q-34 -75 -61 -151q-47 -134 -74 -269q-23 -119 -31 -239t-8 -277q0 -76 -45.5 -130.5t-111.5 -54.5q-86 0 -132 64.5t-46 178.5q0 194 87 397q63 147 194 338q98 141 197 283l42 67h-130q-113 0 -180 -3t-130 -15.5
t-102 -39.5q-58 -40 -95 -133q-33 -83 -33 -157h-87l40 635h875v-182z" />
    <glyph glyph-name="eight" unicode="8" horiz-adv-x="1068" 
d="M1009 498q0 -207 -133 -352q-138 -151 -348 -151q-201 0 -325 115t-124 294q0 87 37 153q43 78 176 168l29 19l-39 29q-91 66 -129.5 155.5t-38.5 210.5q0 184 128.5 314.5t315.5 130.5q166 0 278 -107t112 -263q0 -109 -51 -184q-42 -62 -132 -114l-35 -20l26 -15
q124 -73 184 -158q69 -97 69 -225zM754 1220q0 114 -42 186q-53 91 -162 91q-88 0 -146.5 -62t-58.5 -147q0 -13 1 -19q8 -85 42 -142q30 -51 86 -90q35 -25 121 -68l36 -18l27 24q47 43 71.5 108t24.5 137zM750 345q0 94 -41 158q-35 54 -107 98q-32 20 -149 76l-35 16
l-29 -27q-52 -48 -81 -118.5t-29 -149.5q0 -121 62 -213q68 -102 176 -102q100 0 166.5 77.5t66.5 184.5z" />
    <glyph glyph-name="nine" unicode="9" horiz-adv-x="1086" 
d="M1018 841q0 -215 -55 -396q-62 -204 -182 -320q-137 -132 -335 -132q-144 0 -240 82t-96 201q0 81 51.5 130.5t131.5 49.5q57 0 93 -55q32 -49 32 -112q0 -69 -34 -106q-41 -27 -81 -54q-4 -20 45 -40q38 -15 93 -15q100 0 161 96q49 77 72 218q17 105 17 233l-3 64
q-51 -58 -97 -85q-55 -32 -122 -32q-175 0 -283 147q-99 135 -99 324q0 214 114 370q124 170 320 170q168 0 286 -114q105 -102 161 -279q50 -160 50 -345zM687 1058q0 120 -8 194q-12 109 -42 173q-35 75 -96 75q-56 0 -87 -67q-25 -54 -33.5 -140.5t-8.5 -185.5v-62
q0 -16 -0.5 -31t-0.5 -29q0 -124 19 -196q30 -115 107 -115q64 0 100 62q30 52 42 148q8 65 8 174z" />
    <glyph glyph-name="colon" unicode=":" horiz-adv-x="467" 
d="M237 649q-78 0 -123 57q-41 52 -41 128q0 77 41 131q46 60 123 60q78 0 124 -58q42 -53 42 -130q0 -76 -41 -129q-46 -59 -125 -59zM237 -27q-78 0 -123 57q-41 52 -41 128q0 78 41 132q46 60 123 60q78 0 124 -59q42 -54 42 -130t-41 -129q-46 -59 -125 -59z" />
    <glyph glyph-name="semicolon" unicode=";" horiz-adv-x="487" 
d="M244 659q-78 0 -123 57q-41 52 -41 128q0 77 41 131q46 60 123 60q78 0 124 -58q42 -53 42 -130q0 -76 -41 -129q-46 -59 -125 -59zM427 119q0 -143 -61 -277.5t-180 -269.5l-24 -27l-74 59l17 21l58 74q50 65 80 127q41 84 61 169q-11 -6 -21.5 -11t-39.5 -5
q-77 0 -121 57q-40 52 -40 128q0 79 42 136q46 63 122 63q94 0 141 -77q40 -65 40 -167z" />
    <glyph glyph-name="less" unicode="&#x3c;" horiz-adv-x="1072" 
d="M967 39l-881 376v151l881 373v-168l-666 -282l666 -282v-168z" />
    <glyph glyph-name="equal" unicode="=" horiz-adv-x="1088" 
d="M982 597h-880v156h880v-156zM982 225h-880v157h880v-157z" />
    <glyph glyph-name="greater" unicode="&#x3e;" horiz-adv-x="1072" 
d="M975 415l-881 -376v168l659 282l-659 282v168l881 -375v-149z" />
    <glyph glyph-name="question" unicode="?" horiz-adv-x="948" 
d="M888 1238q0 -109 -64 -203q-38 -56 -134.5 -147.5t-127.5 -144.5t-43 -111.5t-12 -136.5v-25h-111v55q0 101 10 160t35 107q43 71 87 142q48 102 48 263q0 130 -35 200q-46 93 -157 93q-59 0 -118.5 -47.5t-59.5 -80.5q2 -2 6 -1q25 8 39 8q8 0 13 -1q56 -12 84 -51
q25 -34 32 -93q2 -16 2 -25q0 -67 -38 -118q-41 -55 -102 -55q-71 0 -116 71q-40 63 -40 142q0 158 100 255q105 102 285 102q171 0 289 -92q128 -100 128 -266zM444 -11q-78 0 -123 57q-41 52 -41 128q0 78 41 132q46 60 123 60q78 0 124 -59q42 -54 42 -130t-41 -129
q-46 -59 -125 -59z" />
    <glyph glyph-name="at" unicode="@" horiz-adv-x="1526" 
d="M1462 853q0 -218 -138 -388q-142 -175 -331 -175q-82 0 -122 80q-13 26 -23 80l-59 -66q-75 -87 -188 -87q-114 0 -191 95q-73 90 -73 213q0 181 153 317q139 123 283 123q58 0 98 -21.5t55 -68.5l20 -55l39 122l168 3l-153 -563q-6 -23 -6 -51q0 -30 8.5 -48.5
t29.5 -18.5q119 0 222 160t103 334q0 226 -178 362q-161 123 -394 123q-251 0 -429 -178t-178 -429q0 -261 181.5 -447.5t441.5 -186.5q188 0 324 73q98 53 158 135l42 74h129q-29 -50 -57 -99q-81 -111 -204 -183q-172 -100 -396 -100q-300 0 -512 213t-212 513
q0 296 208.5 506.5t503.5 210.5q271 0 468 -156q209 -165 209 -416zM908 822q0 76 -29.5 124t-85.5 48q-96 0 -188 -162t-92 -315q0 -68 29 -111q35 -52 104 -52q97 0 184 177q78 160 78 291z" />
    <glyph glyph-name="A" unicode="A" horiz-adv-x="1569" 
d="M1506 0h-681v95h18q55 0 87.5 4t53.5 17q13 9 20.5 22t7.5 34q0 23 -12 58l-106 283h-408l-72 -228q-4 -13 -9.5 -38t-5.5 -44q0 -27 8 -46q4 -9 17.5 -25t38.5 -24q40 -13 118 -13h20v-95h-520v95h15q71 0 114 29q22 14 40 45q26 43 53 124l430 1291h109l485 -1344
q22 -61 40 -88q14 -21 37 -36q33 -21 85 -21h17v-95zM862 611l-178 495l-164 -495h342z" />
    <glyph glyph-name="B" unicode="B" horiz-adv-x="1410" 
d="M1340 433q0 -233 -158 -342q-131 -91 -359 -91h-735v95h17q41 0 69.5 3.5t43.5 14.5q31 23 38.5 44t7.5 83v1047q0 62 -7 91.5t-26 47.5q-23 22 -66 30q-22 4 -58 4h-21v95h736q186 0 310 -94q138 -105 138 -293q0 -133 -73 -217q-67 -77 -192 -111l-55 -15l60 -12
q142 -30 236 -136.5t94 -243.5zM926 1162q0 119 -54 203q-62 96 -167 96q-84 0 -110 -54q-16 -33 -16 -117v-427h29q153 0 223 50q95 68 95 249zM990 438q0 144 -51 220q-44 66 -130 88q-58 15 -176 15h-54v-521q0 -70 30 -107q39 -47 131 -47q82 0 152 69q98 96 98 283z
" />
    <glyph glyph-name="C" unicode="C" horiz-adv-x="1304" 
d="M1236 564q0 -241 -126 -402q-146 -187 -414 -187q-288 0 -459 244q-156 223 -156 544q0 318 170 561q183 261 455 261q122 0 205 -43l132 -82q25 8 49 41q13 19 26 47h75l10 -580l-92 -15l-8 42q-22 129 -55 217q-46 125 -117 194q-86 84 -207 84q-113 0 -183 -114
q-58 -95 -85 -267q-21 -136 -21 -308q0 -207 14 -324q22 -186 84 -282q77 -120 221 -120q200 0 298 167q81 137 81 356v32h102z" />
    <glyph glyph-name="D" unicode="D" horiz-adv-x="1466" 
d="M1401 783q0 -309 -170 -538q-182 -245 -463 -245h-690v95h18q38 0 70.5 4.5t48.5 16.5q24 18 34 40q14 30 14 84v1047q0 66 -8 97t-34 50q-18 13 -45.5 19.5t-67.5 6.5h-21v95h595q349 0 543 -232q176 -211 176 -540zM1045 765q0 300 -65 472q-51 134 -137 187
q-54 33 -120 33q-80 0 -118 -51q-31 -42 -31 -116v-1050q0 -74 23 -106q33 -46 123 -46q78 0 120 20q87 41 138 172q67 172 67 485z" />
    <glyph glyph-name="E" unicode="E" horiz-adv-x="1330" 
d="M1258 613l-17 -613h-1167v95h17q47 0 71.5 3t41.5 15q26 19 38 41q17 32 17 86v1047q0 62 -8 89t-34 50q-18 16 -46 25t-66 9h-21v95h1137l2 -590l-85 -12l-5 35q-29 206 -115 322q-106 143 -292 143q-92 0 -124 -49q-23 -35 -23 -114v-427h27q66 0 118 24q39 18 74 53
q28 29 45.5 79t17.5 114h85v-630h-85q0 54 -18 105.5t-40 74.5q-37 40 -76 57q-47 21 -121 21h-27v-521q0 -93 37.5 -119t116.5 -26q186 0 303 148q100 127 132 337l5 33h85z" />
    <glyph glyph-name="F" unicode="F" horiz-adv-x="1292" 
d="M1228 965l-88 -12l-5 35q-26 137 -66 229q-50 115 -124 174q-87 69 -212 69q-95 0 -130 -51q-25 -37 -25 -119v-409h30q75 0 128 28q30 16 62 49q24 27 44.5 85t20.5 108h85v-658h-85q0 58 -19 119q-15 49 -33 74q-28 41 -62 61q-51 29 -141 29h-30v-536q0 -42 11 -67
t43 -51q17 -13 55 -20t85 -7h12v-95h-706v95h17q50 0 77 7t46.5 24t28.5 37q14 30 14 77v1047q0 61 -9.5 89.5t-32.5 49.5q-39 34 -112 34h-21v95h1142v-590z" />
    <glyph glyph-name="G" unicode="G" horiz-adv-x="1364" 
d="M1297 677q-25 -11 -38 -20.5t-25 -29.5q-16 -26 -20 -44q-7 -29 -7 -88v-495h-83q-2 7 -30 45q-31 43 -43 43q-23 0 -65 -29q-59 -40 -98 -55q-77 -29 -186 -29q-288 0 -459 244q-156 223 -156 544q0 317 171 560q183 261 454 261q116 0 198 -38q67 -40 135 -80
q23 3 44 34q4 5 18 34h81l7 -571l-90 -12l-7 43q-25 138 -54 223q-43 126 -110 192q-82 81 -204 81q-113 0 -181 -114q-56 -94 -81 -268q-19 -132 -19 -307q0 -231 5 -307q13 -195 61 -297q63 -133 189 -133q106 0 153 115q35 87 35 231q0 145 -41 202.5t-134 57.5h-45v100
h624z" />
    <glyph glyph-name="H" unicode="H" horiz-adv-x="1546" 
d="M1482 1460h-22q-44 0 -71.5 -6t-51.5 -26t-34.5 -57t-10.5 -81v-1050q0 -62 14 -90q10 -19 36 -35q18 -10 42.5 -15t75.5 -5h17v-95h-650v95h18q38 0 60.5 4.5t37.5 16.5q19 17 26.5 40.5t7.5 83.5v521h-383v-521q0 -55 11 -82.5t31 -41.5q29 -21 93 -21h17v-95h-652v95
h17q92 0 125 26q24 19 33.5 43.5t9.5 75.5v1047q0 61 -7 88t-30 51q-18 18 -45.5 26t-64.5 8h-21v95h634v-95h-22q-37 0 -57 -9q-11 -5 -32 -24q-40 -37 -40 -139v-425h383v424q0 59 -7.5 89t-25 49t-44 27t-50.5 8h-21v95l653 -2v-93z" />
    <glyph glyph-name="I" unicode="I" horiz-adv-x="829" 
d="M767 0h-690v95h17q48 0 76.5 6t48.5 21.5t31.5 46t11.5 88.5v1033q0 57 -8.5 86t-33.5 53q-19 18 -47 24.5t-75 6.5h-21v95h689v-95h-22q-53 0 -79 -7.5t-45.5 -24.5t-28.5 -50.5t-9 -87.5v-1033q0 -66 13 -100q9 -22 28 -38q14 -11 45.5 -17.5t80.5 -6.5h18v-95z" />
    <glyph glyph-name="J" unicode="J" horiz-adv-x="1214" 
d="M1146 1460h-23q-63 0 -88 -3.5t-42 -20.5q-25 -23 -33.5 -53t-8.5 -93v-915q0 -80 -16 -140q-30 -111 -108 -177q-105 -88 -290 -88q-194 0 -318 96q-140 109 -140 309q0 95 44 164q51 81 141 81q80 0 133 -67q50 -64 50 -150q0 -74 -38 -128q-42 -60 -107 -60
q-32 0 -68 15q-14 4 -27 8q0 -52 65 -105q73 -60 169 -60q122 10 168 97q29 54 29 148v972q0 53 -11 87.5t-31.5 52t-55.5 24t-86 6.5h-21v95h713v-95z" />
    <glyph glyph-name="K" unicode="K" horiz-adv-x="1553" 
d="M1483 0h-635v95h18q25 0 45.5 8t32.5 20q4 5 6 9q6 13 6 30q0 16 -6.5 39t-20.5 51l-270 522l-87 -102v-420q0 -64 14 -97q9 -21 30 -37q17 -12 34 -17.5t49 -5.5h18v-95h-629v95h18q45 0 70.5 4.5t42.5 18.5q21 17 29 35q13 29 13 87v1038q0 70 -6 101t-27 52
q-16 17 -41 23t-80 6h-21v95h642v-107h-23q-30 0 -47 -4.5t-42 -22.5t-34.5 -50t-9.5 -81v-478l397 478q28 34 39.5 56t11.5 39q0 19 -15 38.5t-52 28t-87 8.5h-21v95h561v-95l-23 -2q-35 -3 -56 -8.5t-57 -19.5q-29 -11 -57 -33q-37 -28 -77 -74l-255 -287l397 -776
q27 -52 49.5 -81t49.5 -48q23 -16 39 -24q25 -12 49 -12h18v-95z" />
    <glyph glyph-name="L" unicode="L" horiz-adv-x="1283" 
d="M1209 620l-13 -620h-1115v95h18q36 0 74 6.5t56.5 20t27.5 37.5t9 81v1047q0 59 -8.5 90t-28.5 52t-47.5 26t-69.5 5h-21v95h693v-95h-23q-58 0 -90.5 -5.5t-55.5 -26.5t-32.5 -57.5t-9.5 -82.5v-1048q0 -70 24 -101q32 -41 115 -41q150 0 267 139q113 134 132 316l7 67
h91z" />
    <glyph glyph-name="M" unicode="M" horiz-adv-x="1810" 
d="M1749 1462h-23q-43 0 -68.5 -6t-48.5 -28q-19 -18 -25.5 -41t-6.5 -53v-22t1 -22v-1050q0 -59 12 -85t46 -45q18 -10 39 -12.5t54 -2.5h17v-95h-642v95h17q33 0 55 3.5t38 14.5q27 20 39 42q16 31 16 85v1150l-387 -1393h-151l-371 1378l-1 -1100q0 -67 13 -101
q10 -27 36 -48q20 -17 45.5 -24t58.5 -7h40v-95h-470v95h20q39 0 58 5.5t45 25.5q30 24 43 62.5t13 91.5v1062q0 43 -14.5 67.5t-38 35t-42.5 13t-50 2.5h-34l-1 95h547l294 -1033l280 1033h547v-93z" />
    <glyph glyph-name="N" unicode="N" horiz-adv-x="1497" 
d="M1440 1460h-19q-52 0 -73.5 -3.5t-45.5 -25.5q-31 -28 -43.5 -76t-12.5 -112l1 -1243h-166l-711 1203v-923q0 -61 19 -100q16 -32 51 -58q19 -14 51.5 -20.5t68.5 -6.5h19v-95h-496v95h20q39 0 63 6.5t52.5 29t43 61.5t14.5 88v1033q0 40 -19 76q-15 29 -34 43.5t-48 21
t-59 6.5h-28v95h440l619 -1038v751q0 56 -11 96t-37 61.5t-51.5 27.5t-66.5 6l-22 1v95h481v-95z" />
    <glyph glyph-name="O" unicode="O" horiz-adv-x="1389" 
d="M1318 800q0 -346 -161 -576q-173 -247 -461 -247q-278 0 -453 243q-162 225 -162 543t169 560q182 260 453 260q275 0 452 -248q163 -229 163 -535zM958 797q0 207 -9 306q-16 178 -66 270q-63 117 -184 117q-113 0 -174 -115q-49 -93 -67 -269q-11 -110 -11 -305
q0 -215 10 -324q17 -187 66 -288q60 -124 171 -124q125 0 189 122q51 98 67 286q8 96 8 324z" />
    <glyph glyph-name="P" unicode="P" horiz-adv-x="1322" 
d="M1253 1175q0 -209 -129 -333q-134 -129 -371 -129h-161v-473q0 -56 12 -80.5t40 -44.5q18 -12 49.5 -16t83.5 -4h18v-95h-708v95h18q36 0 63 4.5t44 16.5q31 22 42 40q18 30 18 84v1047q0 56 -2 73q-5 45 -40 74q-19 16 -45.5 21t-56.5 5h-10h-21v95h693q187 0 318 -97
q145 -107 145 -283zM905 1138q0 133 -55 229q-59 103 -153 103q-42 0 -73.5 -31.5t-31.5 -75.5v-550h38q142 0 199 53q76 70 76 272z" />
    <glyph glyph-name="Q" unicode="Q" horiz-adv-x="1396" 
d="M1325 800q0 -207 -50 -358q-42 -126 -128 -230q-63 -76 -169 -158l-13 -10q15 -90 38 -126q28 -44 85 -44q52 0 89 52q43 61 43 170v30h87v-28q0 -192 -63 -306q-80 -145 -254 -145q-142 0 -220 92q-74 88 -74 238l-25 3q-275 33 -434 257q-150 212 -150 526
q0 318 169 560q182 260 454 260q275 0 452 -248q163 -229 163 -535zM964 797q0 230 -6 305q-14 178 -64 270q-63 116 -189 116q-109 0 -170 -113q-50 -94 -69 -267q-13 -120 -13 -307q0 -137 12 -294.5t24 -185.5q22 82 67 131q53 57 127 57q81 0 147 -65q62 -61 90 -156
q14 46 29 204.5t15 304.5zM756 251q0 52 -15 90q-22 55 -66 55q-43 0 -71.5 -49.5t-28.5 -115.5q0 -59 30 -103q34 -49 89 -49q12 0 19 1q23 70 25 78q18 61 18 93z" />
    <glyph glyph-name="R" unicode="R" horiz-adv-x="1446" 
d="M1389 387q0 -120 -10 -180q-18 -107 -72 -164q-69 -72 -198 -72q-124 0 -194 67q-61 59 -86 175q-20 94 -20 242q0 110 -42 186q-53 96 -159 96l-15 -1v-496q0 -44 8 -70t44 -55q15 -12 40.5 -16t66.5 -4h18v-95h-682v95h17q38 0 66 4.5t45 16.5q32 22 44.5 48t12.5 76
v1047q0 68 -7 95t-35 52q-19 16 -45.5 21t-56.5 5h-10h-21v95h692q189 0 322 -97q147 -107 147 -283q0 -185 -141 -299q-114 -93 -258 -105l-54 -4l61 -20q76 -23 133 -67t94 -104q43 -70 56 -186q7 -84 15 -167q13 -73 61 -73q44 4 59 67q10 41 10 130v28.5v14.5v18h94v-21
zM913 1166q0 152 -52.5 226t-152.5 74q-46 0 -78 -28q-37 -33 -37 -92v-506h38q139 0 202 58q80 74 80 268z" />
    <glyph glyph-name="S" unicode="S" horiz-adv-x="1205" 
d="M1135 495q0 -213 -144.5 -368.5t-352.5 -155.5q-135 0 -225 40l-162 90q-28 0 -55 -34q-8 -10 -29 -48l-10 -19h-73v615h86l5 -30q36 -200 134 -344q119 -176 281 -176q111 0 185 81t74 193q0 94 -48 157q-40 52 -121 92q-42 21 -159 63l-38 13q-189 68 -287 172
q-112 119 -112 291q0 194 135 327t332 133q108 0 189 -40l148 -90q8 0 25 20.5t43 62.5l8 15h69v-577h-83l-5 27q-35 217 -110 336q-92 147 -248 147q-120 0 -182 -69q-55 -61 -55 -166q0 -76 51 -137q46 -55 133 -99q71 -36 186 -72l23 -7q177 -55 278 -160
q114 -118 114 -283z" />
    <glyph glyph-name="T" unicode="T" horiz-adv-x="1340" 
d="M1279 969h-85l-7 42q-16 100 -35 159q-30 95 -86 177q-29 43 -71 72q-60 41 -131 41h-30v-1202q0 -59 19 -96q12 -24 34 -40q33 -27 135 -27h18v-95h-732v95h17q99 0 141 31q24 17 34 41q14 33 14 91v1199h-22q-71 0 -120 -33q-33 -22 -85.5 -87.5t-88.5 -188.5
q-27 -93 -27 -131l-5 -48h-85l19 586h1161z" />
    <glyph glyph-name="U" unicode="U" horiz-adv-x="1488" 
d="M1424 1460h-22q-54 0 -100 -30q-31 -20 -48 -57t-17 -91v-783q0 -151 -34 -252q-43 -128 -142 -196q-115 -79 -308 -79q-215 0 -339 89q-98 70 -137 195q-26 83 -26 190q0 16 1 38t1 26v773q0 67 -8 93.5t-36 56.5q-16 17 -39.5 22t-53.5 5h-17h-21v95h671v-95h-22
q-46 0 -73 -5t-51 -26t-32.5 -52t-8.5 -94l-1 -801q0 -10 -0.5 -22t-0.5 -25q0 -83 14 -141q22 -91 77 -141q71 -65 194 -65q121 0 191 60q58 50 83 147q19 74 19 181v807q0 61 -13 94t-46 56q-23 16 -52 21.5t-58 5.5h-21v95h476v-95z" />
    <glyph glyph-name="V" unicode="V" horiz-adv-x="1452" 
d="M1387 1460h-22q-29 0 -51 -8.5t-43 -25.5t-35 -41q-18 -32 -39 -103l-387 -1285h-164l-357 1243q-22 78 -42 122.5t-43 68.5q-17 18 -43.5 23.5t-55.5 5.5h-21v95h667v-95h-23h-31.5h-14.5q-31 0 -47.5 -4.5t-30 -20t-19.5 -30t-6 -39.5q0 -32 14 -81l247 -845l247 819
q15 50 15 90q0 29 -7.5 48t-20.5 31q-16 16 -43.5 24t-70.5 8h-21v95h448v-95z" />
    <glyph glyph-name="W" unicode="W" horiz-adv-x="2030" 
d="M1957 1460h-22q-29 0 -46 -5.5t-37.5 -25t-35.5 -53.5t-34 -95l-381 -1284h-147l-252 941l-288 -941h-131l-339 1240q-24 87 -40 128t-31 61t-32.5 27t-33.5 7h-21v95h584v-95h-18q-44 0 -62 -3.5t-33 -16.5q-9 -9 -15.5 -27.5t-6.5 -42.5q0 -34 13 -85l216 -790l187 603
l-75 290q-5 21 -13.5 35t-20.5 22q-24 15 -51 15h-21v95h610v-95h-23h-47q-41 -3 -65 -25q-27 -26 -27 -73q0 -25 9 -60l222 -805l225 743q20 68 20 117q0 27 -6.5 44t-16.5 27q-22 21 -48 26.5t-85 5.5h-21v95h440v-95z" />
    <glyph glyph-name="X" unicode="X" horiz-adv-x="1484" 
d="M1422 0h-673v95h17q44 0 69.5 3.5t39.5 17.5q7 8 12.5 22.5t5.5 32.5t-3.5 32.5t-14.5 35.5l-200 378l-216 -377q-11 -19 -15 -34.5t-4 -30.5q0 -20 6.5 -33.5t17.5 -19.5q24 -15 57 -21t78 -6h18v-95h-537v95h17q29 0 64 8t59 19t56 44q42 42 74 100l268 468l-296 553
q-19 36 -50.5 83t-45.5 58.5t-25 18.5q-22 13 -54 13h-27v95h655v-95h-23q-55 0 -78.5 -6t-32 -22.5t-8.5 -36.5q0 -22 9 -46.5t28 -60.5l155 -281l170 276q18 29 27 58.5t9 53.5q0 23 -10 36q-15 18 -37 23.5t-66 5.5h-21v95h478v-95h-23q-43 0 -65 -4.5t-47 -18t-59 -49.5
q-40 -43 -73 -100l-229 -388l346 -660q26 -49 56 -80q22 -23 46 -37q15 -9 27 -15q26 -13 51 -13h17v-95z" />
    <glyph glyph-name="Y" unicode="Y" horiz-adv-x="1396" 
d="M1327 1460h-23q-70 0 -101 -30q-57 -52 -99 -158l-251 -619v-413q0 -55 15 -84q11 -22 35.5 -37.5t60.5 -19.5t85 -4h18v-95h-741v95h17q119 0 149 26q22 17 34 42q16 32 16 77l-1 420l-275 627q-20 48 -38 79t-40 53t-43.5 31.5t-45.5 9.5h-21v95h646v-95h-23h-34
q-30 0 -50 -6t-32.5 -22t-12.5 -37q0 -17 7 -38q2 -6 30 -69l205 -457l189 456q6 14 13 40.5t7 46.5q0 32 -18.5 53t-45.5 27t-82 6h-21v95h471v-95z" />
    <glyph glyph-name="Z" unicode="Z" horiz-adv-x="1155" 
d="M1097 632l-18 -632h-994v146l646 1314h-42q-113 0 -167 -11q-79 -16 -148 -68q-79 -60 -121 -177q-27 -74 -40 -181l-7 -52h-96l24 584h935v-115l-652 -1345h54q84 0 168 21q118 30 190 93q81 72 127 195q32 86 41 172l6 56h94z" />
    <glyph glyph-name="bracketleft" unicode="[" horiz-adv-x="568" 
d="M495 -220h-416v2003h413v-82h-24q-26 0 -68 -7t-57 -20q-27 -23 -35 -51t-8 -72v-1547q0 -31 12.5 -55.5t37.5 -47.5t55 -31.5t72 -8.5h18v-81z" />
    <glyph glyph-name="backslash" unicode="\" horiz-adv-x="985" 
d="M918 -3h-115l-737 1558h110z" />
    <glyph glyph-name="bracketright" unicode="]" horiz-adv-x="561" 
d="M488 -220h-415v81h18q44 0 72 8t55 33q50 45 50 102v1547q0 45 -8 72t-36 51q-14 12 -58.5 19.5t-65.5 7.5h-24v82h412v-2003z" />
    <glyph glyph-name="asciicircum" unicode="^" horiz-adv-x="681" 
d="M587 1122l-97 -35l-174 300l-177 -299l-93 37l161 380q30 72 109 72t109 -74z" />
    <glyph glyph-name="underscore" unicode="_" horiz-adv-x="1262" 
d="M1284 -209h-1313v101h1313v-101z" />
    <glyph glyph-name="grave" unicode="`" horiz-adv-x="579" 
d="M519 1215l-60 -69l-245 153q-62 38 -88 63q-45 42 -45 85q0 18 8.5 37.5t27.5 39.5q28 31 62 31t76 -33q29 -23 66 -67z" />
    <glyph glyph-name="a" unicode="a" horiz-adv-x="1173" 
d="M1112 326q0 -177 -60.5 -257.5t-185.5 -80.5q-66 0 -118 34t-80 92l-8 17l-12 -14q-59 -67 -109 -96q-61 -36 -137 -36q-140 0 -231 92q-84 85 -84 192q0 113 75 194q62 67 185 120q68 30 231 82l51 16v38q0 157 -39 228q-43 78 -129 78q-71 0 -123 -30q-40 -23 -45 -44
q7 -1 15 -2q51 0 77 -16q50 -30 50 -118q0 -64 -40 -108.5t-105 -44.5q-74 0 -110 53q-31 45 -31 119q0 132 128 207q111 65 268 65q160 0 250 -61q114 -77 114 -250v-562q0 -39 12.5 -64t38.5 -25q34 0 47 47.5t13 143.5v15h92v-24zM624 332v259l-33 -13q-96 -40 -153 -134
q-49 -81 -49 -166q0 -161 113 -161q59 0 93 70q29 60 29 145z" />
    <glyph glyph-name="b" unicode="b" horiz-adv-x="1209" 
d="M1175 559q0 -229 -125 -405q-133 -188 -329 -188q-81 0 -151 31q-28 13 -99 58q-50 32 -78 32q-15 0 -34.5 -28t-30.5 -59h-98l5 17q4 18 7 37t5.5 39.5t3.5 67t1 114.5v1053q0 83 -33 109q-16 13 -36.5 18t-46.5 5h-22v95h428v-586l30 30q51 52 94 76q52 29 113 29
q183 0 295 -174q101 -157 101 -371zM860 541q0 137 -5 198q-9 113 -39 176q-36 76 -105 76q-80 0 -124 -165q-36 -135 -36 -313q0 -118 9 -198q13 -114 44 -175q38 -75 105 -75q64 0 101 80q29 63 41 187q9 92 9 209z" />
    <glyph glyph-name="c" unicode="c" horiz-adv-x="1011" 
d="M948 347l-4 -34q-16 -135 -107 -232q-99 -106 -238 -106q-223 0 -374 169q-144 161 -144 381q0 236 150 409q155 179 383 179q136 0 228 -85t92 -213q0 -75 -43 -132.5t-112 -57.5q-64 0 -107 52t-43 121q0 93 46 133q50 19 101 39q1 17 -50 37.5t-95 20.5
q-121 0 -182 -172q-48 -135 -48 -333q0 -180 45 -295q59 -150 185 -150q97 0 160 78q57 70 70 179l5 40z" />
    <glyph glyph-name="d" unicode="d" horiz-adv-x="1209" 
d="M1145 0h-406l-1 117l-27 -35q-32 -41 -86 -74q-67 -41 -127 -41q-183 0 -304 175q-112 162 -112 376q0 227 116 402q126 190 314 190q49 0 92 -18.5t78 -58.5l28 -33v317q0 42 -9 69.5t-36 47.5q-34 26 -71 26h-22v93h436v-1288q0 -55 8.5 -91.5t37.5 -59.5
q14 -10 34 -14.5t45 -4.5h12v-95zM722 533q0 182 -36 309q-46 163 -137 163q-56 0 -91 -82q-29 -68 -41.5 -177.5t-12.5 -225.5q0 -122 7 -195q11 -112 39 -175q34 -75 94 -75q71 0 114 76q36 64 52 178q12 87 12 204z" />
    <glyph glyph-name="e" unicode="e" horiz-adv-x="1047" 
d="M989 364l-7 -35q-33 -154 -127 -249q-104 -105 -256 -105q-223 0 -374 169q-144 161 -144 381q0 239 125 406q136 182 359 182q201 0 322 -170q102 -143 102 -317v-87h-587q0 -213 48 -327q56 -134 177 -134q100 0 173.5 74t95.5 192l8 43zM680 633v27v28q0 123 -17 201
q-30 136 -105 136q-86 0 -127 -137q-29 -96 -29 -217v-38h278z" />
    <glyph glyph-name="f" unicode="f" horiz-adv-x="1025" 
d="M959 1323q0 -64 -37 -105.5t-95 -41.5q-59 0 -102.5 39.5t-43.5 96.5q0 88 59 119q30 8 61 17q3 15 -27.5 29.5t-62.5 14.5q-75 0 -111 -51q-43 -60 -43 -231v-49t1 -48v-45h233v-100h-233v-693q0 -53 12.5 -95t41.5 -60q23 -14 46 -19.5t86 -5.5h12v-95h-675l1 95h13h19
q36 0 61 6t49.5 26t33.5 60t9 96v685h-184v98h184v50q0 94 17.5 177t49.5 130q57 83 137.5 117.5t190.5 34.5q127 0 209 -65q88 -70 88 -187z" />
    <glyph glyph-name="g" unicode="g" horiz-adv-x="1128" 
d="M1068 1103q-6 -55 -30 -85q-29 -37 -84 -37q-63 0 -86 37q-15 24 -15 71q0 8 1 15.5t2 14.5q0 7 -3 15.5t-9 8.5q-12 0 -27 -34.5t-15 -58.5v-28l23 -20q61 -53 88 -112t27 -140q0 -153 -116 -260t-274 -107q-46 0 -81.5 5.5t-65.5 19.5l-18 9l-27 -21q-17 -13 -24 -21
q-10 -12 -15 -30q-8 -29 62 -45q47 -11 161.5 -20.5t148.5 -15.5q192 -33 274.5 -102.5t82.5 -194.5q0 -150 -136 -257q-147 -115 -380 -115q-180 0 -307 64q-152 77 -152 215q0 85 75 140q66 49 165 58l-34 15q-65 28 -98 64q-40 44 -40 104t34 107q26 36 87 82l24 18
l-30 24q-64 52 -95 108.5t-31 131.5q0 159 122.5 268.5t288.5 109.5q52 0 81.5 -4.5t71.5 -22.5l21 -9l9 33q20 75 62 111q49 42 133 42q60 0 105 -41t45 -97q-1 -9 -1 -13zM667 744q0 152 -37 221q-31 58 -86 58q-69 0 -103 -100q-26 -77 -26 -194q0 -146 37 -210
q31 -54 89 -54q68 0 101 95q25 73 25 184zM793 -144q0 79 -74 124q-67 41 -166 41q-107 0 -172 -34q-77 -40 -77 -119q0 -82 71 -137q67 -52 157 -52q93 0 169 42q92 51 92 135z" />
    <glyph glyph-name="h" unicode="h" horiz-adv-x="1261" 
d="M1199 0h-421l1 717q0 159 -23 214q-18 42 -64 42q-79 0 -125 -112q-42 -103 -42 -266v-350q0 -46 6 -73.5t26 -48.5q17 -17 51 -24q21 -4 51 -4h15v-95h-589v95h13q55 0 97 33q20 16 29.5 44.5t9.5 63.5v1081q0 40 -9.5 68t-35.5 49q-17 14 -33 20t-38 6h-22v93h429v-590
l45 50q47 52 100.5 76t124.5 24q125 0 203 -87q74 -83 74 -203v-603q0 -39 11 -66q8 -20 24 -35q11 -10 30 -17t50 -7h12v-95z" />
    <glyph glyph-name="i" unicode="i" horiz-adv-x="731" 
d="M353 1226q-78 0 -123 58q-41 52 -41 130q0 76 41 129q46 59 123 59q75 0 121 -61q42 -56 42 -135q0 -75 -39 -124q-45 -56 -124 -56zM663 0h-590v95h12q31 0 49.5 6t42 24.5t34 53.5t10.5 77v624q0 32 -7.5 53t-30.5 37q-14 9 -35 12.5t-48 3.5h-22v91h434v-836
q0 -43 11 -74t40 -49q20 -11 41 -17t47 -6h12v-95z" />
    <glyph glyph-name="j" unicode="j" horiz-adv-x="695" 
d="M472 1231q-78 0 -123 58q-41 52 -41 130q0 76 41 129q46 59 123 59q75 0 121 -61q42 -56 42 -135q0 -75 -39 -124q-45 -56 -124 -56zM631 -39q0 -69 -15 -125q-28 -103 -99 -162q-96 -80 -265 -80q-142 0 -232.5 72t-90.5 192q0 67 46.5 114.5t108.5 47.5q59 0 100.5 -47
t41.5 -108q0 -13 -1 -19q-9 -67 -51 -96q-42 -13 -84 -27q2 -13 44 -28t63 -13q76 11 112 69q31 51 31 138v968q0 41 -7 68t-32 48q-12 9 -27.5 11.5t-41.5 2.5h-19h-16v91h434v-1117z" />
    <glyph glyph-name="k" unicode="k" horiz-adv-x="1278" 
d="M1214 0l-392 -1l-260 525l-37 -34v-225q0 -55 8 -88.5t36 -58.5q15 -14 34.5 -18.5t43.5 -4.5h12v-95h-574v95h13q31 0 50.5 3.5t41.5 17.5q32 20 40 70q4 24 4 97v1049q0 44 -7 65q-10 30 -38 47q-14 9 -34.5 12.5t-36.5 3.5h-22v95h429v-927l249 255q12 12 20.5 27.5
t8.5 30.5q0 5 -3 16t-18 19q-21 11 -60 11h-50v90h468v-90h-25q-29 0 -52.5 -6.5t-45.5 -19.5t-41 -27t-37 -31l-159 -168l288 -553q25 -51 68 -73q14 -8 29.5 -11t36.5 -3h12v-95z" />
    <glyph glyph-name="l" unicode="l" horiz-adv-x="748" 
d="M673 0h-601v95h19q27 0 49.5 9.5t42.5 28t29 53t9 78.5v1053q0 42 -9 69.5t-36 47.5q-34 26 -71 26h-22v95h429v-1290q0 -89 55 -138q35 -32 94 -32h12v-95z" />
    <glyph glyph-name="m" unicode="m" horiz-adv-x="1766" 
d="M1700 0h-424v840q0 57 -13 87q-18 42 -68 42q-46 0 -101 -83q-58 -87 -58 -169l1 -500q0 -33 5 -54.5t22.5 -39t40 -23t55.5 -5.5h12v-95h-417v800q0 81 -14 115q-18 45 -71 45q-67 0 -112 -100q-40 -89 -40 -197v-423q0 -51 4.5 -76.5t26.5 -44.5q15 -13 38.5 -18.5
t52.5 -5.5h12v-95h-571v95h27h12q27 0 41.5 2.5t31.5 14.5q28 19 35 55q4 20 4 73v632q0 42 -4 60q-7 30 -28 44q-10 6 -28 8.5t-38 2.5h-17h-23v92h414v-154l26 40q41 63 123 99q70 31 136 31q83 0 142 -53q42 -37 69 -99l14 -31l18 27q47 71 121 112t143 41q130 0 201 -78
q66 -72 66 -189v-611v-36q3 -31 23 -53q14 -14 34 -22t64 -8h12v-95z" />
    <glyph glyph-name="n" unicode="n" horiz-adv-x="1238" 
d="M1180 0h-421v800q0 82 -14 115q-19 45 -76 45q-65 0 -116 -119t-51 -265v-345q0 -36 6.5 -62.5t26.5 -45.5q14 -14 43 -21t61 -7h17v-95h-581v95h13q69 0 98 21q21 16 29 37.5t8 70.5v645q0 35 -7.5 60t-25.5 37.5t-41.5 16.5t-45.5 4h-22v90h416v-162l34 43
q56 69 132 106q65 31 129 31q106 0 177 -76t71 -182v-584q0 -53 7 -83.5t27 -47t40.5 -22t53.5 -5.5h12v-95z" />
    <glyph glyph-name="o" unicode="o" horiz-adv-x="1108" 
d="M1043 543q0 -227 -129 -390q-137 -174 -351 -174q-219 0 -358 170q-131 160 -131 385q0 228 131 397q139 179 349 179q212 0 353 -171q136 -165 136 -396zM722 537v82q0 126 -7 187q-12 102 -43 154q-38 63 -109 63q-69 0 -106 -53q-31 -45 -40.5 -124t-9.5 -202v-107
q0 -160 4 -217q9 -123 38 -185q37 -78 111 -78q71 0 110 58q32 47 44 143q9 70 9 179v13q0 19 -0.5 38t-0.5 38v11z" />
    <glyph glyph-name="p" unicode="p" horiz-adv-x="1225" 
d="M1157 552q0 -225 -114 -395q-122 -181 -303 -181q-55 0 -104 20q-60 24 -94 73l-18 26v-241q0 -57 12.5 -90t36.5 -53q16 -13 49.5 -19.5t71.5 -6.5h12v-87h-635l1 87h16q38 0 61.5 6t47 27.5t33.5 61.5t10 93v982q0 43 -8 67q-11 33 -38 49q-18 10 -38.5 13t-42.5 3h-23
v91h422v-141l18 28q48 68 89 98q52 38 120 38q186 0 307 -174q111 -160 111 -375zM842 543q0 110 -11 194q-14 108 -45 172q-36 74 -91 74q-67 0 -108 -77q-33 -63 -49 -181q-12 -90 -12 -206q0 -122 8 -196q12 -113 43 -173q38 -75 106 -75q84 0 126 162q33 126 33 306z
" />
    <glyph glyph-name="q" unicode="q" horiz-adv-x="1137" 
d="M1144 -402h-624v87h12q44 0 78.5 4.5t52.5 16.5q23 15 29 49.5t6 86.5v249l-17 -27q-31 -45 -86 -68q-47 -20 -99 -20q-184 0 -302 180q-109 167 -109 396q0 194 113 362q126 187 309 187q61 0 136 -38q164 -83 182 -83h10q24 3 57 33q26 24 40 45l11 19h75l-6 -17
q-5 -11 -6 -16q-4 -14 -7.5 -40.5t-5.5 -67.5t-2 -75v-1011q0 -60 9 -95t35 -54q14 -11 36.5 -13.5t59.5 -2.5h13v-87zM710 529q0 128 -8 207q-12 120 -43 184q-38 80 -106 80q-81 0 -124 -154q-35 -124 -35 -293q0 -115 12.5 -222.5t41.5 -171.5q36 -81 95 -81q67 0 107 75
q34 64 49 176q11 85 11 200z" />
    <glyph glyph-name="r" unicode="r" horiz-adv-x="1006" 
d="M948 913q0 -79 -32 -131q-38 -62 -108 -62q-64 0 -101 29q-42 33 -42 99q0 47 25 100q9 18 3 25l-52 -38q-50 -59 -83 -148q-43 -117 -43 -254v-268q0 -53 12.5 -88.5t50.5 -59.5q23 -15 42 -18.5t55 -3.5h19v-95h-609v95h13q55 0 92 26q24 18 34 53t10 89v601
q0 41 -9 64q-12 30 -44 46q-19 10 -33 11.5t-37 1.5h-23v91h404v-248l23 46q36 72 58 105q38 58 80 87q50 35 113 35q85 0 135 -56q47 -53 47 -134z" />
    <glyph glyph-name="s" unicode="s" horiz-adv-x="951" 
d="M894 332q0 -145 -115 -256t-268 -111q-95 0 -171 30l-140 66q-16 0 -28 -20q-8 -15 -16 -29l-10 -13h-61v419h85l2 -22q12 -131 90 -231q85 -109 201 -109q82 0 131 44t49 121q0 67 -68 119q-51 39 -148 76l-26 10q-157 59 -230 142q-76 86 -76 214q0 138 104 236t253 98
q80 0 147 -30q59 -33 118 -65q7 0 23.5 22.5t19.5 35.5l3 9h62v-371h-78l-4 19q-24 131 -99.5 210t-169.5 79q-81 0 -119 -48q-30 -38 -30 -98q0 -59 48 -103q54 -50 207 -98l16 -5q141 -44 213 -117q85 -86 85 -224z" />
    <glyph glyph-name="t" unicode="t" horiz-adv-x="880" 
d="M816 355q0 -185 -52 -271q-66 -109 -233 -109q-304 0 -304 332v679h-149v72l30 7q60 15 116 48t99.5 79.5t74 103t44.5 116.5l7 41h69v-375h288v-90h-288v-731q0 -77 18 -115q24 -51 83 -51q82 0 100 135q6 46 6 127l1 54h90v-52z" />
    <glyph glyph-name="u" unicode="u" horiz-adv-x="1225" 
d="M1166 -1h-401v122l-19 -20q-78 -85 -152 -113q-47 -18 -122 -18q-100 0 -180 81t-80 185v635q0 38 -4 58t-19.5 35.5t-36 19t-51.5 3.5h-12v91h409v-799q0 -115 22.5 -150.5t69.5 -35.5q84 0 123 129q29 97 29 249v383v15q0 30 -5 50.5t-21 36.5q-20 21 -44 26t-64 5h-12
v91h425v-865q0 -39 7.5 -63t32.5 -39q18 -11 35.5 -13.5t46.5 -2.5h23v-96z" />
    <glyph glyph-name="v" unicode="v" horiz-adv-x="1189" 
d="M1119 987h-16q-28 0 -49.5 -5.5t-35.5 -18.5t-28.5 -41.5t-25.5 -61.5l-293 -862h-162l-284 862q-14 42 -25 62.5t-34 43.5q-12 13 -30.5 17t-39.5 4h-15v91h548v-91h-16h-23t-22 1q-21 0 -34.5 -3.5t-20.5 -12.5t-7 -26q0 -16 2 -24.5t18 -58.5l161 -522l166 503
q6 18 12 39.5t6 35.5q0 27 -16.5 44t-39.5 20.5t-50 3.5h-15v91h369v-91z" />
    <glyph glyph-name="w" unicode="w" horiz-adv-x="1658" 
d="M1591 987h-16q-22 0 -40.5 -5.5t-35 -16.5t-33.5 -38q-20 -32 -32 -71l-269 -856h-157l-189 644l-210 -644h-156l-250 856q-16 54 -23 71t-24 39q-9 12 -26 16.5t-32 4.5h-15v91h506v-91h-16q-23 0 -38 -2.5t-27.5 -16t-12.5 -42.5q0 -9 2 -20.5t5 -24.5l134 -472
l135 426l-33 106q-3 10 -10.5 19.5t-14.5 14.5q-16 12 -42 12h-11v91h490v-91h-16h-28q-19 0 -31.5 -3.5t-21.5 -16t-9 -27.5q0 -11 3.5 -25l6.5 -26l130 -477l145 444q14 45 14 70q0 16 -3.5 23t-12.5 15q-13 12 -33.5 17.5t-61.5 5.5h-15v91h374v-91z" />
    <glyph glyph-name="x" unicode="x" horiz-adv-x="1220" 
d="M1160 0h-533v95h13h17q15 0 24.5 2.5t16 9.5t6.5 19q0 19 -14 41l-141 217l-122 -168q-24 -32 -24 -59q0 -20 15 -35t42 -21t58 -6h13v-95h-448v95h10q27 0 49.5 5t45 15t47.5 28q29 21 46 45l210 285l-237 392q-22 37 -37 58t-31 36q-28 28 -65 28h-16v91h539v-91h-19
q-31 0 -42.5 -4t-17 -13t-5.5 -20q0 -17 17 -45l112 -185l113 170q15 24 15 48q0 15 -7 26q-11 14 -30 18.5t-46 4.5h-16v91h414v-91h-17q-26 0 -50 -4.5t-44 -13.5q-33 -14 -57.5 -34.5t-39.5 -41.5l-184 -263l275 -464q13 -22 33 -39q14 -12 30 -20q21 -12 64 -12h18v-95z
" />
    <glyph glyph-name="y" unicode="y" horiz-adv-x="1213" 
d="M1145 987h-25q-29 0 -45.5 -8.5t-31 -27.5t-35.5 -75q-14 -39 -20 -56l-295 -820q-45 -126 -78 -194q-52 -105 -108 -156q-70 -63 -164 -63t-155.5 68.5t-61.5 171.5q0 67 43 118.5t107 51.5q61 0 98 -50q34 -46 34 -112q0 -68 -33 -102l-72 -48q1 -7 17.5 -11t37.5 -4
q64 0 127 81q59 76 85 183l-303 868q-20 59 -41 97t-43 58q-16 15 -34 22.5t-40 7.5h-27v89h580v-89h-24q-44 -5 -48 -6q-23 -7 -38 -31q-5 -8 -8 -19.5t-3 -21.5q0 -18 6 -39.5t16 -49.5l160 -435l155 423q20 57 20 95q0 39 -22 60q-15 15 -33 19.5t-45 4.5h-29v89h376v-89
z" />
    <glyph glyph-name="z" unicode="z" horiz-adv-x="971" 
d="M907 454l-1 -455h-821v104l473 884h-30h-22.5h-14.5q-48 0 -76 -5t-69 -27q-68 -36 -111 -120q-37 -72 -37 -132l-2 -30h-83l1 404h780v-102l-484 -880h38q58 0 111 14q75 20 124 62q63 54 96 127q28 61 36 138l2 18h90z" />
    <glyph glyph-name="braceleft" unicode="{" horiz-adv-x="712" 
d="M673 -208h-106q-112 0 -154 10q-75 18 -127 81q-26 32 -40 85t-14 174v79v330q0 55 -10 91.5t-40 72.5q-18 21 -34 32t-43 19l-42 12l43 15q45 15 78 57q27 32 36 69.5t9 86.5q0 13 -0.5 27t-0.5 29v9v372q0 98 10 140q16 68 68 115q45 41 107.5 54.5t150.5 13.5l105 -1
l-44 -19q-29 -12 -45.5 -25t-36.5 -39q-28 -36 -37 -72t-9 -86q0 -13 1 -42t1 -45l-4 -343q0 -17 1 -47t1 -43q0 -33 -3.5 -56.5t-15.5 -48.5q-22 -46 -54 -71q-28 -21 -82 -38l-32 -10l29 -10q41 -13 66.5 -30t53.5 -51.5t38 -80.5q7 -32 7 -91v-43l-4 -322q0 -18 -1 -54
t-1 -52q0 -63 10 -99q14 -49 52 -89q15 -16 30.5 -26t40.5 -21z" />
    <glyph glyph-name="bar" unicode="|" horiz-adv-x="342" 
d="M255 -568h-160v2124h158z" />
    <glyph glyph-name="braceright" unicode="}" horiz-adv-x="725" 
d="M679 778l-42 -12q-45 -13 -76 -49.5t-41 -73.5t-10 -92v-330v-86q0 -94 -8 -141q-12 -70 -46 -111q-51 -62 -126 -80q-46 -11 -155 -11h-106l42 19q25 11 39.5 20t31.5 27q37 38 51 89q11 40 11 101q0 15 -1 50t-1 54l1 322v50q0 56 7.5 91.5t34.5 74.5q21 31 48.5 48.5
t69.5 31.5l29 10l-32 10q-52 16 -81 38q-34 25 -55 71q-14 29 -18.5 60.5t-4.5 75.5v28.5t1 30.5l1 343q0 16 1 46t1 43q0 48 -9 83.5t-37 72.5q-18 23 -36.5 38t-45.5 26l-44 19l105 1q93 0 143 -11q69 -15 115 -57q51 -46 67 -114q11 -46 11 -141v-372q0 -17 -0.5 -33.5
t-0.5 -31.5q0 -52 8.5 -86.5t36.5 -69.5q18 -23 34.5 -35.5t43.5 -21.5z" />
    <glyph glyph-name="asciitilde" unicode="~" horiz-adv-x="1171" 
d="M1106 1489l-83 -94q-64 -73 -107 -103q-59 -42 -135 -52q-8 -2 -17.5 -2h-14.5q-30 0 -58.5 9.5t-66.5 29.5l-146 77q-24 12 -43.5 18t-41.5 6q-34 0 -68 -19q-25 -14 -46 -35q-10 -10 -38 -44l-63 -74l-101 99l103 117q50 58 104.5 93.5t114.5 47.5q29 6 56 6
q61 0 120 -33l139 -78q29 -15 48.5 -22t42.5 -7q20 0 35 5q42 13 75 44q13 13 60 69l36 42z" />
    <glyph glyph-name="Adieresis" unicode="&#xc4;" horiz-adv-x="1562" 
d="M1506 0h-681v95h18q55 0 87.5 4t53.5 17q13 9 20.5 22t7.5 34q0 23 -12 58l-106 283h-408l-72 -228q-4 -13 -9.5 -38t-5.5 -44q0 -27 8 -46q4 -9 17.5 -25t38.5 -24q40 -13 118 -13h20v-95h-520v95h15q71 0 114 29q22 14 40 45q26 43 53 124l430 1291h109l485 -1344
q22 -61 40 -88q14 -21 37 -36q33 -21 85 -21h17v-95zM862 611l-178 495l-164 -495h342zM1144 1804q0 -59 -42.5 -101.5t-101.5 -42.5q-57 0 -97 42t-40 100q0 60 40.5 102.5t98.5 42.5t100 -42t42 -101zM780 1802q0 -59 -42 -102t-102 -43q-58 0 -98 42t-40 101q0 58 41 101
t99 43t100 -41t42 -101z" />
    <glyph glyph-name="Aring" unicode="&#xc5;" horiz-adv-x="1569" 
d="M958 1881q0 -78 -45 -137q-48 -63 -120 -63q-71 0 -120.5 55.5t-49.5 129.5q0 77 46.5 134.5t118.5 57.5q71 0 120.5 -52.5t49.5 -124.5zM880 1873q0 39 -26 67t-64 28t-62.5 -30.5t-24.5 -71.5t24.5 -73t62.5 -32t64 31t26 72v9zM1506 0h-681v95h18q55 0 87.5 4t53.5 17
q13 9 20.5 22t7.5 34q0 23 -12 58l-106 283h-408l-72 -228q-4 -13 -9.5 -38t-5.5 -44q0 -27 8 -46q4 -9 17.5 -25t38.5 -24q40 -13 118 -13h20v-95h-520v95h15q71 0 114 29q22 14 40 45q26 43 53 124l430 1291h109l485 -1344q22 -61 40 -88q14 -21 37 -36q33 -21 85 -21h17
v-95zM862 611l-178 495l-164 -495h342z" />
    <glyph glyph-name="Ccedilla" unicode="&#xc7;" horiz-adv-x="1380" 
d="M1318 383l-58 -98q-96 -161 -221 -243q-134 -88 -306 -88q-15 0 -30 0.5t-29 0.5h-9l-97 -113l22 8q25 10 45 14.5t40 4.5q16 0 39 -5q129 -28 159 -151q2 -8 3 -22.5t1 -15.5q0 -78 -73 -140q-68 -57 -162 -74q-32 -6 -57 -6q-24 0 -44.5 5t-46 18t-40.5 31
q-18 22 -18 48q0 8 2.5 22.5t21 32t41.5 17.5q5 0 13 -2q34 -11 50 -54.5t39 -52.5q12 -5 23 -8t23 -3q8 0 12 1q35 6 52 36.5t17 74.5q0 19 -3 38.5t-10 37.5q-16 45 -53 68.5t-88 23.5q-35 0 -48.5 -3t-27.5 -12l-23 -15l-32 38l151 166q-257 114 -380 285
q-135 188 -135 481q0 350 162 593q178 267 473 267q60 0 132 -22q157 -48 211 -48q31 0 59 12q5 2 55 29l30 16l112 -471l-93 -27l-22 50q-69 158 -172 258q-118 114 -247 114q-44 0 -91 -15q-108 -35 -174 -151q-57 -99 -82 -249q-20 -119 -20 -268q0 -275 110 -472
q124 -223 335 -223q108 0 191 55q73 48 142 150l63 93z" />
    <glyph glyph-name="Eacute" unicode="&#xc9;" horiz-adv-x="1327" 
d="M1271 613l-17 -613h-1167v95h17q47 0 71.5 3t41.5 15q26 19 38 41q17 32 17 86v1047q0 62 -8 89t-34 50q-18 16 -46 25t-66 9h-21v95h1137l2 -590l-85 -12l-5 35q-29 206 -115 322q-106 143 -292 143q-92 0 -124 -49q-23 -35 -23 -114v-427h27q66 0 118 24q39 18 74 53
q28 29 45.5 79t17.5 114h85v-630h-85q0 54 -18 105.5t-40 74.5q-37 40 -76 57q-47 21 -121 21h-27v-521q0 -93 37.5 -119t116.5 -26q186 0 303 148q100 127 132 337l5 33h85zM932 2039q35 -39 35 -77q0 -49 -65 -101q-29 -23 -68 -47l-244 -153l-60 69l198 240q46 56 83 80
q31 20 58 20q17 0 32.5 -7t30.5 -24z" />
    <glyph glyph-name="Ntilde" unicode="&#xd1;" horiz-adv-x="1499" 
d="M1440 1460h-19q-52 0 -73.5 -3.5t-45.5 -25.5q-31 -28 -43.5 -76t-12.5 -112l1 -1243h-166l-711 1203v-923q0 -61 19 -100q16 -32 51 -58q19 -14 51.5 -20.5t68.5 -6.5h19v-95h-496v95h20q39 0 63 6.5t52.5 29t43 61.5t14.5 88v1033q0 40 -19 76q-15 29 -34 43.5t-48 21
t-59 6.5h-28v95h440l619 -1038v751q0 56 -11 96t-37 61.5t-51.5 27.5t-66.5 6l-22 1v95h481v-95zM1153 1882l-64 -73q-50 -57 -84 -81q-46 -33 -106 -41q-18 -2 -24 -2q-28 0 -60 13q-15 6 -38 18l-114 61q-35 18 -66 18q-27 0 -54 -15q-17 -10 -27 -18t-39 -43l-49 -58
l-79 77l81 92q40 46 82 73.5t89 36.5q25 5 44 5q47 0 93 -26l109 -61q19 -10 37.5 -16.5t33.5 -6.5h16q8 3 11 4q33 10 59 35q11 10 47 54l28 33z" />
    <glyph glyph-name="Odieresis" unicode="&#xd6;" horiz-adv-x="1379" 
d="M1318 800q0 -346 -161 -576q-173 -247 -461 -247q-278 0 -453 243q-162 225 -162 543t169 560q182 260 453 260q275 0 452 -248q163 -229 163 -535zM958 797q0 207 -9 306q-16 178 -66 270q-63 117 -184 117q-113 0 -174 -115q-49 -93 -67 -269q-11 -110 -11 -305
q0 -215 10 -324q17 -187 66 -288q60 -124 171 -124q125 0 189 122q51 98 67 286q8 96 8 324zM1032 1812q0 -59 -42.5 -101.5t-101.5 -42.5q-57 0 -97 42t-40 100q0 60 40.5 102.5t98.5 42.5t100 -42t42 -101zM668 1810q0 -59 -42 -102t-102 -43q-58 0 -98 42t-40 101
q0 58 41 101t99 43t100 -41t42 -101z" />
    <glyph glyph-name="Udieresis" unicode="&#xdc;" horiz-adv-x="1491" 
d="M1424 1460h-22q-54 0 -100 -30q-31 -20 -48 -57t-17 -91v-783q0 -151 -34 -252q-43 -128 -142 -196q-115 -79 -308 -79q-215 0 -339 89q-98 70 -137 195q-26 83 -26 190q0 16 1 38t1 26v773q0 67 -8 93.5t-36 56.5q-16 17 -39.5 22t-53.5 5h-17h-21v95h671v-95h-22
q-46 0 -73 -5t-51 -26t-32.5 -52t-8.5 -94l-1 -801q0 -10 -0.5 -22t-0.5 -25q0 -83 14 -141q22 -91 77 -141q71 -65 194 -65q121 0 191 60q58 50 83 147q19 74 19 181v807q0 61 -13 94t-46 56q-23 16 -52 21.5t-58 5.5h-21v95h476v-95zM1109 1805q0 -59 -42.5 -101.5
t-101.5 -42.5q-57 0 -97 42t-40 100q0 60 40.5 102.5t98.5 42.5t100 -42t42 -101zM745 1803q0 -59 -42 -102t-102 -43q-58 0 -98 42t-40 101q0 58 41 101t99 43t100 -41t42 -101z" />
    <glyph glyph-name="aacute" unicode="&#xe1;" horiz-adv-x="1169" 
d="M1099 326q0 -177 -60.5 -257.5t-185.5 -80.5q-66 0 -118 34t-80 92l-8 17l-12 -14q-59 -67 -109 -96q-61 -36 -137 -36q-140 0 -231 92q-84 85 -84 192q0 113 75 194q62 67 185 120q68 30 231 82l51 16v38q0 157 -39 228q-43 78 -129 78q-71 0 -123 -30q-40 -23 -45 -44
q7 -1 15 -2q51 0 77 -16q50 -30 50 -118q0 -64 -40 -108.5t-105 -44.5q-74 0 -110 53q-31 45 -31 119q0 132 128 207q111 65 268 65q160 0 250 -61q114 -77 114 -250v-562q0 -39 12.5 -64t38.5 -25q34 0 47 47.5t13 143.5v15h92v-24zM611 332v259l-33 -13q-96 -40 -153 -134
q-49 -81 -49 -166q0 -161 113 -161q59 0 93 70q29 60 29 145zM768 1545q16 -17 24 -35.5t8 -34.5q0 -44 -58 -90q-20 -16 -62 -42l-219 -138l-54 62l178 216q32 39 57 60q37 30 69 30t57 -28z" />
    <glyph glyph-name="agrave" unicode="&#xe0;" horiz-adv-x="1168" 
d="M1112 326q0 -177 -60.5 -257.5t-185.5 -80.5q-66 0 -118 34t-80 92l-8 17l-12 -14q-59 -67 -109 -96q-61 -36 -137 -36q-140 0 -231 92q-84 85 -84 192q0 113 75 194q62 67 185 120q68 30 231 82l51 16v38q0 157 -39 228q-43 78 -129 78q-71 0 -123 -30q-40 -23 -45 -44
q7 -1 15 -2q51 0 77 -16q50 -30 50 -118q0 -64 -40 -108.5t-105 -44.5q-74 0 -110 53q-31 45 -31 119q0 132 128 207q111 65 268 65q160 0 250 -61q114 -77 114 -250v-562q0 -39 12.5 -64t38.5 -25q34 0 47 47.5t13 143.5v15h92v-24zM624 332v259l-33 -13q-96 -40 -153 -134
q-49 -81 -49 -166q0 -161 113 -161q59 0 93 70q29 60 29 145zM800 1268l-54 -62l-221 138q-57 36 -79 57q-40 38 -40 76q0 17 7 33.5t25 35.5q13 14 27.5 21t28.5 7q25 0 52 -17q33 -21 76 -73z" />
    <glyph glyph-name="acircumflex" unicode="&#xe2;" horiz-adv-x="1164" 
d="M1086 326q0 -177 -60.5 -257.5t-185.5 -80.5q-66 0 -118 34t-80 92l-8 17l-12 -14q-59 -67 -109 -96q-61 -36 -137 -36q-140 0 -231 92q-84 85 -84 192q0 113 75 194q62 67 185 120q68 30 231 82l51 16v38q0 157 -39 228q-43 78 -129 78q-71 0 -123 -30q-40 -23 -45 -44
q7 -1 15 -2q51 0 77 -16q50 -30 50 -118q0 -64 -40 -108.5t-105 -44.5q-74 0 -110 53q-31 45 -31 119q0 132 128 207q111 65 268 65q160 0 250 -61q114 -77 114 -250v-562q0 -39 12.5 -64t38.5 -25q34 0 47 47.5t13 143.5v15h92v-24zM598 332v259l-33 -13q-96 -40 -153 -134
q-49 -81 -49 -166q0 -161 113 -161q59 0 93 70q29 60 29 145zM873 1242l-91 -33l-165 284l-167 -283l-88 35l153 359q27 69 102 69q76 0 103 -70z" />
    <glyph glyph-name="adieresis" unicode="&#xe4;" horiz-adv-x="1176" 
d="M1099 326q0 -177 -60.5 -257.5t-185.5 -80.5q-66 0 -118 34t-80 92l-8 17l-12 -14q-59 -67 -109 -96q-61 -36 -137 -36q-140 0 -231 92q-84 85 -84 192q0 113 75 194q62 67 185 120q68 30 231 82l51 16v38q0 157 -39 228q-43 78 -129 78q-71 0 -123 -30q-40 -23 -45 -44
q7 -1 15 -2q51 0 77 -16q50 -30 50 -118q0 -64 -40 -108.5t-105 -44.5q-74 0 -110 53q-31 45 -31 119q0 132 128 207q111 65 268 65q160 0 250 -61q114 -77 114 -250v-562q0 -39 12.5 -64t38.5 -25q34 0 47 47.5t13 143.5v15h92v-24zM611 332v259l-33 -13q-96 -40 -153 -134
q-49 -81 -49 -166q0 -161 113 -161q59 0 93 70q29 60 29 145zM968 1355q0 -59 -42.5 -101.5t-101.5 -42.5q-57 0 -97 42t-40 100q0 60 40.5 102.5t98.5 42.5t100 -42t42 -101zM604 1353q0 -59 -42 -102t-102 -43q-58 0 -98 42t-40 101q0 58 41 101t99 43t100 -41t42 -101z
" />
    <glyph glyph-name="atilde" unicode="&#xe3;" horiz-adv-x="1171" 
d="M1099 326q0 -177 -60.5 -257.5t-185.5 -80.5q-66 0 -118 34t-80 92l-8 17l-12 -14q-59 -67 -109 -96q-61 -36 -137 -36q-140 0 -231 92q-84 85 -84 192q0 113 75 194q62 67 185 120q68 30 231 82l51 16v38q0 157 -39 228q-43 78 -129 78q-71 0 -123 -30q-40 -23 -45 -44
q7 -1 15 -2q51 0 77 -16q50 -30 50 -118q0 -64 -40 -108.5t-105 -44.5q-74 0 -110 53q-31 45 -31 119q0 132 128 207q111 65 268 65q160 0 250 -61q114 -77 114 -250v-562q0 -39 12.5 -64t38.5 -25q34 0 47 47.5t13 143.5v15h92v-24zM611 332v259l-33 -13q-96 -40 -153 -134
q-49 -81 -49 -166q0 -161 113 -161q59 0 93 70q29 60 29 145zM1011 1427l-64 -73q-50 -57 -84 -81q-46 -33 -106 -41q-18 -2 -24 -2q-28 0 -60 13q-15 6 -38 18l-114 61q-35 18 -66 18q-27 0 -54 -15q-17 -10 -27 -18t-39 -43l-49 -58l-79 77l81 92q40 46 82 73.5t89 36.5
q25 5 44 5q47 0 93 -26l109 -61q19 -10 37.5 -16.5t33.5 -6.5h16q8 3 11 4q33 10 59 35q11 10 47 54l28 33z" />
    <glyph glyph-name="aring" unicode="&#xe5;" horiz-adv-x="1163" 
d="M723 1415q0 -78 -45 -137q-48 -63 -120 -63q-71 0 -120.5 55.5t-49.5 129.5q0 77 46.5 135t118.5 58q71 0 120.5 -52.5t49.5 -125.5zM645 1408q0 38 -26.5 66.5t-63.5 28.5t-62 -31t-25 -72t24.5 -73t62.5 -32t64 31t26 72v10zM1086 326q0 -177 -60.5 -257.5
t-185.5 -80.5q-66 0 -118 34t-80 92l-8 17l-12 -14q-59 -67 -109 -96q-61 -36 -137 -36q-140 0 -231 92q-84 85 -84 192q0 113 75 194q62 67 185 120q68 30 231 82l51 16v38q0 157 -39 228q-43 78 -129 78q-71 0 -123 -30q-40 -23 -45 -44q7 -1 15 -2q51 0 77 -16
q50 -30 50 -118q0 -64 -40 -108.5t-105 -44.5q-74 0 -110 53q-31 45 -31 119q0 132 128 207q111 65 268 65q160 0 250 -61q114 -77 114 -250v-562q0 -39 12.5 -64t38.5 -25q34 0 47 47.5t13 143.5v15h92v-24zM598 332v259l-33 -13q-96 -40 -153 -134q-49 -81 -49 -166
q0 -161 113 -161q59 0 93 70q29 60 29 145z" />
    <glyph glyph-name="ccedilla" unicode="&#xe7;" horiz-adv-x="1041" 
d="M979 259l-29 -40q-71 -99 -133 -147q-72 -56 -176 -82q-28 -7 -48 -10t-47 -3l-101 -117l22 8q26 9 46 13.5t41 4.5h22q11 -3 16 -4q61 -13 102 -52t56 -100q4 -17 4 -37q0 -79 -73 -140q-68 -57 -162 -74q-32 -6 -57 -6q-24 0 -44.5 5t-46 18t-40.5 31q-18 22 -18 48
q0 8 2.5 22t21 32t40.5 18q5 0 13 -2q33 -10 56 -70q11 -28 33 -36.5t24 -8.5q11 -3 22 -3q8 0 13 1q36 6 53 36t17 74q0 40 -15 80.5t-53 64.5t-87 24q-32 0 -45.5 -1.5t-30.5 -13.5l-23 -15l-32 38l151 166q-187 52 -289 176q-109 133 -109 333q0 231 148.5 396.5
t356.5 165.5q29 0 66 -5q171 -24 246 -95q61 -58 61 -150q0 -56 -37.5 -97.5t-92.5 -41.5q-89 0 -118 62q-16 63 -31 126q-21 79 -83 103q-26 10 -49 10q-94 0 -141 -164q-36 -126 -36 -296q0 -158 61 -269q72 -131 201 -131q84 0 150 39q60 35 116 110l38 51z" />
    <glyph glyph-name="eacute" unicode="&#xe9;" horiz-adv-x="1048" 
d="M989 364l-7 -35q-33 -154 -127 -249q-104 -105 -256 -105q-223 0 -374 169q-144 161 -144 381q0 239 125 406q136 182 359 182q201 0 322 -170q102 -143 102 -317v-87h-587q0 -213 48 -327q56 -134 177 -134q100 0 173.5 74t95.5 192l8 43zM680 633v27v28q0 123 -17 201
q-30 136 -105 136q-86 0 -127 -137q-29 -96 -29 -217v-38h278zM780 1545q16 -17 24 -35.5t8 -34.5q0 -44 -58 -90q-20 -16 -62 -42l-219 -138l-54 62l178 216q32 39 57 60q37 30 69 30t57 -28z" />
    <glyph glyph-name="egrave" unicode="&#xe8;" horiz-adv-x="1049" 
d="M989 364l-7 -35q-33 -154 -127 -249q-104 -105 -256 -105q-223 0 -374 169q-144 161 -144 381q0 239 125 406q136 182 359 182q201 0 322 -170q102 -143 102 -317v-87h-587q0 -213 48 -327q56 -134 177 -134q100 0 173.5 74t95.5 192l8 43zM680 633v27v28q0 123 -17 201
q-30 136 -105 136q-86 0 -127 -137q-29 -96 -29 -217v-38h278zM761 1267l-54 -62l-221 138q-57 36 -79 57q-40 38 -40 76q0 17 7 33.5t25 35.5q13 14 27.5 21t28.5 7q25 0 52 -17q33 -21 76 -73z" />
    <glyph glyph-name="ecircumflex" unicode="&#xea;" horiz-adv-x="1049" 
d="M989 364l-7 -35q-33 -154 -127 -249q-104 -105 -256 -105q-223 0 -374 169q-144 161 -144 381q0 239 125 406q136 182 359 182q201 0 322 -170q102 -143 102 -317v-87h-587q0 -213 48 -327q56 -134 177 -134q100 0 173.5 74t95.5 192l8 43zM680 633v27v28q0 123 -17 201
q-30 136 -105 136q-86 0 -127 -137q-29 -96 -29 -217v-38h278zM864 1245l-91 -33l-165 284l-167 -283l-88 35l153 359q27 69 102 69q76 0 103 -70z" />
    <glyph glyph-name="edieresis" unicode="&#xeb;" horiz-adv-x="1043" 
d="M989 364l-7 -35q-33 -154 -127 -249q-104 -105 -256 -105q-223 0 -374 169q-144 161 -144 381q0 239 125 406q136 182 359 182q201 0 322 -170q102 -143 102 -317v-87h-587q0 -213 48 -327q56 -134 177 -134q100 0 173.5 74t95.5 192l8 43zM680 633v27v28q0 123 -17 201
q-30 136 -105 136q-86 0 -127 -137q-29 -96 -29 -217v-38h278zM894 1356q0 -59 -42.5 -101.5t-101.5 -42.5q-57 0 -97 42t-40 100q0 60 40.5 102.5t98.5 42.5t100 -42t42 -101zM530 1354q0 -59 -42 -102t-102 -43q-58 0 -98 42t-40 101q0 58 41 101t99 43t100 -41t42 -101z
" />
    <glyph glyph-name="iacute" unicode="&#xed;" horiz-adv-x="737" 
d="M670 0h-591l-1 87h13q26 0 45 7t46.5 23.5t36.5 44t9 66.5q0 11 -0.5 23t-0.5 24v577v20.5t1 20.5q0 27 -8 46.5t-33 32.5q-13 6 -27 8.5t-31 2.5q-16 -1 -22 -1h-23v91h434v-816q0 -74 8 -98.5t46 -47.5q18 -11 39.5 -17.5t46.5 -6.5h12v-87zM490 1552q16 -17 24 -35.5
t8 -34.5q0 -44 -58 -90q-20 -16 -62 -42l-219 -138l-54 62l178 216q32 39 57 60q37 30 69 30t57 -28z" />
    <glyph glyph-name="igrave" unicode="&#xec;" horiz-adv-x="731" 
d="M670 0h-591l-1 87h13q26 0 45 7t46.5 23.5t36.5 44t9 66.5q0 11 -0.5 23t-0.5 24v577v20.5t1 20.5q0 27 -8 46.5t-33 32.5q-13 6 -27 8.5t-31 2.5q-16 -1 -22 -1h-23v91h434v-816q0 -74 8 -98.5t46 -47.5q18 -11 39.5 -17.5t46.5 -6.5h12v-87zM543 1274l-54 -62l-221 138
q-57 36 -79 57q-40 38 -40 76q0 17 7 33.5t25 35.5q13 14 27.5 21t28.5 7q25 0 52 -17q33 -21 76 -73z" />
    <glyph glyph-name="icircumflex" unicode="&#xee;" horiz-adv-x="744" 
d="M676 0h-590l-1 87h13q32 0 58 12q8 4 34.5 19.5t35.5 43t9 66.5q0 11 -0.5 23t-0.5 24v577v20t1 20q0 28 -8 47.5t-33 32.5q-13 6 -27.5 8.5t-31.5 2.5q-16 -1 -22 -1h-22v91h434v-816q0 -73 8 -98.5t45 -47.5q17 -10 39.5 -17t46.5 -7h12v-87zM610 1238l-91 -33
l-165 284l-167 -283l-88 35l153 359q27 69 102 69q76 0 103 -70z" />
    <glyph glyph-name="idieresis" unicode="&#xef;" horiz-adv-x="732" 
d="M671 0h-591l-1 87h13q26 0 45 7t46.5 23.5t36.5 44t9 66.5q0 11 -0.5 23t-0.5 24v577v20.5t1 20.5q0 27 -8 46.5t-33 32.5q-13 6 -27 8.5t-31 2.5q-16 -1 -22 -1h-23v91h434v-816q0 -74 8 -98.5t46 -47.5q18 -11 39.5 -17.5t46.5 -6.5h12v-87zM647 1355
q0 -59 -42.5 -101.5t-101.5 -42.5q-57 0 -97 42t-40 100q0 60 40.5 102.5t98.5 42.5t100 -42t42 -101zM283 1353q0 -59 -42 -102t-102 -43q-58 0 -98 42t-40 101q0 58 41 101t99 43t100 -41t42 -101z" />
    <glyph glyph-name="ntilde" unicode="&#xf1;" horiz-adv-x="1243" 
d="M1180 0h-421v800q0 82 -14 115q-19 45 -76 45q-65 0 -116 -119t-51 -265v-345q0 -36 6.5 -62.5t26.5 -45.5q14 -14 43 -21t61 -7h17v-95h-581v95h13q69 0 98 21q21 16 29 37.5t8 70.5v645q0 35 -7.5 60t-25.5 37.5t-41.5 16.5t-45.5 4h-22v90h416v-162l34 43
q56 69 132 106q65 31 129 31q106 0 177 -76t71 -182v-584q0 -53 7 -83.5t27 -47t40.5 -22t53.5 -5.5h12v-95zM1023 1434l-65 -73q-49 -56 -83 -80q-46 -32 -104 -40q-18 -2 -25 -2q-25 0 -48 8q-13 4 -49 22l-114 60q-36 19 -66 19q-26 0 -53 -15q-18 -10 -35 -27
q-8 -8 -30 -34l-49 -58l-78 77l80 91q39 46 81.5 73.5t88.5 36.5q16 3 22 4q7 1 22 1q47 0 93 -26l107 -61q22 -11 37 -16.5t33 -5.5h16l12 4q34 10 59 34q11 10 46 54l28 32z" />
    <glyph glyph-name="oacute" unicode="&#xf3;" horiz-adv-x="1111" 
d="M1043 543q0 -227 -129 -390q-137 -174 -351 -174q-219 0 -358 170q-131 160 -131 385q0 228 131 397q139 179 349 179q212 0 353 -171q136 -165 136 -396zM722 537v82q0 126 -7 187q-12 102 -43 154q-38 63 -109 63q-69 0 -106 -53q-31 -45 -40.5 -124t-9.5 -202v-107
q0 -160 4 -217q9 -123 38 -185q37 -78 111 -78q71 0 110 58q32 47 44 143q9 70 9 179v13q0 19 -0.5 38t-0.5 38v11zM762 1556q16 -17 24 -35.5t8 -34.5q0 -44 -58 -90q-20 -16 -62 -42l-219 -138l-54 62l178 216q32 39 57 60q37 30 69 30t57 -28z" />
    <glyph glyph-name="ograve" unicode="&#xf2;" horiz-adv-x="1101" 
d="M1043 543q0 -227 -129 -390q-137 -174 -351 -174q-219 0 -358 170q-131 160 -131 385q0 228 131 397q139 179 349 179q212 0 353 -171q136 -165 136 -396zM722 537v82q0 126 -7 187q-12 102 -43 154q-38 63 -109 63q-69 0 -106 -53q-31 -45 -40.5 -124t-9.5 -202v-107
q0 -160 4 -217q9 -123 38 -185q37 -78 111 -78q71 0 110 58q32 47 44 143q9 70 9 179v13q0 19 -0.5 38t-0.5 38v11zM766 1267l-54 -62l-221 138q-57 36 -79 57q-40 38 -40 76q0 17 7 33.5t25 35.5q13 14 27.5 21t28.5 7q25 0 52 -17q33 -21 76 -73z" />
    <glyph glyph-name="ocircumflex" unicode="&#xf4;" horiz-adv-x="1116" 
d="M1043 543q0 -227 -129 -390q-137 -174 -351 -174q-219 0 -358 170q-131 160 -131 385q0 228 131 397q139 179 349 179q212 0 353 -171q136 -165 136 -396zM722 537v82q0 126 -7 187q-12 102 -43 154q-38 63 -109 63q-69 0 -106 -53q-31 -45 -40.5 -124t-9.5 -202v-107
q0 -160 4 -217q9 -123 38 -185q37 -78 111 -78q71 0 110 58q32 47 44 143q9 70 9 179v13q0 19 -0.5 38t-0.5 38v11zM838 1254l-91 -33l-162 281l-166 -280l-87 35l151 356q13 33 39 50t63 17q74 0 102 -69z" />
    <glyph glyph-name="odieresis" unicode="&#xf6;" horiz-adv-x="1101" 
d="M1043 543q0 -227 -129 -390q-137 -174 -351 -174q-219 0 -358 170q-131 160 -131 385q0 228 131 397q139 179 349 179q212 0 353 -171q136 -165 136 -396zM722 537v82q0 126 -7 187q-12 102 -43 154q-38 63 -109 63q-69 0 -106 -53q-31 -45 -40.5 -124t-9.5 -202v-107
q0 -160 4 -217q9 -123 38 -185q37 -78 111 -78q71 0 110 58q32 47 44 143q9 70 9 179v13q0 19 -0.5 38t-0.5 38v11zM909 1355q0 -59 -42.5 -101.5t-101.5 -42.5q-57 0 -97 42t-40 100q0 60 40.5 102.5t98.5 42.5t100 -42t42 -101zM545 1353q0 -59 -42 -102t-102 -43
q-58 0 -98 42t-40 101q0 58 41 101t99 43t100 -41t42 -101z" />
    <glyph glyph-name="otilde" unicode="&#xf5;" horiz-adv-x="1109" 
d="M1043 543q0 -227 -129 -390q-137 -174 -351 -174q-219 0 -358 170q-131 160 -131 385q0 228 131 397q139 179 349 179q212 0 353 -171q136 -165 136 -396zM722 537v82q0 126 -7 187q-12 102 -43 154q-38 63 -109 63q-69 0 -106 -53q-31 -45 -40.5 -124t-9.5 -202v-107
q0 -160 4 -217q9 -123 38 -185q37 -78 111 -78q71 0 110 58q32 47 44 143q9 70 9 179v13q0 19 -0.5 38t-0.5 38v11zM992 1434l-64 -73q-50 -57 -83 -81q-45 -32 -105 -40q-18 -2 -24 -2q-28 0 -60 13q-15 6 -38 18l-113 60q-35 19 -65 19q-27 0 -54 -15q-19 -11 -35 -27
q-9 -9 -30 -35l-49 -57l-78 77l80 91q79 91 170 109q16 3 22 4q7 1 22 1q47 0 92 -26l108 -60q19 -10 37.5 -16.5t33.5 -6.5h16q8 3 11 4q33 11 58 34q10 9 47 54l28 33z" />
    <glyph glyph-name="uacute" unicode="&#xfa;" horiz-adv-x="1231" 
d="M1166 -1h-401v122l-19 -20q-78 -85 -152 -113q-47 -18 -122 -18q-100 0 -180 81t-80 185v635q0 38 -4 58t-19.5 35.5t-36 19t-51.5 3.5h-12v91h409v-799q0 -115 22.5 -150.5t69.5 -35.5q84 0 123 129q29 97 29 249v383v15q0 30 -5 50.5t-21 36.5q-20 21 -44 26t-64 5h-12
v91h425v-865q0 -39 7.5 -63t32.5 -39q18 -11 35.5 -13.5t46.5 -2.5h23v-96zM776 1545q16 -17 24 -35.5t8 -34.5q0 -44 -58 -90q-20 -16 -62 -42l-219 -138l-54 62l178 216q32 39 57 60q37 30 69 30t57 -28z" />
    <glyph glyph-name="ugrave" unicode="&#xf9;" horiz-adv-x="1213" 
d="M1140 -1h-401v122l-19 -20q-78 -85 -152 -113q-47 -18 -122 -18q-100 0 -180 81t-80 185v635q0 38 -4 58t-19.5 35.5t-36 19t-51.5 3.5h-12v91h409v-799q0 -115 22.5 -150.5t69.5 -35.5q84 0 123 129q29 97 29 249v383v15q0 30 -5 50.5t-21 36.5q-20 21 -44 26t-64 5h-12
v91h425v-865q0 -39 7.5 -63t32.5 -39q18 -11 35.5 -13.5t46.5 -2.5h23v-96zM797 1267l-54 -62l-221 138q-57 36 -79 57q-40 38 -40 76q0 17 7 33.5t25 35.5q13 14 27.5 21t28.5 7q25 0 52 -17q33 -21 76 -73z" />
    <glyph glyph-name="ucircumflex" unicode="&#xfb;" horiz-adv-x="1226" 
d="M1153 -1h-401v122l-19 -20q-78 -85 -152 -113q-47 -18 -122 -18q-100 0 -180 81t-80 185v635q0 38 -4 58t-19.5 35.5t-36 19t-51.5 3.5h-12v91h409v-799q0 -115 22.5 -150.5t69.5 -35.5q84 0 123 129q29 97 29 249v383v15q0 30 -5 50.5t-21 36.5q-20 21 -44 26t-64 5h-12
v91h425v-865q0 -39 7.5 -63t32.5 -39q18 -11 35.5 -13.5t46.5 -2.5h23v-96zM869 1238l-91 -33l-165 284l-167 -283l-88 35l153 359q27 69 102 69q76 0 103 -70z" />
    <glyph glyph-name="udieresis" unicode="&#xfc;" horiz-adv-x="1231" 
d="M1166 -1h-401v122l-19 -20q-78 -85 -152 -113q-47 -18 -122 -18q-100 0 -180 81t-80 185v635q0 38 -4 58t-19.5 35.5t-36 19t-51.5 3.5h-12v91h409v-799q0 -115 22.5 -150.5t69.5 -35.5q84 0 123 129q29 97 29 249v383v15q0 30 -5 50.5t-21 36.5q-20 21 -44 26t-64 5h-12
v91h425v-865q0 -39 7.5 -63t32.5 -39q18 -11 35.5 -13.5t46.5 -2.5h23v-96zM954 1355q0 -59 -42.5 -101.5t-101.5 -42.5q-57 0 -97 42t-40 100q0 60 40.5 102.5t98.5 42.5t100 -42t42 -101zM590 1353q0 -59 -42 -102t-102 -43q-58 0 -98 42t-40 101q0 58 41 101t99 43
t100 -41t42 -101z" />
    <glyph glyph-name="dagger" unicode="&#x2020;" horiz-adv-x="951" 
d="M870 1096q0 -55 -37.5 -96.5t-82.5 -41.5q-23 0 -41 11l-103 62q-7 4 -15.5 10.5t-15.5 8.5q-6 2 -17 3t-18 1l-30 -1l-2 -57q0 -49 5 -76.5t24 -68.5q11 -25 23.5 -43.5t33.5 -39.5q-30 -60 -44 -98q-18 -50 -27 -108t-13 -111.5t-4 -114.5v-742h-77v739v31
q0 75 -1.5 104.5t-10.5 97.5t-32 127q-7 17 -34 77q20 21 35 42.5t27 47.5q17 39 23.5 67.5t6.5 67.5v59l-33 2q-19 0 -34 -5q-7 -2 -15.5 -7.5t-15.5 -10.5l-103 -63q-8 -5 -19.5 -8t-21.5 -3q-45 0 -82.5 41.5t-37.5 96.5q0 58 34.5 101.5t81.5 43.5q23 0 45 -13l108 -63
l26 -11q12 -5 19 -7t16 -2l34 -2l-2 40q0 12 -3 27l-6 30q-6 33 -13 56t-14 49l-47 174q-6 23 -6 46q0 60 33 106.5t87 46.5t88 -49.5t34 -111.5q0 -25 -6 -48l-44 -161q-1 -2 -16 -53q-9 -29 -13.5 -52t-6.5 -35.5t-2 -28.5l-1 -36h32q9 0 19.5 4t16.5 6q5 1 12 3.5t14 6.5
l108 63q21 12 44 12q45 0 81 -43t36 -100z" />
    <glyph glyph-name="degree" unicode="&#xb0;" horiz-adv-x="628" 
d="M556 1288q0 -105 -64 -182q-67 -81 -166 -81q-102 0 -173 81t-71 188q0 104 67 180.5t167 76.5q102 0 171 -78t69 -185zM495 1288q0 78 -51 136t-126 58q-73 0 -123 -57t-50 -133q0 -79 51.5 -137.5t127.5 -58.5q73 0 122 57.5t49 134.5z" />
    <glyph glyph-name="cent" unicode="&#xa2;" horiz-adv-x="846" 
d="M775 605q0 -56 -23.5 -109t-69.5 -96q-30 -26 -67 -46q-57 -30 -104 -30l-19 -2l1 -247h-58l5 251l-17 3q-143 20 -242 144q-102 128 -102 296q0 170 93 300.5t244 167.5l24 7l-5 225h58l-1 -223l26 -1q103 0 177 -69t74 -172q0 -61 -35 -107.5t-91 -46.5q-51 0 -86 42
t-35 98q0 76 37 108l82 32q1 13 -43.5 29.5t-81.5 16.5l-24 2v-769h21q41 0 70.5 13.5t60.5 42.5t49 79q12 35 17 71l4 33l61 -16v-27zM440 430v715l-13 -11q-39 -31 -64 -141t-25 -226q0 -109 21.5 -194t70.5 -134z" />
    <glyph glyph-name="sterling" unicode="&#xa3;" horiz-adv-x="1309" 
d="M1253 245l-9 -24q-38 -103 -116 -165t-175 -62q-59 0 -109 18q-39 14 -102 51l-18 11l-27 -15q-80 -44 -142 -63.5t-143 -19.5q-128 0 -221 57q-105 64 -105 173q0 90 68 146t171 56q97 0 174 -38q51 -25 150 -103l28 -22q23 36 33.5 69t10.5 73q0 58 -45 144
q-53 101 -122 134h-303v94h200l-23 23q-92 92 -134 164q-59 101 -59 214q0 182 120 304q124 126 315 126q121 0 214 -64q107 -74 107 -195q0 -70 -29 -115q-37 -58 -111 -58q-63 0 -101 48t-38 113q0 60 31 94q34 23 68 47q0 18 -46 32t-79 14q-81 0 -138.5 -64.5
t-57.5 -145.5q0 -85 59 -176q47 -72 143 -166l180 -168l29 -27h280v-94h-225q17 -46 23 -78.5t6 -80.5q0 -102 -38.5 -186.5t-105.5 -146.5l-18 -17l12 -9q26 -20 51.5 -28t59.5 -8q70 0 123 46q44 39 82 115l14 27zM596 146q6 18 -118 71q-66 28 -102 28q-50 0 -74 -19.5
t-24 -52.5q0 -42 43 -67t94 -25q12 -1 17 -1q47 0 103 25t61 41z" />
    <glyph glyph-name="section" unicode="&#xa7;" horiz-adv-x="1053" 
d="M987 -9q0 -168 -140 -286q-134 -113 -307 -113q-174 0 -291.5 80.5t-161.5 227.5q-8 24 -8 71q0 53 13 90q17 48 56 71q24 14 53 14q36 0 68 -21t49 -56q12 -25 12 -58q0 -32 -14 -76q-32 -100 -32 -120q0 -16 4.5 -31t15.5 -29q38 -51 103 -68q42 -11 128 -11
q96 0 167 65t71 158q0 63 -32 111q-39 59 -156 127l-308 180q-82 48 -120.5 122.5t-38.5 175.5q0 85 36 152q33 61 104 122l41 35l-59 61q-48 50 -68 100.5t-20 120.5q0 174 122 283q115 103 281 103q154 0 257.5 -67t159.5 -209q5 -13 8 -32.5t3 -36.5q0 -38 -11.5 -73
t-31.5 -53q-29 -26 -72 -26q-36 0 -69.5 19t-48.5 51q-6 12 -8.5 24t-2.5 28q0 21 8 52q18 71 18 90q0 25 -11 50.5t-34.5 48t-68 36.5t-96.5 14q-73 0 -124 -28q-61 -34 -82 -104q-8 -29 -8 -53q0 -58 36 -110q33 -48 95 -89l304 -202q95 -63 138 -121q54 -73 54 -167
q0 -84 -23 -144.5t-82 -110.5l-55 -46l29 -28q76 -73 111 -141q39 -76 39 -173zM767 559q-10 35 -34 61q-19 21 -56 45l-321 216l-11 -17q-22 -34 -34 -63.5t-12 -59.5q0 -17 5 -40q9 -40 40 -70q19 -18 69 -50l319 -202l18 32q26 45 26 90q0 26 -9 58z" />
    <glyph glyph-name="bullet" unicode="&#x2022;" horiz-adv-x="523" 
d="M274 477q-93 0 -145 67q-47 60 -47 151q0 93 49 160q54 74 143 74q92 0 147 -71q50 -65 50 -157q0 -91 -49 -154q-54 -70 -148 -70z" />
    <glyph glyph-name="paragraph" unicode="&#xb6;" horiz-adv-x="1404" 
d="M1329 1481l-37 -1q-62 0 -104 -43q-25 -26 -31.5 -55.5t-6.5 -80.5l-2 -1392q0 -60 4 -80q8 -40 37 -66q19 -17 38.5 -25.5t44.5 -8.5l52 -3v-67h-927v69l33 1q31 0 52.5 6.5t43.5 24.5q36 29 46 75q6 27 6 96v752h-105q-168 0 -279 124t-111 306t131.5 312.5
t315.5 130.5h799v-75zM581 751v729h-30q-109 0 -158 -123q-37 -93 -37 -244q0 -150 35 -241q48 -123 154 -123zM926 -274v1749h-127l-1 -1749h128z" />
    <glyph glyph-name="germandbls" unicode="&#xdf;" horiz-adv-x="1368" 
d="M1277 176q-40 -96 -138 -148q-92 -49 -215 -49t-226 76q-107 79 -107 180q0 19 2 29q7 44 23 71q20 32 54.5 47t64.5 15q56 0 94 -47q14 -17 19.5 -40.5t5.5 -52.5q0 -23 -3.5 -61.5t-3.5 -47.5q0 -35 10.5 -53.5t39 -24t46.5 -5.5q44 0 76 28q21 19 31.5 43.5t10.5 51.5
q0 45 -26 100q-20 42 -59 96l-283 380q-17 24 -24 48.5t-7 56.5q0 60 83 119q55 39 73 60q40 46 60 88q24 50 24 104q0 22 -4 41q-17 94 -61 143q-53 59 -149 59q-92 0 -138 -83q-38 -68 -38 -173v-1227h-436v63l35 4q14 0 21 2t25 10q32 15 44 47q9 24 9 67q0 11 -1 37.5
t-1 40.5l2 812q0 207 123 341q131 143 354 143q202 0 314 -53q137 -65 137 -205q0 -78 -56 -146q-2 -3 -106 -104q-57 -56 -57 -98q0 -28 18 -56q6 -9 16.5 -21.5t16.5 -20.5l182 -218q66 -80 106 -175.5t40 -181.5q0 -61 -21 -112z" />
    <glyph glyph-name="registered" unicode="&#xae;" horiz-adv-x="1665" 
d="M846 0q-242 0 -422 112q-164 102 -254 282q-85 170 -85 367q0 309 190 523q211 238 571 238q243 0 422 -112q164 -102 254 -282q85 -170 85 -367q0 -309 -190 -523q-212 -238 -571 -238zM846 81q321 0 509 212q170 192 170 468q0 177 -75 327q-81 162 -226 253
q-160 100 -378 100q-321 0 -509 -212q-170 -192 -170 -468q0 -177 75 -327q81 -162 226 -253q160 -100 378 -100zM1256 342l-10 1q-14 0 -40 2t-29 2q-22 0 -38.5 -2t-28.5 -3l-16 -1l-334 431l6 20l42 -2q84 0 151 46q73 50 73 125q-1 9 -1 13q-6 64 -36 102
q-34 43 -100 53q-23 3 -46 3q-36 0 -64 -3.5t-46 -8.5l-18 -5v-668q0 -14 3 -25.5t12 -22t23 -14t30 -3.5h14l28 -4v-34h-19q-42 3 -85 5.5t-62 2.5q-35 0 -72 -2.5t-78 -5.5h-21v36l34 3q27 0 39 3.5t21 12.5q17 18 17 48v625q0 24 -2.5 32t-13.5 22q-6 8 -30 12.5t-52 4.5
h-13v36h21q29 -2 72.5 -4t78.5 -2q64 0 122 1.5t100 3.5l20 1q77 0 133 -23q74 -31 98 -96q14 -37 14 -70q0 -52 -30 -99t-83 -82q-24 -16 -65 -30l-46 -14l-11 -2l269 -353q1 -2 12.5 -11.5t17.5 -12.5q18 -9 32 -9h7v-35z" />
    <glyph glyph-name="copyright" unicode="&#xa9;" horiz-adv-x="1661" 
d="M839 0q-243 0 -422 112q-163 102 -253 282q-85 170 -85 367q0 198 84 366q89 180 253 282q180 113 423 113q244 0 423 -112q163 -102 253 -282q85 -170 85 -367q0 -198 -84 -366q-90 -180 -253 -282q-181 -113 -424 -113zM839 81q321 0 510 212q170 191 170 468
q0 177 -75 327q-81 161 -227 253q-160 100 -378 100q-321 0 -509 -212q-170 -192 -170 -468q0 -177 75 -327q81 -162 226 -253q160 -100 378 -100zM1162 443l-21 -52l-28 -14q-42 -21 -105 -37q-77 -20 -141 -20q-197 0 -323.5 103t-145.5 277q-2 16 -3 31t-1 34
q0 180 115 296q97 98 238 124q45 7 96 7q42 0 79 -3.5t68.5 -10t85.5 -19.5q33 -8 63 -16l17 -6l-25 -179h-36v74l-1 13q0 25 -52 53q-46 24 -93 33q-18 4 -53.5 7.5t-50.5 3.5q-32 0 -64 -6q-133 -30 -200 -130q-60 -90 -60 -221q0 -21 1 -33t4 -39q17 -141 115.5 -235.5
t231.5 -94.5q87 0 152 17q49 13 100 40l28 15z" />
    <glyph glyph-name="trademark" unicode="&#x2122;" horiz-adv-x="1770" 
d="M1710 1521h-15q-29 0 -47.5 -3.5t-24.5 -10.5q-10 -13 -12 -18q-3 -8 -3 -31v-560q0 -17 2 -25t11 -17.5t21 -13t39 -3.5l26 -3v-31h-17q-38 3 -70.5 5t-61.5 2q-34 0 -70.5 -2.5t-64.5 -4.5h-18v33l30 2q22 0 32.5 2t21.5 13q15 15 15 43v523l-294 -627h-22l-294 623
v-519q0 -27 15 -43q8 -9 20 -12.5t39 -3.5l26 -3v-31h-17q-38 3 -70.5 5t-61.5 2q-18 0 -62 -5q-18 -2 -28 -2h-18v33l30 2q22 0 32.5 2t21.5 13q15 15 15 43v560q0 23 -2 30t-12 19q-6 6 -27 10t-46 4h-12v33h18q11 0 20 -1q44 -5 52 -5q23 0 63 3t42 3h12l281 -598
l111 229q37 77 57 116q47 93 75 157l30 77l6 19h16q13 0 24 -1q57 -5 67 -5q19 0 51 3t35 3h13v-33zM697 1557l-7 -177h-32l-8 69q-1 11 -3.5 20t-8.5 16q-10 11 -28 11l-170 4v-602q0 -14 2.5 -24t11 -20.5t21.5 -12.5t37 -2l25 -3v-31h-16q-38 3 -70.5 5t-61.5 2
q-36 0 -72 -2.5t-63 -4.5h-19v33l31 2q22 0 32.5 2t21.5 13q16 16 16 43v602l-168 -6q-16 0 -22 -6q-10 -12 -13 -31l-12 -78h-31l-7 176l19 -1q50 -1 135 -2.5t154 -1.5l287 4z" />
    <glyph glyph-name="acute" unicode="&#xb4;" horiz-adv-x="586" 
d="M485 1524q35 -39 35 -77q0 -49 -65 -101q-29 -23 -68 -47l-244 -153l-60 69l198 240q46 56 83 80q31 20 58 20q17 0 32.5 -7t30.5 -24z" />
    <glyph glyph-name="dieresis" unicode="&#xa8;" horiz-adv-x="786" 
d="M724 1393q0 -59 -42.5 -101.5t-101.5 -42.5q-57 0 -97 42t-40 100q0 60 40.5 102.5t98.5 42.5t100 -42t42 -101zM360 1391q0 -59 -42 -102t-102 -43q-58 0 -98 42t-40 101q0 58 41 101t99 43t100 -41t42 -101z" />
    <glyph glyph-name="notequal" unicode="&#x2260;" horiz-adv-x="1287" 
d="M1218 775h-432l-163 -334h589v-137h-660l-204 -392l-101 74l159 318h-344v137h414l168 334h-582v134h658l198 395l107 -71l-166 -324h359v-134z" />
    <glyph glyph-name="AE" unicode="&#xc6;" horiz-adv-x="2154" 
d="M994 110q26 14 41.5 41t15.5 73l-4 283h-408l-154 -228q-28 -42 -40 -73t-12 -50q0 -8 1 -13q2 -7 6 -16q8 -17 30 -25q35 -13 114 -13h20l-34 -95h-520l34 95h15q72 0 125 29q32 17 52 37q37 37 101 132l670 979l10 45q-15 39 -19.5 66t-22.5 43t-46 25t-66 9h-21v95
h1137l2 -590l-85 -12l-5 35q-29 206 -115 322q-106 143 -292 143q-92 0 -124 -49q-23 -35 -23 -114v-427h27q66 0 118 24q39 18 74 53q28 29 45.5 79t17.5 114h85v-630h-85q0 54 -18 105.5t-40 74.5q-37 40 -76 57q-47 21 -121 21h-27v-521q0 -93 37.5 -119t116.5 -26
q186 0 303 148q100 127 132 337l5 33h85l-17 -613h-1209l34 95q39 1 60 2q63 5 78 16zM1050 605l-1 495l-341 -495h342z" />
    <glyph glyph-name="Oslash" unicode="&#xd8;" horiz-adv-x="1395" 
d="M1318 800q0 -346 -161 -576q-173 -247 -461 -247q-116 0 -215.5 46.5t-177.5 129.5l-87 -129h-170l168 247q-63 105 -98 232t-35 260q0 318 169 560q182 260 453 260q94 0 174 -28t152 -84l105 154h163l-169 -251q92 -111 141 -263t49 -311zM912 1299q-28 91 -76 138
q-54 53 -137 53q-113 0 -174 -115q-49 -93 -67 -269q-11 -110 -11 -305v-187zM958 797q0 117 -1.5 173t-9.5 137l-482 -714q23 -151 72 -232q59 -96 157 -96q125 0 189 122q51 98 67 286q8 96 8 324z" />
    <glyph glyph-name="infinity" unicode="&#x221e;" horiz-adv-x="1824" 
d="M1755 591q0 -161 -106 -266q-100 -99 -238 -99q-92 0 -190 40q-108 44 -193 124l-108 102l-108 -102q-85 -78 -193 -123q-99 -41 -190 -41q-138 0 -238 98q-106 104 -106 267q0 140 103.5 237.5t246.5 97.5q89 0 176.5 -40t172.5 -117l135 -121l137 121q86 76 170 115
q90 42 178 42q143 0 247 -97.5t104 -237.5zM1634 582q0 93 -69.5 154.5t-169.5 61.5q-68 0 -126 -28q-38 -18 -112 -73l-162 -122l150 -140q57 -52 113.5 -73t134.5 -21q108 0 174.5 69.5t66.5 171.5zM845 575l-162 122q-74 55 -112 73q-58 28 -126 28q-98 0 -164.5 -60.5
t-74.5 -155.5q0 -102 66 -171.5t175 -69.5q78 0 135 21.5t113 72.5z" />
    <glyph glyph-name="plusminus" unicode="&#xb1;" horiz-adv-x="1050" 
d="M993 671h-403v-400h-103v400h-399l2 113h397v401h107v-401h399v-113zM984 -3h-912v86h912v-86z" />
    <glyph glyph-name="lessequal" unicode="&#x2264;" horiz-adv-x="1210" 
d="M1149 1400l-933 -480l930 -492v-150l-1073 572v147l1076 559v-156zM1143 0h-1070v138h1070v-138z" />
    <glyph glyph-name="greaterequal" unicode="&#x2265;" horiz-adv-x="1229" 
d="M1155 850l-1073 -572v150l930 492l-933 480v156l1076 -559v-147zM1155 0h-1070v138h1070v-138z" />
    <glyph glyph-name="yen" unicode="&#xa5;" horiz-adv-x="1371" 
d="M1312 1487q-34 -6 -51.5 -11t-40.5 -21q-51 -35 -87 -86q-31 -44 -61 -120l-114 -284h265v-101h-308l-73 -176h386v-104h-384v-310q0 -63 11 -99q15 -48 56 -75q27 -18 51.5 -22.5t63.5 -4.5h9v-77h-666v75l20 1q40 0 75 10.5t50 27.5q25 28 33 58.5t8 73.5q0 12 -0.5 25
t-0.5 27v285h-367v103h353l-78 177h-276v101h241l-158 332q-34 74 -36 78q-22 40 -53 67q-16 14 -28.5 22t-31.5 12l-27 7v77h581v-71h-8q-20 0 -33.5 -5t-30.5 -26q-12 -14 -17 -29.5t-5 -33.5q0 -29 17 -70l210 -482l168 442q12 29 18 50t6 42q0 29 -15 54q-23 39 -67 50
l-34 8v67h429v-64z" />
    <glyph glyph-name="mu" unicode="&#xb5;" horiz-adv-x="1351" 
d="M1278 221l-14 -68q-17 -82 -100 -141q-76 -54 -148 -54q-13 0 -19 1q-74 10 -133 72q-63 66 -63 147l-56 -57q-67 -66 -146 -110.5t-137 -44.5q-56 0 -125 31q-82 37 -128 98v-78q0 -65 24 -133q54 -154 54 -229q0 -57 -29 -99q-32 -46 -82 -46q-47 0 -77 39.5t-30 91.5
q0 66 18 125q46 151 48 168.5t3.5 30t1.5 34.5v1109h188v-763q0 -94 56.5 -166t144.5 -72q89 0 179 70q98 76 98 165v766h183v-863q0 -67 30 -121q34 -61 86 -61q7 0 19 2q38 7 62 32t35 65l17 59h40z" />
    <glyph glyph-name="partialdiff" unicode="&#x2202;" horiz-adv-x="1104" 
d="M1035 823q0 -201 -59 -393q-63 -206 -174 -331q-123 -139 -279 -139h-21q-8 1 -12 1q-188 18 -294 134q-102 112 -102 283q0 188 119 324q123 141 303 141q79 0 141 -25q52 -21 127 -75l64 -45l17 107q10 60 10 129q0 215 -89 365q-101 170 -277 170q-52 0 -104 -17.5
t-103 -34.5l-38 -12l-80 99l90 26q62 18 101.5 24.5t97.5 6.5q256 0 416 -234q146 -214 146 -504zM831 620l-57 55q-62 59 -140 75q-6 2 -21 3.5t-29 1.5q-103 0 -186 -90q-74 -80 -108 -204q-18 -66 -18 -137q0 -109 43 -186q48 -86 142 -115q30 -9 57 -9q112 0 192 149
q62 116 95 293z" />
    <glyph glyph-name="summation" unicode="&#x3a3;" horiz-adv-x="1573" 
d="M1513 253q-25 -75 -37 -121q-15 -56 -26.5 -124.5t-17 -116t-5.5 -108.5l-151 29h-1216l754 829l-741 923l138 -13h1151l2 -338h-44q0 61 -17.5 103t-60 80.5t-96.5 50.5q-36 8 -113 8h-621l598 -720l-640 -719h854q43 0 72 11.5t68 40.5q50 38 76 82t26 103h47z" />
    <glyph glyph-name="product" unicode="&#x220f;" horiz-adv-x="1828" 
d="M1760 -189h-663v40l55 2q44 0 70 6t50 30q19 19 25.5 42t6.5 53q0 12 -0.5 24t-0.5 25v1399h-775v-1386q0 -61 8 -91q12 -44 48 -71q26 -20 50.5 -24t71.5 -4h42v-45h-663v47h53q41 0 66.5 5t50.5 24q29 23 39 59q7 25 7 73v29v1261q0 94 -67 151q-25 21 -48.5 32.5
t-53.5 14.5l-36 3v45h1664v-48l-47 -2q-29 0 -53 -11q-18 -8 -47 -31q-41 -33 -54.5 -76.5t-13.5 -108.5v-1248q0 -54 6 -78q10 -38 39 -65q25 -23 53.5 -31.5t66.5 -8.5l50 -1v-35z" />
    <glyph glyph-name="pi" unicode="&#x3c0;" horiz-adv-x="1316" 
d="M1255 344l-6 -50q-16 -130 -92 -216q-82 -93 -200 -93q-105 0 -156 107q-42 89 -42 231q0 22 2 48.5t4 51.5l53 487h-265l-91 -720q-11 -85 -48 -146q-44 -73 -104 -73h-10q-7 1 -19 4q-39 11 -60 27q-26 20 -35 53q-2 7 -3 17t-1 17q0 43 34 82q102 118 106 128
q17 38 24 55q13 30 15 57l53 490h-73h-36q-27 0 -38 -1.5t-33 -10.5q-39 -16 -77 -61q-31 -36 -38 -60l-39 15l15 32q52 119 67 143q42 68 110 103q38 18 72.5 26t75.5 8h820v-185h-297l-30 -543q0 -76 38 -131q42 -61 109 -61q53 0 91 37t51 93l9 39h44z" />
    <glyph glyph-name="integral" unicode="&#x222b;" horiz-adv-x="673" 
d="M606 1636q-5 -33 -31 -55t-61 -22q-20 0 -41 16q-31 23 -39 27t-16 4q-18 0 -25.5 -26t-7.5 -77t9 -151q20 -223 20 -271v-656q0 -145 -11 -255q-17 -174 -59 -271q-54 -126 -147 -126q-21 0 -48.5 7t-52.5 34t-25 58q0 35 23.5 58.5t57.5 23.5q27 0 48.5 -27.5
t33.5 -30.5t15 -3q28 0 39 49t11 134q0 43 -2 96q-5 132 -5 156v913q0 125 13 219q17 123 56 191q48 83 126 83q47 0 85.5 -28t33.5 -70z" />
    <glyph glyph-name="ordfeminine" unicode="&#xaa;" horiz-adv-x="743" 
d="M670 1091q0 -105 -35.5 -152.5t-110.5 -47.5q-38 0 -69.5 20.5t-47.5 54.5l-5 10l-7 -9q-35 -40 -64 -57q-36 -21 -81 -21q-83 0 -137 54q-50 50 -50 114q0 67 44 115q36 39 110 71q46 20 137 49l30 9v23q0 93 -24 137t-75 44q-42 0 -73 -18q-24 -14 -27 -26q6 -1 13 -1
q28 0 44 -11q27 -19 27 -68q0 -38 -23.5 -64.5t-62.5 -26.5q-43 0 -65 32q-18 27 -18 70q0 79 75 123q65 38 159 38q95 0 148 -36q67 -45 67 -148v-333q0 -25 7.5 -39t23.5 -14q20 0 27.5 28t7.5 85v9h55v-14zM381 1095v153l-20 -8q-57 -23 -90 -78q-29 -48 -29 -99
q0 -49 15 -71t48 -25q38 0 57 38.5t19 89.5zM653 691h-555v144h555v-144z" />
    <glyph glyph-name="ordmasculine" unicode="&#xba;" horiz-adv-x="715" 
d="M640 1221q0 -131 -74 -225q-79 -101 -203 -101q-127 0 -207 98q-75 92 -75 223q0 132 75 229q80 103 202 103q123 0 204 -98q78 -94 78 -229zM455 1217v45q0 110 -13 159q-20 77 -79 77q-58 0 -77 -67q-13 -45 -13 -156v-58q0 -138 9 -184q18 -93 79 -93q59 0 80 72
q14 48 14 150v55zM636 708h-555v144h555v-144z" />
    <glyph glyph-name="Omega" unicode="&#x3a9;" horiz-adv-x="1644" 
d="M1570 -3h-624l31 307q149 68 224 200q71 125 71 299q0 216 -82 325q-105 139 -360 139q-239 0 -354 -137q-99 -118 -99 -327q0 -174 71 -299q75 -132 224 -200l31 -307h-624v324h40q0 -23 4.5 -40t15.5 -34q18 -28 46 -40.5t65 -12.5h341v63q-202 35 -328.5 188.5
t-126.5 360.5q0 246 197 389q188 136 493 136q319 0 503 -137.5t184 -387.5q0 -208 -126 -361t-330 -188v-63h342q38 0 65 12t45 41q12 16 16 34t4 40h41v-324z" />
    <glyph glyph-name="ae" unicode="&#xe6;" horiz-adv-x="1584" 
d="M1524 364l-7 -35q-33 -154 -127 -249q-104 -105 -256 -105q-136 0 -248 63q-80 45 -140 117q-22 31 -44 63l-67 -101q-59 -67 -109 -96q-61 -36 -137 -36q-140 0 -231 92q-84 85 -84 192q0 113 75 194q62 67 185 120q68 30 231 82l51 16v38v30t1 31q0 140 -45 191
q-40 46 -124 54q-35 0 -75 -12q-67 -20 -93 -62q2 -1 4 -1h17q47 0 75 -20q46 -33 46 -115q0 -64 -40 -108.5t-105 -44.5q-74 0 -110 53q-31 45 -31 119q0 129 128 205q113 67 268 67q83 0 154 -27t120 -74q55 54 132 81t162 27q201 0 322 -170q102 -143 102 -317v-87h-587
q0 -213 48 -327q56 -134 177 -134q100 0 173.5 74t95.5 192l8 43zM1215 633v27v28q0 123 -17 201q-30 136 -105 136q-86 0 -127 -137q-29 -96 -29 -217v-38h278zM611 332v259l-33 -13q-96 -40 -153 -134q-49 -81 -49 -166q0 -161 113 -161q59 0 93 70q29 60 29 145z" />
    <glyph glyph-name="oslash" unicode="&#xf8;" horiz-adv-x="1116" 
d="M1043 543q0 -227 -129 -390q-137 -174 -351 -174q-219 0 -358 170q-131 160 -131 385q0 228 131 397q139 179 349 179q212 0 353 -171q136 -165 136 -396zM722 537v82q0 126 -7 187q-12 102 -43 154q-38 63 -109 63q-69 0 -106 -53q-31 -45 -40.5 -124t-9.5 -202v-107
q0 -160 4 -217q9 -123 38 -185q37 -78 111 -78q71 0 110 58q32 47 44 143q9 70 9 179v13q0 19 -0.5 38t-0.5 38v11zM1041 1123l-854 -1130h-134l860 1130h128z" />
    <glyph glyph-name="questiondown" unicode="&#xbf;" horiz-adv-x="948" 
d="M530 971q-78 0 -124 58q-42 53 -42 130t41 130q46 59 125 59q78 0 123 -57q41 -52 41 -128q0 -78 -41 -132q-46 -60 -123 -60zM888 98q0 -158 -100 -255q-105 -102 -285 -102q-171 0 -289 93q-128 100 -128 266q0 109 64 203q36 53 136 148q94 90 125.5 143.5t43.5 112
t12 135.5v26h111v-56q0 -100 -10 -160t-35 -107q-44 -71 -87 -142q-48 -102 -48 -263q0 -129 35 -199q46 -93 157 -93q58 0 118 47.5t60 79.5h-12q-20 -7 -33 -7q-8 0 -13 1q-56 12 -82.5 49.5t-33.5 94.5q-2 16 -2 25q0 69 39.5 121t100.5 52q71 0 116 -70q40 -63 40 -143z
" />
    <glyph glyph-name="exclamdown" unicode="&#xa1;" horiz-adv-x="476" 
d="M246 977q-73 0 -117 59q-39 53 -39 129q0 75 38 125q43 56 118 56q71 0 114 -60q39 -54 39 -132q0 -73 -37 -122q-41 -55 -116 -55zM408 -39q0 -86 -36 -141q-43 -66 -126 -66q-75 0 -119 66q-40 60 -40 144q0 79 8 155q5 44 19 139l92 578h99l79 -578
q11 -76 17.5 -146.5t6.5 -150.5z" />
    <glyph glyph-name="logicalnot" unicode="&#xac;" horiz-adv-x="1674" 
d="M1593 0h-125v532h-1399v117h1524v-649z" />
    <glyph glyph-name="radical" unicode="&#x221a;" horiz-adv-x="1140" 
d="M1075 1700l-292 -1799l-480 948l-182 -93l-29 64l280 133l386 -758l251 1513z" />
    <glyph glyph-name="florin" unicode="&#x192;" horiz-adv-x="1000" 
d="M959 1624q-29 -78 -110 -78q-17 0 -29 9q-21 17 -41 35q-11 6 -20 6q-46 0 -71 -235q-16 -152 -31 -213l-11 -43h210l-12 -86h-221l-127 -636q-27 -137 -64 -254q-54 -172 -120 -272q-84 -127 -181 -127q-15 0 -23 1t-28.5 7t-39 29t-18.5 49q0 9 3 20q12 35 38 56t61 21
q27 0 43 -27.5t30 -32.5q8 -2 12 -2q35 0 64 76q23 60 45 172q17 94 35 188l146 734h-230l5 87h258l12 57q29 143 67 253q48 139 104 214q68 90 147 90q37 0 68.5 -24t31.5 -56q0 -9 -3 -18z" />
    <glyph glyph-name="approxequal" unicode="&#x2248;" horiz-adv-x="1392" 
d="M1323 815l-46 -53q-60 -69 -128 -101.5t-158 -32.5q-57 0 -116 18t-116 37l-190 52q-39 11 -77.5 21.5t-72.5 10.5q-20 0 -48 -5q-54 -10 -90 -31t-78 -64l-38 -41l-99 64l33 33q60 64 120.5 97.5t145.5 47.5q38 6 69 6q42 0 88 -10q30 -6 95 -26l167 -51q50 -16 100 -31
t103 -15q65 0 111 20t92 68l41 43zM1323 447l-46 -52q-61 -70 -128 -102.5t-158 -32.5q-57 0 -116 18t-116 37l-190 53q-39 11 -77.5 21.5t-72.5 10.5q-20 0 -48 -5q-53 -10 -92 -33q-34 -20 -76 -63l-38 -41l-99 63l33 35q61 65 120.5 97.5t145.5 46.5q38 6 69 6
q42 0 88 -10q30 -6 95 -26l167 -50q63 -22 90 -31q46 -15 89 -15q16 0 24 1q65 0 111.5 19t91.5 67l41 44z" />
    <glyph glyph-name="Delta" unicode="&#x2206;" horiz-adv-x="1530" 
d="M1458 -1h-1384l739 1553zM1184 101l-458 1083l-508 -1083h966z" />
    <glyph glyph-name="guillemotleft" unicode="&#xab;" horiz-adv-x="1150" 
d="M1083 823l-315 -226l308 -219v-228l-437 341v219l444 328v-215zM526 823l-315 -226l308 -219v-228l-437 341v219l444 328v-215z" />
    <glyph glyph-name="guillemotright" unicode="&#xbb;" horiz-adv-x="1146" 
d="M1087 491l-437 -341v228l308 219l-315 226v215l444 -328v-219zM530 491l-437 -341v228l309 219l-316 226v215l444 -328v-219z" />
    <glyph glyph-name="ellipsis" unicode="&#x2026;" horiz-adv-x="1657" 
d="M1416 -24q-78 0 -123 57q-41 52 -41 128q0 78 41 132q46 60 123 60q78 0 124 -59q42 -54 42 -130t-41 -129q-46 -59 -125 -59zM809 -24q-78 0 -123 57q-41 52 -41 128q0 78 41 132q46 60 123 60q78 0 124 -59q42 -54 42 -130t-41 -129q-46 -59 -125 -59zM244 -24
q-78 0 -123 57q-41 52 -41 128q0 78 41 132q46 60 123 60q78 0 124 -59q42 -54 42 -130t-41 -129q-46 -59 -125 -59z" />
    <glyph glyph-name="nonbreakingspace" unicode="&#xa0;" horiz-adv-x="855" 
 />
    <glyph glyph-name="Agrave" unicode="&#xc0;" horiz-adv-x="1574" 
d="M1506 0h-681v95h18q55 0 87.5 4t53.5 17q13 9 20.5 22t7.5 34q0 23 -12 58l-106 283h-408l-72 -228q-4 -13 -9.5 -38t-5.5 -44q0 -27 8 -46q4 -9 17.5 -25t38.5 -24q40 -13 118 -13h20v-95h-520v95h15q71 0 114 29q22 14 40 45q26 43 53 124l430 1291h109l485 -1344
q22 -61 40 -88q14 -21 37 -36q33 -21 85 -21h17v-95zM862 611l-178 495l-164 -495h342zM1062 1730l-60 -69l-245 153q-62 38 -88 63q-45 42 -45 85q0 18 8.5 37.5t27.5 39.5q28 31 62 31t76 -33q29 -23 66 -67z" />
    <glyph glyph-name="Atilde" unicode="&#xc3;" horiz-adv-x="1564" 
d="M1506 0h-681v95h18q55 0 87.5 4t53.5 17q13 9 20.5 22t7.5 34q0 23 -12 58l-106 283h-408l-72 -228q-4 -13 -9.5 -38t-5.5 -44q0 -27 8 -46q4 -9 17.5 -25t38.5 -24q40 -13 118 -13h20v-95h-520v95h15q71 0 114 29q22 14 40 45q26 43 53 124l430 1291h109l485 -1344
q22 -61 40 -88q14 -21 37 -36q33 -21 85 -21h17v-95zM862 611l-178 495l-164 -495h342zM1225 1882l-64 -73q-50 -57 -84 -81q-46 -33 -106 -41q-18 -2 -24 -2q-28 0 -60 13q-15 6 -38 18l-114 61q-35 18 -66 18q-27 0 -54 -15q-17 -10 -27 -18t-39 -43l-49 -58l-79 77l81 92
q40 46 82 73.5t89 36.5q25 5 44 5q47 0 93 -26l109 -61q19 -10 37.5 -16.5t33.5 -6.5h16q8 3 11 4q33 10 59 35q11 10 47 54l28 33z" />
    <glyph glyph-name="Otilde" unicode="&#xd5;" horiz-adv-x="1389" 
d="M1318 800q0 -346 -161 -576q-173 -247 -461 -247q-278 0 -453 243q-162 225 -162 543t169 560q182 260 453 260q275 0 452 -248q163 -229 163 -535zM958 797q0 207 -9 306q-16 178 -66 270q-63 117 -184 117q-113 0 -174 -115q-49 -93 -67 -269q-11 -110 -11 -305
q0 -215 10 -324q17 -187 66 -288q60 -124 171 -124q125 0 189 122q51 98 67 286q8 96 8 324zM1134 1882l-64 -73q-50 -57 -84 -81q-46 -33 -106 -41q-18 -2 -24 -2q-28 0 -60 13q-15 6 -38 18l-114 61q-35 18 -66 18q-27 0 -54 -15q-17 -10 -27 -18t-39 -43l-49 -58l-79 77
l81 92q40 46 82 73.5t89 36.5q25 5 44 5q47 0 93 -26l109 -61q19 -10 37.5 -16.5t33.5 -6.5h16q8 3 11 4q33 10 59 35q11 10 47 54l28 33z" />
    <glyph glyph-name="OE" unicode="&#x152;" horiz-adv-x="2090" 
d="M2022 613l-17 -613h-1142q-75 -23 -167 -23q-278 0 -453 243q-162 225 -162 543t169 560q182 260 453 260q89 0 171 -28h1111l2 -590l-85 -12l-5 35q-29 206 -115 322q-106 143 -292 143q-92 0 -124 -49q-23 -35 -23 -114v-427h27q66 0 118 24q39 18 74 53q28 29 45.5 79
t17.5 114h85v-630h-85q0 54 -18 105.5t-40 74.5q-37 40 -76 57q-47 21 -121 21h-27v-521q0 -93 37.5 -119t116.5 -26q186 0 303 148q100 127 132 337l5 33h85zM958 797q0 207 -9 306q-16 178 -66 270q-63 117 -184 117q-113 0 -174 -115q-49 -93 -67 -269q-11 -110 -11 -305
q0 -215 10 -324q17 -187 66 -288q60 -124 171 -124q125 0 189 122q51 98 67 286q8 96 8 324z" />
    <glyph glyph-name="oe" unicode="&#x153;" horiz-adv-x="1707" 
d="M1629 386l-7 -35q-33 -154 -127 -249q-104 -105 -256 -105q-103 0 -189 34.5t-154 100.5q-64 -72 -148 -112.5t-185 -40.5q-219 0 -358 170q-131 160 -131 385q0 228 131 397q139 179 349 179q91 0 171 -33t143 -95q64 73 148.5 113t188.5 40q201 0 322 -170
q102 -143 102 -317v-87h-586v-18l-1 -27q0 -188 52 -296q58 -120 173 -120q100 0 173.5 74t95.5 192l8 43zM1320 655v27v28q0 123 -17 201q-30 136 -105 136q-86 0 -127 -137q-29 -96 -29 -217v-38h278zM722 537v82q0 126 -7 187q-12 102 -43 154q-38 63 -109 63
q-69 0 -106 -53q-31 -45 -40.5 -124t-9.5 -202v-107q0 -160 4 -217q9 -123 38 -185q37 -78 111 -78q71 0 110 58q32 47 44 143q9 70 9 179v13q0 19 -0.5 38t-0.5 38v11z" />
    <glyph glyph-name="endash" unicode="&#x2013;" horiz-adv-x="944" 
d="M863 592h-790v204h790v-204z" />
    <glyph glyph-name="emdash" unicode="&#x2014;" horiz-adv-x="1699" 
d="M1628 592h-1555v204h1555v-204z" />
    <glyph glyph-name="quotedblleft" unicode="&#x201c;" horiz-adv-x="910" 
d="M806 1537l-17 -21q-40 -51 -65.5 -95.5t-48.5 -102.5q-18 -48 -25 -70q-11 -35 -16 -77q17 8 29 10t37 2q68 0 110 -60q38 -55 38 -132q0 -76 -37 -128q-41 -58 -115 -58q-87 0 -133.5 65.5t-46.5 169.5q0 134 55 276q48 125 136 246l19 27zM374 1546l-18 -27
q-37 -48 -65 -97q-24 -41 -49 -101q-18 -45 -25.5 -77t-13.5 -84q14 7 28.5 13.5t41.5 6.5q72 0 114 -58q38 -52 38 -130q0 -77 -38 -130q-42 -59 -114 -59q-84 0 -138 78q-49 70 -49 162q0 138 53 277q47 124 135 245l19 27z" />
    <glyph glyph-name="quotedblright" unicode="&#x201d;" horiz-adv-x="935" 
d="M858 1361q0 -149 -42 -280q-45 -140 -138 -257l-24 -30l-80 53l17 21q40 51 66.5 96.5t47.5 101.5q17 45 25.5 79.5t13.5 80.5l-28 -14q-14 -5 -42 -5q-72 0 -115 60q-39 54 -39 131t38 129q42 58 116 58q93 0 142 -70q42 -60 42 -154zM423 1361q0 -149 -42 -280
q-45 -140 -139 -257l-24 -30l-79 53l16 21q42 53 67.5 96.5t46.5 101.5q16 43 25 78.5t15 81.5l-28 -14q-14 -5 -43 -5q-72 0 -115 59q-39 54 -39 131q0 76 38 129q43 59 116 59q94 0 143 -70q42 -60 42 -154z" />
    <glyph glyph-name="quoteleft" unicode="&#x2018;" horiz-adv-x="491" 
d="M373 1532l-17 -21q-40 -51 -65 -94q-28 -48 -49 -104q-17 -45 -25.5 -79.5t-13.5 -80.5l28 14q14 5 42 5q72 0 115 -60q39 -54 39 -131t-38 -129q-42 -58 -116 -58q-93 0 -142 70q-42 60 -42 154q0 149 43.5 284.5t136.5 252.5l24 30z" />
    <glyph glyph-name="quoteright" unicode="&#x2019;" horiz-adv-x="488" 
d="M423 1361q0 -150 -42 -280q-45 -140 -139 -257l-24 -30l-79 52l16 21q43 55 66 94q27 45 48 104q16 43 25 79.5t15 81.5q-14 -7 -29 -13.5t-42 -6.5q-72 0 -115 59q-39 54 -39 131q0 76 38 129q43 59 116 59q94 0 143 -69q42 -60 42 -154z" />
    <glyph glyph-name="divide" unicode="&#xf7;" horiz-adv-x="1441" 
d="M713 839q-65 0 -101.5 41t-36.5 97q0 57 34 95q38 43 104 43q65 0 103 -43q35 -39 35 -95q0 -57 -34 -95q-38 -43 -104 -43zM1373 563h-1293l-1 147h1292zM713 161q-64 0 -103 43q-34 38 -34 94t34 95q38 43 103 43t103 -43q35 -39 35 -95t-34 -94q-38 -43 -104 -43z" />
    <glyph glyph-name="lozenge" unicode="&#x25ca;" horiz-adv-x="1062" 
d="M1007 764l-395 -767h-130l-402 779l402 740h130zM888 764l-343 640l-343 -633l347 -677z" />
    <glyph glyph-name="ydieresis" unicode="&#xff;" horiz-adv-x="1217" 
d="M1145 987h-25q-29 0 -45.5 -8.5t-31 -27.5t-35.5 -75q-14 -39 -20 -56l-295 -820q-45 -126 -78 -194q-52 -105 -108 -156q-70 -63 -164 -63t-155.5 68.5t-61.5 171.5q0 67 43 118.5t107 51.5q61 0 98 -50q34 -46 34 -112q0 -68 -33 -102l-72 -48q1 -7 17.5 -11t37.5 -4
q64 0 127 81q59 76 85 183l-303 868q-20 59 -41 97t-43 58q-16 15 -34 22.5t-40 7.5h-27v89h580v-89h-24q-44 -5 -48 -6q-23 -7 -38 -31q-5 -8 -8 -19.5t-3 -21.5q0 -18 6 -39.5t16 -49.5l160 -435l155 423q20 57 20 95q0 39 -22 60q-15 15 -33 19.5t-45 4.5h-29v89h376v-89
zM1032 1355q0 -59 -42.5 -101.5t-101.5 -42.5q-57 0 -97 42t-40 100q0 60 40.5 102.5t98.5 42.5t100 -42t42 -101zM668 1353q0 -59 -42 -102t-102 -43q-58 0 -98 42t-40 101q0 58 41 101t99 43t100 -41t42 -101z" />
    <glyph glyph-name="Ydieresis" unicode="&#x178;" horiz-adv-x="1397" 
d="M1327 1460h-23q-70 0 -101 -30q-57 -52 -99 -158l-251 -619v-413q0 -55 15 -84q11 -22 35.5 -37.5t60.5 -19.5t85 -4h18v-95h-741v95h17q119 0 149 26q22 17 34 42q16 32 16 77l-1 420l-275 627q-20 48 -38 79t-40 53t-43.5 31.5t-45.5 9.5h-21v95h646v-95h-23h-34
q-30 0 -50 -6t-32.5 -22t-12.5 -37q0 -17 7 -38q2 -6 30 -69l205 -457l189 456q6 14 13 40.5t7 46.5q0 32 -18.5 53t-45.5 27t-82 6h-21v95h471v-95zM1087 1811q0 -59 -42.5 -101.5t-101.5 -42.5q-57 0 -97 42t-40 100q0 60 40.5 102.5t98.5 42.5t100 -42t42 -101zM723 1809
q0 -59 -42 -102t-102 -43q-58 0 -98 42t-40 101q0 58 41 101t99 43t100 -41t42 -101z" />
    <glyph glyph-name="periodcentered" unicode="&#xb7;" horiz-adv-x="473" 
d="M244 599q-78 0 -123 57q-41 52 -41 128q0 78 41 132q46 60 123 60q78 0 124 -59q42 -54 42 -130t-41 -129q-46 -59 -125 -59z" />
    <glyph glyph-name="periodcentered" unicode="&#x2219;" horiz-adv-x="473" 
d="M244 599q-78 0 -123 57q-41 52 -41 128q0 78 41 132q46 60 123 60q78 0 124 -59q42 -54 42 -130t-41 -129q-46 -59 -125 -59z" />
    <glyph glyph-name="quotesinglbase" unicode="&#x201a;" horiz-adv-x="488" 
d="M423 164q0 -150 -42 -280q-45 -140 -139 -257l-24 -30l-79 52l16 21q43 55 66 94q27 45 48 104q16 43 25 79.5t15 81.5q-14 -7 -29 -13.5t-42 -6.5q-72 0 -115 59q-39 54 -39 131q0 76 38 129q43 59 116 59q94 0 143 -69q42 -60 42 -154z" />
    <glyph glyph-name="quotedblbase" unicode="&#x201e;" horiz-adv-x="935" 
d="M858 164q0 -149 -42 -280q-45 -140 -138 -257l-24 -30l-80 53l17 21q40 51 66.5 96.5t47.5 101.5q17 45 25.5 79.5t13.5 80.5l-28 -14q-14 -5 -42 -5q-72 0 -115 60q-39 54 -39 131t38 129q42 58 116 58q93 0 142 -70q42 -60 42 -154zM423 164q0 -149 -42 -280
q-45 -140 -139 -257l-24 -30l-79 53l16 21q42 53 67.5 96.5t46.5 101.5q16 43 25 78.5t15 81.5l-28 -14q-14 -5 -43 -5q-72 0 -115 59q-39 54 -39 131q0 76 38 129q43 59 116 59q94 0 143 -70q42 -60 42 -154z" />
    <glyph glyph-name="Acircumflex" unicode="&#xc2;" horiz-adv-x="1595" 
d="M1506 0h-681v95h18q55 0 87.5 4t53.5 17q13 9 20.5 22t7.5 34q0 23 -12 58l-106 283h-408l-72 -228q-4 -13 -9.5 -38t-5.5 -44q0 -27 8 -46q4 -9 17.5 -25t38.5 -24q40 -13 118 -13h20v-95h-520v95h15q71 0 114 29q22 14 40 45q26 43 53 124l430 1291h109l485 -1344
q22 -61 40 -88q14 -21 37 -36q33 -21 85 -21h17v-95zM862 611l-178 495l-164 -495h342zM1082 1694l-97 -35l-174 300l-177 -299l-93 37l161 380q30 72 109 72t109 -74z" />
    <glyph glyph-name="Ecircumflex" unicode="&#xca;" horiz-adv-x="1342" 
d="M1258 613l-17 -613h-1167v95h17q47 0 71.5 3t41.5 15q26 19 38 41q17 32 17 86v1047q0 62 -8 89t-34 50q-18 16 -46 25t-66 9h-21v95h1137l2 -590l-85 -12l-5 35q-29 206 -115 322q-106 143 -292 143q-92 0 -124 -49q-23 -35 -23 -114v-427h27q66 0 118 24q39 18 74 53
q28 29 45.5 79t17.5 114h85v-630h-85q0 54 -18 105.5t-40 74.5q-37 40 -76 57q-47 21 -121 21h-27v-521q0 -93 37.5 -119t116.5 -26q186 0 303 148q100 127 132 337l5 33h85zM961 1694l-97 -35l-174 300l-177 -299l-93 37l161 380q30 72 109 72t109 -74z" />
    <glyph glyph-name="Aacute" unicode="&#xc1;" horiz-adv-x="1595" 
d="M1506 0h-681v95h18q55 0 87.5 4t53.5 17q13 9 20.5 22t7.5 34q0 23 -12 58l-106 283h-408l-72 -228q-4 -13 -9.5 -38t-5.5 -44q0 -27 8 -46q4 -9 17.5 -25t38.5 -24q40 -13 118 -13h20v-95h-520v95h15q71 0 114 29q22 14 40 45q26 43 53 124l430 1291h109l485 -1344
q22 -61 40 -88q14 -21 37 -36q33 -21 85 -21h17v-95zM862 611l-178 495l-164 -495h342zM980 2041q35 -39 35 -77q0 -49 -65 -101q-29 -23 -68 -47l-244 -153l-60 69l198 240q46 56 83 80q31 20 58 20q17 0 32.5 -7t30.5 -24z" />
    <glyph glyph-name="Edieresis" unicode="&#xcb;" horiz-adv-x="1320" 
d="M1258 613l-17 -613h-1167v95h17q47 0 71.5 3t41.5 15q26 19 38 41q17 32 17 86v1047q0 62 -8 89t-34 50q-18 16 -46 25t-66 9h-21v95h1137l2 -590l-85 -12l-5 35q-29 206 -115 322q-106 143 -292 143q-92 0 -124 -49q-23 -35 -23 -114v-427h27q66 0 118 24q39 18 74 53
q28 29 45.5 79t17.5 114h85v-630h-85q0 54 -18 105.5t-40 74.5q-37 40 -76 57q-47 21 -121 21h-27v-521q0 -93 37.5 -119t116.5 -26q186 0 303 148q100 127 132 337l5 33h85zM988 1811q0 -59 -42.5 -101.5t-101.5 -42.5q-57 0 -97 42t-40 100q0 60 40.5 102.5t98.5 42.5
t100 -42t42 -101zM624 1809q0 -59 -42 -102t-102 -43q-58 0 -98 42t-40 101q0 58 41 101t99 43t100 -41t42 -101z" />
    <glyph glyph-name="Egrave" unicode="&#xc8;" horiz-adv-x="1342" 
d="M1258 613l-17 -613h-1167v95h17q47 0 71.5 3t41.5 15q26 19 38 41q17 32 17 86v1047q0 62 -8 89t-34 50q-18 16 -46 25t-66 9h-21v95h1137l2 -590l-85 -12l-5 35q-29 206 -115 322q-106 143 -292 143q-92 0 -124 -49q-23 -35 -23 -114v-427h27q66 0 118 24q39 18 74 53
q28 29 45.5 79t17.5 114h85v-630h-85q0 54 -18 105.5t-40 74.5q-37 40 -76 57q-47 21 -121 21h-27v-521q0 -93 37.5 -119t116.5 -26q186 0 303 148q100 127 132 337l5 33h85zM893 1732l-60 -69l-245 153q-62 38 -88 63q-45 42 -45 85q0 18 8.5 37.5t27.5 39.5q28 31 62 31
t76 -33q29 -23 66 -67z" />
    <glyph glyph-name="Iacute" unicode="&#xcd;" 
d="M767 0h-690v95h17q48 0 76.5 6t48.5 21.5t31.5 46t11.5 88.5v1033q0 57 -8.5 86t-33.5 53q-19 18 -47 24.5t-75 6.5h-21v95h689v-95h-22q-53 0 -79 -7.5t-45.5 -24.5t-28.5 -50.5t-9 -87.5v-1033q0 -66 13 -100q9 -22 28 -38q14 -11 45.5 -17.5t80.5 -6.5h18v-95z
M617 2041q35 -39 35 -77q0 -49 -65 -101q-29 -23 -68 -47l-244 -153l-60 69l198 240q46 56 83 80q31 20 58 20q17 0 32.5 -7t30.5 -24z" />
    <glyph glyph-name="Icircumflex" unicode="&#xce;" 
d="M767 0h-690v95h17q48 0 76.5 6t48.5 21.5t31.5 46t11.5 88.5v1033q0 57 -8.5 86t-33.5 53q-19 18 -47 24.5t-75 6.5h-21v95h689v-95h-22q-53 0 -79 -7.5t-45.5 -24.5t-28.5 -50.5t-9 -87.5v-1033q0 -66 13 -100q9 -22 28 -38q14 -11 45.5 -17.5t80.5 -6.5h18v-95z
M708 1694l-97 -35l-174 300l-177 -299l-93 37l161 380q30 72 109 72t109 -74z" />
    <glyph glyph-name="Idieresis" unicode="&#xcf;" 
d="M767 0h-690v95h17q48 0 76.5 6t48.5 21.5t31.5 46t11.5 88.5v1033q0 57 -8.5 86t-33.5 53q-19 18 -47 24.5t-75 6.5h-21v95h689v-95h-22q-53 0 -79 -7.5t-45.5 -24.5t-28.5 -50.5t-9 -87.5v-1033q0 -66 13 -100q9 -22 28 -38q14 -11 45.5 -17.5t80.5 -6.5h18v-95z
M768 1811q0 -59 -42.5 -101.5t-101.5 -42.5q-57 0 -97 42t-40 100q0 60 40.5 102.5t98.5 42.5t100 -42t42 -101zM404 1809q0 -59 -42 -102t-102 -43q-58 0 -98 42t-40 101q0 58 41 101t99 43t100 -41t42 -101z" />
    <glyph glyph-name="Igrave" unicode="&#xcc;" 
d="M767 0h-690v95h17q48 0 76.5 6t48.5 21.5t31.5 46t11.5 88.5v1033q0 57 -8.5 86t-33.5 53q-19 18 -47 24.5t-75 6.5h-21v95h689v-95h-22q-53 0 -79 -7.5t-45.5 -24.5t-28.5 -50.5t-9 -87.5v-1033q0 -66 13 -100q9 -22 28 -38q14 -11 45.5 -17.5t80.5 -6.5h18v-95z
M651 1732l-60 -69l-245 153q-62 38 -88 63q-45 42 -45 85q0 18 8.5 37.5t27.5 39.5q28 31 62 31t76 -33q29 -23 66 -67z" />
    <glyph glyph-name="Oacute" unicode="&#xd3;" horiz-adv-x="1386" 
d="M1318 800q0 -346 -161 -576q-173 -247 -461 -247q-278 0 -453 243q-162 225 -162 543t169 560q182 260 453 260q275 0 452 -248q163 -229 163 -535zM958 797q0 207 -9 306q-16 178 -66 270q-63 117 -184 117q-113 0 -174 -115q-49 -93 -67 -269q-11 -110 -11 -305
q0 -215 10 -324q17 -187 66 -288q60 -124 171 -124q125 0 189 122q51 98 67 286q8 96 8 324zM903 2041q35 -39 35 -77q0 -49 -65 -101q-29 -23 -68 -47l-244 -153l-60 69l198 240q46 56 83 80q31 20 58 20q17 0 32.5 -7t30.5 -24z" />
    <glyph glyph-name="Ocircumflex" unicode="&#xd4;" horiz-adv-x="1397" 
d="M1318 800q0 -346 -161 -576q-173 -247 -461 -247q-278 0 -453 243q-162 225 -162 543t169 560q182 260 453 260q275 0 452 -248q163 -229 163 -535zM958 797q0 207 -9 306q-16 178 -66 270q-63 117 -184 117q-113 0 -174 -115q-49 -93 -67 -269q-11 -110 -11 -305
q0 -215 10 -324q17 -187 66 -288q60 -124 171 -124q125 0 189 122q51 98 67 286q8 96 8 324zM1005 1694l-97 -35l-174 300l-177 -299l-93 37l161 380q30 72 109 72t109 -74z" />
    <glyph glyph-name="Ograve" unicode="&#xd2;" horiz-adv-x="1386" 
d="M1318 800q0 -346 -161 -576q-173 -247 -461 -247q-278 0 -453 243q-162 225 -162 543t169 560q182 260 453 260q275 0 452 -248q163 -229 163 -535zM958 797q0 207 -9 306q-16 178 -66 270q-63 117 -184 117q-113 0 -174 -115q-49 -93 -67 -269q-11 -110 -11 -305
q0 -215 10 -324q17 -187 66 -288q60 -124 171 -124q125 0 189 122q51 98 67 286q8 96 8 324zM937 1732l-60 -69l-245 153q-62 38 -88 63q-45 42 -45 85q0 18 8.5 37.5t27.5 39.5q28 31 62 31t76 -33q29 -23 66 -67z" />
    <glyph glyph-name="Uacute" unicode="&#xda;" horiz-adv-x="1474" 
d="M1424 1460h-22q-54 0 -100 -30q-31 -20 -48 -57t-17 -91v-783q0 -151 -34 -252q-43 -128 -142 -196q-115 -79 -308 -79q-215 0 -339 89q-98 70 -137 195q-26 83 -26 190q0 16 1 38t1 26v773q0 67 -8 93.5t-36 56.5q-16 17 -39.5 22t-53.5 5h-17h-21v95h671v-95h-22
q-46 0 -73 -5t-51 -26t-32.5 -52t-8.5 -94l-1 -801q0 -10 -0.5 -22t-0.5 -25q0 -83 14 -141q22 -91 77 -141q71 -65 194 -65q121 0 191 60q58 50 83 147q19 74 19 181v807q0 61 -13 94t-46 56q-23 16 -52 21.5t-58 5.5h-21v95h476v-95zM980 2041q35 -39 35 -77
q0 -49 -65 -101q-29 -23 -68 -47l-244 -153l-60 69l198 240q46 56 83 80q31 20 58 20q17 0 32.5 -7t30.5 -24z" />
    <glyph glyph-name="Ucircumflex" unicode="&#xdb;" horiz-adv-x="1474" 
d="M1424 1460h-22q-54 0 -100 -30q-31 -20 -48 -57t-17 -91v-783q0 -151 -34 -252q-43 -128 -142 -196q-115 -79 -308 -79q-215 0 -339 89q-98 70 -137 195q-26 83 -26 190q0 16 1 38t1 26v773q0 67 -8 93.5t-36 56.5q-16 17 -39.5 22t-53.5 5h-17h-21v95h671v-95h-22
q-46 0 -73 -5t-51 -26t-32.5 -52t-8.5 -94l-1 -801q0 -10 -0.5 -22t-0.5 -25q0 -83 14 -141q22 -91 77 -141q71 -65 194 -65q121 0 191 60q58 50 83 147q19 74 19 181v807q0 61 -13 94t-46 56q-23 16 -52 21.5t-58 5.5h-21v95h476v-95zM1038 1694l-97 -35l-174 300
l-177 -299l-93 37l161 380q30 72 109 72t109 -74z" />
    <glyph glyph-name="Ugrave" unicode="&#xd9;" horiz-adv-x="1485" 
d="M1424 1443h-22q-54 0 -100 -30q-31 -20 -48 -57t-17 -91v-783q0 -151 -34 -252q-43 -128 -142 -196q-115 -79 -308 -79q-215 0 -339 89q-98 70 -137 195q-26 83 -26 190q0 16 1 38t1 26v773q0 67 -8 93.5t-36 56.5q-16 17 -39.5 22t-53.5 5h-17h-21v95h671v-95h-22
q-46 0 -73 -5t-51 -26t-32.5 -52t-8.5 -94l-1 -801q0 -10 -0.5 -22t-0.5 -25q0 -83 14 -141q22 -91 77 -141q71 -65 194 -65q121 0 191 60q58 50 83 147q19 74 19 181v807q0 61 -13 94t-46 56q-23 16 -52 21.5t-58 5.5h-21v95h476v-95zM1003 1732l-60 -69l-245 153
q-62 38 -88 63q-45 42 -45 85q0 18 8.5 37.5t27.5 39.5q28 31 62 31t76 -33q29 -23 66 -67z" />
    </font>
</defs>
</svg>
