<?xml version="1.0" standalone="no"?>
<!DOCTYPE svg PUBLIC "-//W3C//DTD SVG 1.1//EN" "http://www.w3.org/Graphics/SVG/1.1/DTD/svg11.dtd" >
<svg xmlns="http://www.w3.org/2000/svg" xmlns:xlink="http://www.w3.org/1999/xlink" version="1.1">
<metadata>
Created by FontForge 20160407 at Thu Aug 18 21:09:07 2016
 By Jimmy Wärting
Allianz Sans and Allianz Serif are corporate typefaces, custom designed for Allianz International by Gerard Unger. Produced by Novatype, a division of Visualogik Technology &#38; Design bv, 2005. Unauthorised use strictly prohibited. ALL RIGHTS RESERVED
</metadata>
<defs>
<font id="AllianzSans-Bold" horiz-adv-x="500" >
  <font-face 
    font-family="Allianz Sans"
    font-weight="700"
    font-stretch="normal"
    units-per-em="1000"
    panose-1="2 0 8 3 5 0 0 2 0 4"
    ascent="770"
    descent="-230"
    x-height="524"
    cap-height="703"
    bbox="-58 -342 1285 988"
    underline-thickness="50"
    underline-position="-100"
    stemh="86"
    stemv="121"
    unicode-range="U+000D-FB02"
  />
<missing-glyph 
 />
    <glyph glyph-name=".notdef" 
 />
    <glyph glyph-name="eth" unicode="&#xf0;" horiz-adv-x="544" 
d="M503 701l-54 -38c45 -77 52 -188 52 -310c0 -293 -107 -364 -250 -364c-94 0 -219 42 -219 264c0 214 120 271 219 271c84 0 116 -41 116 -41c-1 34 -3 75 -19 110l-60 -42l-43 67l47 33c-20 9 -47 15 -80 15c-82 0 -139 -50 -139 -50v114s55 40 153 40
c75 0 129 -17 169 -46l64 45zM365 351v36s-26 37 -84 37c-86 0 -111 -68 -111 -170c0 -72 4 -164 92 -164c93 0 103 71 103 261z" />
    <glyph glyph-name="Lslash" unicode="&#x141;" horiz-adv-x="455" 
d="M440 118l-5 -118h-374v255l-35 -20l-43 78l78 45v345h140v-266l114 65l43 -78l-157 -90v-216h239z" />
    <glyph glyph-name="lslash" unicode="&#x142;" horiz-adv-x="259" 
d="M273 422l-75 -56v-366h-137v264l-15 -11l-52 73l67 50v378l137 16v-292l23 17z" />
    <glyph glyph-name="Scaron" unicode="&#x160;" horiz-adv-x="471" 
d="M445 199c0 -122 -72 -210 -234 -210c-129 0 -185 48 -185 48l-6 132s51 -67 177 -67c72 0 110 29 110 84c0 48 -19 63 -72 94l-78 45c-54 31 -128 74 -128 190c0 120 73 196 222 196c113 0 171 -47 171 -47v-127s-49 61 -163 61c-71 0 -94 -29 -94 -72s32 -61 78 -88
l74 -43c73 -42 128 -92 128 -196zM417 912l-185 -152l-173 141l63 72l124 -96l119 95z" />
    <glyph glyph-name="scaron" unicode="&#x161;" horiz-adv-x="412" 
d="M382 154c0 -150 -127 -163 -195 -163c-107 0 -152 38 -152 38l-5 111s52 -50 145 -50c41 0 78 8 78 48c0 30 -17 39 -55 60l-54 29c-55 30 -103 65 -103 153c0 137 111 152 179 152c96 0 141 -39 141 -39v-110s-48 51 -127 51c-53 0 -65 -22 -65 -45c0 -30 22 -41 55 -58
l56 -29c47 -24 102 -61 102 -148zM391 736l-185 -152l-173 141l63 72l124 -96l119 95z" />
    <glyph glyph-name="Yacute" unicode="&#xdd;" horiz-adv-x="592" 
d="M600 703l-236 -435v-268h-140v262l-231 441h157l148 -310l157 310h145zM447 872l-198 -113l-45 66l187 133z" />
    <glyph glyph-name="yacute" unicode="&#xfd;" horiz-adv-x="474" 
d="M480 524l-193 -603c-35 -109 -93 -151 -194 -151c-60 0 -90 15 -90 15l-5 108s31 -19 72 -19c54 0 80 18 97 71l11 35l-181 544h141l85 -290c20 -69 21 -98 21 -98s8 36 24 93l84 295h128zM362 696l-198 -113l-45 66l187 133z" />
    <glyph glyph-name="Thorn" unicode="&#xde;" horiz-adv-x="547" 
d="M524 411c0 -211 -167 -245 -256 -245h-67v-166h-140v703h140v-91h61c85 0 140 -11 181 -36c53 -33 81 -92 81 -165zM381 397c0 107 -75 114 -135 114h-45v-244h36c69 0 144 12 144 130z" />
    <glyph glyph-name="thorn" unicode="&#xfe;" horiz-adv-x="551" 
d="M519 274c0 -247 -128 -283 -219 -283c-67 0 -102 37 -102 37v-258h-137v983l137 17v-310s29 72 131 72c118 0 190 -90 190 -258zM380 259c0 117 -34 160 -100 160c-44 0 -82 -26 -82 -83v-211s21 -31 75 -31c73 0 107 48 107 165z" />
    <glyph glyph-name="Zcaron" unicode="&#x17d;" horiz-adv-x="566" 
d="M536 601l-344 -487h341l-5 -114h-500v103l336 486h-308v114h480v-102zM496 912l-185 -152l-173 141l63 72l124 -96l119 95z" />
    <glyph glyph-name="zcaron" unicode="&#x17e;" horiz-adv-x="461" 
d="M431 95l-5 -95h-391v85l237 344h-219v95h377v-85l-238 -344h239zM428 736l-185 -152l-173 141l63 72l124 -96l119 95z" />
    <glyph glyph-name="onehalf" unicode="&#xbd;" horiz-adv-x="747" 
d="M729 0h-286v70s77 60 125 114c46 51 59 77 59 110c0 35 -21 59 -66 59c-61 0 -104 -40 -104 -40v87s48 29 121 29c117 0 149 -61 149 -126c0 -52 -20 -90 -82 -152c-54 -54 -79 -71 -79 -71h163v-80zM636 703l-509 -703h-95l511 703h93zM197 283h-96v312l-97 -18v82
c35 6 89 23 116 44h77v-420z" />
    <glyph glyph-name="onequarter" unicode="&#xbc;" horiz-adv-x="747" 
d="M718 76h-43v-76h-90v76h-202v76l199 276h93v-280h43v-72zM677 703l-509 -703h-95l511 703h93zM208 283h-96v312l-97 -18v82c35 6 89 23 116 44h77v-420zM585 148v181s-6 -20 -25 -45l-101 -136h126z" />
    <glyph glyph-name="onesuperior" unicode="&#xb9;" horiz-adv-x="292" 
d="M227 283h-96v312l-97 -18v82c35 6 89 23 116 44h77v-420z" />
    <glyph glyph-name="threequarters" unicode="&#xbe;" horiz-adv-x="747" 
d="M741 76h-43v-76h-90v76h-202v76l199 276h93v-280h43v-72zM707 703l-509 -703h-95l511 703h93zM286 402c0 -99 -84 -127 -160 -127c-72 0 -109 28 -109 28l-4 83s42 -38 101 -38c53 0 78 20 78 54c0 48 -38 66 -94 66h-11v65h12c47 0 77 18 77 58c0 33 -21 51 -61 51
c-55 0 -90 -35 -90 -35v78s43 27 110 27c87 0 134 -37 134 -105c0 -84 -88 -102 -88 -102c67 -5 105 -42 105 -103zM608 148v181s-6 -20 -25 -45l-101 -136h126z" />
    <glyph glyph-name="threesuperior" unicode="&#xb3;" horiz-adv-x="352" 
d="M307 402c0 -99 -84 -127 -160 -127c-72 0 -109 28 -109 28l-4 83s42 -38 101 -38c53 0 78 20 78 54c0 48 -38 66 -94 66h-11v65h12c47 0 77 18 77 58c0 33 -21 51 -61 51c-55 0 -90 -35 -90 -35v78s43 27 110 27c87 0 134 -37 134 -105c0 -80 -80 -100 -88 -102
c67 -5 105 -42 105 -103z" />
    <glyph glyph-name="twosuperior" unicode="&#xb2;" horiz-adv-x="352" 
d="M314 283h-286v70s77 60 125 114c46 51 59 77 59 110c0 35 -21 59 -66 59c-61 0 -104 -40 -104 -40v87s48 29 121 29c117 0 149 -61 149 -126c0 -52 -20 -90 -82 -152c-54 -54 -79 -71 -79 -71h163v-80z" />
    <glyph glyph-name="brokenbar" unicode="&#xa6;" horiz-adv-x="530" 
d="M332 349h-137v354h137v-354zM332 -177h-137v339h137v-339z" />
    <glyph glyph-name="minus" unicode="&#x2212;" horiz-adv-x="640" 
d="M617 310h-594v86h594v-86z" />
    <glyph glyph-name="multiply" unicode="&#xd7;" horiz-adv-x="546" 
d="M533 154l-66 -64l-194 198l-194 -197l-66 63l195 198l-190 193l65 66l190 -193l190 193l65 -65l-190 -193z" />
    <glyph glyph-name="space" unicode=" " horiz-adv-x="200" 
 />
    <glyph glyph-name="exclam" unicode="!" horiz-adv-x="286" 
d="M209 703l-6 -505h-122l-7 490zM218 72c0 -48 -28 -83 -77 -83c-48 0 -79 31 -79 82c0 47 31 80 78 80c46 0 78 -32 78 -79z" />
    <glyph glyph-name="quotedbl" unicode="&#x22;" horiz-adv-x="282" 
d="M271 703l-14 -216h-74l-13 216h101zM124 703l-14 -216h-74l-13 216h101z" />
    <glyph glyph-name="numbersign" unicode="#" horiz-adv-x="588" 
d="M584 512l-12 -69h-113l-36 -185h112l-13 -69h-113l-36 -189h-80l36 189h-154l-36 -189h-80l36 189h-113l14 69h112l36 185h-112l12 69h113l37 191h80l-37 -191h155l36 191h81l-37 -191h112zM379 443h-155l-36 -185h155z" />
    <glyph glyph-name="dollar" unicode="$" horiz-adv-x="555" 
d="M482 199c0 -100 -48 -173 -143 -199v-106h-110v96c-116 4 -166 47 -166 47l-6 132s51 -67 177 -67c72 0 110 29 110 84c0 48 -19 63 -72 94l-78 45c-54 31 -128 74 -128 190c0 103 53 173 163 191v95l110 12v-105c80 -10 120 -44 120 -44v-127s-49 61 -163 61
c-71 0 -94 -29 -94 -72c0 -46 32 -63 78 -89l74 -42c73 -42 128 -92 128 -196z" />
    <glyph glyph-name="percent" unicode="%" horiz-adv-x="704" 
d="M342 550c0 -97 -63 -172 -172 -172c-107 0 -170 65 -170 162c0 103 63 171 174 171c105 0 168 -62 168 -161zM617 703l-439 -703h-94l437 703h96zM704 161c0 -97 -63 -172 -172 -172c-107 0 -170 65 -170 162c0 103 63 171 174 171c105 0 168 -62 168 -161zM244 546
c0 50 -19 92 -73 92s-72 -44 -72 -94c0 -49 17 -91 70 -91s75 43 75 93zM606 157c0 50 -19 92 -73 92s-72 -44 -72 -94c0 -49 17 -91 70 -91s75 43 75 93z" />
    <glyph glyph-name="ampersand" unicode="&#x26;" horiz-adv-x="698" 
d="M679 0h-164l-33 36c-46 -29 -105 -44 -179 -44c-177 0 -249 87 -249 205c0 147 122 192 122 192l-13 14c-54 58 -72 92 -72 153c0 87 66 155 190 155c163 0 190 -104 190 -153c0 -126 -103 -180 -124 -190l138 -157s12 21 12 100c0 15 -2 27 -2 27h129v-25
c0 -63 -6 -139 -49 -190zM347 547c0 49 -35 68 -66 68c-47 0 -61 -34 -61 -61c0 -39 21 -67 49 -97l17 -18s61 38 61 108zM403 121l-166 189s-47 -28 -47 -105c0 -51 28 -107 125 -107c57 0 88 23 88 23z" />
    <glyph glyph-name="quotesingle" unicode="'" horiz-adv-x="177" 
d="M139 703l-14 -216h-74l-13 216h101z" />
    <glyph glyph-name="parenleft" unicode="(" horiz-adv-x="427" 
d="M407 770c-149 -138 -223 -290 -223 -497c0 -223 85 -363 221 -503h-141c-13 10 -25 21 -37 34c-122 133 -182 288 -182 472c0 183 69 339 179 456c14 14 25 25 40 38h143z" />
    <glyph glyph-name="parenright" unicode=")" horiz-adv-x="427" 
d="M382 264c0 -183 -69 -339 -179 -456c-14 -14 -25 -25 -40 -38h-143c149 138 223 290 223 497c0 223 -85 363 -221 503h141c13 -10 25 -21 37 -34c122 -133 182 -288 182 -472z" />
    <glyph glyph-name="asterisk" unicode="*" horiz-adv-x="372" 
d="M357 500l-41 -74l-104 83l22 -131h-94l21 132l-103 -84l-43 74l128 51l-128 53l43 73l103 -82l-21 137h94l-22 -137l104 82l41 -73l-127 -53z" />
    <glyph glyph-name="plus" unicode="+" horiz-adv-x="640" 
d="M617 311h-252v-270h-91v270h-251v86h251v260h91v-260h252v-86z" />
    <glyph glyph-name="comma" unicode="," horiz-adv-x="234" 
d="M194 109c0 -85 -41 -196 -78 -257l-101 35c26 65 42 129 42 205v55h137v-38z" />
    <glyph glyph-name="hyphen" unicode="-" horiz-adv-x="325" 
d="M284 207h-243v120h243v-120z" />
    <glyph glyph-name="period" unicode="." horiz-adv-x="273" 
d="M218 74c0 -51 -30 -87 -81 -87c-50 0 -82 31 -82 86c0 51 32 85 81 85c46 0 82 -34 82 -84z" />
    <glyph glyph-name="slash" unicode="/" horiz-adv-x="410" 
d="M380 770l-254 -947h-126l253 947h127z" />
    <glyph glyph-name="zero" unicode="0" horiz-adv-x="555" 
d="M523 356c0 -254 -82 -368 -248 -368c-168 0 -243 112 -243 356c0 254 82 367 248 367c168 0 243 -111 243 -355zM381 354c0 169 -23 247 -103 247c-82 0 -104 -81 -104 -255c0 -169 23 -248 103 -248c82 0 104 82 104 256z" />
    <glyph glyph-name="one" unicode="1" horiz-adv-x="555" 
d="M377 0h-140v547l-147 -25v112c59 9 149 40 192 70h95v-704z" />
    <glyph glyph-name="two" unicode="2" horiz-adv-x="555" 
d="M483 0h-427v127s102 77 189 162c68 67 95 116 95 187c0 47 -13 122 -125 122c-105 0 -150 -63 -150 -63v130s49 46 186 46c77 0 231 -24 231 -219c0 -105 -45 -186 -140 -270c-77 -68 -134 -104 -134 -104h275v-118z" />
    <glyph glyph-name="three" unicode="3" horiz-adv-x="555" 
d="M492 194c0 -104 -61 -206 -261 -206c-124 0 -182 47 -182 47l-6 135s47 -69 170 -69c120 0 137 60 137 106c0 95 -78 101 -146 101h-23v101h16c92 0 127 41 127 100c0 48 -20 90 -100 90c-104 0 -153 -62 -153 -62v130s60 45 177 45c113 0 218 -39 218 -176
c0 -142 -116 -172 -116 -172s142 -4 142 -170z" />
    <glyph glyph-name="four" unicode="4" horiz-adv-x="556" 
d="M529 154h-66v-154h-136v154h-304v128l280 422h160v-437h66v-113zM327 267v289s-9 -24 -38 -69l-89 -139c-18 -28 -60 -81 -60 -81h187z" />
    <glyph glyph-name="five" unicode="5" horiz-adv-x="555" 
d="M496 231c0 -144 -82 -243 -250 -243c-121 0 -179 47 -179 47l-6 135s46 -69 160 -69c94 0 135 52 135 128c0 69 -32 122 -141 122c-80 0 -131 -28 -131 -28v380h389v-118h-272v-143s32 11 80 11c183 0 215 -138 215 -222z" />
    <glyph glyph-name="six" unicode="6" horiz-adv-x="555" 
d="M520 233c0 -169 -102 -245 -236 -245c-170 0 -243 115 -243 340c0 258 90 384 288 384c112 0 168 -46 168 -46v-133s-48 66 -160 66c-134 0 -153 -87 -153 -174v-6s51 36 129 36c119 0 207 -66 207 -222zM380 223c0 78 -38 117 -107 117c-54 0 -90 -24 -90 -24v-10
c0 -131 4 -211 98 -211c44 0 99 21 99 128z" />
    <glyph glyph-name="seven" unicode="7" horiz-adv-x="555" 
d="M496 637c0 -51 -19 -107 -53 -172l-78 -147c-50 -95 -66 -162 -66 -275v-43h-140v41c0 125 10 182 85 320l51 94c46 85 47 105 47 131h-285v117h439v-66z" />
    <glyph glyph-name="eight" unicode="8" horiz-adv-x="555" 
d="M519 185c0 -146 -118 -197 -236 -197c-124 0 -247 34 -247 182c0 153 139 185 139 185l-15 9c-44 27 -106 73 -106 169c0 144 121 179 223 179s218 -38 218 -168c0 -135 -121 -167 -121 -167l20 -12c52 -31 125 -79 125 -180zM368 540c0 60 -36 84 -91 84
c-47 0 -94 -20 -94 -77c0 -42 18 -65 66 -94l45 -27s74 32 74 114zM379 176c0 47 -23 74 -72 102l-50 29s-85 -37 -85 -128c0 -75 50 -95 105 -95c66 0 102 38 102 92z" />
    <glyph glyph-name="nine" unicode="9" horiz-adv-x="555" 
d="M515 372c0 -258 -84 -384 -288 -384c-112 0 -167 46 -167 46l-7 133s54 -66 166 -66c134 0 153 87 153 174v6s-51 -36 -129 -36c-119 0 -207 66 -207 222c0 169 102 245 236 245c170 0 243 -115 243 -340zM373 384v10c0 131 -4 211 -98 211c-44 0 -99 -21 -99 -128
c0 -78 38 -117 107 -117c54 0 90 24 90 24z" />
    <glyph glyph-name="colon" unicode=":" horiz-adv-x="273" 
d="M218 448c0 -51 -30 -87 -81 -87c-50 0 -82 31 -82 86c0 51 32 85 81 85c46 0 82 -34 82 -84zM218 74c0 -51 -30 -87 -81 -87c-50 0 -82 31 -82 86c0 51 32 85 81 85c46 0 82 -34 82 -84z" />
    <glyph glyph-name="semicolon" unicode=";" horiz-adv-x="254" 
d="M209 448c0 -51 -30 -87 -81 -87c-50 0 -82 31 -82 86c0 51 32 85 81 85c46 0 82 -34 82 -84zM199 109c0 -85 -41 -196 -78 -257l-101 35c26 65 42 129 42 205v55h137v-38z" />
    <glyph glyph-name="less" unicode="&#x3c;" horiz-adv-x="711" 
d="M688 31l-665 293v53l665 294v-94l-524 -225l524 -224v-97z" />
    <glyph glyph-name="equal" unicode="=" horiz-adv-x="640" 
d="M617 433h-594v87h594v-87zM617 183h-594v87h594v-87z" />
    <glyph glyph-name="greater" unicode="&#x3e;" horiz-adv-x="711" 
d="M689 324l-665 -293v97l524 224l-524 225v94l665 -294v-53z" />
    <glyph glyph-name="question" unicode="?" horiz-adv-x="475" 
d="M425 536c0 -64 -23 -114 -82 -170l-56 -54c-36 -34 -42 -49 -42 -91v-23h-124v37c0 46 6 78 41 115l62 66c39 42 64 62 64 113c0 50 -42 74 -96 74c-98 0 -157 -66 -157 -66v127s62 48 189 48c112 0 201 -57 201 -176zM260 72c0 -48 -28 -83 -77 -83c-48 0 -79 31 -79 82
c0 47 31 80 78 80c46 0 78 -32 78 -79z" />
    <glyph glyph-name="at" unicode="@" horiz-adv-x="961" 
d="M931 333c0 -124 -45 -236 -157 -295c-48 -26 -111 -36 -151 -38c-18 -1 -38 -2 -57 -2s-38 1 -56 2l19 115c-2 -5 -17 -42 -50 -75c-39 -39 -69 -49 -110 -49c-83 0 -126 61 -126 185c0 171 61 348 243 348c72 0 103 -34 103 -34l127 34l-71 -449c18 3 47 10 75 27
c66 40 100 112 100 223c0 185 -99 282 -300 282c-140 0 -366 -78 -366 -384c0 -222 124 -341 354 -341c157 0 260 61 260 61l-6 -110s-96 -50 -258 -50c-315 0 -464 177 -464 441c0 280 194 476 484 476c230 0 407 -125 407 -367zM572 410c0 0 -23 21 -63 21
c-44 0 -73 -19 -94 -49c-34 -49 -45 -131 -45 -185c0 -82 35 -95 58 -95s41 10 69 45c25 31 46 82 51 112z" />
    <glyph glyph-name="A" unicode="A" horiz-adv-x="608" 
d="M608 0h-145l-57 205h-219l-56 -205h-135l217 704h186zM376 314l-62 222c-13 45 -17 84 -17 84s-5 -36 -18 -83l-61 -223h158z" />
    <glyph glyph-name="B" unicode="B" horiz-adv-x="552" 
d="M520 193c0 -77 -36 -139 -103 -169c-41 -18 -89 -24 -181 -24h-175v703h181c101 0 146 -8 182 -30c49 -30 72 -81 72 -139c0 -154 -129 -169 -129 -169s153 -1 153 -172zM356 508c0 74 -40 94 -101 94h-56v-191h51c52 0 106 18 106 97zM380 209c0 84 -56 101 -117 101
h-64v-209h68c65 0 113 26 113 108z" />
    <glyph glyph-name="C" unicode="C" horiz-adv-x="562" 
d="M537 170l-6 -132s-49 -49 -194 -49c-218 0 -307 156 -307 347c0 86 16 167 50 227c54 95 147 148 273 148c120 0 181 -47 181 -47v-127s-51 61 -165 61c-118 0 -197 -67 -197 -247c0 -146 52 -249 195 -249c120 0 170 68 170 68z" />
    <glyph glyph-name="D" unicode="D" horiz-adv-x="642" 
d="M612 362c0 -158 -47 -271 -156 -326c-65 -32 -136 -36 -225 -36h-170v703h184c119 0 178 -7 236 -43c88 -54 131 -161 131 -298zM470 352c0 114 -28 186 -84 217c-27 15 -55 21 -114 21h-71v-477h62c56 0 92 6 121 23c57 32 86 106 86 216z" />
    <glyph glyph-name="E" unicode="E" horiz-adv-x="475" 
d="M453 118l-5 -118h-387v703h374v-118h-234v-167h191v-118h-191v-182h252z" />
    <glyph glyph-name="F" unicode="F" horiz-adv-x="447" 
d="M435 585h-234v-167h191v-118h-191v-300h-140v703h374v-118z" />
    <glyph glyph-name="G" unicode="G" horiz-adv-x="616" 
d="M564 48c0 0 -61 -59 -221 -59c-213 0 -313 150 -313 346c0 80 13 160 52 227c54 93 150 149 288 149c133 0 194 -47 194 -47v-127s-50 61 -189 61c-164 0 -203 -125 -203 -247c0 -166 54 -251 175 -251c56 0 78 12 78 12v199h139v-263z" />
    <glyph glyph-name="H" unicode="H" horiz-adv-x="641" 
d="M580 0h-140v296h-239v-296h-140v703h140v-287h239v287h140v-703z" />
    <glyph glyph-name="I" unicode="I" horiz-adv-x="262" 
d="M201 0h-140v703h140v-703z" />
    <glyph glyph-name="J" unicode="J" horiz-adv-x="319" 
d="M263 154c0 -60 -9 -161 -150 -161c-38 0 -77 7 -101 16l-12 118c21 -13 48 -20 72 -20c36 0 51 19 51 57v539h140v-549z" />
    <glyph glyph-name="K" unicode="K" horiz-adv-x="570" 
d="M585 0h-168l-216 353v-353h-140v703h140v-327l228 327h154l-240 -328z" />
    <glyph glyph-name="L" unicode="L" horiz-adv-x="455" 
d="M440 118l-5 -118h-374v703h140v-585h239z" />
    <glyph glyph-name="M" unicode="M" horiz-adv-x="836" 
d="M775 0h-136v614s-5 -91 -30 -181l-121 -433h-155l-120 433c-25 90 -30 181 -30 181v-614h-122v703h214l116 -420c24 -88 26 -158 26 -158s1 70 26 159l119 419h213v-703z" />
    <glyph glyph-name="N" unicode="N" horiz-adv-x="654" 
d="M593 0h-153l-199 365c-44 81 -58 143 -58 143v-508h-122v703h158l181 -350c39 -76 71 -169 71 -169v519h122v-703z" />
    <glyph glyph-name="O" unicode="O" horiz-adv-x="656" 
d="M626 361c0 -241 -114 -373 -298 -373c-188 0 -298 117 -298 351c0 241 114 373 298 373c188 0 298 -117 298 -351zM484 351c0 180 -55 250 -156 250c-99 0 -156 -72 -156 -252s55 -250 156 -250c99 0 156 72 156 252z" />
    <glyph glyph-name="P" unicode="P" horiz-adv-x="547" 
d="M524 502c0 -211 -167 -245 -256 -245h-67v-257h-140v703h201c85 0 142 -11 183 -36c53 -33 79 -92 79 -165zM381 492c0 105 -75 110 -135 110h-45v-244h36c69 0 144 12 144 134z" />
    <glyph glyph-name="Q" unicode="Q" horiz-adv-x="656" 
d="M635 -129c0 0 -55 -40 -153 -40c-145 0 -208 69 -240 166c-135 32 -212 146 -212 342c0 241 114 373 298 373c188 0 298 -117 298 -351c0 -218 -91 -342 -245 -367c19 -33 53 -59 115 -59c82 0 139 50 139 50v-114zM484 351c0 180 -55 250 -156 250
c-99 0 -156 -72 -156 -252s55 -250 156 -250c99 0 156 72 156 252z" />
    <glyph glyph-name="R" unicode="R" horiz-adv-x="561" 
d="M561 0h-167l-195 308v-308h-138v703h192c83 0 135 -8 175 -32c45 -28 78 -77 78 -155c0 -156 -119 -193 -163 -193zM362 501c0 80 -46 101 -108 101h-55v-209h54c60 0 109 29 109 108z" />
    <glyph glyph-name="S" unicode="S" horiz-adv-x="471" 
d="M445 199c0 -122 -72 -210 -234 -210c-129 0 -185 48 -185 48l-6 132s51 -67 177 -67c72 0 110 29 110 84c0 48 -19 63 -72 94l-78 45c-54 31 -128 74 -128 190c0 120 73 196 222 196c113 0 171 -47 171 -47v-127s-49 61 -163 61c-71 0 -94 -29 -94 -72s32 -61 78 -88
l74 -43c73 -42 128 -92 128 -196z" />
    <glyph glyph-name="T" unicode="T" horiz-adv-x="538" 
d="M538 703l-5 -118h-192v-585h-140v585h-196v118h533z" />
    <glyph glyph-name="U" unicode="U" horiz-adv-x="642" 
d="M584 297c0 -112 -2 -176 -48 -232c-44 -54 -116 -76 -211 -76c-99 0 -168 20 -214 69s-53 119 -53 216v429h140v-461c0 -66 5 -143 124 -143c125 0 128 78 128 148v456h134v-406z" />
    <glyph glyph-name="V" unicode="V" horiz-adv-x="597" 
d="M603 703l-224 -707h-169l-217 707h147l147 -509c13 -45 17 -84 17 -84s5 36 18 83l145 510h136z" />
    <glyph glyph-name="W" unicode="W" horiz-adv-x="926" 
d="M928 703l-191 -707h-156l-98 404c-13 55 -19 91 -19 91s-2 -24 -18 -90l-100 -405h-157l-187 707h151l100 -444c15 -65 21 -120 21 -120s11 71 24 126l108 438h133l108 -445c15 -62 22 -119 22 -119s8 63 21 118l103 446h135z" />
    <glyph glyph-name="X" unicode="X" horiz-adv-x="622" 
d="M609 0h-157l-154 253l-142 -253h-146l219 364l-207 339h160l139 -231l130 231h145l-206 -342z" />
    <glyph glyph-name="Y" unicode="Y" horiz-adv-x="592" 
d="M600 703l-236 -435v-268h-140v262l-231 441h157l148 -310l157 310h145z" />
    <glyph glyph-name="Z" unicode="Z" horiz-adv-x="566" 
d="M536 601l-344 -487h341l-5 -114h-500v103l336 486h-308v114h480v-102z" />
    <glyph glyph-name="bracketleft" unicode="[" horiz-adv-x="333" 
d="M268 -230h-203v1000h203v-90h-76v-820h76v-90z" />
    <glyph glyph-name="backslash" unicode="\" horiz-adv-x="408" 
d="M408 -177h-124l-254 947h125z" />
    <glyph glyph-name="bracketright" unicode="]" horiz-adv-x="333" 
d="M268 -230h-203v90h76v820h-76v90h203v-1000z" />
    <glyph glyph-name="asciicircum" unicode="^" horiz-adv-x="557" 
d="M517 234h-108l-132 354l-130 -354h-107l209 524h60z" />
    <glyph glyph-name="underscore" unicode="_" 
d="M500 -118h-500v39h500v-39z" />
    <glyph glyph-name="grave" unicode="`" 
d="M372 649l-45 -66l-198 113l56 86z" />
    <glyph glyph-name="a" unicode="a" 
d="M442 4l-128 -8v66s-27 -70 -133 -70c-108 0 -149 82 -149 161c0 162 133 170 220 174l58 3v24c0 31 -2 80 -96 80c-86 0 -130 -47 -130 -47v104s48 40 169 40c183 0 189 -106 189 -172v-355zM311 169v78l-44 -3c-58 -4 -102 -18 -102 -81c0 -30 13 -69 69 -69
c47 0 77 33 77 75z" />
    <glyph glyph-name="b" unicode="b" horiz-adv-x="551" 
d="M519 274c0 -247 -127 -283 -221 -283c-81 0 -125 43 -125 43l-112 -41v761l137 16v-306s33 68 131 68c118 0 190 -90 190 -258zM380 259c0 117 -34 160 -100 160c-44 0 -82 -26 -82 -83v-211s21 -31 75 -31c73 0 107 48 107 165z" />
    <glyph glyph-name="c" unicode="c" horiz-adv-x="436" 
d="M416 141l-6 -114s-42 -37 -150 -37c-88 0 -228 35 -228 266c0 85 20 276 232 276c100 0 149 -38 149 -38v-111s-36 43 -112 43c-58 0 -130 -16 -130 -164c0 -93 29 -166 137 -166c72 0 108 45 108 45z" />
    <glyph glyph-name="d" unicode="d" horiz-adv-x="551" 
d="M490 5l-135 -10v68s-31 -72 -133 -72c-118 0 -190 90 -190 258c0 247 128 283 219 283c67 0 102 -37 102 -37v259l137 16v-765zM353 187v211s-21 31 -75 31c-73 0 -107 -48 -107 -165s34 -160 100 -160c44 0 82 26 82 83z" />
    <glyph glyph-name="e" unicode="e" horiz-adv-x="509" 
d="M477 227h-308c0 -69 21 -137 147 -137c94 0 140 47 140 47l-6 -109s-47 -38 -171 -38c-107 0 -247 39 -247 267c0 164 74 275 233 275c208 0 212 -182 212 -289v-16zM343 320c0 58 -8 122 -83 122c-86 0 -90 -82 -90 -122h173z" />
    <glyph glyph-name="f" unicode="f" horiz-adv-x="293" 
d="M330 753l-6 -101s-16 17 -59 17c-23 0 -40 -8 -48 -20c-12 -17 -13 -38 -13 -69v-56h98v-95h-98v-429h-137v429h-54v95h54v57c0 54 4 98 29 133c32 44 77 56 135 56c68 0 99 -17 99 -17z" />
    <glyph glyph-name="g" unicode="g" horiz-adv-x="549" 
d="M488 18c0 -64 -5 -120 -37 -162c-51 -66 -130 -86 -216 -86c-124 0 -177 38 -177 38l-5 115s57 -51 150 -51c53 0 99 9 126 45c21 27 22 65 22 93v54s-33 -68 -131 -68c-111 0 -188 87 -188 256c0 243 130 280 213 280c77 0 108 -39 108 -39v31h135v-506zM351 191v207
s-21 31 -74 31c-72 0 -106 -52 -106 -163c0 -121 39 -157 99 -157c42 0 81 25 81 82z" />
    <glyph glyph-name="h" unicode="h" horiz-adv-x="556" 
d="M502 0h-137v307c0 50 0 111 -83 111c-37 0 -84 -21 -84 -79v-339h-137v754l137 16v-310s37 72 141 72c53 0 89 -17 114 -40c47 -44 49 -110 49 -150v-342z" />
    <glyph glyph-name="i" unicode="i" horiz-adv-x="266" 
d="M210 689c0 -55 -39 -72 -78 -72c-49 0 -78 26 -78 68c0 55 39 72 78 72c49 0 78 -26 78 -68zM201 0h-138v524h138v-524z" />
    <glyph glyph-name="j" unicode="j" horiz-adv-x="261" 
d="M212 689c0 -55 -39 -72 -78 -72c-49 0 -78 26 -78 68c0 55 39 72 78 72c49 0 78 -26 78 -68zM203 -78c0 -104 -58 -152 -169 -152c-33 0 -59 4 -87 11l-5 106c19 -7 40 -14 62 -14c52 0 61 30 61 79v572h138v-602z" />
    <glyph glyph-name="k" unicode="k" horiz-adv-x="499" 
d="M513 524l-177 -236l172 -288h-160l-150 266v-266h-137v754l137 16v-485l168 239h147z" />
    <glyph glyph-name="l" unicode="l" horiz-adv-x="259" 
d="M198 0h-137v754l137 16v-770z" />
    <glyph glyph-name="m" unicode="m" horiz-adv-x="856" 
d="M802 0h-137v307c0 51 -2 111 -80 111c-42 0 -85 -23 -85 -79v-339h-137v307c0 51 -2 111 -80 111c-42 0 -85 -23 -85 -79v-339h-137v524h135v-64s38 72 143 72c107 0 136 -73 136 -73s40 74 158 74c32 0 81 -4 119 -39c46 -42 50 -100 50 -151v-343z" />
    <glyph glyph-name="n" unicode="n" horiz-adv-x="556" 
d="M502 0h-137v307c0 50 0 111 -83 111c-37 0 -84 -21 -84 -79v-339h-137v524h135v-64s37 72 143 72c53 0 89 -17 114 -40c47 -44 49 -110 49 -150v-342z" />
    <glyph glyph-name="o" unicode="o" horiz-adv-x="533" 
d="M501 269c0 -179 -84 -280 -237 -280c-141 0 -232 88 -232 263c0 179 84 280 237 280c141 0 232 -88 232 -263zM362 260c0 109 -21 171 -95 171c-70 0 -96 -51 -96 -170c0 -109 21 -171 95 -171c70 0 96 51 96 170z" />
    <glyph glyph-name="p" unicode="p" horiz-adv-x="551" 
d="M519 274c0 -247 -128 -283 -219 -283c-67 0 -102 37 -102 37v-258h-137v754h135v-64s31 72 133 72c118 0 190 -90 190 -258zM380 259c0 117 -34 160 -100 160c-44 0 -82 -26 -82 -83v-211s21 -31 75 -31c73 0 107 48 107 165z" />
    <glyph glyph-name="q" unicode="q" horiz-adv-x="551" 
d="M490 -230h-137v291s-29 -70 -131 -70c-118 0 -190 90 -190 258c0 247 128 283 219 283c67 0 104 -38 104 -38v30h135v-754zM353 187v211s-21 31 -75 31c-73 0 -107 -48 -107 -165s34 -160 100 -160c44 0 82 26 82 83z" />
    <glyph glyph-name="r" unicode="r" horiz-adv-x="372" 
d="M378 514l-13 -119s-23 23 -74 23c-78 0 -93 -58 -93 -99v-319h-137v524h134v-74s27 82 112 82c49 0 71 -18 71 -18z" />
    <glyph glyph-name="s" unicode="s" horiz-adv-x="412" 
d="M382 154c0 -150 -127 -163 -195 -163c-107 0 -152 38 -152 38l-5 111s52 -50 145 -50c41 0 78 8 78 48c0 30 -17 39 -55 60l-54 29c-55 30 -103 65 -103 153c0 137 111 152 179 152c96 0 141 -39 141 -39v-110s-48 51 -127 51c-53 0 -65 -22 -65 -45c0 -30 22 -41 55 -58
l56 -29c47 -24 102 -61 102 -148z" />
    <glyph glyph-name="t" unicode="t" horiz-adv-x="344" 
d="M326 111l-5 -99s-33 -20 -106 -20c-47 0 -91 10 -121 50c-23 31 -27 72 -27 128v259h-54v95h54v89l137 28v-117h120v-95h-120v-252c0 -27 2 -47 10 -60c9 -14 26 -24 51 -24c44 0 61 18 61 18z" />
    <glyph glyph-name="u" unicode="u" horiz-adv-x="556" 
d="M495 5l-135 -9v68s-38 -72 -145 -72c-51 0 -87 16 -112 39c-47 44 -49 108 -49 148v345h137v-309c0 -50 1 -109 83 -109c36 0 84 21 84 79v339h137v-519z" />
    <glyph glyph-name="v" unicode="v" horiz-adv-x="474" 
d="M480 524l-160 -527h-163l-160 527h141l89 -338c12 -45 17 -92 17 -92s5 45 18 92l90 338h128z" />
    <glyph glyph-name="w" unicode="w" horiz-adv-x="768" 
d="M771 524l-154 -527h-165l-57 264c-10 47 -14 84 -14 84s-3 -30 -16 -87l-60 -261h-162l-143 527h137l77 -337c10 -45 17 -94 17 -94s8 57 17 95l77 336h131l73 -339c10 -46 15 -96 15 -96s7 49 18 96l83 339h126z" />
    <glyph glyph-name="x" unicode="x" horiz-adv-x="501" 
d="M495 524l-166 -260l165 -264h-149l-104 164l-95 -164h-141l170 267l-163 257h154l99 -158l91 158h139z" />
    <glyph glyph-name="y" unicode="y" horiz-adv-x="474" 
d="M480 524l-193 -603c-35 -109 -93 -151 -194 -151c-60 0 -90 15 -90 15l-5 108s31 -19 72 -19c54 0 80 18 97 71l11 35l-181 544h141l85 -290c20 -69 21 -98 21 -98s8 36 24 93l84 295h128z" />
    <glyph glyph-name="z" unicode="z" horiz-adv-x="461" 
d="M431 95l-5 -95h-391v85l237 344h-219v95h377v-85l-238 -344h239z" />
    <glyph glyph-name="braceleft" unicode="{" horiz-adv-x="431" 
d="M371 759l-6 -80c-8 4 -28 9 -46 9c-46 0 -57 -27 -57 -78v-176c0 -60 -5 -129 -82 -158c80 -17 82 -103 82 -164v-179c0 -43 11 -80 66 -80c18 0 34 5 42 8l-5 -80c-11 -4 -50 -11 -81 -11c-115 0 -149 64 -149 139v196c0 89 -29 133 -95 133v76c65 0 95 43 95 130v188
c0 73 27 138 151 138c35 0 73 -7 85 -11z" />
    <glyph glyph-name="bar" unicode="|" horiz-adv-x="297" 
d="M217 -177h-137v947h137v-947z" />
    <glyph glyph-name="braceright" unicode="}" horiz-adv-x="431" 
d="M391 238c-66 0 -95 -44 -95 -133v-196c0 -75 -34 -139 -149 -139c-31 0 -70 7 -81 11l-5 80c8 -3 24 -8 42 -8c55 0 66 37 66 80v179c0 61 2 147 82 164c-77 29 -82 98 -82 158v176c0 51 -11 78 -57 78c-18 0 -38 -5 -46 -9l-6 80c12 4 50 11 85 11
c124 0 151 -65 151 -138v-188c0 -87 30 -130 95 -130v-76z" />
    <glyph glyph-name="asciitilde" unicode="~" horiz-adv-x="698" 
d="M690 447c0 0 -17 -80 -43 -127c-29 -52 -77 -72 -132 -72c-47 0 -96 19 -140 36l-78 30c-64 25 -90 29 -117 29c-36 0 -64 -11 -85 -46c-19 -32 -29 -68 -29 -68l-60 21s17 90 48 139c34 54 74 70 129 70c47 0 96 -19 140 -36l79 -30c64 -24 87 -29 117 -29
c28 0 60 9 82 40s30 61 30 61z" />
    <glyph glyph-name="Adieresis" unicode="&#xc4;" horiz-adv-x="608" 
d="M608 0h-145l-57 205h-219l-56 -205h-135l217 704h186zM376 314l-62 222c-13 45 -17 84 -17 84s-5 -36 -18 -83l-61 -223h158zM471 852c0 -40 -26 -66 -66 -66c-36 0 -64 24 -64 65c0 40 26 66 66 66c36 0 64 -25 64 -65zM260 852c0 -40 -26 -66 -66 -66
c-36 0 -64 24 -64 65c0 40 26 66 66 66c36 0 64 -25 64 -65z" />
    <glyph glyph-name="Aring" unicode="&#xc5;" horiz-adv-x="608" 
d="M608 0h-145l-57 205h-219l-56 -205h-135l217 704h186zM376 314l-62 222c-13 45 -17 84 -17 84s-5 -36 -18 -83l-61 -223h158zM430 844c0 -74 -55 -119 -123 -119c-62 0 -121 38 -121 121c0 74 55 119 123 119c62 0 121 -38 121 -121zM364 844c0 43 -26 61 -56 61
c-29 0 -56 -19 -56 -59c0 -43 26 -61 56 -61c29 0 56 19 56 59z" />
    <glyph glyph-name="Ccedilla" unicode="&#xc7;" horiz-adv-x="562" 
d="M537 170l-6 -132s-42 -42 -161 -49h-9v-8c0 -39 68 -26 68 -110c0 -58 -38 -98 -107 -98c-35 0 -57 11 -57 11l-4 69s18 -16 47 -16c21 0 41 6 41 37c0 46 -61 34 -61 95c0 16 1 23 1 23c-183 21 -259 168 -259 344c0 86 16 167 50 227c54 95 147 148 273 148
c120 0 181 -47 181 -47v-127s-51 61 -165 61c-118 0 -197 -67 -197 -247c0 -146 52 -249 195 -249c120 0 170 68 170 68z" />
    <glyph glyph-name="Eacute" unicode="&#xc9;" horiz-adv-x="475" 
d="M453 118l-5 -118h-387v703h374v-118h-234v-167h191v-118h-191v-182h252zM379 872l-198 -113l-45 66l187 133z" />
    <glyph glyph-name="Ntilde" unicode="&#xd1;" horiz-adv-x="654" 
d="M593 0h-153l-199 365c-44 81 -58 143 -58 143v-508h-122v703h158l181 -350c39 -76 71 -169 71 -169v519h122v-703zM489 888c0 0 -27 -104 -105 -104c-19 0 -32 3 -54 13l-25 11c-19 8 -29 10 -38 10c-34 0 -46 -34 -46 -34l-57 33s33 101 105 101c17 0 30 -3 52 -13
l25 -11c17 -8 29 -10 38 -10c34 0 46 36 46 36z" />
    <glyph glyph-name="Odieresis" unicode="&#xd6;" horiz-adv-x="656" 
d="M626 361c0 -241 -114 -373 -298 -373c-188 0 -298 117 -298 351c0 241 114 373 298 373c188 0 298 -117 298 -351zM484 351c0 180 -55 250 -156 250c-99 0 -156 -72 -156 -252s55 -250 156 -250c99 0 156 72 156 252zM497 852c0 -40 -26 -66 -66 -66c-36 0 -64 24 -64 65
c0 40 26 66 66 66c36 0 64 -25 64 -65zM286 852c0 -40 -26 -66 -66 -66c-36 0 -64 24 -64 65c0 40 26 66 66 66c36 0 64 -25 64 -65z" />
    <glyph glyph-name="Udieresis" unicode="&#xdc;" horiz-adv-x="642" 
d="M584 297c0 -112 -2 -176 -48 -232c-44 -54 -116 -76 -211 -76c-99 0 -168 20 -214 69s-53 119 -53 216v429h140v-461c0 -66 5 -143 124 -143c125 0 128 78 128 148v456h134v-406zM491 852c0 -40 -26 -66 -66 -66c-36 0 -64 24 -64 65c0 40 26 66 66 66
c36 0 64 -25 64 -65zM280 852c0 -40 -26 -66 -66 -66c-36 0 -64 24 -64 65c0 40 26 66 66 66c36 0 64 -25 64 -65z" />
    <glyph glyph-name="aacute" unicode="&#xe1;" 
d="M442 4l-128 -8v66s-27 -70 -133 -70c-108 0 -149 82 -149 161c0 162 133 170 220 174l58 3v24c0 31 -2 80 -96 80c-86 0 -130 -47 -130 -47v104s48 40 169 40c183 0 189 -106 189 -172v-355zM311 169v78l-44 -3c-58 -4 -102 -18 -102 -81c0 -30 13 -69 69 -69
c47 0 77 33 77 75zM371 696l-198 -113l-45 66l187 133z" />
    <glyph glyph-name="agrave" unicode="&#xe0;" 
d="M442 4l-128 -8v66s-27 -70 -133 -70c-108 0 -149 82 -149 161c0 162 133 170 220 174l58 3v24c0 31 -2 80 -96 80c-86 0 -130 -47 -130 -47v104s48 40 169 40c183 0 189 -106 189 -172v-355zM311 169v78l-44 -3c-58 -4 -102 -18 -102 -81c0 -30 13 -69 69 -69
c47 0 77 33 77 75zM372 649l-45 -66l-198 113l56 86z" />
    <glyph glyph-name="acircumflex" unicode="&#xe2;" 
d="M431 646l-50 -63l-131 86l-132 -86l-49 63l181 146zM442 4l-128 -8v66s-27 -70 -133 -70c-108 0 -149 82 -149 161c0 162 133 170 220 174l58 3v24c0 31 -2 80 -96 80c-86 0 -130 -47 -130 -47v104s48 40 169 40c183 0 189 -106 189 -172v-355zM311 169v78l-44 -3
c-58 -4 -102 -18 -102 -81c0 -30 13 -69 69 -69c47 0 77 33 77 75z" />
    <glyph glyph-name="adieresis" unicode="&#xe4;" 
d="M442 4l-128 -8v66s-27 -70 -133 -70c-108 0 -149 82 -149 161c0 162 133 170 220 174l58 3v24c0 31 -2 80 -96 80c-86 0 -130 -47 -130 -47v104s48 40 169 40c183 0 189 -106 189 -172v-355zM311 169v78l-44 -3c-58 -4 -102 -18 -102 -81c0 -30 13 -69 69 -69
c47 0 77 33 77 75zM422 673c0 -40 -26 -66 -66 -66c-36 0 -64 24 -64 65c0 40 26 66 66 66c36 0 64 -25 64 -65zM211 673c0 -40 -26 -66 -66 -66c-36 0 -64 24 -64 65c0 40 26 66 66 66c36 0 64 -25 64 -65z" />
    <glyph glyph-name="atilde" unicode="&#xe3;" 
d="M442 4l-128 -8v66s-27 -70 -133 -70c-108 0 -149 82 -149 161c0 162 133 170 220 174l58 3v24c0 31 -2 80 -96 80c-86 0 -130 -47 -130 -47v104s48 40 169 40c183 0 189 -106 189 -172v-355zM311 169v78l-44 -3c-58 -4 -102 -18 -102 -81c0 -30 13 -69 69 -69
c47 0 77 33 77 75zM413 709c0 0 -27 -104 -105 -104c-19 0 -32 3 -54 13l-25 11c-19 8 -29 10 -38 10c-34 0 -46 -34 -46 -34l-57 33s33 101 105 101c17 0 30 -3 52 -13l25 -11c17 -8 29 -10 38 -10c34 0 46 36 46 36z" />
    <glyph glyph-name="aring" unicode="&#xe5;" 
d="M442 4l-128 -8v66s-27 -70 -133 -70c-108 0 -149 82 -149 161c0 162 133 170 220 174l58 3v24c0 31 -2 80 -96 80c-86 0 -130 -47 -130 -47v104s48 40 169 40c183 0 189 -106 189 -172v-355zM311 169v78l-44 -3c-58 -4 -102 -18 -102 -81c0 -30 13 -69 69 -69
c47 0 77 33 77 75zM372 679c0 -74 -55 -119 -123 -119c-62 0 -121 38 -121 121c0 74 55 119 123 119c62 0 121 -38 121 -121zM306 679c0 43 -26 61 -56 61c-29 0 -56 -19 -56 -59c0 -43 26 -61 56 -61c29 0 56 19 56 59z" />
    <glyph glyph-name="ccedilla" unicode="&#xe7;" horiz-adv-x="436" 
d="M416 141l-6 -114s-37 -32 -129 -36v-10c0 -39 68 -26 68 -110c0 -58 -38 -98 -107 -98c-35 0 -57 11 -57 11l-4 69s18 -16 47 -16c21 0 41 6 41 37c0 47 -61 33 -61 95c0 15 1 25 1 25c-83 14 -177 72 -177 262c0 85 20 276 232 276c100 0 149 -38 149 -38v-111
s-36 43 -112 43c-58 0 -130 -16 -130 -164c0 -93 29 -166 137 -166c72 0 108 45 108 45z" />
    <glyph glyph-name="eacute" unicode="&#xe9;" horiz-adv-x="509" 
d="M477 227h-308c0 -69 21 -137 147 -137c94 0 140 47 140 47l-6 -109s-47 -38 -171 -38c-107 0 -247 39 -247 267c0 164 74 275 233 275c208 0 212 -182 212 -289v-16zM343 320c0 58 -8 122 -83 122c-86 0 -90 -82 -90 -122h173zM376 696l-198 -113l-45 66l187 133z" />
    <glyph glyph-name="egrave" unicode="&#xe8;" horiz-adv-x="509" 
d="M477 227h-308c0 -69 21 -137 147 -137c94 0 140 47 140 47l-6 -109s-47 -38 -171 -38c-107 0 -247 39 -247 267c0 164 74 275 233 275c208 0 212 -182 212 -289v-16zM343 320c0 58 -8 122 -83 122c-86 0 -90 -82 -90 -122h173zM376 649l-45 -66l-198 113l56 86z" />
    <glyph glyph-name="ecircumflex" unicode="&#xea;" horiz-adv-x="509" 
d="M477 227h-308c0 -69 21 -137 147 -137c94 0 140 47 140 47l-6 -109s-47 -38 -171 -38c-107 0 -247 39 -247 267c0 164 74 275 233 275c208 0 212 -182 212 -289v-16zM343 320c0 58 -8 122 -83 122c-86 0 -90 -82 -90 -122h173zM440 646l-50 -63l-131 86l-132 -86l-49 63
l181 146z" />
    <glyph glyph-name="edieresis" unicode="&#xeb;" horiz-adv-x="509" 
d="M477 227h-308c0 -69 21 -137 147 -137c94 0 140 47 140 47l-6 -109s-47 -38 -171 -38c-107 0 -247 39 -247 267c0 164 74 275 233 275c208 0 212 -182 212 -289v-16zM343 320c0 58 -8 122 -83 122c-86 0 -90 -82 -90 -122h173zM425 673c0 -40 -26 -66 -66 -66
c-36 0 -64 24 -64 65c0 40 26 66 66 66c36 0 64 -25 64 -65zM214 673c0 -40 -26 -66 -66 -66c-36 0 -64 24 -64 65c0 40 26 66 66 66c36 0 64 -25 64 -65z" />
    <glyph glyph-name="igrave" unicode="&#xec;" horiz-adv-x="266" 
d="M201 0h-138v524h138v-524zM255 649l-45 -66l-198 113l56 86z" />
    <glyph glyph-name="icircumflex" unicode="&#xee;" horiz-adv-x="266" 
d="M201 0h-138v524h138v-524zM314 646l-50 -63l-131 86l-132 -86l-49 63l181 146z" />
    <glyph glyph-name="idieresis" unicode="&#xef;" horiz-adv-x="266" 
d="M201 0h-138v524h138v-524zM304 673c0 -40 -26 -66 -66 -66c-36 0 -64 24 -64 65c0 40 26 66 66 66c36 0 64 -25 64 -65zM93 673c0 -40 -26 -66 -66 -66c-36 0 -64 24 -64 65c0 40 26 66 66 66c36 0 64 -25 64 -65z" />
    <glyph glyph-name="ntilde" unicode="&#xf1;" horiz-adv-x="556" 
d="M502 0h-137v307c0 50 0 111 -83 111c-37 0 -84 -21 -84 -79v-339h-137v524h135v-64s37 72 143 72c53 0 89 -17 114 -40c47 -44 49 -110 49 -150v-342zM438 709c0 0 -27 -104 -105 -104c-19 0 -32 3 -54 13l-25 11c-19 8 -29 10 -38 10c-34 0 -46 -34 -46 -34l-57 33
s33 101 105 101c17 0 30 -3 52 -13l25 -11c17 -8 29 -10 38 -10c34 0 46 36 46 36z" />
    <glyph glyph-name="oacute" unicode="&#xf3;" horiz-adv-x="533" 
d="M501 269c0 -179 -84 -280 -237 -280c-141 0 -232 88 -232 263c0 179 84 280 237 280c141 0 232 -88 232 -263zM362 260c0 109 -21 171 -95 171c-70 0 -96 -51 -96 -170c0 -109 21 -171 95 -171c70 0 96 51 96 170zM388 696l-198 -113l-45 66l187 133z" />
    <glyph glyph-name="ograve" unicode="&#xf2;" horiz-adv-x="533" 
d="M501 269c0 -179 -84 -280 -237 -280c-141 0 -232 88 -232 263c0 179 84 280 237 280c141 0 232 -88 232 -263zM362 260c0 109 -21 171 -95 171c-70 0 -96 -51 -96 -170c0 -109 21 -171 95 -171c70 0 96 51 96 170zM388 649l-45 -66l-198 113l56 86z" />
    <glyph glyph-name="ocircumflex" unicode="&#xf4;" horiz-adv-x="533" 
d="M501 269c0 -179 -84 -280 -237 -280c-141 0 -232 88 -232 263c0 179 84 280 237 280c141 0 232 -88 232 -263zM362 260c0 109 -21 171 -95 171c-70 0 -96 -51 -96 -170c0 -109 21 -171 95 -171c70 0 96 51 96 170zM447 646l-50 -63l-131 86l-132 -86l-49 63l181 146z" />
    <glyph glyph-name="odieresis" unicode="&#xf6;" horiz-adv-x="533" 
d="M501 269c0 -179 -84 -280 -237 -280c-141 0 -232 88 -232 263c0 179 84 280 237 280c141 0 232 -88 232 -263zM362 260c0 109 -21 171 -95 171c-70 0 -96 -51 -96 -170c0 -109 21 -171 95 -171c70 0 96 51 96 170zM437 673c0 -40 -26 -66 -66 -66c-36 0 -64 24 -64 65
c0 40 26 66 66 66c36 0 64 -25 64 -65zM226 673c0 -40 -26 -66 -66 -66c-36 0 -64 24 -64 65c0 40 26 66 66 66c36 0 64 -25 64 -65z" />
    <glyph glyph-name="otilde" unicode="&#xf5;" horiz-adv-x="533" 
d="M501 269c0 -179 -84 -280 -237 -280c-141 0 -232 88 -232 263c0 179 84 280 237 280c141 0 232 -88 232 -263zM362 260c0 109 -21 171 -95 171c-70 0 -96 -51 -96 -170c0 -109 21 -171 95 -171c70 0 96 51 96 170zM430 709c0 0 -27 -104 -105 -104c-19 0 -32 3 -54 13
l-25 11c-19 8 -29 10 -38 10c-34 0 -46 -34 -46 -34l-57 33s33 101 105 101c17 0 30 -3 52 -13l25 -11c17 -8 29 -10 38 -10c34 0 46 36 46 36z" />
    <glyph glyph-name="uacute" unicode="&#xfa;" horiz-adv-x="556" 
d="M495 5l-135 -9v68s-38 -72 -145 -72c-51 0 -87 16 -112 39c-47 44 -49 108 -49 148v345h137v-309c0 -50 1 -109 83 -109c36 0 84 21 84 79v339h137v-519zM399 696l-198 -113l-45 66l187 133z" />
    <glyph glyph-name="ugrave" unicode="&#xf9;" horiz-adv-x="556" 
d="M495 5l-135 -9v68s-38 -72 -145 -72c-51 0 -87 16 -112 39c-47 44 -49 108 -49 148v345h137v-309c0 -50 1 -109 83 -109c36 0 84 21 84 79v339h137v-519zM399 649l-45 -66l-198 113l56 86z" />
    <glyph glyph-name="ucircumflex" unicode="&#xfb;" horiz-adv-x="556" 
d="M495 5l-135 -9v68s-38 -72 -145 -72c-51 0 -87 16 -112 39c-47 44 -49 108 -49 148v345h137v-309c0 -50 1 -109 83 -109c36 0 84 21 84 79v339h137v-519zM459 646l-50 -63l-131 86l-132 -86l-49 63l181 146z" />
    <glyph glyph-name="udieresis" unicode="&#xfc;" horiz-adv-x="556" 
d="M495 5l-135 -9v68s-38 -72 -145 -72c-51 0 -87 16 -112 39c-47 44 -49 108 -49 148v345h137v-309c0 -50 1 -109 83 -109c36 0 84 21 84 79v339h137v-519zM448 673c0 -40 -26 -66 -66 -66c-36 0 -64 24 -64 65c0 40 26 66 66 66c36 0 64 -25 64 -65zM237 673
c0 -40 -26 -66 -66 -66c-36 0 -64 24 -64 65c0 40 26 66 66 66c36 0 64 -25 64 -65z" />
    <glyph glyph-name="dagger" unicode="&#x2020;" horiz-adv-x="492" 
d="M442 428l-162 39l35 -146v-96l-36 -374h-60l-42 374v95l36 147l-163 -39v134l163 -39l-42 180h151l-42 -180l162 39v-134z" />
    <glyph glyph-name="degree" unicode="&#xb0;" horiz-adv-x="436" 
d="M376 600c0 -85 -71 -155 -159 -155c-85 0 -156 69 -156 155s70 155 156 155c88 0 159 -69 159 -155zM314 600c0 55 -42 97 -96 97s-96 -42 -96 -97c0 -53 42 -98 96 -98s96 45 96 98z" />
    <glyph glyph-name="cent" unicode="&#xa2;" horiz-adv-x="555" 
d="M465 230l-6 -114s-28 -24 -92 -33v-94h-110v95c-77 15 -176 64 -176 261c0 78 16 239 176 270v85l110 12v-95c63 -10 95 -34 95 -34v-111s-36 43 -112 43c-58 0 -130 -16 -130 -164c0 -93 29 -166 137 -166c72 0 108 45 108 45z" />
    <glyph glyph-name="sterling" unicode="&#xa3;" horiz-adv-x="555" 
d="M522 142l-8 -128c-25 -20 -71 -27 -103 -27c-37 0 -71 5 -103 12l-76 16c-21 4 -46 7 -70 7c-34 0 -78 -11 -111 -33l-39 81s36 19 54 42c28 35 48 80 56 213h-81v89h86c3 53 7 105 25 155c30 82 95 143 215 143c101 0 152 -41 152 -41v-128s-36 57 -124 57
c-48 0 -85 -17 -104 -54c-18 -35 -21 -73 -25 -132h160v-89h-164c-6 -103 -28 -130 -54 -163c-18 -23 -36 -41 -46 -49c13 7 34 15 64 15c19 0 41 -3 60 -7l73 -16c11 -2 35 -6 58 -6c44 0 86 23 105 43z" />
    <glyph glyph-name="section" unicode="&#xa7;" horiz-adv-x="561" 
d="M491 318c0 -135 -114 -175 -114 -175c4 -3 10 -7 16 -12c22 -18 53 -55 53 -127c0 -138 -116 -163 -184 -163c-108 0 -152 44 -152 44v110s51 -54 136 -54c54 0 72 28 72 56c0 31 -13 45 -48 68l-98 64c-43 28 -102 64 -102 164c0 135 114 175 114 175c-4 3 -10 7 -17 13
c-22 19 -52 55 -52 126c0 138 116 163 184 163c108 0 152 -44 152 -44v-110s-51 54 -136 54c-54 0 -72 -28 -72 -56c0 -31 13 -45 48 -68l98 -64c43 -28 102 -64 102 -164zM366 299c0 51 -50 82 -81 102l-26 17s-64 -27 -64 -106c0 -51 50 -82 81 -102l26 -17s64 28 64 106z
" />
    <glyph glyph-name="bullet" unicode="&#x2022;" horiz-adv-x="568" 
d="M438 292c0 -86 -71 -156 -154 -156c-86 0 -154 70 -154 156c0 85 68 155 154 155c83 0 154 -70 154 -155z" />
    <glyph glyph-name="paragraph" unicode="&#xb6;" horiz-adv-x="442" 
d="M407 703l-5 -102h-54v-585c0 -107 -46 -175 -173 -175c-32 0 -79 10 -96 18l-5 98c18 -9 52 -23 88 -23c57 0 73 26 73 88v288h-16c-114 0 -194 81 -194 193c0 128 87 200 234 200h148z" />
    <glyph glyph-name="germandbls" unicode="&#xdf;" horiz-adv-x="623" 
d="M593 154c0 -142 -119 -163 -189 -163c-101 0 -144 38 -144 38l-5 111s50 -50 138 -50c34 0 71 8 71 48c0 28 -17 39 -57 61l-51 28c-70 38 -105 70 -105 146c0 65 36 100 72 129s72 52 72 94c0 34 -16 67 -95 67c-37 0 -73 -12 -88 -38c-13 -22 -14 -43 -14 -82v-543
h-137v561c0 51 2 113 61 161c54 43 131 48 175 48c136 0 240 -30 240 -155c0 -69 -34 -106 -70 -133c-40 -30 -82 -49 -82 -88c0 -33 14 -42 55 -64l53 -28c45 -24 100 -61 100 -148z" />
    <glyph glyph-name="registered" unicode="&#xae;" horiz-adv-x="883" 
d="M833 320c0 -232 -160 -403 -390 -403c-231 0 -393 167 -393 398c0 233 164 399 397 399c234 0 386 -164 386 -394zM763 320c0 191 -121 335 -316 335c-199 0 -326 -145 -326 -340c0 -193 129 -340 322 -340c195 0 320 147 320 345zM641 68h-114l-151 188v-188h-90v509h94
c56 0 125 -3 160 -20c42 -20 68 -58 68 -116c0 -107 -76 -153 -150 -156zM511 429c0 65 -40 77 -99 77h-34v-161h24c58 0 109 16 109 84z" />
    <glyph glyph-name="copyright" unicode="&#xa9;" horiz-adv-x="883" 
d="M833 320c0 -232 -160 -403 -390 -403c-231 0 -393 167 -393 398c0 233 164 399 397 399c234 0 386 -164 386 -394zM763 320c0 191 -121 335 -316 335c-199 0 -326 -145 -326 -340c0 -193 129 -340 322 -340c195 0 320 147 320 345zM593 193l-4 -98s-35 -35 -138 -35
c-159 0 -236 114 -236 250c0 61 14 111 38 154c38 68 117 109 210 109c85 0 128 -33 128 -33v-94s-36 43 -117 43c-84 0 -155 -44 -155 -172c0 -102 52 -173 154 -173c85 0 120 49 120 49z" />
    <glyph glyph-name="trademark" unicode="&#x2122;" horiz-adv-x="850" 
d="M792 309h-76v289s-8 -29 -16 -51l-91 -238h-66l-87 236c-8 21 -15 48 -15 48v-284h-70v394h111l89 -248c6 -17 12 -48 12 -48s9 34 15 50l92 246h102v-394zM321 635h-106v-326h-81v326h-104v68h291v-68z" />
    <glyph glyph-name="acute" unicode="&#xb4;" 
d="M362 696l-198 -113l-45 66l187 133z" />
    <glyph glyph-name="dieresis" unicode="&#xa8;" 
d="M422 673c0 -40 -26 -66 -66 -66c-36 0 -64 24 -64 65c0 40 26 66 66 66c36 0 64 -25 64 -65zM211 673c0 -40 -26 -66 -66 -66c-36 0 -64 24 -64 65c0 40 26 66 66 66c36 0 64 -25 64 -65z" />
    <glyph glyph-name="notequal" unicode="&#x2260;" horiz-adv-x="640" 
d="M617 183h-323l-85 -166l-78 30l70 136h-178v87h223l84 163h-307v87h351l82 159l78 -31l-66 -128h149v-87h-193l-84 -163h277v-87z" />
    <glyph glyph-name="AE" unicode="&#xc6;" horiz-adv-x="830" 
d="M808 118l-5 -118h-387v282h-149l-130 -282h-146l336 703h463v-118h-234v-194h191v-118h-191v-155h252zM416 391v241c-4 -15 -17 -47 -25 -64l-80 -177h105z" />
    <glyph glyph-name="Oslash" unicode="&#xd8;" horiz-adv-x="656" 
d="M626 361c0 -241 -114 -373 -298 -373c-59 0 -110 12 -153 35l-43 -71h-97l75 123c-52 58 -80 146 -80 264c0 241 114 373 298 373c57 0 107 -11 149 -33l35 57h99l-66 -109c53 -58 81 -147 81 -266zM415 575c-23 18 -53 26 -87 26c-99 0 -156 -72 -156 -252
c0 -59 5 -108 17 -145zM484 351c0 61 -7 111 -19 148l-227 -372c24 -19 54 -28 90 -28c99 0 156 72 156 252z" />
    <glyph glyph-name="infinity" unicode="&#x221e;" horiz-adv-x="828" 
d="M766 358c0 -112 -72 -192 -181 -192c-71 0 -128 49 -160 106l-18 32c-20 -46 -80 -137 -176 -137c-102 0 -169 65 -169 183c0 113 75 191 178 191c78 0 132 -53 164 -106l18 -30c20 45 76 136 176 136c101 0 168 -66 168 -183zM716 355c0 71 -45 124 -127 124
c-67 0 -120 -38 -153 -95l33 -57c35 -60 71 -96 131 -96c68 0 116 44 116 124zM394 325l-34 54c-36 58 -72 97 -132 97c-68 0 -116 -42 -116 -122c0 -74 45 -125 128 -125c66 0 120 39 154 96z" />
    <glyph glyph-name="plusminus" unicode="&#xb1;" horiz-adv-x="640" 
d="M617 394h-252v-264h-91v264h-251v86h251v256h91v-256h252v-86zM617 0h-594v86h594v-86z" />
    <glyph glyph-name="lessequal" unicode="&#x2264;" horiz-adv-x="711" 
d="M688 116l-665 293v53l665 294v-94l-524 -225l524 -224v-97zM688 0h-665v86h665v-86z" />
    <glyph glyph-name="greaterequal" unicode="&#x2265;" horiz-adv-x="711" 
d="M689 409l-665 -293v97l524 224l-524 225v94l665 -294v-53zM689 0h-665v86h665v-86z" />
    <glyph glyph-name="yen" unicode="&#xa5;" horiz-adv-x="555" 
d="M561 703l-168 -324h87v-86h-133v-75h133v-86h-133v-132h-140v132h-129v86h129v75h-129v86h83l-164 324h152l134 -291l138 291h140z" />
    <glyph glyph-name="mu" unicode="&#xb5;" horiz-adv-x="612" 
d="M577 44c0 0 -26 -52 -80 -52c-37 0 -61 28 -61 60v4c-21 -21 -78 -64 -149 -64c-86 0 -118 50 -118 50v-204c-20 -3 -37 -8 -57 -12c-29 -6 -68 -22 -68 -22l-7 15s38 17 54 50c15 32 15 83 15 115v354c0 69 -2 94 -12 110c-15 24 -39 24 -45 24v17c6 0 31 0 81 7
c37 5 48 15 48 15l4 -2s-5 -20 -5 -201v-62c0 -36 1 -73 5 -106c9 -68 60 -105 136 -105c60 0 115 33 115 33v270c0 69 0 94 -11 110c-16 24 -39 24 -45 24v17c6 0 19 0 68 7c37 5 57 15 57 15l3 -2s-2 -39 -2 -202v-189c0 -31 0 -71 42 -71c16 0 22 7 22 7z" />
    <glyph glyph-name="partialdiff" unicode="&#x2202;" horiz-adv-x="536" 
d="M486 481c0 -82 -13 -257 -75 -370c-41 -74 -98 -119 -187 -119c-110 0 -172 69 -172 197c0 69 17 136 47 191c38 69 100 111 181 111c109 0 131 -76 131 -76s9 29 9 108c0 115 -53 165 -127 165c-42 0 -53 -5 -53 -5s10 -12 10 -35s-14 -46 -52 -46c-30 0 -45 17 -45 42
c0 37 37 78 148 78c163 0 185 -138 185 -241zM397 314c0 54 -13 145 -108 145c-70 0 -109 -61 -123 -91c-25 -53 -40 -128 -40 -196c0 -116 45 -149 107 -149c69 0 104 60 118 88c34 72 46 147 46 203z" />
    <glyph glyph-name="summation" unicode="&#x2211;" horiz-adv-x="681" 
d="M670 -50c-3 -49 -3 -180 -3 -180h-647v47l297 450l-297 474v29h627s0 -89 3 -138h-17c-2 48 -23 68 -25 70c-19 20 -79 21 -108 21h-375l269 -431l-303 -451h425c29 0 86 4 108 26c4 4 29 43 30 83h16z" />
    <glyph glyph-name="product" unicode="&#x220f;" horiz-adv-x="850" 
d="M803 -230c-38 2 -76 4 -112 4s-57 0 -102 -4v15c14 0 35 5 51 23c17 20 18 50 18 141v773h-463v-805c0 -67 3 -90 14 -106c2 -3 15 -23 52 -26v-15c-40 2 -61 4 -97 4s-72 0 -117 -4v15c14 0 35 5 51 23c17 20 18 50 18 141v681c0 67 -2 87 -12 103c-2 3 -15 24 -53 28
v12c56 -3 89 -3 147 -3h457c58 0 91 0 147 3v-12c-38 -4 -51 -25 -53 -28c-10 -16 -12 -36 -12 -103v-713c0 -67 3 -90 14 -106c2 -3 15 -23 52 -26v-15z" />
    <glyph glyph-name="pi" unicode="&#x3c0;" horiz-adv-x="603" 
d="M581 516l-67 -84h-46v-314c0 -47 6 -71 44 -71c9 0 17 2 24 8l9 -12c-19 -23 -49 -51 -89 -51c-50 0 -58 41 -58 70v370h-210v-426c-20 -2 -33 -5 -53 -11c-23 -6 -44 -14 -66 -24l-6 15c28 14 42 29 52 47c17 30 17 63 17 118v281h-11c-37 0 -61 -15 -89 -52l-12 8
c29 92 61 107 150 107c86 0 177 -5 257 -5c27 0 56 2 69 4c35 7 57 19 76 32z" />
    <glyph glyph-name="integral" unicode="&#x222b;" horiz-adv-x="498" 
d="M478 797c0 -28 -21 -49 -48 -49c-25 0 -46 14 -46 44c0 14 4 26 15 34c-122 0 -123 -108 -123 -155c0 -174 18 -431 18 -599c0 -228 -11 -414 -186 -414c-39 0 -88 10 -88 60c0 28 20 49 47 49c25 0 47 -14 47 -44c0 -14 -5 -26 -15 -34c122 0 126 108 126 156
c0 174 -20 430 -20 599c1 214 3 413 188 413c37 0 85 -10 85 -60z" />
    <glyph glyph-name="ordfeminine" unicode="&#xaa;" horiz-adv-x="370" 
d="M336 316l-106 -6v49s-15 -52 -95 -52c-86 0 -118 61 -118 121c0 121 106 127 171 130l39 2v13c0 24 -6 55 -72 55c-60 0 -99 -41 -99 -41v90s45 34 138 34c138 0 142 -79 142 -129v-266zM228 445v48l-28 -2c-39 -3 -73 -14 -73 -56c0 -22 11 -47 48 -47c35 0 53 25 53 57
z" />
    <glyph glyph-name="ordmasculine" unicode="&#xba;" horiz-adv-x="418" 
d="M392 517c0 -135 -68 -210 -183 -210c-106 0 -179 66 -179 197c0 134 68 207 183 207c106 0 179 -63 179 -194zM279 510c0 78 -15 122 -68 122c-49 0 -68 -37 -68 -121c0 -78 15 -126 68 -126c49 0 68 40 68 125z" />
    <glyph glyph-name="Omega" unicode="&#x2126;" horiz-adv-x="774" 
d="M723 156c-4 -28 -9 -79 -9 -156h-276v67c49 7 184 86 184 297c0 115 -32 299 -234 299c-200 0 -234 -183 -234 -299c0 -213 131 -290 182 -297v-67h-275c0 77 -5 128 -10 156h17c9 -48 26 -65 30 -69c24 -23 74 -23 130 -23h56c-115 41 -217 144 -217 299
c0 162 98 340 320 340c174 0 320 -116 320 -329c0 -195 -137 -281 -219 -310h59c56 0 105 0 130 23c4 4 19 21 30 69h16z" />
    <glyph glyph-name="ae" unicode="&#xe6;" horiz-adv-x="779" 
d="M747 227h-308c0 -92 43 -137 147 -137c94 0 140 47 140 47l-6 -109s-47 -38 -169 -38c-145 0 -179 79 -179 79s-39 -77 -165 -77s-175 71 -175 162c0 162 133 169 220 173l58 3v24c0 31 -2 81 -96 81c-86 0 -130 -47 -130 -47v104s48 40 169 40c74 0 119 -18 147 -49
c32 30 75 49 135 49c208 0 212 -182 212 -289v-16zM613 320c0 58 -8 122 -83 122c-86 0 -90 -82 -90 -122h173zM311 169v78l-44 -3c-58 -4 -102 -18 -102 -81c0 -30 13 -69 69 -69c47 0 77 33 77 75z" />
    <glyph glyph-name="oslash" unicode="&#xf8;" horiz-adv-x="533" 
d="M501 269c0 -179 -84 -280 -237 -280c-43 0 -81 8 -114 24l-38 -61h-83l65 104c-40 44 -62 109 -62 196c0 179 84 280 237 280c40 0 76 -7 107 -22l33 53h85l-59 -94c42 -44 66 -111 66 -200zM316 418c-13 9 -28 13 -49 13c-70 0 -96 -51 -96 -170c0 -28 2 -55 5 -77z
M362 260c0 31 -3 61 -7 84l-144 -239c14 -12 31 -15 55 -15c70 0 96 51 96 170z" />
    <glyph glyph-name="questiondown" unicode="&#xbf;" horiz-adv-x="475" 
d="M361 627c0 -47 -31 -80 -78 -80c-46 0 -78 32 -78 79c0 48 28 83 77 83c48 0 79 -31 79 -82zM430 34c0 0 -62 -48 -189 -48c-112 0 -201 57 -201 176c0 64 23 114 82 170l56 54c36 34 42 49 42 91v23h124v-37c0 -46 -6 -78 -41 -115l-62 -66c-39 -42 -64 -62 -64 -113
c0 -50 42 -74 96 -74c98 0 157 66 157 66v-127z" />
    <glyph glyph-name="exclamdown" unicode="&#xa1;" horiz-adv-x="286" 
d="M218 627c0 -47 -31 -80 -78 -80c-46 0 -78 32 -78 79c0 48 28 83 77 83c48 0 79 -31 79 -82zM206 10l-135 -15l6 505h122z" />
    <glyph glyph-name="logicalnot" unicode="&#xac;" horiz-adv-x="640" 
d="M617 186h-87v156h-507v86h594v-242z" />
    <glyph glyph-name="radical" unicode="&#x221a;" horiz-adv-x="577" 
d="M768 905h-199l-302 -908l-34 -9l-159 452c-14 41 -39 85 -81 85v16c30 -3 58 -4 87 -4c15 0 28 1 40 3l110 -338c10 -30 19 -57 27 -88c7 32 13 59 23 91l245 744h243v-44z" />
    <glyph glyph-name="florin" unicode="&#x192;" horiz-adv-x="498" 
d="M480 746l-18 -105s-20 28 -64 28c-56 0 -68 -35 -75 -88l-8 -57h105l-11 -95h-105l-61 -498c-14 -110 -67 -161 -179 -161c-62 0 -106 18 -106 18l-6 110s35 -24 82 -24c55 0 68 26 74 78l58 477h-63l11 95h63l12 80c16 111 72 166 180 166c62 0 111 -24 111 -24z" />
    <glyph glyph-name="approxequal" unicode="&#x2248;" horiz-adv-x="594" 
d="M573 523c-56 -100 -109 -136 -162 -136c-30 0 -51 4 -84 16l-91 34c-29 11 -43 15 -68 15c-36 0 -74 -20 -112 -83l-33 27c55 111 106 147 162 147c26 0 48 -5 82 -18l90 -33c28 -10 42 -14 72 -14c33 0 71 6 107 71zM573 302c-56 -100 -109 -136 -162 -136
c-30 0 -51 4 -84 16l-91 34c-29 11 -43 15 -68 15c-36 0 -74 -20 -112 -83l-33 27c55 111 106 147 162 147c26 0 48 -5 82 -18l90 -33c28 -10 42 -14 72 -14c33 0 71 6 107 71z" />
    <glyph glyph-name="Delta" unicode="&#x2206;" horiz-adv-x="652" 
d="M652 0h-652v29l309 680h39l304 -680v-29zM565 51l-249 555l-255 -555h504z" />
    <glyph glyph-name="guillemotleft" unicode="&#xab;" horiz-adv-x="507" 
d="M477 54h-112l-105 198l105 199h112l-93 -198zM257 54h-112l-105 198l105 199h112l-93 -198z" />
    <glyph glyph-name="guillemotright" unicode="&#xbb;" horiz-adv-x="517" 
d="M477 253l-105 -199h-122l93 198l-93 199h122zM257 253l-105 -199h-122l93 198l-93 199h122z" />
    <glyph glyph-name="ellipsis" unicode="&#x2026;" horiz-adv-x="826" 
d="M790 74c0 -51 -30 -87 -81 -87c-50 0 -82 31 -82 86c0 51 32 85 81 85c46 0 82 -34 82 -84zM499 74c0 -51 -30 -87 -81 -87c-50 0 -82 31 -82 86c0 51 32 85 81 85c46 0 82 -34 82 -84zM199 74c0 -51 -30 -87 -81 -87c-50 0 -82 31 -82 86c0 51 32 85 81 85
c46 0 82 -34 82 -84z" />
    <glyph glyph-name="nbspace" unicode="&#xa0;" horiz-adv-x="200" 
 />
    <glyph glyph-name="Agrave" unicode="&#xc0;" horiz-adv-x="608" 
d="M608 0h-145l-57 205h-219l-56 -205h-135l217 704h186zM376 314l-62 222c-13 45 -17 84 -17 84s-5 -36 -18 -83l-61 -223h158zM425 828l-45 -66l-198 113l56 86z" />
    <glyph glyph-name="Atilde" unicode="&#xc3;" horiz-adv-x="608" 
d="M608 0h-145l-57 205h-219l-56 -205h-135l217 704h186zM376 314l-62 222c-13 45 -17 84 -17 84s-5 -36 -18 -83l-61 -223h158zM466 888c0 0 -27 -104 -105 -104c-19 0 -32 3 -54 13l-25 11c-19 8 -29 10 -38 10c-34 0 -46 -34 -46 -34l-57 33s33 101 105 101
c17 0 30 -3 52 -13l25 -11c17 -8 29 -10 38 -10c34 0 46 36 46 36z" />
    <glyph glyph-name="Otilde" unicode="&#xd5;" horiz-adv-x="656" 
d="M626 361c0 -241 -114 -373 -298 -373c-188 0 -298 117 -298 351c0 241 114 373 298 373c188 0 298 -117 298 -351zM484 351c0 180 -55 250 -156 250c-99 0 -156 -72 -156 -252s55 -250 156 -250c99 0 156 72 156 252zM489 888c0 0 -27 -104 -105 -104c-19 0 -32 3 -54 13
l-25 11c-19 8 -29 10 -38 10c-34 0 -46 -34 -46 -34l-57 33s33 101 105 101c17 0 30 -3 52 -13l25 -11c17 -8 29 -10 38 -10c34 0 46 36 46 36z" />
    <glyph glyph-name="OE" unicode="&#x152;" horiz-adv-x="835" 
d="M813 118l-5 -118h-384s-46 -11 -91 -11c-197 0 -303 110 -303 350c0 241 108 375 307 375c59 0 91 -11 91 -11h367v-118h-234v-167h191v-118h-191v-182h252zM421 114v475s-17 14 -79 14c-121 0 -170 -78 -170 -254c0 -177 49 -249 167 -249c57 0 82 14 82 14z" />
    <glyph glyph-name="oe" unicode="&#x153;" horiz-adv-x="838" 
d="M806 227h-308c0 -69 21 -137 147 -137c94 0 140 47 140 47l-6 -110s-47 -38 -164 -38c-71 0 -151 20 -191 81c-32 -46 -85 -81 -171 -81c-130 0 -221 88 -221 263c0 179 87 280 230 280c80 0 136 -36 164 -84c35 50 90 84 171 84c205 0 209 -182 209 -289v-16zM672 320
c0 58 -8 122 -83 122c-86 0 -90 -82 -90 -122h173zM362 260c0 109 -21 171 -95 171c-70 0 -96 -51 -96 -170c0 -109 21 -171 95 -171c70 0 96 51 96 170z" />
    <glyph glyph-name="endash" unicode="&#x2013;" 
d="M500 216h-500v105h500v-105z" />
    <glyph glyph-name="emdash" unicode="&#x2014;" horiz-adv-x="1000" 
d="M1000 216h-1000v105h1000v-105z" />
    <glyph glyph-name="quotedblleft" unicode="&#x201c;" horiz-adv-x="459" 
d="M424 740c-26 -65 -42 -129 -42 -205v-55h-137v38c0 85 41 196 78 257zM214 740c-26 -65 -42 -129 -42 -205v-55h-137v38c0 85 41 196 78 257z" />
    <glyph glyph-name="quotedblright" unicode="&#x201d;" horiz-adv-x="459" 
d="M424 732c0 -85 -41 -196 -78 -257l-101 35c26 65 42 129 42 205v55h137v-38zM214 732c0 -85 -41 -196 -78 -257l-101 35c26 65 42 129 42 205v55h137v-38z" />
    <glyph glyph-name="quoteleft" unicode="&#x2018;" horiz-adv-x="249" 
d="M214 740c-26 -65 -42 -129 -42 -205v-55h-137v38c0 85 41 196 78 257z" />
    <glyph glyph-name="quoteright" unicode="&#x2019;" horiz-adv-x="249" 
d="M214 732c0 -85 -41 -196 -78 -257l-101 35c26 65 42 129 42 205v55h137v-38z" />
    <glyph glyph-name="divide" unicode="&#xf7;" horiz-adv-x="640" 
d="M391 560c0 -43 -31 -71 -71 -71s-72 28 -72 71c0 45 29 72 72 72c40 0 71 -27 71 -72zM617 310h-594v86h594v-86zM391 146c0 -45 -31 -72 -71 -72s-72 27 -72 72c0 43 29 71 72 71c40 0 71 -26 71 -71z" />
    <glyph glyph-name="lozenge" unicode="&#x25ca;" horiz-adv-x="514" 
d="M510 385l-254 -383l-252 368l254 382zM437 382l-180 267l-183 -277l183 -272z" />
    <glyph glyph-name="ydieresis" unicode="&#xff;" horiz-adv-x="474" 
d="M480 524l-193 -603c-35 -109 -93 -151 -194 -151c-60 0 -90 15 -90 15l-5 108s31 -19 72 -19c54 0 80 18 97 71l11 35l-181 544h141l85 -290c20 -69 21 -98 21 -98s8 36 24 93l84 295h128zM409 673c0 -40 -26 -66 -66 -66c-36 0 -64 24 -64 65c0 40 26 66 66 66
c36 0 64 -25 64 -65zM198 673c0 -40 -26 -66 -66 -66c-36 0 -64 24 -64 65c0 40 26 66 66 66c36 0 64 -25 64 -65z" />
    <glyph glyph-name="Ydieresis" unicode="&#x178;" horiz-adv-x="592" 
d="M600 703l-236 -435v-268h-140v262l-231 441h157l148 -310l157 310h145zM467 852c0 -40 -26 -66 -66 -66c-36 0 -64 24 -64 65c0 40 26 66 66 66c36 0 64 -25 64 -65zM256 852c0 -40 -26 -66 -66 -66c-36 0 -64 24 -64 65c0 40 26 66 66 66c36 0 64 -25 64 -65z" />
    <glyph glyph-name="fraction" unicode="&#x2044;" 
d="M593 703l-509 -703h-95l511 703h93z" />
    <glyph glyph-name="guilsinglleft" unicode="&#x2039;" horiz-adv-x="287" 
d="M257 54h-112l-105 198l105 199h112l-93 -198z" />
    <glyph glyph-name="guilsinglright" unicode="&#x203a;" horiz-adv-x="297" 
d="M257 253l-105 -199h-122l93 198l-93 199h122z" />
    <glyph glyph-name="fi" unicode="&#xfb01;" horiz-adv-x="549" 
d="M493 667c0 -59 -38 -69 -75 -69c-56 0 -72 23 -72 62v9s-16 4 -47 4c-48 0 -75 -18 -87 -45c-6 -14 -8 -29 -8 -46v-58h280v-524h-138v427h-142v-427h-137v427h-54v97h54v57c0 134 98 189 222 189c67 0 204 -9 204 -103z" />
    <glyph glyph-name="fl" unicode="&#xfb02;" horiz-adv-x="549" 
d="M488 0h-137v660c-15 6 -35 11 -63 11c-66 0 -84 -37 -84 -91v-56h98v-95h-98v-429h-137v429h-54v95h54v57c0 117 67 189 203 189c33 0 67 -5 98 -14l120 14v-770z" />
    <glyph glyph-name="daggerdbl" unicode="&#x2021;" horiz-adv-x="492" 
d="M442 -8l-162 39l42 -180h-151l42 180l-163 -39v134l163 -39l-36 151v86l36 143l-163 -39v134l163 -39l-42 180h151l-42 -180l162 39v-134l-162 39l35 -142v-88l-35 -150l162 39v-134z" />
    <glyph glyph-name="periodcentered" unicode="&#xb7;" horiz-adv-x="275" 
d="M225 302c0 -55 -32 -93 -87 -93c-54 0 -88 33 -88 92c0 55 34 91 87 91c49 0 88 -36 88 -90z" />
    <glyph glyph-name="quotesinglbase" unicode="&#x201a;" horiz-adv-x="244" 
d="M199 109c0 -85 -41 -196 -78 -257l-101 35c26 65 42 129 42 205v55h137v-38z" />
    <glyph glyph-name="quotedblbase" unicode="&#x201e;" horiz-adv-x="454" 
d="M409 109c0 -85 -41 -196 -78 -257l-101 35c26 65 42 129 42 205v55h137v-38zM199 109c0 -85 -41 -196 -78 -257l-101 35c26 65 42 129 42 205v55h137v-38z" />
    <glyph glyph-name="perthousand" unicode="&#x2030;" horiz-adv-x="1086" 
d="M1086 161c0 -97 -63 -172 -172 -172c-107 0 -170 65 -170 162c0 103 63 171 174 171c105 0 168 -62 168 -161zM342 550c0 -97 -63 -172 -172 -172c-107 0 -170 65 -170 162c0 103 63 171 174 171c105 0 168 -62 168 -161zM617 703l-439 -703h-94l437 703h96zM704 161
c0 -97 -63 -172 -172 -172c-107 0 -170 65 -170 162c0 103 63 171 174 171c105 0 168 -62 168 -161zM988 157c0 50 -19 92 -73 92s-72 -44 -72 -94c0 -49 17 -91 70 -91s75 43 75 93zM244 546c0 50 -19 92 -73 92s-72 -44 -72 -94c0 -49 17 -91 70 -91s75 43 75 93zM606 157
c0 50 -19 92 -73 92s-72 -44 -72 -94c0 -49 17 -91 70 -91s75 43 75 93z" />
    <glyph glyph-name="Acircumflex" unicode="&#xc2;" horiz-adv-x="608" 
d="M608 0h-145l-57 205h-219l-56 -205h-135l217 704h186zM376 314l-62 222c-13 45 -17 84 -17 84s-5 -36 -18 -83l-61 -223h158zM485 825l-50 -63l-131 86l-132 -86l-49 63l181 146z" />
    <glyph glyph-name="Ecircumflex" unicode="&#xca;" horiz-adv-x="475" 
d="M453 118l-5 -118h-387v703h374v-118h-234v-167h191v-118h-191v-182h252zM419 825l-50 -63l-131 86l-132 -86l-49 63l181 146z" />
    <glyph glyph-name="Aacute" unicode="&#xc1;" horiz-adv-x="608" 
d="M608 0h-145l-57 205h-219l-56 -205h-135l217 704h186zM376 314l-62 222c-13 45 -17 84 -17 84s-5 -36 -18 -83l-61 -223h158zM427 872l-198 -113l-45 66l187 133z" />
    <glyph glyph-name="Edieresis" unicode="&#xcb;" horiz-adv-x="475" 
d="M453 118l-5 -118h-387v703h374v-118h-234v-167h191v-118h-191v-182h252zM409 852c0 -40 -26 -66 -66 -66c-36 0 -64 24 -64 65c0 40 26 66 66 66c36 0 64 -25 64 -65zM198 852c0 -40 -26 -66 -66 -66c-36 0 -64 24 -64 65c0 40 26 66 66 66c36 0 64 -25 64 -65z" />
    <glyph glyph-name="Egrave" unicode="&#xc8;" horiz-adv-x="475" 
d="M453 118l-5 -118h-387v703h374v-118h-234v-167h191v-118h-191v-182h252zM359 828l-45 -66l-198 113l56 86z" />
    <glyph glyph-name="Iacute" unicode="&#xcd;" horiz-adv-x="262" 
d="M201 0h-140v703h140v-703zM253 875l-198 -113l-45 66l187 133z" />
    <glyph glyph-name="Icircumflex" unicode="&#xce;" horiz-adv-x="262" 
d="M201 0h-140v703h140v-703zM312 825l-50 -63l-131 86l-132 -86l-49 63l181 146z" />
    <glyph glyph-name="Idieresis" unicode="&#xcf;" horiz-adv-x="262" 
d="M201 0h-140v703h140v-703zM302 852c0 -40 -26 -66 -66 -66c-36 0 -64 24 -64 65c0 40 26 66 66 66c36 0 64 -25 64 -65zM91 852c0 -40 -26 -66 -66 -66c-36 0 -64 24 -64 65c0 40 26 66 66 66c36 0 64 -25 64 -65z" />
    <glyph glyph-name="Igrave" unicode="&#xcc;" horiz-adv-x="262" 
d="M201 0h-140v703h140v-703zM253 828l-45 -66l-198 113l56 86z" />
    <glyph glyph-name="Oacute" unicode="&#xd3;" horiz-adv-x="656" 
d="M626 361c0 -241 -114 -373 -298 -373c-188 0 -298 117 -298 351c0 241 114 373 298 373c188 0 298 -117 298 -351zM484 351c0 180 -55 250 -156 250c-99 0 -156 -72 -156 -252s55 -250 156 -250c99 0 156 72 156 252zM449 872l-198 -113l-45 66l187 133z" />
    <glyph glyph-name="Ocircumflex" unicode="&#xd4;" horiz-adv-x="656" 
d="M626 361c0 -241 -114 -373 -298 -373c-188 0 -298 117 -298 351c0 241 114 373 298 373c188 0 298 -117 298 -351zM484 351c0 180 -55 250 -156 250c-99 0 -156 -72 -156 -252s55 -250 156 -250c99 0 156 72 156 252zM508 825l-50 -63l-131 86l-132 -86l-49 63l181 146z
" />
    <glyph glyph-name="currency" unicode="&#xa4;" horiz-adv-x="555" 
d="M538 150l-59 -59l-58 58c-44 -31 -92 -46 -143 -46s-99 15 -143 46l-58 -58l-59 59l58 58c-31 43 -46 91 -46 143c0 51 15 99 46 143l-58 58l59 59l58 -58c43 31 90 46 143 46c51 0 99 -15 143 -46l58 58l59 -59l-58 -58c31 -43 46 -90 46 -142c0 -51 -15 -99 -46 -144z
M416 351c0 39 -14 73 -41 101c-27 29 -59 43 -97 43s-71 -14 -98 -43c-27 -28 -40 -62 -40 -101s13 -73 40 -102c27 -28 60 -42 98 -42s70 14 97 42c27 29 41 63 41 102z" />
    <glyph glyph-name="Ograve" unicode="&#xd2;" horiz-adv-x="656" 
d="M626 361c0 -241 -114 -373 -298 -373c-188 0 -298 117 -298 351c0 241 114 373 298 373c188 0 298 -117 298 -351zM484 351c0 180 -55 250 -156 250c-99 0 -156 -72 -156 -252s55 -250 156 -250c99 0 156 72 156 252zM448 828l-45 -66l-198 113l56 86z" />
    <glyph glyph-name="Uacute" unicode="&#xda;" horiz-adv-x="642" 
d="M584 297c0 -112 -2 -176 -48 -232c-44 -54 -116 -76 -211 -76c-99 0 -168 20 -214 69s-53 119 -53 216v429h140v-461c0 -66 5 -143 124 -143c125 0 128 78 128 148v456h134v-406zM443 872l-198 -113l-45 66l187 133z" />
    <glyph glyph-name="Ucircumflex" unicode="&#xdb;" horiz-adv-x="642" 
d="M584 297c0 -112 -2 -176 -48 -232c-44 -54 -116 -76 -211 -76c-99 0 -168 20 -214 69s-53 119 -53 216v429h140v-461c0 -66 5 -143 124 -143c125 0 128 78 128 148v456h134v-406zM501 825l-50 -63l-131 86l-132 -86l-49 63l181 146z" />
    <glyph glyph-name="Ugrave" unicode="&#xd9;" horiz-adv-x="642" 
d="M584 297c0 -112 -2 -176 -48 -232c-44 -54 -116 -76 -211 -76c-99 0 -168 20 -214 69s-53 119 -53 216v429h140v-461c0 -66 5 -143 124 -143c125 0 128 78 128 148v456h134v-406zM442 828l-45 -66l-198 113l56 86z" />
    <glyph glyph-name="dotlessi" unicode="&#x131;" horiz-adv-x="266" 
d="M201 0h-138v524h138v-524z" />
    <glyph glyph-name="circumflex" unicode="&#x2c6;" 
d="M427 646l-50 -63l-131 86l-132 -86l-49 63l181 146z" />
    <glyph glyph-name="tilde" unicode="&#x2dc;" 
d="M438 709c0 0 -27 -104 -105 -104c-19 0 -32 3 -54 13l-25 11c-19 8 -29 10 -38 10c-34 0 -46 -34 -46 -34l-57 33s33 101 105 101c17 0 30 -3 52 -13l25 -11c17 -8 29 -10 38 -10c34 0 46 36 46 36z" />
    <glyph glyph-name="macron" unicode="&#xaf;" 
d="M394 619h-288v98h288v-98z" />
    <glyph glyph-name="breve" unicode="&#x2d8;" 
d="M428 715c0 0 -51 -120 -178 -120c-132 0 -175 119 -175 119l68 43s34 -70 110 -70c78 0 107 69 107 69z" />
    <glyph glyph-name="dotaccent" unicode="&#x2d9;" 
d="M322 671c0 -44 -30 -72 -74 -72c-40 0 -70 28 -70 70c0 46 30 74 74 74c40 0 70 -28 70 -72z" />
    <glyph glyph-name="ring" unicode="&#x2da;" 
d="M346 679c0 -74 -55 -119 -123 -119c-62 0 -121 38 -121 121c0 74 55 119 123 119c62 0 121 -38 121 -121zM280 679c0 43 -26 61 -56 61c-29 0 -56 -19 -56 -59c0 -43 26 -61 56 -61c29 0 56 19 56 59z" />
    <glyph glyph-name="cedilla" unicode="&#xb8;" horiz-adv-x="562" 
d="M251 -129c0 -58 -38 -98 -107 -98c-35 0 -57 11 -57 11l-4 69s18 -16 47 -16c21 0 41 6 41 37c0 19 -10 29 -22 36c-20 12 -39 23 -39 59c0 25 3 31 3 31h71s-1 -4 -1 -19c0 -21 19 -26 37 -40c16 -12 31 -30 31 -70z" />
    <glyph glyph-name="hungarumlaut" unicode="&#x2dd;" 
d="M238 730l-117 -165l-68 41l99 177zM438 730l-117 -165l-68 41l99 177z" />
    <glyph glyph-name="ogonek" unicode="&#x2db;" horiz-adv-x="222" 
d="M202 -113l-5 -86c-20 -11 -50 -21 -83 -21c-83 0 -114 47 -114 100c0 64 55 122 100 143h94c-60 -39 -85 -69 -85 -113c0 -22 15 -44 41 -44c36 0 52 21 52 21z" />
    <glyph glyph-name="caron" unicode="&#x2c7;" horiz-adv-x="378" 
d="M358 736l-185 -152l-173 141l63 72l124 -96l119 95z" />
    <glyph glyph-name="Euro" horiz-adv-x="555" 
d="M542 153l-6 -129s-58 -35 -159 -35c-161 0 -257 103 -278 236h-85l18 90h61c-1 11 -1 22 -1 32s0 20 1 28h-67l18 90h56c12 64 36 120 81 167c49 52 117 79 206 79c99 0 155 -41 155 -41v-130s-48 56 -148 56c-78 0 -139 -31 -160 -131h240l-18 -90h-229
c-1 -11 -1 -22 -1 -31s0 -19 1 -29h218l-18 -90h-193c18 -78 74 -123 164 -123s144 51 144 51z" />
    <glyph glyph-name="sfthyphen" unicode="&#xad;" horiz-adv-x="325" 
d="M284 207h-243v120h243v-120z" />
    <glyph glyph-name="Eth" unicode="&#xd0;" horiz-adv-x="642" 
d="M612 362c0 -158 -47 -271 -156 -326c-65 -32 -136 -36 -225 -36h-170v308h-61v94h61v301h184c119 0 178 -7 236 -43c88 -54 131 -161 131 -298zM470 352c0 114 -28 186 -84 217c-27 15 -55 21 -114 21h-71v-188h143l-4 -94h-139v-195h62c56 0 92 6 121 23
c57 32 86 106 86 216z" />
    <glyph glyph-name="foundryicon" unicode="&#xe001;" horiz-adv-x="800" 
d="M386 96v171h-91v-129s-14 -8 -50 -8c-79 0 -114 55 -114 163c0 79 25 161 132 161c90 0 123 -40 123 -40v83s-40 30 -127 30c-89 0 -152 -36 -187 -97c-25 -43 -34 -95 -34 -147c0 -128 65 -225 204 -225c104 0 144 38 144 38zM748 258v253h-87v-285
c0 -46 -2 -97 -83 -97c-77 0 -81 50 -81 93v289h-91v-268c0 -63 5 -108 35 -140s75 -45 139 -45c62 0 108 14 137 49c30 37 31 78 31 151zM795 0h-790v587h790v-587z" />
    <glyph glyph-name="CR" unicode="&#xd;" 
 />
    <glyph glyph-name="undef" unicode="&#xe012;" 
d="M119 21h262v661h-262v-661zM402 0h-304v703h304v-703z" />
    <glyph glyph-name="_248" unicode="&#x2400;" 
 />
    <glyph glyph-name=".null" 
 />
    <glyph glyph-name=".null" 
 />
    <glyph glyph-name="apple" unicode="&#xf8ff;" horiz-adv-x="568" 
d="M438 292c0 -86 -71 -156 -154 -156c-86 0 -154 70 -154 156c0 85 68 155 154 155c83 0 154 -70 154 -155z" />
    <glyph glyph-name="eurocurrency" unicode="&#x20ac;" horiz-adv-x="555" 
d="M542 153l-6 -129s-58 -35 -159 -35c-161 0 -257 103 -278 236h-85l18 90h61c-1 11 -1 22 -1 32s0 20 1 28h-67l18 90h56c12 64 36 120 81 167c49 52 117 79 206 79c99 0 155 -41 155 -41v-130s-48 56 -148 56c-78 0 -139 -31 -160 -131h240l-18 -90h-229
c-1 -11 -1 -22 -1 -31s0 -19 1 -29h218l-18 -90h-193c18 -78 74 -123 164 -123s144 51 144 51z" />
    <glyph glyph-name="uni0080" horiz-adv-x="555" 
d="M542 153l-6 -129s-58 -35 -159 -35c-161 0 -257 103 -278 236h-85l18 90h61c-1 11 -1 22 -1 32s0 20 1 28h-67l18 90h56c12 64 36 120 81 167c49 52 117 79 206 79c99 0 155 -41 155 -41v-130s-48 56 -148 56c-78 0 -139 -31 -160 -131h240l-18 -90h-229
c-1 -11 -1 -22 -1 -31s0 -19 1 -29h218l-18 -90h-193c18 -78 74 -123 164 -123s144 51 144 51z" />
    <glyph glyph-name="Caron" unicode="&#xf6ca;" horiz-adv-x="378" 
d="M358 912l-185 -152l-173 141l63 72l124 -96l119 95z" />
    <glyph glyph-name="Dieresis" unicode="&#xf6cb;" horiz-adv-x="592" 
d="M467 852c0 -40 -26 -66 -66 -66c-36 0 -64 24 -64 65c0 40 26 66 66 66c36 0 64 -25 64 -65zM256 852c0 -40 -26 -66 -66 -66c-36 0 -64 24 -64 65c0 40 26 66 66 66c36 0 64 -25 64 -65z" />
    <glyph glyph-name="Ring" unicode="&#xe703;" horiz-adv-x="608" 
d="M430 844c0 -74 -55 -119 -123 -119c-62 0 -121 38 -121 121c0 74 55 119 123 119c62 0 121 -38 121 -121zM364 844c0 43 -26 61 -56 61c-29 0 -56 -19 -56 -59c0 -43 26 -61 56 -61c29 0 56 19 56 59z" />
    <glyph glyph-name="Grave" unicode="&#xf6ce;" horiz-adv-x="475" 
d="M359 828l-45 -66l-198 113l56 86z" />
    <glyph glyph-name="Acute" unicode="&#xf6c9;" horiz-adv-x="475" 
d="M379 872l-198 -113l-45 66l187 133z" />
    <glyph glyph-name="Circumflex" unicode="&#xe706;" horiz-adv-x="475" 
d="M419 825l-50 -63l-131 86l-132 -86l-49 63l181 146z" />
    <glyph glyph-name="Gravecondensed" unicode="&#xe724;" horiz-adv-x="262" 
d="M253 828l-45 -66l-198 113l56 86z" />
    <glyph glyph-name="Acutecondensed" unicode="&#xe723;" horiz-adv-x="262" 
d="M253 875l-198 -113l-45 66l187 133z" />
    <glyph glyph-name="Circumflexcondensed" unicode="&#xe722;" horiz-adv-x="262" 
d="M312 825l-50 -63l-131 86l-132 -86l-49 63l181 146z" />
    <glyph glyph-name="Dieresiscondensed" unicode="&#xe720;" horiz-adv-x="262" 
d="M302 852c0 -40 -26 -66 -66 -66c-36 0 -64 24 -64 65c0 40 26 66 66 66c36 0 64 -25 64 -65zM91 852c0 -40 -26 -66 -66 -66c-36 0 -64 24 -64 65c0 40 26 66 66 66c36 0 64 -25 64 -65z" />
    <glyph glyph-name="Tilde" unicode="&#xe709;" horiz-adv-x="654" 
d="M489 888c0 0 -27 -104 -105 -104c-19 0 -32 3 -54 13l-25 11c-19 8 -29 10 -38 10c-34 0 -46 -34 -46 -34l-57 33s33 101 105 101c17 0 30 -3 52 -13l25 -11c17 -8 29 -10 38 -10c34 0 46 36 46 36z" />
    <glyph glyph-name="gravecondensed" unicode="&#xe774;" horiz-adv-x="266" 
d="M255 649l-45 -66l-198 113l56 86z" />
    <glyph glyph-name="iacute" unicode="&#xed;" horiz-adv-x="266" 
d="M201 0h-138v524h138v-524zM255 696l-198 -113l-45 66l187 133z" />
    <glyph glyph-name="acutecondensed" unicode="&#xe773;" horiz-adv-x="266" 
d="M255 696l-198 -113l-45 66l187 133z" />
    <glyph glyph-name="circumflexcondensed" unicode="&#xe772;" horiz-adv-x="266" 
d="M314 646l-50 -63l-131 86l-132 -86l-49 63l181 146z" />
    <glyph glyph-name="dieresiscondensed" unicode="&#xe770;" horiz-adv-x="266" 
d="M304 673c0 -40 -26 -66 -66 -66c-36 0 -64 24 -64 65c0 40 26 66 66 66c36 0 64 -25 64 -65zM93 673c0 -40 -26 -66 -66 -66c-36 0 -64 24 -64 65c0 40 26 66 66 66c36 0 64 -25 64 -65z" />
    <glyph glyph-name="gbreve" unicode="&#x11f;" horiz-adv-x="549" 
d="M488 18c0 -64 -5 -120 -37 -162c-51 -66 -130 -86 -216 -86c-124 0 -177 38 -177 38l-5 115s57 -51 150 -51c53 0 99 9 126 45c21 27 22 65 22 93v54s-33 -68 -131 -68c-111 0 -188 87 -188 256c0 243 130 280 213 280c77 0 108 -39 108 -39v31h135v-506zM351 191v207
s-21 31 -74 31c-72 0 -106 -52 -106 -163c0 -121 39 -157 99 -157c42 0 81 25 81 82zM465 715c0 0 -51 -120 -178 -120c-132 0 -175 119 -175 119l68 43s34 -70 110 -70c78 0 107 69 107 69z" />
    <glyph glyph-name="Gbreve" unicode="&#x11e;" horiz-adv-x="616" 
d="M564 48c0 0 -61 -59 -221 -59c-213 0 -313 150 -313 346c0 80 13 160 52 227c54 93 150 149 288 149c133 0 194 -47 194 -47v-127s-50 61 -189 61c-164 0 -203 -125 -203 -247c0 -166 54 -251 175 -251c56 0 78 12 78 12v199h139v-263zM537 890c0 0 -51 -120 -178 -120
c-132 0 -175 119 -175 119l68 43s34 -70 110 -70c78 0 107 69 107 69z" />
    <glyph glyph-name="Breve" unicode="&#xe708;" horiz-adv-x="616" 
d="M520 890c0 0 -51 -120 -178 -120c-132 0 -175 119 -175 119l68 43s34 -70 110 -70c78 0 107 69 107 69z" />
    <glyph glyph-name="Idotaccent" unicode="&#x130;" horiz-adv-x="262" 
d="M201 0h-140v703h140v-703zM203 851c0 -44 -30 -72 -74 -72c-40 0 -70 28 -70 70c0 46 30 74 74 74c40 0 70 -28 70 -72z" />
    <glyph glyph-name="Dotaccent" unicode="&#xe702;" horiz-adv-x="262" 
d="M203 851c0 -44 -30 -72 -74 -72c-40 0 -70 28 -70 70c0 46 30 74 74 74c40 0 70 -28 70 -72z" />
    <glyph glyph-name="Scedilla" unicode="&#x15e;" horiz-adv-x="471" 
d="M325 -129c0 -58 -38 -98 -107 -98c-35 0 -57 11 -57 11l-4 69s18 -16 47 -16c21 0 41 6 41 37c0 19 -10 28 -22 36c-18 12 -39 25 -39 59c0 10 0 17 1 21c-111 6 -159 47 -159 47l-6 132s51 -67 177 -67c72 0 110 29 110 84c0 48 -19 63 -72 94l-78 45
c-54 31 -128 74 -128 190c0 120 73 196 222 196c113 0 171 -47 171 -47v-127s-49 61 -163 61c-71 0 -94 -29 -94 -72s32 -61 78 -88l74 -43c73 -42 128 -92 128 -196c0 -110 -58 -192 -188 -207v-11c0 -21 19 -26 37 -40c16 -12 31 -30 31 -70z" />
    <glyph glyph-name="scedilla" unicode="&#x15f;" horiz-adv-x="412" 
d="M295 -129c0 -58 -38 -98 -107 -98c-35 0 -57 11 -57 11l-4 69s18 -16 47 -16c21 0 41 6 41 37c0 19 -10 28 -22 36c-18 12 -39 25 -39 59c0 11 0 18 1 23c-84 7 -120 37 -120 37l-5 111s52 -50 145 -50c41 0 78 8 78 48c0 30 -17 39 -55 60l-54 29
c-55 30 -103 65 -103 153c0 137 111 152 179 152c96 0 141 -39 141 -39v-110s-48 51 -127 51c-53 0 -65 -22 -65 -45c0 -30 22 -41 55 -58l56 -29c47 -24 102 -61 102 -148c0 -124 -87 -154 -155 -161v-12c0 -21 19 -26 37 -40c16 -12 31 -30 31 -70z" />
    <glyph glyph-name="aogonek" unicode="&#x105;" 
d="M446 -113l-5 -86c-20 -11 -47 -21 -85 -21c-74 0 -112 41 -112 100c0 48 31 91 70 117v65s-27 -70 -133 -70c-108 0 -149 82 -149 161c0 162 133 170 220 174l58 3v24c0 31 -2 80 -96 80c-86 0 -130 -47 -130 -47v104s48 40 169 40c183 0 189 -106 189 -172v-355
c-52 -13 -89 -42 -89 -94c0 -22 15 -44 41 -44c36 0 52 21 52 21zM311 169v78l-44 -3c-58 -4 -102 -18 -102 -81c0 -30 13 -69 69 -69c47 0 77 33 77 75z" />
    <glyph glyph-name="dcaron" unicode="&#x10f;" horiz-adv-x="551" 
d="M490 5l-135 -10v68s-31 -72 -133 -72c-118 0 -190 90 -190 258c0 247 128 283 219 283c67 0 102 -37 102 -37v259l137 16v-765zM353 187v211s-21 31 -75 31c-73 0 -107 -48 -107 -165s34 -160 100 -160c44 0 82 26 82 83zM682 791c0 -119 -31 -172 -31 -172h-75
s5 28 5 98c0 45 -6 76 -6 76h107v-2z" />
    <glyph glyph-name="tcaron" unicode="&#x165;" horiz-adv-x="344" 
d="M326 111l-5 -99s-33 -20 -106 -20c-47 0 -91 10 -121 50c-23 31 -27 72 -27 128v259h-54v95h54v89l137 28v-117h120v-95h-120v-252c0 -27 2 -47 10 -60c9 -14 26 -24 51 -24c44 0 61 18 61 18zM388 791c0 -119 -31 -172 -31 -172h-75s5 28 5 98c0 45 -6 76 -6 76h107v-2z
" />
    <glyph glyph-name="Caroncapht" unicode="&#xe719;" horiz-adv-x="127" 
d="M107 723c0 -119 -31 -172 -31 -172h-75s5 28 5 98c0 45 -6 76 -6 76h107v-2z" />
    <glyph glyph-name="caronascenderht" unicode="&#xe769;" horiz-adv-x="127" 
d="M107 791c0 -119 -31 -172 -31 -172h-75s5 28 5 98c0 45 -6 76 -6 76h107v-2z" />
    <glyph glyph-name="cacute" unicode="&#x107;" horiz-adv-x="436" 
d="M416 141l-6 -114s-42 -37 -150 -37c-88 0 -228 35 -228 266c0 85 20 276 232 276c100 0 149 -38 149 -38v-111s-36 43 -112 43c-58 0 -130 -16 -130 -164c0 -93 29 -166 137 -166c72 0 108 45 108 45zM371 725l-117 -165l-68 41l99 177z" />
    <glyph glyph-name="polishacute" unicode="&#xe003;" horiz-adv-x="215" 
d="M185 725l-117 -165l-68 41l99 177z" />
    <glyph glyph-name="opolishacute" unicode="&#xe004;" horiz-adv-x="533" 
d="M501 269c0 -179 -84 -280 -237 -280c-141 0 -232 88 -232 263c0 179 84 280 237 280c141 0 232 -88 232 -263zM362 260c0 109 -21 171 -95 171c-70 0 -96 -51 -96 -170c0 -109 21 -171 95 -171c70 0 96 51 96 170zM377 725l-117 -165l-68 41l99 177z" />
    <glyph glyph-name="Hungarumlaut" unicode="&#xf6cf;" horiz-adv-x="509" 
d="M489 872l-198 -113l-45 66l187 133zM243 872l-198 -113l-45 66l187 133z" />
    <glyph glyph-name="ohungarumlaut" unicode="&#x151;" horiz-adv-x="533" 
d="M501 269c0 -179 -84 -280 -237 -280c-141 0 -232 88 -232 263c0 179 84 280 237 280c141 0 232 -88 232 -263zM362 260c0 109 -21 171 -95 171c-70 0 -96 -51 -96 -170c0 -109 21 -171 95 -171c70 0 96 51 96 170zM317 730l-117 -165l-68 41l99 177zM517 730l-117 -165
l-68 41l99 177z" />
    <glyph glyph-name="Ohungarumlaut" unicode="&#x150;" horiz-adv-x="656" 
d="M626 361c0 -241 -114 -373 -298 -373c-188 0 -298 117 -298 351c0 241 114 373 298 373c188 0 298 -117 298 -351zM484 351c0 180 -55 250 -156 250c-99 0 -156 -72 -156 -252s55 -250 156 -250c99 0 156 72 156 252zM628 872l-198 -113l-45 66l187 133zM382 872
l-198 -113l-45 66l187 133z" />
    <glyph glyph-name="Macron" unicode="&#xf6d0;" horiz-adv-x="308" 
d="M288 798h-288v98h288v-98z" />
    <glyph glyph-name="Gcommaaccent" unicode="&#x122;" horiz-adv-x="616" 
d="M564 48c0 0 -61 -59 -221 -59c-213 0 -313 150 -313 346c0 80 13 160 52 227c54 93 150 149 288 149c133 0 194 -47 194 -47v-127s-50 61 -189 61c-164 0 -203 -125 -203 -247c0 -166 54 -251 175 -251c56 0 78 12 78 12v199h139v-263zM406 -58c0 -119 -31 -172 -31 -172
h-75s5 28 5 98c0 45 -6 76 -6 76h107v-2z" />
    <glyph glyph-name="commaaccent" unicode="&#xf6c3;" horiz-adv-x="127" 
d="M107 -58c0 -119 -31 -172 -31 -172h-75s5 28 5 98c0 45 -6 76 -6 76h107v-2z" />
    <glyph glyph-name="Scommaaccent" unicode="&#x218;" horiz-adv-x="471" 
d="M445 199c0 -122 -72 -210 -234 -210c-129 0 -185 48 -185 48l-6 132s51 -67 177 -67c72 0 110 29 110 84c0 48 -19 63 -72 94l-78 45c-54 31 -128 74 -128 190c0 120 73 196 222 196c113 0 171 -47 171 -47v-127s-49 61 -163 61c-71 0 -94 -29 -94 -72s32 -61 78 -88
l74 -43c73 -42 128 -92 128 -196zM262 -58c0 -119 -31 -172 -31 -172h-75s5 28 5 98c0 45 -6 76 -6 76h107v-2z" />
    <glyph glyph-name="scommaaccent" unicode="&#x219;" horiz-adv-x="412" 
d="M382 154c0 -150 -127 -163 -195 -163c-107 0 -152 38 -152 38l-5 111s52 -50 145 -50c41 0 78 8 78 48c0 30 -17 39 -55 60l-54 29c-55 30 -103 65 -103 153c0 137 111 152 179 152c96 0 141 -39 141 -39v-110s-48 51 -127 51c-53 0 -65 -22 -65 -45c0 -30 22 -41 55 -58
l56 -29c47 -24 102 -61 102 -148zM249 -58c0 -119 -31 -172 -31 -172h-75s5 28 5 98c0 45 -6 76 -6 76h107v-2z" />
    <glyph glyph-name="sacute" unicode="&#x15b;" horiz-adv-x="412" 
d="M382 154c0 -150 -127 -163 -195 -163c-107 0 -152 38 -152 38l-5 111s52 -50 145 -50c41 0 78 8 78 48c0 30 -17 39 -55 60l-54 29c-55 30 -103 65 -103 153c0 137 111 152 179 152c96 0 141 -39 141 -39v-110s-48 51 -127 51c-53 0 -65 -22 -65 -45c0 -30 22 -41 55 -58
l56 -29c47 -24 102 -61 102 -148zM318 725l-117 -165l-68 41l99 177z" />
    <glyph glyph-name="zacute" unicode="&#x17a;" horiz-adv-x="461" 
d="M431 95l-5 -95h-391v85l237 344h-219v95h377v-85l-238 -344h239zM365 725l-117 -165l-68 41l99 177z" />
    <glyph glyph-name="ncaron" unicode="&#x148;" horiz-adv-x="556" 
d="M502 0h-137v307c0 50 0 111 -83 111c-37 0 -84 -21 -84 -79v-339h-137v524h135v-64s37 72 143 72c53 0 89 -17 114 -40c47 -44 49 -110 49 -150v-342zM489 736l-185 -152l-173 141l63 72l124 -96l119 95z" />
    <glyph glyph-name="nacute" unicode="&#x144;" horiz-adv-x="556" 
d="M502 0h-137v307c0 50 0 111 -83 111c-37 0 -84 -21 -84 -79v-339h-137v524h135v-64s37 72 143 72c53 0 89 -17 114 -40c47 -44 49 -110 49 -150v-342zM434 725l-117 -165l-68 41l99 177z" />
    <glyph glyph-name="Amacron" unicode="&#x100;" horiz-adv-x="608" 
d="M608 0h-145l-57 205h-219l-56 -205h-135l217 704h186zM376 314l-62 222c-13 45 -17 84 -17 84s-5 -36 -18 -83l-61 -223h158zM443 798h-288v98h288v-98z" />
    <glyph glyph-name="amacron" unicode="&#x101;" 
d="M442 4l-128 -8v66s-27 -70 -133 -70c-108 0 -149 82 -149 161c0 162 133 170 220 174l58 3v24c0 31 -2 80 -96 80c-86 0 -130 -47 -130 -47v104s48 40 169 40c183 0 189 -106 189 -172v-355zM311 169v78l-44 -3c-58 -4 -102 -18 -102 -81c0 -30 13 -69 69 -69
c47 0 77 33 77 75zM401 619h-288v98h288v-98z" />
    <glyph glyph-name="Abreve" unicode="&#x102;" horiz-adv-x="608" 
d="M608 0h-145l-57 205h-219l-56 -205h-135l217 704h186zM376 314l-62 222c-13 45 -17 84 -17 84s-5 -36 -18 -83l-61 -223h158zM474 890c0 0 -51 -120 -178 -120c-132 0 -175 119 -175 119l68 43s34 -70 110 -70c78 0 107 69 107 69z" />
    <glyph glyph-name="abreve" unicode="&#x103;" 
d="M442 4l-128 -8v66s-27 -70 -133 -70c-108 0 -149 82 -149 161c0 162 133 170 220 174l58 3v24c0 31 -2 80 -96 80c-86 0 -130 -47 -130 -47v104s48 40 169 40c183 0 189 -106 189 -172v-355zM311 169v78l-44 -3c-58 -4 -102 -18 -102 -81c0 -30 13 -69 69 -69
c47 0 77 33 77 75zM441 715c0 0 -51 -120 -178 -120c-132 0 -175 119 -175 119l68 43s34 -70 110 -70c78 0 107 69 107 69z" />
    <glyph glyph-name="Aogonek" unicode="&#x104;" horiz-adv-x="608" 
d="M608 0c-77 -13 -100 -44 -100 -90c0 -22 15 -44 41 -44c36 0 52 21 52 21l-5 -86c-20 -11 -50 -21 -83 -21c-83 0 -114 47 -114 100c0 48 30 92 64 120l-57 205h-219l-56 -205h-135l217 704h186zM376 314l-62 222c-12 41 -17 76 -17 82c-1 -6 -7 -39 -18 -81l-61 -223
h158z" />
    <glyph glyph-name="Cacute" unicode="&#x106;" horiz-adv-x="562" 
d="M537 170l-6 -132s-49 -49 -194 -49c-218 0 -307 156 -307 347c0 86 16 167 50 227c54 95 147 148 273 148c120 0 181 -47 181 -47v-127s-51 61 -165 61c-118 0 -197 -67 -197 -247c0 -146 52 -249 195 -249c120 0 170 68 170 68zM494 872l-198 -113l-45 66l187 133z" />
    <glyph glyph-name="Ccircumflex" unicode="&#x108;" horiz-adv-x="562" 
d="M537 170l-6 -132s-49 -49 -194 -49c-218 0 -307 156 -307 347c0 86 16 167 50 227c54 95 147 148 273 148c120 0 181 -47 181 -47v-127s-51 61 -165 61c-118 0 -197 -67 -197 -247c0 -146 52 -249 195 -249c120 0 170 68 170 68zM534 825l-50 -63l-131 86l-132 -86
l-49 63l181 146z" />
    <glyph glyph-name="ccircumflex" unicode="&#x109;" horiz-adv-x="436" 
d="M416 141l-6 -114s-42 -37 -150 -37c-88 0 -228 35 -228 266c0 85 20 276 232 276c100 0 149 -38 149 -38v-111s-36 43 -112 43c-58 0 -130 -16 -130 -164c0 -93 29 -166 137 -166c72 0 108 45 108 45zM450 646l-50 -63l-131 86l-132 -86l-49 63l181 146z" />
    <glyph glyph-name="Cdotaccent" unicode="&#x10a;" horiz-adv-x="562" 
d="M537 170l-6 -132s-49 -49 -194 -49c-218 0 -307 156 -307 347c0 86 16 167 50 227c54 95 147 148 273 148c120 0 181 -47 181 -47v-127s-51 61 -165 61c-118 0 -197 -67 -197 -247c0 -146 52 -249 195 -249c120 0 170 68 170 68zM419 851c0 -44 -30 -72 -74 -72
c-40 0 -70 28 -70 70c0 46 30 74 74 74c40 0 70 -28 70 -72z" />
    <glyph glyph-name="cdotaccent" unicode="&#x10b;" horiz-adv-x="436" 
d="M416 141l-6 -114s-42 -37 -150 -37c-88 0 -228 35 -228 266c0 85 20 276 232 276c100 0 149 -38 149 -38v-111s-36 43 -112 43c-58 0 -130 -16 -130 -164c0 -93 29 -166 137 -166c72 0 108 45 108 45zM334 671c0 -44 -30 -72 -74 -72c-40 0 -70 28 -70 70
c0 46 30 74 74 74c40 0 70 -28 70 -72z" />
    <glyph glyph-name="Ccaron" unicode="&#x10c;" horiz-adv-x="562" 
d="M537 170l-6 -132s-49 -49 -194 -49c-218 0 -307 156 -307 347c0 86 16 167 50 227c54 95 147 148 273 148c120 0 181 -47 181 -47v-127s-51 61 -165 61c-118 0 -197 -67 -197 -247c0 -146 52 -249 195 -249c120 0 170 68 170 68zM531 912l-185 -152l-173 141l63 72
l124 -96l119 95z" />
    <glyph glyph-name="ccaron" unicode="&#x10d;" horiz-adv-x="436" 
d="M416 141l-6 -114s-42 -37 -150 -37c-88 0 -228 35 -228 266c0 85 20 276 232 276c100 0 149 -38 149 -38v-111s-36 43 -112 43c-58 0 -130 -16 -130 -164c0 -93 29 -166 137 -166c72 0 108 45 108 45zM447 736l-185 -152l-173 141l63 72l124 -96l119 95z" />
    <glyph glyph-name="Dcaron" unicode="&#x10e;" horiz-adv-x="642" 
d="M612 362c0 -158 -47 -271 -156 -326c-65 -32 -136 -36 -225 -36h-170v703h184c119 0 178 -7 236 -43c88 -54 131 -161 131 -298zM470 352c0 114 -28 186 -84 217c-27 15 -55 21 -114 21h-71v-477h62c56 0 92 6 121 23c57 32 86 106 86 216zM453 912l-185 -152l-173 141
l63 72l124 -96l119 95z" />
    <glyph glyph-name="Emacron" unicode="&#x112;" horiz-adv-x="475" 
d="M453 118l-5 -118h-387v703h374v-118h-234v-167h191v-118h-191v-182h252zM400 798h-288v98h288v-98z" />
    <glyph glyph-name="emacron" unicode="&#x113;" horiz-adv-x="509" 
d="M477 227h-308c0 -69 21 -137 147 -137c94 0 140 47 140 47l-6 -109s-47 -38 -171 -38c-107 0 -247 39 -247 267c0 164 74 275 233 275c208 0 212 -182 212 -289v-16zM343 320c0 58 -8 122 -83 122c-86 0 -90 -82 -90 -122h173zM403 619h-288v98h288v-98z" />
    <glyph glyph-name="Edotaccent" unicode="&#x116;" horiz-adv-x="475" 
d="M453 118l-5 -118h-387v703h374v-118h-234v-167h191v-118h-191v-182h252zM327 851c0 -44 -30 -72 -74 -72c-40 0 -70 28 -70 70c0 46 30 74 74 74c40 0 70 -28 70 -72z" />
    <glyph glyph-name="edotaccent" unicode="&#x117;" horiz-adv-x="509" 
d="M477 227h-308c0 -69 21 -137 147 -137c94 0 140 47 140 47l-6 -109s-47 -38 -171 -38c-107 0 -247 39 -247 267c0 164 74 275 233 275c208 0 212 -182 212 -289v-16zM343 320c0 58 -8 122 -83 122c-86 0 -90 -82 -90 -122h173zM332 671c0 -44 -30 -72 -74 -72
c-40 0 -70 28 -70 70c0 46 30 74 74 74c40 0 70 -28 70 -72z" />
    <glyph glyph-name="Eogonek" unicode="&#x118;" horiz-adv-x="475" 
d="M453 118l-5 -118c-68 -13 -93 -44 -93 -90c0 -22 15 -44 41 -44c36 0 52 21 52 21l-5 -86c-20 -11 -50 -21 -83 -21c-83 0 -114 47 -114 100c0 48 30 92 64 120h-249v703h374v-118h-234v-167h191v-118h-191v-182h252z" />
    <glyph glyph-name="eogonek" unicode="&#x119;" horiz-adv-x="509" 
d="M477 227h-308c0 -69 21 -137 147 -137c94 0 140 47 140 47l-6 -109s-5 -4 -10 -7c-59 -38 -83 -67 -83 -111c0 -22 15 -44 41 -44c36 0 52 21 52 21l-5 -86c-20 -11 -50 -21 -83 -21c-83 0 -114 47 -114 100c0 43 24 83 53 111c-7 -1 -14 -1 -22 -1
c-107 0 -247 39 -247 267c0 164 74 275 233 275c208 0 212 -182 212 -289v-16zM343 320c0 58 -8 122 -83 122c-86 0 -90 -82 -90 -122h173z" />
    <glyph glyph-name="Ecaron" unicode="&#x11a;" horiz-adv-x="475" 
d="M453 118l-5 -118h-387v703h374v-118h-234v-167h191v-118h-191v-182h252zM441 912l-185 -152l-173 141l63 72l124 -96l119 95z" />
    <glyph glyph-name="ecaron" unicode="&#x11b;" horiz-adv-x="509" 
d="M477 227h-308c0 -69 21 -137 147 -137c94 0 140 47 140 47l-6 -109s-47 -38 -171 -38c-107 0 -247 39 -247 267c0 164 74 275 233 275c208 0 212 -182 212 -289v-16zM343 320c0 58 -8 122 -83 122c-86 0 -90 -82 -90 -122h173zM439 736l-185 -152l-173 141l63 72l124 -96
l119 95z" />
    <glyph glyph-name="Gcircumflex" unicode="&#x11c;" horiz-adv-x="616" 
d="M564 48c0 0 -61 -59 -221 -59c-213 0 -313 150 -313 346c0 80 13 160 52 227c54 93 150 149 288 149c133 0 194 -47 194 -47v-127s-50 61 -189 61c-164 0 -203 -125 -203 -247c0 -166 54 -251 175 -251c56 0 78 12 78 12v199h139v-263zM558 825l-50 -63l-131 86l-132 -86
l-49 63l181 146z" />
    <glyph glyph-name="gcircumflex" unicode="&#x11d;" horiz-adv-x="549" 
d="M488 18c0 -64 -5 -120 -37 -162c-51 -66 -130 -86 -216 -86c-124 0 -177 38 -177 38l-5 115s57 -51 150 -51c53 0 99 9 126 45c21 27 22 65 22 93v54s-33 -68 -131 -68c-111 0 -188 87 -188 256c0 243 130 280 213 280c77 0 108 -39 108 -39v31h135v-506zM351 191v207
s-21 31 -74 31c-72 0 -106 -52 -106 -163c0 -121 39 -157 99 -157c42 0 81 25 81 82zM464 646l-50 -63l-131 86l-132 -86l-49 63l181 146z" />
    <glyph glyph-name="Gdotaccent" unicode="&#x120;" horiz-adv-x="616" 
d="M564 48c0 0 -61 -59 -221 -59c-213 0 -313 150 -313 346c0 80 13 160 52 227c54 93 150 149 288 149c133 0 194 -47 194 -47v-127s-50 61 -189 61c-164 0 -203 -125 -203 -247c0 -166 54 -251 175 -251c56 0 78 12 78 12v199h139v-263zM440 851c0 -44 -30 -72 -74 -72
c-40 0 -70 28 -70 70c0 46 30 74 74 74c40 0 70 -28 70 -72z" />
    <glyph glyph-name="gdotaccent" unicode="&#x121;" horiz-adv-x="549" 
d="M488 18c0 -64 -5 -120 -37 -162c-51 -66 -130 -86 -216 -86c-124 0 -177 38 -177 38l-5 115s57 -51 150 -51c53 0 99 9 126 45c21 27 22 65 22 93v54s-33 -68 -131 -68c-111 0 -188 87 -188 256c0 243 130 280 213 280c77 0 108 -39 108 -39v31h135v-506zM351 191v207
s-21 31 -74 31c-72 0 -106 -52 -106 -163c0 -121 39 -157 99 -157c42 0 81 25 81 82zM322 671c0 -44 -30 -72 -74 -72c-40 0 -70 28 -70 70c0 46 30 74 74 74c40 0 70 -28 70 -72z" />
    <glyph glyph-name="Hcircumflex" unicode="&#x124;" horiz-adv-x="641" 
d="M580 0h-140v296h-239v-296h-140v703h140v-287h239v287h140v-703zM504 825l-50 -63l-131 86l-132 -86l-49 63l181 146z" />
    <glyph glyph-name="hcircumflex" unicode="&#x125;" horiz-adv-x="556" 
d="M502 0h-137v307c0 50 0 111 -83 111c-37 0 -84 -21 -84 -79v-339h-137v754l137 16v-310s37 72 141 72c53 0 89 -17 114 -40c47 -44 49 -110 49 -150v-342zM333 825l-50 -63l-131 86l-132 -86l-49 63l181 146z" />
    <glyph glyph-name="Itilde" unicode="&#x128;" horiz-adv-x="262" 
d="M201 0h-140v703h140v-703zM296 888c0 0 -27 -104 -105 -104c-19 0 -32 3 -54 13l-25 11c-19 8 -29 10 -38 10c-34 0 -46 -34 -46 -34l-57 33s33 101 105 101c17 0 30 -3 52 -13l25 -11c17 -8 29 -10 38 -10c34 0 46 36 46 36z" />
    <glyph glyph-name="itilde" unicode="&#x129;" horiz-adv-x="266" 
d="M201 0h-138v524h138v-524zM297 709c0 0 -27 -104 -105 -104c-19 0 -32 3 -54 13l-25 11c-19 8 -29 10 -38 10c-34 0 -46 -34 -46 -34l-57 33s33 101 105 101c17 0 30 -3 52 -13l25 -11c17 -8 29 -10 38 -10c34 0 46 36 46 36z" />
    <glyph glyph-name="Imacron" unicode="&#x12a;" horiz-adv-x="262" 
d="M201 0h-140v703h140v-703zM276 798h-288v98h288v-98z" />
    <glyph glyph-name="imacron" unicode="&#x12b;" horiz-adv-x="266" 
d="M201 0h-138v524h138v-524zM276 619h-288v98h288v-98z" />
    <glyph glyph-name="Iogonek" unicode="&#x12e;" horiz-adv-x="262" 
d="M201 703v-703c-71 -13 -95 -46 -95 -90c0 -22 15 -44 41 -44c36 0 52 21 52 21l-5 -86c-20 -11 -50 -21 -83 -21c-83 0 -114 47 -114 100c0 48 30 92 64 120v703h140z" />
    <glyph glyph-name="iogonek" unicode="&#x12f;" horiz-adv-x="266" 
d="M201 524v-524c-68 -13 -93 -44 -93 -90c0 -22 15 -44 41 -44c36 0 52 21 52 21l-5 -86c-20 -11 -50 -21 -83 -21c-83 0 -114 47 -114 100c0 48 30 92 64 120v524h138zM210 689c0 -55 -39 -72 -78 -72c-49 0 -78 26 -78 68c0 55 39 72 78 72c49 0 78 -26 78 -68z" />
    <glyph glyph-name="gcommaaccent" unicode="&#x123;" horiz-adv-x="549" 
d="M488 18c0 -64 -5 -120 -37 -162c-51 -66 -130 -86 -216 -86c-124 0 -177 38 -177 38l-5 115s57 -51 150 -51c53 0 99 9 126 45c21 27 22 65 22 93v54s-33 -68 -131 -68c-111 0 -188 87 -188 256c0 243 130 280 213 280c77 0 108 -39 108 -39v31h135v-506zM351 191v207
s-21 31 -74 31c-72 0 -106 -52 -106 -163c0 -121 39 -157 99 -157c42 0 81 25 81 82zM326 583h-107v2c0 119 31 172 31 172h75s-5 -28 -5 -98c0 -45 6 -76 6 -76z" />
    <glyph glyph-name="commaaccentmirrored" unicode="&#xe784;" horiz-adv-x="127" 
d="M107 583h-107v2c0 119 31 172 31 172h75s-5 -28 -5 -98c0 -45 6 -76 6 -76z" />
    <glyph glyph-name="Jcircumflex" unicode="&#x134;" horiz-adv-x="319" 
d="M263 154c0 -60 -9 -161 -150 -161c-38 0 -77 7 -101 16l-12 118c21 -13 48 -20 72 -20c36 0 51 19 51 57v539h140v-549zM370 825l-50 -63l-131 86l-132 -86l-49 63l181 146z" />
    <glyph glyph-name="jcircumflex" unicode="&#x135;" horiz-adv-x="261" 
d="M203 -78c0 -104 -58 -152 -169 -152c-33 0 -59 4 -87 11l-5 106c19 -7 40 -14 62 -14c52 0 61 30 61 79v572h138v-602zM316 646l-50 -63l-131 86l-132 -86l-49 63l181 146z" />
    <glyph glyph-name="dotlessj" unicode="&#xf6be;" horiz-adv-x="261" 
d="M203 -78c0 -104 -58 -152 -169 -152c-33 0 -59 4 -87 11l-5 106c19 -7 40 -14 62 -14c52 0 61 30 61 79v572h138v-602z" />
    <glyph glyph-name="Kcommaaccent" unicode="&#x136;" horiz-adv-x="570" 
d="M585 0h-168l-216 353v-353h-140v703h140v-327l228 327h154l-240 -328zM326 -58c0 -119 -31 -172 -31 -172h-75s5 28 5 98c0 45 -6 76 -6 76h107v-2z" />
    <glyph glyph-name="kcommaaccent" unicode="&#x137;" horiz-adv-x="499" 
d="M513 524l-177 -236l172 -288h-160l-150 266v-266h-137v754l137 16v-485l168 239h147zM312 -58c0 -119 -31 -172 -31 -172h-75s5 28 5 98c0 45 -6 76 -6 76h107v-2z" />
    <glyph glyph-name="Lacute" unicode="&#x139;" horiz-adv-x="455" 
d="M440 118l-5 -118h-374v703h140v-585h239zM278 872l-198 -113l-45 66l187 133z" />
    <glyph glyph-name="lacute" unicode="&#x13a;" horiz-adv-x="259" 
d="M198 0h-137v754l137 16v-770zM249 902l-198 -113l-45 66l187 133z" />
    <glyph glyph-name="Lcommaaccent" unicode="&#x13b;" horiz-adv-x="455" 
d="M440 118l-5 -118h-374v703h140v-585h239zM300 -58c0 -119 -31 -172 -31 -172h-75s5 28 5 98c0 45 -6 76 -6 76h107v-2z" />
    <glyph glyph-name="lcommaaccent" unicode="&#x13c;" horiz-adv-x="259" 
d="M198 0h-137v754l137 16v-770zM182 -58c0 -119 -31 -172 -31 -172h-75s5 28 5 98c0 45 -6 76 -6 76h107v-2z" />
    <glyph glyph-name="Lcaron" unicode="&#x13d;" horiz-adv-x="455" 
d="M440 118l-5 -118h-374v703h140v-585h239zM415 723c0 -119 -31 -172 -31 -172h-75s5 28 5 98c0 45 -6 76 -6 76h107v-2z" />
    <glyph glyph-name="lcaron" unicode="&#x13e;" horiz-adv-x="259" 
d="M198 0h-137v754l137 16v-770zM398 791c0 -119 -31 -172 -31 -172h-75s5 28 5 98c0 45 -6 76 -6 76h107v-2z" />
    <glyph glyph-name="Nacute" unicode="&#x143;" horiz-adv-x="654" 
d="M593 0h-153l-199 365c-44 81 -58 143 -58 143v-508h-122v703h158l181 -350c39 -76 71 -169 71 -169v519h122v-703zM486 872l-198 -113l-45 66l187 133z" />
    <glyph glyph-name="Ncommaaccent" unicode="&#x145;" horiz-adv-x="654" 
d="M593 0h-153l-199 365c-44 81 -58 143 -58 143v-508h-122v703h158l181 -350c39 -76 71 -169 71 -169v519h122v-703zM359 -58c0 -119 -31 -172 -31 -172h-75s5 28 5 98c0 45 -6 76 -6 76h107v-2z" />
    <glyph glyph-name="ncommaaccent" unicode="&#x146;" horiz-adv-x="556" 
d="M502 0h-137v307c0 50 0 111 -83 111c-37 0 -84 -21 -84 -79v-339h-137v524h135v-64s37 72 143 72c53 0 89 -17 114 -40c47 -44 49 -110 49 -150v-342zM329 -58c0 -119 -31 -172 -31 -172h-75s5 28 5 98c0 45 -6 76 -6 76h107v-2z" />
    <glyph glyph-name="Ncaron" unicode="&#x147;" horiz-adv-x="654" 
d="M593 0h-153l-199 365c-44 81 -58 143 -58 143v-508h-122v703h158l181 -350c39 -76 71 -169 71 -169v519h122v-703zM537 912l-185 -152l-173 141l63 72l124 -96l119 95z" />
    <glyph glyph-name="Omacron" unicode="&#x14c;" horiz-adv-x="656" 
d="M626 361c0 -241 -114 -373 -298 -373c-188 0 -298 117 -298 351c0 241 114 373 298 373c188 0 298 -117 298 -351zM484 351c0 180 -55 250 -156 250c-99 0 -156 -72 -156 -252s55 -250 156 -250c99 0 156 72 156 252zM472 798h-288v98h288v-98z" />
    <glyph glyph-name="omacron" unicode="&#x14d;" horiz-adv-x="533" 
d="M501 269c0 -179 -84 -280 -237 -280c-141 0 -232 88 -232 263c0 179 84 280 237 280c141 0 232 -88 232 -263zM362 260c0 109 -21 171 -95 171c-70 0 -96 -51 -96 -170c0 -109 21 -171 95 -171c70 0 96 51 96 170zM417 619h-288v98h288v-98z" />
    <glyph glyph-name="Racute" unicode="&#x154;" horiz-adv-x="561" 
d="M561 0h-167l-195 308v-308h-138v703h192c83 0 135 -8 175 -32c45 -28 78 -77 78 -155c0 -156 -119 -193 -163 -193zM362 501c0 80 -46 101 -108 101h-55v-209h54c60 0 109 29 109 108zM395 872l-198 -113l-45 66l187 133z" />
    <glyph glyph-name="racute" unicode="&#x155;" horiz-adv-x="372" 
d="M378 514l-13 -119s-23 23 -74 23c-78 0 -93 -58 -93 -99v-319h-137v524h134v-74s27 82 112 82c49 0 71 -18 71 -18zM362 696l-198 -113l-45 66l187 133z" />
    <glyph glyph-name="Rcommaaccent" unicode="&#x156;" horiz-adv-x="561" 
d="M561 0h-167l-195 308v-308h-138v703h192c83 0 135 -8 175 -32c45 -28 78 -77 78 -155c0 -156 -119 -193 -163 -193zM362 501c0 80 -46 101 -108 101h-55v-209h54c60 0 109 29 109 108zM325 -58c0 -119 -31 -172 -31 -172h-75s5 28 5 98c0 45 -6 76 -6 76h107v-2z" />
    <glyph glyph-name="rcommaaccent" unicode="&#x157;" horiz-adv-x="372" 
d="M378 514l-13 -119s-23 23 -74 23c-78 0 -93 -58 -93 -99v-319h-137v524h134v-74s27 82 112 82c49 0 71 -18 71 -18zM179 -58c0 -119 -31 -172 -31 -172h-75s5 28 5 98c0 45 -6 76 -6 76h107v-2z" />
    <glyph glyph-name="Rcaron" unicode="&#x158;" horiz-adv-x="561" 
d="M561 0h-167l-195 308v-308h-138v703h192c83 0 135 -8 175 -32c45 -28 78 -77 78 -155c0 -156 -119 -193 -163 -193zM362 501c0 80 -46 101 -108 101h-55v-209h54c60 0 109 29 109 108zM453 912l-185 -152l-173 141l63 72l124 -96l119 95z" />
    <glyph glyph-name="rcaron" unicode="&#x159;" horiz-adv-x="372" 
d="M378 514l-13 -119s-23 23 -74 23c-78 0 -93 -58 -93 -99v-319h-137v524h134v-74s27 82 112 82c49 0 71 -18 71 -18zM405 736l-185 -152l-173 141l63 72l124 -96l119 95z" />
    <glyph glyph-name="Sacute" unicode="&#x15a;" horiz-adv-x="471" 
d="M445 199c0 -122 -72 -210 -234 -210c-129 0 -185 48 -185 48l-6 132s51 -67 177 -67c72 0 110 29 110 84c0 48 -19 63 -72 94l-78 45c-54 31 -128 74 -128 190c0 120 73 196 222 196c113 0 171 -47 171 -47v-127s-49 61 -163 61c-71 0 -94 -29 -94 -72s32 -61 78 -88
l74 -43c73 -42 128 -92 128 -196zM382 872l-198 -113l-45 66l187 133z" />
    <glyph glyph-name="Scircumflex" unicode="&#x15c;" horiz-adv-x="471" 
d="M445 199c0 -122 -72 -210 -234 -210c-129 0 -185 48 -185 48l-6 132s51 -67 177 -67c72 0 110 29 110 84c0 48 -19 63 -72 94l-78 45c-54 31 -128 74 -128 190c0 120 73 196 222 196c113 0 171 -47 171 -47v-127s-49 61 -163 61c-71 0 -94 -29 -94 -72s32 -61 78 -88
l74 -43c73 -42 128 -92 128 -196zM429 825l-50 -63l-131 86l-132 -86l-49 63l181 146z" />
    <glyph glyph-name="scircumflex" unicode="&#x15d;" horiz-adv-x="412" 
d="M382 154c0 -150 -127 -163 -195 -163c-107 0 -152 38 -152 38l-5 111s52 -50 145 -50c41 0 78 8 78 48c0 30 -17 39 -55 60l-54 29c-55 30 -103 65 -103 153c0 137 111 152 179 152c96 0 141 -39 141 -39v-110s-48 51 -127 51c-53 0 -65 -22 -65 -45c0 -30 22 -41 55 -58
l56 -29c47 -24 102 -61 102 -148zM398 646l-50 -63l-131 86l-132 -86l-49 63l181 146z" />
    <glyph glyph-name="tcommaaccent" unicode="&#x163;" horiz-adv-x="344" 
d="M326 111l-5 -99s-33 -20 -106 -20c-47 0 -91 10 -121 50c-23 31 -27 72 -27 128v259h-54v95h54v89l137 28v-117h120v-95h-120v-252c0 -27 2 -47 10 -60c9 -14 26 -24 51 -24c44 0 61 18 61 18zM225 -58c0 -119 -31 -172 -31 -172h-75s5 28 5 98c0 45 -6 76 -6 76h107v-2z
" />
    <glyph glyph-name="Tcaron" unicode="&#x164;" horiz-adv-x="538" 
d="M538 703l-5 -118h-192v-585h-140v585h-196v118h533zM455 912l-185 -152l-173 141l63 72l124 -96l119 95z" />
    <glyph glyph-name="Utilde" unicode="&#x168;" horiz-adv-x="642" 
d="M584 297c0 -112 -2 -176 -48 -232c-44 -54 -116 -76 -211 -76c-99 0 -168 20 -214 69s-53 119 -53 216v429h140v-461c0 -66 5 -143 124 -143c125 0 128 78 128 148v456h134v-406zM489 888c0 0 -27 -104 -105 -104c-19 0 -32 3 -54 13l-25 11c-19 8 -29 10 -38 10
c-34 0 -46 -34 -46 -34l-57 33s33 101 105 101c17 0 30 -3 52 -13l25 -11c17 -8 29 -10 38 -10c34 0 46 36 46 36z" />
    <glyph glyph-name="utilde" unicode="&#x169;" horiz-adv-x="556" 
d="M495 5l-135 -9v68s-38 -72 -145 -72c-51 0 -87 16 -112 39c-47 44 -49 108 -49 148v345h137v-309c0 -50 1 -109 83 -109c36 0 84 21 84 79v339h137v-519zM441 709c0 0 -27 -104 -105 -104c-19 0 -32 3 -54 13l-25 11c-19 8 -29 10 -38 10c-34 0 -46 -34 -46 -34l-57 33
s33 101 105 101c17 0 30 -3 52 -13l25 -11c17 -8 29 -10 38 -10c34 0 46 36 46 36z" />
    <glyph glyph-name="Wcircumflex" unicode="&#x174;" horiz-adv-x="926" 
d="M928 703l-191 -707h-156l-98 404c-13 55 -19 91 -19 91s-2 -24 -18 -90l-100 -405h-157l-187 707h151l100 -444c15 -65 21 -120 21 -120s11 71 24 126l108 438h133l108 -445c15 -62 22 -119 22 -119s8 63 21 118l103 446h135zM644 825l-50 -63l-131 86l-132 -86l-49 63
l181 146z" />
    <glyph glyph-name="Umacron" unicode="&#x16a;" horiz-adv-x="642" 
d="M584 297c0 -112 -2 -176 -48 -232c-44 -54 -116 -76 -211 -76c-99 0 -168 20 -214 69s-53 119 -53 216v429h140v-461c0 -66 5 -143 124 -143c125 0 128 78 128 148v456h134v-406zM470 798h-288v98h288v-98z" />
    <glyph glyph-name="umacron" unicode="&#x16b;" horiz-adv-x="556" 
d="M495 5l-135 -9v68s-38 -72 -145 -72c-51 0 -87 16 -112 39c-47 44 -49 108 -49 148v345h137v-309c0 -50 1 -109 83 -109c36 0 84 21 84 79v339h137v-519zM423 619h-288v98h288v-98z" />
    <glyph glyph-name="Ubreve" unicode="&#x16c;" horiz-adv-x="642" 
d="M584 297c0 -112 -2 -176 -48 -232c-44 -54 -116 -76 -211 -76c-99 0 -168 20 -214 69s-53 119 -53 216v429h140v-461c0 -66 5 -143 124 -143c125 0 128 78 128 148v456h134v-406zM503 890c0 0 -51 -120 -178 -120c-132 0 -175 119 -175 119l68 43s34 -70 110 -70
c78 0 107 69 107 69z" />
    <glyph glyph-name="Uring" unicode="&#x16e;" horiz-adv-x="642" 
d="M584 297c0 -112 -2 -176 -48 -232c-44 -54 -116 -76 -211 -76c-99 0 -168 20 -214 69s-53 119 -53 216v429h140v-461c0 -66 5 -143 124 -143c125 0 128 78 128 148v456h134v-406zM450 844c0 -74 -55 -119 -123 -119c-62 0 -121 38 -121 121c0 74 55 119 123 119
c62 0 121 -38 121 -121zM384 844c0 43 -26 61 -56 61c-29 0 -56 -19 -56 -59c0 -43 26 -61 56 -61c29 0 56 19 56 59z" />
    <glyph glyph-name="uring" unicode="&#x16f;" horiz-adv-x="556" 
d="M495 5l-135 -9v68s-38 -72 -145 -72c-51 0 -87 16 -112 39c-47 44 -49 108 -49 148v345h137v-309c0 -50 1 -109 83 -109c36 0 84 21 84 79v339h137v-519zM403 679c0 -74 -55 -119 -123 -119c-62 0 -121 38 -121 121c0 74 55 119 123 119c62 0 121 -38 121 -121zM337 679
c0 43 -26 61 -56 61c-29 0 -56 -19 -56 -59c0 -43 26 -61 56 -61c29 0 56 19 56 59z" />
    <glyph glyph-name="Uhungarumlaut" unicode="&#x170;" horiz-adv-x="642" 
d="M584 297c0 -112 -2 -176 -48 -232c-44 -54 -116 -76 -211 -76c-99 0 -168 20 -214 69s-53 119 -53 216v429h140v-461c0 -66 5 -143 124 -143c125 0 128 78 128 148v456h134v-406zM636 872l-198 -113l-45 66l187 133zM390 872l-198 -113l-45 66l187 133z" />
    <glyph glyph-name="uhungarumlaut" unicode="&#x171;" horiz-adv-x="556" 
d="M495 5l-135 -9v68s-38 -72 -145 -72c-51 0 -87 16 -112 39c-47 44 -49 108 -49 148v345h137v-309c0 -50 1 -109 83 -109c36 0 84 21 84 79v339h137v-519zM294 730l-117 -165l-68 41l99 177zM494 730l-117 -165l-68 41l99 177z" />
    <glyph glyph-name="Uogonek" unicode="&#x172;" horiz-adv-x="642" 
d="M584 703v-406c0 -112 -2 -176 -48 -232c-15 -18 -32 -32 -52 -43c-59 -38 -83 -68 -83 -112c0 -22 15 -44 41 -44c36 0 52 21 52 21l-5 -86c-20 -11 -50 -21 -83 -21c-83 0 -114 47 -114 100c0 42 23 81 52 109h-19c-99 0 -168 20 -214 69s-53 119 -53 216v429h140v-461
c0 -66 5 -143 124 -143c125 0 128 78 128 148v456h134z" />
    <glyph glyph-name="uogonek" unicode="&#x173;" horiz-adv-x="556" 
d="M495 524v-519c-60 -14 -89 -51 -89 -95c0 -22 15 -44 41 -44c36 0 52 21 52 21l-5 -86c-20 -11 -50 -21 -83 -21c-83 0 -114 47 -114 100c0 46 29 89 63 116v68s-38 -72 -145 -72c-51 0 -87 16 -112 39c-47 44 -49 108 -49 148v345h137v-309c0 -50 1 -109 83 -109
c36 0 84 21 84 79v339h137z" />
    <glyph glyph-name="Tcommaaccent" unicode="&#x162;" horiz-adv-x="538" 
d="M538 703l-5 -118h-192v-585h-140v585h-196v118h533zM323 -58c0 -119 -31 -172 -31 -172h-75s5 28 5 98c0 45 -6 76 -6 76h107v-2z" />
    <glyph glyph-name="gacute" unicode="&#x1f5;" horiz-adv-x="549" 
d="M488 18c0 -64 -5 -120 -37 -162c-51 -66 -130 -86 -216 -86c-124 0 -177 38 -177 38l-5 115s57 -51 150 -51c53 0 99 9 126 45c21 27 22 65 22 93v54s-33 -68 -131 -68c-111 0 -188 87 -188 256c0 243 130 280 213 280c77 0 108 -39 108 -39v31h135v-506zM351 191v207
s-21 31 -74 31c-72 0 -106 -52 -106 -163c0 -121 39 -157 99 -157c42 0 81 25 81 82zM421 696l-198 -113l-45 66l187 133z" />
    <glyph glyph-name="wcircumflex" unicode="&#x175;" horiz-adv-x="768" 
d="M771 524l-154 -527h-165l-57 264c-10 47 -14 84 -14 84s-3 -30 -16 -87l-60 -261h-162l-143 527h137l77 -337c10 -45 17 -94 17 -94s8 57 17 95l77 336h131l73 -339c10 -46 15 -96 15 -96s7 49 18 96l83 339h126zM562 646l-50 -63l-131 86l-132 -86l-49 63l181 146z" />
    <glyph glyph-name="ubreve" unicode="&#x16d;" horiz-adv-x="556" 
d="M495 5l-135 -9v68s-38 -72 -145 -72c-51 0 -87 16 -112 39c-47 44 -49 108 -49 148v345h137v-309c0 -50 1 -109 83 -109c36 0 84 21 84 79v339h137v-519zM450 715c0 0 -51 -120 -178 -120c-132 0 -175 119 -175 119l68 43s34 -70 110 -70c78 0 107 69 107 69z" />
    <glyph glyph-name="Ycircumflex" unicode="&#x176;" horiz-adv-x="592" 
d="M600 703l-236 -435v-268h-140v262l-231 441h157l148 -310l157 310h145zM479 825l-50 -63l-131 86l-132 -86l-49 63l181 146z" />
    <glyph glyph-name="Zacute" unicode="&#x179;" horiz-adv-x="566" 
d="M536 601l-344 -487h341l-5 -114h-500v103l336 486h-308v114h480v-102zM468 872l-198 -113l-45 66l187 133z" />
    <glyph glyph-name="Zdotaccent" unicode="&#x17b;" horiz-adv-x="566" 
d="M536 601l-344 -487h341l-5 -114h-500v103l336 486h-308v114h480v-102zM380 851c0 -44 -30 -72 -74 -72c-40 0 -70 28 -70 70c0 46 30 74 74 74c40 0 70 -28 70 -72z" />
    <glyph glyph-name="ycircumflex" unicode="&#x177;" horiz-adv-x="474" 
d="M480 524l-193 -603c-35 -109 -93 -151 -194 -151c-60 0 -90 15 -90 15l-5 108s31 -19 72 -19c54 0 80 18 97 71l11 35l-181 544h141l85 -290c20 -69 21 -98 21 -98s8 36 24 93l84 295h128zM427 646l-50 -63l-131 86l-132 -86l-49 63l181 146z" />
    <glyph glyph-name="zdotaccent" unicode="&#x17c;" horiz-adv-x="461" 
d="M431 95l-5 -95h-391v85l237 344h-219v95h377v-85l-238 -344h239zM322 671c0 -44 -30 -72 -74 -72c-40 0 -70 28 -70 70c0 46 30 74 74 74c40 0 70 -28 70 -72z" />
    <glyph glyph-name="Dcroat" unicode="&#x110;" horiz-adv-x="642" 
d="M612 362c0 -158 -47 -271 -156 -326c-65 -32 -136 -36 -225 -36h-170v308h-61v94h61v301h184c119 0 178 -7 236 -43c88 -54 131 -161 131 -298zM470 352c0 114 -28 186 -84 217c-27 15 -55 21 -114 21h-71v-188h143l-4 -94h-139v-195h62c56 0 92 6 121 23
c57 32 86 106 86 216z" />
    <glyph glyph-name="tbar" unicode="&#x167;" horiz-adv-x="344" 
d="M326 111l-5 -99s-33 -20 -106 -20c-47 0 -91 10 -121 50c-23 31 -27 72 -27 128v69h-54v95h54v95h-54v95h54v89l137 28v-117h120v-95h-120v-95h120v-95h-120v-62c0 -27 2 -47 10 -60c9 -14 26 -24 51 -24c44 0 61 18 61 18z" />
    <glyph glyph-name="horizontalbar" unicode="&#x2015;" horiz-adv-x="344" 
d="M324 239h-311v95h311v-95z" />
    <glyph glyph-name="Hbar" unicode="&#x126;" horiz-adv-x="641" 
d="M580 0h-140v296h-239v-296h-140v703h140v-83h239v83h140v-703zM201 416h239v84h-239v-84z" />
    <glyph glyph-name="dcroat" unicode="&#x111;" horiz-adv-x="551" 
d="M490 5l-135 -10v67c-3 -6 -34 -71 -133 -71c-118 0 -190 90 -190 258c0 247 128 283 219 283c67 0 102 -37 102 -37v80h-115v95h115v84l137 16v-100h59v-95h-59v-570zM353 187v211s-21 31 -75 31c-73 0 -107 -48 -107 -165s34 -160 100 -160c44 0 82 26 82 83z" />
    <glyph glyph-name="hbar" unicode="&#x127;" horiz-adv-x="556" 
d="M502 0h-137v307c0 50 0 111 -83 111c-37 0 -84 -21 -84 -79v-339h-137v575h-61v95h61v84l137 16v-100h113v-95h-113v-115s37 72 141 72c53 0 89 -17 114 -40c47 -44 49 -110 49 -150v-342z" />
    <glyph glyph-name="Ldot" unicode="&#x13f;" horiz-adv-x="455" 
d="M427 462c0 -44 -30 -72 -74 -72c-40 0 -70 28 -70 70c0 46 30 74 74 74c40 0 70 -28 70 -72zM440 118l-5 -118h-374v703h140v-585h239z" />
    <glyph glyph-name="ldot" unicode="&#x140;" horiz-adv-x="259" 
d="M198 0h-137v754l137 16v-770zM391 462c0 -44 -30 -72 -74 -72c-40 0 -70 28 -70 70c0 46 30 74 74 74c40 0 70 -28 70 -72z" />
    <glyph glyph-name="Tbar" unicode="&#x166;" horiz-adv-x="538" 
d="M538 703l-5 -118h-192v-61h94l-5 -95h-89v-429h-140v429h-90v95h90v61h-196v118h533z" />
    <glyph glyph-name="napostrophe" unicode="&#x149;" horiz-adv-x="556" 
d="M502 0h-137v307c0 50 0 111 -83 111c-37 0 -84 -21 -84 -79v-339h-137v524h135v-64s37 72 143 72c53 0 89 -17 114 -40c47 -44 49 -110 49 -150v-342zM107 791c0 -119 -31 -172 -31 -172h-75s5 28 5 98c0 45 -6 76 -6 76h107v-2z" />
    <glyph glyph-name="kgreenlandic" unicode="&#x138;" horiz-adv-x="499" 
d="M513 524l-177 -236l172 -288h-160l-150 266v-266h-137v516l137 16v-247l168 239h147z" />
    <glyph glyph-name="Eng" unicode="&#x14a;" horiz-adv-x="654" 
d="M593 -78c0 -104 -58 -152 -169 -152c-33 0 -59 4 -87 11l-5 106c19 -7 40 -14 62 -14c52 0 61 30 61 79v20l-214 393c-41 75 -56 133 -58 142v-507h-122v703h158l181 -350c37 -72 68 -160 71 -169v519h122v-781z" />
    <glyph glyph-name="eng" unicode="&#x14b;" horiz-adv-x="556" 
d="M502 -78c0 -104 -58 -152 -169 -152c-33 0 -59 4 -87 11l-5 106c19 -7 40 -14 62 -14c52 0 62 30 62 79v355c0 50 0 111 -83 111c-37 0 -84 -21 -84 -79v-339h-137v524h135v-64s37 72 143 72c53 0 89 -17 114 -40c47 -44 49 -110 49 -150v-420z" />
    <glyph glyph-name="uni03A9" unicode="&#x3a9;" horiz-adv-x="774" 
d="M723 156c-4 -28 -9 -79 -9 -156h-276v67c49 7 184 86 184 297c0 115 -32 299 -234 299c-200 0 -234 -183 -234 -299c0 -213 131 -290 182 -297v-67h-275c0 77 -5 128 -10 156h17c9 -48 26 -65 30 -69c24 -23 74 -23 130 -23h56c-115 41 -217 144 -217 299
c0 162 98 340 320 340c174 0 320 -116 320 -329c0 -195 -137 -281 -219 -310h59c56 0 105 0 130 23c4 4 19 21 30 69h16z" />
    <glyph glyph-name="uni021A" unicode="&#x21a;" horiz-adv-x="538" 
d="M538 703l-5 -118h-192v-585h-140v585h-196v118h533zM323 -58c0 -119 -31 -172 -31 -172h-75s5 28 5 98c0 45 -6 76 -6 76h107v-2z" />
    <glyph glyph-name="uni021B" unicode="&#x21b;" horiz-adv-x="344" 
d="M326 111l-5 -99s-33 -20 -106 -20c-47 0 -91 10 -121 50c-23 31 -27 72 -27 128v259h-54v95h54v89l137 28v-117h120v-95h-120v-252c0 -27 2 -47 10 -60c9 -14 26 -24 51 -24c44 0 61 18 61 18zM225 -58c0 -119 -31 -172 -31 -172h-75s5 28 5 98c0 45 -6 76 -6 76h107v-2z
" />
    <glyph glyph-name="uni2219" unicode="&#x2219;" horiz-adv-x="275" 
d="M225 302c0 -55 -32 -93 -87 -93c-54 0 -88 33 -88 92c0 55 34 91 87 91c49 0 88 -36 88 -90z" />
    <glyph glyph-name="arrowleft" unicode="&#x2190;" horiz-adv-x="703" 
d="M703 299h-526l260 -259h-125l-312 311l312 312h125l-260 -260h526v-104z" />
    <glyph glyph-name="arrowup" unicode="&#x2191;" horiz-adv-x="623" 
d="M623 266l-260 260v-526h-104v526l-259 -260v125l311 312l312 -312v-125z" />
    <glyph glyph-name="arrowright" unicode="&#x2192;" horiz-adv-x="703" 
d="M703 352l-312 -312h-125l260 260h-526v104h526l-260 259h125z" />
    <glyph glyph-name="arrowdown" unicode="&#x2193;" horiz-adv-x="623" 
d="M623 312l-311 -312l-312 312v125l260 -260v526h104v-526l259 260v-125z" />
    <glyph glyph-name="uni2196" unicode="&#x2196;" horiz-adv-x="533" 
d="M533 139l-73 -73l-372 372v-367l-88 88v441h441l88 -89h-367z" />
    <glyph glyph-name="uni2197" unicode="&#x2197;" horiz-adv-x="534" 
d="M534 159l-89 -88v367l-372 -371l-73 73l372 371h-367l88 89h441v-441z" />
    <glyph glyph-name="uni2198" unicode="&#x2198;" horiz-adv-x="533" 
d="M533 103h-441l-88 89h367l-371 372l73 73l371 -372v367l89 -88v-441z" />
    <glyph glyph-name="uni2199" unicode="&#x2199;" horiz-adv-x="534" 
d="M534 563l-372 -372h367l-88 -88h-441v441l89 88v-367l372 371z" />
    <glyph glyph-name="SF100000" unicode="&#x2500;" 
d="M500 0h-500v35h500v-35z" />
    <glyph glyph-name="uni254C" unicode="&#x254c;" 
d="M250 0h-250v35h250v-35z" />
    <glyph glyph-name="uni25A3" unicode="&#x25a3;" horiz-adv-x="703" 
d="M703 0h-703v703h703v-703zM631 72v559h-559v-559h559zM547 156h-391v391h391v-391z" />
    <glyph glyph-name="uni25B6" unicode="&#x25b6;" horiz-adv-x="703" 
d="M702 351l-703 -351v703z" />
    <glyph glyph-name="uni25C0" unicode="&#x25c0;" horiz-adv-x="703" 
d="M703 0l-703 351l703 352v-703z" />
    <glyph glyph-name="uni25FC" unicode="&#x25fc;" horiz-adv-x="703" 
d="M703 0h-703v703h703v-703z" />
    <glyph glyph-name="uni25FD" unicode="&#x25fd;" horiz-adv-x="703" 
d="M631 631v-559h-559v559h559z" />
    <glyph glyph-name="uni25FE" unicode="&#x25fe;" horiz-adv-x="703" 
d="M547 156h-391v391h391v-391z" />
    <glyph glyph-name="uni260E" unicode="&#x260e;" horiz-adv-x="955" 
d="M954 506l1 -22c3 -35 -8 -58 -21 -71c-12 -12 -37 -18 -76 -18c-99 0 -148 39 -148 116v19c48 -27 99 -41 152 -41c28 0 57 5 92 17zM954 543c-31 -11 -61 -17 -90 -17c-51 0 -103 15 -154 46v11c0 51 -79 76 -236 76c-153 0 -229 -25 -229 -76v-11
c-54 -27 -106 -40 -156 -40c-31 0 -58 4 -89 11c9 57 27 109 56 156c64 23 129 42 201 54c70 12 144 18 221 18c76 0 149 -6 219 -18c71 -12 137 -31 201 -54c29 -52 47 -104 56 -156zM849 0h-743v119c0 51 17 104 51 158l132 212v95l112 14v-83h153v83l112 -14v-95
l132 -212c34 -54 51 -107 51 -158v-119zM245 534v-23c0 -73 -50 -110 -150 -110c-37 0 -62 6 -75 17s-20 33 -20 65v24c28 -8 58 -12 89 -12c56 0 108 12 156 39zM648 301c0 68 -78 122 -171 122s-170 -54 -170 -122s77 -122 170 -122s171 54 171 122z" />
    <glyph glyph-name="uni2610" unicode="&#x2610;" horiz-adv-x="703" 
d="M703 0h-703v703h703v-703zM631 72v559h-559v-559h559z" />
    <glyph glyph-name="uni2611" unicode="&#x2611;" horiz-adv-x="703" 
d="M788 746l14 -28c-35 -29 -68 -60 -99 -93v-625h-703v703h703v-17c27 20 54 41 85 60zM631 72v470c-11 -15 -24 -29 -36 -44c-76 -96 -142 -206 -191 -310l-90 -52l-172 298l89 52l116 -200c44 80 119 179 212 275c21 23 45 44 72 67v3h-559v-559h559z" />
    <glyph glyph-name="uni2612" unicode="&#x2612;" horiz-adv-x="703" 
d="M703 0h-703v703h703v-703zM631 72v559h-559v-559h559zM565 199l-61 -61l-153 153l-152 -153l-61 61l153 152l-153 153l61 61l152 -153l153 153l61 -61l-153 -153z" />
    <glyph glyph-name="uni26A0" unicode="&#x26a0;" horiz-adv-x="1020" 
d="M1020 59c0 -33 -26 -59 -59 -59h-902c-33 0 -59 26 -59 59c0 11 2 21 7 30l449 776c11 19 30 35 54 35c23 0 41 -13 52 -32l449 -777c5 -9 9 -20 9 -32zM910 89l-400 693l-400 -693h800zM572 564l-27 -231c-3 -21 -10 -44 -35 -44s-33 23 -36 44l-27 231
c-5 44 12 95 63 95s67 -51 62 -95zM567 180c0 -32 -26 -58 -58 -58s-59 26 -59 58s27 58 59 58s58 -26 58 -58z" />
    <glyph glyph-name="uni2702" unicode="&#x2702;" horiz-adv-x="1170" 
d="M577 9l593 -133c-48 -13 -97 -17 -146 -17c-85 0 -168 12 -283 32c-114 19 -243 57 -309 84c-41 -32 -65 -46 -132 -46c-25 0 -49 1 -76 4c23 -16 36 -32 36 -59s-17 -50 -42 -67c-27 -19 -64 -28 -99 -28s-71 9 -96 32c-15 13 -23 30 -23 51c0 43 30 67 81 82
c35 11 78 22 134 31c49 8 91 17 126 34c-35 17 -77 27 -126 35c-56 9 -99 19 -134 30c-51 15 -81 39 -81 82c0 21 8 38 23 51c25 23 61 32 96 32s72 -9 99 -28c25 -17 42 -40 42 -67s-13 -42 -36 -58c27 3 51 4 76 4c67 0 91 -14 132 -46c67 27 195 62 309 83
c115 20 198 33 283 33c49 0 98 -5 146 -18zM210 141c0 15 -9 30 -40 43c-13 5 -32 9 -53 9c-44 0 -63 -19 -63 -42c0 -19 17 -29 33 -36c19 -7 34 -11 55 -11c28 0 68 10 68 37zM210 -122c0 27 -40 37 -68 37c-21 0 -36 -4 -55 -11c-16 -7 -33 -17 -33 -36
c0 -23 19 -43 63 -43c21 0 40 5 53 10c31 13 40 28 40 43z" />
    <glyph glyph-name="uni2706" unicode="&#x2706;" horiz-adv-x="900" 
d="M900 393c0 -248 -202 -450 -450 -450s-450 202 -450 450s202 450 450 450s450 -202 450 -450zM865 393c0 228 -186 416 -415 416s-415 -188 -415 -416c0 -229 186 -415 415 -415s415 186 415 415zM442 668c18 -67 1 -107 -52 -120l-12 -3c10 37 10 73 0 108
c-5 19 -15 39 -28 59l15 4c23 6 40 6 51 -1s19 -22 26 -47zM496 70c-40 -4 -78 -2 -114 9c-27 39 -51 80 -72 124c-21 45 -36 92 -51 144c-13 51 -23 100 -27 149s-4 97 0 144c28 27 59 49 94 65c13 -18 22 -37 27 -57c9 -33 8 -70 -3 -111l-7 -2c-34 -9 -37 -66 -9 -171
c27 -101 57 -147 92 -138l7 2c28 -32 45 -65 54 -97c5 -20 8 -40 9 -61zM576 105c-5 -11 -19 -20 -40 -25l-16 -4c1 19 -2 40 -8 62c-9 35 -27 67 -54 96l16 4c49 12 83 -15 100 -80c6 -25 7 -42 2 -53z" />
    <glyph glyph-name="uni2709" unicode="&#x2709;" horiz-adv-x="1055" 
d="M1055 0h-1055v779h1055v-779zM1020 58v663l-322 -341zM994 744h-934l385 -409h164zM994 35l-319 319l-51 -54h-194l-50 54l-320 -319h934zM356 380l-322 341v-663z" />
    <glyph glyph-name="uni270E" unicode="&#x270e;" horiz-adv-x="900" 
d="M900 0l-272 133l-628 628l139 139l628 -628zM717 266l-583 583l-27 -28l582 -582zM815 122l-67 131l-101 -100l131 -68zM662 211l-583 582l-28 -27l583 -583z" />
    <glyph glyph-name="uni2713" unicode="&#x2713;" horiz-adv-x="703" 
d="M787 746l15 -28c-72 -61 -132 -126 -207 -220c-76 -96 -143 -206 -192 -310l-90 -52l-172 298l89 52l116 -200c44 80 119 179 212 275c60 60 138 125 229 185z" />
    <glyph glyph-name="uni2717" unicode="&#x2717;" horiz-adv-x="703" 
d="M565 199l-61 -61l-153 153l-152 -153l-61 61l153 152l-153 153l61 61l152 -153l153 153l61 -61l-153 -153z" />
    <glyph glyph-name="uniF02D" unicode="&#xf02d;" horiz-adv-x="785" 
d="M785 0h-785v900h785v-900zM750 696v169h-715v-169h715zM750 35v629h-74v-70h-567v70h-74v-629h715zM653 387l-23 -29l-9 -3l-38 -71c1 14 0 28 -3 42l21 39l-2 10l11 35zM576 295c0 -76 -60 -136 -136 -136c-41 0 -78 18 -103 47c12 -19 22 -29 26 -32
c-24 11 -36 18 -56 39s-38 42 -54 64c-20 27 -50 53 -83 62c-12 3 -25 3 -38 2c21 19 52 48 79 63s67 29 94 38c-7 -11 -14 -22 -17 -34c-9 -33 -1 -72 12 -103l3 -6c3 74 62 133 137 133c76 0 136 -62 136 -137zM529 295c0 51 -38 90 -89 90s-90 -39 -90 -90s39 -90 90 -90
s89 39 89 90z" />
    <glyph glyph-name="uniF030" unicode="&#xf030;" horiz-adv-x="1055" 
d="M1055 0h-1055v779h1055v-779zM1021 35v709h-986v-709h986zM955 514h-138v162h138v-162zM817 326h-487v24h487v-24zM817 257h-487v24h487v-24zM817 187h-487v25h487v-25z" />
    <glyph glyph-name="uniF033" unicode="&#xf033;" horiz-adv-x="1170" 
d="M1170 -138c0 -21 -8 -38 -23 -51c-25 -23 -61 -32 -96 -32s-72 9 -99 28c-25 17 -42 40 -42 67s13 43 36 59c-27 -3 -51 -4 -76 -4c-67 0 -91 14 -132 46c-66 -27 -195 -65 -309 -84c-115 -20 -198 -32 -283 -32c-49 0 -98 4 -146 17l593 133l-593 133
c48 13 97 18 146 18c85 0 168 -13 283 -33c114 -21 242 -56 309 -83c41 32 65 46 132 46c25 0 49 -1 76 -4c-23 16 -36 31 -36 58s17 50 42 67c27 19 64 28 99 28s71 -9 96 -32c15 -13 23 -30 23 -51c0 -43 -30 -67 -81 -82c-35 -11 -78 -21 -134 -30
c-49 -8 -91 -18 -126 -35c35 -17 77 -26 126 -34c56 -9 99 -20 134 -31c51 -15 81 -39 81 -82zM1116 151c0 23 -19 42 -63 42c-21 0 -40 -4 -53 -9c-31 -13 -40 -28 -40 -43c0 -27 40 -37 68 -37c21 0 36 4 55 11c16 7 33 17 33 36zM1116 -132c0 19 -17 29 -33 36
c-19 7 -34 11 -55 11c-28 0 -68 -10 -68 -37c0 -15 9 -30 40 -43c13 -5 32 -10 53 -10c44 0 63 20 63 43z" />
    <glyph glyph-name="uniF036" unicode="&#xf036;" horiz-adv-x="900" 
d="M900 761l-628 -628l-272 -133l133 272l628 628zM793 821l-27 28l-583 -583l28 -27zM849 766l-28 27l-583 -582l28 -28zM253 153l-101 100l-67 -131l37 -37z" />
    <glyph glyph-name="uniF043" unicode="&#xf043;" horiz-adv-x="779" 
d="M779 722v-665c0 -32 -25 -57 -57 -57h-618l-104 104v618c0 32 25 57 57 57h665c32 0 57 -25 57 -57zM615 447v297h-428v-297c0 -13 9 -23 22 -23h383c13 0 23 10 23 23zM744 57v665c0 15 -7 22 -22 22h-72v-297c0 -32 -26 -57 -58 -57h-383c-32 0 -57 25 -57 57v297h-95
c-15 0 -22 -7 -22 -22v-604l83 -83h90v228c0 13 10 23 23 23h318c13 0 23 -10 23 -23v-228h150c15 0 22 7 22 22zM364 35v216h-121v-216h121z" />
    <glyph glyph-name="uniF044" unicode="&#xf044;" horiz-adv-x="716" 
d="M716 0h-539v89h-89v88h-88v723h538v-89h89v-88h89v-723zM681 35v653h-54v-599h-415v-54h469zM504 212v653h-470v-653h470zM592 123v654h-54v-600h-415v-54h469zM438 769h-340v35h340v-35zM438 673h-340v34h340v-34zM438 576h-340v35h340v-35zM438 480h-340v35h340v-35z
M438 383h-340v35h340v-35zM438 287h-340v35h340v-35z" />
    <glyph glyph-name="uniF046" unicode="&#xf046;" horiz-adv-x="1285" 
d="M1285 507c0 -9 -2 -17 -7 -24l-278 -483h-1000v606c0 19 8 35 20 48c13 14 29 21 50 21h34c16 0 19 3 26 18l21 51c11 27 22 35 50 35h253c28 0 39 -8 50 -35l21 -51c7 -15 10 -18 26 -18h379c20 0 37 -7 50 -20s20 -30 20 -49v-54h238c28 0 47 -21 47 -45zM1244 501
c0 11 -9 16 -26 16h-840c-21 0 -47 -13 -59 -34l-259 -448h919l259 448c4 7 6 13 6 18zM965 552v54c0 10 -3 18 -9 24c-7 7 -16 11 -26 11h-385c-28 0 -40 7 -51 34l-20 52c-7 15 -10 17 -27 17h-239c-17 0 -20 -2 -27 -17l-20 -52c-11 -27 -23 -34 -51 -34h-40
c-10 0 -19 -4 -26 -11c-6 -6 -9 -14 -9 -24v-546l244 423c26 46 66 69 120 69h566z" />
    <glyph glyph-name="uniF049" unicode="&#xf049;" horiz-adv-x="659" 
d="M477 743c0 -85 -71 -157 -158 -157c-85 0 -156 72 -156 157c0 87 71 157 156 157c87 0 158 -70 158 -157zM539 0h-419v39h58c12 0 20 11 20 19v426c0 10 -6 15 -18 15h-60v40h322v-483c0 -7 4 -17 15 -17h82v-39z" />
    <glyph glyph-name="uniF051" unicode="&#xf051;" horiz-adv-x="623" 
d="M623 195l-243 243v-438h-138v438l-242 -243v196l311 312l312 -312v-196z" />
    <glyph glyph-name="uniF052" unicode="&#xf052;" horiz-adv-x="703" 
d="M703 282h-438l243 -242h-196l-312 311l312 312h196l-243 -243h438v-138z" />
    <glyph glyph-name="uniF057" unicode="&#xf057;" horiz-adv-x="668" 
d="M417 580l-94 112l-139 -125l9 -10c18 -2 37 -3 57 -3c72 0 130 10 167 26zM668 278c0 -39 -13 -72 -44 -113c-7 -10 -14 -17 -22 -22c-16 -76 -48 -136 -96 -136h-74c-13 0 -26 5 -38 15c-41 -15 -89 -22 -144 -22c-133 0 -233 48 -233 108v404c-11 13 -17 26 -17 41v74
c0 33 28 57 71 76v18h20l76 76l63 -63c7 0 13 1 20 1h3l72 64l73 -84c60 -19 103 -47 103 -88v-74c0 -14 -6 -28 -18 -41v-4h23c45 0 76 -52 93 -123c19 -5 33 -14 44 -26c19 -21 25 -58 25 -81zM461 614l-137 161l-181 -163l29 -32l152 137l107 -127c15 9 25 17 30 24z
M223 721l-56 56l-56 -56h112zM636 278c0 20 -6 49 -17 60c-9 11 -28 18 -43 18h-46c-7 0 -10 -3 -10 -10c0 -6 3 -9 10 -9h46c11 0 25 -6 29 -13h1c5 -8 11 -31 11 -46c0 -27 -10 -51 -34 -82c-11 -13 -17 -14 -37 -14h-41c-6 0 -9 -3 -9 -9c0 -7 3 -10 9 -10h41
c25 0 37 1 52 21c25 34 38 65 38 94zM219 704h-125l-6 -6v-117c21 -8 47 -16 78 -21l-48 53zM466 553v17c-48 -32 -133 -51 -216 -51s-168 18 -215 51v-17c0 -30 82 -73 215 -73s216 43 216 73zM579 258c0 16 -1 31 -2 46h-47c-23 0 -42 19 -42 42s19 42 42 42h32
c-15 55 -37 85 -56 85c-30 0 -73 -82 -73 -215s43 -216 73 -216c19 0 43 32 58 89h-18h-41c-23 0 -42 19 -42 42s19 42 42 42h41h11c11 15 17 25 21 36c0 3 1 4 1 7zM71 599v82l-41 -41zM432 42h17c-32 48 -51 133 -51 216s18 168 51 215h-17c-30 0 -73 -82 -73 -215
s43 -216 73 -216zM369 51c-31 48 -45 128 -45 207c0 75 14 150 41 199c-36 -8 -74 -12 -115 -12c-73 0 -149 13 -198 40v-377c0 -35 85 -73 198 -73c47 0 86 5 119 16zM314 402v-320c0 -11 -6 -18 -17 -18s-18 7 -18 18v320c0 11 7 17 18 17s17 -6 17 -17zM221 402v-320
c0 -11 -6 -18 -17 -18s-18 7 -18 18v320c0 11 7 17 18 17s17 -6 17 -17zM128 426v-319c0 -11 -6 -18 -17 -18s-18 7 -18 18v319c0 11 7 18 18 18s17 -7 17 -18z" />
    <glyph glyph-name="uniF059" unicode="&#xf059;" horiz-adv-x="579" 
d="M579 461h-343l309 -310l-97 -97l-310 310v-343l-138 138v441h441z" />
    <glyph glyph-name="uniF05A" unicode="&#xf05a;" horiz-adv-x="579" 
d="M579 159l-139 -138v343l-310 -309l-97 97l310 309h-343l138 139h441v-441z" />
    <glyph glyph-name="uniF05E" unicode="&#xf05e;" horiz-adv-x="900" 
d="M576 105c5 11 4 28 -2 53c-17 65 -51 92 -100 80l-16 -4c27 -29 45 -61 54 -96c6 -22 9 -43 8 -62l16 4c21 5 35 14 40 25zM496 70c-1 21 -4 41 -9 61c-9 32 -26 65 -54 97l-7 -2c-35 -9 -65 37 -92 138c-28 105 -25 162 9 171l7 2c11 41 12 78 3 111
c-5 20 -14 39 -27 57c-35 -16 -66 -38 -94 -65c-4 -47 -4 -95 0 -144s14 -98 27 -149c15 -52 30 -99 51 -144c21 -44 45 -85 72 -124c36 -11 74 -13 114 -9zM442 668c-7 25 -15 40 -26 47s-28 7 -51 1l-15 -4c13 -20 23 -40 28 -59c10 -35 10 -71 0 -108l12 3
c53 13 70 53 52 120zM865 393c0 -229 -186 -415 -415 -415s-415 186 -415 415c0 228 186 416 415 416s415 -188 415 -416z" />
    <glyph glyph-name="uniF063" unicode="&#xf063;" horiz-adv-x="900" 
d="M900 393c0 -248 -202 -450 -450 -450s-450 202 -450 450s202 450 450 450s450 -202 450 -450zM866 393c0 228 -188 416 -416 416c-229 0 -415 -188 -415 -416c0 -229 186 -415 415 -415c228 0 416 186 416 415zM762 641l-194 -141c-7 7 -14 14 -23 21l119 208
c37 -24 71 -53 98 -88zM840 476l-234 -50c-3 16 -9 31 -17 46l193 141c27 -41 47 -88 58 -137zM634 746l-120 -207c-15 6 -31 10 -46 12l24 238c51 -5 99 -20 142 -43zM592 393c0 -78 -64 -141 -142 -141s-142 63 -142 141s64 142 142 142s142 -64 142 -142zM433 235
l-25 -238c-51 5 -99 20 -142 43l120 208c15 -7 31 -10 47 -13zM312 315l-194 -141c-27 41 -46 87 -57 136l234 50c3 -15 8 -30 17 -45zM356 265l-120 -207c-37 24 -70 53 -97 88l193 141c7 -8 15 -15 24 -22zM500 393c0 27 -23 50 -50 50s-49 -23 -49 -50s22 -49 49 -49
s50 22 50 49z" />
    <glyph glyph-name="uniF064" unicode="&#xf064;" horiz-adv-x="539" 
d="M539 0h-539v723h346l193 -193v-530zM490 530l-144 144v-144h144zM504 35v461h-192v192h-277v-653h469zM247 592h-148v35h148v-35zM247 496h-148v34h148v-34zM439 399h-340v35h340v-35zM439 303h-340v34h340v-34zM439 206h-340v35h340v-35zM439 110h-340v35h340v-35z" />
    <glyph glyph-name="uniF066" unicode="&#xf066;" horiz-adv-x="1000" 
d="M1000 0h-1000v606c0 19 8 35 20 48c13 14 29 21 50 21h34c16 0 19 3 26 18l21 51c11 27 22 35 50 35h253c28 0 40 -8 51 -35l20 -51c7 -15 10 -18 26 -18h379c20 0 37 -7 50 -20s20 -30 20 -49v-606zM494 675l-20 52c-7 15 -10 17 -27 17h-239c-17 0 -20 -2 -27 -17
l-20 -52h333zM965 35v571c0 10 -3 18 -9 24c-7 7 -16 11 -26 11h-860c-10 0 -19 -4 -26 -11c-6 -6 -9 -14 -9 -24v-571h930z" />
    <glyph glyph-name="uniF069" unicode="&#xf069;" horiz-adv-x="659" 
d="M477 743c0 -85 -71 -157 -158 -157c-85 0 -156 72 -156 157c0 87 71 157 156 157c87 0 158 -70 158 -157zM539 0h-419v39h58c12 0 20 11 20 19v426c0 10 -6 15 -18 15h-60v40h322v-483c0 -7 4 -17 15 -17h82v-39z" />
    <glyph glyph-name="uniF06D" unicode="&#xf06d;" horiz-adv-x="425" 
d="M230 720h-35v57c0 14 -5 24 -14 29l-112 64l18 30l111 -64c19 -11 32 -34 32 -59v-57zM425 646v-433c0 -116 -95 -213 -212 -213c-116 0 -213 97 -213 213v433c0 32 25 57 57 57h311c32 0 57 -25 57 -57zM391 464v182c0 13 -10 22 -23 22h-138v-59c11 -7 17 -17 17 -30
v-44c0 -13 -6 -23 -17 -30v-60c59 1 112 8 161 19zM195 445v60c-11 7 -17 17 -17 30v44c0 13 6 23 17 30v59h-138c-15 0 -22 -7 -22 -22v-182c49 -11 101 -18 160 -19zM391 213v218c-55 -12 -114 -19 -178 -19s-123 7 -178 19v-218c0 -99 79 -178 178 -178s178 79 178 178z
" />
    <glyph glyph-name="uniF070" unicode="&#xf070;" horiz-adv-x="992" 
d="M992 35h-35v-35h-922v35h-35v504h219v361h554v-361h219v-504zM738 539v326h-484v-326h484zM957 197v307h-922v-307h922zM957 69v95h-177v-35h-567v35h-178v-95h922zM645 779h-298v34h298v-34zM645 676h-298v35h298v-35zM738 381h-70v71h70v-71zM645 573h-298v35h298v-35z
M597 381h-71v71h71v-71z" />
    <glyph glyph-name="uniF071" unicode="&#xf071;" horiz-adv-x="623" 
d="M623 312l-311 -312l-312 312v196l243 -243v438h138v-438l242 243v-196z" />
    <glyph glyph-name="uniF072" unicode="&#xf072;" horiz-adv-x="703" 
d="M703 352l-312 -312h-196l243 243h-438v138h438l-243 242h196z" />
    <glyph glyph-name="uniF073" unicode="&#xf073;" horiz-adv-x="970" 
d="M970 0h-970v290h381v34h-312v576h832v-576h-312v-34h381v-290zM866 362v507h-762v-507h762zM935 35v220h-900v-220h900zM832 773v-322c0 -32 -26 -57 -58 -57h-578c-32 0 -58 25 -58 57v322c0 32 26 58 58 58h578c32 0 58 -26 58 -58zM866 151h-208v35h208v-35zM208 186
h-35v34h35v-34zM139 186h-35v34h35v-34zM797 451v322c0 13 -10 23 -23 23h-578c-13 0 -23 -10 -23 -23v-322c0 -13 10 -23 23 -23h578c13 0 23 10 23 23z" />
    <glyph glyph-name="uniF074" unicode="&#xf074;" horiz-adv-x="970" 
d="M901 324h-832v576h832v-576zM970 117l-1 -117h-969v117l69 173h832zM865 362v507h-762v-507h762zM935 35v75l-58 145h-784l-58 -145v-75h900zM832 773v-322c0 -32 -26 -57 -58 -57h-578c-32 0 -57 25 -57 57v322c0 32 25 58 57 58h578c32 0 58 -26 58 -58zM868 186h-71
v35h57zM762 186h-39v35h39v-35zM689 186h-39v35h39v-35zM615 186h-39v35h39v-35zM541 186h-39v35h39v-35zM468 186h-39v35h39v-35zM895 117h-820l13 34h794zM394 186h-39v35h39v-35zM320 186h-39v35h39v-35zM247 186h-39v35h39v-35zM173 186h-71l14 35h57v-35zM797 451v322
c0 13 -10 23 -23 23h-578c-13 0 -23 -10 -23 -23v-322c0 -13 10 -23 23 -23h578c13 0 23 10 23 23z" />
    <glyph glyph-name="uniF075" unicode="&#xf075;" horiz-adv-x="900" 
d="M900 393c0 -248 -202 -450 -450 -450s-450 202 -450 450s202 450 450 450s450 -202 450 -450zM865 393c0 228 -186 416 -415 416s-415 -188 -415 -416c0 -229 186 -415 415 -415s415 186 415 415zM483 375l-273 -158l-32 57l239 138v342h66v-379z" />
    <glyph glyph-name="uniF077" unicode="&#xf077;" horiz-adv-x="501" 
d="M501 627v-74c0 -14 -6 -28 -18 -41v-404c0 -60 -100 -108 -233 -108s-233 48 -233 108v404c-11 13 -17 26 -17 41v74c0 45 52 76 123 93c5 19 14 33 26 44c20 19 58 25 81 25c39 0 72 -13 113 -44c10 -7 17 -14 22 -22c76 -16 136 -48 136 -96zM345 626v41
c0 25 -1 37 -21 52c-34 25 -65 38 -94 38c-20 0 -49 -6 -60 -17c-11 -9 -18 -28 -18 -43v-46c0 -7 3 -10 10 -10c6 0 9 3 9 10v46c0 11 6 23 13 30c8 5 31 11 46 11c27 0 51 -10 82 -34c13 -11 14 -17 14 -37v-41c0 -6 3 -9 9 -9c7 0 10 3 10 9zM466 627c0 19 -32 43 -89 58
v-18v-41c0 -23 -19 -42 -42 -42s-42 19 -42 42v41v11c-5 3 -9 6 -14 9c-8 5 -17 10 -22 13h-7c-16 0 -31 -1 -46 -2v-47c0 -23 -19 -42 -42 -42s-42 19 -42 42v33c-55 -15 -85 -38 -85 -57c0 -30 82 -73 215 -73s216 43 216 73zM466 553v17c-48 -32 -133 -51 -216 -51
s-168 18 -215 51v-17c0 -30 82 -73 215 -73s216 43 216 73zM448 108v377c-49 -27 -125 -40 -198 -40s-149 13 -198 40v-377c0 -35 85 -73 198 -73s198 38 198 73zM407 426v-319c0 -11 -6 -18 -17 -18s-18 7 -18 18v319c0 11 7 18 18 18s17 -7 17 -18zM314 402v-320
c0 -11 -6 -18 -17 -18s-18 7 -18 18v320c0 11 7 17 18 17s17 -6 17 -17zM221 402v-320c0 -11 -6 -18 -17 -18s-18 7 -18 18v320c0 11 7 17 18 17s17 -6 17 -17zM128 426v-319c0 -11 -6 -18 -17 -18s-18 7 -18 18v319c0 11 7 18 18 18s17 -7 17 -18z" />
    <glyph glyph-name="uniF079" unicode="&#xf079;" horiz-adv-x="579" 
d="M579 241l-138 -138h-441v441l139 138v-343l310 309l97 -97l-310 -310h343z" />
    <glyph glyph-name="uniF07A" unicode="&#xf07a;" horiz-adv-x="579" 
d="M579 103h-441l-138 139h343l-309 310l97 97l309 -310v343l139 -138v-441z" />
    <glyph glyph-name="uniF0C2" unicode="&#xf0c2;" horiz-adv-x="1097" 
d="M1097 533l-75 -279h-62l-38 159c-1 5 -2 9 -3 13c-2 8 -4 16 -5 23c-1 -5 -1 -13 -4 -21c-1 -5 -2 -9 -3 -14l-39 -160h-63l-73 279h59l40 -175c1 -5 2 -11 3 -16c3 -11 4 -21 5 -32c2 15 4 26 6 35c1 5 3 10 4 15l42 172v1h53l42 -176l3 -15c3 -9 3 -21 6 -32
c1 11 2 22 5 33c1 5 2 10 3 14l41 176h53zM983 568h-271l-11 61l-59 3l6 -32l20 -20l-16 2l1 -9l-22 -5h-15l13 9l-9 26l-28 17l-24 -35l-29 21l-19 -36l-36 18l28 34l41 12l17 28l62 25l14 15l13 57l-37 -19l17 -9l-26 -25l-10 27l-13 -21l-22 50l67 57h70l3 15
c-51 21 -104 31 -159 31c-43 0 -84 -6 -123 -18l1 -3c1 -3 4 -8 10 -17l-14 -11l-17 -1l-25 -13l-41 -66l-40 -37l-28 2l-13 29c-7 0 -11 -1 -14 -1c-2 -1 -4 -1 -5 -1c-42 -47 -72 -101 -90 -160h-36c50 191 228 332 435 332c208 0 381 -141 434 -332zM576 693l-21 -22
l-20 2l18 22l-12 4l-12 23l7 18l23 -4zM490 776l-16 -17l-26 -3l12 49h26zM526 700l-13 -16l-6 18l9 16zM732 533l-76 -279h-61l-39 159c-1 5 -2 9 -3 13c-2 8 -4 16 -5 23c-1 -5 -1 -13 -4 -21c-1 -5 -2 -9 -3 -14l-39 -160h-62l-74 279h59l40 -175c1 -5 2 -11 3 -16
c3 -11 4 -21 5 -32c2 15 4 26 6 35c1 5 3 10 4 15l42 173h53l43 -176l3 -15c3 -9 2 -21 5 -32c1 12 3 24 6 33c1 5 2 10 3 14l40 176h54zM748 205c-20 -19 -41 -38 -61 -58c0 -44 -6 -83 -17 -116l-60 -42l-44 23c-4 49 -14 97 -30 146l-37 42l-79 10l-5 9h331
c1 -5 2 -9 2 -14zM932 219h37c-64 -170 -229 -290 -420 -290c-192 0 -357 120 -421 290h37c64 -150 211 -255 384 -255c174 0 319 105 383 255zM366 533l-76 -279h-61l-39 159c-1 5 -2 9 -3 13c-3 7 -3 16 -4 23c-1 -5 -1 -13 -4 -21c-1 -5 -3 -9 -4 -14l-39 -160h-62
l-74 279h60l39 -175c1 -5 2 -11 3 -16c3 -11 4 -21 5 -32c2 15 4 26 6 35c1 5 3 10 4 15l43 173h52l43 -176l3 -15c3 -9 2 -21 5 -32c1 12 3 24 6 33c1 5 2 10 3 14l40 176h54z" />
    <glyph glyph-name="uniF0C6" unicode="&#xf0c6;" horiz-adv-x="955" 
d="M954 543c-31 -11 -61 -17 -90 -17c-51 0 -103 15 -154 46v11c0 51 -79 76 -236 76c-153 0 -229 -25 -229 -76v-11c-54 -27 -106 -40 -156 -40c-31 0 -58 4 -89 11c9 57 27 109 56 156c46 17 94 31 144 42v159h554v-159c49 -11 97 -25 144 -42c29 -52 47 -104 56 -156z
M626 516h-298v35h298v-35zM626 391h-298v34h298v-34zM626 265h-298v35h298v-35zM954 506l1 -22c3 -35 -8 -58 -21 -71c-12 -12 -37 -18 -76 -18c-45 0 -79 8 -104 24v-419h-554v424c-25 -15 -60 -23 -105 -23c-37 0 -62 6 -75 17s-20 33 -20 65v24c28 -8 58 -12 89 -12
c56 0 108 12 156 39v-23c0 -20 -3 -37 -10 -50v-426h485v425c-7 15 -10 31 -10 51v19c48 -27 99 -41 152 -41c28 0 57 5 92 17zM626 140h-298v34h298v-34zM720 748v117h-485v-117c7 1 14 4 22 5c70 12 144 18 221 18c76 0 149 -6 219 -18c8 -1 15 -2 23 -5z" />
    </font>
</defs>
</svg>
