<?xml version="1.0" standalone="no"?>
<!DOCTYPE svg PUBLIC "-//W3C//DTD SVG 1.1//EN" "http://www.w3.org/Graphics/SVG/1.1/DTD/svg11.dtd" >
<svg xmlns="http://www.w3.org/2000/svg" xmlns:xlink="http://www.w3.org/1999/xlink" version="1.1">
<metadata>
Created by FontForge 20160407 at Thu Aug 18 21:09:06 2016
 By Jimmy Warting
(c) Copyright: Gerard Unger, 2005. Exclusive design for Allianz International. Produced by Novatype, a division of Visualogik Technology &#38; Design bv, 2005.  Unauthorised use strictly prohibited. Allianz Sans and Allianz Serif are trademarks of Allianz Int
</metadata>
<defs>
<font id="AllianzSans-Regular" horiz-adv-x="500" >
  <font-face 
    font-family="AllianzSans"
    font-weight="500"
    font-stretch="normal"
    units-per-em="1000"
    panose-1="0 0 0 0 0 0 0 0 0 0"
    ascent="770"
    descent="-230"
    x-height="517"
    cap-height="703"
    bbox="-46 -342 1000 949"
    underline-thickness="50"
    underline-position="-100"
    stemh="72"
    stemv="75"
    unicode-range="U+0020-FB02"
  />
<missing-glyph 
 />
    <glyph glyph-name=".notdef" 
 />
    <glyph glyph-name="space" unicode=" " horiz-adv-x="200" 
 />
    <glyph glyph-name="exclam" unicode="!" horiz-adv-x="271" 
d="M182 703l-6 -529h-82l-7 514zM197 57c0 -40 -23 -68 -62 -68c-38 0 -63 25 -63 67c0 38 25 65 62 65s63 -26 63 -64z" />
    <glyph glyph-name="quotedbl" unicode="&#x22;" horiz-adv-x="299" 
d="M255 703l-12 -216h-58l-12 216h82zM126 703l-12 -216h-58l-12 216h82z" />
    <glyph glyph-name="numbersign" unicode="#" horiz-adv-x="588" 
d="M586 508l-10 -59h-116l-37 -195h115l-11 -59h-116l-36 -195h-68l37 195h-168l-37 -195h-68l37 195h-115l12 59h114l37 195h-115l11 59h116l37 195h68l-38 -195h169l36 195h69l-38 -195h115zM393 449h-169l-37 -195h168z" />
    <glyph glyph-name="dollar" unicode="$" horiz-adv-x="525" 
d="M439 190c0 -103 -54 -174 -159 -193v-103h-69v97c-114 2 -168 45 -168 45l-6 97s57 -63 174 -63v252l-32 20c-59 37 -129 79 -129 188c0 91 47 163 161 179v90l69 11v-99c91 -5 136 -42 136 -42v-93s-47 49 -136 56v-229l35 -21c61 -37 124 -85 124 -192zM211 433v194
c-45 -11 -67 -41 -67 -89c0 -53 28 -81 67 -105zM344 180c0 54 -19 82 -64 111v-213c41 16 64 48 64 102z" />
    <glyph glyph-name="percent" unicode="%" horiz-adv-x="618" 
d="M323 557c0 -95 -64 -167 -163 -167c-96 0 -160 63 -160 157c0 100 62 166 164 166c97 0 159 -60 159 -156zM589 705l-482 -705h-79l482 705h79zM618 157c0 -95 -64 -167 -162 -167c-97 0 -161 63 -161 157c0 100 62 166 164 166c96 0 159 -61 159 -156zM245 553
c0 55 -24 102 -84 102c-59 0 -82 -49 -82 -104c0 -54 22 -100 80 -100c59 0 86 47 86 102zM540 153c0 55 -24 101 -83 101c-60 0 -83 -47 -83 -103c0 -54 22 -100 81 -100c58 0 85 46 85 102z" />
    <glyph glyph-name="ampersand" unicode="&#x26;" horiz-adv-x="698" 
d="M651 0h-115l-42 46c-19 -12 -77 -54 -189 -54c-117 0 -235 49 -235 203c0 150 128 192 128 192l-10 11c-50 55 -80 98 -80 163c0 58 33 151 173 151c153 0 174 -102 174 -151c0 -137 -122 -188 -131 -192l178 -203s25 28 25 117c0 22 -2 39 -2 39h91v-14
c0 -28 0 -91 -21 -142c-14 -34 -30 -52 -36 -59zM366 557c0 75 -50 88 -87 88c-67 0 -80 -49 -80 -82c0 -53 35 -91 67 -127l16 -18s84 37 84 139zM442 104l-201 230s-77 -30 -77 -132c0 -79 44 -136 154 -136c84 0 124 38 124 38z" />
    <glyph glyph-name="quoteright" unicode="&#x2019;" horiz-adv-x="219" 
d="M185 770c0 -15 0 -30 -1 -45c-5 -78 -38 -158 -69 -213c-24 9 -48 16 -72 24c26 67 40 128 40 202v32h102z" />
    <glyph glyph-name="parenleft" unicode="(" horiz-adv-x="382" 
d="M374 770c-149 -138 -223 -290 -223 -497c0 -223 85 -363 221 -503h-99c-13 10 -25 21 -37 34c-122 133 -182 288 -182 472c0 183 69 339 179 456c14 14 25 25 40 38h101z" />
    <glyph glyph-name="parenright" unicode=")" horiz-adv-x="382" 
d="M328 264c0 -183 -69 -339 -179 -456c-14 -14 -25 -25 -40 -38h-101c149 138 223 290 223 497c0 223 -85 363 -221 503h99c13 -10 25 -21 37 -34c122 -133 182 -288 182 -472z" />
    <glyph glyph-name="asterisk" unicode="*" horiz-adv-x="372" 
d="M352 500l-37 -66l-108 86l21 -139h-82l20 139l-106 -86l-39 66l130 53l-130 55l39 65l106 -85l-20 141h82l-21 -141l108 85l37 -65l-129 -55z" />
    <glyph glyph-name="plus" unicode="+" horiz-adv-x="640" 
d="M617 316h-260v-275h-75v275h-259v70h259v271h75v-271h260v-70z" />
    <glyph glyph-name="comma" unicode="," horiz-adv-x="205" 
d="M159 98c0 -82 -34 -177 -70 -241l-72 25c25 62 41 118 41 183v49h101v-16z" />
    <glyph glyph-name="hyphen" unicode="-" horiz-adv-x="325" 
d="M284 223h-243v86h243v-86z" />
    <glyph glyph-name="period" unicode="." horiz-adv-x="238" 
d="M185 57c0 -42 -25 -71 -66 -71c-40 0 -66 26 -66 70c0 42 26 70 65 70c38 0 67 -27 67 -69z" />
    <glyph glyph-name="slash" unicode="/" horiz-adv-x="375" 
d="M342 770l-254 -947h-88l253 947h89z" />
    <glyph glyph-name="zero" unicode="0" horiz-adv-x="521" 
d="M483 358c0 -254 -76 -369 -226 -369c-148 0 -219 110 -219 354c0 254 76 369 227 369c148 0 218 -110 218 -354zM385 355c0 195 -34 281 -124 281c-92 0 -125 -90 -125 -289c0 -195 34 -281 124 -281c92 0 125 90 125 289z" />
    <glyph glyph-name="one" unicode="1" horiz-adv-x="521" 
d="M332 0h-96v589l-142 -25v77c54 8 136 35 177 64h61v-705z" />
    <glyph glyph-name="two" unicode="2" horiz-adv-x="521" 
d="M445 0h-398v87s106 95 200 197c64 71 100 128 100 215c0 62 -24 134 -137 134c-104 0 -153 -57 -153 -57v94s52 42 170 42c101 0 218 -41 218 -203c0 -105 -43 -182 -137 -279c-78 -82 -155 -147 -155 -147h292v-83z" />
    <glyph glyph-name="three" unicode="3" horiz-adv-x="521" 
d="M452 195c0 -104 -63 -205 -240 -205c-113 0 -169 44 -169 44l-6 98s48 -63 167 -63c111 0 150 57 150 134c0 116 -104 123 -165 123h-25v72h19c94 0 146 47 146 126s-46 110 -114 110c-101 0 -150 -57 -150 -57v95s54 41 161 41c117 0 201 -51 201 -173
c0 -144 -120 -173 -120 -173s145 -2 145 -172z" />
    <glyph glyph-name="four" unicode="4" horiz-adv-x="522" 
d="M497 169h-75v-169h-95v169h-306v89l297 448h104v-457h75v-80zM327 249v340c-7 -15 -23 -44 -45 -77l-175 -263h220z" />
    <glyph glyph-name="five" unicode="5" horiz-adv-x="521" 
d="M462 229c0 -131 -68 -239 -242 -239c-104 0 -158 44 -158 44l-6 98s43 -63 155 -63c110 0 154 69 154 157c0 82 -37 145 -148 145c-87 0 -136 -32 -136 -32v364h360v-82h-277v-190s29 14 89 14c162 0 209 -116 209 -216z" />
    <glyph glyph-name="six" unicode="6" horiz-adv-x="521" 
d="M482 235c0 -169 -92 -244 -217 -244c-169 0 -219 131 -219 336c0 257 76 385 265 385c102 0 153 -43 153 -43v-96s-44 60 -153 60c-145 0 -165 -122 -165 -228c0 0 52 44 139 44c100 0 197 -55 197 -214zM385 227c0 94 -43 143 -127 143c-66 0 -113 -39 -113 -39v-13
c0 -142 7 -254 118 -254c51 0 122 21 122 163z" />
    <glyph glyph-name="seven" unicode="7" horiz-adv-x="521" 
d="M460 649c0 -61 -12 -116 -50 -186l-88 -162c-51 -94 -59 -146 -59 -229v-72h-97v83c0 87 27 162 69 241l72 135c29 54 53 100 53 138v24h-305v82h405v-54z" />
    <glyph glyph-name="eight" unicode="8" horiz-adv-x="521" 
d="M481 177c0 -123 -92 -188 -218 -188c-120 0 -222 43 -222 177c0 158 146 195 146 195l-22 13c-51 30 -105 77 -105 165c0 120 88 174 203 174c112 0 196 -54 196 -165c0 -134 -127 -176 -127 -176l31 -19c55 -34 118 -78 118 -176zM367 545c0 76 -46 101 -105 101
c-72 0 -110 -39 -110 -95c0 -52 16 -82 79 -119l43 -25s93 34 93 138zM384 172c0 68 -38 95 -89 125l-47 28s-112 -33 -112 -151c0 -84 54 -115 127 -115c71 0 121 40 121 113z" />
    <glyph glyph-name="nine" unicode="9" horiz-adv-x="521" 
d="M474 375c0 -257 -72 -384 -265 -384c-99 0 -150 42 -150 42l-6 98s46 -62 157 -62c148 0 159 122 165 228c0 0 -52 -44 -139 -44c-101 0 -198 55 -198 214c0 169 92 245 218 245c168 0 218 -132 218 -337zM376 371v12c0 143 -7 255 -119 255c-50 0 -121 -21 -121 -163
c0 -94 43 -143 126 -143c67 0 114 39 114 39z" />
    <glyph glyph-name="colon" unicode=":" horiz-adv-x="238" 
d="M185 451c0 -42 -25 -71 -66 -71c-40 0 -66 26 -66 70c0 42 26 70 65 70c38 0 67 -27 67 -69zM185 57c0 -42 -25 -71 -66 -71c-40 0 -66 26 -66 70c0 42 26 70 65 70c38 0 67 -27 67 -69z" />
    <glyph glyph-name="semicolon" unicode=";" horiz-adv-x="228" 
d="M182 451c0 -42 -25 -71 -66 -71c-40 0 -66 26 -66 70c0 42 26 70 65 70c38 0 67 -27 67 -69zM168 98c0 -82 -34 -177 -70 -241l-72 25c25 62 41 118 41 183v49h101v-16z" />
    <glyph glyph-name="less" unicode="&#x3c;" horiz-adv-x="711" 
d="M688 37l-665 292v43l665 293v-77l-551 -236l551 -235v-80z" />
    <glyph glyph-name="equal" unicode="=" horiz-adv-x="640" 
d="M617 439h-594v71h594v-71zM617 189h-594v71h594v-71z" />
    <glyph glyph-name="greater" unicode="&#x3e;" horiz-adv-x="711" 
d="M689 329l-665 -292v80l551 235l-551 236v77l665 -293v-43z" />
    <glyph glyph-name="question" unicode="?" horiz-adv-x="443" 
d="M399 534c0 -60 -21 -114 -80 -170l-63 -60c-36 -34 -42 -52 -42 -94v-35h-87v47c0 47 11 79 47 115l70 69c40 39 60 74 60 124c0 59 -41 105 -123 105c-89 0 -149 -59 -149 -59v94s61 43 168 43c109 0 199 -55 199 -179zM233 57c0 -40 -23 -68 -62 -68
c-38 0 -63 25 -63 67c0 38 25 65 62 65s63 -26 63 -64z" />
    <glyph glyph-name="at" unicode="@" horiz-adv-x="954" 
d="M905 331c0 -125 -45 -237 -155 -295c-61 -33 -121 -38 -171 -38c-31 0 -47 1 -61 2l21 118c-2 -6 -23 -48 -58 -81c-37 -34 -67 -44 -104 -44c-80 0 -125 53 -125 175c0 168 63 353 242 353c71 0 105 -35 105 -35l86 34c-24 -154 -48 -307 -73 -461c24 1 57 4 99 27
c74 40 110 121 110 237c0 192 -105 300 -312 300c-142 0 -377 -79 -377 -400c0 -224 125 -358 371 -358c146 0 238 55 238 55l-5 -82s-81 -46 -236 -46c-303 0 -454 171 -454 431c0 281 187 471 472 471c212 0 387 -121 387 -363zM583 425c0 0 -25 28 -78 28
c-49 0 -84 -23 -108 -56c-45 -63 -55 -167 -55 -219c0 -98 39 -109 66 -109c30 0 55 17 85 54c29 36 57 89 63 127z" />
    <glyph glyph-name="A" unicode="A" horiz-adv-x="576" 
d="M576 0h-100l-75 233h-235l-76 -233h-92l238 705h109zM378 308l-69 219c-16 50 -24 94 -24 94s-9 -39 -26 -92l-70 -221h189z" />
    <glyph glyph-name="B" unicode="B" horiz-adv-x="525" 
d="M487 194c0 -76 -34 -139 -99 -169c-40 -18 -86 -25 -175 -25h-144v703h146c98 0 141 -8 176 -30c46 -29 70 -77 70 -138c0 -151 -124 -167 -124 -167s150 -2 150 -174zM363 519c0 96 -58 112 -132 112h-66v-232h58c57 0 140 11 140 120zM389 203c0 114 -84 124 -153 124
h-71v-255h78c78 0 146 21 146 131z" />
    <glyph glyph-name="C" unicode="C" horiz-adv-x="560" 
d="M537 134l-7 -96s-52 -47 -189 -47c-218 0 -306 156 -306 347c0 86 15 168 49 228c55 97 148 146 271 146c119 0 180 -43 180 -43v-94s-54 58 -173 58c-142 0 -229 -92 -229 -280c0 -181 74 -283 225 -283c123 0 179 64 179 64z" />
    <glyph glyph-name="D" unicode="D" horiz-adv-x="632" 
d="M597 362c0 -158 -47 -271 -156 -326c-65 -32 -136 -36 -225 -36h-147v703h161c119 0 178 -7 236 -43c88 -54 131 -161 131 -298zM498 353c0 125 -35 212 -104 248c-32 17 -67 24 -141 24h-87v-547h76c70 0 114 7 150 27c70 37 106 126 106 248z" />
    <glyph glyph-name="E" unicode="E" horiz-adv-x="460" 
d="M439 80l-4 -80h-366v703h352v-80h-255v-222h212v-79h-212v-242h273z" />
    <glyph glyph-name="F" unicode="F" horiz-adv-x="432" 
d="M421 623h-255v-222h212v-79h-212v-322h-97v703h352v-80z" />
    <glyph glyph-name="G" unicode="G" horiz-adv-x="618" 
d="M558 47c0 0 -59 -56 -214 -56c-198 0 -309 132 -309 345c0 73 9 155 51 228c54 93 148 148 284 148c128 0 188 -43 188 -43v-94s-52 58 -187 58c-177 0 -238 -132 -238 -280c0 -192 75 -285 225 -285c67 0 104 18 104 18v226h96v-265z" />
    <glyph glyph-name="H" unicode="H" horiz-adv-x="630" 
d="M561 0h-97v320h-298v-320h-97v703h97v-302h298v302h97v-703z" />
    <glyph glyph-name="I" unicode="I" horiz-adv-x="235" 
d="M166 0h-97v703h97v-703z" />
    <glyph glyph-name="J" unicode="J" horiz-adv-x="272" 
d="M205 149c0 -58 -5 -156 -134 -156c-38 0 -66 8 -75 12l-7 81c8 -6 28 -16 56 -16c54 0 64 33 64 76v557h96v-554z" />
    <glyph glyph-name="K" unicode="K" horiz-adv-x="536" 
d="M542 0h-119l-257 359v-359h-97v703h97v-325l265 325h110l-275 -327z" />
    <glyph glyph-name="L" unicode="L" horiz-adv-x="437" 
d="M422 80l-4 -80h-349v703h97v-623h256z" />
    <glyph glyph-name="M" unicode="M" horiz-adv-x="797" 
d="M728 0h-94v639s-6 -71 -28 -138l-168 -501h-88l-167 501c-22 67 -28 138 -28 138v-639h-86v703h145l162 -490c21 -63 22 -104 22 -104s1 41 23 106l164 488h143v-703z" />
    <glyph glyph-name="N" unicode="N" horiz-adv-x="634" 
d="M565 0h-93l-266 450c-42 72 -51 108 -51 108v-558h-86v703h99l253 -433c42 -72 58 -123 58 -123v556h86v-703z" />
    <glyph glyph-name="O" unicode="O" horiz-adv-x="644" 
d="M609 364c0 -241 -109 -375 -286 -375c-181 0 -288 122 -288 348c0 241 108 376 285 376c181 0 289 -123 289 -349zM510 353c0 192 -65 282 -189 282c-119 0 -187 -92 -187 -287c0 -192 64 -282 188 -282c119 0 188 92 188 287z" />
    <glyph glyph-name="P" unicode="P" horiz-adv-x="506" 
d="M482 502c0 -211 -170 -228 -249 -228h-67v-274h-97v703h158c85 0 135 -9 176 -34c53 -33 79 -94 79 -167zM383 496c0 130 -89 135 -161 135h-56v-285h53c81 0 164 12 164 150z" />
    <glyph glyph-name="Q" unicode="Q" horiz-adv-x="644" 
d="M619 -135c0 0 -47 -34 -133 -34c-134 0 -198 69 -225 163c-143 25 -226 144 -226 343c0 241 108 376 285 376c181 0 289 -123 289 -349s-96 -359 -254 -373c20 -47 61 -87 139 -87c74 0 125 40 125 40v-79zM510 353c0 192 -65 282 -189 282c-119 0 -187 -92 -187 -287
c0 -192 64 -282 188 -282c119 0 188 92 188 287z" />
    <glyph glyph-name="R" unicode="R" horiz-adv-x="524" 
d="M517 0h-118l-234 326v-326h-96v703h141c78 0 131 -4 174 -28c50 -29 79 -79 79 -152c0 -145 -104 -195 -190 -195zM364 513c0 102 -63 118 -139 118h-60v-246h62c70 0 137 24 137 128z" />
    <glyph glyph-name="S" unicode="S" horiz-adv-x="463" 
d="M429 190c0 -122 -76 -199 -223 -199c-117 0 -173 45 -173 45l-6 97s57 -63 174 -63c83 0 133 37 133 110c0 61 -24 82 -81 116l-84 50c-60 36 -129 74 -129 184c0 103 61 182 209 182c105 0 157 -43 157 -43v-93s-53 57 -157 57c-77 0 -115 -32 -115 -95
c0 -62 39 -85 89 -114l82 -48c62 -36 124 -79 124 -186z" />
    <glyph glyph-name="T" unicode="T" horiz-adv-x="503" 
d="M503 703l-4 -80h-199v-623h-96v623h-199v80h498z" />
    <glyph glyph-name="U" unicode="U" horiz-adv-x="628" 
d="M563 298c0 -112 -2 -176 -45 -232c-42 -54 -110 -76 -200 -76c-94 0 -160 20 -203 69c-44 49 -50 119 -50 216v428h96v-459c0 -82 7 -177 153 -177c155 0 158 96 158 184v452h91v-405z" />
    <glyph glyph-name="V" unicode="V" horiz-adv-x="572" 
d="M577 703l-241 -706h-103l-234 706h102l166 -515c16 -49 24 -94 24 -94s8 40 25 93l168 516h93z" />
    <glyph glyph-name="W" unicode="W" horiz-adv-x="907" 
d="M905 703l-201 -707h-100l-122 462c-6 23 -26 104 -26 104s-18 -76 -26 -103l-127 -463h-101l-195 707h104l123 -482c12 -48 20 -92 23 -114c3 21 14 74 26 118l131 476v2h97l126 -483c12 -46 21 -91 24 -113c3 21 12 70 24 114l126 482h94z" />
    <glyph glyph-name="X" unicode="X" horiz-adv-x="577" 
d="M565 0h-108l-177 285l-171 -285h-102l225 362l-211 341h111l166 -269l161 269h100l-215 -345z" />
    <glyph glyph-name="Y" unicode="Y" horiz-adv-x="557" 
d="M565 703l-238 -429v-274h-97v270l-232 433h110l174 -344l181 344h102z" />
    <glyph glyph-name="Z" unicode="Z" horiz-adv-x="552" 
d="M518 635l-368 -555h364l-4 -80h-478v68l365 555h-337v80h458v-68z" />
    <glyph glyph-name="bracketleft" unicode="[" horiz-adv-x="324" 
d="M250 -230h-176v1000h176v-66h-87v-868h87v-66z" />
    <glyph glyph-name="backslash" unicode="\" horiz-adv-x="374" 
d="M373 -177h-87l-254 947h88z" />
    <glyph glyph-name="bracketright" unicode="]" horiz-adv-x="324" 
d="M250 -230h-176v66h87v868h-87v66h176v-1000z" />
    <glyph glyph-name="asciicircum" unicode="^" horiz-adv-x="557" 
d="M517 234h-84l-156 395l-154 -395h-83l215 524h46z" />
    <glyph glyph-name="underscore" unicode="_" 
d="M500 -118h-500v39h500v-39z" />
    <glyph glyph-name="quoteleft" unicode="&#x2018;" horiz-adv-x="222" 
d="M187 750c-26 -67 -40 -128 -40 -202v-32h-102c0 15 0 30 1 45c5 78 38 158 69 213c24 -9 48 -16 72 -24z" />
    <glyph glyph-name="a" unicode="a" horiz-adv-x="472" 
d="M407 4l-89 -8v67s-31 -70 -137 -70c-104 0 -147 75 -147 153c0 157 136 164 220 168l61 3v41c0 39 -1 97 -101 97c-88 0 -129 -51 -129 -51v80s42 40 152 40c165 0 170 -98 170 -166v-354zM316 160v96l-60 -5c-74 -6 -129 -21 -129 -100c0 -37 17 -85 89 -85
c57 0 100 40 100 94z" />
    <glyph glyph-name="b" unicode="b" horiz-adv-x="527" 
d="M490 270c0 -224 -114 -278 -219 -278c-81 0 -123 41 -123 41l-79 -41v764l94 14v-312s36 67 132 67c132 0 195 -108 195 -255zM394 258c0 142 -48 189 -126 189c-63 0 -105 -36 -105 -97v-252s29 -35 95 -35c92 0 136 64 136 195z" />
    <glyph glyph-name="c" unicode="c" horiz-adv-x="432" 
d="M408 114l-6 -85s-41 -38 -143 -38c-91 0 -222 38 -222 262c0 132 51 272 224 272c103 0 144 -37 144 -37v-83s-39 47 -125 47c-56 0 -148 -15 -148 -194c0 -113 37 -194 155 -194c82 0 121 50 121 50z" />
    <glyph glyph-name="d" unicode="d" horiz-adv-x="526" 
d="M457 4l-91 -8v66s-36 -70 -135 -70c-132 0 -194 108 -194 254c0 225 114 279 218 279c74 0 109 -38 109 -38v269l93 14v-766zM364 167v251s-30 35 -96 35c-92 0 -136 -63 -136 -195c0 -141 48 -188 127 -188c62 0 105 36 105 97z" />
    <glyph glyph-name="e" unicode="e" horiz-adv-x="486" 
d="M452 247h-321c0 -106 28 -185 158 -185c93 0 140 51 140 51l-6 -84s-43 -38 -158 -38c-103 0 -228 40 -228 262c0 159 68 272 218 272c174 0 197 -146 197 -262v-16zM359 314c0 70 -16 145 -108 145c-106 0 -118 -104 -118 -145h226z" />
    <glyph glyph-name="f" unicode="f" horiz-adv-x="290" 
d="M307 755l-6 -73s-15 17 -59 17c-23 0 -41 -9 -50 -23c-11 -17 -12 -41 -12 -68v-92h103v-69h-103v-447h-93v447h-54v69h54v86c0 48 3 87 24 118c27 39 66 50 115 50c55 0 81 -15 81 -15z" />
    <glyph glyph-name="g" unicode="g" horiz-adv-x="525" 
d="M456 -2c0 -65 -5 -111 -32 -147c-46 -63 -120 -81 -196 -81c-113 0 -161 39 -161 39l-5 85s53 -53 153 -53c50 0 98 11 125 48c21 27 23 67 23 97v77s-37 -68 -133 -68c-132 0 -193 113 -193 253c0 222 114 277 215 277c78 0 113 -39 113 -39v31h91v-519zM363 170v248
s-30 35 -95 35c-92 0 -136 -65 -136 -193c0 -150 57 -186 126 -186c62 0 105 35 105 96z" />
    <glyph glyph-name="h" unicode="h" horiz-adv-x="535" 
d="M472 0h-93v312c0 59 -2 134 -107 134c-47 0 -109 -26 -109 -97v-349h-94v756l94 14v-316s37 71 144 71c54 0 91 -17 116 -40c48 -44 49 -110 49 -152v-333z" />
    <glyph glyph-name="i" unicode="i" horiz-adv-x="231" 
d="M172 693c0 -38 -26 -54 -56 -54c-34 0 -56 20 -56 51c0 38 26 55 56 55c34 0 56 -20 56 -52zM163 0h-94v517h94v-517z" />
    <glyph glyph-name="j" unicode="j" horiz-adv-x="237" 
d="M178 693c0 -38 -25 -55 -57 -55c-34 0 -55 20 -55 52c0 38 25 54 56 54c33 0 56 -20 56 -51zM168 -78c0 -75 -25 -152 -142 -152c-34 0 -56 6 -67 11l-5 75c8 -5 27 -14 52 -14c61 0 69 38 69 86v588h93v-594z" />
    <glyph glyph-name="k" unicode="k" horiz-adv-x="451" 
d="M456 517l-196 -231l195 -286h-112l-180 270v-270h-94v756l94 14v-484l188 231h105z" />
    <glyph glyph-name="l" unicode="l" horiz-adv-x="232" 
d="M163 0h-94v756l94 14v-770z" />
    <glyph glyph-name="m" unicode="m" horiz-adv-x="838" 
d="M775 0h-93v312c0 60 -2 134 -105 134c-51 0 -108 -28 -108 -97v-349h-94v312c0 61 -2 134 -104 134c-51 0 -108 -28 -108 -97v-349h-94v517h92v-64s37 72 145 72c111 0 140 -75 140 -75s42 75 160 75c47 0 89 -11 119 -39c48 -43 50 -106 50 -152v-334z" />
    <glyph glyph-name="n" unicode="n" horiz-adv-x="535" 
d="M472 0h-93v312c0 59 -2 134 -107 134c-47 0 -109 -26 -109 -97v-349h-94v517h92v-64s38 72 146 72c54 0 91 -17 116 -40c48 -44 49 -110 49 -152v-333z" />
    <glyph glyph-name="o" unicode="o" horiz-adv-x="512" 
d="M475 264c0 -166 -72 -276 -223 -276c-131 0 -215 91 -215 261c0 166 72 276 223 276c131 0 215 -91 215 -261zM380 257c0 109 -28 196 -124 196c-87 0 -124 -69 -124 -197c0 -109 28 -196 124 -196c86 0 124 70 124 197z" />
    <glyph glyph-name="p" unicode="p" horiz-adv-x="527" 
d="M490 270c0 -224 -114 -278 -218 -278c-73 0 -109 37 -109 37v-259h-94v747h92v-63s35 71 134 71c132 0 195 -108 195 -255zM394 258c0 142 -48 189 -126 189c-63 0 -105 -36 -105 -97v-252s29 -35 95 -35c92 0 136 64 136 195z" />
    <glyph glyph-name="q" unicode="q" horiz-adv-x="526" 
d="M457 -230h-92v292c-14 -22 -53 -70 -134 -70c-132 0 -194 108 -194 254c0 225 114 279 218 279c74 0 111 -39 111 -39v31h91v-747zM364 167v251s-30 35 -96 35c-92 0 -136 -63 -136 -195c0 -141 48 -188 127 -188c62 0 105 36 105 97z" />
    <glyph glyph-name="r" unicode="r" horiz-adv-x="343" 
d="M343 507l-9 -84s-22 23 -74 23c-72 0 -97 -62 -97 -116v-330h-94v517h91v-73s30 81 115 81c45 0 68 -18 68 -18z" />
    <glyph glyph-name="s" unicode="s" horiz-adv-x="391" 
d="M358 142c0 -126 -103 -150 -178 -150c-98 0 -143 40 -143 40l-5 85s49 -55 145 -55c53 0 93 17 93 67c0 39 -15 53 -66 81l-56 31c-48 26 -103 60 -103 144c0 123 101 140 164 140c86 0 128 -38 128 -38v-82s-46 50 -124 50c-73 0 -81 -42 -81 -62c0 -46 25 -58 68 -80
l57 -29c53 -27 101 -62 101 -142z" />
    <glyph glyph-name="t" unicode="t" horiz-adv-x="316" 
d="M298 84l-4 -74s-27 -17 -83 -17c-44 0 -82 9 -108 47c-21 29 -23 65 -23 118v289h-54v69h54v92l93 22v-114h123v-69h-123v-298c0 -27 3 -47 11 -60c10 -15 26 -25 51 -25c45 0 63 20 63 20z" />
    <glyph glyph-name="u" unicode="u" horiz-adv-x="535" 
d="M466 4l-91 -8v68s-39 -72 -148 -72c-53 0 -89 15 -114 38c-48 44 -50 109 -50 153v334h94v-314c0 -61 1 -132 106 -132c47 0 110 26 110 97v349h93v-513z" />
    <glyph glyph-name="v" unicode="v" horiz-adv-x="442" 
d="M445 517l-178 -521h-95l-174 521h98l104 -333c15 -50 24 -95 24 -95s8 41 25 94l106 334h90z" />
    <glyph glyph-name="w" unicode="w" horiz-adv-x="726" 
d="M725 517l-160 -521h-97l-82 305l-24 96s-19 -76 -26 -100l-86 -301h-96l-151 521h97l84 -327c11 -41 21 -91 23 -103c3 14 14 69 24 103l92 327h92l86 -327c12 -45 20 -93 22 -105c3 17 14 68 24 105l90 327h88z" />
    <glyph glyph-name="x" unicode="x" horiz-adv-x="461" 
d="M453 0h-102l-127 198l-118 -198h-98l173 265l-162 252h105l116 -183l110 183h97l-163 -251z" />
    <glyph glyph-name="y" unicode="y" horiz-adv-x="442" 
d="M445 517l-204 -590c-33 -94 -73 -157 -175 -157c-46 0 -70 12 -70 12l-4 77s22 -16 65 -16c49 0 75 26 95 82l25 70l-179 522h98l105 -332c20 -62 23 -88 23 -88s7 35 23 85l108 335h90z" />
    <glyph glyph-name="z" unicode="z" horiz-adv-x="440" 
d="M405 68l-4 -68h-369v58l263 391h-244v68h354v-58l-263 -391h263z" />
    <glyph glyph-name="braceleft" unicode="{" horiz-adv-x="402" 
d="M341 758l-5 -67c-8 4 -24 10 -41 10c-55 0 -66 -36 -66 -91v-176c0 -60 -2 -129 -79 -158c73 -16 79 -88 79 -146v-198c0 -46 11 -92 71 -92c16 0 32 5 40 8l-5 -66c-10 -4 -37 -9 -62 -9c-103 0 -133 65 -133 136v206c0 73 -25 130 -95 130v61c65 0 95 45 95 132v172
c0 79 15 157 134 157c26 0 56 -5 67 -9z" />
    <glyph glyph-name="bar" unicode="|" horiz-adv-x="267" 
d="M180 -177h-94v947h94v-947z" />
    <glyph glyph-name="braceright" unicode="}" horiz-adv-x="402" 
d="M357 245c-70 0 -95 -57 -95 -130v-206c0 -71 -30 -136 -133 -136c-25 0 -52 5 -62 9l-5 66c8 -3 24 -8 40 -8c60 0 71 46 71 92v198c0 58 6 130 79 146c-77 29 -79 98 -79 158v176c0 55 -11 91 -66 91c-17 0 -33 -6 -41 -10l-5 67c11 4 41 9 67 9c119 0 134 -78 134 -157
v-172c0 -87 30 -132 95 -132v-61z" />
    <glyph glyph-name="asciitilde" unicode="~" horiz-adv-x="698" 
d="M684 447c0 0 -15 -68 -41 -115c-29 -52 -73 -72 -128 -72c-47 0 -96 19 -140 36l-78 30c-64 25 -90 29 -117 29c-36 0 -60 -11 -81 -40c-25 -35 -37 -82 -37 -82l-49 17s15 78 43 126c31 53 72 71 127 71c47 0 96 -19 140 -36l79 -30c64 -24 87 -29 115 -29
c30 0 60 10 82 37c27 32 37 73 37 73z" />
    <glyph glyph-name="exclamdown" unicode="&#xa1;" horiz-adv-x="271" 
d="M197 642c0 -38 -25 -65 -62 -65s-63 26 -63 64c0 40 23 68 62 68c38 0 63 -25 63 -67zM182 10l-96 -15l6 529h83z" />
    <glyph glyph-name="cent" unicode="&#xa2;" horiz-adv-x="525" 
d="M435 205l-6 -85s-32 -27 -102 -36v-92h-69v91c-88 9 -194 60 -194 261c0 124 46 254 194 270v87l69 11v-98c73 -8 105 -35 105 -35v-83s-34 39 -105 46v-387c72 5 108 50 108 50zM258 163v374c-49 -14 -99 -57 -99 -188c0 -92 26 -163 99 -186z" />
    <glyph glyph-name="sterling" unicode="&#xa3;" horiz-adv-x="522" 
d="M495 108l-5 -96s-24 -25 -98 -25c-37 0 -71 5 -103 12l-76 16c-21 4 -46 6 -70 6c-34 0 -76 -10 -104 -30l-30 61s34 18 52 41c28 35 49 92 63 244h-82v67h87c7 69 13 129 29 176c25 72 83 133 195 133c96 0 142 -41 142 -41v-95s-39 57 -130 57c-35 0 -85 -10 -108 -60
c-19 -39 -23 -87 -32 -170h175v-67h-179c-12 -122 -31 -172 -56 -206c-18 -23 -34 -41 -44 -50c13 7 50 14 77 14c25 0 48 -3 67 -7l73 -16c11 -2 35 -6 58 -6c62 0 99 42 99 42z" />
    <glyph glyph-name="fraction" unicode="&#x2044;" 
d="M577 703l-509 -703h-79l511 703h77z" />
    <glyph glyph-name="yen" unicode="&#xa5;" horiz-adv-x="521" 
d="M524 703l-182 -342h114v-64h-148v-86h148v-65h-148v-146h-96v146h-146v65h146v86h-146v64h109l-176 342h108l157 -328l162 328h98z" />
    <glyph glyph-name="florin" unicode="&#x192;" horiz-adv-x="498" 
d="M457 752l-15 -78s-22 23 -65 23c-25 0 -45 -9 -57 -25s-16 -42 -22 -88l-9 -73h105l-8 -72h-105l-60 -492c-6 -51 -19 -106 -52 -138c-29 -28 -67 -38 -110 -38c-27 0 -70 7 -85 15l-5 82s33 -22 78 -22c31 0 50 10 61 30c8 14 13 34 16 56l62 507h-59l9 72h58l13 99
c6 46 22 94 51 122c28 27 67 38 110 38c39 0 73 -10 89 -18z" />
    <glyph glyph-name="section" unicode="&#xa7;" horiz-adv-x="558" 
d="M478 317c0 -117 -98 -166 -126 -183c2 -1 17 -12 17 -12c35 -24 63 -61 63 -129c0 -89 -72 -150 -175 -150c-106 0 -149 42 -149 42v87s49 -55 143 -55c56 0 88 27 88 71c0 40 -19 60 -55 83l-101 65c-41 26 -103 76 -103 165c0 111 89 159 128 176c-2 1 -18 13 -18 13
c-31 23 -63 60 -63 128c0 84 66 152 177 152c100 0 141 -40 141 -40v-88s-48 54 -136 54c-58 0 -89 -30 -89 -73c0 -38 20 -60 57 -84l102 -67c41 -27 99 -66 99 -155zM386 301c0 50 -30 82 -75 110l-43 27c-31 -14 -96 -48 -96 -125c0 -49 29 -82 83 -116l38 -24
c30 18 93 53 93 128z" />
    <glyph glyph-name="currency" unicode="&#xa4;" horiz-adv-x="521" 
d="M507 120l-6 -95s-52 -34 -150 -34c-163 0 -243 108 -263 244h-85l14 67h67c-1 13 -1 29 -1 41c0 14 0 28 1 42h-69l14 66h60c11 64 32 119 69 167c48 61 117 94 203 94c95 0 146 -41 146 -41v-95s-47 56 -144 56c-95 0 -159 -61 -179 -181h251l-13 -66h-244
c-1 -13 -1 -27 -1 -39c0 -14 1 -31 2 -44h227c-4 -23 -9 -45 -13 -67h-209c19 -108 77 -166 178 -166c91 0 145 51 145 51z" />
    <glyph glyph-name="quotesingle" unicode="'" horiz-adv-x="170" 
d="M126 703l-12 -216h-58l-12 216h82z" />
    <glyph glyph-name="quotedblleft" unicode="&#x201c;" horiz-adv-x="405" 
d="M370 750c-26 -67 -40 -128 -40 -202v-32h-102c0 15 0 30 1 45c5 78 38 158 69 213c24 -9 48 -16 72 -24zM187 750c-26 -67 -40 -128 -40 -202v-32h-102c0 15 0 30 1 45c5 78 38 158 69 213c24 -9 48 -16 72 -24z" />
    <glyph glyph-name="guillemotleft" unicode="&#xab;" horiz-adv-x="463" 
d="M426 54h-82l-105 198l105 199h82l-93 -198zM233 54h-82l-105 198l105 199h82l-93 -198z" />
    <glyph glyph-name="guilsinglleft" unicode="&#x2039;" horiz-adv-x="270" 
d="M233 54h-82l-105 198l105 199h82l-93 -198z" />
    <glyph glyph-name="guilsinglright" unicode="&#x203a;" horiz-adv-x="275" 
d="M229 253l-105 -199h-87l93 198l-93 199h87z" />
    <glyph glyph-name="fi" unicode="&#xfb01;" horiz-adv-x="510" 
d="M450 686c0 -39 -25 -53 -54 -53c-39 0 -53 19 -53 51v8s-10 9 -61 9s-77 -19 -91 -46c-10 -20 -11 -46 -11 -65v-74h261v-516h-94v447h-167v-447h-93v447h-54v69h54v70c0 40 6 86 34 122s78 62 158 62c56 0 106 -10 136 -28c24 -15 35 -31 35 -56z" />
    <glyph glyph-name="fl" unicode="&#xfb02;" horiz-adv-x="515" 
d="M445 0h-93v685c-19 9 -43 15 -75 15c-49 0 -74 -18 -87 -45c-9 -19 -10 -44 -10 -64v-76h102v-68h-102v-447h-93v447h-54v68h54v77c0 42 8 85 36 119c27 33 72 59 148 59c36 0 73 -7 98 -14l76 14v-770z" />
    <glyph glyph-name="endash" unicode="&#x2013;" 
d="M500 231h-500v72h500v-72z" />
    <glyph glyph-name="dagger" unicode="&#x2020;" horiz-adv-x="480" 
d="M436 440l-168 27l26 -146v-96l-27 -374h-47l-34 374v95l27 147l-169 -27v104l169 -27l-30 186h115l-30 -186l168 27v-104z" />
    <glyph glyph-name="daggerdbl" unicode="&#x2021;" horiz-adv-x="480" 
d="M436 17l-168 27l30 -193h-116l30 193l-168 -27v104l168 -27l-26 150v79l27 144l-169 -27v104l169 -27l-30 186h115l-30 -186l168 27v-104l-168 27l26 -143v-80l-26 -150l168 27v-104z" />
    <glyph glyph-name="periodcentered" unicode="&#xb7;" horiz-adv-x="234" 
d="M190 302c0 -46 -28 -78 -72 -78s-73 28 -73 77c0 46 29 76 72 76c41 0 73 -30 73 -75z" />
    <glyph glyph-name="paragraph" unicode="&#xb6;" horiz-adv-x="423" 
d="M379 703c-2 -24 -3 -48 -4 -72h-54v-626c0 -37 -4 -70 -16 -95c-21 -44 -67 -67 -135 -67c-33 0 -68 8 -85 16l-5 75c19 -10 47 -23 83 -23c57 0 74 29 74 88v316h-16c-114 0 -194 81 -194 191c0 125 87 197 234 197h118z" />
    <glyph glyph-name="bullet" unicode="&#x2022;" horiz-adv-x="518" 
d="M413 292c0 -86 -71 -156 -154 -156c-86 0 -154 70 -154 156c0 85 68 155 154 155c83 0 154 -70 154 -155z" />
    <glyph glyph-name="quotesinglbase" unicode="&#x201a;" horiz-adv-x="205" 
d="M159 98c0 -82 -34 -177 -70 -241l-72 25c25 62 41 118 41 183v49h101v-16z" />
    <glyph glyph-name="quotedblbase" unicode="&#x201e;" horiz-adv-x="388" 
d="M342 98c0 -82 -34 -177 -70 -241l-72 25c25 62 41 118 41 183v49h101v-16zM159 98c0 -82 -34 -177 -70 -241l-72 25c25 62 41 118 41 183v49h101v-16z" />
    <glyph glyph-name="quotedblright" unicode="&#x201d;" horiz-adv-x="402" 
d="M368 770c0 -15 0 -30 -1 -45c-5 -78 -38 -158 -69 -213c-24 9 -48 16 -72 24c26 67 40 128 40 202v32h102zM185 770c0 -15 0 -30 -1 -45c-5 -78 -38 -158 -69 -213c-24 9 -48 16 -72 24c26 67 40 128 40 202v32h102z" />
    <glyph glyph-name="guillemotright" unicode="&#xbb;" horiz-adv-x="468" 
d="M422 253l-105 -199h-87l93 198l-93 199h87zM229 253l-105 -199h-87l93 198l-93 199h87z" />
    <glyph glyph-name="ellipsis" unicode="&#x2026;" horiz-adv-x="828" 
d="M775 57c0 -42 -25 -71 -66 -71c-40 0 -66 26 -66 70c0 42 26 70 65 70c38 0 67 -27 67 -69zM484 57c0 -42 -25 -71 -66 -71c-40 0 -66 26 -66 70c0 42 26 70 65 70c38 0 67 -27 67 -69zM185 57c0 -42 -25 -71 -66 -71c-40 0 -66 26 -66 70c0 42 26 70 65 70
c38 0 67 -27 67 -69z" />
    <glyph glyph-name="perthousand" unicode="&#x2030;" horiz-adv-x="982" 
d="M982 157c0 -95 -64 -167 -163 -167c-96 0 -160 63 -160 157c0 100 62 166 164 166c95 0 159 -61 159 -156zM323 557c0 -95 -64 -167 -163 -167c-96 0 -160 63 -160 157c0 100 62 166 164 166c97 0 159 -60 159 -156zM589 705l-482 -705h-79l482 705h79zM618 157
c0 -95 -64 -167 -162 -167c-97 0 -161 63 -161 157c0 100 62 166 164 166c96 0 159 -61 159 -156zM904 153c0 55 -24 101 -84 101c-59 0 -82 -47 -82 -103c0 -54 22 -100 80 -100c59 0 86 46 86 102zM245 553c0 55 -24 102 -84 102c-59 0 -82 -49 -82 -104
c0 -54 22 -100 80 -100c59 0 86 47 86 102zM540 153c0 55 -24 101 -83 101c-60 0 -83 -47 -83 -103c0 -54 22 -100 81 -100c58 0 85 46 85 102z" />
    <glyph glyph-name="questiondown" unicode="&#xbf;" horiz-adv-x="443" 
d="M325 642c0 -38 -24 -65 -62 -65c-37 0 -63 26 -63 64c0 40 23 68 62 68s63 -25 63 -67zM401 28c0 0 -61 -43 -168 -43c-109 0 -199 55 -199 179c0 60 21 114 80 170l63 60c36 34 42 52 42 94v35h87v-47c0 -47 -11 -79 -47 -115l-70 -69c-40 -39 -60 -74 -60 -124
c0 -59 41 -105 123 -105c89 0 149 59 149 59v-94z" />
    <glyph glyph-name="grave" unicode="`" 
d="M361 633l-33 -50l-193 109l44 69z" />
    <glyph glyph-name="acute" unicode="&#xb4;" 
d="M356 692l-192 -109l-33 50l181 128z" />
    <glyph glyph-name="circumflex" unicode="&#x2c6;" 
d="M410 631l-37 -48l-127 85l-127 -85l-37 48l164 133z" />
    <glyph glyph-name="tilde" unicode="&#x2dc;" 
d="M426 687c0 0 -21 -82 -94 -82c-18 0 -31 3 -53 13l-25 11c-21 9 -29 10 -38 10c-34 0 -46 -34 -46 -34l-46 28s23 81 94 81c17 0 30 -3 52 -13l25 -11c20 -9 29 -10 38 -10c34 0 46 35 46 35z" />
    <glyph glyph-name="macron" unicode="&#xaf;" 
d="M394 619h-288v73h288v-73z" />
    <glyph glyph-name="breve" unicode="&#x2d8;" 
d="M420 703c0 0 -49 -108 -170 -108c-126 0 -169 107 -169 107l57 36s38 -73 115 -73c78 0 112 72 112 72z" />
    <glyph glyph-name="dotaccent" unicode="&#x2d9;" 
d="M308 657c0 -35 -24 -58 -59 -58c-33 0 -57 23 -57 56c0 37 24 60 59 60c33 0 57 -23 57 -58z" />
    <glyph glyph-name="dieresis" unicode="&#xa8;" 
d="M394 662c0 -32 -21 -53 -53 -53c-28 0 -50 20 -50 52s21 52 52 52c29 0 51 -19 51 -51zM212 662c0 -32 -21 -53 -52 -53c-29 0 -51 20 -51 52s21 52 53 52c28 0 50 -19 50 -51z" />
    <glyph glyph-name="ring" unicode="&#x2da;" 
d="M335 661c0 -68 -50 -109 -112 -109c-57 0 -110 35 -110 111c0 67 50 108 112 108c57 0 110 -34 110 -110zM280 661c0 43 -26 61 -56 61c-29 0 -56 -19 -56 -59c0 -43 26 -61 56 -61c29 0 56 19 56 59z" />
    <glyph glyph-name="cedilla" unicode="&#xb8;" horiz-adv-x="560" 
d="M232 -127c0 -51 -34 -91 -96 -91c-31 0 -52 11 -52 11l-4 59s20 -16 48 -16c18 0 38 9 38 37c0 22 -17 33 -29 42c-17 13 -31 25 -31 58c0 22 4 27 4 27h58v-16c0 -21 9 -24 25 -38s39 -32 39 -73z" />
    <glyph glyph-name="hungarumlaut" unicode="&#x2dd;" 
d="M465 692l-192 -109l-33 50l181 128zM249 692l-193 -109l-33 50l182 128z" />
    <glyph glyph-name="ogonek" unicode="&#x2db;" 
d="M332 -137l-4 -63c-16 -9 -43 -18 -71 -18c-66 0 -98 38 -98 88c0 64 55 113 91 140h69c-46 -40 -85 -82 -85 -127c0 -25 13 -38 38 -38c20 0 40 7 60 18z" />
    <glyph glyph-name="caron" unicode="&#x2c7;" 
d="M410 716l-164 -132l-164 132l39 49l126 -86l126 86z" />
    <glyph glyph-name="emdash" unicode="&#x2014;" horiz-adv-x="1000" 
d="M1000 231h-1000v72h1000v-72z" />
    <glyph glyph-name="AE" unicode="&#xc6;" horiz-adv-x="779" 
d="M758 80l-4 -80h-366v316h-146l-145 -316h-101l333 703h411v-80h-255v-233h212v-79h-212v-231h273zM388 390v261c-4 -15 -13 -40 -21 -57l-93 -204h114z" />
    <glyph glyph-name="ordfeminine" unicode="&#xaa;" horiz-adv-x="370" 
d="M315 322l-72 -6v51s-21 -53 -101 -53c-82 0 -114 56 -114 115c0 118 104 124 169 127l41 2v28c0 29 -8 67 -73 67c-64 0 -98 -41 -98 -41v69s36 31 119 31c126 0 129 -73 129 -124v-266zM239 443v64l-41 -4c-52 -5 -92 -15 -92 -70c0 -27 13 -59 63 -59c41 0 70 30 70 69
z" />
    <glyph glyph-name="Lslash" unicode="&#x141;" horiz-adv-x="441" 
d="M426 80l-4 -80h-349v282l-77 -43l4 77l73 41v346h96v-302l181 102l-3 -76l-178 -101v-246h257z" />
    <glyph glyph-name="Oslash" unicode="&#xd8;" horiz-adv-x="644" 
d="M609 364c0 -241 -109 -375 -286 -375c-62 0 -116 14 -159 42l-45 -74h-73l70 115c-53 59 -81 148 -81 265c0 241 108 376 285 376c63 0 116 -15 160 -44l38 62h75l-64 -104c52 -59 80 -148 80 -263zM436 596c-30 27 -68 40 -115 40c-119 0 -187 -93 -187 -288
c0 -81 11 -145 34 -191zM510 353c0 80 -11 142 -33 188l-268 -438c29 -26 67 -38 113 -38c119 0 188 93 188 288z" />
    <glyph glyph-name="OE" unicode="&#x152;" horiz-adv-x="827" 
d="M806 79c-2 -26 -3 -53 -4 -79h-363c-22 -4 -68 -11 -109 -11c-190 0 -295 119 -295 347c0 241 103 380 297 380c52 0 85 -7 108 -13h348v-80h-255v-222h212v-80h-212v-242h273zM436 81v538c-22 10 -52 19 -102 19c-140 0 -200 -96 -200 -290c0 -191 62 -283 196 -283
c54 0 81 6 106 16z" />
    <glyph glyph-name="ordmasculine" unicode="&#xba;" horiz-adv-x="418" 
d="M378 519c0 -125 -56 -206 -170 -206c-99 0 -163 67 -163 195c0 124 56 204 169 204c99 0 164 -66 164 -193zM298 514c0 76 -19 139 -87 139c-60 0 -86 -51 -86 -140c0 -77 19 -140 87 -140c60 0 86 51 86 141z" />
    <glyph glyph-name="ae" unicode="&#xe6;" horiz-adv-x="760" 
d="M726 247h-321v-8c0 -100 32 -177 158 -177c93 0 139 51 139 51l-6 -84s-43 -38 -157 -38c-146 0 -178 89 -178 89s-34 -87 -167 -87c-129 0 -160 89 -160 153c0 157 136 164 220 168l61 3v41c0 39 -1 97 -101 97c-88 0 -129 -51 -129 -51v80s42 40 152 40
c104 0 133 -52 145 -65c13 13 57 66 146 66c175 0 198 -146 198 -262v-16zM632 314c0 70 -16 145 -108 145c-105 0 -118 -104 -118 -145h226zM316 160v96l-60 -5c-74 -6 -129 -21 -129 -100c0 -37 17 -85 89 -85c57 0 100 40 100 94z" />
    <glyph glyph-name="dotlessi" unicode="&#x131;" horiz-adv-x="235" 
d="M164 0h-94v517h94v-517z" />
    <glyph glyph-name="lslash" unicode="&#x142;" horiz-adv-x="235" 
d="M243 515l-3 -79l-76 -58v-378h-94v325l-68 -51l4 80l64 48v354l94 14v-316z" />
    <glyph glyph-name="oslash" unicode="&#xf8;" horiz-adv-x="512" 
d="M475 264c0 -166 -73 -275 -223 -275c-42 0 -78 9 -110 25l-36 -60h-66l58 96c-40 44 -62 110 -62 199c0 166 72 275 223 275c41 0 77 -9 107 -26l34 56h68l-56 -92c40 -44 63 -111 63 -198zM324 430c-17 15 -39 23 -69 23c-86 0 -123 -70 -123 -197c0 -44 5 -87 19 -120z
M379 257c0 44 -6 87 -20 119l-174 -295c18 -14 41 -22 70 -22c87 0 124 70 124 198z" />
    <glyph glyph-name="oe" unicode="&#x153;" horiz-adv-x="827" 
d="M793 247h-321c0 -106 28 -185 158 -185c93 0 140 51 140 51l-6 -84s-43 -38 -155 -38c-71 0 -149 21 -187 97c-31 -59 -85 -100 -174 -100c-127 0 -211 91 -211 261c0 166 73 276 220 276c81 0 137 -39 167 -101c32 62 87 101 173 101c173 0 196 -146 196 -262v-16z
M700 314c0 70 -17 145 -109 145c-105 0 -117 -104 -117 -145h226zM380 257c0 109 -28 196 -124 196c-87 0 -124 -69 -124 -197c0 -109 28 -196 124 -196c86 0 124 70 124 197z" />
    <glyph glyph-name="germandbls" unicode="&#xdf;" horiz-adv-x="571" 
d="M541 143c0 -121 -103 -151 -175 -151c-96 0 -136 40 -136 40l-5 85s41 -55 138 -55c49 0 89 20 89 68c0 34 -14 53 -61 79l-54 30c-70 39 -95 79 -95 140c0 73 44 107 79 134c36 28 70 54 70 103c0 65 -51 82 -115 82c-45 0 -79 -15 -95 -39c-17 -25 -18 -49 -18 -90
v-569h-94v565c0 54 2 113 54 159c47 41 115 46 153 46c98 0 209 -19 209 -146c0 -75 -40 -110 -77 -139c-42 -32 -79 -50 -79 -97c0 -39 17 -53 62 -77l53 -28c53 -28 97 -65 97 -140z" />
    <glyph glyph-name="Eth" unicode="&#xd0;" horiz-adv-x="631" 
d="M597 362c0 -158 -47 -271 -156 -326c-65 -32 -136 -36 -225 -36h-147v323h-68v70h68v310h161c119 0 178 -7 236 -43c88 -54 131 -161 131 -298zM498 353c0 125 -35 212 -104 248c-32 17 -67 24 -141 24h-87v-232h170l-3 -70h-167v-245h76c70 0 114 7 150 27
c70 37 106 126 106 248z" />
    <glyph glyph-name="eth" unicode="&#xf0;" horiz-adv-x="508" 
d="M480 716l-69 -48c48 -80 55 -193 55 -315c0 -293 -96 -362 -224 -362c-90 0 -206 42 -206 259c0 218 120 269 212 269c89 0 123 -43 123 -43c-1 50 -9 102 -31 143l-70 -48l-34 52l63 43c-25 19 -59 31 -103 31c-74 0 -125 -41 -125 -41v80s48 34 133 34
c76 0 128 -20 166 -54l76 53zM372 350c0 24 -2 46 -2 51c0 0 -33 47 -104 47c-113 0 -135 -97 -135 -193c0 -107 23 -193 116 -193c97 0 125 72 125 288z" />
    <glyph glyph-name="Scaron" unicode="&#x160;" horiz-adv-x="463" 
d="M429 190c0 -122 -76 -199 -223 -199c-117 0 -173 45 -173 45l-6 97s57 -63 174 -63c83 0 133 37 133 110c0 61 -24 82 -81 116l-84 50c-60 36 -129 74 -129 184c0 103 61 182 209 182c105 0 157 -43 157 -43v-93s-53 57 -157 57c-77 0 -115 -32 -115 -95
c0 -62 39 -85 89 -114l82 -48c62 -36 124 -79 124 -186zM400 881l-164 -132l-164 132l39 49l126 -86l126 86z" />
    <glyph glyph-name="scaron" unicode="&#x161;" horiz-adv-x="391" 
d="M358 142c0 -126 -103 -150 -178 -150c-98 0 -143 40 -143 40l-5 85s49 -55 145 -55c53 0 93 17 93 67c0 39 -15 53 -66 81l-56 31c-48 26 -103 60 -103 144c0 123 101 140 164 140c86 0 128 -38 128 -38v-82s-46 50 -124 50c-73 0 -81 -42 -81 -62c0 -46 25 -58 68 -80
l57 -29c53 -27 101 -62 101 -142zM364 716l-164 -132l-164 132l39 49l126 -86l126 86z" />
    <glyph glyph-name="Yacute" unicode="&#xdd;" horiz-adv-x="557" 
d="M565 703l-238 -429v-274h-97v270l-232 433h110l174 -344l181 344h102zM423 862l-192 -109l-33 50l181 128z" />
    <glyph glyph-name="yacute" unicode="&#xfd;" horiz-adv-x="442" 
d="M445 517l-204 -590c-33 -94 -73 -157 -175 -157c-46 0 -70 12 -70 12l-4 77s22 -16 65 -16c49 0 75 26 95 82l25 70l-179 522h98l105 -332c20 -62 23 -88 23 -88s7 35 23 85l108 335h90zM351 692l-192 -109l-33 50l181 128z" />
    <glyph glyph-name="Thorn" unicode="&#xde;" horiz-adv-x="506" 
d="M482 411c0 -211 -170 -228 -249 -228h-67v-183h-97v703h97v-91h61c85 0 134 -9 175 -34c53 -33 80 -94 80 -167zM383 403c0 132 -89 137 -161 137h-56v-285h53c81 0 164 12 164 148z" />
    <glyph glyph-name="thorn" unicode="&#xfe;" horiz-adv-x="526" 
d="M490 270c0 -224 -114 -278 -218 -278c-73 0 -109 37 -109 37v-259h-94v985l92 15v-316s35 71 134 71c132 0 195 -108 195 -255zM394 258c0 142 -48 189 -126 189c-63 0 -105 -36 -105 -97v-252s29 -35 95 -35c92 0 136 64 136 195z" />
    <glyph glyph-name="CR" 
 />
    <glyph glyph-name="Zcaron" unicode="&#x17d;" horiz-adv-x="552" 
d="M518 635l-368 -555h364l-4 -80h-478v68l365 555h-337v80h458v-68zM455 881l-164 -132l-164 132l39 49l126 -86l126 86z" />
    <glyph glyph-name="zcaron" unicode="&#x17e;" horiz-adv-x="441" 
d="M405 68l-4 -68h-369v58l263 391h-244v68h354v-58l-263 -391h263zM396 716l-164 -132l-164 132l39 49l126 -86l126 86z" />
    <glyph glyph-name="onehalf" unicode="&#xbd;" horiz-adv-x="727" 
d="M705 0h-270v59s77 69 125 123c50 58 62 85 62 120c0 32 -17 65 -71 65c-61 0 -102 -39 -102 -39v74s46 28 113 28c107 0 140 -60 140 -121c0 -57 -22 -95 -86 -162c-54 -55 -84 -80 -84 -80h173v-67zM614 703l-509 -703h-79l511 703h77zM180 283h-78v330l-97 -18v64
c35 6 89 23 116 44h59v-420z" />
    <glyph glyph-name="onequarter" unicode="&#xbc;" horiz-adv-x="727" 
d="M692 88h-45v-88h-74v88h-197v64l199 276h72v-280h45v-60zM648 703l-509 -703h-79l511 703h77zM190 283h-78v330l-97 -18v64c35 6 89 23 116 44h59v-420zM573 148v192s-4 -15 -24 -42l-111 -150h135z" />
    <glyph glyph-name="onesuperior" unicode="&#xb9;" horiz-adv-x="292" 
d="M209 283h-78v330l-97 -18v64c35 6 89 23 116 44h59v-420z" />
    <glyph glyph-name="threequarters" unicode="&#xbe;" horiz-adv-x="727" 
d="M712 88h-45v-88h-74v88h-197v64l199 276h72v-280h45v-60zM687 703l-509 -703h-79l511 703h77zM279 401c0 -97 -81 -126 -155 -126c-71 0 -106 27 -106 27l-3 69s43 -36 102 -36c53 0 85 20 85 64c0 56 -45 73 -106 73h-10v56h11c47 0 89 17 89 69c0 38 -24 57 -67 57
c-55 0 -93 -33 -93 -33v66s41 26 107 26c85 0 130 -38 130 -106c0 -85 -88 -103 -88 -103c67 -4 104 -42 104 -103zM593 148v192s-4 -15 -24 -42l-111 -150h135z" />
    <glyph glyph-name="threesuperior" unicode="&#xb3;" horiz-adv-x="352" 
d="M302 401c0 -97 -81 -126 -155 -126c-71 0 -106 27 -106 27l-3 69s43 -36 102 -36c53 0 85 20 85 64c0 56 -45 73 -106 73h-10v56h11c47 0 89 17 89 69c0 38 -24 57 -67 57c-55 0 -93 -33 -93 -33v66s41 26 107 26c85 0 130 -38 130 -106c0 -81 -80 -101 -88 -103
c67 -4 104 -42 104 -103z" />
    <glyph glyph-name="twosuperior" unicode="&#xb2;" horiz-adv-x="352" 
d="M302 283h-270v59s77 69 125 123c50 58 62 85 62 120c0 32 -17 65 -71 65c-61 0 -102 -39 -102 -39v74s46 28 113 28c107 0 140 -60 140 -121c0 -57 -22 -95 -86 -162c-54 -55 -84 -80 -84 -80h173v-67z" />
    <glyph glyph-name="brokenbar" unicode="&#xa6;" horiz-adv-x="530" 
d="M310 349h-93v354h93v-354zM310 -177h-93v339h93v-339z" />
    <glyph glyph-name="minus" unicode="&#x2212;" horiz-adv-x="640" 
d="M617 316h-594v70h594v-70z" />
    <glyph glyph-name="multiply" unicode="&#xd7;" horiz-adv-x="546" 
d="M525 146l-52 -50l-200 204l-200 -203l-52 48l201 204l-198 202l51 52l199 -202l197 201l51 -50l-198 -201z" />
    <glyph glyph-name="Adieresis" unicode="&#xc4;" horiz-adv-x="576" 
d="M576 0h-100l-75 233h-235l-76 -233h-92l238 705h109zM378 308l-69 219c-16 50 -24 94 -24 94s-9 -39 -26 -92l-70 -221h189zM429 832c0 -32 -21 -53 -53 -53c-28 0 -50 20 -50 52s21 52 52 52c29 0 51 -19 51 -51zM247 832c0 -32 -21 -53 -52 -53c-29 0 -51 20 -51 52
s21 52 53 52c28 0 50 -19 50 -51z" />
    <glyph glyph-name="Aring" unicode="&#xc5;" horiz-adv-x="576" 
d="M576 0h-100l-75 233h-235l-76 -233h-92l238 705h109zM378 308l-69 219c-16 50 -24 94 -24 94s-9 -39 -26 -92l-70 -221h189zM403 836c0 -68 -50 -109 -112 -109c-57 0 -110 35 -110 111c0 67 50 108 112 108c57 0 110 -34 110 -110zM348 836c0 43 -26 61 -56 61
c-29 0 -56 -19 -56 -59c0 -43 26 -61 56 -61c29 0 56 19 56 59z" />
    <glyph glyph-name="Ccedilla" unicode="&#xc7;" horiz-adv-x="560" 
d="M537 134l-6 -96s-49 -42 -168 -47v-7c0 -21 9 -24 25 -38s39 -32 39 -73c0 -51 -34 -91 -96 -91c-31 0 -52 11 -52 11l-4 59s20 -16 48 -16c18 0 38 9 38 37c0 22 -17 33 -29 42c-17 13 -31 25 -31 58c0 9 1 16 2 20c-191 17 -268 165 -268 345c0 86 15 168 49 228
c55 97 148 146 271 146c119 0 180 -43 180 -43v-94s-54 58 -173 58c-142 0 -229 -92 -229 -280c0 -181 74 -283 225 -283c123 0 179 64 179 64z" />
    <glyph glyph-name="Eacute" unicode="&#xc9;" horiz-adv-x="460" 
d="M439 80l-4 -80h-366v703h352v-80h-255v-222h212v-79h-212v-242h273zM370 862l-192 -109l-33 50l181 128z" />
    <glyph glyph-name="Ntilde" unicode="&#xd1;" horiz-adv-x="634" 
d="M565 0h-93l-266 450c-42 72 -51 108 -51 108v-558h-86v703h99l253 -433c42 -72 58 -123 58 -123v556h86v-703zM473 857c0 0 -21 -82 -94 -82c-18 0 -31 3 -53 13l-25 11c-21 9 -29 10 -38 10c-34 0 -46 -34 -46 -34l-46 28s23 81 94 81c17 0 30 -3 52 -13l25 -11
c20 -9 29 -10 38 -10c34 0 46 35 46 35z" />
    <glyph glyph-name="Odieresis" unicode="&#xd6;" horiz-adv-x="644" 
d="M609 364c0 -241 -109 -375 -286 -375c-181 0 -288 122 -288 348c0 241 108 376 285 376c181 0 289 -123 289 -349zM510 353c0 192 -65 282 -189 282c-119 0 -187 -92 -187 -287c0 -192 64 -282 188 -282c119 0 188 92 188 287zM465 832c0 -32 -21 -53 -53 -53
c-28 0 -50 20 -50 52s21 52 52 52c29 0 51 -19 51 -51zM283 832c0 -32 -21 -53 -52 -53c-29 0 -51 20 -51 52s21 52 53 52c28 0 50 -19 50 -51z" />
    <glyph glyph-name="Udieresis" unicode="&#xdc;" horiz-adv-x="628" 
d="M563 298c0 -112 -2 -176 -45 -232c-42 -54 -110 -76 -200 -76c-94 0 -160 20 -203 69c-44 49 -50 119 -50 216v428h96v-459c0 -82 7 -177 153 -177c155 0 158 96 158 184v452h91v-405zM462 832c0 -32 -21 -53 -53 -53c-28 0 -50 20 -50 52s21 52 52 52
c29 0 51 -19 51 -51zM280 832c0 -32 -21 -53 -52 -53c-29 0 -51 20 -51 52s21 52 53 52c28 0 50 -19 50 -51z" />
    <glyph glyph-name="aacute" unicode="&#xe1;" horiz-adv-x="472" 
d="M407 4l-89 -8v67s-31 -70 -137 -70c-104 0 -147 75 -147 153c0 157 136 164 220 168l61 3v41c0 39 -1 97 -101 97c-88 0 -129 -51 -129 -51v80s42 40 152 40c165 0 170 -98 170 -166v-354zM316 160v96l-60 -5c-74 -6 -129 -21 -129 -100c0 -37 17 -85 89 -85
c57 0 100 40 100 94zM356 692l-192 -109l-33 50l181 128z" />
    <glyph glyph-name="agrave" unicode="&#xe0;" horiz-adv-x="472" 
d="M407 4l-89 -8v67s-31 -70 -137 -70c-104 0 -147 75 -147 153c0 157 136 164 220 168l61 3v41c0 39 -1 97 -101 97c-88 0 -129 -51 -129 -51v80s42 40 152 40c165 0 170 -98 170 -166v-354zM316 160v96l-60 -5c-74 -6 -129 -21 -129 -100c0 -37 17 -85 89 -85
c57 0 100 40 100 94zM361 633l-33 -50l-193 109l44 69z" />
    <glyph glyph-name="acircumflex" unicode="&#xe2;" horiz-adv-x="472" 
d="M407 4l-89 -8v67s-31 -70 -137 -70c-104 0 -147 75 -147 153c0 157 136 164 220 168l61 3v41c0 39 -1 97 -101 97c-88 0 -129 -51 -129 -51v80s42 40 152 40c165 0 170 -98 170 -166v-354zM316 160v96l-60 -5c-74 -6 -129 -21 -129 -100c0 -37 17 -85 89 -85
c57 0 100 40 100 94zM403 631l-37 -48l-127 85l-127 -85l-37 48l164 133z" />
    <glyph glyph-name="adieresis" unicode="&#xe4;" horiz-adv-x="472" 
d="M407 4l-89 -8v67s-31 -70 -137 -70c-104 0 -147 75 -147 153c0 157 136 164 220 168l61 3v41c0 39 -1 97 -101 97c-88 0 -129 -51 -129 -51v80s42 40 152 40c165 0 170 -98 170 -166v-354zM316 160v96l-60 -5c-74 -6 -129 -21 -129 -100c0 -37 17 -85 89 -85
c57 0 100 40 100 94zM380 662c0 -32 -21 -53 -53 -53c-28 0 -50 20 -50 52s21 52 52 52c29 0 51 -19 51 -51zM198 662c0 -32 -21 -53 -52 -53c-29 0 -51 20 -51 52s21 52 53 52c28 0 50 -19 50 -51z" />
    <glyph glyph-name="atilde" unicode="&#xe3;" horiz-adv-x="472" 
d="M407 4l-89 -8v67s-31 -70 -137 -70c-104 0 -147 75 -147 153c0 157 136 164 220 168l61 3v41c0 39 -1 97 -101 97c-88 0 -129 -51 -129 -51v80s42 40 152 40c165 0 170 -98 170 -166v-354zM316 160v96l-60 -5c-74 -6 -129 -21 -129 -100c0 -37 17 -85 89 -85
c57 0 100 40 100 94zM389 687c0 0 -21 -82 -94 -82c-18 0 -31 3 -53 13l-25 11c-21 9 -29 10 -38 10c-34 0 -46 -34 -46 -34l-46 28s23 81 94 81c17 0 30 -3 52 -13l25 -11c20 -9 29 -10 38 -10c34 0 46 35 46 35z" />
    <glyph glyph-name="aring" unicode="&#xe5;" horiz-adv-x="472" 
d="M407 4l-89 -8v67s-31 -70 -137 -70c-104 0 -147 75 -147 153c0 157 136 164 220 168l61 3v41c0 39 -1 97 -101 97c-88 0 -129 -51 -129 -51v80s42 40 152 40c165 0 170 -98 170 -166v-354zM316 160v96l-60 -5c-74 -6 -129 -21 -129 -100c0 -37 17 -85 89 -85
c57 0 100 40 100 94zM346 661c0 -68 -50 -109 -112 -109c-57 0 -110 35 -110 111c0 67 50 108 112 108c57 0 110 -34 110 -110zM291 661c0 43 -26 61 -56 61c-29 0 -56 -19 -56 -59c0 -43 26 -61 56 -61c29 0 56 19 56 59z" />
    <glyph glyph-name="ccedilla" unicode="&#xe7;" horiz-adv-x="432" 
d="M408 114l-6 -85s-36 -34 -126 -38v-7c0 -21 9 -24 25 -38s39 -32 39 -73c0 -51 -34 -91 -96 -91c-31 0 -52 11 -52 11l-4 59s20 -16 48 -16c18 0 38 9 38 37c0 22 -17 33 -29 42c-17 13 -31 25 -31 58c0 10 1 17 2 21c-84 13 -179 69 -179 259c0 132 51 272 224 272
c103 0 144 -37 144 -37v-83s-39 47 -125 47c-56 0 -148 -15 -148 -194c0 -113 37 -194 155 -194c82 0 121 50 121 50z" />
    <glyph glyph-name="eacute" unicode="&#xe9;" horiz-adv-x="487" 
d="M452 247h-321c0 -106 28 -185 158 -185c93 0 140 51 140 51l-6 -84s-43 -38 -158 -38c-103 0 -228 40 -228 262c0 159 68 272 218 272c174 0 197 -146 197 -262v-16zM359 314c0 70 -16 145 -108 145c-106 0 -118 -104 -118 -145h226zM361 692l-192 -109l-33 50l181 128z
" />
    <glyph glyph-name="egrave" unicode="&#xe8;" horiz-adv-x="487" 
d="M452 247h-321c0 -106 28 -185 158 -185c93 0 140 51 140 51l-6 -84s-43 -38 -158 -38c-103 0 -228 40 -228 262c0 159 68 272 218 272c174 0 197 -146 197 -262v-16zM359 314c0 70 -16 145 -108 145c-106 0 -118 -104 -118 -145h226zM361 633l-33 -50l-193 109l44 69z
" />
    <glyph glyph-name="ecircumflex" unicode="&#xea;" horiz-adv-x="487" 
d="M452 247h-321c0 -106 28 -185 158 -185c93 0 140 51 140 51l-6 -84s-43 -38 -158 -38c-103 0 -228 40 -228 262c0 159 68 272 218 272c174 0 197 -146 197 -262v-16zM359 314c0 70 -16 145 -108 145c-106 0 -118 -104 -118 -145h226zM412 631l-37 -48l-127 85l-127 -85
l-37 48l164 133z" />
    <glyph glyph-name="edieresis" unicode="&#xeb;" horiz-adv-x="487" 
d="M452 247h-321c0 -106 28 -185 158 -185c93 0 140 51 140 51l-6 -84s-43 -38 -158 -38c-103 0 -228 40 -228 262c0 159 68 272 218 272c174 0 197 -146 197 -262v-16zM359 314c0 70 -16 145 -108 145c-106 0 -118 -104 -118 -145h226zM394 662c0 -32 -21 -53 -53 -53
c-28 0 -50 20 -50 52s21 52 52 52c29 0 51 -19 51 -51zM212 662c0 -32 -21 -53 -52 -53c-29 0 -51 20 -51 52s21 52 53 52c28 0 50 -19 50 -51z" />
    <glyph glyph-name="iacute" unicode="&#xed;" horiz-adv-x="235" 
d="M164 0h-94v517h94v-517zM231 692l-192 -109l-33 50l181 128z" />
    <glyph glyph-name="igrave" unicode="&#xec;" horiz-adv-x="235" 
d="M164 0h-94v517h94v-517zM231 633l-33 -50l-193 109l44 69z" />
    <glyph glyph-name="icircumflex" unicode="&#xee;" horiz-adv-x="235" 
d="M164 0h-94v517h94v-517zM282 631l-37 -48l-127 85l-127 -85l-37 48l164 133z" />
    <glyph glyph-name="idieresis" unicode="&#xef;" horiz-adv-x="235" 
d="M164 0h-94v517h94v-517zM261 662c0 -32 -21 -53 -53 -53c-28 0 -50 20 -50 52s21 52 52 52c29 0 51 -19 51 -51zM79 662c0 -32 -21 -53 -52 -53c-29 0 -51 20 -51 52s21 52 53 52c28 0 50 -19 50 -51z" />
    <glyph glyph-name="ntilde" unicode="&#xf1;" horiz-adv-x="535" 
d="M472 0h-93v312c0 59 -2 134 -107 134c-47 0 -109 -26 -109 -97v-349h-94v517h92v-64s38 72 146 72c54 0 91 -17 116 -40c48 -44 49 -110 49 -152v-333zM426 687c0 0 -21 -82 -94 -82c-18 0 -31 3 -53 13l-25 11c-21 9 -29 10 -38 10c-34 0 -46 -34 -46 -34l-46 28
s23 81 94 81c17 0 30 -3 52 -13l25 -11c20 -9 29 -10 38 -10c34 0 46 35 46 35z" />
    <glyph glyph-name="oacute" unicode="&#xf3;" horiz-adv-x="512" 
d="M475 264c0 -166 -72 -276 -223 -276c-131 0 -215 91 -215 261c0 166 72 276 223 276c131 0 215 -91 215 -261zM380 257c0 109 -28 196 -124 196c-87 0 -124 -69 -124 -197c0 -109 28 -196 124 -196c86 0 124 70 124 197zM379 692l-192 -109l-33 50l181 128z" />
    <glyph glyph-name="ograve" unicode="&#xf2;" horiz-adv-x="512" 
d="M475 264c0 -166 -72 -276 -223 -276c-131 0 -215 91 -215 261c0 166 72 276 223 276c131 0 215 -91 215 -261zM380 257c0 109 -28 196 -124 196c-87 0 -124 -69 -124 -197c0 -109 28 -196 124 -196c86 0 124 70 124 197zM374 633l-33 -50l-193 109l44 69z" />
    <glyph glyph-name="ocircumflex" unicode="&#xf4;" horiz-adv-x="512" 
d="M475 264c0 -166 -72 -276 -223 -276c-131 0 -215 91 -215 261c0 166 72 276 223 276c131 0 215 -91 215 -261zM380 257c0 109 -28 196 -124 196c-87 0 -124 -69 -124 -197c0 -109 28 -196 124 -196c86 0 124 70 124 197zM423 631l-37 -48l-127 85l-127 -85l-37 48
l164 133z" />
    <glyph glyph-name="odieresis" unicode="&#xf6;" horiz-adv-x="512" 
d="M475 264c0 -166 -72 -276 -223 -276c-131 0 -215 91 -215 261c0 166 72 276 223 276c131 0 215 -91 215 -261zM380 257c0 109 -28 196 -124 196c-87 0 -124 -69 -124 -197c0 -109 28 -196 124 -196c86 0 124 70 124 197zM401 662c0 -32 -21 -53 -53 -53
c-28 0 -50 20 -50 52s21 52 52 52c29 0 51 -19 51 -51zM219 662c0 -32 -21 -53 -52 -53c-29 0 -51 20 -51 52s21 52 53 52c28 0 50 -19 50 -51z" />
    <glyph glyph-name="otilde" unicode="&#xf5;" horiz-adv-x="512" 
d="M475 264c0 -166 -72 -276 -223 -276c-131 0 -215 91 -215 261c0 166 72 276 223 276c131 0 215 -91 215 -261zM380 257c0 109 -28 196 -124 196c-87 0 -124 -69 -124 -197c0 -109 28 -196 124 -196c86 0 124 70 124 197zM411 687c0 0 -21 -82 -94 -82c-18 0 -31 3 -53 13
l-25 11c-21 9 -29 10 -38 10c-34 0 -46 -34 -46 -34l-46 28s23 81 94 81c17 0 30 -3 52 -13l25 -11c20 -9 29 -10 38 -10c34 0 46 35 46 35z" />
    <glyph glyph-name="uacute" unicode="&#xfa;" horiz-adv-x="535" 
d="M466 4l-91 -8v68s-39 -72 -148 -72c-53 0 -89 15 -114 38c-48 44 -50 109 -50 153v334h94v-314c0 -61 1 -132 106 -132c47 0 110 26 110 97v349h93v-513zM388 692l-192 -109l-33 50l181 128z" />
    <glyph glyph-name="ugrave" unicode="&#xf9;" horiz-adv-x="535" 
d="M466 4l-91 -8v68s-39 -72 -148 -72c-53 0 -89 15 -114 38c-48 44 -50 109 -50 153v334h94v-314c0 -61 1 -132 106 -132c47 0 110 26 110 97v349h93v-513zM380 633l-33 -50l-193 109l44 69z" />
    <glyph glyph-name="ucircumflex" unicode="&#xfb;" horiz-adv-x="535" 
d="M466 4l-91 -8v68s-39 -72 -148 -72c-53 0 -89 15 -114 38c-48 44 -50 109 -50 153v334h94v-314c0 -61 1 -132 106 -132c47 0 110 26 110 97v349h93v-513zM431 631l-37 -48l-127 85l-127 -85l-37 48l164 133z" />
    <glyph glyph-name="udieresis" unicode="&#xfc;" horiz-adv-x="535" 
d="M466 4l-91 -8v68s-39 -72 -148 -72c-53 0 -89 15 -114 38c-48 44 -50 109 -50 153v334h94v-314c0 -61 1 -132 106 -132c47 0 110 26 110 97v349h93v-513zM410 662c0 -32 -21 -53 -53 -53c-28 0 -50 20 -50 52s21 52 52 52c29 0 51 -19 51 -51zM228 662
c0 -32 -21 -53 -52 -53c-29 0 -51 20 -51 52s21 52 53 52c28 0 50 -19 50 -51z" />
    <glyph glyph-name="degree" unicode="&#xb0;" horiz-adv-x="436" 
d="M374 600c0 -86 -70 -155 -157 -155c-85 0 -155 69 -155 155s70 155 155 155c87 0 157 -69 157 -155zM319 600c0 59 -45 103 -102 103s-100 -44 -100 -103c0 -56 43 -104 100 -104s102 48 102 104z" />
    <glyph glyph-name="registered" unicode="&#xae;" horiz-adv-x="883" 
d="M833 320c0 -232 -160 -403 -390 -403c-231 0 -393 167 -393 398c0 233 164 399 397 399c234 0 386 -164 386 -394zM769 320c0 195 -123 341 -322 341c-202 0 -331 -147 -331 -346c0 -197 131 -346 327 -346c199 0 326 149 326 351zM631 68h-91l-170 210v-210h-72v509h88
c56 0 109 -2 144 -20c41 -21 67 -59 67 -116c0 -105 -75 -151 -150 -152zM520 431c0 75 -47 89 -111 89h-38v-183h37c58 0 112 16 112 94z" />
    <glyph glyph-name="copyright" unicode="&#xa9;" horiz-adv-x="883" 
d="M833 320c0 -232 -160 -403 -390 -403c-231 0 -393 167 -393 398c0 233 164 399 397 399c234 0 386 -164 386 -394zM769 320c0 195 -123 341 -322 341c-202 0 -331 -147 -331 -346c0 -197 131 -346 327 -346c199 0 326 149 326 351zM590 170l-5 -75s-36 -34 -134 -34
c-157 0 -232 112 -232 247c0 61 15 113 39 155c38 69 115 106 202 106c85 0 128 -30 128 -30v-75s-37 41 -121 41c-100 0 -166 -65 -166 -189c0 -120 58 -191 163 -191c86 0 126 45 126 45z" />
    <glyph glyph-name="trademark" unicode="&#x2122;" horiz-adv-x="865" 
d="M784 309h-63v311s-8 -29 -15 -46l-103 -265h-54l-98 268c-8 21 -13 42 -13 42v-310h-61v394h96l98 -270c6 -16 10 -40 10 -40s6 26 11 40l104 270h88v-394zM320 647h-112v-338h-68v338h-111v56h291v-56z" />
    <glyph glyph-name="notequal" unicode="&#x2260;" horiz-adv-x="640" 
d="M617 189h-330l-88 -170l-62 28l73 142h-187v71h226l90 179h-316v71h354l85 169l62 -29l-69 -140h162v-71h-200l-90 -179h290v-71z" />
    <glyph glyph-name="infinity" unicode="&#x221e;" horiz-adv-x="828" 
d="M766 358c0 -112 -72 -192 -181 -192c-71 0 -128 49 -160 106l-18 32c-20 -46 -80 -137 -176 -137c-102 0 -169 65 -169 183c0 113 75 191 178 191c78 0 132 -53 164 -106l18 -30c20 45 76 136 176 136c101 0 168 -66 168 -183zM716 355c0 71 -45 124 -127 124
c-67 0 -120 -38 -153 -95l33 -57c35 -60 71 -96 131 -96c68 0 116 44 116 124zM394 325l-34 54c-36 58 -72 97 -132 97c-68 0 -116 -42 -116 -122c0 -74 45 -125 128 -125c66 0 120 39 154 96z" />
    <glyph glyph-name="plusminus" unicode="&#xb1;" horiz-adv-x="640" 
d="M617 400h-260v-270h-75v270h-259v70h259v266h75v-266h260v-70zM617 0h-594v70h594v-70z" />
    <glyph glyph-name="lessequal" unicode="&#x2264;" horiz-adv-x="711" 
d="M688 122l-665 292v44l665 293v-77l-551 -236l551 -236v-80zM688 0h-665v70h665v-70z" />
    <glyph glyph-name="greaterequal" unicode="&#x2265;" horiz-adv-x="711" 
d="M688 414l-665 -292v80l551 236l-551 236v77l665 -293v-44zM688 0h-665v70h665v-70z" />
    <glyph glyph-name="mu" unicode="&#xb5;" horiz-adv-x="612" 
d="M577 44c0 0 -26 -52 -80 -52c-37 0 -61 28 -61 60v4c-21 -21 -78 -64 -149 -64c-86 0 -118 50 -118 50v-204c-20 -3 -37 -8 -57 -12c-29 -6 -68 -22 -68 -22l-7 15s38 17 54 50c15 32 15 83 15 115v354c0 69 -2 94 -12 110c-16 26 -45 24 -45 24v17s29 -2 81 7
c37 6 48 15 48 15l4 -2s-5 -20 -5 -201c0 -56 -2 -116 5 -168c9 -68 60 -105 136 -105c60 0 115 33 115 33v270c0 69 0 94 -11 110c-16 25 -45 24 -45 24v17s15 -1 68 7c37 5 57 15 57 15l3 -2s-2 -39 -2 -202v-189c0 -31 0 -71 42 -71c16 0 22 7 22 7z" />
    <glyph glyph-name="partialdiff" unicode="&#x2202;" horiz-adv-x="536" 
d="M486 481c0 -82 -13 -257 -75 -370c-41 -74 -98 -119 -187 -119c-110 0 -172 69 -172 197c0 69 17 136 47 191c38 69 100 111 181 111c109 0 131 -76 131 -76s9 29 9 108c0 115 -53 165 -127 165c-42 0 -53 -5 -53 -5s10 -12 10 -35s-14 -46 -52 -46c-30 0 -45 17 -45 42
c0 37 37 78 148 78c163 0 185 -138 185 -241zM397 314c0 54 -13 145 -108 145c-70 0 -109 -61 -123 -91c-25 -53 -40 -128 -40 -196c0 -116 45 -149 107 -149c69 0 104 60 118 88c34 72 46 147 46 203z" />
    <glyph glyph-name="summation" unicode="&#x2211;" horiz-adv-x="681" 
d="M670 -50c-4 -49 -3 -180 -3 -180h-647v47l297 450l-297 474v29h627s-1 -89 3 -138h-17c-2 50 -23 68 -25 70c-19 20 -79 21 -108 21h-375l269 -431l-303 -451h425c29 0 86 4 108 26c4 4 29 43 30 83h16z" />
    <glyph glyph-name="product" unicode="&#x220f;" horiz-adv-x="850" 
d="M803 -230c-40 2 -76 4 -112 4s-57 0 -102 -4v15c14 0 35 5 51 23c17 20 18 50 18 141v773h-463v-805c0 -67 3 -90 14 -106c2 -3 15 -23 52 -26v-15c-40 2 -61 4 -97 4s-72 0 -117 -4v15c14 0 35 5 51 23c17 20 18 50 18 141v681c0 67 -2 87 -12 103c-2 3 -15 24 -53 28
v12c56 -3 89 -3 147 -3h457c58 0 91 0 147 3v-12c-38 -4 -51 -25 -53 -28c-10 -16 -12 -36 -12 -103v-713c0 -67 3 -90 14 -106c2 -3 15 -23 52 -26v-15z" />
    <glyph glyph-name="pi" unicode="&#x3c0;" horiz-adv-x="603" 
d="M581 516l-67 -84h-46v-314c0 -47 6 -71 44 -71c9 0 17 2 24 8l9 -12c-19 -23 -49 -51 -89 -51c-50 0 -58 41 -58 70v370h-210v-426c-20 -2 -33 -5 -53 -11c-23 -6 -44 -14 -66 -24l-6 15c28 14 42 29 52 47c17 30 17 63 17 118v281h-11c-37 0 -61 -15 -89 -52l-12 8
c29 92 61 107 150 107c86 0 171 -5 257 -5c27 0 56 2 69 4c35 7 57 19 76 32z" />
    <glyph glyph-name="integral" unicode="&#x222b;" horiz-adv-x="498" 
d="M478 797c0 -28 -21 -49 -48 -49c-25 0 -47 14 -46 44c0 14 4 26 15 34c-122 0 -123 -108 -123 -155c0 -174 19 -431 18 -599c-1 -228 -11 -414 -186 -414c-39 0 -88 10 -88 60c0 28 20 49 47 49c25 0 47 -14 47 -44c0 -14 -5 -26 -15 -34c122 0 126 108 126 156
c0 174 -20 430 -20 599c1 214 3 413 188 413c37 0 85 -10 85 -60z" />
    <glyph glyph-name="Omega" unicode="&#x3a9;" horiz-adv-x="774" 
d="M723 156c-4 -28 -9 -79 -9 -156h-276v67c49 7 184 86 184 297c0 115 -32 299 -234 299c-200 0 -234 -183 -234 -299c0 -213 131 -290 182 -297v-67h-275c0 77 -5 128 -10 156h17c9 -48 26 -65 30 -69c24 -23 74 -23 130 -23h56c-115 41 -217 144 -217 299
c0 162 98 340 320 340c174 0 320 -116 320 -329c0 -195 -137 -281 -219 -310h59c56 0 105 0 130 23c4 4 19 21 30 69h16z" />
    <glyph glyph-name="logicalnot" unicode="&#xac;" horiz-adv-x="640" 
d="M617 186h-71v162h-523v70h594v-232z" />
    <glyph glyph-name="radical" unicode="&#x221a;" horiz-adv-x="577" 
d="M768 905h-199l-302 -908l-34 -9l-159 452c-14 41 -39 85 -81 85v16c30 -3 58 -4 87 -4c15 0 28 1 40 3l110 -338c10 -30 19 -57 27 -88c7 32 13 59 23 91l245 744h243v-44z" />
    <glyph glyph-name="approxequal" unicode="&#x2248;" horiz-adv-x="594" 
d="M572 522c-56 -100 -108 -129 -161 -129c-30 0 -51 4 -84 16l-91 34c-29 11 -42 14 -68 14c-36 0 -79 -19 -117 -84l-28 22c55 111 106 141 162 141c26 0 48 -4 82 -17l90 -33c28 -10 41 -14 71 -14c33 0 78 8 113 73zM572 302c-56 -100 -108 -130 -161 -130
c-30 0 -51 4 -84 16l-91 34c-29 11 -42 15 -68 15c-36 0 -79 -20 -117 -85l-28 23c55 111 106 141 162 141c26 0 48 -5 82 -18l90 -33c28 -10 41 -13 71 -13c33 0 78 7 113 72z" />
    <glyph glyph-name="Delta" unicode="&#x394;" horiz-adv-x="652" 
d="M652 0h-652v29l309 680h39l304 -680v-29zM565 51l-249 555l-255 -555h504z" />
    <glyph glyph-name="Agrave" unicode="&#xc0;" horiz-adv-x="576" 
d="M576 0h-100l-75 233h-235l-76 -233h-92l238 705h109zM378 308l-69 219c-16 50 -24 94 -24 94s-9 -39 -26 -92l-70 -221h189zM401 803l-33 -50l-193 109l44 69z" />
    <glyph glyph-name="Atilde" unicode="&#xc3;" horiz-adv-x="576" 
d="M576 0h-100l-75 233h-235l-76 -233h-92l238 705h109zM378 308l-69 219c-16 50 -24 94 -24 94s-9 -39 -26 -92l-70 -221h189zM439 857c0 0 -21 -82 -94 -82c-18 0 -31 3 -53 13l-25 11c-21 9 -29 10 -38 10c-34 0 -46 -34 -46 -34l-46 28s23 81 94 81c17 0 30 -3 52 -13
l25 -11c20 -9 29 -10 38 -10c34 0 46 35 46 35z" />
    <glyph glyph-name="Otilde" unicode="&#xd5;" horiz-adv-x="644" 
d="M609 364c0 -241 -109 -375 -286 -375c-181 0 -288 122 -288 348c0 241 108 376 285 376c181 0 289 -123 289 -349zM510 353c0 192 -65 282 -189 282c-119 0 -187 -92 -187 -287c0 -192 64 -282 188 -282c119 0 188 92 188 287zM473 857c0 0 -21 -82 -94 -82
c-18 0 -31 3 -53 13l-25 11c-21 9 -29 10 -38 10c-34 0 -46 -34 -46 -34l-46 28s23 81 94 81c17 0 30 -3 52 -13l25 -11c20 -9 29 -10 38 -10c34 0 46 35 46 35z" />
    <glyph glyph-name="divide" unicode="&#xf7;" horiz-adv-x="640" 
d="M384 560c0 -38 -28 -64 -64 -64s-65 26 -65 64c0 40 27 65 65 65c36 0 64 -25 64 -65zM617 316h-594v70h594v-70zM384 146c0 -40 -28 -65 -64 -65s-65 25 -65 65c0 38 27 64 65 64c36 0 64 -24 64 -64z" />
    <glyph glyph-name="lozenge" unicode="&#x25ca;" horiz-adv-x="514" 
d="M510 385l-254 -383l-252 368l254 382zM437 382l-180 267l-183 -277l183 -272z" />
    <glyph glyph-name="ydieresis" unicode="&#xff;" horiz-adv-x="442" 
d="M445 517l-204 -590c-33 -94 -73 -157 -175 -157c-46 0 -70 12 -70 12l-4 77s22 -16 65 -16c49 0 75 26 95 82l25 70l-179 522h98l105 -332c20 -62 23 -88 23 -88s7 35 23 85l108 335h90zM363 662c0 -32 -21 -53 -53 -53c-28 0 -50 20 -50 52s21 52 52 52
c29 0 51 -19 51 -51zM181 662c0 -32 -21 -53 -52 -53c-29 0 -51 20 -51 52s21 52 53 52c28 0 50 -19 50 -51z" />
    <glyph glyph-name="Ydieresis" unicode="&#x178;" horiz-adv-x="557" 
d="M565 703l-238 -429v-274h-97v270l-232 433h110l174 -344l181 344h102zM427 832c0 -32 -21 -53 -53 -53c-28 0 -50 20 -50 52s21 52 52 52c29 0 51 -19 51 -51zM245 832c0 -32 -21 -53 -52 -53c-29 0 -51 20 -51 52s21 52 53 52c28 0 50 -19 50 -51z" />
    <glyph glyph-name="Euro" unicode="&#x20ac;" horiz-adv-x="521" 
d="M507 120l-6 -95s-52 -34 -150 -34c-163 0 -243 108 -263 244h-85l14 67h67c-1 13 -1 29 -1 41c0 14 0 28 1 42h-69l14 66h60c11 64 32 119 69 167c48 61 117 94 203 94c95 0 146 -41 146 -41v-95s-47 56 -144 56c-95 0 -159 -61 -179 -181h251l-13 -66h-244
c-1 -13 -1 -27 -1 -39c0 -14 1 -31 2 -44h227c-4 -23 -9 -45 -13 -67h-209c19 -108 77 -166 178 -166c91 0 145 51 145 51z" />
    <glyph glyph-name="Acircumflex" unicode="&#xc2;" horiz-adv-x="576" 
d="M576 0h-100l-75 233h-235l-76 -233h-92l238 705h109zM378 308l-69 219c-16 50 -24 94 -24 94s-9 -39 -26 -92l-70 -221h189zM451 801l-37 -48l-127 85l-127 -85l-37 48l164 133z" />
    <glyph glyph-name="Ecircumflex" unicode="&#xca;" horiz-adv-x="460" 
d="M439 80l-4 -80h-366v703h352v-80h-255v-222h212v-79h-212v-242h273zM406 801l-37 -48l-127 85l-127 -85l-37 48l164 133z" />
    <glyph glyph-name="Aacute" unicode="&#xc1;" horiz-adv-x="576" 
d="M576 0h-100l-75 233h-235l-76 -233h-92l238 705h109zM378 308l-69 219c-16 50 -24 94 -24 94s-9 -39 -26 -92l-70 -221h189zM401 862l-192 -109l-33 50l181 128z" />
    <glyph glyph-name="Edieresis" unicode="&#xcb;" horiz-adv-x="460" 
d="M439 80l-4 -80h-366v703h352v-80h-255v-222h212v-79h-212v-242h273zM388 832c0 -32 -21 -53 -53 -53c-28 0 -50 20 -50 52s21 52 52 52c29 0 51 -19 51 -51zM206 832c0 -32 -21 -53 -52 -53c-29 0 -51 20 -51 52s21 52 53 52c28 0 50 -19 50 -51z" />
    <glyph glyph-name="Egrave" unicode="&#xc8;" horiz-adv-x="460" 
d="M439 80l-4 -80h-366v703h352v-80h-255v-222h212v-79h-212v-242h273zM349 803l-33 -50l-193 109l44 69z" />
    <glyph glyph-name="Iacute" unicode="&#xcd;" horiz-adv-x="235" 
d="M166 0h-97v703h97v-703zM228 862l-192 -109l-33 50l181 128z" />
    <glyph glyph-name="Icircumflex" unicode="&#xce;" horiz-adv-x="235" 
d="M166 0h-97v703h97v-703zM282 801l-37 -48l-127 85l-127 -85l-37 48l164 133z" />
    <glyph glyph-name="Idieresis" unicode="&#xcf;" horiz-adv-x="235" 
d="M166 0h-97v703h97v-703zM261 832c0 -32 -21 -53 -53 -53c-28 0 -50 20 -50 52s21 52 52 52c29 0 51 -19 51 -51zM79 832c0 -32 -21 -53 -52 -53c-29 0 -51 20 -51 52s21 52 53 52c28 0 50 -19 50 -51z" />
    <glyph glyph-name="Igrave" unicode="&#xcc;" horiz-adv-x="235" 
d="M166 0h-97v703h97v-703zM228 803l-33 -50l-193 109l44 69z" />
    <glyph glyph-name="Oacute" unicode="&#xd3;" horiz-adv-x="644" 
d="M609 364c0 -241 -109 -375 -286 -375c-181 0 -288 122 -288 348c0 241 108 376 285 376c181 0 289 -123 289 -349zM510 353c0 192 -65 282 -189 282c-119 0 -187 -92 -187 -287c0 -192 64 -282 188 -282c119 0 188 92 188 287zM435 862l-192 -109l-33 50l181 128z" />
    <glyph glyph-name="Ocircumflex" unicode="&#xd4;" horiz-adv-x="644" 
d="M609 364c0 -241 -109 -375 -286 -375c-181 0 -288 122 -288 348c0 241 108 376 285 376c181 0 289 -123 289 -349zM510 353c0 192 -65 282 -189 282c-119 0 -187 -92 -187 -287c0 -192 64 -282 188 -282c119 0 188 92 188 287zM488 801l-37 -48l-127 85l-127 -85l-37 48
l164 133z" />
    <glyph glyph-name="apple" unicode="&#xf8ff;" horiz-adv-x="800" 
d="M386 96v171h-91v-129s-14 -8 -50 -8c-79 0 -114 55 -114 163c0 79 25 161 132 161c90 0 123 -40 123 -40v83s-40 30 -127 30c-89 0 -152 -36 -187 -97c-25 -43 -34 -95 -34 -147c0 -128 65 -225 204 -225c104 0 144 38 144 38zM748 258v253h-87v-285
c0 -46 -2 -97 -83 -97c-77 0 -81 50 -81 93v289h-91v-268c0 -63 5 -108 35 -140s75 -45 139 -45c62 0 108 14 137 49c30 37 31 78 31 151zM795 0h-790v587h790v-587z" />
    <glyph glyph-name="Ograve" unicode="&#xd2;" horiz-adv-x="644" 
d="M609 364c0 -241 -109 -375 -286 -375c-181 0 -288 122 -288 348c0 241 108 376 285 376c181 0 289 -123 289 -349zM510 353c0 192 -65 282 -189 282c-119 0 -187 -92 -187 -287c0 -192 64 -282 188 -282c119 0 188 92 188 287zM433 803l-33 -50l-193 109l44 69z" />
    <glyph glyph-name="Uacute" unicode="&#xda;" horiz-adv-x="628" 
d="M563 298c0 -112 -2 -176 -45 -232c-42 -54 -110 -76 -200 -76c-94 0 -160 20 -203 69c-44 49 -50 119 -50 216v428h96v-459c0 -82 7 -177 153 -177c155 0 158 96 158 184v452h91v-405zM430 862l-192 -109l-33 50l181 128z" />
    <glyph glyph-name="Ucircumflex" unicode="&#xdb;" horiz-adv-x="628" 
d="M563 298c0 -112 -2 -176 -45 -232c-42 -54 -110 -76 -200 -76c-94 0 -160 20 -203 69c-44 49 -50 119 -50 216v428h96v-459c0 -82 7 -177 153 -177c155 0 158 96 158 184v452h91v-405zM480 801l-37 -48l-127 85l-127 -85l-37 48l164 133z" />
    <glyph glyph-name="Ugrave" unicode="&#xd9;" horiz-adv-x="628" 
d="M563 298c0 -112 -2 -176 -45 -232c-42 -54 -110 -76 -200 -76c-94 0 -160 20 -203 69c-44 49 -50 119 -50 216v428h96v-459c0 -82 7 -177 153 -177c155 0 158 96 158 184v452h91v-405zM427 803l-33 -50l-193 109l44 69z" />
    </font>
</defs>
</svg>
