<?xml version="1.0" standalone="no"?>
<!DOCTYPE svg PUBLIC "-//W3C//DTD SVG 1.1//EN" "http://www.w3.org/Graphics/SVG/1.1/DTD/svg11.dtd" >
<svg xmlns="http://www.w3.org/2000/svg" xmlns:xlink="http://www.w3.org/1999/xlink" version="1.1">
<metadata>
Created by FontForge 20161013 at Mon Sep 28 16:33:36 2015
 By ,,,
Copyright 2015 Nissan Motors Co., Ltd. All rights reserved.
</metadata>
<defs>
<font id="NissanBrand-Regular" horiz-adv-x="400" >
  <font-face 
    font-family="Nissan Brand Regular"
    font-weight="400"
    font-stretch="normal"
    units-per-em="1000"
    panose-1="2 11 5 4 2 2 4 3 2 4"
    ascent="746"
    descent="-254"
    x-height="513"
    cap-height="650"
    bbox="-192 -300 1252 1064"
    underline-thickness="50"
    underline-position="-200"
    unicode-range="U+000D-FEFF"
  />
<missing-glyph horiz-adv-x="492" 
d="M492 750v-750h-492v750h492zM405 85v580h-318v-580h318z" />
    <glyph glyph-name="f_i.liga" unicode="fi" horiz-adv-x="578" 
d="M269 723q28 0 85 -13v-79q-47 12 -89 12q-82 0 -82 -76v-54h171v-77h-171v-436h-90v436h-98v77h98v55q0 87 47.5 121t128.5 34zM509 588h-102v92h102v-92zM503 0h-90v513h90v-513z" />
    <glyph glyph-name="f_l.liga" unicode="fl" horiz-adv-x="578" 
d="M269 723q28 0 85 -13v-79q-47 12 -89 12q-82 0 -82 -76v-54h171v-77h-171v-436h-90v436h-98v77h98v55q0 87 47.5 121t128.5 34zM503 0h-90v691h90v-691z" />
    <glyph glyph-name="f_f.liga" unicode="ff" horiz-adv-x="671" 
d="M598 643q-82 0 -82 -76v-54h171v-77h-171v-436h-90v436h-243v-436h-90v436h-98v77h98v55q0 87 47.5 121t128.5 34q28 0 85 -13v-79q-47 12 -89 12q-82 0 -82 -76v-54h243v55q0 87 47.5 121t128.5 34q28 0 85 -13v-79q-47 12 -89 12z" />
    <glyph glyph-name="f_f_i.liga" unicode="ffi" horiz-adv-x="911" 
d="M426 513v55q0 87 47.5 121t128.5 34q28 0 85 -13v-79q-47 12 -89 12q-82 0 -82 -76v-54h171v-77h-171v-436h-90v436h-243v-436h-90v436h-98v77h98v55q0 87 47.5 121t128.5 34q28 0 85 -13v-79q-47 12 -89 12q-82 0 -82 -76v-54h243zM842 680v-92h-102v92h102zM746 513h90
v-513h-90v513z" />
    <glyph glyph-name="f_f_l.liga" unicode="ffl" horiz-adv-x="911" 
d="M426 513v55q0 87 47.5 121t128.5 34q28 0 85 -13v-79q-47 12 -89 12q-82 0 -82 -76v-54h171v-77h-171v-436h-90v436h-243v-436h-90v436h-98v77h98v55q0 87 47.5 121t128.5 34q28 0 85 -13v-79q-47 12 -89 12q-82 0 -82 -76v-54h243zM836 691v-691h-90v691h90z" />
    <glyph glyph-name=".notdef" horiz-adv-x="492" 
d="M492 750v-750h-492v750h492zM405 85v580h-318v-580h318z" />
    <glyph glyph-name=".null" horiz-adv-x="0" 
 />
    <glyph glyph-name="nonmarkingreturn" horiz-adv-x="333" 
 />
    <glyph glyph-name="CR" unicode="&#xd;" horiz-adv-x="251" 
 />
    <glyph glyph-name="space" unicode=" " horiz-adv-x="251" 
 />
    <glyph glyph-name="exclam" unicode="!" horiz-adv-x="200" 
d="M150 650l-12 -473h-74l-12 473h98zM150 0h-100v97h100v-97z" />
    <glyph glyph-name="quotedbl" unicode="&#x22;" horiz-adv-x="442" 
d="M174 493h-66l-13 230h92zM335 493h-67l-12 230h91z" />
    <glyph glyph-name="numbersign" unicode="#" horiz-adv-x="600" 
d="M456 506h104v-70h-116l-28 -157h105v-71h-117l-37 -208h-77l36 208h-123l-37 -208h-77l37 208h-105v71h118l28 157h-105v70h117l39 217h77l-39 -217h123l39 217h77zM244 436l-29 -157h124l28 157h-123z" />
    <glyph glyph-name="dollar" unicode="$" horiz-adv-x="601" 
d="M554 177q0 -78 -54 -125.5t-154 -59.5v-92h-76v88q-111 1 -226 44v95q7 -2 35.5 -11.5l39 -13t34.5 -10t39.5 -9.5t36.5 -6t41 -3v220l-63 17q-154 41 -154 173q0 80 59.5 123.5t157.5 52.5v90h76v-89q89 -3 180 -33v-90q-113 34 -180 38v-211l62 -18q146 -40 146 -170z
M270 386v188q-122 -13 -122 -90q0 -64 95 -90zM346 273v-193q52 10 81.5 34.5t29.5 59.5q0 69 -97 95z" />
    <glyph glyph-name="percent" unicode="%" horiz-adv-x="882" 
d="M200 662q81 0 123 -51t42 -136q0 -87 -42 -140.5t-126 -53.5q-83 0 -125 53.5t-42 138.5q0 86 42.5 137.5t127.5 51.5zM323 0h-99l337 650h97zM199 592q-79 0 -81 -129q-1 -52 19.5 -81.5t59.5 -29.5q38 0 59 31.5t20 85.5q-2 123 -77 123zM685 368q83 0 125 -53.5
t42 -138.5q0 -86 -42.5 -137.5t-127.5 -51.5q-81 0 -123 51t-42 136q0 87 42 140.5t126 53.5zM685 297q-38 0 -58 -31.5t-20 -86.5q0 -122 76 -122q80 0 80 129q0 52 -20 81.5t-58 29.5z" />
    <glyph glyph-name="ampersand" unicode="&#x26;" horiz-adv-x="704" 
d="M336 664q96 0 164 -33v-90q-89 42 -157 42q-17 0 -34.5 -3t-38.5 -11t-34.5 -26t-13.5 -44q0 -50 59 -117.5t191 -186.5q24 25 56.5 69t43.5 65h104q-68 -104 -141 -186q30 -24 87.5 -72t86.5 -71h-136q-31 24 -102 82q-52 -48 -117.5 -73.5t-127.5 -25.5
q-89 0 -137.5 47t-48.5 115q0 60 30.5 109.5t119.5 107.5q-37 46 -49.5 75t-12.5 65q0 67 52 114.5t156 47.5zM248 297q-113 -64 -113 -135q0 -39 26.5 -67.5t76.5 -28.5q96 0 170 69q-118 111 -160 162z" />
    <glyph glyph-name="quotesingle" unicode="'" horiz-adv-x="282" 
d="M174 493h-66l-13 230h92z" />
    <glyph glyph-name="parenleft" unicode="(" horiz-adv-x="294" 
d="M187 708h91q-3 -6 -28 -47t-39.5 -71t-34.5 -80t-30 -108.5t-10 -121.5t10.5 -121t30.5 -107.5t35 -80t39 -70.5t28 -47h-92q-67 117 -99.5 215.5t-32.5 212.5q0 113 32.5 211t99.5 215z" />
    <glyph glyph-name="parenright" unicode=")" horiz-adv-x="294" 
d="M16 708h91q67 -117 99.5 -215t32.5 -211q0 -114 -32.5 -212.5t-99.5 -215.5h-92q4 7 28 47t39 70.5t35 80t30.5 107.5t10.5 121t-10 121.5t-30 108.5t-34.5 80t-39.5 71t-28 47z" />
    <glyph glyph-name="asterisk" unicode="*" horiz-adv-x="378" 
d="M286 623l-68 -93l115 11v-57l-113 13l66 -97l-50 -25l-46 103l-49 -105l-48 27l67 96l-115 -12v57l116 -11l-69 93l49 27l49 -103l47 103z" />
    <glyph glyph-name="plus" unicode="+" horiz-adv-x="509" 
d="M297 84h-85v172h-172v85h172v172h85v-172h172v-85h-172v-172z" />
    <glyph glyph-name="comma" unicode="," horiz-adv-x="191" 
d="M84 -129h-84l62 226h104z" />
    <glyph glyph-name="hyphen" unicode="-" horiz-adv-x="410" 
d="M370 262h-330v85h330v-85z" />
    <glyph glyph-name="period" unicode="." horiz-adv-x="200" 
d="M150 0h-100v97h100v-97z" />
    <glyph glyph-name="slash" unicode="/" horiz-adv-x="504" 
d="M118 -80h-98l364 764h100z" />
    <glyph glyph-name="zero" unicode="0" horiz-adv-x="676" 
d="M338 662q131 0 207.5 -92t76.5 -244t-78.5 -245t-205.5 -93q-128 0 -206 92.5t-78 245.5q0 152 76.5 244t207.5 92zM335 576q-77 0 -133 -63.5t-56 -186.5q0 -119 57 -184.5t135 -65.5q73 0 132.5 66t59.5 184q0 124 -56 187t-139 63z" />
    <glyph glyph-name="one" unicode="1" horiz-adv-x="390" 
d="M285 0h-88v552l-161 -44v82l249 72v-662z" />
    <glyph glyph-name="two" unicode="2" horiz-adv-x="582" 
d="M281 662q110 0 173 -52.5t63 -143.5q0 -172 -316 -380h328v-86h-468v81q48 34 73.5 53.5t76 58t80.5 68t63 66t49 69.5t16 62q0 53 -35 85.5t-114 32.5q-86 0 -189 -49v93q101 42 200 42z" />
    <glyph glyph-name="three" unicode="3" horiz-adv-x="591" 
d="M512 582l-208 -192q42 -1 81 -11t75.5 -30.5t58 -58t21.5 -87.5q0 -105 -75 -160t-203 -55q-79 0 -200 34v91q134 -37 196 -37q186 0 188 128q0 37 -17 60t-52.5 33.5t-69 13.5t-86.5 3h-45v63l199 188h-313v85h450v-68z" />
    <glyph glyph-name="four" unicode="4" horiz-adv-x="616" 
d="M401 650h115q-222 -217 -356 -421h245v157h88v-157h96v-81h-96v-148h-88v148h-365v62q73 110 170.5 230.5t190.5 209.5z" />
    <glyph glyph-name="five" unicode="5" horiz-adv-x="595" 
d="M490 565h-305l-17 -159q57 13 118 13q118 0 186.5 -57t68.5 -151q0 -97 -72 -160t-201 -63q-92 0 -211 37v89q130 -38 207 -38q87 0 135.5 34.5t48.5 99.5q0 55 -47 88.5t-129 33.5q-80 0 -200 -30l36 348h382v-85z" />
    <glyph glyph-name="six" unicode="6" horiz-adv-x="608" 
d="M483 660v-87q-97 -13 -184.5 -61t-123.5 -123q17 18 60.5 34.5t81.5 16.5q109 0 172.5 -62.5t63.5 -155.5q0 -95 -68.5 -164.5t-183.5 -69.5q-110 0 -178 69t-68 187q0 114 58 203.5t153 142t217 70.5zM306 360q-68 0 -111.5 -39t-43.5 -102t40 -103t112 -40
q69 0 112 39.5t43 104.5q0 67 -44 103.5t-108 36.5z" />
    <glyph glyph-name="seven" unicode="7" horiz-adv-x="543" 
d="M515 650v-58q-200 -304 -308 -592l-96 1q104 275 294 566h-368v83h478z" />
    <glyph glyph-name="eight" unicode="8" horiz-adv-x="625" 
d="M312 662q99 0 166.5 -45.5t67.5 -131.5q0 -47 -33.5 -84t-77.5 -58q49 -16 91.5 -58.5t42.5 -101.5q0 -93 -71 -144t-186 -51q-114 0 -185 52t-71 145q0 58 42.5 100.5t92.5 57.5q-111 57 -111 142t67.5 131t164.5 46zM312 581q-63 0 -101.5 -28t-38.5 -75q0 -40 40 -71
t100 -31t101 30.5t41 70.5q0 48 -39.5 76t-102.5 28zM313 301q-78 0 -121.5 -35t-43.5 -82q0 -58 49.5 -86t114.5 -28t115 28t50 84q0 48 -43.5 83.5t-120.5 35.5z" />
    <glyph glyph-name="nine" unicode="9" horiz-adv-x="608" 
d="M308 662q110 0 177.5 -68.5t67.5 -186.5q0 -170 -120 -280.5t-307 -138.5v87q96 13 184 62.5t124 124.5q-17 -18 -61 -34.5t-82 -16.5q-108 0 -172 62.5t-64 155.5q0 94 69 163.5t184 69.5zM306 574q-69 0 -112 -39t-43 -104q0 -67 44 -103.5t108 -36.5q68 0 111.5 39
t43.5 102t-40 102.5t-112 39.5z" />
    <glyph glyph-name="colon" unicode=":" horiz-adv-x="200" 
d="M150 364h-100v97h100v-97zM150 0h-100v97h100v-97z" />
    <glyph glyph-name="semicolon" unicode=";" horiz-adv-x="200" 
d="M150 364h-100v97h100v-97zM70 -129h-84l62 226h104z" />
    <glyph glyph-name="less" unicode="&#x3c;" horiz-adv-x="589" 
d="M549 487l-416 -162l416 -159v-86l-509 200v92l509 201v-86z" />
    <glyph glyph-name="equal" unicode="=" horiz-adv-x="510" 
d="M470 333h-430v85h430v-85zM470 141h-430v85h430v-85z" />
    <glyph glyph-name="greater" unicode="&#x3e;" horiz-adv-x="589" 
d="M549 372v-92l-509 -200v86l416 159l-416 162v86z" />
    <glyph glyph-name="question" unicode="?" horiz-adv-x="555" 
d="M252 662q270 0 270 -177q0 -53 -26.5 -88t-64 -52.5t-74.5 -34t-63.5 -46.5t-26.5 -76v-30h-88v41q0 51 26 90t63.5 61t74.5 41t63 41.5t26 50.5q0 94 -182 94q-97 0 -216 -47v89q116 43 218 43zM271 0h-100v97h100v-97z" />
    <glyph glyph-name="at" unicode="@" horiz-adv-x="976" 
d="M501 695q87 0 162.5 -24.5t135 -71.5t93.5 -123.5t34 -173.5q0 -128 -56 -204t-142 -76q-73 0 -113 53q-55 -39 -131 -38q-95 1 -157 57.5t-62 156.5q0 94 60.5 152.5t158.5 58.5q70 0 121 -31l7 25h66v-301q0 -51 51 -51q46 0 78 54.5t32 139.5q0 105 -48.5 177.5
t-123 104t-169.5 31.5q-159 0 -259 -100t-100 -251q0 -150 107.5 -255.5t274.5 -105.5q72 0 150 20v-86q-73 -16 -147 -16q-213 0 -343.5 127t-130.5 317q0 193 125.5 313.5t325.5 120.5zM485 381q-62 0 -98 -35t-36 -94q0 -63 37.5 -100t100.5 -37q60 0 103 35v197
q-46 34 -107 34z" />
    <glyph glyph-name="A" unicode="A" horiz-adv-x="663" 
d="M668 0h-98q-31 94 -60 168h-354q-40 -101 -60 -168h-101q65 197 151 388t130 262h111q20 -32 59 -108.5t104.5 -230.5t117.5 -311zM190 252h287q-79 197 -144 313q-65 -122 -143 -313z" />
    <glyph glyph-name="B" unicode="B" horiz-adv-x="674" 
d="M80 650h281q63 0 112.5 -14t84 -51t34.5 -95q0 -108 -99 -150v-1q121 -40 121 -164q0 -50 -21 -85t-60 -54.5t-86.5 -27.5t-109.5 -8h-257v650zM174 564v-190h166q154 0 154 100q0 30 -13.5 49t-38.5 27.5t-47.5 11t-54.5 2.5h-166zM174 291v-205h158q42 0 72.5 4
t57.5 14t40.5 30.5t13.5 51.5q0 105 -180 105h-162z" />
    <glyph glyph-name="C" unicode="C" horiz-adv-x="704" 
d="M436 662q120 0 213 -42v-98q-101 52 -215 52q-125 0 -205 -66t-80 -188q0 -64 26 -112.5t69 -76.5t93 -41.5t104 -13.5q61 0 104 9t109 35v-92q-96 -40 -220 -40q-56 0 -109.5 11t-104 36.5t-88 63t-60 94.5t-22.5 126q0 85 31.5 152t85.5 108t122.5 62t146.5 21z" />
    <glyph glyph-name="D" unicode="D" horiz-adv-x="713" 
d="M80 650h221q74 0 136 -17.5t113 -54.5t79.5 -101.5t28.5 -152.5q0 -84 -30 -148t-82 -101.5t-116 -56t-137 -18.5h-213v650zM174 564v-478h99q141 0 211.5 62.5t70.5 176.5t-66.5 176.5t-206.5 62.5h-108z" />
    <glyph glyph-name="E" unicode="E" horiz-adv-x="599" 
d="M539 564h-365v-187h336v-85h-336v-206h365v-86h-459v650h459v-86z" />
    <glyph glyph-name="F" unicode="F" horiz-adv-x="583" 
d="M538 564h-364v-205h335v-86h-335v-273h-94v650h458v-86z" />
    <glyph glyph-name="G" unicode="G" horiz-adv-x="721" 
d="M429 662q110 0 219 -40v-92q-120 44 -220 44q-120 0 -199.5 -65t-79.5 -187q0 -52 16.5 -94t44 -70t65 -47t77.5 -27t83 -8q68 0 122 15v228h94v-291q-106 -40 -223 -40q-71 0 -135.5 18.5t-120.5 56.5t-89 104t-33 152q0 85 30.5 151.5t83.5 107.5t120.5 62.5
t144.5 21.5z" />
    <glyph glyph-name="H" unicode="H" horiz-adv-x="719" 
d="M639 0h-94v281h-371v-281h-94v650h94v-283h371v283h94v-650z" />
    <glyph glyph-name="I" unicode="I" horiz-adv-x="254" 
d="M174 0h-94v650h94v-650z" />
    <glyph glyph-name="J" unicode="J" horiz-adv-x="454" 
d="M379 650v-466q0 -90 -56.5 -143t-150.5 -53q-75 0 -162 26v94q85 -31 158 -31q117 0 117 129v444h94z" />
    <glyph glyph-name="K" unicode="K" horiz-adv-x="659" 
d="M174 0h-94v650h94v-650zM510 650h144q-223 -184 -346 -324q200 -173 346 -326h-132q-143 148 -340 318q152 179 328 332z" />
    <glyph glyph-name="L" unicode="L" horiz-adv-x="557" 
d="M174 86h373v-86h-467v650h94v-564z" />
    <glyph glyph-name="M" unicode="M" horiz-adv-x="864" 
d="M612 650h95q2 -6 14 -49t16.5 -61.5t16.5 -65.5t19.5 -88t18.5 -101t21.5 -131t20.5 -154h-95q-44 328 -93 523q-107 -257 -181 -454h-66q-155 410 -179 449q-51 -209 -94 -518h-96q10 72 20 137.5t18.5 113.5t18.5 98.5t16.5 79.5t16.5 69.5t14 55.5t14.5 51.5
t12.5 44.5h95q87 -193 176 -425q93 229 180 425z" />
    <glyph glyph-name="N" unicode="N" horiz-adv-x="726" 
d="M646 0h-79l-394 524v-524h-93v650h108l365 -486v486h93v-650z" />
    <glyph glyph-name="O" unicode="O" horiz-adv-x="792" 
d="M400 662q162 0 252 -91.5t90 -244.5q0 -154 -94 -246t-247 -92q-161 0 -256 92t-95 246t94.5 245t255.5 91zM400 574q-114 0 -182.5 -63.5t-68.5 -184.5q0 -116 69 -182t183 -66q108 0 176 66.5t68 181.5q0 120 -67 184t-178 64z" />
    <glyph glyph-name="P" unicode="P" horiz-adv-x="633" 
d="M80 650h270q27 0 55.5 -4.5t63.5 -19t61.5 -37.5t44.5 -64t18 -94t-18 -93.5t-44.5 -63.5t-61 -38t-63.5 -19.5t-56 -4.5h-176v-212h-94v650zM174 564v-266h164q66 0 110.5 31t44.5 101q0 71 -44 102.5t-111 31.5h-164z" />
    <glyph glyph-name="Q" unicode="Q" horiz-adv-x="792" 
d="M400 662q162 0 252 -91.5t90 -244.5q0 -102 -42.5 -178.5t-119.5 -117.5l90 -68l-56 -71l-143 103q-33 -6 -70 -6q-161 0 -256 92t-95 246t94.5 245t255.5 91zM400 574q-114 0 -182.5 -63.5t-68.5 -184.5q0 -116 69 -182t183 -66q108 0 176 66.5t68 181.5q0 120 -67 184
t-178 64z" />
    <glyph glyph-name="R" unicode="R" horiz-adv-x="660" 
d="M635 0h-125q-82 121 -193 238h-143v-238h-94v650h273q36 0 73 -8.5t77 -29t65.5 -63t25.5 -101.5q0 -83 -46.5 -133.5t-113.5 -67.5q94 -100 201 -247zM174 324h166q27 0 51.5 5t49.5 16.5t40 37t15 62.5q0 63 -43.5 91t-108.5 28h-170v-240z" />
    <glyph glyph-name="S" unicode="S" horiz-adv-x="605" 
d="M320 662q103 0 207 -34v-90q-126 39 -207 39q-73 0 -122 -21.5t-49 -71.5q0 -64 95 -90l165 -47q146 -40 146 -170q0 -91 -72 -140t-204 -49q-116 0 -234 44v95q8 -3 31.5 -11t33.5 -11t31 -9t34.5 -9t32 -6.5t36 -5t35.5 -1.5q82 0 130.5 27t48.5 73q0 69 -97 95
l-153 42q-154 41 -154 173q0 90 74.5 134t191.5 44z" />
    <glyph glyph-name="T" unicode="T" horiz-adv-x="626" 
d="M606 564h-246v-564h-94v564h-246v86h586v-86z" />
    <glyph glyph-name="U" unicode="U" horiz-adv-x="718" 
d="M638 650v-371q0 -62 -14 -111.5t-45 -91.5t-88 -65t-136 -23q-78 0 -134.5 23t-87.5 65t-44.5 91.5t-13.5 111.5v371h94v-372q0 -202 186 -202q189 0 189 202v372h94z" />
    <glyph glyph-name="V" unicode="V" horiz-adv-x="663" 
d="M570 650h98q-52 -157 -117.5 -311t-104.5 -230.5t-59 -108.5h-111q-44 71 -130 262t-151 388h101q21 -69 97.5 -259.5t139.5 -305.5q46 82 94 192t72.5 177t70.5 196z" />
    <glyph glyph-name="W" unicode="W" horiz-adv-x="873" 
d="M768 650h97q-68 -326 -183 -650h-99q-64 151 -149 382q-76 -222 -147 -382h-97q-37 101 -54.5 152t-58 198t-69.5 300h96q54 -261 138 -525q68 153 157 417h72q18 -54 67.5 -190t90.5 -228q76 225 139 526z" />
    <glyph glyph-name="X" unicode="X" horiz-adv-x="632" 
d="M380 329l257 -329h-118l-205 265l-196 -265h-123l259 328l-257 322h121l195 -254l202 254h116z" />
    <glyph glyph-name="Y" unicode="Y" horiz-adv-x="606" 
d="M498 650h113q-63 -121 -143 -250t-118 -180v-220h-94v220q-38 50 -117 178t-144 252h110q83 -166 198 -344q102 155 195 344z" />
    <glyph glyph-name="Z" unicode="Z" horiz-adv-x="599" 
d="M559 567l-393 -481h391v-86h-517v83l394 481h-394v86h519v-83z" />
    <glyph glyph-name="bracketleft" unicode="[" horiz-adv-x="294" 
d="M264 708v-66h-99v-721h99v-67h-184v854h184z" />
    <glyph glyph-name="backslash" unicode="\" horiz-adv-x="504" 
d="M120 684l364 -764h-98l-366 764h100z" />
    <glyph glyph-name="bracketright" unicode="]" horiz-adv-x="294" 
d="M214 -146h-184v67h99v721h-99v66h184v-854z" />
    <glyph glyph-name="asciicircum" unicode="^" horiz-adv-x="476" 
d="M426 281h-82l-107 276l-105 -276h-82l151 369h73z" />
    <glyph glyph-name="underscore" unicode="_" horiz-adv-x="500" 
d="M500 -300h-500v85h500v-85z" />
    <glyph glyph-name="grave" unicode="`" horiz-adv-x="240" 
d="M210 591h-79l-101 145h106z" />
    <glyph glyph-name="a" unicode="a" horiz-adv-x="603" 
d="M286 524q125 0 183.5 -50.5t58.5 -170.5v-303h-68l-12 47q-87 -59 -192 -59q-88 0 -145.5 44.5t-57.5 126.5q0 86 62 126.5t154 40.5q97 0 169 -36v30q0 36 -12.5 61t-36.5 37t-50.5 17t-62.5 5q-83 0 -191 -35v89q100 30 201 30zM148 160q0 -48 35.5 -69t88.5 -21
q84 0 166 52v93q-68 36 -158 36q-132 0 -132 -91z" />
    <glyph glyph-name="b" unicode="b" horiz-adv-x="642" 
d="M339 524q113 0 185.5 -69.5t72.5 -192.5q0 -129 -80 -201.5t-190 -72.5q-97 0 -177 50l-10 -38h-65v691h90v-217q78 50 174 50zM315 72q89 0 138 53t49 134q0 80 -47 131.5t-133 51.5q-90 0 -157 -57v-267q65 -46 150 -46z" />
    <glyph glyph-name="c" unicode="c" horiz-adv-x="553" 
d="M327 524q57 0 90.5 -6.5t82.5 -24.5v-89q-96 36 -163 36q-85 0 -141.5 -48t-56.5 -138q0 -75 53.5 -128.5t144.5 -53.5q16 0 29 0.5t27.5 3t21 3t23.5 5.5t20 6t25 8t25 8v-89q-97 -29 -179 -29q-121 0 -202.5 72t-81.5 196t81 196t201 72z" />
    <glyph glyph-name="d" unicode="d" horiz-adv-x="642" 
d="M567 691v-691h-65l-10 38q-80 -50 -174 -50q-116 0 -194.5 70t-78.5 196q0 124 79.5 197t195.5 73q93 0 157 -40v207h90zM140 254q0 -87 54.5 -135t133.5 -48t149 47v278q-64 46 -146 46q-80 0 -135.5 -48.5t-55.5 -139.5z" />
    <glyph glyph-name="e" unicode="e" horiz-adv-x="584" 
d="M537 223h-402q13 -151 189 -151q52 0 90.5 8t112.5 30v-87q-99 -35 -207 -35q-117 0 -196 66t-79 199q0 70 22 124t60 85t84 46.5t99 15.5q106 0 166.5 -66t60.5 -182v-53zM139 300h306q-2 62 -36.5 101t-100.5 39t-114.5 -35.5t-54.5 -104.5z" />
    <glyph glyph-name="f" unicode="f" horiz-adv-x="338" 
d="M269 723q28 0 85 -13v-79q-47 12 -89 12q-82 0 -82 -76v-54h171v-77h-171v-436h-90v436h-98v77h98v55q0 87 47.5 121t128.5 34z" />
    <glyph glyph-name="g" unicode="g" horiz-adv-x="642" 
d="M567 511v-491q0 -232 -263 -232q-109 0 -221 46v89q127 -51 218 -51q72 0 124 28.5t52 98.5v28q-75 -39 -159 -39q-116 0 -194.5 69.5t-78.5 194.5t79.5 198.5t195.5 73.5q102 0 171 -51l9 38h67zM328 71q80 0 149 45v278q-65 48 -146 48q-80 0 -135.5 -49t-55.5 -141
q0 -87 54.5 -134t133.5 -47z" />
    <glyph glyph-name="h" unicode="h" horiz-adv-x="645" 
d="M367 524q103 0 153 -44t50 -156v-324h-90v308q0 72 -27 101t-106 29q-48 0 -98.5 -19.5t-83.5 -44.5v-374h-90v691h90v-230q37 24 92.5 43.5t109.5 19.5z" />
    <glyph glyph-name="i" unicode="i" horiz-adv-x="240" 
d="M171 588h-102v92h102v-92zM165 0h-90v513h90v-513z" />
    <glyph glyph-name="j" unicode="j" horiz-adv-x="229" 
d="M160 588h-102v92h102v-92zM153 513v-570q0 -87 -47 -121t-127 -34q-28 0 -85 13v79q47 -12 89 -12q40 0 60 17.5t20 58.5v569h90z" />
    <glyph glyph-name="k" unicode="k" horiz-adv-x="564" 
d="M165 0h-90v691h90v-691zM412 513h137q-176 -141 -258 -240q59 -48 154.5 -145.5t118.5 -127.5h-127q-132 154 -259 266q103 133 234 247z" />
    <glyph glyph-name="l" unicode="l" horiz-adv-x="240" 
d="M165 0h-90v691h90v-691z" />
    <glyph glyph-name="m" unicode="m" horiz-adv-x="978" 
d="M715 524q97 0 142.5 -44t45.5 -156v-324h-90v309q0 72 -25 100.5t-93 28.5q-80 0 -164 -63q3 -24 3 -51v-324h-90v309q0 72 -24.5 100.5t-92.5 28.5q-83 0 -162 -63v-375h-90v513h66l16 -57q34 25 87.5 46.5t102.5 21.5q126 0 165 -77q38 29 94.5 53t108.5 24z" />
    <glyph glyph-name="n" unicode="n" horiz-adv-x="645" 
d="M367 524q103 0 153 -44t50 -156v-324h-90v308q0 72 -27 101t-106 29q-48 0 -99.5 -19.5t-82.5 -44.5v-374h-90v513h66l15 -59q33 25 92.5 47.5t118.5 22.5z" />
    <glyph glyph-name="o" unicode="o" horiz-adv-x="640" 
d="M320 524q116 0 195.5 -71t79.5 -198q0 -128 -79.5 -197.5t-196.5 -69.5q-116 0 -195 69.5t-79 197.5q0 127 79.5 198t195.5 71zM320 440q-79 0 -130 -50.5t-51 -134.5q0 -78 46.5 -130t135.5 -52q87 0 133.5 52.5t46.5 129.5q0 84 -51 134.5t-130 50.5z" />
    <glyph glyph-name="p" unicode="p" horiz-adv-x="642" 
d="M339 524q113 0 185.5 -70t72.5 -192q0 -129 -80 -201.5t-190 -72.5q-89 0 -162 42v-230h-90v713h66l13 -48q79 59 185 59zM315 72q89 0 138 53t49 134q0 79 -47 131t-133 52q-89 0 -157 -58v-266q65 -46 150 -46z" />
    <glyph glyph-name="q" unicode="q" horiz-adv-x="642" 
d="M567 513v-713h-90v228q-77 -40 -159 -40q-116 0 -194.5 70t-78.5 196q0 124 79.5 197t195.5 73q103 0 171 -49l9 38h67zM328 71q78 0 149 46v279q-64 46 -146 46q-80 0 -135.5 -48.5t-55.5 -139.5q0 -87 54.5 -135t133.5 -48z" />
    <glyph glyph-name="r" unicode="r" horiz-adv-x="402" 
d="M379 524v-90q-139 -1 -214 -60v-374h-90v513h66l16 -57q107 67 222 68z" />
    <glyph glyph-name="s" unicode="s" horiz-adv-x="513" 
d="M262 524q97 0 190 -27v-87q-93 31 -188 31q-27 0 -45 -1.5t-39 -7t-32 -19.5t-11 -35q0 -41 74 -58l114 -26q72 -17 110 -48.5t38 -102.5q0 -86 -62.5 -120.5t-176.5 -34.5q-93 0 -194 28v87q105 -32 195 -32q147 0 147 73q0 26 -18.5 40t-52.5 23l-150 36
q-55 13 -85.5 49t-30.5 82q0 150 217 150z" />
    <glyph glyph-name="t" unicode="t" horiz-adv-x="399" 
d="M354 513v-77h-171v-292q0 -76 82 -76q49 0 104 18v-80q-61 -18 -100 -18q-81 0 -128.5 34t-47.5 121v293h-98v77h98l12 131h78v-131h171z" />
    <glyph glyph-name="u" unicode="u" horiz-adv-x="639" 
d="M564 513v-513h-66l-13 47q-100 -59 -220 -59q-83 0 -136.5 48.5t-53.5 149.5v327h90v-303q0 -79 33.5 -108.5t98.5 -29.5q101 0 177 51v390h90z" />
    <glyph glyph-name="v" unicode="v" horiz-adv-x="539" 
d="M449 513h100q-98 -254 -245 -513h-72q-146 259 -242 513h103q79 -216 179 -397q101 184 177 397z" />
    <glyph glyph-name="w" unicode="w" horiz-adv-x="858" 
d="M770 513h93q-80 -278 -199 -513h-81q-37 78 -83.5 195t-67.5 186q-49 -151 -161 -381h-78q-124 253 -198 513h98q75 -246 142 -399q46 92 96 221.5t62 177.5h92q14 -54 55.5 -174t86.5 -224q71 153 143 398z" />
    <glyph glyph-name="x" unicode="x" horiz-adv-x="523" 
d="M323 252l201 -252h-117l-141 188l-150 -188h-119l208 252l-210 261h113l156 -198l150 198h114z" />
    <glyph glyph-name="y" unicode="y" horiz-adv-x="541" 
d="M446 513h105q-120 -329 -343 -713h-104q12 22 55 97.5t65 115.5q-142 256 -234 500h100q73 -201 185 -404q92 182 171 404z" />
    <glyph glyph-name="z" unicode="z" horiz-adv-x="533" 
d="M488 433l-333 -356h338v-77h-453v80l335 356h-321v77h434v-80z" />
    <glyph glyph-name="braceleft" unicode="{" horiz-adv-x="341" 
d="M5 316v-69q67 -2 100 -26q38 -29 38 -121v-34q0 -107 45 -156.5t168 -55.5v66q-80 4 -104 32t-24 110v38q0 79 -19 116q-27 54 -108 65q82 11 109 65q18 35 18 115v36q0 82 24 110.5t104 34.5v66q-121 -5 -167 -54.5t-46 -157.5v-36q0 -91 -38 -120q-33 -24 -100 -24z
" />
    <glyph glyph-name="bar" unicode="|" horiz-adv-x="254" 
d="M174 -250h-94v1000h94v-1000z" />
    <glyph glyph-name="braceright" unicode="}" horiz-adv-x="341" 
d="M336 247v69q-67 0 -100 24q-38 29 -38 120v36q0 108 -46 157.5t-167 54.5v-66q80 -6 104 -34.5t24 -110.5v-36q0 -80 18 -115q27 -54 109 -65q-81 -11 -108 -65q-19 -37 -19 -116v-38q0 -82 -24 -110t-104 -32v-66q123 6 168 55.5t45 156.5v34q0 92 38 121q33 24 100 26z
" />
    <glyph glyph-name="asciitilde" unicode="~" horiz-adv-x="511" 
d="M394 377h77q0 -51 -35.5 -83.5t-87.5 -32.5q-30 0 -86 18.5t-86 18.5q-24 0 -41 -9.5t-18 -27.5h-77q0 51 35.5 83.5t87.5 32.5q31 0 86 -18.5t86 -18.5q24 0 41 9.5t18 27.5z" />
    <glyph glyph-name="uni00A0" unicode="&#xa0;" horiz-adv-x="251" 
 />
    <glyph glyph-name="exclamdown" unicode="&#xa1;" horiz-adv-x="200" 
d="M50 416v97h100v-97h-100zM64 336h74l12 -473h-98z" />
    <glyph glyph-name="cent" unicode="&#xa2;" horiz-adv-x="553" 
d="M508 170v-89q-85 -26 -153 -29v-82h-88v87q-99 18 -160.5 87t-61.5 176t62 176.5t160 86.5v98h88v-93q66 -3 145 -31v-89q-96 36 -163 36q-85 0 -141.5 -48t-56.5 -138q0 -75 53.5 -128.5t144.5 -53.5q16 0 29 0.5t27.5 3t21 3t23.5 5.5t20 6t25 8t25 8z" />
    <glyph glyph-name="sterling" unicode="&#xa3;" horiz-adv-x="554" 
d="M544 0h-464v62q43 38 61.5 71.5t18.5 96.5v106h-90v77h90v84q0 87 41.5 126t134.5 39q63 0 139 -22v-84q-80 20 -139 20q-45 0 -63.5 -18t-18.5 -61v-84h165v-77h-165v-116q0 -107 -60 -134h350v-86z" />
    <glyph glyph-name="currency" unicode="&#xa4;" horiz-adv-x="600" 
d="M527 520l-64 -65q42 -61 42 -124t-42 -125l64 -64l-47 -47l-65 63q-59 -41 -124 -41q-66 0 -125 41l-65 -63l-47 47l63 65q-41 59 -41 125q0 65 41 124l-64 64l47 47l65 -63q58 40 123 40q67 0 128 -40l64 63zM291 473q-59 0 -101 -41.5t-42 -100.5t42 -100.5t101 -41.5
t100.5 41.5t41.5 100.5t-41.5 100.5t-100.5 41.5z" />
    <glyph glyph-name="yen" unicode="&#xa5;" horiz-adv-x="599" 
d="M494 650h110q-127 -179 -213 -291h173v-77h-218v-75h218v-77h-218v-130h-94v130h-217v77h217v75h-217v77h170q-111 143 -210 291h107q101 -159 199 -292q82 111 193 292z" />
    <glyph glyph-name="brokenbar" unicode="&#xa6;" horiz-adv-x="254" 
d="M80 734h94v-404h-94v404zM174 -250h-94v420h94v-420z" />
    <glyph glyph-name="section" unicode="&#xa7;" horiz-adv-x="484" 
d="M306 182l9 -5q56 -27 77.5 -54.5t21.5 -70.5q0 -62 -47.5 -99t-136.5 -37q-62 0 -140 20v87q74 -23 137 -23q53 0 73 13t20 37q0 18 -13.5 28.5t-63.5 34.5l-95 47q-78 38 -78 103q0 47 24 78t81 54l-6 3q-99 47 -99 133q0 62 48 96.5t129 34.5q59 0 127 -16v-87
q-66 19 -123 19q-49 0 -67.5 -11t-18.5 -34q0 -21 15 -34.5t61 -36.5l95 -47q78 -38 78 -103q0 -47 -24.5 -77.5t-83.5 -52.5zM164 280q0 -31 37 -48l43 -21q42 20 59 38t17 47q0 30 -37 47l-46 22q-39 -18 -56 -37t-17 -48z" />
    <glyph glyph-name="dieresis" unicode="&#xa8;" horiz-adv-x="356" 
d="M128 588h-98v96h98v-96zM326 588h-98v96h98v-96z" />
    <glyph glyph-name="copyright" unicode="&#xa9;" horiz-adv-x="852" 
d="M802 362q0 159 -107.5 267.5t-268.5 108.5t-268.5 -108.5t-107.5 -267.5q0 -160 107 -266.5t269 -106.5q160 0 268 108t108 265zM758 362q0 -139 -97.5 -234t-234.5 -95q-140 0 -235.5 96.5t-95.5 232.5q0 138 96 234.5t235 96.5q138 0 235 -97t97 -234zM436 569
q62 0 133 -24l-1 -67q-78 27 -133 27q-64 0 -104 -36.5t-40 -106.5q0 -58 37.5 -99t106.5 -41q57 0 140 30v-70q-66 -24 -146 -24q-92 0 -151.5 55t-59.5 151t61 150.5t157 54.5z" />
    <glyph glyph-name="ordfeminine" unicode="&#xaa;" horiz-adv-x="547" 
d="M282 662q101 0 145.5 -40t44.5 -145v-252h-62l-11 32q-76 -42 -141 -42q-85 0 -133.5 36.5t-48.5 108.5q0 71 51.5 108t135.5 37q68 0 127 -28v14q0 55 -31 74t-89 19q-73 0 -168 -28v81q99 25 180 25zM257 294q70 0 133 38v68q-61 28 -123 28q-104 0 -104 -70
q0 -34 28.5 -49t65.5 -15zM75 85h397v-85h-397v85z" />
    <glyph glyph-name="guillemotleft" unicode="&#xab;" horiz-adv-x="509" 
d="M149 266l98 -192h-75l-107 197l107 192h74zM346 266l98 -192h-75l-107 197l106 192h75z" />
    <glyph glyph-name="logicalnot" unicode="&#xac;" horiz-adv-x="510" 
d="M385 109v174h-345v85h430v-259h-85z" />
    <glyph glyph-name="softhyphen" unicode="&#xad;" horiz-adv-x="410" 
d="M370 262h-330v85h330v-85z" />
    <glyph glyph-name="registered" unicode="&#xae;" horiz-adv-x="542" 
d="M271 662q95 0 158 -64t63 -157t-63.5 -156.5t-157.5 -63.5q-95 0 -158 62.5t-63 157.5q0 93 63 157t158 64zM271 262q75 0 127.5 51.5t52.5 127.5q0 74 -52.5 126.5t-127.5 52.5q-76 0 -128 -52t-52 -127q0 -74 52 -126.5t128 -52.5zM369 484q0 -56 -49 -73
q21 -27 64 -88h-53q-41 58 -62 82h-41v-82h-46v237h95q37 0 64.5 -18.5t27.5 -57.5zM228 448h47q46 0 46 36q0 34 -48 34h-45v-70z" />
    <glyph glyph-name="macron" unicode="&#xaf;" horiz-adv-x="334" 
d="M304 615h-274v77h274v-77z" />
    <glyph glyph-name="degree" unicode="&#xb0;" horiz-adv-x="350" 
d="M135 514q-52 0 -88.5 36.5t-36.5 88.5t36.5 88.5t88.5 36.5t88.5 -36.5t36.5 -88.5t-36.5 -88.5t-88.5 -36.5zM135 572q28 0 47.5 19.5t19.5 47.5t-19.5 47.5t-47.5 19.5t-47.5 -19.5t-19.5 -47.5t19.5 -47.5t47.5 -19.5z" />
    <glyph glyph-name="plusminus" unicode="&#xb1;" horiz-adv-x="513" 
d="M299 142h-85v124h-162v85h162v150h85v-150h162v-85h-162v-124zM461 0h-409v85h409v-85z" />
    <glyph glyph-name="twosuperior" unicode="&#xb2;" 
d="M202 753q-56 0 -122 -23v-66q69 24 115 24q68 0 68 -49q0 -73 -194 -204v-52h273v62h-156q68 41 108 92.5t40 102.5q0 113 -132 113z" />
    <glyph glyph-name="threesuperior" unicode="&#xb3;" 
d="M330 689l-102 -86q123 -10 123 -104q0 -62 -45 -93t-120 -31q-56 0 -121 17v66q66 -18 119 -18q96 0 96 57q0 29 -29.5 39.5t-87.5 10.5h-39v44l97 91h-154v62h263v-55z" />
    <glyph glyph-name="acute" unicode="&#xb4;" horiz-adv-x="240" 
d="M109 591h-79l74 145h106z" />
    <glyph glyph-name="uni00B5" unicode="&#xb5;" horiz-adv-x="629" 
d="M554 0h-66l-13 47q-100 -59 -210 -59q-54 0 -100 22v-210h-90v713h90v-303q0 -79 33.5 -108.5t98.5 -29.5q91 0 167 51v390h90v-513z" />
    <glyph glyph-name="paragraph" unicode="&#xb6;" horiz-adv-x="582" 
d="M502 -75h-88v648h-91v-648h-88v330q-195 17 -195 195q0 200 250 200h212v-725z" />
    <glyph glyph-name="periodcentered" unicode="&#xb7;" horiz-adv-x="200" 
d="M150 257h-100v97h100v-97z" />
    <glyph glyph-name="cedilla" unicode="&#xb8;" horiz-adv-x="260" 
d="M167 5l-13 -44q76 -8 76 -75q0 -93 -112 -93q-42 0 -88 13v67q52 -16 89 -16q41 0 41 30q0 25 -45 25q-22 0 -40 -3l31 96h61z" />
    <glyph glyph-name="onesuperior" unicode="&#xb9;" 
d="M204 384v284l-104 -24v62l171 46v-368h-67z" />
    <glyph glyph-name="ordmasculine" unicode="&#xba;" horiz-adv-x="549" 
d="M275 661q97 0 163 -59t66 -165q0 -107 -66 -165t-164 -58q-97 0 -163 58t-66 165q0 106 66 165t164 59zM275 583q-63 0 -103 -40t-40 -106q0 -61 37 -102t107 -41q69 0 105.5 41t36.5 102q0 66 -40.5 106t-102.5 40zM473 0h-397v85h397v-85z" />
    <glyph glyph-name="guillemotright" unicode="&#xbb;" horiz-adv-x="509" 
d="M247 271l-107 -197h-75l98 192l-97 197h75zM444 271l-107 -197h-75l98 192l-97 197h74z" />
    <glyph glyph-name="onequarter" unicode="&#xbc;" horiz-adv-x="869" 
d="M204 284v284l-104 -24v62l171 46v-368h-67zM319 0h-99l337 650h97zM838 84h-59v-84h-65v84h-211v49q79 125 166 227h86q-97 -107 -168 -214h127v107h65v-107h59v-62z" />
    <glyph glyph-name="onehalf" unicode="&#xbd;" horiz-adv-x="896" 
d="M204 284v284l-104 -24v62l171 46v-368h-67zM319 0h-99l337 650h97zM698 369q-56 0 -122 -23v-66q69 24 115 24q68 0 68 -49q0 -73 -194 -204v-52h273v62h-156q68 41 108 92.5t40 102.5q0 113 -132 113z" />
    <glyph glyph-name="threequarters" unicode="&#xbe;" horiz-adv-x="872" 
d="M330 595l-102 -86q123 -10 123 -104q0 -62 -45 -93t-120 -31q-56 0 -121 17v66q66 -18 119 -18q96 0 96 57q0 29 -29.5 39.5t-87.5 10.5h-39v44l97 91h-154v62h263v-55zM223 0h99l335 650h-97zM841 84h-59v-84h-65v84h-211v49q79 125 166 227h86q-97 -107 -168 -214h127
v107h65v-107h59v-62z" />
    <glyph glyph-name="questiondown" unicode="&#xbf;" horiz-adv-x="555" 
d="M284 513h100v-97h-100v97zM303 -149q-270 0 -270 177q0 53 26.5 88t63.5 52.5t74.5 34t64 46.5t26.5 76v30h88v-41q0 -43 -18.5 -78t-47 -55t-61 -39.5t-61 -33.5t-47 -34t-18.5 -44q0 -94 182 -94q97 0 216 47v-89q-116 -43 -218 -43z" />
    <glyph glyph-name="Agrave" unicode="&#xc0;" horiz-adv-x="663" 
d="M300 710l-101 145h106l74 -145h-79zM668 0h-98q-31 94 -60 168h-354q-40 -101 -60 -168h-101q65 197 151 388t130 262h111q20 -32 59 -108.5t104.5 -230.5t117.5 -311zM190 252h287q-79 197 -144 313q-65 -122 -143 -313z" />
    <glyph glyph-name="Aacute" unicode="&#xc1;" horiz-adv-x="663" 
d="M368 710h-79l74 145h106zM668 0h-98q-31 94 -60 168h-354q-40 -101 -60 -168h-101q65 197 151 388t130 262h111q20 -32 59 -108.5t104.5 -230.5t117.5 -311zM190 252h287q-79 197 -144 313q-65 -122 -143 -313z" />
    <glyph glyph-name="Acircumflex" unicode="&#xc2;" horiz-adv-x="663" 
d="M257 710h-81l101 145h110l101 -145h-81l-75 86zM668 0h-98q-31 94 -60 168h-354q-40 -101 -60 -168h-101q65 197 151 388t130 262h111q20 -32 59 -108.5t104.5 -230.5t117.5 -311zM190 252h287q-79 197 -144 313q-65 -122 -143 -313z" />
    <glyph glyph-name="Atilde" unicode="&#xc3;" horiz-adv-x="663" 
d="M272 764q-16 0 -23 -7t-11 -23h-60q6 44 30 70.5t64 26.5q22 0 59.5 -13.5t54.5 -13.5q30 0 34 30h60q-6 -44 -30 -70.5t-64 -26.5q-19 0 -59 13.5t-55 13.5zM668 0h-98q-31 94 -60 168h-354q-40 -101 -60 -168h-101q65 197 151 388t130 262h111q20 -32 59 -108.5
t104.5 -230.5t117.5 -311zM190 252h287q-79 197 -144 313q-65 -122 -143 -313z" />
    <glyph glyph-name="Adieresis" unicode="&#xc4;" horiz-adv-x="663" 
d="M283 707h-100v98h100v-98zM481 707h-100v98h100v-98zM668 0h-98q-31 94 -60 168h-354q-40 -101 -60 -168h-101q65 197 151 388t130 262h111q20 -32 59 -108.5t104.5 -230.5t117.5 -311zM190 252h287q-79 197 -144 313q-65 -122 -143 -313z" />
    <glyph glyph-name="Aring" unicode="&#xc5;" horiz-adv-x="663" 
d="M332 711q-48 0 -74.5 23.5t-26.5 62.5t26.5 62.5t74.5 23.5t74.5 -23.5t26.5 -62.5t-26.5 -62.5t-74.5 -23.5zM332 837q-52 0 -52 -40t52 -40t52 40t-52 40zM668 0h-98q-31 94 -60 168h-354q-40 -101 -60 -168h-101q65 197 151 388t130 262h111q20 -32 59 -108.5
t104.5 -230.5t117.5 -311zM190 252h287q-79 197 -144 313q-65 -122 -143 -313z" />
    <glyph glyph-name="AE" unicode="&#xc6;" horiz-adv-x="955" 
d="M568 564v-187h300v-85h-300v-206h327v-86h-421v179h-275q-42 -68 -104 -179h-110q119 209 237.5 378.5t208.5 271.5h464v-86h-327zM473 265v303q-117 -140 -221 -303h221z" />
    <glyph glyph-name="Ccedilla" unicode="&#xc7;" horiz-adv-x="704" 
d="M434 -12h-5l-8 -27q76 -8 76 -75q0 -93 -112 -93q-42 0 -88 13v67q52 -16 89 -16q41 0 41 30q0 25 -45 25q-22 0 -40 -3l27 83q-63 8 -118 30.5t-101.5 61t-73 99t-26.5 136.5q0 85 31.5 152t85.5 108t122.5 62t146.5 21q120 0 213 -42v-98q-101 52 -215 52
q-125 0 -205 -66t-80 -188q0 -64 26 -112.5t69 -76.5t93 -41.5t104 -13.5q61 0 104 9t109 35v-92q-96 -40 -220 -40z" />
    <glyph glyph-name="Egrave" unicode="&#xc8;" horiz-adv-x="599" 
d="M357 710h-79l-101 145h106zM539 564h-365v-187h336v-85h-336v-206h365v-86h-459v650h459v-86z" />
    <glyph glyph-name="Eacute" unicode="&#xc9;" horiz-adv-x="599" 
d="M346 710h-79l74 145h106zM539 564h-365v-187h336v-85h-336v-206h365v-86h-459v650h459v-86z" />
    <glyph glyph-name="Ecircumflex" unicode="&#xca;" horiz-adv-x="599" 
d="M466 710h-81l-75 86l-75 -86h-81l101 145h110zM539 564h-365v-187h336v-85h-336v-206h365v-86h-459v650h459v-86z" />
    <glyph glyph-name="Edieresis" unicode="&#xcb;" horiz-adv-x="599" 
d="M261 707h-100v98h100v-98zM459 707h-100v98h100v-98zM539 564h-365v-187h336v-85h-336v-206h365v-86h-459v650h459v-86z" />
    <glyph glyph-name="Igrave" unicode="&#xcc;" horiz-adv-x="254" 
d="M174 710h-79l-101 145h106zM174 0h-94v650h94v-650z" />
    <glyph glyph-name="Iacute" unicode="&#xcd;" horiz-adv-x="254" 
d="M163 710h-79l74 145h106zM174 0h-94v650h94v-650z" />
    <glyph glyph-name="Icircumflex" unicode="&#xce;" horiz-adv-x="254" 
d="M283 710h-81l-75 86l-75 -86h-81l101 145h110zM174 0h-94v650h94v-650z" />
    <glyph glyph-name="Idieresis" unicode="&#xcf;" horiz-adv-x="254" 
d="M78 707h-100v98h100v-98zM276 707h-100v98h100v-98zM174 0h-94v650h94v-650z" />
    <glyph glyph-name="Eth" unicode="&#xd0;" horiz-adv-x="707" 
d="M80 650h221q74 0 136 -17.5t113 -54.5t79.5 -101.5t28.5 -152.5q0 -84 -30 -148t-82 -101.5t-116 -56t-137 -18.5h-213v293h-80v86h80v271zM174 86h99q141 0 211.5 62.5t70.5 176.5t-66.5 176.5t-206.5 62.5h-108v-185h206v-86h-206v-207z" />
    <glyph glyph-name="Ntilde" unicode="&#xd1;" horiz-adv-x="726" 
d="M458 834h60q-6 -44 -30 -70.5t-64 -26.5q-19 0 -59 13.5t-55 13.5q-16 0 -23 -7t-11 -23h-60q6 44 30 70.5t64 26.5q22 0 59.5 -13.5t54.5 -13.5q30 0 34 30zM646 0h-79l-394 524v-524h-93v650h108l365 -486v486h93v-650z" />
    <glyph glyph-name="Ograve" unicode="&#xd2;" horiz-adv-x="792" 
d="M438 710h-79l-101 145h106zM400 662q162 0 252 -91.5t90 -244.5q0 -154 -94 -246t-247 -92q-161 0 -256 92t-95 246t94.5 245t255.5 91zM400 574q-114 0 -182.5 -63.5t-68.5 -184.5q0 -116 69 -182t183 -66q108 0 176 66.5t68 181.5q0 120 -67 184t-178 64z" />
    <glyph glyph-name="Oacute" unicode="&#xd3;" horiz-adv-x="792" 
d="M427 710h-79l74 145h106zM400 662q162 0 252 -91.5t90 -244.5q0 -154 -94 -246t-247 -92q-161 0 -256 92t-95 246t94.5 245t255.5 91zM400 574q-114 0 -182.5 -63.5t-68.5 -184.5q0 -116 69 -182t183 -66q108 0 176 66.5t68 181.5q0 120 -67 184t-178 64z" />
    <glyph glyph-name="Ocircumflex" unicode="&#xd4;" horiz-adv-x="792" 
d="M547 710h-81l-75 86l-75 -86h-81l101 145h110zM400 662q162 0 252 -91.5t90 -244.5q0 -154 -94 -246t-247 -92q-161 0 -256 92t-95 246t94.5 245t255.5 91zM400 574q-114 0 -182.5 -63.5t-68.5 -184.5q0 -116 69 -182t183 -66q108 0 176 66.5t68 181.5q0 120 -67 184
t-178 64z" />
    <glyph glyph-name="Otilde" unicode="&#xd5;" horiz-adv-x="792" 
d="M479 834h60q-6 -44 -30 -70.5t-64 -26.5q-19 0 -59 13.5t-55 13.5q-27 0 -34 -30h-60q6 44 30 70.5t64 26.5q22 0 59.5 -13.5t54.5 -13.5t24.5 7t9.5 23zM400 662q162 0 252 -91.5t90 -244.5q0 -154 -94 -246t-247 -92q-161 0 -256 92t-95 246t94.5 245t255.5 91z
M400 574q-114 0 -182.5 -63.5t-68.5 -184.5q0 -116 69 -182t183 -66q108 0 176 66.5t68 181.5q0 120 -67 184t-178 64z" />
    <glyph glyph-name="Odieresis" unicode="&#xd6;" horiz-adv-x="792" 
d="M342 707h-100v98h100v-98zM540 707h-100v98h100v-98zM400 662q162 0 252 -91.5t90 -244.5q0 -154 -94 -246t-247 -92q-161 0 -256 92t-95 246t94.5 245t255.5 91zM400 574q-114 0 -182.5 -63.5t-68.5 -184.5q0 -116 69 -182t183 -66q108 0 176 66.5t68 181.5
q0 120 -67 184t-178 64z" />
    <glyph glyph-name="multiply" unicode="&#xd7;" horiz-adv-x="509" 
d="M436 177l-60 -60l-121 121l-122 -121l-60 60l121 122l-121 121l60 60l122 -121l121 121l60 -60l-121 -121z" />
    <glyph glyph-name="Oslash" unicode="&#xd8;" horiz-adv-x="792" 
d="M698 617l-42 -50q86 -91 86 -241q0 -154 -94 -246t-247 -92q-112 0 -193 46l-52 -62l-62 52l49 58q-93 91 -93 244q0 154 94.5 245t255.5 91q112 0 192 -46l44 53zM149 326q0 -102 57 -169l325 387q-55 30 -131 30q-114 0 -182.5 -63.5t-68.5 -184.5zM401 78
q108 0 176 66.5t68 181.5q0 104 -51 167l-324 -386q56 -29 131 -29z" />
    <glyph glyph-name="Ugrave" unicode="&#xd9;" horiz-adv-x="718" 
d="M396 710h-79l-101 145h106zM638 650v-371q0 -62 -14 -111.5t-45 -91.5t-88 -65t-136 -23q-78 0 -134.5 23t-87.5 65t-44.5 91.5t-13.5 111.5v371h94v-372q0 -202 186 -202q189 0 189 202v372h94z" />
    <glyph glyph-name="Uacute" unicode="&#xda;" horiz-adv-x="718" 
d="M385 710h-79l74 145h106zM638 650v-371q0 -62 -14 -111.5t-45 -91.5t-88 -65t-136 -23q-78 0 -134.5 23t-87.5 65t-44.5 91.5t-13.5 111.5v371h94v-372q0 -202 186 -202q189 0 189 202v372h94z" />
    <glyph glyph-name="Ucircumflex" unicode="&#xdb;" horiz-adv-x="718" 
d="M505 710h-81l-75 86l-75 -86h-81l101 145h110zM638 650v-371q0 -62 -14 -111.5t-45 -91.5t-88 -65t-136 -23q-78 0 -134.5 23t-87.5 65t-44.5 91.5t-13.5 111.5v371h94v-372q0 -202 186 -202q189 0 189 202v372h94z" />
    <glyph glyph-name="Udieresis" unicode="&#xdc;" horiz-adv-x="718" 
d="M300 707h-100v98h100v-98zM498 707h-100v98h100v-98zM638 650v-371q0 -62 -14 -111.5t-45 -91.5t-88 -65t-136 -23q-78 0 -134.5 23t-87.5 65t-44.5 91.5t-13.5 111.5v371h94v-372q0 -202 186 -202q189 0 189 202v372h94z" />
    <glyph glyph-name="Yacute" unicode="&#xdd;" horiz-adv-x="606" 
d="M336 710h-79l74 145h106zM498 650h113q-63 -121 -143 -250t-118 -180v-220h-94v220q-38 50 -117 178t-144 252h110q83 -166 198 -344q102 155 195 344z" />
    <glyph glyph-name="Thorn" unicode="&#xde;" horiz-adv-x="633" 
d="M174 544h176q27 0 55.5 -4.5t63.5 -19t61.5 -37.5t44.5 -64t18 -94t-18 -93.5t-44.5 -63.5t-61 -38t-63.5 -19.5t-56 -4.5h-176v-106h-94v650h94v-106zM174 458v-266h164q66 0 110.5 31t44.5 101q0 71 -44 102.5t-111 31.5h-164z" />
    <glyph glyph-name="germandbls" unicode="&#xdf;" horiz-adv-x="576" 
d="M255 723q89 0 138.5 -41t49.5 -117q0 -36 -12.5 -63t-30.5 -42.5t-36.5 -27t-31 -24t-12.5 -27.5q0 -16 11 -25.5t48 -23.5l65 -25q56 -21 84 -56.5t28 -93.5q0 -82 -50.5 -125.5t-144.5 -43.5q-62 0 -141 28v96q26 -18 67 -29t75 -11q100 0 100 85q0 50 -69 76l-87 32
q-80 30 -80 111q0 35 12.5 58.5t31 35t36.5 21.5t30.5 28t12.5 46q0 74 -98 74q-46 0 -66 -21.5t-20 -69.5v-548h-90v546q0 93 44 135t136 42z" />
    <glyph glyph-name="agrave" unicode="&#xe0;" horiz-adv-x="603" 
d="M265 591l-101 145h106l74 -145h-79zM286 524q125 0 183.5 -50.5t58.5 -170.5v-303h-68l-12 47q-87 -59 -192 -59q-88 0 -145.5 44.5t-57.5 126.5q0 86 62 126.5t154 40.5q97 0 169 -36v30q0 36 -12.5 61t-36.5 37t-50.5 17t-62.5 5q-83 0 -191 -35v89q100 30 201 30z
M148 160q0 -48 35.5 -69t88.5 -21q84 0 166 52v93q-68 36 -158 36q-132 0 -132 -91z" />
    <glyph glyph-name="aacute" unicode="&#xe1;" horiz-adv-x="603" 
d="M339 591h-79l74 145h106zM286 524q125 0 183.5 -50.5t58.5 -170.5v-303h-68l-12 47q-87 -59 -192 -59q-88 0 -145.5 44.5t-57.5 126.5q0 86 62 126.5t154 40.5q97 0 169 -36v30q0 36 -12.5 61t-36.5 37t-50.5 17t-62.5 5q-83 0 -191 -35v89q100 30 201 30zM148 160
q0 -48 35.5 -69t88.5 -21q84 0 166 52v93q-68 36 -158 36q-132 0 -132 -91z" />
    <glyph glyph-name="acircumflex" unicode="&#xe2;" horiz-adv-x="603" 
d="M225 591h-81l101 145h110l101 -145h-81l-75 86zM286 524q125 0 183.5 -50.5t58.5 -170.5v-303h-68l-12 47q-87 -59 -192 -59q-88 0 -145.5 44.5t-57.5 126.5q0 86 62 126.5t154 40.5q97 0 169 -36v30q0 36 -12.5 61t-36.5 37t-50.5 17t-62.5 5q-83 0 -191 -35v89
q100 30 201 30zM148 160q0 -48 35.5 -69t88.5 -21q84 0 166 52v93q-68 36 -158 36q-132 0 -132 -91z" />
    <glyph glyph-name="atilde" unicode="&#xe3;" horiz-adv-x="603" 
d="M243 644q-27 0 -34 -30h-60q6 44 30 70.5t64 26.5q22 0 59.5 -13.5t54.5 -13.5t24.5 7t9.5 23h60q-6 -44 -30 -70.5t-64 -26.5q-19 0 -59 13.5t-55 13.5zM286 524q125 0 183.5 -50.5t58.5 -170.5v-303h-68l-12 47q-87 -59 -192 -59q-88 0 -145.5 44.5t-57.5 126.5
q0 86 62 126.5t154 40.5q97 0 169 -36v30q0 36 -12.5 61t-36.5 37t-50.5 17t-62.5 5q-83 0 -191 -35v89q100 30 201 30zM148 160q0 -48 35.5 -69t88.5 -21q84 0 166 52v93q-68 36 -158 36q-132 0 -132 -91z" />
    <glyph glyph-name="adieresis" unicode="&#xe4;" horiz-adv-x="603" 
d="M250 588h-98v96h98v-96zM448 588h-98v96h98v-96zM286 524q125 0 183.5 -50.5t58.5 -170.5v-303h-68l-12 47q-87 -59 -192 -59q-88 0 -145.5 44.5t-57.5 126.5q0 86 62 126.5t154 40.5q97 0 169 -36v30q0 36 -12.5 61t-36.5 37t-50.5 17t-62.5 5q-83 0 -191 -35v89
q100 30 201 30zM148 160q0 -48 35.5 -69t88.5 -21q84 0 166 52v93q-68 36 -158 36q-132 0 -132 -91z" />
    <glyph glyph-name="aring" unicode="&#xe5;" horiz-adv-x="603" 
d="M297 580q-48 0 -74.5 23.5t-26.5 62.5t26.5 62.5t74.5 23.5t74.5 -23.5t26.5 -62.5t-26.5 -62.5t-74.5 -23.5zM297 706q-52 0 -52 -40t52 -40t52 40t-52 40zM286 524q125 0 183.5 -50.5t58.5 -170.5v-303h-68l-12 47q-87 -59 -192 -59q-88 0 -145.5 44.5t-57.5 126.5
q0 86 62 126.5t154 40.5q97 0 169 -36v30q0 36 -12.5 61t-36.5 37t-50.5 17t-62.5 5q-83 0 -191 -35v89q100 30 201 30zM148 160q0 -48 35.5 -69t88.5 -21q84 0 166 52v93q-68 36 -158 36q-132 0 -132 -91z" />
    <glyph glyph-name="ae" unicode="&#xe6;" horiz-adv-x="977" 
d="M703 524q106 0 166.5 -66t60.5 -182v-53h-402q13 -151 189 -151q52 0 90.5 8t112.5 30v-87q-99 -35 -207 -35q-143 0 -217 87q-74 -48 -127 -67.5t-113 -19.5q-88 0 -145.5 44.5t-57.5 126.5q0 86 62 126.5t154 40.5q97 0 169 -36v30q0 36 -12.5 61t-36.5 37t-50.5 17
t-62.5 5q-83 0 -191 -35v89q100 30 201 30q160 0 210 -86q74 86 207 86zM701 440q-66 0 -114.5 -35.5t-54.5 -103.5h306q-2 62 -36.5 100.5t-100.5 38.5zM280 251q-132 0 -132 -91q0 -48 35.5 -69t88.5 -21q97 0 187 65q-15 38 -19 79q-75 37 -160 37z" />
    <glyph glyph-name="ccedilla" unicode="&#xe7;" horiz-adv-x="553" 
d="M508 106v-89q-89 -27 -162 -29l-8 -27q76 -8 76 -75q0 -93 -112 -93q-42 0 -88 13v67q52 -16 89 -16q41 0 41 30q0 25 -45 25q-22 0 -40 -3l26 82q-105 13 -172.5 83t-67.5 182q0 124 81 196t201 72q57 0 90.5 -6.5t82.5 -24.5v-89q-96 36 -163 36q-85 0 -141.5 -48
t-56.5 -138q0 -75 53.5 -128.5t144.5 -53.5q16 0 29 0.5t27.5 3t21 3t23.5 5.5t20 6t25 8t25 8z" />
    <glyph glyph-name="egrave" unicode="&#xe8;" horiz-adv-x="584" 
d="M267 591l-101 145h106l74 -145h-79zM537 223h-402q13 -151 189 -151q52 0 90.5 8t112.5 30v-87q-99 -35 -207 -35q-117 0 -196 66t-79 199q0 70 22 124t60 85t84 46.5t99 15.5q106 0 166.5 -66t60.5 -182v-53zM139 300h306q-2 62 -36.5 101t-100.5 39t-114.5 -35.5
t-54.5 -104.5z" />
    <glyph glyph-name="eacute" unicode="&#xe9;" horiz-adv-x="584" 
d="M341 591h-79l74 145h106zM537 223h-402q13 -151 189 -151q52 0 90.5 8t112.5 30v-87q-99 -35 -207 -35q-117 0 -196 66t-79 199q0 70 22 124t60 85t84 46.5t99 15.5q106 0 166.5 -66t60.5 -182v-53zM139 300h306q-2 62 -36.5 101t-100.5 39t-114.5 -35.5t-54.5 -104.5z
" />
    <glyph glyph-name="ecircumflex" unicode="&#xea;" horiz-adv-x="584" 
d="M227 591h-81l101 145h110l101 -145h-81l-75 86zM537 223h-402q13 -151 189 -151q52 0 90.5 8t112.5 30v-87q-99 -35 -207 -35q-117 0 -196 66t-79 199q0 70 22 124t60 85t84 46.5t99 15.5q106 0 166.5 -66t60.5 -182v-53zM139 300h306q-2 62 -36.5 101t-100.5 39
t-114.5 -35.5t-54.5 -104.5z" />
    <glyph glyph-name="edieresis" unicode="&#xeb;" horiz-adv-x="584" 
d="M252 588h-98v96h98v-96zM450 588h-98v96h98v-96zM537 223h-402q13 -151 189 -151q52 0 90.5 8t112.5 30v-87q-99 -35 -207 -35q-117 0 -196 66t-79 199q0 70 22 124t60 85t84 46.5t99 15.5q106 0 166.5 -66t60.5 -182v-53zM139 300h306q-2 62 -36.5 101t-100.5 39
t-114.5 -35.5t-54.5 -104.5z" />
    <glyph glyph-name="igrave" unicode="&#xec;" horiz-adv-x="240" 
d="M164 591h-79l-101 145h106zM165 0h-90v513h90v-513z" />
    <glyph glyph-name="iacute" unicode="&#xed;" horiz-adv-x="240" 
d="M159 591h-79l74 145h106zM165 0h-90v513h90v-513z" />
    <glyph glyph-name="icircumflex" unicode="&#xee;" horiz-adv-x="240" 
d="M120 677l-75 -86h-81l101 145h110l101 -145h-81zM165 0h-90v513h90v-513z" />
    <glyph glyph-name="idieresis" unicode="&#xef;" horiz-adv-x="240" 
d="M70 588h-98v96h98v-96zM268 588h-98v96h98v-96zM165 0h-90v513h90v-513z" />
    <glyph glyph-name="eth" unicode="&#xf0;" horiz-adv-x="640" 
d="M534 669l-64 -45q125 -103 125 -329q0 -155 -78 -231t-198 -76q-115 0 -194.5 66.5t-79.5 180.5q0 122 71.5 185.5t174.5 63.5q106 0 196 -59q-22 96 -89 150l-71 -50l-37 54l46 32q-50 22 -125 36l24 76q107 -22 177 -59l85 59zM321 73q90 0 135 58.5t45 163.5l-1 32
q-51 41 -96 57t-104 16q-67 0 -114 -43.5t-47 -121.5q0 -64 47.5 -113t134.5 -49z" />
    <glyph glyph-name="ntilde" unicode="&#xf1;" horiz-adv-x="645" 
d="M264 644q-16 0 -23 -7t-11 -23h-60q6 44 30 70.5t64 26.5q22 0 59.5 -13.5t54.5 -13.5q30 0 34 30h60q-6 -44 -30 -70.5t-64 -26.5q-19 0 -59 13.5t-55 13.5zM367 524q103 0 153 -44t50 -156v-324h-90v308q0 72 -27 101t-106 29q-48 0 -99.5 -19.5t-82.5 -44.5v-374h-90
v513h66l15 -59q33 25 92.5 47.5t118.5 22.5z" />
    <glyph glyph-name="ograve" unicode="&#xf2;" horiz-adv-x="640" 
d="M364 591h-79l-101 145h106zM320 524q116 0 195.5 -71t79.5 -198q0 -128 -79.5 -197.5t-196.5 -69.5q-116 0 -195 69.5t-79 197.5q0 127 79.5 198t195.5 71zM320 440q-79 0 -130 -50.5t-51 -134.5q0 -78 46.5 -130t135.5 -52q87 0 133.5 52.5t46.5 129.5q0 84 -51 134.5
t-130 50.5z" />
    <glyph glyph-name="oacute" unicode="&#xf3;" horiz-adv-x="640" 
d="M359 591h-79l74 145h106zM320 524q116 0 195.5 -71t79.5 -198q0 -128 -79.5 -197.5t-196.5 -69.5q-116 0 -195 69.5t-79 197.5q0 127 79.5 198t195.5 71zM320 440q-79 0 -130 -50.5t-51 -134.5q0 -78 46.5 -130t135.5 -52q87 0 133.5 52.5t46.5 129.5q0 84 -51 134.5
t-130 50.5z" />
    <glyph glyph-name="ocircumflex" unicode="&#xf4;" horiz-adv-x="640" 
d="M320 677l-75 -86h-81l101 145h110l101 -145h-81zM320 524q116 0 195.5 -71t79.5 -198q0 -128 -79.5 -197.5t-196.5 -69.5q-116 0 -195 69.5t-79 197.5q0 127 79.5 198t195.5 71zM320 440q-79 0 -130 -50.5t-51 -134.5q0 -78 46.5 -130t135.5 -52q87 0 133.5 52.5
t46.5 129.5q0 84 -51 134.5t-130 50.5z" />
    <glyph glyph-name="otilde" unicode="&#xf5;" horiz-adv-x="640" 
d="M411 714h60q-6 -44 -30 -70.5t-64 -26.5q-19 0 -59 13.5t-55 13.5q-27 0 -34 -30h-60q6 44 30 70.5t64 26.5q22 0 59.5 -13.5t54.5 -13.5t24.5 7t9.5 23zM320 524q116 0 195.5 -71t79.5 -198q0 -128 -79.5 -197.5t-196.5 -69.5q-116 0 -195 69.5t-79 197.5
q0 127 79.5 198t195.5 71zM320 440q-79 0 -130 -50.5t-51 -134.5q0 -78 46.5 -130t135.5 -52q87 0 133.5 52.5t46.5 129.5q0 84 -51 134.5t-130 50.5z" />
    <glyph glyph-name="odieresis" unicode="&#xf6;" horiz-adv-x="640" 
d="M270 588h-98v96h98v-96zM468 588h-98v96h98v-96zM320 524q116 0 195.5 -71t79.5 -198q0 -128 -79.5 -197.5t-196.5 -69.5q-116 0 -195 69.5t-79 197.5q0 127 79.5 198t195.5 71zM320 440q-79 0 -130 -50.5t-51 -134.5q0 -78 46.5 -130t135.5 -52q87 0 133.5 52.5
t46.5 129.5q0 84 -51 134.5t-130 50.5z" />
    <glyph glyph-name="divide" unicode="&#xf7;" horiz-adv-x="510" 
d="M304 416h-100v97h100v-97zM40 341h430v-85h-430v85zM304 84h-100v97h100v-97z" />
    <glyph glyph-name="oslash" unicode="&#xf8;" horiz-adv-x="640" 
d="M566 489l-39 -47q68 -73 68 -187q0 -128 -79.5 -197.5t-196.5 -69.5q-81 0 -145 34l-40 -48l-60 47l39 47q-68 71 -68 187q0 127 79.5 198t195.5 71q81 0 146 -36l40 48zM139 255q0 -68 35 -115l234 280q-38 20 -88 20q-79 0 -130 -50.5t-51 -134.5zM321 73
q87 0 133.5 52.5t46.5 129.5q0 67 -35 115l-234 -279q39 -18 89 -18z" />
    <glyph glyph-name="ugrave" unicode="&#xf9;" horiz-adv-x="639" 
d="M285 591l-101 145h106l74 -145h-79zM564 513v-513h-66l-13 47q-100 -59 -220 -59q-83 0 -136.5 48.5t-53.5 149.5v327h90v-303q0 -79 33.5 -108.5t98.5 -29.5q101 0 177 51v390h90z" />
    <glyph glyph-name="uacute" unicode="&#xfa;" horiz-adv-x="639" 
d="M359 591h-79l74 145h106zM564 513v-513h-66l-13 47q-100 -59 -220 -59q-83 0 -136.5 48.5t-53.5 149.5v327h90v-303q0 -79 33.5 -108.5t98.5 -29.5q101 0 177 51v390h90z" />
    <glyph glyph-name="ucircumflex" unicode="&#xfb;" horiz-adv-x="639" 
d="M245 591h-81l101 145h110l101 -145h-81l-75 86zM564 513v-513h-66l-13 47q-100 -59 -220 -59q-83 0 -136.5 48.5t-53.5 149.5v327h90v-303q0 -79 33.5 -108.5t98.5 -29.5q101 0 177 51v390h90z" />
    <glyph glyph-name="udieresis" unicode="&#xfc;" horiz-adv-x="639" 
d="M270 588h-98v96h98v-96zM468 588h-98v96h98v-96zM564 513v-513h-66l-13 47q-100 -59 -220 -59q-83 0 -136.5 48.5t-53.5 149.5v327h90v-303q0 -79 33.5 -108.5t98.5 -29.5q101 0 177 51v390h90z" />
    <glyph glyph-name="yacute" unicode="&#xfd;" horiz-adv-x="541" 
d="M296 591h-79l74 145h106zM446 513h105q-120 -329 -343 -713h-104q12 22 55 97.5t65 115.5q-142 256 -234 500h100q73 -201 185 -404q92 182 171 404z" />
    <glyph glyph-name="thorn" unicode="&#xfe;" horiz-adv-x="642" 
d="M339 524q113 0 185.5 -69.5t72.5 -192.5q0 -129 -80 -201.5t-190 -72.5q-84 0 -162 41v-229h-90v891h90v-217q78 50 174 50zM315 72q89 0 138 53t49 134q0 80 -47 131.5t-133 51.5q-90 0 -157 -57v-267q65 -46 150 -46z" />
    <glyph glyph-name="ydieresis" unicode="&#xff;" horiz-adv-x="541" 
d="M207 588h-98v96h98v-96zM405 588h-98v96h98v-96zM446 513h105q-120 -329 -343 -713h-104q12 22 55 97.5t65 115.5q-142 256 -234 500h100q73 -201 185 -404q92 182 171 404z" />
    <glyph glyph-name="Amacron" unicode="&#x100;" horiz-adv-x="663" 
d="M469 716h-274v77h274v-77zM668 0h-98q-31 94 -60 168h-354q-40 -101 -60 -168h-101q65 197 151 388t130 262h111q20 -32 59 -108.5t104.5 -230.5t117.5 -311zM190 252h287q-79 197 -144 313q-65 -122 -143 -313z" />
    <glyph glyph-name="amacron" unicode="&#x101;" horiz-adv-x="603" 
d="M437 615h-274v77h274v-77zM286 524q125 0 183.5 -50.5t58.5 -170.5v-303h-68l-12 47q-87 -59 -192 -59q-88 0 -145.5 44.5t-57.5 126.5q0 86 62 126.5t154 40.5q97 0 169 -36v30q0 36 -12.5 61t-36.5 37t-50.5 17t-62.5 5q-83 0 -191 -35v89q100 30 201 30zM148 160
q0 -48 35.5 -69t88.5 -21q84 0 166 52v93q-68 36 -158 36q-132 0 -132 -91z" />
    <glyph glyph-name="Abreve" unicode="&#x102;" horiz-adv-x="663" 
d="M332 708q-129 0 -142 119h77q7 -53 65 -53t65 53h77q-13 -119 -142 -119zM668 0h-98q-31 94 -60 168h-354q-40 -101 -60 -168h-101q65 197 151 388t130 262h111q20 -32 59 -108.5t104.5 -230.5t117.5 -311zM190 252h287q-79 197 -144 313q-65 -122 -143 -313z" />
    <glyph glyph-name="abreve" unicode="&#x103;" horiz-adv-x="603" 
d="M302 593q-129 0 -142 119h77q7 -53 65 -53t65 53h77q-13 -119 -142 -119zM286 524q125 0 183.5 -50.5t58.5 -170.5v-303h-68l-12 47q-87 -59 -192 -59q-88 0 -145.5 44.5t-57.5 126.5q0 86 62 126.5t154 40.5q97 0 169 -36v30q0 36 -12.5 61t-36.5 37t-50.5 17t-62.5 5
q-83 0 -191 -35v89q100 30 201 30zM148 160q0 -48 35.5 -69t88.5 -21q84 0 166 52v93q-68 36 -158 36q-132 0 -132 -91z" />
    <glyph glyph-name="Aogonek" unicode="&#x104;" horiz-adv-x="663" 
d="M573 -117q35 0 81 23l1 -68q-45 -20 -90 -20q-94 0 -94 73q0 38 31.5 68.5t66.5 44.5q-31 90 -59 164h-354q-40 -101 -60 -168h-101q65 197 151 388t130 262h111q20 -32 59 -108.5t104.5 -230.5t117.5 -311h-22q-46 -21 -73.5 -45.5t-27.5 -46.5q0 -25 28 -25zM190 252
h287q-79 197 -144 313q-65 -122 -143 -313z" />
    <glyph glyph-name="aogonek" unicode="&#x105;" horiz-adv-x="603" 
d="M544 -94l1 -68q-45 -20 -90 -20q-94 0 -94 73q0 38 31.5 68.5t66.5 44.5l-11 43q-87 -59 -192 -59q-88 0 -145.5 44.5t-57.5 126.5q0 86 62 126.5t154 40.5q97 0 169 -36v30q0 36 -12.5 61t-36.5 37t-50.5 17t-62.5 5q-83 0 -191 -35v89q100 30 201 30q125 0 183.5 -50.5
t58.5 -170.5v-303q-93 -49 -93 -92q0 -25 28 -25q35 0 81 23zM148 160q0 -48 35.5 -69t88.5 -21q84 0 166 52v93q-68 36 -158 36q-132 0 -132 -91z" />
    <glyph glyph-name="Cacute" unicode="&#x106;" horiz-adv-x="704" 
d="M443 710h-79l74 145h106zM436 662q120 0 213 -42v-98q-101 52 -215 52q-125 0 -205 -66t-80 -188q0 -64 26 -112.5t69 -76.5t93 -41.5t104 -13.5q61 0 104 9t109 35v-92q-96 -40 -220 -40q-56 0 -109.5 11t-104 36.5t-88 63t-60 94.5t-22.5 126q0 85 31.5 152t85.5 108
t122.5 62t146.5 21z" />
    <glyph glyph-name="cacute" unicode="&#x107;" horiz-adv-x="553" 
d="M355 591h-79l74 145h106zM327 524q57 0 90.5 -6.5t82.5 -24.5v-89q-96 36 -163 36q-85 0 -141.5 -48t-56.5 -138q0 -75 53.5 -128.5t144.5 -53.5q16 0 29 0.5t27.5 3t21 3t23.5 5.5t20 6t25 8t25 8v-89q-97 -29 -179 -29q-121 0 -202.5 72t-81.5 196t81 196t201 72z" />
    <glyph glyph-name="Ccircumflex" unicode="&#x108;" horiz-adv-x="704" 
d="M563 710h-81l-75 86l-75 -86h-81l101 145h110zM436 662q120 0 213 -42v-98q-101 52 -215 52q-125 0 -205 -66t-80 -188q0 -64 26 -112.5t69 -76.5t93 -41.5t104 -13.5q61 0 104 9t109 35v-92q-96 -40 -220 -40q-56 0 -109.5 11t-104 36.5t-88 63t-60 94.5t-22.5 126
q0 85 31.5 152t85.5 108t122.5 62t146.5 21z" />
    <glyph glyph-name="ccircumflex" unicode="&#x109;" horiz-adv-x="553" 
d="M316 677l-75 -86h-81l101 145h110l101 -145h-81zM327 524q57 0 90.5 -6.5t82.5 -24.5v-89q-96 36 -163 36q-85 0 -141.5 -48t-56.5 -138q0 -75 53.5 -128.5t144.5 -53.5q16 0 29 0.5t27.5 3t21 3t23.5 5.5t20 6t25 8t25 8v-89q-97 -29 -179 -29q-121 0 -202.5 72
t-81.5 196t81 196t201 72z" />
    <glyph glyph-name="Cdotaccent" unicode="&#x10a;" horiz-adv-x="704" 
d="M457 707h-100v98h100v-98zM436 662q120 0 213 -42v-98q-101 52 -215 52q-125 0 -205 -66t-80 -188q0 -64 26 -112.5t69 -76.5t93 -41.5t104 -13.5q61 0 104 9t109 35v-92q-96 -40 -220 -40q-56 0 -109.5 11t-104 36.5t-88 63t-60 94.5t-22.5 126q0 85 31.5 152t85.5 108
t122.5 62t146.5 21z" />
    <glyph glyph-name="cdotaccent" unicode="&#x10b;" horiz-adv-x="553" 
d="M365 588h-98v96h98v-96zM327 524q57 0 90.5 -6.5t82.5 -24.5v-89q-96 36 -163 36q-85 0 -141.5 -48t-56.5 -138q0 -75 53.5 -128.5t144.5 -53.5q16 0 29 0.5t27.5 3t21 3t23.5 5.5t20 6t25 8t25 8v-89q-97 -29 -179 -29q-121 0 -202.5 72t-81.5 196t81 196t201 72z" />
    <glyph glyph-name="Ccaron" unicode="&#x10c;" horiz-adv-x="704" 
d="M462 710h-110l-101 145h81l75 -86l75 86h81zM436 662q120 0 213 -42v-98q-101 52 -215 52q-125 0 -205 -66t-80 -188q0 -64 26 -112.5t69 -76.5t93 -41.5t104 -13.5q61 0 104 9t109 35v-92q-96 -40 -220 -40q-56 0 -109.5 11t-104 36.5t-88 63t-60 94.5t-22.5 126
q0 85 31.5 152t85.5 108t122.5 62t146.5 21z" />
    <glyph glyph-name="ccaron" unicode="&#x10d;" horiz-adv-x="553" 
d="M371 591h-110l-101 145h81l75 -86l75 86h81zM327 524q57 0 90.5 -6.5t82.5 -24.5v-89q-96 36 -163 36q-85 0 -141.5 -48t-56.5 -138q0 -75 53.5 -128.5t144.5 -53.5q16 0 29 0.5t27.5 3t21 3t23.5 5.5t20 6t25 8t25 8v-89q-97 -29 -179 -29q-121 0 -202.5 72t-81.5 196
t81 196t201 72z" />
    <glyph glyph-name="Dcaron" unicode="&#x10e;" horiz-adv-x="713" 
d="M378 710h-110l-101 145h81l75 -86l75 86h81zM80 650h221q74 0 136 -17.5t113 -54.5t79.5 -101.5t28.5 -152.5q0 -84 -30 -148t-82 -101.5t-116 -56t-137 -18.5h-213v650zM174 564v-478h99q141 0 211.5 62.5t70.5 176.5t-66.5 176.5t-206.5 62.5h-108z" />
    <glyph glyph-name="dcaron" unicode="&#x10f;" horiz-adv-x="743" 
d="M477 691h90v-691h-65l-10 38q-80 -50 -174 -50q-116 0 -194.5 70t-78.5 196q0 124 79.5 197t195.5 73q93 0 157 -40v207zM748 691l-64 -166h-74l44 166h94zM140 254q0 -87 54.5 -135t133.5 -48t149 47v278q-64 46 -146 46q-80 0 -135.5 -48.5t-55.5 -139.5z" />
    <glyph glyph-name="Dcroat" unicode="&#x110;" horiz-adv-x="707" 
d="M80 650h221q74 0 136 -17.5t113 -54.5t79.5 -101.5t28.5 -152.5q0 -84 -30 -148t-82 -101.5t-116 -56t-137 -18.5h-213v293h-80v86h80v271zM174 86h99q141 0 211.5 62.5t70.5 176.5t-66.5 176.5t-206.5 62.5h-108v-185h206v-86h-206v-207z" />
    <glyph glyph-name="dcroat" unicode="&#x111;" horiz-adv-x="642" 
d="M677 642v-77h-110v-565h-65l-10 38q-80 -50 -174 -50q-116 0 -194.5 70t-78.5 196q0 124 79.5 197t195.5 73q93 0 157 -40v81h-142v77h142v49h90v-49h110zM140 254q0 -87 54.5 -135t133.5 -48t149 47v278q-64 46 -146 46q-80 0 -135.5 -48.5t-55.5 -139.5z" />
    <glyph glyph-name="Emacron" unicode="&#x112;" horiz-adv-x="599" 
d="M447 716h-274v77h274v-77zM539 564h-365v-187h336v-85h-336v-206h365v-86h-459v650h459v-86z" />
    <glyph glyph-name="emacron" unicode="&#x113;" horiz-adv-x="584" 
d="M439 615h-274v77h274v-77zM537 223h-402q13 -151 189 -151q52 0 90.5 8t112.5 30v-87q-99 -35 -207 -35q-117 0 -196 66t-79 199q0 70 22 124t60 85t84 46.5t99 15.5q106 0 166.5 -66t60.5 -182v-53zM139 300h306q-2 62 -36.5 101t-100.5 39t-114.5 -35.5t-54.5 -104.5z
" />
    <glyph glyph-name="Ebreve" unicode="&#x114;" horiz-adv-x="599" 
d="M375 827h77q-13 -119 -142 -119t-142 119h77q7 -53 65 -53t65 53zM539 564h-365v-187h336v-85h-336v-206h365v-86h-459v650h459v-86z" />
    <glyph glyph-name="ebreve" unicode="&#x115;" horiz-adv-x="584" 
d="M304 593q-129 0 -142 119h77q7 -53 65 -53t65 53h77q-13 -119 -142 -119zM537 223h-402q13 -151 189 -151q52 0 90.5 8t112.5 30v-87q-99 -35 -207 -35q-117 0 -196 66t-79 199q0 70 22 124t60 85t84 46.5t99 15.5q106 0 166.5 -66t60.5 -182v-53zM139 300h306
q-2 62 -36.5 101t-100.5 39t-114.5 -35.5t-54.5 -104.5z" />
    <glyph glyph-name="Edotaccent" unicode="&#x116;" horiz-adv-x="599" 
d="M360 707h-100v98h100v-98zM539 564h-365v-187h336v-85h-336v-206h365v-86h-459v650h459v-86z" />
    <glyph glyph-name="edotaccent" unicode="&#x117;" horiz-adv-x="584" 
d="M351 588h-98v96h98v-96zM537 223h-402q13 -151 189 -151q52 0 90.5 8t112.5 30v-87q-99 -35 -207 -35q-117 0 -196 66t-79 199q0 70 22 124t60 85t84 46.5t99 15.5q106 0 166.5 -66t60.5 -182v-53zM139 300h306q-2 62 -36.5 101t-100.5 39t-114.5 -35.5t-54.5 -104.5z
" />
    <glyph glyph-name="Eogonek" unicode="&#x118;" horiz-adv-x="599" 
d="M174 564v-187h336v-85h-336v-206h365v-86h-65q-46 -21 -73.5 -45.5t-27.5 -46.5q0 -25 28 -25q35 0 81 23l1 -68q-45 -20 -90 -20q-94 0 -94 73q0 35 27 63.5t62 45.5h-308v650h459v-86h-365z" />
    <glyph glyph-name="eogonek" unicode="&#x119;" horiz-adv-x="584" 
d="M537 223h-402q13 -151 189 -151q52 0 90.5 8t112.5 30v-87q-24 -9 -70 -19q-49 -21 -79 -46.5t-30 -49.5q0 -25 28 -25q35 0 81 23l1 -68q-45 -20 -90 -20q-94 0 -94 73q0 56 68 97h-22q-117 0 -196 66t-79 199q0 70 22 124t60 85t84 46.5t99 15.5q106 0 166.5 -66
t60.5 -182v-53zM139 300h306q-2 62 -36.5 101t-100.5 39t-114.5 -35.5t-54.5 -104.5z" />
    <glyph glyph-name="Ecaron" unicode="&#x11a;" horiz-adv-x="599" 
d="M365 710h-110l-101 145h81l75 -86l75 86h81zM539 564h-365v-187h336v-85h-336v-206h365v-86h-459v650h459v-86z" />
    <glyph glyph-name="ecaron" unicode="&#x11b;" horiz-adv-x="584" 
d="M247 591l-101 145h81l75 -86l75 86h81l-101 -145h-110zM537 223h-402q13 -151 189 -151q52 0 90.5 8t112.5 30v-87q-99 -35 -207 -35q-117 0 -196 66t-79 199q0 70 22 124t60 85t84 46.5t99 15.5q106 0 166.5 -66t60.5 -182v-53zM139 300h306q-2 62 -36.5 101t-100.5 39
t-114.5 -35.5t-54.5 -104.5z" />
    <glyph glyph-name="Gcircumflex" unicode="&#x11c;" horiz-adv-x="721" 
d="M547 710h-81l-75 86l-75 -86h-81l101 145h110zM429 662q110 0 219 -40v-92q-120 44 -220 44q-120 0 -199.5 -65t-79.5 -187q0 -52 16.5 -94t44 -70t65 -47t77.5 -27t83 -8q68 0 122 15v228h94v-291q-106 -40 -223 -40q-71 0 -135.5 18.5t-120.5 56.5t-89 104t-33 152
q0 85 30.5 151.5t83.5 107.5t120.5 62.5t144.5 21.5z" />
    <glyph glyph-name="gcircumflex" unicode="&#x11d;" horiz-adv-x="642" 
d="M249 591h-81l101 145h110l101 -145h-81l-75 86zM567 511v-491q0 -232 -263 -232q-109 0 -221 46v89q127 -51 218 -51q72 0 124 28.5t52 98.5v28q-75 -39 -159 -39q-116 0 -194.5 69.5t-78.5 194.5t79.5 198.5t195.5 73.5q102 0 171 -51l9 38h67zM328 71q80 0 149 45v278
q-65 48 -146 48q-80 0 -135.5 -49t-55.5 -141q0 -87 54.5 -134t133.5 -47z" />
    <glyph glyph-name="Gbreve" unicode="&#x11e;" horiz-adv-x="721" 
d="M456 827h77q-13 -119 -142 -119t-142 119h77q7 -53 65 -53t65 53zM429 662q110 0 219 -40v-92q-120 44 -220 44q-120 0 -199.5 -65t-79.5 -187q0 -52 16.5 -94t44 -70t65 -47t77.5 -27t83 -8q68 0 122 15v228h94v-291q-106 -40 -223 -40q-71 0 -135.5 18.5t-120.5 56.5
t-89 104t-33 152q0 85 30.5 151.5t83.5 107.5t120.5 62.5t144.5 21.5z" />
    <glyph glyph-name="gbreve" unicode="&#x11f;" horiz-adv-x="642" 
d="M326 593q-129 0 -142 119h77q7 -53 65 -53t65 53h77q-13 -119 -142 -119zM567 511v-491q0 -232 -263 -232q-109 0 -221 46v89q127 -51 218 -51q72 0 124 28.5t52 98.5v28q-75 -39 -159 -39q-116 0 -194.5 69.5t-78.5 194.5t79.5 198.5t195.5 73.5q102 0 171 -51l9 38h67z
M328 71q80 0 149 45v278q-65 48 -146 48q-80 0 -135.5 -49t-55.5 -141q0 -87 54.5 -134t133.5 -47z" />
    <glyph glyph-name="Gdotaccent" unicode="&#x120;" horiz-adv-x="721" 
d="M441 707h-100v98h100v-98zM429 662q110 0 219 -40v-92q-120 44 -220 44q-120 0 -199.5 -65t-79.5 -187q0 -52 16.5 -94t44 -70t65 -47t77.5 -27t83 -8q68 0 122 15v228h94v-291q-106 -40 -223 -40q-71 0 -135.5 18.5t-120.5 56.5t-89 104t-33 152q0 85 30.5 151.5
t83.5 107.5t120.5 62.5t144.5 21.5z" />
    <glyph glyph-name="gdotaccent" unicode="&#x121;" horiz-adv-x="642" 
d="M373 588h-98v96h98v-96zM567 511v-491q0 -232 -263 -232q-109 0 -221 46v89q127 -51 218 -51q72 0 124 28.5t52 98.5v28q-75 -39 -159 -39q-116 0 -194.5 69.5t-78.5 194.5t79.5 198.5t195.5 73.5q102 0 171 -51l9 38h67zM328 71q80 0 149 45v278q-65 48 -146 48
q-80 0 -135.5 -49t-55.5 -141q0 -87 54.5 -134t133.5 -47z" />
    <glyph glyph-name="Gcommaaccent" unicode="&#x122;" horiz-adv-x="721" 
d="M429 662q110 0 219 -40v-92q-120 44 -220 44q-120 0 -199.5 -65t-79.5 -187q0 -52 16.5 -94t44 -70t65 -47t77.5 -27t83 -8q68 0 122 15v228h94v-291q-106 -40 -223 -40q-71 0 -135.5 18.5t-120.5 56.5t-89 104t-33 152q0 85 30.5 151.5t83.5 107.5t120.5 62.5
t144.5 21.5zM392 -220h-69l44 165h89z" />
    <glyph glyph-name="gcommaaccent" unicode="&#x123;" horiz-adv-x="642" 
d="M346 594h-89l64 165h69zM567 511v-491q0 -232 -263 -232q-109 0 -221 46v89q127 -51 218 -51q72 0 124 28.5t52 98.5v28q-75 -39 -159 -39q-116 0 -194.5 69.5t-78.5 194.5t79.5 198.5t195.5 73.5q102 0 171 -51l9 38h67zM328 71q80 0 149 45v278q-65 48 -146 48
q-80 0 -135.5 -49t-55.5 -141q0 -87 54.5 -134t133.5 -47z" />
    <glyph glyph-name="Hcircumflex" unicode="&#x124;" horiz-adv-x="719" 
d="M516 710h-81l-75 86l-75 -86h-81l101 145h110zM639 0h-94v281h-371v-281h-94v650h94v-283h371v283h94v-650z" />
    <glyph glyph-name="hcircumflex" unicode="&#x125;" horiz-adv-x="645" 
d="M158 731h-81l101 145h110l101 -145h-81l-75 86zM367 524q103 0 153 -44t50 -156v-324h-90v308q0 72 -27 101t-106 29q-48 0 -98.5 -19.5t-83.5 -44.5v-374h-90v691h90v-230q37 24 92.5 43.5t109.5 19.5z" />
    <glyph glyph-name="Hbar" unicode="&#x126;" horiz-adv-x="715" 
d="M715 491h-76v-491h-94v281h-371v-281h-94v491h-80v76h80v83h94v-83h371v83h94v-83h76v-76zM545 491h-371v-124h371v124z" />
    <glyph glyph-name="hbar" unicode="&#x127;" horiz-adv-x="645" 
d="M367 524q103 0 153 -44t50 -156v-324h-90v308q0 72 -27 101t-106 29q-48 0 -98.5 -19.5t-83.5 -44.5v-374h-90v565h-110v77h110v49h90v-49h142v-77h-142v-104q37 24 92.5 43.5t109.5 19.5z" />
    <glyph glyph-name="Itilde" unicode="&#x128;" horiz-adv-x="254" 
d="M215 834h60q-6 -44 -30 -70.5t-64 -26.5q-19 0 -59 13.5t-55 13.5q-27 0 -34 -30h-60q6 44 30 70.5t64 26.5q22 0 59.5 -13.5t54.5 -13.5t24.5 7t9.5 23zM174 0h-94v650h94v-650z" />
    <glyph glyph-name="itilde" unicode="&#x129;" horiz-adv-x="240" 
d="M211 714h60q-6 -44 -30 -70.5t-64 -26.5q-19 0 -59 13.5t-55 13.5q-27 0 -34 -30h-60q6 44 30 70.5t64 26.5q22 0 59.5 -13.5t54.5 -13.5t24.5 7t9.5 23zM165 0h-90v513h90v-513z" />
    <glyph glyph-name="Imacron" unicode="&#x12a;" horiz-adv-x="254" 
d="M264 716h-274v77h274v-77zM174 0h-94v650h94v-650z" />
    <glyph glyph-name="imacron" unicode="&#x12b;" horiz-adv-x="240" 
d="M257 615h-274v77h274v-77zM165 0h-90v513h90v-513z" />
    <glyph glyph-name="Ibreve" unicode="&#x12c;" horiz-adv-x="254" 
d="M192 827h77q-13 -119 -142 -119t-142 119h77q7 -53 65 -53t65 53zM174 0h-94v650h94v-650z" />
    <glyph glyph-name="ibreve" unicode="&#x12d;" horiz-adv-x="240" 
d="M187 712h77q-13 -119 -142 -119t-142 119h77q7 -53 65 -53t65 53zM165 0h-90v513h90v-513z" />
    <glyph glyph-name="Iogonek" unicode="&#x12e;" horiz-adv-x="254" 
d="M174 0h-17q-46 -21 -73.5 -45.5t-27.5 -46.5q0 -25 28 -25q35 0 81 23l1 -68q-45 -20 -90 -20q-94 0 -94 73q0 38 31.5 68.5t66.5 44.5v646h94v-650z" />
    <glyph glyph-name="iogonek" unicode="&#x12f;" horiz-adv-x="240" 
d="M169 684v-96h-98v96h98zM75 513h90v-513h-13q-46 -21 -73.5 -45.5t-27.5 -46.5q0 -25 28 -25q35 0 81 23l1 -68q-45 -20 -90 -20q-94 0 -94 73q0 38 31.5 68.5t66.5 44.5v509z" />
    <glyph glyph-name="Idotaccent" unicode="&#x130;" horiz-adv-x="254" 
d="M177 707h-100v98h100v-98zM174 0h-94v650h94v-650z" />
    <glyph glyph-name="dotlessi" unicode="&#x131;" horiz-adv-x="240" 
d="M165 0h-90v513h90v-513z" />
    <glyph glyph-name="IJ" unicode="&#x132;" horiz-adv-x="708" 
d="M174 0h-94v650h94v-650zM633 650v-466q0 -90 -56.5 -143t-150.5 -53q-75 0 -162 26v94q85 -31 158 -31q117 0 117 129v444h94z" />
    <glyph glyph-name="ij" unicode="&#x133;" horiz-adv-x="469" 
d="M171 588h-102v92h102v-92zM400 588h-102v92h102v-92zM165 0h-90v513h90v-513zM393 513v-570q0 -87 -47 -121t-127 -34q-28 0 -85 13v79q47 -12 89 -12q40 0 60 17.5t20 58.5v569h90z" />
    <glyph glyph-name="Jcircumflex" unicode="&#x134;" horiz-adv-x="454" 
d="M378 710h-81l-75 86l-75 -86h-81l101 145h110zM379 650v-466q0 -90 -56.5 -143t-150.5 -53q-75 0 -162 26v94q85 -31 158 -31q117 0 117 129v444h94z" />
    <glyph glyph-name="jcircumflex" unicode="&#x135;" horiz-adv-x="228" 
d="M108 677l-75 -86h-81l101 145h110l101 -145h-81zM153 513v-570q0 -87 -47 -121t-127 -34q-28 0 -85 13v79q47 -12 89 -12q40 0 60 17.5t20 58.5v569h90z" />
    <glyph glyph-name="Kcommaaccent" unicode="&#x136;" horiz-adv-x="659" 
d="M174 0h-94v650h94v-650zM510 650h144q-223 -184 -346 -324q200 -173 346 -326h-132q-143 148 -340 318q152 179 328 332zM319 -220h-69l44 165h89z" />
    <glyph glyph-name="kcommaaccent" unicode="&#x137;" horiz-adv-x="564" 
d="M165 0h-90v691h90v-691zM412 513h137q-176 -141 -258 -240q59 -48 154.5 -145.5t118.5 -127.5h-127q-132 154 -259 266q103 133 234 247zM276 -220h-69l44 165h89z" />
    <glyph glyph-name="kgreenlandic" unicode="&#x138;" horiz-adv-x="564" 
d="M165 0h-90v513h90v-513zM412 513h131q-58 -46 -92 -74.5t-81.5 -74t-82.5 -87.5q67 -53 158 -146.5t119 -130.5h-127q-132 154 -259 266q103 133 234 247z" />
    <glyph glyph-name="Lacute" unicode="&#x139;" horiz-adv-x="557" 
d="M170 710h-79l74 145h106zM174 86h373v-86h-467v650h94v-564z" />
    <glyph glyph-name="lacute" unicode="&#x13a;" horiz-adv-x="240" 
d="M159 731h-79l74 145h106zM165 0h-90v691h90v-691z" />
    <glyph glyph-name="Lcommaaccent" unicode="&#x13b;" horiz-adv-x="557" 
d="M174 86h373v-86h-467v650h94v-564zM294 -220h-69l44 165h89z" />
    <glyph glyph-name="lcommaaccent" unicode="&#x13c;" horiz-adv-x="240" 
d="M165 0h-90v691h90v-691zM96 -220h-69l44 165h89z" />
    <glyph glyph-name="Lcaron" unicode="&#x13d;" horiz-adv-x="557" 
d="M174 86h373v-86h-467v650h94v-564zM390 484h-74l44 166h94z" />
    <glyph glyph-name="lcaron" unicode="&#x13e;" horiz-adv-x="359" 
d="M165 0h-90v691h90v-691zM300 525h-74l44 166h94z" />
    <glyph glyph-name="Ldot" unicode="&#x13f;" horiz-adv-x="557" 
d="M174 86h373v-86h-467v650h94v-564zM435 345h-100v97h100v-97z" />
    <glyph glyph-name="ldot" unicode="&#x140;" horiz-adv-x="335" 
d="M165 0h-90v691h90v-691zM335 432h-100v97h100v-97z" />
    <glyph glyph-name="Lslash" unicode="&#x141;" horiz-adv-x="554" 
d="M547 86v-86h-467v315l-80 -21v84l80 21v251h94v-226l206 54v-84l-206 -54v-254h373z" />
    <glyph glyph-name="lslash" unicode="&#x142;" horiz-adv-x="258" 
d="M278 373l-103 -28v-345h-90v320l-105 -29v84l105 29v287h90v-262l103 28v-84z" />
    <glyph glyph-name="Nacute" unicode="&#x143;" horiz-adv-x="726" 
d="M406 710h-79l74 145h106zM646 0h-79l-394 524v-524h-93v650h108l365 -486v486h93v-650z" />
    <glyph glyph-name="nacute" unicode="&#x144;" horiz-adv-x="645" 
d="M360 591h-79l74 145h106zM367 524q103 0 153 -44t50 -156v-324h-90v308q0 72 -27 101t-106 29q-48 0 -99.5 -19.5t-82.5 -44.5v-374h-90v513h66l15 -59q33 25 92.5 47.5t118.5 22.5z" />
    <glyph glyph-name="Ncommaaccent" unicode="&#x145;" horiz-adv-x="726" 
d="M646 0h-79l-394 524v-524h-93v650h108l365 -486v486h93v-650zM381 -220h-69l44 165h89z" />
    <glyph glyph-name="ncommaaccent" unicode="&#x146;" horiz-adv-x="645" 
d="M367 524q103 0 153 -44t50 -156v-324h-90v308q0 72 -27 101t-106 29q-48 0 -99.5 -19.5t-82.5 -44.5v-374h-90v513h66l15 -59q33 25 92.5 47.5t118.5 22.5zM287 -55h89l-64 -165h-69z" />
    <glyph glyph-name="Ncaron" unicode="&#x147;" horiz-adv-x="726" 
d="M425 710h-110l-101 145h81l75 -86l75 86h81zM646 0h-79l-394 524v-524h-93v650h108l365 -486v486h93v-650z" />
    <glyph glyph-name="ncaron" unicode="&#x148;" horiz-adv-x="645" 
d="M266 591l-101 145h81l75 -86l75 86h81l-101 -145h-110zM367 524q103 0 153 -44t50 -156v-324h-90v308q0 72 -27 101t-106 29q-48 0 -99.5 -19.5t-82.5 -44.5v-374h-90v513h66l15 -59q33 25 92.5 47.5t118.5 22.5z" />
    <glyph glyph-name="napostrophe" unicode="&#x149;" horiz-adv-x="675" 
d="M133 691l-64 -166h-69l44 166h89zM397 524q103 0 153 -44t50 -156v-324h-90v308q0 72 -27 101t-106 29q-48 0 -99.5 -19.5t-82.5 -44.5v-374h-90v513h66l15 -59q33 25 92.5 47.5t118.5 22.5z" />
    <glyph glyph-name="Eng" unicode="&#x14a;" horiz-adv-x="726" 
d="M646 650v-694q0 -90 -56.5 -143t-150.5 -53q-75 0 -162 26v94q85 -31 158 -31q118 0 118 129v41l-380 505v-524h-93v650h108l365 -486v486h93z" />
    <glyph glyph-name="eng" unicode="&#x14b;" horiz-adv-x="645" 
d="M367 524q103 0 153 -44t50 -156v-381q0 -87 -47 -121t-127 -34q-28 0 -85 13v79q47 -12 89 -12q40 0 60 17.5t20 58.5v364q0 72 -27 101t-106 29q-48 0 -99.5 -19.5t-82.5 -44.5v-374h-90v513h66l15 -59q33 25 92.5 47.5t118.5 22.5z" />
    <glyph glyph-name="Omacron" unicode="&#x14c;" horiz-adv-x="792" 
d="M528 716h-274v77h274v-77zM400 662q162 0 252 -91.5t90 -244.5q0 -154 -94 -246t-247 -92q-161 0 -256 92t-95 246t94.5 245t255.5 91zM400 574q-114 0 -182.5 -63.5t-68.5 -184.5q0 -116 69 -182t183 -66q108 0 176 66.5t68 181.5q0 120 -67 184t-178 64z" />
    <glyph glyph-name="omacron" unicode="&#x14d;" horiz-adv-x="640" 
d="M457 615h-274v77h274v-77zM320 524q116 0 195.5 -71t79.5 -198q0 -128 -79.5 -197.5t-196.5 -69.5q-116 0 -195 69.5t-79 197.5q0 127 79.5 198t195.5 71zM320 440q-79 0 -130 -50.5t-51 -134.5q0 -78 46.5 -130t135.5 -52q87 0 133.5 52.5t46.5 129.5q0 84 -51 134.5
t-130 50.5z" />
    <glyph glyph-name="Obreve" unicode="&#x14e;" horiz-adv-x="792" 
d="M456 827h77q-13 -119 -142 -119t-142 119h77q7 -53 65 -53t65 53zM400 662q162 0 252 -91.5t90 -244.5q0 -154 -94 -246t-247 -92q-161 0 -256 92t-95 246t94.5 245t255.5 91zM400 574q-114 0 -182.5 -63.5t-68.5 -184.5q0 -116 69 -182t183 -66q108 0 176 66.5t68 181.5
q0 120 -67 184t-178 64z" />
    <glyph glyph-name="obreve" unicode="&#x14f;" horiz-adv-x="640" 
d="M387 712h77q-13 -119 -142 -119t-142 119h77q7 -53 65 -53t65 53zM320 524q116 0 195.5 -71t79.5 -198q0 -128 -79.5 -197.5t-196.5 -69.5q-116 0 -195 69.5t-79 197.5q0 127 79.5 198t195.5 71zM320 440q-79 0 -130 -50.5t-51 -134.5q0 -78 46.5 -130t135.5 -52
q87 0 133.5 52.5t46.5 129.5q0 84 -51 134.5t-130 50.5z" />
    <glyph glyph-name="Ohungarumlaut" unicode="&#x150;" horiz-adv-x="792" 
d="M350 710h-78l74 145h107zM517 710h-78l74 145h107zM400 662q162 0 252 -91.5t90 -244.5q0 -154 -94 -246t-247 -92q-161 0 -256 92t-95 246t94.5 245t255.5 91zM400 574q-114 0 -182.5 -63.5t-68.5 -184.5q0 -116 69 -182t183 -66q108 0 176 66.5t68 181.5q0 120 -67 184
t-178 64z" />
    <glyph glyph-name="ohungarumlaut" unicode="&#x151;" horiz-adv-x="640" 
d="M288 591h-78l74 145h107zM455 591h-78l74 145h107zM320 524q116 0 195.5 -71t79.5 -198q0 -128 -79.5 -197.5t-196.5 -69.5q-116 0 -195 69.5t-79 197.5q0 127 79.5 198t195.5 71zM320 440q-79 0 -130 -50.5t-51 -134.5q0 -78 46.5 -130t135.5 -52q87 0 133.5 52.5
t46.5 129.5q0 84 -51 134.5t-130 50.5z" />
    <glyph glyph-name="OE" unicode="&#x152;" horiz-adv-x="1010" 
d="M585 564v-187h336v-85h-336v-206h365v-86h-449q-49 -12 -110 -12q-160 0 -250.5 91t-90.5 247t88 246t253 90q61 0 109 -12h450v-86h-365zM147 326q0 -118 67.5 -185t176.5 -67q59 0 100 12v475q-41 15 -100 15q-113 0 -178.5 -63.5t-65.5 -186.5z" />
    <glyph glyph-name="oe" unicode="&#x153;" horiz-adv-x="1041" 
d="M994 223h-402q13 -151 189 -151q52 0 90.5 8t112.5 30v-87q-99 -35 -207 -35q-161 0 -232 108q-37 -52 -96.5 -80t-129.5 -28q-116 0 -195 69.5t-79 197.5q0 127 79.5 198t195.5 71q69 0 128 -28t96 -81q69 109 223 109q106 0 166.5 -66t60.5 -182v-53zM321 73
q87 0 133.5 52.5t46.5 129.5q0 84 -51 134.5t-130 50.5t-130 -50.5t-51 -134.5q0 -78 46.5 -130t135.5 -52zM596 300h306q-2 62 -36.5 101t-100.5 39t-114.5 -35.5t-54.5 -104.5z" />
    <glyph glyph-name="Racute" unicode="&#x154;" horiz-adv-x="660" 
d="M339 710h-79l74 145h106zM635 0h-125q-82 121 -193 238h-143v-238h-94v650h273q36 0 73 -8.5t77 -29t65.5 -63t25.5 -101.5q0 -83 -46.5 -133.5t-113.5 -67.5q94 -100 201 -247zM174 324h166q27 0 51.5 5t49.5 16.5t40 37t15 62.5q0 63 -43.5 91t-108.5 28h-170v-240z
" />
    <glyph glyph-name="racute" unicode="&#x155;" horiz-adv-x="402" 
d="M269 591h-79l74 145h106zM379 524v-90q-139 -1 -214 -60v-374h-90v513h66l16 -57q107 67 222 68z" />
    <glyph glyph-name="Rcommaaccent" unicode="&#x156;" horiz-adv-x="660" 
d="M434 247q94 -100 201 -247h-125q-82 121 -193 238h-143v-238h-94v650h273q36 0 73 -8.5t77 -29t65.5 -63t25.5 -101.5q0 -83 -46.5 -133.5t-113.5 -67.5zM174 324h166q27 0 51.5 5t49.5 16.5t40 37t15 62.5q0 63 -43.5 91t-108.5 28h-170v-240zM282 -55h89l-64 -165h-69z
" />
    <glyph glyph-name="rcommaaccent" unicode="&#x157;" horiz-adv-x="402" 
d="M379 524v-90q-139 -1 -214 -60v-374h-90v513h66l16 -57q107 67 222 68zM71 -55h89l-64 -165h-69z" />
    <glyph glyph-name="Rcaron" unicode="&#x158;" horiz-adv-x="660" 
d="M248 710l-101 145h81l75 -86l75 86h81l-101 -145h-110zM635 0h-125q-82 121 -193 238h-143v-238h-94v650h273q36 0 73 -8.5t77 -29t65.5 -63t25.5 -101.5q0 -83 -46.5 -133.5t-113.5 -67.5q94 -100 201 -247zM174 324h166q27 0 51.5 5t49.5 16.5t40 37t15 62.5
q0 63 -43.5 91t-108.5 28h-170v-240z" />
    <glyph glyph-name="rcaron" unicode="&#x159;" horiz-adv-x="402" 
d="M175 591l-101 145h81l75 -86l75 86h81l-101 -145h-110zM141 513l16 -57q107 67 222 68v-90q-139 -1 -214 -60v-374h-90v513h66z" />
    <glyph glyph-name="Sacute" unicode="&#x15a;" horiz-adv-x="605" 
d="M337 710h-79l74 145h106zM320 662q103 0 207 -34v-90q-126 39 -207 39q-73 0 -122 -21.5t-49 -71.5q0 -64 95 -90l165 -47q146 -40 146 -170q0 -91 -72 -140t-204 -49q-116 0 -234 44v95q8 -3 31.5 -11t33.5 -11t31 -9t34.5 -9t32 -6.5t36 -5t35.5 -1.5q82 0 130.5 27
t48.5 73q0 69 -97 95l-153 42q-154 41 -154 173q0 90 74.5 134t191.5 44z" />
    <glyph glyph-name="sacute" unicode="&#x15b;" horiz-adv-x="513" 
d="M296 591h-79l74 145h106zM262 524q97 0 190 -27v-87q-93 31 -188 31q-27 0 -45 -1.5t-39 -7t-32 -19.5t-11 -35q0 -41 74 -58l114 -26q72 -17 110 -48.5t38 -102.5q0 -86 -62.5 -120.5t-176.5 -34.5q-93 0 -194 28v87q105 -32 195 -32q147 0 147 73q0 26 -18.5 40
t-52.5 23l-150 36q-55 13 -85.5 49t-30.5 82q0 150 217 150z" />
    <glyph glyph-name="Scircumflex" unicode="&#x15c;" horiz-adv-x="605" 
d="M457 710h-81l-75 86l-75 -86h-81l101 145h110zM320 662q103 0 207 -34v-90q-126 39 -207 39q-73 0 -122 -21.5t-49 -71.5q0 -64 95 -90l165 -47q146 -40 146 -170q0 -91 -72 -140t-204 -49q-116 0 -234 44v95q8 -3 31.5 -11t33.5 -11t31 -9t34.5 -9t32 -6.5t36 -5
t35.5 -1.5q82 0 130.5 27t48.5 73q0 69 -97 95l-153 42q-154 41 -154 173q0 90 74.5 134t191.5 44z" />
    <glyph glyph-name="scircumflex" unicode="&#x15d;" horiz-adv-x="513" 
d="M257 677l-75 -86h-81l101 145h110l101 -145h-81zM262 524q97 0 190 -27v-87q-93 31 -188 31q-27 0 -45 -1.5t-39 -7t-32 -19.5t-11 -35q0 -41 74 -58l114 -26q72 -17 110 -48.5t38 -102.5q0 -86 -62.5 -120.5t-176.5 -34.5q-93 0 -194 28v87q105 -32 195 -32
q147 0 147 73q0 26 -18.5 40t-52.5 23l-150 36q-55 13 -85.5 49t-30.5 82q0 150 217 150z" />
    <glyph glyph-name="Scedilla" unicode="&#x15e;" horiz-adv-x="605" 
d="M555 177q0 -78 -54 -126t-155 -59l-9 -31q76 -8 76 -75q0 -93 -112 -93q-42 0 -88 13v67q52 -16 89 -16q41 0 41 30q0 25 -45 25q-22 0 -40 -3l26 79h-5q-116 0 -234 44v95q8 -3 31.5 -11t33.5 -11t31 -9t34.5 -9t32 -6.5t36 -5t35.5 -1.5q82 0 130.5 27t48.5 73
q0 69 -97 95l-153 42q-154 41 -154 173q0 90 74.5 134t191.5 44q103 0 207 -34v-90q-126 39 -207 39q-73 0 -122 -21.5t-49 -71.5q0 -64 95 -90l165 -47q146 -40 146 -170z" />
    <glyph glyph-name="scedilla" unicode="&#x15f;" horiz-adv-x="513" 
d="M473 143q0 -75 -48.5 -111t-137.5 -42l-9 -29q76 -8 76 -75q0 -93 -112 -93q-42 0 -88 13v67q52 -16 89 -16q41 0 41 30q0 25 -45 25q-22 0 -40 -3l26 79q-88 1 -185 28v87q105 -32 195 -32q147 0 147 73q0 26 -18.5 40t-52.5 23l-150 36q-55 13 -85.5 49t-30.5 82
q0 150 217 150q97 0 190 -27v-87q-93 31 -188 31q-27 0 -45 -1.5t-39 -7t-32 -19.5t-11 -35q0 -41 74 -58l114 -26q72 -17 110 -48.5t38 -102.5z" />
    <glyph glyph-name="Scaron" unicode="&#x160;" horiz-adv-x="605" 
d="M356 710h-110l-101 145h81l75 -86l75 86h81zM320 662q103 0 207 -34v-90q-126 39 -207 39q-73 0 -122 -21.5t-49 -71.5q0 -64 95 -90l165 -47q146 -40 146 -170q0 -91 -72 -140t-204 -49q-116 0 -234 44v95q8 -3 31.5 -11t33.5 -11t31 -9t34.5 -9t32 -6.5t36 -5
t35.5 -1.5q82 0 130.5 27t48.5 73q0 69 -97 95l-153 42q-154 41 -154 173q0 90 74.5 134t191.5 44z" />
    <glyph glyph-name="scaron" unicode="&#x161;" horiz-adv-x="513" 
d="M312 591h-110l-101 145h81l75 -86l75 86h81zM262 524q97 0 190 -27v-87q-93 31 -188 31q-27 0 -45 -1.5t-39 -7t-32 -19.5t-11 -35q0 -41 74 -58l114 -26q72 -17 110 -48.5t38 -102.5q0 -86 -62.5 -120.5t-176.5 -34.5q-93 0 -194 28v87q105 -32 195 -32q147 0 147 73
q0 26 -18.5 40t-52.5 23l-150 36q-55 13 -85.5 49t-30.5 82q0 150 217 150z" />
    <glyph glyph-name="Tcedilla" unicode="&#x162;" horiz-adv-x="626" 
d="M606 564h-246v-564h-94v564h-246v86h586v-86zM287 -220h-69l44 165h89z" />
    <glyph glyph-name="tcedilla" unicode="&#x163;" horiz-adv-x="399" 
d="M354 513v-77h-171v-292q0 -76 82 -76q49 0 104 18v-80q-61 -18 -100 -18q-81 0 -128.5 34t-47.5 121v293h-98v77h98l12 131h78v-131h171zM236 -220h-69l44 165h89z" />
    <glyph glyph-name="Tcaron" unicode="&#x164;" horiz-adv-x="626" 
d="M368 710h-110l-101 145h81l75 -86l75 86h81zM606 564h-246v-564h-94v564h-246v86h586v-86z" />
    <glyph glyph-name="tcaron" unicode="&#x165;" horiz-adv-x="399" 
d="M379 555h-74l44 166h94zM354 513v-77h-171v-292q0 -76 82 -76q49 0 104 18v-80q-61 -18 -100 -18q-81 0 -128.5 34t-47.5 121v293h-98v77h98l12 131h78v-131h171z" />
    <glyph glyph-name="Tbar" unicode="&#x166;" horiz-adv-x="623" 
d="M360 564v-185h142v-86h-142v-293h-94v293h-145v86h145v185h-246v86h586v-86h-246z" />
    <glyph glyph-name="tbar" unicode="&#x167;" horiz-adv-x="399" 
d="M265 68q49 0 104 18v-80q-61 -18 -100 -18q-81 0 -128.5 34t-47.5 121v143h-98v77h98v73h-98v77h98l12 131h78v-131h171v-77h-171v-73h171v-77h-171v-142q0 -76 82 -76z" />
    <glyph glyph-name="Utilde" unicode="&#x168;" horiz-adv-x="718" 
d="M437 834h60q-6 -44 -30 -70.5t-64 -26.5q-19 0 -59 13.5t-55 13.5q-27 0 -34 -30h-60q6 44 30 70.5t64 26.5q22 0 59.5 -13.5t54.5 -13.5t24.5 7t9.5 23zM638 650v-371q0 -62 -14 -111.5t-45 -91.5t-88 -65t-136 -23q-78 0 -134.5 23t-87.5 65t-44.5 91.5t-13.5 111.5
v371h94v-372q0 -202 186 -202q189 0 189 202v372h94z" />
    <glyph glyph-name="utilde" unicode="&#x169;" horiz-adv-x="639" 
d="M263 644q-27 0 -34 -30h-60q6 44 30 70.5t64 26.5q22 0 59.5 -13.5t54.5 -13.5t24.5 7t9.5 23h60q-6 -44 -30 -70.5t-64 -26.5q-19 0 -59 13.5t-55 13.5zM564 513v-513h-66l-13 47q-100 -59 -220 -59q-83 0 -136.5 48.5t-53.5 149.5v327h90v-303q0 -79 33.5 -108.5
t98.5 -29.5q101 0 177 51v390h90z" />
    <glyph glyph-name="Umacron" unicode="&#x16a;" horiz-adv-x="718" 
d="M486 716h-274v77h274v-77zM638 650v-371q0 -62 -14 -111.5t-45 -91.5t-88 -65t-136 -23q-78 0 -134.5 23t-87.5 65t-44.5 91.5t-13.5 111.5v371h94v-372q0 -202 186 -202q189 0 189 202v372h94z" />
    <glyph glyph-name="umacron" unicode="&#x16b;" horiz-adv-x="639" 
d="M457 615h-274v77h274v-77zM564 513v-513h-66l-13 47q-100 -59 -220 -59q-83 0 -136.5 48.5t-53.5 149.5v327h90v-303q0 -79 33.5 -108.5t98.5 -29.5q101 0 177 51v390h90z" />
    <glyph glyph-name="Ubreve" unicode="&#x16c;" horiz-adv-x="718" 
d="M414 827h77q-13 -119 -142 -119t-142 119h77q7 -53 65 -53t65 53zM638 650v-371q0 -62 -14 -111.5t-45 -91.5t-88 -65t-136 -23q-78 0 -134.5 23t-87.5 65t-44.5 91.5t-13.5 111.5v371h94v-372q0 -202 186 -202q189 0 189 202v372h94z" />
    <glyph glyph-name="ubreve" unicode="&#x16d;" horiz-adv-x="639" 
d="M322 593q-129 0 -142 119h77q7 -53 65 -53t65 53h77q-13 -119 -142 -119zM564 513v-513h-66l-13 47q-100 -59 -220 -59q-83 0 -136.5 48.5t-53.5 149.5v327h90v-303q0 -79 33.5 -108.5t98.5 -29.5q101 0 177 51v390h90z" />
    <glyph glyph-name="Uring" unicode="&#x16e;" horiz-adv-x="718" 
d="M349 711q-48 0 -74.5 23.5t-26.5 62.5t26.5 62.5t74.5 23.5t74.5 -23.5t26.5 -62.5t-26.5 -62.5t-74.5 -23.5zM349 837q-52 0 -52 -40t52 -40t52 40t-52 40zM638 650v-371q0 -62 -14 -111.5t-45 -91.5t-88 -65t-136 -23q-78 0 -134.5 23t-87.5 65t-44.5 91.5t-13.5 111.5
v371h94v-372q0 -202 186 -202q189 0 189 202v372h94z" />
    <glyph glyph-name="uring" unicode="&#x16f;" horiz-adv-x="639" 
d="M317 580q-48 0 -74.5 23.5t-26.5 62.5t26.5 62.5t74.5 23.5t74.5 -23.5t26.5 -62.5t-26.5 -62.5t-74.5 -23.5zM317 706q-52 0 -52 -40t52 -40t52 40t-52 40zM564 513v-513h-66l-13 47q-100 -59 -220 -59q-83 0 -136.5 48.5t-53.5 149.5v327h90v-303q0 -79 33.5 -108.5
t98.5 -29.5q101 0 177 51v390h90z" />
    <glyph glyph-name="Uhungarumlaut" unicode="&#x170;" horiz-adv-x="718" 
d="M308 710h-78l74 145h107zM475 710h-78l74 145h107zM638 650v-371q0 -62 -14 -111.5t-45 -91.5t-88 -65t-136 -23q-78 0 -134.5 23t-87.5 65t-44.5 91.5t-13.5 111.5v371h94v-372q0 -202 186 -202q189 0 189 202v372h94z" />
    <glyph glyph-name="uhungarumlaut" unicode="&#x171;" horiz-adv-x="639" 
d="M288 591h-78l74 145h107zM377 591l74 145h107l-103 -145h-78zM564 513v-513h-66l-13 47q-100 -59 -220 -59q-83 0 -136.5 48.5t-53.5 149.5v327h90v-303q0 -79 33.5 -108.5t98.5 -29.5q101 0 177 51v390h90z" />
    <glyph glyph-name="Uogonek" unicode="&#x172;" horiz-adv-x="718" 
d="M638 650v-371q0 -229 -179 -278q-47 -21 -74.5 -45.5t-27.5 -47.5q0 -25 28 -25q35 0 81 23l1 -68q-45 -20 -90 -20q-94 0 -94 73q0 54 67 97q-275 3 -275 291v371h94v-372q0 -202 186 -202q189 0 189 202v372h94z" />
    <glyph glyph-name="uogonek" unicode="&#x173;" horiz-adv-x="639" 
d="M582 -94l1 -68q-45 -20 -90 -20q-94 0 -94 73q0 38 31.5 68.5t66.5 44.5l-12 43q-100 -59 -220 -59q-83 0 -136.5 48.5t-53.5 149.5v327h90v-303q0 -79 33.5 -108.5t98.5 -29.5q101 0 177 51v390h90v-513q-91 -48 -91 -92q0 -25 28 -25q35 0 81 23z" />
    <glyph glyph-name="Wcircumflex" unicode="&#x174;" horiz-adv-x="873" 
d="M591 710h-81l-75 86l-75 -86h-81l101 145h110zM768 650h97q-68 -326 -183 -650h-99q-64 151 -149 382q-76 -222 -147 -382h-97q-37 101 -54.5 152t-58 198t-69.5 300h96q54 -261 138 -525q68 153 157 417h72q18 -54 67.5 -190t90.5 -228q76 225 139 526z" />
    <glyph glyph-name="wcircumflex" unicode="&#x175;" horiz-adv-x="858" 
d="M439 677l-75 -86h-81l101 145h110l101 -145h-81zM770 513h93q-80 -278 -199 -513h-81q-37 78 -83.5 195t-67.5 186q-49 -151 -161 -381h-78q-124 253 -198 513h98q75 -246 142 -399q46 92 96 221.5t62 177.5h92q14 -54 55.5 -174t86.5 -224q71 153 143 398z" />
    <glyph glyph-name="Ycircumflex" unicode="&#x176;" horiz-adv-x="606" 
d="M456 710h-81l-75 86l-75 -86h-81l101 145h110zM498 650h113q-63 -121 -143 -250t-118 -180v-220h-94v220q-38 50 -117 178t-144 252h110q83 -166 198 -344q102 155 195 344z" />
    <glyph glyph-name="ycircumflex" unicode="&#x177;" horiz-adv-x="541" 
d="M182 591h-81l101 145h110l101 -145h-81l-75 86zM446 513h105q-120 -329 -343 -713h-104q12 22 55 97.5t65 115.5q-142 256 -234 500h100q73 -201 185 -404q92 182 171 404z" />
    <glyph glyph-name="Ydieresis" unicode="&#x178;" horiz-adv-x="606" 
d="M251 707h-100v98h100v-98zM449 707h-100v98h100v-98zM498 650h113q-63 -121 -143 -250t-118 -180v-220h-94v220q-38 50 -117 178t-144 252h110q83 -166 198 -344q102 155 195 344z" />
    <glyph glyph-name="Zacute" unicode="&#x179;" horiz-adv-x="599" 
d="M335 710h-79l74 145h106zM559 567l-393 -481h391v-86h-517v83l394 481h-394v86h519v-83z" />
    <glyph glyph-name="zacute" unicode="&#x17a;" horiz-adv-x="533" 
d="M296 591h-79l74 145h106zM488 433l-333 -356h338v-77h-453v80l335 356h-321v77h434v-80z" />
    <glyph glyph-name="Zdotaccent" unicode="&#x17b;" horiz-adv-x="599" 
d="M349 707h-100v98h100v-98zM559 567l-393 -481h391v-86h-517v83l394 481h-394v86h519v-83z" />
    <glyph glyph-name="zdotaccent" unicode="&#x17c;" horiz-adv-x="533" 
d="M306 588h-98v96h98v-96zM488 433l-333 -356h338v-77h-453v80l335 356h-321v77h434v-80z" />
    <glyph glyph-name="Zcaron" unicode="&#x17d;" horiz-adv-x="599" 
d="M354 710h-110l-101 145h81l75 -86l75 86h81zM559 567l-393 -481h391v-86h-517v83l394 481h-394v86h519v-83z" />
    <glyph glyph-name="zcaron" unicode="&#x17e;" horiz-adv-x="533" 
d="M312 591h-110l-101 145h81l75 -86l75 86h81zM488 433l-333 -356h338v-77h-453v80l335 356h-321v77h434v-80z" />
    <glyph glyph-name="longs" unicode="&#x17f;" horiz-adv-x="338" 
d="M269 723q28 0 85 -13v-79q-47 12 -89 12q-82 0 -82 -76v-567h-90v436h-98v77h98v55q0 87 47.5 121t128.5 34z" />
    <glyph glyph-name="Schwa" unicode="&#x18f;" horiz-adv-x="769" 
d="M391 662q153 0 240.5 -87t87.5 -240q0 -155 -88.5 -251t-239.5 -96q-164 0 -252.5 90.5t-88.5 247.5v50h570q-12 200 -229 200q-116 0 -257 -48v94q138 40 257 40zM391 74q107 0 164.5 57.5t65.5 158.5h-472q5 -101 73 -158.5t169 -57.5z" />
    <glyph glyph-name="florin" unicode="&#x192;" horiz-adv-x="426" 
d="M320 576q-33 0 -49 -18t-22 -61l-7 -45h151l-11 -77h-151l-47 -347q-12 -84 -51.5 -119.5t-112.5 -35.5q-41 0 -95 12l12 85q53 -11 89 -11q33 0 49 18t22 61l46 337h-110l11 77h110l8 55q12 84 51.5 119.5t112.5 35.5q41 0 95 -12l-12 -85q-53 11 -89 11z" />
    <glyph glyph-name="Aringacute" unicode="&#x1fa;" horiz-adv-x="663" 
d="M373 919h-79l74 145h106zM332 711q-48 0 -74.5 23.5t-26.5 62.5t26.5 62.5t74.5 23.5t74.5 -23.5t26.5 -62.5t-26.5 -62.5t-74.5 -23.5zM332 837q-52 0 -52 -40t52 -40t52 40t-52 40zM668 0h-98q-31 94 -60 168h-354q-40 -101 -60 -168h-101q65 197 151 388t130 262h111
q20 -32 59 -108.5t104.5 -230.5t117.5 -311zM190 252h287q-79 197 -144 313q-65 -122 -143 -313z" />
    <glyph glyph-name="aringacute" unicode="&#x1fb;" horiz-adv-x="603" 
d="M339 789h-79l74 145h106zM297 580q-48 0 -74.5 23.5t-26.5 62.5t26.5 62.5t74.5 23.5t74.5 -23.5t26.5 -62.5t-26.5 -62.5t-74.5 -23.5zM297 706q-52 0 -52 -40t52 -40t52 40t-52 40zM286 524q125 0 183.5 -50.5t58.5 -170.5v-303h-68l-12 47q-87 -59 -192 -59
q-88 0 -145.5 44.5t-57.5 126.5q0 86 62 126.5t154 40.5q97 0 169 -36v30q0 36 -12.5 61t-36.5 37t-50.5 17t-62.5 5q-83 0 -191 -35v89q100 30 201 30zM148 160q0 -48 35.5 -69t88.5 -21q84 0 166 52v93q-68 36 -158 36q-132 0 -132 -91z" />
    <glyph glyph-name="AEacute" unicode="&#x1fc;" horiz-adv-x="955" 
d="M698 710h-79l74 145h106zM568 564v-187h300v-85h-300v-206h327v-86h-421v179h-275q-42 -68 -104 -179h-110q119 209 237.5 378.5t208.5 271.5h464v-86h-327zM473 265v303q-117 -140 -221 -303h221z" />
    <glyph glyph-name="aeacute" unicode="&#x1fd;" horiz-adv-x="977" 
d="M542 591h-79l74 145h106zM703 524q106 0 166.5 -66t60.5 -182v-53h-402q13 -151 189 -151q52 0 90.5 8t112.5 30v-87q-99 -35 -207 -35q-143 0 -217 87q-74 -48 -127 -67.5t-113 -19.5q-88 0 -145.5 44.5t-57.5 126.5q0 86 62 126.5t154 40.5q97 0 169 -36v30
q0 36 -12.5 61t-36.5 37t-50.5 17t-62.5 5q-83 0 -191 -35v89q100 30 201 30q160 0 210 -86q74 86 207 86zM701 440q-66 0 -114.5 -35.5t-54.5 -103.5h306q-2 62 -36.5 100.5t-100.5 38.5zM280 251q-132 0 -132 -91q0 -48 35.5 -69t88.5 -21q97 0 187 65q-15 38 -19 79
q-75 37 -160 37z" />
    <glyph glyph-name="Oslashacute" unicode="&#x1fe;" horiz-adv-x="792" 
d="M427 710h-79l74 145h106zM698 617l-42 -50q86 -91 86 -241q0 -154 -94 -246t-247 -92q-112 0 -193 46l-52 -62l-62 52l49 58q-93 91 -93 244q0 154 94.5 245t255.5 91q112 0 192 -46l44 53zM149 326q0 -102 57 -169l325 387q-55 30 -131 30q-114 0 -182.5 -63.5
t-68.5 -184.5zM401 78q108 0 176 66.5t68 181.5q0 104 -51 167l-324 -386q56 -29 131 -29z" />
    <glyph glyph-name="oslashacute" unicode="&#x1ff;" horiz-adv-x="640" 
d="M359 591h-79l74 145h106zM566 489l-39 -47q68 -73 68 -187q0 -128 -79.5 -197.5t-196.5 -69.5q-81 0 -145 34l-40 -48l-60 47l39 47q-68 71 -68 187q0 127 79.5 198t195.5 71q81 0 146 -36l40 48zM139 255q0 -68 35 -115l234 280q-38 20 -88 20q-79 0 -130 -50.5
t-51 -134.5zM321 73q87 0 133.5 52.5t46.5 129.5q0 67 -35 115l-234 -279q39 -18 89 -18z" />
    <glyph glyph-name="Scommaaccent" unicode="&#x218;" horiz-adv-x="605" 
d="M320 662q103 0 207 -34v-90q-126 39 -207 39q-73 0 -122 -21.5t-49 -71.5q0 -64 95 -90l165 -47q146 -40 146 -170q0 -91 -72 -140t-204 -49q-116 0 -234 44v95q8 -3 31.5 -11t33.5 -11t31 -9t34.5 -9t32 -6.5t36 -5t35.5 -1.5q82 0 130.5 27t48.5 73q0 69 -97 95
l-153 42q-154 41 -154 173q0 90 74.5 134t191.5 44zM318 -220h-69l44 165h89z" />
    <glyph glyph-name="scommaaccent" unicode="&#x219;" horiz-adv-x="513" 
d="M262 524q97 0 190 -27v-87q-93 31 -188 31q-27 0 -45 -1.5t-39 -7t-32 -19.5t-11 -35q0 -41 74 -58l114 -26q72 -17 110 -48.5t38 -102.5q0 -86 -62.5 -120.5t-176.5 -34.5q-93 0 -194 28v87q105 -32 195 -32q147 0 147 73q0 26 -18.5 40t-52.5 23l-150 36
q-55 13 -85.5 49t-30.5 82q0 150 217 150zM259 -220h-69l44 165h89z" />
    <glyph glyph-name="uni021A" unicode="&#x21a;" horiz-adv-x="626" 
d="M606 564h-246v-564h-94v564h-246v86h586v-86zM287 -220h-69l44 165h89z" />
    <glyph glyph-name="uni021B" unicode="&#x21b;" horiz-adv-x="399" 
d="M354 513v-77h-171v-292q0 -76 82 -76q49 0 104 18v-80q-61 -18 -100 -18q-81 0 -128.5 34t-47.5 121v293h-98v77h98l12 131h78v-131h171zM236 -220h-69l44 165h89z" />
    <glyph glyph-name="dotlessj" unicode="&#x237;" horiz-adv-x="228" 
d="M153 513v-570q0 -87 -47 -121t-127 -34q-28 0 -85 13v79q47 -12 89 -12q40 0 60 17.5t20 58.5v569h90z" />
    <glyph glyph-name="schwa" unicode="&#x259;" horiz-adv-x="580" 
d="M275 523q121 0 190.5 -66.5t69.5 -194.5q0 -140 -71 -207t-186 -67q-110 0 -172.5 65.5t-62.5 181.5v52h398v6q-1 71 -46.5 108.5t-124.5 37.5q-91 0 -223 -44v90q114 38 228 38zM277 72q66 0 105 30.5t55 107.5h-303q9 -65 44.5 -101.5t98.5 -36.5z" />
    <glyph glyph-name="uni02BC" unicode="&#x2bc;" horiz-adv-x="193" 
d="M99 525h-69l44 166h89z" />
    <glyph glyph-name="circumflex" unicode="&#x2c6;" horiz-adv-x="372" 
d="M186 677l-75 -86h-81l101 145h110l101 -145h-81z" />
    <glyph glyph-name="caron" unicode="&#x2c7;" horiz-adv-x="372" 
d="M241 591h-110l-101 145h81l75 -86l75 86h81z" />
    <glyph glyph-name="firsttonechinese" unicode="&#x2c9;" horiz-adv-x="334" 
d="M304 615h-274v77h274v-77z" />
    <glyph glyph-name="breve" unicode="&#x2d8;" horiz-adv-x="344" 
d="M237 712h77q-13 -119 -142 -119t-142 119h77q7 -53 65 -53t65 53z" />
    <glyph glyph-name="dotaccent" unicode="&#x2d9;" horiz-adv-x="158" 
d="M128 588h-98v96h98v-96z" />
    <glyph glyph-name="ring" unicode="&#x2da;" horiz-adv-x="262" 
d="M131 580q-48 0 -74.5 23.5t-26.5 62.5t26.5 62.5t74.5 23.5t74.5 -23.5t26.5 -62.5t-26.5 -62.5t-74.5 -23.5zM131 706q-52 0 -52 -40t52 -40t52 40t-52 40z" />
    <glyph glyph-name="ogonek" unicode="&#x2db;" horiz-adv-x="244" 
d="M128 4h86q-50 -21 -80 -46.5t-30 -49.5q0 -25 28 -25q35 0 81 23l1 -68q-45 -20 -90 -20q-94 0 -94 73q0 38 31.5 68.5t66.5 44.5z" />
    <glyph glyph-name="tilde" unicode="&#x2dc;" horiz-adv-x="362" 
d="M272 714h60q-6 -44 -30 -70.5t-64 -26.5q-19 0 -59 13.5t-55 13.5q-16 0 -23 -7t-11 -23h-60q6 44 30 70.5t64 26.5q22 0 59.5 -13.5t54.5 -13.5q30 0 34 30z" />
    <glyph glyph-name="hungarumlaut" unicode="&#x2dd;" horiz-adv-x="408" 
d="M108 591h-78l74 145h107zM275 591h-78l74 145h107z" />
    <glyph glyph-name="uni0312" unicode="&#x312;" horiz-adv-x="0" 
d="M94 759h69l-44 -165h-89z" />
    <glyph glyph-name="uni0326" unicode="&#x326;" horiz-adv-x="0" 
d="M99 -220h-69l44 165h89z" />
    <glyph glyph-name="uni0374" unicode="&#x374;" horiz-adv-x="203" 
d="M30 531l35 205h108l-79 -205h-64z" />
    <glyph glyph-name="uni0375" unicode="&#x375;" horiz-adv-x="203" 
d="M173 58l-35 -205h-108l79 205h64z" />
    <glyph glyph-name="uni037E" unicode="&#x37e;" horiz-adv-x="226" 
d="M89 364v97h100v-97h-100zM30 -129l62 226h104l-82 -226h-84z" />
    <glyph glyph-name="tonos" unicode="&#x384;" horiz-adv-x="213" 
d="M30 591l44 150h108l-88 -150h-64z" />
    <glyph glyph-name="dieresistonos" unicode="&#x385;" horiz-adv-x="464" 
d="M180 591l19 150h108l-63 -150h-64zM30 591v96h98v-96h-98zM336 591v96h98v-96h-98z" />
    <glyph glyph-name="Alphatonos" unicode="&#x386;" horiz-adv-x="663" 
d="M668 0h-98q-31 94 -60 168h-354q-40 -101 -60 -168h-101q65 197 151 388t130 262h111q20 -32 59 -108.5t104.5 -230.5t117.5 -311zM157 650l-88 -150h-64l44 150h108zM190 252h287q-79 197 -144 313q-65 -122 -143 -313z" />
    <glyph glyph-name="anoteleia" unicode="&#x387;" horiz-adv-x="190" 
d="M45 416v97h100v-97h-100z" />
    <glyph glyph-name="Epsilontonos" unicode="&#x388;" horiz-adv-x="599" 
d="M-153 500l44 150h108l-88 -150h-64zM539 650v-86h-365v-187h336v-85h-336v-206h365v-86h-459v650h459z" />
    <glyph glyph-name="Etatonos" unicode="&#x389;" horiz-adv-x="719" 
d="M-153 500l44 150h108l-88 -150h-64zM639 650v-650h-94v281h-371v-281h-94v650h94v-283h371v283h94z" />
    <glyph glyph-name="Iotatonos" unicode="&#x38a;" horiz-adv-x="254" 
d="M-153 500l44 150h108l-88 -150h-64zM174 650v-650h-94v650h94z" />
    <glyph glyph-name="Omicrontonos" unicode="&#x38c;" horiz-adv-x="792" 
d="M400 662q162 0 252 -91.5t90 -244.5q0 -154 -94 -246t-247 -92q-161 0 -256 92t-95 246t94.5 245t255.5 91zM-79 500l44 150h108l-88 -150h-64zM400 574q-114 0 -182.5 -63.5t-68.5 -184.5q0 -116 69 -182t183 -66q108 0 176 66.5t68 181.5q0 120 -67 184t-178 64z" />
    <glyph glyph-name="Upsilontonos" unicode="&#x38e;" horiz-adv-x="606" 
d="M-192 500l44 150h108l-88 -150h-64zM498 650h113q-63 -121 -143 -250t-118 -180v-220h-94v220q-38 50 -117 178t-144 252h110q83 -166 198 -344q102 155 195 344z" />
    <glyph glyph-name="Omegatonos" unicode="&#x38f;" horiz-adv-x="771" 
d="M729 332q0 -82 -34.5 -147t-89.5 -102h131v-83h-266v87q159 81 159 244q0 116 -65 178t-178 62q-111 0 -177.5 -61t-66.5 -179q0 -162 159 -244v-87h-266v83h132q-51 33 -88 98t-37 150q0 152 92 241.5t252 89.5q162 0 252.5 -90.5t90.5 -239.5zM-53 500l44 150h108
l-88 -150h-64z" />
    <glyph glyph-name="iotadieresistonos" unicode="&#x390;" horiz-adv-x="381" 
d="M85 591l19 150h108l-63 -150h-64zM-65 591v96h98v-96h-98zM241 591v96h98v-96h-98zM160 513v-369q0 -76 82 -76q49 0 104 18v-80q-61 -18 -100 -18q-81 0 -128.5 34t-47.5 121v370h90z" />
    <glyph glyph-name="Alpha" unicode="&#x391;" horiz-adv-x="663" 
d="M668 0h-98q-31 94 -60 168h-354q-40 -101 -60 -168h-101q65 197 151 388t130 262h111q20 -32 59 -108.5t104.5 -230.5t117.5 -311zM190 252h287q-79 197 -144 313q-65 -122 -143 -313z" />
    <glyph glyph-name="Beta" unicode="&#x392;" horiz-adv-x="674" 
d="M80 650h281q63 0 112.5 -14t84 -51t34.5 -95q0 -108 -99 -150v-1q121 -40 121 -164q0 -50 -21 -85t-60 -54.5t-86.5 -27.5t-109.5 -8h-257v650zM174 374h166q154 0 154 100q0 30 -13.5 49t-38.5 27.5t-47.5 11t-54.5 2.5h-166v-190zM174 86h158q42 0 72.5 4t57.5 14
t40.5 30.5t13.5 51.5q0 105 -180 105h-162v-205z" />
    <glyph glyph-name="Gamma" unicode="&#x393;" horiz-adv-x="563" 
d="M174 0h-94v650h438v-86h-344v-564z" />
    <glyph glyph-name="Delta" unicode="&#x394;" horiz-adv-x="702" 
d="M296 650h111q19 -30 54 -98t96 -207.5t110 -282.5v-62h-631v62q50 147 110.5 286t95.5 206t54 96zM146 88h414q-121 337 -207 477q-39 -64 -103.5 -213.5t-103.5 -263.5z" />
    <glyph glyph-name="Epsilon" unicode="&#x395;" horiz-adv-x="599" 
d="M174 564v-187h336v-85h-336v-206h365v-86h-459v650h459v-86h-365z" />
    <glyph glyph-name="Zeta" unicode="&#x396;" horiz-adv-x="599" 
d="M166 86h391v-86h-517v83l394 481h-394v86h519v-83z" />
    <glyph glyph-name="Eta" unicode="&#x397;" horiz-adv-x="719" 
d="M545 0v281h-371v-281h-94v650h94v-283h371v283h94v-650h-94z" />
    <glyph glyph-name="Theta" unicode="&#x398;" horiz-adv-x="792" 
d="M400 662q162 0 252 -91.5t90 -244.5q0 -154 -94 -246t-247 -92q-161 0 -256 92t-95 246t94.5 245t255.5 91zM400 574q-114 0 -182.5 -63.5t-68.5 -184.5q0 -116 69 -182t183 -66q108 0 176 66.5t68 181.5q0 120 -67 184t-178 64zM238 366h316v-80h-316v80z" />
    <glyph glyph-name="Iota" unicode="&#x399;" horiz-adv-x="254" 
d="M80 0v650h94v-650h-94z" />
    <glyph glyph-name="Kappa" unicode="&#x39a;" horiz-adv-x="659" 
d="M80 0v650h94v-650h-94zM510 650h144q-223 -184 -346 -324q200 -173 346 -326h-132q-143 148 -340 318q152 179 328 332z" />
    <glyph glyph-name="Lambda" unicode="&#x39b;" horiz-adv-x="663" 
d="M333 565q-54 -101 -128.5 -276.5t-108.5 -288.5h-101q65 197 151 388t130 262h111q20 -32 59 -108.5t104.5 -230.5t117.5 -311h-98q-106 320 -237 565z" />
    <glyph glyph-name="Mu" unicode="&#x39c;" horiz-adv-x="864" 
d="M612 650h95q2 -6 14 -49t16.5 -61.5t16.5 -65.5t19.5 -88t18.5 -101t21.5 -131t20.5 -154h-95q-44 328 -93 523q-107 -257 -181 -454h-66q-153 408 -179 449q-51 -209 -94 -518h-96q10 72 20 137.5t18.5 113.5t18.5 98.5t16.5 79.5t16.5 69.5t14 55.5t14.5 51.5
t12.5 44.5h95q87 -193 176 -425q93 229 180 425z" />
    <glyph glyph-name="Nu" unicode="&#x39d;" horiz-adv-x="726" 
d="M567 0l-394 524v-524h-93v650h108l365 -486v486h93v-650h-79z" />
    <glyph glyph-name="Xi" unicode="&#x39e;" horiz-adv-x="661" 
d="M62 650h537v-96h-537v96zM93 381h475v-94h-475v94zM60 96h541v-96h-541v96z" />
    <glyph glyph-name="Omicron" unicode="&#x39f;" horiz-adv-x="792" 
d="M400 662q162 0 252 -91.5t90 -244.5q0 -154 -94 -246t-247 -92q-161 0 -256 92t-95 246t94.5 245t255.5 91zM400 574q-114 0 -182.5 -63.5t-68.5 -184.5q0 -116 69 -182t183 -66q108 0 176 66.5t68 181.5q0 120 -67 184t-178 64z" />
    <glyph glyph-name="Pi" unicode="&#x3a0;" horiz-adv-x="709" 
d="M535 0v564h-361v-564h-94v650h549v-650h-94z" />
    <glyph glyph-name="Rho" unicode="&#x3a1;" horiz-adv-x="633" 
d="M80 650h270q27 0 55.5 -4.5t63.5 -19t61.5 -37.5t44.5 -64t18 -94t-18 -93.5t-44.5 -63.5t-61 -38t-63.5 -19.5t-56 -4.5h-176v-212h-94v650zM174 298h164q66 0 110.5 31t44.5 101q0 71 -44 102.5t-111 31.5h-164v-266z" />
    <glyph glyph-name="Sigma" unicode="&#x3a3;" horiz-adv-x="613" 
d="M392 328l-228 -242h409v-86h-533v71l235 252l-229 243v84h521v-86h-388l213 -226v-10z" />
    <glyph glyph-name="Tau" unicode="&#x3a4;" horiz-adv-x="626" 
d="M360 564v-564h-94v564h-246v86h586v-86h-246z" />
    <glyph glyph-name="Upsilon" unicode="&#x3a5;" horiz-adv-x="606" 
d="M498 650h113q-63 -121 -143 -250t-118 -180v-220h-94v220q-38 50 -117 178t-144 252h110q83 -166 198 -344q102 155 195 344z" />
    <glyph glyph-name="Phi" unicode="&#x3a6;" horiz-adv-x="849" 
d="M378 -51v51q-169 4 -253.5 91t-84.5 233q0 154 90 236.5t248 87.5v51h93v-51q169 -5 253.5 -91t84.5 -233q0 -149 -86.5 -234.5t-251.5 -89.5v-51h-93zM378 88v473q-115 0 -178 -59t-63 -178q0 -116 62 -176t179 -60zM471 561v-473q119 0 180 61t61 175q0 119 -63 178
t-178 59z" />
    <glyph glyph-name="Chi" unicode="&#x3a7;" horiz-adv-x="632" 
d="M637 0h-118l-205 265l-196 -265h-123l259 328l-257 322h121l195 -254l202 254h116l-251 -321z" />
    <glyph glyph-name="Psi" unicode="&#x3a8;" horiz-adv-x="852" 
d="M379 0v131q-92 0 -154 18.5t-93.5 55t-44 79t-12.5 102.5v264h94v-255q0 -103 47.5 -139.5t162.5 -36.5v431h94v-431q55 0 90.5 6.5t64.5 24.5t42 53.5t13 91.5v255h94v-267q0 -135 -71 -193.5t-233 -58.5v-131h-94z" />
    <glyph glyph-name="Omega" unicode="&#x3a9;" horiz-adv-x="771" 
d="M729 332q0 -82 -34.5 -147t-89.5 -102h131v-83h-266v87q159 81 159 244q0 116 -65 178t-178 62q-111 0 -177.5 -61t-66.5 -179q0 -162 159 -244v-87h-266v83h132q-51 33 -88 98t-37 150q0 152 92 241.5t252 89.5q162 0 252.5 -90.5t90.5 -239.5z" />
    <glyph glyph-name="Iotadieresis" unicode="&#x3aa;" horiz-adv-x="254" 
d="M78 707h-100v98h100v-98zM276 707h-100v98h100v-98zM174 0h-94v650h94v-650z" />
    <glyph glyph-name="Upsilondieresis" unicode="&#x3ab;" horiz-adv-x="606" 
d="M251 707h-100v98h100v-98zM449 707h-100v98h100v-98zM498 650h113q-63 -121 -143 -250t-118 -180v-220h-94v220q-38 50 -117 178t-144 252h110q83 -166 198 -344q102 155 195 344z" />
    <glyph glyph-name="alphatonos" unicode="&#x3ac;" horiz-adv-x="642" 
d="M288 591l44 150h108l-88 -150h-64zM567 0h-65l-10 38q-77 -50 -174 -50q-116 0 -194.5 70t-78.5 196q0 124 79.5 197t195.5 73q103 0 171 -49l9 38h67v-513zM328 71q77 0 149 47v278q-64 46 -146 46q-80 0 -135.5 -48.5t-55.5 -139.5q0 -87 54.5 -135t133.5 -48z" />
    <glyph glyph-name="epsilontonos" unicode="&#x3ad;" horiz-adv-x="565" 
d="M280 591l44 150h108l-88 -150h-64zM500 106v-89q-83 -29 -191 -29q-254 0 -254 157q0 47 26.5 79.5t77.5 40.5q-88 29 -88 112q0 62 58.5 104.5t179.5 42.5q116 0 191 -28v-89q-89 33 -192 33q-143 0 -143 -74q0 -64 117 -64h115v-82h-125q-70 0 -96.5 -18.5t-26.5 -51.5
q0 -78 161 -78q114 0 190 34z" />
    <glyph glyph-name="etatonos" unicode="&#x3ae;" horiz-adv-x="640" 
d="M278 591l44 150h108l-88 -150h-64zM362 524q103 0 153 -44t50 -156v-524h-90v508q0 72 -27 101t-106 29q-48 0 -97 -19.5t-80 -44.5v-374h-90v513h66l15 -59q33 26 90 48t116 22z" />
    <glyph glyph-name="iotatonos" unicode="&#x3af;" horiz-adv-x="381" 
d="M84 591l44 150h108l-88 -150h-64zM160 513v-369q0 -76 82 -76q49 0 104 18v-80q-61 -18 -100 -18q-81 0 -128.5 34t-47.5 121v370h90z" />
    <glyph glyph-name="upsilondieresistonos" unicode="&#x3b0;" horiz-adv-x="626" 
d="M255 591l19 150h108l-63 -150h-64zM105 591v96h98v-96h-98zM411 591v96h98v-96h-98zM309 -12q-70 0 -118 15.5t-72.5 45t-34 64.5t-9.5 82v318h90v-300q0 -75 32 -108t116 -33q164 0 164 207q0 132 -62 234h103q53 -94 53 -225q0 -144 -67.5 -222t-194.5 -78z" />
    <glyph glyph-name="alpha" unicode="&#x3b1;" horiz-adv-x="642" 
d="M567 0h-65l-10 38q-77 -50 -174 -50q-116 0 -194.5 70t-78.5 196q0 124 79.5 197t195.5 73q103 0 171 -49l9 38h67v-513zM328 71q77 0 149 47v278q-64 46 -146 46q-80 0 -135.5 -48.5t-55.5 -139.5q0 -87 54.5 -135t133.5 -48z" />
    <glyph glyph-name="beta" unicode="&#x3b2;" horiz-adv-x="647" 
d="M75 -200v694q0 110 60.5 169.5t181.5 59.5q230 0 230 -187q0 -44 -21.5 -86.5t-60.5 -62.5q137 -32 137 -176q0 -38 -9.5 -72t-34.5 -70.5t-79.5 -58.5t-132.5 -22q-109 0 -181 42v-230h-90zM320 643q-71 0 -113 -37.5t-42 -111.5v-376q66 -46 177 -46q165 0 165 144
q0 70 -41.5 93.5t-116.5 23.5h-101v83h74q72 0 104.5 28.5t32.5 87.5q0 111 -139 111z" />
    <glyph glyph-name="gamma" unicode="&#x3b3;" horiz-adv-x="595" 
d="M240 -200v145q0 66 -215 568h101q95 -228 166 -441h2q63 80 105.5 201.5t46.5 239.5h99q-6 -265 -215 -538v-175h-90z" />
    <glyph glyph-name="delta" unicode="&#x3b4;" horiz-adv-x="630" 
d="M311 -12q-124 0 -197.5 66t-73.5 179q0 93 50.5 158t146.5 89q-44 23 -64.5 50.5t-20.5 67.5q0 57 51.5 91t150.5 34q93 0 171 -30v-79q-80 29 -160 29q-117 0 -117 -53q0 -23 20.5 -38t73.5 -38t88.5 -43.5t75 -53t59.5 -77t20 -99.5q0 -115 -75 -184t-199 -69zM315 73
q87 0 131.5 47.5t44.5 116.5q0 72 -45.5 118t-124.5 77q-84 -12 -135.5 -60.5t-51.5 -133.5q0 -72 48 -118.5t133 -46.5z" />
    <glyph glyph-name="epsilon" unicode="&#x3b5;" horiz-adv-x="565" 
d="M500 106v-89q-83 -29 -191 -29q-254 0 -254 157q0 47 26.5 79.5t77.5 40.5q-88 29 -88 112q0 62 58.5 104.5t179.5 42.5q116 0 191 -28v-89q-89 33 -192 33q-143 0 -143 -74q0 -64 117 -64h115v-82h-125q-70 0 -96.5 -18.5t-26.5 -51.5q0 -78 161 -78q114 0 190 34z" />
    <glyph glyph-name="zeta" unicode="&#x3b6;" horiz-adv-x="531" 
d="M466 -200h-95q41 74 41 127q0 34 -16 45.5t-71 19.5q-61 8 -107 24t-87.5 45.5t-63.5 79.5t-22 118q0 122 78 211t197 134h-223v87h409v-79q-367 -103 -367 -344q0 -161 207 -183q85 -9 122.5 -39t37.5 -100q0 -72 -40 -146z" />
    <glyph glyph-name="eta" unicode="&#x3b7;" horiz-adv-x="640" 
d="M362 524q103 0 153 -44t50 -156v-524h-90v508q0 72 -27 101t-106 29q-48 0 -97 -19.5t-80 -44.5v-374h-90v513h66l15 -59q33 26 90 48t116 22z" />
    <glyph glyph-name="theta" unicode="&#x3b8;" horiz-adv-x="640" 
d="M319 -12q-274 0 -274 374q0 74 13.5 135.5t43.5 114t85.5 82t131.5 29.5q133 0 204.5 -91t71.5 -271q0 -373 -276 -373zM139 408h362q-2 125 -52.5 178t-129.5 53q-35 0 -64 -10.5t-56 -34.5t-43 -71.5t-17 -114.5zM319 73q95 0 138.5 61t43.5 191h-362q0 -126 41 -189
t139 -63z" />
    <glyph glyph-name="iota" unicode="&#x3b9;" horiz-adv-x="381" 
d="M160 513v-369q0 -76 82 -76q49 0 104 18v-80q-61 -18 -100 -18q-81 0 -128.5 34t-47.5 121v370h90z" />
    <glyph glyph-name="kappa" unicode="&#x3ba;" horiz-adv-x="564" 
d="M75 0v513h90v-513h-90zM412 513h131q-58 -46 -92 -74.5t-81.5 -74t-82.5 -87.5q67 -53 158 -146.5t119 -130.5h-127q-132 154 -259 266q103 133 234 247z" />
    <glyph glyph-name="lambda" unicode="&#x3bb;" horiz-adv-x="557" 
d="M107 639q-39 0 -70 -12v83q36 13 84 13q71 0 112.5 -37.5t104.5 -164.5q107 -214 204 -521h-98q-35 105 -51.5 152.5t-46 121.5t-61.5 138q-42 -58 -90 -175t-76 -237h-99q17 97 82 252.5t139 248.5q-43 84 -66.5 111t-67.5 27z" />
    <glyph glyph-name="mu" unicode="&#x3bc;" horiz-adv-x="639" 
d="M564 513v-513h-66l-13 47q-46 -27 -102 -43t-97 -16q-75 0 -122 36l-1 -224h-88v713h90v-300q0 -67 28.5 -104t103.5 -37q101 0 177 51v390h90z" />
    <glyph glyph-name="nu" unicode="&#x3bd;" horiz-adv-x="519" 
d="M429 513h100q-119 -309 -235 -513h-72q-115 204 -232 513h103q98 -269 169 -397q35 63 67.5 138t49 120t50.5 139z" />
    <glyph glyph-name="xi" unicode="&#x3be;" horiz-adv-x="565" 
d="M332 -8q-160 18 -223.5 64t-63.5 138q0 75 45 124t112 62q-126 33 -126 153q0 94 65.5 142t191.5 48q106 0 182 -32v-86q-84 34 -175 34q-83 0 -127.5 -24.5t-44.5 -87.5q0 -32 15.5 -53.5t45 -32.5t63 -15t79.5 -4h97v-87h-125q-100 0 -152 -27.5t-52 -93.5
q0 -62 48.5 -89t165.5 -40q85 -9 122.5 -39t37.5 -100q0 -72 -40 -146h-95q41 74 41 127q0 34 -16.5 46.5t-70.5 18.5z" />
    <glyph glyph-name="omicron" unicode="&#x3bf;" horiz-adv-x="640" 
d="M320 524q116 0 195.5 -71t79.5 -198q0 -128 -79.5 -197.5t-196.5 -69.5q-116 0 -195 69.5t-79 197.5q0 127 79.5 198t195.5 71zM320 440q-79 0 -130 -50.5t-51 -134.5q0 -78 46.5 -130t135.5 -52q87 0 133.5 52.5t46.5 129.5q0 84 -51 134.5t-130 50.5z" />
    <glyph glyph-name="pi" unicode="&#x3c0;" horiz-adv-x="733" 
d="M153 0v426h-123v87h658v-87h-135v-276q0 -17 0.5 -26t3.5 -21.5t9.5 -19t18.5 -11t29 -4.5q31 0 57 11v-80q-36 -11 -73 -11q-71 0 -103 34.5t-32 113.5v290h-220v-426h-90z" />
    <glyph glyph-name="rho" unicode="&#x3c1;" horiz-adv-x="627" 
d="M324 524q113 0 185.5 -70t72.5 -192q0 -129 -80 -201.5t-190 -72.5q-88 0 -162 42v-230h-90v471q0 122 69.5 187.5t194.5 65.5zM300 72q89 0 138 53t49 134q0 79 -47 131t-133 52q-49 0 -82.5 -16.5t-48.5 -44t-20.5 -52t-5.5 -52.5v-159q65 -46 150 -46z" />
    <glyph glyph-name="sigmafinal" unicode="&#x3c2;" horiz-adv-x="553" 
d="M325 -8q-280 24 -280 267q0 124 77 194.5t195 70.5q61 0 98 -8t86 -27l-1 -88q-103 39 -173 39q-83 0 -135.5 -46.5t-52.5 -134.5q0 -74 54 -118.5t153 -55.5q85 -9 122.5 -39t37.5 -100q0 -72 -40 -146h-95q41 74 41 127q0 34 -16 45.5t-71 19.5z" />
    <glyph glyph-name="sigma" unicode="&#x3c3;" horiz-adv-x="664" 
d="M321 -12q-126 0 -201 70.5t-75 192.5q0 119 75.5 190.5t198.5 71.5h310v-87h-123q79 -63 79 -174q0 -74 -27 -128.5t-69.5 -82.5t-84.5 -40.5t-83 -12.5zM320 73q73 0 122 45.5t49 134.5q0 111 -104 173h-71q-89 0 -133 -51t-44 -125q0 -84 49.5 -130.5t131.5 -46.5z" />
    <glyph glyph-name="tau" unicode="&#x3c4;" horiz-adv-x="582" 
d="M542 513v-87h-225v-282q0 -43 18 -59.5t64 -16.5q39 0 88 16v-80q-54 -16 -103 -16q-73 0 -115 34t-42 121v283h-192v87h507z" />
    <glyph glyph-name="upsilon" unicode="&#x3c5;" horiz-adv-x="626" 
d="M309 -12q-70 0 -118 15.5t-72.5 45t-34 64.5t-9.5 82v318h90v-300q0 -75 32 -108t116 -33q164 0 164 207q0 132 -62 234h103q53 -94 53 -225q0 -144 -67.5 -222t-194.5 -78z" />
    <glyph glyph-name="phi" unicode="&#x3c6;" horiz-adv-x="800" 
d="M355 -200v182q-51 0 -95.5 8.5t-84.5 29.5t-68.5 52t-45 78.5t-16.5 107.5q0 125 76.5 199t233.5 75v130h90v-130q146 0 228 -70t82 -204q0 -138 -82 -206.5t-228 -69.5v-182h-90zM355 64v386q-108 0 -162 -46t-54 -147t54 -147t162 -46zM445 450v-386q111 0 163.5 48
t52.5 145q0 193 -216 193z" />
    <glyph glyph-name="chi" unicode="&#x3c7;" horiz-adv-x="549" 
d="M274 227l163 286h94l-208 -355l211 -358h-101l-162 287l-165 -287h-94l210 356l-212 357h100z" />
    <glyph glyph-name="psi" unicode="&#x3c8;" horiz-adv-x="779" 
d="M345 -200v188q-84 0 -139.5 18t-83 53t-37.5 73t-10 91v290h90v-289q0 -90 38 -120t142 -32v590h90v-590h22q173 0 173 213q0 51 -16 115.5t-46 112.5h103q53 -94 53 -224q0 -143 -69 -222t-202 -79h-19v-188h-89z" />
    <glyph glyph-name="omega" unicode="&#x3c9;" horiz-adv-x="800" 
d="M400 86q-44 -98 -164 -98q-88 0 -137 60t-49 173q0 163 94 292h100q-42 -55 -71 -134.5t-29 -161.5q0 -144 103 -144q48 0 78 32t30 87v200h90v-200q0 -55 30 -87t78 -32q103 0 103 144q0 82 -29 161.5t-71 134.5h100q94 -129 94 -292q0 -110 -48.5 -171.5t-137.5 -61.5
q-118 0 -164 98z" />
    <glyph glyph-name="iotadieresis" unicode="&#x3ca;" horiz-adv-x="381" 
d="M64 684v-96h-98v96h98zM262 684v-96h-98v96h98zM160 513v-369q0 -76 82 -76q49 0 104 18v-80q-61 -18 -100 -18q-81 0 -128.5 34t-47.5 121v370h90z" />
    <glyph glyph-name="upsilondieresis" unicode="&#x3cb;" horiz-adv-x="626" 
d="M250 684v-96h-98v96h98zM448 684v-96h-98v96h98zM309 -12q-70 0 -118 15.5t-72.5 45t-34 64.5t-9.5 82v318h90v-300q0 -75 32 -108t116 -33q164 0 164 207q0 132 -62 234h103q53 -94 53 -225q0 -144 -67.5 -222t-194.5 -78z" />
    <glyph glyph-name="omicrontonos" unicode="&#x3cc;" horiz-adv-x="640" 
d="M288 591l44 150h108l-88 -150h-64zM320 524q116 0 195.5 -71t79.5 -198q0 -128 -79.5 -197.5t-196.5 -69.5q-116 0 -195 69.5t-79 197.5q0 127 79.5 198t195.5 71zM320 440q-79 0 -130 -50.5t-51 -134.5q0 -78 46.5 -130t135.5 -52q87 0 133.5 52.5t46.5 129.5
q0 84 -51 134.5t-130 50.5z" />
    <glyph glyph-name="upsilontonos" unicode="&#x3cd;" horiz-adv-x="626" 
d="M272 591l44 150h108l-88 -150h-64zM309 -12q-70 0 -118 15.5t-72.5 45t-34 64.5t-9.5 82v318h90v-300q0 -75 32 -108t116 -33q164 0 164 207q0 132 -62 234h103q53 -94 53 -225q0 -144 -67.5 -222t-194.5 -78z" />
    <glyph glyph-name="omegatonos" unicode="&#x3ce;" horiz-adv-x="800" 
d="M364 591l44 150h108l-88 -150h-64zM400 86q-44 -98 -164 -98q-88 0 -137 60t-49 173q0 163 94 292h100q-42 -55 -71 -134.5t-29 -161.5q0 -144 103 -144q48 0 78 32t30 87v200h90v-200q0 -55 30 -87t78 -32q103 0 103 144q0 82 -29 161.5t-71 134.5h100q94 -129 94 -292
q0 -110 -48.5 -171.5t-137.5 -61.5q-118 0 -164 98z" />
    <glyph glyph-name="uni0400" unicode="&#x400;" horiz-adv-x="599" 
d="M357 710h-79l-101 145h106zM539 564h-365v-187h336v-85h-336v-206h365v-86h-459v650h459v-86z" />
    <glyph glyph-name="uni0401" unicode="&#x401;" horiz-adv-x="599" 
d="M261 707h-100v98h100v-98zM459 707h-100v98h100v-98zM539 564h-365v-187h336v-85h-336v-206h365v-86h-459v650h459v-86z" />
    <glyph glyph-name="uni0402" unicode="&#x402;" horiz-adv-x="806" 
d="M546 451q106 0 153 -49.5t47 -177.5v-29q0 -100 -36 -153t-127 -53q-50 0 -119 21v87q84 -22 120 -22q68 0 68 114v32q0 84 -25.5 114t-89.5 30q-90 0 -177 -65v-300h-94v564h-246v86h586v-86h-246v-178q92 65 186 65z" />
    <glyph glyph-name="uni0403" unicode="&#x403;" horiz-adv-x="506" 
d="M289 710h-79l74 145h106zM486 564h-312v-564h-94v650h406v-86z" />
    <glyph glyph-name="uni0404" unicode="&#x404;" horiz-adv-x="655" 
d="M377 74q66 0 114 10t114 36v-92q-103 -40 -235 -40q-150 0 -235 84t-85 252q0 171 87 254.5t242 83.5q128 0 221 -44v-94q-102 52 -223 52q-98 0 -157 -50t-72 -146h346v-86h-349q7 -111 69 -165.5t163 -54.5z" />
    <glyph glyph-name="uni0405" unicode="&#x405;" horiz-adv-x="605" 
d="M320 662q103 0 207 -34v-90q-126 39 -207 39q-73 0 -122 -21.5t-49 -71.5q0 -64 95 -90l165 -47q146 -40 146 -170q0 -91 -72 -140t-204 -49q-116 0 -234 44v95q8 -3 31.5 -11t33.5 -11t31 -9t34.5 -9t32 -6.5t36 -5t35.5 -1.5q82 0 130.5 27t48.5 73q0 69 -97 95
l-153 42q-154 41 -154 173q0 90 74.5 134t191.5 44z" />
    <glyph glyph-name="uni0406" unicode="&#x406;" horiz-adv-x="254" 
d="M174 0h-94v650h94v-650z" />
    <glyph glyph-name="uni0407" unicode="&#x407;" horiz-adv-x="254" 
d="M78 707h-100v98h100v-98zM276 707h-100v98h100v-98zM174 0h-94v650h94v-650z" />
    <glyph glyph-name="uni0408" unicode="&#x408;" horiz-adv-x="454" 
d="M379 650v-466q0 -90 -56.5 -143t-150.5 -53q-75 0 -162 26v94q85 -31 158 -31q117 0 117 129v444h94z" />
    <glyph glyph-name="uni0409" unicode="&#x409;" horiz-adv-x="974" 
d="M556 417h142q116 0 183.5 -51t67.5 -145q0 -221 -248 -221h-239v564h-207q-17 -200 -53 -355q-27 -115 -68.5 -168t-123.5 -53q-14 0 -24 1l-1 82q7 -1 15 -1q46 0 71.5 44.5t47.5 140.5q28 132 47 395h390v-233zM556 86h145q72 0 111.5 35t39.5 96q0 53 -41.5 83.5
t-114.5 30.5h-140v-245z" />
    <glyph glyph-name="uni040A" unicode="&#x40a;" horiz-adv-x="1043" 
d="M625 386h147q114 0 180 -48t66 -133q0 -97 -61.5 -151t-182.5 -54h-240v300h-360v-300h-94v650h94v-264h360v264h91v-264zM625 86h149q147 0 147 115q0 99 -151 99h-145v-214z" />
    <glyph glyph-name="uni040B" unicode="&#x40b;" horiz-adv-x="805" 
d="M545 451q105 0 152.5 -49.5t47.5 -177.5v-223h-94v220q0 84 -25.5 114t-89.5 30q-92 0 -176 -64v-301h-94v564h-246v86h586v-86h-246v-177q91 64 185 64z" />
    <glyph glyph-name="uni040C" unicode="&#x40c;" horiz-adv-x="643" 
d="M358 710h-79l74 145h106zM309 328q36 -31 70 -62.5t72.5 -70.5t58.5 -59.5t67.5 -71t60.5 -64.5h-128q-171 183 -272 274h-64v-274h-94v650h94v-290h55q129 155 274 290h132q-169 -144 -326 -322z" />
    <glyph glyph-name="uni040D" unicode="&#x40d;" horiz-adv-x="725" 
d="M407 710h-79l-101 145h106zM173 650v-504l371 504h101v-650h-93v526l-390 -526h-82v650h93z" />
    <glyph glyph-name="uni040E" unicode="&#x40e;" horiz-adv-x="599" 
d="M370 827h77q-13 -119 -142 -119t-142 119h77q7 -53 65 -53t65 53zM499 650h110q-181 -345 -386 -650h-118q88 119 151 219q-40 56 -117.5 184t-138.5 247h105q71 -140 206 -343q63 96 188 343z" />
    <glyph glyph-name="uni040F" unicode="&#x40f;" horiz-adv-x="694" 
d="M614 0h-222v-137h-90v137h-222v650h94v-564h346v564h94v-650z" />
    <glyph glyph-name="uni0410" unicode="&#x410;" horiz-adv-x="663" 
d="M668 0h-98q-31 94 -60 168h-354q-40 -101 -60 -168h-101q65 197 151 388t130 262h111q20 -32 59 -108.5t104.5 -230.5t117.5 -311zM190 252h287q-79 197 -144 313q-65 -122 -143 -313z" />
    <glyph glyph-name="uni0411" unicode="&#x411;" horiz-adv-x="610" 
d="M494 564h-320v-147h150q116 0 183.5 -51t67.5 -145q0 -221 -248 -221h-249v650h416v-86zM172 331v-245h155q72 0 111.5 35t39.5 96q0 53 -41.5 83.5t-114.5 30.5h-150z" />
    <glyph glyph-name="uni0412" unicode="&#x412;" horiz-adv-x="674" 
d="M80 650h281q63 0 112.5 -14t84 -51t34.5 -95q0 -108 -99 -150v-1q121 -40 121 -164q0 -50 -21 -85t-60 -54.5t-86.5 -27.5t-109.5 -8h-257v650zM174 564v-190h166q154 0 154 100q0 30 -13.5 49t-38.5 27.5t-47.5 11t-54.5 2.5h-166zM174 291v-205h158q42 0 72.5 4
t57.5 14t40.5 30.5t13.5 51.5q0 105 -180 105h-162z" />
    <glyph glyph-name="uni0413" unicode="&#x413;" horiz-adv-x="506" 
d="M486 564h-312v-564h-94v650h406v-86z" />
    <glyph glyph-name="uni0414" unicode="&#x414;" horiz-adv-x="678" 
d="M673 86v-223h-91v137h-497v-137h-90v223h64q41 29 72 169q28 132 47 396l410 -1v-564h85zM494 86v478h-230q-17 -200 -52 -351q-20 -86 -48 -127h330z" />
    <glyph glyph-name="uni0415" unicode="&#x415;" horiz-adv-x="599" 
d="M539 564h-365v-187h336v-85h-336v-206h365v-86h-459v650h459v-86z" />
    <glyph glyph-name="uni0416" unicode="&#x416;" horiz-adv-x="908" 
d="M898 0h-122q-141 200 -196 274h-81v-274h-90v274h-81q-55 -74 -196 -274h-122q156 224 239 328q-115 180 -236 322h124q108 -140 197 -290h75v290h90v-290h75q89 150 197 290h124q-121 -142 -236 -322q83 -104 239 -328z" />
    <glyph glyph-name="uni0417" unicode="&#x417;" horiz-adv-x="628" 
d="M289 662q257 0 257 -174q0 -50 -26 -88.5t-71 -57.5v-1q53 -17 86 -56.5t33 -93.5q0 -203 -273 -203q-127 0 -230 40v94q119 -48 223 -48q99 0 141 29.5t42 86.5q0 100 -164 100h-154v86h154q71 0 106.5 27t35.5 74q0 99 -158 99q-115 0 -221 -54v96q40 19 102 31.5
t117 12.5z" />
    <glyph glyph-name="uni0418" unicode="&#x418;" horiz-adv-x="725" 
d="M173 650v-504l371 504h101v-650h-93v526l-390 -526h-82v650h93z" />
    <glyph glyph-name="uni0419" unicode="&#x419;" horiz-adv-x="725" 
d="M503 817h-59q-19 -55 -81 -55q-51 0 -60 55h-84q9 -120 133 -120q127 0 151 120zM173 650v-504l371 504h101v-650h-93v526l-390 -526h-82v650h93z" />
    <glyph glyph-name="uni041A" unicode="&#x41a;" horiz-adv-x="643" 
d="M309 328q36 -31 70 -62.5t72.5 -70.5t58.5 -59.5t67.5 -71t60.5 -64.5h-128q-171 183 -272 274h-64v-274h-94v650h94v-290h55q129 155 274 290h132q-169 -144 -326 -322z" />
    <glyph glyph-name="uni041B" unicode="&#x41b;" horiz-adv-x="646" 
d="M566 650h-400q-19 -263 -47 -395q-22 -96 -47.5 -140.5t-71.5 -44.5q-8 0 -15 1l1 -82q10 -1 24 -1q82 0 123.5 53t68.5 168q36 155 53 355h217v-564h94v650z" />
    <glyph glyph-name="uni041C" unicode="&#x41c;" horiz-adv-x="864" 
d="M612 650h95q2 -6 14 -49t16.5 -61.5t16.5 -65.5t19.5 -88t18.5 -101t21.5 -131t20.5 -154h-95q-44 328 -93 523q-107 -257 -181 -454h-66q-155 410 -179 449q-51 -209 -94 -518h-96q10 72 20 137.5t18.5 113.5t18.5 98.5t16.5 79.5t16.5 69.5t14 55.5t14.5 51.5
t12.5 44.5h95q87 -193 176 -425q93 229 180 425z" />
    <glyph glyph-name="uni041D" unicode="&#x41d;" horiz-adv-x="719" 
d="M639 0h-94v281h-371v-281h-94v650h94v-283h371v283h94v-650z" />
    <glyph glyph-name="uni041E" unicode="&#x41e;" horiz-adv-x="792" 
d="M400 662q162 0 252 -91.5t90 -244.5q0 -154 -94 -246t-247 -92q-161 0 -256 92t-95 246t94.5 245t255.5 91zM400 574q-114 0 -182.5 -63.5t-68.5 -184.5q0 -116 69 -182t183 -66q108 0 176 66.5t68 181.5q0 120 -67 184t-178 64z" />
    <glyph glyph-name="uni041F" unicode="&#x41f;" horiz-adv-x="709" 
d="M629 0h-94v564h-361v-564h-94v650h549v-650z" />
    <glyph glyph-name="uni0420" unicode="&#x420;" horiz-adv-x="633" 
d="M80 650h270q27 0 55.5 -4.5t63.5 -19t61.5 -37.5t44.5 -64t18 -94t-18 -93.5t-44.5 -63.5t-61 -38t-63.5 -19.5t-56 -4.5h-176v-212h-94v650zM174 564v-266h164q66 0 110.5 31t44.5 101q0 71 -44 102.5t-111 31.5h-164z" />
    <glyph glyph-name="uni0421" unicode="&#x421;" horiz-adv-x="704" 
d="M436 662q120 0 213 -42v-98q-101 52 -215 52q-125 0 -205 -66t-80 -188q0 -64 26 -112.5t69 -76.5t93 -41.5t104 -13.5q61 0 104 9t109 35v-92q-96 -40 -220 -40q-56 0 -109.5 11t-104 36.5t-88 63t-60 94.5t-22.5 126q0 85 31.5 152t85.5 108t122.5 62t146.5 21z" />
    <glyph glyph-name="uni0422" unicode="&#x422;" horiz-adv-x="626" 
d="M606 564h-246v-564h-94v564h-246v86h586v-86z" />
    <glyph glyph-name="uni0423" unicode="&#x423;" horiz-adv-x="599" 
d="M499 650h110q-181 -345 -386 -650h-118q88 119 151 219q-40 56 -117.5 184t-138.5 247h105q71 -140 206 -343q63 96 188 343z" />
    <glyph glyph-name="uni0424" unicode="&#x424;" horiz-adv-x="828" 
d="M778 326q0 -147 -80.5 -237t-239.5 -100v-41h-90v42q-159 13 -239 101t-80 235q0 145 80.5 233t238.5 101v42h90v-41q157 -10 238.5 -98.5t81.5 -236.5zM456 575v-501q115 9 170.5 75.5t55.5 175.5q0 111 -57 176t-169 74zM145 326q0 -109 57.5 -173.5t167.5 -76.5v498
q-225 -22 -225 -248z" />
    <glyph glyph-name="uni0425" unicode="&#x425;" horiz-adv-x="632" 
d="M380 329l257 -329h-118l-205 265l-196 -265h-123l259 328l-257 322h121l195 -254l202 254h116z" />
    <glyph glyph-name="uni0426" unicode="&#x426;" horiz-adv-x="704" 
d="M699 86v-223h-90v137h-529v650h94v-564h346v564h94v-564h85z" />
    <glyph glyph-name="uni0427" unicode="&#x427;" horiz-adv-x="620" 
d="M540 650v-649h-94v249q-92 -65 -186 -65q-106 0 -153 49.5t-47 177.5v238h94v-235q0 -84 25.5 -114t89.5 -30q90 0 177 65v314h94z" />
    <glyph glyph-name="uni0428" unicode="&#x428;" horiz-adv-x="944" 
d="M864 650v-650h-784v650h94v-564h253v564h90v-564h253v564h94z" />
    <glyph glyph-name="uni0429" unicode="&#x429;" horiz-adv-x="954" 
d="M949 86v-223h-90v137h-779v650h94v-564h253v564h90v-564h253v564h94v-564h85z" />
    <glyph glyph-name="uni042A" unicode="&#x42a;" horiz-adv-x="727" 
d="M299 417h152q116 0 183.5 -51t67.5 -145q0 -221 -248 -221h-249v566h-200v84h294v-233zM297 86h157q72 0 111.5 35t39.5 96q0 53 -41.5 83.5t-114.5 30.5h-152v-245z" />
    <glyph glyph-name="uni042B" unicode="&#x42b;" horiz-adv-x="855" 
d="M174 417h152q116 0 183.5 -51t67.5 -145q0 -221 -248 -221h-249v650h94v-233zM775 0h-94v650h94v-650zM172 331v-245h157q72 0 111.5 35t39.5 96q0 53 -41.5 83.5t-114.5 30.5h-152z" />
    <glyph glyph-name="uni042C" unicode="&#x42c;" horiz-adv-x="602" 
d="M174 417h152q116 0 183.5 -51t67.5 -145q0 -221 -248 -221h-249v650h94v-233zM172 86h157q72 0 111.5 35t39.5 96q0 53 -41.5 83.5t-114.5 30.5h-152v-245z" />
    <glyph glyph-name="uni042D" unicode="&#x42d;" horiz-adv-x="655" 
d="M276 662q155 0 242 -83.5t87 -254.5q0 -165 -92 -250.5t-235 -85.5q-126 0 -228 40v92q67 -27 111.5 -36.5t109.5 -9.5q103 0 167.5 54t71.5 166h-349v86h346q-13 96 -72 146t-157 50q-121 0 -223 -52v94q93 44 221 44z" />
    <glyph glyph-name="uni042E" unicode="&#x42e;" horiz-adv-x="989" 
d="M615 662q149 0 236.5 -91.5t87.5 -244.5q0 -155 -85 -246.5t-239 -91.5q-146 0 -233.5 81t-98.5 221h-109v-290h-94v650h94v-274h110q14 134 99 210t232 76zM615 74q108 0 167.5 68.5t59.5 182.5q0 116 -61.5 183.5t-165.5 67.5q-109 0 -173 -64t-64 -186
q0 -117 66.5 -184.5t170.5 -67.5z" />
    <glyph glyph-name="uni042F" unicode="&#x42f;" horiz-adv-x="645" 
d="M565 650v-650h-94v237h-135q-65 -67 -187 -237h-119q2 4 29 41.5t75.5 100t89.5 107.5q-157 33 -157 194q0 97 68 152t190 55h240zM471 564h-150q-77 0 -117 -33.5t-40 -85.5q0 -61 40 -91.5t113 -30.5h154v241z" />
    <glyph glyph-name="uni0430" unicode="&#x430;" horiz-adv-x="603" 
d="M286 524q125 0 183.5 -50.5t58.5 -170.5v-303h-68l-12 47q-87 -59 -192 -59q-88 0 -145.5 44.5t-57.5 126.5q0 86 62 126.5t154 40.5q97 0 169 -36v30q0 36 -12.5 61t-36.5 37t-50.5 17t-62.5 5q-83 0 -191 -35v89q100 30 201 30zM148 160q0 -48 35.5 -69t88.5 -21
q84 0 166 52v93q-68 36 -158 36q-132 0 -132 -91z" />
    <glyph glyph-name="uni0431" unicode="&#x431;" horiz-adv-x="620" 
d="M341 484q108 0 171.5 -63.5t63.5 -176.5q0 -111 -70 -183.5t-189 -72.5q-133 0 -200 74.5t-67 237.5v2q0 107 15.5 175t56 114t105 68t169.5 32q54 5 78 11t41 23l23 -87q-25 -32 -150 -36q-135 -5 -187 -56t-56 -148q76 86 196 86zM319 72q75 0 118.5 46t43.5 123
q0 78 -38 118.5t-110 40.5q-130 0 -190 -115q-3 -112 41.5 -162.5t134.5 -50.5z" />
    <glyph glyph-name="uni0432" unicode="&#x432;" horiz-adv-x="586" 
d="M75 513h243q94 0 144.5 -34.5t50.5 -93.5q0 -37 -22.5 -68t-60.5 -46v-1q106 -33 106 -119q0 -76 -53.5 -113.5t-174.5 -37.5h-233v513zM165 436v-137h152q54 0 78 17.5t24 54.5q0 65 -102 65h-152zM165 229v-152h151q126 0 126 76t-125 76h-152z" />
    <glyph glyph-name="uni0433" unicode="&#x433;" horiz-adv-x="426" 
d="M401 436h-236v-436h-90v513h326v-77z" />
    <glyph glyph-name="uni0434" unicode="&#x434;" horiz-adv-x="591" 
d="M586 77v-214h-84v137h-418v-137h-84v214h62q33 27 53 127.5t37 308.5l352 -1v-435h82zM414 77v358h-179q-14 -149 -31 -231.5t-44 -126.5h254z" />
    <glyph glyph-name="uni0435" unicode="&#x435;" horiz-adv-x="584" 
d="M537 223h-402q13 -151 189 -151q52 0 90.5 8t112.5 30v-87q-99 -35 -207 -35q-117 0 -196 66t-79 199q0 70 22 124t60 85t84 46.5t99 15.5q106 0 166.5 -66t60.5 -182v-53zM139 300h306q-2 62 -36.5 101t-100.5 39t-114.5 -35.5t-54.5 -104.5z" />
    <glyph glyph-name="uni0436" unicode="&#x436;" horiz-adv-x="770" 
d="M770 0h-111q-81 118 -166 222h-64v-222h-86v222h-66q-85 -104 -166 -222h-111q80 116 205 272q-81 114 -196 241h114q47 -57 165 -214h55v214h86v-214h53q118 157 165 214h114q-115 -127 -196 -241q125 -156 205 -272z" />
    <glyph glyph-name="uni0437" unicode="&#x437;" horiz-adv-x="519" 
d="M253 524q97 0 148.5 -37.5t51.5 -93.5q0 -41 -23.5 -74t-61.5 -48v-1q101 -32 101 -124q0 -73 -54.5 -115.5t-170.5 -42.5q-106 0 -192 30v89q105 -37 194 -37q64 0 96.5 22t32.5 61q0 76 -125 76h-144l1 70h143q109 0 109 72q0 71 -110 71q-80 0 -188 -35l-1 86
q100 31 193 31z" />
    <glyph glyph-name="uni0438" unicode="&#x438;" horiz-adv-x="607" 
d="M163 513v-377l271 377h98v-513h-88v399l-290 -399h-79v513h88z" />
    <glyph glyph-name="uni0439" unicode="&#x439;" horiz-adv-x="607" 
d="M443 713h-59q-19 -55 -81 -55q-51 0 -60 55h-84q9 -120 133 -120q127 0 151 120zM163 513v-377l271 377h98v-513h-88v399l-290 -399h-79v513h88z" />
    <glyph glyph-name="uni043A" unicode="&#x43a;" horiz-adv-x="559" 
d="M288 274q140 -129 271 -274h-122q-164 175 -213 222h-59v-222h-90v513h90v-214h42q112 121 215 214h127q-115 -91 -261 -239z" />
    <glyph glyph-name="uni043B" unicode="&#x43b;" horiz-adv-x="547" 
d="M472 513h-344q-20 -252 -47 -350t-76 -98q-8 0 -15 1l1 -77q10 -1 24 -1q59 0 95 38.5t60 135t41 274.5h171v-436h90v513z" />
    <glyph glyph-name="uni043C" unicode="&#x43c;" horiz-adv-x="668" 
d="M474 513h94q41 -194 85 -513h-93q-38 317 -51 376q-38 -79 -139 -331h-72q-108 265 -137 326q-26 -114 -52 -371h-94q46 322 89 513h91q31 -66 139 -335q9 20 60 147.5t80 187.5z" />
    <glyph glyph-name="uni043D" unicode="&#x43d;" horiz-adv-x="607" 
d="M442 0v222h-277v-222h-90v513h90v-214h277v214h90v-513h-90z" />
    <glyph glyph-name="uni043E" unicode="&#x43e;" horiz-adv-x="640" 
d="M320 524q116 0 195.5 -71t79.5 -198q0 -128 -79.5 -197.5t-196.5 -69.5q-116 0 -195 69.5t-79 197.5q0 127 79.5 198t195.5 71zM320 440q-79 0 -130 -50.5t-51 -134.5q0 -78 46.5 -130t135.5 -52q87 0 133.5 52.5t46.5 129.5q0 84 -51 134.5t-130 50.5z" />
    <glyph glyph-name="uni043F" unicode="&#x43f;" horiz-adv-x="622" 
d="M547 0h-90v436h-292v-436h-90v513h472v-513z" />
    <glyph glyph-name="uni0440" unicode="&#x440;" horiz-adv-x="642" 
d="M339 524q113 0 185.5 -70t72.5 -192q0 -129 -80 -201.5t-190 -72.5q-89 0 -162 42v-230h-90v713h66l13 -48q79 59 185 59zM315 72q89 0 138 53t49 134q0 79 -47 131t-133 52q-89 0 -157 -58v-266q65 -46 150 -46z" />
    <glyph glyph-name="uni0441" unicode="&#x441;" horiz-adv-x="553" 
d="M327 524q57 0 90.5 -6.5t82.5 -24.5v-89q-96 36 -163 36q-85 0 -141.5 -48t-56.5 -138q0 -75 53.5 -128.5t144.5 -53.5q16 0 29 0.5t27.5 3t21 3t23.5 5.5t20 6t25 8t25 8v-89q-97 -29 -179 -29q-121 0 -202.5 72t-81.5 196t81 196t201 72z" />
    <glyph glyph-name="uni0442" unicode="&#x442;" horiz-adv-x="534" 
d="M509 436h-197v-436h-90v436h-197v77h484v-77z" />
    <glyph glyph-name="uni0443" unicode="&#x443;" horiz-adv-x="541" 
d="M446 513h105q-120 -329 -343 -713h-104q12 22 55 97.5t65 115.5q-142 256 -234 500h100q73 -201 185 -404q92 182 171 404z" />
    <glyph glyph-name="uni0444" unicode="&#x444;" horiz-adv-x="806" 
d="M500 523q111 0 186 -68.5t75 -195.5q0 -133 -77 -202t-189 -69q-25 0 -47 3v-191h-90v191q-22 -3 -47 -3q-112 0 -189 69t-77 202q0 127 75 195.5t186 68.5q22 0 52 -2v170h90l-2 -171q24 3 54 3zM139 256q0 -87 48.5 -136.5t123.5 -49.5q34 0 49 2v367q-26 2 -45 2
q-84 0 -130 -51.5t-46 -133.5zM495 70q75 0 123.5 49.5t48.5 136.5q0 82 -46 133.5t-130 51.5q-19 0 -47 -2v-367q32 -2 51 -2z" />
    <glyph glyph-name="uni0445" unicode="&#x445;" horiz-adv-x="523" 
d="M323 252l201 -252h-117l-141 188l-150 -188h-119l208 252l-210 261h113l156 -198l150 198h114z" />
    <glyph glyph-name="uni0446" unicode="&#x446;" horiz-adv-x="624" 
d="M619 77v-214h-84v137h-460v513h90v-436h282v436h90v-436h82z" />
    <glyph glyph-name="uni0447" unicode="&#x447;" horiz-adv-x="568" 
d="M493 513v-513h-90v193q-88 -65 -168 -65q-97 0 -141 49t-44 171v165h90v-165q0 -76 23.5 -106t79.5 -30q77 0 160 66v235h90z" />
    <glyph glyph-name="uni0448" unicode="&#x448;" horiz-adv-x="852" 
d="M777 513v-513h-702v513h90v-436h218v436h86v-436h218v436h90z" />
    <glyph glyph-name="uni0449" unicode="&#x449;" horiz-adv-x="864" 
d="M859 77v-214h-84v137h-700v513h90v-436h218v436h86v-436h218v436h90v-436h82z" />
    <glyph glyph-name="uni044A" unicode="&#x44a;" horiz-adv-x="693" 
d="M449 353q105 0 162 -45.5t57 -130.5q0 -96 -59.5 -142.5t-187.5 -46.5q-96 0 -225 18v430h-176v77h266v-198q84 38 163 38zM422 69q82 0 117 26.5t35 78.5q0 95 -134 95q-81 0 -154 -38v-149q75 -13 136 -13z" />
    <glyph glyph-name="uni044B" unicode="&#x44b;" horiz-adv-x="801" 
d="M325 353q100 0 156 -46t56 -130q0 -189 -240 -189q-93 0 -222 18v507h90v-198q84 38 160 38zM726 0h-90v513h90v-513zM298 69q77 0 111 26.5t34 78.5q0 46 -33 70.5t-94 24.5q-78 0 -151 -38v-149q75 -13 133 -13z" />
    <glyph glyph-name="uni044C" unicode="&#x44c;" horiz-adv-x="572" 
d="M328 353q105 0 162 -45.5t57 -130.5q0 -96 -59.5 -142.5t-187.5 -46.5q-96 0 -225 18v507h90v-198q84 38 163 38zM301 69q82 0 117 26.5t35 78.5q0 95 -134 95q-81 0 -154 -38v-149q75 -13 136 -13z" />
    <glyph glyph-name="uni044D" unicode="&#x44d;" horiz-adv-x="528" 
d="M234 523q116 0 182.5 -68t66.5 -194q0 -128 -68 -200.5t-183 -72.5q-103 0 -191 28v91q108 -35 183 -35q76 0 115.5 41.5t47.5 108.5h-259v77h259q-17 140 -163 140q-67 0 -176 -34l-1 88q97 30 187 30z" />
    <glyph glyph-name="uni044E" unicode="&#x44e;" horiz-adv-x="832" 
d="M522 524q110 0 187.5 -71t77.5 -198q0 -128 -77.5 -197.5t-188.5 -69.5q-102 0 -177 61t-85 173h-94v-222h-90v513h90v-214h95q14 106 88 165.5t174 59.5zM523 72q82 0 126 53t44 130q0 84 -49 134.5t-122 50.5t-122 -50.5t-49 -134.5q0 -77 44.5 -130t127.5 -53z" />
    <glyph glyph-name="uni044F" unicode="&#x44f;" horiz-adv-x="595" 
d="M520 513v-513h-90v172q-58 -10 -117 -11q-89 -77 -167 -160l-121 -1q70 76 173 168q-67 15 -104 57t-37 107q0 91 59.5 136t187.5 45h216zM285 241q85 0 145 9v185l-127 1q-82 1 -117 -24t-35 -77q0 -94 134 -94z" />
    <glyph glyph-name="uni0450" unicode="&#x450;" horiz-adv-x="584" 
d="M267 591l-101 145h106l74 -145h-79zM537 223h-402q13 -151 189 -151q52 0 90.5 8t112.5 30v-87q-99 -35 -207 -35q-117 0 -196 66t-79 199q0 70 22 124t60 85t84 46.5t99 15.5q106 0 166.5 -66t60.5 -182v-53zM139 300h306q-2 62 -36.5 101t-100.5 39t-114.5 -35.5
t-54.5 -104.5z" />
    <glyph glyph-name="uni0451" unicode="&#x451;" horiz-adv-x="584" 
d="M252 588h-98v96h98v-96zM450 588h-98v96h98v-96zM537 223h-402q13 -151 189 -151q52 0 90.5 8t112.5 30v-87q-99 -35 -207 -35q-117 0 -196 66t-79 199q0 70 22 124t60 85t84 46.5t99 15.5q106 0 166.5 -66t60.5 -182v-53zM139 300h306q-2 62 -36.5 101t-100.5 39
t-114.5 -35.5t-54.5 -104.5z" />
    <glyph glyph-name="uni0452" unicode="&#x452;" horiz-adv-x="645" 
d="M367 524q103 0 153 -44t50 -156v-381q0 -87 -47 -121t-127 -34q-28 0 -85 13v79q47 -12 89 -12q40 0 60 17.5t20 58.5v364q0 72 -27 101t-106 29q-48 0 -98.5 -19.5t-83.5 -44.5v-374h-90v565h-110v77h110v49h90v-49h142v-77h-142v-104q37 24 92.5 43.5t109.5 19.5z" />
    <glyph glyph-name="uni0453" unicode="&#x453;" horiz-adv-x="426" 
d="M301 591h-79l74 145h106zM401 436h-236v-436h-90v513h326v-77z" />
    <glyph glyph-name="uni0454" unicode="&#x454;" horiz-adv-x="528" 
d="M304 72q75 0 183 35v-91q-88 -28 -191 -28q-123 0 -187 71t-64 202q0 126 66.5 194t182.5 68q91 0 187 -28l-1 -88q-108 32 -176 32q-146 0 -163 -140h259v-77h-259q17 -150 163 -150z" />
    <glyph glyph-name="uni0455" unicode="&#x455;" horiz-adv-x="513" 
d="M262 524q97 0 190 -27v-87q-93 31 -188 31q-27 0 -45 -1.5t-39 -7t-32 -19.5t-11 -35q0 -41 74 -58l114 -26q72 -17 110 -48.5t38 -102.5q0 -86 -62.5 -120.5t-176.5 -34.5q-93 0 -194 28v87q105 -32 195 -32q147 0 147 73q0 26 -18.5 40t-52.5 23l-150 36
q-55 13 -85.5 49t-30.5 82q0 150 217 150z" />
    <glyph glyph-name="uni0456" unicode="&#x456;" horiz-adv-x="240" 
d="M171 588h-102v92h102v-92zM165 0h-90v513h90v-513z" />
    <glyph glyph-name="uni0457" unicode="&#x457;" horiz-adv-x="240" 
d="M70 588h-98v96h98v-96zM268 588h-98v96h98v-96zM165 0h-90v513h90v-513z" />
    <glyph glyph-name="uni0458" unicode="&#x458;" horiz-adv-x="229" 
d="M160 588h-102v92h102v-92zM153 513v-570q0 -87 -47 -121t-127 -34q-28 0 -85 13v79q47 -12 89 -12q40 0 60 17.5t20 58.5v569h90z" />
    <glyph glyph-name="uni0459" unicode="&#x459;" horiz-adv-x="859" 
d="M622 353q100 0 156 -46t56 -130q0 -189 -242 -189q-89 0 -218 18v430h-165q-17 -179 -40.5 -275t-59 -134.5t-94.5 -38.5q-14 0 -24 1l-1 77q7 -1 15 -1q49 0 76 98t47 350h336v-198q84 38 158 38zM593 69q147 0 147 105q0 95 -127 95q-76 0 -149 -38v-149
q75 -13 129 -13z" />
    <glyph glyph-name="uni045A" unicode="&#x45a;" horiz-adv-x="917" 
d="M680 353q100 0 156 -46t56 -130q0 -96 -58 -142.5t-182 -46.5q-89 0 -220 18v216h-267v-222h-90v513h90v-214h267v214h90v-198q84 38 158 38zM653 69q78 0 111.5 26.5t33.5 78.5q0 95 -127 95q-76 0 -149 -38v-149q75 -13 131 -13z" />
    <glyph glyph-name="uni045B" unicode="&#x45b;" horiz-adv-x="645" 
d="M367 524q103 0 153 -44t50 -156v-324h-90v308q0 72 -27 101t-106 29q-48 0 -98.5 -19.5t-83.5 -44.5v-374h-90v565h-110v77h110v49h90v-49h142v-77h-142v-104q37 24 92.5 43.5t109.5 19.5z" />
    <glyph glyph-name="uni045C" unicode="&#x45c;" horiz-adv-x="559" 
d="M319 591h-79l74 145h106zM288 274q140 -129 271 -274h-122q-164 175 -213 222h-59v-222h-90v513h90v-214h42q112 121 215 214h127q-115 -91 -261 -239z" />
    <glyph glyph-name="uni045D" unicode="&#x45d;" horiz-adv-x="607" 
d="M348 591h-79l-101 145h106zM163 513v-377l271 377h98v-513h-88v399l-290 -399h-79v513h88z" />
    <glyph glyph-name="uni045E" unicode="&#x45e;" horiz-adv-x="541" 
d="M259 593q-129 0 -142 119h77q7 -53 65 -53t65 53h77q-13 -119 -142 -119zM446 513h105q-120 -329 -343 -713h-104q12 22 55 97.5t65 115.5q-142 256 -234 500h100q73 -201 185 -404q92 182 171 404z" />
    <glyph glyph-name="uni045F" unicode="&#x45f;" horiz-adv-x="612" 
d="M537 0h-189v-137h-84v137h-189v513h90v-436h282v436h90v-513z" />
    <glyph glyph-name="uni0490" unicode="&#x490;" horiz-adv-x="506" 
d="M486 787v-223h-312v-564h-94v650h316v137h90z" />
    <glyph glyph-name="uni0491" unicode="&#x491;" horiz-adv-x="426" 
d="M401 650v-214h-236v-436h-90v513h242v137h84z" />
    <glyph glyph-name="uni0492" unicode="&#x492;" horiz-adv-x="506" 
d="M174 564v-185h176v-86h-176v-293h-94v293h-80v86h80v271h406v-86h-312z" />
    <glyph glyph-name="uni0493" unicode="&#x493;" horiz-adv-x="436" 
d="M175 436v-143h142v-77h-142v-216h-90v216h-90v77h90v220h326v-77h-236z" />
    <glyph glyph-name="uni0496" unicode="&#x496;" horiz-adv-x="913" 
d="M928 86v-223h-90v137h-62q-141 200 -196 274h-81v-274h-90v274h-81q-55 -74 -196 -274h-122q156 224 239 328q-115 180 -236 322h124q108 -140 197 -290h75v290h90v-290h75q89 150 197 290h124q-121 -142 -236 -322q71 -88 179 -242h90z" />
    <glyph glyph-name="uni0497" unicode="&#x497;" horiz-adv-x="782" 
d="M802 77v-214h-84v137h-59q-81 118 -166 222h-64v-222h-86v222h-66q-85 -104 -166 -222h-111q80 116 205 272q-81 114 -196 241h114q47 -57 165 -214h55v214h86v-214h53q118 157 165 214h114q-115 -127 -196 -241q77 -96 149 -195h88z" />
    <glyph glyph-name="uni049A" unicode="&#x49a;" horiz-adv-x="638" 
d="M658 86v-223h-90v137h-58q-171 183 -272 274h-64v-274h-94v650h94v-290h55q129 155 274 290h132q-169 -144 -326 -322q109 -94 248 -242h101z" />
    <glyph glyph-name="uni049B" unicode="&#x49b;" horiz-adv-x="559" 
d="M569 77v-214h-84v137h-48q-164 175 -213 222h-59v-222h-90v513h90v-214h42q112 121 215 214h127q-115 -91 -261 -239q75 -69 199 -197h82z" />
    <glyph glyph-name="uni049C" unicode="&#x49c;" horiz-adv-x="647" 
d="M637 0h-122q-141 200 -196 274h-24v-194h-78v194h-43v-274h-94v650h94v-290h43v153h78v-153h18q89 150 197 290h124q-121 -142 -236 -322q83 -104 239 -328z" />
    <glyph glyph-name="uni049D" unicode="&#x49d;" horiz-adv-x="558" 
d="M558 0l-114 1q-79 115 -164 221h-22v-172h-56v172h-37v-222h-90v513h90v-214h37v124h56v-124h13q109 145 166 214h112q-115 -127 -196 -241q125 -156 205 -272z" />
    <glyph glyph-name="uni04A2" unicode="&#x4a2;" horiz-adv-x="724" 
d="M719 86v-223h-90v137h-84v281h-371v-281h-94v650h94v-283h371v283h94v-564h80z" />
    <glyph glyph-name="uni04A3" unicode="&#x4a3;" horiz-adv-x="619" 
d="M614 77v-214h-84v137h-88v222h-277v-222h-90v513h90v-214h277v214h90v-436h82z" />
    <glyph glyph-name="uni04AE" unicode="&#x4ae;" horiz-adv-x="606" 
d="M498 650h113q-63 -121 -143 -250t-118 -180v-220h-94v220q-38 50 -117 178t-144 252h110q83 -166 198 -344q102 155 195 344z" />
    <glyph glyph-name="uni04AF" unicode="&#x4af;" horiz-adv-x="540" 
d="M447 513h103q-102 -257 -237 -499v-214h-90v218q-133 241 -233 495h103q90 -247 176 -402q92 166 178 402z" />
    <glyph glyph-name="uni04B2" unicode="&#x4b2;" horiz-adv-x="636" 
d="M666 86v-223h-90v137h-57l-205 265l-196 -265h-123l259 328l-257 322h121l195 -254l202 254h116l-251 -321l190 -243h96z" />
    <glyph glyph-name="uni04B3" unicode="&#x4b3;" horiz-adv-x="523" 
d="M542 77v-214h-84v137h-51l-141 188l-150 -188h-119l208 252l-210 261h113l156 -198l150 198h114l-205 -261l140 -175h79z" />
    <glyph glyph-name="uni04B8" unicode="&#x4b8;" horiz-adv-x="620" 
d="M540 650v-649h-94v249q-52 -38 -112 -55v-115h-88v105q-98 3 -142 53t-44 174v238h94v-235q0 -76 21 -107t71 -36v241h88v-234q55 13 112 57v314h94z" />
    <glyph glyph-name="uni04B9" unicode="&#x4b9;" horiz-adv-x="568" 
d="M493 513v-513h-90v193q-48 -34 -90 -50v-93h-82v78q-95 1 -138 50t-43 170v165h90v-165q0 -72 21 -102.5t70 -33.5v211h82v-199q44 17 90 54v235h90z" />
    <glyph glyph-name="uni04BA" unicode="&#x4ba;" horiz-adv-x="620" 
d="M360 451q106 0 153 -49.5t47 -177.5v-224h-94v221q0 84 -25.5 114t-89.5 30q-90 0 -177 -65v-300h-94v650h94v-264q92 65 186 65z" />
    <glyph glyph-name="uni04BB" unicode="&#x4bb;" horiz-adv-x="645" 
d="M367 514q103 0 153 -44t50 -156v-314h-90v298q0 72 -27 101t-106 29q-48 0 -99.5 -19.5t-82.5 -44.5v-364h-90v691h90v-240q37 24 92 43.5t110 19.5z" />
    <glyph glyph-name="uni04C0" unicode="&#x4c0;" horiz-adv-x="254" 
d="M174 0h-94v650h94v-650z" />
    <glyph glyph-name="uni04CF" unicode="&#x4cf;" horiz-adv-x="240" 
d="M165 0h-90v691h90v-691z" />
    <glyph glyph-name="uni04D8" unicode="&#x4d8;" horiz-adv-x="769" 
d="M391 662q153 0 240.5 -87t87.5 -240q0 -155 -88.5 -251t-239.5 -96q-164 0 -252.5 90.5t-88.5 247.5v50h570q-12 200 -229 200q-116 0 -257 -48v94q138 40 257 40zM391 74q107 0 164.5 57.5t65.5 158.5h-472q5 -101 73 -158.5t169 -57.5z" />
    <glyph glyph-name="uni04D9" unicode="&#x4d9;" horiz-adv-x="580" 
d="M275 523q121 0 190.5 -66.5t69.5 -194.5q0 -140 -71 -207t-186 -67q-110 0 -172.5 65.5t-62.5 181.5v52h398v6q-1 71 -46.5 108.5t-124.5 37.5q-91 0 -223 -44v90q114 38 228 38zM277 72q66 0 105 30.5t55 107.5h-303q9 -65 44.5 -101.5t98.5 -36.5z" />
    <glyph glyph-name="uni04E8" unicode="&#x4e8;" horiz-adv-x="782" 
d="M400 662q162 0 252 -91.5t90 -244.5q0 -154 -94 -246t-247 -92q-161 0 -256 92t-95 246t94.5 245t255.5 91zM400 574q-100 0 -166 -49.5t-81 -145.5h488q-14 95 -78.5 145t-162.5 50zM401 78q100 0 166.5 57t76.5 158h-493q10 -102 77.5 -158.5t172.5 -56.5z" />
    <glyph glyph-name="uni04E9" unicode="&#x4e9;" horiz-adv-x="640" 
d="M320 524q116 0 195.5 -71t79.5 -198q0 -128 -79.5 -197.5t-196.5 -69.5q-116 0 -195 69.5t-79 197.5q0 127 79.5 198t195.5 71zM320 440q-68 0 -116 -38t-61 -103h354q-13 65 -61.5 103t-115.5 38zM321 73q77 0 122 41.5t55 107.5h-357q10 -66 55.5 -107.5t124.5 -41.5z
" />
    <glyph glyph-name="Wgrave" unicode="&#x1e80;" horiz-adv-x="873" 
d="M482 710h-79l-101 145h106zM768 650h97q-68 -326 -183 -650h-99q-64 151 -149 382q-76 -222 -147 -382h-97q-37 101 -54.5 152t-58 198t-69.5 300h96q54 -261 138 -525q68 153 157 417h72q18 -54 67.5 -190t90.5 -228q76 225 139 526z" />
    <glyph glyph-name="wgrave" unicode="&#x1e81;" horiz-adv-x="858" 
d="M483 591h-79l-101 145h106zM770 513h93q-80 -278 -199 -513h-81q-37 78 -83.5 195t-67.5 186q-49 -151 -161 -381h-78q-124 253 -198 513h98q75 -246 142 -399q46 92 96 221.5t62 177.5h92q14 -54 55.5 -174t86.5 -224q71 153 143 398z" />
    <glyph glyph-name="Wacute" unicode="&#x1e82;" horiz-adv-x="873" 
d="M471 710h-79l74 145h106zM768 650h97q-68 -326 -183 -650h-99q-64 151 -149 382q-76 -222 -147 -382h-97q-37 101 -54.5 152t-58 198t-69.5 300h96q54 -261 138 -525q68 153 157 417h72q18 -54 67.5 -190t90.5 -228q76 225 139 526z" />
    <glyph glyph-name="wacute" unicode="&#x1e83;" horiz-adv-x="858" 
d="M478 591h-79l74 145h106zM770 513h93q-80 -278 -199 -513h-81q-37 78 -83.5 195t-67.5 186q-49 -151 -161 -381h-78q-124 253 -198 513h98q75 -246 142 -399q46 92 96 221.5t62 177.5h92q14 -54 55.5 -174t86.5 -224q71 153 143 398z" />
    <glyph glyph-name="Wdieresis" unicode="&#x1e84;" horiz-adv-x="873" 
d="M386 707h-100v98h100v-98zM584 707h-100v98h100v-98zM768 650h97q-68 -326 -183 -650h-99q-64 151 -149 382q-76 -222 -147 -382h-97q-37 101 -54.5 152t-58 198t-69.5 300h96q54 -261 138 -525q68 153 157 417h72q18 -54 67.5 -190t90.5 -228q76 225 139 526z" />
    <glyph glyph-name="wdieresis" unicode="&#x1e85;" horiz-adv-x="858" 
d="M389 588h-98v96h98v-96zM587 588h-98v96h98v-96zM770 513h93q-80 -278 -199 -513h-81q-37 78 -83.5 195t-67.5 186q-49 -151 -161 -381h-78q-124 253 -198 513h98q75 -246 142 -399q46 92 96 221.5t62 177.5h92q14 -54 55.5 -174t86.5 -224q71 153 143 398z" />
    <glyph glyph-name="uni1E9E" unicode="&#x1e9e;" horiz-adv-x="750" 
d="M627 529l-132 -135q99 -23 152 -76.5t53 -129.5q0 -87 -59.5 -143.5t-173.5 -56.5q-110 0 -228 46v87q139 -50 231 -50q133 0 133 115q0 121 -213 136v67l125 133q-62 55 -157 55q-93 0 -138.5 -50.5t-45.5 -170.5v-356h-94v356q0 306 279 306q86 0 158.5 -36.5
t109.5 -96.5z" />
    <glyph glyph-name="Ygrave" unicode="&#x1ef2;" horiz-adv-x="606" 
d="M347 710h-79l-101 145h106zM498 650h113q-63 -121 -143 -250t-118 -180v-220h-94v220q-38 50 -117 178t-144 252h110q83 -166 198 -344q102 155 195 344z" />
    <glyph glyph-name="ygrave" unicode="&#x1ef3;" horiz-adv-x="541" 
d="M222 591l-101 145h106l74 -145h-79zM446 513h105q-120 -329 -343 -713h-104q12 22 55 97.5t65 115.5q-142 256 -234 500h100q73 -201 185 -404q92 182 171 404z" />
    <glyph glyph-name="hyphentwo" unicode="&#x2010;" horiz-adv-x="410" 
d="M370 262h-330v85h330v-85z" />
    <glyph glyph-name="endash" unicode="&#x2013;" horiz-adv-x="510" 
d="M470 348v-85h-430v85h430z" />
    <glyph glyph-name="emdash" unicode="&#x2014;" horiz-adv-x="810" 
d="M770 263h-730v85h730v-85z" />
    <glyph glyph-name="uni2015" unicode="&#x2015;" horiz-adv-x="810" 
d="M770 263h-730v85h730v-85z" />
    <glyph glyph-name="underscoredbl" unicode="&#x2017;" horiz-adv-x="500" 
d="M500 -190h-500v85h500v-85zM500 -300h-500v85h500v-85z" />
    <glyph glyph-name="quoteleft" unicode="&#x2018;" horiz-adv-x="162" 
d="M93 662h69l-51 -187h-86z" />
    <glyph glyph-name="quoteright" unicode="&#x2019;" horiz-adv-x="162" 
d="M69 475h-69l51 187h86z" />
    <glyph glyph-name="quotesinglbase" unicode="&#x201a;" horiz-adv-x="162" 
d="M69 -90h-69l51 187h86z" />
    <glyph glyph-name="quotereversed" unicode="&#x201b;" horiz-adv-x="162" 
d="M111 662l51 -187h-69l-68 187h86z" />
    <glyph glyph-name="quotedblleft" unicode="&#x201c;" horiz-adv-x="302" 
d="M111 475h-86l68 187h69zM251 475h-86l68 187h69z" />
    <glyph glyph-name="quotedblright" unicode="&#x201d;" horiz-adv-x="302" 
d="M69 475h-69l51 187h86zM209 475h-69l51 187h86z" />
    <glyph glyph-name="quotedblbase" unicode="&#x201e;" horiz-adv-x="302" 
d="M69 -90h-69l51 187h86zM209 -90h-69l51 187h86z" />
    <glyph glyph-name="dagger" unicode="&#x2020;" horiz-adv-x="509" 
d="M297 0h-85v413h-172v85h172v172h85v-172h172v-85h-172v-413z" />
    <glyph glyph-name="daggerdbl" unicode="&#x2021;" horiz-adv-x="509" 
d="M297 413v-115h172v-85h-172v-213h-85v213h-172v85h172v115h-172v85h172v172h85v-172h172v-85h-172z" />
    <glyph glyph-name="bullet" unicode="&#x2022;" horiz-adv-x="280" 
d="M230 219h-180v175h180v-175z" />
    <glyph glyph-name="ellipsis" unicode="&#x2026;" horiz-adv-x="600" 
d="M150 0h-100v97h100v-97zM350 0h-100v97h100v-97zM550 0h-100v97h100v-97z" />
    <glyph glyph-name="perthousand" unicode="&#x2030;" horiz-adv-x="1282" 
d="M200 662q81 0 123 -51t42 -136q0 -87 -42 -140.5t-126 -53.5q-83 0 -125 53.5t-42 138.5q0 86 42.5 137.5t127.5 51.5zM323 0h-99l337 650h97zM199 592q-79 0 -81 -129q-1 -52 19.5 -81.5t59.5 -29.5q38 0 59 31.5t20 85.5q-2 123 -77 123zM685 368q83 0 125 -53.5
t42 -138.5q0 -86 -42.5 -137.5t-127.5 -51.5q-81 0 -123 51t-42 136q0 87 42 140.5t126 53.5zM1085 368q83 0 125 -53.5t42 -138.5q0 -86 -42.5 -137.5t-127.5 -51.5q-81 0 -123 51t-42 136q0 87 42 140.5t126 53.5zM685 297q-38 0 -58 -31.5t-20 -86.5q0 -122 76 -122
q80 0 80 129q0 52 -20 81.5t-58 29.5zM1085 297q-38 0 -58 -31.5t-20 -86.5q0 -122 76 -122q80 0 80 129q0 52 -20 81.5t-58 29.5z" />
    <glyph glyph-name="minute" unicode="&#x2032;" horiz-adv-x="282" 
d="M174 493h-66l-13 230h92z" />
    <glyph glyph-name="second" unicode="&#x2033;" horiz-adv-x="282" 
d="M187 723l-13 -230h-66l-13 230h92z" />
    <glyph glyph-name="guilsinglleft" unicode="&#x2039;" horiz-adv-x="312" 
d="M149 266l98 -192h-75l-107 197l107 192h74z" />
    <glyph glyph-name="guilsinglright" unicode="&#x203a;" horiz-adv-x="312" 
d="M247 271l-107 -197h-75l98 192l-97 197h74z" />
    <glyph glyph-name="exclamdbl" unicode="&#x203c;" 
d="M150 650l-12 -473h-74l-12 473h98zM350 650l-12 -473h-74l-12 473h98zM150 0h-100v97h100v-97zM350 0h-100v97h100v-97z" />
    <glyph glyph-name="uni203D" unicode="&#x203d;" horiz-adv-x="555" 
d="M252 662q270 0 270 -177q0 -53 -26.5 -88t-64 -52.5t-74.5 -34t-63.5 -46.5t-26.5 -76v-30h-87l-11 313h96l-4 -127q23 16 73 42t74 47t24 50q0 94 -182 94q-97 0 -216 -47v89q116 43 218 43zM271 97v-97h-100v97h100z" />
    <glyph glyph-name="overline" unicode="&#x203e;" horiz-adv-x="500" 
d="M500 665h-500v85h500v-85z" />
    <glyph glyph-name="fraction" unicode="&#x2044;" horiz-adv-x="174" 
d="M-31 0h-99l337 650h97z" />
    <glyph glyph-name="zerosuperior" unicode="&#x2070;" 
d="M201 754q77 0 122 -53.5t45 -139.5q0 -82 -46 -134t-121 -52q-77 0 -123 51.5t-46 134.5q0 86 45 139.5t124 53.5zM199 689q-41 0 -68.5 -32.5t-27.5 -95.5q0 -60 28 -90.5t70 -30.5q38 0 67 31t29 90q0 63 -27.5 95.5t-70.5 32.5z" />
    <glyph glyph-name="foursuperior" unicode="&#x2074;" 
d="M369 468h-59v-84h-65v84h-211v49q79 125 166 227h86q-97 -107 -168 -214h127v107h65v-107h59v-62z" />
    <glyph glyph-name="fivesuperior" unicode="&#x2075;" 
d="M317 682h-166l-7 -68q24 7 67 7q63 0 98.5 -31t35.5 -87t-40.5 -92t-114.5 -36q-61 0 -127 18v66q73 -19 124 -19q40 0 63.5 17t23.5 45q0 54 -83 54q-50 0 -122 -21l22 209h226v-62z" />
    <glyph glyph-name="sixsuperior" unicode="&#x2076;" 
d="M307 754v-66q-117 -8 -162 -73q29 21 78 21q55 0 88.5 -33t33.5 -92q0 -55 -39 -95.5t-107 -40.5q-70 0 -107.5 39.5t-37.5 112.5q0 91 63.5 151.5t189.5 75.5zM202 573q-34 0 -55.5 -18.5t-21.5 -45.5q0 -32 20 -50.5t56 -18.5q34 0 53.5 19.5t19.5 50.5q0 27 -20 45
t-52 18z" />
    <glyph glyph-name="sevensuperior" unicode="&#x2077;" 
d="M352 744v-43q-121 -177 -173 -317h-77q58 156 152 298h-193v62h291z" />
    <glyph glyph-name="eightsuperior" unicode="&#x2078;" 
d="M200 754q58 0 96 -26.5t38 -75.5q0 -47 -51 -76q65 -29 65 -89q0 -52 -40 -82t-107 -30q-68 0 -108.5 30t-40.5 82q0 59 65 89q-51 32 -51 76q0 48 38.5 75t95.5 27zM200 694q-64 0 -64 -48q0 -20 17 -33t47 -13q28 0 46 13.5t18 32.5q0 23 -17.5 35.5t-46.5 12.5z
M201 545q-38 0 -58.5 -16t-20.5 -41q0 -23 22 -36.5t57 -13.5q34 0 55.5 13.5t21.5 36.5q0 24 -19.5 40.5t-57.5 16.5z" />
    <glyph glyph-name="ninesuperior" unicode="&#x2079;" 
d="M94 375v69q116 6 162 72q-30 -22 -78 -22q-55 0 -88.5 33t-33.5 92q0 55 39 95t107 40q69 0 107 -39.5t38 -111.5q0 -93 -63.5 -153t-189.5 -75zM199 553q34 0 55.5 19.5t21.5 47.5q0 32 -20 50.5t-56 18.5q-34 0 -53.5 -19.5t-19.5 -50.5q0 -29 19.5 -47.5t52.5 -18.5z
" />
    <glyph glyph-name="plussuperior" unicode="&#x207a;" horiz-adv-x="294" 
d="M183 433h-72v96h-96v71h96v96h72v-96h96v-71h-96v-96z" />
    <glyph glyph-name="uni207B" unicode="&#x207b;" horiz-adv-x="295" 
d="M280 529h-265v71h265v-71z" />
    <glyph glyph-name="equalsuperior" unicode="&#x207c;" horiz-adv-x="295" 
d="M280 585h-265v71h265v-71zM280 475h-265v71h265v-71z" />
    <glyph glyph-name="parenleftsuperior" unicode="&#x207d;" horiz-adv-x="165" 
d="M106 792h76q-31 -55 -45 -83.5t-26 -72.5t-12 -91q0 -50 13 -95.5t25.5 -69t47.5 -82.5h-77q-40 70 -59 127t-19 122t18.5 121t57.5 124z" />
    <glyph glyph-name="parenrightsuperior" unicode="&#x207e;" horiz-adv-x="165" 
d="M-17 792h76q39 -68 57.5 -124t18.5 -121t-19 -122t-59 -127h-77q35 59 47.5 82.5t25.5 69t13 95.5q0 47 -12 91t-26 72.5t-45 83.5z" />
    <glyph glyph-name="nsuperior" unicode="&#x207f;" horiz-adv-x="645" 
d="M367 524q103 0 153 -44t50 -156v-324h-90v308q0 72 -27 101t-106 29q-48 0 -99.5 -19.5t-82.5 -44.5v-374h-90v513h66l15 -59q33 25 92.5 47.5t118.5 22.5z" />
    <glyph glyph-name="zeroinferior" unicode="&#x2080;" 
d="M201 270q77 0 122 -53.5t45 -139.5q0 -82 -46 -134t-121 -52q-77 0 -123 51.5t-46 134.5q0 86 45 139.5t124 53.5zM199 205q-41 0 -68.5 -32.5t-27.5 -95.5q0 -60 28 -90.5t70 -30.5q38 0 67 31t29 90q0 63 -27.5 95.5t-70.5 32.5z" />
    <glyph glyph-name="oneinferior" unicode="&#x2081;" 
d="M204 -100v284l-104 -24v62l171 46v-368h-67z" />
    <glyph glyph-name="twoinferior" unicode="&#x2082;" 
d="M202 269q-56 0 -122 -23v-66q69 24 115 24q68 0 68 -49q0 -73 -194 -204v-52h273v62h-156q68 41 108 92.5t40 102.5q0 113 -132 113z" />
    <glyph glyph-name="threeinferior" unicode="&#x2083;" 
d="M327 205l-102 -86q123 -10 123 -104q0 -62 -45 -93t-120 -31q-56 0 -121 17v66q66 -18 119 -18q96 0 96 57q0 29 -29.5 39.5t-87.5 10.5h-39v44l97 91h-154v62h263v-55z" />
    <glyph glyph-name="fourinferior" unicode="&#x2084;" 
d="M369 -16h-59v-84h-65v84h-211v49q79 125 166 227h86q-97 -107 -168 -214h127v107h65v-107h59v-62z" />
    <glyph glyph-name="fiveinferior" unicode="&#x2085;" 
d="M317 198h-166l-7 -68q24 7 67 7q63 0 98.5 -31t35.5 -87t-40.5 -92t-114.5 -36q-61 0 -127 18v66q73 -19 124 -19q40 0 63.5 17t23.5 45q0 54 -83 54q-50 0 -122 -21l22 209h226v-62z" />
    <glyph glyph-name="sixinferior" unicode="&#x2086;" 
d="M307 270v-66q-117 -8 -162 -73q29 21 78 21q55 0 88.5 -33t33.5 -92q0 -55 -39 -95.5t-107 -40.5q-70 0 -107.5 39.5t-37.5 112.5q0 91 63.5 151.5t189.5 75.5zM202 89q-34 0 -55.5 -18.5t-21.5 -45.5q0 -32 20 -50.5t56 -18.5q34 0 53.5 19.5t19.5 50.5q0 27 -20 45
t-52 18z" />
    <glyph glyph-name="seveninferior" unicode="&#x2087;" 
d="M352 260v-43q-121 -177 -173 -317h-77q58 156 152 298h-193v62h291z" />
    <glyph glyph-name="eightinferior" unicode="&#x2088;" 
d="M200 270q58 0 96 -26.5t38 -75.5q0 -47 -51 -76q65 -29 65 -89q0 -52 -40 -82t-107 -30q-68 0 -108.5 30t-40.5 82q0 59 65 89q-51 32 -51 76q0 48 38.5 75t95.5 27zM200 210q-64 0 -64 -48q0 -20 17 -33t47 -13q28 0 46 13.5t18 32.5q0 23 -17.5 35.5t-46.5 12.5z
M201 61q-38 0 -58.5 -16t-20.5 -41q0 -23 22 -36.5t57 -13.5q34 0 55.5 13.5t21.5 36.5q0 24 -19.5 40.5t-57.5 16.5z" />
    <glyph glyph-name="nineinferior" unicode="&#x2089;" 
d="M94 -109v69q116 6 162 72q-30 -22 -78 -22q-55 0 -88.5 33t-33.5 92q0 55 39 95t107 40q69 0 107 -39.5t38 -111.5q0 -93 -63.5 -153t-189.5 -75zM199 69q34 0 55.5 19.5t21.5 47.5q0 32 -20 50.5t-56 18.5q-34 0 -53.5 -19.5t-19.5 -50.5q0 -29 19.5 -47.5t52.5 -18.5z
" />
    <glyph glyph-name="uni208A" unicode="&#x208a;" horiz-adv-x="294" 
d="M183 -57h-72v96h-96v71h96v96h72v-96h96v-71h-96v-96z" />
    <glyph glyph-name="uni208B" unicode="&#x208b;" horiz-adv-x="295" 
d="M280 39h-265v71h265v-71z" />
    <glyph glyph-name="uni208C" unicode="&#x208c;" horiz-adv-x="295" 
d="M280 95h-265v71h265v-71zM280 -15h-265v71h265v-71z" />
    <glyph glyph-name="uni208D" unicode="&#x208d;" horiz-adv-x="165" 
d="M106 302h76q-31 -55 -45 -83.5t-26 -72.5t-12 -91q0 -50 13 -95.5t25.5 -69t47.5 -82.5h-77q-40 70 -59 127t-19 122t18.5 121t57.5 124z" />
    <glyph glyph-name="uni208E" unicode="&#x208e;" horiz-adv-x="165" 
d="M-17 302h76q39 -68 57.5 -124t18.5 -121t-19 -122t-59 -127h-77q35 59 47.5 82.5t25.5 69t13 95.5q0 47 -12 91t-26 72.5t-45 83.5z" />
    <glyph glyph-name="franc" unicode="&#x20a3;" horiz-adv-x="571" 
d="M174 564v-174h327v-86h-327v-94h196v-86h-196v-124h-94v124h-80v86h80v440h446v-86h-352z" />
    <glyph glyph-name="lira" unicode="&#x20a4;" horiz-adv-x="554" 
d="M544 0h-464v62q43 38 61.5 71.5t18.5 96.5v11h-90v77h90v48h-90v77h90v54q0 87 41.5 126t134.5 39q63 0 139 -22v-84q-80 20 -139 20q-45 0 -63.5 -18t-18.5 -61v-54h165v-77h-165v-48h165v-77h-166v-21q0 -108 -59 -134h350v-86z" />
    <glyph glyph-name="peseta" unicode="&#x20a7;" horiz-adv-x="1100" 
d="M80 650h237q25 0 52.5 -5t61.5 -20t60.5 -38t44.5 -63.5t18 -92.5q0 -65 -20.5 -111.5t-56 -71t-74 -35t-82.5 -10.5h-147v-203h-94v650zM174 566v-279h127q156 0 156 140q0 74 -46.5 106.5t-114.5 32.5h-122zM676 304h95v-71h-95v-143q0 -28 26 -28q23 0 67 8v-76
q-45 -6 -70 -6q-100 0 -100 92v153h-61v71h61v71h77v-71zM938 309q55 0 119 -14v-80q-79 19 -128 19q-44 0 -44 -19q0 -11 24 -15l67 -14q43 -9 68.5 -30.5t25.5 -68.5q0 -55 -38.5 -77t-108.5 -22q-51 0 -114 13v82q71 -22 125 -22q56 0 56 24q0 19 -28 24l-81 15
q-77 14 -77 87q0 98 134 98z" />
    <glyph glyph-name="Euro" unicode="&#x20ac;" horiz-adv-x="740" 
d="M479 74q58 0 101 9.5t110 36.5v-92q-103 -40 -218 -40q-126 0 -210.5 55.5t-110.5 172.5h-131l30 77h91l-1 26q0 18 1 27h-101l30 77h80q48 239 324 239q52 0 111.5 -12.5t99.5 -31.5v-94q-102 52 -213 52q-177 0 -222 -153h269l-30 -77h-251l-1 -26q0 -18 1 -27h261
l-30 -77h-216q25 -72 84 -107t142 -35z" />
    <glyph glyph-name="uni20B9" unicode="&#x20b9;" horiz-adv-x="563" 
d="M520 573h-122q44 -40 48 -94h92l-18 -77h-83q-19 -60 -71 -101.5t-129 -57.5l180 -243h-93l-188 247l31 67q132 0 171 88h-298l18 77h295q-2 42 -33 68t-96 26h-184l18 77h480z" />
    <glyph glyph-name="uni20BA" unicode="&#x20ba;" horiz-adv-x="604" 
d="M476 345h93q0 -154 -102 -249.5t-246 -95.5q-46 0 -76 2v219l-100 -54v85l100 54v81l-100 -54v85l100 54v178h94v-127l171 93v-86l-171 -92v-81l171 93v-86l-171 -92v-186q103 5 170 74.5t67 184.5z" />
    <glyph glyph-name="uni20BC" unicode="&#x20bc;" horiz-adv-x="627" 
d="M174 252v-73h196v-86h-196v-93h-94v93h-80v86h80v73h-80v86h80v312h257q38 0 74.5 -7.5t76.5 -26t64.5 -57.5t24.5 -94q0 -61 -21 -105t-57 -66.5t-74.5 -32t-83.5 -9.5h-167zM174 338h147q23 0 41.5 2t41.5 9.5t37.5 20t25 36.5t10.5 57q0 101 -151 101h-152v-226z" />
    <glyph glyph-name="uni20BD" unicode="&#x20bd;" horiz-adv-x="627" 
d="M174 252v-73h196v-86h-196v-93h-94v93h-80v86h80v73h-80v86h80v312h257q38 0 74.5 -7.5t76.5 -26t64.5 -57.5t24.5 -94q0 -61 -21 -105t-57 -66.5t-74.5 -32t-83.5 -9.5h-167zM174 338h147q23 0 41.5 2t41.5 9.5t37.5 20t25 36.5t10.5 57q0 101 -151 101h-152v-226z" />
    <glyph glyph-name="uni2105" unicode="&#x2105;" horiz-adv-x="916" 
d="M203 661q51 0 112 -14v-79q-66 18 -106 18t-64.5 -22t-24.5 -65q0 -36 23 -60.5t66 -24.5q42 0 110 20v-77q-53 -18 -115 -18q-72 0 -118 42.5t-46 118.5q0 75 46.5 118t116.5 43zM327 0h-99l337 650h97zM710 311q70 0 118 -42.5t48 -119.5q0 -76 -48 -118t-118 -42
t-117.5 41.5t-47.5 118.5t47.5 119.5t117.5 42.5zM710 236q-37 0 -61 -23.5t-24 -63.5q0 -36 22 -60.5t64 -24.5q40 0 62 24.5t22 60.5q0 40 -24 63.5t-61 23.5z" />
    <glyph glyph-name="uni2113" unicode="&#x2113;" horiz-adv-x="429" 
d="M279 82q35 0 70 11l1 -84q-41 -13 -80 -13q-162 0 -162 149v84l-54 -33l-34 61q54 31 88 54v214q0 103 42 156.5t114 53.5q68 0 109 -38t41 -107q0 -142 -217 -301v-118q0 -49 19 -69t63 -20zM197 525v-148q126 105 126 213q0 25 -15.5 43t-43.5 18q-67 0 -67 -126z" />
    <glyph glyph-name="uni2116" unicode="&#x2116;" horiz-adv-x="1275" 
d="M1001 661q97 0 163 -59t66 -165q0 -107 -66 -165t-164 -58q-97 0 -163 58t-66 165q0 106 66 165t164 59zM646 0h-79l-394 524v-524h-93v650h108l365 -486v486h93v-650zM1001 583q-63 0 -103 -40t-40 -106q0 -61 37 -102t107 -41q69 0 105.5 41t36.5 102q0 66 -40.5 106
t-102.5 40zM1199 0h-397v85h397v-85z" />
    <glyph glyph-name="uni2117" unicode="&#x2117;" horiz-adv-x="852" 
d="M802 362q0 159 -107.5 267.5t-268.5 108.5t-268.5 -108.5t-107.5 -267.5q0 -160 107 -266.5t269 -106.5q160 0 268 108t108 265zM758 362q0 -139 -97.5 -234t-234.5 -95q-140 0 -235.5 96.5t-95.5 232.5q0 138 96 234.5t235 96.5q138 0 235 -97t97 -234zM364 283v-132
h-68v405h166q22 0 44.5 -5t48.5 -18t42.5 -42t16.5 -70q0 -138 -162 -138h-88zM364 495v-150h90q36 0 63 17t27 58q0 38 -27 56.5t-65 18.5h-88z" />
    <glyph glyph-name="trademark" unicode="&#x2122;" horiz-adv-x="780" 
d="M335 585h-126v-297h-70v297h-129v65h325v-65zM639 650h64q38 -148 67 -362h-70q-27 202 -39 252q-12 -31 -26.5 -68.5t-30.5 -82t-25 -67.5h-52q-9 25 -36.5 97.5t-45.5 117.5q-15 -83 -39 -249h-70q33 233 68 362h64q37 -85 85 -211q60 150 86 211z" />
    <glyph glyph-name="Ohm" unicode="&#x2126;" horiz-adv-x="766" 
d="M716 329q0 -159 -94 -243h91v-86h-268v76q68 0 121 71.5t53 180.5q0 114 -63 180t-173 66t-173 -66t-63 -180q0 -109 53 -180.5t121 -71.5v-76h-268v86h91q-94 84 -94 243q0 152 89 242.5t244 90.5t244 -90.5t89 -242.5z" />
    <glyph glyph-name="estimated" unicode="&#x212e;" horiz-adv-x="828" 
d="M414 662q169 0 268.5 -100.5t99.5 -247.5h-587q-13 0 -13 -11v-161q0 -29 14 -42q90 -88 218 -88q69 0 130 29t100 77h66q-38 -53 -113 -91t-183 -38q-166 0 -267.5 94t-101.5 241q0 146 100 242t269 96zM414 637q-128 0 -218 -90q-14 -13 -14 -39v-161q0 -11 13 -11h437
q13 0 13 11v161q0 25 -15 39q-91 90 -216 90z" />
    <glyph glyph-name="oneeighth" unicode="&#x215b;" horiz-adv-x="913" 
d="M204 284v284l-104 -24v62l171 46v-368h-67zM319 0h-99l337 650h97zM713 370q58 0 96 -26.5t38 -75.5q0 -47 -51 -76q65 -29 65 -89q0 -52 -40 -82t-107 -30q-68 0 -108.5 30t-40.5 82q0 59 65 89q-51 32 -51 76q0 48 38.5 75t95.5 27zM713 310q-64 0 -64 -48
q0 -20 17 -33t47 -13q28 0 46 13.5t18 32.5q0 23 -17.5 35.5t-46.5 12.5zM714 161q-38 0 -58.5 -16t-20.5 -41q0 -23 22 -36.5t57 -13.5q34 0 55.5 13.5t21.5 36.5q0 24 -19.5 40.5t-57.5 16.5z" />
    <glyph glyph-name="threeeighths" unicode="&#x215c;" horiz-adv-x="915" 
d="M330 595l-102 -86q123 -10 123 -104q0 -62 -45 -93t-120 -31q-56 0 -121 17v66q66 -18 119 -18q96 0 96 57q0 29 -29.5 39.5t-87.5 10.5h-39v44l97 91h-154v62h263v-55zM223 0h99l335 650h-97zM715 370q58 0 96 -26.5t38 -75.5q0 -47 -51 -76q65 -29 65 -89
q0 -52 -40 -82t-107 -30q-68 0 -108.5 30t-40.5 82q0 59 65 89q-51 32 -51 76q0 48 38.5 75t95.5 27zM715 310q-64 0 -64 -48q0 -20 17 -33t47 -13q28 0 46 13.5t18 32.5q0 23 -17.5 35.5t-46.5 12.5zM716 161q-38 0 -58.5 -16t-20.5 -41q0 -23 22 -36.5t57 -13.5
q34 0 55.5 13.5t21.5 36.5q0 24 -19.5 40.5t-57.5 16.5z" />
    <glyph glyph-name="fiveeighths" unicode="&#x215d;" horiz-adv-x="915" 
d="M317 588h-166l-7 -68q24 7 67 7q63 0 98.5 -31t35.5 -87t-40.5 -92t-114.5 -36q-61 0 -127 18v66q73 -19 124 -19q40 0 63.5 17t23.5 45q0 54 -83 54q-50 0 -122 -21l22 209h226v-62zM224 0h99l335 650h-97zM715 370q58 0 96 -26.5t38 -75.5q0 -47 -51 -76q65 -29 65 -89
q0 -52 -40 -82t-107 -30q-68 0 -108.5 30t-40.5 82q0 59 65 89q-51 32 -51 76q0 48 38.5 75t95.5 27zM715 310q-64 0 -64 -48q0 -20 17 -33t47 -13q28 0 46 13.5t18 32.5q0 23 -17.5 35.5t-46.5 12.5zM716 161q-38 0 -58.5 -16t-20.5 -41q0 -23 22 -36.5t57 -13.5
q34 0 55.5 13.5t21.5 36.5q0 24 -19.5 40.5t-57.5 16.5z" />
    <glyph glyph-name="seveneighths" unicode="&#x215e;" horiz-adv-x="873" 
d="M352 650v-43q-121 -177 -173 -317h-77q58 156 152 298h-193v62h291zM182 0h99l335 650h-97zM673 370q58 0 96 -26.5t38 -75.5q0 -47 -51 -76q65 -29 65 -89q0 -52 -40 -82t-107 -30q-68 0 -108.5 30t-40.5 82q0 59 65 89q-51 32 -51 76q0 48 38.5 75t95.5 27zM673 310
q-64 0 -64 -48q0 -20 17 -33t47 -13q28 0 46 13.5t18 32.5q0 23 -17.5 35.5t-46.5 12.5zM674 161q-38 0 -58.5 -16t-20.5 -41q0 -23 22 -36.5t57 -13.5q34 0 55.5 13.5t21.5 36.5q0 24 -19.5 40.5t-57.5 16.5z" />
    <glyph glyph-name="Sevenroman" unicode="&#x2166;" horiz-adv-x="1171" 
d="M570 650h98q-52 -157 -117.5 -311t-104.5 -230.5t-59 -108.5h-111q-44 71 -130 262t-151 388h101q21 -69 97.5 -259.5t139.5 -305.5q46 82 94 192t72.5 177t70.5 196zM837 0h-94v650h94v-650zM1091 0h-94v650h94v-650z" />
    <glyph glyph-name="partialdiff" unicode="&#x2202;" horiz-adv-x="640" 
d="M211 647l24 76q64 -13 111.5 -30t96.5 -49t80.5 -76t51.5 -113.5t20 -159.5q0 -155 -78 -231t-198 -76q-115 0 -194.5 66.5t-79.5 180.5q0 122 71.5 185.5t174.5 63.5q106 0 196 -59q-14 57 -40.5 97t-65.5 64.5t-77.5 37.5t-92.5 23zM321 73q90 0 135 58.5t45 163.5
l-1 32q-51 41 -96 57t-104 16q-67 0 -114 -43.5t-47 -121.5q0 -64 47.5 -113t134.5 -49z" />
    <glyph glyph-name="increment" unicode="&#x2206;" horiz-adv-x="638" 
d="M269 650h102q30 -47 104.5 -214.5t145.5 -373.5v-62h-605v62q72 212 146.5 375.5t106.5 212.5zM120 86h398q-128 357 -200 475q-37 -60 -96 -204t-102 -271z" />
    <glyph glyph-name="product" unicode="&#x220f;" horiz-adv-x="709" 
d="M629 -200h-94v805h-361v-805h-94v891h549v-891z" />
    <glyph glyph-name="summation" unicode="&#x2211;" horiz-adv-x="601" 
d="M163 -114h398v-86h-521v64l314 382l-314 381v64h521v-86h-398l275 -337v-44z" />
    <glyph glyph-name="minus" unicode="&#x2212;" horiz-adv-x="510" 
d="M470 283h-430v85h430v-85z" />
    <glyph glyph-name="divisionslash" unicode="&#x2215;" horiz-adv-x="530" 
d="M158 0h-98l310 650h100z" />
    <glyph glyph-name="bulletoperator" unicode="&#x2219;" horiz-adv-x="200" 
d="M230 219h-180v175h180v-175z" />
    <glyph glyph-name="radical" unicode="&#x221a;" horiz-adv-x="530" 
d="M316 -199h-83l-160 329l-44 -21l-29 61l115 52l146 -311l173 839h81z" />
    <glyph glyph-name="infinity" unicode="&#x221e;" horiz-adv-x="662" 
d="M490 453q66 0 101.5 -42t35.5 -110q0 -65 -36.5 -108t-96.5 -43q-50 0 -81.5 20.5t-81.5 74.5q-49 -53 -81 -74t-82 -21q-59 0 -96 43t-37 108q0 67 37.5 109.5t99.5 42.5q33 0 63 -16t48 -33.5t48 -52.5q30 35 48 52.5t48 33.5t63 16zM174 373q-58 0 -58 -74
q0 -31 14.5 -50.5t42.5 -19.5q25 0 44 14t61 57q-61 73 -104 73zM488 373q-43 0 -104 -73q4 -4 13 -13.5t12 -12.5l10.5 -10.5l10 -10t9 -7.5t9.5 -6.5l9 -4.5t10.5 -3.5t10 -1.5t11.5 -1q57 0 57 70q0 74 -58 74z" />
    <glyph glyph-name="integral" unicode="&#x222b;" horiz-adv-x="341" 
d="M278 750q33 0 63 -7v-82q-30 5 -62 5q-65 0 -65 -81v-628q0 -169 -151 -169q-33 0 -63 7v82q30 -5 62 -5q65 0 65 81v628q0 169 151 169z" />
    <glyph glyph-name="approxequal" unicode="&#x2248;" horiz-adv-x="511" 
d="M394 419h77q0 -51 -35.5 -83.5t-87.5 -32.5q-30 0 -86 18.5t-86 18.5q-24 0 -41 -9.5t-18 -27.5h-77q0 51 35.5 83.5t87.5 32.5q31 0 86 -18.5t86 -18.5q24 0 41 9.5t18 27.5zM394 259h77q0 -51 -35.5 -83.5t-87.5 -32.5q-30 0 -86 18.5t-86 18.5q-24 0 -41 -9.5
t-18 -27.5h-77q0 51 35.5 83.5t87.5 32.5q31 0 86 -18.5t86 -18.5q24 0 41 9.5t18 27.5z" />
    <glyph glyph-name="notequal" unicode="&#x2260;" horiz-adv-x="510" 
d="M328 333l-51 -107h193v-85h-231l-49 -101h-98l48 101h-100v85h142l50 107h-192v85h231l47 100h100l-47 -100h99v-85h-142z" />
    <glyph glyph-name="lessequal" unicode="&#x2264;" horiz-adv-x="589" 
d="M549 487l-416 -142l416 -139v-86l-509 180v92l509 181v-86zM549 85v-85h-509v85h509z" />
    <glyph glyph-name="greaterequal" unicode="&#x2265;" horiz-adv-x="589" 
d="M549 392v-92l-509 -180v86l416 139l-416 142v86zM549 0h-509v85h509v-85z" />
    <glyph glyph-name="lozenge" unicode="&#x25ca;" horiz-adv-x="561" 
d="M546 326l-224 -338h-83l-224 338l224 336h83zM129 326l151 -239l151 239l-151 238z" />
    <glyph glyph-name="uni5143" unicode="&#x5143;" horiz-adv-x="831" 
d="M714 564h-649v86h649v-86zM749 361h-208v-232q0 -29 13.5 -40.5t48.5 -11.5q32 0 47.5 18.5t36.5 69.5q4 9 6 14l81 -46q-11 -26 -17 -39.5t-21.5 -37t-31 -36t-42.5 -22.5t-59 -10q-81 0 -118.5 28.5t-37.5 93.5v251h-118v-51q0 -52 -12.5 -92t-46 -78.5t-72.5 -70
t-111 -81.5l-58 79q19 14 51.5 37t45.5 32.5t34.5 27t29 27t19.5 25t15.5 29.5t7 32.5t3.5 41.5v42h-204v86h718v-86z" />
    <glyph glyph-name="Kanji" unicode="&#x5186;" horiz-adv-x="804" 
d="M724 650v-522q0 -42 -14 -71t-38.5 -43t-49 -20t-52.5 -6q-34 0 -77 3v84q1 0 8.5 -0.5t19.5 -0.5h26q43 0 63 12t20 45v135h-456l-1 -266h-93v650h644zM174 564v-212h184v212h-184zM446 564v-212h184v212h-184z" />
    <glyph glyph-name="uniF8FF" unicode="&#xf8ff;" horiz-adv-x="492" 
d="M492 750v-750h-492v750h492zM405 85v580h-318v-580h318z" />
    <glyph glyph-name="fi" unicode="&#xfb01;" horiz-adv-x="578" 
d="M269 723q28 0 85 -13v-79q-47 12 -89 12q-82 0 -82 -76v-54h171v-77h-171v-436h-90v436h-98v77h98v55q0 87 47.5 121t128.5 34zM509 588h-102v92h102v-92zM503 0h-90v513h90v-513z" />
    <glyph glyph-name="fl" unicode="&#xfb02;" horiz-adv-x="578" 
d="M269 723q28 0 85 -13v-79q-47 12 -89 12q-82 0 -82 -76v-54h171v-77h-171v-436h-90v436h-98v77h98v55q0 87 47.5 121t128.5 34zM503 0h-90v691h90v-691z" />
    <glyph glyph-name="uniFEFF" unicode="&#xfeff;" horiz-adv-x="600" 
 />
    <glyph glyph-name="NULL" horiz-adv-x="600" 
 />
    <glyph glyph-name="zero.dnom" 
d="M201 370q77 0 122 -53.5t45 -139.5q0 -82 -46 -134t-121 -52q-77 0 -123 51.5t-46 134.5q0 86 45 139.5t124 53.5zM199 305q-41 0 -68.5 -32.5t-27.5 -95.5q0 -60 28 -90.5t70 -30.5q38 0 67 31t29 90q0 63 -27.5 95.5t-70.5 32.5z" />
    <glyph glyph-name="one.dnom" 
d="M204 0v284l-104 -24v62l171 46v-368h-67z" />
    <glyph glyph-name="two.dnom" 
d="M202 369q-56 0 -122 -23v-66q69 24 115 24q68 0 68 -49q0 -73 -194 -204v-52h273v62h-156q68 41 108 92.5t40 102.5q0 113 -132 113z" />
    <glyph glyph-name="three.dnom" 
d="M330 305l-102 -86q123 -10 123 -104q0 -62 -45 -93t-120 -31q-56 0 -121 17v66q66 -18 119 -18q96 0 96 57q0 29 -29.5 39.5t-87.5 10.5h-39v44l97 91h-154v62h263v-55z" />
    <glyph glyph-name="four.dnom" 
d="M369 84h-59v-84h-65v84h-211v49q79 125 166 227h86q-97 -107 -168 -214h127v107h65v-107h59v-62z" />
    <glyph glyph-name="five.dnom" 
d="M317 298h-166l-7 -68q24 7 67 7q63 0 98.5 -31t35.5 -87t-40.5 -92t-114.5 -36q-61 0 -127 18v66q73 -19 124 -19q40 0 63.5 17t23.5 45q0 54 -83 54q-50 0 -122 -21l22 209h226v-62z" />
    <glyph glyph-name="six.dnom" 
d="M307 370v-66q-117 -8 -162 -73q29 21 78 21q55 0 88.5 -33t33.5 -92q0 -55 -39 -95.5t-107 -40.5q-70 0 -107.5 39.5t-37.5 112.5q0 91 63.5 151.5t189.5 75.5zM202 189q-34 0 -55.5 -18.5t-21.5 -45.5q0 -32 20 -50.5t56 -18.5q34 0 53.5 19.5t19.5 50.5q0 27 -20 45
t-52 18z" />
    <glyph glyph-name="seven.dnom" 
d="M352 360v-43q-121 -177 -173 -317h-77q58 156 152 298h-193v62h291z" />
    <glyph glyph-name="eight.dnom" 
d="M200 370q58 0 96 -26.5t38 -75.5q0 -47 -51 -76q65 -29 65 -89q0 -52 -40 -82t-107 -30q-68 0 -108.5 30t-40.5 82q0 59 65 89q-51 32 -51 76q0 48 38.5 75t95.5 27zM200 310q-64 0 -64 -48q0 -20 17 -33t47 -13q28 0 46 13.5t18 32.5q0 23 -17.5 35.5t-46.5 12.5z
M201 161q-38 0 -58.5 -16t-20.5 -41q0 -23 22 -36.5t57 -13.5q34 0 55.5 13.5t21.5 36.5q0 24 -19.5 40.5t-57.5 16.5z" />
    <glyph glyph-name="nine.dnom" 
d="M94 -9v69q116 6 162 72q-30 -22 -78 -22q-55 0 -88.5 33t-33.5 92q0 55 39 95t107 40q69 0 107 -39.5t38 -111.5q0 -93 -63.5 -153t-189.5 -75zM199 169q34 0 55.5 19.5t21.5 47.5q0 32 -20 50.5t-56 18.5q-34 0 -53.5 -19.5t-19.5 -50.5q0 -29 19.5 -47.5t52.5 -18.5z
" />
    <glyph glyph-name="zero.numr" 
d="M201 660q77 0 122 -53.5t45 -139.5q0 -82 -46 -134t-121 -52q-77 0 -123 51.5t-46 134.5q0 86 45 139.5t124 53.5zM199 595q-41 0 -68.5 -32.5t-27.5 -95.5q0 -60 28 -90.5t70 -30.5q38 0 67 31t29 90q0 63 -27.5 95.5t-70.5 32.5z" />
    <glyph glyph-name="one.numr" 
d="M204 290v284l-104 -24v62l171 46v-368h-67z" />
    <glyph glyph-name="two.numr" 
d="M202 659q-56 0 -122 -23v-66q69 24 115 24q68 0 68 -49q0 -73 -194 -204v-52h273v62h-156q68 41 108 92.5t40 102.5q0 113 -132 113z" />
    <glyph glyph-name="three.numr" 
d="M330 595l-102 -86q123 -10 123 -104q0 -62 -45 -93t-120 -31q-56 0 -121 17v66q66 -18 119 -18q96 0 96 57q0 29 -29.5 39.5t-87.5 10.5h-39v44l97 91h-154v62h263v-55z" />
    <glyph glyph-name="four.numr" 
d="M369 374h-59v-84h-65v84h-211v49q79 125 166 227h86q-97 -107 -168 -214h127v107h65v-107h59v-62z" />
    <glyph glyph-name="five.numr" 
d="M317 588h-166l-7 -68q24 7 67 7q63 0 98.5 -31t35.5 -87t-40.5 -92t-114.5 -36q-61 0 -127 18v66q73 -19 124 -19q40 0 63.5 17t23.5 45q0 54 -83 54q-50 0 -122 -21l22 209h226v-62z" />
    <glyph glyph-name="six.numr" 
d="M307 660v-66q-117 -8 -162 -73q29 21 78 21q55 0 88.5 -33t33.5 -92q0 -55 -39 -95.5t-107 -40.5q-70 0 -107.5 39.5t-37.5 112.5q0 91 63.5 151.5t189.5 75.5zM202 479q-34 0 -55.5 -18.5t-21.5 -45.5q0 -32 20 -50.5t56 -18.5q34 0 53.5 19.5t19.5 50.5q0 27 -20 45
t-52 18z" />
    <glyph glyph-name="seven.numr" 
d="M352 650v-43q-121 -177 -173 -317h-77q58 156 152 298h-193v62h291z" />
    <glyph glyph-name="eight.numr" 
d="M200 660q58 0 96 -26.5t38 -75.5q0 -47 -51 -76q65 -29 65 -89q0 -52 -40 -82t-107 -30q-68 0 -108.5 30t-40.5 82q0 59 65 89q-51 32 -51 76q0 48 38.5 75t95.5 27zM200 600q-64 0 -64 -48q0 -20 17 -33t47 -13q28 0 46 13.5t18 32.5q0 23 -17.5 35.5t-46.5 12.5z
M201 451q-38 0 -58.5 -16t-20.5 -41q0 -23 22 -36.5t57 -13.5q34 0 55.5 13.5t21.5 36.5q0 24 -19.5 40.5t-57.5 16.5z" />
    <glyph glyph-name="nine.numr" 
d="M94 281v69q116 6 162 72q-30 -22 -78 -22q-55 0 -88.5 33t-33.5 92q0 55 39 95t107 40q69 0 107 -39.5t38 -111.5q0 -93 -63.5 -153t-189.5 -75zM199 459q34 0 55.5 19.5t21.5 47.5q0 32 -20 50.5t-56 18.5q-34 0 -53.5 -19.5t-19.5 -50.5q0 -29 19.5 -47.5t52.5 -18.5z
" />
    <glyph glyph-name="ampersand.001" horiz-adv-x="699" 
d="M304 660q82 0 126.5 -45t44.5 -104q0 -30 -13.5 -56t-40 -47.5t-46 -34t-52.5 -30.5q84 -95 142 -143q44 45 89 114l89 -2q-56 -110 -114 -168q81 -66 190 -144h-149q-64 47 -105 83q-118 -99 -231 -99q-91 0 -142.5 43.5t-51.5 121.5q0 108 152 211q-65 79 -65 140
q0 65 46.5 112.5t130.5 47.5zM304 582q-35 0 -61.5 -21t-26.5 -54q0 -36 59 -107q39 19 74 49t35 61q0 35 -23.5 53.5t-56.5 18.5zM250 293q-119 -77 -119 -144q0 -34 24.5 -57.5t79.5 -23.5q75 0 164 72q-55 50 -149 153z" />
    <glyph glyph-name="acute.case" horiz-adv-x="240" 
d="M109 710h-79l74 145h106z" />
    <glyph glyph-name="breve.case" horiz-adv-x="344" 
d="M237 827h77q-13 -119 -142 -119t-142 119h77q7 -53 65 -53t65 53z" />
    <glyph glyph-name="caron.alt" horiz-adv-x="198" 
d="M104 525h-74l44 166h94z" />
    <glyph glyph-name="caron.case" horiz-adv-x="372" 
d="M241 710h-110l-101 145h81l75 -86l75 86h81z" />
    <glyph glyph-name="circumflex.case" horiz-adv-x="372" 
d="M342 710h-81l-75 86l-75 -86h-81l101 145h110z" />
    <glyph glyph-name="dieresis.case" horiz-adv-x="358" 
d="M130 707h-100v98h100v-98zM328 707h-100v98h100v-98z" />
    <glyph glyph-name="dotaccent.case" horiz-adv-x="160" 
d="M130 707h-100v98h100v-98z" />
    <glyph glyph-name="grave.case" horiz-adv-x="240" 
d="M210 710h-79l-101 145h106z" />
    <glyph glyph-name="hungarumlaut.case" horiz-adv-x="408" 
d="M108 710h-78l74 145h107zM275 710h-78l74 145h107z" />
    <glyph glyph-name="macron.case" horiz-adv-x="334" 
d="M304 716h-274v77h274v-77z" />
    <glyph glyph-name="ring.case" horiz-adv-x="262" 
d="M131 711q-48 0 -74.5 23.5t-26.5 62.5t26.5 62.5t74.5 23.5t74.5 -23.5t26.5 -62.5t-26.5 -62.5t-74.5 -23.5zM131 837q-52 0 -52 -40t52 -40t52 40t-52 40z" />
    <glyph glyph-name="tilde.case" horiz-adv-x="362" 
d="M272 834h60q-6 -44 -30 -70.5t-64 -26.5q-19 0 -59 13.5t-55 13.5q-16 0 -23 -7t-11 -23h-60q6 44 30 70.5t64 26.5q22 0 59.5 -13.5t54.5 -13.5q30 0 34 30z" />
    <glyph glyph-name="brevecy" horiz-adv-x="0" 
d="M314 713h-59q-19 -55 -81 -55q-51 0 -60 55h-84q9 -120 133 -120q127 0 151 120z" />
    <glyph glyph-name="brevecy.case" horiz-adv-x="0" 
d="M314 817h-59q-19 -55 -81 -55q-51 0 -60 55h-84q9 -120 133 -120q127 0 151 120z" />
    <glyph glyph-name="tonos.cap" horiz-adv-x="213" 
d="M30 500l44 150h108l-88 -150h-64z" />
    </font>
</defs>
</svg>
