<?xml version="1.0" standalone="no"?>
<!DOCTYPE svg PUBLIC "-//W3C//DTD SVG 1.1//EN" "http://www.w3.org/Graphics/SVG/1.1/DTD/svg11.dtd" >
<svg xmlns="http://www.w3.org/2000/svg" xmlns:xlink="http://www.w3.org/1999/xlink" version="1.1">
<metadata>
Created by FontForge 20161013 at Thu Sep 13 03:55:00 2012
 By ,,,
Copyright 2010, 2012 Adobe Systems Incorporated. All Rights Reserved.
</metadata>
<defs>
<font id="SourceSansPro-ExtraLight" horiz-adv-x="0" >
  <font-face 
    font-family="Source Sans Pro ExtraLight"
    font-weight="200"
    font-stretch="normal"
    units-per-em="1000"
    panose-1="2 11 3 3 3 4 3 2 2 4"
    ascent="750"
    descent="-250"
    x-height="478"
    cap-height="660"
    bbox="-164 -273 1108 934"
    underline-thickness="50"
    underline-position="-150"
    unicode-range="U+000D-FB02"
  />
<missing-glyph horiz-adv-x="624" 
d="M96 660h432v-660h-432v660zM288 340l-154 270v-536zM488 74v536l-152 -270zM476 32l-100 176l-62 106h-4l-64 -106l-102 -176h332zM314 366l54 92l94 168h-302l94 -168l56 -92h4z" />
    <glyph glyph-name="f_f" unicode="ff" horiz-adv-x="508" 
d="M525 692q-15 8 -29.5 11t-28.5 3q-41 0 -59.5 -30t-18.5 -84v-114h114v-28h-114v-450h-30v450h-229v-450h-30v450h-65v24l65 4v98q0 75 33 111.5t89 36.5q18 0 38 -4.5t40 -13.5l-10 -26q-19 9 -36 12.5t-34 3.5q-45 0 -67.5 -32.5t-22.5 -91.5v-94h229v118
q0 71 29.5 104.5t80.5 33.5q31 0 66 -16z" />
    <glyph glyph-name="f_t" unicode="ft" horiz-adv-x="518" 
d="M508 6q-21 -8 -41.5 -13t-32.5 -5q-33 0 -54.5 10t-34.5 28t-18 43.5t-5 56.5v324h-192v-450h-30v450h-66v24l66 4v118q0 71 29.5 104.5t80.5 33.5q31 0 66 -16l-10 -26q-15 8 -29.5 11t-28.5 3q-41 0 -59.5 -30t-18.5 -84v-114h192l4 140h26v-140h142v-28h-142v-328
q0 -23 3.5 -42.5t12.5 -33.5t25.5 -22t42.5 -8q14 0 31 5t31 11z" />
    <glyph glyph-name=".notdef" horiz-adv-x="624" 
d="M96 660h432v-660h-432v660zM288 340l-154 270v-536zM488 74v536l-152 -270zM476 32l-100 176l-62 106h-4l-64 -106l-102 -176h332zM314 366l54 92l94 168h-302l94 -168l56 -92h4z" />
    <glyph glyph-name=".null" 
 />
    <glyph glyph-name="nonmarkingreturn" horiz-adv-x="333" 
 />
    <glyph glyph-name="NULL" 
 />
    <glyph glyph-name="NULL" 
 />
    <glyph glyph-name="CR" unicode="&#xd;" horiz-adv-x="198" 
 />
    <glyph glyph-name="space" unicode=" " horiz-adv-x="198" 
 />
    <glyph glyph-name="exclam" unicode="!" horiz-adv-x="248" 
d="M108 608v62h32v-62l-4 -436h-24zM88 26q0 20 11 30t25 10t25 -10t11 -30q0 -18 -11 -28t-25 -10t-25 10t-11 28z" />
    <glyph glyph-name="quotedbl" unicode="&#x22;" horiz-adv-x="336" 
d="M84 634v60h38v-60l-6 -140h-26zM212 634v60h38v-60l-6 -140h-26z" />
    <glyph glyph-name="numbersign" unicode="#" horiz-adv-x="472" 
d="M120 218h-84v28h88l22 178h-90v28h92l26 198h28l-26 -198h156l26 198h28l-26 -198h82v-28h-84l-22 -178h86v-28h-90l-26 -218h-28l26 218h-156l-26 -218h-28zM308 246l22 178h-156l-22 -178h156z" />
    <glyph glyph-name="dollar" unicode="$" horiz-adv-x="472" 
d="M374 562q-14 14 -27.5 25.5t-28.5 19.5t-33.5 12.5t-42.5 4.5q-27 0 -49.5 -9.5t-38.5 -26t-25 -39t-9 -47.5q0 -47 21.5 -75t54 -47.5t70.5 -36.5t70.5 -40.5t54 -60t21.5 -94.5q0 -36 -12 -64.5t-33 -49t-49 -32.5t-60 -14v-98h-30v99q-54 4 -96 27.5t-70 49.5l18 22
q13 -13 30.5 -25.5t38 -23t44.5 -17t51 -6.5q66 0 101 36.5t35 93.5q0 52 -21.5 84.5t-54 54.5t-70.5 39t-70.5 39t-54 53.5t-21.5 83.5q0 31 10.5 57.5t29.5 46.5t44.5 32t55.5 15v99h30v-98q49 -3 79.5 -23t56.5 -47z" />
    <glyph glyph-name="percent" unicode="%" horiz-adv-x="798" 
d="M180 258q-65 0 -101.5 53.5t-36.5 154.5q0 100 36.5 153t101.5 53t101.5 -53t36.5 -153q0 -101 -36.5 -154.5t-101.5 -53.5zM180 284q50 0 79 48t29 134t-29 133t-79 47t-79 -47t-29 -133t29 -134t79 -48zM196 -12l370 684h32l-370 -684h-32zM618 -12q-65 0 -101.5 53.5
t-36.5 154.5q0 100 36.5 153t101.5 53t101.5 -53t36.5 -153q0 -101 -36.5 -154.5t-101.5 -53.5zM618 14q50 0 79 48t29 134t-29 133t-79 47t-79 -47t-29 -133t29 -134t79 -48z" />
    <glyph glyph-name="ampersand" unicode="&#x26;" horiz-adv-x="562" 
d="M226 16q44 0 83 21.5t71 55.5q-54 51 -105.5 114t-87.5 132q-24 -18 -45 -37t-37 -40t-25.5 -44t-9.5 -50q0 -35 12.5 -63t34 -47.5t49.5 -30.5t60 -11zM160 530q0 -35 10.5 -73t28.5 -77q26 19 50.5 38.5t43 40.5t30 44.5t11.5 50.5q0 16 -4 32.5t-13 29t-23.5 20.5
t-35.5 8q-23 0 -41.5 -9t-31 -24.5t-19 -36.5t-6.5 -44zM538 -12q-30 11 -64.5 32.5t-72.5 53.5q-36 -38 -79 -62t-98 -24q-38 0 -71.5 12.5t-59 35.5t-40.5 56t-15 74q0 32 11.5 59t30.5 51t44 45t51 41q-21 43 -33 85t-12 81q0 31 9.5 57.5t27 46t41 30t52.5 10.5
q51 0 77.5 -33t26.5 -83q0 -32 -13.5 -58.5t-35 -50.5t-49.5 -46l-56 -44q35 -68 85.5 -131t103.5 -111q38 47 64.5 104t44.5 123h30q-20 -69 -49 -131.5t-69 -113.5q70 -58 130 -81z" />
    <glyph glyph-name="quotesingle" unicode="'" horiz-adv-x="208" 
d="M84 634v60h38v-60l-6 -140h-26z" />
    <glyph glyph-name="parenleft" unicode="(" horiz-adv-x="270" 
d="M222 -174q-62 100 -97 209.5t-35 242.5t35 242.5t97 209.5l18 -12q-60 -95 -91 -207t-31 -233t31 -233t91 -207l-18 -12v0z" />
    <glyph glyph-name="parenright" unicode=")" horiz-adv-x="270" 
d="M30 -162q60 95 91 207t31 233t-31 233t-91 207l18 12q62 -100 97 -209.5t35 -242.5t-35 -242.5t-97 -209.5l-18 12v0z" />
    <glyph glyph-name="asterisk" unicode="*" horiz-adv-x="386" 
d="M108 494l54 86l-88 34l8 24l92 -26l6 100h26l6 -98l92 24l8 -24l-88 -34l54 -86l-22 -16l-62 82l-64 -82z" />
    <glyph glyph-name="plus" unicode="+" horiz-adv-x="472" 
d="M220 316h-186v28h186v204h32v-204h186v-28h-186v-204h-32v204z" />
    <glyph glyph-name="comma" unicode="," horiz-adv-x="208" 
d="M48 -126q31 18 51 48.5t21 72.5q-4 -1 -12 -1q-15 0 -25.5 9t-10.5 27t11 27t25 9q20 0 32 -16.5t12 -45.5q0 -51 -26.5 -90.5t-65.5 -63.5z" />
    <glyph glyph-name="hyphen" unicode="-" horiz-adv-x="294" 
d="M40 264h216v-30h-216v30z" />
    <glyph glyph-name="period" unicode="." horiz-adv-x="208" 
d="M68 26q0 20 11 30t25 10t25 -10t11 -30q0 -18 -11 -28t-25 -10t-25 10t-11 28z" />
    <glyph glyph-name="slash" unicode="/" horiz-adv-x="360" 
d="M328 710h30l-318 -870h-32z" />
    <glyph glyph-name="zero" unicode="0" horiz-adv-x="472" 
d="M236 -12q-91 0 -138.5 87t-47.5 247t47.5 245t138.5 85t138.5 -85t47.5 -245t-47.5 -247t-138.5 -87zM236 16q71 0 112.5 78.5t41.5 227.5t-41.5 225.5t-112.5 76.5t-112.5 -76.5t-41.5 -225.5t41.5 -227.5t112.5 -78.5z" />
    <glyph glyph-name="one" unicode="1" horiz-adv-x="472" 
d="M86 28h152v552h-114v22q38 6 67.5 16t50.5 22h26v-612h142v-28h-324v28z" />
    <glyph glyph-name="two" unicode="2" horiz-adv-x="472" 
d="M42 20q81 83 141 148.5t100 119.5t59.5 99.5t19.5 88.5q0 31 -8.5 58t-26.5 47t-45.5 31.5t-65.5 11.5q-45 0 -84.5 -24t-69.5 -62l-22 20q35 39 78 66.5t100 27.5q85 0 130.5 -48t45.5 -128q0 -49 -21.5 -97.5t-61 -102.5t-96.5 -115.5t-127 -136.5q27 2 54 3t54 1h230
v-28h-384v20z" />
    <glyph glyph-name="three" unicode="3" horiz-adv-x="472" 
d="M50 100q14 -16 31.5 -31t39.5 -27t49 -19t62 -7q34 0 62.5 11t49.5 30.5t32.5 47t11.5 61.5t-13 63t-41 49.5t-71.5 32t-104.5 11.5v30q57 0 96.5 11.5t63.5 31.5t35 46.5t11 56.5q0 57 -37 91.5t-99 34.5q-45 0 -84 -21t-66 -51l-20 22q32 32 73 55t97 23q35 0 66 -10.5
t53.5 -30t35.5 -47.5t13 -64q0 -32 -9.5 -58t-26 -45.5t-39.5 -33.5t-49 -23v-4q30 -6 57 -20t47 -35.5t32 -50t12 -62.5q0 -41 -14.5 -74.5t-40 -57t-60.5 -36t-75 -12.5q-38 0 -68.5 8t-54.5 21t-43 29t-34 32z" />
    <glyph glyph-name="four" unicode="4" horiz-adv-x="472" 
d="M312 224v252q0 21 1 53t3 53h-4q-12 -20 -25 -37.5t-27 -38.5l-202 -282h254zM440 196h-98v-196h-30v196h-296v16l306 428h20v-416h98v-28z" />
    <glyph glyph-name="five" unicode="5" horiz-adv-x="472" 
d="M46 96q14 -15 31 -29.5t38.5 -25.5t48.5 -18t62 -7q33 0 63 13t53 37t36.5 57.5t13.5 74.5q0 81 -44.5 127.5t-119.5 46.5q-38 0 -65.5 -12t-56.5 -32l-26 16l24 296h286v-28h-258l-22 -246q26 16 54 26t66 10q40 0 75.5 -12t62 -36.5t41.5 -63t15 -90.5q0 -51 -17 -90.5
t-45.5 -66.5t-64.5 -41t-73 -14q-38 0 -68 8t-54 20t-42.5 27.5t-33.5 30.5z" />
    <glyph glyph-name="six" unicode="6" horiz-adv-x="472" 
d="M260 16q29 0 54 13.5t43 36.5t28.5 54t10.5 66q0 36 -8 67t-26 54t-45.5 36t-66.5 13q-35 0 -78 -23t-85 -78q3 -52 14.5 -96t32.5 -75.5t52.5 -49.5t73.5 -18zM394 570q-22 27 -50 40.5t-60 13.5q-39 0 -75 -17t-63 -56t-43.5 -102.5t-16.5 -155.5q34 42 76.5 66.5
t89.5 24.5q85 0 130.5 -50.5t45.5 -147.5q0 -43 -13.5 -79t-37 -62.5t-54.5 -41.5t-65 -15q-97 0 -150.5 78.5t-53.5 221.5q0 102 19 171.5t51 112.5t74 61.5t88 18.5q42 0 73 -16.5t55 -43.5z" />
    <glyph glyph-name="seven" unicode="7" horiz-adv-x="472" 
d="M192 0q4 99 16.5 181.5t36.5 155.5t59 140t84 135h-344v28h386v-18q-58 -77 -95.5 -149t-60.5 -145.5t-33.5 -153.5t-14.5 -174h-34v0z" />
    <glyph glyph-name="eight" unicode="8" horiz-adv-x="472" 
d="M72 164q0 -31 12.5 -58t35 -47t53 -31.5t67.5 -11.5q36 0 65 11t50 29.5t32 43.5t11 54q0 39 -17.5 66.5t-46 47.5t-65.5 35.5t-75 30.5q-53 -30 -87.5 -72t-34.5 -98zM288 330q44 35 67 73.5t23 82.5q0 28 -9 53t-27 44t-43.5 30t-58.5 11q-29 0 -52.5 -9.5t-41 -26.5
t-27 -40t-9.5 -50q0 -36 15.5 -62t41 -45.5t57.5 -33.5t64 -27zM40 164q0 33 12 61.5t30.5 51.5t41.5 41t46 30v4q-17 11 -33.5 26t-29.5 33t-21 39.5t-8 47.5q0 34 12.5 62t34.5 48.5t51.5 32t63.5 11.5q40 0 72 -12.5t53.5 -35t33 -53t11.5 -65.5q0 -27 -9.5 -52
t-23 -46.5t-30 -39t-29.5 -28.5v-4q20 -13 40 -27.5t36 -34t26 -44t10 -56.5q0 -35 -13.5 -65t-38.5 -52.5t-60 -35.5t-78 -13q-44 0 -80.5 13.5t-63 37t-41.5 55.5t-15 70z" />
    <glyph glyph-name="nine" unicode="9" horiz-adv-x="472" 
d="M222 284q35 0 78 23t85 78q-3 52 -14.5 96t-32.5 75.5t-52.5 49.5t-73.5 18q-29 0 -54 -13.5t-43 -36.5t-28.5 -54t-10.5 -66q0 -36 8 -67t26 -54t45.5 -36t66.5 -13zM78 70q22 -27 50 -40.5t60 -13.5q39 0 75 17t63 56t43.5 102.5t16.5 155.5q-34 -42 -76.5 -66.5
t-89.5 -24.5q-85 0 -130.5 50.5t-45.5 147.5q0 43 13.5 79t37 62.5t54 41.5t65.5 15q97 0 150.5 -78.5t53.5 -221.5q0 -102 -19 -171.5t-51 -112.5t-74 -61.5t-88 -18.5q-42 0 -73.5 16.5t-54.5 43.5z" />
    <glyph glyph-name="colon" unicode=":" horiz-adv-x="208" 
d="M68 416q0 20 11 30t25 10t25 -10t11 -30q0 -18 -11 -28t-25 -10t-25 10t-11 28zM68 26q0 20 11 30t25 10t25 -10t11 -30q0 -18 -11 -28t-25 -10t-25 10t-11 28z" />
    <glyph glyph-name="semicolon" unicode=";" horiz-adv-x="208" 
d="M68 416q0 20 11 30t25 10t25 -10t11 -30q0 -18 -11 -28t-25 -10t-25 10t-11 28zM48 -126q31 18 51 48.5t21 72.5q-4 -1 -12 -1q-15 0 -25.5 9t-10.5 27t11 27t25 9q20 0 32 -16.5t12 -45.5q0 -51 -26.5 -90.5t-65.5 -63.5z" />
    <glyph glyph-name="less" unicode="&#x3c;" horiz-adv-x="472" 
d="M34 350l404 162v-32l-240 -94l-132 -52v-4l132 -52l240 -94v-32l-404 162v36z" />
    <glyph glyph-name="equal" unicode="=" horiz-adv-x="472" 
d="M34 444h404v-28h-404v28zM34 245h404v-28h-404v28z" />
    <glyph glyph-name="greater" unicode="&#x3e;" horiz-adv-x="472" 
d="M438 314l-404 -162v32l240 94l132 52v4l-132 52l-240 94v32l404 -162v-36z" />
    <glyph glyph-name="question" unicode="?" horiz-adv-x="394" 
d="M164 172q-6 42 3 76.5t25 63t36.5 54.5t38.5 51.5t30.5 52.5t12.5 60q0 24 -7 46.5t-21.5 39.5t-37.5 27.5t-54 10.5q-38 0 -73 -17t-61 -49l-20 18q29 32 67 54t89 22q36 0 64 -12t47 -32.5t29 -47.5t10 -58q0 -34 -12.5 -63.5t-31 -56.5t-39 -53t-37.5 -54.5t-26 -61
t-4 -71.5h-28zM146 26q0 20 11 30t25 10t25 -10t11 -30q0 -18 -11 -28t-25 -10t-25 10t-11 28z" />
    <glyph glyph-name="at" unicode="@" horiz-adv-x="802" 
d="M52 202q0 97 32 175.5t86 134t124.5 86t147.5 30.5q71 0 128 -22.5t97 -63t61.5 -98.5t21.5 -128q0 -63 -16.5 -111t-42.5 -81t-57.5 -49.5t-61.5 -16.5q-39 0 -65 18.5t-29 57.5h-2q-27 -29 -57 -49.5t-65 -20.5q-23 0 -43 8.5t-35.5 25t-24.5 41.5t-9 59q0 35 12 74
t35.5 72t58 54.5t78.5 21.5q54 0 84 -48h2l8 40h26l-34 -184q-36 -142 62 -142q24 0 50 15t47 44t35 71.5t14 97.5q0 66 -20 119t-56.5 90t-88 57t-115.5 20q-69 0 -133.5 -28t-114.5 -80t-80 -125t-30 -163q0 -73 21.5 -131.5t61 -100t95.5 -64t124 -22.5q51 0 92.5 13.5
t77.5 36.5l14 -24q-84 -54 -186 -54q-72 0 -132.5 23.5t-104.5 67.5t-68.5 108t-24.5 145zM272 200q0 -60 24.5 -84t59.5 -24q53 0 114 70l32 178q-20 30 -37 41t-41 11q-35 0 -63.5 -17.5t-48 -45.5t-30 -62t-10.5 -67z" />
    <glyph glyph-name="A" unicode="A" horiz-adv-x="512" 
d="M380 264l-46 132q-21 60 -39.5 114t-36.5 116h-4q-18 -62 -36.5 -116t-39.5 -114l-47 -132h249zM390 236h-269l-83 -236h-32l236 660h28l236 -660h-34z" />
    <glyph glyph-name="B" unicode="B" horiz-adv-x="566" 
d="M96 660h172q100 0 157 -39.5t57 -120.5q0 -53 -29.5 -91t-88.5 -53v-4q74 -11 117 -51t43 -109q0 -95 -65.5 -143.5t-178.5 -48.5h-184v660zM248 366q108 0 155 34.5t47 103.5q0 68 -49.5 98t-146.5 30h-126v-266h120zM268 28q52 0 93.5 9.5t70.5 29.5t44.5 50.5
t15.5 72.5q0 75 -58.5 111.5t-165.5 36.5h-140v-310h140z" />
    <glyph glyph-name="C" unicode="C" horiz-adv-x="554" 
d="M52 332q0 78 20 141t56 107t87.5 68t114.5 24q57 0 99.5 -24t68.5 -54l-20 -22q-27 32 -64 51t-84 19q-57 0 -102.5 -21.5t-77 -62t-48 -98t-16.5 -128.5t16.5 -129t48 -99t75.5 -63.5t100 -22.5q53 0 93.5 21t78.5 63l20 -20q-38 -44 -83.5 -69t-110.5 -25
q-61 0 -111 24.5t-86 69.5t-55.5 108.5t-19.5 141.5z" />
    <glyph glyph-name="D" unicode="D" horiz-adv-x="594" 
d="M96 660h148q76 0 132 -23.5t92.5 -67t54 -104t17.5 -133.5q0 -74 -17.5 -135t-54 -104.5t-92.5 -68t-132 -24.5h-148v660zM240 28q70 0 120.5 23t83 63.5t47.5 96.5t15 121t-15 120t-47.5 95t-83 62.5t-120.5 22.5h-112v-604h112z" />
    <glyph glyph-name="E" unicode="E" horiz-adv-x="502" 
d="M96 660h354v-28h-322v-266h270v-28h-270v-310h332v-28h-364v660z" />
    <glyph glyph-name="F" unicode="F" horiz-adv-x="462" 
d="M96 660h352v-28h-320v-278h270v-28h-270v-326h-32v660z" />
    <glyph glyph-name="G" unicode="G" horiz-adv-x="592" 
d="M52 332q0 78 20.5 141t58 107t91 68t118.5 24q33 0 60 -7t48.5 -18.5t38 -25.5t29.5 -27l-20 -22q-26 29 -63 49.5t-93 20.5q-59 0 -106 -21.5t-80 -62t-50.5 -98t-17.5 -128.5t17 -129t48.5 -99t77 -63.5t103.5 -22.5q48 0 90 14t68 40v218h-164v28h196v-256
q-30 -33 -78.5 -53.5t-113.5 -20.5q-63 0 -114.5 24.5t-87.5 69.5t-56 108.5t-20 141.5z" />
    <glyph glyph-name="H" unicode="H" horiz-adv-x="626" 
d="M96 660h32v-294h370v294h32v-660h-32v338h-370v-338h-32v660z" />
    <glyph glyph-name="I" unicode="I" horiz-adv-x="224" 
d="M96 660h32v-660h-32v660z" />
    <glyph glyph-name="J" unicode="J" horiz-adv-x="448" 
d="M66 98q26 -44 57 -62t75 -18q63 0 93.5 38.5t30.5 121.5v482h32v-486q0 -39 -8.5 -73t-27 -59t-49 -39.5t-73.5 -14.5q-53 0 -92.5 24.5t-63.5 69.5z" />
    <glyph glyph-name="K" unicode="K" horiz-adv-x="542" 
d="M96 660h32v-380h2l336 380h40l-212 -242l240 -418h-38l-226 394l-142 -160v-234h-32v660z" />
    <glyph glyph-name="L" unicode="L" horiz-adv-x="452" 
d="M96 660h32v-632h310v-28h-342v660z" />
    <glyph glyph-name="M" unicode="M" horiz-adv-x="690" 
d="M96 660h52l142 -400l54 -150h4l52 150l142 400h52v-660h-32v460q0 39 1 85t3 87h-4l-51 -144l-147 -414h-38l-148 414l-52 144h-4q2 -41 3 -87t1 -85v-460h-30v660z" />
    <glyph glyph-name="N" unicode="N" horiz-adv-x="624" 
d="M96 660h34l292 -484l76 -130h4q-2 48 -3 93.5t-1 92.5v428h30v-660h-34l-292 484l-76 130h-4q2 -47 3 -90t1 -90v-434h-30v660z" />
    <glyph glyph-name="O" unicode="O" horiz-adv-x="640" 
d="M320 -12q-59 0 -108 24.5t-84.5 69.5t-55.5 108.5t-20 141.5t20 141t55.5 107t84.5 68t108 24q58 0 107.5 -24t85 -68t55.5 -107t20 -141t-20 -141.5t-55.5 -108.5t-85 -69.5t-107.5 -24.5zM320 18q52 0 95.5 22.5t74 63.5t47.5 99t17 129t-17 128.5t-47.5 98t-74 62
t-95.5 21.5q-53 0 -96 -21.5t-73.5 -62t-47.5 -98t-17 -128.5t17 -129t47.5 -99t73.5 -63.5t96 -22.5z" />
    <glyph glyph-name="P" unicode="P" horiz-adv-x="544" 
d="M96 660h172q111 0 171.5 -40.5t60.5 -139.5q0 -95 -60 -141.5t-172 -46.5h-140v-292h-32v660zM256 320q107 0 158.5 37t51.5 123q0 87 -52 119.5t-158 32.5h-128v-312h128z" />
    <glyph glyph-name="Q" unicode="Q" horiz-adv-x="640" 
d="M86 332q0 -71 17 -129t47.5 -99t73.5 -63.5t96 -22.5q52 0 95.5 22.5t74 63.5t47.5 99t17 129t-17 128.5t-47.5 98t-74 62t-95.5 21.5q-53 0 -96 -21.5t-73.5 -62t-47.5 -98t-17 -128.5zM586 -142q-12 -3 -32.5 -6.5t-43.5 -3.5q-81 0 -134 40t-76 101q-55 4 -100.5 30
t-78.5 71t-51 106t-18 136q0 78 20 141t55.5 107t84.5 68t108 24q58 0 107.5 -24t85 -68t55.5 -107t20 -141q0 -75 -18.5 -137t-52 -106.5t-79.5 -70.5t-101 -29q22 -52 66.5 -80.5t108.5 -28.5q23 0 38.5 2.5t27.5 5.5z" />
    <glyph glyph-name="R" unicode="R" horiz-adv-x="544" 
d="M266 340q92 0 141 36.5t49 113.5q0 78 -49 110t-141 32h-138v-292h138zM462 0l-186 312h-148v-312h-32v660h182q49 0 88 -9.5t66.5 -30t42.5 -52.5t15 -78q0 -79 -47.5 -123.5t-130.5 -52.5l188 -314h-38z" />
    <glyph glyph-name="S" unicode="S" horiz-adv-x="508" 
d="M66 110q36 -42 87 -67t111 -25q40 0 72 10.5t54.5 29t35 44.5t12.5 58q0 33 -10 55.5t-26.5 39t-38.5 28.5t-47 23l-102 46q-21 9 -44.5 22t-43.5 31.5t-33 45t-13 63.5q0 35 14 64t39 50t59 32.5t74 11.5q60 0 105.5 -23.5t74.5 -54.5l-20 -22q-29 32 -69 51t-91 19
q-69 0 -111.5 -34.5t-42.5 -91.5q0 -31 11.5 -52.5t29 -37t37.5 -26t38 -18.5l102 -46q27 -12 52.5 -26.5t45 -34.5t31 -47.5t11.5 -65.5t-15 -69.5t-42 -55t-65 -36.5t-84 -13q-74 0 -128 28t-92 72z" />
    <glyph glyph-name="T" unicode="T" horiz-adv-x="512" 
d="M240 632h-214v28h460v-28h-214v-632h-32v632z" />
    <glyph glyph-name="U" unicode="U" horiz-adv-x="622" 
d="M94 660h32v-406q0 -68 15 -113.5t40.5 -72.5t59 -38.5t69.5 -11.5q37 0 71 11.5t60 38.5t41.5 72.5t15.5 113.5v406h30v-414q0 -77 -19 -126.5t-50 -79t-70 -41t-79 -11.5t-78.5 11.5t-69 41t-49.5 79t-19 126.5v414z" />
    <glyph glyph-name="V" unicode="V" horiz-adv-x="474" 
d="M2 660h34l128 -396q10 -31 18.5 -58t17 -53.5t17 -54t19.5 -57.5h4q10 30 19 57.5t17.5 54t17 53.5t18.5 58l128 396h32l-218 -660h-32z" />
    <glyph glyph-name="W" unicode="W" horiz-adv-x="756" 
d="M26 660h34l88 -400l48 -216h4q12 54 25 108t27 108l108 400h36l108 -400l54 -216h4q12 54 23 108t23 108l88 400h32l-152 -660h-32l-128 474q-9 39 -18 74t-18 74h-4q-9 -39 -19 -74t-19 -74l-126 -474h-32z" />
    <glyph glyph-name="X" unicode="X" horiz-adv-x="462" 
d="M214 342l-186 318h34l116 -204q14 -23 25.5 -42t28.5 -46h4q15 27 25.5 46t24.5 42l116 204h32l-186 -320l200 -340h-34l-122 212q-14 24 -29 49l-33 55h-4q-17 -30 -30.5 -55t-27.5 -49l-122 -212h-32z" />
    <glyph glyph-name="Y" unicode="Y" horiz-adv-x="428" 
d="M198 272l-198 388h34l106 -214q18 -36 35 -71t37 -71h4q20 36 38.5 71t35.5 71l106 214h32l-198 -388v-272h-32v272z" />
    <glyph glyph-name="Z" unicode="Z" horiz-adv-x="530" 
d="M48 18l392 614h-358v28h398v-18l-392 -614h396v-28h-436v18z" />
    <glyph glyph-name="bracketleft" unicode="[" horiz-adv-x="270" 
d="M100 708h152v-24h-128v-814h128v-22h-152v860z" />
    <glyph glyph-name="backslash" unicode="\" horiz-adv-x="360" 
d="M2 710h30l320 -870h-32z" />
    <glyph glyph-name="bracketright" unicode="]" horiz-adv-x="270" 
d="M146 -130v814h-128v24h152v-860h-152v22h128z" />
    <glyph glyph-name="asciicircum" unicode="^" horiz-adv-x="472" 
d="M218 670h36l150 -378h-32l-82 214l-52 132h-4l-52 -132l-82 -214h-32z" />
    <glyph glyph-name="underscore" unicode="_" horiz-adv-x="500" 
d="M488 -82v-32h-476v32h476z" />
    <glyph glyph-name="grave" unicode="`" horiz-adv-x="532" 
d="M186 706h40l92 -134h-28z" />
    <glyph glyph-name="a" unicode="a" horiz-adv-x="494" 
d="M68 117q0 80 76 121.5t238 59.5q1 29 -3.5 58.5t-17.5 53t-36.5 38t-60.5 14.5q-26 0 -49 -5.5t-43 -14.5t-36.5 -19t-27.5 -19l-16 24q11 8 28.5 19t40 20.5t49.5 16t56 6.5q42 0 70 -14.5t45 -39.5t24 -57.5t7 -68.5v-310h-26l-4 64h-2q-38 -30 -82 -53t-92 -23
q-28 0 -53 7.5t-44 23t-30 40t-11 58.5zM100 118q0 -28 8.5 -47.5t23.5 -31.5t34.5 -17.5t41.5 -5.5q44 0 85 20.5t89 61.5v174q-79 -9 -133 -22.5t-87 -32.5t-47.5 -43.5t-14.5 -55.5z" />
    <glyph glyph-name="b" unicode="b" horiz-adv-x="540" 
d="M96 722h30v-214l-2 -96q38 32 81.5 55t88.5 23q97 0 144.5 -66.5t47.5 -177.5q0 -61 -17 -109t-46 -81t-67.5 -50.5t-81.5 -17.5q-35 0 -73 15t-73 41h-2l-4 -44h-26v722zM126 82q42 -36 81.5 -51t68.5 -15q39 0 71.5 17t56.5 47.5t37 73t13 92.5q0 46 -8.5 85.5
t-28 68.5t-50.5 45.5t-75 16.5q-38 0 -79.5 -21.5t-86.5 -62.5v-296z" />
    <glyph glyph-name="c" unicode="c" horiz-adv-x="446" 
d="M54 238q0 60 17.5 107t47 79t68 49t81.5 17q50 0 83 -18.5t57 -41.5l-20 -22q-24 23 -53 38.5t-67 15.5t-71.5 -16.5t-58 -46t-38.5 -71t-14 -90.5q0 -50 13 -90.5t37 -70t57.5 -45.5t74.5 -16t74.5 17t59.5 41l18 -22q-30 -27 -67.5 -45.5t-84.5 -18.5q-46 0 -85 17
t-67.5 49t-45 78.5t-16.5 105.5z" />
    <glyph glyph-name="d" unicode="d" horiz-adv-x="540" 
d="M54 238q0 58 17 104.5t46.5 79.5t68 50.5t82.5 17.5t77 -15.5t71 -44.5l-2 90v202h30v-722h-26l-4 64h-2q-30 -30 -70 -53t-90 -23q-91 0 -144.5 64t-53.5 186zM86 238q0 -50 11 -90.5t32.5 -70t52.5 -45.5t72 -16q42 0 80.5 21.5t79.5 62.5v296q-41 36 -75.5 51
t-72.5 15t-71 -17.5t-57 -48t-38 -71.5t-14 -87z" />
    <glyph glyph-name="e" unicode="e" horiz-adv-x="478" 
d="M54 238q0 58 17.5 105t46 79.5t65.5 50t77 17.5q83 0 131.5 -56.5t48.5 -163.5v-15.5t-2 -16.5h-352q0 -48 13.5 -88.5t38 -70.5t59 -46.5t77.5 -16.5q41 0 73 12t59 32l14 -26q-27 -17 -60.5 -31.5t-87.5 -14.5q-45 0 -84.5 17t-69.5 49.5t-47 78.5t-17 105zM410 264
q0 100 -41 149t-109 49q-32 0 -62 -14t-53.5 -39.5t-39 -62t-19.5 -82.5h324z" />
    <glyph glyph-name="f" unicode="f" horiz-adv-x="252" 
d="M266 692q-15 8 -29.5 11t-28.5 3q-41 0 -59.5 -30t-18.5 -84v-114h114v-28h-114v-450h-30v450h-66v24l66 4v118q0 71 29.5 104.5t80.5 33.5q31 0 66 -16z" />
    <glyph glyph-name="g" unicode="g" horiz-adv-x="480" 
d="M86 -98q0 -48 43 -78t123 -30q43 0 77.5 11.5t58.5 29.5t37 41.5t13 47.5q0 42 -29.5 60t-86.5 18h-110q-5 0 -21.5 1.5t-36.5 6.5q-36 -24 -52 -52.5t-16 -55.5zM54 -100q0 32 19.5 63t52.5 55v4q-18 11 -30 30t-12 46q0 33 18.5 55t33.5 33v4q-23 20 -41.5 54t-18.5 78
q0 36 12.5 66.5t35 53t52 35.5t64.5 13q20 0 35.5 -3.5t26.5 -8.5h160v-28h-116q26 -21 42 -54t16 -74q0 -36 -12.5 -67t-35 -54t-52.5 -36t-64 -13q-21 0 -43 5.5t-39 16.5q-17 -14 -29.5 -31t-12.5 -43q0 -14 4.5 -26t15 -21t28.5 -14t46 -5h106q80 0 117 -26t37 -82
q0 -30 -15.5 -59t-44 -51.5t-69.5 -36t-91 -13.5q-92 0 -144 37t-52 97zM240 180q26 0 50 10.5t42 29t29 44.5t11 58t-10.5 58t-28.5 44t-42 28t-51 10t-51 -10t-42 -28t-28.5 -44t-10.5 -58t11 -58t29 -44.5t42 -29t50 -10.5z" />
    <glyph glyph-name="h" unicode="h" horiz-adv-x="522" 
d="M96 722h30v-214v-108q39 39 78.5 64.5t89.5 25.5q74 0 109 -44t35 -138v-308h-30v304q0 80 -27 119t-89 39q-45 0 -82.5 -24t-83.5 -72v-366h-30v722z" />
    <glyph glyph-name="i" unicode="i" horiz-adv-x="222" 
d="M112 600q-14 0 -24 9.5t-10 24.5q0 17 10 25.5t24 8.5t24 -8.5t10 -25.5q0 -15 -10 -24.5t-24 -9.5zM96 478h30v-478h-30v478z" />
    <glyph glyph-name="j" unicode="j" horiz-adv-x="222" 
d="M96 478h30v-580q0 -69 -24 -100.5t-74 -31.5q-15 0 -31 3.5t-27 8.5l8 26q9 -3 23 -6.5t29 -3.5q21 0 34 8t20 22.5t9.5 34.5t2.5 43v576zM112 600q-14 0 -24 9.5t-10 24.5q0 17 10 25.5t24 8.5t24 -8.5t10 -25.5q0 -15 -10 -24.5t-24 -9.5z" />
    <glyph glyph-name="k" unicode="k" horiz-adv-x="452" 
d="M96 722h30v-548h2l248 304h36l-154 -188l182 -290h-34l-166 266l-114 -134v-132h-30v722z" />
    <glyph glyph-name="l" unicode="l" horiz-adv-x="230" 
d="M96 722h30v-676q0 -30 20 -30h6.5t11.5 2l6 -26q-6 -2 -11.5 -3t-14.5 -1q-23 0 -35.5 14.5t-12.5 49.5v670z" />
    <glyph glyph-name="m" unicode="m" horiz-adv-x="806" 
d="M96 478h26l4 -76h2q33 38 73 63t79 25q59 0 89.5 -27.5t42.5 -72.5q42 47 82.5 73.5t81.5 26.5q71 0 106.5 -44t35.5 -138v-308h-30v304q0 80 -27.5 119t-86.5 39q-36 0 -73 -24t-79 -72v-366h-30v304q0 80 -27.5 119t-86.5 39q-68 0 -152 -96v-366h-30v478z" />
    <glyph glyph-name="n" unicode="n" horiz-adv-x="526" 
d="M96 478h26l4 -76h2q38 38 77 63t89 25q74 0 109 -44t35 -138v-308h-30v304q0 80 -27 119t-89 39q-45 0 -82.5 -24t-83.5 -72v-366h-30v478z" />
    <glyph glyph-name="o" unicode="o" horiz-adv-x="532" 
d="M54 238q0 60 17 107t46 79t67.5 49t81.5 17t81.5 -17t67.5 -49t46 -79t17 -107q0 -59 -17 -105.5t-46 -78.5t-67.5 -49t-81.5 -17t-81.5 17t-67.5 49t-46 78.5t-17 105.5zM86 238q0 -50 14 -90.5t38 -70t57 -45.5t71 -16t71 16t57 45.5t38 70t14 90.5q0 49 -14 90.5
t-38 71t-57 46t-71 16.5t-71 -16.5t-57 -46t-38 -71t-14 -90.5z" />
    <glyph glyph-name="p" unicode="p" horiz-adv-x="540" 
d="M126 -42v-180h-30v700h26l4 -62h2q36 29 78.5 51.5t87.5 22.5q97 0 144.5 -66.5t47.5 -177.5q0 -61 -17 -109t-46 -81t-67.5 -50.5t-81.5 -17.5q-35 0 -72 15.5t-76 44.5v-90zM126 82q44 -36 82.5 -51t67.5 -15q39 0 71.5 17t56.5 47.5t37 73t13 92.5q0 46 -8.5 85.5
t-28 68.5t-50.5 45.5t-75 16.5q-38 0 -78.5 -21.5t-87.5 -62.5v-296z" />
    <glyph glyph-name="q" unicode="q" horiz-adv-x="532" 
d="M54 238q0 58 17 104.5t46.5 79.5t68 50.5t82.5 17.5t76.5 -15t67.5 -41h2l4 44h26v-700h-30v190l2 96q-33 -30 -73.5 -53t-90.5 -23q-91 0 -144.5 64t-53.5 186zM86 238q0 -50 11 -90.5t32.5 -70t52.5 -45.5t72 -16q42 0 80.5 21.5t79.5 62.5v296q-41 36 -75.5 51
t-72.5 15t-71 -17.5t-57 -48t-38 -71.5t-14 -87z" />
    <glyph glyph-name="r" unicode="r" horiz-adv-x="306" 
d="M96 478h26l4 -90h2q24 44 58 73t78 29q12 0 23 -2t23 -8l-8 -28q-12 5 -20 6.5t-22 1.5q-33 0 -69 -28.5t-65 -99.5v-332h-30v478z" />
    <glyph glyph-name="s" unicode="s" horiz-adv-x="400" 
d="M54 78q30 -26 66 -44t90 -18q30 0 53 8.5t38 22.5t23 32.5t8 38.5q0 24 -11 41.5t-28 31t-38.5 22.5t-42.5 17q-28 10 -55.5 21t-50 26t-36.5 36.5t-14 52.5q0 25 9.5 47.5t28.5 39.5t47 27t65 10q36 0 71 -13.5t61 -34.5l-18 -24q-24 18 -51 31t-65 13q-30 0 -52 -8
t-36 -21.5t-21 -30t-7 -34.5q0 -21 10 -36.5t26.5 -27.5t37 -21t42.5 -17q28 -11 57 -22t51.5 -26.5t37 -39t14.5 -58.5q0 -26 -10.5 -50t-30 -42t-49 -29t-66.5 -11q-54 0 -98 19.5t-76 46.5z" />
    <glyph glyph-name="t" unicode="t" horiz-adv-x="302" 
d="M106 450h-76v24l76 4l4 140h26v-140h142v-28h-142v-328q0 -23 3.5 -42.5t12.5 -33.5t25.5 -22t42.5 -8q14 0 31 5t31 11l10 -26q-21 -8 -41.5 -13t-32.5 -5q-33 0 -54.5 10t-34.5 28t-18 43.5t-5 56.5v324z" />
    <glyph glyph-name="u" unicode="u" horiz-adv-x="524" 
d="M88 478h30v-304q0 -80 27 -119t89 -39q45 0 82 25t82 79v358h30v-478h-26l-4 82h-2q-36 -42 -75 -68t-89 -26q-74 0 -109 44t-35 138v308z" />
    <glyph glyph-name="v" unicode="v" horiz-adv-x="422" 
d="M12 478h34l114 -310q12 -35 25 -69.5t25 -66.5h4q12 32 25 66.5t25 69.5l114 310h32l-180 -478h-36z" />
    <glyph glyph-name="w" unicode="w" horiz-adv-x="672" 
d="M24 478h34l92 -322q9 -33 17.5 -63.5t16.5 -62.5h4q9 32 18 62.5t18 63.5l92 322h42l92 -322q9 -33 18 -63.5t18 -62.5h4q9 32 18 62.5t18 63.5l90 322h32l-140 -478h-42l-90 312q-11 35 -19 68t-19 68h-4q-9 -35 -18.5 -69t-21.5 -69l-88 -310h-38z" />
    <glyph glyph-name="x" unicode="x" horiz-adv-x="392" 
d="M178 250l-150 228h34l82 -128q12 -20 25 -39t27 -39h4q14 20 26 39t26 39l80 128h32l-150 -230l164 -248h-34l-90 138q-14 23 -28.5 45t-29.5 43h-4q-15 -21 -29 -43t-29 -45l-88 -138h-32z" />
    <glyph glyph-name="y" unicode="y" horiz-adv-x="424" 
d="M28 -184q8 -3 18.5 -5.5t21.5 -2.5q45 0 76.5 38.5t51.5 97.5l14 44l-198 490h34l122 -314q12 -30 26 -66t28 -68h4q12 32 23.5 68t22.5 66l108 314h32l-192 -546q-9 -28 -22.5 -55.5t-32.5 -49.5t-43.5 -35.5t-55.5 -13.5q-26 0 -46 10l8 28v0z" />
    <glyph glyph-name="z" unicode="z" horiz-adv-x="396" 
d="M26 16l294 434h-262v28h302v-16l-294 -434h304v-28h-344v16z" />
    <glyph glyph-name="braceleft" unicode="{" horiz-adv-x="270" 
d="M114 -26q0 56 4 106.5t4 103.5q0 16 -3.5 30.5t-13 26t-26.5 18.5t-43 7v24q26 0 43 7t26.5 18t13 25.5t3.5 29.5q0 48 -4 104.5t-4 107.5q0 37 6.5 61t20 38.5t33.5 20.5t46 6h32v-24h-34q-47 0 -62.5 -26t-15.5 -80q0 -47 3 -97.5t3 -98.5q0 -42 -9.5 -67.5
t-38.5 -34.5v-4q29 -9 38.5 -35t9.5 -67q0 -56 -3 -101t-3 -95q0 -54 15.5 -81t62.5 -27h34v-22h-32q-26 0 -46 5.5t-33.5 20t-20 38.5t-6.5 62z" />
    <glyph glyph-name="bar" unicode="|" horiz-adv-x="220" 
d="M96 750h28v-1000h-28v1000z" />
    <glyph glyph-name="braceright" unicode="}" horiz-adv-x="270" 
d="M50 -130q48 0 64 27t16 81q0 50 -3 95t-3 101q0 41 9.5 67t38.5 35v4q-29 9 -38.5 34.5t-9.5 67.5q0 48 3 98.5t3 97.5q0 54 -16 80t-64 26h-32v24h30q27 0 47 -6t33.5 -20.5t20.5 -38.5t7 -61q0 -51 -4 -107.5t-4 -104.5q0 -15 3.5 -29.5t13 -25.5t26.5 -18t43 -7v-24
q-26 0 -43 -7t-26.5 -18.5t-13 -26t-3.5 -30.5q0 -53 4 -103.5t4 -106.5q0 -38 -7 -62t-20.5 -38.5t-33.5 -20t-47 -5.5h-30v22h32z" />
    <glyph glyph-name="asciitilde" unicode="~" horiz-adv-x="472" 
d="M42 310q20 41 47.5 60.5t56.5 19.5q28 0 52 -14.5t45.5 -31.5t42 -31.5t42.5 -14.5q23 0 42.5 14t37.5 50l22 -14q-20 -39 -47.5 -58.5t-56.5 -19.5t-52.5 14.5t-45 31.5t-42 31.5t-42.5 14.5q-23 0 -42.5 -14t-37.5 -50z" />
    <glyph glyph-name="uni00A0" unicode="&#xa0;" horiz-adv-x="198" 
 />
    <glyph glyph-name="exclamdown" unicode="&#xa1;" horiz-adv-x="248" 
d="M140 -130v-62h-32v62l4 436h24zM160 452q0 -20 -11 -30t-25 -10t-25 10t-11 30q0 18 11 28t25 10t25 -10t11 -28z" />
    <glyph glyph-name="cent" unicode="&#xa2;" horiz-adv-x="472" 
d="M252 510q-34 -4 -63 -20t-50 -42t-33 -60.5t-12 -75.5q0 -42 11 -76.5t32 -60.5t50 -42t65 -20v397zM428 148q-29 -26 -66 -44.5t-82 -19.5v-110h-28v111q-41 4 -76 20.5t-60.5 45.5t-39.5 69.5t-14 91.5q0 52 15 92.5t41 69t60.5 45t73.5 20.5v113h28v-112
q48 -1 80.5 -19.5t55.5 -40.5l-18 -20q-23 22 -52.5 36.5t-65.5 15.5v-400q39 1 72 17t58 39z" />
    <glyph glyph-name="sterling" unicode="&#xa3;" horiz-adv-x="472" 
d="M418 28v-28h-360v18q57 33 81.5 87t24.5 113q0 20 -2.5 39.5t-7.5 38.5h-100v26l66 2h26q-11 41 -22.5 80.5t-11.5 81.5q0 77 43.5 121.5t120.5 44.5q51 0 85 -21.5t55 -48.5l-22 -20q-21 26 -49.5 44t-70.5 18q-32 0 -56.5 -11t-41 -29.5t-24.5 -43t-8 -52.5
q0 -43 12 -82.5t23 -81.5h167v-28h-161q9 -36 9 -78q0 -66 -20 -108.5t-56 -77.5v-4h300z" />
    <glyph glyph-name="currency" unicode="&#xa4;" horiz-adv-x="472" 
d="M32 140l66 68q-18 24 -28 54.5t-10 65.5q0 37 10 68t28 55l-66 69l20 22l66 -69q23 23 53.5 35t64.5 12q33 0 63.5 -12t54.5 -35l66 69l20 -22l-67 -69q18 -24 28.5 -55t10.5 -68q0 -35 -10.5 -65.5t-27.5 -54.5l66 -68l-20 -22l-66 68q-23 -23 -54 -35.5t-64 -12.5
q-69 0 -119 48l-65 -68zM92 328q0 -36 11.5 -66t31 -51t46 -33t55.5 -12t55.5 12t46 33t31 51t11.5 66t-11.5 66t-31 52t-46 34t-55.5 12t-55.5 -12t-46 -34t-31 -52t-11.5 -66z" />
    <glyph glyph-name="yen" unicode="&#xa5;" horiz-adv-x="472" 
d="M66 640l100 -202q17 -33 33.5 -66.5t34.5 -71.5h4q20 38 36 71.5t34 66.5l100 202h32l-178 -342h158v-28h-170v-74h170v-28h-170v-168h-30v168h-168v28h168v74h-168v28h156l-176 342h34z" />
    <glyph glyph-name="brokenbar" unicode="&#xa6;" horiz-adv-x="220" 
d="M96 750h28v-476h-28v476zM124 222v-472h-28v472h28z" />
    <glyph glyph-name="section" unicode="&#xa7;" horiz-adv-x="472" 
d="M309 176q19 9 34 18.5t25.5 21.5t16 28t5.5 38q0 43 -23.5 69.5t-58 45t-73.5 34.5t-70 37q-37 -20 -60 -44.5t-23 -65.5q0 -42 23.5 -67.5t58.5 -43.5t74 -33.5t71 -37.5zM354 606q-24 20 -50.5 33t-65.5 13q-27 0 -46 -7t-31 -19t-17.5 -26.5t-5.5 -29.5
q0 -35 21 -56.5t52 -38t68 -31t68 -34.5t52 -50t21 -76q0 -51 -24.5 -79t-62.5 -48q16 -16 25.5 -36.5t9.5 -48.5q0 -26 -11.5 -48t-30.5 -38t-43.5 -25t-50.5 -9q-51 0 -89 17t-67 43l22 22q26 -24 56 -39t78 -15t77 27t29 63t-21 58.5t-53 39t-69 31t-69 34.5t-53 48.5
t-21 74.5q0 49 26 79.5t64 51.5q-16 15 -25 35t-9 46q0 19 7.5 39t23.5 36.5t40.5 26.5t58.5 10q39 0 73 -14.5t61 -37.5z" />
    <glyph glyph-name="dieresis" unicode="&#xa8;" horiz-adv-x="532" 
d="M190 602q-14 0 -23 9t-9 23t9 23t23 9t23 -9t9 -23t-9 -23t-23 -9zM342 602q-14 0 -23 9t-9 23t9 23t23 9t23 -9t9 -23t-9 -23t-23 -9z" />
    <glyph glyph-name="copyright" unicode="&#xa9;" horiz-adv-x="740" 
d="M52 322q0 75 25.5 136t69 104t101 66.5t122.5 23.5q64 0 122 -23.5t101.5 -66.5t69 -104t25.5 -136q0 -76 -25.5 -137.5t-69 -105t-101.5 -67.5t-122 -24q-65 0 -122.5 24t-101 67.5t-69 105t-25.5 137.5zM82 322q0 -69 23.5 -126t63 -97.5t91.5 -62.5t110 -22t110 22
t91.5 62.5t63 97.5t23.5 126q0 68 -23.5 124t-63 96t-91.5 62t-110 22t-110 -22t-91.5 -62t-63 -96t-23.5 -124zM202 322q0 43 14.5 77.5t39 58.5t57 37t67.5 13q39 0 66.5 -15t51.5 -39l-18 -22q-24 23 -47 34.5t-55 11.5q-31 0 -57 -11t-45 -31.5t-29.5 -49.5t-10.5 -64
q0 -78 38.5 -123t101.5 -45q38 0 67 15t53 37l16 -22q-27 -25 -58 -42.5t-80 -17.5q-35 0 -66 13t-54.5 38.5t-37.5 62.5t-14 84z" />
    <glyph glyph-name="ordfeminine" unicode="&#xaa;" horiz-adv-x="334" 
d="M140 252q-42 0 -69 23t-27 67q0 52 50 79.5t158 38.5q0 20 -3 38t-11 31.5t-22 21t-36 7.5q-32 0 -62.5 -13t-47.5 -25l-12 22q18 12 51.5 27t72.5 15q57 0 77.5 -34t20.5 -88v-202h-22l-6 40h-4q-21 -18 -48 -33t-60 -15zM146 278q24 0 50.5 12.5t55.5 39.5v108
q-99 -11 -138.5 -34.5t-39.5 -59.5q0 -35 19.5 -50.5t52.5 -15.5z" />
    <glyph glyph-name="guillemotleft" unicode="&#xab;" horiz-adv-x="388" 
d="M42 238v28l138 164l20 -18l-124 -160l124 -162l-20 -16zM176 238v28l138 164l20 -18l-124 -160l124 -162l-20 -16z" />
    <glyph glyph-name="logicalnot" unicode="&#xac;" horiz-adv-x="472" 
d="M34 344h404v-232h-32v204h-372v28z" />
    <glyph glyph-name="uni00AD" unicode="&#xad;" horiz-adv-x="294" 
d="M40 264h216v-30h-216v30z" />
    <glyph glyph-name="registered" unicode="&#xae;" horiz-adv-x="392" 
d="M196 326q-37 0 -69.5 13.5t-57 39t-39 60.5t-14.5 79q0 43 14.5 79t39 61.5t57 39.5t69.5 14t69.5 -14t57 -39.5t39 -61.5t14.5 -79q0 -44 -14.5 -79t-39 -60.5t-57 -39t-69.5 -13.5zM196 352q31 0 59 12.5t48.5 34.5t32.5 52.5t12 66.5t-12 66.5t-32.5 53t-48.5 35.5
t-59 13q-32 0 -59.5 -13t-48 -35.5t-32.5 -53t-12 -66.5t12 -66.5t32.5 -52.5t48 -34.5t59.5 -12.5zM130 626h66q14 0 28 -3t24.5 -10.5t17 -19.5t6.5 -31q0 -20 -11.5 -35.5t-28.5 -20.5l50 -88h-34l-40 78h-50v-78h-28v208zM188 522q24 0 39 8.5t15 29.5q0 18 -10.5 29
t-39.5 11h-34v-78h30z" />
    <glyph glyph-name="macron" unicode="&#xaf;" horiz-adv-x="532" 
d="M156 636h220v-28h-220v28z" />
    <glyph glyph-name="degree" unicode="&#xb0;" horiz-adv-x="304" 
d="M152 454q-21 0 -41 7.5t-35 22.5t-24.5 36t-9.5 48q0 28 9.5 49.5t24.5 36.5t35 22.5t41 7.5t41 -7.5t35 -22.5t24.5 -36.5t9.5 -49.5q0 -27 -9.5 -48t-24.5 -36t-35 -22.5t-41 -7.5zM152 480q36 0 59 25t23 63q0 39 -23 64.5t-59 25.5t-59 -25.5t-23 -64.5q0 -38 23 -63
t59 -25z" />
    <glyph glyph-name="plusminus" unicode="&#xb1;" horiz-adv-x="472" 
d="M220 312h-186v28h186v208h32v-208h186v-28h-186v-210h-32v210zM34 28h404v-28h-404v28z" />
    <glyph glyph-name="two.sups" unicode="&#xb2;" horiz-adv-x="360" 
d="M58 460q52 49 89 85.5t61 66.5t35 55t11 51q0 45 -24.5 71.5t-65.5 26.5q-29 0 -53 -19t-41 -45l-20 18q17 29 48.5 50.5t67.5 21.5q53 0 85.5 -30t32.5 -92q0 -32 -13 -61t-36.5 -59t-56 -62.5t-72.5 -71.5h202v-26h-250v20z" />
    <glyph glyph-name="three.sups" unicode="&#xb3;" horiz-adv-x="360" 
d="M66 520q18 -29 47.5 -47.5t64.5 -18.5q39 0 67.5 23t28.5 65q0 41 -39 62.5t-105 21.5v24q62 0 95 26.5t33 61.5t-23.5 56.5t-64.5 21.5q-24 0 -48 -15t-44 -39l-20 18q20 26 49 44t65 18q48 0 82 -27t34 -75q0 -38 -22.5 -63t-55.5 -37q36 -6 65 -31t29 -67
q0 -54 -37 -84t-91 -30q-45 0 -79.5 22.5t-54.5 51.5z" />
    <glyph glyph-name="acute" unicode="&#xb4;" horiz-adv-x="532" 
d="M242 572h-28l92 134h40z" />
    <glyph glyph-name="uni00B5" unicode="&#xb5;" horiz-adv-x="532" 
d="M96 478h30v-304q0 -80 27 -119t89 -39q45 0 82 25t82 79v358h30v-478h-26l-4 82h-2q-36 -42 -75 -68t-89 -26q-39 0 -67 12t-49 48l2 -90v-158h-30v678z" />
    <glyph glyph-name="paragraph" unicode="&#xb6;" horiz-adv-x="498" 
d="M370 660h32v-740h-32v740zM290 250q-56 0 -101.5 11t-78 35.5t-50.5 63t-18 94.5q0 55 17 94.5t47 64t72.5 36t93.5 11.5h44v-410h-26z" />
    <glyph glyph-name="periodcentered" unicode="&#xb7;" horiz-adv-x="208" 
d="M68 322q0 20 11 30t25 10t25 -10t11 -30q0 -18 -11 -28t-25 -10t-25 10t-11 28z" />
    <glyph glyph-name="cedilla" unicode="&#xb8;" horiz-adv-x="532" 
d="M272 2h28l-30 -58q24 -8 42 -23t18 -45q0 -19 -10 -33t-26.5 -24t-38 -16t-43.5 -9l-6 26q42 6 68 18.5t26 33.5q0 24 -19.5 35t-48.5 19z" />
    <glyph glyph-name="one.sups" unicode="&#xb9;" horiz-adv-x="360" 
d="M178 770h-82v22q52 11 84 38h26v-390h-28v330z" />
    <glyph glyph-name="ordmasculine" unicode="&#xba;" horiz-adv-x="358" 
d="M178 252q-30 0 -56.5 11.5t-46 32.5t-30.5 52t-11 70q0 40 11 71t30.5 52t46 32t56.5 11t56 -11t45.5 -32t31 -52t11.5 -71q0 -39 -11.5 -70t-31 -52t-45.5 -32.5t-56 -11.5zM178 278q51 0 82.5 39t31.5 101q0 63 -31.5 101.5t-82.5 38.5t-82.5 -38.5t-31.5 -101.5
q0 -62 31.5 -101t82.5 -39z" />
    <glyph glyph-name="guillemotright" unicode="&#xbb;" horiz-adv-x="388" 
d="M178 252l-124 160l20 18l138 -164v-28l-138 -164l-20 16zM312 252l-124 160l20 18l138 -164v-28l-138 -164l-20 16z" />
    <glyph glyph-name="onequarter" unicode="&#xbc;" horiz-adv-x="758" 
d="M159 600h-82v22q52 11 84 38h26v-390h-28v330zM176 -12l370 684h32l-370 -684h-32zM622 144v94l4 102h-4l-58 -84l-78 -112h136zM708 118h-58v-118h-28v118h-176v16l182 256h22v-246h58v-26z" />
    <glyph glyph-name="onehalf" unicode="&#xbd;" horiz-adv-x="778" 
d="M159 600h-82v22q52 11 84 38h26v-390h-28v330zM152 -12l370 684h32l-370 -684h-32zM476 20q52 49 89 85.5t61 66.5t35 55t11 51q0 45 -24.5 71.5t-65.5 26.5q-29 0 -53 -19t-41 -45l-20 18q17 29 48.5 50.5t67.5 21.5q53 0 85.5 -30t32.5 -92q0 -32 -13 -61t-36.5 -59
t-56 -62.5t-72.5 -71.5h202v-26h-250v20z" />
    <glyph glyph-name="threequarters" unicode="&#xbe;" horiz-adv-x="778" 
d="M66 350q18 -29 47.5 -47.5t64.5 -18.5q39 0 67.5 23t28.5 65q0 41 -39 62.5t-105 21.5v24q62 0 95 26.5t33 61.5t-23.5 56.5t-64.5 21.5q-24 0 -48 -15t-44 -39l-20 18q20 26 49 44t65 18q48 0 82 -27t34 -75q0 -38 -22.5 -63t-55.5 -37q36 -6 65 -31t29 -67
q0 -54 -37 -84t-91 -30q-45 0 -79.5 22.5t-54.5 51.5zM226 -12l370 684h32l-370 -684h-32zM642 144v94l4 102h-4l-58 -84l-78 -112h136zM728 118h-58v-118h-28v118h-176v16l182 256h22v-246h58v-26z" />
    <glyph glyph-name="questiondown" unicode="&#xbf;" horiz-adv-x="394" 
d="M230 306q5 -42 -3.5 -76.5t-24.5 -63t-36.5 -54.5t-38.5 -51.5t-30.5 -53t-12.5 -59.5q0 -24 7 -46.5t21.5 -39.5t37 -27.5t54.5 -10.5q38 0 73 17t61 49l20 -18q-29 -32 -67 -54t-89 -22q-36 0 -64 12t-47 32.5t-29 47.5t-10 58q0 35 12.5 64t31 56t39 53t37.5 54.5
t26 61t4 71.5h28zM248 452q0 -20 -11 -30t-25 -10t-25 10t-11 30q0 18 11 28t25 10t25 -10t11 -28z" />
    <glyph glyph-name="Agrave" unicode="&#xc0;" horiz-adv-x="512" 
d="M380 264l-46 132q-21 60 -39.5 114t-36.5 116h-4q-18 -62 -36.5 -116t-39.5 -114l-47 -132h249zM390 236h-269l-83 -236h-32l236 660h28l236 -660h-34zM150 814h44l94 -104h-30z" />
    <glyph glyph-name="Aacute" unicode="&#xc1;" horiz-adv-x="512" 
d="M380 264l-46 132q-21 60 -39.5 114t-36.5 116h-4q-18 -62 -36.5 -116t-39.5 -114l-47 -132h249zM390 236h-269l-83 -236h-32l236 660h28l236 -660h-34zM254 710h-30l94 104h44z" />
    <glyph glyph-name="Acircumflex" unicode="&#xc2;" horiz-adv-x="512" 
d="M380 264l-46 132q-21 60 -39.5 114t-36.5 116h-4q-18 -62 -36.5 -116t-39.5 -114l-47 -132h249zM390 236h-269l-83 -236h-32l236 660h28l236 -660h-34zM146 710l96 104h28l96 -104h-30l-78 74h-4l-78 -74h-30z" />
    <glyph glyph-name="Atilde" unicode="&#xc3;" horiz-adv-x="512" 
d="M380 264l-46 132q-21 60 -39.5 114t-36.5 116h-4q-18 -62 -36.5 -116t-39.5 -114l-47 -132h249zM390 236h-269l-83 -236h-32l236 660h28l236 -660h-34zM314 718q-20 0 -34.5 9t-28 20t-26.5 20t-29 9q-17 0 -28 -16t-14 -42h-22q1 14 5 29.5t12 28t20 20.5t29 8
q19 0 34 -9t28.5 -20t26.5 -20t29 -9q17 0 28 16t14 42h22q-1 -14 -5 -29.5t-12 -28t-20.5 -20.5t-28.5 -8z" />
    <glyph glyph-name="Adieresis" unicode="&#xc4;" horiz-adv-x="512" 
d="M380 264l-46 132q-21 60 -39.5 114t-36.5 116h-4q-18 -62 -36.5 -116t-39.5 -114l-47 -132h249zM390 236h-269l-83 -236h-32l236 660h28l236 -660h-34zM180 728q-14 0 -23 8.5t-9 23.5t9 23.5t23 8.5t23 -8.5t9 -23.5t-9 -23.5t-23 -8.5zM332 728q-14 0 -23 8.5t-9 23.5
t9 23.5t23 8.5t23 -8.5t9 -23.5t-9 -23.5t-23 -8.5z" />
    <glyph glyph-name="Aring" unicode="&#xc5;" horiz-adv-x="512" 
d="M380 264l-46 132q-21 60 -39.5 114t-36.5 116h-4q-18 -62 -36.5 -116t-39.5 -114l-47 -132h249zM390 236h-269l-83 -236h-32l236 660h28l236 -660h-34zM256 700q-33 0 -55.5 22t-22.5 58t22.5 58t55.5 22q32 0 55 -22t23 -58t-23 -58t-55 -22zM256 722q21 0 36.5 14.5
t15.5 43.5q0 27 -15.5 42.5t-36.5 15.5q-23 0 -38.5 -15.5t-15.5 -42.5q0 -29 15.5 -43.5t38.5 -14.5z" />
    <glyph glyph-name="AE" unicode="&#xc6;" horiz-adv-x="796" 
d="M410 254v376h-4q-32 -57 -65.5 -116.5t-66.5 -121.5l-77 -138h213zM754 28v-28h-344v226h-229l-127 -226h-32l372 660h350v-28h-302v-266h250v-28h-250v-310h312z" />
    <glyph glyph-name="Ccedilla" unicode="&#xc7;" horiz-adv-x="554" 
d="M52 332q0 78 20 141t56 107t87.5 68t114.5 24q57 0 99.5 -24t68.5 -54l-20 -22q-27 32 -64 51t-84 19q-57 0 -102.5 -21.5t-77 -62t-48 -98t-16.5 -128.5t16.5 -129t48 -99t75.5 -63.5t100 -22.5q53 0 93.5 21t78.5 63l20 -20q-38 -44 -83.5 -69t-110.5 -25
q-61 0 -111 24.5t-86 69.5t-55.5 108.5t-19.5 141.5zM330 2h28l-30 -58q24 -8 42 -23t18 -45q0 -19 -10 -33t-26.5 -24t-38 -16t-43.5 -9l-6 26q42 6 68 18.5t26 33.5q0 24 -19.5 35t-48.5 19z" />
    <glyph glyph-name="Egrave" unicode="&#xc8;" horiz-adv-x="502" 
d="M96 660h354v-28h-322v-266h270v-28h-270v-310h332v-28h-364v660zM171 814h44l94 -104h-30z" />
    <glyph glyph-name="Eacute" unicode="&#xc9;" horiz-adv-x="502" 
d="M96 660h354v-28h-322v-266h270v-28h-270v-310h332v-28h-364v660zM275 710h-30l94 104h44z" />
    <glyph glyph-name="Ecircumflex" unicode="&#xca;" horiz-adv-x="502" 
d="M96 660h354v-28h-322v-266h270v-28h-270v-310h332v-28h-364v660zM167 710l96 104h28l96 -104h-30l-78 74h-4l-78 -74h-30z" />
    <glyph glyph-name="Edieresis" unicode="&#xcb;" horiz-adv-x="502" 
d="M96 660h354v-28h-322v-266h270v-28h-270v-310h332v-28h-364v660zM201 728q-14 0 -23 8.5t-9 23.5t9 23.5t23 8.5t23 -8.5t9 -23.5t-9 -23.5t-23 -8.5zM353 728q-14 0 -23 8.5t-9 23.5t9 23.5t23 8.5t23 -8.5t9 -23.5t-9 -23.5t-23 -8.5z" />
    <glyph glyph-name="Igrave" unicode="&#xcc;" horiz-adv-x="224" 
d="M96 660h32v-660h-32v660zM6 814h44l94 -104h-30z" />
    <glyph glyph-name="Iacute" unicode="&#xcd;" horiz-adv-x="224" 
d="M96 660h32v-660h-32v660zM110 710h-30l94 104h44z" />
    <glyph glyph-name="Icircumflex" unicode="&#xce;" horiz-adv-x="224" 
d="M96 660h32v-660h-32v660zM2 710l96 104h28l96 -104h-30l-78 74h-4l-78 -74h-30z" />
    <glyph glyph-name="Idieresis" unicode="&#xcf;" horiz-adv-x="224" 
d="M96 660h32v-660h-32v660zM36 728q-14 0 -23 8.5t-9 23.5t9 23.5t23 8.5t23 -8.5t9 -23.5t-9 -23.5t-23 -8.5zM188 728q-14 0 -23 8.5t-9 23.5t9 23.5t23 8.5t23 -8.5t9 -23.5t-9 -23.5t-23 -8.5z" />
    <glyph glyph-name="Eth" unicode="&#xd0;" horiz-adv-x="610" 
d="M256 28q70 0 120.5 23t83 63.5t47.5 96.5t15 121t-15 120t-47.5 95t-83 62.5t-120.5 22.5h-112v-268h172v-28h-172v-308h112zM260 660q76 0 132 -23.5t92.5 -67t54 -104t17.5 -133.5q0 -74 -17.5 -135t-54 -104.5t-92.5 -68t-132 -24.5h-148v336h-78v26l78 2v296h148z
" />
    <glyph glyph-name="Ntilde" unicode="&#xd1;" horiz-adv-x="624" 
d="M96 660h34l292 -484l76 -130h4q-2 48 -3 93.5t-1 92.5v428h30v-660h-34l-292 484l-76 130h-4q2 -47 3 -90t1 -90v-434h-30v660zM375 718q-20 0 -34.5 9t-28 20t-26.5 20t-29 9q-17 0 -28 -16t-14 -42h-22q1 14 5 29.5t12 28t20 20.5t29 8q19 0 34 -9t28.5 -20t26.5 -20
t29 -9q17 0 28 16t14 42h22q-1 -14 -5 -29.5t-12 -28t-20.5 -20.5t-28.5 -8z" />
    <glyph glyph-name="Ograve" unicode="&#xd2;" horiz-adv-x="640" 
d="M320 -12q-59 0 -108 24.5t-84.5 69.5t-55.5 108.5t-20 141.5t20 141t55.5 107t84.5 68t108 24q58 0 107.5 -24t85 -68t55.5 -107t20 -141t-20 -141.5t-55.5 -108.5t-85 -69.5t-107.5 -24.5zM320 18q52 0 95.5 22.5t74 63.5t47.5 99t17 129t-17 128.5t-47.5 98t-74 62
t-95.5 21.5q-53 0 -96 -21.5t-73.5 -62t-47.5 -98t-17 -128.5t17 -129t47.5 -99t73.5 -63.5t96 -22.5zM214 814h44l94 -104h-30z" />
    <glyph glyph-name="Oacute" unicode="&#xd3;" horiz-adv-x="640" 
d="M320 -12q-59 0 -108 24.5t-84.5 69.5t-55.5 108.5t-20 141.5t20 141t55.5 107t84.5 68t108 24q58 0 107.5 -24t85 -68t55.5 -107t20 -141t-20 -141.5t-55.5 -108.5t-85 -69.5t-107.5 -24.5zM320 18q52 0 95.5 22.5t74 63.5t47.5 99t17 129t-17 128.5t-47.5 98t-74 62
t-95.5 21.5q-53 0 -96 -21.5t-73.5 -62t-47.5 -98t-17 -128.5t17 -129t47.5 -99t73.5 -63.5t96 -22.5zM318 710h-30l94 104h44z" />
    <glyph glyph-name="Ocircumflex" unicode="&#xd4;" horiz-adv-x="640" 
d="M320 -12q-59 0 -108 24.5t-84.5 69.5t-55.5 108.5t-20 141.5t20 141t55.5 107t84.5 68t108 24q58 0 107.5 -24t85 -68t55.5 -107t20 -141t-20 -141.5t-55.5 -108.5t-85 -69.5t-107.5 -24.5zM320 18q52 0 95.5 22.5t74 63.5t47.5 99t17 129t-17 128.5t-47.5 98t-74 62
t-95.5 21.5q-53 0 -96 -21.5t-73.5 -62t-47.5 -98t-17 -128.5t17 -129t47.5 -99t73.5 -63.5t96 -22.5zM210 710l96 104h28l96 -104h-30l-78 74h-4l-78 -74h-30z" />
    <glyph glyph-name="Otilde" unicode="&#xd5;" horiz-adv-x="640" 
d="M320 -12q-59 0 -108 24.5t-84.5 69.5t-55.5 108.5t-20 141.5t20 141t55.5 107t84.5 68t108 24q58 0 107.5 -24t85 -68t55.5 -107t20 -141t-20 -141.5t-55.5 -108.5t-85 -69.5t-107.5 -24.5zM320 18q52 0 95.5 22.5t74 63.5t47.5 99t17 129t-17 128.5t-47.5 98t-74 62
t-95.5 21.5q-53 0 -96 -21.5t-73.5 -62t-47.5 -98t-17 -128.5t17 -129t47.5 -99t73.5 -63.5t96 -22.5zM378 718q-20 0 -34.5 9t-28 20t-26.5 20t-29 9q-17 0 -28 -16t-14 -42h-22q1 14 5 29.5t12 28t20 20.5t29 8q19 0 34 -9t28.5 -20t26.5 -20t29 -9q17 0 28 16t14 42h22
q-1 -14 -5 -29.5t-12 -28t-20.5 -20.5t-28.5 -8z" />
    <glyph glyph-name="Odieresis" unicode="&#xd6;" horiz-adv-x="640" 
d="M320 -12q-59 0 -108 24.5t-84.5 69.5t-55.5 108.5t-20 141.5t20 141t55.5 107t84.5 68t108 24q58 0 107.5 -24t85 -68t55.5 -107t20 -141t-20 -141.5t-55.5 -108.5t-85 -69.5t-107.5 -24.5zM320 18q52 0 95.5 22.5t74 63.5t47.5 99t17 129t-17 128.5t-47.5 98t-74 62
t-95.5 21.5q-53 0 -96 -21.5t-73.5 -62t-47.5 -98t-17 -128.5t17 -129t47.5 -99t73.5 -63.5t96 -22.5zM244 728q-14 0 -23 8.5t-9 23.5t9 23.5t23 8.5t23 -8.5t9 -23.5t-9 -23.5t-23 -8.5zM396 728q-14 0 -23 8.5t-9 23.5t9 23.5t23 8.5t23 -8.5t9 -23.5t-9 -23.5t-23 -8.5z
" />
    <glyph glyph-name="multiply" unicode="&#xd7;" horiz-adv-x="472" 
d="M52 160l164 170l-164 170l20 22l164 -172l164 172l20 -22l-164 -170l164 -170l-20 -22l-164 172l-164 -172z" />
    <glyph glyph-name="Oslash" unicode="&#xd8;" horiz-adv-x="640" 
d="M159 93q31 -36 71.5 -55.5t89.5 -19.5q52 0 95.5 22.5t74 63.5t47.5 99t17 129q0 67 -15 121.5t-42 95.5zM479 571q-62 71 -159 71q-53 0 -96 -21.5t-73.5 -62t-47.5 -98t-17 -128.5q0 -66 14.5 -121t41.5 -96zM516 575q34 -45 53 -106t19 -137q0 -78 -20 -141.5
t-55.5 -108.5t-85 -69.5t-107.5 -24.5q-54 0 -99.5 20.5t-80.5 58.5l-64 -87l-22 16l68 93q-33 45 -51.5 106.5t-18.5 136.5q0 78 20 141t55.5 107t84.5 68t108 24q53 0 98 -19.5t80 -56.5l62 84l22 -16z" />
    <glyph glyph-name="Ugrave" unicode="&#xd9;" horiz-adv-x="622" 
d="M94 660h32v-406q0 -68 15 -113.5t40.5 -72.5t59 -38.5t69.5 -11.5q37 0 71 11.5t60 38.5t41.5 72.5t15.5 113.5v406h30v-414q0 -77 -19 -126.5t-50 -79t-70 -41t-79 -11.5t-78.5 11.5t-69 41t-49.5 79t-19 126.5v414zM205 814h44l94 -104h-30z" />
    <glyph glyph-name="Uacute" unicode="&#xda;" horiz-adv-x="622" 
d="M94 660h32v-406q0 -68 15 -113.5t40.5 -72.5t59 -38.5t69.5 -11.5q37 0 71 11.5t60 38.5t41.5 72.5t15.5 113.5v406h30v-414q0 -77 -19 -126.5t-50 -79t-70 -41t-79 -11.5t-78.5 11.5t-69 41t-49.5 79t-19 126.5v414zM309 710h-30l94 104h44z" />
    <glyph glyph-name="Ucircumflex" unicode="&#xdb;" horiz-adv-x="622" 
d="M94 660h32v-406q0 -68 15 -113.5t40.5 -72.5t59 -38.5t69.5 -11.5q37 0 71 11.5t60 38.5t41.5 72.5t15.5 113.5v406h30v-414q0 -77 -19 -126.5t-50 -79t-70 -41t-79 -11.5t-78.5 11.5t-69 41t-49.5 79t-19 126.5v414zM201 710l96 104h28l96 -104h-30l-78 74h-4l-78 -74
h-30z" />
    <glyph glyph-name="Udieresis" unicode="&#xdc;" horiz-adv-x="622" 
d="M94 660h32v-406q0 -68 15 -113.5t40.5 -72.5t59 -38.5t69.5 -11.5q37 0 71 11.5t60 38.5t41.5 72.5t15.5 113.5v406h30v-414q0 -77 -19 -126.5t-50 -79t-70 -41t-79 -11.5t-78.5 11.5t-69 41t-49.5 79t-19 126.5v414zM235 728q-14 0 -23 8.5t-9 23.5t9 23.5t23 8.5
t23 -8.5t9 -23.5t-9 -23.5t-23 -8.5zM387 728q-14 0 -23 8.5t-9 23.5t9 23.5t23 8.5t23 -8.5t9 -23.5t-9 -23.5t-23 -8.5z" />
    <glyph glyph-name="Yacute" unicode="&#xdd;" horiz-adv-x="428" 
d="M198 272l-198 388h34l106 -214q18 -36 35 -71t37 -71h4q20 36 38.5 71t35.5 71l106 214h32l-198 -388v-272h-32v272zM212 710h-30l94 104h44z" />
    <glyph glyph-name="Thorn" unicode="&#xde;" horiz-adv-x="554" 
d="M96 660h32v-120h140q111 0 171.5 -40.5t60.5 -139.5q0 -95 -60 -141.5t-172 -46.5h-140v-172h-32v660zM256 200q107 0 158.5 37t51.5 123q0 87 -52 119.5t-158 32.5h-128v-312h128z" />
    <glyph glyph-name="germandbls" unicode="&#xdf;" horiz-adv-x="530" 
d="M96 538q0 92 45 143t117 51q30 0 54 -10t41 -27.5t26 -41t9 -51.5q0 -39 -16 -67t-35 -52.5t-35 -49t-16 -55.5q0 -30 16 -49t39.5 -33t51.5 -27t51.5 -31t39.5 -45t16 -69q0 -29 -10.5 -54t-29.5 -43t-44.5 -28.5t-55.5 -10.5q-39 0 -73 14t-61 38l18 24q29 -24 56 -36
t60 -12q27 0 47 9t33.5 24t20.5 34t7 39q0 37 -16 60t-39.5 39t-51.5 28.5t-51.5 28.5t-39.5 38.5t-16 59.5t16 64t35 51t35 49t16 60q0 45 -25 74.5t-75 29.5q-59 0 -94.5 -43.5t-35.5 -136.5v-524h-30v538z" />
    <glyph glyph-name="agrave" unicode="&#xe0;" horiz-adv-x="494" 
d="M68 117q0 80 76 121.5t238 59.5q1 29 -3.5 58.5t-17.5 53t-36.5 38t-60.5 14.5q-26 0 -49 -5.5t-43 -14.5t-36.5 -19t-27.5 -19l-16 24q11 8 28.5 19t40 20.5t49.5 16t56 6.5q42 0 70 -14.5t45 -39.5t24 -57.5t7 -68.5v-310h-26l-4 64h-2q-38 -30 -82 -53t-92 -23
q-28 0 -53 7.5t-44 23t-30 40t-11 58.5zM100 118q0 -28 8.5 -47.5t23.5 -31.5t34.5 -17.5t41.5 -5.5q44 0 85 20.5t89 61.5v174q-79 -9 -133 -22.5t-87 -32.5t-47.5 -43.5t-14.5 -55.5zM180 706h40l92 -134h-28z" />
    <glyph glyph-name="aacute" unicode="&#xe1;" horiz-adv-x="494" 
d="M68 117q0 80 76 121.5t238 59.5q1 29 -3.5 58.5t-17.5 53t-36.5 38t-60.5 14.5q-26 0 -49 -5.5t-43 -14.5t-36.5 -19t-27.5 -19l-16 24q11 8 28.5 19t40 20.5t49.5 16t56 6.5q42 0 70 -14.5t45 -39.5t24 -57.5t7 -68.5v-310h-26l-4 64h-2q-38 -30 -82 -53t-92 -23
q-28 0 -53 7.5t-44 23t-30 40t-11 58.5zM100 118q0 -28 8.5 -47.5t23.5 -31.5t34.5 -17.5t41.5 -5.5q44 0 85 20.5t89 61.5v174q-79 -9 -133 -22.5t-87 -32.5t-47.5 -43.5t-14.5 -55.5zM236 572h-28l92 134h40z" />
    <glyph glyph-name="acircumflex" unicode="&#xe2;" horiz-adv-x="494" 
d="M68 117q0 80 76 121.5t238 59.5q1 29 -3.5 58.5t-17.5 53t-36.5 38t-60.5 14.5q-26 0 -49 -5.5t-43 -14.5t-36.5 -19t-27.5 -19l-16 24q11 8 28.5 19t40 20.5t49.5 16t56 6.5q42 0 70 -14.5t45 -39.5t24 -57.5t7 -68.5v-310h-26l-4 64h-2q-38 -30 -82 -53t-92 -23
q-28 0 -53 7.5t-44 23t-30 40t-11 58.5zM100 118q0 -28 8.5 -47.5t23.5 -31.5t34.5 -17.5t41.5 -5.5q44 0 85 20.5t89 61.5v174q-79 -9 -133 -22.5t-87 -32.5t-47.5 -43.5t-14.5 -55.5zM246 706h28l94 -134h-28l-78 102h-4l-78 -102h-28z" />
    <glyph glyph-name="atilde" unicode="&#xe3;" horiz-adv-x="494" 
d="M68 117q0 80 76 121.5t238 59.5q1 29 -3.5 58.5t-17.5 53t-36.5 38t-60.5 14.5q-26 0 -49 -5.5t-43 -14.5t-36.5 -19t-27.5 -19l-16 24q11 8 28.5 19t40 20.5t49.5 16t56 6.5q42 0 70 -14.5t45 -39.5t24 -57.5t7 -68.5v-310h-26l-4 64h-2q-38 -30 -82 -53t-92 -23
q-28 0 -53 7.5t-44 23t-30 40t-11 58.5zM100 118q0 -28 8.5 -47.5t23.5 -31.5t34.5 -17.5t41.5 -5.5q44 0 85 20.5t89 61.5v174q-79 -9 -133 -22.5t-87 -32.5t-47.5 -43.5t-14.5 -55.5zM142 582q1 13 4.5 27.5t11 26.5t19 20t29.5 8t32.5 -9t27.5 -19.5t25 -19t25 -8.5
q17 0 26 15t12 41h24q-1 -13 -4.5 -27.5t-11 -26.5t-19 -20t-29.5 -8t-32 8.5t-27 19t-25 19.5t-26 9q-17 0 -26 -15t-12 -41h-24v0z" />
    <glyph glyph-name="adieresis" unicode="&#xe4;" horiz-adv-x="494" 
d="M68 117q0 80 76 121.5t238 59.5q1 29 -3.5 58.5t-17.5 53t-36.5 38t-60.5 14.5q-26 0 -49 -5.5t-43 -14.5t-36.5 -19t-27.5 -19l-16 24q11 8 28.5 19t40 20.5t49.5 16t56 6.5q42 0 70 -14.5t45 -39.5t24 -57.5t7 -68.5v-310h-26l-4 64h-2q-38 -30 -82 -53t-92 -23
q-28 0 -53 7.5t-44 23t-30 40t-11 58.5zM100 118q0 -28 8.5 -47.5t23.5 -31.5t34.5 -17.5t41.5 -5.5q44 0 85 20.5t89 61.5v174q-79 -9 -133 -22.5t-87 -32.5t-47.5 -43.5t-14.5 -55.5zM184 602q-14 0 -23 9t-9 23t9 23t23 9t23 -9t9 -23t-9 -23t-23 -9zM336 602
q-14 0 -23 9t-9 23t9 23t23 9t23 -9t9 -23t-9 -23t-23 -9z" />
    <glyph glyph-name="aring" unicode="&#xe5;" horiz-adv-x="494" 
d="M68 117q0 80 76 121.5t238 59.5q1 29 -3.5 58.5t-17.5 53t-36.5 38t-60.5 14.5q-26 0 -49 -5.5t-43 -14.5t-36.5 -19t-27.5 -19l-16 24q11 8 28.5 19t40 20.5t49.5 16t56 6.5q42 0 70 -14.5t45 -39.5t24 -57.5t7 -68.5v-310h-26l-4 64h-2q-38 -30 -82 -53t-92 -23
q-28 0 -53 7.5t-44 23t-30 40t-11 58.5zM100 118q0 -28 8.5 -47.5t23.5 -31.5t34.5 -17.5t41.5 -5.5q44 0 85 20.5t89 61.5v174q-79 -9 -133 -22.5t-87 -32.5t-47.5 -43.5t-14.5 -55.5zM260 538q-33 0 -55.5 23t-22.5 61t22.5 61t55.5 23t55.5 -23t22.5 -61t-22.5 -61
t-55.5 -23zM260 560q23 0 38.5 16.5t15.5 45.5t-15.5 45.5t-38.5 16.5t-38.5 -16.5t-15.5 -45.5t15.5 -45.5t38.5 -16.5z" />
    <glyph glyph-name="ae" unicode="&#xe6;" horiz-adv-x="784" 
d="M100 118q0 -28 8.5 -47.5t23.5 -31.5t34.5 -17.5t41.5 -5.5q41 0 93.5 26t96.5 74q-11 23 -16.5 57.5t-5.5 70.5v28q-75 -9 -127.5 -22.5t-85.5 -32.5t-48 -43.5t-15 -55.5zM92 428q11 8 28.5 19t39.5 20.5t47.5 16t52.5 6.5q60 0 94.5 -34.5t45.5 -91.5q26 57 71 91.5
t99 34.5q83 0 129.5 -56.5t46.5 -163.5v-15.5t-2 -16.5h-338q-1 -48 12.5 -88.5t37.5 -70.5t57 -46.5t71 -16.5q41 0 71 12t57 32l14 -26q-14 -8 -28 -16.5t-30.5 -15t-37.5 -10.5t-48 -4q-33 0 -59 9t-47 23.5t-37 32.5t-29 37q-23 -23 -49.5 -42t-53.5 -32.5t-53 -20.5
t-48 -7q-28 0 -53 7.5t-44 23t-30 39.5t-11 58q0 81 76 122.5t232 59.5q1 29 -3.5 58.5t-17.5 53t-36.5 38t-60.5 14.5q-23 0 -45.5 -5.5t-42 -14.5t-35.5 -19t-27 -19zM716 264q0 100 -39 149t-107 49q-32 0 -60 -14.5t-50 -41t-36 -63t-18 -79.5h310z" />
    <glyph glyph-name="ccedilla" unicode="&#xe7;" horiz-adv-x="446" 
d="M54 238q0 60 17.5 107t47 79t68 49t81.5 17q50 0 83 -18.5t57 -41.5l-20 -22q-24 23 -53 38.5t-67 15.5t-71.5 -16.5t-58 -46t-38.5 -71t-14 -90.5q0 -50 13 -90.5t37 -70t57.5 -45.5t74.5 -16t74.5 17t59.5 41l18 -22q-30 -27 -67.5 -45.5t-84.5 -18.5q-46 0 -85 17
t-67.5 49t-45 78.5t-16.5 105.5zM259 2h28l-30 -58q24 -8 42 -23t18 -45q0 -19 -10 -33t-26.5 -24t-38 -16t-43.5 -9l-6 26q42 6 68 18.5t26 33.5q0 24 -19.5 35t-48.5 19z" />
    <glyph glyph-name="egrave" unicode="&#xe8;" horiz-adv-x="478" 
d="M54 238q0 58 17.5 105t46 79.5t65.5 50t77 17.5q83 0 131.5 -56.5t48.5 -163.5v-15.5t-2 -16.5h-352q0 -48 13.5 -88.5t38 -70.5t59 -46.5t77.5 -16.5q41 0 73 12t59 32l14 -26q-27 -17 -60.5 -31.5t-87.5 -14.5q-45 0 -84.5 17t-69.5 49.5t-47 78.5t-17 105zM410 264
q0 100 -41 149t-109 49q-32 0 -62 -14t-53.5 -39.5t-39 -62t-19.5 -82.5h324zM180 706h40l92 -134h-28z" />
    <glyph glyph-name="eacute" unicode="&#xe9;" horiz-adv-x="478" 
d="M54 238q0 58 17.5 105t46 79.5t65.5 50t77 17.5q83 0 131.5 -56.5t48.5 -163.5v-15.5t-2 -16.5h-352q0 -48 13.5 -88.5t38 -70.5t59 -46.5t77.5 -16.5q41 0 73 12t59 32l14 -26q-27 -17 -60.5 -31.5t-87.5 -14.5q-45 0 -84.5 17t-69.5 49.5t-47 78.5t-17 105zM410 264
q0 100 -41 149t-109 49q-32 0 -62 -14t-53.5 -39.5t-39 -62t-19.5 -82.5h324zM236 572h-28l92 134h40z" />
    <glyph glyph-name="ecircumflex" unicode="&#xea;" horiz-adv-x="478" 
d="M54 238q0 58 17.5 105t46 79.5t65.5 50t77 17.5q83 0 131.5 -56.5t48.5 -163.5v-15.5t-2 -16.5h-352q0 -48 13.5 -88.5t38 -70.5t59 -46.5t77.5 -16.5q41 0 73 12t59 32l14 -26q-27 -17 -60.5 -31.5t-87.5 -14.5q-45 0 -84.5 17t-69.5 49.5t-47 78.5t-17 105zM410 264
q0 100 -41 149t-109 49q-32 0 -62 -14t-53.5 -39.5t-39 -62t-19.5 -82.5h324zM246 706h28l94 -134h-28l-78 102h-4l-78 -102h-28z" />
    <glyph glyph-name="edieresis" unicode="&#xeb;" horiz-adv-x="478" 
d="M54 238q0 58 17.5 105t46 79.5t65.5 50t77 17.5q83 0 131.5 -56.5t48.5 -163.5v-15.5t-2 -16.5h-352q0 -48 13.5 -88.5t38 -70.5t59 -46.5t77.5 -16.5q41 0 73 12t59 32l14 -26q-27 -17 -60.5 -31.5t-87.5 -14.5q-45 0 -84.5 17t-69.5 49.5t-47 78.5t-17 105zM410 264
q0 100 -41 149t-109 49q-32 0 -62 -14t-53.5 -39.5t-39 -62t-19.5 -82.5h324zM184 602q-14 0 -23 9t-9 23t9 23t23 9t23 -9t9 -23t-9 -23t-23 -9zM336 602q-14 0 -23 9t-9 23t9 23t23 9t23 -9t9 -23t-9 -23t-23 -9z" />
    <glyph glyph-name="igrave" unicode="&#xec;" horiz-adv-x="222" 
d="M96 478h30v-478h-30v478zM31 706h40l92 -134h-28z" />
    <glyph glyph-name="iacute" unicode="&#xed;" horiz-adv-x="222" 
d="M96 478h30v-478h-30v478zM87 572h-28l92 134h40z" />
    <glyph glyph-name="icircumflex" unicode="&#xee;" horiz-adv-x="222" 
d="M96 478h30v-478h-30v478zM97 706h28l94 -134h-28l-78 102h-4l-78 -102h-28z" />
    <glyph glyph-name="idieresis" unicode="&#xef;" horiz-adv-x="222" 
d="M96 478h30v-478h-30v478zM35 602q-14 0 -23 9t-9 23t9 23t23 9t23 -9t9 -23t-9 -23t-23 -9zM187 602q-14 0 -23 9t-9 23t9 23t23 9t23 -9t9 -23t-9 -23t-23 -9z" />
    <glyph glyph-name="eth" unicode="&#xf0;" horiz-adv-x="532" 
d="M266 16q43 0 74.5 18.5t52 50.5t30 74.5t9.5 90.5q0 35 -3 65q-20 30 -40.5 49t-41 29.5t-40.5 14.5t-39 4q-43 0 -75.5 -16t-54.5 -43t-33 -62t-11 -73q0 -44 13.5 -81t37 -64t55 -42t66.5 -15zM329 607q60 -61 97.5 -147t37.5 -210q0 -60 -14.5 -108.5t-41 -82.5
t-63 -52.5t-79.5 -18.5q-39 0 -76 15.5t-65.5 45.5t-45.5 72.5t-17 96.5q0 49 15 89.5t42 70t65.5 46t85.5 16.5q91 0 153 -79q-14 78 -45 134t-75 99l-141 -74l-12 22l133 70q-29 26 -61 47t-66 41l16 22q37 -20 71.5 -43.5t66.5 -52.5l142 74l12 -22z" />
    <glyph glyph-name="ntilde" unicode="&#xf1;" horiz-adv-x="526" 
d="M96 478h26l4 -76h2q38 38 77 63t89 25q74 0 109 -44t35 -138v-308h-30v304q0 80 -27 119t-89 39q-45 0 -82.5 -24t-83.5 -72v-366h-30v478zM161 582q1 13 4.5 27.5t11 26.5t19 20t29.5 8t32.5 -9t27.5 -19.5t25 -19t25 -8.5q17 0 26 15t12 41h24q-1 -13 -4.5 -27.5
t-11 -26.5t-19 -20t-29.5 -8t-32 8.5t-27 19t-25 19.5t-26 9q-17 0 -26 -15t-12 -41h-24v0z" />
    <glyph glyph-name="ograve" unicode="&#xf2;" horiz-adv-x="532" 
d="M54 238q0 60 17 107t46 79t67.5 49t81.5 17t81.5 -17t67.5 -49t46 -79t17 -107q0 -59 -17 -105.5t-46 -78.5t-67.5 -49t-81.5 -17t-81.5 17t-67.5 49t-46 78.5t-17 105.5zM86 238q0 -50 14 -90.5t38 -70t57 -45.5t71 -16t71 16t57 45.5t38 70t14 90.5q0 49 -14 90.5
t-38 71t-57 46t-71 16.5t-71 -16.5t-57 -46t-38 -71t-14 -90.5zM186 706h40l92 -134h-28z" />
    <glyph glyph-name="oacute" unicode="&#xf3;" horiz-adv-x="532" 
d="M54 238q0 60 17 107t46 79t67.5 49t81.5 17t81.5 -17t67.5 -49t46 -79t17 -107q0 -59 -17 -105.5t-46 -78.5t-67.5 -49t-81.5 -17t-81.5 17t-67.5 49t-46 78.5t-17 105.5zM86 238q0 -50 14 -90.5t38 -70t57 -45.5t71 -16t71 16t57 45.5t38 70t14 90.5q0 49 -14 90.5
t-38 71t-57 46t-71 16.5t-71 -16.5t-57 -46t-38 -71t-14 -90.5zM242 572h-28l92 134h40z" />
    <glyph glyph-name="ocircumflex" unicode="&#xf4;" horiz-adv-x="532" 
d="M54 238q0 60 17 107t46 79t67.5 49t81.5 17t81.5 -17t67.5 -49t46 -79t17 -107q0 -59 -17 -105.5t-46 -78.5t-67.5 -49t-81.5 -17t-81.5 17t-67.5 49t-46 78.5t-17 105.5zM86 238q0 -50 14 -90.5t38 -70t57 -45.5t71 -16t71 16t57 45.5t38 70t14 90.5q0 49 -14 90.5
t-38 71t-57 46t-71 16.5t-71 -16.5t-57 -46t-38 -71t-14 -90.5zM252 706h28l94 -134h-28l-78 102h-4l-78 -102h-28z" />
    <glyph glyph-name="otilde" unicode="&#xf5;" horiz-adv-x="532" 
d="M54 238q0 60 17 107t46 79t67.5 49t81.5 17t81.5 -17t67.5 -49t46 -79t17 -107q0 -59 -17 -105.5t-46 -78.5t-67.5 -49t-81.5 -17t-81.5 17t-67.5 49t-46 78.5t-17 105.5zM86 238q0 -50 14 -90.5t38 -70t57 -45.5t71 -16t71 16t57 45.5t38 70t14 90.5q0 49 -14 90.5
t-38 71t-57 46t-71 16.5t-71 -16.5t-57 -46t-38 -71t-14 -90.5zM148 582q1 13 4.5 27.5t11 26.5t19 20t29.5 8t32.5 -9t27.5 -19.5t25 -19t25 -8.5q17 0 26 15t12 41h24q-1 -13 -4.5 -27.5t-11 -26.5t-19 -20t-29.5 -8t-32 8.5t-27 19t-25 19.5t-26 9q-17 0 -26 -15t-12 -41
h-24v0z" />
    <glyph glyph-name="odieresis" unicode="&#xf6;" horiz-adv-x="532" 
d="M54 238q0 60 17 107t46 79t67.5 49t81.5 17t81.5 -17t67.5 -49t46 -79t17 -107q0 -59 -17 -105.5t-46 -78.5t-67.5 -49t-81.5 -17t-81.5 17t-67.5 49t-46 78.5t-17 105.5zM86 238q0 -50 14 -90.5t38 -70t57 -45.5t71 -16t71 16t57 45.5t38 70t14 90.5q0 49 -14 90.5
t-38 71t-57 46t-71 16.5t-71 -16.5t-57 -46t-38 -71t-14 -90.5zM190 602q-14 0 -23 9t-9 23t9 23t23 9t23 -9t9 -23t-9 -23t-23 -9zM342 602q-14 0 -23 9t-9 23t9 23t23 9t23 -9t9 -23t-9 -23t-23 -9z" />
    <glyph glyph-name="divide" unicode="&#xf7;" horiz-adv-x="472" 
d="M236 474q-14 0 -23 9.5t-9 26.5q0 15 9 24.5t23 9.5t23 -9.5t9 -24.5q0 -17 -9 -26.5t-23 -9.5zM204 150q0 15 9 24.5t23 9.5t23 -9.5t9 -24.5q0 -17 -9 -26.5t-23 -9.5t-23 9.5t-9 26.5zM34 344h404v-28h-404v28z" />
    <glyph glyph-name="oslash" unicode="&#xf8;" horiz-adv-x="532" 
d="M144 70q24 -26 55 -40t67 -14q38 0 71 16t57 45.5t38 70t14 90.5q0 44 -10.5 80.5t-29.5 65.5zM388 407q-24 26 -55 40.5t-67 14.5q-38 0 -71 -16.5t-57 -46t-38 -71t-14 -90.5q0 -44 10.5 -80.5t29.5 -64.5zM427 409q24 -32 37.5 -74.5t13.5 -96.5q0 -59 -17 -105.5
t-46 -78.5t-67.5 -49t-81.5 -17q-40 0 -76 14.5t-65 43.5l-57 -68l-22 18l60 72q-24 32 -38 74t-14 96q0 60 17 107t46 79t67.5 49t81.5 17q41 0 77 -15t65 -44l56 67l22 -18z" />
    <glyph glyph-name="ugrave" unicode="&#xf9;" horiz-adv-x="524" 
d="M88 478h30v-304q0 -80 27 -119t89 -39q45 0 82 25t82 79v358h30v-478h-26l-4 82h-2q-36 -42 -75 -68t-89 -26q-74 0 -109 44t-35 138v308zM182 706h40l92 -134h-28z" />
    <glyph glyph-name="uacute" unicode="&#xfa;" horiz-adv-x="524" 
d="M88 478h30v-304q0 -80 27 -119t89 -39q45 0 82 25t82 79v358h30v-478h-26l-4 82h-2q-36 -42 -75 -68t-89 -26q-74 0 -109 44t-35 138v308zM238 572h-28l92 134h40z" />
    <glyph glyph-name="ucircumflex" unicode="&#xfb;" horiz-adv-x="524" 
d="M88 478h30v-304q0 -80 27 -119t89 -39q45 0 82 25t82 79v358h30v-478h-26l-4 82h-2q-36 -42 -75 -68t-89 -26q-74 0 -109 44t-35 138v308zM248 706h28l94 -134h-28l-78 102h-4l-78 -102h-28z" />
    <glyph glyph-name="udieresis" unicode="&#xfc;" horiz-adv-x="524" 
d="M88 478h30v-304q0 -80 27 -119t89 -39q45 0 82 25t82 79v358h30v-478h-26l-4 82h-2q-36 -42 -75 -68t-89 -26q-74 0 -109 44t-35 138v308zM186 602q-14 0 -23 9t-9 23t9 23t23 9t23 -9t9 -23t-9 -23t-23 -9zM338 602q-14 0 -23 9t-9 23t9 23t23 9t23 -9t9 -23t-9 -23
t-23 -9z" />
    <glyph glyph-name="yacute" unicode="&#xfd;" horiz-adv-x="424" 
d="M28 -184q8 -3 18.5 -5.5t21.5 -2.5q45 0 76.5 38.5t51.5 97.5l14 44l-198 490h34l122 -314q12 -30 26 -66t28 -68h4q12 32 23.5 68t22.5 66l108 314h32l-192 -546q-9 -28 -22.5 -55.5t-32.5 -49.5t-43.5 -35.5t-55.5 -13.5q-26 0 -46 10l8 28v0zM200 572h-28l92 134h40z
" />
    <glyph glyph-name="thorn" unicode="&#xfe;" horiz-adv-x="540" 
d="M126 -222h-30v944h30v-212v-94q38 29 80.5 51.5t87.5 22.5q97 0 144.5 -66.5t47.5 -177.5q0 -61 -17 -109t-46 -81t-67.5 -50.5t-81.5 -17.5q-35 0 -72 15.5t-76 44.5v-90v-180zM126 82q44 -36 82.5 -51t67.5 -15q39 0 71.5 17t56.5 47.5t37 73t13 92.5q0 46 -8.5 85.5
t-28 68.5t-50.5 45.5t-75 16.5q-38 0 -78.5 -21.5t-87.5 -62.5v-296z" />
    <glyph glyph-name="ydieresis" unicode="&#xff;" horiz-adv-x="424" 
d="M28 -184q8 -3 18.5 -5.5t21.5 -2.5q45 0 76.5 38.5t51.5 97.5l14 44l-198 490h34l122 -314q12 -30 26 -66t28 -68h4q12 32 23.5 68t22.5 66l108 314h32l-192 -546q-9 -28 -22.5 -55.5t-32.5 -49.5t-43.5 -35.5t-55.5 -13.5q-26 0 -46 10l8 28v0zM148 602q-14 0 -23 9
t-9 23t9 23t23 9t23 -9t9 -23t-9 -23t-23 -9zM300 602q-14 0 -23 9t-9 23t9 23t23 9t23 -9t9 -23t-9 -23t-23 -9z" />
    <glyph glyph-name="Amacron" unicode="&#x100;" horiz-adv-x="512" 
d="M380 264l-46 132q-21 60 -39.5 114t-36.5 116h-4q-18 -62 -36.5 -116t-39.5 -114l-47 -132h249zM390 236h-269l-83 -236h-32l236 660h28l236 -660h-34zM146 764h220v-28h-220v28z" />
    <glyph glyph-name="amacron" unicode="&#x101;" horiz-adv-x="494" 
d="M68 117q0 80 76 121.5t238 59.5q1 29 -3.5 58.5t-17.5 53t-36.5 38t-60.5 14.5q-26 0 -49 -5.5t-43 -14.5t-36.5 -19t-27.5 -19l-16 24q11 8 28.5 19t40 20.5t49.5 16t56 6.5q42 0 70 -14.5t45 -39.5t24 -57.5t7 -68.5v-310h-26l-4 64h-2q-38 -30 -82 -53t-92 -23
q-28 0 -53 7.5t-44 23t-30 40t-11 58.5zM100 118q0 -28 8.5 -47.5t23.5 -31.5t34.5 -17.5t41.5 -5.5q44 0 85 20.5t89 61.5v174q-79 -9 -133 -22.5t-87 -32.5t-47.5 -43.5t-14.5 -55.5zM150 636h220v-28h-220v28z" />
    <glyph glyph-name="Abreve" unicode="&#x102;" horiz-adv-x="512" 
d="M380 264l-46 132q-21 60 -39.5 114t-36.5 116h-4q-18 -62 -36.5 -116t-39.5 -114l-47 -132h249zM390 236h-269l-83 -236h-32l236 660h28l236 -660h-34zM256 712q-28 0 -48 10t-33.5 25t-21 33t-9.5 34h26q2 -14 8 -27.5t16.5 -24t26 -17.5t35.5 -7t35 7t25.5 17.5t17 24
t8.5 27.5h26q-2 -16 -9.5 -34t-21 -33t-33.5 -25t-48 -10z" />
    <glyph glyph-name="abreve" unicode="&#x103;" horiz-adv-x="494" 
d="M68 117q0 80 76 121.5t238 59.5q1 29 -3.5 58.5t-17.5 53t-36.5 38t-60.5 14.5q-26 0 -49 -5.5t-43 -14.5t-36.5 -19t-27.5 -19l-16 24q11 8 28.5 19t40 20.5t49.5 16t56 6.5q42 0 70 -14.5t45 -39.5t24 -57.5t7 -68.5v-310h-26l-4 64h-2q-38 -30 -82 -53t-92 -23
q-28 0 -53 7.5t-44 23t-30 40t-11 58.5zM100 118q0 -28 8.5 -47.5t23.5 -31.5t34.5 -17.5t41.5 -5.5q44 0 85 20.5t89 61.5v174q-79 -9 -133 -22.5t-87 -32.5t-47.5 -43.5t-14.5 -55.5zM260 576q-30 0 -51 11.5t-34.5 28.5t-21 37.5t-9.5 38.5h26q2 -17 8.5 -33t17.5 -28.5
t27 -20.5t37 -8t37 8t27 20.5t17.5 28.5t8.5 33h26q-2 -18 -9.5 -38.5t-21 -37.5t-34.5 -28.5t-51 -11.5z" />
    <glyph glyph-name="Aogonek" unicode="&#x104;" horiz-adv-x="512" 
d="M380 264l-46 132q-21 60 -39.5 114t-36.5 116h-4q-18 -62 -36.5 -116t-39.5 -114l-47 -132h249zM544 -180q-11 -9 -28 -15.5t-32 -6.5q-33 0 -56.5 19.5t-23.5 60.5q0 36 21.5 69t48.5 53h-2l-82 236h-269l-83 -236h-32l236 660h28l236 -660q-30 -23 -51 -55.5t-21 -64.5
q0 -27 16 -40.5t36 -13.5q14 0 23.5 3t20.5 11z" />
    <glyph glyph-name="aogonek" unicode="&#x105;" horiz-adv-x="494" 
d="M100 118q0 -28 8.5 -47.5t23.5 -31.5t34.5 -17.5t41.5 -5.5q44 0 85 20.5t89 61.5v174q-79 -9 -133 -22.5t-87 -32.5t-47.5 -43.5t-14.5 -55.5zM68 116q0 81 76 122.5t238 59.5q1 29 -3.5 58.5t-17.5 53t-36.5 38t-60.5 14.5q-26 0 -49 -5.5t-43 -14.5t-36.5 -19
t-27.5 -19l-16 24q11 8 28.5 19t40 20.5t49.5 16t56 6.5q42 0 70 -14.5t45 -39.5t24 -57.5t7 -68.5v-310q-36 -20 -61 -53.5t-25 -66.5q0 -27 15 -40.5t35 -13.5q14 0 23.5 3t20.5 11l14 -20q-11 -9 -28 -15.5t-32 -6.5q-33 0 -55.5 19.5t-22.5 60.5q0 38 26 72.5t64 57.5
l-4 56h-2q-38 -30 -82 -53t-92 -23q-28 0 -53 7.5t-44 23t-30 39.5t-11 58z" />
    <glyph glyph-name="Cacute" unicode="&#x106;" horiz-adv-x="554" 
d="M52 332q0 78 20 141t56 107t87.5 68t114.5 24q57 0 99.5 -24t68.5 -54l-20 -22q-27 32 -64 51t-84 19q-57 0 -102.5 -21.5t-77 -62t-48 -98t-16.5 -128.5t16.5 -129t48 -99t75.5 -63.5t100 -22.5q53 0 93.5 21t78.5 63l20 -20q-38 -44 -83.5 -69t-110.5 -25
q-61 0 -111 24.5t-86 69.5t-55.5 108.5t-19.5 141.5zM314 710h-30l94 104h44z" />
    <glyph glyph-name="cacute" unicode="&#x107;" horiz-adv-x="446" 
d="M54 238q0 60 17.5 107t47 79t68 49t81.5 17q50 0 83 -18.5t57 -41.5l-20 -22q-24 23 -53 38.5t-67 15.5t-71.5 -16.5t-58 -46t-38.5 -71t-14 -90.5q0 -50 13 -90.5t37 -70t57.5 -45.5t74.5 -16t74.5 17t59.5 41l18 -22q-30 -27 -67.5 -45.5t-84.5 -18.5q-46 0 -85 17
t-67.5 49t-45 78.5t-16.5 105.5zM245 572h-28l92 134h40z" />
    <glyph glyph-name="Ccircumflex" unicode="&#x108;" horiz-adv-x="554" 
d="M52 332q0 78 20 141t56 107t87.5 68t114.5 24q57 0 99.5 -24t68.5 -54l-20 -22q-27 32 -64 51t-84 19q-57 0 -102.5 -21.5t-77 -62t-48 -98t-16.5 -128.5t16.5 -129t48 -99t75.5 -63.5t100 -22.5q53 0 93.5 21t78.5 63l20 -20q-38 -44 -83.5 -69t-110.5 -25
q-61 0 -111 24.5t-86 69.5t-55.5 108.5t-19.5 141.5zM206 710l96 104h28l96 -104h-30l-78 74h-4l-78 -74h-30z" />
    <glyph glyph-name="ccircumflex" unicode="&#x109;" horiz-adv-x="446" 
d="M54 238q0 60 17.5 107t47 79t68 49t81.5 17q50 0 83 -18.5t57 -41.5l-20 -22q-24 23 -53 38.5t-67 15.5t-71.5 -16.5t-58 -46t-38.5 -71t-14 -90.5q0 -50 13 -90.5t37 -70t57.5 -45.5t74.5 -16t74.5 17t59.5 41l18 -22q-30 -27 -67.5 -45.5t-84.5 -18.5q-46 0 -85 17
t-67.5 49t-45 78.5t-16.5 105.5zM255 706h28l94 -134h-28l-78 102h-4l-78 -102h-28z" />
    <glyph glyph-name="Cdotaccent" unicode="&#x10a;" horiz-adv-x="554" 
d="M52 332q0 78 20 141t56 107t87.5 68t114.5 24q57 0 99.5 -24t68.5 -54l-20 -22q-27 32 -64 51t-84 19q-57 0 -102.5 -21.5t-77 -62t-48 -98t-16.5 -128.5t16.5 -129t48 -99t75.5 -63.5t100 -22.5q53 0 93.5 21t78.5 63l20 -20q-38 -44 -83.5 -69t-110.5 -25
q-61 0 -111 24.5t-86 69.5t-55.5 108.5t-19.5 141.5zM316 724q-14 0 -24 9.5t-10 26.5q0 15 10 24.5t24 9.5t24 -9.5t10 -24.5q0 -17 -10 -26.5t-24 -9.5z" />
    <glyph glyph-name="cdotaccent" unicode="&#x10b;" horiz-adv-x="446" 
d="M54 238q0 60 17.5 107t47 79t68 49t81.5 17q50 0 83 -18.5t57 -41.5l-20 -22q-24 23 -53 38.5t-67 15.5t-71.5 -16.5t-58 -46t-38.5 -71t-14 -90.5q0 -50 13 -90.5t37 -70t57.5 -45.5t74.5 -16t74.5 17t59.5 41l18 -22q-30 -27 -67.5 -45.5t-84.5 -18.5q-46 0 -85 17
t-67.5 49t-45 78.5t-16.5 105.5zM269 600q-14 0 -23 9.5t-9 26.5q0 15 9 24.5t23 9.5t23 -9.5t9 -24.5q0 -17 -9 -26.5t-23 -9.5z" />
    <glyph glyph-name="Ccaron" unicode="&#x10c;" horiz-adv-x="554" 
d="M52 332q0 78 20 141t56 107t87.5 68t114.5 24q57 0 99.5 -24t68.5 -54l-20 -22q-27 32 -64 51t-84 19q-57 0 -102.5 -21.5t-77 -62t-48 -98t-16.5 -128.5t16.5 -129t48 -99t75.5 -63.5t100 -22.5q53 0 93.5 21t78.5 63l20 -20q-38 -44 -83.5 -69t-110.5 -25
q-61 0 -111 24.5t-86 69.5t-55.5 108.5t-19.5 141.5zM426 814l-96 -104h-28l-96 104h30l78 -74h4l78 74h30z" />
    <glyph glyph-name="ccaron" unicode="&#x10d;" horiz-adv-x="446" 
d="M54 238q0 60 17.5 107t47 79t68 49t81.5 17q50 0 83 -18.5t57 -41.5l-20 -22q-24 23 -53 38.5t-67 15.5t-71.5 -16.5t-58 -46t-38.5 -71t-14 -90.5q0 -50 13 -90.5t37 -70t57.5 -45.5t74.5 -16t74.5 17t59.5 41l18 -22q-30 -27 -67.5 -45.5t-84.5 -18.5q-46 0 -85 17
t-67.5 49t-45 78.5t-16.5 105.5zM161 706h28l78 -102h4l78 102h28l-94 -134h-28z" />
    <glyph glyph-name="Dcaron" unicode="&#x10e;" horiz-adv-x="594" 
d="M96 660h148q76 0 132 -23.5t92.5 -67t54 -104t17.5 -133.5q0 -74 -17.5 -135t-54 -104.5t-92.5 -68t-132 -24.5h-148v660zM240 28q70 0 120.5 23t83 63.5t47.5 96.5t15 121t-15 120t-47.5 95t-83 62.5t-120.5 22.5h-112v-604h112zM406 814l-96 -104h-28l-96 104h30
l78 -74h4l78 74h30z" />
    <glyph glyph-name="dcaron" unicode="&#x10f;" horiz-adv-x="540" 
d="M54 238q0 58 17 104.5t46.5 79.5t68 50.5t82.5 17.5t77 -15.5t71 -44.5l-2 90v202h30v-722h-26l-4 64h-2q-30 -30 -70 -53t-90 -23q-91 0 -144.5 64t-53.5 186zM86 238q0 -50 11 -90.5t32.5 -70t52.5 -45.5t72 -16q42 0 80.5 21.5t79.5 62.5v296q-41 36 -75.5 51
t-72.5 15t-71 -17.5t-57 -48t-38 -71.5t-14 -87zM512 548l-2 204h30v-48l-6 -156h-22z" />
    <glyph glyph-name="Dcroat" unicode="&#x110;" horiz-adv-x="610" 
d="M256 28q70 0 120.5 23t83 63.5t47.5 96.5t15 121t-15 120t-47.5 95t-83 62.5t-120.5 22.5h-112v-268h172v-28h-172v-308h112zM260 660q76 0 132 -23.5t92.5 -67t54 -104t17.5 -133.5q0 -74 -17.5 -135t-54 -104.5t-92.5 -68t-132 -24.5h-148v336h-78v26l78 2v296h148z
" />
    <glyph glyph-name="dcroat" unicode="&#x111;" horiz-adv-x="540" 
d="M414 376q-41 36 -75.5 51t-72.5 15t-71 -17t-57 -46t-38 -68t-14 -83q0 -47 11 -86t32.5 -67t52.5 -43.5t72 -15.5q42 0 80.5 21.5t79.5 62.5v276zM520 612v-24l-76 -4v-584h-26l-4 64h-2q-30 -30 -70 -53t-90 -23q-90 0 -144 61.5t-54 178.5q0 55 17 100t46.5 76.5
t68 48.5t82.5 17t77 -15.5t71 -44.5l-2 90v84h-172v28h172v110h30v-110h76z" />
    <glyph glyph-name="Emacron" unicode="&#x112;" horiz-adv-x="502" 
d="M96 660h354v-28h-322v-266h270v-28h-270v-310h332v-28h-364v660zM167 764h220v-28h-220v28z" />
    <glyph glyph-name="emacron" unicode="&#x113;" horiz-adv-x="478" 
d="M54 238q0 58 17.5 105t46 79.5t65.5 50t77 17.5q83 0 131.5 -56.5t48.5 -163.5v-15.5t-2 -16.5h-352q0 -48 13.5 -88.5t38 -70.5t59 -46.5t77.5 -16.5q41 0 73 12t59 32l14 -26q-27 -17 -60.5 -31.5t-87.5 -14.5q-45 0 -84.5 17t-69.5 49.5t-47 78.5t-17 105zM410 264
q0 100 -41 149t-109 49q-32 0 -62 -14t-53.5 -39.5t-39 -62t-19.5 -82.5h324zM150 636h220v-28h-220v28z" />
    <glyph glyph-name="Ebreve" unicode="&#x114;" horiz-adv-x="502" 
d="M96 660h354v-28h-322v-266h270v-28h-270v-310h332v-28h-364v660zM277 712q-28 0 -48 10t-33.5 25t-21 33t-9.5 34h26q2 -14 8 -27.5t16.5 -24t26 -17.5t35.5 -7t35 7t25.5 17.5t17 24t8.5 27.5h26q-2 -16 -9.5 -34t-21 -33t-33.5 -25t-48 -10z" />
    <glyph glyph-name="ebreve" unicode="&#x115;" horiz-adv-x="478" 
d="M54 238q0 58 17.5 105t46 79.5t65.5 50t77 17.5q83 0 131.5 -56.5t48.5 -163.5v-15.5t-2 -16.5h-352q0 -48 13.5 -88.5t38 -70.5t59 -46.5t77.5 -16.5q41 0 73 12t59 32l14 -26q-27 -17 -60.5 -31.5t-87.5 -14.5q-45 0 -84.5 17t-69.5 49.5t-47 78.5t-17 105zM410 264
q0 100 -41 149t-109 49q-32 0 -62 -14t-53.5 -39.5t-39 -62t-19.5 -82.5h324zM260 576q-30 0 -51 11.5t-34.5 28.5t-21 37.5t-9.5 38.5h26q2 -17 8.5 -33t17.5 -28.5t27 -20.5t37 -8t37 8t27 20.5t17.5 28.5t8.5 33h26q-2 -18 -9.5 -38.5t-21 -37.5t-34.5 -28.5t-51 -11.5z
" />
    <glyph glyph-name="Edotaccent" unicode="&#x116;" horiz-adv-x="502" 
d="M96 660h354v-28h-322v-266h270v-28h-270v-310h332v-28h-364v660zM277 724q-14 0 -24 9.5t-10 26.5q0 15 10 24.5t24 9.5t24 -9.5t10 -24.5q0 -17 -10 -26.5t-24 -9.5z" />
    <glyph glyph-name="edotaccent" unicode="&#x117;" horiz-adv-x="478" 
d="M54 238q0 58 17.5 105t46 79.5t65.5 50t77 17.5q83 0 131.5 -56.5t48.5 -163.5v-15.5t-2 -16.5h-352q0 -48 13.5 -88.5t38 -70.5t59 -46.5t77.5 -16.5q41 0 73 12t59 32l14 -26q-27 -17 -60.5 -31.5t-87.5 -14.5q-45 0 -84.5 17t-69.5 49.5t-47 78.5t-17 105zM410 264
q0 100 -41 149t-109 49q-32 0 -62 -14t-53.5 -39.5t-39 -62t-19.5 -82.5h324zM260 600q-14 0 -23 9.5t-9 26.5q0 15 9 24.5t23 9.5t23 -9.5t9 -24.5q0 -17 -9 -26.5t-23 -9.5z" />
    <glyph glyph-name="Eogonek" unicode="&#x118;" horiz-adv-x="502" 
d="M96 660h354v-28h-322v-266h270v-28h-270v-310h332v-28h-2q-17 -4 -34 -14.5t-31 -26.5t-22.5 -36.5t-8.5 -42.5q0 -27 16 -40.5t36 -13.5q14 0 23.5 3t20.5 11l14 -20q-11 -9 -28 -15.5t-32 -6.5q-33 0 -56.5 19.5t-23.5 60.5q0 38 21 70t51 52h-308v660z" />
    <glyph glyph-name="eogonek" unicode="&#x119;" horiz-adv-x="478" 
d="M54 238q0 58 17.5 105t46 79.5t65.5 50t77 17.5q83 0 131.5 -56.5t48.5 -163.5v-16t-2 -16h-352q0 -48 13.5 -88.5t38 -70.5t59 -46.5t77.5 -16.5q41 0 73 12t59 32l14 -26q-65 -48 -89.5 -84.5t-24.5 -69.5q0 -27 15 -40.5t35 -13.5q14 0 23.5 3t20.5 11l14 -20
q-11 -9 -28 -15.5t-32 -6.5q-33 0 -55.5 19.5t-22.5 60.5q0 19 6 36.5t15.5 33t20.5 28.5t22 22q-17 -6 -33.5 -8t-34.5 -2q-45 0 -84.5 17t-69.5 49.5t-47 78.5t-17 105zM410 264q0 100 -40.5 149t-109.5 49q-32 0 -62 -14t-53.5 -39.5t-39 -62t-19.5 -82.5h324z" />
    <glyph glyph-name="Ecaron" unicode="&#x11a;" horiz-adv-x="502" 
d="M96 660h354v-28h-322v-266h270v-28h-270v-310h332v-28h-364v660zM387 814l-96 -104h-28l-96 104h30l78 -74h4l78 74h30z" />
    <glyph glyph-name="ecaron" unicode="&#x11b;" horiz-adv-x="478" 
d="M54 238q0 58 17.5 105t46 79.5t65.5 50t77 17.5q83 0 131.5 -56.5t48.5 -163.5v-15.5t-2 -16.5h-352q0 -48 13.5 -88.5t38 -70.5t59 -46.5t77.5 -16.5q41 0 73 12t59 32l14 -26q-27 -17 -60.5 -31.5t-87.5 -14.5q-45 0 -84.5 17t-69.5 49.5t-47 78.5t-17 105zM410 264
q0 100 -41 149t-109 49q-32 0 -62 -14t-53.5 -39.5t-39 -62t-19.5 -82.5h324zM152 706h28l78 -102h4l78 102h28l-94 -134h-28z" />
    <glyph glyph-name="Gcircumflex" unicode="&#x11c;" horiz-adv-x="592" 
d="M52 332q0 78 20.5 141t58 107t91 68t118.5 24q33 0 60 -7t48.5 -18.5t38 -25.5t29.5 -27l-20 -22q-26 29 -63 49.5t-93 20.5q-59 0 -106 -21.5t-80 -62t-50.5 -98t-17.5 -128.5t17 -129t48.5 -99t77 -63.5t103.5 -22.5q48 0 90 14t68 40v218h-164v28h196v-256
q-30 -33 -78.5 -53.5t-113.5 -20.5q-63 0 -114.5 24.5t-87.5 69.5t-56 108.5t-20 141.5zM229 710l96 104h28l96 -104h-30l-78 74h-4l-78 -74h-30z" />
    <glyph glyph-name="gcircumflex" unicode="&#x11d;" horiz-adv-x="480" 
d="M86 -98q0 -48 43 -78t123 -30q43 0 77.5 11.5t58.5 29.5t37 41.5t13 47.5q0 42 -29.5 60t-86.5 18h-110q-5 0 -21.5 1.5t-36.5 6.5q-36 -24 -52 -52.5t-16 -55.5zM54 -100q0 32 19.5 63t52.5 55v4q-18 11 -30 30t-12 46q0 33 18.5 55t33.5 33v4q-23 20 -41.5 54t-18.5 78
q0 36 12.5 66.5t35 53t52 35.5t64.5 13q20 0 35.5 -3.5t26.5 -8.5h160v-28h-116q26 -21 42 -54t16 -74q0 -36 -12.5 -67t-35 -54t-52.5 -36t-64 -13q-21 0 -43 5.5t-39 16.5q-17 -14 -29.5 -31t-12.5 -43q0 -14 4.5 -26t15 -21t28.5 -14t46 -5h106q80 0 117 -26t37 -82
q0 -30 -15.5 -59t-44 -51.5t-69.5 -36t-91 -13.5q-92 0 -144 37t-52 97zM240 180q26 0 50 10.5t42 29t29 44.5t11 58t-10.5 58t-28.5 44t-42 28t-51 10t-51 -10t-42 -28t-28.5 -44t-10.5 -58t11 -58t29 -44.5t42 -29t50 -10.5zM216 706h28l94 -134h-28l-78 102h-4l-78 -102
h-28z" />
    <glyph glyph-name="Gbreve" unicode="&#x11e;" horiz-adv-x="592" 
d="M52 332q0 78 20.5 141t58 107t91 68t118.5 24q33 0 60 -7t48.5 -18.5t38 -25.5t29.5 -27l-20 -22q-26 29 -63 49.5t-93 20.5q-59 0 -106 -21.5t-80 -62t-50.5 -98t-17.5 -128.5t17 -129t48.5 -99t77 -63.5t103.5 -22.5q48 0 90 14t68 40v218h-164v28h196v-256
q-30 -33 -78.5 -53.5t-113.5 -20.5q-63 0 -114.5 24.5t-87.5 69.5t-56 108.5t-20 141.5zM339 712q-28 0 -48 10t-33.5 25t-21 33t-9.5 34h26q2 -14 8 -27.5t16.5 -24t26 -17.5t35.5 -7t35 7t25.5 17.5t17 24t8.5 27.5h26q-2 -16 -9.5 -34t-21 -33t-33.5 -25t-48 -10z" />
    <glyph glyph-name="gbreve" unicode="&#x11f;" horiz-adv-x="480" 
d="M86 -98q0 -48 43 -78t123 -30q43 0 77.5 11.5t58.5 29.5t37 41.5t13 47.5q0 42 -29.5 60t-86.5 18h-110q-5 0 -21.5 1.5t-36.5 6.5q-36 -24 -52 -52.5t-16 -55.5zM54 -100q0 32 19.5 63t52.5 55v4q-18 11 -30 30t-12 46q0 33 18.5 55t33.5 33v4q-23 20 -41.5 54t-18.5 78
q0 36 12.5 66.5t35 53t52 35.5t64.5 13q20 0 35.5 -3.5t26.5 -8.5h160v-28h-116q26 -21 42 -54t16 -74q0 -36 -12.5 -67t-35 -54t-52.5 -36t-64 -13q-21 0 -43 5.5t-39 16.5q-17 -14 -29.5 -31t-12.5 -43q0 -14 4.5 -26t15 -21t28.5 -14t46 -5h106q80 0 117 -26t37 -82
q0 -30 -15.5 -59t-44 -51.5t-69.5 -36t-91 -13.5q-92 0 -144 37t-52 97zM240 180q26 0 50 10.5t42 29t29 44.5t11 58t-10.5 58t-28.5 44t-42 28t-51 10t-51 -10t-42 -28t-28.5 -44t-10.5 -58t11 -58t29 -44.5t42 -29t50 -10.5zM230 576q-30 0 -51 11.5t-34.5 28.5t-21 37.5
t-9.5 38.5h26q2 -17 8.5 -33t17.5 -28.5t27 -20.5t37 -8t37 8t27 20.5t17.5 28.5t8.5 33h26q-2 -18 -9.5 -38.5t-21 -37.5t-34.5 -28.5t-51 -11.5z" />
    <glyph glyph-name="Gdotaccent" unicode="&#x120;" horiz-adv-x="592" 
d="M52 332q0 78 20.5 141t58 107t91 68t118.5 24q33 0 60 -7t48.5 -18.5t38 -25.5t29.5 -27l-20 -22q-26 29 -63 49.5t-93 20.5q-59 0 -106 -21.5t-80 -62t-50.5 -98t-17.5 -128.5t17 -129t48.5 -99t77 -63.5t103.5 -22.5q48 0 90 14t68 40v218h-164v28h196v-256
q-30 -33 -78.5 -53.5t-113.5 -20.5q-63 0 -114.5 24.5t-87.5 69.5t-56 108.5t-20 141.5zM339 724q-14 0 -24 9.5t-10 26.5q0 15 10 24.5t24 9.5t24 -9.5t10 -24.5q0 -17 -10 -26.5t-24 -9.5z" />
    <glyph glyph-name="gdotaccent" unicode="&#x121;" horiz-adv-x="480" 
d="M86 -98q0 -48 43 -78t123 -30q43 0 77.5 11.5t58.5 29.5t37 41.5t13 47.5q0 42 -29.5 60t-86.5 18h-110q-5 0 -21.5 1.5t-36.5 6.5q-36 -24 -52 -52.5t-16 -55.5zM54 -100q0 32 19.5 63t52.5 55v4q-18 11 -30 30t-12 46q0 33 18.5 55t33.5 33v4q-23 20 -41.5 54t-18.5 78
q0 36 12.5 66.5t35 53t52 35.5t64.5 13q20 0 35.5 -3.5t26.5 -8.5h160v-28h-116q26 -21 42 -54t16 -74q0 -36 -12.5 -67t-35 -54t-52.5 -36t-64 -13q-21 0 -43 5.5t-39 16.5q-17 -14 -29.5 -31t-12.5 -43q0 -14 4.5 -26t15 -21t28.5 -14t46 -5h106q80 0 117 -26t37 -82
q0 -30 -15.5 -59t-44 -51.5t-69.5 -36t-91 -13.5q-92 0 -144 37t-52 97zM240 180q26 0 50 10.5t42 29t29 44.5t11 58t-10.5 58t-28.5 44t-42 28t-51 10t-51 -10t-42 -28t-28.5 -44t-10.5 -58t11 -58t29 -44.5t42 -29t50 -10.5zM230 600q-14 0 -23 9.5t-9 26.5q0 15 9 24.5
t23 9.5t23 -9.5t9 -24.5q0 -17 -9 -26.5t-23 -9.5z" />
    <glyph glyph-name="uni0122" unicode="&#x122;" horiz-adv-x="592" 
d="M52 332q0 78 20.5 141t58 107t91 68t118.5 24q33 0 60 -7t48.5 -18.5t38 -25.5t29.5 -27l-20 -22q-26 29 -63 49.5t-93 20.5q-59 0 -106 -21.5t-80 -62t-50.5 -98t-17.5 -128.5t17 -129t48.5 -99t77 -63.5t103.5 -22.5q48 0 90 14t68 40v218h-164v28h196v-256
q-30 -33 -78.5 -53.5t-113.5 -20.5q-63 0 -114.5 24.5t-87.5 69.5t-56 108.5t-20 141.5zM309 -52q38 -9 58 -25.5t20 -46.5q0 -19 -10 -33t-26.5 -24t-38 -16t-43.5 -9l-6 26q42 6 68 18.5t26 33.5q0 24 -18.5 34.5t-39.5 15.5l10 26v0z" />
    <glyph glyph-name="uni0123" unicode="&#x123;" horiz-adv-x="480" 
d="M86 -98q0 -48 43 -78t123 -30q43 0 77.5 11.5t58.5 29.5t37 41.5t13 47.5q0 42 -29.5 60t-86.5 18h-110q-5 0 -21.5 1.5t-36.5 6.5q-36 -24 -52 -52.5t-16 -55.5zM54 -100q0 32 19.5 63t52.5 55v4q-18 11 -30 30t-12 46q0 33 18.5 55t33.5 33v4q-23 20 -41.5 54t-18.5 78
q0 36 12.5 66.5t35 53t52 35.5t64.5 13q20 0 35.5 -3.5t26.5 -8.5h160v-28h-116q26 -21 42 -54t16 -74q0 -36 -12.5 -67t-35 -54t-52.5 -36t-64 -13q-21 0 -43 5.5t-39 16.5q-17 -14 -29.5 -31t-12.5 -43q0 -14 4.5 -26t15 -21t28.5 -14t46 -5h106q80 0 117 -26t37 -82
q0 -30 -15.5 -59t-44 -51.5t-69.5 -36t-91 -13.5q-92 0 -144 37t-52 97zM240 180q26 0 50 10.5t42 29t29 44.5t11 58t-10.5 58t-28.5 44t-42 28t-51 10t-51 -10t-42 -28t-28.5 -44t-10.5 -58t11 -58t29 -44.5t42 -29t50 -10.5zM252 538q-38 9 -58 25.5t-20 46.5q0 19 10 33
t26.5 24t37.5 16t44 9l6 -26q-42 -6 -68 -18.5t-26 -33.5q0 -24 18.5 -34.5t39.5 -15.5l-10 -26v0z" />
    <glyph glyph-name="Hcircumflex" unicode="&#x124;" horiz-adv-x="626" 
d="M96 660h32v-294h370v294h32v-660h-32v338h-370v-338h-32v660zM203 710l96 104h28l96 -104h-30l-78 74h-4l-78 -74h-30z" />
    <glyph glyph-name="hcircumflex" unicode="&#x125;" horiz-adv-x="522" 
d="M96 722h30v-214v-108q39 39 78.5 64.5t89.5 25.5q74 0 109 -44t35 -138v-308h-30v304q0 80 -27 119t-89 39q-45 0 -82.5 -24t-83.5 -72v-366h-30v722zM3 748l96 104h28l96 -104h-30l-78 74h-4l-78 -74h-30z" />
    <glyph glyph-name="Hbar" unicode="&#x126;" horiz-adv-x="658" 
d="M514 496h-370v-130h370v130zM624 496h-78v-496h-32v338h-370v-338h-32v496h-78v24l78 4v136h32v-136h370v136h32v-136h78v-28z" />
    <glyph glyph-name="hbar" unicode="&#x127;" horiz-adv-x="522" 
d="M126 380q39 39 78.5 64.5t89.5 25.5q74 0 109 -44t35 -138v-288h-30v284q0 80 -27 119t-89 39q-45 0 -82.5 -24t-83.5 -72v-346h-30v584h-78v24l78 4v110h30v-110h192v-28h-192v-96v-108z" />
    <glyph glyph-name="Itilde" unicode="&#x128;" horiz-adv-x="224" 
d="M96 660h32v-660h-32v660zM170 718q-20 0 -34.5 9t-28 20t-26.5 20t-29 9q-17 0 -28 -16t-14 -42h-22q1 14 5 29.5t12 28t20 20.5t29 8q19 0 34 -9t28.5 -20t26.5 -20t29 -9q17 0 28 16t14 42h22q-1 -14 -5 -29.5t-12 -28t-20.5 -20.5t-28.5 -8z" />
    <glyph glyph-name="itilde" unicode="&#x129;" horiz-adv-x="222" 
d="M96 478h30v-478h-30v478zM-7 582q1 13 4.5 27.5t11 26.5t19 20t29.5 8t32.5 -9t27.5 -19.5t25 -19t25 -8.5q17 0 26 15t12 41h24q-1 -13 -4.5 -27.5t-11 -26.5t-19 -20t-29.5 -8t-32 8.5t-27 19t-25 19.5t-26 9q-17 0 -26 -15t-12 -41h-24v0z" />
    <glyph glyph-name="Imacron" unicode="&#x12a;" horiz-adv-x="224" 
d="M96 660h32v-660h-32v660zM2 764h220v-28h-220v28z" />
    <glyph glyph-name="imacron" unicode="&#x12b;" horiz-adv-x="222" 
d="M96 478h30v-478h-30v478zM1 636h220v-28h-220v28z" />
    <glyph glyph-name="uni012C" unicode="&#x12c;" horiz-adv-x="224" 
d="M96 660h32v-660h-32v660zM112 712q-28 0 -48 10t-33.5 25t-21 33t-9.5 34h26q2 -14 8 -27.5t16.5 -24t26 -17.5t35.5 -7t35 7t25.5 17.5t17 24t8.5 27.5h26q-2 -16 -9.5 -34t-21 -33t-33.5 -25t-48 -10z" />
    <glyph glyph-name="uni012D" unicode="&#x12d;" horiz-adv-x="222" 
d="M96 478h30v-478h-30v478zM112 576q-30 0 -51 11.5t-34.5 28.5t-21 37.5t-9.5 38.5h26q2 -17 8.5 -33t17.5 -28.5t27 -20.5t37 -8t37 8t27 20.5t17.5 28.5t8.5 33h26q-2 -18 -9.5 -38.5t-21 -37.5t-34.5 -28.5t-51 -11.5z" />
    <glyph glyph-name="Iogonek" unicode="&#x12e;" horiz-adv-x="224" 
d="M96 660h32v-660q-24 -30 -41 -57.5t-17 -62.5q0 -27 16 -40.5t36 -13.5q14 0 23.5 3t20.5 11l14 -20q-11 -9 -28 -15.5t-32 -6.5q-33 0 -56.5 19.5t-23.5 60.5q0 39 17 67t43 55h-4v660z" />
    <glyph glyph-name="iogonek" unicode="&#x12f;" horiz-adv-x="222" 
d="M96 478h30v-478q-23 -27 -41.5 -57t-18.5 -63q0 -27 15 -40.5t35 -13.5q14 0 23.5 3t20.5 11l14 -20q-11 -9 -28 -15.5t-32 -6.5q-33 0 -55.5 19.5t-22.5 60.5q0 38 19.5 67t42.5 55h-2v478zM110 600q-14 0 -24 9.5t-10 24.5q0 17 10 25.5t24 8.5t24 -8.5t10 -25.5
q0 -15 -10 -24.5t-24 -9.5z" />
    <glyph glyph-name="Idotaccent" unicode="&#x130;" horiz-adv-x="224" 
d="M96 660h32v-660h-32v660zM112 724q-14 0 -24 9.5t-10 26.5q0 15 10 24.5t24 9.5t24 -9.5t10 -24.5q0 -17 -10 -26.5t-24 -9.5z" />
    <glyph glyph-name="dotlessi" unicode="&#x131;" horiz-adv-x="222" 
d="M96 478h30v-478h-30v478z" />
    <glyph glyph-name="Jcircumflex" unicode="&#x134;" horiz-adv-x="448" 
d="M66 98q26 -44 57 -62t75 -18q63 0 93.5 38.5t30.5 121.5v482h32v-486q0 -39 -8.5 -73t-27 -59t-49 -39.5t-73.5 -14.5q-53 0 -92.5 24.5t-63.5 69.5zM224 710l96 104h28l96 -104h-30l-78 74h-4l-78 -74h-30z" />
    <glyph glyph-name="jcircumflex" unicode="&#x135;" horiz-adv-x="222" 
d="M96 478h30v-580q0 -69 -24 -100.5t-74 -31.5q-15 0 -31 3.5t-27 8.5l8 26q9 -3 23 -6.5t29 -3.5q21 0 34 8t20 22.5t9.5 34.5t2.5 43v576zM97 706h28l94 -134h-28l-78 102h-4l-78 -102h-28z" />
    <glyph glyph-name="uni0136" unicode="&#x136;" horiz-adv-x="542" 
d="M96 660h32v-380h2l336 380h40l-212 -242l240 -418h-38l-226 394l-142 -160v-234h-32v660zM293 -52q38 -9 58 -25.5t20 -46.5q0 -19 -10 -33t-26.5 -24t-38 -16t-43.5 -9l-6 26q42 6 68 18.5t26 33.5q0 24 -18.5 34.5t-39.5 15.5l10 26v0z" />
    <glyph glyph-name="uni0137" unicode="&#x137;" horiz-adv-x="452" 
d="M96 722h30v-548h2l248 304h36l-154 -188l182 -290h-34l-166 266l-114 -134v-132h-30v722zM228 -52q38 -9 58 -25.5t20 -46.5q0 -19 -10 -33t-26.5 -24t-38 -16t-43.5 -9l-6 26q42 6 68 18.5t26 33.5q0 24 -18.5 34.5t-39.5 15.5l10 26v0z" />
    <glyph glyph-name="kgreenlandic" unicode="&#x138;" horiz-adv-x="452" 
d="M96 478h30v-304h2l248 304h36l-154 -188l182 -290h-34l-166 266l-114 -134v-132h-30v478z" />
    <glyph glyph-name="Lacute" unicode="&#x139;" horiz-adv-x="452" 
d="M96 660h32v-632h310v-28h-342v660zM112 710h-30l94 104h44z" />
    <glyph glyph-name="lacute" unicode="&#x13a;" horiz-adv-x="230" 
d="M96 722h30v-676q0 -30 20 -30h6.5t11.5 2l6 -26q-6 -2 -11.5 -3t-14.5 -1q-23 0 -35.5 14.5t-12.5 49.5v670zM100 760h-30l94 104h44z" />
    <glyph glyph-name="uni013B" unicode="&#x13b;" horiz-adv-x="452" 
d="M96 660h32v-632h310v-28h-342v660zM258 -52q38 -9 58 -25.5t20 -46.5q0 -19 -10 -33t-26.5 -24t-38 -16t-43.5 -9l-6 26q42 6 68 18.5t26 33.5q0 24 -18.5 34.5t-39.5 15.5l10 26v0z" />
    <glyph glyph-name="uni013C" unicode="&#x13c;" horiz-adv-x="230" 
d="M96 722h30v-676q0 -30 20 -30h6.5t11.5 2l6 -26q-6 -2 -11.5 -3t-14.5 -1q-23 0 -35.5 14.5t-12.5 49.5v670zM130 -52q38 -9 58 -25.5t20 -46.5q0 -19 -10 -33t-26.5 -24t-38 -16t-43.5 -9l-6 26q42 6 68 18.5t26 33.5q0 24 -18.5 34.5t-39.5 15.5l10 26v0z" />
    <glyph glyph-name="Lcaron" unicode="&#x13d;" horiz-adv-x="452" 
d="M96 660h32v-632h310v-28h-342v660zM314 519l-2 204h30v-48l-6 -156h-22z" />
    <glyph glyph-name="lcaron" unicode="&#x13e;" horiz-adv-x="222" 
d="M96 722h30v-676q0 -30 20 -30h6.5t11.5 2l6 -26q-6 -2 -11.5 -3t-14.5 -1q-23 0 -35.5 14.5t-12.5 49.5v670zM194 548l-2 204h30v-48l-6 -156h-22z" />
    <glyph glyph-name="Ldot" unicode="&#x13f;" horiz-adv-x="452" 
d="M96 660h32v-632h310v-28h-342v660zM310 322q0 20 11 30t25 10t25 -10t11 -30q0 -18 -11 -28t-25 -10t-25 10t-11 28z" />
    <glyph glyph-name="ldot" unicode="&#x140;" horiz-adv-x="288" 
d="M96 722h30v-676q0 -30 20 -30h6.5t11.5 2l6 -26q-6 -2 -11.5 -3t-14.5 -1q-23 0 -35.5 14.5t-12.5 49.5v670zM218 322q0 20 11 30t25 10t25 -10t11 -30q0 -18 -11 -28t-25 -10t-25 10t-11 28z" />
    <glyph glyph-name="Lslash" unicode="&#x141;" horiz-adv-x="452" 
d="M438 28v-28h-342v260l-86 -44v30l86 44v370h32v-354l200 104v-30l-200 -104v-248h310z" />
    <glyph glyph-name="lslash" unicode="&#x142;" horiz-adv-x="230" 
d="M126 394v-348q0 -30 20 -30h6.5t11.5 2l6 -26q-6 -2 -11.5 -3t-14.5 -1q-23 0 -35.5 14.5t-12.5 49.5v324l-66 -44v32l66 44v314h30v-296l74 50v-32z" />
    <glyph glyph-name="Nacute" unicode="&#x143;" horiz-adv-x="624" 
d="M96 660h34l292 -484l76 -130h4q-2 48 -3 93.5t-1 92.5v428h30v-660h-34l-292 484l-76 130h-4q2 -47 3 -90t1 -90v-434h-30v660zM315 710h-30l94 104h44z" />
    <glyph glyph-name="nacute" unicode="&#x144;" horiz-adv-x="526" 
d="M96 478h26l4 -76h2q38 38 77 63t89 25q74 0 109 -44t35 -138v-308h-30v304q0 80 -27 119t-89 39q-45 0 -82.5 -24t-83.5 -72v-366h-30v478zM255 572h-28l92 134h40z" />
    <glyph glyph-name="uni0145" unicode="&#x145;" horiz-adv-x="624" 
d="M96 660h34l292 -484l76 -130h4q-2 48 -3 93.5t-1 92.5v428h30v-660h-34l-292 484l-76 130h-4q2 -47 3 -90t1 -90v-434h-30v660zM287 -52q38 -9 58 -25.5t20 -46.5q0 -19 -10 -33t-26.5 -24t-38 -16t-43.5 -9l-6 26q42 6 68 18.5t26 33.5q0 24 -18.5 34.5t-39.5 15.5
l10 26v0z" />
    <glyph glyph-name="uni0146" unicode="&#x146;" horiz-adv-x="526" 
d="M96 478h26l4 -76h2q38 38 77 63t89 25q74 0 109 -44t35 -138v-308h-30v304q0 80 -27 119t-89 39q-45 0 -82.5 -24t-83.5 -72v-366h-30v478zM245 -52q38 -9 58 -25.5t20 -46.5q0 -19 -10 -33t-26.5 -24t-38 -16t-43.5 -9l-6 26q42 6 68 18.5t26 33.5q0 24 -18.5 34.5
t-39.5 15.5l10 26v0z" />
    <glyph glyph-name="Ncaron" unicode="&#x147;" horiz-adv-x="624" 
d="M96 660h34l292 -484l76 -130h4q-2 48 -3 93.5t-1 92.5v428h30v-660h-34l-292 484l-76 130h-4q2 -47 3 -90t1 -90v-434h-30v660zM427 814l-96 -104h-28l-96 104h30l78 -74h4l78 74h30z" />
    <glyph glyph-name="ncaron" unicode="&#x148;" horiz-adv-x="526" 
d="M96 478h26l4 -76h2q38 38 77 63t89 25q74 0 109 -44t35 -138v-308h-30v304q0 80 -27 119t-89 39q-45 0 -82.5 -24t-83.5 -72v-366h-30v478zM171 706h28l78 -102h4l78 102h28l-94 -134h-28z" />
    <glyph glyph-name="napostrophe" unicode="&#x149;" horiz-adv-x="712" 
d="M56 512q32 27 48 54t16 69q-2 -1 -8 -1q-12 0 -23 7.5t-11 24.5t9.5 25.5t24.5 8.5q17 0 27.5 -14.5t10.5 -43.5q0 -51 -21 -86.5t-57 -61.5zM273 478h26l4 -76h2q38 38 77 63t89 25q74 0 109 -44t35 -138v-308h-30v304q0 80 -27 119t-89 39q-45 0 -82.5 -24t-83.5 -72
v-366h-30v478z" />
    <glyph glyph-name="Omacron" unicode="&#x14c;" horiz-adv-x="640" 
d="M320 -12q-59 0 -108 24.5t-84.5 69.5t-55.5 108.5t-20 141.5t20 141t55.5 107t84.5 68t108 24q58 0 107.5 -24t85 -68t55.5 -107t20 -141t-20 -141.5t-55.5 -108.5t-85 -69.5t-107.5 -24.5zM320 18q52 0 95.5 22.5t74 63.5t47.5 99t17 129t-17 128.5t-47.5 98t-74 62
t-95.5 21.5q-53 0 -96 -21.5t-73.5 -62t-47.5 -98t-17 -128.5t17 -129t47.5 -99t73.5 -63.5t96 -22.5zM210 764h220v-28h-220v28z" />
    <glyph glyph-name="omacron" unicode="&#x14d;" horiz-adv-x="532" 
d="M54 238q0 60 17 107t46 79t67.5 49t81.5 17t81.5 -17t67.5 -49t46 -79t17 -107q0 -59 -17 -105.5t-46 -78.5t-67.5 -49t-81.5 -17t-81.5 17t-67.5 49t-46 78.5t-17 105.5zM86 238q0 -50 14 -90.5t38 -70t57 -45.5t71 -16t71 16t57 45.5t38 70t14 90.5q0 49 -14 90.5
t-38 71t-57 46t-71 16.5t-71 -16.5t-57 -46t-38 -71t-14 -90.5zM156 636h220v-28h-220v28z" />
    <glyph glyph-name="uni014E" unicode="&#x14e;" horiz-adv-x="640" 
d="M320 -12q-59 0 -108 24.5t-84.5 69.5t-55.5 108.5t-20 141.5t20 141t55.5 107t84.5 68t108 24q58 0 107.5 -24t85 -68t55.5 -107t20 -141t-20 -141.5t-55.5 -108.5t-85 -69.5t-107.5 -24.5zM320 18q52 0 95.5 22.5t74 63.5t47.5 99t17 129t-17 128.5t-47.5 98t-74 62
t-95.5 21.5q-53 0 -96 -21.5t-73.5 -62t-47.5 -98t-17 -128.5t17 -129t47.5 -99t73.5 -63.5t96 -22.5zM320 712q-28 0 -48 10t-33.5 25t-21 33t-9.5 34h26q2 -14 8 -27.5t16.5 -24t26 -17.5t35.5 -7t35 7t25.5 17.5t17 24t8.5 27.5h26q-2 -16 -9.5 -34t-21 -33t-33.5 -25
t-48 -10z" />
    <glyph glyph-name="uni014F" unicode="&#x14f;" horiz-adv-x="532" 
d="M54 238q0 60 17 107t46 79t67.5 49t81.5 17t81.5 -17t67.5 -49t46 -79t17 -107q0 -59 -17 -105.5t-46 -78.5t-67.5 -49t-81.5 -17t-81.5 17t-67.5 49t-46 78.5t-17 105.5zM86 238q0 -50 14 -90.5t38 -70t57 -45.5t71 -16t71 16t57 45.5t38 70t14 90.5q0 49 -14 90.5
t-38 71t-57 46t-71 16.5t-71 -16.5t-57 -46t-38 -71t-14 -90.5zM266 576q-30 0 -51 11.5t-34.5 28.5t-21 37.5t-9.5 38.5h26q2 -17 8.5 -33t17.5 -28.5t27 -20.5t37 -8t37 8t27 20.5t17.5 28.5t8.5 33h26q-2 -18 -9.5 -38.5t-21 -37.5t-34.5 -28.5t-51 -11.5z" />
    <glyph glyph-name="Ohungarumlaut" unicode="&#x150;" horiz-adv-x="640" 
d="M320 -12q-59 0 -108 24.5t-84.5 69.5t-55.5 108.5t-20 141.5t20 141t55.5 107t84.5 68t108 24q58 0 107.5 -24t85 -68t55.5 -107t20 -141t-20 -141.5t-55.5 -108.5t-85 -69.5t-107.5 -24.5zM320 18q52 0 95.5 22.5t74 63.5t47.5 99t17 129t-17 128.5t-47.5 98t-74 62
t-95.5 21.5q-53 0 -96 -21.5t-73.5 -62t-47.5 -98t-17 -128.5t17 -129t47.5 -99t73.5 -63.5t96 -22.5zM234 710l68 104h38l-78 -104h-28zM442 814h38l-78 -104h-28z" />
    <glyph glyph-name="ohungarumlaut" unicode="&#x151;" horiz-adv-x="532" 
d="M54 238q0 60 17 107t46 79t67.5 49t81.5 17t81.5 -17t67.5 -49t46 -79t17 -107q0 -59 -17 -105.5t-46 -78.5t-67.5 -49t-81.5 -17t-81.5 17t-67.5 49t-46 78.5t-17 105.5zM86 238q0 -50 14 -90.5t38 -70t57 -45.5t71 -16t71 16t57 45.5t38 70t14 90.5q0 49 -14 90.5
t-38 71t-57 46t-71 16.5t-71 -16.5t-57 -46t-38 -71t-14 -90.5zM262 706h36l-82 -136h-26zM390 706h36l-82 -136h-26z" />
    <glyph glyph-name="OE" unicode="&#x152;" horiz-adv-x="820" 
d="M52 332q0 73 19 133.5t57.5 104t96.5 67t137 23.5h406v-28h-302v-266h250v-28h-250v-310h312v-28h-416q-79 0 -137 24.5t-96.5 68t-57.5 104.5t-19 135zM86 332q0 -65 16.5 -121t51 -96.5t87 -63.5t125.5 -23h68v604h-68q-73 0 -125.5 -22.5t-87 -62.5t-51 -95
t-16.5 -120z" />
    <glyph glyph-name="oe" unicode="&#x153;" horiz-adv-x="852" 
d="M86 238q0 -50 13.5 -90.5t37 -70t55.5 -45.5t70 -16t70.5 16t56 45.5t36.5 70t13 90.5q0 49 -13 90.5t-36.5 71t-56 46t-70.5 16.5t-70 -16.5t-55.5 -46t-37 -71t-13.5 -90.5zM54 238q0 60 17 107t45.5 79t66.5 49t79 17q59 0 111.5 -37.5t78.5 -112.5q26 69 74 109.5
t108 40.5q83 0 131.5 -56.5t48.5 -163.5v-15.5t-2 -16.5h-344q-1 -48 13 -88.5t38 -70.5t57.5 -46.5t71.5 -16.5q41 0 73 12t59 32l14 -26q-27 -17 -60.5 -31.5t-87.5 -14.5q-66 0 -117 40t-77 108q-27 -74 -76 -111t-114 -37q-41 0 -79 17t-66.5 49t-45.5 78.5t-17 105.5z
M784 264q0 100 -41 149t-109 49q-32 0 -60 -14.5t-50.5 -41t-37 -63t-18.5 -79.5h316z" />
    <glyph glyph-name="Racute" unicode="&#x154;" horiz-adv-x="544" 
d="M266 340q92 0 141 36.5t49 113.5q0 78 -49 110t-141 32h-138v-292h138zM462 0l-186 312h-148v-312h-32v660h182q49 0 88 -9.5t66.5 -30t42.5 -52.5t15 -78q0 -79 -47.5 -123.5t-130.5 -52.5l188 -314h-38zM275 710h-30l94 104h44z" />
    <glyph glyph-name="racute" unicode="&#x155;" horiz-adv-x="306" 
d="M96 478h26l4 -90h2q24 44 58 73t78 29q12 0 23 -2t23 -8l-8 -28q-12 5 -20 6.5t-22 1.5q-33 0 -69 -28.5t-65 -99.5v-332h-30v478zM170 572h-28l92 134h40z" />
    <glyph glyph-name="uni0156" unicode="&#x156;" horiz-adv-x="544" 
d="M266 340q92 0 141 36.5t49 113.5q0 78 -49 110t-141 32h-138v-292h138zM462 0l-186 312h-148v-312h-32v660h182q49 0 88 -9.5t66.5 -30t42.5 -52.5t15 -78q0 -79 -47.5 -123.5t-130.5 -52.5l188 -314h-38zM267 -52q38 -9 58 -25.5t20 -46.5q0 -19 -10 -33t-26.5 -24
t-38 -16t-43.5 -9l-6 26q42 6 68 18.5t26 33.5q0 24 -18.5 34.5t-39.5 15.5l10 26v0z" />
    <glyph glyph-name="uni0157" unicode="&#x157;" horiz-adv-x="306" 
d="M96 478h26l4 -90h2q24 44 58 73t78 29q12 0 23 -2t23 -8l-8 -28q-12 5 -20 6.5t-22 1.5q-33 0 -69 -28.5t-65 -99.5v-332h-30v478zM84 -52q38 -9 58 -25.5t20 -46.5q0 -19 -10 -33t-26.5 -24t-38 -16t-43.5 -9l-6 26q42 6 68 18.5t26 33.5q0 24 -18.5 34.5t-39.5 15.5
l10 26v0z" />
    <glyph glyph-name="Rcaron" unicode="&#x158;" horiz-adv-x="544" 
d="M266 340q92 0 141 36.5t49 113.5q0 78 -49 110t-141 32h-138v-292h138zM462 0l-186 312h-148v-312h-32v660h182q49 0 88 -9.5t66.5 -30t42.5 -52.5t15 -78q0 -79 -47.5 -123.5t-130.5 -52.5l188 -314h-38zM387 814l-96 -104h-28l-96 104h30l78 -74h4l78 74h30z" />
    <glyph glyph-name="rcaron" unicode="&#x159;" horiz-adv-x="306" 
d="M96 478h26l4 -90h2q24 44 58 73t78 29q12 0 23 -2t23 -8l-8 -28q-12 5 -20 6.5t-22 1.5q-33 0 -69 -28.5t-65 -99.5v-332h-30v478zM86 706h28l78 -102h4l78 102h28l-94 -134h-28z" />
    <glyph glyph-name="Sacute" unicode="&#x15a;" horiz-adv-x="508" 
d="M66 110q36 -42 87 -67t111 -25q40 0 72 10.5t54.5 29t35 44.5t12.5 58q0 33 -10 55.5t-26.5 39t-38.5 28.5t-47 23l-102 46q-21 9 -44.5 22t-43.5 31.5t-33 45t-13 63.5q0 35 14 64t39 50t59 32.5t74 11.5q60 0 105.5 -23.5t74.5 -54.5l-20 -22q-29 32 -69 51t-91 19
q-69 0 -111.5 -34.5t-42.5 -91.5q0 -31 11.5 -52.5t29 -37t37.5 -26t38 -18.5l102 -46q27 -12 52.5 -26.5t45 -34.5t31 -47.5t11.5 -65.5t-15 -69.5t-42 -55t-65 -36.5t-84 -13q-74 0 -128 28t-92 72zM263 710h-30l94 104h44z" />
    <glyph glyph-name="sacute" unicode="&#x15b;" horiz-adv-x="400" 
d="M54 78q30 -26 66 -44t90 -18q30 0 53 8.5t38 22.5t23 32.5t8 38.5q0 24 -11 41.5t-28 31t-38.5 22.5t-42.5 17q-28 10 -55.5 21t-50 26t-36.5 36.5t-14 52.5q0 25 9.5 47.5t28.5 39.5t47 27t65 10q36 0 71 -13.5t61 -34.5l-18 -24q-24 18 -51 31t-65 13q-30 0 -52 -8
t-36 -21.5t-21 -30t-7 -34.5q0 -21 10 -36.5t26.5 -27.5t37 -21t42.5 -17q28 -11 57 -22t51.5 -26.5t37 -39t14.5 -58.5q0 -26 -10.5 -50t-30 -42t-49 -29t-66.5 -11q-54 0 -98 19.5t-76 46.5zM183 572h-28l92 134h40z" />
    <glyph glyph-name="Scircumflex" unicode="&#x15c;" horiz-adv-x="508" 
d="M66 110q36 -42 87 -67t111 -25q40 0 72 10.5t54.5 29t35 44.5t12.5 58q0 33 -10 55.5t-26.5 39t-38.5 28.5t-47 23l-102 46q-21 9 -44.5 22t-43.5 31.5t-33 45t-13 63.5q0 35 14 64t39 50t59 32.5t74 11.5q60 0 105.5 -23.5t74.5 -54.5l-20 -22q-29 32 -69 51t-91 19
q-69 0 -111.5 -34.5t-42.5 -91.5q0 -31 11.5 -52.5t29 -37t37.5 -26t38 -18.5l102 -46q27 -12 52.5 -26.5t45 -34.5t31 -47.5t11.5 -65.5t-15 -69.5t-42 -55t-65 -36.5t-84 -13q-74 0 -128 28t-92 72zM155 710l96 104h28l96 -104h-30l-78 74h-4l-78 -74h-30z" />
    <glyph glyph-name="scircumflex" unicode="&#x15d;" horiz-adv-x="400" 
d="M54 78q30 -26 66 -44t90 -18q30 0 53 8.5t38 22.5t23 32.5t8 38.5q0 24 -11 41.5t-28 31t-38.5 22.5t-42.5 17q-28 10 -55.5 21t-50 26t-36.5 36.5t-14 52.5q0 25 9.5 47.5t28.5 39.5t47 27t65 10q36 0 71 -13.5t61 -34.5l-18 -24q-24 18 -51 31t-65 13q-30 0 -52 -8
t-36 -21.5t-21 -30t-7 -34.5q0 -21 10 -36.5t26.5 -27.5t37 -21t42.5 -17q28 -11 57 -22t51.5 -26.5t37 -39t14.5 -58.5q0 -26 -10.5 -50t-30 -42t-49 -29t-66.5 -11q-54 0 -98 19.5t-76 46.5zM193 706h28l94 -134h-28l-78 102h-4l-78 -102h-28z" />
    <glyph glyph-name="uni015E" unicode="&#x15e;" horiz-adv-x="508" 
d="M66 110q36 -42 87 -67t111 -25q40 0 72 10.5t54.5 29t35 44.5t12.5 58q0 33 -10 55.5t-26.5 39t-38.5 28.5t-47 23l-102 46q-21 9 -44.5 22t-43.5 31.5t-33 45t-13 63.5q0 35 14 64t39 50t59 32.5t74 11.5q60 0 105.5 -23.5t74.5 -54.5l-20 -22q-29 32 -69 51t-91 19
q-69 0 -111.5 -34.5t-42.5 -91.5q0 -31 11.5 -52.5t29 -37t37.5 -26t38 -18.5l102 -46q27 -12 52.5 -26.5t45 -34.5t31 -47.5t11.5 -65.5t-15 -69.5t-42 -55t-65 -36.5t-84 -13q-74 0 -128 28t-92 72zM259 2h28l-30 -58q24 -8 42 -23t18 -45q0 -19 -10 -33t-26.5 -24
t-38 -16t-43.5 -9l-6 26q42 6 68 18.5t26 33.5q0 24 -19.5 35t-48.5 19z" />
    <glyph glyph-name="uni015F" unicode="&#x15f;" horiz-adv-x="400" 
d="M54 78q30 -26 66 -44t90 -18q30 0 53 8.5t38 22.5t23 32.5t8 38.5q0 24 -11 41.5t-28 31t-38.5 22.5t-42.5 17q-28 10 -55.5 21t-50 26t-36.5 36.5t-14 52.5q0 25 9.5 47.5t28.5 39.5t47 27t65 10q36 0 71 -13.5t61 -34.5l-18 -24q-24 18 -51 31t-65 13q-30 0 -52 -8
t-36 -21.5t-21 -30t-7 -34.5q0 -21 10 -36.5t26.5 -27.5t37 -21t42.5 -17q28 -11 57 -22t51.5 -26.5t37 -39t14.5 -58.5q0 -26 -10.5 -50t-30 -42t-49 -29t-66.5 -11q-54 0 -98 19.5t-76 46.5zM207 2h28l-30 -58q24 -8 42 -23t18 -45q0 -19 -10 -33t-26.5 -24t-38 -16
t-43.5 -9l-6 26q42 6 68 18.5t26 33.5q0 24 -19.5 35t-48.5 19z" />
    <glyph glyph-name="Scaron" unicode="&#x160;" horiz-adv-x="508" 
d="M66 110q36 -42 87 -67t111 -25q40 0 72 10.5t54.5 29t35 44.5t12.5 58q0 33 -10 55.5t-26.5 39t-38.5 28.5t-47 23l-102 46q-21 9 -44.5 22t-43.5 31.5t-33 45t-13 63.5q0 35 14 64t39 50t59 32.5t74 11.5q60 0 105.5 -23.5t74.5 -54.5l-20 -22q-29 32 -69 51t-91 19
q-69 0 -111.5 -34.5t-42.5 -91.5q0 -31 11.5 -52.5t29 -37t37.5 -26t38 -18.5l102 -46q27 -12 52.5 -26.5t45 -34.5t31 -47.5t11.5 -65.5t-15 -69.5t-42 -55t-65 -36.5t-84 -13q-74 0 -128 28t-92 72zM375 814l-96 -104h-28l-96 104h30l78 -74h4l78 74h30z" />
    <glyph glyph-name="scaron" unicode="&#x161;" horiz-adv-x="400" 
d="M54 78q30 -26 66 -44t90 -18q30 0 53 8.5t38 22.5t23 32.5t8 38.5q0 24 -11 41.5t-28 31t-38.5 22.5t-42.5 17q-28 10 -55.5 21t-50 26t-36.5 36.5t-14 52.5q0 25 9.5 47.5t28.5 39.5t47 27t65 10q36 0 71 -13.5t61 -34.5l-18 -24q-24 18 -51 31t-65 13q-30 0 -52 -8
t-36 -21.5t-21 -30t-7 -34.5q0 -21 10 -36.5t26.5 -27.5t37 -21t42.5 -17q28 -11 57 -22t51.5 -26.5t37 -39t14.5 -58.5q0 -26 -10.5 -50t-30 -42t-49 -29t-66.5 -11q-54 0 -98 19.5t-76 46.5zM99 706h28l78 -102h4l78 102h28l-94 -134h-28z" />
    <glyph glyph-name="uni0162" unicode="&#x162;" horiz-adv-x="512" 
d="M240 632h-214v28h460v-28h-214v-632h-32v632zM244 2h28l-30 -58q24 -8 42 -23t18 -45q0 -19 -10 -33t-26.5 -24t-38 -16t-43.5 -9l-6 26q42 6 68 18.5t26 33.5q0 24 -19.5 35t-48.5 19z" />
    <glyph glyph-name="uni0163" unicode="&#x163;" horiz-adv-x="302" 
d="M106 450h-76v24l76 4l4 140h26v-140h142v-28h-142v-328q0 -23 3.5 -42.5t12.5 -33.5t25.5 -22t42.5 -8q14 0 31 5t31 11l10 -26q-21 -8 -41.5 -13t-32.5 -5q-33 0 -54.5 10t-34.5 28t-18 43.5t-5 56.5v324zM193 2h28l-30 -58q24 -8 42 -23t18 -45q0 -19 -10 -33
t-26.5 -24t-38 -16t-43.5 -9l-6 26q42 6 68 18.5t26 33.5q0 24 -19.5 35t-48.5 19z" />
    <glyph glyph-name="Tcaron" unicode="&#x164;" horiz-adv-x="512" 
d="M240 632h-214v28h460v-28h-214v-632h-32v632zM365 814l-96 -104h-28l-96 104h30l78 -74h4l78 74h30z" />
    <glyph glyph-name="tcaron" unicode="&#x165;" horiz-adv-x="302" 
d="M106 450h-76v24l76 4l4 140h26v-140h142v-28h-142v-328q0 -23 3.5 -42.5t12.5 -33.5t25.5 -22t42.5 -8q14 0 31 5t31 11l10 -26q-21 -8 -41.5 -13t-32.5 -5q-33 0 -54.5 10t-34.5 28t-18 43.5t-5 56.5v324zM238 548l-2 204h30v-48l-6 -156h-22z" />
    <glyph glyph-name="Utilde" unicode="&#x168;" horiz-adv-x="622" 
d="M94 660h32v-406q0 -68 15 -113.5t40.5 -72.5t59 -38.5t69.5 -11.5q37 0 71 11.5t60 38.5t41.5 72.5t15.5 113.5v406h30v-414q0 -77 -19 -126.5t-50 -79t-70 -41t-79 -11.5t-78.5 11.5t-69 41t-49.5 79t-19 126.5v414zM369 718q-20 0 -34.5 9t-28 20t-26.5 20t-29 9
q-17 0 -28 -16t-14 -42h-22q1 14 5 29.5t12 28t20 20.5t29 8q19 0 34 -9t28.5 -20t26.5 -20t29 -9q17 0 28 16t14 42h22q-1 -14 -5 -29.5t-12 -28t-20.5 -20.5t-28.5 -8z" />
    <glyph glyph-name="utilde" unicode="&#x169;" horiz-adv-x="524" 
d="M88 478h30v-304q0 -80 27 -119t89 -39q45 0 82 25t82 79v358h30v-478h-26l-4 82h-2q-36 -42 -75 -68t-89 -26q-74 0 -109 44t-35 138v308zM144 582q1 13 4.5 27.5t11 26.5t19 20t29.5 8t32.5 -9t27.5 -19.5t25 -19t25 -8.5q17 0 26 15t12 41h24q-1 -13 -4.5 -27.5
t-11 -26.5t-19 -20t-29.5 -8t-32 8.5t-27 19t-25 19.5t-26 9q-17 0 -26 -15t-12 -41h-24v0z" />
    <glyph glyph-name="Umacron" unicode="&#x16a;" horiz-adv-x="622" 
d="M94 660h32v-406q0 -68 15 -113.5t40.5 -72.5t59 -38.5t69.5 -11.5q37 0 71 11.5t60 38.5t41.5 72.5t15.5 113.5v406h30v-414q0 -77 -19 -126.5t-50 -79t-70 -41t-79 -11.5t-78.5 11.5t-69 41t-49.5 79t-19 126.5v414zM201 764h220v-28h-220v28z" />
    <glyph glyph-name="umacron" unicode="&#x16b;" horiz-adv-x="524" 
d="M88 478h30v-304q0 -80 27 -119t89 -39q45 0 82 25t82 79v358h30v-478h-26l-4 82h-2q-36 -42 -75 -68t-89 -26q-74 0 -109 44t-35 138v308zM147 636h220v-28h-220v28z" />
    <glyph glyph-name="Ubreve" unicode="&#x16c;" horiz-adv-x="622" 
d="M94 660h32v-406q0 -68 15 -113.5t40.5 -72.5t59 -38.5t69.5 -11.5q37 0 71 11.5t60 38.5t41.5 72.5t15.5 113.5v406h30v-414q0 -77 -19 -126.5t-50 -79t-70 -41t-79 -11.5t-78.5 11.5t-69 41t-49.5 79t-19 126.5v414zM311 712q-28 0 -48 10t-33.5 25t-21 33t-9.5 34h26
q2 -14 8 -27.5t16.5 -24t26 -17.5t35.5 -7t35 7t25.5 17.5t17 24t8.5 27.5h26q-2 -16 -9.5 -34t-21 -33t-33.5 -25t-48 -10z" />
    <glyph glyph-name="ubreve" unicode="&#x16d;" horiz-adv-x="524" 
d="M88 478h30v-304q0 -80 27 -119t89 -39q45 0 82 25t82 79v358h30v-478h-26l-4 82h-2q-36 -42 -75 -68t-89 -26q-74 0 -109 44t-35 138v308zM262 576q-30 0 -51 11.5t-34.5 28.5t-21 37.5t-9.5 38.5h26q2 -17 8.5 -33t17.5 -28.5t27 -20.5t37 -8t37 8t27 20.5t17.5 28.5
t8.5 33h26q-2 -18 -9.5 -38.5t-21 -37.5t-34.5 -28.5t-51 -11.5z" />
    <glyph glyph-name="Uring" unicode="&#x16e;" horiz-adv-x="622" 
d="M94 660h32v-406q0 -68 15 -113.5t40.5 -72.5t59 -38.5t69.5 -11.5q37 0 71 11.5t60 38.5t41.5 72.5t15.5 113.5v406h30v-414q0 -77 -19 -126.5t-50 -79t-70 -41t-79 -11.5t-78.5 11.5t-69 41t-49.5 79t-19 126.5v414zM311 700q-33 0 -55.5 22t-22.5 58t22.5 58t55.5 22
q32 0 55 -22t23 -58t-23 -58t-55 -22zM311 722q21 0 36.5 14.5t15.5 43.5q0 27 -15.5 42.5t-36.5 15.5q-23 0 -38.5 -15.5t-15.5 -42.5q0 -29 15.5 -43.5t38.5 -14.5z" />
    <glyph glyph-name="uring" unicode="&#x16f;" horiz-adv-x="524" 
d="M88 478h30v-304q0 -80 27 -119t89 -39q45 0 82 25t82 79v358h30v-478h-26l-4 82h-2q-36 -42 -75 -68t-89 -26q-74 0 -109 44t-35 138v308zM262 538q-33 0 -55.5 23t-22.5 61t22.5 61t55.5 23t55.5 -23t22.5 -61t-22.5 -61t-55.5 -23zM262 560q23 0 38.5 16.5t15.5 45.5
t-15.5 45.5t-38.5 16.5t-38.5 -16.5t-15.5 -45.5t15.5 -45.5t38.5 -16.5z" />
    <glyph glyph-name="Uhungarumlaut" unicode="&#x170;" horiz-adv-x="622" 
d="M94 660h32v-406q0 -68 15 -113.5t40.5 -72.5t59 -38.5t69.5 -11.5q37 0 71 11.5t60 38.5t41.5 72.5t15.5 113.5v406h30v-414q0 -77 -19 -126.5t-50 -79t-70 -41t-79 -11.5t-78.5 11.5t-69 41t-49.5 79t-19 126.5v414zM225 710l68 104h38l-78 -104h-28zM433 814h38
l-78 -104h-28z" />
    <glyph glyph-name="uhungarumlaut" unicode="&#x171;" horiz-adv-x="524" 
d="M88 478h30v-304q0 -80 27 -119t89 -39q45 0 82 25t82 79v358h30v-478h-26l-4 82h-2q-36 -42 -75 -68t-89 -26q-74 0 -109 44t-35 138v308zM258 706h36l-82 -136h-26zM386 706h36l-82 -136h-26z" />
    <glyph glyph-name="Uogonek" unicode="&#x172;" horiz-adv-x="622" 
d="M94 660h32v-406q0 -68 15 -113.5t40.5 -72.5t59 -38.5t69.5 -11.5q37 0 71 11.5t60 38.5t41.5 72.5t15.5 113.5v406h30v-414q0 -64 -13 -106t-34.5 -70.5t-49 -46t-55.5 -31.5q-41 -21 -63.5 -53t-22.5 -59t16 -40.5t36 -13.5q14 0 23.5 3t20.5 11l14 -20
q-11 -9 -28 -15.5t-32 -6.5q-33 0 -56.5 19.5t-23.5 60.5q0 37 20 61.5t44 48.5q-47 -1 -89 11t-73.5 42t-49.5 80t-18 125v414z" />
    <glyph glyph-name="uogonek" unicode="&#x173;" horiz-adv-x="524" 
d="M88 478h30v-304q0 -80 26.5 -119t89.5 -39q45 0 82 25t82 79v358h30v-478q-41 -27 -63.5 -57t-22.5 -63q0 -27 15 -40.5t35 -13.5q14 0 23.5 3t20.5 11l14 -20q-11 -9 -28 -15.5t-32 -6.5q-33 0 -55.5 19.5t-22.5 60.5q0 38 24 69t66 61l-4 74h-2q-36 -42 -75 -68
t-89 -26q-74 0 -109 44t-35 138v308z" />
    <glyph glyph-name="Wcircumflex" unicode="&#x174;" horiz-adv-x="756" 
d="M26 660h34l88 -400l48 -216h4q12 54 25 108t27 108l108 400h36l108 -400l54 -216h4q12 54 23 108t23 108l88 400h32l-152 -660h-32l-128 474q-9 39 -18 74t-18 74h-4q-9 -39 -19 -74t-19 -74l-126 -474h-32zM268 710l96 104h28l96 -104h-30l-78 74h-4l-78 -74h-30z" />
    <glyph glyph-name="wcircumflex" unicode="&#x175;" horiz-adv-x="672" 
d="M24 478h34l92 -322q9 -33 17.5 -63.5t16.5 -62.5h4q9 32 18 62.5t18 63.5l92 322h42l92 -322q9 -33 18 -63.5t18 -62.5h4q9 32 18 62.5t18 63.5l90 322h32l-140 -478h-42l-90 312q-11 35 -19 68t-19 68h-4q-9 -35 -18.5 -69t-21.5 -69l-88 -310h-38zM323 706h28l94 -134
h-28l-78 102h-4l-78 -102h-28z" />
    <glyph glyph-name="Ycircumflex" unicode="&#x176;" horiz-adv-x="428" 
d="M198 272l-198 388h34l106 -214q18 -36 35 -71t37 -71h4q20 36 38.5 71t35.5 71l106 214h32l-198 -388v-272h-32v272zM104 710l96 104h28l96 -104h-30l-78 74h-4l-78 -74h-30z" />
    <glyph glyph-name="ycircumflex" unicode="&#x177;" horiz-adv-x="424" 
d="M28 -184q8 -3 18.5 -5.5t21.5 -2.5q45 0 76.5 38.5t51.5 97.5l14 44l-198 490h34l122 -314q12 -30 26 -66t28 -68h4q12 32 23.5 68t22.5 66l108 314h32l-192 -546q-9 -28 -22.5 -55.5t-32.5 -49.5t-43.5 -35.5t-55.5 -13.5q-26 0 -46 10l8 28v0zM210 706h28l94 -134h-28
l-78 102h-4l-78 -102h-28z" />
    <glyph glyph-name="Ydieresis" unicode="&#x178;" horiz-adv-x="428" 
d="M198 272l-198 388h34l106 -214q18 -36 35 -71t37 -71h4q20 36 38.5 71t35.5 71l106 214h32l-198 -388v-272h-32v272zM138 728q-14 0 -23 8.5t-9 23.5t9 23.5t23 8.5t23 -8.5t9 -23.5t-9 -23.5t-23 -8.5zM290 728q-14 0 -23 8.5t-9 23.5t9 23.5t23 8.5t23 -8.5t9 -23.5
t-9 -23.5t-23 -8.5z" />
    <glyph glyph-name="Zacute" unicode="&#x179;" horiz-adv-x="530" 
d="M48 18l392 614h-358v28h398v-18l-392 -614h396v-28h-436v18zM273 710h-30l94 104h44z" />
    <glyph glyph-name="zacute" unicode="&#x17a;" horiz-adv-x="396" 
d="M26 16l294 434h-262v28h302v-16l-294 -434h304v-28h-344v16zM191 572h-28l92 134h40z" />
    <glyph glyph-name="Zdotaccent" unicode="&#x17b;" horiz-adv-x="530" 
d="M48 18l392 614h-358v28h398v-18l-392 -614h396v-28h-436v18zM275 724q-14 0 -24 9.5t-10 26.5q0 15 10 24.5t24 9.5t24 -9.5t10 -24.5q0 -17 -10 -26.5t-24 -9.5z" />
    <glyph glyph-name="zdotaccent" unicode="&#x17c;" horiz-adv-x="396" 
d="M26 16l294 434h-262v28h302v-16l-294 -434h304v-28h-344v16zM215 600q-14 0 -23 9.5t-9 26.5q0 15 9 24.5t23 9.5t23 -9.5t9 -24.5q0 -17 -9 -26.5t-23 -9.5z" />
    <glyph glyph-name="Zcaron" unicode="&#x17d;" horiz-adv-x="530" 
d="M48 18l392 614h-358v28h398v-18l-392 -614h396v-28h-436v18zM385 814l-96 -104h-28l-96 104h30l78 -74h4l78 74h30z" />
    <glyph glyph-name="zcaron" unicode="&#x17e;" horiz-adv-x="396" 
d="M26 16l294 434h-262v28h302v-16l-294 -434h304v-28h-344v16zM107 706h28l78 -102h4l78 102h28l-94 -134h-28z" />
    <glyph glyph-name="uni0180" unicode="&#x180;" horiz-adv-x="522" 
d="M126 82q42 -36 81.5 -51t68.5 -15q39 0 71.5 16.5t56.5 45.5t37 69.5t13 88.5q0 43 -8.5 81t-28 65.5t-50.5 43.5t-75 16q-38 0 -79.5 -21.5t-86.5 -62.5v-276zM124 392q38 32 81.5 55t88.5 23q49 0 85 -16.5t60 -47t35.5 -74t11.5 -96.5q0 -59 -17 -105t-46 -77.5
t-67.5 -48.5t-81.5 -17q-35 0 -73 15t-73 41h-2l-4 -44h-26v584h-78v24l78 4v110h30v-110h192v-28h-192v-96z" />
    <glyph glyph-name="uni018F" unicode="&#x18f;" horiz-adv-x="636" 
d="M92 304q3 -65 20.5 -118.5t46.5 -91t69 -58t88 -20.5q51 0 92.5 20.5t72 58.5t49 91t21.5 118h-459zM130 598q32 32 81 53t109 21q62 0 111 -24t83 -68t52 -107t18 -141t-19.5 -141.5t-55 -108.5t-85 -69.5t-108.5 -24.5t-106.5 25.5t-80.5 70.5t-51 107t-18 135v6h492
q0 70 -15.5 128t-45 98.5t-72 63t-97.5 22.5q-51 0 -96.5 -18t-77.5 -50z" />
    <glyph glyph-name="uni0192" unicode="&#x192;" horiz-adv-x="472" 
d="M426 628q-12 5 -27 10.5t-37 5.5q-27 0 -45.5 -15t-31 -39t-19.5 -55t-10 -63l-7 -68h143v-28h-146l-30 -276q-10 -94 -43.5 -146t-102.5 -52q-18 0 -33 4t-29 12l12 24q24 -12 54 -12q28 0 47.5 13.5t32.5 36t20.5 53t11.5 65.5l30 278h-98v24l66 4h35l7 66q5 46 15 83
t26.5 63.5t40.5 41t56 14.5q26 0 42 -6t30 -12z" />
    <glyph glyph-name="Ohorn" unicode="&#x1a0;" horiz-adv-x="640" 
d="M320 18q52 0 95.5 22.5t74 63.5t47.5 99t17 129t-17 128.5t-47.5 98t-74 62t-95.5 21.5q-53 0 -96 -21.5t-73.5 -62t-47.5 -98t-17 -128.5t17 -129t47.5 -99t73.5 -63.5t96 -22.5zM554 764q18 -27 18 -52q0 -38 -26 -60.5t-71 -33.5q53 -43 83 -116t30 -170
q0 -78 -20 -141.5t-55.5 -108.5t-85 -69.5t-107.5 -24.5q-59 0 -108 24.5t-84.5 69.5t-55.5 108.5t-20 141.5t20 141t55.5 107t84.5 68t108 24q67 0 123 -32q51 7 75 24t24 46q0 18 -14 38z" />
    <glyph glyph-name="ohorn" unicode="&#x1a1;" horiz-adv-x="532" 
d="M266 16q38 0 71 16t57 45.5t38 70t14 90.5q0 49 -14 90.5t-38 71t-57 46t-71 16.5t-71 -16.5t-57 -46t-38 -71t-14 -90.5q0 -50 14 -90.5t38 -70t57 -45.5t71 -16zM460 592q18 -27 18 -52q0 -21 -7.5 -36.5t-20.5 -26.5t-29 -18t-32 -11q41 -32 65 -85t24 -125
q0 -59 -17 -105.5t-46 -78.5t-67.5 -49t-81.5 -17t-81.5 17t-67.5 49t-46 78.5t-17 105.5q0 60 17 107t46 79t67.5 49t81.5 17q48 0 92 -22q90 13 90 70q0 18 -14 38z" />
    <glyph glyph-name="Uhorn" unicode="&#x1af;" horiz-adv-x="632" 
d="M608 784q18 -27 18 -52q0 -23 -8.5 -38.5t-22 -26.5t-31 -18t-36.5 -11v-392q0 -77 -19 -126.5t-50 -79t-70 -41t-79 -11.5t-78.5 11.5t-69 41t-49.5 79t-19 126.5v414h32v-406q0 -68 15 -113.5t40.5 -72.5t59 -38.5t69.5 -11.5q37 0 71 11.5t60 38.5t41.5 72.5
t15.5 113.5v406h6q48 8 70 24t22 46q0 18 -14 38z" />
    <glyph glyph-name="uhorn" unicode="&#x1b0;" horiz-adv-x="524" 
d="M498 602q18 -27 18 -52q0 -23 -8.5 -38.5t-21.5 -26t-28.5 -17t-29.5 -10.5v-458h-26l-4 82h-2q-36 -42 -75 -68t-89 -26q-74 0 -109 44t-35 138v308h30v-304q0 -80 27 -119t89 -39q45 0 82 25t82 79v358h2q41 6 63.5 23t22.5 47q0 18 -14 38z" />
    <glyph glyph-name="uni01CD" unicode="&#x1cd;" horiz-adv-x="512" 
d="M380 264l-46 132q-21 60 -39.5 114t-36.5 116h-4q-18 -62 -36.5 -116t-39.5 -114l-47 -132h249zM390 236h-269l-83 -236h-32l236 660h28l236 -660h-34zM366 814l-96 -104h-28l-96 104h30l78 -74h4l78 74h30z" />
    <glyph glyph-name="uni01CE" unicode="&#x1ce;" horiz-adv-x="494" 
d="M68 117q0 80 76 121.5t238 59.5q1 29 -3.5 58.5t-17.5 53t-36.5 38t-60.5 14.5q-26 0 -49 -5.5t-43 -14.5t-36.5 -19t-27.5 -19l-16 24q11 8 28.5 19t40 20.5t49.5 16t56 6.5q42 0 70 -14.5t45 -39.5t24 -57.5t7 -68.5v-310h-26l-4 64h-2q-38 -30 -82 -53t-92 -23
q-28 0 -53 7.5t-44 23t-30 40t-11 58.5zM100 118q0 -28 8.5 -47.5t23.5 -31.5t34.5 -17.5t41.5 -5.5q44 0 85 20.5t89 61.5v174q-79 -9 -133 -22.5t-87 -32.5t-47.5 -43.5t-14.5 -55.5zM152 706h28l78 -102h4l78 102h28l-94 -134h-28z" />
    <glyph glyph-name="uni01CF" unicode="&#x1cf;" horiz-adv-x="224" 
d="M96 660h32v-660h-32v660zM222 814l-96 -104h-28l-96 104h30l78 -74h4l78 74h30z" />
    <glyph glyph-name="uni01D0" unicode="&#x1d0;" horiz-adv-x="222" 
d="M96 478h30v-478h-30v478zM3 706h28l78 -102h4l78 102h28l-94 -134h-28z" />
    <glyph glyph-name="uni01D1" unicode="&#x1d1;" horiz-adv-x="640" 
d="M320 -12q-59 0 -108 24.5t-84.5 69.5t-55.5 108.5t-20 141.5t20 141t55.5 107t84.5 68t108 24q58 0 107.5 -24t85 -68t55.5 -107t20 -141t-20 -141.5t-55.5 -108.5t-85 -69.5t-107.5 -24.5zM320 18q52 0 95.5 22.5t74 63.5t47.5 99t17 129t-17 128.5t-47.5 98t-74 62
t-95.5 21.5q-53 0 -96 -21.5t-73.5 -62t-47.5 -98t-17 -128.5t17 -129t47.5 -99t73.5 -63.5t96 -22.5zM430 814l-96 -104h-28l-96 104h30l78 -74h4l78 74h30z" />
    <glyph glyph-name="uni01D2" unicode="&#x1d2;" horiz-adv-x="532" 
d="M54 238q0 60 17 107t46 79t67.5 49t81.5 17t81.5 -17t67.5 -49t46 -79t17 -107q0 -59 -17 -105.5t-46 -78.5t-67.5 -49t-81.5 -17t-81.5 17t-67.5 49t-46 78.5t-17 105.5zM86 238q0 -50 14 -90.5t38 -70t57 -45.5t71 -16t71 16t57 45.5t38 70t14 90.5q0 49 -14 90.5
t-38 71t-57 46t-71 16.5t-71 -16.5t-57 -46t-38 -71t-14 -90.5zM158 706h28l78 -102h4l78 102h28l-94 -134h-28z" />
    <glyph glyph-name="uni01D3" unicode="&#x1d3;" horiz-adv-x="622" 
d="M94 660h32v-406q0 -68 15 -113.5t40.5 -72.5t59 -38.5t69.5 -11.5q37 0 71 11.5t60 38.5t41.5 72.5t15.5 113.5v406h30v-414q0 -77 -19 -126.5t-50 -79t-70 -41t-79 -11.5t-78.5 11.5t-69 41t-49.5 79t-19 126.5v414zM421 814l-96 -104h-28l-96 104h30l78 -74h4l78 74h30
z" />
    <glyph glyph-name="uni01D4" unicode="&#x1d4;" horiz-adv-x="524" 
d="M88 478h30v-304q0 -80 27 -119t89 -39q45 0 82 25t82 79v358h30v-478h-26l-4 82h-2q-36 -42 -75 -68t-89 -26q-74 0 -109 44t-35 138v308zM154 706h28l78 -102h4l78 102h28l-94 -134h-28z" />
    <glyph glyph-name="uni01D5" unicode="&#x1d5;" horiz-adv-x="622" 
d="M94 660h32v-406q0 -68 15 -113.5t40.5 -72.5t59 -38.5t69.5 -11.5q37 0 71 11.5t60 38.5t41.5 72.5t15.5 113.5v406h30v-414q0 -77 -19 -126.5t-50 -79t-70 -41t-79 -11.5t-78.5 11.5t-69 41t-49.5 79t-19 126.5v414zM201 880h220v-28h-220v28zM235 728q-14 0 -23 8.5
t-9 23.5t9 23.5t23 8.5t23 -8.5t9 -23.5t-9 -23.5t-23 -8.5zM387 728q-14 0 -23 8.5t-9 23.5t9 23.5t23 8.5t23 -8.5t9 -23.5t-9 -23.5t-23 -8.5z" />
    <glyph glyph-name="uni01D6" unicode="&#x1d6;" horiz-adv-x="524" 
d="M88 478h30v-304q0 -80 27 -119t89 -39q45 0 82 25t82 79v358h30v-478h-26l-4 82h-2q-36 -42 -75 -68t-89 -26q-74 0 -109 44t-35 138v308zM186 602q-14 0 -23 9t-9 23t9 23t23 9t23 -9t9 -23t-9 -23t-23 -9zM338 602q-14 0 -23 9t-9 23t9 23t23 9t23 -9t9 -23t-9 -23
t-23 -9zM150 774h222v-28h-222v28z" />
    <glyph glyph-name="uni01D7" unicode="&#x1d7;" horiz-adv-x="622" 
d="M94 660h32v-406q0 -68 15 -113.5t40.5 -72.5t59 -38.5t69.5 -11.5q37 0 71 11.5t60 38.5t41.5 72.5t15.5 113.5v406h30v-414q0 -77 -19 -126.5t-50 -79t-70 -41t-79 -11.5t-78.5 11.5t-69 41t-49.5 79t-19 126.5v414zM375 930h40l-108 -104h-28zM235 728q-14 0 -23 8.5
t-9 23.5t9 23.5t23 8.5t23 -8.5t9 -23.5t-9 -23.5t-23 -8.5zM387 728q-14 0 -23 8.5t-9 23.5t9 23.5t23 8.5t23 -8.5t9 -23.5t-9 -23.5t-23 -8.5z" />
    <glyph glyph-name="uni01D8" unicode="&#x1d8;" horiz-adv-x="524" 
d="M88 478h30v-304q0 -80 27 -119t89 -39q45 0 82 25t82 79v358h30v-478h-26l-4 82h-2q-36 -42 -75 -68t-89 -26q-74 0 -109 44t-35 138v308zM302 802h42l-94 -96h-28zM186 602q-14 0 -23 9t-9 23t9 23t23 9t23 -9t9 -23t-9 -23t-23 -9zM338 602q-14 0 -23 9t-9 23t9 23
t23 9t23 -9t9 -23t-9 -23t-23 -9z" />
    <glyph glyph-name="uni01D9" unicode="&#x1d9;" horiz-adv-x="622" 
d="M94 660h32v-406q0 -68 15 -113.5t40.5 -72.5t59 -38.5t69.5 -11.5q37 0 71 11.5t60 38.5t41.5 72.5t15.5 113.5v406h30v-414q0 -77 -19 -126.5t-50 -79t-70 -41t-79 -11.5t-78.5 11.5t-69 41t-49.5 79t-19 126.5v414zM235 728q-14 0 -23 8.5t-9 23.5t9 23.5t23 8.5
t23 -8.5t9 -23.5t-9 -23.5t-23 -8.5zM387 728q-14 0 -23 8.5t-9 23.5t9 23.5t23 8.5t23 -8.5t9 -23.5t-9 -23.5t-23 -8.5zM421 930l-96 -104h-28l-96 104h30l78 -74h4l78 74h30z" />
    <glyph glyph-name="uni01DA" unicode="&#x1da;" horiz-adv-x="524" 
d="M88 478h30v-304q0 -80 27 -119t89 -39q45 0 82 25t82 79v358h30v-478h-26l-4 82h-2q-36 -42 -75 -68t-89 -26q-74 0 -109 44t-35 138v308zM154 802h30l76 -68h4l76 68h30l-94 -96h-28zM186 602q-14 0 -23 9t-9 23t9 23t23 9t23 -9t9 -23t-9 -23t-23 -9zM338 602
q-14 0 -23 9t-9 23t9 23t23 9t23 -9t9 -23t-9 -23t-23 -9z" />
    <glyph glyph-name="uni01DB" unicode="&#x1db;" horiz-adv-x="622" 
d="M94 660h32v-406q0 -68 15 -113.5t40.5 -72.5t59 -38.5t69.5 -11.5q37 0 71 11.5t60 38.5t41.5 72.5t15.5 113.5v406h30v-414q0 -77 -19 -126.5t-50 -79t-70 -41t-79 -11.5t-78.5 11.5t-69 41t-49.5 79t-19 126.5v414zM343 826h-28l-108 104h40zM387 728q-14 0 -23 8.5
t-9 23.5t9 23.5t23 8.5t23 -8.5t9 -23.5t-9 -23.5t-23 -8.5zM235 728q-14 0 -23 8.5t-9 23.5t9 23.5t23 8.5t23 -8.5t9 -23.5t-9 -23.5t-23 -8.5z" />
    <glyph glyph-name="uni01DC" unicode="&#x1dc;" horiz-adv-x="524" 
d="M88 478h30v-304q0 -80 27 -119t89 -39q45 0 82 25t82 79v358h30v-478h-26l-4 82h-2q-36 -42 -75 -68t-89 -26q-74 0 -109 44t-35 138v308zM302 706h-28l-94 96h42zM338 602q-14 0 -23 9t-9 23t9 23t23 9t23 -9t9 -23t-9 -23t-23 -9zM186 602q-14 0 -23 9t-9 23t9 23t23 9
t23 -9t9 -23t-9 -23t-23 -9z" />
    <glyph glyph-name="Gcaron" unicode="&#x1e6;" horiz-adv-x="592" 
d="M52 332q0 78 20.5 141t58 107t91 68t118.5 24q33 0 60 -7t48.5 -18.5t38 -25.5t29.5 -27l-20 -22q-26 29 -63 49.5t-93 20.5q-59 0 -106 -21.5t-80 -62t-50.5 -98t-17.5 -128.5t17 -129t48.5 -99t77 -63.5t103.5 -22.5q48 0 90 14t68 40v218h-164v28h196v-256
q-30 -33 -78.5 -53.5t-113.5 -20.5q-63 0 -114.5 24.5t-87.5 69.5t-56 108.5t-20 141.5zM449 814l-96 -104h-28l-96 104h30l78 -74h4l78 74h30z" />
    <glyph glyph-name="gcaron" unicode="&#x1e7;" horiz-adv-x="480" 
d="M86 -98q0 -48 43 -78t123 -30q43 0 77.5 11.5t58.5 29.5t37 41.5t13 47.5q0 42 -29.5 60t-86.5 18h-110q-5 0 -21.5 1.5t-36.5 6.5q-36 -24 -52 -52.5t-16 -55.5zM54 -100q0 32 19.5 63t52.5 55v4q-18 11 -30 30t-12 46q0 33 18.5 55t33.5 33v4q-23 20 -41.5 54t-18.5 78
q0 36 12.5 66.5t35 53t52 35.5t64.5 13q20 0 35.5 -3.5t26.5 -8.5h160v-28h-116q26 -21 42 -54t16 -74q0 -36 -12.5 -67t-35 -54t-52.5 -36t-64 -13q-21 0 -43 5.5t-39 16.5q-17 -14 -29.5 -31t-12.5 -43q0 -14 4.5 -26t15 -21t28.5 -14t46 -5h106q80 0 117 -26t37 -82
q0 -30 -15.5 -59t-44 -51.5t-69.5 -36t-91 -13.5q-92 0 -144 37t-52 97zM240 180q26 0 50 10.5t42 29t29 44.5t11 58t-10.5 58t-28.5 44t-42 28t-51 10t-51 -10t-42 -28t-28.5 -44t-10.5 -58t11 -58t29 -44.5t42 -29t50 -10.5zM122 706h28l78 -102h4l78 102h28l-94 -134h-28
z" />
    <glyph glyph-name="uni01EA" unicode="&#x1ea;" horiz-adv-x="640" 
d="M272 -122q0 29 15 57.5t45 52.5q-65 -1 -116.5 23.5t-88 69.5t-56 109t-19.5 142t20 141t55.5 107t84.5 68t108 24q58 0 107.5 -24t85 -68t55.5 -107t20 -141q0 -131 -51 -213t-151 -127q-44 -20 -64 -51.5t-20 -60.5q0 -27 16 -40.5t36 -13.5q14 0 23.5 3t20.5 11
l14 -20q-11 -9 -28 -15.5t-32 -6.5q-33 0 -56.5 19.5t-23.5 60.5zM320 18q52 0 95.5 22.5t74 63.5t47.5 99t17 129t-17 128.5t-47.5 98t-74 62t-95.5 21.5q-53 0 -96 -21.5t-73.5 -62t-47.5 -98t-17 -128.5t17 -129t47.5 -99t73.5 -63.5t96 -22.5z" />
    <glyph glyph-name="uni01EB" unicode="&#x1eb;" horiz-adv-x="532" 
d="M216 -122q0 19 5.5 36t14 31t18.5 25t18 18q-45 0 -84.5 17t-69.5 49t-47 78.5t-17 105.5q0 60 17 107t46 79t67.5 49t81.5 17t81.5 -17t67.5 -49t46 -79t17 -107q0 -52 -11.5 -91t-32 -68t-49.5 -50t-63 -37q-33 -15 -54.5 -47t-21.5 -65q0 -27 15 -40.5t35 -13.5
q14 0 23.5 3t20.5 11l14 -20q-11 -9 -28 -15.5t-32 -6.5q-33 0 -55.5 19.5t-22.5 60.5zM86 238q0 -50 14 -90.5t38 -70t57 -45.5t71 -16t71 16t57 45.5t38 70t14 90.5q0 49 -14 90.5t-38 71t-57 46t-71 16.5t-71 -16.5t-57 -46t-38 -71t-14 -90.5z" />
    <glyph glyph-name="uni0218" unicode="&#x218;" horiz-adv-x="508" 
d="M66 110q36 -42 87 -67t111 -25q40 0 72 10.5t54.5 29t35 44.5t12.5 58q0 33 -10 55.5t-26.5 39t-38.5 28.5t-47 23l-102 46q-21 9 -44.5 22t-43.5 31.5t-33 45t-13 63.5q0 35 14 64t39 50t59 32.5t74 11.5q60 0 105.5 -23.5t74.5 -54.5l-20 -22q-29 32 -69 51t-91 19
q-69 0 -111.5 -34.5t-42.5 -91.5q0 -31 11.5 -52.5t29 -37t37.5 -26t38 -18.5l102 -46q27 -12 52.5 -26.5t45 -34.5t31 -47.5t11.5 -65.5t-15 -69.5t-42 -55t-65 -36.5t-84 -13q-74 0 -128 28t-92 72zM239 -52q38 -9 58 -25.5t20 -46.5q0 -19 -10 -33t-26.5 -24t-38 -16
t-43.5 -9l-6 26q42 6 68 18.5t26 33.5q0 24 -18.5 34.5t-39.5 15.5l10 26v0z" />
    <glyph glyph-name="uni0219" unicode="&#x219;" horiz-adv-x="400" 
d="M54 78q30 -26 66 -44t90 -18q30 0 53 8.5t38 22.5t23 32.5t8 38.5q0 24 -11 41.5t-28 31t-38.5 22.5t-42.5 17q-28 10 -55.5 21t-50 26t-36.5 36.5t-14 52.5q0 25 9.5 47.5t28.5 39.5t47 27t65 10q36 0 71 -13.5t61 -34.5l-18 -24q-24 18 -51 31t-65 13q-30 0 -52 -8
t-36 -21.5t-21 -30t-7 -34.5q0 -21 10 -36.5t26.5 -27.5t37 -21t42.5 -17q28 -11 57 -22t51.5 -26.5t37 -39t14.5 -58.5q0 -26 -10.5 -50t-30 -42t-49 -29t-66.5 -11q-54 0 -98 19.5t-76 46.5zM191 -52q38 -9 58 -25.5t20 -46.5q0 -19 -10 -33t-26.5 -24t-38 -16t-43.5 -9
l-6 26q42 6 68 18.5t26 33.5q0 24 -18.5 34.5t-39.5 15.5l10 26v0z" />
    <glyph glyph-name="uni021A" unicode="&#x21a;" horiz-adv-x="512" 
d="M240 632h-214v28h460v-28h-214v-632h-32v632zM233 -52q38 -9 58 -25.5t20 -46.5q0 -19 -10 -33t-26.5 -24t-38 -16t-43.5 -9l-6 26q42 6 68 18.5t26 33.5q0 24 -18.5 34.5t-39.5 15.5l10 26v0z" />
    <glyph glyph-name="uni021B" unicode="&#x21b;" horiz-adv-x="302" 
d="M106 450h-76v24l76 4l4 140h26v-140h142v-28h-142v-328q0 -23 3.5 -42.5t12.5 -33.5t25.5 -22t42.5 -8q14 0 31 5t31 11l10 -26q-21 -8 -41.5 -13t-32.5 -5q-33 0 -54.5 10t-34.5 28t-18 43.5t-5 56.5v324zM171 -52q38 -9 58 -25.5t20 -46.5q0 -19 -10 -33t-26.5 -24
t-38 -16t-43.5 -9l-6 26q42 6 68 18.5t26 33.5q0 24 -18.5 34.5t-39.5 15.5l10 26v0z" />
    <glyph glyph-name="uni0237" unicode="&#x237;" horiz-adv-x="222" 
d="M96 478h30v-580q0 -69 -24 -100.5t-74 -31.5q-15 0 -31 3.5t-27 8.5l8 26q9 -3 23 -6.5t29 -3.5q21 0 34 8t20 22.5t9.5 34.5t2.5 43v576z" />
    <glyph glyph-name="uni0243" unicode="&#x243;" horiz-adv-x="582" 
d="M284 28q52 0 93.5 9.5t70.5 29.5t44.5 50.5t15.5 72.5q0 75 -58.5 111.5t-165.5 36.5h-140v-132h172v-28h-172v-150h140zM144 366h120q108 0 155 34.5t47 103.5q0 68 -49.5 98t-146.5 30h-126v-266zM380 352q74 -11 117 -51t43 -109q0 -95 -65.5 -143.5t-178.5 -48.5
h-184v178h-78v26l78 2v454h172q100 0 157 -39.5t57 -120.5q0 -53 -29.5 -91t-88.5 -53v-4z" />
    <glyph glyph-name="uni0251" unicode="&#x251;" horiz-adv-x="540" 
d="M86 238q0 -50 11 -90.5t32.5 -70t52.5 -45.5t72 -16q42 0 80.5 21.5t79.5 62.5v296q-41 36 -75.5 51t-72.5 15t-71 -17.5t-57 -48t-38 -71.5t-14 -87zM54 238q0 58 17 104.5t46.5 79.5t68 50.5t82.5 17.5t76.5 -15.5t67.5 -42.5h2l2 46h28v-478h-26l-4 64h-2
q-30 -30 -70 -53t-90 -23q-91 0 -144.5 64t-53.5 186z" />
    <glyph glyph-name="uni0259" unicode="&#x259;" horiz-adv-x="478" 
d="M38 218v15.5t2 16.5h352q0 45 -11.5 83.5t-33 67t-53.5 45t-72 16.5q-44 0 -77.5 -13.5t-62.5 -34.5l-14 26q29 20 65.5 35t90.5 15q43 0 80 -16.5t63.5 -48.5t41.5 -78.5t15 -106.5q0 -59 -14.5 -105.5t-40.5 -79t-62 -50t-79 -17.5q-41 0 -75.5 14.5t-60 43.5t-40 72
t-14.5 100zM68 224q0 -54 12 -93.5t33.5 -65t50.5 -37.5t64 -12q72 0 114.5 55.5t49.5 152.5h-324z" />
    <glyph glyph-name="uni0261" unicode="&#x261;" horiz-adv-x="540" 
d="M108 -156q36 -27 73.5 -39t76.5 -12q77 0 116.5 44.5t39.5 122.5v116q-30 -31 -71 -54.5t-91 -23.5q-90 0 -144 63t-54 183q0 57 17 102.5t46.5 77.5t68 49t82.5 17t76.5 -15t65.5 -41h2l4 44h28v-526q0 -85 -48.5 -135.5t-137.5 -50.5q-50 0 -90.5 14t-75.5 38zM254 26
q42 0 80.5 21.5t79.5 62.5v286q-41 36 -75.5 51t-72.5 15t-71 -17t-57 -46.5t-38 -69t-14 -85.5q0 -49 11 -89t32.5 -68.5t52.5 -44.5t72 -16z" />
    <glyph glyph-name="h.sups" unicode="&#x2b0;" horiz-adv-x="352" 
d="M60 734h28v-136v-72q23 24 51.5 41t60.5 17q57 0 78.5 -33.5t21.5 -86.5v-204h-28v198q0 45 -15 72.5t-63 27.5q-23 0 -48.5 -14t-57.5 -46v-238h-28v474z" />
    <glyph glyph-name="j.sups" unicode="&#x2b2;" horiz-adv-x="152" 
d="M20 108q-12 0 -20 1.5t-20 6.5l8 26q8 -3 13.5 -4.5t16.5 -1.5q27 0 35.5 18t8.5 48v374h28v-370q0 -53 -17.5 -75.5t-52.5 -22.5zM78 652q-12 0 -20 8t-8 20t8 20t20 8t20 -8t8 -20t-8 -20t-20 -8z" />
    <glyph glyph-name="r.sups" unicode="&#x2b3;" horiz-adv-x="214" 
d="M60 576h22l6 -56h4q18 30 39.5 47t50.5 17q9 0 18.5 -1.5t15.5 -4.5l-8 -28q-5 2 -12.5 3t-15.5 1q-23 0 -46.5 -17t-43.5 -61v-216h-30v316z" />
    <glyph glyph-name="w.sups" unicode="&#x2b7;" horiz-adv-x="458" 
d="M16 576h32l56 -204l24 -86h4l24 86l56 204h34l58 -204l24 -86h4l26 86l54 204h30l-94 -316h-38l-54 194l-26 92h-2l-24 -92l-56 -194h-38z" />
    <glyph glyph-name="y.sups" unicode="&#x2b8;" horiz-adv-x="292" 
d="M24 152q12 -6 26 -6q29 0 49.5 23t32.5 61l8 25l-132 321h30l78 -196q8 -20 17.5 -44t18.5 -48h4q8 24 16 46.5t16 45.5l66 196h30l-124 -350q-7 -20 -17 -39.5t-23.5 -34.5t-30.5 -24.5t-39 -9.5q-19 0 -34 6l8 28v0z" />
    <glyph glyph-name="uni02BB" unicode="&#x2bb;" horiz-adv-x="208" 
d="M152 688q-32 -27 -48 -54t-16 -69q2 1 8 1q12 0 23 -7.5t11 -24.5t-9.5 -25.5t-24.5 -8.5q-17 0 -27.5 14.5t-10.5 43.5q0 51 21 86.5t57 61.5z" />
    <glyph glyph-name="uni02BC" unicode="&#x2bc;" horiz-adv-x="208" 
d="M56 512q32 27 48 54t16 69q-2 -1 -8 -1q-12 0 -23 7.5t-11 24.5t9.5 25.5t24.5 8.5q17 0 27.5 -14.5t10.5 -43.5q0 -51 -21 -86.5t-57 -61.5z" />
    <glyph glyph-name="uni02BE" unicode="&#x2be;" horiz-adv-x="138" 
d="M34 558q36 0 53 17.5t17 46.5t-17 46.5t-53 17.5v20q44 2 70 -20.5t26 -63.5t-26 -63.5t-70 -20.5v20z" />
    <glyph glyph-name="uni02BF" unicode="&#x2bf;" horiz-adv-x="158" 
d="M122 686q-36 0 -53 -17.5t-17 -46.5t17 -46.5t53 -17.5v-20q-44 -2 -70 20.5t-26 63.5t26 63.5t70 20.5v-20z" />
    <glyph glyph-name="circumflex" unicode="&#x2c6;" horiz-adv-x="532" 
d="M252 706h28l94 -134h-28l-78 102h-4l-78 -102h-28z" />
    <glyph glyph-name="caron" unicode="&#x2c7;" horiz-adv-x="532" 
d="M158 706h28l78 -102h4l78 102h28l-94 -134h-28z" />
    <glyph glyph-name="uni02C8" unicode="&#x2c8;" horiz-adv-x="88" 
d="M28 696h32l-6 -168h-20z" />
    <glyph glyph-name="uni02C9" unicode="&#x2c9;" horiz-adv-x="252" 
d="M16 636h220v-28h-220v28z" />
    <glyph glyph-name="uni02CA" unicode="&#x2ca;" horiz-adv-x="216" 
d="M82 572h-28l92 134h40z" />
    <glyph glyph-name="uni02CB" unicode="&#x2cb;" horiz-adv-x="216" 
d="M26 706h40l92 -134h-28z" />
    <glyph glyph-name="uni02CC" unicode="&#x2cc;" horiz-adv-x="88" 
d="M54 -76l6 -168h-32l6 168h20z" />
    <glyph glyph-name="breve" unicode="&#x2d8;" horiz-adv-x="532" 
d="M266 576q-30 0 -51 11.5t-34.5 28.5t-21 37.5t-9.5 38.5h26q2 -17 8.5 -33t17.5 -28.5t27 -20.5t37 -8t37 8t27 20.5t17.5 28.5t8.5 33h26q-2 -18 -9.5 -38.5t-21 -37.5t-34.5 -28.5t-51 -11.5z" />
    <glyph glyph-name="dotaccent" unicode="&#x2d9;" horiz-adv-x="532" 
d="M266 600q-14 0 -23 9.5t-9 26.5q0 15 9 24.5t23 9.5t23 -9.5t9 -24.5q0 -17 -9 -26.5t-23 -9.5z" />
    <glyph glyph-name="ring" unicode="&#x2da;" horiz-adv-x="532" 
d="M266 538q-33 0 -55.5 23t-22.5 61t22.5 61t55.5 23t55.5 -23t22.5 -61t-22.5 -61t-55.5 -23zM266 560q23 0 38.5 16.5t15.5 45.5t-15.5 45.5t-38.5 16.5t-38.5 -16.5t-15.5 -45.5t15.5 -45.5t38.5 -16.5z" />
    <glyph glyph-name="ogonek" unicode="&#x2db;" horiz-adv-x="532" 
d="M216 -122q0 38 21.5 70.5t50.5 55.5h38q-36 -26 -58 -58.5t-22 -65.5q0 -27 15 -40.5t35 -13.5q14 0 23.5 3t20.5 11l14 -20q-11 -9 -28 -15.5t-32 -6.5q-33 0 -55.5 19.5t-22.5 60.5z" />
    <glyph glyph-name="tilde" unicode="&#x2dc;" horiz-adv-x="532" 
d="M148 582q1 13 4.5 27.5t11 26.5t19 20t29.5 8t32.5 -9t27.5 -19.5t25 -19t25 -8.5q17 0 26 15t12 41h24q-1 -13 -4.5 -27.5t-11 -26.5t-19 -20t-29.5 -8t-32 8.5t-27 19t-25 19.5t-26 9q-17 0 -26 -15t-12 -41h-24v0z" />
    <glyph glyph-name="hungarumlaut" unicode="&#x2dd;" horiz-adv-x="532" 
d="M262 706h36l-82 -136h-26zM390 706h36l-82 -136h-26z" />
    <glyph glyph-name="l.sups" unicode="&#x2e1;" horiz-adv-x="158" 
d="M60 734h28v-434q0 -22 16 -22h6t8 2l6 -24q-5 -2 -9.5 -3t-12.5 -1q-23 0 -32.5 13.5t-9.5 40.5v428z" />
    <glyph glyph-name="s.sups" unicode="&#x2e2;" horiz-adv-x="272" 
d="M40 318q21 -17 46 -28.5t58 -11.5q35 0 54.5 18t19.5 44q0 14 -7 24.5t-18 18.5t-25 14t-28 11q-18 7 -36 14.5t-33 18t-24 25.5t-9 36q0 30 25 56t73 26q30 0 54 -9t42 -23l-18 -22q-18 14 -34.5 21t-43.5 7q-35 0 -51.5 -17t-16.5 -37q0 -14 6 -24t16.5 -17.5t24.5 -13
t29 -11.5q19 -8 37.5 -15t33.5 -17t24 -25t9 -37q0 -41 -29.5 -66.5t-74.5 -25.5q-38 0 -68.5 13t-53.5 31z" />
    <glyph glyph-name="x.sups" unicode="&#x2e3;" horiz-adv-x="274" 
d="M120 426l-102 150h34l52 -78l34 -52h4l32 52l50 78h32l-100 -152l108 -164h-34l-54 84l-38 58h-4l-40 -58l-54 -84h-32z" />
    <glyph glyph-name="uni0300" unicode="&#x300;" 
d="M-80 706h40l92 -134h-28z" />
    <glyph glyph-name="uni0301" unicode="&#x301;" 
d="M-24 572h-28l92 134h40z" />
    <glyph glyph-name="uni0302" unicode="&#x302;" 
d="M-14 706h28l94 -134h-28l-78 102h-4l-78 -102h-28z" />
    <glyph glyph-name="uni0303" unicode="&#x303;" 
d="M-118 582q1 13 4.5 27.5t11 26.5t19 20t29.5 8t32.5 -9t27.5 -19.5t25 -19t25 -8.5q17 0 26 15t12 41h24q-1 -13 -4.5 -27.5t-11 -26.5t-19 -20t-29.5 -8t-32 8.5t-27 19t-25 19.5t-26 9q-17 0 -26 -15t-12 -41h-24v0z" />
    <glyph glyph-name="uni0304" unicode="&#x304;" 
d="M-110 636h220v-28h-220v28z" />
    <glyph glyph-name="uni0306" unicode="&#x306;" 
d="M0 576q-30 0 -51 11.5t-34.5 28.5t-21 37.5t-9.5 38.5h26q2 -17 8.5 -33t17.5 -28.5t27 -20.5t37 -8t37 8t27 20.5t17.5 28.5t8.5 33h26q-2 -18 -9.5 -38.5t-21 -37.5t-34.5 -28.5t-51 -11.5z" />
    <glyph glyph-name="uni0307" unicode="&#x307;" 
d="M0 600q-14 0 -23 9.5t-9 26.5q0 15 9 24.5t23 9.5t23 -9.5t9 -24.5q0 -17 -9 -26.5t-23 -9.5z" />
    <glyph glyph-name="uni0308" unicode="&#x308;" 
d="M-76 602q-14 0 -23 9t-9 23t9 23t23 9t23 -9t9 -23t-9 -23t-23 -9zM76 602q-14 0 -23 9t-9 23t9 23t23 9t23 -9t9 -23t-9 -23t-23 -9z" />
    <glyph glyph-name="uni0309" unicode="&#x309;" 
d="M-30 572q29 9 47.5 22t18.5 36q0 24 -22.5 36t-63.5 14l2 26q22 -1 42.5 -5t36.5 -13t25.5 -22t9.5 -32t-7.5 -32.5t-20 -23t-28.5 -16.5t-32 -12z" />
    <glyph glyph-name="uni030A" unicode="&#x30a;" 
d="M0 538q-33 0 -55.5 23t-22.5 61t22.5 61t55.5 23t55.5 -23t22.5 -61t-22.5 -61t-55.5 -23zM0 560q23 0 38.5 16.5t15.5 45.5t-15.5 45.5t-38.5 16.5t-38.5 -16.5t-15.5 -45.5t15.5 -45.5t38.5 -16.5z" />
    <glyph glyph-name="uni030B" unicode="&#x30b;" 
d="M-4 706h36l-82 -136h-26zM124 706h36l-82 -136h-26z" />
    <glyph glyph-name="uni030C" unicode="&#x30c;" 
d="M-108 706h28l78 -102h4l78 102h28l-94 -134h-28z" />
    <glyph glyph-name="uni030F" unicode="&#x30f;" 
d="M76 570h-26l-82 136h36zM-52 570h-26l-82 136h36z" />
    <glyph glyph-name="uni0312" unicode="&#x312;" 
d="M40 690q-29 -17 -40.5 -37t-11.5 -44q2 1 8 1q11 0 21.5 -6.5t10.5 -23.5q0 -18 -9 -26t-21 -8q-38 0 -38 58q0 30 15 59t51 49z" />
    <glyph glyph-name="uni0313" unicode="&#x313;" 
d="M-40 568q29 17 40.5 37t11.5 44q-2 -1 -8 -1q-11 0 -21.5 6.5t-10.5 23.5q0 18 9 26t21 8q38 0 38 -58q0 -30 -15 -59t-51 -49z" />
    <glyph glyph-name="uni031B" unicode="&#x31b;" 
d="M-8 468q51 6 74.5 23t23.5 47q0 18 -14 38l26 16q18 -27 18 -52q0 -45 -34 -67.5t-88 -30.5z" />
    <glyph glyph-name="uni0323" unicode="&#x323;" 
d="M0 -190q-14 0 -23 9.5t-9 26.5q0 15 9 24.5t23 9.5t23 -9.5t9 -24.5q0 -17 -9 -26.5t-23 -9.5z" />
    <glyph glyph-name="uni0324" unicode="&#x324;" 
d="M-76 -188q-14 0 -23 9t-9 23t9 23t23 9t23 -9t9 -23t-9 -23t-23 -9zM76 -188q-14 0 -23 9t-9 23t9 23t23 9t23 -9t9 -23t-9 -23t-23 -9z" />
    <glyph glyph-name="uni0326" unicode="&#x326;" 
d="M-24 -52q38 -9 58 -25.5t20 -46.5q0 -19 -10 -33t-26.5 -24t-38 -16t-43.5 -9l-6 26q42 6 68 18.5t26 33.5q0 24 -18.5 34.5t-39.5 15.5l10 26v0z" />
    <glyph glyph-name="uni0327" unicode="&#x327;" 
d="M-4 2h28l-30 -58q24 -8 42 -23t18 -45q0 -19 -10 -33t-26.5 -24t-38 -16t-43.5 -9l-6 26q42 6 68 18.5t26 33.5q0 24 -19.5 35t-48.5 19z" />
    <glyph glyph-name="uni0328" unicode="&#x328;" 
d="M-50 -122q0 38 21.5 70.5t50.5 55.5h38q-36 -26 -58 -58.5t-22 -65.5q0 -27 15 -40.5t35 -13.5q14 0 23.5 3t20.5 11l14 -20q-11 -9 -28 -15.5t-32 -6.5q-33 0 -55.5 19.5t-22.5 60.5z" />
    <glyph glyph-name="uni032E" unicode="&#x32e;" 
d="M0 -202q-30 0 -51 11.5t-34.5 28.5t-21 37.5t-9.5 38.5h26q2 -17 8.5 -33t17.5 -28.5t27 -20.5t37 -8t37 8t27 20.5t17.5 28.5t8.5 33h26q-2 -18 -9.5 -38.5t-21 -37.5t-34.5 -28.5t-51 -11.5z" />
    <glyph glyph-name="uni0331" unicode="&#x331;" 
d="M110 -156h-222v28h222v-28z" />
    <glyph glyph-name="pi" unicode="&#x3c0;" horiz-adv-x="524" 
d="M114 448h-86v26l66 4h396v-30h-80v-378q0 -23 8.5 -38.5t29.5 -15.5q10 0 28 6l6 -26q-12 -5 -20.5 -6.5t-17.5 -1.5q-35 0 -49.5 23t-14.5 65v372h-236v-448h-30v448z" />
    <glyph glyph-name="a.sups" unicode="&#x1d43;" horiz-adv-x="334" 
d="M140 252q-42 0 -69 23t-27 67q0 52 50 79.5t158 38.5q0 20 -3 38t-11 31.5t-22 21t-36 7.5q-32 0 -62.5 -13t-47.5 -25l-12 22q18 12 51.5 27t72.5 15q57 0 77.5 -34t20.5 -88v-202h-22l-6 40h-4q-21 -18 -48 -33t-60 -15zM146 278q24 0 50.5 12.5t55.5 39.5v108
q-99 -11 -138.5 -34.5t-39.5 -59.5q0 -35 19.5 -50.5t52.5 -15.5z" />
    <glyph glyph-name="b.sups" unicode="&#x1d47;" horiz-adv-x="364" 
d="M60 734h28v-138l-2 -64q26 21 52 36.5t58 15.5q66 0 98 -43t32 -117q0 -41 -11 -72.5t-30.5 -54t-45 -34t-53.5 -11.5q-23 0 -48 10t-48 28h-4l-4 -30h-22v474zM88 320q26 -23 52.5 -32.5t47.5 -9.5q47 0 77.5 40t30.5 106q0 59 -24 96.5t-78 37.5q-24 0 -51.5 -14
t-54.5 -40v-184z" />
    <glyph glyph-name="d.sups" unicode="&#x1d48;" horiz-adv-x="364" 
d="M176 252q-65 0 -101.5 44.5t-36.5 127.5q0 37 11.5 66.5t31 50.5t45 32t54.5 11q27 0 50.5 -10t47.5 -28l-2 58v130h28v-474h-22l-6 38h-4q-21 -18 -43.5 -32t-52.5 -14zM178 278q24 0 47.5 14t50.5 38v186q-26 23 -50.5 32.5t-47.5 9.5t-43 -10.5t-35 -28.5t-23.5 -42.5
t-8.5 -52.5q0 -66 26.5 -106t83.5 -40z" />
    <glyph glyph-name="e.sups" unicode="&#x1d49;" horiz-adv-x="328" 
d="M180 252q-31 0 -58 10.5t-47 31.5t-31.5 52t-11.5 72q0 38 11 69t30.5 52.5t45.5 33t55 11.5q38 0 62.5 -15t38 -37t18.5 -46t5 -42v-13t-2 -17h-234q0 -60 32 -98t88 -38q27 0 50 9t40 21l14 -22q-20 -12 -45 -23t-61 -11zM270 440q0 20 -5 41t-16 38t-29.5 28t-45.5 11
q-47 0 -76.5 -32t-35.5 -86h208z" />
    <glyph glyph-name="g.sups" unicode="&#x1d4d;" horiz-adv-x="328" 
d="M64 199q0 -31 27.5 -48t78.5 -17q54 0 87 24t33 54q0 26 -20 36t-56 10h-68q-6 0 -17.5 0.5t-22.5 3.5q-42 -27 -42 -63zM36 196q0 43 46 74v4q-12 8 -20 21t-8 31q0 20 12 34t23 22v4q-16 13 -28.5 35t-12.5 51q0 25 9 45.5t24 35.5t36 23t45 8q16 0 27 -2.5t22 -7.5
h103v-26h-72q15 -12 24.5 -32.5t9.5 -43.5q0 -25 -9 -46t-24.5 -36t-36 -23.5t-44.5 -8.5q-14 0 -28 3t-26 11q-11 -8 -18.5 -18.5t-7.5 -25.5q0 -18 13.5 -29t48.5 -11h69q55 0 80 -17.5t25 -56.5q0 -20 -10.5 -39t-30 -34t-48 -24t-63.5 -9q-62 0 -96 23.5t-34 64.5z
M162 384q35 0 60.5 24.5t25.5 63.5q0 40 -25.5 63t-60.5 23q-38 0 -62 -22.5t-24 -63.5q0 -39 24 -63.5t62 -24.5z" />
    <glyph glyph-name="k.sups" unicode="&#x1d4f;" horiz-adv-x="310" 
d="M60 734h28v-346h4l158 188h36l-106 -126l124 -190h-34l-110 168l-72 -86v-82h-28v474z" />
    <glyph glyph-name="m.sups" unicode="&#x1d50;" horiz-adv-x="544" 
d="M60 576h22l4 -48h4q21 24 45.5 40t56.5 16q33 0 56 -15.5t32 -48.5q24 26 52 45t60 19q26 0 44.5 -9t30 -25t16.5 -38t5 -48v-204h-28v198q0 45 -15 72.5t-59 27.5q-23 0 -45.5 -14t-52.5 -46v-238h-28v198q0 45 -15 72.5t-59 27.5q-23 0 -45.5 -14t-52.5 -46v-238h-28
v316z" />
    <glyph glyph-name="o.sups" unicode="&#x1d52;" horiz-adv-x="358" 
d="M178 252q-30 0 -56.5 11.5t-46 32.5t-30.5 52t-11 70q0 40 11 71t30.5 52t46 32t56.5 11t56 -11t45.5 -32t31 -52t11.5 -71q0 -39 -11.5 -70t-31 -52t-45.5 -32.5t-56 -11.5zM178 278q51 0 82.5 39t31.5 101q0 63 -31.5 101.5t-82.5 38.5t-82.5 -38.5t-31.5 -101.5
q0 -62 31.5 -101t82.5 -39z" />
    <glyph glyph-name="p.sups" unicode="&#x1d56;" horiz-adv-x="364" 
d="M60 576h22l6 -40h4q21 18 46.5 33t57.5 15q66 0 98 -43t32 -117q0 -41 -11 -72.5t-30.5 -54t-45 -34t-53.5 -11.5q-23 0 -50 10t-50 29l2 -59v-112h-28v456zM88 320q26 -23 52.5 -32.5t47.5 -9.5q47 0 77.5 40t30.5 106q0 59 -24 96.5t-78 37.5q-24 0 -51.5 -14
t-54.5 -40v-184z" />
    <glyph glyph-name="t.sups" unicode="&#x1d57;" horiz-adv-x="210" 
d="M70 550h-51v24l51 2l4 94h24v-94h96v-26h-96v-202q0 -32 12 -51t44 -19q19 0 42 10l8 -24q-12 -5 -27.5 -8.5t-26.5 -3.5q-23 0 -38.5 7t-24.5 20t-13 31t-4 40v200z" />
    <glyph glyph-name="u.sups" unicode="&#x1d58;" horiz-adv-x="360" 
d="M160 252q-57 0 -78.5 33.5t-21.5 86.5v204h28v-198q0 -23 3 -41t11.5 -31.5t23.5 -20.5t38 -7q24 0 50 14t58 46v238h28v-316h-22l-4 48h-4q-23 -24 -50.5 -40t-59.5 -16z" />
    <glyph glyph-name="v.sups" unicode="&#x1d5b;" horiz-adv-x="294" 
d="M8 576h30l72 -196l34 -92h4l36 92l72 196h30l-122 -316h-36z" />
    <glyph glyph-name="c.sups" unicode="&#x1d9c;" horiz-adv-x="300" 
d="M182 252q-65 0 -106.5 43t-41.5 123q0 40 12 71t32.5 52t47.5 32t56 11q33 0 55 -11t39 -25l-16 -20q-18 15 -34.5 22.5t-45.5 7.5q-50 0 -83 -39t-33 -101t32.5 -101t85.5 -39q29 0 49 9t37 23l14 -20q-18 -15 -41 -26.5t-59 -11.5z" />
    <glyph glyph-name="f.sups" unicode="&#x1da0;" horiz-adv-x="176" 
d="M186 708q-8 3 -17 5.5t-23 2.5q-26 0 -38 -20t-12 -50v-70h76v-24h-76v-292h-28v292h-46v22l46 2v66q0 47 20 73.5t58 26.5q14 0 24 -2t24 -8z" />
    <glyph glyph-name="z.sups" unicode="&#x1dbb;" horiz-adv-x="272" 
d="M18 276l192 274h-170v26h208v-18l-192 -272h198v-26h-236v16z" />
    <glyph glyph-name="uni1E0C" unicode="&#x1e0c;" horiz-adv-x="594" 
d="M96 660h148q76 0 132 -23.5t92.5 -67t54 -104t17.5 -133.5q0 -74 -17.5 -135t-54 -104.5t-92.5 -68t-132 -24.5h-148v660zM240 28q70 0 120.5 23t83 63.5t47.5 96.5t15 121t-15 120t-47.5 95t-83 62.5t-120.5 22.5h-112v-604h112zM294 -190q-14 0 -23 9.5t-9 26.5
q0 15 9 24.5t23 9.5t23 -9.5t9 -24.5q0 -17 -9 -26.5t-23 -9.5z" />
    <glyph glyph-name="uni1E0D" unicode="&#x1e0d;" horiz-adv-x="540" 
d="M54 238q0 58 17 104.5t46.5 79.5t68 50.5t82.5 17.5t77 -15.5t71 -44.5l-2 90v202h30v-722h-26l-4 64h-2q-30 -30 -70 -53t-90 -23q-91 0 -144.5 64t-53.5 186zM86 238q0 -50 11 -90.5t32.5 -70t52.5 -45.5t72 -16q42 0 80.5 21.5t79.5 62.5v296q-41 36 -75.5 51
t-72.5 15t-71 -17.5t-57 -48t-38 -71.5t-14 -87zM294 -190q-14 0 -23 9.5t-9 26.5q0 15 9 24.5t23 9.5t23 -9.5t9 -24.5q0 -17 -9 -26.5t-23 -9.5z" />
    <glyph glyph-name="uni1E0E" unicode="&#x1e0e;" horiz-adv-x="594" 
d="M96 660h148q76 0 132 -23.5t92.5 -67t54 -104t17.5 -133.5q0 -74 -17.5 -135t-54 -104.5t-92.5 -68t-132 -24.5h-148v660zM240 28q70 0 120.5 23t83 63.5t47.5 96.5t15 121t-15 120t-47.5 95t-83 62.5t-120.5 22.5h-112v-604h112zM404 -156h-222v28h222v-28z" />
    <glyph glyph-name="uni1E0F" unicode="&#x1e0f;" horiz-adv-x="540" 
d="M54 238q0 58 17 104.5t46.5 79.5t68 50.5t82.5 17.5t77 -15.5t71 -44.5l-2 90v202h30v-722h-26l-4 64h-2q-30 -30 -70 -53t-90 -23q-91 0 -144.5 64t-53.5 186zM86 238q0 -50 11 -90.5t32.5 -70t52.5 -45.5t72 -16q42 0 80.5 21.5t79.5 62.5v296q-41 36 -75.5 51
t-72.5 15t-71 -17.5t-57 -48t-38 -71.5t-14 -87zM403 -156h-222v28h222v-28z" />
    <glyph glyph-name="uni1E20" unicode="&#x1e20;" horiz-adv-x="592" 
d="M52 332q0 78 20.5 141t58 107t91 68t118.5 24q33 0 60 -7t48.5 -18.5t38 -25.5t29.5 -27l-20 -22q-26 29 -63 49.5t-93 20.5q-59 0 -106 -21.5t-80 -62t-50.5 -98t-17.5 -128.5t17 -129t48.5 -99t77 -63.5t103.5 -22.5q48 0 90 14t68 40v218h-164v28h196v-256
q-30 -33 -78.5 -53.5t-113.5 -20.5q-63 0 -114.5 24.5t-87.5 69.5t-56 108.5t-20 141.5zM229 764h220v-28h-220v28z" />
    <glyph glyph-name="uni1E21" unicode="&#x1e21;" horiz-adv-x="480" 
d="M86 -98q0 -48 43 -78t123 -30q43 0 77.5 11.5t58.5 29.5t37 41.5t13 47.5q0 42 -29.5 60t-86.5 18h-110q-5 0 -21.5 1.5t-36.5 6.5q-36 -24 -52 -52.5t-16 -55.5zM54 -100q0 32 19.5 63t52.5 55v4q-18 11 -30 30t-12 46q0 33 18.5 55t33.5 33v4q-23 20 -41.5 54t-18.5 78
q0 36 12.5 66.5t35 53t52 35.5t64.5 13q20 0 35.5 -3.5t26.5 -8.5h160v-28h-116q26 -21 42 -54t16 -74q0 -36 -12.5 -67t-35 -54t-52.5 -36t-64 -13q-21 0 -43 5.5t-39 16.5q-17 -14 -29.5 -31t-12.5 -43q0 -14 4.5 -26t15 -21t28.5 -14t46 -5h106q80 0 117 -26t37 -82
q0 -30 -15.5 -59t-44 -51.5t-69.5 -36t-91 -13.5q-92 0 -144 37t-52 97zM240 180q26 0 50 10.5t42 29t29 44.5t11 58t-10.5 58t-28.5 44t-42 28t-51 10t-51 -10t-42 -28t-28.5 -44t-10.5 -58t11 -58t29 -44.5t42 -29t50 -10.5zM120 636h220v-28h-220v28z" />
    <glyph glyph-name="uni1E24" unicode="&#x1e24;" horiz-adv-x="626" 
d="M96 660h32v-294h370v294h32v-660h-32v338h-370v-338h-32v660zM313 -190q-14 0 -23 9.5t-9 26.5q0 15 9 24.5t23 9.5t23 -9.5t9 -24.5q0 -17 -9 -26.5t-23 -9.5z" />
    <glyph glyph-name="uni1E25" unicode="&#x1e25;" horiz-adv-x="522" 
d="M96 722h30v-214v-108q39 39 78.5 64.5t89.5 25.5q74 0 109 -44t35 -138v-308h-30v304q0 80 -27 119t-89 39q-45 0 -82.5 -24t-83.5 -72v-366h-30v722zM280 -190q-14 0 -23 9.5t-9 26.5q0 15 9 24.5t23 9.5t23 -9.5t9 -24.5q0 -17 -9 -26.5t-23 -9.5z" />
    <glyph glyph-name="uni1E2A" unicode="&#x1e2a;" horiz-adv-x="626" 
d="M96 660h32v-294h370v294h32v-660h-32v338h-370v-338h-32v660zM313 -202q-30 0 -51 11.5t-34.5 28.5t-21 37.5t-9.5 38.5h26q2 -17 8.5 -33t17.5 -28.5t27 -20.5t37 -8t37 8t27 20.5t17.5 28.5t8.5 33h26q-2 -18 -9.5 -38.5t-21 -37.5t-34.5 -28.5t-51 -11.5z" />
    <glyph glyph-name="uni1E2B" unicode="&#x1e2b;" horiz-adv-x="522" 
d="M96 722h30v-214v-108q39 39 78.5 64.5t89.5 25.5q74 0 109 -44t35 -138v-308h-30v304q0 80 -27 119t-89 39q-45 0 -82.5 -24t-83.5 -72v-366h-30v722zM279 -202q-30 0 -51 11.5t-34.5 28.5t-21 37.5t-9.5 38.5h26q2 -17 8.5 -33t17.5 -28.5t27 -20.5t37 -8t37 8t27 20.5
t17.5 28.5t8.5 33h26q-2 -18 -9.5 -38.5t-21 -37.5t-34.5 -28.5t-51 -11.5z" />
    <glyph glyph-name="uni1E36" unicode="&#x1e36;" horiz-adv-x="452" 
d="M96 660h32v-632h310v-28h-342v660zM282 -190q-14 0 -23 9.5t-9 26.5q0 15 9 24.5t23 9.5t23 -9.5t9 -24.5q0 -17 -9 -26.5t-23 -9.5z" />
    <glyph glyph-name="uni1E37" unicode="&#x1e37;" horiz-adv-x="230" 
d="M96 722h30v-676q0 -30 20 -30h6.5t11.5 2l6 -26q-6 -2 -11.5 -3t-14.5 -1q-23 0 -35.5 14.5t-12.5 49.5v670zM154 -190q-14 0 -23 9.5t-9 26.5q0 15 9 24.5t23 9.5t23 -9.5t9 -24.5q0 -17 -9 -26.5t-23 -9.5z" />
    <glyph glyph-name="uni1E38" unicode="&#x1e38;" horiz-adv-x="452" 
d="M96 660h32v-632h310v-28h-342v660zM4 764h220v-28h-220v28zM282 -190q-14 0 -23 9.5t-9 26.5q0 15 9 24.5t23 9.5t23 -9.5t9 -24.5q0 -17 -9 -26.5t-23 -9.5z" />
    <glyph glyph-name="uni1E39" unicode="&#x1e39;" horiz-adv-x="230" 
d="M96 722h30v-676q0 -30 20 -30h6.5t11.5 2l6 -26q-6 -2 -11.5 -3t-14.5 -1q-23 0 -35.5 14.5t-12.5 49.5v670zM0 864h220v-28h-220v28zM154 -190q-14 0 -23 9.5t-9 26.5q0 15 9 24.5t23 9.5t23 -9.5t9 -24.5q0 -17 -9 -26.5t-23 -9.5z" />
    <glyph glyph-name="uni1E3A" unicode="&#x1e3a;" horiz-adv-x="452" 
d="M96 660h32v-632h310v-28h-342v660zM392 -156h-222v28h222v-28z" />
    <glyph glyph-name="uni1E3B" unicode="&#x1e3b;" horiz-adv-x="230" 
d="M96 722h30v-676q0 -30 20 -30h6.5t11.5 2l6 -26q-6 -2 -11.5 -3t-14.5 -1q-23 0 -35.5 14.5t-12.5 49.5v670zM264 -156h-222v28h222v-28z" />
    <glyph glyph-name="uni1E42" unicode="&#x1e42;" horiz-adv-x="690" 
d="M96 660h52l142 -400l54 -150h4l52 150l142 400h52v-660h-32v460q0 39 1 85t3 87h-4l-51 -144l-147 -414h-38l-148 414l-52 144h-4q2 -41 3 -87t1 -85v-460h-30v660zM346 -190q-14 0 -23 9.5t-9 26.5q0 15 9 24.5t23 9.5t23 -9.5t9 -24.5q0 -17 -9 -26.5t-23 -9.5z" />
    <glyph glyph-name="uni1E43" unicode="&#x1e43;" horiz-adv-x="806" 
d="M96 478h26l4 -76h2q33 38 73 63t79 25q59 0 89.5 -27.5t42.5 -72.5q42 47 82.5 73.5t81.5 26.5q71 0 106.5 -44t35.5 -138v-308h-30v304q0 80 -27.5 119t-86.5 39q-36 0 -73 -24t-79 -72v-366h-30v304q0 80 -27.5 119t-86.5 39q-68 0 -152 -96v-366h-30v478zM416 -190
q-14 0 -23 9.5t-9 26.5q0 15 9 24.5t23 9.5t23 -9.5t9 -24.5q0 -17 -9 -26.5t-23 -9.5z" />
    <glyph glyph-name="uni1E44" unicode="&#x1e44;" horiz-adv-x="624" 
d="M96 660h34l292 -484l76 -130h4q-2 48 -3 93.5t-1 92.5v428h30v-660h-34l-292 484l-76 130h-4q2 -47 3 -90t1 -90v-434h-30v660zM317 724q-14 0 -24 9.5t-10 26.5q0 15 10 24.5t24 9.5t24 -9.5t10 -24.5q0 -17 -10 -26.5t-24 -9.5z" />
    <glyph glyph-name="uni1E45" unicode="&#x1e45;" horiz-adv-x="526" 
d="M96 478h26l4 -76h2q38 38 77 63t89 25q74 0 109 -44t35 -138v-308h-30v304q0 80 -27 119t-89 39q-45 0 -82.5 -24t-83.5 -72v-366h-30v478zM279 600q-14 0 -23 9.5t-9 26.5q0 15 9 24.5t23 9.5t23 -9.5t9 -24.5q0 -17 -9 -26.5t-23 -9.5z" />
    <glyph glyph-name="uni1E46" unicode="&#x1e46;" horiz-adv-x="624" 
d="M96 660h34l292 -484l76 -130h4q-2 48 -3 93.5t-1 92.5v428h30v-660h-34l-292 484l-76 130h-4q2 -47 3 -90t1 -90v-434h-30v660zM311 -190q-14 0 -23 9.5t-9 26.5q0 15 9 24.5t23 9.5t23 -9.5t9 -24.5q0 -17 -9 -26.5t-23 -9.5z" />
    <glyph glyph-name="uni1E47" unicode="&#x1e47;" horiz-adv-x="526" 
d="M96 478h26l4 -76h2q38 38 77 63t89 25q74 0 109 -44t35 -138v-308h-30v304q0 80 -27 119t-89 39q-45 0 -82.5 -24t-83.5 -72v-366h-30v478zM270 -190q-14 0 -23 9.5t-9 26.5q0 15 9 24.5t23 9.5t23 -9.5t9 -24.5q0 -17 -9 -26.5t-23 -9.5z" />
    <glyph glyph-name="uni1E48" unicode="&#x1e48;" horiz-adv-x="624" 
d="M96 660h34l292 -484l76 -130h4q-2 48 -3 93.5t-1 92.5v428h30v-660h-34l-292 484l-76 130h-4q2 -47 3 -90t1 -90v-434h-30v660zM421 -156h-222v28h222v-28z" />
    <glyph glyph-name="uni1E49" unicode="&#x1e49;" horiz-adv-x="526" 
d="M96 478h26l4 -76h2q38 38 77 63t89 25q74 0 109 -44t35 -138v-308h-30v304q0 80 -27 119t-89 39q-45 0 -82.5 -24t-83.5 -72v-366h-30v478zM379 -156h-222v28h222v-28z" />
    <glyph glyph-name="uni1E5A" unicode="&#x1e5a;" horiz-adv-x="544" 
d="M266 340q92 0 141 36.5t49 113.5q0 78 -49 110t-141 32h-138v-292h138zM462 0l-186 312h-148v-312h-32v660h182q49 0 88 -9.5t66.5 -30t42.5 -52.5t15 -78q0 -79 -47.5 -123.5t-130.5 -52.5l188 -314h-38zM291 -190q-14 0 -23 9.5t-9 26.5q0 15 9 24.5t23 9.5t23 -9.5
t9 -24.5q0 -17 -9 -26.5t-23 -9.5z" />
    <glyph glyph-name="uni1E5B" unicode="&#x1e5b;" horiz-adv-x="306" 
d="M96 478h26l4 -90h2q24 44 58 73t78 29q12 0 23 -2t23 -8l-8 -28q-12 5 -20 6.5t-22 1.5q-33 0 -69 -28.5t-65 -99.5v-332h-30v478zM109 -190q-14 0 -23 9.5t-9 26.5q0 15 9 24.5t23 9.5t23 -9.5t9 -24.5q0 -17 -9 -26.5t-23 -9.5z" />
    <glyph glyph-name="uni1E5C" unicode="&#x1e5c;" horiz-adv-x="544" 
d="M266 340q92 0 141 36.5t49 113.5q0 78 -49 110t-141 32h-138v-292h138zM462 0l-186 312h-148v-312h-32v660h182q49 0 88 -9.5t66.5 -30t42.5 -52.5t15 -78q0 -79 -47.5 -123.5t-130.5 -52.5l188 -314h-38zM167 764h220v-28h-220v28zM291 -190q-14 0 -23 9.5t-9 26.5
q0 15 9 24.5t23 9.5t23 -9.5t9 -24.5q0 -17 -9 -26.5t-23 -9.5z" />
    <glyph glyph-name="uni1E5D" unicode="&#x1e5d;" horiz-adv-x="306" 
d="M96 478h26l4 -90h2q24 44 58 73t78 29q12 0 23 -2t23 -8l-8 -28q-12 5 -20 6.5t-22 1.5q-33 0 -69 -28.5t-65 -99.5v-332h-30v478zM84 636h220v-28h-220v28zM109 -190q-14 0 -23 9.5t-9 26.5q0 15 9 24.5t23 9.5t23 -9.5t9 -24.5q0 -17 -9 -26.5t-23 -9.5z" />
    <glyph glyph-name="uni1E5E" unicode="&#x1e5e;" horiz-adv-x="544" 
d="M266 340q92 0 141 36.5t49 113.5q0 78 -49 110t-141 32h-138v-292h138zM462 0l-186 312h-148v-312h-32v660h182q49 0 88 -9.5t66.5 -30t42.5 -52.5t15 -78q0 -79 -47.5 -123.5t-130.5 -52.5l188 -314h-38zM401 -156h-222v28h222v-28z" />
    <glyph glyph-name="uni1E5F" unicode="&#x1e5f;" horiz-adv-x="306" 
d="M96 478h26l4 -90h2q24 44 58 73t78 29q12 0 23 -2t23 -8l-8 -28q-12 5 -20 6.5t-22 1.5q-33 0 -69 -28.5t-65 -99.5v-332h-30v478zM218 -156h-222v28h222v-28z" />
    <glyph glyph-name="uni1E60" unicode="&#x1e60;" horiz-adv-x="508" 
d="M66 110q36 -42 87 -67t111 -25q40 0 72 10.5t54.5 29t35 44.5t12.5 58q0 33 -10 55.5t-26.5 39t-38.5 28.5t-47 23l-102 46q-21 9 -44.5 22t-43.5 31.5t-33 45t-13 63.5q0 35 14 64t39 50t59 32.5t74 11.5q60 0 105.5 -23.5t74.5 -54.5l-20 -22q-29 32 -69 51t-91 19
q-69 0 -111.5 -34.5t-42.5 -91.5q0 -31 11.5 -52.5t29 -37t37.5 -26t38 -18.5l102 -46q27 -12 52.5 -26.5t45 -34.5t31 -47.5t11.5 -65.5t-15 -69.5t-42 -55t-65 -36.5t-84 -13q-74 0 -128 28t-92 72zM265 724q-14 0 -24 9.5t-10 26.5q0 15 10 24.5t24 9.5t24 -9.5t10 -24.5
q0 -17 -10 -26.5t-24 -9.5z" />
    <glyph glyph-name="uni1E61" unicode="&#x1e61;" horiz-adv-x="400" 
d="M54 78q30 -26 66 -44t90 -18q30 0 53 8.5t38 22.5t23 32.5t8 38.5q0 24 -11 41.5t-28 31t-38.5 22.5t-42.5 17q-28 10 -55.5 21t-50 26t-36.5 36.5t-14 52.5q0 25 9.5 47.5t28.5 39.5t47 27t65 10q36 0 71 -13.5t61 -34.5l-18 -24q-24 18 -51 31t-65 13q-30 0 -52 -8
t-36 -21.5t-21 -30t-7 -34.5q0 -21 10 -36.5t26.5 -27.5t37 -21t42.5 -17q28 -11 57 -22t51.5 -26.5t37 -39t14.5 -58.5q0 -26 -10.5 -50t-30 -42t-49 -29t-66.5 -11q-54 0 -98 19.5t-76 46.5zM207 600q-14 0 -23 9.5t-9 26.5q0 15 9 24.5t23 9.5t23 -9.5t9 -24.5
q0 -17 -9 -26.5t-23 -9.5z" />
    <glyph glyph-name="uni1E62" unicode="&#x1e62;" horiz-adv-x="508" 
d="M66 110q36 -42 87 -67t111 -25q40 0 72 10.5t54.5 29t35 44.5t12.5 58q0 33 -10 55.5t-26.5 39t-38.5 28.5t-47 23l-102 46q-21 9 -44.5 22t-43.5 31.5t-33 45t-13 63.5q0 35 14 64t39 50t59 32.5t74 11.5q60 0 105.5 -23.5t74.5 -54.5l-20 -22q-29 32 -69 51t-91 19
q-69 0 -111.5 -34.5t-42.5 -91.5q0 -31 11.5 -52.5t29 -37t37.5 -26t38 -18.5l102 -46q27 -12 52.5 -26.5t45 -34.5t31 -47.5t11.5 -65.5t-15 -69.5t-42 -55t-65 -36.5t-84 -13q-74 0 -128 28t-92 72zM263 -190q-14 0 -23 9.5t-9 26.5q0 15 9 24.5t23 9.5t23 -9.5t9 -24.5
q0 -17 -9 -26.5t-23 -9.5z" />
    <glyph glyph-name="uni1E63" unicode="&#x1e63;" horiz-adv-x="400" 
d="M54 78q30 -26 66 -44t90 -18q30 0 53 8.5t38 22.5t23 32.5t8 38.5q0 24 -11 41.5t-28 31t-38.5 22.5t-42.5 17q-28 10 -55.5 21t-50 26t-36.5 36.5t-14 52.5q0 25 9.5 47.5t28.5 39.5t47 27t65 10q36 0 71 -13.5t61 -34.5l-18 -24q-24 18 -51 31t-65 13q-30 0 -52 -8
t-36 -21.5t-21 -30t-7 -34.5q0 -21 10 -36.5t26.5 -27.5t37 -21t42.5 -17q28 -11 57 -22t51.5 -26.5t37 -39t14.5 -58.5q0 -26 -10.5 -50t-30 -42t-49 -29t-66.5 -11q-54 0 -98 19.5t-76 46.5zM216 -190q-14 0 -23 9.5t-9 26.5q0 15 9 24.5t23 9.5t23 -9.5t9 -24.5
q0 -17 -9 -26.5t-23 -9.5z" />
    <glyph glyph-name="uni1E6C" unicode="&#x1e6c;" horiz-adv-x="512" 
d="M240 632h-214v28h460v-28h-214v-632h-32v632zM257 -190q-14 0 -23 9.5t-9 26.5q0 15 9 24.5t23 9.5t23 -9.5t9 -24.5q0 -17 -9 -26.5t-23 -9.5z" />
    <glyph glyph-name="uni1E6D" unicode="&#x1e6d;" horiz-adv-x="302" 
d="M106 450h-76v24l76 4l4 140h26v-140h142v-28h-142v-328q0 -23 3.5 -42.5t12.5 -33.5t25.5 -22t42.5 -8q14 0 31 5t31 11l10 -26q-21 -8 -41.5 -13t-32.5 -5q-33 0 -54.5 10t-34.5 28t-18 43.5t-5 56.5v324zM196 -190q-14 0 -23 9.5t-9 26.5q0 15 9 24.5t23 9.5t23 -9.5
t9 -24.5q0 -17 -9 -26.5t-23 -9.5z" />
    <glyph glyph-name="uni1E6E" unicode="&#x1e6e;" horiz-adv-x="512" 
d="M240 632h-214v28h460v-28h-214v-632h-32v632zM367 -156h-222v28h222v-28z" />
    <glyph glyph-name="uni1E6F" unicode="&#x1e6f;" horiz-adv-x="302" 
d="M106 450h-76v24l76 4l4 140h26v-140h142v-28h-142v-328q0 -23 3.5 -42.5t12.5 -33.5t25.5 -22t42.5 -8q14 0 31 5t31 11l10 -26q-21 -8 -41.5 -13t-32.5 -5q-33 0 -54.5 10t-34.5 28t-18 43.5t-5 56.5v324zM305 -156h-222v28h222v-28z" />
    <glyph glyph-name="Wgrave" unicode="&#x1e80;" horiz-adv-x="756" 
d="M26 660h34l88 -400l48 -216h4q12 54 25 108t27 108l108 400h36l108 -400l54 -216h4q12 54 23 108t23 108l88 400h32l-152 -660h-32l-128 474q-9 39 -18 74t-18 74h-4q-9 -39 -19 -74t-19 -74l-126 -474h-32zM272 814h44l94 -104h-30z" />
    <glyph glyph-name="wgrave" unicode="&#x1e81;" horiz-adv-x="672" 
d="M24 478h34l92 -322q9 -33 17.5 -63.5t16.5 -62.5h4q9 32 18 62.5t18 63.5l92 322h42l92 -322q9 -33 18 -63.5t18 -62.5h4q9 32 18 62.5t18 63.5l90 322h32l-140 -478h-42l-90 312q-11 35 -19 68t-19 68h-4q-9 -35 -18.5 -69t-21.5 -69l-88 -310h-38zM257 706h40l92 -134
h-28z" />
    <glyph glyph-name="Wacute" unicode="&#x1e82;" horiz-adv-x="756" 
d="M26 660h34l88 -400l48 -216h4q12 54 25 108t27 108l108 400h36l108 -400l54 -216h4q12 54 23 108t23 108l88 400h32l-152 -660h-32l-128 474q-9 39 -18 74t-18 74h-4q-9 -39 -19 -74t-19 -74l-126 -474h-32zM376 710h-30l94 104h44z" />
    <glyph glyph-name="wacute" unicode="&#x1e83;" horiz-adv-x="672" 
d="M24 478h34l92 -322q9 -33 17.5 -63.5t16.5 -62.5h4q9 32 18 62.5t18 63.5l92 322h42l92 -322q9 -33 18 -63.5t18 -62.5h4q9 32 18 62.5t18 63.5l90 322h32l-140 -478h-42l-90 312q-11 35 -19 68t-19 68h-4q-9 -35 -18.5 -69t-21.5 -69l-88 -310h-38zM313 572h-28l92 134
h40z" />
    <glyph glyph-name="Wdieresis" unicode="&#x1e84;" horiz-adv-x="756" 
d="M26 660h34l88 -400l48 -216h4q12 54 25 108t27 108l108 400h36l108 -400l54 -216h4q12 54 23 108t23 108l88 400h32l-152 -660h-32l-128 474q-9 39 -18 74t-18 74h-4q-9 -39 -19 -74t-19 -74l-126 -474h-32zM302 728q-14 0 -23 8.5t-9 23.5t9 23.5t23 8.5t23 -8.5
t9 -23.5t-9 -23.5t-23 -8.5zM454 728q-14 0 -23 8.5t-9 23.5t9 23.5t23 8.5t23 -8.5t9 -23.5t-9 -23.5t-23 -8.5z" />
    <glyph glyph-name="wdieresis" unicode="&#x1e85;" horiz-adv-x="672" 
d="M24 478h34l92 -322q9 -33 17.5 -63.5t16.5 -62.5h4q9 32 18 62.5t18 63.5l92 322h42l92 -322q9 -33 18 -63.5t18 -62.5h4q9 32 18 62.5t18 63.5l90 322h32l-140 -478h-42l-90 312q-11 35 -19 68t-19 68h-4q-9 -35 -18.5 -69t-21.5 -69l-88 -310h-38zM261 602q-14 0 -23 9
t-9 23t9 23t23 9t23 -9t9 -23t-9 -23t-23 -9zM413 602q-14 0 -23 9t-9 23t9 23t23 9t23 -9t9 -23t-9 -23t-23 -9z" />
    <glyph glyph-name="uni1E8E" unicode="&#x1e8e;" horiz-adv-x="428" 
d="M198 272l-198 388h34l106 -214q18 -36 35 -71t37 -71h4q20 36 38.5 71t35.5 71l106 214h32l-198 -388v-272h-32v272zM214 724q-14 0 -24 9.5t-10 26.5q0 15 10 24.5t24 9.5t24 -9.5t10 -24.5q0 -17 -10 -26.5t-24 -9.5z" />
    <glyph glyph-name="uni1E8F" unicode="&#x1e8f;" horiz-adv-x="424" 
d="M28 -184q8 -3 18.5 -5.5t21.5 -2.5q45 0 76.5 38.5t51.5 97.5l14 44l-198 490h34l122 -314q12 -30 26 -66t28 -68h4q12 32 23.5 68t22.5 66l108 314h32l-192 -546q-9 -28 -22.5 -55.5t-32.5 -49.5t-43.5 -35.5t-55.5 -13.5q-26 0 -46 10l8 28v0zM224 600q-14 0 -23 9.5
t-9 26.5q0 15 9 24.5t23 9.5t23 -9.5t9 -24.5q0 -17 -9 -26.5t-23 -9.5z" />
    <glyph glyph-name="uni1E92" unicode="&#x1e92;" horiz-adv-x="530" 
d="M48 18l392 614h-358v28h398v-18l-392 -614h396v-28h-436v18zM277 -190q-14 0 -23 9.5t-9 26.5q0 15 9 24.5t23 9.5t23 -9.5t9 -24.5q0 -17 -9 -26.5t-23 -9.5z" />
    <glyph glyph-name="uni1E93" unicode="&#x1e93;" horiz-adv-x="396" 
d="M26 16l294 434h-262v28h302v-16l-294 -434h304v-28h-344v16zM214 -190q-14 0 -23 9.5t-9 26.5q0 15 9 24.5t23 9.5t23 -9.5t9 -24.5q0 -17 -9 -26.5t-23 -9.5z" />
    <glyph glyph-name="uni1E97" unicode="&#x1e97;" horiz-adv-x="302" 
d="M106 450h-76v24l76 4l4 140h26v-140h142v-28h-142v-328q0 -23 3.5 -42.5t12.5 -33.5t25.5 -22t42.5 -8q14 0 31 5t31 11l10 -26q-21 -8 -41.5 -13t-32.5 -5q-33 0 -54.5 10t-34.5 28t-18 43.5t-5 56.5v324zM49 734q-14 0 -23 9t-9 23t9 23t23 9t23 -9t9 -23t-9 -23
t-23 -9zM201 734q-14 0 -23 9t-9 23t9 23t23 9t23 -9t9 -23t-9 -23t-23 -9z" />
    <glyph glyph-name="uni1E9E" unicode="&#x1e9e;" horiz-adv-x="628" 
d="M96 424q0 53 15 98.5t45 78.5t74 52t102 19q72 0 117 -36t75 -96l-162 -176q64 -10 107.5 -29t69 -45t36.5 -58t11 -66q0 -38 -14 -70.5t-38 -56.5t-57 -37.5t-71 -13.5q-51 0 -97.5 20.5t-78.5 59.5l24 24q32 -38 69 -56t85 -18q69 0 106.5 41.5t37.5 104.5
q0 30 -9 56.5t-33.5 49t-69 40t-114.5 28.5l-2 28l160 176q-20 42 -57.5 71t-96.5 29q-46 0 -83 -13.5t-63.5 -41.5t-41 -71.5t-14.5 -103.5v-412h-32v424z" />
    <glyph glyph-name="uni1EA0" unicode="&#x1ea0;" horiz-adv-x="512" 
d="M380 264l-46 132q-21 60 -39.5 114t-36.5 116h-4q-18 -62 -36.5 -116t-39.5 -114l-47 -132h249zM390 236h-269l-83 -236h-32l236 660h28l236 -660h-34zM256 -190q-14 0 -23 9.5t-9 26.5q0 15 9 24.5t23 9.5t23 -9.5t9 -24.5q0 -17 -9 -26.5t-23 -9.5z" />
    <glyph glyph-name="uni1EA1" unicode="&#x1ea1;" horiz-adv-x="494" 
d="M68 117q0 80 76 121.5t238 59.5q1 29 -3.5 58.5t-17.5 53t-36.5 38t-60.5 14.5q-26 0 -49 -5.5t-43 -14.5t-36.5 -19t-27.5 -19l-16 24q11 8 28.5 19t40 20.5t49.5 16t56 6.5q42 0 70 -14.5t45 -39.5t24 -57.5t7 -68.5v-310h-26l-4 64h-2q-38 -30 -82 -53t-92 -23
q-28 0 -53 7.5t-44 23t-30 40t-11 58.5zM100 118q0 -28 8.5 -47.5t23.5 -31.5t34.5 -17.5t41.5 -5.5q44 0 85 20.5t89 61.5v174q-79 -9 -133 -22.5t-87 -32.5t-47.5 -43.5t-14.5 -55.5zM244 -190q-14 0 -23 9.5t-9 26.5q0 15 9 24.5t23 9.5t23 -9.5t9 -24.5q0 -17 -9 -26.5
t-23 -9.5z" />
    <glyph glyph-name="uni1EA2" unicode="&#x1ea2;" horiz-adv-x="512" 
d="M380 264l-46 132q-21 60 -39.5 114t-36.5 116h-4q-18 -62 -36.5 -116t-39.5 -114l-47 -132h249zM390 236h-269l-83 -236h-32l236 660h28l236 -660h-34zM226 726q29 9 47.5 22t18.5 36q0 24 -22.5 36t-63.5 14l2 26q22 -1 42.5 -5t36.5 -13t25.5 -22t9.5 -32t-7.5 -32.5
t-20 -23t-28.5 -16.5t-32 -12z" />
    <glyph glyph-name="uni1EA3" unicode="&#x1ea3;" horiz-adv-x="494" 
d="M68 117q0 80 76 121.5t238 59.5q1 29 -3.5 58.5t-17.5 53t-36.5 38t-60.5 14.5q-26 0 -49 -5.5t-43 -14.5t-36.5 -19t-27.5 -19l-16 24q11 8 28.5 19t40 20.5t49.5 16t56 6.5q42 0 70 -14.5t45 -39.5t24 -57.5t7 -68.5v-310h-26l-4 64h-2q-38 -30 -82 -53t-92 -23
q-28 0 -53 7.5t-44 23t-30 40t-11 58.5zM100 118q0 -28 8.5 -47.5t23.5 -31.5t34.5 -17.5t41.5 -5.5q44 0 85 20.5t89 61.5v174q-79 -9 -133 -22.5t-87 -32.5t-47.5 -43.5t-14.5 -55.5zM230 572q29 9 47.5 22t18.5 36q0 24 -22.5 36t-63.5 14l2 26q22 -1 42.5 -5t36.5 -13
t25.5 -22t9.5 -32t-7.5 -32.5t-20 -23t-28.5 -16.5t-32 -12z" />
    <glyph glyph-name="uni1EA4" unicode="&#x1ea4;" horiz-adv-x="512" 
d="M380 264l-46 132q-21 60 -39.5 114t-36.5 116h-4q-18 -62 -36.5 -116t-39.5 -114l-47 -132h249zM390 236h-269l-83 -236h-32l236 660h28l236 -660h-34zM402 874h38l-84 -104h-26zM242 808h28l90 -98h-30l-72 68h-4l-72 -68h-30z" />
    <glyph glyph-name="uni1EA5" unicode="&#x1ea5;" horiz-adv-x="494" 
d="M68 117q0 80 76 121.5t238 59.5q1 29 -3.5 58.5t-17.5 53t-36.5 38t-60.5 14.5q-26 0 -49 -5.5t-43 -14.5t-36.5 -19t-27.5 -19l-16 24q11 8 28.5 19t40 20.5t49.5 16t56 6.5q42 0 70 -14.5t45 -39.5t24 -57.5t7 -68.5v-310h-26l-4 64h-2q-38 -30 -82 -53t-92 -23
q-28 0 -53 7.5t-44 23t-30 40t-11 58.5zM100 118q0 -28 8.5 -47.5t23.5 -31.5t34.5 -17.5t41.5 -5.5q44 0 85 20.5t89 61.5v174q-79 -9 -133 -22.5t-87 -32.5t-47.5 -43.5t-14.5 -55.5zM246 684h28l84 -112h-28l-68 80h-4l-68 -80h-28zM412 746h38l-90 -110h-26z" />
    <glyph glyph-name="uni1EA6" unicode="&#x1ea6;" horiz-adv-x="512" 
d="M380 264l-46 132q-21 60 -39.5 114t-36.5 116h-4q-18 -62 -36.5 -116t-39.5 -114l-47 -132h249zM390 236h-269l-83 -236h-32l236 660h28l236 -660h-34zM396 770h-26l-84 104h38zM242 808h28l90 -98h-30l-72 68h-4l-72 -68h-30z" />
    <glyph glyph-name="uni1EA7" unicode="&#x1ea7;" horiz-adv-x="494" 
d="M68 117q0 80 76 121.5t238 59.5q1 29 -3.5 58.5t-17.5 53t-36.5 38t-60.5 14.5q-26 0 -49 -5.5t-43 -14.5t-36.5 -19t-27.5 -19l-16 24q11 8 28.5 19t40 20.5t49.5 16t56 6.5q42 0 70 -14.5t45 -39.5t24 -57.5t7 -68.5v-310h-26l-4 64h-2q-38 -30 -82 -53t-92 -23
q-28 0 -53 7.5t-44 23t-30 40t-11 58.5zM100 118q0 -28 8.5 -47.5t23.5 -31.5t34.5 -17.5t41.5 -5.5q44 0 85 20.5t89 61.5v174q-79 -9 -133 -22.5t-87 -32.5t-47.5 -43.5t-14.5 -55.5zM246 684h28l84 -112h-28l-68 80h-4l-68 -80h-28zM422 636h-26l-90 110h38z" />
    <glyph glyph-name="uni1EA8" unicode="&#x1ea8;" horiz-adv-x="512" 
d="M380 264l-46 132q-21 60 -39.5 114t-36.5 116h-4q-18 -62 -36.5 -116t-39.5 -114l-47 -132h249zM390 236h-269l-83 -236h-32l236 660h28l236 -660h-34zM343 782q23 6 38.5 16t15.5 28q0 24 -19 33t-55 11l4 26q19 -1 37.5 -4.5t32 -11t22 -20t8.5 -30.5q0 -17 -7 -28.5
t-17.5 -20t-23.5 -14t-26 -9.5zM242 808h28l90 -98h-30l-72 68h-4l-72 -68h-30z" />
    <glyph glyph-name="uni1EA9" unicode="&#x1ea9;" horiz-adv-x="494" 
d="M68 117q0 80 76 121.5t238 59.5q1 29 -3.5 58.5t-17.5 53t-36.5 38t-60.5 14.5q-26 0 -49 -5.5t-43 -14.5t-36.5 -19t-27.5 -19l-16 24q11 8 28.5 19t40 20.5t49.5 16t56 6.5q42 0 70 -14.5t45 -39.5t24 -57.5t7 -68.5v-310h-26l-4 64h-2q-38 -30 -82 -53t-92 -23
q-28 0 -53 7.5t-44 23t-30 40t-11 58.5zM100 118q0 -28 8.5 -47.5t23.5 -31.5t34.5 -17.5t41.5 -5.5q44 0 85 20.5t89 61.5v174q-79 -9 -133 -22.5t-87 -32.5t-47.5 -43.5t-14.5 -55.5zM246 684h28l84 -112h-28l-68 80h-4l-68 -80h-28zM350 650q23 8 37.5 19t14.5 29
q0 24 -18 35t-54 13l2 24q19 -1 37.5 -5t32 -12t22 -20.5t8.5 -30.5q0 -17 -7 -28.5t-17.5 -20.5t-23.5 -15t-26 -10z" />
    <glyph glyph-name="uni1EAA" unicode="&#x1eaa;" horiz-adv-x="512" 
d="M380 264l-46 132q-21 60 -39.5 114t-36.5 116h-4q-18 -62 -36.5 -116t-39.5 -114l-47 -132h249zM390 236h-269l-83 -236h-32l236 660h28l236 -660h-34zM242 808h28l90 -98h-30l-72 68h-4l-72 -68h-30zM138 842q1 12 5 25.5t12 24.5t20.5 18.5t30.5 7.5t31 -8t24.5 -17
t22 -17t24.5 -8q17 0 28 13.5t14 36.5h24q-1 -12 -5 -25.5t-12 -24.5t-20.5 -18.5t-30.5 -7.5t-31 8t-24.5 17t-22.5 17t-24 8q-17 0 -28 -13.5t-14 -36.5h-24z" />
    <glyph glyph-name="uni1EAB" unicode="&#x1eab;" horiz-adv-x="494" 
d="M68 117q0 80 76 121.5t238 59.5q1 29 -3.5 58.5t-17.5 53t-36.5 38t-60.5 14.5q-26 0 -49 -5.5t-43 -14.5t-36.5 -19t-27.5 -19l-16 24q11 8 28.5 19t40 20.5t49.5 16t56 6.5q42 0 70 -14.5t45 -39.5t24 -57.5t7 -68.5v-310h-26l-4 64h-2q-38 -30 -82 -53t-92 -23
q-28 0 -53 7.5t-44 23t-30 40t-11 58.5zM100 118q0 -28 8.5 -47.5t23.5 -31.5t34.5 -17.5t41.5 -5.5q44 0 85 20.5t89 61.5v174q-79 -9 -133 -22.5t-87 -32.5t-47.5 -43.5t-14.5 -55.5zM246 668h28l92 -98h-28l-76 70h-4l-76 -70h-28zM142 704q1 12 5 24.5t12 23t20.5 17.5
t30.5 7t31 -7t24.5 -16t22 -16t24.5 -7q17 0 28 11.5t14 34.5h24q-1 -12 -5 -25t-12 -23.5t-20.5 -17t-30.5 -6.5t-31 7t-24.5 16t-22.5 16t-24 7q-17 0 -28 -11.5t-14 -34.5h-24z" />
    <glyph glyph-name="uni1EAC" unicode="&#x1eac;" horiz-adv-x="512" 
d="M380 264l-46 132q-21 60 -39.5 114t-36.5 116h-4q-18 -62 -36.5 -116t-39.5 -114l-47 -132h249zM390 236h-269l-83 -236h-32l236 660h28l236 -660h-34zM146 710l96 104h28l96 -104h-30l-78 74h-4l-78 -74h-30zM256 -190q-14 0 -23 9.5t-9 26.5q0 15 9 24.5t23 9.5
t23 -9.5t9 -24.5q0 -17 -9 -26.5t-23 -9.5z" />
    <glyph glyph-name="uni1EAD" unicode="&#x1ead;" horiz-adv-x="494" 
d="M68 117q0 80 76 121.5t238 59.5q1 29 -3.5 58.5t-17.5 53t-36.5 38t-60.5 14.5q-26 0 -49 -5.5t-43 -14.5t-36.5 -19t-27.5 -19l-16 24q11 8 28.5 19t40 20.5t49.5 16t56 6.5q42 0 70 -14.5t45 -39.5t24 -57.5t7 -68.5v-310h-26l-4 64h-2q-38 -30 -82 -53t-92 -23
q-28 0 -53 7.5t-44 23t-30 40t-11 58.5zM100 118q0 -28 8.5 -47.5t23.5 -31.5t34.5 -17.5t41.5 -5.5q44 0 85 20.5t89 61.5v174q-79 -9 -133 -22.5t-87 -32.5t-47.5 -43.5t-14.5 -55.5zM246 706h28l94 -134h-28l-78 102h-4l-78 -102h-28zM244 -190q-14 0 -23 9.5t-9 26.5
q0 15 9 24.5t23 9.5t23 -9.5t9 -24.5q0 -17 -9 -26.5t-23 -9.5z" />
    <glyph glyph-name="uni1EAE" unicode="&#x1eae;" horiz-adv-x="512" 
d="M380 264l-46 132q-21 60 -39.5 114t-36.5 116h-4q-18 -62 -36.5 -116t-39.5 -114l-47 -132h249zM390 236h-269l-83 -236h-32l236 660h28l236 -660h-34zM304 892h40l-94 -94h-28zM256 712q-26 0 -46 9.5t-33.5 24t-21 31.5t-9.5 33h26q6 -27 25.5 -49.5t58.5 -22.5
t58.5 22.5t25.5 49.5h26q-2 -16 -10 -33t-21.5 -31.5t-33 -24t-45.5 -9.5z" />
    <glyph glyph-name="uni1EAF" unicode="&#x1eaf;" horiz-adv-x="494" 
d="M68 117q0 80 76 121.5t238 59.5q1 29 -3.5 58.5t-17.5 53t-36.5 38t-60.5 14.5q-26 0 -49 -5.5t-43 -14.5t-36.5 -19t-27.5 -19l-16 24q11 8 28.5 19t40 20.5t49.5 16t56 6.5q42 0 70 -14.5t45 -39.5t24 -57.5t7 -68.5v-310h-26l-4 64h-2q-38 -30 -82 -53t-92 -23
q-28 0 -53 7.5t-44 23t-30 40t-11 58.5zM100 118q0 -28 8.5 -47.5t23.5 -31.5t34.5 -17.5t41.5 -5.5q44 0 85 20.5t89 61.5v174q-79 -9 -133 -22.5t-87 -32.5t-47.5 -43.5t-14.5 -55.5zM306 772h38l-86 -108h-28zM260 576q-30 0 -51 11.5t-34.5 28.5t-21 37.5t-9.5 38.5h26
q2 -17 8.5 -33t17.5 -28.5t27 -20.5t37 -8t37 8t27 20.5t17.5 28.5t8.5 33h26q-2 -18 -9.5 -38.5t-21 -37.5t-34.5 -28.5t-51 -11.5z" />
    <glyph glyph-name="uni1EB0" unicode="&#x1eb0;" horiz-adv-x="512" 
d="M380 264l-46 132q-21 60 -39.5 114t-36.5 116h-4q-18 -62 -36.5 -116t-39.5 -114l-47 -132h249zM390 236h-269l-83 -236h-32l236 660h28l236 -660h-34zM290 798h-28l-94 94h40zM256 712q-26 0 -46 9.5t-33.5 24t-21 31.5t-9.5 33h26q6 -27 25.5 -49.5t58.5 -22.5
t58.5 22.5t25.5 49.5h26q-2 -16 -10 -33t-21.5 -31.5t-33 -24t-45.5 -9.5z" />
    <glyph glyph-name="uni1EB1" unicode="&#x1eb1;" horiz-adv-x="494" 
d="M68 117q0 80 76 121.5t238 59.5q1 29 -3.5 58.5t-17.5 53t-36.5 38t-60.5 14.5q-26 0 -49 -5.5t-43 -14.5t-36.5 -19t-27.5 -19l-16 24q11 8 28.5 19t40 20.5t49.5 16t56 6.5q42 0 70 -14.5t45 -39.5t24 -57.5t7 -68.5v-310h-26l-4 64h-2q-38 -30 -82 -53t-92 -23
q-28 0 -53 7.5t-44 23t-30 40t-11 58.5zM100 118q0 -28 8.5 -47.5t23.5 -31.5t34.5 -17.5t41.5 -5.5q44 0 85 20.5t89 61.5v174q-79 -9 -133 -22.5t-87 -32.5t-47.5 -43.5t-14.5 -55.5zM290 664h-28l-86 108h38zM260 576q-30 0 -51 11.5t-34.5 28.5t-21 37.5t-9.5 38.5h26
q2 -17 8.5 -33t17.5 -28.5t27 -20.5t37 -8t37 8t27 20.5t17.5 28.5t8.5 33h26q-2 -18 -9.5 -38.5t-21 -37.5t-34.5 -28.5t-51 -11.5z" />
    <glyph glyph-name="uni1EB2" unicode="&#x1eb2;" horiz-adv-x="512" 
d="M380 264l-46 132q-21 60 -39.5 114t-36.5 116h-4q-18 -62 -36.5 -116t-39.5 -114l-47 -132h249zM390 236h-269l-83 -236h-32l236 660h28l236 -660h-34zM231 820q23 6 38.5 16t15.5 28q0 24 -19 33t-55 11l4 26q19 -1 37.5 -4.5t32 -11t22 -20t8.5 -30.5q0 -17 -7 -28.5
t-17.5 -20t-23.5 -14t-26 -9.5zM256 712q-26 0 -46 9.5t-33.5 24t-21 31.5t-9.5 33h26q6 -27 25.5 -49.5t58.5 -22.5t58.5 22.5t25.5 49.5h26q-2 -16 -10 -33t-21.5 -31.5t-33 -24t-45.5 -9.5z" />
    <glyph glyph-name="uni1EB3" unicode="&#x1eb3;" horiz-adv-x="494" 
d="M68 117q0 80 76 121.5t238 59.5q1 29 -3.5 58.5t-17.5 53t-36.5 38t-60.5 14.5q-26 0 -49 -5.5t-43 -14.5t-36.5 -19t-27.5 -19l-16 24q11 8 28.5 19t40 20.5t49.5 16t56 6.5q42 0 70 -14.5t45 -39.5t24 -57.5t7 -68.5v-310h-26l-4 64h-2q-38 -30 -82 -53t-92 -23
q-28 0 -53 7.5t-44 23t-30 40t-11 58.5zM100 118q0 -28 8.5 -47.5t23.5 -31.5t34.5 -17.5t41.5 -5.5q44 0 85 20.5t89 61.5v174q-79 -9 -133 -22.5t-87 -32.5t-47.5 -43.5t-14.5 -55.5zM260 576q-30 0 -51 11.5t-34.5 28.5t-21 37.5t-9.5 38.5h26q2 -17 8.5 -33t17.5 -28.5
t27 -20.5t37 -8t37 8t27 20.5t17.5 28.5t8.5 33h26q-2 -18 -9.5 -38.5t-21 -37.5t-34.5 -28.5t-51 -11.5zM232 694q23 8 37.5 19t14.5 29q0 24 -18 35t-54 13l2 24q19 -1 37.5 -5t32 -12t22 -20.5t8.5 -30.5q0 -17 -7 -28.5t-17.5 -20.5t-23.5 -15t-26 -10z" />
    <glyph glyph-name="uni1EB4" unicode="&#x1eb4;" horiz-adv-x="512" 
d="M380 264l-46 132q-21 60 -39.5 114t-36.5 116h-4q-18 -62 -36.5 -116t-39.5 -114l-47 -132h249zM390 236h-269l-83 -236h-32l236 660h28l236 -660h-34zM256 712q-26 0 -46 9.5t-33.5 24t-21 31.5t-9.5 33h26q6 -27 25.5 -49.5t58.5 -22.5t58.5 22.5t25.5 49.5h26
q-2 -16 -10 -33t-21.5 -31.5t-33 -24t-45.5 -9.5zM138 842q1 12 5 25.5t12 24.5t20.5 18.5t30.5 7.5t31 -8t24.5 -17t22 -17t24.5 -8q17 0 28 13.5t14 36.5h24q-1 -12 -5 -25.5t-12 -24.5t-20.5 -18.5t-30.5 -7.5t-31 8t-24.5 17t-22.5 17t-24 8q-17 0 -28 -13.5t-14 -36.5
h-24z" />
    <glyph glyph-name="uni1EB5" unicode="&#x1eb5;" horiz-adv-x="494" 
d="M68 117q0 80 76 121.5t238 59.5q1 29 -3.5 58.5t-17.5 53t-36.5 38t-60.5 14.5q-26 0 -49 -5.5t-43 -14.5t-36.5 -19t-27.5 -19l-16 24q11 8 28.5 19t40 20.5t49.5 16t56 6.5q42 0 70 -14.5t45 -39.5t24 -57.5t7 -68.5v-310h-26l-4 64h-2q-38 -30 -82 -53t-92 -23
q-28 0 -53 7.5t-44 23t-30 40t-11 58.5zM100 118q0 -28 8.5 -47.5t23.5 -31.5t34.5 -17.5t41.5 -5.5q44 0 85 20.5t89 61.5v174q-79 -9 -133 -22.5t-87 -32.5t-47.5 -43.5t-14.5 -55.5zM260 576q-30 0 -50.5 9t-34 22.5t-20.5 30.5t-9 34h26q5 -27 26 -48.5t62 -21.5
t62 21.5t26 48.5h26q-2 -17 -9 -34t-20.5 -30.5t-34 -22.5t-50.5 -9zM142 704q1 12 5 24.5t12 23t20.5 17.5t30.5 7t31 -7t24.5 -16t22 -16t24.5 -7q17 0 28 11.5t14 34.5h24q-1 -12 -5 -25t-12 -23.5t-20.5 -17t-30.5 -6.5t-31 7t-24.5 16t-22.5 16t-24 7q-17 0 -28 -11.5
t-14 -34.5h-24z" />
    <glyph glyph-name="uni1EB6" unicode="&#x1eb6;" horiz-adv-x="512" 
d="M380 264l-46 132q-21 60 -39.5 114t-36.5 116h-4q-18 -62 -36.5 -116t-39.5 -114l-47 -132h249zM390 236h-269l-83 -236h-32l236 660h28l236 -660h-34zM256 712q-28 0 -48 10t-33.5 25t-21 33t-9.5 34h26q2 -14 8 -27.5t16.5 -24t26 -17.5t35.5 -7t35 7t25.5 17.5t17 24
t8.5 27.5h26q-2 -16 -9.5 -34t-21 -33t-33.5 -25t-48 -10zM256 -190q-14 0 -23 9.5t-9 26.5q0 15 9 24.5t23 9.5t23 -9.5t9 -24.5q0 -17 -9 -26.5t-23 -9.5z" />
    <glyph glyph-name="uni1EB7" unicode="&#x1eb7;" horiz-adv-x="494" 
d="M68 117q0 80 76 121.5t238 59.5q1 29 -3.5 58.5t-17.5 53t-36.5 38t-60.5 14.5q-26 0 -49 -5.5t-43 -14.5t-36.5 -19t-27.5 -19l-16 24q11 8 28.5 19t40 20.5t49.5 16t56 6.5q42 0 70 -14.5t45 -39.5t24 -57.5t7 -68.5v-310h-26l-4 64h-2q-38 -30 -82 -53t-92 -23
q-28 0 -53 7.5t-44 23t-30 40t-11 58.5zM100 118q0 -28 8.5 -47.5t23.5 -31.5t34.5 -17.5t41.5 -5.5q44 0 85 20.5t89 61.5v174q-79 -9 -133 -22.5t-87 -32.5t-47.5 -43.5t-14.5 -55.5zM260 576q-30 0 -51 11.5t-34.5 28.5t-21 37.5t-9.5 38.5h26q2 -17 8.5 -33t17.5 -28.5
t27 -20.5t37 -8t37 8t27 20.5t17.5 28.5t8.5 33h26q-2 -18 -9.5 -38.5t-21 -37.5t-34.5 -28.5t-51 -11.5zM244 -190q-14 0 -23 9.5t-9 26.5q0 15 9 24.5t23 9.5t23 -9.5t9 -24.5q0 -17 -9 -26.5t-23 -9.5z" />
    <glyph glyph-name="uni1EB8" unicode="&#x1eb8;" horiz-adv-x="502" 
d="M96 660h354v-28h-322v-266h270v-28h-270v-310h332v-28h-364v660zM293 -190q-14 0 -23 9.5t-9 26.5q0 15 9 24.5t23 9.5t23 -9.5t9 -24.5q0 -17 -9 -26.5t-23 -9.5z" />
    <glyph glyph-name="uni1EB9" unicode="&#x1eb9;" horiz-adv-x="478" 
d="M54 238q0 58 17.5 105t46 79.5t65.5 50t77 17.5q83 0 131.5 -56.5t48.5 -163.5v-15.5t-2 -16.5h-352q0 -48 13.5 -88.5t38 -70.5t59 -46.5t77.5 -16.5q41 0 73 12t59 32l14 -26q-27 -17 -60.5 -31.5t-87.5 -14.5q-45 0 -84.5 17t-69.5 49.5t-47 78.5t-17 105zM410 264
q0 100 -41 149t-109 49q-32 0 -62 -14t-53.5 -39.5t-39 -62t-19.5 -82.5h324zM257 -190q-14 0 -23 9.5t-9 26.5q0 15 9 24.5t23 9.5t23 -9.5t9 -24.5q0 -17 -9 -26.5t-23 -9.5z" />
    <glyph glyph-name="uni1EBA" unicode="&#x1eba;" horiz-adv-x="502" 
d="M96 660h354v-28h-322v-266h270v-28h-270v-310h332v-28h-364v660zM247 726q29 9 47.5 22t18.5 36q0 24 -22.5 36t-63.5 14l2 26q22 -1 42.5 -5t36.5 -13t25.5 -22t9.5 -32t-7.5 -32.5t-20 -23t-28.5 -16.5t-32 -12z" />
    <glyph glyph-name="uni1EBB" unicode="&#x1ebb;" horiz-adv-x="478" 
d="M54 238q0 58 17.5 105t46 79.5t65.5 50t77 17.5q83 0 131.5 -56.5t48.5 -163.5v-15.5t-2 -16.5h-352q0 -48 13.5 -88.5t38 -70.5t59 -46.5t77.5 -16.5q41 0 73 12t59 32l14 -26q-27 -17 -60.5 -31.5t-87.5 -14.5q-45 0 -84.5 17t-69.5 49.5t-47 78.5t-17 105zM410 264
q0 100 -41 149t-109 49q-32 0 -62 -14t-53.5 -39.5t-39 -62t-19.5 -82.5h324zM230 572q29 9 47.5 22t18.5 36q0 24 -22.5 36t-63.5 14l2 26q22 -1 42.5 -5t36.5 -13t25.5 -22t9.5 -32t-7.5 -32.5t-20 -23t-28.5 -16.5t-32 -12z" />
    <glyph glyph-name="uni1EBC" unicode="&#x1ebc;" horiz-adv-x="502" 
d="M96 660h354v-28h-322v-266h270v-28h-270v-310h332v-28h-364v660zM335 718q-20 0 -34.5 9t-28 20t-26.5 20t-29 9q-17 0 -28 -16t-14 -42h-22q1 14 5 29.5t12 28t20 20.5t29 8q19 0 34 -9t28.5 -20t26.5 -20t29 -9q17 0 28 16t14 42h22q-1 -14 -5 -29.5t-12 -28
t-20.5 -20.5t-28.5 -8z" />
    <glyph glyph-name="uni1EBD" unicode="&#x1ebd;" horiz-adv-x="478" 
d="M54 238q0 58 17.5 105t46 79.5t65.5 50t77 17.5q83 0 131.5 -56.5t48.5 -163.5v-15.5t-2 -16.5h-352q0 -48 13.5 -88.5t38 -70.5t59 -46.5t77.5 -16.5q41 0 73 12t59 32l14 -26q-27 -17 -60.5 -31.5t-87.5 -14.5q-45 0 -84.5 17t-69.5 49.5t-47 78.5t-17 105zM410 264
q0 100 -41 149t-109 49q-32 0 -62 -14t-53.5 -39.5t-39 -62t-19.5 -82.5h324zM142 582q1 13 4.5 27.5t11 26.5t19 20t29.5 8t32.5 -9t27.5 -19.5t25 -19t25 -8.5q17 0 26 15t12 41h24q-1 -13 -4.5 -27.5t-11 -26.5t-19 -20t-29.5 -8t-32 8.5t-27 19t-25 19.5t-26 9
q-17 0 -26 -15t-12 -41h-24v0z" />
    <glyph glyph-name="uni1EBE" unicode="&#x1ebe;" horiz-adv-x="502" 
d="M96 660h354v-28h-322v-266h270v-28h-270v-310h332v-28h-364v660zM423 874h38l-84 -104h-26zM263 808h28l90 -98h-30l-72 68h-4l-72 -68h-30z" />
    <glyph glyph-name="uni1EBF" unicode="&#x1ebf;" horiz-adv-x="478" 
d="M54 238q0 58 17.5 105t46 79.5t65.5 50t77 17.5q83 0 131.5 -56.5t48.5 -163.5v-15.5t-2 -16.5h-352q0 -48 13.5 -88.5t38 -70.5t59 -46.5t77.5 -16.5q41 0 73 12t59 32l14 -26q-27 -17 -60.5 -31.5t-87.5 -14.5q-45 0 -84.5 17t-69.5 49.5t-47 78.5t-17 105zM410 264
q0 100 -41 149t-109 49q-32 0 -62 -14t-53.5 -39.5t-39 -62t-19.5 -82.5h324zM246 684h28l84 -112h-28l-68 80h-4l-68 -80h-28zM412 746h38l-90 -110h-26z" />
    <glyph glyph-name="uni1EC0" unicode="&#x1ec0;" horiz-adv-x="502" 
d="M96 660h354v-28h-322v-266h270v-28h-270v-310h332v-28h-364v660zM417 770h-26l-84 104h38zM263 808h28l90 -98h-30l-72 68h-4l-72 -68h-30z" />
    <glyph glyph-name="uni1EC1" unicode="&#x1ec1;" horiz-adv-x="478" 
d="M54 238q0 58 17.5 105t46 79.5t65.5 50t77 17.5q83 0 131.5 -56.5t48.5 -163.5v-15.5t-2 -16.5h-352q0 -48 13.5 -88.5t38 -70.5t59 -46.5t77.5 -16.5q41 0 73 12t59 32l14 -26q-27 -17 -60.5 -31.5t-87.5 -14.5q-45 0 -84.5 17t-69.5 49.5t-47 78.5t-17 105zM410 264
q0 100 -41 149t-109 49q-32 0 -62 -14t-53.5 -39.5t-39 -62t-19.5 -82.5h324zM246 684h28l84 -112h-28l-68 80h-4l-68 -80h-28zM422 636h-26l-90 110h38z" />
    <glyph glyph-name="uni1EC2" unicode="&#x1ec2;" horiz-adv-x="502" 
d="M96 660h354v-28h-322v-266h270v-28h-270v-310h332v-28h-364v660zM364 782q23 6 38.5 16t15.5 28q0 24 -19 33t-55 11l4 26q19 -1 37.5 -4.5t32 -11t22 -20t8.5 -30.5q0 -17 -7 -28.5t-17.5 -20t-23.5 -14t-26 -9.5zM263 808h28l90 -98h-30l-72 68h-4l-72 -68h-30z" />
    <glyph glyph-name="uni1EC3" unicode="&#x1ec3;" horiz-adv-x="478" 
d="M54 238q0 58 17.5 105t46 79.5t65.5 50t77 17.5q83 0 131.5 -56.5t48.5 -163.5v-15.5t-2 -16.5h-352q0 -48 13.5 -88.5t38 -70.5t59 -46.5t77.5 -16.5q41 0 73 12t59 32l14 -26q-27 -17 -60.5 -31.5t-87.5 -14.5q-45 0 -84.5 17t-69.5 49.5t-47 78.5t-17 105zM410 264
q0 100 -41 149t-109 49q-32 0 -62 -14t-53.5 -39.5t-39 -62t-19.5 -82.5h324zM246 684h28l84 -112h-28l-68 80h-4l-68 -80h-28zM350 650q23 8 37.5 19t14.5 29q0 24 -18 35t-54 13l2 24q19 -1 37.5 -5t32 -12t22 -20.5t8.5 -30.5q0 -17 -7 -28.5t-17.5 -20.5t-23.5 -15
t-26 -10z" />
    <glyph glyph-name="uni1EC4" unicode="&#x1ec4;" horiz-adv-x="502" 
d="M96 660h354v-28h-322v-266h270v-28h-270v-310h332v-28h-364v660zM263 808h28l90 -98h-30l-72 68h-4l-72 -68h-30zM159 842q1 12 5 25.5t12 24.5t20.5 18.5t30.5 7.5t31 -8t24.5 -17t22 -17t24.5 -8q17 0 28 13.5t14 36.5h24q-1 -12 -5 -25.5t-12 -24.5t-20.5 -18.5
t-30.5 -7.5t-31 8t-24.5 17t-22.5 17t-24 8q-17 0 -28 -13.5t-14 -36.5h-24z" />
    <glyph glyph-name="uni1EC5" unicode="&#x1ec5;" horiz-adv-x="478" 
d="M54 238q0 58 17.5 105t46 79.5t65.5 50t77 17.5q83 0 131.5 -56.5t48.5 -163.5v-15.5t-2 -16.5h-352q0 -48 13.5 -88.5t38 -70.5t59 -46.5t77.5 -16.5q41 0 73 12t59 32l14 -26q-27 -17 -60.5 -31.5t-87.5 -14.5q-45 0 -84.5 17t-69.5 49.5t-47 78.5t-17 105zM410 264
q0 100 -41 149t-109 49q-32 0 -62 -14t-53.5 -39.5t-39 -62t-19.5 -82.5h324zM246 668h28l92 -98h-28l-76 70h-4l-76 -70h-28zM142 704q1 12 5 24.5t12 23t20.5 17.5t30.5 7t31 -7t24.5 -16t22 -16t24.5 -7q17 0 28 11.5t14 34.5h24q-1 -12 -5 -25t-12 -23.5t-20.5 -17
t-30.5 -6.5t-31 7t-24.5 16t-22.5 16t-24 7q-17 0 -28 -11.5t-14 -34.5h-24z" />
    <glyph glyph-name="uni1EC6" unicode="&#x1ec6;" horiz-adv-x="502" 
d="M96 660h354v-28h-322v-266h270v-28h-270v-310h332v-28h-364v660zM167 710l96 104h28l96 -104h-30l-78 74h-4l-78 -74h-30zM293 -190q-14 0 -23 9.5t-9 26.5q0 15 9 24.5t23 9.5t23 -9.5t9 -24.5q0 -17 -9 -26.5t-23 -9.5z" />
    <glyph glyph-name="uni1EC7" unicode="&#x1ec7;" horiz-adv-x="478" 
d="M54 238q0 58 17.5 105t46 79.5t65.5 50t77 17.5q83 0 131.5 -56.5t48.5 -163.5v-15.5t-2 -16.5h-352q0 -48 13.5 -88.5t38 -70.5t59 -46.5t77.5 -16.5q41 0 73 12t59 32l14 -26q-27 -17 -60.5 -31.5t-87.5 -14.5q-45 0 -84.5 17t-69.5 49.5t-47 78.5t-17 105zM410 264
q0 100 -41 149t-109 49q-32 0 -62 -14t-53.5 -39.5t-39 -62t-19.5 -82.5h324zM246 706h28l94 -134h-28l-78 102h-4l-78 -102h-28zM256 -190q-14 0 -23 9.5t-9 26.5q0 15 9 24.5t23 9.5t23 -9.5t9 -24.5q0 -17 -9 -26.5t-23 -9.5z" />
    <glyph glyph-name="uni1EC8" unicode="&#x1ec8;" horiz-adv-x="224" 
d="M96 660h32v-660h-32v660zM82 726q29 9 47.5 22t18.5 36q0 24 -22.5 36t-63.5 14l2 26q22 -1 42.5 -5t36.5 -13t25.5 -22t9.5 -32t-7.5 -32.5t-20 -23t-28.5 -16.5t-32 -12z" />
    <glyph glyph-name="uni1EC9" unicode="&#x1ec9;" horiz-adv-x="222" 
d="M96 478h30v-478h-30v478zM81 572q29 9 47.5 22t18.5 36q0 24 -22.5 36t-63.5 14l2 26q22 -1 42.5 -5t36.5 -13t25.5 -22t9.5 -32t-7.5 -32.5t-20 -23t-28.5 -16.5t-32 -12z" />
    <glyph glyph-name="uni1ECA" unicode="&#x1eca;" horiz-adv-x="224" 
d="M96 660h32v-660h-32v660zM113 -190q-14 0 -23 9.5t-9 26.5q0 15 9 24.5t23 9.5t23 -9.5t9 -24.5q0 -17 -9 -26.5t-23 -9.5z" />
    <glyph glyph-name="uni1ECB" unicode="&#x1ecb;" horiz-adv-x="222" 
d="M112 600q-14 0 -24 9.5t-10 24.5q0 17 10 25.5t24 8.5t24 -8.5t10 -25.5q0 -15 -10 -24.5t-24 -9.5zM96 478h30v-478h-30v478zM112 -190q-14 0 -23 9.5t-9 26.5q0 15 9 24.5t23 9.5t23 -9.5t9 -24.5q0 -17 -9 -26.5t-23 -9.5z" />
    <glyph glyph-name="uni1ECC" unicode="&#x1ecc;" horiz-adv-x="640" 
d="M320 -12q-59 0 -108 24.5t-84.5 69.5t-55.5 108.5t-20 141.5t20 141t55.5 107t84.5 68t108 24q58 0 107.5 -24t85 -68t55.5 -107t20 -141t-20 -141.5t-55.5 -108.5t-85 -69.5t-107.5 -24.5zM320 18q52 0 95.5 22.5t74 63.5t47.5 99t17 129t-17 128.5t-47.5 98t-74 62
t-95.5 21.5q-53 0 -96 -21.5t-73.5 -62t-47.5 -98t-17 -128.5t17 -129t47.5 -99t73.5 -63.5t96 -22.5zM320 -190q-14 0 -23 9.5t-9 26.5q0 15 9 24.5t23 9.5t23 -9.5t9 -24.5q0 -17 -9 -26.5t-23 -9.5z" />
    <glyph glyph-name="uni1ECD" unicode="&#x1ecd;" horiz-adv-x="532" 
d="M54 238q0 60 17 107t46 79t67.5 49t81.5 17t81.5 -17t67.5 -49t46 -79t17 -107q0 -59 -17 -105.5t-46 -78.5t-67.5 -49t-81.5 -17t-81.5 17t-67.5 49t-46 78.5t-17 105.5zM86 238q0 -50 14 -90.5t38 -70t57 -45.5t71 -16t71 16t57 45.5t38 70t14 90.5q0 49 -14 90.5
t-38 71t-57 46t-71 16.5t-71 -16.5t-57 -46t-38 -71t-14 -90.5zM267 -190q-14 0 -23 9.5t-9 26.5q0 15 9 24.5t23 9.5t23 -9.5t9 -24.5q0 -17 -9 -26.5t-23 -9.5z" />
    <glyph glyph-name="uni1ECE" unicode="&#x1ece;" horiz-adv-x="640" 
d="M320 -12q-59 0 -108 24.5t-84.5 69.5t-55.5 108.5t-20 141.5t20 141t55.5 107t84.5 68t108 24q58 0 107.5 -24t85 -68t55.5 -107t20 -141t-20 -141.5t-55.5 -108.5t-85 -69.5t-107.5 -24.5zM320 18q52 0 95.5 22.5t74 63.5t47.5 99t17 129t-17 128.5t-47.5 98t-74 62
t-95.5 21.5q-53 0 -96 -21.5t-73.5 -62t-47.5 -98t-17 -128.5t17 -129t47.5 -99t73.5 -63.5t96 -22.5zM290 726q29 9 47.5 22t18.5 36q0 24 -22.5 36t-63.5 14l2 26q22 -1 42.5 -5t36.5 -13t25.5 -22t9.5 -32t-7.5 -32.5t-20 -23t-28.5 -16.5t-32 -12z" />
    <glyph glyph-name="uni1ECF" unicode="&#x1ecf;" horiz-adv-x="532" 
d="M54 238q0 60 17 107t46 79t67.5 49t81.5 17t81.5 -17t67.5 -49t46 -79t17 -107q0 -59 -17 -105.5t-46 -78.5t-67.5 -49t-81.5 -17t-81.5 17t-67.5 49t-46 78.5t-17 105.5zM86 238q0 -50 14 -90.5t38 -70t57 -45.5t71 -16t71 16t57 45.5t38 70t14 90.5q0 49 -14 90.5
t-38 71t-57 46t-71 16.5t-71 -16.5t-57 -46t-38 -71t-14 -90.5zM236 572q29 9 47.5 22t18.5 36q0 24 -22.5 36t-63.5 14l2 26q22 -1 42.5 -5t36.5 -13t25.5 -22t9.5 -32t-7.5 -32.5t-20 -23t-28.5 -16.5t-32 -12z" />
    <glyph glyph-name="uni1ED0" unicode="&#x1ed0;" horiz-adv-x="640" 
d="M320 -12q-59 0 -108 24.5t-84.5 69.5t-55.5 108.5t-20 141.5t20 141t55.5 107t84.5 68t108 24q58 0 107.5 -24t85 -68t55.5 -107t20 -141t-20 -141.5t-55.5 -108.5t-85 -69.5t-107.5 -24.5zM320 18q52 0 95.5 22.5t74 63.5t47.5 99t17 129t-17 128.5t-47.5 98t-74 62
t-95.5 21.5q-53 0 -96 -21.5t-73.5 -62t-47.5 -98t-17 -128.5t17 -129t47.5 -99t73.5 -63.5t96 -22.5zM466 874h38l-84 -104h-26zM306 808h28l90 -98h-30l-72 68h-4l-72 -68h-30z" />
    <glyph glyph-name="uni1ED1" unicode="&#x1ed1;" horiz-adv-x="532" 
d="M54 238q0 60 17 107t46 79t67.5 49t81.5 17t81.5 -17t67.5 -49t46 -79t17 -107q0 -59 -17 -105.5t-46 -78.5t-67.5 -49t-81.5 -17t-81.5 17t-67.5 49t-46 78.5t-17 105.5zM86 238q0 -50 14 -90.5t38 -70t57 -45.5t71 -16t71 16t57 45.5t38 70t14 90.5q0 49 -14 90.5
t-38 71t-57 46t-71 16.5t-71 -16.5t-57 -46t-38 -71t-14 -90.5zM252 684h28l84 -112h-28l-68 80h-4l-68 -80h-28zM418 746h38l-90 -110h-26z" />
    <glyph glyph-name="uni1ED2" unicode="&#x1ed2;" horiz-adv-x="640" 
d="M320 -12q-59 0 -108 24.5t-84.5 69.5t-55.5 108.5t-20 141.5t20 141t55.5 107t84.5 68t108 24q58 0 107.5 -24t85 -68t55.5 -107t20 -141t-20 -141.5t-55.5 -108.5t-85 -69.5t-107.5 -24.5zM320 18q52 0 95.5 22.5t74 63.5t47.5 99t17 129t-17 128.5t-47.5 98t-74 62
t-95.5 21.5q-53 0 -96 -21.5t-73.5 -62t-47.5 -98t-17 -128.5t17 -129t47.5 -99t73.5 -63.5t96 -22.5zM460 770h-26l-84 104h38zM306 808h28l90 -98h-30l-72 68h-4l-72 -68h-30z" />
    <glyph glyph-name="uni1ED3" unicode="&#x1ed3;" horiz-adv-x="532" 
d="M54 238q0 60 17 107t46 79t67.5 49t81.5 17t81.5 -17t67.5 -49t46 -79t17 -107q0 -59 -17 -105.5t-46 -78.5t-67.5 -49t-81.5 -17t-81.5 17t-67.5 49t-46 78.5t-17 105.5zM86 238q0 -50 14 -90.5t38 -70t57 -45.5t71 -16t71 16t57 45.5t38 70t14 90.5q0 49 -14 90.5
t-38 71t-57 46t-71 16.5t-71 -16.5t-57 -46t-38 -71t-14 -90.5zM252 684h28l84 -112h-28l-68 80h-4l-68 -80h-28zM428 636h-26l-90 110h38z" />
    <glyph glyph-name="uni1ED4" unicode="&#x1ed4;" horiz-adv-x="640" 
d="M320 -12q-59 0 -108 24.5t-84.5 69.5t-55.5 108.5t-20 141.5t20 141t55.5 107t84.5 68t108 24q58 0 107.5 -24t85 -68t55.5 -107t20 -141t-20 -141.5t-55.5 -108.5t-85 -69.5t-107.5 -24.5zM320 18q52 0 95.5 22.5t74 63.5t47.5 99t17 129t-17 128.5t-47.5 98t-74 62
t-95.5 21.5q-53 0 -96 -21.5t-73.5 -62t-47.5 -98t-17 -128.5t17 -129t47.5 -99t73.5 -63.5t96 -22.5zM407 782q23 6 38.5 16t15.5 28q0 24 -19 33t-55 11l4 26q19 -1 37.5 -4.5t32 -11t22 -20t8.5 -30.5q0 -17 -7 -28.5t-17.5 -20t-23.5 -14t-26 -9.5zM306 808h28l90 -98
h-30l-72 68h-4l-72 -68h-30z" />
    <glyph glyph-name="uni1ED5" unicode="&#x1ed5;" horiz-adv-x="532" 
d="M54 238q0 60 17 107t46 79t67.5 49t81.5 17t81.5 -17t67.5 -49t46 -79t17 -107q0 -59 -17 -105.5t-46 -78.5t-67.5 -49t-81.5 -17t-81.5 17t-67.5 49t-46 78.5t-17 105.5zM86 238q0 -50 14 -90.5t38 -70t57 -45.5t71 -16t71 16t57 45.5t38 70t14 90.5q0 49 -14 90.5
t-38 71t-57 46t-71 16.5t-71 -16.5t-57 -46t-38 -71t-14 -90.5zM252 684h28l84 -112h-28l-68 80h-4l-68 -80h-28zM356 650q23 8 37.5 19t14.5 29q0 24 -18 35t-54 13l2 24q19 -1 37.5 -5t32 -12t22 -20.5t8.5 -30.5q0 -17 -7 -28.5t-17.5 -20.5t-23.5 -15t-26 -10z" />
    <glyph glyph-name="uni1ED6" unicode="&#x1ed6;" horiz-adv-x="640" 
d="M320 -12q-59 0 -108 24.5t-84.5 69.5t-55.5 108.5t-20 141.5t20 141t55.5 107t84.5 68t108 24q58 0 107.5 -24t85 -68t55.5 -107t20 -141t-20 -141.5t-55.5 -108.5t-85 -69.5t-107.5 -24.5zM320 18q52 0 95.5 22.5t74 63.5t47.5 99t17 129t-17 128.5t-47.5 98t-74 62
t-95.5 21.5q-53 0 -96 -21.5t-73.5 -62t-47.5 -98t-17 -128.5t17 -129t47.5 -99t73.5 -63.5t96 -22.5zM306 808h28l90 -98h-30l-72 68h-4l-72 -68h-30zM202 842q1 12 5 25.5t12 24.5t20.5 18.5t30.5 7.5t31 -8t24.5 -17t22 -17t24.5 -8q17 0 28 13.5t14 36.5h24
q-1 -12 -5 -25.5t-12 -24.5t-20.5 -18.5t-30.5 -7.5t-31 8t-24.5 17t-22.5 17t-24 8q-17 0 -28 -13.5t-14 -36.5h-24z" />
    <glyph glyph-name="uni1ED7" unicode="&#x1ed7;" horiz-adv-x="532" 
d="M54 238q0 60 17 107t46 79t67.5 49t81.5 17t81.5 -17t67.5 -49t46 -79t17 -107q0 -59 -17 -105.5t-46 -78.5t-67.5 -49t-81.5 -17t-81.5 17t-67.5 49t-46 78.5t-17 105.5zM86 238q0 -50 14 -90.5t38 -70t57 -45.5t71 -16t71 16t57 45.5t38 70t14 90.5q0 49 -14 90.5
t-38 71t-57 46t-71 16.5t-71 -16.5t-57 -46t-38 -71t-14 -90.5zM252 668h28l92 -98h-28l-76 70h-4l-76 -70h-28zM148 704q1 12 5 24.5t12 23t20.5 17.5t30.5 7t31 -7t24.5 -16t22 -16t24.5 -7q17 0 28 11.5t14 34.5h24q-1 -12 -5 -25t-12 -23.5t-20.5 -17t-30.5 -6.5t-31 7
t-24.5 16t-22.5 16t-24 7q-17 0 -28 -11.5t-14 -34.5h-24z" />
    <glyph glyph-name="uni1ED8" unicode="&#x1ed8;" horiz-adv-x="640" 
d="M320 -12q-59 0 -108 24.5t-84.5 69.5t-55.5 108.5t-20 141.5t20 141t55.5 107t84.5 68t108 24q58 0 107.5 -24t85 -68t55.5 -107t20 -141t-20 -141.5t-55.5 -108.5t-85 -69.5t-107.5 -24.5zM320 18q52 0 95.5 22.5t74 63.5t47.5 99t17 129t-17 128.5t-47.5 98t-74 62
t-95.5 21.5q-53 0 -96 -21.5t-73.5 -62t-47.5 -98t-17 -128.5t17 -129t47.5 -99t73.5 -63.5t96 -22.5zM210 710l96 104h28l96 -104h-30l-78 74h-4l-78 -74h-30zM320 -190q-14 0 -23 9.5t-9 26.5q0 15 9 24.5t23 9.5t23 -9.5t9 -24.5q0 -17 -9 -26.5t-23 -9.5z" />
    <glyph glyph-name="uni1ED9" unicode="&#x1ed9;" horiz-adv-x="532" 
d="M54 238q0 60 17 107t46 79t67.5 49t81.5 17t81.5 -17t67.5 -49t46 -79t17 -107q0 -59 -17 -105.5t-46 -78.5t-67.5 -49t-81.5 -17t-81.5 17t-67.5 49t-46 78.5t-17 105.5zM86 238q0 -50 14 -90.5t38 -70t57 -45.5t71 -16t71 16t57 45.5t38 70t14 90.5q0 49 -14 90.5
t-38 71t-57 46t-71 16.5t-71 -16.5t-57 -46t-38 -71t-14 -90.5zM252 706h28l94 -134h-28l-78 102h-4l-78 -102h-28zM267 -190q-14 0 -23 9.5t-9 26.5q0 15 9 24.5t23 9.5t23 -9.5t9 -24.5q0 -17 -9 -26.5t-23 -9.5z" />
    <glyph glyph-name="uni1EDA" unicode="&#x1eda;" horiz-adv-x="640" 
d="M320 18q52 0 95.5 22.5t74 63.5t47.5 99t17 129t-17 128.5t-47.5 98t-74 62t-95.5 21.5q-53 0 -96 -21.5t-73.5 -62t-47.5 -98t-17 -128.5t17 -129t47.5 -99t73.5 -63.5t96 -22.5zM554 764q18 -27 18 -52q0 -38 -26 -60.5t-71 -33.5q53 -43 83 -116t30 -170
q0 -78 -20 -141.5t-55.5 -108.5t-85 -69.5t-107.5 -24.5q-59 0 -108 24.5t-84.5 69.5t-55.5 108.5t-20 141.5t20 141t55.5 107t84.5 68t108 24q67 0 123 -32q51 7 75 24t24 46q0 18 -14 38zM318 710h-30l94 104h44z" />
    <glyph glyph-name="uni1EDB" unicode="&#x1edb;" horiz-adv-x="532" 
d="M266 16q38 0 71 16t57 45.5t38 70t14 90.5q0 49 -14 90.5t-38 71t-57 46t-71 16.5t-71 -16.5t-57 -46t-38 -71t-14 -90.5q0 -50 14 -90.5t38 -70t57 -45.5t71 -16zM460 592q18 -27 18 -52q0 -21 -7.5 -36.5t-20.5 -26.5t-29 -18t-32 -11q41 -32 65 -85t24 -125
q0 -59 -17 -105.5t-46 -78.5t-67.5 -49t-81.5 -17t-81.5 17t-67.5 49t-46 78.5t-17 105.5q0 60 17 107t46 79t67.5 49t81.5 17q48 0 92 -22q90 13 90 70q0 18 -14 38zM242 572h-28l92 134h40z" />
    <glyph glyph-name="uni1EDC" unicode="&#x1edc;" horiz-adv-x="640" 
d="M320 18q52 0 95.5 22.5t74 63.5t47.5 99t17 129t-17 128.5t-47.5 98t-74 62t-95.5 21.5q-53 0 -96 -21.5t-73.5 -62t-47.5 -98t-17 -128.5t17 -129t47.5 -99t73.5 -63.5t96 -22.5zM554 764q18 -27 18 -52q0 -38 -26 -60.5t-71 -33.5q53 -43 83 -116t30 -170
q0 -78 -20 -141.5t-55.5 -108.5t-85 -69.5t-107.5 -24.5q-59 0 -108 24.5t-84.5 69.5t-55.5 108.5t-20 141.5t20 141t55.5 107t84.5 68t108 24q67 0 123 -32q51 7 75 24t24 46q0 18 -14 38zM214 814h44l94 -104h-30z" />
    <glyph glyph-name="uni1EDD" unicode="&#x1edd;" horiz-adv-x="532" 
d="M266 16q38 0 71 16t57 45.5t38 70t14 90.5q0 49 -14 90.5t-38 71t-57 46t-71 16.5t-71 -16.5t-57 -46t-38 -71t-14 -90.5q0 -50 14 -90.5t38 -70t57 -45.5t71 -16zM460 592q18 -27 18 -52q0 -21 -7.5 -36.5t-20.5 -26.5t-29 -18t-32 -11q41 -32 65 -85t24 -125
q0 -59 -17 -105.5t-46 -78.5t-67.5 -49t-81.5 -17t-81.5 17t-67.5 49t-46 78.5t-17 105.5q0 60 17 107t46 79t67.5 49t81.5 17q48 0 92 -22q90 13 90 70q0 18 -14 38zM186 706h40l92 -134h-28z" />
    <glyph glyph-name="uni1EDE" unicode="&#x1ede;" horiz-adv-x="640" 
d="M320 18q52 0 95.5 22.5t74 63.5t47.5 99t17 129t-17 128.5t-47.5 98t-74 62t-95.5 21.5q-53 0 -96 -21.5t-73.5 -62t-47.5 -98t-17 -128.5t17 -129t47.5 -99t73.5 -63.5t96 -22.5zM554 764q18 -27 18 -52q0 -38 -26 -60.5t-71 -33.5q53 -43 83 -116t30 -170
q0 -78 -20 -141.5t-55.5 -108.5t-85 -69.5t-107.5 -24.5q-59 0 -108 24.5t-84.5 69.5t-55.5 108.5t-20 141.5t20 141t55.5 107t84.5 68t108 24q67 0 123 -32q51 7 75 24t24 46q0 18 -14 38zM290 726q29 9 47.5 22t18.5 36q0 24 -22.5 36t-63.5 14l2 26q22 -1 42.5 -5
t36.5 -13t25.5 -22t9.5 -32t-7.5 -32.5t-20 -23t-28.5 -16.5t-32 -12z" />
    <glyph glyph-name="uni1EDF" unicode="&#x1edf;" horiz-adv-x="532" 
d="M266 16q38 0 71 16t57 45.5t38 70t14 90.5q0 49 -14 90.5t-38 71t-57 46t-71 16.5t-71 -16.5t-57 -46t-38 -71t-14 -90.5q0 -50 14 -90.5t38 -70t57 -45.5t71 -16zM460 592q18 -27 18 -52q0 -21 -7.5 -36.5t-20.5 -26.5t-29 -18t-32 -11q41 -32 65 -85t24 -125
q0 -59 -17 -105.5t-46 -78.5t-67.5 -49t-81.5 -17t-81.5 17t-67.5 49t-46 78.5t-17 105.5q0 60 17 107t46 79t67.5 49t81.5 17q48 0 92 -22q90 13 90 70q0 18 -14 38zM236 572q29 9 47.5 22t18.5 36q0 24 -22.5 36t-63.5 14l2 26q22 -1 42.5 -5t36.5 -13t25.5 -22t9.5 -32
t-7.5 -32.5t-20 -23t-28.5 -16.5t-32 -12z" />
    <glyph glyph-name="uni1EE0" unicode="&#x1ee0;" horiz-adv-x="640" 
d="M320 18q52 0 95.5 22.5t74 63.5t47.5 99t17 129t-17 128.5t-47.5 98t-74 62t-95.5 21.5q-53 0 -96 -21.5t-73.5 -62t-47.5 -98t-17 -128.5t17 -129t47.5 -99t73.5 -63.5t96 -22.5zM554 764q18 -27 18 -52q0 -38 -26 -60.5t-71 -33.5q53 -43 83 -116t30 -170
q0 -78 -20 -141.5t-55.5 -108.5t-85 -69.5t-107.5 -24.5q-59 0 -108 24.5t-84.5 69.5t-55.5 108.5t-20 141.5t20 141t55.5 107t84.5 68t108 24q67 0 123 -32q51 7 75 24t24 46q0 18 -14 38zM378 718q-20 0 -34.5 9t-28 20t-26.5 20t-29 9q-17 0 -28 -16t-14 -42h-22
q1 14 5 29.5t12 28t20 20.5t29 8q19 0 34 -9t28.5 -20t26.5 -20t29 -9q17 0 28 16t14 42h22q-1 -14 -5 -29.5t-12 -28t-20.5 -20.5t-28.5 -8z" />
    <glyph glyph-name="uni1EE1" unicode="&#x1ee1;" horiz-adv-x="532" 
d="M266 16q38 0 71 16t57 45.5t38 70t14 90.5q0 49 -14 90.5t-38 71t-57 46t-71 16.5t-71 -16.5t-57 -46t-38 -71t-14 -90.5q0 -50 14 -90.5t38 -70t57 -45.5t71 -16zM460 592q18 -27 18 -52q0 -21 -7.5 -36.5t-20.5 -26.5t-29 -18t-32 -11q41 -32 65 -85t24 -125
q0 -59 -17 -105.5t-46 -78.5t-67.5 -49t-81.5 -17t-81.5 17t-67.5 49t-46 78.5t-17 105.5q0 60 17 107t46 79t67.5 49t81.5 17q48 0 92 -22q90 13 90 70q0 18 -14 38zM148 582q1 13 4.5 27.5t11 26.5t19 20t29.5 8t32.5 -9t27.5 -19.5t25 -19t25 -8.5q17 0 26 15t12 41h24
q-1 -13 -4.5 -27.5t-11 -26.5t-19 -20t-29.5 -8t-32 8.5t-27 19t-25 19.5t-26 9q-17 0 -26 -15t-12 -41h-24v0z" />
    <glyph glyph-name="uni1EE2" unicode="&#x1ee2;" horiz-adv-x="640" 
d="M320 18q52 0 95.5 22.5t74 63.5t47.5 99t17 129t-17 128.5t-47.5 98t-74 62t-95.5 21.5q-53 0 -96 -21.5t-73.5 -62t-47.5 -98t-17 -128.5t17 -129t47.5 -99t73.5 -63.5t96 -22.5zM554 764q18 -27 18 -52q0 -38 -26 -60.5t-71 -33.5q53 -43 83 -116t30 -170
q0 -78 -20 -141.5t-55.5 -108.5t-85 -69.5t-107.5 -24.5q-59 0 -108 24.5t-84.5 69.5t-55.5 108.5t-20 141.5t20 141t55.5 107t84.5 68t108 24q67 0 123 -32q51 7 75 24t24 46q0 18 -14 38zM320 -190q-14 0 -23 9.5t-9 26.5q0 15 9 24.5t23 9.5t23 -9.5t9 -24.5
q0 -17 -9 -26.5t-23 -9.5z" />
    <glyph glyph-name="uni1EE3" unicode="&#x1ee3;" horiz-adv-x="532" 
d="M266 16q38 0 71 16t57 45.5t38 70t14 90.5q0 49 -14 90.5t-38 71t-57 46t-71 16.5t-71 -16.5t-57 -46t-38 -71t-14 -90.5q0 -50 14 -90.5t38 -70t57 -45.5t71 -16zM460 592q18 -27 18 -52q0 -21 -7.5 -36.5t-20.5 -26.5t-29 -18t-32 -11q41 -32 65 -85t24 -125
q0 -59 -17 -105.5t-46 -78.5t-67.5 -49t-81.5 -17t-81.5 17t-67.5 49t-46 78.5t-17 105.5q0 60 17 107t46 79t67.5 49t81.5 17q48 0 92 -22q90 13 90 70q0 18 -14 38zM267 -190q-14 0 -23 9.5t-9 26.5q0 15 9 24.5t23 9.5t23 -9.5t9 -24.5q0 -17 -9 -26.5t-23 -9.5z" />
    <glyph glyph-name="uni1EE4" unicode="&#x1ee4;" horiz-adv-x="622" 
d="M94 660h32v-406q0 -68 15 -113.5t40.5 -72.5t59 -38.5t69.5 -11.5q37 0 71 11.5t60 38.5t41.5 72.5t15.5 113.5v406h30v-414q0 -77 -19 -126.5t-50 -79t-70 -41t-79 -11.5t-78.5 11.5t-69 41t-49.5 79t-19 126.5v414zM311 -190q-14 0 -23 9.5t-9 26.5q0 15 9 24.5t23 9.5
t23 -9.5t9 -24.5q0 -17 -9 -26.5t-23 -9.5z" />
    <glyph glyph-name="uni1EE5" unicode="&#x1ee5;" horiz-adv-x="524" 
d="M88 478h30v-304q0 -80 27 -119t89 -39q45 0 82 25t82 79v358h30v-478h-26l-4 82h-2q-36 -42 -75 -68t-89 -26q-74 0 -109 44t-35 138v308zM280 -190q-14 0 -23 9.5t-9 26.5q0 15 9 24.5t23 9.5t23 -9.5t9 -24.5q0 -17 -9 -26.5t-23 -9.5z" />
    <glyph glyph-name="uni1EE6" unicode="&#x1ee6;" horiz-adv-x="622" 
d="M94 660h32v-406q0 -68 15 -113.5t40.5 -72.5t59 -38.5t69.5 -11.5q37 0 71 11.5t60 38.5t41.5 72.5t15.5 113.5v406h30v-414q0 -77 -19 -126.5t-50 -79t-70 -41t-79 -11.5t-78.5 11.5t-69 41t-49.5 79t-19 126.5v414zM281 726q29 9 47.5 22t18.5 36q0 24 -22.5 36
t-63.5 14l2 26q22 -1 42.5 -5t36.5 -13t25.5 -22t9.5 -32t-7.5 -32.5t-20 -23t-28.5 -16.5t-32 -12z" />
    <glyph glyph-name="uni1EE7" unicode="&#x1ee7;" horiz-adv-x="524" 
d="M88 478h30v-304q0 -80 27 -119t89 -39q45 0 82 25t82 79v358h30v-478h-26l-4 82h-2q-36 -42 -75 -68t-89 -26q-74 0 -109 44t-35 138v308zM232 572q29 9 47.5 22t18.5 36q0 24 -22.5 36t-63.5 14l2 26q22 -1 42.5 -5t36.5 -13t25.5 -22t9.5 -32t-7.5 -32.5t-20 -23
t-28.5 -16.5t-32 -12z" />
    <glyph glyph-name="uni1EE8" unicode="&#x1ee8;" horiz-adv-x="632" 
d="M608 784q18 -27 18 -52q0 -23 -8.5 -38.5t-22 -26.5t-31 -18t-36.5 -11v-392q0 -77 -19 -126.5t-50 -79t-70 -41t-79 -11.5t-78.5 11.5t-69 41t-49.5 79t-19 126.5v414h32v-406q0 -68 15 -113.5t40.5 -72.5t59 -38.5t69.5 -11.5q37 0 71 11.5t60 38.5t41.5 72.5
t15.5 113.5v406h6q48 8 70 24t22 46q0 18 -14 38zM308 710h-30l94 104h44z" />
    <glyph glyph-name="uni1EE9" unicode="&#x1ee9;" horiz-adv-x="524" 
d="M498 602q18 -27 18 -52q0 -23 -8.5 -38.5t-21.5 -26t-28.5 -17t-29.5 -10.5v-458h-26l-4 82h-2q-36 -42 -75 -68t-89 -26q-74 0 -109 44t-35 138v308h30v-304q0 -80 27 -119t89 -39q45 0 82 25t82 79v358h2q41 6 63.5 23t22.5 47q0 18 -14 38zM235 572h-28l92 134h40z
" />
    <glyph glyph-name="uni1EEA" unicode="&#x1eea;" horiz-adv-x="632" 
d="M608 784q18 -27 18 -52q0 -23 -8.5 -38.5t-22 -26.5t-31 -18t-36.5 -11v-392q0 -77 -19 -126.5t-50 -79t-70 -41t-79 -11.5t-78.5 11.5t-69 41t-49.5 79t-19 126.5v414h32v-406q0 -68 15 -113.5t40.5 -72.5t59 -38.5t69.5 -11.5q37 0 71 11.5t60 38.5t41.5 72.5
t15.5 113.5v406h6q48 8 70 24t22 46q0 18 -14 38zM204 814h44l94 -104h-30z" />
    <glyph glyph-name="uni1EEB" unicode="&#x1eeb;" horiz-adv-x="524" 
d="M498 602q18 -27 18 -52q0 -23 -8.5 -38.5t-21.5 -26t-28.5 -17t-29.5 -10.5v-458h-26l-4 82h-2q-36 -42 -75 -68t-89 -26q-74 0 -109 44t-35 138v308h30v-304q0 -80 27 -119t89 -39q45 0 82 25t82 79v358h2q41 6 63.5 23t22.5 47q0 18 -14 38zM179 706h40l92 -134h-28z
" />
    <glyph glyph-name="uni1EEC" unicode="&#x1eec;" horiz-adv-x="632" 
d="M608 784q18 -27 18 -52q0 -23 -8.5 -38.5t-22 -26.5t-31 -18t-36.5 -11v-392q0 -77 -19 -126.5t-50 -79t-70 -41t-79 -11.5t-78.5 11.5t-69 41t-49.5 79t-19 126.5v414h32v-406q0 -68 15 -113.5t40.5 -72.5t59 -38.5t69.5 -11.5q37 0 71 11.5t60 38.5t41.5 72.5
t15.5 113.5v406h6q48 8 70 24t22 46q0 18 -14 38zM280 726q29 9 47.5 22t18.5 36q0 24 -22.5 36t-63.5 14l2 26q22 -1 42.5 -5t36.5 -13t25.5 -22t9.5 -32t-7.5 -32.5t-20 -23t-28.5 -16.5t-32 -12z" />
    <glyph glyph-name="uni1EED" unicode="&#x1eed;" horiz-adv-x="524" 
d="M498 602q18 -27 18 -52q0 -23 -8.5 -38.5t-21.5 -26t-28.5 -17t-29.5 -10.5v-458h-26l-4 82h-2q-36 -42 -75 -68t-89 -26q-74 0 -109 44t-35 138v308h30v-304q0 -80 27 -119t89 -39q45 0 82 25t82 79v358h2q41 6 63.5 23t22.5 47q0 18 -14 38zM229 572q29 9 47.5 22
t18.5 36q0 24 -22.5 36t-63.5 14l2 26q22 -1 42.5 -5t36.5 -13t25.5 -22t9.5 -32t-7.5 -32.5t-20 -23t-28.5 -16.5t-32 -12z" />
    <glyph glyph-name="uni1EEE" unicode="&#x1eee;" horiz-adv-x="632" 
d="M608 784q18 -27 18 -52q0 -23 -8.5 -38.5t-22 -26.5t-31 -18t-36.5 -11v-392q0 -77 -19 -126.5t-50 -79t-70 -41t-79 -11.5t-78.5 11.5t-69 41t-49.5 79t-19 126.5v414h32v-406q0 -68 15 -113.5t40.5 -72.5t59 -38.5t69.5 -11.5q37 0 71 11.5t60 38.5t41.5 72.5
t15.5 113.5v406h6q48 8 70 24t22 46q0 18 -14 38zM368 718q-20 0 -34.5 9t-28 20t-26.5 20t-29 9q-17 0 -28 -16t-14 -42h-22q1 14 5 29.5t12 28t20 20.5t29 8q19 0 34 -9t28.5 -20t26.5 -20t29 -9q17 0 28 16t14 42h22q-1 -14 -5 -29.5t-12 -28t-20.5 -20.5t-28.5 -8z" />
    <glyph glyph-name="uni1EEF" unicode="&#x1eef;" horiz-adv-x="524" 
d="M498 602q18 -27 18 -52q0 -23 -8.5 -38.5t-21.5 -26t-28.5 -17t-29.5 -10.5v-458h-26l-4 82h-2q-36 -42 -75 -68t-89 -26q-74 0 -109 44t-35 138v308h30v-304q0 -80 27 -119t89 -39q45 0 82 25t82 79v358h2q41 6 63.5 23t22.5 47q0 18 -14 38zM141 582q1 13 4.5 27.5
t11 26.5t19 20t29.5 8t32.5 -9t27.5 -19.5t25 -19t25 -8.5q17 0 26 15t12 41h24q-1 -13 -4.5 -27.5t-11 -26.5t-19 -20t-29.5 -8t-32 8.5t-27 19t-25 19.5t-26 9q-17 0 -26 -15t-12 -41h-24v0z" />
    <glyph glyph-name="uni1EF0" unicode="&#x1ef0;" horiz-adv-x="632" 
d="M608 784q18 -27 18 -52q0 -23 -8.5 -38.5t-22 -26.5t-31 -18t-36.5 -11v-392q0 -77 -19 -126.5t-50 -79t-70 -41t-79 -11.5t-78.5 11.5t-69 41t-49.5 79t-19 126.5v414h32v-406q0 -68 15 -113.5t40.5 -72.5t59 -38.5t69.5 -11.5q37 0 71 11.5t60 38.5t41.5 72.5
t15.5 113.5v406h6q48 8 70 24t22 46q0 18 -14 38zM310 -190q-14 0 -23 9.5t-9 26.5q0 15 9 24.5t23 9.5t23 -9.5t9 -24.5q0 -17 -9 -26.5t-23 -9.5z" />
    <glyph glyph-name="uni1EF1" unicode="&#x1ef1;" horiz-adv-x="524" 
d="M498 602q18 -27 18 -52q0 -23 -8.5 -38.5t-21.5 -26t-28.5 -17t-29.5 -10.5v-458h-26l-4 82h-2q-36 -42 -75 -68t-89 -26q-74 0 -109 44t-35 138v308h30v-304q0 -80 27 -119t89 -39q45 0 82 25t82 79v358h2q41 6 63.5 23t22.5 47q0 18 -14 38zM278 -190q-14 0 -23 9.5
t-9 26.5q0 15 9 24.5t23 9.5t23 -9.5t9 -24.5q0 -17 -9 -26.5t-23 -9.5z" />
    <glyph glyph-name="Ygrave" unicode="&#x1ef2;" horiz-adv-x="428" 
d="M198 272l-198 388h34l106 -214q18 -36 35 -71t37 -71h4q20 36 38.5 71t35.5 71l106 214h32l-198 -388v-272h-32v272zM108 814h44l94 -104h-30z" />
    <glyph glyph-name="ygrave" unicode="&#x1ef3;" horiz-adv-x="424" 
d="M28 -184q8 -3 18.5 -5.5t21.5 -2.5q45 0 76.5 38.5t51.5 97.5l14 44l-198 490h34l122 -314q12 -30 26 -66t28 -68h4q12 32 23.5 68t22.5 66l108 314h32l-192 -546q-9 -28 -22.5 -55.5t-32.5 -49.5t-43.5 -35.5t-55.5 -13.5q-26 0 -46 10l8 28v0zM144 706h40l92 -134h-28z
" />
    <glyph glyph-name="uni1EF4" unicode="&#x1ef4;" horiz-adv-x="428" 
d="M198 272l-198 388h34l106 -214q18 -36 35 -71t37 -71h4q20 36 38.5 71t35.5 71l106 214h32l-198 -388v-272h-32v272zM216 -190q-14 0 -23 9.5t-9 26.5q0 15 9 24.5t23 9.5t23 -9.5t9 -24.5q0 -17 -9 -26.5t-23 -9.5z" />
    <glyph glyph-name="uni1EF5" unicode="&#x1ef5;" horiz-adv-x="424" 
d="M28 -184q8 -3 18.5 -5.5t21.5 -2.5q45 0 76.5 38.5t51.5 97.5l14 44l-198 490h34l122 -314q12 -30 26 -66t28 -68h4q12 32 23.5 68t22.5 66l108 314h32l-192 -546q-9 -28 -22.5 -55.5t-32.5 -49.5t-43.5 -35.5t-55.5 -13.5q-26 0 -46 10l8 28v0zM348 -190q-14 0 -23 9.5
t-9 26.5q0 15 9 24.5t23 9.5t23 -9.5t9 -24.5q0 -17 -9 -26.5t-23 -9.5z" />
    <glyph glyph-name="uni1EF6" unicode="&#x1ef6;" horiz-adv-x="428" 
d="M198 272l-198 388h34l106 -214q18 -36 35 -71t37 -71h4q20 36 38.5 71t35.5 71l106 214h32l-198 -388v-272h-32v272zM184 726q29 9 47.5 22t18.5 36q0 24 -22.5 36t-63.5 14l2 26q22 -1 42.5 -5t36.5 -13t25.5 -22t9.5 -32t-7.5 -32.5t-20 -23t-28.5 -16.5t-32 -12z" />
    <glyph glyph-name="uni1EF7" unicode="&#x1ef7;" horiz-adv-x="424" 
d="M28 -184q8 -3 18.5 -5.5t21.5 -2.5q45 0 76.5 38.5t51.5 97.5l14 44l-198 490h34l122 -314q12 -30 26 -66t28 -68h4q12 32 23.5 68t22.5 66l108 314h32l-192 -546q-9 -28 -22.5 -55.5t-32.5 -49.5t-43.5 -35.5t-55.5 -13.5q-26 0 -46 10l8 28v0zM194 572q29 9 47.5 22
t18.5 36q0 24 -22.5 36t-63.5 14l2 26q22 -1 42.5 -5t36.5 -13t25.5 -22t9.5 -32t-7.5 -32.5t-20 -23t-28.5 -16.5t-32 -12z" />
    <glyph glyph-name="uni1EF8" unicode="&#x1ef8;" horiz-adv-x="428" 
d="M198 272l-198 388h34l106 -214q18 -36 35 -71t37 -71h4q20 36 38.5 71t35.5 71l106 214h32l-198 -388v-272h-32v272zM272 718q-20 0 -34.5 9t-28 20t-26.5 20t-29 9q-17 0 -28 -16t-14 -42h-22q1 14 5 29.5t12 28t20 20.5t29 8q19 0 34 -9t28.5 -20t26.5 -20t29 -9
q17 0 28 16t14 42h22q-1 -14 -5 -29.5t-12 -28t-20.5 -20.5t-28.5 -8z" />
    <glyph glyph-name="uni1EF9" unicode="&#x1ef9;" horiz-adv-x="424" 
d="M28 -184q8 -3 18.5 -5.5t21.5 -2.5q45 0 76.5 38.5t51.5 97.5l14 44l-198 490h34l122 -314q12 -30 26 -66t28 -68h4q12 32 23.5 68t22.5 66l108 314h32l-192 -546q-9 -28 -22.5 -55.5t-32.5 -49.5t-43.5 -35.5t-55.5 -13.5q-26 0 -46 10l8 28v0zM106 582q1 13 4.5 27.5
t11 26.5t19 20t29.5 8t32.5 -9t27.5 -19.5t25 -19t25 -8.5q17 0 26 15t12 41h24q-1 -13 -4.5 -27.5t-11 -26.5t-19 -20t-29.5 -8t-32 8.5t-27 19t-25 19.5t-26 9q-17 0 -26 -15t-12 -41h-24v0z" />
    <glyph glyph-name="uni2007" unicode="&#x2007;" horiz-adv-x="472" 
 />
    <glyph glyph-name="figuredash" unicode="&#x2012;" horiz-adv-x="472" 
d="M40 264h394v-28h-394v28z" />
    <glyph glyph-name="endash" unicode="&#x2013;" horiz-adv-x="480" 
d="M40 264h400v-28h-400v28z" />
    <glyph glyph-name="emdash" unicode="&#x2014;" horiz-adv-x="800" 
d="M40 264h720v-28h-720v28z" />
    <glyph glyph-name="uni2015" unicode="&#x2015;" horiz-adv-x="800" 
d="M40 264h720v-28h-720v28z" />
    <glyph glyph-name="quoteleft" unicode="&#x2018;" horiz-adv-x="208" 
d="M152 688q-32 -27 -48 -54t-16 -69q2 1 8 1q12 0 23 -7.5t11 -24.5t-9.5 -25.5t-24.5 -8.5q-17 0 -27.5 14.5t-10.5 43.5q0 51 21 86.5t57 61.5z" />
    <glyph glyph-name="quoteright" unicode="&#x2019;" horiz-adv-x="208" 
d="M56 512q32 27 48 54t16 69q-2 -1 -8 -1q-12 0 -23 7.5t-11 24.5t9.5 25.5t24.5 8.5q17 0 27.5 -14.5t10.5 -43.5q0 -51 -21 -86.5t-57 -61.5z" />
    <glyph glyph-name="quotesinglbase" unicode="&#x201a;" horiz-adv-x="208" 
d="M56 -107q32 27 48 54t16 69q-2 -1 -8 -1q-12 0 -23 7.5t-11 24.5t9.5 25.5t24.5 8.5q17 0 27.5 -14.5t10.5 -43.5q0 -51 -21 -86.5t-57 -61.5z" />
    <glyph glyph-name="quotedblleft" unicode="&#x201c;" horiz-adv-x="336" 
d="M152 688q-32 -27 -48 -54t-16 -69q2 1 8 1q12 0 23 -7.5t11 -24.5t-9.5 -25.5t-24.5 -8.5q-17 0 -27.5 14.5t-10.5 43.5q0 51 21 86.5t57 61.5zM280 688q-32 -27 -48 -54t-16 -69q2 1 8 1q12 0 23 -7.5t11 -24.5t-9.5 -25.5t-24.5 -8.5q-17 0 -27.5 14.5t-10.5 43.5
q0 51 21 86.5t57 61.5z" />
    <glyph glyph-name="quotedblright" unicode="&#x201d;" horiz-adv-x="336" 
d="M56 512q32 27 48 54t16 69q-2 -1 -8 -1q-12 0 -23 7.5t-11 24.5t9.5 25.5t24.5 8.5q17 0 27.5 -14.5t10.5 -43.5q0 -51 -21 -86.5t-57 -61.5zM184 512q32 27 48 54t16 69q-2 -1 -8 -1q-12 0 -23 7.5t-11 24.5t9.5 25.5t24.5 8.5q17 0 27.5 -14.5t10.5 -43.5
q0 -51 -21 -86.5t-57 -61.5z" />
    <glyph glyph-name="quotedblbase" unicode="&#x201e;" horiz-adv-x="336" 
d="M56 -107q32 27 48 54t16 69q-2 -1 -8 -1q-12 0 -23 7.5t-11 24.5t9.5 25.5t24.5 8.5q17 0 27.5 -14.5t10.5 -43.5q0 -51 -21 -86.5t-57 -61.5zM184 -107q32 27 48 54t16 69q-2 -1 -8 -1q-12 0 -23 7.5t-11 24.5t9.5 25.5t24.5 8.5q17 0 27.5 -14.5t10.5 -43.5
q0 -51 -21 -86.5t-57 -61.5z" />
    <glyph glyph-name="dagger" unicode="&#x2020;" horiz-adv-x="408" 
d="M190 534l-128 -2v32l128 -2l-2 150h32l-2 -150l128 2v-32l-128 2l2 -614h-32z" />
    <glyph glyph-name="daggerdbl" unicode="&#x2021;" horiz-adv-x="408" 
d="M62 100l128 -2l-2 218l2 218l-128 -2v32l128 -2l-2 150h32l-2 -150l128 2v-32l-128 2l2 -218l-2 -218l128 2v-32l-128 2l2 -150h-32l2 150l-128 -2v32z" />
    <glyph glyph-name="bullet" unicode="&#x2022;" horiz-adv-x="272" 
d="M136 158q-18 0 -35.5 7.5t-31 21t-21.5 33t-8 44.5t8 44.5t21.5 33t31 21t35.5 7.5t35 -7.5t30.5 -21t22 -33t8.5 -44.5t-8.5 -44.5t-22 -33t-30.5 -21t-35 -7.5z" />
    <glyph glyph-name="ellipsis" unicode="&#x2026;" horiz-adv-x="924" 
d="M108 26q0 20 11 30t25 10t25 -10t11 -30q0 -18 -11 -28t-25 -10t-25 10t-11 28zM446 26q0 20 11 30t25 10t25 -10t11 -30q0 -18 -11 -28t-25 -10t-25 10t-11 28zM784 26q0 20 11 30t25 10t25 -10t11 -30q0 -18 -11 -28t-25 -10t-25 10t-11 28z" />
    <glyph glyph-name="perthousand" unicode="&#x2030;" horiz-adv-x="1150" 
d="M192 -12l370 684h32l-370 -684h-32zM180 258q-65 0 -101.5 53.5t-36.5 154.5q0 100 36.5 153t101.5 53t101.5 -53t36.5 -153q0 -101 -36.5 -154.5t-101.5 -53.5zM180 284q50 0 79 48t29 134t-29 133t-79 47t-79 -47t-29 -133t29 -134t79 -48zM614 -12q-65 0 -101.5 53.5
t-36.5 154.5q0 100 36.5 153t101.5 53t101.5 -53t36.5 -153q0 -101 -36.5 -154.5t-101.5 -53.5zM614 14q50 0 79 48t29 134t-29 133t-79 47t-79 -47t-29 -133t29 -134t79 -48zM970 -12q-65 0 -101.5 53.5t-36.5 154.5q0 100 36.5 153t101.5 53t101.5 -53t36.5 -153
q0 -101 -36.5 -154.5t-101.5 -53.5zM970 14q50 0 79 48t29 134t-29 133t-79 47t-79 -47t-29 -133t29 -134t79 -48z" />
    <glyph glyph-name="uni2032" unicode="&#x2032;" horiz-adv-x="208" 
d="M106 694h28l-8 -64l-24 -132h-20z" />
    <glyph glyph-name="uni2033" unicode="&#x2033;" horiz-adv-x="336" 
d="M106 694h28l-8 -64l-24 -132h-20zM234 694h28l-8 -64l-24 -132h-20z" />
    <glyph glyph-name="guilsinglleft" unicode="&#x2039;" horiz-adv-x="254" 
d="M42 238v28l138 164l20 -18l-124 -160l124 -162l-20 -16z" />
    <glyph glyph-name="guilsinglright" unicode="&#x203a;" horiz-adv-x="254" 
d="M178 252l-124 160l20 18l138 -164v-28l-138 -164l-20 16z" />
    <glyph glyph-name="fraction" unicode="&#x2044;" horiz-adv-x="78" 
d="M-164 -12l370 684h32l-370 -684h-32z" />
    <glyph glyph-name="zero.sups" unicode="&#x2070;" horiz-adv-x="360" 
d="M180 428q-65 0 -101.5 53.5t-36.5 154.5q0 100 36.5 153t101.5 53t101.5 -53t36.5 -153q0 -101 -36.5 -154.5t-101.5 -53.5zM180 454q50 0 79 48t29 134t-29 133t-79 47t-79 -47t-29 -133t29 -134t79 -48z" />
    <glyph glyph-name="i.sups" unicode="&#x2071;" horiz-adv-x="148" 
d="M76 652q-12 0 -20 8t-8 20t8 20t20 8t20 -8t8 -20t-8 -20t-20 -8zM60 576h28v-316h-28v316z" />
    <glyph glyph-name="four.sups" unicode="&#x2074;" horiz-adv-x="360" 
d="M224 584v94l4 102h-4l-58 -84l-78 -112h136zM310 558h-58v-118h-28v118h-176v16l182 256h22v-246h58v-26z" />
    <glyph glyph-name="five.sups" unicode="&#x2075;" horiz-adv-x="360" 
d="M66 520q20 -29 47.5 -47.5t68.5 -18.5q42 0 70 30t28 78q0 50 -27.5 79t-72.5 29q-29 0 -49 -12t-37 -26l-20 14l20 184h194v-28h-168l-14 -128q15 9 33.5 15.5t42.5 6.5q54 0 91 -34t37 -100q0 -31 -10 -55.5t-28 -42t-41.5 -27t-50.5 -9.5q-51 0 -84 22.5t-54 51.5z
" />
    <glyph glyph-name="six.sups" unicode="&#x2076;" horiz-adv-x="360" 
d="M194 454q41 0 65.5 30t24.5 72t-23.5 71t-70.5 29q-29 0 -54 -11.5t-54 -42.5q4 -70 33 -109t79 -39zM278 794q-14 9 -30.5 15.5t-37.5 6.5q-22 0 -44 -10t-40 -31.5t-30 -55.5t-14 -83q51 46 110 46q60 0 91 -36t31 -90q0 -27 -9 -50.5t-25.5 -40.5t-39 -27t-48.5 -10
q-62 0 -101 49t-39 141q0 62 13.5 105t36 69.5t51.5 38t59 11.5q27 0 45 -5.5t35 -16.5z" />
    <glyph glyph-name="seven.sups" unicode="&#x2077;" horiz-adv-x="360" 
d="M142 440q4 55 12.5 102.5t23.5 91.5t38 85.5t56 84.5h-222v26h256v-18q-38 -48 -62.5 -92.5t-39.5 -89t-22 -91.5t-10 -99h-30v0z" />
    <glyph glyph-name="eight.sups" unicode="&#x2078;" horiz-adv-x="360" 
d="M80 538q0 -16 7 -31t19.5 -27t30.5 -19t41 -7q41 0 69.5 24.5t28.5 59.5q0 23 -10.5 38.5t-28.5 26t-40.5 18.5t-46.5 17q-70 -40 -70 -100zM206 650q56 41 56 94q0 32 -24.5 51t-59.5 19q-33 0 -56.5 -20t-23.5 -52q0 -36 31.5 -57t76.5 -35zM50 536q0 39 23 68t53 46v4
q-26 17 -42 36.5t-16 51.5q0 44 31.5 72t78.5 28q48 0 81 -27.5t33 -72.5q0 -20 -6.5 -35.5t-15.5 -27.5t-19.5 -21t-18.5 -16v-4q36 -18 55 -40.5t19 -57.5q0 -24 -10 -44.5t-27 -35.5t-40.5 -23.5t-50.5 -8.5q-29 0 -53 8.5t-40.5 23.5t-25.5 34.5t-9 41.5z" />
    </font>
</defs>
</svg>
