<?xml version="1.0" standalone="no"?>
<!DOCTYPE svg PUBLIC "-//W3C//DTD SVG 1.1//EN" "http://www.w3.org/Graphics/SVG/1.1/DTD/svg11.dtd" >
<svg xmlns="http://www.w3.org/2000/svg" xmlns:xlink="http://www.w3.org/1999/xlink" version="1.1">
<metadata>
Created by FontForge 20170731 at Tue May  8 13:07:04 2007
 By Aleksey,,,
Copyright (c) 1991 Adobe Systems Incorporated. All Rights Reserved.Berthold Akzidenz Grotesk is a registered trademark of H. Berthold AG.
</metadata>
<defs>
<font id="AkzidenzGroteskBE-Light" horiz-adv-x="521" >
  <font-face 
    font-family="Berthold Akzidenz Grotesk BE Li"
    font-weight="300"
    font-stretch="normal"
    units-per-em="1000"
    panose-1="0 0 0 0 0 0 0 0 0 0"
    ascent="800"
    descent="-200"
    x-height="477"
    cap-height="706"
    bbox="-131 -256 1219.12 907"
    underline-thickness="50"
    underline-position="-200"
    unicode-range="U+0020-FB02"
  />
<missing-glyph horiz-adv-x="271" 
 />
    <glyph glyph-name=".notdef" horiz-adv-x="271" 
 />
    <glyph glyph-name=".null" horiz-adv-x="0" 
 />
    <glyph glyph-name="nonmarkingreturn" horiz-adv-x="333" 
 />
    <glyph glyph-name="space" unicode=" " horiz-adv-x="271" 
 />
    <glyph glyph-name="exclam" unicode="!" horiz-adv-x="208" 
d="M86 116h76v-116h-76v116zM156 307l-9 -131h-47l-8 131v405h64v-405z" />
    <glyph glyph-name="quotedbl" unicode="&#x22;" horiz-adv-x="396" 
d="M336 700l-36 -255h-19l-32 242q-1 6 -1 16q0 24 14 35t31 11q9 0 18 -3q25 -11 25 -46zM148 700l-35 -255h-19l-33 242q0 3 -0.5 8.5t-0.5 7.5q0 24 14.5 35t31.5 11q9 0 18 -3q24 -11 24 -46z" />
    <glyph glyph-name="numbersign" unicode="#" horiz-adv-x="667" 
d="M429 259l-35 -259h-62l38 259h-101l-38 -259h-58l36 259h-167v54h175l13 97h-167v57h174l32 241h63l-34 -241h100l31 241h60l-33 -241h168v-57h-175l-13 -97h168v-54h-175zM276 313h101l13 97h-100z" />
    <glyph glyph-name="dollar" unicode="$" horiz-adv-x="604" 
d="M323 0v-92h-58v92q-89 11 -145 54q-62 47 -93 124l71 7q50 -106 167 -123v284q-28 9 -42 14t-42 16.5t-44 24.5t-34 31.5t-26.5 43t-8.5 54.5q0 72 51 120q47 44 146 56v62h58v-62q78 -6 128 -49t70 -114l-68 -8q-13 42 -47 73q-35 29 -83 35v-248q54 -14 91.5 -28.5
t71 -37t50 -54t16.5 -72.5q0 -91 -68 -146t-161 -57zM265 413v232q-54 -2 -92 -30.5t-38 -81.5q0 -42 31 -71q39 -35 99 -49zM323 327v-267q81 0 121.5 43t40.5 94q0 47 -37.5 77.5t-124.5 52.5z" />
    <glyph glyph-name="percent" unicode="%" horiz-adv-x="875" 
d="M344 477q-2 -93 -41 -156.5t-116 -63.5q-54 0 -90.5 35t-51 84.5t-14.5 108.5q0 103 41 166.5t117 63.5q45 0 77.5 -22t48.5 -59t23 -76t6 -81zM293 478q1 86 -26 139.5t-79 53.5q-51 0 -78 -52.5t-27 -132.5q0 -95 30 -142q26 -42 75 -42q31 0 52.5 16.5t32.5 45
t15.5 56t4.5 58.5zM638 730l-353 -769l-40 18l352 771zM844 212q-2 -93 -41 -156.5t-116 -63.5q-41 0 -72.5 20t-49 53.5t-26 72.5t-8.5 82q0 103 41 166.5t117 63.5q45 0 77.5 -22t48.5 -59t23 -76t6 -81zM793 213q1 86 -26 139.5t-79 53.5q-51 0 -78 -52.5t-27 -132.5
q0 -95 30 -142q26 -42 75 -42q31 0 52.5 16.5t32.5 45t15.5 56t4.5 58.5z" />
    <glyph glyph-name="ampersand" unicode="&#x26;" horiz-adv-x="646" 
d="M620 52v-61q-49 1 -77 20.5t-74 71.5q-24 -35 -74 -63t-119 -28q-99 0 -160 57.5t-61 138.5q0 74 49 137q22 29 46.5 48.5t82.5 56.5q-58 78 -58 151q0 61 38 99.5t102 38.5q63 0 100.5 -34.5t37.5 -89.5q0 -49 -34 -99q-28 -38 -102 -86q92 -147 152 -222q23 59 25 128
h63q-1 -34 -13 -85t-38 -93q40 -51 56 -65q27 -21 58 -21zM435 128q-58 80 -84 119q-62 98 -85 131q-24 -15 -38 -24t-36.5 -28.5t-35.5 -37t-23 -43.5t-10 -54q0 -62 45.5 -101.5t109.5 -39.5q93 0 157 78zM285 462q106 53 106 129q0 26 -17.5 49t-56.5 23q-44 0 -62 -24.5
t-18 -56.5q0 -44 48 -120z" />
    <glyph glyph-name="quotesingle" unicode="'" horiz-adv-x="208" 
d="M148 700l-35 -255h-19l-33 242q0 3 -0.5 8.5t-0.5 7.5q0 24 14.5 35t31.5 11q9 0 18 -3q24 -11 24 -46z" />
    <glyph glyph-name="parenleft" unicode="(" horiz-adv-x="313" 
d="M289 798v-50q-51 -47 -72 -75q-57 -72 -79 -164t-22 -170q0 -134 51.5 -255t127.5 -182v-52q-121 76 -186.5 214.5t-65.5 273.5q0 37 5.5 78.5t22 96t42.5 103.5t71.5 98.5t104.5 83.5z" />
    <glyph glyph-name="parenright" unicode=")" horiz-adv-x="313" 
d="M23 -150v49q51 47 72 76q56 72 78.5 163.5t22.5 169.5q0 134 -51 255t-127 182v53q82 -52 140.5 -138t84.5 -175.5t26 -175.5q0 -37 -5.5 -78t-22 -95.5t-42.5 -103.5t-71.5 -98.5t-104.5 -83.5z" />
    <glyph glyph-name="asterisk" unicode="*" horiz-adv-x="292" 
d="M180 574l51 -68l-37 -29l-47 73l-48 -73l-40 29l53 68l-85 23l15 44l82 -27v92h46v-92l79 31l15 -43z" />
    <glyph glyph-name="plus" unicode="+" horiz-adv-x="667" 
d="M364 261v-261h-59v261h-262v60h262v260h59v-260h261v-60h-261z" />
    <glyph glyph-name="comma" unicode="," horiz-adv-x="167" 
d="M44 116h79v-80q-1 -79 -8 -112.5t-38 -81.5l-33 22q38 58 38 130v6h-38v116z" />
    <glyph glyph-name="hyphen" unicode="-" horiz-adv-x="354" 
d="M317 358v-65h-279v65h279z" />
    <glyph glyph-name="period" unicode="." horiz-adv-x="167" 
d="M44 116h79v-116h-79v116z" />
    <glyph glyph-name="slash" unicode="/" horiz-adv-x="479" 
d="M469 706l-383 -706h-76l385 706h74z" />
    <glyph glyph-name="zero" unicode="0" horiz-adv-x="583" 
d="M540 339q-2 -70 -16.5 -131t-43.5 -111.5t-77.5 -80t-111.5 -29.5q-66 0 -116 32.5t-77.5 86.5t-40.5 116t-13 130q0 162 64 265t186 103q59 0 105 -25.5t72.5 -65t42.5 -92t21.5 -100.5t4.5 -98zM473 340q2 148 -45.5 236.5t-135.5 88.5t-134.5 -87t-46.5 -224
q0 -158 51 -238q47 -73 130 -73q40 0 71 15.5t49.5 43.5t31.5 57.5t18.5 66.5t8 62t2.5 52z" />
    <glyph glyph-name="one" unicode="1" horiz-adv-x="583" 
d="M350 706v-706h-61v573q-38 -29 -128 -28v54q45 1 74 12.5t39.5 31t13 32.5t1.5 31h61z" />
    <glyph glyph-name="two" unicode="2" horiz-adv-x="583" 
d="M507 55v-55h-447v55l14 9q112 71 208 151q41 34 67.5 59t56 61.5t44 77t14.5 85.5q0 82 -49.5 125.5t-125.5 43.5q-82 0 -127 -49t-45 -110q0 -63 49 -120l-82 10q-25 58 -25 117q0 94 64 149.5t168 55.5q114 0 176.5 -63.5t62.5 -161.5q0 -126 -133 -255
q-60 -60 -134.5 -113t-110.5 -72h355z" />
    <glyph glyph-name="three" unicode="3" horiz-adv-x="583" 
d="M126 511l-70 18q6 23 11 39t23 47.5t41 51.5t64.5 36.5t94.5 16.5q94 0 157 -50t63 -146q0 -73 -44 -113q-32 -31 -111 -41q82 -4 125.5 -51t43.5 -121q0 -93 -64 -152t-172 -59q-107 0 -173 60q-60 53 -72 156l67 22q-2 -95 49 -138t130 -43q87 0 131 47q37 38 37 101
q0 69 -41 110q-26 25 -59.5 31.5t-83.5 6.5h-99v55h85q64 0 98 10q89 27 89 121q0 60 -42 100.5t-114 40.5q-78 0 -122 -47.5t-42 -108.5z" />
    <glyph glyph-name="four" unicode="4" horiz-adv-x="583" 
d="M432 177v-177h-61v177h-315v50l310 479h66v-474h110v-55h-110zM125 232h246v375z" />
    <glyph glyph-name="five" unicode="5" horiz-adv-x="583" 
d="M157 648l-14 -244q43 85 158 85q98 0 161 -68t63 -180q0 -109 -63.5 -181.5t-173.5 -72.5q-115 0 -177 68q-47 51 -58 131l66 20q0 -27 7.5 -53t25 -52t51.5 -42.5t81 -16.5q81 0 128 52.5t47 146.5q0 87 -42 138q-48 57 -126 57q-50 0 -93.5 -32t-59.5 -103l-51 6
l12 400h373v-59h-315z" />
    <glyph glyph-name="six" unicode="6" horiz-adv-x="583" 
d="M535 564l-65 -23q-3 21 -7.5 35t-18.5 38t-44.5 37.5t-74.5 13.5q-141 0 -184 -160q-16 -65 -20 -129q65 97 192 97q110 0 170 -69t60 -175q0 -111 -66 -176.5t-173 -65.5q-247 0 -247 344q0 197 74 296q69 93 193 93q164 0 211 -156zM476 236q0 86 -48 136
q-45 47 -120 47q-77 0 -130.5 -48t-53.5 -121q0 -12 2.5 -30.5t13 -51.5t28.5 -59.5t54 -46.5t84 -20q84 0 131 60q41 53 39 134z" />
    <glyph glyph-name="seven" unicode="7" horiz-adv-x="583" 
d="M511 707v-60q-128 -173 -177.5 -317t-70.5 -330h-66q5 88 27 176.5t46 150.5t64 132.5t62 103.5t58 84h-334v-157h-57v217h448z" />
    <glyph glyph-name="eight" unicode="8" horiz-adv-x="583" 
d="M190 377q-1 0 -2.5 1t-3 1.5t-3.5 0.5q-40 15 -74.5 54.5t-34.5 99.5q0 80 59 133t161 53q105 0 165.5 -51t60.5 -131q0 -62 -35 -105t-87 -56q58 -17 100 -65.5t42 -117.5q0 -85 -63.5 -146t-179.5 -61q-124 0 -187 64t-63 147q0 40 15 73.5t39 54t44 32t39 17.5
q1 0 4 0.5t4 1.5zM472 194q1 74 -53 113.5t-128 39.5q-73 0 -126 -39t-53 -110q0 -67 49.5 -110.5t130.5 -43.5q85 0 131.5 43.5t48.5 106.5zM454 535q0 28 -10.5 51t-19 32t-16.5 14q-41 34 -114 34q-81 0 -120 -40.5t-39 -93.5q0 -54 44 -92t116 -38q76 0 118 38t41 95z
" />
    <glyph glyph-name="nine" unicode="9" horiz-adv-x="583" 
d="M50 143l70 26q1 -15 3 -26.5t11 -32t23 -34t41.5 -24t64.5 -10.5q57 0 96.5 22t60.5 65.5t30.5 93.5t12.5 121q-18 -36 -45.5 -60t-58 -33.5t-51.5 -13t-40 -3.5q-97 0 -162.5 64.5t-65.5 178.5q0 102 61.5 172.5t173.5 70.5q252 0 252 -348q0 -385 -266 -385
q-80 0 -132 37q-53 38 -79 119zM459 457q0 29 -9 62t-28 68t-57.5 58t-89.5 23q-77 0 -122.5 -50.5t-45.5 -141.5q0 -97 48.5 -141.5t122.5 -44.5q81 0 134 53q46 46 47 114z" />
    <glyph glyph-name="colon" unicode=":" horiz-adv-x="208" 
d="M86 116h78v-116h-78v116zM86 468h78v-116h-78v116z" />
    <glyph glyph-name="semicolon" unicode=";" horiz-adv-x="208" 
d="M85 116h79v-80q-1 -79 -8 -112.5t-38 -81.5l-33 22q38 59 38 130v6h-38v116zM86 468h78v-116h-78v116z" />
    <glyph glyph-name="less" unicode="&#x3c;" horiz-adv-x="667" 
d="M667 61v-64l-667 322v70l667 320v-64l-600 -291z" />
    <glyph glyph-name="equal" unicode="=" horiz-adv-x="667" 
d="M667 231v-58h-667v58h667zM667 408v-59h-667v59h667z" />
    <glyph glyph-name="greater" unicode="&#x3e;" horiz-adv-x="667" 
d="M667 319l-667 -322v64l600 293l-600 291v64l667 -320v-70z" />
    <glyph glyph-name="question" unicode="?" horiz-adv-x="479" 
d="M206 116h78v-116h-78v116zM275 189v-20h-63v34q2 52 13.5 76.5t65.5 73.5q37 34 54 52t35 51.5t18 68.5q0 49 -34 91.5t-105 42.5q-69 0 -100 -40.5t-31 -95.5q0 -51 25 -96l-75 22q-11 49 -11 80q0 93 56 141t138 48q90 0 145.5 -55.5t55.5 -137.5q0 -36 -8 -64.5
t-27 -54.5t-35 -42.5t-48 -45.5q-50 -46 -59 -63t-10 -66z" />
    <glyph glyph-name="at" unicode="@" horiz-adv-x="896" 
d="M790 66l27 -32q-160 -158 -365 -158q-55 0 -108 12.5t-103 40.5t-88 68.5t-61 101.5t-23 135q0 123 59 232.5t165.5 177.5t234.5 68q140 0 219.5 -79t79.5 -209q0 -87 -32.5 -169t-85.5 -132.5t-110 -50.5q-40 0 -62 26q-18 21 -18 67q-20 -28 -41 -48q-51 -45 -111 -45
q-19 0 -39 7t-40.5 23.5t-33.5 50t-13 80.5q0 109 63 195.5t145 86.5q34 0 65 -18q33 -22 55 -77l17 72h59l-33 -146q-29 -136 -29 -174q0 -21 8 -34t15 -15.5t13 -2.5q30 0 67.5 40t66 113t28.5 152q0 110 -68 176.5t-188 66.5q-110 0 -204.5 -59.5t-150 -160t-55.5 -216.5
q0 -100 48 -172.5t122.5 -106t164.5 -33.5q192 0 340 146zM548 347q1 59 -26.5 87t-65.5 28q-62 0 -104.5 -72.5t-42.5 -153.5q0 -34 9.5 -57.5t25 -34t28.5 -14.5t25 -4q31 0 61 21.5t50 55.5q40 64 40 144z" />
    <glyph glyph-name="A" unicode="A" horiz-adv-x="646" 
d="M354 706l281 -706h-73l-81 213h-316l-80 -213h-75l288 706h56zM187 267h274l-136 360z" />
    <glyph glyph-name="B" unicode="B" horiz-adv-x="667" 
d="M81 706h292q36 0 59 -1.5t57 -13t58 -32.5q55 -49 55 -129q0 -69 -37.5 -105t-82.5 -44q-2 -1 -6 -1q4 -2 8 -2q67 -15 104.5 -61t37.5 -117q0 -43 -13 -80.5t-52 -71t-100 -43.5q-33 -5 -171 -5h-209v706zM148 646v-239h198q36 0 55.5 1t46.5 8.5t45 22.5q40 33 40 92
q0 57 -41 88q-16 13 -40.5 19t-42.5 7t-51 1h-210zM148 349v-288h179q69 0 86 1q69 3 107.5 37.5t38.5 97.5q0 38 -14.5 67.5t-36.5 44.5t-36 21.5t-24 8.5q-28 8 -105 10h-195z" />
    <glyph glyph-name="C" unicode="C" horiz-adv-x="667" 
d="M558 192l62 -38q-24 -54 -56 -90t-68.5 -53t-68 -23t-69.5 -6q-146 0 -226 94q-82 96 -82 272q0 50 7.5 97.5t28 99.5t53 90.5t87.5 63.5t126 25q54 0 98.5 -13.5t70.5 -30.5t49.5 -46.5t32.5 -46.5t22 -46l-67 -35q-18 80 -75 123q-48 36 -128 36q-113 0 -174 -83
t-61 -224q0 -155 59 -233q61 -83 187 -83q68 0 111 30q59 40 81 120z" />
    <glyph glyph-name="D" unicode="D" horiz-adv-x="688" 
d="M264 0h-183v706h188q53 -1 75 -1.5t57 -5.5t59 -14q78 -31 127.5 -120t49.5 -210q0 -98 -33.5 -178t-92.5 -126q-44 -34 -93.5 -42.5t-153.5 -8.5zM149 644v-584h106q141 0 186 21q54 25 91.5 97.5t37.5 173.5q0 94 -35.5 170.5t-98.5 104.5q-27 12 -58 14.5t-106 2.5
h-123z" />
    <glyph glyph-name="E" unicode="E" horiz-adv-x="604" 
d="M567 62v-62h-486v706h461v-62h-394v-251h357v-62h-357v-269h419z" />
    <glyph glyph-name="F" unicode="F" horiz-adv-x="562" 
d="M146 350v-350h-65v706h462v-59h-397v-239h356v-58h-356z" />
    <glyph glyph-name="G" unicode="G" horiz-adv-x="708" 
d="M622 369v-369h-58v118q-29 -75 -96 -110q-50 -26 -118 -26q-142 0 -221 102.5t-79 262.5q0 168 83.5 272.5t232.5 104.5q52 0 94.5 -13.5t68.5 -32t48 -46.5t31 -45.5t19 -41.5l-63 -34q-4 19 -12.5 38.5t-29 49.5t-60 49t-91.5 19q-111 0 -180.5 -85t-69.5 -231
q0 -139 60.5 -224.5t172.5 -85.5q60 0 104 25.5t66 67t31.5 85t8.5 89.5h-260v61h318z" />
    <glyph glyph-name="H" unicode="H" horiz-adv-x="729" 
d="M648 706v-706h-67v331h-434v-331h-66v706h66v-316h434v316h67z" />
    <glyph glyph-name="I" unicode="I" horiz-adv-x="229" 
d="M148 706v-706h-67v706h67z" />
    <glyph glyph-name="J" unicode="J" horiz-adv-x="500" 
d="M353 706h66v-414q0 -146 -11 -187q-34 -121 -184 -121q-105 0 -158 54q-22 21 -34 50.5t-14.5 49.5t-4.5 56l71 16q-2 -22 -2 -31q0 -136 146 -136q35 0 59.5 11.5t36.5 26t19 42t8 43.5t1 46q1 35 1 114v380z" />
    <glyph glyph-name="K" unicode="K" horiz-adv-x="667" 
d="M349 427l300 -427h-82l-264 382l-154 -155v-227h-68v706h68v-394l384 394h92z" />
    <glyph glyph-name="L" unicode="L" horiz-adv-x="562" 
d="M539 62v-62h-458v707h68v-645h390z" />
    <glyph glyph-name="M" unicode="M" horiz-adv-x="792" 
d="M710 706v-706h-65l5 599l-231 -599h-46l-235 599l8 -599h-65v706h79l239 -599l228 599h83z" />
    <glyph glyph-name="N" unicode="N" horiz-adv-x="708" 
d="M627 706v-706h-66l-415 610v-610h-65v706h65l421 -604l-6 604h66z" />
    <glyph glyph-name="O" unicode="O" horiz-adv-x="708" 
d="M658 358q-1 -83 -24.5 -159t-65.5 -125q-78 -92 -212 -92q-136 0 -217 96q-89 103 -89 276q0 157 78.5 263.5t227.5 106.5q83 0 145 -34t94.5 -90t47.5 -116.5t15 -125.5zM586 357q0 52 -11 103t-36 99t-72 77.5t-111 29.5t-112 -29t-73.5 -77.5t-37.5 -100t-12 -106.5
q0 -54 11.5 -105t36.5 -99t72.5 -77.5t111.5 -29.5q52 0 93 19t65 51t40 66t23 73t9.5 62.5t2.5 43.5z" />
    <glyph glyph-name="P" unicode="P" horiz-adv-x="625" 
d="M144 318v-318h-63v706h241q92 0 129.5 -3t66.5 -16q43 -20 69 -65.5t26 -108.5q0 -21 -4.5 -44t-17 -53.5t-41.5 -54.5t-72 -33q-33 -8 -177 -10h-157zM144 650v-273h151h32q98 1 117 5q52 9 78 44.5t26 87.5q0 78 -51 113q-24 16 -52.5 19t-129.5 4h-171z" />
    <glyph glyph-name="Q" unicode="Q" horiz-adv-x="708" 
d="M695 29l-42 -46l-89 83q-82 -84 -208 -84q-66 0 -119.5 22t-87.5 58t-57 84.5t-32.5 98t-9.5 101.5q0 72 18.5 138t55 120.5t98 87t139.5 32.5q79 0 138.5 -32.5t93.5 -86.5t50.5 -115.5t16.5 -128.5q0 -144 -60 -245zM592 345q0 42 -6 83.5t-22.5 85t-41.5 76.5
t-67.5 54.5t-95.5 21.5q-63 0 -111 -29t-75 -76.5t-40 -101.5t-13 -112q0 -46 7.5 -89t25.5 -83.5t44.5 -70.5t67 -48t90.5 -18q80 0 135 45t78 111.5t24 150.5z" />
    <glyph glyph-name="R" unicode="R" horiz-adv-x="646" 
d="M392 313l229 -313h-84l-223 313h-166v-313h-67v707h198q101 -1 134 -3t64 -13q40 -14 67.5 -40.5t38.5 -56.5t14.5 -50.5t3.5 -39.5q0 -83 -53 -136q-50 -47 -156 -55zM148 647v-276h166q84 0 119 7q53 11 77.5 46.5t24.5 82.5q0 53 -26 89t-77 46q-19 4 -118 5h-166z
" />
    <glyph glyph-name="S" unicode="S" horiz-adv-x="604" 
d="M561 569l-62 -34q-14 42 -30 63q-51 71 -153 71q-42 0 -77.5 -11t-62 -41t-26.5 -74q0 -30 12 -53t34 -37t36.5 -20t36.5 -13q4 -1 67 -18t76 -22q163 -51 163 -187q0 -83 -69 -147t-195 -64q-100 0 -166 43q-77 52 -96 153l67 35q2 -53 17 -82q23 -47 71 -69t107 -22
q96 0 146 44t50 106q0 61 -43 95q-15 13 -39.5 23.5t-46.5 16.5t-80 21q-37 10 -61.5 18t-56 24t-50 35t-32 49t-13.5 68q0 66 36.5 109t86.5 59t110 16q51 0 93 -13t66 -29.5t44 -42t26 -38.5t14 -32z" />
    <glyph glyph-name="T" unicode="T" horiz-adv-x="542" 
d="M304 647v-647h-67v647h-222v59h512v-59h-223z" />
    <glyph glyph-name="U" unicode="U" horiz-adv-x="688" 
d="M80 706h66v-420q0 -49 1 -72.5t9 -52.5t24 -50q20 -28 61.5 -47.5t102.5 -19.5q54 0 92 15q76 29 97 117q7 28 7 92v438h67v-321q0 -164 -9 -223.5t-51 -104.5q-70 -75 -201 -75q-92 0 -158.5 39t-91.5 114q-11 36 -13.5 77.5t-2.5 166.5v327z" />
    <glyph glyph-name="V" unicode="V" horiz-adv-x="604" 
d="M594 706l-265 -706h-60l-259 706h74l216 -614l223 614h71z" />
    <glyph glyph-name="W" unicode="W" horiz-adv-x="875" 
d="M865 706l-202 -706h-54l-169 571l-168 -571h-53l-209 706h72l166 -586l168 586h46l174 -586l161 586h68z" />
    <glyph glyph-name="X" unicode="X" horiz-adv-x="667" 
d="M380 380l266 -380h-83l-228 339l-237 -339h-77l268 380l-231 326h85l192 -285l196 285h81z" />
    <glyph glyph-name="Y" unicode="Y" horiz-adv-x="625" 
d="M338 292v-292h-65v292l-263 414h78l218 -351l227 351h81z" />
    <glyph glyph-name="Z" unicode="Z" horiz-adv-x="583" 
d="M548 60v-60h-519v44l436 601h-410v61h499v-47l-430 -599h424z" />
    <glyph glyph-name="bracketleft" unicode="[" horiz-adv-x="271" 
d="M244 -91v-53h-170v936h170v-53h-109v-830h109z" />
    <glyph glyph-name="backslash" unicode="\" horiz-adv-x="479" 
d="M10 706h76l383 -706h-74z" />
    <glyph glyph-name="bracketright" unicode="]" horiz-adv-x="271" 
d="M27 739v53h170v-936h-170v53h109v830h-109z" />
    <glyph glyph-name="asciicircum" unicode="^" horiz-adv-x="729" 
d="M399 706l174 -356h-76l-131 273l-134 -273h-76l180 356h63z" />
    <glyph glyph-name="underscore" unicode="_" horiz-adv-x="500" 
d="M510 -75v-50h-520v50h520z" />
    <glyph glyph-name="grave" unicode="`" horiz-adv-x="271" 
d="M247 558h-53l-170 140h111z" />
    <glyph glyph-name="a" unicode="a" horiz-adv-x="500" 
d="M493 47v-47q-42 0 -65.5 4t-42 22t-20.5 53v9q-2 -4 -4 -10q-20 -42 -66 -65t-100 -23q-79 0 -114.5 41t-35.5 89q0 20 4.5 37t16 31t22.5 25t33 21t37 16.5t46 15t49 12.5t55 13l57 13v24q0 15 -1 25t-7 28t-17 28.5t-34.5 19.5t-56.5 9q-41 0 -68 -10t-38.5 -30
t-15 -36t-3.5 -40l-65 11q9 54 28 82q47 74 160 74q57 0 105 -20.5t63 -72.5q6 -23 6 -92v-154q0 -68 10.5 -86t61.5 -17zM365 217v35l-30 -7q-32 -9 -68.5 -18.5t-49.5 -13.5q-26 -7 -41.5 -12.5t-35 -16.5t-28.5 -26.5t-9 -36.5q0 -32 24 -55.5t71 -23.5q34 0 69 14.5
t58 37.5q25 25 32 52t8 71z" />
    <glyph glyph-name="b" unicode="b" 
d="M133 85v-85h-57v706h57v-311q46 92 146 92q92 0 145 -74t53 -183q0 -44 -10 -84.5t-31.5 -77t-61 -58t-92.5 -21.5q-107 0 -149 96zM414 229q2 94 -37 149.5t-107 55.5q-30 0 -60 -14q-77 -40 -77 -179q0 -97 36.5 -148t104.5 -51q52 0 85 29.5t43.5 68.5t11.5 89z" />
    <glyph glyph-name="c" unicode="c" horiz-adv-x="479" 
d="M393 120l61 -14q-18 -36 -37 -57q-57 -61 -154 -61q-108 0 -163.5 72.5t-55.5 174.5q0 117 64 185t164 68q38 0 69.5 -10.5t50 -24t33 -33t20 -30t9.5 -22.5l-55 -13q-18 42 -54 61t-75 19q-71 0 -116.5 -52.5t-45.5 -144.5q0 -32 6.5 -63t22.5 -63t49 -52t79 -20
q89 0 128 80z" />
    <glyph glyph-name="d" unicode="d" 
d="M445 706v-706h-58v86q-15 -43 -54.5 -70t-91.5 -27q-86 0 -141.5 68.5t-55.5 181.5t59 180.5t147 67.5q51 0 88.5 -25t48.5 -62v306h58zM389 234q2 103 -31 148q-37 51 -106 51q-68 0 -106 -54t-38 -140q0 -32 5.5 -61.5t20 -61.5t44.5 -51.5t72 -19.5q135 0 139 189z
" />
    <glyph glyph-name="e" unicode="e" 
d="M424 141l55 -15q-17 -40 -45 -72q-62 -66 -163 -66q-112 0 -169.5 73t-57.5 181q0 114 64 180t156 66q102 0 160 -75t55 -175h-370q-2 -54 15 -99q38 -98 147 -98q103 0 153 100zM110 286h302q-9 74 -50 113q-40 36 -99 36q-62 0 -103.5 -40.5t-49.5 -108.5z" />
    <glyph glyph-name="f" unicode="f" horiz-adv-x="313" 
d="M295 477v-50h-108v-427h-59v427h-105v50h105v91q1 77 7 94q20 58 99 58q17 0 61 -7v-58q-30 12 -56 12q-34 0 -46 -27q-5 -12 -6 -67v-96h108z" />
    <glyph glyph-name="g" unicode="g" horiz-adv-x="542" 
d="M466 477v-426q0 -76 -2 -109.5t-12.5 -70t-33.5 -59.5q-52 -56 -165 -56q-88 0 -142 42q-56 43 -63 128l61 12q4 -27 9.5 -43.5t20 -39.5t45 -35t76.5 -12q66 0 100 26t43 79q1 8 6 155v24q-9 -31 -28 -51q-47 -51 -130 -51q-99 0 -153 71.5t-54 180.5q0 116 58 181
t150 65q60 0 102 -28.5t55 -70.5v88h57zM407 234q0 28 -2 50t-10 52.5t-23 50.5t-43.5 35t-68.5 15q-70 0 -112 -48q-44 -52 -44 -146q0 -102 44 -154q38 -46 108 -46q148 0 151 191z" />
    <glyph glyph-name="h" unicode="h" 
d="M445 269v-269h-59v259q0 67 -2 75q-9 99 -110 99q-46 0 -83 -24.5t-50 -80.5q-7 -30 -7 -122v-206h-59v706h59v-305q21 42 61 64t87 22q53 0 92.5 -24t56.5 -66q12 -32 14 -128z" />
    <glyph glyph-name="i" unicode="i" horiz-adv-x="208" 
d="M133 477v-477h-58v477h58zM133 680v-91h-58v91h58z" />
    <glyph glyph-name="j" unicode="j" horiz-adv-x="208" 
d="M75 477h58v-419q0 -180 -2 -216q-1 -17 -3.5 -28.5t-11 -30.5t-29 -29t-51.5 -10q-44 0 -84 20v56q38 -24 78 -24q33 0 40 25q4 12 5 159v87v410zM133 680v-91h-58v91h58z" />
    <glyph glyph-name="k" unicode="k" horiz-adv-x="500" 
d="M276 287l213 -287h-72l-182 247l-102 -97v-150h-58v706h58v-480l268 251h74z" />
    <glyph glyph-name="l" unicode="l" horiz-adv-x="208" 
d="M134 706v-706h-59v706h59z" />
    <glyph glyph-name="m" unicode="m" horiz-adv-x="771" 
d="M695 235v-235h-59v258q0 73 -2.5 98t-14.5 43q-23 34 -74 34q-33 0 -58 -14t-38.5 -35.5t-19.5 -36.5t-8 -27q-7 -33 -7 -122v-198h-58v264q-1 72 -4 90q-11 79 -89 79q-70 0 -105 -64q-11 -21 -16.5 -49t-6.5 -52t-1 -77v-191h-59v476h59v-98q9 37 29.5 62t45.5 33.5
t38.5 11t27.5 2.5q49 0 88 -28t44 -91q8 33 24 57q41 62 124 62q72 0 109 -45q21 -27 25.5 -66.5t5.5 -140.5z" />
    <glyph glyph-name="n" unicode="n" 
d="M445 247v-247h-59v247q0 77 -2.5 102.5t-15.5 43.5q-29 41 -93 41q-70 0 -111 -54q-21 -28 -25.5 -58t-4.5 -113v-209h-59v476h59v-85q13 40 51.5 68t97.5 28q87 0 130 -57q22 -29 27 -63.5t5 -119.5z" />
    <glyph glyph-name="o" unicode="o" 
d="M477 241q1 -111 -58.5 -182t-159.5 -71q-101 0 -158 69.5t-57 174.5q0 104 55 180t162 76q106 0 160.5 -72.5t55.5 -174.5zM414 234v20.5t-3 31.5t-8 40t-16.5 39.5t-27 37t-40.5 25t-57 10.5q-69 0 -110 -49q-45 -53 -45 -158q0 -96 42.5 -143.5t109.5 -47.5
q76 0 115 53.5t40 140.5z" />
    <glyph glyph-name="p" unicode="p" 
d="M76 -253v730h58v-78q12 27 29 44q44 44 115 44q55 0 96 -24.5t62 -64t31 -80t10 -81.5q0 -103 -53 -175.5t-145 -72.5q-106 0 -145 90v-332h-58zM134 245q-2 -63 7 -96q14 -54 48.5 -79t78.5 -25q41 0 71.5 19.5t46.5 51t23 63.5t7 65q0 82 -38 135.5t-110 53.5
q-130 0 -134 -188z" />
    <glyph glyph-name="q" unicode="q" horiz-adv-x="500" 
d="M445 476v-729h-57v336q-18 -46 -57 -70t-90 -24q-90 0 -143.5 72.5t-53.5 179.5q0 61 17 111q18 53 55 85.5t67.5 41t60.5 8.5q16 0 33.5 -3t39.5 -11.5t41 -27t30 -44.5v75h57zM389 237q0 101 -34 146q-37 49 -103 49q-70 0 -108.5 -52t-38.5 -136q0 -85 40 -142.5
t109 -57.5q67 0 103 53q30 44 32 140z" />
    <glyph glyph-name="r" unicode="r" horiz-adv-x="313" 
d="M134 206v-206h-58v477h58v-76q40 84 139 84q15 0 33 -3v-53q-18 3 -36 3q-62 0 -98 -38q-25 -28 -31 -64.5t-7 -123.5z" />
    <glyph glyph-name="s" unicode="s" horiz-adv-x="458" 
d="M222 280l50 -11q71 -18 101 -51q32 -35 32 -84q0 -58 -46 -102t-133 -44q-71 0 -120 34q-46 31 -72 94l58 20q10 -38 44 -66.5t90 -28.5q58 0 89.5 27t31.5 67q0 22 -9.5 38t-27.5 25t-31.5 13.5t-33.5 8.5q-8 2 -17.5 4t-21.5 4.5t-18 3.5q-23 5 -39 11t-38.5 19
t-34.5 36.5t-12 56.5q0 21 7 42t24 42.5t53.5 35t86.5 13.5q67 0 111 -27q45 -27 59 -81l-57 -14q-8 36 -41 54q-28 17 -75 17q-24 0 -45.5 -4.5t-43 -23.5t-21.5 -52q0 -35 25 -50.5t75 -26.5z" />
    <glyph glyph-name="t" unicode="t" horiz-adv-x="292" 
d="M172 427v-326q0 -58 39 -58q27 0 66 30v-59q-35 -23 -76 -23q-25 0 -42 6.5t-25.5 15t-13 30t-5 37t-0.5 50.5v297h-100v50h100v203h57v-203h105v-50h-105z" />
    <glyph glyph-name="u" unicode="u" 
d="M445 477v-477h-59v86q-10 -24 -24 -43q-43 -54 -127 -54q-61 0 -95.5 28t-47.5 60q-17 39 -17 166v234h59v-247q0 -41 1 -60.5t6.5 -49t16.5 -43t32 -24t52 -10.5q63 0 101 40q29 30 36 68t7 116v210h59z" />
    <glyph glyph-name="v" unicode="v" horiz-adv-x="417" 
d="M406 477l-183 -477h-48l-165 477h59l132 -388l147 388h58z" />
    <glyph glyph-name="w" unicode="w" horiz-adv-x="688" 
d="M667 477l-151 -477h-50l-117 393l-117 -393h-50l-161 477h57l128 -385l117 385h50l118 -385l118 385h58z" />
    <glyph glyph-name="x" unicode="x" horiz-adv-x="458" 
d="M261 248l176 -248h-68l-140 203l-144 -203h-64l175 248l-161 229h69l125 -182l129 182h63z" />
    <glyph glyph-name="y" unicode="y" horiz-adv-x="437" 
d="M367 477h60l-215 -546q-40 -99 -50 -118q-32 -54 -88 -54q-37 0 -64 19v60q34 -24 62 -24q21 0 33.5 12.5t25.5 44.5q2 5 12.5 30.5t12.5 29.5l25 69l-165 477h57l139 -406z" />
    <glyph glyph-name="z" unicode="z" horiz-adv-x="396" 
d="M376 53v-53h-348v37l258 389h-236v51h319v-35l-258 -389h265z" />
    <glyph glyph-name="braceleft" unicode="{" horiz-adv-x="354" 
d="M86 308v33q15 4 22.5 7.5t17 13t16.5 25.5q12 29 12 116v87q0 106 23 143q12 21 25 33.5t32.5 18.5t33.5 8.5t43 4.5v-34q-28 -7 -46 -18t-28 -22.5t-14.5 -33.5t-6 -39.5t-1.5 -52.5v-46q0 -128 -13 -168.5t-67 -60.5q38 -13 57 -39q16 -23 19.5 -54t4.5 -123v-57
q0 -80 16 -113.5t79 -52.5v-34q-36 4 -52 6.5t-35.5 11.5t-34.5 26q-16 18 -23.5 43.5t-8.5 44.5t-2 62v91q0 91 -11 119q-7 17 -17.5 28.5t-18 15.5t-22.5 10z" />
    <glyph glyph-name="bar" unicode="|" horiz-adv-x="229" 
d="M144 750v-1000h-59v1000h59z" />
    <glyph glyph-name="braceright" unicode="}" horiz-adv-x="354" 
d="M268 340v-33q-15 -4 -22.5 -7.5t-17 -13t-16.5 -25.5q-12 -29 -12 -116v-87q0 -106 -23 -143q-12 -21 -25 -33.5t-32.5 -18.5t-33.5 -8.5t-43 -4.5v34q28 7 46 18t28 22.5t14.5 33.5t6 39.5t1.5 52.5v46q0 128 13 168.5t67 60.5q-38 13 -57 39q-16 23 -19.5 54t-4.5 123
v57q0 80 -16 113.5t-79 52.5v34q36 -4 52 -6.5t35.5 -11.5t34.5 -26q16 -18 23.5 -43.5t8.5 -44.5t2 -62v-91q0 -91 11 -119q7 -17 17.5 -28.5t18 -15.5t22.5 -10z" />
    <glyph glyph-name="asciitilde" unicode="~" horiz-adv-x="729" 
d="M564 356l31 -55q-61 -77 -128 -77q-34 0 -97 31l-29 14q-52 25 -83 25q-27 0 -43 -12.5t-48 -52.5l-33 54q51 80 123 80q39 0 113 -35l32 -15q47 -20 65 -20q21 0 41.5 11.5t30.5 22.5t25 29z" />
    <glyph glyph-name="exclamdown" unicode="&#xa1;" horiz-adv-x="208" 
d="M123 596h-76v116h76v-116zM52 405l9 131h47l9 -131v-405h-65v405z" />
    <glyph glyph-name="cent" unicode="&#xa2;" horiz-adv-x="479" 
d="M290 580v-92q57 -5 91 -27q52 -32 74 -92l-56 -13q-26 65 -109 79v-393q71 11 104 78l61 -13q-52 -106 -165 -117v-103h-50v103q-54 5 -94 30t-61.5 61.5t-31 74.5t-9.5 79q0 111 56 176.5t140 75.5v93h50zM240 42v391q-39 -8 -66.5 -29.5t-41 -51t-19 -57t-5.5 -56.5
q0 -106 52 -158q32 -30 80 -39z" />
    <glyph glyph-name="sterling" unicode="&#xa3;" horiz-adv-x="604" 
d="M499 188l66 -7q-1 -26 -3 -45.5t-10 -47.5t-21 -46t-38.5 -31.5t-60.5 -13.5q-58 0 -154 54q-50 -55 -130 -55q-48 0 -77 21q-29 23 -29 58q0 33 26 54.5t72 21.5q63 0 110 -28q19 39 19 73q0 46 -40 86h-132v52h93q-25 19 -58 57q-61 71 -61 135q0 77 63.5 128.5
t159.5 51.5q104 0 166 -55q53 -46 62 -134l-66 -14q-2 64 -40 101q-47 42 -123 42q-65 0 -109.5 -32.5t-44.5 -86.5q0 -44 40 -93q7 -8 50 -51l49 -49h151v-52h-120q26 -47 26 -89q0 -50 -26 -88q27 -16 67.5 -33t59.5 -17q21 0 34.5 10t19 32t7.5 40t2 51zM230 74
q-39 26 -91 26q-45 0 -45 -27q0 -10 11.5 -19t35.5 -9q54 0 89 29z" />
    <glyph glyph-name="currency" unicode="&#xa4;" horiz-adv-x="667" 
d="M610 569l-74 -73q54 -71 54 -158q0 -85 -55 -156l74 -75l-46 -45l-73 75q-26 -18 -41.5 -27t-47 -18t-68.5 -9t-67 8.5t-46.5 18t-42.5 27.5l-74 -73l-45 45l74 73q-19 29 -27.5 44t-18 46.5t-9.5 67.5q0 84 55 156l-73 73l45 45l73 -73q24 17 39.5 26.5t48 19t70.5 9.5
q80 0 156 -54l73 73zM529 340q0 87 -57.5 142t-135.5 55q-82 0 -140 -55t-58 -143q0 -82 56.5 -139.5t140.5 -57.5q81 0 137.5 56t56.5 142z" />
    <glyph glyph-name="yen" unicode="&#xa5;" horiz-adv-x="625" 
d="M273 0v234h-203v53l204 2l-35 57h-169v53h135l-195 307h78l219 -348l226 348h81l-204 -307h144v-53h-180l-37 -59h217v-53h-216v-234h-65z" />
    <glyph glyph-name="brokenbar" unicode="&#xa6;" horiz-adv-x="229" 
d="M85 -175v350h59v-350h-59zM144 325h-59v350h59v-350z" />
    <glyph glyph-name="section" unicode="&#xa7;" 
d="M441 697l-46 -45q-70 70 -146 70q-42 0 -65 -22t-23 -55q0 -34 25.5 -53.5t98.5 -51.5q103 -44 146 -80.5t43 -104.5q0 -49 -27.5 -91.5t-77.5 -64.5q81 -42 81 -124q0 -66 -50.5 -111.5t-134.5 -45.5q-129 0 -227 98l47 46q13 -13 32.5 -28t63.5 -34t86 -19
q58 0 87.5 27.5t29.5 65.5q0 34 -24 53t-99 53q-58 26 -90.5 43.5t-63.5 41t-44 50t-13 61.5q0 47 29.5 91t85.5 64q-70 44 -70 112q0 54 42.5 97t115.5 43q42 0 83.5 -17.5t59.5 -31t45 -37.5zM295 237l27 -10q17 11 34 25.5t35.5 43t18.5 55.5q0 36 -26 64q-18 17 -70 41
q-76 38 -98 43q-45 -20 -73 -52.5t-28 -69.5q0 -35 33 -62q38 -30 147 -78z" />
    <glyph glyph-name="dieresis" unicode="&#xa8;" horiz-adv-x="271" 
d="M252 674v-92h-61v92h61zM80 674v-92h-61v92h61z" />
    <glyph glyph-name="copyright" unicode="&#xa9;" horiz-adv-x="833" 
d="M773 351q0 -104 -57 -195q-45 -70 -124.5 -114.5t-175.5 -44.5q-143 0 -249 101t-106 254q0 150 103.5 253.5t253.5 103.5q149 0 252 -103t103 -255zM741 351q1 134 -91.5 230t-231.5 96q-135 0 -230 -94.5t-95 -231.5q0 -133 94 -227.5t231 -94.5q131 0 226.5 91
t96.5 231zM568 253l42 -36q-33 -41 -68 -61q-56 -33 -120 -33q-93 0 -161 64t-68 167q0 97 66 164.5t166 67.5q107 0 185 -93l-42 -38q-18 21 -31.5 33t-44.5 27t-66 15q-73 0 -124 -50t-51 -124q0 -78 52 -127.5t123 -49.5q78 0 142 74z" />
    <glyph glyph-name="ordfeminine" unicode="&#xaa;" horiz-adv-x="313" 
d="M224 440l-1 7l-2 -3q-33 -44 -98 -44q-51 0 -74 26.5t-23 57.5q0 21 9.5 37.5t21.5 26.5t37.5 19.5t43 14t53.5 12.5l30 7v10q0 12 -1.5 19.5t-6.5 19t-20 17.5t-38 6q-24 0 -39 -5.5t-21 -18t-7.5 -21.5t-2.5 -26l-51 8q2 14 4.5 23.5t10.5 26.5t20 27.5t34 19t52 8.5
q62 0 90 -31q14 -15 17.5 -32.5t3.5 -55.5v-93q0 -41 6.5 -50t37.5 -8v-39h-10q-35 0 -51.5 7t-24.5 27zM221 543v15l-11 -3q-82 -21 -106 -30q-32 -14 -32 -40q0 -18 13.5 -30.5t39.5 -12.5q43 0 74 31q22 22 22 70z" />
    <glyph glyph-name="guillemotleft" unicode="&#xab;" horiz-adv-x="375" 
d="M173 309l119 185l47 -29l-99 -156l99 -141l-47 -31zM38 309l118 185l48 -29l-99 -156l99 -141l-48 -31z" />
    <glyph glyph-name="logicalnot" unicode="&#xac;" horiz-adv-x="667" 
d="M607 0v262h-607v59h607h60v-321h-60z" />
    <glyph glyph-name="registered" unicode="&#xae;" horiz-adv-x="833" 
d="M273 577h137q77 0 104 -10q33 -13 50.5 -40.5t17.5 -60.5q0 -44 -28 -72t-72 -35q35 -13 50 -34.5t22 -63.5q6 -42 8.5 -56t8.5 -34t16 -39h-75q-10 21 -18 61q-1 5 -5.5 35.5t-5.5 35.5q-9 46 -34 60t-79 15h-32v-207h-65v445zM339 527v-136h75q102 0 102 70
q0 31 -21 49q-13 12 -31 14.5t-64 2.5h-61zM773 351q-1 -148 -104 -251t-254 -103q-143 0 -249 101t-106 255q0 152 105 254t251 102q153 0 255.5 -105t101.5 -253zM741 352q1 135 -92 230t-231 95q-137 0 -231.5 -95t-94.5 -229q0 -136 95 -230t229 -94q137 0 230.5 93.5
t94.5 229.5z" />
    <glyph glyph-name="macron" unicode="&#xaf;" horiz-adv-x="271" 
d="M252 645v-63h-233v63h233z" />
    <glyph glyph-name="degree" unicode="&#xb0;" horiz-adv-x="354" 
d="M30 601q0 61 43 104t104 43t104 -43t43 -104t-43 -104t-104 -43t-104 43t-43 104zM90 601q0 -36 25.5 -61.5t61.5 -25.5t61.5 25.5t25.5 61.5t-25.5 61.5t-61.5 25.5t-61.5 -25.5t-25.5 -61.5z" />
    <glyph glyph-name="plusminus" unicode="&#xb1;" horiz-adv-x="667" 
d="M364 379v-256h-59v256h-265v59h265v256h59v-256h262v-59h-262zM626 59v-59h-586v59h586z" />
    <glyph glyph-name="twosuperior" unicode="&#xb2;" horiz-adv-x="375" 
d="M324 309v-44h-283v42q74 46 137 99q52 43 80.5 80.5t28.5 87.5q0 47 -29 72.5t-73 25.5q-48 0 -73.5 -28.5t-25.5 -63.5q0 -38 37 -80l-66 8q-17 41 -17 76q0 60 41 95.5t105 35.5q73 0 112.5 -40.5t39.5 -102.5q0 -38 -17 -74.5t-50.5 -70t-67 -60t-81.5 -58.5h202z" />
    <glyph glyph-name="threesuperior" unicode="&#xb3;" horiz-adv-x="375" 
d="M257 496l7 -2q70 -23 70 -103q0 -59 -40.5 -96.5t-108.5 -37.5q-98 0 -137 74q-12 23 -18 66l52 18v-21.5t5.5 -28t15 -31t31 -22.5t51.5 -10q45 0 71.5 21.5t26.5 63.5q0 41 -24 63q-23 22 -84 22h-65v44h57q20 0 33 1.5t33.5 7.5t31.5 23t11 43q0 35 -24 58t-66 23
q-40 0 -67.5 -25t-26.5 -72l-55 14q5 21 11.5 36.5t22 39t45 37t70.5 13.5q59 0 99 -32t40 -93q0 -75 -68 -94z" />
    <glyph glyph-name="acute" unicode="&#xb4;" horiz-adv-x="271" 
d="M247 698l-170 -140h-53l112 140h111z" />
    <glyph glyph-name="mu" unicode="&#xb5;" 
d="M386 0v87q-18 -41 -53 -71q-35 -26 -83 -26q-40 0 -66 16t-50 48v-295h-59v718h59v-252v-15v-9q0 -59 13 -90q28 -67 107 -67q54 0 90 39q28 31 35 67t7 106v221h59v-477h-59z" />
    <glyph glyph-name="paragraph" unicode="&#xb6;" horiz-adv-x="667" 
d="M310 706h222v-44h-34v-829h-46v829h-157v-829h-46v497q-74 11 -112 53q-47 51 -47 129q0 71 39 120q25 32 61.5 49.5t60.5 20.5t59 4z" />
    <glyph glyph-name="periodcentered" unicode="&#xb7;" horiz-adv-x="167" 
d="M44 384h79v-116h-79v116z" />
    <glyph glyph-name="cedilla" unicode="&#xb8;" horiz-adv-x="271" 
d="M131 0l-24 -47q15 3 28 3q31 0 50.5 -17.5t19.5 -46.5q0 -37 -29 -59.5t-72 -22.5l-38 3v27q24 -2 32 -2q25 0 38.5 10t15.5 17t2 12q0 16 -13.5 27t-35.5 11q-14 0 -39 -10v24l41 71h24z" />
    <glyph glyph-name="onesuperior" unicode="&#xb9;" horiz-adv-x="375" 
d="M228 707v-442h-48v345l-4 -2q-30 -12 -74 -10v43q28 0 45.5 5.5t24 17t8 20t0.5 23.5h48z" />
    <glyph glyph-name="ordmasculine" unicode="&#xba;" horiz-adv-x="333" 
d="M304 559q0 -70 -37.5 -115t-100.5 -45t-99.5 43.5t-36.5 111.5q0 65 35 113t102 48t101.5 -45.5t35.5 -110.5zM255 555q0 14 -1.5 26.5t-8.5 37.5t-27 40t-50 15q-46 0 -67.5 -33t-21.5 -88q0 -51 22 -81.5t65 -30.5q45 0 66.5 32t22.5 82z" />
    <glyph glyph-name="guillemotright" unicode="&#xbb;" horiz-adv-x="375" 
d="M201 322l-118 -185l-47 30l99 155l-99 141l47 31zM337 322l-118 -185l-48 30l99 155l-99 141l48 31z" />
    <glyph glyph-name="onequarter" unicode="&#xbc;" horiz-adv-x="875" 
d="M228 707v-442h-48v345l-4 -2q-30 -12 -74 -10v43q28 0 45.5 5.5t24 17t8 20t0.5 23.5h48zM637 730l-353 -770l-40 19l352 770zM778 108v-108h-48v108h-192v38l191 296h49v-290h67v-44h-67zM595 152h135v206z" />
    <glyph glyph-name="onehalf" unicode="&#xbd;" horiz-adv-x="875" 
d="M229 707v-442h-48v345l-4 -2q-30 -12 -74 -10v43q28 0 45.5 5.5t24 17t8 20t0.5 23.5h48zM615 730l-353 -769l-40 18l352 770zM824 44v-44h-282v42q69 43 137 99q52 43 80 80.5t28 87.5q0 47 -28.5 72.5t-72.5 25.5q-48 0 -73.5 -28.5t-25.5 -63.5q0 -38 37 -80l-66 8
q-17 41 -17 76q0 60 41 95.5t105 35.5q73 0 112 -40.5t39 -102.5q0 -72 -57 -133t-158 -130h201z" />
    <glyph glyph-name="threequarters" unicode="&#xbe;" horiz-adv-x="875" 
d="M257 496l7 -2q70 -23 70 -103q0 -59 -40.5 -96.5t-108.5 -37.5q-98 0 -137 74q-12 23 -18 66l52 18v-21.5t5.5 -28t15 -31t31 -22.5t51.5 -10q45 0 71.5 21.5t26.5 63.5q0 41 -24 63q-23 22 -84 22h-65v44h57q20 0 33 1.5t33.5 7.5t31.5 23t11 43q0 35 -24 58t-66 23
q-40 0 -67.5 -25t-26.5 -72l-55 14q5 21 11.5 36.5t22 39t45 37t70.5 13.5q59 0 99 -32t40 -93q0 -75 -68 -94zM672 730l-352 -770l-41 19l352 771zM778 108v-108h-48v108h-192v38l191 296h49v-290h67v-44h-67zM595 152h135v206z" />
    <glyph glyph-name="questiondown" unicode="&#xbf;" horiz-adv-x="479" 
d="M273 590h-78v116h78v-116zM204 517v20h63v-34q-2 -52 -13.5 -76t-65.5 -74q-37 -34 -54 -52t-35 -51.5t-18 -68.5q0 -49 34 -91.5t104 -42.5t101 40.5t31 95.5q0 51 -25 96l75 -22q11 -49 11 -80q0 -93 -56 -141t-138 -48q-90 0 -145.5 55t-55.5 137q0 36 8 65t27 55
t35 42.5t48 45.5q50 46 59 63t10 66z" />
    <glyph glyph-name="Agrave" unicode="&#xc0;" horiz-adv-x="646" 
d="M354 706l281 -706h-73l-81 213h-316l-80 -213h-75l288 706h56zM187 267h274l-136 360zM307 770l-147 125h106l99 -125h-58z" />
    <glyph glyph-name="Aacute" unicode="&#xc1;" horiz-adv-x="646" 
d="M354 706l281 -706h-73l-81 213h-316l-80 -213h-75l288 706h56zM187 267h274l-136 360zM377 895h106l-147 -125h-57z" />
    <glyph glyph-name="Acircumflex" unicode="&#xc2;" horiz-adv-x="646" 
d="M354 706l281 -706h-73l-81 213h-316l-80 -213h-75l288 706h56zM187 267h274l-136 360zM347 895l104 -123h-49l-78 56l-77 -56h-47l105 123h42z" />
    <glyph glyph-name="Atilde" unicode="&#xc3;" horiz-adv-x="646" 
d="M354 706l281 -706h-73l-81 213h-316l-80 -213h-75l288 706h56zM187 267h274l-136 360zM452 886l41 -18v-5q-13 -27 -21.5 -41.5t-29 -31t-44.5 -16.5q-29 0 -83 29q-50 26 -64 26q-34 0 -53 -55l-40 13q35 103 100 103q26 0 65 -22q62 -34 74 -34q18 0 30 13t25 39z" />
    <glyph glyph-name="Adieresis" unicode="&#xc4;" horiz-adv-x="646" 
d="M354 706l281 -706h-73l-81 213h-316l-80 -213h-75l288 706h56zM187 267h274l-136 360zM470 881v-96h-67v96h67zM251 881v-96h-67v96h67z" />
    <glyph glyph-name="Aring" unicode="&#xc5;" horiz-adv-x="646" 
d="M354 706l281 -706h-73l-81 213h-316l-80 -213h-75l288 706h56zM187 267h274l-136 360zM327 907q33 0 56.5 -23t23.5 -56t-23.5 -56.5t-56.5 -23.5t-56 23.5t-23 56.5t23.5 56t55.5 23zM326 871q-17 0 -29.5 -12.5t-12.5 -29.5q0 -18 12.5 -30t29.5 -12t29.5 12.5
t12.5 29.5t-12 29.5t-30 12.5z" />
    <glyph glyph-name="AE" unicode="&#xc6;" horiz-adv-x="1000" 
d="M971 60v-60h-497v205h-265l-129 -205h-80l452 706h500v-61h-411v-254h369v-62h-369v-269h430zM248 267h226v364z" />
    <glyph glyph-name="Ccedilla" unicode="&#xc7;" horiz-adv-x="667" 
d="M557 192l63 -38q-25 -55 -58 -91.5t-70.5 -52.5t-65.5 -21.5t-63 -6.5l-15 -29q15 3 28 3q31 0 50.5 -17.5t19.5 -46.5q0 -37 -29 -59.5t-72 -22.5q-1 0 -38 3v27q26 -2 33 -2q15 0 26.5 4t16.5 9t8 11.5t3.5 9.5t0.5 5q0 16 -13.5 27t-35.5 11q-12 0 -39 -10v24l31 54
q-64 3 -115 25q-45 20 -79 56t-51.5 72.5t-27.5 81t-12.5 73t-2.5 57.5q0 50 7.5 97.5t28 99.5t52.5 90.5t87 63.5t126 25q54 0 98.5 -13.5t71 -30.5t49.5 -45.5t32.5 -47t21.5 -46.5l-67 -35q-17 82 -75 123q-47 36 -127 36q-114 0 -174 -83q-61 -83 -61 -224
q0 -154 59 -233q62 -83 187 -83q65 0 111 30q60 42 80 120z" />
    <glyph glyph-name="Egrave" unicode="&#xc8;" horiz-adv-x="604" 
d="M567 62v-62h-486v706h461v-62h-394v-251h357v-62h-357v-269h419zM286 770l-147 125h106l99 -125h-58z" />
    <glyph glyph-name="Eacute" unicode="&#xc9;" horiz-adv-x="604" 
d="M567 62v-62h-486v706h461v-62h-394v-251h357v-62h-357v-269h419zM377 895h106l-147 -125h-57z" />
    <glyph glyph-name="Ecircumflex" unicode="&#xca;" horiz-adv-x="604" 
d="M567 62v-62h-486v706h461v-62h-394v-251h357v-62h-357v-269h419zM326 895l104 -123h-49l-78 56l-77 -56h-47l105 123h42z" />
    <glyph glyph-name="Edieresis" unicode="&#xcb;" horiz-adv-x="604" 
d="M567 62v-62h-486v706h461v-62h-394v-251h357v-62h-357v-269h419zM446 881v-96h-67v96h67zM227 881v-96h-67v96h67z" />
    <glyph glyph-name="Igrave" unicode="&#xcc;" horiz-adv-x="229" 
d="M148 706v-706h-67v706h67zM99 770l-147 125h106l99 -125h-58z" />
    <glyph glyph-name="Iacute" unicode="&#xcd;" horiz-adv-x="229" 
d="M148 706v-706h-67v706h67zM169 895h106l-147 -125h-57z" />
    <glyph glyph-name="Icircumflex" unicode="&#xce;" horiz-adv-x="229" 
d="M148 706v-706h-67v706h67zM139 895l104 -123h-49l-78 56l-77 -56h-47l105 123h42z" />
    <glyph glyph-name="Idieresis" unicode="&#xcf;" horiz-adv-x="229" 
d="M148 706v-706h-67v706h67zM259 881v-96h-67v96h67zM40 881v-96h-67v96h67z" />
    <glyph glyph-name="Eth" unicode="&#xd0;" horiz-adv-x="688" 
d="M81 0v351h-81v54h81v301h188q53 -1 75 -1.5t57 -5.5t59 -14q78 -31 127.5 -120.5t49.5 -209.5q0 -98 -33.5 -178t-92.5 -126q-44 -34 -93.5 -42.5t-153.5 -8.5h-183zM370 351h-221v-291h106q141 0 186 21q54 25 91.5 97.5t37.5 172.5q0 94 -35.5 171t-98.5 105
q-27 12 -58 14.5t-106 2.5h-123v-239h221v-54z" />
    <glyph glyph-name="Ntilde" unicode="&#xd1;" horiz-adv-x="708" 
d="M627 706v-706h-66l-415 610v-610h-65v706h65l421 -604l-6 604h66zM483 886l41 -18v-5q-13 -27 -21.5 -41.5t-29 -31t-44.5 -16.5q-29 0 -83 29q-50 26 -64 26q-34 0 -53 -55l-40 13q35 103 100 103q26 0 65 -22q62 -34 74 -34q18 0 30 13t25 39z" />
    <glyph glyph-name="Ograve" unicode="&#xd2;" horiz-adv-x="708" 
d="M658 358q-1 -83 -24.5 -159t-65.5 -125q-78 -92 -212 -92q-136 0 -217 96q-89 103 -89 276q0 157 78.5 263.5t227.5 106.5q83 0 145 -34t94.5 -90t47.5 -116.5t15 -125.5zM586 357q0 52 -11 103t-36 99t-72 77.5t-111 29.5t-112 -29t-73.5 -77.5t-37.5 -100t-12 -106.5
q0 -54 11.5 -105t36.5 -99t72.5 -77.5t111.5 -29.5q52 0 93 19t65 51t40 66t23 73t9.5 62.5t2.5 43.5zM338 770l-147 125h106l99 -125h-58z" />
    <glyph glyph-name="Oacute" unicode="&#xd3;" horiz-adv-x="708" 
d="M658 358q-1 -83 -24.5 -159t-65.5 -125q-78 -92 -212 -92q-136 0 -217 96q-89 103 -89 276q0 157 78.5 263.5t227.5 106.5q83 0 145 -34t94.5 -90t47.5 -116.5t15 -125.5zM586 357q0 52 -11 103t-36 99t-72 77.5t-111 29.5t-112 -29t-73.5 -77.5t-37.5 -100t-12 -106.5
q0 -54 11.5 -105t36.5 -99t72.5 -77.5t111.5 -29.5q52 0 93 19t65 51t40 66t23 73t9.5 62.5t2.5 43.5zM408 895h106l-147 -125h-57z" />
    <glyph glyph-name="Ocircumflex" unicode="&#xd4;" horiz-adv-x="708" 
d="M658 358q-1 -83 -24.5 -159t-65.5 -125q-78 -92 -212 -92q-136 0 -217 96q-89 103 -89 276q0 157 78.5 263.5t227.5 106.5q83 0 145 -34t94.5 -90t47.5 -116.5t15 -125.5zM586 357q0 52 -11 103t-36 99t-72 77.5t-111 29.5t-112 -29t-73.5 -77.5t-37.5 -100t-12 -106.5
q0 -54 11.5 -105t36.5 -99t72.5 -77.5t111.5 -29.5q52 0 93 19t65 51t40 66t23 73t9.5 62.5t2.5 43.5zM378 895l104 -123h-49l-78 56l-77 -56h-47l105 123h42z" />
    <glyph glyph-name="Otilde" unicode="&#xd5;" horiz-adv-x="708" 
d="M658 358q-1 -83 -24.5 -159t-65.5 -125q-78 -92 -212 -92q-136 0 -217 96q-89 103 -89 276q0 157 78.5 263.5t227.5 106.5q83 0 145 -34t94.5 -90t47.5 -116.5t15 -125.5zM586 357q0 52 -11 103t-36 99t-72 77.5t-111 29.5t-112 -29t-73.5 -77.5t-37.5 -100t-12 -106.5
q0 -54 11.5 -105t36.5 -99t72.5 -77.5t111.5 -29.5q52 0 93 19t65 51t40 66t23 73t9.5 62.5t2.5 43.5zM483 886l41 -18v-5q-13 -27 -21.5 -41.5t-29 -31t-44.5 -16.5q-29 0 -83 29q-50 26 -64 26q-34 0 -53 -55l-40 13q35 103 100 103q26 0 65 -22q62 -34 74 -34q18 0 30 13
t25 39z" />
    <glyph glyph-name="Odieresis" unicode="&#xd6;" horiz-adv-x="708" 
d="M658 358q-1 -83 -24.5 -159t-65.5 -125q-78 -92 -212 -92q-136 0 -217 96q-89 103 -89 276q0 157 78.5 263.5t227.5 106.5q83 0 145 -34t94.5 -90t47.5 -116.5t15 -125.5zM586 357q0 52 -11 103t-36 99t-72 77.5t-111 29.5t-112 -29t-73.5 -77.5t-37.5 -100t-12 -106.5
q0 -54 11.5 -105t36.5 -99t72.5 -77.5t111.5 -29.5q52 0 93 19t65 51t40 66t23 73t9.5 62.5t2.5 43.5zM499 881v-96h-67v96h67zM280 881v-96h-67v96h67z" />
    <glyph glyph-name="multiply" unicode="&#xd7;" horiz-adv-x="667" 
d="M582 83l-41 -41l-208 207l-207 -207l-42 41l207 208l-207 206l42 42l207 -207l208 207l41 -42l-207 -206z" />
    <glyph glyph-name="Oslash" unicode="&#xd8;" horiz-adv-x="708" 
d="M627 714l40 -32l-68 -81q62 -105 62 -241q0 -73 -16.5 -138t-51 -120t-96 -87.5t-143.5 -32.5q-125 0 -200 78l-58 -70l-38 31l64 78q-72 111 -72 255q0 172 83.5 271t225.5 99q131 0 208 -84zM550 542l-354 -430q60 -71 160 -71q110 0 171 81q62 82 62 221q0 48 -8 102
q-9 55 -31 97zM167 153l354 433q-8 14 -21 28t-51 32t-87 18q-116 0 -179 -86q-62 -86 -62 -222q0 -120 46 -203z" />
    <glyph glyph-name="Ugrave" unicode="&#xd9;" horiz-adv-x="688" 
d="M80 706h66v-420q0 -49 1 -72.5t9 -52.5t24 -50q20 -28 61.5 -47.5t102.5 -19.5q54 0 92 15q76 29 97 117q7 28 7 92v438h67v-321q0 -164 -9 -223.5t-51 -104.5q-70 -75 -201 -75q-92 0 -158.5 39t-91.5 114q-11 36 -13.5 77.5t-2.5 166.5v327zM328 770l-147 125h106
l99 -125h-58z" />
    <glyph glyph-name="Uacute" unicode="&#xda;" horiz-adv-x="688" 
d="M80 706h66v-420q0 -49 1 -72.5t9 -52.5t24 -50q20 -28 61.5 -47.5t102.5 -19.5q54 0 92 15q76 29 97 117q7 28 7 92v438h67v-321q0 -164 -9 -223.5t-51 -104.5q-70 -75 -201 -75q-92 0 -158.5 39t-91.5 114q-11 36 -13.5 77.5t-2.5 166.5v327zM398 895h106l-147 -125h-57
z" />
    <glyph glyph-name="Ucircumflex" unicode="&#xdb;" horiz-adv-x="688" 
d="M80 706h66v-420q0 -49 1 -72.5t9 -52.5t24 -50q20 -28 61.5 -47.5t102.5 -19.5q54 0 92 15q76 29 97 117q7 28 7 92v438h67v-321q0 -164 -9 -223.5t-51 -104.5q-70 -75 -201 -75q-92 0 -158.5 39t-91.5 114q-11 36 -13.5 77.5t-2.5 166.5v327zM368 895l104 -123h-49
l-78 56l-77 -56h-47l105 123h42z" />
    <glyph glyph-name="Udieresis" unicode="&#xdc;" horiz-adv-x="688" 
d="M80 706h66v-420q0 -49 1 -72.5t9 -52.5t24 -50q20 -28 61.5 -47.5t102.5 -19.5q54 0 92 15q76 29 97 117q7 28 7 92v438h67v-321q0 -164 -9 -223.5t-51 -104.5q-70 -75 -201 -75q-92 0 -158.5 39t-91.5 114q-11 36 -13.5 77.5t-2.5 166.5v327zM488 881v-96h-67v96h67z
M269 881v-96h-67v96h67z" />
    <glyph glyph-name="Yacute" unicode="&#xdd;" horiz-adv-x="625" 
d="M338 292v-292h-65v292l-263 414h78l218 -351l227 351h81zM366 895h106l-147 -125h-57z" />
    <glyph glyph-name="Thorn" unicode="&#xde;" horiz-adv-x="625" 
d="M144 209v-209h-63v706h63v-109h178q92 0 129.5 -3t66.5 -16q43 -20 69 -65.5t26 -108.5q0 -21 -4.5 -44t-17 -53.5t-41.5 -54.5t-72 -33q-33 -8 -177 -10h-157zM144 541v-273h151h32q98 1 117 5q52 9 78 44.5t26 87.5q0 78 -51 113q-24 16 -52.5 19t-129.5 4h-171z" />
    <glyph glyph-name="germandbls" unicode="&#xdf;" horiz-adv-x="500" 
d="M131 0h-57v452q1 129 15 167q17 48 59 76.5t103 28.5q86 0 127 -52.5t41 -117.5q0 -55 -29 -97t-90 -52q78 -11 118 -69q42 -62 42 -153q0 -87 -45 -142.5t-117 -55.5q-52 0 -108 31v68q64 -45 108 -45q45 0 71.5 38t26.5 108q0 93 -53 142q-51 47 -166 42v58
q90 -5 132 26q47 34 47 101q0 47 -27.5 80t-79.5 33q-56 0 -86 -35q-22 -25 -27 -63.5t-5 -141.5v-427z" />
    <glyph glyph-name="agrave" unicode="&#xe0;" horiz-adv-x="500" 
d="M493 47v-47q-42 0 -65.5 4t-42 22t-20.5 53v9q-2 -4 -4 -10q-20 -42 -66 -65t-100 -23q-79 0 -114.5 41t-35.5 89q0 20 4.5 37t16 31t22.5 25t33 21t37 16.5t46 15t49 12.5t55 13l57 13v24q0 15 -1 25t-7 28t-17 28.5t-34.5 19.5t-56.5 9q-41 0 -68 -10t-38.5 -30
t-15 -36t-3.5 -40l-65 11q9 54 28 82q47 74 160 74q57 0 105 -20.5t63 -72.5q6 -23 6 -92v-154q0 -68 10.5 -86t61.5 -17zM365 217v35l-30 -7q-32 -9 -68.5 -18.5t-49.5 -13.5q-26 -7 -41.5 -12.5t-35 -16.5t-28.5 -26.5t-9 -36.5q0 -32 24 -55.5t71 -23.5q34 0 69 14.5
t58 37.5q25 25 32 52t8 71zM329 558h-53l-170 140h111z" />
    <glyph glyph-name="aacute" unicode="&#xe1;" horiz-adv-x="500" 
d="M493 47v-47q-42 0 -65.5 4t-42 22t-20.5 53v9q-2 -4 -4 -10q-20 -42 -66 -65t-100 -23q-79 0 -114.5 41t-35.5 89q0 20 4.5 37t16 31t22.5 25t33 21t37 16.5t46 15t49 12.5t55 13l57 13v24q0 15 -1 25t-7 28t-17 28.5t-34.5 19.5t-56.5 9q-41 0 -68 -10t-38.5 -30
t-15 -36t-3.5 -40l-65 11q9 54 28 82q47 74 160 74q57 0 105 -20.5t63 -72.5q6 -23 6 -92v-154q0 -68 10.5 -86t61.5 -17zM365 217v35l-30 -7q-32 -9 -68.5 -18.5t-49.5 -13.5q-26 -7 -41.5 -12.5t-35 -16.5t-28.5 -26.5t-9 -36.5q0 -32 24 -55.5t71 -23.5q34 0 69 14.5
t58 37.5q25 25 32 52t8 71zM432 698l-170 -140h-53l112 140h111z" />
    <glyph glyph-name="acircumflex" unicode="&#xe2;" horiz-adv-x="500" 
d="M493 47v-47q-42 0 -65.5 4t-42 22t-20.5 53v9q-2 -4 -4 -10q-20 -42 -66 -65t-100 -23q-79 0 -114.5 41t-35.5 89q0 20 4.5 37t16 31t22.5 25t33 21t37 16.5t46 15t49 12.5t55 13l57 13v24q0 15 -1 25t-7 28t-17 28.5t-34.5 19.5t-56.5 9q-41 0 -68 -10t-38.5 -30
t-15 -36t-3.5 -40l-65 11q9 54 28 82q47 74 160 74q57 0 105 -20.5t63 -72.5q6 -23 6 -92v-154q0 -68 10.5 -86t61.5 -17zM365 217v35l-30 -7q-32 -9 -68.5 -18.5t-49.5 -13.5q-26 -7 -41.5 -12.5t-35 -16.5t-28.5 -26.5t-9 -36.5q0 -32 24 -55.5t71 -23.5q34 0 69 14.5
t58 37.5q25 25 32 52t8 71zM265 696l135 -138h-52l-98 65l-89 -65h-50l128 138h26z" />
    <glyph glyph-name="atilde" unicode="&#xe3;" horiz-adv-x="500" 
d="M493 47v-47q-42 0 -65.5 4t-42 22t-20.5 53v9q-2 -4 -4 -10q-20 -42 -66 -65t-100 -23q-79 0 -114.5 41t-35.5 89q0 20 4.5 37t16 31t22.5 25t33 21t37 16.5t46 15t49 12.5t55 13l57 13v24q0 15 -1 25t-7 28t-17 28.5t-34.5 19.5t-56.5 9q-41 0 -68 -10t-38.5 -30
t-15 -36t-3.5 -40l-65 11q9 54 28 82q47 74 160 74q57 0 105 -20.5t63 -72.5q6 -23 6 -92v-154q0 -68 10.5 -86t61.5 -17zM365 217v35l-30 -7q-32 -9 -68.5 -18.5t-49.5 -13.5q-26 -7 -41.5 -12.5t-35 -16.5t-28.5 -26.5t-9 -36.5q0 -32 24 -55.5t71 -23.5q34 0 69 14.5
t58 37.5q25 25 32 52t8 71zM365 675l41 -10q-10 -21 -16 -32t-18 -27t-27 -23.5t-34 -7.5q-24 0 -78 28q-40 20 -52 20q-17 0 -26.5 -11t-18.5 -31l-42 9q35 87 94 87q28 0 74 -25q37 -20 55 -20q30 0 48 43z" />
    <glyph glyph-name="adieresis" unicode="&#xe4;" horiz-adv-x="500" 
d="M493 47v-47q-42 0 -65.5 4t-42 22t-20.5 53v9q-2 -4 -4 -10q-20 -42 -66 -65t-100 -23q-79 0 -114.5 41t-35.5 89q0 20 4.5 37t16 31t22.5 25t33 21t37 16.5t46 15t49 12.5t55 13l57 13v24q0 15 -1 25t-7 28t-17 28.5t-34.5 19.5t-56.5 9q-41 0 -68 -10t-38.5 -30
t-15 -36t-3.5 -40l-65 11q9 54 28 82q47 74 160 74q57 0 105 -20.5t63 -72.5q6 -23 6 -92v-154q0 -68 10.5 -86t61.5 -17zM365 217v35l-30 -7q-32 -9 -68.5 -18.5t-49.5 -13.5q-26 -7 -41.5 -12.5t-35 -16.5t-28.5 -26.5t-9 -36.5q0 -32 24 -55.5t71 -23.5q34 0 69 14.5
t58 37.5q25 25 32 52t8 71zM355 674v-92h-61v92h61zM183 674v-92h-61v92h61z" />
    <glyph glyph-name="aring" unicode="&#xe5;" horiz-adv-x="500" 
d="M493 47v-47q-42 0 -65.5 4t-42 22t-20.5 53v9q-2 -4 -4 -10q-20 -42 -66 -65t-100 -23q-79 0 -114.5 41t-35.5 89q0 20 4.5 37t16 31t22.5 25t33 21t37 16.5t46 15t49 12.5t55 13l57 13v24q0 15 -1 25t-7 28t-17 28.5t-34.5 19.5t-56.5 9q-41 0 -68 -10t-38.5 -30
t-15 -36t-3.5 -40l-65 11q9 54 28 82q47 74 160 74q57 0 105 -20.5t63 -72.5q6 -23 6 -92v-154q0 -68 10.5 -86t61.5 -17zM365 217v35l-30 -7q-32 -9 -68.5 -18.5t-49.5 -13.5q-26 -7 -41.5 -12.5t-35 -16.5t-28.5 -26.5t-9 -36.5q0 -32 24 -55.5t71 -23.5q34 0 69 14.5
t58 37.5q25 25 32 52t8 71zM161 631q0 33 23 56t56 23t56 -23t23 -56t-23 -56t-56 -23t-56 23t-23 56zM197 631q0 -17 12.5 -29.5t29.5 -12.5t29.5 12.5t12.5 29.5t-12.5 29.5t-29.5 12.5t-29.5 -12.5t-12.5 -29.5z" />
    <glyph glyph-name="ae" unicode="&#xe6;" horiz-adv-x="833" 
d="M738 148l54 -11q-33 -84 -95 -120q-48 -29 -117 -29q-58 0 -112.5 27t-78.5 90q-57 -115 -196 -115q-38 0 -73 11q-39 14 -60.5 45t-21.5 72q0 37 16 63.5t53 45.5t77.5 31.5t109.5 27.5l71 18q1 62 -5 80q-17 50 -103 50q-143 0 -138 -112l-66 8q4 40 22 72
q48 86 178 86q128 0 162 -78q18 27 42 45q48 33 120 33q95 0 154.5 -62.5t60.5 -188.5h-368q0 -4 -0.5 -12t-0.5 -12q0 -76 38 -121q45 -52 122 -52q59 0 94 29t61 79zM424 286h298q-8 86 -55 122q-37 28 -90 28q-21 0 -41.5 -5t-46 -19t-43.5 -46.5t-22 -79.5zM365 211v40
q-175 -44 -214 -61q-55 -23 -55 -70q0 -31 22.5 -53.5t72.5 -22.5q72 0 127 43q22 18 32.5 39.5t12.5 38t2 46.5z" />
    <glyph glyph-name="ccedilla" unicode="&#xe7;" horiz-adv-x="479" 
d="M394 119l61 -13q-26 -53 -68 -84.5t-114 -34.5l-18 -34q15 3 28 3q31 0 50.5 -17.5t19.5 -46.5q0 -37 -29 -59.5t-72 -22.5q-2 0 -38 3v27q24 -2 32 -2q25 0 38.5 10t15.5 17t2 12q0 16 -13.5 27t-36.5 11q-13 0 -38 -10v24l34 59q-50 4 -82 19q-53 25 -87.5 83.5
t-34.5 144.5q0 117 64 185t165 68q38 0 69.5 -10.5t50 -24t33 -33t20 -30t9.5 -22.5l-55 -13q-18 42 -54.5 61t-75.5 19q-71 0 -116.5 -52.5t-45.5 -145.5q0 -32 6.5 -62.5t22.5 -63t49.5 -52.5t79.5 -20q89 0 128 80z" />
    <glyph glyph-name="egrave" unicode="&#xe8;" 
d="M424 141l55 -15q-17 -40 -45 -72q-62 -66 -163 -66q-112 0 -169.5 73t-57.5 181q0 114 64 180t156 66q102 0 160 -75t55 -175h-370q-2 -54 15 -99q38 -98 147 -98q103 0 153 100zM110 286h302q-9 74 -50 113q-40 36 -99 36q-62 0 -103.5 -40.5t-49.5 -108.5zM302 558h-53
l-170 140h111z" />
    <glyph glyph-name="eacute" unicode="&#xe9;" 
d="M424 141l55 -15q-17 -40 -45 -72q-62 -66 -163 -66q-112 0 -169.5 73t-57.5 181q0 114 64 180t156 66q102 0 160 -75t55 -175h-370q-2 -54 15 -99q38 -98 147 -98q103 0 153 100zM110 286h302q-9 74 -50 113q-40 36 -99 36q-62 0 -103.5 -40.5t-49.5 -108.5zM441 698
l-170 -140h-53l112 140h111z" />
    <glyph glyph-name="ecircumflex" unicode="&#xea;" 
d="M424 141l55 -15q-17 -40 -45 -72q-62 -66 -163 -66q-112 0 -169.5 73t-57.5 181q0 114 64 180t156 66q102 0 160 -75t55 -175h-370q-2 -54 15 -99q38 -98 147 -98q103 0 153 100zM110 286h302q-9 74 -50 113q-40 36 -99 36q-62 0 -103.5 -40.5t-49.5 -108.5zM274 696
l135 -138h-52l-98 65l-89 -65h-50l128 138h26z" />
    <glyph glyph-name="edieresis" unicode="&#xeb;" 
d="M424 141l55 -15q-17 -40 -45 -72q-62 -66 -163 -66q-112 0 -169.5 73t-57.5 181q0 114 64 180t156 66q102 0 160 -75t55 -175h-370q-2 -54 15 -99q38 -98 147 -98q103 0 153 100zM110 286h302q-9 74 -50 113q-40 36 -99 36q-62 0 -103.5 -40.5t-49.5 -108.5zM377 674v-92
h-61v92h61zM205 674v-92h-61v92h61z" />
    <glyph glyph-name="igrave" unicode="&#xec;" horiz-adv-x="208" 
d="M133 477v-477h-58v477h58zM146 558h-53l-170 140h111z" />
    <glyph glyph-name="iacute" unicode="&#xed;" horiz-adv-x="208" 
d="M133 477v-477h-58v477h58zM285 698l-170 -140h-53l112 140h111z" />
    <glyph glyph-name="icircumflex" unicode="&#xee;" horiz-adv-x="208" 
d="M133 477v-477h-58v477h58zM118 696l135 -138h-52l-98 65l-89 -65h-50l128 138h26z" />
    <glyph glyph-name="idieresis" unicode="&#xef;" horiz-adv-x="208" 
d="M133 477v-477h-58v477h58zM221 674v-92h-61v92h61zM49 674v-92h-61v92h61z" />
    <glyph glyph-name="eth" unicode="&#xf0;" 
d="M464 616l-82 -26q95 -147 95 -327q0 -74 -18 -127q-4 -13 -10.5 -27t-23 -36.5t-37 -39.5t-54.5 -29.5t-75 -12.5q-106 0 -160.5 71t-54.5 173q0 113 59 184.5t156 71.5q85 0 141 -72q-10 33 -14.5 47.5t-18.5 45.5t-34 62l-159 -51l-15 37l151 49q-34 44 -77 85l43 27
q55 -60 82 -97l91 29zM413 237v20.5t-3 31.5t-8 40t-16.5 39.5t-27 37t-40.5 25t-57 10.5q-68 0 -109 -49q-45 -53 -45 -158q0 -96 42.5 -143.5t108.5 -47.5q76 0 115 53.5t40 140.5z" />
    <glyph glyph-name="ntilde" unicode="&#xf1;" 
d="M445 247v-247h-59v247q0 77 -2.5 102.5t-15.5 43.5q-29 41 -93 41q-70 0 -111 -54q-21 -28 -25.5 -58t-4.5 -113v-209h-59v476h59v-85q13 40 51.5 68t97.5 28q87 0 130 -57q22 -29 27 -63.5t5 -119.5zM374 675l41 -10q-10 -21 -16 -32t-18 -27t-27 -23.5t-34 -7.5
q-24 0 -78 28q-40 20 -52 20q-17 0 -26.5 -11t-18.5 -31l-42 9q35 87 94 87q28 0 74 -25q37 -20 55 -20q30 0 48 43z" />
    <glyph glyph-name="ograve" unicode="&#xf2;" 
d="M477 241q1 -111 -58.5 -182t-159.5 -71q-101 0 -158 69.5t-57 174.5q0 104 55 180t162 76q106 0 160.5 -72.5t55.5 -174.5zM414 234v20.5t-3 31.5t-8 40t-16.5 39.5t-27 37t-40.5 25t-57 10.5q-69 0 -110 -49q-45 -53 -45 -158q0 -96 42.5 -143.5t109.5 -47.5
q76 0 115 53.5t40 140.5zM302 558h-53l-170 140h111z" />
    <glyph glyph-name="oacute" unicode="&#xf3;" 
d="M477 241q1 -111 -58.5 -182t-159.5 -71q-101 0 -158 69.5t-57 174.5q0 104 55 180t162 76q106 0 160.5 -72.5t55.5 -174.5zM414 234v20.5t-3 31.5t-8 40t-16.5 39.5t-27 37t-40.5 25t-57 10.5q-69 0 -110 -49q-45 -53 -45 -158q0 -96 42.5 -143.5t109.5 -47.5
q76 0 115 53.5t40 140.5zM441 698l-170 -140h-53l112 140h111z" />
    <glyph glyph-name="ocircumflex" unicode="&#xf4;" 
d="M477 241q1 -111 -58.5 -182t-159.5 -71q-101 0 -158 69.5t-57 174.5q0 104 55 180t162 76q106 0 160.5 -72.5t55.5 -174.5zM414 234v20.5t-3 31.5t-8 40t-16.5 39.5t-27 37t-40.5 25t-57 10.5q-69 0 -110 -49q-45 -53 -45 -158q0 -96 42.5 -143.5t109.5 -47.5
q76 0 115 53.5t40 140.5zM274 696l135 -138h-52l-98 65l-89 -65h-50l128 138h26z" />
    <glyph glyph-name="otilde" unicode="&#xf5;" 
d="M477 241q1 -111 -58.5 -182t-159.5 -71q-101 0 -158 69.5t-57 174.5q0 104 55 180t162 76q106 0 160.5 -72.5t55.5 -174.5zM414 234v20.5t-3 31.5t-8 40t-16.5 39.5t-27 37t-40.5 25t-57 10.5q-69 0 -110 -49q-45 -53 -45 -158q0 -96 42.5 -143.5t109.5 -47.5
q76 0 115 53.5t40 140.5zM374 675l41 -10q-10 -21 -16 -32t-18 -27t-27 -23.5t-34 -7.5q-24 0 -78 28q-40 20 -52 20q-17 0 -26.5 -11t-18.5 -31l-42 9q35 87 94 87q28 0 74 -25q37 -20 55 -20q30 0 48 43z" />
    <glyph glyph-name="odieresis" unicode="&#xf6;" 
d="M477 241q1 -111 -58.5 -182t-159.5 -71q-101 0 -158 69.5t-57 174.5q0 104 55 180t162 76q106 0 160.5 -72.5t55.5 -174.5zM414 234v20.5t-3 31.5t-8 40t-16.5 39.5t-27 37t-40.5 25t-57 10.5q-69 0 -110 -49q-45 -53 -45 -158q0 -96 42.5 -143.5t109.5 -47.5
q76 0 115 53.5t40 140.5zM377 674v-92h-61v92h61zM205 674v-92h-61v92h61z" />
    <glyph glyph-name="divide" unicode="&#xf7;" horiz-adv-x="667" 
d="M667 320v-59h-667v59h667zM289 421q0 19 13.5 32.5t32.5 13.5t32.5 -13.5t13.5 -32.5t-13.5 -32.5t-32.5 -13.5t-32.5 13.5t-13.5 32.5zM289 160q0 19 13.5 32.5t32.5 13.5t32.5 -13.5t13.5 -32.5t-13.5 -32.5t-32.5 -13.5t-32.5 13.5t-13.5 32.5z" />
    <glyph glyph-name="oslash" unicode="&#xf8;" 
d="M156 14l-20 -36l-38 22l22 38q-76 79 -76 199q0 102 58 177t158 75q54 0 101 -25l24 40l38 -22l-26 -45q80 -74 80 -196q0 -110 -58.5 -181.5t-157.5 -71.5q-56 0 -105 26zM149 89l188 329q-37 20 -73 20q-70 0 -115 -56t-45 -146q0 -84 45 -147zM371 391l-190 -330
q30 -21 76 -21q76 0 120 56q40 53 40 142q0 91 -46 153z" />
    <glyph glyph-name="ugrave" unicode="&#xf9;" 
d="M445 477v-477h-59v86q-10 -24 -24 -43q-43 -54 -127 -54q-61 0 -95.5 28t-47.5 60q-17 39 -17 166v234h59v-247q0 -41 1 -60.5t6.5 -49t16.5 -43t32 -24t52 -10.5q63 0 101 40q29 30 36 68t7 116v210h59zM302 558h-53l-170 140h111z" />
    <glyph glyph-name="uacute" unicode="&#xfa;" 
d="M445 477v-477h-59v86q-10 -24 -24 -43q-43 -54 -127 -54q-61 0 -95.5 28t-47.5 60q-17 39 -17 166v234h59v-247q0 -41 1 -60.5t6.5 -49t16.5 -43t32 -24t52 -10.5q63 0 101 40q29 30 36 68t7 116v210h59zM441 698l-170 -140h-53l112 140h111z" />
    <glyph glyph-name="ucircumflex" unicode="&#xfb;" 
d="M445 477v-477h-59v86q-10 -24 -24 -43q-43 -54 -127 -54q-61 0 -95.5 28t-47.5 60q-17 39 -17 166v234h59v-247q0 -41 1 -60.5t6.5 -49t16.5 -43t32 -24t52 -10.5q63 0 101 40q29 30 36 68t7 116v210h59zM274 696l135 -138h-52l-98 65l-89 -65h-50l128 138h26z" />
    <glyph glyph-name="udieresis" unicode="&#xfc;" 
d="M445 477v-477h-59v86q-10 -24 -24 -43q-43 -54 -127 -54q-61 0 -95.5 28t-47.5 60q-17 39 -17 166v234h59v-247q0 -41 1 -60.5t6.5 -49t16.5 -43t32 -24t52 -10.5q63 0 101 40q29 30 36 68t7 116v210h59zM377 674v-92h-61v92h61zM205 674v-92h-61v92h61z" />
    <glyph glyph-name="yacute" unicode="&#xfd;" horiz-adv-x="437" 
d="M367 477h60l-215 -546q-40 -99 -50 -118q-32 -54 -88 -54q-37 0 -64 19v60q34 -24 62 -24q21 0 33.5 12.5t25.5 44.5q2 5 12.5 30.5t12.5 29.5l25 69l-165 477h57l139 -406zM400 698l-170 -140h-53l112 140h111z" />
    <glyph glyph-name="thorn" unicode="&#xfe;" 
d="M76 -253v959h58v-307q12 27 29 44q44 44 115 44q55 0 96 -24.5t62 -64t31 -80t10 -81.5q0 -103 -53 -175.5t-145 -72.5q-106 0 -145 90v-332h-58zM134 245q-2 -63 7 -96q14 -54 48.5 -79t78.5 -25q41 0 71.5 19.5t46.5 51t23 63.5t7 65q0 82 -38 135.5t-110 53.5
q-130 0 -134 -188z" />
    <glyph glyph-name="ydieresis" unicode="&#xff;" horiz-adv-x="437" 
d="M367 477h60l-215 -546q-40 -99 -50 -118q-32 -54 -88 -54q-37 0 -64 19v60q34 -24 62 -24q21 0 33.5 12.5t25.5 44.5q2 5 12.5 30.5t12.5 29.5l25 69l-165 477h57l139 -406zM336 674v-92h-61v92h61zM164 674v-92h-61v92h61z" />
    <glyph glyph-name="dotlessi" unicode="&#x131;" horiz-adv-x="208" 
d="M133 477v-477h-58v477h58z" />
    <glyph glyph-name="Lslash" unicode="&#x141;" horiz-adv-x="562" 
d="M81 0v255l-81 -53v60l81 53v392h68v-349l216 140v-60l-216 -140v-236h390v-62h-458z" />
    <glyph glyph-name="lslash" unicode="&#x142;" horiz-adv-x="208" 
d="M75 0v339l-75 -49v60l75 49v307h59v-269l75 48v-59l-75 -49v-377h-59z" />
    <glyph glyph-name="OE" unicode="&#x152;" horiz-adv-x="1062" 
d="M1026 60v-60h-490q-75 -18 -139 -18q-159 0 -253 101t-94 268q0 102 37 184t117.5 133.5t193.5 51.5q49 0 127 -14h476v-59h-408v-256h370v-62h-370v-269h433zM525 60v587q-62 11 -113 11q-144 0 -220 -84q-72 -81 -72 -230q0 -148 82 -225t211 -77q58 0 112 18z" />
    <glyph glyph-name="oe" unicode="&#x153;" horiz-adv-x="896" 
d="M797 143l57 -15q-32 -76 -96 -112q-49 -28 -120 -28q-66 0 -112 27q-49 30 -78 88q-19 -55 -72 -86q-50 -29 -114 -29q-100 0 -159 70.5t-59 176.5q0 44 11.5 85.5t35.5 80.5t69 63t105 24q40 0 73 -11t51.5 -25t33 -33t18.5 -27.5t7 -16.5q65 113 188 113
q103 0 159.5 -69t58.5 -181h-371q-1 -6 -1 -25q0 -67 38.5 -120t117.5 -53q111 0 159 103zM484 288h302q-4 58 -40.5 103t-107.5 45q-65 0 -105 -41t-49 -107zM420 235q1 105 -44.5 153t-108.5 48q-71 0 -115 -51t-44 -143q0 -100 43 -151t112 -51q65 0 111 47t46 148z" />
    <glyph glyph-name="Scaron" unicode="&#x160;" horiz-adv-x="604" 
d="M561 569l-62 -34q-14 42 -30 63q-51 71 -153 71q-42 0 -77.5 -11t-62 -41t-26.5 -74q0 -30 12 -53t34 -37t36.5 -20t36.5 -13q4 -1 67 -18t76 -22q163 -51 163 -187q0 -83 -69 -147t-195 -64q-100 0 -166 43q-77 52 -96 153l67 35q2 -53 17 -82q23 -47 71 -69t107 -22
q96 0 146 44t50 106q0 61 -43 95q-15 13 -39.5 23.5t-46.5 16.5t-80 21q-37 10 -61.5 18t-56 24t-50 35t-32 49t-13.5 68q0 66 36.5 109t86.5 59t110 16q51 0 93 -13t66 -29.5t44 -42t26 -38.5t14 -32zM281 772l-104 123h49l78 -56l77 56h47l-105 -123h-42z" />
    <glyph glyph-name="scaron" unicode="&#x161;" horiz-adv-x="458" 
d="M222 280l50 -11q71 -18 101 -51q32 -35 32 -84q0 -58 -46 -102t-133 -44q-71 0 -120 34q-46 31 -72 94l58 20q10 -38 44 -66.5t90 -28.5q58 0 89.5 27t31.5 67q0 22 -9.5 38t-27.5 25t-31.5 13.5t-33.5 8.5q-8 2 -17.5 4t-21.5 4.5t-18 3.5q-23 5 -39 11t-38.5 19
t-34.5 36.5t-12 56.5q0 21 7 42t24 42.5t53.5 35t86.5 13.5q67 0 111 -27q45 -27 59 -81l-57 -14q-8 36 -41 54q-28 17 -75 17q-24 0 -45.5 -4.5t-43 -23.5t-21.5 -52q0 -35 25 -50.5t75 -26.5zM218 558l-134 138h51l98 -65l90 65h49l-127 -138h-27z" />
    <glyph glyph-name="Ydieresis" unicode="&#x178;" horiz-adv-x="625" 
d="M338 292v-292h-65v292l-263 414h78l218 -351l227 351h81zM456 881v-96h-67v96h67zM237 881v-96h-67v96h67z" />
    <glyph glyph-name="Zcaron" unicode="&#x17d;" horiz-adv-x="583" 
d="M548 60v-60h-519v44l436 601h-410v61h499v-47l-430 -599h424zM271 772l-104 123h49l78 -56l77 56h47l-105 -123h-42z" />
    <glyph glyph-name="zcaron" unicode="&#x17e;" horiz-adv-x="396" 
d="M376 53v-53h-348v37l258 389h-236v51h319v-35l-258 -389h265zM187 558l-134 138h51l98 -65l90 65h49l-127 -138h-27z" />
    <glyph glyph-name="florin" unicode="&#x192;" horiz-adv-x="333" 
d="M237 575l-25 -104h85l-11 -45h-84l-140 -573q-11 -32 -12 -35q-34 -62 -88 -62q-26 0 -54 13l15 55q18 -9 33 -9q23 0 32.5 16t19.5 54l132 541h-74l12 45h72l33 132q7 24 12 37t16.5 33.5t31 30.5t46.5 10q20 0 52 -10l-14 -57l-7 2q-17 4 -24 4q-26 0 -41 -22
q-4 -7 -18 -56z" />
    <glyph glyph-name="circumflex" unicode="&#x2c6;" horiz-adv-x="271" 
d="M145 696l135 -138h-52l-98 65l-89 -65h-50l128 138h26z" />
    <glyph glyph-name="caron" unicode="&#x2c7;" horiz-adv-x="271" 
d="M126 558l-134 138h51l98 -65l90 65h49l-127 -138h-27z" />
    <glyph glyph-name="breve" unicode="&#x2d8;" horiz-adv-x="271" 
d="M-5 685h45q5 -30 31 -47t61 -17q33 0 64 15t37 49h43q-4 -45 -43.5 -83t-103.5 -38q-55 0 -92 35t-42 86z" />
    <glyph glyph-name="dotaccent" unicode="&#x2d9;" horiz-adv-x="271" 
d="M166 674v-92h-61v92h61z" />
    <glyph glyph-name="ring" unicode="&#x2da;" horiz-adv-x="271" 
d="M56 631q0 33 23 56t56 23t56 -23t23 -56t-23 -56t-56 -23t-56 23t-23 56zM92 631q0 -17 12.5 -29.5t29.5 -12.5t29.5 12.5t12.5 29.5t-12.5 29.5t-29.5 12.5t-29.5 -12.5t-12.5 -29.5z" />
    <glyph glyph-name="ogonek" unicode="&#x2db;" horiz-adv-x="271" 
d="M145 6l46 -1q-64 -46 -64 -81q0 -14 10 -26q14 -15 63 -15v-46q-8 -1 -24 -1q-106 0 -106 67q0 46 75 103z" />
    <glyph glyph-name="tilde" unicode="&#x2dc;" horiz-adv-x="271" 
d="M251 675l41 -10q-10 -21 -16 -32t-18 -27t-27 -23.5t-34 -7.5q-24 0 -78 28q-40 20 -52 20q-17 0 -26.5 -11t-18.5 -31l-42 9q35 87 94 87q28 0 74 -25q37 -20 55 -20q30 0 48 43z" />
    <glyph glyph-name="hungarumlaut" unicode="&#x2dd;" horiz-adv-x="271" 
d="M174 698l-171 -140h-52l111 140h112zM321 698l-170 -140h-53l111 140h112z" />
    <glyph glyph-name="endash" unicode="&#x2013;" horiz-adv-x="583" 
d="M546 358v-65h-508v65h508z" />
    <glyph glyph-name="emdash" unicode="&#x2014;" horiz-adv-x="688" 
d="M650 358v-65h-613v65h613z" />
    <glyph glyph-name="quoteleft" unicode="&#x2018;" horiz-adv-x="167" 
d="M123 432h-79v80q1 79 8 113t38 81l33 -22q-38 -57 -38 -129v-6h38v-117z" />
    <glyph glyph-name="quoteright" unicode="&#x2019;" horiz-adv-x="167" 
d="M44 706h79v-79q-1 -79 -8 -113t-38 -82l-33 23q38 57 38 129v6h-38v116z" />
    <glyph glyph-name="quotesinglbase" unicode="&#x201a;" horiz-adv-x="167" 
d="M44 116h79v-80q-1 -79 -8 -112.5t-38 -81.5l-33 23q38 57 38 129v6h-38v116z" />
    <glyph glyph-name="quotedblleft" unicode="&#x201c;" horiz-adv-x="292" 
d="M248 432h-79v80q0 76 7.5 111.5t38.5 82.5l33 -22q-39 -58 -39 -129v-6h39v-117zM123 432h-79v80q1 79 8 113t38 81l33 -22q-38 -57 -38 -129v-6h38v-117z" />
    <glyph glyph-name="quotedblright" unicode="&#x201d;" horiz-adv-x="292" 
d="M44 706h79v-79q-1 -79 -8 -113t-38 -82l-33 23q38 57 38 129v6h-38v116zM169 706h79v-79q-1 -78 -8 -112t-38 -83l-33 23q38 57 38 129v6h-38v116z" />
    <glyph glyph-name="quotedblbase" unicode="&#x201e;" horiz-adv-x="292" 
d="M44 116h79v-80q-1 -79 -8 -112.5t-38 -81.5l-33 23q38 57 38 129v6h-38v116zM169 116h79v-80q-1 -77 -8 -111t-38 -83l-33 23q38 57 38 129v6h-38v116z" />
    <glyph glyph-name="dagger" unicode="&#x2020;" horiz-adv-x="562" 
d="M317 440v-440h-68v440h-160v59h160v207h68v-207h156v-59h-156z" />
    <glyph glyph-name="daggerdbl" unicode="&#x2021;" horiz-adv-x="562" 
d="M317 214v-214h-68v214h-160v59h160v179h-160v59h160v196h68v-196h156v-59h-156v-179h156v-59h-156z" />
    <glyph glyph-name="bullet" unicode="&#x2022;" horiz-adv-x="333" 
d="M47 353q0 49 34.5 84t84.5 35t84.5 -35t34.5 -84t-34.5 -84t-84.5 -35t-84.5 35t-34.5 84z" />
    <glyph glyph-name="ellipsis" unicode="&#x2026;" horiz-adv-x="1000" 
d="M127 116h79v-116h-79v116zM461 116h79v-116h-79v116zM795 116h79v-116h-79v116z" />
    <glyph glyph-name="perthousand" unicode="&#x2030;" horiz-adv-x="1250" 
d="M344 477q-2 -93 -41 -156.5t-116 -63.5q-54 0 -90.5 35t-51 84.5t-14.5 108.5q0 103 41 166.5t117 63.5q45 0 77.5 -22t48.5 -59t23 -76t6 -81zM293 478q1 86 -26 139.5t-79 53.5q-51 0 -78 -52.5t-27 -132.5q0 -95 30 -142q26 -42 75 -42q31 0 52.5 16.5t32.5 45
t15.5 56t4.5 58.5zM638 730l-353 -769l-40 18l351 770zM844 212q-2 -93 -41 -156.5t-116 -63.5q-41 0 -72.5 20t-49 53.5t-26 72.5t-8.5 82q0 103 41 166.5t117 63.5q45 0 77.5 -22t48.5 -59t23 -76t6 -81zM793 213q1 86 -26 139.5t-79 53.5q-51 0 -78 -52.5t-27 -132.5
q0 -95 30 -142q26 -42 75 -42q31 0 52.5 16.5t32.5 45t15.5 56t4.5 58.5zM1219 212q-2 -93 -41 -156.5t-116 -63.5q-41 0 -72.5 20t-49 53.5t-26 72.5t-8.5 82q0 103 41 166.5t117 63.5q45 0 77.5 -22t48.5 -59t23 -76t6 -81zM1168 213q1 86 -26 139.5t-79 53.5
q-51 0 -78 -52.5t-27 -132.5q0 -95 30 -142q26 -42 75 -42q31 0 52.5 16.5t32.5 45t15.5 56t4.5 58.5z" />
    <glyph glyph-name="guilsinglleft" unicode="&#x2039;" horiz-adv-x="250" 
d="M43 309l119 185l47 -29l-99 -156l99 -141l-47 -31z" />
    <glyph glyph-name="guilsinglright" unicode="&#x203a;" horiz-adv-x="250" 
d="M207 322l-119 -185l-47 30l99 155l-99 141l47 31z" />
    <glyph glyph-name="fraction" unicode="&#x2044;" horiz-adv-x="125" 
d="M256 695l-354 -695l-33 13l354 698z" />
    <glyph glyph-name="trademark" unicode="&#x2122;" horiz-adv-x="687" 
d="M620 707v-332h-46v218l2 67l-17 -58l-72 -227h-42l-72 228l-17 56l3 -66v-218h-45v332h67l87 -273l85 273h67zM180 665v-290h-47v290h-109v42h262v-42h-106z" />
    <glyph glyph-name="minus" unicode="&#x2212;" horiz-adv-x="667" 
d="M667 321v-59h-667v59h667z" />
    <glyph glyph-name="fi" unicode="&#xfb01;" 
d="M295 477v-50h-108v-427h-59v427h-105v50h105v91q1 77 7 94q20 58 99 58q17 0 61 -7v-58q-30 12 -56 12q-34 0 -46 -27q-5 -12 -6 -67v-96h108zM446 477v-477h-58v477h58zM446 680v-91h-58v91h58z" />
    <glyph glyph-name="fl" unicode="&#xfb02;" 
d="M296 477v-50h-109v-427h-59v427h-105v50h105v91q1 77 7 94q20 58 99 58q15 0 62 -7v-58q-30 12 -57 12q-34 0 -46 -27q-5 -12 -6 -67v-96h109zM447 706v-706h-59v706h59z" />
    </font>
</defs>
</svg>
